<?xml version="1.0" encoding="UTF-8"?>
<svg xmlns="http://www.w3.org/2000/svg" xmlns:xlink="http://www.w3.org/1999/xlink" viewBox="0 0 32 32" version="1.1">
<g>
<path d="M 16 4 C 9.382813 4 4 9.382813 4 16 C 4 22.617188 9.382813 28 16 28 C 22.617188 28 28 22.617188 28 16 C 28 9.382813 22.617188 4 16 4 Z M 16 6 C 21.535156 6 26 10.464844 26 16 C 26 21.535156 21.535156 26 16 26 C 10.464844 26 6 21.535156 6 16 C 6 10.464844 10.464844 6 16 6 Z M 16 11 C 13.789063 11 12 12.789063 12 15 L 12 17 C 12 19.210938 13.789063 21 16 21 C 18.210938 21 20 19.210938 20 17 L 20 15 C 20 12.789063 18.210938 11 16 11 Z M 16 13 C 17.191406 13 18 13.808594 18 15 L 18 17 C 18 18.191406 17.191406 19 16 19 C 14.808594 19 14 18.191406 14 17 L 14 15 C 14 13.808594 14.808594 13 16 13 Z "></path>
</g>
</svg>
