<?xml version="1.0" encoding="UTF-8"?>
<svg xmlns="http://www.w3.org/2000/svg" xmlns:xlink="http://www.w3.org/1999/xlink" viewBox="0 0 32 32" version="1.1">
<g>
<path d="M 0 7 L 0 25 L 32 25 L 32 7 Z M 2 9 L 30 9 L 30 23 L 2 23 Z M 7.96875 12 L 7.65625 12.34375 C 7.65625 12.34375 6.898438 13 6.40625 13 L 6.40625 15 C 7.085938 15 7.554688 14.722656 8 14.46875 L 8 20 L 10 20 L 10 12 Z M 14.5 12 C 13.117188 12 12 13.117188 12 14.5 L 12 15 L 14 15 L 14 14.5 C 14 14.285156 14.285156 14 14.5 14 C 14.714844 14 15 14.285156 15 14.5 L 15 15.3125 C 15 15.378906 14.925781 15.542969 14.78125 15.6875 L 12.3125 18.09375 L 12 18.375 L 12 20 L 17 20 L 17 18 L 15.28125 18 L 16.1875 17.125 L 16.21875 17.09375 C 16.675781 16.636719 17 16.046875 17 15.3125 L 17 14.5 C 17 13.117188 15.882813 12 14.5 12 Z M 21.5 12 C 20.117188 12 19 13.117188 19 14.5 L 19 17.5 C 19 18.882813 20.117188 20 21.5 20 C 22.882813 20 24 18.882813 24 17.5 L 24 17 L 22 17 L 22 17.5 C 22 17.714844 21.714844 18 21.5 18 C 21.285156 18 21 17.714844 21 17.5 L 21 14.5 C 21 14.285156 21.285156 14 21.5 14 C 21.714844 14 22 14.285156 22 14.5 L 22 15 L 24 15 L 24 14.5 C 24 13.117188 22.882813 12 21.5 12 Z "></path>
</g>
</svg>
