<?xml version="1.0" encoding="UTF-8"?>
<svg xmlns="http://www.w3.org/2000/svg" xmlns:xlink="http://www.w3.org/1999/xlink" viewBox="0 0 32 32" version="1.1">
<g>
<path d="M 16 4 C 9.382813 4 4 9.382813 4 16 C 4 22.617188 9.382813 28 16 28 C 22.617188 28 28 22.617188 28 16 C 28 9.382813 22.617188 4 16 4 Z M 16 6 C 21.535156 6 26 10.464844 26 16 C 26 21.535156 21.535156 26 16 26 C 10.464844 26 6 21.535156 6 16 C 6 10.464844 10.464844 6 16 6 Z M 15.59375 11 L 15.4375 11.78125 C 15.4375 11.78125 15.273438 12.355469 14.875 12.9375 C 14.476563 13.519531 13.980469 14 13 14 L 13 16 C 14.375 16 15.320313 15.324219 16 14.59375 L 16 21 L 18 21 L 18 11 Z "></path>
</g>
</svg>
