<?xml version="1.0" encoding="UTF-8"?>
<svg xmlns="http://www.w3.org/2000/svg" xmlns:xlink="http://www.w3.org/1999/xlink" viewBox="0 0 32 32" version="1.1">
<g>
<path d="M 16 3 C 8.832031 3 3 8.832031 3 16 C 3 23.167969 8.832031 29 16 29 C 23.167969 29 29 23.167969 29 16 C 29 8.832031 23.167969 3 16 3 Z M 16 5 C 22.085938 5 27 9.914063 27 16 C 27 22.085938 22.085938 27 16 27 C 9.914063 27 5 22.085938 5 16 C 5 9.914063 9.914063 5 16 5 Z M 16 6 C 10.488281 6 6 10.488281 6 16 C 6 21.511719 10.488281 26 16 26 C 21.511719 26 26 21.511719 26 16 C 26 10.488281 21.511719 6 16 6 Z M 16 8 C 20.429688 8 24 11.570313 24 16 C 24 20.429688 20.429688 24 16 24 C 11.570313 24 8 20.429688 8 16 C 8 11.570313 11.570313 8 16 8 Z M 14 11 L 14 14 L 15 15 L 14 16 L 14 21 L 18 21 L 18 18 L 17 17 L 18 16 L 18 11 Z "></path>
</g>
</svg>
