<?xml version="1.0" encoding="UTF-8"?>
<svg xmlns="http://www.w3.org/2000/svg" xmlns:xlink="http://www.w3.org/1999/xlink" viewBox="0 0 32 32" version="1.1">
<g>
<path d="M 16 4 C 9.382813 4 4 9.382813 4 16 C 4 22.617188 9.382813 28 16 28 C 22.617188 28 28 22.617188 28 16 C 28 9.382813 22.617188 4 16 4 Z M 16 6 C 21.535156 6 26 10.464844 26 16 C 26 21.535156 21.535156 26 16 26 C 10.464844 26 6 21.535156 6 16 C 6 10.464844 10.464844 6 16 6 Z M 15.40625 11 C 13.484375 11 11.90625 12.578125 11.90625 14.5 L 11.90625 15 L 13.90625 15 L 13.90625 14.5 C 13.90625 13.625 14.53125 13 15.40625 13 L 16.5 13 C 17.375 13 18 13.625 18 14.5 C 18 14.957031 17.648438 15.480469 17.0625 15.84375 C 15.828125 16.601563 14.746094 17.085938 13.84375 17.59375 C 13.390625 17.847656 12.976563 18.089844 12.625 18.46875 C 12.273438 18.847656 12 19.417969 12 20 L 12 21 L 20 21 L 20 19 L 15.4375 19 C 16.171875 18.621094 17.019531 18.242188 18.125 17.5625 C 19.140625 16.925781 20 15.84375 20 14.5 C 20 12.578125 18.421875 11 16.5 11 Z "></path>
</g>
</svg>
