<?xml version="1.0" encoding="UTF-8"?>
<svg xmlns="http://www.w3.org/2000/svg" xmlns:xlink="http://www.w3.org/1999/xlink" viewBox="0 0 32 32" version="1.1">
<g>
<path d="M 9 5 L 5 9 L 8 9 L 8 13.09375 C 5.164063 13.570313 3 16.035156 3 19 C 3 22.300781 5.699219 25 9 25 C 12.300781 25 15 22.300781 15 19 C 15 16.035156 12.835938 13.570313 10 13.09375 L 10 9 L 13 9 Z M 23 5 L 19 9 L 22 9 L 22 13.09375 C 19.164063 13.570313 17 16.035156 17 19 C 17 22.300781 19.699219 25 23 25 C 26.300781 25 29 22.300781 29 19 C 29 16.035156 26.835938 13.570313 24 13.09375 L 24 9 L 27 9 Z M 9 15 C 11.222656 15 13 16.777344 13 19 C 13 21.222656 11.222656 23 9 23 C 6.777344 23 5 21.222656 5 19 C 5 16.777344 6.777344 15 9 15 Z M 23 15 C 25.222656 15 27 16.777344 27 19 C 27 21.222656 25.222656 23 23 23 C 20.777344 23 19 21.222656 19 19 C 19 16.777344 20.777344 15 23 15 Z "></path>
</g>
</svg>
