<?xml version="1.0" encoding="UTF-8"?>
<svg xmlns="http://www.w3.org/2000/svg" xmlns:xlink="http://www.w3.org/1999/xlink" viewBox="0 0 32 32" version="1.1">
<g>
<path d="M 19 3 C 16.035156 3 13.570313 5.164063 13.09375 8 L 9 8 L 9 5 L 5 9 L 9 13 L 9 10 L 13.09375 10 C 13.570313 12.835938 16.035156 15 19 15 C 22.300781 15 25 12.300781 25 9 C 25 5.699219 22.300781 3 19 3 Z M 19 5 C 21.222656 5 23 6.777344 23 9 C 23 11.222656 21.222656 13 19 13 C 16.777344 13 15 11.222656 15 9 C 15 6.777344 16.777344 5 19 5 Z M 19 17 C 16.035156 17 13.570313 19.164063 13.09375 22 L 9 22 L 9 19 L 5 23 L 9 27 L 9 24 L 13.09375 24 C 13.570313 26.835938 16.035156 29 19 29 C 22.300781 29 25 26.300781 25 23 C 25 19.699219 22.300781 17 19 17 Z M 19 19 C 21.222656 19 23 20.777344 23 23 C 23 25.222656 21.222656 27 19 27 C 16.777344 27 15 25.222656 15 23 C 15 20.777344 16.777344 19 19 19 Z "></path>
</g>
</svg>
