<?xml version="1.0" encoding="UTF-8"?>
<svg xmlns="http://www.w3.org/2000/svg" xmlns:xlink="http://www.w3.org/1999/xlink" viewBox="0 0 32 32" version="1.1">
<g>
<path d="M 9 7 C 5.699219 7 3 9.699219 3 13 C 3 15.964844 5.164063 18.429688 8 18.90625 L 8 23 L 5 23 L 9 27 L 13 23 L 10 23 L 10 18.90625 C 12.835938 18.429688 15 15.964844 15 13 C 15 9.699219 12.300781 7 9 7 Z M 23 7 C 19.699219 7 17 9.699219 17 13 C 17 15.964844 19.164063 18.429688 22 18.90625 L 22 23 L 19 23 L 23 27 L 27 23 L 24 23 L 24 18.90625 C 26.835938 18.429688 29 15.964844 29 13 C 29 9.699219 26.300781 7 23 7 Z M 9 9 C 11.222656 9 13 10.777344 13 13 C 13 15.222656 11.222656 17 9 17 C 6.777344 17 5 15.222656 5 13 C 5 10.777344 6.777344 9 9 9 Z M 23 9 C 25.222656 9 27 10.777344 27 13 C 27 15.222656 25.222656 17 23 17 C 20.777344 17 19 15.222656 19 13 C 19 10.777344 20.777344 9 23 9 Z "></path>
</g>
</svg>
