<?xml version="1.0" encoding="UTF-8"?>
<svg xmlns="http://www.w3.org/2000/svg" xmlns:xlink="http://www.w3.org/1999/xlink" viewBox="0 0 32 32" version="1.1">
<g>
<path d="M 11 8 C 8.277344 8 5.804688 9.101563 4 10.875 L 4 14.125 C 5.363281 11.660156 7.988281 10 11 10 C 12.589844 10 14.121094 10.460938 15.4375 11.34375 L 16 11.71875 L 16.5625 11.34375 C 17.878906 10.460938 19.410156 10 21 10 C 24.011719 10 26.636719 11.660156 28 14.125 L 28 10.875 C 26.195313 9.101563 23.722656 8 21 8 C 19.234375 8 17.519531 8.464844 16 9.34375 C 14.480469 8.464844 12.765625 8 11 8 Z M 11 12 C 7.699219 12 5 14.699219 5 18 C 5 21.300781 7.699219 24 11 24 C 13.089844 24 14.925781 22.910156 16 21.28125 C 17.074219 22.910156 18.910156 24 21 24 C 24.300781 24 27 21.300781 27 18 C 27 14.699219 24.300781 12 21 12 C 18.910156 12 17.074219 13.089844 16 14.71875 C 14.925781 13.089844 13.089844 12 11 12 Z M 11 14 C 13.222656 14 15 15.777344 15 18 C 15 20.222656 13.222656 22 11 22 C 8.777344 22 7 20.222656 7 18 C 7 15.777344 8.777344 14 11 14 Z M 21 14 C 23.222656 14 25 15.777344 25 18 C 25 20.222656 23.222656 22 21 22 C 18.777344 22 17 20.222656 17 18 C 17 15.777344 18.777344 14 21 14 Z "></path>
</g>
</svg>
