<?xml version="1.0" encoding="UTF-8"?>
<svg xmlns="http://www.w3.org/2000/svg" xmlns:xlink="http://www.w3.org/1999/xlink" viewBox="0 0 32 32" version="1.1">
<g>
<path d="M 16 2.25 C 14.390625 2.25 12.792969 2.484375 11.550781 3.105469 C 11.316406 3.222656 11.136719 3.429688 11.050781 3.679688 L 9.929688 7 L 7 7 L 7 9 L 9.300781 9 C 9.292969 9.382813 9.5 9.734375 9.835938 9.914063 L 15.40625 12.816406 C 15.582031 12.945313 15.796875 13.011719 16.015625 13.003906 C 16.015625 13.007813 16.019531 13.007813 16.019531 13.003906 C 16.023438 13.007813 16.023438 13.007813 16.027344 13.003906 C 16.234375 13.003906 16.4375 12.933594 16.609375 12.8125 L 22.21875 9.820313 C 22.527344 9.660156 22.726563 9.347656 22.746094 9 L 25 9 L 25 7 L 22.125 7 L 20.941406 3.664063 C 20.855469 3.421875 20.679688 3.222656 20.449219 3.105469 C 19.207031 2.484375 17.609375 2.25 16 2.25 Z M 16 4.25 C 17.265625 4.25 18.441406 4.507813 19.234375 4.835938 L 20.519531 8.460938 L 15.996094 10.871094 L 11.519531 8.535156 L 12.773438 4.835938 C 13.566406 4.511719 14.738281 4.25 16 4.25 Z M 11 13 C 11 13.871094 11.074219 14.476563 11.214844 15 L 9 15 L 9 17 L 11.984375 17 C 12.039063 17.136719 12.0625 17.179688 12.125 17.34375 C 12.175781 17.484375 12.257813 17.613281 12.367188 17.71875 C 13.042969 18.371094 13.84375 18.542969 14.546875 18.722656 C 14.71875 18.765625 14.847656 18.789063 15 18.824219 L 15 26 L 17 26 L 17 18.824219 C 17.152344 18.789063 17.28125 18.765625 17.453125 18.722656 C 18.15625 18.542969 18.957031 18.371094 19.632813 17.71875 C 19.742188 17.613281 19.824219 17.484375 19.875 17.34375 C 19.9375 17.179688 19.960938 17.136719 20.015625 17 L 23 17 L 23 15 L 20.785156 15 C 20.925781 14.476563 21 13.871094 21 13 L 19 13 C 19 13.945313 18.9375 14.273438 18.796875 14.671875 C 18.683594 15 18.421875 15.585938 18.136719 16.324219 C 18.015625 16.390625 17.496094 16.648438 16.957031 16.785156 C 16.445313 16.917969 16.109375 16.964844 16 16.980469 C 15.890625 16.964844 15.554688 16.917969 15.042969 16.785156 C 14.503906 16.648438 13.984375 16.390625 13.863281 16.324219 C 13.578125 15.585938 13.316406 15 13.203125 14.671875 C 13.0625 14.273438 13 13.945313 13 13 Z M 10 18.453125 C 9.832031 18.457031 9.671875 18.5 9.523438 18.582031 C 8.996094 18.648438 8.46875 18.714844 8.046875 18.984375 C 7.492188 19.335938 7 19.949219 7 20.726563 L 7 27.726563 C 7 28.503906 7.492188 29.117188 8.046875 29.46875 C 8.605469 29.824219 9.277344 30 10 30 C 10.167969 29.996094 10.332031 29.953125 10.480469 29.871094 C 11.003906 29.804688 11.53125 29.738281 11.953125 29.46875 C 12.507813 29.117188 13 28.503906 13 27.726563 L 13 20.726563 C 13 19.949219 12.507813 19.335938 11.953125 18.984375 C 11.394531 18.628906 10.722656 18.453125 10 18.453125 Z M 22 18.453125 C 21.832031 18.457031 21.671875 18.5 21.527344 18.582031 C 21.523438 18.582031 21.523438 18.582031 21.519531 18.582031 C 20.996094 18.648438 20.46875 18.714844 20.046875 18.984375 C 19.492188 19.335938 19 19.949219 19 20.726563 L 19 27.726563 C 19 28.503906 19.492188 29.117188 20.046875 29.46875 C 20.605469 29.824219 21.277344 30 22 30 C 22.167969 29.996094 22.332031 29.953125 22.480469 29.871094 C 23.003906 29.804688 23.53125 29.738281 23.953125 29.46875 C 24.507813 29.117188 25 28.503906 25 27.726563 L 25 20.726563 C 25 19.949219 24.507813 19.335938 23.953125 18.984375 C 23.394531 18.628906 22.722656 18.453125 22 18.453125 Z M 10 20.453125 C 10.378906 20.453125 10.710938 20.5625 10.875 20.671875 C 10.960938 20.722656 10.988281 20.753906 11 20.765625 L 11 27.6875 C 10.988281 27.699219 10.960938 27.730469 10.875 27.78125 C 10.710938 27.890625 10.378906 28 10 28 C 9.621094 28 9.289063 27.890625 9.125 27.78125 C 9.039063 27.730469 9.011719 27.699219 9 27.6875 L 9 20.765625 C 9.011719 20.753906 9.039063 20.722656 9.125 20.671875 C 9.289063 20.5625 9.621094 20.453125 10 20.453125 Z M 22 20.453125 C 22.378906 20.453125 22.710938 20.5625 22.875 20.671875 C 22.960938 20.722656 22.988281 20.753906 23 20.765625 L 23 27.6875 C 22.988281 27.699219 22.960938 27.730469 22.875 27.78125 C 22.710938 27.890625 22.378906 28 22 28 C 21.621094 28 21.289063 27.890625 21.125 27.78125 C 21.039063 27.730469 21.011719 27.699219 21 27.6875 L 21 20.765625 C 21.011719 20.753906 21.039063 20.722656 21.125 20.671875 C 21.289063 20.5625 21.621094 20.453125 22 20.453125 Z "></path>
</g>
</svg>
