<?xml version="1.0" encoding="UTF-8"?>
<svg xmlns="http://www.w3.org/2000/svg" xmlns:xlink="http://www.w3.org/1999/xlink" viewBox="0 0 32 32" version="1.1">
<g>
<path d="M 11.25 7 L 10.9375 7.5 L 8.15625 12.1875 L 8 12.40625 L 8 14 L 12 14 L 12 16 L 14 16 L 14 14 L 15 14 L 15 12 L 14 12 L 14 7 Z M 17 7 L 17 16 L 19 16 L 19 14 L 19.65625 12.6875 L 21 16 L 23 16 L 20.78125 10.46875 L 22.53125 7 L 20.53125 7 L 19 10.03125 L 19 7 Z M 12 9.59375 L 12 12 L 10.5625 12 Z M 2 18 L 2 26 L 30 26 L 30 18 L 28 18 L 28 20 L 27 20 L 27 22 L 28 22 L 28 24 L 4 24 L 4 22 L 5 22 L 5 20 L 4 20 L 4 18 Z M 7 20 L 7 22 L 9 22 L 9 20 Z M 11 20 L 11 22 L 13 22 L 13 20 Z M 15 20 L 15 22 L 17 22 L 17 20 Z M 19 20 L 19 22 L 21 22 L 21 20 Z M 23 20 L 23 22 L 25 22 L 25 20 Z "></path>
</g>
</svg>
