<?xml version="1.0" encoding="UTF-8"?>
<svg xmlns="http://www.w3.org/2000/svg" xmlns:xlink="http://www.w3.org/1999/xlink" viewBox="0 0 32 32" version="1.1">
<g>
<path d="M 5 5 L 5 27 L 27 27 L 27 5 Z M 7 7 L 25 7 L 25 25 L 7 25 Z M 13.15625 11 L 13 11.84375 L 12.5 14.84375 L 12.3125 16 L 16.5 16 C 17.375 16 18 16.625 18 17.5 C 18 18.375 17.375 19 16.5 19 L 15.5 19 C 14.625 19 14 18.375 14 17.5 L 12 17.5 C 12 19.421875 13.578125 21 15.5 21 L 16.5 21 C 18.421875 21 20 19.421875 20 17.5 C 20 15.578125 18.421875 14 16.5 14 L 14.6875 14 L 14.875 13 L 19 13 L 19 11 Z "></path>
</g>
</svg>
