<?xml version="1.0" encoding="UTF-8"?>
<svg xmlns="http://www.w3.org/2000/svg" xmlns:xlink="http://www.w3.org/1999/xlink" viewBox="0 0 32 32" version="1.1">
<g>
<path d="M 8 4 L 6 6 L 8 8 L 10 6 Z M 10 6 L 12 8 L 14 6 L 12 4 Z M 14 6 L 16 8 L 18 6 L 16 4 Z M 18 6 L 20 8 L 22 6 L 20 4 Z M 22 6 L 24 8 L 26 6 L 24 4 Z M 24 8 L 5 8 L 5 28 L 27 28 L 27 8 Z M 7 10 L 25 10 L 25 26 L 19 26 L 19 21 L 13 21 L 13 26 L 7 26 Z M 9 12 L 9 14 L 11 14 L 11 12 Z M 13 12 L 13 14 L 15 14 L 15 12 Z M 17 12 L 17 14 L 19 14 L 19 12 Z M 21 12 L 21 14 L 23 14 L 23 12 Z M 9 15 L 9 17 L 11 17 L 11 15 Z M 13 15 L 13 17 L 15 17 L 15 15 Z M 17 15 L 17 17 L 19 17 L 19 15 Z M 21 15 L 21 17 L 23 17 L 23 15 Z M 9 18 L 9 20 L 11 20 L 11 18 Z M 13 18 L 13 20 L 15 20 L 15 18 Z M 17 18 L 17 20 L 19 20 L 19 18 Z M 21 18 L 21 20 L 23 20 L 23 18 Z M 9 21 L 9 23 L 11 23 L 11 21 Z M 21 21 L 21 23 L 23 23 L 23 21 Z M 15 23 L 17 23 L 17 26 L 15 26 Z "></path>
</g>
</svg>
