<?xml version="1.0" encoding="UTF-8"?>
<svg xmlns="http://www.w3.org/2000/svg" xmlns:xlink="http://www.w3.org/1999/xlink" viewBox="0 0 32 32" version="1.1">
<g>
<path d="M 5 5 L 5 27 L 27 27 L 27 5 Z M 7 7 L 25 7 L 25 25 L 7 25 Z M 17 11 C 14.644531 11 12.625 12.625 12.125 14.875 L 12.09375 15 L 12.09375 15.09375 C 12.09375 15.328125 12 15.464844 12 16 L 12 17.5 C 12 19.421875 13.578125 21 15.5 21 L 16.5 21 C 18.421875 21 20 19.421875 20 17.5 C 20 15.578125 18.421875 14 16.5 14 L 15.5 14 C 15.191406 14 14.910156 14.046875 14.625 14.125 C 15.175781 13.4375 16.035156 13 17 13 L 18 13 L 18 11 Z M 15.5 16 L 16.5 16 C 17.375 16 18 16.625 18 17.5 C 18 18.375 17.375 19 16.5 19 L 15.5 19 C 14.625 19 14 18.375 14 17.5 C 14 16.625 14.625 16 15.5 16 Z "></path>
</g>
</svg>
