<?xml version="1.0" encoding="UTF-8"?>
<svg xmlns="http://www.w3.org/2000/svg" xmlns:xlink="http://www.w3.org/1999/xlink" viewBox="0 0 32 32" version="1.1">
<g>
<path d="M 5 5 L 5 27 L 27 27 L 27 5 Z M 7 7 L 25 7 L 25 25 L 7 25 Z M 13.21875 11.9375 L 11.03125 14.46875 C 10.375 15.222656 10 16.1875 10 17.1875 L 10 17.5 C 10 18.867188 11.132813 20 12.5 20 L 13.5 20 C 14.867188 20 16 18.867188 16 17.5 C 16 16.132813 14.867188 15 13.5 15 L 13.21875 15 L 14.71875 13.25 Z M 20 12 L 20 15 L 19 15 L 19 12.03125 L 17 12.03125 L 17 17 L 20 17 L 20 20 L 22 20 L 22 12 Z M 12.0625 17 L 13.5 17 C 13.785156 17 14 17.214844 14 17.5 C 14 17.785156 13.785156 18 13.5 18 L 12.5 18 C 12.214844 18 12 17.785156 12 17.5 L 12 17.1875 C 12 17.121094 12.054688 17.066406 12.0625 17 Z "></path>
</g>
</svg>
