<?xml version="1.0" encoding="UTF-8"?>
<svg xmlns="http://www.w3.org/2000/svg" xmlns:xlink="http://www.w3.org/1999/xlink" viewBox="0 0 32 32" version="1.1">
<g>
<path d="M 16 4 C 9.382813 4 4 9.382813 4 16 C 4 22.617188 9.382813 28 16 28 C 22.617188 28 28 22.617188 28 16 C 28 9.382813 22.617188 4 16 4 Z M 16 6 C 21.535156 6 26 10.464844 26 16 C 26 21.535156 21.535156 26 16 26 C 10.464844 26 6 21.535156 6 16 C 6 10.464844 10.464844 6 16 6 Z M 15 11 C 13.355469 11 12 12.355469 12 14 C 12 14.765625 12.300781 15.46875 12.78125 16 C 12.300781 16.53125 12 17.234375 12 18 C 12 19.644531 13.355469 21 15 21 L 17 21 C 18.644531 21 20 19.644531 20 18 C 20 17.234375 19.699219 16.53125 19.21875 16 C 19.699219 15.46875 20 14.765625 20 14 C 20 12.355469 18.644531 11 17 11 Z M 15 13 L 17 13 C 17.554688 13 18 13.445313 18 14 C 18 14.554688 17.554688 15 17 15 L 15 15 C 14.445313 15 14 14.554688 14 14 C 14 13.445313 14.445313 13 15 13 Z M 15 17 L 17 17 C 17.554688 17 18 17.445313 18 18 C 18 18.554688 17.554688 19 17 19 L 15 19 C 14.445313 19 14 18.554688 14 18 C 14 17.445313 14.445313 17 15 17 Z "></path>
</g>
</svg>
