<?xml version="1.0" encoding="UTF-8"?>
<svg xmlns="http://www.w3.org/2000/svg" xmlns:xlink="http://www.w3.org/1999/xlink" viewBox="0 0 32 32" version="1.1">
<g>
<path d="M 16 2.882813 L 5 8.382813 L 5 13.617188 L 16 19.117188 L 21 16.617188 L 21 18.382813 L 16 20.882813 L 11 18.378906 L 3.765625 22 L 16 28.117188 L 27 22.617188 L 27 8.382813 Z M 16 5.117188 L 25 9.617188 L 25 21.382813 L 16 25.882813 L 8.234375 22 L 11 20.617188 L 16 23.117188 L 23 19.617188 L 23 13.382813 L 16 16.882813 L 7 12.382813 L 7 9.617188 Z M 16 7.882813 L 9.765625 11 L 11.550781 11.894531 L 16 14.117188 L 22.234375 11 Z M 16 10.117188 L 17.765625 11 L 16 11.882813 L 14.234375 11 Z "></path>
</g>
</svg>
