<?xml version="1.0" encoding="UTF-8"?>
<svg xmlns="http://www.w3.org/2000/svg" xmlns:xlink="http://www.w3.org/1999/xlink" viewBox="0 0 32 32" version="1.1">
<g>
<path d="M 16.128906 5 C 9.585938 5 4.257813 10.324219 4.257813 16.871094 C 4.257813 23.414063 9.585938 28.738281 16.128906 28.738281 C 22.675781 28.738281 28 23.414063 28 16.871094 C 28 10.324219 22.675781 5 16.128906 5 Z M 4.511719 5.609375 C 1.722656 8.484375 0 12.417969 0 16.738281 C 0 20.398438 1.234375 23.78125 3.308594 26.480469 L 4.894531 25.261719 C 3.078125 22.898438 2 19.949219 2 16.738281 C 2 12.949219 3.503906 9.523438 5.945313 7 Z M 27.488281 5.609375 L 26.050781 7 C 28.496094 9.523438 30 12.945313 30 16.738281 C 30 19.949219 28.921875 22.898438 27.105469 25.261719 L 28.691406 26.480469 C 30.765625 23.78125 32 20.398438 32 16.738281 C 32 12.417969 30.277344 8.484375 27.488281 5.609375 Z M 16.128906 7 C 21.59375 7 26 11.40625 26 16.871094 C 26 22.332031 21.59375 26.738281 16.128906 26.738281 C 10.667969 26.738281 6.257813 22.332031 6.257813 16.871094 C 6.257813 11.40625 10.667969 7 16.128906 7 Z M 22.574219 13.152344 C 22.289063 13.152344 22.003906 13.199219 21.722656 13.296875 C 21.441406 13.390625 21.179688 13.535156 20.953125 13.734375 C 20.71875 13.933594 20.535156 14.1875 20.390625 14.5 C 20.246094 14.8125 20.175781 15.183594 20.175781 15.613281 C 20.175781 15.9375 20.21875 16.21875 20.296875 16.453125 C 20.378906 16.6875 20.492188 16.890625 20.632813 17.066406 C 20.773438 17.246094 20.9375 17.394531 21.125 17.519531 C 21.3125 17.644531 21.511719 17.757813 21.726563 17.859375 C 22.0625 18.027344 22.320313 18.191406 22.496094 18.339844 C 22.671875 18.488281 22.761719 18.691406 22.761719 18.949219 C 22.761719 19.199219 22.6875 19.390625 22.542969 19.53125 C 22.394531 19.671875 22.214844 19.738281 22 19.738281 C 21.773438 19.738281 21.550781 19.6875 21.328125 19.582031 C 21.109375 19.476563 20.917969 19.335938 20.75 19.15625 L 19.84375 20.480469 C 20.082031 20.710938 20.390625 20.917969 20.777344 21.09375 C 21.160156 21.269531 21.589844 21.359375 22.058594 21.359375 C 22.371094 21.359375 22.675781 21.304688 22.972656 21.199219 C 23.265625 21.089844 23.527344 20.933594 23.75 20.722656 C 23.976563 20.515625 24.15625 20.25 24.289063 19.933594 C 24.421875 19.613281 24.488281 19.242188 24.488281 18.824219 C 24.488281 18.484375 24.433594 18.191406 24.328125 17.949219 C 24.222656 17.703125 24.085938 17.492188 23.921875 17.3125 C 23.761719 17.140625 23.582031 16.988281 23.386719 16.867188 C 23.191406 16.746094 23.003906 16.644531 22.828125 16.554688 C 22.511719 16.394531 22.273438 16.246094 22.109375 16.109375 C 21.949219 15.972656 21.871094 15.785156 21.871094 15.542969 C 21.871094 15.257813 21.949219 15.050781 22.105469 14.925781 C 22.261719 14.800781 22.441406 14.734375 22.640625 14.734375 C 22.832031 14.734375 23.011719 14.777344 23.1875 14.863281 C 23.367188 14.949219 23.519531 15.066406 23.652344 15.21875 L 24.566406 13.925781 C 24.339844 13.6875 24.058594 13.496094 23.71875 13.359375 C 23.382813 13.21875 23 13.152344 22.574219 13.152344 Z M 9.671875 13.359375 L 7.78125 21.148438 L 9.539063 21.148438 L 9.859375 19.730469 L 11.609375 19.730469 L 11.925781 21.148438 L 13.765625 21.148438 L 11.882813 13.359375 Z M 14.445313 13.359375 L 14.445313 21.152344 L 17.03125 21.152344 C 17.308594 21.152344 17.585938 21.113281 17.859375 21.035156 C 18.136719 20.957031 18.382813 20.832031 18.605469 20.660156 C 18.824219 20.488281 19 20.261719 19.136719 19.980469 C 19.273438 19.695313 19.34375 19.347656 19.34375 18.925781 C 19.34375 18.65625 19.304688 18.414063 19.234375 18.199219 C 19.160156 17.988281 19.0625 17.804688 18.945313 17.65625 C 18.828125 17.507813 18.695313 17.382813 18.550781 17.285156 C 18.40625 17.191406 18.253906 17.125 18.109375 17.089844 L 18.109375 17.066406 C 18.382813 16.941406 18.613281 16.742188 18.796875 16.46875 C 18.984375 16.195313 19.078125 15.824219 19.078125 15.363281 C 19.078125 14.945313 19.003906 14.605469 18.855469 14.34375 C 18.703125 14.078125 18.515625 13.875 18.292969 13.730469 C 18.066406 13.585938 17.820313 13.492188 17.546875 13.4375 C 17.277344 13.386719 17.019531 13.359375 16.777344 13.359375 Z M 16.082031 14.8125 L 16.675781 14.8125 C 16.90625 14.8125 17.101563 14.875 17.269531 15 C 17.441406 15.125 17.527344 15.339844 17.527344 15.644531 C 17.527344 15.953125 17.4375 16.175781 17.265625 16.308594 C 17.09375 16.441406 16.902344 16.507813 16.6875 16.507813 L 16.082031 16.507813 Z M 10.71875 15.058594 L 10.761719 15.058594 L 11.386719 18.367188 L 10.058594 18.367188 Z M 16.082031 17.796875 L 16.722656 17.796875 C 16.832031 17.796875 16.945313 17.8125 17.058594 17.847656 C 17.171875 17.886719 17.273438 17.945313 17.363281 18.019531 C 17.457031 18.097656 17.53125 18.199219 17.585938 18.320313 C 17.640625 18.441406 17.671875 18.589844 17.671875 18.769531 C 17.671875 19.078125 17.578125 19.3125 17.398438 19.464844 C 17.21875 19.621094 17 19.699219 16.746094 19.699219 L 16.082031 19.699219 Z "></path>
</g>
</svg>
