<?xml version="1.0" encoding="UTF-8"?>
<svg xmlns="http://www.w3.org/2000/svg" xmlns:xlink="http://www.w3.org/1999/xlink" viewBox="0 0 32 32" version="1.1">
<g>
<path d="M 5 5 L 5 27 L 27 27 L 27 5 Z M 7 7 L 23.5625 7 L 7 23.5625 Z M 25 8.4375 L 25 25 L 8.4375 25 Z M 10.4375 9 C 9.726563 9.09375 9.011719 9.550781 8.28125 10.28125 L 9.71875 11.71875 C 10.492188 10.945313 10.738281 10.972656 10.71875 10.96875 C 10.699219 10.964844 10.902344 11.136719 11.21875 11.5625 C 11.535156 11.988281 11.949219 12.671875 12.875 12.90625 C 13.339844 13.023438 13.878906 12.964844 14.34375 12.75 C 14.808594 12.535156 15.242188 12.195313 15.71875 11.71875 L 14.28125 10.28125 C 13.910156 10.652344 13.652344 10.867188 13.5 10.9375 C 13.347656 11.007813 13.359375 10.964844 13.375 10.96875 C 13.40625 10.976563 13.164063 10.8125 12.84375 10.375 C 12.523438 9.9375 12.097656 9.238281 11.15625 9.03125 C 10.921875 8.980469 10.675781 8.96875 10.4375 9 Z M 17 18 L 17 20 L 23 20 L 23 18 Z M 17 21 L 17 23 L 19 23 L 19 21 Z M 21 21 L 21 23 L 23 23 L 23 21 Z "></path>
</g>
</svg>
