<?xml version="1.0" encoding="UTF-8"?>
<svg xmlns="http://www.w3.org/2000/svg" xmlns:xlink="http://www.w3.org/1999/xlink" viewBox="0 0 32 32" version="1.1">
<g>
<path d="M 4 5 L 4 27 L 12 27 L 12 5 Z M 13 5 L 13 27 L 15 27 L 15 5 Z M 16 5 L 16 27 L 18 27 L 18 5 Z M 19 5 L 19 27 L 21 27 L 21 5 Z M 22 5 L 22 7 L 26 7 L 26 25 L 22 25 L 22 27 L 28 27 L 28 5 Z M 6 7 L 10 7 L 10 8 L 7 8 L 7 10 L 10 10 L 10 12 L 7 12 L 7 14 L 10 14 L 10 15 L 7 15 L 7 17 L 10 17 L 10 18 L 7 18 L 7 20 L 10 20 L 10 22 L 7 22 L 7 24 L 10 24 L 10 25 L 6 25 Z M 23 9 C 22.449219 9 22 9.449219 22 10 C 22 10.550781 22.449219 11 23 11 C 23.550781 11 24 10.550781 24 10 C 24 9.449219 23.550781 9 23 9 Z M 24 12 C 23.449219 12 23 12.449219 23 13 C 23 13.550781 23.449219 14 24 14 C 24.550781 14 25 13.550781 25 13 C 25 12.449219 24.550781 12 24 12 Z M 23 15 C 22.449219 15 22 15.449219 22 16 C 22 16.550781 22.449219 17 23 17 C 23.550781 17 24 16.550781 24 16 C 24 15.449219 23.550781 15 23 15 Z M 24 18 C 23.449219 18 23 18.449219 23 19 C 23 19.550781 23.449219 20 24 20 C 24.550781 20 25 19.550781 25 19 C 25 18.449219 24.550781 18 24 18 Z M 23 21 C 22.449219 21 22 21.449219 22 22 C 22 22.550781 22.449219 23 23 23 C 23.550781 23 24 22.550781 24 22 C 24 21.449219 23.550781 21 23 21 Z "></path>
</g>
</svg>
