<?xml version="1.0" encoding="UTF-8"?>
<svg xmlns="http://www.w3.org/2000/svg" xmlns:xlink="http://www.w3.org/1999/xlink" viewBox="0 0 32 32" version="1.1">
<g>
<path d="M 26.34375 4.25 L 18.78125 8.0625 C 17.53125 8.6875 16.148438 9 14.75 9 L 5 9 L 5 11 L 13 11 L 13 28 L 15 28 L 15 18.875 L 18 16.84375 L 26.25 15.6875 L 25.96875 13.6875 L 19 14.6875 L 19 10.125 C 19.222656 10.03125 19.441406 9.953125 19.65625 9.84375 L 27.25 6.0625 Z M 17 10.78125 L 17 15.09375 L 15 16.4375 L 15 11 C 15.671875 10.984375 16.347656 10.917969 17 10.78125 Z M 19 18 C 17.355469 18 16 19.355469 16 21 C 16 22.644531 17.355469 24 19 24 C 20.644531 24 22 22.644531 22 21 C 22 19.355469 20.644531 18 19 18 Z M 19 20 C 19.5625 20 20 20.4375 20 21 C 20 21.5625 19.5625 22 19 22 C 18.4375 22 18 21.5625 18 21 C 18 20.4375 18.4375 20 19 20 Z "></path>
</g>
</svg>
