<?xml version="1.0" encoding="UTF-8"?>
<svg xmlns="http://www.w3.org/2000/svg" xmlns:xlink="http://www.w3.org/1999/xlink" viewBox="0 0 32 32" version="1.1">
<g>
<path d="M 15.8125 2.90625 C 14.492188 2.90625 13.382813 3.425781 12.59375 3.90625 C 12.199219 4.144531 11.878906 4.359375 11.65625 4.53125 C 11.605469 4.570313 11.59375 4.617188 11.5625 4.65625 C 11.59375 4.644531 11.636719 4.636719 11.6875 4.625 C 11.738281 4.613281 11.90625 4.59375 11.90625 4.59375 L 11.90625 6.59375 C 11.90625 6.59375 12.039063 6.605469 12.09375 6.59375 C 12.148438 6.582031 12.214844 6.542969 12.25 6.53125 C 12.316406 6.507813 12.34375 6.484375 12.375 6.46875 C 12.4375 6.4375 12.472656 6.425781 12.5 6.40625 C 12.554688 6.367188 12.589844 6.339844 12.625 6.3125 C 12.699219 6.253906 12.78125 6.199219 12.875 6.125 C 13.066406 5.976563 13.320313 5.777344 13.625 5.59375 C 14.234375 5.222656 15.03125 4.90625 15.8125 4.90625 C 16.546875 4.90625 17.335938 5.21875 17.84375 5.65625 L 18.40625 6.125 L 19 5.75 C 19.28125 5.582031 19.699219 5.5 20.1875 5.5 C 21.722656 5.5 22.917969 6.550781 23.21875 7.90625 L 23.375 8.53125 L 23.96875 8.6875 C 25.289063 8.980469 26.40625 10.277344 26.40625 11.6875 C 26.40625 12.066406 26.246094 12.574219 26.0625 13.03125 L 25.875 13.5625 L 26.1875 14 C 26.699219 14.683594 27 15.359375 27 16.09375 C 27 17.808594 25.695313 19.179688 25.59375 19.28125 L 27 20.71875 C 27.101563 20.617188 29 18.777344 29 16.09375 C 29 15.011719 28.601563 14.082031 28.0625 13.25 C 28.222656 12.785156 28.40625 12.300781 28.40625 11.6875 C 28.40625 9.503906 26.949219 7.640625 24.96875 6.9375 C 24.285156 4.96875 22.445313 3.5 20.1875 3.5 C 19.699219 3.5 19.199219 3.703125 18.6875 3.875 C 17.859375 3.304688 16.886719 2.90625 15.8125 2.90625 Z M 14.1875 7.96875 C 13.46875 7.96875 12.769531 8.242188 12.21875 8.78125 C 12.210938 8.789063 12.195313 8.773438 12.1875 8.78125 L 9.6875 11.21875 L 8.71875 11.0625 L 8.59375 11.03125 L 8.59375 11.0625 C 7.9375 10.898438 7.429688 11.042969 7.09375 11.15625 L 7.0625 11.15625 L 4.84375 11.96875 L 4.8125 11.96875 C 3.753906 12.421875 3 13.417969 3 14.59375 L 3 19.40625 C 3 20.996094 3.332031 22.125 4.25 23.15625 L 4.3125 23.21875 L 8.28125 27.09375 C 8.292969 27.105469 8.300781 27.113281 8.3125 27.125 C 10.882813 29.660156 15.023438 29.664063 17.5 27.09375 L 17.53125 27.09375 L 23.09375 21.5 C 24.0625 20.53125 24.128906 19.207031 23.875 18.3125 L 23.84375 18.28125 L 23.84375 18.25 C 23.617188 17.648438 23.242188 17.242188 22.96875 16.96875 C 22.695313 16.695313 22.539063 16.519531 22.5 16.4375 C 22.460938 16.355469 22.429688 16.199219 22.40625 15.875 C 22.382813 15.550781 22.351563 15.082031 22.09375 14.5625 C 21.648438 13.671875 20.929688 13.273438 20.5625 13.03125 C 20.550781 12.949219 20.558594 12.859375 20.53125 12.6875 C 20.457031 12.230469 20.203125 11.484375 19.59375 10.90625 C 19.574219 10.886719 19.585938 10.863281 19.5625 10.84375 L 19.53125 10.875 C 18.964844 10.335938 18.371094 10.007813 17.875 9.90625 C 17.445313 9.816406 17.144531 9.828125 17.09375 9.84375 C 17.101563 9.84375 17.085938 9.8125 17.03125 9.75 C 16.898438 9.589844 16.644531 9.257813 16.34375 8.9375 L 16.21875 8.78125 C 15.667969 8.230469 14.914063 7.96875 14.1875 7.96875 Z M 14.1875 10 C 14.410156 10 14.632813 10.070313 14.78125 10.21875 C 15.082031 10.519531 15.285156 10.742188 15.5 11 C 15.714844 11.257813 16.019531 11.644531 16.5625 11.78125 C 17.066406 11.90625 17.257813 11.832031 17.46875 11.875 C 17.679688 11.917969 17.867188 11.992188 18.1875 12.3125 L 18.21875 12.3125 L 18.25 12.34375 C 18.492188 12.558594 18.515625 12.699219 18.5625 13 C 18.585938 13.148438 18.601563 13.316406 18.65625 13.5625 C 18.710938 13.808594 18.808594 14.21875 19.1875 14.5 C 19.695313 14.878906 20.210938 15.234375 20.3125 15.4375 C 20.351563 15.519531 20.382813 15.707031 20.40625 16.03125 C 20.429688 16.355469 20.460938 16.824219 20.71875 17.34375 C 20.976563 17.863281 21.304688 18.148438 21.53125 18.375 C 21.734375 18.578125 21.863281 18.703125 21.9375 18.875 C 21.941406 18.882813 21.933594 18.898438 21.9375 18.90625 C 22.074219 19.390625 22.109375 19.671875 21.6875 20.09375 L 16.0625 25.71875 C 14.34375 27.515625 11.542969 27.511719 9.71875 25.6875 L 9.6875 25.6875 L 5.75 21.84375 L 5.6875 21.78125 C 5.070313 21.074219 5 20.765625 5 19.40625 L 5 14.59375 C 5 14.371094 5.253906 13.957031 5.59375 13.8125 L 7.71875 13.0625 C 7.742188 13.054688 7.726563 13.039063 7.75 13.03125 C 7.910156 12.992188 8.097656 12.988281 8.125 12.96875 L 8.21875 12.96875 L 9.8125 13.28125 L 10.3125 13.375 L 10.6875 13.03125 L 13.59375 10.21875 C 13.742188 10.070313 13.964844 10 14.1875 10 Z "></path>
</g>
</svg>
