<?xml version="1.0" encoding="UTF-8"?>
<svg xmlns="http://www.w3.org/2000/svg" xmlns:xlink="http://www.w3.org/1999/xlink" viewBox="0 0 32 32" version="1.1">
<g>
<path d="M 18.8125 2.90625 C 17.492188 2.90625 16.382813 3.425781 15.59375 3.90625 C 15.199219 4.144531 14.878906 4.359375 14.65625 4.53125 C 14.605469 4.570313 14.59375 4.617188 14.5625 4.65625 C 14.59375 4.644531 14.636719 4.636719 14.6875 4.625 C 14.738281 4.613281 14.90625 4.59375 14.90625 4.59375 L 14.90625 6.59375 C 14.90625 6.59375 15.039063 6.605469 15.09375 6.59375 C 15.148438 6.582031 15.214844 6.542969 15.25 6.53125 C 15.316406 6.507813 15.34375 6.484375 15.375 6.46875 C 15.4375 6.4375 15.472656 6.425781 15.5 6.40625 C 15.554688 6.367188 15.589844 6.339844 15.625 6.3125 C 15.699219 6.253906 15.78125 6.199219 15.875 6.125 C 16.066406 5.976563 16.320313 5.777344 16.625 5.59375 C 17.234375 5.222656 18.03125 4.90625 18.8125 4.90625 C 19.546875 4.90625 20.335938 5.21875 20.84375 5.65625 L 21.40625 6.125 L 22 5.75 C 22.28125 5.582031 22.699219 5.5 23.1875 5.5 C 24.722656 5.5 25.917969 6.550781 26.21875 7.90625 L 26.375 8.53125 L 26.96875 8.6875 C 28.289063 8.980469 29.40625 10.277344 29.40625 11.6875 C 29.40625 12.066406 29.246094 12.574219 29.0625 13.03125 L 28.875 13.5625 L 29.1875 14 C 29.699219 14.683594 30 15.359375 30 16.09375 C 30 17.808594 28.695313 19.179688 28.59375 19.28125 L 30 20.71875 C 30.101563 20.617188 32 18.777344 32 16.09375 C 32 15.011719 31.601563 14.082031 31.0625 13.25 C 31.222656 12.785156 31.40625 12.300781 31.40625 11.6875 C 31.40625 9.503906 29.949219 7.640625 27.96875 6.9375 C 27.285156 4.96875 25.445313 3.5 23.1875 3.5 C 22.699219 3.5 22.199219 3.703125 21.6875 3.875 C 20.859375 3.304688 19.886719 2.90625 18.8125 2.90625 Z M 6.03125 8.8125 L 5.34375 9.28125 C 3.601563 10.472656 3.28125 11.902344 3.375 13.0625 C 3.0625 13.339844 1.421875 14.835938 0.6875 15.40625 L 0.625 15.4375 L 0.59375 15.5 C 0.285156 15.808594 0.0859375 16.179688 0.03125 16.625 C -0.0195313 17.03125 0.15625 17.5 0.46875 17.875 L 0.40625 17.90625 C 0.429688 17.9375 0.476563 17.96875 0.5 18 C 1.394531 19.191406 3.007813 21.382813 3.46875 22.09375 C 3.679688 23.867188 4.273438 25.105469 4.90625 25.84375 C 5.335938 26.34375 5.554688 26.375 5.84375 26.53125 C 5.847656 26.535156 5.839844 26.558594 5.84375 26.5625 L 7.0625 28.4375 L 7.625 29.34375 L 8.5 28.71875 L 12.28125 25.90625 L 12.9375 25.4375 L 12.625 24.71875 L 12.40625 24.21875 L 13.28125 23.53125 L 14.78125 23.6875 L 15.125 23.71875 L 15.40625 23.5625 C 15.40625 23.5625 17.824219 22.101563 20.40625 19.625 L 20.40625 19.59375 C 23.179688 16.820313 23.96875 13.96875 23.96875 13.96875 L 24.09375 13.46875 L 23.78125 13.0625 L 22.8125 11.90625 L 22.78125 11.875 C 22.679688 11.59375 22.601563 11.320313 22.40625 11 C 22.121094 10.527344 21.761719 10.027344 21.21875 9.625 C 20.675781 9.222656 19.914063 8.921875 19.09375 9.03125 C 18.285156 9.140625 17.5 9.613281 16.78125 10.40625 C 16.769531 10.417969 16.761719 10.425781 16.75 10.4375 L 15.625 11.5625 C 13.890625 12.765625 12.359375 12.890625 11.15625 12.6875 C 10.554688 12.585938 10.027344 12.394531 9.65625 12.21875 C 9.285156 12.042969 8.988281 11.800781 9.09375 11.90625 L 6.59375 9.40625 Z M 19.375 11 C 19.601563 10.96875 19.753906 11.035156 20 11.21875 C 20.246094 11.402344 20.53125 11.71875 20.71875 12.03125 C 20.90625 12.34375 21.023438 12.675781 21.03125 12.71875 L 21.0625 12.96875 L 21.21875 13.125 L 21.84375 13.90625 C 21.652344 14.480469 21.039063 16.148438 19 18.1875 C 16.691406 20.402344 14.78125 21.570313 14.59375 21.6875 L 13.09375 21.5 L 12.71875 21.46875 L 12.375 21.71875 L 10.59375 23.125 L 9.96875 23.59375 L 10.28125 24.28125 L 10.46875 24.75 L 8.15625 26.46875 L 7.53125 25.46875 L 7.34375 25.15625 L 7.03125 25.0625 C 7.03125 25.0625 6.804688 25.023438 6.40625 24.5625 C 6.007813 24.101563 5.542969 23.246094 5.40625 21.625 L 5.375 21.375 L 5.25 21.15625 C 4.675781 20.234375 3.015625 18.074219 2.09375 16.84375 C 3.140625 16 4.96875 14.34375 4.96875 14.34375 L 5.46875 13.875 L 5.25 13.25 C 5.121094 12.902344 5.1875 12.289063 5.90625 11.53125 L 7.6875 13.3125 C 7.839844 13.464844 7.976563 13.578125 8.15625 13.6875 L 7.125 15.5 L 8.875 16.5 L 10.0625 14.46875 C 10.304688 14.535156 10.535156 14.609375 10.8125 14.65625 C 10.875 14.667969 10.9375 14.679688 11 14.6875 L 11.21875 16.5 L 13.1875 16.28125 L 13.03125 14.6875 C 13.484375 14.628906 13.957031 14.527344 14.4375 14.375 L 15.21875 15.875 L 17 14.9375 L 16.25 13.53125 C 16.425781 13.425781 16.605469 13.339844 16.78125 13.21875 L 16.90625 13.09375 L 18.21875 11.8125 L 18.21875 11.78125 L 18.25 11.78125 C 18.769531 11.199219 19.148438 11.03125 19.375 11 Z "></path>
</g>
</svg>
