<?xml version="1.0" encoding="UTF-8"?>
<svg xmlns="http://www.w3.org/2000/svg" xmlns:xlink="http://www.w3.org/1999/xlink" viewBox="0 0 32 32" version="1.1">
<g>
<path d="M 9 7 C 5.699219 7 3 9.699219 3 13 C 3 14.984375 3.976563 16.75 5.46875 17.84375 C 2.832031 19.152344 1 21.863281 1 25 L 3 25 C 3 21.675781 5.675781 19 9 19 C 12.324219 19 15 21.675781 15 25 L 16.0625 25 C 16.5625 28.933594 19.933594 32 24 32 C 28.40625 32 32 28.40625 32 24 C 32 20.875 30.1875 18.160156 27.5625 16.84375 C 28.445313 15.800781 29 14.46875 29 13 C 29 9.691406 26.308594 7 23 7 C 20.050781 7 17.59375 9.128906 17.09375 11.9375 C 16.695313 11.5 15.953125 10.695313 14.78125 9.71875 C 13.207031 8.410156 11.203125 7 9 7 Z M 9 9 C 10.230469 9 12.070313 10.089844 13.5 11.28125 C 14.535156 12.140625 14.902344 12.589844 15.28125 13 C 14.894531 13.410156 14.515625 13.855469 13.46875 14.71875 C 12.019531 15.910156 10.160156 17 9 17 C 6.78125 17 5 15.21875 5 13 C 5 10.78125 6.78125 9 9 9 Z M 23 9 C 25.207031 9 27 10.792969 27 13 C 27 14.28125 26.378906 15.390625 25.4375 16.125 C 24.964844 16.039063 24.496094 16 24 16 C 22.996094 16 22.042969 16.191406 21.15625 16.53125 C 19.875 15.863281 19 14.542969 19 13 C 19 10.792969 20.792969 9 23 9 Z M 17.09375 14.0625 C 17.351563 15.480469 18.121094 16.742188 19.1875 17.625 C 18.683594 18.003906 18.246094 18.421875 17.84375 18.90625 C 17.097656 19.539063 16.476563 20.292969 16 21.15625 C 15.214844 19.734375 14.019531 18.574219 12.5625 17.84375 C 13.351563 17.371094 14.089844 16.828125 14.75 16.28125 C 15.9375 15.300781 16.699219 14.496094 17.09375 14.0625 Z M 24 18 C 27.324219 18 30 20.675781 30 24 C 30 27.324219 27.324219 30 24 30 C 20.675781 30 18 27.324219 18 24 C 18 20.675781 20.675781 18 24 18 Z M 23 20 L 23 23 L 20 23 L 20 25 L 23 25 L 23 28 L 25 28 L 25 25 L 28 25 L 28 23 L 25 23 L 25 20 Z "></path>
</g>
</svg>
