<?xml version="1.0" encoding="UTF-8"?>
<svg xmlns="http://www.w3.org/2000/svg" xmlns:xlink="http://www.w3.org/1999/xlink" viewBox="0 0 32 32" version="1.1">
<g>
<path d="M 2 7 L 2 14 L 3 14 C 4.191406 14 5 14.808594 5 16 C 5 17.191406 4.191406 18 3 18 L 2 18 L 2 25 L 16.0625 25 C 16.5625 28.933594 19.933594 32 24 32 C 28.40625 32 32 28.40625 32 24 C 32 20.703125 29.980469 17.847656 27.125 16.625 C 27.058594 16.460938 27 16.269531 27 16 C 27 14.808594 27.808594 14 29 14 L 30 14 L 30 7 Z M 4 9 L 28 9 L 28 12.1875 C 26.285156 12.636719 25 14.144531 25 16 C 25 16.019531 25 16.042969 25 16.0625 C 24.667969 16.019531 24.339844 16 24 16 C 19.933594 16 16.5625 19.066406 16.0625 23 L 4 23 L 4 19.8125 C 5.714844 19.363281 7 17.855469 7 16 C 7 14.144531 5.714844 12.636719 4 12.1875 Z M 24 18 C 27.324219 18 30 20.675781 30 24 C 30 27.324219 27.324219 30 24 30 C 20.675781 30 18 27.324219 18 24 C 18 20.675781 20.675781 18 24 18 Z M 23 20 L 23 23 L 20 23 L 20 25 L 23 25 L 23 28 L 25 28 L 25 25 L 28 25 L 28 23 L 25 23 L 25 20 Z "></path>
</g>
</svg>
