<?xml version="1.0" encoding="UTF-8"?>
<svg xmlns="http://www.w3.org/2000/svg" xmlns:xlink="http://www.w3.org/1999/xlink" viewBox="0 0 32 32" version="1.1">
<g>
<path d="M 16 3.21875 L 15.171875 4.4375 C 15.171875 4.4375 11.59375 9.710938 12.039063 17.0625 L 12.09375 18 L 19.90625 18 L 19.964844 17.0625 C 20.40625 9.710938 16.828125 4.4375 16.828125 4.4375 Z M 16 7.273438 C 16.832031 8.859375 17.945313 11.609375 17.910156 16 L 14.089844 16 C 14.054688 11.609375 15.167969 8.859375 16 7.273438 Z M 0 11 L 0 12 C 0 12 -0.0742188 15.089844 1.105469 17.449219 L 1.382813 18 L 11.304688 18 L 10.347656 16.46875 C 7.632813 12.128906 3.332031 11 1 11 Z M 31 11 C 28.667969 11 24.367188 12.128906 21.652344 16.46875 L 20.695313 18 L 30.617188 18 L 30.894531 17.449219 C 32.074219 15.089844 32 12 32 12 L 32 11 Z M 2.109375 13.277344 C 3.601563 13.488281 5.542969 14.128906 7.34375 16 L 2.75 16 C 2.394531 15.039063 2.1875 14.117188 2.109375 13.277344 Z M 29.890625 13.277344 C 29.8125 14.117188 29.605469 15.039063 29.25 16 L 24.65625 16 C 26.457031 14.128906 28.398438 13.488281 29.890625 13.277344 Z M 2 19 C 2.355469 19.710938 2.785156 20.375 3.257813 21 L 28.742188 21 C 29.214844 20.375 29.644531 19.710938 30 19 Z M 4.078125 22 C 4.742188 22.734375 5.460938 23.398438 6.195313 24 L 25.800781 24 C 26.539063 23.398438 27.257813 22.734375 27.921875 22 Z M 7.507813 25 C 10.335938 26.996094 13 28 13 28 L 13 25 Z M 13.75 25 C 14.75 27 16 28 16 28 C 16 28 17.25 27 18.25 25 Z M 19 25 L 19 28 C 19 28 21.664063 26.996094 24.488281 25 Z "></path>
</g>
</svg>
