<?xml version="1.0" encoding="UTF-8"?>
<svg xmlns="http://www.w3.org/2000/svg" xmlns:xlink="http://www.w3.org/1999/xlink" viewBox="0 0 32 32" version="1.1">
<g>
<path d="M 16 5 C 12.144531 5 9 8.144531 9 12 C 9 14.40625 10.230469 16.539063 12.089844 17.796875 C 8.515625 19.324219 6 22.875 6 27 L 8 27 C 8 24.761719 8.910156 22.746094 10.386719 21.296875 L 12.785156 24.34375 L 16.554688 21.832031 L 15.445313 20.167969 L 13.214844 21.65625 L 11.980469 20.085938 C 13.160156 19.398438 14.53125 19 16 19 C 19.855469 19 23 15.855469 23 12 C 23 8.144531 19.855469 5 16 5 Z M 16 7 C 18.773438 7 21 9.226563 21 12 C 21 14.773438 18.773438 17 16 17 C 13.226563 17 11 14.773438 11 12 C 11 9.226563 13.226563 7 16 7 Z M 24 18 L 24 20.109375 C 23.367188 20.238281 22.78125 20.496094 22.261719 20.84375 L 20.753906 19.34375 L 19.34375 20.757813 L 20.84375 22.253906 C 20.492188 22.78125 20.230469 23.363281 20.101563 24 L 18 24 L 18 26 L 20.101563 26 C 20.230469 26.636719 20.492188 27.21875 20.84375 27.746094 L 19.34375 29.242188 L 20.753906 30.65625 L 22.261719 29.15625 C 22.78125 29.503906 23.367188 29.761719 24 29.890625 L 24 32 L 26 32 L 26 29.890625 C 26.632813 29.761719 27.21875 29.503906 27.738281 29.15625 L 29.246094 30.65625 L 30.65625 29.242188 L 29.15625 27.746094 C 29.507813 27.21875 29.769531 26.636719 29.898438 26 L 32 26 L 32 24 L 29.898438 24 C 29.769531 23.363281 29.507813 22.78125 29.15625 22.253906 L 30.65625 20.757813 L 29.246094 19.34375 L 27.738281 20.84375 C 27.21875 20.496094 26.632813 20.238281 26 20.109375 L 26 18 Z M 25 22 C 26.667969 22 28 23.332031 28 25 C 28 26.667969 26.667969 28 25 28 C 23.332031 28 22 26.667969 22 25 C 22 23.332031 23.332031 22 25 22 Z M 25 24 C 24.449219 24 24 24.449219 24 25 C 24 25.550781 24.449219 26 25 26 C 25.550781 26 26 25.550781 26 25 C 26 24.449219 25.550781 24 25 24 Z "></path>
</g>
</svg>
