<?xml version="1.0" encoding="UTF-8"?>
<svg xmlns="http://www.w3.org/2000/svg" xmlns:xlink="http://www.w3.org/1999/xlink" viewBox="0 0 32 32" version="1.1">
<g>
<path d="M 5 5 L 5 27 L 27 27 L 27 5 Z M 7 7 L 25 7 L 25 25 L 7 25 Z M 10 11 L 10 21 L 13 21 C 14.644531 21 16 19.644531 16 18 C 16 17.226563 15.675781 16.535156 15.1875 16 C 15.675781 15.464844 16 14.773438 16 14 C 16 12.355469 14.644531 11 13 11 Z M 12 13 L 13 13 C 13.566406 13 14 13.433594 14 14 C 14 14.566406 13.566406 15 13 15 L 12 15 Z M 17 13 L 17 21 L 19 21 L 19 17 C 19 15.882813 19.882813 15 21 15 L 22 15 L 22 13 L 21 13 C 20.265625 13 19.59375 13.214844 19 13.5625 L 19 13 Z M 12 17 L 13 17 C 13.566406 17 14 17.433594 14 18 C 14 18.566406 13.566406 19 13 19 L 12 19 Z "></path>
</g>
</svg>
