<?xml version="1.0"?>
<svg xmlns="http://www.w3.org/2000/svg" viewBox="0 0 32 32">
    <path d="M 5 5 L 5 6 L 5 27 L 27 27 L 27 5 L 5 5 z M 7 7 L 25 7 L 25 25 L 7 25 L 7 7 z M 11.705078 11 L 9 19.560547 L 9 21 L 11 21 L 11 20 L 14 20 L 14 21 L 16 21 L 16 19.560547 L 13.294922 11 L 11.705078 11 z M 20.003906 13 C 18.668082 12.9953 17.672149 13.869366 17.320312 14.751953 C 16.968476 15.63454 17 16.501333 17 17 C 17 17.541667 17.0097 18.401839 17.376953 19.265625 C 17.744209 20.129411 18.705371 20.998621 19.998047 21 C 21.50023 21.002 22.003906 21 22.003906 21 L 21.996094 19 C 21.996094 19 21.50177 19.002 20.001953 19 C 19.419629 18.999379 19.380791 18.868135 19.216797 18.482422 C 19.16342 18.356909 19.178363 18.164191 19.146484 18 L 22 18 L 23 17.003906 C 23 17.003906 23.01676 16.128027 22.705078 15.1875 C 22.549239 14.717237 22.308455 14.202475 21.869141 13.763672 C 21.429826 13.324868 20.755089 13.002611 20.003906 13 z M 19.996094 15 C 20.251911 15.000889 20.33058 15.055329 20.455078 15.179688 C 20.579576 15.30404 20.71423 15.537545 20.806641 15.816406 C 20.835381 15.903146 20.815038 15.912796 20.835938 16 L 19.117188 16 C 19.143538 15.83032 19.128164 15.616535 19.177734 15.492188 C 19.324879 15.123024 19.327918 14.997666 19.996094 15 z M 12.5 15.121094 L 13.410156 18 L 11.589844 18 L 12.5 15.121094 z" font-weight="400" font-family="sans-serif" white-space="normal" overflow="visible"></path>
</svg>
