<?xml version="1.0" encoding="UTF-8"?>
<svg xmlns="http://www.w3.org/2000/svg" xmlns:xlink="http://www.w3.org/1999/xlink" viewBox="0 0 32 32" version="1.1">
<g>
<path d="M 5 5 L 5 27 L 27 27 L 27 5 Z M 7 7 L 25 7 L 25 25 L 7 25 Z M 10 11 L 10 21 L 12 21 L 12 17 L 13 17 C 14.644531 17 16 15.644531 16 14 C 16 12.355469 14.644531 11 13 11 Z M 12 13 L 13 13 C 13.566406 13 14 13.433594 14 14 C 14 14.566406 13.566406 15 13 15 L 12 15 Z M 19.5 13 C 18.132813 13 17 14.132813 17 15.5 C 17 16.867188 18.132813 18 19.5 18 C 19.785156 18 20 18.214844 20 18.5 C 20 18.863281 19.9375 19 19.5 19 C 19.121094 19 19.066406 18.914063 19.0625 18.90625 C 19.058594 18.898438 19 18.867188 19 18.625 L 17 18.625 C 17 19.191406 17.15625 19.832031 17.625 20.3125 C 18.09375 20.792969 18.773438 21 19.5 21 C 20.910156 21 22 19.792969 22 18.5 C 22 17.132813 20.867188 16 19.5 16 C 19.214844 16 19 15.785156 19 15.5 C 19 15.214844 19.214844 15 19.5 15 C 19.769531 15 19.84375 15.058594 19.90625 15.125 C 19.96875 15.191406 20 15.320313 20 15.40625 L 22 15.40625 C 22 14.839844 21.804688 14.253906 21.375 13.78125 C 20.945313 13.308594 20.257813 13 19.5 13 Z "></path>
</g>
</svg>
