<?xml version="1.0" encoding="UTF-8"?>
<svg xmlns="http://www.w3.org/2000/svg" xmlns:xlink="http://www.w3.org/1999/xlink" viewBox="0 0 32 32" version="1.1">
<g>
<path d="M 5 5 L 5 27 L 27 27 L 27 5 Z M 7 7 L 25 7 L 25 25 L 7 25 Z M 12 11 L 12 21 L 14 21 L 14 11 Z M 19 11 L 19 15 L 17.5 15 C 16.132813 15 15 16.132813 15 17.5 L 15 18.5 C 15 19.867188 16.132813 21 17.5 21 L 21 21 L 21 11 Z M 17.5 17 L 19 17 L 19 19 L 17.5 19 C 17.214844 19 17 18.785156 17 18.5 L 17 17.5 C 17 17.214844 17.214844 17 17.5 17 Z "></path>
</g>
</svg>
