<?xml version="1.0" encoding="UTF-8"?>
<svg xmlns="http://www.w3.org/2000/svg" xmlns:xlink="http://www.w3.org/1999/xlink" viewBox="0 0 32 32" version="1.1">
<g>
<path d="M 5 5 L 5 27 L 27 27 L 27 5 Z M 7 7 L 25 7 L 25 25 L 7 25 Z M 8.0625 11 L 8.0625 21 L 11.5625 21 C 12.929688 21 14.0625 19.867188 14.0625 18.5 L 14.0625 13.5 C 14.0625 12.132813 12.929688 11 11.5625 11 Z M 10.0625 13 L 11.5625 13 C 11.847656 13 12.0625 13.214844 12.0625 13.5 L 12.0625 18.5 C 12.0625 18.785156 11.847656 19 11.5625 19 L 10.0625 19 Z M 15 13 L 15 14.15625 L 15.0625 14.3125 L 17 20.3125 L 17.21875 21 L 18.78125 21 L 19 20.3125 L 19.5 18.71875 L 20 20.3125 L 20.21875 21 L 21.78125 21 L 22 20.3125 L 23.9375 14.3125 L 24 14.15625 L 24 13 L 22 13 L 22 13.875 L 21.03125 16.84375 L 20.5 15.1875 L 20.28125 14.5 L 18.71875 14.5 L 18.5 15.1875 L 17.96875 16.84375 L 17 13.875 L 17 13 Z "></path>
</g>
</svg>
