<?xml version="1.0" encoding="UTF-8"?>
<svg xmlns="http://www.w3.org/2000/svg" xmlns:xlink="http://www.w3.org/1999/xlink" viewBox="0 0 32 32" version="1.1">
<g>
<path d="M 5 5 L 5 27 L 27 27 L 27 5 Z M 7 7 L 25 7 L 25 25 L 7 25 Z M 13.71875 11 L 13.5 11.6875 L 11.03125 19.40625 L 11 19.5625 L 11 21 L 13 21 L 13 20 L 16 20 L 16 21 L 18 21 L 18 19.5625 L 17.96875 19.40625 L 15.5 11.6875 L 15.28125 11 Z M 19 11 L 19 13 L 21 13 L 21 11 Z M 19 15 L 19 21 L 21 21 L 21 15 Z M 14.5 15.15625 L 15.40625 18 L 13.59375 18 Z "></path>
</g>
</svg>
