<?xml version="1.0" encoding="UTF-8"?>
<svg xmlns="http://www.w3.org/2000/svg" xmlns:xlink="http://www.w3.org/1999/xlink" viewBox="0 0 32 32" version="1.1">
<g>
<path d="M 0 7 L 0 25 L 32 25 L 32 7 Z M 2 9 L 30 9 L 30 23 L 2 23 Z M 9.21875 12 L 9 12.6875 L 7.0625 18.6875 L 7 18.84375 L 7 20 L 9 20 L 9 19.125 L 9.03125 19 L 10.96875 19 L 11 19.125 L 11 20 L 13 20 L 13 18.84375 L 12.9375 18.6875 L 11 12.6875 L 10.78125 12 Z M 14 12 L 14 20 L 16 20 C 17.644531 20 19 18.644531 19 17 L 19 15 C 19 13.355469 17.644531 12 16 12 Z M 20 12 L 20 13.15625 L 20.0625 13.3125 L 22 19.3125 L 22.21875 20 L 23.78125 20 L 24 19.3125 L 25.9375 13.3125 L 26 13.15625 L 26 12 L 24 12 L 24 12.875 L 23 15.9375 L 22 12.875 L 22 12 Z M 16 14 C 16.566406 14 17 14.433594 17 15 L 17 17 C 17 17.566406 16.566406 18 16 18 Z M 10 16.0625 L 10.3125 17 L 9.6875 17 Z "></path>
</g>
</svg>
