<?xml version="1.0" encoding="UTF-8"?>
<svg xmlns="http://www.w3.org/2000/svg" xmlns:xlink="http://www.w3.org/1999/xlink" viewBox="0 0 32 32" version="1.1">
<g>
<path d="M 3.71875 2.28125 L 2.28125 3.71875 L 28.28125 29.71875 L 29.71875 28.28125 L 26.78125 25.34375 L 30 26.3125 L 30 3.625 L 10.875 9.4375 Z M 28 6.3125 L 28 23.625 L 23.78125 22.34375 L 12.46875 11.03125 Z M 6.5625 10.75 L 5.84375 10.96875 L 2 10.96875 L 2 18.96875 L 5.84375 18.96875 L 7.8125 19.5625 L 7.75 19.71875 C 7.089844 21.902344 8.316406 24.246094 10.5 24.90625 C 12.683594 25.566406 15.027344 24.308594 15.6875 22.125 L 15.71875 21.96875 L 18.6875 22.875 L 15.6875 19.875 L 6.28125 17.03125 L 4 16.96875 L 4 12.96875 L 6 12.96875 L 8.125 12.34375 Z M 9.71875 20.15625 L 13.84375 21.40625 L 13.78125 21.5625 C 13.433594 22.710938 12.242188 23.347656 11.09375 23 C 9.945313 22.652344 9.308594 21.460938 9.65625 20.3125 Z "></path>
</g>
</svg>
