<?xml version="1.0" encoding="UTF-8"?>
<svg xmlns="http://www.w3.org/2000/svg" xmlns:xlink="http://www.w3.org/1999/xlink" viewBox="0 0 32 32" version="1.1">
<g>
<path d="M 12.5 2 C 11.515625 2.070313 10.601563 2.15625 9.6875 2.4375 C 9.203125 2.621094 8.589844 2.9375 8.03125 2.9375 C 7.941406 2.9375 7.871094 2.925781 7.78125 2.90625 C 7.570313 2.835938 7.429688 2.6875 7.21875 2.6875 C 7.007813 2.6875 6.789063 2.765625 6.71875 2.90625 C 6.648438 3.046875 6.71875 3.109375 6.71875 3.25 C 6.648438 3.8125 5.796875 3.976563 5.65625 4.46875 C 5.585938 4.75 5.664063 5.09375 5.59375 5.375 C 5.453125 5.867188 4.976563 6.070313 4.625 6.28125 C 3.992188 6.703125 3.507813 7.203125 3.15625 7.90625 C 3.085938 8.046875 3 8.171875 3 8.3125 C 3 8.59375 3.421875 8.882813 3.5625 9.09375 C 3.84375 9.445313 3.765625 9.953125 3.625 10.375 C 3.484375 10.796875 3.203125 11.148438 3.0625 11.5 C 2.992188 11.640625 3 11.773438 3 11.84375 L 3.21875 12.0625 C 3.851563 12.554688 4.414063 13.03125 4.90625 13.59375 C 5.1875 13.945313 5.398438 14.007813 5.75 14.21875 C 6.054688 14.402344 6.398438 14.59375 6.71875 14.59375 C 6.769531 14.59375 6.828125 14.605469 6.875 14.59375 C 7.226563 14.523438 7.554688 14.21875 7.90625 14.21875 C 8.117188 14.21875 8.414063 14.375 8.625 14.375 C 8.671875 14.382813 8.703125 14.375 8.75 14.375 C 9.125 14.375 9.5 14.15625 9.8125 14.03125 C 9.90625 13.992188 10.011719 13.96875 10.125 13.96875 C 10.4375 13.96875 10.796875 14.105469 11 14.3125 C 11.210938 14.453125 11.289063 14.734375 11.5 14.875 C 11.628906 14.96875 11.761719 15 11.90625 15 C 12.078125 15 12.253906 14.953125 12.40625 14.875 C 12.6875 15.085938 12.96875 15.625 12.96875 15.90625 C 12.96875 16.1875 12.835938 16.414063 12.90625 16.625 C 12.976563 17.398438 13.039063 17.804688 13.53125 18.4375 C 14.023438 19.070313 14.3125 19.71875 14.3125 20.5625 C 14.242188 21.40625 13.625 22.09375 13.625 22.9375 C 13.625 23.851563 14.664063 24.5625 14.875 25.40625 C 14.945313 25.6875 14.960938 26.03125 15.03125 26.3125 C 15.171875 26.945313 15.429688 27.5 15.78125 28.0625 C 15.921875 28.273438 16.148438 28.4375 16.21875 28.71875 L 16.21875 29.125 C 16.21875 29.476563 16.492188 29.828125 16.84375 29.96875 C 16.902344 29.988281 16.960938 30 17.03125 30 C 17.207031 30 17.425781 29.957031 17.625 29.90625 C 18.398438 29.835938 19.789063 29.546875 20.28125 28.84375 C 20.589844 28.40625 20.773438 27.851563 21.125 27.5 C 21.335938 27.289063 21.539063 27.09375 21.46875 26.8125 C 21.398438 26.671875 21.34375 26.601563 21.34375 26.53125 C 21.34375 26.390625 21.609375 26.3125 21.75 26.3125 L 22.1875 26.3125 C 22.539063 26.242188 22.664063 25.8125 22.59375 25.53125 C 22.523438 25.179688 22.171875 24.976563 22.03125 24.625 C 21.960938 24.554688 21.96875 24.476563 21.96875 24.40625 C 21.96875 24.125 22.460938 23.648438 22.8125 23.4375 C 23.234375 23.226563 23.726563 23.015625 23.9375 22.59375 C 24.078125 22.242188 24.078125 21.882813 23.9375 21.53125 C 23.796875 20.828125 23.507813 20.203125 23.4375 19.5 C 23.296875 18.796875 23.742188 18.101563 24.09375 17.46875 C 24.375 17.046875 24.796875 16.6875 25.21875 16.40625 C 26.625 15.351563 28.007813 13.601563 28.21875 11.84375 C 27.726563 12.265625 26.890625 12.554688 26.1875 12.625 C 25.976563 12.625 25.765625 12.601563 25.625 12.53125 C 25.484375 12.460938 25.351563 12.328125 25.28125 12.1875 C 24.859375 11.695313 24.648438 10.984375 24.15625 10.5625 C 23.875 10.351563 23.585938 10.21875 23.375 9.9375 C 23.09375 9.65625 22.953125 9.234375 22.8125 8.8125 C 22.390625 7.617188 22.398438 6.632813 21.90625 5.4375 C 21.765625 5.15625 21.625 4.8125 21.34375 4.8125 L 20.84375 4.8125 C 20.753906 4.824219 20.679688 4.84375 20.59375 4.84375 C 19.707031 4.84375 18.863281 4.222656 17.96875 4.03125 C 17.882813 4.003906 17.785156 4 17.6875 4 C 17.550781 4 17.425781 4.011719 17.34375 4.09375 C 17.132813 4.304688 17.210938 4.664063 17 4.875 C 16.917969 4.957031 16.761719 5 16.625 5 C 16.527344 5 16.429688 4.964844 16.34375 4.9375 C 16.132813 4.867188 15.992188 4.734375 15.78125 4.59375 C 15.078125 4.101563 13.671875 3.898438 12.96875 3.40625 C 13.109375 3.195313 13.179688 2.992188 13.25 2.78125 C 13.320313 2.570313 13.179688 2.203125 12.96875 2.0625 C 12.828125 1.992188 12.640625 2 12.5 2 Z M 10.65625 4.21875 L 11.84375 5.03125 C 12.433594 5.445313 13.128906 5.699219 13.75 5.90625 C 14.050781 6.007813 14.515625 6.136719 14.6875 6.25 C 14.722656 6.273438 14.753906 6.324219 14.78125 6.34375 C 14.96875 6.480469 15.269531 6.695313 15.71875 6.84375 C 16.011719 6.941406 16.316406 7 16.625 7 C 17.304688 7 17.953125 6.761719 18.40625 6.3125 C 18.925781 6.527344 19.523438 6.753906 20.25 6.8125 C 20.324219 7.085938 20.40625 7.382813 20.46875 7.6875 C 20.578125 8.21875 20.679688 8.796875 20.90625 9.4375 C 21.078125 9.953125 21.332031 10.65625 21.875 11.25 C 22.203125 11.652344 22.570313 11.894531 22.8125 12.0625 C 22.832031 12.074219 22.824219 12.082031 22.84375 12.09375 C 22.902344 12.175781 22.996094 12.351563 23.0625 12.46875 C 23.207031 12.722656 23.386719 13.035156 23.625 13.34375 C 23.875 13.730469 24.226563 14.058594 24.625 14.28125 C 24.4375 14.457031 24.234375 14.625 24.03125 14.78125 C 23.320313 15.261719 22.792969 15.765625 22.40625 16.34375 L 22.375 16.40625 L 22.34375 16.5 L 22.28125 16.59375 C 21.867188 17.335938 21.242188 18.4375 21.46875 19.78125 C 21.535156 20.34375 21.6875 20.820313 21.8125 21.25 C 21.851563 21.382813 21.875 21.53125 21.90625 21.65625 L 21.78125 21.71875 C 21.59375 21.828125 19.96875 22.839844 19.96875 24.40625 C 19.96875 24.605469 19.992188 24.804688 20.03125 24.96875 C 19.601563 25.367188 19.34375 25.914063 19.34375 26.53125 C 19.136719 26.816406 18.972656 27.101563 18.84375 27.34375 C 18.796875 27.433594 18.761719 27.519531 18.71875 27.59375 C 18.589844 27.660156 18.34375 27.746094 18.03125 27.8125 C 17.851563 27.382813 17.574219 27.09375 17.4375 26.9375 C 17.179688 26.519531 17.046875 26.1875 16.96875 25.84375 C 16.957031 25.777344 16.945313 25.695313 16.9375 25.625 C 16.914063 25.425781 16.878906 25.175781 16.8125 24.90625 C 16.625 24.148438 16.210938 23.605469 15.875 23.15625 C 15.804688 23.0625 15.722656 22.941406 15.65625 22.84375 C 15.695313 22.734375 15.765625 22.574219 15.8125 22.46875 C 16 22.03125 16.25 21.445313 16.3125 20.71875 L 16.3125 20.5625 C 16.3125 19.332031 15.9375 18.265625 15.125 17.21875 C 14.972656 17.023438 14.949219 17.015625 14.90625 16.5625 C 14.9375 16.402344 14.96875 16.160156 14.96875 15.90625 C 14.96875 14.976563 14.402344 13.832031 13.625 13.25 L 12.625 12.53125 L 12.25 12.71875 C 11.683594 12.246094 10.894531 11.96875 10.125 11.96875 C 9.75 11.96875 9.390625 12.023438 9.0625 12.15625 C 8.945313 12.203125 8.847656 12.253906 8.71875 12.3125 C 8.710938 12.316406 8.695313 12.339844 8.6875 12.34375 C 8.496094 12.292969 8.210938 12.21875 7.90625 12.21875 C 7.417969 12.21875 7.015625 12.375 6.71875 12.5 C 6.648438 12.457031 6.59375 12.410156 6.53125 12.375 C 6.503906 12.359375 6.464844 12.328125 6.4375 12.3125 L 6.40625 12.28125 C 6.117188 11.949219 5.773438 11.613281 5.40625 11.28125 C 5.445313 11.1875 5.496094 11.101563 5.53125 11 C 5.960938 9.714844 5.695313 8.785156 5.375 8.21875 C 5.464844 8.140625 5.570313 8.078125 5.6875 8 L 5.75 7.9375 C 6.210938 7.675781 7.1875 7.144531 7.53125 5.9375 L 7.53125 5.875 C 7.578125 5.691406 7.613281 5.5 7.625 5.34375 C 7.757813 5.238281 7.917969 5.097656 8.0625 4.9375 C 8.890625 4.9375 9.585938 4.628906 10.09375 4.40625 C 10.175781 4.371094 10.234375 4.34375 10.3125 4.3125 C 10.425781 4.277344 10.542969 4.242188 10.65625 4.21875 Z M 27.75 20 C 27.550781 20.429688 27.300781 20.941406 26.96875 21.15625 C 26.703125 21.300781 26.351563 21.433594 26.21875 21.71875 C 26.019531 22.074219 26.222656 22.488281 26.15625 22.84375 C 26.15625 22.988281 26.097656 23.136719 26.03125 23.28125 C 25.964844 23.636719 26.023438 24.082031 26.15625 24.4375 C 26.222656 24.652344 26.363281 24.929688 26.5625 25 C 26.695313 25 26.898438 24.925781 27.03125 24.78125 C 27.164063 24.636719 27.277344 24.371094 27.34375 24.15625 C 27.410156 23.941406 27.40625 23.714844 27.40625 23.5 C 27.472656 22.855469 27.804688 22.207031 27.9375 21.5625 C 28.003906 21.132813 28.003906 20.710938 27.9375 20.28125 C 27.886719 20.175781 27.832031 20.109375 27.78125 20.0625 Z "></path>
</g>
</svg>
