<?xml version="1.0" encoding="UTF-8"?>
<svg xmlns="http://www.w3.org/2000/svg" xmlns:xlink="http://www.w3.org/1999/xlink" viewBox="0 0 32 32" version="1.1">
<g>
<path d="M 6 4 L 6 28 L 26 28 L 26 4 Z M 8 6 L 24 6 L 24 26 L 8 26 Z M 10 9 L 10 11 L 22 11 L 22 9 Z M 10 13 L 10 15 L 22 15 L 22 13 Z M 13.5 16 C 12.632813 16 11.863281 16.589844 11.5 17.3125 C 11.136719 18.035156 11 18.890625 11 19.875 C 11 20.425781 11.195313 21.066406 11.3125 21.6875 C 10.863281 21.828125 10.464844 22.125 10.03125 22.125 L 10.03125 24.125 C 10.703125 24.125 11.386719 24.019531 12.03125 23.8125 C 12.132813 23.964844 12.179688 24.144531 12.3125 24.28125 C 12.703125 24.683594 13.320313 25 13.96875 25 C 15.554688 25 16.613281 23.949219 17.28125 23.125 C 17.417969 22.957031 17.480469 22.867188 17.59375 22.71875 C 17.621094 22.839844 17.601563 22.921875 17.65625 23.0625 C 17.734375 23.261719 17.851563 23.488281 18.09375 23.6875 C 18.335938 23.886719 18.699219 24 19 24 C 19.648438 24 19.980469 23.648438 20.21875 23.40625 C 20.457031 23.164063 20.652344 22.925781 20.84375 22.71875 C 21.222656 22.304688 21.496094 22.0625 21.9375 22.0625 L 21.9375 20.0625 C 20.71875 20.0625 19.878906 20.792969 19.375 21.34375 C 19.355469 21.222656 19.359375 21.144531 19.3125 21 C 19.25 20.808594 19.136719 20.5625 18.90625 20.34375 C 18.675781 20.125 18.3125 20 18 20 C 17.21875 20 16.859375 20.46875 16.5625 20.8125 C 16.265625 21.15625 15.996094 21.535156 15.71875 21.875 C 15.167969 22.550781 14.6875 23 13.96875 23 C 13.917969 23 13.863281 22.949219 13.8125 22.90625 C 13.871094 22.867188 13.945313 22.855469 14 22.8125 C 15.132813 21.960938 16 20.671875 16 19.125 C 16 18.359375 15.847656 17.636719 15.4375 17.03125 C 15.027344 16.425781 14.28125 16 13.5 16 Z M 13.40625 18 C 13.429688 17.980469 13.4375 18 13.5 18 C 13.710938 18 13.691406 18.023438 13.78125 18.15625 C 13.871094 18.289063 14 18.625 14 19.125 C 14 19.761719 13.65625 20.3125 13.15625 20.8125 C 13.113281 20.480469 13 20.160156 13 19.875 C 13 19.082031 13.144531 18.492188 13.28125 18.21875 C 13.351563 18.082031 13.382813 18.019531 13.40625 18 Z "></path>
</g>
</svg>
