<?xml version="1.0" encoding="UTF-8"?>
<svg xmlns="http://www.w3.org/2000/svg" xmlns:xlink="http://www.w3.org/1999/xlink" viewBox="0 0 32 32" version="1.1">
<g>
<path d="M 8 4 L 8 9.90625 C 7.9375 9.9375 7.875 9.96875 7.8125 10 L 3.59375 12.09375 L 4.5 13.90625 L 8 12.15625 L 8 14.90625 C 7.933594 14.9375 7.875 14.96875 7.8125 15 L 3.59375 17.09375 L 4.5 18.90625 L 8 17.15625 L 8 19.90625 C 7.933594 19.9375 7.875 19.96875 7.8125 20 L 3.59375 22.09375 L 4.5 23.90625 L 8 22.15625 L 8 28 L 24 28 L 24 22.09375 C 24.0625 22.0625 24.125 22.03125 24.1875 22 L 28.40625 19.90625 L 27.5 18.09375 L 23.3125 20.1875 C 21.210938 21.1875 18.789063 21.1875 16.6875 20.1875 L 16.1875 20 C 14.585938 19.199219 12.699219 18.894531 11 19.09375 L 11 21.09375 C 12.5 20.894531 14.011719 21.113281 15.3125 21.8125 L 15.8125 22 C 17.714844 22.949219 19.925781 23.191406 22 22.75 L 22 26 L 10 26 L 10 6 L 22 6 L 22 10.65625 C 20.246094 11.132813 18.363281 10.984375 16.6875 10.1875 L 16.1875 10 C 14.585938 9.199219 12.699219 8.894531 11 9.09375 L 11 11.09375 C 12.5 10.894531 14.011719 11.113281 15.3125 11.8125 L 15.8125 12 C 18.414063 13.300781 21.585938 13.300781 24.1875 12 L 28.40625 9.90625 L 27.5 8.09375 L 24 9.84375 L 24 4 Z M 27.5 13.09375 L 23.3125 15.1875 C 21.210938 16.1875 18.789063 16.1875 16.6875 15.1875 L 16.1875 15 C 14.585938 14.199219 12.699219 13.894531 11 14.09375 L 11 16.09375 C 12.5 15.894531 14.011719 16.113281 15.3125 16.8125 L 15.8125 17 C 18.414063 18.300781 21.585938 18.300781 24.1875 17 L 28.40625 14.90625 Z "></path>
</g>
</svg>
