<?xml version="1.0" encoding="UTF-8"?>
<svg xmlns="http://www.w3.org/2000/svg" xmlns:xlink="http://www.w3.org/1999/xlink" viewBox="0 0 32 32" version="1.1">
<g>
<path d="M 5 5 C 3.355469 5 2 6.355469 2 8 L 2 13.5 C 2 14.023438 2.148438 14.417969 2.25 14.71875 L 2.3125 14.84375 L 3.46875 17.28125 C 3.480469 17.308594 3.519531 17.316406 3.53125 17.34375 C 4.019531 18.382813 5.082031 19 6.1875 19 L 9 19 L 9 17 L 6.1875 17 C 5.722656 17 5.445313 16.808594 5.3125 16.5 L 5.3125 16.46875 L 4.59375 15 L 27.40625 15 L 26.6875 16.46875 L 26.6875 16.5 C 26.554688 16.808594 26.277344 17 25.8125 17 L 23 17 L 23 19 L 25.8125 19 C 26.917969 19 27.980469 18.382813 28.46875 17.34375 L 28.5 17.34375 C 28.511719 17.324219 28.523438 17.304688 28.53125 17.28125 L 29.6875 14.84375 L 29.75 14.71875 C 29.851563 14.417969 30 14.023438 30 13.5 L 30 8 C 30 6.355469 28.644531 5 27 5 Z M 5 7 L 27 7 C 27.554688 7 28 7.445313 28 8 L 28 13 L 4 13 L 4 8 C 4 7.445313 4.445313 7 5 7 Z M 12 17 C 11.449219 17 11 17.449219 11 18 C 11 18.550781 11.449219 19 12 19 C 12.550781 19 13 18.550781 13 18 C 13 17.449219 12.550781 17 12 17 Z M 16 17 C 15.449219 17 15 17.449219 15 18 C 15 18.550781 15.449219 19 16 19 C 16.550781 19 17 18.550781 17 18 C 17 17.449219 16.550781 17 16 17 Z M 20 17 C 19.449219 17 19 17.449219 19 18 C 19 18.550781 19.449219 19 20 19 C 20.550781 19 21 18.550781 21 18 C 21 17.449219 20.550781 17 20 17 Z M 11 20 C 10.449219 20 10 20.449219 10 21 C 10 21.550781 10.449219 22 11 22 C 11.550781 22 12 21.550781 12 21 C 12 20.449219 11.550781 20 11 20 Z M 16 20 C 15.449219 20 15 20.449219 15 21 C 15 21.550781 15.449219 22 16 22 C 16.550781 22 17 21.550781 17 21 C 17 20.449219 16.550781 20 16 20 Z M 21 20 C 20.449219 20 20 20.449219 20 21 C 20 21.550781 20.449219 22 21 22 C 21.550781 22 22 21.550781 22 21 C 22 20.449219 21.550781 20 21 20 Z M 10 23 C 9.449219 23 9 23.449219 9 24 C 9 24.550781 9.449219 25 10 25 C 10.550781 25 11 24.550781 11 24 C 11 23.449219 10.550781 23 10 23 Z M 16 23 C 15.449219 23 15 23.449219 15 24 C 15 24.550781 15.449219 25 16 25 C 16.550781 25 17 24.550781 17 24 C 17 23.449219 16.550781 23 16 23 Z M 22 23 C 21.449219 23 21 23.449219 21 24 C 21 24.550781 21.449219 25 22 25 C 22.550781 25 23 24.550781 23 24 C 23 23.449219 22.550781 23 22 23 Z M 8 26 C 7.449219 26 7 26.449219 7 27 C 7 27.550781 7.449219 28 8 28 C 8.550781 28 9 27.550781 9 27 C 9 26.449219 8.550781 26 8 26 Z M 16 26 C 15.449219 26 15 26.449219 15 27 C 15 27.550781 15.449219 28 16 28 C 16.550781 28 17 27.550781 17 27 C 17 26.449219 16.550781 26 16 26 Z M 24 26 C 23.449219 26 23 26.449219 23 27 C 23 27.550781 23.449219 28 24 28 C 24.550781 28 25 27.550781 25 27 C 25 26.449219 24.550781 26 24 26 Z "></path>
</g>
</svg>
