<?xml version="1.0" encoding="UTF-8"?>
<svg xmlns="http://www.w3.org/2000/svg" xmlns:xlink="http://www.w3.org/1999/xlink" viewBox="0 0 32 32" version="1.1">
<g>
<path d="M 16 5 C 13.292969 5 9.59375 6.75 6.3125 8.75 C 4.671875 9.75 3.191406 10.824219 2.0625 11.84375 C 1.496094 12.351563 1.015625 12.847656 0.65625 13.34375 C 0.296875 13.839844 0 14.332031 0 15 C 0 15.949219 0.511719 16.734375 1.125 17.25 C 1.738281 17.765625 2.464844 18.097656 3.15625 18.34375 C 3.835938 18.585938 4.496094 18.742188 5 18.84375 L 5 22.3125 L 5.1875 22.59375 C 5.1875 22.59375 6.0625 23.757813 7.8125 24.84375 C 9.5625 25.929688 12.25 27 16 27 C 19.75 27 22.4375 25.929688 24.1875 24.84375 C 25.9375 23.757813 26.8125 22.59375 26.8125 22.59375 L 27 22.3125 L 27 18.875 C 27.507813 18.777344 28.171875 18.609375 28.84375 18.375 C 29.539063 18.132813 30.257813 17.804688 30.875 17.28125 C 31.492188 16.757813 32 15.957031 32 15 C 32 14.335938 31.703125 13.816406 31.34375 13.3125 C 30.984375 12.808594 30.503906 12.324219 29.9375 11.8125 C 28.804688 10.789063 27.328125 9.714844 25.6875 8.71875 C 22.40625 6.730469 18.699219 5 16 5 Z M 16 7 C 17.71875 7 21.511719 8.519531 24.625 10.40625 C 26.183594 11.347656 27.601563 12.382813 28.59375 13.28125 C 29.089844 13.730469 29.484375 14.140625 29.71875 14.46875 C 29.953125 14.796875 30 15.039063 30 15 C 30 15.292969 29.882813 15.476563 29.5625 15.75 C 29.242188 16.023438 28.710938 16.304688 28.15625 16.5 C 27.09375 16.871094 26.058594 16.992188 25.96875 17 C 25.402344 16.886719 20.851563 16 16 16 C 11.191406 16 6.699219 16.875 6.0625 17 C 5.96875 16.988281 4.914063 16.851563 3.84375 16.46875 C 3.285156 16.269531 2.761719 15.992188 2.4375 15.71875 C 2.113281 15.445313 2 15.257813 2 15 C 2 15.0625 2.046875 14.824219 2.28125 14.5 C 2.515625 14.175781 2.910156 13.761719 3.40625 13.3125 C 4.398438 12.417969 5.816406 11.386719 7.375 10.4375 C 10.488281 8.539063 14.289063 7 16 7 Z M 12.875 11 C 11.046875 11 9 12 9 12 C 12.046875 12 14.054688 13.085938 15.0625 13.75 C 15.039063 13.832031 15 13.910156 15 14 C 15 14.550781 15.449219 15 16 15 C 16.550781 15 17 14.550781 17 14 C 17 13.910156 16.960938 13.832031 16.9375 13.75 C 17.945313 13.085938 19.953125 12 23 12 C 23 12 20.953125 11 19.125 11 C 17.3125 11 16 11.96875 16 11.96875 C 16 11.96875 14.6875 11 12.875 11 Z M 16 18 C 20.257813 18 23.949219 18.648438 25 18.84375 L 25 20.78125 C 23.398438 20.476563 20.300781 20 16 20 C 11.699219 20 8.601563 20.476563 7 20.78125 L 7 18.84375 C 8.050781 18.648438 11.742188 18 16 18 Z M 16 22 C 19.617188 22 22.257813 22.347656 23.90625 22.625 C 23.695313 22.785156 23.453125 22.972656 23.15625 23.15625 C 21.6875 24.070313 19.375 25 16 25 C 12.625 25 10.3125 24.070313 8.84375 23.15625 C 8.546875 22.972656 8.304688 22.785156 8.09375 22.625 C 9.742188 22.347656 12.382813 22 16 22 Z "></path>
</g>
</svg>
