<?xml version="1.0" encoding="UTF-8"?>
<svg xmlns="http://www.w3.org/2000/svg" xmlns:xlink="http://www.w3.org/1999/xlink" viewBox="0 0 32 32" version="1.1">
<g>
<path d="M 19.9375 4 C 17.722656 4 16 5.808594 16 8 L 18 8 C 18 6.769531 18.730469 6 19.9375 6 C 21.125 6 22 6.875 22 8.0625 C 22 9.25 21.167969 10 19.9375 10 L 4 10 L 4 12 L 19.9375 12 C 22.128906 12 24 10.296875 24 8.0625 C 24 5.828125 22.171875 4 19.9375 4 Z M 4 15 L 4 17 L 23.5 17 C 24.890625 17 26 18.109375 26 19.5 C 26 20.890625 24.890625 22 23.5 22 C 22.757813 22 22.179688 21.761719 21.75 21.3125 C 21.320313 20.863281 21 20.15625 21 19 L 19 19 C 19 20.542969 19.472656 21.808594 20.3125 22.6875 C 21.152344 23.566406 22.308594 24 23.5 24 C 25.972656 24 28 21.972656 28 19.5 C 28 17.027344 25.972656 15 23.5 15 Z M 4 20 L 4 22 L 11.9375 22 C 13.148438 22 14 22.8125 14 24 C 14 25.207031 13.207031 26 12 26 C 10.792969 26 10 25.207031 10 24 L 8 24 C 8 26.214844 9.785156 28 12 28 C 14.214844 28 16 26.214844 16 24 C 16 21.765625 14.152344 20 11.9375 20 Z "></path>
</g>
</svg>
