<?xml version="1.0" encoding="UTF-8"?>
<svg xmlns="http://www.w3.org/2000/svg" xmlns:xlink="http://www.w3.org/1999/xlink" viewBox="0 0 32 32" version="1.1">
<g>
<path d="M 9 3 C 5.699219 3 3 5.699219 3 9 C 3 12.300781 5.699219 15 9 15 C 12.300781 15 15 12.300781 15 9 C 15 5.699219 12.300781 3 9 3 Z M 9 5 C 11.222656 5 13 6.777344 13 9 C 13 11.222656 11.222656 13 9 13 C 6.777344 13 5 11.222656 5 9 C 5 6.777344 6.777344 5 9 5 Z M 20.984375 6 C 19.339844 6 17.984375 7.355469 17.984375 9 C 17.984375 10.644531 19.339844 12 20.984375 12 C 22.632813 12 23.984375 10.644531 23.984375 9 C 23.984375 7.355469 22.632813 6 20.984375 6 Z M 20.984375 8 C 21.550781 8 21.984375 8.4375 21.984375 9 C 21.984375 9.5625 21.550781 10 20.984375 10 C 20.421875 10 19.984375 9.5625 19.984375 9 C 19.984375 8.4375 20.421875 8 20.984375 8 Z M 30.058594 10.089844 L 24.953125 14.132813 C 24.980469 14.332031 24.996094 14.539063 24.976563 14.746094 L 24.96875 14.816406 L 24.953125 14.886719 L 24.40625 17.109375 L 30.058594 12.640625 Z M 20.78125 13 C 19.335938 12.953125 18.457031 13.378906 17.847656 15.578125 C 17.789063 15.792969 17.703125 16.113281 17.609375 16.488281 L 19.246094 18.089844 C 19.433594 17.355469 19.675781 16.464844 19.777344 16.109375 C 20.085938 14.984375 20.140625 14.996094 20.75 15 L 21.472656 15 C 21.5625 15 21.617188 15.046875 21.648438 15.082031 C 21.679688 15.121094 21.710938 15.183594 21.691406 15.269531 L 20.742188 19.546875 L 22.425781 21.191406 L 23.644531 15.703125 C 23.789063 15.042969 23.632813 14.359375 23.207031 13.832031 C 22.785156 13.304688 22.152344 13 21.472656 13 Z M 17.421875 17.328125 L 16.90625 19.953125 L 18.949219 22 L 15 22 C 14.34375 22 13.167969 22.265625 12.660156 24.046875 L 11.035156 29.726563 L 12.964844 30.277344 L 14.585938 24.59375 C 14.753906 24 14.914063 24 15 24 L 19 24 C 19.558594 24 20.09375 23.859375 20.574219 23.625 L 24.9375 28 L 27.769531 28 Z "></path>
</g>
</svg>
