<?xml version="1.0" encoding="UTF-8"?>
<svg xmlns="http://www.w3.org/2000/svg" xmlns:xlink="http://www.w3.org/1999/xlink" viewBox="0 0 32 32" version="1.1">
<g>
<path d="M 2 5 L 2 7 L 4 7 L 4 17 L 6 17 L 6 21 L 2 21 L 2 23 L 3.90625 23 C 3.90625 23.449219 4.007813 23.703125 4.125 24.03125 C 4.238281 24.351563 4.390625 24.6875 4.53125 25 L 2 25 L 2 27 L 7 27 L 7 25.53125 L 6.875 25.3125 C 6.875 25.3125 6.605469 24.800781 6.34375 24.21875 C 6.210938 23.925781 6.089844 23.621094 6 23.375 C 5.910156 23.128906 5.90625 22.867188 5.90625 23 L 6 23 C 7.09375 23 8 22.09375 8 21 L 8 15 L 6 15 L 6 7 C 6 5.90625 5.09375 5 4 5 Z M 13 5 C 11.90625 5 11 5.90625 11 7 L 11 15 L 9 15 L 9 21 C 9 22.09375 9.90625 23 11 23 C 11 22.949219 10.980469 23.140625 10.90625 23.375 C 10.824219 23.628906 10.683594 23.921875 10.5625 24.21875 C 10.324219 24.808594 10.09375 25.34375 10.09375 25.34375 L 10 25.53125 L 10 27 L 22 27 L 22 25.53125 L 21.875 25.3125 C 21.875 25.3125 21.605469 24.800781 21.34375 24.21875 C 21.210938 23.925781 21.089844 23.621094 21 23.375 C 20.910156 23.128906 20.90625 22.867188 20.90625 23 L 21 23 C 22.09375 23 23 22.09375 23 21 L 23 15 L 21 15 L 21 7 C 21 5.90625 20.09375 5 19 5 Z M 27.90625 6 C 27.746094 6.007813 27.570313 6.042969 27.40625 6.09375 L 26.4375 6.40625 C 25.550781 6.683594 25 7.507813 25 8.40625 L 25 12.59375 C 25 13.492188 25.550781 14.316406 26.4375 14.59375 L 27.40625 14.90625 C 28.707031 15.308594 30 14.222656 30 12.90625 L 30 8.09375 C 30 6.941406 29.023438 5.957031 27.90625 6 Z M 13 7 L 19 7 L 19 17 L 21 17 L 21 21 L 11 21 L 11 17 L 13 17 Z M 28 8 C 27.992188 8.003906 28 7.949219 28 8.09375 L 28 12.90625 C 28 13.050781 27.992188 12.996094 28 13 L 27.03125 12.6875 C 27.050781 12.695313 27 12.679688 27 12.59375 L 27 8.40625 C 27 8.320313 27.050781 8.308594 27.03125 8.3125 Z M 2 18 L 2 20 L 5 20 L 5 18 Z M 12 18 L 12 20 L 20 20 L 20 18 Z M 13 23 L 18.90625 23 C 18.90625 23.449219 19.007813 23.703125 19.125 24.03125 C 19.238281 24.351563 19.390625 24.6875 19.53125 25 L 12.4375 25 C 12.441406 24.984375 12.433594 24.984375 12.4375 24.96875 C 12.566406 24.644531 12.675781 24.296875 12.78125 23.96875 C 12.882813 23.648438 12.992188 23.398438 13 23 Z "></path>
</g>
</svg>
