<?xml version="1.0" encoding="UTF-8"?>
<svg xmlns="http://www.w3.org/2000/svg" xmlns:xlink="http://www.w3.org/1999/xlink" viewBox="0 0 32 32" version="1.1">
<g>
<path d="M 16 3 C 10.503906 3 6 7.339844 6 12.71875 L 6 19.28125 C 6 24.660156 10.503906 29 16 29 C 21.496094 29 26 24.660156 26 19.28125 L 26 12.71875 C 26 7.339844 21.496094 3 16 3 Z M 16 5 C 19.832031 5 23.007813 7.5625 23.8125 11 L 8.1875 11 C 8.992188 7.5625 12.167969 5 16 5 Z M 13 7 L 13 9 L 19 9 L 19 7 Z M 8 13 L 24 13 L 24 19.28125 C 24 19.503906 23.988281 19.71875 23.96875 19.9375 C 23.769531 18.921875 22.902344 18.175781 21.875 17.9375 C 21.621094 17.527344 21.273438 17.21875 20.84375 17 C 20.347656 15.863281 19.3125 15 18 15 C 16.820313 15 15.933594 15.730469 15.375 16.6875 C 14.457031 16.746094 13.75 17.34375 13.40625 18.15625 C 12.605469 18.605469 12 19.394531 12 20.375 C 12 21.828125 13.203125 23 14.65625 23 L 21.34375 23 C 22.25 23 23.050781 22.542969 23.53125 21.84375 C 22.4375 24.835938 19.503906 27 16 27 C 11.554688 27 8 23.546875 8 19.28125 Z M 18 17 C 18.605469 17 19.070313 17.410156 19.1875 17.9375 L 19.3125 18.5 L 19.875 18.6875 C 20.078125 18.75 20.214844 18.878906 20.28125 19.0625 L 20.53125 19.78125 L 21.28125 19.75 C 21.320313 19.746094 21.320313 19.722656 21.34375 19.71875 C 21.734375 19.71875 22 20.023438 22 20.375 C 22 20.726563 21.734375 21 21.34375 21 L 14.65625 21 C 14.265625 21 14 20.726563 14 20.375 C 14 20.097656 14.167969 19.871094 14.4375 19.78125 L 15.03125 19.5625 L 15.125 18.96875 C 15.148438 18.792969 15.285156 18.625 15.5 18.625 C 15.511719 18.625 15.53125 18.640625 15.59375 18.65625 L 16.59375 18.90625 L 16.8125 17.90625 C 16.933594 17.390625 17.402344 17 18 17 Z "></path>
</g>
</svg>
