<?xml version="1.0" encoding="UTF-8"?>
<svg xmlns="http://www.w3.org/2000/svg" xmlns:xlink="http://www.w3.org/1999/xlink" viewBox="0 0 32 32" version="1.1">
<g>
<path d="M 9.882813 4 L 10.882813 13 L 9.015625 13 L 7.015625 10 L 2.78125 10 L 3.980469 16 L 2.78125 22 L 7.015625 22 L 9.015625 19 L 10.882813 19 L 9.882813 28 L 14.652344 28 L 18.652344 19 L 26 19 C 27.644531 19 29 17.644531 29 16 C 29 14.355469 27.644531 13 26 13 L 18.652344 13 L 14.652344 4 Z M 12.117188 6 L 13.347656 6 L 17.347656 15 L 26 15 C 26.566406 15 27 15.433594 27 16 C 27 16.566406 26.566406 17 26 17 L 17.347656 17 L 13.347656 26 L 12.117188 26 L 13.117188 17 L 7.945313 17 L 5.945313 20 L 5.21875 20 L 6.019531 16 L 5.21875 12 L 5.945313 12 L 7.945313 15 L 13.117188 15 Z "></path>
</g>
</svg>
