<?xml version="1.0" encoding="UTF-8"?>
<svg xmlns="http://www.w3.org/2000/svg" xmlns:xlink="http://www.w3.org/1999/xlink" viewBox="0 0 32 32" version="1.1">
<g>
<path d="M 15 9 L 15 12 L 12 12 L 12 14 L 13.03125 14 C 12.339844 14.515625 11.792969 15.203125 11.4375 16 L 0 16 L 0 18 L 4.78125 18 C 4.300781 18.53125 4 19.234375 4 20 C 4 21.644531 5.355469 23 7 23 C 8.644531 23 10 21.644531 10 20 C 10 19.234375 9.699219 18.53125 9.21875 18 L 11 18 C 11 19.507813 11.867188 20.742188 12.84375 21.59375 C 13.820313 22.445313 14.886719 23 16 23 C 17.113281 23 18.179688 22.445313 19.15625 21.59375 C 20.132813 20.742188 21 19.507813 21 18 L 22.78125 18 C 22.300781 18.53125 22 19.234375 22 20 C 22 21.644531 23.355469 23 25 23 C 26.644531 23 28 21.644531 28 20 C 28 19.234375 27.699219 18.53125 27.21875 18 L 32 18 L 32 16 L 20.5625 16 C 20.207031 15.203125 19.660156 14.515625 18.96875 14 L 20 14 L 20 12 L 17 12 L 17 9 Z M 16 15 C 17.667969 15 19 16.332031 19 18 C 19 18.703125 18.53125 19.464844 17.84375 20.0625 C 17.15625 20.660156 16.21875 21 16 21 C 15.78125 21 14.84375 20.660156 14.15625 20.0625 C 13.46875 19.464844 13 18.703125 13 18 C 13 16.332031 14.332031 15 16 15 Z M 15 16 L 14 18 L 18 18 L 17 16 Z M 7 19 C 7.5625 19 8 19.4375 8 20 C 8 20.5625 7.5625 21 7 21 C 6.4375 21 6 20.5625 6 20 C 6 19.4375 6.4375 19 7 19 Z M 25 19 C 25.5625 19 26 19.4375 26 20 C 26 20.5625 25.5625 21 25 21 C 24.4375 21 24 20.5625 24 20 C 24 19.4375 24.4375 19 25 19 Z "></path>
</g>
</svg>
