<?xml version="1.0" encoding="UTF-8"?>
<svg xmlns="http://www.w3.org/2000/svg" xmlns:xlink="http://www.w3.org/1999/xlink" viewBox="0 0 32 32" version="1.1">
<g>
<path d="M 16 3 C 10.503906 3 6 7.339844 6 12.71875 L 6 19.28125 C 6 24.660156 10.503906 29 16 29 C 21.496094 29 26 24.660156 26 19.28125 L 26 12.71875 C 26 7.339844 21.496094 3 16 3 Z M 16 5 C 20.445313 5 24 8.453125 24 12.71875 L 24 19.28125 C 24 23.542969 20.445313 27 16 27 C 11.554688 27 8 23.546875 8 19.28125 L 8 12.71875 C 8 8.457031 11.554688 5 16 5 Z M 13 22 L 13 24 L 19 24 L 19 22 Z "></path>
</g>
</svg>
