<?xml version="1.0" encoding="UTF-8"?>
<svg xmlns="http://www.w3.org/2000/svg" xmlns:xlink="http://www.w3.org/1999/xlink" viewBox="0 0 32 32" version="1.1">
<g>
<path d="M 9.75 3.5 C 7.050781 4.855469 4.855469 7.050781 3.5 9.75 L 5.28125 10.625 C 6.441406 8.3125 8.3125 6.441406 10.625 5.28125 Z M 22.25 3.5 L 21.375 5.28125 C 23.6875 6.441406 25.558594 8.3125 26.71875 10.625 L 28.5 9.75 C 27.144531 7.050781 24.949219 4.855469 22.25 3.5 Z M 16 5 C 9.9375 5 5 9.9375 5 16 C 5 18.953125 6.164063 21.648438 8.0625 23.625 L 5.96875 26.9375 L 7.65625 28 L 9.59375 24.9375 C 11.398438 26.234375 13.617188 27 16 27 C 18.382813 27 20.601563 26.234375 22.40625 24.9375 L 24.3125 28 L 26 26.9375 L 23.9375 23.625 C 25.835938 21.648438 27 18.953125 27 16 C 27 9.9375 22.0625 5 16 5 Z M 16 7 C 20.980469 7 25 11.019531 25 16 C 25 20.980469 20.980469 25 16 25 C 11.019531 25 7 20.980469 7 16 C 7 11.019531 11.019531 7 16 7 Z M 15 9 L 15 17 L 21 17 L 21 15 L 17 15 L 17 9 Z "></path>
</g>
</svg>
