<?xml version="1.0" encoding="UTF-8"?>
<svg xmlns="http://www.w3.org/2000/svg" xmlns:xlink="http://www.w3.org/1999/xlink" viewBox="0 0 32 32" version="1.1">
<g>
<path d="M 6 2 L 6 30 L 16.863281 30 L 16.863281 28 L 8 28 L 8 4 L 23.078125 4 L 23.078125 17.160156 L 25.078125 17.160156 L 25.078125 2 Z M 13 6 L 13 12.042969 C 11.828125 12.957031 11 14.339844 11 16 L 11 26 L 18.082031 26 L 18.082031 24 L 13 24 L 13 16 C 13 14.75 13.648438 13.730469 14.480469 13.277344 L 15 12.996094 L 15 8 L 16 8 L 16 12.996094 L 16.519531 13.277344 C 17.351563 13.730469 18 14.75 18 16 L 18 19 L 20 19 L 20 16 C 20 14.339844 19.171875 12.957031 18 12.042969 L 18 6 Z M 24 18 C 23.601563 18.003906 23.203125 18.121094 22.867188 18.363281 L 22.261719 18.800781 L 21.527344 18.921875 L 21.523438 18.921875 C 20.707031 19.054688 20.054688 19.707031 19.921875 20.527344 L 19.800781 21.261719 L 19.363281 21.867188 C 18.878906 22.539063 18.878906 23.460938 19.363281 24.132813 L 19.800781 24.738281 L 19.921875 25.476563 C 19.988281 25.886719 20.183594 26.253906 20.464844 26.535156 L 18 29 L 20 29 L 20 31 L 23.199219 27.800781 C 23.710938 28.035156 24.289063 28.035156 24.800781 27.800781 L 28 31 L 28 29 L 30 29 L 27.535156 26.535156 C 27.816406 26.253906 28.015625 25.886719 28.078125 25.476563 L 28.078125 25.472656 L 28.199219 24.738281 L 28.636719 24.136719 C 29.121094 23.460938 29.121094 22.539063 28.636719 21.867188 L 28.199219 21.261719 L 28.078125 20.527344 L 28.078125 20.523438 C 27.945313 19.707031 27.296875 19.054688 26.476563 18.921875 L 25.738281 18.800781 L 25.132813 18.363281 C 24.796875 18.121094 24.398438 18 24 18 Z M 24 20.015625 L 24.953125 20.703125 L 26.113281 20.890625 L 26.296875 22.046875 L 26.984375 23 L 26.296875 23.953125 L 26.113281 25.113281 L 24.953125 25.296875 L 24 25.988281 L 23.046875 25.296875 L 21.890625 25.113281 L 21.703125 23.953125 L 21.015625 23 L 21.703125 22.046875 L 21.890625 20.890625 L 23.046875 20.703125 Z "></path>
</g>
</svg>
