<?xml version="1.0" encoding="UTF-8"?>
<svg xmlns="http://www.w3.org/2000/svg" xmlns:xlink="http://www.w3.org/1999/xlink" viewBox="0 0 32 32" version="1.1">
<g>
<path d="M 22.5 4 C 21.078125 4 19.949219 4.929688 19.40625 6.15625 C 16.820313 8.421875 13.832031 10.683594 11.4375 11.28125 C 11.050781 11.15625 10.65625 11 10.1875 11 C 8.855469 11 7.746094 11.527344 7.03125 12.3125 C 6.421875 12.980469 6.144531 13.796875 6.0625 14.625 C 5.835938 14.816406 5.585938 15 5.15625 15.6875 C 4.566406 16.625 4 18.046875 4 20 C 4 24.40625 7.636719 28 12 28 C 16.390625 28 18.921875 23.664063 19.15625 23.25 C 19.890625 22.675781 21.007813 22.28125 22.1875 21.9375 C 23.390625 21.585938 24.617188 21.292969 25.65625 20.6875 C 27.167969 19.789063 28 18.074219 28 16.46875 C 28 15.476563 27.59375 14.625 27.59375 14.625 L 27.34375 14 L 26.65625 14 C 26.269531 14 25.90625 14.066406 25.5625 14.15625 L 24.09375 13.1875 L 24.0625 14.84375 C 23.773438 15.027344 23.488281 15.210938 23.25 15.40625 C 22.835938 15.742188 22.496094 16.0625 22.21875 16.3125 C 21.941406 16.5625 21.71875 16.730469 21.75 16.71875 C 20.074219 17.40625 19.21875 17.417969 17.46875 17.75 L 17.4375 17.75 C 15.824219 18.082031 15.125 18.4375 14.4375 18.71875 C 14.851563 18.226563 15.132813 17.882813 15.53125 17.75 C 17.03125 17.253906 18.058594 16.738281 18.84375 16.03125 L 20.28125 16.5625 L 19.90625 14.5625 C 20.023438 14.335938 20.140625 14.113281 20.25 13.875 C 20.351563 13.847656 20.535156 13.773438 20.6875 13.71875 L 22.65625 14.46875 L 22.34375 12.8125 C 22.738281 12.492188 23.097656 12.0625 23.46875 11.53125 L 25.53125 12.15625 L 24.875 9.9375 C 25.546875 9.324219 26 8.480469 26 7.5 C 26 5.578125 24.421875 4 22.5 4 Z M 22.5 6 C 23.339844 6 24 6.660156 24 7.5 C 24 8.160156 23.578125 8.699219 23 8.90625 L 22.59375 9.0625 L 22.40625 9.46875 C 21.410156 11.851563 19.4375 12.09375 19.4375 12.09375 L 18.875 12.1875 L 18.65625 12.71875 C 18.289063 13.609375 18.015625 14.09375 17.53125 14.53125 C 17.046875 14.96875 16.28125 15.386719 14.90625 15.84375 C 13.867188 16.1875 13.273438 16.953125 12.84375 17.46875 C 12.414063 17.984375 12.191406 18.246094 11.78125 18.34375 L 11 18.5 L 11 20.15625 L 11.40625 20.46875 C 11.875 20.808594 12.347656 21.039063 12.875 21.09375 C 13.402344 21.148438 13.867188 21 14.28125 20.84375 C 15.105469 20.535156 15.972656 20.105469 17.84375 19.71875 C 19.480469 19.410156 20.605469 19.339844 22.5 18.5625 C 22.964844 18.367188 23.25 18.089844 23.5625 17.8125 C 23.875 17.535156 24.195313 17.246094 24.53125 16.96875 C 24.988281 16.597656 25.476563 16.472656 25.96875 16.3125 C 25.976563 16.371094 26 16.425781 26 16.46875 C 26 17.234375 25.34375 18.558594 24.65625 18.96875 C 24.046875 19.324219 22.886719 19.628906 21.625 20 C 20.363281 20.371094 18.972656 20.832031 17.84375 21.75 L 17.6875 21.84375 L 17.59375 22 C 17.59375 22 15.03125 26 12 26 C 8.734375 26 6 23.308594 6 20 C 6 18.425781 6.433594 17.40625 6.84375 16.75 C 7.253906 16.09375 7.59375 15.875 7.59375 15.875 L 8 15.5625 L 8 15.0625 C 8 14.554688 8.191406 14.03125 8.53125 13.65625 C 8.871094 13.28125 9.335938 13 10.1875 13 C 11.570313 13 12.53125 14.53125 12.53125 14.53125 L 14.28125 13.5625 C 14.28125 13.5625 13.886719 13.085938 13.5625 12.6875 C 16.113281 11.589844 18.582031 9.554688 20.75 7.65625 L 20.96875 7.46875 L 21.0625 7.15625 C 21.222656 6.496094 21.785156 6 22.5 6 Z M 10 14 C 9.449219 14 9 14.449219 9 15 C 9 15.550781 9.449219 16 10 16 C 10.550781 16 11 15.550781 11 15 C 11 14.449219 10.550781 14 10 14 Z "></path>
</g>
</svg>
