<?xml version="1.0" encoding="UTF-8"?>
<svg xmlns="http://www.w3.org/2000/svg" xmlns:xlink="http://www.w3.org/1999/xlink" viewBox="0 0 32 32" version="1.1">
<g>
<path d="M 2.25 8 C 1.039063 8 0 8.972656 0 10.199219 L 0 14 L 8 14 L 8 24 L 10 24 L 10 22.414063 L 13.414063 19 L 24.585938 19 L 28 22.414063 L 28 24 L 30 24 L 30 14 L 32 14 L 32 10.199219 C 32 8.972656 30.960938 8 29.75 8 L 8.25 8 C 7.792969 8 7.359375 8.140625 7 8.375 C 6.640625 8.140625 6.207031 8 5.75 8 Z M 2.25 10 L 5.75 10 C 5.921875 10 6 10.097656 6 10.199219 L 6 12 L 2 12 L 2 10.199219 C 2 10.097656 2.078125 10 2.25 10 Z M 8.25 10 L 29.75 10 C 29.921875 10 30 10.097656 30 10.199219 L 30 12 L 8 12 L 8 10.199219 C 8 10.097656 8.078125 10 8.25 10 Z M 11.078125 14 L 15.585938 14 L 13.082031 16.503906 Z M 18.414063 14 L 19.585938 14 L 22.585938 17 L 15.414063 17 Z M 22.414063 14 L 26.921875 14 L 24.917969 16.503906 Z M 10 15.851563 L 11.660156 17.925781 L 10 19.585938 Z M 28 15.851563 L 28 19.585938 L 26.339844 17.925781 Z "></path>
</g>
</svg>
