<?xml version="1.0" encoding="UTF-8"?>
<svg xmlns="http://www.w3.org/2000/svg" xmlns:xlink="http://www.w3.org/1999/xlink" viewBox="0 0 32 32" version="1.1">
<g>
<path d="M 10.402344 2.039063 C 9.839844 2.054688 9.289063 2.339844 9.015625 2.890625 L 8.996094 2.929688 L 2.070313 20.636719 L 2.203125 20.6875 L 2 20.875 L 2 28.796875 L 30 28.796875 L 30 22.214844 L 29.746094 22.214844 L 22.90625 6.578125 L 22.894531 6.554688 C 22.621094 5.996094 22.125 5.703125 21.59375 5.617188 C 21.066406 5.535156 20.335938 5.75 19.992188 6.363281 L 18.171875 9.632813 L 16.484375 5.71875 L 16.4375 5.652344 C 16.164063 5.222656 15.617188 4.984375 15.1875 5 C 14.753906 5.019531 14.394531 5.199219 14.109375 5.476563 L 14.109375 5.480469 L 13.332031 6.253906 L 11.863281 2.859375 L 11.839844 2.808594 C 11.535156 2.28125 10.964844 2.027344 10.402344 2.039063 Z M 10.464844 4.65625 L 12.667969 9.746094 L 15.027344 7.390625 L 20.300781 19.589844 C 17.515625 18.320313 14.769531 17 12 17 C 8.988281 17 6.628906 17.863281 4.945313 18.769531 Z M 21.359375 8.023438 L 27.511719 22.089844 C 25.960938 21.863281 24.371094 21.328125 22.769531 20.667969 L 22.917969 20.605469 L 19.171875 11.945313 Z M 12 19 C 14.152344 19 16.828125 20.210938 19.714844 21.515625 C 22.296875 22.6875 25.085938 23.789063 28 24.03125 L 28 26.796875 L 4 26.796875 L 4 21.84375 C 4.964844 21.007813 7.621094 19 12 19 Z "></path>
</g>
</svg>
