<?xml version="1.0" encoding="UTF-8"?>
<svg xmlns="http://www.w3.org/2000/svg" xmlns:xlink="http://www.w3.org/1999/xlink" viewBox="0 0 32 32" version="1.1">
<g>
<path d="M 2 6 L 2 26 L 30 26 L 30 6 Z M 4 8 L 28 8 L 28 24 L 4 24 Z M 16.8125 11.875 L 16.8125 19.28125 L 18.34375 19.28125 L 18.34375 11.875 Z M 11.71875 12.28125 L 9.15625 19.28125 L 10.875 19.28125 L 11.375 17.71875 L 13.84375 17.71875 L 14.34375 19.28125 L 16.0625 19.28125 L 13.59375 12.28125 Z M 21.53125 12.75 L 20 13.1875 L 20 14.28125 L 19.1875 14.28125 L 19.1875 15.40625 L 20 15.40625 L 20 17.71875 C 20 18.847656 20.539063 19.40625 21.625 19.40625 C 22.085938 19.40625 22.429688 19.339844 22.65625 19.21875 L 22.65625 18.09375 C 22.484375 18.1875 22.320313 18.21875 22.15625 18.21875 C 21.742188 18.21875 21.53125 17.957031 21.53125 17.4375 L 21.53125 15.40625 L 22.65625 15.40625 L 22.65625 14.28125 L 21.53125 14.28125 Z M 12.59375 13.53125 L 12.625 13.53125 C 12.648438 13.773438 12.695313 13.980469 12.75 14.15625 L 13.5 16.5 L 11.71875 16.5 L 12.46875 14.125 C 12.535156 13.921875 12.578125 13.734375 12.59375 13.53125 Z "></path>
</g>
</svg>
