<?xml version="1.0" encoding="UTF-8"?>
<svg xmlns="http://www.w3.org/2000/svg" xmlns:xlink="http://www.w3.org/1999/xlink" viewBox="0 0 32 32" version="1.1">
<g>
<path d="M 2 6 L 2 26 L 30 26 L 30 6 Z M 4 8 L 28 8 L 28 24 L 4 24 Z M 11.71875 12.125 L 11.71875 18.78125 L 13.125 18.78125 L 13.125 12.125 Z M 21.03125 12.375 C 18.066406 12.375 17.53125 14.664063 17.53125 15.75 C 17.53125 18.375 19.5625 18.90625 20.8125 18.90625 C 21.726563 18.90625 22.480469 18.730469 23.09375 18.375 L 23.09375 15.1875 L 20.40625 15.1875 L 20.40625 16.34375 L 21.6875 16.34375 L 21.6875 17.5625 C 21.488281 17.660156 21.214844 17.71875 20.875 17.71875 C 19.359375 17.71875 19.03125 16.480469 19.03125 15.65625 C 19.03125 13.996094 20.222656 13.5625 21.03125 13.5625 C 21.734375 13.5625 22.328125 13.71875 22.8125 14 L 22.8125 12.65625 C 22.300781 12.472656 21.699219 12.375 21.03125 12.375 Z M 7.15625 12.5 L 4.875 18.78125 L 6.40625 18.78125 L 6.84375 17.375 L 9.09375 17.375 L 9.53125 18.78125 L 11.0625 18.78125 L 8.84375 12.5 Z M 16 12.90625 L 14.625 13.3125 L 14.625 14.28125 L 13.875 14.28125 L 13.875 15.3125 L 14.625 15.3125 L 14.625 17.375 C 14.625 18.390625 15.113281 18.90625 16.09375 18.90625 C 16.507813 18.90625 16.796875 18.828125 17 18.71875 L 17 17.71875 C 16.84375 17.804688 16.707031 17.84375 16.5625 17.84375 C 16.191406 17.84375 16 17.59375 16 17.125 L 16 15.3125 L 17 15.3125 L 17 14.28125 L 16 14.28125 Z M 7.9375 13.625 L 7.96875 13.625 C 7.988281 13.84375 8.042969 14.03125 8.09375 14.1875 L 8.75 16.28125 L 7.15625 16.28125 L 7.84375 14.15625 C 7.902344 13.972656 7.921875 13.808594 7.9375 13.625 Z M 26.78125 14.21875 C 26.210938 14.21875 25.8125 14.515625 25.59375 15.125 L 25.5625 15.125 L 25.5625 14.28125 L 24.1875 14.28125 L 24.1875 18.78125 L 25.5625 18.78125 L 25.5625 16.625 C 25.5625 15.535156 26.230469 15.40625 26.53125 15.40625 C 26.753906 15.40625 26.957031 15.441406 27.125 15.53125 L 27.125 14.25 C 27.042969 14.214844 26.925781 14.21875 26.78125 14.21875 Z "></path>
</g>
</svg>
