<?xml version="1.0" encoding="UTF-8"?>
<svg xmlns="http://www.w3.org/2000/svg" xmlns:xlink="http://www.w3.org/1999/xlink" viewBox="0 0 32 32" version="1.1">
<g>
<path d="M 10.84375 5 C 10.011719 5 9.292969 5.527344 8.9375 6.0625 C 8.582031 6.597656 8.414063 7.144531 8.21875 7.625 C 8.023438 8.105469 7.816406 8.507813 7.625 8.71875 C 7.433594 8.929688 7.320313 9.03125 6.90625 9.03125 C 6.441406 9.03125 5.65625 8.5 5.65625 8.5 L 4.375 10.03125 C 4.375 10.03125 5.40625 11.03125 6.90625 11.03125 C 7.824219 11.03125 8.632813 10.605469 9.125 10.0625 C 9.617188 9.519531 9.847656 8.902344 10.0625 8.375 C 10.277344 7.847656 10.480469 7.40625 10.625 7.1875 C 10.769531 6.96875 10.703125 7 10.84375 7 C 11.15625 7 11.175781 7.023438 11.5 7.5 C 11.824219 7.976563 12.230469 8.84375 12.8125 9.96875 C 12.875 10.085938 13.132813 10.527344 13.21875 10.6875 C 12.96875 10.871094 12.78125 11.136719 12.78125 11.46875 C 12.78125 12.019531 13.230469 12.46875 13.78125 12.46875 C 13.910156 12.46875 14.042969 12.449219 14.15625 12.40625 C 14.285156 12.644531 14.421875 12.867188 14.5625 13.125 C 14.238281 13.289063 14 13.609375 14 14 C 14 14.550781 14.449219 15 15 15 C 15.1875 15 15.351563 14.933594 15.5 14.84375 C 15.652344 15.117188 15.71875 15.253906 15.875 15.53125 C 15.53125 15.6875 15.3125 16.035156 15.3125 16.4375 C 15.3125 16.988281 15.761719 17.4375 16.3125 17.4375 C 16.515625 17.4375 16.6875 17.386719 16.84375 17.28125 C 17.339844 18.167969 17.847656 19.089844 18.21875 19.75 C 18.476563 20.207031 18.691406 20.574219 18.84375 20.84375 C 18.996094 21.113281 19.070313 21.214844 19.125 21.3125 C 19.195313 21.429688 19.277344 21.570313 19.5 21.71875 C 19.722656 21.867188 20.308594 21.957031 20.6875 21.6875 C 21.066406 21.417969 21.078125 21.097656 21.09375 20.90625 C 21.109375 20.714844 21.105469 20.570313 21.0625 20.4375 C 21.09375 20.539063 21.058594 20.421875 21.03125 20.3125 C 21.003906 20.203125 20.949219 20.054688 20.90625 19.875 C 20.816406 19.515625 20.710938 19.023438 20.59375 18.53125 C 20.355469 17.550781 20.097656 16.4375 20.0625 16.21875 C 19.953125 15.574219 20.15625 13.84375 20.15625 13.84375 L 20.1875 13.625 L 23.03125 14.5625 L 22.9375 14.625 L 22.8125 14.78125 C 22.8125 14.78125 22.519531 15.195313 22.3125 15.75 C 22.105469 16.304688 21.890625 17.171875 22.375 18 C 22.511719 18.234375 22.992188 19.109375 23.5 20.09375 C 24.417969 21.871094 23.71875 24.023438 21.9375 24.9375 C 20.046875 25.910156 17.769531 25.0625 16.96875 23.09375 L 11.3125 9.1875 C 11.3125 9.1875 11.035156 10.519531 10 11.03125 L 15.125 23.84375 C 16.355469 26.875 19.964844 28.210938 22.875 26.71875 C 25.617188 25.3125 26.695313 21.929688 25.28125 19.1875 C 24.769531 18.195313 24.347656 17.347656 24.125 16.96875 C 24.097656 16.921875 24.082031 16.71875 24.1875 16.4375 C 24.257813 16.25 24.292969 16.175781 24.34375 16.09375 L 25.625 15.375 L 25.96875 15.15625 L 26.1875 14.5 L 26.46875 13.5625 L 25.53125 13.25 L 18.65625 11.03125 L 17.6875 10.71875 L 17.375 11.6875 L 17.3125 11.96875 L 17.1875 12.375 L 17.40625 12.78125 L 18.1875 14 C 18.148438 14.226563 18.15625 14.828125 18.125 15.46875 C 18.097656 15.421875 18.089844 15.390625 18.0625 15.34375 C 16.632813 12.792969 15.082031 10 14.59375 9.0625 C 14.039063 7.996094 13.652344 7.109375 13.15625 6.375 C 12.660156 5.640625 11.835938 5 10.84375 5 Z "></path>
</g>
</svg>
