<?xml version="1.0" encoding="UTF-8"?>
<svg xmlns="http://www.w3.org/2000/svg" xmlns:xlink="http://www.w3.org/1999/xlink" viewBox="0 0 32 32" version="1.1">
<g>
<path d="M 5 5.21875 L 9.21875 12.21875 C 9.976563 13.355469 10.5625 13.5 12.0625 13.5 L 16.09375 13.5 L 10.59375 6.59375 C 9.957031 5.792969 9.304688 5.21875 7.9375 5.21875 Z M 17.09375 14.75 C 13.75 14.765625 12.789063 15.550781 12.46875 16.09375 C 12.148438 16.636719 12.289063 17.015625 12.625 17.5625 C 12.960938 18.109375 15.09375 21.59375 15.09375 21.59375 C 14.183594 20.058594 15.53125 16.5625 20.3125 16.5625 C 21.398438 16.5625 21.886719 16.742188 21.9375 16.78125 C 21.410156 14.890625 19.667969 14.714844 17.09375 14.75 Z M 19.375 17.59375 C 15.621094 17.882813 14.5625 20.753906 15.28125 21.9375 C 15.820313 22.828125 16.390625 23.910156 16.96875 24.875 C 17.675781 26.058594 18.964844 26.785156 20.34375 26.78125 L 27 26.78125 Z "></path>
</g>
</svg>
