<?xml version="1.0" encoding="UTF-8"?>
<svg xmlns="http://www.w3.org/2000/svg" xmlns:xlink="http://www.w3.org/1999/xlink" viewBox="0 0 32 32" version="1.1">
<g>
<path d="M 18.1875 3 C 18.488281 4 14.511719 4.894531 13.3125 7.59375 C 12.8125 8.59375 12.992188 9.59375 13.59375 10.59375 C 14.148438 11.230469 14.890625 11.617188 15.625 12 L 13 12 C 12.398438 12 12 12.398438 12 13 L 12 14.375 C 11.234375 14.664063 10.546875 14.972656 10 15.25 L 9.6875 14.09375 L 9.4375 15.59375 C 9.390625 15.621094 9.351563 15.632813 9.3125 15.65625 L 7.8125 15.09375 L 8.8125 16.1875 L 9.03125 16.53125 L 9.3125 18.09375 L 9.90625 16.8125 L 11.1875 17.09375 L 10.5625 16.34375 C 10.972656 16.140625 11.457031 15.90625 12 15.6875 L 12 20.03125 C 11.59375 20.121094 11.207031 20.226563 10.84375 20.34375 C 10.820313 20.351563 10.804688 20.367188 10.78125 20.375 L 10.5 19.3125 L 10 20.59375 L 8.40625 20.5 L 9.21875 21.125 C 9.144531 21.179688 9.066406 21.25 9 21.3125 C 8.511719 21.753906 8.1875 22.382813 8.1875 23.09375 C 8.1875 24.191406 8.921875 25.050781 9.84375 25.5625 C 10.46875 25.910156 11.21875 26.148438 12 26.3125 L 12 27.3125 C 12 27.8125 12.40625 28.210938 12.90625 28.3125 L 18.90625 29 L 19 29 C 19.5 29 20 28.601563 20 28 L 20 26.28125 C 20.570313 26.203125 21.101563 26.113281 21.5625 26.03125 L 21.5 27 L 22.40625 26 L 23.90625 26.5 L 23.09375 25.3125 L 23 25.09375 L 23 23.6875 L 22 24.6875 L 20.90625 24.09375 L 21.28125 24.875 C 20.898438 24.945313 20.46875 24.992188 20 25.0625 L 20 20.03125 C 20.339844 19.949219 20.660156 19.855469 20.96875 19.75 C 21.046875 19.722656 21.109375 19.683594 21.1875 19.65625 L 21.40625 20.90625 L 22.1875 19.40625 L 23.6875 19.5 L 22.84375 18.71875 C 23.308594 18.257813 23.59375 17.621094 23.59375 16.90625 C 23.59375 16.390625 23.371094 15.953125 23.0625 15.5625 L 23.90625 15.3125 L 22.3125 14.6875 L 22.1875 13.09375 L 21.3125 14.3125 C 21.074219 14.210938 20.820313 14.117188 20.5625 14.03125 L 21 13 C 21 12.398438 20.5 12 20 12 L 17.1875 12 C 17.171875 11.527344 17.265625 11.015625 17.59375 10.6875 C 18.894531 9.085938 20.507813 7.113281 19.90625 5.3125 C 19.707031 4.414063 19.085938 3.5 18.1875 3 Z M 18.4375 4.84375 C 18.460938 4.839844 18.476563 4.855469 18.5 4.90625 C 19.398438 6.707031 16.90625 8.007813 16.40625 9.40625 C 16.105469 10.105469 16.1875 10.613281 16.1875 11.3125 L 15.3125 10.40625 C 14.511719 9.40625 14.800781 8.304688 15.5 7.40625 C 16.101563 6.707031 17.789063 6.289063 18.1875 5.1875 C 18.261719 5.039063 18.363281 4.851563 18.4375 4.84375 Z M 14 14 L 18.59375 14 L 18.59375 15.40625 L 18.1875 16.6875 L 18 17.09375 L 18 19.1875 C 17.695313 19.234375 17.378906 19.273438 17.0625 19.3125 L 17.1875 18.09375 L 16.09375 19.3125 L 14.6875 18.40625 L 15.15625 19.5625 C 14.765625 19.609375 14.382813 19.667969 14 19.71875 Z M 20.90625 15.4375 C 21.019531 15.488281 21.148438 15.542969 21.25 15.59375 L 20.8125 16.90625 L 21.90625 16.03125 C 22.25 16.320313 22.40625 16.59375 22.40625 16.90625 C 22.40625 17.238281 22.304688 17.464844 22.125 17.6875 L 21.6875 16.90625 L 21.625 18.125 C 21.53125 18.1875 21.453125 18.253906 21.34375 18.3125 L 20.09375 17.8125 L 20.65625 18.59375 C 20.632813 18.601563 20.617188 18.617188 20.59375 18.625 C 20.410156 18.6875 20.203125 18.726563 20 18.78125 L 20 17.40625 L 20.5 15.8125 L 20.5 15.46875 Z M 18 20.375 L 18 26.90625 L 14 26.40625 L 14 20.90625 C 14.398438 20.847656 14.804688 20.800781 15.21875 20.75 L 15.09375 21.90625 L 16.40625 20.8125 L 17.6875 21.59375 L 17.25 20.46875 C 17.5 20.4375 17.753906 20.410156 18 20.375 Z M 12 21.28125 L 12 25.0625 C 11.402344 24.914063 10.855469 24.730469 10.4375 24.5 C 9.734375 24.109375 9.40625 23.695313 9.40625 23.09375 C 9.40625 22.707031 9.523438 22.453125 9.8125 22.1875 C 9.828125 22.175781 9.859375 22.167969 9.875 22.15625 L 10.09375 23 L 10.6875 21.6875 L 12 21.90625 L 11.5 21.40625 C 11.660156 21.359375 11.828125 21.320313 12 21.28125 Z "></path>
</g>
</svg>
