<?xml version="1.0" encoding="UTF-8"?>
<svg xmlns="http://www.w3.org/2000/svg" xmlns:xlink="http://www.w3.org/1999/xlink" viewBox="0 0 32 32" version="1.1">
<g>
<path d="M 16 4 C 14.078125 4 12.5 5.578125 12.5 7.5 C 12.5 9.421875 14.078125 11 16 11 C 17.921875 11 19.5 9.421875 19.5 7.5 C 19.5 5.578125 17.921875 4 16 4 Z M 16 11 L 15.15625 11 C 13.4375 11 11.917969 12.121094 11.375 13.75 L 9.0625 20.6875 L 10.9375 21.3125 L 13 15.21875 L 13 28 L 15 28 L 15 21 L 17 21 L 17 23 L 19 23 L 19 15.21875 L 21.0625 21.3125 L 22.9375 20.6875 L 20.625 13.75 C 20.082031 12.121094 18.5625 11 16.84375 11 Z M 16 6 C 16.839844 6 17.5 6.660156 17.5 7.5 C 17.5 8.339844 16.839844 9 16 9 C 15.160156 9 14.5 8.339844 14.5 7.5 C 14.5 6.660156 15.160156 6 16 6 Z M 15 13 C 15.050781 12.996094 15.101563 13 15.15625 13 L 16.84375 13 C 16.898438 13 16.949219 12.996094 17 13 L 17 19 L 15 19 Z "></path>
</g>
</svg>
