<?xml version="1.0" encoding="UTF-8"?>
<svg xmlns="http://www.w3.org/2000/svg" xmlns:xlink="http://www.w3.org/1999/xlink" viewBox="0 0 32 32" version="1.1">
<g>
<path d="M 6 3 C 4.894531 3 4 3.894531 4 5 C 4 5.253906 4.039063 5.496094 4.125 5.71875 C 3.574219 6.550781 3 7.691406 3 9 C 3 10.707031 4.035156 11.820313 4.78125 12.40625 C 4.304688 13.71875 4 15.230469 4 17 C 4 17 3.988281 18.894531 4.65625 21.0625 C 5.324219 23.230469 6.714844 25.808594 9.625 26.9375 L 9.65625 26.90625 C 11.171875 28.679688 13.351563 30 16 30 C 18.648438 30 20.828125 28.679688 22.34375 26.90625 L 22.375 26.9375 C 25.285156 25.808594 26.675781 23.230469 27.34375 21.0625 C 28.011719 18.894531 28 17 28 17 C 28 15.230469 27.695313 13.71875 27.21875 12.40625 C 27.964844 11.820313 29 10.707031 29 9 C 29 7.691406 28.425781 6.550781 27.875 5.71875 C 27.960938 5.496094 28 5.253906 28 5 C 28 3.894531 27.105469 3 26 3 C 24.894531 3 24 3.894531 24 5 C 24 6.105469 24.894531 7 26 7 C 26.085938 7 26.167969 6.980469 26.25 6.96875 C 26.652344 7.613281 27 8.394531 27 9 C 27 9.617188 26.660156 10.113281 26.3125 10.46875 C 25.148438 8.554688 23.535156 7.265625 21.9375 6.46875 C 18.949219 4.976563 16 5 16 5 C 16 5 13.050781 4.976563 10.0625 6.46875 C 8.464844 7.265625 6.851563 8.554688 5.6875 10.46875 C 5.339844 10.113281 5 9.617188 5 9 C 5 8.394531 5.347656 7.613281 5.75 6.96875 C 5.832031 6.980469 5.914063 7 6 7 C 7.105469 7 8 6.105469 8 5 C 8 3.894531 7.105469 3 6 3 Z M 16 7 C 16 7 18.550781 6.996094 21.0625 8.25 C 23.574219 9.503906 26 11.824219 26 17 C 26 17 26.003906 18.625 25.4375 20.46875 C 25.257813 21.050781 25.019531 21.628906 24.71875 22.1875 C 24.890625 21.449219 25 20.707031 25 20 C 25 18.050781 24.535156 16.171875 23.71875 14.6875 C 22.902344 13.203125 21.640625 12 20 12 C 19.210938 12 18.53125 12.296875 18.03125 12.6875 C 17.53125 13.078125 17.183594 13.539063 16.90625 13.9375 C 16.628906 14.335938 16.386719 14.667969 16.21875 14.84375 C 16.050781 15.019531 16.054688 15 16 15 C 15.945313 15 15.949219 15.019531 15.78125 14.84375 C 15.613281 14.667969 15.371094 14.335938 15.09375 13.9375 C 14.816406 13.539063 14.46875 13.078125 13.96875 12.6875 C 13.46875 12.296875 12.789063 12 12 12 C 10.359375 12 9.097656 13.203125 8.28125 14.6875 C 7.464844 16.171875 7 18.050781 7 20 C 7 20.707031 7.109375 21.449219 7.28125 22.1875 C 6.980469 21.628906 6.742188 21.050781 6.5625 20.46875 C 5.996094 18.625 6 17 6 17 C 6 11.824219 8.425781 9.503906 10.9375 8.25 C 13.449219 6.996094 16 7 16 7 Z M 12 14 C 12.347656 14 12.527344 14.078125 12.75 14.25 C 12.972656 14.421875 13.222656 14.710938 13.46875 15.0625 C 13.714844 15.414063 13.941406 15.832031 14.3125 16.21875 C 14.683594 16.605469 15.289063 17 16 17 C 16.710938 17 17.316406 16.605469 17.6875 16.21875 C 18.058594 15.832031 18.285156 15.414063 18.53125 15.0625 C 18.777344 14.710938 19.027344 14.421875 19.25 14.25 C 19.472656 14.078125 19.652344 14 20 14 C 20.636719 14 21.351563 14.503906 21.96875 15.625 C 22.585938 16.746094 23 18.371094 23 20 C 23 21.613281 22.300781 23.714844 21.0625 25.3125 C 19.824219 26.910156 18.132813 28 16 28 C 13.867188 28 12.175781 26.910156 10.9375 25.3125 C 9.699219 23.714844 9 21.613281 9 20 C 9 18.371094 9.414063 16.746094 10.03125 15.625 C 10.648438 14.503906 11.363281 14 12 14 Z M 12.5 18 C 11.671875 18 11 18.671875 11 19.5 C 11 20.328125 11.671875 21 12.5 21 C 13.328125 21 14 20.328125 14 19.5 C 14 18.671875 13.328125 18 12.5 18 Z M 19.5 18 C 18.671875 18 18 18.671875 18 19.5 C 18 20.328125 18.671875 21 19.5 21 C 20.328125 21 21 20.328125 21 19.5 C 21 18.671875 20.328125 18 19.5 18 Z "></path>
</g>
</svg>
