<?xml version="1.0" encoding="UTF-8"?>
<svg xmlns="http://www.w3.org/2000/svg" xmlns:xlink="http://www.w3.org/1999/xlink" viewBox="0 0 32 32" version="1.1">
<g>
<path d="M 16 4 C 14.089844 4 12.292969 4.453125 10.6875 5.25 C 10.410156 5.28125 10.136719 5.3125 9.875 5.34375 C 8.339844 5.527344 6.824219 5.757813 5.625 6.0625 C 5.027344 6.214844 4.503906 6.375 4.0625 6.59375 C 3.84375 6.703125 3.640625 6.832031 3.4375 7.03125 C 3.234375 7.230469 3 7.558594 3 8 C 3 8.585938 3.355469 8.992188 3.65625 9.21875 C 3.957031 9.445313 4.308594 9.578125 4.6875 9.71875 C 4.964844 9.820313 5.292969 9.910156 5.625 10 C 4.597656 11.765625 4 13.8125 4 16 C 4 22.617188 9.382813 28 16 28 C 22.617188 28 28 22.617188 28 16 C 28 13.8125 27.402344 11.765625 26.375 10 C 26.707031 9.910156 27.035156 9.820313 27.3125 9.71875 C 27.691406 9.578125 28.042969 9.445313 28.34375 9.21875 C 28.644531 8.992188 29 8.585938 29 8 C 29 7.535156 28.75 7.171875 28.53125 6.96875 C 28.3125 6.765625 28.089844 6.648438 27.84375 6.53125 C 27.351563 6.300781 26.753906 6.132813 26.0625 5.96875 C 24.738281 5.65625 23.046875 5.417969 21.3125 5.25 C 19.707031 4.453125 17.910156 4 16 4 Z M 16 6 C 18.605469 6 20.972656 7 22.75 8.625 C 20.78125 8.859375 18.402344 9 16 9 C 13.597656 9 11.21875 8.859375 9.25 8.625 C 11.027344 7 13.394531 6 16 6 Z M 24.65625 7.71875 C 24.964844 7.777344 25.324219 7.84375 25.59375 7.90625 C 25.746094 7.941406 25.800781 7.964844 25.9375 8 C 25.675781 8.074219 25.414063 8.144531 25.125 8.21875 C 24.976563 8.042969 24.816406 7.882813 24.65625 7.71875 Z M 7.3125 7.75 C 7.164063 7.90625 7.015625 8.054688 6.875 8.21875 C 6.601563 8.144531 6.375 8.070313 6.125 8 C 6.464844 7.914063 6.898438 7.828125 7.3125 7.75 Z M 7.71875 10.4375 C 10.015625 10.796875 12.976563 11 16 11 C 19.023438 11 21.984375 10.796875 24.28125 10.4375 C 25.347656 12.027344 26 13.933594 26 16 C 26 21.535156 21.535156 26 16 26 C 10.464844 26 6 21.535156 6 16 C 6 13.933594 6.652344 12.027344 7.71875 10.4375 Z M 11.5 12 C 10.671875 12 10 12.671875 10 13.5 C 10 14.328125 10.671875 15 11.5 15 C 12.328125 15 13 14.328125 13 13.5 C 13 12.671875 12.328125 12 11.5 12 Z M 20.5 12 C 19.671875 12 19 12.671875 19 13.5 C 19 14.328125 19.671875 15 20.5 15 C 21.328125 15 22 14.328125 22 13.5 C 22 12.671875 21.328125 12 20.5 12 Z M 10.8125 19 L 9.09375 20 C 10.476563 22.386719 13.046875 24 16 24 C 18.953125 24 21.523438 22.386719 22.90625 20 L 21.1875 19 C 20.148438 20.792969 18.226563 22 16 22 C 13.773438 22 11.851563 20.792969 10.8125 19 Z "></path>
</g>
</svg>
