<?xml version="1.0" encoding="UTF-8"?>
<svg xmlns="http://www.w3.org/2000/svg" xmlns:xlink="http://www.w3.org/1999/xlink" viewBox="0 0 32 32" version="1.1">
<g>
<path d="M 9 2.875 C 9 2.875 6.871094 3.253906 4.90625 5.21875 C 2.933594 7.191406 2.53125 9.375 2.53125 9.375 L 4.03125 9.65625 C 4.03125 9.65625 4.3125 7.9375 5.96875 6.28125 C 7.632813 4.617188 9.25 4.34375 9.25 4.34375 Z M 17.5625 3.375 C 16.8125 3.375 16.035156 3.652344 15.46875 4.21875 L 14.40625 5.28125 C 14.152344 5.214844 13.890625 5.164063 13.625 5.15625 C 13.242188 5.144531 12.847656 5.199219 12.46875 5.3125 L 12.4375 5.3125 L 7.875 6.875 C 6.324219 7.40625 5.261719 8.863281 5.1875 10.5 L 4.90625 17.5 L 1.84375 20.5625 L 3.28125 21.96875 L 6.84375 18.40625 L 6.84375 18 L 7.1875 10.5625 C 7.222656 9.738281 7.753906 9.046875 8.53125 8.78125 L 13.0625 7.21875 C 13.074219 7.214844 13.082031 7.222656 13.09375 7.21875 C 13.757813 7.035156 14.449219 7.308594 14.84375 7.875 L 17.5625 11.875 C 17.769531 12.179688 17.707031 12.566406 17.40625 12.78125 C 17.117188 12.988281 16.726563 12.925781 16.5 12.65625 L 14.6875 10.5 L 14.3125 10.03125 L 13.75 10.15625 L 12.03125 10.46875 L 10.4375 10.75 L 11.40625 12.0625 C 11.40625 12.0625 12.25 13.175781 13 14.65625 C 13.75 16.136719 14.277344 17.96875 14 18.96875 L 15.9375 19.5 C 16.484375 17.519531 15.617188 15.441406 14.78125 13.78125 C 14.710938 13.640625 14.699219 13.667969 14.625 13.53125 L 14.96875 13.9375 C 15.570313 14.65625 16.492188 14.957031 17.375 14.84375 C 17.457031 15.457031 17.722656 16.035156 18.1875 16.5 C 18.605469 16.917969 19.113281 17.171875 19.65625 17.28125 C 19.566406 18.128906 19.824219 19.011719 20.46875 19.65625 C 21.089844 20.277344 21.929688 20.527344 22.75 20.46875 L 19.625 23.59375 C 18.480469 24.738281 16.765625 25.128906 15.25 24.5625 L 12.6875 23.59375 L 11.96875 25.46875 L 13.5625 26.0625 L 11.0625 28.5625 L 12.46875 29.96875 L 15.71875 26.71875 C 17.636719 27.03125 19.621094 26.441406 21.03125 25.03125 L 25.21875 20.84375 C 26.394531 19.667969 26.644531 18.304688 26.6875 17.5625 L 26.84375 17.40625 C 27.976563 16.273438 27.976563 14.382813 26.84375 13.25 C 26.519531 12.925781 26.128906 12.730469 25.71875 12.59375 C 26.03125 11.589844 25.820313 10.445313 25.03125 9.65625 C 24.625 9.25 24.121094 8.996094 23.59375 8.875 C 23.691406 8.015625 23.433594 7.121094 22.78125 6.46875 C 22.214844 5.902344 21.46875 5.625 20.71875 5.625 C 20.605469 5.625 20.488281 5.644531 20.375 5.65625 C 20.261719 5.128906 20.03125 4.625 19.625 4.21875 C 19.058594 3.652344 18.3125 3.375 17.5625 3.375 Z M 17.5625 5.34375 C 17.789063 5.34375 18.003906 5.441406 18.1875 5.625 C 18.554688 5.992188 18.554688 6.570313 18.1875 6.9375 L 17.28125 7.84375 L 16.53125 6.75 C 16.429688 6.601563 16.304688 6.472656 16.1875 6.34375 L 16.90625 5.625 C 17.089844 5.441406 17.335938 5.34375 17.5625 5.34375 Z M 20.71875 7.59375 C 20.953125 7.59375 21.191406 7.691406 21.375 7.875 C 21.742188 8.242188 21.742188 8.820313 21.375 9.1875 L 20.90625 9.65625 L 19.40625 11.125 C 19.347656 11 19.296875 10.867188 19.21875 10.75 L 18.40625 9.53125 L 19.5 8.46875 L 19.625 8.34375 C 19.636719 8.332031 19.644531 8.324219 19.65625 8.3125 L 20.0625 7.875 C 20.246094 7.691406 20.484375 7.59375 20.71875 7.59375 Z M 22.96875 10.78125 C 23.203125 10.78125 23.441406 10.878906 23.625 11.0625 C 23.992188 11.429688 23.992188 11.976563 23.625 12.34375 L 20.90625 15.0625 C 20.539063 15.429688 19.992188 15.429688 19.625 15.0625 C 19.257813 14.695313 19.257813 14.148438 19.625 13.78125 L 22.3125 11.0625 C 22.496094 10.878906 22.734375 10.78125 22.96875 10.78125 Z M 24.78125 14.40625 C 25.015625 14.40625 25.253906 14.503906 25.4375 14.6875 C 25.804688 15.054688 25.804688 15.601563 25.4375 15.96875 L 23.1875 18.25 C 22.820313 18.617188 22.242188 18.617188 21.875 18.25 C 21.507813 17.882813 21.507813 17.304688 21.875 16.9375 L 24.125 14.6875 C 24.308594 14.503906 24.546875 14.40625 24.78125 14.40625 Z M 27.34375 21.03125 C 27.34375 21.03125 26.207031 23.167969 24.4375 24.9375 C 22.671875 26.703125 20.5 27.8125 20.5 27.8125 L 21.15625 29.15625 C 21.15625 29.15625 23.519531 27.980469 25.5 26 C 27.472656 24.027344 28.6875 21.71875 28.6875 21.71875 Z M 27.9375 25 C 27.9375 25 27.292969 26.019531 26.40625 26.90625 C 25.523438 27.789063 24.5 28.4375 24.5 28.4375 L 25.28125 29.71875 C 25.28125 29.71875 26.429688 29.007813 27.46875 27.96875 C 28.503906 26.933594 29.21875 25.8125 29.21875 25.8125 Z "></path>
</g>
</svg>
