<?xml version="1.0" encoding="UTF-8"?>
<svg xmlns="http://www.w3.org/2000/svg" xmlns:xlink="http://www.w3.org/1999/xlink" viewBox="0 0 32 32" version="1.1">
<g>
<path d="M 16 4 C 9.382813 4 4 9.382813 4 16 C 4 22.617188 9.382813 28 16 28 L 28 28 L 23.78125 25.09375 C 26.351563 22.890625 28 19.640625 28 16 C 28 9.382813 22.617188 4 16 4 Z M 16 6 C 21.535156 6 26 10.464844 26 16 C 26 21.535156 21.535156 26 16 26 C 10.464844 26 6 21.535156 6 16 C 6 10.464844 10.464844 6 16 6 Z M 12 11 C 10.894531 11 10 11.894531 10 13 C 10 14.105469 10.894531 15 12 15 C 13.105469 15 14 14.105469 14 13 C 14 11.894531 13.105469 11 12 11 Z M 20 11 C 18.894531 11 18 11.894531 18 13 C 18 14.105469 18.894531 15 20 15 C 21.105469 15 22 14.105469 22 13 C 22 11.894531 21.105469 11 20 11 Z M 10.09375 17 C 10.570313 19.835938 13.027344 22 16 22 C 18.972656 22 21.429688 19.835938 21.90625 17 Z "></path>
</g>
</svg>
