<?xml version="1.0" encoding="UTF-8"?>
<svg xmlns="http://www.w3.org/2000/svg" xmlns:xlink="http://www.w3.org/1999/xlink" viewBox="0 0 32 32" version="1.1">
<g>
<path d="M 10 3 L 10 5 C 10 6.394531 10.980469 7.578125 12.28125 7.90625 C 12.109375 8.40625 12 8.976563 12 9.59375 C 12 10.457031 12.316406 11.242188 12.8125 11.8125 C 12.769531 11.839844 12.730469 11.875 12.6875 11.90625 L 9.75 11.15625 L 7.9375 6.625 L 6.0625 7.375 L 8.25 12.84375 L 8.75 12.96875 L 11.34375 13.625 C 11.210938 13.964844 11.113281 14.328125 11.0625 14.71875 L 8.25 14.03125 L 7.6875 13.90625 L 7.28125 14.28125 L 4.28125 17.28125 L 5.71875 18.71875 L 8.3125 16.125 L 11.15625 16.8125 C 11.214844 17.066406 11.296875 17.3125 11.40625 17.5625 L 7.625 19.0625 L 7.1875 19.25 L 7.03125 19.71875 L 5.03125 26.71875 L 6.96875 27.28125 L 8.84375 20.75 L 12.78125 19.1875 C 12.800781 19.199219 12.824219 19.207031 12.84375 19.21875 C 11.90625 19.84375 11 20.777344 11 22.15625 C 11 23.503906 11.523438 24.886719 12.375 26 C 13.226563 27.113281 14.484375 28 16 28 C 17.515625 28 18.773438 27.113281 19.625 26 C 20.476563 24.886719 21 23.503906 21 22.15625 C 21 20.792969 20.109375 19.875 19.1875 19.25 C 19.21875 19.230469 19.25 19.207031 19.28125 19.1875 L 23.15625 20.75 L 25.03125 27.28125 L 26.96875 26.71875 L 24.96875 19.71875 L 24.8125 19.25 L 24.375 19.0625 L 20.59375 17.5625 C 20.699219 17.3125 20.789063 17.066406 20.84375 16.8125 L 23.6875 16.125 L 26.28125 18.71875 L 27.71875 17.28125 L 24.71875 14.28125 L 24.3125 13.90625 L 23.75 14.03125 L 20.9375 14.71875 C 20.886719 14.328125 20.789063 13.964844 20.65625 13.625 L 23.25 12.96875 L 23.75 12.84375 L 25.9375 7.375 L 24.0625 6.625 L 22.25 11.15625 L 19.3125 11.90625 C 19.269531 11.875 19.230469 11.839844 19.1875 11.8125 C 19.683594 11.242188 20 10.457031 20 9.59375 C 20 8.976563 19.875 8.410156 19.6875 7.90625 C 21 7.589844 22 6.40625 22 5 L 22 3 L 20 3 L 20 5 C 20 5.566406 19.566406 6 19 6 L 18.71875 6 C 18.167969 4.507813 17 4 17 4 L 17 5.1875 C 16.667969 5.070313 16.339844 5 16 5 C 15.671875 5 15.34375 5.078125 15 5.1875 L 15 4 C 15 4 13.835938 4.5 13.28125 6 L 13 6 C 12.433594 6 12 5.566406 12 5 L 12 3 Z M 16 7 C 16.0625 7 16.695313 7.191406 17.15625 7.625 C 17.617188 8.058594 18 8.652344 18 9.59375 C 18 10.21875 17.855469 10.417969 17.5625 10.625 C 17.269531 10.832031 16.707031 11 16 11 C 15.292969 11 14.730469 10.832031 14.4375 10.625 C 14.144531 10.417969 14 10.21875 14 9.59375 C 14 8.539063 14.367188 7.964844 14.8125 7.5625 C 15.257813 7.160156 15.871094 7 16 7 Z M 16 13 C 16.976563 13 17.777344 13.207031 18.25 13.5625 C 18.722656 13.917969 19 14.414063 19 15.4375 C 19 16.183594 18.871094 16.808594 18.53125 17.21875 C 18.191406 17.628906 17.554688 18 16.03125 18 C 16.019531 18 16.011719 18 16 18 C 14.5 17.996094 13.855469 17.632813 13.5 17.21875 C 13.140625 16.800781 13 16.167969 13 15.4375 C 13 14.414063 13.277344 13.917969 13.75 13.5625 C 14.222656 13.207031 15.023438 13 16 13 Z M 16 20 C 16.011719 20 16.019531 20 16.03125 20 C 16.136719 20.023438 16.332031 20.09375 16.53125 20.15625 C 16.875 20.265625 17.324219 20.4375 17.71875 20.65625 C 18.511719 21.097656 19 21.625 19 22.15625 C 19 22.953125 18.621094 24.011719 18.03125 24.78125 C 17.441406 25.550781 16.707031 26 16 26 C 15.292969 26 14.558594 25.550781 13.96875 24.78125 C 13.378906 24.011719 13 22.953125 13 22.15625 C 13 21.625 13.488281 21.097656 14.28125 20.65625 C 14.675781 20.4375 15.125 20.265625 15.46875 20.15625 C 15.6875 20.085938 15.90625 20.023438 16 20 Z "></path>
</g>
</svg>
