<?xml version="1.0" encoding="UTF-8"?>
<svg xmlns="http://www.w3.org/2000/svg" xmlns:xlink="http://www.w3.org/1999/xlink" viewBox="0 0 32 32" version="1.1">
<g>
<path d="M 27.960938 21.71875 C 26.6875 17.417969 22.460938 14.382813 20.996094 13.441406 C 20.894531 6.878906 19.074219 2.765625 18.992188 2.589844 L 18.644531 2 L 17.125 2 L 17.007813 2.867188 C 16.992188 2.988281 16.839844 4.148438 16.652344 5.621094 C 16.332031 4.542969 16.070313 3.765625 16.042969 3.679688 L 15.71875 3 L 14 3 L 14 10.0625 C 11.589844 10.367188 10.519531 11.789063 10.15625 13 L 4.019531 13 L 4 13.980469 C 3.996094 14.089844 3.984375 16.683594 7.675781 17.945313 C 8.539063 18.242188 9.289063 18.480469 9.933594 18.679688 C 10.875 18.976563 11.847656 19.28125 12.113281 19.480469 C 12.179688 19.703125 12.289063 20.253906 12.390625 20.75 C 12.824219 22.898438 13.554688 26.496094 15.117188 29.46875 L 15.394531 30 L 16 30 C 19.46875 30 26.113281 26.1875 27.902344 22.429688 L 28.066406 22.085938 Z M 16.59375 27.953125 C 15.359375 25.347656 14.734375 22.253906 14.351563 20.351563 C 14.136719 19.289063 14.042969 18.847656 13.894531 18.554688 C 13.464844 17.691406 12.484375 17.386719 10.53125 16.769531 C 9.902344 16.574219 9.167969 16.34375 8.324219 16.054688 C 7.414063 15.742188 6.863281 15.355469 6.527344 15 L 12 15 L 12 14 C 12 13.917969 12.035156 12 15 12 L 18 12 C 18 11.386719 18.1875 9.609375 18.410156 7.75 C 18.734375 9.429688 19 11.546875 19 14 L 19 14.578125 L 19.5 14.867188 C 19.550781 14.894531 24.460938 17.769531 25.921875 21.910156 C 24.269531 24.8125 19.300781 27.566406 16.59375 27.953125 Z M 13 14 L 16 14 C 16 14 15.175781 15 14.09375 15 C 13.359375 15 13 14 13 14 Z "></path>
</g>
</svg>
