<?xml version="1.0" encoding="UTF-8"?>
<svg xmlns="http://www.w3.org/2000/svg" xmlns:xlink="http://www.w3.org/1999/xlink" viewBox="0 0 32 32" version="1.1">
<g>
<path d="M 10 3.875 L 3 7.375 L 3 28 L 29 28 L 29 7.375 L 22 3.875 L 16 6.875 Z M 10 6.125 L 15 8.625 L 15 26 L 5 26 L 5 8.625 Z M 22 6.125 L 27 8.625 L 27 26 L 17 26 L 17 8.625 Z M 7 10 L 7 12 L 9 12 L 9 10 Z M 11 10 L 11 12 L 13 12 L 13 10 Z M 19 10 L 19 12 L 21 12 L 21 10 Z M 23 10 L 23 12 L 25 12 L 25 10 Z M 7 14 L 7 16 L 9 16 L 9 14 Z M 11 14 L 11 16 L 13 16 L 13 14 Z M 19 14 L 19 16 L 21 16 L 21 14 Z M 23 14 L 23 16 L 25 16 L 25 14 Z M 7 18 L 7 20 L 9 20 L 9 18 Z M 11 18 L 11 20 L 13 20 L 13 18 Z M 19 18 L 19 20 L 21 20 L 21 18 Z M 23 18 L 23 20 L 25 20 L 25 18 Z M 7 22 L 7 24 L 9 24 L 9 22 Z M 11 22 L 11 24 L 13 24 L 13 22 Z M 19 22 L 19 24 L 21 24 L 21 22 Z M 23 22 L 23 24 L 25 24 L 25 22 Z "></path>
</g>
</svg>
