<?xml version="1.0" encoding="UTF-8"?>
<svg xmlns="http://www.w3.org/2000/svg" xmlns:xlink="http://www.w3.org/1999/xlink" viewBox="0 0 32 32" version="1.1">
<g>
<path d="M 2 6 L 2 26 L 30 26 L 30 6 Z M 4 8 L 28 8 L 28 24 L 4 24 Z M 10.21875 12 L 10 12.6875 L 8.0625 18.6875 L 8 18.84375 L 8 20 L 10 20 L 10 19.125 L 10.03125 19 L 11.96875 19 L 12 19.125 L 12 20 L 14 20 L 14 18.84375 L 13.9375 18.6875 L 12 12.6875 L 11.78125 12 Z M 15 12 L 15 20 L 17 20 L 17 18 C 18.644531 18 20 16.644531 20 15 C 20 13.355469 18.644531 12 17 12 Z M 21 12 L 21 20 L 23 20 L 23 12 Z M 17 14 C 17.566406 14 18 14.433594 18 15 C 18 15.566406 17.566406 16 17 16 Z M 11 16.0625 L 11.3125 17 L 10.6875 17 Z "></path>
</g>
</svg>
