<?xml version="1.0" encoding="UTF-8"?>
<svg xmlns="http://www.w3.org/2000/svg" xmlns:xlink="http://www.w3.org/1999/xlink" viewBox="0 0 32 32" version="1.1">
<g>
<path d="M 6 3 L 6 10 L 8 10 L 8 5 L 24 5 L 24 10 L 26 10 L 26 3 Z M 9.21875 12 L 9 12.6875 L 7.0625 18.6875 L 7 18.84375 L 7 20 L 9 20 L 9 19.125 L 9.03125 19 L 10.96875 19 L 11 19.125 L 11 20 L 13 20 L 13 18.84375 L 12.9375 18.6875 L 11 12.6875 L 10.78125 12 Z M 14 12 L 14 20 L 16 20 L 16 18 C 17.644531 18 19 16.644531 19 15 C 19 13.355469 17.644531 12 16 12 Z M 20 12 L 20 20 L 22 20 L 22 18 L 22.125 17.78125 L 23 20 L 25 20 L 23.21875 15.5625 L 25 12 L 23 12 L 22 14 L 22 12 Z M 16 14 C 16.566406 14 17 14.433594 17 15 C 17 15.566406 16.566406 16 16 16 Z M 10 16.0625 L 10.3125 17 L 9.6875 17 Z M 6 22 L 6 29 L 26 29 L 26 22 L 24 22 L 24 27 L 8 27 L 8 22 Z "></path>
</g>
</svg>
