<?xml version="1.0" encoding="UTF-8"?>
<svg xmlns="http://www.w3.org/2000/svg" xmlns:xlink="http://www.w3.org/1999/xlink" viewBox="0 0 32 32" version="1.1">
<g>
<path d="M 12.1875 1 L 12 1.78125 C 12 1.78125 11.789063 2.644531 11.4375 3.65625 C 11.09375 4.644531 10.566406 5.765625 10.25 6.09375 C 8.40625 6.445313 7 8.058594 7 10 L 7 22 C 7 23.863281 8.296875 25.40625 10.03125 25.84375 L 10 25.875 C 10.3125 26.167969 10.898438 27.332031 11.25 28.34375 C 11.601563 29.355469 11.8125 30.21875 11.8125 30.21875 L 12 31 L 19.96875 31 L 20.15625 30.21875 C 20.15625 30.21875 20.320313 29.34375 20.65625 28.34375 C 20.992188 27.34375 21.574219 26.210938 21.90625 25.90625 L 21.875 25.875 C 23.65625 25.472656 25 23.898438 25 22 L 25 15 L 26 15 L 26 11 L 25 11 L 25 10 C 25 8.160156 23.734375 6.613281 22.03125 6.15625 L 22.09375 6.09375 C 21.742188 5.773438 21.132813 4.632813 20.75 3.625 C 20.367188 2.617188 20.125 1.75 20.125 1.75 L 19.9375 1 Z M 13.75 3 L 18.46875 3 C 18.578125 3.375 18.601563 3.632813 18.875 4.34375 C 19.078125 4.878906 19.308594 5.457031 19.59375 6 L 12.65625 6 C 12.925781 5.441406 13.152344 4.863281 13.34375 4.3125 C 13.585938 3.609375 13.648438 3.378906 13.75 3 Z M 11 8 L 21 8 C 22.105469 8 23 8.894531 23 10 L 23 22 C 23 23.105469 22.105469 24 21 24 L 11 24 C 9.894531 24 9 23.105469 9 22 L 9 10 C 9 8.894531 9.894531 8 11 8 Z M 12.46875 26 L 19.46875 26 C 19.195313 26.5625 18.964844 27.167969 18.78125 27.71875 C 18.546875 28.414063 18.5 28.617188 18.40625 29 L 13.53125 29 C 13.429688 28.621094 13.398438 28.390625 13.15625 27.6875 C 12.964844 27.136719 12.746094 26.558594 12.46875 26 Z "></path>
</g>
</svg>
