<?xml version="1.0" encoding="UTF-8"?>
<svg xmlns="http://www.w3.org/2000/svg" xmlns:xlink="http://www.w3.org/1999/xlink" viewBox="0 0 32 32" version="1.1">
<g>
<path d="M 9 4 C 6.253906 4 4 6.253906 4 9 L 4 23 C 4 25.746094 6.253906 28 9 28 L 23 28 C 25.746094 28 28 25.746094 28 23 L 28 9 C 28 6.253906 25.746094 4 23 4 Z M 9 6 L 23 6 C 24.65625 6 26 7.34375 26 9 L 26 23 C 26 24.65625 24.65625 26 23 26 L 9 26 C 7.34375 26 6 24.65625 6 23 L 6 9 C 6 7.34375 7.34375 6 9 6 Z M 17.6875 11.3125 C 17.1875 11.414063 16.710938 11.695313 16.3125 12.09375 C 15.914063 12.492188 15.707031 13 15.90625 13.5 C 16.40625 13.5 16.914063 13.210938 17.3125 12.8125 C 17.613281 12.414063 17.789063 11.914063 17.6875 11.3125 Z M 14.40625 13.59375 C 13.707031 13.59375 13 13.988281 12.5 14.6875 C 11.800781 15.789063 11.898438 17.804688 13 19.40625 C 13.398438 20.105469 13.894531 20.6875 14.59375 20.6875 C 15.195313 20.6875 15.289063 20.3125 16.1875 20.3125 C 16.988281 20.3125 17.210938 20.6875 17.8125 20.6875 C 18.414063 20.6875 19.007813 19.914063 19.40625 19.3125 C 19.605469 18.914063 19.695313 18.6875 20.09375 18.1875 C 18.492188 17.585938 18.210938 15.398438 19.8125 14.5 C 19.3125 14 18.601563 13.59375 18 13.59375 C 17.101563 13.59375 16.789063 14 16.1875 14 C 15.585938 14 15.105469 13.59375 14.40625 13.59375 Z "></path>
</g>
</svg>
