<?xml version="1.0" encoding="UTF-8"?>
<svg xmlns="http://www.w3.org/2000/svg" xmlns:xlink="http://www.w3.org/1999/xlink" viewBox="0 0 32 32" version="1.1">
<g>
<path d="M 18.25 4 C 17.746094 4.027344 17.242188 4.210938 16.8125 4.53125 L 10.75 9.03125 C 10.667969 9.023438 10.585938 9 10.5 9 C 10.359375 9 10.226563 9.039063 10.09375 9.0625 L 10.1875 8.40625 C 10.382813 7.050781 9.417969 5.789063 8.0625 5.59375 C 6.707031 5.398438 5.445313 6.363281 5.25 7.71875 L 4.0625 15.78125 C 3.867188 17.136719 4.039063 18.679688 5 19.96875 L 7.25 22.9375 C 8.210938 24.226563 9.613281 25.007813 11.09375 25.21875 L 12.1875 26.28125 C 14.453125 28.546875 18.140625 28.546875 20.40625 26.28125 L 27.1875 19.53125 C 28.078125 18.640625 28.28125 17.210938 27.5 16.125 C 27.285156 15.824219 27.015625 15.613281 26.71875 15.4375 L 27.25 14.90625 C 28.261719 13.894531 28.261719 12.230469 27.25 11.21875 C 27.054688 11.023438 26.828125 10.867188 26.59375 10.75 C 27.042969 9.785156 26.886719 8.605469 26.09375 7.8125 C 25.589844 7.308594 24.917969 7.0625 24.25 7.0625 C 23.859375 7.0625 23.480469 7.144531 23.125 7.3125 C 23.007813 7.09375 22.871094 6.871094 22.6875 6.6875 C 22.191406 6.191406 21.535156 5.945313 20.875 5.9375 C 20.792969 5.632813 20.667969 5.332031 20.46875 5.0625 C 20.042969 4.488281 19.414063 4.128906 18.75 4.03125 C 18.585938 4.007813 18.417969 3.992188 18.25 4 Z M 18.4375 6 C 18.585938 6.023438 18.738281 6.109375 18.84375 6.25 C 18.964844 6.410156 18.980469 6.582031 18.9375 6.75 L 13 12.6875 L 13 11.5 C 13 11.011719 12.84375 10.542969 12.59375 10.15625 L 18 6.125 C 18.140625 6.019531 18.289063 5.976563 18.4375 6 Z M 7.59375 7.5625 C 7.65625 7.546875 7.710938 7.550781 7.78125 7.5625 C 8.066406 7.605469 8.230469 7.839844 8.1875 8.125 L 7.84375 10.625 L 7.8125 10.8125 L 7.875 11 L 8 11.5 L 8 19.65625 C 8 20.019531 8.03125 20.378906 8.09375 20.75 L 6.625 18.78125 C 6.050781 18.011719 5.921875 17.050781 6.0625 16.0625 L 7.21875 8 C 7.25 7.785156 7.40625 7.613281 7.59375 7.5625 Z M 20.84375 7.90625 C 21 7.90625 21.160156 7.972656 21.28125 8.09375 C 21.527344 8.339844 21.527344 8.722656 21.28125 8.96875 L 16.71875 13.5 L 18.125 14.9375 L 23.8125 9.25 C 24.058594 9.003906 24.441406 9.003906 24.6875 9.25 C 24.933594 9.496094 24.933594 9.847656 24.6875 10.09375 L 19 15.78125 L 20.40625 17.1875 L 24.96875 12.65625 C 25.214844 12.410156 25.566406 12.410156 25.8125 12.65625 C 26.058594 12.902344 26.058594 13.253906 25.8125 13.5 L 23.5625 15.78125 L 21.28125 18.0625 L 22.6875 19.46875 L 24.96875 17.1875 C 25.238281 16.917969 25.652344 16.929688 25.90625 17.28125 C 26.058594 17.496094 25.992188 17.882813 25.75 18.125 L 19 24.875 C 17.5 26.375 15.09375 26.375 13.59375 24.875 L 10.96875 22.25 C 10.289063 21.570313 10 20.65625 10 19.65625 L 10 11.5 C 10 11.210938 10.210938 11 10.5 11 C 10.789063 11 11 11.210938 11 11.5 L 11 15.59375 L 11.4375 15.875 L 11.46875 15.90625 L 12.15625 16.375 L 12.71875 15.78125 L 20.40625 8.09375 C 20.527344 7.972656 20.6875 7.90625 20.84375 7.90625 Z "></path>
</g>
</svg>
