<?xml version="1.0" encoding="UTF-8"?>
<svg xmlns="http://www.w3.org/2000/svg" xmlns:xlink="http://www.w3.org/1999/xlink" viewBox="0 0 32 32" version="1.1">
<g>
<path d="M 5 5 L 5 27 L 27 27 L 27 5 Z M 7 7 L 25 7 L 25 25 L 7 25 Z M 9.21875 7.78125 L 7.78125 9.21875 L 11.8125 13.25 C 11.476563 13 11.128906 12.691406 10.71875 12.28125 L 9.28125 13.71875 C 11.019531 15.449219 12.4375 16 13.59375 16 C 13.890625 16 14.171875 15.9375 14.4375 15.875 L 14.46875 15.875 L 15.625 17.0625 C 15.578125 17.09375 15.515625 17.125 15.46875 17.15625 C 14.0625 18.089844 13.148438 18.703125 10.71875 16.28125 L 9.28125 17.71875 C 11.015625 19.449219 12.4375 20 13.59375 20 C 14.824219 20 15.789063 19.347656 16.59375 18.8125 C 16.761719 18.703125 16.90625 18.597656 17.0625 18.5 L 17.09375 18.5 L 22.78125 24.21875 L 24.21875 22.78125 L 20.125 18.6875 C 20.480469 18.945313 20.839844 19.273438 21.28125 19.71875 L 22.71875 18.28125 C 20.53125 16.074219 18.871094 15.796875 17.5625 16.125 L 16.375 14.9375 C 16.441406 14.894531 16.53125 14.855469 16.59375 14.8125 C 17.988281 13.886719 18.886719 13.304688 21.28125 15.71875 L 22.71875 14.3125 C 19.167969 10.730469 17.023438 12.125 15.46875 13.15625 C 15.292969 13.273438 15.132813 13.398438 14.96875 13.5 L 14.9375 13.5 Z "></path>
</g>
</svg>
