<?xml version="1.0" encoding="UTF-8"?>
<svg xmlns="http://www.w3.org/2000/svg" xmlns:xlink="http://www.w3.org/1999/xlink" viewBox="0 0 32 32" version="1.1">
<g>
<path d="M 5 5 L 5 27 L 27 27 L 27 5 Z M 7 7 L 25 7 L 25 25 L 7 25 Z M 18.46875 11 C 17.179688 11 16.21875 11.65625 15.46875 12.15625 C 14.71875 12.65625 14.152344 13 13.5625 13 C 12.972656 13 12.125 12.679688 10.71875 11.28125 L 9.28125 12.71875 C 10.882813 14.316406 12.265625 15 13.5625 15 C 14.859375 15 15.808594 14.34375 16.5625 13.84375 C 17.316406 13.34375 17.890625 13 18.46875 13 C 19.046875 13 19.890625 13.316406 21.28125 14.71875 L 22.71875 13.28125 C 21.132813 11.683594 19.757813 11 18.46875 11 Z M 18.46875 17 C 17.179688 17 16.21875 17.65625 15.46875 18.15625 C 14.71875 18.65625 14.152344 19 13.5625 19 C 12.972656 19 12.125 18.679688 10.71875 17.28125 L 9.28125 18.71875 C 10.882813 20.316406 12.265625 21 13.5625 21 C 14.859375 21 15.808594 20.34375 16.5625 19.84375 C 17.316406 19.34375 17.890625 19 18.46875 19 C 19.046875 19 19.890625 19.316406 21.28125 20.71875 L 22.71875 19.28125 C 21.132813 17.683594 19.757813 17 18.46875 17 Z "></path>
</g>
</svg>
