<?xml version="1.0" encoding="UTF-8"?>
<svg xmlns="http://www.w3.org/2000/svg" xmlns:xlink="http://www.w3.org/1999/xlink" viewBox="0 0 32 32" version="1.1">
<g>
<path d="M 16 4 C 10.566406 4 6.21875 8.324219 6.0625 13.71875 C 4.875 14.410156 4 15.566406 4 17 C 4 18.59375 5.027344 19.808594 6.375 20.46875 C 7.511719 24.734375 11.355469 28 16 28 C 20.644531 28 24.488281 24.734375 25.625 20.46875 C 26.972656 19.808594 28 18.59375 28 17 C 28 15.566406 27.125 14.410156 25.9375 13.71875 C 25.78125 8.324219 21.433594 4 16 4 Z M 16 6 C 20.464844 6 24 9.535156 24 14 L 24 14.90625 L 24.6875 15.15625 C 25.492188 15.425781 26 16.109375 26 17 C 26 17.972656 25.429688 18.652344 24.5 18.9375 L 23.9375 19.125 L 23.8125 19.6875 C 23.011719 23.238281 19.820313 26 16 26 C 12.179688 26 8.988281 23.238281 8.1875 19.6875 L 8.0625 19.125 L 7.5 18.9375 C 6.570313 18.652344 6 17.972656 6 17 C 6 16.109375 6.507813 15.425781 7.3125 15.15625 L 8 14.90625 L 8 14 C 8 9.535156 11.535156 6 16 6 Z M 21.28125 12.28125 L 15 18.5625 L 11.71875 15.28125 L 10.28125 16.71875 L 14.28125 20.71875 L 15 21.40625 L 15.71875 20.71875 L 22.71875 13.71875 Z "></path>
</g>
</svg>
