<?xml version="1.0" encoding="UTF-8"?>
<svg xmlns="http://www.w3.org/2000/svg" xmlns:xlink="http://www.w3.org/1999/xlink" viewBox="0 0 32 32" version="1.1">
<g>
<path d="M 16 4 C 9.382813 4 4 9.382813 4 16 C 4 22.617188 9.382813 28 16 28 C 16.679688 28 17.347656 27.9375 18 27.828125 L 18 32 L 32 32 L 32 18 L 18 18 L 18 25.777344 C 17.351563 25.910156 16.6875 26 16 26 C 10.464844 26 6 21.535156 6 16 C 6 10.464844 10.464844 6 16 6 C 19.273438 6 22.15625 7.578125 23.980469 10 L 20 10 L 20 12 L 27 12 L 27 5 L 25 5 L 25 8.070313 C 22.800781 5.578125 19.582031 4 16 4 Z M 20 20 L 30 20 L 30 30 L 20 30 Z M 28 21.902344 L 24.699219 25.199219 L 22.402344 22.902344 L 21 24.300781 L 24.699219 28 L 29.402344 23.300781 Z "></path>
</g>
</svg>
