<?xml version="1.0" encoding="UTF-8"?>
<svg xmlns="http://www.w3.org/2000/svg" xmlns:xlink="http://www.w3.org/1999/xlink" viewBox="0 0 32 32" version="1.1">
<g>
<path d="M 20.5 11.0625 C 18.609375 11.058594 17.066406 11.5625 15.6875 12.0625 C 12.929688 13.0625 10.773438 14.007813 5.46875 11.125 L 4.53125 12.875 C 10.25 15.980469 13.617188 14.9375 16.375 13.9375 C 19.132813 12.9375 21.285156 11.988281 26.53125 14.875 L 27.46875 13.125 C 24.640625 11.566406 22.390625 11.066406 20.5 11.0625 Z M 20.5 17.0625 C 18.609375 17.058594 17.066406 17.5625 15.6875 18.0625 C 12.929688 19.0625 10.773438 20.007813 5.46875 17.125 L 4.53125 18.875 C 10.25 21.980469 13.617188 20.9375 16.375 19.9375 C 19.132813 18.9375 21.285156 17.988281 26.53125 20.875 L 27.46875 19.125 C 24.640625 17.566406 22.390625 17.066406 20.5 17.0625 Z "></path>
</g>
</svg>
