<?xml version="1.0" encoding="UTF-8"?>
<svg xmlns="http://www.w3.org/2000/svg" xmlns:xlink="http://www.w3.org/1999/xlink" viewBox="0 0 32 32" version="1.1">
<g>
<path d="M 14.71875 2.109375 L 13.808594 3.890625 C 13.808594 3.890625 14.007813 3.972656 14.324219 4.40625 C 14.480469 4.625 14.648438 4.914063 14.777344 5.304688 C 14.117188 5.085938 13.433594 4.976563 12.699219 4.976563 C 10.1875 4.976563 7.964844 6.441406 6.4375 8.628906 C 4.90625 10.816406 4 13.757813 4 16.988281 C 4 20.21875 4.90625 23.160156 6.4375 25.347656 C 7.964844 27.535156 10.1875 29 12.699219 29 C 13.890625 29 14.949219 28.734375 15.988281 28.097656 C 17.019531 28.667969 18.136719 29 19.300781 29 C 21.8125 29 24.035156 27.535156 25.5625 25.347656 C 27.09375 23.160156 28 20.21875 28 16.988281 C 28 13.757813 27.09375 10.816406 25.5625 8.628906 C 24.035156 6.441406 21.8125 4.976563 19.300781 4.976563 C 18.457031 4.976563 17.632813 5.148438 16.855469 5.460938 C 16.667969 4.5 16.320313 3.75 15.9375 3.226563 C 15.386719 2.472656 14.71875 2.109375 14.71875 2.109375 Z M 12.699219 6.976563 C 13.34375 6.976563 13.785156 7.039063 14.230469 7.203125 C 13.070313 8.292969 12.105469 9.683594 11.453125 11.238281 L 13.296875 12.011719 C 14.523438 9.089844 17.074219 6.976563 19.300781 6.976563 C 21.039063 6.976563 22.667969 7.976563 23.925781 9.773438 C 25.183594 11.570313 26 14.136719 26 16.988281 C 26 19.839844 25.183594 22.402344 23.925781 24.203125 C 22.667969 26 21.039063 27 19.300781 27 C 17.070313 27 14.523438 24.910156 13.296875 21.988281 L 11.453125 22.761719 C 12.101563 24.308594 13.066406 25.691406 14.21875 26.773438 C 13.78125 26.9375 13.339844 27 12.699219 27 C 10.960938 27 9.332031 26 8.074219 24.203125 C 6.816406 22.402344 6 19.839844 6 16.988281 C 6 14.136719 6.816406 11.570313 8.074219 9.773438 C 9.332031 7.976563 10.960938 6.976563 12.699219 6.976563 Z M 23 16.125 C 22.449219 16.125 22 16.574219 22 17.125 C 22 17.675781 22.449219 18.125 23 18.125 C 23.550781 18.125 24 17.675781 24 17.125 C 24 16.574219 23.550781 16.125 23 16.125 Z M 20 18 C 19.449219 18 19 18.449219 19 19 C 19 19.550781 19.449219 20 20 20 C 20.550781 20 21 19.550781 21 19 C 21 18.449219 20.550781 18 20 18 Z M 22 21 C 21.449219 21 21 21.449219 21 22 C 21 22.550781 21.449219 23 22 23 C 22.550781 23 23 22.550781 23 22 C 23 21.449219 22.550781 21 22 21 Z M 19 23 C 18.449219 23 18 23.449219 18 24 C 18 24.550781 18.449219 25 19 25 C 19.550781 25 20 24.550781 20 24 C 20 23.449219 19.550781 23 19 23 Z "></path>
</g>
</svg>
