<?xml version="1.0" encoding="UTF-8"?>
<svg xmlns="http://www.w3.org/2000/svg" xmlns:xlink="http://www.w3.org/1999/xlink" viewBox="0 0 32 32" version="1.1">
<g>
<path d="M 11 4 C 9.90625 4 9 4.90625 9 6 L 9 7.34375 C 6.003906 9.523438 4 13.015625 4 17 C 4 21.839844 6.890625 26.011719 11.03125 27.90625 L 11.21875 28 L 20.78125 28 L 20.96875 27.90625 C 25.109375 26.011719 28 21.839844 28 17 C 28 13.015625 25.996094 9.523438 23 7.34375 L 23 6 C 23 4.90625 22.09375 4 21 4 Z M 11 6 L 21 6 L 21 7 L 14 7 L 14 9 L 21.96875 9 C 24.410156 10.824219 26 13.710938 26 17 C 26 20.984375 23.671875 24.390625 20.3125 26 L 11.6875 26 C 8.328125 24.390625 6 20.984375 6 17 C 6 13.710938 7.589844 10.824219 10.03125 9 L 12 9 L 12 7 L 11 7 Z M 19.5 11 C 18.671875 11 18 11.671875 18 12.5 C 18 13.328125 18.671875 14 19.5 14 C 20.328125 14 21 13.328125 21 12.5 C 21 11.671875 20.328125 11 19.5 11 Z M 22 15 C 21.449219 15 21 15.449219 21 16 C 21 16.550781 21.449219 17 22 17 C 22.550781 17 23 16.550781 23 16 C 23 15.449219 22.550781 15 22 15 Z M 16 16 C 14.917969 16 13.117188 17.269531 12 18.15625 L 10.5625 17 C 10.5625 17 10 17.84375 10 19 C 10 20.15625 10.5625 21 10.5625 21 L 12 19.84375 C 13.117188 20.730469 14.917969 22 16 22 C 17.65625 22 19 20.65625 19 19 C 19 17.34375 17.65625 16 16 16 Z M 17 18 C 17.550781 18 18 18.449219 18 19 C 18 19.550781 17.550781 20 17 20 C 16.449219 20 16 19.550781 16 19 C 16 18.449219 16.449219 18 17 18 Z "></path>
</g>
</svg>
