<?xml version="1.0" encoding="UTF-8"?>
<svg xmlns="http://www.w3.org/2000/svg" xmlns:xlink="http://www.w3.org/1999/xlink" viewBox="0 0 32 32" version="1.1">
<g>
<path d="M 3 8 L 3 10 C 3.394531 10 3.597656 10.121094 3.875 10.375 C 4.152344 10.628906 4.425781 11.03125 4.75 11.53125 C 5.074219 12.03125 5.433594 12.628906 5.96875 13.125 C 6.503906 13.621094 7.28125 14 8.1875 14 C 9.09375 14 9.890625 13.617188 10.4375 13.125 C 10.984375 12.632813 11.351563 12.066406 11.6875 11.5625 C 12.023438 11.058594 12.316406 10.601563 12.59375 10.34375 C 12.871094 10.085938 13.058594 10 13.40625 10 C 13.800781 10 13.972656 10.121094 14.25 10.375 C 14.527344 10.628906 14.832031 11.03125 15.15625 11.53125 C 15.480469 12.03125 15.839844 12.628906 16.375 13.125 C 16.910156 13.621094 17.6875 14 18.59375 14 C 19.5 14 20.277344 13.621094 20.8125 13.125 C 21.347656 12.628906 21.707031 12.03125 22.03125 11.53125 C 22.355469 11.03125 22.660156 10.628906 22.9375 10.375 C 23.214844 10.121094 23.417969 10 23.8125 10 C 24.207031 10 24.378906 10.121094 24.65625 10.375 C 24.933594 10.628906 25.238281 11.03125 25.5625 11.53125 C 25.886719 12.03125 26.246094 12.628906 26.78125 13.125 C 27.316406 13.621094 28.09375 14 29 14 L 29 12 C 28.605469 12 28.402344 11.878906 28.125 11.625 C 27.847656 11.371094 27.574219 10.96875 27.25 10.46875 C 26.925781 9.96875 26.566406 9.371094 26.03125 8.875 C 25.496094 8.378906 24.71875 8 23.8125 8 C 22.90625 8 22.097656 8.378906 21.5625 8.875 C 21.027344 9.371094 20.699219 9.96875 20.375 10.46875 C 20.050781 10.96875 19.746094 11.371094 19.46875 11.625 C 19.191406 11.878906 18.988281 12 18.59375 12 C 18.199219 12 18.027344 11.878906 17.75 11.625 C 17.472656 11.371094 17.167969 10.96875 16.84375 10.46875 C 16.519531 9.96875 16.160156 9.371094 15.625 8.875 C 15.089844 8.378906 14.3125 8 13.40625 8 C 12.519531 8 11.742188 8.414063 11.21875 8.90625 C 10.695313 9.398438 10.363281 9.941406 10.03125 10.4375 C 9.699219 10.933594 9.382813 11.367188 9.09375 11.625 C 8.804688 11.882813 8.582031 12 8.1875 12 C 7.792969 12 7.621094 11.878906 7.34375 11.625 C 7.066406 11.371094 6.761719 10.96875 6.4375 10.46875 C 6.113281 9.96875 5.753906 9.371094 5.21875 8.875 C 4.683594 8.378906 3.90625 8 3 8 Z M 3 18 L 3 20 C 3.394531 20 3.597656 20.121094 3.875 20.375 C 4.152344 20.628906 4.425781 21.03125 4.75 21.53125 C 5.074219 22.03125 5.433594 22.628906 5.96875 23.125 C 6.503906 23.621094 7.28125 24 8.1875 24 C 9.09375 24 9.890625 23.617188 10.4375 23.125 C 10.984375 22.632813 11.351563 22.066406 11.6875 21.5625 C 12.023438 21.058594 12.316406 20.601563 12.59375 20.34375 C 12.871094 20.085938 13.058594 20 13.40625 20 C 13.800781 20 13.972656 20.121094 14.25 20.375 C 14.527344 20.628906 14.832031 21.03125 15.15625 21.53125 C 15.480469 22.03125 15.839844 22.628906 16.375 23.125 C 16.910156 23.621094 17.6875 24 18.59375 24 C 19.5 24 20.277344 23.621094 20.8125 23.125 C 21.347656 22.628906 21.707031 22.03125 22.03125 21.53125 C 22.355469 21.03125 22.660156 20.628906 22.9375 20.375 C 23.214844 20.121094 23.417969 20 23.8125 20 C 24.207031 20 24.378906 20.121094 24.65625 20.375 C 24.933594 20.628906 25.238281 21.03125 25.5625 21.53125 C 25.886719 22.03125 26.246094 22.628906 26.78125 23.125 C 27.316406 23.621094 28.09375 24 29 24 L 29 22 C 28.605469 22 28.402344 21.878906 28.125 21.625 C 27.847656 21.371094 27.574219 20.96875 27.25 20.46875 C 26.925781 19.96875 26.566406 19.371094 26.03125 18.875 C 25.496094 18.378906 24.71875 18 23.8125 18 C 22.90625 18 22.097656 18.378906 21.5625 18.875 C 21.027344 19.371094 20.699219 19.96875 20.375 20.46875 C 20.050781 20.96875 19.746094 21.371094 19.46875 21.625 C 19.191406 21.878906 18.988281 22 18.59375 22 C 18.199219 22 18.027344 21.878906 17.75 21.625 C 17.472656 21.371094 17.167969 20.96875 16.84375 20.46875 C 16.519531 19.96875 16.160156 19.371094 15.625 18.875 C 15.089844 18.378906 14.3125 18 13.40625 18 C 12.519531 18 11.742188 18.414063 11.21875 18.90625 C 10.695313 19.398438 10.363281 19.941406 10.03125 20.4375 C 9.699219 20.933594 9.382813 21.367188 9.09375 21.625 C 8.804688 21.882813 8.582031 22 8.1875 22 C 7.792969 22 7.621094 21.878906 7.34375 21.625 C 7.066406 21.371094 6.761719 20.96875 6.4375 20.46875 C 6.113281 19.96875 5.753906 19.371094 5.21875 18.875 C 4.683594 18.378906 3.90625 18 3 18 Z "></path>
</g>
</svg>
