<?xml version="1.0" encoding="UTF-8"?>
<svg xmlns="http://www.w3.org/2000/svg" xmlns:xlink="http://www.w3.org/1999/xlink" viewBox="0 0 32 32" version="1.1">
<g>
<path d="M 6 3 L 6 29 L 26 29 L 26 13.4375 L 27.71875 11.71875 L 28 11.40625 L 28 3 Z M 8 5 L 15 5 L 15 6 L 17 6 L 17 5 L 22 5 L 22 11.40625 L 22.28125 11.71875 L 24 13.4375 L 24 27 L 8 27 Z M 24 5 L 26 5 L 26 10.5625 L 25 11.5625 L 24 10.5625 Z M 15 7 L 15 9 L 17 9 L 17 7 Z M 15 10 L 15 12 L 17 12 L 17 10 Z M 15 13 L 15 15 L 17 15 L 17 13 Z M 15.0625 16 L 14.78125 16.5 C 14.78125 16.5 14.367188 17.257813 13.9375 18.15625 C 13.722656 18.605469 13.484375 19.085938 13.3125 19.5625 C 13.140625 20.039063 13 20.476563 13 21 C 13 22.644531 14.355469 24 16 24 C 17.644531 24 19 22.644531 19 21 C 19 20.472656 18.859375 20.117188 18.6875 19.65625 C 18.515625 19.195313 18.308594 18.707031 18.09375 18.25 C 17.667969 17.335938 17.21875 16.53125 17.21875 16.53125 L 16.9375 16 Z M 16 18.53125 C 16.121094 18.777344 16.144531 18.796875 16.28125 19.09375 C 16.480469 19.523438 16.671875 19.96875 16.8125 20.34375 C 16.953125 20.71875 17 21.070313 17 21 C 17 21.566406 16.566406 22 16 22 C 15.433594 22 15 21.566406 15 21 C 15 20.972656 15.050781 20.628906 15.1875 20.25 C 15.324219 19.871094 15.519531 19.445313 15.71875 19.03125 C 15.847656 18.757813 15.882813 18.753906 16 18.53125 Z "></path>
</g>
</svg>
