<?xml version="1.0" encoding="UTF-8"?>
<svg xmlns="http://www.w3.org/2000/svg" xmlns:xlink="http://www.w3.org/1999/xlink" viewBox="0 0 32 32" version="1.1">
<g>
<path d="M 11 4 L 11 6 L 21 6 L 21 4 Z M 12 7 L 12 10.15625 C 9.628906 11.542969 8 14.0625 8 17 C 8 19.324219 9.085938 21.675781 10.125 23.5 C 11.164063 25.324219 12.21875 26.625 12.21875 26.625 L 12.53125 27 L 19.46875 27 L 19.78125 26.625 C 19.78125 26.625 20.832031 25.316406 21.875 23.5 C 22.917969 21.683594 24 19.351563 24 17 C 24 14.0625 22.371094 11.542969 20 10.15625 L 20 7 L 18 7 L 18 11.3125 L 18.5625 11.59375 C 20.589844 12.558594 22 14.601563 22 17 C 22 18.691406 21.082031 20.859375 20.125 22.53125 C 19.292969 23.984375 18.671875 24.738281 18.46875 25 L 13.53125 25 C 13.328125 24.738281 12.710938 23.960938 11.875 22.5 C 10.914063 20.816406 10 18.65625 10 17 C 10 15.628906 10.476563 14.378906 11.25 13.375 L 13.5625 15.3125 L 12.0625 17.84375 L 11.65625 18.5625 L 12.28125 19.09375 L 15.34375 21.78125 L 16.65625 20.25 L 14.21875 18.125 L 15.6875 15.59375 L 16.125 14.84375 L 15.46875 14.3125 L 12.71875 12 C 12.953125 11.847656 13.183594 11.714844 13.4375 11.59375 L 14 11.3125 L 14 7 Z "></path>
</g>
</svg>
