<?xml version="1.0" encoding="UTF-8"?>
<svg xmlns="http://www.w3.org/2000/svg" xmlns:xlink="http://www.w3.org/1999/xlink" viewBox="0 0 32 32" version="1.1">
<g>
<path d="M 7.84375 9 C 4.039063 9 1 12.128906 1 16 C 1 19.871094 4.039063 23 7.84375 23 C 10.605469 23 12.824219 21.28125 14.375 19.6875 C 15.046875 18.996094 15.582031 18.339844 16 17.78125 C 16.417969 18.339844 16.953125 18.996094 17.625 19.6875 C 19.175781 21.28125 21.394531 23 24.15625 23 C 27.960938 23 31 19.871094 31 16 C 31 12.128906 27.960938 9 24.15625 9 C 21.394531 9 19.175781 10.71875 17.625 12.3125 C 16.953125 13.003906 16.417969 13.660156 16 14.21875 C 15.597656 13.660156 15.097656 13 14.4375 12.3125 C 12.898438 10.714844 10.652344 9 7.84375 9 Z M 7.84375 11 C 9.816406 11 11.652344 12.285156 13 13.6875 C 14.109375 14.839844 14.523438 15.628906 14.75 16 C 14.519531 16.371094 14.0625 17.15625 12.9375 18.3125 C 11.570313 19.71875 9.75 21 7.84375 21 C 5.117188 21 3 18.851563 3 16 C 3 13.148438 5.117188 11 7.84375 11 Z M 24.15625 11 C 26.882813 11 29 13.148438 29 16 C 29 18.851563 26.882813 21 24.15625 21 C 22.25 21 20.429688 19.71875 19.0625 18.3125 C 17.9375 17.15625 17.480469 16.371094 17.25 16 C 17.480469 15.628906 17.9375 14.84375 19.0625 13.6875 C 20.429688 12.28125 22.25 11 24.15625 11 Z M 23 13 L 23 15 L 21 15 L 21 17 L 23 17 L 23 19 L 25 19 L 25 17 L 27 17 L 27 15 L 25 15 L 25 13 Z M 5 15 L 5 17 L 11 17 L 11 15 Z "></path>
</g>
</svg>
