<?xml version="1.0" encoding="UTF-8"?>
<svg xmlns="http://www.w3.org/2000/svg" xmlns:xlink="http://www.w3.org/1999/xlink" viewBox="0 0 32 32" version="1.1">
<g>
<path d="M 16.28125 5 C 16.109375 5.007813 15.929688 5.027344 15.75 5.0625 C 15.03125 5.207031 14.277344 5.566406 13.40625 6.1875 L 14.59375 7.8125 C 15.316406 7.296875 15.8125 7.101563 16.15625 7.03125 C 16.5 6.960938 16.703125 6.992188 17 7.09375 C 17.589844 7.300781 18.519531 8 20 8 L 20 6 C 19.179688 6 18.691406 5.582031 17.65625 5.21875 C 17.269531 5.082031 16.796875 4.980469 16.28125 5 Z M 8.6875 6.03125 C 8.367188 6.027344 8.019531 6.082031 7.6875 6.21875 C 7.019531 6.492188 6.417969 7.019531 5.8125 7.8125 L 7.40625 9.03125 C 7.886719 8.398438 8.253906 8.167969 8.4375 8.09375 C 8.621094 8.019531 8.707031 8.007813 8.96875 8.09375 C 9.496094 8.261719 10.496094 9 12 9 L 12 7 C 11.199219 7 10.605469 6.519531 9.5625 6.1875 C 9.300781 6.105469 9.007813 6.035156 8.6875 6.03125 Z M 23.21875 7.03125 C 23.058594 7.039063 22.886719 7.054688 22.71875 7.09375 C 22.054688 7.257813 21.441406 7.664063 20.84375 8.3125 L 22.3125 9.6875 C 22.738281 9.226563 23 9.078125 23.1875 9.03125 C 23.375 8.984375 23.558594 9.019531 23.875 9.125 C 24.503906 9.339844 25.527344 10 27 10 L 27 8 C 26.171875 8 25.5 7.558594 24.5 7.21875 C 24.125 7.089844 23.695313 7.003906 23.21875 7.03125 Z M 16 10 C 11.664063 10 8.734375 11.035156 6.875 12.125 C 5.015625 13.214844 4.15625 14.4375 4.15625 14.4375 L 4 14.6875 L 4 27 L 15 27 L 15 22 L 17 22 L 17 27 L 28 27 L 28 14.6875 L 27.84375 14.4375 C 27.84375 14.4375 26.984375 13.214844 25.125 12.125 C 23.265625 11.035156 20.335938 10 16 10 Z M 16 12 C 20.019531 12 22.574219 12.964844 24.125 13.875 C 25.558594 14.714844 25.929688 15.332031 26 15.4375 L 26 25 L 19 25 L 19 20 L 13 20 L 13 25 L 6 25 L 6 15.4375 C 6.070313 15.332031 6.441406 14.714844 7.875 13.875 C 9.425781 12.964844 11.980469 12 16 12 Z M 9 16 L 9 18 L 11 18 L 11 16 Z M 13 16 L 13 18 L 15 18 L 15 16 Z M 17 16 L 17 18 L 19 18 L 19 16 Z M 21 16 L 21 18 L 23 18 L 23 16 Z M 9 20 L 9 22 L 11 22 L 11 20 Z M 21 20 L 21 22 L 23 22 L 23 20 Z "></path>
</g>
</svg>
