<?xml version="1.0" encoding="UTF-8"?>
<svg xmlns="http://www.w3.org/2000/svg" xmlns:xlink="http://www.w3.org/1999/xlink" viewBox="0 0 32 32" version="1.1">
<g>
<path d="M 19 4 C 13.46875 4 6.59375 7.09375 6.59375 7.09375 L 6 7.34375 L 6 8 C 6 14.625 5.566406 16.707031 5.125 17.5 L 4.625 18.40625 L 5.5625 18.875 L 9 20.625 L 9 21 C 9 22.644531 10.355469 24 12 24 C 13.644531 24 15 22.644531 15 21 L 15 20.625 L 19.25 18.625 L 20.34375 18.125 L 19.625 17.125 C 19.625 17.125 19 16.175781 19 15.46875 C 19 13.09375 20 5.125 20 5.125 L 20.125 4 Z M 17.875 6.125 C 17.691406 7.574219 17 12.925781 17 15.46875 C 17 16.199219 17.214844 16.785156 17.4375 17.28125 L 13.5625 19.09375 L 13 19.375 L 13 21 C 13 21.5625 12.5625 22 12 22 C 11.4375 22 11 21.5625 11 21 L 11 19.375 L 10.4375 19.09375 L 7.15625 17.4375 C 7.300781 17.042969 7.425781 16.558594 7.53125 16 L 10 16 L 10 14 L 7.78125 14 C 7.832031 13.402344 7.875 12.769531 7.90625 12 L 10 12 L 10 10 L 7.9375 10 C 7.945313 9.550781 7.964844 9.1875 7.96875 8.6875 C 8.761719 8.359375 13.585938 6.464844 17.875 6.125 Z M 20.8125 19.53125 L 18.0625 20.84375 L 21.125 21.6875 C 20.25 22.683594 19.316406 24.121094 19.0625 26 L 7.3125 26 C 7.167969 25.496094 7 24.660156 7 23.5 C 7 22.777344 7.128906 22.070313 7.28125 21.4375 L 5.4375 20.5 C 5.199219 21.355469 5 22.410156 5 23.5 C 5 25.980469 5.644531 27.324219 5.71875 27.46875 L 6 28 L 28.25 28 L 27.375 24 L 27.34375 23.90625 C 26.757813 22.148438 25.347656 20.777344 23.5625 20.28125 Z M 23.3125 22.3125 C 24.304688 22.679688 25.085938 23.460938 25.4375 24.46875 L 25.75 26 L 21.09375 26 C 21.4375 24.242188 22.597656 22.957031 23.3125 22.3125 Z "></path>
</g>
</svg>
