<?xml version="1.0" encoding="UTF-8"?>
<svg xmlns="http://www.w3.org/2000/svg" xmlns:xlink="http://www.w3.org/1999/xlink" viewBox="0 0 32 32" version="1.1">
<g>
<path d="M 12.59375 4 L 12.34375 4.1875 L 11.125 5 C 7.003906 5.183594 5.125 8.53125 5.125 8.53125 L 4.75 9.21875 L 5.34375 9.75 C 5.441406 9.839844 5.527344 9.9375 5.625 10.03125 C 4.933594 10.917969 4 12.53125 4 14.6875 L 4 15.09375 L 4.28125 15.375 C 4.28125 15.375 4.746094 15.859375 5.53125 16.25 C 6.148438 16.558594 7.019531 16.828125 8.09375 16.9375 C 8.285156 19.03125 8.722656 20.46875 8.9375 21.03125 L 8.03125 24.40625 L 7.875 24.96875 L 8.3125 25.40625 C 8.3125 25.40625 11.113281 28 16 28 C 20.886719 28 23.6875 25.40625 23.6875 25.40625 L 24.125 24.96875 L 23.96875 24.40625 L 23.0625 21.0625 C 23.242188 20.578125 23.710938 19.101563 23.90625 16.9375 C 24.980469 16.828125 25.851563 16.558594 26.46875 16.25 C 27.253906 15.859375 27.71875 15.375 27.71875 15.375 L 28 15.09375 L 28 14.6875 C 28 12.53125 27.066406 10.917969 26.375 10.03125 C 26.472656 9.9375 26.558594 9.839844 26.65625 9.75 L 27.25 9.21875 L 26.875 8.53125 C 26.875 8.53125 24.996094 5.183594 20.875 5 L 19.65625 4.1875 L 19.40625 4 L 18.40625 4 L 18.125 4.53125 C 18.125 4.53125 17.269531 6 16 6 C 14.730469 6 13.875 4.53125 13.875 4.53125 L 13.59375 4 Z M 12.75 6.3125 C 13.316406 7.0625 14.25 8 16 8 C 17.75 8 18.683594 7.0625 19.25 6.3125 L 19.375 6.40625 C 19.347656 6.585938 19.417969 6.667969 19.125 7.15625 C 18.707031 7.855469 17.769531 8.753906 16 9.5625 C 14.230469 8.761719 13.292969 7.855469 12.875 7.15625 C 12.582031 6.667969 12.652344 6.585938 12.625 6.40625 Z M 10.5625 7.0625 C 10.589844 7.058594 10.625 7.066406 10.65625 7.0625 C 10.757813 7.402344 10.910156 7.777344 11.15625 8.1875 C 11.503906 8.765625 12.007813 9.390625 12.75 10 C 12.410156 10.679688 11.910156 11.121094 11.3125 11.4375 C 10.695313 11.765625 10.054688 11.820313 9.5 11.875 C 8.941406 10.839844 8.191406 9.867188 7.3125 8.96875 C 7.695313 8.40625 8.582031 7.324219 10.5625 7.0625 Z M 21.34375 7.0625 C 23.386719 7.304688 24.296875 8.394531 24.6875 8.96875 C 23.808594 9.867188 23.058594 10.839844 22.5 11.875 C 21.945313 11.820313 21.304688 11.765625 20.6875 11.4375 C 20.089844 11.121094 19.589844 10.679688 19.25 10 C 19.996094 9.390625 20.496094 8.765625 20.84375 8.1875 C 21.089844 7.777344 21.242188 7.402344 21.34375 7.0625 Z M 14.4375 11.09375 C 14.804688 11.289063 15.191406 11.480469 15.625 11.65625 L 16 11.78125 L 16.375 11.65625 C 16.808594 11.480469 17.195313 11.289063 17.5625 11.09375 C 18.117188 12.058594 18.921875 12.75 19.75 13.1875 C 20.488281 13.578125 21.226563 13.796875 21.90625 13.90625 C 22.277344 17.3125 21.253906 20.042969 21.125 20.375 C 20.878906 20.585938 19.203125 22 16 22 C 12.75 22 11.042969 20.519531 10.84375 20.34375 C 10.707031 20.011719 9.691406 17.386719 10.09375 13.90625 C 10.773438 13.796875 11.511719 13.578125 12.25 13.1875 C 13.078125 12.75 13.882813 12.058594 14.4375 11.09375 Z M 7 11.5625 C 7.460938 12.179688 7.828125 12.808594 8.09375 13.40625 L 8.125 13.5 C 8.066406 13.980469 8.015625 14.453125 8 14.90625 C 7.335938 14.800781 6.808594 14.621094 6.4375 14.4375 C 6.15625 14.296875 6.171875 14.269531 6.0625 14.1875 C 6.175781 13.035156 6.609375 12.152344 7 11.5625 Z M 25 11.5625 C 25.390625 12.152344 25.824219 13.035156 25.9375 14.1875 C 25.828125 14.269531 25.84375 14.296875 25.5625 14.4375 C 25.1875 14.625 24.648438 14.800781 23.96875 14.90625 C 23.957031 14.457031 23.898438 14 23.84375 13.53125 L 23.90625 13.40625 C 24.171875 12.808594 24.539063 12.179688 25 11.5625 Z M 10.59375 22.59375 C 11.734375 23.230469 13.578125 24 16 24 C 18.421875 24 20.265625 23.230469 21.40625 22.59375 L 21.84375 24.25 C 21.3125 24.691406 19.578125 26 16 26 C 12.421875 26 10.6875 24.691406 10.15625 24.25 Z "></path>
</g>
</svg>
