<?xml version="1.0" encoding="UTF-8"?>
<svg xmlns="http://www.w3.org/2000/svg" xmlns:xlink="http://www.w3.org/1999/xlink" viewBox="0 0 32 32" version="1.1">
<g>
<path d="M 16 2 C 14.617188 2 13.46875 2.96875 13.125 4.25 C 12.773438 4.105469 12.402344 4 12 4 C 10.355469 4 9 5.355469 9 7 L 9 14.75 L 8.125 13.875 C 6.960938 12.710938 5.039063 12.710938 3.875 13.875 C 2.710938 15.039063 2.710938 16.960938 3.875 18.125 L 9.71875 23.9375 L 9.03125 26.65625 L 9 26.78125 L 9 28 L 10 28 C 13.667969 28 17 29.875 17 29.875 L 17.5 30.15625 L 18 29.875 C 18 29.875 21.371094 28 25 28 L 26 28 L 26 26.78125 L 25.96875 26.65625 L 25.375 24.3125 C 26.339844 23.113281 27 21.65625 27 20 L 27 10 C 27 8.355469 25.644531 7 24 7 C 23.648438 7 23.316406 7.074219 23 7.1875 L 23 7 C 23 5.355469 21.644531 4 20 4 C 19.597656 4 19.226563 4.105469 18.875 4.25 C 18.53125 2.96875 17.382813 2 16 2 Z M 16 4 C 16.566406 4 17 4.433594 17 5 L 16 5 L 16 7 L 17 7 L 17 9 L 16 9 L 16 11 L 17 11 L 17 13 L 16 13 L 16 15 L 19 15 L 19 7 C 19 6.433594 19.433594 6 20 6 C 20.566406 6 21 6.433594 21 7 L 21 9 L 20 9 L 20 11 L 21 11 L 21 13 L 20 13 L 20 15 L 23 15 L 23 10 C 23 9.433594 23.433594 9 24 9 C 24.566406 9 25 9.433594 25 10 L 24 10 L 24 12 L 25 12 L 25 13 L 24 13 L 24 15 L 25 15 L 25 16 C 24.449219 16 24 16.449219 24 17 C 24 17.550781 24.449219 18 25 18 L 25 20 C 25 21.351563 24.464844 22.566406 23.59375 23.46875 L 23.21875 23.875 L 23.34375 24.40625 L 23.78125 26.125 C 20.472656 26.429688 18.082031 27.589844 17.5 27.90625 C 16.914063 27.585938 14.539063 26.429688 11.21875 26.125 L 11.78125 23.875 L 11.9375 23.3125 L 11.53125 22.90625 L 5.28125 16.71875 C 4.882813 16.320313 4.882813 15.679688 5.28125 15.28125 C 5.679688 14.882813 6.320313 14.882813 6.71875 15.28125 L 6.78125 15.375 L 11 19.59375 L 11 7 C 11 6.433594 11.433594 6 12 6 C 12.566406 6 13 6.433594 13 7 L 13 9 L 12 9 L 12 11 L 13 11 L 13 13 L 12 13 L 12 15 L 15 15 L 15 5 C 15 4.433594 15.433594 4 16 4 Z M 13 16 C 12.449219 16 12 16.449219 12 17 C 12 17.550781 12.449219 18 13 18 C 13.550781 18 14 17.550781 14 17 C 14 16.449219 13.550781 16 13 16 Z M 17 16 C 16.449219 16 16 16.449219 16 17 C 16 17.550781 16.449219 18 17 18 C 17.550781 18 18 17.550781 18 17 C 18 16.449219 17.550781 16 17 16 Z M 21 16 C 20.449219 16 20 16.449219 20 17 C 20 17.550781 20.449219 18 21 18 C 21.550781 18 22 17.550781 22 17 C 22 16.449219 21.550781 16 21 16 Z "></path>
</g>
</svg>
