<?xml version="1.0" encoding="UTF-8"?>
<svg xmlns="http://www.w3.org/2000/svg" xmlns:xlink="http://www.w3.org/1999/xlink" viewBox="0 0 32 32" version="1.1">
<g>
<path d="M 20 3 L 20 5 C 20.359375 5 21.132813 5.191406 21.75 5.65625 C 22.367188 6.121094 22.890625 6.816406 23 8.09375 L 23.09375 9 L 24 9 C 24.3125 9 25.238281 9.222656 25.625 9.59375 C 25.820313 9.78125 25.914063 9.976563 25.9375 10.28125 C 25.960938 10.585938 25.867188 11.039063 25.46875 11.75 L 27.21875 12.75 C 27.75 11.800781 28 10.929688 27.9375 10.125 C 27.875 9.320313 27.480469 8.621094 27 8.15625 C 26.292969 7.476563 25.507813 7.242188 24.78125 7.125 C 24.46875 5.765625 23.8125 4.699219 22.96875 4.0625 C 21.957031 3.296875 20.863281 3 20 3 Z M 15.71875 3.3125 C 15.71875 3.3125 15.285156 3.785156 14.875 4.4375 C 14.464844 5.089844 14 5.953125 14 7 C 14 8.359375 14.75 9.433594 15.6875 9.875 C 16.625 10.316406 17.601563 10.359375 18.53125 10.4375 C 19.460938 10.515625 20.324219 10.601563 20.90625 10.875 C 21.488281 11.148438 21.847656 11.492188 22.0625 12.46875 L 24.03125 12.03125 C 23.707031 10.558594 22.777344 9.578125 21.75 9.09375 C 20.722656 8.609375 19.636719 8.515625 18.6875 8.4375 C 17.738281 8.359375 16.933594 8.25 16.53125 8.0625 C 16.128906 7.875 16 7.828125 16 7 C 16 6.628906 16.25 5.992188 16.5625 5.5 C 16.875 5.007813 17.1875 4.6875 17.1875 4.6875 Z M 25.0625 13.4375 L 24.90625 13.46875 L 24.28125 13.5625 L 24.15625 13.5625 L 24.0625 13.625 L 23.96875 13.65625 L 24.46875 14.9375 L 24.5625 15.53125 L 24.6875 15.5 L 25.03125 15.46875 L 25.0625 15.46875 L 25.1875 15.4375 L 25.125 15.03125 L 25.40625 13.5 L 25.21875 13.46875 Z M 26.625 13.96875 L 25.5625 15.65625 L 25.8125 15.8125 L 25.84375 15.84375 L 25.90625 15.875 L 26.21875 16.125 L 27.4375 14.53125 L 27.0625 14.25 L 27 14.21875 L 26.96875 14.1875 Z M 23 14.09375 L 22.6875 14.28125 L 22.65625 14.3125 L 22.625 14.3125 L 22.15625 14.625 L 23.28125 16.28125 L 23.65625 16.03125 L 24 15.84375 Z M 21.75 14.90625 C 21.707031 14.9375 21.664063 14.964844 21.625 15 C 21.605469 15.019531 21.589844 15.042969 21.5625 15.0625 L 11.0625 22.40625 L 12.625 23.75 L 22.6875 16.6875 C 22.722656 16.664063 22.753906 16.644531 22.78125 16.625 C 22.820313 16.597656 22.859375 16.5625 22.90625 16.53125 Z M 27.90625 14.96875 L 26.5 16.40625 C 26.605469 16.507813 26.65625 16.53125 26.65625 16.53125 L 28.125 15.1875 C 28.125 15.1875 28.046875 15.101563 27.90625 14.96875 Z M 5.40625 20.25 L 4.09375 21.75 L 7.65625 24.78125 L 4.0625 27.3125 L 5.21875 28.96875 L 9.25 26.125 L 12.34375 28.75 L 12.625 29 L 28 29 L 28 27 L 13.375 27 L 10.9375 24.9375 L 10.78125 24.78125 Z "></path>
</g>
</svg>
