<?xml version="1.0" encoding="UTF-8"?>
<svg xmlns="http://www.w3.org/2000/svg" xmlns:xlink="http://www.w3.org/1999/xlink" viewBox="0 0 32 32" version="1.1">
<g>
<path d="M 6 3 L 6 10 L 8 10 L 8 5 L 24 5 L 24 10 L 26 10 L 26 3 Z M 9.15625 12 L 8.9375 12.6875 L 7.03125 18.6875 L 7 18.84375 L 7 20 L 9 20 L 9 19.21875 L 9.0625 19 L 10.9375 19 L 11 19.21875 L 11 20 L 13 20 L 13 18.84375 L 12.96875 18.6875 L 11.0625 12.6875 L 10.84375 12 Z M 16.5 12 C 15.117188 12 14 13.117188 14 14.5 C 14 15.882813 15.117188 17 16.5 17 C 16.714844 17 17 17.285156 17 17.5 C 17 17.800781 16.882813 18 16.5 18 C 16.132813 18 16.074219 17.921875 16.0625 17.90625 C 16.050781 17.890625 16 17.828125 16 17.59375 L 14 17.59375 C 14 18.160156 14.164063 18.796875 14.625 19.28125 C 15.085938 19.765625 15.769531 20 16.5 20 C 17.917969 20 19 18.800781 19 17.5 C 19 16.117188 17.882813 15 16.5 15 C 16.285156 15 16 14.714844 16 14.5 C 16 14.285156 16.285156 14 16.5 14 C 16.765625 14 16.847656 14.0625 16.90625 14.125 C 16.964844 14.1875 17 14.292969 17 14.40625 L 19 14.40625 C 19 13.816406 18.785156 13.214844 18.34375 12.75 C 17.902344 12.285156 17.234375 12 16.5 12 Z M 22.5 12 C 21.117188 12 20 13.117188 20 14.5 L 20 17.5 C 20 18.882813 21.117188 20 22.5 20 C 23.882813 20 25 18.882813 25 17.5 L 25 17 L 23 17 L 23 17.5 C 23 17.714844 22.714844 18 22.5 18 C 22.285156 18 22 17.714844 22 17.5 L 22 14.5 C 22 14.285156 22.285156 14 22.5 14 C 22.714844 14 23 14.285156 23 14.5 L 23 15 L 25 15 L 25 14.5 C 25 13.117188 23.882813 12 22.5 12 Z M 10 16 L 10.3125 17 L 9.6875 17 Z M 6 22 L 6 29 L 26 29 L 26 22 L 24 22 L 24 27 L 8 27 L 8 22 Z "></path>
</g>
</svg>
