<?xml version="1.0" encoding="UTF-8"?>
<svg xmlns="http://www.w3.org/2000/svg" xmlns:xlink="http://www.w3.org/1999/xlink" viewBox="0 0 32 32" version="1.1">
<g>
<path d="M 10.75 3 C 9.265625 3 7.960938 4.09375 7.75 5.5625 L 7.15625 9.71875 C 7.023438 10.65625 7.203125 11.625 7.625 12.46875 C 7.859375 12.933594 7.9375 13.453125 7.875 13.96875 C 7.738281 15.089844 7.527344 16.882813 7.34375 18.5 C 7.253906 19.308594 7.15625 20.078125 7.09375 20.6875 C 7.03125 21.296875 7 21.683594 7 22 C 7 25.859375 10.292969 29 15 29 C 19.148438 29 21.59375 27.027344 22.5625 24.4375 C 22.65625 24.191406 22.71875 23.953125 22.84375 23.5 C 22.96875 23.046875 23.109375 22.460938 23.28125 21.8125 C 23.621094 20.511719 24.019531 18.964844 24.34375 17.6875 C 24.804688 15.878906 24.523438 13.945313 23.5625 12.34375 L 22.03125 9.8125 L 22.65625 6.46875 L 22.65625 6.4375 C 22.910156 4.648438 21.496094 3 19.6875 3 Z M 10.75 5 L 12 5 L 12 8.75 C 12 9.132813 11.777344 9.484375 11.4375 9.65625 L 9.15625 10.8125 C 9.113281 10.546875 9.117188 10.265625 9.15625 10 L 9.75 5.84375 C 9.820313 5.34375 10.246094 5 10.75 5 Z M 14 5 L 17.5 5 L 17.03125 7.03125 C 16.871094 7.75 17.128906 8.492188 17.6875 8.96875 L 20.875 11.75 L 21.84375 13.375 C 22.53125 14.519531 22.738281 15.894531 22.40625 17.1875 C 22.082031 18.460938 21.683594 20.019531 21.34375 21.3125 C 21.175781 21.957031 21.027344 22.527344 20.90625 22.96875 C 20.785156 23.410156 20.675781 23.785156 20.6875 23.75 C 19.953125 25.714844 18.589844 27 15 27 C 11.128906 27 9 24.769531 9 22 C 9 21.964844 9.035156 21.46875 9.09375 20.875 C 9.152344 20.28125 9.222656 19.523438 9.3125 18.71875 C 9.496094 17.113281 9.738281 15.335938 9.875 14.21875 C 9.933594 13.722656 9.914063 13.207031 9.8125 12.71875 L 12.3125 11.46875 L 12.34375 11.4375 C 13.359375 10.929688 14 9.882813 14 8.75 Z M 19.53125 5 L 19.6875 5 C 20.292969 5 20.734375 5.503906 20.6875 6.09375 C 20.6875 6.117188 20.691406 6.132813 20.6875 6.15625 L 20.25 8.5625 L 18.96875 7.46875 Z M 16.125 12.90625 C 14.339844 12.90625 13.058594 13.613281 12.3125 14.46875 C 11.566406 15.324219 11.328125 16.253906 11.25 16.78125 C 11.183594 17.214844 11.066406 18.148438 10.96875 19.0625 C 10.917969 19.519531 10.878906 19.96875 10.84375 20.3125 C 10.8125 20.628906 10.789063 20.789063 10.78125 20.96875 C 10.78125 20.980469 10.78125 20.988281 10.78125 21 C 10.78125 21.007813 10.78125 21.023438 10.78125 21.03125 C 10.691406 22.226563 11.011719 23.324219 11.8125 24.03125 C 12.628906 24.75 13.734375 25 15 25 C 16.21875 25 17.101563 24.871094 17.8125 24.375 C 18.511719 23.890625 18.832031 23.128906 19.03125 22.4375 C 19.03125 22.429688 19.023438 22.410156 19.03125 22.40625 C 19.085938 22.226563 19.113281 22.128906 19.28125 21.4375 C 19.453125 20.726563 19.765625 19.421875 20.375 17.03125 C 20.496094 16.554688 20.496094 16.101563 20.40625 15.65625 C 20.316406 15.210938 20.191406 14.765625 19.78125 14.375 C 19.441406 14.050781 18.9375 13.625 18.9375 13.625 C 18.628906 13.347656 18.402344 13.296875 18.15625 13.21875 C 17.910156 13.140625 17.65625 13.105469 17.40625 13.0625 C 16.90625 12.972656 16.46875 12.90625 16.125 12.90625 Z M 16.125 14.90625 C 16.195313 14.90625 16.671875 14.960938 17.0625 15.03125 C 17.257813 15.066406 17.4375 15.085938 17.5625 15.125 C 17.625 15.144531 17.675781 15.175781 17.6875 15.1875 C 17.757813 15.253906 18.121094 15.605469 18.375 15.84375 C 18.347656 15.824219 18.40625 15.882813 18.4375 16.03125 C 18.472656 16.203125 18.464844 16.421875 18.4375 16.53125 C 17.824219 18.925781 17.519531 20.246094 17.34375 20.96875 C 17.167969 21.691406 17.117188 21.867188 17.125 21.84375 L 17.125 21.875 C 16.964844 22.4375 16.863281 22.597656 16.6875 22.71875 C 16.511719 22.839844 16.042969 23 15 23 C 14.003906 23 13.398438 22.773438 13.125 22.53125 C 12.851563 22.289063 12.707031 21.980469 12.78125 21.15625 L 12.78125 21.09375 C 12.777344 21.160156 12.808594 20.839844 12.84375 20.5 C 12.878906 20.160156 12.921875 19.734375 12.96875 19.28125 C 13.066406 18.378906 13.171875 17.375 13.21875 17.0625 C 13.253906 16.84375 13.410156 16.242188 13.8125 15.78125 C 14.214844 15.320313 14.832031 14.90625 16.125 14.90625 Z "></path>
</g>
</svg>
