<?xml version="1.0" encoding="UTF-8"?>
<svg xmlns="http://www.w3.org/2000/svg" xmlns:xlink="http://www.w3.org/1999/xlink" viewBox="0 0 32 32" version="1.1">
<g>
<path d="M 0 7 L 0 25 L 32 25 L 32 7 Z M 2 9 L 30 9 L 30 23 L 2 23 Z M 9.15625 12 L 8.9375 12.6875 L 7.03125 18.6875 L 7 18.84375 L 7 20 L 9 20 L 9 19.21875 L 9.0625 19 L 10.9375 19 L 11 19.21875 L 11 20 L 13 20 L 13 18.84375 L 12.96875 18.6875 L 11.0625 12.6875 L 10.84375 12 Z M 16.5 12 C 15.117188 12 14 13.117188 14 14.5 C 14 15.882813 15.117188 17 16.5 17 C 16.714844 17 17 17.285156 17 17.5 C 17 17.800781 16.882813 18 16.5 18 C 16.132813 18 16.074219 17.921875 16.0625 17.90625 C 16.050781 17.890625 16 17.828125 16 17.59375 L 14 17.59375 C 14 18.160156 14.164063 18.796875 14.625 19.28125 C 15.085938 19.765625 15.769531 20 16.5 20 C 17.917969 20 19 18.800781 19 17.5 C 19 16.117188 17.882813 15 16.5 15 C 16.285156 15 16 14.714844 16 14.5 C 16 14.285156 16.285156 14 16.5 14 C 16.765625 14 16.847656 14.0625 16.90625 14.125 C 16.964844 14.1875 17 14.292969 17 14.40625 L 19 14.40625 C 19 13.816406 18.785156 13.214844 18.34375 12.75 C 17.902344 12.285156 17.234375 12 16.5 12 Z M 20 12 L 20 20 L 22 20 L 22 18 C 23.644531 18 25 16.644531 25 15 C 25 13.355469 23.644531 12 22 12 Z M 22 14 C 22.554688 14 23 14.445313 23 15 C 23 15.554688 22.554688 16 22 16 Z M 10 16 L 10.3125 17 L 9.6875 17 Z "></path>
</g>
</svg>
