<?xml version="1.0" encoding="UTF-8"?>
<svg xmlns="http://www.w3.org/2000/svg" xmlns:xlink="http://www.w3.org/1999/xlink" viewBox="0 0 32 32" version="1.1">
<g>
<path d="M 15.71875 4 L 15.53125 4.0625 C 15.53125 4.0625 11 5.8125 11 10 C 11 11.792969 12.039063 13.066406 13 13.875 L 13 27.09375 L 13.53125 27.375 C 13.53125 27.375 14.644531 28 16 28 C 17.355469 28 18.46875 27.375 18.46875 27.375 L 19 27.09375 L 19 14.5625 C 20 13.398438 21 11.851563 21 10 C 21 8.074219 19.796875 6.597656 18.71875 5.625 C 17.640625 4.652344 16.5625 4.125 16.5625 4.125 L 16.34375 4 Z M 8.71875 5 L 8.53125 5.0625 C 8.347656 5.136719 4 6.941406 4 11 C 4 12.710938 5.042969 13.984375 6 14.8125 L 6 26.09375 L 6.53125 26.375 C 6.53125 26.375 7.644531 27 9 27 C 10.355469 27 11.46875 26.375 11.46875 26.375 L 12 26.09375 L 12 15.53125 C 12.101563 15.414063 12.214844 15.3125 12.3125 15.1875 C 11.84375 14.8125 11.324219 14.355469 10.875 13.78125 C 10.050781 14.886719 9 15.789063 8.4375 16.1875 L 9.5625 17.8125 C 9.585938 17.796875 9.859375 17.578125 10 17.46875 L 10 24.75 C 9.699219 24.863281 9.464844 25 9 25 C 8.535156 25 8.300781 24.863281 8 24.75 L 8 15 L 8.4375 14.09375 C 8.414063 14.082031 6 12.832031 6 11 C 6 10.199219 6.285156 9.53125 6.6875 8.96875 C 7.542969 10.273438 9 11.390625 9.875 12 C 9.648438 11.394531 9.5 10.734375 9.5 10 C 9.5 9.722656 9.53125 9.449219 9.5625 9.1875 C 8.957031 8.632813 8.441406 8.054688 8.1875 7.5625 C 8.492188 7.355469 8.769531 7.164063 8.96875 7.0625 C 9.238281 7.226563 9.570313 7.453125 9.90625 7.71875 C 10.140625 7.0625 10.460938 6.472656 10.84375 5.9375 C 10.164063 5.441406 9.625 5.15625 9.5625 5.125 L 9.34375 5 Z M 22.71875 5 L 22.53125 5.0625 C 22.460938 5.089844 21.789063 5.367188 21 5.90625 C 21.398438 6.425781 21.769531 7.015625 22.03125 7.65625 C 22.398438 7.394531 22.738281 7.179688 22.96875 7.0625 C 23.199219 7.203125 23.496094 7.410156 23.78125 7.625 C 23.710938 7.71875 23.671875 7.8125 23.59375 7.90625 C 23.230469 8.339844 22.875 8.71875 22.875 8.71875 L 24.25 10.15625 C 24.25 10.15625 24.6875 9.714844 25.125 9.1875 C 25.15625 9.148438 25.1875 9.101563 25.21875 9.0625 C 25.660156 9.648438 26 10.304688 26 11 C 26 13.179688 23.429688 15.484375 22.4375 16.1875 L 23.5625 17.8125 C 23.589844 17.792969 23.835938 17.597656 24 17.46875 L 24 24.75 C 23.699219 24.863281 23.464844 25 23 25 C 22.535156 25 22.300781 24.863281 22 24.75 L 22 15 L 22.4375 14.09375 C 22.425781 14.089844 22.011719 13.875 21.53125 13.5 C 20.890625 14.765625 20 15.53125 20 15.53125 L 20 26.09375 L 20.53125 26.375 C 20.53125 26.375 21.644531 27 23 27 C 24.355469 27 25.46875 26.375 25.46875 26.375 L 26 26.09375 L 26 15.5625 C 27.027344 14.351563 28 12.746094 28 11 C 28 7.449219 23.742188 5.21875 23.5625 5.125 L 23.34375 5 Z M 16 6.125 C 16.164063 6.21875 16.441406 6.402344 16.78125 6.65625 C 16.714844 6.742188 16.667969 6.820313 16.59375 6.90625 C 16.230469 7.339844 15.875 7.71875 15.875 7.71875 L 17.25 9.15625 C 17.25 9.15625 17.6875 8.714844 18.125 8.1875 C 18.15625 8.148438 18.1875 8.101563 18.21875 8.0625 C 18.671875 8.660156 19 9.324219 19 10 C 19 11.175781 18.167969 12.519531 17.25 13.53125 C 16.332031 14.542969 15.4375 15.1875 15.4375 15.1875 L 16.5625 16.8125 C 16.5625 16.8125 16.808594 16.613281 17 16.46875 L 17 25.75 C 16.699219 25.863281 16.464844 26 16 26 C 15.535156 26 15.300781 25.863281 15 25.75 L 15 14 L 15.4375 13.09375 C 15.4375 13.09375 13 11.703125 13 10 C 13 9.847656 13.011719 9.707031 13.03125 9.5625 C 13.429688 10.035156 13.914063 10.433594 14.34375 10.8125 C 15.414063 11.761719 16.46875 12.40625 16.46875 12.40625 L 17.53125 10.71875 C 17.53125 10.71875 16.585938 10.132813 15.65625 9.3125 C 14.960938 8.695313 14.375 7.917969 14.125 7.40625 C 14.863281 6.65625 15.742188 6.246094 16 6.125 Z M 22.5 10.125 C 22.480469 10.921875 22.296875 11.695313 22.03125 12.40625 C 22.664063 12.902344 23.230469 13.257813 23.46875 13.40625 L 24.53125 11.71875 C 23.886719 11.3125 23.144531 10.726563 22.5 10.125 Z "></path>
</g>
</svg>
