<?xml version="1.0" encoding="UTF-8"?>
<svg xmlns="http://www.w3.org/2000/svg" xmlns:xlink="http://www.w3.org/1999/xlink" viewBox="0 0 32 32" version="1.1">
<g>
<path d="M 21 3.59375 L 20.28125 4.28125 L 19.28125 5.28125 L 19 5.59375 L 19 10 L 16.625 10 L 16.34375 10.25 L 9.34375 16.25 L 9 16.53125 L 9 18.875 L 3.75 23.375 L 3 24.03125 L 3.6875 24.78125 L 6.25 27.65625 L 6.5625 28 L 9.03125 28 L 9.28125 27.34375 L 11.71875 20.875 L 14.09375 26.40625 L 14.34375 27 L 15.46875 27 L 15.78125 26.6875 L 17.71875 24.6875 L 18.1875 24.21875 L 17.90625 23.59375 L 15.1875 17.21875 L 15.625 16.84375 C 16.007813 17.292969 16.453125 17.785156 17.09375 18.28125 C 18.863281 19.65625 21.730469 21 26 21 L 27 21 L 27 16 L 26 16 C 22.691406 16 20.964844 15.078125 20.03125 14.25 C 19.742188 13.992188 19.5625 13.742188 19.40625 13.53125 L 27.9375 6.0625 L 26 4 L 23.5625 6.125 L 21.71875 4.28125 Z M 21 6.4375 L 22.03125 7.46875 L 21 8.375 Z M 17.90625 14.84375 C 18.128906 15.140625 18.378906 15.449219 18.71875 15.75 C 19.890625 16.792969 21.988281 17.640625 25 17.84375 L 25 18.84375 C 21.824219 18.636719 19.609375 17.726563 18.3125 16.71875 C 17.765625 16.292969 17.386719 15.910156 17.09375 15.5625 Z M 13.59375 18.59375 L 15.8125 23.78125 L 15.34375 24.28125 L 13.09375 19.03125 Z M 9.53125 21.03125 L 7.65625 26 L 7.4375 26 L 5.84375 24.21875 Z "></path>
</g>
</svg>
