<?xml version="1.0" encoding="UTF-8"?>
<svg xmlns="http://www.w3.org/2000/svg" xmlns:xlink="http://www.w3.org/1999/xlink" viewBox="0 0 32 32" version="1.1">
<g>
<path d="M 15 1 L 15 5.0625 C 14.707031 5.089844 14.410156 5.136719 14.125 5.1875 C 14.019531 5.207031 13.917969 5.230469 13.8125 5.25 C 13.554688 5.300781 13.285156 5.335938 13.03125 5.40625 C 12.871094 5.449219 12.71875 5.511719 12.5625 5.5625 C 12.304688 5.648438 12.0625 5.742188 11.8125 5.84375 C 11.46875 5.984375 11.136719 6.136719 10.8125 6.3125 C 10.496094 6.480469 10.203125 6.648438 9.90625 6.84375 C 9.578125 7.0625 9.238281 7.28125 8.9375 7.53125 L 6.09375 4.6875 L 4.6875 6.09375 L 7.53125 8.9375 C 7.527344 8.945313 7.535156 8.960938 7.53125 8.96875 C 7.527344 8.976563 7.535156 8.992188 7.53125 9 L 2 9 L 2 11 L 30 11 L 30 9 L 24.46875 9 C 24.460938 8.988281 24.445313 8.980469 24.4375 8.96875 L 27.3125 6.09375 L 25.90625 4.6875 L 23.03125 7.5625 C 22.820313 7.386719 22.601563 7.222656 22.375 7.0625 C 22.160156 6.910156 21.941406 6.761719 21.71875 6.625 C 21.25 6.339844 20.761719 6.089844 20.25 5.875 C 19.488281 5.554688 18.679688 5.332031 17.84375 5.1875 C 17.667969 5.15625 17.492188 5.113281 17.3125 5.09375 C 17.207031 5.082031 17.105469 5.070313 17 5.0625 L 17 1 Z M 16 7 C 16.335938 7 16.671875 7.027344 17 7.0625 C 17.03125 7.066406 17.0625 7.058594 17.09375 7.0625 C 17.347656 7.09375 17.597656 7.136719 17.84375 7.1875 C 17.886719 7.195313 17.925781 7.210938 17.96875 7.21875 C 18.09375 7.246094 18.21875 7.28125 18.34375 7.3125 C 18.609375 7.382813 18.871094 7.46875 19.125 7.5625 C 19.40625 7.667969 19.703125 7.773438 19.96875 7.90625 C 20.191406 8.015625 20.414063 8.15625 20.625 8.28125 C 20.730469 8.34375 20.835938 8.402344 20.9375 8.46875 C 20.949219 8.476563 20.957031 8.492188 20.96875 8.5 C 21.199219 8.652344 21.410156 8.828125 21.625 9 L 10.375 9 C 10.589844 8.828125 10.800781 8.652344 11.03125 8.5 C 11.105469 8.449219 11.175781 8.390625 11.25 8.34375 C 11.402344 8.25 11.5625 8.179688 11.71875 8.09375 C 11.804688 8.046875 11.882813 7.980469 11.96875 7.9375 C 12.261719 7.792969 12.566406 7.675781 12.875 7.5625 C 13.199219 7.441406 13.53125 7.332031 13.875 7.25 C 13.90625 7.242188 13.9375 7.226563 13.96875 7.21875 C 14.152344 7.175781 14.34375 7.15625 14.53125 7.125 C 15.011719 7.046875 15.496094 7 16 7 Z M 6.59375 11.46875 C 6.203125 11.484375 5.863281 11.738281 5.71875 12.125 C 5.523438 12.640625 5.765625 13.210938 6.28125 13.40625 C 6.796875 13.601563 7.398438 13.328125 7.59375 12.8125 C 7.789063 12.296875 7.515625 11.726563 7 11.53125 C 6.871094 11.480469 6.722656 11.464844 6.59375 11.46875 Z M 25.40625 11.46875 C 25.277344 11.464844 25.128906 11.484375 25 11.53125 C 24.484375 11.726563 24.210938 12.296875 24.40625 12.8125 C 24.601563 13.328125 25.203125 13.601563 25.71875 13.40625 C 26.234375 13.210938 26.476563 12.640625 26.28125 12.125 C 26.136719 11.738281 25.796875 11.484375 25.40625 11.46875 Z M 11 13 L 11 21 L 13 21 L 13 13 Z M 16.5 13 C 15.132813 13 14 14.132813 14 15.5 C 14 16.0625 14.210938 16.578125 14.53125 17 C 14.210938 17.421875 14 17.9375 14 18.5 C 14 19.867188 15.132813 21 16.5 21 C 17.867188 21 19 19.867188 19 18.5 C 19 17.9375 18.789063 17.421875 18.46875 17 C 18.789063 16.578125 19 16.0625 19 15.5 C 19 14.132813 17.867188 13 16.5 13 Z M 21 13 C 20.449219 13 20 13.449219 20 14 C 20 14.550781 20.449219 15 21 15 C 21.550781 15 22 14.550781 22 14 C 22 13.449219 21.550781 13 21 13 Z M 2 15 C 1.449219 15 1 15.449219 1 16 C 1 16.550781 1.449219 17 2 17 C 2.550781 17 3 16.550781 3 16 C 3 15.449219 2.550781 15 2 15 Z M 6 15 C 5.449219 15 5 15.449219 5 16 C 5 16.550781 5.449219 17 6 17 C 6.550781 17 7 16.550781 7 16 C 7 15.449219 6.550781 15 6 15 Z M 16.5 15 C 16.785156 15 17 15.214844 17 15.5 C 17 15.785156 16.785156 16 16.5 16 C 16.214844 16 16 15.785156 16 15.5 C 16 15.214844 16.214844 15 16.5 15 Z M 26 15 C 25.449219 15 25 15.449219 25 16 C 25 16.550781 25.449219 17 26 17 C 26.550781 17 27 16.550781 27 16 C 27 15.449219 26.550781 15 26 15 Z M 30 15 C 29.449219 15 29 15.449219 29 16 C 29 16.550781 29.449219 17 30 17 C 30.550781 17 31 16.550781 31 16 C 31 15.449219 30.550781 15 30 15 Z M 16.5 18 C 16.785156 18 17 18.214844 17 18.5 C 17 18.785156 16.785156 19 16.5 19 C 16.214844 19 16 18.785156 16 18.5 C 16 18.214844 16.214844 18 16.5 18 Z M 6.78125 18.8125 C 6.652344 18.8125 6.503906 18.851563 6.375 18.90625 C 5.863281 19.117188 5.632813 19.707031 5.84375 20.21875 C 6.054688 20.730469 6.644531 20.960938 7.15625 20.75 C 7.667969 20.539063 7.898438 19.949219 7.6875 19.4375 C 7.527344 19.054688 7.171875 18.816406 6.78125 18.8125 Z M 25.21875 18.8125 C 24.828125 18.816406 24.472656 19.054688 24.3125 19.4375 C 24.101563 19.949219 24.332031 20.539063 24.84375 20.75 C 25.355469 20.960938 25.945313 20.730469 26.15625 20.21875 C 26.367188 19.707031 26.136719 19.117188 25.625 18.90625 C 25.496094 18.851563 25.347656 18.8125 25.21875 18.8125 Z M 8.9375 22.0625 C 8.679688 22.0625 8.414063 22.179688 8.21875 22.375 C 7.828125 22.765625 7.828125 23.390625 8.21875 23.78125 C 8.609375 24.171875 9.234375 24.171875 9.625 23.78125 C 10.015625 23.390625 10.015625 22.765625 9.625 22.375 C 9.429688 22.179688 9.195313 22.0625 8.9375 22.0625 Z M 23.0625 22.0625 C 22.933594 22.0625 22.808594 22.109375 22.6875 22.15625 C 22.566406 22.203125 22.472656 22.277344 22.375 22.375 C 21.984375 22.765625 21.984375 23.390625 22.375 23.78125 C 22.570313 23.976563 22.804688 24.0625 23.0625 24.0625 C 23.320313 24.0625 23.585938 23.976563 23.78125 23.78125 C 24.171875 23.390625 24.171875 22.765625 23.78125 22.375 C 23.585938 22.179688 23.320313 22.0625 23.0625 22.0625 Z M 12.1875 24.25 C 11.796875 24.253906 11.410156 24.492188 11.25 24.875 C 11.039063 25.386719 11.300781 25.945313 11.8125 26.15625 C 12.324219 26.367188 12.914063 26.136719 13.125 25.625 C 13.335938 25.113281 13.074219 24.523438 12.5625 24.3125 C 12.433594 24.257813 12.316406 24.25 12.1875 24.25 Z M 19.8125 24.25 C 19.683594 24.25 19.566406 24.257813 19.4375 24.3125 C 18.925781 24.523438 18.664063 25.113281 18.875 25.625 C 19.085938 26.136719 19.675781 26.367188 20.1875 26.15625 C 20.699219 25.945313 20.960938 25.386719 20.75 24.875 C 20.589844 24.492188 20.203125 24.253906 19.8125 24.25 Z M 6.09375 24.90625 C 5.835938 24.90625 5.601563 24.992188 5.40625 25.1875 C 5.015625 25.578125 5.015625 26.203125 5.40625 26.59375 C 5.796875 26.984375 6.421875 26.984375 6.8125 26.59375 C 7.203125 26.203125 7.203125 25.578125 6.8125 25.1875 C 6.617188 24.992188 6.351563 24.90625 6.09375 24.90625 Z M 25.90625 24.90625 C 25.648438 24.90625 25.382813 24.992188 25.1875 25.1875 C 24.796875 25.578125 24.796875 26.203125 25.1875 26.59375 C 25.578125 26.984375 26.203125 26.984375 26.59375 26.59375 C 26.984375 26.203125 26.984375 25.578125 26.59375 25.1875 C 26.398438 24.992188 26.164063 24.90625 25.90625 24.90625 Z M 16 25 C 15.449219 25 15 25.449219 15 26 C 15 26.550781 15.449219 27 16 27 C 16.550781 27 17 26.550781 17 26 C 17 25.449219 16.550781 25 16 25 Z M 16 29 C 15.449219 29 15 29.449219 15 30 C 15 30.550781 15.449219 31 16 31 C 16.550781 31 17 30.550781 17 30 C 17 29.449219 16.550781 29 16 29 Z "></path>
</g>
</svg>
