<?xml version="1.0" encoding="UTF-8"?>
<svg xmlns="http://www.w3.org/2000/svg" xmlns:xlink="http://www.w3.org/1999/xlink" viewBox="0 0 32 32" version="1.1">
<g>
<path d="M 5 5 L 5 7 L 7 7 L 7 5 Z M 9 5 L 9 15 L 23 15 L 23 5 Z M 25 5 L 25 7 L 27 7 L 27 5 Z M 11 7 L 21 7 L 21 13 L 11 13 Z M 5 9 L 5 11 L 7 11 L 7 9 Z M 25 9 L 25 11 L 27 11 L 27 9 Z M 5 13 L 5 15 L 7 15 L 7 13 Z M 25 13 L 25 15 L 27 15 L 27 13 Z M 5 18 L 5 20 L 9 20 L 9 28 L 23 28 L 23 20 L 27 20 L 27 18 Z M 11 20 L 12.84375 20 C 13.402344 21.1875 14.601563 22 16 22 C 17.398438 22 18.597656 21.1875 19.15625 20 L 21 20 L 21 24.1875 C 20.15625 24.488281 19.488281 25.15625 19.1875 26 L 12.8125 26 C 12.511719 25.15625 11.84375 24.488281 11 24.1875 Z M 16 23 C 15.171875 23 14.5 23.449219 14.5 24 C 14.5 24.550781 15.171875 25 16 25 C 16.828125 25 17.5 24.550781 17.5 24 C 17.5 23.449219 16.828125 23 16 23 Z "></path>
</g>
</svg>
