<?xml version="1.0" encoding="UTF-8"?>
<svg xmlns="http://www.w3.org/2000/svg" xmlns:xlink="http://www.w3.org/1999/xlink" viewBox="0 0 32 32" version="1.1">
<g>
<path d="M 7 5 L 7 8 C 7 9.164063 7.3125 10.074219 7.5625 10.84375 C 7.8125 11.613281 8 12.242188 8 13 C 8 13.578125 7.660156 14.160156 7.15625 14.9375 C 6.652344 15.714844 6 16.683594 6 18 C 6 19.148438 6.3125 20.035156 6.5625 20.78125 C 6.8125 21.527344 7 22.136719 7 23 L 4 23 L 8 27 L 12 23 L 9 23 C 9 21.8125 8.6875 20.910156 8.4375 20.15625 C 8.1875 19.402344 8 18.804688 8 18 C 8 17.367188 8.347656 16.769531 8.84375 16 C 9.339844 15.230469 10 14.292969 10 13 C 10 11.886719 9.6875 11.011719 9.4375 10.25 C 9.1875 9.488281 9 8.828125 9 8 L 9 5 Z M 16 5 L 16 8 C 16 9.164063 16.3125 10.074219 16.5625 10.84375 C 16.8125 11.613281 17 12.242188 17 13 C 17 13.578125 16.660156 14.160156 16.15625 14.9375 C 15.652344 15.714844 15 16.683594 15 18 C 15 19.148438 15.3125 20.035156 15.5625 20.78125 C 15.8125 21.527344 16 22.136719 16 23 L 13 23 L 17 27 L 21 23 L 18 23 C 18 21.8125 17.6875 20.910156 17.4375 20.15625 C 17.1875 19.402344 17 18.804688 17 18 C 17 17.367188 17.347656 16.769531 17.84375 16 C 18.339844 15.230469 19 14.292969 19 13 C 19 11.886719 18.6875 11.011719 18.4375 10.25 C 18.1875 9.488281 18 8.828125 18 8 L 18 5 Z M 23 5 L 23 7 L 28 7 L 28 5 Z M 25 10 L 25 12 L 28 12 L 28 10 Z M 23 15 L 23 17 L 28 17 L 28 15 Z M 25 20 L 25 22 L 28 22 L 28 20 Z M 23 25 L 23 27 L 28 27 L 28 25 Z "></path>
</g>
</svg>
