<?xml version="1.0" encoding="UTF-8"?>
<svg xmlns="http://www.w3.org/2000/svg" xmlns:xlink="http://www.w3.org/1999/xlink" viewBox="0 0 32 32" version="1.1">
<g>
<path d="M 16.292969 2.292969 L 15.621094 2.964844 L 15.621094 2.960938 L 8.585938 10 L 7.914063 10.671875 L 9.328125 12.085938 L 10 11.414063 L 14.585938 16 L 4.292969 26.292969 L 5.707031 27.707031 L 16 17.414063 L 20.585938 22 L 19.914063 22.671875 L 21.328125 24.085938 L 29.707031 15.707031 L 28.292969 14.292969 L 27.621094 14.964844 L 17.035156 4.378906 L 17.707031 3.707031 Z M 15.621094 5.792969 L 17.207031 7.378906 L 13 11.585938 L 11.414063 10 Z M 18.621094 8.792969 L 23.207031 13.378906 L 19 17.585938 L 14.414063 13 Z M 24.621094 14.792969 L 26.207031 16.378906 L 22 20.585938 L 20.414063 19 Z "></path>
</g>
</svg>
