<?xml version="1.0" encoding="UTF-8"?>
<svg xmlns="http://www.w3.org/2000/svg" xmlns:xlink="http://www.w3.org/1999/xlink" viewBox="0 0 32 32" version="1.1">
<g>
<path d="M 16.5 6 C 12.210938 6 8 8.492188 8 12 L 8 14 C 6.929688 14.699219 6 16.363281 6 19 C 6 22.117188 7.945313 24.804688 10 25 L 10 12 C 10 9.027344 12.710938 7.972656 16.5 7.972656 C 20.289063 7.972656 23 9.027344 23 12 L 23 25 C 25.054688 24.804688 27 22.117188 27 19 C 27 16.363281 26.058594 14.65625 25 14 L 25 12 C 25 8.492188 20.789063 6 16.5 6 Z M 10 14 L 10 25 C 10.320313 24.902344 10.726563 24.660156 11 24.464844 L 11.003906 14.5625 C 10.730469 14.367188 10.320313 14.097656 10 14 Z M 23 14.007813 C 22.679688 14.105469 22.289063 14.257813 22.015625 14.453125 L 22 24.5625 C 22.273438 24.757813 22.679688 24.902344 23 25 Z M 16.484375 13 L 15 21 L 13 15 L 12 18 L 12 22 L 13 18.007813 L 15 24 L 16.4375 18.003906 L 18 24 L 20 18 L 21 22 L 21 18 L 20 15 L 18 21 Z "></path>
</g>
</svg>
