<?xml version="1.0" encoding="UTF-8"?>
<svg xmlns="http://www.w3.org/2000/svg" xmlns:xlink="http://www.w3.org/1999/xlink" viewBox="0 0 32 32" version="1.1">
<g>
<path d="M 15.382813 6.109375 C 15.417969 6.425781 15.523438 6.730469 15.691406 6.996094 C 16.230469 7.839844 17.039063 8.40625 17.6875 8.859375 C 17.851563 8.972656 18.011719 9.085938 18.15625 9.195313 C 18.242188 9.273438 18.339844 9.355469 18.4375 9.433594 C 18.46875 9.457031 18.496094 9.480469 18.5 9.480469 C 18.59375 9.574219 18.695313 9.65625 18.804688 9.730469 C 19.238281 10.019531 19.742188 10.175781 20.257813 10.175781 C 20.546875 10.175781 20.84375 10.125 21.132813 10.027344 C 21.425781 9.929688 21.695313 9.765625 21.914063 9.546875 L 22.109375 9.351563 C 22.136719 9.324219 22.164063 9.296875 22.1875 9.265625 C 22.246094 9.199219 22.300781 9.136719 22.351563 9.066406 C 22.566406 9.5625 22.863281 10.042969 23.285156 10.433594 C 23.550781 10.691406 23.871094 10.910156 24.210938 11.066406 C 24.257813 11.121094 24.328125 11.214844 24.386719 11.289063 C 24.476563 11.414063 24.582031 11.554688 24.710938 11.707031 C 24.800781 11.988281 24.96875 12.378906 25.320313 12.730469 C 25.453125 12.863281 25.605469 12.980469 25.769531 13.074219 C 25.988281 13.648438 26.308594 14.023438 26.519531 14.265625 C 26.554688 14.308594 26.597656 14.347656 26.621094 14.386719 C 26.675781 14.476563 26.730469 14.5625 26.796875 14.644531 C 26.824219 14.675781 26.828125 14.679688 26.839844 14.761719 C 26.867188 14.929688 26.917969 15.089844 26.980469 15.238281 C 27.011719 15.414063 27.011719 15.695313 26.941406 15.875 C 26.84375 16.140625 26.773438 16.386719 26.714844 16.605469 C 26.652344 16.820313 26.589844 17.046875 26.53125 17.140625 C 26.5 17.195313 26.46875 17.25 26.441406 17.304688 L 25.984375 18.214844 L 25.855469 18.476563 C 25.800781 18.585938 25.734375 18.691406 25.667969 18.796875 C 25.515625 19.042969 25.324219 19.351563 25.15625 19.75 C 25.121094 19.828125 25.09375 19.90625 25.070313 19.988281 C 24.996094 20.246094 24.964844 20.484375 24.953125 20.695313 C 24.484375 21.035156 24.214844 21.492188 24.085938 21.71875 C 23.933594 21.726563 23.71875 21.730469 23.414063 21.730469 C 23.167969 21.730469 22.929688 21.726563 22.726563 21.726563 C 22.617188 21.722656 22.519531 21.722656 22.433594 21.722656 C 22.390625 21.710938 22.34375 21.703125 22.285156 21.691406 C 22.257813 21.683594 22.234375 21.675781 22.207031 21.667969 C 22.140625 21.476563 22.042969 21.25 21.898438 21.015625 C 21.785156 20.820313 21.664063 20.660156 21.550781 20.527344 C 21.472656 20.144531 21.28125 19.792969 21.003906 19.511719 C 20.953125 19.460938 20.871094 19.378906 20.757813 19.289063 C 20.792969 19.078125 20.808594 18.867188 20.808594 18.652344 C 20.808594 17.84375 20.320313 17.117188 19.574219 16.804688 C 19.328125 16.703125 19.066406 16.652344 18.808594 16.652344 C 18.320313 16.652344 17.839844 16.832031 17.464844 17.171875 C 16.585938 16.421875 15.382813 16.003906 14.003906 16.003906 C 13.40625 16.003906 12.808594 16.085938 12.222656 16.238281 C 12.179688 16.242188 12.128906 16.246094 12.070313 16.246094 C 11.957031 16.246094 11.84375 16.238281 11.730469 16.234375 C 11.554688 16.226563 11.375 16.21875 11.191406 16.21875 C 10.863281 16.21875 10.558594 16.242188 10.265625 16.296875 C 10.171875 16.3125 10.082031 16.335938 9.992188 16.367188 L 9.921875 16.386719 C 9.605469 16.488281 9.078125 16.652344 8.625 17.109375 C 8.566406 17.167969 8.511719 17.226563 8.464844 17.289063 C 8.316406 17.28125 8.171875 17.273438 8.023438 17.273438 C 7.769531 17.273438 7.53125 17.292969 7.304688 17.328125 C 7.285156 17.335938 7.265625 17.335938 7.242188 17.34375 C 6.8125 17.429688 6.386719 17.574219 5.882813 17.816406 C 5.863281 17.820313 5.84375 17.828125 5.820313 17.835938 C 5.878906 16.738281 5.75 15.632813 5.214844 14.417969 C 5.394531 13.929688 5.421875 13.382813 5.289063 12.84375 C 5.230469 12.609375 5.171875 12.417969 5.113281 12.238281 C 5.800781 11.878906 6.351563 11.644531 7.054688 11.40625 L 7.089844 11.398438 C 7.65625 11.238281 8.507813 10.996094 9.242188 10.261719 C 9.476563 10.027344 9.695313 9.714844 9.894531 9.332031 C 9.914063 9.328125 9.933594 9.320313 9.953125 9.316406 C 10.042969 9.285156 10.132813 9.25 10.214844 9.207031 C 10.742188 8.945313 11 8.585938 11.136719 8.390625 C 11.167969 8.351563 11.210938 8.292969 11.273438 8.210938 C 11.398438 8.054688 11.496094 7.910156 11.574219 7.78125 C 11.945313 7.984375 12.453125 8.199219 13.074219 8.199219 C 13.269531 8.199219 13.464844 8.179688 13.652344 8.136719 C 14.335938 7.984375 14.886719 7.488281 15.113281 6.828125 C 15.1875 6.605469 15.222656 6.375 15.21875 6.144531 C 15.277344 6.136719 15.328125 6.125 15.382813 6.109375 M 21.730469 3 C 21.34375 3.648438 21.40625 4.625 21.34375 5.402344 C 21.277344 6.183594 21.210938 7.351563 20.691406 7.9375 C 20.628906 8 20.5625 8.066406 20.496094 8.132813 C 20.414063 8.15625 20.335938 8.175781 20.253906 8.175781 C 20.140625 8.175781 20.027344 8.140625 19.914063 8.066406 C 19.78125 7.9375 19.589844 7.804688 19.457031 7.675781 C 18.808594 7.15625 17.835938 6.636719 17.378906 5.921875 C 17.3125 5.855469 17.574219 5.855469 17.640625 5.792969 C 17.769531 5.726563 17.769531 5.46875 17.640625 5.402344 C 17.574219 5.402344 17.445313 5.335938 17.445313 5.273438 C 17.445313 5.140625 17.507813 5.078125 17.640625 5.011719 C 17.835938 4.945313 18.027344 4.945313 18.160156 4.882813 C 18.355469 4.753906 18.417969 4.558594 18.355469 4.425781 C 18.289063 4.363281 18.160156 4.296875 18.027344 4.296875 C 17.507813 4.230469 16.796875 4.296875 16.273438 4.167969 C 15.921875 3.988281 15.566406 3.703125 15.210938 3.703125 C 15.175781 3.703125 15.140625 3.707031 15.105469 3.710938 C 15.039063 3.710938 14.976563 3.710938 14.976563 3.777344 C 14.910156 3.84375 15.039063 3.972656 14.976563 4.101563 C 14.949219 4.152344 14.90625 4.171875 14.855469 4.171875 C 14.769531 4.171875 14.664063 4.117188 14.585938 4.035156 C 14.53125 3.925781 14.378906 3.765625 14.253906 3.765625 C 14.234375 3.765625 14.214844 3.769531 14.195313 3.777344 C 14.003906 3.777344 14.003906 3.972656 14.003906 4.167969 C 14.003906 4.296875 14.003906 4.621094 13.808594 4.621094 C 13.09375 4.945313 12.898438 5.789063 13.222656 6.179688 C 13.171875 6.191406 13.125 6.195313 13.078125 6.195313 C 12.550781 6.195313 12.0625 5.589844 11.46875 5.53125 C 11.078125 5.53125 10.691406 5.726563 10.429688 5.988281 C 10.039063 6.3125 9.976563 6.636719 9.714844 6.960938 C 9.457031 7.285156 9.457031 7.351563 9.324219 7.414063 C 9.3125 7.421875 9.300781 7.421875 9.289063 7.421875 C 9.113281 7.421875 9.003906 7.019531 9.066406 6.898438 C 9.035156 6.867188 9 6.855469 8.960938 6.855469 C 8.828125 6.855469 8.660156 7.007813 8.609375 7.15625 C 8.609375 7.285156 8.546875 7.417969 8.480469 7.546875 C 8.351563 7.9375 8.089844 8.585938 7.832031 8.847656 C 7.441406 9.234375 6.921875 9.367188 6.46875 9.496094 C 5.492188 9.820313 4.777344 10.144531 3.933594 10.601563 C 3.675781 10.730469 3.480469 10.859375 3.285156 11.054688 C 2.894531 11.511719 2.960938 12.160156 3.152344 12.679688 C 3.21875 12.875 3.285156 13.070313 3.347656 13.328125 C 3.414063 13.589844 3.347656 13.785156 3.21875 13.914063 C 2.828125 14.304688 3.152344 14.757813 3.152344 14.757813 C 3.996094 16.316406 3.933594 17.550781 3.609375 19.433594 C 3.570313 19.414063 3.523438 19.40625 3.480469 19.40625 C 3.238281 19.40625 2.96875 19.679688 3.023438 19.953125 C 3.023438 20.214844 3.347656 20.476563 3.675781 20.539063 C 3.738281 20.539063 3.804688 20.539063 4 20.539063 C 4.84375 20.539063 5.816406 19.890625 6.597656 19.695313 C 6.988281 19.5 7.3125 19.371094 7.636719 19.304688 C 7.765625 19.285156 7.894531 19.277344 8.027344 19.277344 C 8.285156 19.277344 8.546875 19.304688 8.804688 19.304688 C 9.195313 19.304688 9.648438 19.175781 9.84375 18.851563 C 9.910156 18.722656 9.972656 18.589844 10.039063 18.527344 C 10.167969 18.394531 10.429688 18.332031 10.625 18.265625 C 10.820313 18.230469 11.007813 18.21875 11.191406 18.21875 C 11.488281 18.21875 11.773438 18.246094 12.070313 18.246094 C 12.253906 18.246094 12.441406 18.238281 12.636719 18.199219 C 13.09375 18.070313 13.546875 18.007813 14 18.007813 C 15.171875 18.007813 16.339844 18.460938 16.792969 19.566406 C 16.859375 19.695313 16.925781 19.890625 17.054688 19.953125 C 17.101563 19.96875 17.144531 19.972656 17.1875 19.972656 C 17.382813 19.972656 17.542969 19.855469 17.703125 19.695313 C 18.09375 19.304688 18.417969 19.046875 18.808594 18.65625 C 18.808594 19.242188 18.546875 19.824219 18.15625 20.214844 C 18.09375 20.28125 18.09375 20.34375 18.027344 20.410156 C 17.765625 20.605469 17.703125 21.058594 17.703125 21.253906 C 18.027344 21.253906 18.351563 21.1875 18.609375 21.058594 C 18.824219 20.898438 19.039063 20.78125 19.253906 20.78125 C 19.296875 20.78125 19.34375 20.785156 19.390625 20.800781 C 19.453125 20.800781 19.519531 20.863281 19.585938 20.929688 C 19.585938 20.992188 19.585938 21.125 19.585938 21.1875 C 19.585938 21.449219 20.039063 21.773438 20.171875 22.03125 C 20.429688 22.421875 20.363281 22.878906 20.753906 23.203125 C 21.078125 23.460938 21.46875 23.527344 21.859375 23.65625 C 21.988281 23.65625 22.117188 23.722656 22.3125 23.722656 C 22.546875 23.722656 22.96875 23.730469 23.410156 23.730469 C 24.074219 23.730469 24.78125 23.710938 24.976563 23.59375 C 25.238281 23.460938 25.367188 23.265625 25.5625 23.070313 C 25.757813 22.941406 25.953125 22.292969 26.210938 22.292969 C 26.351563 22.339844 26.488281 22.386719 26.625 22.386719 C 26.683594 22.386719 26.738281 22.378906 26.796875 22.359375 C 26.925781 22.226563 26.992188 22.03125 26.992188 21.839844 C 27.054688 21.316406 26.859375 20.992188 26.992188 20.539063 C 27.1875 20.085938 27.445313 19.761719 27.640625 19.371094 C 27.835938 18.980469 28.03125 18.589844 28.226563 18.199219 C 28.550781 17.679688 28.617188 17.097656 28.8125 16.578125 C 29.199219 15.601563 28.875 14.433594 28.8125 14.433594 C 28.746094 14.042969 28.617188 13.71875 28.355469 13.394531 C 28.097656 12.941406 27.707031 12.746094 27.578125 12.160156 C 27.578125 11.902344 27.578125 11.511719 27.316406 11.382813 C 27.273438 11.367188 27.226563 11.363281 27.175781 11.363281 C 27.089844 11.363281 27 11.378906 26.921875 11.378906 C 26.847656 11.378906 26.78125 11.363281 26.734375 11.316406 C 26.601563 11.1875 26.601563 10.992188 26.539063 10.796875 C 26.539063 10.730469 26.472656 10.667969 26.40625 10.601563 C 25.953125 10.148438 25.757813 9.628906 25.175781 9.304688 C 24.980469 9.238281 24.785156 9.109375 24.652344 8.976563 C 24.070313 8.457031 23.875 7.289063 23.746094 6.574219 C 23.746094 6.445313 23.613281 5.796875 23.421875 5.796875 C 23.421875 5.730469 23.355469 5.664063 23.289063 5.601563 C 23.25 5.574219 23.203125 5.5625 23.160156 5.5625 C 23.035156 5.5625 22.898438 5.636719 22.769531 5.636719 C 22.726563 5.636719 22.679688 5.628906 22.640625 5.601563 C 22.574219 5.535156 22.511719 5.46875 22.511719 5.339844 C 22.378906 4.820313 22.25 4.300781 22.054688 3.714844 C 21.992188 3.519531 21.859375 3.128906 21.730469 3 Z M 24.804688 25.402344 C 24.675781 25.402344 24.675781 25.53125 24.546875 25.597656 L 24.21875 25.597656 C 24.109375 25.652344 23.988281 25.671875 23.867188 25.671875 C 23.699219 25.671875 23.527344 25.632813 23.375 25.597656 C 23.117188 25.53125 22.855469 25.402344 22.597656 25.402344 C 22.53125 25.402344 22.53125 25.402344 22.46875 25.402344 C 22.402344 25.46875 22.402344 25.53125 22.402344 25.597656 C 22.53125 25.921875 22.660156 26.246094 22.855469 26.570313 C 23.117188 27.089844 23.378906 27.546875 23.894531 27.933594 C 23.960938 28 24.027344 28 24.089844 28 C 24.222656 28 24.414063 27.933594 24.480469 27.871094 C 24.675781 27.609375 24.675781 27.285156 24.804688 26.960938 C 24.871094 26.894531 24.871094 26.832031 24.9375 26.699219 C 25 26.507813 25 26.375 25 26.179688 C 25 26.050781 25 25.855469 25 25.726563 C 25 25.597656 24.933594 25.402344 24.804688 25.402344 Z "></path>
</g>
</svg>
