<?xml version="1.0" encoding="UTF-8"?>
<svg xmlns="http://www.w3.org/2000/svg" xmlns:xlink="http://www.w3.org/1999/xlink" viewBox="0 0 32 32" version="1.1">
<g>
<path d="M 16 4 C 13.75 4 12.234375 4.886719 10.875 5.625 C 9.515625 6.363281 8.28125 7 6 7 L 5 7 L 5 8 C 5 15.71875 7.609375 20.742188 10.25 23.78125 C 12.890625 26.820313 15.625 27.9375 15.625 27.9375 L 16 28.0625 L 16.375 27.9375 C 16.375 27.9375 19.109375 26.84375 21.75 23.8125 C 24.390625 20.78125 27 15.746094 27 8 L 27 7 L 26 7 C 23.730469 7 22.484375 6.363281 21.125 5.625 C 19.765625 4.886719 18.25 4 16 4 Z M 16 6 C 17.75 6 18.753906 6.613281 20.15625 7.375 C 21.339844 8.019531 22.910156 8.636719 24.9375 8.84375 C 24.746094 15.609375 22.507813 19.910156 20.25 22.5 C 18.203125 24.847656 16.484375 25.628906 16 25.84375 C 15.511719 25.625 13.796875 24.824219 11.75 22.46875 C 9.492188 19.871094 7.253906 15.578125 7.0625 8.84375 C 9.097656 8.636719 10.660156 8.019531 11.84375 7.375 C 13.246094 6.613281 14.25 6 16 6 Z M 16 9 C 15.398438 9 15 9.398438 15 10 L 15 13.3125 L 11 17 L 11 18 L 15 16.09375 L 15 18.1875 L 13.59375 19.8125 L 13.59375 21 L 15.40625 20 L 16.59375 20 L 18.40625 21 L 18.40625 19.8125 L 17 18.1875 L 17 16.09375 L 21 18 L 21 17 L 17 13.3125 L 17 10 C 17 9.398438 16.601563 9 16 9 Z "></path>
</g>
</svg>
