<?xml version="1.0" encoding="UTF-8"?>
<svg xmlns="http://www.w3.org/2000/svg" xmlns:xlink="http://www.w3.org/1999/xlink" viewBox="0 0 32 32" version="1.1">
<g>
<path d="M 5 5 L 5 27 L 27 27 L 27 5 Z M 7 7 L 25 7 L 25 25 L 7 25 Z M 14.21875 9.125 L 12.375 9.875 L 13.0625 11.59375 C 12.484375 11.980469 11.984375 12.488281 11.59375 13.0625 L 9.875 12.375 L 9.125 14.21875 L 10.8125 14.875 C 10.730469 15.242188 10.6875 15.609375 10.6875 16 C 10.6875 16.386719 10.730469 16.757813 10.8125 17.125 L 9.125 17.78125 L 9.875 19.625 L 11.59375 18.9375 C 11.984375 19.519531 12.480469 20.015625 13.0625 20.40625 L 12.375 22.125 L 14.21875 22.875 L 14.875 21.1875 C 15.242188 21.269531 15.613281 21.3125 16 21.3125 C 16.386719 21.3125 16.757813 21.269531 17.125 21.1875 L 17.78125 22.875 L 19.625 22.125 L 18.9375 20.40625 C 19.519531 20.015625 20.015625 19.519531 20.40625 18.9375 L 22.125 19.625 L 22.875 17.78125 L 21.1875 17.125 C 21.269531 16.757813 21.3125 16.386719 21.3125 16 C 21.3125 15.613281 21.269531 15.242188 21.1875 14.875 L 22.875 14.21875 L 22.125 12.375 L 20.40625 13.0625 C 20.015625 12.480469 19.519531 11.984375 18.9375 11.59375 L 19.625 9.875 L 17.78125 9.125 L 17.125 10.8125 C 16.757813 10.730469 16.386719 10.6875 16 10.6875 C 15.613281 10.6875 15.242188 10.730469 14.875 10.8125 Z M 16 12.6875 C 17.835938 12.6875 19.3125 14.164063 19.3125 16 C 19.3125 17.835938 17.835938 19.3125 16 19.3125 C 14.164063 19.3125 12.6875 17.835938 12.6875 16 C 12.6875 14.164063 14.164063 12.6875 16 12.6875 Z "></path>
</g>
</svg>
