<?xml version="1.0" encoding="UTF-8"?>
<svg xmlns="http://www.w3.org/2000/svg" xmlns:xlink="http://www.w3.org/1999/xlink" viewBox="0 0 32 32" version="1.1">
<g>
<path d="M 10.5 4 C 8.601563 4 6.902344 5.097656 6.03125 6.71875 L 6 6.71875 L 6 6.75 L 4.5 9.625 L 4.5 9.65625 C 4.121094 10.414063 4 11.195313 4 11.90625 L 4 16 L 8 16 L 8 15 C 8 13.808594 8.808594 13 10 13 C 11.191406 13 12 13.808594 12 15 L 12 16 L 19 16 L 19 15 C 19 13.808594 19.808594 13 21 13 C 22.191406 13 23 13.808594 23 15 L 23 16 L 28 16 L 28 13.09375 C 28 10.847656 26.5 8.867188 24.28125 8.25 L 24.21875 8.21875 L 24.1875 8.21875 L 23.4375 8.09375 L 19.75 5.15625 C 19.738281 5.148438 19.730469 5.132813 19.71875 5.125 C 18.828125 4.375 17.703125 4 16.59375 4 Z M 10.5 6 L 16.59375 6 C 17.273438 6 17.933594 6.226563 18.4375 6.65625 L 18.46875 6.65625 L 18.46875 6.6875 L 22.375 9.78125 L 22.5625 9.9375 L 22.8125 9.96875 L 23.71875 10.15625 L 23.75 10.1875 C 25.105469 10.585938 26 11.753906 26 13.09375 L 26 14 L 24.8125 14 C 24.363281 12.285156 22.855469 11 21 11 C 19.144531 11 17.636719 12.285156 17.1875 14 L 13.8125 14 C 13.363281 12.285156 11.855469 11 10 11 C 8.144531 11 6.636719 12.285156 6.1875 14 L 6 14 L 6 11.90625 C 6 11.417969 6.0625 11.003906 6.28125 10.5625 L 7.78125 7.6875 L 7.78125 7.65625 C 8.3125 6.6875 9.40625 6 10.5 6 Z M 9 20 C 6.800781 20 5 21.800781 5 24 C 5 26.199219 6.800781 28 9 28 C 10.851563 28 12.398438 26.71875 12.84375 25 L 14.28125 25 C 14.628906 25.597656 15.261719 26 16 26 C 16.738281 26 17.371094 25.597656 17.71875 25 L 19.15625 25 C 19.601563 26.71875 21.148438 28 23 28 C 25.199219 28 27 26.199219 27 24 C 27 21.800781 25.199219 20 23 20 C 21.148438 20 19.601563 21.28125 19.15625 23 L 17.71875 23 C 17.371094 22.402344 16.738281 22 16 22 C 15.261719 22 14.628906 22.402344 14.28125 23 L 12.84375 23 C 12.398438 21.28125 10.851563 20 9 20 Z M 9 22 C 10.117188 22 11 22.882813 11 24 C 11 25.117188 10.117188 26 9 26 C 7.882813 26 7 25.117188 7 24 C 7 22.882813 7.882813 22 9 22 Z M 23 22 C 24.117188 22 25 22.882813 25 24 C 25 25.117188 24.117188 26 23 26 C 21.882813 26 21 25.117188 21 24 C 21 22.882813 21.882813 22 23 22 Z "></path>
</g>
</svg>
