<?xml version="1.0" encoding="UTF-8"?>
<svg xmlns="http://www.w3.org/2000/svg" xmlns:xlink="http://www.w3.org/1999/xlink" viewBox="0 0 32 32" version="1.1">
<g>
<path d="M 13.390625 2.859375 C 12.886719 2.835938 12.339844 2.882813 11.757813 3.03125 C 9.902344 3.492188 8.871094 4.804688 8.421875 5.914063 C 8.167969 6.539063 8.222656 6.710938 8.179688 7.109375 C 7.203125 7.164063 5.175781 7.410156 4.105469 9.554688 C 3.273438 11.21875 3.546875 12.71875 4.132813 13.609375 C 4.722656 14.503906 5.5625 14.902344 5.5625 14.902344 L 6.4375 13.097656 C 6.4375 13.097656 6.070313 12.910156 5.804688 12.511719 C 5.539063 12.109375 5.3125 11.609375 5.894531 10.449219 C 6.535156 9.164063 9 9 9 9 L 10.019531 9 L 10 7.976563 C 10 7.976563 9.992188 7.367188 10.277344 6.664063 C 10.558594 5.960938 11.03125 5.273438 12.242188 4.96875 C 13.917969 4.550781 14.664063 5.101563 15.238281 5.773438 C 15.816406 6.449219 16.03125 7.242188 16.03125 7.242188 L 18 7 C 18 7 17.992188 6.84375 18.175781 6.601563 C 18.359375 6.355469 18.722656 6 20 6 C 22.332031 6 23.050781 8.316406 23.050781 8.316406 L 23.28125 9 L 24 9 C 24 9 24.40625 9 24.929688 9.105469 C 25.453125 9.210938 26.027344 9.441406 26.292969 9.707031 C 26.695313 10.109375 26.78125 10.410156 26.785156 10.746094 C 26.792969 11.078125 26.671875 11.472656 26.460938 11.859375 C 26.039063 12.628906 25.347656 13.238281 25.347656 13.238281 L 26.652344 14.761719 C 26.652344 14.761719 27.578125 13.988281 28.21875 12.816406 C 28.535156 12.234375 28.804688 11.515625 28.785156 10.703125 C 28.769531 9.894531 28.425781 9.011719 27.707031 8.292969 C 26.972656 7.558594 26.046875 7.289063 25.320313 7.144531 C 24.914063 7.0625 24.820313 7.078125 24.578125 7.0625 C 24.191406 6.203125 23.046875 4 20 4 C 18.601563 4 17.6875 4.464844 17.054688 5.03125 C 16.898438 4.773438 16.984375 4.738281 16.761719 4.476563 C 16.066406 3.667969 14.90625 2.933594 13.390625 2.859375 Z M 9.304688 12 L 9.0625 12.648438 L 7.242188 17.503906 L 6.445313 17.105469 L 5.554688 16.65625 L 4.65625 18.449219 L 5.554688 18.894531 L 6.539063 19.386719 L 6 20.816406 L 6 29 L 8 29 L 8 27 L 24 27 L 24 29 L 26 29 L 26 20.816406 L 25.464844 19.386719 L 26.449219 18.894531 L 27.34375 18.449219 L 26.449219 16.65625 L 25.550781 17.105469 L 24.757813 17.503906 L 22.691406 12 Z M 10.691406 14 L 21.308594 14 L 22.808594 18 L 9.195313 18 Z M 8.445313 20 L 23.558594 20 L 24 21.183594 L 24 25 L 8 25 L 8 21.183594 Z M 10.5 21 C 9.671875 21 9 21.671875 9 22.5 C 9 23.328125 9.671875 24 10.5 24 C 11.328125 24 12 23.328125 12 22.5 C 12 21.671875 11.328125 21 10.5 21 Z M 21.5 21 C 20.671875 21 20 21.671875 20 22.5 C 20 23.328125 20.671875 24 21.5 24 C 22.328125 24 23 23.328125 23 22.5 C 23 21.671875 22.328125 21 21.5 21 Z "></path>
</g>
</svg>
