<?xml version="1.0" encoding="UTF-8"?>
<svg xmlns="http://www.w3.org/2000/svg" xmlns:xlink="http://www.w3.org/1999/xlink" viewBox="0 0 32 32" version="1.1">
<g>
<path d="M 11.1875 5 L 10.96875 5.65625 L 8.0625 13.65625 L 8 13.8125 L 8 15 L 10 15 L 10 14.15625 L 10.40625 13 L 13.59375 13 L 14 14.15625 L 14 15 L 16 15 L 16 13.8125 L 15.9375 13.65625 L 13.03125 5.65625 L 12.8125 5 Z M 16 5 L 16 6.1875 L 16.0625 6.34375 L 18.96875 14.34375 L 19.1875 15 L 20.8125 15 L 21.03125 14.34375 L 23.9375 6.34375 L 24 6.1875 L 24 5 L 22 5 L 22 5.84375 L 20 11.34375 L 18 5.84375 L 18 5 Z M 12 8.65625 L 12.84375 11 L 11.15625 11 Z M 4 17 L 4 27 L 28 27 L 28 17 Z M 6 19 L 26 19 L 26 25 L 6 25 Z M 9 21 C 8.449219 21 8 21.449219 8 22 C 8 22.550781 8.449219 23 9 23 C 9.550781 23 10 22.550781 10 22 C 10 21.449219 9.550781 21 9 21 Z M 12 21 L 12 23 L 20 23 L 20 21 Z M 23 21 C 22.449219 21 22 21.449219 22 22 C 22 22.550781 22.449219 23 23 23 C 23.550781 23 24 22.550781 24 22 C 24 21.449219 23.550781 21 23 21 Z "></path>
</g>
</svg>
