<?xml version="1.0" encoding="UTF-8"?>
<svg xmlns="http://www.w3.org/2000/svg" xmlns:xlink="http://www.w3.org/1999/xlink" viewBox="0 0 32 32" version="1.1">
<g>
<path d="M 14 5 C 7.9375 5 3 9.9375 3 16 C 3 22.0625 7.9375 27 14 27 C 14.683594 27 15.351563 26.933594 16 26.8125 C 16.648438 26.933594 17.3125 27 18 27 C 24.0625 27 29 22.0625 29 16 C 29 9.9375 24.0625 5 18 5 C 17.3125 5 16.648438 5.066406 16 5.1875 C 15.351563 5.066406 14.683594 5 14 5 Z M 14 7 C 18.980469 7 23 11.019531 23 16 C 23 20.980469 18.980469 25 14 25 C 9.019531 25 5 20.980469 5 16 C 5 11.019531 9.019531 7 14 7 Z M 21 7.53125 C 24.5 8.765625 27 12.070313 27 16 C 27 19.929688 24.5 23.234375 21 24.46875 C 23.445313 22.449219 25 19.410156 25 16 C 25 12.589844 23.445313 9.550781 21 7.53125 Z M 13 11 C 13 12.117188 12.117188 13 11 13 L 11 15 C 11.734375 15 12.40625 14.785156 13 14.4375 L 13 19 L 11 19 L 11 21 L 17 21 L 17 19 L 15 19 L 15 11 Z "></path>
</g>
</svg>
