<?xml version="1.0" encoding="UTF-8"?>
<svg xmlns="http://www.w3.org/2000/svg" xmlns:xlink="http://www.w3.org/1999/xlink" viewBox="0 0 32 32" version="1.1">
<g>
<path d="M 14 5 C 7.9375 5 3 9.9375 3 16 C 3 22.0625 7.9375 27 14 27 C 14.683594 27 15.351563 26.933594 16 26.8125 C 16.648438 26.933594 17.3125 27 18 27 C 24.0625 27 29 22.0625 29 16 C 29 9.9375 24.0625 5 18 5 C 17.3125 5 16.648438 5.066406 16 5.1875 C 15.351563 5.066406 14.683594 5 14 5 Z M 14 7 C 18.980469 7 23 11.019531 23 16 C 23 20.980469 18.980469 25 14 25 C 9.019531 25 5 20.980469 5 16 C 5 11.019531 9.019531 7 14 7 Z M 21 7.53125 C 24.5 8.765625 27 12.070313 27 16 C 27 19.929688 24.5 23.234375 21 24.46875 C 23.445313 22.449219 25 19.410156 25 16 C 25 12.589844 23.445313 9.550781 21 7.53125 Z M 13 10 L 13 11.1875 C 11.84375 11.605469 11 12.707031 11 14 C 11 15.644531 12.355469 17 14 17 C 14.566406 17 15 17.433594 15 18 C 15 18.566406 14.566406 19 14 19 C 13.433594 19 13 18.566406 13 18 L 11 18 C 11 19.292969 11.84375 20.394531 13 20.8125 L 13 22 L 15 22 L 15 20.8125 C 16.15625 20.394531 17 19.292969 17 18 C 17 16.355469 15.644531 15 14 15 C 13.433594 15 13 14.566406 13 14 C 13 13.433594 13.433594 13 14 13 C 14.566406 13 15 13.433594 15 14 L 17 14 C 17 12.707031 16.15625 11.605469 15 11.1875 L 15 10 Z "></path>
</g>
</svg>
