<?xml version="1.0" encoding="UTF-8"?>
<svg xmlns="http://www.w3.org/2000/svg" xmlns:xlink="http://www.w3.org/1999/xlink" viewBox="0 0 32 32" version="1.1">
<g>
<path d="M 4 4 L 4 28 L 28 28 L 28 26 L 27 26 C 27.003906 25.957031 27.003906 25.917969 27 25.875 C 27 25.875 26.535156 22.222656 25.5 18 L 26 18 L 26 16 L 24.96875 16 C 24.941406 15.90625 24.933594 15.8125 24.90625 15.71875 C 24.171875 13.171875 23.230469 10.601563 22 8.59375 C 20.769531 6.585938 19.136719 5 17 5 C 14.863281 5 13.230469 6.585938 12 8.59375 C 10.769531 10.601563 9.828125 13.171875 9.09375 15.71875 C 9.066406 15.8125 9.058594 15.90625 9.03125 16 L 8 16 L 8 18 L 8.5 18 C 7.464844 22.222656 7 25.875 7 25.875 C 6.996094 25.917969 6.996094 25.957031 7 26 L 6 26 L 6 4 Z M 17 7 C 18.113281 7 19.214844 7.914063 20.28125 9.65625 C 21.347656 11.398438 22.265625 13.828125 22.96875 16.28125 C 24.324219 21 24.921875 25.648438 24.96875 26 L 9.03125 26 C 9.078125 25.648438 9.675781 21 11.03125 16.28125 C 11.734375 13.828125 12.652344 11.398438 13.71875 9.65625 C 14.785156 7.914063 15.886719 7 17 7 Z M 12 16 L 12 18 L 14 18 L 14 16 Z M 16 16 L 16 18 L 18 18 L 18 16 Z M 20 16 L 20 18 L 22 18 L 22 16 Z "></path>
</g>
</svg>
