<?xml version="1.0" encoding="UTF-8"?>
<svg xmlns="http://www.w3.org/2000/svg" xmlns:xlink="http://www.w3.org/1999/xlink" viewBox="0 0 32 32" version="1.1">
<g>
<path d="M 20.53125 2 C 20.53125 2 18.824219 2.859375 18.21875 4.59375 C 18.203125 4.585938 18.203125 4.574219 18.1875 4.5625 C 17.753906 4.304688 17.019531 4 16 4 C 14.933594 4 14 4.542969 12.875 5.375 C 11.75 6.207031 10.535156 7.390625 9.375 8.84375 C 7.054688 11.746094 5 15.804688 5 20.40625 C 5 25.800781 10.035156 30 16 30 C 21.964844 30 27 25.800781 27 20.40625 C 27 17.765625 25.992188 16.171875 25.15625 14.9375 C 24.320313 13.703125 23.65625 12.839844 23.65625 10.75 C 23.65625 9.378906 23.324219 8.007813 22.5625 6.90625 C 22.003906 6.097656 21.167969 5.445313 20.15625 5.15625 C 20.535156 4.332031 21.46875 3.78125 21.46875 3.78125 Z M 16 6 C 16.703125 6 16.839844 6.09375 17.15625 6.28125 C 17.472656 6.46875 18.027344 6.863281 18.875 6.96875 L 19 6.96875 C 19.863281 6.96875 20.433594 7.347656 20.90625 8.03125 C 21.378906 8.714844 21.65625 9.738281 21.65625 10.75 C 21.65625 13.316406 22.667969 14.835938 23.5 16.0625 C 24.332031 17.289063 25 18.226563 25 20.40625 C 25 24.539063 21.035156 28 16 28 C 10.964844 28 7 24.539063 7 20.40625 C 7 16.402344 8.828125 12.734375 10.9375 10.09375 C 11.992188 8.773438 13.101563 7.710938 14.0625 7 C 15.023438 6.289063 15.925781 6 16 6 Z M 16 14 C 15.347656 14 14.835938 14.25 14.3125 14.59375 C 13.789063 14.9375 13.261719 15.414063 12.78125 15.96875 C 11.816406 17.082031 11 18.597656 11 20.3125 C 11 23.476563 13.136719 26 16 26 C 18.863281 26 21 23.476563 21 20.3125 C 21 18.597656 20.183594 17.082031 19.21875 15.96875 C 18.738281 15.414063 18.210938 14.9375 17.6875 14.59375 C 17.164063 14.25 16.652344 14 16 14 Z M 16 16 C 15.945313 16 16.253906 16.058594 16.59375 16.28125 C 16.933594 16.503906 17.320313 16.855469 17.6875 17.28125 C 18.421875 18.132813 19 19.277344 19 20.3125 C 19 22.648438 17.734375 24 16 24 C 14.265625 24 13 22.648438 13 20.3125 C 13 19.277344 13.578125 18.132813 14.3125 17.28125 C 14.679688 16.855469 15.066406 16.503906 15.40625 16.28125 C 15.746094 16.058594 16.054688 16 16 16 Z "></path>
</g>
</svg>
