<?xml version="1.0" encoding="UTF-8"?>
<svg xmlns="http://www.w3.org/2000/svg" xmlns:xlink="http://www.w3.org/1999/xlink" viewBox="0 0 32 32" version="1.1">
<g>
<path d="M 13.78125 3 C 13.121094 3.074219 12.472656 3.605469 12.1875 4.375 C 11.804688 5.398438 12.207031 6.492188 13.0625 6.8125 C 13.917969 7.132813 14.898438 6.554688 15.28125 5.53125 C 15.664063 4.507813 15.292969 3.414063 14.4375 3.09375 C 14.222656 3.015625 14 2.976563 13.78125 3 Z M 9.84375 3.65625 C 9.34375 3.675781 8.972656 4.246094 9 4.90625 C 9.027344 5.566406 9.4375 6.082031 9.9375 6.0625 C 10.4375 6.042969 10.839844 5.472656 10.8125 4.8125 C 10.785156 4.152344 10.34375 3.636719 9.84375 3.65625 Z M 7.125 4.28125 C 7.074219 4.289063 7.019531 4.292969 6.96875 4.3125 C 6.550781 4.453125 6.363281 5.035156 6.5625 5.625 C 6.761719 6.214844 7.269531 6.578125 7.6875 6.4375 C 8.105469 6.296875 8.292969 5.714844 8.09375 5.125 C 7.941406 4.683594 7.609375 4.351563 7.28125 4.28125 C 7.226563 4.269531 7.175781 4.273438 7.125 4.28125 Z M 5.03125 5.59375 C 4.921875 5.597656 4.8125 5.628906 4.71875 5.6875 C 4.34375 5.914063 4.265625 6.515625 4.5625 7 C 4.859375 7.484375 5.40625 7.695313 5.78125 7.46875 C 6.15625 7.242188 6.234375 6.640625 5.9375 6.15625 C 5.714844 5.792969 5.355469 5.578125 5.03125 5.59375 Z M 9.4375 7 C 6.613281 7 4.0625 9.429688 4.0625 12.65625 C 4.0625 13.902344 4.304688 16.046875 5.09375 18.03125 C 5.488281 19.023438 6.027344 19.96875 6.8125 20.71875 C 7.597656 21.46875 8.664063 22 9.90625 22 C 11.042969 22 11.960938 21.5 12.4375 20.84375 C 12.914063 20.1875 13 19.472656 13 18.96875 C 13 17.753906 12.339844 16.933594 11.9375 16.46875 C 11.535156 16.003906 11.375 15.902344 11.375 15.21875 C 11.375 14.964844 11.75 14.476563 12.4375 13.78125 C 13.125 13.085938 14.0625 12.125 14.0625 10.6875 C 14.0625 9.472656 13.542969 8.390625 12.65625 7.78125 C 11.769531 7.171875 10.667969 7 9.4375 7 Z M 3.4375 7.59375 C 3.34375 7.613281 3.261719 7.65625 3.1875 7.71875 C 2.894531 7.96875 2.953125 8.488281 3.28125 8.875 C 3.609375 9.261719 4.113281 9.375 4.40625 9.125 C 4.699219 8.875 4.640625 8.355469 4.3125 7.96875 C 4.066406 7.679688 3.71875 7.539063 3.4375 7.59375 Z M 9.4375 9 C 10.445313 9 11.164063 9.1875 11.53125 9.4375 C 11.898438 9.6875 12.0625 9.945313 12.0625 10.6875 C 12.0625 11.203125 11.65625 11.707031 11 12.375 C 10.34375 13.042969 9.375 13.855469 9.375 15.21875 C 9.375 16.464844 10.027344 17.304688 10.4375 17.78125 C 10.847656 18.257813 11 18.339844 11 18.96875 C 11 19.136719 10.945313 19.472656 10.8125 19.65625 C 10.679688 19.839844 10.53125 20 9.90625 20 C 9.183594 20 8.675781 19.746094 8.1875 19.28125 C 7.699219 18.816406 7.261719 18.125 6.9375 17.3125 C 6.289063 15.683594 6.0625 13.632813 6.0625 12.65625 C 6.0625 10.484375 7.785156 9 9.4375 9 Z M 17.90625 10 C 17.796875 10.011719 17.667969 10.054688 17.5625 10.09375 C 16.707031 10.414063 16.335938 11.507813 16.71875 12.53125 C 17.101563 13.554688 18.082031 14.132813 18.9375 13.8125 C 19.792969 13.492188 20.195313 12.398438 19.8125 11.375 C 19.480469 10.480469 18.675781 9.910156 17.90625 10 Z M 22.15625 10.65625 C 21.65625 10.636719 21.214844 11.152344 21.1875 11.8125 C 21.160156 12.472656 21.5625 13.042969 22.0625 13.0625 C 22.5625 13.082031 22.972656 12.566406 23 11.90625 C 23.027344 11.246094 22.65625 10.675781 22.15625 10.65625 Z M 24.71875 11.28125 C 24.390625 11.351563 24.058594 11.683594 23.90625 12.125 C 23.707031 12.714844 23.894531 13.296875 24.3125 13.4375 C 24.730469 13.578125 25.238281 13.214844 25.4375 12.625 C 25.636719 12.035156 25.449219 11.453125 25.03125 11.3125 C 24.925781 11.277344 24.828125 11.257813 24.71875 11.28125 Z M 26.96875 12.59375 C 26.644531 12.578125 26.285156 12.792969 26.0625 13.15625 C 25.765625 13.640625 25.84375 14.242188 26.21875 14.46875 C 26.59375 14.695313 27.140625 14.484375 27.4375 14 C 27.734375 13.515625 27.65625 12.914063 27.28125 12.6875 C 27.1875 12.628906 27.078125 12.597656 26.96875 12.59375 Z M 22.5625 14 C 21.332031 14 20.230469 14.171875 19.34375 14.78125 C 18.457031 15.390625 17.9375 16.472656 17.9375 17.6875 C 17.9375 19.125 18.875 20.085938 19.5625 20.78125 C 20.25 21.476563 20.625 21.964844 20.625 22.21875 C 20.625 22.902344 20.464844 23.003906 20.0625 23.46875 C 19.660156 23.933594 19 24.753906 19 25.96875 C 19 26.472656 19.085938 27.1875 19.5625 27.84375 C 20.039063 28.5 20.957031 29 22.09375 29 C 23.335938 29 24.402344 28.46875 25.1875 27.71875 C 25.972656 26.96875 26.511719 26.023438 26.90625 25.03125 C 27.695313 23.046875 27.9375 20.902344 27.9375 19.65625 C 27.9375 16.425781 25.382813 14 22.5625 14 Z M 28.34375 14.59375 C 28.117188 14.625 27.871094 14.75 27.6875 14.96875 C 27.359375 15.355469 27.300781 15.875 27.59375 16.125 C 27.886719 16.375 28.390625 16.261719 28.71875 15.875 C 29.046875 15.488281 29.105469 14.96875 28.8125 14.71875 C 28.738281 14.65625 28.65625 14.613281 28.5625 14.59375 C 28.492188 14.578125 28.417969 14.582031 28.34375 14.59375 Z M 22.5625 16 C 24.214844 16 25.9375 17.480469 25.9375 19.65625 C 25.9375 20.632813 25.707031 22.683594 25.0625 24.3125 C 24.738281 25.125 24.300781 25.816406 23.8125 26.28125 C 23.324219 26.746094 22.816406 27 22.09375 27 C 21.46875 27 21.320313 26.839844 21.1875 26.65625 C 21.054688 26.472656 21 26.136719 21 25.96875 C 21 25.339844 21.152344 25.257813 21.5625 24.78125 C 21.972656 24.304688 22.625 23.464844 22.625 22.21875 C 22.625 20.855469 21.65625 20.042969 21 19.375 C 20.34375 18.707031 19.9375 18.207031 19.9375 17.6875 C 19.9375 16.945313 20.101563 16.6875 20.46875 16.4375 C 20.835938 16.1875 21.554688 16 22.5625 16 Z "></path>
</g>
</svg>
