<?xml version="1.0" encoding="UTF-8"?>
<svg xmlns="http://www.w3.org/2000/svg" xmlns:xlink="http://www.w3.org/1999/xlink" viewBox="0 0 32 32" version="1.1">
<g>
<path d="M 13.03125 4 L 12.75 4.1875 L 11.59375 5.03125 C 10.691406 5.070313 9.386719 5.261719 8.03125 5.9375 C 6.5 6.703125 5 8.25 5 10.59375 C 5 11.199219 5.148438 11.8125 5.28125 12.34375 C 5.351563 12.625 5.355469 12.667969 5.40625 12.84375 C 4.972656 13.417969 4 14.847656 4 17.09375 L 4 17.53125 L 4.3125 17.84375 L 6.3125 19.71875 L 6.71875 20.125 L 7.28125 19.96875 C 8.164063 19.710938 8.730469 19.148438 9.1875 18.5625 C 9.339844 19.34375 9.496094 20.097656 9.5 21.5 C 9.492188 21.5 9.46875 21.597656 9.4375 21.71875 C 9.398438 21.882813 9.34375 22.109375 9.28125 22.34375 C 9.152344 22.8125 9 23.292969 9 23.875 C 9 25.007813 9.59375 26.636719 11.4375 27.84375 L 11.6875 28 L 20.3125 28 L 20.5625 27.84375 C 22.40625 26.636719 23 25.007813 23 23.875 C 23 23.292969 22.847656 22.8125 22.71875 22.34375 C 22.65625 22.109375 22.601563 21.882813 22.5625 21.71875 C 22.535156 21.617188 22.511719 21.558594 22.5 21.53125 C 22.5 21.503906 22.496094 21.5 22.5 21.5 C 22.503906 20.097656 22.660156 19.34375 22.8125 18.5625 C 23.269531 19.148438 23.835938 19.710938 24.71875 19.96875 L 25.28125 20.125 L 25.6875 19.71875 L 27.6875 17.84375 L 28 17.53125 L 28 17.09375 C 28 14.847656 27.027344 13.417969 26.59375 12.84375 C 26.644531 12.667969 26.648438 12.625 26.71875 12.34375 C 26.851563 11.8125 27 11.199219 27 10.59375 C 27 8.25 25.5 6.703125 23.96875 5.9375 C 22.613281 5.261719 21.308594 5.070313 20.40625 5.03125 L 19.25 4.1875 L 18.96875 4 Z M 13.6875 6 L 18.3125 6 L 19.40625 6.8125 L 19.65625 7 L 20 7 C 20.539063 7 21.976563 7.160156 23.09375 7.71875 C 24.210938 8.277344 25 9.03125 25 10.59375 C 25 10.769531 24.898438 11.371094 24.78125 11.84375 C 24.664063 12.316406 24.53125 12.71875 24.53125 12.71875 L 24.375 13.21875 L 24.75 13.65625 C 24.75 13.65625 25.753906 15.023438 25.90625 16.75 L 24.9375 17.6875 C 24.589844 17.453125 24.203125 17.226563 23.96875 16.8125 C 23.644531 16.246094 23.5 15.75 23.5 15.75 L 23.3125 15 L 22.34375 15 C 21.027344 14.328125 20 12.871094 20 10 C 18.570313 10.441406 16 13.652344 16 14.53125 C 16 19.261719 18.300781 22.316406 19 23 C 19.472656 22.644531 20.03125 22.105469 20.5 21.34375 C 20.5 21.410156 20.5 21.464844 20.5 21.53125 C 20.5 21.84375 20.539063 22.007813 20.59375 22.21875 C 20.648438 22.429688 20.71875 22.652344 20.78125 22.875 C 20.902344 23.320313 21 23.804688 21 23.875 C 21 24.28125 20.726563 25.167969 19.59375 26 L 12.40625 26 C 11.273438 25.167969 11 24.28125 11 23.875 C 11 23.804688 11.097656 23.320313 11.21875 22.875 C 11.28125 22.652344 11.351563 22.429688 11.40625 22.21875 C 11.460938 22.007813 11.5 21.84375 11.5 21.53125 C 11.5 21.464844 11.5 21.410156 11.5 21.34375 C 11.96875 22.105469 12.527344 22.644531 13 23 C 13.699219 22.316406 16 19.261719 16 14.53125 C 16 13.652344 13.429688 10.441406 12 10 C 12 12.871094 10.972656 14.328125 9.65625 15 L 8.6875 15 L 8.5 15.75 C 8.5 15.75 8.355469 16.246094 8.03125 16.8125 C 7.796875 17.226563 7.410156 17.453125 7.0625 17.6875 L 6.09375 16.75 C 6.246094 15.023438 7.25 13.65625 7.25 13.65625 L 7.625 13.21875 L 7.46875 12.71875 C 7.46875 12.71875 7.335938 12.316406 7.21875 11.84375 C 7.101563 11.371094 7 10.769531 7 10.59375 C 7 9.03125 7.789063 8.277344 8.90625 7.71875 C 10.023438 7.160156 11.460938 7 12 7 L 12.34375 7 L 12.59375 6.8125 Z "></path>
</g>
</svg>
