<?xml version="1.0" encoding="UTF-8"?>
<svg xmlns="http://www.w3.org/2000/svg" xmlns:xlink="http://www.w3.org/1999/xlink" viewBox="0 0 32 32" version="1.1">
<g>
<path d="M 7.46875 6 L 7.15625 6.4375 L 1.15625 15.4375 L 0.8125 16 L 1.15625 16.5625 L 7.15625 25.5625 L 7.46875 26 L 31 26 L 31 6 Z M 8.5625 8 L 29 8 L 29 24 L 8.5625 24 L 3.21875 16 Z M 11.625 12 L 11.625 20 L 14.125 20 C 15.492188 20 16.625 18.867188 16.625 17.5 L 16.625 14.5 C 16.625 13.132813 15.492188 12 14.125 12 Z M 17.75 12 L 17.75 20 L 19.75 20 L 19.75 17 L 20.75 20 L 22.75 20 L 21.625 16.59375 C 22.308594 16.144531 22.75 15.371094 22.75 14.5 C 22.75 13.132813 21.617188 12 20.25 12 Z M 13.625 14 L 14.125 14 C 14.410156 14 14.625 14.214844 14.625 14.5 L 14.625 17.5 C 14.625 17.785156 14.410156 18 14.125 18 L 13.625 18 Z M 19.75 14 L 20.25 14 C 20.535156 14 20.75 14.214844 20.75 14.5 C 20.75 14.785156 20.535156 15 20.25 15 L 19.75 15 Z "></path>
</g>
</svg>
