<?xml version="1.0" encoding="UTF-8"?>
<svg xmlns="http://www.w3.org/2000/svg" xmlns:xlink="http://www.w3.org/1999/xlink" viewBox="0 0 32 32" version="1.1">
<g>
<path d="M 16 2 C 12.691406 2 10 4.691406 10 8 L 10 10 L 12 10 L 12 8 C 12 5.792969 13.792969 4 16 4 C 18.207031 4 20 5.792969 20 8 L 20 10 L 22 10 L 22 8 C 22 4.691406 19.308594 2 16 2 Z M 11 11 C 10.449219 11 10 11.449219 10 12 L 6.1875 12 L 2.78125 29 L 6 29 L 6 30 L 8 30 L 8 29 L 24 29 L 24 30 L 26 30 L 26 29 L 29.21875 29 L 25.8125 12 L 22 12 C 22 11.449219 21.550781 11 21 11 C 20.449219 11 20 11.449219 20 12 L 12 12 C 12 11.449219 11.550781 11 11 11 Z M 7.8125 14 L 24.1875 14 L 26.78125 27 L 5.21875 27 Z M 10 16 L 10 18 L 22 18 L 22 16 Z M 20 19 L 20 23 L 22 23 L 22 19 Z "></path>
</g>
</svg>
