<?xml version="1.0" encoding="UTF-8"?>
<svg xmlns="http://www.w3.org/2000/svg" xmlns:xlink="http://www.w3.org/1999/xlink" viewBox="0 0 32 32" version="1.1">
<g>
<path d="M 16 4 C 10.179688 4 3.75 5.75 3.75 5.75 L 2.8125 6 L 3.03125 6.90625 C 3.03125 6.90625 3.5625 9.605469 3.5625 11.71875 C 3.5625 13.101563 3.375 14.152344 3.21875 14.875 L 2.875 14.8125 L 3 16.09375 L 4 27.09375 L 4.09375 28 L 27.90625 28 L 28 27.09375 L 29 16.09375 L 29.125 14.8125 L 28.78125 14.875 C 28.625 14.148438 28.4375 13.089844 28.4375 11.71875 C 28.4375 9.621094 28.96875 7.21875 28.96875 7.21875 L 29.1875 6.3125 L 28.3125 6.03125 C 28.3125 6.03125 21.851563 4 16 4 Z M 16 6 C 20.824219 6 25.808594 7.425781 26.90625 7.75 C 26.753906 8.460938 26.4375 9.761719 26.4375 11.71875 C 26.4375 13.160156 26.644531 14.308594 26.8125 15.15625 C 26.371094 15.21875 25.660156 15.296875 25 15.375 L 25 12 L 23 12 L 23 9 L 9 9 L 9 12 L 7 12 L 7 15.375 C 6.339844 15.296875 5.628906 15.21875 5.1875 15.15625 C 5.355469 14.308594 5.5625 13.167969 5.5625 11.71875 C 5.5625 9.742188 5.242188 8.265625 5.09375 7.5 C 6.253906 7.207031 11.183594 6 16 6 Z M 11 11 L 15 11 L 15 12 L 11 12 Z M 17 11 L 21 11 L 21 12 L 17 12 Z M 9 14 L 23 14 L 23 15.59375 C 20.875 15.808594 18.398438 16 16 16 C 13.601563 16 11.125 15.808594 9 15.59375 Z M 5.125 17.15625 C 6.714844 17.386719 11.199219 18 16 18 C 20.800781 18 25.285156 17.386719 26.875 17.15625 L 26.09375 26 L 5.90625 26 Z M 16 21 C 14.894531 21 14 21.449219 14 22 C 14 22.550781 14.894531 23 16 23 C 17.105469 23 18 22.550781 18 22 C 18 21.449219 17.105469 21 16 21 Z "></path>
</g>
</svg>
