<?xml version="1.0" encoding="UTF-8"?>
<svg xmlns="http://www.w3.org/2000/svg" xmlns:xlink="http://www.w3.org/1999/xlink" viewBox="0 0 32 32" version="1.1">
<g>
<path d="M 16 2 C 12.699219 2 10 4.699219 10 8 L 10 10 L 12 10 L 12 8 C 12 5.777344 13.777344 4 16 4 C 18.222656 4 20 5.777344 20 8 L 20 10 L 22 10 L 22 8 C 22 4.699219 19.300781 2 16 2 Z M 11 11 C 10.449219 11 10 11.449219 10 12 L 6.28125 12 L 6.0625 12.6875 L 3.8125 19.4375 L 4.46875 19.84375 C 4.46875 19.84375 4.578125 19.898438 4.59375 19.90625 L 3.03125 27.8125 L 2.78125 29 L 6 29 L 6 30 L 8 30 L 8 29 L 24 29 L 24 30 L 26 30 L 26 29 L 29.21875 29 L 28.96875 27.8125 L 27.40625 19.90625 C 27.421875 19.898438 27.53125 19.84375 27.53125 19.84375 L 28.1875 19.4375 L 25.9375 12.6875 L 25.71875 12 L 22 12 C 22 11.449219 21.550781 11 21 11 C 20.449219 11 20 11.449219 20 12 L 12 12 C 12 11.449219 11.550781 11 11 11 Z M 7.71875 14 L 24.28125 14 L 25.78125 18.4375 C 25.496094 18.585938 25.351563 18.703125 24.1875 19.03125 C 22.515625 19.503906 19.851563 20 16 20 C 12.148438 20 9.484375 19.503906 7.8125 19.03125 C 6.648438 18.703125 6.503906 18.585938 6.21875 18.4375 Z M 6.46875 20.6875 C 6.730469 20.777344 6.96875 20.878906 7.28125 20.96875 C 8.808594 21.402344 11.035156 21.800781 14 21.9375 C 14 21.957031 14 21.980469 14 22 C 14 23.105469 14.894531 24 16 24 C 17.105469 24 18 23.105469 18 22 C 18 21.980469 18 21.957031 18 21.9375 C 20.964844 21.800781 23.191406 21.402344 24.71875 20.96875 C 25.03125 20.878906 25.269531 20.777344 25.53125 20.6875 L 26.78125 27 L 5.21875 27 Z "></path>
</g>
</svg>
