<?xml version="1.0" encoding="UTF-8"?>
<svg xmlns="http://www.w3.org/2000/svg" xmlns:xlink="http://www.w3.org/1999/xlink" viewBox="0 0 32 32" version="1.1">
<g>
<path d="M 15 2 L 15 10 L 17 10 L 17 2 Z M 16 11 C 15.449219 11 15 11.449219 15 12 L 13 12 C 10.355469 12 8.5 13.566406 8.125 15.59375 L 7 21.8125 L 9 22.1875 L 10.09375 15.96875 L 10.09375 15.9375 C 10.214844 15.3125 10.535156 14.839844 11.0625 14.5 L 11 14.84375 L 9 27.84375 L 8.84375 29 L 11.21875 29 L 11.21875 30 L 13.21875 30 L 13.21875 29 L 19 29 L 19 30 L 21 30 L 21 29 L 23.15625 29 L 23 27.84375 L 20.84375 14.25 C 20.617188 12.898438 19.359375 12 18 12 L 17 12 C 17 11.449219 16.550781 11 16 11 Z M 13 14 L 18 14 C 18.429688 14 18.648438 14.261719 18.75 14.5 L 16 15.875 L 12.5 14.125 C 12.699219 14.105469 12.769531 14 13 14 Z M 12.78125 16.53125 L 15 17.625 L 15 22 L 17 22 L 17 17.625 L 19.1875 16.53125 L 20.8125 27 L 11.1875 27 Z "></path>
</g>
</svg>
