<?xml version="1.0" encoding="UTF-8"?>
<svg xmlns="http://www.w3.org/2000/svg" xmlns:xlink="http://www.w3.org/1999/xlink" viewBox="0 0 32 32" version="1.1">
<g>
<path d="M 12.5 3 C 10.578125 3 9 4.578125 9 6.5 C 9 8.421875 10.578125 10 12.5 10 C 13.875 10 15.054688 9.164063 15.625 8 L 21 8 L 22 7 L 22 6 L 21 5 L 19 5 L 18 6 L 17 5 L 15.625 5 C 15.054688 3.835938 13.875 3 12.5 3 Z M 12.5 5 C 12.675781 5 12.84375 5.039063 13 5.09375 L 13 7.90625 C 12.84375 7.960938 12.675781 8 12.5 8 C 11.660156 8 11 7.339844 11 6.5 C 11 5.660156 11.660156 5 12.5 5 Z M 6 12 L 6 29 L 26 29 L 26 12 Z M 8 14 L 24 14 L 24 27 L 8 27 Z M 15.03125 15 C 13.925781 15 13 15.925781 13 17.03125 L 13 18 L 10 18 L 10 25 L 22 25 L 22 18 L 19 18 L 19 17.03125 C 19 15.925781 18.074219 15 16.96875 15 Z M 15.03125 17 L 16.96875 17 C 16.992188 17 17 17.007813 17 17.03125 L 17 18 L 15 18 L 15 17.03125 C 15 17.007813 15.007813 17 15.03125 17 Z M 12 20 L 20 20 L 20 23 L 12 23 Z "></path>
</g>
</svg>
