<?xml version="1.0" encoding="UTF-8"?>
<svg xmlns="http://www.w3.org/2000/svg" xmlns:xlink="http://www.w3.org/1999/xlink" viewBox="0 0 32 32" version="1.1">
<g>
<path d="M 21.5 3.96875 C 19.058594 3.96875 16.96875 5.726563 16.96875 8.09375 C 16.96875 9.183594 17.289063 10.054688 17.53125 10.9375 C 17.773438 11.820313 17.96875 12.746094 17.96875 14.1875 C 17.96875 14.574219 17.757813 15.398438 17.5 16.4375 C 17.242188 17.476563 16.96875 18.789063 16.96875 20.3125 C 16.96875 23.195313 19.042969 26.03125 22.09375 26.03125 C 24.117188 26.03125 25.691406 24.546875 26.625 22.53125 C 27.558594 20.515625 28.03125 17.867188 28.03125 14.8125 C 28.03125 14.640625 28.035156 14.480469 28.03125 14.3125 C 28.046875 14.175781 28.039063 14.039063 28 13.90625 C 27.71875 7.019531 24.265625 3.96875 21.5 3.96875 Z M 10.5 5.96875 C 7.734375 5.96875 4.28125 9.019531 4 15.90625 C 4 15.9375 4 15.96875 4 16 C 4 16.011719 4 16.019531 4 16.03125 C 3.972656 16.132813 3.960938 16.238281 3.96875 16.34375 C 3.964844 16.5 3.96875 16.652344 3.96875 16.8125 C 3.96875 19.867188 4.441406 22.515625 5.375 24.53125 C 6.308594 26.546875 7.882813 28.03125 9.90625 28.03125 C 12.957031 28.03125 15.03125 25.195313 15.03125 22.3125 C 15.03125 20.789063 14.757813 19.476563 14.5 18.4375 C 14.242188 17.398438 14.03125 16.574219 14.03125 16.1875 C 14.03125 14.746094 14.226563 13.820313 14.46875 12.9375 C 14.710938 12.054688 15.03125 11.183594 15.03125 10.09375 C 15.03125 7.726563 12.941406 5.96875 10.5 5.96875 Z M 21.5 6.03125 C 21.816406 6.03125 22.296875 6.21875 22.84375 6.59375 C 21.984375 7.316406 21.417969 8.363281 21.15625 9.46875 C 20.746094 11.203125 20.8125 13.21875 20.8125 15.3125 C 20.8125 17.386719 21.390625 19.386719 22.59375 20.625 C 23.160156 21.207031 23.996094 21.589844 24.875 21.46875 C 24.84375 21.542969 24.8125 21.617188 24.78125 21.6875 C 24.039063 23.296875 23.171875 23.96875 22.09375 23.96875 C 20.347656 23.96875 19.03125 22.230469 19.03125 20.3125 C 19.03125 19.035156 19.257813 17.921875 19.5 16.9375 C 19.742188 15.953125 20.03125 15.097656 20.03125 14.1875 C 20.03125 12.527344 19.726563 11.347656 19.46875 10.40625 C 19.210938 9.464844 19.03125 8.804688 19.03125 8.09375 C 19.03125 6.859375 19.941406 6.03125 21.5 6.03125 Z M 24.25 8 C 25.089844 9.214844 25.804688 11.097656 25.9375 13.875 C 25.820313 14.007813 25.703125 14.128906 25.5 14.34375 C 23.96875 13.546875 22.90625 11.65625 22.90625 11.65625 C 22.90625 11.644531 22.90625 11.636719 22.90625 11.625 C 22.953125 10.992188 23.007813 10.398438 23.125 9.90625 C 23.355469 8.921875 23.648438 8.351563 24.25 8 Z M 10.5 8.03125 C 12.058594 8.03125 12.96875 8.859375 12.96875 10.09375 C 12.96875 10.804688 12.789063 11.464844 12.53125 12.40625 C 12.273438 13.347656 11.96875 14.527344 11.96875 16.1875 C 11.96875 17.097656 12.257813 17.953125 12.5 18.9375 C 12.742188 19.921875 12.96875 21.035156 12.96875 22.3125 C 12.96875 24.230469 11.652344 25.96875 9.90625 25.96875 C 8.828125 25.96875 7.960938 25.296875 7.21875 23.6875 C 7.1875 23.617188 7.15625 23.542969 7.125 23.46875 C 8.003906 23.589844 8.839844 23.207031 9.40625 22.625 C 10.609375 21.386719 11.1875 19.386719 11.1875 17.3125 C 11.1875 15.21875 11.253906 13.203125 10.84375 11.46875 C 10.582031 10.363281 10.015625 9.316406 9.15625 8.59375 C 9.703125 8.21875 10.183594 8.03125 10.5 8.03125 Z M 7.75 10 C 8.351563 10.351563 8.644531 10.921875 8.875 11.90625 C 8.992188 12.398438 9.046875 12.992188 9.09375 13.625 C 9.09375 13.636719 9.09375 13.644531 9.09375 13.65625 C 9.09375 13.65625 8.03125 15.546875 6.5 16.34375 C 6.296875 16.128906 6.179688 16.007813 6.0625 15.875 C 6.195313 13.097656 6.910156 11.214844 7.75 10 Z M 22.8125 14.875 C 23.136719 15.195313 23.488281 15.507813 23.90625 15.78125 C 23.542969 16.039063 23.199219 16.230469 22.90625 16.375 C 22.851563 16.027344 22.8125 15.667969 22.8125 15.3125 C 22.8125 15.160156 22.8125 15.027344 22.8125 14.875 Z M 25.875 16.78125 C 25.828125 17.398438 25.777344 17.976563 25.6875 18.53125 L 25.625 18.5 C 25.15625 19.289063 24.777344 19.5 24.625 19.53125 C 24.472656 19.5625 24.328125 19.523438 24.03125 19.21875 C 23.847656 19.03125 23.667969 18.730469 23.5 18.375 C 24.421875 18.050781 25.183594 17.402344 25.875 16.78125 Z M 9.1875 16.875 C 9.1875 17.027344 9.1875 17.160156 9.1875 17.3125 C 9.1875 17.667969 9.148438 18.027344 9.09375 18.375 C 8.800781 18.230469 8.457031 18.039063 8.09375 17.78125 C 8.511719 17.507813 8.863281 17.195313 9.1875 16.875 Z M 6.125 18.78125 C 6.816406 19.402344 7.578125 20.050781 8.5 20.375 C 8.332031 20.730469 8.152344 21.03125 7.96875 21.21875 C 7.671875 21.523438 7.527344 21.5625 7.375 21.53125 C 7.222656 21.5 6.84375 21.289063 6.375 20.5 L 6.3125 20.53125 C 6.222656 19.976563 6.171875 19.398438 6.125 18.78125 Z "></path>
</g>
</svg>
