<?xml version="1.0" encoding="UTF-8"?>
<svg xmlns="http://www.w3.org/2000/svg" xmlns:xlink="http://www.w3.org/1999/xlink" viewBox="0 0 32 32" version="1.1">
<g>
<path d="M 15.46875 4 C 14.289063 4 13.082031 4.449219 12.1875 5.34375 L 10.34375 7.1875 C 9.636719 7.894531 9.242188 8.789063 9.09375 9.71875 C 9.089844 9.738281 9.066406 9.761719 9.0625 9.78125 C 9.0625 9.792969 9.0625 9.800781 9.0625 9.8125 C 8.9375 10.054688 8.914063 10.335938 9 10.59375 C 9.011719 10.605469 9.019531 10.613281 9.03125 10.625 C 9.070313 11.757813 9.488281 12.863281 10.34375 13.71875 L 12.59375 15.96875 L 9.5 19.0625 L 7.71875 17.28125 L 7 16.59375 L 6.28125 17.28125 L 4.28125 19.28125 L 3.59375 20 L 4.28125 20.71875 L 11.28125 27.71875 L 11.59375 28 L 28 28 L 28 23 L 13.4375 23 L 10.9375 20.5 L 14.03125 17.40625 L 16.28125 19.65625 C 17.3125 20.6875 18.734375 21.09375 20.09375 20.9375 C 20.15625 20.929688 20.21875 20.945313 20.28125 20.9375 C 20.335938 20.929688 20.386719 20.921875 20.4375 20.90625 C 20.511719 20.890625 20.582031 20.863281 20.65625 20.84375 C 21.449219 20.652344 22.199219 20.269531 22.8125 19.65625 L 24.65625 17.8125 C 25.414063 17.054688 25.824219 16.09375 25.9375 15.09375 C 25.9375 15.082031 25.9375 15.074219 25.9375 15.0625 C 25.941406 15.039063 25.964844 15.023438 25.96875 15 C 25.972656 14.9375 25.972656 14.875 25.96875 14.8125 C 26.039063 13.542969 25.613281 12.238281 24.65625 11.28125 L 23.34375 10 C 23.335938 9.980469 23.324219 9.957031 23.3125 9.9375 L 23.3125 9.90625 C 23.214844 9.71875 23.0625 9.566406 22.875 9.46875 C 22.855469 9.457031 22.832031 9.445313 22.8125 9.4375 L 20.78125 7.40625 C 20.703125 7.304688 20.609375 7.222656 20.5 7.15625 L 18.71875 5.34375 C 17.9375 4.5625 16.933594 4.160156 15.90625 4.0625 C 15.875 4.050781 15.84375 4.039063 15.8125 4.03125 C 15.769531 4.027344 15.730469 4.035156 15.6875 4.03125 C 15.613281 4.027344 15.542969 4 15.46875 4 Z M 24.28125 4.28125 L 21.875 6.71875 L 23.28125 8.125 L 25.71875 5.71875 Z M 16.3125 6.15625 C 16.664063 6.277344 16.992188 6.460938 17.28125 6.75 L 18.84375 8.3125 C 18.746094 8.714844 18.621094 9.152344 18.53125 9.6875 C 17.539063 9.730469 16.566406 9.769531 15.6875 9.75 C 15.761719 8.5625 15.949219 7.332031 16.3125 6.15625 Z M 14.1875 6.34375 C 13.898438 7.464844 13.726563 8.570313 13.65625 9.65625 C 12.65625 9.585938 11.8125 9.511719 11.21875 9.4375 C 11.347656 9.140625 11.503906 8.871094 11.75 8.625 L 13.625 6.75 C 13.792969 6.582031 13.988281 6.453125 14.1875 6.34375 Z M 21.9375 11.40625 L 23.25 12.71875 C 23.609375 13.078125 23.832031 13.515625 23.9375 13.96875 C 22.597656 14.144531 21.355469 14.261719 20.25 14.3125 C 20.210938 13.328125 20.238281 12.414063 20.3125 11.59375 C 20.847656 11.546875 21.390625 11.480469 21.9375 11.40625 Z M 11.1875 11.4375 C 11.816406 11.515625 12.640625 11.589844 13.625 11.65625 C 13.648438 12.5 13.691406 13.300781 13.78125 14.03125 C 13.597656 13.996094 13.46875 13.953125 13.40625 13.9375 L 11.75 12.28125 C 11.492188 12.023438 11.316406 11.75 11.1875 11.4375 Z M 18.3125 11.71875 C 18.25 12.53125 18.214844 13.425781 18.25 14.375 C 17.332031 14.367188 16.550781 14.335938 15.875 14.28125 C 15.769531 13.515625 15.6875 12.660156 15.65625 11.75 C 16.484375 11.769531 17.382813 11.753906 18.3125 11.71875 Z M 23.5 16.0625 C 23.421875 16.167969 23.347656 16.277344 23.25 16.375 L 21.375 18.25 C 21.230469 18.394531 21.074219 18.519531 20.90625 18.625 C 20.695313 17.835938 20.542969 17.089844 20.4375 16.34375 C 21.378906 16.300781 22.410156 16.1875 23.5 16.0625 Z M 16.21875 16.28125 C 16.867188 16.324219 17.625 16.371094 18.4375 16.375 C 18.542969 17.195313 18.683594 18.035156 18.90625 18.90625 C 18.476563 18.792969 18.0625 18.59375 17.71875 18.25 L 16.375 16.875 C 16.328125 16.695313 16.269531 16.519531 16.21875 16.28125 Z M 7 19.4375 L 12.28125 24.71875 L 12.59375 25 L 26 25 L 26 26 L 12.4375 26 L 6.4375 20 Z "></path>
</g>
</svg>
