<?xml version="1.0" encoding="UTF-8"?>
<svg xmlns="http://www.w3.org/2000/svg" xmlns:xlink="http://www.w3.org/1999/xlink" viewBox="0 0 32 32" version="1.1">
<g>
<path d="M 16 7 C 13.832031 7 11.929688 8.175781 10.875 9.90625 C 9.957031 8.765625 8.570313 8 7 8 C 4.25 8 2 10.25 2 13 C 2 13.6875 2.15625 14.34375 2.40625 14.9375 C 1.574219 15.605469 1 16.667969 1 17.9375 C 1 19.179688 1.585938 21.128906 3.78125 22.5625 C 5.976563 23.996094 9.648438 25 16 25 C 22.351563 25 26.023438 23.996094 28.21875 22.5625 C 30.414063 21.128906 31 19.179688 31 17.9375 C 31 16.667969 30.425781 15.605469 29.59375 14.9375 C 29.84375 14.34375 30 13.6875 30 13 C 30 10.25 27.75 8 25 8 C 23.429688 8 22.042969 8.765625 21.125 9.90625 C 20.070313 8.175781 18.167969 7 16 7 Z M 16 9 C 17.011719 9 17.921875 9.386719 18.625 10 C 17.921875 10.617188 17.011719 11 16 11 C 14.988281 11 14.078125 10.617188 13.375 10 C 14.078125 9.386719 14.988281 9 16 9 Z M 7 10 C 7.609375 10 8.183594 10.160156 8.65625 10.46875 C 8.183594 10.796875 7.625 11 7 11 C 6.375 11 5.816406 10.796875 5.34375 10.46875 C 5.816406 10.160156 6.390625 10 7 10 Z M 25 10 C 25.609375 10 26.183594 10.160156 26.65625 10.46875 C 26.183594 10.796875 25.625 11 25 11 C 24.375 11 23.816406 10.796875 23.34375 10.46875 C 23.816406 10.160156 24.390625 10 25 10 Z M 12.25 11.65625 C 13.277344 12.488281 14.582031 13 16 13 C 17.425781 13 18.722656 12.492188 19.75 11.65625 C 19.898438 12.078125 20 12.527344 20 13 C 20 13.648438 19.835938 14.242188 19.5625 14.78125 C 18.242188 14.902344 16.984375 15 16 15 C 15.015625 15 13.757813 14.902344 12.4375 14.78125 C 12.164063 14.242188 12 13.648438 12 13 C 12 12.527344 12.101563 12.078125 12.25 11.65625 Z M 4.15625 12.09375 C 4.960938 12.664063 5.933594 13 7 13 C 8.066406 13 9.039063 12.664063 9.84375 12.09375 C 9.933594 12.382813 10 12.679688 10 13 C 10 13.546875 9.859375 14.058594 9.59375 14.5 C 8.527344 14.371094 7.488281 14.230469 6.53125 14.09375 C 5.875 14 5.21875 13.953125 4.59375 14.03125 C 4.464844 14.046875 4.34375 14.097656 4.21875 14.125 C 4.074219 13.777344 4 13.402344 4 13 C 4 12.679688 4.066406 12.382813 4.15625 12.09375 Z M 22.15625 12.09375 C 22.960938 12.664063 23.933594 13 25 13 C 26.066406 13 27.039063 12.664063 27.84375 12.09375 C 27.933594 12.382813 28 12.679688 28 13 C 28 13.40625 27.898438 13.777344 27.75 14.125 C 27.023438 13.984375 26.246094 13.984375 25.46875 14.09375 C 24.511719 14.230469 23.472656 14.371094 22.40625 14.5 C 22.140625 14.058594 22 13.546875 22 13 C 22 12.679688 22.066406 12.382813 22.15625 12.09375 Z M 5.53125 16 C 5.765625 16.003906 6 16.027344 6.25 16.0625 C 9.328125 16.5 13.300781 17 16 17 C 18.699219 17 22.671875 16.5 25.75 16.0625 C 26.757813 15.917969 27.65625 16.042969 28.1875 16.34375 C 28.71875 16.644531 29 17.019531 29 17.9375 C 29 18.664063 28.808594 19.773438 27.125 20.875 C 25.441406 21.976563 22.132813 23 16 23 C 9.867188 23 6.558594 21.976563 4.875 20.875 C 3.191406 19.773438 3 18.664063 3 17.9375 C 3 17.019531 3.28125 16.644531 3.8125 16.34375 C 4.210938 16.117188 4.828125 15.988281 5.53125 16 Z "></path>
</g>
</svg>
