<?xml version="1.0" encoding="UTF-8"?>
<svg xmlns="http://www.w3.org/2000/svg" xmlns:xlink="http://www.w3.org/1999/xlink" viewBox="0 0 32 32" version="1.1">
<g>
<path d="M 27.375 3.28125 C 26.480469 3.960938 25.878906 4.601563 25.53125 5.34375 C 25.496094 5.417969 25.527344 5.488281 25.5 5.5625 L 25.46875 5.53125 C 25.257813 6 25.113281 6.144531 25.03125 6.21875 C 24.949219 6.292969 24.871094 6.351563 24.5625 6.46875 C 23.949219 6.703125 22.792969 7.140625 21.15625 8.625 C 19.890625 9.773438 19.0625 11.40625 18.09375 13.03125 C 17.125 14.65625 16.058594 16.289063 14.5625 17.4375 C 12.84375 18.757813 11.320313 19.277344 9.875 19.75 C 8.429688 20.222656 6.980469 20.628906 5.75 21.78125 C 5.335938 22.171875 5.074219 22.621094 4.75 23.09375 C 4.425781 23.566406 4.15625 23.96875 4.15625 23.96875 L 4 24.21875 L 4 25.78125 L 4.34375 26.09375 C 4.90625 26.59375 6.5625 28 9.09375 28 C 22.796875 28 28 18.933594 28 13.53125 C 28 10.359375 27.394531 8.453125 27.25 7.34375 C 27.175781 6.789063 27.199219 6.5 27.34375 6.1875 C 27.488281 5.875 27.835938 5.453125 28.59375 4.875 Z M 25.375 8.28125 C 25.609375 9.585938 26 11.027344 26 13.53125 C 26 17.625 21.917969 26 9.09375 26 C 7.9375 26 7.117188 25.640625 6.53125 25.25 C 14.375 24.949219 22.125 19.875 24.09375 12.65625 L 23.125 12.40625 C 21.289063 19.132813 13.851563 24.015625 6.375 24.25 C 6.386719 24.230469 6.394531 24.238281 6.40625 24.21875 C 6.710938 23.773438 7.164063 23.214844 7.125 23.25 C 7.941406 22.484375 9.019531 22.140625 10.5 21.65625 C 11.980469 21.171875 13.8125 20.511719 15.78125 19 C 17.621094 17.585938 18.808594 15.742188 19.8125 14.0625 C 20.816406 12.382813 21.652344 10.863281 22.5 10.09375 C 23.964844 8.765625 24.636719 8.589844 25.28125 8.34375 C 25.308594 8.332031 25.34375 8.292969 25.375 8.28125 Z "></path>
</g>
</svg>
