<?xml version="1.0" encoding="UTF-8"?>
<svg xmlns="http://www.w3.org/2000/svg" xmlns:xlink="http://www.w3.org/1999/xlink" viewBox="0 0 32 32" version="1.1">
<g>
<path d="M 19.675781 2.015625 C 16.84375 1.84375 12.691406 3.984375 8.835938 7.835938 C 3.699219 12.976563 1.613281 18.640625 3.984375 21.015625 C 4.519531 21.546875 5.226563 21.84375 6.046875 21.941406 C 6.144531 22.726563 6.425781 23.457031 6.984375 24.015625 C 7.539063 24.570313 8.269531 24.859375 9.050781 24.957031 C 9.148438 25.738281 9.429688 26.460938 9.984375 27.015625 C 10.691406 27.722656 11.679688 28.007813 12.699219 28 C 13.714844 27.992188 14.800781 27.714844 15.949219 27.242188 C 18.246094 26.296875 20.789063 24.535156 23.160156 22.160156 C 25.535156 19.789063 27.296875 17.246094 28.242188 14.949219 C 28.714844 13.800781 28.992188 12.714844 29 11.699219 C 29.007813 10.679688 28.722656 9.691406 28.015625 8.984375 C 27.460938 8.429688 26.738281 8.148438 25.957031 8.050781 C 25.859375 7.269531 25.570313 6.539063 25.015625 5.984375 C 24.457031 5.425781 23.726563 5.144531 22.941406 5.046875 C 22.84375 4.226563 22.550781 3.519531 22.015625 2.984375 C 21.421875 2.390625 20.621094 2.074219 19.675781 2.015625 Z M 19.34375 3.984375 C 19.894531 3.984375 20.324219 4.121094 20.601563 4.398438 C 21.898438 5.695313 20.097656 10.398438 15.75 14.75 C 11.398438 19.101563 6.699219 20.894531 5.398438 19.601563 C 4.101563 18.304688 5.902344 13.601563 10.25 9.25 C 13.675781 5.828125 17.3125 3.984375 19.34375 3.984375 Z M 19.515625 5.582031 C 17.101563 6.472656 14.339844 8.335938 11.839844 10.839844 C 9.339844 13.335938 7.476563 16.09375 6.585938 18.507813 C 6.609375 18.507813 6.628906 18.511719 6.65625 18.511719 C 7.246094 18.511719 8.089844 18.269531 9.082031 17.796875 C 10 16.011719 11.449219 14.054688 13.25 12.25 C 15.054688 10.449219 17.011719 9.003906 18.796875 8.082031 C 19.351563 6.90625 19.550781 6.023438 19.515625 5.582031 Z M 22.828125 7.046875 C 23.175781 7.105469 23.429688 7.226563 23.601563 7.398438 C 23.847656 7.644531 24.003906 8.03125 24 8.679688 C 23.996094 9.332031 23.796875 10.207031 23.390625 11.1875 C 23.277344 11.464844 23.144531 11.75 23 12.042969 C 23 12.027344 23 12.015625 23 12 C 23 11.449219 22.550781 11 22 11 C 21.449219 11 21 11.449219 21 12 C 21 12.550781 21.449219 13 22 13 C 22.210938 13 22.414063 12.933594 22.585938 12.808594 C 21.6875 14.390625 20.382813 16.113281 18.75 17.75 C 17.113281 19.382813 15.390625 20.683594 13.8125 21.582031 C 13.933594 21.414063 14 21.210938 14 21 C 14 20.449219 13.550781 20 13 20 C 12.449219 20 12 20.449219 12 21 C 12 21.550781 12.449219 22 13 22 C 13.015625 22 13.027344 22 13.042969 22 C 12.75 22.144531 12.464844 22.277344 12.1875 22.390625 C 11.207031 22.796875 10.332031 22.996094 9.679688 23 C 9.03125 23.003906 8.644531 22.847656 8.398438 22.601563 C 8.226563 22.429688 8.105469 22.171875 8.046875 21.824219 C 10.707031 21.28125 14.027344 19.296875 17.160156 16.160156 C 20.296875 13.027344 22.285156 9.703125 22.828125 7.046875 Z M 25.839844 10.046875 C 26.179688 10.109375 26.429688 10.226563 26.601563 10.398438 C 26.847656 10.644531 27.003906 11.03125 27 11.683594 C 26.996094 12.332031 26.796875 13.207031 26.390625 14.1875 C 25.582031 16.148438 23.964844 18.535156 21.75 20.75 C 19.53125 22.960938 17.148438 24.582031 15.1875 25.390625 C 14.207031 25.796875 13.332031 25.996094 12.683594 26 C 12.03125 26.003906 11.644531 25.847656 11.398438 25.601563 C 11.226563 25.429688 11.109375 25.179688 11.046875 24.839844 C 11.660156 24.710938 12.292969 24.511719 12.949219 24.242188 C 15.246094 23.296875 17.789063 21.535156 20.160156 19.160156 C 22.535156 16.789063 24.296875 14.246094 25.242188 11.949219 C 25.511719 11.292969 25.710938 10.660156 25.839844 10.046875 Z M 18 16 C 17.449219 16 17 16.449219 17 17 C 17 17.550781 17.449219 18 18 18 C 18.550781 18 19 17.550781 19 17 C 19 16.449219 18.550781 16 18 16 Z "></path>
</g>
</svg>
