<?xml version="1.0" encoding="UTF-8"?>
<svg xmlns="http://www.w3.org/2000/svg" xmlns:xlink="http://www.w3.org/1999/xlink" viewBox="0 0 32 32" version="1.1">
<g>
<path d="M 27.9375 4.75 L 3.15625 9 L 15 9 L 26.3125 7.0625 L 26.65625 9 L 28.6875 9 Z M 2 10 L 2 26 L 30 26 L 30 10 Z M 6.9375 12 L 25.0625 12 C 25.027344 12.164063 25 12.328125 25 12.5 C 25 13.878906 26.121094 15 27.5 15 C 27.671875 15 27.835938 14.972656 28 14.9375 L 28 21.0625 C 27.835938 21.027344 27.671875 21 27.5 21 C 26.121094 21 25 22.121094 25 23.5 C 25 23.671875 25.027344 23.835938 25.0625 24 L 6.9375 24 C 6.972656 23.835938 7 23.671875 7 23.5 C 7 22.121094 5.878906 21 4.5 21 C 4.328125 21 4.164063 21.027344 4 21.0625 L 4 14.9375 C 4.164063 14.972656 4.328125 15 4.5 15 C 5.878906 15 7 13.878906 7 12.5 C 7 12.328125 6.972656 12.164063 6.9375 12 Z M 16 13 C 13.25 13 11 15.25 11 18 C 11 20.75 13.25 23 16 23 C 18.75 23 21 20.75 21 18 C 21 15.25 18.75 13 16 13 Z M 16 15 C 17.667969 15 19 16.332031 19 18 C 19 19.667969 17.667969 21 16 21 C 14.332031 21 13 19.667969 13 18 C 13 16.332031 14.332031 15 16 15 Z "></path>
</g>
</svg>
