<?xml version="1.0" encoding="UTF-8"?>
<svg xmlns="http://www.w3.org/2000/svg" xmlns:xlink="http://www.w3.org/1999/xlink" viewBox="0 0 32 32" version="1.1">
<g>
<path d="M 7 5 C 5.355469 5 4 6.355469 4 8 C 4 9.644531 5.355469 11 7 11 C 8.644531 11 10 9.644531 10 8 C 10 6.355469 8.644531 5 7 5 Z M 22 5 C 20.355469 5 19 6.355469 19 8 C 19 9.644531 20.355469 11 22 11 C 23.644531 11 25 9.644531 25 8 C 25 6.355469 23.644531 5 22 5 Z M 7 7 C 7.5625 7 8 7.4375 8 8 C 8 8.5625 7.5625 9 7 9 C 6.4375 9 6 8.5625 6 8 C 6 7.4375 6.4375 7 7 7 Z M 22 7 C 22.5625 7 23 7.4375 23 8 C 23 8.5625 22.5625 9 22 9 C 21.4375 9 21 8.5625 21 8 C 21 7.4375 21.4375 7 22 7 Z M 27.03125 8.8125 L 26.21875 12.90625 L 26.21875 12.96875 C 26.21875 12.980469 26.121094 12.980469 26.15625 13 L 24.875 12.3125 L 24.8125 12.28125 L 24.71875 12.25 C 24.417969 12.148438 24.023438 12 23.5 12 L 20.40625 12 C 19.882813 12 19.488281 12.148438 19.1875 12.25 L 19.09375 12.28125 L 19.03125 12.3125 L 17.75 13 C 17.785156 12.980469 17.6875 12.980469 17.6875 12.96875 L 17.6875 12.9375 L 17 8.84375 L 15 9.15625 L 15.71875 13.25 C 15.722656 13.265625 15.746094 13.265625 15.75 13.28125 C 15.976563 14.636719 17.433594 15.390625 18.65625 14.78125 L 18.6875 14.78125 L 19 14.59375 L 19 17 L 16 17 L 16 19 L 28 19 L 28 17 L 25 17 L 25 14.65625 L 25.21875 14.78125 L 25.25 14.78125 C 26.472656 15.390625 27.929688 14.636719 28.15625 13.28125 L 28.1875 13.28125 C 28.1875 13.273438 28.1875 13.257813 28.1875 13.25 L 28.96875 9.1875 Z M 6.59375 12 C 5.175781 12 4 13.175781 4 14.59375 L 4 27 L 6 27 L 6 14.59375 C 6 14.210938 6.210938 14 6.59375 14 C 6.742188 14 7.039063 14.171875 7.1875 14.4375 L 8.59375 17.4375 L 8.875 18 L 13 18 L 13 16 L 15 16 L 15 14 L 12 14 L 11.5 16 L 10.15625 16 L 9 13.5625 C 8.539063 12.644531 7.636719 12 6.59375 12 Z M 6 19 L 7.40625 22.3125 L 8 27 L 10 27 L 9.3125 22 L 8 19 Z M 21 14 L 23 14 L 23 17 L 21 17 Z "></path>
</g>
</svg>
