<?xml version="1.0" encoding="UTF-8"?>
<svg xmlns="http://www.w3.org/2000/svg" xmlns:xlink="http://www.w3.org/1999/xlink" viewBox="0 0 32 32" version="1.1">
<g>
<path d="M 5 6 C 3.355469 6 2 7.355469 2 9 L 2 23 C 2 24.644531 3.355469 26 5 26 L 16.265625 26 C 17.160156 29.4375 20.292969 32 24 32 C 28.398438 32 32 28.398438 32 24 C 32 21.984375 31.238281 20.144531 30 18.734375 L 30 9 C 30 7.355469 28.644531 6 27 6 Z M 5 8 L 27 8 C 27.566406 8 28 8.433594 28 9 L 28 17.089844 C 26.820313 16.402344 25.457031 16 24 16 C 21.488281 16 19.242188 17.175781 17.769531 19 L 16 19 L 16 21 L 16.59375 21 C 16.210938 21.929688 16 22.941406 16 24 L 5 24 C 4.433594 24 4 23.566406 4 23 L 4 9 C 4 8.433594 4.433594 8 5 8 Z M 6 12 L 6 16 L 11 16 L 11 12 Z M 16 12 L 16 14 L 25 14 L 25 12 Z M 24 18 C 27.300781 18 30 20.699219 30 24 C 30 27.300781 27.300781 30 24 30 C 20.699219 30 18 27.300781 18 24 C 18 20.699219 20.699219 18 24 18 Z M 6 19 L 6 21 L 10 21 L 10 19 Z M 11 19 L 11 21 L 15 21 L 15 19 Z M 24 20 C 21.800781 20 21 21.800781 21 23 L 23 23 C 23 22.5 23.199219 22 24 22 C 24.800781 22 25 22.5 25 23 C 25 23.5 24.5 23.800781 24.199219 23.902344 L 24 23.902344 C 23.398438 24.101563 23 24.699219 23 25.402344 L 23 26 L 25 26 L 25 25.699219 C 26 25.300781 27 24.300781 27 23 C 27 21.800781 26.199219 20 24 20 Z M 23 27 L 23 29 L 25 29 L 25 27 Z "></path>
</g>
</svg>
