<?xml version="1.0" encoding="UTF-8"?>
<svg xmlns="http://www.w3.org/2000/svg" xmlns:xlink="http://www.w3.org/1999/xlink" viewBox="0 0 32 32" version="1.1">
<g>
<path d="M 5 5 C 3.355469 5 2 6.355469 2 8 L 2 20 C 2 21.644531 3.355469 23 5 23 L 6 23 L 6 24 C 6 25.644531 7.355469 27 9 27 L 27 27 C 28.644531 27 30 25.644531 30 24 L 30 12 C 30 10.355469 28.644531 9 27 9 L 26 9 L 26 8 C 26 6.355469 24.644531 5 23 5 Z M 5 7 L 23 7 C 23.566406 7 24 7.433594 24 8 L 24 9 L 5 9 L 5 11 L 24 11 L 24 20 C 24 20.566406 23.566406 21 23 21 L 5 21 C 4.433594 21 4 20.566406 4 20 L 4 8 C 4 7.433594 4.433594 7 5 7 Z M 26 11 L 27 11 C 27.566406 11 28 11.433594 28 12 L 28 13 L 26 13 Z M 26 15 L 28 15 L 28 24 C 28 24.566406 27.566406 25 27 25 L 9 25 C 8.433594 25 8 24.566406 8 24 L 8 23 L 23 23 C 24.644531 23 26 21.644531 26 20 Z "></path>
</g>
</svg>
