<?xml version="1.0" encoding="UTF-8"?>
<svg xmlns="http://www.w3.org/2000/svg" xmlns:xlink="http://www.w3.org/1999/xlink" viewBox="0 0 32 32" version="1.1">
<g>
<path d="M 5 5 L 5 27 L 27 27 L 27 5 Z M 7 7 L 25 7 L 25 25 L 7 25 Z M 15 8 L 15 10.03125 C 13.320313 10.28125 12 11.753906 12 13.5 C 12 15.421875 13.578125 17 15.5 17 L 16.5 17 C 17.339844 17 18 17.660156 18 18.5 C 18 19.339844 17.339844 20 16.5 20 L 15.5 20 C 14.660156 20 14 19.339844 14 18.5 L 14 18 L 12 18 L 12 18.5 C 12 20.246094 13.320313 21.71875 15 21.96875 L 15 24 L 17 24 L 17 21.96875 C 18.679688 21.71875 20 20.246094 20 18.5 C 20 16.578125 18.421875 15 16.5 15 L 15.5 15 C 14.660156 15 14 14.339844 14 13.5 C 14 12.660156 14.660156 12 15.5 12 L 16.5 12 C 17.339844 12 18 12.660156 18 13.5 L 18 14 L 20 14 L 20 13.5 C 20 11.753906 18.679688 10.28125 17 10.03125 L 17 8 Z "></path>
</g>
</svg>
