<?xml version="1.0" encoding="UTF-8"?>
<svg xmlns="http://www.w3.org/2000/svg" xmlns:xlink="http://www.w3.org/1999/xlink" viewBox="0 0 32 32" version="1.1">
<g>
<path d="M 7.65625 3.0625 C 7.65625 3.0625 6.695313 4.453125 7.125 6.28125 C 7.480469 7.800781 8.753906 9.472656 11.65625 11 L 8.5 11 L 9.0625 12.375 C 9.0625 12.375 9.769531 13.90625 11.34375 14.625 C 9.796875 16.617188 8 19.246094 8 22 L 9.625 22 C 9.386719 22.441406 9.0625 22.953125 8.65625 23.40625 C 7.8125 24.347656 6.695313 25 6 25 L 6 27 L 11 27 L 11 29 L 21.96875 29 L 22 28.03125 C 22 28.03125 22.035156 26.707031 21.78125 25.125 C 21.613281 24.074219 21.332031 22.863281 20.78125 21.78125 C 23.089844 21.5625 25.125 21.03125 25.125 21.03125 L 25.53125 20.9375 L 25.71875 20.59375 L 27.03125 18.46875 L 27.5625 17.625 L 26.75 17.09375 L 22.4375 14.25 C 22.394531 13.867188 22.4375 13.566406 22.03125 12.875 C 21.953125 12.738281 21.886719 12.601563 21.78125 12.46875 C 23.378906 11.921875 24.914063 10.875 26 8.96875 L 24.28125 8 C 23.097656 10.082031 21.40625 10.785156 19.6875 10.9375 C 19.371094 10.851563 19.28125 10.71875 19.1875 10.5625 C 19.0625 10.355469 18.988281 9.96875 19.03125 9.5 C 19.117188 8.5625 19.59375 7.53125 19.59375 7.53125 L 17.78125 6.65625 C 17.78125 6.65625 17.164063 7.882813 17.03125 9.3125 C 17 9.667969 17 10.050781 17.0625 10.4375 C 15.351563 9.699219 15.039063 8.800781 14.96875 8 C 14.886719 7.046875 15.34375 6.15625 15.34375 6.15625 L 13.625 5.15625 C 13.625 5.15625 12.824219 6.472656 12.96875 8.15625 C 13.011719 8.636719 13.160156 9.15625 13.40625 9.65625 C 10.191406 8.1875 9.277344 6.761719 9.0625 5.84375 C 8.828125 4.839844 9.28125 4.21875 9.28125 4.21875 Z M 15.625 12.5625 C 16.375 12.746094 17.25 12.921875 18.25 12.96875 C 18.542969 12.984375 18.847656 12.980469 19.15625 12.96875 C 19.796875 13.164063 20.101563 13.519531 20.3125 13.875 C 20.625 14.40625 20.625 14.9375 20.625 14.9375 L 20.625 15.46875 L 21.0625 15.78125 L 24.8125 18.25 L 24.25 19.1875 C 23.71875 19.316406 21.292969 19.875 19 19.875 C 17.929688 19.875 17.4375 19.445313 17.09375 19 C 16.75 18.554688 16.65625 18.15625 16.65625 18.15625 L 14.71875 18.59375 C 14.71875 18.59375 14.90625 19.445313 15.53125 20.25 C 16.078125 20.957031 17.050781 21.675781 18.40625 21.84375 C 19.113281 22.652344 19.601563 24.117188 19.8125 25.4375 C 19.949219 26.296875 19.925781 26.542969 19.9375 27 L 13 27 L 13 25 L 9.84375 25 C 9.9375 24.902344 10.035156 24.816406 10.125 24.71875 C 10.65625 24.128906 11.109375 23.5 11.4375 22.875 C 11.765625 22.25 12 21.667969 12 21 L 12 20 L 10.46875 20 C 11.210938 18.105469 12.691406 15.929688 13.78125 14.625 L 14.90625 13.25 C 15.179688 12.957031 15.414063 12.75 15.625 12.5625 Z M 18 15 C 18 15.550781 18.449219 16 19 16 C 19.550781 16 20 15.550781 20 15 Z "></path>
</g>
</svg>
