<?xml version="1.0" encoding="UTF-8"?>
<svg xmlns="http://www.w3.org/2000/svg" xmlns:xlink="http://www.w3.org/1999/xlink" viewBox="0 0 32 32" version="1.1">
<g>
<path d="M 9 5 L 10.324219 7 L 4 7 L 4 9 L 10.34375 9 L 9 11 L 12.023438 9 L 15 11 L 13.667969 9 L 21.34375 9 L 20 11 L 23.023438 9 L 26 11 L 24.667969 9 L 28 9 L 28 7 L 24.667969 7 L 26 5 L 22.976563 7 L 20 5 L 21.324219 7 L 13.667969 7 L 15 5 L 11.976563 7 Z M 5 13 L 6.320313 15 L 4 15 L 4 17 L 6.34375 17 L 5 19 L 8.023438 17 L 11 19 L 9.664063 17 L 19.34375 17 L 18 19 L 21.023438 17 L 24 19 L 22.667969 17 L 28 17 L 28 15 L 22.667969 15 L 24 13 L 20.976563 15 L 18 13 L 19.324219 15 L 9.664063 15 L 11 13 L 7.976563 15 Z M 8 21 L 9.320313 23 L 4 23 L 4 25 L 9.34375 25 L 8 27 L 11.023438 25 L 14 27 L 12.667969 25 L 22.34375 25 L 21 27 L 24.023438 25 L 27 27 L 25.667969 25 L 28 25 L 28 23 L 25.667969 23 L 27 21 L 23.976563 23 L 21 21 L 22.324219 23 L 12.667969 23 L 14 21 L 10.976563 23 Z "></path>
</g>
</svg>
