<?xml version="1.0" encoding="UTF-8"?>
<svg xmlns="http://www.w3.org/2000/svg" xmlns:xlink="http://www.w3.org/1999/xlink" viewBox="0 0 32 32" version="1.1">
<g>
<path d="M 22.3125 2.5 C 21.546875 2.5 20.765625 2.796875 20.1875 3.375 C 19.804688 3.757813 19.566406 4.226563 19.4375 4.71875 C 19.230469 4.675781 19.027344 4.625 18.8125 4.625 C 18.046875 4.625 17.265625 4.890625 16.6875 5.46875 C 15.53125 6.625 15.53125 8.53125 16.6875 9.6875 L 18.8125 11.8125 L 11.8125 18.8125 L 9.6875 16.6875 C 9.109375 16.109375 8.359375 15.8125 7.59375 15.8125 C 6.828125 15.8125 6.046875 16.109375 5.46875 16.6875 C 4.722656 17.4375 4.46875 18.5 4.6875 19.46875 C 4.207031 19.59375 3.753906 19.808594 3.375 20.1875 C 2.21875 21.34375 2.21875 23.25 3.375 24.40625 L 3.40625 24.4375 L 4.75 25.8125 L 4.0625 26.5 L 5.5 27.9375 L 6.1875 27.25 L 7.59375 28.625 C 8.75 29.78125 10.65625 29.78125 11.8125 28.625 C 12.1875 28.25 12.429688 27.792969 12.5625 27.3125 C 13.523438 27.519531 14.570313 27.273438 15.3125 26.53125 C 16.46875 25.375 16.46875 23.46875 15.3125 22.3125 L 13.1875 20.1875 L 20.1875 13.1875 L 22.3125 15.3125 C 23.46875 16.46875 25.375 16.46875 26.53125 15.3125 C 27.269531 14.570313 27.519531 13.523438 27.3125 12.5625 C 27.796875 12.429688 28.246094 12.191406 28.625 11.8125 C 29.78125 10.65625 29.78125 8.75 28.625 7.59375 L 27.25 6.1875 L 27.9375 5.5 L 26.5 4.0625 L 25.8125 4.75 L 24.40625 3.375 C 23.828125 2.796875 23.078125 2.5 22.3125 2.5 Z M 22.3125 4.5 C 22.5625 4.5 22.804688 4.585938 23 4.78125 L 27.21875 9 C 27.613281 9.394531 27.609375 9.984375 27.21875 10.375 C 26.828125 10.765625 26.207031 10.765625 25.8125 10.375 L 21.625 6.1875 C 21.234375 5.796875 21.234375 5.175781 21.625 4.78125 C 21.820313 4.585938 22.0625 4.5 22.3125 4.5 Z M 18.8125 6.59375 C 19.0625 6.59375 19.304688 6.710938 19.5 6.90625 L 25.09375 12.5 C 25.484375 12.894531 25.484375 13.511719 25.09375 13.90625 C 24.703125 14.296875 24.113281 14.265625 23.71875 13.875 L 23.6875 13.875 L 18.09375 8.28125 C 17.703125 7.890625 17.734375 7.300781 18.125 6.90625 C 18.316406 6.722656 18.570313 6.59375 18.8125 6.59375 Z M 7.59375 17.8125 C 7.84375 17.8125 8.085938 17.929688 8.28125 18.125 L 8.3125 18.125 L 13.90625 23.71875 C 14.296875 24.109375 14.265625 24.699219 13.875 25.09375 C 13.484375 25.464844 12.886719 25.480469 12.5 25.09375 L 11.8125 24.40625 L 11.6875 24.3125 L 7.59375 20.1875 L 6.90625 19.5 C 6.515625 19.105469 6.515625 18.488281 6.90625 18.09375 C 7.101563 17.898438 7.34375 17.8125 7.59375 17.8125 Z M 5.46875 21.3125 C 5.71875 21.3125 5.992188 21.429688 6.1875 21.625 L 10.375 25.8125 C 10.765625 26.203125 10.765625 26.824219 10.375 27.21875 C 9.984375 27.609375 9.394531 27.609375 9 27.21875 L 4.78125 23 C 4.386719 22.605469 4.390625 22.015625 4.78125 21.625 C 4.976563 21.429688 5.21875 21.3125 5.46875 21.3125 Z "></path>
</g>
</svg>
