<?xml version="1.0" encoding="UTF-8"?>
<svg xmlns="http://www.w3.org/2000/svg" xmlns:xlink="http://www.w3.org/1999/xlink" viewBox="0 0 32 32" version="1.1">
<g>
<path d="M 16 5.875 L 7 10.375 L 7 13.28125 L 1.59375 15.6875 L 1 15.96875 L 1 26 L 12 26 L 12 19 L 20 19 L 20 26 L 31 26 L 31 15.96875 L 30.40625 15.6875 L 25 13.28125 L 25 10.375 Z M 16 8.125 L 23 11.625 L 23 14.53125 L 23.59375 14.8125 L 29 17.21875 L 29 24 L 22 24 L 22 17 L 10 17 L 10 24 L 3 24 L 3 17.21875 L 8.40625 14.8125 L 9 14.53125 L 9 11.625 Z M 15 12 L 15 15 L 17 15 L 17 12 Z "></path>
</g>
</svg>
