<?xml version="1.0" encoding="UTF-8"?>
<svg xmlns="http://www.w3.org/2000/svg" xmlns:xlink="http://www.w3.org/1999/xlink" viewBox="0 0 32 32" version="1.1">
<g>
<path d="M 8 8 C 5.582031 8 3.644531 9.773438 3.1875 12.0625 C 1.417969 12.230469 0 13.691406 0 15.5 C 0 17.421875 1.578125 19 3.5 19 L 12 19 C 14.199219 19 16 17.199219 16 15 C 16 12.988281 14.472656 11.363281 12.53125 11.09375 C 11.769531 9.304688 10.058594 8 8 8 Z M 25 8 L 25 10.15625 C 24.628906 10.253906 24.289063 10.371094 23.96875 10.5625 L 22.46875 9.0625 L 21.0625 10.46875 L 22.5625 11.96875 C 22.371094 12.289063 22.253906 12.628906 22.15625 13 L 20 13 L 20 15 L 22.15625 15 C 22.253906 15.371094 22.371094 15.710938 22.5625 16.03125 L 21.0625 17.53125 L 22.46875 18.9375 L 23.96875 17.4375 C 24.289063 17.628906 24.628906 17.746094 25 17.84375 L 25 20 L 27 20 L 27 17.84375 C 27.371094 17.746094 27.710938 17.628906 28.03125 17.4375 L 29.53125 18.9375 L 30.9375 17.53125 L 29.4375 16.03125 C 29.628906 15.710938 29.746094 15.371094 29.84375 15 L 32 15 L 32 13 L 29.84375 13 C 29.746094 12.628906 29.628906 12.289063 29.4375 11.96875 L 30.9375 10.46875 L 29.53125 9.0625 L 28.03125 10.5625 C 27.710938 10.371094 27.371094 10.253906 27 10.15625 L 27 8 Z M 8 10 C 9.410156 10 10.574219 10.949219 10.90625 12.25 L 11.09375 13.0625 L 11.90625 13 C 12.097656 12.992188 12.125 13 12 13 C 13.117188 13 14 13.882813 14 15 C 14 16.117188 13.117188 17 12 17 L 3.5 17 C 2.660156 17 2 16.339844 2 15.5 C 2 14.660156 2.660156 14 3.5 14 C 3.605469 14 3.710938 14.011719 3.8125 14.03125 L 5 14.28125 L 5 13 C 5 11.332031 6.332031 10 8 10 Z M 26 12 C 27.117188 12 28 12.882813 28 14 C 28 15.117188 27.117188 16 26 16 C 24.882813 16 24 15.117188 24 14 C 24 12.882813 24.882813 12 26 12 Z M 20.03125 20.0625 L 17.5 23.28125 C 17.039063 23.09375 16.523438 23 16 23 C 13.800781 23 12 24.800781 12 27 L 14 27 C 14 25.882813 14.882813 25 16 25 C 17.117188 25 18 25.882813 18 27 L 20 27 C 20 26.050781 19.652344 25.1875 19.09375 24.5 L 21.59375 21.28125 Z "></path>
</g>
</svg>
