<?xml version="1.0" encoding="UTF-8"?>
<svg xmlns="http://www.w3.org/2000/svg" xmlns:xlink="http://www.w3.org/1999/xlink" viewBox="0 0 32 32" version="1.1">
<g>
<path d="M 16 3 C 8.832031 3 3 8.832031 3 16 C 3 23.167969 8.832031 29 16 29 C 23.167969 29 29 23.167969 29 16 C 29 8.832031 23.167969 3 16 3 Z M 16 5 C 22.085938 5 27 9.914063 27 16 C 27 22.085938 22.085938 27 16 27 C 9.914063 27 5 22.085938 5 16 C 5 9.914063 9.914063 5 16 5 Z M 20.28125 10.28125 L 16.5 14.0625 C 16.339844 14.019531 16.171875 14 16 14 C 14.90625 14 14 14.90625 14 16 C 14 16.171875 14.019531 16.339844 14.0625 16.5 L 12.28125 18.28125 C 11.875 18.09375 11.4375 18 11 18 C 10.230469 18 9.457031 18.292969 8.875 18.875 L 10.28125 20.28125 C 10.679688 19.882813 11.320313 19.882813 11.71875 20.28125 L 11.71875 20.3125 C 12.09375 20.710938 12.109375 21.328125 11.71875 21.71875 L 13.125 23.125 C 14.039063 22.210938 14.238281 20.832031 13.71875 19.71875 L 15.5 17.9375 C 15.660156 17.980469 15.828125 18 16 18 C 17.09375 18 18 17.09375 18 16 C 18 15.828125 17.980469 15.660156 17.9375 15.5 L 21.71875 11.71875 Z "></path>
</g>
</svg>
