<?xml version="1.0" encoding="UTF-8"?>
<svg xmlns="http://www.w3.org/2000/svg" xmlns:xlink="http://www.w3.org/1999/xlink" viewBox="0 0 32 32" version="1.1">
<g>
<path d="M 0 7 L 0 25 L 32 25 L 32 7 Z M 2 9 L 30 9 L 30 23 L 2 23 Z M 7 12 L 7 20 L 9.5 20 C 10.882813 20 12 18.882813 12 17.5 C 12 16.917969 11.738281 16.425781 11.40625 16 C 11.738281 15.574219 12 15.082031 12 14.5 C 12 13.117188 10.882813 12 9.5 12 Z M 15.15625 12 L 14.9375 12.6875 L 13.03125 18.6875 L 13 18.84375 L 13 20 L 15 20 L 15 19.21875 L 15.0625 19 L 16.96875 19 L 17 19.125 L 17 20 L 19 20 L 19 18.84375 L 18.9375 18.6875 L 16.9375 12.6875 L 16.71875 12 Z M 22.5 12 C 21.117188 12 20 13.117188 20 14.5 C 20 15.882813 21.117188 17 22.5 17 C 22.714844 17 23 17.285156 23 17.5 C 23 17.800781 22.882813 18 22.5 18 C 22.132813 18 22.074219 17.921875 22.0625 17.90625 C 22.050781 17.890625 22 17.828125 22 17.59375 L 20 17.59375 C 20 18.160156 20.164063 18.796875 20.625 19.28125 C 21.085938 19.765625 21.769531 20 22.5 20 C 23.917969 20 25 18.800781 25 17.5 C 25 16.117188 23.882813 15 22.5 15 C 22.285156 15 22 14.714844 22 14.5 C 22 14.285156 22.285156 14 22.5 14 C 22.765625 14 22.847656 14.0625 22.90625 14.125 C 22.964844 14.1875 23 14.292969 23 14.40625 L 25 14.40625 C 25 13.816406 24.785156 13.214844 24.34375 12.75 C 23.902344 12.285156 23.234375 12 22.5 12 Z M 9 14 L 9.5 14 C 9.714844 14 10 14.285156 10 14.5 C 10 14.714844 9.714844 15 9.5 15 L 9 15 Z M 15.96875 16.0625 L 16.28125 17 L 15.6875 17 Z M 9 17 L 9.5 17 C 9.714844 17 10 17.285156 10 17.5 C 10 17.714844 9.714844 18 9.5 18 L 9 18 Z "></path>
</g>
</svg>
