<?xml version="1.0" encoding="UTF-8"?>
<svg xmlns="http://www.w3.org/2000/svg" xmlns:xlink="http://www.w3.org/1999/xlink" viewBox="0 0 32 32" version="1.1">
<g>
<path d="M 4 4 L 4 13 L 2 13 L 2 18 L 4 18 L 4 28 L 28 28 L 28 18 L 30 18 L 30 13 L 28 13 L 28 4 L 26 4 L 26 13 L 24 13 L 24 4 L 16 4 L 16 13 L 6 13 L 6 4 Z M 8 4 L 8 10 L 14 10 L 14 4 Z M 10 6 L 12 6 L 12 8 L 10 8 Z M 18 6 L 22 6 L 22 13 L 18 13 Z M 4 15 L 28 15 L 28 16 L 4 16 Z M 6 18 L 7 18 L 7 19 L 9 19 L 9 21 L 11 21 L 11 23 L 13 23 L 13 25 L 15 25 L 15 26 L 6 26 Z M 11 18 L 26 18 L 26 26 L 17 26 L 17 23 L 15 23 L 15 21 L 13 21 L 13 19 L 11 19 Z "></path>
</g>
</svg>
