<?xml version="1.0" encoding="UTF-8"?>
<svg xmlns="http://www.w3.org/2000/svg" xmlns:xlink="http://www.w3.org/1999/xlink" viewBox="0 0 32 32" version="1.1">
<g>
<path d="M 13 4 C 11.894531 4 11 4.894531 11 6 C 11 7.105469 11.894531 8 13 8 C 14.105469 8 15 7.105469 15 6 C 15 4.894531 14.105469 4 13 4 Z M 23.875 4 C 23.511719 4.042969 23.144531 4.199219 22.84375 4.5 L 15.53125 11.90625 L 15.5625 11.9375 C 14.613281 12.886719 13.695313 13.882813 12.90625 14.96875 L 12.875 15 L 12.84375 15.0625 L 9.5 20.90625 L 9.1875 21.375 L 6 24.5625 L 5.71875 24.28125 C 5.476563 24.03125 5.121094 23.925781 4.78125 24 C 4.40625 24.066406 4.105469 24.339844 4 24.703125 C 3.894531 25.070313 4.003906 25.460938 4.28125 25.71875 L 6.28125 27.71875 C 6.679688 28.117188 7.320313 28.117188 7.71875 27.71875 C 8.117188 27.320313 8.117188 26.679688 7.71875 26.28125 L 7.4375 26 L 10.75 22.65625 L 11.0625 22.5 L 16.96875 19.1875 L 17.03125 19.15625 L 17.0625 19.125 C 18.160156 18.335938 19.199219 17.453125 20.15625 16.5 L 27.5 9.15625 C 28.097656 8.558594 28.0625 7.683594 27.84375 7.0625 C 27.625 6.441406 27.226563 5.855469 26.71875 5.3125 C 26.183594 4.742188 25.582031 4.335938 24.9375 4.125 C 24.613281 4.019531 24.238281 3.957031 23.875 4 Z M 24.1875 6 C 24.199219 6.003906 24.214844 6 24.3125 6.03125 C 24.550781 6.109375 24.949219 6.332031 25.28125 6.6875 L 25.28125 6.71875 C 25.628906 7.09375 25.886719 7.480469 25.96875 7.71875 C 25.996094 7.792969 25.996094 7.792969 26 7.8125 L 19.1875 14.625 L 17.40625 12.84375 Z M 16.03125 14.3125 L 17.71875 16 C 17.15625 16.507813 16.59375 17.003906 16 17.4375 C 15.96875 17.457031 15.9375 17.480469 15.90625 17.5 L 12.71875 19.28125 L 14.53125 16.125 L 14.5625 16.0625 C 15.007813 15.453125 15.507813 14.882813 16.03125 14.3125 Z "></path>
</g>
</svg>
