<?xml version="1.0" encoding="UTF-8"?>
<svg xmlns="http://www.w3.org/2000/svg" xmlns:xlink="http://www.w3.org/1999/xlink" viewBox="0 0 32 32" version="1.1">
<g>
<path d="M 15 4 L 15 5.09375 C 12.726563 5.5625 11 7.59375 11 10 L 11 13 L 14 13 L 14 10 L 13 10 C 13 8.332031 14.332031 7 16 7 C 17.667969 7 19 8.332031 19 10 L 18 10 L 18 13 L 21 13 L 21 10 C 21 7.59375 19.273438 5.5625 17 5.09375 L 17 4 Z M 6 8 L 6 9.1875 C 4.84375 9.605469 4 10.707031 4 12 L 4 13 L 6 13 L 6 12 C 6 11.433594 6.433594 11 7 11 C 7.566406 11 8 11.433594 8 12 L 8 13 L 10 13 L 10 12 C 10 10.707031 9.15625 9.605469 8 9.1875 L 8 8 Z M 24 8 L 24 9.1875 C 22.84375 9.605469 22 10.707031 22 12 L 22 13 L 24 13 L 24 12 C 24 11.433594 24.433594 11 25 11 C 25.566406 11 26 11.433594 26 12 L 26 13 L 28 13 L 28 12 C 28 10.707031 27.15625 9.605469 26 9.1875 L 26 8 Z M 15 10 L 15 13 L 17 13 L 17 10 Z M 4 14 L 4 28 L 14 28 L 14 23.71875 L 16 23.03125 L 18 23.71875 L 18 28 L 28 28 L 28 14 Z M 6 16 L 26 16 L 26 26 L 20 26 L 20 22.28125 L 19.3125 22.0625 L 16.3125 21.0625 L 16 20.9375 L 15.6875 21.0625 L 12.6875 22.0625 L 12 22.28125 L 12 26 L 6 26 Z M 8 18 L 8 20 L 10 20 L 10 18 Z M 12 18 L 12 20 L 14 20 L 14 18 Z M 18 18 L 18 20 L 20 20 L 20 18 Z M 22 18 L 22 20 L 24 20 L 24 18 Z M 8 22 L 8 24 L 10 24 L 10 22 Z M 22 22 L 22 24 L 24 24 L 24 22 Z "></path>
</g>
</svg>
