<?xml version="1.0" encoding="UTF-8"?>
<svg xmlns="http://www.w3.org/2000/svg" xmlns:xlink="http://www.w3.org/1999/xlink" viewBox="0 0 32 32" version="1.1">
<g>
<path d="M 2 6 L 2 26 L 30 26 L 30 6 Z M 4 8 L 15 8 L 15 12.15625 C 13.28125 12.601563 12 14.148438 12 16 C 12 17.851563 13.28125 19.398438 15 19.84375 L 15 24 L 4 24 L 4 23.9375 C 7.933594 23.4375 11 20.066406 11 16 C 11 11.933594 7.933594 8.5625 4 8.0625 Z M 17 8 L 28 8 L 28 8.0625 C 24.066406 8.5625 21 11.933594 21 16 C 21 20.066406 24.066406 23.4375 28 23.9375 L 28 24 L 17 24 L 17 19.84375 C 18.71875 19.398438 20 17.851563 20 16 C 20 14.148438 18.71875 12.601563 17 12.15625 Z M 4 10.09375 C 6.847656 10.566406 9 13.015625 9 16 C 9 18.984375 6.847656 21.433594 4 21.90625 L 4 17.5625 C 4.816406 17.367188 5.648438 17.136719 6 17 C 6.515625 16.800781 7 16.550781 7 16 C 7 15.449219 6.484375 15.164063 6 15 C 5.761719 14.917969 4.859375 14.710938 4 14.5 Z M 28 10.09375 L 28 14.5 C 27.140625 14.710938 26.238281 14.917969 26 15 C 25.515625 15.164063 25 15.449219 25 16 C 25 16.550781 25.484375 16.800781 26 17 C 26.351563 17.136719 27.183594 17.367188 28 17.5625 L 28 21.90625 C 25.152344 21.433594 23 18.984375 23 16 C 23 13.015625 25.152344 10.566406 28 10.09375 Z M 15 14.28125 L 15 17.71875 C 14.402344 17.375 14 16.746094 14 16 C 14 15.253906 14.402344 14.625 15 14.28125 Z M 17 14.28125 C 17.597656 14.625 18 15.253906 18 16 C 18 16.746094 17.597656 17.375 17 17.71875 Z "></path>
</g>
</svg>
