<?xml version="1.0" encoding="UTF-8"?>
<svg xmlns="http://www.w3.org/2000/svg" xmlns:xlink="http://www.w3.org/1999/xlink" viewBox="0 0 32 32" version="1.1">
<g>
<path d="M 13.59375 5 C 10.859375 4.972656 4.964844 5.589844 1.5 10.9375 L 1 11.6875 L 1.71875 12.25 L 1.75 12.28125 L 2.15625 12.625 L 2.65625 12.46875 C 3.695313 12.167969 4.679688 12.269531 5.34375 12.71875 C 6.007813 13.167969 6.53125 14.003906 6.53125 15.78125 L 6.53125 16.75 L 7.5 16.78125 C 7.902344 16.796875 8.773438 17.21875 9.21875 17.875 C 9.664063 18.53125 9.863281 19.3125 9.15625 20.5 L 8.25 22 L 10 22 C 10.570313 22 10.65625 22.113281 10.8125 22.375 C 10.96875 22.636719 11.074219 23.1875 11.0625 23.78125 C 11.042969 24.96875 10.65625 26.28125 10.65625 26.28125 L 10.375 27.09375 L 11.15625 27.46875 L 11.28125 27.53125 L 12.125 27.96875 L 12.59375 27.125 C 12.59375 27.125 13.28125 25.945313 14.15625 25.125 C 14.59375 24.714844 15.050781 24.445313 15.375 24.375 C 15.699219 24.304688 15.878906 24.304688 16.28125 24.71875 L 17.1875 25.625 L 17.84375 24.53125 C 18.566406 23.375 19.417969 23.011719 20.25 22.96875 C 21.082031 22.925781 21.90625 23.304688 22.28125 23.6875 L 23.125 24.5625 L 23.8125 23.5625 C 24.949219 21.9375 25.902344 21.890625 26.8125 22.125 C 27.265625 22.242188 27.6875 22.476563 28.03125 22.75 C 28.375 23.023438 28.617188 23.355469 28.65625 23.4375 L 28.9375 24 L 30.375 24 L 30.59375 23.28125 C 32.796875 15.054688 25.40625 9.6875 25.40625 9.6875 L 23.5 8.28125 L 23.84375 10.625 C 23.84375 10.625 23.96875 11.742188 23.59375 12.65625 C 23.40625 13.113281 23.144531 13.488281 22.65625 13.75 C 22.332031 13.925781 21.628906 13.917969 21 13.9375 L 21 8.25 L 19.21875 10.375 L 19 10.625 L 19 10 L 18.96875 7.625 L 15.09375 11.5 C 14.710938 11.03125 14.222656 10.527344 14.125 10.15625 C 13.976563 9.574219 14.050781 9.050781 14.25 8.5625 C 14.652344 7.585938 15.53125 6.875 15.53125 6.875 L 17.40625 5.4375 L 15.0625 5.09375 C 15.0625 5.09375 14.503906 5.007813 13.59375 5 Z M 12.875 7.0625 C 12.710938 7.324219 12.535156 7.496094 12.40625 7.8125 C 12.082031 8.601563 11.914063 9.597656 12.1875 10.65625 C 12.460938 11.714844 13.136719 12.773438 14.34375 13.78125 L 15.0625 14.375 L 16.6875 12.75 L 17.03125 12.90625 L 17.15625 12.96875 L 17.625 13.1875 L 18.3125 13.46875 L 19 13.78125 L 19 15.875 L 19.84375 16 C 21.398438 16.222656 22.648438 16.042969 23.59375 15.53125 C 24.539063 15.019531 25.121094 14.210938 25.4375 13.4375 C 25.558594 13.140625 25.53125 12.910156 25.59375 12.625 C 27.097656 14.171875 29.214844 17.035156 28.90625 20.96875 C 28.4375 20.648438 27.9375 20.347656 27.3125 20.1875 C 25.953125 19.839844 24.246094 20.25 22.84375 21.71875 C 22.070313 21.25 21.179688 20.945313 20.15625 21 C 19 21.058594 17.816406 21.707031 16.84375 22.78125 C 16.21875 22.464844 15.570313 22.277344 14.96875 22.40625 C 14.167969 22.582031 13.546875 23.074219 13 23.5625 C 12.992188 22.835938 12.945313 22.074219 12.53125 21.375 C 12.253906 20.902344 11.753906 20.554688 11.1875 20.3125 C 11.558594 18.980469 11.496094 17.667969 10.875 16.75 C 10.242188 15.816406 9.324219 15.296875 8.375 15.03125 C 8.199219 13.234375 7.554688 11.820313 6.4375 11.0625 C 5.851563 10.664063 5.207031 10.464844 4.53125 10.375 C 7.242188 7.636719 10.738281 7.121094 12.875 7.0625 Z "></path>
</g>
</svg>
