<?xml version="1.0" encoding="UTF-8"?>
<svg xmlns="http://www.w3.org/2000/svg" xmlns:xlink="http://www.w3.org/1999/xlink" viewBox="0 0 32 32" version="1.1">
<g>
<path d="M 1 10 L 1 12 L 2.125 12 L 3.71875 21.46875 L 3.71875 21.5 C 3.9375 22.585938 4.710938 23.488281 5.71875 23.84375 L 5 26 L 7 26 L 7.65625 24 L 24.34375 24 L 25 26 L 27 26 L 26.28125 23.84375 C 27.289063 23.488281 28.0625 22.585938 28.28125 21.5 L 28.28125 21.46875 L 29.875 12 L 31 12 L 31 10 Z M 4.1875 12 L 27.8125 12 L 26.3125 21.09375 C 26.308594 21.105469 26.316406 21.113281 26.3125 21.125 C 26.1875 21.691406 25.835938 22 25.3125 22 L 6.6875 22 C 6.164063 22 5.8125 21.691406 5.6875 21.125 L 5.6875 21.09375 Z "></path>
</g>
</svg>
