<?xml version="1.0" encoding="UTF-8"?>
<svg xmlns="http://www.w3.org/2000/svg" xmlns:xlink="http://www.w3.org/1999/xlink" viewBox="0 0 32 32" version="1.1">
<g>
<path d="M 16 6 C 7.691406 6 1 10.5 1 16 C 1 21.5 7.691406 26 16 26 C 24.308594 26 31 21.5 31 16 C 31 10.5 24.308594 6 16 6 Z M 16 8 C 23.046875 8 29 11.664063 29 16 C 29 20.335938 23.046875 24 16 24 C 8.953125 24 3 20.335938 3 16 C 3 11.664063 8.953125 8 16 8 Z M 14.53125 9.625 C 14.511719 9.628906 14.488281 9.65625 14.46875 9.65625 L 14.1875 13.09375 C 13.417969 16.785156 9.335938 14.121094 11.71875 10.125 C 7.828125 11.140625 4.96875 13.445313 4.96875 16 C 4.96875 16.625 5.152344 17.230469 5.46875 17.8125 C 5.523438 17.882813 5.5625 17.964844 5.625 18.03125 C 5.910156 18.488281 6.265625 18.9375 6.6875 19.34375 C 6.742188 19.394531 6.785156 19.417969 6.84375 19.46875 C 6.886719 19.507813 6.925781 19.554688 6.96875 19.59375 C 7.652344 20.160156 8.492188 20.671875 9.4375 21.09375 C 7.460938 18.015625 10.730469 17.328125 12.3125 20.59375 C 13.015625 18.023438 15.296875 19.007813 16 22.4375 C 16.605469 19.117188 19.085938 17.914063 19.6875 20.59375 C 21.25 17.371094 24.410156 18.085938 22.78125 20.96875 C 24.359375 20.222656 25.625 19.234375 26.34375 18.125 C 26.753906 17.414063 26.96875 16.679688 26.96875 15.90625 C 26.96875 15.640625 26.953125 15.355469 26.90625 15.09375 C 26.335938 12.929688 23.746094 11.0625 20.375 10.15625 C 22.640625 14.125 18.675781 16.675781 17.90625 13.09375 L 17.625 9.65625 C 17.601563 9.652344 17.554688 9.660156 17.53125 9.65625 L 16.8125 10.53125 L 15.1875 10.53125 Z "></path>
</g>
</svg>
