<?xml version="1.0" encoding="UTF-8"?>
<svg xmlns="http://www.w3.org/2000/svg" xmlns:xlink="http://www.w3.org/1999/xlink" viewBox="0 0 32 32" version="1.1">
<g>
<path d="M 30 24 C 30 24.304688 29.242188 25 28 25 C 27.679688 25 27.390625 24.949219 27.136719 24.871094 C 27.605469 22.628906 29.183594 19.640625 29.859375 18.515625 L 30.765625 17 L 25 17 L 25 15.820313 L 29.195313 14.980469 L 28.804688 13.019531 L 25 13.78125 L 25 13 L 20 13 L 20 9 L 17 9 L 17 6 L 15 6 L 15 9 L 12 9 L 12 11 L 7 11 L 7 12.78125 L 3.195313 12.019531 L 2.804688 13.980469 L 7 14.820313 L 7 17 L 1.59375 17 L 2.054688 18.328125 C 2.121094 18.515625 3.316406 21.882813 5.640625 24.488281 C 5.300781 24.753906 4.738281 25 4 25 C 2.777344 25 2 24.296875 2 24 L 0 24 C 0 25.625 1.832031 27 4 27 C 5.1875 27 6.261719 26.578125 7 25.941406 C 7.738281 26.578125 8.8125 27 10 27 C 11.1875 27 12.261719 26.578125 13 25.941406 C 13.738281 26.578125 14.8125 27 16 27 C 17.1875 27 18.261719 26.578125 19 25.941406 C 19.738281 26.578125 20.8125 27 22 27 C 23.1875 27 24.261719 26.578125 25 25.941406 C 25 25.941406 25.003906 25.941406 25.003906 25.945313 C 25.003906 25.960938 25 25.980469 25 26 L 25.066406 26 C 25.804688 26.605469 26.851563 27 28 27 C 30.167969 27 32 25.625 32 24 Z M 23 17 L 14 17 L 14 15 L 23 15 Z M 18 11 L 18 13 L 14 13 L 14 11 Z M 9 13 L 12 13 L 12 17 L 9 17 Z M 22 25 C 20.777344 25 20 24.296875 20 24 L 18 24 C 18 24.304688 17.242188 25 16 25 C 14.777344 25 14 24.296875 14 24 L 12 24 C 12 24.304688 11.246094 25 10 25 C 9.703125 25 9.4375 24.957031 9.199219 24.890625 C 8.773438 24.652344 8.382813 24.347656 8.003906 24.015625 C 8.003906 24.011719 8 24.003906 8 24 L 7.984375 24 C 6.332031 22.539063 5.140625 20.386719 4.5 19 L 27.304688 19 C 26.636719 20.289063 25.746094 22.210938 25.292969 24 L 24 24 C 24 24.304688 23.242188 25 22 25 Z "></path>
</g>
</svg>
