<?xml version="1.0" encoding="UTF-8"?>
<svg xmlns="http://www.w3.org/2000/svg" xmlns:xlink="http://www.w3.org/1999/xlink" viewBox="0 0 32 32" version="1.1">
<g>
<path d="M 10.5625 3 L 10.25 3.34375 C 10.25 3.34375 10.097656 3.523438 9.96875 3.75 C 9.839844 3.976563 9.707031 4.308594 9.5625 4.75 C 9.273438 5.632813 9 6.976563 9 9 C 9 11.195313 9.847656 13.023438 10.59375 14.75 C 11.339844 16.476563 12 18.109375 12 20 C 12 24.09375 11.03125 27.75 11.03125 27.75 L 10.6875 29 L 21.3125 29 L 20.96875 27.75 C 20.96875 27.75 20 24.09375 20 20 C 20 18.109375 20.660156 16.476563 21.40625 14.75 C 22.152344 13.023438 23 11.195313 23 9 C 23 6.976563 22.726563 5.632813 22.4375 4.75 C 22.292969 4.308594 22.160156 3.976563 22.03125 3.75 C 21.902344 3.523438 21.75 3.34375 21.75 3.34375 L 21.4375 3 Z M 11.59375 5 L 20.40625 5 C 20.453125 5.109375 20.503906 5.164063 20.5625 5.34375 C 20.730469 5.863281 20.902344 6.734375 20.96875 8 L 15 8 L 15 10 L 20.90625 10 C 20.714844 11.3125 20.195313 12.578125 19.59375 13.96875 C 18.839844 15.710938 18 17.640625 18 20 C 18 23.292969 18.488281 25.703125 18.78125 27 L 13.21875 27 C 13.511719 25.703125 14 23.292969 14 20 C 14 17.640625 13.160156 15.710938 12.40625 13.96875 C 11.804688 12.578125 11.285156 11.3125 11.09375 10 L 13 10 L 13 8 L 11.03125 8 C 11.097656 6.734375 11.269531 5.863281 11.4375 5.34375 C 11.496094 5.164063 11.546875 5.109375 11.59375 5 Z "></path>
</g>
</svg>
