<?xml version="1.0" encoding="UTF-8"?>
<svg xmlns="http://www.w3.org/2000/svg" xmlns:xlink="http://www.w3.org/1999/xlink" viewBox="0 0 32 32" version="1.1">
<g>
<path d="M 11.625 6 C 11.503906 6.007813 11.292969 6.046875 11.125 6.0625 C 10.226563 6.136719 9.304688 6.308594 8.40625 6.65625 C 8.28125 6.703125 8.152344 6.757813 8.03125 6.8125 C 7.882813 6.867188 7.742188 6.902344 7.59375 6.96875 C 5.371094 7.945313 3 10.125 3 14 C 3 15.929688 3.515625 18.859375 5.4375 21.40625 C 7.359375 23.953125 10.742188 26 16 26 C 21.257813 26 24.640625 23.953125 26.5625 21.40625 C 28.484375 18.859375 29 15.929688 29 14 C 29 10.125 26.628906 7.945313 24.40625 6.96875 C 24.257813 6.902344 24.117188 6.867188 23.96875 6.8125 C 23.875 6.769531 23.78125 6.726563 23.6875 6.6875 C 23.65625 6.675781 23.625 6.667969 23.59375 6.65625 C 22.695313 6.308594 21.773438 6.136719 20.875 6.0625 C 20.375 6.011719 20 6 20 6 C 18.613281 6 17.203125 6.398438 16 7.125 C 14.796875 6.398438 13.386719 6 12 6 C 12 6 11.863281 5.984375 11.625 6 Z M 12 8 C 12.761719 8 13.570313 8.203125 14.3125 8.53125 C 13.507813 9.472656 13 10.65625 13 12 C 13 13.734375 13.578125 15.183594 14.46875 16.28125 C 13.898438 16.625 13.296875 16.929688 12.65625 17.15625 C 10.621094 17.871094 8.804688 17.953125 8.34375 17.96875 C 6.945313 16.589844 6 14.898438 6 13 C 6 11.078125 6.789063 9.949219 7.9375 9.15625 C 8.460938 8.796875 9.082031 8.53125 9.71875 8.34375 C 9.726563 8.339844 9.742188 8.347656 9.75 8.34375 C 10.15625 8.238281 10.546875 8.140625 10.875 8.09375 C 11.070313 8.066406 11.191406 8.046875 11.34375 8.03125 C 11.566406 8.011719 11.785156 8 12 8 Z M 20 8 C 20.214844 8 20.433594 8.011719 20.65625 8.03125 C 21.074219 8.070313 21.617188 8.171875 22.28125 8.34375 C 22.917969 8.53125 23.539063 8.796875 24.0625 9.15625 C 25.210938 9.949219 26 11.078125 26 13 C 26 14.898438 25.019531 16.585938 23.59375 17.96875 C 23.070313 17.945313 21.332031 17.832031 19.34375 17.125 C 18.714844 16.902344 18.121094 16.617188 17.5625 16.28125 C 18.4375 15.183594 19 13.730469 19 12 C 19 10.65625 18.492188 9.472656 17.6875 8.53125 C 18.429688 8.203125 19.238281 8 20 8 Z M 16 9.65625 C 16.636719 10.3125 17 11.101563 17 12 C 17 13.292969 16.605469 14.207031 16 14.96875 C 15.386719 14.207031 15 13.28125 15 12 C 15 11.101563 15.363281 10.3125 16 9.65625 Z M 16.03125 17.6875 C 16.859375 18.273438 17.761719 18.710938 18.65625 19.03125 C 19.59375 19.363281 20.40625 19.480469 21.21875 19.625 C 19.667969 20.421875 17.941406 21 16 21 C 14.007813 21 12.269531 20.421875 10.71875 19.625 C 11.546875 19.484375 12.386719 19.398438 13.34375 19.0625 C 14.261719 18.738281 15.1875 18.296875 16.03125 17.6875 Z M 25.875 18.6875 C 25.621094 19.199219 25.332031 19.707031 24.96875 20.1875 C 23.394531 22.269531 20.757813 24 16 24 C 11.242188 24 8.605469 22.269531 7.03125 20.1875 C 6.671875 19.714844 6.375 19.222656 6.125 18.71875 C 8.324219 21.339844 12 23 16 23 C 19.953125 23 23.65625 21.339844 25.875 18.6875 Z "></path>
</g>
</svg>
