<?xml version="1.0" encoding="UTF-8"?>
<svg xmlns="http://www.w3.org/2000/svg" xmlns:xlink="http://www.w3.org/1999/xlink" viewBox="0 0 32 32" version="1.1">
<g>
<path d="M 16 2 C 14.652344 2 13.632813 2.285156 12.9375 2.59375 C 12.457031 2.804688 12.328125 2.9375 12.15625 3.070313 C 11.128906 3.144531 10.210938 3.488281 9.523438 4.078125 C 8.753906 4.734375 8.238281 5.597656 7.875 6.511719 C 7.148438 8.339844 7 10.429688 7 12 C 7 14.847656 7.019531 16.523438 5.359375 20.003906 C 5.007813 19.976563 4.644531 20.058594 4.3125 20.265625 C 3.710938 20.636719 2.996094 21.945313 2.621094 22.691406 L 2 23.933594 L 3.292969 23.984375 C 4.070313 24.019531 5.460938 24.019531 6.0625 23.644531 C 6.644531 23.285156 6.972656 22.632813 6.992188 21.960938 C 9.140625 21.785156 10.605469 21.046875 11.527344 20.261719 C 11.714844 20.097656 11.855469 19.933594 12 19.769531 L 12 20.261719 C 12 21.265625 11.917969 21.894531 11.523438 22.121094 L 7.839844 24.125 C 6.136719 24.851563 4.882813 26.300781 4.40625 28.09375 L 3.898438 30 L 5.96875 30 L 6.339844 28.609375 C 6.609375 27.59375 7.253906 26.746094 8.1875 26.191406 C 8.257813 26.429688 8.351563 26.6875 8.480469 26.949219 C 8.976563 27.9375 10.167969 29 12 29 C 13.667969 29 15.550781 29.894531 15.550781 29.894531 C 15.835938 30.035156 16.164063 30.035156 16.449219 29.894531 C 16.449219 29.894531 18.332031 29 20 29 C 21.832031 29 23.023438 27.9375 23.519531 26.949219 C 23.652344 26.683594 23.742188 26.425781 23.8125 26.1875 C 24.722656 26.714844 25.386719 27.574219 25.660156 28.609375 L 26.03125 30 L 28.101563 30 L 27.59375 28.09375 C 27.113281 26.300781 25.863281 24.851563 24.238281 24.160156 L 20.496094 22.132813 C 20.082031 21.894531 20 21.265625 20 20.261719 L 20 19.769531 C 20.144531 19.933594 20.285156 20.097656 20.472656 20.261719 C 21.394531 21.046875 22.859375 21.785156 25.007813 21.960938 C 25.027344 22.632813 25.355469 23.285156 25.9375 23.644531 C 26.539063 24.019531 27.929688 24.019531 28.707031 23.984375 L 30 23.933594 L 29.378906 22.691406 C 29.003906 21.945313 28.289063 20.636719 27.6875 20.265625 C 27.339844 20.050781 26.957031 19.976563 26.589844 20.015625 C 25.003906 17.304688 25 14.847656 25 12 C 25 8.832031 24.199219 6.308594 22.609375 4.574219 C 21.023438 2.839844 18.699219 2 16 2 Z M 16 4 C 18.300781 4 19.976563 4.660156 21.140625 5.925781 C 22.300781 7.191406 23 9.167969 23 12 C 23 14.453125 23.066406 17.039063 24.25 19.738281 C 23.125 19.5 22.246094 19.144531 21.777344 18.738281 C 21.378906 18.398438 21.191406 18.136719 21.078125 17.945313 C 21.640625 17.046875 22 15.964844 22 14.746094 L 22 12 C 22 11.425781 22.015625 10.464844 21.515625 9.484375 C 21.015625 8.507813 19.992188 7.609375 18.316406 7.050781 C 17.117188 6.652344 16.640625 6.234375 16.640625 6.234375 L 15.964844 5.664063 L 15.316406 6.273438 C 15.316406 6.273438 15.289063 6.308594 15.03125 6.460938 C 14.777344 6.609375 14.34375 6.832031 13.683594 7.050781 C 12 7.613281 10.980469 8.546875 10.484375 9.53125 C 9.984375 10.515625 10 11.472656 10 12 L 10 14.746094 C 10 15.964844 10.359375 17.046875 10.921875 17.945313 C 10.808594 18.136719 10.621094 18.398438 10.222656 18.738281 C 9.71875 19.171875 8.757813 19.554688 7.484375 19.777344 C 8.707031 16.757813 9 14.511719 9 12 C 9 10.570313 9.175781 8.664063 9.734375 7.25 C 10.015625 6.542969 10.382813 5.972656 10.820313 5.597656 C 11.257813 5.222656 11.75 5.011719 12.5 5.011719 L 12.890625 5.011719 L 13.179688 4.742188 C 13.179688 4.742188 13.292969 4.621094 13.746094 4.421875 C 14.199219 4.21875 14.929688 4 16 4 Z M 16.101563 8.144531 C 16.453125 8.382813 16.675781 8.613281 17.683594 8.949219 C 19.007813 9.390625 19.484375 9.917969 19.734375 10.402344 C 19.984375 10.882813 20 11.425781 20 12 L 20 14.746094 C 20 16.066406 19.40625 17.101563 18.578125 17.851563 C 17.75 18.601563 16.667969 19 16 19 C 15.332031 19 14.25 18.601563 13.421875 17.851563 C 12.59375 17.101563 12 16.066406 12 14.746094 L 12 12 C 12 11.472656 12.015625 10.933594 12.265625 10.433594 C 12.519531 9.929688 13 9.386719 14.316406 8.949219 C 15.105469 8.6875 15.671875 8.40625 16.054688 8.179688 C 16.082031 8.160156 16.074219 8.160156 16.101563 8.144531 Z M 13.992188 20.566406 C 14.65625 20.847656 15.335938 21 16 21 C 16.664063 21 17.34375 20.847656 18.007813 20.566406 C 18.015625 21.40625 18.109375 22.601563 18.953125 23.441406 C 18.335938 23.738281 17.40625 24 16 24 C 14.597656 24 13.667969 23.738281 13.046875 23.441406 C 13.890625 22.609375 13.984375 21.410156 13.992188 20.566406 Z M 11.152344 24.597656 C 11.25 24.675781 11.332031 24.757813 11.445313 24.832031 C 12.367188 25.445313 13.832031 26 16 26 C 18.167969 26 19.632813 25.445313 20.554688 24.832031 C 20.667969 24.757813 20.753906 24.675781 20.851563 24.597656 L 21.976563 25.203125 C 21.957031 25.398438 21.90625 25.699219 21.730469 26.050781 C 21.476563 26.5625 21.167969 27 20 27 C 18.054688 27 16.542969 27.667969 16 27.921875 C 15.457031 27.667969 13.945313 27 12 27 C 10.832031 27 10.523438 26.5625 10.269531 26.050781 C 10.09375 25.703125 10.042969 25.402344 10.023438 25.207031 Z "></path>
</g>
</svg>
