<?xml version="1.0" encoding="UTF-8"?>
<svg xmlns="http://www.w3.org/2000/svg" xmlns:xlink="http://www.w3.org/1999/xlink" viewBox="0 0 32 32" version="1.1">
<g>
<path d="M 25 10 L 23 10 L 23 8 C 23 5.875 22.367188 3.792969 22.339844 3.707031 L 22.121094 3 L 7.003906 3 L 6.757813 3.636719 C 6.726563 3.714844 6 5.589844 6 8 L 6 25.6875 C 6 27.515625 7.484375 29 9.3125 29 L 19.6875 29 C 21.515625 29 23 27.515625 23 25.6875 L 23 23.945313 C 27.660156 23.417969 28.976563 19.230469 29 16.9375 L 29 14 C 29 11.128906 26.621094 10.035156 25 10 Z M 21 25.6875 C 21 26.410156 20.410156 27 19.6875 27 L 9.3125 27 C 8.589844 27 8 26.410156 8 25.6875 L 8 10 L 21 10 Z M 8 8 C 8 6.746094 8.238281 5.652344 8.417969 5 L 20.613281 5 C 20.78125 5.710938 21 6.859375 21 8 Z M 27 16.925781 C 26.992188 17.402344 26.796875 21.324219 23 21.917969 L 23 12 L 24.980469 12 C 25.1875 12.003906 27 12.097656 27 14 Z M 14.5 11 C 13.121094 11 12 12.121094 12 13.5 C 12 14.878906 13.121094 16 14.5 16 C 15.878906 16 17 14.878906 17 13.5 C 17 12.121094 15.878906 11 14.5 11 Z M 14.5 14 C 14.222656 14 14 13.777344 14 13.5 C 14 13.222656 14.222656 13 14.5 13 C 14.777344 13 15 13.222656 15 13.5 C 15 13.777344 14.777344 14 14.5 14 Z M 14.5 17 C 13.121094 17 12 18.121094 12 19.5 C 12 20.878906 13.121094 22 14.5 22 C 15.878906 22 17 20.878906 17 19.5 C 17 18.121094 15.878906 17 14.5 17 Z M 14.5 20 C 14.222656 20 14 19.773438 14 19.5 C 14 19.226563 14.222656 19 14.5 19 C 14.777344 19 15 19.226563 15 19.5 C 15 19.773438 14.777344 20 14.5 20 Z M 19.5 14 C 19.671875 14 19.839844 14.019531 20 14.050781 L 20 16.5 C 20 16.226563 19.777344 16 19.5 16 C 19.222656 16 19 16.226563 19 16.5 C 19 16.773438 19.222656 17 19.5 17 C 19.777344 17 20 16.773438 20 16.5 L 20 18.949219 C 19.839844 18.980469 19.671875 19 19.5 19 C 18.121094 19 17 17.878906 17 16.5 C 17 15.121094 18.121094 14 19.5 14 Z M 19.5 20 C 19.671875 20 19.839844 20.019531 20 20.050781 L 20 22.5 C 20 22.226563 19.777344 22 19.5 22 C 19.222656 22 19 22.226563 19 22.5 C 19 22.773438 19.222656 23 19.5 23 C 19.777344 23 20 22.773438 20 22.5 L 20 24.949219 C 19.839844 24.980469 19.671875 25 19.5 25 C 18.121094 25 17 23.878906 17 22.5 C 17 21.121094 18.121094 20 19.5 20 Z M 12 22.5 C 12 23.878906 10.878906 25 9.5 25 C 9.328125 25 9.164063 24.972656 9 24.9375 L 9 22.5 C 9 22.773438 9.222656 23 9.5 23 C 9.777344 23 10 22.773438 10 22.5 C 10 22.226563 9.777344 22 9.5 22 C 9.222656 22 9 22.226563 9 22.5 L 9 20.0625 C 9.164063 20.027344 9.328125 20 9.5 20 C 10.878906 20 12 21.121094 12 22.5 Z M 17.050781 11 L 20 11 L 20 12.949219 C 19.839844 12.980469 19.671875 13 19.5 13 C 18.292969 13 17.28125 12.140625 17.050781 11 Z M 16.949219 25 L 12.050781 25 C 12.28125 23.859375 13.292969 23 14.5 23 C 15.707031 23 16.71875 23.859375 16.949219 25 Z M 9.5 19 C 9.328125 19 9.164063 18.972656 9 18.9375 L 9 16.5 C 9 16.773438 9.222656 17 9.5 17 C 9.777344 17 10 16.773438 10 16.5 C 10 16.226563 9.777344 16 9.5 16 C 9.222656 16 9 16.226563 9 16.5 L 9 14.0625 C 9.164063 14.027344 9.328125 14 9.5 14 C 10.878906 14 12 15.121094 12 16.5 C 12 17.878906 10.878906 19 9.5 19 Z M 9 11 L 11.949219 11 C 11.71875 12.140625 10.707031 13 9.5 13 C 9.328125 13 9.164063 12.972656 9 12.9375 Z "></path>
</g>
</svg>
