<?xml version="1.0" encoding="UTF-8"?>
<svg xmlns="http://www.w3.org/2000/svg" xmlns:xlink="http://www.w3.org/1999/xlink" viewBox="0 0 32 32" version="1.1">
<g>
<path d="M 0 11 L 0 21 L 10 21 L 10 11 Z M 11 11 L 11 21 L 21 21 L 21 11 Z M 22 11 L 22 21 L 32 21 L 32 11 Z M 27.25 13.28125 C 27.445313 13.273438 27.683594 13.289063 27.9375 13.3125 C 27.9375 13.3125 28.535156 13.355469 29.40625 13.71875 L 29.40625 14.71875 C 29.40625 14.71875 28.4375 14.105469 27.375 14.09375 C 27.375 14.09375 25.402344 14.0625 25.3125 16 C 25.3125 16 25.226563 17.773438 27.34375 17.875 C 27.34375 17.875 28.234375 17.988281 29.4375 17.21875 L 29.4375 18.25 C 29.4375 18.25 27.839844 19.207031 25.96875 18.46875 C 25.96875 18.46875 24.371094 17.886719 24.3125 16 C 24.3125 16 24.242188 14.050781 26.34375 13.40625 C 26.34375 13.40625 26.667969 13.300781 27.25 13.28125 Z M 3.0625 13.34375 L 4.9375 13.34375 C 6.621094 13.5 6.5 14.75 6.5 14.75 C 6.507813 15.523438 5.84375 15.84375 5.84375 15.84375 C 7.046875 16.148438 7 17.15625 7 17.15625 C 7 18.664063 5.21875 18.65625 5.21875 18.65625 L 3.0625 18.65625 Z M 14.0625 13.34375 L 15.9375 13.34375 C 17.621094 13.5 17.5 14.75 17.5 14.75 C 17.507813 15.523438 16.84375 15.84375 16.84375 15.84375 C 18.046875 16.148438 18 17.15625 18 17.15625 C 18 18.664063 16.21875 18.65625 16.21875 18.65625 L 14.0625 18.65625 Z M 4 14.15625 L 4 15.53125 L 4.65625 15.53125 C 4.65625 15.53125 5.53125 15.546875 5.53125 14.8125 C 5.53125 14.8125 5.542969 14.199219 4.75 14.15625 Z M 15 14.15625 L 15 15.53125 L 15.65625 15.53125 C 15.65625 15.53125 16.53125 15.546875 16.53125 14.8125 C 16.53125 14.8125 16.574219 14.199219 15.78125 14.15625 Z M 4 16.375 L 4 17.84375 L 5 17.84375 C 5 17.84375 6 17.898438 6 17.09375 C 6 17.09375 6.03125 16.367188 5 16.375 Z M 15 16.375 L 15 17.84375 L 16.03125 17.84375 C 16.03125 17.84375 17.03125 17.898438 17.03125 17.09375 C 17.03125 17.09375 17.0625 16.367188 16.03125 16.375 Z "></path>
</g>
</svg>
