<?xml version="1.0" encoding="UTF-8"?>
<svg xmlns="http://www.w3.org/2000/svg" xmlns:xlink="http://www.w3.org/1999/xlink" viewBox="0 0 32 32" version="1.1">
<g>
<path d="M 12.5 3.03125 C 11.242188 3.0625 10.105469 3.40625 9.1875 3.875 C 7.351563 4.816406 6.21875 6.1875 6.21875 6.1875 L 6 6.46875 L 6 8.09375 L 7.09375 8 C 7.09375 8 8.238281 7.898438 9.65625 7.96875 C 10.089844 7.988281 10.371094 8.15625 10.8125 8.21875 C 10.175781 8.488281 9.578125 8.65625 8.9375 9.125 C 7.800781 9.960938 6.734375 11.1875 6.28125 12.90625 C 5.828125 14.625 5.984375 16.777344 7 19.375 L 7.25 20 L 9 20 L 9 19 C 9 15.46875 10.695313 13.882813 12.46875 12.96875 C 12.96875 12.710938 13.449219 12.546875 13.90625 12.40625 L 13 25.875 C 12.253906 25.949219 11.503906 26 10.71875 26 C 7.316406 26 4.5625 24.15625 4.5625 24.15625 L 3.4375 25.84375 C 3.4375 25.84375 6.605469 28 10.71875 28 C 14.65625 28 17.652344 27 21.28125 27 C 24.734375 27 27.4375 28.8125 27.4375 28.8125 L 28.5625 27.1875 C 28.5625 27.1875 25.433594 25 21.28125 25 C 20.457031 25 19.691406 25.058594 18.9375 25.125 L 18.09375 12.40625 C 18.550781 12.546875 19.03125 12.710938 19.53125 12.96875 C 21.304688 13.882813 23 15.46875 23 19 L 23 20 L 24.75 20 L 25 19.375 C 26.015625 16.777344 26.171875 14.625 25.71875 12.90625 C 25.265625 11.1875 24.199219 9.960938 23.0625 9.125 C 22.320313 8.578125 21.597656 8.375 20.875 8.09375 C 21.363281 8.015625 21.859375 7.921875 22.34375 7.90625 C 23.738281 7.855469 24.875 8 24.875 8 L 26 8.125 L 26 6.46875 L 25.78125 6.1875 C 25.78125 6.1875 24.648438 4.816406 22.8125 3.875 C 21.09375 2.992188 18.582031 2.59375 16 3.9375 C 14.796875 3.3125 13.597656 3.003906 12.5 3.03125 Z M 12.53125 4.96875 C 13.421875 4.941406 14.394531 5.179688 15.46875 5.84375 L 16 6.1875 L 16.53125 5.84375 C 18.679688 4.511719 20.4375 4.921875 21.875 5.65625 C 22.082031 5.761719 22.035156 5.789063 22.21875 5.90625 C 20.667969 5.964844 18.804688 6.164063 17.40625 7.1875 L 17 7.5 L 17 9.125 L 17.90625 9.21875 C 17.90625 9.21875 20.152344 9.453125 21.875 10.71875 C 22.738281 11.351563 23.457031 12.179688 23.78125 13.40625 C 23.867188 13.734375 23.851563 14.199219 23.875 14.59375 C 22.992188 12.992188 21.746094 11.878906 20.46875 11.21875 C 18.242188 10.070313 16.03125 10 16.03125 10 L 15.96875 10 C 15.96875 10 13.757813 10.070313 11.53125 11.21875 C 10.253906 11.878906 9.007813 12.992188 8.125 14.59375 C 8.148438 14.199219 8.132813 13.734375 8.21875 13.40625 C 8.542969 12.179688 9.261719 11.351563 10.125 10.71875 C 11.847656 9.453125 14.09375 9.21875 14.09375 9.21875 L 15 9.125 L 15 7.46875 L 14.5625 7.1875 C 13.179688 6.246094 11.34375 6.046875 9.78125 5.96875 C 9.746094 5.96875 9.753906 5.96875 9.71875 5.96875 C 9.933594 5.828125 9.875 5.785156 10.125 5.65625 C 10.84375 5.289063 11.640625 4.996094 12.53125 4.96875 Z M 15.9375 12 C 15.941406 12 15.964844 12 15.96875 12 C 15.96875 12 16.027344 12 16.03125 12 C 16.035156 12 16.058594 12 16.0625 12 L 16.9375 25.34375 C 16.300781 25.433594 15.652344 25.535156 15.03125 25.625 Z "></path>
</g>
</svg>
