<?xml version="1.0" encoding="UTF-8"?>
<svg xmlns="http://www.w3.org/2000/svg" xmlns:xlink="http://www.w3.org/1999/xlink" viewBox="0 0 32 32" version="1.1">
<g>
<path d="M 16 4 C 13.800781 4 12 5.800781 12 8 C 12 8.273438 12.039063 8.554688 12.09375 8.8125 C 10.828125 9.582031 9.382813 10.636719 8.125 12.1875 C 6.492188 14.199219 5.21875 17.046875 5.03125 21 L 4 21 L 4 28 L 28 28 L 28 21 L 26.96875 21 C 26.78125 17.070313 25.507813 14.230469 23.875 12.21875 C 22.617188 10.667969 21.175781 9.613281 19.90625 8.84375 C 19.964844 8.574219 20 8.285156 20 8 C 20 5.800781 18.199219 4 16 4 Z M 16 6 C 17.117188 6 18 6.882813 18 8 C 18 9.117188 17.117188 10 16 10 C 14.882813 10 14 9.117188 14 8 C 14 6.882813 14.882813 6 16 6 Z M 13 10.59375 C 13.734375 11.441406 14.800781 12 16 12 C 17.183594 12 18.234375 11.453125 18.96875 10.625 C 20.085938 11.328125 21.273438 12.21875 22.3125 13.5 C 23.6875 15.191406 24.789063 17.511719 24.96875 21 L 7.03125 21 C 7.210938 17.480469 8.316406 15.125 9.6875 13.4375 C 10.71875 12.167969 11.886719 11.285156 13 10.59375 Z M 6 23 L 26 23 L 26 26 L 6 26 Z "></path>
</g>
</svg>
