<?xml version="1.0" encoding="UTF-8"?>
<svg xmlns="http://www.w3.org/2000/svg" xmlns:xlink="http://www.w3.org/1999/xlink" viewBox="0 0 32 32" version="1.1">
<g>
<path d="M 13.3125 4 C 13.066406 4.015625 12.390625 4.449219 11.84375 5.125 C 10.785156 5.425781 10.054688 6.28125 9.65625 7.09375 C 9.164063 8.09375 9 9.03125 9 9.6875 C 9 10.203125 9.117188 10.695313 9.3125 11.15625 C 8.820313 10.480469 7.992188 10 7.0625 10 C 6.957031 10 6.851563 10.019531 6.75 10.03125 C 6.613281 9.464844 6.46875 8.988281 6.3125 9 C 6.011719 9.019531 5.542969 9.65625 5.28125 10.59375 C 5.066406 10.75 4.875 10.929688 4.71875 11.125 C 4.214844 11.761719 4 12.519531 4 13.25 C 4 14.160156 4.277344 15.015625 4.78125 15.71875 C 5.285156 16.421875 6.089844 17 7.0625 17 C 7.890625 17 8.703125 16.648438 9.21875 16.03125 C 9.734375 15.414063 9.960938 14.628906 10 13.75 C 10.027344 13.109375 9.941406 12.476563 9.71875 11.90625 C 10.171875 12.507813 10.890625 13 11.75 13 C 12.511719 13 13.277344 12.730469 13.90625 12.1875 C 14.027344 12.085938 14.144531 11.96875 14.25 11.84375 C 14.339844 12.140625 14.429688 12.417969 14.59375 12.6875 C 15.066406 13.464844 16 14 17 14 C 17.726563 14 18.476563 13.664063 19.03125 13.03125 C 19.132813 14.621094 20.292969 16 21.875 16 C 22.148438 16 22.414063 15.953125 22.65625 15.875 C 22.25 16.558594 22 17.300781 22 18.03125 C 22 19.632813 23.199219 21 24.71875 21 C 25.714844 21 26.542969 20.496094 27.09375 19.84375 C 27.644531 19.191406 27.964844 18.390625 28 17.5625 C 28.027344 16.84375 27.941406 16.097656 27.625 15.40625 C 27.488281 15.109375 27.277344 14.808594 27 14.5625 C 26.941406 13.578125 26.617188 13.019531 26.3125 13 C 26.15625 12.988281 25.785156 13.445313 25.46875 14 C 25.121094 14.015625 24.800781 14.101563 24.5 14.21875 C 24.792969 13.671875 24.976563 13.050781 25 12.40625 C 25.03125 11.597656 24.882813 10.800781 24.40625 10.125 C 24.296875 9.96875 24.148438 9.816406 24 9.6875 C 23.960938 8.625 23.628906 8.023438 23.3125 8 C 23.152344 7.988281 22.757813 8.457031 22.4375 9.03125 C 22.332031 9.019531 22.230469 9 22.125 9 C 21.285156 9 20.535156 9.351563 20 9.90625 C 20.011719 9.117188 19.84375 8.324219 19.5 7.59375 C 19.371094 7.324219 19.179688 7.058594 18.96875 6.8125 C 18.910156 5.667969 18.503906 5 18.3125 5 C 18.15625 4.988281 17.785156 5.445313 17.46875 6 C 17.4375 6 17.40625 6 17.375 6 C 16.3125 6 15.503906 6.628906 14.9375 7.375 C 14.902344 7.421875 14.878906 7.480469 14.84375 7.53125 C 14.789063 7.234375 14.714844 6.949219 14.625 6.6875 C 14.484375 6.265625 14.296875 5.890625 13.96875 5.5625 C 13.851563 5.445313 13.71875 5.335938 13.5625 5.25 C 13.570313 4.570313 13.46875 3.988281 13.3125 4 Z M 12.5625 7.03125 C 12.59375 7.074219 12.652344 7.148438 12.71875 7.34375 C 12.875 7.808594 13 8.667969 13 9.75 C 13 10.203125 12.839844 10.445313 12.59375 10.65625 C 12.347656 10.867188 11.996094 11 11.75 11 C 11.617188 11 11.484375 10.921875 11.3125 10.6875 C 11.140625 10.453125 11 10.0625 11 9.6875 C 11 9.5 11.121094 8.609375 11.4375 7.96875 C 11.738281 7.359375 12.054688 7.0625 12.5625 7.03125 Z M 17.375 8 C 17.367188 8 17.527344 8.03125 17.71875 8.4375 C 17.910156 8.84375 18.019531 9.484375 18 9.96875 C 18 9.980469 18 9.988281 18 10 C 18 10.929688 17.765625 11.433594 17.5625 11.6875 C 17.359375 11.941406 17.191406 12 17 12 C 16.539063 12 16.472656 11.921875 16.3125 11.65625 C 16.152344 11.390625 16 10.816406 16 10 C 16 9.597656 16.21875 9.007813 16.53125 8.59375 C 16.84375 8.179688 17.183594 8 17.375 8 Z M 22.125 11 C 22.523438 11 22.644531 11.089844 22.78125 11.28125 C 22.917969 11.472656 23.019531 11.851563 23 12.34375 C 22.984375 12.757813 22.785156 13.242188 22.53125 13.5625 C 22.277344 13.882813 22.015625 14 21.875 14 C 21.359375 14 21 13.636719 21 12.8125 C 21 12.089844 21.167969 11.589844 21.34375 11.34375 C 21.519531 11.097656 21.648438 11 22.125 11 Z M 7.0625 12 C 7.402344 12 7.542969 12.082031 7.71875 12.34375 C 7.894531 12.605469 8.023438 13.09375 8 13.65625 C 7.976563 14.238281 7.828125 14.582031 7.6875 14.75 C 7.546875 14.917969 7.417969 15 7.0625 15 C 6.847656 15 6.636719 14.882813 6.40625 14.5625 C 6.175781 14.242188 6 13.746094 6 13.25 C 6 12.972656 6.128906 12.609375 6.3125 12.375 C 6.496094 12.140625 6.675781 12 7.0625 12 Z M 14.375 15 C 12.378906 15 11.132813 16.027344 10.46875 16.875 C 10.136719 17.296875 9.917969 17.667969 9.75 17.84375 C 9.582031 18.019531 9.601563 18 9.5 18 C 7.027344 18 5 20.027344 5 22.5 C 5 24.972656 7.027344 27 9.5 27 C 10.273438 27 11.371094 26.9375 12.40625 26.90625 C 13.441406 26.875 14.46875 26.898438 14.78125 26.96875 C 15.066406 27.03125 15.984375 27.296875 16.96875 27.53125 C 17.953125 27.765625 19.03125 28 20 28 C 22.199219 28 24 26.199219 24 24 C 24 21.800781 22.199219 20 20 20 C 19.792969 20 19.847656 20.039063 19.65625 19.71875 C 19.464844 19.398438 19.242188 18.777344 18.9375 18.09375 C 18.632813 17.410156 18.210938 16.617188 17.46875 16 C 16.726563 15.382813 15.6875 15 14.375 15 Z M 25.625 16 C 25.703125 16 25.6875 15.949219 25.8125 16.21875 C 25.9375 16.488281 26.019531 16.996094 26 17.46875 C 25.984375 17.835938 25.835938 18.277344 25.59375 18.5625 C 25.351563 18.847656 25.085938 19 24.71875 19 C 24.386719 19 24 18.726563 24 18.03125 C 24 17.671875 24.1875 17.074219 24.5 16.65625 C 24.8125 16.238281 25.15625 16 25.625 16 Z M 14.375 17 C 15.320313 17 15.804688 17.242188 16.1875 17.5625 C 16.570313 17.882813 16.839844 18.339844 17.09375 18.90625 C 17.347656 19.472656 17.566406 20.101563 17.9375 20.71875 C 18.308594 21.335938 19.0625 22 20 22 C 21.117188 22 22 22.882813 22 24 C 22 25.117188 21.117188 26 20 26 C 19.378906 26 18.363281 25.816406 17.4375 25.59375 C 16.511719 25.371094 15.699219 25.136719 15.21875 25.03125 C 14.40625 24.851563 13.417969 24.875 12.34375 24.90625 C 11.269531 24.9375 10.15625 25 9.5 25 C 8.109375 25 7 23.890625 7 22.5 C 7 21.109375 8.109375 20 9.5 20 C 10.214844 20 10.820313 19.605469 11.1875 19.21875 C 11.554688 18.832031 11.804688 18.453125 12.0625 18.125 C 12.574219 17.472656 12.964844 17 14.375 17 Z "></path>
</g>
</svg>
