<?xml version="1.0" encoding="UTF-8"?>
<svg xmlns="http://www.w3.org/2000/svg" xmlns:xlink="http://www.w3.org/1999/xlink" viewBox="0 0 32 32" version="1.1">
<g>
<path d="M 7.6875 5 C 6.917969 5 6.144531 5.292969 5.5625 5.875 L 4.875 6.5625 C 3.710938 7.726563 3.710938 9.648438 4.875 10.8125 L 6.84375 12.78125 C 6.792969 12.878906 6.777344 12.945313 6.71875 13.0625 C 6.421875 13.648438 6.023438 14.453125 5.625 15.40625 C 4.828125 17.316406 4 19.742188 4 22 L 4 22.625 L 10.5625 25.90625 C 10.953125 26.308594 12.695313 28 16 28 C 19.304688 28 21.046875 26.308594 21.4375 25.90625 L 28 22.625 L 28 22 C 28 19.742188 27.171875 17.316406 26.375 15.40625 C 25.75 13.910156 25.367188 13.253906 25.125 12.8125 L 27.125 10.8125 C 28.289063 9.648438 28.289063 7.726563 27.125 6.5625 L 26.4375 5.875 C 25.273438 4.710938 23.351563 4.710938 22.1875 5.875 L 21.1875 6.875 C 20.429688 6.644531 18.203125 6 16 6 C 13.796875 6 11.570313 6.644531 10.8125 6.875 L 9.8125 5.875 C 9.230469 5.292969 8.457031 5 7.6875 5 Z M 24.3125 6.96875 C 24.570313 6.96875 24.832031 7.082031 25.03125 7.28125 L 25.71875 7.96875 C 26.117188 8.367188 26.117188 9.007813 25.71875 9.40625 L 23.21875 11.90625 L 22.65625 12.4375 L 23.0625 13.09375 C 23.0625 13.09375 23.785156 14.394531 24.53125 16.1875 C 25.199219 17.792969 25.78125 19.753906 25.90625 21.40625 L 21.90625 23.4375 C 21.679688 21.667969 20.941406 18.820313 18.5625 17.1875 L 18.3125 17 L 13.6875 17 L 13.4375 17.15625 C 11.046875 18.753906 10.316406 21.617188 10.09375 23.40625 L 6.09375 21.40625 C 6.21875 19.753906 6.800781 17.792969 7.46875 16.1875 C 7.84375 15.292969 8.21875 14.519531 8.5 13.96875 C 8.640625 13.691406 8.761719 13.460938 8.84375 13.3125 C 8.882813 13.238281 8.917969 13.195313 8.9375 13.15625 C 8.949219 13.136719 8.933594 13.101563 8.9375 13.09375 L 9.09375 12.1875 L 8.78125 11.90625 L 6.375 9.46875 L 6.28125 9.40625 C 5.882813 9.007813 5.882813 8.367188 6.28125 7.96875 L 6.96875 7.28125 C 7.167969 7.082031 7.433594 7 7.6875 7 C 7.941406 7 8.207031 7.082031 8.40625 7.28125 L 9.8125 8.71875 L 10.25 9.125 L 10.8125 8.96875 C 10.8125 8.96875 13.960938 8 16 8 C 18.039063 8 21.1875 8.96875 21.1875 8.96875 L 21.75 9.125 L 22.1875 8.71875 L 23.59375 7.28125 C 23.792969 7.082031 24.054688 6.96875 24.3125 6.96875 Z M 12.5 14 C 11.671875 14 11 14.671875 11 15.5 C 11 16.328125 11.671875 17 12.5 17 C 13.328125 17 14 16.328125 14 15.5 C 14 14.671875 13.328125 14 12.5 14 Z M 19.5 14 C 18.671875 14 18 14.671875 18 15.5 C 18 16.328125 18.671875 17 19.5 17 C 20.328125 17 21 16.328125 21 15.5 C 21 14.671875 20.328125 14 19.5 14 Z M 14.4375 19 L 17.59375 19 C 19.492188 20.507813 19.890625 23.730469 19.96875 24.625 C 19.433594 25.097656 18.132813 26 16 26 C 13.867188 26 12.566406 25.097656 12.03125 24.625 C 12.113281 23.71875 12.53125 20.445313 14.4375 19 Z M 13.53125 21 L 14.75 23 L 17.25 23 L 18.46875 21 Z "></path>
</g>
</svg>
