<?xml version="1.0" encoding="UTF-8"?>
<svg xmlns="http://www.w3.org/2000/svg" xmlns:xlink="http://www.w3.org/1999/xlink" viewBox="0 0 32 32" version="1.1">
<g>
<path d="M 21.621094 8.996094 C 21.851563 9.648438 21.722656 10.289063 21.332031 10.425781 C 20.941406 10.566406 20.4375 10.152344 20.207031 9.5 C 19.976563 8.851563 20.105469 8.210938 20.492188 8.070313 C 20.886719 7.933594 21.390625 8.347656 21.621094 8.996094 Z M 11.792969 9.503906 C 12.023438 8.851563 11.894531 8.210938 11.507813 8.074219 C 11.117188 7.933594 10.613281 8.347656 10.378906 9 C 10.148438 9.648438 10.277344 10.289063 10.667969 10.429688 C 11.058594 10.566406 11.5625 10.152344 11.792969 9.503906 Z M 20 17 L 21 17 L 21 18 C 21 20.796875 19.875 22.488281 19.828125 22.5625 L 19.53125 23 L 12.46875 23 L 12.171875 22.5625 C 12.125 22.488281 11 20.796875 11 18 L 11 17 L 12 17 C 14.074219 17 15 15.921875 15 13.5 C 15 12.480469 14.414063 12 14 12 C 13.714844 12 13.46875 12.214844 13.34375 12.527344 C 12.875 12.140625 12.5 11.734375 12.5 11.5 C 12.5 10.957031 14.5 9 14.5 9 L 17.5 9 C 17.5 9 19.5 10.917969 19.5 11.5 C 19.5 11.75 19.125 12.160156 18.660156 12.539063 C 18.535156 12.21875 18.289063 12 18 12 C 17.585938 12 17 12.34375 17 13.5 C 17 15.921875 17.925781 17 20 17 Z M 15 21 L 15 18.183594 C 14.382813 18.601563 13.695313 18.816406 13.050781 18.921875 C 13.160156 19.867188 13.414063 20.578125 13.601563 21 Z M 18.949219 18.921875 C 18.304688 18.816406 17.617188 18.597656 17 18.183594 L 17 21 L 18.398438 21 C 18.585938 20.578125 18.839844 19.867188 18.949219 18.921875 Z M 27 18.332031 C 27 23.222656 20.699219 28 16 28 C 11.300781 28 5 23.222656 5 18.332031 C 5 16.460938 5.636719 14.976563 6.3125 13.40625 C 6.613281 12.714844 6.921875 11.996094 7.199219 11.199219 C 7.308594 10.878906 7.414063 10.558594 7.519531 10.238281 C 7.808594 9.363281 8.109375 8.453125 8.503906 7.609375 C 7.648438 7.628906 7.375 7.683594 7.199219 7.992188 C 7.105469 8.160156 7.050781 8.347656 7.027344 8.542969 L 5.910156 11.714844 C 5.179688 10.429688 4.546875 8.605469 5.464844 7 C 6.234375 5.652344 7.570313 5.625 8.550781 5.605469 C 9.332031 5.589844 9.835938 5.558594 10.199219 5.234375 L 10.210938 5.246094 C 11.105469 4.484375 12.308594 4 14 4 L 18 4 C 19.691406 4 20.894531 4.484375 21.789063 5.246094 L 21.800781 5.234375 C 22.164063 5.558594 22.667969 5.589844 23.449219 5.605469 C 24.429688 5.625 25.765625 5.652344 26.535156 7 C 27.453125 8.605469 26.820313 10.429688 26.09375 11.71875 L 24.972656 8.542969 C 24.949219 8.347656 24.898438 8.164063 24.800781 7.992188 C 24.625 7.6875 24.351563 7.628906 23.496094 7.609375 C 23.890625 8.453125 24.191406 9.363281 24.480469 10.238281 C 24.585938 10.554688 24.691406 10.878906 24.804688 11.199219 C 25.078125 11.996094 25.386719 12.71875 25.6875 13.410156 C 26.363281 14.980469 27 16.460938 27 18.332031 Z M 25 18.332031 C 25 16.871094 24.492188 15.695313 23.851563 14.199219 C 23.535156 13.472656 23.210938 12.71875 22.910156 11.851563 C 22.796875 11.519531 22.6875 11.191406 22.582031 10.859375 C 21.558594 7.757813 20.84375 6 18 6 L 14 6 C 11.15625 6 10.441406 7.757813 9.417969 10.863281 C 9.3125 11.191406 9.203125 11.519531 9.089844 11.851563 C 8.789063 12.71875 8.464844 13.46875 8.148438 14.199219 C 7.507813 15.691406 7 16.871094 7 18.332031 C 7 22.035156 12.28125 26 16 26 C 19.71875 26 25 22.035156 25 18.332031 Z "></path>
</g>
</svg>
