<?xml version="1.0" encoding="UTF-8"?>
<svg xmlns="http://www.w3.org/2000/svg" xmlns:xlink="http://www.w3.org/1999/xlink" viewBox="0 0 32 32" version="1.1">
<g>
<path d="M 17.230469 9.570313 L 12.714844 9.570313 C 12.128906 9.570313 11.652344 9.097656 11.652344 8.511719 L 11.652344 5.828125 C 11.652344 4.816406 10.835938 4 9.828125 4 C 8.816406 4 8 4.816406 8 5.828125 L 8 17.914063 C 8 22.378906 11.621094 26 16.085938 26 L 17.230469 26 C 21.695313 26 25.316406 22.378906 25.316406 17.914063 L 25.316406 17.65625 C 25.320313 13.191406 21.699219 9.570313 17.230469 9.570313 Z M 17.425781 22.347656 L 15.992188 22.347656 C 13.597656 22.347656 11.65625 20.40625 11.65625 18.011719 L 11.65625 15.160156 C 11.65625 14.09375 12.519531 13.226563 13.589844 13.226563 L 17.402344 13.226563 C 19.753906 13.226563 21.660156 15.132813 21.660156 17.484375 L 21.660156 18.113281 C 21.660156 20.449219 19.765625 22.347656 17.425781 22.347656 Z "></path>
</g>
</svg>
