<?xml version="1.0" encoding="UTF-8"?>
<svg xmlns="http://www.w3.org/2000/svg" xmlns:xlink="http://www.w3.org/1999/xlink" viewBox="0 0 32 32" version="1.1">
<g>
<path d="M 16 6 C 11.4375 6 8.082031 6.777344 5.84375 7.5625 C 3.605469 8.347656 2.40625 9.1875 2.40625 9.1875 L 2 9.5 L 2 27 L 7 27 L 7 25 L 25 25 L 25 27 L 30 27 L 30 9.5 L 29.59375 9.1875 C 29.59375 9.1875 28.394531 8.347656 26.15625 7.5625 C 23.917969 6.777344 20.5625 6 16 6 Z M 16 8 C 20.335938 8 23.464844 8.722656 25.5 9.4375 C 27.253906 10.050781 27.785156 10.480469 28 10.625 L 28 15 L 26 15 L 26 12.40625 L 25.5 12.125 C 25.5 12.125 23.445313 11 20.5 11 C 18.375 11 16.761719 11.578125 16 11.90625 C 15.238281 11.578125 13.625 11 11.5 11 C 8.554688 11 6.5 12.125 6.5 12.125 L 6 12.40625 L 6 15 L 4 15 L 4 10.625 C 4.214844 10.480469 4.746094 10.050781 6.5 9.4375 C 8.535156 8.722656 11.664063 8 16 8 Z M 11.5 13 C 13.371094 13 14.464844 13.414063 15 13.65625 L 15 15 L 8 15 L 8 13.65625 C 8.535156 13.414063 9.628906 13 11.5 13 Z M 20.5 13 C 22.371094 13 23.464844 13.414063 24 13.65625 L 24 15 L 17 15 L 17 13.65625 C 17.535156 13.414063 18.628906 13 20.5 13 Z M 4 17 L 28 17 L 28 25 L 27 25 L 27 23 L 5 23 L 5 25 L 4 25 Z "></path>
</g>
</svg>
