<?xml version="1.0" encoding="UTF-8"?>
<svg xmlns="http://www.w3.org/2000/svg" xmlns:xlink="http://www.w3.org/1999/xlink" viewBox="0 0 32 32" version="1.1">
<g>
<path d="M 9 3 L 9 5 C 10.128906 5 11.972656 5.722656 13.5625 6.90625 C 14.769531 7.804688 15.839844 8.933594 16.5 10.125 C 16.210938 10.203125 15.945313 10.347656 15.6875 10.5 C 14.828125 9.136719 13.625 8.109375 12.375 7.40625 C 10.628906 6.425781 8.828125 6 7.4375 6 C 6.679688 6 5.914063 6.332031 5.5 6.90625 C 5.085938 7.480469 5 8.121094 5 8.75 C 5 9.484375 5.214844 10.292969 5.625 11.21875 C 6.035156 12.144531 6.65625 13.132813 7.5 14 C 8.324219 14.847656 9.425781 15.558594 10.71875 15.90625 C 10.652344 15.984375 10.59375 16.074219 10.53125 16.15625 C 9.570313 17.4375 9 19.140625 9 21 C 9 22.859375 9.570313 24.5625 10.53125 25.84375 C 11.058594 26.542969 11.71875 27.117188 12.46875 27.5 C 13.335938 29.082031 15 30 15 30 L 15 27.96875 C 16.394531 27.808594 17.609375 26.988281 18.46875 25.84375 C 19.429688 24.5625 20 22.859375 20 21 C 20 20.289063 19.933594 19.613281 19.78125 18.96875 C 20.597656 18.898438 21.398438 18.601563 22 18 C 22.804688 17.195313 23.066406 16.101563 22.9375 15 C 23.167969 15 23.394531 14.988281 23.625 14.96875 C 24.832031 14.859375 26.101563 14.550781 26.71875 13.375 C 27.246094 12.324219 27 11.160156 26.4375 10.125 C 25.875 9.089844 24.9375 8.101563 23.71875 7.46875 C 23.226563 7.222656 22.695313 7.085938 22.1875 7.03125 C 21.679688 6.976563 21.191406 7.011719 20.71875 7.15625 C 19.773438 7.445313 18.980469 8.136719 18.5 9.0625 C 18.441406 9.171875 18.421875 9.292969 18.375 9.40625 C 17.550781 7.78125 16.222656 6.378906 14.75 5.28125 C 12.902344 3.90625 10.851563 3 9 3 Z M 23.9375 4.03125 L 19.78125 5.03125 L 20.21875 6.96875 L 24.40625 5.96875 Z M 7.4375 8 C 8.378906 8 9.980469 8.355469 11.40625 9.15625 C 12.582031 9.820313 13.644531 10.761719 14.28125 12.03125 C 14.277344 12.039063 14.285156 12.054688 14.28125 12.0625 C 14.039063 12.636719 13.980469 13.28125 14.03125 13.90625 C 11.671875 14.625 10.128906 13.851563 8.9375 12.625 C 8.292969 11.960938 7.796875 11.140625 7.46875 10.40625 C 7.140625 9.671875 7 8.980469 7 8.75 C 7 8.335938 7.097656 8.097656 7.125 8.0625 C 7.152344 8.027344 7.105469 8 7.4375 8 Z M 21.625 9 C 21.890625 8.980469 22.199219 9.027344 22.53125 9.15625 C 22.457031 9.203125 22.40625 9.242188 22.34375 9.3125 C 21.78125 9.867188 21.953125 10.914063 22.5625 11.46875 C 23.171875 12.023438 24.40625 12.214844 24.875 11.75 C 24.890625 11.730469 24.890625 11.707031 24.90625 11.6875 C 25 12.046875 24.984375 12.328125 24.9375 12.4375 C 24.898438 12.511719 24.339844 12.890625 23.46875 12.96875 C 22.597656 13.046875 21.546875 12.894531 21 12.625 C 20.445313 12.351563 20.179688 11.953125 20.0625 11.5 C 19.945313 11.046875 20.011719 10.515625 20.28125 10 C 20.546875 9.488281 20.902344 9.1875 21.3125 9.0625 C 21.414063 9.03125 21.511719 9.007813 21.625 9 Z M 17.3125 12 C 17.5625 11.976563 17.859375 12.015625 18.15625 12.09375 C 18.429688 13.039063 19.089844 13.910156 20.09375 14.40625 C 20.332031 14.523438 20.582031 14.605469 20.84375 14.6875 C 21.105469 15.503906 20.988281 16.199219 20.59375 16.59375 C 20.269531 16.917969 19.769531 17.0625 19.125 16.96875 C 18.480469 16.875 17.722656 16.535156 17.09375 15.90625 C 16.464844 15.277344 16.125 14.519531 16.03125 13.875 C 15.9375 13.230469 16.082031 12.730469 16.40625 12.40625 C 16.628906 12.183594 16.933594 12.035156 17.3125 12 Z M 14.5 16 C 14.5625 16 14.625 16.023438 14.6875 16.03125 C 14.949219 16.484375 15.292969 16.917969 15.6875 17.3125 C 16.25 17.875 16.894531 18.304688 17.5625 18.59375 C 17.714844 18.988281 17.832031 19.421875 17.90625 19.875 C 15.722656 19.40625 13.65625 17.679688 12.65625 16.75 C 13.210938 16.246094 13.839844 16 14.5 16 Z M 11.5 18.5 C 12.734375 19.683594 15.0625 21.503906 17.90625 21.90625 C 17.855469 22.292969 17.796875 22.652344 17.6875 23 C 15.144531 22.933594 13.476563 22.070313 12.40625 21.21875 C 11.6875 20.648438 11.339844 20.191406 11.125 19.875 C 11.207031 19.375 11.324219 18.925781 11.5 18.5 Z M 11.28125 22.875 C 12.484375 23.800781 14.257813 24.660156 16.65625 24.90625 C 16.03125 25.621094 15.289063 26 14.5 26 C 13.617188 26 12.792969 25.546875 12.125 24.65625 C 11.765625 24.175781 11.480469 23.558594 11.28125 22.875 Z "></path>
</g>
</svg>
