<?xml version="1.0" encoding="UTF-8"?>
<svg xmlns="http://www.w3.org/2000/svg" xmlns:xlink="http://www.w3.org/1999/xlink" viewBox="0 0 32 32" version="1.1">
<g>
<path d="M 16 3 C 15.449219 3 15 3.449219 15 4 C 15 4.550781 15.449219 5 16 5 C 16.550781 5 17 4.550781 17 4 C 17 3.449219 16.550781 3 16 3 Z M 16 5 C 15.222656 5 14.632813 5.5 14.28125 6 C 13.929688 6.5 13.714844 7.058594 13.53125 7.65625 C 13.164063 8.851563 13 10.136719 13 11 C 11.789063 11.914063 11 13.375 11 15 C 11 17.035156 12.242188 18.785156 14 19.5625 L 14 21.65625 C 13.539063 22.101563 11.476563 24.152344 11.0625 27 L 10 27 L 10 29 L 22 29 L 22 27 L 20.9375 27 C 20.523438 24.152344 18.460938 22.101563 18 21.65625 L 18 19.5625 C 19.757813 18.785156 21 17.035156 21 15 C 21 13.375 20.210938 11.914063 19 11 C 19 10.160156 18.832031 8.886719 18.46875 7.6875 C 18.285156 7.085938 18.070313 6.535156 17.71875 6.03125 C 17.367188 5.527344 16.78125 5 16 5 Z M 16 7.0625 C 16.019531 7.085938 16.019531 7.09375 16.0625 7.15625 C 16.214844 7.375 16.417969 7.804688 16.5625 8.28125 C 16.742188 8.871094 16.835938 9.523438 16.90625 10.09375 C 16.609375 10.039063 16.3125 10 16 10 C 15.6875 10 15.390625 10.039063 15.09375 10.09375 C 15.160156 9.503906 15.253906 8.851563 15.4375 8.25 C 15.582031 7.777344 15.785156 7.371094 15.9375 7.15625 C 15.980469 7.097656 15.980469 7.085938 16 7.0625 Z M 16 12 C 17.667969 12 19 13.332031 19 15 C 19 16.667969 17.667969 18 16 18 C 14.332031 18 13 16.667969 13 15 C 13 13.332031 14.332031 12 16 12 Z M 14 14 L 14 16 L 18 16 L 18 14 Z M 16 22.40625 L 16.3125 22.71875 C 16.3125 22.71875 18.292969 24.871094 18.84375 27 L 13.15625 27 C 13.707031 24.871094 15.6875 22.71875 15.6875 22.71875 Z "></path>
</g>
</svg>
