<?xml version="1.0" encoding="UTF-8"?>
<svg xmlns="http://www.w3.org/2000/svg" xmlns:xlink="http://www.w3.org/1999/xlink" viewBox="0 0 32 32" version="1.1">
<g>
<path d="M 15.21875 3 C 15.21875 3 15.046875 3.230469 14.8125 3.46875 C 14.695313 3.585938 14.554688 3.714844 14.46875 3.78125 C 14.425781 3.8125 14.375 3.816406 14.375 3.8125 C 13.832031 3.886719 13.292969 3.984375 12.78125 4.125 C 12.679688 4.097656 12.5 4.035156 12.34375 3.96875 C 12.03125 3.835938 11.75 3.6875 11.75 3.6875 L 10.3125 4.28125 C 10.3125 4.28125 10.25 4.597656 10.125 4.90625 C 10.070313 5.046875 10.019531 5.1875 9.96875 5.28125 L 10 5.3125 C 9.472656 5.609375 8.9375 5.914063 8.46875 6.28125 C 8.367188 6.296875 8.199219 6.3125 8.03125 6.3125 C 7.695313 6.308594 7.375 6.25 7.375 6.25 L 6.28125 7.375 C 6.28125 7.375 6.308594 7.667969 6.3125 8 C 6.3125 8.167969 6.328125 8.332031 6.3125 8.4375 C 5.96875 8.882813 5.660156 9.375 5.375 9.875 C 5.359375 9.886719 5.34375 9.890625 5.3125 9.90625 C 5.21875 9.960938 5.0625 10.03125 4.90625 10.09375 C 4.597656 10.21875 4.3125 10.3125 4.3125 10.3125 L 3.71875 11.75 C 3.71875 11.75 3.871094 12.007813 4 12.3125 C 4.066406 12.464844 4.128906 12.644531 4.15625 12.75 C 4.171875 12.800781 4.15625 12.835938 4.15625 12.84375 C 4.019531 13.347656 3.914063 13.871094 3.84375 14.40625 C 3.839844 14.421875 3.835938 14.4375 3.8125 14.46875 C 3.746094 14.554688 3.617188 14.695313 3.5 14.8125 C 3.261719 15.046875 3.03125 15.25 3.03125 15.25 L 3.03125 16.78125 C 3.03125 16.78125 3.265625 16.988281 3.5 17.21875 C 3.617188 17.335938 3.746094 17.445313 3.8125 17.53125 C 3.847656 17.574219 3.871094 17.617188 3.875 17.625 C 3.953125 18.214844 4.0625 18.785156 4.21875 19.34375 L 4.1875 19.34375 C 4.171875 19.28125 4.160156 19.277344 4.15625 19.25 C 4.128906 19.351563 4.066406 19.53125 4 19.6875 C 3.871094 20 3.71875 20.28125 3.71875 20.28125 L 4.34375 21.71875 C 4.34375 21.71875 4.632813 21.785156 4.9375 21.90625 C 5.089844 21.96875 5.214844 22.039063 5.3125 22.09375 C 5.359375 22.121094 5.394531 22.148438 5.40625 22.15625 C 5.6875 22.644531 5.972656 23.125 6.3125 23.5625 C 6.328125 23.667969 6.34375 23.832031 6.34375 24 C 6.34375 24.339844 6.3125 24.65625 6.3125 24.65625 L 7.40625 25.75 C 7.40625 25.75 7.699219 25.722656 8.03125 25.71875 C 8.195313 25.71875 8.363281 25.734375 8.46875 25.75 C 8.523438 25.757813 8.5625 25.78125 8.5625 25.78125 C 8.996094 26.109375 9.457031 26.417969 9.9375 26.6875 C 9.964844 26.703125 10.003906 26.703125 10.03125 26.71875 L 10.03125 26.75 C 9.96875 26.714844 9.960938 26.707031 9.9375 26.6875 C 9.992188 26.777344 10.0625 26.9375 10.125 27.09375 C 10.253906 27.40625 10.34375 27.71875 10.34375 27.71875 L 11.78125 28.3125 C 11.78125 28.3125 12.039063 28.160156 12.34375 28.03125 C 12.496094 27.964844 12.675781 27.902344 12.78125 27.875 C 13.304688 28.019531 13.851563 28.113281 14.40625 28.1875 C 14.398438 28.183594 14.425781 28.1875 14.46875 28.21875 C 14.550781 28.28125 14.695313 28.410156 14.8125 28.53125 C 15.050781 28.773438 15.25 29 15.25 29 L 16.8125 29 C 16.8125 29 16.988281 28.769531 17.21875 28.53125 C 17.335938 28.414063 17.476563 28.285156 17.5625 28.21875 C 17.585938 28.210938 17.617188 28.191406 17.625 28.1875 C 18.214844 28.105469 18.789063 27.96875 19.34375 27.8125 L 19.375 27.84375 C 19.308594 27.863281 19.308594 27.871094 19.28125 27.875 C 19.382813 27.902344 19.53125 27.964844 19.6875 28.03125 C 20 28.164063 20.28125 28.3125 20.28125 28.3125 L 21.71875 27.71875 C 21.71875 27.71875 21.78125 27.402344 21.90625 27.09375 C 21.96875 26.9375 22.039063 26.8125 22.09375 26.71875 C 22.121094 26.671875 22.148438 26.628906 22.15625 26.625 C 22.640625 26.34375 23.128906 26.058594 23.5625 25.71875 C 23.664063 25.703125 23.832031 25.71875 24 25.71875 C 24.335938 25.722656 24.65625 25.75 24.65625 25.75 L 25.75 24.625 C 25.75 24.625 25.722656 24.332031 25.71875 24 C 25.71875 23.832031 25.703125 23.667969 25.71875 23.5625 C 25.707031 23.582031 25.707031 23.566406 25.6875 23.59375 L 25.65625 23.5625 C 26.023438 23.09375 26.386719 22.617188 26.6875 22.09375 C 26.777344 22.039063 26.9375 21.96875 27.09375 21.90625 C 27.40625 21.777344 27.71875 21.6875 27.71875 21.6875 L 28.3125 20.25 C 28.3125 20.25 28.160156 19.960938 28.03125 19.65625 C 27.964844 19.503906 27.902344 19.355469 27.875 19.25 C 27.871094 19.273438 27.855469 19.265625 27.84375 19.3125 L 27.8125 19.28125 C 27.980469 18.679688 28.113281 18.078125 28.1875 17.4375 L 28.21875 17.4375 C 28.210938 17.5 28.226563 17.503906 28.21875 17.53125 C 28.28125 17.449219 28.378906 17.335938 28.5 17.21875 C 28.738281 16.980469 29 16.78125 29 16.78125 L 29 15.21875 C 29 15.21875 28.769531 15.015625 28.53125 14.78125 C 28.414063 14.664063 28.285156 14.554688 28.21875 14.46875 C 28.222656 14.492188 28.210938 14.488281 28.21875 14.53125 L 28.1875 14.53125 C 28.113281 13.890625 27.980469 13.289063 27.8125 12.6875 C 27.808594 12.675781 27.816406 12.667969 27.8125 12.65625 L 27.84375 12.65625 C 27.863281 12.722656 27.871094 12.722656 27.875 12.75 C 27.902344 12.648438 27.964844 12.46875 28.03125 12.3125 C 28.164063 12 28.3125 11.71875 28.3125 11.71875 L 27.71875 10.28125 C 27.71875 10.28125 27.402344 10.21875 27.09375 10.09375 C 26.941406 10.03125 26.8125 9.960938 26.71875 9.90625 C 26.671875 9.878906 26.628906 9.84375 26.625 9.84375 C 26.621094 9.84375 26.660156 9.871094 26.71875 9.96875 C 26.714844 9.964844 26.691406 9.972656 26.6875 9.96875 C 26.664063 9.929688 26.648438 9.882813 26.625 9.84375 C 26.34375 9.359375 26.058594 8.875 25.71875 8.4375 C 25.703125 8.332031 25.71875 8.167969 25.71875 8 C 25.71875 7.660156 25.75 7.34375 25.75 7.34375 L 24.625 6.25 C 24.625 6.25 24.332031 6.277344 24 6.28125 C 23.835938 6.28125 23.667969 6.296875 23.5625 6.28125 C 23.582031 6.292969 23.566406 6.292969 23.59375 6.3125 L 23.5625 6.34375 C 23.097656 5.980469 22.613281 5.613281 22.09375 5.3125 C 22.066406 5.296875 22.027344 5.296875 22 5.28125 L 22 5.25 C 22.066406 5.285156 22.070313 5.292969 22.09375 5.3125 C 22.039063 5.222656 21.96875 5.0625 21.90625 4.90625 C 21.777344 4.59375 21.6875 4.28125 21.6875 4.28125 L 20.25 3.6875 C 20.25 3.6875 19.992188 3.839844 19.6875 3.96875 C 19.535156 4.035156 19.386719 4.097656 19.28125 4.125 C 19.175781 4.152344 19.09375 4.101563 19.3125 4.15625 L 19.28125 4.1875 C 18.714844 4.03125 18.160156 3.859375 17.5625 3.78125 C 17.480469 3.71875 17.335938 3.589844 17.21875 3.46875 C 16.980469 3.226563 16.78125 3 16.78125 3 Z M 17.4375 3.78125 C 17.503906 3.789063 17.441406 3.773438 17.46875 3.78125 L 17.46875 3.875 Z M 19.875 4.53125 C 19.921875 4.589844 19.941406 4.632813 19.96875 4.6875 L 19.65625 4.84375 Z M 12.125 4.5625 L 12.40625 4.9375 L 12.21875 4.875 C 12.21875 4.875 12.25 4.84375 12.25 4.84375 L 12.03125 4.78125 C 12.050781 4.738281 12.09375 4.609375 12.125 4.5625 Z M 16.03125 5.0625 C 16.136719 5.164063 16.21875 5.28125 16.34375 5.375 C 16.542969 5.527344 16.773438 5.691406 17.21875 5.75 L 17.21875 5.78125 C 17.230469 5.78125 17.234375 5.78125 17.25 5.78125 C 17.78125 5.84375 18.300781 5.949219 18.8125 6.09375 L 18.84375 6.03125 L 18.84375 6.09375 C 19.285156 6.203125 19.53125 6.128906 19.78125 6.0625 C 19.929688 6.023438 20.054688 5.957031 20.1875 5.90625 C 20.25 6.042969 20.292969 6.171875 20.375 6.3125 C 20.503906 6.527344 20.648438 6.777344 21.03125 7 L 21.03125 7.03125 C 21.039063 7.035156 21.054688 7.027344 21.0625 7.03125 C 21.527344 7.296875 21.953125 7.605469 22.375 7.9375 L 22.40625 7.9375 C 22.773438 8.207031 23.054688 8.214844 23.3125 8.25 C 23.457031 8.269531 23.582031 8.277344 23.71875 8.28125 C 23.722656 8.429688 23.726563 8.5625 23.75 8.71875 C 23.785156 8.96875 23.8125 9.234375 24.09375 9.59375 L 24.09375 9.625 L 24.0625 9.625 C 24.402344 10.054688 24.703125 10.492188 24.96875 10.96875 L 25.0625 10.96875 L 25 11 C 25.234375 11.390625 25.464844 11.496094 25.6875 11.625 C 25.824219 11.703125 25.960938 11.753906 26.09375 11.8125 C 26.039063 11.957031 25.980469 12.089844 25.9375 12.25 C 25.875 12.488281 25.804688 12.742188 25.90625 13.15625 L 25.875 13.1875 C 26.023438 13.714844 26.15625 14.261719 26.21875 14.8125 C 26.289063 15.261719 26.46875 15.484375 26.625 15.6875 C 26.714844 15.804688 26.8125 15.898438 26.90625 16 C 26.804688 16.109375 26.71875 16.214844 26.625 16.34375 C 26.472656 16.542969 26.308594 16.746094 26.25 17.1875 C 26.246094 17.207031 26.222656 17.199219 26.21875 17.21875 C 26.15625 17.757813 26.019531 18.296875 25.875 18.8125 L 25.90625 18.8125 L 25.90625 18.84375 C 25.8125 19.261719 25.871094 19.539063 25.9375 19.78125 C 25.976563 19.929688 26.042969 20.054688 26.09375 20.1875 C 25.957031 20.25 25.828125 20.292969 25.6875 20.375 C 25.472656 20.503906 25.222656 20.648438 25 21.03125 L 24.96875 21.03125 C 24.964844 21.039063 24.972656 21.054688 24.96875 21.0625 C 24.707031 21.53125 24.398438 21.949219 24.0625 22.375 L 24.0625 22.40625 C 23.792969 22.773438 23.785156 23.023438 23.75 23.28125 C 23.730469 23.429688 23.722656 23.578125 23.71875 23.71875 C 23.570313 23.722656 23.441406 23.726563 23.28125 23.75 C 23.03125 23.785156 22.765625 23.8125 22.40625 24.09375 L 22.375 24.09375 L 22.375 24.0625 C 21.949219 24.402344 21.507813 24.703125 21.03125 24.96875 L 21.03125 25.0625 L 21 25 C 20.609375 25.238281 20.503906 25.496094 20.375 25.71875 C 20.300781 25.847656 20.246094 25.96875 20.1875 26.09375 C 20.050781 26.042969 19.933594 25.976563 19.78125 25.9375 C 19.535156 25.875 19.253906 25.785156 18.8125 25.90625 C 18.796875 25.910156 18.796875 25.902344 18.78125 25.90625 C 18.273438 26.050781 17.75 26.15625 17.21875 26.21875 L 17.1875 26.28125 L 17.1875 26.21875 C 16.738281 26.289063 16.546875 26.46875 16.34375 26.625 C 16.21875 26.71875 16.136719 26.839844 16.03125 26.9375 C 15.921875 26.835938 15.816406 26.722656 15.6875 26.625 C 15.488281 26.472656 15.257813 26.308594 14.8125 26.25 C 14.804688 26.25 14.820313 26.21875 14.8125 26.21875 C 14.800781 26.21875 14.792969 26.21875 14.78125 26.21875 C 14.25 26.15625 13.726563 26.050781 13.21875 25.90625 L 13.1875 25.96875 L 13.1875 25.90625 C 12.746094 25.796875 12.5 25.871094 12.25 25.9375 C 12.101563 25.976563 11.976563 26.042969 11.84375 26.09375 C 11.78125 25.957031 11.738281 25.824219 11.65625 25.6875 C 11.527344 25.46875 11.402344 25.230469 11 25 C 10.53125 24.738281 10.078125 24.429688 9.65625 24.09375 L 9.5625 24.125 L 9.625 24.0625 C 9.257813 23.792969 9.007813 23.785156 8.75 23.75 C 8.601563 23.730469 8.453125 23.722656 8.3125 23.71875 C 8.308594 23.570313 8.304688 23.4375 8.28125 23.28125 C 8.246094 23.023438 8.246094 22.753906 7.9375 22.375 C 7.914063 22.34375 7.898438 22.3125 7.875 22.28125 C 7.5625 21.878906 7.277344 21.472656 7.03125 21.03125 L 7 20.9375 C 6.757813 20.578125 6.53125 20.464844 6.3125 20.34375 C 6.1875 20.273438 6.058594 20.242188 5.9375 20.1875 C 5.988281 20.054688 6.054688 19.929688 6.09375 19.78125 C 6.160156 19.53125 6.253906 19.273438 6.125 18.8125 C 5.976563 18.285156 5.875 17.738281 5.8125 17.1875 L 5.78125 17.125 C 5.699219 16.695313 5.53125 16.511719 5.375 16.3125 C 5.28125 16.195313 5.1875 16.101563 5.09375 16 C 5.191406 15.894531 5.3125 15.808594 5.40625 15.6875 C 5.5625 15.488281 5.738281 15.328125 5.8125 14.875 L 5.8125 14.8125 C 5.875 14.261719 5.976563 13.714844 6.125 13.1875 L 6.15625 13.15625 C 6.253906 12.71875 6.160156 12.464844 6.09375 12.21875 C 6.054688 12.070313 5.988281 11.945313 5.9375 11.8125 C 6.058594 11.757813 6.191406 11.726563 6.3125 11.65625 C 6.53125 11.53125 6.757813 11.445313 7 11.0625 L 7.03125 11 C 7.296875 10.523438 7.597656 10.058594 7.9375 9.625 L 7.90625 9.53125 L 7.96875 9.59375 C 8.238281 9.226563 8.246094 8.976563 8.28125 8.71875 C 8.300781 8.570313 8.308594 8.421875 8.3125 8.28125 C 8.460938 8.277344 8.59375 8.273438 8.75 8.25 C 9.007813 8.214844 9.277344 8.214844 9.65625 7.90625 C 10.082031 7.570313 10.53125 7.261719 11 7 L 11.03125 7 C 11.417969 6.761719 11.527344 6.503906 11.65625 6.28125 C 11.730469 6.152344 11.785156 6.03125 11.84375 5.90625 C 11.980469 5.957031 12.125 6.023438 12.28125 6.0625 C 12.527344 6.125 12.777344 6.214844 13.21875 6.09375 C 13.230469 6.089844 13.238281 6.097656 13.25 6.09375 C 13.757813 5.953125 14.285156 5.84375 14.8125 5.78125 L 14.84375 5.71875 L 14.84375 5.78125 C 15.292969 5.710938 15.484375 5.53125 15.6875 5.375 C 15.8125 5.277344 15.925781 5.164063 16.03125 5.0625 Z M 17.875 5.5 L 17.9375 5.59375 C 17.917969 5.609375 17.921875 5.613281 17.90625 5.625 Z M 21.6875 7.03125 L 21.71875 7.125 C 21.574219 7.152344 21.574219 7.144531 21.6875 7.125 Z M 9.375 7.125 L 10.03125 7.125 C 10.03125 7.125 9.9375 7.5625 9.9375 7.5625 Z M 16 8 C 13.949219 8 11.902344 8.785156 10.34375 10.34375 L 11.75 11.75 C 14.101563 9.398438 17.898438 9.398438 20.25 11.75 C 22.601563 14.101563 22.601563 17.898438 20.25 20.25 L 21.65625 21.65625 C 24.773438 18.539063 24.773438 13.460938 21.65625 10.34375 C 20.097656 8.785156 18.050781 8 16 8 Z M 25 8 C 25.28125 8.03125 25.277344 8.078125 25.0625 8.03125 L 24.96875 8.15625 Z M 26.71875 10.8125 L 26.8125 10.8125 C 26.804688 10.832031 26.792969 10.816406 26.78125 10.84375 Z M 8.28125 13.9375 C 7.570313 16.605469 8.253906 19.566406 10.34375 21.65625 C 12.433594 23.746094 15.394531 24.429688 18.0625 23.71875 L 17.53125 21.78125 C 15.527344 22.316406 13.324219 21.824219 11.75 20.25 C 10.175781 18.675781 9.652344 16.441406 10.1875 14.4375 Z M 27.84375 15.28125 L 27.96875 15.3125 C 27.953125 15.332031 27.96875 15.34375 27.9375 15.375 Z M 24.875 21.65625 L 25.125 21.71875 L 24.875 21.78125 C 24.855469 21.714844 24.882813 21.695313 24.875 21.65625 Z M 14.375 26.28125 L 14.46875 26.96875 L 14 26.5 C 14 26.5 14.105469 26.40625 14.15625 26.375 C 14.207031 26.34375 14.25 26.328125 14.28125 26.3125 C 14.347656 26.28125 14.375 26.28125 14.375 26.28125 Z M 12.15625 27.1875 L 12.0625 27.3125 C 12.046875 27.285156 12.046875 27.257813 12.03125 27.21875 Z M 19.84375 27.25 L 19.96875 27.3125 C 19.8125 27.625 19.753906 27.683594 19.9375 27.375 Z "></path>
</g>
</svg>
