<?xml version="1.0" encoding="UTF-8"?>
<svg xmlns="http://www.w3.org/2000/svg" xmlns:xlink="http://www.w3.org/1999/xlink" viewBox="0 0 32 32" version="1.1">
<g>
<path d="M 9.5 3 L 9.25 3.59375 C 9.25 3.59375 8 6.492188 8 10.8125 C 8 13.066406 8.640625 14.839844 9.21875 16.65625 C 9.796875 18.472656 10.34375 20.347656 10.34375 22.9375 C 10.34375 23.136719 10.238281 23.8125 10.125 24.46875 C 10.121094 24.480469 10.128906 24.488281 10.125 24.5 C 9.90625 25.628906 10.167969 26.734375 10.78125 27.59375 C 11.402344 28.460938 12.4375 29.097656 13.625 29 L 13.65625 29 L 13.6875 28.96875 C 14.515625 28.851563 15.53125 28.875 16 28.875 C 16.46875 28.875 17.484375 28.851563 18.3125 28.96875 L 18.34375 29 L 18.375 29 C 19.535156 29.101563 20.558594 28.480469 21.1875 27.625 C 21.8125 26.777344 22.097656 25.652344 21.875 24.5 C 21.871094 24.488281 21.878906 24.480469 21.875 24.46875 C 21.761719 23.816406 21.65625 23.140625 21.65625 22.9375 C 21.65625 20.347656 22.203125 18.457031 22.78125 16.625 C 23.359375 14.792969 24 13.007813 24 10.8125 C 24 6.617188 22.75 3.625 22.75 3.625 L 22.5 3 Z M 10.90625 5 L 21.09375 5 C 21.296875 5.566406 21.757813 6.917969 21.9375 9 L 17.71875 9 L 17.8125 10.0625 C 17.8125 10.0625 17.855469 10.816406 17.90625 11.625 C 17.957031 12.433594 18 13.382813 18 13.5 C 18 13.714844 17.714844 14 17.5 14 C 17.285156 14 17 13.714844 17 13.5 C 17 13.382813 17.042969 12.433594 17.09375 11.625 C 17.144531 10.816406 17.1875 10.0625 17.1875 10.0625 L 17.28125 9 L 11 9 L 11 11 L 15.125 11 C 15.109375 11.226563 15.109375 11.238281 15.09375 11.5 C 15.042969 12.316406 15 13.117188 15 13.5 C 15 14.882813 16.117188 16 17.5 16 C 18.882813 16 20 14.882813 20 13.5 C 20 13.117188 19.957031 12.316406 19.90625 11.5 C 19.890625 11.238281 19.890625 11.226563 19.875 11 L 22 11 C 21.964844 12.722656 21.441406 14.199219 20.875 16 C 20.285156 17.867188 19.65625 20.0625 19.65625 22.9375 C 19.65625 23.53125 19.789063 24.175781 19.90625 24.84375 C 20.019531 25.414063 19.863281 26.027344 19.5625 26.4375 C 19.261719 26.847656 18.890625 27.03125 18.53125 27 C 17.515625 26.863281 16.457031 26.875 16 26.875 C 15.542969 26.875 14.484375 26.863281 13.46875 27 C 13.023438 27.035156 12.691406 26.835938 12.40625 26.4375 C 12.121094 26.039063 11.972656 25.433594 12.09375 24.84375 C 12.210938 24.179688 12.34375 23.53125 12.34375 22.9375 C 12.34375 20.0625 11.714844 17.910156 11.125 16.0625 C 10.535156 14.214844 10 12.691406 10 10.8125 C 10 7.546875 10.652344 5.675781 10.90625 5 Z "></path>
</g>
</svg>
