<?xml version="1.0" encoding="UTF-8"?>
<svg xmlns="http://www.w3.org/2000/svg" xmlns:xlink="http://www.w3.org/1999/xlink" viewBox="0 0 32 32" version="1.1">
<g>
<path d="M 15 4 L 15 6.53125 C 14.242188 5.824219 13.3125 5.296875 12.25 5.03125 L 11.75 6.96875 C 12.753906 7.21875 13.582031 7.804688 14.15625 8.59375 C 14.542969 6.980469 15.597656 5.625 17 4.8125 L 17 4 Z M 20 5 C 17.253906 5 15 7.25 15 10 L 15 11.71875 C 13.964844 10.683594 12.582031 10 11 10 C 7.699219 10 5 12.699219 5 16 C 5 17.492188 5.640625 18.734375 6.53125 19.65625 C 7.421875 20.578125 8.535156 21.253906 9.65625 21.90625 C 11.898438 23.210938 14.121094 24.410156 15 26.40625 L 15 28 L 17 28 L 17 26.4375 L 17.03125 26.375 C 17.863281 24.296875 20.027344 23.144531 22.28125 21.875 C 23.40625 21.242188 24.535156 20.570313 25.4375 19.65625 C 26.339844 18.742188 27 17.507813 27 16 C 27 12.699219 24.300781 10 21 10 C 19.417969 10 18.035156 10.683594 17 11.71875 L 17 10 C 17 8.332031 18.335938 7 20 7 C 20.757813 7 21.53125 7.375 21.53125 7.375 L 22.46875 5.625 C 22.46875 5.625 21.378906 5 20 5 Z M 11 12 C 12.648438 12 14.039063 12.996094 14.65625 14.40625 L 14.9375 15 L 17.0625 15 L 17.34375 14.40625 C 17.960938 12.996094 19.351563 12 21 12 C 23.21875 12 25 13.78125 25 16 C 25 16.980469 24.671875 17.601563 24.03125 18.25 C 23.390625 18.898438 22.410156 19.507813 21.3125 20.125 C 19.503906 21.144531 17.339844 22.292969 15.96875 24.28125 C 14.566406 22.363281 12.445313 21.226563 10.65625 20.1875 C 9.566406 19.554688 8.605469 18.941406 7.96875 18.28125 C 7.332031 17.621094 7 16.964844 7 16 C 7 13.78125 8.777344 12 11 12 Z "></path>
</g>
</svg>
