<?xml version="1.0" encoding="UTF-8"?>
<svg xmlns="http://www.w3.org/2000/svg" xmlns:xlink="http://www.w3.org/1999/xlink" viewBox="0 0 32 32" version="1.1">
<g>
<path d="M 4 5 L 4 27 L 28 27 L 28 5 Z M 6 7 L 26 7 L 26 9 L 6 9 Z M 6 11 L 26 11 L 26 25 L 6 25 Z M 16 13 C 13.25 13 11 15.25 11 18 C 11 20.75 13.25 23 16 23 C 18.75 23 21 20.75 21 18 C 21 15.25 18.75 13 16 13 Z M 16 15 C 16.457031 15 16.894531 15.101563 17.28125 15.28125 L 13.28125 19.28125 C 13.101563 18.894531 13 18.457031 13 18 C 13 16.332031 14.332031 15 16 15 Z M 18.71875 16.71875 C 18.898438 17.105469 19 17.542969 19 18 C 19 19.667969 17.667969 21 16 21 C 15.542969 21 15.105469 20.898438 14.71875 20.71875 Z "></path>
</g>
</svg>
