<?xml version="1.0" encoding="UTF-8"?>
<svg xmlns="http://www.w3.org/2000/svg" xmlns:xlink="http://www.w3.org/1999/xlink" viewBox="0 0 32 32" version="1.1">
<g>
<path d="M 23 3 C 19.699219 3 17 5.699219 17 9 C 17 10.015625 16.59375 11 15.875 11.71875 L 15.71875 11.875 C 15 12.59375 14.015625 13 13 13 L 11 13 C 6.59375 13 3 16.59375 3 21 C 3 25.40625 6.59375 29 11 29 C 15.40625 29 19 25.40625 19 21 L 19 19 C 19 17.984375 19.40625 17 20.125 16.28125 L 20.28125 16.125 C 21 15.40625 21.984375 15 23 15 C 26.300781 15 29 12.300781 29 9 C 29 5.699219 26.300781 3 23 3 Z M 23 5 C 25.222656 5 27 6.777344 27 9 C 27 11.222656 25.222656 13 23 13 C 20.777344 13 19 11.222656 19 9 C 19 6.777344 20.777344 5 23 5 Z M 18 12.28125 C 18.449219 12.964844 19.035156 13.550781 19.71875 14 C 19.410156 14.210938 19.140625 14.453125 18.875 14.71875 L 18.71875 14.875 C 18.253906 15.339844 17.878906 15.886719 17.59375 16.46875 C 17.035156 15.660156 16.339844 14.964844 15.53125 14.40625 C 16.085938 14.136719 16.613281 13.78125 17.0625 13.34375 L 17.3125 13.09375 C 17.5625 12.839844 17.800781 12.574219 18 12.28125 Z M 11 15 C 14.324219 15 17 17.675781 17 21 C 17 24.324219 14.324219 27 11 27 C 7.675781 27 5 24.324219 5 21 C 5 17.675781 7.675781 15 11 15 Z "></path>
</g>
</svg>
