<?xml version="1.0" encoding="UTF-8"?>
<svg xmlns="http://www.w3.org/2000/svg" xmlns:xlink="http://www.w3.org/1999/xlink" viewBox="0 0 32 32" version="1.1">
<g>
<path d="M 7.375 5 C 6.066406 5 5 6.066406 5 7.375 L 5 9 L 7 9 L 7 7.375 C 7 7.148438 7.148438 7 7.375 7 C 7.621094 7 7.804688 7.167969 7.78125 7.40625 C 7.78125 7.414063 7.78125 7.429688 7.78125 7.4375 L 6.21875 15.03125 C 4.960938 21.195313 9.707031 27 16 27 C 22.292969 27 27.039063 21.195313 25.78125 15.03125 L 24.21875 7.4375 L 24.21875 7.40625 C 24.195313 7.167969 24.378906 7 24.625 7 C 24.851563 7 25 7.148438 25 7.375 L 25 9 L 27 9 L 27 7.375 C 27 6.066406 25.933594 5 24.625 5 C 23.183594 5 22.035156 6.324219 22.25 7.75 L 22.25 7.78125 L 23.8125 15.4375 C 24.828125 20.40625 21.070313 25 16 25 C 10.929688 25 7.171875 20.40625 8.1875 15.4375 L 9.75 7.78125 L 9.75 7.75 C 9.964844 6.324219 8.816406 5 7.375 5 Z M 12.03125 9 L 12.03125 11 L 19.96875 11 L 19.96875 9 Z M 11.34375 12 L 11.34375 14 L 20.65625 14 L 20.65625 12 Z M 10.65625 15 L 10.65625 17 L 21.34375 17 L 21.34375 15 Z M 10 18 L 10 20 L 22 20 L 22 18 Z "></path>
</g>
</svg>
