<?xml version="1.0" encoding="UTF-8"?>
<svg xmlns="http://www.w3.org/2000/svg" xmlns:xlink="http://www.w3.org/1999/xlink" viewBox="0 0 32 32" version="1.1">
<g>
<path d="M 19.5 4 C 17.578125 4 16 5.578125 16 7.5 C 16 9.421875 17.578125 11 19.5 11 C 21.421875 11 23 9.421875 23 7.5 C 23 5.578125 21.421875 4 19.5 4 Z M 19.5 6 C 20.339844 6 21 6.660156 21 7.5 C 21 8.339844 20.339844 9 19.5 9 C 18.660156 9 18 8.339844 18 7.5 C 18 6.660156 18.660156 6 19.5 6 Z M 26 9 C 24.355469 9 23 10.355469 23 12 C 23 12.460938 23.125 12.890625 23.3125 13.28125 L 22.25 14.34375 L 19.96875 12.03125 L 19.9375 12 C 19.199219 11.28125 18.234375 10.972656 17.28125 11.03125 C 16.3125 11.089844 15.363281 11.550781 14.71875 12.375 L 9.5 19 L 6 19 C 4.90625 19 4 19.90625 4 21 L 4 28 L 6 28 L 6 21 L 13.53125 21 C 14.757813 21 15.929688 20.433594 16.6875 19.46875 L 20.15625 15.0625 L 20.84375 15.75 C 21.617188 16.523438 22.882813 16.523438 23.65625 15.75 L 24.71875 14.6875 C 25.109375 14.875 25.539063 15 26 15 C 27.644531 15 29 13.644531 29 12 C 29 10.355469 27.644531 9 26 9 Z M 26 11 C 26.5625 11 27 11.4375 27 12 C 27 12.5625 26.5625 13 26 13 C 25.4375 13 25 12.5625 25 12 C 25 11.4375 25.4375 11 26 11 Z M 17.375 13 C 17.792969 12.976563 18.234375 13.140625 18.5625 13.46875 L 18.71875 13.625 L 15.125 18.25 C 14.746094 18.734375 14.144531 19 13.53125 19 L 12.0625 19 L 16.28125 13.59375 C 16.566406 13.230469 16.957031 13.023438 17.375 13 Z M 7 22 L 7 24.8125 L 7.84375 28 L 9.90625 28 L 8.34375 22 Z "></path>
</g>
</svg>
