<?xml version="1.0" encoding="UTF-8"?>
<svg xmlns="http://www.w3.org/2000/svg" xmlns:xlink="http://www.w3.org/1999/xlink" viewBox="0 0 32 32" version="1.1">
<g>
<path d="M 25 6 C 22.800781 6 21 7.800781 21 10 C 21 12.199219 22.800781 14 25 14 C 27.199219 14 29 12.199219 29 10 C 29 7.800781 27.199219 6 25 6 Z M 8.65625 7 C 6.152344 7 4.253906 9.324219 4.75 11.78125 L 6.125 19.59375 L 3.09375 26.59375 L 4.90625 27.40625 L 8.0625 20.09375 L 8.1875 19.8125 L 8.125 19.53125 L 6.71875 11.40625 C 6.464844 10.148438 7.371094 9 8.65625 9 L 17.46875 9 C 18.527344 9 19.226563 9.972656 18.875 10.96875 L 18.5 12 L 8.71875 12 L 8.90625 13.15625 L 10 19.84375 L 10 27 L 12 27 L 12 19.53125 L 11.0625 14 L 17.8125 14 L 17.09375 16.0625 L 16.875 16.65625 L 17.3125 17.125 L 22.0625 21.875 C 22.242188 22.054688 22.503906 22.15625 22.78125 22.15625 C 23.332031 22.15625 23.78125 21.707031 23.78125 21.15625 C 23.78125 20.878906 23.679688 20.617188 23.5 20.4375 L 24.28125 19.65625 L 25.375 20.75 L 26.78125 19.34375 L 25.6875 18.21875 L 26.34375 17.5625 L 24.9375 16.15625 L 24.28125 16.8125 L 23.21875 15.75 L 21.8125 17.1875 L 22.84375 18.21875 L 22.0625 19 L 19.1875 16.125 L 20.78125 11.65625 C 21.574219 9.417969 19.84375 7 17.46875 7 Z M 25 8 C 26.117188 8 27 8.882813 27 10 C 27 11.117188 26.117188 12 25 12 C 23.882813 12 23 11.117188 23 10 C 23 8.882813 23.882813 8 25 8 Z M 18.78125 20.1875 L 17.375 21.625 L 18.4375 22.6875 L 17.6875 23.40625 L 19.09375 24.8125 L 19.8125 24.0625 L 20.9375 25.1875 L 22.34375 23.78125 Z "></path>
</g>
</svg>
