<?xml version="1.0" encoding="UTF-8"?>
<svg xmlns="http://www.w3.org/2000/svg" xmlns:xlink="http://www.w3.org/1999/xlink" viewBox="0 0 32 32" version="1.1">
<g>
<path d="M 12 3 C 9.25 3 7 5.25 7 8 C 7 10.40625 8.726563 12.4375 11 12.90625 L 11 18 C 11 19.644531 12.355469 21 14 21 L 27 21 L 27 27 L 29 27 L 29 17.90625 C 29 16.894531 28.222656 16.015625 27.21875 15.90625 L 19.125 15 L 13 15 L 13 12.90625 C 15.273438 12.4375 17 10.40625 17 8 C 17 5.25 14.75 3 12 3 Z M 12 5 C 13.667969 5 15 6.332031 15 8 C 15 9.667969 13.667969 11 12 11 C 10.332031 11 9 9.667969 9 8 C 9 6.332031 10.332031 5 12 5 Z M 12 7 C 11.449219 7 11 7.449219 11 8 C 11 8.550781 11.449219 9 12 9 C 12.550781 9 13 8.550781 13 8 C 13 7.449219 12.550781 7 12 7 Z M 6.5 14 C 4.578125 14 3 15.578125 3 17.5 C 3 19.421875 4.578125 21 6.5 21 C 8.421875 21 10 19.421875 10 17.5 C 10 15.578125 8.421875 14 6.5 14 Z M 6.5 16 C 7.339844 16 8 16.660156 8 17.5 C 8 18.339844 7.339844 19 6.5 19 C 5.660156 19 5 18.339844 5 17.5 C 5 16.660156 5.660156 16 6.5 16 Z M 13 17 L 19 17 L 27 17.90625 L 27 19 L 14 19 C 13.433594 19 13 18.566406 13 18 Z M 24.40625 22 L 23.09375 27 L 25.15625 27 L 26 23.8125 L 26 22 Z "></path>
</g>
</svg>
