<?xml version="1.0" encoding="UTF-8"?>
<svg xmlns="http://www.w3.org/2000/svg" xmlns:xlink="http://www.w3.org/1999/xlink" viewBox="0 0 32 32" version="1.1">
<g>
<path d="M 16 4 C 10.488281 4 6 8.488281 6 14 C 6 15.875 6.535156 17.625 7.4375 19.125 L 3.3125 23.21875 L 3 23.5 L 3 25 L 7 25 L 7 29 L 8.46875 29 L 8.78125 28.71875 L 13.71875 23.71875 C 14.457031 23.890625 15.210938 24 16 24 C 16.789063 24 17.542969 23.890625 18.28125 23.71875 L 23.21875 28.71875 L 23.53125 29 L 25 29 L 25 25 L 29 25 L 29 23.5 L 28.6875 23.21875 L 24.5625 19.125 C 25.464844 17.625 26 15.875 26 14 C 26 8.488281 21.511719 4 16 4 Z M 16 6 C 20.429688 6 24 9.570313 24 14 C 24 18.429688 20.429688 22 16 22 C 11.570313 22 8 18.429688 8 14 C 8 9.570313 11.570313 6 16 6 Z M 15 9 C 15 10.117188 14.117188 11 13 11 L 13 13 C 13.734375 13 14.40625 12.785156 15 12.4375 L 15 17 L 13 17 L 13 19 L 19 19 L 19 17 L 17 17 L 17 9 Z M 8.65625 20.75 C 9.492188 21.660156 10.503906 22.417969 11.625 22.96875 L 9 25.59375 L 9 23 L 6.375 23 Z M 23.34375 20.75 L 25.625 23 L 23 23 L 23 25.59375 L 20.375 22.96875 C 21.496094 22.417969 22.507813 21.660156 23.34375 20.75 Z "></path>
</g>
</svg>
