<?xml version="1.0" encoding="UTF-8"?>
<svg xmlns="http://www.w3.org/2000/svg" xmlns:xlink="http://www.w3.org/1999/xlink" viewBox="0 0 32 32" version="1.1">
<g>
<path d="M 14.5 4 C 11.464844 4 9 6.464844 9 9.5 L 9 28 L 11 28 L 11 23.46875 C 12.0625 24.417969 13.457031 25 15 25 L 17 25 C 20.324219 25 23 22.324219 23 19 C 23 16.492188 21.488281 14.335938 19.3125 13.4375 C 20.34375 12.4375 21 11.046875 21 9.5 C 21 6.464844 18.535156 4 15.5 4 Z M 14.5 6 L 15.5 6 C 17.464844 6 19 7.535156 19 9.5 C 19 11.464844 17.464844 13 15.5 13 L 13 13 L 13 15 L 17 15 C 19.277344 15 21 16.722656 21 19 C 21 21.277344 19.277344 23 17 23 L 15 23 C 12.722656 23 11 21.277344 11 19 L 11 9.5 C 11 7.535156 12.535156 6 14.5 6 Z "></path>
</g>
</svg>
