<?xml version="1.0" encoding="UTF-8"?>
<svg xmlns="http://www.w3.org/2000/svg" xmlns:xlink="http://www.w3.org/1999/xlink" viewBox="0 0 32 32" version="1.1">
<g>
<path d="M 15.4375 3 L 15.15625 3.5 L 12.15625 8.5 L 12 8.71875 L 12 11.5625 L 8.28125 15.28125 L 8 15.59375 L 8 29 L 24 29 L 24 15.59375 L 23.71875 15.28125 L 20 11.5625 L 20 8.71875 L 19.875 8.5 L 16.90625 3.5 L 16.625 3 Z M 16 5.90625 L 17.25 8 L 14.75 8 Z M 14 10 L 18 10 L 18 12.40625 L 18.28125 12.71875 L 20.5625 15 L 11.4375 15 L 13.71875 12.71875 L 14 12.40625 Z M 10 17 L 22 17 L 22 27 L 10 27 Z M 16 18 C 13.800781 18 12 19.800781 12 22 C 12 24.199219 13.800781 26 16 26 C 18.199219 26 20 24.199219 20 22 C 20 19.800781 18.199219 18 16 18 Z M 16 20 C 17.117188 20 18 20.882813 18 22 C 18 23.117188 17.117188 24 16 24 C 14.882813 24 14 23.117188 14 22 C 14 20.882813 14.882813 20 16 20 Z "></path>
</g>
</svg>
