<?xml version="1.0" encoding="UTF-8"?>
<svg xmlns="http://www.w3.org/2000/svg" xmlns:xlink="http://www.w3.org/1999/xlink" viewBox="0 0 32 32" version="1.1">
<g>
<path d="M 16 3 C 11.292969 3 7 6.308594 7 11 C 7 11.804688 7.4375 12.503906 8 13 L 4 13 L 4 15 L 7.03125 15 C 7.109375 16.492188 7.390625 18.859375 8.3125 21.1875 C 8.570313 21.84375 8.902344 22.476563 9.28125 23.09375 L 7 28.1875 L 8.8125 29 L 10.65625 24.84375 C 10.773438 24.957031 10.875 25.078125 11 25.1875 C 12.257813 26.28125 13.9375 27 16 27 C 18.0625 27 19.742188 26.28125 21 25.1875 C 21.113281 25.089844 21.207031 24.976563 21.3125 24.875 L 23.0625 28.96875 L 24.90625 28.1875 L 22.75 23.0625 C 23.121094 22.457031 23.433594 21.828125 23.6875 21.1875 C 24.609375 18.859375 24.890625 16.492188 24.96875 15 L 28 15 L 28 13 L 24 13 C 24.5625 12.503906 25 11.804688 25 11 C 25 6.308594 20.707031 3 16 3 Z M 16 5 C 18.515625 5 20.765625 6.109375 22 7.875 C 21.976563 7.867188 21.960938 7.851563 21.9375 7.84375 C 20.308594 7.273438 18.210938 7 16 7 C 13.789063 7 11.691406 7.273438 10.0625 7.84375 C 10.039063 7.851563 10.023438 7.867188 10 7.875 C 11.234375 6.109375 13.484375 5 16 5 Z M 16 9 C 18.035156 9 19.941406 9.292969 21.25 9.75 C 21.902344 9.980469 22.414063 10.257813 22.6875 10.5 C 22.960938 10.742188 23 10.863281 23 11 C 23 11.136719 22.960938 11.257813 22.6875 11.5 C 22.414063 11.742188 21.902344 12.019531 21.25 12.25 C 19.941406 12.707031 18.035156 13 16 13 C 13.964844 13 12.058594 12.707031 10.75 12.25 C 10.097656 12.019531 9.585938 11.742188 9.3125 11.5 C 9.039063 11.257813 9 11.136719 9 11 C 9 10.863281 9.039063 10.742188 9.3125 10.5 C 9.585938 10.257813 10.097656 9.980469 10.75 9.75 C 12.058594 9.292969 13.964844 9 16 9 Z M 9.09375 15 L 22.90625 15 C 22.835938 16.335938 22.65625 18.421875 21.84375 20.46875 C 21.34375 21.730469 20.621094 22.875 19.6875 23.6875 C 18.753906 24.5 17.621094 25 16 25 C 14.378906 25 13.246094 24.5 12.3125 23.6875 C 11.378906 22.875 10.65625 21.730469 10.15625 20.46875 C 9.34375 18.421875 9.164063 16.335938 9.09375 15 Z "></path>
</g>
</svg>
