<?xml version="1.0" encoding="UTF-8"?>
<svg xmlns="http://www.w3.org/2000/svg" xmlns:xlink="http://www.w3.org/1999/xlink" viewBox="0 0 32 32" version="1.1">
<g>
<path d="M 16 3 L 12 7 L 15 7 L 15 11 L 17 11 L 17 7 L 20 7 Z M 10 12 C 8.347656 12 7 13.347656 7 15 L 9 15 C 9 14.449219 9.449219 14 10 14 L 11.449219 14 L 9.113281 19.136719 C 8.753906 19.050781 8.382813 19 8 19 C 5.25 19 3 21.25 3 24 C 3 26.75 5.25 29 8 29 C 10.75 29 13 26.75 13 24 C 13 22.34375 12.175781 20.882813 10.929688 19.96875 L 11.851563 17.941406 L 15.382813 25 L 19.101563 25 C 19.566406 27.277344 21.585938 29 24 29 C 26.757813 29 29 26.757813 29 24 C 29 21.242188 26.757813 19 24 19 C 23.875 19 23.753906 19.019531 23.632813 19.027344 L 22.117188 16 L 23 16 L 23 14 L 20 14 L 19 15 L 13.1875 15 L 14 13.21875 L 14 12 Z M 13.617188 17 L 19.199219 17 L 16.097656 21.957031 Z M 20.902344 18.042969 L 21.675781 19.589844 C 20.679688 20.117188 19.878906 20.960938 19.421875 22 L 21.78125 22 C 22.328125 21.390625 23.117188 21 24 21 C 25.652344 21 27 22.347656 27 24 C 27 25.652344 25.652344 27 24 27 C 22.699219 27 21.597656 26.160156 21.183594 25 L 24 25 L 24 23 L 17.800781 23 Z M 8 21 C 8.085938 21 8.167969 21.019531 8.253906 21.027344 L 7.089844 23.585938 L 8.910156 24.410156 L 10.078125 21.839844 C 10.644531 22.382813 11 23.144531 11 24 C 11 25.667969 9.667969 27 8 27 C 6.332031 27 5 25.667969 5 24 C 5 22.332031 6.332031 21 8 21 Z "></path>
</g>
</svg>
