<?xml version="1.0" encoding="UTF-8"?>
<svg xmlns="http://www.w3.org/2000/svg" xmlns:xlink="http://www.w3.org/1999/xlink" viewBox="0 0 32 32" version="1.1">
<g>
<path d="M 21 4 C 18.605469 4 16.480469 5.191406 15.21875 7.03125 C 14.976563 7.015625 14.746094 7 14.5 7 C 8.710938 7 4 11.710938 4 17.5 C 4 23.289063 8.710938 28 14.5 28 C 20.289063 28 25 23.289063 25 17.5 C 25 17.253906 24.984375 17.023438 24.96875 16.78125 C 26.808594 15.519531 28 13.394531 28 11 C 28 7.144531 24.855469 4 21 4 Z M 21 6 C 23.773438 6 26 8.226563 26 11 C 26 12.382813 25.460938 13.628906 24.5625 14.53125 C 23.554688 11.121094 20.878906 8.445313 17.46875 7.4375 C 18.371094 6.539063 19.617188 6 21 6 Z M 14.5 9 C 19.207031 9 23 12.792969 23 17.5 C 23 22.207031 19.207031 26 14.5 26 C 9.792969 26 6 22.207031 6 17.5 C 6 12.792969 9.792969 9 14.5 9 Z M 11.65625 12 L 11.5 12.84375 L 11 15.71875 L 11 17 L 14.5 17 C 15.339844 17 16 17.660156 16 18.5 L 16 19.5 C 16 20.339844 15.339844 21 14.5 21 C 13.660156 21 13 20.339844 13 19.5 L 13 19 L 11 19 L 11 19.5 C 11 21.421875 12.578125 23 14.5 23 C 16.421875 23 18 21.421875 18 19.5 L 18 18.5 C 18 16.578125 16.421875 15 14.5 15 L 13.1875 15 L 13.34375 14 L 17 14 L 17 12 Z "></path>
</g>
</svg>
