<?xml version="1.0" encoding="UTF-8"?>
<svg xmlns="http://www.w3.org/2000/svg" xmlns:xlink="http://www.w3.org/1999/xlink" viewBox="0 0 32 32" version="1.1">
<g>
<path d="M 18.5 2 C 17.101563 2 15.902344 2.8125 15.34375 4 L 15 4 C 13.601563 4 12.539063 4.410156 11.84375 4.84375 C 11.445313 5.09375 11.402344 5.214844 11.21875 5.40625 C 10.609375 5.339844 9.34375 5.253906 8.09375 6.375 C 7.285156 7.101563 7.121094 8.082031 7.0625 8.8125 C 7.035156 9.136719 7.050781 9.175781 7.0625 9.40625 C 6.675781 9.671875 6.242188 10.097656 5.96875 10.78125 C 5.355469 12.304688 5.914063 13.363281 6.375 14 C 6.367188 14.019531 6.351563 14.011719 6.34375 14.03125 C 6.1875 14.472656 6.050781 15.136719 6.03125 16.03125 C 6.03125 16.992188 6.480469 17.742188 7 18.21875 L 7 19.90625 C 7 21.25 7.800781 22.195313 8.53125 22.59375 C 8.851563 22.765625 8.902344 22.722656 9.15625 22.78125 C 9.503906 24.808594 10.132813 26.558594 11.1875 27.8125 C 12.363281 29.210938 14.054688 30 16 30 C 17.945313 30 19.636719 29.210938 20.8125 27.8125 C 21.871094 26.550781 22.496094 24.792969 22.84375 22.75 C 23.09375 22.683594 23.148438 22.707031 23.46875 22.53125 C 24.167969 22.144531 25 21.265625 25 20 L 25 18.21875 C 25.554688 17.746094 25.96875 17.058594 25.96875 16.03125 C 25.949219 15.140625 25.808594 14.5 25.65625 14.0625 C 26.167969 13.300781 26.664063 12.078125 26.03125 10.78125 C 25.832031 10.375 25.511719 10.003906 25.1875 9.6875 C 25.679688 9.085938 26 8.335938 26 7.5 C 26 5.566406 24.433594 4 22.5 4 C 22.230469 4 21.96875 4.035156 21.71875 4.09375 C 21.179688 2.851563 19.941406 2 18.5 2 Z M 17.5 4 C 17.628906 4 17.746094 4.058594 17.84375 4.15625 L 18.5 4.78125 L 19.15625 4.15625 C 19.351563 3.960938 19.648438 3.960938 19.84375 4.15625 C 20.039063 4.351563 20.039063 4.648438 19.84375 4.84375 L 19.21875 5.5 L 19.84375 6.15625 C 20.039063 6.351563 20.039063 6.648438 19.84375 6.84375 C 19.746094 6.941406 19.628906 7 19.5 7 C 19.371094 7 19.253906 6.941406 19.15625 6.84375 L 18.5 6.21875 L 17.84375 6.84375 C 17.746094 6.941406 17.628906 7 17.5 7 C 17.371094 7 17.253906 6.941406 17.15625 6.84375 C 16.960938 6.648438 16.960938 6.351563 17.15625 6.15625 L 17.78125 5.5 L 17.15625 4.84375 C 16.960938 4.648438 16.960938 4.351563 17.15625 4.15625 C 17.253906 4.058594 17.371094 4 17.5 4 Z M 15 6 L 15.03125 6 C 15.269531 7.699219 16.734375 9 18.5 9 C 18.769531 9 19.03125 8.964844 19.28125 8.90625 C 19.820313 10.148438 21.058594 11 22.5 11 C 22.820313 11 23.140625 10.957031 23.4375 10.875 L 23.5625 10.90625 C 23.683594 10.957031 24.050781 11.195313 24.1875 11.53125 C 24.445313 12.171875 24.199219 12.6875 24 12.96875 L 24 14 C 23.90625 14 23.46875 13.996094 23.09375 14 C 23.09375 14 22.929688 13.992188 22.59375 13.78125 C 22.257813 13.570313 21.832031 13.203125 21.5625 12.3125 L 21.34375 11.59375 L 20.59375 11.59375 C 19.378906 11.59375 16.816406 11.378906 15.71875 10.28125 L 14.625 9.21875 L 14.0625 10.625 C 14.0625 10.625 13.371094 12.105469 12.46875 12.5 C 11.953125 12.726563 11.046875 12.871094 10.3125 12.9375 C 9.578125 13.003906 9 13 9 13 L 8.03125 13 C 7.835938 12.792969 7.492188 12.328125 7.8125 11.53125 C 7.960938 11.160156 8.4375 10.9375 8.4375 10.9375 L 9.1875 10.625 L 9.0625 9.84375 C 9.0625 9.84375 8.992188 9.445313 9.03125 8.96875 C 9.070313 8.492188 9.238281 8.054688 9.4375 7.875 C 10.21875 7.171875 11.375 7.375 11.375 7.375 L 12 7.5 L 12.375 6.96875 C 12.375 6.96875 12.488281 6.792969 12.90625 6.53125 C 13.324219 6.269531 13.984375 6 15 6 Z M 21.5 6 C 21.628906 6 21.746094 6.058594 21.84375 6.15625 L 22.5 6.78125 L 23.15625 6.15625 C 23.351563 5.960938 23.648438 5.960938 23.84375 6.15625 C 24.039063 6.351563 24.039063 6.648438 23.84375 6.84375 L 23.21875 7.5 L 23.84375 8.15625 C 24.039063 8.351563 24.039063 8.648438 23.84375 8.84375 C 23.746094 8.941406 23.628906 9 23.5 9 C 23.371094 9 23.253906 8.941406 23.15625 8.84375 L 22.5 8.21875 L 21.84375 8.84375 C 21.746094 8.941406 21.628906 9 21.5 9 C 21.371094 9 21.253906 8.941406 21.15625 8.84375 C 20.960938 8.648438 20.960938 8.351563 21.15625 8.15625 L 21.78125 7.5 L 21.15625 6.84375 C 20.960938 6.648438 20.960938 6.351563 21.15625 6.15625 C 21.253906 6.058594 21.371094 6 21.5 6 Z M 15.375 12.4375 C 17 13.410156 18.769531 13.550781 19.96875 13.5625 C 20.242188 14.144531 20.582031 14.632813 20.9375 15 L 19.15625 15 C 17.6875 15 16.65625 15.96875 16.65625 15.96875 L 17.90625 17.53125 C 17.90625 17.53125 18.792969 17 19.15625 17 L 21 17 L 21 15.0625 C 21.175781 15.238281 21.351563 15.390625 21.53125 15.5 C 21.695313 15.601563 21.84375 15.683594 22 15.75 L 22 19 L 23 18.96875 L 23 20 C 23 20.523438 22.832031 20.617188 22.53125 20.78125 C 22.230469 20.945313 21.90625 21 21.90625 21 L 21.125 21.09375 L 21 21.875 C 20.722656 23.976563 20.113281 25.542969 19.28125 26.53125 C 18.449219 27.519531 17.445313 28 16 28 C 14.554688 28 13.550781 27.519531 12.71875 26.53125 C 11.886719 25.542969 11.277344 23.976563 11 21.875 L 10.875 21.03125 L 10.03125 21 C 10.03125 21 9.738281 20.992188 9.46875 20.84375 C 9.199219 20.695313 9 20.597656 9 19.90625 L 9 19 L 10 19.03125 L 10 14.96875 C 10.222656 14.957031 10.21875 14.960938 10.5 14.9375 C 11.339844 14.863281 12.339844 14.710938 13.25 14.3125 C 14.308594 13.847656 14.960938 13.097656 15.375 12.4375 Z M 11 15 L 11 17 L 13 17 C 13.363281 17 14.25 17.53125 14.25 17.53125 L 15.5 15.96875 C 15.5 15.96875 14.46875 15 13 15 Z M 12.5 17.75 C 12.085938 17.75 11.75 18.085938 11.75 18.5 C 11.75 18.914063 12.085938 19.25 12.5 19.25 C 12.914063 19.25 13.25 18.914063 13.25 18.5 C 13.25 18.085938 12.914063 17.75 12.5 17.75 Z M 19.5 17.75 C 19.085938 17.75 18.75 18.085938 18.75 18.5 C 18.75 18.914063 19.085938 19.25 19.5 19.25 C 19.914063 19.25 20.25 18.914063 20.25 18.5 C 20.25 18.085938 19.914063 17.75 19.5 17.75 Z M 15.21875 21 C 14.746094 22.96875 14.75 23 14.75 23 L 17.25 23 L 16.78125 21 C 16.753906 21.003906 16.378906 21 16 21 C 15.621094 21 15.246094 21.003906 15.21875 21 Z M 13.59375 23.1875 L 12.40625 24.8125 C 12.40625 24.8125 14.039063 26.03125 16.09375 26.03125 C 18.148438 26.03125 19.625 24.78125 19.625 24.78125 L 18.375 23.21875 C 18.375 23.21875 17.292969 24.03125 16.09375 24.03125 C 14.894531 24.03125 13.59375 23.1875 13.59375 23.1875 Z "></path>
</g>
</svg>
