<?xml version="1.0" encoding="UTF-8"?>
<svg xmlns="http://www.w3.org/2000/svg" xmlns:xlink="http://www.w3.org/1999/xlink" viewBox="0 0 32 32" version="1.1">
<g>
<path d="M 5 4 L 5 28 L 15 28 L 15 4 Z M 17 4 L 17 28 L 27 28 L 27 4 Z M 7 6 L 13 6 L 13 26 L 7 26 Z M 19 6 L 25 6 L 25 26 L 19 26 Z M 9 8 L 9 18 L 11 18 L 11 8 Z M 21 8 L 21 18 L 23 18 L 23 8 Z M 10 20.5 C 9.171875 20.5 8.5 21.171875 8.5 22 C 8.5 22.828125 9.171875 23.5 10 23.5 C 10.828125 23.5 11.5 22.828125 11.5 22 C 11.5 21.171875 10.828125 20.5 10 20.5 Z M 22 20.5 C 21.171875 20.5 20.5 21.171875 20.5 22 C 20.5 22.828125 21.171875 23.5 22 23.5 C 22.828125 23.5 23.5 22.828125 23.5 22 C 23.5 21.171875 22.828125 20.5 22 20.5 Z "></path>
</g>
</svg>
