<?xml version="1.0" encoding="UTF-8"?>
<svg xmlns="http://www.w3.org/2000/svg" xmlns:xlink="http://www.w3.org/1999/xlink" viewBox="0 0 32 32" version="1.1">
<g>
<path d="M 9 4 L 9 6 L 11 6 L 11 9.75 L 4 23.75 L 4 25 C 4 26.644531 5.355469 28 7 28 L 25 28 C 26.644531 28 28 26.644531 28 25 L 28 23.75 L 21 9.75 L 21 6 L 23 6 L 23 4 Z M 13 6 L 19 6 L 19 10.25 L 26 24.25 L 26 25 C 26 25.554688 25.554688 26 25 26 L 7 26 C 6.445313 26 6 25.554688 6 25 L 6 24.25 L 13 10.25 Z M 16 14.71875 L 15.375 15.21875 C 15.375 15.21875 14.402344 16.148438 13.71875 17.46875 C 12.304688 17.066406 10.96875 17.09375 10.96875 17.09375 L 10.1875 17.1875 L 10.09375 17.96875 C 10.09375 17.96875 9.628906 20.847656 11.5 22.71875 C 13.210938 24.429688 15.457031 24.074219 15.875 24 C 15.875 24 16.117188 23.996094 16.15625 24 C 16.574219 24.058594 18.882813 24.304688 20.59375 22.59375 C 22.464844 20.722656 21.875 17.9375 21.875 17.9375 L 21.75 17.1875 L 21.03125 17.09375 C 21.03125 17.09375 19.695313 17.066406 18.28125 17.46875 C 17.597656 16.148438 16.625 15.21875 16.625 15.21875 Z M 16 17.4375 C 16.328125 17.824219 16.703125 18.316406 16.84375 18.84375 L 17.15625 20.03125 L 18.25 19.5 C 18.769531 19.238281 19.402344 19.128906 19.90625 19.09375 C 19.886719 19.761719 19.769531 20.605469 19.1875 21.1875 C 18.257813 22.117188 16.125 22 16.125 22 L 15.84375 22 C 15.84375 22 13.835938 22.210938 12.90625 21.28125 C 12.320313 20.695313 12.171875 19.804688 12.125 19.09375 C 12.625 19.128906 13.238281 19.242188 13.75 19.5 L 14.84375 20.03125 L 15.15625 18.84375 C 15.296875 18.316406 15.671875 17.824219 16 17.4375 Z "></path>
</g>
</svg>
