<?xml version="1.0"?>
<svg xmlns="http://www.w3.org/2000/svg" viewBox="0 0 32 32">
    <path d="M 7 4 L 7 7 L 9 7 L 9 4 L 7 4 z M 11 4 L 11 7 L 13 7 L 13 4 L 11 4 z M 15 4 L 15 7 L 17 7 L 17 4 L 15 4 z M 19 4 L 19 7 L 21 7 L 21 4 L 19 4 z M 23 4 L 23 7 L 25 7 L 25 4 L 23 4 z M 3 8 L 3 9 L 3 24 L 29 24 L 29 8 L 3 8 z M 5 10 L 27 10 L 27 22 L 5 22 L 5 10 z M 8.5 17 A 1.5 1.5 0 0 0 7 18.5 A 1.5 1.5 0 0 0 8.5 20 A 1.5 1.5 0 0 0 10 18.5 A 1.5 1.5 0 0 0 8.5 17 z M 7 25 L 7 28 L 9 28 L 9 25 L 7 25 z M 11 25 L 11 28 L 13 28 L 13 25 L 11 25 z M 15 25 L 15 28 L 17 28 L 17 25 L 15 25 z M 19 25 L 19 28 L 21 28 L 21 25 L 19 25 z M 23 25 L 23 28 L 25 28 L 25 25 L 23 25 z"></path>
</svg>
