<?xml version="1.0" encoding="UTF-8"?>
<svg xmlns="http://www.w3.org/2000/svg" xmlns:xlink="http://www.w3.org/1999/xlink" viewBox="0 0 32 32" version="1.1">
<g>
<path d="M 9 2.25 L 8.1875 3.4375 C 8.1875 3.4375 7.648438 4.191406 7.125 5.09375 C 6.863281 5.546875 6.617188 6.019531 6.40625 6.5 C 6.195313 6.980469 6 7.421875 6 8 C 6 9.644531 7.355469 11 9 11 C 10.644531 11 12 9.644531 12 8 C 12 7.421875 11.804688 6.980469 11.59375 6.5 C 11.382813 6.019531 11.136719 5.546875 10.875 5.09375 C 10.351563 4.191406 9.8125 3.4375 9.8125 3.4375 Z M 9 11 L 6 11 L 6 15.15625 C 4.277344 15.601563 3 17.136719 3 19 C 3 20.015625 3.375 20.949219 4 21.65625 L 4 29 L 28 29 L 28 21.65625 C 28.625 20.949219 29 20.015625 29 19 C 29 17.136719 27.722656 15.601563 26 15.15625 L 26 11 L 20 11 L 20 15 L 19 15 L 19 11 L 13 11 L 13 15 L 12 15 L 12 11 Z M 16 11 C 17.644531 11 19 9.644531 19 8 C 19 7.421875 18.804688 6.980469 18.59375 6.5 C 18.382813 6.019531 18.136719 5.546875 17.875 5.09375 C 17.351563 4.191406 16.8125 3.4375 16.8125 3.4375 L 16 2.25 L 15.1875 3.4375 C 15.1875 3.4375 14.648438 4.191406 14.125 5.09375 C 13.863281 5.546875 13.617188 6.019531 13.40625 6.5 C 13.195313 6.980469 13 7.421875 13 8 C 13 9.644531 14.355469 11 16 11 Z M 23 11 C 24.644531 11 26 9.644531 26 8 C 26 7.421875 25.804688 6.980469 25.59375 6.5 C 25.382813 6.019531 25.136719 5.546875 24.875 5.09375 C 24.351563 4.191406 23.8125 3.4375 23.8125 3.4375 L 23 2.25 L 22.1875 3.4375 C 22.1875 3.4375 21.648438 4.191406 21.125 5.09375 C 20.863281 5.546875 20.617188 6.019531 20.40625 6.5 C 20.195313 6.980469 20 7.421875 20 8 C 20 9.644531 21.355469 11 23 11 Z M 9 5.875 C 9.066406 5.984375 9.058594 5.976563 9.125 6.09375 C 9.363281 6.503906 9.617188 6.941406 9.78125 7.3125 C 9.945313 7.683594 10 8.027344 10 8 C 10 8.554688 9.554688 9 9 9 C 8.445313 9 8 8.554688 8 8 C 8 8.027344 8.054688 7.683594 8.21875 7.3125 C 8.382813 6.941406 8.636719 6.503906 8.875 6.09375 C 8.941406 5.976563 8.933594 5.984375 9 5.875 Z M 16 5.875 C 16.066406 5.984375 16.058594 5.976563 16.125 6.09375 C 16.363281 6.503906 16.617188 6.941406 16.78125 7.3125 C 16.945313 7.683594 17 8.027344 17 8 C 17 8.554688 16.554688 9 16 9 C 15.445313 9 15 8.554688 15 8 C 15 8.027344 15.054688 7.683594 15.21875 7.3125 C 15.382813 6.941406 15.636719 6.503906 15.875 6.09375 C 15.941406 5.976563 15.933594 5.984375 16 5.875 Z M 23 5.875 C 23.066406 5.984375 23.058594 5.976563 23.125 6.09375 C 23.363281 6.503906 23.617188 6.941406 23.78125 7.3125 C 23.945313 7.683594 24 8.027344 24 8 C 24 8.554688 23.554688 9 23 9 C 22.445313 9 22 8.554688 22 8 C 22 8.027344 22.054688 7.683594 22.21875 7.3125 C 22.382813 6.941406 22.636719 6.503906 22.875 6.09375 C 22.941406 5.976563 22.933594 5.984375 23 5.875 Z M 8 13 L 10 13 L 10 15 L 8 15 Z M 15 13 L 17 13 L 17 15 L 15 15 Z M 22 13 L 24 13 L 24 15 L 22 15 Z M 7 17 L 25 17 C 26.191406 17 27 17.808594 27 19 C 27 20.191406 26.191406 21 25 21 C 23.808594 21 23 20.191406 23 19 L 21 19 C 21 20.191406 20.191406 21 19 21 C 17.808594 21 17 20.191406 17 19 L 15 19 C 15 20.191406 14.191406 21 13 21 C 11.808594 21 11 20.191406 11 19 L 9 19 C 9 20.191406 8.191406 21 7 21 C 5.808594 21 5 20.191406 5 19 C 5 17.808594 5.808594 17 7 17 Z M 10 21.65625 C 10.734375 22.484375 11.804688 23 13 23 C 14.195313 23 15.265625 22.484375 16 21.65625 C 16.734375 22.484375 17.804688 23 19 23 C 20.195313 23 21.265625 22.484375 22 21.65625 C 22.734375 22.484375 23.804688 23 25 23 C 25.347656 23 25.679688 22.925781 26 22.84375 L 26 27 L 6 27 L 6 22.84375 C 6.320313 22.925781 6.652344 23 7 23 C 8.195313 23 9.265625 22.484375 10 21.65625 Z "></path>
</g>
</svg>
