<?xml version="1.0" encoding="UTF-8"?>
<svg xmlns="http://www.w3.org/2000/svg" xmlns:xlink="http://www.w3.org/1999/xlink" viewBox="0 0 32 32" version="1.1">
<g>
<path d="M 13 3 C 11.609375 3 9.972656 3.375 8.5625 4.3125 C 7.152344 5.25 6 6.859375 6 9 C 6 11.015625 6.839844 12.453125 7.6875 13.40625 C 7.253906 14.355469 7 15.390625 7 16.5 L 7 29 L 9 29 L 9 16.5 C 9 13.46875 11.46875 11 14.5 11 C 15.023438 11 15.523438 11.082031 16 11.21875 L 16 9.15625 C 15.515625 9.054688 15.015625 9 14.5 9 C 12.214844 9 10.15625 10.007813 8.78125 11.625 C 8.34375 11 8 10.152344 8 9 C 8 7.527344 8.664063 6.628906 9.65625 5.96875 C 10.648438 5.308594 11.996094 5 13 5 C 15.75 5 17.25 6.6875 17.25 6.6875 L 18.75 5.3125 C 18.75 5.3125 16.589844 3 13 3 Z M 17 9.09375 L 17 15.5 C 17 18.050781 19.316406 20 22 20 C 24.683594 20 27 18.050781 27 15.5 L 27 9.09375 L 25.4375 10.1875 L 23.78125 11.34375 C 23.210938 11.140625 22.648438 10.90625 22 10.90625 C 21.351563 10.90625 20.789063 11.140625 20.21875 11.34375 L 18.5625 10.1875 Z M 22 12.90625 C 22.574219 12.90625 23.109375 13.046875 23.5625 13.28125 L 24.09375 13.5625 L 24.59375 13.21875 L 25 12.9375 L 25 15.5 C 25 16.816406 23.734375 18 22 18 C 20.265625 18 19 16.816406 19 15.5 L 19 12.9375 L 19.40625 13.21875 L 19.90625 13.5625 L 20.4375 13.28125 C 20.890625 13.046875 21.421875 12.90625 22 12.90625 Z M 15 18 C 12.792969 18 11 19.792969 11 22 L 11 29 L 13 29 L 13 22 C 13 20.898438 13.898438 20 15 20 C 16.101563 20 17 20.898438 17 22 L 17 29 L 19 29 L 19 22 C 19 21.214844 18.765625 20.492188 18.375 19.875 C 17.851563 19.511719 17.398438 19.0625 17.03125 18.5625 C 16.433594 18.210938 15.742188 18 15 18 Z M 23 20.90625 C 22.675781 20.957031 22.339844 21 22 21 C 21.789063 21 21.582031 20.988281 21.375 20.96875 C 21.25 20.976563 21.128906 21 21 21 L 21 29 L 23 29 Z "></path>
</g>
</svg>
