<?xml version="1.0" encoding="UTF-8"?>
<svg xmlns="http://www.w3.org/2000/svg" xmlns:xlink="http://www.w3.org/1999/xlink" viewBox="0 0 32 32" version="1.1">
<g>
<path d="M 3 4 L 3 6 L 29 6 L 29 4 Z M 6 7 L 6 8 L 3 8 L 3 10 L 29 10 L 29 8 L 26 8 L 26 7 L 24 7 L 24 8 L 8 8 L 8 7 Z M 6 11 L 6 12 L 3 12 L 3 14 L 29 14 L 29 12 L 26 12 L 26 11 L 24 11 L 24 12 L 8 12 L 8 11 Z M 6 15 L 6 28 L 26 28 L 26 15 L 24 15 L 24 26 L 8 26 L 8 15 Z M 15 15 L 13.1875 15.8125 L 13.65625 16.8125 C 13.34375 17.046875 13.050781 17.316406 12.8125 17.625 L 11.8125 17.1875 L 11 19 L 12.03125 19.46875 C 12.003906 19.644531 12 19.816406 12 20 C 12 20.179688 12.039063 20.359375 12.0625 20.53125 L 11 21 L 11.8125 22.8125 L 12.8125 22.34375 C 13.050781 22.664063 13.335938 22.949219 13.65625 23.1875 L 13.1875 24.1875 L 15 25 L 15.46875 23.9375 C 15.640625 23.960938 15.820313 24 16 24 C 16.179688 24 16.359375 23.960938 16.53125 23.9375 L 17 25 L 18.8125 24.1875 L 18.34375 23.1875 C 18.664063 22.949219 18.949219 22.664063 19.1875 22.34375 L 20.1875 22.8125 L 21 21 L 19.9375 20.53125 C 19.960938 20.359375 20 20.179688 20 20 C 20 19.820313 19.960938 19.640625 19.9375 19.46875 L 21 19 L 20.1875 17.1875 L 19.1875 17.65625 C 18.949219 17.335938 18.664063 17.050781 18.34375 16.8125 L 18.8125 15.8125 L 17 15 L 16.53125 16.0625 C 16.359375 16.039063 16.179688 16 16 16 C 15.820313 16 15.640625 16.039063 15.46875 16.0625 Z M 28 15 C 27.5 15 27 15.5 27 16 C 27 16.5 27.5 17 28 17 C 28.5 17 29 16.5 29 16 C 29 15.5 28.5 15 28 15 Z M 16 18 C 17.117188 18 18 18.882813 18 20 C 18 21.117188 17.117188 22 16 22 C 14.882813 22 14 21.117188 14 20 C 14 18.882813 14.882813 18 16 18 Z M 28 18 C 27.5 18 27 18.5 27 19 C 27 19.5 27.5 20 28 20 C 28.5 20 29 19.5 29 19 C 29 18.5 28.5 18 28 18 Z M 28 21 C 27.5 21 27 21.5 27 22 C 27 22.5 27.5 23 28 23 C 28.5 23 29 22.5 29 22 C 29 21.5 28.5 21 28 21 Z M 28 24 C 27.5 24 27 24.5 27 25 C 27 25.5 27.5 26 28 26 C 28.5 26 29 25.5 29 25 C 29 24.5 28.5 24 28 24 Z "></path>
</g>
</svg>
