<?xml version="1.0" encoding="UTF-8"?>
<svg xmlns="http://www.w3.org/2000/svg" xmlns:xlink="http://www.w3.org/1999/xlink" viewBox="0 0 32 32" version="1.1">
<g>
<path d="M 13 4 C 11.898438 4 11 4.898438 11 6 L 11 18 C 11 19.101563 11.898438 20 13 20 L 17.53125 20 C 18.402344 18.703125 19.59375 17.636719 21 16.9375 L 21 6 C 21 4.898438 20.101563 4 19 4 Z M 13 6 L 19 6 L 19 18 L 13 18 Z M 7 14 L 7 18 C 7 21.308594 9.691406 24 13 24 L 15 24 L 15 26 L 11 26 L 11 28 L 16.53125 28 C 16.195313 27.058594 16 26.054688 16 25 C 16 23.945313 16.195313 22.941406 16.53125 22 L 13 22 C 10.792969 22 9 20.207031 9 18 L 9 14 Z M 23 14 L 23 16.21875 C 23.644531 16.070313 24.3125 16 25 16 L 25 14 Z M 25 18 C 21.144531 18 18 21.144531 18 25 C 18 28.855469 21.144531 32 25 32 C 28.855469 32 32 28.855469 32 25 C 32 21.144531 28.855469 18 25 18 Z M 25 20 C 27.773438 20 30 22.226563 30 25 C 30 26.023438 29.710938 26.992188 29.1875 27.78125 L 22.21875 20.8125 C 23.007813 20.289063 23.976563 20 25 20 Z M 20.8125 22.21875 L 27.78125 29.1875 C 26.992188 29.710938 26.023438 30 25 30 C 22.226563 30 20 27.773438 20 25 C 20 23.976563 20.289063 23.007813 20.8125 22.21875 Z "></path>
</g>
</svg>
