<?xml version="1.0" encoding="UTF-8"?>
<svg xmlns="http://www.w3.org/2000/svg" xmlns:xlink="http://www.w3.org/1999/xlink" viewBox="0 0 32 32" version="1.1">
<g>
<path d="M 25 2 C 24.617188 2.082031 24.265625 2.164063 23.90625 2.25 C 23.867188 2.261719 23.8125 2.308594 23.8125 2.34375 C 23.804688 2.699219 23.8125 3.050781 23.8125 3.4375 C 24.210938 3.359375 24.570313 3.292969 24.9375 3.21875 C 24.964844 3.210938 25 3.152344 25 3.125 C 25.003906 2.746094 25 2.386719 25 2 Z M 23.5 2.3125 C 23.230469 2.363281 22.980469 2.417969 22.71875 2.46875 C 22.304688 2.550781 22.28125 2.5625 22.28125 2.96875 L 22.28125 3.71875 C 22.703125 3.644531 23.105469 3.570313 23.5 3.5 Z M 22 2.625 C 21.601563 2.691406 21.21875 2.746094 20.84375 2.8125 C 20.820313 2.816406 20.78125 2.847656 20.78125 2.875 C 20.777344 3.222656 20.78125 3.570313 20.78125 3.9375 C 21.167969 3.878906 21.523438 3.839844 21.875 3.78125 C 21.917969 3.773438 22 3.71875 22 3.6875 C 22.007813 3.335938 22 2.996094 22 2.625 Z M 18.96875 3.09375 C 18.558594 3.144531 18.140625 3.199219 17.75 3.25 L 17.75 4.34375 C 18.15625 4.296875 18.574219 4.234375 18.96875 4.1875 Z M 26.5 3.15625 C 26.125 3.234375 25.738281 3.324219 25.375 3.40625 C 25.347656 3.414063 25.3125 3.445313 25.3125 3.46875 C 25.308594 3.804688 25.3125 4.121094 25.3125 4.46875 C 25.71875 4.386719 26.109375 4.328125 26.5 4.25 C 26.5 3.890625 26.5 3.535156 26.5 3.15625 Z M 17.46875 3.28125 C 17.042969 3.324219 16.648438 3.367188 16.25 3.40625 L 16.25 4.46875 C 16.640625 4.433594 16.996094 4.414063 17.375 4.375 C 17.402344 4.371094 17.46875 4.335938 17.46875 4.3125 C 17.472656 3.972656 17.46875 3.632813 17.46875 3.28125 Z M 15.90625 3.4375 C 15.492188 3.46875 15.113281 3.5 14.71875 3.53125 L 14.71875 4.59375 C 15.125 4.566406 15.503906 4.527344 15.90625 4.5 Z M 14.40625 3.53125 C 14 3.550781 13.597656 3.574219 13.1875 3.59375 L 13.1875 4.6875 C 13.601563 4.664063 14.011719 4.648438 14.40625 4.625 Z M 8.59375 3.6875 L 8.59375 4.71875 L 9.78125 4.71875 L 9.78125 3.6875 Z M 10.125 3.6875 L 10.125 4.71875 L 11.34375 4.71875 L 11.34375 3.6875 Z M 23.5 3.75 C 23.128906 3.816406 22.769531 3.902344 22.40625 3.96875 C 22.367188 3.976563 22.28125 4.003906 22.28125 4.03125 C 22.273438 4.34375 22.28125 4.667969 22.28125 5 C 22.699219 4.933594 23.101563 4.875 23.5 4.8125 Z M 22 4.03125 C 20.585938 4.21875 19.171875 4.40625 17.75 4.59375 L 17.75 7.03125 C 16.859375 7.070313 15.984375 7.085938 15.09375 7.125 L 15.09375 6.15625 C 15.476563 6.136719 15.851563 6.113281 16.21875 6.09375 L 16.21875 4.75 C 14.6875 4.828125 13.15625 4.890625 11.625 4.96875 L 11.625 7.3125 L 8.59375 7.3125 L 8.59375 8.5 L 9.78125 8.5 L 9.78125 9.4375 L 8.59375 9.4375 L 8.59375 10.59375 L 10.125 10.59375 L 10.125 14.375 L 11.28125 14.375 L 11.28125 15.28125 L 10.125 15.28125 L 10.125 16.71875 L 11.28125 16.71875 L 11.28125 17.625 L 10.09375 17.625 L 10.09375 21.40625 L 8.59375 21.40625 L 8.59375 23.78125 L 9.78125 23.78125 L 9.78125 24.6875 L 11.65625 24.6875 L 11.65625 27.03125 C 12.691406 27.074219 13.710938 27.113281 14.75 27.15625 L 14.75 26.25 C 15.15625 26.28125 15.507813 26.3125 15.90625 26.34375 L 15.90625 24.84375 C 16.527344 24.890625 17.132813 24.953125 17.75 25 L 17.75 27.40625 C 19.171875 27.59375 20.582031 27.78125 22 27.96875 L 22 25.4375 C 22.253906 25.453125 22.492188 25.453125 22.71875 25.46875 C 23.496094 25.519531 24.269531 25.507813 25.03125 25.3125 C 26.4375 24.957031 27.398438 24.171875 27.78125 22.8125 C 28.019531 21.972656 28.027344 21.109375 27.9375 20.25 C 27.863281 19.539063 27.691406 18.871094 27.3125 18.25 C 27.195313 18.054688 27.070313 17.945313 26.8125 17.96875 C 26.601563 17.988281 26.371094 17.949219 26.15625 17.9375 C 25.878906 17.925781 25.597656 17.917969 25.3125 17.90625 C 25.3125 17.511719 25.300781 17.15625 25.3125 16.78125 C 25.316406 16.664063 25.296875 16.59375 25.1875 16.5625 C 24.710938 16.429688 24.230469 16.277344 23.75 16.15625 C 23.472656 16.085938 23.195313 16.050781 22.90625 16 L 22.90625 15.625 C 22.90625 15.191406 22.90625 15.207031 23.34375 15.0625 C 24.101563 14.8125 24.824219 14.539063 25.46875 14.0625 C 26.1875 13.53125 26.726563 12.875 27.03125 12.0625 C 27.308594 11.328125 27.308594 10.550781 27.25 9.78125 C 27.203125 9.191406 27.074219 8.621094 26.78125 8.09375 C 26.550781 7.679688 26.234375 7.335938 25.8125 7.09375 C 24.921875 6.582031 23.929688 6.445313 22.90625 6.5 C 22.605469 6.515625 22.304688 6.546875 22 6.5625 C 21.992188 6.464844 22.003906 6.394531 22 6.3125 C 21.601563 6.359375 21.199219 6.390625 20.8125 6.4375 L 20.8125 5.46875 C 21.207031 5.414063 21.613281 5.367188 22 5.3125 Z M 26.5 4.53125 C 26.101563 4.609375 25.699219 4.675781 25.3125 4.75 L 25.3125 5.8125 C 25.714844 5.742188 26.117188 5.660156 26.5 5.59375 Z M 25 4.8125 C 24.589844 4.882813 24.195313 4.933594 23.8125 5 L 23.8125 6.0625 C 24.21875 5.996094 24.605469 5.9375 25 5.875 Z M 10.125 5 L 10.125 5.90625 L 11.3125 5.90625 L 11.3125 5 Z M 23.5 5.0625 C 23.09375 5.125 22.710938 5.1875 22.3125 5.25 L 22.3125 6.28125 C 22.722656 6.222656 23.109375 6.148438 23.5 6.09375 Z M 8.59375 6.15625 L 8.59375 7.0625 L 9.78125 7.0625 L 9.78125 6.15625 Z M 10.125 6.15625 L 10.125 7.0625 L 11.34375 7.0625 L 11.34375 6.15625 Z M 4 7.15625 L 4 8.09375 C 4.40625 8.113281 4.816406 8.136719 5.21875 8.15625 L 5.21875 7.21875 C 4.8125 7.199219 4.402344 7.175781 4 7.15625 Z M 5.53125 7.25 L 5.53125 8.1875 L 6.71875 8.1875 L 6.71875 7.25 Z M 7.0625 7.3125 L 7.0625 8.21875 L 8.25 8.21875 L 8.25 7.3125 Z M 14.40625 8.34375 L 14.40625 9.28125 C 14.007813 9.296875 13.589844 9.328125 13.1875 9.34375 L 13.1875 8.40625 C 13.589844 8.386719 14.007813 8.363281 14.40625 8.34375 Z M 5.53125 8.4375 L 5.53125 9.375 L 6.71875 9.375 L 6.71875 8.4375 Z M 11.6875 8.4375 L 12.84375 8.4375 L 12.84375 9.34375 L 11.6875 9.34375 Z M 26.5 8.4375 L 26.5 9.53125 C 26.121094 9.574219 25.742188 9.609375 25.34375 9.65625 L 25.34375 8.59375 C 25.71875 8.542969 26.097656 8.492188 26.5 8.4375 Z M 4 9.5625 C 4 9.835938 3.992188 10.148438 4 10.4375 C 4 10.460938 4.0625 10.5 4.09375 10.5 C 4.460938 10.503906 4.839844 10.5 5.21875 10.5 L 5.21875 9.5625 Z M 7.0625 9.65625 L 7.0625 10.59375 L 8.25 10.59375 L 8.25 9.65625 Z M 19.125 9.875 C 21.628906 9.816406 21.574219 10.851563 21.59375 11.59375 C 21.625 12.957031 21.011719 14.183594 18 14.40625 C 17.898438 14.414063 15.472656 14.5 15.4375 14.5 C 15.4375 13.011719 15.4375 11.550781 15.4375 10.0625 C 15.539063 10.054688 18.738281 9.882813 19.125 9.875 Z M 4 10.75 L 4 11.6875 L 5.21875 11.6875 L 5.21875 10.75 Z M 7.0625 10.84375 L 7.0625 11.75 L 8.25 11.75 L 8.25 10.84375 Z M 8.59375 10.84375 L 8.59375 11.78125 L 9.8125 11.78125 L 9.8125 10.84375 Z M 11.03125 10.84375 L 12.21875 10.84375 L 12.21875 11.75 L 11.03125 11.75 Z M 26.5 11.21875 L 26.5 12.34375 C 26.121094 12.367188 25.738281 12.382813 25.34375 12.40625 L 25.34375 11.34375 C 25.730469 11.308594 26.105469 11.253906 26.5 11.21875 Z M 5.53125 11.96875 L 5.53125 12.90625 L 6.71875 12.90625 L 6.71875 11.96875 Z M 8.59375 12.03125 L 8.59375 12.9375 L 9.78125 12.9375 L 9.78125 12.03125 Z M 12.75 12.03125 L 13.9375 12.03125 L 13.9375 12.9375 L 12.75 12.9375 Z M 4 13.125 L 4 14.09375 L 5.21875 14.09375 L 5.21875 13.125 Z M 5.53125 13.15625 L 5.53125 14.09375 L 6.71875 14.09375 L 6.71875 13.15625 Z M 7.0625 13.1875 L 7.0625 14.09375 L 8.25 14.09375 L 8.25 13.1875 Z M 7.0625 14.34375 L 7.0625 15.28125 L 8.25 15.28125 L 8.25 14.34375 Z M 8.59375 14.375 L 8.59375 15.28125 L 9.78125 15.28125 L 9.78125 14.375 Z M 5.53125 15.53125 L 5.53125 16.46875 L 6.71875 16.46875 L 6.71875 15.53125 Z M 8.59375 15.53125 L 8.59375 16.46875 L 9.8125 16.46875 L 9.8125 15.53125 Z M 12.59375 15.53125 L 13.78125 15.53125 L 13.78125 16.46875 L 12.59375 16.46875 Z M 7.0625 16.71875 L 7.0625 17.65625 L 8.25 17.65625 L 8.25 16.71875 Z M 8.59375 16.71875 L 8.59375 17.625 L 9.8125 17.625 L 9.8125 16.71875 Z M 15.4375 17.53125 C 15.511719 17.53125 17.644531 17.574219 18 17.59375 C 21.765625 17.785156 21.867188 18.46875 22.25 19.75 C 22.359375 20.117188 22.292969 20.503906 22.1875 20.875 C 22.117188 21.136719 21.914063 22.128906 19.5 22.125 C 18.90625 22.125 15.523438 22 15.4375 22 Z M 5.53125 17.90625 L 5.53125 18.84375 L 6.71875 18.84375 L 6.71875 17.90625 Z M 7.0625 17.90625 L 7.0625 18.8125 L 8.28125 18.8125 L 8.28125 17.90625 Z M 4 17.9375 L 4 18.84375 L 5.21875 18.84375 L 5.21875 17.9375 Z M 8.59375 19.0625 L 8.59375 19.96875 L 9.8125 19.96875 L 9.8125 19.0625 Z M 11.375 19.0625 L 12.5625 19.0625 L 12.5625 19.96875 L 11.375 19.96875 Z M 5.53125 19.09375 L 5.53125 20 L 6.71875 20 L 6.71875 19.09375 Z M 4 19.125 L 4 20.03125 L 5.21875 20.03125 L 5.21875 19.125 Z M 7.0625 20.25 L 7.0625 21.15625 L 8.25 21.15625 L 8.25 20.25 Z M 8.59375 20.25 L 8.59375 21.15625 L 9.78125 21.15625 L 9.78125 20.25 Z M 11.375 20.25 L 12.5625 20.25 L 12.5625 21.15625 L 11.375 21.15625 Z M 5.53125 20.28125 L 5.53125 21.1875 L 6.71875 21.1875 L 6.71875 20.28125 Z M 25.34375 20.96875 C 25.722656 21.003906 26.105469 21.027344 26.5 21.0625 L 26.5 22.15625 C 26.113281 22.113281 25.734375 22.074219 25.34375 22.03125 Z M 5.53125 21.4375 L 5.53125 22.375 L 6.71875 22.375 L 6.71875 21.4375 Z M 7.0625 22.59375 L 7.0625 23.53125 L 8.28125 23.53125 L 8.28125 22.59375 Z M 10.15625 22.59375 L 11.34375 22.59375 L 11.34375 23.5 L 10.15625 23.5 Z M 5.53125 22.65625 L 5.53125 23.5625 L 6.71875 23.5625 L 6.71875 22.65625 Z M 16.3125 22.6875 L 17.5 22.6875 L 17.5 23.65625 C 17.300781 23.648438 16.511719 23.601563 16.3125 23.59375 Z M 19.34375 22.8125 C 19.644531 22.832031 19.957031 22.855469 20.25 22.875 C 20.347656 22.882813 20.433594 22.898438 20.53125 22.90625 L 20.53125 23.84375 C 20.238281 23.824219 19.445313 23.789063 19.34375 23.78125 Z M 7.0625 23.78125 L 7.0625 24.6875 L 8.25 24.6875 L 8.25 23.78125 Z M 5.21875 23.84375 C 4.804688 23.867188 4.398438 23.886719 4 23.90625 L 4 24.84375 C 4.40625 24.820313 4.816406 24.804688 5.21875 24.78125 Z M 8.59375 24.9375 L 8.59375 25.84375 L 9.8125 25.84375 L 9.8125 24.9375 Z M 10.125 24.9375 L 10.125 25.84375 L 11.34375 25.84375 L 11.34375 24.9375 Z M 13.1875 24.9375 L 14.40625 24.9375 L 14.40625 25.84375 L 13.1875 25.84375 Z M 6.71875 24.96875 C 6.3125 24.984375 5.925781 25.015625 5.53125 25.03125 L 5.53125 25.96875 C 5.9375 25.949219 6.324219 25.925781 6.71875 25.90625 Z M 7.0625 24.96875 L 7.0625 25.875 L 8.25 25.875 L 8.25 24.96875 Z M 5.21875 25.03125 C 4.8125 25.054688 4.402344 25.070313 4 25.09375 L 4 26.0625 C 4.410156 26.035156 4.816406 25.996094 5.21875 25.96875 Z M 16.21875 25.125 L 16.21875 26.0625 C 16.632813 26.09375 17.042969 26.15625 17.4375 26.1875 C 17.449219 26.15625 17.46875 26.136719 17.46875 26.125 C 17.46875 25.9375 17.46875 25.75 17.46875 25.5625 C 17.46875 25.222656 17.445313 25.21875 17.09375 25.1875 C 17.058594 25.183594 17.035156 25.191406 17 25.1875 C 16.742188 25.171875 16.480469 25.144531 16.21875 25.125 Z M 22.3125 25.71875 L 22.3125 26.75 C 22.710938 26.8125 23.09375 26.875 23.5 26.9375 L 23.5 25.90625 C 23.097656 25.851563 22.710938 25.773438 22.3125 25.71875 Z M 23.8125 25.9375 C 23.8125 26.039063 23.8125 26.128906 23.8125 26.21875 C 23.8125 26.308594 23.8125 26.414063 23.8125 26.5 C 23.8125 26.617188 23.761719 26.769531 23.78125 26.875 C 23.789063 26.910156 23.824219 26.945313 23.84375 26.96875 C 23.917969 27.0625 24.121094 27.035156 24.28125 27.0625 C 24.515625 27.105469 24.761719 27.148438 25 27.1875 L 25 26.125 C 24.601563 26.0625 24.226563 26 23.8125 25.9375 Z M 10.125 26.09375 L 10.125 27.03125 L 11.34375 27.03125 L 11.34375 26.09375 Z M 7.0625 26.125 L 7.0625 27.0625 L 8.28125 27.0625 L 8.28125 26.125 Z M 25.3125 26.1875 L 25.3125 27.25 C 25.703125 27.324219 26.101563 27.390625 26.5 27.46875 L 26.5 26.40625 C 26.101563 26.335938 25.707031 26.253906 25.3125 26.1875 Z M 16.25 26.3125 L 16.25 27.28125 C 16.65625 27.316406 17.027344 27.335938 17.4375 27.375 L 17.4375 26.40625 C 17.027344 26.375 16.652344 26.34375 16.25 26.3125 Z M 22.3125 27 L 22.3125 28.03125 C 22.710938 28.101563 23.09375 28.179688 23.5 28.25 L 23.5 27.1875 C 23.101563 27.125 22.714844 27.0625 22.3125 27 Z M 10.125 27.28125 L 10.125 28.3125 L 11.34375 28.3125 L 11.34375 27.28125 Z M 11.65625 27.3125 L 11.65625 28.34375 L 12.84375 28.34375 L 12.84375 27.3125 Z M 13.15625 27.3125 C 13.15625 27.652344 13.179688 27.996094 13.1875 28.3125 C 13.1875 28.347656 13.238281 28.402344 13.28125 28.40625 C 13.460938 28.425781 13.632813 28.429688 13.8125 28.4375 C 14 28.445313 14.214844 28.460938 14.40625 28.46875 L 14.40625 27.375 C 13.992188 27.355469 13.570313 27.332031 13.15625 27.3125 Z M 14.71875 27.40625 L 14.71875 28.46875 C 15.121094 28.5 15.523438 28.53125 15.9375 28.5625 L 15.9375 27.875 C 15.9375 27.511719 15.910156 27.503906 15.53125 27.46875 C 15.257813 27.445313 15.003906 27.425781 14.71875 27.40625 Z M 17.75 27.65625 L 17.75 28.75 C 18.15625 28.800781 18.566406 28.855469 18.96875 28.90625 L 18.96875 27.8125 C 18.566406 27.765625 18.15625 27.703125 17.75 27.65625 Z M 19.28125 27.84375 L 19.28125 28.96875 C 19.6875 29.027344 20.097656 29.066406 20.5 29.125 L 20.5 28 C 20.09375 27.945313 19.679688 27.898438 19.28125 27.84375 Z M 22.28125 28.28125 C 22.28125 28.664063 22.277344 29.027344 22.28125 29.375 C 22.28125 29.40625 22.34375 29.460938 22.375 29.46875 C 22.746094 29.542969 23.113281 29.613281 23.5 29.6875 L 23.5 28.5 C 23.101563 28.429688 22.699219 28.355469 22.28125 28.28125 Z M 23.8125 28.5625 C 23.8125 28.941406 23.804688 29.304688 23.8125 29.65625 C 23.8125 29.691406 23.84375 29.742188 23.875 29.75 C 24.246094 29.835938 24.609375 29.914063 25 30 C 25 29.613281 25.007813 29.246094 25 28.875 C 25 28.84375 24.949219 28.792969 24.90625 28.78125 C 24.675781 28.730469 24.417969 28.671875 24.1875 28.625 C 24.058594 28.601563 23.953125 28.589844 23.8125 28.5625 Z "></path>
</g>
</svg>
