<?xml version="1.0" encoding="UTF-8"?>
<svg xmlns="http://www.w3.org/2000/svg" xmlns:xlink="http://www.w3.org/1999/xlink" viewBox="0 0 32 32" version="1.1">
<g>
<path d="M 15.0625 9.09375 C 15.046875 9.09375 14.9375 9.121094 14.9375 9.21875 C 14.9375 9.300781 15 9.3125 15.0625 9.3125 C 19.867188 9.3125 27.691406 11.210938 27.4375 15.34375 C 27.230469 18.710938 21.128906 22.65625 7.09375 22.65625 C 7.007813 22.65625 6.9375 22.730469 6.9375 22.78125 C 6.9375 22.832031 6.996094 22.863281 7.09375 22.875 C 7.09375 22.875 31.480469 23.867188 32 15.34375 C 32.421875 8.429688 15.078125 9.09375 15.0625 9.09375 Z M 3.375 10.25 C 3.355469 10.25 3.328125 10.265625 3.3125 10.28125 C 1.894531 12.277344 1.042969 13.609375 0.15625 15.25 L 0.03125 15.5 C -0.0429688 15.660156 -0.0117188 15.832031 0.09375 16 C 0.617188 16.820313 3.5625 17.78125 10.125 17.78125 C 15.015625 17.78125 20.21875 16.996094 20.21875 15.53125 C 20.21875 14.117188 15.082031 13.25 10.125 13.25 C 8.476563 13.25 6.84375 13.488281 6.375 13.5625 C 6.824219 12.871094 8.667969 10.371094 8.6875 10.34375 C 8.695313 10.332031 8.71875 10.328125 8.71875 10.3125 C 8.71875 10.300781 8.722656 10.292969 8.71875 10.28125 C 8.703125 10.261719 8.679688 10.25 8.65625 10.25 Z M 10.125 14.78125 C 13.121094 14.78125 14.9375 15.226563 14.9375 15.53125 C 14.9375 15.835938 13.121094 16.25 10.125 16.25 C 7.128906 16.25 5.28125 15.835938 5.28125 15.53125 C 5.28125 15.226563 7.128906 14.78125 10.125 14.78125 Z "></path>
</g>
</svg>
