<?xml version="1.0" encoding="UTF-8"?>
<svg xmlns="http://www.w3.org/2000/svg" xmlns:xlink="http://www.w3.org/1999/xlink" viewBox="0 0 32 32" version="1.1">
<g>
<path d="M 15.25 6 C 15.226563 6.011719 15.1875 6.042969 15.1875 6.09375 C 15.1875 6.195313 15.210938 6.1875 15.3125 6.1875 C 18.613281 6.1875 24.011719 7.511719 23.8125 10.3125 C 23.710938 12.613281 19.613281 15.398438 9.8125 15.5 C 9.8125 15.5 26.601563 16.105469 27 10.40625 C 27.300781 5.605469 15.3125 6 15.3125 6 C 15.3125 6 15.273438 5.988281 15.25 6 Z M 7.3125 6.6875 C 6.3125 8.1875 5.695313 9.085938 5.09375 10.1875 L 5.09375 10.3125 C 4.992188 10.511719 4.992188 10.613281 5.09375 10.8125 C 5.492188 11.414063 7.5 12 12 12 C 15.398438 12 19 11.40625 19 10.40625 C 19 9.40625 15.5 8.8125 12 8.8125 C 10.800781 8.914063 9.707031 9 9.40625 9 C 9.707031 8.5 11 6.8125 11 6.8125 Z M 11.90625 9.90625 C 13.90625 9.90625 15.1875 10.207031 15.1875 10.40625 C 15.1875 10.605469 13.90625 10.90625 11.90625 10.90625 C 9.804688 11.007813 8.59375 10.605469 8.59375 10.40625 C 8.59375 10.207031 9.804688 9.90625 11.90625 9.90625 Z M 4 17 L 4 27 L 28 27 L 28 17 Z M 6 19 L 26 19 L 26 25 L 6 25 Z M 9 21 C 8.449219 21 8 21.449219 8 22 C 8 22.550781 8.449219 23 9 23 C 9.550781 23 10 22.550781 10 22 C 10 21.449219 9.550781 21 9 21 Z M 12 21 L 12 23 L 24 23 L 24 21 Z "></path>
</g>
</svg>
