<?xml version="1.0" encoding="UTF-8"?>
<svg xmlns="http://www.w3.org/2000/svg" xmlns:xlink="http://www.w3.org/1999/xlink" viewBox="0 0 32 32" version="1.1">
<g>
<path d="M 5 4 L 5 28 L 11.71875 28 L 9.75 26 L 7 26 L 7 6 L 24 6 L 24 10.59375 L 23.28125 11.28125 L 11.28125 23.28125 L 10.59375 24 L 11.28125 24.6875 L 15.21875 28.6875 L 15.9375 29.40625 L 16.65625 28.71875 L 28.71875 16.65625 L 29.40625 15.9375 L 28.6875 15.21875 L 26 12.5625 L 26 4 Z M 24 8.5 C 24 8.222656 23.777344 8 23.5 8 C 23.222656 8 23 8.222656 23 8.5 C 23 8.777344 23.222656 9 23.5 9 C 23.777344 9 24 8.777344 24 8.5 Z M 21.5 6 C 21.222656 6 21 6.222656 21 6.5 C 21 6.777344 21.222656 7 21.5 7 C 21.777344 7 22 6.777344 22 6.5 C 22 6.222656 21.777344 6 21.5 6 Z M 17.5 6 C 17.222656 6 17 6.222656 17 6.5 C 17 6.777344 17.222656 7 17.5 7 C 17.777344 7 18 6.777344 18 6.5 C 18 6.222656 17.777344 6 17.5 6 Z M 13.5 6 C 13.222656 6 13 6.222656 13 6.5 C 13 6.777344 13.222656 7 13.5 7 C 13.777344 7 14 6.777344 14 6.5 C 14 6.222656 13.777344 6 13.5 6 Z M 9.5 6 C 9.222656 6 9 6.222656 9 6.5 C 9 6.777344 9.222656 7 9.5 7 C 9.777344 7 10 6.777344 10 6.5 C 10 6.222656 9.777344 6 9.5 6 Z M 7 8.5 C 7 8.777344 7.222656 9 7.5 9 C 7.777344 9 8 8.777344 8 8.5 C 8 8.222656 7.777344 8 7.5 8 C 7.222656 8 7 8.222656 7 8.5 Z M 7 12.5 C 7 12.777344 7.222656 13 7.5 13 C 7.777344 13 8 12.777344 8 12.5 C 8 12.222656 7.777344 12 7.5 12 C 7.222656 12 7 12.222656 7 12.5 Z M 7 16.5 C 7 16.777344 7.222656 17 7.5 17 C 7.777344 17 8 16.777344 8 16.5 C 8 16.222656 7.777344 16 7.5 16 C 7.222656 16 7 16.222656 7 16.5 Z M 7 20.5 C 7 20.777344 7.222656 21 7.5 21 C 7.777344 21 8 20.777344 8 20.5 C 8 20.222656 7.777344 20 7.5 20 C 7.222656 20 7 20.222656 7 20.5 Z M 7 24.5 C 7 24.777344 7.222656 25 7.5 25 C 7.777344 25 8 24.777344 8 24.5 C 8 24.222656 7.777344 24 7.5 24 C 7.222656 24 7 24.222656 7 24.5 Z M 9.5 8 C 9.222656 8 9 8.222656 9 8.5 C 9 8.777344 9.222656 9 9.5 9 C 9.777344 9 10 8.777344 10 8.5 C 10 8.222656 9.777344 8 9.5 8 Z M 11.5 8 C 11.222656 8 11 8.222656 11 8.5 C 11 8.777344 11.222656 9 11.5 9 C 11.777344 9 12 8.777344 12 8.5 C 12 8.222656 11.777344 8 11.5 8 Z M 13.5 8 C 13.222656 8 13 8.222656 13 8.5 C 13 8.777344 13.222656 9 13.5 9 C 13.777344 9 14 8.777344 14 8.5 C 14 8.222656 13.777344 8 13.5 8 Z M 15.5 8 C 15.222656 8 15 8.222656 15 8.5 C 15 8.777344 15.222656 9 15.5 9 C 15.777344 9 16 8.777344 16 8.5 C 16 8.222656 15.777344 8 15.5 8 Z M 17.5 8 C 17.222656 8 17 8.222656 17 8.5 C 17 8.777344 17.222656 9 17.5 9 C 17.777344 9 18 8.777344 18 8.5 C 18 8.222656 17.777344 8 17.5 8 Z M 19.5 8 C 19.222656 8 19 8.222656 19 8.5 C 19 8.777344 19.222656 9 19.5 9 C 19.777344 9 20 8.777344 20 8.5 C 20 8.222656 19.777344 8 19.5 8 Z M 21.5 8 C 21.222656 8 21 8.222656 21 8.5 C 21 8.777344 21.222656 9 21.5 9 C 21.777344 9 22 8.777344 22 8.5 C 22 8.222656 21.777344 8 21.5 8 Z M 9.5 10 C 9.222656 10 9 10.222656 9 10.5 C 9 10.777344 9.222656 11 9.5 11 C 9.777344 11 10 10.777344 10 10.5 C 10 10.222656 9.777344 10 9.5 10 Z M 13.5 10 C 13.222656 10 13 10.222656 13 10.5 C 13 10.777344 13.222656 11 13.5 11 C 13.777344 11 14 10.777344 14 10.5 C 14 10.222656 13.777344 10 13.5 10 Z M 17.5 10 C 17.222656 10 17 10.222656 17 10.5 C 17 10.777344 17.222656 11 17.5 11 C 17.777344 11 18 10.777344 18 10.5 C 18 10.222656 17.777344 10 17.5 10 Z M 21.5 10 C 21.222656 10 21 10.222656 21 10.5 C 21 10.777344 21.222656 11 21.5 11 C 21.777344 11 22 10.777344 22 10.5 C 22 10.222656 21.777344 10 21.5 10 Z M 9.5 12 C 9.222656 12 9 12.222656 9 12.5 C 9 12.777344 9.222656 13 9.5 13 C 9.777344 13 10 12.777344 10 12.5 C 10 12.222656 9.777344 12 9.5 12 Z M 11.5 12 C 11.222656 12 11 12.222656 11 12.5 C 11 12.777344 11.222656 13 11.5 13 C 11.777344 13 12 12.777344 12 12.5 C 12 12.222656 11.777344 12 11.5 12 Z M 13.5 12 C 13.222656 12 13 12.222656 13 12.5 C 13 12.777344 13.222656 13 13.5 13 C 13.777344 13 14 12.777344 14 12.5 C 14 12.222656 13.777344 12 13.5 12 Z M 15.5 12 C 15.222656 12 15 12.222656 15 12.5 C 15 12.777344 15.222656 13 15.5 13 C 15.777344 13 16 12.777344 16 12.5 C 16 12.222656 15.777344 12 15.5 12 Z M 17.5 12 C 17.222656 12 17 12.222656 17 12.5 C 17 12.777344 17.222656 13 17.5 13 C 17.777344 13 18 12.777344 18 12.5 C 18 12.222656 17.777344 12 17.5 12 Z M 19.5 12 C 19.222656 12 19 12.222656 19 12.5 C 19 12.777344 19.222656 13 19.5 13 C 19.777344 13 20 12.777344 20 12.5 C 20 12.222656 19.777344 12 19.5 12 Z M 24.03125 13.40625 L 26.5625 15.9375 L 15.9375 26.5625 L 13.40625 24.03125 L 15 22.4375 L 16.28125 23.71875 L 17.71875 22.28125 L 16.4375 21 L 18 19.4375 L 19.28125 20.71875 L 20.71875 19.28125 L 19.4375 18 L 21 16.4375 L 22.28125 17.71875 L 23.71875 16.28125 L 22.4375 15 Z M 9.5 14 C 9.222656 14 9 14.222656 9 14.5 C 9 14.777344 9.222656 15 9.5 15 C 9.777344 15 10 14.777344 10 14.5 C 10 14.222656 9.777344 14 9.5 14 Z M 13.5 14 C 13.222656 14 13 14.222656 13 14.5 C 13 14.777344 13.222656 15 13.5 15 C 13.777344 15 14 14.777344 14 14.5 C 14 14.222656 13.777344 14 13.5 14 Z M 17.5 14 C 17.222656 14 17 14.222656 17 14.5 C 17 14.777344 17.222656 15 17.5 15 C 17.777344 15 18 14.777344 18 14.5 C 18 14.222656 17.777344 14 17.5 14 Z M 9.5 16 C 9.222656 16 9 16.222656 9 16.5 C 9 16.777344 9.222656 17 9.5 17 C 9.777344 17 10 16.777344 10 16.5 C 10 16.222656 9.777344 16 9.5 16 Z M 11.5 16 C 11.222656 16 11 16.222656 11 16.5 C 11 16.777344 11.222656 17 11.5 17 C 11.777344 17 12 16.777344 12 16.5 C 12 16.222656 11.777344 16 11.5 16 Z M 13.5 16 C 13.222656 16 13 16.222656 13 16.5 C 13 16.777344 13.222656 17 13.5 17 C 13.777344 17 14 16.777344 14 16.5 C 14 16.222656 13.777344 16 13.5 16 Z M 15.5 16 C 15.222656 16 15 16.222656 15 16.5 C 15 16.777344 15.222656 17 15.5 17 C 15.777344 17 16 16.777344 16 16.5 C 16 16.222656 15.777344 16 15.5 16 Z M 9.5 18 C 9.222656 18 9 18.222656 9 18.5 C 9 18.777344 9.222656 19 9.5 19 C 9.777344 19 10 18.777344 10 18.5 C 10 18.222656 9.777344 18 9.5 18 Z M 13.5 18 C 13.222656 18 13 18.222656 13 18.5 C 13 18.777344 13.222656 19 13.5 19 C 13.777344 19 14 18.777344 14 18.5 C 14 18.222656 13.777344 18 13.5 18 Z M 9.5 20 C 9.222656 20 9 20.222656 9 20.5 C 9 20.777344 9.222656 21 9.5 21 C 9.777344 21 10 20.777344 10 20.5 C 10 20.222656 9.777344 20 9.5 20 Z M 11.5 20 C 11.222656 20 11 20.222656 11 20.5 C 11 20.777344 11.222656 21 11.5 21 C 11.777344 21 12 20.777344 12 20.5 C 12 20.222656 11.777344 20 11.5 20 Z M 9.5 22 C 9.222656 22 9 22.222656 9 22.5 C 9 22.777344 9.222656 23 9.5 23 C 9.777344 23 10 22.777344 10 22.5 C 10 22.222656 9.777344 22 9.5 22 Z M 26 22.1875 L 24 24.1875 L 24 26 L 22.1875 26 L 20.1875 28 L 26 28 Z M 9.5 24 C 9.222656 24 9 24.222656 9 24.5 C 9 24.777344 9.222656 25 9.5 25 C 9.777344 25 10 24.777344 10 24.5 C 10 24.222656 9.777344 24 9.5 24 Z "></path>
</g>
</svg>
