<?xml version="1.0" encoding="UTF-8"?>
<svg xmlns="http://www.w3.org/2000/svg" xmlns:xlink="http://www.w3.org/1999/xlink" viewBox="0 0 32 32" version="1.1">
<g>
<path d="M 16.78125 8 C 16.328125 8.058594 15.910156 8.265625 15.59375 8.59375 L 10 14.1875 L 5.40625 9.59375 C 5.03125 9.199219 4.511719 8.972656 3.96875 8.96875 C 3.15625 8.976563 2.429688 9.472656 2.128906 10.226563 C 1.824219 10.980469 2.011719 11.839844 2.59375 12.40625 L 7.9375 17.75 C 8.132813 18.375 8.625 18.867188 9.25 19.0625 L 13.59375 23.40625 C 14.371094 24.175781 15.628906 24.175781 16.40625 23.40625 L 22 17.8125 L 26.59375 22.40625 C 27.074219 23.003906 27.851563 23.273438 28.597656 23.101563 C 29.347656 22.929688 29.929688 22.347656 30.101563 21.597656 C 30.273438 20.851563 30.003906 20.074219 29.40625 19.59375 L 24.0625 14.25 C 23.867188 13.625 23.375 13.132813 22.75 12.9375 L 18.40625 8.59375 C 17.984375 8.160156 17.386719 7.941406 16.78125 8 Z M 17 12.8125 L 19.1875 15 L 15 19.1875 L 12.8125 17 Z "></path>
</g>
</svg>
