<?xml version="1.0" encoding="UTF-8"?>
<svg xmlns="http://www.w3.org/2000/svg" xmlns:xlink="http://www.w3.org/1999/xlink" viewBox="0 0 32 32" version="1.1">
<g>
<path d="M 16 4 C 14.734375 4 13.722656 4.796875 12.90625 5.78125 C 12.089844 6.765625 11.410156 8.023438 10.84375 9.375 C 9.707031 12.078125 9 15.074219 9 17 C 9 18.328125 9.121094 19.640625 9.65625 20.8125 C 10.097656 21.78125 10.929688 22.5625 12 23.125 L 12 25 C 12 26.09375 12.90625 27 14 27 L 15 28 L 17 28 L 18 27 C 19.09375 27 20 26.09375 20 25 L 20 23.125 C 21.070313 22.5625 21.902344 21.78125 22.34375 20.8125 C 22.878906 19.640625 23 18.328125 23 17 C 23 15.074219 22.292969 12.078125 21.15625 9.375 C 20.589844 8.023438 19.910156 6.765625 19.09375 5.78125 C 18.277344 4.796875 17.265625 4 16 4 Z M 16 6 C 16.390625 6 16.945313 6.316406 17.5625 7.0625 C 18.179688 7.808594 18.792969 8.921875 19.3125 10.15625 C 20.347656 12.625 21 15.613281 21 17 C 21 17.34375 20.992188 17.683594 20.96875 18 L 11.03125 18 C 11.007813 17.683594 11 17.34375 11 17 C 11 15.613281 11.652344 12.625 12.6875 10.15625 C 13.207031 8.921875 13.820313 7.808594 14.4375 7.0625 C 15.054688 6.316406 15.609375 6 16 6 Z M 11.5 20 L 20.5 20 C 20.15625 20.734375 19.660156 21.265625 18.65625 21.625 L 18 21.84375 L 18 25 L 14 25 L 14 21.84375 L 13.34375 21.625 C 12.339844 21.265625 11.84375 20.734375 11.5 20 Z "></path>
</g>
</svg>
