<?xml version="1.0" encoding="UTF-8"?>
<svg xmlns="http://www.w3.org/2000/svg" xmlns:xlink="http://www.w3.org/1999/xlink" viewBox="0 0 32 32" version="1.1">
<g>
<path d="M 16 3.25 L 15.1875 4.4375 C 15.1875 4.4375 13.179688 7.289063 11.15625 10.6875 C 10.144531 12.386719 9.117188 14.234375 8.34375 15.9375 C 7.570313 17.640625 7 19.144531 7 20.5 C 7 25.210938 11.074219 29 16 29 C 20.921875 29 25 25.210938 25 20.5 C 25 19.144531 24.429688 17.640625 23.65625 15.9375 C 22.882813 14.234375 21.855469 12.386719 20.84375 10.6875 C 18.820313 7.289063 16.8125 4.4375 16.8125 4.4375 Z M 16 6.8125 C 16.578125 7.648438 17.582031 9.074219 19.15625 11.71875 C 20.144531 13.378906 21.117188 15.15625 21.84375 16.75 C 22.570313 18.34375 23 19.789063 23 20.5 C 23 24.058594 19.910156 27 16 27 C 12.089844 27 9 24.058594 9 20.5 C 9 19.789063 9.429688 18.34375 10.15625 16.75 C 10.882813 15.15625 11.855469 13.378906 12.84375 11.71875 C 14.417969 9.074219 15.421875 7.648438 16 6.8125 Z "></path>
</g>
</svg>
