<?xml version="1.0" encoding="UTF-8"?>
<svg xmlns="http://www.w3.org/2000/svg" xmlns:xlink="http://www.w3.org/1999/xlink" viewBox="0 0 32 32" version="1.1">
<g>
<path d="M 2 7 L 2 25 L 16 25 C 16.769531 25 17.464844 24.695313 18 24.214844 C 18.535156 24.695313 19.230469 25 20 25 L 30 25 L 30 7 L 20 7 C 19.230469 7 18.535156 7.304688 18 7.789063 C 17.464844 7.304688 16.769531 7 16 7 Z M 4 9 L 16 9 C 16.566406 9 17 9.433594 17 10 L 17 11 L 19 11 L 19 10 C 19 9.433594 19.433594 9 20 9 L 28 9 L 28 23 L 20 23 C 19.433594 23 19 22.566406 19 22 L 19 21 L 17 21 L 17 22 C 17 22.566406 16.566406 23 16 23 L 4 23 Z M 21 11.015625 L 21 16 L 26 16 L 26 11.015625 Z M 6 13 L 6 15 L 15 15 L 15 13 Z M 17 13 L 17 15 L 19 15 L 19 13 Z M 6 17 L 6 19 L 15 19 L 15 17 Z M 17 17 L 17 19 L 19 19 L 19 17 Z M 21 19 L 21 21 L 26 21 L 26 19 Z "></path>
</g>
</svg>
