<?xml version="1.0" encoding="UTF-8"?>
<svg xmlns="http://www.w3.org/2000/svg" xmlns:xlink="http://www.w3.org/1999/xlink" viewBox="0 0 32 32" version="1.1">
<g>
<path d="M 15 3 L 15 6 L 12.5 6 L 16 9.5 L 19.5 6 L 17 6 L 17 3 Z M 14.8125 11 L 14.8125 13 L 11 13 L 11 17.625 L 7.875 18 L 7 18.125 L 7 19 C 7 21.121094 7.660156 22.820313 8.40625 24.09375 C 6.214844 24.363281 4.59375 25.09375 4.59375 25.09375 L 5.40625 26.90625 C 5.40625 26.90625 7.515625 26 9.96875 26 C 12.945313 26 15.28125 27.78125 15.28125 27.78125 L 15.5625 28 L 16.4375 28 L 16.71875 27.78125 C 16.71875 27.78125 19.054688 26 22.03125 26 C 24.484375 26 26.59375 26.90625 26.59375 26.90625 L 27.40625 25.09375 C 27.40625 25.09375 25.894531 24.414063 23.8125 24.125 C 23.980469 23.777344 24.136719 23.40625 24.28125 23 C 24.703125 21.820313 25 20.4375 25 19 L 25 18.125 L 24.125 18 L 21 17.625 L 21 13 L 17.1875 13 L 17.1875 11 Z M 13 15 L 19 15 L 19 17.375 L 16.125 17 L 15.875 17 L 13 17.375 Z M 16 19 L 22.84375 19.875 C 22.753906 20.734375 22.664063 21.617188 22.40625 22.34375 C 22.152344 23.0625 21.820313 23.664063 21.5625 24.03125 C 18.597656 24.164063 16.613281 25.46875 16 25.90625 C 15.410156 25.488281 13.554688 24.246094 10.78125 24.03125 C 10.101563 23.132813 9.410156 21.707031 9.1875 19.875 Z M 12 21 C 11.449219 21 11 21.449219 11 22 C 11 22.550781 11.449219 23 12 23 C 12.550781 23 13 22.550781 13 22 C 13 21.449219 12.550781 21 12 21 Z M 20 21 C 19.449219 21 19 21.449219 19 22 C 19 22.550781 19.449219 23 20 23 C 20.550781 23 21 22.550781 21 22 C 21 21.449219 20.550781 21 20 21 Z "></path>
</g>
</svg>
