<?xml version="1.0" encoding="UTF-8"?>
<svg xmlns="http://www.w3.org/2000/svg" xmlns:xlink="http://www.w3.org/1999/xlink" viewBox="0 0 32 32" version="1.1">
<g>
<path d="M 14.8125 3 L 14.8125 5 L 11 5 L 11 9 L 7 9 L 7 10 C 7 14.925781 10.875 16.90625 10.875 16.90625 L 11.0625 17 L 20.9375 17 L 21.125 16.90625 C 21.125 16.90625 25 14.894531 25 10 L 25 9 L 21 9 L 21 5 L 17.1875 5 L 17.1875 3 Z M 13 7 L 19 7 L 19 9 L 13 9 Z M 9.1875 11 L 22.8125 11 C 22.382813 13.863281 20.574219 14.90625 20.375 15 L 11.59375 15 C 11.390625 14.90625 9.613281 13.890625 9.1875 11 Z M 10 19 C 10 19.421875 9.820313 19.808594 9.34375 20.3125 C 8.867188 20.816406 8.117188 21.351563 7.34375 22 C 5.796875 23.296875 4 25.125 4 28 L 6 28 C 6 25.933594 7.203125 24.746094 8.65625 23.53125 C 9.382813 22.921875 10.132813 22.347656 10.78125 21.65625 C 11.429688 20.964844 12 20.085938 12 19 Z M 20 19 C 20 20.085938 20.570313 20.964844 21.21875 21.65625 C 21.867188 22.347656 22.617188 22.921875 23.34375 23.53125 C 24.796875 24.746094 26 25.933594 26 28 L 28 28 C 28 25.125 26.203125 23.296875 24.65625 22 C 23.882813 21.351563 23.132813 20.816406 22.65625 20.3125 C 22.179688 19.808594 22 19.421875 22 19 Z M 16 20.5 L 12.5 24 L 15 24 L 15 28 L 17 28 L 17 24 L 19.5 24 Z "></path>
</g>
</svg>
