<?xml version="1.0" encoding="UTF-8"?>
<svg xmlns="http://www.w3.org/2000/svg" xmlns:xlink="http://www.w3.org/1999/xlink" viewBox="0 0 32 32" version="1.1">
<g>
<path d="M 16 4 C 13.800781 4 12 5.800781 12 8 C 12 8.734375 12.214844 9.40625 12.5625 10 L 5 10 L 5 24 L 27 24 L 27 10 L 19.4375 10 C 19.785156 9.40625 20 8.734375 20 8 C 20 5.800781 18.199219 4 16 4 Z M 16 6 C 17.117188 6 18 6.882813 18 8 C 18 9.117188 17.117188 10 16 10 C 14.882813 10 14 9.117188 14 8 C 14 6.882813 14.882813 6 16 6 Z M 7 12 L 25 12 L 25 22 L 19 22 L 19 21.625 L 21 20.625 L 21 15 C 21 14.289063 20.832031 13.613281 20.5625 13 L 18.21875 13 C 18.699219 13.53125 19 14.230469 19 15 L 19 19.375 L 17 20.375 L 17 22 L 15 22 L 15 20.375 L 13 19.375 L 13 15 C 13 14.230469 13.300781 13.53125 13.78125 13 L 11.4375 13 C 11.167969 13.613281 11 14.289063 11 15 L 11 20.625 L 13 21.625 L 13 22 L 7 22 Z M 13 25 L 13 28 L 19 28 L 19 25 L 17 25 L 17 26 L 15 26 L 15 25 Z "></path>
</g>
</svg>
