<?xml version="1.0" encoding="UTF-8"?>
<svg xmlns="http://www.w3.org/2000/svg" xmlns:xlink="http://www.w3.org/1999/xlink" viewBox="0 0 32 32" version="1.1">
<g>
<path d="M 14 4 C 13.183594 4 12.625 4.390625 12.15625 4.875 C 11.28125 4.363281 10.207031 4.003906 9.03125 4.53125 C 8.238281 4.890625 7.65625 5.5 7.375 6.15625 C 7.285156 6.371094 7.355469 6.566406 7.3125 6.78125 C 6.4375 6.769531 5.519531 6.921875 4.78125 7.65625 C 3.121094 9.308594 3 11.277344 3 12 L 3 17 C 3 17.027344 2.984375 17.707031 3.34375 18.4375 C 3.710938 19.183594 4.652344 20 6 20 L 6.25 20 C 6.382813 20.371094 6.554688 20.679688 6.71875 20.9375 C 6.359375 21.417969 6 22.089844 6 23 C 6 24.878906 7.5 25.875 7.5 25.875 L 7.71875 26 L 27.3125 26 L 27.5625 25.8125 C 27.5625 25.8125 29 24.808594 29 23 C 29 22.109375 28.632813 21.414063 28.28125 20.9375 C 28.640625 20.371094 29 19.582031 29 18.46875 C 29 17.4375 28.65625 16.613281 28.3125 16.0625 C 28.660156 15.589844 29 14.898438 29 14 C 29 12.316406 27.6875 11.28125 27.6875 11.28125 L 27.40625 11 L 24 11 L 24 20 L 11 20 L 11 11 L 7.75 11 L 7.53125 11.125 C 7.53125 11.125 7.085938 11.347656 6.71875 11.8125 C 6.351563 12.277344 6 13.035156 6 14 C 6 14.910156 6.34375 15.59375 6.6875 16.0625 C 6.691406 16.070313 6.683594 16.085938 6.6875 16.09375 C 6.402344 16.558594 6.117188 17.203125 6.03125 18 L 6 18 C 5.304688 18 5.25 17.816406 5.125 17.5625 C 5 17.308594 5 17.03125 5 17.03125 C 5 17.019531 5 17.011719 5 17 L 5 12 C 5 11.472656 5.066406 10.242188 6.21875 9.09375 C 6.484375 8.828125 7.050781 8.820313 7.5625 8.84375 C 7.675781 9.089844 7.703125 9.386719 7.90625 9.59375 C 8.113281 9.804688 8.390625 10.015625 8.8125 10.0625 C 9.234375 10.109375 9.707031 9.902344 9.96875 9.625 C 10.21875 9.359375 10.414063 8.945313 10.375 8.53125 C 10.335938 8.117188 10.117188 7.804688 9.90625 7.59375 C 9.699219 7.386719 9.425781 7.335938 9.1875 7.21875 C 9.203125 7.128906 9.183594 7.015625 9.21875 6.9375 C 9.316406 6.707031 9.46875 6.542969 9.84375 6.375 C 10.351563 6.148438 10.832031 6.324219 11.25 6.59375 C 11.199219 6.835938 11.070313 7.054688 11.125 7.34375 C 11.175781 7.625 11.34375 7.972656 11.65625 8.21875 C 11.96875 8.464844 12.363281 8.542969 12.6875 8.5 C 13.050781 8.453125 13.519531 8.234375 13.75 7.84375 C 13.980469 7.453125 13.945313 7.046875 13.875 6.75 C 13.835938 6.582031 13.695313 6.488281 13.625 6.34375 C 13.765625 6.226563 13.878906 6 14 6 C 14.644531 6 15 6.289063 15 7.0625 L 15 9 L 12 9 L 12 19 L 23 19 L 23 9 L 17 9 L 17 7.0625 C 17 5.351563 15.609375 4 14 4 Z M 14 11 L 21 11 L 21 17 L 14 17 Z M 15 12 L 15 16 L 20 16 L 20 12 Z M 8.34375 13 L 9 13 L 9 15 L 8.34375 15 C 8.316406 14.972656 8.324219 14.992188 8.28125 14.9375 C 8.148438 14.769531 8 14.511719 8 14 C 8 13.488281 8.148438 13.230469 8.28125 13.0625 C 8.324219 13.007813 8.316406 13.027344 8.34375 13 Z M 16 13 L 17 13 L 17 15 L 16 15 Z M 18 13 L 19 13 L 19 15 L 18 15 Z M 26 13 L 26.46875 13 C 26.65625 13.25 27 13.6875 27 14 C 27 14.289063 26.699219 14.722656 26.5 15 L 26 15 Z M 8.4375 17 L 9 17 L 9 20 L 8.4375 20 C 8.253906 19.761719 8 19.304688 8 18.46875 C 8 17.640625 8.253906 17.222656 8.4375 17 Z M 26 17 L 26.5625 17 C 26.746094 17.230469 27 17.65625 27 18.46875 C 27 19.261719 26.753906 19.738281 26.5625 20 L 26 20 Z M 8.34375 22 L 9 22 L 9 24 L 8.34375 24 C 8.191406 23.878906 8 23.652344 8 23 C 8 22.417969 8.195313 22.140625 8.34375 22 Z M 11 22 L 24 22 L 24 24 L 11 24 Z M 26 22 L 26.59375 22 C 26.757813 22.167969 27 22.449219 27 23 C 27 23.550781 26.761719 23.835938 26.59375 24 L 26 24 Z "></path>
</g>
</svg>
