<?xml version="1.0" encoding="UTF-8"?>
<svg xmlns="http://www.w3.org/2000/svg" xmlns:xlink="http://www.w3.org/1999/xlink" viewBox="0 0 32 32" version="1.1">
<g>
<path d="M 23.40625 1.875 L 17.9375 7.34375 L 18 7.84375 L 18.03125 8.125 C 15.910156 7.808594 13.691406 8.433594 12.0625 10.0625 L 11.90625 10.1875 L 5.5 16.59375 C 3.621094 18.476563 3.347656 21.207031 3.4375 23.375 C 3.527344 25.542969 4.03125 27.28125 4.03125 27.28125 L 4.1875 27.8125 L 4.71875 27.96875 C 4.71875 27.96875 6.457031 28.472656 8.625 28.5625 C 10.792969 28.652344 13.523438 28.382813 15.40625 26.5 L 21.9375 19.9375 C 23.566406 18.308594 24.191406 16.09375 23.875 13.96875 L 24.15625 14 L 24.65625 14.0625 L 30.125 8.59375 L 28.15625 8.3125 L 24.25 7.75 L 23.6875 3.84375 Z M 22 6.125 L 22.375 8.78125 L 22.46875 9.53125 L 23.21875 9.625 L 25.875 10 L 23.9375 11.9375 L 22.71875 11.75 L 21 11.5 L 21.625 13.125 C 22.351563 14.925781 22 17.0625 20.53125 18.53125 L 14 25.0625 C 12.757813 26.304688 10.621094 26.640625 8.71875 26.5625 C 7.144531 26.496094 6.285156 26.230469 5.875 26.125 C 5.769531 25.714844 5.503906 24.855469 5.4375 23.28125 C 5.359375 21.378906 5.699219 19.242188 6.9375 18 L 13.46875 11.46875 C 14.9375 10 17.074219 9.648438 18.875 10.375 L 20.46875 11 L 20.25 9.28125 L 20.0625 8.0625 Z "></path>
</g>
</svg>
