<?xml version="1.0" encoding="UTF-8"?>
<svg xmlns="http://www.w3.org/2000/svg" xmlns:xlink="http://www.w3.org/1999/xlink" viewBox="0 0 32 32" version="1.1">
<g>
<path d="M 16 4 C 13.238281 4 11.324219 4.527344 9.71875 5.03125 C 8.113281 5.535156 6.84375 6 5 6 L 4 6 L 4 28 L 13 28 L 13 27.0625 C 13.238281 27.1875 13.328125 27.292969 13.90625 27.46875 C 14.816406 27.746094 16.175781 28 18 28 L 30 28 L 30 23 C 30 19.765625 28.621094 17.570313 26.65625 16.40625 C 24.691406 15.242188 22.289063 15 20 15 C 18.285156 15 17.742188 14.316406 17.375 13.5625 C 17.007813 12.808594 17 12.03125 17 12.03125 L 17 4 Z M 15 6.09375 L 15 12 C 15 12.027344 14.960938 13.207031 15.5625 14.4375 C 16.136719 15.609375 17.472656 16.824219 19.59375 16.96875 C 19.3125 17.613281 18.886719 18.449219 18.1875 19.40625 L 19.8125 20.59375 C 20.863281 19.152344 21.402344 17.871094 21.6875 17.0625 C 23.207031 17.1875 24.605469 17.503906 25.65625 18.125 C 26.859375 18.835938 27.574219 20.070313 27.8125 22 L 12.71875 22 C 11.90625 18.878906 9.261719 16.476563 6 16.0625 L 6 7.875 C 7.644531 7.734375 9.042969 7.378906 10.34375 6.96875 C 11.667969 6.550781 13.109375 6.207031 15 6.09375 Z M 13 8 C 12.449219 8 12 8.449219 12 9 C 12 9.550781 12.449219 10 13 10 C 13.550781 10 14 9.550781 14 9 C 14 8.449219 13.550781 8 13 8 Z M 13 11 C 12.449219 11 12 11.449219 12 12 C 12 12.550781 12.449219 13 13 13 C 13.550781 13 14 12.550781 14 12 C 14 11.449219 13.550781 11 13 11 Z M 14 14 C 13.449219 14 13 14.449219 13 15 C 13 15.550781 13.449219 16 14 16 C 14.550781 16 15 15.550781 15 15 C 15 14.449219 14.550781 14 14 14 Z M 16 17 C 15.449219 17 15 17.449219 15 18 C 15 18.550781 15.449219 19 16 19 C 16.550781 19 17 18.550781 17 18 C 17 17.449219 16.550781 17 16 17 Z M 6 18.09375 C 8.175781 18.453125 9.941406 19.96875 10.65625 22 L 6 22 Z M 6 24 L 28 24 L 28 26 L 26 26 L 26 25 L 24 25 L 24 26 L 22 26 L 22 25 L 20 25 L 20 26 L 18 26 L 18 25 L 16 25 L 16 25.84375 C 15.378906 25.753906 14.878906 25.648438 14.5 25.53125 C 13.777344 25.308594 13.53125 25.15625 13.53125 25.15625 L 13.28125 25 L 11 25 L 11 26 L 9 26 L 9 25 L 7 25 L 7 26 L 6 26 Z "></path>
</g>
</svg>
