<?xml version="1.0" encoding="UTF-8"?>
<svg xmlns="http://www.w3.org/2000/svg" xmlns:xlink="http://www.w3.org/1999/xlink" viewBox="0 0 32 32" version="1.1">
<g>
<path d="M 18 4 C 16.535156 4 15.160156 4.375 13.9375 5 C 13.9375 5 13.90625 5 13.90625 5 C 13.820313 5.007813 11.238281 5.199219 8.59375 6.34375 C 7.25 6.925781 5.882813 7.75 4.8125 9 C 3.742188 10.25 3 11.941406 3 14 C 3 15.371094 3.488281 16.480469 4.21875 17.25 C 4.949219 18.019531 5.855469 18.445313 6.71875 18.6875 C 6.820313 18.714844 6.929688 18.726563 7.03125 18.75 C 7.332031 22.839844 10.023438 23.027344 10.78125 23 C 10.992188 23.496094 11.222656 23.964844 11.46875 24.40625 C 13.027344 27.21875 15.347656 29 18 29 C 19.761719 29 21.421875 28.191406 22.75 26.84375 C 23.953125 25.625 24.878906 23.910156 25.59375 21.875 C 27.503906 21.574219 29 19.988281 29 18 C 29 16.546875 28.105469 15.414063 26.9375 14.71875 C 26.96875 14.15625 27 13.601563 27 13 C 27 8.042969 22.957031 4 18 4 Z M 18 6 C 21.878906 6 25 9.121094 25 13 C 25 13.71875 24.980469 14.40625 24.9375 15.09375 L 24.875 15.875 L 25.625 16.125 C 26.429688 16.386719 27 17.105469 27 18 C 27 19.117188 26.117188 20 25 20 C 25.128906 20 25.105469 20.007813 24.9375 20 L 24.1875 19.9375 L 23.9375 20.6875 C 23.277344 22.789063 22.347656 24.417969 21.3125 25.46875 C 20.277344 26.519531 19.179688 27 18 27 C 16.234375 27 14.554688 25.84375 13.21875 23.4375 C 13.144531 23.300781 13.074219 23.144531 13 23 L 15 23 C 15 23 18 22.875 18 18 C 18 13.125 16 13 16 13 L 14 13 C 11.886719 13 12.417969 12.046875 11.09375 12 C 11.578125 8.601563 14.464844 6 18 6 Z M 10.78125 7.65625 C 9.769531 9.019531 9.136719 10.675781 9.03125 12.46875 C 8.273438 13.011719 7.304688 14.171875 7.0625 16.71875 C 6.511719 16.535156 6.003906 16.242188 5.65625 15.875 C 5.261719 15.460938 5 14.941406 5 14 C 5 12.394531 5.507813 11.25 6.3125 10.3125 C 7.117188 9.375 8.25 8.65625 9.40625 8.15625 C 9.875 7.953125 10.332031 7.796875 10.78125 7.65625 Z M 14.5 16 C 15.328125 16 16 16.671875 16 17.5 C 16 18.328125 15.328125 19 14.5 19 C 13.671875 19 13 18.328125 13 17.5 C 13 16.671875 13.671875 16 14.5 16 Z M 21.5 16 C 20.671875 16 20 16.671875 20 17.5 C 20 18.328125 20.671875 19 21.5 19 C 22.328125 19 23 18.328125 23 17.5 C 23 16.671875 22.328125 16 21.5 16 Z "></path>
</g>
</svg>
