<?xml version="1.0" encoding="UTF-8"?>
<svg xmlns="http://www.w3.org/2000/svg" xmlns:xlink="http://www.w3.org/1999/xlink" viewBox="0 0 32 32" version="1.1">
<g>
<path d="M 9 4 C 7.355469 4 6 5.355469 6 7 L 6 25 C 6 26.644531 7.355469 28 9 28 L 26 28 L 26 4 Z M 9 6 L 24 6 L 24 22 L 9 22 C 8.648438 22 8.316406 22.074219 8 22.1875 L 8 7 C 8 6.433594 8.433594 6 9 6 Z M 15 8 L 15 9 L 17 9 L 17 8 Z M 15 10 L 15 11 L 17 11 L 17 10 Z M 15 12 L 15 16.5625 L 12.71875 14.28125 L 11.28125 15.71875 L 15.28125 19.71875 L 16 20.40625 L 16.71875 19.71875 L 20.71875 15.71875 L 19.28125 14.28125 L 17 16.5625 L 17 12 Z M 9 24 L 24 24 L 24 26 L 9 26 C 8.433594 26 8 25.566406 8 25 C 8 24.433594 8.433594 24 9 24 Z "></path>
</g>
</svg>
