<?xml version="1.0" encoding="UTF-8"?>
<svg xmlns="http://www.w3.org/2000/svg" xmlns:xlink="http://www.w3.org/1999/xlink" viewBox="0 0 32 32" version="1.1">
<g>
<path d="M 26.03125 6.46875 L 24.5625 7.9375 C 24.5625 7.9375 28.96875 12.574219 28.96875 16.8125 C 28.96875 21.058594 26.28125 23.96875 23 23.96875 C 19.648438 23.96875 17.03125 21.351563 17.03125 18 C 17.03125 16.308594 17.8125 14.65625 17.8125 14.65625 L 16.0625 13.78125 C 16.0625 13.777344 16.03125 13.75 16.03125 13.75 L 15.96875 13.75 C 15.96875 13.75 15.9375 13.777344 15.9375 13.78125 L 14.15625 14.65625 C 14.15625 14.65625 14.96875 16.425781 14.96875 18 C 14.96875 21.351563 12.351563 23.96875 9 23.96875 C 5.71875 23.96875 3.03125 21.042969 3.03125 16.90625 C 3.03125 12.667969 7.4375 8.03125 7.4375 8.03125 L 5.96875 6.5625 C 5.96875 6.5625 0.96875 11.34375 0.96875 16.90625 C 0.96875 21.972656 4.480469 26.03125 9 26.03125 C 12.015625 26.03125 14.628906 24.386719 16 21.9375 C 17.371094 24.386719 19.984375 26.03125 23 26.03125 C 27.519531 26.03125 31.03125 21.96875 31.03125 16.8125 C 31.03125 11.25 26.03125 6.46875 26.03125 6.46875 Z "></path>
</g>
</svg>
