<?xml version="1.0" encoding="UTF-8"?>
<svg xmlns="http://www.w3.org/2000/svg" xmlns:xlink="http://www.w3.org/1999/xlink" viewBox="0 0 32 32" version="1.1">
<g>
<path d="M 14 3 C 12.90625 3 12 3.90625 12 5 L 12 7.3125 C 11.042969 7.78125 10.347656 8.605469 9.875 9.5 C 9.285156 10.613281 9 11.867188 9 13 C 9 13.792969 9.535156 14.417969 10 14.6875 L 10 22.28125 C 9.535156 22.542969 9 23.191406 9 24 L 9 26 C 9 27.644531 10.355469 29 12 29 L 20 29 C 21.644531 29 23 27.644531 23 26 L 23 24 C 23 23.191406 22.464844 22.542969 22 22.28125 L 22 14.6875 C 22.464844 14.417969 23 13.792969 23 13 C 23 11.859375 22.714844 10.613281 22.125 9.5 C 21.652344 8.605469 20.957031 7.78125 20 7.3125 L 20 5 C 20 3.90625 19.09375 3 18 3 Z M 14 5 L 18 5 L 18 7 L 14 7 Z M 13.21875 9 L 18.78125 9 C 19.414063 9.175781 19.972656 9.675781 20.375 10.4375 C 20.785156 11.214844 21 12.203125 21 13 L 13 13 L 13 15 L 20 15 L 20 22 L 13 22 L 13 24 L 20.9375 24 C 20.9375 24 20.972656 24.023438 21 24.03125 L 21 26 C 21 26.554688 20.554688 27 20 27 L 12 27 C 11.445313 27 11 26.554688 11 26 L 11 24 C 11.023438 23.992188 11.0625 24 11.0625 24 L 12 23.96875 L 12 13.03125 L 11.03125 13 C 11.03125 13 11.007813 13.003906 11 13 C 11 12.214844 11.214844 11.21875 11.625 10.4375 C 12.027344 9.671875 12.589844 9.171875 13.21875 9 Z "></path>
</g>
</svg>
