<?xml version="1.0" encoding="UTF-8"?>
<svg xmlns="http://www.w3.org/2000/svg" xmlns:xlink="http://www.w3.org/1999/xlink" viewBox="0 0 32 32" version="1.1">
<g>
<path d="M 2 7 L 2 25 L 30 25 L 30 7 Z M 4 9 L 28 9 L 28 23 L 4 23 Z M 23 11 L 23 12.039063 C 21.875 12.226563 21 13.210938 21 14.382813 L 21 15.382813 L 21.285156 15.382813 C 21.476563 15.714844 21.753906 15.996094 22.109375 16.171875 L 25 17.617188 C 24.996094 17.839844 24.839844 18 24.617188 18 L 23.382813 18 C 23.160156 18 23 17.839844 23 17.617188 L 23 17 L 21 17 L 21 17.617188 C 21 18.789063 21.875 19.773438 23 19.960938 L 23 21 L 25 21 L 25 19.957031 C 25.71875 19.816406 26.246094 19.273438 26.582031 18.617188 L 27 18.617188 L 27 17.617188 C 27 16.863281 26.570313 16.167969 25.894531 15.828125 L 23 14.378906 C 23.003906 14.160156 23.160156 14 23.382813 14 L 24.617188 14 C 24.839844 14 25 14.160156 25 14.382813 L 25 15 L 27 15 L 27 14.382813 C 27 13.210938 26.125 12.226563 25 12.039063 L 25 11 Z M 7.5 12 C 6.132813 12 5 13.132813 5 14.5 L 5 17.5 C 5 18.867188 6.132813 20 7.5 20 L 8.5 20 C 9.867188 20 11 18.867188 11 17.5 L 11 14.5 C 11 13.132813 9.867188 12 8.5 12 Z M 14.5 12 C 13.132813 12 12 13.132813 12 14.5 L 12 17.5 C 12 18.867188 13.132813 20 14.5 20 L 15.5 20 C 16.867188 20 18 18.867188 18 17.5 L 18 14.5 C 18 13.132813 16.867188 12 15.5 12 Z M 7.5 14 L 8.5 14 C 8.785156 14 9 14.214844 9 14.5 L 9 17.5 C 9 17.785156 8.785156 18 8.5 18 L 7.5 18 C 7.214844 18 7 17.785156 7 17.5 L 7 14.5 C 7 14.214844 7.214844 14 7.5 14 Z M 14.5 14 L 15.5 14 C 15.785156 14 16 14.214844 16 14.5 L 16 17.5 C 16 17.785156 15.785156 18 15.5 18 L 14.5 18 C 14.214844 18 14 17.785156 14 17.5 L 14 14.5 C 14 14.214844 14.214844 14 14.5 14 Z "></path>
</g>
</svg>
