<?xml version="1.0" encoding="UTF-8"?>
<svg xmlns="http://www.w3.org/2000/svg" xmlns:xlink="http://www.w3.org/1999/xlink" viewBox="0 0 32 32" version="1.1">
<g>
<path d="M 2.5625 5.84375 L 2.3125 6.71875 C 2.3125 6.71875 1 11.386719 1 16 C 1 20.613281 2.3125 25.28125 2.3125 25.28125 L 2.5625 26.15625 L 3.46875 25.96875 C 3.46875 25.96875 9.320313 24.90625 13.40625 21 L 18.59375 21 C 22.679688 24.90625 28.53125 25.96875 28.53125 25.96875 L 29.4375 26.15625 L 29.6875 25.28125 C 29.6875 25.28125 31 20.613281 31 16 C 31 11.386719 29.6875 6.71875 29.6875 6.71875 L 29.4375 5.84375 L 28.53125 6.03125 C 28.53125 6.03125 22.703125 7.070313 18.59375 11 L 13.40625 11 C 9.296875 7.070313 3.46875 6.03125 3.46875 6.03125 Z M 4.03125 8.25 C 5.21875 8.535156 8.765625 9.550781 11.78125 12.3125 C 11.609375 12.683594 11.402344 13.175781 11.25 13.78125 L 8.25 13.03125 L 7.75 14.96875 L 11 15.78125 C 11 15.859375 11 15.921875 11 16 C 11 16.136719 11.027344 16.246094 11.03125 16.375 L 8.71875 17.03125 L 9.28125 18.96875 L 11.3125 18.375 C 11.457031 18.902344 11.628906 19.351563 11.78125 19.6875 C 8.785156 22.425781 5.222656 23.460938 4.03125 23.75 C 3.738281 22.574219 3 19.492188 3 16 C 3 12.507813 3.738281 9.425781 4.03125 8.25 Z M 27.96875 8.25 C 28.261719 9.425781 29 12.507813 29 16 C 29 19.492188 28.261719 22.574219 27.96875 23.75 C 26.777344 23.460938 23.214844 22.425781 20.21875 19.6875 C 20.371094 19.351563 20.542969 18.902344 20.6875 18.375 L 22.71875 18.96875 L 23.28125 17.03125 L 20.96875 16.375 C 20.972656 16.246094 21 16.136719 21 16 C 21 15.921875 21 15.859375 21 15.78125 L 24.25 14.96875 L 23.75 13.03125 L 20.75 13.78125 C 20.597656 13.175781 20.390625 12.683594 20.21875 12.3125 C 23.234375 9.550781 26.78125 8.535156 27.96875 8.25 Z M 13.625 13 L 18.375 13 C 18.625 13.5625 19 14.601563 19 16 C 19 17.398438 18.625 18.4375 18.375 19 L 13.625 19 C 13.375 18.4375 13 17.398438 13 16 C 13 14.601563 13.375 13.5625 13.625 13 Z "></path>
</g>
</svg>
