<?xml version="1.0" encoding="UTF-8"?>
<svg xmlns="http://www.w3.org/2000/svg" xmlns:xlink="http://www.w3.org/1999/xlink" viewBox="0 0 32 32" version="1.1">
<g>
<path d="M 2.5625 5.84375 L 2.3125 6.71875 C 2.3125 6.71875 1 11.386719 1 16 C 1 20.613281 2.3125 25.28125 2.3125 25.28125 L 2.5625 26.15625 L 3.46875 25.96875 C 3.46875 25.96875 9.320313 24.90625 13.40625 21 L 18.5625 21 C 18.5625 21 20 18.867188 20 16 C 20 13.132813 18.5625 11 18.5625 11 L 13.40625 11 C 9.296875 7.070313 3.46875 6.03125 3.46875 6.03125 Z M 29.4375 5.84375 C 24.648438 6.695313 21.519531 8.578125 19.6875 10.03125 C 20.105469 10.730469 20.792969 12.050781 21.1875 13.65625 L 23.75 13.03125 L 24.25 14.96875 L 21.5 15.65625 C 21.503906 15.769531 21.5 15.886719 21.5 16 C 21.5 16.175781 21.480469 16.355469 21.46875 16.53125 L 23.28125 17.03125 L 22.71875 18.96875 L 21.15625 18.5 C 20.757813 20.011719 20.121094 21.261719 19.71875 21.9375 C 21.632813 23.445313 24.785156 25.34375 29.4375 26.15625 C 29.4375 26.15625 31 20.503906 31 16 C 31 11.496094 29.4375 5.84375 29.4375 5.84375 Z M 4.03125 8.25 C 5.21875 8.535156 8.765625 9.550781 11.78125 12.3125 C 11.609375 12.683594 11.402344 13.175781 11.25 13.78125 L 8.25 13.03125 L 7.75 14.96875 L 11 15.78125 C 11 15.859375 11 15.921875 11 16 C 11 16.136719 11.027344 16.246094 11.03125 16.375 L 8.71875 17.03125 L 9.28125 18.96875 L 11.3125 18.375 C 11.457031 18.902344 11.628906 19.351563 11.78125 19.6875 C 8.785156 22.425781 5.222656 23.460938 4.03125 23.75 C 3.738281 22.574219 3 19.492188 3 16 C 3 12.507813 3.738281 9.425781 4.03125 8.25 Z M 13.625 13 L 15 13 L 15 19 L 13.625 19 C 13.375 18.4375 13 17.398438 13 16 C 13 14.601563 13.375 13.5625 13.625 13 Z "></path>
</g>
</svg>
