<?xml version="1.0" encoding="UTF-8"?>
<svg xmlns="http://www.w3.org/2000/svg" xmlns:xlink="http://www.w3.org/1999/xlink" viewBox="0 0 32 32" version="1.1">
<g>
<path d="M 23 3 C 21.21875 3 20 4.6875 20 6.5 C 20 8.167969 20.5 9.316406 20.5 10 C 20.5 9.886719 20.492188 10.070313 20.375 10.34375 C 20.257813 10.617188 20.054688 11.015625 19.84375 11.46875 C 19.597656 11.996094 19.300781 12.640625 19.03125 13.375 C 17.429688 11.914063 15.320313 11 13 11 C 8.054688 11 4 15.054688 4 20 C 4 24.945313 8.054688 29 13 29 C 15.640625 29 18.003906 27.828125 19.65625 26 L 26.71875 26 L 26.9375 25.3125 C 26.9375 25.3125 28 22.21875 28 19 C 28 16.34375 27.34375 14.203125 26.6875 12.625 C 26.359375 11.835938 26.007813 11.167969 25.78125 10.6875 C 25.625 10.351563 25.53125 10.082031 25.5 10 C 25.5 9.957031 25.492188 9.949219 25.5 9.96875 C 25.511719 9.316406 26 8.175781 26 6.5 C 26 4.6875 24.78125 3 23 3 Z M 23 5 C 23.429688 5 24 5.550781 24 6.5 C 24 7.410156 23.707031 8.148438 23.5625 9 L 22.4375 9 C 22.292969 8.136719 22 7.382813 22 6.5 C 22 5.550781 22.570313 5 23 5 Z M 22.25 11 L 23.75 11 C 23.828125 11.167969 23.910156 11.339844 24 11.53125 C 24.0625 11.664063 24.152344 11.855469 24.21875 12 L 21.8125 12 C 21.960938 11.695313 22.109375 11.386719 22.21875 11.125 C 22.234375 11.085938 22.234375 11.039063 22.25 11 Z M 13 13 C 16.855469 13 20 16.144531 20 20 C 20 23.855469 16.855469 27 13 27 C 9.144531 27 6 23.855469 6 20 C 6 16.144531 9.144531 13 13 13 Z M 20.9375 14 L 25.0625 14 C 25.566406 15.339844 26 16.996094 26 19 C 26 21.246094 25.488281 23.191406 25.25 24 L 21.03125 24 C 21.636719 22.792969 22 21.4375 22 20 C 22 18.21875 21.464844 16.558594 20.5625 15.15625 C 20.679688 14.753906 20.804688 14.359375 20.9375 14 Z M 13.5 15 C 12.671875 15 12 15.671875 12 16.5 C 12 17.328125 12.671875 18 13.5 18 C 14.328125 18 15 17.328125 15 16.5 C 15 15.671875 14.328125 15 13.5 15 Z M 16 18.0625 C 15.449219 18.0625 15 18.511719 15 19.0625 C 15 19.613281 15.449219 20.0625 16 20.0625 C 16.550781 20.0625 17 19.613281 17 19.0625 C 17 18.511719 16.550781 18.0625 16 18.0625 Z M 13 19.0625 C 12.449219 19.0625 12 19.511719 12 20.0625 C 12 20.613281 12.449219 21.0625 13 21.0625 C 13.550781 21.0625 14 20.613281 14 20.0625 C 14 19.511719 13.550781 19.0625 13 19.0625 Z "></path>
</g>
</svg>
