<?xml version="1.0" encoding="UTF-8"?>
<svg xmlns="http://www.w3.org/2000/svg" xmlns:xlink="http://www.w3.org/1999/xlink" viewBox="0 0 32 32" version="1.1">
<g>
<path d="M 5.78125 4.09375 L 4 4.9375 C 4 4.9375 6.140625 9.457031 4.1875 15.28125 L 4.03125 15.59375 C 1.191406 22.054688 5.21875 26.6875 5.21875 26.6875 L 5.34375 26.8125 L 5.5 26.90625 C 5.5 26.90625 10.113281 29.125 15.96875 27.03125 C 21.824219 29.125 26.4375 26.90625 26.4375 26.90625 L 26.625 26.8125 L 26.75 26.6875 C 26.75 26.6875 30.71875 22.082031 27.9375 15.65625 C 25.757813 9.652344 28 4.9375 28 4.9375 L 26.21875 4.09375 C 26.21875 4.09375 23.941406 8.914063 25.65625 15.0625 C 21.03125 15.386719 18.292969 17.367188 16.8125 19.40625 C 16.371094 20.015625 16.222656 20.523438 15.96875 21.09375 C 15.714844 20.527344 15.597656 20.011719 15.15625 19.40625 C 13.679688 17.371094 10.949219 15.394531 6.34375 15.0625 C 8.058594 8.914063 5.78125 4.09375 5.78125 4.09375 Z M 5.71875 17.0625 C 10.089844 17.253906 12.320313 18.925781 13.53125 20.59375 C 14.816406 22.363281 14.96875 24.0625 14.96875 24.0625 L 16 24 L 17 24.0625 C 17 24.0625 17.121094 22.363281 18.40625 20.59375 C 19.617188 18.925781 21.875 17.253906 26.25 17.0625 C 28.046875 21.996094 25.535156 24.949219 25.34375 25.15625 C 25.035156 25.304688 21.449219 27.019531 16.375 25.0625 L 16.1875 25 L 15.78125 25 L 15.59375 25.0625 C 10.492188 27.03125 6.863281 25.289063 6.59375 25.15625 C 6.402344 24.949219 3.921875 21.996094 5.71875 17.0625 Z "></path>
</g>
</svg>
