<?xml version="1.0" encoding="UTF-8"?>
<svg xmlns="http://www.w3.org/2000/svg" xmlns:xlink="http://www.w3.org/1999/xlink" viewBox="0 0 32 32" version="1.1">
<g>
<path d="M 16 4 C 15.875 3.925781 15.203125 4.453125 15.09375 4.53125 C 14.921875 4.65625 14.957031 4.769531 15.03125 4.9375 C 15.117188 5.128906 15.296875 5.449219 15.1875 5.65625 C 15.0625 5.886719 14.859375 5.457031 14.8125 5.34375 C 14.773438 5.25 14.710938 5.175781 14.65625 5.09375 C 14.566406 4.957031 14.582031 4.890625 14.4375 4.875 C 14.335938 4.863281 14.207031 4.96875 14.1875 5.03125 C 14.160156 5.125 14.152344 5.519531 14.15625 5.625 C 14.160156 5.707031 14.246094 5.929688 14.28125 6.0625 C 13.980469 5.984375 13.117188 5.609375 12.9375 5.28125 C 12.882813 5.183594 12.796875 5.085938 12.71875 5 C 12.585938 4.859375 12.613281 4.796875 12.40625 4.78125 C 12.257813 4.769531 12.089844 4.902344 12.0625 4.96875 C 12.023438 5.066406 11.992188 5.453125 12 5.5625 C 12.007813 5.664063 12.21875 5.546875 12.21875 5.8125 C 12.21875 6.085938 12.03125 6.152344 12.03125 6.40625 C 12.03125 6.585938 12.023438 6.808594 12.0625 7 L 6 7 L 6 8.5 L 6.15625 8.71875 L 7.53125 11 L 4 11 L 4 12.5 L 4.15625 12.71875 L 6 15.78125 L 6 28 L 8 28 L 8 17 L 12 17 L 12 28 L 14 28 L 14 17 L 18 17 L 18 28 L 20 28 L 20 17 L 24 17 L 24 28 L 26 28 L 26 15.78125 L 27.84375 12.71875 L 28 12.5 L 28 11 L 24.46875 11 L 25.84375 8.71875 L 26 8.5 L 26 7 L 19.9375 7 C 19.976563 6.808594 19.96875 6.582031 19.96875 6.40625 C 19.96875 6.15625 19.78125 6.085938 19.78125 5.8125 C 19.78125 5.546875 19.992188 5.664063 20 5.5625 C 20.007813 5.453125 19.976563 5.066406 19.9375 4.96875 C 19.910156 4.902344 19.742188 4.769531 19.59375 4.78125 C 19.386719 4.796875 19.414063 4.859375 19.28125 5 C 19.203125 5.085938 19.117188 5.183594 19.0625 5.28125 C 18.878906 5.609375 18.015625 5.984375 17.71875 6.0625 C 17.753906 5.929688 17.839844 5.707031 17.84375 5.625 C 17.847656 5.519531 17.839844 5.125 17.8125 5.03125 C 17.792969 4.964844 17.664063 4.863281 17.5625 4.875 C 17.417969 4.890625 17.433594 4.957031 17.34375 5.09375 C 17.289063 5.175781 17.226563 5.25 17.1875 5.34375 C 17.097656 5.566406 16.976563 5.703125 16.84375 5.78125 C 16.867188 5.714844 16.890625 5.648438 16.90625 5.625 C 17.265625 5.125 16.851563 4.679688 16.21875 4.65625 C 16.046875 4.648438 15.839844 4.609375 15.78125 4.46875 C 15.71875 4.3125 16.199219 4.121094 16 4 Z M 8.65625 9 L 23.34375 9 L 22.15625 10.96875 L 22.125 11 L 21 11 L 21 10 L 19 10 L 19 11 L 17 11 L 17 10 L 15 10 L 15 11 L 13 11 L 13 10 L 11 10 L 11 11 L 9.875 11 L 9.84375 10.96875 Z M 6.65625 13 L 25.34375 13 L 24.75 14 L 23 14 L 23 15 L 21 15 L 21 14 L 19 14 L 19 15 L 17 15 L 17 14 L 15 14 L 15 15 L 13 15 L 13 14 L 11 14 L 11 15 L 9 15 L 9 14 L 7.25 14 Z "></path>
</g>
</svg>
