<?xml version="1.0" encoding="UTF-8"?>
<svg xmlns="http://www.w3.org/2000/svg" xmlns:xlink="http://www.w3.org/1999/xlink" viewBox="0 0 32 32" version="1.1">
<g>
<path d="M 5 5 L 5 15 L 6 15 L 6 17 L 4 17 L 4 25 L 6 25 L 6 27 L 10 27 L 10 25 L 14 25 L 14 27 L 18 27 L 18 25 L 22 25 L 22 27 L 26 27 L 26 25 L 28 25 L 28 17 L 26 17 L 26 15 L 27 15 L 27 5 L 21 5 L 21 15 L 22 15 L 22 17 L 18 17 L 18 15 L 19 15 L 19 5 L 13 5 L 13 15 L 14 15 L 14 17 L 10 17 L 10 15 L 11 15 L 11 5 Z M 7 7 L 9 7 L 9 13 L 7 13 Z M 15 7 L 17 7 L 17 13 L 15 13 Z M 23 7 L 25 7 L 25 13 L 23 13 Z M 6 19 L 26 19 L 26 23 L 6 23 Z "></path>
</g>
</svg>
