<?xml version="1.0" encoding="UTF-8"?>
<svg xmlns="http://www.w3.org/2000/svg" xmlns:xlink="http://www.w3.org/1999/xlink" viewBox="0 0 32 32" version="1.1">
<g>
<path d="M 3 3 L 3 17 L 15 17 L 15 29 L 29 29 L 29 15 L 17 15 L 17 3 Z M 5 5 L 15 5 L 15 15 L 5 15 Z M 6 7 L 6 13 L 8.351563 13 C 9.5 13 10.5 12.699219 10.5 11.347656 C 10.5 11.027344 10.386719 10.714844 10.183594 10.46875 C 9.972656 10.226563 9.671875 10.050781 9.300781 10 C 9.761719 9.769531 10 9.363281 10 8.601563 C 10 7.699219 9.265625 7 8.367188 7 Z M 7 8 L 8.179688 8 C 8.742188 8 8.976563 8.300781 8.976563 8.75 C 8.976563 9.300781 8.601563 9.5 8.179688 9.5 L 7 9.5 Z M 11.25 9 L 11.25 13 L 12.25 13 L 12.25 11.097656 C 12.25 10.25 12.648438 10 13.25 10 L 13.25 9 C 12.75 9 12.449219 9.199219 12.25 9.648438 L 12.25 9 Z M 7 10.5 L 8.359375 10.5 C 8.9375 10.5 9.328125 10.695313 9.328125 11.273438 C 9.328125 11.804688 8.988281 12 8.359375 12 L 7 12 Z M 17 17 L 27 17 L 27 27 L 17 27 Z M 18 19 L 18 25 L 20.347656 25 C 21.5 25 22.5 24.699219 22.5 23.347656 C 22.5 23.027344 22.386719 22.714844 22.183594 22.46875 C 21.972656 22.226563 21.671875 22.050781 21.300781 22 C 21.761719 21.769531 22 21.363281 22 20.597656 C 22 19.699219 21.265625 19 20.363281 19 Z M 19 20 L 20.175781 20 C 20.742188 20 20.980469 20.300781 20.980469 20.75 C 20.980469 21.300781 20.601563 21.5 20.175781 21.5 L 19 21.5 Z M 24.5 21 C 23.871094 21 23.285156 21.289063 23.171875 22 L 23.957031 22 C 24.03125 21.828125 24.191406 21.75 24.5 21.75 C 24.851563 21.75 25.15625 21.90625 25.15625 22.152344 L 25.15625 22.25 C 24.953125 22.351563 24.003906 22.597656 24.003906 22.597656 C 23.554688 22.699219 23 23.050781 23 23.800781 C 23 24.550781 23.554688 25 24.15625 25 C 24.554688 25 24.90625 24.851563 25.203125 24.550781 C 25.203125 24.652344 25.199219 24.875 25.199219 25 L 26 25 L 26 22 C 26 21.261719 25.199219 21 24.5 21 Z M 19 22.5 L 20.359375 22.5 C 20.9375 22.5 21.328125 22.695313 21.328125 23.273438 C 21.328125 23.804688 20.988281 24 20.359375 24 L 19 24 Z M 25 23.101563 L 25 23.609375 C 25 24.058594 24.667969 24.226563 24.386719 24.226563 C 24.160156 24.226563 23.875 24.058594 23.875 23.777344 C 23.875 23.496094 24.167969 23.355469 24.398438 23.257813 C 24.398438 23.257813 24.945313 23.046875 25 23.101563 Z "></path>
</g>
</svg>
