<?xml version="1.0" encoding="UTF-8"?>
<svg xmlns="http://www.w3.org/2000/svg" xmlns:xlink="http://www.w3.org/1999/xlink" viewBox="0 0 32 32" version="1.1">
<g>
<path d="M 4.6875 6.9375 C 4.6875 6.9375 1 12.074219 1 18 C 1 22.429688 4.570313 26 9 26 C 12.019531 26 14.636719 24.335938 16 21.875 C 17.363281 24.335938 19.980469 26 23 26 C 27.429688 26 31 22.429688 31 18 C 31 12.074219 27.3125 6.9375 27.3125 6.9375 L 25.6875 8.0625 C 25.6875 8.0625 29 12.925781 29 18 C 29 21.371094 26.371094 24 23 24 C 19.628906 24 17 21.371094 17 18 C 17 17.347656 17.058594 16.371094 17.21875 15.4375 C 17.378906 14.503906 17.683594 13.628906 18 13.21875 L 16.40625 12 C 16.25 12.203125 16.117188 12.433594 16 12.65625 C 15.882813 12.433594 15.75 12.203125 15.59375 12 L 14 13.21875 C 14.316406 13.628906 14.621094 14.503906 14.78125 15.4375 C 14.941406 16.371094 15 17.347656 15 18 C 15 21.371094 12.371094 24 9 24 C 5.628906 24 3 21.371094 3 18 C 3 12.925781 6.3125 8.0625 6.3125 8.0625 Z M 9 17 C 7.894531 17 7 17.894531 7 19 C 7 20.105469 7.894531 21 9 21 C 10.105469 21 11 20.105469 11 19 C 11 17.894531 10.105469 17 9 17 Z M 23 17 C 21.894531 17 21 17.894531 21 19 C 21 20.105469 21.894531 21 23 21 C 24.105469 21 25 20.105469 25 19 C 25 17.894531 24.105469 17 23 17 Z "></path>
</g>
</svg>
