<?xml version="1.0" encoding="UTF-8"?>
<svg xmlns="http://www.w3.org/2000/svg" xmlns:xlink="http://www.w3.org/1999/xlink" viewBox="0 0 32 32" version="1.1">
<g>
<path d="M 1 7 L 1 9 L 31 9 L 31 7 Z M 1 11 L 1 13 L 4 13 C 5.652344 13 7 14.347656 7 16 L 7 22 L 9 22 L 9 16 C 9 13.242188 6.757813 11 4 11 Z M 16 11 C 13.242188 11 11 13.242188 11 16 L 11 22 L 13 22 L 13 16 C 13 14.347656 14.347656 13 16 13 C 17.652344 13 19 14.347656 19 16 L 19 22 L 21 22 L 21 16 C 21 13.242188 18.757813 11 16 11 Z M 28 11 C 25.242188 11 23 13.242188 23 16 L 23 22 L 25 22 L 25 16 C 25 14.347656 26.347656 13 28 13 L 31 13 L 31 11 Z M 0 23 C 0 23.941406 0.589844 24.683594 1.3125 25.1875 C 2.035156 25.691406 2.960938 26 4 26 C 5.035156 26 5.960938 25.691406 6.6875 25.1875 C 6.800781 25.109375 6.894531 25.027344 7 24.9375 C 7.101563 25.023438 7.203125 25.113281 7.3125 25.1875 C 8.035156 25.691406 8.960938 26 10 26 C 11.035156 26 11.960938 25.691406 12.6875 25.1875 C 12.800781 25.109375 12.894531 25.027344 13 24.9375 C 13.101563 25.023438 13.203125 25.113281 13.3125 25.1875 C 14.035156 25.691406 14.960938 26 16 26 C 17.035156 26 17.960938 25.691406 18.6875 25.1875 C 18.800781 25.109375 18.894531 25.027344 19 24.9375 C 19.101563 25.023438 19.203125 25.113281 19.3125 25.1875 C 20.035156 25.691406 20.960938 26 22 26 C 23.035156 26 23.960938 25.691406 24.6875 25.1875 C 24.800781 25.109375 24.894531 25.027344 25 24.9375 C 25.101563 25.023438 25.203125 25.113281 25.3125 25.1875 C 26.035156 25.691406 26.960938 26 28 26 C 29.035156 26 29.960938 25.691406 30.6875 25.1875 C 31.414063 24.683594 32 23.941406 32 23 L 30 23 C 30 23.058594 29.917969 23.316406 29.5625 23.5625 C 29.207031 23.808594 28.636719 24 28 24 C 27.367188 24 26.796875 23.8125 26.4375 23.5625 C 26.078125 23.3125 26 23.042969 26 23 L 24 23 C 24 23.058594 23.917969 23.316406 23.5625 23.5625 C 23.207031 23.808594 22.636719 24 22 24 C 21.367188 24 20.796875 23.8125 20.4375 23.5625 C 20.078125 23.3125 20 23.042969 20 23 L 18 23 C 18 23.058594 17.917969 23.316406 17.5625 23.5625 C 17.207031 23.808594 16.636719 24 16 24 C 15.367188 24 14.796875 23.8125 14.4375 23.5625 C 14.078125 23.3125 14 23.042969 14 23 L 12 23 C 12 23.058594 11.917969 23.316406 11.5625 23.5625 C 11.207031 23.808594 10.636719 24 10 24 C 9.367188 24 8.796875 23.8125 8.4375 23.5625 C 8.078125 23.3125 8 23.042969 8 23 L 6 23 C 6 23.058594 5.917969 23.316406 5.5625 23.5625 C 5.207031 23.808594 4.636719 24 4 24 C 3.367188 24 2.796875 23.8125 2.4375 23.5625 C 2.078125 23.3125 2 23.042969 2 23 Z "></path>
</g>
</svg>
