<?xml version="1.0" encoding="UTF-8"?>
<svg xmlns="http://www.w3.org/2000/svg" xmlns:xlink="http://www.w3.org/1999/xlink" viewBox="0 0 32 32" version="1.1">
<g>
<path d="M 21.5 13 C 19.703125 13.070313 4.441406 13.667969 0 13.84375 C 2.078125 14.515625 5.222656 15.304688 8.75 15.65625 C 12.277344 16.007813 17.84375 15.941406 22.25 15.90625 C 26.65625 15.871094 28.371094 15.78125 30.21875 16.0625 C 30.894531 16.164063 31.507813 16.585938 32 17.25 C 31.753906 16.296875 30.871094 14.859375 30.09375 14.1875 C 29.316406 13.515625 28.277344 13.398438 27.5 13.1875 C 26.722656 12.976563 23.296875 12.929688 21.5 13 Z M 27.78125 17.1875 C 27.445313 17.355469 27.128906 17.503906 26.90625 17.59375 C 26.066406 17.941406 23.359375 18.878906 20.90625 19.6875 C 22.453125 20.089844 24.332031 20.574219 26.6875 21.03125 C 28.007813 20.53125 30.277344 19.554688 31.34375 18.625 L 30.9375 18.03125 C 30.652344 17.640625 30.328125 17.421875 30.03125 17.375 C 29.335938 17.269531 28.644531 17.203125 27.78125 17.1875 Z "></path>
</g>
</svg>
