<?xml version="1.0" encoding="UTF-8"?>
<svg xmlns="http://www.w3.org/2000/svg" xmlns:xlink="http://www.w3.org/1999/xlink" viewBox="0 0 32 32" version="1.1">
<g>
<path d="M 28 13.4375 C 28 11.449219 26.671875 9.71875 24.816406 9.15625 C 24.039063 6.714844 21.691406 5 19 5 C 17.898438 5 16.828125 5.308594 15.894531 5.878906 C 14.960938 4.710938 13.527344 4 12 4 C 9.554688 4 7.515625 5.761719 7.085938 8.085938 C 4.761719 8.515625 3 10.554688 3 13 C 3 15.757813 5.242188 18 8 18 C 8.277344 18 8.550781 17.96875 8.820313 17.921875 C 10.539063 19.921875 12 23.992188 12 27 L 12 28 L 20 28 L 20 27 C 20 23.929688 21.265625 20.746094 23.554688 17.988281 C 25.933594 17.917969 28 15.828125 28 13.4375 Z M 18.035156 26 L 13.960938 26 C 13.773438 23.660156 12.976563 21.042969 11.871094 18.941406 C 12.078125 18.96875 12.285156 19 12.5 19 C 13.425781 19 14.285156 18.71875 15 18.238281 L 15 23 L 17 23 L 17 18.214844 C 17.722656 18.707031 18.585938 19 19.5 19 C 19.824219 19 20.136719 18.957031 20.445313 18.890625 C 19.054688 21.148438 18.21875 23.582031 18.035156 26 Z M 23.4375 16 C 23.246094 16 23.039063 15.933594 22.699219 15.757813 L 21.96875 15.386719 L 21.460938 16.03125 C 20.976563 16.648438 20.261719 17 19.5 17 C 18.28125 17 17.226563 16.074219 17.039063 14.851563 L 16.914063 14 L 15.078125 14 L 14.953125 14.855469 C 14.773438 16.097656 13.742188 17 12.5 17 C 11.71875 17 10.996094 16.636719 10.515625 15.996094 L 10.023438 15.347656 L 9.285156 15.699219 C 8.863281 15.898438 8.433594 16 8 16 C 6.347656 16 5 14.652344 5 13 C 5 11.347656 6.347656 10 8 10 L 9 10 L 9 9 C 9 7.347656 10.347656 6 12 6 C 13.152344 6 14.207031 6.675781 14.703125 7.722656 C 14.761719 7.910156 15 8.726563 15 10 L 17 10 C 17 9 16.882813 8.230469 16.765625 7.714844 C 17.429688 7.257813 18.199219 7 19 7 C 20.972656 7 22.660156 8.339844 23.019531 10.1875 L 23.15625 10.894531 L 23.863281 10.988281 C 25.0625 11.152344 26 12.230469 26 13.4375 C 26 14.777344 24.777344 16 23.4375 16 Z "></path>
</g>
</svg>
