<?xml version="1.0" encoding="UTF-8"?>
<svg xmlns="http://www.w3.org/2000/svg" xmlns:xlink="http://www.w3.org/1999/xlink" viewBox="0 0 32 32" version="1.1">
<g>
<path d="M 23 2.148438 L 18.027344 8.367188 L 15.109375 4.476563 L 13 6.585938 L 9 2.585938 L 9 13 C 9 14.945313 10.179688 16.582031 11.25 17.789063 C 12.125 18.769531 12.703125 19.195313 13 19.425781 L 13 29 L 19 29 L 19 19.425781 C 19.296875 19.195313 19.875 18.769531 20.75 17.789063 C 21.820313 16.582031 23 14.945313 23 13 Z M 11 7.414063 L 13 9.414063 L 14.890625 7.523438 L 17.972656 11.632813 L 21 7.851563 L 21 13 C 21 14.054688 20.179688 15.417969 19.25 16.460938 C 18.324219 17.503906 17.402344 18.199219 17.402344 18.199219 L 17 18.5 L 17 27 L 15 27 L 15 18.5 L 14.597656 18.199219 C 14.597656 18.199219 13.675781 17.503906 12.75 16.460938 C 11.820313 15.417969 11 14.054688 11 13 Z "></path>
</g>
</svg>
