<?xml version="1.0"?>
<svg xmlns="http://www.w3.org/2000/svg" viewBox="0 0 32 32">
    <path d="M 13.935547 2 C 10.231547 2 7.408875 2.940875 5.546875 4.796875 C 3.856875 6.481875 3 8.8694844 3 11.896484 L 3 12.507812 C 2.386 13.087813 2 13.968281 2 14.863281 C 2 16.167281 2.9728906 17.414703 4.2128906 17.845703 C 4.2658906 18.021703 4.3162344 18.190469 4.3652344 18.355469 C 4.9202344 20.214469 5.3218437 21.558453 6.7148438 23.439453 C 8.1288437 25.091453 10.007 26 12 26 C 12.338 26 12.67 25.963109 13 25.912109 L 13 23.884766 C 12.673 23.960766 12.339 24 12 24 C 10.6 24 9.2613437 23.338359 8.2773438 22.193359 C 7.1373438 20.650359 6.81525 19.571203 6.28125 17.783203 C 6.18025 17.445203 6.0740781 17.088125 5.9550781 16.703125 L 5.7539062 16.056641 L 5.0800781 16.003906 C 4.5650781 15.961906 4 15.365281 4 14.863281 C 4 14.470281 4.2230937 14.023188 4.4960938 13.867188 L 5 13.580078 L 5 11.896484 C 5 9.4204844 5.6589844 7.5088906 6.9589844 6.2128906 C 8.3449844 4.8308906 10.504766 4.0898125 13.384766 4.0078125 L 14.019531 5.2753906 C 14.023238 5.3205942 14.031434 5.3898556 14.03125 5.4140625 L 14.03125 5.4160156 C 14.02525 6.3047051 13.852655 6.4279388 13.455078 6.6367188 C 13.057501 6.8454985 12.279435 6.9588531 11.392578 7.0585938 C 10.505721 7.1583347 9.4975336 7.2467095 8.5742188 7.8085938 C 7.6509046 8.3704807 7 9.5166667 7 11 L 9 11 C 9 9.9833333 9.2231274 9.7550065 9.6132812 9.5175781 C 10.003435 9.2801497 10.748216 9.1443844 11.615234 9.046875 C 12.482252 8.949366 13.461124 8.8912827 14.384766 8.40625 C 15.158515 7.9999304 15.778362 7.1644983 15.966797 6.0820312 C 17.635402 6.3526281 19 7.537058 19 11.896484 L 19 13.580078 L 19.503906 13.869141 C 19.776906 14.024141 20 14.471281 20 14.863281 C 20 15.365281 19.435922 15.961906 18.919922 16.003906 L 18.244141 16.056641 L 18.044922 16.703125 C 17.924922 17.088125 17.817797 17.445203 17.716797 17.783203 C 17.584797 18.227203 17.46475 18.626 17.34375 19 L 19.439453 19 C 19.503453 18.791 19.568766 18.577469 19.634766 18.355469 C 19.683766 18.190469 19.734109 18.021703 19.787109 17.845703 C 21.026109 17.414703 22 16.167281 22 14.863281 C 22 13.968281 21.614 13.086812 21 12.507812 L 21 11.896484 C 21 6.8664844 19.240906 4.2834844 15.628906 4.0214844 L 14.619141 2.0019531 L 14.003906 2 L 13.935547 2 z M 9 14 A 1 1 0 0 0 8 15 A 1 1 0 0 0 9 16 A 1 1 0 0 0 10 15 A 1 1 0 0 0 9 14 z M 15 14 A 1 1 0 0 0 14 15 A 1 1 0 0 0 15 16 A 1 1 0 0 0 16 15 A 1 1 0 0 0 15 14 z M 10 19 C 10 20.105 10.895 21 12 21 C 13.105 21 14 20.105 14 19 L 10 19 z M 15 21 L 15 22 L 15 30 L 30 30 L 30 21 L 15 21 z M 17.912109 23 L 27.087891 23 A 1.5 1.5 0 0 0 28 23.912109 L 28 27.087891 A 1.5 1.5 0 0 0 27.087891 28 L 17.912109 28 A 1.5 1.5 0 0 0 17 27.087891 L 17 23.912109 A 1.5 1.5 0 0 0 17.912109 23 z M 22.5 24 A 1.5 1.5 0 0 0 21 25.5 A 1.5 1.5 0 0 0 22.5 27 A 1.5 1.5 0 0 0 24 25.5 A 1.5 1.5 0 0 0 22.5 24 z M 19.5 25 A 0.5 0.5 0 0 0 19 25.5 A 0.5 0.5 0 0 0 19.5 26 A 0.5 0.5 0 0 0 20 25.5 A 0.5 0.5 0 0 0 19.5 25 z M 25.5 25 A 0.5 0.5 0 0 0 25 25.5 A 0.5 0.5 0 0 0 25.5 26 A 0.5 0.5 0 0 0 26 25.5 A 0.5 0.5 0 0 0 25.5 25 z"></path>
</svg>
