<?xml version="1.0" encoding="UTF-8"?>
<svg xmlns="http://www.w3.org/2000/svg" xmlns:xlink="http://www.w3.org/1999/xlink" viewBox="0 0 32 32" version="1.1">
<g>
<path d="M 26.5 8 L 26.21875 8.375 L 22.65625 13 L 13 13 C 10.25 13 8 15.25 8 18 C 8 20.75 10.25 23 13 23 L 16.5 23 C 18.421875 23 20 21.421875 20 19.5 C 20 18.953125 19.851563 18.460938 19.625 18 L 22.65625 18 L 26.21875 22.625 L 26.5 23 L 29 23 L 29 8 Z M 27 10.65625 L 27 20.34375 L 23.9375 16.375 L 23.65625 16 L 13 16 C 11.898438 16 11 16.898438 11 18 L 16.5 18 C 17.339844 18 18 18.660156 18 19.5 C 18 20.339844 17.339844 21 16.5 21 L 13 21 C 11.332031 21 10 19.667969 10 18 C 10 16.332031 11.332031 15 13 15 L 23.65625 15 L 23.9375 14.625 Z M 3 14 L 3 18 L 5 18 L 5 17 L 7.09375 17 C 7.214844 16.28125 7.460938 15.609375 7.8125 15 L 5 15 L 5 14 Z "></path>
</g>
</svg>
