<?xml version="1.0" encoding="UTF-8"?>
<svg xmlns="http://www.w3.org/2000/svg" xmlns:xlink="http://www.w3.org/1999/xlink" viewBox="0 0 32 32" version="1.1">
<g>
<path d="M 16 3.96875 L 15.75 4.03125 L 4.75 7.03125 L 4 7.25 L 4 28 L 15 28 L 15 24 L 17 24 L 17 28 L 28 28 L 28 7.25 L 27.25 7.03125 L 16.25 4.03125 Z M 16 6.03125 L 26 8.75 L 26 26 L 19 26 L 19 22 L 13 22 L 13 26 L 6 26 L 6 8.75 Z M 9 10 L 9 12 L 11 12 L 11 10 Z M 13 10 L 13 12 L 15 12 L 15 10 Z M 17 10 L 17 12 L 19 12 L 19 10 Z M 21 10 L 21 12 L 23 12 L 23 10 Z M 9 14 L 9 16 L 11 16 L 11 14 Z M 13 14 L 13 16 L 15 16 L 15 14 Z M 17 14 L 17 16 L 19 16 L 19 14 Z M 21 14 L 21 16 L 23 16 L 23 14 Z M 9 18 L 9 20 L 11 20 L 11 18 Z M 13 18 L 13 20 L 15 20 L 15 18 Z M 17 18 L 17 20 L 19 20 L 19 18 Z M 21 18 L 21 20 L 23 20 L 23 18 Z M 9 22 L 9 24 L 11 24 L 11 22 Z M 21 22 L 21 24 L 23 24 L 23 22 Z "></path>
</g>
</svg>
