<?xml version="1.0" encoding="UTF-8"?>
<svg xmlns="http://www.w3.org/2000/svg" xmlns:xlink="http://www.w3.org/1999/xlink" viewBox="0 0 32 32" version="1.1">
<g>
<path d="M 22 4 C 20.460938 4 18.917969 4.582031 17.75 5.75 L 17.75 5.78125 L 17 6.59375 L 16 5.59375 L 15.28125 6.28125 L 7.28125 14.28125 L 6.59375 15 L 7.15625 15.5625 L 5.6875 16.0625 L 5.46875 16.125 L 5.28125 16.28125 L 4.65625 16.90625 L 3.96875 17.625 L 4.65625 18.34375 L 13.65625 27.34375 L 14.375 28.03125 L 15.09375 27.34375 L 15.71875 26.71875 L 15.875 26.53125 L 15.9375 26.3125 L 16.4375 24.84375 L 17 25.40625 L 17.71875 24.71875 L 25.71875 16.71875 L 26.40625 16 L 25.40625 15 L 26.21875 14.25 L 26.25 14.25 C 28.585938 11.914063 28.585938 8.085938 26.25 5.75 C 25.082031 4.582031 23.539063 4 22 4 Z M 22 6 C 23.015625 6 24.03125 6.375 24.8125 7.15625 C 26.382813 8.726563 26.382813 11.242188 24.8125 12.8125 L 24 13.59375 L 18.40625 8 L 19.1875 7.15625 C 19.972656 6.378906 20.984375 6 22 6 Z M 22 7 C 21.230469 7 20.457031 7.292969 19.875 7.875 L 21.28125 9.28125 C 21.679688 8.882813 22.320313 8.882813 22.71875 9.28125 L 24.125 7.875 C 23.542969 7.292969 22.769531 7 22 7 Z M 16 8.40625 L 23.59375 16 L 17 22.5625 L 9.4375 15 Z M 16.28125 10.28125 L 11.28125 15.28125 L 12.71875 16.71875 L 17.71875 11.71875 Z M 8.6875 17.125 L 14.875 23.3125 L 14.25 25.0625 L 6.9375 17.75 Z "></path>
</g>
</svg>
