<?xml version="1.0" encoding="UTF-8"?>
<svg xmlns="http://www.w3.org/2000/svg" xmlns:xlink="http://www.w3.org/1999/xlink" viewBox="0 0 32 32" version="1.1">
<g>
<path d="M 6 5 C 4.894531 5 4 5.894531 4 7 C 4 8.105469 4.894531 9 6 9 C 7.105469 9 8 8.105469 8 7 C 8 5.894531 7.105469 5 6 5 Z M 11 6 L 11 8 L 28 8 L 28 6 Z M 6 14 C 4.894531 14 4 14.894531 4 16 C 4 17.105469 4.894531 18 6 18 C 7.105469 18 8 17.105469 8 16 C 8 14.894531 7.105469 14 6 14 Z M 11 15 L 11 17 L 28 17 L 28 15 Z M 6 23 C 4.894531 23 4 23.894531 4 25 C 4 26.105469 4.894531 27 6 27 C 7.105469 27 8 26.105469 8 25 C 8 23.894531 7.105469 23 6 23 Z M 11 24 L 11 26 L 28 26 L 28 24 Z "></path>
</g>
</svg>
