<?xml version="1.0" encoding="UTF-8"?>
<svg xmlns="http://www.w3.org/2000/svg" xmlns:xlink="http://www.w3.org/1999/xlink" viewBox="0 0 32 32" version="1.1">
<g>
<path d="M 7 6 C 5.90625 6 5 6.90625 5 8 L 5 13.34375 C 4.789063 13.453125 4.570313 13.585938 4.34375 13.78125 C 3.65625 14.371094 3 15.453125 3 17 L 3 19.40625 C 2.390625 20.109375 2 21.003906 2 22 C 2 24.199219 3.800781 26 6 26 L 18 26 C 19.851563 26 21.398438 24.71875 21.84375 23 L 24 23 L 24 26 L 30 26 L 30 24.34375 L 29.53125 24.0625 C 29.496094 24.039063 26 21.75 26 15 L 24 15 L 24 21 L 23 21 L 23 15 C 23 13.90625 22.09375 13 21 13 L 20 13 L 20 11 L 18 11 L 18 13 L 15 13 L 15 8 C 15 6.90625 14.09375 6 13 6 Z M 7 8 L 13 8 L 13 14 L 7 14 Z M 14.71875 15 L 21 15 L 21 19.40625 C 20.273438 18.546875 19.210938 18 18 18 L 6 18 C 5.65625 18 5.320313 18.074219 5 18.15625 L 5 17 C 5 16.070313 5.28125 15.644531 5.5625 15.375 C 5.929688 15.757813 6.4375 16 7 16 L 13 16 C 13.730469 16 14.371094 15.597656 14.71875 15 Z M 6 20 L 18 20 C 19.03125 20 19.847656 20.757813 19.96875 21.75 C 19.96875 21.761719 19.96875 21.769531 19.96875 21.78125 C 19.941406 21.914063 19.941406 22.054688 19.96875 22.1875 C 19.96875 22.199219 19.96875 22.207031 19.96875 22.21875 C 19.859375 23.226563 19.042969 24 18 24 L 6 24 C 4.882813 24 4 23.117188 4 22 C 4 20.882813 4.882813 20 6 20 Z M 6 21 C 5.449219 21 5 21.449219 5 22 C 5 22.550781 5.449219 23 6 23 C 6.550781 23 7 22.550781 7 22 C 7 21.449219 6.550781 21 6 21 Z M 10 21 C 9.449219 21 9 21.449219 9 22 C 9 22.550781 9.449219 23 10 23 C 10.550781 23 11 22.550781 11 22 C 11 21.449219 10.550781 21 10 21 Z M 14 21 C 13.449219 21 13 21.449219 13 22 C 13 22.550781 13.449219 23 14 23 C 14.550781 23 15 22.550781 15 22 C 15 21.449219 14.550781 21 14 21 Z M 18 21 C 17.449219 21 17 21.449219 17 22 C 17 22.550781 17.449219 23 18 23 C 18.550781 23 19 22.550781 19 22 C 19 21.449219 18.550781 21 18 21 Z M 26 23 C 26.226563 23.371094 26.464844 23.710938 26.6875 24 L 26 24 Z "></path>
</g>
</svg>
