<?xml version="1.0" encoding="UTF-8"?>
<svg xmlns="http://www.w3.org/2000/svg" xmlns:xlink="http://www.w3.org/1999/xlink" viewBox="0 0 32 32" version="1.1">
<g>
<path d="M 7 2 C 7 2 6.773438 2.046875 6.40625 2.21875 C 6.039063 2.390625 5.519531 2.679688 4.96875 3.15625 C 3.726563 4.210938 2.691406 6.148438 2.96875 7.8125 C 3.09375 8.566406 3.472656 9.203125 4 9.71875 L 4 9.96875 C 4 9.96875 3.980469 11.191406 4.59375 12.4375 C 5.121094 13.507813 6.257813 14.609375 8.0625 14.90625 C 8.03125 15.277344 8 15.664063 8 16 L 8 16.40625 L 8.28125 16.6875 C 8.28125 16.6875 11 19.640625 11 23 L 11 23.4375 L 11.3125 23.71875 C 11.3125 23.71875 11.726563 24.082031 12.28125 24.5 C 11.699219 25.945313 11.992188 27.679688 13.15625 28.84375 C 14.710938 30.398438 17.257813 30.398438 18.8125 28.84375 C 19.96875 27.6875 20.253906 25.96875 19.6875 24.53125 C 20.265625 24.101563 20.6875 23.71875 20.6875 23.71875 L 21 23.4375 L 21 23 C 21 19.855469 23.75 16.65625 23.75 16.65625 L 24 16.375 L 24 16 C 24 15.675781 23.976563 15.292969 23.9375 14.90625 C 25.675781 14.605469 26.804688 13.515625 27.34375 12.46875 C 27.976563 11.242188 28 10.03125 28 10.03125 L 28 9.6875 C 28.519531 9.175781 28.90625 8.558594 29.03125 7.8125 C 29.308594 6.148438 28.273438 4.210938 27.03125 3.15625 C 26.480469 2.679688 25.960938 2.390625 25.59375 2.21875 C 25.226563 2.046875 25 2 25 2 C 25 2 25.191406 2.128906 25.46875 2.40625 C 25.746094 2.679688 26.125 3.097656 26.4375 3.65625 C 26.878906 4.441406 27.652344 6.734375 26.625 7.40625 C 26.433594 7.53125 25.582031 8 25 8 C 23.453125 8 21.90625 7.550781 20.59375 7.0625 C 19.425781 5.859375 17.894531 5 16 5 C 14.003906 5 12.425781 5.898438 11.21875 7.15625 C 9.953125 7.613281 8.464844 8 7 8 C 6.417969 8 5.566406 7.53125 5.375 7.40625 C 4.347656 6.734375 5.121094 4.441406 5.5625 3.65625 C 5.875 3.097656 6.253906 2.679688 6.53125 2.40625 C 6.808594 2.128906 7 2 7 2 Z M 16 7 C 18.09375 7 19.515625 8.4375 20.53125 10.40625 C 21.496094 12.277344 21.925781 14.511719 21.96875 15.75 C 21.507813 16.265625 19.347656 18.855469 19.09375 22.4375 C 19.050781 22.476563 18.976563 22.5625 18.90625 22.625 C 18.753906 22.265625 18.414063 22 18 22 C 17.449219 22 17 22.449219 17 23 L 17 23.78125 C 16.644531 23.921875 16.289063 24 16 24 C 15.710938 24 15.355469 23.921875 15 23.78125 L 15 23 C 15 22.449219 14.550781 22 14 22 C 13.585938 22 13.246094 22.265625 13.09375 22.625 C 13.023438 22.5625 12.949219 22.476563 12.90625 22.4375 C 12.660156 18.75 10.507813 16.234375 10.03125 15.71875 C 10.074219 14.152344 10.511719 11.933594 11.46875 10.15625 C 12.472656 8.289063 13.859375 7 16 7 Z M 6.25 11 L 6.5 11 C 7.28125 11.15625 8.0625 11.117188 8.875 11.0625 C 8.644531 11.707031 8.480469 12.335938 8.34375 12.96875 C 7.144531 12.8125 6.695313 12.210938 6.375 11.5625 C 6.238281 11.285156 6.304688 11.246094 6.25 11 Z M 25.5 11 L 25.71875 11 C 25.652344 11.238281 25.699219 11.265625 25.5625 11.53125 C 25.21875 12.203125 24.753906 12.816406 23.59375 12.96875 C 23.441406 12.34375 23.246094 11.714844 23 11.0625 C 23.863281 11.121094 24.679688 11.164063 25.5 11 Z M 11.0625 14.03125 C 11.0625 14.03125 10.613281 16.160156 12.40625 16.875 C 13.519531 17.320313 15 16 15 16 Z M 20.9375 14.03125 L 17 16 C 17 16 18.480469 17.320313 19.59375 16.875 C 21.386719 16.160156 20.9375 14.03125 20.9375 14.03125 Z M 14.0625 25.5625 C 14.648438 25.8125 15.292969 26 16 26 C 16.707031 26 17.351563 25.8125 17.9375 25.5625 C 18.085938 26.203125 17.917969 26.894531 17.40625 27.40625 C 16.617188 28.195313 15.382813 28.195313 14.59375 27.40625 C 14.082031 26.894531 13.914063 26.203125 14.0625 25.5625 Z "></path>
</g>
</svg>
