<?xml version="1.0" encoding="UTF-8"?>
<svg xmlns="http://www.w3.org/2000/svg" xmlns:xlink="http://www.w3.org/1999/xlink" viewBox="0 0 32 32" version="1.1">
<g>
<path d="M 9 3 L 9 5 C 10.128906 5 11.972656 5.722656 13.5625 6.90625 C 14.734375 7.78125 15.773438 8.875 16.4375 10.03125 C 16.1875 10.160156 15.9375 10.3125 15.6875 10.5 C 14.828125 9.136719 13.625 8.109375 12.375 7.40625 C 10.628906 6.425781 8.828125 6 7.4375 6 C 6.679688 6 5.914063 6.332031 5.5 6.90625 C 5.085938 7.480469 5 8.121094 5 8.75 C 5 9.484375 5.214844 10.292969 5.625 11.21875 C 6.035156 12.144531 6.65625 13.132813 7.5 14 C 8.277344 14.796875 9.304688 15.445313 10.5 15.8125 C 9.636719 17.027344 9 18.730469 9 21 C 9 22.859375 9.570313 24.5625 10.53125 25.84375 C 11.492188 27.125 12.898438 28 14.5 28 C 15.710938 28 17.265625 27.53125 18.78125 26.5625 C 20.296875 25.59375 21.75 24.070313 22.28125 21.9375 C 22.632813 20.523438 22.539063 19.4375 22.40625 18.65625 C 22.511719 18.617188 22.515625 18.652344 22.625 18.59375 C 23.296875 18.238281 24 17.347656 24 16.125 C 24 15.710938 23.933594 15.316406 23.84375 14.96875 C 23.988281 14.960938 24.136719 14.980469 24.28125 14.96875 C 25.640625 14.84375 27.035156 14.464844 27.6875 13.1875 L 27.71875 13.1875 L 27.71875 13.15625 C 28.285156 12.011719 28 10.738281 27.375 9.5625 C 26.75 8.386719 25.710938 7.285156 24.34375 6.5625 L 24.34375 6.53125 L 24.3125 6.53125 C 23.761719 6.253906 23.1875 6.09375 22.625 6.03125 C 22.0625 5.96875 21.523438 6.023438 21 6.1875 C 19.953125 6.515625 19.09375 7.269531 18.5625 8.3125 C 18.429688 8.570313 18.332031 8.847656 18.25 9.125 C 17.417969 7.613281 16.140625 6.316406 14.75 5.28125 C 12.902344 3.90625 10.851563 3 9 3 Z M 25.9375 3.03125 L 21.78125 4.03125 L 22.21875 5.96875 L 26.40625 4.96875 Z M 7.4375 8 C 8.378906 8 9.980469 8.355469 11.40625 9.15625 C 12.621094 9.839844 13.714844 10.824219 14.34375 12.15625 C 14.234375 12.429688 14.195313 12.675781 14.15625 12.90625 C 14.136719 13.015625 14.105469 13.125 14.09375 13.21875 C 13.585938 13.375 12.914063 13.65625 12.15625 14.1875 C 10.796875 14.136719 9.78125 13.492188 8.9375 12.625 C 8.292969 11.960938 7.796875 11.140625 7.46875 10.40625 C 7.140625 9.671875 7 8.980469 7 8.75 C 7 8.335938 7.097656 8.097656 7.125 8.0625 C 7.152344 8.027344 7.105469 8 7.4375 8 Z M 22 8 C 22.378906 7.957031 22.800781 8.03125 23.28125 8.25 C 23.113281 8.3125 22.941406 8.417969 22.8125 8.5625 C 22.171875 9.210938 22.398438 10.382813 23.09375 11.03125 C 23.789063 11.679688 25.152344 11.914063 25.6875 11.375 C 25.746094 11.3125 25.800781 11.230469 25.84375 11.15625 C 26 11.679688 26 12.09375 25.90625 12.28125 C 25.796875 12.46875 25.097656 12.878906 24.09375 12.96875 C 23.078125 13.0625 21.878906 12.863281 21.21875 12.53125 C 19.886719 11.859375 19.691406 10.523438 20.34375 9.25 C 20.667969 8.617188 21.089844 8.253906 21.59375 8.09375 C 21.71875 8.054688 21.863281 8.015625 22 8 Z M 18.15625 11.46875 C 18.40625 12.636719 19.097656 13.699219 20.3125 14.3125 C 20.710938 14.515625 21.140625 14.667969 21.59375 14.78125 C 21.757813 15.058594 22 15.523438 22 16.125 C 22 16.714844 21.871094 16.714844 21.6875 16.8125 C 21.503906 16.910156 21.28125 16.9375 21.28125 16.9375 L 20.90625 16.9375 C 18.417969 16.441406 17.320313 15.414063 16.75 14.53125 C 16.257813 13.761719 16.203125 13.246094 16.1875 13.0625 C 16.289063 12.742188 16.429688 12.410156 16.6875 12.1875 C 17.253906 11.703125 17.769531 11.523438 18.15625 11.46875 Z M 15.09375 15.65625 C 15.9375 16.949219 17.59375 18.308594 20.4375 18.90625 C 20.484375 19.191406 20.5 19.539063 20.5 19.96875 C 17.324219 19.863281 15.3125 18.882813 14.0625 17.90625 C 13.316406 17.324219 12.886719 16.777344 12.625 16.40625 C 12.726563 16.304688 12.835938 16.210938 12.9375 16.125 C 12.945313 16.121094 12.960938 16.128906 12.96875 16.125 C 13.644531 16.078125 14.355469 15.917969 15.09375 15.65625 Z M 11.5 18.15625 C 11.851563 18.566406 12.273438 19.019531 12.84375 19.46875 C 14.363281 20.65625 16.761719 21.804688 20.21875 21.96875 C 20.082031 22.347656 19.871094 22.675781 19.65625 23 C 16.324219 22.949219 14.085938 22.191406 12.6875 21.46875 C 11.722656 20.96875 11.285156 20.617188 11.03125 20.375 C 11.085938 19.488281 11.261719 18.757813 11.5 18.15625 Z M 11.28125 22.9375 C 11.453125 23.039063 11.589844 23.148438 11.78125 23.25 C 13.140625 23.953125 15.089844 24.617188 17.71875 24.875 C 16.511719 25.644531 15.105469 26 14.5 26 C 13.617188 26 12.792969 25.546875 12.125 24.65625 C 11.773438 24.1875 11.480469 23.597656 11.28125 22.9375 Z "></path>
</g>
</svg>
