<?xml version="1.0" encoding="UTF-8"?>
<svg xmlns="http://www.w3.org/2000/svg" xmlns:xlink="http://www.w3.org/1999/xlink" viewBox="0 0 32 32" version="1.1">
<g>
<path d="M 16.3125 2.21875 C 15.777344 2.261719 15.238281 2.421875 14.71875 2.71875 L 14.6875 2.75 L 14.65625 2.75 L 14.5625 2.71875 L 14.53125 2.6875 L 14.5 2.6875 C 11.699219 1.488281 8.429688 4.046875 9.125 7.15625 L 9.125 7.25 L 9.0625 7.3125 L 9.0625 7.34375 C 8.761719 7.683594 8.535156 8.050781 8.375 8.4375 C 6.246094 8.761719 4.609375 10.855469 5.125 13.15625 L 5.125 13.25 L 5.0625 13.3125 L 5.0625 13.34375 C 3.355469 15.265625 4.023438 18.195313 6.03125 19.375 C 6.121094 21.097656 6.804688 22.378906 7.78125 23.1875 C 8.828125 24.058594 10.066406 24.464844 11.1875 24.84375 C 12.308594 25.222656 13.292969 25.59375 13.9375 26.15625 C 14.421875 26.578125 14.789063 27.082031 14.9375 27.96875 C 14.988281 28.265625 15 28.609375 15 29 L 17 29 C 17 27.867188 17.453125 27.0625 18.28125 26.21875 C 19.109375 25.375 20.324219 24.597656 21.59375 23.6875 C 22.863281 22.777344 24.207031 21.757813 25.25 20.375 C 26.265625 19.03125 26.960938 17.308594 27 15.1875 C 28.265625 13.671875 28.316406 11.226563 26.65625 9.75 L 26.59375 9.6875 L 26.59375 9.625 C 26.890625 7.253906 24.980469 5.351563 22.84375 5.21875 C 22.132813 5.175781 21.410156 5.324219 20.71875 5.71875 L 20.6875 5.75 L 20.59375 5.75 C 20.398438 3.792969 18.714844 2.332031 16.84375 2.21875 C 16.664063 2.207031 16.492188 2.203125 16.3125 2.21875 Z M 16.8125 4.21875 C 17.550781 4.25 18.191406 4.691406 18.46875 5.375 C 17.214844 5.523438 16.09375 6.289063 15.46875 7.375 C 15.324219 7.328125 15.160156 7.3125 15 7.3125 C 14.171875 7.3125 13.5 7.984375 13.5 8.8125 C 13.5 9.640625 14.171875 10.3125 15 10.3125 C 15.019531 10.3125 15.042969 10.3125 15.0625 10.3125 L 14.9375 10.5 L 14.96875 10.53125 C 14.207031 11.492188 14 12.667969 14.21875 13.75 C 13.925781 13.585938 13.671875 13.347656 13.46875 13 L 13.15625 12.5 L 12.90625 12.09375 L 12.46875 12 L 11.875 11.90625 L 11.78125 11.90625 C 10.152344 11.769531 9.46875 9.886719 10.5625 8.65625 L 11.28125 7.9375 L 11.1875 7.4375 L 11.09375 6.84375 L 11.09375 6.78125 L 11.0625 6.75 C 10.652344 5.105469 12.351563 3.945313 13.71875 4.53125 L 14.25 4.78125 L 14.75 5.03125 L 15.6875 4.46875 C 15.695313 4.464844 15.710938 4.472656 15.71875 4.46875 C 16.078125 4.269531 16.460938 4.203125 16.8125 4.21875 Z M 22.78125 7.1875 C 23.851563 7.226563 24.746094 8.148438 24.59375 9.375 L 24.625 9.375 L 24.5 9.9375 L 24.40625 10.5 L 25.34375 11.25 L 25.375 11.28125 C 26.554688 12.375 26.058594 14.230469 24.4375 14.5 L 23.84375 14.625 L 23.25 14.71875 L 22.875 15.84375 L 22.84375 15.875 C 22.527344 16.632813 21.921875 16.96875 21.25 17 C 20.566406 17.03125 19.882813 16.722656 19.46875 16 L 19.15625 15.5 L 18.90625 15.09375 L 18.46875 15 L 17.875 14.90625 L 17.78125 14.90625 C 16.152344 14.769531 15.46875 12.886719 16.5625 11.65625 L 16.625 11.59375 L 16.65625 11.5 L 16.96875 11 L 17.15625 10.6875 L 17.09375 10.34375 L 17 9.75 L 16.96875 9.71875 L 16.96875 9.6875 C 16.621094 8.027344 18.148438 6.839844 19.65625 7.5 C 19.667969 7.503906 19.675781 7.496094 19.6875 7.5 L 20.75 8.03125 L 21.6875 7.46875 C 21.695313 7.464844 21.710938 7.472656 21.71875 7.46875 C 22.070313 7.273438 22.433594 7.175781 22.78125 7.1875 Z M 21 10.3125 C 20.171875 10.3125 19.5 10.984375 19.5 11.8125 C 19.5 12.640625 20.171875 13.3125 21 13.3125 C 21.828125 13.3125 22.5 12.640625 22.5 11.8125 C 22.5 10.984375 21.828125 10.3125 21 10.3125 Z M 8.15625 10.5625 C 8.359375 11.796875 9.097656 12.925781 10.25 13.5 C 9.796875 13.757813 9.5 14.253906 9.5 14.8125 C 9.5 15.640625 10.171875 16.3125 11 16.3125 C 11.792969 16.3125 12.449219 15.6875 12.5 14.90625 C 13.320313 15.671875 14.390625 16.070313 15.46875 15.96875 C 15.597656 16.082031 15.730469 16.1875 15.875 16.28125 C 15.667969 16.886719 15.207031 17.332031 14.4375 17.5 L 13.84375 17.625 L 13.25 17.71875 L 12.875 18.84375 L 12.84375 18.875 C 12.527344 19.632813 11.921875 19.96875 11.25 20 C 10.566406 20.03125 9.882813 19.722656 9.46875 19 L 9.15625 18.5 L 8.90625 18.09375 L 8.46875 18 L 7.875 17.90625 L 7.78125 17.90625 C 6.152344 17.769531 5.46875 15.886719 6.5625 14.65625 L 7.28125 13.9375 L 7.1875 13.4375 L 7.09375 12.84375 L 7.09375 12.78125 L 7.0625 12.75 C 6.804688 11.710938 7.332031 10.886719 8.15625 10.5625 Z M 24.875 16.4375 C 24.664063 17.511719 24.214844 18.375 23.625 19.15625 C 22.792969 20.257813 21.636719 21.183594 20.40625 22.0625 C 19.460938 22.738281 18.472656 23.40625 17.59375 24.15625 C 17.871094 23.226563 18.214844 22.5 18.5625 21.875 C 18.960938 21.164063 19.390625 20.550781 19.75 19.875 C 19.917969 19.558594 20.070313 19.210938 20.1875 18.84375 C 20.582031 18.953125 20.972656 19.019531 21.375 19 C 22.765625 18.933594 24.128906 18.070313 24.71875 16.5625 L 24.75 16.53125 L 24.75 16.5 L 24.78125 16.46875 C 24.8125 16.460938 24.84375 16.445313 24.875 16.4375 Z M 17.71875 17 L 17.75 17 C 17.925781 17.304688 18.140625 17.574219 18.375 17.8125 C 18.332031 18.195313 18.21875 18.527344 18 18.9375 C 17.722656 19.457031 17.265625 20.0625 16.8125 20.875 C 16.578125 21.296875 16.34375 21.769531 16.125 22.3125 C 15.839844 21.078125 15.5625 20.003906 15.34375 19.3125 C 16.492188 18.902344 17.3125 18.019531 17.71875 17 Z M 8.3125 20.71875 C 9.132813 21.597656 10.265625 22.054688 11.375 22 C 12.222656 21.960938 13.058594 21.597656 13.71875 21 C 13.960938 21.871094 14.230469 22.847656 14.46875 24.09375 C 13.609375 23.558594 12.671875 23.230469 11.8125 22.9375 C 10.683594 22.554688 9.671875 22.191406 9.03125 21.65625 C 8.722656 21.398438 8.488281 21.109375 8.3125 20.71875 Z "></path>
</g>
</svg>
