<?xml version="1.0" encoding="UTF-8"?>
<svg xmlns="http://www.w3.org/2000/svg" xmlns:xlink="http://www.w3.org/1999/xlink" viewBox="0 0 32 32" version="1.1">
<g>
<path d="M 16 4 C 14.894531 4 14 4.894531 14 6 L 14 8 L 12 8 L 12 11.875 L 9.28125 20 L 7 20 L 7 21 C 7 22.449219 7.226563 23.816406 7.65625 25 L 6 25 C 6 25.304688 5.246094 26 4 26 C 2.777344 26 2 25.296875 2 25 L 0 25 C 0 26.625 1.832031 28 4 28 C 5.1875 28 6.261719 27.578125 7 26.9375 C 7.738281 27.578125 8.8125 28 10 28 C 11.1875 28 12.261719 27.578125 13 26.9375 C 13.738281 27.578125 14.8125 28 16 28 C 17.1875 28 18.261719 27.578125 19 26.9375 C 19.738281 27.578125 20.8125 28 22 28 C 23.1875 28 24.261719 27.578125 25 26.9375 C 25.738281 27.578125 26.8125 28 28 28 C 30.167969 28 32 26.625 32 25 L 30 25 C 30 25.304688 29.242188 26 28 26 C 26.777344 26 26 25.296875 26 25 L 24.4375 25 C 24.445313 24.976563 24.460938 24.960938 24.46875 24.9375 C 24.839844 23.734375 25 22.355469 25 21 L 25 20 L 22.71875 20 L 20 11.875 L 20 8 L 18 8 L 18 6 C 18 4.894531 17.105469 4 16 4 Z M 14 10 L 18 10 L 18 11 L 14 11 Z M 13.71875 13 L 18.28125 13 L 20.625 20 L 11.375 20 Z M 9.15625 22 L 22.875 22 C 22.808594 22.824219 22.738281 23.675781 22.53125 24.34375 C 22.292969 25.117188 21.949219 25.667969 21.65625 25.96875 C 20.636719 25.855469 20 25.269531 20 25 L 18 25 C 18 25.304688 17.242188 26 16 26 C 14.777344 26 14 25.296875 14 25 L 12 25 C 12 25.269531 11.417969 25.832031 10.4375 25.96875 C 9.789063 25.078125 9.324219 23.625 9.15625 22 Z "></path>
</g>
</svg>
