<?xml version="1.0" encoding="UTF-8"?>
<svg xmlns="http://www.w3.org/2000/svg" xmlns:xlink="http://www.w3.org/1999/xlink" viewBox="0 0 32 32" version="1.1">
<g>
<path d="M 3 6 L 3 25 L 14.25 25 C 13.6875 24.445313 13.214844 23.804688 12.90625 23.0625 L 12.90625 23 L 11.75 23 L 13.40625 19.1875 L 14.84375 22.65625 C 15.242188 23.617188 15.929688 24.449219 16.8125 25 L 19.6875 26.78125 L 18.0625 31.03125 L 19.9375 31.75 L 21.5625 27.5 C 21.902344 26.613281 21.554688 25.597656 20.75 25.09375 L 17.875 23.28125 C 17.347656 22.949219 16.925781 22.480469 16.6875 21.90625 L 14.875 17.5625 L 16.71875 16.75 L 18.9375 21.59375 L 19.46875 22 L 22.875 22 L 20.53125 20.28125 L 18.5625 15.96875 L 21.40625 14.75 L 22 14.5 L 22 9 L 20 9 L 20 13.15625 L 16.0625 14.875 C 16.644531 14.25 17 13.414063 17 12.5 C 17 10.578125 15.421875 9 13.5 9 C 11.578125 9 10 10.578125 10 12.5 C 10 14.398438 11.546875 15.964844 13.4375 16 C 12.765625 16.304688 12.234375 16.851563 11.9375 17.53125 L 9.53125 23 L 5 23 L 5 8 L 27 8 L 27 23 L 20.28125 23 L 22.28125 24.25 C 22.605469 24.453125 22.875 24.707031 23.09375 25 L 29 25 L 29 6 Z M 13.5 11 C 14.339844 11 15 11.660156 15 12.5 C 15 13.339844 14.339844 14 13.5 14 C 12.660156 14 12 13.339844 12 12.5 C 12 11.660156 12.660156 11 13.5 11 Z "></path>
</g>
</svg>
