<?xml version="1.0" encoding="UTF-8"?>
<svg xmlns="http://www.w3.org/2000/svg" xmlns:xlink="http://www.w3.org/1999/xlink" viewBox="0 0 32 32" version="1.1">
<g>
<path d="M 6 3 L 6 29 L 26 29 L 26 13.4375 L 27.71875 11.71875 L 28 11.40625 L 28 3 Z M 8 5 L 22 5 L 22 11.40625 L 22.28125 11.71875 L 24 13.4375 L 24 27 L 8 27 Z M 24 5 L 26 5 L 26 10.5625 L 25 11.5625 L 24 10.5625 Z M 16.03125 9.46875 L 15.25 10.3125 C 15.25 10.3125 14.199219 11.484375 13.15625 13.03125 C 12.113281 14.578125 11 16.476563 11 18.4375 C 11 19.8125 11.597656 21.023438 12.53125 21.8125 C 13.464844 22.601563 14.691406 23 16 23 C 17.308594 23 18.535156 22.601563 19.46875 21.8125 C 20.402344 21.023438 21 19.8125 21 18.4375 C 21 16.613281 19.878906 14.773438 18.84375 13.1875 C 17.808594 11.601563 16.78125 10.375 16.78125 10.375 Z M 15.96875 12.65625 C 16.339844 13.128906 16.566406 13.378906 17.15625 14.28125 C 18.121094 15.757813 19 17.621094 19 18.4375 C 19 19.273438 18.703125 19.84375 18.1875 20.28125 C 18.105469 20.351563 18.003906 20.40625 17.90625 20.46875 C 17.972656 20.257813 18 20.035156 18 19.8125 C 18 17.464844 16.4375 15.34375 16.4375 15.34375 C 16.4375 15.34375 16.515625 17.96875 15.71875 17.96875 C 15.148438 17.96875 14.59375 17.125 14.59375 17.125 C 14.59375 17.125 14 18.351563 14 19.5 C 14 19.84375 14.0625 20.210938 14.1875 20.53125 C 14.054688 20.453125 13.925781 20.375 13.8125 20.28125 C 13.296875 19.84375 13 19.273438 13 18.4375 C 13 17.355469 13.886719 15.539063 14.84375 14.125 C 15.414063 13.277344 15.601563 13.097656 15.96875 12.65625 Z "></path>
</g>
</svg>
