<?xml version="1.0" encoding="UTF-8"?>
<svg xmlns="http://www.w3.org/2000/svg" xmlns:xlink="http://www.w3.org/1999/xlink" viewBox="0 0 32 32" version="1.1">
<g>
<path d="M 4 5 C 2.355469 5 1 6.355469 1 8 L 1 25 L 4.144531 25 C 4.59375 26.714844 6.148438 28 8 28 C 9.851563 28 11.40625 26.714844 11.855469 25 L 19.144531 25 C 19.59375 26.714844 21.148438 28 23 28 C 24.851563 28 26.40625 26.714844 26.855469 25 L 31 25 L 31 17.457031 C 31 15.558594 29.648438 13.910156 27.785156 13.535156 L 27.898438 13.566406 L 26.800781 13.207031 L 25.394531 8.6875 C 25.121094 7.671875 24.632813 6.757813 23.886719 6.078125 C 23.140625 5.402344 22.125 5 21 5 Z M 4 7 L 13 7 L 13 13 L 3 13 L 3 8 C 3 7.433594 3.433594 7 4 7 Z M 15 7 L 19 7 L 19 13 L 15 13 Z M 21 7 C 21.679688 7 22.144531 7.203125 22.542969 7.5625 C 22.941406 7.921875 23.269531 8.480469 23.46875 9.210938 L 23.46875 9.226563 L 24.640625 13 L 21 13 Z M 3 15 L 13 15 L 13 23 L 11.855469 23 C 11.40625 21.285156 9.851563 20 8 20 C 6.148438 20 4.59375 21.285156 4.144531 23 L 3 23 Z M 15 15 L 19 15 L 19 23 L 15 23 Z M 21 15 L 25.84375 15 L 27.332031 15.484375 L 27.390625 15.5 C 28.179688 15.65625 28.765625 16.25 28.941406 17 L 26 17 L 26 19 L 29 19 L 29 23 L 26.855469 23 C 26.40625 21.285156 24.851563 20 23 20 C 22.269531 20 21.589844 20.203125 21 20.550781 Z M 8 22 C 9.117188 22 10 22.882813 10 24 C 10 25.117188 9.117188 26 8 26 C 6.882813 26 6 25.117188 6 24 C 6 22.882813 6.882813 22 8 22 Z M 23 22 C 24.117188 22 25 22.882813 25 24 C 25 25.117188 24.117188 26 23 26 C 21.882813 26 21 25.117188 21 24 C 21 22.882813 21.882813 22 23 22 Z "></path>
</g>
</svg>
