<?xml version="1.0" encoding="UTF-8"?>
<svg xmlns="http://www.w3.org/2000/svg" xmlns:xlink="http://www.w3.org/1999/xlink" viewBox="0 0 32 32" version="1.1">
<g>
<path d="M 14 3 C 13.476563 3 12.941406 3.183594 12.5625 3.5625 C 12.183594 3.941406 12 4.476563 12 5 L 12 6 L 3 6 L 3 26 L 29 26 L 29 6 L 20 6 L 20 5 C 20 4.476563 19.816406 3.941406 19.4375 3.5625 C 19.058594 3.183594 18.523438 3 18 3 Z M 14 5 L 18 5 L 18 6 L 14 6 Z M 5 8 L 27 8 L 27 14 C 27 15.191406 26.191406 16 25 16 L 7 16 C 5.808594 16 5 15.191406 5 14 Z M 9 12 L 9 15 L 11 15 L 11 12 Z M 21 12 L 21 15 L 23 15 L 23 12 Z M 5 17.4375 C 5.589844 17.777344 6.269531 18 7 18 L 25 18 C 25.730469 18 26.410156 17.777344 27 17.4375 L 27 24 L 5 24 Z "></path>
</g>
</svg>
