<?xml version="1.0" encoding="UTF-8"?>
<svg xmlns="http://www.w3.org/2000/svg" xmlns:xlink="http://www.w3.org/1999/xlink" viewBox="0 0 32 32" version="1.1">
<g>
<path d="M 16 4 C 13.800781 4 12 5.800781 12 8 C 12 10.199219 13.800781 12 16 12 C 18.199219 12 20 10.199219 20 8 C 20 5.800781 18.199219 4 16 4 Z M 16 12 C 11.953125 12 8.6875 13.0625 8.6875 13.0625 L 8 13.28125 L 8 14.46875 L 8.25 14.78125 C 8.175781 14.695313 8.378906 14.964844 8.5625 15.3125 C 8.746094 15.660156 8.972656 16.113281 9.1875 16.6875 C 9.613281 17.832031 10 19.367188 10 21 L 10 22 L 13 22 L 13 23 L 11 23 L 11 28 L 21 28 L 21 23 L 19 23 L 19 22 L 22 22 L 22 21 C 22 19.480469 22.367188 18 22.78125 16.84375 C 23.195313 15.6875 23.777344 14.753906 23.78125 14.75 L 24 14.46875 L 24 13.28125 L 23.3125 13.0625 C 23.3125 13.0625 20.046875 12 16 12 Z M 16 6 C 17.117188 6 18 6.882813 18 8 C 18 9.117188 17.117188 10 16 10 C 14.882813 10 14 9.117188 14 8 C 14 6.882813 14.882813 6 16 6 Z M 16 14 C 18.6875 14 20.558594 14.414063 21.625 14.6875 C 21.382813 15.152344 21.132813 15.429688 20.875 16.15625 C 20.5 17.203125 20.3125 18.605469 20.1875 20 L 11.90625 20 C 11.785156 18.476563 11.464844 17.078125 11.0625 16 C 10.859375 15.457031 10.660156 15.042969 10.46875 14.65625 C 11.578125 14.375 13.402344 14 16 14 Z M 15 22 L 17 22 L 17 23 L 15 23 Z M 13 25 L 19 25 L 19 26 L 13 26 Z "></path>
</g>
</svg>
