<?xml version="1.0" encoding="UTF-8"?>
<svg xmlns="http://www.w3.org/2000/svg" xmlns:xlink="http://www.w3.org/1999/xlink" viewBox="0 0 32 32" version="1.1">
<g>
<path d="M 16 4 C 9.382813 4 4 9.382813 4 16 C 4 22.617188 9.382813 28 16 28 C 22.617188 28 28 22.617188 28 16 C 28 9.382813 22.617188 4 16 4 Z M 16 6 C 21.535156 6 26 10.464844 26 16 C 26 21.535156 21.535156 26 16 26 C 10.464844 26 6 21.535156 6 16 C 6 10.464844 10.464844 6 16 6 Z M 12 13 C 10.355469 13 9 14.355469 9 16 C 9 17.644531 10.355469 19 12 19 C 13.644531 19 15 17.644531 15 16 C 15 14.355469 13.644531 13 12 13 Z M 20 13 C 18.355469 13 17 14.355469 17 16 C 17 17.644531 18.355469 19 20 19 C 21.644531 19 23 17.644531 23 16 C 23 14.355469 21.644531 13 20 13 Z M 12 15 C 12.5625 15 13 15.4375 13 16 C 13 16.5625 12.5625 17 12 17 C 11.4375 17 11 16.5625 11 16 C 11 15.4375 11.4375 15 12 15 Z M 20 15 C 20.5625 15 21 15.4375 21 16 C 21 16.5625 20.5625 17 20 17 C 19.4375 17 19 16.5625 19 16 C 19 15.4375 19.4375 15 20 15 Z "></path>
</g>
</svg>
