<?xml version="1.0" encoding="UTF-8"?>
<svg xmlns="http://www.w3.org/2000/svg" xmlns:xlink="http://www.w3.org/1999/xlink" viewBox="0 0 32 32" version="1.1">
<g>
<path d="M 13.6875 4.25 L 12.3125 5.75 C 12.3125 5.75 12.90625 6.253906 13.59375 7.71875 C 13.824219 8.207031 14.042969 8.808594 14.25 9.5 C 13.765625 9.070313 13.238281 8.660156 12.6875 8.3125 C 10.3125 6.8125 7.445313 6 5 6 L 4 6 L 4 7 C 4 8.78125 4.21875 11.851563 5.28125 14.625 C 5.8125 16.011719 6.554688 17.339844 7.65625 18.34375 C 7.941406 18.605469 8.257813 18.855469 8.59375 19.0625 C 7.808594 19.585938 7.152344 20.246094 6.65625 20.875 C 5.566406 22.257813 5.0625 23.65625 5.0625 23.65625 L 4.78125 24.4375 L 5.5 24.84375 L 10.5 27.84375 L 10.71875 28 L 11 28 C 13.085938 28 14.925781 26.910156 16 25.28125 C 17.074219 26.910156 18.914063 28 21 28 L 21.28125 28 L 21.5 27.84375 L 26.5 24.84375 L 27.21875 24.4375 L 26.9375 23.65625 C 26.9375 23.65625 26.433594 22.257813 25.34375 20.875 C 24.847656 20.246094 24.191406 19.585938 23.40625 19.0625 C 23.742188 18.855469 24.058594 18.605469 24.34375 18.34375 C 25.445313 17.339844 26.1875 16.011719 26.71875 14.625 C 27.78125 11.851563 28 8.78125 28 7 L 28 6 L 27 6 C 24.554688 6 21.6875 6.8125 19.3125 8.3125 C 18.761719 8.660156 18.234375 9.070313 17.75 9.5 C 17.957031 8.808594 18.175781 8.207031 18.40625 7.71875 C 19.09375 6.253906 19.6875 5.75 19.6875 5.75 L 18.3125 4.25 C 18.3125 4.25 17.40625 5.148438 16.59375 6.875 C 16.390625 7.308594 16.1875 7.792969 16 8.34375 C 15.8125 7.792969 15.609375 7.308594 15.40625 6.875 C 14.59375 5.148438 13.6875 4.25 13.6875 4.25 Z M 6.09375 8.1875 C 7.890625 8.386719 9.941406 8.9375 11.625 10 C 13.644531 11.277344 15 12.996094 15 15 L 17 15 C 17 12.996094 18.355469 11.277344 20.375 10 C 22.058594 8.9375 24.109375 8.386719 25.90625 8.1875 C 25.820313 9.839844 25.585938 11.972656 24.84375 13.90625 C 24.386719 15.097656 23.78125 16.160156 23 16.875 C 22.21875 17.589844 21.285156 18 20 18 L 20 20 C 21.652344 20 22.871094 21.007813 23.75 22.125 C 24.359375 22.894531 24.472656 23.253906 24.65625 23.65625 L 20.8125 25.96875 C 18.683594 25.867188 17 24.152344 17 22 L 17 21 L 15 21 L 15 22 C 15 24.152344 13.316406 25.867188 11.1875 25.96875 L 7.34375 23.65625 C 7.527344 23.253906 7.640625 22.894531 8.25 22.125 C 9.128906 21.007813 10.347656 20 12 20 L 12 18 C 10.714844 18 9.78125 17.589844 9 16.875 C 8.21875 16.160156 7.613281 15.097656 7.15625 13.90625 C 6.414063 11.972656 6.179688 9.839844 6.09375 8.1875 Z "></path>
</g>
</svg>
