<?xml version="1.0" encoding="UTF-8"?>
<svg xmlns="http://www.w3.org/2000/svg" xmlns:xlink="http://www.w3.org/1999/xlink" viewBox="0 0 32 32" version="1.1">
<g>
<path d="M 19 2 L 19 6.125 C 17.726563 4.820313 15.953125 4 14 4 L 8 4 L 8 6 L 14 6 C 16.753906 6 19 8.246094 19 11 L 19 12.625 L 23 14.625 L 23 16 L 19 16 L 19 21 C 19 22.65625 17.65625 24 16 24 L 11 24 L 11 30 L 13 30 L 13 26 L 16 26 C 17.128906 26 18.160156 25.609375 19 24.96875 L 19 30 L 21 30 L 21 18 L 23 18 L 23 30 L 25 30 L 25 2 L 23 2 L 23 12.375 L 21 11.375 L 21 2 Z M 16 11 C 15.449219 11 15 11.449219 15 12 C 15 12.550781 15.449219 13 16 13 C 16.550781 13 17 12.550781 17 12 C 17 11.449219 16.550781 11 16 11 Z "></path>
</g>
</svg>
