<?xml version="1.0" encoding="UTF-8"?>
<svg xmlns="http://www.w3.org/2000/svg" xmlns:xlink="http://www.w3.org/1999/xlink" viewBox="0 0 32 32" version="1.1">
<g>
<path d="M 16 4 C 9.382813 4 4 9.382813 4 16 C 4 22.617188 9.382813 28 16 28 C 22.617188 28 28 22.617188 28 16 C 28 9.382813 22.617188 4 16 4 Z M 16 6 C 21.535156 6 26 10.464844 26 16 C 26 21.535156 21.535156 26 16 26 C 10.464844 26 6 21.535156 6 16 C 6 10.464844 10.464844 6 16 6 Z M 15.96875 7 L 15.46875 7.03125 L 15.53125 8.03125 L 15.96875 8 L 16.03125 8 L 16.46875 8.03125 L 16.5 7.03125 L 16.03125 7 Z M 17.53125 7.125 L 17.375 8.125 L 17.59375 8.15625 L 17.625 8.15625 L 18.3125 8.34375 L 18.5625 7.375 L 17.84375 7.1875 L 17.78125 7.1875 Z M 14.4375 7.15625 L 14.21875 7.1875 L 14.15625 7.1875 L 13.4375 7.375 L 13.6875 8.34375 L 14.375 8.15625 L 14.40625 8.15625 L 14.59375 8.125 Z M 12.40625 7.75 L 11.71875 8.0625 L 11.71875 8.09375 L 11.6875 8.09375 L 11.5 8.21875 L 12 9.0625 L 12.21875 8.96875 L 12.21875 8.9375 L 12.84375 8.65625 Z M 19.5625 7.75 L 19.125 8.65625 L 19.78125 8.9375 L 19.78125 8.96875 L 19.96875 9.0625 L 20.5 8.21875 L 20.3125 8.09375 L 20.28125 8.09375 L 20.28125 8.0625 Z M 10.625 8.78125 L 10.28125 9.03125 L 10.28125 9.0625 L 10.25 9.0625 L 9.84375 9.46875 L 10.5 10.1875 L 10.90625 9.84375 L 10.9375 9.8125 L 11.21875 9.59375 Z M 21.375 8.78125 L 20.75 9.59375 L 21.0625 9.8125 L 21.09375 9.84375 L 21.46875 10.1875 L 22.15625 9.4375 L 21.75 9.0625 L 21.71875 9.0625 L 21.71875 9.03125 Z M 22.875 10.1875 L 22.125 10.875 L 22.1875 10.9375 L 22.625 11.5 L 22.625 11.53125 L 22.65625 11.5625 L 22.65625 11.59375 L 23.53125 11.0625 L 23.46875 11 L 23.46875 10.96875 L 23.4375 10.9375 L 22.96875 10.28125 L 22.9375 10.28125 L 22.9375 10.25 Z M 9.125 10.21875 L 9.0625 10.25 L 9.0625 10.28125 L 9.03125 10.28125 L 8.5625 10.9375 L 8.53125 10.96875 L 8.53125 11 L 8.46875 11.09375 L 9.3125 11.59375 L 9.34375 11.5625 L 9.375 11.5 L 9.8125 10.9375 L 9.84375 10.90625 L 9.84375 10.875 Z M 16 10.34375 L 11.78125 14.5625 L 13.21875 15.96875 L 15 14.1875 L 15 21 L 17 21 L 17 14.1875 L 18.78125 15.96875 L 20.21875 14.5625 Z M 7.96875 11.96875 L 7.71875 12.46875 L 7.71875 12.5 L 7.6875 12.53125 L 7.5625 12.9375 L 8.5 13.28125 L 8.625 12.90625 L 8.625 12.875 L 8.84375 12.40625 Z M 24.03125 11.96875 L 23.125 12.40625 L 23.375 12.875 L 23.375 12.90625 L 23.5 13.25 L 24.4375 12.90625 L 24.3125 12.53125 L 24.28125 12.5 L 24.28125 12.46875 Z M 24.75 13.90625 L 23.78125 14.15625 L 23.84375 14.375 L 23.84375 14.40625 L 23.9375 15.0625 L 24.9375 14.9375 L 24.8125 14.21875 L 24.8125 14.15625 Z M 7.25 13.9375 L 7.1875 14.15625 L 7.1875 14.21875 L 7.0625 14.9375 L 8.0625 15.09375 L 8.15625 14.40625 L 8.15625 14.375 L 8.21875 14.1875 Z M 8 15.96875 L 7 16.03125 L 7.03125 16.90625 L 7.0625 16.9375 L 7.0625 17.0625 L 8.0625 16.90625 L 8.03125 16.84375 L 8.03125 16.78125 Z M 24 15.96875 L 24 16.03125 L 23.96875 16.78125 L 23.96875 16.84375 L 23.9375 16.90625 L 24.9375 17.0625 L 24.9375 16.9375 L 24.96875 16.90625 L 25 16.03125 L 24.5 16 L 24.34375 16 Z M 8.21875 17.84375 L 7.25 18.09375 L 7.40625 18.65625 L 7.40625 18.6875 L 7.5625 19.09375 L 8.5 18.75 L 8.375 18.40625 L 8.34375 18.34375 Z M 23.78125 17.84375 L 23.65625 18.34375 L 23.625 18.40625 L 23.5 18.71875 L 24.4375 19.0625 L 24.59375 18.6875 L 24.59375 18.65625 L 24.75 18.09375 Z M 8.875 19.59375 L 7.96875 20.03125 L 8.0625 20.28125 L 8.09375 20.28125 L 8.09375 20.3125 L 8.46875 20.9375 L 9.34375 20.40625 L 8.96875 19.78125 L 8.9375 19.78125 Z M 23.125 19.59375 L 23.0625 19.78125 L 23.03125 19.78125 L 22.6875 20.40625 L 23.53125 20.9375 L 23.90625 20.3125 L 23.90625 20.28125 L 23.9375 20.28125 L 24.03125 20.03125 Z M 9.875 21.125 L 9.125 21.8125 L 9.625 22.34375 L 9.625 22.375 L 9.65625 22.375 L 9.84375 22.5625 L 10.5 21.8125 L 10.3125 21.625 Z M 22.125 21.125 L 21.6875 21.625 L 21.5 21.8125 L 22.15625 22.53125 L 22.34375 22.375 L 22.375 22.375 L 22.375 22.34375 L 22.875 21.78125 Z M 11.21875 22.40625 L 10.625 23.21875 L 10.9375 23.4375 L 10.96875 23.46875 L 11 23.46875 L 11.5 23.78125 L 12.03125 22.9375 L 11.5625 22.65625 L 11.5 22.625 Z M 20.78125 22.40625 L 20.5 22.625 L 20.4375 22.65625 L 20 22.9375 L 20.5 23.78125 L 21 23.46875 L 21.03125 23.46875 L 21.0625 23.4375 L 21.375 23.21875 Z M 12.84375 23.34375 L 12.40625 24.25 L 12.46875 24.28125 L 12.5 24.28125 L 12.53125 24.3125 L 13.3125 24.59375 L 13.34375 24.59375 L 13.4375 24.625 L 13.6875 23.65625 L 13.65625 23.65625 L 13.59375 23.625 L 12.90625 23.375 L 12.875 23.375 Z M 19.15625 23.34375 L 19.125 23.375 L 19.09375 23.375 L 18.40625 23.625 L 18.34375 23.65625 L 18.3125 23.65625 L 18.5625 24.625 L 18.65625 24.59375 L 18.6875 24.59375 L 19.46875 24.3125 L 19.5 24.28125 L 19.53125 24.28125 L 19.59375 24.25 Z M 14.59375 23.875 L 14.46875 24.84375 L 15.0625 24.9375 L 15.09375 24.96875 L 15.5 24.96875 L 15.53125 23.96875 L 15.15625 23.96875 Z M 17.40625 23.875 L 16.84375 23.96875 L 16.46875 23.96875 L 16.53125 24.96875 L 16.90625 24.96875 L 16.9375 24.9375 L 17.5625 24.84375 Z "></path>
</g>
</svg>
