<?xml version="1.0" encoding="UTF-8"?>
<svg xmlns="http://www.w3.org/2000/svg" xmlns:xlink="http://www.w3.org/1999/xlink" viewBox="0 0 32 32" version="1.1">
<g>
<path d="M 23 3.8125 L 21.84375 4 L 9.84375 6 L 9 6.15625 L 9 15.84375 L 9.84375 16 L 21.84375 18 L 23 18.1875 Z M 21 6.1875 L 21 10 L 17 10 L 17 6.875 Z M 15 7.1875 L 15 10 L 11 10 L 11 7.875 Z M 11 12 L 15 12 L 15 14.8125 L 11 14.125 Z M 17 12 L 21 12 L 21 15.8125 L 17 15.125 Z M 3 21 L 3 29 L 29 29 L 29 21 Z M 5 23 L 27 23 L 27 27 L 5 27 Z M 8 24 C 7.449219 24 7 24.449219 7 25 C 7 25.550781 7.449219 26 8 26 C 8.550781 26 9 25.550781 9 25 C 9 24.449219 8.550781 24 8 24 Z M 11 24 L 11 26 L 25 26 L 25 24 Z "></path>
</g>
</svg>
