<?xml version="1.0" encoding="UTF-8"?>
<svg xmlns="http://www.w3.org/2000/svg" xmlns:xlink="http://www.w3.org/1999/xlink" viewBox="0 0 32 32" version="1.1">
<g>
<path d="M 17.625 4 C 16.019531 4 14.765625 4.632813 13.875 5.4375 C 13.703125 5.414063 13.496094 5.390625 13.21875 5.375 C 12.585938 5.339844 11.742188 5.367188 10.78125 5.5625 C 8.859375 5.957031 6.464844 7.136719 4.90625 9.96875 C 2.839844 13.71875 4.621094 17.492188 4.8125 17.875 C 4.695313 18.480469 4.105469 21.835938 6.71875 24.3125 C 8.085938 25.609375 9.910156 25.96875 11.53125 25.9375 C 11.621094 26.03125 13.480469 28 16.75 28 C 19.855469 28 21.636719 26.125 22.03125 25.6875 C 22.597656 25.628906 25.507813 25.253906 27.125 22.34375 C 29.074219 18.839844 26.84375 15.78125 26.84375 15.78125 C 28.128906 13.984375 28.414063 11.460938 27.0625 9.21875 C 25.609375 6.8125 23.542969 6.507813 22.875 6.4375 C 22.699219 6.171875 22.554688 5.875 21.90625 5.375 C 21.007813 4.683594 19.589844 4 17.625 4 Z M 17.625 6 C 19.148438 6 20.085938 6.472656 20.6875 6.9375 C 21.289063 7.402344 21.5 7.78125 21.5 7.78125 L 21.78125 8.3125 L 22.34375 8.3125 C 22.34375 8.3125 24.140625 8.257813 25.34375 10.25 C 26.378906 11.964844 25.996094 13.796875 24.9375 14.96875 C 24.417969 10.5 20.605469 7 16 7 C 15.691406 7 15.394531 7 15.09375 7.03125 C 15.105469 7.019531 15.113281 7.011719 15.125 7 C 15.71875 6.425781 16.441406 6 17.625 6 Z M 12.21875 7.40625 C 12.277344 7.402344 12.316406 7.410156 12.375 7.40625 C 12.285156 7.582031 12.199219 7.746094 12.125 7.90625 C 9.101563 9.359375 7 12.429688 7 16 C 7 17.179688 7.242188 18.308594 7.65625 19.34375 C 7.660156 19.363281 7.683594 19.359375 7.6875 19.375 C 7.703125 19.414063 7.703125 19.460938 7.71875 19.5 C 7.738281 19.542969 7.761719 19.597656 7.78125 19.625 C 8.59375 21.464844 9.988281 22.988281 11.75 23.9375 C 11.707031 23.941406 11.667969 23.9375 11.625 23.9375 C 10.292969 23.988281 8.964844 23.699219 8.09375 22.875 C 6.179688 21.0625 6.78125 17.90625 6.78125 17.90625 L 6.875 17.53125 L 6.71875 17.21875 C 6.71875 17.21875 5.066406 13.824219 6.65625 10.9375 C 7.921875 8.636719 9.648438 7.839844 11.15625 7.53125 C 11.535156 7.453125 11.894531 7.425781 12.21875 7.40625 Z M 16 9 C 19.878906 9 23 12.121094 23 16 C 23 16.242188 22.992188 16.484375 22.96875 16.71875 C 22.96875 16.738281 22.96875 16.761719 22.96875 16.78125 C 22.910156 17.300781 22.789063 17.804688 22.625 18.28125 C 22.386719 18.25 21.59375 18.089844 20.84375 17.59375 C 20 17.035156 19.226563 16.195313 18.96875 14.96875 L 18.84375 14.375 L 18.28125 14.21875 C 16.226563 13.617188 15.808594 12.503906 15.6875 11.375 C 15.566406 10.246094 15.9375 9.21875 15.9375 9.21875 C 15.964844 9.148438 15.988281 9.074219 16 9 Z M 13.84375 9.34375 C 13.726563 9.90625 13.621094 10.695313 13.71875 11.59375 C 13.886719 13.152344 14.910156 15.011719 17.25 15.90625 C 17.332031 16.164063 17.421875 16.417969 17.53125 16.65625 C 17.398438 16.765625 17.226563 16.859375 17.03125 16.96875 C 16.433594 17.3125 15.667969 17.558594 14.375 17.03125 L 13.59375 16.71875 L 13.15625 17.4375 C 12.164063 18.980469 11.304688 19.089844 10.59375 19 C 10.238281 18.957031 9.914063 18.820313 9.6875 18.6875 C 9.574219 18.621094 9.503906 18.53125 9.46875 18.5 C 9.171875 17.722656 9 16.882813 9 16 C 9 12.875 11.027344 10.25 13.84375 9.34375 Z M 25.40625 17.21875 C 25.738281 17.71875 26.546875 19.269531 25.375 21.375 C 24.152344 23.578125 21.5 23.78125 21.5 23.78125 L 21.09375 23.8125 L 20.8125 24.125 C 20.8125 24.125 19.226563 26 16.75 26 C 15.699219 26 14.882813 25.78125 14.28125 25.5 C 14.765625 25.351563 15.207031 25.199219 15.5625 25 C 15.710938 25.007813 15.851563 25 16 25 C 20.4375 25 24.144531 21.761719 24.875 17.53125 C 25.058594 17.433594 25.234375 17.335938 25.40625 17.21875 Z M 18.65625 18.28125 C 18.992188 18.652344 19.335938 18.996094 19.71875 19.25 C 20.386719 19.691406 21.011719 20.015625 21.625 20.1875 C 20.351563 21.898438 18.304688 23 16 23 C 14.0625 23 12.296875 22.234375 11.03125 20.96875 C 12.085938 20.855469 13.269531 20.210938 14.28125 19 C 15.800781 19.402344 17.15625 19.222656 18.03125 18.71875 C 18.269531 18.582031 18.46875 18.433594 18.65625 18.28125 Z "></path>
</g>
</svg>
