<?xml version="1.0" encoding="UTF-8"?>
<svg xmlns="http://www.w3.org/2000/svg" xmlns:xlink="http://www.w3.org/1999/xlink" viewBox="0 0 32 32" version="1.1">
<g>
<path d="M 27 2.96875 L 18.90625 4.96875 C 18.953125 4.824219 19 4.664063 19 4.5 C 19 3.671875 18.328125 3 17.5 3 C 16.671875 3 16 3.671875 16 4.5 C 16 4.921875 16.1875 5.289063 16.46875 5.5625 L 14.90625 5.96875 C 14.953125 5.824219 15 5.664063 15 5.5 C 15 4.671875 14.328125 4 13.5 4 C 12.671875 4 12 4.671875 12 5.5 C 12 5.914063 12.167969 6.292969 12.4375 6.5625 L 5 8.40625 L 5 10 L 15.625 7.34375 C 15.703125 7.519531 15.78125 7.71875 15.84375 7.9375 C 16.035156 8.613281 16.097656 9.277344 15.53125 10 L 12 10 L 12 12 L 20 12 L 20 10 L 17.75 10 C 18.039063 9.066406 17.984375 8.132813 17.78125 7.40625 C 17.726563 7.21875 17.65625 7.046875 17.59375 6.875 L 27 4.53125 Z M 9.59375 13 L 9.28125 13.28125 C 9.28125 13.28125 8.652344 13.941406 8.09375 15.0625 C 7.535156 16.183594 7 17.832031 7 20 C 7 22.167969 7.535156 23.816406 8.09375 24.9375 C 8.652344 26.058594 9.28125 26.71875 9.28125 26.71875 L 9.59375 27 L 22.4375 27 L 22.71875 26.6875 C 22.71875 26.6875 25 24.28125 25 20 C 25 15.71875 22.71875 13.3125 22.71875 13.3125 L 22.4375 13 Z M 10.53125 15 L 15 15 L 15 20 L 9 20 C 9 18.167969 9.464844 16.816406 9.90625 15.9375 C 10.246094 15.261719 10.410156 15.132813 10.53125 15 Z M 17 15 L 21.5 15 C 21.820313 15.363281 23 16.832031 23 20 L 17 20 Z M 9.21875 22 L 22.8125 22 C 22.46875 23.804688 21.742188 24.722656 21.5 25 L 10.53125 25 C 10.410156 24.867188 10.246094 24.738281 9.90625 24.0625 C 9.648438 23.546875 9.394531 22.839844 9.21875 22 Z "></path>
</g>
</svg>
