<?xml version="1.0" encoding="UTF-8"?>
<svg xmlns="http://www.w3.org/2000/svg" xmlns:xlink="http://www.w3.org/1999/xlink" viewBox="0 0 32 32" version="1.1">
<g>
<path d="M 17 4 C 14.25 4 12 6.25 12 9 C 12 11.207031 12.148438 13.484375 12.34375 15.65625 C 12.214844 15.5625 12.089844 15.429688 11.96875 15.28125 C 11.484375 14.695313 11.007813 13.683594 11 12.03125 C 11 12.019531 11 12.011719 11 12 C 11 11.792969 10.976563 11.601563 10.9375 11.40625 C 10.871094 11.085938 10.753906 10.777344 10.59375 10.5 C 10.484375 10.308594 10.367188 10.128906 10.21875 9.96875 C 10.199219 9.945313 10.175781 9.925781 10.15625 9.90625 C 9.976563 9.722656 9.753906 9.570313 9.53125 9.4375 C 9.242188 9.261719 8.9375 9.132813 8.59375 9.0625 C 8.429688 9.027344 8.265625 9.003906 8.09375 9 C 8.039063 8.996094 7.992188 9 7.9375 9 C 7.535156 9 7.164063 9.097656 6.8125 9.25 C 6.285156 9.480469 5.820313 9.839844 5.5 10.3125 C 5.394531 10.46875 5.324219 10.636719 5.25 10.8125 C 5.246094 10.820313 5.253906 10.835938 5.25 10.84375 C 5.179688 11.011719 5.101563 11.191406 5.0625 11.375 C 5.058594 11.382813 5.066406 11.398438 5.0625 11.40625 C 5.027344 11.589844 5.003906 11.777344 5 11.96875 C 5 11.972656 5 11.996094 5 12 C 4.996094 12.550781 4.996094 16.222656 7.59375 18.84375 C 8.996094 20.261719 10.859375 20.992188 12.96875 21 C 13.472656 24.621094 13.96875 27.1875 13.96875 27.1875 L 14.125 28 L 21 28 L 21 27 C 21 25.875 21.039063 24.886719 21.0625 23.9375 C 23.808594 23.636719 25.449219 22.175781 26.21875 20.71875 C 27.070313 19.109375 27 17.550781 27 17.5 C 27 17.488281 27 17.480469 27 17.46875 C 26.984375 16.113281 25.859375 15 24.5 15 C 23.140625 15 22.015625 16.113281 22 17.46875 C 22 17.480469 22 17.488281 22 17.5 C 22 17.53125 21.949219 18.191406 21.65625 18.84375 C 21.546875 19.089844 21.402344 19.285156 21.25 19.46875 C 21.589844 14.785156 22.136719 12.605469 22 8.96875 C 21.898438 6.265625 19.75 4 17 4 Z M 17 6 C 18.667969 6 19.9375 7.316406 20 9.03125 C 20.171875 13.648438 19.15625 16.3125 19.0625 26 L 15.8125 26 C 15.582031 24.8125 14 16.648438 14 9 C 14 7.332031 15.332031 6 17 6 Z M 7.9375 11 C 7.957031 11 7.980469 11 8 11 C 8.03125 11 8.0625 10.996094 8.09375 11 C 8.34375 11.023438 8.558594 11.144531 8.71875 11.3125 C 8.894531 11.492188 9.003906 11.730469 9 12 C 9 14.066406 9.628906 15.558594 10.4375 16.53125 C 11.117188 17.347656 11.8125 17.804688 12.5625 17.9375 C 12.601563 18.300781 12.644531 18.648438 12.6875 19 C 11.15625 18.941406 9.976563 18.421875 9 17.4375 C 7.089844 15.507813 6.996094 12.277344 7 12 C 7 11.847656 7.015625 11.714844 7.0625 11.59375 C 7.160156 11.363281 7.332031 11.164063 7.5625 11.0625 C 7.675781 11.015625 7.804688 11 7.9375 11 Z M 24.5 17 C 24.785156 17 25 17.214844 25 17.5 L 25 17.53125 C 25 17.53125 25.027344 18.664063 24.4375 19.78125 C 23.9375 20.730469 23.085938 21.648438 21.125 21.90625 C 21.125 21.875 21.125 21.84375 21.125 21.8125 C 22.320313 21.429688 23.125 20.496094 23.5 19.65625 C 23.984375 18.574219 24 17.53125 24 17.53125 L 24 17.5 C 24 17.214844 24.214844 17 24.5 17 Z "></path>
</g>
</svg>
