<?xml version="1.0" encoding="UTF-8"?>
<svg xmlns="http://www.w3.org/2000/svg" xmlns:xlink="http://www.w3.org/1999/xlink" viewBox="0 0 32 32" version="1.1">
<g>
<path d="M 22 4 L 22 6.09375 C 19.726563 6.5625 18 8.597656 18 11 C 18 12.421875 18.671875 13.589844 19.53125 14.5 C 20.390625 15.410156 21.4375 16.125 22.4375 16.8125 C 23.4375 17.5 24.390625 18.160156 25.03125 18.84375 C 25.671875 19.527344 26 20.164063 26 21 C 26 22.644531 24.664063 24 23 24 C 21.332031 24 20 22.667969 20 21 L 20 19 L 18 19 L 18 21 C 18 23.40625 19.726563 25.4375 22 25.90625 L 22 28 L 24 28 L 24 25.90625 C 26.273438 25.433594 28 23.394531 28 21 C 28 19.574219 27.328125 18.378906 26.46875 17.46875 C 25.609375 16.558594 24.5625 15.84375 23.5625 15.15625 C 22.5625 14.46875 21.609375 13.835938 20.96875 13.15625 C 20.328125 12.476563 20 11.832031 20 11 C 20 9.335938 21.332031 8 23 8 C 24.667969 8 26 9.332031 26 11 L 26 12 L 28 12 L 28 11 C 28 8.59375 26.273438 6.5625 24 6.09375 L 24 4 Z M 9 6 C 6.25 6 4 8.25 4 11 L 4 21 C 4 23.75 6.25 26 9 26 C 11.75 26 14 23.75 14 21 L 14 19 L 12 19 L 12 21 C 12 22.667969 10.667969 24 9 24 C 7.332031 24 6 22.667969 6 21 L 6 11 C 6 9.332031 7.332031 8 9 8 C 10.667969 8 12 9.332031 12 11 L 12 13 L 14 13 L 14 11 C 14 8.25 11.75 6 9 6 Z "></path>
</g>
</svg>
