<?xml version="1.0" encoding="UTF-8"?>
<svg xmlns="http://www.w3.org/2000/svg" xmlns:xlink="http://www.w3.org/1999/xlink" viewBox="0 0 32 32" version="1.1">
<g>
<path d="M 9 3 L 9 11 L 11 11 L 11 10 L 15 10 L 15 11.636719 C 15.367188 11.867188 15.710938 12.140625 15.988281 12.464844 C 16.273438 12.125 16.617188 11.828125 17 11.589844 L 17 10 L 21 10 L 21 11 L 23 11 L 23 3 L 21 3 L 21 4 L 11 4 L 11 3 Z M 11 6 L 21 6 L 21 8 L 11 8 Z M 19 12 C 18.125 12 17.390625 12.421875 16.871094 12.96875 C 16.351563 13.515625 16 14.207031 16 15 L 16 15.027344 C 16 14.234375 15.648438 13.542969 15.128906 12.996094 C 14.609375 12.449219 13.875 12.027344 13 12.027344 C 12.121094 12.027344 11.367188 12.449219 10.851563 13.003906 C 10.335938 13.5625 10 14.269531 10 15.054688 C 10 16.5 10.726563 17.648438 11.667969 18.324219 C 12.097656 18.636719 12.566406 18.867188 13.046875 19.058594 C 12.882813 19.183594 12.722656 19.320313 12.582031 19.484375 C 12.230469 19.902344 12 20.480469 12 21.078125 C 12 22.109375 12.519531 22.980469 13.171875 23.484375 C 13.328125 23.609375 13.496094 23.714844 13.660156 23.8125 C 13.285156 24.230469 13 24.78125 13 25.414063 C 13 26.179688 13.425781 26.761719 13.886719 27.183594 L 14.308594 29 C 14.308594 29 15.125 28.804688 16.058594 28.433594 C 16.972656 28.796875 17.761719 28.996094 17.761719 28.996094 L 18.222656 27.113281 C 18.640625 26.691406 19 26.125 19 25.417969 C 19 24.777344 18.707031 24.226563 18.324219 23.8125 C 18.324219 23.8125 18.328125 23.808594 18.328125 23.808594 C 18.496094 23.714844 18.664063 23.605469 18.828125 23.480469 C 19.476563 22.980469 20 22.109375 20 21.078125 C 20 20.476563 19.773438 19.894531 19.421875 19.476563 C 19.28125 19.3125 19.125 19.175781 18.964844 19.050781 C 19.441406 18.855469 19.90625 18.617188 20.339844 18.304688 C 21.277344 17.621094 22 16.472656 22 15.027344 C 22 14.242188 21.664063 13.535156 21.148438 12.980469 C 20.632813 12.421875 19.878906 12 19 12 Z M 19 14 C 19.230469 14 19.476563 14.117188 19.683594 14.339844 C 19.890625 14.5625 20 14.871094 20 15.027344 C 20 15.894531 19.722656 16.277344 19.160156 16.6875 C 18.601563 17.097656 17.703125 17.414063 16.734375 17.683594 C 16.496094 17.746094 16.253906 17.8125 16.015625 17.875 C 15.761719 17.808594 15.507813 17.742188 15.261719 17.675781 C 14.289063 17.414063 13.394531 17.105469 12.832031 16.703125 C 12.273438 16.296875 12 15.921875 12 15.054688 C 12 14.898438 12.109375 14.589844 12.316406 14.367188 C 12.523438 14.144531 12.769531 14.027344 13 14.027344 C 13.203125 14.027344 13.464844 14.144531 13.675781 14.371094 C 13.890625 14.597656 14 14.90625 14 15.027344 L 14 16 L 18 16 L 18 15 C 18 14.878906 18.109375 14.570313 18.324219 14.34375 C 18.535156 14.117188 18.796875 14 19 14 Z M 16.019531 19.953125 C 16.535156 20.09375 16.996094 20.238281 17.328125 20.390625 C 17.621094 20.527344 17.808594 20.667969 17.890625 20.765625 C 17.976563 20.867188 18 20.90625 18 21.078125 C 18 21.554688 17.898438 21.675781 17.609375 21.890625 C 17.324219 22.109375 16.800781 22.320313 16.191406 22.519531 C 16.121094 22.542969 16.046875 22.566406 15.972656 22.589844 C 15.921875 22.574219 15.863281 22.554688 15.8125 22.535156 C 15.207031 22.335938 14.679688 22.125 14.390625 21.902344 C 14.105469 21.679688 14 21.554688 14 21.078125 C 14 20.917969 14.019531 20.882813 14.105469 20.78125 C 14.191406 20.683594 14.375 20.542969 14.671875 20.40625 C 15.011719 20.25 15.492188 20.101563 16.019531 19.953125 Z M 15.972656 24.703125 C 16.273438 24.8125 16.535156 24.914063 16.703125 25.015625 C 17 25.195313 17 25.171875 17 25.417969 C 17 25.460938 16.96875 25.578125 16.722656 25.796875 C 16.5625 25.9375 16.316406 26.089844 16.050781 26.234375 C 15.746094 26.074219 15.460938 25.90625 15.277344 25.75 C 15.019531 25.527344 15 25.410156 15 25.414063 C 15 25.15625 15.003906 25.175781 15.300781 24.996094 C 15.457031 24.902344 15.695313 24.804688 15.972656 24.703125 Z "></path>
</g>
</svg>
