<?xml version="1.0" encoding="UTF-8"?>
<svg xmlns="http://www.w3.org/2000/svg" xmlns:xlink="http://www.w3.org/1999/xlink" viewBox="0 0 32 32" version="1.1">
<g>
<path d="M 16 4 C 15.171875 4 14.5 4.671875 14.5 5.5 C 14.5 5.945313 14.691406 6.351563 15 6.625 L 15 9 C 15.789063 9 16 10 16 10 C 16 10 16.238281 9 17 9 L 17 6.625 C 17.308594 6.351563 17.5 5.945313 17.5 5.5 C 17.5 4.671875 16.828125 4 16 4 Z M 11.375 5 C 9.558594 5 8.410156 5.996094 7.46875 6.71875 C 6.527344 7.441406 5.75 8 4 8 L 3 8 L 3 9.375 L 3.15625 9.625 C 4.34375 11.542969 6.863281 13 11 13 L 11 11 C 8.4375 11 7.058594 10.359375 6.0625 9.59375 C 7.140625 9.253906 8.046875 8.773438 8.6875 8.28125 C 9.695313 7.503906 10.234375 7 11.375 7 C 11.546875 7 11.773438 7.078125 11.875 7.15625 C 11.976563 7.234375 12 7.246094 12 7.4375 C 12 7.523438 11.953125 7.621094 11.78125 8 C 11.609375 8.378906 11.441406 9.171875 11.78125 9.84375 L 13.5625 8.96875 C 13.5 8.847656 13.5 9.046875 13.59375 8.84375 C 13.6875 8.640625 14 8.140625 14 7.4375 C 14 6.660156 13.609375 5.964844 13.09375 5.5625 C 12.578125 5.160156 11.96875 5 11.375 5 Z M 20.625 5 C 20.03125 5 19.421875 5.160156 18.90625 5.5625 C 18.390625 5.964844 18 6.660156 18 7.4375 C 18 8.140625 18.3125 8.640625 18.40625 8.84375 C 18.5 9.046875 18.5 8.847656 18.4375 8.96875 L 20.21875 9.84375 C 20.558594 9.171875 20.390625 8.378906 20.21875 8 C 20.046875 7.621094 20 7.523438 20 7.4375 C 20 7.246094 20.054688 7.234375 20.15625 7.15625 C 20.257813 7.078125 20.453125 7 20.625 7 C 21.765625 7 22.304688 7.503906 23.3125 8.28125 C 23.953125 8.773438 24.859375 9.253906 25.9375 9.59375 C 24.941406 10.359375 23.5625 11 21 11 L 21 13 C 25.136719 13 27.65625 11.542969 28.84375 9.625 L 29 9.375 L 29 8 L 28 8 C 26.25 8 25.472656 7.441406 24.53125 6.71875 C 23.589844 5.996094 22.441406 5 20.625 5 Z M 14 9.96875 C 12.847656 9.96875 12 10.941406 12 12 C 12 13.371094 12.527344 14.445313 13.28125 15.125 C 13.359375 15.195313 13.449219 15.25 13.53125 15.3125 C 13.480469 15.34375 13.425781 15.371094 13.375 15.40625 C 12.617188 15.902344 12 16.867188 12 18.03125 C 12 19.152344 12.445313 20.09375 13.0625 20.71875 C 13.355469 21.015625 13.675781 21.265625 14 21.46875 C 13.4375 21.992188 12.96875 22.785156 12.96875 23.71875 C 12.96875 24.585938 13.386719 25.332031 13.875 25.875 C 13.90625 25.910156 13.9375 25.9375 13.96875 25.96875 C 13.9375 25.976563 13.8125 26 13.8125 26 L 14.28125 27.9375 C 14.28125 27.9375 15.074219 27.730469 16 27.3125 C 16.925781 27.730469 17.71875 27.9375 17.71875 27.9375 L 18.1875 26 C 18.1875 26 18.0625 25.976563 18.03125 25.96875 C 18.0625 25.9375 18.09375 25.910156 18.125 25.875 C 18.613281 25.332031 19.03125 24.585938 19.03125 23.71875 C 19.03125 22.785156 18.5625 21.992188 18 21.46875 C 18.324219 21.265625 18.644531 21.015625 18.9375 20.71875 C 19.554688 20.09375 20 19.152344 20 18.03125 C 20 16.867188 19.382813 15.902344 18.625 15.40625 C 18.574219 15.371094 18.519531 15.34375 18.46875 15.3125 C 18.550781 15.25 18.640625 15.195313 18.71875 15.125 C 19.476563 14.445313 20 13.371094 20 12 C 20 10.941406 19.152344 9.96875 18 9.96875 C 17.382813 9.96875 16.863281 10.289063 16.53125 10.65625 C 16.199219 11.023438 16 11.464844 16 12 C 16 11.464844 15.800781 11.023438 15.46875 10.65625 C 15.136719 10.289063 14.617188 9.96875 14 9.96875 Z M 14.1875 12.53125 L 17.8125 12.53125 C 17.714844 12.960938 17.65625 13.429688 17.40625 13.65625 C 17.09375 13.9375 16.582031 14.140625 16 14.34375 C 15.417969 14.140625 14.90625 13.9375 14.59375 13.65625 C 14.34375 13.429688 14.285156 12.960938 14.1875 12.53125 Z M 16 16.5 C 16.628906 16.707031 17.1875 16.890625 17.5 17.09375 C 17.867188 17.335938 18 17.433594 18 18.03125 C 18 18.675781 17.824219 18.984375 17.5 19.3125 C 17.175781 19.640625 16.640625 19.914063 16.03125 20.21875 C 16.019531 20.226563 16.011719 20.242188 16 20.25 C 15.988281 20.242188 15.980469 20.226563 15.96875 20.21875 C 15.359375 19.914063 14.824219 19.640625 14.5 19.3125 C 14.175781 18.984375 14 18.675781 14 18.03125 C 14 17.433594 14.132813 17.335938 14.5 17.09375 C 14.8125 16.890625 15.371094 16.707031 16 16.5 Z M 16 22.53125 C 16.230469 22.664063 16.445313 22.785156 16.59375 22.90625 C 16.914063 23.175781 17.03125 23.300781 17.03125 23.71875 C 17.03125 24.015625 16.914063 24.246094 16.65625 24.53125 C 16.488281 24.71875 16.261719 24.917969 16 25.09375 C 15.738281 24.917969 15.511719 24.71875 15.34375 24.53125 C 15.085938 24.246094 14.96875 24.015625 14.96875 23.71875 C 14.96875 23.300781 15.085938 23.175781 15.40625 22.90625 C 15.554688 22.785156 15.769531 22.664063 16 22.53125 Z "></path>
</g>
</svg>
