<?xml version="1.0" encoding="UTF-8"?>
<svg xmlns="http://www.w3.org/2000/svg" xmlns:xlink="http://www.w3.org/1999/xlink" viewBox="0 0 32 32" version="1.1">
<g>
<path d="M 9 4 L 9 5 L 5 5 L 5 27 L 27 27 L 27 5 L 23 5 L 23 4 L 21 4 L 21 5 L 11 5 L 11 4 Z M 7 7 L 9 7 L 9 8 L 11 8 L 11 7 L 21 7 L 21 8 L 23 8 L 23 7 L 25 7 L 25 9 L 7 9 Z M 7 11 L 25 11 L 25 25 L 7 25 Z M 11.84375 14 L 11.5625 14.4375 C 11.558594 14.441406 11.132813 15 10.5625 15 L 10.5625 17 C 11.128906 17 11.609375 16.835938 12 16.625 L 12 22 L 14 22 L 14 14 Z M 18.5 14 C 17.121094 14 16 15.121094 16 16.5 L 16 17 L 18 17 L 18 16.5 C 18 16.222656 18.226563 16 18.5 16 C 18.773438 16 19 16.222656 19 16.5 L 19 17.34375 C 19 17.484375 18.945313 17.625 18.84375 17.71875 L 16 20.3125 L 16 22 L 21 22 L 21 20 L 19.3125 20 L 20.1875 19.1875 C 20.703125 18.714844 21 18.042969 21 17.34375 L 21 16.5 C 21 15.121094 19.878906 14 18.5 14 Z "></path>
</g>
</svg>
