<?xml version="1.0" encoding="UTF-8"?>
<svg xmlns="http://www.w3.org/2000/svg" xmlns:xlink="http://www.w3.org/1999/xlink" viewBox="0 0 32 32" version="1.1">
<g>
<path d="M 9 4 L 9 5 L 5 5 L 5 27 L 27 27 L 27 5 L 23 5 L 23 4 L 21 4 L 21 5 L 11 5 L 11 4 Z M 7 7 L 9 7 L 9 8 L 11 8 L 11 7 L 21 7 L 21 8 L 23 8 L 23 7 L 25 7 L 25 9 L 7 9 Z M 7 11 L 25 11 L 25 25 L 7 25 Z M 12.84375 14 L 12.5625 14.4375 C 12.5625 14.4375 12.109375 15 11.5625 15 L 11.5625 17 C 12.191406 17 12.589844 16.710938 13 16.46875 L 13 22 L 15 22 L 15 14 Z M 17.875 14 L 17.5625 14.40625 C 17.5625 14.40625 17.078125 15 16.53125 15 L 16.53125 17 C 17.171875 17 17.582031 16.714844 18 16.46875 L 18 22 L 20 22 L 20 14 Z "></path>
</g>
</svg>
