<?xml version="1.0" encoding="UTF-8"?>
<svg xmlns="http://www.w3.org/2000/svg" xmlns:xlink="http://www.w3.org/1999/xlink" viewBox="0 0 32 32" version="1.1">
<g>
<path d="M 9 4 L 9 5 L 5 5 L 5 27 L 27 27 L 27 5 L 23 5 L 23 4 L 21 4 L 21 5 L 11 5 L 11 4 Z M 7 7 L 9 7 L 9 8 L 11 8 L 11 7 L 21 7 L 21 8 L 23 8 L 23 7 L 25 7 L 25 9 L 7 9 Z M 7 11 L 25 11 L 25 25 L 7 25 Z M 14 14 L 14 17.8125 L 14.78125 17.96875 L 16.90625 18.4375 C 16.945313 18.507813 17 18.574219 17 18.65625 L 17 19.5 C 17 19.785156 16.785156 20 16.5 20 C 16.214844 20 16 19.785156 16 19.5 L 16 19 L 14 19 L 14 19.5 C 14 20.867188 15.132813 22 16.5 22 C 17.867188 22 19 20.867188 19 19.5 L 19 18.65625 C 19 17.957031 18.703125 17.285156 18.1875 16.8125 L 18 16.625 L 17.71875 16.5625 L 16 16.1875 L 16 16 L 19 16 L 19 14 Z "></path>
</g>
</svg>
