<?xml version="1.0" encoding="UTF-8"?>
<svg xmlns="http://www.w3.org/2000/svg" xmlns:xlink="http://www.w3.org/1999/xlink" viewBox="0 0 32 32" version="1.1">
<g>
<path d="M 9 4 L 9 5 L 5 5 L 5 27 L 27 27 L 27 5 L 23 5 L 23 4 L 21 4 L 21 5 L 11 5 L 11 4 Z M 7 7 L 9 7 L 9 8 L 11 8 L 11 7 L 21 7 L 21 8 L 23 8 L 23 7 L 25 7 L 25 9 L 7 9 Z M 7 11 L 25 11 L 25 25 L 7 25 Z M 16.5 14 C 15.773438 14 15.09375 14.207031 14.625 14.6875 C 14.15625 15.167969 14 15.808594 14 16.375 L 16 16.375 C 16 16.132813 16.058594 16.101563 16.0625 16.09375 C 16.066406 16.085938 16.121094 16 16.5 16 C 16.9375 16 17 16.136719 17 16.5 C 17 16.785156 16.785156 17 16.5 17 L 16 17 L 16 19 L 16.5 19 C 16.785156 19 17 19.214844 17 19.5 C 17 19.863281 16.9375 20 16.5 20 C 16.121094 20 16.066406 19.914063 16.0625 19.90625 C 16.058594 19.898438 16 19.867188 16 19.625 L 14 19.625 C 14 20.191406 14.15625 20.832031 14.625 21.3125 C 15.09375 21.792969 15.773438 22 16.5 22 C 17.910156 22 19 20.792969 19 19.5 C 19 18.9375 18.789063 18.421875 18.46875 18 C 18.789063 17.578125 19 17.0625 19 16.5 C 19 15.207031 17.910156 14 16.5 14 Z "></path>
</g>
</svg>
