<?xml version="1.0" encoding="UTF-8"?>
<svg xmlns="http://www.w3.org/2000/svg" xmlns:xlink="http://www.w3.org/1999/xlink" viewBox="0 0 32 32" version="1.1">
<g>
<path d="M 9 4 L 9 5 L 5 5 L 5 27 L 27 27 L 27 5 L 23 5 L 23 4 L 21 4 L 21 5 L 11 5 L 11 4 Z M 7 7 L 9 7 L 9 8 L 11 8 L 11 7 L 21 7 L 21 8 L 23 8 L 23 7 L 25 7 L 25 9 L 7 9 Z M 7 11 L 25 11 L 25 25 L 7 25 Z M 12.5 14 C 11.773438 14 11.09375 14.207031 10.625 14.6875 C 10.15625 15.167969 10 15.808594 10 16.375 L 12 16.375 C 12 16.132813 12.058594 16.101563 12.0625 16.09375 C 12.066406 16.085938 12.121094 16 12.5 16 C 12.9375 16 13 16.136719 13 16.5 C 13 16.785156 12.785156 17 12.5 17 L 12 17 L 12 19 L 12.5 19 C 12.785156 19 13 19.214844 13 19.5 C 13 19.863281 12.9375 20 12.5 20 C 12.121094 20 12.066406 19.914063 12.0625 19.90625 C 12.058594 19.898438 12 19.867188 12 19.625 L 10 19.625 C 10 20.191406 10.15625 20.832031 10.625 21.3125 C 11.09375 21.792969 11.773438 22 12.5 22 C 13.910156 22 15 20.792969 15 19.5 C 15 18.9375 14.789063 18.421875 14.46875 18 C 14.789063 17.578125 15 17.0625 15 16.5 C 15 15.207031 13.910156 14 12.5 14 Z M 19.5 14 C 18.132813 14 17 15.132813 17 16.5 L 17 19.5 C 17 20.867188 18.132813 22 19.5 22 C 20.867188 22 22 20.867188 22 19.5 L 22 16.5 C 22 15.132813 20.867188 14 19.5 14 Z M 19.5 16 C 19.785156 16 20 16.214844 20 16.5 L 20 19.5 C 20 19.785156 19.785156 20 19.5 20 C 19.214844 20 19 19.785156 19 19.5 L 19 16.5 C 19 16.214844 19.214844 16 19.5 16 Z "></path>
</g>
</svg>
