<?xml version="1.0" encoding="UTF-8"?>
<svg xmlns="http://www.w3.org/2000/svg" xmlns:xlink="http://www.w3.org/1999/xlink" viewBox="0 0 32 32" version="1.1">
<g>
<path d="M 9 4 L 9 5 L 5 5 L 5 27 L 27 27 L 27 5 L 23 5 L 23 4 L 21 4 L 21 5 L 11 5 L 11 4 Z M 7 7 L 9 7 L 9 8 L 11 8 L 11 7 L 21 7 L 21 8 L 23 8 L 23 7 L 25 7 L 25 9 L 7 9 Z M 7 11 L 25 11 L 25 25 L 7 25 Z M 13.5 14 C 12.132813 14 11 15.132813 11 16.5 L 11 17 L 13 17 L 13 16.5 C 13 16.214844 13.214844 16 13.5 16 C 13.785156 16 14 16.214844 14 16.5 L 14 17.34375 C 14 17.484375 13.945313 17.625 13.84375 17.71875 L 11.3125 20 L 11 20.3125 L 11 22 L 16 22 L 16 20 L 14.3125 20 L 15.1875 19.1875 C 15.703125 18.714844 16 18.042969 16 17.34375 L 16 16.5 C 16 15.132813 14.867188 14 13.5 14 Z M 18.84375 14 L 18.5625 14.4375 C 18.5625 14.4375 18.109375 15 17.5625 15 L 17.5625 17 C 18.191406 17 18.589844 16.710938 19 16.46875 L 19 22 L 21 22 L 21 14 Z "></path>
</g>
</svg>
