<?xml version="1.0" encoding="UTF-8"?>
<svg xmlns="http://www.w3.org/2000/svg" xmlns:xlink="http://www.w3.org/1999/xlink" viewBox="0 0 32 32" version="1.1">
<g>
<path d="M 9 4 L 9 5 L 5 5 L 5 27 L 27 27 L 27 5 L 23 5 L 23 4 L 21 4 L 21 5 L 11 5 L 11 4 Z M 7 7 L 9 7 L 9 8 L 11 8 L 11 7 L 21 7 L 21 8 L 23 8 L 23 7 L 25 7 L 25 9 L 7 9 Z M 7 11 L 25 11 L 25 25 L 7 25 Z M 16.5 14 C 15.132813 14 14 15.132813 14 16.5 L 14 17 L 16 17 L 16 16.5 C 16 16.214844 16.214844 16 16.5 16 C 16.785156 16 17 16.214844 17 16.5 L 17 17.34375 C 17 17.484375 16.945313 17.625 16.84375 17.71875 L 14.3125 20 L 14 20.3125 L 14 22 L 19 22 L 19 20 L 17.3125 20 L 18.1875 19.1875 C 18.703125 18.714844 19 18.042969 19 17.34375 L 19 16.5 C 19 15.132813 17.867188 14 16.5 14 Z "></path>
</g>
</svg>
