<?xml version="1.0" encoding="UTF-8"?>
<svg xmlns="http://www.w3.org/2000/svg" xmlns:xlink="http://www.w3.org/1999/xlink" viewBox="0 0 32 32" version="1.1">
<g>
<path d="M 9 4 L 9 5 L 5 5 L 5 27 L 27 27 L 27 5 L 23 5 L 23 4 L 21 4 L 21 5 L 11 5 L 11 4 Z M 7 7 L 9 7 L 9 8 L 11 8 L 11 7 L 21 7 L 21 8 L 23 8 L 23 7 L 25 7 L 25 9 L 7 9 Z M 7 11 L 25 11 L 25 25 L 7 25 Z M 11.84375 14 L 11.5625 14.4375 C 11.5625 14.4375 11.109375 15 10.5625 15 L 10.5625 17 C 11.191406 17 11.589844 16.710938 12 16.46875 L 12 22 L 14 22 L 14 14 Z M 16 14 L 16 17.8125 L 16.78125 17.96875 L 18.90625 18.4375 C 18.945313 18.507813 19 18.574219 19 18.65625 L 19 19.5 C 19 19.785156 18.785156 20 18.5 20 C 18.214844 20 18 19.785156 18 19.5 L 18 19 L 16 19 L 16 19.5 C 16 20.867188 17.132813 22 18.5 22 C 19.867188 22 21 20.867188 21 19.5 L 21 18.65625 C 21 17.957031 20.703125 17.285156 20.1875 16.8125 L 20 16.625 L 19.71875 16.5625 L 18 16.1875 L 18 16 L 21 16 L 21 14 Z "></path>
</g>
</svg>
