<?xml version="1.0" encoding="UTF-8"?>
<svg xmlns="http://www.w3.org/2000/svg" xmlns:xlink="http://www.w3.org/1999/xlink" viewBox="0 0 32 32" version="1.1">
<g>
<path d="M 9 4 L 9 5 L 5 5 L 5 27 L 27 27 L 27 5 L 23 5 L 23 4 L 21 4 L 21 5 L 11 5 L 11 4 Z M 7 7 L 9 7 L 9 8 L 11 8 L 11 7 L 21 7 L 21 8 L 23 8 L 23 7 L 25 7 L 25 9 L 7 9 Z M 7 11 L 25 11 L 25 25 L 7 25 Z M 13.5 14 C 12.773438 14 12.09375 14.207031 11.625 14.6875 C 11.15625 15.167969 11 15.808594 11 16.375 L 13 16.375 C 13 16.132813 13.058594 16.101563 13.0625 16.09375 C 13.066406 16.085938 13.121094 16 13.5 16 C 13.9375 16 14 16.136719 14 16.5 C 14 16.785156 13.785156 17 13.5 17 L 13 17 L 13 19 L 13.5 19 C 13.785156 19 14 19.214844 14 19.5 C 14 19.863281 13.9375 20 13.5 20 C 13.121094 20 13.066406 19.914063 13.0625 19.90625 C 13.058594 19.898438 13 19.867188 13 19.625 L 11 19.625 C 11 20.191406 11.15625 20.832031 11.625 21.3125 C 12.09375 21.792969 12.773438 22 13.5 22 C 14.910156 22 16 20.792969 16 19.5 C 16 18.9375 15.789063 18.421875 15.46875 18 C 15.789063 17.578125 16 17.0625 16 16.5 C 16 15.207031 14.910156 14 13.5 14 Z M 18.84375 14 L 18.5625 14.4375 C 18.5625 14.4375 18.109375 15 17.5625 15 L 17.5625 17 C 18.191406 17 18.589844 16.710938 19 16.46875 L 19 22 L 21 22 L 21 14 Z "></path>
</g>
</svg>
