<?xml version="1.0" encoding="UTF-8"?>
<svg xmlns="http://www.w3.org/2000/svg" xmlns:xlink="http://www.w3.org/1999/xlink" viewBox="0 0 32 32" version="1.1">
<g>
<path d="M 9 4 L 9 5 L 5 5 L 5 27 L 27 27 L 27 5 L 23 5 L 23 4 L 21 4 L 21 5 L 11 5 L 11 4 Z M 7 7 L 9 7 L 9 8 L 11 8 L 11 7 L 21 7 L 21 8 L 23 8 L 23 7 L 25 7 L 25 9 L 7 9 Z M 7 11 L 25 11 L 25 25 L 7 25 Z M 12.5 14 C 11.132813 14 10 15.132813 10 16.5 L 10 17 L 12 17 L 12 16.5 C 12 16.214844 12.214844 16 12.5 16 C 12.785156 16 13 16.214844 13 16.5 L 13 17.34375 C 13 17.484375 12.945313 17.625 12.84375 17.71875 L 10.3125 20 L 10 20.3125 L 10 22 L 15 22 L 15 20 L 13.3125 20 L 14.1875 19.1875 C 14.703125 18.714844 15 18.042969 15 17.34375 L 15 16.5 C 15 15.132813 13.867188 14 12.5 14 Z M 19.5 14 C 18.132813 14 17 15.132813 17 16.5 C 17 17.0625 17.210938 17.578125 17.53125 18 C 17.210938 18.421875 17 18.9375 17 19.5 C 17 20.867188 18.132813 22 19.5 22 C 20.867188 22 22 20.867188 22 19.5 C 22 18.9375 21.789063 18.421875 21.46875 18 C 21.789063 17.578125 22 17.0625 22 16.5 C 22 15.132813 20.867188 14 19.5 14 Z M 19.5 16 C 19.785156 16 20 16.214844 20 16.5 C 20 16.785156 19.785156 17 19.5 17 C 19.214844 17 19 16.785156 19 16.5 C 19 16.214844 19.214844 16 19.5 16 Z M 19.5 19 C 19.785156 19 20 19.214844 20 19.5 C 20 19.785156 19.785156 20 19.5 20 C 19.214844 20 19 19.785156 19 19.5 C 19 19.214844 19.214844 19 19.5 19 Z "></path>
</g>
</svg>
