<?xml version="1.0" encoding="UTF-8"?>
<svg xmlns="http://www.w3.org/2000/svg" xmlns:xlink="http://www.w3.org/1999/xlink" viewBox="0 0 32 32" version="1.1">
<g>
<path d="M 9 4 L 9 5 L 5 5 L 5 27 L 27 27 L 27 5 L 23 5 L 23 4 L 21 4 L 21 5 L 11 5 L 11 4 Z M 7 7 L 9 7 L 9 8 L 11 8 L 11 7 L 21 7 L 21 8 L 23 8 L 23 7 L 25 7 L 25 9 L 7 9 Z M 7 11 L 25 11 L 25 25 L 7 25 Z M 11.84375 14 L 11.5625 14.4375 C 11.5625 14.4375 11.109375 15 10.5625 15 L 10.5625 17 C 11.191406 17 11.589844 16.710938 12 16.46875 L 12 22 L 14 22 L 14 14 Z M 18.5 14 C 17.773438 14 17.09375 14.207031 16.625 14.6875 C 16.15625 15.167969 16 15.808594 16 16.375 L 18 16.375 C 18 16.132813 18.058594 16.101563 18.0625 16.09375 C 18.066406 16.085938 18.121094 16 18.5 16 C 18.9375 16 19 16.136719 19 16.5 C 19 16.785156 18.785156 17 18.5 17 L 18 17 L 18 19 L 18.5 19 C 18.785156 19 19 19.214844 19 19.5 C 19 19.863281 18.9375 20 18.5 20 C 18.121094 20 18.066406 19.914063 18.0625 19.90625 C 18.058594 19.898438 18 19.867188 18 19.625 L 16 19.625 C 16 20.191406 16.15625 20.832031 16.625 21.3125 C 17.09375 21.792969 17.773438 22 18.5 22 C 19.910156 22 21 20.792969 21 19.5 C 21 18.945313 20.8125 18.417969 20.5 18 C 20.816406 17.585938 21 17.058594 21 16.5 C 21 15.207031 19.910156 14 18.5 14 Z "></path>
</g>
</svg>
