<?xml version="1.0" encoding="UTF-8"?>
<svg xmlns="http://www.w3.org/2000/svg" xmlns:xlink="http://www.w3.org/1999/xlink" viewBox="0 0 32 32" version="1.1">
<g>
<path d="M 9 4 L 9 5 L 5 5 L 5 27 L 27 27 L 27 5 L 23 5 L 23 4 L 21 4 L 21 5 L 11 5 L 11 4 Z M 7 7 L 9 7 L 9 8 L 11 8 L 11 7 L 21 7 L 21 8 L 23 8 L 23 7 L 25 7 L 25 9 L 7 9 Z M 7 11 L 25 11 L 25 25 L 7 25 Z M 11.875 14 L 11.59375 14.40625 C 11.59375 14.40625 11.046875 15 10.5 15 L 10.5 17 C 11.15625 17 11.574219 16.722656 12 16.46875 L 12 22 L 14 22 L 14 14 Z M 18.5 14 C 17.132813 14 16 15.132813 16 16.5 L 16 19.5 C 16 20.867188 17.132813 22 18.5 22 C 19.867188 22 21 20.867188 21 19.5 L 21 16.5 C 21 15.132813 19.867188 14 18.5 14 Z M 18.5 16 C 18.785156 16 19 16.214844 19 16.5 L 19 19.5 C 19 19.785156 18.785156 20 18.5 20 C 18.214844 20 18 19.785156 18 19.5 L 18 16.5 C 18 16.214844 18.214844 16 18.5 16 Z "></path>
</g>
</svg>
