<?xml version="1.0" encoding="UTF-8"?>
<svg xmlns="http://www.w3.org/2000/svg" xmlns:xlink="http://www.w3.org/1999/xlink" viewBox="0 0 32 32" version="1.1">
<g>
<path d="M 20.28125 3.28125 L 16.28125 7.28125 L 15.59375 8 L 16.28125 8.71875 L 20.28125 12.71875 L 21.71875 11.28125 L 19.4375 9 L 23 9 C 24.65625 9 26 10.34375 26 12 C 26 13.65625 24.65625 15 23 15 L 22 15 L 22 17 L 23 17 C 25.746094 17 28 14.746094 28 12 C 28 9.253906 25.746094 7 23 7 L 19.4375 7 L 21.71875 4.71875 Z M 7.8125 7.03125 C 7.296875 7.03125 6.78125 7.21875 6.40625 7.59375 L 3.78125 10.1875 C 3 10.96875 2.726563 12.125 3.03125 13.1875 L 3.0625 13.21875 L 3.0625 13.25 C 3.789063 15.226563 5.53125 19.261719 9.09375 22.71875 C 12.605469 26.125 16.472656 27.964844 18.5 28.71875 C 18.515625 28.722656 18.546875 28.746094 18.5625 28.75 L 18.5625 28.71875 C 19.621094 29.140625 20.835938 28.851563 21.59375 28 C 21.613281 27.976563 21.636719 27.960938 21.65625 27.9375 L 24.21875 25.40625 C 24.972656 24.652344 24.972656 23.347656 24.21875 22.59375 L 21.03125 19.3125 L 21 19.3125 L 21 19.28125 C 20.246094 18.527344 18.941406 18.527344 18.1875 19.28125 L 18.15625 19.34375 L 16.625 20.875 C 15.984375 20.554688 14.675781 19.863281 13.40625 18.59375 C 12.136719 17.324219 11.445313 16.015625 11.125 15.375 L 12.71875 13.8125 C 13.472656 13.058594 13.472656 11.753906 12.71875 11 L 12.6875 11 L 12.6875 10.96875 L 9.21875 7.59375 C 9.210938 7.585938 9.195313 7.601563 9.1875 7.59375 C 8.8125 7.230469 8.316406 7.03125 7.8125 7.03125 Z M 7.8125 9.03125 L 11.28125 12.40625 L 8.71875 14.96875 L 8.96875 15.59375 C 8.96875 15.59375 10.03125 18.03125 12 20 C 13.96875 21.96875 16.40625 23.03125 16.40625 23.03125 L 17.03125 23.28125 L 19.59375 20.71875 L 22.78125 24 L 20.125 26.65625 C 19.890625 26.9375 19.578125 27.003906 19.28125 26.875 L 19.25 26.875 C 17.464844 26.21875 13.761719 24.449219 10.5 21.28125 C 7.289063 18.164063 5.652344 14.464844 4.96875 12.625 C 4.871094 12.289063 5 11.8125 5.21875 11.59375 Z "></path>
</g>
</svg>
