<?xml version="1.0" encoding="UTF-8"?>
<svg xmlns="http://www.w3.org/2000/svg" xmlns:xlink="http://www.w3.org/1999/xlink" viewBox="0 0 32 32" version="1.1">
<g>
<path d="M 6 5 C 4.355469 5 2.796875 6.042969 2.25 7.6875 C 1.625 9.5625 1 12.191406 1 16 C 1 19.808594 1.625 22.4375 2.25 24.3125 C 2.796875 25.957031 4.355469 27 6 27 L 9 27 C 9.523438 27 10.058594 26.816406 10.4375 26.4375 C 10.816406 26.058594 11 25.523438 11 25 L 11 21 C 11 20.476563 10.816406 19.941406 10.4375 19.5625 C 10.058594 19.183594 9.523438 19 9 19 L 7 19 C 6.796875 18.46875 6.5 17.550781 6.5 16 C 6.5 14.449219 6.796875 13.53125 7 13 L 9 13 C 9.523438 13 10.058594 12.816406 10.4375 12.4375 C 10.816406 12.058594 11 11.523438 11 11 L 11 7 C 11 6.476563 10.816406 5.941406 10.4375 5.5625 C 10.058594 5.183594 9.523438 5 9 5 Z M 26 5 C 24.304688 5 22.824219 6.085938 22.28125 7.65625 C 22.277344 7.671875 22.253906 7.671875 22.25 7.6875 C 21.617188 9.492188 21 12.207031 21 16 C 21 19.808594 21.625 22.4375 22.25 24.3125 C 22.796875 25.957031 24.355469 27 26 27 L 29 27 C 29.523438 27 30.058594 26.816406 30.4375 26.4375 C 30.816406 26.058594 31 25.523438 31 25 L 31 21 C 31 20.476563 30.816406 19.941406 30.4375 19.5625 C 30.058594 19.183594 29.523438 19 29 19 L 27 19 C 26.796875 18.46875 26.5 17.550781 26.5 16 C 26.5 14.449219 26.796875 13.53125 27 13 L 29 13 C 29.523438 13 30.058594 12.816406 30.4375 12.4375 C 30.816406 12.058594 31 11.523438 31 11 L 31 7 C 31 6.476563 30.816406 5.941406 30.4375 5.5625 C 30.058594 5.183594 29.523438 5 29 5 Z M 6 7 L 9 7 L 9 11 L 5.6875 11 L 5.40625 11.5625 C 5.40625 11.5625 4.5 13.378906 4.5 16 C 4.5 18.621094 5.40625 20.4375 5.40625 20.4375 L 5.6875 21 L 9 21 L 9 25 L 6 25 C 5.246094 25 4.410156 24.445313 4.15625 23.6875 C 3.582031 21.960938 3 19.59375 3 16 C 3 12.40625 3.582031 10.039063 4.15625 8.3125 C 4.410156 7.554688 5.246094 7 6 7 Z M 26 7 L 29 7 L 29 11 L 25.6875 11 L 25.40625 11.5625 C 25.40625 11.5625 24.5 13.378906 24.5 16 C 24.5 18.621094 25.40625 20.4375 25.40625 20.4375 L 25.6875 21 L 29 21 L 29 25 L 26 25 C 25.246094 25 24.410156 24.445313 24.15625 23.6875 C 23.582031 21.960938 23 19.59375 23 16 C 23 12.40625 23.59375 9.9375 24.15625 8.34375 L 24.15625 8.3125 C 24.425781 7.507813 25.109375 7 26 7 Z M 15.5 11.28125 L 14.09375 12.71875 L 16.375 15 L 10 15 L 10 17 L 16.375 17 L 14.09375 19.28125 L 15.5 20.71875 L 20.21875 16 Z "></path>
</g>
</svg>
