<?xml version="1.0" encoding="UTF-8"?>
<svg xmlns="http://www.w3.org/2000/svg" xmlns:xlink="http://www.w3.org/1999/xlink" viewBox="0 0 32 32" version="1.1">
<g>
<path d="M 20 4 C 19.476563 4 18.941406 4.183594 18.5625 4.5625 C 18.183594 4.941406 18 5.476563 18 6 L 18 9 L 16 9 L 16 11 L 26 11 C 26.523438 11 27.058594 10.816406 27.4375 10.4375 C 27.816406 10.058594 28 9.523438 28 9 L 28 6 C 28 5.476563 27.816406 4.941406 27.4375 4.5625 C 27.058594 4.183594 26.523438 4 26 4 Z M 10 6 C 7.800781 6 6 7.800781 6 10 C 6 10.355469 6.066406 10.703125 6.15625 11.03125 C 4.9375 11.199219 4 12.234375 4 13.5 L 4 28 L 9 28 L 9 26 L 23 26 L 23 28 L 28 28 L 28 18 C 28 16.355469 26.644531 15 25 15 L 13.625 15 L 12.625 12.96875 C 13.453125 12.234375 14 11.183594 14 10 C 14 7.800781 12.199219 6 10 6 Z M 20 6 L 21 6 L 21 9 L 20 9 Z M 23 6 L 26 6 L 26 9 L 23 9 Z M 10 8 C 11.117188 8 12 8.882813 12 10 C 12 11.117188 11.117188 12 10 12 C 8.882813 12 8 11.117188 8 10 C 8 8.882813 8.882813 8 10 8 Z M 6.5 13 C 6.714844 13 7 13.285156 7 13.5 L 7 22 L 26 22 L 26 26 L 25 26 L 25 24 L 7 24 L 7 26 L 6 26 L 6 13.5 C 6 13.285156 6.285156 13 6.5 13 Z M 9 13.84375 C 9.320313 13.925781 9.65625 14 10 14 C 10.273438 14 10.554688 13.960938 10.8125 13.90625 L 12 16.25 L 12 20 L 9 20 Z M 14 17 L 25 17 C 25.554688 17 26 17.445313 26 18 L 26 20 L 14 20 Z "></path>
</g>
</svg>
