<?xml version="1.0" encoding="UTF-8"?>
<svg xmlns="http://www.w3.org/2000/svg" xmlns:xlink="http://www.w3.org/1999/xlink" viewBox="0 0 32 32" version="1.1">
<g>
<path d="M 11 4 C 7.15625 4 4 7.15625 4 11 L 4 28 L 18 28 L 18 20 L 19 20 L 19 21 L 28 21 L 28 13 L 19 13 L 19 14 L 18 14 L 18 11 C 18 7.15625 14.84375 4 11 4 Z M 11 6 C 13.753906 6 16 8.246094 16 11 L 16 26 L 6 26 L 6 11 C 6 8.246094 8.246094 6 11 6 Z M 11 7 C 8.800781 7 7 8.800781 7 11 C 7 13.199219 8.800781 15 11 15 C 13.199219 15 15 13.199219 15 11 C 15 8.800781 13.199219 7 11 7 Z M 11 9 C 12.117188 9 13 9.882813 13 11 C 13 12.117188 12.117188 13 11 13 C 9.882813 13 9 12.117188 9 11 C 9 9.882813 9.882813 9 11 9 Z M 21 15 L 26 15 L 26 19 L 21 19 Z M 18 16 L 19 16 L 19 18 L 18 18 Z M 13 22 C 12.449219 22 12 22.449219 12 23 C 12 23.550781 12.449219 24 13 24 C 13.550781 24 14 23.550781 14 23 C 14 22.449219 13.550781 22 13 22 Z "></path>
</g>
</svg>
