<?xml version="1.0" encoding="UTF-8"?>
<svg xmlns="http://www.w3.org/2000/svg" xmlns:xlink="http://www.w3.org/1999/xlink" viewBox="0 0 32 32" version="1.1">
<g>
<path d="M 11.5 6 L 10 8 L 3 8 L 3 26 L 20 26 C 19.699219 25.398438 19.601563 24.699219 19.5 24 L 5 24 L 5 10 L 11 10 L 12.5 8 L 19.5 8 L 21 10 L 27 10 L 27 16.5 C 27.699219 16.5 28.398438 16.707031 29 16.90625 L 29 8 L 22 8 L 20.5 6 Z M 8 11 C 7.449219 11 7 11.449219 7 12 C 7 12.550781 7.449219 13 8 13 C 8.550781 13 9 12.550781 9 12 C 9 11.449219 8.550781 11 8 11 Z M 16 11 C 12.699219 11 10 13.699219 10 17 C 10 20.300781 12.699219 23 16 23 C 19.300781 23 22 20.300781 22 17 C 22 13.699219 19.300781 11 16 11 Z M 16 13 C 18.222656 13 20 14.777344 20 17 C 20 19.222656 18.222656 21 16 21 C 13.777344 21 12 19.222656 12 17 C 12 14.777344 13.777344 13 16 13 Z M 26.5 18 C 23.472656 18 21 20.472656 21 23.5 C 21 24.660156 21.351563 25.734375 21.96875 26.625 L 18.28125 30.28125 L 19.71875 31.71875 L 23.375 28.03125 C 24.265625 28.648438 25.339844 29 26.5 29 C 29.527344 29 32 26.527344 32 23.5 C 32 20.472656 29.527344 18 26.5 18 Z M 26.5 20 C 28.445313 20 30 21.554688 30 23.5 C 30 25.445313 28.445313 27 26.5 27 C 24.554688 27 23 25.445313 23 23.5 C 23 21.554688 24.554688 20 26.5 20 Z "></path>
</g>
</svg>
