<?xml version="1.0" encoding="UTF-8"?>
<svg xmlns="http://www.w3.org/2000/svg" xmlns:xlink="http://www.w3.org/1999/xlink" viewBox="0 0 32 32" version="1.1">
<g>
<path d="M 12.5 5 L 12.1875 5.40625 L 11 7 L 5 7 L 5 12 C 2.789063 12 1 13.789063 1 16 C 1 18.210938 2.789063 20 5 20 L 5 25 L 13 25 C 13 27.210938 14.789063 29 17 29 C 19.210938 29 21 27.210938 21 25 L 29 25 L 29 7 L 23 7 L 21.8125 5.40625 L 21.5 5 Z M 13.5 7 L 20.5 7 L 21.6875 8.59375 L 22 9 L 27 9 L 27 23 L 19 23 L 19 25 C 19 26.191406 18.191406 27 17 27 C 15.808594 27 15 26.191406 15 25 L 15 23 L 7 23 L 7 18 L 5 18 C 3.808594 18 3 17.191406 3 16 C 3 14.808594 3.808594 14 5 14 L 7 14 L 7 9 L 12 9 L 12.3125 8.59375 Z M 9 10 C 8.449219 10 8 10.449219 8 11 C 8 11.550781 8.449219 12 9 12 C 9.550781 12 10 11.550781 10 11 C 10 10.449219 9.550781 10 9 10 Z M 17 11 C 14.25 11 12 13.25 12 16 C 12 18.75 14.25 21 17 21 C 19.75 21 22 18.75 22 16 C 22 13.25 19.75 11 17 11 Z M 17 13 C 18.667969 13 20 14.332031 20 16 C 20 17.667969 18.667969 19 17 19 C 15.332031 19 14 17.667969 14 16 C 14 14.332031 15.332031 13 17 13 Z "></path>
</g>
</svg>
