<?xml version="1.0" encoding="UTF-8"?>
<svg xmlns="http://www.w3.org/2000/svg" xmlns:xlink="http://www.w3.org/1999/xlink" viewBox="0 0 32 32" version="1.1">
<g>
<path d="M 12.5 5 L 12.1875 5.40625 L 11 7 L 5 7 L 5 12 C 2.789063 12 1 13.789063 1 16 C 1 18.210938 2.789063 20 5 20 L 5 25 L 13 25 C 13 27.210938 14.789063 29 17 29 C 19.210938 29 21 27.210938 21 25 L 29 25 L 29 7 L 23 7 L 21.8125 5.40625 L 21.5 5 Z M 13.5 7 L 20.5 7 L 21.6875 8.59375 L 22 9 L 27 9 L 27 23 L 19 23 L 19 25 C 19 26.191406 18.191406 27 17 27 C 15.808594 27 15 26.191406 15 25 L 15 23 L 7 23 L 7 18 L 5 18 C 3.808594 18 3 17.191406 3 16 C 3 14.808594 3.808594 14 5 14 L 7 14 L 7 9 L 12 9 L 12.3125 8.59375 Z M 9 10 C 8.449219 10 8 10.449219 8 11 C 8 11.550781 8.449219 12 9 12 C 9.550781 12 10 11.550781 10 11 C 10 10.449219 9.550781 10 9 10 Z M 12 11 L 12 21 L 14 21 L 14 11 Z M 16 11 L 16 21 L 20 21 C 22.210938 21 24 19.210938 24 17 L 24 15 C 24 12.789063 22.210938 11 20 11 Z M 18 13 L 20 13 C 21.191406 13 22 13.808594 22 15 L 22 17 C 22 18.191406 21.191406 19 20 19 L 18 19 Z "></path>
</g>
</svg>
