<?xml version="1.0" encoding="UTF-8"?>
<svg xmlns="http://www.w3.org/2000/svg" xmlns:xlink="http://www.w3.org/1999/xlink" viewBox="0 0 32 32" version="1.1">
<g>
<path d="M 2 8 L 2 24 L 24 24 L 24 20.625 L 30 23.625 L 30 8.375 L 24 11.375 L 24 8 Z M 4 10 L 22 10 L 22 22 L 4 22 Z M 12 11 L 10.1875 11.8125 L 10.65625 12.8125 C 10.34375 13.046875 10.050781 13.316406 9.8125 13.625 L 8.8125 13.1875 L 8 15 L 9.03125 15.46875 C 9.003906 15.644531 9 15.816406 9 16 C 9 16.179688 9.039063 16.359375 9.0625 16.53125 L 8 17 L 8.8125 18.8125 L 9.8125 18.34375 C 10.050781 18.664063 10.335938 18.949219 10.65625 19.1875 L 10.1875 20.1875 L 12 21 L 12.46875 19.9375 C 12.640625 19.960938 12.820313 20 13 20 C 13.179688 20 13.359375 19.960938 13.53125 19.9375 L 14 21 L 15.8125 20.1875 L 15.34375 19.1875 C 15.65625 18.953125 15.949219 18.683594 16.1875 18.375 L 17.1875 18.8125 L 18 17 L 16.96875 16.53125 C 16.996094 16.355469 17 16.183594 17 16 C 17 15.820313 16.960938 15.640625 16.9375 15.46875 L 18 15 L 17.1875 13.1875 L 16.1875 13.65625 C 15.949219 13.335938 15.664063 13.050781 15.34375 12.8125 L 15.8125 11.8125 L 14 11 L 13.53125 12.0625 C 13.359375 12.039063 13.179688 12 13 12 C 12.820313 12 12.640625 12.039063 12.46875 12.0625 Z M 28 11.625 L 28 20.375 L 24 18.375 L 24 13.625 Z M 13 14 C 14.117188 14 15 14.882813 15 16 C 15 17.117188 14.117188 18 13 18 C 11.882813 18 11 17.117188 11 16 C 11 14.882813 11.882813 14 13 14 Z "></path>
</g>
</svg>
