<?xml version="1.0" encoding="UTF-8"?>
<svg xmlns="http://www.w3.org/2000/svg" xmlns:xlink="http://www.w3.org/1999/xlink" viewBox="0 0 32 32" version="1.1">
<g>
<path d="M 16 4 C 10.484375 4 6 8.484375 6 14 L 6 17.59375 L 6.03125 17.59375 C 6.011719 17.726563 6 17.863281 6 18 C 6 19.320313 6.84375 20.445313 8.03125 20.84375 C 8.304688 23.441406 9.84375 25.652344 12 26.90625 L 12 27 C 12.046875 27 12.078125 27 12.125 27 C 13.273438 27.636719 14.59375 28 16 28 C 20.125 28 23.546875 24.859375 23.96875 20.84375 C 25.15625 20.445313 26 19.320313 26 18 C 26 17.863281 25.988281 17.726563 25.96875 17.59375 L 26 17.59375 L 26 14 C 26 8.484375 21.515625 4 16 4 Z M 16 6 C 20.410156 6 24 9.589844 24 14 L 24 15.1875 C 23.96875 15.175781 23.9375 15.136719 23.90625 15.125 C 23.511719 13.332031 21.910156 12 20 12 C 19.449219 12 19 11.550781 19 11 L 19 10 L 17 10 L 17 11 C 17 11.550781 16.550781 12 16 12 L 12 12 C 10.089844 12 8.488281 13.332031 8.09375 15.125 C 8.0625 15.136719 8.03125 15.175781 8 15.1875 L 8 14 C 8 9.589844 11.589844 6 16 6 Z M 18 13.21875 C 18.53125 13.695313 19.230469 14 20 14 C 19.996094 14.105469 19.964844 15.476563 19.59375 17.21875 C 19.425781 17.09375 19.222656 17 19 17 C 18.449219 17 18 17.449219 18 18 C 18 18.550781 18.449219 19 19 19 C 19.039063 19 19.085938 18.972656 19.125 18.96875 C 18.214844 21.726563 16.378906 24.664063 12.65625 24.96875 C 12.199219 24.65625 11.761719 24.296875 11.40625 23.875 C 12.691406 23.621094 13.808594 23 14.6875 22.03125 C 16.902344 19.601563 17.070313 15.597656 17.03125 13.8125 C 17.386719 13.679688 17.722656 13.46875 18 13.21875 Z M 12 14 L 15.03125 14 C 15.050781 15.816406 14.753906 18.96875 13.1875 20.6875 C 12.453125 21.492188 11.523438 21.898438 10.34375 21.96875 C 10.128906 21.351563 10 20.691406 10 20 L 10 19 L 9 19 C 8.449219 19 8 18.550781 8 18 C 8 17.449219 8.449219 17 9 17 L 10 17 L 10 16 C 10 14.898438 10.898438 14 12 14 Z M 21.90625 15.4375 C 21.957031 15.613281 22 15.808594 22 16 L 22 17 L 23 17 C 23.550781 17 24 17.449219 24 18 C 24 18.550781 23.550781 19 23 19 L 22 19 L 22 20 C 22 23.257813 19.394531 25.917969 16.15625 26 C 20.039063 23.921875 21.558594 19.015625 21.90625 15.4375 Z M 13 17 C 12.449219 17 12 17.449219 12 18 C 12 18.550781 12.449219 19 13 19 C 13.550781 19 14 18.550781 14 18 C 14 17.449219 13.550781 17 13 17 Z "></path>
</g>
</svg>
