<?xml version="1.0" encoding="UTF-8"?>
<svg xmlns="http://www.w3.org/2000/svg" xmlns:xlink="http://www.w3.org/1999/xlink" viewBox="0 0 32 32" version="1.1">
<g>
<path d="M 8 5 C 6.355469 5 5 6.355469 5 8 C 5 9.644531 6.355469 11 8 11 L 10.59375 11 C 11.527344 11 12.316406 11.648438 12.5 12.5625 L 13.03125 15.1875 C 13.035156 15.261719 13.050781 15.332031 13.0625 15.40625 L 8.5 18.15625 L 8 18.4375 L 8 25 L 7 25 L 7 27 L 25 27 L 25 25 L 24 25 L 24 18.4375 L 23.5 18.15625 L 18.9375 15.40625 C 18.949219 15.332031 18.964844 15.261719 18.96875 15.1875 L 19 15.0625 C 19 15.042969 19 15.019531 19 15 L 19.5 12.5625 C 19.683594 11.648438 20.472656 11 21.40625 11 L 24 11 C 25.644531 11 27 9.644531 27 8 C 27 6.355469 25.644531 5 24 5 L 20 5 L 20 7 L 24 7 C 24.554688 7 25 7.445313 25 8 C 25 8.554688 24.554688 9 24 9 L 21.40625 9 C 19.53125 9 17.898438 10.347656 17.53125 12.1875 L 17.5 12.40625 C 17.34375 12.316406 17.175781 12.21875 17 12.15625 L 17 9 L 19 9 L 19 7 L 13 7 L 13 9 L 15 9 L 15 12.15625 C 14.824219 12.21875 14.65625 12.316406 14.5 12.40625 L 14.46875 12.1875 L 14.46875 12.15625 C 14.101563 10.316406 12.46875 9 10.59375 9 L 8 9 C 7.445313 9 7 8.554688 7 8 C 7 7.445313 7.445313 7 8 7 L 12 7 L 12 5 Z M 16 14 C 16.5625 14 17 14.4375 17 15 C 17 15.5625 16.5625 16 16 16 C 15.4375 16 15 15.5625 15 15 C 15 14.4375 15.4375 14 16 14 Z M 13.96875 17.15625 C 14.503906 17.675781 15.203125 18 16 18 C 16.796875 18 17.496094 17.675781 18.03125 17.15625 L 22 19.53125 L 22 25 L 10 25 L 10 19.53125 Z "></path>
</g>
</svg>
