<?xml version="1.0" encoding="UTF-8"?>
<svg xmlns="http://www.w3.org/2000/svg" xmlns:xlink="http://www.w3.org/1999/xlink" viewBox="0 0 32 32" version="1.1">
<g>
<path d="M 23.65625 5.6875 L 22.65625 6.0625 C 22.65625 6.0625 20.109375 7 17 7 C 13.886719 7 10.25 6.03125 10.25 6.03125 L 9.375 5.78125 L 9.0625 6.65625 C 9.0625 6.65625 8.15625 9.039063 6.84375 11.96875 C 5.53125 14.898438 3.789063 18.367188 2.21875 20.375 L 1.25 21.59375 L 6.75 22.96875 L 7.53125 23.15625 L 7.875 22.46875 L 9.375 19.53125 L 11.0625 24.34375 L 11.21875 24.78125 L 17.6875 26.9375 L 18 27.0625 L 29.34375 22.9375 L 30.46875 22.53125 L 29.875 21.5 C 26.539063 15.621094 23.96875 6.71875 23.96875 6.71875 Z M 22.34375 8.21875 C 22.722656 9.515625 24.679688 15.863281 27.625 21.4375 L 18.375 24.78125 C 16.738281 22.371094 14.890625 18.089844 13.5 14.3125 C 12.542969 11.71875 11.898438 9.753906 11.46875 8.375 C 12.730469 8.652344 14.738281 9 17 9 C 19.5625 9 21.339844 8.523438 22.34375 8.21875 Z M 9.875 9.96875 C 10.324219 11.339844 10.917969 13.078125 11.625 15 C 12.765625 18.09375 14.167969 21.496094 15.65625 24.15625 L 12.78125 23.21875 L 10.5 16.65625 L 9.75 14.46875 L 8.6875 16.53125 L 6.46875 20.84375 L 4.5625 20.375 C 6.074219 18.136719 7.546875 15.324219 8.6875 12.78125 C 9.214844 11.601563 9.574219 10.710938 9.875 9.96875 Z "></path>
</g>
</svg>
