<?xml version="1.0" encoding="UTF-8"?>
<svg xmlns="http://www.w3.org/2000/svg" xmlns:xlink="http://www.w3.org/1999/xlink" viewBox="0 0 32 32" version="1.1">
<g>
<path d="M 15.90625 4 C 8.308594 4 3.96875 8.5 3.96875 8.5 L 5.40625 9.875 C 5.40625 9.875 9.082031 6 15.90625 6 C 18.035156 6 19.878906 6.582031 21.375 7.3125 C 19.425781 7.996094 18 9.824219 18 12 C 18 14.75 20.25 17 23 17 C 25.75 17 28 14.75 28 12 C 28 10.757813 27.539063 9.628906 26.78125 8.75 C 26.78125 8.75 26.691406 8.695313 26.6875 8.6875 C 26.472656 8.449219 26.257813 8.195313 26 8 C 24.488281 6.664063 20.851563 4 15.90625 4 Z M 23 9 C 23.601563 9 24.160156 9.171875 24.625 9.46875 C 25.066406 9.851563 25.3125 10.09375 25.3125 10.09375 C 25.738281 10.613281 26 11.269531 26 12 C 26 13.667969 24.667969 15 23 15 C 21.332031 15 20 13.667969 20 12 C 20 10.332031 21.332031 9 23 9 Z M 9 15 C 6.25 15 4 17.25 4 20 C 4 21.242188 4.460938 22.371094 5.21875 23.25 C 5.21875 23.25 5.308594 23.304688 5.3125 23.3125 C 5.464844 23.480469 5.609375 23.667969 5.78125 23.8125 C 5.882813 23.90625 5.867188 23.882813 6 24 C 6.070313 24.054688 6.144531 24.105469 6.21875 24.15625 C 7.828125 25.535156 11.335938 28 16.09375 28 C 23.691406 28 28.03125 23.5 28.03125 23.5 L 26.59375 22.125 C 26.59375 22.125 22.917969 26 16.09375 26 C 13.964844 26 12.121094 25.417969 10.625 24.6875 C 12.574219 24.003906 14 22.175781 14 20 C 14 17.25 11.75 15 9 15 Z M 9 17 C 10.667969 17 12 18.332031 12 20 C 12 21.667969 10.667969 23 9 23 C 8.410156 23 7.867188 22.820313 7.40625 22.53125 C 7.398438 22.527344 7.382813 22.535156 7.375 22.53125 C 7.34375 22.503906 7.34375 22.527344 7.3125 22.5 C 6.929688 22.160156 6.6875 21.90625 6.6875 21.90625 C 6.261719 21.386719 6 20.730469 6 20 C 6 18.332031 7.332031 17 9 17 Z "></path>
</g>
</svg>
