<?xml version="1.0" encoding="UTF-8"?>
<svg xmlns="http://www.w3.org/2000/svg" xmlns:xlink="http://www.w3.org/1999/xlink" viewBox="0 0 32 32" version="1.1">
<g>
<path d="M 6 3 L 6 29 L 17.78125 29 C 19.25 30.828125 21.480469 32 24 32 C 28.40625 32 32 28.40625 32 24 C 32 20.289063 29.4375 17.179688 26 16.28125 L 26 9.59375 L 25.71875 9.28125 L 19.71875 3.28125 L 19.40625 3 Z M 8 5 L 18 5 L 18 11 L 24 11 L 24 16 C 19.59375 16 16 19.59375 16 24 C 16 25.066406 16.210938 26.070313 16.59375 27 L 8 27 Z M 20 6.4375 L 22.5625 9 L 20 9 Z M 24 18 C 25.296875 18 26.488281 18.433594 27.46875 19.125 L 19.125 27.46875 C 18.433594 26.488281 18 25.296875 18 24 C 18 20.675781 20.675781 18 24 18 Z M 28.875 20.53125 C 29.566406 21.511719 30 22.703125 30 24 C 30 27.324219 27.324219 30 24 30 C 22.703125 30 21.511719 29.566406 20.53125 28.875 Z "></path>
</g>
</svg>
