<?xml version="1.0" encoding="UTF-8"?>
<svg xmlns="http://www.w3.org/2000/svg" xmlns:xlink="http://www.w3.org/1999/xlink" viewBox="0 0 32 32" version="1.1">
<g>
<path d="M 8 9 L 7.6875 9.28125 L 1.6875 15.28125 L 1 16 L 1.6875 16.71875 L 7.6875 22.71875 L 8 23 L 31 23 L 31 9 Z M 8.84375 11 L 29 11 L 29 21 L 8.84375 21 L 3.84375 16 Z M 10 14 C 8.894531 14 8 14.894531 8 16 C 8 17.105469 8.894531 18 10 18 C 11.105469 18 12 17.105469 12 16 C 12 14.894531 11.105469 14 10 14 Z M 15 14 C 13.894531 14 13 14.894531 13 16 C 13 17.105469 13.894531 18 15 18 C 16.105469 18 17 17.105469 17 16 C 17 14.894531 16.105469 14 15 14 Z M 20 14 C 18.894531 14 18 14.894531 18 16 C 18 17.105469 18.894531 18 20 18 C 21.105469 18 22 17.105469 22 16 C 22 14.894531 21.105469 14 20 14 Z M 25 14 C 23.894531 14 23 14.894531 23 16 C 23 17.105469 23.894531 18 25 18 C 26.105469 18 27 17.105469 27 16 C 27 14.894531 26.105469 14 25 14 Z "></path>
</g>
</svg>
