<?xml version="1.0" encoding="UTF-8"?>
<svg xmlns="http://www.w3.org/2000/svg" xmlns:xlink="http://www.w3.org/1999/xlink" viewBox="0 0 32 32" version="1.1">
<g>
<path d="M 24 4 L 24 6 L 22 6 L 22 13 L 24 13 L 24 15 L 26 15 L 26 13 L 28 13 L 28 6 L 26 6 L 26 4 Z M 11 6 L 11 8 L 9 8 L 9 15 L 11 15 L 11 17 L 13 17 L 13 15 L 15 15 L 15 8 L 13 8 L 13 6 Z M 24 8 L 26 8 L 26 11 L 24 11 Z M 11 10 L 13 10 L 13 13 L 11 13 Z M 18 15 L 18 17 L 16 17 L 16 24 L 18 24 L 18 26 L 20 26 L 20 24 L 22 24 L 22 17 L 20 17 L 20 15 Z M 6 17 L 6 19 L 4 19 L 4 26 L 6 26 L 6 28 L 8 28 L 8 26 L 10 26 L 10 19 L 8 19 L 8 17 Z M 18 19 L 20 19 L 20 22 L 18 22 Z M 6 21 L 8 21 L 8 24 L 6 24 Z "></path>
</g>
</svg>
