<?xml version="1.0" encoding="UTF-8"?>
<svg xmlns="http://www.w3.org/2000/svg" xmlns:xlink="http://www.w3.org/1999/xlink" viewBox="0 0 32 32" version="1.1">
<g>
<path d="M 15.875 4 L 15.5625 4.25 C 15.5625 4.25 10 9.265625 10 16.65625 C 10 19.445313 10.890625 21.296875 11.84375 22.40625 C 12.242188 22.867188 12.644531 23.195313 13 23.4375 L 13 26 L 15 28 L 17 28 L 19 26 L 19 23.40625 C 19.347656 23.144531 19.746094 22.78125 20.15625 22.28125 C 21.089844 21.144531 22 19.289063 22 16.65625 C 22 13.832031 20.851563 11.976563 19.84375 10.375 C 18.835938 8.773438 17.96875 7.429688 17.96875 5 L 17.96875 4 Z M 16.25 6.59375 C 16.59375 8.582031 17.328125 10.203125 18.125 11.46875 C 19.136719 13.078125 20 14.355469 20 16.65625 C 20 18.84375 19.300781 20.175781 18.625 21 C 18.011719 21.75 17.5625 21.953125 17.46875 22 L 14.46875 22 C 14.398438 21.972656 13.984375 21.832031 13.375 21.125 C 12.71875 20.359375 12 19.03125 12 16.65625 C 12 11.167969 15.238281 7.636719 16.25 6.59375 Z "></path>
</g>
</svg>
