<?xml version="1.0" encoding="UTF-8"?>
<svg xmlns="http://www.w3.org/2000/svg" xmlns:xlink="http://www.w3.org/1999/xlink" viewBox="0 0 32 32" version="1.1">
<g>
<path d="M 25.6875 5.46875 L 23.875 6.3125 L 24.3125 7.21875 L 24.4375 7.46875 L 9.9375 12.25 C 9.898438 11.792969 9.863281 11.300781 9.75 10.78125 C 9.570313 9.941406 9.273438 9.058594 8.6875 8.3125 C 8.101563 7.566406 7.148438 7 6 7 L 6 9 C 6.5625 9 6.828125 9.183594 7.125 9.5625 C 7.421875 9.941406 7.671875 10.558594 7.8125 11.21875 C 7.941406 11.820313 7.984375 12.414063 8 12.90625 L 4.59375 14.03125 L 4.3125 14.125 L 4.125 14.375 C 4.125 14.375 2.332031 16.867188 3.1875 20.03125 C 2.503906 20.171875 2 20.773438 2 21.5 C 2 22.328125 2.671875 23 3.5 23 C 3.882813 23 4.234375 22.859375 4.5 22.625 C 6.40625 24.992188 9.125 25.03125 9.125 25.03125 L 9.40625 25.03125 L 9.625 24.875 L 9.71875 24.8125 C 10.734375 26.695313 12.71875 28 15 28 C 18.300781 28 21 25.300781 21 22 C 21 20.691406 20.5625 19.488281 19.84375 18.5 L 27.4375 13.78125 L 27.5625 14.0625 L 28 14.96875 L 29.78125 14.09375 L 29.375 13.1875 L 26.125 6.375 Z M 25.28125 9.3125 L 26.5625 11.96875 L 18.375 17.0625 C 17.410156 16.398438 16.253906 16 15 16 C 11.699219 16 9 18.699219 9 22 C 9 22.292969 9.023438 22.59375 9.0625 22.875 L 8.875 23 C 8.585938 23.007813 6.703125 23.003906 5.4375 20.40625 C 4.195313 17.855469 5.417969 16.101563 5.625 15.8125 Z M 15 18 C 17.222656 18 19 19.777344 19 22 C 19 24.222656 17.222656 26 15 26 C 12.777344 26 11 24.222656 11 22 C 11 19.777344 12.777344 18 15 18 Z M 15 21 C 14.449219 21 14 21.449219 14 22 C 14 22.550781 14.449219 23 15 23 C 15.550781 23 16 22.550781 16 22 C 16 21.449219 15.550781 21 15 21 Z "></path>
</g>
</svg>
