<?xml version="1.0" encoding="UTF-8"?>
<svg xmlns="http://www.w3.org/2000/svg" xmlns:xlink="http://www.w3.org/1999/xlink" viewBox="0 0 32 32" version="1.1">
<g>
<path d="M 9 7 L 9 11 L 0 11 L 0 13 L 9 13 L 9 19 L 0 19 L 0 21 L 9 21 L 9 25 L 15 25 L 15 24 C 15 23.445313 15.445313 23 16 23 C 16.554688 23 17 23.445313 17 24 L 17 25 L 28 25 C 30.210938 25 32 23.210938 32 21 L 32 11 C 32 8.789063 30.210938 7 28 7 L 17 7 L 17 8 C 17 8.554688 16.554688 9 16 9 C 15.445313 9 15 8.554688 15 8 L 15 7 Z M 11 9 L 13 9 L 13 23 L 11 23 Z M 19 9 L 28 9 C 29.191406 9 30 9.808594 30 11 L 30 21 C 30 22.191406 29.191406 23 28 23 L 19 23 Z M 15 10.78125 C 15.304688 10.917969 15.632813 11 16 11 C 16.367188 11 16.695313 10.917969 17 10.78125 L 17 21.21875 C 16.695313 21.082031 16.367188 21 16 21 C 15.632813 21 15.304688 21.082031 15 21.21875 Z "></path>
</g>
</svg>
