<?xml version="1.0" encoding="UTF-8"?>
<svg xmlns="http://www.w3.org/2000/svg" xmlns:xlink="http://www.w3.org/1999/xlink" viewBox="0 0 32 32" version="1.1">
<g>
<path d="M 6.1875 4 L 5 5.625 C 5 5.625 7 7 7 10.5 L 7 22 L 9 22 L 9 10.5 C 9 10.328125 8.976563 10.167969 8.96875 10 L 9 10 C 9 9.632813 9.507813 8.382813 10.1875 7.4375 C 10.527344 6.964844 10.886719 6.550781 11.1875 6.28125 C 11.289063 6.1875 11.386719 6.136719 11.46875 6.09375 C 11.550781 6.140625 11.644531 6.210938 11.75 6.3125 C 12.058594 6.613281 12.429688 7.0625 12.78125 7.5625 C 13.132813 8.0625 13.464844 8.625 13.6875 9.09375 C 13.910156 9.5625 14 9.976563 14 10 L 14 17.21875 C 14 19.480469 15.417969 21.632813 17.71875 22.53125 C 17.109375 24.507813 15.242188 26 13.0625 26 L 11 26 L 11 28 L 13.0625 28 C 16.191406 28 18.855469 25.84375 19.65625 22.9375 C 19.789063 22.945313 19.894531 23 20.03125 23 L 22.25 23 C 24.683594 23 27 21.167969 27 18.46875 C 27 17.203125 26.605469 16.035156 25.78125 15.21875 C 24.957031 14.402344 23.761719 14 22.40625 14 C 20.992188 14 19.808594 14.570313 19.0625 15.46875 C 18.316406 16.367188 18 17.523438 18 18.6875 L 18 20.5 C 16.699219 19.832031 16 18.5625 16 17.21875 L 16 10 C 16 9.347656 15.785156 8.816406 15.5 8.21875 C 15.214844 7.621094 14.84375 7.019531 14.4375 6.4375 C 14.03125 5.855469 13.597656 5.304688 13.15625 4.875 C 12.714844 4.445313 12.371094 4 11.5 4 C 10.691406 4 10.289063 4.410156 9.84375 4.8125 C 9.398438 5.214844 8.972656 5.714844 8.5625 6.28125 C 8.445313 6.445313 8.332031 6.613281 8.21875 6.78125 C 7.386719 4.933594 6.1875 4 6.1875 4 Z M 22.40625 16 C 23.382813 16 23.988281 16.273438 24.375 16.65625 C 24.761719 17.039063 25 17.59375 25 18.46875 C 25 20.042969 23.726563 21 22.25 21 L 20.03125 21 C 20.019531 21 20.011719 21 20 21 L 20 18.6875 C 20 17.894531 20.214844 17.207031 20.59375 16.75 C 20.972656 16.292969 21.488281 16 22.40625 16 Z "></path>
</g>
</svg>
