<?xml version="1.0" encoding="UTF-8"?>
<svg xmlns="http://www.w3.org/2000/svg" xmlns:xlink="http://www.w3.org/1999/xlink" viewBox="0 0 32 32" version="1.1">
<g>
<path d="M 3.71875 2.28125 L 2.28125 3.71875 L 9.34375 10.75 L 20.59375 22 L 28.28125 29.71875 L 29.71875 28.28125 L 21 19.5625 L 21 15 L 26.90625 15 L 16 4.09375 L 10.75 9.3125 Z M 16 6.9375 L 22.0625 13 L 19 13 L 19 17.5625 L 12.1875 10.75 Z M 7.9375 12.1875 L 5.09375 15 L 10.75 15 Z M 11 15.25 L 11 22 L 17.75 22 L 15.75 20 L 13 20 L 13 17.25 Z M 11 23 L 11 28 L 21 28 L 21 25.25 L 18.75 23 Z M 13 25 L 19 25 L 19 26 L 13 26 Z "></path>
</g>
</svg>
