<?xml version="1.0" encoding="UTF-8"?>
<svg xmlns="http://www.w3.org/2000/svg" xmlns:xlink="http://www.w3.org/1999/xlink" viewBox="0 0 32 32" version="1.1">
<g>
<path d="M 3 6 L 3 26 L 29 26 L 29 6 Z M 5 8 L 27 8 L 27 24 L 5 24 Z M 14.5 12 C 13.128906 12 12 13.128906 12 14.5 L 12 16.5 C 12 17.871094 13.128906 19 14.5 19 C 15.871094 19 17 17.871094 17 16.5 L 15 16.5 C 15 16.78125 14.78125 17 14.5 17 C 14.21875 17 14 16.78125 14 16.5 L 14 14.5 C 14 14.21875 14.21875 14 14.5 14 C 14.78125 14 15 14.21875 15 14.5 L 17 14.5 C 17 13.128906 15.871094 12 14.5 12 Z M 21.5 12 C 20.132813 12 19 13.132813 19 14.5 C 19 14.816406 19.046875 15.125 19.15625 15.40625 C 18.460938 15.851563 18 16.621094 18 17.5 C 18 18.867188 19.132813 20 20.5 20 C 21.867188 20 23 18.867188 23 17.5 C 23 17.183594 22.953125 16.875 22.84375 16.59375 C 23.539063 16.148438 24 15.378906 24 14.5 C 24 13.132813 22.867188 12 21.5 12 Z M 8.90625 12.59375 L 7.09375 13.40625 L 7.9375 15.40625 L 9.78125 14.59375 Z M 21.5 14 C 21.789063 14 22 14.210938 22 14.5 C 22 14.789063 21.789063 15 21.5 15 C 21.210938 15 21 14.789063 21 14.5 C 21 14.210938 21.210938 14 21.5 14 Z M 10.21875 15.59375 L 8.375 16.40625 L 10.09375 20.40625 L 11.90625 19.59375 Z M 20.5 17 C 20.789063 17 21 17.210938 21 17.5 C 21 17.789063 20.789063 18 20.5 18 C 20.210938 18 20 17.789063 20 17.5 C 20 17.210938 20.210938 17 20.5 17 Z "></path>
</g>
</svg>
