<?xml version="1.0" encoding="UTF-8"?>
<svg xmlns="http://www.w3.org/2000/svg" xmlns:xlink="http://www.w3.org/1999/xlink" viewBox="0 0 32 32" version="1.1">
<g>
<path d="M 22 5 C 20.355469 5 19 6.355469 19 8 C 19 9.644531 20.355469 11 22 11 C 23.644531 11 25 9.644531 25 8 C 25 6.355469 23.644531 5 22 5 Z M 4 6 L 4 8 L 10.5 8 C 10.945313 8 11.339844 8.292969 11.46875 8.71875 L 12.75 13 L 4 13 L 4 15 L 13.34375 15 L 14 17.1875 L 14 23 L 4 23 L 4 25 L 11.65625 25 L 12 26 L 15 26 C 15.550781 26 16 25.550781 16 25 L 16 24.15625 C 16.003906 24.105469 16.003906 24.050781 16 24 L 16 17 C 16.003906 16.90625 15.992188 16.808594 15.96875 16.71875 L 15.34375 14.59375 L 17.3125 13.9375 L 16.6875 12.0625 L 14.75 12.71875 L 13.375 8.125 C 12.996094 6.859375 11.820313 6 10.5 6 Z M 22 7 C 22.5625 7 23 7.4375 23 8 C 23 8.5625 22.5625 9 22 9 C 21.4375 9 21 8.5625 21 8 C 21 7.4375 21.4375 7 22 7 Z M 24.4375 11 C 23.902344 11.039063 23.398438 11.296875 23.03125 11.71875 L 21.9375 13 L 18 13 L 18 15 L 21.9375 15 C 22.515625 15 23.058594 14.75 23.4375 14.3125 L 24.5625 13.03125 L 24.6875 13.0625 L 25.96875 16.53125 C 26.054688 16.761719 25.96875 16.996094 25.78125 17.15625 L 23.84375 18.8125 C 23.246094 19.320313 23.003906 20.152344 23.21875 20.90625 L 24.6875 26 L 26.75 26 L 25.125 20.34375 L 27.09375 18.6875 C 27.917969 17.988281 28.214844 16.824219 27.84375 15.8125 L 26.5625 12.375 C 26.304688 11.675781 25.730469 11.167969 25 11.03125 C 24.816406 10.996094 24.617188 10.988281 24.4375 11 Z M 11.5 16 C 10.671875 16 10 16.671875 10 17.5 C 10 18.328125 10.671875 19 11.5 19 C 12.328125 19 13 18.328125 13 17.5 C 13 16.671875 12.328125 16 11.5 16 Z M 4 19 L 4 21 L 6.65625 21 L 7.09375 22 L 9.25 22 L 8 19 Z M 22.5 22.0625 L 21.625 26 L 23.625 26 Z "></path>
</g>
</svg>
