<?xml version="1.0" encoding="UTF-8"?>
<svg xmlns="http://www.w3.org/2000/svg" xmlns:xlink="http://www.w3.org/1999/xlink" viewBox="0 0 32 32" version="1.1">
<g>
<path d="M 12.5 3 C 10.578125 3 9 4.578125 9 6.5 C 9 8.421875 10.578125 10 12.5 10 C 13.875 10 15.054688 9.164063 15.625 8 L 21 8 L 22 7 L 22 6 L 21 5 L 19 5 L 18 6 L 17 5 L 15.625 5 C 15.054688 3.835938 13.875 3 12.5 3 Z M 12.5 5 C 12.675781 5 12.84375 5.039063 13 5.09375 L 13 7.90625 C 12.84375 7.960938 12.675781 8 12.5 8 C 11.660156 8 11 7.339844 11 6.5 C 11 5.660156 11.660156 5 12.5 5 Z M 12 13 C 10.46875 13 9.0625 13.878906 8.375 15.25 C 8.351563 15.28125 8.332031 15.3125 8.3125 15.34375 L 7.125 18.65625 L 5.3125 18.0625 L 4.6875 19.9375 L 6.46875 20.53125 L 6.0625 21.65625 C 6.023438 21.765625 6 21.882813 6 22 L 6 27 C 6 27.03125 6 27.0625 6 27.09375 L 6 28 C 6 28.550781 6.449219 29 7 29 L 10 29 L 10.34375 28 L 21.65625 28 L 22 29 L 25 29 C 25.550781 29 26 28.550781 26 28 L 26 27.15625 C 26.003906 27.105469 26.003906 27.050781 26 27 L 26 22 C 26 21.882813 25.976563 21.765625 25.9375 21.65625 L 25.53125 20.53125 L 27.3125 19.9375 L 26.6875 18.0625 L 24.875 18.65625 L 23.6875 15.34375 C 23.667969 15.3125 23.648438 15.28125 23.625 15.25 C 22.9375 13.878906 21.53125 13 20 13 Z M 12 15 L 20 15 C 20.738281 15 21.417969 15.394531 21.78125 16.03125 C 21.785156 16.039063 21.777344 16.054688 21.78125 16.0625 L 22.84375 19 L 9.15625 19 L 10.21875 16.0625 L 10.21875 16.03125 C 10.582031 15.394531 11.261719 15 12 15 Z M 8.40625 21 L 23.59375 21 L 24 22.15625 L 24 26 L 19 26 L 18 24 L 14 24 L 13 26 L 8 26 L 8 22.15625 Z M 10.5 22 C 9.671875 22 9 22.671875 9 23.5 C 9 24.328125 9.671875 25 10.5 25 C 11.328125 25 12 24.328125 12 23.5 C 12 22.671875 11.328125 22 10.5 22 Z M 21.5 22 C 20.671875 22 20 22.671875 20 23.5 C 20 24.328125 20.671875 25 21.5 25 C 22.328125 25 23 24.328125 23 23.5 C 23 22.671875 22.328125 22 21.5 22 Z "></path>
</g>
</svg>
