<?xml version="1.0" encoding="UTF-8"?>
<svg xmlns="http://www.w3.org/2000/svg" xmlns:xlink="http://www.w3.org/1999/xlink" viewBox="0 0 32 32" version="1.1">
<g>
<path d="M 18 7 L 18 9 L 7 9 C 5.355469 9 4 10.355469 4 12 L 4 22 C 4 23.644531 5.355469 25 7 25 L 18 25 L 18 27 L 20 27 L 20 25 L 24 25 C 26.195313 25 28 23.195313 28 21 L 28 13 C 28 10.804688 26.195313 9 24 9 L 20 9 L 20 7 Z M 7 11 L 24 11 C 25.105469 11 26 11.894531 26 13 L 26 21 C 26 22.105469 25.105469 23 24 23 L 7 23 C 6.445313 23 6 22.554688 6 22 L 6 12 C 6 11.445313 6.445313 11 7 11 Z M 12 12 L 12 14 L 16 14 L 16 12 Z M 18.707031 12.292969 L 17.292969 13.707031 C 17.292969 13.707031 17.375 13.753906 17.574219 14.242188 C 17.773438 14.730469 18 15.574219 18 16.917969 C 18 18.351563 17.769531 19.242188 17.570313 19.75 C 17.371094 20.253906 17.292969 20.292969 17.292969 20.292969 L 18.707031 21.707031 C 18.707031 21.707031 19.128906 21.242188 19.429688 20.480469 C 19.730469 19.71875 20 18.566406 20 16.917969 C 20 15.34375 19.726563 14.230469 19.425781 13.488281 C 19.125 12.746094 18.707031 12.292969 18.707031 12.292969 Z M 8 14 L 8 20 L 10 20 L 10 14 Z M 12 20 L 12 22 L 16 22 L 16 20 Z "></path>
</g>
</svg>
