<?xml version="1.0" encoding="UTF-8"?>
<svg xmlns="http://www.w3.org/2000/svg" xmlns:xlink="http://www.w3.org/1999/xlink" viewBox="0 0 32 32" version="1.1">
<g>
<path d="M 10.488281 4 C 9.167969 4 7.992188 4.871094 7.613281 6.140625 L 6.390625 9.742188 L 4.316406 9.050781 L 3.683594 10.949219 L 5.746094 11.636719 L 5.054688 13.675781 C 5.019531 13.78125 5 13.890625 5 14 L 5 21 C 5 21.550781 5.449219 22 6 22 L 9 22 L 9.335938 21 L 22.667969 21 L 23 22 L 26 22 C 26.550781 22 27 21.550781 27 21 L 27 14 C 27 13.890625 26.980469 13.78125 26.949219 13.675781 L 26.253906 11.636719 L 28.316406 10.949219 L 27.683594 9.050781 L 25.609375 9.742188 L 24.386719 6.136719 L 24.386719 6.132813 C 24.007813 4.871094 22.832031 4 21.511719 4 Z M 10.488281 6 L 21.511719 6 C 21.957031 6 22.34375 6.285156 22.46875 6.710938 C 22.472656 6.722656 22.476563 6.734375 22.480469 6.746094 L 23.585938 10 L 8.414063 10 L 9.519531 6.75 C 9.523438 6.738281 9.527344 6.726563 9.53125 6.710938 C 9.65625 6.285156 10.042969 6 10.488281 6 Z M 7.734375 12 L 24.265625 12 L 25 14.167969 L 25 19 L 7 19 L 7 14.167969 Z M 9.5 13 C 8.671875 13 8 13.671875 8 14.5 C 8 15.328125 8.671875 16 9.5 16 C 10.328125 16 11 15.328125 11 14.5 C 11 13.671875 10.328125 13 9.5 13 Z M 22.5 13 C 21.671875 13 21 13.671875 21 14.5 C 21 15.328125 21.671875 16 22.5 16 C 23.328125 16 24 15.328125 24 14.5 C 24 13.671875 23.328125 13 22.5 13 Z M 13 16 L 12 18 L 20 18 L 19 16 Z M 4 23 L 4 25 L 28 25 L 28 23 Z M 6 26 L 6 28 L 26 28 L 26 26 Z "></path>
</g>
</svg>
