<?xml version="1.0" encoding="UTF-8"?>
<svg xmlns="http://www.w3.org/2000/svg" xmlns:xlink="http://www.w3.org/1999/xlink" viewBox="0 0 32 32" version="1.1">
<g>
<path d="M 24 3 C 23.269531 3 22.585938 3.152344 21.972656 3.375 L 20.492188 3.90625 L 24 7.414063 L 24 9 L 22.414063 9 L 18.90625 5.492188 L 18.375 6.972656 C 18.152344 7.585938 18 8.269531 18 9 C 18 11.167969 19.269531 12.9375 21 13.988281 L 21 26 C 21 27.644531 22.355469 29 24 29 C 25.644531 29 27 27.644531 27 26 L 27 13.988281 C 28.730469 12.9375 30 11.167969 30 9 C 30 5.699219 27.300781 3 24 3 Z M 24.515625 5.101563 C 26.480469 5.367188 28 6.964844 28 9 C 28 10.648438 27.011719 12.042969 25.597656 12.660156 L 25 12.921875 L 25 26 C 25 26.554688 24.554688 27 24 27 C 23.445313 27 23 26.554688 23 26 L 23 12.921875 L 22.402344 12.660156 C 21.179688 12.128906 20.402344 10.953125 20.179688 9.59375 L 21.585938 11 L 26 11 L 26 6.585938 Z M 14.496094 8 C 12.890625 8 11.464844 8.910156 10.667969 10.234375 L 9.289063 12.53125 L 4.070313 13.832031 C 2.859375 14.136719 2 15.238281 2 16.484375 L 2 20.132813 C 2 21.152344 2.847656 22 3.867188 22 L 5.050781 22 C 5.296875 23.683594 6.75 25 8.5 25 C 10.238281 25 11.683594 23.703125 11.945313 22.035156 L 20.003906 22 L 19.996094 20 L 11.667969 20.039063 C 11.109375 18.84375 9.898438 18 8.5 18 C 7.117188 18 5.921875 18.824219 5.355469 20 L 4 20 L 4 16.484375 C 4 16.144531 4.222656 15.855469 4.554688 15.773438 L 10.578125 14.269531 L 12.378906 11.265625 C 12.835938 10.503906 13.664063 10 14.496094 10 L 17 10 L 17 8 Z M 8.5 20 C 9.339844 20 10 20.660156 10 21.5 C 10 22.339844 9.339844 23 8.5 23 C 7.660156 23 7 22.339844 7 21.5 C 7 20.660156 7.660156 20 8.5 20 Z "></path>
</g>
</svg>
