<?xml version="1.0" encoding="UTF-8"?>
<svg xmlns="http://www.w3.org/2000/svg" xmlns:xlink="http://www.w3.org/1999/xlink" viewBox="0 0 32 32" version="1.1">
<g>
<path d="M 1 5 L 1 27 L 31 27 L 31 5 Z M 3 7 L 29 7 L 29 25 L 3 25 Z M 10 10 L 6 12.28125 L 6 14.59375 L 10 12.3125 L 14 14.59375 L 14 12.28125 Z M 17 11 L 17 13 L 26 13 L 26 11 Z M 17 14 L 17 16 L 24 16 L 24 14 Z M 7.59375 15 L 6 18.375 L 6 21.46875 C 6 21.765625 6.230469 22 6.53125 22 L 7.46875 22 C 7.769531 22 8 21.769531 8 21.46875 L 8 21 L 12 21 L 12 21.46875 C 12 21.769531 12.230469 22 12.53125 22 L 13.46875 22 C 13.769531 22 14 21.769531 14 21.46875 L 14 18.375 L 12.40625 15 Z M 17 17 L 17 19 L 26 19 L 26 17 Z M 7.5 18.75 C 7.914063 18.75 8.25 19.085938 8.25 19.5 C 8.25 19.914063 7.914063 20.25 7.5 20.25 C 7.085938 20.25 6.75 19.914063 6.75 19.5 C 6.75 19.085938 7.085938 18.75 7.5 18.75 Z M 12.5 18.75 C 12.910156 18.75 13.25 19.085938 13.25 19.5 C 13.25 19.910156 12.910156 20.25 12.5 20.25 C 12.089844 20.25 11.75 19.910156 11.75 19.5 C 11.75 19.085938 12.089844 18.75 12.5 18.75 Z M 17 20 L 17 22 L 24 22 L 24 20 Z "></path>
</g>
</svg>
