<?xml version="1.0" encoding="UTF-8"?>
<svg xmlns="http://www.w3.org/2000/svg" xmlns:xlink="http://www.w3.org/1999/xlink" viewBox="0 0 32 32" version="1.1">
<g>
<path d="M 16.96875 3 C 12.816406 3 9.601563 4.953125 7.78125 7.5625 C 5.972656 10.160156 6.136719 12.566406 6.6875 14.03125 C 7.007813 14.875 7.277344 15.503906 7.9375 15.9375 C 8.597656 16.371094 9.40625 16.261719 10.03125 16.03125 C 10.421875 15.886719 10.722656 15.703125 11.03125 15.53125 L 11.5 15.3125 C 11.769531 15.175781 12.304688 14.828125 12.53125 14.1875 C 12.746094 13.582031 12.601563 12.855469 12.28125 12.03125 C 12.28125 12.03125 12.28125 12.003906 12.28125 12 L 12.28125 11.96875 C 12.273438 11.945313 12.292969 11.929688 12.28125 11.90625 C 12.277344 11.894531 12.304688 11.90625 12.375 11.6875 C 12.464844 11.414063 12.648438 10.972656 13.15625 10.4375 C 14.1875 9.347656 14.601563 9 16.96875 9 C 18.082031 9 18.96875 9.886719 18.96875 11 L 18.96875 20.96875 C 18.96875 22.03125 18.03125 22.96875 16.96875 22.96875 C 16.816406 22.96875 16.671875 22.949219 16.53125 22.9375 C 17.0625 21.929688 17.449219 20.933594 17.6875 20.03125 C 17.941406 19.066406 18.066406 18.199219 18.125 17.5625 C 18.15625 17.242188 18.152344 16.980469 18.15625 16.78125 C 18.160156 16.582031 18.171875 16.523438 18.15625 16.34375 C 18.109375 15.824219 18.066406 15.394531 17.9375 15 C 17.808594 14.605469 17.542969 14.195313 17.15625 13.9375 C 16.769531 13.679688 16.429688 13.609375 16.0625 13.59375 C 15.695313 13.578125 15.308594 13.632813 14.90625 13.65625 C 14.378906 13.6875 13.660156 13.617188 12.96875 14.1875 C 12.277344 14.757813 12.113281 15.699219 12.1875 16.90625 C 12.1875 16.921875 12.1875 16.929688 12.1875 16.96875 C 12.183594 17.046875 12.171875 17.160156 12.15625 17.3125 C 12.128906 17.613281 12.074219 18.070313 11.9375 18.5625 C 11.667969 19.550781 11.128906 20.75 10 21.78125 C 8.855469 22.820313 8.726563 24.558594 9.625 25.78125 L 9.59375 25.8125 C 9.625 25.84375 9.65625 25.875 9.6875 25.90625 C 9.71875 25.945313 9.746094 25.992188 9.78125 26.03125 C 9.949219 26.214844 10.144531 26.394531 10.34375 26.53125 C 12.199219 28.164063 14.359375 28.96875 16.96875 28.96875 C 21.371094 28.96875 24.96875 25.371094 24.96875 20.96875 L 24.96875 11 C 24.96875 6.597656 21.371094 3 16.96875 3 Z M 16.96875 5 C 20.285156 5 22.96875 7.683594 22.96875 11 L 22.96875 20.96875 C 22.96875 24.285156 20.285156 26.96875 16.96875 26.96875 C 15.730469 26.96875 14.710938 26.792969 13.78125 26.40625 C 13.851563 26.351563 13.933594 26.3125 14 26.25 C 14.519531 25.785156 14.976563 25.289063 15.375 24.78125 C 15.878906 24.898438 16.40625 24.96875 16.96875 24.96875 C 19.15625 24.96875 20.96875 23.15625 20.96875 20.96875 L 20.96875 11 C 20.96875 8.804688 19.164063 7 16.96875 7 C 14.292969 7 12.902344 7.808594 11.71875 9.0625 C 11.046875 9.773438 10.6875 10.460938 10.5 11 L 9.65625 11 L 9.65625 13 L 10.53125 13 C 10.621094 13.289063 10.660156 13.445313 10.65625 13.46875 C 10.652344 13.464844 10.648438 13.472656 10.59375 13.5 C 10.15625 13.71875 9.449219 14.117188 9.34375 14.15625 C 8.933594 14.308594 9 14.261719 9.03125 14.28125 C 9.0625 14.300781 8.835938 14.03125 8.5625 13.3125 C 8.195313 12.34375 7.964844 10.832031 9.4375 8.71875 C 10.902344 6.621094 13.441406 5 16.96875 5 Z M 15.90625 15.625 C 15.972656 15.625 16 15.628906 16.03125 15.625 C 16.074219 15.761719 16.113281 16.078125 16.15625 16.53125 C 16.144531 16.417969 16.160156 16.5625 16.15625 16.71875 C 16.152344 16.875 16.152344 17.101563 16.125 17.375 C 16.074219 17.921875 15.972656 18.695313 15.75 19.53125 C 15.308594 21.203125 14.425781 23.195313 12.6875 24.75 C 12.394531 25.015625 11.992188 25.0625 11.65625 24.9375 C 11.613281 24.921875 11.574219 24.894531 11.53125 24.875 C 11.402344 24.75 11.257813 24.636719 11.125 24.5 C 10.902344 24.101563 10.980469 23.609375 11.34375 23.28125 C 12.820313 21.9375 13.53125 20.34375 13.875 19.09375 C 14.046875 18.46875 14.117188 17.898438 14.15625 17.5 C 14.175781 17.300781 14.183594 17.148438 14.1875 17.03125 C 14.1875 16.972656 14.1875 16.914063 14.1875 16.875 C 14.1875 16.835938 14.195313 16.90625 14.1875 16.78125 C 14.128906 15.824219 14.289063 15.6875 14.25 15.71875 C 14.210938 15.75 14.453125 15.691406 15.03125 15.65625 C 15.445313 15.632813 15.734375 15.625 15.90625 15.625 Z "></path>
</g>
</svg>
