<?xml version="1.0" encoding="UTF-8"?>
<svg xmlns="http://www.w3.org/2000/svg" xmlns:xlink="http://www.w3.org/1999/xlink" viewBox="0 0 32 32" version="1.1">
<g>
<path d="M 5 5 L 5 27 L 27 27 L 27 5 Z M 7 7 L 25 7 L 25 25 L 7 25 Z M 22.625 9 C 21.953125 9.046875 20.527344 9.261719 19.78125 10 C 18.632813 11.210938 19.019531 12.554688 19.25 12.78125 C 19.480469 12.933594 20.871094 13.402344 22.09375 12.1875 C 23.011719 11.203125 23 9 23 9 C 23 9 22.847656 8.984375 22.625 9 Z M 17.84375 10 C 16.875 10.074219 15.417969 10.96875 15.09375 12.25 C 14.691406 13.832031 15.664063 14.894531 15.90625 14.96875 C 16.148438 15.042969 17.078125 14.5 17.5625 13.21875 C 18.210938 11.484375 17.925781 9.925781 17.84375 10 Z M 13.71875 12.8125 C 13.71875 12.8125 12 13.769531 12 15.6875 C 12 17.601563 12.738281 18.03125 13.21875 18.03125 C 13.699219 18.03125 14.59375 17.113281 14.59375 15.75 C 14.59375 13.765625 13.71875 12.8125 13.71875 12.8125 Z M 21.0625 14.03125 C 20.46875 14.027344 19.648438 14.113281 18.78125 14.4375 C 17.5 14.921875 16.957031 15.851563 17.03125 16.09375 C 17.105469 16.335938 18.167969 17.3125 19.75 16.90625 C 21.03125 16.582031 21.925781 15.125 22 14.15625 C 22.039063 14.117188 21.65625 14.035156 21.0625 14.03125 Z M 10.71875 15.8125 C 10.71875 15.8125 9 16.769531 9 18.6875 C 9 20.601563 9.738281 21.03125 10.21875 21.03125 C 10.699219 21.03125 11.59375 20.113281 11.59375 18.75 C 11.59375 16.765625 10.71875 15.8125 10.71875 15.8125 Z M 16.25 17.40625 C 14.886719 17.40625 13.96875 18.300781 13.96875 18.78125 C 13.96875 19.261719 14.394531 20 16.3125 20 C 18.230469 20 19.1875 18.28125 19.1875 18.28125 C 19.1875 18.28125 18.234375 17.40625 16.25 17.40625 Z M 13.25 20.40625 C 11.886719 20.40625 10.96875 21.300781 10.96875 21.78125 C 10.96875 22.261719 11.394531 23 13.3125 23 C 15.230469 23 16.1875 21.28125 16.1875 21.28125 C 16.1875 21.28125 15.234375 20.40625 13.25 20.40625 Z "></path>
</g>
</svg>
