<?xml version="1.0" encoding="UTF-8"?>
<svg xmlns="http://www.w3.org/2000/svg" xmlns:xlink="http://www.w3.org/1999/xlink" viewBox="0 0 32 32" version="1.1">
<g>
<path d="M 13 7 C 12.113281 7 11.300781 7.382813 10.75 8 C 9.484375 8.097656 8.554688 8.886719 7.65625 9.65625 L 7.3125 9.96875 C 6.589844 10.574219 4.417969 12.378906 3 13.5625 L 3 16.15625 C 3.234375 15.960938 7.515625 12.402344 8.59375 11.5 L 8.96875 11.1875 C 9.378906 10.835938 9.695313 10.574219 10 10.375 L 10 17.09375 C 9.625 17.300781 8.90625 17.6875 8.90625 17.6875 L 9.84375 19.4375 C 9.84375 19.4375 13.671875 17.335938 14.125 17.09375 C 15.195313 16.515625 15.851563 16 16.84375 16 C 17.496094 16 18 16.519531 18 17.28125 C 18 17.730469 17.902344 17.898438 17.71875 18.125 C 17.535156 18.351563 17.210938 18.617188 16.75 18.90625 C 15.664063 19.585938 14.46875 20.75 14.46875 20.75 L 14.40625 20.84375 L 14.34375 20.90625 C 13.183594 22.597656 11.691406 24 9.03125 24 L 3 24 L 3 26 L 9.03125 26 C 12.34375 26 14.507813 24.117188 15.875 22.1875 C 15.875 22.1875 16.597656 21.515625 17.25 21 L 26 21 C 27.648438 21 29 19.648438 29 18 L 29 10 C 29 8.351563 27.648438 7 26 7 Z M 13 9 L 26 9 C 26.5625 9 27 9.4375 27 10 L 27 11 L 13 11 L 13 13 L 27 13 L 27 18 C 27 18.5625 26.5625 19 26 19 L 19.5625 19 C 19.839844 18.515625 20 17.929688 20 17.28125 C 20 15.507813 18.609375 14 16.84375 14 C 15.148438 14 14.007813 14.882813 13.15625 15.34375 C 13.019531 15.417969 12.472656 15.707031 12 15.96875 L 12 10 C 12 9.4375 12.4375 9 13 9 Z "></path>
</g>
</svg>
