<?xml version="1.0" encoding="UTF-8"?>
<svg xmlns="http://www.w3.org/2000/svg" xmlns:xlink="http://www.w3.org/1999/xlink" viewBox="0 0 32 32" version="1.1">
<g>
<path d="M 5 6 C 3.355469 6 2 7.355469 2 9 L 2 23 C 2 24.644531 3.355469 26 5 26 L 27 26 C 28.644531 26 30 24.644531 30 23 L 30 9 C 30 7.355469 28.644531 6 27 6 Z M 5 8 L 27 8 C 27.566406 8 28 8.433594 28 9 L 28 11 L 5 11 L 5 13 L 28 13 L 28 23 C 28 23.566406 27.566406 24 27 24 L 5 24 C 4.433594 24 4 23.566406 4 23 L 4 9 C 4 8.433594 4.433594 8 5 8 Z M 9.5 15 C 8.132813 15 7 16.132813 7 17.5 L 7 20.5 C 7 21.867188 8.132813 23 9.5 23 C 10.867188 23 12 21.867188 12 20.5 L 12 20 L 10 20 L 10 20.5 C 10 20.785156 9.785156 21 9.5 21 C 9.214844 21 9 20.785156 9 20.5 L 9 17.5 C 9 17.214844 9.214844 17 9.5 17 C 9.785156 17 10 17.214844 10 17.5 L 10 18 L 12 18 L 12 17.5 C 12 16.132813 10.867188 15 9.5 15 Z M 15.5 15 C 14.132813 15 13 16.132813 13 17.5 C 13 18.867188 14.132813 20 15.5 20 C 15.785156 20 16 20.214844 16 20.5 C 16 20.863281 15.9375 21 15.5 21 C 15.121094 21 15.066406 20.914063 15.0625 20.90625 C 15.058594 20.898438 15 20.867188 15 20.625 L 13 20.625 C 13 21.191406 13.15625 21.832031 13.625 22.3125 C 14.09375 22.792969 14.773438 23 15.5 23 C 16.910156 23 18 21.792969 18 20.5 C 18 19.132813 16.867188 18 15.5 18 C 15.214844 18 15 17.785156 15 17.5 C 15 17.214844 15.214844 17 15.5 17 C 15.769531 17 15.84375 17.058594 15.90625 17.125 C 15.96875 17.191406 16 17.320313 16 17.40625 L 18 17.40625 C 18 16.839844 17.804688 16.253906 17.375 15.78125 C 16.945313 15.308594 16.257813 15 15.5 15 Z M 21.5 15 C 20.132813 15 19 16.132813 19 17.5 L 19 20.5 C 19 21.867188 20.132813 23 21.5 23 C 22.867188 23 24 21.867188 24 20.5 L 24 20 L 22 20 L 22 20.5 C 22 20.785156 21.785156 21 21.5 21 C 21.214844 21 21 20.785156 21 20.5 L 21 17.5 C 21 17.214844 21.214844 17 21.5 17 C 21.785156 17 22 17.214844 22 17.5 L 22 18 L 24 18 L 24 17.5 C 24 16.132813 22.867188 15 21.5 15 Z "></path>
</g>
</svg>
