<?xml version="1.0" encoding="UTF-8"?>
<svg xmlns="http://www.w3.org/2000/svg" xmlns:xlink="http://www.w3.org/1999/xlink" viewBox="0 0 32 32" version="1.1">
<g>
<path d="M 4 5 L 4 26 L 20 26 L 20 5 Z M 6 7 L 18 7 L 18 24 L 6 24 Z M 21 7 L 21 9.09375 L 25.53125 10.4375 L 21 27 L 15.71875 27 L 22.46875 29 L 27.96875 9.0625 Z M 15 8 L 14 11 L 14.78125 11 L 15 10.3125 L 15.96875 10.3125 L 16.1875 11 L 17 11 L 16 8 Z M 15.46875 8.71875 L 15.5 8.71875 L 15.65625 9.28125 L 15.8125 9.78125 L 15.15625 9.78125 L 15.3125 9.28125 Z M 22.96875 10.53125 L 21.125 13.125 L 21.875 13.34375 L 22.28125 12.75 L 23.21875 13.0625 L 23.21875 13.75 L 24 14 L 23.9375 10.84375 Z M 12 11 C 12 11 8 14 8 16 C 8 17.105469 8.894531 18 10 18 C 10.78125 18 11.453125 17.554688 11.78125 16.90625 L 11 20 L 13 20 L 12.21875 16.90625 C 12.546875 17.554688 13.21875 18 14 18 C 15.105469 18 16 17.105469 16 16 C 16 13.957031 12 11 12 11 Z M 23.21875 11.375 L 23.25 11.375 L 23.21875 11.96875 L 23.21875 12.46875 L 22.59375 12.28125 L 22.90625 11.84375 Z M 7 20 L 8 23 L 9 23 L 10 20 L 9.1875 20 L 8.96875 20.6875 L 8 20.6875 L 7.78125 20 Z M 8.15625 21.21875 L 8.8125 21.21875 L 8.65625 21.71875 L 8.5 22.28125 L 8.46875 22.28125 L 8.3125 21.71875 Z "></path>
</g>
</svg>
