<?xml version="1.0" encoding="UTF-8"?>
<svg xmlns="http://www.w3.org/2000/svg" xmlns:xlink="http://www.w3.org/1999/xlink" viewBox="0 0 32 32" version="1.1">
<g>
<path d="M 10 7 C 6.699219 7 4 9.699219 4 13 C 4 14.984375 4.976563 16.75 6.46875 17.84375 C 3.832031 19.152344 2 21.863281 2 25 L 4 25 C 4 21.675781 6.675781 19 10 19 C 13.324219 19 16 21.675781 16 25 L 18 25 C 18 21.863281 16.167969 19.152344 13.53125 17.84375 C 15.023438 16.75 16 14.984375 16 13 C 16 9.699219 13.300781 7 10 7 Z M 10 9 C 12.222656 9 14 10.777344 14 13 C 14 15.222656 12.222656 17 10 17 C 7.777344 17 6 15.222656 6 13 C 6 10.777344 7.777344 9 10 9 Z M 24 14.8125 L 23.46875 15.15625 L 19.46875 17.75 L 19 18.03125 L 19 25 L 29 25 L 29 18.03125 L 28.53125 17.75 L 24.53125 15.15625 Z M 24 17.1875 L 27 19.125 L 27 23 L 21 23 L 21 19.125 Z "></path>
</g>
</svg>
