<?xml version="1.0" encoding="UTF-8"?>
<svg xmlns="http://www.w3.org/2000/svg" xmlns:xlink="http://www.w3.org/1999/xlink" viewBox="0 0 32 32" version="1.1">
<g>
<path d="M 8 6 L 8 9 L 5 9 L 5 16 L 3 16 L 3 23.84375 C 2.785156 23.769531 2.585938 23.667969 2.4375 23.5625 C 2.078125 23.3125 2 23.042969 2 23 L 0 23 C 0 23.941406 0.589844 24.683594 1.3125 25.1875 C 2.035156 25.691406 2.960938 26 4 26 C 5.035156 26 5.960938 25.691406 6.6875 25.1875 C 6.800781 25.109375 6.894531 25.027344 7 24.9375 C 7.101563 25.023438 7.203125 25.113281 7.3125 25.1875 C 8.035156 25.691406 8.960938 26 10 26 C 11.035156 26 11.960938 25.691406 12.6875 25.1875 C 12.800781 25.109375 12.894531 25.027344 13 24.9375 C 13.101563 25.023438 13.203125 25.113281 13.3125 25.1875 C 14.035156 25.691406 14.960938 26 16 26 C 17.035156 26 17.960938 25.691406 18.6875 25.1875 C 18.800781 25.109375 18.894531 25.027344 19 24.9375 C 19.101563 25.023438 19.203125 25.113281 19.3125 25.1875 C 20.035156 25.691406 20.960938 26 22 26 C 23.035156 26 23.960938 25.691406 24.6875 25.1875 C 24.800781 25.109375 24.894531 25.027344 25 24.9375 L 25 25 C 25.023438 25 25.039063 25 25.0625 25 C 25.140625 25.066406 25.226563 25.128906 25.3125 25.1875 C 26.035156 25.691406 26.960938 26 28 26 C 29.035156 26 29.960938 25.691406 30.6875 25.1875 C 31.414063 24.683594 32 23.941406 32 23 L 30 23 C 30 23.058594 29.917969 23.316406 29.5625 23.5625 C 29.207031 23.808594 28.636719 24 28 24 C 27.566406 24 27.171875 23.917969 26.84375 23.78125 C 27.3125 23.210938 27.800781 22.480469 28.25 21.5625 C 29.195313 19.640625 30 16.992188 30 14 L 30 13 L 21.46875 13 L 21.15625 13.4375 L 19.4375 16 L 13 16 L 13 13.125 L 14.375 9 L 10 9 L 10 6 Z M 7 11 L 11.625 11 L 11.0625 12.6875 L 11 12.84375 L 11 16 L 7 16 Z M 22.5625 15 L 27.875 15 C 27.714844 17.207031 27.179688 19.210938 26.46875 20.65625 C 26.058594 21.492188 25.601563 22.179688 25.25 22.59375 C 25.074219 22.800781 24.929688 22.9375 24.84375 23 L 24 23 C 24 23.058594 23.917969 23.316406 23.5625 23.5625 C 23.207031 23.808594 22.636719 24 22 24 C 21.367188 24 20.796875 23.8125 20.4375 23.5625 C 20.078125 23.3125 20 23.042969 20 23 L 18 23 C 18 23.058594 17.917969 23.316406 17.5625 23.5625 C 17.207031 23.808594 16.636719 24 16 24 C 15.367188 24 14.796875 23.8125 14.4375 23.5625 C 14.078125 23.3125 14 23.042969 14 23 L 12 23 C 12 23.058594 11.917969 23.316406 11.5625 23.5625 C 11.207031 23.808594 10.636719 24 10 24 C 9.367188 24 8.796875 23.8125 8.4375 23.5625 C 8.078125 23.3125 8 23.042969 8 23 L 6 23 C 6 23.058594 5.917969 23.316406 5.5625 23.5625 C 5.414063 23.664063 5.214844 23.769531 5 23.84375 L 5 18 L 20.53125 18 L 20.84375 17.5625 Z M 24 16 L 24 18 L 26 18 L 26 16 Z "></path>
</g>
</svg>
