<?xml version="1.0" encoding="UTF-8"?>
<svg xmlns="http://www.w3.org/2000/svg" xmlns:xlink="http://www.w3.org/1999/xlink" viewBox="0 0 32 32" version="1.1">
<g>
<path d="M 16 3 C 13.25 3 11 5.25 11 8 C 11 9.578125 11.753906 10.988281 12.90625 11.90625 C 11.757813 12.617188 10.847656 13.691406 10.375 15 L 7 15 C 6.199219 15 5.640625 15.605469 5.375 16.15625 C 5.109375 16.707031 5 17.328125 5 18 C 5 18.671875 5.109375 19.292969 5.375 19.84375 C 5.640625 20.394531 6.199219 21 7 21 L 7 29 L 9 29 L 9 28 L 11 28 L 11 29 L 13 29 L 13 28 L 15 28 L 15 29 L 17 29 L 17 28 L 19 28 L 19 29 L 21 29 L 21 28 L 23 28 L 23 29 L 25 29 L 25 21 C 25.800781 21 26.359375 20.394531 26.625 19.84375 C 26.890625 19.292969 27 18.671875 27 18 C 27 17.328125 26.890625 16.707031 26.625 16.15625 C 26.359375 15.605469 25.800781 15 25 15 L 21.625 15 C 21.152344 13.691406 20.242188 12.617188 19.09375 11.90625 C 20.246094 10.988281 21 9.578125 21 8 C 21 5.25 18.75 3 16 3 Z M 16 5 C 17.667969 5 19 6.332031 19 8 C 19 9.667969 17.667969 11 16 11 C 14.332031 11 13 9.667969 13 8 C 13 6.332031 14.332031 5 16 5 Z M 16 13 C 17.472656 13 18.765625 13.796875 19.46875 15 L 12.53125 15 C 13.234375 13.796875 14.527344 13 16 13 Z M 7.1875 17 L 24.8125 17 C 24.816406 17.011719 24.796875 17.003906 24.8125 17.03125 C 24.894531 17.203125 25 17.570313 25 18 C 25 18.429688 24.894531 18.796875 24.8125 18.96875 C 24.796875 18.996094 24.816406 18.988281 24.8125 19 L 7.1875 19 C 7.183594 18.988281 7.203125 18.996094 7.1875 18.96875 C 7.105469 18.796875 7 18.429688 7 18 C 7 17.570313 7.105469 17.203125 7.1875 17.03125 C 7.203125 17.003906 7.183594 17.011719 7.1875 17 Z M 9 21 L 10 21 L 10 25 L 22 25 L 22 21 L 23 21 L 23 26 L 9 26 Z M 12 21 L 20 21 L 20 23 L 12 23 Z "></path>
</g>
</svg>
