<?xml version="1.0" encoding="UTF-8"?>
<svg xmlns="http://www.w3.org/2000/svg" xmlns:xlink="http://www.w3.org/1999/xlink" viewBox="0 0 32 32" version="1.1">
<g>
<path d="M 9 3.375 L 9 10 L 6.1875 10 L 6.03125 10.78125 L 4.03125 19.78125 L 4 19.875 L 4 27 L 28 27 L 28 19.875 L 27.96875 19.78125 L 25.96875 10.78125 L 25.8125 10 L 23 10 L 23 3.375 L 20 4.875 L 18 3.875 L 16 4.875 L 14 3.875 L 12 4.875 Z M 14 6.125 L 16 7.125 L 18 6.125 L 20 7.125 L 21 6.625 L 21 12 L 11 12 L 11 6.625 L 12 7.125 Z M 7.78125 12 L 9 12 L 9 14 L 23 14 L 23 12 L 24.21875 12 L 25.78125 19 L 6.21875 19 Z M 11 15 L 11 17 L 13 17 L 13 15 Z M 15 15 L 15 17 L 17 17 L 17 15 Z M 19 15 L 19 17 L 21 17 L 21 15 Z M 6 21 L 26 21 L 26 25 L 6 25 Z M 16 22 C 15.449219 22 15 22.449219 15 23 C 15 23.550781 15.449219 24 16 24 C 16.550781 24 17 23.550781 17 23 C 17 22.449219 16.550781 22 16 22 Z "></path>
</g>
</svg>
