<?xml version="1.0" encoding="UTF-8"?>
<svg xmlns="http://www.w3.org/2000/svg" xmlns:xlink="http://www.w3.org/1999/xlink" viewBox="0 0 32 32" version="1.1">
<g>
<path d="M 16 3 L 11 8.667969 L 11 10 L 12 10 L 12 15 L 11 15 L 11 13 L 8 13 L 8 14 L 7 14 L 7 13 L 4 13 L 4 20 L 5 20 L 5 29 L 27 29 L 27 20 L 28 20 L 28 13 L 25 13 L 25 14 L 24 14 L 24 13 L 21 13 L 21 15 L 20 15 L 20 10 L 21 10 L 21 8.667969 Z M 16 5.332031 L 18 8 L 14 8 Z M 14 10 L 18 10 L 18 17 L 23 17 L 23 16 L 26 16 L 26 18 L 25 18 L 25 27 L 19 27 L 19 25 C 19 23.355469 17.644531 22 16 22 C 14.355469 22 13 23.355469 13 25 L 13 27 L 7 27 L 7 18 L 6 18 L 6 16 L 9 16 L 9 17 L 14 17 Z M 10 22 C 9.449219 22 9 22.449219 9 23 L 9 25 L 11 25 L 11 23 C 11 22.449219 10.550781 22 10 22 Z M 22 22 C 21.449219 22 21 22.449219 21 23 L 21 25 L 23 25 L 23 23 C 23 22.449219 22.550781 22 22 22 Z M 16 24 C 16.566406 24 17 24.433594 17 25 L 17 27 L 15 27 L 15 25 C 15 24.433594 15.433594 24 16 24 Z "></path>
</g>
</svg>
