<?xml version="1.0" encoding="UTF-8"?>
<svg xmlns="http://www.w3.org/2000/svg" xmlns:xlink="http://www.w3.org/1999/xlink" viewBox="0 0 32 32" version="1.1">
<g>
<path d="M 19.96875 4 C 19.058594 4.695313 18.761719 5.652344 18.6875 6.40625 C 17.652344 7.308594 17 8.566406 17 10 C 17 10.902344 17.296875 11.742188 17.75 12.46875 L 17.65625 12.40625 C 17.273438 13.003906 17 13.722656 17 14.5 C 17 14.9375 17.207031 15.296875 17.34375 15.6875 C 16.730469 16.292969 16.308594 17.023438 16.15625 17.875 C 15.824219 17.980469 15.449219 17.984375 15.15625 18.1875 C 14.933594 18.339844 14.75 18.566406 14.5625 18.78125 C 14.261719 18.679688 13.949219 18.601563 13.625 18.59375 C 13.195313 18.582031 12.742188 18.652344 12.3125 18.84375 C 11.871094 18.40625 11.355469 18.09375 10.84375 17.96875 C 10.371094 17.855469 10.003906 17.992188 9.59375 18.03125 C 9.445313 17.683594 9.421875 17.285156 9.15625 17 C 8.644531 16.449219 7.894531 16 7 16 C 5.355469 16 4 17.355469 4 19 C 4 19.875 4.457031 20.578125 5.0625 21.125 C 5.046875 21.253906 5 21.359375 5 21.5 C 5 23.421875 6.578125 25 8.5 25 C 9.1875 25.574219 10.03125 26 11 26 C 11.160156 26 11.289063 25.957031 11.4375 25.9375 C 12.136719 26.554688 12.992188 27 14 27 C 14.621094 27 15.160156 26.753906 15.6875 26.5 C 16.25 26.757813 16.832031 27 17.5 27 C 18.59375 27 19.5625 26.558594 20.34375 25.90625 C 22.691406 25.605469 24.648438 24.0625 24.90625 21.9375 C 26.097656 21.140625 27 19.949219 27 18.5 C 27 18.0625 26.792969 17.703125 26.65625 17.3125 C 27.421875 16.558594 28 15.617188 28 14.5 C 28 13.710938 27.734375 12.996094 27.3125 12.375 C 27.734375 11.671875 28 10.871094 28 10 C 28 8.355469 27.121094 6.933594 25.8125 6.03125 C 25.609375 5.308594 25.117188 4.414063 24 4 L 24.0625 5.21875 C 23.566406 5.082031 23.039063 5 22.5 5 C 21.757813 5 21.03125 5.125 20.375 5.375 Z M 22.5 7 C 24.503906 7 26 8.398438 26 10 C 26 11.601563 24.503906 13 22.5 13 C 21.433594 13 20.503906 12.582031 19.875 11.96875 C 19.320313 11.425781 19 10.75 19 10 C 19 8.398438 20.496094 7 22.5 7 Z M 21 8 C 20.449219 8 20 8.449219 20 9 C 20 9.550781 20.449219 10 21 10 C 21.550781 10 22 9.550781 22 9 C 22 8.449219 21.550781 8 21 8 Z M 24 8 C 23.449219 8 23 8.449219 23 9 C 23 9.550781 23.449219 10 24 10 C 24.550781 10 25 9.550781 25 9 C 25 8.449219 24.550781 8 24 8 Z M 19.09375 13.90625 C 20.039063 14.589844 21.21875 15 22.5 15 C 23.765625 15 24.929688 14.582031 25.875 13.90625 C 25.949219 14.097656 26 14.296875 26 14.5 C 26 15.136719 25.671875 15.757813 25 16.25 L 24.25 16.78125 L 24.71875 17.5625 C 24.90625 17.878906 25 18.175781 25 18.5 C 25 19.277344 24.492188 20.035156 23.53125 20.53125 L 22.96875 20.8125 L 23 21.4375 C 23.007813 21.675781 23 21.691406 23 21.5 C 23 22.652344 21.773438 23.808594 19.90625 23.96875 L 19.53125 24 L 19.28125 24.25 C 18.824219 24.710938 18.199219 25 17.5 25 C 17.027344 25 16.609375 24.863281 16.21875 24.625 L 15.65625 24.28125 L 15.125 24.65625 C 14.804688 24.875 14.421875 25 14 25 C 13.382813 25 12.84375 24.730469 12.46875 24.28125 L 12.0625 23.78125 L 11.46875 23.9375 C 11.296875 23.980469 11.140625 24 11 24 C 10.402344 24 9.875 23.738281 9.5 23.3125 L 9.15625 22.9375 L 8.65625 22.96875 C 8.507813 22.984375 8.460938 23 8.5 23 C 7.660156 23 7 22.339844 7 21.5 C 7 21.378906 7.011719 21.230469 7.0625 21.0625 L 7.3125 20.25 L 6.5625 19.875 C 6.226563 19.710938 6 19.398438 6 19 C 6 18.433594 6.433594 18 7 18 C 7.210938 18 7.476563 18.113281 7.6875 18.34375 C 7.898438 18.574219 8 18.90625 8 19 L 8 20.5625 L 9.40625 19.90625 C 9.402344 19.90625 9.972656 19.808594 10.375 19.90625 C 10.777344 20.003906 11.027344 20.136719 11.15625 20.53125 L 11.71875 22.25 L 12.875 20.84375 C 13.039063 20.648438 13.269531 20.554688 13.5625 20.5625 C 13.855469 20.570313 14.128906 20.753906 14.125 20.75 L 15.53125 22.6875 L 15.90625 20.3125 C 15.921875 20.203125 16.039063 19.980469 16.28125 19.8125 C 16.523438 19.644531 16.863281 19.589844 16.9375 19.59375 L 18.0625 19.65625 L 18 18.5625 C 17.992188 18.324219 18 18.308594 18 18.5 C 18 17.863281 18.328125 17.242188 19 16.75 L 19.75 16.21875 L 19.28125 15.4375 C 19.09375 15.121094 19 14.824219 19 14.5 C 19 14.300781 19.023438 14.101563 19.09375 13.90625 Z "></path>
</g>
</svg>
