<?xml version="1.0" encoding="UTF-8"?>
<svg xmlns="http://www.w3.org/2000/svg" xmlns:xlink="http://www.w3.org/1999/xlink" viewBox="0 0 32 32" version="1.1">
<g>
<path d="M 16 3 C 15.230469 3 14.457031 3.292969 13.875 3.875 L 13.75 4.03125 L 4.03125 13.75 L 3.875 13.875 C 2.710938 15.039063 2.710938 16.960938 3.875 18.125 L 13.875 28.125 C 15.039063 29.289063 16.960938 29.289063 18.125 28.125 L 28.125 18.125 C 29.289063 16.960938 29.289063 15.039063 28.125 13.875 L 18.125 3.875 C 17.542969 3.292969 16.769531 3 16 3 Z M 16 5 C 16.253906 5 16.519531 5.082031 16.71875 5.28125 L 26.71875 15.28125 C 27.117188 15.679688 27.117188 16.320313 26.71875 16.71875 L 16.71875 26.71875 C 16.320313 27.117188 15.679688 27.117188 15.28125 26.71875 L 5.28125 16.71875 C 4.882813 16.320313 4.882813 15.679688 5.28125 15.28125 L 15.28125 5.28125 C 15.480469 5.082031 15.746094 5 16 5 Z M 12.1875 10.90625 C 11.789063 11.605469 11.992188 12.101563 12.09375 12.5 C 12.292969 12.699219 12.613281 12.59375 12.8125 12.59375 C 12.710938 12.695313 12.511719 12.710938 12.3125 12.8125 C 12.472656 13.011719 12.820313 13.230469 13.21875 13.4375 C 11.480469 15.214844 8 16.09375 8 16.09375 L 15 23.09375 C 15.398438 21.394531 17.007813 20.3125 17.40625 20.3125 C 17.804688 20.3125 18.09375 20.90625 18.59375 20.90625 C 18.792969 20.90625 19.394531 20.699219 19.59375 20.5 C 20.195313 20.398438 20.601563 20.5 21 20 C 21.398438 19.5 21.800781 18.605469 21.5 18.40625 C 20.101563 17.105469 19.59375 14.488281 19.09375 13.6875 C 18.765625 13.230469 17.722656 12.726563 16.78125 12.40625 C 17.308594 11.769531 17.8125 12.195313 18.59375 12.40625 C 19.695313 12.707031 20.59375 12.414063 20.59375 12.3125 C 20.59375 12.210938 19.886719 12.210938 19.1875 11.8125 C 18.289063 11.414063 18.007813 10.90625 16.90625 10.90625 C 16.507813 10.90625 15.90625 11.195313 15.40625 11.59375 C 15.269531 11.730469 15.058594 11.894531 14.875 12.09375 C 14.742188 11.933594 14.601563 11.789063 14.5 11.6875 C 13.800781 11.085938 13.085938 10.804688 12.1875 10.90625 Z "></path>
</g>
</svg>
