<?xml version="1.0" encoding="UTF-8"?>
<svg xmlns="http://www.w3.org/2000/svg" xmlns:xlink="http://www.w3.org/1999/xlink" viewBox="0 0 32 32" version="1.1">
<g>
<path d="M 0 6 L 0 25 L 13 25 C 14.191406 25 15 25.808594 15 27 L 17 27 C 17 25.808594 17.808594 25 19 25 L 32 25 L 32 6 L 19 6 C 17.804688 6 16.734375 6.515625 16 7.34375 C 15.265625 6.515625 14.195313 6 13 6 Z M 2 8 L 13 8 C 14.191406 8 15 8.808594 15 10 L 17 10 C 17 8.808594 17.808594 8 19 8 L 30 8 L 30 23 L 19 23 C 17.804688 23 16.734375 23.515625 16 24.34375 C 15.265625 23.515625 14.195313 23 13 23 L 2 23 Z M 10.5 12 C 9.117188 12 8 13.117188 8 14.5 L 8 17.5 C 8 18.882813 9.117188 20 10.5 20 C 11.882813 20 13 18.882813 13 17.5 L 13 17 L 11 17 L 11 17.5 C 11 17.714844 10.714844 18 10.5 18 C 10.285156 18 10 17.714844 10 17.5 L 10 14.5 C 10 14.285156 10.285156 14 10.5 14 C 10.714844 14 11 14.285156 11 14.5 L 11 15 L 13 15 L 13 14.5 C 13 13.117188 11.882813 12 10.5 12 Z M 14 12 L 14 20 L 16.5 20 C 17.882813 20 19 18.882813 19 17.5 C 19 16.917969 18.738281 16.425781 18.40625 16 C 18.738281 15.574219 19 15.082031 19 14.5 C 19 13.117188 17.882813 12 16.5 12 Z M 20 12 L 20 20 L 22 20 L 22 17 L 23 20 L 25 20 L 23.875 16.59375 C 24.558594 16.148438 25 15.378906 25 14.5 C 25 13.117188 23.882813 12 22.5 12 Z M 16 14 L 16.5 14 C 16.714844 14 17 14.285156 17 14.5 C 17 14.714844 16.714844 15 16.5 15 L 16 15 Z M 22 14 L 22.5 14 C 22.714844 14 23 14.285156 23 14.5 C 23 14.714844 22.714844 15 22.5 15 L 22 15 Z M 16 17 L 16.5 17 C 16.714844 17 17 17.285156 17 17.5 C 17 17.714844 16.714844 18 16.5 18 L 16 18 Z "></path>
</g>
</svg>
