<?xml version="1.0" encoding="UTF-8"?>
<svg xmlns="http://www.w3.org/2000/svg" xmlns:xlink="http://www.w3.org/1999/xlink" viewBox="0 0 32 32" version="1.1">
<g>
<path d="M 16 3 C 8.832031 3 3 8.832031 3 16 C 3 23.167969 8.832031 29 16 29 C 23.167969 29 29 23.167969 29 16 C 29 8.832031 23.167969 3 16 3 Z M 16 5 C 20.945313 5 25.109375 8.238281 26.5 12.71875 C 23.984375 9.832031 20.210938 8 16 8 C 11.789063 8 8.015625 9.832031 5.5 12.71875 C 6.890625 8.238281 11.054688 5 16 5 Z M 16 10 C 20.523438 10 24.371094 12.464844 26.3125 16 C 24.371094 19.535156 20.523438 22 16 22 C 11.476563 22 7.628906 19.535156 5.6875 16 C 7.628906 12.464844 11.476563 10 16 10 Z M 16 11 C 13.25 11 11 13.25 11 16 C 11 18.75 13.25 21 16 21 C 18.75 21 21 18.75 21 16 C 21 13.25 18.75 11 16 11 Z M 16 13 C 17.667969 13 19 14.332031 19 16 C 19 17.667969 17.667969 19 16 19 C 14.332031 19 13 17.667969 13 16 C 13 14.332031 14.332031 13 16 13 Z M 5.5 19.28125 C 8.015625 22.167969 11.789063 24 16 24 C 20.210938 24 23.984375 22.167969 26.5 19.28125 C 25.109375 23.761719 20.945313 27 16 27 C 11.054688 27 6.890625 23.761719 5.5 19.28125 Z "></path>
</g>
</svg>
