<?xml version="1.0" encoding="UTF-8"?>
<svg xmlns="http://www.w3.org/2000/svg" xmlns:xlink="http://www.w3.org/1999/xlink" viewBox="0 0 32 32" version="1.1">
<g>
<path d="M 17.5 4 C 11.148438 4 6 9.148438 6 15.5 C 6 17.507813 6.519531 19.390625 7.421875 21.03125 C 6.507813 21.578125 5.367188 22 4 22 C 4 22 4.273438 24.269531 6.398438 26 L 7.5625 26 C 7.5625 26 7.4375 26.457031 7.382813 26.753906 C 7.984375 27.171875 8.648438 27.644531 9.433594 28 L 14.265625 28 C 14.265625 28 14.871094 27.828125 15.632813 26.824219 C 16.242188 26.925781 16.859375 27 17.5 27 C 21.316406 27 24.6875 25.132813 26.78125 22.273438 L 21.253906 17.972656 C 20.550781 19.039063 19.40625 19.792969 18.078125 19.964844 L 18.292969 18.984375 C 18.351563 18.683594 18.171875 18.449219 17.871094 18.328125 L 16.289063 17.75 C 17.296875 15.300781 17.730469 13.9375 17.730469 13.832031 C 17.730469 13.355469 17.367188 13 16.882813 13 C 16.519531 13 16.21875 13.238281 16.097656 13.59375 L 14.453125 17.078125 L 13.148438 16.597656 C 13.054688 16.246094 13 15.882813 13 15.5 C 13 13.015625 15.015625 11 17.5 11 C 18.785156 11 19.941406 11.546875 20.761719 12.410156 L 25.046875 6.835938 C 23.027344 5.074219 20.390625 4 17.5 4 Z M 17.5 6 C 19.15625 6 20.777344 6.4375 22.203125 7.257813 L 20.355469 9.660156 C 19.476563 9.226563 18.507813 9 17.5 9 C 13.914063 9 11 11.914063 11 15.5 C 11 16.027344 11.070313 16.535156 11.1875 17.023438 L 10.03125 18.558594 C 10.03125 18.558594 9.683594 19.105469 9.035156 19.761719 C 8.382813 18.476563 8 17.035156 8 15.5 C 8 10.261719 12.261719 6 17.5 6 Z M 12.566406 18.515625 L 16.066406 19.796875 L 15.660156 21.671875 C 14.945313 24.582031 14.082031 25.660156 13.722656 26 L 9.898438 26 C 9.820313 25.957031 9.746094 25.914063 9.667969 25.867188 L 10.167969 24 L 7.175781 24 C 7.03125 23.84375 6.898438 23.6875 6.789063 23.53125 C 9.671875 22.53125 11.324219 20.230469 11.671875 19.703125 Z M 21.449219 20.660156 L 23.867188 22.542969 C 22.136719 24.121094 19.898438 25 17.5 25 C 17.21875 25 16.945313 24.984375 16.671875 24.957031 C 17 24.203125 17.320313 23.300781 17.609375 22.125 L 17.640625 21.988281 C 19.039063 21.957031 20.367188 21.492188 21.449219 20.660156 Z "></path>
</g>
</svg>
