<?xml version="1.0" encoding="UTF-8"?>
<svg xmlns="http://www.w3.org/2000/svg" xmlns:xlink="http://www.w3.org/1999/xlink" viewBox="0 0 32 32" version="1.1">
<g>
<path d="M 5.90625 8.28125 C 5.660156 8.28125 5.40625 8.535156 5.40625 8.78125 L 5.40625 12.34375 L 0.75 12.34375 C 0.382813 12.34375 0 12.851563 0 13.21875 L 0 22.6875 C 0 23.054688 0.382813 23.40625 0.75 23.40625 L 7.875 23.40625 C 8.121094 23.40625 8.375 23.183594 8.375 22.9375 L 8.375 8.90625 C 8.5 8.539063 8.246094 8.28125 8 8.28125 Z M 11.1875 8.28125 C 10.449219 8.28125 10.09375 8.511719 10.09375 9.375 L 10.09375 9.875 C 10.09375 10.613281 10.324219 11 11.1875 11 L 11.4375 11 C 12.175781 11 12.5625 10.734375 12.5625 9.875 L 11.6875 9.875 L 11.6875 10 C 11.6875 10.246094 11.558594 10.375 11.3125 10.375 C 10.945313 10.375 10.96875 10.242188 10.96875 9.875 L 10.96875 9.375 C 10.96875 9.007813 10.945313 8.90625 11.3125 8.90625 C 11.558594 8.90625 11.6875 9.003906 11.6875 9.25 L 12.4375 9.25 C 12.4375 8.511719 12.175781 8.28125 11.3125 8.28125 Z M 14.28125 8.28125 C 13.542969 8.28125 13.15625 8.511719 13.15625 9.375 L 13.15625 9.875 C 13.15625 10.613281 13.417969 11 14.28125 11 L 14.65625 11 C 15.394531 11 15.75 10.613281 15.75 9.875 L 15.75 9.375 C 15.75 8.515625 15.519531 8.28125 14.65625 8.28125 Z M 16.625 8.28125 L 16.625 11 L 17.34375 11 L 17.34375 9.03125 L 17.84375 11 L 18.59375 11 L 19.1875 9.03125 L 19.1875 11 L 19.9375 11 L 19.9375 8.28125 L 18.84375 8.28125 L 18.21875 10.25 L 17.71875 8.28125 Z M 20.9375 8.28125 L 20.9375 11 L 21.65625 11 L 21.65625 10.25 L 22.15625 10.25 C 22.894531 10.25 23.125 9.992188 23.125 9.375 L 23.125 9.15625 C 23.125 8.542969 22.894531 8.28125 22.15625 8.28125 Z M 24.25 8.28125 L 23.5 11 L 24.25 11 L 24.375 10.5 L 25.34375 10.5 L 25.46875 11 L 26.21875 11 L 25.46875 8.28125 Z M 27.8125 8.28125 C 27.074219 8.28125 26.71875 8.511719 26.71875 9.375 L 26.71875 9.875 C 26.71875 10.613281 26.949219 11 27.8125 11 L 28.0625 11 C 28.800781 11 29.15625 10.734375 29.15625 9.875 L 28.4375 9.875 L 28.4375 10 C 28.4375 10.246094 28.308594 10.375 28.0625 10.375 C 27.695313 10.375 27.6875 10.242188 27.6875 9.875 L 27.6875 9.375 C 27.6875 9.007813 27.695313 8.90625 28.0625 8.90625 C 28.308594 8.90625 28.4375 9.003906 28.4375 9.25 L 29.15625 9.25 C 29.15625 8.511719 28.925781 8.28125 28.0625 8.28125 Z M 29.78125 8.28125 L 29.78125 8.90625 L 30.53125 8.90625 L 30.53125 11 L 31.25 11 L 31.25 8.90625 L 32 8.90625 L 32 8.28125 Z M 14.1875 8.90625 C 14.238281 8.890625 14.3125 8.90625 14.40625 8.90625 L 14.65625 8.90625 C 15.023438 8.90625 15 9.007813 15 9.375 L 15 9.875 C 15 10.242188 15.023438 10.375 14.65625 10.375 L 14.40625 10.375 C 14.039063 10.375 14.03125 10.242188 14.03125 9.875 L 14.03125 9.375 C 14.03125 9.097656 14.03125 8.957031 14.1875 8.90625 Z M 21.65625 8.90625 L 22.15625 8.90625 C 22.402344 8.90625 22.53125 9.035156 22.53125 9.15625 L 22.53125 9.375 L 22.40625 9.375 C 22.40625 9.621094 22.277344 9.75 22.15625 9.75 L 21.65625 9.75 Z M 24.875 8.90625 L 25.09375 10 L 24.625 10 Z M 10.96875 12.34375 C 10.601563 12.34375 10.34375 12.597656 10.46875 12.84375 L 10.46875 22.8125 C 10.46875 23.058594 10.722656 23.28125 10.96875 23.28125 L 12.9375 23.28125 C 13.183594 23.28125 13.40625 23.058594 13.40625 22.8125 L 13.40625 12.84375 C 13.40625 12.597656 13.183594 12.34375 12.9375 12.34375 Z M 15.625 12.34375 C 15.378906 12.34375 15.125 12.597656 15.125 12.84375 L 15.125 18.75 C 15.125 18.996094 15.503906 19.25 15.625 19.25 L 20.1875 19.25 L 20.1875 20.96875 L 15.625 20.96875 C 15.378906 20.96875 15.125 21.191406 15.125 21.4375 L 15.125 22.8125 C 15.125 23.058594 15.503906 23.28125 15.625 23.28125 L 22.28125 23.28125 C 22.402344 23.28125 22.78125 23.058594 22.78125 22.8125 L 22.78125 16.90625 C 22.78125 16.785156 22.527344 16.40625 22.28125 16.40625 L 17.71875 16.40625 L 17.71875 14.6875 L 21.90625 14.6875 C 22.027344 14.6875 22.40625 14.433594 22.40625 14.1875 L 22.40625 12.84375 C 22.40625 12.597656 22.152344 12.34375 21.90625 12.34375 Z M 24.75 12.46875 C 24.503906 12.46875 24.25 12.722656 24.25 12.96875 L 24.25 22.9375 C 24.25 23.183594 24.628906 23.40625 24.75 23.40625 L 31.375 23.40625 C 31.621094 23.40625 31.875 23.183594 31.875 22.9375 L 31.875 18.875 L 29.40625 18.875 L 29.40625 20.96875 C 29.40625 21.214844 29.183594 21.4375 28.9375 21.4375 L 27.1875 21.4375 C 27.066406 21.4375 26.71875 21.214844 26.71875 20.96875 L 26.71875 14.8125 C 26.71875 14.566406 26.941406 14.3125 27.1875 14.3125 L 28.9375 14.3125 C 29.550781 14.3125 29.40625 14.8125 29.40625 14.8125 L 29.40625 17.15625 L 31.875 17.15625 L 31.875 12.96875 C 31.875 12.96875 31.621094 12.46875 31.375 12.46875 Z M 3.5625 14.5625 L 5.28125 14.5625 C 5.527344 14.5625 5.78125 14.816406 5.78125 15.0625 C 5.78125 15.0625 5.78125 20.96875 5.78125 20.96875 C 5.78125 21.214844 5.527344 21.4375 5.28125 21.4375 L 3.5625 21.4375 C 3.316406 21.4375 3.0625 21.214844 3.0625 20.96875 L 3.0625 15.0625 C 3.0625 14.816406 3.316406 14.5625 3.5625 14.5625 Z "></path>
</g>
</svg>
