<?xml version="1.0" encoding="UTF-8"?>
<svg xmlns="http://www.w3.org/2000/svg" xmlns:xlink="http://www.w3.org/1999/xlink" viewBox="0 0 32 32" version="1.1">
<g>
<path d="M 19 3 C 17.632813 3 16.636719 4.019531 16.28125 5.28125 C 15.019531 5.636719 14 6.632813 14 8 C 14 8.953125 14.519531 9.703125 15.21875 10.25 C 15.148438 10.503906 15 10.726563 15 11 C 15 11.210938 15.019531 11.425781 15.0625 11.625 C 14.863281 11.800781 12.640625 13.804688 10.125 16.0625 C 8.8125 17.242188 7.46875 18.445313 6.40625 19.40625 C 5.34375 20.367188 4.59375 21.03125 4.3125 21.3125 C 2.589844 23.035156 2.582031 25.839844 4.25 27.59375 L 4.3125 27.6875 C 6.0625 29.4375 8.9375 29.4375 10.6875 27.6875 L 10.8125 27.53125 C 11.125 27.210938 11.71875 26.589844 12.625 25.59375 C 13.597656 24.523438 14.804688 23.167969 16 21.84375 C 18.253906 19.347656 20.167969 17.203125 20.40625 16.9375 C 20.40625 16.9375 20.4375 16.9375 20.4375 16.9375 C 20.617188 16.972656 20.808594 17 21 17 C 21.273438 17 21.496094 16.851563 21.75 16.78125 C 22.296875 17.480469 23.046875 18 24 18 C 25.367188 18 26.363281 16.980469 26.71875 15.71875 C 27.980469 15.363281 29 14.367188 29 13 C 29 12.4375 28.804688 11.949219 28.53125 11.5 C 28.804688 11.050781 29 10.5625 29 10 C 29 9.046875 28.480469 8.296875 27.78125 7.75 C 27.851563 7.496094 28 7.273438 28 7 C 28 5.355469 26.644531 4 25 4 C 24.726563 4 24.503906 4.148438 24.25 4.21875 C 23.703125 3.519531 22.953125 3 22 3 C 21.4375 3 20.949219 3.195313 20.5 3.46875 C 20.050781 3.195313 19.5625 3 19 3 Z M 19 5 C 19.300781 5 19.558594 5.125 19.75 5.34375 L 20.5 6.21875 L 21.25 5.34375 C 21.441406 5.125 21.699219 5 22 5 C 22.441406 5 22.800781 5.296875 22.9375 5.6875 L 23.375 6.90625 L 24.4375 6.15625 C 24.597656 6.046875 24.789063 6 25 6 C 25.566406 6 26 6.433594 26 7 C 26 7.210938 25.953125 7.402344 25.84375 7.5625 L 25.09375 8.625 L 26.3125 9.0625 C 26.703125 9.199219 27 9.558594 27 10 C 27 10.300781 26.875 10.558594 26.65625 10.75 L 25.78125 11.5 L 26.65625 12.25 C 26.875 12.441406 27 12.699219 27 13 C 27 13.566406 26.566406 14 26 14 L 25 14 L 25 15 C 25 15.566406 24.566406 16 24 16 C 23.558594 16 23.199219 15.703125 23.0625 15.3125 L 22.625 14.09375 L 21.5625 14.84375 C 21.402344 14.953125 21.210938 15 21 15 C 20.433594 15 20 14.566406 20 14 C 20 14.019531 20.015625 13.984375 20.03125 13.875 L 20.125 13.1875 L 19.53125 12.875 C 19.367188 12.78125 19.214844 12.628906 19.125 12.46875 L 18.8125 11.875 L 18.125 11.96875 C 18.015625 11.984375 17.980469 12 18 12 C 17.433594 12 17 11.566406 17 11 C 17 10.789063 17.046875 10.597656 17.15625 10.4375 L 17.90625 9.375 L 16.6875 8.9375 C 16.296875 8.800781 16 8.441406 16 8 C 16 7.433594 16.433594 7 17 7 L 18 7 L 18 6 C 18 5.433594 18.433594 5 19 5 Z M 16.15625 13.34375 C 16.363281 13.503906 16.597656 13.648438 16.84375 13.75 L 7.5 23.0625 L 8.9375 24.5 L 18.25 15.15625 C 18.359375 15.414063 18.515625 15.660156 18.6875 15.875 C 18.273438 16.339844 16.660156 18.140625 14.53125 20.5 C 13.335938 21.824219 12.097656 23.183594 11.125 24.25 C 10.152344 25.316406 9.414063 26.148438 9.28125 26.28125 C 8.296875 27.265625 6.703125 27.265625 5.71875 26.28125 C 4.734375 25.296875 4.734375 23.703125 5.71875 22.71875 C 5.847656 22.589844 6.691406 21.832031 7.75 20.875 C 8.808594 19.917969 10.15625 18.707031 11.46875 17.53125 C 13.863281 15.378906 15.777344 13.683594 16.15625 13.34375 Z "></path>
</g>
</svg>
