<?xml version="1.0" encoding="UTF-8"?>
<svg xmlns="http://www.w3.org/2000/svg" xmlns:xlink="http://www.w3.org/1999/xlink" viewBox="0 0 32 32" version="1.1">
<g>
<path d="M 27.5 3.5 L 26.46875 4.46875 L 25.5625 3.5625 L 24.5 4.625 L 25.34375 5.46875 L 24.375 6.375 L 23.5625 5.5625 L 22.5 6.625 L 23.28125 7.40625 L 20.90625 9.59375 L 20.65625 9.34375 C 19.683594 8.371094 18.40625 7.90625 17.125 7.90625 C 15.84375 7.90625 14.566406 8.371094 13.59375 9.34375 L 12.15625 10.8125 L 11.625 11.3125 L 11.96875 11.96875 C 12.347656 12.683594 12.34375 13.375 11.5625 14.15625 C 11.066406 14.652344 10.605469 14.792969 10.15625 14.78125 C 9.707031 14.769531 9.230469 14.578125 8.8125 14.15625 L 8.125 13.4375 L 5.375 16.1875 C 3.039063 18.523438 3.039063 22.320313 5.375 24.65625 L 5.625 24.9375 L 3.28125 27.28125 L 4.71875 28.71875 L 7.0625 26.375 L 7.34375 26.625 C 9.679688 28.960938 13.476563 28.960938 15.8125 26.625 L 18.5625 23.875 L 17.84375 23.1875 C 17.421875 22.765625 17.234375 22.292969 17.21875 21.84375 C 17.203125 21.394531 17.34375 20.9375 17.84375 20.4375 C 18.625 19.65625 19.316406 19.648438 20.03125 20.03125 L 20.6875 20.375 L 21.1875 19.84375 L 22.65625 18.40625 C 24.601563 16.460938 24.601563 13.289063 22.65625 11.34375 L 22.40625 11.09375 L 25.5625 7.6875 L 26.375 8.5 L 27.4375 7.4375 L 26.59375 6.59375 L 27.5 5.625 L 28.375 6.5 L 29.4375 5.4375 Z M 17.125 9.875 C 17.890625 9.875 18.660156 10.191406 19.25 10.78125 L 19.40625 10.9375 L 15 15 L 17 17 L 21.0625 12.59375 L 21.21875 12.75 C 22.398438 13.929688 22.398438 15.820313 21.21875 17 L 20.09375 18.125 C 18.855469 17.816406 17.5 17.96875 16.4375 19.03125 C 15.609375 19.859375 15.1875 20.890625 15.21875 21.90625 C 15.238281 22.578125 15.492188 23.179688 15.84375 23.75 L 14.40625 25.1875 C 12.835938 26.757813 10.320313 26.757813 8.75 25.1875 L 8.5 24.9375 L 11.71875 21.71875 L 10.28125 20.28125 L 7.0625 23.5 L 6.8125 23.25 C 5.242188 21.679688 5.242188 19.164063 6.8125 17.59375 L 6.875 17.5 L 8.25 16.15625 C 8.820313 16.507813 9.421875 16.761719 10.09375 16.78125 C 11.109375 16.8125 12.140625 16.390625 12.96875 15.5625 C 14.03125 14.5 14.183594 13.144531 13.875 11.90625 L 15 10.78125 C 15.589844 10.191406 16.359375 9.875 17.125 9.875 Z "></path>
</g>
</svg>
