<?xml version="1.0" encoding="UTF-8"?>
<svg xmlns="http://www.w3.org/2000/svg" xmlns:xlink="http://www.w3.org/1999/xlink" viewBox="0 0 32 32" version="1.1">
<g>
<path d="M 16 6 C 12.042969 6 8.613281 8.070313 8.46875 8.15625 L 7.96875 8.46875 L 8.875 25 L 10.90625 25 L 10.03125 9.5625 C 11.046875 9.042969 13.433594 8 16 8 C 18.566406 8 20.953125 9.042969 21.96875 9.5625 L 21.09375 25 L 23.125 25 L 24.03125 8.46875 L 23.53125 8.15625 C 23.386719 8.070313 19.957031 6 16 6 Z M 13 12 L 13 14 L 19 14 L 19 12 Z M 13 16 L 13 18 L 19 18 L 19 16 Z M 7 26 L 7 28 L 25 28 L 25 26 Z "></path>
</g>
</svg>
