<?xml version="1.0" encoding="UTF-8"?>
<svg xmlns="http://www.w3.org/2000/svg" xmlns:xlink="http://www.w3.org/1999/xlink" viewBox="0 0 32 32" version="1.1">
<g>
<path d="M 10 3.59375 L 9.28125 4.28125 L 5.28125 8.28125 L 6.71875 9.71875 L 9 7.4375 L 9 9 C 9 9.300781 8.863281 10.113281 8.65625 11 C 8.449219 11.886719 8.1875 12.890625 7.9375 13.84375 C 7.359375 16.039063 7.816406 18.371094 9.21875 20.125 C 10.296875 21.449219 10.539063 23.207031 10.03125 24.8125 L 9.0625 27.6875 L 10.9375 28.3125 L 11.9375 25.4375 C 11.949219 25.425781 11.957031 25.417969 11.96875 25.40625 C 12.660156 23.214844 12.304688 20.75 10.78125 18.875 C 9.785156 17.628906 9.453125 15.949219 9.875 14.34375 C 10.125 13.398438 10.40625 12.375 10.625 11.4375 C 10.84375 10.5 11 9.699219 11 9 L 11 7.4375 L 13.28125 9.71875 L 14.71875 8.28125 L 10.71875 4.28125 Z M 22 3.59375 L 21.28125 4.28125 L 17.28125 8.28125 L 18.71875 9.71875 L 21 7.4375 L 21 9 C 21 9.300781 20.863281 10.113281 20.65625 11 C 20.449219 11.886719 20.1875 12.890625 19.9375 13.84375 C 19.359375 16.039063 19.816406 18.371094 21.21875 20.125 C 22.296875 21.449219 22.539063 23.207031 22.03125 24.8125 L 21.0625 27.6875 L 22.9375 28.3125 L 23.9375 25.4375 C 23.949219 25.425781 23.957031 25.417969 23.96875 25.40625 C 24.660156 23.214844 24.304688 20.75 22.78125 18.875 C 21.785156 17.628906 21.453125 15.949219 21.875 14.34375 C 22.125 13.398438 22.40625 12.375 22.625 11.4375 C 22.84375 10.5 23 9.699219 23 9 L 23 7.4375 L 25.28125 9.71875 L 26.71875 8.28125 L 22.71875 4.28125 Z "></path>
</g>
</svg>
