<?xml version="1.0" encoding="UTF-8"?>
<svg xmlns="http://www.w3.org/2000/svg" xmlns:xlink="http://www.w3.org/1999/xlink" viewBox="0 0 32 32" version="1.1">
<g>
<path d="M 24.75 2 L 24 4 L 22 4 L 22 6 L 20 6 L 20 8 L 18 8 L 18 10 L 16 10 L 16 12 L 14.34375 12 C 13.941406 11.726563 13.476563 11.59375 13 11.59375 C 12.382813 11.59375 11.777344 11.816406 11.3125 12.28125 L 10.6875 12.90625 L 9.375 11.1875 C 8.878906 10.53125 8.167969 10.136719 7.40625 10.03125 C 6.644531 9.925781 5.84375 10.097656 5.1875 10.59375 C 3.878906 11.589844 3.597656 13.503906 4.59375 14.8125 L 6.375 17.1875 L 5.28125 18.28125 C 4.457031 19.105469 4.363281 20.410156 5 21.34375 L 3.15625 23.1875 C 1.605469 24.738281 1.605469 27.292969 3.15625 28.84375 C 4.707031 30.394531 7.261719 30.394531 8.8125 28.84375 L 10.65625 27 C 11.589844 27.636719 12.894531 27.542969 13.71875 26.71875 L 19.71875 20.6875 C 20.542969 19.863281 20.636719 18.585938 20 17.65625 L 20 16 L 22 16 L 22 14 L 24 14 L 24 12 L 26 12 L 26 10 L 28 10 L 28 8 L 30 7.375 L 29 6 L 30 4 L 28 4 L 28 2 L 26 3 Z M 25.59375 5 C 26.375 5 27 5.625 27 6.40625 C 27 6.773438 26.855469 7.125 26.625 7.375 L 18.1875 15.8125 L 16.1875 13.8125 L 24.625 5.375 C 24.878906 5.144531 25.226563 5 25.59375 5 Z M 7.125 12 C 7.371094 12.042969 7.613281 12.183594 7.78125 12.40625 L 9.25 14.34375 L 7.8125 15.75 L 6.21875 13.59375 L 6.1875 13.59375 C 5.851563 13.152344 5.964844 12.523438 6.40625 12.1875 C 6.628906 12.019531 6.878906 11.957031 7.125 12 Z M 13 13.5625 C 13.097656 13.5625 13.199219 13.605469 13.28125 13.6875 L 18.3125 18.71875 C 18.480469 18.886719 18.480469 19.113281 18.3125 19.28125 L 12.28125 25.28125 C 12.113281 25.449219 11.886719 25.449219 11.71875 25.28125 L 6.71875 20.28125 C 6.550781 20.113281 6.550781 19.886719 6.71875 19.71875 L 10.46875 15.96875 L 13.1875 19.59375 L 14.8125 18.40625 L 11.875 14.53125 L 12.71875 13.6875 C 12.800781 13.605469 12.902344 13.5625 13 13.5625 Z M 6.375 22.78125 L 9.1875 25.625 L 7.40625 27.40625 C 6.625 28.1875 5.375 28.1875 4.59375 27.40625 C 3.8125 26.625 3.8125 25.375 4.59375 24.59375 L 4.8125 24.34375 Z "></path>
</g>
</svg>
