<?xml version="1.0" encoding="UTF-8"?>
<svg xmlns="http://www.w3.org/2000/svg" xmlns:xlink="http://www.w3.org/1999/xlink" viewBox="0 0 32 32" version="1.1">
<g>
<path d="M 11.5 4 C 10.132813 4 9 5.132813 9 6.5 L 9 7.9375 C 8.199219 8.238281 7.507813 8.613281 6.96875 9.09375 C 6.496094 9.511719 6.121094 10.070313 6.03125 10.71875 C 6.007813 10.808594 5.996094 10.90625 6 11 C 6 13.425781 6.597656 15.074219 6.875 15.78125 C 6.660156 16.015625 6.515625 16.152344 6.15625 16.6875 C 5.597656 17.523438 5 18.667969 5 20 L 5 23 C 5 25.75 7.25 28 10 28 L 20 28 C 22.75 28 25 25.75 25 23 L 25 20 C 25 18.695313 24.421875 17.582031 23.875 16.75 C 24.980469 16.484375 25.894531 15.988281 26.5625 15.25 C 27.578125 14.121094 28 12.597656 28 11 L 26 11 C 26 12.261719 25.6875 13.246094 25.09375 13.90625 C 24.730469 14.308594 24.214844 14.59375 23.53125 14.78125 C 23.78125 13.867188 24 12.605469 24 11 C 24 10.96875 24 10.9375 24 10.90625 C 23.996094 10.84375 23.984375 10.78125 23.96875 10.71875 C 23.878906 10.070313 23.503906 9.511719 23.03125 9.09375 C 22.492188 8.613281 21.800781 8.238281 21 7.9375 L 21 6.5 C 21 5.132813 19.867188 4 18.5 4 C 17.132813 4 16 5.132813 16 6.5 L 16 7.03125 C 15.667969 7.015625 15.34375 7 15 7 C 14.65625 7 14.332031 7.015625 14 7.03125 L 14 6.5 C 14 5.132813 12.867188 4 11.5 4 Z M 11.5 6 C 11.785156 6 12 6.214844 12 6.5 L 12 7.21875 C 11.65625 7.269531 11.324219 7.339844 11 7.40625 L 11 6.5 C 11 6.214844 11.214844 6 11.5 6 Z M 18.5 6 C 18.785156 6 19 6.214844 19 6.5 L 19 7.40625 C 18.675781 7.339844 18.34375 7.269531 18 7.21875 L 18 6.5 C 18 6.214844 18.214844 6 18.5 6 Z M 15 9 C 17.109375 9 19.019531 9.328125 20.3125 9.8125 C 20.957031 10.054688 21.449219 10.355469 21.71875 10.59375 C 21.988281 10.832031 22 10.945313 22 11 C 22 11.054688 21.988281 11.167969 21.71875 11.40625 C 21.449219 11.644531 20.957031 11.945313 20.3125 12.1875 C 19.019531 12.671875 17.109375 13 15 13 C 12.890625 13 10.980469 12.671875 9.6875 12.1875 C 9.042969 11.945313 8.550781 11.644531 8.28125 11.40625 C 8.011719 11.167969 8 11.054688 8 11 C 8 10.945313 8.011719 10.832031 8.28125 10.59375 C 8.550781 10.355469 9.042969 10.054688 9.6875 9.8125 C 10.980469 9.328125 12.890625 9 15 9 Z M 21.6875 13.75 C 21.628906 14.007813 21.589844 14.234375 21.53125 14.4375 C 21.308594 15.191406 21.125 15.5 21.125 15.5 C 21.042969 15.601563 20.6875 15.886719 20.0625 16.125 C 19.402344 16.375 18.480469 16.582031 17.5 16.6875 C 15.539063 16.898438 13.234375 16.710938 11.53125 15.96875 L 10.71875 17.78125 C 12.890625 18.726563 15.476563 18.929688 17.71875 18.6875 C 18.839844 18.566406 19.878906 18.332031 20.75 18 C 21.160156 17.84375 21.476563 17.59375 21.78125 17.34375 C 21.902344 17.496094 22.019531 17.609375 22.15625 17.8125 C 22.597656 18.476563 23 19.332031 23 20 L 23 23 C 23 24.667969 21.667969 26 20 26 L 10 26 C 8.332031 26 7 24.667969 7 23 L 7 20 C 7 19.332031 7.402344 18.476563 7.84375 17.8125 C 8.285156 17.148438 8.71875 16.71875 8.71875 16.71875 L 9.1875 16.21875 L 8.90625 15.59375 C 8.90625 15.59375 8.601563 14.855469 8.34375 13.78125 C 8.554688 13.882813 8.765625 13.976563 9 14.0625 C 10.605469 14.664063 12.691406 15 15 15 C 17.308594 15 19.394531 14.664063 21 14.0625 C 21.246094 13.96875 21.464844 13.855469 21.6875 13.75 Z "></path>
</g>
</svg>
