<?xml version="1.0" encoding="UTF-8"?>
<svg xmlns="http://www.w3.org/2000/svg" xmlns:xlink="http://www.w3.org/1999/xlink" viewBox="0 0 32 32" version="1.1">
<g>
<path d="M 12 6 C 9.222656 6 6.808594 6.429688 4.96875 7.625 C 3.128906 8.820313 2 10.867188 2 13.5 L 2 18.625 C 2 18.625 2.136719 19.4375 2.71875 20.21875 C 3.25 20.933594 4.246094 21.65625 5.71875 22.09375 C 6.558594 23.753906 8.09375 25 10 25 C 10.621094 25 11.15625 24.722656 11.6875 24.5 C 12.890625 25.394531 14.355469 26 16 26 C 17.644531 26 19.109375 25.394531 20.3125 24.5 C 20.84375 24.722656 21.378906 25 22 25 C 23.914063 25 25.445313 23.734375 26.28125 22.0625 C 27.855469 21.5 28.855469 20.792969 29.375 20.09375 C 29.65625 19.714844 29.824219 19.34375 29.90625 19.0625 C 29.988281 18.78125 30 18.5 30 18.5 L 30 13.5 C 30 10.882813 28.699219 8.851563 26.8125 7.65625 C 24.925781 6.460938 22.507813 6 20 6 L 19 6 L 19 11 L 20 11 C 22.40625 11 23.5625 11.605469 24.1875 12.3125 C 24.691406 12.878906 24.902344 13.628906 24.96875 14.40625 C 24.605469 14.4375 24.234375 14.46875 23.78125 14.46875 C 23.773438 14.464844 23.757813 14.472656 23.75 14.46875 C 23.207031 14.234375 22.640625 14 22 14 C 21.378906 14 20.84375 14.277344 20.3125 14.5 C 19.109375 13.605469 17.644531 13 16 13 C 14.355469 13 12.890625 13.605469 11.6875 14.5 C 11.15625 14.277344 10.621094 14 10 14 C 9.359375 14 8.792969 14.234375 8.25 14.46875 C 8.234375 14.46875 8.234375 14.46875 8.21875 14.46875 C 7.757813 14.46875 7.398438 14.4375 7.03125 14.40625 C 7.070313 13.601563 7.1875 12.882813 7.59375 12.34375 C 8.121094 11.644531 9.230469 11 12 11 L 13 11 L 13 6 Z M 11 8.09375 L 11 9.15625 C 8.578125 9.339844 6.871094 10 6 11.15625 C 5.300781 12.082031 5.09375 13.109375 5.03125 14.03125 C 4.675781 13.910156 4.390625 13.792969 4.25 13.6875 C 4.050781 13.535156 4.015625 13.441406 4 13.40625 C 4.023438 11.347656 4.722656 10.164063 6.03125 9.3125 C 7.167969 8.574219 8.941406 8.203125 11 8.09375 Z M 21 8.09375 C 22.839844 8.214844 24.546875 8.617188 25.75 9.375 C 27.128906 10.246094 27.949219 11.421875 28 13.3125 C 27.96875 13.371094 27.882813 13.523438 27.65625 13.6875 C 27.507813 13.792969 27.25 13.886719 26.9375 14 C 26.820313 12.996094 26.5 11.917969 25.6875 11 C 24.761719 9.953125 23.140625 9.339844 21 9.15625 Z M 16 15 C 17.367188 15 18.605469 15.496094 19.5 16.28125 L 20.03125 16.75 L 20.65625 16.40625 C 21.085938 16.152344 21.53125 16 22 16 C 22.441406 16 22.871094 16.117188 23.28125 16.34375 L 23.5 16.46875 L 23.75 16.46875 C 25.703125 16.46875 27.054688 16.191406 28 15.78125 L 28 18.5 C 27.980469 18.570313 27.914063 18.695313 27.78125 18.875 C 27.511719 19.238281 26.886719 19.832031 25.375 20.3125 L 24.90625 20.46875 L 24.75 20.90625 C 24.265625 22.179688 23.199219 23 22 23 C 21.53125 23 21.085938 22.847656 20.65625 22.59375 L 20.03125 22.25 L 19.5 22.71875 C 18.605469 23.503906 17.367188 24 16 24 C 14.632813 24 13.394531 23.503906 12.5 22.71875 L 11.96875 22.25 L 11.34375 22.59375 C 10.914063 22.847656 10.46875 23 10 23 C 8.800781 23 7.734375 22.179688 7.25 20.90625 L 7.0625 20.40625 L 6.5625 20.28125 C 5.226563 19.96875 4.625 19.417969 4.3125 19 C 4 18.582031 4 18.375 4 18.375 L 4 15.8125 C 4.9375 16.210938 6.277344 16.46875 8.25 16.46875 L 8.5 16.46875 L 8.71875 16.34375 C 9.128906 16.117188 9.558594 16 10 16 C 10.46875 16 10.914063 16.152344 11.34375 16.40625 L 11.96875 16.75 L 12.5 16.28125 C 13.394531 15.496094 14.632813 15 16 15 Z M 16 17.5 C 14.894531 17.5 14 18.394531 14 19.5 C 14 20.605469 14.894531 21.5 16 21.5 C 17.105469 21.5 18 20.605469 18 19.5 C 18 18.394531 17.105469 17.5 16 17.5 Z M 10 18 C 9.449219 18 9 18.671875 9 19.5 C 9 20.328125 9.449219 21 10 21 C 10.550781 21 11 20.328125 11 19.5 C 11 18.671875 10.550781 18 10 18 Z M 22 18 C 21.449219 18 21 18.671875 21 19.5 C 21 20.328125 21.449219 21 22 21 C 22.550781 21 23 20.328125 23 19.5 C 23 18.671875 22.550781 18 22 18 Z "></path>
</g>
</svg>
