<?xml version="1.0" encoding="UTF-8"?>
<svg xmlns="http://www.w3.org/2000/svg" xmlns:xlink="http://www.w3.org/1999/xlink" viewBox="0 0 32 32" version="1.1">
<g>
<path d="M 18.585938 5 L 16.585938 7 L 9 7 L 9 9.585938 L 8.585938 10 L 7 10 L 7 7 L 5 7 L 5 13.414063 L 6 14.414063 L 6 18.585938 L 5 19.585938 L 5 25 L 3 25 L 3 27 L 20.414063 27 L 22.414063 25 L 26.414063 25 L 28 23.414063 L 28 18.585938 L 26.914063 17.5 L 28 16.414063 L 28 6.585938 L 26.414063 5 Z M 19.414063 7 L 25.585938 7 L 26 7.414063 L 26 15.585938 L 25.585938 16 L 23 16 L 23 18 L 24.585938 18 L 26 19.414063 L 26 22.585938 L 25.585938 23 L 21.585938 23 L 19.585938 25 L 13 25 L 13 24 L 11 24 L 11 25 L 7 25 L 7 20.414063 L 8 19.414063 L 8 16.414063 L 9.585938 18 L 10 18 L 10 22 L 14 22 L 14 20 L 12 20 L 12 14 L 14 14 L 14 12 L 10 12 L 10 15.585938 L 7 12.585938 L 7 12 L 9.414063 12 L 11 10.414063 L 11 9 L 17.414063 9 Z M 15 12 L 15 16 L 13 16 L 13 18 L 15 18 L 15 22 L 19 22 L 19 20 L 17 20 L 17 14 L 19 14 L 19 12 Z M 20 12 L 20 16 L 18 16 L 18 18 L 20 18 L 20 22 L 24 22 L 24 20 L 22 20 L 22 14 L 24 14 L 24 12 Z "></path>
</g>
</svg>
