<?xml version="1.0" encoding="UTF-8"?>
<svg xmlns="http://www.w3.org/2000/svg" xmlns:xlink="http://www.w3.org/1999/xlink" viewBox="0 0 32 32" version="1.1">
<g>
<path d="M 7 3 L 7 6.84375 C 6.941406 6.996094 6.511719 8.121094 6.03125 9.71875 C 5.519531 11.421875 5 13.421875 5 15 L 5 29 L 23.25 29 L 28 26.625 L 28 13 C 28 9.796875 26.265625 7.117188 26 6.71875 L 26 3 Z M 9 5 L 24 5 L 24 6.78125 C 23.824219 7.21875 22 11.875 22 16 L 22 27 L 7 27 L 7 15 C 7 13.925781 7.480469 11.914063 7.96875 10.28125 C 8.457031 8.648438 8.9375 7.34375 8.9375 7.34375 L 9 7.1875 L 9 8 L 11 8 L 11 7 L 9 7 Z M 12 7 L 12 8 L 14 8 L 14 7 Z M 15 7 L 15 8 L 17 8 L 17 7 Z M 18 7 L 18 8 L 20 8 L 20 7 Z M 21 7 L 21 8 L 23 8 L 23 7 Z M 25.1875 9.625 C 25.601563 10.617188 26 11.835938 26 13 L 26 25.375 L 24 26.375 L 24 16 C 24 13.867188 24.640625 11.402344 25.1875 9.625 Z M 14.5 12.34375 L 13.71875 13.40625 C 13.71875 13.40625 12.808594 14.570313 11.90625 16 C 11.453125 16.714844 11.011719 17.488281 10.65625 18.25 C 10.300781 19.011719 10 19.714844 10 20.5 C 10 22.972656 12.027344 25 14.5 25 C 16.972656 25 19 22.972656 19 20.5 C 19 19.714844 18.699219 19.011719 18.34375 18.25 C 17.988281 17.488281 17.546875 16.714844 17.09375 16 C 16.191406 14.570313 15.28125 13.40625 15.28125 13.40625 Z M 14.5 15.75 C 14.824219 16.199219 14.953125 16.347656 15.40625 17.0625 C 15.828125 17.730469 16.261719 18.453125 16.5625 19.09375 C 16.863281 19.734375 17 20.320313 17 20.5 C 17 21.589844 16.308594 22.496094 15.34375 22.84375 C 15.742188 22.574219 16 22.109375 16 21.59375 C 16 20.765625 14.5 19 14.5 19 C 14.5 19 13 20.765625 13 21.59375 C 13 22.109375 13.257813 22.574219 13.65625 22.84375 C 12.691406 22.496094 12 21.589844 12 20.5 C 12 20.320313 12.136719 19.734375 12.4375 19.09375 C 12.738281 18.453125 13.171875 17.730469 13.59375 17.0625 C 14.046875 16.347656 14.175781 16.199219 14.5 15.75 Z "></path>
</g>
</svg>
