<?xml version="1.0" encoding="UTF-8"?>
<svg xmlns="http://www.w3.org/2000/svg" xmlns:xlink="http://www.w3.org/1999/xlink" viewBox="0 0 32 32" version="1.1">
<g>
<path d="M 16 5 C 9.9375 5 5 9.9375 5 16 C 5 22.0625 9.9375 27 16 27 C 22.0625 27 27 22.0625 27 16 C 27 9.9375 22.0625 5 16 5 Z M 16 7 C 20.980469 7 25 11.019531 25 16 C 25 20.980469 20.980469 25 16 25 C 11.019531 25 7 20.980469 7 16 C 7 11.019531 11.019531 7 16 7 Z M 15 10 L 15 11.1875 C 13.84375 11.605469 13 12.707031 13 14 C 13 15.644531 14.355469 17 16 17 C 16.566406 17 17 17.433594 17 18 C 17 18.566406 16.566406 19 16 19 C 15.433594 19 15 18.566406 15 18 L 13 18 C 13 19.292969 13.84375 20.394531 15 20.8125 L 15 22 L 17 22 L 17 20.8125 C 18.15625 20.394531 19 19.292969 19 18 C 19 16.355469 17.644531 15 16 15 C 15.433594 15 15 14.566406 15 14 C 15 13.433594 15.433594 13 16 13 C 16.566406 13 17 13.433594 17 14 L 19 14 C 19 12.707031 18.15625 11.605469 17 11.1875 L 17 10 Z "></path>
</g>
</svg>
