<?xml version="1.0" encoding="UTF-8"?>
<svg xmlns="http://www.w3.org/2000/svg" xmlns:xlink="http://www.w3.org/1999/xlink" viewBox="0 0 32 32" version="1.1">
<g>
<path d="M 16 5 C 9.9375 5 5 9.9375 5 16 C 5 22.0625 9.9375 27 16 27 C 22.0625 27 27 22.0625 27 16 C 27 9.9375 22.0625 5 16 5 Z M 16 7 C 20.980469 7 25 11.019531 25 16 C 25 20.980469 20.980469 25 16 25 C 11.019531 25 7 20.980469 7 16 C 7 11.019531 11.019531 7 16 7 Z M 15 11 C 15 12.117188 14.117188 13 13 13 L 13 15 C 13.734375 15 14.40625 14.785156 15 14.4375 L 15 19 L 13 19 L 13 21 L 19 21 L 19 19 L 17 19 L 17 11 Z "></path>
</g>
</svg>
