<?xml version="1.0" encoding="UTF-8"?>
<svg xmlns="http://www.w3.org/2000/svg" xmlns:xlink="http://www.w3.org/1999/xlink" viewBox="0 0 32 32" version="1.1">
<g>
<path d="M 3 6 L 3 26 L 29 26 L 29 6 Z M 5 8 L 27 8 L 27 10 L 5 10 Z M 5 12 L 27 12 L 27 24 L 5 24 Z M 21 13 L 21 14.0625 C 19.875 14.25 19 15.203125 19 16.375 C 19 17.128906 19.417969 17.820313 20.09375 18.15625 L 23 19.625 C 23 19.847656 22.847656 20 22.625 20 L 21.375 20 C 21.152344 20 21 19.847656 21 19.625 L 21 19 L 19 19 L 19 19.625 C 19 20.796875 19.875 21.75 21 21.9375 L 21 23 L 23 23 L 23 21.9375 C 24.125 21.75 25 20.796875 25 19.625 C 25 18.871094 24.582031 18.183594 23.90625 17.84375 L 21 16.375 C 21 16.152344 21.152344 16 21.375 16 L 22.625 16 C 22.847656 16 23 16.152344 23 16.375 L 23 17 L 25 17 L 25 16.375 C 25 15.203125 24.125 14.25 23 14.0625 L 23 13 Z M 7 20 L 7 22 L 16 22 L 16 20 Z "></path>
</g>
</svg>
