<?xml version="1.0" encoding="UTF-8"?>
<svg xmlns="http://www.w3.org/2000/svg" xmlns:xlink="http://www.w3.org/1999/xlink" viewBox="0 0 32 32" version="1.1">
<g>
<path d="M 16 3 C 13.753906 3 11.835938 4.289063 10.8125 6.125 C 10.542969 6.082031 10.296875 6 10 6 C 6.699219 6 4 8.699219 4 12 C 4 14.601563 5.671875 16.832031 8 17.65625 L 8 29 L 24 29 L 24 17.65625 C 26.328125 16.832031 28 14.601563 28 12 C 28 8.699219 25.300781 6 22 6 C 21.703125 6 21.457031 6.082031 21.1875 6.125 C 20.164063 4.289063 18.246094 3 16 3 Z M 16 5 C 17.707031 5 19.140625 6.0625 19.71875 7.5625 L 20.0625 8.40625 L 20.9375 8.15625 C 21.316406 8.050781 21.652344 8 22 8 C 24.21875 8 26 9.78125 26 12 C 26 14.21875 24.21875 16 22 16 L 22 23 L 10 23 L 10 16 C 7.78125 16 6 14.21875 6 12 C 6 9.78125 7.78125 8 10 8 C 10.347656 8 10.683594 8.050781 11.0625 8.15625 L 11.9375 8.40625 L 12.28125 7.5625 C 12.859375 6.0625 14.292969 5 16 5 Z M 13 17 L 13 21 L 15 21 L 15 17 Z M 17 17 L 17 21 L 19 21 L 19 17 Z M 10 25 L 22 25 L 22 27 L 10 27 Z "></path>
</g>
</svg>
