<?xml version="1.0" encoding="UTF-8"?>
<svg xmlns="http://www.w3.org/2000/svg" xmlns:xlink="http://www.w3.org/1999/xlink" viewBox="0 0 32 32" version="1.1">
<g>
<path d="M 19.125 3.125 C 19.125 3.125 17.550781 3.878906 16.84375 5.5 C 16.28125 5.660156 15.089844 6.058594 13.65625 7.21875 C 12.039063 8.53125 10.445313 10.757813 10.09375 14.15625 C 9.78125 14.070313 9.429688 14 9 14 C 8.03125 14 6.789063 14.242188 5.75 15.15625 C 4.710938 16.070313 4 17.617188 4 19.8125 C 4 23.789063 7.28125 27 11 27 C 12.851563 27 14.679688 26.136719 16 24.75 C 18.316406 27.171875 22.085938 27.730469 24.84375 26 C 27.859375 24.109375 29.105469 19.589844 26.96875 16.1875 C 25.773438 14.277344 24.171875 13.417969 22.78125 13.25 C 21.390625 13.082031 20.285156 13.492188 19.625 13.90625 C 19.363281 14.070313 19.152344 14.253906 18.96875 14.4375 C 18.171875 12.488281 17.695313 9.886719 18.53125 6.5625 C 18.730469 5.75 20.0625 4.875 20.0625 4.875 Z M 20.59375 6.3125 C 20.59375 6.3125 18.726563 8.027344 19.96875 10.1875 C 21.082031 11.207031 22.964844 11.070313 24 10.78125 C 24 10.78125 23.585938 8.546875 22.34375 7.5 C 21.042969 6.40625 20.59375 6.3125 20.59375 6.3125 Z M 16.25 7.9375 C 15.832031 11.066406 16.425781 13.648438 17.28125 15.59375 C 17.105469 15.648438 16.917969 15.71875 16.71875 15.8125 C 16.507813 15.554688 16.269531 15.320313 16.03125 15.125 C 14.941406 14.246094 13.78125 14 13 14 C 12.667969 14 12.359375 14.039063 12.09375 14.09375 C 12.421875 11.378906 13.660156 9.792969 14.90625 8.78125 C 15.378906 8.398438 15.832031 8.15625 16.25 7.9375 Z M 21.96875 15.25 C 22.164063 15.230469 22.355469 15.226563 22.5625 15.25 C 23.390625 15.347656 24.3125 15.753906 25.25 17.25 C 26.746094 19.636719 25.726563 23.09375 23.78125 24.3125 C 21.796875 25.554688 18.828125 25.078125 17.1875 23.09375 C 17.707031 22.113281 18 21.003906 18 19.8125 C 18 18.96875 17.867188 18.210938 17.65625 17.5625 C 17.808594 17.5 17.960938 17.46875 18.125 17.4375 C 18.410156 17.382813 18.730469 17.417969 19.25 17.09375 C 19.769531 16.765625 19.863281 16.476563 20.03125 16.25 C 20.199219 16.023438 20.375 15.820313 20.6875 15.625 C 20.863281 15.515625 21.378906 15.308594 21.96875 15.25 Z M 9 16 C 9.351563 16 9.605469 16.082031 9.875 16.1875 C 10.144531 16.292969 10.386719 16.5 11 16.5 C 11.613281 16.5 11.863281 16.292969 12.125 16.1875 C 12.386719 16.082031 12.628906 16 13 16 C 13.277344 16 14.132813 16.164063 14.78125 16.6875 C 15.429688 17.210938 16 18.046875 16 19.8125 C 16 22.632813 13.292969 25 11 25 C 8.464844 25 6 22.671875 6 19.8125 C 6 18.019531 6.5 17.152344 7.0625 16.65625 C 7.625 16.160156 8.375 16 9 16 Z "></path>
</g>
</svg>
