<?xml version="1.0" encoding="UTF-8"?>
<svg xmlns="http://www.w3.org/2000/svg" xmlns:xlink="http://www.w3.org/1999/xlink" viewBox="0 0 32 32" version="1.1">
<g>
<path d="M 8 2.59375 L 7.28125 3.28125 L 4.28125 6.28125 L 3.59375 7 L 4.28125 7.71875 L 15.28125 18.71875 L 16 19.40625 L 16.71875 18.71875 L 27.71875 7.71875 L 28.40625 7 L 27.71875 6.28125 L 24.71875 3.28125 L 24 2.59375 L 23.28125 3.28125 L 16 10.5625 L 8.71875 3.28125 Z M 8 5.4375 L 15.28125 12.71875 L 16 13.40625 L 16.71875 12.71875 L 24 5.4375 L 25.5625 7 L 16 16.5625 L 6.4375 7 Z M 8 13.59375 L 7.28125 14.28125 L 4.28125 17.28125 L 3.59375 18 L 4.28125 18.71875 L 15.28125 29.71875 L 16 30.40625 L 16.71875 29.71875 L 17.625 28.8125 C 19.085938 30.75 21.394531 32 24 32 C 28.40625 32 32 28.40625 32 24 C 32 20.671875 29.9375 17.796875 27.03125 16.59375 L 24.71875 14.28125 L 24 13.59375 L 23.28125 14.28125 L 21 16.59375 C 19.011719 17.40625 17.40625 19.011719 16.59375 21 L 16 21.5625 L 8.71875 14.28125 Z M 8 16.4375 L 15.28125 23.71875 L 16 24.40625 C 16.046875 25.3125 16.269531 26.164063 16.59375 26.96875 L 16 27.5625 L 6.4375 18 Z M 24 18 C 27.324219 18 30 20.675781 30 24 C 30 27.324219 27.324219 30 24 30 C 20.675781 30 18 27.324219 18 24 C 18 20.675781 20.675781 18 24 18 Z M 21 20 L 21 21 L 20 21 L 20 23 L 21 23 L 21 25 L 20 25 L 20 27 L 21 27 L 21 28 L 23 28 L 23 27 L 25 27 L 25 28 L 27 28 L 27 27 L 28 27 L 28 25 L 27 25 L 27 23 L 28 23 L 28 21 L 27 21 L 27 20 L 25 20 L 25 21 L 23 21 L 23 20 Z M 23 23 L 25 23 L 25 25 L 23 25 Z "></path>
</g>
</svg>
