<?xml version="1.0" encoding="UTF-8"?>
<svg xmlns="http://www.w3.org/2000/svg" xmlns:xlink="http://www.w3.org/1999/xlink" viewBox="0 0 32 32" version="1.1">
<g>
<path d="M 9 6 L 9 12 L 6 12 L 6 16 L 4 16 L 4 20 L 2 20 L 2 26 L 30 26 L 30 20 L 28 20 L 28 16 L 26 16 L 26 12 L 23 12 L 23 6 Z M 11 8 L 21 8 L 21 12 L 20 12 L 20 10.5 C 20 9.675781 19.324219 9 18.5 9 C 17.675781 9 17 9.675781 17 10.5 L 17 12 L 15 12 L 15 10.5 C 15 9.675781 14.324219 9 13.5 9 C 12.675781 9 12 9.675781 12 10.5 L 12 12 L 11 12 Z M 8 14 L 12 14 L 12 16 L 8 16 Z M 14 14 L 18 14 L 18 15 L 14 15 Z M 20 14 L 24 14 L 24 16 L 20 16 Z M 14 17 L 18 17 L 18 18 L 14 18 Z M 6 18 L 12 18 L 12 20 L 6 20 Z M 20 18 L 26 18 L 26 20 L 20 20 Z M 14 20 L 18 20 L 18 21 L 14 21 Z M 4 22 L 12 22 L 12 24 L 4 24 Z M 20 22 L 28 22 L 28 24 L 20 24 Z M 14 23 L 18 23 L 18 24 L 14 24 Z "></path>
</g>
</svg>
