<?xml version="1.0" encoding="UTF-8"?>
<svg xmlns="http://www.w3.org/2000/svg" xmlns:xlink="http://www.w3.org/1999/xlink" viewBox="0 0 32 32" version="1.1">
<g>
<path d="M 8.5 4 C 7.292969 4 6.296875 4.859375 6.0625 6 C 6.042969 6 6.019531 6 6 6 C 4.894531 6 4 6.894531 4 8 C 4 8.921875 4.621094 9.707031 5.46875 9.9375 C 5.179688 10.570313 5 11.261719 5 12 L 5 15 L 7 15 L 7 12 C 7 10.332031 8.332031 9 10 9 C 11.667969 9 13 10.332031 13 12 C 13 13.835938 12.339844 14.320313 11.4375 14.9375 C 10.984375 15.246094 10.46875 15.527344 9.96875 15.96875 C 9.46875 16.410156 9 17.140625 9 18 L 11 18 C 11 17.734375 11.03125 17.691406 11.28125 17.46875 C 11.53125 17.246094 12.015625 16.96875 12.5625 16.59375 C 13.316406 16.078125 14.1875 15.257813 14.65625 14 L 16.4375 14 C 16.414063 12.585938 15.664063 11.78125 14.9375 11.3125 C 14.777344 10.171875 14.238281 9.136719 13.4375 8.375 C 13.78125 8.015625 14 7.535156 14 7 C 14 5.894531 13.105469 5 12 5 C 11.527344 5 11.09375 5.164063 10.75 5.4375 C 10.347656 4.59375 9.496094 4 8.5 4 Z M 11 11 C 10.449219 11 10 11.449219 10 12 C 10 12.550781 10.449219 13 11 13 C 11.550781 13 12 12.550781 12 12 C 12 11.449219 11.550781 11 11 11 Z M 23 11 L 23 15 L 19 15 L 19 19 L 15 19 L 15 23 L 11 23 L 11 28 L 13 28 L 13 25 L 17 25 L 17 21 L 21 21 L 21 17 L 25 17 L 25 13 L 28 13 L 28 11 Z "></path>
</g>
</svg>
