<?xml version="1.0" encoding="UTF-8"?>
<svg xmlns="http://www.w3.org/2000/svg" xmlns:xlink="http://www.w3.org/1999/xlink" viewBox="0 0 32 32" version="1.1">
<g>
<path d="M 16 4 C 9.382813 4 4 9.382813 4 16 C 4 22.617188 9.382813 28 16 28 C 22.617188 28 28 22.617188 28 16 C 28 9.382813 22.617188 4 16 4 Z M 14.96875 6.0625 C 14.980469 6.0625 14.988281 6.0625 15 6.0625 L 15 8.0625 C 12.8125 8.339844 10.894531 9.503906 9.625 11.1875 L 7.875 10.1875 C 9.5 7.921875 12.035156 6.359375 14.96875 6.0625 Z M 17 6.0625 C 19.945313 6.351563 22.496094 7.914063 24.125 10.1875 L 22.375 11.21875 C 21.101563 9.523438 19.199219 8.339844 17 8.0625 Z M 16 10 C 19.324219 10 22 12.675781 22 16 C 22 19.324219 19.324219 22 16 22 C 12.675781 22 10 19.324219 10 16 C 10 12.675781 12.675781 10 16 10 Z M 6.875 11.90625 L 8.625 12.90625 C 8.21875 13.863281 8 14.898438 8 16 C 8 17.101563 8.21875 18.136719 8.625 19.09375 L 6.875 20.09375 C 6.316406 18.84375 6 17.460938 6 16 C 6 14.535156 6.3125 13.15625 6.875 11.90625 Z M 25.125 11.90625 C 25.683594 13.15625 26 14.539063 26 16 C 26 17.460938 25.683594 18.84375 25.125 20.09375 L 23.375 19.09375 C 23.78125 18.136719 24 17.101563 24 16 C 24 14.898438 23.78125 13.863281 23.375 12.90625 Z M 16.9375 12.3125 L 14.15625 13.96875 L 16.375 17.65625 L 15.4375 18.21875 L 13.21875 14.53125 L 12.3125 15.0625 L 13.40625 16.90625 L 12.5 17.46875 L 13.03125 18.40625 L 13.96875 17.84375 L 14.53125 18.78125 L 15.0625 19.6875 L 17.84375 18.03125 L 15.625 14.34375 L 16.5625 13.78125 L 18.78125 17.46875 L 19.6875 16.9375 L 18.59375 15.09375 L 19.5 14.53125 L 18.96875 13.59375 L 18.03125 14.15625 Z M 9.625 20.78125 C 10.898438 22.476563 12.800781 23.660156 15 23.9375 L 15 25.9375 C 12.054688 25.648438 9.503906 24.085938 7.875 21.8125 Z M 22.375 20.8125 L 24.125 21.8125 C 22.496094 24.085938 19.945313 25.648438 17 25.9375 L 17 23.9375 C 19.1875 23.660156 21.105469 22.496094 22.375 20.8125 Z "></path>
</g>
</svg>
