<?xml version="1.0" encoding="UTF-8"?>
<svg xmlns="http://www.w3.org/2000/svg" xmlns:xlink="http://www.w3.org/1999/xlink" viewBox="0 0 32 32" version="1.1">
<g>
<path d="M 16 4 C 9.382813 4 4 9.382813 4 16 C 4 22.617188 9.382813 28 16 28 C 22.617188 28 28 22.617188 28 16 C 28 13.972656 27.515625 12.050781 26.625 10.375 L 27.75 9.25 L 26.46875 7.96875 L 28.96875 5.4375 L 27.5625 4.03125 L 25.03125 6.53125 L 23.59375 5.09375 L 22.65625 6.03125 C 20.75 4.757813 18.457031 4 16 4 Z M 16 6 C 21.535156 6 26 10.464844 26 16 C 26 16.992188 25.859375 17.941406 25.59375 18.84375 L 23.1875 17.0625 L 23 13.4375 L 20.1875 15.71875 L 17.03125 15.09375 L 17.96875 18.375 L 16.15625 21.53125 L 19.5 21.34375 L 21.625 23.9375 L 22.75 20.46875 L 25.5 19.09375 C 24.195313 23.101563 20.449219 26 16 26 C 12.832031 26 10.019531 24.539063 8.1875 22.25 L 9.75 22.90625 L 8.84375 19.71875 L 10 17.3125 L 7.59375 17 L 6.09375 14.75 C 6.476563 11.644531 8.261719 9.015625 10.8125 7.46875 L 9.65625 9.53125 L 12.40625 8.875 L 14.15625 9.9375 L 14.6875 7.96875 L 17.15625 6.5625 L 15.46875 6.03125 C 15.644531 6.023438 15.820313 6 16 6 Z "></path>
</g>
</svg>
