<?xml version="1.0" encoding="UTF-8"?>
<svg xmlns="http://www.w3.org/2000/svg" xmlns:xlink="http://www.w3.org/1999/xlink" viewBox="0 0 32 32" version="1.1">
<g>
<path d="M 16 2.25 L 15.1875 3.4375 C 15.1875 3.4375 14.648438 4.191406 14.125 5.09375 C 13.863281 5.546875 13.617188 6.019531 13.40625 6.5 C 13.195313 6.980469 13 7.421875 13 8 C 13 9.644531 14.355469 11 16 11 C 17.644531 11 19 9.644531 19 8 C 19 7.421875 18.804688 6.980469 18.59375 6.5 C 18.382813 6.019531 18.136719 5.546875 17.875 5.09375 C 17.351563 4.191406 16.8125 3.4375 16.8125 3.4375 Z M 16 11 L 13 11 L 13 23 L 6 23 L 6 24 C 6 26.75 8.25 29 11 29 L 21 29 C 23.75 29 26 26.75 26 24 L 26 23 L 19 23 L 19 11 Z M 16 5.875 C 16.066406 5.984375 16.058594 5.976563 16.125 6.09375 C 16.363281 6.503906 16.617188 6.941406 16.78125 7.3125 C 16.945313 7.683594 17 8.027344 17 8 C 17 8.554688 16.554688 9 16 9 C 15.445313 9 15 8.554688 15 8 C 15 8.027344 15.054688 7.683594 15.21875 7.3125 C 15.382813 6.941406 15.636719 6.503906 15.875 6.09375 C 15.941406 5.976563 15.933594 5.984375 16 5.875 Z M 15 13 L 17 13 L 17 23 L 15 23 Z M 8.40625 25 L 23.59375 25 C 23.15625 26.113281 22.277344 27 21 27 L 11 27 C 9.722656 27 8.84375 26.113281 8.40625 25 Z "></path>
</g>
</svg>
