<?xml version="1.0" encoding="UTF-8"?>
<svg xmlns="http://www.w3.org/2000/svg" xmlns:xlink="http://www.w3.org/1999/xlink" viewBox="0 0 32 32" version="1.1">
<g>
<path d="M 10 2 L 10 7.5625 L 8.09375 18.03125 C 7.714844 19.917969 8.460938 21.847656 10 23 L 18 29 C 18.894531 29.671875 19.957031 30 21 30 C 22.519531 30 24.023438 29.304688 25 28 C 26.648438 25.800781 26.199219 22.648438 24 21 L 18.53125 16.875 L 19.90625 8.96875 L 20.0625 8 L 19.125 7.8125 L 12 6.40625 L 12 2 Z M 11.875 8.375 L 17.78125 9.5625 L 17.4375 11.5 L 11.53125 10.3125 Z M 11.15625 12.28125 L 17.09375 13.46875 L 16.4375 17.125 L 16.3125 17.75 L 16.8125 18.125 L 22.25 22.15625 C 20.117188 22.660156 18.460938 24.414063 18.09375 26.59375 L 13.5 23.15625 C 13.8125 22.5 14 21.769531 14 21 C 14 18.753906 12.484375 16.875 10.4375 16.25 Z M 10.09375 18.1875 C 11.21875 18.617188 12 19.714844 12 21 C 12 21.316406 11.933594 21.617188 11.84375 21.90625 L 11.1875 21.40625 C 10.261719 20.710938 9.835938 19.542969 10.0625 18.40625 Z M 23.5 24 L 23.84375 24 C 24.171875 24.917969 24.039063 25.96875 23.40625 26.8125 C 22.8125 27.605469 21.914063 28 21 28 C 20.664063 28 20.328125 27.925781 20 27.8125 L 20 27.5 C 20 25.554688 21.554688 24 23.5 24 Z "></path>
</g>
</svg>
