<?xml version="1.0" encoding="UTF-8"?>
<svg xmlns="http://www.w3.org/2000/svg" xmlns:xlink="http://www.w3.org/1999/xlink" viewBox="0 0 32 32" version="1.1">
<g>
<path d="M 16 2 L 15.0625 3.875 L 13 4.1875 L 14.5 5.65625 L 14.15625 7.71875 L 15.6875 6.875 L 15.28125 7.28125 L 9.34375 13.25 L 8.34375 14.21875 L 9.625 14.84375 C 9.625 14.84375 10.640625 15.210938 12.0625 15.53125 L 7.65625 19.9375 L 6.65625 20.90625 L 7.90625 21.53125 C 7.90625 21.53125 8.984375 21.835938 9.53125 22.03125 L 5.9375 25.625 L 4.96875 26.625 L 6.21875 27.25 C 6.21875 27.25 9.757813 29 16 29 C 22.242188 29 25.8125 27.25 25.8125 27.25 L 27.03125 26.625 L 26.0625 25.625 L 22.46875 22.03125 C 23.015625 21.835938 24.09375 21.53125 24.09375 21.53125 L 25.34375 20.90625 L 24.34375 19.9375 L 19.9375 15.53125 C 21.359375 15.210938 22.375 14.84375 22.375 14.84375 L 23.65625 14.21875 L 22.65625 13.25 L 16.71875 7.28125 L 16.3125 6.875 L 17.84375 7.71875 L 17.5 5.65625 L 19 4.1875 L 16.9375 3.875 Z M 16 9.4375 L 20 13.40625 C 19.40625 13.605469 19.285156 13.761719 17.8125 13.90625 L 16 14.09375 L 14.1875 13.90625 C 12.714844 13.761719 12.59375 13.605469 12 13.40625 Z M 16 14.4375 L 17.1875 15.59375 L 21.78125 20.1875 C 21.316406 20.351563 21.328125 20.40625 20.375 20.59375 L 18.53125 20.96875 L 19.875 22.28125 L 23.53125 25.9375 C 22.257813 26.394531 20.078125 27 16 27 C 11.960938 27 9.789063 26.394531 8.5 25.9375 L 12.125 22.28125 L 13.46875 20.96875 L 11.625 20.59375 C 10.671875 20.40625 10.683594 20.351563 10.21875 20.1875 L 14.8125 15.59375 Z "></path>
</g>
</svg>
