<?xml version="1.0" encoding="UTF-8"?>
<svg xmlns="http://www.w3.org/2000/svg" xmlns:xlink="http://www.w3.org/1999/xlink" viewBox="0 0 32 32" version="1.1">
<g>
<path d="M 20 2.96875 L 20 7.6875 C 16.71875 6.289063 12.644531 7.042969 9.84375 9.84375 C 7.046875 12.640625 6.296875 16.714844 7.6875 20 L 2.96875 20 L 4.46875 21.65625 L 5.8125 23.15625 L 4.3125 26.28125 L 4 26.9375 L 5.0625 28 L 5.6875 27.6875 L 8.84375 26.1875 L 10.34375 27.53125 L 12 29.03125 L 12 24.3125 C 15.285156 25.703125 19.359375 24.953125 22.15625 22.15625 C 24.957031 19.355469 25.710938 15.28125 24.3125 12 L 29.03125 12 L 27.53125 10.34375 L 26.1875 8.84375 L 27.6875 5.71875 L 28 5.0625 L 26.9375 4 L 26.3125 4.3125 L 23.15625 5.8125 L 21.65625 4.46875 Z M 24.71875 7.28125 L 24.09375 8.5625 L 23.8125 9.15625 L 24.25 9.65625 L 24.5625 10 L 23.09375 10 C 22.933594 9.804688 22.777344 9.589844 22.59375 9.40625 C 22.410156 9.222656 22.195313 9.066406 22 8.90625 L 22 7.4375 L 22.34375 7.75 L 22.84375 8.1875 L 23.4375 7.90625 Z M 16.34375 9 C 18.132813 8.929688 19.867188 9.554688 21.15625 10.84375 C 23.738281 13.425781 23.613281 17.824219 20.71875 20.71875 C 17.824219 23.613281 13.425781 23.738281 10.84375 21.15625 C 8.261719 18.574219 8.386719 14.175781 11.28125 11.28125 C 12.730469 9.832031 14.554688 9.070313 16.34375 9 Z M 15 12 L 15 14.25 L 13.09375 13.09375 L 12.0625 14.8125 L 14.0625 16 L 12.0625 17.1875 L 13.09375 18.90625 L 15 17.75 L 15 20 L 17 20 L 17 17.75 L 18.90625 18.90625 L 19.9375 17.1875 L 17.9375 16 L 19.9375 14.8125 L 18.90625 13.09375 L 17 14.25 L 17 12 Z M 7.4375 22 L 8.875 22 C 9.042969 22.207031 9.214844 22.402344 9.40625 22.59375 C 9.597656 22.785156 9.792969 22.957031 10 23.125 L 10 24.5625 L 9.65625 24.25 L 9.15625 23.8125 L 8.5625 24.09375 L 7.28125 24.71875 L 7.90625 23.4375 L 8.1875 22.84375 L 7.75 22.34375 Z "></path>
</g>
</svg>
