<?xml version="1.0" encoding="UTF-8"?>
<svg xmlns="http://www.w3.org/2000/svg" xmlns:xlink="http://www.w3.org/1999/xlink" viewBox="0 0 32 32" version="1.1">
<g>
<path d="M 20 16 C 20 18.210938 18.210938 20 16 20 C 13.789063 20 12 18.210938 12 16 C 12 13.789063 13.789063 12 16 12 C 18.210938 12 20 13.789063 20 16 Z "></path>
<path d="M 27 16 C 27 22.074219 22.074219 27 16 27 C 9.925781 27 5 22.074219 5 16 C 5 9.925781 9.925781 5 16 5 C 22.074219 5 27 9.925781 27 16 Z "></path>
<path d="M 7.761719 8.789063 C 7.585938 8.613281 7.304688 8.59375 7.105469 8.746094 C 6.90625 8.898438 6.851563 9.175781 6.980469 9.394531 L 11.816406 17.773438 C 11.90625 17.929688 12.074219 18.023438 12.25 18.023438 C 12.28125 18.023438 12.316406 18.019531 12.351563 18.011719 C 12.5625 17.96875 12.722656 17.792969 12.746094 17.578125 L 13.121094 14.351563 C 13.136719 14.199219 13.085938 14.046875 12.972656 13.941406 Z "></path>
<path d="M 18.996094 18.03125 L 16.015625 19.320313 C 15.871094 19.382813 15.769531 19.503906 15.730469 19.652344 L 13.871094 26.738281 C 13.808594 26.980469 13.933594 27.234375 14.164063 27.328125 C 14.230469 27.351563 14.292969 27.367188 14.355469 27.367188 C 14.53125 27.367188 14.699219 27.273438 14.789063 27.117188 L 19.628906 18.738281 C 19.734375 18.550781 19.710938 18.316406 19.566406 18.15625 C 19.425781 17.996094 19.191406 17.945313 18.996094 18.03125 Z "></path>
<path d="M 26.230469 11.492188 L 16.558594 11.488281 C 16.34375 11.488281 16.152344 11.628906 16.082031 11.832031 C 16.015625 12.039063 16.085938 12.261719 16.261719 12.390625 L 18.867188 14.328125 C 18.953125 14.394531 19.058594 14.429688 19.164063 14.429688 C 19.210938 14.429688 19.253906 14.421875 19.296875 14.410156 L 26.363281 12.472656 C 26.605469 12.40625 26.761719 12.171875 26.726563 11.925781 C 26.695313 11.675781 26.480469 11.492188 26.230469 11.492188 Z "></path>
</g>
</svg>
