<?xml version="1.0" encoding="UTF-8"?>
<svg xmlns="http://www.w3.org/2000/svg" xmlns:xlink="http://www.w3.org/1999/xlink" viewBox="0 0 32 32" version="1.1">
<g>
<path d="M 15.625 2.96875 C 13.890625 2.949219 6.71875 3.484375 3 13 C 3 13 3.75 12.6875 5 12 C 3.25 14.1875 3 20 3 20 L 5 19 C 3 22.25 3 29 3 29 L 10.78125 26.40625 C 12.347656 28.007813 14.207031 29 16 29 C 17.800781 29 19.644531 28.03125 21.1875 26.40625 L 29 29 C 29 29 28.875 22.6875 27 19 L 29 20 C 29 20 28.75 14.1875 27 12 C 28.25 12.6875 29 13 29 13 C 24.75 2.125 16 3 16 3 C 16 3 15.871094 2.972656 15.625 2.96875 Z M 15.03125 7.09375 C 15.082031 7.597656 15.484375 8 16 8 C 16.515625 8 16.917969 7.597656 16.96875 7.09375 C 20.378906 7.566406 23 10.453125 23 14 L 23 14.875 L 23.8125 15.03125 C 24.496094 15.167969 25 15.765625 25 16.5 C 25 17.339844 24.339844 18 23.5 18 C 23.652344 18 23.648438 18.007813 23.46875 18 L 22.5 17.96875 L 22.4375 18.90625 C 22.203125 21.441406 21.15625 23.472656 19.875 24.875 C 18.59375 26.277344 17.0625 27 16 27 C 14.96875 27 13.324219 26.21875 12 24.78125 C 10.675781 23.34375 9.667969 21.332031 9.59375 18.96875 L 9.5625 18 L 8.5 18 C 7.660156 18 7 17.339844 7 16.5 C 7 15.765625 7.503906 15.167969 8.1875 15.03125 L 9 14.875 L 9 14 C 9 12.117188 9.738281 10.410156 10.9375 9.15625 L 12.59375 11.28125 L 11.40625 12.1875 L 12.59375 13.8125 L 13.84375 12.875 L 15.21875 14.625 L 16.78125 13.375 L 15.4375 11.65625 L 16.59375 10.8125 L 15.40625 9.1875 L 14.21875 10.09375 L 12.53125 7.9375 C 13.289063 7.503906 14.128906 7.21875 15.03125 7.09375 Z M 11 15 C 11 15 10.582031 18 13 18 C 14.332031 18 15 17 15 17 Z M 21 15 L 17 17 C 17 17 17.667969 18 19 18 C 21.417969 18 21 15 21 15 Z M 14 21 C 13.449219 21 13 21.449219 13 22 C 13 22 12.992188 22.15625 13.0625 22.375 C 13.066406 22.382813 13.089844 22.398438 13.09375 22.40625 C 13.28125 22.988281 13.894531 24 16 24 C 18.105469 24 18.71875 22.988281 18.90625 22.40625 C 18.910156 22.398438 18.933594 22.382813 18.9375 22.375 C 19.007813 22.15625 19 22 19 22 C 19 21.449219 18.550781 21 18 21 L 17.5 22 L 17 21 L 16.5 22 L 16 21 L 15.5 22 L 15 21 L 14.5 22 Z "></path>
</g>
</svg>
