<?xml version="1.0" encoding="UTF-8"?>
<svg xmlns="http://www.w3.org/2000/svg" xmlns:xlink="http://www.w3.org/1999/xlink" viewBox="0 0 32 32" version="1.1">
<g>
<path d="M 16 5 C 12.789063 5 9.871094 5.828125 7.6875 7.21875 C 5.503906 8.609375 4 10.640625 4 13 L 4 19 C 4 21.359375 5.503906 23.390625 7.6875 24.78125 C 9.871094 26.171875 12.789063 27 16 27 C 19.210938 27 22.128906 26.171875 24.3125 24.78125 C 26.496094 23.390625 28 21.359375 28 19 L 28 13 C 28 10.640625 26.496094 8.609375 24.3125 7.21875 C 22.128906 5.828125 19.210938 5 16 5 Z M 15.78125 7 C 15.953125 7.046875 16.914063 7.316406 17.9375 7.9375 C 19.058594 8.617188 20 9.546875 20 11 C 20 12.09375 19.484375 12.742188 18.6875 13.25 C 17.890625 13.757813 16.789063 14 16.09375 14 C 15.183594 14 14.296875 13.859375 13.75 13.59375 C 13.203125 13.328125 13 13.125 13 12.5 C 13 12.28125 13.039063 12.179688 13.21875 12 C 13.398438 11.820313 13.734375 11.59375 14.15625 11.4375 C 15.003906 11.125 16.191406 11 17 11 L 17 9 C 15.996094 9 14.667969 9.117188 13.46875 9.5625 C 12.867188 9.785156 12.285156 10.089844 11.8125 10.5625 C 11.339844 11.035156 11 11.738281 11 12.5 C 11 13.839844 11.871094 14.882813 12.875 15.375 C 13.878906 15.867188 15.003906 16 16.09375 16 C 17.199219 16 18.546875 15.703125 19.75 14.9375 C 20.953125 14.171875 22 12.804688 22 11 C 22 9.664063 21.488281 8.59375 20.78125 7.75 C 21.710938 8.058594 22.535156 8.453125 23.25 8.90625 C 25.046875 10.050781 26 11.492188 26 13 C 26 14.507813 25.046875 15.949219 23.25 17.09375 C 21.453125 18.238281 18.867188 19 16 19 C 13.132813 19 10.546875 18.238281 8.75 17.09375 C 6.953125 15.949219 6 14.507813 6 13 C 6 11.492188 6.953125 10.050781 8.75 8.90625 C 10.5 7.792969 13.003906 7.039063 15.78125 7 Z M 9 12 C 8.449219 12 8 12.449219 8 13 C 8 13.550781 8.449219 14 9 14 C 9.550781 14 10 13.550781 10 13 C 10 12.449219 9.550781 12 9 12 Z M 23 13 C 22.449219 13 22 13.449219 22 14 C 22 14.550781 22.449219 15 23 15 C 23.550781 15 24 14.550781 24 14 C 24 13.449219 23.550781 13 23 13 Z M 11 15 C 10.449219 15 10 15.449219 10 16 C 10 16.550781 10.449219 17 11 17 C 11.550781 17 12 16.550781 12 16 C 12 15.449219 11.550781 15 11 15 Z M 6 17.4375 C 6.496094 17.933594 7.0625 18.382813 7.6875 18.78125 C 9.871094 20.171875 12.789063 21 16 21 C 19.210938 21 22.128906 20.171875 24.3125 18.78125 C 24.9375 18.382813 25.503906 17.933594 26 17.4375 L 26 19 C 26 20.507813 25.046875 21.949219 23.25 23.09375 C 22.515625 23.5625 21.652344 23.9375 20.6875 24.25 C 20.507813 24.085938 20.261719 24 20 24 C 19.5625 24 19.199219 24.292969 19.0625 24.6875 C 18.101563 24.878906 17.0625 25 16 25 C 13.132813 25 10.546875 24.238281 8.75 23.09375 C 6.953125 21.949219 6 20.507813 6 19 Z M 20 21 C 19.449219 21 19 21.449219 19 22 C 19 22.550781 19.449219 23 20 23 C 20.550781 23 21 22.550781 21 22 C 21 21.449219 20.550781 21 20 21 Z M 17 22 C 16.449219 22 16 22.449219 16 23 C 16 23.550781 16.449219 24 17 24 C 17.550781 24 18 23.550781 18 23 C 18 22.449219 17.550781 22 17 22 Z "></path>
</g>
</svg>
