<?xml version="1.0" encoding="UTF-8"?>
<svg xmlns="http://www.w3.org/2000/svg" xmlns:xlink="http://www.w3.org/1999/xlink" viewBox="0 0 32 32" version="1.1">
<g>
<path d="M 16 3.007813 C 12.671875 3.007813 9.339844 4.273438 6.804688 6.808594 C 1.738281 11.878906 1.738281 20.125 6.808594 25.191406 C 11.878906 30.261719 20.125 30.261719 25.191406 25.191406 C 30.261719 20.121094 30.261719 11.875 25.191406 6.804688 C 22.65625 4.273438 19.328125 3.003906 16 3.007813 Z M 16 4.992188 C 18.8125 4.992188 21.625 6.070313 23.777344 8.222656 C 28.082031 12.527344 28.082031 19.472656 23.777344 23.777344 C 19.472656 28.082031 12.527344 28.082031 8.222656 23.777344 C 3.917969 19.472656 3.917969 12.527344 8.222656 8.222656 C 10.375 6.070313 13.1875 4.996094 16 4.992188 Z M 11.050781 11.050781 L 11.050781 16.707031 L 13.171875 14.585938 L 20.242188 21.65625 L 21.65625 20.242188 L 14.585938 13.171875 L 16.707031 11.050781 Z "></path>
</g>
</svg>
