<?xml version="1.0" encoding="UTF-8"?>
<svg xmlns="http://www.w3.org/2000/svg" xmlns:xlink="http://www.w3.org/1999/xlink" viewBox="0 0 32 32" version="1.1">
<g>
<path d="M 16 2 L 16 5 L 21 3.53125 Z M 16 5 L 3 14.5 L 3 17.21875 C 3 17.867188 3.382813 18.613281 3.96875 19.15625 L 2.875 29 L 13.8125 29 L 13.96875 28.1875 L 14.8125 24 L 17.1875 24 L 18.03125 28.1875 L 18.1875 29 L 29.125 29 L 28.03125 19.15625 C 28.617188 18.613281 29 17.867188 29 17.21875 L 29 14.5 Z M 16 7.5 L 27 15.5 L 27 17.21875 C 27 17.546875 26.515625 18 26 18 C 25.558594 18 25 17.484375 25 17 L 22.96875 17 C 22.832031 17.300781 22.210938 18 21.4375 18 C 20.640625 18 20.046875 17.222656 20 17 L 17.9375 17 C 17.691406 17.339844 16.894531 18 16 18 C 15.105469 18 14.308594 17.339844 14.0625 17 L 12 17 C 11.914063 17.285156 11.328125 18 10.5625 18 C 9.734375 18 9.058594 17.191406 9 17 L 7 17 C 7 17.46875 6.433594 18 6 18 C 5.484375 18 5 17.597656 5 17.21875 L 5 15.5 Z M 13.09375 18.875 C 13.847656 19.515625 14.910156 20 16 20 C 17.089844 20 18.152344 19.515625 18.90625 18.875 C 19.519531 19.507813 20.40625 20 21.4375 20 C 22.398438 20 23.265625 19.578125 23.90625 19 C 24.4375 19.578125 25.167969 20 26 20 C 26.03125 20 26.0625 20 26.09375 20 L 26.875 27 L 19.8125 27 L 18.96875 22.8125 L 18.8125 22 L 13.1875 22 L 13.03125 22.8125 L 12.1875 27 L 5.125 27 L 5.90625 20 C 5.9375 20 5.96875 20 6 20 C 6.832031 20 7.5625 19.578125 8.09375 19 C 8.734375 19.578125 9.601563 20 10.5625 20 C 11.59375 20 12.480469 19.507813 13.09375 18.875 Z "></path>
</g>
</svg>
