<?xml version="1.0" encoding="UTF-8"?>
<svg xmlns="http://www.w3.org/2000/svg" xmlns:xlink="http://www.w3.org/1999/xlink" viewBox="0 0 32 32" version="1.1">
<g>
<path d="M 5 5 L 5 27 L 27 27 L 27 5 Z M 7 7 L 15.5625 7 L 13.25 9.3125 C 12.863281 9.132813 12.449219 9 12 9 C 10.355469 9 9 10.355469 9 12 C 9 13.644531 10.355469 15 12 15 C 13.644531 15 15 13.644531 15 12 C 15 11.550781 14.867188 11.136719 14.6875 10.75 L 18.4375 7 L 25 7 L 25 23.5625 L 22.6875 21.25 C 22.867188 20.863281 23 20.449219 23 20 C 23 18.355469 21.644531 17 20 17 C 18.355469 17 17 18.355469 17 20 C 17 21.644531 18.355469 23 20 23 C 20.449219 23 20.863281 22.867188 21.25 22.6875 L 23.5625 25 L 7 25 Z M 20 9 C 18.355469 9 17 10.355469 17 12 C 17 12.449219 17.132813 12.863281 17.3125 13.25 L 13.25 17.3125 C 12.863281 17.132813 12.449219 17 12 17 C 10.355469 17 9 18.355469 9 20 C 9 21.644531 10.355469 23 12 23 C 13.644531 23 15 21.644531 15 20 C 15 19.550781 14.867188 19.136719 14.6875 18.75 L 18.75 14.6875 C 19.136719 14.867188 19.550781 15 20 15 C 21.644531 15 23 13.644531 23 12 C 23 10.355469 21.644531 9 20 9 Z M 12 11 C 12.5625 11 13 11.4375 13 12 C 13 12.5625 12.5625 13 12 13 C 11.4375 13 11 12.5625 11 12 C 11 11.4375 11.4375 11 12 11 Z M 20 11 C 20.5625 11 21 11.4375 21 12 C 21 12.5625 20.5625 13 20 13 C 19.4375 13 19 12.5625 19 12 C 19 11.4375 19.4375 11 20 11 Z M 12 19 C 12.5625 19 13 19.4375 13 20 C 13 20.5625 12.5625 21 12 21 C 11.4375 21 11 20.5625 11 20 C 11 19.4375 11.4375 19 12 19 Z M 20 19 C 20.5625 19 21 19.4375 21 20 C 21 20.5625 20.5625 21 20 21 C 19.4375 21 19 20.5625 19 20 C 19 19.4375 19.4375 19 20 19 Z "></path>
</g>
</svg>
