<?xml version="1.0" encoding="UTF-8"?>
<svg xmlns="http://www.w3.org/2000/svg" xmlns:xlink="http://www.w3.org/1999/xlink" viewBox="0 0 32 32" version="1.1">
<g>
<path d="M 14 4 C 12.742188 4 11.847656 4.890625 11.40625 6 L 11 6 C 8.25 6 6 8.25 6 11 L 6 21 C 6 23.230469 7.246094 25.183594 9.0625 26.21875 L 7 29 L 9.34375 29 L 10.90625 26.90625 C 11.257813 26.96875 11.632813 27 12 27 L 20 27 C 20.367188 27 20.742188 26.96875 21.09375 26.90625 L 22.65625 29 L 25 29 L 22.9375 26.21875 C 24.753906 25.183594 26 23.230469 26 21 L 26 11 C 26 8.25 23.75 6 21 6 L 20.59375 6 C 20.152344 4.890625 19.257813 4 18 4 Z M 14 6 L 18 6 C 18.566406 6 19 6.433594 19 7 L 19 8 L 21 8 C 22.320313 8 23.4375 8.828125 23.84375 10 L 8.15625 10 C 8.5625 8.828125 9.679688 8 11 8 L 13 8 L 13 7 C 13 6.433594 13.433594 6 14 6 Z M 8 12 L 24 12 L 24 17 L 8 17 Z M 8 19 L 24 19 L 24 21 C 24 23.21875 22.21875 25 20 25 L 12 25 C 9.78125 25 8 23.21875 8 21 Z M 11.5 20 C 10.671875 20 10 20.671875 10 21.5 C 10 22.328125 10.671875 23 11.5 23 C 12.328125 23 13 22.328125 13 21.5 C 13 20.671875 12.328125 20 11.5 20 Z M 20.5 20 C 19.671875 20 19 20.671875 19 21.5 C 19 22.328125 19.671875 23 20.5 23 C 21.328125 23 22 22.328125 22 21.5 C 22 20.671875 21.328125 20 20.5 20 Z "></path>
</g>
</svg>
