<?xml version="1.0" encoding="UTF-8"?>
<svg xmlns="http://www.w3.org/2000/svg" xmlns:xlink="http://www.w3.org/1999/xlink" viewBox="0 0 32 32" version="1.1">
<g>
<path d="M 15 4 L 15 6.09375 C 12.726563 6.5625 11 8.59375 11 11 L 11 16.59375 L 7.59375 18.09375 L 7 18.34375 L 7 27 L 15 27 L 15 24 C 15 23.433594 15.433594 23 16 23 C 16.566406 23 17 23.433594 17 24 L 17 27 L 25 27 L 25 18.34375 L 24.40625 18.09375 L 21 16.59375 L 21 11 C 21 8.59375 19.273438 6.5625 17 6.09375 L 17 4 Z M 16 8 C 17.320313 8 18.4375 8.828125 18.84375 10 L 13.15625 10 C 13.5625 8.828125 14.679688 8 16 8 Z M 13 12 L 19 12 L 19 15.71875 L 16.40625 14.59375 L 16 14.40625 L 15.59375 14.59375 L 13 15.71875 Z M 16 16.59375 L 23 19.65625 L 23 25 L 19 25 L 19 24 C 19 22.355469 17.644531 21 16 21 C 14.355469 21 13 22.355469 13 24 L 13 25 L 9 25 L 9 19.65625 Z "></path>
</g>
</svg>
