<?xml version="1.0" encoding="UTF-8"?>
<svg xmlns="http://www.w3.org/2000/svg" xmlns:xlink="http://www.w3.org/1999/xlink" viewBox="0 0 32 32" version="1.1">
<g>
<path d="M 15 1 L 15 5.03125 C 14.917969 5.039063 14.832031 5.054688 14.75 5.0625 C 14.605469 5.078125 14.457031 5.101563 14.3125 5.125 C 14.269531 5.132813 14.230469 5.148438 14.1875 5.15625 C 14.09375 5.171875 14 5.199219 13.90625 5.21875 C 13.621094 5.273438 13.339844 5.328125 13.0625 5.40625 C 12.980469 5.429688 12.894531 5.445313 12.8125 5.46875 C 12.429688 5.585938 12.054688 5.71875 11.6875 5.875 C 11.679688 5.878906 11.664063 5.871094 11.65625 5.875 C 11.363281 6 11.09375 6.164063 10.8125 6.3125 C 10.683594 6.382813 10.566406 6.457031 10.4375 6.53125 C 10.289063 6.617188 10.140625 6.6875 10 6.78125 C 9.929688 6.824219 9.878906 6.890625 9.8125 6.9375 C 9.691406 7.019531 9.554688 7.070313 9.4375 7.15625 C 9.371094 7.203125 9.3125 7.261719 9.25 7.3125 C 9.183594 7.367188 9.097656 7.414063 9.03125 7.46875 C 9.003906 7.492188 8.964844 7.507813 8.9375 7.53125 L 6.09375 4.6875 L 4.6875 6.09375 L 7.53125 8.9375 C 7.527344 8.945313 7.535156 8.960938 7.53125 8.96875 C 7.421875 9.101563 7.320313 9.238281 7.21875 9.375 C 6.945313 9.738281 6.695313 10.105469 6.46875 10.5 C 6.339844 10.726563 6.207031 10.953125 6.09375 11.1875 L 6.0625 11.1875 L 5.875 11.65625 C 5.828125 11.765625 5.792969 11.886719 5.75 12 L 2 12 L 2 14 L 30 14 L 30 12 L 26.25 12 C 26.230469 11.949219 26.207031 11.894531 26.1875 11.84375 L 25.9375 11.1875 L 25.90625 11.21875 C 25.789063 10.972656 25.667969 10.734375 25.53125 10.5 C 25.5 10.449219 25.46875 10.394531 25.4375 10.34375 C 25.222656 9.988281 25 9.640625 24.75 9.3125 C 24.65625 9.191406 24.535156 9.085938 24.4375 8.96875 C 24.433594 8.960938 24.441406 8.945313 24.4375 8.9375 L 27.3125 6.09375 L 25.90625 4.6875 L 23.03125 7.5625 C 22.949219 7.492188 22.867188 7.410156 22.78125 7.34375 C 22.511719 7.132813 22.226563 6.933594 21.9375 6.75 C 21.671875 6.578125 21.40625 6.398438 21.125 6.25 C 21.097656 6.234375 21.058594 6.234375 21.03125 6.21875 C 20.804688 6.101563 20.578125 5.976563 20.34375 5.875 C 20.335938 5.871094 20.320313 5.878906 20.3125 5.875 C 19.917969 5.707031 19.507813 5.589844 19.09375 5.46875 C 19.050781 5.457031 19.011719 5.417969 18.96875 5.40625 C 18.957031 5.402344 18.949219 5.410156 18.9375 5.40625 C 18.855469 5.382813 18.769531 5.363281 18.6875 5.34375 C 18.484375 5.292969 18.269531 5.257813 18.0625 5.21875 C 17.976563 5.203125 17.898438 5.171875 17.8125 5.15625 C 17.78125 5.152344 17.75 5.160156 17.71875 5.15625 C 17.5625 5.132813 17.410156 5.082031 17.25 5.0625 C 17.167969 5.054688 17.082031 5.039063 17 5.03125 L 17 1 Z M 16 7 C 16.34375 7 16.667969 7.027344 17 7.0625 C 17.011719 7.0625 17.019531 7.0625 17.03125 7.0625 C 17.074219 7.066406 17.113281 7.089844 17.15625 7.09375 C 17.175781 7.097656 17.199219 7.089844 17.21875 7.09375 C 17.375 7.113281 17.535156 7.128906 17.6875 7.15625 C 17.78125 7.175781 17.875 7.199219 17.96875 7.21875 C 18.019531 7.230469 18.074219 7.238281 18.125 7.25 C 18.148438 7.253906 18.164063 7.277344 18.1875 7.28125 C 18.34375 7.320313 18.503906 7.359375 18.65625 7.40625 C 18.664063 7.410156 18.679688 7.402344 18.6875 7.40625 C 18.972656 7.496094 19.257813 7.601563 19.53125 7.71875 C 19.539063 7.722656 19.554688 7.714844 19.5625 7.71875 C 19.914063 7.871094 20.234375 8.058594 20.5625 8.25 C 20.582031 8.261719 20.605469 8.269531 20.625 8.28125 C 20.882813 8.433594 21.136719 8.601563 21.375 8.78125 C 21.425781 8.820313 21.480469 8.867188 21.53125 8.90625 C 21.734375 9.0625 21.9375 9.234375 22.125 9.40625 C 22.148438 9.425781 22.167969 9.449219 22.1875 9.46875 C 22.257813 9.535156 22.339844 9.589844 22.40625 9.65625 C 22.539063 9.789063 22.660156 9.921875 22.78125 10.0625 C 22.980469 10.289063 23.167969 10.535156 23.34375 10.78125 C 23.480469 10.96875 23.597656 11.175781 23.71875 11.375 C 23.839844 11.578125 23.957031 11.789063 24.0625 12 L 7.9375 12 C 8.023438 11.832031 8.125 11.664063 8.21875 11.5 C 8.242188 11.460938 8.257813 11.414063 8.28125 11.375 C 8.457031 11.082031 8.667969 10.800781 8.875 10.53125 C 9.089844 10.246094 9.316406 9.972656 9.5625 9.71875 C 9.582031 9.699219 9.605469 9.675781 9.625 9.65625 C 9.84375 9.4375 10.042969 9.226563 10.28125 9.03125 C 10.332031 8.988281 10.382813 8.949219 10.4375 8.90625 C 10.496094 8.859375 10.566406 8.824219 10.625 8.78125 C 10.882813 8.589844 11.160156 8.414063 11.4375 8.25 C 11.761719 8.058594 12.085938 7.871094 12.4375 7.71875 C 12.445313 7.714844 12.460938 7.722656 12.46875 7.71875 C 12.476563 7.714844 12.492188 7.722656 12.5 7.71875 C 12.703125 7.632813 12.914063 7.539063 13.125 7.46875 C 13.132813 7.464844 13.148438 7.472656 13.15625 7.46875 C 13.355469 7.402344 13.546875 7.332031 13.75 7.28125 C 13.871094 7.25 14 7.246094 14.125 7.21875 C 14.34375 7.171875 14.558594 7.125 14.78125 7.09375 C 14.84375 7.085938 14.90625 7.070313 14.96875 7.0625 C 15.308594 7.023438 15.648438 7 16 7 Z M 2 15 C 1.449219 15 1 15.449219 1 16 C 1 16.550781 1.449219 17 2 17 C 2.550781 17 3 16.550781 3 16 C 3 15.449219 2.550781 15 2 15 Z M 6 15 C 5.449219 15 5 15.449219 5 16 C 5 16.550781 5.449219 17 6 17 C 6.550781 17 7 16.550781 7 16 C 7 15.449219 6.550781 15 6 15 Z M 15.5 15 C 14.132813 15 13 16.132813 13 17.5 L 13 20.5 C 13 21.867188 14.132813 23 15.5 23 C 16.867188 23 18 21.867188 18 20.5 C 18 19.132813 16.867188 18 15.5 18 C 15.328125 18 15.160156 18.027344 15 18.0625 L 15 17.5 C 15 17.214844 15.214844 17 15.5 17 C 15.785156 17 16 17.214844 16 17.5 L 18 17.5 C 18 16.132813 16.867188 15 15.5 15 Z M 20 15 C 19.449219 15 19 15.449219 19 16 C 19 16.550781 19.449219 17 20 17 C 20.550781 17 21 16.550781 21 16 C 21 15.449219 20.550781 15 20 15 Z M 26 15 C 25.449219 15 25 15.449219 25 16 C 25 16.550781 25.449219 17 26 17 C 26.550781 17 27 16.550781 27 16 C 27 15.449219 26.550781 15 26 15 Z M 30 15 C 29.449219 15 29 15.449219 29 16 C 29 16.550781 29.449219 17 30 17 C 30.550781 17 31 16.550781 31 16 C 31 15.449219 30.550781 15 30 15 Z M 6.78125 18.8125 C 6.652344 18.8125 6.503906 18.851563 6.375 18.90625 C 5.863281 19.117188 5.632813 19.707031 5.84375 20.21875 C 6.054688 20.730469 6.644531 20.960938 7.15625 20.75 C 7.667969 20.539063 7.898438 19.949219 7.6875 19.4375 C 7.527344 19.054688 7.171875 18.816406 6.78125 18.8125 Z M 25.21875 18.8125 C 24.828125 18.816406 24.472656 19.054688 24.3125 19.4375 C 24.101563 19.949219 24.332031 20.539063 24.84375 20.75 C 25.355469 20.960938 25.945313 20.730469 26.15625 20.21875 C 26.367188 19.707031 26.136719 19.117188 25.625 18.90625 C 25.496094 18.851563 25.347656 18.8125 25.21875 18.8125 Z M 15.5 20 C 15.785156 20 16 20.214844 16 20.5 C 16 20.785156 15.785156 21 15.5 21 C 15.214844 21 15 20.785156 15 20.5 C 15 20.214844 15.214844 20 15.5 20 Z M 8.9375 22.0625 C 8.679688 22.0625 8.414063 22.179688 8.21875 22.375 C 7.828125 22.765625 7.828125 23.390625 8.21875 23.78125 C 8.609375 24.171875 9.234375 24.171875 9.625 23.78125 C 10.015625 23.390625 10.015625 22.765625 9.625 22.375 C 9.429688 22.179688 9.195313 22.0625 8.9375 22.0625 Z M 23.0625 22.0625 C 22.933594 22.0625 22.808594 22.109375 22.6875 22.15625 C 22.566406 22.203125 22.472656 22.277344 22.375 22.375 C 21.984375 22.765625 21.984375 23.390625 22.375 23.78125 C 22.570313 23.976563 22.804688 24.0625 23.0625 24.0625 C 23.320313 24.0625 23.585938 23.976563 23.78125 23.78125 C 24.171875 23.390625 24.171875 22.765625 23.78125 22.375 C 23.585938 22.179688 23.320313 22.0625 23.0625 22.0625 Z M 12.1875 24.25 C 11.796875 24.253906 11.410156 24.492188 11.25 24.875 C 11.039063 25.386719 11.300781 25.945313 11.8125 26.15625 C 12.324219 26.367188 12.914063 26.136719 13.125 25.625 C 13.335938 25.113281 13.074219 24.523438 12.5625 24.3125 C 12.433594 24.257813 12.316406 24.25 12.1875 24.25 Z M 19.8125 24.25 C 19.683594 24.25 19.566406 24.257813 19.4375 24.3125 C 18.925781 24.523438 18.664063 25.113281 18.875 25.625 C 19.085938 26.136719 19.675781 26.367188 20.1875 26.15625 C 20.699219 25.945313 20.960938 25.386719 20.75 24.875 C 20.589844 24.492188 20.203125 24.253906 19.8125 24.25 Z M 6.09375 24.90625 C 5.835938 24.90625 5.601563 24.992188 5.40625 25.1875 C 5.015625 25.578125 5.015625 26.203125 5.40625 26.59375 C 5.796875 26.984375 6.421875 26.984375 6.8125 26.59375 C 7.203125 26.203125 7.203125 25.578125 6.8125 25.1875 C 6.617188 24.992188 6.351563 24.90625 6.09375 24.90625 Z M 25.90625 24.90625 C 25.648438 24.90625 25.382813 24.992188 25.1875 25.1875 C 24.796875 25.578125 24.796875 26.203125 25.1875 26.59375 C 25.578125 26.984375 26.203125 26.984375 26.59375 26.59375 C 26.984375 26.203125 26.984375 25.578125 26.59375 25.1875 C 26.398438 24.992188 26.164063 24.90625 25.90625 24.90625 Z M 16 25 C 15.449219 25 15 25.449219 15 26 C 15 26.550781 15.449219 27 16 27 C 16.550781 27 17 26.550781 17 26 C 17 25.449219 16.550781 25 16 25 Z M 16 29 C 15.449219 29 15 29.449219 15 30 C 15 30.550781 15.449219 31 16 31 C 16.550781 31 17 30.550781 17 30 C 17 29.449219 16.550781 29 16 29 Z "></path>
</g>
</svg>
