<?xml version="1.0" encoding="UTF-8"?>
<svg xmlns="http://www.w3.org/2000/svg" xmlns:xlink="http://www.w3.org/1999/xlink" viewBox="0 0 32 32" version="1.1">
<g>
<path d="M 10 5 C 7.25 5 5 7.25 5 10 L 5 27 L 27 27 L 27 16 C 27 13.25 24.75 11 22 11 L 20.46875 11 L 16.96875 6.8125 C 16.019531 5.671875 14.609375 5 13.125 5 Z M 10 7 L 13.125 7 C 14.015625 7 14.867188 7.410156 15.4375 8.09375 L 19.21875 12.625 L 19.53125 13 L 22 13 C 23.667969 13 25 14.332031 25 16 L 25 19 L 7 19 L 7 10 C 7 8.332031 8.332031 7 10 7 Z M 7 21 L 8 21 L 8 24 L 10 24 L 10 21 L 11 21 L 11 24 L 13 24 L 13 21 L 16 21 L 16 24 L 18 24 L 18 21 L 19 21 L 19 24 L 21 24 L 21 21 L 22 21 L 22 24 L 24 24 L 24 21 L 25 21 L 25 25 L 7 25 Z "></path>
</g>
</svg>
