<?xml version="1.0" encoding="UTF-8"?>
<svg xmlns="http://www.w3.org/2000/svg" xmlns:xlink="http://www.w3.org/1999/xlink" viewBox="0 0 32 32" version="1.1">
<g>
<path d="M 16 4 C 12.804688 4 10 6.117188 10 9 C 10 9.085938 9.996094 9.167969 10 9.25 C 9.988281 9.332031 9.988281 9.417969 10 9.5 C 10 12.226563 10.875 15.21875 10.875 15.21875 C 10.902344 15.320313 10.945313 15.414063 11 15.5 C 11 15.5 12.769531 18 16 18 C 19.230469 18 21 15.5 21 15.5 C 21.054688 15.414063 21.097656 15.320313 21.125 15.21875 C 21.125 15.21875 22 12.242188 22 9.5 C 21.996094 9.4375 21.984375 9.375 21.96875 9.3125 C 21.976563 9.207031 22 9.105469 22 9 C 22 6.117188 19.195313 4 16 4 Z M 16 6 C 18.328125 6 20 7.464844 20 9 C 20 10.535156 18.328125 12 16 12 C 13.671875 12 12 10.535156 12 9 C 12 7.464844 13.671875 6 16 6 Z M 5 9 L 5 18.78125 L 5.75 18.96875 L 13.21875 20.96875 L 13.34375 21 L 14 21 C 14 21.457031 14.148438 21.882813 14.40625 22.21875 L 8.84375 23 L 8 23.125 L 8 28 L 24 28 L 24 23.125 L 23.15625 23 L 17.59375 22.21875 C 17.851563 21.882813 18 21.457031 18 21 L 18.65625 21 L 18.78125 20.96875 L 26.25 18.96875 L 27 18.78125 L 27 9 L 23 9 L 23 11 L 25 11 L 25 17.21875 L 18.40625 19 L 13.59375 19 L 7 17.21875 L 7 11 L 9 11 L 9 9 Z M 16 9 C 15.449219 9 15 9.410156 15 9.90625 C 15 10.402344 15.449219 10.8125 16 10.8125 C 16.550781 10.8125 17 10.402344 17 9.90625 C 17 9.410156 16.550781 9 16 9 Z M 12.40625 13 C 13.425781 13.632813 14.675781 14 16 14 C 17.335938 14 18.601563 13.640625 19.625 13 C 19.484375 13.703125 19.324219 14.25 19.28125 14.40625 C 19.199219 14.519531 18.132813 16 16 16 C 13.867188 16 12.800781 14.519531 12.71875 14.40625 C 12.675781 14.25 12.542969 13.6875 12.40625 13 Z M 16 24.03125 L 22 24.875 L 22 26 L 10 26 L 10 24.875 Z "></path>
</g>
</svg>
