<?xml version="1.0" encoding="UTF-8"?>
<svg xmlns="http://www.w3.org/2000/svg" xmlns:xlink="http://www.w3.org/1999/xlink" viewBox="0 0 32 32" version="1.1">
<g>
<path d="M 16 3.101563 L 7.101563 12 L 2 12 L 2 18 L 3.257813 18 L 6.257813 28 L 18.308594 28 L 17.507813 26 L 7.742188 26 L 4.742188 16 L 4 16 L 4 14 L 28 14 L 28 16 L 27.253906 16 L 26.578125 18.265625 L 28.492188 18.839844 L 28.746094 18 L 30 18 L 30 12 L 24.898438 12 Z M 16 5.929688 L 22.070313 12 L 9.929688 12 Z M 15.300781 16.449219 L 16.074219 18.371094 L 20.757813 30.089844 L 23.066406 26.792969 L 26.09375 29.402344 L 29.433594 25.644531 L 26.246094 23 L 29.011719 20.558594 Z M 18.699219 19.550781 L 24.988281 21.4375 L 23.171875 23.046875 L 26.5625 25.863281 L 25.90625 26.597656 L 22.695313 23.832031 L 21.238281 25.910156 Z "></path>
</g>
</svg>
