<?xml version="1.0" encoding="UTF-8"?>
<svg xmlns="http://www.w3.org/2000/svg" xmlns:xlink="http://www.w3.org/1999/xlink" viewBox="0 0 32 32" version="1.1">
<g>
<path d="M 4 4 L 4 26 L 12.230469 26 C 12.246094 25.9375 12.265625 25.882813 12.28125 25.824219 C 12.300781 25.757813 12.304688 25.699219 12.324219 25.636719 C 12.339844 25.570313 12.359375 25.5 12.375 25.4375 C 12.40625 25.332031 12.457031 25.230469 12.488281 25.125 C 12.527344 25.019531 12.566406 24.917969 12.605469 24.8125 C 12.660156 24.671875 12.699219 24.527344 12.761719 24.390625 C 12.785156 24.335938 12.808594 24.285156 12.839844 24.230469 C 12.867188 24.160156 12.917969 24.085938 12.949219 24.019531 C 12.953125 24.011719 12.953125 24.007813 12.957031 24 L 6 24 L 6 6 L 21 6 L 21 11 C 21.695313 11 22.367188 11.105469 23 11.296875 L 23 4 Z M 8 8 L 8 10 L 12 10 L 12 8 Z M 15 8 L 15 10 L 19 10 L 19 8 Z M 8 12 L 8 14 L 12 14 L 12 12 Z M 15 12 L 15 14 L 15.265625 14 C 15.828125 13.191406 16.5625 12.511719 17.410156 12 Z M 21 13 C 18.25 13 16 15.25 16 18 C 16 19.519531 16.703125 20.871094 17.78125 21.792969 C 15.539063 22.960938 14 25.304688 14 28 L 16 28 C 16 25.226563 18.226563 23 21 23 C 23.773438 23 26 25.226563 26 28 L 28 28 C 28 25.304688 26.460938 22.960938 24.21875 21.792969 C 25.296875 20.871094 26 19.519531 26 18 C 26 15.25 23.75 13 21 13 Z M 21 15 C 22.667969 15 24 16.332031 24 18 C 24 19.667969 22.667969 21 21 21 C 19.332031 21 18 19.667969 18 18 C 18 16.332031 19.332031 15 21 15 Z M 8 16 L 8 18 L 12 18 L 12 16 Z M 8 20 L 8 22 L 12 22 L 12 20 Z "></path>
</g>
</svg>
