<?xml version="1.0" encoding="UTF-8"?>
<svg xmlns="http://www.w3.org/2000/svg" xmlns:xlink="http://www.w3.org/1999/xlink" viewBox="0 0 32 32" version="1.1">
<g>
<path d="M 24.59375 3 C 21.8125 3 19.46875 4.390625 17.125 6.34375 C 15.148438 7.988281 13.375 8.714844 12.03125 9.125 C 11.359375 9.328125 10.789063 9.441406 10.3125 9.59375 C 10.074219 9.667969 9.851563 9.730469 9.59375 9.90625 C 9.335938 10.082031 9 10.527344 9 11 C 9 11.5 9.0625 12.265625 9.40625 13.0625 C 9.75 13.859375 10.585938 14.75 11.78125 14.75 C 12.238281 14.75 12.359375 14.816406 12.375 14.8125 C 12.371094 14.84375 12.371094 14.914063 12.34375 15.0625 C 12.242188 15.652344 11.644531 16.882813 11.03125 18.21875 C 10.550781 19.261719 10.015625 20.082031 9.5 20.46875 C 8.984375 20.855469 8.570313 20.957031 7.78125 20.65625 C 7.277344 20.292969 6.667969 20 5.875 20 C 4.949219 20 4.128906 20.433594 3.65625 21.03125 C 3.183594 21.628906 3 22.335938 3 23 L 5 23 C 5 22.734375 5.085938 22.449219 5.21875 22.28125 C 5.351563 22.113281 5.496094 22 5.875 22 C 6.394531 22 6.585938 22.144531 6.78125 22.34375 C 6.976563 22.542969 7.113281 22.828125 7.1875 23.0625 C 7.421875 23.816406 7.867188 24.925781 8.65625 25.90625 C 9.320313 26.734375 10.386719 27.347656 11.625 27.4375 C 11.75 27.570313 11.90625 27.769531 12.34375 28.09375 C 12.914063 28.511719 13.726563 29 14.75 29 C 16.101563 29 17.066406 28.152344 17.65625 27.28125 C 17.675781 27.253906 17.699219 27.214844 17.71875 27.1875 C 18.242188 26.535156 18.535156 26.070313 19.09375 25.28125 C 19.832031 24.285156 19.867188 23.140625 19.9375 22.15625 C 20.007813 21.171875 20.132813 20.34375 20.34375 20 C 20.347656 19.992188 20.339844 19.976563 20.34375 19.96875 C 20.351563 19.953125 20.367188 19.949219 20.375 19.9375 C 20.875 19.207031 21.453125 18.828125 22.15625 18.40625 C 22.875 17.976563 23.757813 17.519531 24.375 16.59375 L 24.40625 16.53125 C 24.867188 15.839844 25.957031 14.226563 26.96875 12.40625 C 27.996094 10.558594 29 8.644531 29 6.9375 C 29 5.703125 28.449219 4.792969 27.90625 4.28125 C 27.546875 3.945313 27.378906 3.90625 27.15625 3.8125 C 27.046875 3.710938 26.878906 3.675781 26.75 3.59375 C 26.179688 3.226563 25.480469 3 24.59375 3 Z M 24.59375 5 C 25.4375 5 25.582031 5.066406 25.8125 5.28125 L 25.96875 5.46875 L 26.1875 5.53125 C 26.1875 5.53125 26.351563 5.554688 26.5625 5.75 C 26.773438 5.945313 27 6.21875 27 6.9375 C 27 7.679688 26.191406 9.683594 25.21875 11.4375 C 24.246094 13.191406 23.171875 14.824219 22.71875 15.5 C 22.441406 15.917969 21.917969 16.230469 21.15625 16.6875 C 20.394531 17.144531 19.433594 17.753906 18.6875 18.875 L 18.625 18.9375 C 18.003906 19.949219 18.003906 21.074219 17.9375 22.03125 C 17.871094 22.988281 17.757813 23.746094 17.5 24.09375 L 17.46875 24.125 C 16.855469 24.996094 16.625 25.421875 16.125 26.03125 L 16.0625 26.09375 C 15.667969 26.707031 15.355469 27 14.75 27 C 14.421875 27 13.921875 26.785156 13.53125 26.5 C 13.140625 26.214844 12.90625 25.9375 12.90625 25.9375 L 12.53125 25.53125 L 12 25.59375 C 11.292969 25.695313 10.765625 25.335938 10.21875 24.65625 C 9.71875 24.035156 9.382813 23.222656 9.1875 22.65625 C 9.726563 22.546875 10.261719 22.378906 10.6875 22.0625 C 11.648438 21.34375 12.292969 20.261719 12.84375 19.0625 C 13.425781 17.796875 14.132813 16.613281 14.34375 15.40625 C 14.449219 14.800781 14.394531 14.03125 13.875 13.46875 C 13.355469 12.90625 12.609375 12.75 11.78125 12.75 C 11.425781 12.75 11.382813 12.660156 11.21875 12.28125 C 11.113281 12.042969 11.128906 11.753906 11.09375 11.46875 C 11.433594 11.367188 11.917969 11.238281 12.59375 11.03125 C 14.085938 10.578125 16.1875 9.757813 18.40625 7.90625 C 19.222656 7.226563 20 6.671875 20.75 6.21875 C 21.304688 6.570313 21.648438 6.863281 21.8125 7.09375 C 22.015625 7.378906 22.007813 7.472656 21.96875 7.65625 C 21.890625 8.027344 21.207031 8.835938 20.21875 9.625 C 19.230469 10.414063 18.070313 11.191406 17.25 12.1875 C 16.839844 12.6875 16.480469 13.277344 16.4375 14 C 16.394531 14.722656 16.738281 15.488281 17.3125 16.0625 L 18.71875 14.65625 C 18.421875 14.359375 18.429688 14.234375 18.4375 14.125 C 18.445313 14.015625 18.519531 13.785156 18.78125 13.46875 C 19.300781 12.835938 20.410156 12.035156 21.46875 11.1875 C 22.527344 10.339844 23.640625 9.488281 23.9375 8.09375 C 24.085938 7.398438 23.90625 6.589844 23.4375 5.9375 C 23.261719 5.695313 23.050781 5.46875 22.8125 5.25 C 23.390625 5.082031 23.988281 5 24.59375 5 Z "></path>
</g>
</svg>
