<?xml version="1.0" encoding="UTF-8"?>
<svg xmlns="http://www.w3.org/2000/svg" xmlns:xlink="http://www.w3.org/1999/xlink" viewBox="0 0 32 32" version="1.1">
<g>
<path d="M 10.53125 4 C 8.492188 4 7.011719 5.269531 6.21875 6.78125 C 5.425781 8.292969 5.128906 10.085938 5.03125 11.59375 C 4.859375 14.253906 5.414063 18.375 6.1875 22.65625 C 6.609375 24.992188 7.425781 26.371094 8.3125 27.125 C 8.753906 27.5 9.191406 27.699219 9.5625 27.8125 C 9.933594 27.925781 10.289063 27.964844 10.3125 27.96875 C 10.816406 28.015625 11.71875 28 12.09375 28 C 12.234375 27.996094 12.371094 27.964844 12.5 27.90625 C 13.074219 28.035156 13.59375 27.949219 13.875 27.84375 C 16.359375 26.902344 17.972656 24.453125 18.65625 23.59375 C 19.351563 22.714844 22.570313 18.847656 23.875 17.21875 C 24.933594 15.898438 25.539063 14.789063 25.8125 13.71875 C 26.085938 12.648438 26.019531 11.671875 25.84375 10.71875 C 25.445313 8.558594 23.863281 6.777344 20.90625 5.53125 C 18.066406 4.335938 15.683594 4 13.59375 4 C 13.300781 4 13.019531 4.046875 12.75 4.09375 C 12.632813 4.039063 12.503906 4.007813 12.375 4 C 11.972656 3.984375 10.777344 4 10.53125 4 Z M 13.59375 6 C 15.480469 6 17.527344 6.28125 20.125 7.375 C 22.730469 8.472656 23.601563 9.601563 23.875 11.09375 C 24.03125 11.933594 24.054688 12.519531 23.875 13.21875 C 23.695313 13.917969 23.265625 14.777344 22.3125 15.96875 C 21.054688 17.542969 17.878906 21.351563 17.09375 22.34375 C 16.292969 23.351563 14.789063 25.363281 13.1875 25.96875 C 13.171875 25.976563 13.046875 26.128906 12.6875 25.84375 C 12.328125 25.558594 11.640625 24.628906 11.15625 22.28125 C 10.292969 18.109375 9.882813 13.96875 10.03125 11.71875 C 10.117188 10.386719 10.414063 8.820313 11 7.71875 C 11.585938 6.617188 12.289063 6 13.59375 6 Z M 9.65625 6.125 C 9.507813 6.335938 9.367188 6.558594 9.25 6.78125 C 8.445313 8.292969 8.128906 10.085938 8.03125 11.59375 C 7.859375 14.234375 8.328125 18.394531 9.21875 22.6875 C 9.511719 24.09375 9.867188 25.152344 10.28125 25.9375 C 10.242188 25.929688 10.210938 25.921875 10.15625 25.90625 C 10.011719 25.859375 9.820313 25.785156 9.59375 25.59375 C 9.140625 25.210938 8.523438 24.34375 8.15625 22.3125 C 7.394531 18.09375 6.886719 13.945313 7.03125 11.71875 C 7.117188 10.382813 7.390625 8.820313 7.96875 7.71875 C 8.398438 6.902344 8.90625 6.355469 9.65625 6.125 Z M 20 9 C 18.355469 9 17 10.355469 17 12 C 17 13.644531 18.355469 15 20 15 C 21.644531 15 23 13.644531 23 12 C 23 10.355469 21.644531 9 20 9 Z M 13.09375 9.03125 C 12.902344 9.054688 12.703125 9.113281 12.53125 9.21875 C 11.925781 9.597656 11.808594 10.089844 11.65625 10.59375 C 11.503906 11.097656 11.378906 11.695313 11.3125 12.34375 C 11.175781 13.644531 11.199219 15.191406 11.34375 16.6875 C 11.488281 18.15625 11.804688 19.4375 12.15625 20.40625 C 12.332031 20.890625 12.511719 21.292969 12.71875 21.625 C 12.820313 21.792969 12.902344 21.972656 13.0625 22.125 C 13.222656 22.277344 13.457031 22.5 13.9375 22.5 C 14.53125 22.5 15.089844 22.234375 15.46875 21.875 C 15.847656 21.515625 16.089844 21.082031 16.28125 20.625 C 16.660156 19.707031 16.8125 18.628906 16.8125 17.65625 C 16.8125 14.664063 16.3125 12.542969 15.625 11.125 C 15.28125 10.414063 14.894531 9.878906 14.4375 9.5 C 14.207031 9.3125 13.949219 9.140625 13.625 9.0625 C 13.460938 9.023438 13.285156 9.007813 13.09375 9.03125 Z M 20 11 C 20.5625 11 21 11.4375 21 12 C 21 12.5625 20.5625 13 20 13 C 19.4375 13 19 12.5625 19 12 C 19 11.4375 19.4375 11 20 11 Z M 13.5 11.53125 C 13.613281 11.6875 13.691406 11.746094 13.8125 12 C 14.324219 13.054688 14.8125 14.902344 14.8125 17.65625 C 14.8125 18.40625 14.671875 19.28125 14.4375 19.84375 C 14.367188 20.015625 14.292969 20.082031 14.21875 20.1875 C 14.148438 20.039063 14.105469 19.953125 14.03125 19.75 C 13.746094 18.960938 13.4375 17.796875 13.3125 16.5 C 13.179688 15.140625 13.195313 13.660156 13.3125 12.53125 C 13.355469 12.109375 13.433594 11.824219 13.5 11.53125 Z "></path>
</g>
</svg>
