<?xml version="1.0" encoding="UTF-8"?>
<svg xmlns="http://www.w3.org/2000/svg" xmlns:xlink="http://www.w3.org/1999/xlink" viewBox="0 0 32 32" version="1.1">
<g>
<path d="M 13.46875 5 C 8.558594 5 4 8.921875 4 15.3125 C 4 17.03125 4.289063 19.027344 4.84375 20.6875 C 5.121094 21.519531 5.453125 22.261719 5.9375 22.875 C 6.265625 23.292969 6.699219 23.648438 7.21875 23.84375 C 7.796875 25.664063 9.496094 27 11.5 27 C 13.855469 27 15.789063 25.15625 15.96875 22.84375 C 23.332031 21.378906 26.671875 18.257813 27.90625 15.40625 C 27.964844 15.277344 27.996094 15.140625 28 15 C 28 11.324219 26.320313 8.640625 23.65625 7.09375 C 20.992188 5.546875 17.453125 5 13.46875 5 Z M 13.46875 7 C 17.261719 7 20.496094 7.558594 22.65625 8.8125 C 24.757813 10.035156 25.90625 11.820313 25.96875 14.78125 C 24.976563 16.886719 22.308594 19.503906 15.59375 20.84375 C 15.328125 20.34375 14.953125 19.929688 14.5 19.65625 C 13.609375 19.117188 12.5625 19 11.5 19 C 10.4375 19 9.390625 19.117188 8.5 19.65625 C 7.945313 19.992188 7.507813 20.523438 7.25 21.1875 C 7.066406 20.867188 6.875 20.496094 6.71875 20.03125 C 6.257813 18.652344 6 16.808594 6 15.3125 C 6 9.835938 9.578125 7 13.46875 7 Z M 14.40625 8.78125 C 13.25 8.917969 12.097656 9.367188 11.09375 10.21875 C 10.933594 10.355469 11.65625 10.230469 12.75 10.25 C 12.871094 10.253906 13.175781 10.246094 13.4375 10.03125 C 13.792969 9.738281 14.410156 9.265625 14.6875 9.0625 C 15.101563 8.761719 14.648438 8.753906 14.40625 8.78125 Z M 17.5625 9.15625 C 17.417969 9.15625 17.238281 9.21875 17.03125 9.375 C 16.636719 9.671875 16.039063 10.101563 15.8125 10.28125 C 15.460938 10.558594 15.609375 10.78125 15.75 10.84375 C 16.167969 11.027344 16.582031 11.269531 16.96875 11.5625 C 17.113281 11.671875 17.410156 11.863281 17.78125 11.59375 C 18.226563 11.273438 18.894531 10.757813 19.21875 10.5 C 19.714844 10.101563 19.410156 9.929688 19.25 9.84375 C 18.824219 9.613281 18.378906 9.421875 17.90625 9.25 C 17.824219 9.21875 17.707031 9.15625 17.5625 9.15625 Z M 21.5 11.5625 C 21.421875 11.570313 21.339844 11.589844 21.25 11.65625 C 21 11.832031 19.988281 12.613281 19.375 13.09375 C 18.875 13.488281 19.023438 13.757813 19.09375 13.90625 C 19.347656 14.445313 19.574219 15.070313 19.71875 15.78125 C 19.839844 16.375 22.769531 14.550781 22.875 13.875 C 22.972656 13.257813 22.625 12.539063 22 11.8125 C 21.910156 11.707031 21.734375 11.535156 21.5 11.5625 Z M 11.5 21 C 12.367188 21 13.089844 21.144531 13.46875 21.375 C 13.847656 21.605469 14 21.804688 14 22.5 C 14 23.890625 12.890625 25 11.5 25 C 10.109375 25 9 23.890625 9 22.5 C 9 21.804688 9.152344 21.605469 9.53125 21.375 C 9.910156 21.144531 10.632813 21 11.5 21 Z "></path>
</g>
</svg>
