<?xml version="1.0" encoding="UTF-8"?>
<svg xmlns="http://www.w3.org/2000/svg" xmlns:xlink="http://www.w3.org/1999/xlink" viewBox="0 0 32 32" version="1.1">
<g>
<path d="M 16 4 C 14.355469 4 13 5.355469 13 7 C 13 8.257813 13.890625 9.152344 15 9.59375 L 15 10.8125 L 5.71875 14.5625 L 5.71875 14.59375 C 4.628906 15.0625 4 16.105469 4 17.1875 C 4 18.722656 5.277344 20 6.8125 20 L 7 20 L 7 18 L 6.8125 18 C 6.347656 18 6 17.652344 6 17.1875 C 6 16.882813 6.183594 16.582031 6.46875 16.4375 C 6.484375 16.429688 6.484375 16.414063 6.5 16.40625 L 16 12.59375 L 25.5 16.40625 L 25.53125 16.4375 C 25.816406 16.582031 26 16.882813 26 17.1875 C 26 17.652344 25.652344 18 25.1875 18 L 25 18 L 25 20 L 25.1875 20 C 26.722656 20 28 18.722656 28 17.1875 C 28 16.105469 27.371094 15.0625 26.28125 14.59375 L 26.28125 14.5625 L 17 10.8125 L 17 9 C 17 8.449219 16.550781 8 16 8 C 15.445313 8 15 7.554688 15 7 C 15 6.445313 15.445313 6 16 6 C 16.554688 6 17 6.445313 17 7 L 19 7 C 19 5.355469 17.644531 4 16 4 Z M 8 17 L 8 28 L 24 28 L 24 17 Z M 10 19 L 22 19 L 22 26 L 10 26 Z "></path>
</g>
</svg>
