<?xml version="1.0" encoding="UTF-8"?>
<svg xmlns="http://www.w3.org/2000/svg" xmlns:xlink="http://www.w3.org/1999/xlink" viewBox="0 0 32 32" version="1.1">
<g>
<path d="M 18 3 L 18 12.5625 L 13 17.5625 L 13 16 L 11 16 L 11 18 L 12.5625 18 L 3 27.59375 L 4.40625 29 L 15.4375 18 L 17 18 L 17 16.4375 L 19.4375 14 L 29 14 L 29 3 Z M 20 5 L 27 5 L 27 12 L 20 12 Z M 22.1875 5.8125 L 20.78125 7.21875 L 22.0625 8.5 L 20.78125 9.8125 L 22.1875 11.21875 L 23.5 9.9375 L 24.78125 11.21875 L 26.1875 9.8125 L 24.875 8.5 L 26.1875 7.21875 L 24.78125 5.8125 L 23.5 7.125 Z M 3 16 L 3 18 L 5 18 L 5 16 Z M 7 16 L 7 18 L 9 18 L 9 16 Z M 19 16 L 19 18 L 21 18 L 21 16 Z M 23 16 L 23 18 L 25 18 L 25 16 Z M 27 16 L 27 18 L 29 18 L 29 16 Z "></path>
</g>
</svg>
