<?xml version="1.0" encoding="UTF-8"?>
<svg xmlns="http://www.w3.org/2000/svg" xmlns:xlink="http://www.w3.org/1999/xlink" viewBox="0 0 32 32" version="1.1">
<g>
<path d="M 3 5 L 3 23 L 8 23 L 8 28.09375 L 9.625 26.78125 L 14.34375 23 L 29 23 L 29 5 Z M 5 7 L 27 7 L 27 21 L 13.65625 21 L 13.375 21.21875 L 10 23.90625 L 10 21 L 5 21 Z M 16 9 C 14.355469 9 13 10.355469 13 12 L 11 12 L 11 19 L 21 19 L 21 12 L 19 12 C 19 10.355469 17.644531 9 16 9 Z M 16 11 C 16.554688 11 17 11.445313 17 12 L 15 12 C 15 11.445313 15.445313 11 16 11 Z M 13 14 L 19 14 L 19 17 L 13 17 Z "></path>
</g>
</svg>
