<?xml version="1.0" encoding="UTF-8"?>
<svg xmlns="http://www.w3.org/2000/svg" xmlns:xlink="http://www.w3.org/1999/xlink" viewBox="0 0 32 32" version="1.1">
<g>
<path d="M 16 4.875 L 15.53125 5.125 L 4.6875 11 L 0 11 L 0 27 L 32 27 L 32 11 L 27.3125 11 L 16.46875 5.125 Z M 16 7.125 L 23.125 11 L 8.875 11 Z M 2 13 L 30 13 L 30 25 L 2 25 Z M 5.5 15 C 4.132813 15 3 16.132813 3 17.5 L 3 20.5 C 3 21.867188 4.132813 23 5.5 23 C 6.867188 23 8 21.867188 8 20.5 L 8 20 L 6 20 L 6 20.5 C 6 20.785156 5.785156 21 5.5 21 C 5.214844 21 5 20.785156 5 20.5 L 5 17.5 C 5 17.214844 5.214844 17 5.5 17 C 5.785156 17 6 17.214844 6 17.5 L 6 18 L 8 18 L 8 17.5 C 8 16.132813 6.867188 15 5.5 15 Z M 9 15 L 9 23 L 12 23 L 12 21 L 11 21 L 11 15 Z M 15.5 15 C 14.132813 15 13 16.132813 13 17.5 L 13 20.5 C 13 21.867188 14.132813 23 15.5 23 C 16.867188 23 18 21.867188 18 20.5 L 18 17.5 C 18 16.132813 16.867188 15 15.5 15 Z M 21.5 15 C 20.132813 15 19 16.132813 19 17.5 C 19 18.867188 20.132813 20 21.5 20 C 21.785156 20 22 20.214844 22 20.5 C 22 20.863281 21.9375 21 21.5 21 C 21.121094 21 21.066406 20.914063 21.0625 20.90625 C 21.058594 20.898438 21 20.867188 21 20.625 L 19 20.625 C 19 21.191406 19.15625 21.832031 19.625 22.3125 C 20.09375 22.792969 20.773438 23 21.5 23 C 22.910156 23 24 21.792969 24 20.5 C 24 19.132813 22.867188 18 21.5 18 C 21.214844 18 21 17.785156 21 17.5 C 21 17.214844 21.214844 17 21.5 17 C 21.769531 17 21.84375 17.058594 21.90625 17.125 C 21.96875 17.191406 22 17.320313 22 17.40625 L 24 17.40625 C 24 16.839844 23.804688 16.253906 23.375 15.78125 C 22.945313 15.308594 22.257813 15 21.5 15 Z M 25 15 L 25 23 L 29 23 L 29 21 L 27 21 L 27 20 L 29 20 L 29 18 L 27 18 L 27 17 L 29 17 L 29 15 Z M 15.5 17 C 15.785156 17 16 17.214844 16 17.5 L 16 20.5 C 16 20.785156 15.785156 21 15.5 21 C 15.214844 21 15 20.785156 15 20.5 L 15 17.5 C 15 17.214844 15.214844 17 15.5 17 Z "></path>
</g>
</svg>
