<?xml version="1.0" encoding="UTF-8"?>
<svg xmlns="http://www.w3.org/2000/svg" xmlns:xlink="http://www.w3.org/1999/xlink" viewBox="0 0 32 32" version="1.1">
<g>
<path d="M 16 3.875 L 15.53125 4.125 L 4.6875 10 L 0 10 L 0 26 L 32 26 L 32 10 L 27.3125 10 L 16.46875 4.125 Z M 16 6.125 L 23.125 10 L 8.875 10 Z M 2 12 L 30 12 L 30 24 L 2 24 Z M 5 14 C 3.898438 14 3 15.121094 3 16.5 L 3 19.5 C 3 20.878906 3.898438 22 5 22 C 6.101563 22 7 20.878906 7 19.5 L 7 19 L 5.40625 19 L 5.40625 19.5 C 5.40625 19.773438 5.222656 20 5 20 C 4.777344 20 4.59375 19.773438 4.59375 19.5 L 4.59375 16.5 C 4.59375 16.226563 4.777344 16 5 16 C 5.222656 16 5.40625 16.226563 5.40625 16.5 L 5.40625 17 L 7 17 L 7 16.5 C 7 15.121094 6.101563 14 5 14 Z M 8 14 L 8 22 L 10.5 22 L 10.5 20 L 9.65625 20 L 9.65625 14 Z M 13 14 C 11.898438 14 11 15.121094 11 16.5 L 11 19.5 C 11 20.878906 11.898438 22 13 22 C 14.101563 22 15 20.878906 15 19.5 L 15 16.5 C 15 15.121094 14.101563 14 13 14 Z M 18 14 C 16.898438 14 16 15.121094 16 16.5 C 16 17.878906 16.898438 19 18 19 C 18.222656 19 18.40625 19.226563 18.40625 19.5 C 18.40625 19.6875 18.347656 20 18 20 C 17.601563 20 17.59375 19.925781 17.59375 19.625 L 16 19.625 C 16 21.09375 16.765625 22 18 22 C 19.140625 22 20 20.925781 20 19.5 C 20 18.121094 19.101563 17 18 17 C 17.777344 17 17.59375 16.773438 17.59375 16.5 C 17.59375 16.226563 17.777344 16 18 16 C 18.359375 16 18.40625 16.285156 18.40625 16.40625 L 20 16.40625 C 20 15.238281 19.300781 14 18 14 Z M 21 14 L 21 22 L 24 22 L 24 20 L 22.5 20 L 22.5 19 L 24 19 L 24 17 L 22.5 17 L 22.5 16 L 24 16 L 24 14 Z M 25 14 L 25 22 L 26.59375 22 C 27.917969 22 29 20.652344 29 19 L 29 17 C 29 15.347656 27.917969 14 26.59375 14 Z M 13 16 C 13.222656 16 13.40625 16.226563 13.40625 16.5 L 13.40625 19.5 C 13.40625 19.773438 13.222656 20 13 20 C 12.777344 20 12.59375 19.773438 12.59375 19.5 L 12.59375 16.5 C 12.59375 16.226563 12.777344 16 13 16 Z M 26.59375 16 C 27.035156 16 27.40625 16.449219 27.40625 17 L 27.40625 19 C 27.40625 19.550781 27.035156 20 26.59375 20 Z "></path>
</g>
</svg>
