<?xml version="1.0" encoding="UTF-8"?>
<svg xmlns="http://www.w3.org/2000/svg" xmlns:xlink="http://www.w3.org/1999/xlink" viewBox="0 0 32 32" version="1.1">
<g>
<path d="M 16 3.65625 L 15.34375 4.25 C 15.34375 4.25 14.390625 5.296875 13.53125 6.71875 C 12.875 5.835938 12.28125 5.15625 12.28125 5.15625 L 11.625 4.5625 L 10.9375 5.15625 C 10.9375 5.15625 8 7.597656 8 11.09375 C 8 13.304688 9.28125 14.929688 10.875 15.8125 C 12.15625 16.523438 13.621094 16.832031 15 16.9375 L 15 22.09375 C 14.492188 21.570313 13.914063 21.121094 13.28125 20.75 C 11.152344 19.496094 8.492188 19 6 19 L 4.8125 19 L 5 20.15625 C 5.3125 21.988281 5.917969 24.035156 7.59375 25.5625 C 9.125 26.960938 11.476563 27.828125 15 27.96875 L 15 28 L 17 28 L 17 27.96875 C 20.523438 27.828125 22.875 26.960938 24.40625 25.5625 C 26.082031 24.035156 26.6875 21.988281 27 20.15625 L 27.1875 19 L 26 19 C 23.507813 19 20.847656 19.496094 18.71875 20.75 C 18.085938 21.121094 17.507813 21.570313 17 22.09375 L 17 16.9375 C 18.355469 16.851563 19.8125 16.59375 21.09375 15.90625 C 22.695313 15.046875 24 13.386719 24 11.09375 C 24 7.597656 21.0625 5.15625 21.0625 5.15625 L 20.375 4.5625 L 19.71875 5.15625 C 19.71875 5.15625 19.125 5.835938 18.46875 6.71875 C 17.609375 5.296875 16.65625 4.25 16.65625 4.25 Z M 16 6.46875 C 16.496094 7.039063 17.078125 7.828125 17.4375 8.90625 L 18.21875 11.21875 L 19.28125 9.0625 C 19.738281 8.144531 20.0625 7.875 20.4375 7.46875 C 21.105469 8.25 22 9.492188 22 11.09375 C 22 12.703125 21.304688 13.511719 20.15625 14.125 C 19.007813 14.738281 17.390625 15 16 15 C 14.632813 15 13.03125 14.703125 11.875 14.0625 C 10.71875 13.421875 10 12.582031 10 11.09375 C 10 9.492188 10.894531 8.25 11.5625 7.46875 C 11.9375 7.875 12.261719 8.144531 12.71875 9.0625 L 13.78125 11.21875 L 14.5625 8.90625 C 14.921875 7.828125 15.503906 7.039063 16 6.46875 Z M 7.34375 21.15625 C 9.125 21.316406 10.898438 21.703125 12.25 22.5 C 13.582031 23.285156 14.347656 24.40625 14.6875 25.84375 C 11.855469 25.648438 9.960938 25 8.9375 24.0625 C 8.078125 23.277344 7.652344 22.265625 7.34375 21.15625 Z M 24.65625 21.15625 C 24.347656 22.265625 23.921875 23.277344 23.0625 24.0625 C 22.039063 25 20.144531 25.648438 17.3125 25.84375 C 17.652344 24.40625 18.417969 23.285156 19.75 22.5 C 21.101563 21.703125 22.875 21.316406 24.65625 21.15625 Z "></path>
</g>
</svg>
