<?xml version="1.0" encoding="UTF-8"?>
<svg xmlns="http://www.w3.org/2000/svg" xmlns:xlink="http://www.w3.org/1999/xlink" viewBox="0 0 32 32" version="1.1">
<g>
<path d="M 16.53125 3 C 14.261719 3 12.234375 4.257813 11.25 6.21875 C 8.746094 6.132813 6.613281 7.777344 5.9375 10.09375 C 4.179688 11.003906 3 12.941406 3 15 C 3 17.851563 5.316406 20 8.375 20 L 9.59375 20 L 10.21875 18 L 8.375 18 C 6.394531 18 5 16.765625 5 15 C 5 13.5625 5.882813 12.207031 7.15625 11.71875 L 7.6875 11.53125 L 7.78125 10.96875 C 8.078125 9.375 9.476563 8.21875 11.09375 8.21875 C 11.292969 8.21875 11.5 8.242188 11.71875 8.28125 L 12.5625 8.4375 L 12.84375 7.625 C 13.371094 6.058594 14.839844 5 16.53125 5 C 18.035156 5 19.378906 5.808594 20.03125 7.125 L 20.3125 7.6875 L 20.9375 7.6875 C 22.710938 7.699219 24.15625 9.101563 24.25 10.875 L 24.28125 11.5 L 24.875 11.75 C 26.117188 12.25 27 13.582031 27 15 C 27 16.765625 25.605469 18 23.625 18 L 21.4375 18 L 20.78125 20 L 23.625 20 C 26.683594 20 29 17.851563 29 15 C 29 13.003906 27.867188 11.09375 26.1875 10.15625 C 25.792969 7.816406 23.886719 5.996094 21.53125 5.71875 C 20.464844 4.023438 18.597656 3 16.53125 3 Z M 12.28125 15 L 12.0625 15.6875 L 10.125 21.6875 L 9.71875 23 L 13 23 L 11.9375 26.375 L 11.0625 29.0625 L 13.40625 27.53125 L 20.53125 22.90625 L 21 22.59375 L 21 21 L 19.375 21 L 21.375 15 Z M 13.71875 17 L 18.625 17 L 16.625 23 L 16.71875 23 L 14.65625 24.34375 L 15.3125 22.3125 L 15.71875 21 L 12.4375 21 Z "></path>
</g>
</svg>
