<?xml version="1.0" encoding="UTF-8"?>
<svg xmlns="http://www.w3.org/2000/svg" xmlns:xlink="http://www.w3.org/1999/xlink" viewBox="0 0 32 32" version="1.1">
<g>
<path d="M 17.09375 10 C 14.320313 10 11.992188 11.890625 11.28125 14.46875 C 10.808594 14.019531 10.167969 13.75 9.46875 13.75 C 8.007813 13.75 6.84375 14.929688 6.84375 16.40625 C 6.84375 16.703125 6.878906 17.015625 6.96875 17.28125 C 6.847656 17.269531 6.71875 17.25 6.59375 17.25 C 4.582031 17.25 2.96875 18.902344 2.96875 20.9375 C 2.96875 21.308594 3.023438 21.660156 3.125 22 L 28.59375 22 C 28.824219 21.515625 28.96875 20.980469 28.96875 20.40625 C 28.96875 18.371094 27.320313 16.71875 25.3125 16.71875 C 24.417969 16.71875 23.601563 17.050781 22.96875 17.59375 C 23.082031 17.125 23.15625 16.632813 23.15625 16.125 C 23.15625 12.746094 20.433594 10 17.09375 10 Z M 23.875 10 L 23.21875 12 C 23.933594 13.011719 24.398438 14.175781 24.53125 15.46875 C 24.792969 15.425781 25.042969 15.40625 25.3125 15.40625 C 26.066406 15.40625 26.792969 15.578125 27.4375 15.875 L 28.875 15.25 L 26.75 15.1875 L 28.6875 13.78125 L 26.28125 14.375 L 28 12.3125 L 25.875 13.46875 L 26.8125 11.28125 L 25 13.03125 L 25.5 10.40625 L 24.125 12.625 Z M 22.3125 10.0625 L 22.21875 10.84375 C 22.417969 11.03125 22.601563 11.230469 22.78125 11.4375 Z "></path>
</g>
</svg>
