<?xml version="1.0" encoding="UTF-8"?>
<svg xmlns="http://www.w3.org/2000/svg" xmlns:xlink="http://www.w3.org/1999/xlink" viewBox="0 0 32 32" version="1.1">
<g>
<path d="M 14.3125 5.90625 L 14.03125 6.625 C 14.03125 6.625 13.378906 8.519531 13.09375 10.6875 C 13.085938 10.691406 13.070313 10.683594 13.0625 10.6875 C 12.09375 10.242188 10.839844 9.84375 9.5 9.84375 L 8.875 9.84375 L 8.59375 10.40625 C 8.101563 11.398438 8.105469 12.542969 8.25 13.65625 C 8.113281 13.730469 8.011719 13.808594 7.75 13.875 C 7.566406 13.921875 7.539063 13.917969 7.40625 13.9375 C 7.226563 13.746094 7.03125 13.507813 6.6875 13.15625 C 6.453125 12.914063 6.210938 12.679688 5.9375 12.46875 C 5.664063 12.257813 5.382813 12 4.78125 12 C 4.214844 12 3.671875 12.222656 3.28125 12.5625 C 2.890625 12.902344 2.648438 13.3125 2.46875 13.75 C 2.109375 14.625 2 15.605469 2 16.53125 C 2 17.433594 2.105469 18.417969 2.46875 19.28125 C 2.648438 19.710938 2.890625 20.105469 3.28125 20.4375 C 3.671875 20.769531 4.21875 21 4.78125 21 C 5.375 21 5.773438 20.742188 6.125 20.5 C 6.476563 20.257813 6.789063 19.964844 7.0625 19.6875 C 7.324219 19.421875 7.332031 19.359375 7.5 19.15625 C 7.875 19.261719 8.25 19.476563 8.53125 19.75 C 8.457031 20.121094 8.320313 20.484375 8.28125 20.875 C 8.214844 21.546875 8.1875 22.191406 8.1875 22.59375 L 8.1875 23.25 L 8.8125 23.5 C 10.859375 24.367188 12.664063 23.632813 13.90625 22.96875 C 14.195313 24.851563 14.8125 26.40625 14.8125 26.40625 L 15.09375 27 L 15.75 27 C 18.746094 27 21.363281 25.371094 22.65625 23.40625 C 24.8125 22.75 26.605469 21.625 27.84375 20.40625 C 29.160156 19.109375 30 17.871094 30 16.53125 C 30 15.792969 29.675781 15.230469 29.25 14.59375 C 28.824219 13.957031 28.269531 13.304688 27.5625 12.65625 C 26.214844 11.417969 24.378906 10.234375 22.3125 9.5625 C 20.585938 7.136719 17.640625 6.363281 15.09375 6 Z M 15.71875 8.21875 C 17.53125 8.554688 19.238281 9.097656 20.34375 10.25 C 19.902344 11.148438 19 13.394531 19 16.40625 C 19 19.746094 20.097656 22.054688 20.53125 22.84375 C 19.613281 23.738281 18.066406 24.558594 16.4375 24.78125 C 16.238281 24.253906 15.910156 23.542969 15.78125 22.15625 L 15.71875 21.53125 C 15.71875 21.53125 14 18.578125 14 16.5 C 14 14.1875 14.875 12 14.875 12 L 14.90625 12 L 14.96875 11.4375 C 15.109375 9.785156 15.515625 8.808594 15.71875 8.21875 Z M 21.96875 11.53125 C 23.59375 12.109375 25.082031 13.109375 26.1875 14.125 C 26.792969 14.683594 27.285156 15.222656 27.59375 15.6875 C 27.902344 16.152344 28 16.550781 28 16.53125 C 28 16.707031 27.523438 17.933594 26.4375 19 C 25.410156 20.007813 23.921875 20.984375 22.09375 21.53125 C 21.683594 20.6875 21 18.933594 21 16.40625 C 21 14.078125 21.582031 12.402344 21.96875 11.53125 Z M 10.375 12.0625 C 11.1875 12.210938 12.078125 12.390625 12.5625 12.625 C 12.285156 13.609375 12 14.976563 12 16.5 C 12 18.265625 12.644531 19.953125 13.21875 21.125 C 12.371094 21.582031 11.332031 21.90625 10.25 21.71875 C 10.261719 21.480469 10.257813 21.316406 10.28125 21.0625 C 10.339844 20.464844 10.480469 19.84375 10.53125 19.71875 L 10.71875 19.21875 L 10.75 19.1875 L 10.65625 19.09375 C 10.566406 18.894531 10 17.589844 10 16.65625 C 10 15.5625 10.289063 14.613281 10.34375 14.4375 L 10.375 14.40625 L 10.375 14.3125 L 10.34375 14.3125 L 10.28125 13.9375 C 10.144531 13.253906 10.28125 12.644531 10.375 12.0625 Z M 4.65625 14.03125 C 4.679688 14.042969 4.683594 14.035156 4.71875 14.0625 C 4.855469 14.167969 5.046875 14.351563 5.25 14.5625 C 5.65625 14.984375 5.996094 15.414063 6.46875 15.78125 L 6.78125 16.03125 L 7.1875 16 C 7.1875 16 7.570313 15.945313 8.03125 15.84375 C 8.007813 16.105469 8 16.375 8 16.65625 C 8 16.804688 8.019531 16.945313 8.03125 17.09375 C 7.769531 17.03125 7.503906 17 7.21875 17 L 6.71875 17 L 6.40625 17.40625 C 6.40625 17.40625 6.0625 17.867188 5.625 18.3125 C 5.40625 18.535156 5.1875 18.742188 5 18.875 C 4.90625 18.941406 4.828125 18.984375 4.78125 19 C 4.667969 19 4.664063 19 4.59375 18.9375 C 4.523438 18.875 4.410156 18.730469 4.3125 18.5 C 4.121094 18.039063 4 17.253906 4 16.53125 C 4 15.777344 4.117188 15.007813 4.3125 14.53125 C 4.410156 14.292969 4.519531 14.125 4.59375 14.0625 C 4.617188 14.042969 4.640625 14.039063 4.65625 14.03125 Z M 25 15 C 24.449219 15 24 15.449219 24 16 C 24 16.550781 24.449219 17 25 17 C 25.550781 17 26 16.550781 26 16 C 26 15.449219 25.550781 15 25 15 Z "></path>
</g>
</svg>
