<?xml version="1.0" encoding="UTF-8"?>
<svg xmlns="http://www.w3.org/2000/svg" xmlns:xlink="http://www.w3.org/1999/xlink" viewBox="0 0 32 32" version="1.1">
<g>
<path d="M 0 7 L 0 25 L 32 25 L 32 7 Z M 2 9 L 30 9 L 30 23 L 2 23 Z M 10.5 12 C 9.117188 12 8 13.117188 8 14.5 L 8 17.5 C 8 18.882813 9.117188 20 10.5 20 C 11.882813 20 13 18.882813 13 17.5 L 13 17 L 11 17 L 11 17.5 C 11 17.714844 10.714844 18 10.5 18 C 10.285156 18 10 17.714844 10 17.5 L 10 14.5 C 10 14.285156 10.285156 14 10.5 14 C 10.714844 14 11 14.285156 11 14.5 L 11 15 L 13 15 L 13 14.5 C 13 13.117188 11.882813 12 10.5 12 Z M 14 12 L 14 20 L 18 20 L 18 18 L 16 18 L 16 12 Z M 21.5 12 C 20.117188 12 19 13.117188 19 14.5 C 19 15.882813 20.117188 17 21.5 17 C 21.714844 17 22 17.285156 22 17.5 C 22 17.800781 21.882813 18 21.5 18 C 21.132813 18 21.074219 17.921875 21.0625 17.90625 C 21.050781 17.890625 21 17.828125 21 17.59375 L 19 17.59375 C 19 18.160156 19.164063 18.796875 19.625 19.28125 C 20.085938 19.765625 20.769531 20 21.5 20 C 22.917969 20 24 18.800781 24 17.5 C 24 16.117188 22.882813 15 21.5 15 C 21.285156 15 21 14.714844 21 14.5 C 21 14.285156 21.285156 14 21.5 14 C 21.765625 14 21.847656 14.0625 21.90625 14.125 C 21.964844 14.1875 22 14.292969 22 14.40625 L 24 14.40625 C 24 13.816406 23.785156 13.214844 23.34375 12.75 C 22.902344 12.285156 22.234375 12 21.5 12 Z "></path>
</g>
</svg>
