<?xml version="1.0" encoding="UTF-8"?>
<svg xmlns="http://www.w3.org/2000/svg" xmlns:xlink="http://www.w3.org/1999/xlink" viewBox="0 0 32 32" version="1.1">
<g>
<path d="M 16 5 C 13.25 5 11 7.25 11 10 C 11 10.855469 11.320313 11.6875 11.71875 12.59375 C 12.117188 13.5 12.613281 14.460938 13.125 15.34375 C 13.257813 15.574219 13.367188 15.71875 13.5 15.9375 C 12.84375 15.5 12.164063 15.0625 11.46875 14.71875 C 10.644531 14.3125 9.855469 14 9 14 C 6.25 14 4 16.25 4 19 C 4 21.75 6.25 24 9 24 C 9.855469 24 10.644531 23.6875 11.46875 23.28125 C 12.292969 22.875 13.113281 22.328125 13.875 21.8125 C 14.023438 21.710938 14.109375 21.628906 14.25 21.53125 L 12.09375 26.59375 L 11.46875 28 L 20.53125 28 L 19.90625 26.59375 L 17.75 21.53125 C 17.890625 21.628906 17.976563 21.710938 18.125 21.8125 C 18.886719 22.328125 19.707031 22.875 20.53125 23.28125 C 21.355469 23.6875 22.144531 24 23 24 C 25.75 24 28 21.75 28 19 C 28 16.25 25.75 14 23 14 C 22.144531 14 21.355469 14.3125 20.53125 14.71875 C 19.835938 15.0625 19.15625 15.5 18.5 15.9375 C 18.632813 15.71875 18.742188 15.574219 18.875 15.34375 C 19.386719 14.460938 19.882813 13.5 20.28125 12.59375 C 20.679688 11.6875 21 10.855469 21 10 C 21 7.25 18.75 5 16 5 Z M 16 7 C 17.667969 7 19 8.332031 19 10 C 19 10.25 18.820313 10.980469 18.46875 11.78125 C 18.117188 12.582031 17.613281 13.46875 17.125 14.3125 C 16.558594 15.289063 16.378906 15.550781 16 16.125 C 15.621094 15.550781 15.441406 15.289063 14.875 14.3125 C 14.386719 13.46875 13.882813 12.582031 13.53125 11.78125 C 13.179688 10.980469 13 10.25 13 10 C 13 8.332031 14.332031 7 16 7 Z M 9 16 C 9.25 16 9.898438 16.1875 10.59375 16.53125 C 11.289063 16.875 12.066406 17.328125 12.78125 17.8125 C 13.636719 18.394531 13.839844 18.628906 14.3125 19 C 13.839844 19.371094 13.636719 19.605469 12.78125 20.1875 C 12.066406 20.671875 11.289063 21.125 10.59375 21.46875 C 9.898438 21.8125 9.25 22 9 22 C 7.332031 22 6 20.667969 6 19 C 6 17.332031 7.332031 16 9 16 Z M 23 16 C 24.667969 16 26 17.332031 26 19 C 26 20.667969 24.667969 22 23 22 C 22.75 22 22.101563 21.8125 21.40625 21.46875 C 20.710938 21.125 19.933594 20.671875 19.21875 20.1875 C 18.363281 19.605469 18.160156 19.371094 17.6875 19 C 18.160156 18.628906 18.363281 18.394531 19.21875 17.8125 C 19.933594 17.328125 20.710938 16.875 21.40625 16.53125 C 22.101563 16.1875 22.75 16 23 16 Z M 16 22.53125 L 17.5 26 L 14.5 26 Z "></path>
</g>
</svg>
