<?xml version="1.0" encoding="UTF-8"?>
<svg xmlns="http://www.w3.org/2000/svg" xmlns:xlink="http://www.w3.org/1999/xlink" viewBox="0 0 32 32" version="1.1">
<g>
<path d="M 11.8125 5 C 9.179688 5 7.175781 5.597656 5.84375 6.875 C 4.511719 8.152344 4 10.003906 4 12.09375 C 4 16.621094 6.199219 21.625 7.1875 23.625 L 6.125 25.375 L 5.96875 25.625 L 5.96875 27.03125 L 28.03125 27.03125 L 28.03125 25.625 L 27.875 25.375 L 25.03125 20.71875 L 25.03125 10 L 22.96875 10 L 22.96875 10.96875 L 20 10.96875 L 20 13.03125 L 22.96875 13.03125 L 22.96875 19.96875 L 11.03125 19.96875 L 11.03125 13.03125 L 14 13.03125 L 14 10.96875 L 11.03125 10.96875 L 11.03125 10 L 8.96875 10 L 8.96875 20.71875 L 8.46875 21.53125 C 7.441406 19.167969 6 15.265625 6 12.09375 C 6 10.320313 6.386719 9.109375 7.21875 8.3125 C 8.050781 7.515625 9.476563 7 11.8125 7 C 13.789063 7 14.8125 7.433594 15.3125 7.875 C 15.671875 8.191406 15.863281 8.546875 15.9375 9 L 15 9 L 15 16 L 16 16 L 16 18 L 18 18 L 18 16 L 19 16 L 19 9 L 17.9375 9 C 17.832031 8.074219 17.464844 7.113281 16.625 6.375 C 15.609375 5.476563 14.066406 5 11.8125 5 Z M 10.5625 22.03125 L 23.4375 22.03125 L 25.21875 24.96875 L 8.78125 24.96875 Z "></path>
</g>
</svg>
