<?xml version="1.0" encoding="UTF-8"?>
<svg xmlns="http://www.w3.org/2000/svg" xmlns:xlink="http://www.w3.org/1999/xlink" viewBox="0 0 32 32" version="1.1">
<g>
<path d="M 16 3 C 14.238281 3 12.707031 3.996094 12.5625 4.09375 C 12.554688 4.097656 12.46875 4.15625 12.46875 4.15625 L 8.5625 6.09375 L 8.53125 6.125 L 8 6.375 L 8 6.4375 C 7.773438 6.574219 7.519531 6.726563 7.21875 6.9375 C 6.519531 7.433594 5.703125 8.085938 5.15625 8.96875 C 4.808594 9.53125 4.753906 10.027344 4.625 10.71875 C 4.496094 11.410156 4.371094 12.234375 4.28125 13 C 4.101563 14.53125 4 15.9375 4 15.9375 L 4 25 L 8 25 L 8 29 L 24 29 L 24 25 L 28 25 L 28 15.9375 C 28 15.9375 27.898438 14.53125 27.71875 13 C 27.628906 12.234375 27.503906 11.410156 27.375 10.71875 C 27.246094 10.027344 27.191406 9.53125 26.84375 8.96875 C 26.296875 8.085938 25.480469 7.433594 24.78125 6.9375 C 24.480469 6.726563 24.226563 6.574219 24 6.4375 L 24 6.375 L 23.4375 6.09375 L 19.53125 4.15625 L 19.4375 4.09375 C 19.292969 3.996094 17.761719 3 16 3 Z M 16 5 C 16.835938 5 18.300781 5.757813 18.40625 5.8125 L 16 9 L 20 12 L 20 6.625 L 22 7.625 L 22 27 L 10 27 L 10 7.625 L 12 6.625 L 12 12 L 16 9 L 13.59375 5.8125 C 13.699219 5.757813 15.164063 5 16 5 Z M 8 8.875 L 8 23 L 6 23 L 6 16 C 6.003906 15.941406 6.109375 14.667969 6.28125 13.21875 C 6.367188 12.476563 6.480469 11.710938 6.59375 11.09375 C 6.707031 10.476563 6.898438 9.941406 6.84375 10.03125 C 7.050781 9.695313 7.523438 9.257813 8 8.875 Z M 24 8.875 C 24.476563 9.257813 24.949219 9.695313 25.15625 10.03125 C 25.101563 9.941406 25.292969 10.476563 25.40625 11.09375 C 25.519531 11.710938 25.632813 12.476563 25.71875 13.21875 C 25.890625 14.667969 25.996094 15.941406 26 16 C 26 16 26 16.0625 26 16.0625 L 26 23 L 24 23 Z M 14 14 C 13.449219 14 13 14.449219 13 15 C 13 15.550781 13.449219 16 14 16 C 14.550781 16 15 15.550781 15 15 C 15 14.449219 14.550781 14 14 14 Z M 18 14 C 17.449219 14 17 14.449219 17 15 C 17 15.550781 17.449219 16 18 16 C 18.550781 16 19 15.550781 19 15 C 19 14.449219 18.550781 14 18 14 Z M 14 18 C 13.449219 18 13 18.449219 13 19 C 13 19.550781 13.449219 20 14 20 C 14.550781 20 15 19.550781 15 19 C 15 18.449219 14.550781 18 14 18 Z M 18 18 C 17.449219 18 17 18.449219 17 19 C 17 19.550781 17.449219 20 18 20 C 18.550781 20 19 19.550781 19 19 C 19 18.449219 18.550781 18 18 18 Z M 14 22 C 13.449219 22 13 22.449219 13 23 C 13 23.550781 13.449219 24 14 24 C 14.550781 24 15 23.550781 15 23 C 15 22.449219 14.550781 22 14 22 Z M 18 22 C 17.449219 22 17 22.449219 17 23 C 17 23.550781 17.449219 24 18 24 C 18.550781 24 19 23.550781 19 23 C 19 22.449219 18.550781 22 18 22 Z "></path>
</g>
</svg>
