<?xml version="1.0" encoding="UTF-8"?>
<svg xmlns="http://www.w3.org/2000/svg" xmlns:xlink="http://www.w3.org/1999/xlink" viewBox="0 0 32 32" version="1.1">
<g>
<path d="M 15.78125 3 C 15.65625 3 15.53125 3.007813 15.40625 3.03125 L 11.625 3.71875 L 11.59375 3.71875 C 10.574219 3.921875 9.828125 4.855469 10.03125 5.96875 L 10.03125 6 L 10.6875 9.625 C 8.765625 10.601563 7.617188 12.707031 8.03125 14.875 L 8.03125 14.90625 L 8.125 15.40625 L 8.3125 16.34375 L 8.28125 16.375 L 13.0625 28.375 L 13.375 29.125 L 14.1875 28.96875 L 22.1875 27.46875 L 23 27.34375 L 23 13.6875 L 22.96875 13.6875 L 22.78125 12.71875 L 22.6875 12.25 C 22.6875 12.238281 22.6875 12.230469 22.6875 12.21875 C 22.359375 10.027344 20.511719 8.421875 18.34375 8.1875 L 17.6875 4.53125 L 17.6875 4.5 C 17.503906 3.578125 16.660156 2.996094 15.78125 3 Z M 15.75 4.96875 L 16.34375 8.3125 L 12.59375 9.03125 L 11.96875 5.6875 L 12 5.6875 Z M 25.90625 6.5625 L 24.09375 7.4375 L 25.1875 9.71875 L 25.1875 9.75 L 25.21875 9.75 C 25.757813 10.832031 26 11.855469 26 13 L 26 16 L 28 16 L 28 13 C 28 11.554688 27.652344 10.1875 27 8.875 L 27 8.84375 Z M 17.8125 10.15625 C 19.050781 10.171875 20.082031 11.015625 20.46875 12.125 L 10.0625 14 C 10.058594 12.632813 10.898438 11.363281 12.375 11.09375 L 17.28125 10.1875 C 17.464844 10.152344 17.636719 10.152344 17.8125 10.15625 Z M 3.5 10.84375 L 3.125 13.34375 C 2.902344 14.785156 3 16.171875 3.4375 17.59375 L 3.4375 17.625 L 3.46875 17.625 L 4.46875 20.4375 L 6.34375 19.75 L 5.34375 17 C 5.339844 16.988281 5.347656 16.980469 5.34375 16.96875 C 4.988281 15.804688 4.917969 14.804688 5.09375 13.65625 L 5.5 11.15625 Z M 21 14.0625 L 21 25.6875 L 14.625 26.875 L 10.28125 16 Z "></path>
</g>
</svg>
