<?xml version="1.0" encoding="UTF-8"?>
<svg xmlns="http://www.w3.org/2000/svg" xmlns:xlink="http://www.w3.org/1999/xlink" viewBox="0 0 32 32" version="1.1">
<g>
<path d="M 7 4 C 5.34375 4 4 5.34375 4 7 C 4 8.65625 5.34375 10 7 10 C 8.65625 10 10 8.65625 10 7 C 10 5.34375 8.65625 4 7 4 Z M 16 4 C 14.34375 4 13 5.34375 13 7 C 13 8.65625 14.34375 10 16 10 C 17.65625 10 19 8.65625 19 7 C 19 5.34375 17.65625 4 16 4 Z M 25 4 C 23.34375 4 22 5.34375 22 7 C 22 8.65625 23.34375 10 25 10 C 26.65625 10 28 8.65625 28 7 C 28 5.34375 26.65625 4 25 4 Z M 16 13 C 14.34375 13 13 14.34375 13 16 C 13 17.65625 14.34375 19 16 19 C 17.65625 19 19 17.65625 19 16 C 19 14.34375 17.65625 13 16 13 Z M 25 13 C 23.34375 13 22 14.34375 22 16 C 22 17.65625 23.34375 19 25 19 C 26.65625 19 28 17.65625 28 16 C 28 14.34375 26.65625 13 25 13 Z M 25 22 C 23.34375 22 22 23.34375 22 25 C 22 26.65625 23.34375 28 25 28 C 26.65625 28 28 26.65625 28 25 C 28 23.34375 26.65625 22 25 22 Z "></path>
</g>
</svg>
