<?xml version="1.0" encoding="UTF-8"?>
<svg xmlns="http://www.w3.org/2000/svg" xmlns:xlink="http://www.w3.org/1999/xlink" viewBox="0 0 32 32" version="1.1">
<g>
<path d="M 9.59375 3 L 9.28125 3.28125 L 7.5625 5 L 7 5 C 5.355469 5 4 6.355469 4 8 L 4 11 L 6.09375 11 L 8 28.125 L 8.09375 29 L 23.90625 29 L 24 28.125 L 25.90625 11 L 28 11 L 28 8 C 28 6.355469 26.644531 5 25 5 L 24.4375 5 L 22.71875 3.28125 L 22.40625 3 Z M 10.4375 5 L 21.5625 5 L 23.28125 6.71875 L 23.59375 7 L 25 7 C 25.566406 7 26 7.433594 26 8 L 26 9 L 6 9 L 6 8 C 6 7.433594 6.433594 7 7 7 L 8.40625 7 L 8.71875 6.71875 Z M 8.125 11 L 23.875 11 L 23.3125 16 L 19.4375 16 C 18.632813 14.855469 17.460938 14 16 14 C 14.539063 14 13.367188 14.855469 12.5625 16 L 8.6875 16 Z M 16 16 C 16.875 16 17.660156 16.558594 18.125 17.46875 L 18.40625 18 L 23.09375 18 L 22.875 20 L 18.40625 20 L 18.125 20.53125 C 17.660156 21.445313 16.875 22 16 22 C 15.125 22 14.339844 21.441406 13.875 20.53125 L 13.59375 20 L 9.125 20 L 8.90625 18 L 13.59375 18 L 13.875 17.46875 C 14.339844 16.554688 15.125 16 16 16 Z M 9.34375 22 L 12.5625 22 C 13.367188 23.144531 14.539063 24 16 24 C 17.460938 24 18.632813 23.144531 19.4375 22 L 22.65625 22 L 22.09375 27 L 9.90625 27 Z "></path>
</g>
</svg>
