<?xml version="1.0" encoding="UTF-8"?>
<svg xmlns="http://www.w3.org/2000/svg" xmlns:xlink="http://www.w3.org/1999/xlink" viewBox="0 0 32 32" version="1.1">
<g>
<path d="M 9.3125 3 L 9.0625 3.65625 L 5.96875 11.90625 L 6.03125 12.1875 L 9.03125 28.1875 L 9.15625 29 L 22.84375 29 L 22.96875 28.1875 L 25.96875 12.1875 L 26.03125 11.90625 L 22.9375 3.65625 L 22.6875 3 Z M 10.6875 5 L 17.3125 5 L 19.96875 12.125 L 17.1875 27 L 10.8125 27 L 8.03125 12.125 Z M 19.4375 5 L 21.3125 5 L 23.96875 12.125 L 21.1875 27 L 19.1875 27 L 21.96875 12.1875 L 22.03125 11.90625 L 21.9375 11.65625 Z M 13 9 L 13 11 L 11 11 L 11 13 L 13 13 L 13 18 L 15 18 L 15 13 L 17 13 L 17 11 L 15 11 L 15 9 Z "></path>
</g>
</svg>
