<?xml version="1.0" encoding="UTF-8"?>
<svg xmlns="http://www.w3.org/2000/svg" xmlns:xlink="http://www.w3.org/1999/xlink" viewBox="0 0 32 32" version="1.1">
<g>
<path d="M 5.375 5 L 7.90625 10.0625 L 4.28125 20.375 C 3.175781 23.59375 5.597656 27 9 27 L 20 27 C 23.402344 27 25.824219 23.59375 24.71875 20.375 L 21.21875 10.5 L 23.59375 9.3125 C 24.1875 10.199219 26 13.0625 26 17 L 28 17 C 28 11.59375 24.8125 7.40625 24.8125 7.40625 L 24.3125 6.71875 L 21 8.375 L 21 6.15625 L 20.1875 6.03125 C 20.1875 6.03125 14.761719 5 7 5 Z M 8.65625 7.09375 C 14.34375 7.222656 18.082031 7.71875 19 7.875 L 19 9 L 9.625 9 Z M 9.71875 11 L 19.28125 11 L 21.0625 16 L 7.9375 16 Z M 7.21875 18 L 21.78125 18 L 22.84375 21.03125 C 23.523438 23.007813 22.089844 25 20 25 L 9 25 C 6.910156 25 5.476563 23.007813 6.15625 21.03125 Z "></path>
</g>
</svg>
