<?xml version="1.0" encoding="UTF-8"?>
<svg xmlns="http://www.w3.org/2000/svg" xmlns:xlink="http://www.w3.org/1999/xlink" viewBox="0 0 32 32" version="1.1">
<g>
<path d="M 12.4375 5 C 8.15625 5 5.527344 6.074219 4 7.25 C 3.238281 7.839844 2.765625 8.429688 2.46875 8.90625 C 2.171875 9.382813 2.03125 9.8125 2.03125 9.8125 L 2 9.9375 L 2 27 L 30 27 L 30 17.375 C 30 17.375 29.835938 15.765625 28.46875 14.3125 C 27.164063 12.925781 24.742188 11.671875 20.65625 11.5625 L 19.8125 10.40625 L 19.5 10 L 16.71875 10 C 16.675781 9.890625 16.644531 9.808594 16.59375 9.6875 C 16.375 9.167969 16.085938 8.519531 15.71875 7.875 C 15.351563 7.230469 14.941406 6.566406 14.4375 6.03125 C 13.933594 5.496094 13.320313 5 12.4375 5 Z M 12.4375 7 C 12.394531 7 12.644531 7.058594 12.96875 7.40625 C 13.292969 7.753906 13.652344 8.285156 13.96875 8.84375 C 14.144531 9.15625 14.292969 9.472656 14.4375 9.78125 C 14.171875 10.121094 14 10.539063 14 11 L 14 13 L 18 13 L 18 12 L 18.5 12 L 19.3125 13.125 L 19.59375 13.53125 L 20.125 13.53125 C 24.183594 13.53125 26.082031 14.679688 27.03125 15.6875 C 27.980469 16.695313 28 17.53125 28 17.53125 L 28 25 L 27 25 L 27 24 C 27 23.449219 26.550781 23 26 23 C 25.449219 23 25 23.449219 25 24 L 25 25 L 23 25 L 23 23.5 C 23 22.675781 22.324219 22 21.5 22 C 20.675781 22 20 22.675781 20 23.5 L 20 25 L 18 25 L 18 23 C 18 21.898438 17.101563 21 16 21 C 14.898438 21 14 21.898438 14 23 L 14 25 L 12 25 L 12 23.5 C 12 22.675781 11.324219 22 10.5 22 C 9.675781 22 9 22.675781 9 23.5 L 9 25 L 7 25 L 7 24 C 7 23.449219 6.550781 23 6 23 C 5.449219 23 5 23.449219 5 24 L 5 25 L 4 25 L 4 10.3125 C 4.007813 10.285156 4.003906 10.242188 4.15625 10 C 4.339844 9.707031 4.6875 9.277344 5.25 8.84375 C 6.378906 7.972656 8.488281 7 12.4375 7 Z M 10.5 10 C 9.675781 10 9 10.675781 9 11.5 L 9 13 L 12 13 L 12 11.5 C 12 10.675781 11.324219 10 10.5 10 Z M 6 11 C 5.449219 11 5 11.449219 5 12 L 5 13 L 7 13 L 7 12 C 7 11.449219 6.550781 11 6 11 Z M 16 15 C 14.898438 15 14 15.898438 14 17 L 14 19 L 18 19 L 18 17 C 18 15.898438 17.101563 15 16 15 Z M 10.5 16 C 9.675781 16 9 16.675781 9 17.5 L 9 19 L 12 19 L 12 17.5 C 12 16.675781 11.324219 16 10.5 16 Z M 21.5 16 C 20.675781 16 20 16.675781 20 17.5 L 20 19 L 23 19 L 23 17.5 C 23 16.675781 22.324219 16 21.5 16 Z M 6 17 C 5.449219 17 5 17.449219 5 18 L 5 19 L 7 19 L 7 18 C 7 17.449219 6.550781 17 6 17 Z M 26 17 C 25.449219 17 25 17.449219 25 18 L 25 19 L 27 19 L 27 18 C 27 17.449219 26.550781 17 26 17 Z "></path>
</g>
</svg>
