<?xml version="1.0" encoding="UTF-8"?>
<svg xmlns="http://www.w3.org/2000/svg" xmlns:xlink="http://www.w3.org/1999/xlink" viewBox="0 0 32 32" version="1.1">
<g>
<path d="M 15 3 L 15 8.5625 L 13.21875 6.78125 L 11.78125 8.21875 L 15.28125 11.71875 L 16 12.40625 L 16.71875 11.71875 L 20.21875 8.21875 L 18.78125 6.78125 L 17 8.5625 L 17 3 Z M 8.21875 11.78125 L 6.78125 13.21875 L 8.5625 15 L 3 15 L 3 17 L 8.5625 17 L 6.78125 18.78125 L 8.21875 20.21875 L 11.71875 16.71875 L 12.40625 16 L 11.71875 15.28125 Z M 23.78125 11.78125 L 20.28125 15.28125 L 19.59375 16 L 20.28125 16.71875 L 23.78125 20.21875 L 25.21875 18.78125 L 23.4375 17 L 29 17 L 29 15 L 23.4375 15 L 25.21875 13.21875 Z M 16 14 C 14.894531 14 14 14.894531 14 16 C 14 17.105469 14.894531 18 16 18 C 17.105469 18 18 17.105469 18 16 C 18 14.894531 17.105469 14 16 14 Z M 16 19.59375 L 15.28125 20.28125 L 11.78125 23.78125 L 13.21875 25.21875 L 15 23.4375 L 15 29 L 17 29 L 17 23.4375 L 18.78125 25.21875 L 20.21875 23.78125 L 16.71875 20.28125 Z "></path>
</g>
</svg>
