<?xml version="1.0" encoding="UTF-8"?>
<svg xmlns="http://www.w3.org/2000/svg" xmlns:xlink="http://www.w3.org/1999/xlink" viewBox="0 0 32 32" version="1.1">
<g>
<path d="M 16 3 C 13.109375 3 11.042969 3.867188 9.75 5.21875 C 8.457031 6.570313 8 8.316406 8 9.90625 L 8 10.0625 C 7.644531 10.023438 7.304688 10 7 10 C 4.859375 10 3 11.75 3 14 C 3 16.210938 4.789063 18 7 18 L 7.40625 18 L 7.71875 17.71875 C 7.71875 17.71875 7.734375 17.679688 7.96875 17.53125 C 8.203125 17.382813 8.59375 17.164063 9.21875 16.9375 C 10.464844 16.484375 12.59375 16 16 16 C 19.40625 16 21.535156 16.484375 22.78125 16.9375 C 23.40625 17.164063 23.796875 17.382813 24.03125 17.53125 C 24.265625 17.679688 24.28125 17.71875 24.28125 17.71875 L 24.59375 18 L 25 18 C 27.210938 18 29 16.210938 29 14 C 29 11.789063 27.210938 10 25 10 C 24.691406 10 24.347656 10.027344 24 10.0625 L 24 9.90625 C 24 8.25 23.472656 6.484375 22.15625 5.15625 C 20.839844 3.828125 18.792969 3 16 3 Z M 16 5 C 18.40625 5 19.863281 5.667969 20.75 6.5625 C 21.636719 7.457031 22 8.664063 22 9.90625 L 22 10.34375 C 21.703125 10.394531 21.445313 10.449219 21.125 10.5 C 19.578125 10.746094 17.8125 11 16 11 C 14.1875 11 12.402344 10.746094 10.84375 10.5 C 10.535156 10.449219 10.285156 10.421875 10 10.375 L 10 9.90625 C 10 8.695313 10.328125 7.492188 11.1875 6.59375 C 12.046875 5.695313 13.492188 5 16 5 Z M 7 12 C 7.589844 12 8.9375 12.246094 10.53125 12.5 C 12.125 12.753906 14.011719 13 16 13 C 17.988281 13 19.859375 12.753906 21.4375 12.5 C 23.015625 12.246094 24.347656 12 25 12 C 26.191406 12 27 12.808594 27 14 C 27 15.097656 26.261719 15.792969 25.21875 15.90625 C 25.171875 15.871094 25.179688 15.878906 25.125 15.84375 C 24.765625 15.617188 24.21875 15.335938 23.46875 15.0625 C 21.964844 14.515625 19.59375 14 16 14 C 12.40625 14 10.035156 14.515625 8.53125 15.0625 C 7.78125 15.335938 7.234375 15.617188 6.875 15.84375 C 6.820313 15.878906 6.828125 15.871094 6.78125 15.90625 C 5.738281 15.792969 5 15.097656 5 14 C 5 12.847656 5.941406 12 7 12 Z M 16 17 C 14.894531 17 14 17.894531 14 19 C 14 20.105469 14.894531 21 16 21 C 17.105469 21 18 20.105469 18 19 C 18 17.894531 17.105469 17 16 17 Z M 10.3125 20 C 9.789063 20 9.195313 20.214844 8.6875 20.59375 L 8.5625 20.71875 C 7.855469 21.46875 7.84375 22.535156 8.125 23.4375 C 8.40625 24.339844 8.972656 25.226563 9.71875 26.03125 C 11.214844 27.640625 13.46875 29 16 29 C 18.539063 29 20.78125 27.589844 22.25 25.96875 C 22.984375 25.15625 23.542969 24.300781 23.8125 23.40625 C 24.082031 22.511719 24.039063 21.414063 23.3125 20.6875 C 22.855469 20.230469 22.210938 20 21.6875 20 C 20.417969 20 19.65625 20.804688 18.78125 21.375 C 17.90625 21.945313 17.019531 22.40625 15.90625 22.40625 C 14.914063 22.40625 14.074219 21.945313 13.21875 21.375 C 12.363281 20.804688 11.582031 20 10.3125 20 Z M 10.3125 22 C 10.441406 22 11.152344 22.402344 12.09375 23.03125 C 13.035156 23.660156 14.296875 24.40625 15.90625 24.40625 C 17.59375 24.40625 18.902344 23.664063 19.875 23.03125 C 20.847656 22.398438 21.558594 22 21.6875 22 C 21.765625 22 21.761719 21.949219 21.90625 22.09375 C 21.976563 22.164063 22.023438 22.320313 21.875 22.8125 C 21.726563 23.304688 21.359375 23.984375 20.78125 24.625 C 19.625 25.902344 17.761719 27 16 27 C 14.230469 27 12.335938 25.921875 11.15625 24.65625 C 10.566406 24.023438 10.183594 23.339844 10.03125 22.84375 C 9.882813 22.367188 9.945313 22.226563 10.03125 22.125 C 10.140625 22.058594 10.257813 22 10.3125 22 Z "></path>
</g>
</svg>
