<?xml version="1.0" encoding="UTF-8"?>
<svg xmlns="http://www.w3.org/2000/svg" xmlns:xlink="http://www.w3.org/1999/xlink" viewBox="0 0 32 32" version="1.1">
<g>
<path d="M 16 4 C 11.832031 4 5.84375 5 5.84375 5 L 5 5.15625 L 5 19 C 5 20.417969 5.8125 21.625 6.84375 22.65625 C 7.875 23.6875 9.207031 24.570313 10.5 25.34375 C 13.085938 26.894531 15.625 27.9375 15.625 27.9375 L 16 28.0625 L 16.375 27.9375 C 16.375 27.9375 18.914063 26.894531 21.5 25.34375 C 22.792969 24.570313 24.125 23.6875 25.15625 22.65625 C 26.1875 21.625 27 20.417969 27 19 L 27 5.15625 L 26.15625 5 C 26.15625 5 20.167969 4 16 4 Z M 16 6 C 19.371094 6 23.832031 6.691406 25 6.875 L 25 19 C 25 19.582031 24.5625 20.375 23.71875 21.21875 C 22.875 22.0625 21.707031 22.929688 20.5 23.65625 C 18.269531 24.992188 16.332031 25.738281 16 25.875 C 15.667969 25.738281 13.730469 24.992188 11.5 23.65625 C 10.292969 22.929688 9.125 22.0625 8.28125 21.21875 C 7.4375 20.375 7 19.582031 7 19 L 7 6.875 C 8.167969 6.691406 12.628906 6 16 6 Z M 10 13 L 10 15 L 15 15 L 15 13 Z M 17 13 L 17 15 L 22 15 L 22 13 Z M 12.78125 17.375 L 11.21875 18.625 C 11.21875 18.625 13.042969 21 16 21 C 18.957031 21 20.78125 18.625 20.78125 18.625 L 19.21875 17.375 C 19.21875 17.375 17.84375 19 16 19 C 14.15625 19 12.78125 17.375 12.78125 17.375 Z "></path>
</g>
</svg>
