<?xml version="1.0" encoding="UTF-8"?>
<svg xmlns="http://www.w3.org/2000/svg" xmlns:xlink="http://www.w3.org/1999/xlink" viewBox="0 0 32 32" version="1.1">
<g>
<path d="M 15 5 C 13.539063 5 12.382813 5.886719 11.6875 7.0625 C 9.867188 7.210938 8.429688 8.570313 8.125 10.34375 C 6.945313 10.75 6 11.691406 6 13 L 4 13 L 4 27 L 28 27 L 28 13 L 26 13 C 26 11.132813 24.675781 9.621094 22.9375 9.1875 C 22.769531 7.417969 21.308594 6 19.5 6 C 18.902344 6 18.371094 6.203125 17.875 6.46875 C 17.144531 5.640625 16.1875 5 15 5 Z M 15 7 C 15.8125 7 16.496094 7.46875 16.8125 8.15625 L 17.40625 9.46875 L 18.4375 8.4375 C 18.710938 8.160156 19.074219 8 19.5 8 C 20.339844 8 21 8.660156 21 9.5 C 21 9.605469 20.988281 9.710938 20.96875 9.8125 L 20.71875 11 L 22 11 C 23.117188 11 24 11.882813 24 13 L 8 13 C 8 12.433594 8.433594 12 9 12 L 10 12 L 10 11 C 10 9.882813 10.882813 9 12 9 C 11.90625 9 11.953125 9.019531 12.125 9.03125 L 12.875 9.0625 L 13.125 8.34375 C 13.398438 7.558594 14.121094 7 15 7 Z M 6 15 L 26 15 L 26 17 L 6 17 Z M 6 19 L 26 19 L 26 21 L 6 21 Z M 6 23 L 26 23 L 26 25 L 6 25 Z "></path>
</g>
</svg>
