<?xml version="1.0"?>
<svg xmlns="http://www.w3.org/2000/svg" viewBox="0 0 32 32">
    <path d="M 5 6 L 5 19.585938 L 2.7070312 21.878906 C 2.2510313 22.334906 2 22.940938 2 23.585938 C 2 24.916938 3.0830625 26 4.4140625 26 L 13 26 L 15 24 L 4.4140625 24 C 4.1860625 24 4 23.813937 4 23.585938 C 4 23.476937 4.0440938 23.369969 4.1210938 23.292969 L 6.4140625 21 L 18 21 L 19 20 C 18.952 19.866 18.955047 19.467 18.998047 19 L 7 19 L 7 8 L 25 8 L 25 12.664062 C 25.527 12.561063 26.192 12.550922 27 12.669922 L 27 6 L 5 6 z M 26.537109 13.951172 C 25.036033 13.91261 23.522435 14.465846 22.382812 15.605469 C 21.16695 16.820269 20.736243 18.462231 20.861328 20.058594 L 15.052734 25.867188 C 14.379046 26.540876 14 27.456283 14 28.408203 C 14 29.360738 14.379531 30.274062 15.052734 30.947266 C 15.726423 31.620954 16.639877 32 17.591797 32 C 18.543717 32 19.458191 31.621321 20.130859 30.947266 L 25.939453 25.138672 C 27.535408 25.263782 29.176998 24.832767 30.392578 23.617188 C 32.12931 21.880456 32.505671 19.278549 31.5 17.169922 A 1.0001 1.0001 0 0 0 29.890625 16.894531 L 27.509766 19.275391 C 27.286954 19.498202 26.955234 19.498202 26.732422 19.275391 C 26.735622 19.278791 26.720599 19.263568 26.724609 19.267578 C 26.501798 19.044766 26.501798 18.713046 26.724609 18.490234 L 29.105469 16.109375 A 1.0001 1.0001 0 0 0 28.830078 14.5 C 28.302931 14.248283 27.745312 14.083058 27.177734 14.003906 C 26.964893 13.974225 26.751549 13.956681 26.537109 13.951172 z M 25.798828 15.994141 C 25.973875 15.965791 26.141556 16.071189 26.318359 16.068359 L 25.310547 17.076172 C 24.36813 18.018589 24.336312 19.541512 25.193359 20.537109 A 1.0001 1.0001 0 0 0 25.306641 20.675781 C 25.307955 20.677104 25.309229 20.678367 25.310547 20.679688 C 25.310547 20.679688 25.310547 20.681641 25.310547 20.681641 A 1.0001 1.0001 0 0 0 25.318359 20.689453 C 26.305548 21.676641 27.93664 21.676641 28.923828 20.689453 L 29.931641 19.681641 C 29.917091 20.597876 29.68119 21.50045 28.978516 22.203125 C 28.075755 23.105886 26.832533 23.434693 25.671875 23.205078 A 1.0001 1.0001 0 0 0 24.769531 23.480469 L 18.716797 29.533203 A 1.0001 1.0001 0 0 0 18.714844 29.535156 C 18.417572 29.833016 18.013877 30 17.591797 30 C 17.169717 30 16.765108 29.831514 16.466797 29.533203 C 16.168001 29.234407 16 28.831668 16 28.408203 C 16 27.986123 16.168486 27.579561 16.466797 27.28125 L 22.519531 21.228516 A 1.0001 1.0001 0 0 0 22.794922 20.326172 C 22.565391 19.16594 22.894302 17.921317 23.796875 17.019531 C 24.363591 16.452815 25.067686 16.11253 25.798828 15.994141 z"></path>
</svg>
