<?xml version="1.0" encoding="UTF-8"?>
<svg xmlns="http://www.w3.org/2000/svg" xmlns:xlink="http://www.w3.org/1999/xlink" viewBox="0 0 32 32" version="1.1">
<g>
<path d="M 5.375 5 L 3.875 8 L 4.875 10 L 3.875 12 L 4.875 14 L 3.875 16 L 4.875 18 L 3.875 20 L 4.875 22 L 3.875 24 L 5.375 27 L 26.625 27 L 28.125 24 L 27.125 22 L 28.125 20 L 27.125 18 L 28.125 16 L 27.125 14 L 28.125 12 L 27.125 10 L 28.125 8 L 26.625 5 Z M 6.625 7 L 25.375 7 L 25.875 8 L 24.875 10 L 25.875 12 L 24.875 14 L 25.875 16 L 24.875 18 L 25.875 20 L 24.875 22 L 25.875 24 L 25.375 25 L 6.625 25 L 6.125 24 L 7.125 22 L 6.125 20 L 7.125 18 L 6.125 16 L 7.125 14 L 6.125 12 L 7.125 10 L 6.125 8 Z M 16 9 C 14.492188 9 13.078125 9.5 11.9375 10.3125 L 13.09375 11.9375 C 13.914063 11.355469 14.917969 11 16 11 C 18.773438 11 21 13.226563 21 16 C 21 18.773438 18.773438 21 16 21 C 13.226563 21 11 18.773438 11 16 C 11 14.917969 11.355469 13.914063 11.9375 13.09375 L 10.3125 11.9375 C 9.5 13.078125 9 14.492188 9 16 C 9 19.855469 12.144531 23 16 23 C 19.855469 23 23 19.855469 23 16 C 23 12.144531 19.855469 9 16 9 Z "></path>
</g>
</svg>
