<?xml version="1.0" encoding="UTF-8"?>
<svg xmlns="http://www.w3.org/2000/svg" xmlns:xlink="http://www.w3.org/1999/xlink" viewBox="0 0 32 32" version="1.1">
<g>
<path d="M 16 3 C 14.476563 3 13.304688 4.207031 13.125 5.6875 C 10.707031 6.789063 9 9.175781 9 12 L 9 26 L 11 26 L 11 12 C 11 9.816406 12.402344 7.96875 14.34375 7.28125 L 15 7.0625 L 15 6 C 15 5.433594 15.433594 5 16 5 C 16.566406 5 17 5.433594 17 6 L 17 7.0625 L 17.65625 7.28125 C 19.59375 7.96875 21 9.816406 21 12 L 21 27 L 8 27 L 8 29 L 24 29 L 24 27 L 23 27 L 23 12 C 23 9.175781 21.292969 6.789063 18.875 5.6875 C 18.695313 4.207031 17.523438 3 16 3 Z "></path>
</g>
</svg>
