<?xml version="1.0" encoding="UTF-8"?>
<svg xmlns="http://www.w3.org/2000/svg" xmlns:xlink="http://www.w3.org/1999/xlink" viewBox="0 0 32 32" version="1.1">
<g>
<path d="M 16 4 C 9.382813 4 4 9.382813 4 16 C 4 22.617188 9.382813 28 16 28 C 22.617188 28 28 22.617188 28 16 C 28 9.382813 22.617188 4 16 4 Z M 16 6 C 21.535156 6 26 10.464844 26 16 C 26 21.535156 21.535156 26 16 26 C 10.464844 26 6 21.535156 6 16 C 6 10.464844 10.464844 6 16 6 Z M 11.5 11 C 10.671875 11 10 12.121094 10 13.5 C 10 14.878906 10.671875 16 11.5 16 C 12.328125 16 13 14.878906 13 13.5 C 13 12.121094 12.328125 11 11.5 11 Z M 20.5 11 C 19.671875 11 19 12.121094 19 13.5 C 19 14.878906 19.671875 16 20.5 16 C 21.328125 16 22 14.878906 22 13.5 C 22 12.121094 21.328125 11 20.5 11 Z M 20.125 18.5 C 20.125 18.5 19.769531 19.089844 19.125 19.53125 C 18.492188 19.964844 17.761719 20.253906 16.53125 19.6875 C 16.507813 19.675781 16.492188 19.667969 16.46875 19.65625 C 14.671875 18.652344 12.882813 19.074219 11.8125 19.78125 C 10.726563 20.496094 10.15625 21.46875 10.15625 21.46875 L 11.84375 22.53125 C 11.84375 22.53125 12.265625 21.910156 12.9375 21.46875 C 13.609375 21.027344 14.332031 20.742188 15.53125 21.4375 C 15.550781 21.449219 15.574219 21.460938 15.59375 21.46875 C 17.480469 22.382813 19.195313 21.910156 20.25 21.1875 C 21.304688 20.464844 21.875 19.5 21.875 19.5 Z "></path>
</g>
</svg>
