<?xml version="1.0" encoding="UTF-8"?>
<svg xmlns="http://www.w3.org/2000/svg" xmlns:xlink="http://www.w3.org/1999/xlink" viewBox="0 0 32 32" version="1.1">
<g>
<path d="M 16 9 C 13.25 9 11 11.25 11 14 C 11 15.515625 11.707031 16.863281 12.78125 17.78125 C 11.703125 18.339844 10.785156 19.175781 10.125 20.1875 C 9.222656 18.878906 7.707031 18 6 18 C 3.242188 18 1 20.242188 1 23 L 9 23 L 9 24 L 11 24 C 11 21.226563 13.226563 19 16 19 C 18.773438 19 21 21.226563 21 24 L 23 24 L 23 23 L 31 23 C 31 20.242188 28.757813 18 26 18 C 24.292969 18 22.777344 18.878906 21.875 20.1875 C 21.214844 19.175781 20.296875 18.339844 19.21875 17.78125 C 20.292969 16.863281 21 15.515625 21 14 C 21 11.25 18.75 9 16 9 Z M 26 18 C 27.65625 18 29 16.65625 29 15 C 29 13.34375 27.65625 12 26 12 C 24.34375 12 23 13.34375 23 15 C 23 16.65625 24.34375 18 26 18 Z M 6 18 C 7.65625 18 9 16.65625 9 15 C 9 13.34375 7.65625 12 6 12 C 4.34375 12 3 13.34375 3 15 C 3 16.65625 4.34375 18 6 18 Z M 16 11 C 17.667969 11 19 12.332031 19 14 C 19 15.667969 17.667969 17 16 17 C 14.332031 17 13 15.667969 13 14 C 13 12.332031 14.332031 11 16 11 Z "></path>
</g>
</svg>
