<?xml version="1.0" encoding="UTF-8"?>
<svg xmlns="http://www.w3.org/2000/svg" xmlns:xlink="http://www.w3.org/1999/xlink" viewBox="0 0 32 32" version="1.1">
<g>
<path d="M 16 9 C 13.789063 9 12 10.789063 12 13 C 12 15.210938 13.789063 17 16 17 C 18.210938 17 20 15.210938 20 13 C 20 10.789063 18.210938 9 16 9 Z M 16 17 C 13.546875 17 11.375 18.269531 10.125 20.1875 C 9.769531 19.671875 9.300781 19.195313 8.78125 18.84375 C 9.523438 18.117188 10 17.113281 10 16 C 10 13.800781 8.199219 12 6 12 C 3.800781 12 2 13.800781 2 16 C 2 17.113281 2.476563 18.117188 3.21875 18.84375 C 1.886719 19.746094 1 21.28125 1 23 L 3 23 C 3 21.332031 4.332031 20 6 20 C 7.667969 20 9 21.332031 9 23 L 9 24 L 23 24 L 23 23 C 23 21.332031 24.332031 20 26 20 C 27.667969 20 29 21.332031 29 23 L 31 23 C 31 21.28125 30.113281 19.746094 28.78125 18.84375 C 29.523438 18.117188 30 17.113281 30 16 C 30 13.800781 28.199219 12 26 12 C 23.800781 12 22 13.800781 22 16 C 22 17.113281 22.476563 18.117188 23.21875 18.84375 C 22.699219 19.195313 22.230469 19.671875 21.875 20.1875 C 20.625 18.269531 18.453125 17 16 17 Z M 6 14 C 7.117188 14 8 14.882813 8 16 C 8 17.117188 7.117188 18 6 18 C 4.882813 18 4 17.117188 4 16 C 4 14.882813 4.882813 14 6 14 Z M 26 14 C 27.117188 14 28 14.882813 28 16 C 28 17.117188 27.117188 18 26 18 C 24.882813 18 24 17.117188 24 16 C 24 14.882813 24.882813 14 26 14 Z "></path>
</g>
</svg>
