<?xml version="1.0" encoding="UTF-8"?>
<svg xmlns="http://www.w3.org/2000/svg" xmlns:xlink="http://www.w3.org/1999/xlink" viewBox="0 0 32 32" version="1.1">
<g>
<path d="M 16 4 C 9.382813 4 4 9.382813 4 16 C 4 22.617188 9.382813 28 16 28 C 22.617188 28 28 22.617188 28 16 C 28 9.382813 22.617188 4 16 4 Z M 16 6 C 21.535156 6 26 10.464844 26 16 C 26 21.535156 21.535156 26 16 26 C 10.464844 26 6 21.535156 6 16 C 6 10.464844 10.464844 6 16 6 Z M 10 14 C 8.90625 14 8 14.90625 8 16 C 8 17.09375 8.90625 18 10 18 C 11.09375 18 12 17.09375 12 16 C 12 14.90625 11.09375 14 10 14 Z M 16 14 C 14.90625 14 14 14.90625 14 16 C 14 17.09375 14.90625 18 16 18 C 17.09375 18 18 17.09375 18 16 C 18 14.90625 17.09375 14 16 14 Z M 22 14 C 20.90625 14 20 14.90625 20 16 C 20 17.09375 20.90625 18 22 18 C 23.09375 18 24 17.09375 24 16 C 24 14.90625 23.09375 14 22 14 Z "></path>
</g>
</svg>
