<?xml version="1.0" encoding="UTF-8"?>
<svg xmlns="http://www.w3.org/2000/svg" xmlns:xlink="http://www.w3.org/1999/xlink" viewBox="0 0 32 32" version="1.1">
<g>
<path d="M 11 4 L 11 11 C 11.695313 11 12.367188 11.089844 13 11.28125 L 13 6 L 21 6 L 21 11 L 26 11 L 26 24 L 19.03125 24 C 19.347656 24.628906 19.621094 25.296875 19.78125 26 L 28 26 L 28 10.09375 L 21.90625 4 Z M 11 13 C 8.25 13 6 15.25 6 18 C 6 19.515625 6.707031 20.863281 7.78125 21.78125 C 5.535156 22.949219 4 25.300781 4 28 L 6 28 C 6 25.226563 8.226563 23 11 23 C 13.773438 23 16 25.226563 16 28 L 18 28 C 18 25.300781 16.46875 22.949219 14.21875 21.78125 C 15.292969 20.863281 16 19.515625 16 18 C 16 15.25 13.75 13 11 13 Z M 11 15 C 12.667969 15 14 16.332031 14 18 C 14 19.667969 12.667969 21 11 21 C 9.332031 21 8 19.667969 8 18 C 8 16.332031 9.332031 15 11 15 Z "></path>
</g>
</svg>
