<?xml version="1.0" encoding="UTF-8"?>
<svg xmlns="http://www.w3.org/2000/svg" xmlns:xlink="http://www.w3.org/1999/xlink" viewBox="0 0 32 32" version="1.1">
<g>
<path d="M 9 5 L 9 6 L 5 6 L 5 27 L 27 27 L 27 6 L 23 6 L 23 5 L 18 5 L 18 6 L 14 6 L 14 5 Z M 7 8 L 25 8 L 25 12 L 7 12 Z M 10 9 C 9.449219 9 9 9.449219 9 10 C 9 10.550781 9.449219 11 10 11 C 10.550781 11 11 10.550781 11 10 C 11 9.449219 10.550781 9 10 9 Z M 13 9 C 12.449219 9 12 9.449219 12 10 C 12 10.550781 12.449219 11 13 11 C 13.550781 11 14 10.550781 14 10 C 14 9.449219 13.550781 9 13 9 Z M 16 9 C 15.449219 9 15 9.449219 15 10 C 15 10.550781 15.449219 11 16 11 C 16.550781 11 17 10.550781 17 10 C 17 9.449219 16.550781 9 16 9 Z M 22 9 C 21.449219 9 21 9.449219 21 10 C 21 10.550781 21.449219 11 22 11 C 22.550781 11 23 10.550781 23 10 C 23 9.449219 22.550781 9 22 9 Z M 7 14 L 25 14 L 25 25 L 7 25 Z M 9 16 L 9 23 L 23 23 L 23 16 Z M 11 18 L 21 18 L 21 21 L 11 21 Z "></path>
</g>
</svg>
