<?xml version="1.0" encoding="UTF-8"?>
<svg xmlns="http://www.w3.org/2000/svg" xmlns:xlink="http://www.w3.org/1999/xlink" viewBox="0 0 32 32" version="1.1">
<g>
<path d="M 18 4 C 14.21875 4 10.945313 6.113281 9.25 9.21875 C 9.242188 9.230469 9.226563 9.238281 9.21875 9.25 C 6.121094 10.953125 4 14.226563 4 18 C 4 23.511719 8.488281 28 14 28 C 17.773438 28 21.046875 25.878906 22.75 22.78125 C 22.757813 22.769531 22.773438 22.761719 22.78125 22.75 C 25.886719 21.054688 28 17.78125 28 14 C 28 8.488281 23.511719 4 18 4 Z M 18 6 C 22.429688 6 26 9.570313 26 14 C 26 16.09375 25.183594 17.980469 23.875 19.40625 C 23.941406 18.945313 24 18.476563 24 18 C 24 16.898438 23.832031 15.835938 23.5 14.84375 C 23.792969 14.667969 24 14.363281 24 14 C 24 13.449219 23.550781 13 23 13 C 22.882813 13 22.792969 13.058594 22.6875 13.09375 C 21.773438 11.484375 20.433594 10.144531 18.8125 9.25 C 18.9375 9.03125 19 8.769531 19 8.5 C 19 7.671875 18.328125 7 17.5 7 C 16.765625 7 16.160156 7.519531 16.03125 8.21875 C 15.371094 8.082031 14.699219 8 14 8 C 13.523438 8 13.054688 8.058594 12.59375 8.125 C 14.019531 6.816406 15.90625 6 18 6 Z M 23 9 C 22.449219 9 22 9.449219 22 10 C 22 10.550781 22.449219 11 23 11 C 23.550781 11 24 10.550781 24 10 C 24 9.449219 23.550781 9 23 9 Z M 14 10 C 18.429688 10 22 13.570313 22 18 C 22 22.429688 18.429688 26 14 26 C 9.570313 26 6 22.429688 6 18 C 6 13.570313 9.570313 10 14 10 Z M 14.5 12 C 13.671875 12 13 12.671875 13 13.5 C 13 14.328125 13.671875 15 14.5 15 C 15.328125 15 16 14.328125 16 13.5 C 16 12.671875 15.328125 12 14.5 12 Z M 10 14 C 9.449219 14 9 14.449219 9 15 C 9 15.550781 9.449219 16 10 16 C 10.550781 16 11 15.550781 11 15 C 11 14.449219 10.550781 14 10 14 Z M 19 18 C 18.449219 18 18 18.449219 18 19 C 18 19.550781 18.449219 20 19 20 C 19.550781 20 20 19.550781 20 19 C 20 18.449219 19.550781 18 19 18 Z M 11.5 19 C 10.671875 19 10 19.671875 10 20.5 C 10 21.328125 10.671875 22 11.5 22 C 12.328125 22 13 21.328125 13 20.5 C 13 19.671875 12.328125 19 11.5 19 Z M 15 22 C 14.449219 22 14 22.449219 14 23 C 14 23.550781 14.449219 24 15 24 C 15.550781 24 16 23.550781 16 23 C 16 22.449219 15.550781 22 15 22 Z "></path>
</g>
</svg>
