<?xml version="1.0" encoding="UTF-8"?>
<svg xmlns="http://www.w3.org/2000/svg" xmlns:xlink="http://www.w3.org/1999/xlink" viewBox="0 0 32 32" version="1.1">
<g>
<path d="M 16 5 C 13.921875 5 12.125 5.996094 10.84375 7.4375 C 10.253906 7.234375 9.671875 7 9 7 C 5.699219 7 3 9.699219 3 13 C 3 15.949219 5.1875 18.320313 8 18.8125 L 8 27 L 24 27 L 24 18.8125 C 26.8125 18.320313 29 15.949219 29 13 C 29 9.699219 26.300781 7 23 7 C 22.328125 7 21.746094 7.234375 21.15625 7.4375 C 19.875 5.996094 18.078125 5 16 5 Z M 16 7 C 17.675781 7 19.152344 7.832031 20.0625 9.09375 L 20.53125 9.75 L 21.28125 9.40625 C 21.816406 9.152344 22.394531 9 23 9 C 25.21875 9 27 10.78125 27 13 C 27 15.21875 25.21875 17 23 17 C 21.785156 17 20.703125 16.472656 19.96875 15.625 L 18.46875 16.9375 C 19.359375 17.964844 20.605469 18.671875 22 18.90625 L 22 25 L 10 25 L 10 18.90625 C 10.632813 18.800781 11.230469 18.605469 11.78125 18.3125 L 10.875 16.53125 C 10.320313 16.824219 9.675781 17 9 17 C 6.78125 17 5 15.21875 5 13 C 5 10.78125 6.78125 9 9 9 C 9.605469 9 10.183594 9.152344 10.71875 9.40625 L 11.46875 9.75 L 11.9375 9.09375 C 12.847656 7.832031 14.324219 7 16 7 Z "></path>
</g>
</svg>
