<?xml version="1.0" encoding="UTF-8"?>
<svg xmlns="http://www.w3.org/2000/svg" xmlns:xlink="http://www.w3.org/1999/xlink" viewBox="0 0 32 32" version="1.1">
<g>
<path d="M 13 5 L 13 10.53125 L 6.625 16 L 6 16 C 4.355469 16 3 17.355469 3 19 L 3 22 L 29 22 L 29 19 C 29 17.355469 27.644531 16 26 16 L 25.375 16 L 19 10.53125 L 19 5 L 17 5 L 17 10 L 15 10 L 15 5 Z M 14.375 12 L 17.625 12 L 22.3125 16 L 9.6875 16 Z M 6 18 L 26 18 C 26.566406 18 27 18.433594 27 19 L 27 20 L 5 20 L 5 19 C 5 18.433594 5.433594 18 6 18 Z M 10 23 L 10 27 L 12 27 L 12 23 Z M 15 23 L 15 27 L 17 27 L 17 23 Z M 20 23 L 20 27 L 22 27 L 22 23 Z "></path>
</g>
</svg>
