<?xml version="1.0" encoding="UTF-8"?>
<svg xmlns="http://www.w3.org/2000/svg" xmlns:xlink="http://www.w3.org/1999/xlink" viewBox="0 0 32 32" version="1.1">
<g>
<path d="M 15 4 C 13.355469 4 12 5.355469 12 7 L 10 7 C 7.964844 7 6.214844 8.242188 5.4375 10 L 3 10 L 3 12 L 5 12 L 5 14.71875 L 2.25 14.03125 L 1.75 15.96875 L 5 16.78125 L 5 24 C 5 25.644531 6.355469 27 8 27 L 24 27 C 25.644531 27 27 25.644531 27 24 L 27 16.78125 L 30.25 15.96875 L 29.75 14.03125 L 27 14.71875 L 27 12 L 29 12 L 29 10 L 26.5625 10 C 25.785156 8.242188 24.035156 7 22 7 L 20 7 C 20 5.355469 18.644531 4 17 4 Z M 15 6 L 17 6 C 17.566406 6 18 6.433594 18 7 L 14 7 C 14 6.433594 14.433594 6 15 6 Z M 10 9 L 22 9 C 22.890625 9 23.671875 9.390625 24.21875 10 L 7.78125 10 C 8.328125 9.390625 9.109375 9 10 9 Z M 7 12 L 25 12 L 25 24 C 25 24.566406 24.566406 25 24 25 L 8 25 C 7.433594 25 7 24.566406 7 24 Z "></path>
</g>
</svg>
