<?xml version="1.0" encoding="UTF-8"?>
<svg xmlns="http://www.w3.org/2000/svg" xmlns:xlink="http://www.w3.org/1999/xlink" viewBox="0 0 32 32" version="1.1">
<g>
<path d="M 16 4 C 9.382813 4 4 9.382813 4 16 C 4 22.617188 9.382813 28 16 28 C 22.617188 28 28 22.617188 28 16 C 28 9.382813 22.617188 4 16 4 Z M 16 6 C 19.714844 6 22.929688 8.003906 24.65625 11 L 7.34375 11 C 9.070313 8.003906 12.285156 6 16 6 Z M 6.4375 13 L 8 13 L 8 14 C 8 15.101563 8.898438 16 10 16 L 13 16 C 14.101563 16 15 15.101563 15 14 L 15 13 L 17 13 L 17 14 C 17 15.101563 17.898438 16 19 16 L 22 16 C 23.101563 16 24 15.101563 24 14 L 24 13 L 25.5625 13 C 25.859375 13.949219 26 14.953125 26 16 C 26 21.535156 21.535156 26 16 26 C 10.464844 26 6 21.535156 6 16 C 6 14.953125 6.140625 13.949219 6.4375 13 Z M 21 17 C 21 17.546875 20.679688 17.964844 19.8125 18.4375 C 18.945313 18.910156 17.628906 19.292969 16.3125 19.53125 C 13.679688 20.007813 11 20 11 20 L 11 22 C 11 22 13.820313 22.019531 16.6875 21.5 C 18.121094 21.242188 19.554688 20.839844 20.75 20.1875 C 21.945313 19.535156 23 18.460938 23 17 Z "></path>
</g>
</svg>
