<?xml version="1.0" encoding="UTF-8"?>
<svg xmlns="http://www.w3.org/2000/svg" xmlns:xlink="http://www.w3.org/1999/xlink" viewBox="0 0 32 32" version="1.1">
<g>
<path d="M 16 3 C 8.832031 3 3 8.832031 3 16 C 3 23.167969 8.832031 29 16 29 C 23.167969 29 29 23.167969 29 16 C 29 8.832031 23.167969 3 16 3 Z M 16 5 C 22.085938 5 27 9.914063 27 16 C 27 22.085938 22.085938 27 16 27 C 9.914063 27 5 22.085938 5 16 C 5 9.914063 9.914063 5 16 5 Z M 16.09375 10 C 13.695313 10 11.644531 11.4375 10.6875 13.46875 L 12.5 14.3125 C 13.144531 12.941406 14.492188 12 16.09375 12 C 18.371094 12 20.09375 13.722656 20.09375 16 C 20.09375 18.277344 18.371094 20 16.09375 20 C 14.492188 20 13.144531 19.058594 12.5 17.6875 L 10.6875 18.53125 C 11.644531 20.5625 13.695313 22 16.09375 22 C 19.417969 22 22.09375 19.324219 22.09375 16 C 22.09375 12.675781 19.417969 10 16.09375 10 Z "></path>
</g>
</svg>
