<?xml version="1.0" encoding="UTF-8"?>
<svg xmlns="http://www.w3.org/2000/svg" xmlns:xlink="http://www.w3.org/1999/xlink" viewBox="0 0 32 32" version="1.1">
<g>
<path d="M 21.3125 5 L 21.0625 5.65625 L 18.3125 13 L 13.09375 13 C 12.988281 12.96875 12.339844 12.769531 11.4375 12.53125 C 10.46875 12.277344 9.460938 12 8.625 12 C 7.644531 12 6.746094 12.296875 6 12.8125 L 2.5 14.53125 L 3.375 16.34375 L 4.0625 16 C 4.035156 16.203125 4 16.414063 4 16.625 C 4 18.710938 4.800781 20.816406 4.96875 21.25 L 4.03125 24.75 L 4 24.875 L 4 26 L 6 26 L 6 25.125 L 6.96875 21.46875 L 7.0625 21.15625 L 6.9375 20.84375 C 6.9375 20.84375 6 18.257813 6 16.625 C 6 15.144531 7.113281 14 8.625 14 C 8.8125 14 9.980469 14.222656 10.90625 14.46875 C 11.832031 14.714844 12.65625 14.96875 12.65625 14.96875 L 12.78125 15 L 19.6875 15 L 19.9375 14.34375 L 22.25 8.15625 L 22.5 8.53125 L 22.78125 9 L 24.59375 9 L 26.03125 10.375 L 26.21875 10.5 L 28 11.5625 L 26.875 12.625 L 24.8125 13.03125 L 24 13.1875 L 24 18.6875 L 22.15625 21.4375 L 22 21.6875 L 22 26 L 24 26 L 24 22.3125 L 25.84375 19.5625 L 26 19.3125 L 26 14.8125 L 27.5 14.53125 L 27.78125 14.46875 L 28 14.28125 L 29.6875 12.75 L 30 12.4375 L 30 10.4375 L 29.5 10.15625 L 27.40625 8.90625 L 27.375 8.875 L 25.6875 7.28125 L 25.40625 7 L 23.90625 7 L 22.9375 5.46875 L 22.65625 5 Z M 9.21875 20 L 8 24.875 L 8 26 L 10 26 L 10 25.125 L 10.78125 22 L 11.8125 22 C 11.949219 22.054688 12.40625 22.238281 13.15625 22.46875 C 14.007813 22.730469 15.027344 23 16 23 L 18 23 L 18 26 L 20 26 L 20 21 L 16 21 C 15.46875 21 14.488281 20.769531 13.71875 20.53125 C 12.949219 20.292969 12.375 20.0625 12.375 20.0625 L 12.1875 20 Z "></path>
</g>
</svg>
