<?xml version="1.0" encoding="UTF-8"?>
<svg xmlns="http://www.w3.org/2000/svg" xmlns:xlink="http://www.w3.org/1999/xlink" viewBox="0 0 32 32" version="1.1">
<g>
<path d="M 16 2 C 14.894531 2 14 2.894531 14 4 C 14 4.414063 14.128906 4.804688 14.34375 5.125 C 13.578125 5.214844 13 5.3125 13 5.3125 L 13 6.6875 C 13 6.6875 13.886719 6.851563 15 6.9375 L 15 8.0625 C 13.914063 8.199219 12.90625 8.570313 12 9.09375 C 11.964844 8.257813 11.804688 7.421875 11.40625 6.96875 C 11.117188 6.636719 8.613281 3.738281 8.59375 3.71875 L 7.96875 3.03125 L 7.21875 3.59375 C 6.054688 4.488281 5.332031 5.410156 4.53125 6.59375 L 4 7.34375 L 4.71875 7.9375 C 4.71875 7.9375 7.199219 9.996094 7.6875 10.40625 C 8.171875 10.8125 9 10.953125 9.75 11 C 8.652344 12.371094 8 14.109375 8 16 C 8 17.949219 8.6875 19.738281 9.84375 21.125 L 8.46875 22.6875 C 8.289063 22.46875 8.074219 22.226563 7.96875 22.09375 C 8.003906 22.136719 8.9375 21.78125 8.9375 21.78125 C 7.019531 20.332031 6 19 6 19 C 6 19 5.921875 22.183594 6.40625 23.65625 L 6.4375 23.6875 C 6.4375 23.6875 6.753906 23.179688 6.90625 22.9375 C 6.953125 23.019531 7.191406 23.363281 7.5 23.8125 L 5.03125 26.625 L 6.53125 27.9375 L 8.75 25.40625 C 9.410156 26.105469 10.261719 26.828125 11.28125 27.40625 C 12.359375 28.019531 14.171875 28.328125 14.5625 28.53125 C 15.1875 28.859375 15.699219 29.574219 16 30 C 16.300781 29.574219 16.8125 28.855469 17.4375 28.53125 C 17.828125 28.328125 19.640625 28.019531 20.71875 27.40625 C 21.707031 26.84375 22.53125 26.148438 23.1875 25.46875 L 25.5625 28.0625 L 27.0625 26.6875 L 24.5 23.875 C 24.835938 23.398438 25.074219 23.019531 25.125 22.9375 C 25.277344 23.179688 25.59375 23.6875 25.59375 23.6875 C 26.066406 22.652344 26 19 26 19 C 26 19 25.015625 20.332031 23.09375 21.78125 C 23.09375 21.78125 24.027344 22.136719 24.0625 22.09375 C 23.941406 22.246094 23.71875 22.519531 23.5 22.78125 L 22.0625 21.21875 C 23.269531 19.816406 24 17.996094 24 16 C 24 14.109375 23.347656 12.371094 22.25 11 C 23.015625 10.960938 23.878906 10.824219 24.375 10.40625 C 24.859375 9.996094 27.34375 7.9375 27.34375 7.9375 L 28.03125 7.34375 L 27.53125 6.59375 C 26.730469 5.410156 25.996094 4.5 24.8125 3.59375 L 24.0625 3.03125 L 23.4375 3.75 C 23.4375 3.75 20.945313 6.636719 20.65625 6.96875 C 20.253906 7.425781 20.097656 8.28125 20.0625 9.125 C 19.144531 8.582031 18.109375 8.203125 17 8.0625 L 17 6.9375 C 18.113281 6.855469 19 6.6875 19 6.6875 L 19 5.3125 C 19 5.3125 18.421875 5.214844 17.65625 5.125 C 17.871094 4.804688 18 4.414063 18 4 C 18 2.894531 17.105469 2 16 2 Z M 7.75 5.78125 C 8.46875 6.613281 9.582031 7.882813 9.875 8.21875 C 9.925781 8.355469 9.945313 8.679688 9.96875 9.03125 C 9.488281 9.011719 9.097656 8.941406 8.96875 8.875 C 8.648438 8.605469 7.464844 7.613281 6.6875 6.96875 C 7.015625 6.527344 7.363281 6.152344 7.75 5.78125 Z M 24.3125 5.78125 C 24.699219 6.148438 25.015625 6.527344 25.34375 6.96875 C 24.570313 7.613281 23.425781 8.589844 23.125 8.84375 C 22.980469 8.925781 22.546875 8.980469 22.0625 9 C 22.085938 8.648438 22.136719 8.355469 22.1875 8.21875 C 22.480469 7.882813 23.589844 6.617188 24.3125 5.78125 Z M 16 10 C 19.3125 10 22 12.6875 22 16 C 22 16.292969 21.976563 16.59375 21.9375 16.875 C 20.847656 15.152344 19.914063 14.371094 20 12.03125 L 19.96875 12 C 18.953125 12.339844 18.726563 12.601563 18.03125 12.96875 C 18.035156 12.90625 18.03125 12.820313 18.03125 12.75 C 18.03125 12.378906 17.855469 11.992188 17 12 C 15.050781 12.019531 14.113281 12.683594 12.1875 13.84375 L 11.53125 12 C 12.628906 10.773438 14.222656 10 16 10 Z M 10.8125 12.96875 L 13.96875 21.625 C 11.65625 20.792969 10 18.597656 10 16 C 10 14.898438 10.292969 13.855469 10.8125 12.96875 Z M 21.90625 17.03125 C 21.421875 19.859375 18.964844 22 16 22 C 15.707031 22 15.40625 21.976563 15.125 21.9375 L 14.0625 18.96875 C 14.449219 18.511719 15.386719 17.710938 16 17.4375 C 16 17.4375 16 17.546875 16 17.78125 C 16 18.183594 16.058594 18.609375 16.34375 18.84375 C 16.605469 19.058594 17.015625 19.078125 17.5625 18.90625 C 18.222656 18.699219 21.058594 17.320313 21.90625 17.03125 Z M 11.3125 22.46875 C 12.335938 23.210938 13.535156 23.714844 14.84375 23.90625 C 14.515625 25.023438 13.683594 26 13 26 C 11.9375 26 10.777344 25.132813 9.8125 24.1875 Z M 20.5625 22.5625 L 22.125 24.28125 C 21.167969 25.191406 20.027344 26 19 26 C 18.28125 26 17.429688 25.101563 17.125 23.90625 C 18.390625 23.726563 19.558594 23.261719 20.5625 22.5625 Z "></path>
</g>
</svg>
