<?xml version="1.0" encoding="UTF-8"?>
<svg xmlns="http://www.w3.org/2000/svg" xmlns:xlink="http://www.w3.org/1999/xlink" viewBox="0 0 32 32" version="1.1">
<g>
<path d="M 14.90625 2.75 L 14.34375 3.28125 L 11.46875 6.15625 L 10.9375 6.71875 L 11.3125 7.375 C 11.3125 7.375 13.269531 10.589844 16.53125 14.03125 L 14.375 16.1875 L 12.8125 15.65625 L 12.1875 17.5625 L 16.5 19 L 17.125 17.09375 L 16.53125 16.90625 L 17.96875 15.46875 C 21.421875 18.746094 24.625 20.65625 24.625 20.65625 L 25.28125 21.0625 L 25.84375 20.53125 L 28.71875 17.65625 L 29.25 17.09375 L 28.84375 16.4375 C 28.84375 16.4375 26.65625 12.71875 22.96875 9.03125 C 19.28125 5.34375 15.5625 3.15625 15.5625 3.15625 Z M 15.21875 5.28125 C 16.042969 5.804688 18.558594 7.496094 21.53125 10.46875 C 24.503906 13.441406 26.195313 15.957031 26.71875 16.78125 L 25 18.5 C 24.199219 17.996094 21.675781 16.363281 18.65625 13.34375 C 15.652344 10.339844 13.984375 7.847656 13.46875 7.03125 Z M 9.8125 18.6875 L 9.1875 20.59375 L 13.5 22.03125 L 14.125 20.125 Z M 6.8125 21.6875 L 6.15625 23.59375 L 10.46875 25.03125 L 11.125 23.125 Z M 5.40625 25.15625 L 5 27 L 7.5625 25.875 Z "></path>
</g>
</svg>
