<?xml version="1.0" encoding="UTF-8"?>
<svg xmlns="http://www.w3.org/2000/svg" xmlns:xlink="http://www.w3.org/1999/xlink" viewBox="0 0 32 32" version="1.1">
<g>
<path d="M 16 4 C 13.886719 4 12.074219 5.453125 10.875 7.5625 C 9.707031 9.621094 9.03125 12.367188 9 15.53125 C 8.210938 15.066406 7.378906 14.605469 6.46875 14.125 L 5 13.34375 L 5 15.65625 L 5.34375 15.96875 C 6.699219 17.171875 7.15625 19.914063 8.15625 22.625 C 8.65625 23.980469 9.335938 25.320313 10.53125 26.34375 C 11.726563 27.367188 13.386719 28 15.59375 28 L 16.59375 28 L 16.59375 27.96875 C 18.265625 27.886719 19.5625 27.503906 20.53125 26.875 C 21.621094 26.167969 22.304688 25.207031 22.8125 24.34375 C 23.320313 23.480469 23.683594 22.707031 24.15625 22.15625 C 24.628906 21.605469 25.136719 21.226563 26.15625 21.0625 L 27 20.9375 L 27 19.4375 L 26.53125 19.15625 C 25.308594 18.40625 24.089844 18.039063 22.9375 18 C 22.980469 17.289063 23 16.542969 23 15.75 C 23 12.492188 22.324219 9.671875 21.125 7.5625 C 19.925781 5.453125 18.113281 4 16 4 Z M 16 6 C 17.070313 6 18.152344 6.648438 19.0625 8 C 19.042969 8 19.023438 8 19 8 C 18.449219 8 18 8.449219 18 9 C 18 9.550781 18.449219 10 19 10 C 19.363281 10 19.667969 9.792969 19.84375 9.5 C 20.550781 11.144531 21 13.289063 21 15.75 C 21 16.671875 20.96875 17.5 20.90625 18.28125 C 20.367188 18.4375 19.851563 18.65625 19.375 18.90625 C 18.730469 19.246094 18.144531 19.652344 17.625 20.09375 C 16.835938 20.765625 16.207031 21.46875 15.6875 22.125 C 15.277344 21.144531 14.738281 20.253906 14.03125 19.4375 C 13.855469 19.234375 13.660156 19.039063 13.46875 18.84375 C 13.773438 18.671875 14 18.375 14 18 C 14 17.449219 13.550781 17 13 17 C 12.585938 17 12.246094 17.265625 12.09375 17.625 C 11.75 17.351563 11.410156 17.074219 11.03125 16.8125 C 11.019531 16.457031 11 16.121094 11 15.75 C 11 13.289063 11.449219 11.144531 12.15625 9.5 C 12.332031 9.792969 12.636719 10 13 10 C 13.550781 10 14 9.550781 14 9 C 14 8.449219 13.550781 8 13 8 C 12.976563 8 12.957031 8 12.9375 8 C 13.847656 6.648438 14.929688 6 16 6 Z M 19.375 18.90625 C 19.734375 18.753906 20 18.414063 20 18 C 20 17.449219 19.550781 17 19 17 C 18.449219 17 18 17.449219 18 18 C 18 18.550781 18.449219 19 19 19 C 19.136719 19 19.253906 18.957031 19.375 18.90625 Z M 16 7 C 15.449219 7 15 7.449219 15 8 C 15 8.550781 15.449219 9 16 9 C 16.550781 9 17 8.550781 17 8 C 17 7.449219 16.550781 7 16 7 Z M 16 10 C 15.449219 10 15 10.449219 15 11 C 15 11.550781 15.449219 12 16 12 C 16.550781 12 17 11.550781 17 11 C 17 10.449219 16.550781 10 16 10 Z M 13 11 C 12.449219 11 12 11.449219 12 12 C 12 12.550781 12.449219 13 13 13 C 13.550781 13 14 12.550781 14 12 C 14 11.449219 13.550781 11 13 11 Z M 19 11 C 18.449219 11 18 11.449219 18 12 C 18 12.550781 18.449219 13 19 13 C 19.550781 13 20 12.550781 20 12 C 20 11.449219 19.550781 11 19 11 Z M 16 13 C 15.449219 13 15 13.449219 15 14 C 15 14.550781 15.449219 15 16 15 C 16.550781 15 17 14.550781 17 14 C 17 13.449219 16.550781 13 16 13 Z M 13 14 C 12.449219 14 12 14.449219 12 15 C 12 15.550781 12.449219 16 13 16 C 13.550781 16 14 15.550781 14 15 C 14 14.449219 13.550781 14 13 14 Z M 19 14 C 18.449219 14 18 14.449219 18 15 C 18 15.550781 18.449219 16 19 16 C 19.550781 16 20 15.550781 20 15 C 20 14.449219 19.550781 14 19 14 Z M 16 16 C 15.449219 16 15 16.449219 15 17 C 15 17.550781 15.449219 18 16 18 C 16.550781 18 17 17.550781 17 17 C 17 16.449219 16.550781 16 16 16 Z M 8.6875 17.71875 C 10.277344 18.714844 11.609375 19.71875 12.5 20.75 C 13.699219 22.136719 14.253906 23.753906 14.4375 25.84375 C 13.3125 25.679688 12.421875 25.363281 11.8125 24.84375 C 11 24.144531 10.472656 23.136719 10.03125 21.9375 C 9.554688 20.640625 9.207031 19.140625 8.6875 17.71875 Z M 16 19 C 15.449219 19 15 19.449219 15 20 C 15 20.550781 15.449219 21 16 21 C 16.550781 21 17 20.550781 17 20 C 17 19.449219 16.550781 19 16 19 Z M 22.6875 19.96875 C 22.96875 19.96875 23.265625 20.003906 23.5625 20.0625 C 23.230469 20.304688 22.902344 20.554688 22.65625 20.84375 C 21.953125 21.664063 21.511719 22.578125 21.0625 23.34375 C 20.613281 24.109375 20.15625 24.722656 19.4375 25.1875 C 18.8125 25.59375 17.914063 25.894531 16.5625 25.96875 C 16.53125 25.488281 16.480469 25.039063 16.40625 24.59375 C 16.816406 23.933594 17.675781 22.671875 18.90625 21.625 C 19.773438 20.886719 20.800781 20.269531 21.875 20.0625 C 22.144531 20.011719 22.40625 19.96875 22.6875 19.96875 Z "></path>
</g>
</svg>
