<?xml version="1.0" encoding="UTF-8"?>
<svg xmlns="http://www.w3.org/2000/svg" xmlns:xlink="http://www.w3.org/1999/xlink" viewBox="0 0 32 32" version="1.1">
<g>
<path d="M 27.5 8 L 27.21875 8.375 L 23.65625 13 L 19 13 L 19 11 L 17 11 L 17 13 L 16 13 L 16 11 L 14 11 L 14 13 L 13 13 L 13 11 L 11 11 L 11 13.09375 C 8.726563 13.5625 7 15.59375 7 18 L 7 19 C 7 21.75 9.25 24 12 24 L 18 24 C 20.199219 24 22 22.199219 22 20 L 22 19.5 C 22 18.953125 21.851563 18.460938 21.625 18 L 23.65625 18 L 27.21875 22.625 L 27.5 23 L 30 23 L 30 8 Z M 28 10.65625 L 28 20.34375 L 24.9375 16.375 L 24.65625 16 L 19 16 L 19 15 L 24.65625 15 L 24.9375 14.625 Z M 2 14 L 2 18 L 4 18 L 4 17 L 6.09375 17 C 6.214844 16.28125 6.460938 15.609375 6.8125 15 L 4 15 L 4 14 Z M 13 15 L 14 15 L 14 16 L 13 16 Z M 16 15 L 17 15 L 17 16 L 16 16 Z M 11 15.15625 L 11 16.28125 C 10.402344 16.628906 10 17.261719 10 18 L 18.5 18 C 19.339844 18 20 18.660156 20 19.5 L 20 20 C 20 21.117188 19.117188 22 18 22 L 17.9375 22 C 17.972656 21.839844 18 21.671875 18 21.5 C 18 20.132813 16.867188 19 15.5 19 L 13.5 19 C 12.132813 19 11 20.132813 11 21.5 C 11 21.617188 11.015625 21.730469 11.03125 21.84375 C 9.84375 21.445313 9 20.328125 9 19 L 9 18 C 9 16.679688 9.828125 15.5625 11 15.15625 Z M 13.5 21 L 15.5 21 C 15.785156 21 16 21.214844 16 21.5 C 16 21.785156 15.785156 22 15.5 22 L 13.5 22 C 13.214844 22 13 21.785156 13 21.5 C 13 21.214844 13.214844 21 13.5 21 Z "></path>
</g>
</svg>
