<?xml version="1.0" encoding="UTF-8"?>
<svg xmlns="http://www.w3.org/2000/svg" xmlns:xlink="http://www.w3.org/1999/xlink" viewBox="0 0 32 32" version="1.1">
<g>
<path d="M 4 4 L 4 6 L 12 11.34375 L 12 20.65625 L 4 26 L 4 28 L 13 22 L 19 22 L 28 28 L 28 26 L 20 20.65625 L 20 11.34375 L 28 6 L 28 4 L 19 10 L 13 10 Z M 4 10.78125 L 4 20.21875 L 6 19.125 L 6 11.875 Z M 28 10.78125 L 26 11.875 L 26 19.125 L 28 20.21875 Z M 14 12 L 18 12 L 18 20 L 14 20 Z M 8 12.9375 L 8 18.0625 L 10 17 L 10 14 Z M 24 12.9375 L 22 14 L 22 17 L 24 18.0625 Z "></path>
</g>
</svg>
