<?xml version="1.0"?>
<svg xmlns="http://www.w3.org/2000/svg" viewBox="0 0 32 32">
    <path d="M 16 3 A 1 1 0 0 0 15 4 A 1 1 0 0 0 16 5 A 1 1 0 0 0 17 4 A 1 1 0 0 0 16 3 z M 11.847656 3.7246094 A 1 1 0 0 0 11.554688 3.7851562 A 1 1 0 0 0 10.957031 5.0664062 A 1 1 0 0 0 12.238281 5.6640625 A 1 1 0 0 0 12.835938 4.3828125 A 1 1 0 0 0 11.847656 3.7246094 z M 20.082031 3.7246094 A 1 1 0 0 0 19.164062 4.3828125 A 1 1 0 0 0 19.761719 5.6640625 A 1 1 0 0 0 21.042969 5.0664062 A 1 1 0 0 0 20.445312 3.7851562 A 1 1 0 0 0 20.082031 3.7246094 z M 8.2890625 5.8066406 A 1 1 0 0 0 7.6445312 6.0410156 A 1 1 0 0 0 7.5214844 7.4492188 A 1 1 0 0 0 8.9296875 7.5722656 A 1 1 0 0 0 9.0527344 6.1640625 A 1 1 0 0 0 8.2890625 5.8066406 z M 23.740234 5.8085938 A 1 1 0 0 0 22.947266 6.1660156 A 1 1 0 0 0 23.070312 7.5742188 A 1 1 0 0 0 24.478516 7.4511719 A 1 1 0 0 0 24.355469 6.0429688 A 1 1 0 0 0 23.740234 5.8085938 z M 16 6 C 10.488997 6 6 10.488997 6 16 C 6 21.511003 10.488997 26 16 26 C 21.511003 26 26 21.511003 26 16 C 26 10.488997 21.511003 6 16 6 z M 16 8 C 20.430123 8 24 11.569877 24 16 C 24 20.430123 20.430123 24 16 24 C 11.569877 24 8 20.430123 8 16 C 8 11.569877 11.569877 8 16 8 z M 26.367188 9 A 1 1 0 0 0 25.890625 9.1328125 A 1 1 0 0 0 25.525391 10.5 A 1 1 0 0 0 26.890625 10.865234 A 1 1 0 0 0 27.257812 9.5 A 1 1 0 0 0 26.367188 9 z M 5.5605469 9.0019531 A 1 1 0 0 0 4.7421875 9.5 A 1 1 0 0 0 5.1074219 10.865234 A 1 1 0 0 0 6.4746094 10.5 A 1 1 0 0 0 6.1074219 9.1347656 A 1 1 0 0 0 5.5605469 9.0019531 z M 4.1855469 12.916016 A 1 1 0 0 0 3.1972656 13.742188 A 1 1 0 0 0 4.0078125 14.900391 A 1 1 0 0 0 5.1660156 14.089844 A 1 1 0 0 0 4.3554688 12.931641 A 1 1 0 0 0 4.1855469 12.916016 z M 27.841797 12.917969 A 1 1 0 0 0 27.642578 12.931641 A 1 1 0 0 0 26.832031 14.091797 A 1 1 0 0 0 27.990234 14.902344 A 1 1 0 0 0 28.802734 13.744141 A 1 1 0 0 0 27.841797 12.917969 z M 4.2070312 17.083984 A 1 1 0 0 0 4.0078125 17.099609 A 1 1 0 0 0 3.1953125 18.257812 A 1 1 0 0 0 4.3554688 19.068359 A 1 1 0 0 0 5.1660156 17.910156 A 1 1 0 0 0 4.2070312 17.083984 z M 27.820312 17.083984 A 1 1 0 0 0 26.832031 17.910156 A 1 1 0 0 0 27.644531 19.068359 A 1 1 0 0 0 28.802734 18.255859 A 1 1 0 0 0 27.990234 17.097656 A 1 1 0 0 0 27.820312 17.083984 z M 5.5839844 21 A 1 1 0 0 0 5.1074219 21.132812 A 1 1 0 0 0 4.7421875 22.5 A 1 1 0 0 0 6.1074219 22.865234 A 1 1 0 0 0 6.4746094 21.5 A 1 1 0 0 0 5.5839844 21 z M 26.345703 21.001953 A 1 1 0 0 0 25.527344 21.5 A 1 1 0 0 0 25.892578 22.867188 A 1 1 0 0 0 27.257812 22.5 A 1 1 0 0 0 26.892578 21.134766 A 1 1 0 0 0 26.345703 21.001953 z M 23.714844 24.191406 A 1 1 0 0 0 23.070312 24.425781 A 1 1 0 0 0 22.947266 25.833984 A 1 1 0 0 0 24.355469 25.958984 A 1 1 0 0 0 24.478516 24.548828 A 1 1 0 0 0 23.714844 24.191406 z M 8.3144531 24.195312 A 1 1 0 0 0 7.5214844 24.550781 A 1 1 0 0 0 7.6445312 25.960938 A 1 1 0 0 0 9.0527344 25.837891 A 1 1 0 0 0 8.9296875 24.427734 A 1 1 0 0 0 8.3144531 24.195312 z M 11.873047 26.275391 A 1 1 0 0 0 10.955078 26.933594 A 1 1 0 0 0 11.552734 28.214844 A 1 1 0 0 0 12.835938 27.617188 A 1 1 0 0 0 12.238281 26.335938 A 1 1 0 0 0 11.873047 26.275391 z M 20.054688 26.277344 A 1 1 0 0 0 19.761719 26.337891 A 1 1 0 0 0 19.164062 27.619141 A 1 1 0 0 0 20.445312 28.216797 A 1 1 0 0 0 21.042969 26.935547 A 1 1 0 0 0 20.054688 26.277344 z M 16 27 A 1 1 0 0 0 15 28 A 1 1 0 0 0 16 29 A 1 1 0 0 0 17 28 A 1 1 0 0 0 16 27 z"></path>
</svg>
