<?xml version="1.0" encoding="UTF-8"?>
<svg xmlns="http://www.w3.org/2000/svg" xmlns:xlink="http://www.w3.org/1999/xlink" viewBox="0 0 32 32" version="1.1">
<g>
<path d="M 5 5 L 5 27 L 7 27 L 7 17 L 10.1875 17 C 10.636719 18.992188 11.117188 20.96875 11.84375 22.59375 C 12.253906 23.511719 12.726563 24.339844 13.40625 24.96875 C 14.085938 25.597656 15 26 16 26 C 17 26 17.914063 25.597656 18.59375 24.96875 C 19.273438 24.339844 19.746094 23.511719 20.15625 22.59375 C 20.878906 20.96875 21.363281 18.992188 21.8125 17 L 27 17 L 27 15 L 22.28125 15 C 22.695313 13.195313 23.132813 11.472656 23.6875 10.21875 C 24.027344 9.449219 24.398438 8.855469 24.78125 8.5 C 25.164063 8.144531 25.503906 8 26 8 L 26 6 C 25 6 24.082031 6.402344 23.40625 7.03125 C 22.730469 7.660156 22.25 8.488281 21.84375 9.40625 C 21.125 11.027344 20.664063 13.011719 20.21875 15 L 11.78125 15 C 11.335938 13.011719 10.875 11.027344 10.15625 9.40625 C 9.75 8.488281 9.238281 7.660156 8.5625 7.03125 C 8.125 6.625 7.585938 6.324219 7 6.15625 L 7 5 Z M 7 8.34375 C 7.070313 8.394531 7.148438 8.433594 7.21875 8.5 C 7.601563 8.855469 7.972656 9.449219 8.3125 10.21875 C 8.867188 11.472656 9.304688 13.195313 9.71875 15 L 7 15 Z M 12.25 17 L 19.75 17 C 19.335938 18.804688 18.902344 20.53125 18.34375 21.78125 C 18 22.550781 17.605469 23.144531 17.21875 23.5 C 16.832031 23.855469 16.5 24 16 24 C 15.5 24 15.167969 23.855469 14.78125 23.5 C 14.394531 23.144531 14 22.550781 13.65625 21.78125 C 13.097656 20.53125 12.664063 18.804688 12.25 17 Z "></path>
</g>
</svg>
