<?xml version="1.0" encoding="UTF-8"?>
<svg xmlns="http://www.w3.org/2000/svg" xmlns:xlink="http://www.w3.org/1999/xlink" viewBox="0 0 32 32" version="1.1">
<g>
<path d="M 8 4 C 6.355469 4 5 5.355469 5 7 C 5 8.644531 6.355469 10 8 10 C 9.644531 10 11 8.644531 11 7 C 11 5.355469 9.644531 4 8 4 Z M 8 6 C 8.5625 6 9 6.4375 9 7 C 9 7.5625 8.5625 8 8 8 C 7.4375 8 7 7.5625 7 7 C 7 6.4375 7.4375 6 8 6 Z M 22.5 6 C 20.484375 6 18.785156 7.351563 18.21875 9.1875 C 17.5 9.082031 16.753906 9 16 9 C 12.753906 9 9.808594 10 7.625 11.6875 C 5.441406 13.375 4 15.804688 4 18.5 C 4 21.195313 5.441406 23.625 7.625 25.3125 C 9.808594 27 12.753906 28 16 28 C 19.246094 28 22.191406 27 24.375 25.3125 C 26.558594 23.625 28 21.195313 28 18.5 C 28 16.542969 27.242188 14.734375 26 13.25 C 26.613281 12.503906 27 11.550781 27 10.5 C 27 8.027344 24.972656 6 22.5 6 Z M 22.5 8 C 23.890625 8 25 9.109375 25 10.5 C 25 11.78125 24.050781 12.8125 22.8125 12.96875 L 21.71875 13.09375 L 21.96875 14.1875 C 21.996094 14.308594 22 14.398438 22 14.5 C 22 15.339844 21.339844 16 20.5 16 C 19.660156 16 19 15.339844 19 14.5 C 19 13.886719 19.355469 13.359375 19.875 13.125 L 20.875 12.6875 L 20.34375 11.71875 C 20.125 11.339844 20 10.941406 20 10.5 C 20 9.109375 21.109375 8 22.5 8 Z M 16 11 C 16.730469 11 17.441406 11.078125 18.125 11.1875 C 18.199219 11.425781 18.289063 11.667969 18.375 11.90625 C 17.589844 12.546875 17 13.414063 17 14.5 C 17 16.421875 18.578125 18 20.5 18 C 22.367188 18 23.878906 16.5 23.96875 14.65625 C 24.121094 14.601563 24.261719 14.535156 24.40625 14.46875 C 25.421875 15.65625 26 17.027344 26 18.5 C 26 20.496094 24.953125 22.332031 23.15625 23.71875 C 21.359375 25.105469 18.828125 26 16 26 C 13.171875 26 10.640625 25.105469 8.84375 23.71875 C 7.046875 22.332031 6 20.496094 6 18.5 C 6 16.503906 7.046875 14.667969 8.84375 13.28125 C 10.640625 11.894531 13.171875 11 16 11 Z M 15 13 C 13.472656 13 11.84375 13.464844 10.5 14.28125 C 9.15625 15.097656 8 16.359375 8 18 L 10 18 C 10 17.335938 10.53125 16.605469 11.53125 16 C 12.53125 15.394531 13.902344 15 15 15 Z "></path>
</g>
</svg>
