<?xml version="1.0" encoding="UTF-8"?>
<svg xmlns="http://www.w3.org/2000/svg" xmlns:xlink="http://www.w3.org/1999/xlink" viewBox="0 0 32 32" version="1.1">
<g>
<path d="M 18 4 C 16.53125 4 15.410156 4.910156 14.71875 6.09375 C 14.480469 6.0625 14.257813 6 14 6 C 10.699219 6 8 8.699219 8 12 C 8 12.375 8.089844 12.699219 8.15625 13.03125 C 7.488281 13.667969 7 14.503906 7 15.5 C 7 16.28125 7.316406 16.953125 7.75 17.53125 C 7.316406 18.265625 7 19.082031 7 20 C 7 21.015625 7.285156 21.957031 7.8125 22.75 L 3.28125 27.28125 L 4.71875 28.71875 L 9.25 24.1875 C 10.042969 24.714844 10.984375 25 12 25 C 13.324219 25 14.453125 24.402344 15.34375 23.5625 C 15.871094 23.761719 16.386719 24 17 24 C 17.171875 24 17.332031 23.984375 17.5 23.96875 C 17.734375 23.945313 17.964844 23.898438 18.1875 23.84375 C 18.441406 23.777344 18.699219 23.699219 18.9375 23.59375 C 19.011719 23.5625 19.082031 23.535156 19.15625 23.5 C 19.242188 23.457031 19.320313 23.390625 19.40625 23.34375 C 20.382813 22.796875 21.160156 21.945313 21.59375 20.90625 C 21.730469 20.929688 21.851563 21 22 21 C 24.199219 21 26 19.199219 26 17 C 26 16.839844 25.957031 16.710938 25.9375 16.5625 C 26.554688 15.863281 27 15.007813 27 14 C 27 13.398438 26.707031 12.914063 26.46875 12.40625 C 27.347656 11.507813 28 10.355469 28 9 C 28 6.25 25.75 4 23 4 C 22.027344 4 21.167969 4.359375 20.40625 4.84375 C 19.894531 4.449219 19.316406 4.171875 18.65625 4.0625 C 18.445313 4.019531 18.222656 4 18 4 Z M 18 6 C 18.152344 6 18.292969 6.03125 18.4375 6.0625 C 18.554688 6.089844 18.671875 6.109375 18.78125 6.15625 C 18.800781 6.164063 18.824219 6.175781 18.84375 6.1875 C 18.941406 6.230469 19.039063 6.285156 19.125 6.34375 C 19.136719 6.351563 19.144531 6.367188 19.15625 6.375 C 19.25 6.441406 19.328125 6.515625 19.40625 6.59375 C 19.445313 6.632813 19.492188 6.675781 19.53125 6.71875 C 19.820313 7.066406 20 7.507813 20 8 C 20 8.441406 19.859375 8.828125 19.625 9.15625 L 21.25 10.34375 C 21.722656 9.6875 22 8.867188 22 8 C 22 7.410156 21.859375 6.851563 21.625 6.34375 C 22.039063 6.121094 22.496094 6 23 6 C 24.667969 6 26 7.332031 26 9 C 26 9.984375 25.519531 10.851563 24.78125 11.40625 L 23.96875 12 L 24.59375 12.8125 C 24.855469 13.15625 25 13.550781 25 14 C 25 14.617188 24.730469 15.15625 24.28125 15.53125 L 23.78125 15.9375 L 23.9375 16.53125 C 23.980469 16.703125 24 16.859375 24 17 C 24 18.117188 23.117188 19 22 19 C 22 17.335938 21.164063 15.84375 19.90625 14.9375 L 18.75 16.5625 C 19.507813 17.109375 20 17.988281 20 19 C 20 19.207031 19.976563 19.398438 19.9375 19.59375 C 19.867188 19.9375 19.738281 20.273438 19.5625 20.5625 C 19.539063 20.601563 19.527344 20.648438 19.5 20.6875 C 19.433594 20.789063 19.359375 20.875 19.28125 20.96875 C 19.234375 21.023438 19.175781 21.074219 19.125 21.125 C 18.585938 21.667969 17.835938 22 17 22 C 16.492188 22 16.035156 21.867188 15.59375 21.625 L 14.84375 21.21875 L 14.3125 21.875 C 13.753906 22.566406 12.945313 23 12 23 C 10.332031 23 9 21.667969 9 20 C 9 19.269531 9.273438 18.625 9.71875 18.09375 L 10.375 17.3125 L 9.5625 16.65625 C 9.210938 16.375 9 15.972656 9 15.5 C 9 14.949219 9.277344 14.484375 9.71875 14.21875 L 10.375 13.8125 L 10.1875 13.09375 C 10.078125 12.714844 10 12.355469 10 12 C 10 9.78125 11.78125 8 14 8 C 14.300781 8 14.59375 8.050781 14.90625 8.125 L 15.8125 8.34375 L 16.09375 7.4375 C 16.34375 6.609375 17.089844 6 18 6 Z M 16 12.5 C 16 13.339844 15.339844 14 14.5 14 L 14.5 16 C 16.421875 16 18 14.421875 18 12.5 Z "></path>
</g>
</svg>
