<?xml version="1.0" encoding="UTF-8"?>
<svg xmlns="http://www.w3.org/2000/svg" xmlns:xlink="http://www.w3.org/1999/xlink" viewBox="0 0 32 32" version="1.1">
<g>
<path d="M 4 4 L 4 16 L 5 16 L 5 28 L 15 28 L 15 21 L 17 21 L 17 28 L 27 28 L 27 16 L 28 16 L 28 4 Z M 6 6 L 26 6 L 26 14 L 21.4375 14 L 16.71875 9.28125 L 16 8.59375 L 15.28125 9.28125 L 10.5625 14 L 6 14 Z M 16 11.4375 L 20.28125 15.71875 L 20.59375 16 L 25 16 L 25 26 L 19 26 L 19 19 L 13 19 L 13 26 L 7 26 L 7 16 L 11.40625 16 L 11.71875 15.71875 Z M 9 19 L 9 23 L 11 23 L 11 19 Z M 21 19 L 21 23 L 23 23 L 23 19 Z "></path>
</g>
</svg>
