<?xml version="1.0" encoding="UTF-8"?>
<svg xmlns="http://www.w3.org/2000/svg" xmlns:xlink="http://www.w3.org/1999/xlink" viewBox="0 0 32 32" version="1.1">
<g>
<path d="M 2 8 L 2 24 L 31 24 L 31 8 Z M 4 10 L 11 10 L 11 22 L 4 22 Z M 13 10 L 20 10 L 20 22 L 13 22 Z M 22 10 L 29 10 L 29 22 L 22 22 Z M 23 11 L 23 12.5 C 23 13.878906 24.121094 15 25.5 15 C 26.878906 15 28 13.878906 28 12.5 C 28 11.933594 27.816406 11.417969 27.5 11 Z M 7.5 12 C 6.132813 12 5 13.132813 5 14.5 L 5 17.5 C 5 18.867188 6.132813 20 7.5 20 C 8.867188 20 10 18.867188 10 17.5 L 10 14.5 C 10 13.132813 8.867188 12 7.5 12 Z M 16.5 12 C 15.132813 12 14 13.132813 14 14.5 L 14 17.5 C 14 18.867188 15.132813 20 16.5 20 C 17.867188 20 19 18.867188 19 17.5 L 19 14.5 C 19 13.132813 17.867188 12 16.5 12 Z M 25.5 12 C 25.777344 12 26 12.222656 26 12.5 C 26 12.777344 25.777344 13 25.5 13 C 25.222656 13 25 12.777344 25 12.5 C 25 12.222656 25.222656 12 25.5 12 Z M 7.5 14 C 7.785156 14 8 14.214844 8 14.5 L 8 17.5 C 8 17.785156 7.785156 18 7.5 18 C 7.214844 18 7 17.785156 7 17.5 L 7 14.5 C 7 14.214844 7.214844 14 7.5 14 Z M 16.5 14 C 16.785156 14 17 14.214844 17 14.5 L 17 17.5 C 17 17.785156 16.785156 18 16.5 18 C 16.214844 18 16 17.785156 16 17.5 L 16 14.5 C 16 14.214844 16.214844 14 16.5 14 Z M 23 16 L 23 18 L 25.5625 18 C 25.195313 18.71875 24.730469 19.769531 24.40625 21 L 26.5 21 C 27.039063 19.28125 27.832031 18.082031 27.84375 18.0625 L 28 17.8125 L 28 16 Z "></path>
</g>
</svg>
