<?xml version="1.0" encoding="UTF-8"?>
<svg xmlns="http://www.w3.org/2000/svg" xmlns:xlink="http://www.w3.org/1999/xlink" viewBox="0 0 32 32" version="1.1">
<g>
<path d="M 16 4 C 14.078125 4 12.5 5.578125 12.5 7.5 C 12.5 9.421875 14.078125 11 16 11 C 17.921875 11 19.5 9.421875 19.5 7.5 C 19.5 5.578125 17.921875 4 16 4 Z M 16 6 C 16.839844 6 17.5 6.660156 17.5 7.5 C 17.5 8.339844 16.839844 9 16 9 C 15.160156 9 14.5 8.339844 14.5 7.5 C 14.5 6.660156 15.160156 6 16 6 Z M 15.625 12 C 13.335938 12 11.335938 13.558594 10.78125 15.78125 L 10.03125 18.75 L 9.875 19.40625 L 10.40625 19.8125 L 14.40625 22.8125 L 15.59375 21.1875 L 12.125 18.59375 L 12.71875 16.28125 C 13.054688 14.941406 14.242188 14 15.625 14 L 16.375 14 C 17.757813 14 18.945313 14.941406 19.28125 16.28125 L 19.875 18.59375 L 16.40625 21.1875 L 17.59375 22.8125 L 21.59375 19.8125 L 22.125 19.40625 L 21.96875 18.75 L 21.21875 15.78125 C 20.664063 13.558594 18.664063 12 16.375 12 Z M 5 20 L 5 28 L 7 28 L 7 22 L 9 22 L 9 20 Z M 23 20 L 23 22 L 25 22 L 25 28 L 27 28 L 27 20 Z M 10.40625 21.40625 C 10.03125 21.933594 9.882813 22.621094 10.09375 23.28125 L 11.625 28 L 13.71875 28 L 12 22.65625 C 11.992188 22.636719 11.996094 22.613281 12 22.59375 Z M 21.59375 21.40625 L 20 22.59375 C 20.003906 22.613281 20.007813 22.636719 20 22.65625 L 18.28125 28 L 20.375 28 L 21.90625 23.28125 C 22.117188 22.621094 21.96875 21.933594 21.59375 21.40625 Z "></path>
</g>
</svg>
