<?xml version="1.0" encoding="UTF-8"?>
<svg xmlns="http://www.w3.org/2000/svg" xmlns:xlink="http://www.w3.org/1999/xlink" viewBox="0 0 32 32" version="1.1">
<g>
<path d="M 5 5 L 5 27 L 27 27 L 27 5 L 18 5 L 18 8 L 14 8 L 14 5 Z M 7 7 L 12 7 L 12 10 L 8 10 L 8 12 L 12 12 L 12 21 L 8 21 L 8 23 L 12 23 L 12 25 L 7 25 Z M 20 7 L 25 7 L 25 10 L 21 10 L 21 12 L 25 12 L 25 21 L 21 21 L 21 23 L 25 23 L 25 25 L 20 25 Z M 14 10 L 18 10 L 18 12 L 15 12 L 15 14 L 18 14 L 18 21 L 15 21 L 15 23 L 18 23 L 18 25 L 14 25 Z "></path>
</g>
</svg>
