<?xml version="1.0" encoding="UTF-8"?>
<svg xmlns="http://www.w3.org/2000/svg" xmlns:xlink="http://www.w3.org/1999/xlink" viewBox="0 0 32 32" version="1.1">
<g>
<path d="M 16 3.90625 L 3.625 9.0625 L 3 9.34375 L 3 26 L 29 26 L 29 9.34375 L 28.375 9.0625 Z M 16 6.09375 L 27 10.6875 L 27 24 L 5 24 L 5 10.6875 Z M 16 11 C 15.148438 11 14.414063 11.53125 14.125 12.28125 C 13.296875 12.085938 12.230469 11.957031 10.9375 12.09375 C 9.875 12.203125 8.71875 12.519531 7.53125 13.125 L 8.46875 14.875 C 8.75 14.730469 9.039063 14.636719 9.3125 14.53125 L 7.8125 19 L 7 19 C 7 20.65625 8.34375 22 10 22 C 11.65625 22 13 20.65625 13 19 L 12.1875 19 L 10.5625 14.15625 C 12.390625 13.792969 13.863281 14.164063 14.71875 14.5 C 15.066406 14.796875 15.503906 15 16 15 C 16.085938 15 16.167969 14.980469 16.25 14.96875 C 16.261719 14.96875 16.269531 14.96875 16.28125 14.96875 C 16.648438 14.917969 16.972656 14.753906 17.25 14.53125 C 18.109375 14.199219 19.640625 13.820313 21.4375 14.15625 L 19.8125 19 L 19 19 C 19 20.65625 20.34375 22 22 22 C 23.65625 22 25 20.65625 25 19 L 24.1875 19 L 22.6875 14.5 C 22.96875 14.605469 23.246094 14.722656 23.53125 14.875 L 24.46875 13.125 C 21.84375 11.734375 19.460938 11.886719 17.875 12.28125 C 17.585938 11.53125 16.851563 11 16 11 Z M 10 15.5625 L 11.15625 19 L 8.84375 19 Z M 22 15.5625 L 23.15625 19 L 20.84375 19 Z "></path>
</g>
</svg>
