<?xml version="1.0" encoding="UTF-8"?>
<svg xmlns="http://www.w3.org/2000/svg" xmlns:xlink="http://www.w3.org/1999/xlink" viewBox="0 0 32 32" version="1.1">
<g>
<path d="M 16 5 C 14.058594 5 12.300781 5.808594 11.03125 7.09375 C 10.871094 7.035156 10.683594 7 10.5 7 C 9.671875 7 9 7.671875 9 8.5 C 9 8.914063 9.167969 9.292969 9.4375 9.5625 C 9.382813 9.714844 9.328125 9.875 9.28125 10.03125 C 8.554688 10.136719 8 10.746094 8 11.5 C 8 12.179688 8.441406 12.753906 9.0625 12.9375 C 9.066406 12.980469 9.085938 13.019531 9.09375 13.0625 C 8.457031 13.238281 8 13.808594 8 14.5 C 8 15.328125 8.671875 16 9.5 16 C 9.734375 16 9.960938 15.9375 10.15625 15.84375 C 10.667969 16.621094 11.324219 17.292969 12.09375 17.8125 C 8.527344 19.34375 6 22.882813 6 27 L 8 27 C 8 23.550781 10.167969 20.628906 13.21875 19.5 L 12.03125 25.8125 L 11.78125 27 L 20.21875 27 L 19.96875 25.8125 L 18.78125 19.5 C 21.832031 20.628906 24 23.550781 24 27 L 26 27 C 26 22.882813 23.472656 19.34375 19.90625 17.8125 C 20.675781 17.292969 21.332031 16.621094 21.84375 15.84375 C 22.039063 15.9375 22.265625 16 22.5 16 C 23.328125 16 24 15.328125 24 14.5 C 24 13.808594 23.542969 13.238281 22.90625 13.0625 C 22.914063 13.019531 22.933594 12.980469 22.9375 12.9375 C 23.558594 12.753906 24 12.179688 24 11.5 C 24 10.746094 23.445313 10.136719 22.71875 10.03125 C 22.671875 9.875 22.621094 9.714844 22.5625 9.5625 C 22.832031 9.292969 23 8.914063 23 8.5 C 23 7.671875 22.328125 7 21.5 7 C 21.316406 7 21.128906 7.035156 20.96875 7.09375 C 19.699219 5.808594 17.941406 5 16 5 Z M 16 7 C 17.734375 7 19.261719 7.859375 20.15625 9.1875 C 20.191406 9.238281 20.21875 9.292969 20.25 9.34375 C 20.726563 10.109375 21 11.023438 21 12 C 21 14.773438 18.773438 17 16 17 C 13.226563 17 11 14.773438 11 12 C 11 11.023438 11.273438 10.109375 11.75 9.34375 C 11.785156 9.292969 11.816406 9.242188 11.84375 9.1875 C 12.738281 7.859375 14.265625 7 16 7 Z M 16 19 C 16.222656 19 16.4375 19.011719 16.65625 19.03125 L 17.8125 25 L 14.1875 25 L 15.3125 19.03125 C 15.542969 19.011719 15.765625 19 16 19 Z "></path>
</g>
</svg>
