<?xml version="1.0" encoding="UTF-8"?>
<svg xmlns="http://www.w3.org/2000/svg" xmlns:xlink="http://www.w3.org/1999/xlink" viewBox="0 0 32 32" version="1.1">
<g>
<path d="M 6 3 L 6 10 L 8 10 L 8 5 L 24 5 L 24 10 L 26 10 L 26 3 Z M 10.5 12 C 9.132813 12 8 13.132813 8 14.5 L 8 17.5 C 8 18.867188 9.132813 20 10.5 20 C 11.867188 20 13 18.867188 13 17.5 L 13 17 L 11 17 L 11 17.5 C 11 17.785156 10.785156 18 10.5 18 C 10.214844 18 10 17.785156 10 17.5 L 10 14.5 C 10 14.214844 10.214844 14 10.5 14 C 10.785156 14 11 14.214844 11 14.5 L 11 15 L 13 15 L 13 14.5 C 13 13.132813 11.867188 12 10.5 12 Z M 14 12 L 14 20 L 16 20 L 16 17 L 17 20 L 19 20 L 17.875 16.59375 C 18.558594 16.144531 19 15.371094 19 14.5 C 19 13.132813 17.867188 12 16.5 12 Z M 22.5 12 C 21.132813 12 20 13.132813 20 14.5 L 20 15 L 22 15 L 22 14.5 C 22 14.214844 22.214844 14 22.5 14 C 22.785156 14 23 14.214844 23 14.5 L 23 15.34375 C 23 15.484375 22.945313 15.625 22.84375 15.71875 L 20.3125 18 L 20 18.3125 L 20 20 L 25 20 L 25 18 L 23.3125 18 L 24.1875 17.1875 C 24.703125 16.714844 25 16.042969 25 15.34375 L 25 14.5 C 25 13.132813 23.867188 12 22.5 12 Z M 16 14 L 16.5 14 C 16.785156 14 17 14.214844 17 14.5 C 17 14.785156 16.785156 15 16.5 15 L 16 15 Z M 6 22 L 6 29 L 26 29 L 26 22 L 24 22 L 24 27 L 8 27 L 8 22 Z "></path>
</g>
</svg>
