<?xml version="1.0" encoding="UTF-8"?>
<svg xmlns="http://www.w3.org/2000/svg" xmlns:xlink="http://www.w3.org/1999/xlink" viewBox="0 0 32 32" version="1.1">
<g>
<path d="M 12 4 C 9.242188 4 7.203125 5.046875 5.90625 6.375 C 4.609375 7.703125 4 9.234375 4 10.5 C 4 11.148438 4.207031 11.886719 4.78125 12.625 C 5.074219 13.003906 5.484375 13.371094 6 13.625 C 5.929688 14.121094 6.007813 14.617188 6.1875 15.0625 C 6.476563 15.769531 7.082031 16.253906 7.8125 16.5625 C 7.992188 17.082031 8.144531 17.613281 8.5 17.96875 C 8.605469 18.074219 8.714844 18.191406 8.84375 18.28125 C 8.726563 18.511719 8.625 18.753906 8.53125 19 C 7.519531 18.96875 6.921875 18.675781 6.5625 18.34375 C 6.183594 17.992188 6 17.558594 6 17 L 4 17 C 4 18.023438 4.367188 19.089844 5.1875 19.84375 C 5.886719 20.488281 6.871094 20.867188 8.0625 20.96875 C 8.027344 21.289063 8 21.628906 8 21.96875 C 7.082031 22.113281 6.265625 21.777344 5.65625 21.25 L 4.34375 22.75 C 5.496094 23.753906 7.277344 24.34375 9.09375 23.75 C 9.328125 24.035156 9.597656 24.328125 9.90625 24.65625 C 9.523438 24.910156 9.191406 25.207031 8.9375 25.53125 C 8.304688 26.34375 8 27.195313 8 28 L 10 28 C 10 27.871094 10.175781 27.203125 10.53125 26.75 C 10.777344 26.433594 11.058594 26.210938 11.4375 26.09375 C 12.6875 27.117188 14.226563 28 16 28 C 17.773438 28 19.3125 27.117188 20.5625 26.09375 C 20.941406 26.210938 21.222656 26.433594 21.46875 26.75 C 21.824219 27.203125 22 27.871094 22 28 L 24 28 C 24 27.195313 23.695313 26.34375 23.0625 25.53125 C 22.808594 25.207031 22.476563 24.910156 22.09375 24.65625 C 22.40625 24.328125 22.671875 24.03125 22.90625 23.75 C 24.722656 24.34375 26.503906 23.753906 27.65625 22.75 L 26.34375 21.25 C 25.734375 21.777344 24.917969 22.113281 24 21.96875 C 24 21.628906 23.972656 21.289063 23.9375 20.96875 C 25.128906 20.867188 26.113281 20.488281 26.8125 19.84375 C 27.632813 19.089844 28 18.023438 28 17 L 26 17 C 26 17.558594 25.816406 17.992188 25.4375 18.34375 C 25.078125 18.675781 24.480469 18.96875 23.46875 19 C 23.375 18.75 23.273438 18.511719 23.15625 18.28125 C 23.285156 18.191406 23.394531 18.074219 23.5 17.96875 C 23.855469 17.613281 24.007813 17.082031 24.1875 16.5625 C 24.917969 16.253906 25.523438 15.769531 25.8125 15.0625 C 25.992188 14.617188 26.070313 14.121094 26 13.625 C 26.515625 13.371094 26.925781 13.003906 27.21875 12.625 C 27.792969 11.886719 28 11.148438 28 10.5 C 28 9.234375 27.390625 7.703125 26.09375 6.375 C 24.796875 5.046875 22.757813 4 20 4 L 20 6 C 22.269531 6 23.710938 6.8125 24.65625 7.78125 C 25.601563 8.75 26 9.96875 26 10.5 C 26 10.574219 25.882813 11.074219 25.625 11.40625 C 25.367188 11.738281 25.042969 12 24.28125 12 C 23.855469 12 22.683594 11.8125 21.75 11.125 C 21.144531 10.679688 20.597656 10.054688 20.28125 9.03125 C 22.007813 9.140625 22.78125 10.1875 22.78125 10.1875 L 24.375 8.96875 C 24.375 8.96875 22.820313 7 20 7 L 18 7 C 18 9.839844 19.171875 11.726563 20.5625 12.75 C 21.835938 13.6875 23.15625 13.929688 24.03125 13.96875 C 24.035156 14.089844 24.011719 14.203125 23.96875 14.3125 C 23.867188 14.566406 23.617188 14.796875 23.25 14.875 L 22.625 15 L 22.5 15.65625 C 22.417969 16.089844 22.210938 16.414063 22.0625 16.5625 C 22.023438 16.601563 22.019531 16.609375 22 16.625 C 21.828125 16.433594 21.65625 16.230469 21.46875 16.0625 C 19.953125 14.699219 17.980469 14 16 14 C 14.019531 14 12.046875 14.699219 10.53125 16.0625 C 10.332031 16.242188 10.148438 16.421875 9.96875 16.625 C 9.957031 16.605469 9.964844 16.589844 9.9375 16.5625 C 9.789063 16.414063 9.582031 16.089844 9.5 15.65625 L 9.375 15 L 8.75 14.875 C 8.382813 14.796875 8.132813 14.566406 8.03125 14.3125 C 7.988281 14.203125 7.964844 14.089844 7.96875 13.96875 C 8.84375 13.929688 10.164063 13.6875 11.4375 12.75 C 12.828125 11.726563 14 9.839844 14 7 L 12 7 C 9.179688 7 7.625 8.96875 7.625 8.96875 L 9.21875 10.1875 C 9.21875 10.1875 9.992188 9.140625 11.71875 9.03125 C 11.402344 10.054688 10.855469 10.679688 10.25 11.125 C 9.316406 11.8125 8.144531 12 7.71875 12 C 6.957031 12 6.632813 11.738281 6.375 11.40625 C 6.117188 11.074219 6 10.574219 6 10.5 C 6 9.96875 6.398438 8.75 7.34375 7.78125 C 8.289063 6.8125 9.730469 6 12 6 Z M 16 16 C 17.511719 16 19.011719 16.53125 20.125 17.53125 C 21.179688 18.480469 21.863281 19.871094 21.9375 21.71875 C 21.773438 21.953125 21.226563 22.753906 20.15625 23.78125 C 18.9375 24.953125 17.335938 26 16 26 C 14.664063 26 13.0625 24.953125 11.84375 23.78125 C 10.773438 22.753906 10.226563 21.953125 10.0625 21.71875 C 10.136719 19.871094 10.820313 18.480469 11.875 17.53125 C 12.988281 16.53125 14.488281 16 16 16 Z "></path>
</g>
</svg>
