<?xml version="1.0" encoding="UTF-8"?>
<svg xmlns="http://www.w3.org/2000/svg" xmlns:xlink="http://www.w3.org/1999/xlink" viewBox="0 0 32 32" version="1.1">
<g>
<path d="M 5 5 L 5 27 L 27 27 L 27 5 Z M 7 7 L 9.84375 7 C 9.484375 8.40625 8.40625 9.484375 7 9.84375 Z M 11.90625 7 L 20.09375 7 C 20.515625 9.511719 22.488281 11.484375 25 11.90625 L 25 20.09375 C 22.488281 20.515625 20.515625 22.488281 20.09375 25 L 11.90625 25 C 11.484375 22.488281 9.511719 20.515625 7 20.09375 L 7 11.90625 C 9.511719 11.484375 11.484375 9.511719 11.90625 7 Z M 22.15625 7 L 25 7 L 25 9.84375 C 23.59375 9.484375 22.515625 8.40625 22.15625 7 Z M 11 11 L 11 21 L 21 21 L 21 11 Z M 13 13 L 15 13 L 15 15 L 13 15 Z M 17 13 L 19 13 L 19 15 L 17 15 Z M 13 17 L 15 17 L 15 19 L 13 19 Z M 17 17 L 19 17 L 19 19 L 17 19 Z M 7 22.15625 C 8.40625 22.515625 9.484375 23.59375 9.84375 25 L 7 25 Z M 25 22.15625 L 25 25 L 22.15625 25 C 22.515625 23.59375 23.59375 22.515625 25 22.15625 Z "></path>
</g>
</svg>
