<?xml version="1.0" encoding="UTF-8"?>
<svg xmlns="http://www.w3.org/2000/svg" xmlns:xlink="http://www.w3.org/1999/xlink" viewBox="0 0 32 32" version="1.1">
<g>
<path d="M 23.65625 4 L 23.40625 4.1875 L 16 9.71875 C 15.613281 9.265625 15.039063 9 14.4375 9 L 7 9 C 5.90625 9 5 9.90625 5 11 L 5 17 C 5 18.09375 5.90625 19 7 19 L 8 19 L 8 20 L 7 20 C 4.800781 20 3 21.800781 3 24 C 3 26.199219 4.800781 28 7 28 L 19 28 C 21.199219 28 23 26.199219 23 24 C 23 21.800781 21.199219 20 19 20 L 17 20 L 17 19 L 18 19 C 19.09375 19 20 18.09375 20 17 L 20 16.25 C 20 16.160156 19.980469 16.085938 19.96875 16 L 20 16 L 20 15.21875 C 20 14.695313 19.824219 14.207031 19.53125 13.78125 L 26.75 5.78125 L 27 5.5 L 27 4 Z M 22.875 7.09375 L 18.21875 12.25 L 17.34375 11.25 Z M 27 7.15625 L 25 9.875 L 25 15.09375 C 25 15.9375 25.492188 16.75 26.34375 17.0625 C 26.722656 17.203125 27 17.558594 27 18 C 27 18.566406 26.566406 19 26 19 C 25.433594 19 25 18.566406 25 18 L 23 18 C 23 19.644531 24.355469 21 26 21 C 27.644531 21 29 19.644531 29 18 C 29 16.714844 28.183594 15.609375 27.03125 15.1875 C 27.03125 15.1875 27 15.15625 27 15.09375 Z M 7 11 L 11.1875 11 L 12.03125 15.1875 L 12.1875 16 L 17.75 16 C 17.898438 16 18 16.101563 18 16.25 L 18 17 L 7 17 Z M 13.21875 11 L 14.4375 11 C 14.453125 11 14.460938 11.019531 14.46875 11.03125 L 14.5 11.03125 L 14.53125 11.0625 L 17.09375 14 L 13.8125 14 Z M 10 19 L 15 19 L 15 20 L 10 20 Z M 7 22 L 19 22 C 20.117188 22 21 22.882813 21 24 C 21 25.117188 20.117188 26 19 26 L 7 26 C 5.882813 26 5 25.117188 5 24 C 5 22.882813 5.882813 22 7 22 Z M 7 23 C 6.449219 23 6 23.449219 6 24 C 6 24.550781 6.449219 25 7 25 C 7.550781 25 8 24.550781 8 24 C 8 23.449219 7.550781 23 7 23 Z M 11 23 C 10.449219 23 10 23.449219 10 24 C 10 24.550781 10.449219 25 11 25 C 11.550781 25 12 24.550781 12 24 C 12 23.449219 11.550781 23 11 23 Z M 15 23 C 14.449219 23 14 23.449219 14 24 C 14 24.550781 14.449219 25 15 25 C 15.550781 25 16 24.550781 16 24 C 16 23.449219 15.550781 23 15 23 Z M 19 23 C 18.449219 23 18 23.449219 18 24 C 18 24.550781 18.449219 25 19 25 C 19.550781 25 20 24.550781 20 24 C 20 23.449219 19.550781 23 19 23 Z "></path>
</g>
</svg>
