<?xml version="1.0" encoding="UTF-8"?>
<svg xmlns="http://www.w3.org/2000/svg" xmlns:xlink="http://www.w3.org/1999/xlink" viewBox="0 0 32 32" version="1.1">
<g>
<path d="M 16 4 C 9.382813 4 4 9.382813 4 16 C 4 22.617188 9.382813 28 16 28 C 22.617188 28 28 22.617188 28 16 C 28 9.382813 22.617188 4 16 4 Z M 16 6 C 21.535156 6 26 10.464844 26 16 C 26 21.535156 21.535156 26 16 26 C 10.464844 26 6 21.535156 6 16 C 6 10.464844 10.464844 6 16 6 Z M 12 12 C 9.914063 12 8.40625 13.21875 8.40625 13.21875 L 9.59375 14.78125 C 9.59375 14.78125 10.703125 14 12 14 C 13.296875 14 14.40625 14.78125 14.40625 14.78125 L 15.59375 13.21875 C 15.59375 13.21875 14.085938 12 12 12 Z M 17.59375 12.21875 L 16.40625 13.78125 C 16.40625 13.78125 17.914063 15 20 15 C 22.085938 15 23.59375 13.78125 23.59375 13.78125 L 22.40625 12.21875 C 22.40625 12.21875 21.296875 13 20 13 C 18.703125 13 17.59375 12.21875 17.59375 12.21875 Z M 9.875 18 L 9.875 20 L 16.40625 20 L 17.0625 22.5 C 17.332031 23.566406 18.433594 24.207031 19.5 23.9375 C 20.566406 23.667969 21.207031 22.566406 20.9375 21.5 L 20.5625 20 L 22 20 L 22 18 Z "></path>
</g>
</svg>
