<?xml version="1.0" encoding="UTF-8"?>
<svg xmlns="http://www.w3.org/2000/svg" xmlns:xlink="http://www.w3.org/1999/xlink" viewBox="0 0 32 32" version="1.1">
<g>
<path d="M -0.03125 0 L -0.03125 6.96875 C -0.03125 9.175781 1.792969 11 4 11 L 10.125 11 L 7.84375 13.28125 L 9.28125 14.71875 L 13.28125 10.71875 L 13.96875 10 L 13.28125 9.28125 L 9.28125 5.28125 L 7.84375 6.71875 L 10.125 9 L 4 9 C 2.882813 9 1.96875 8.085938 1.96875 6.96875 L 1.96875 0 Z M 13.8125 7 L 15.375 8.59375 L 15.8125 9 L 24.6875 9 L 16 14.8125 L 13.59375 13.1875 L 12.15625 14.65625 L 16 17.1875 L 27 9.875 L 27 23 L 5 23 L 5 13 L 4 13 C 3.660156 13 3.324219 12.960938 3 12.90625 L 3 25 L 29 25 L 29 7 Z "></path>
</g>
</svg>
