<?xml version="1.0" encoding="UTF-8"?>
<svg xmlns="http://www.w3.org/2000/svg" xmlns:xlink="http://www.w3.org/1999/xlink" viewBox="0 0 32 32" version="1.1">
<g>
<path d="M 22.90625 3.03125 C 22.71875 3.046875 22.546875 3.078125 22.40625 3.125 C 22.125 3.21875 21.875 3.40625 21.875 3.40625 L 21.8125 3.4375 L 8.53125 16.71875 C 8.21875 17.042969 8 17.476563 8 17.96875 C 8 18.234375 8.082031 18.492188 8.21875 18.71875 L 8.21875 19.28125 C 8.21875 19.800781 8.097656 20.089844 7.78125 20.40625 L 3.78125 24.4375 L 3.65625 24.53125 L 3.71875 24.59375 C 2.917969 25.324219 2.925781 26.554688 3.6875 27.3125 L 3.625 27.375 L 3.78125 27.53125 L 4.46875 28.375 L 4.625 28.53125 C 5.503906 29.191406 6.722656 29.277344 7.5625 28.4375 L 11.65625 24.3125 C 11.976563 23.996094 12.292969 23.84375 12.8125 23.84375 L 13.5625 23.84375 C 13.71875 23.882813 13.878906 23.90625 14.03125 23.90625 C 14.457031 23.90625 14.910156 23.777344 15.28125 23.40625 L 28.5625 10.125 C 28.5625 10.125 28.742188 9.878906 28.84375 9.59375 C 28.945313 9.308594 29.03125 8.886719 29 8.40625 C 28.933594 7.449219 28.414063 6.269531 27.03125 4.9375 C 25.660156 3.613281 24.460938 3.113281 23.53125 3.03125 C 23.296875 3.011719 23.09375 3.015625 22.90625 3.03125 Z M 9.5 5 C 8.121094 5 7 6.121094 7 7.5 C 7 8.878906 8.121094 10 9.5 10 C 10.878906 10 12 8.878906 12 7.5 C 12 6.121094 10.878906 5 9.5 5 Z M 23.375 5 C 23.746094 5.03125 24.480469 5.269531 25.625 6.375 C 26.761719 7.472656 26.976563 8.191406 27 8.5625 C 27.011719 8.746094 26.988281 8.847656 26.96875 8.90625 L 14.03125 21.84375 L 10.125 17.9375 L 23.03125 5.03125 C 23.082031 5.015625 23.1875 4.984375 23.375 5 Z M 10 20.625 L 11.5 22.125 C 11.042969 22.308594 10.601563 22.558594 10.25 22.90625 L 6.15625 26.96875 C 6.128906 26.941406 5.96875 26.941406 5.875 26.90625 L 5.84375 26.90625 L 5.125 26.0625 L 5.0625 26 L 5.03125 26 L 5.0625 25.9375 L 9.1875 21.84375 C 9.539063 21.492188 9.824219 21.085938 10 20.625 Z "></path>
</g>
</svg>
