<?xml version="1.0" encoding="UTF-8"?>
<svg xmlns="http://www.w3.org/2000/svg" xmlns:xlink="http://www.w3.org/1999/xlink" viewBox="0 0 32 32" version="1.1">
<g>
<path d="M 3 7 L 4 9 L 4 11.78125 C 3.988281 11.828125 3.953125 11.988281 3.8125 12.1875 C 3.648438 12.421875 3.496094 12.5625 3 12.5625 L 2 12.5625 L 2 13.5625 C 2 14.246094 2.269531 14.726563 2.6875 15.1875 C 3.105469 15.648438 3.75 16.0625 4.5625 16.0625 C 4.949219 16.0625 5.1875 16.386719 5.0625 16.75 L 5.0625 16.78125 L 3.1875 22.78125 C 2.554688 24.835938 3.886719 27.023438 6 27.40625 L 9 27.9375 C 10.683594 28.242188 12.304688 27.042969 12.5 25.34375 L 13.0625 20.25 C 13.066406 20.234375 13.085938 20.234375 13.09375 20.21875 C 13.144531 20.113281 13.273438 20 13.3125 20 L 19 20 L 19 16 L 26.125 16 L 27.625 13 L 30 13 L 30 8 L 28 8 L 28 7 L 26 7 L 26 8 L 6 8 L 5 7 Z M 6 10 L 10 10 L 10 11 L 15 11 L 15 10 L 28 10 L 28 11 L 17 11 L 17 13 L 25.40625 13 L 24.90625 14 L 13.21875 14 L 13.0625 14.8125 L 12.40625 18.3125 C 11.789063 18.609375 11.289063 19.078125 11.125 19.75 L 11.09375 19.8125 L 11.09375 19.875 L 10.5 25.125 C 10.433594 25.707031 9.917969 26.074219 9.34375 25.96875 L 6.34375 25.4375 C 5.375 25.261719 4.804688 24.3125 5.09375 23.375 L 6.96875 17.375 L 6.9375 17.375 C 7.460938 15.796875 6.28125 14.105469 4.625 14.0625 C 4.957031 13.839844 5.257813 13.601563 5.4375 13.34375 C 5.859375 12.75 5.96875 12.125 5.96875 12.125 L 6 12.03125 Z M 14.875 16 L 17 16 L 17 18 L 14.5 18 Z "></path>
</g>
</svg>
