<?xml version="1.0" encoding="UTF-8"?>
<svg xmlns="http://www.w3.org/2000/svg" xmlns:xlink="http://www.w3.org/1999/xlink" viewBox="0 0 32 32" version="1.1">
<g>
<path d="M 12 5 L 12 7 C 13.453125 7 14.28125 7.507813 14.6875 8.09375 C 10.433594 8.648438 6.996094 11.875 6.1875 16.125 C 4.929688 16.480469 4 17.628906 4 19 C 4 20.355469 4.90625 21.507813 6.1875 21.875 C 7.238281 27.003906 12.683594 27 16 27 C 19.3125 27 24.753906 26.988281 25.8125 21.875 C 27.074219 21.519531 28 20.371094 28 19 C 28 17.628906 27.070313 16.480469 25.8125 16.125 C 25.066406 12.203125 22.082031 9.132813 18.28125 8.25 C 18.429688 8.109375 18.664063 8 19 8 L 19 6 C 17.753906 6 16.988281 6.597656 16.53125 7.3125 C 15.816406 6.03125 14.285156 5 12 5 Z M 27.375 7.03125 C 27.089844 7.058594 26.820313 7.167969 26.5625 7.34375 C 25.265625 8.222656 25 11 25 11 C 25.941406 9.808594 27.792969 10.179688 28.4375 9.65625 C 29.082031 9.132813 29.179688 8.207031 28.65625 7.5625 C 28.328125 7.160156 27.851563 6.984375 27.375 7.03125 Z M 4.34375 8.03125 C 3.96875 8.0625 3.605469 8.242188 3.34375 8.5625 C 2.820313 9.207031 2.917969 10.132813 3.5625 10.65625 C 4.207031 11.179688 6.058594 10.808594 7 12 C 7 12 6.734375 9.222656 5.4375 8.34375 C 5.09375 8.109375 4.71875 8 4.34375 8.03125 Z M 16 10 C 20.085938 10 23.492188 13.070313 23.9375 17.125 L 24.0625 18.03125 L 25.0625 18 C 25.589844 18.027344 26 18.464844 26 19 C 26 19.535156 25.589844 19.972656 25.0625 20 L 24.0625 19.96875 L 23.9375 20.875 C 23.554688 24.355469 20.972656 25 16 25 C 11.027344 25 8.445313 24.355469 8.0625 20.875 L 7.9375 19.96875 L 6.9375 20 C 6.410156 19.972656 6 19.535156 6 19 C 6 18.464844 6.410156 18.027344 6.9375 18 L 7.9375 18.03125 L 8.0625 17.125 C 8.507813 13.070313 11.914063 10 16 10 Z M 14.96875 13 C 14.847656 13.003906 11.964844 13.105469 10.21875 15.375 L 11.78125 16.625 C 12.941406 15.117188 15.011719 15 15.03125 15 Z M 17.03125 13 L 16.96875 15 C 16.988281 15 19.058594 15.117188 20.21875 16.625 L 21.78125 15.375 C 20.035156 13.105469 17.152344 13.003906 17.03125 13 Z M 16 17 C 12.308594 17 11 19.691406 11 22 L 11 23 L 21 23 L 21 22 C 21 19.691406 19.691406 17 16 17 Z M 16 19 C 17.921875 19 18.628906 20.015625 18.875 21 L 13.125 21 C 13.371094 20.015625 14.078125 19 16 19 Z "></path>
</g>
</svg>
