<?xml version="1.0" encoding="UTF-8"?>
<svg xmlns="http://www.w3.org/2000/svg" xmlns:xlink="http://www.w3.org/1999/xlink" viewBox="0 0 32 32" version="1.1">
<g>
<path d="M 12 6 L 12 10 L 0 10 L 0 12 L 12 12 L 12 20 L 0 20 L 0 22 L 12 22 L 12 26 L 18 26 L 18 25 C 18 24.445313 18.445313 24 19 24 L 28 24 C 30.210938 24 32 22.210938 32 20 L 32 12 C 32 9.789063 30.210938 8 28 8 L 19 8 C 18.445313 8 18 7.554688 18 7 L 18 6 Z M 14 8 L 16 8 L 16 24 L 14 24 Z M 18 9.78125 C 18.304688 9.917969 18.632813 10 19 10 L 28 10 C 29.191406 10 30 10.808594 30 12 L 30 20 C 30 21.191406 29.191406 22 28 22 L 19 22 C 18.632813 22 18.304688 22.082031 18 22.21875 Z "></path>
</g>
</svg>
