<?xml version="1.0" encoding="UTF-8"?>
<svg xmlns="http://www.w3.org/2000/svg" xmlns:xlink="http://www.w3.org/1999/xlink" viewBox="0 0 32 32" version="1.1">
<g>
<path d="M 0 7 L 0 25 L 32 25 L 32 7 Z M 2 9 L 30 9 L 30 23 L 2 23 Z M 12.5 12 C 11.117188 12 10 13.117188 10 14.5 L 10 17.5 C 10 18.882813 11.117188 20 12.5 20 C 13.882813 20 15 18.882813 15 17.5 L 15 17 L 13 17 L 13 17.5 C 13 17.714844 12.714844 18 12.5 18 C 12.285156 18 12 17.714844 12 17.5 L 12 14.5 C 12 14.285156 12.285156 14 12.5 14 C 12.714844 14 13 14.285156 13 14.5 L 13 15 L 15 15 L 15 14.5 C 15 13.117188 13.882813 12 12.5 12 Z M 18 12 L 17.875 13 L 16.90625 13 L 16.59375 15 L 17.625 15 L 17.375 17 L 16.40625 17 L 16.1875 19 L 17.125 19 L 17 20 L 19 20 L 19.125 19 L 20.125 19 L 20 20 L 22 20 L 22.125 19 L 23.09375 19 L 23.40625 17 L 22.375 17 L 22.625 15 L 23.59375 15 L 23.90625 13 L 22.875 13 L 23 12 L 21 12 L 20.875 13 L 19.875 13 L 20 12 Z M 19.625 15 L 20.625 15 L 20.375 17 L 19.375 17 Z "></path>
</g>
</svg>
