<?xml version="1.0" encoding="UTF-8"?>
<svg xmlns="http://www.w3.org/2000/svg" xmlns:xlink="http://www.w3.org/1999/xlink" viewBox="0 0 32 32" version="1.1">
<g>
<path d="M 2 6 L 2 26 L 30 26 L 30 6 Z M 4 8 L 28 8 L 28 24 L 4 24 Z M 22.28125 11.875 L 22.28125 19.28125 L 23.8125 19.28125 L 23.8125 11.875 Z M 11.625 12.15625 C 9.949219 12.15625 7.875 13.21875 7.875 15.9375 C 7.875 18.765625 9.972656 19.40625 11.34375 19.40625 C 12.167969 19.40625 12.832031 19.277344 13.34375 19.03125 L 13.34375 17.59375 C 12.832031 17.894531 12.269531 18.03125 11.65625 18.03125 C 9.898438 18.03125 9.53125 16.625 9.53125 15.8125 C 9.53125 14.046875 10.808594 13.53125 11.75 13.53125 C 12.351563 13.53125 12.875 13.65625 13.34375 13.9375 L 13.34375 12.40625 C 12.875 12.234375 12.308594 12.15625 11.625 12.15625 Z M 16.3125 12.75 L 14.78125 13.1875 L 14.78125 14.28125 L 13.96875 14.28125 L 13.96875 15.40625 L 14.78125 15.40625 L 14.78125 17.71875 C 14.78125 18.847656 15.320313 19.40625 16.40625 19.40625 C 16.867188 19.40625 17.210938 19.339844 17.4375 19.21875 L 17.4375 18.09375 C 17.265625 18.1875 17.101563 18.21875 16.9375 18.21875 C 16.523438 18.21875 16.3125 17.957031 16.3125 17.4375 L 16.3125 15.40625 L 17.4375 15.40625 L 17.4375 14.28125 L 16.3125 14.28125 Z M 21.1875 14.1875 C 20.554688 14.1875 20.117188 14.542969 19.875 15.21875 L 19.84375 15.21875 L 19.84375 14.28125 L 18.3125 14.28125 L 18.3125 19.28125 L 19.84375 19.28125 L 19.84375 16.90625 C 19.84375 15.695313 20.570313 15.53125 20.90625 15.53125 C 21.152344 15.53125 21.375 15.585938 21.5625 15.6875 L 21.5625 14.25 C 21.472656 14.210938 21.351563 14.1875 21.1875 14.1875 Z "></path>
</g>
</svg>
