<?xml version="1.0" encoding="UTF-8"?>
<svg xmlns="http://www.w3.org/2000/svg" xmlns:xlink="http://www.w3.org/1999/xlink" viewBox="0 0 32 32" version="1.1">
<g>
<path d="M 24.625 4 C 23.507813 4 22.648438 4.753906 22.0625 5.59375 C 21.511719 6.378906 21.074219 7.339844 20.5625 8.375 C 19.691406 8.765625 19 9.488281 19 10.5 C 19 10.671875 19.089844 10.808594 19.125 10.96875 C 18.804688 11.492188 18.484375 12.027344 18.09375 12.53125 L 18.15625 12.59375 C 17.824219 12.835938 17.554688 13.128906 17.375 13.5 L 17.3125 13.4375 C 17.175781 13.589844 17.070313 13.707031 16.96875 13.8125 C 16.613281 14.167969 16.066406 14.582031 15.5 15 C 15.492188 15.003906 15.476563 14.996094 15.46875 15 C 14.492188 15.011719 13.742188 15.664063 13.34375 16.5 C 12.53125 17.019531 11.667969 17.527344 10.8125 18.0625 C 10.707031 18.046875 10.609375 18 10.5 18 C 9.433594 18 8.667969 18.769531 8.3125 19.71875 C 7.214844 20.472656 6.210938 21.238281 5.4375 22.03125 C 4.632813 22.859375 4 23.734375 4 24.84375 C 4 25.773438 4.507813 26.761719 5.40625 27.28125 C 6.304688 27.800781 7.480469 28 9.0625 28 C 9.847656 28 10.722656 27.894531 11.6875 27.71875 C 11.957031 27.820313 12.195313 28 12.5 28 C 13.269531 28 13.886719 27.582031 14.34375 27.03125 C 15.261719 26.742188 16.203125 26.378906 17.15625 25.9375 C 17.273438 25.957031 17.367188 26 17.5 26 C 18.414063 26 19.128906 25.425781 19.5625 24.6875 C 20.484375 24.121094 21.367188 23.480469 22.21875 22.75 C 22.9375 22.507813 23.425781 21.992188 23.6875 21.28125 L 23.71875 21.3125 C 24.5 20.464844 25.203125 19.507813 25.8125 18.46875 C 26.480469 18.019531 27 17.359375 27 16.5 C 27 16.34375 26.964844 16.226563 26.9375 16.09375 C 27.59375 14.363281 28 12.429688 28 10.28125 C 28 8.511719 27.828125 7.089844 27.34375 5.96875 C 26.859375 4.847656 25.828125 4 24.625 4 Z M 24.625 6 C 25.054688 6 25.207031 6.105469 25.5 6.78125 C 25.792969 7.457031 26 8.65625 26 10.28125 C 26 12.304688 25.632813 14.082031 25 15.65625 C 24.910156 15.875 24.898438 16.117188 24.96875 16.34375 C 24.996094 16.421875 25 16.472656 25 16.5 C 25 16.722656 24.851563 16.898438 24.65625 16.96875 C 24.445313 17.054688 24.269531 17.207031 24.15625 17.40625 C 23.617188 18.335938 22.960938 19.167969 22.25 19.9375 C 22.101563 20.101563 22.015625 20.3125 22 20.53125 C 21.976563 20.789063 21.789063 20.988281 21.53125 21 C 21.300781 21.007813 21.078125 21.097656 20.90625 21.25 C 20.117188 21.929688 19.273438 22.503906 18.40625 23.03125 C 18.191406 23.167969 18.035156 23.378906 17.96875 23.625 C 17.910156 23.839844 17.738281 24 17.5 24 C 17.472656 24 17.421875 23.992188 17.34375 23.96875 C 17.105469 23.898438 16.847656 23.921875 16.625 24.03125 C 15.585938 24.53125 14.53125 24.914063 13.53125 25.21875 C 13.273438 25.296875 13.058594 25.480469 12.9375 25.71875 C 12.851563 25.886719 12.699219 26 12.5 26 C 12.390625 26 12.304688 25.96875 12.21875 25.90625 C 11.992188 25.75 11.707031 25.691406 11.4375 25.75 C 10.523438 25.925781 9.71875 26 9.0625 26 C 7.664063 26 6.789063 25.785156 6.40625 25.5625 C 6.023438 25.339844 6 25.234375 6 24.84375 C 6 24.589844 6.238281 24.0625 6.875 23.40625 C 7.511719 22.75 8.464844 22.03125 9.5625 21.28125 C 9.832031 21.097656 9.996094 20.792969 10 20.46875 C 10.011719 20.191406 10.21875 20 10.5 20 C 10.558594 20 10.625 20.003906 10.6875 20.03125 C 10.980469 20.15625 11.320313 20.132813 11.59375 19.96875 C 12.585938 19.34375 13.59375 18.714844 14.5625 18.09375 C 14.800781 17.9375 14.957031 17.6875 15 17.40625 C 15.042969 17.167969 15.242188 17 15.5 17 C 15.535156 17 15.558594 16.992188 15.59375 17 C 15.875 17.066406 16.171875 17.011719 16.40625 16.84375 C 17.160156 16.308594 17.820313 15.773438 18.375 15.21875 C 18.539063 15.054688 18.667969 14.90625 18.78125 14.78125 C 18.894531 14.667969 18.980469 14.527344 19.03125 14.375 C 19.070313 14.226563 19.152344 14.089844 19.28125 14.03125 C 19.4375 13.972656 19.578125 13.875 19.6875 13.75 C 20.207031 13.074219 20.632813 12.394531 21.03125 11.71875 C 21.21875 11.414063 21.230469 11.035156 21.0625 10.71875 C 21.015625 10.632813 21 10.574219 21 10.5 C 21 10.230469 21.175781 10.023438 21.4375 10 C 21.78125 9.976563 22.089844 9.773438 22.25 9.46875 C 22.816406 8.332031 23.292969 7.355469 23.71875 6.75 C 24.144531 6.144531 24.359375 6 24.625 6 Z M 24 12 C 23.449219 12 23 12.449219 23 13 C 23 13.550781 23.449219 14 24 14 C 24.550781 14 25 13.550781 25 13 C 25 12.449219 24.550781 12 24 12 Z M 20 15 C 19.449219 15 19 15.449219 19 16 C 19 16.550781 19.449219 17 20 17 C 20.550781 17 21 16.550781 21 16 C 21 15.449219 20.550781 15 20 15 Z M 19 19 C 18.449219 19 18 19.449219 18 20 C 18 20.550781 18.449219 21 19 21 C 19.550781 21 20 20.550781 20 20 C 20 19.449219 19.550781 19 19 19 Z M 13 22 C 12.449219 22 12 22.449219 12 23 C 12 23.550781 12.449219 24 13 24 C 13.550781 24 14 23.550781 14 23 C 14 22.449219 13.550781 22 13 22 Z "></path>
</g>
</svg>
