<?xml version="1.0" encoding="UTF-8"?>
<svg xmlns="http://www.w3.org/2000/svg" xmlns:xlink="http://www.w3.org/1999/xlink" viewBox="0 0 32 32" version="1.1">
<g>
<path d="M 16 5 C 14.996094 5 14.199219 5.578125 13.65625 6.34375 C 10.996094 6.777344 8.453125 7.738281 6.5 9.15625 C 4.460938 10.636719 3 12.664063 3 15 C 3 16.382813 3.828125 17.363281 4.59375 17.71875 C 4.890625 17.855469 4.910156 17.804688 5.15625 17.84375 L 6.6875 24.65625 C 6.992188 26.023438 8.195313 27 9.59375 27 L 22.40625 27 C 23.804688 27 25.007813 26.023438 25.3125 24.65625 L 26.84375 17.84375 C 27.089844 17.804688 27.109375 17.855469 27.40625 17.71875 C 28.171875 17.363281 29 16.382813 29 15 C 29 12.664063 27.539063 10.636719 25.5 9.15625 C 23.546875 7.738281 21.003906 6.777344 18.34375 6.34375 C 17.800781 5.578125 17.003906 5 16 5 Z M 16 7 C 16.429688 7 16.789063 7.257813 16.9375 7.625 L 17.125 8.15625 L 17.71875 8.25 C 19.695313 8.535156 21.59375 9.1875 23.15625 10.0625 C 22.496094 10.167969 22 10.527344 22 11 C 22 11.550781 22.671875 12 23.5 12 C 24.175781 12 24.75 11.691406 24.9375 11.28125 C 26.25 12.414063 27 13.710938 27 15 C 27 15.761719 26.828125 15.796875 26.59375 15.90625 C 26.359375 16.015625 26.0625 16 26.0625 16 L 26 16 L 25.21875 15.9375 L 25.21875 16 L 6.78125 16 L 6.78125 15.9375 L 6 16 L 5.9375 16 C 5.9375 16 5.640625 16.015625 5.40625 15.90625 C 5.171875 15.796875 5 15.761719 5 15 C 5 13.511719 5.972656 12.027344 7.6875 10.78125 C 8.085938 10.492188 8.535156 10.222656 9 9.96875 C 9 9.980469 9 9.988281 9 10 C 9 10.550781 9.671875 11 10.5 11 C 11.328125 11 12 10.550781 12 10 C 12 9.5625 11.585938 9.199219 11 9.0625 C 12.035156 8.6875 13.148438 8.414063 14.28125 8.25 L 14.875 8.15625 L 15.0625 7.625 C 15.210938 7.257813 15.570313 7 16 7 Z M 17.5 11 C 16.671875 11 16 11.449219 16 12 C 16 12.550781 16.671875 13 17.5 13 C 18.328125 13 19 12.550781 19 12 C 19 11.449219 18.328125 11 17.5 11 Z M 7.25 18 L 24.75 18 L 23.375 24.21875 C 23.273438 24.679688 22.878906 25 22.40625 25 L 21.15625 25 L 22 19 L 20 19 L 19.15625 25 L 17 25 L 17 19 L 15 19 L 15 25 L 12.84375 25 L 12 19 L 10 19 L 10.84375 25 L 9.59375 25 C 9.121094 25 8.726563 24.679688 8.625 24.21875 Z "></path>
</g>
</svg>
