<?xml version="1.0" encoding="UTF-8"?>
<svg xmlns="http://www.w3.org/2000/svg" xmlns:xlink="http://www.w3.org/1999/xlink" viewBox="0 0 32 32" version="1.1">
<g>
<path d="M 8 6 C 4.699219 6 2 8.699219 2 12 C 2 14.207031 3.214844 16.144531 5 17.1875 L 5 23 L 3 23 L 3 25 L 29 25 L 29 23 L 27 23 L 27 7 L 11.28125 7 C 10.335938 6.375 9.214844 6 8 6 Z M 8 8 C 10.222656 8 12 9.777344 12 12 C 12 14.222656 10.222656 16 8 16 C 5.777344 16 4 14.222656 4 12 C 4 9.777344 5.777344 8 8 8 Z M 7 9 L 7 12.40625 L 7.28125 12.71875 L 8.90625 14.3125 L 10.3125 12.90625 L 9 11.5625 L 9 9 Z M 13.1875 9 L 25 9 L 25 23 L 7 23 L 7 17.90625 C 7.320313 17.960938 7.664063 18 8 18 C 11.300781 18 14 15.300781 14 12 C 14 10.90625 13.707031 9.886719 13.1875 9 Z M 20 20 L 19 21 L 20 22 L 24 22 L 24 20 Z "></path>
</g>
</svg>
