<?xml version="1.0" encoding="UTF-8"?>
<svg xmlns="http://www.w3.org/2000/svg" xmlns:xlink="http://www.w3.org/1999/xlink" viewBox="0 0 32 32" version="1.1">
<g>
<path d="M 16 5 C 13.332031 5 10.875 5.972656 8.96875 7.5625 L 6.71875 5.28125 L 5.28125 6.71875 L 7.5625 8.96875 C 5.972656 10.875 5 13.332031 5 16 C 5 18.667969 5.972656 21.125 7.5625 23.03125 L 5.28125 25.28125 L 6.71875 26.71875 L 8.96875 24.4375 C 10.875 26.027344 13.332031 27 16 27 C 18.667969 27 21.125 26.027344 23.03125 24.4375 L 25.28125 26.71875 L 26.71875 25.28125 L 24.4375 23.03125 C 26.027344 21.125 27 18.667969 27 16 C 27 13.332031 26.027344 10.875 24.4375 8.96875 L 26.71875 6.71875 L 25.28125 5.28125 L 23.03125 7.5625 C 21.125 5.972656 18.667969 5 16 5 Z M 16 7 C 20.980469 7 25 11.019531 25 16 C 25 20.980469 20.980469 25 16 25 C 11.019531 25 7 20.980469 7 16 C 7 11.019531 11.019531 7 16 7 Z "></path>
</g>
</svg>
