<?xml version="1.0" encoding="UTF-8"?>
<svg xmlns="http://www.w3.org/2000/svg" xmlns:xlink="http://www.w3.org/1999/xlink" viewBox="0 0 32 32" version="1.1">
<g>
<path d="M 16 3 C 8.800781 3 3 8.800781 3 16 C 3 19.019531 4.050781 21.8125 5.75 24 L 3 24 L 3 26 L 9 26 L 9 20 L 7 20 L 7 22.28125 C 5.722656 20.488281 5 18.34375 5 16 C 5 9.898438 9.898438 5 16 5 C 17.800781 5 19.5 5.386719 21 6.1875 L 21 4 C 19.5 3.398438 17.800781 3 16 3 Z M 23 6 L 23 12 L 25 12 L 25 9.71875 C 26.277344 11.511719 27 13.65625 27 16 C 27 22.101563 22.101563 27 16 27 C 14.199219 27 12.5 26.613281 11 25.8125 L 11 28 C 12.5 28.601563 14.199219 29 16 29 C 23.199219 29 29 23.199219 29 16 C 29 12.980469 27.949219 10.1875 26.25 8 L 29 8 L 29 6 Z M 15 8 L 15 10.03125 C 13.316406 10.28125 12 11.75 12 13.5 C 12 15.421875 13.578125 17 15.5 17 L 16.5 17 C 17.375 17 18 17.625 18 18.5 C 18 19.375 17.375 20 16.5 20 L 13 20 L 13 22 L 15 22 L 15 24 L 17 24 L 17 21.96875 C 18.683594 21.71875 20 20.25 20 18.5 C 20 16.578125 18.421875 15 16.5 15 L 15.5 15 C 14.625 15 14 14.375 14 13.5 C 14 12.625 14.625 12 15.5 12 L 19 12 L 19 10 L 17 10 L 17 8 Z "></path>
</g>
</svg>
