<?xml version="1.0" encoding="UTF-8"?>
<svg xmlns="http://www.w3.org/2000/svg" xmlns:xlink="http://www.w3.org/1999/xlink" viewBox="0 0 32 32" version="1.1">
<g>
<path d="M 18 4 L 18 6 L 16 6 L 16 8 L 18.15625 8 C 18.074219 8.320313 18 8.65625 18 9 C 18 11.199219 19.800781 13 22 13 C 24.199219 13 26 11.199219 26 9 C 26 8.65625 25.925781 8.320313 25.84375 8 L 26 8 L 26 4 Z M 20.28125 8 L 23.71875 8 C 23.886719 8.292969 24 8.632813 24 9 C 24 10.117188 23.117188 11 22 11 C 20.882813 11 20 10.117188 20 9 C 20 8.632813 20.113281 8.292969 20.28125 8 Z M 3.84375 12 L 4 13.15625 L 5 20.15625 L 5.125 21 L 16.71875 21 L 16.9375 20.34375 L 18.09375 17.03125 L 18.125 17 C 18.480469 16.378906 19.125 16 19.84375 16 L 24 16 C 24.234375 16 24.449219 16.054688 24.65625 16.125 L 19 23.28125 L 19 22 L 17 22 L 17 28 L 19 28 L 19 26.5 L 19.40625 26 L 26 26 L 26 28 L 28 28 L 28 18 C 28 15.800781 26.199219 14 24 14 L 19.84375 14 C 18.332031 14 16.957031 14.867188 16.28125 16.21875 L 16.25 16.28125 L 16.21875 16.3125 L 15.28125 19 L 11.875 19 L 11 12.84375 L 10.875 12 Z M 6.15625 14 L 9.125 14 L 9.84375 19 L 6.875 19 Z M 25.96875 17.65625 C 25.988281 17.769531 26 17.882813 26 18 L 26 24 L 20.96875 24 Z "></path>
</g>
</svg>
