<?xml version="1.0" encoding="UTF-8"?>
<svg xmlns="http://www.w3.org/2000/svg" xmlns:xlink="http://www.w3.org/1999/xlink" viewBox="0 0 32 32" version="1.1">
<g>
<path d="M 5 5 L 5 27 L 21 27 L 21 20.90625 L 19 19.09375 L 19 25 L 7 25 L 7 17 L 9 17 L 9 15 L 7 15 L 7 7 L 19 7 L 19 10.96875 L 19.9375 11.8125 L 21 11 L 21 5 Z M 25 9 C 23.300781 9 22 10.300781 22 12 L 22 12.6875 L 20 14.59375 L 15 10 L 12 10 L 22.09375 19.3125 C 21.992188 19.511719 22 19.699219 22 20 C 22 21.699219 23.300781 23 25 23 C 26.699219 23 28 21.699219 28 20 C 28 18.300781 26.699219 17 25 17 C 24.398438 17 23.8125 17.199219 23.3125 17.5 L 21.59375 16 L 23.3125 14.40625 C 23.710938 14.804688 24.300781 15 25 15 C 26.699219 15 28 13.699219 28 12 C 28 10.300781 26.699219 9 25 9 Z M 25 11 C 25.601563 11 26 11.398438 26 12 C 26 12.601563 25.601563 13 25 13 C 24.398438 13 24 12.601563 24 12 C 24 11.398438 24.398438 11 25 11 Z M 10 15 L 10 17 L 13 17 L 13 15 Z M 14 15 L 14 17 L 16.65625 17 L 14.46875 15 Z M 25 19 C 25.601563 19 26 19.398438 26 20 C 26 20.601563 25.601563 21 25 21 C 24.398438 21 24 20.601563 24 20 C 24 19.398438 24.398438 19 25 19 Z "></path>
</g>
</svg>
