<?xml version="1.0" encoding="UTF-8"?>
<svg xmlns="http://www.w3.org/2000/svg" xmlns:xlink="http://www.w3.org/1999/xlink" viewBox="0 0 32 32" version="1.1">
<g>
<path d="M 20.375 7 C 18.300781 6.945313 14.960938 7.597656 11.78125 9.054688 C 11.144531 8.542969 10.570313 8.175781 10.53125 8.15625 L 10.246094 7.972656 L 9.90625 8.003906 C 5.222656 8.4375 2.574219 10.085938 2.464844 10.15625 L 1.921875 10.5 L 2.007813 11.136719 C 2.152344 12.195313 2.421875 13.210938 2.601563 13.804688 L 1.863281 14.722656 L 1.945313 15.167969 C 2.027344 15.644531 2.15625 16.164063 2.296875 16.691406 C 1.199219 17.980469 0.5625 19.882813 1.289063 20.75 C 1.761719 21.578125 2.804688 21.992188 4.210938 22.03125 C 5.101563 24.152344 5.929688 25.855469 6 26 L 6 21.894531 C 6.324219 21.847656 6.65625 21.78125 7 21.703125 L 7 24 L 9 24 L 9 21 L 12 21 L 12 20 L 9 20 L 9 19 L 13 19 L 13 18 L 7 18 L 7 21.671875 C 6.648438 21.726563 6.316406 21.765625 6 21.792969 L 6 21.789063 C 5.800781 21.804688 5.605469 21.816406 5.417969 21.824219 C 5.277344 21.824219 5.148438 21.820313 5.015625 21.8125 C 4.894531 21.808594 4.769531 21.808594 4.65625 21.796875 C 4.652344 21.792969 4.648438 21.796875 4.648438 21.796875 C 4.636719 21.792969 4.628906 21.789063 4.617188 21.789063 C 4.421875 21.765625 4.238281 21.738281 4.0625 21.699219 C 4.066406 21.707031 4.070313 21.707031 4.070313 21.714844 C 3.171875 21.535156 2.539063 21.136719 2.207031 20.542969 C 1.839844 19.910156 2.125 19.03125 2.789063 18.296875 C 3.03125 19.027344 3.296875 19.765625 3.578125 20.484375 C 3.976563 20.703125 4.550781 20.828125 5.300781 20.828125 C 5.464844 20.828125 5.648438 20.8125 5.828125 20.800781 C 5.085938 18.941406 4.34375 16.878906 4 15.257813 L 4.835938 14.207031 L 4.65625 13.6875 C 4.652344 13.675781 4.324219 12.699219 4.101563 11.546875 C 5.003906 11.113281 6.941406 10.335938 9.746094 10.03125 C 10.128906 10.292969 10.816406 10.792969 11.296875 11.296875 L 11.578125 11.59375 L 20 11.957031 C 20 11.957031 20.792969 11.125 21.046875 10 L 14.269531 9.707031 C 18.34375 8.199219 21.644531 8.277344 22.332031 9.542969 C 22.789063 10.394531 21.773438 11.722656 20.332031 13.421875 C 20.332031 13.421875 20.398438 13.421875 20.398438 13.488281 C 22.625 11.328125 24.601563 9.292969 23.878906 8.179688 C 23.488281 7.519531 21.722656 7.035156 20.375 7 Z M 17.511719 13 L 17.511719 14 L 17 14 L 17 14.667969 L 17.511719 14.667969 L 17.511719 16 C 17.511719 16.398438 17.636719 16.667969 17.828125 16.734375 C 18.085938 16.933594 18.402344 17 18.914063 17 L 19.488281 17 C 19.679688 17 19.808594 16.933594 19.9375 16.933594 L 20 16.933594 L 20 16.199219 L 19.871094 16.199219 C 19.871094 16.199219 19.808594 16.265625 19.679688 16.265625 C 19.550781 16.335938 19.488281 16.332031 19.425781 16.332031 C 19.234375 16.332031 19.105469 16.335938 19.042969 16.265625 C 18.914063 16.265625 18.851563 16.203125 18.851563 16.136719 C 18.789063 16.066406 18.785156 16 18.785156 15.933594 L 18.785156 14.667969 L 20 14.667969 L 20 14 L 18.785156 14 L 18.785156 13 Z M 9.453125 14 C 9.175781 14 8.824219 14 8.546875 14.0625 C 8.265625 14.121094 7.984375 14.183594 7.773438 14.308594 C 7.5625 14.429688 7.351563 14.613281 7.210938 14.796875 C 7.070313 14.980469 7 15.222656 7 15.46875 C 7 15.714844 7.070313 15.957031 7.210938 16.140625 C 7.28125 16.328125 7.488281 16.511719 7.703125 16.632813 C 7.914063 16.816406 8.191406 16.878906 8.472656 16.9375 C 8.824219 17 9.175781 17 9.523438 17 C 10.167969 17 10.667969 16.917969 11 16.699219 L 11 15.902344 L 10.789063 15.902344 C 10.71875 15.960938 10.648438 15.960938 10.578125 16.023438 C 10.507813 16.085938 10.4375 16.082031 10.367188 16.144531 C 10.296875 16.207031 10.15625 16.265625 10.015625 16.265625 C 9.875 16.328125 9.664063 16.328125 9.523438 16.328125 C 9.175781 16.328125 8.894531 16.203125 8.683594 16.082031 C 8.472656 15.960938 8.402344 15.777344 8.402344 15.46875 C 8.402344 15.226563 8.472656 15.042969 8.683594 14.859375 C 8.894531 14.675781 9.175781 14.613281 9.523438 14.613281 C 9.664063 14.613281 9.804688 14.675781 9.945313 14.675781 C 10.085938 14.738281 10.226563 14.734375 10.296875 14.796875 C 10.4375 14.859375 10.507813 14.859375 10.578125 14.921875 C 10.648438 14.980469 10.71875 14.980469 10.789063 15.042969 L 11 15.042969 L 11 14.246094 C 10.789063 14.183594 10.578125 14.121094 10.296875 14.0625 C 10.019531 14 9.734375 14 9.453125 14 Z M 12 14 L 12 15.9375 C 12 16.3125 12.0625 16.5625 12.324219 16.75 C 12.582031 16.9375 12.902344 17 13.355469 17 C 13.957031 17 14.417969 16.875 14.710938 16.625 L 14.710938 17 L 16 17 L 16 14 L 14.710938 14 L 14.710938 16.0625 C 14.582031 16.125 14.453125 16.1875 14.324219 16.1875 C 14.191406 16.25 14.066406 16.25 13.9375 16.25 C 13.742188 16.25 13.613281 16.1875 13.546875 16.1875 C 13.484375 16.1875 13.421875 16.125 13.355469 16.0625 C 13.355469 16 13.289063 15.9375 13.289063 15.8125 L 13.289063 14 Z M 23.15625 14 C 22.523438 14 21.953125 14.121094 21.570313 14.421875 C 21.1875 14.71875 21 15.082031 21 15.5625 C 21 16.039063 21.191406 16.402344 21.636719 16.640625 C 22.015625 16.878906 22.648438 17 23.410156 17 C 24.082031 17 24.707031 16.875 25 16.699219 L 25 15.980469 L 24.871094 15.980469 C 24.742188 16.101563 24.554688 16.160156 24.300781 16.21875 C 24.046875 16.28125 23.792969 16.339844 23.539063 16.339844 C 23.09375 16.339844 22.777344 16.21875 22.589844 16.160156 C 22.398438 16.101563 22.269531 15.917969 22.269531 15.679688 L 25 15.679688 L 25 15.378906 C 25 14.902344 24.871094 14.597656 24.554688 14.359375 C 24.238281 14.121094 23.792969 14 23.15625 14 Z M 23.160156 14.597656 C 23.414063 14.597656 23.601563 14.601563 23.730469 14.71875 C 23.859375 14.78125 23.921875 14.820313 23.921875 15 L 22.335938 15 C 22.335938 14.820313 22.460938 14.839844 22.589844 14.71875 C 22.71875 14.660156 22.90625 14.597656 23.160156 14.597656 Z M 14 18 L 14 19 L 17 19 L 17 24 L 19 24 L 19 19 L 22 19 L 22 18 Z M 23 18 L 23 24 L 25 24 L 25 22 L 27 22 C 27.652344 22 30 22 30 20 C 30 18 27.589844 18 27 18 Z M 25 19 L 26 19 C 26.394531 19 28 19.082031 28 20 C 28 20.917969 26.394531 21 26 21 L 25 21 Z "></path>
</g>
</svg>
