<?xml version="1.0" encoding="UTF-8"?>
<svg xmlns="http://www.w3.org/2000/svg" xmlns:xlink="http://www.w3.org/1999/xlink" viewBox="0 0 32 32" version="1.1">
<g>
<path d="M 16 3 C 8.832031 3 3 8.832031 3 16 C 3 23.167969 8.832031 29 16 29 C 23.167969 29 29 23.167969 29 16 C 29 8.832031 23.167969 3 16 3 Z M 16 5 C 22.085938 5 27 9.914063 27 16 C 27 22.085938 22.085938 27 16 27 C 9.914063 27 5 22.085938 5 16 C 5 9.914063 9.914063 5 16 5 Z M 16 9 L 8 13 L 10 15 L 10 14 L 12.394531 15.328125 L 15 14.21875 L 13 13.136719 L 13 12 L 16 13.625 L 19.96875 11.953125 L 19.96875 13.039063 L 17.050781 14.265625 L 19.21875 15.171875 L 22 14 L 22 14.992188 L 19.226563 16.222656 L 15.507813 17.957031 L 17.015625 19.984375 L 24.015625 16.984375 L 22.015625 14.984375 L 24 13 L 18 9 L 17 10 Z M 15.507813 17.957031 L 12.359375 16.40625 L 10 15 L 7 17 L 13 20 Z M 22 18.9375 L 16.785156 21.171875 L 16 20.207031 L 16 23.5 L 22 21 Z M 10 19.617188 L 10 21 L 15 24 L 15 19.617188 L 13.074219 21.15625 Z "></path>
</g>
</svg>
