<?xml version="1.0" encoding="UTF-8"?>
<svg xmlns="http://www.w3.org/2000/svg" xmlns:xlink="http://www.w3.org/1999/xlink" viewBox="0 0 32 32" version="1.1">
<g>
<path d="M 13 3 L 13 5.5 C 10.238281 6.371094 7.992188 8.375 6.84375 11 L 5 11 L 5 18 L 6.90625 18 L 6 27.90625 L 5.90625 29 L 10.90625 29 L 11 28.125 L 11 28 L 21 28 L 21 28.125 L 21.09375 29 L 26.09375 29 L 26 27.90625 L 25.09375 18 L 27 18 L 27 11 L 25.15625 11 C 24.007813 8.375 21.761719 6.371094 19 5.5 L 19 3 Z M 15 5 L 17 5 L 17 13 L 25 13 L 25 16 L 22.90625 16 L 23 17.09375 L 23.90625 27 L 22.90625 27 L 22 18.875 L 21.90625 18 L 10.09375 18 L 10 18.875 L 9.09375 27 L 8.09375 27 L 9 17.09375 L 9.09375 16 L 7 16 L 7 13 L 15 13 Z M 13 7.5625 L 13 11 L 9.09375 11 C 9.976563 9.464844 11.347656 8.238281 13 7.5625 Z M 19 7.5625 C 20.652344 8.238281 22.023438 9.464844 22.90625 11 L 19 11 Z M 10 14 L 10 16 L 13 16 L 13 17 L 19 17 L 19 16 L 22 16 L 22 14 Z M 11.90625 20 L 20.09375 20 L 20.75 26 L 11.25 26 Z "></path>
</g>
</svg>
