<?xml version="1.0" encoding="UTF-8"?>
<svg xmlns="http://www.w3.org/2000/svg" xmlns:xlink="http://www.w3.org/1999/xlink" viewBox="0 0 32 32" version="1.1">
<g>
<path d="M 16 2 C 13.125 2 10.878906 3.296875 9.3125 5.15625 C 7.746094 7.015625 6.785156 9.414063 6.15625 11.75 C 4.902344 16.421875 5 21.03125 5 21.03125 L 5 21.375 L 5.21875 21.625 C 5.21875 21.625 6.886719 23.667969 9 25.71875 C 10.054688 26.742188 11.226563 27.761719 12.40625 28.5625 C 13.585938 29.363281 14.742188 30 16 30 C 17.257813 30 18.414063 29.363281 19.59375 28.5625 C 20.773438 27.761719 21.945313 26.742188 23 25.71875 C 25.113281 23.667969 26.78125 21.625 26.78125 21.625 L 27 21.375 L 27 21.03125 C 27 21.03125 27.097656 16.421875 25.84375 11.75 C 25.214844 9.414063 24.253906 7.015625 22.6875 5.15625 C 21.121094 3.296875 18.875 2 16 2 Z M 16 4 C 18.292969 4 19.878906 4.953125 21.15625 6.46875 C 22.433594 7.984375 23.324219 10.085938 23.90625 12.25 C 24.996094 16.304688 25.003906 20.121094 25 20.625 C 24.816406 20.847656 23.511719 22.453125 21.625 24.28125 C 21.101563 24.789063 20.558594 25.308594 20 25.78125 L 20 24.1875 L 21.96875 17.28125 L 22 17.125 L 22 13 C 22 10.195313 21.011719 8.328125 19.71875 7.28125 C 18.425781 6.234375 16.96875 6 16 6 C 15.03125 6 13.574219 6.234375 12.28125 7.28125 C 10.988281 8.328125 10 10.195313 10 13 L 10 17.125 L 10.03125 17.28125 L 12 24.1875 L 12 25.78125 C 11.441406 25.308594 10.898438 24.789063 10.375 24.28125 C 8.488281 22.453125 7.183594 20.847656 7 20.625 C 6.996094 20.121094 7.003906 16.304688 8.09375 12.25 C 8.675781 10.085938 9.566406 7.984375 10.84375 6.46875 C 12.121094 4.953125 13.707031 4 16 4 Z M 16 8 C 16.617188 8 17.65625 8.183594 18.46875 8.84375 C 19.28125 9.503906 20 10.636719 20 13 L 20 16.8125 L 18.03125 23.71875 L 18 23.875 L 18 27.21875 C 17.644531 27.429688 17.304688 27.59375 17 27.71875 L 17 20 L 15 20 L 15 27.71875 C 14.695313 27.59375 14.355469 27.429688 14 27.21875 L 14 23.875 L 13.96875 23.71875 L 12 16.8125 L 12 13 C 12 10.636719 12.71875 9.503906 13.53125 8.84375 C 14.34375 8.183594 15.382813 8 16 8 Z M 12 13 C 12.417969 13.832031 12.960938 14.496094 13.53125 15.125 C 14.109375 15.742188 14.742188 16.3125 15.40625 16.8125 L 16 17.25 L 16.59375 16.8125 C 17.261719 16.3125 17.890625 15.742188 18.46875 15.125 C 19.039063 14.496094 19.585938 13.835938 20 13 C 19.082031 13.164063 18.292969 13.503906 17.53125 13.875 C 16.996094 14.144531 16.488281 14.449219 16 14.78125 C 15.507813 14.449219 15.003906 14.148438 14.46875 13.875 C 13.707031 13.503906 12.917969 13.167969 12 13 Z "></path>
</g>
</svg>
