<?xml version="1.0" encoding="UTF-8"?>
<svg xmlns="http://www.w3.org/2000/svg" xmlns:xlink="http://www.w3.org/1999/xlink" viewBox="0 0 32 32" version="1.1">
<g>
<path d="M 14 4 C 8.488281 4 4 8.488281 4 14 C 4 17.773438 6.121094 21.046875 9.21875 22.75 C 9.230469 22.757813 9.238281 22.773438 9.25 22.78125 C 10.945313 25.886719 14.21875 28 18 28 C 23.511719 28 28 23.511719 28 18 C 28 14.21875 25.886719 10.945313 22.78125 9.25 C 22.773438 9.238281 22.757813 9.230469 22.75 9.21875 C 21.046875 6.121094 17.773438 4 14 4 Z M 14 6 C 18.429688 6 22 9.570313 22 14 C 22 18.429688 18.429688 22 14 22 C 9.570313 22 6 18.429688 6 14 C 6 9.570313 9.570313 6 14 6 Z M 14 11 C 12.355469 11 11 12.355469 11 14 C 11 15.644531 12.355469 17 14 17 C 15.644531 17 17 15.644531 17 14 C 17 12.355469 15.644531 11 14 11 Z M 23.875 12.59375 C 25.183594 14.019531 26 15.90625 26 18 C 26 22.429688 22.429688 26 18 26 C 15.90625 26 14.019531 25.183594 12.59375 23.875 C 13.054688 23.941406 13.523438 24 14 24 C 19.511719 24 24 19.511719 24 14 C 24 13.523438 23.941406 13.054688 23.875 12.59375 Z M 14 13 C 14.5625 13 15 13.4375 15 14 C 15 14.5625 14.5625 15 14 15 C 13.4375 15 13 14.5625 13 14 C 13 13.4375 13.4375 13 14 13 Z "></path>
</g>
</svg>
