<?xml version="1.0" encoding="UTF-8"?>
<svg xmlns="http://www.w3.org/2000/svg" xmlns:xlink="http://www.w3.org/1999/xlink" viewBox="0 0 32 32" version="1.1">
<g>
<path d="M 16 4 C 10.121094 4 5 8.269531 5 14 C 5 15.101563 5.230469 15.984375 5.65625 16.65625 C 6.082031 17.328125 6.652344 17.738281 7.15625 18.0625 C 8.167969 18.707031 8.910156 18.976563 9.40625 20.25 C 9.984375 21.738281 10.625 23.554688 11.59375 25.09375 C 12.5625 26.632813 14.003906 28 16 28 C 18.679688 28 21.929688 26.460938 23.9375 21.53125 C 24.320313 20.585938 24.964844 20.070313 25.6875 19.03125 C 26.410156 17.992188 27 16.484375 27 14 C 27 8 21.839844 4 16 4 Z M 16 6 C 20.960938 6 25 9.128906 25 14 C 25 16.191406 24.570313 17.097656 24.03125 17.875 C 23.492188 18.652344 22.632813 19.355469 22.0625 20.75 C 20.265625 25.164063 18.003906 26 16 26 C 14.878906 26 14.074219 25.292969 13.28125 24.03125 C 12.488281 22.769531 11.84375 21.058594 11.25 19.53125 C 10.519531 17.652344 9.097656 16.917969 8.25 16.375 C 7.824219 16.105469 7.539063 15.867188 7.34375 15.5625 C 7.148438 15.257813 7 14.835938 7 14 C 7 9.464844 11.078125 6 16 6 Z M 12.71875 9.28125 L 11.28125 10.71875 L 14.5 13.9375 C 14.5 13.957031 14.5 13.980469 14.5 14 C 14.5 14.445313 14.691406 14.851563 15 15.125 L 15 21 L 17 21 L 17 15.125 C 17.308594 14.851563 17.5 14.445313 17.5 14 C 17.5 13.171875 16.828125 12.5 16 12.5 C 15.980469 12.5 15.957031 12.5 15.9375 12.5 Z "></path>
</g>
</svg>
