<?xml version="1.0" encoding="UTF-8"?>
<svg xmlns="http://www.w3.org/2000/svg" xmlns:xlink="http://www.w3.org/1999/xlink" viewBox="0 0 32 32" version="1.1">
<g>
<path d="M 13 4 L 13 5 L 12 5 C 12 5.554688 11.554688 6 11 6 C 10.445313 6 10 5.554688 10 5 L 8 5 C 8 5.554688 7.554688 6 7 6 C 6.445313 6 6 5.554688 6 5 L 4 5 C 4 6.644531 5.355469 8 7 8 C 7.765625 8 8.46875 7.699219 9 7.21875 C 9.53125 7.699219 10.234375 8 11 8 C 11.765625 8 12.46875 7.699219 13 7.21875 L 13 10 L 12 10 C 12 10.554688 11.554688 11 11 11 C 10.445313 11 10 10.554688 10 10 L 8 10 C 8 10.554688 7.554688 11 7 11 C 6.445313 11 6 10.554688 6 10 L 4 10 C 4 11.644531 5.355469 13 7 13 C 7.765625 13 8.46875 12.699219 9 12.21875 C 9.53125 12.699219 10.234375 13 11 13 C 11.765625 13 12.46875 12.699219 13 12.21875 L 13 15 L 12 15 C 12 15.554688 11.554688 16 11 16 C 10.445313 16 10 15.554688 10 15 L 8 15 C 8 15.554688 7.554688 16 7 16 C 6.445313 16 6 15.554688 6 15 L 4 15 C 4 16.644531 5.355469 18 7 18 C 7.765625 18 8.46875 17.699219 9 17.21875 C 9.53125 17.699219 10.234375 18 11 18 C 11.765625 18 12.46875 17.699219 13 17.21875 L 13 20 L 12 20 C 12 20.554688 11.554688 21 11 21 C 10.445313 21 10 20.554688 10 20 L 8 20 C 8 20.554688 7.554688 21 7 21 C 6.445313 21 6 20.554688 6 20 L 4 20 C 4 21.644531 5.355469 23 7 23 C 7.765625 23 8.46875 22.699219 9 22.21875 C 9.53125 22.699219 10.234375 23 11 23 C 11.765625 23 12.46875 22.699219 13 22.21875 L 13 25 L 12 25 C 12 25.554688 11.554688 26 11 26 C 10.445313 26 10 25.554688 10 25 L 8 25 C 8 25.554688 7.554688 26 7 26 C 6.445313 26 6 25.554688 6 25 L 4 25 C 4 26.644531 5.355469 28 7 28 C 7.765625 28 8.46875 27.699219 9 27.21875 C 9.53125 27.699219 10.234375 28 11 28 C 11.765625 28 12.46875 27.699219 13 27.21875 L 13 28 L 20.09375 28 L 20.09375 27.84375 C 20.382813 27.9375 20.679688 28 21 28 C 21.765625 28 22.46875 27.699219 23 27.21875 C 23.53125 27.699219 24.234375 28 25 28 C 26.644531 28 28 26.644531 28 25 L 26 25 C 26 25.554688 25.554688 26 25 26 C 24.445313 26 24 25.554688 24 25 L 22 25 C 22 25.554688 21.554688 26 21 26 C 20.445313 26 20 25.554688 20 25 L 19.8125 25 L 19.625 22.65625 C 20.039063 22.871094 20.503906 23 21 23 C 21.765625 23 22.46875 22.699219 23 22.21875 C 23.53125 22.699219 24.234375 23 25 23 C 26.644531 23 28 21.644531 28 20 L 26 20 C 26 20.554688 25.554688 21 25 21 C 24.445313 21 24 20.554688 24 20 L 22 20 C 22 20.554688 21.554688 21 21 21 C 20.445313 21 20 20.554688 20 20 L 19.375 20 L 19.125 17.34375 C 19.640625 17.757813 20.296875 18 21 18 C 21.765625 18 22.46875 17.699219 23 17.21875 C 23.53125 17.699219 24.234375 18 25 18 C 26.644531 18 28 16.644531 28 15 L 26 15 C 26 15.554688 25.554688 16 25 16 C 24.445313 16 24 15.554688 24 15 L 22 15 C 22 15.554688 21.554688 16 21 16 C 20.445313 16 20 15.554688 20 15 L 18.90625 15 L 18 4.90625 L 17.90625 4 Z M 15 6 L 16.09375 6 L 17.90625 26 L 15 26 Z "></path>
</g>
</svg>
