<?xml version="1.0" encoding="UTF-8"?>
<svg xmlns="http://www.w3.org/2000/svg" xmlns:xlink="http://www.w3.org/1999/xlink" viewBox="0 0 32 32" version="1.1">
<g>
<path d="M 9 4 L 9.34375 5.65625 C 9.136719 6.0625 9 6.511719 9 7 C 9 8.65625 10.34375 10 12 10 C 13.65625 10 15 8.65625 15 7 C 15 6.511719 14.863281 6.0625 14.65625 5.65625 L 15 4 L 13.59375 4.46875 C 13.132813 4.175781 12.585938 4 12 4 C 11.414063 4 10.867188 4.175781 10.40625 4.46875 Z M 20 4 C 18.355469 4 17 5.355469 17 7 C 17 8.644531 18.355469 10 20 10 C 20.59375 10 20.941406 9.800781 21.40625 9.59375 C 21.871094 9.386719 22.382813 9.132813 22.84375 8.875 C 23.761719 8.355469 24.53125 7.84375 24.53125 7.84375 L 25.84375 7 L 24.53125 6.15625 C 24.53125 6.15625 23.761719 5.644531 22.84375 5.125 C 22.382813 4.867188 21.871094 4.613281 21.40625 4.40625 C 20.941406 4.199219 20.59375 4 20 4 Z M 5.90625 5.5625 L 4.09375 6.4375 L 6.21875 10.6875 L 6.4375 10.84375 L 9 12.5625 L 9 17 L 8.5 17 C 7.125 17 6 18.125 6 19.5 L 6 21 L 7 21 L 7 19.5 C 7 18.664063 7.664063 18 8.5 18 L 9 18 L 9 28 L 10 27 L 11 28 L 11 24.625 L 14.4375 22.90625 L 15.21875 22.5 L 14.9375 21.6875 L 14 18.875 L 14 14.125 L 15.21875 15.625 L 15.53125 16 L 20 16 L 20 14 L 19.09375 14 C 19.292969 13.410156 19.835938 13 20.5 13 C 21.007813 13 21.449219 13.246094 21.71875 13.625 L 21.90625 14.03125 C 21.953125 14.179688 22 14.335938 22 14.5 L 22 16.25 L 23.375 19 L 19 19 L 19 17 L 17 17 L 17 21 L 18 21 L 18 28 L 20 28 L 20 21 L 20.21875 21 L 21.125 24.625 L 21.4375 24.84375 L 24.4375 26.84375 L 25.5625 25.15625 L 22.875 23.375 L 22.28125 21 L 26.625 21 L 24.625 17 L 28 17 L 28 15 L 24.625 15 L 23.71875 13.15625 C 23.183594 11.902344 21.941406 11 20.5 11 C 18.753906 11 17.28125 12.320313 17.03125 14 L 16.46875 14 L 14.65625 11.75 C 14.277344 11.28125 13.699219 11 13.09375 11 L 10.3125 11 L 7.78125 9.3125 Z M 20 6 C 19.855469 6 20.222656 6.050781 20.59375 6.21875 C 20.964844 6.386719 21.414063 6.632813 21.84375 6.875 C 21.957031 6.9375 21.953125 6.9375 22.0625 7 C 21.953125 7.0625 21.957031 7.0625 21.84375 7.125 C 21.414063 7.367188 20.964844 7.613281 20.59375 7.78125 C 20.222656 7.949219 19.855469 8 20 8 C 19.433594 8 19 7.566406 19 7 C 19 6.433594 19.433594 6 20 6 Z M 11 20 L 12.28125 20 L 12.78125 21.46875 L 11 22.375 Z "></path>
</g>
</svg>
