<?xml version="1.0" encoding="UTF-8"?>
<svg xmlns="http://www.w3.org/2000/svg" xmlns:xlink="http://www.w3.org/1999/xlink" viewBox="0 0 32 32" version="1.1">
<g>
<path d="M 9.0625 6 L 7.875 6.53125 L 9.8125 10.84375 L 9.15625 11.15625 L 6.96875 6.28125 L 5.78125 6.8125 L 8.0625 11.875 L 7.5625 12.1875 L 5.53125 7.6875 L 4.34375 8.21875 L 6.4375 12.90625 L 5.8125 13.28125 L 4.1875 9.6875 L 3 10.25 L 5.03125 14.6875 L 5.4375 15.625 L 6.46875 18.03125 C 6.765625 18.769531 7.402344 19.285156 8.125 19.5 L 8.46875 21 L 13.59375 21 L 12.9375 17.96875 C 13.398438 17.675781 13.703125 17.230469 13.8125 16.6875 L 15 11.21875 C 15 11.21875 14.457031 10.445313 13.65625 10.84375 C 13.390625 10.976563 12.21875 12.96875 12.21875 12.96875 L 12.0625 12.625 L 11.40625 11.21875 Z M 22.9375 6 L 19.9375 12.625 L 19.78125 12.96875 C 19.78125 12.96875 18.609375 10.976563 18.34375 10.84375 C 17.546875 10.445313 17 11.21875 17 11.21875 L 18.1875 16.6875 C 18.296875 17.230469 18.597656 17.675781 19.0625 17.96875 L 18.40625 21 L 23.53125 21 L 23.875 19.5 C 24.597656 19.285156 25.234375 18.769531 25.53125 18.03125 L 26.96875 14.6875 L 29 10.25 L 27.8125 9.6875 L 26.1875 13.28125 L 25.5625 12.90625 L 27.65625 8.25 L 26.46875 7.6875 L 24.4375 12.1875 L 23.9375 11.875 L 26.21875 6.8125 L 25.03125 6.28125 L 22.84375 11.15625 L 22.1875 10.84375 L 24.125 6.53125 Z M 0 22 C 0 22.941406 0.585938 23.683594 1.3125 24.1875 C 2.039063 24.691406 2.964844 25 4 25 C 5.039063 25 5.964844 24.691406 6.6875 24.1875 C 6.796875 24.113281 6.898438 24.023438 7 23.9375 C 7.105469 24.027344 7.199219 24.109375 7.3125 24.1875 C 8.039063 24.691406 8.964844 25 10 25 C 11.039063 25 11.964844 24.691406 12.6875 24.1875 C 12.796875 24.113281 12.898438 24.023438 13 23.9375 C 13.105469 24.027344 13.199219 24.109375 13.3125 24.1875 C 14.039063 24.691406 14.964844 25 16 25 C 17.039063 25 17.964844 24.691406 18.6875 24.1875 C 18.796875 24.113281 18.898438 24.023438 19 23.9375 C 19.105469 24.027344 19.199219 24.109375 19.3125 24.1875 C 20.039063 24.691406 20.964844 25 22 25 C 23.039063 25 23.964844 24.691406 24.6875 24.1875 C 24.796875 24.113281 24.898438 24.023438 25 23.9375 C 25.105469 24.027344 25.199219 24.109375 25.3125 24.1875 C 26.039063 24.691406 26.964844 25 28 25 C 29.039063 25 29.964844 24.691406 30.6875 24.1875 C 31.410156 23.683594 32 22.941406 32 22 L 30 22 C 30 22.042969 29.921875 22.3125 29.5625 22.5625 C 29.203125 22.8125 28.632813 23 28 23 C 27.363281 23 26.792969 22.808594 26.4375 22.5625 C 26.082031 22.316406 26 22.058594 26 22 L 24 22 C 24 22.042969 23.921875 22.3125 23.5625 22.5625 C 23.203125 22.8125 22.632813 23 22 23 C 21.363281 23 20.792969 22.808594 20.4375 22.5625 C 20.082031 22.316406 20 22.058594 20 22 L 18 22 C 18 22.042969 17.921875 22.3125 17.5625 22.5625 C 17.203125 22.8125 16.632813 23 16 23 C 15.363281 23 14.792969 22.808594 14.4375 22.5625 C 14.082031 22.316406 14 22.058594 14 22 L 12 22 C 12 22.042969 11.921875 22.3125 11.5625 22.5625 C 11.203125 22.8125 10.632813 23 10 23 C 9.363281 23 8.792969 22.808594 8.4375 22.5625 C 8.082031 22.316406 8 22.058594 8 22 L 6 22 C 6 22.042969 5.921875 22.3125 5.5625 22.5625 C 5.203125 22.8125 4.632813 23 4 23 C 3.363281 23 2.792969 22.808594 2.4375 22.5625 C 2.082031 22.316406 2 22.058594 2 22 Z "></path>
</g>
</svg>
