<?xml version="1.0" encoding="UTF-8"?>
<svg xmlns="http://www.w3.org/2000/svg" xmlns:xlink="http://www.w3.org/1999/xlink" viewBox="0 0 32 32" version="1.1">
<g>
<path d="M 15.640625 7.007813 C 14.53125 7.054688 13.429688 7.300781 12.40625 7.75 L 13.207031 9.582031 C 14.269531 9.117188 15.4375 8.929688 16.578125 9.023438 L 16.746094 7.03125 C 16.375 7 16.007813 6.992188 15.640625 7.007813 Z M 18.914063 7.484375 L 18.265625 9.375 C 19.355469 9.746094 20.34375 10.394531 21.128906 11.246094 L 22.597656 9.886719 C 21.585938 8.792969 20.3125 7.964844 18.914063 7.484375 Z M 10.488281 8.890625 C 10.058594 9.226563 9.65625 9.605469 9.289063 10.015625 C 8.589844 9.953125 7.933594 10.085938 7.316406 10.371094 L 8.15625 12.1875 C 8.546875 12.003906 8.898438 11.929688 9.464844 12.0625 L 10.089844 12.207031 L 10.480469 11.703125 C 10.84375 11.242188 11.257813 10.824219 11.71875 10.46875 Z M 23.890625 11.6875 L 22.136719 12.644531 C 22.417969 13.15625 22.628906 13.703125 22.777344 14.269531 L 22.980469 15.070313 L 23.800781 15.023438 C 23.867188 15.019531 23.929688 15.011719 24 15 C 24.472656 15 24.929688 15.082031 25.371094 15.238281 L 26.050781 13.359375 C 25.546875 13.175781 25.019531 13.0625 24.484375 13.019531 C 24.324219 12.558594 24.125 12.113281 23.890625 11.6875 Z M 5.554688 11.964844 C 5.226563 12.523438 5.039063 13.152344 5.007813 13.800781 C 4.519531 14.082031 4.078125 14.425781 3.683594 14.832031 L 5.121094 16.222656 C 5.496094 15.835938 5.9375 15.53125 6.433594 15.316406 L 7.125 14.9375 L 7.019531 14.183594 C 7.011719 14.125 7 14.0625 7 14 C 7 13.640625 7.097656 13.289063 7.277344 12.984375 Z M 27.984375 14.515625 L 26.65625 16.007813 C 27.421875 16.691406 27.894531 17.625 27.984375 18.644531 L 29.976563 18.46875 C 29.839844 16.941406 29.132813 15.535156 27.984375 14.515625 Z M 2.445313 16.722656 C 2.148438 17.445313 2 18.210938 2 19 C 2 19.742188 2.136719 20.46875 2.398438 21.15625 L 4.265625 20.4375 C 4.089844 19.980469 4 19.496094 4 19 C 4 18.476563 4.101563 17.964844 4.296875 17.484375 Z M 27.832031 20.144531 C 27.542969 21.125 26.890625 21.945313 26 22.464844 L 27.003906 24.191406 C 28.335938 23.421875 29.3125 22.1875 29.75 20.714844 Z M 5.0625 21.71875 L 3.59375 23.074219 C 4.640625 24.203125 6.058594 24.882813 7.59375 24.984375 L 7.726563 22.988281 C 6.707031 22.921875 5.761719 22.472656 5.0625 21.71875 Z M 24.582031 22.957031 C 24.394531 22.984375 24.199219 23 24 23 L 20.9375 23 L 20.9375 25 L 24 25 C 24.296875 25 24.589844 24.980469 24.875 24.9375 Z M 9.5625 23 L 9.5625 25 L 13.355469 25 L 13.355469 23 Z M 15.25 23 L 15.25 25 L 19.042969 25 L 19.042969 23 Z "></path>
</g>
</svg>
