<?xml version="1.0" encoding="UTF-8"?>
<svg xmlns="http://www.w3.org/2000/svg" xmlns:xlink="http://www.w3.org/1999/xlink" viewBox="0 0 32 32" version="1.1">
<g>
<path d="M 4 4 L 4 28 L 28 28 L 28 4 L 18 4 C 18 5.117188 17.117188 6 16 6 C 14.882813 6 14 5.117188 14 4 Z M 6 6 L 12.5625 6 C 13.257813 7.183594 14.535156 8 16 8 C 17.464844 8 18.742188 7.183594 19.4375 6 L 26 6 L 26 26 L 6 26 Z M 22.28125 11.28125 L 14 19.5625 L 9.71875 15.28125 L 8.28125 16.71875 L 13.28125 21.71875 L 14 22.40625 L 14.71875 21.71875 L 23.71875 12.71875 Z "></path>
</g>
</svg>
