<?xml version="1.0" encoding="UTF-8"?>
<svg xmlns="http://www.w3.org/2000/svg" xmlns:xlink="http://www.w3.org/1999/xlink" viewBox="0 0 32 32" version="1.1">
<g>
<path d="M 4 4 L 4 28 L 28 28 L 28 4 L 18 4 C 18 5.117188 17.117188 6 16 6 C 14.882813 6 14 5.117188 14 4 Z M 6 6 L 12.5625 6 C 13.257813 7.183594 14.535156 8 16 8 C 17.464844 8 18.742188 7.183594 19.4375 6 L 26 6 L 26 26 L 6 26 Z M 16 10 C 12.144531 10 9 13.144531 9 17 C 9 20.855469 12.144531 24 16 24 C 19.855469 24 23 20.855469 23 17 C 23 13.144531 19.855469 10 16 10 Z M 16 12 C 18.773438 12 21 14.226563 21 17 C 21 19.773438 18.773438 22 16 22 C 13.226563 22 11 19.773438 11 17 C 11 14.226563 13.226563 12 16 12 Z M 15 13 L 15 17.59375 L 13.3125 19.3125 L 14.6875 20.6875 L 17 18.40625 L 17 13 Z "></path>
</g>
</svg>
