<?xml version="1.0" encoding="UTF-8"?>
<svg xmlns="http://www.w3.org/2000/svg" xmlns:xlink="http://www.w3.org/1999/xlink" viewBox="0 0 32 32" version="1.1">
<g>
<path d="M 6 4 L 6 28 L 14 28 L 14 32 L 20 32 L 20 30 L 22 30 L 22 28 L 23.40625 28 L 23.71875 27.71875 L 24.5625 26.875 C 24.871094 26.933594 25.152344 27 25.5 27 C 29.054688 27 32 24.054688 32 20.5 C 32 17.113281 29.324219 14.292969 26 14.03125 L 26 4 Z M 8 6 L 24 6 L 24 11 L 8 11 Z M 8 13 L 24 13 L 24 14.1875 C 21.636719 14.757813 19.757813 16.636719 19.1875 19 L 8 19 Z M 25.5 16 C 27.945313 16 30 18.054688 30 20.5 C 30 22.945313 27.945313 25 25.5 25 C 25.265625 25 24.800781 24.933594 24.4375 24.84375 L 23.90625 24.6875 L 23.5 25.09375 L 22.5625 26 L 20 26 L 20 28 L 18 28 L 18 30 L 16 30 L 16 27.4375 L 20.90625 22.5 L 21.3125 22.09375 L 21.15625 21.5625 C 21.054688 21.164063 21 20.867188 21 20.5 C 21 18.054688 23.054688 16 25.5 16 Z M 27 18 C 26.449219 18 26 18.449219 26 19 C 26 19.550781 26.449219 20 27 20 C 27.550781 20 28 19.550781 28 19 C 28 18.449219 27.550781 18 27 18 Z M 8 21 L 19.03125 21 C 19.054688 21.164063 19.089844 21.308594 19.125 21.46875 L 14.5625 26 L 8 26 Z "></path>
</g>
</svg>
