<?xml version="1.0" encoding="UTF-8"?>
<svg xmlns="http://www.w3.org/2000/svg" xmlns:xlink="http://www.w3.org/1999/xlink" viewBox="0 0 32 32" version="1.1">
<g>
<path d="M 9.5 4 C 7.578125 4 6 5.578125 6 7.5 C 6 9.421875 7.578125 11 9.5 11 C 11.421875 11 13 9.421875 13 7.5 C 13 5.578125 11.421875 4 9.5 4 Z M 21.5 4 C 19.578125 4 18 5.578125 18 7.5 C 18 9.421875 19.578125 11 21.5 11 C 23.421875 11 25 9.421875 25 7.5 C 25 5.578125 23.421875 4 21.5 4 Z M 9.5 6 C 10.339844 6 11 6.660156 11 7.5 C 11 8.339844 10.339844 9 9.5 9 C 8.660156 9 8 8.339844 8 7.5 C 8 6.660156 8.660156 6 9.5 6 Z M 21.5 6 C 22.339844 6 23 6.660156 23 7.5 C 23 8.339844 22.339844 9 21.5 9 C 20.660156 9 20 8.339844 20 7.5 C 20 6.660156 20.660156 6 21.5 6 Z M 9 12 C 6.792969 12 5 13.792969 5 16 L 5 21.25 L 7 22.25 L 7 28 L 9 28 L 9 21 L 7 20 L 7 16 C 7 14.898438 7.898438 14 9 14 L 10.15625 14 C 10.917969 14 11.597656 14.410156 11.9375 15.09375 L 13.21875 17.65625 L 15.90625 19.78125 L 15.03125 23.78125 L 14.75 25 L 19 25 L 19 28 L 21 28 L 21 25 L 22 25 L 22 28 L 24 28 L 24 25 L 28.25 25 L 27.96875 23.78125 L 26.15625 15.625 L 26.125 15.625 C 25.664063 13.699219 23.957031 12 21.5 12 C 19.074219 12 17.304688 13.613281 16.84375 15.625 L 16.40625 17.625 L 14.78125 16.34375 L 13.71875 14.21875 C 13.035156 12.855469 11.679688 12 10.15625 12 Z M 21.5 14 C 23.078125 14 23.902344 14.914063 24.1875 16.0625 L 24.1875 16.09375 L 25.75 23 L 17.25 23 L 18.8125 16.09375 L 18.8125 16.0625 C 19.105469 14.8125 19.886719 14 21.5 14 Z M 10 21 L 10 28 L 12 28 L 12 21 Z "></path>
</g>
</svg>
