<?xml version="1.0" encoding="UTF-8"?>
<svg xmlns="http://www.w3.org/2000/svg" xmlns:xlink="http://www.w3.org/1999/xlink" viewBox="0 0 32 32" version="1.1">
<g>
<path d="M 9 4 L 9 5 L 5 5 L 5 27 L 27 27 L 27 5 L 23 5 L 23 4 L 21 4 L 21 5 L 11 5 L 11 4 Z M 7 7 L 9 7 L 9 8 L 11 8 L 11 7 L 21 7 L 21 8 L 23 8 L 23 7 L 25 7 L 25 9 L 7 9 Z M 7 11 L 25 11 L 25 25 L 7 25 Z M 12.78125 13.78125 L 9.28125 17.28125 L 8.59375 18 L 9.28125 18.71875 L 12.78125 22.21875 L 14.21875 20.78125 L 12.4375 19 L 19.5625 19 L 17.78125 20.78125 L 19.21875 22.21875 L 22.71875 18.71875 L 23.40625 18 L 22.71875 17.28125 L 19.21875 13.78125 L 17.78125 15.21875 L 19.5625 17 L 12.4375 17 L 14.21875 15.21875 Z "></path>
</g>
</svg>
