<?xml version="1.0" encoding="UTF-8"?>
<svg xmlns="http://www.w3.org/2000/svg" xmlns:xlink="http://www.w3.org/1999/xlink" viewBox="0 0 32 32" version="1.1">
<g>
<path d="M 15.78125 3 C 14.898438 3 14.175781 3.492188 13.625 4.125 C 13.074219 4.757813 12.632813 5.5625 12.21875 6.5 C 11.390625 8.375 10.695313 10.800781 10.09375 13.3125 C 10.089844 13.320313 10.097656 13.335938 10.09375 13.34375 L 10.0625 13.34375 C 10.0625 13.34375 9.839844 13.691406 9.40625 14.03125 C 8.972656 14.371094 8.382813 14.757813 7.78125 15.15625 C 7.179688 15.554688 6.578125 15.960938 6.0625 16.4375 C 5.546875 16.914063 5.03125 17.503906 5.03125 18.375 C 5.03125 18.972656 5.433594 19.605469 5.90625 19.875 C 6.378906 20.144531 6.816406 20.203125 7.28125 20.21875 C 7.804688 20.238281 8.335938 20.152344 8.875 20.09375 C 8.480469 23.078125 8.203125 25.875 8.09375 27 L 6 27 L 6 29 L 26 29 L 26 27 L 23.875 27 C 23.863281 26.894531 23.859375 26.839844 23.84375 26.71875 C 23.75 25.992188 23.609375 24.960938 23.4375 23.78125 C 23.121094 21.597656 22.65625 18.890625 22.15625 16.46875 C 22.972656 15.941406 23.8125 15.34375 24.46875 14.53125 C 25.300781 13.496094 25.96875 12.324219 25.96875 11.03125 C 25.96875 10.398438 25.828125 9.84375 25.46875 9.4375 C 25.109375 9.03125 24.570313 8.90625 24.21875 8.90625 C 23.625 8.90625 23.300781 9.203125 23.0625 9.40625 C 22.824219 9.609375 22.625 9.800781 22.375 10 C 22.023438 10.277344 21.3125 10.472656 20.625 10.6875 C 20.140625 8.917969 19.667969 7.183594 19.0625 5.90625 C 18.695313 5.125 18.292969 4.464844 17.78125 3.9375 C 17.269531 3.410156 16.558594 3 15.78125 3 Z M 15.78125 5 C 15.910156 5 16.074219 5.035156 16.34375 5.3125 C 16.613281 5.589844 16.9375 6.085938 17.25 6.75 C 17.875 8.074219 18.464844 10.042969 19.03125 12.25 L 19.25 13.125 L 20.125 13 C 21.804688 12.761719 22.929688 12.113281 23.625 11.5625 C 23.695313 11.507813 23.71875 11.492188 23.78125 11.4375 C 23.667969 11.960938 23.449219 12.605469 22.90625 13.28125 C 22.242188 14.105469 21.355469 14.835938 20.65625 15.1875 L 19.9375 15.5625 L 20.125 16.3125 C 20.660156 18.785156 21.128906 21.757813 21.46875 24.09375 C 21.636719 25.261719 21.78125 26.25 21.875 26.96875 C 21.875 26.980469 21.875 26.988281 21.875 27 L 10.125 27 C 10.203125 26.035156 10.457031 22.660156 11 19.15625 L 11.1875 17.875 L 9.90625 18 C 8.960938 18.09375 7.980469 18.242188 7.375 18.21875 C 7.261719 18.214844 7.265625 18.199219 7.1875 18.1875 C 7.234375 18.109375 7.199219 18.09375 7.40625 17.90625 C 7.753906 17.585938 8.320313 17.199219 8.90625 16.8125 C 9.492188 16.425781 10.105469 16.027344 10.65625 15.59375 C 11.207031 15.160156 11.722656 14.726563 11.96875 13.96875 L 12 13.9375 L 12.0625 13.78125 C 12.652344 11.324219 13.328125 8.972656 14.0625 7.3125 C 14.429688 6.480469 14.820313 5.824219 15.15625 5.4375 C 15.492188 5.050781 15.671875 5 15.78125 5 Z M 15.78125 11 C 15.371094 11 14.988281 11.070313 14.625 11.25 C 14.261719 11.429688 13.78125 11.820313 13.78125 12.5 C 13.78125 13.179688 14.261719 13.570313 14.625 13.75 C 14.988281 13.929688 15.371094 14 15.78125 14 C 16.191406 14 16.574219 13.929688 16.9375 13.75 C 17.300781 13.570313 17.78125 13.179688 17.78125 12.5 C 17.78125 11.820313 17.300781 11.429688 16.9375 11.25 C 16.574219 11.070313 16.191406 11 15.78125 11 Z M 15.78125 15 C 15.027344 15 14.339844 15.207031 13.78125 15.625 C 13.222656 16.042969 12.78125 16.726563 12.78125 17.5 C 12.78125 18.273438 13.222656 18.957031 13.78125 19.375 C 14.339844 19.792969 15.027344 20 15.78125 20 C 16.535156 20 17.253906 19.792969 17.8125 19.375 C 18.371094 18.957031 18.78125 18.273438 18.78125 17.5 C 18.78125 16.726563 18.371094 16.042969 17.8125 15.625 C 17.253906 15.207031 16.535156 15 15.78125 15 Z M 15.78125 17 C 16.132813 17 16.425781 17.125 16.59375 17.25 C 16.761719 17.375 16.78125 17.445313 16.78125 17.5 C 16.78125 17.554688 16.761719 17.625 16.59375 17.75 C 16.425781 17.875 16.132813 18 15.78125 18 C 15.429688 18 15.136719 17.875 14.96875 17.75 C 14.800781 17.625 14.78125 17.554688 14.78125 17.5 C 14.78125 17.445313 14.800781 17.375 14.96875 17.25 C 15.136719 17.125 15.429688 17 15.78125 17 Z M 16 21 C 15.035156 21 14.164063 21.167969 13.4375 21.53125 C 12.710938 21.894531 12 22.546875 12 23.5 C 12 24.453125 12.710938 25.105469 13.4375 25.46875 C 14.164063 25.832031 15.035156 26 16 26 C 16.964844 26 17.835938 25.832031 18.5625 25.46875 C 19.289063 25.105469 20 24.453125 20 23.5 C 20 22.546875 19.289063 21.894531 18.5625 21.53125 C 17.835938 21.167969 16.964844 21 16 21 Z M 16 23 C 16.691406 23 17.328125 23.164063 17.6875 23.34375 C 17.84375 23.421875 17.898438 23.464844 17.9375 23.5 C 17.898438 23.535156 17.84375 23.578125 17.6875 23.65625 C 17.328125 23.835938 16.691406 24 16 24 C 15.308594 24 14.671875 23.835938 14.3125 23.65625 C 14.15625 23.578125 14.101563 23.535156 14.0625 23.5 C 14.101563 23.464844 14.15625 23.421875 14.3125 23.34375 C 14.671875 23.164063 15.308594 23 16 23 Z "></path>
</g>
</svg>
