<?xml version="1.0" encoding="UTF-8"?>
<svg xmlns="http://www.w3.org/2000/svg" xmlns:xlink="http://www.w3.org/1999/xlink" viewBox="0 0 32 32" version="1.1">
<g>
<path d="M 2 8 L 2 24 L 24 24 L 24 20.625 L 30 23.625 L 30 8.375 L 24 11.375 L 24 8 Z M 4 10 L 22 10 L 22 22 L 4 22 Z M 12 11 L 12 13.1875 C 11.902344 13.222656 11.808594 13.269531 11.71875 13.3125 L 10.15625 11.75 L 8.75 13.15625 L 10.3125 14.71875 C 10.269531 14.808594 10.222656 14.902344 10.1875 15 L 8 15 L 8 17 L 10.1875 17 C 10.222656 17.097656 10.269531 17.191406 10.3125 17.28125 L 8.75 18.84375 L 10.15625 20.25 L 11.71875 18.6875 C 11.808594 18.730469 11.902344 18.777344 12 18.8125 L 12 21 L 14 21 L 14 18.8125 C 14.097656 18.777344 14.191406 18.730469 14.28125 18.6875 L 15.84375 20.25 L 17.25 18.84375 L 15.6875 17.28125 C 15.730469 17.191406 15.777344 17.097656 15.8125 17 L 18 17 L 18 15 L 15.8125 15 C 15.777344 14.902344 15.730469 14.808594 15.6875 14.71875 L 17.25 13.15625 L 15.84375 11.75 L 14.28125 13.3125 C 14.191406 13.269531 14.097656 13.222656 14 13.1875 L 14 11 Z M 28 11.625 L 28 20.375 L 24 18.375 L 24 13.625 Z M 13 15 C 13.5625 15 14 15.4375 14 16 C 14 16.5625 13.5625 17 13 17 C 12.4375 17 12 16.5625 12 16 C 12 15.4375 12.4375 15 13 15 Z "></path>
</g>
</svg>
