<?xml version="1.0" encoding="UTF-8"?>
<svg xmlns="http://www.w3.org/2000/svg" xmlns:xlink="http://www.w3.org/1999/xlink" viewBox="0 0 32 32" version="1.1">
<g>
<path d="M 5 5 L 5 27 L 27 27 L 27 5 Z M 7 7 L 9 7 L 9 9 L 7 9 Z M 11 7 L 25 7 L 25 9 L 11 9 Z M 7 11 L 9 11 L 9 13 L 7 13 Z M 11 11 L 25 11 L 25 13 L 11 13 Z M 7 15 L 9 15 L 9 17 L 7 17 Z M 11 15 L 25 15 L 25 17 L 11 17 Z M 7 19 L 9 19 L 9 21 L 7 21 Z M 11 19 L 25 19 L 25 21 L 11 21 Z M 7 23 L 9 23 L 9 25 L 7 25 Z M 11 23 L 25 23 L 25 25 L 11 25 Z "></path>
</g>
</svg>
