<?xml version="1.0" encoding="UTF-8"?>
<svg xmlns="http://www.w3.org/2000/svg" xmlns:xlink="http://www.w3.org/1999/xlink" viewBox="0 0 32 32" version="1.1">
<g>
<path d="M 0 7 L 0 25 L 32 25 L 32 7 Z M 2 9 L 30 9 L 30 23 L 2 23 Z M 8 12 L 8 20 L 10 20 C 11.644531 20 13 18.644531 13 17 L 13 15 C 13 13.355469 11.644531 12 10 12 Z M 14 12 L 14 20 L 16.5 20 C 17.882813 20 19 18.882813 19 17.5 C 19 16.917969 18.738281 16.425781 18.40625 16 C 18.738281 15.574219 19 15.082031 19 14.5 C 19 13.117188 17.882813 12 16.5 12 Z M 22.5 12 C 21.117188 12 20 13.117188 20 14.5 L 20 15 L 22 15 L 22 14.5 C 22 14.285156 22.285156 14 22.5 14 C 22.714844 14 23 14.285156 23 14.5 L 23 15.3125 C 23 15.378906 22.925781 15.542969 22.78125 15.6875 L 20.3125 18.09375 L 20 18.375 L 20 20 L 25 20 L 25 18 L 23.28125 18 L 24.1875 17.125 L 24.21875 17.09375 C 24.675781 16.636719 25 16.046875 25 15.3125 L 25 14.5 C 25 13.117188 23.882813 12 22.5 12 Z M 10 14 C 10.554688 14 11 14.445313 11 15 L 11 17 C 11 17.554688 10.554688 18 10 18 Z M 16 14 L 16.5 14 C 16.714844 14 17 14.285156 17 14.5 C 17 14.714844 16.714844 15 16.5 15 L 16 15 Z M 16 17 L 16.5 17 C 16.714844 17 17 17.285156 17 17.5 C 17 17.714844 16.714844 18 16.5 18 L 16 18 Z "></path>
</g>
</svg>
