<?xml version="1.0" encoding="UTF-8"?>
<svg xmlns="http://www.w3.org/2000/svg" xmlns:xlink="http://www.w3.org/1999/xlink" viewBox="0 0 32 32" version="1.1">
<g>
<path d="M 12 2 L 12 8 L 14 8 L 14 10 L 8 10 L 8 30 L 22 30 L 22 10 L 16 10 L 16 8 L 18 8 L 18 2 Z M 24 2 C 23.449219 2 23 2.449219 23 3 C 23 3.550781 23.449219 4 24 4 C 24.550781 4 25 3.550781 25 3 C 25 2.449219 24.550781 2 24 2 Z M 14 4 L 16 4 L 16 6 L 14 6 Z M 21 4 C 20.449219 4 20 4.449219 20 5 C 20 5.550781 20.449219 6 21 6 C 21.550781 6 22 5.550781 22 5 C 22 4.449219 21.550781 4 21 4 Z M 24 6 C 23.449219 6 23 6.449219 23 7 C 23 7.550781 23.449219 8 24 8 C 24.550781 8 25 7.550781 25 7 C 25 6.449219 24.550781 6 24 6 Z M 10 12 L 20 12 L 20 28 L 10 28 Z M 15 16 C 12.800781 16 11 17.800781 11 20 C 11 22.199219 12.800781 24 15 24 C 17.199219 24 19 22.199219 19 20 C 19 17.800781 17.199219 16 15 16 Z M 15 18 C 15.175781 18 15.339844 18.023438 15.5 18.0625 L 13.0625 20.5 C 13.023438 20.339844 13 20.175781 13 20 C 13 18.882813 13.882813 18 15 18 Z M 16.9375 19.5 C 16.976563 19.660156 17 19.824219 17 20 C 17 21.117188 16.117188 22 15 22 C 14.824219 22 14.660156 21.976563 14.5 21.9375 Z "></path>
</g>
</svg>
