<?xml version="1.0" encoding="UTF-8"?>
<svg xmlns="http://www.w3.org/2000/svg" xmlns:xlink="http://www.w3.org/1999/xlink" viewBox="0 0 32 32" version="1.1">
<g>
<path d="M 20.03125 3.875 C 19.234375 3.816406 18.242188 4.523438 17.8125 5.5625 C 17.210938 6.765625 17.484375 7.929688 18.3125 8.25 C 19.140625 8.570313 20.382813 7.84375 20.875 6.65625 C 21.476563 5.453125 21.171875 4.257813 20.34375 3.9375 C 20.242188 3.898438 20.144531 3.882813 20.03125 3.875 Z M 22.8125 6.46875 C 22.308594 6.527344 21.773438 6.917969 21.4375 7.46875 C 20.992188 8.203125 21.109375 9.050781 21.71875 9.40625 C 22.3125 9.652344 23.148438 9.203125 23.59375 8.46875 C 24.023438 7.625 23.875 6.746094 23.28125 6.5 C 23.132813 6.4375 22.980469 6.449219 22.8125 6.46875 Z M 24.90625 8.78125 C 24.480469 8.792969 24.015625 9.105469 23.75 9.5625 C 23.285156 10.1875 23.28125 10.972656 23.75 11.125 C 24.234375 11.386719 24.957031 11.046875 25.3125 10.4375 C 25.777344 9.8125 25.78125 9.027344 25.3125 8.875 C 25.191406 8.808594 25.046875 8.777344 24.90625 8.78125 Z M 16.53125 9 C 13.785156 9 12.574219 11.375 11.40625 13.6875 C 10.453125 15.570313 9.460938 17.539063 7.65625 18.40625 C 5.890625 19.257813 4 21.210938 4 23.5 C 4 25.980469 6.019531 28 8.5 28 C 11.132813 28 12.589844 26.398438 13.46875 25.4375 L 13.75 25.125 C 13.824219 25.046875 13.921875 24.984375 14 24.90625 L 14 26 L 22 26 L 22 17.53125 C 22 16.863281 21.679688 16.246094 21.125 15.875 L 18.5625 14.15625 L 18 13.8125 L 17.4375 14.15625 L 14.90625 15.875 L 14.90625 15.90625 C 14.363281 16.277344 14 16.875 14 17.53125 L 14 22.3125 C 13.367188 22.789063 12.785156 23.257813 12.3125 23.75 C 12.214844 23.851563 12.109375 23.972656 12 24.09375 C 11.21875 24.949219 10.25 26 8.5 26 C 7.121094 26 6 24.878906 6 23.5 C 6 22.152344 7.304688 20.777344 8.53125 20.1875 C 10.945313 19.023438 12.132813 16.671875 13.1875 14.59375 C 14.316406 12.359375 15.085938 11 16.53125 11 C 18.785156 11 20.871094 12.503906 21.65625 14.4375 L 21.9375 14.625 C 22.914063 15.273438 23.5 16.359375 23.5 17.53125 L 23.5 17.9375 C 23.796875 17.402344 24 16.796875 24 16.0625 C 24 12.296875 20.507813 9 16.53125 9 Z M 26.28125 11.25 C 25.949219 11.207031 25.558594 11.382813 25.1875 11.6875 C 24.691406 12.09375 24.671875 12.644531 24.9375 12.9375 C 25.3125 13.214844 25.941406 13.125 26.3125 12.625 C 26.808594 12.21875 26.859375 11.667969 26.59375 11.375 C 26.5 11.304688 26.390625 11.265625 26.28125 11.25 Z M 26.03125 13.625 C 25.828125 13.667969 25.601563 13.804688 25.40625 14 C 25.019531 14.390625 24.96875 14.84375 25.21875 15.03125 C 25.46875 15.214844 26.035156 15.125 26.3125 14.75 C 26.699219 14.359375 26.75 13.90625 26.5 13.71875 C 26.429688 13.617188 26.234375 13.582031 26.03125 13.625 Z M 18 16.21875 L 20 17.53125 L 20 24 L 16 24 L 16 17.53125 Z M 18 18 C 17.449219 18 17 18.449219 17 19 C 17 19.550781 17.449219 20 18 20 C 18.550781 20 19 19.550781 19 19 C 19 18.449219 18.550781 18 18 18 Z "></path>
</g>
</svg>
