<?xml version="1.0" encoding="UTF-8"?>
<svg xmlns="http://www.w3.org/2000/svg" xmlns:xlink="http://www.w3.org/1999/xlink" viewBox="0 0 32 32" version="1.1">
<g>
<path d="M 18.148438 16.734375 C 17.695313 16.742188 18.234375 16.957031 18.824219 17.046875 C 18.988281 16.925781 19.136719 16.800781 19.269531 16.683594 C 18.902344 16.765625 18.527344 16.769531 18.148438 16.734375 M 20.582031 16.160156 C 20.855469 15.804688 21.050781 15.417969 21.117188 15.015625 C 21.058594 15.300781 20.894531 15.546875 20.742188 15.808594 C 19.894531 16.316406 20.660156 15.507813 20.742188 15.199219 C 19.828125 16.289063 20.617188 15.855469 20.582031 16.160156 M 21.484375 13.9375 C 21.539063 13.160156 21.320313 13.40625 21.25 13.703125 C 21.335938 13.746094 21.402344 14.25 21.484375 13.9375 M 16.429688 3.335938 C 16.671875 3.375 16.949219 3.40625 16.910156 3.460938 C 17.175781 3.40625 17.234375 3.355469 16.429688 3.335938 M 16.910156 3.460938 L 16.738281 3.496094 L 16.898438 3.484375 L 16.910156 3.460938 M 24.464844 14.230469 C 24.488281 14.929688 24.246094 15.265625 24.03125 15.863281 L 23.636719 16.050781 C 23.316406 16.644531 23.667969 16.425781 23.4375 16.898438 C 22.9375 17.320313 21.917969 18.21875 21.59375 18.304688 C 21.355469 18.296875 21.753906 18.035156 21.808594 17.933594 C 21.136719 18.371094 21.269531 18.589844 20.242188 18.855469 L 20.210938 18.792969 C 17.683594 19.921875 14.167969 17.683594 14.214844 14.628906 C 14.1875 14.820313 14.136719 14.773438 14.082031 14.851563 C 13.949219 13.28125 14.847656 11.699219 16.355469 11.054688 C 17.832031 10.363281 19.5625 10.648438 20.621094 11.582031 C 20.039063 10.859375 18.882813 10.09375 17.515625 10.164063 C 16.171875 10.1875 14.914063 10.996094 14.496094 11.875 C 13.808594 12.285156 13.726563 13.460938 13.429688 13.675781 C 13.027344 16.488281 14.1875 17.707031 16.152344 19.136719 C 16.464844 19.335938 16.238281 19.363281 16.28125 19.515625 C 15.628906 19.226563 15.03125 18.785156 14.539063 18.25 C 14.800781 18.613281 15.082031 18.964844 15.445313 19.242188 C 14.832031 19.042969 14.007813 17.824219 13.769531 17.777344 C 14.832031 19.578125 18.074219 20.941406 19.773438 20.265625 C 18.988281 20.292969 17.988281 20.28125 17.105469 19.96875 C 16.734375 19.789063 16.230469 19.414063 16.320313 19.34375 C 18.636719 20.164063 21.035156 19.964844 23.039063 18.4375 C 23.550781 18.0625 24.109375 17.421875 24.269531 17.410156 C 24.027344 17.757813 24.308594 17.578125 24.125 17.882813 C 24.632813 17.105469 23.902344 17.566406 24.648438 16.539063 L 24.925781 16.898438 C 24.824219 16.253906 25.773438 15.46875 25.675781 14.445313 C 25.890625 14.132813 25.917969 14.78125 25.6875 15.503906 C 26.007813 14.703125 25.769531 14.574219 25.851563 13.917969 C 25.941406 14.140625 26.058594 14.375 26.117188 14.609375 C 25.910156 13.835938 26.332031 13.308594 26.4375 12.859375 C 26.335938 12.816406 26.113281 13.203125 26.066406 12.289063 C 26.070313 11.894531 26.179688 12.085938 26.222656 11.984375 C 26.140625 11.941406 25.925781 11.636719 25.796875 11.058594 C 25.890625 10.921875 26.050781 11.410156 26.175781 11.429688 C 26.09375 10.96875 25.953125 10.617188 25.945313 10.261719 C 25.570313 9.515625 25.8125 10.359375 25.507813 9.941406 C 25.105469 8.753906 25.839844 9.664063 25.886719 9.125 C 26.496094 9.960938 26.839844 11.253906 27 11.789063 C 26.878906 11.136719 26.683594 10.503906 26.445313 9.890625 C 26.628906 9.964844 26.148438 8.546875 26.683594 9.488281 C 26.109375 7.484375 24.230469 5.613281 22.5 4.734375 C 22.714844 4.921875 22.980469 5.152344 22.882813 5.1875 C 22.023438 4.699219 22.175781 4.664063 22.050781 4.457031 C 21.351563 4.1875 21.304688 4.480469 20.839844 4.457031 C 19.519531 3.792969 19.265625 3.863281 18.050781 3.445313 L 18.105469 3.691406 C 17.230469 3.414063 17.085938 3.796875 16.140625 3.691406 C 16.082031 3.648438 16.445313 3.539063 16.738281 3.496094 C 15.894531 3.601563 15.933594 3.339844 15.105469 3.527344 C 15.308594 3.390625 15.523438 3.300781 15.742188 3.183594 C 15.054688 3.226563 14.097656 3.566406 14.390625 3.257813 C 13.265625 3.730469 11.269531 4.402344 10.148438 5.398438 L 10.113281 5.175781 C 9.597656 5.761719 7.871094 6.925781 7.734375 7.683594 L 7.597656 7.714844 C 7.328125 8.144531 7.15625 8.628906 6.945313 9.070313 C 6.59375 9.640625 6.429688 9.289063 6.480469 9.378906 C 5.792969 10.703125 5.453125 11.816406 5.15625 12.730469 C 5.367188 13.027344 5.160156 14.527344 5.238281 15.726563 C 4.894531 21.648438 9.617188 27.398438 14.78125 28.726563 C 15.539063 28.984375 16.664063 28.972656 17.621094 29 C 16.492188 28.691406 16.347656 28.835938 15.246094 28.472656 C 14.453125 28.117188 14.277344 27.714844 13.71875 27.25 L 13.9375 27.621094 C 12.835938 27.253906 13.296875 27.164063 12.402344 26.894531 L 12.640625 26.601563 C 12.28125 26.574219 11.691406 26.027344 11.53125 25.726563 L 11.140625 25.742188 C 10.671875 25.191406 10.421875 24.792969 10.4375 24.488281 L 10.3125 24.699219 C 10.171875 24.46875 8.585938 22.636719 9.40625 23.0625 C 9.253906 22.929688 9.050781 22.847656 8.832031 22.46875 L 8.996094 22.285156 C 8.601563 21.804688 8.269531 21.183594 8.296875 20.976563 C 8.507813 21.246094 8.652344 21.296875 8.796875 21.34375 C 7.796875 18.992188 7.742188 21.214844 6.984375 18.949219 L 7.144531 18.9375 C 7.023438 18.761719 6.949219 18.570313 6.847656 18.382813 L 6.917969 17.726563 C 6.199219 16.933594 6.71875 14.367188 6.820313 12.960938 C 6.894531 12.386719 7.421875 11.777344 7.824219 10.820313 L 7.578125 10.78125 C 8.046875 10.003906 10.253906 7.664063 11.273438 7.785156 C 11.769531 7.195313 11.175781 7.785156 11.078125 7.636719 C 12.164063 6.566406 12.507813 6.882813 13.238281 6.691406 C 14.03125 6.242188 12.5625 6.863281 12.9375 6.519531 C 14.304688 6.1875 13.90625 5.765625 15.6875 5.597656 C 15.878906 5.699219 15.25 5.753906 15.09375 5.886719 C 16.234375 5.359375 18.699219 5.476563 20.300781 6.179688 C 22.160156 7.003906 24.246094 9.441406 24.328125 11.734375 L 24.425781 11.761719 C 24.378906 12.671875 24.570313 13.726563 24.234375 14.695313 L 24.464844 14.230469 M 13.195313 17.328125 L 13.132813 17.628906 C 13.429688 18.015625 13.667969 18.429688 14.046875 18.730469 C 13.773438 18.222656 13.570313 18.011719 13.195313 17.328125 M 13.898438 17.300781 C 13.742188 17.136719 13.648438 16.9375 13.542969 16.738281 C 13.644531 17.085938 13.847656 17.386719 14.039063 17.691406 L 13.898438 17.300781 M 26.375 14.726563 L 26.308594 14.886719 C 26.1875 15.710938 25.921875 16.523438 25.519531 17.28125 C 25.964844 16.484375 26.253906 15.609375 26.375 14.726563 M 16.519531 3.128906 C 16.824219 3.019531 17.273438 3.070313 17.597656 3 C 17.175781 3.03125 16.75 3.054688 16.335938 3.105469 L 16.519531 3.128906 M 5.746094 8.566406 C 5.816406 9.1875 5.253906 9.429688 5.871094 9.019531 C 6.203125 8.3125 5.742188 8.824219 5.746094 8.566406 M 5.019531 11.441406 C 5.164063 11.027344 5.1875 10.777344 5.242188 10.539063 C 4.851563 11.015625 5.0625 11.117188 5.019531 11.441406 "></path>
</g>
</svg>
