<?xml version="1.0" encoding="UTF-8"?>
<svg xmlns="http://www.w3.org/2000/svg" xmlns:xlink="http://www.w3.org/1999/xlink" viewBox="0 0 32 32" version="1.1">
<g>
<path d="M 16 3 C 14.355469 3 13 4.355469 13 6 C 13 6.351563 13.074219 6.683594 13.1875 7 L 7.21875 7 L 7.03125 7.78125 L 3.03125 24.78125 L 3 24.875 L 3 27 L 29 27 L 29 24.875 L 28.96875 24.78125 L 24.96875 7.78125 L 24.78125 7 L 18.8125 7 C 18.925781 6.683594 19 6.351563 19 6 C 19 4.355469 17.644531 3 16 3 Z M 16 5 C 16.5625 5 17 5.4375 17 6 C 17 6.5625 16.5625 7 16 7 C 15.4375 7 15 6.5625 15 6 C 15 5.4375 15.4375 5 16 5 Z M 8.78125 9 L 23.21875 9 L 26.96875 25 L 5.03125 25 Z M 15 12 L 15 13 L 14.5 13 C 13.117188 13 12 14.117188 12 15.5 C 12 16.882813 13.117188 18 14.5 18 L 17.5 18 C 17.714844 18 18 18.285156 18 18.5 C 18 18.714844 17.714844 19 17.5 19 L 12 19 L 12 21 L 15 21 L 15 22 L 17 22 L 17 21 L 17.5 21 C 18.882813 21 20 19.882813 20 18.5 C 20 17.117188 18.882813 16 17.5 16 L 14.5 16 C 14.285156 16 14 15.714844 14 15.5 C 14 15.285156 14.285156 15 14.5 15 L 19 15 L 19 13 L 17 13 L 17 12 Z "></path>
</g>
</svg>
