<?xml version="1.0" encoding="UTF-8"?>
<svg xmlns="http://www.w3.org/2000/svg" xmlns:xlink="http://www.w3.org/1999/xlink" viewBox="0 0 32 32" version="1.1">
<g>
<path d="M 3 4 C 3 6.464844 3.5625 8.769531 5.1875 10.4375 C 6.429688 11.714844 8.222656 12.527344 10.625 12.84375 C 9.945313 13.734375 9.476563 14.710938 9.21875 15.71875 C 8.746094 15.835938 8.011719 16 7.65625 16 C 7.136719 16 6.691406 15.707031 6.375 15.40625 C 6.671875 15.199219 7.011719 15 7.34375 15 C 7.375 15 7.90625 15.15625 7.90625 15.15625 L 8.71875 13.3125 C 8.71875 13.3125 8.140625 13 7.34375 13 C 5.371094 13 4.21875 14.65625 4.21875 14.65625 L 3.8125 15.15625 L 4.125 15.75 C 4.125 15.75 5.269531 18 7.65625 18 C 8.121094 18 8.59375 17.9375 9.03125 17.84375 C 9.113281 19.472656 9.566406 20.773438 10.125 22.0625 C 10.738281 23.480469 11.464844 24.953125 12.03125 27.25 L 12.09375 27.5625 L 12.375 27.78125 C 12.375 27.78125 13.835938 29 16 29 C 18.164063 29 19.625 27.78125 19.625 27.78125 L 19.90625 27.5625 L 19.96875 27.25 C 20.535156 24.953125 21.230469 23.480469 21.84375 22.0625 C 22.402344 20.773438 22.882813 19.472656 22.96875 17.84375 C 23.40625 17.9375 23.878906 18 24.34375 18 C 26.730469 18 27.875 15.75 27.875 15.75 L 28.1875 15.15625 L 27.78125 14.65625 C 27.78125 14.65625 26.628906 13 24.65625 13 C 23.859375 13 23.28125 13.3125 23.28125 13.3125 L 24.09375 15.15625 C 24.09375 15.15625 24.625 15 24.65625 15 C 24.988281 15 25.328125 15.199219 25.625 15.40625 C 25.308594 15.707031 24.863281 16 24.34375 16 C 23.988281 16 23.253906 15.835938 22.78125 15.71875 C 22.523438 14.710938 22.054688 13.734375 21.375 12.84375 C 23.777344 12.527344 25.570313 11.714844 26.8125 10.4375 C 28.4375 8.769531 29 6.464844 29 4 L 27 4 C 27 6.167969 26.519531 7.855469 25.375 9.03125 C 24.355469 10.078125 22.714844 10.820313 20.03125 10.96875 C 20.515625 10.675781 20.949219 10.339844 21.3125 9.9375 C 22.496094 8.628906 23 6.855469 23 5 L 21 5 C 21 6.496094 20.613281 7.738281 19.84375 8.59375 C 19.074219 9.449219 17.882813 10 16 10 C 14.117188 10 12.925781 9.449219 12.15625 8.59375 C 11.386719 7.738281 11 6.496094 11 5 L 9 5 C 9 6.855469 9.503906 8.628906 10.6875 9.9375 C 11.050781 10.339844 11.484375 10.675781 11.96875 10.96875 C 9.285156 10.820313 7.644531 10.078125 6.625 9.03125 C 5.480469 7.855469 5 6.167969 5 4 Z M 16 12 C 17.460938 12 18.691406 12.734375 19.59375 13.8125 C 20.496094 14.890625 21 16.3125 21 17.34375 C 21 18.859375 20.621094 19.882813 20.03125 21.25 C 19.507813 22.457031 18.851563 24.023438 18.28125 26.0625 C 18.1875 26.035156 18.101563 26 18 26 C 17.503906 26 17.109375 26.371094 17.03125 26.84375 C 16.730469 26.921875 16.402344 27 16 27 C 15.597656 27 15.269531 26.921875 14.96875 26.84375 C 14.890625 26.371094 14.496094 26 14 26 C 13.898438 26 13.8125 26.035156 13.71875 26.0625 C 13.148438 24.023438 12.492188 22.457031 11.96875 21.25 C 11.378906 19.882813 11 18.859375 11 17.34375 C 11 16.3125 11.503906 14.890625 12.40625 13.8125 C 13.308594 12.734375 14.539063 12 16 12 Z M 13 17 C 12.449219 17 12 17.449219 12 18 C 12 18.550781 12.449219 19 13 19 C 13.550781 19 14 18.550781 14 18 C 14 17.449219 13.550781 17 13 17 Z M 19 17 C 18.449219 17 18 17.449219 18 18 C 18 18.550781 18.449219 19 19 19 C 19.550781 19 20 18.550781 20 18 C 20 17.449219 19.550781 17 19 17 Z "></path>
</g>
</svg>
