<?xml version="1.0" encoding="UTF-8"?>
<svg xmlns="http://www.w3.org/2000/svg" xmlns:xlink="http://www.w3.org/1999/xlink" viewBox="0 0 32 32" version="1.1">
<g>
<path d="M 8 3.59375 L 7.28125 4.28125 L 5.28125 6.28125 L 5 6.59375 L 5 11 L 4 11 L 4 13 L 28 13 L 28 11 L 27 11 L 27 6.59375 L 26.71875 6.28125 L 24.71875 4.28125 L 24 3.59375 L 23.28125 4.28125 L 22 5.5625 L 20.71875 4.28125 L 20 3.59375 L 19.28125 4.28125 L 18 5.5625 L 16.71875 4.28125 L 16 3.59375 L 15.28125 4.28125 L 14 5.5625 L 12.71875 4.28125 L 12 3.59375 L 11.28125 4.28125 L 10 5.5625 L 8.71875 4.28125 Z M 8 6.4375 L 9 7.4375 L 9 11 L 7 11 L 7 7.4375 Z M 12 6.4375 L 13 7.4375 L 13 11 L 11 11 L 11 7.4375 Z M 16 6.4375 L 17 7.4375 L 17 11 L 15 11 L 15 7.4375 Z M 20 6.4375 L 21 7.4375 L 21 11 L 19 11 L 19 7.4375 Z M 24 6.4375 L 25 7.4375 L 25 11 L 23 11 L 23 7.4375 Z M 5 14 L 5 20 L 4 20 L 4 22 L 28 22 L 28 20 L 27 20 L 27 14 L 25 14 L 25 20 L 23 20 L 23 14 L 21 14 L 21 20 L 19 20 L 19 14 L 17 14 L 17 20 L 15 20 L 15 14 L 13 14 L 13 20 L 11 20 L 11 14 L 9 14 L 9 20 L 7 20 L 7 14 Z M 5 23 L 5 28 L 27 28 L 27 23 L 25 23 L 25 26 L 23 26 L 23 23 L 21 23 L 21 26 L 19 26 L 19 23 L 17 23 L 17 26 L 15 26 L 15 23 L 13 23 L 13 26 L 11 26 L 11 23 L 9 23 L 9 26 L 7 26 L 7 23 Z "></path>
</g>
</svg>
