<?xml version="1.0" encoding="UTF-8"?>
<svg xmlns="http://www.w3.org/2000/svg" xmlns:xlink="http://www.w3.org/1999/xlink" viewBox="0 0 32 32" version="1.1">
<g>
<path d="M 0 7 L 0 25 L 32 25 L 32 7 Z M 2 9 L 30 9 L 30 23 L 2 23 Z M 8 12 L 8 14 L 9 14 L 9 20 L 11 20 L 11 14 L 12 14 L 12 12 Z M 13 12 L 13 20 L 15 20 L 15 17 L 16 17 L 16 20 L 18 20 L 18 12 L 16 12 L 16 15 L 15 15 L 15 12 Z M 19 12 L 19 20 L 24 20 L 24 18 L 21 18 L 21 17 L 23 17 L 23 15 L 21 15 L 21 14 L 24 14 L 24 12 Z "></path>
</g>
</svg>
