<?xml version="1.0" encoding="UTF-8"?>
<svg xmlns="http://www.w3.org/2000/svg" xmlns:xlink="http://www.w3.org/1999/xlink" viewBox="0 0 32 32" version="1.1">
<g>
<path d="M 16 6 C 9.9375 6 5 10.9375 5 17 L 5 18 L 3 18 L 3 24 L 29 24 L 29 18 L 27 18 L 27 17 C 27 10.9375 22.0625 6 16 6 Z M 16 8 C 20.984375 8 25 12.015625 25 17 L 25 20 L 27 20 L 27 22 L 5 22 L 5 20 L 7 20 L 7 17 C 7 12.015625 11.015625 8 16 8 Z M 16 10 C 12.144531 10 9 13.144531 9 17 L 9 20 L 23 20 L 23 17 C 23 13.144531 19.855469 10 16 10 Z M 16 12 C 18.773438 12 21 14.226563 21 17 L 21 18 L 11 18 L 11 17 C 11 14.226563 13.226563 12 16 12 Z "></path>
</g>
</svg>
