<?xml version="1.0" encoding="UTF-8"?>
<svg xmlns="http://www.w3.org/2000/svg" xmlns:xlink="http://www.w3.org/1999/xlink" viewBox="0 0 32 32" version="1.1">
<g>
<path d="M 6 3 L 6 29 L 17.78125 29 C 19.25 30.828125 21.480469 32 24 32 C 28.40625 32 32 28.40625 32 24 C 32 20.289063 29.4375 17.179688 26 16.28125 L 26 3 Z M 8 5 L 24 5 L 24 16 C 22.039063 16 20.238281 16.730469 18.84375 17.90625 C 18.9375 17.617188 19 17.320313 19 17 C 19 15.707031 18.15625 14.605469 17 14.1875 L 17 12 L 15 12 L 15 14.1875 C 13.84375 14.605469 13 15.707031 13 17 C 13 18.644531 14.355469 20 16 20 C 16.460938 20 16.890625 19.875 17.28125 19.6875 C 16.480469 20.933594 16 22.414063 16 24 C 16 25.066406 16.210938 26.070313 16.59375 27 L 8 27 Z M 15 6 L 15 8 L 17 8 L 17 6 Z M 15 9 L 15 11 L 17 11 L 17 9 Z M 16 16 C 16.5625 16 17 16.4375 17 17 C 17 17.5625 16.5625 18 16 18 C 15.4375 18 15 17.5625 15 17 C 15 16.4375 15.4375 16 16 16 Z M 24 18 C 27.324219 18 30 20.675781 30 24 C 30 27.324219 27.324219 30 24 30 C 20.675781 30 18 27.324219 18 24 C 18 20.675781 20.675781 18 24 18 Z M 21.71875 20.28125 L 20.28125 21.71875 L 22.5625 24 L 20.28125 26.28125 L 21.71875 27.71875 L 24 25.4375 L 26.28125 27.71875 L 27.71875 26.28125 L 25.4375 24 L 27.71875 21.71875 L 26.28125 20.28125 L 24 22.5625 Z "></path>
</g>
</svg>
