<?xml version="1.0" encoding="UTF-8"?>
<svg xmlns="http://www.w3.org/2000/svg" xmlns:xlink="http://www.w3.org/1999/xlink" viewBox="0 0 32 32" version="1.1">
<g>
<path d="M 4 4 L 4 28 L 17.09375 28 C 18.484375 30.386719 21.054688 32 24 32 C 28.398438 32 32 28.398438 32 24 C 32 21.054688 30.386719 18.484375 28 17.09375 L 28 4 Z M 6 6 L 26 6 L 26 8 L 6 8 Z M 6 10 L 26 10 L 26 16.28125 C 25.355469 16.113281 24.695313 16 24 16 C 20.292969 16 17.179688 18.566406 16.28125 22 L 6 22 Z M 24 18 C 27.300781 18 30 20.699219 30 24 C 30 27.300781 27.300781 30 24 30 C 20.699219 30 18 27.300781 18 24 C 18 20.699219 20.699219 18 24 18 Z M 21.6875 20.3125 L 20.3125 21.6875 L 22.59375 24 L 20.3125 26.3125 L 21.6875 27.6875 L 24 25.40625 L 26.3125 27.6875 L 27.6875 26.3125 L 25.40625 24 L 27.6875 21.6875 L 26.3125 20.3125 L 24 22.59375 Z M 6 24 L 16 24 C 16 24.695313 16.113281 25.355469 16.28125 26 L 6 26 Z "></path>
</g>
</svg>
