<?xml version="1.0" encoding="UTF-8"?>
<svg xmlns="http://www.w3.org/2000/svg" xmlns:xlink="http://www.w3.org/1999/xlink" viewBox="0 0 32 32" version="1.1">
<g>
<path d="M 16 3 C 8.832031 3 3 8.832031 3 16 C 3 23.167969 8.832031 29 16 29 C 23.167969 29 29 23.167969 29 16 C 29 8.832031 23.167969 3 16 3 Z M 16 5 C 22.085938 5 27 9.914063 27 16 C 27 22.085938 22.085938 27 16 27 C 9.914063 27 5 22.085938 5 16 C 5 9.914063 9.914063 5 16 5 Z M 14.515625 12.785156 L 11.804688 14.917969 C 11.476563 14.09375 10.601563 13.324219 9.382813 13.324219 L 7.070313 13.324219 L 7.070313 18.484375 L 9.382813 18.484375 C 10.472656 18.484375 11.414063 17.832031 11.804688 16.890625 L 14.515625 19.023438 L 17.476563 16.691406 L 17.480469 18.484375 L 21.074219 18.484375 L 21.074219 16.972656 L 19.28125 16.972656 L 19.28125 13.324219 L 17.480469 13.324219 L 17.480469 15.113281 L 14.996094 17.066406 L 14.515625 16.691406 L 17 14.738281 L 15.996094 13.953125 L 13.515625 15.902344 L 13.035156 15.53125 L 15.519531 13.578125 Z M 21.550781 13.324219 L 21.550781 18.484375 L 25.144531 18.484375 L 25.144531 16.980469 L 23.355469 16.980469 L 23.355469 13.324219 Z M 8.804688 14.808594 L 9.203125 14.808594 C 9.859375 14.808594 10.324219 15.203125 10.324219 15.90625 C 10.324219 16.671875 9.800781 17.003906 9.195313 17.003906 L 8.804688 17.003906 Z "></path>
</g>
</svg>
