<?xml version="1.0" encoding="UTF-8"?>
<svg xmlns="http://www.w3.org/2000/svg" xmlns:xlink="http://www.w3.org/1999/xlink" viewBox="0 0 32 32" version="1.1">
<g>
<path d="M 16 3.90625 L 15.59375 4.09375 L 4.59375 9.09375 L 4 9.34375 L 4 28 L 15 28 L 15 22 L 17 22 L 17 28 L 28 28 L 28 9.34375 L 27.40625 9.09375 L 16.40625 4.09375 Z M 16 6.09375 L 26 10.625 L 26 26 L 19 26 L 19 20 L 13 20 L 13 26 L 6 26 L 6 10.625 Z M 8 12 L 8 14 L 12 14 L 12 12 Z M 14 12 L 14 14 L 18 14 L 18 12 Z M 20 12 L 20 14 L 24 14 L 24 12 Z M 8 16 L 8 18 L 12 18 L 12 16 Z M 14 16 L 14 18 L 18 18 L 18 16 Z M 20 16 L 20 18 L 24 18 L 24 16 Z M 8 20 L 8 22 L 12 22 L 12 20 Z M 20 20 L 20 22 L 24 22 L 24 20 Z "></path>
</g>
</svg>
