<?xml version="1.0" encoding="UTF-8"?>
<svg xmlns="http://www.w3.org/2000/svg" xmlns:xlink="http://www.w3.org/1999/xlink" viewBox="0 0 32 32" version="1.1">
<g>
<path d="M 8 4 L 8 19 L 26 19 L 26 4 Z M 10 6 L 24 6 L 24 17 L 10 17 Z M 15 7 L 15 9 L 19 9 L 19 7 Z M 8 20 C 5.789063 20 4 21.789063 4 24 C 4 26.210938 5.789063 28 8 28 L 28 28 L 28 26 L 8 26 C 6.808594 26 6 25.191406 6 24 C 6 22.808594 6.808594 22 8 22 L 28 22 L 28 20 Z M 8 23 C 7.449219 23 7 23.449219 7 24 C 7 24.550781 7.449219 25 8 25 C 8.550781 25 9 24.550781 9 24 C 9 23.449219 8.550781 23 8 23 Z M 12 23 C 11.449219 23 11 23.449219 11 24 C 11 24.550781 11.449219 25 12 25 C 12.550781 25 13 24.550781 13 24 C 13 23.449219 12.550781 23 12 23 Z M 16 23 C 15.449219 23 15 23.449219 15 24 C 15 24.550781 15.449219 25 16 25 C 16.550781 25 17 24.550781 17 24 C 17 23.449219 16.550781 23 16 23 Z M 20 23 C 19.449219 23 19 23.449219 19 24 C 19 24.550781 19.449219 25 20 25 C 20.550781 25 21 24.550781 21 24 C 21 23.449219 20.550781 23 20 23 Z M 24 23 C 23.449219 23 23 23.449219 23 24 C 23 24.550781 23.449219 25 24 25 C 24.550781 25 25 24.550781 25 24 C 25 23.449219 24.550781 23 24 23 Z M 28 23 C 27.398438 23 27 23.398438 27 24 C 27 24.601563 27.398438 25 28 25 Z "></path>
</g>
</svg>
