<?xml version="1.0" encoding="UTF-8"?>
<svg xmlns="http://www.w3.org/2000/svg" xmlns:xlink="http://www.w3.org/1999/xlink" viewBox="0 0 32 32" version="1.1">
<g>
<path d="M 16 4 C 13.238281 4 11 6.238281 11 9 C 11 11.761719 13.238281 14 16 14 C 18.761719 14 21 11.761719 21 9 C 21 6.238281 18.761719 4 16 4 Z M 14.90625 6.46875 L 17.4375 6.46875 L 17.4375 7.3125 L 15.71875 7.3125 L 15.65625 8.28125 C 15.828125 8.269531 15.96875 8.25 16.09375 8.25 C 17.398438 8.25 17.65625 9.25 17.65625 9.6875 C 17.65625 10.378906 17.285156 11.34375 15.8125 11.34375 C 15.351563 11.34375 14.96875 11.261719 14.65625 11.125 L 14.65625 10.21875 C 14.984375 10.417969 15.316406 10.53125 15.6875 10.53125 C 16.375 10.53125 16.59375 10.007813 16.59375 9.78125 C 16.59375 9.304688 16.265625 9.0625 15.59375 9.0625 C 15.347656 9.0625 15.042969 9.085938 14.71875 9.125 Z M 4 12 L 4 28 L 28 28 L 28 12 L 26 12 L 26 26 L 6 26 L 6 12 Z M 14.96875 15 L 14.96875 20 L 12.46875 20 L 15.9375 24 L 19.46875 20 L 16.96875 20 L 16.96875 15 Z "></path>
</g>
</svg>
