<?xml version="1.0" encoding="UTF-8"?>
<svg xmlns="http://www.w3.org/2000/svg" xmlns:xlink="http://www.w3.org/1999/xlink" viewBox="0 0 32 32" version="1.1">
<g>
<path d="M 9.5 6 L 9 8 L 23 8 L 22.5 6 Z M 9 9 C 8.449219 9 8 9.449219 8 10 C 8 10.550781 8.449219 11 9 11 C 9.550781 11 10 10.550781 10 10 C 10 9.449219 9.550781 9 9 9 Z M 16 9 L 13.5 11 L 15 11 L 15 19 L 11.5 19 L 16 23 L 20.5 19 L 17 19 L 17 11 L 18.5 11 Z M 23 9 C 22.449219 9 22 9.449219 22 10 C 22 10.550781 22.449219 11 23 11 C 23.550781 11 24 10.550781 24 10 C 24 9.449219 23.550781 9 23 9 Z M 8 13 C 7.449219 13 7 13.449219 7 14 C 7 14.550781 7.449219 15 8 15 C 8.550781 15 9 14.550781 9 14 C 9 13.449219 8.550781 13 8 13 Z M 24 13 C 23.449219 13 23 13.449219 23 14 C 23 14.550781 23.449219 15 24 15 C 24.550781 15 25 14.550781 25 14 C 25 13.449219 24.550781 13 24 13 Z M 7 17 C 6.449219 17 6 17.449219 6 18 C 6 18.550781 6.449219 19 7 19 C 7.550781 19 8 18.550781 8 18 C 8 17.449219 7.550781 17 7 17 Z M 25 17 C 24.449219 17 24 17.449219 24 18 C 24 18.550781 24.449219 19 25 19 C 25.550781 19 26 18.550781 26 18 C 26 17.449219 25.550781 17 25 17 Z M 6 21 C 5.449219 21 5 21.449219 5 22 C 5 22.550781 5.449219 23 6 23 C 6.550781 23 7 22.550781 7 22 C 7 21.449219 6.550781 21 6 21 Z M 26 21 C 25.449219 21 25 21.449219 25 22 C 25 22.550781 25.449219 23 26 23 C 26.550781 23 27 22.550781 27 22 C 27 21.449219 26.550781 21 26 21 Z M 4.5 24 L 4 26 L 28 26 L 27.5 24 Z "></path>
</g>
</svg>
