<?xml version="1.0" encoding="UTF-8"?>
<svg xmlns="http://www.w3.org/2000/svg" xmlns:xlink="http://www.w3.org/1999/xlink" viewBox="0 0 32 32" version="1.1">
<g>
<path d="M 19 4 L 19 6 L 15.5 6 C 15.132813 5.582031 14.601563 5.3125 14 5.3125 C 12.894531 5.3125 12 6.207031 12 7.3125 C 12 7.484375 12.019531 7.652344 12.0625 7.8125 L 7.84375 13.15625 C 7.570313 13.074219 7.296875 13 7 13 C 5.355469 13 4 14.355469 4 16 C 4 17.644531 5.355469 19 7 19 C 7.320313 19 7.617188 18.9375 7.90625 18.84375 L 12.0625 23 L 12 23 C 9.789063 23 8 24.789063 8 27 L 8 28 L 20 28 L 20 27 C 20 24.789063 18.210938 23 16 23 L 14.9375 23 L 9.53125 17.59375 C 9.824219 17.132813 10 16.582031 10 16 C 10 15.367188 9.808594 14.765625 9.46875 14.28125 L 13.46875 9.25 C 13.636719 9.296875 13.816406 9.3125 14 9.3125 C 14.863281 9.3125 15.59375 8.765625 15.875 8 L 19 8 L 19 8.8125 C 17.207031 9.847656 16 11.773438 16 14 L 16 15 L 28 15 L 28 14 C 28 11.773438 26.792969 9.847656 25 8.8125 L 25 4 Z M 21 6 L 23 6 L 23 8.09375 C 22.675781 8.039063 22.339844 8 22 8 C 21.660156 8 21.324219 8.039063 21 8.09375 Z M 22 10 C 23.917969 10 25.382813 11.25 25.8125 13 L 18.1875 13 C 18.617188 11.25 20.082031 10 22 10 Z M 7 15 C 7.5625 15 8 15.4375 8 16 C 8 16.5625 7.5625 17 7 17 C 6.4375 17 6 16.5625 6 16 C 6 15.4375 6.4375 15 7 15 Z M 12 25 L 16 25 C 16.773438 25 17.257813 25.433594 17.59375 26 L 10.40625 26 C 10.742188 25.433594 11.226563 25 12 25 Z "></path>
</g>
</svg>
