<?xml version="1.0" encoding="UTF-8"?>
<svg xmlns="http://www.w3.org/2000/svg" xmlns:xlink="http://www.w3.org/1999/xlink" viewBox="0 0 32 32" version="1.1">
<g>
<path d="M 11.1875 2 C 11.058594 2.007813 10.9375 2.03125 10.839844 2.0625 C 10.4375 2.183594 10.214844 2.386719 9.984375 2.609375 C 9.523438 3.0625 9.105469 3.691406 8.753906 4.472656 C 8.191406 5.71875 7.835938 7.390625 8.296875 9.046875 C 7.765625 9.164063 7.21875 9.300781 6.699219 9.46875 C 6.105469 9.65625 5.550781 9.871094 5.066406 10.195313 C 4.582031 10.515625 4.070313 11.042969 4.054688 11.808594 C 4.035156 12.453125 4.40625 12.894531 4.71875 13.167969 C 4.867188 13.300781 5.027344 13.363281 5.179688 13.460938 C 5 13.605469 4.8125 13.734375 4.648438 13.921875 C 4.359375 14.238281 4.046875 14.640625 4.046875 15.269531 C 4.046875 15.78125 4.28125 16.183594 4.515625 16.457031 C 4.617188 16.582031 4.726563 16.640625 4.835938 16.734375 C 4.578125 16.953125 4.3125 17.089844 4.078125 17.359375 C 3.492188 18.042969 3 18.941406 3 20 C 3 20.496094 3.140625 20.964844 3.402344 21.296875 C 3.664063 21.625 3.988281 21.765625 4.03125 21.789063 C 4.394531 21.984375 4.507813 21.9375 4.664063 21.925781 C 4.511719 22.382813 4.347656 22.855469 4.289063 23.304688 C 4.144531 24.394531 4.164063 25.164063 4.480469 25.832031 C 4.796875 26.5 5.601563 26.886719 6.175781 26.859375 C 6.65625 26.839844 6.96875 26.664063 7.257813 26.515625 C 9.535156 28.609375 12.996094 30 16.015625 30 C 19.144531 30 22.710938 28.753906 24.949219 26.441406 C 25.242188 26.59375 25.511719 26.765625 25.890625 26.847656 L 26.304688 26.9375 L 26.65625 26.699219 C 27.210938 26.328125 27.351563 25.871094 27.496094 25.394531 C 27.636719 24.917969 27.722656 24.382813 27.75 23.8125 C 27.789063 23.078125 27.699219 22.304688 27.519531 21.546875 C 27.605469 21.523438 27.675781 21.539063 27.765625 21.503906 C 28.03125 21.40625 28.316406 21.265625 28.574219 20.988281 C 28.832031 20.714844 29.015625 20.269531 29 19.851563 L 29 19.847656 C 28.953125 18.554688 28.335938 17.445313 27.78125 16.613281 C 27.71875 16.519531 27.71875 16.542969 27.65625 16.453125 C 27.75 16.40625 27.835938 16.394531 27.933594 16.332031 C 28.230469 16.136719 28.621094 15.765625 28.675781 15.1875 C 28.746094 14.402344 28.417969 14.128906 28.132813 13.730469 C 27.847656 13.332031 27.472656 12.914063 27.046875 12.476563 C 26.242188 11.648438 25.246094 10.789063 24.324219 10.113281 C 24.710938 8.878906 24.734375 7.652344 24.582031 6.601563 C 24.390625 5.273438 23.964844 4.222656 23.5625 3.5625 C 23.457031 3.394531 23.269531 3.183594 22.992188 3.074219 C 22.714844 2.964844 22.410156 2.988281 22.207031 3.050781 C 21.804688 3.179688 21.660156 3.363281 21.503906 3.53125 C 21.191406 3.859375 20.9375 4.246094 20.628906 4.6875 C 20.210938 5.292969 19.71875 5.972656 19.222656 6.523438 C 18.945313 6.332031 18.597656 6.167969 18.125 6.117188 C 17.613281 6.019531 16.960938 6.128906 16.636719 6.488281 C 16.382813 6.769531 16.351563 7.03125 16.292969 7.296875 C 15.910156 7.121094 15.480469 6.957031 15 6.835938 C 14.285156 5.878906 13.117188 4.238281 12.300781 2.65625 C 12.183594 2.421875 11.921875 2.167969 11.621094 2.0625 C 11.46875 2.011719 11.320313 1.996094 11.1875 2 Z M 11.105469 4.472656 C 11.570313 5.265625 12.058594 6.042969 12.515625 6.742188 C 12.042969 6.855469 11.605469 7.070313 11.28125 7.445313 C 10.898438 7.890625 10.898438 8.265625 10.882813 8.570313 L 10.265625 8.664063 C 9.898438 7.523438 10.132813 6.277344 10.578125 5.296875 C 10.75 4.914063 10.925781 4.714844 11.105469 4.472656 Z M 22.261719 5.84375 C 22.390625 6.222656 22.535156 6.414063 22.601563 6.882813 C 22.738281 7.851563 22.675781 8.9375 22.234375 9.976563 C 22.203125 9.992188 22.167969 10.003906 22.140625 10.015625 C 21.707031 9.363281 21.230469 8.609375 20.671875 7.921875 C 21.3125 7.222656 21.835938 6.457031 22.261719 5.84375 Z M 18.128906 8.1875 C 18.324219 8.335938 18.558594 8.554688 18.734375 8.742188 C 19.488281 9.523438 20.589844 11.230469 21.136719 12.027344 L 22.144531 13.492188 L 22.875 11.871094 C 22.953125 11.691406 23.015625 11.714844 23.179688 11.765625 C 23.984375 12.359375 24.910156 13.148438 25.621094 13.875 C 25.964844 14.226563 26.234375 14.546875 26.425781 14.804688 C 26.152344 14.871094 25.855469 14.921875 25.855469 14.921875 L 23.808594 15.132813 L 25.238281 16.609375 C 25.238281 16.609375 25.671875 17.058594 26.121094 17.730469 C 26.515625 18.320313 26.792969 19.046875 26.890625 19.65625 C 26.703125 19.703125 26.460938 19.75 26.1875 19.765625 L 24.640625 19.847656 L 25.351563 21.21875 C 25.644531 21.785156 25.800781 22.824219 25.753906 23.703125 C 25.734375 24.046875 25.675781 24.320313 25.617188 24.574219 C 25.464844 24.496094 25.425781 24.492188 25.199219 24.378906 L 24.476563 24.019531 L 23.972656 24.652344 C 22.398438 26.621094 18.800781 28 16.015625 28 C 13.453125 28 9.808594 26.46875 8.109375 24.632813 L 7.476563 23.953125 L 6.75 24.53125 C 6.75 24.53125 6.648438 24.613281 6.480469 24.707031 C 6.398438 24.753906 6.359375 24.753906 6.285156 24.78125 C 6.25 24.640625 6.167969 24.34375 6.273438 23.570313 C 6.296875 23.371094 6.484375 22.714844 6.65625 22.199219 C 6.832031 21.679688 6.996094 21.25 6.996094 21.25 L 7.585938 19.71875 L 5.949219 19.902344 C 5.949219 19.902344 5.644531 19.933594 5.320313 19.953125 C 5.207031 19.960938 5.113281 19.960938 5.015625 19.960938 C 5.03125 19.535156 5.21875 19.101563 5.597656 18.660156 C 5.988281 18.207031 6.539063 17.785156 7.042969 17.480469 L 8.777344 16.421875 L 6.882813 15.691406 C 6.882813 15.691406 6.59375 15.578125 6.332031 15.40625 C 6.246094 15.347656 6.195313 15.300781 6.140625 15.25 C 6.265625 15.113281 6.480469 14.933594 6.710938 14.773438 C 7.179688 14.445313 7.671875 14.199219 7.671875 14.199219 L 9.972656 13.050781 L 7.5 12.34375 C 7.5 12.34375 7.011719 12.195313 6.558594 11.980469 C 6.441406 11.921875 6.378906 11.871094 6.285156 11.8125 C 6.515625 11.675781 6.859375 11.515625 7.304688 11.375 C 8.292969 11.058594 9.578125 10.820313 10.515625 10.644531 C 10.523438 10.644531 10.527344 10.644531 10.53125 10.640625 L 11.542969 10.488281 C 11.742188 10.464844 11.941406 10.445313 12.125 10.425781 L 13.828125 10.277344 L 12.859375 8.867188 C 12.777344 8.746094 12.785156 8.742188 12.792969 8.757813 C 12.816406 8.726563 12.925781 8.632813 13.355469 8.632813 C 14.863281 8.621094 16.144531 9.433594 16.550781 9.734375 L 18.441406 11.109375 L 18.136719 8.789063 C 18.128906 8.757813 18.128906 8.445313 18.128906 8.1875 Z M 16 13.21875 C 12.792969 13.21875 10.109375 15.703125 10.109375 18.820313 C 10.109375 21.9375 12.792969 24.421875 16 24.421875 C 19.207031 24.421875 21.890625 21.9375 21.890625 18.820313 C 21.890625 15.703125 19.207031 13.21875 16 13.21875 Z M 16 15.21875 C 18.191406 15.21875 19.890625 16.851563 19.890625 18.820313 C 19.890625 20.789063 18.191406 22.421875 16 22.421875 C 13.808594 22.421875 12.109375 20.789063 12.109375 18.820313 C 12.109375 16.851563 13.808594 15.21875 16 15.21875 Z M 16 17 C 15.558594 17 15.15625 17.171875 14.835938 17.445313 C 15.488281 17.503906 16 17.941406 16 18.484375 C 16 19.074219 15.414063 19.546875 14.691406 19.546875 C 14.496094 19.546875 14.308594 19.507813 14.140625 19.441406 C 14.3125 20.390625 15.078125 21.109375 16 21.109375 C 17.046875 21.109375 17.894531 20.191406 17.894531 19.054688 C 17.894531 17.917969 17.046875 17 16 17 Z "></path>
</g>
</svg>
