<?xml version="1.0" encoding="UTF-8"?>
<svg xmlns="http://www.w3.org/2000/svg" xmlns:xlink="http://www.w3.org/1999/xlink" viewBox="0 0 32 32" version="1.1">
<g>
<path d="M 14 3 C 11.964844 3 9.472656 3.429688 7.445313 5.085938 C 5.417969 6.742188 4 9.605469 4 14 C 4 16.839844 5.160156 18.730469 6.1875 20.171875 C 7.210938 21.617188 8 22.582031 8 24 L 8 28 L 10 28 L 10 24 C 10 21.835938 8.789063 20.382813 7.816406 19.015625 C 6.84375 17.644531 6 16.324219 6 14 C 6 10.019531 7.1875 7.882813 8.710938 6.632813 C 10.238281 5.382813 12.25 5 14 5 C 17.839844 5 20.019531 6.035156 21.296875 7.363281 C 22.570313 8.691406 23 10.414063 23 12 L 23 12.300781 L 25.953125 16.726563 C 26.066406 16.894531 26.007813 17.0625 25.816406 17.121094 L 23 18.015625 L 23 21 C 23 21.652344 22.636719 22.441406 22.042969 23.035156 C 21.449219 23.632813 20.664063 24 20 24 L 18 24 L 18 28 L 20 28 L 20 26 C 21.339844 26 22.554688 25.359375 23.457031 24.449219 C 24.363281 23.539063 25 22.324219 25 21 L 25 19.480469 L 26.421875 19.027344 C 27.832031 18.578125 28.441406 16.847656 27.621094 15.617188 L 24.9375 11.605469 C 24.871094 9.738281 24.34375 7.652344 22.738281 5.976563 C 21.023438 4.191406 18.207031 3 14 3 Z M 15 10 L 13 18 L 15 18 L 17 10 Z M 11.042969 10.917969 L 7.960938 14 L 11.042969 17.082031 L 12.457031 15.667969 L 10.789063 14 L 12.457031 12.332031 Z M 18.957031 10.917969 L 17.542969 12.332031 L 19.210938 14 L 17.542969 15.667969 L 18.957031 17.082031 L 22.039063 14 Z "></path>
</g>
</svg>
