<?xml version="1.0" encoding="UTF-8"?>
<svg xmlns="http://www.w3.org/2000/svg" xmlns:xlink="http://www.w3.org/1999/xlink" viewBox="0 0 32 32" version="1.1">
<g>
<path d="M 18 5 L 18 14 L 20 14 L 20 7 L 26 7 L 26 25 L 23 25 L 23 27 L 28 27 L 28 5 Z M 23 9 C 22.449219 9 22 9.449219 22 10 C 22 10.550781 22.449219 11 23 11 C 23.550781 11 24 10.550781 24 10 C 24 9.449219 23.550781 9 23 9 Z M 12 12 C 10.90625 12 10 12.90625 10 14 L 10 15 L 7 15 C 5.355469 15 4 16.355469 4 18 L 4 27 L 22 27 L 22 18 C 22 16.355469 20.644531 15 19 15 L 16 15 L 16 14 C 16 12.90625 15.09375 12 14 12 Z M 12 14 L 14 14 L 14 15 L 12 15 Z M 7 17 L 19 17 C 19.566406 17 20 17.433594 20 18 L 20 19 L 6 19 L 6 18 C 6 17.433594 6.433594 17 7 17 Z M 6 21 L 8 21 L 8 22 L 10 22 L 10 21 L 16 21 L 16 22 L 18 22 L 18 21 L 20 21 L 20 25 L 6 25 Z "></path>
</g>
</svg>
