<?xml version="1.0" encoding="UTF-8"?>
<svg xmlns="http://www.w3.org/2000/svg" xmlns:xlink="http://www.w3.org/1999/xlink" viewBox="0 0 32 32" version="1.1">
<g>
<path d="M 9.5 4 C 6.472656 4 4 6.472656 4 9.5 C 4 12.527344 6.472656 15 9.5 15 C 12.527344 15 15 12.527344 15 9.5 C 15 6.472656 12.527344 4 9.5 4 Z M 18 4 L 18 14 L 28 14 L 28 4 Z M 9.5 6 C 11.445313 6 13 7.554688 13 9.5 C 13 11.445313 11.445313 13 9.5 13 C 7.554688 13 6 11.445313 6 9.5 C 6 7.554688 7.554688 6 9.5 6 Z M 20 6 L 26 6 L 26 12 L 20 12 Z M 9.5 17 C 6.472656 17 4 19.472656 4 22.5 C 4 25.527344 6.472656 28 9.5 28 C 12.527344 28 15 25.527344 15 22.5 C 15 19.472656 12.527344 17 9.5 17 Z M 22.5 17 C 19.472656 17 17 19.472656 17 22.5 C 17 25.527344 19.472656 28 22.5 28 C 25.527344 28 28 25.527344 28 22.5 C 28 19.472656 25.527344 17 22.5 17 Z M 9.5 19 C 11.445313 19 13 20.554688 13 22.5 C 13 24.445313 11.445313 26 9.5 26 C 7.554688 26 6 24.445313 6 22.5 C 6 20.554688 7.554688 19 9.5 19 Z M 22.5 19 C 24.445313 19 26 20.554688 26 22.5 C 26 24.445313 24.445313 26 22.5 26 C 20.554688 26 19 24.445313 19 22.5 C 19 20.554688 20.554688 19 22.5 19 Z "></path>
</g>
</svg>
