<?xml version="1.0" encoding="UTF-8"?>
<svg xmlns="http://www.w3.org/2000/svg" xmlns:xlink="http://www.w3.org/1999/xlink" viewBox="0 0 32 32" version="1.1">
<g>
<path d="M 8 5 L 8 16 C 6.261719 17.050781 5 18.828125 5 21 C 5 24.300781 7.699219 27 11 27 C 14.300781 27 17 24.300781 17 21 C 17 18.828125 15.738281 17.050781 14 16 L 14 15 L 16 15 L 16 13 L 14 13 L 14 11 L 16 11 L 16 9 L 14 9 L 14 7 L 16 7 L 16 5 Z M 10 7 L 12 7 L 12 17.0625 L 12.59375 17.34375 C 14.003906 17.960938 15 19.351563 15 21 C 15 23.21875 13.21875 25 11 25 C 8.78125 25 7 23.21875 7 21 C 7 19.351563 7.996094 17.960938 9.40625 17.34375 L 10 17.0625 Z M 26 7 C 26 7 24 9.894531 24 11 C 24 12.105469 24.894531 13 26 13 C 27.105469 13 28 12.105469 28 11 C 28 9.894531 26 7 26 7 Z M 22 13 C 22 13 20 15.894531 20 17 C 20 18.105469 20.894531 19 22 19 C 23.105469 19 24 18.105469 24 17 C 24 15.894531 22 13 22 13 Z M 26 19 C 26 19 24 21.894531 24 23 C 24 24.105469 24.894531 25 26 25 C 27.105469 25 28 24.105469 28 23 C 28 21.894531 26 19 26 19 Z "></path>
</g>
</svg>
