<?xml version="1.0" encoding="UTF-8"?>
<svg xmlns="http://www.w3.org/2000/svg" xmlns:xlink="http://www.w3.org/1999/xlink" viewBox="0 0 32 32" version="1.1">
<g>
<path d="M 16 4 C 12.710938 4 10.261719 4.808594 8.84375 5.4375 C 7.703125 5.941406 6.996094 7.121094 7.0625 8.34375 L 7.90625 23.15625 C 7.996094 24.738281 9.324219 26 10.90625 26 L 15 26 L 15 28 L 17 28 L 17 26 L 21.09375 26 C 22.675781 26 24.003906 24.738281 24.09375 23.15625 L 24.9375 8.34375 C 25.007813 7.117188 24.292969 5.945313 23.15625 5.4375 C 21.738281 4.808594 19.289063 4 16 4 Z M 16 6 C 18.964844 6 21.128906 6.742188 22.34375 7.28125 C 22.710938 7.445313 22.960938 7.800781 22.9375 8.21875 L 22.375 18 L 9.625 18 L 9.0625 8.21875 C 9.039063 7.800781 9.257813 7.445313 9.625 7.28125 L 9.65625 7.28125 C 10.871094 6.742188 13.035156 6 16 6 Z M 16 8.25 L 15.1875 9.4375 C 15.1875 9.4375 14.648438 10.191406 14.125 11.09375 C 13.863281 11.542969 13.617188 12.019531 13.40625 12.5 C 13.195313 12.980469 13 13.421875 13 14 C 13 15.644531 14.355469 17 16 17 C 17.644531 17 19 15.644531 19 14 C 19 13.421875 18.804688 12.980469 18.59375 12.5 C 18.382813 12.019531 18.136719 11.542969 17.875 11.09375 C 17.351563 10.191406 16.8125 9.4375 16.8125 9.4375 Z M 16 11.875 C 16.066406 11.984375 16.058594 11.976563 16.125 12.09375 C 16.363281 12.503906 16.617188 12.941406 16.78125 13.3125 C 16.945313 13.683594 17 14.027344 17 14 C 17 14.566406 16.566406 15 16 15 C 15.433594 15 15 14.566406 15 14 C 15 14.027344 15.054688 13.683594 15.21875 13.3125 C 15.382813 12.941406 15.636719 12.503906 15.875 12.09375 C 15.941406 11.976563 15.933594 11.984375 16 11.875 Z M 9.71875 20 L 22.28125 20 L 22.09375 23.0625 C 22.0625 23.601563 21.632813 24 21.09375 24 L 10.90625 24 C 10.367188 24 9.9375 23.601563 9.90625 23.0625 Z M 11.78125 21 L 11.875 23 L 15 23 L 15 21 Z M 17 21 L 17 23 L 20.125 23 L 20.21875 21 Z "></path>
</g>
</svg>
