<?xml version="1.0" encoding="UTF-8"?>
<svg xmlns="http://www.w3.org/2000/svg" xmlns:xlink="http://www.w3.org/1999/xlink" viewBox="0 0 32 32" version="1.1">
<g>
<path d="M 13.6875 3 L 13.375 3.28125 L 6.59375 10 L 3 10 L 3 23 L 6.75 23 L 10.75 25 L 16.90625 25 C 18.289063 25 19.492188 24.035156 19.8125 22.6875 L 21.40625 16 L 26 16 C 27.808594 16 29.265625 14.335938 28.96875 12.5 C 28.722656 10.988281 27.359375 10 25.90625 10 L 15.25 10 L 15.4375 9.25 C 15.640625 9.09375 15.769531 9.027344 16.0625 8.625 C 16.53125 7.984375 17 6.992188 17 5.65625 C 17 4.230469 15.710938 3 14.09375 3 Z M 14.40625 5.09375 C 14.828125 5.175781 15 5.347656 15 5.65625 C 15 6.558594 14.726563 7.117188 14.46875 7.46875 C 14.210938 7.820313 14.03125 7.90625 14.03125 7.90625 L 13.6875 8.09375 L 13.5625 8.5 L 12.96875 10.75 L 12.65625 12 L 25.90625 12 C 26.445313 12 26.925781 12.359375 27 12.8125 C 27.109375 13.484375 26.621094 14 26 14 L 19.8125 14 L 19.65625 14.78125 L 17.875 22.21875 C 17.765625 22.675781 17.375 23 16.90625 23 L 11.25 23 L 7.25 21 L 5 21 L 5 12 L 7.40625 12 L 7.6875 11.71875 Z M 26 18.8125 L 25.125 20.53125 C 25.125 20.53125 24.605469 21.546875 24.09375 22.6875 C 23.835938 23.257813 23.578125 23.847656 23.375 24.40625 C 23.171875 24.964844 23 25.421875 23 26 C 23 27.644531 24.355469 29 26 29 C 27.644531 29 29 27.644531 29 26 C 29 25.421875 28.828125 24.964844 28.625 24.40625 C 28.421875 23.847656 28.164063 23.257813 27.90625 22.6875 C 27.394531 21.546875 26.875 20.53125 26.875 20.53125 Z M 26 23.3125 C 26.046875 23.410156 26.046875 23.398438 26.09375 23.5 C 26.335938 24.042969 26.578125 24.613281 26.75 25.09375 C 26.921875 25.574219 27 26.027344 27 26 C 27 26.566406 26.566406 27 26 27 C 25.433594 27 25 26.566406 25 26 C 25 26.027344 25.078125 25.574219 25.25 25.09375 C 25.421875 24.613281 25.664063 24.042969 25.90625 23.5 C 25.953125 23.398438 25.953125 23.410156 26 23.3125 Z "></path>
</g>
</svg>
