<?xml version="1.0" encoding="UTF-8"?>
<svg xmlns="http://www.w3.org/2000/svg" xmlns:xlink="http://www.w3.org/1999/xlink" viewBox="0 0 32 32" version="1.1">
<g>
<path d="M 5 5 L 5 15 L 8.75 15 C 8.269531 14.285156 8 13.425781 8 12.5 C 8 10.019531 10.019531 8 12.5 8 C 13.425781 8 14.285156 8.269531 15 8.75 L 15 5 Z M 17 5 L 17 8.75 C 17.714844 8.269531 18.574219 8 19.5 8 C 21.980469 8 24 10.019531 24 12.5 C 24 13.425781 23.730469 14.285156 23.25 15 L 27 15 L 27 5 Z M 12.5 10 C 11.121094 10 10 11.121094 10 12.5 C 10 13.878906 11.121094 15 12.5 15 C 13.878906 15 15 13.878906 15 12.5 C 15 11.121094 13.878906 10 12.5 10 Z M 19.5 10 C 18.121094 10 17 11.121094 17 12.5 C 17 13.878906 18.121094 15 19.5 15 C 20.878906 15 22 13.878906 22 12.5 C 22 11.121094 20.878906 10 19.5 10 Z M 5 17 L 5 27 L 15 27 L 15 17 Z M 17 17 L 17 27 L 27 27 L 27 17 Z "></path>
</g>
</svg>
