<?xml version="1.0" encoding="UTF-8"?>
<svg xmlns="http://www.w3.org/2000/svg" xmlns:xlink="http://www.w3.org/1999/xlink" viewBox="0 0 32 32" version="1.1">
<g>
<path d="M 10 4 C 8.355469 4 7 5.355469 7 7 L 7 22 L 6 22 L 6 16 L 4 16 L 4 22 C 4 23.09375 4.90625 24 6 24 L 26 24 C 27.09375 24 28 23.09375 28 22 L 28 16 L 26 16 L 26 22 L 25 22 L 25 7 C 25 5.355469 23.644531 4 22 4 Z M 10 6 L 22 6 C 22.566406 6 23 6.433594 23 7 L 23 11 C 23 11.566406 22.566406 12 22 12 L 10 12 C 9.433594 12 9 11.566406 9 11 L 9 7 C 9 6.433594 9.433594 6 10 6 Z M 9 13.8125 C 9.316406 13.925781 9.648438 14 10 14 L 22 14 C 22.351563 14 22.683594 13.925781 23 13.8125 L 23 22 L 9 22 Z M 16 15 C 16 15 14 17.894531 14 19 C 14 20.105469 14.894531 21 16 21 C 17.105469 21 18 20.105469 18 19 C 18 17.894531 16 15 16 15 Z M 7 25 C 7 26.644531 8.355469 28 10 28 L 22 28 C 23.644531 28 25 26.644531 25 25 L 23 25 C 23 25.566406 22.566406 26 22 26 L 10 26 C 9.433594 26 9 25.566406 9 25 Z "></path>
</g>
</svg>
