<?xml version="1.0" encoding="UTF-8"?>
<svg xmlns="http://www.w3.org/2000/svg" xmlns:xlink="http://www.w3.org/1999/xlink" viewBox="0 0 32 32" version="1.1">
<g>
<path d="M 14.40625 4 L 12.25 5.65625 L 14.28125 8.1875 C 9.589844 9.011719 6 13.078125 6 18 C 6 23.511719 10.488281 28 16 28 C 21.511719 28 26 23.511719 26 18 C 26 13.078125 22.410156 9.011719 17.71875 8.1875 L 19.75 5.65625 L 17.59375 4 Z M 16 10 C 20.429688 10 24 13.570313 24 18 C 24 22.429688 20.429688 26 16 26 C 11.570313 26 8 22.429688 8 18 C 8 13.570313 11.570313 10 16 10 Z "></path>
</g>
</svg>
