<?xml version="1.0" encoding="UTF-8"?>
<svg xmlns="http://www.w3.org/2000/svg" xmlns:xlink="http://www.w3.org/1999/xlink" viewBox="0 0 32 32" version="1.1">
<g>
<path d="M 17 4 C 15.894531 4 15 4.894531 15 6 C 15 7.105469 15.894531 8 17 8 C 18.105469 8 19 7.105469 19 6 C 19 4.894531 18.105469 4 17 4 Z M 13.4375 7.09375 L 12.5625 8.90625 L 14.75 10 L 12.5625 11.09375 L 13.4375 12.90625 L 17 11.125 L 20.5625 12.90625 L 21.4375 11.09375 L 19.25 10 L 21.4375 8.90625 L 20.5625 7.09375 L 17 8.875 Z M 6.5 11 C 5.117188 11 4 12.117188 4 13.5 L 4 28 L 9 28 L 9 26 L 23 26 L 23 28 L 28 28 L 28 17 C 28 15.355469 26.644531 14 25 14 L 13 14 L 13 14.5625 C 12.40625 14.214844 11.734375 14 11 14 C 10.265625 14 9.59375 14.214844 9 14.5625 L 9 13.5 C 9 12.117188 7.882813 11 6.5 11 Z M 6.5 13 C 6.714844 13 7 13.285156 7 13.5 L 7 22 L 26 22 L 26 26 L 25 26 L 25 24 L 7 24 L 7 26 L 6 26 L 6 13.5 C 6 13.285156 6.285156 13 6.5 13 Z M 11 16 C 12.117188 16 13 16.882813 13 18 C 13 19.117188 12.117188 20 11 20 C 9.882813 20 9 19.117188 9 18 C 9 16.882813 9.882813 16 11 16 Z M 15 16 L 25 16 C 25.554688 16 26 16.445313 26 17 L 26 20 L 15 20 Z "></path>
</g>
</svg>
