<?xml version="1.0" encoding="UTF-8"?>
<svg xmlns="http://www.w3.org/2000/svg" xmlns:xlink="http://www.w3.org/1999/xlink" viewBox="0 0 32 32" version="1.1">
<g>
<path d="M 23 4 C 21.917969 4 21.015625 4.890625 21 5.96875 C 21 5.980469 21 5.988281 21 6 L 16.34375 8.625 L 15.6875 7.84375 C 15.679688 7.835938 15.664063 7.851563 15.65625 7.84375 C 15.25 7.335938 14.65625 7 14 7 L 10.625 7 C 9.742188 7 9.011719 7.742188 9 8.625 L 9 12 L 6 12 C 4.90625 12 4 12.90625 4 14 L 4 17 C 4 18.09375 4.90625 19 6 19 L 7 19 L 7 20 L 6 20 C 3.800781 20 2 21.800781 2 24 C 2 26.199219 3.800781 28 6 28 L 18 28 C 20.199219 28 22 26.199219 22 24 C 22 21.800781 20.199219 20 18 20 L 16 20 L 16 19 L 18 19 C 19.09375 19 20 18.09375 20 17 L 20 13.96875 C 20 13.359375 19.8125 12.761719 19.4375 12.28125 L 19.40625 12.28125 L 17.65625 10.21875 L 22 7.71875 C 22.292969 7.890625 22.640625 8 23 8 C 24.09375 8 25 7.09375 25 6 C 25 4.90625 24.09375 4 23 4 Z M 25.59375 7.5 C 25.253906 8.09375 24.707031 8.53125 24.0625 8.78125 L 27.1875 12.4375 L 23.1875 18.34375 L 23 18.59375 L 23 20 L 27.84375 20 C 29.023438 20 30 19.023438 30 17.84375 L 30 13 C 30 12.789063 29.96875 12.527344 29.8125 12.28125 C 29.707031 12.113281 29.539063 12 29.375 11.90625 Z M 11 9 L 14 9 C 14.050781 9 14.09375 9.023438 14.125 9.0625 L 14.15625 9.09375 L 17.84375 13.53125 L 17.875 13.5625 C 17.960938 13.683594 18 13.820313 18 13.96875 L 18 14 L 11.6875 14 L 11 12.8125 Z M 6 14 L 9.34375 14 L 10.21875 15.5 L 10.5 16 L 18 16 L 18 17 L 6 17 Z M 28 14.75 L 28 17.84375 C 28 17.945313 27.941406 18 27.84375 18 L 25.8125 18 Z M 9 19 L 14 19 L 14 20 L 9 20 Z M 6 22 L 18 22 C 19.117188 22 20 22.882813 20 24 C 20 25.117188 19.117188 26 18 26 L 6 26 C 4.882813 26 4 25.117188 4 24 C 4 22.882813 4.882813 22 6 22 Z M 6 23 C 5.449219 23 5 23.449219 5 24 C 5 24.550781 5.449219 25 6 25 C 6.550781 25 7 24.550781 7 24 C 7 23.449219 6.550781 23 6 23 Z M 10 23 C 9.449219 23 9 23.449219 9 24 C 9 24.550781 9.449219 25 10 25 C 10.550781 25 11 24.550781 11 24 C 11 23.449219 10.550781 23 10 23 Z M 14 23 C 13.449219 23 13 23.449219 13 24 C 13 24.550781 13.449219 25 14 25 C 14.550781 25 15 24.550781 15 24 C 15 23.449219 14.550781 23 14 23 Z M 18 23 C 17.449219 23 17 23.449219 17 24 C 17 24.550781 17.449219 25 18 25 C 18.550781 25 19 24.550781 19 24 C 19 23.449219 18.550781 23 18 23 Z "></path>
</g>
</svg>
