<?xml version="1.0" encoding="UTF-8"?>
<svg xmlns="http://www.w3.org/2000/svg" xmlns:xlink="http://www.w3.org/1999/xlink" viewBox="0 0 32 32" version="1.1">
<g>
<path d="M 16 3 C 15.289063 3 14.664063 3.414063 14.3125 3.84375 C 13.960938 4.273438 13.765625 4.71875 13.59375 5.09375 C 13.421875 5.46875 13.265625 5.773438 13.15625 5.90625 C 13.074219 6.007813 13.0625 6.003906 13.03125 6 C 13.035156 6.003906 13.035156 6 13 6 C 12.957031 5.988281 12.855469 5.957031 12.71875 5.90625 C 12.5 5.828125 12.203125 5.71875 11.90625 5.59375 C 11.609375 5.46875 11.308594 5.328125 11 5.21875 C 10.691406 5.109375 10.417969 5 10 5 C 9.589844 5 9.191406 5.089844 8.75 5.40625 C 8.308594 5.722656 7.90625 6.371094 7.90625 7.09375 C 7.90625 7.75 8.042969 8.335938 8.21875 8.9375 C 4.875 11.304688 3 15.128906 3 19 C 3 22.175781 4.546875 24.78125 6.9375 26.46875 C 9.328125 28.15625 12.523438 29 16 29 C 19.476563 29 22.671875 28.15625 25.0625 26.46875 C 27.453125 24.78125 29 22.175781 29 19 C 29 15.230469 26.976563 11 23.6875 8.8125 C 23.894531 8.242188 24.09375 7.746094 24.09375 7.09375 C 24.09375 5.898438 23.101563 5 22 5 C 21.179688 5 20.675781 5.347656 20.125 5.59375 C 19.574219 5.839844 19.011719 6 19 6 C 18.910156 6 18.957031 6.042969 18.84375 5.90625 C 18.730469 5.769531 18.582031 5.4375 18.40625 5.0625 C 18.230469 4.6875 18.035156 4.269531 17.6875 3.84375 C 17.339844 3.417969 16.710938 3 16 3 Z M 15.9375 5 C 15.953125 4.992188 15.957031 5 16 5 C 16.078125 5 16.011719 4.957031 16.125 5.09375 C 16.238281 5.230469 16.417969 5.5625 16.59375 5.9375 C 16.769531 6.3125 16.957031 6.730469 17.3125 7.15625 C 17.667969 7.582031 18.285156 8 19 8 C 19.816406 8 20.375 7.660156 20.9375 7.40625 C 21.5 7.152344 22.09375 7 22 7 C 22.011719 7 22.09375 7.015625 22.09375 7.09375 C 22.09375 7.105469 21.882813 7.785156 21.59375 8.78125 C 21.304688 9.777344 21 11.164063 21 13 L 23 13 C 23 12.1875 23.0625 11.507813 23.15625 10.90625 C 25.417969 12.808594 27 16.21875 27 19 C 27 21.546875 25.859375 23.460938 23.90625 24.84375 C 21.953125 26.226563 19.148438 27 16 27 C 12.851563 27 10.046875 26.226563 8.09375 24.84375 C 6.140625 23.460938 5 21.546875 5 19 C 5 15.984375 6.351563 12.976563 8.8125 10.96875 C 8.9375 11.558594 9 12.214844 9 13 L 11 13 C 11 9.71875 9.90625 7.816406 9.90625 7.09375 C 9.90625 6.96875 9.886719 7.046875 9.90625 7.03125 C 9.925781 7.015625 10.074219 7 10 7 C 9.917969 7 10.117188 7.015625 10.34375 7.09375 C 10.570313 7.171875 10.863281 7.28125 11.15625 7.40625 C 11.449219 7.53125 11.738281 7.671875 12.03125 7.78125 C 12.324219 7.890625 12.570313 8 13 8 C 13.714844 8 14.332031 7.585938 14.6875 7.15625 C 15.042969 6.726563 15.234375 6.28125 15.40625 5.90625 C 15.578125 5.53125 15.734375 5.226563 15.84375 5.09375 C 15.898438 5.027344 15.921875 5.007813 15.9375 5 Z M 15 9 L 15 13 L 17 13 L 17 9 Z M 12 10 L 12 14 L 14 14 L 14 10 Z M 18.03125 10 L 18 14 L 20 14 L 20.03125 10 Z "></path>
</g>
</svg>
