<?xml version="1.0" encoding="UTF-8"?>
<svg xmlns="http://www.w3.org/2000/svg" xmlns:xlink="http://www.w3.org/1999/xlink" viewBox="0 0 32 32" version="1.1">
<g>
<path d="M 22.40625 4 L 17.78125 8.59375 C 16.628906 9.746094 16.628906 11.660156 17.78125 12.8125 L 16 14.5625 L 7.21875 5.78125 L 6.5 5.09375 L 5.78125 5.78125 C 4.011719 7.550781 4.011719 10.449219 5.78125 12.21875 L 12.0625 18.5 L 4.28125 26.28125 L 5.71875 27.71875 L 13.5 19.9375 L 14.6875 21.09375 L 15.40625 21.8125 L 16.09375 21.09375 L 17.875 19.3125 L 26.28125 27.71875 L 27.71875 26.28125 L 18.59375 17.1875 L 17.4375 16 L 19.1875 14.21875 L 19.21875 14.21875 L 19.25 14.25 C 20.410156 15.351563 22.269531 15.355469 23.40625 14.21875 L 23.5 14.09375 L 28 9.59375 L 26.59375 8.1875 L 22 12.78125 C 21.566406 13.214844 21.0625 13.226563 20.625 12.8125 L 25.90625 7.5 L 24.5 6.09375 L 19.1875 11.375 C 18.773438 10.9375 18.785156 10.433594 19.21875 10 L 23.8125 5.40625 Z M 6.78125 8.21875 L 16.46875 17.90625 L 15.40625 18.96875 L 7.21875 10.78125 C 6.476563 10.039063 6.457031 9.105469 6.78125 8.21875 Z "></path>
</g>
</svg>
