<?xml version="1.0" encoding="UTF-8"?>
<svg xmlns="http://www.w3.org/2000/svg" xmlns:xlink="http://www.w3.org/1999/xlink" viewBox="0 0 32 32" version="1.1">
<g>
<path d="M 3 9 C 1.90625 9 1.140625 9.8125 0.6875 10.71875 C 0.234375 11.625 0 12.761719 0 14 C 0 15.238281 0.234375 16.375 0.6875 17.28125 C 1.140625 18.1875 1.90625 19 3 19 L 11.625 19 L 8.875 23.15625 L 7.84375 24.6875 L 11.4375 24.6875 L 12.1875 26.3125 L 12.9375 27.96875 L 13.9375 26.4375 L 15.96875 23.34375 L 18.0625 26.46875 L 19.0625 27.9375 L 20.5625 24.6875 L 24.15625 24.6875 L 23.125 23.15625 L 20.375 19 L 29 19 C 30.09375 19 30.859375 18.1875 31.3125 17.28125 C 31.765625 16.375 32 15.238281 32 14 C 32 12.761719 31.765625 11.625 31.3125 10.71875 C 30.859375 9.8125 30.09375 9 29 9 Z M 3 11 L 11.5625 11 C 11.191406 11.855469 11 12.886719 11 14 C 11 15.113281 11.191406 16.144531 11.5625 17 L 3 17 C 2.996094 17 2.742188 16.917969 2.46875 16.375 C 2.195313 15.832031 2 14.964844 2 14 C 2 13.035156 2.195313 12.167969 2.46875 11.625 C 2.742188 11.082031 2.996094 11 3 11 Z M 14 11 L 16.5625 11 C 16.191406 11.855469 16 12.886719 16 14 C 16 15.113281 16.191406 16.144531 16.5625 17 L 14 17 C 13.996094 17 13.742188 16.917969 13.46875 16.375 C 13.195313 15.832031 13 14.964844 13 14 C 13 13.035156 13.195313 12.167969 13.46875 11.625 C 13.742188 11.082031 13.996094 11 14 11 Z M 19 11 L 26.5625 11 C 26.191406 11.855469 26 12.882813 26 14 C 26 15.117188 26.191406 16.144531 26.5625 17 L 19 17 C 18.996094 17 18.742188 16.917969 18.46875 16.375 C 18.195313 15.832031 18 14.964844 18 14 C 18 13.035156 18.195313 12.167969 18.46875 11.625 C 18.742188 11.082031 18.996094 11 19 11 Z M 29 11 C 29.011719 11 29.261719 11.082031 29.53125 11.625 C 29.800781 12.167969 30 13.03125 30 14 C 30 14.96875 29.800781 15.832031 29.53125 16.375 C 29.261719 16.917969 29.011719 17 29 17 C 28.988281 17 28.738281 16.917969 28.46875 16.375 C 28.199219 15.832031 28 14.96875 28 14 C 28 13.03125 28.199219 12.167969 28.46875 11.625 C 28.738281 11.082031 28.988281 11 29 11 Z M 15.46875 19 L 18 19 L 20.4375 22.6875 L 19.25 22.6875 L 18.75 23.875 Z M 13.53125 19.6875 L 14.75 21.53125 L 13.25 23.8125 L 13 23.28125 L 12.75 22.6875 L 11.5625 22.6875 Z "></path>
</g>
</svg>
