<?xml version="1.0" encoding="UTF-8"?>
<svg xmlns="http://www.w3.org/2000/svg" xmlns:xlink="http://www.w3.org/1999/xlink" viewBox="0 0 32 32" version="1.1">
<g>
<path d="M 15 7 L 15 9 L 17.324219 9 L 18.128906 11 L 17 11 L 15 12 L 6 12 L 6 14 L 9 14 L 12.265625 14.816406 L 11.207031 16.140625 L 10.828125 15.757813 L 10.027344 16.558594 C 9.707031 16.371094 9.367188 16.226563 9 16.136719 L 9 15 L 7 15 L 7 16.152344 C 6.640625 16.25 6.304688 16.390625 5.992188 16.578125 L 5.171875 15.757813 L 3.757813 17.171875 L 4.585938 18 C 4.402344 18.308594 4.265625 18.644531 4.171875 19 L 3 19 L 3 21 L 4.171875 21 C 4.265625 21.355469 4.40625 21.6875 4.585938 22 L 3.757813 22.828125 L 5.171875 24.246094 L 5.992188 23.421875 C 6.304688 23.609375 6.640625 23.75 7 23.847656 L 7 25 L 9 25 L 9 23.863281 C 9.367188 23.773438 9.707031 23.628906 10.027344 23.441406 L 10.828125 24.242188 L 12.242188 22.828125 L 11.449219 22.035156 C 11.640625 21.714844 11.785156 21.367188 11.882813 21 L 13 21 L 13 19.683594 L 18 18.847656 L 18 14.957031 C 18.582031 14.863281 19.078125 14.605469 19.4375 14.25 L 20.371094 16.5625 L 19.757813 17.171875 L 20.585938 18 C 20.402344 18.308594 20.265625 18.644531 20.171875 19 L 19 19 L 19 21 L 20.171875 21 C 20.265625 21.355469 20.40625 21.6875 20.589844 22 L 19.757813 22.828125 L 21.171875 24.246094 L 21.996094 23.421875 C 22.304688 23.609375 22.640625 23.75 23 23.847656 L 23 25 L 25 25 L 25 23.863281 C 25.367188 23.773438 25.707031 23.628906 26.027344 23.441406 L 26.828125 24.242188 L 28.242188 22.828125 L 27.449219 22.035156 C 27.640625 21.714844 27.785156 21.367188 27.882813 21 L 29 21 L 29 19 L 27.882813 19 C 27.785156 18.632813 27.640625 18.285156 27.449219 17.96875 L 28.246094 17.171875 L 26.828125 15.757813 L 26.027344 16.5625 C 25.707031 16.375 25.367188 16.226563 25 16.136719 L 25 15 L 23 15 L 23 16.152344 C 22.808594 16.203125 22.613281 16.257813 22.433594 16.339844 L 21.089844 13 L 24 13 L 24 11 L 20.285156 11 L 18.675781 7 Z M 14.683594 15 L 16 15 L 16 17.152344 L 12.488281 17.738281 Z M 8.027344 18 C 9.144531 18 10.027344 18.882813 10.027344 20 C 10.027344 21.117188 9.144531 22 8.027344 22 C 6.910156 22 6.027344 21.117188 6.027344 20 C 6.027344 18.882813 6.910156 18 8.027344 18 Z M 24.027344 18 C 25.144531 18 26.027344 18.882813 26.027344 20 C 26.027344 21.117188 25.144531 22 24.027344 22 C 22.910156 22 22.027344 21.117188 22.027344 20 C 22.027344 18.882813 22.910156 18 24.027344 18 Z "></path>
</g>
</svg>
