<?xml version="1.0" encoding="UTF-8"?>
<svg xmlns="http://www.w3.org/2000/svg" xmlns:xlink="http://www.w3.org/1999/xlink" viewBox="0 0 32 32" version="1.1">
<g>
<path d="M 16 2 C 14.617188 2 13.46875 2.96875 13.125 4.25 C 12.773438 4.105469 12.402344 4 12 4 C 10.355469 4 9 5.355469 9 7 L 9 16.8125 L 8.34375 16.125 L 8.09375 15.90625 C 6.941406 14.753906 5.058594 14.753906 3.90625 15.90625 C 2.753906 17.058594 2.753906 18.941406 3.90625 20.09375 L 3.90625 20.125 L 12.09375 28.21875 L 12.15625 28.25 L 12.1875 28.3125 C 13.535156 29.324219 15.253906 30 17.1875 30 L 18.90625 30 C 23.441406 30 27.09375 26.347656 27.09375 21.8125 L 27.09375 9 C 27.09375 7.355469 25.738281 6 24.09375 6 C 23.707031 6 23.339844 6.082031 23 6.21875 L 23 6 C 23 4.355469 21.644531 3 20 3 C 19.464844 3 18.96875 3.15625 18.53125 3.40625 C 17.996094 2.5625 17.0625 2 16 2 Z M 16 4 C 16.554688 4 17 4.445313 17 5 L 17 13 L 19 13 L 19 6 C 19 5.445313 19.445313 5 20 5 C 20.554688 5 21 5.445313 21 6 L 21 9 L 21.09375 9 L 21.09375 14 L 23.09375 14 L 23.09375 9 C 23.09375 8.445313 23.539063 8 24.09375 8 C 24.648438 8 25.09375 8.445313 25.09375 9 L 25.09375 21.8125 C 25.09375 25.277344 22.371094 28 18.90625 28 L 17.1875 28 C 15.722656 28 14.457031 27.476563 13.40625 26.6875 L 5.3125 18.6875 C 4.867188 18.242188 4.867188 17.757813 5.3125 17.3125 C 5.757813 16.867188 6.242188 16.867188 6.6875 17.3125 L 11 21.625 L 11 7 C 11 6.445313 11.445313 6 12 6 C 12.554688 6 13 6.445313 13 7 L 13 14 L 15 14 L 15 5 C 15 4.445313 15.445313 4 16 4 Z M 15.71875 16.28125 L 14.28125 17.71875 L 16.5625 20 L 14.28125 22.28125 L 15.71875 23.71875 L 18 21.4375 L 20.28125 23.71875 L 21.71875 22.28125 L 19.4375 20 L 21.71875 17.71875 L 20.28125 16.28125 L 18 18.5625 Z "></path>
</g>
</svg>
