<?xml version="1.0" encoding="UTF-8"?>
<svg xmlns="http://www.w3.org/2000/svg" xmlns:xlink="http://www.w3.org/1999/xlink" viewBox="0 0 32 32" version="1.1">
<g>
<path d="M 3.71875 2.28125 L 2.28125 3.71875 L 28.28125 29.71875 L 29.71875 28.28125 L 22.75 21.34375 L 27.53125 16.53125 C 27.632813 16.433594 30 14.089844 30 11.5 C 30 7.363281 26.636719 4 22.5 4 C 19.609375 4 17.171875 5.792969 16 6.84375 C 14.828125 5.792969 12.390625 4 9.5 4 C 8.320313 4 7.210938 4.292969 6.21875 4.78125 Z M 9.5 6 C 12.589844 6 15.222656 8.878906 15.25 8.90625 L 16 9.75 L 16.75 8.90625 C 16.777344 8.878906 19.394531 6 22.5 6 C 25.53125 6 28 8.46875 28 11.5 C 28 12.949219 26.648438 14.605469 26.125 15.125 L 21.34375 19.90625 L 7.75 6.3125 C 8.300781 6.125 8.886719 6 9.5 6 Z M 3.1875 7.4375 C 2.429688 8.609375 2 10.003906 2 11.5 C 2 14.089844 4.375 16.4375 4.46875 16.53125 L 16 28.09375 L 19.90625 24.15625 L 18.5 22.75 L 16 25.25 L 5.875 15.125 C 5.355469 14.613281 4 12.960938 4 11.5 C 4 10.558594 4.238281 9.679688 4.65625 8.90625 Z "></path>
</g>
</svg>
