<?xml version="1.0" encoding="UTF-8"?>
<svg xmlns="http://www.w3.org/2000/svg" xmlns:xlink="http://www.w3.org/1999/xlink" viewBox="0 0 32 32" version="1.1">
<g>
<path d="M 5 5 L 5 27 L 27 27 L 27 5 Z M 7 7 L 25 7 L 25 25 L 7 25 Z M 11 9 L 11 11 L 13 11 L 13 9 Z M 13 11 L 13 21 L 15 21 L 15 11 Z M 13 21 L 11 21 L 11 23 L 13 23 Z M 11 21 L 11 11 L 9 11 L 9 21 Z M 19 9 L 19 11 L 21 11 L 21 9 Z M 21 11 L 21 21 L 23 21 L 23 11 Z M 21 21 L 19 21 L 19 23 L 21 23 Z M 19 21 L 19 11 L 17 11 L 17 21 Z "></path>
</g>
</svg>
