<?xml version="1.0" encoding="UTF-8"?>
<svg xmlns="http://www.w3.org/2000/svg" xmlns:xlink="http://www.w3.org/1999/xlink" viewBox="0 0 32 32" version="1.1">
<g>
<path d="M 5 5 L 5 27 L 17 27 C 23.0625 27 28 22.0625 28 16 C 28 9.9375 23.0625 5 17 5 Z M 7 7 L 17 7 C 21.984375 7 26 11.015625 26 16 C 26 20.984375 21.984375 25 17 25 L 12 25 L 12 22 L 17 22 C 20.300781 22 23 19.300781 23 16 C 23 12.699219 20.300781 10 17 10 L 10 10 L 10 25 L 7 25 Z M 12 12 L 17 12 C 19.21875 12 21 13.78125 21 16 C 21 18.21875 19.21875 20 17 20 L 12 20 Z "></path>
</g>
</svg>
