<?xml version="1.0" encoding="UTF-8"?>
<svg xmlns="http://www.w3.org/2000/svg" xmlns:xlink="http://www.w3.org/1999/xlink" viewBox="0 0 32 32" version="1.1">
<g>
<path d="M 5 5 L 5 27 L 27 27 L 27 5 Z M 7 7 L 25 7 L 25 25 L 7 25 Z M 16 10 C 15.171875 10 14.5 10.671875 14.5 11.5 C 14.5 12.328125 15.171875 13 16 13 C 16.828125 13 17.5 12.328125 17.5 11.5 C 17.5 10.671875 16.828125 10 16 10 Z M 11 15 L 11 17 L 21 17 L 21 15 Z M 16 19 C 15.171875 19 14.5 19.671875 14.5 20.5 C 14.5 21.328125 15.171875 22 16 22 C 16.828125 22 17.5 21.328125 17.5 20.5 C 17.5 19.671875 16.828125 19 16 19 Z "></path>
</g>
</svg>
