<?xml version="1.0" encoding="UTF-8"?>
<svg xmlns="http://www.w3.org/2000/svg" xmlns:xlink="http://www.w3.org/1999/xlink" viewBox="0 0 32 32" version="1.1">
<g>
<path d="M 9.75 1.84375 L 8.65625 3.78125 L 6.46875 3.96875 L 7.96875 5.59375 L 7.5 7.71875 L 9.46875 6.8125 L 11.375 7.9375 L 11.125 5.75 L 12.75 4.3125 L 10.59375 3.875 Z M 22.25 1.96875 L 22 3.0625 L 20.9375 3.46875 L 21.90625 4.0625 L 22 5.15625 L 22.8125 4.4375 L 23.90625 4.6875 L 23.46875 3.65625 L 24.0625 2.71875 L 22.9375 2.84375 Z M 27.34375 4.28125 L 26.28125 5.84375 L 24.40625 5.875 L 25.5625 7.34375 L 25 9.15625 L 26.78125 8.53125 L 28.3125 9.625 L 28.25 7.71875 L 29.75 6.59375 L 27.9375 6.09375 Z M 16 5 C 15.0625 5 14.144531 5.132813 13.28125 5.375 L 13.84375 7.3125 C 14.535156 7.117188 15.246094 7 16 7 C 20.429688 7 24 10.570313 24 15 L 24 16.40625 C 23.957031 16.390625 23.917969 16.359375 23.875 16.34375 C 23.550781 14.464844 21.96875 13 20 13 C 19.433594 13 19 12.566406 19 12 L 19 11 L 17 11 L 17 12 C 17 12.566406 16.566406 13 16 13 L 12 13 C 10.03125 13 8.449219 14.464844 8.125 16.34375 C 8.082031 16.359375 8.042969 16.390625 8 16.40625 L 8 15 C 8 12.945313 8.761719 11.070313 10.03125 9.65625 L 8.5625 8.34375 C 6.976563 10.113281 6 12.441406 6 15 L 6 18.59375 L 6.03125 18.59375 C 6.011719 18.726563 6 18.859375 6 19 C 6 20.308594 6.945313 21.25 8.125 21.65625 C 8.476563 25.742188 11.828125 29 16 29 C 20.171875 29 23.523438 25.742188 23.875 21.65625 C 25.054688 21.25 26 20.308594 26 19 C 26 18.859375 25.988281 18.726563 25.96875 18.59375 L 26 18.59375 L 26 15 C 26 9.488281 21.511719 5 16 5 Z M 4 6.6875 L 3.6875 8.0625 L 2.375 8.59375 L 3.59375 9.3125 L 3.6875 10.75 L 4.75 9.8125 L 6.125 10.15625 L 5.5625 8.84375 L 6.3125 7.65625 L 4.90625 7.78125 Z M 18 14.1875 C 18.535156 14.675781 19.226563 15 20 15 C 21.117188 15 22 15.882813 22 17 L 22 18 L 23 18 C 23.566406 18 24 18.433594 24 19 C 24 19.566406 23.566406 20 23 20 L 22 20 L 22 21 C 22 24.324219 19.324219 27 16 27 C 12.675781 27 10 24.324219 10 21 L 10 20 L 9 20 C 8.433594 20 8 19.566406 8 19 C 8 18.433594 8.433594 18 9 18 L 10 18 L 10 17 C 10 15.882813 10.882813 15 12 15 L 16 15 C 16.773438 15 17.464844 14.675781 18 14.1875 Z M 14 18 C 13.449219 18 13 18.449219 13 19 C 13 19.550781 13.449219 20 14 20 C 14.550781 20 15 19.550781 15 19 C 15 18.449219 14.550781 18 14 18 Z M 18.5 18 C 17.671875 18 17 18.671875 17 19.5 C 17 20.328125 17.671875 21 18.5 21 C 19.328125 21 20 20.328125 20 19.5 C 20 18.671875 19.328125 18 18.5 18 Z "></path>
</g>
</svg>
