<?xml version="1.0" encoding="UTF-8"?>
<svg xmlns="http://www.w3.org/2000/svg" xmlns:xlink="http://www.w3.org/1999/xlink" viewBox="0 0 32 32" version="1.1">
<g>
<path d="M 6 3 L 6 10 L 8 10 L 8 5 L 24 5 L 24 10 L 26 10 L 26 3 Z M 8 12 L 8 20 L 10 20 C 11.644531 20 13 18.644531 13 17 L 13 15 C 13 13.355469 11.644531 12 10 12 Z M 15 12 L 15 20 L 19 20 L 19 18 L 17 18 L 17 12 Z M 21 12 L 21 20 L 25 20 L 25 18 L 23 18 L 23 12 Z M 10 14 C 10.554688 14 11 14.445313 11 15 L 11 17 C 11 17.554688 10.554688 18 10 18 Z M 6 22 L 6 29 L 26 29 L 26 22 L 24 22 L 24 27 L 8 27 L 8 22 Z "></path>
</g>
</svg>
