<?xml version="1.0" encoding="UTF-8"?>
<svg xmlns="http://www.w3.org/2000/svg" xmlns:xlink="http://www.w3.org/1999/xlink" viewBox="0 0 32 32" version="1.1">
<g>
<path d="M 6 3 L 6 10 L 8 10 L 8 5 L 24 5 L 24 10 L 26 10 L 26 3 Z M 7 12 L 7 20 L 9 20 C 10.644531 20 12 18.644531 12 17 L 12 15 C 12 13.355469 10.644531 12 9 12 Z M 13 12 L 13 20 L 15 20 L 15 15.34375 L 15.1875 15.59375 L 16 16.65625 L 16.8125 15.59375 L 17 15.34375 L 17 20 L 19 20 L 19 12 L 17 12 L 16.6875 12.40625 L 16 13.3125 L 15.3125 12.40625 L 15 12 Z M 22.5 12 C 21.117188 12 20 13.117188 20 14.5 L 20 17.5 C 20 18.882813 21.117188 20 22.5 20 L 25 20 L 25 16 L 23 16 L 23 18 L 22.5 18 C 22.285156 18 22 17.714844 22 17.5 L 22 14.5 C 22 14.285156 22.285156 14 22.5 14 C 22.714844 14 23 14.285156 23 14.5 L 23 15 L 25 15 L 25 14.5 C 25 13.117188 23.882813 12 22.5 12 Z M 9 14 C 9.554688 14 10 14.445313 10 15 L 10 17 C 10 17.554688 9.554688 18 9 18 Z M 6 22 L 6 29 L 26 29 L 26 22 L 24 22 L 24 27 L 8 27 L 8 22 Z "></path>
</g>
</svg>
