<?xml version="1.0" encoding="UTF-8"?>
<svg xmlns="http://www.w3.org/2000/svg" xmlns:xlink="http://www.w3.org/1999/xlink" viewBox="0 0 32 32" version="1.1">
<g>
<path d="M 3.71875 2.28125 L 2.28125 3.71875 L 28.28125 29.71875 L 29.71875 28.28125 L 27 25.5625 L 27 5 L 6.4375 5 Z M 8.4375 7 L 25 7 L 25 15 L 16.4375 15 Z M 13 9 L 13 11 L 19 11 L 19 9 Z M 5 9.1875 L 5 27 L 22.8125 27 L 20.8125 25 L 7 25 L 7 17 L 12.8125 17 L 10.8125 15 L 7 15 L 7 11.1875 Z M 18.4375 17 L 25 17 L 25 23.5625 Z M 13 19 L 13 21 L 16.8125 21 L 14.8125 19 Z "></path>
</g>
</svg>
