<?xml version="1.0" encoding="UTF-8"?>
<svg xmlns="http://www.w3.org/2000/svg" xmlns:xlink="http://www.w3.org/1999/xlink" viewBox="0 0 32 32" version="1.1">
<g>
<path d="M 3.71875 2.28125 L 2.28125 3.71875 L 28.28125 29.71875 L 29.71875 28.28125 L 21.46875 20.03125 L 25 16.40625 L 25 9 L 28 9 L 28 7 L 25 7 L 25 4 L 23 4 L 23 7 L 15.59375 7 L 11.96875 10.53125 Z M 16.40625 9 L 23 9 L 23 15.59375 L 19.96875 18.53125 L 13.46875 12.03125 Z M 4 13 L 4 20 L 11 20 L 11 18 L 7.375 18 L 10.65625 14.75 L 9.21875 13.34375 L 6 16.5625 L 6 13 Z M 12 21 L 12 28 L 19 28 L 19 26 L 15.375 26 L 18.65625 22.75 L 17.21875 21.34375 L 14 24.5625 L 14 21 Z "></path>
</g>
</svg>
