<?xml version="1.0" encoding="UTF-8"?>
<svg xmlns="http://www.w3.org/2000/svg" xmlns:xlink="http://www.w3.org/1999/xlink" viewBox="0 0 32 32" version="1.1">
<g>
<path d="M 3.71875 2.28125 L 2.28125 3.71875 L 28.28125 29.71875 L 29.71875 28.28125 L 26 24.5625 L 26 19.40625 L 29.40625 16 L 26 12.59375 L 26 6 L 19.40625 6 L 16 2.59375 L 12.59375 6 L 7.4375 6 Z M 16 5.40625 L 18.59375 8 L 24 8 L 24 13.40625 L 26.59375 16 L 24 18.59375 L 24 22.5625 L 21.59375 20.15625 C 22.464844 18.992188 23 17.5625 23 16 C 23 12.140625 19.859375 9 16 9 C 14.4375 9 13.007813 9.535156 11.84375 10.40625 L 9.4375 8 L 13.40625 8 Z M 6 10.1875 L 6 12.59375 L 2.59375 16 L 6 19.40625 L 6 26 L 12.59375 26 L 16 29.40625 L 19.40625 26 L 21.8125 26 L 19.8125 24 L 18.59375 24 L 16 26.59375 L 13.40625 24 L 8 24 L 8 18.59375 L 5.40625 16 L 8 13.40625 L 8 12.1875 Z M 16 11 C 18.757813 11 21 13.242188 21 16 C 21 17.011719 20.707031 17.960938 20.1875 18.75 L 13.25 11.8125 C 14.039063 11.292969 14.988281 11 16 11 Z M 9.4375 13.625 C 9.167969 14.367188 9 15.164063 9 16 C 9 19.859375 12.140625 23 16 23 C 16.835938 23 17.632813 22.832031 18.375 22.5625 L 16.71875 20.9375 C 16.480469 20.972656 16.25 21 16 21 C 13.242188 21 11 18.757813 11 16 C 11 15.75 11.027344 15.519531 11.0625 15.28125 Z "></path>
</g>
</svg>
