<?xml version="1.0" encoding="UTF-8"?>
<svg xmlns="http://www.w3.org/2000/svg" xmlns:xlink="http://www.w3.org/1999/xlink" viewBox="0 0 32 32" version="1.1">
<g>
<path d="M 5 4 L 5 9.59375 L 7 8.84375 L 7 4 Z M 9 4 L 9 8.09375 L 11 7.34375 L 11 4 Z M 13 4 L 13 6.59375 L 15 5.84375 L 15 4 Z M 17 4 L 17 5.84375 L 19 6.59375 L 19 4 Z M 21 4 L 21 7.34375 L 23 8.09375 L 23 4 Z M 25 4 L 25 8.84375 L 27 9.59375 L 27 4 Z M 16 8.09375 L 15.65625 8.21875 L 5.65625 11.96875 L 5 12.21875 L 5 23.53125 L 5.5625 23.8125 L 15.5625 28.5625 L 16 28.75 L 16.4375 28.5625 L 26.4375 23.8125 L 27 23.53125 L 27 12.21875 L 26.34375 11.96875 L 16.34375 8.21875 Z M 16 10.21875 L 23.3125 12.96875 L 16 16.15625 L 8.6875 12.96875 Z M 7 14.4375 L 15 17.9375 L 15 26.0625 L 7 22.28125 Z M 25 14.4375 L 25 22.28125 L 17 26.0625 L 17 17.9375 Z "></path>
</g>
</svg>
