<?xml version="1.0" encoding="UTF-8"?>
<svg xmlns="http://www.w3.org/2000/svg" xmlns:xlink="http://www.w3.org/1999/xlink" viewBox="0 0 32 32" version="1.1">
<g>
<path d="M 3.71875 2.28125 L 2.28125 3.71875 L 24 25.40625 L 26 27.40625 L 28.28125 29.71875 L 29.71875 28.28125 L 26 24.5625 L 26 16 L 28 16 L 28 14 L 24 14 L 24 22.5625 L 20.25 18.8125 L 21.75 17.3125 L 20.34375 15.90625 L 18.84375 17.40625 L 17 15.5625 L 17 4 L 15 4 L 15 13.5625 Z M 4 14 L 4 16 L 6 16 L 6 28 L 23.8125 28 L 21.8125 26 L 8 26 L 8 14 Z M 11.65625 15.90625 L 10.25 17.3125 L 15.96875 23.0625 L 17.375 21.625 Z "></path>
</g>
</svg>
