<?xml version="1.0" encoding="UTF-8"?>
<svg xmlns="http://www.w3.org/2000/svg" xmlns:xlink="http://www.w3.org/1999/xlink" viewBox="0 0 32 32" version="1.1">
<g>
<path d="M 16 3 C 14.238281 3 12.707031 3.996094 12.5625 4.09375 C 12.554688 4.097656 12.46875 4.15625 12.46875 4.15625 L 8.5625 6.09375 L 8 6.375 L 8 6.4375 C 7.773438 6.574219 7.519531 6.726563 7.21875 6.9375 C 6.519531 7.433594 5.703125 8.085938 5.15625 8.96875 C 4.808594 9.53125 4.753906 10.027344 4.625 10.71875 C 4.496094 11.410156 4.371094 12.234375 4.28125 13 C 4.101563 14.53125 4 15.9375 4 15.9375 L 4 25 L 8 25 L 8 29 L 24 29 L 24 25 L 28 25 L 28 15.9375 C 28 15.9375 27.898438 14.53125 27.71875 13 C 27.628906 12.234375 27.503906 11.410156 27.375 10.71875 C 27.246094 10.027344 27.191406 9.53125 26.84375 8.96875 C 26.296875 8.085938 25.480469 7.433594 24.78125 6.9375 C 24.480469 6.726563 24.226563 6.574219 24 6.4375 L 24 6.375 L 23.4375 6.09375 L 19.53125 4.15625 L 19.4375 4.09375 C 19.292969 3.996094 17.761719 3 16 3 Z M 16 5 C 16.867188 5 18.46875 5.84375 18.46875 5.84375 L 18.5 5.875 L 18.5625 5.90625 L 18.65625 5.9375 L 16 13 L 21 10 L 20 8 L 22 8 L 22 12 L 19 12 L 19 15.78125 C 19 16.996094 20.003906 18 21.21875 18 L 22 18 L 22 20 L 19 20 L 19 23.78125 C 19 24.996094 20.003906 26 21.21875 26 L 22 26 L 22 27 L 10 27 L 10 26 L 10.78125 26 C 11.996094 26 13 24.996094 13 23.78125 L 13 20 L 10 20 L 10 8 L 12 8 L 11 10 L 16 13 L 13.34375 5.9375 L 13.4375 5.90625 L 13.5 5.875 L 13.53125 5.84375 C 13.53125 5.84375 15.132813 5 16 5 Z M 8 8.875 L 8 23 L 6 23 L 6 16 C 6.003906 15.941406 6.109375 14.667969 6.28125 13.21875 C 6.367188 12.476563 6.480469 11.710938 6.59375 11.09375 C 6.707031 10.476563 6.898438 9.941406 6.84375 10.03125 C 7.050781 9.695313 7.523438 9.257813 8 8.875 Z M 24 8.875 C 24.476563 9.257813 24.949219 9.695313 25.15625 10.03125 C 25.101563 9.941406 25.292969 10.476563 25.40625 11.09375 C 25.519531 11.710938 25.632813 12.476563 25.71875 13.21875 C 25.890625 14.667969 25.996094 15.941406 26 16 C 26 16 26 16.0625 26 16.0625 L 26 23 L 24 23 Z M 21 14 L 22 14 L 22 16 L 21.21875 16 C 21.085938 16 21 15.914063 21 15.78125 Z M 16 15 C 15.449219 15 15 15.449219 15 16 C 15 16.550781 15.449219 17 16 17 C 16.550781 17 17 16.550781 17 16 C 17 15.449219 16.550781 15 16 15 Z M 16 19 C 15.449219 19 15 19.449219 15 20 C 15 20.550781 15.449219 21 16 21 C 16.550781 21 17 20.550781 17 20 C 17 19.449219 16.550781 19 16 19 Z M 10 22 L 11 22 L 11 23.78125 C 11 23.914063 10.914063 24 10.78125 24 L 10 24 Z M 21 22 L 22 22 L 22 24 L 21.21875 24 C 21.085938 24 21 23.914063 21 23.78125 Z M 16 23 C 15.449219 23 15 23.449219 15 24 C 15 24.550781 15.449219 25 16 25 C 16.550781 25 17 24.550781 17 24 C 17 23.449219 16.550781 23 16 23 Z "></path>
</g>
</svg>
