<?xml version="1.0" encoding="UTF-8"?>
<svg xmlns="http://www.w3.org/2000/svg" xmlns:xlink="http://www.w3.org/1999/xlink" viewBox="0 0 32 32" version="1.1">
<g>
<path d="M 18.074219 21.769531 L 18.175781 21.871094 C 18.175781 21.871094 15.976563 22.867188 15.078125 23.367188 C 13.78125 23.96875 10.984375 25.363281 10.6875 25.5625 C 10.386719 25.761719 10.1875 25.863281 10.089844 25.765625 C 9.886719 25.664063 9.6875 25.464844 9.488281 24.964844 C 9.289063 24.566406 9.289063 24.164063 9.390625 23.96875 C 9.390625 23.867188 9.390625 23.765625 9.589844 23.566406 C 9.6875 23.566406 10.089844 23.269531 10.1875 23.167969 C 10.386719 23.070313 10.785156 22.871094 10.886719 22.769531 C 10.988281 22.769531 10.988281 22.769531 10.988281 22.769531 C 10.988281 22.871094 10.988281 23.070313 11.085938 23.070313 L 11.1875 23.070313 C 11.1875 23.167969 11.1875 23.167969 11.285156 23.167969 L 11.386719 23.167969 L 11.386719 23.269531 L 11.488281 23.269531 C 11.585938 23.269531 11.585938 23.367188 11.585938 23.367188 C 11.585938 23.46875 11.585938 23.46875 11.6875 23.367188 C 11.785156 23.367188 11.785156 23.367188 11.785156 23.367188 L 11.886719 23.367188 L 11.988281 23.46875 L 12.085938 23.46875 C 12.085938 23.46875 12.085938 23.570313 12.1875 23.570313 C 12.1875 23.570313 12.285156 23.46875 12.285156 23.570313 C 12.386719 23.667969 12.1875 23.769531 12.285156 23.769531 L 12.785156 23.769531 C 12.785156 23.769531 12.785156 23.667969 12.886719 23.667969 C 12.988281 23.667969 12.886719 23.769531 12.886719 23.769531 L 12.988281 23.769531 C 13.085938 23.769531 13.085938 23.667969 13.085938 23.667969 C 13.085938 23.570313 13.1875 23.46875 13.1875 23.371094 C 13.1875 23.371094 13.285156 23.171875 13.386719 23.070313 C 13.386719 22.972656 13.585938 22.773438 13.585938 22.671875 L 13.6875 22.570313 C 13.6875 22.570313 13.6875 22.472656 13.785156 22.371094 C 13.785156 22.273438 13.988281 22.171875 13.988281 22.074219 C 13.988281 22.074219 14.085938 21.871094 14.085938 21.773438 C 14.085938 21.675781 14.1875 21.574219 14.285156 21.476563 C 14.285156 21.375 14.386719 21.273438 14.386719 21.273438 L 14.488281 21.175781 C 14.488281 21.175781 14.488281 21.074219 14.585938 21.074219 C 14.585938 20.976563 14.6875 20.875 14.785156 20.777344 C 14.785156 20.675781 14.886719 20.574219 14.886719 20.574219 L 14.988281 20.375 L 15.085938 20.277344 C 15.085938 20.277344 15.085938 20.175781 15.1875 20.074219 C 15.1875 20.074219 15.285156 19.976563 15.285156 19.875 L 15.386719 19.578125 C 15.386719 19.476563 15.585938 19.277344 15.585938 19.179688 C 15.585938 19.078125 15.785156 18.878906 15.785156 18.777344 C 15.785156 18.679688 15.785156 18.679688 15.785156 18.578125 C 15.785156 18.578125 15.886719 18.480469 15.886719 18.378906 L 15.988281 18.078125 C 15.988281 18.078125 15.988281 17.980469 16.085938 17.980469 C 16.085938 17.980469 16.1875 17.980469 16.1875 18.078125 C 16.1875 18.078125 16.285156 18.078125 16.285156 18.179688 L 16.488281 18.378906 L 16.585938 18.378906 L 16.585938 18.480469 L 16.6875 18.578125 C 16.6875 18.578125 16.6875 18.679688 16.785156 18.679688 C 16.785156 18.679688 16.886719 18.78125 16.988281 18.78125 C 16.988281 18.78125 17.1875 18.980469 17.1875 19.078125 C 17.1875 19.078125 17.1875 19.179688 17.285156 19.179688 L 17.386719 19.277344 L 17.386719 19.378906 L 17.488281 19.480469 C 17.488281 19.480469 17.488281 19.578125 17.585938 19.578125 C 17.585938 19.578125 17.585938 19.578125 17.6875 19.679688 C 17.6875 19.679688 17.6875 19.777344 17.6875 19.878906 L 17.785156 19.980469 L 17.886719 20.078125 C 17.886719 20.078125 17.886719 20.179688 17.886719 20.277344 L 17.988281 20.378906 L 17.988281 20.878906 L 18.085938 20.980469 L 18.085938 21.078125 L 18.1875 21.179688 L 18.1875 21.277344 C 18.074219 21.671875 18.074219 21.671875 18.074219 21.769531 Z M 6.394531 15.679688 C 6.492188 15.679688 6.492188 15.679688 6.492188 15.679688 L 6.492188 15.78125 C 6.492188 15.78125 6.492188 15.882813 6.59375 15.882813 L 6.695313 15.882813 L 6.695313 15.980469 C 6.792969 16.082031 6.695313 16.378906 6.792969 16.378906 C 6.894531 16.378906 6.992188 16.378906 7.09375 16.28125 C 7.191406 16.179688 7.191406 16.179688 7.292969 16.078125 C 7.394531 16.078125 7.492188 15.980469 7.59375 15.980469 C 7.691406 15.980469 7.691406 15.878906 7.792969 15.878906 C 7.890625 15.878906 7.792969 15.78125 7.890625 15.78125 C 7.992188 15.78125 7.992188 15.679688 8.09375 15.78125 C 8.09375 15.78125 8.09375 15.878906 8.191406 15.878906 C 8.292969 15.878906 8.292969 15.878906 8.292969 15.980469 C 8.292969 16.078125 8.492188 15.980469 8.492188 15.980469 L 8.691406 15.878906 C 8.792969 15.878906 8.992188 15.78125 8.992188 15.78125 L 9.191406 15.679688 C 11.488281 14.582031 13.382813 13.984375 15.082031 13.285156 C 17.675781 12.285156 22.269531 11.089844 23.167969 10.886719 C 23.265625 10.886719 23.464844 10.789063 23.464844 10.789063 C 23.464844 10.789063 23.566406 10.789063 23.566406 10.6875 C 23.566406 10.589844 23.566406 10.488281 23.566406 10.488281 C 23.566406 10.488281 23.664063 10.289063 23.664063 10.1875 C 23.464844 9.988281 23.367188 9.988281 23.367188 9.988281 C 23.367188 9.988281 23.367188 9.890625 23.367188 9.789063 C 23.367188 9.6875 23.265625 9.6875 23.167969 9.589844 C 23.167969 9.488281 23.167969 9.390625 23.167969 9.289063 C 23.167969 9.191406 23.066406 9.191406 23.066406 9.191406 C 23.066406 9.191406 23.066406 9.191406 23.066406 9.089844 L 22.96875 9.089844 L 22.96875 8.988281 L 22.867188 8.890625 C 22.867188 8.890625 22.96875 8.988281 22.96875 8.890625 L 22.96875 8.789063 C 22.96875 8.789063 22.867188 8.789063 22.765625 8.789063 C 22.765625 8.789063 22.667969 8.789063 22.566406 8.789063 C 22.46875 8.789063 22.46875 8.890625 22.367188 8.890625 C 22.265625 8.890625 22.167969 8.890625 22.066406 8.890625 C 21.96875 8.890625 21.96875 8.988281 21.867188 8.988281 C 21.167969 9.191406 17.976563 10.089844 15.578125 10.988281 C 13.382813 11.785156 10.6875 12.984375 9.089844 13.882813 C 7.890625 14.480469 7.191406 14.878906 6.992188 15.078125 C 6.894531 15.179688 6.695313 15.28125 6.695313 15.28125 C 6.695313 15.378906 6.59375 15.480469 6.496094 15.480469 C 6.394531 15.480469 6.394531 15.578125 6.394531 15.578125 C 6.394531 15.578125 6.296875 15.578125 6.296875 15.679688 C 6.292969 15.582031 6.292969 15.582031 6.394531 15.679688 C 6.292969 15.679688 6.394531 15.679688 6.394531 15.679688 Z M 25.660156 13.585938 C 25.761719 13.484375 25.859375 13.484375 25.859375 13.285156 C 25.761719 12.988281 25.660156 12.488281 25.460938 12.1875 C 25.261719 11.789063 25.0625 11.589844 24.863281 11.390625 C 24.761719 11.289063 24.761719 11.289063 24.5625 11.390625 C 23.863281 11.589844 21.171875 12.488281 20.269531 12.785156 C 19.171875 12.988281 17.175781 13.683594 16.378906 13.984375 C 16.277344 14.085938 16.179688 14.085938 16.277344 14.183594 C 16.378906 14.285156 16.378906 14.285156 16.476563 14.285156 C 16.476563 14.285156 16.679688 14.484375 16.777344 14.484375 C 16.878906 14.585938 16.976563 14.785156 17.074219 14.785156 L 17.175781 14.882813 C 17.277344 14.882813 17.277344 14.984375 17.277344 14.984375 L 17.375 15.085938 L 17.476563 15.183594 L 17.574219 15.285156 L 17.675781 15.382813 L 18.476563 16.183594 C 18.476563 16.183594 18.574219 16.28125 18.574219 16.382813 C 18.675781 16.582031 18.675781 16.484375 18.875 16.382813 C 19.371094 16.085938 20.871094 15.386719 21.667969 14.984375 C 22.867188 14.78125 24.863281 13.882813 25.660156 13.585938 Z M 28.957031 15.78125 C 28.855469 15.382813 28.65625 14.882813 28.558594 14.683594 C 28.457031 14.582031 28.457031 14.484375 28.257813 14.582031 C 27.859375 14.683594 25.363281 15.183594 23.566406 15.679688 C 21.769531 16.179688 19.773438 16.777344 19.472656 16.878906 C 19.371094 16.878906 19.273438 16.878906 19.371094 16.980469 C 19.472656 17.078125 19.472656 17.078125 19.574219 17.179688 C 19.574219 17.179688 19.671875 17.277344 19.773438 17.277344 C 19.871094 17.277344 19.871094 17.378906 19.871094 17.378906 C 19.871094 17.378906 19.972656 17.480469 19.972656 17.578125 L 20.074219 17.777344 L 20.171875 17.878906 C 20.171875 17.878906 20.171875 17.980469 20.273438 17.980469 C 20.273438 17.980469 20.371094 18.078125 20.371094 18.179688 L 20.472656 18.476563 L 23.96875 18.378906 C 23.96875 18.378906 24.664063 18.179688 25.164063 17.980469 C 25.5625 17.878906 26.660156 17.480469 27.0625 17.378906 C 27.460938 17.28125 28.261719 17.082031 28.460938 16.980469 C 28.757813 16.882813 28.960938 16.882813 28.960938 16.78125 C 28.957031 16.777344 29.054688 16.28125 28.957031 15.78125 Z M 13.683594 9.191406 C 13.683594 9.292969 13.78125 9.292969 13.78125 9.390625 C 13.78125 9.390625 13.78125 9.492188 13.882813 9.492188 C 13.882813 9.492188 13.882813 9.492188 13.980469 9.59375 C 13.980469 9.59375 13.980469 9.691406 14.082031 9.691406 C 14.082031 9.691406 14.082031 9.792969 14.183594 9.792969 C 14.183594 9.792969 14.28125 9.890625 14.28125 9.992188 C 14.28125 10.09375 14.382813 10.09375 14.480469 10.09375 C 14.582031 10.09375 14.582031 10.191406 14.582031 10.191406 C 14.582031 10.191406 14.683594 10.191406 14.78125 10.191406 L 15.082031 10.191406 C 15.082031 10.191406 15.082031 10.191406 15.082031 10.292969 C 15.082031 10.292969 15.183594 10.292969 15.28125 10.292969 C 15.382813 10.292969 15.480469 10.292969 15.480469 10.191406 L 15.582031 10.09375 L 15.683594 9.992188 C 15.683594 9.890625 15.78125 9.992188 15.78125 9.890625 L 15.882813 9.792969 C 15.882813 9.792969 15.980469 9.691406 16.082031 9.59375 L 16.382813 9.191406 L 16.480469 8.992188 C 16.480469 8.992188 16.582031 8.695313 16.582031 8.59375 L 16.679688 8.394531 C 16.679688 8.292969 16.679688 8.195313 16.679688 8.09375 C 16.679688 7.996094 16.679688 7.894531 16.78125 7.796875 C 16.78125 7.695313 16.679688 7.496094 16.679688 7.496094 L 16.679688 7.398438 C 16.679688 7.398438 16.679688 7.398438 16.679688 7.296875 L 16.679688 7.195313 C 16.679688 7.097656 16.582031 7.097656 16.582031 6.996094 C 16.582031 6.898438 16.480469 6.898438 16.480469 6.796875 C 16.480469 6.695313 16.382813 6.695313 16.382813 6.695313 L 16.382813 6.597656 C 16.382813 6.496094 16.082031 6.296875 16.082031 6.296875 C 16.082031 6.296875 15.980469 6.296875 15.980469 6.199219 L 15.882813 6.199219 C 15.78125 6.199219 15.78125 6.199219 15.78125 6.199219 C 15.78125 6.199219 15.683594 6.199219 15.582031 6.199219 L 15.480469 6.296875 C 15.382813 6.296875 15.28125 6.296875 15.28125 6.296875 L 15.183594 6.296875 L 15.082031 6.398438 L 14.882813 6.398438 C 14.882813 6.398438 14.683594 6.496094 14.683594 6.597656 C 14.683594 6.597656 14.480469 6.699219 14.480469 6.796875 C 14.382813 6.796875 14.183594 7.097656 14.183594 7.097656 C 14.183594 7.195313 13.984375 7.296875 13.984375 7.394531 C 13.984375 7.496094 13.882813 7.597656 13.882813 7.695313 C 13.882813 7.792969 13.78125 7.894531 13.78125 7.992188 C 13.78125 8.09375 13.683594 8.292969 13.683594 8.292969 C 13.683594 8.394531 13.683594 8.394531 13.582031 8.492188 C 13.582031 8.59375 13.582031 8.691406 13.582031 8.792969 C 13.582031 8.894531 13.582031 9.09375 13.683594 9.191406 C 13.582031 9.09375 13.582031 9.09375 13.683594 9.191406 Z M 11.085938 22.070313 C 11.085938 22.070313 11.085938 21.96875 11.085938 21.871094 C 11.085938 21.871094 11.1875 21.769531 11.1875 21.671875 C 11.1875 21.570313 11.285156 21.371094 11.285156 21.269531 C 11.386719 21.171875 11.386719 21.070313 11.386719 20.972656 C 11.386719 20.871094 11.484375 20.773438 11.484375 20.671875 C 11.484375 20.574219 11.585938 20.273438 11.585938 20.273438 C 11.585938 20.175781 11.6875 20.074219 11.785156 19.976563 C 11.785156 19.875 11.886719 19.675781 11.886719 19.574219 C 11.886719 19.375 12.085938 18.976563 12.183594 18.878906 C 12.183594 18.777344 12.285156 18.578125 12.285156 18.476563 L 12.386719 18.277344 L 12.386719 18.078125 C 12.386719 18.078125 12.484375 17.976563 12.484375 17.878906 C 12.484375 17.878906 12.585938 17.578125 12.585938 17.480469 C 12.585938 17.480469 12.683594 17.179688 12.785156 17.179688 C 12.785156 17.078125 12.886719 16.980469 12.886719 16.882813 C 12.886719 16.78125 12.984375 16.582031 12.984375 16.582031 C 12.984375 16.480469 13.085938 16.28125 13.085938 16.183594 C 13.085938 16.082031 13.285156 15.785156 13.285156 15.683594 C 13.285156 15.585938 13.285156 15.484375 13.386719 15.484375 C 13.386719 15.484375 13.484375 15.382813 13.484375 15.285156 C 13.484375 15.183594 13.484375 15.183594 13.484375 15.085938 C 13.484375 14.984375 13.484375 14.984375 13.484375 14.984375 C 13.484375 14.984375 13.484375 14.882813 13.386719 14.882813 C 13.285156 14.882813 13.085938 14.984375 12.984375 15.085938 C 12.785156 15.183594 11.488281 15.78125 10.589844 16.183594 C 9.789063 16.582031 8.195313 17.378906 7.195313 17.878906 C 6.296875 18.378906 4.699219 19.175781 4.199219 19.476563 C 4.300781 19.675781 4 19.875 3.902344 19.976563 C 3.800781 20.074219 3.703125 20.273438 3.703125 20.375 C 3.703125 20.472656 3.703125 20.773438 3.800781 21.074219 C 3.902344 21.371094 4.003906 21.671875 4.101563 21.773438 C 4.199219 21.871094 4.300781 21.972656 4.5 21.871094 C 4.601563 21.773438 5.300781 21.574219 5.597656 21.472656 C 5.898438 21.371094 6.296875 21.175781 6.695313 21.074219 C 7.09375 20.972656 8.09375 20.574219 8.09375 20.574219 C 8.09375 20.574219 6.796875 21.273438 6.597656 21.375 C 5.898438 21.671875 3.902344 22.773438 3.703125 22.972656 C 3.101563 23.167969 3 23.269531 3 23.566406 C 3 23.867188 3.101563 24.265625 3.300781 24.464844 C 3.398438 24.765625 3.699219 25.0625 3.898438 25.265625 C 4.097656 25.363281 4.296875 25.164063 4.496094 25.164063 C 4.695313 25.0625 7.492188 23.765625 7.890625 23.566406 C 8.191406 23.367188 10.984375 22.171875 11.085938 22.070313 Z "></path>
</g>
</svg>
