<?xml version="1.0" encoding="UTF-8"?>
<svg xmlns="http://www.w3.org/2000/svg" xmlns:xlink="http://www.w3.org/1999/xlink" viewBox="0 0 32 32" version="1.1">
<g>
<path d="M 15 2 L 15 6.8125 L 13.59375 4.40625 L 12.8125 4.8125 C 10.011719 5.914063 7 8.800781 7 13 C 7 13.800781 6.992188 14.605469 7.09375 15.40625 C 7.292969 18.40625 7.414063 21.210938 5.3125 23.3125 L 4.8125 23.8125 L 5.09375 24.40625 C 7.195313 28.804688 15.414063 30.898438 15.8125 31 L 16.1875 31 C 16.488281 30.898438 24.613281 28.898438 26.8125 24.5 L 27.09375 23.8125 L 26.6875 23.3125 C 24.585938 21.3125 24.804688 18.5 24.90625 15.5 C 24.90625 14.699219 25 13.898438 25 13 C 25 8.800781 21.988281 5.886719 19.1875 4.6875 L 18.40625 4.3125 L 17 6.8125 L 17 2 Z M 12.8125 6.90625 L 15 10.6875 L 15 11 L 15.1875 11 L 16 12.40625 L 16.8125 11 L 17 11 L 17 10.6875 L 19.1875 6.90625 C 21.1875 8.007813 23 10.101563 23 13 C 23 13.800781 23.007813 14.613281 22.90625 15.3125 C 22.707031 18.210938 22.585938 21.492188 24.6875 24.09375 C 22.886719 26.695313 18.101563 28.398438 16 29 C 13.898438 28.398438 8.988281 26.6875 7.1875 24.1875 C 9.386719 21.585938 9.199219 18.40625 9 15.40625 L 9 13 C 9 10.101563 10.8125 8.007813 12.8125 6.90625 Z M 10 15 C 10 15 11 19 13 19 C 15 19 15 17 15 17 Z M 22 15 L 17 17 C 17 17 17 19 19 19 C 21 19 22 15 22 15 Z "></path>
</g>
</svg>
