<?xml version="1.0" encoding="UTF-8"?>
<svg xmlns="http://www.w3.org/2000/svg" xmlns:xlink="http://www.w3.org/1999/xlink" viewBox="0 0 32 32" version="1.1">
<g>
<path d="M 6 3 L 6 29 L 26 29 L 26 13.4375 L 27.71875 11.71875 L 28 11.40625 L 28 3 Z M 8 5 L 22 5 L 22 11.40625 L 22.28125 11.71875 L 24 13.4375 L 24 27 L 8 27 Z M 24 5 L 26 5 L 26 10.5625 L 25 11.5625 L 24 10.5625 Z M 11 10 L 11 23 L 21 23 L 21 14.09375 L 20.71875 13.78125 L 17.21875 10.28125 L 16.90625 10 Z M 13 12 L 16 12 L 16 15 L 19 15 L 19 21 L 13 21 Z "></path>
</g>
</svg>
