<?xml version="1.0" encoding="UTF-8"?>
<svg xmlns="http://www.w3.org/2000/svg" xmlns:xlink="http://www.w3.org/1999/xlink" viewBox="0 0 32 32" version="1.1">
<g>
<path d="M 16 4 C 14.003906 4 12.300781 5.203125 11.5 6.90625 C 10.8125 6.347656 9.949219 6 9 6 C 6.800781 6 5 7.800781 5 10 C 5 10.734375 5.214844 11.40625 5.5625 12 L 4 12 L 4 26 L 22 26 L 22 22.46875 L 25.84375 23.9375 L 26 24 L 28 24 L 28 14 L 26 14 L 25.84375 14.0625 L 22 15.53125 L 22 12 L 19.96875 12 C 20.609375 11.160156 21 10.132813 21 9 C 21 6.25 18.75 4 16 4 Z M 16 6 C 17.667969 6 19 7.332031 19 9 C 19 10.667969 17.667969 12 16 12 C 14.332031 12 13 10.667969 13 9 C 13 7.332031 14.332031 6 16 6 Z M 9 8 C 10.117188 8 11 8.882813 11 10 C 11 11.117188 10.117188 12 9 12 C 7.882813 12 7 11.117188 7 10 C 7 8.882813 7.882813 8 9 8 Z M 6 14 L 20 14 L 20 24 L 6 24 Z M 8 16 L 8 18 L 13 18 L 13 16 Z M 26 16.15625 L 26 21.84375 L 22 20.3125 L 22 17.6875 Z "></path>
</g>
</svg>
