<?xml version="1.0" encoding="UTF-8"?>
<svg xmlns="http://www.w3.org/2000/svg" xmlns:xlink="http://www.w3.org/1999/xlink" viewBox="0 0 32 32" version="1.1">
<g>
<path d="M 16 3.90625 L 15.625 4.0625 L 8.90625 6.875 L 8.65625 6.96875 L 8.5 7.15625 L 4.21875 12.375 L 3.96875 12.6875 L 4 13.09375 L 4.625 20.15625 L 4.65625 20.46875 L 4.84375 20.6875 L 9 26.15625 L 9.21875 26.4375 L 9.5625 26.5 L 15.78125 27.96875 L 16 28.03125 L 16.21875 27.96875 L 22.4375 26.5 L 22.78125 26.4375 L 23 26.15625 L 27.15625 20.6875 L 27.34375 20.46875 L 27.375 20.15625 L 28 13.09375 L 28.03125 12.6875 L 27.78125 12.375 L 23.5 7.15625 L 23.34375 6.96875 L 23.09375 6.875 L 16.375 4.0625 Z M 16 6.09375 L 21.3125 8.28125 L 19.78125 11 L 12.21875 11 L 10.6875 8.28125 Z M 9.125 9.5625 L 10.71875 12.46875 L 8.25 18.21875 L 6.5 18.8125 L 6.03125 13.3125 Z M 22.875 9.5625 L 25.96875 13.3125 L 25.5 18.75 L 23.75 18.1875 L 21.28125 12.4375 Z M 12.65625 13 L 19.34375 13 L 21.78125 18.65625 L 16 22.75 L 10.21875 18.65625 Z M 14.34375 15 C 14.292969 15.152344 14.226563 15.304688 14.125 15.40625 C 14.023438 15.507813 13.933594 15.605469 13.78125 15.65625 C 13.628906 15.757813 13.464844 15.761719 13.3125 15.8125 C 13.21875 15.84375 13.109375 15.871094 13 15.875 L 13 16.46875 L 14 16.46875 L 14 20 L 15 20 L 15 15 Z M 17.53125 15 C 16.960938 15 16.625 15.242188 16.4375 15.4375 C 16.003906 15.882813 15.996094 16.476563 16 16.53125 L 16 17 L 17 17 L 17 16.53125 C 17 16.527344 17.019531 16.265625 17.15625 16.125 C 17.1875 16.09375 17.261719 16 17.53125 16 C 17.703125 16 17.839844 16.050781 17.90625 16.125 C 18.007813 16.230469 18.007813 16.429688 18 16.53125 C 18 16.945313 17.652344 17.183594 17.09375 17.5625 C 16.582031 17.910156 16.007813 18.304688 16 19 L 16 20 L 19 20 L 19 19 L 17 19 C 17.019531 18.828125 17.355469 18.609375 17.65625 18.40625 C 18.21875 18.023438 19.003906 17.488281 19 16.5625 C 19.007813 16.496094 19.035156 15.886719 18.625 15.4375 C 18.441406 15.238281 18.113281 15 17.53125 15 Z M 23.1875 20.09375 L 24.71875 20.59375 L 21.625 24.65625 L 17 25.75 L 17 24.53125 Z M 8.8125 20.125 L 15 24.53125 L 15 25.75 L 10.375 24.65625 L 7.3125 20.65625 Z "></path>
</g>
</svg>
