<?xml version="1.0" encoding="UTF-8"?>
<svg xmlns="http://www.w3.org/2000/svg" xmlns:xlink="http://www.w3.org/1999/xlink" viewBox="0 0 32 32" version="1.1">
<g>
<path d="M 16 4.03125 L 4 13.53125 L 4 16.0625 L 6 14.46875 L 6 27 L 12 27 L 12 20 C 12 17.792969 13.792969 16 16 16 C 18.207031 16 20 17.792969 20 20 L 20 27 L 26 27 L 26 14.46875 L 28 16.0625 L 28 13.53125 Z M 16 6.5625 L 24 12.90625 L 24 25 L 22 25 L 22 20 C 22 16.691406 19.308594 14 16 14 C 12.691406 14 10 16.691406 10 20 L 10 25 L 8 25 L 8 12.90625 Z "></path>
</g>
</svg>
