<?xml version="1.0" encoding="UTF-8"?>
<svg xmlns="http://www.w3.org/2000/svg" xmlns:xlink="http://www.w3.org/1999/xlink" viewBox="0 0 32 32" version="1.1">
<g>
<path d="M 16 7 C 14.542969 7 13.226563 7.796875 12.53125 9.03125 C 12.355469 9.007813 12.175781 9 12 9 C 10.140625 9 8.601563 10.28125 8.15625 12 L 10.28125 12 C 10.761719 11.207031 11.78125 10.769531 12.75 11.15625 L 13.78125 11.5625 L 14.09375 10.46875 C 14.328125 9.597656 15.105469 9 16 9 C 16.882813 9 17.648438 9.582031 17.90625 10.4375 L 18.0625 10.9375 L 18.5625 11.09375 C 18.714844 11.140625 18.867188 11.207031 19 11.28125 L 19.5 11.5625 L 20 11.28125 C 20.320313 11.09375 20.65625 11 21 11 C 21.738281 11 22.371094 11.40625 22.71875 12 L 24.84375 12 C 24.398438 10.28125 22.859375 9 21 9 C 20.515625 9 20.046875 9.074219 19.59375 9.25 C 18.9375 7.871094 17.558594 7 16 7 Z M 7.3125 13 C 6.09375 13 4.984375 13.734375 4.53125 14.875 C 3.914063 16.433594 3 19.152344 3 22 L 3 25 L 29 25 L 29 22 C 29 19.164063 28.085938 16.4375 27.46875 14.875 C 27.015625 13.730469 25.90625 13 24.6875 13 Z M 7.3125 15 L 24.6875 15 C 25.101563 15 25.476563 15.25 25.625 15.625 C 26.191406 17.058594 27 19.605469 27 22 L 27 23 L 5 23 L 5 22 C 5 19.59375 5.808594 17.054688 6.375 15.625 C 6.523438 15.25 6.898438 15 7.3125 15 Z M 12.5 17 C 11.671875 17 11 17.671875 11 18.5 C 11 18.882813 11.140625 19.234375 11.375 19.5 C 11.140625 19.765625 11 20.117188 11 20.5 C 11 21.328125 11.671875 22 12.5 22 C 13.328125 22 14 21.328125 14 20.5 C 14 20.328125 13.960938 20.15625 13.90625 20 L 18.09375 20 C 18.039063 20.15625 18 20.328125 18 20.5 C 18 21.328125 18.671875 22 19.5 22 C 20.328125 22 21 21.328125 21 20.5 C 21 20.117188 20.859375 19.765625 20.625 19.5 C 20.859375 19.234375 21 18.882813 21 18.5 C 21 17.671875 20.328125 17 19.5 17 C 18.84375 17 18.296875 17.414063 18.09375 18 L 13.90625 18 C 13.703125 17.414063 13.15625 17 12.5 17 Z "></path>
</g>
</svg>
