<?xml version="1.0" encoding="UTF-8"?>
<svg xmlns="http://www.w3.org/2000/svg" xmlns:xlink="http://www.w3.org/1999/xlink" viewBox="0 0 32 32" version="1.1">
<g>
<path d="M 13.25 3 C 13.054688 3 12.574219 3.4375 12.15625 4.0625 C 11.25 4.246094 10.515625 4.832031 10 5.5 C 9.375 6.304688 9 7.269531 9 8.25 C 9 9.089844 9.230469 9.976563 9.78125 10.71875 C 10.332031 11.460938 11.28125 12 12.40625 12 C 13.648438 12 14.671875 11.457031 15.25 10.6875 C 15.828125 9.917969 16 9.027344 16 8.21875 C 16 7.429688 15.785156 6.496094 15.3125 5.65625 C 15.011719 5.121094 14.550781 4.59375 13.9375 4.28125 C 13.765625 3.570313 13.445313 3 13.25 3 Z M 19.75 4 C 19.546875 4 19.234375 4.601563 19.0625 5.34375 C 18.527344 5.65625 18.121094 6.128906 17.8125 6.625 C 17.308594 7.4375 17 8.359375 17 9.25 C 17 10.101563 17.1875 10.992188 17.78125 11.75 C 18.375 12.507813 19.375 13 20.59375 13 C 21.6875 13 22.652344 12.523438 23.21875 11.8125 C 23.785156 11.101563 24 10.214844 24 9.375 C 24 8.230469 23.535156 7.203125 22.875 6.40625 C 22.332031 5.75 21.640625 5.230469 20.8125 5.0625 C 20.398438 4.445313 19.945313 4 19.75 4 Z M 12.75 6 C 13.085938 6 13.328125 6.1875 13.59375 6.65625 C 13.859375 7.125 14 7.828125 14 8.21875 C 14 8.707031 13.882813 9.199219 13.65625 9.5 C 13.429688 9.800781 13.144531 10 12.40625 10 C 11.863281 10 11.605469 9.8125 11.375 9.5 C 11.144531 9.1875 11 8.714844 11 8.25 C 11 7.847656 11.230469 7.1875 11.59375 6.71875 C 11.957031 6.25 12.375 6 12.75 6 Z M 20.25 7 C 20.492188 7 20.960938 7.226563 21.34375 7.6875 C 21.726563 8.148438 22 8.78125 22 9.375 C 22 9.839844 21.871094 10.292969 21.65625 10.5625 C 21.441406 10.832031 21.164063 11 20.59375 11 C 19.832031 11 19.554688 10.800781 19.34375 10.53125 C 19.132813 10.261719 19 9.808594 19 9.25 C 19 8.914063 19.1875 8.1875 19.5 7.6875 C 19.8125 7.1875 20.179688 7 20.25 7 Z M 7.84375 10 C 7.675781 10 7.28125 10.335938 7.09375 11.25 C 6.511719 11.527344 6.035156 12 5.71875 12.5 C 5.214844 13.296875 5 14.207031 5 15.09375 C 5 15.894531 5.226563 16.78125 5.78125 17.5625 C 6.335938 18.34375 7.316406 19 8.53125 19 C 9.855469 19 10.871094 18.289063 11.375 17.5 C 11.878906 16.710938 12 15.914063 12 15.34375 C 12 14.378906 11.671875 13.40625 11.0625 12.5625 C 10.546875 11.847656 9.753906 11.238281 8.78125 11.0625 C 8.40625 10.496094 7.972656 10 7.84375 10 Z M 24.15625 12 C 24.027344 12 23.59375 12.496094 23.21875 13.0625 C 22.246094 13.238281 21.453125 13.847656 20.9375 14.5625 C 20.328125 15.40625 20 16.378906 20 17.34375 C 20 17.914063 20.121094 18.710938 20.625 19.5 C 21.128906 20.289063 22.144531 21 23.46875 21 C 24.683594 21 25.664063 20.34375 26.21875 19.5625 C 26.773438 18.78125 27 17.894531 27 17.09375 C 27 16.207031 26.785156 15.296875 26.28125 14.5 C 25.960938 13.992188 25.472656 13.523438 24.875 13.25 C 24.6875 12.34375 24.324219 12 24.15625 12 Z M 8.25 13 C 8.714844 13 9.09375 13.242188 9.4375 13.71875 C 9.78125 14.195313 10 14.871094 10 15.34375 C 10 15.53125 9.910156 16.058594 9.6875 16.40625 C 9.464844 16.753906 9.234375 17 8.53125 17 C 7.953125 17 7.667969 16.773438 7.40625 16.40625 C 7.144531 16.039063 7 15.480469 7 15.09375 C 7 14.574219 7.152344 13.964844 7.40625 13.5625 C 7.660156 13.160156 7.894531 13 8.25 13 Z M 23.75 15 C 24.105469 15 24.339844 15.160156 24.59375 15.5625 C 24.847656 15.964844 25 16.574219 25 17.09375 C 25 17.480469 24.855469 18.039063 24.59375 18.40625 C 24.332031 18.773438 24.046875 19 23.46875 19 C 22.765625 19 22.535156 18.785156 22.3125 18.4375 C 22.089844 18.089844 22 17.53125 22 17.34375 C 22 16.871094 22.21875 16.195313 22.5625 15.71875 C 22.90625 15.242188 23.285156 15 23.75 15 Z M 15.5 16 C 13.601563 16 12.035156 17.546875 12 19.4375 C 11.988281 19.445313 11.945313 19.5 11.8125 19.59375 C 11.542969 19.78125 11.039063 20.035156 10.5 20.34375 C 9.960938 20.652344 9.375 21.035156 8.875 21.625 C 8.375 22.214844 8 23.039063 8 24 C 8 26.199219 9.800781 28 12 28 C 13.109375 28 13.835938 27.792969 14.28125 27.59375 C 14.726563 27.394531 14.691406 27.34375 15 27.34375 C 15.308594 27.34375 15.273438 27.394531 15.71875 27.59375 C 16.164063 27.792969 16.890625 28 18 28 C 20.199219 28 22 26.199219 22 24 C 22 23.089844 21.742188 22.3125 21.34375 21.75 C 20.945313 21.1875 20.464844 20.859375 20.0625 20.59375 C 19.660156 20.328125 19.335938 20.121094 19.1875 19.96875 C 19.039063 19.816406 19 19.777344 19 19.5 C 19 17.578125 17.421875 16 15.5 16 Z M 15.5 18 C 16.339844 18 17 18.660156 17 19.5 C 17 20.261719 17.335938 20.953125 17.75 21.375 C 18.164063 21.796875 18.589844 22.019531 18.9375 22.25 C 19.285156 22.480469 19.554688 22.671875 19.71875 22.90625 C 19.882813 23.140625 20 23.429688 20 24 C 20 25.117188 19.117188 26 18 26 C 17.109375 26 16.859375 25.882813 16.5625 25.75 C 16.265625 25.617188 15.730469 25.34375 15 25.34375 C 14.269531 25.34375 13.734375 25.617188 13.4375 25.75 C 13.140625 25.882813 12.890625 26 12 26 C 10.882813 26 10 25.117188 10 24 C 10 23.492188 10.125 23.203125 10.375 22.90625 C 10.625 22.609375 11.039063 22.324219 11.5 22.0625 C 11.960938 21.800781 12.457031 21.585938 12.9375 21.25 C 13.417969 20.914063 14 20.320313 14 19.5 C 14 18.660156 14.660156 18 15.5 18 Z "></path>
</g>
</svg>
