<?xml version="1.0" encoding="UTF-8"?>
<svg xmlns="http://www.w3.org/2000/svg" xmlns:xlink="http://www.w3.org/1999/xlink" viewBox="0 0 32 32" version="1.1">
<g>
<path d="M 17.09375 4 L 16.6875 4.15625 L 14.53125 4.90625 L 14.5 4.90625 C 12.804688 4.929688 11.75 6.1875 11.75 6.1875 L 11 7.15625 L 12.09375 7.6875 L 13.21875 8.25 L 12.34375 10.25 L 6.96875 13.875 C 6.695313 14.058594 6.457031 14.292969 6.25 14.53125 L 4.4375 13.6875 L 3.5625 15.46875 L 5.375 16.34375 C 5.230469 17.175781 5.367188 18.0625 5.8125 18.84375 L 6.28125 19.6875 C 6.550781 20.191406 6.589844 20.5625 6.5 20.96875 C 6.410156 21.375 6.175781 21.804688 5.875 22.1875 C 5.273438 22.949219 4.46875 23.46875 4.46875 23.46875 L 4 23.75 L 4 28 L 6 28 L 6 24.71875 C 6.332031 24.488281 6.792969 24.253906 7.4375 23.4375 C 7.867188 22.894531 8.261719 22.21875 8.4375 21.40625 C 8.613281 20.59375 8.546875 19.652344 8.0625 18.75 L 8.03125 18.71875 L 7.53125 17.84375 C 7.074219 17.039063 7.324219 16.050781 8.09375 15.53125 L 13.6875 11.75 L 13.90625 11.59375 L 14.03125 11.3125 L 15.4375 8.1875 L 15.84375 7.3125 L 14.96875 6.875 L 15.15625 6.8125 L 16.9375 6.1875 L 18.03125 6.75 L 18.21875 6.875 L 18.4375 6.875 L 20 6.9375 L 20 7.875 L 17.25 8.875 L 16.84375 9.03125 L 16.65625 9.4375 L 16.0625 11 L 15.75 11.78125 L 16.5 12.21875 C 16.5 12.21875 17 12.574219 17 13 L 17 14 L 19.0625 14 L 22.5625 12 L 24 12 L 24 10 L 22.03125 10 L 21.8125 10.125 L 18.59375 11.96875 C 18.421875 11.625 18.367188 11.269531 18.15625 11.0625 L 18.34375 10.59375 L 21.34375 9.5 L 22 9.25 L 22 5.0625 L 21.0625 5 L 18.75 4.875 L 17.46875 4.21875 Z M 26 5 C 24.894531 5 24 5.894531 24 7 C 24 8.105469 24.894531 9 26 9 C 27.105469 9 28 8.105469 28 7 C 28 5.894531 27.105469 5 26 5 Z M 23.09375 13 L 22.875 13.125 L 19.65625 15 L 17.28125 15 L 17.03125 15.15625 C 17.03125 15.15625 16.027344 15.78125 14.6875 16.625 C 13.832031 17.164063 11.96875 17.03125 11.96875 17.03125 L 11.59375 16.96875 L 11.28125 17.1875 L 9.3125 18.5 L 9.59375 19.25 C 10.636719 22.140625 8.28125 24.6875 8.28125 24.6875 L 8 24.96875 L 8 28 L 10 28 L 10 25.625 C 10.460938 25.09375 12.261719 22.71875 11.5625 19.40625 L 12.125 19.03125 C 12.679688 19.113281 14.222656 19.308594 15.75 18.34375 C 16.949219 17.585938 17.660156 17.117188 17.84375 17 L 20.21875 17 L 20.4375 16.875 L 23.65625 15 L 25 15 L 25 13 Z "></path>
</g>
</svg>
