<?xml version="1.0" encoding="UTF-8"?>
<svg xmlns="http://www.w3.org/2000/svg" xmlns:xlink="http://www.w3.org/1999/xlink" viewBox="0 0 32 32" version="1.1">
<g>
<path d="M 19 3 L 19 5.4375 C 17.992188 5.191406 17.027344 5.070313 16.21875 5.0625 C 14.910156 5.050781 14 5.21875 14 5.21875 L 13.5 5.3125 L 13.28125 5.78125 L 6.0625 21.34375 L 5.875 21.78125 L 6.0625 22.1875 C 6.0625 22.1875 7.496094 25.324219 11.125 27.03125 C 14.527344 28.589844 18.03125 27.84375 18.03125 27.84375 L 18.53125 27.75 L 18.71875 27.3125 L 25.96875 11.75 L 26.1875 11.28125 L 25.9375 10.8125 C 25.9375 10.8125 24.183594 7.660156 21 6.125 L 21 3 Z M 15.34375 7.09375 C 15.558594 7.082031 15.835938 7.085938 16.25 7.09375 C 17.050781 7.105469 18.039063 7.191406 19 7.46875 L 19 10.5 C 19 10.777344 18.777344 11 18.5 11 C 18.222656 11 18 10.777344 18 10.5 L 18 9.28125 C 17.40625 9.628906 17 10.261719 17 11 C 17 12.105469 17.894531 13 19 13 C 20.105469 13 21 12.105469 21 11 L 21 8.40625 C 22.621094 9.472656 23.613281 10.976563 23.90625 11.4375 L 17.15625 25.9375 C 16.535156 26.03125 14.320313 26.296875 11.96875 25.21875 C 9.355469 23.988281 8.339844 22.160156 8.09375 21.6875 L 14.84375 7.15625 C 14.980469 7.136719 15.128906 7.105469 15.34375 7.09375 Z M 26 13.84375 L 24 18.15625 L 24 25.5 C 23.367188 25.929688 21.910156 26.765625 19.90625 26.96875 L 19.3125 28.1875 L 19 29 C 22.964844 29 25.550781 26.839844 25.65625 26.75 L 26 26.46875 Z M 16.09375 14.59375 L 12.375 22.59375 L 14.1875 23.40625 L 17.90625 15.40625 Z "></path>
</g>
</svg>
