<?xml version="1.0" encoding="UTF-8"?>
<svg xmlns="http://www.w3.org/2000/svg" xmlns:xlink="http://www.w3.org/1999/xlink" viewBox="0 0 32 32" version="1.1">
<g>
<path d="M 24 3 C 21.800781 3 20 4.800781 20 7 C 20 7.714844 20.257813 8.335938 20.5625 9.03125 C 20.867188 9.726563 21.238281 10.457031 21.625 11.125 C 22.25 12.199219 22.777344 12.964844 23 13.28125 L 23 18.5 C 23 20.445313 21.445313 22 19.5 22 C 17.554688 22 16 20.445313 16 18.5 L 16 9 C 16 6.25 13.75 4 11 4 C 8.25 4 6 6.25 6 9 L 6 20.28125 C 5.402344 20.628906 5 21.261719 5 22 C 5 22.230469 5.054688 22.449219 5.125 22.65625 C 4.4375 23.207031 4 24.058594 4 25 C 4 26.644531 5.355469 28 7 28 C 8.644531 28 10 26.644531 10 25 C 10 24.058594 9.5625 23.207031 8.875 22.65625 C 8.945313 22.449219 9 22.230469 9 22 C 9 21.261719 8.597656 20.628906 8 20.28125 L 8 9 C 8 7.332031 9.332031 6 11 6 C 12.667969 6 14 7.332031 14 9 L 14 18.5 C 14 21.527344 16.472656 24 19.5 24 C 22.527344 24 25 21.527344 25 18.5 L 25 13.28125 C 25.222656 12.964844 25.75 12.199219 26.375 11.125 C 26.761719 10.457031 27.132813 9.726563 27.4375 9.03125 C 27.742188 8.335938 28 7.714844 28 7 C 28 4.800781 26.199219 3 24 3 Z M 24 5 C 25.117188 5 26 5.882813 26 7 C 26 7.113281 25.882813 7.632813 25.625 8.21875 C 25.367188 8.804688 24.988281 9.5 24.625 10.125 C 24.308594 10.667969 24.257813 10.726563 24 11.125 C 23.742188 10.726563 23.691406 10.667969 23.375 10.125 C 23.011719 9.5 22.632813 8.804688 22.375 8.21875 C 22.117188 7.632813 22 7.113281 22 7 C 22 5.882813 22.882813 5 24 5 Z M 7 24 C 7.5625 24 8 24.4375 8 25 C 8 25.5625 7.5625 26 7 26 C 6.4375 26 6 25.5625 6 25 C 6 24.4375 6.4375 24 7 24 Z "></path>
</g>
</svg>
