<?xml version="1.0" encoding="UTF-8"?>
<svg xmlns="http://www.w3.org/2000/svg" xmlns:xlink="http://www.w3.org/1999/xlink" viewBox="0 0 32 32" version="1.1">
<g>
<path d="M 4 6 C 3.558594 6 3.160156 6.203125 2.90625 6.4375 C 2.652344 6.671875 2.5 6.957031 2.34375 7.25 C 2.035156 7.839844 1.816406 8.539063 1.625 9.40625 C 1.238281 11.140625 1 13.453125 1 16 C 1 18.546875 1.238281 20.859375 1.625 22.59375 C 1.816406 23.460938 2.035156 24.160156 2.34375 24.75 C 2.5 25.042969 2.652344 25.328125 2.90625 25.5625 C 3.160156 25.796875 3.558594 26 4 26 L 28 26 C 28.441406 26 28.839844 25.796875 29.09375 25.5625 C 29.347656 25.328125 29.5 25.042969 29.65625 24.75 C 29.964844 24.160156 30.183594 23.460938 30.375 22.59375 C 30.761719 20.859375 31 18.546875 31 16 C 31 13.453125 30.761719 11.140625 30.375 9.40625 C 30.183594 8.539063 29.964844 7.839844 29.65625 7.25 C 29.5 6.957031 29.347656 6.671875 29.09375 6.4375 C 28.839844 6.203125 28.441406 6 28 6 Z M 4.21875 8 L 27.78125 8 C 27.8125 8.039063 27.851563 8.078125 27.90625 8.1875 C 28.074219 8.511719 28.269531 9.082031 28.4375 9.84375 C 28.484375 10.054688 28.519531 10.296875 28.5625 10.53125 C 26.390625 10.898438 24.421875 12.503906 23.0625 14.8125 C 22.511719 13.078125 22.34375 10.769531 22.34375 9 L 20.34375 9 C 20.34375 10.898438 20.425781 13.378906 21.1875 15.53125 C 20.222656 15.382813 19.324219 15.429688 18.53125 15.71875 C 18.179688 15.847656 17.863281 16.027344 17.5625 16.21875 C 17.566406 15.667969 17.523438 15.121094 17.46875 14.5625 C 17.300781 12.914063 17 11.167969 17 9 L 15 9 C 15 11.359375 15.34375 13.214844 15.5 14.75 C 15.589844 15.65625 15.601563 16.421875 15.5 17.15625 C 14.859375 16.527344 14.15625 16 13.3125 15.75 C 12.523438 15.515625 11.675781 15.503906 10.78125 15.625 C 11.574219 13.449219 11.65625 10.925781 11.65625 9 L 9.65625 9 C 9.65625 10.78125 9.464844 13.105469 8.90625 14.84375 C 7.027344 11.765625 3.953125 10.71875 3.4375 10.5625 C 3.480469 10.316406 3.515625 10.0625 3.5625 9.84375 C 3.730469 9.082031 3.925781 8.511719 4.09375 8.1875 C 4.148438 8.078125 4.1875 8.039063 4.21875 8 Z M 28.84375 12.53125 C 28.945313 13.59375 29 14.761719 29 16 C 29 16.675781 29 17.335938 28.96875 17.96875 C 28.4375 17.722656 27.386719 17.105469 26.6875 15.90625 C 26.238281 16.367188 25.8125 16.941406 25.4375 17.625 C 26.785156 19.378906 28.582031 20 28.6875 20.03125 C 28.707031 20.039063 28.730469 20.027344 28.75 20.03125 C 28.660156 20.820313 28.570313 21.554688 28.4375 22.15625 C 28.269531 22.917969 28.074219 23.488281 27.90625 23.8125 C 27.851563 23.921875 27.8125 23.960938 27.78125 24 L 22.71875 24 C 22.265625 23.34375 21.246094 21.683594 20.75 19.40625 C 20.023438 19.328125 19.390625 19.515625 18.8125 19.96875 C 19.195313 21.664063 19.828125 23.023438 20.375 24 L 11.625 24 C 12.164063 23.027344 12.808594 21.632813 13.1875 19.96875 C 12.703125 19.640625 12.058594 19.464844 11.21875 19.53125 C 10.710938 21.75 9.722656 23.363281 9.28125 24 L 4.21875 24 C 4.1875 23.960938 4.148438 23.921875 4.09375 23.8125 C 3.925781 23.488281 3.730469 22.917969 3.5625 22.15625 C 3.464844 21.710938 3.390625 21.207031 3.3125 20.65625 C 3.367188 20.636719 3.414063 20.625 3.46875 20.59375 C 3.578125 20.53125 5.417969 19.496094 6.71875 17.75 C 6.378906 17.0625 5.917969 16.511719 5.4375 16.0625 C 4.777344 17.179688 3.742188 17.984375 3.09375 18.4375 C 3.042969 17.660156 3 16.851563 3 16 C 3 14.773438 3.054688 13.617188 3.15625 12.5625 C 4.023438 12.832031 6.980469 13.949219 8 17.28125 L 8.3125 18.28125 L 9.28125 17.9375 C 10.699219 17.449219 11.847656 17.417969 12.75 17.6875 C 13.652344 17.957031 14.386719 18.542969 15.0625 19.5625 L 15.375 20 L 16.625 20 L 16.9375 19.5625 C 17.609375 18.589844 18.347656 17.910156 19.21875 17.59375 C 20.089844 17.277344 21.160156 17.253906 22.65625 17.90625 L 23.59375 18.34375 L 23.96875 17.375 C 25.042969 14.636719 27.09375 12.878906 28.84375 12.53125 Z "></path>
</g>
</svg>
