<?xml version="1.0" encoding="UTF-8"?>
<svg xmlns="http://www.w3.org/2000/svg" xmlns:xlink="http://www.w3.org/1999/xlink" viewBox="0 0 32 32" version="1.1">
<g>
<path d="M 29.449219 24 C 29.210938 24 29.03125 23.882813 28.914063 23.644531 C 28.851563 23.527344 23.175781 11.910156 12.71875 12.148438 C 10.390625 12.207031 9.195313 12.800781 8.535156 13.332031 L 10.925781 13.332031 C 20.1875 13.332031 23.296875 19.320313 23.414063 19.613281 C 23.535156 19.851563 23.476563 20.148438 23.234375 20.324219 C 22.996094 20.503906 22.699219 20.503906 22.460938 20.324219 C 21.324219 19.378906 18.035156 17.71875 14.511719 16.890625 C 15.289063 18.015625 16.601563 18.785156 16.601563 18.785156 C 16.84375 18.902344 16.960938 19.199219 16.902344 19.4375 C 16.84375 19.675781 16.601563 19.851563 16.304688 19.851563 C 11.824219 19.851563 9.910156 17.304688 9.371094 16.355469 C 7.160156 16.472656 5.789063 17.066406 4.832031 17.539063 L 4.59375 17.660156 C 3.339844 18.191406 2.5625 17.835938 2.203125 17.304688 C 1.785156 16.652344 1.964844 15.46875 3.21875 14.28125 C 4.710938 9.007813 9.910156 8.59375 12.121094 8.59375 C 13.914063 8.59375 15.707031 8.828125 17.320313 9.304688 C 18.15625 8.769531 19.589844 8 21.085938 8 C 22.757813 8 23.773438 8.652344 23.835938 8.710938 C 24.011719 8.828125 24.132813 9.066406 24.074219 9.304688 C 24.011719 9.539063 23.894531 9.71875 23.652344 9.777344 C 22.996094 9.957031 21.921875 10.488281 21.742188 10.964844 C 21.742188 11.023438 21.683594 11.199219 21.863281 11.496094 C 28.074219 15.703125 29.929688 22.933594 29.988281 23.289063 C 30.046875 23.585938 29.867188 23.882813 29.628906 24 C 29.570313 24 29.511719 24 29.449219 24 Z "></path>
</g>
</svg>
