<?xml version="1.0" encoding="UTF-8"?>
<svg xmlns="http://www.w3.org/2000/svg" xmlns:xlink="http://www.w3.org/1999/xlink" viewBox="0 0 32 32" version="1.1">
<g>
<path d="M 10.40625 5 C 8.441406 5 6.53125 6.125 6.53125 6.125 L 6 6.40625 L 6 7.84375 L 6.6875 8.09375 C 6.6875 8.09375 8.234375 8.804688 9.40625 9.71875 C 4.945313 13.527344 4.933594 19.226563 5 20.53125 C 4.640625 20.714844 4.359375 20.753906 3.78125 21.34375 C 2.882813 22.261719 2 23.804688 2 26 L 2 27 L 3 27 C 4.164063 27 5.523438 26.863281 6.71875 26.3125 C 7.152344 26.113281 7.515625 25.726563 7.875 25.375 C 7.90625 25.390625 7.90625 25.421875 7.9375 25.4375 C 8.578125 25.742188 9.539063 26 11 26 L 12 26 L 12 25 C 12 22.953125 11.121094 21.625 10.09375 20.71875 C 10.429688 18.496094 11.871094 17.132813 13.4375 16.25 C 14.339844 15.742188 14.597656 15.746094 15.21875 15.5625 C 15.15625 16.089844 15 16.273438 15 17 L 15 18 L 16 18 C 17.296875 18 18.285156 17.210938 19.09375 16.46875 C 19.695313 15.914063 20.042969 15.445313 20.34375 15.0625 C 20.171875 16.023438 20 16.96875 20 16.96875 C 21.667969 17.136719 22.878906 16.265625 23.53125 14.9375 C 24.90625 14.902344 26.128906 14.863281 27 14.75 C 27.785156 14.644531 28.394531 14.535156 28.9375 14.25 C 29.480469 13.964844 30 13.292969 30 12.625 C 30 12.25 29.917969 12.109375 29.8125 11.875 C 29.707031 11.640625 29.554688 11.414063 29.34375 11.15625 C 29.023438 10.761719 28.433594 10.410156 27.8125 10.09375 C 27.527344 9.164063 26.980469 8.066406 25.875 7.0625 C 24.617188 5.917969 22.695313 5 20.125 5 C 18.308594 5 16.878906 5.335938 15.90625 5.6875 C 15.300781 5.90625 15.195313 6.007813 14.9375 6.15625 C 14.699219 6 14.636719 5.917969 14.15625 5.71875 C 13.292969 5.359375 12.035156 5 10.40625 5 Z M 10.40625 7 C 11.753906 7 12.757813 7.292969 13.40625 7.5625 C 14.054688 7.832031 14.28125 8.03125 14.28125 8.03125 L 14.875 8.5 L 15.5 8.09375 C 15.5 8.09375 15.8125 7.84375 16.59375 7.5625 C 17.375 7.28125 18.558594 7 20.125 7 C 22.242188 7 23.609375 7.695313 24.53125 8.53125 C 25.453125 9.367188 25.914063 10.414063 26.03125 10.9375 L 26.15625 11.46875 L 26.65625 11.65625 C 27.234375 11.859375 27.578125 12.15625 27.78125 12.40625 C 27.8125 12.441406 27.820313 12.464844 27.84375 12.5 C 27.640625 12.582031 27.328125 12.707031 26.75 12.78125 C 25.402344 12.957031 23.148438 13 19.96875 13 L 19.46875 13 L 19.15625 13.40625 C 18.941406 13.691406 18.40625 14.394531 17.75 15 C 17.5625 15.171875 17.441406 15.148438 17.25 15.28125 C 17.328125 14.855469 17.34375 14.09375 17.4375 13.84375 C 17.542969 13.566406 17.664063 13.378906 17.78125 13.09375 C 17.898438 12.808594 18 12.421875 18 12 L 16 12 C 16 12.101563 15.976563 12.140625 15.90625 12.3125 C 15.835938 12.484375 15.707031 12.777344 15.5625 13.15625 C 15.554688 13.175781 15.570313 13.230469 15.5625 13.25 C 14.847656 13.429688 13.792969 13.753906 12.46875 14.5 C 10.480469 15.621094 8.277344 17.640625 8 20.90625 L 7.96875 21.5 L 8.4375 21.84375 C 9.0625 22.261719 9.5 22.898438 9.75 23.8125 C 9.472656 23.75 8.941406 23.71875 8.8125 23.65625 C 8.789063 23.644531 8.800781 23.636719 8.78125 23.625 C 8.828125 23.402344 9 23.246094 9 23 L 7 23 C 7 23.785156 6.644531 24.113281 5.875 24.46875 C 5.429688 24.671875 4.804688 24.699219 4.21875 24.78125 C 4.4375 23.882813 4.796875 23.179688 5.21875 22.75 C 5.820313 22.132813 6.34375 21.9375 6.34375 21.9375 L 7.0625 21.65625 L 7 20.90625 C 7 20.90625 6.421875 13.898438 11.5625 10.5 L 12.46875 9.90625 L 11.78125 9.03125 C 11.121094 8.222656 10.253906 7.734375 9.46875 7.28125 C 9.886719 7.160156 10.058594 7 10.40625 7 Z M 23.5 11 C 23.222656 11 23 11.222656 23 11.5 C 23 11.777344 23.222656 12 23.5 12 C 23.777344 12 24 11.777344 24 11.5 C 24 11.222656 23.777344 11 23.5 11 Z "></path>
</g>
</svg>
