<?xml version="1.0"?>
<svg xmlns="http://www.w3.org/2000/svg" viewBox="0 0 32 32">
    <path d="M 15.730469 1.0058594 C 12.536302 1.1121752 9.799454 3.100464 8.6210938 5.9042969 C 7.7489514 7.9819599 9.589136 10.355523 11.886719 9.9511719 C 13.003302 9.7544922 13.780059 8.9495584 14.214844 8.0957031 C 14.598283 7.342138 15.420199 6.855419 16.394531 7.0371094 C 17.318458 7.2092576 18 8.109452 18 9.1152344 L 18 12 L 11 12 C 9.3550302 12 8 13.35503 8 15 L 8 27 C 8 28.64497 9.3550302 30 11 30 L 21 30 C 22.64497 30 24 28.64497 24 27 L 24 9.28125 C 24 4.9851543 20.717503 1.2082997 16.375 1.0097656 C 16.158316 0.99980642 15.943413 0.99877165 15.730469 1.0058594 z M 16.283203 3.0078125 C 19.508703 3.1552784 22 6.0013457 22 9.28125 L 22 27 C 22 27.56503 21.56503 28 21 28 L 11 28 C 10.43497 28 10 27.56503 10 27 L 10 15 C 10 14.43497 10.43497 14 11 14 L 20 14 L 20 9.1152344 C 20 7.2050167 18.703792 5.4321643 16.761719 5.0703125 C 14.926653 4.7281152 13.202528 5.6798815 12.433594 7.1894531 C 12.204393 7.6387045 11.866058 7.9251675 11.541016 7.9824219 C 10.656598 8.1380704 10.164986 7.3920713 10.464844 6.6777344 C 11.405926 4.4384894 13.658146 2.8871598 16.283203 3.0078125 z M 12 17 L 12 19 L 18 19 L 18 17 L 12 17 z M 12 21 L 12 23 L 16 23 L 16 21 L 12 21 z" font-weight="400" font-family="sans-serif" white-space="normal" overflow="visible"></path>
</svg>
