<?xml version="1.0" encoding="UTF-8"?>
<svg xmlns="http://www.w3.org/2000/svg" xmlns:xlink="http://www.w3.org/1999/xlink" viewBox="0 0 32 32" version="1.1">
<g>
<path d="M 16.78125 4.03125 L 8.875 5.03125 L 8 5.125 L 8 26.90625 L 8.875 27 L 16.78125 28 L 18 28 L 18 4.03125 Z M 19 5 L 19 7 L 22 7 L 22 25 L 19 25 L 19 27 L 24 27 L 24 5 Z M 16 6.125 L 16 25.875 L 10 25.125 L 10 6.875 Z M 4.1875 11.5 C 3.4375 12.765625 3 14.347656 3 16.03125 C 3 17.714844 3.4375 19.265625 4.1875 20.53125 L 5.90625 19.5 C 5.351563 18.5625 5 17.367188 5 16.03125 C 5 14.695313 5.351563 13.46875 5.90625 12.53125 Z M 27.8125 11.5 L 26.09375 12.53125 C 26.648438 13.46875 27 14.695313 27 16.03125 C 27 17.367188 26.648438 18.5625 26.09375 19.5 L 27.8125 20.53125 C 28.5625 19.265625 29 17.714844 29 16.03125 C 29 14.347656 28.5625 12.765625 27.8125 11.5 Z M 14.5 16 C 14.222656 16 14 16.449219 14 17 C 14 17.550781 14.222656 18 14.5 18 C 14.777344 18 15 17.550781 15 17 C 15 16.449219 14.777344 16 14.5 16 Z "></path>
</g>
</svg>
