<?xml version="1.0" encoding="UTF-8"?>
<svg xmlns="http://www.w3.org/2000/svg" xmlns:xlink="http://www.w3.org/1999/xlink" viewBox="0 0 32 32" version="1.1">
<g>
<path d="M 16 3 C 12.820313 3 9.6875 4.0625 9.6875 4.0625 L 9.15625 4.21875 L 9.03125 4.75 C 9.03125 4.75 8.34375 7.5625 8.09375 12.46875 L 3.28125 17.28125 L 4.71875 18.71875 L 8 15.4375 C 8 15.628906 8 15.800781 8 16 C 8 16.703125 8.011719 17.355469 8.03125 18 L 8 18 C 8 18.191406 8.027344 18.351563 8.03125 18.53125 C 8.042969 18.96875 8.058594 19.382813 8.09375 19.75 C 8.351563 24.519531 9.03125 27.25 9.03125 27.25 L 9.15625 27.78125 L 9.6875 27.9375 C 9.6875 27.9375 12.71875 29 16 29 C 19.28125 29 22.3125 27.9375 22.3125 27.9375 L 22.84375 27.78125 L 22.96875 27.25 C 22.96875 27.25 23.644531 24.492188 23.90625 19.78125 C 23.941406 19.390625 23.957031 18.964844 23.96875 18.5 C 23.972656 18.328125 24 18.183594 24 18 L 23.96875 18 C 23.988281 17.355469 24 16.703125 24 16 C 24 15.800781 24 15.628906 24 15.4375 L 27.28125 18.71875 L 28.71875 17.28125 L 23.90625 12.46875 C 23.652344 7.605469 22.96875 4.75 22.96875 4.75 L 22.84375 4.21875 L 22.3125 4.0625 C 22.3125 4.0625 19.179688 3 16 3 Z M 16 5 C 18.300781 5 20.410156 5.570313 21.125 5.78125 C 21.238281 6.28125 21.664063 8.3125 21.875 11.9375 C 20.957031 11.660156 18.523438 11 16 11 C 13.476563 11 11.042969 11.660156 10.125 11.9375 C 10.332031 8.28125 10.761719 6.277344 10.875 5.78125 C 11.589844 5.570313 13.699219 5 16 5 Z M 16 13 C 18.582031 13 21.210938 13.785156 21.5 13.875 C 21.535156 13.910156 21.558594 13.972656 21.625 14.09375 C 21.78125 14.375 22 14.929688 22 16 C 22 17.546875 21.945313 18.929688 21.875 20.125 C 21.867188 20.234375 21.851563 20.300781 21.84375 20.40625 C 21.761719 20.9375 21.660156 21.363281 21.5625 21.65625 C 21.480469 21.910156 21.402344 22.046875 21.34375 22.15625 C 20.871094 22.304688 18.570313 23 16 23 C 13.429688 23 11.128906 22.304688 10.65625 22.15625 C 10.597656 22.039063 10.523438 21.914063 10.4375 21.65625 C 10.335938 21.34375 10.207031 20.910156 10.125 20.34375 C 10.117188 20.285156 10.132813 20.21875 10.125 20.15625 C 10.054688 18.957031 10 17.5625 10 16 C 10 15.046875 10.199219 14.457031 10.375 14.125 C 10.503906 13.878906 10.535156 13.898438 10.5625 13.875 C 10.929688 13.761719 13.460938 13 16 13 Z M 10.53125 24.1875 C 11.636719 24.5 13.722656 25 16 25 C 18.277344 25 20.363281 24.5 21.46875 24.1875 C 21.320313 25.210938 21.183594 25.96875 21.125 26.21875 C 20.429688 26.429688 18.394531 27 16 27 C 13.605469 27 11.570313 26.429688 10.875 26.21875 C 10.816406 25.96875 10.683594 25.214844 10.53125 24.1875 Z "></path>
</g>
</svg>
