<?xml version="1.0" encoding="UTF-8"?>
<svg xmlns="http://www.w3.org/2000/svg" xmlns:xlink="http://www.w3.org/1999/xlink" viewBox="0 0 32 32" version="1.1">
<g>
<path d="M 4 8 L 4 24 L 5 24 C 14.570313 24 16 18.988281 16 16 C 16 15.085938 15.835938 13.699219 15.09375 12.34375 C 14.480469 12.65625 13.960938 13.175781 13.59375 13.8125 C 13.847656 14.441406 14 15.160156 14 16 C 14 19.753906 11.308594 21.75 6 21.96875 L 6 10.03125 C 6.898438 10.070313 7.8125 10.160156 8.6875 10.34375 C 9.09375 9.726563 9.570313 9.164063 10.09375 8.65625 C 8.726563 8.253906 7.058594 8 5 8 Z M 16.5 8 C 12.363281 8 9 11.589844 9 16 C 9 17.179688 9.253906 18.300781 9.6875 19.3125 C 10.503906 18.988281 11.035156 18.585938 11.375 18.15625 C 11.140625 17.488281 11 16.757813 11 16 C 11 12.691406 13.46875 10 16.5 10 C 16.558594 10 16.601563 9.996094 16.65625 10 C 16.949219 9.339844 17.363281 8.695313 17.875 8.125 C 17.429688 8.035156 16.96875 8 16.5 8 Z M 23 8 C 19.09375 8 18.023438 11.261719 18 13 C 18 13.203125 18.015625 13.398438 18.03125 13.5625 C 18.039063 13.648438 18.050781 13.730469 18.0625 13.8125 C 18.070313 13.875 18.082031 13.945313 18.09375 14 C 18.109375 14.074219 18.136719 14.148438 18.15625 14.21875 C 18.203125 14.367188 18.25 14.5 18.3125 14.59375 C 18.652344 15.457031 19.246094 16.058594 19.96875 16.46875 C 19.984375 16.3125 20 16.15625 20 16 L 20 13 C 20 12.921875 20.007813 12.703125 20.0625 12.40625 C 20.230469 11.515625 20.839844 10 23 10 C 25.789063 10 25.988281 12.496094 26 13 L 28 13 C 27.976563 11.273438 26.90625 8 23 8 Z M 22.65625 12 C 22.300781 12.046875 21.890625 12.25 21.875 13 L 21.875 14.75 C 21.914063 14.953125 21.949219 15.132813 21.96875 15.34375 C 21.992188 15.558594 22 15.777344 22 16 C 22 16.207031 21.992188 16.425781 21.96875 16.625 C 21.964844 16.65625 21.972656 16.6875 21.96875 16.71875 C 21.945313 16.886719 21.90625 17.054688 21.875 17.21875 C 21.828125 17.449219 21.785156 17.6875 21.71875 17.90625 C 21.722656 18.160156 21.871094 19.847656 23 19.96875 C 23.503906 19.035156 23.820313 17.992188 23.9375 16.875 C 23.96875 16.589844 24 16.296875 24 16 C 24 15.894531 24.003906 15.792969 24 15.6875 C 23.988281 15.683594 23.980469 15.691406 23.96875 15.6875 C 23.917969 14.351563 23.59375 13.089844 23 12 C 22.914063 12 22.773438 11.984375 22.65625 12 Z M 25.96875 16.4375 C 25.9375 17.199219 25.820313 17.957031 25.625 18.6875 C 25.871094 18.996094 26 19.378906 26 19.90625 C 25.964844 20.253906 25.664063 22 23.0625 22 C 22.808594 21.984375 20.9375 21.8125 20.25 20.28125 C 20.195313 20.164063 20.164063 20.039063 20.125 19.90625 C 20.050781 19.636719 20 19.34375 20 19 L 18 19 C 18 22.289063 20.480469 23.578125 22.28125 23.90625 C 22.539063 23.953125 22.78125 23.988281 23 24 C 26.714844 24 27.894531 21.433594 28 20 C 28 18.117188 27.105469 17.074219 25.96875 16.4375 Z M 16 21.96875 C 15.527344 22.558594 14.964844 23.117188 14.25 23.625 C 14.960938 23.863281 15.71875 24 16.5 24 C 16.988281 24 17.472656 23.941406 17.9375 23.84375 C 17.414063 23.328125 16.960938 22.722656 16.625 22 C 16.582031 22 16.542969 22 16.5 22 C 16.335938 22 16.160156 21.984375 16 21.96875 Z "></path>
</g>
</svg>
