<?xml version="1.0" encoding="UTF-8"?>
<svg xmlns="http://www.w3.org/2000/svg" xmlns:xlink="http://www.w3.org/1999/xlink" viewBox="0 0 32 32" version="1.1">
<g>
<path d="M 16 6 C 12.773438 6 9.597656 6.902344 7.15625 8.59375 C 5.648438 9.636719 4.410156 11.015625 3.6875 12.65625 C 3.679688 12.675781 3.664063 12.699219 3.65625 12.71875 C 3.226563 13.71875 3 14.820313 3 16 C 3 19.15625 4.710938 21.75 7.15625 23.4375 C 9.601563 25.125 12.777344 26 16 26 C 19.222656 26 22.398438 25.125 24.84375 23.4375 C 27.097656 21.882813 28.699219 19.554688 28.9375 16.71875 C 28.949219 16.664063 28.929688 16.617188 28.9375 16.5625 C 28.945313 16.425781 28.996094 16.296875 29 16.15625 C 29 16.101563 29 16.054688 29 16 C 29 12.839844 27.289063 10.25 24.84375 8.5625 C 22.398438 6.875 19.222656 6 16 6 Z M 16 8 C 17.746094 8 19.476563 8.316406 21.03125 8.875 C 21.023438 8.917969 21 8.953125 21 9 C 21 9.550781 21.449219 10 22 10 C 22.300781 10 22.566406 9.867188 22.75 9.65625 C 23.082031 9.835938 23.417969 10.011719 23.71875 10.21875 C 25.757813 11.625 27 13.546875 27 16 C 27 16.054688 27 16.105469 27 16.15625 C 27 16.242188 26.972656 16.324219 26.96875 16.40625 C 26.964844 16.40625 26.945313 16.441406 26.75 16.59375 C 26.722656 16.617188 26.613281 16.648438 26.28125 16.71875 C 25.949219 16.789063 25.4375 16.902344 24.90625 17.25 C 24.226563 17.695313 23.894531 18.292969 23.75 18.53125 C 23.605469 18.769531 23.796875 18.664063 23.53125 18.71875 C 22.609375 18.910156 21.757813 18.5625 20.59375 18.875 C 19.480469 19.175781 18.9375 19.75 18.5 19.84375 C 18.203125 19.90625 17.980469 19.847656 17.59375 19.6875 C 17.207031 19.527344 16.699219 19.1875 15.9375 19.1875 C 15.183594 19.1875 14.746094 19.5 14.25 19.6875 C 13.753906 19.875 13.277344 19.992188 12.96875 19.96875 C 12.515625 19.933594 11.875 19.628906 11.28125 19.28125 C 10.6875 18.933594 10.289063 18.558594 9.65625 18.3125 C 8.902344 18.019531 8.265625 18.230469 7.9375 18.28125 C 7.609375 18.332031 7.566406 18.351563 7.28125 18.15625 C 6.859375 17.863281 6.707031 17.652344 6.46875 17.3125 C 6.238281 16.988281 5.871094 16.5 5.25 16.21875 C 5.226563 16.171875 5.164063 16.019531 5.15625 15.75 C 5.15625 15.6875 5.152344 15.601563 5.15625 15.53125 C 5.332031 15.808594 5.644531 16 6 16 C 6.550781 16 7 15.550781 7 15 C 7 14.449219 6.550781 14 6 14 C 5.761719 14 5.546875 14.082031 5.375 14.21875 C 5.445313 13.898438 5.515625 13.59375 5.625 13.21875 C 6.183594 12.042969 7.09375 11.042969 8.28125 10.21875 C 9.382813 9.457031 10.714844 8.878906 12.15625 8.5 C 12.332031 8.792969 12.636719 9 13 9 C 13.496094 9 13.890625 8.628906 13.96875 8.15625 C 14.636719 8.066406 15.320313 8 16 8 Z M 16 10 C 14.726563 10 13.574219 10.300781 12.65625 10.875 C 11.738281 11.449219 11 12.378906 11 13.5 C 11 14.621094 11.738281 15.550781 12.65625 16.125 C 13.574219 16.699219 14.726563 17 16 17 C 17.273438 17 18.425781 16.699219 19.34375 16.125 C 20.261719 15.550781 21 14.621094 21 13.5 C 21 12.378906 20.261719 11.449219 19.34375 10.875 C 18.425781 10.300781 17.273438 10 16 10 Z M 9 11 C 8.449219 11 8 11.449219 8 12 C 8 12.550781 8.449219 13 9 13 C 9.550781 13 10 12.550781 10 12 C 10 11.449219 9.550781 11 9 11 Z M 16 12 C 16.9375 12 17.78125 12.261719 18.3125 12.59375 C 18.84375 12.925781 19 13.242188 19 13.5 C 19 13.757813 18.84375 14.074219 18.3125 14.40625 C 17.78125 14.738281 16.9375 15 16 15 C 15.0625 15 14.21875 14.738281 13.6875 14.40625 C 13.15625 14.074219 13 13.757813 13 13.5 C 13 13.242188 13.15625 12.925781 13.6875 12.59375 C 14.21875 12.261719 15.0625 12 16 12 Z M 25 12 C 24.449219 12 24 12.449219 24 13 C 24 13.550781 24.449219 14 25 14 C 25.550781 14 26 13.550781 26 13 C 26 12.449219 25.550781 12 25 12 Z M 23 15 C 22.449219 15 22 15.449219 22 16 C 22 16.550781 22.449219 17 23 17 C 23.550781 17 24 16.550781 24 16 C 24 15.449219 23.550781 15 23 15 Z M 11 16 C 10.449219 16 10 16.449219 10 17 C 10 17.550781 10.449219 18 11 18 C 11.550781 18 12 17.550781 12 17 C 12 16.449219 11.550781 16 11 16 Z M 26.375 18.75 C 25.816406 19.933594 24.914063 20.957031 23.71875 21.78125 C 21.683594 23.1875 18.851563 24 16 24 C 13.148438 24 10.320313 23.191406 8.28125 21.78125 C 7.484375 21.230469 6.808594 20.585938 6.28125 19.875 C 6.988281 20.308594 7.753906 20.320313 8.21875 20.25 C 8.710938 20.175781 8.863281 20.160156 8.9375 20.1875 C 8.929688 20.183594 9.585938 20.589844 10.28125 21 C 10.976563 21.410156 11.808594 21.859375 12.8125 21.9375 C 13.660156 22.003906 14.371094 21.742188 14.9375 21.53125 C 15.503906 21.320313 15.996094 21.1875 15.9375 21.1875 C 16 21.1875 16.3125 21.324219 16.8125 21.53125 C 17.3125 21.738281 18.050781 21.960938 18.90625 21.78125 C 20.078125 21.535156 20.699219 20.925781 21.125 20.8125 C 21.367188 20.746094 22.507813 20.949219 23.9375 20.65625 C 24.6875 20.5 25.261719 19.90625 25.46875 19.5625 C 25.675781 19.21875 25.683594 19.144531 26 18.9375 C 26.125 18.855469 26.242188 18.789063 26.375 18.75 Z "></path>
</g>
</svg>
