<?xml version="1.0" encoding="UTF-8"?>
<svg xmlns="http://www.w3.org/2000/svg" xmlns:xlink="http://www.w3.org/1999/xlink" viewBox="0 0 32 32" version="1.1">
<g>
<path d="M 17.15625 1.84375 C 15.761719 4.125 13.171875 5.355469 10.6875 7.34375 C 9.289063 8.464844 8.003906 9.902344 7.125 11.875 C 6.671875 10.90625 6.070313 10.226563 5.5625 9.71875 L 4.15625 11.15625 C 4.699219 11.699219 5.078125 12.082031 5.40625 12.90625 C 5.734375 13.730469 6 15.019531 6 17.21875 L 6 17.4375 C 6 17.480469 6 17.519531 6 17.5625 C 6 17.859375 6.015625 18.316406 6.03125 18.90625 C 5.222656 18.390625 4.210938 18 3 18 L 3 20 C 3.953125 20 4.691406 20.359375 5.28125 20.8125 C 5.863281 21.257813 6.277344 21.789063 6.40625 22.0625 C 6.410156 22.070313 6.402344 22.085938 6.40625 22.09375 C 8.039063 26.054688 11.304688 29 16.15625 29 C 19.015625 29 21.605469 27.742188 23.5 25.71875 L 23.53125 25.75 C 23.546875 25.734375 23.546875 25.703125 23.5625 25.6875 C 23.835938 25.425781 24.097656 25.171875 24.3125 24.875 C 24.328125 24.855469 24.332031 24.832031 24.34375 24.8125 C 24.957031 24.203125 25.777344 23.710938 27.71875 23.5 L 27.53125 21.53125 C 26.769531 21.613281 26.136719 21.777344 25.5625 21.96875 C 25.988281 20.160156 26 18.15625 26 16.28125 C 26 15.417969 26.628906 13.527344 28.34375 11.8125 L 26.9375 10.375 C 26.292969 11.019531 25.800781 11.6875 25.375 12.34375 C 25.078125 11.496094 24.699219 10.757813 24.25 10.125 C 23.214844 8.664063 21.902344 7.75 20.78125 7.03125 C 19.660156 6.3125 18.738281 5.746094 18.40625 5.28125 C 18.238281 5.050781 18.183594 4.855469 18.1875 4.5625 C 18.191406 4.269531 18.292969 3.84375 18.625 3.21875 C 18.703125 3.101563 18.800781 3 18.875 2.875 Z M 16.1875 8.4375 C 18.726563 8.4375 20.660156 9.28125 21.96875 10.5 C 21.988281 10.519531 22.011719 10.542969 22.03125 10.5625 C 22.238281 10.785156 22.441406 11.023438 22.625 11.28125 C 23.421875 12.40625 24 13.925781 24 16.28125 C 24 19.582031 23.804688 22.6875 22.1875 24.25 C 22.175781 24.261719 22.167969 24.269531 22.15625 24.28125 C 22.140625 24.300781 22.109375 24.328125 22.09375 24.34375 C 20.546875 26.015625 18.464844 27 16.15625 27 C 12.101563 27 9.707031 24.828125 8.28125 21.40625 C 8.277344 21.398438 8.285156 21.382813 8.28125 21.375 C 8.273438 21.351563 8.257813 21.335938 8.25 21.3125 C 8.113281 20.773438 8.027344 19.917969 8 19.125 C 7.96875 18.292969 8 17.550781 8 17.21875 C 8.019531 16.234375 8.125 15.394531 8.28125 14.625 C 8.996094 12.015625 11.308594 8.4375 16.1875 8.4375 Z M 18.5 11 C 18.222656 11 18 11.222656 18 11.5 C 18 11.777344 18.222656 12 18.5 12 C 18.777344 12 19 11.777344 19 11.5 C 19 11.222656 18.777344 11 18.5 11 Z M 14.5 12 C 14.222656 12 14 12.222656 14 12.5 C 14 12.777344 14.222656 13 14.5 13 C 14.777344 13 15 12.777344 15 12.5 C 15 12.222656 14.777344 12 14.5 12 Z M 11.5 13 C 11.222656 13 11 13.222656 11 13.5 C 11 13.777344 11.222656 14 11.5 14 C 11.777344 14 12 13.777344 12 13.5 C 12 13.222656 11.777344 13 11.5 13 Z M 17.5 14 C 17.222656 14 17 14.222656 17 14.5 C 17 14.777344 17.222656 15 17.5 15 C 17.777344 15 18 14.777344 18 14.5 C 18 14.222656 17.777344 14 17.5 14 Z M 12.5 15 C 12.222656 15 12 15.222656 12 15.5 C 12 15.777344 12.222656 16 12.5 16 C 12.777344 16 13 15.777344 13 15.5 C 13 15.222656 12.777344 15 12.5 15 Z M 20.5 16 C 20.222656 16 20 16.222656 20 16.5 C 20 16.777344 20.222656 17 20.5 17 C 20.777344 17 21 16.777344 21 16.5 C 21 16.222656 20.777344 16 20.5 16 Z M 15.5 17 C 15.222656 17 15 17.222656 15 17.5 C 15 17.777344 15.222656 18 15.5 18 C 15.777344 18 16 17.777344 16 17.5 C 16 17.222656 15.777344 17 15.5 17 Z M 10.5 18 C 10.222656 18 10 18.222656 10 18.5 C 10 18.777344 10.222656 19 10.5 19 C 10.777344 19 11 18.777344 11 18.5 C 11 18.222656 10.777344 18 10.5 18 Z M 18.5 18 C 18.222656 18 18 18.222656 18 18.5 C 18 18.777344 18.222656 19 18.5 19 C 18.777344 19 19 18.777344 19 18.5 C 19 18.222656 18.777344 18 18.5 18 Z M 13.5 19 C 13.222656 19 13 19.222656 13 19.5 C 13 19.777344 13.222656 20 13.5 20 C 13.777344 20 14 19.777344 14 19.5 C 14 19.222656 13.777344 19 13.5 19 Z M 19.5 20 C 19.222656 20 19 20.222656 19 20.5 C 19 20.777344 19.222656 21 19.5 21 C 19.777344 21 20 20.777344 20 20.5 C 20 20.222656 19.777344 20 19.5 20 Z M 11.5 21 C 11.222656 21 11 21.222656 11 21.5 C 11 21.777344 11.222656 22 11.5 22 C 11.777344 22 12 21.777344 12 21.5 C 12 21.222656 11.777344 21 11.5 21 Z M 16.5 21 C 16.222656 21 16 21.222656 16 21.5 C 16 21.777344 16.222656 22 16.5 22 C 16.777344 22 17 21.777344 17 21.5 C 17 21.222656 16.777344 21 16.5 21 Z M 14.5 23 C 14.222656 23 14 23.222656 14 23.5 C 14 23.777344 14.222656 24 14.5 24 C 14.777344 24 15 23.777344 15 23.5 C 15 23.222656 14.777344 23 14.5 23 Z M 18.5 23 C 18.222656 23 18 23.222656 18 23.5 C 18 23.777344 18.222656 24 18.5 24 C 18.777344 24 19 23.777344 19 23.5 C 19 23.222656 18.777344 23 18.5 23 Z "></path>
</g>
</svg>
