<?xml version="1.0" encoding="UTF-8"?>
<svg xmlns="http://www.w3.org/2000/svg" xmlns:xlink="http://www.w3.org/1999/xlink" viewBox="0 0 32 32" version="1.1">
<g>
<path d="M 16 4 C 15.011719 4 14.199219 4.542969 13.65625 5.28125 C 12.71875 5.640625 12 6.445313 12 7.5 C 12 7.84375 12.058594 8.171875 12.1875 8.46875 C 11.121094 7.882813 9.980469 7.417969 8.875 7.09375 C 7.84375 6.789063 6.820313 6.613281 5.90625 6.59375 C 4.992188 6.574219 4.152344 6.691406 3.4375 7.1875 L 3 7.46875 L 3 8 C 3 8.96875 3.574219 9.6875 4.28125 10.34375 C 4.988281 11 5.894531 11.625 6.96875 12.15625 C 7.058594 12.199219 7.160156 12.238281 7.25 12.28125 C 6.363281 12.457031 5.550781 12.679688 4.875 13 C 4.117188 13.359375 3.453125 13.824219 3.09375 14.5625 L 2.8125 15.15625 L 3.25 15.65625 C 4.195313 16.722656 5.539063 17.199219 6.875 17.34375 C 8.210938 17.488281 9.601563 17.316406 10.875 17.0625 C 12.441406 16.75 13.644531 16.347656 14.5 16.03125 L 14.5 18 L 17.5 18 L 17.5 16.03125 C 18.355469 16.347656 19.558594 16.75 21.125 17.0625 C 22.398438 17.316406 23.789063 17.488281 25.125 17.34375 C 26.460938 17.199219 27.804688 16.722656 28.75 15.65625 L 29.1875 15.15625 L 28.90625 14.5625 C 28.546875 13.824219 27.882813 13.359375 27.125 13 C 26.449219 12.679688 25.636719 12.457031 24.75 12.28125 C 24.839844 12.238281 24.941406 12.199219 25.03125 12.15625 C 26.105469 11.625 27.011719 11 27.71875 10.34375 C 28.425781 9.6875 29 8.96875 29 8 L 29 7.46875 L 28.5625 7.1875 C 27.847656 6.691406 27.007813 6.574219 26.09375 6.59375 C 25.179688 6.613281 24.15625 6.789063 23.125 7.09375 C 22.019531 7.417969 20.878906 7.882813 19.8125 8.46875 C 19.941406 8.171875 20 7.84375 20 7.5 C 20 6.445313 19.28125 5.640625 18.34375 5.28125 C 17.800781 4.542969 16.988281 4 16 4 Z M 16 6 C 16.378906 6 16.699219 6.1875 16.875 6.5 L 17.09375 6.9375 L 17.59375 7 C 17.835938 7.039063 18 7.242188 18 7.5 C 18 7.785156 17.785156 8 17.5 8 C 17.429688 8 17.367188 7.980469 17.28125 7.9375 L 16.84375 7.71875 L 16.40625 7.90625 C 16.277344 7.964844 16.140625 8 16 8 C 15.859375 8 15.722656 7.964844 15.59375 7.90625 L 15.15625 7.71875 L 14.71875 7.9375 C 14.632813 7.980469 14.570313 8 14.5 8 C 14.214844 8 14 7.785156 14 7.5 C 14 7.242188 14.164063 7.039063 14.40625 7 L 14.90625 6.9375 L 15.125 6.5 C 15.300781 6.1875 15.621094 6 16 6 Z M 5.875 8.59375 C 6.550781 8.609375 7.417969 8.734375 8.3125 9 C 10.074219 9.519531 11.984375 10.519531 13.28125 11.6875 C 13.3125 11.757813 13.339844 11.839844 13.375 11.90625 C 13.179688 11.894531 12.976563 11.882813 12.78125 11.875 C 11.046875 11.628906 9.289063 11.042969 7.875 10.34375 C 6.933594 9.875 6.128906 9.375 5.625 8.90625 C 5.492188 8.78125 5.554688 8.765625 5.46875 8.65625 C 5.636719 8.636719 5.667969 8.589844 5.875 8.59375 Z M 26.125 8.59375 C 26.332031 8.589844 26.363281 8.636719 26.53125 8.65625 C 26.445313 8.765625 26.507813 8.78125 26.375 8.90625 C 25.871094 9.375 25.066406 9.875 24.125 10.34375 C 22.726563 11.035156 20.996094 11.625 19.28125 11.875 C 19.21875 11.882813 19.15625 11.867188 19.09375 11.875 C 18.929688 11.882813 18.761719 11.898438 18.59375 11.90625 C 18.632813 11.835938 18.683594 11.761719 18.71875 11.6875 C 20.015625 10.519531 21.925781 9.519531 23.6875 9 C 24.582031 8.734375 25.449219 8.609375 26.125 8.59375 Z M 15.1875 9.84375 C 15.191406 9.839844 15.214844 9.847656 15.21875 9.84375 C 15.472656 9.917969 15.71875 10 16 10 C 16.28125 10 16.527344 9.917969 16.78125 9.84375 C 16.789063 9.839844 16.804688 9.847656 16.8125 9.84375 C 16.929688 10.023438 17 10.253906 17 10.5 C 17 10.863281 16.832031 11.171875 16.59375 11.375 L 16.09375 11.8125 L 16.3125 12.4375 C 16.335938 12.503906 16.34375 12.554688 16.34375 12.59375 C 16.34375 12.855469 16.167969 13 16 13 C 15.832031 13 15.65625 12.855469 15.65625 12.59375 C 15.65625 12.554688 15.664063 12.503906 15.6875 12.4375 L 15.90625 11.8125 L 15.40625 11.375 C 15.167969 11.171875 15 10.863281 15 10.5 C 15 10.253906 15.070313 10.023438 15.1875 9.84375 Z M 10.75 13.90625 C 11.785156 13.875 12.882813 13.914063 14 14 C 13.472656 14.214844 12.367188 14.746094 10.46875 15.125 C 9.320313 15.355469 8.121094 15.453125 7.09375 15.34375 C 6.519531 15.28125 6.203125 14.984375 5.78125 14.78125 C 6.300781 14.542969 7.039063 14.34375 7.90625 14.1875 C 8.742188 14.039063 9.714844 13.9375 10.75 13.90625 Z M 19.65625 13.90625 C 21.292969 13.863281 22.839844 13.960938 24.09375 14.1875 C 24.960938 14.34375 25.699219 14.542969 26.21875 14.78125 C 25.796875 14.984375 25.480469 15.28125 24.90625 15.34375 C 23.878906 15.453125 22.679688 15.355469 21.53125 15.125 C 19.632813 14.746094 18.527344 14.214844 18 14 C 18.167969 13.992188 18.332031 13.980469 18.5 13.96875 C 18.886719 13.941406 19.277344 13.914063 19.65625 13.90625 Z M 14.5 19 L 14.5 22 L 17.5 22 L 17.5 19 Z M 14.75 23 L 14.75 25 L 17.25 25 L 17.25 23 Z M 15 26 L 15 28 L 17 28 L 17 26 Z "></path>
</g>
</svg>
