<?xml version="1.0" encoding="UTF-8"?>
<svg xmlns="http://www.w3.org/2000/svg" xmlns:xlink="http://www.w3.org/1999/xlink" viewBox="0 0 32 32" version="1.1">
<g>
<path d="M 18.5 4 C 16.730469 4 15.253906 5.351563 15.03125 7.0625 C 14.851563 7.035156 14.683594 7 14.5 7 C 13.609375 7 12.738281 7.363281 12.0625 8.03125 L 12.03125 8 L 6.65625 13.1875 L 6.59375 13.21875 L 6.625 13.25 C 5.609375 14.101563 5 15.328125 5 16.65625 L 5 28 L 7 28 L 7 16.65625 C 7 15.910156 7.324219 15.191406 7.90625 14.71875 L 7.9375 14.71875 L 7.96875 14.6875 L 13.4375 9.46875 L 13.4375 9.4375 C 14.03125 8.84375 14.96875 8.84375 15.5625 9.4375 C 15.921875 9.796875 15.957031 9.964844 16 10.3125 C 16.042969 10.660156 16 11.210938 16 12 L 16 17.40625 L 16.28125 17.71875 L 20.28125 21.71875 L 21.71875 20.28125 L 18 16.5625 L 18 12 C 18 11.640625 18.023438 11.304688 18.03125 10.96875 C 18.1875 10.992188 18.335938 11 18.5 11 C 20.421875 11 22 9.421875 22 7.5 C 22 5.578125 20.421875 4 18.5 4 Z M 18.5 6 C 19.339844 6 20 6.660156 20 7.5 C 20 8.339844 19.339844 9 18.5 9 C 18.046875 9 17.648438 8.808594 17.375 8.5 C 17.335938 8.445313 17.292969 8.394531 17.25 8.34375 C 17.089844 8.105469 17 7.816406 17 7.5 C 17 6.660156 17.660156 6 18.5 6 Z M 22 11 C 21.449219 11 21 11.449219 21 12 C 21 12.550781 21.449219 13 22 13 C 22.550781 13 23 12.550781 23 12 C 23 11.449219 22.550781 11 22 11 Z M 15 11.59375 L 9 17.59375 L 9 28 L 11 28 L 11 18.40625 L 15 14.40625 Z M 19 14 L 19 16.40625 L 19.28125 16.71875 L 23.28125 20.71875 L 23.59375 21 L 27 21 L 27 19 L 24.4375 19 L 21.4375 16 L 27 16 L 27 14 Z "></path>
</g>
</svg>
