<?xml version="1.0" encoding="UTF-8"?>
<svg xmlns="http://www.w3.org/2000/svg" xmlns:xlink="http://www.w3.org/1999/xlink" viewBox="0 0 32 32" version="1.1">
<g>
<path d="M 14 4 C 12.355469 4 11 5.355469 11 7 C 11 8.644531 12.355469 10 14 10 C 15.644531 10 17 8.644531 17 7 C 17 5.355469 15.644531 4 14 4 Z M 14 6 C 14.5625 6 15 6.4375 15 7 C 15 7.5625 14.5625 8 14 8 C 13.4375 8 13 7.5625 13 7 C 13 6.4375 13.4375 6 14 6 Z M 4.929688 8.089844 L 4.929688 10.640625 L 10.578125 15.109375 L 10.035156 12.886719 L 10.015625 12.816406 L 10.011719 12.746094 C 9.992188 12.539063 10.003906 12.332031 10.035156 12.132813 Z M 25.164063 9.546875 L 22.109375 15.546875 L 23.890625 16.453125 L 26.949219 10.453125 Z M 12.507813 11 C 12.082031 11 11.675781 11.179688 11.390625 11.492188 C 11.109375 11.804688 10.96875 12.226563 11.007813 12.648438 L 12.625 19.296875 C 12.640625 19.347656 12.660156 19.394531 12.671875 19.445313 L 14.242188 17.488281 L 13.140625 13 L 14.9375 13 L 17.324219 14.550781 C 17.886719 15.046875 18.679688 15.191406 19.328125 14.9375 L 22.546875 13.902344 L 21.933594 12 L 18.644531 13.046875 L 16.257813 11.5 C 15.925781 11.207031 15.496094 11.03125 14.988281 11 Z M 16.023438 16.871094 L 14.542969 18.714844 L 13.136719 20.46875 L 8.695313 26 L 11.25 26 L 14.65625 21.726563 C 15.070313 21.902344 15.523438 22 16 22 L 19.722656 22 C 20.132813 22 20.507813 22.25 20.667969 22.621094 L 22.027344 28.234375 L 23.96875 27.765625 L 22.59375 22.078125 L 22.558594 21.964844 C 22.117188 20.789063 20.976563 20 19.722656 20 L 16.035156 20 L 17.5625 18.089844 Z "></path>
</g>
</svg>
