<?xml version="1.0" encoding="UTF-8"?>
<svg xmlns="http://www.w3.org/2000/svg" xmlns:xlink="http://www.w3.org/1999/xlink" viewBox="0 0 32 32" version="1.1">
<g>
<path d="M 1 5 L 1 27 L 31 27 L 31 5 Z M 3 7 L 29 7 L 29 25 L 3 25 Z M 10 9 C 8.894531 9 8 9.894531 8 11 C 8 12.105469 8.894531 13 10 13 C 11.105469 13 12 12.105469 12 11 C 12 9.894531 11.105469 9 10 9 Z M 10 13 C 8.34375 13 7 13.894531 7 15 L 13 15 C 13 13.894531 11.65625 13 10 13 Z M 17 11 L 17 13 L 26 13 L 26 11 Z M 17 14 L 17 16 L 24 16 L 24 14 Z M 7.59375 16 L 6 19.375 L 6 22.46875 C 6 22.765625 6.230469 23 6.53125 23 L 7.46875 23 C 7.769531 23 8 22.769531 8 22.46875 L 8 22 L 12 22 L 12 22.46875 C 12 22.769531 12.230469 23 12.53125 23 L 13.46875 23 C 13.769531 23 14 22.769531 14 22.46875 L 14 19.375 L 12.40625 16 Z M 17 17 L 17 19 L 26 19 L 26 17 Z M 7.5 19.75 C 7.914063 19.75 8.25 20.085938 8.25 20.5 C 8.25 20.914063 7.914063 21.25 7.5 21.25 C 7.085938 21.25 6.75 20.914063 6.75 20.5 C 6.75 20.085938 7.085938 19.75 7.5 19.75 Z M 12.5 19.75 C 12.910156 19.75 13.25 20.085938 13.25 20.5 C 13.25 20.910156 12.910156 21.25 12.5 21.25 C 12.089844 21.25 11.75 20.910156 11.75 20.5 C 11.75 20.085938 12.089844 19.75 12.5 19.75 Z M 17 20 L 17 22 L 24 22 L 24 20 Z "></path>
</g>
</svg>
