<?xml version="1.0" encoding="UTF-8"?>
<svg xmlns="http://www.w3.org/2000/svg" xmlns:xlink="http://www.w3.org/1999/xlink" viewBox="0 0 32 32" version="1.1">
<g>
<path d="M 0 6 L 0 25 L 13 25 C 14.101563 25 15 25.898438 15 27 L 17 27 C 17 25.898438 17.898438 25 19 25 L 32 25 L 32 6 L 19 6 C 17.800781 6 16.734375 6.542969 16 7.382813 C 15.265625 6.542969 14.199219 6 13 6 Z M 2 8 L 13 8 C 14.101563 8 15 8.898438 15 10 L 15 23.558594 C 14.410156 23.210938 13.730469 23 13 23 L 2 23 Z M 19 8 L 30 8 L 30 23 L 19 23 C 18.269531 23 17.589844 23.210938 17 23.558594 L 17 10 C 17 8.898438 17.898438 8 19 8 Z M 19 10 L 19 12 L 28 12 L 28 10 Z M 5.792969 11.125 L 4 14.921875 L 4 18.402344 C 4 18.738281 4.261719 19 4.597656 19 L 5.652344 19 C 5.988281 19 6.25 18.738281 6.25 18.402344 L 6.25 17.875 L 10.75 17.875 L 10.75 18.402344 C 10.75 18.738281 11.007813 19 11.34375 19 L 12.402344 19 C 12.738281 19 13 18.738281 13 18.402344 L 13 14.921875 L 11.207031 11.125 Z M 19 14 L 19 16 L 28 16 L 28 14 Z M 5.6875 15.34375 C 6.152344 15.34375 6.53125 15.722656 6.53125 16.1875 C 6.53125 16.652344 6.152344 17.03125 5.6875 17.03125 C 5.222656 17.03125 4.84375 16.652344 4.84375 16.1875 C 4.84375 15.722656 5.222656 15.34375 5.6875 15.34375 Z M 11.3125 15.34375 C 11.777344 15.34375 12.15625 15.722656 12.15625 16.1875 C 12.15625 16.652344 11.777344 17.03125 11.3125 17.03125 C 10.847656 17.03125 10.46875 16.652344 10.46875 16.1875 C 10.46875 15.722656 10.847656 15.34375 11.3125 15.34375 Z M 19 18 L 19 20 L 26 20 L 26 18 Z "></path>
</g>
</svg>
