<?xml version="1.0" encoding="UTF-8"?>
<svg xmlns="http://www.w3.org/2000/svg" xmlns:xlink="http://www.w3.org/1999/xlink" viewBox="0 0 32 32" version="1.1">
<g>
<path d="M 16 5 C 12.699219 5 10 7.699219 10 11 C 10 12.832031 10.820313 14.492188 12.125 15.59375 C 8.195313 16.855469 6.484375 19.710938 6.40625 19.84375 L 5.53125 21.25 C 5.019531 22.070313 4.867188 23.03125 5.09375 23.96875 C 5.320313 24.90625 5.890625 25.722656 6.71875 26.21875 L 7.65625 26.75 C 7.816406 26.097656 8.082031 25.503906 8.46875 24.9375 L 7.75 24.5 C 7.382813 24.28125 7.132813 23.914063 7.03125 23.5 C 6.929688 23.085938 6.996094 22.675781 7.21875 22.3125 L 8.125 20.875 C 8.21875 20.71875 10.464844 17 16 17 C 21.535156 17 23.800781 20.726563 23.90625 20.90625 L 24.78125 22.3125 C 25.007813 22.675781 25.070313 23.085938 24.96875 23.5 C 24.867188 23.914063 24.617188 24.28125 24.25 24.5 L 23.53125 24.9375 C 23.921875 25.503906 24.183594 26.097656 24.34375 26.75 L 25.28125 26.21875 C 26.109375 25.722656 26.679688 24.90625 26.90625 23.96875 C 27.132813 23.03125 26.980469 22.070313 26.46875 21.25 L 25.625 19.875 C 25.535156 19.71875 23.804688 16.855469 19.875 15.59375 C 21.179688 14.492188 22 12.832031 22 11 C 22 7.699219 19.300781 5 16 5 Z M 16 7 C 18.222656 7 20 8.777344 20 11 C 20 13.222656 18.222656 15 16 15 C 13.777344 15 12 13.222656 12 11 C 12 8.777344 13.777344 7 16 7 Z M 16 22 C 14.164063 22 12.46875 22.488281 11.1875 23.34375 C 9.90625 24.199219 9 25.488281 9 27 L 11 27 C 11 26.300781 11.421875 25.59375 12.3125 25 C 13.203125 24.40625 14.523438 24 16 24 C 17.476563 24 18.796875 24.40625 19.6875 25 C 20.578125 25.59375 21 26.300781 21 27 L 23 27 C 23 25.488281 22.09375 24.199219 20.8125 23.34375 C 19.53125 22.488281 17.835938 22 16 22 Z "></path>
</g>
</svg>
