<?xml version="1.0" encoding="UTF-8"?>
<svg xmlns="http://www.w3.org/2000/svg" xmlns:xlink="http://www.w3.org/1999/xlink" viewBox="0 0 32 32" version="1.1">
<g>
<path d="M 1 5 L 1 7 L 6 7 L 6 9 L 4 9 L 4 11 L 12 11 L 12 13 C 8.15625 13 5 16.15625 5 20 L 5 27 L 7 27 L 7 25 L 11 25 L 11 27 L 21 27 L 21 25 L 25 25 L 25 27 L 27 27 L 27 20 C 27 16.15625 23.84375 13 20 13 L 20 11 L 28 11 L 28 9 L 26 9 L 26 5 L 19 5 L 19 7 L 24 7 L 24 9 L 8 9 L 8 5 Z M 9 5 L 9 7 L 13 7 L 13 5 Z M 27 5 L 27 7 L 31 7 L 31 5 Z M 14 11 L 18 11 L 18 13 L 14 13 Z M 12 15 L 20 15 C 22.753906 15 25 17.246094 25 20 L 25 23 L 21 23 L 21 19 L 18.625 19 L 18.125 18 L 13.875 18 L 13.375 19 L 11 19 L 11 23 L 7 23 L 7 20 C 7 17.246094 9.246094 15 12 15 Z M 15.125 20 L 16.875 20 L 17.375 21 L 19 21 L 19 25 L 13 25 L 13 21 L 14.625 21 Z M 16 22 C 15.449219 22 15 22.449219 15 23 C 15 23.550781 15.449219 24 16 24 C 16.550781 24 17 23.550781 17 23 C 17 22.449219 16.550781 22 16 22 Z "></path>
</g>
</svg>
