<?xml version="1.0" encoding="UTF-8"?>
<svg xmlns="http://www.w3.org/2000/svg" xmlns:xlink="http://www.w3.org/1999/xlink" viewBox="0 0 32 32" version="1.1">
<g>
<path d="M 1 5 L 1 7 L 6 7 L 6 9 L 4 9 L 4 11 L 12 11 L 12 13 C 8.15625 13 5 16.15625 5 20 L 5 27 L 7 27 L 7 20 C 7 17.246094 9.246094 15 12 15 L 20 15 C 22.753906 15 25 17.246094 25 20 L 25 27 L 27 27 L 27 20 C 27 16.15625 23.84375 13 20 13 L 20 11 L 28 11 L 28 9 L 26 9 L 26 5 L 19 5 L 19 7 L 24 7 L 24 9 L 8 9 L 8 5 Z M 9 5 L 9 7 L 13 7 L 13 5 Z M 27 5 L 27 7 L 31 7 L 31 5 Z M 14 11 L 18 11 L 18 13 L 14 13 Z "></path>
</g>
</svg>
