<?xml version="1.0" encoding="UTF-8"?>
<svg xmlns="http://www.w3.org/2000/svg" xmlns:xlink="http://www.w3.org/1999/xlink" viewBox="0 0 32 32" version="1.1">
<g>
<path d="M 2.53125 4 L 2 5.9375 L 5 6.78125 L 5 10 L 2 10 L 2 16 L 5 16 L 5 28 L 7 28 L 7 16 L 9.09375 16 C 8.40625 17.179688 8 18.542969 8 20 C 8 21.945313 8.714844 23.734375 9.875 25.125 L 8.96875 28.03125 L 11.0625 28.03125 L 11.5 26.59375 C 12.785156 27.472656 14.332031 28 16 28 C 17.652344 28 19.191406 27.488281 20.46875 26.625 L 20.90625 28.03125 L 23 28.03125 L 22.09375 25.15625 C 23.269531 23.761719 24 21.960938 24 20 C 24 18.542969 23.59375 17.179688 22.90625 16 L 25 16 L 25 28 L 27 28 L 27 16 L 30 16 L 30 10 L 22 10 L 22 14.71875 C 20.53125 13.050781 18.390625 12 16 12 C 13.609375 12 11.46875 13.050781 10 14.71875 L 10 10 L 7 10 L 7 7.3125 L 9.46875 8 L 10 6.09375 Z M 25 4 L 25 6 L 27 6 L 27 4 Z M 22 7 L 22 9 L 30 9 L 30 7 Z M 4 12 L 8 12 L 8 14 L 4 14 Z M 24 12 L 28 12 L 28 14 L 24 14 Z M 16 14 C 19.324219 14 22 16.675781 22 20 C 22 23.324219 19.324219 26 16 26 C 12.675781 26 10 23.324219 10 20 C 10 16.675781 12.675781 14 16 14 Z M 19 21 C 18.449219 21 18 21.449219 18 22 C 18 22.550781 18.449219 23 19 23 C 19.550781 23 20 22.550781 20 22 C 20 21.449219 19.550781 21 19 21 Z "></path>
</g>
</svg>
