<?xml version="1.0" encoding="UTF-8"?>
<svg xmlns="http://www.w3.org/2000/svg" xmlns:xlink="http://www.w3.org/1999/xlink" viewBox="0 0 32 32" version="1.1">
<g>
<path d="M 3 4 L 3 20 L 4.34375 20 C 4.421875 19.570313 4.5 19.132813 4.59375 18.625 C 4.664063 18.121094 4.808594 17.640625 5 17.1875 L 5 6 L 27 6 L 27 17.1875 C 27.191406 17.648438 27.363281 18.140625 27.4375 18.65625 C 27.527344 19.148438 27.582031 19.585938 27.65625 20 L 29 20 L 29 4 Z M 19 7 L 16 7.625 L 16 10 L 19 10 Z M 15 7.90625 L 13 8.40625 L 13 10 L 15 10 Z M 13 11 L 13 12.59375 L 15 13.09375 L 15 11 Z M 16 11 L 16 13.375 L 19 14 L 19 11 Z M 8 14 L 8 15.8125 C 7.003906 16.507813 6.285156 17.589844 6.09375 18.84375 C 6.089844 18.867188 6.066406 18.882813 6.0625 18.90625 C 6.050781 18.964844 5.789063 20.3125 5.53125 21.75 C 5.398438 22.484375 5.285156 23.238281 5.1875 23.8125 C 5.136719 24.097656 5.09375 24.347656 5.0625 24.53125 C 5.046875 24.625 5.039063 24.6875 5.03125 24.75 C 5.023438 24.8125 5 24.773438 5 25 C 5 26.644531 6.355469 28 8 28 C 9.125 28 10.085938 27.351563 10.59375 26.4375 L 10.625 26.4375 C 10.628906 26.429688 10.621094 26.414063 10.625 26.40625 L 11.125 25.5625 C 11.519531 25.824219 11.996094 26 12.5 26 C 13.308594 26 14.011719 25.601563 14.46875 25 L 17.53125 25 C 17.988281 25.601563 18.691406 26 19.5 26 C 20.003906 26 20.480469 25.824219 20.875 25.5625 L 21.375 26.40625 C 21.382813 26.417969 21.398438 26.425781 21.40625 26.4375 C 21.914063 27.351563 22.875 28 24 28 C 25.644531 28 27 26.644531 27 25 C 27 24.773438 26.976563 24.8125 26.96875 24.75 C 26.960938 24.6875 26.953125 24.625 26.9375 24.53125 C 26.90625 24.347656 26.863281 24.097656 26.8125 23.8125 C 26.714844 23.238281 26.601563 22.484375 26.46875 21.75 C 26.210938 20.3125 25.949219 18.964844 25.9375 18.90625 C 25.933594 18.886719 25.941406 18.863281 25.9375 18.84375 L 25.90625 18.84375 C 25.714844 17.589844 24.996094 16.507813 24 15.8125 L 24 14 L 21 14 L 21 15.0625 C 20.140625 15.160156 19.363281 15.484375 18.71875 16 L 13.28125 16 C 12.636719 15.484375 11.859375 15.160156 11 15.0625 L 11 14 Z M 10.5 17 C 11.890625 17 13 18.109375 13 19.5 C 13 20.082031 12.800781 20.582031 12.46875 21 C 11.113281 21.015625 10 22.140625 10 23.5 C 10 23.511719 10 23.519531 10 23.53125 L 8.90625 25.4375 L 8.875 25.4375 L 8.875 25.46875 C 8.703125 25.789063 8.386719 26 8 26 C 7.445313 26 7.015625 25.582031 7 25.03125 C 6.992188 25.074219 7 25.199219 7 25 C 7.007813 24.957031 7.019531 24.914063 7.03125 24.84375 C 7.058594 24.671875 7.109375 24.4375 7.15625 24.15625 C 7.253906 23.589844 7.371094 22.859375 7.5 22.125 C 7.761719 20.660156 8.03125 19.21875 8.03125 19.21875 L 8.03125 19.15625 C 8.199219 17.929688 9.226563 17 10.5 17 Z M 21.5 17 C 22.773438 17 23.800781 17.929688 23.96875 19.15625 L 23.96875 19.21875 C 23.96875 19.21875 24.238281 20.660156 24.5 22.125 C 24.628906 22.859375 24.746094 23.589844 24.84375 24.15625 C 24.890625 24.4375 24.941406 24.671875 24.96875 24.84375 C 24.984375 24.929688 24.992188 24.988281 25 25.03125 C 24.984375 25.582031 24.554688 26 24 26 C 23.613281 26 23.296875 25.789063 23.125 25.46875 L 23.125 25.4375 L 23.09375 25.4375 L 22 23.53125 C 22 23.519531 22 23.511719 22 23.5 C 22 22.140625 20.886719 21.015625 19.53125 21 C 19.199219 20.582031 19 20.082031 19 19.5 C 19 18.109375 20.109375 17 21.5 17 Z M 14.71875 18 L 17.28125 18 C 17.113281 18.472656 17 18.972656 17 19.5 C 17 20.363281 17.261719 21.160156 17.6875 21.84375 C 17.390625 22.171875 17.15625 22.554688 17.0625 23 L 14.9375 23 C 14.84375 22.554688 14.609375 22.171875 14.3125 21.84375 C 14.738281 21.160156 15 20.363281 15 19.5 C 15 18.972656 14.886719 18.472656 14.71875 18 Z M 12.5 23 C 12.789063 23 13 23.210938 13 23.5 C 13 23.789063 12.789063 24 12.5 24 C 12.210938 24 12 23.789063 12 23.5 C 12 23.210938 12.210938 23 12.5 23 Z M 19.5 23 C 19.789063 23 20 23.210938 20 23.5 C 20 23.789063 19.789063 24 19.5 24 C 19.210938 24 19 23.789063 19 23.5 C 19 23.210938 19.210938 23 19.5 23 Z "></path>
</g>
</svg>
