<?xml version="1.0" encoding="UTF-8"?>
<svg xmlns="http://www.w3.org/2000/svg" xmlns:xlink="http://www.w3.org/1999/xlink" viewBox="0 0 32 32" version="1.1">
<g>
<path d="M 13.21875 10.800781 L 13.21875 15.316406 L 14.710938 15.316406 L 14.710938 13.886719 L 19.722656 11.726563 L 19.722656 15.316406 L 21.078125 15.316406 L 21.078125 16.628906 L 19.742188 16.628906 L 19.742188 20.585938 C 19.824219 20.742188 20.109375 20.777344 20.335938 20.777344 C 20.503906 20.777344 20.640625 20.757813 20.640625 20.757813 C 20.941406 20.699219 21.175781 20.667969 21.417969 20.667969 C 21.75 20.667969 22.09375 20.726563 22.640625 20.855469 C 22.863281 20.90625 23.058594 20.929688 23.226563 20.929688 C 24.007813 20.929688 24.277344 20.460938 24.277344 20.257813 C 24.316406 20.042969 24.0625 19.777344 23.929688 19.652344 C 23.828125 19.558594 21.746094 18.382813 21.746094 17.167969 C 21.746094 15.574219 25.121094 15.21875 26.074219 15.21875 C 28.316406 15.21875 29.621094 15.683594 29.621094 15.683594 L 29.488281 16.28125 C 29.488281 16.28125 28.917969 16.269531 28.742188 16.269531 C 28.441406 16.269531 28.164063 16.339844 28.164063 16.339844 C 27.078125 16.726563 28.382813 17.679688 28.542969 17.804688 C 28.914063 18.089844 29.652344 18.621094 29.890625 19.175781 C 30.480469 20.574219 28.582031 21.589844 27.332031 21.800781 C 27.101563 21.839844 26.265625 21.960938 25.359375 21.960938 C 25.234375 21.960938 25.105469 21.960938 24.976563 21.953125 C 23.703125 21.902344 23.253906 21.808594 22.792969 21.730469 C 22.71875 21.714844 22.117188 21.535156 21.65625 21.5 C 21.597656 21.496094 21.542969 21.492188 21.492188 21.492188 C 21.136719 21.492188 20.890625 21.582031 20.808594 21.597656 C 19.394531 21.902344 18.0625 21.953125 18.0625 21.953125 C 14.9375 21.953125 14.691406 20.601563 14.691406 20.601563 L 14.691406 16.628906 L 13.199219 16.628906 L 13.199219 21.976563 L 8.183594 21.976563 L 8.183594 21.738281 C 7.652344 21.90625 7.066406 22 6.449219 22 C 3.992188 22 2 20.914063 2 18.65625 C 2 16.648438 3.992188 15.3125 6.449219 15.3125 C 7.066406 15.3125 7.652344 15.40625 8.1875 15.578125 L 8.1875 10.800781 L 13.21875 10.800781 M 8.347656 20.59375 L 8.347656 16.738281 C 7.523438 16.90625 6.902344 17.730469 6.902344 18.664063 C 6.902344 19.601563 7.523438 20.425781 8.347656 20.59375 M 21.722656 8.6875 L 18.933594 9.890625 L 15.21875 11.488281 L 15.21875 8.800781 L 6.1875 8.800781 L 6.1875 13.316406 C 2.640625 13.421875 0 15.683594 0 18.65625 C 0 21.851563 2.59375 24 6.449219 24 C 6.65625 24 6.859375 23.992188 7.066406 23.976563 L 15.199219 23.976563 L 15.199219 23.519531 C 15.925781 23.785156 16.859375 23.957031 18.0625 23.957031 L 18.101563 23.957031 L 18.140625 23.953125 C 18.203125 23.953125 19.664063 23.890625 21.226563 23.558594 C 21.265625 23.550781 21.320313 23.535156 21.386719 23.515625 C 21.441406 23.503906 21.464844 23.496094 21.488281 23.496094 C 21.632813 23.507813 21.859375 23.554688 22.179688 23.644531 C 22.28125 23.671875 22.355469 23.6875 22.386719 23.695313 L 22.421875 23.703125 L 22.460938 23.707031 L 22.570313 23.726563 C 23.027344 23.804688 23.597656 23.902344 24.894531 23.957031 C 25.046875 23.960938 25.203125 23.964844 25.355469 23.964844 C 26.488281 23.964844 27.480469 23.804688 27.664063 23.773438 C 28.964844 23.554688 30.769531 22.769531 31.585938 21.28125 C 32.082031 20.378906 32.132813 19.355469 31.730469 18.398438 C 31.601563 18.101563 31.433594 17.832031 31.246094 17.589844 L 31.4375 16.71875 L 31.570313 16.117188 L 31.957031 14.390625 L 30.289063 13.800781 C 30.121094 13.738281 28.585938 13.222656 26.070313 13.222656 C 24.875 13.222656 23.886719 13.363281 23.078125 13.601563 L 23.078125 13.316406 L 21.722656 13.316406 Z "></path>
</g>
</svg>
