<?xml version="1.0" encoding="UTF-8"?>
<svg xmlns="http://www.w3.org/2000/svg" xmlns:xlink="http://www.w3.org/1999/xlink" viewBox="0 0 32 32" version="1.1">
<g>
<path d="M 15 4 L 15 16 L 17 16 L 17 4 Z M 17 16 L 19 16 C 19 12.371094 20.304688 10.773438 21.5625 9.90625 C 22.820313 9.039063 24.03125 8.96875 24.03125 8.96875 L 23.96875 6.96875 C 23.96875 6.96875 22.179688 7.050781 20.4375 8.25 C 20.445313 8.230469 20.429688 8.203125 20.4375 8.1875 C 21.144531 6.4375 21.78125 5.625 21.78125 5.625 L 20.21875 4.375 C 20.21875 4.375 19.355469 5.480469 18.5625 7.4375 C 17.769531 9.394531 17 12.273438 17 16 Z M 19 16 L 21 16 C 21 14.082031 22.105469 13.230469 23.40625 12.65625 C 24.707031 12.082031 26.0625 12 26.0625 12 L 25.9375 10 C 25.9375 10 24.292969 10.058594 22.59375 10.8125 C 20.894531 11.566406 19 13.230469 19 16 Z M 15 16 C 15 8.640625 12.875 4.53125 12.875 4.53125 L 11.125 5.46875 C 11.125 5.46875 11.828125 6.828125 12.375 9.5 C 10.683594 7.558594 8.8125 6.53125 8.8125 6.53125 L 7.875 8.28125 C 7.875 8.28125 12.273438 10.789063 12.90625 15 C 12.957031 15.324219 13 15.652344 13 16 Z M 13 16 C 13 15.652344 12.960938 15.3125 12.90625 15 C 12.519531 12.816406 10.894531 11.472656 9.40625 10.8125 C 7.707031 10.058594 6.0625 10 6.0625 10 L 5.9375 12 C 5.9375 12 7.292969 12.082031 8.59375 12.65625 C 9.894531 13.230469 11 14.082031 11 16 Z M 12 17 C 12 18.851563 13.28125 20.398438 15 20.84375 L 15 24.28125 C 14.402344 24.628906 14 25.261719 14 26 C 14 27.105469 14.894531 28 16 28 C 17.105469 28 18 27.105469 18 26 C 18 25.261719 17.597656 24.628906 17 24.28125 L 17 20.84375 C 18.71875 20.398438 20 18.851563 20 17 L 18 17 C 18 18.117188 17.117188 19 16 19 C 14.882813 19 14 18.117188 14 17 Z "></path>
</g>
</svg>
