<?xml version="1.0" encoding="UTF-8"?>
<svg xmlns="http://www.w3.org/2000/svg" xmlns:xlink="http://www.w3.org/1999/xlink" viewBox="0 0 32 32" version="1.1">
<g>
<path d="M 11 5 L 11 7 L 15 7 L 15 5 Z M 17 5 L 17 7 L 21 7 L 21 5 Z M 23 5 L 23 7 L 27 7 L 27 5 Z M 5 9 L 5 11 L 9 11 L 9 9 Z M 11 9 L 11 11 L 15 11 L 15 9 Z M 17 9 L 17 11 L 21 11 L 21 9 Z M 11 13 L 11 15 L 15 15 L 15 13 Z M 17 13 L 17 15 L 21 15 L 21 13 Z M 23 13 L 23 15 L 27 15 L 27 13 Z M 5 17 L 5 19 L 9 19 L 9 17 Z M 11 17 L 11 19 L 15 19 L 15 17 Z M 17 17 L 17 19 L 21 19 L 21 17 Z M 11 21 L 11 23 L 15 23 L 15 21 Z M 17 21 L 17 23 L 21 23 L 21 21 Z M 23 21 L 23 23 L 27 23 L 27 21 Z M 5 25 L 5 27 L 9 27 L 9 25 Z M 11 25 L 11 27 L 15 27 L 15 25 Z M 17 25 L 17 27 L 21 27 L 21 25 Z "></path>
</g>
</svg>
