<?xml version="1.0" encoding="UTF-8"?>
<svg xmlns="http://www.w3.org/2000/svg" xmlns:xlink="http://www.w3.org/1999/xlink" viewBox="0 0 32 32" version="1.1">
<g>
<path d="M 1.9375 8.625 C 1.9375 8.625 2.015625 8.660156 2 8.71875 C 1.988281 8.769531 1.710938 9.941406 1.625 10.3125 C 1.609375 10.382813 1.53125 10.4375 1.53125 10.4375 L 5.5 10.4375 C 7.527344 10.4375 8.78125 11.269531 8.4375 12.75 C 8.0625 14.363281 6.261719 15.0625 4.375 15.0625 L 3.5625 15.0625 C 3.5625 15.0625 3.699219 15.007813 3.71875 14.9375 C 3.863281 14.308594 4.515625 11.503906 4.53125 11.4375 C 4.550781 11.363281 4.65625 11.3125 4.65625 11.3125 L 1.3125 11.3125 C 1.3125 11.3125 1.386719 11.371094 1.375 11.4375 C 1.363281 11.488281 0.308594 15.992188 0.125 16.78125 C 0.105469 16.855469 0 16.875 0 16.875 L 4.59375 16.875 C 7.960938 16.875 11.15625 15.066406 11.71875 12.75 C 11.820313 12.324219 11.878906 11.40625 11.46875 10.625 C 11.460938 10.601563 11.460938 10.585938 11.4375 10.53125 C 11.425781 10.511719 11.453125 10.4375 11.5 10.40625 C 11.566406 10.367188 11.617188 10.449219 11.625 10.46875 C 11.652344 10.539063 11.6875 10.59375 11.6875 10.59375 L 14.375 18.5 C 6.3125 18.628906 0 19.664063 0 20.9375 C 0 22.296875 7.164063 23.375 16 23.375 C 24.839844 23.375 32 22.296875 32 20.9375 C 32 19.578125 24.835938 18.46875 16 18.46875 C 15.558594 18.46875 15.148438 18.464844 14.71875 18.46875 L 21.78125 10.4375 L 25.71875 10.4375 C 27.75 10.4375 29 11.269531 28.65625 12.75 C 28.28125 14.363281 26.476563 15.0625 24.59375 15.0625 L 23.8125 15.0625 C 23.8125 15.0625 23.890625 15.011719 23.90625 14.9375 C 24.050781 14.304688 24.734375 11.503906 24.75 11.4375 C 24.777344 11.324219 24.84375 11.3125 24.84375 11.3125 L 21.53125 11.3125 C 21.53125 11.3125 21.609375 11.355469 21.59375 11.4375 C 21.582031 11.511719 20.527344 15.992188 20.34375 16.78125 C 20.324219 16.855469 20.21875 16.875 20.21875 16.875 L 24.78125 16.875 C 28.148438 16.875 31.398438 15.074219 31.9375 12.75 C 32.480469 10.425781 30.101563 8.625 26.71875 8.625 L 19.8125 8.625 L 15.75 14.03125 L 14.03125 8.625 Z M 16 19.90625 C 18.085938 19.90625 19.78125 20.3125 19.78125 20.8125 C 19.78125 21.3125 18.085938 21.71875 16 21.71875 C 13.914063 21.71875 12.21875 21.3125 12.21875 20.8125 C 12.21875 20.3125 13.914063 19.90625 16 19.90625 Z "></path>
</g>
</svg>
