<?xml version="1.0" encoding="UTF-8"?>
<svg xmlns="http://www.w3.org/2000/svg" xmlns:xlink="http://www.w3.org/1999/xlink" viewBox="0 0 32 32" version="1.1">
<g>
<path d="M 5 9 C 4.476563 9 3.941406 9.183594 3.5625 9.5625 C 3.183594 9.941406 3 10.476563 3 11 L 3 17 C 3 19.082031 3.390625 20.667969 3.84375 21.71875 C 3.855469 21.746094 3.863281 21.789063 3.875 21.8125 L 3.90625 21.8125 C 4.058594 22.175781 4.285156 22.433594 4.5625 22.625 C 4.871094 22.835938 5.238281 23 5.6875 23 L 26.3125 23 C 27.210938 23 27.839844 22.398438 28.125 21.96875 C 28.179688 21.890625 28.21875 21.808594 28.25 21.71875 C 28.570313 20.753906 29 19.132813 29 17 L 29 11 C 29 10.476563 28.816406 9.941406 28.4375 9.5625 C 28.058594 9.183594 27.523438 9 27 9 Z M 5 11 L 27 11 L 27 17 C 27 18.796875 26.648438 20.09375 26.375 20.9375 C 26.363281 20.945313 26.351563 21 26.3125 21 L 5.71875 21 C 5.386719 20.25 5 18.867188 5 17 Z M 14 12 L 14 14 L 16 14 L 16 12 Z M 17 12 L 17 14 L 19 14 L 19 12 Z M 20 12 L 20 14 L 22 14 L 22 12 Z M 23 12 L 23 14 L 25 14 L 25 12 Z M 7 15 L 7 17 L 11 17 L 11 15 Z M 14 15 L 14 17 L 16 17 L 16 15 Z M 17 15 L 17 17 L 19 17 L 19 15 Z M 20 15 L 20 17 L 22 17 L 22 15 Z M 23 15 L 23 17 L 25 17 L 25 15 Z M 14 18 L 14 20 L 16 20 L 16 18 Z M 17 18 L 17 20 L 19 20 L 19 18 Z M 20 18 L 20 20 L 22 20 L 22 18 Z M 23 18 L 23 20 L 25 20 L 25 18 Z "></path>
</g>
</svg>
