<?xml version="1.0" encoding="UTF-8"?>
<svg xmlns="http://www.w3.org/2000/svg" xmlns:xlink="http://www.w3.org/1999/xlink" viewBox="0 0 32 32" version="1.1">
<g>
<path d="M 16 3 C 8.832031 3 3 8.832031 3 16 C 3 23.167969 8.832031 29 16 29 C 23.167969 29 29 23.167969 29 16 C 29 8.832031 23.167969 3 16 3 Z M 16 5 C 18.039063 5 19.929688 5.570313 21.5625 6.53125 C 22.566406 8.0625 23.09375 9.996094 23.09375 12.0625 C 23.09375 12.371094 23.054688 12.667969 23.03125 12.96875 C 20.730469 9.335938 16.707031 6.90625 12.09375 6.90625 C 11.1875 6.90625 10.292969 6.980469 9.4375 7.15625 C 11.269531 5.796875 13.539063 5 16 5 Z M 12.09375 8.90625 C 16.800781 8.90625 20.773438 11.851563 22.34375 16 C 21.222656 18.9375 18.90625 21.269531 15.96875 22.375 C 11.835938 20.796875 8.90625 16.800781 8.90625 12.09375 C 8.90625 11.097656 9.035156 10.160156 9.28125 9.25 C 10.179688 9.015625 11.121094 8.90625 12.09375 8.90625 Z M 24.84375 9.46875 C 26.195313 11.296875 27 13.546875 27 16 C 27 22.085938 22.085938 27 16 27 C 13.539063 27 11.269531 26.203125 9.4375 24.84375 C 10.292969 25.019531 11.1875 25.09375 12.09375 25.09375 C 19.265625 25.09375 25.09375 19.242188 25.09375 12.0625 C 25.09375 11.183594 25.007813 10.3125 24.84375 9.46875 Z M 7.0625 10.125 C 6.96875 10.761719 6.90625 11.429688 6.90625 12.09375 C 6.90625 16.699219 9.265625 20.75 12.875 23.0625 C 12.617188 23.082031 12.359375 23.09375 12.09375 23.09375 C 10.054688 23.09375 8.152344 22.558594 6.53125 21.59375 C 5.5625 19.953125 5 18.046875 5 16 C 5 13.953125 5.5625 12.046875 6.53125 10.40625 C 6.703125 10.304688 6.886719 10.214844 7.0625 10.125 Z "></path>
</g>
</svg>
