<?xml version="1.0" encoding="UTF-8"?>
<svg xmlns="http://www.w3.org/2000/svg" xmlns:xlink="http://www.w3.org/1999/xlink" viewBox="0 0 32 32" version="1.1">
<g>
<path d="M 15 4 L 15 5 L 14.5 5 C 13.128906 5 12 6.128906 12 7.5 L 12 8.5 L 12.417969 8.5 C 12.824219 9.332031 13.519531 10 14.5 10 L 17.5 10 C 17.78125 10 18 10.21875 18 10.5 C 18 10.78125 17.78125 11 17.5 11 L 13 11 L 13 13 L 15 13 L 15 14 L 17 14 L 17 13 L 17.5 13 C 18.480469 13 19.175781 12.332031 19.582031 11.5 L 20 11.5 L 20 10.5 C 20 9.128906 18.871094 8 17.5 8 L 14.5 8 C 14.21875 8 14 7.78125 14 7.5 C 14 7.21875 14.21875 7 14.5 7 L 19 7 L 19 5 L 17 5 L 17 4 Z M 2 5 L 2 23 L 15 23 L 15 25 L 10 25 L 10 27 L 22 27 L 22 25 L 17 25 L 17 23 L 30 23 L 30 5 L 21.925781 5 L 22.484375 6.375 C 22.816406 7.1875 23 8.070313 23 9 C 23 12.878906 19.878906 16 16 16 C 12.121094 16 9 12.878906 9 9 C 9 8.070313 9.183594 7.1875 9.515625 6.375 L 10.074219 5 Z M 4 7 L 7.390625 7 C 7.234375 7.660156 7 8.292969 7 9 C 7 13.957031 11.042969 18 16 18 C 20.957031 18 25 13.957031 25 9 C 25 8.292969 24.765625 7.660156 24.609375 7 L 28 7 L 28 21 L 4 21 Z "></path>
</g>
</svg>
