<?xml version="1.0" encoding="UTF-8"?>
<svg xmlns="http://www.w3.org/2000/svg" xmlns:xlink="http://www.w3.org/1999/xlink" viewBox="0 0 32 32" version="1.1">
<g>
<path d="M 10 4 C 8.90625 4 8 4.90625 8 6 L 8 26 C 8 27.09375 8.90625 28 10 28 L 22 28 C 23.09375 28 24 27.09375 24 26 L 24 6 C 24 4.90625 23.09375 4 22 4 Z M 10 6 L 22 6 L 22 26 L 10 26 Z M 12 9 L 12 11 L 20 11 L 20 9 Z M 12 13 L 12 15 L 18 15 L 18 13 Z M 12 17 L 12 19 L 20 19 L 20 17 Z M 14 23 L 14 25 L 18 25 L 18 23 Z "></path>
</g>
</svg>
