<?xml version="1.0" encoding="UTF-8"?>
<svg xmlns="http://www.w3.org/2000/svg" xmlns:xlink="http://www.w3.org/1999/xlink" viewBox="0 0 32 32" version="1.1">
<g>
<path d="M 13.1875 3.015625 C 12.644531 2.921875 12.121094 3.269531 12.015625 3.8125 L 11.59375 6 L 5 6 L 5 21 L 3 21 L 3 23 L 8.328125 23 L 7.171875 29 L 9.210938 29 L 10.363281 23 L 15 23 L 15 27 L 17 27 L 17 23 L 21.636719 23 L 22.789063 29 L 24.828125 29 L 23.671875 23 L 29 23 L 29 21 L 27 21 L 27 6 L 20.402344 6 L 19.984375 3.8125 C 19.878906 3.269531 19.359375 2.921875 18.8125 3.015625 C 18.269531 3.121094 17.914063 3.648438 18.015625 4.1875 L 18.363281 6 L 13.632813 6 L 13.984375 4.1875 C 14.085938 3.644531 13.730469 3.121094 13.1875 3.015625 Z M 7 8 L 25 8 L 25 21 L 7 21 Z M 11 10 C 10.449219 10 10 10.449219 10 11 C 10 11.550781 10.449219 12 11 12 C 11.550781 12 12 11.550781 12 11 C 12 10.449219 11.550781 10 11 10 Z M 14 11.585938 L 9.292969 16.292969 L 10.707031 17.707031 L 14 14.414063 L 17 17.414063 L 19 15.414063 L 21.292969 17.707031 L 22.707031 16.292969 L 19 12.585938 L 17 14.585938 Z "></path>
</g>
</svg>
