<?xml version="1.0" encoding="UTF-8"?>
<svg xmlns="http://www.w3.org/2000/svg" xmlns:xlink="http://www.w3.org/1999/xlink" viewBox="0 0 32 32" version="1.1">
<g>
<path d="M 18.40625 4.0625 C 14.109375 4.0625 11.746094 7.285156 11.25 8 L 10.25 8 C 8.382813 8 6.828125 8.898438 5.75 10.0625 C 4.671875 11.226563 4 12.636719 4 14 L 4 14.40625 L 4.28125 14.6875 C 4.28125 14.6875 6.109375 16.589844 9.0625 16.9375 C 9.144531 18.007813 9.351563 18.804688 9.5625 19.40625 C 9.820313 20.148438 10 20.574219 10 21.40625 C 10 21.359375 9.675781 22.082031 9.1875 22.59375 C 8.699219 23.105469 8.21875 23.5 8.21875 23.5 C 7.957031 23.574219 7.730469 23.597656 7.28125 23.96875 C 6.625 24.515625 6 25.539063 6 27 L 6 28 L 11 28 L 11 26 L 8.375 26 C 8.457031 25.882813 8.476563 25.570313 8.5625 25.5 C 8.816406 25.289063 9 25.25 9 25.25 L 9.25 25.21875 L 9.4375 25.0625 C 9.4375 25.0625 10.023438 24.601563 10.625 23.96875 C 11.226563 23.335938 12 22.613281 12 21.40625 C 12 20.242188 11.679688 19.4375 11.4375 18.75 C 11.25 18.214844 11.09375 17.699219 11.03125 16.90625 C 12.0625 16.722656 12.90625 16.34375 12.90625 16.34375 L 12.1875 14.46875 C 12.1875 14.46875 10.703125 15 9.96875 15 C 7.785156 15 6.527344 13.980469 6.09375 13.59375 C 6.210938 12.953125 6.570313 12.136719 7.21875 11.4375 C 7.996094 10.597656 9.03125 10 10.25 10 L 12.21875 10 L 12.53125 9.5625 C 12.53125 9.5625 14.894531 6.0625 18.40625 6.0625 C 18.785156 6.0625 19 6.269531 19 6.5625 L 19 6.59375 C 19 6.851563 18.824219 7.03125 18.53125 7.0625 C 16.566406 7.265625 15.105469 7.929688 14.125 8.65625 C 13.632813 9.019531 13.269531 9.417969 13 9.78125 C 12.730469 10.144531 12.5 10.382813 12.5 11 C 12.628906 11.097656 13 11.726563 13 12.375 C 13 13.226563 13.414063 13.976563 13.96875 14.46875 C 14.523438 14.960938 15.195313 15.253906 15.875 15.46875 C 17.238281 15.902344 18.699219 16 19.625 16 C 23.476563 16 25 18.394531 25 19.9375 C 25 20.722656 24.714844 21.042969 24.25 21.5625 C 24.019531 21.820313 23.757813 22.121094 23.5 22.5 C 23.242188 22.878906 23 23.410156 23 24 C 23 24.839844 23.34375 25.445313 23.59375 25.9375 C 23.609375 25.96875 23.609375 25.972656 23.625 26 L 14.875 26 C 15.597656 25.535156 16.945313 25 20 25 L 20 23 C 19.34375 23 18.140625 22.890625 17.25 22.59375 C 16.804688 22.445313 16.449219 22.25 16.25 22.0625 C 16.050781 21.875 16 21.765625 16 21.5 C 16 21.324219 16.058594 21.210938 16.21875 21.03125 C 16.378906 20.851563 16.65625 20.664063 17 20.5 C 17.6875 20.175781 18.628906 20 19 20 L 19 18 C 18.210938 18 17.148438 18.203125 16.125 18.6875 C 15.613281 18.929688 15.128906 19.230469 14.71875 19.6875 C 14.308594 20.144531 14 20.789063 14 21.5 C 14 22.3125 14.367188 23.046875 14.875 23.53125 C 14.925781 23.578125 14.980469 23.613281 15.03125 23.65625 C 14.152344 23.953125 13.5 24.316406 13.03125 24.75 C 12.484375 25.253906 12.179688 25.832031 12.0625 26.28125 C 11.945313 26.730469 12 27.15625 12 27.15625 L 12.15625 28 L 26 28 L 26 27 C 26 26.15625 25.65625 25.523438 25.40625 25.03125 C 25.15625 24.539063 25 24.195313 25 24 C 25 23.871094 25.007813 23.796875 25.125 23.625 C 25.242188 23.453125 25.480469 23.207031 25.75 22.90625 C 25.773438 22.882813 25.789063 22.839844 25.8125 22.8125 C 26.019531 22.917969 26.25 23 26.5 23 C 27.328125 23 28 22.328125 28 21.5 C 28 20.84375 27.585938 20.296875 27 20.09375 C 27.003906 20.039063 27 19.992188 27 19.9375 C 27 17.117188 24.335938 14 19.625 14 C 18.859375 14 17.496094 13.886719 16.46875 13.5625 C 15.953125 13.398438 15.550781 13.179688 15.3125 12.96875 C 15.074219 12.757813 15 12.636719 15 12.375 C 15 11.847656 14.925781 11.316406 14.75 10.8125 C 14.890625 10.65625 15.058594 10.46875 15.3125 10.28125 C 16 9.773438 17.113281 9.234375 18.71875 9.0625 C 18.726563 9.0625 18.742188 9.0625 18.75 9.0625 C 19.984375 8.921875 21 7.875 21 6.59375 L 21 6.5625 C 21 5.136719 19.742188 4.0625 18.40625 4.0625 Z M 9 11 C 8.449219 11 8 11.449219 8 12 C 8 12.550781 8.449219 13 9 13 C 9.550781 13 10 12.550781 10 12 C 10 11.449219 9.550781 11 9 11 Z "></path>
</g>
</svg>
