<?xml version="1.0" encoding="UTF-8"?>
<svg xmlns="http://www.w3.org/2000/svg" xmlns:xlink="http://www.w3.org/1999/xlink" viewBox="0 0 32 32" version="1.1">
<g>
<path d="M 10.90625 5.1875 L 10.125 7.03125 L 25.125 13.25 L 25.9375 20.3125 L 20.375 24.71875 L 5.375 18.53125 L 4.625 20.375 L 20.15625 26.8125 L 20.6875 27.03125 L 21.15625 26.65625 L 27.625 21.53125 L 28.0625 21.1875 L 28 20.625 L 27.0625 12.4375 L 27 11.84375 L 26.4375 11.625 Z M 11.28125 11.1875 L 9.0625 16.53125 L 12.28125 17.875 L 12.75 16.71875 L 10.9375 15.96875 L 11.375 14.90625 L 13.03125 15.59375 L 13.46875 14.5 L 11.8125 13.8125 L 12.1875 12.90625 L 13.96875 13.625 L 14.4375 12.5 Z M 16.21875 13.34375 C 15.355469 13.390625 14.996094 14.097656 14.8125 14.5 C 14.027344 16.386719 16.410156 16.71875 16 17.8125 C 15.835938 18.257813 15.488281 18.214844 15.34375 18.15625 C 14.78125 17.933594 15.1875 17.21875 15.1875 17.21875 L 13.84375 16.65625 L 13.78125 16.84375 C 13.089844 18.417969 14.628906 18.898438 14.9375 19.0625 C 16.707031 19.789063 17.265625 18.785156 17.5 18.21875 C 18.308594 16.292969 15.84375 15.800781 16.28125 14.78125 C 16.332031 14.664063 16.539063 14.347656 16.90625 14.5 C 17.367188 14.691406 17 15.375 17 15.375 L 18.3125 15.90625 C 18.542969 15.328125 18.914063 14.222656 17.25 13.5625 C 16.832031 13.398438 16.507813 13.328125 16.21875 13.34375 Z M 20.125 14.875 L 17.9375 20.1875 L 21.15625 21.53125 L 21.625 20.40625 L 19.78125 19.625 L 20.21875 18.5625 L 21.875 19.25 L 22.34375 18.15625 L 20.6875 17.46875 L 21.0625 16.5625 L 22.8125 17.3125 L 23.28125 16.15625 Z "></path>
</g>
</svg>
