<?xml version="1.0" encoding="UTF-8"?>
<svg xmlns="http://www.w3.org/2000/svg" xmlns:xlink="http://www.w3.org/1999/xlink" viewBox="0 0 32 32" version="1.1">
<g>
<path d="M 27.921875 15 C 28.164063 13 27.753906 11.277344 26.738281 10.257813 C 25.917969 9.4375 24.664063 9 23.113281 9 C 23.03125 9 22.945313 9.011719 22.863281 9.015625 C 22.511719 6.738281 21.492188 5.023438 20.046875 4.351563 C 17.625 3.222656 14.039063 4.992188 11.914063 7.496094 C 10.910156 7.183594 9.867188 7 8.886719 7 C 7.339844 7 6.085938 7.4375 5.261719 8.257813 C 3.695313 9.828125 3.761719 12.609375 4.527344 15 L 3 15 L 3 17 L 4 17 C 4.550781 17 5 17.449219 5 18 L 5 18.5 C 5 21.796875 7.445313 24.652344 11 26.0625 L 11 28 L 21 28 L 21 26.0625 C 24.554688 24.652344 27 21.796875 27 18.5 L 27 18 C 27 17.449219 27.449219 17 28 17 L 29 17 L 29 15 Z M 23.113281 11 C 24.105469 11 24.890625 11.238281 25.324219 11.671875 C 25.921875 12.273438 26.132813 13.535156 25.910156 15 L 17.945313 15 C 18.023438 14.300781 17.984375 13.605469 17.808594 12.921875 C 19.140625 11.796875 21.285156 11 23.113281 11 Z M 19.199219 6.164063 C 19.992188 6.53125 20.628906 7.742188 20.878906 9.285156 C 19.453125 9.621094 18.054688 10.246094 16.949219 11.054688 C 16.667969 10.625 16.34375 10.203125 15.949219 9.808594 C 15.382813 9.242188 14.664063 8.738281 13.867188 8.316406 C 15.539063 6.625 17.9375 5.570313 19.199219 6.164063 Z M 6.679688 9.671875 C 7.109375 9.238281 7.894531 9 8.886719 9 C 10.875 9 13.25 9.933594 14.53125 11.21875 C 15.699219 12.390625 16.175781 13.683594 15.941406 15 L 6.644531 15 C 5.804688 12.863281 5.789063 10.5625 6.679688 9.671875 Z M 25 18 L 25 18.5 C 25 22.085938 20.964844 25 16 25 C 11.039063 25 7 22.085938 7 18.5 L 7 18 C 7 17.648438 6.929688 17.3125 6.816406 17 L 25.183594 17 C 25.070313 17.3125 25 17.648438 25 18 Z "></path>
</g>
</svg>
