<?xml version="1.0"?>
<svg xmlns="http://www.w3.org/2000/svg" viewBox="0 0 32 32">
    <path d="M 6 3 L 6 29 L 14.580078 29 L 14.994141 27 L 8 27 L 8 5 L 18 5 L 18 11 L 24 11 L 24 16.970703 L 25.486328 15.484375 C 25.646328 15.324375 25.825 15.195547 26 15.060547 L 26 9.5859375 L 19.414062 3 L 6 3 z M 20 6.4140625 L 22.585938 9 L 20 9 L 20 6.4140625 z M 16 12 C 12.691 12 10 14.691 10 18 C 10 21.309 12.691 24 16 24 C 16.71 24 17.388484 23.869578 18.021484 23.642578 L 21.822266 19.417969 C 21.934266 18.962969 22 18.489 22 18 C 22 14.691 19.309 12 16 12 z M 16 14 L 16 18 L 20 18 C 20 20.206 18.206 22 16 22 C 13.794 22 12 20.206 12 18 C 12 15.794 13.794 14 16 14 z M 29 16 C 28.25 16 27.500391 16.300391 26.900391 16.900391 L 17.099609 26.699219 L 16 32 L 21.300781 30.900391 L 31.099609 21.099609 C 32.299609 19.899609 32.299609 18.100391 31.099609 16.900391 C 30.499609 16.300391 29.75 16 29 16 z M 29 18 C 29.25 18 29.499219 18.100781 29.699219 18.300781 C 30.099219 18.700781 30.099219 19.299219 29.699219 19.699219 L 20.300781 29.099609 L 18.599609 29.400391 L 18.900391 27.699219 L 28.300781 18.300781 C 28.500781 18.100781 28.75 18 29 18 z" font-weight="400" font-family="sans-serif" white-space="normal" overflow="visible"></path>
</svg>
