<?xml version="1.0" encoding="UTF-8"?>
<svg xmlns="http://www.w3.org/2000/svg" xmlns:xlink="http://www.w3.org/1999/xlink" viewBox="0 0 32 32" version="1.1">
<g>
<path d="M 2 10 L 2 22 L 11.78125 22 L 20.90625 31.09375 C 22.058594 32.246094 23.941406 32.246094 25.09375 31.09375 C 26.246094 29.941406 26.246094 28.058594 25.09375 26.90625 L 20.1875 22 L 30 22 L 30 10 Z M 4 12 L 28 12 L 28 20 L 18.21875 20 L 15 16.78125 L 14.6875 16.71875 L 11.1875 16.03125 L 9.71875 15.71875 L 10.03125 17.1875 L 10.59375 20 L 4 20 Z M 12.28125 18.28125 L 14 18.625 L 23.6875 28.3125 C 24.132813 28.757813 24.132813 29.242188 23.6875 29.6875 C 23.242188 30.132813 22.757813 30.132813 22.3125 29.6875 L 12.625 20 Z "></path>
</g>
</svg>
