<?xml version="1.0" encoding="UTF-8"?>
<svg xmlns="http://www.w3.org/2000/svg" xmlns:xlink="http://www.w3.org/1999/xlink" viewBox="0 0 32 32" version="1.1">
<g>
<path d="M 25.125 5.34375 C 25.125 5.34375 24.003906 7.117188 22.625 8.96875 C 22.417969 9.121094 22.199219 9.167969 21.9375 9.1875 C 21.566406 9.21875 21.101563 9.132813 20.65625 8.96875 C 19.761719 8.636719 19 8.0625 19 8.0625 L 17.78125 9.625 C 17.78125 9.625 18.6875 10.382813 19.9375 10.84375 C 20.234375 10.953125 20.566406 11.058594 20.90625 11.125 C 20.585938 11.484375 20.277344 11.804688 19.96875 12.09375 C 19.40625 12.621094 19.066406 13.160156 18.8125 13.78125 L 20.65625 14.53125 C 20.855469 14.042969 20.9375 13.910156 21.34375 13.53125 C 21.71875 13.179688 22.128906 12.816406 22.5 12.40625 C 22.929688 13.632813 23.785156 14.707031 24.75 15.625 L 26.125 14.1875 C 25.316406 13.417969 24.679688 12.53125 24.40625 11.75 C 24.132813 10.96875 24.144531 10.378906 24.625 9.71875 C 25.925781 7.941406 26.84375 6.40625 26.84375 6.40625 Z M 17.34375 10.5625 C 16.695313 11.039063 16.175781 11.597656 15.6875 12.15625 C 15.160156 12.757813 14.605469 13.390625 13.90625 13.875 C 12.675781 14.730469 11.347656 15.140625 10.0625 15.53125 C 7.566406 16.289063 5 17.078125 5 21.15625 C 5 23.984375 7.382813 27 10.9375 27 C 14.867188 27 19.339844 24.671875 22.0625 21.21875 C 23.203125 19.769531 23.953125 18.210938 24.3125 16.625 C 23.609375 16.042969 23 15.359375 22.53125 14.65625 C 22.5 16.867188 21.492188 18.738281 20.5 20 C 18.175781 22.949219 14.234375 25 10.9375 25 C 8.617188 25 7 22.980469 7 21.15625 C 7 18.664063 8.121094 18.207031 10.65625 17.4375 C 12.023438 17.023438 13.574219 16.5625 15.0625 15.53125 C 15.964844 14.90625 16.609375 14.160156 17.1875 13.5 C 17.945313 12.640625 18.550781 11.984375 19.46875 11.71875 C 18.714844 11.4375 17.984375 11.039063 17.34375 10.5625 Z "></path>
</g>
</svg>
