<?xml version="1.0" encoding="UTF-8"?>
<svg xmlns="http://www.w3.org/2000/svg" xmlns:xlink="http://www.w3.org/1999/xlink" viewBox="0 0 32 32" version="1.1">
<g>
<path d="M 15 3 L 15 5 L 14 5 L 14 7 L 13 7 L 13 9 L 14.175781 9 C 13.554688 13.085938 12.09375 16.90625 10.589844 20 L 9 20 L 9 22 L 9.566406 22 C 7.789063 25.273438 6.210938 27.328125 6.210938 27.328125 L 6 27.597656 L 6 29 L 13 29 L 13 28 C 13 26.332031 14.332031 25 16 25 C 17.667969 25 19 26.332031 19 28 L 19 29 L 26 29 L 26 27.605469 L 25.789063 27.335938 C 25.789063 27.335938 24.210938 25.277344 22.433594 22 L 23 22 L 23 20 L 21.410156 20 C 19.902344 16.90625 18.445313 13.085938 17.824219 9 L 19 9 L 19 7 L 18 7 L 18 5 L 17 5 L 17 3 Z M 16 10.144531 C 16.65625 13.839844 17.871094 17.191406 19.160156 20 L 12.835938 20 C 14.128906 17.191406 15.34375 13.839844 16 10.144531 Z M 11.859375 22 L 20.140625 22 C 21.261719 24.167969 22.351563 25.902344 23.109375 27 L 20.796875 27 C 20.316406 24.742188 18.394531 23 16 23 C 13.605469 23 11.683594 24.742188 11.203125 27 L 8.890625 27 C 9.640625 25.90625 10.738281 24.171875 11.859375 22 Z "></path>
</g>
</svg>
