<?xml version="1.0" encoding="UTF-8"?>
<svg xmlns="http://www.w3.org/2000/svg" xmlns:xlink="http://www.w3.org/1999/xlink" viewBox="0 0 32 32" version="1.1">
<g>
<path d="M 19.4375 4 C 17.515625 4 15.9375 5.578125 15.9375 7.5 C 15.9375 9.421875 17.515625 11 19.4375 11 C 21.359375 11 22.9375 9.421875 22.9375 7.5 C 22.9375 5.578125 21.359375 4 19.4375 4 Z M 19.4375 6 C 20.277344 6 20.9375 6.660156 20.9375 7.5 C 20.9375 8.339844 20.277344 9 19.4375 9 C 18.597656 9 17.9375 8.339844 17.9375 7.5 C 17.9375 6.660156 18.597656 6 19.4375 6 Z M 14.40625 9.03125 C 13.890625 9.082031 13.425781 9.332031 13.09375 9.75 C 10.679688 12.773438 10.984375 16.917969 11 17.09375 L 11.03125 17.40625 L 14.40625 21.1875 L 15.625 27 L 17.6875 27 L 16.28125 20.25 L 13 16.59375 C 12.984375 15.6875 13.082031 13.023438 14.59375 11.0625 L 15.84375 14.71875 C 15.980469 15.105469 16.230469 15.445313 16.5625 15.6875 L 20.375 18.4375 L 21.5625 16.8125 L 17.75 14.0625 L 16.4375 10.3125 C 16.207031 9.648438 15.628906 9.152344 14.9375 9.03125 C 14.761719 9 14.578125 9.015625 14.40625 9.03125 Z M 22.1875 17.875 L 21.1875 19.375 L 22.21875 27 L 23.5 27 Z M 11.40625 19.34375 L 9.90625 27 L 11.9375 27 L 13.09375 21.1875 Z "></path>
</g>
</svg>
