<?xml version="1.0" encoding="UTF-8"?>
<svg xmlns="http://www.w3.org/2000/svg" xmlns:xlink="http://www.w3.org/1999/xlink" viewBox="0 0 32 32" version="1.1">
<g>
<path d="M 5 4 C 4.449219 4 4 4.449219 4 5 C 4 5.550781 4.449219 6 5 6 C 5.550781 6 6 5.550781 6 5 C 6 4.449219 5.550781 4 5 4 Z M 8 4 C 7.449219 4 7 4.449219 7 5 C 7 5.550781 7.449219 6 8 6 C 8.550781 6 9 5.550781 9 5 C 9 4.449219 8.550781 4 8 4 Z M 11 4 C 10.449219 4 10 4.449219 10 5 C 10 5.550781 10.449219 6 11 6 C 11.550781 6 12 5.550781 12 5 C 12 4.449219 11.550781 4 11 4 Z M 14 4 C 13.449219 4 13 4.449219 13 5 C 13 5.550781 13.449219 6 14 6 C 14.550781 6 15 5.550781 15 5 C 15 4.449219 14.550781 4 14 4 Z M 17 4 C 16.449219 4 16 4.449219 16 5 C 16 5.550781 16.449219 6 17 6 C 17.550781 6 18 5.550781 18 5 C 18 4.449219 17.550781 4 17 4 Z M 20 4 C 19.449219 4 19 4.449219 19 5 C 19 5.550781 19.449219 6 20 6 C 20.550781 6 21 5.550781 21 5 C 21 4.449219 20.550781 4 20 4 Z M 23 4 C 22.449219 4 22 4.449219 22 5 C 22 5.550781 22.449219 6 23 6 C 23.550781 6 24 5.550781 24 5 C 24 4.449219 23.550781 4 23 4 Z M 26 4 C 25.449219 4 25 4.449219 25 5 C 25 5.550781 25.449219 6 26 6 C 26.550781 6 27 5.550781 27 5 C 27 4.449219 26.550781 4 26 4 Z M 23.09375 8 C 22.417969 8 21.839844 8.398438 21.46875 8.84375 C 21.097656 9.289063 20.839844 9.804688 20.625 10.375 C 20.195313 11.519531 19.902344 12.894531 19.5625 14.25 C 19.5 14.507813 19.441406 14.746094 19.375 15 L 12.90625 15 L 13.40625 17 L 18.75 17 C 18.636719 17.292969 18.5 17.578125 18.375 17.8125 C 17.910156 18.6875 17.542969 19 17 19 C 16.28125 19 15.636719 19.363281 15.25 19.78125 C 14.863281 20.199219 14.636719 20.644531 14.4375 21.03125 C 14.238281 21.417969 14.058594 21.753906 13.9375 21.90625 C 13.878906 21.980469 13.867188 21.996094 13.875 22 C 13.824219 21.996094 13.78125 21.964844 13.625 21.78125 C 13.441406 21.566406 13.179688 21.175781 12.96875 20.625 C 12.546875 19.527344 12.191406 17.902344 11.84375 16.28125 C 11.496094 14.660156 11.171875 13.019531 10.6875 11.6875 C 10.445313 11.023438 10.148438 10.4375 9.75 9.9375 C 9.351563 9.4375 8.734375 9 8 9 C 6.699219 9 5.785156 9.8125 5.40625 10.53125 C 5.027344 11.25 5 11.9375 5 11.9375 L 7 12.0625 C 7 12.0625 7.039063 11.75 7.1875 11.46875 C 7.335938 11.1875 7.402344 11 8 11 C 8.015625 11 8.046875 10.976563 8.21875 11.1875 C 8.390625 11.398438 8.609375 11.820313 8.8125 12.375 C 9.070313 13.082031 9.304688 14.007813 9.53125 15 L 4 15 L 4 17 L 9.96875 17 C 10.300781 18.53125 10.640625 20.050781 11.125 21.3125 C 11.382813 21.980469 11.667969 22.597656 12.09375 23.09375 C 12.519531 23.589844 13.167969 24 13.90625 24 C 14.613281 24 15.207031 23.566406 15.53125 23.15625 C 15.855469 22.746094 16.03125 22.332031 16.21875 21.96875 C 16.40625 21.605469 16.582031 21.300781 16.71875 21.15625 C 16.855469 21.011719 16.867188 21 17 21 C 18.457031 21 19.527344 19.9375 20.15625 18.75 C 20.785156 17.5625 21.152344 16.144531 21.5 14.75 C 21.847656 13.355469 22.15625 11.980469 22.5 11.0625 C 22.671875 10.601563 22.871094 10.28125 23 10.125 C 23.128906 9.96875 23.097656 10 23.09375 10 C 23.398438 10 23.554688 10.164063 23.75 10.5 C 23.945313 10.835938 24.03125 11.1875 24.03125 11.1875 L 25.96875 10.8125 C 25.96875 10.8125 25.851563 10.164063 25.46875 9.5 C 25.085938 8.835938 24.289063 8 23.09375 8 Z M 22.5 15 C 22.300781 16.101563 22 17 22 17 L 28 17 L 28 15 Z M 5 26 C 4.449219 26 4 26.449219 4 27 C 4 27.550781 4.449219 28 5 28 C 5.550781 28 6 27.550781 6 27 C 6 26.449219 5.550781 26 5 26 Z M 8 26 C 7.449219 26 7 26.449219 7 27 C 7 27.550781 7.449219 28 8 28 C 8.550781 28 9 27.550781 9 27 C 9 26.449219 8.550781 26 8 26 Z M 11 26 C 10.449219 26 10 26.449219 10 27 C 10 27.550781 10.449219 28 11 28 C 11.550781 28 12 27.550781 12 27 C 12 26.449219 11.550781 26 11 26 Z M 14 26 C 13.449219 26 13 26.449219 13 27 C 13 27.550781 13.449219 28 14 28 C 14.550781 28 15 27.550781 15 27 C 15 26.449219 14.550781 26 14 26 Z M 17 26 C 16.449219 26 16 26.449219 16 27 C 16 27.550781 16.449219 28 17 28 C 17.550781 28 18 27.550781 18 27 C 18 26.449219 17.550781 26 17 26 Z M 20 26 C 19.449219 26 19 26.449219 19 27 C 19 27.550781 19.449219 28 20 28 C 20.550781 28 21 27.550781 21 27 C 21 26.449219 20.550781 26 20 26 Z M 23 26 C 22.449219 26 22 26.449219 22 27 C 22 27.550781 22.449219 28 23 28 C 23.550781 28 24 27.550781 24 27 C 24 26.449219 23.550781 26 23 26 Z M 26 26 C 25.449219 26 25 26.449219 25 27 C 25 27.550781 25.449219 28 26 28 C 26.550781 28 27 27.550781 27 27 C 27 26.449219 26.550781 26 26 26 Z "></path>
</g>
</svg>
