<?xml version="1.0" encoding="UTF-8"?>
<svg xmlns="http://www.w3.org/2000/svg" xmlns:xlink="http://www.w3.org/1999/xlink" viewBox="0 0 32 32" version="1.1">
<g>
<path d="M 19.84375 4 L 6.84375 6 L 5.6875 6.1875 L 8 13.125 L 8 25 L 23 25 L 23 6 C 24.191406 6 25 6.808594 25 8 L 25 15 L 27 15 L 27 8 C 27 5.789063 25.210938 4 23 4 Z M 20.15625 6 L 21 6 L 21 23 L 10 23 L 10 12.84375 L 9.9375 12.6875 L 8.3125 7.8125 Z M 17 11 L 17 21 L 19 21 L 19 11 Z M 6 26 L 6 28 L 25 28 L 25 26 Z "></path>
</g>
</svg>
