<?xml version="1.0" encoding="UTF-8"?>
<svg xmlns="http://www.w3.org/2000/svg" xmlns:xlink="http://www.w3.org/1999/xlink" viewBox="0 0 32 32" version="1.1">
<g>
<path d="M 5 5 L 5 27 L 15 27 L 15 5 Z M 17 5 L 17 27 L 27 27 L 27 5 Z M 7 7 L 13 7 L 13 10 L 8 10 L 8 12 L 13 12 L 13 21 L 8 21 L 8 23 L 13 23 L 13 25 L 7 25 Z M 19 7 L 25 7 L 25 10 L 20 10 L 20 12 L 25 12 L 25 21 L 20 21 L 20 23 L 25 23 L 25 25 L 19 25 Z M 10 13.625 L 9.28125 15.25 L 7.5 15.4375 L 8.84375 16.625 L 8.46875 18.375 L 10 17.46875 L 11.53125 18.375 L 11.15625 16.625 L 12.5 15.4375 L 10.71875 15.25 Z M 22 13.625 L 21.28125 15.25 L 19.5 15.4375 L 20.84375 16.625 L 20.46875 18.375 L 22 17.46875 L 23.53125 18.375 L 23.15625 16.625 L 24.5 15.4375 L 22.71875 15.25 Z "></path>
</g>
</svg>
