<?xml version="1.0" encoding="UTF-8"?>
<svg xmlns="http://www.w3.org/2000/svg" xmlns:xlink="http://www.w3.org/1999/xlink" viewBox="0 0 32 32" version="1.1">
<g>
<path d="M 3 5 L 3 11.84375 L 2 18.84375 L 2 19 C 2 19.5 2.191406 19.960938 2.5 20.3125 C 2.175781 20.792969 2 21.382813 2 22 C 2 23.644531 3.355469 25 5 25 L 27 25 C 28.644531 25 30 23.644531 30 22 C 30 21.382813 29.824219 20.792969 29.5 20.3125 C 29.808594 19.960938 30 19.5 30 19 C 30 14.59375 26.40625 11 22 11 L 19.4375 11 L 20.71875 9.71875 L 19.28125 8.28125 L 15.28125 12.28125 L 16.71875 13.71875 L 18 12.4375 L 18 14.9375 C 11.445313 14.78125 9.039063 13.359375 8.34375 12.5625 C 7.511719 11.609375 6.332031 11 5.03125 11 L 5 11 L 5 5 Z M 4.875 13 L 5.03125 13 C 5.726563 13 6.363281 13.324219 6.84375 13.875 C 8.164063 15.386719 11.269531 17 19 17 L 20 17 L 20 13 L 22 13 C 25.324219 13 28 15.675781 28 19 L 4.03125 19 Z M 5 21 L 27 21 C 27.566406 21 28 21.433594 28 22 C 28 22.566406 27.566406 23 27 23 L 5 23 C 4.433594 23 4 22.566406 4 22 C 4 21.433594 4.433594 21 5 21 Z "></path>
</g>
</svg>
