<?xml version="1.0" encoding="UTF-8"?>
<svg xmlns="http://www.w3.org/2000/svg" xmlns:xlink="http://www.w3.org/1999/xlink" viewBox="0 0 32 32" version="1.1">
<g>
<path d="M 4 8 L 4 26 L 28 26 L 28 8 Z M 6 10 L 26 10 L 26 18 L 6 18 Z M 8 13 L 8 15 L 15 15 L 15 13 Z M 18.5 13 C 17.671875 13 17 13.671875 17 14.5 C 17 15.328125 17.671875 16 18.5 16 C 19.328125 16 20 15.328125 20 14.5 C 20 13.671875 19.328125 13 18.5 13 Z M 22.5 13 C 21.671875 13 21 13.671875 21 14.5 C 21 15.328125 21.671875 16 22.5 16 C 23.328125 16 24 15.328125 24 14.5 C 24 13.671875 23.328125 13 22.5 13 Z M 6 20 L 8 20 L 8 23 L 10 23 L 10 20 L 11 20 L 11 23 L 13 23 L 13 20 L 16 20 L 16 23 L 18 23 L 18 20 L 19 20 L 19 23 L 21 23 L 21 20 L 22 20 L 22 23 L 24 23 L 24 20 L 26 20 L 26 24 L 6 24 Z "></path>
</g>
</svg>
