<?xml version="1.0" encoding="UTF-8"?>
<svg xmlns="http://www.w3.org/2000/svg" xmlns:xlink="http://www.w3.org/1999/xlink" viewBox="0 0 32 32" version="1.1">
<g>
<path d="M 12 2 L 9 5 L 15 5 Z M 17 2 L 20 5 L 23 2 Z M 4 8 L 4 29 L 28 29 L 28 8 Z M 6 10 L 26 10 L 26 27 L 6 27 Z M 11.5 11 C 10.132813 11 9 12.132813 9 13.5 C 9 14.265625 9.359375 14.945313 9.90625 15.40625 C 8.785156 15.992188 8 17.152344 8 18.5 L 8 22 L 9 22 L 9 26 L 11 26 L 11 20 L 10 20 L 10 18.5 C 10 17.660156 10.660156 17 11.5 17 C 12.339844 17 13 17.660156 13 18.5 L 13 20 L 12 20 L 12 26 L 14 26 L 14 22 L 15 22 L 15 18.5 C 15 17.152344 14.214844 15.992188 13.09375 15.40625 C 13.640625 14.945313 14 14.265625 14 13.5 C 14 12.132813 12.867188 11 11.5 11 Z M 20.5 11 C 19.132813 11 18 12.132813 18 13.5 C 18 14.265625 18.359375 14.945313 18.90625 15.40625 C 17.785156 15.992188 17 17.152344 17 18.5 L 17 22 L 18 22 L 18 26 L 20 26 L 20 20 L 19 20 L 19 18.5 C 19 17.660156 19.660156 17 20.5 17 C 21.339844 17 22 17.660156 22 18.5 L 22 20 L 21 20 L 21 26 L 23 26 L 23 22 L 24 22 L 24 18.5 C 24 17.152344 23.214844 15.992188 22.09375 15.40625 C 22.640625 14.945313 23 14.265625 23 13.5 C 23 12.132813 21.867188 11 20.5 11 Z M 11.5 13 C 11.789063 13 12 13.210938 12 13.5 C 12 13.789063 11.789063 14 11.5 14 C 11.210938 14 11 13.789063 11 13.5 C 11 13.210938 11.210938 13 11.5 13 Z M 20.5 13 C 20.789063 13 21 13.210938 21 13.5 C 21 13.789063 20.789063 14 20.5 14 C 20.210938 14 20 13.789063 20 13.5 C 20 13.210938 20.210938 13 20.5 13 Z "></path>
</g>
</svg>
