<?xml version="1.0" encoding="UTF-8"?>
<svg xmlns="http://www.w3.org/2000/svg" xmlns:xlink="http://www.w3.org/1999/xlink" viewBox="0 0 32 32" version="1.1">
<g>
<path d="M 9 4 C 7.355469 4 6 5.355469 6 7 L 6 16 L 9 16 L 9.6875 14 L 8 14 L 8 7 C 8 6.433594 8.433594 6 9 6 L 23 6 C 23.566406 6 24 6.433594 24 7 L 24 14 L 22.3125 14 L 23 16 L 26 16 L 26 7 C 26 5.355469 24.644531 4 23 4 Z M 16 8 C 14.542969 8 13.199219 8.792969 12.84375 10.15625 C 12.835938 10.175781 12.824219 10.183594 12.8125 10.21875 C 12.789063 10.289063 12.757813 10.410156 12.71875 10.53125 C 12.640625 10.769531 12.539063 11.0625 12.4375 11.375 C 12.277344 11.875 12.183594 12.195313 12.125 12.375 C 11.46875 12.945313 10.972656 13.652344 10.75 14.5 C 10.722656 14.609375 9.859375 17.855469 9.28125 19.71875 L 9.3125 19.71875 C 9.109375 20.316406 9 20.933594 9 21.59375 C 9 25.175781 12.199219 28 16 28 C 19.800781 28 23 25.175781 23 21.59375 C 23 20.933594 22.890625 20.316406 22.6875 19.71875 L 22.71875 19.71875 C 22.140625 17.855469 21.28125 14.621094 21.25 14.5 C 21.023438 13.636719 20.519531 12.917969 19.84375 12.34375 C 19.789063 12.148438 19.714844 11.855469 19.5625 11.375 C 19.464844 11.066406 19.355469 10.769531 19.28125 10.53125 C 19.242188 10.414063 19.210938 10.289063 19.1875 10.21875 C 19.175781 10.183594 19.160156 10.175781 19.15625 10.15625 C 18.800781 8.789063 17.457031 8 16 8 Z M 16 10 C 16.710938 10 17.15625 10.417969 17.21875 10.65625 C 17.242188 10.75 17.242188 10.726563 17.25 10.75 C 17.257813 10.773438 17.269531 10.808594 17.28125 10.84375 C 17.304688 10.917969 17.335938 11.007813 17.375 11.125 C 17.378906 11.132813 17.371094 11.148438 17.375 11.15625 C 16.929688 11.058594 16.476563 11 16 11 C 15.523438 11 15.070313 11.058594 14.625 11.15625 C 14.628906 11.148438 14.621094 11.132813 14.625 11.125 C 14.664063 11.003906 14.695313 10.917969 14.71875 10.84375 C 14.730469 10.804688 14.742188 10.773438 14.75 10.75 C 14.757813 10.726563 14.75 10.773438 14.78125 10.65625 C 14.84375 10.414063 15.289063 10 16 10 Z M 16 13 C 17.746094 13 19.082031 13.992188 19.34375 15 L 19.3125 15 C 19.332031 15.070313 19.507813 15.695313 19.625 16.125 C 18.558594 15.53125 17.320313 15.1875 16 15.1875 C 14.679688 15.1875 13.441406 15.53125 12.375 16.125 C 12.492188 15.695313 12.667969 15.074219 12.6875 15 L 12.65625 15 C 12.917969 13.992188 14.253906 13 16 13 Z M 16 17.1875 C 18.828125 17.1875 21 19.210938 21 21.59375 C 21 23.976563 18.828125 26 16 26 C 13.171875 26 11 23.976563 11 21.59375 C 11 19.210938 13.171875 17.1875 16 17.1875 Z M 16 19.34375 C 15.449219 19.34375 15 19.695313 15 20.15625 C 15 20.617188 15.449219 21 16 21 C 16.550781 21 17 20.617188 17 20.15625 C 17 19.695313 16.550781 19.34375 16 19.34375 Z "></path>
</g>
</svg>
