<?xml version="1.0"?>
<svg xmlns="http://www.w3.org/2000/svg" viewBox="0 0 32 32">
    <path d="M 16 2 C 8.2798581 2 2 8.2798581 2 16 C 2 23.720142 8.2798581 30 16 30 C 23.720142 30 30 23.720142 30 16 C 30 8.2798581 23.720142 2 16 2 z M 16 4 C 22.639262 4 28 9.3607384 28 16 C 28 22.639262 22.639262 28 16 28 C 9.3607384 28 4 22.639262 4 16 C 4 9.3607384 9.3607384 4 16 4 z M 16 6 C 10.488666 6 6 10.488666 6 16 C 6 21.511334 10.488666 26 16 26 C 18.239472 26 20.317026 25.261129 21.984375 24.013672 L 20.785156 22.412109 C 19.450505 23.410653 17.800528 24 16 24 C 11.569334 24 8 20.430666 8 16 C 8 11.569334 11.569334 8 16 8 C 20.430666 8 24 11.569334 24 16 L 24 17.226562 C 24 18.268739 23.178474 19.091797 22.136719 19.091797 C 21.094963 19.091797 20.273436 18.268318 20.273438 17.226562 L 20.273438 11.091797 L 18.273438 11.091797 L 18.273438 11.988281 C 17.412428 11.322043 16.347732 10.908203 15.181641 10.908203 C 12.381804 10.908203 10.091797 13.200163 10.091797 16 C 10.091797 18.799837 12.381804 21.091797 15.181641 21.091797 C 16.675877 21.091797 18.011576 20.426988 18.945312 19.392578 C 19.64287 20.414971 20.815222 21.091797 22.136719 21.091797 C 24.258963 21.091797 26 19.348387 26 17.226562 L 26 16 C 26 10.488666 21.511334 6 16 6 z M 15.181641 12.908203 C 16.900597 12.908203 18.273437 14.281043 18.273438 16 C 18.273436 17.718957 16.900597 19.091797 15.181641 19.091797 C 13.462684 19.091797 12.091797 17.718957 12.091797 16 C 12.091797 14.281043 13.462684 12.908203 15.181641 12.908203 z" font-weight="400" font-family="sans-serif" white-space="normal" overflow="visible"></path>
</svg>
