<?xml version="1.0" encoding="UTF-8"?>
<svg xmlns="http://www.w3.org/2000/svg" xmlns:xlink="http://www.w3.org/1999/xlink" viewBox="0 0 32 32" version="1.1">
<g>
<path d="M 18.65625 4 C 18.160156 3.980469 17.703125 4.078125 17.34375 4.21875 C 16.378906 4.589844 16.066406 5 15 5 L 15 7 C 16.621094 7 17.574219 6.28125 18.0625 6.09375 C 18.304688 6 18.414063 5.964844 18.75 6.03125 C 19.085938 6.097656 19.652344 6.324219 20.46875 6.84375 L 21.53125 5.15625 C 20.59375 4.558594 19.855469 4.203125 19.15625 4.0625 C 18.980469 4.027344 18.820313 4.007813 18.65625 4 Z M 7 8 L 7 12 L 5 12 L 5 26 L 27 26 L 27 12 L 25 12 L 25 8 Z M 9 10 L 23 10 L 23 12 L 21 12 L 21 11 L 19 11 L 19 12 L 17 12 L 17 11 L 15 11 L 15 12 L 13 12 L 13 11 L 11 11 L 11 12 L 9 12 Z M 7 14 L 25 14 L 25 24 L 19 24 L 19 20 L 13 20 L 13 24 L 7 24 Z M 9 16 L 9 18 L 11 18 L 11 16 Z M 13 16 L 13 18 L 15 18 L 15 16 Z M 17 16 L 17 18 L 19 18 L 19 16 Z M 21 16 L 21 18 L 23 18 L 23 16 Z M 9 20 L 9 22 L 11 22 L 11 20 Z M 21 20 L 21 22 L 23 22 L 23 20 Z M 15 22 L 17 22 L 17 24 L 15 24 Z "></path>
</g>
</svg>
