<?xml version="1.0" encoding="UTF-8"?>
<svg xmlns="http://www.w3.org/2000/svg" xmlns:xlink="http://www.w3.org/1999/xlink" viewBox="0 0 32 32" version="1.1">
<g>
<path d="M 16 4 C 9.382813 4 4 9.382813 4 16 C 4 18.871094 5.007813 21.578125 6.84375 23.746094 L 4.292969 26.292969 L 5.707031 27.707031 L 27.707031 5.707031 L 26.292969 4.292969 L 23.746094 6.84375 C 21.582031 5.007813 18.871094 4 16 4 Z M 16 6 C 18.335938 6 20.546875 6.792969 22.328125 8.257813 L 8.257813 22.328125 C 6.796875 20.546875 6 18.335938 6 16 C 6 10.484375 10.484375 6 16 6 Z M 26.328125 9.917969 L 24.859375 11.382813 C 25.585938 12.765625 26 14.335938 26 16 C 26 21.515625 21.515625 26 16 26 C 14.335938 26 12.765625 25.585938 11.382813 24.859375 L 9.917969 26.328125 C 11.703125 27.382813 13.777344 28 16 28 C 22.617188 28 28 22.617188 28 16 C 28 13.777344 27.382813 11.703125 26.328125 9.917969 Z "></path>
</g>
</svg>
