<?xml version="1.0"?>
<svg xmlns="http://www.w3.org/2000/svg" viewBox="0 0 32 32">
    <path d="M 18 4 C 16.895 4 16 4.895 16 6 L 5 6 C 3.3555411 6 2 7.3544268 2 9 L 2 25 L 5.0507812 25 C 5.2981765 26.685411 6.7500665 28 8.5 28 C 10.249933 28 11.701823 26.685411 11.949219 25 L 20.050781 25 C 20.298177 26.685411 21.750067 28 23.5 28 C 25.249933 28 26.701823 26.685411 26.949219 25 L 30 25 L 30 14.574219 C 30 14.012552 29.841594 13.461576 29.542969 12.984375 L 29.523438 12.951172 L 25.392578 7.3457031 L 25.435547 7.4101562 C 24.888392 6.5332094 23.92362 6 22.890625 6 L 20 6 C 20 4.895 19.105 4 18 4 z M 5 8 L 16 8 L 20 8 L 22.890625 8 C 23.23763 8 23.555434 8.175694 23.738281 8.46875 L 23.759766 8.5019531 L 27.849609 14.052734 C 27.946181 14.209889 28 14.388637 28 14.574219 L 28 23 L 26.644531 23 C 26.0777 21.824694 24.883152 21 23.5 21 C 22.116848 21 20.9223 21.824694 20.355469 23 L 11.644531 23 C 11.0777 21.824694 9.8831519 21 8.5 21 C 7.1168481 21 5.9222997 21.824694 5.3554688 23 L 4 23 L 4 9 C 4 8.4355732 4.4364589 8 5 8 z M 15 10 L 15 11.039062 C 13.879626 11.225603 13 12.202599 13 13.375 C 13 14.130429 13.421202 14.829777 14.107422 15.171875 L 16.998047 16.617188 C 16.997234 16.838456 16.838773 17 16.617188 17 L 15.382812 17 C 15.160661 17 15 16.83934 15 16.617188 L 15 16 L 13 16 L 13 16.617188 C 13 17.790121 13.875437 18.77377 15 18.960938 L 15 20 L 17 20 L 17 18.960938 C 18.124563 18.77377 19 17.790121 19 16.617188 C 19 15.861758 18.568804 15.166256 17.894531 14.828125 L 15 13.380859 C 15.0082 13.384959 15 13.3776 15 13.375 C 15 13.152889 15.154546 13 15.382812 13 L 16.617188 13 C 16.83934 13 17 13.16066 17 13.382812 L 17 14 L 19 14 L 19 13.382812 C 19 12.20988 18.124563 11.22623 17 11.039062 L 17 10 L 15 10 z M 8.5 23 C 9.3402718 23 10 23.659728 10 24.5 C 10 25.340272 9.3402718 26 8.5 26 C 7.6597282 26 7 25.340272 7 24.5 C 7 23.659728 7.6597282 23 8.5 23 z M 23.5 23 C 24.340272 23 25 23.659728 25 24.5 C 25 25.340272 24.340272 26 23.5 26 C 22.659728 26 22 25.340272 22 24.5 C 22 23.659728 22.659728 23 23.5 23 z"></path>
</svg>
