<?xml version="1.0"?>
<svg xmlns="http://www.w3.org/2000/svg" viewBox="0 0 32 32">
    <path d="M 13 4 C 9.6983746 4 7 6.6983746 7 10 C 7 11.941853 7.9363643 13.671293 9.3769531 14.769531 C 6.2163934 16.168215 4 19.330386 4 23 L 6 23 C 6 19.122516 9.1225161 16 13 16 C 14.089616 16 15.111066 16.258041 16.027344 16.699219 C 14.770749 18.113026 14 19.967174 14 22 C 14 26.406433 17.593567 30 22 30 C 26.406433 30 30 26.406433 30 22 C 30 17.593567 26.406433 14 22 14 C 20.397399 14 18.906128 14.479973 17.652344 15.296875 C 17.394458 15.140941 17.125635 15.001107 16.851562 14.871094 C 17.698213 14.393894 18.471413 13.825255 19.140625 13.267578 C 20.724584 11.947613 21.78125 10.625 21.78125 10.625 L 22.28125 10 L 21.78125 9.375 C 21.78125 9.375 20.724584 8.0523874 19.140625 6.7324219 C 17.556666 5.4124564 15.416667 4 13 4 z M 13 6 C 14.583333 6 16.443334 7.0875436 17.859375 8.2675781 C 18.900151 9.1348913 19.250575 9.6022473 19.59375 10 C 19.250575 10.397753 18.900151 10.865109 17.859375 11.732422 C 16.443334 12.912456 14.583333 14 13 14 C 10.779625 14 9 12.220375 9 10 C 9 7.7796254 10.779625 6 13 6 z M 22 16 C 25.325553 16 28 18.674447 28 22 C 28 25.325553 25.325553 28 22 28 C 18.674447 28 16 25.325553 16 22 C 16 18.674447 18.674447 16 22 16 z M 23.851562 18.107422 C 22.894562 18.107422 21.968844 18.804391 21.839844 18.900391 C 21.712844 18.997391 19.747297 20.272609 18.904297 22.224609 C 18.703297 22.687609 18.583141 23.049031 18.494141 23.332031 C 18.347141 23.798031 18.366063 24.222594 18.414062 24.558594 C 18.470063 24.932594 18.885797 25.708094 19.341797 25.871094 C 19.794797 26.032094 20.184625 26.033375 20.265625 25.984375 C 20.345625 25.937375 20.393187 25.807328 20.492188 25.611328 C 20.588188 25.417328 21.060047 24.45925 21.123047 24.28125 C 21.189047 24.10325 21.220344 23.97375 21.027344 23.84375 C 20.831344 23.71375 20.393672 23.343516 20.263672 23.228516 C 20.136672 23.116516 20.119797 23.001594 20.216797 22.808594 C 20.312797 22.613594 20.519594 21.985188 21.183594 21.242188 C 21.697594 20.664188 22.335297 20.272156 22.529297 20.160156 C 22.724297 20.045156 22.830734 20.147141 22.927734 20.244141 C 23.014734 20.333141 23.153578 20.440109 23.267578 20.537109 C 23.378578 20.633109 23.461797 20.668375 23.591797 20.734375 C 23.721797 20.797375 23.834641 20.765797 23.931641 20.716797 C 24.027641 20.668797 24.988906 20.278234 25.378906 20.115234 C 25.757906 19.957234 25.704891 19.796734 25.712891 19.677734 C 25.717891 19.565734 25.716797 19.436641 25.716797 19.306641 C 25.716797 19.176641 25.668656 18.965109 25.472656 18.787109 C 25.278656 18.609109 24.808562 18.107422 23.851562 18.107422 z"></path>
</svg>
