<?xml version="1.0" encoding="UTF-8"?>
<svg xmlns="http://www.w3.org/2000/svg" xmlns:xlink="http://www.w3.org/1999/xlink" viewBox="0 0 32 32" version="1.1">
<g>
<path d="M 8 5 C 5.636719 5 4.179688 6.261719 3.5625 7.46875 C 2.953125 8.660156 3 9.785156 3 9.8125 C 3 9.8125 3 9.84375 3 9.84375 L 3 27 L 29 27 L 29 10 C 29 10 28.996094 8.796875 28.375 7.5625 C 27.753906 6.328125 26.320313 5 24 5 Z M 8 7 L 24 7 C 25.652344 7 26.210938 7.671875 26.59375 8.4375 C 26.976563 9.203125 27 10 27 10 L 27 25 L 25 25 L 25 22 C 25 20.90625 24.09375 20 23 20 L 9 20 C 7.90625 20 7 20.90625 7 22 L 7 25 L 5 25 L 5 9.78125 C 5 9.78125 4.984375 9.074219 5.34375 8.375 C 5.703125 7.675781 6.257813 7 8 7 Z M 7 9 L 7 14 L 18 14 L 18 9 Z M 9 11 L 16 11 L 16 12 L 9 12 Z M 22 11 C 20.355469 11 19 12.355469 19 14 C 19 15.644531 20.355469 17 22 17 C 23.644531 17 25 15.644531 25 14 C 25 12.355469 23.644531 11 22 11 Z M 22 13 C 22.5625 13 23 13.4375 23 14 C 23 14.5625 22.5625 15 22 15 C 21.4375 15 21 14.5625 21 14 C 21 13.4375 21.4375 13 22 13 Z M 15 16 C 14.449219 16 14 16.449219 14 17 C 14 17.550781 14.449219 18 15 18 C 15.550781 18 16 17.550781 16 17 C 16 16.449219 15.550781 16 15 16 Z M 9 22 L 23 22 L 23 25 L 21 25 L 21 23 L 19 23 L 19 25 L 17 25 L 17 23 L 15 23 L 15 25 L 13 25 L 13 23 L 11 23 L 11 25 L 9 25 Z "></path>
</g>
</svg>
