<?xml version="1.0" encoding="UTF-8"?>
<svg xmlns="http://www.w3.org/2000/svg" xmlns:xlink="http://www.w3.org/1999/xlink" viewBox="0 0 32 32" version="1.1">
<g>
<path d="M 12.40625 4 C 8.800781 4 6.582031 5.640625 5.40625 7.375 C 4.820313 8.242188 4.449219 9.125 4.25 9.84375 C 4.050781 10.5625 4 11.046875 4 11.40625 C 4 11.941406 4.199219 12.523438 4.59375 12.875 C 4.988281 13.226563 5.476563 13.34375 5.90625 13.34375 C 6.953125 13.34375 7.8125 12.453125 7.8125 11.40625 C 7.8125 10.0625 7.089844 9.304688 6.8125 9.03125 C 6.910156 8.847656 6.9375 8.683594 7.0625 8.5 C 7.933594 7.210938 9.371094 6 12.40625 6 C 14.84375 6 16.726563 7.265625 17.84375 9.5 C 17.894531 9.5 17.949219 9.5 18 9.5 C 18.699219 9.5 19.398438 9.574219 20.09375 9.6875 C 18.765625 6.128906 16.027344 4 12.40625 4 Z M 18 11 C 14.132813 11 10.6875 12.113281 8.15625 13.96875 C 5.625 15.824219 4 18.488281 4 21.46875 C 4 25.054688 6.707031 28 10.5 28 C 17.753906 28 21 21.554688 21 15.15625 C 21 15.140625 21 15.109375 21 15.09375 C 20.3125 14.824219 19.59375 14.648438 18.96875 14.5625 C 18.976563 14.753906 19 14.960938 19 15.15625 C 19 20.558594 16.371094 26 10.5 26 C 7.6875 26 6 24.113281 6 21.46875 C 6 19.207031 7.210938 17.125 9.34375 15.5625 C 11.476563 14 14.515625 13 18 13 C 19.738281 13 21.8125 13.578125 23.375 14.6875 C 24.9375 15.796875 26 17.351563 26 19.59375 C 26 22.117188 25.109375 23.71875 24.0625 24.71875 C 24 24.691406 22.789063 24.15625 21.5 24.15625 C 20.453125 24.15625 19.59375 25.046875 19.59375 26.09375 C 19.59375 27.21875 20.441406 28 21.5 28 C 24.324219 28 28 25.179688 28 19.59375 C 28 16.691406 26.496094 14.425781 24.53125 13.03125 C 22.566406 11.636719 20.15625 11 18 11 Z "></path>
</g>
</svg>
