<?xml version="1.0" encoding="UTF-8"?>
<svg xmlns="http://www.w3.org/2000/svg" xmlns:xlink="http://www.w3.org/1999/xlink" viewBox="0 0 32 32" version="1.1">
<g>
<path d="M 9.0625 5 C 6.832031 5 5 6.832031 5 9.0625 L 5 22.9375 C 5 25.167969 6.832031 27 9.0625 27 L 22.9375 27 C 25.167969 27 27 25.167969 27 22.9375 L 27 9.0625 C 27 6.832031 25.167969 5 22.9375 5 Z M 9.0625 7 L 22.9375 7 C 24.089844 7 25 7.910156 25 9.0625 L 25 19 L 21 19 C 21 16.5625 19.222656 14.527344 16.90625 14.09375 L 19 12 L 17 11 L 15 11 L 13 12 L 15.09375 14.09375 C 12.777344 14.527344 11 16.5625 11 19 L 7 19 L 7 9.0625 C 7 7.910156 7.910156 7 9.0625 7 Z M 16 16 C 17.667969 16 19 17.332031 19 19 L 13 19 C 13 17.332031 14.332031 16 16 16 Z M 7 21 L 25 21 L 25 22.9375 C 25 24.089844 24.089844 25 22.9375 25 L 9.0625 25 C 7.910156 25 7 24.089844 7 22.9375 Z "></path>
</g>
</svg>
