<?xml version="1.0" encoding="UTF-8"?>
<svg xmlns="http://www.w3.org/2000/svg" xmlns:xlink="http://www.w3.org/1999/xlink" viewBox="0 0 32 32" version="1.1">
<g>
<path d="M 12.3125 4.53125 L 10.46875 5.28125 L 11.25 7.21875 C 9.550781 8.144531 8.144531 9.550781 7.21875 11.25 L 5.28125 10.46875 L 4.53125 12.3125 L 6.4375 13.09375 C 6.15625 14.015625 6 14.988281 6 16 C 6 17.011719 6.15625 17.984375 6.4375 18.90625 L 4.53125 19.6875 L 5.28125 21.53125 L 7.21875 20.75 C 8.144531 22.453125 9.546875 23.851563 11.25 24.78125 L 10.46875 26.71875 L 12.3125 27.46875 L 13.09375 25.5625 C 14.015625 25.847656 14.984375 26 16 26 C 17.011719 26 17.984375 25.84375 18.90625 25.5625 L 19.6875 27.46875 L 21.53125 26.71875 L 20.75 24.78125 C 22.449219 23.855469 23.855469 22.449219 24.78125 20.75 L 26.71875 21.53125 L 27.46875 19.6875 L 25.5625 18.90625 C 25.84375 17.984375 26 17.011719 26 16 C 26 14.988281 25.84375 14.015625 25.5625 13.09375 L 27.46875 12.3125 L 26.71875 10.46875 L 24.78125 11.25 C 23.855469 9.550781 22.449219 8.144531 20.75 7.21875 L 21.53125 5.28125 L 19.6875 4.53125 L 18.90625 6.4375 C 17.984375 6.15625 17.011719 6 16 6 C 14.988281 6 14.015625 6.15625 13.09375 6.4375 Z M 16 8 C 20.429688 8 24 11.570313 24 16 C 24 20.429688 20.429688 24 16 24 C 11.570313 24 8 20.429688 8 16 C 8 11.570313 11.570313 8 16 8 Z M 16 11 C 13.25 11 11 13.25 11 16 C 11 18.75 13.25 21 16 21 C 18.75 21 21 18.75 21 16 C 21 13.25 18.75 11 16 11 Z M 16 13 C 17.667969 13 19 14.332031 19 16 C 19 17.667969 17.667969 19 16 19 C 14.332031 19 13 17.667969 13 16 C 13 14.332031 14.332031 13 16 13 Z "></path>
</g>
</svg>
