<?xml version="1.0" encoding="UTF-8"?>
<svg xmlns="http://www.w3.org/2000/svg" xmlns:xlink="http://www.w3.org/1999/xlink" viewBox="0 0 32 32" version="1.1">
<g>
<path d="M 16 4 C 13.375 4 11.195313 5.738281 10.375 8.125 C 8.757813 8.386719 7.507813 9.570313 7.15625 11.15625 C 5.363281 11.550781 4 13.085938 4 15 C 4 17.210938 5.789063 19 8 19 L 24 19 C 26.210938 19 28 17.210938 28 15 C 28 13.566406 27.125 12.410156 25.9375 11.71875 C 25.78125 9.109375 23.644531 7 21 7 C 19.9375 5.261719 18.195313 4 16 4 Z M 16 6 C 17.71875 6 19.035156 6.9375 19.6875 8.40625 L 19.9375 9 L 21 9 C 22.65625 9 24 10.34375 24 12 L 24 12.90625 L 24.6875 13.15625 C 25.492188 13.425781 26 14.109375 26 15 C 26 16.191406 25.191406 17 24 17 L 19 17 L 19 14 C 19 12.355469 17.644531 11 16 11 C 14.355469 11 13 12.355469 13 14 L 13 17 L 8 17 C 6.808594 17 6 16.191406 6 15 C 6 13.808594 6.808594 13 8 13 L 9 13 L 9 12 C 9 10.808594 9.808594 10 11 10 L 11.90625 10 L 12.0625 9.21875 C 12.464844 7.359375 14.070313 6 16 6 Z M 16 13 C 16.554688 13 17 13.445313 17 14 L 17 17 L 15 17 L 15 14 C 15 13.445313 15.445313 13 16 13 Z M 11 20 L 11 22 L 21 22 L 21 20 Z M 9 23 L 9 25 L 23 25 L 23 23 Z M 7 26 L 7 28 L 25 28 L 25 26 Z "></path>
</g>
</svg>
