<?xml version="1.0" encoding="UTF-8"?>
<svg xmlns="http://www.w3.org/2000/svg" xmlns:xlink="http://www.w3.org/1999/xlink" viewBox="0 0 32 32" version="1.1">
<g>
<path d="M 15 4 L 15 15 L 11.34375 15 L 16 22 L 20.65625 15 L 17 15 L 17 4 Z M 10.90625 18.4375 C 7.035156 19.140625 4 20.679688 4 23 C 4 26.28125 10.035156 28 16 28 C 21.964844 28 28 26.28125 28 23 C 28 20.679688 24.964844 19.140625 21.09375 18.4375 L 19.875 20.28125 C 23.652344 20.828125 26 22.089844 26 23 C 26 24.195313 22.011719 26 16 26 C 9.988281 26 6 24.195313 6 23 C 6 22.089844 8.347656 20.828125 12.125 20.28125 Z "></path>
</g>
</svg>
