<?xml version="1.0" encoding="UTF-8"?>
<svg xmlns="http://www.w3.org/2000/svg" xmlns:xlink="http://www.w3.org/1999/xlink" viewBox="0 0 32 32" version="1.1">
<g>
<path d="M 3 3 L 3 23 L 6.96875 23 C 7.835938 21.796875 9.203125 20.765625 10.75 20.3125 C 10.824219 20.292969 10.917969 20.269531 11 20.25 L 11 17 L 12.125 17 L 11.59375 15 L 11 15 L 11 12.875 L 10.15625 9.8125 C 9.875 8.855469 9.984375 7.851563 10.46875 6.96875 C 10.617188 6.699219 10.796875 6.441406 11 6.21875 L 11 5 L 15 5 L 15 5.21875 C 15.835938 5.515625 16.542969 6.097656 17 6.875 L 17 5 L 21 5 L 21 9 L 17.71875 9 L 18.21875 11 L 23 11 L 23 3 Z M 5 5 L 9 5 L 9 9 L 5 9 Z M 13.53125 6 C 13.347656 6.015625 13.183594 6.070313 13 6.125 C 12.292969 6.332031 11.699219 6.789063 11.34375 7.4375 C 10.988281 8.085938 10.890625 8.835938 11.09375 9.53125 L 14.28125 20.96875 C 13.222656 20.972656 11.8125 21.054688 11.03125 21.28125 C 8.601563 21.992188 6.566406 24.519531 7.0625 26.21875 C 7.292969 27.011719 7.535156 27.453125 7.5625 27.5 L 7.875 28 L 11.90625 28 L 18.28125 28.5625 L 18.84375 29.03125 L 20.15625 27.53125 L 19.09375 26.625 L 12 26 L 9.09375 26 C 9.058594 25.902344 9.003906 25.808594 8.96875 25.6875 C 8.914063 25.289063 9.929688 23.671875 11.59375 23.1875 C 12.332031 22.972656 14.425781 22.960938 15.5625 23 L 16.9375 23.0625 L 13.03125 8.96875 C 12.972656 8.773438 12.996094 8.585938 13.09375 8.40625 C 13.191406 8.226563 13.367188 8.089844 13.5625 8.03125 C 13.964844 7.910156 14.386719 8.136719 14.5 8.53125 L 14.5 8.5625 L 16.875 17.125 L 18.8125 16.59375 L 18.34375 14.90625 L 18.34375 14.875 C 18.257813 14.550781 18.332031 14.132813 18.78125 14 C 19.1875 13.882813 19.597656 14.117188 19.71875 14.53125 L 20 15.4375 L 20.1875 16.28125 L 22.125 15.8125 L 21.90625 14.84375 C 21.863281 14.679688 21.867188 14.503906 21.9375 14.375 C 22.023438 14.21875 22.21875 14.09375 22.4375 14.03125 C 22.632813 13.972656 22.820313 13.996094 23 14.09375 C 23.179688 14.191406 23.328125 14.371094 23.375 14.53125 L 23.53125 15.21875 L 25.5 14.875 C 25.460938 14.519531 25.703125 14.167969 26.0625 14.0625 C 26.257813 14.003906 26.476563 14.027344 26.65625 14.125 C 26.835938 14.222656 26.972656 14.367188 27.03125 14.5625 L 28.9375 14.03125 C 28.734375 13.320313 28.273438 12.730469 27.625 12.375 C 26.976563 12.019531 26.242188 11.914063 25.53125 12.125 C 25.132813 12.242188 24.765625 12.464844 24.46875 12.71875 C 24.316406 12.585938 24.152344 12.445313 23.96875 12.34375 C 23.320313 11.988281 22.582031 11.917969 21.875 12.125 C 21.484375 12.238281 21.140625 12.414063 20.84375 12.65625 C 20.15625 12.039063 19.167969 11.785156 18.21875 12.0625 C 18.011719 12.125 17.804688 12.214844 17.625 12.3125 L 16.40625 8 C 16.03125 6.722656 14.8125 5.894531 13.53125 6 Z M 5 11 L 9 11 L 9 15 L 5 15 Z M 5 17 L 9 17 L 9 21 L 5 21 Z "></path>
</g>
</svg>
