<?xml version="1.0" encoding="UTF-8"?>
<svg xmlns="http://www.w3.org/2000/svg" xmlns:xlink="http://www.w3.org/1999/xlink" viewBox="0 0 32 32" version="1.1">
<g>
<path d="M 15.21875 2.78125 L 13.78125 4.21875 L 15.5625 6 L 9 6 C 7.355469 6 6 7.355469 6 9 L 6 11 L 8 11 L 8 9 C 8 8.445313 8.445313 8 9 8 L 15.5625 8 L 13.78125 9.78125 L 15.21875 11.21875 L 18.71875 7.71875 L 19.40625 7 L 18.71875 6.28125 Z M 21 6 L 21 8 L 23 8 C 23.554688 8 24 8.445313 24 9 L 24 15.5625 L 22.21875 13.78125 L 20.78125 15.21875 L 24.28125 18.71875 L 25 19.40625 L 25.71875 18.71875 L 29.21875 15.21875 L 27.78125 13.78125 L 26 15.5625 L 26 9 C 26 7.355469 24.644531 6 23 6 Z M 7 12.59375 L 6.28125 13.28125 L 2.78125 16.78125 L 4.21875 18.21875 L 6 16.4375 L 6 23 C 6 24.644531 7.355469 26 9 26 L 11 26 L 11 24 L 9 24 C 8.445313 24 8 23.554688 8 23 L 8 16.4375 L 9.78125 18.21875 L 11.21875 16.78125 L 7.71875 13.28125 Z M 16.78125 20.78125 L 13.28125 24.28125 L 12.59375 25 L 13.28125 25.71875 L 16.78125 29.21875 L 18.21875 27.78125 L 16.4375 26 L 23 26 C 24.644531 26 26 24.644531 26 23 L 26 21 L 24 21 L 24 23 C 24 23.554688 23.554688 24 23 24 L 16.4375 24 L 18.21875 22.21875 Z "></path>
</g>
</svg>
