<?xml version="1.0" encoding="UTF-8"?>
<svg xmlns="http://www.w3.org/2000/svg" xmlns:xlink="http://www.w3.org/1999/xlink" viewBox="0 0 32 32" version="1.1">
<g>
<path d="M 0 6 L 0 25 L 13 25 C 14.191406 25 15 25.808594 15 27 L 17 27 C 17 25.808594 17.808594 25 19 25 L 32 25 L 32 6 L 19 6 C 17.804688 6 16.734375 6.515625 16 7.34375 C 15.265625 6.515625 14.195313 6 13 6 Z M 2 8 L 13 8 C 14.191406 8 15 8.808594 15 10 L 17 10 C 17 8.808594 17.808594 8 19 8 L 30 8 L 30 23 L 19 23 C 17.804688 23 16.734375 23.515625 16 24.34375 C 15.265625 23.515625 14.195313 23 13 23 L 2 23 Z M 4 12 L 4 20 L 9 20 L 9 18 L 6 18 L 6 17 L 8 17 L 8 15 L 6 15 L 6 14 L 9 14 L 9 12 Z M 11 12 L 11 20 L 13 20 L 13 18 C 14.644531 18 16 16.644531 16 15 C 16 13.355469 14.644531 12 13 12 Z M 17 12 L 17 17.5 C 17 18.882813 18.117188 20 19.5 20 C 20.882813 20 22 18.882813 22 17.5 L 22 12 L 20 12 L 20 17.5 C 20 17.714844 19.714844 18 19.5 18 C 19.285156 18 19 17.714844 19 17.5 L 19 12 Z M 23 12 L 23 20 L 25.5 20 C 26.882813 20 28 18.882813 28 17.5 C 28 16.917969 27.738281 16.425781 27.40625 16 C 27.738281 15.574219 28 15.082031 28 14.5 C 28 13.117188 26.882813 12 25.5 12 Z M 13 14 C 13.554688 14 14 14.445313 14 15 C 14 15.554688 13.554688 16 13 16 Z M 25 14 L 25.5 14 C 25.714844 14 26 14.285156 26 14.5 C 26 14.714844 25.714844 15 25.5 15 L 25 15 Z M 25 17 L 25.5 17 C 25.714844 17 26 17.285156 26 17.5 C 26 17.714844 25.714844 18 25.5 18 L 25 18 Z "></path>
</g>
</svg>
