<?xml version="1.0" encoding="UTF-8"?>
<svg xmlns="http://www.w3.org/2000/svg" xmlns:xlink="http://www.w3.org/1999/xlink" viewBox="0 0 32 32" version="1.1">
<g>
<path d="M 18.40625 5 C 17.300781 5 16.339844 5.449219 15.71875 6.09375 C 15.097656 6.738281 14.769531 7.515625 14.5625 8.25 C 14.234375 9.414063 14.300781 10.121094 14.3125 10.53125 L 12 12.4375 C 11.730469 12.472656 11.355469 12.476563 10.6875 12.8125 C 10.179688 13.070313 9.632813 13.527344 9.25 14.15625 C 8.804688 14.03125 8.207031 13.945313 7.5625 14.09375 C 6.875 14.25 6.140625 14.742188 5.6875 15.5625 C 5.234375 16.382813 5 17.488281 5 19 L 7 19 C 7 17.699219 7.222656 16.917969 7.4375 16.53125 C 7.652344 16.144531 7.796875 16.109375 8 16.0625 C 8.265625 16 8.585938 16.082031 8.8125 16.15625 C 8.949219 17.195313 9.621094 17.964844 10.1875 18.53125 C 10.488281 18.832031 10.550781 18.851563 10.78125 19.03125 L 10.09375 20.65625 L 9.90625 21.09375 L 10.125 21.53125 L 11 23.21875 L 11 24 L 13 24 L 13 22.75 L 12.875 22.53125 L 12.09375 21.03125 L 12.65625 19.75 C 13.550781 19.503906 14.164063 18.792969 14.46875 18.21875 C 14.667969 17.847656 14.648438 17.757813 14.71875 17.5 C 15.402344 17.363281 17.066406 16.933594 18.375 15.3125 L 19.1875 16.46875 L 18.625 17.28125 L 17.625 17.75 L 18.53125 19.53125 L 19.71875 18.9375 L 19.9375 18.84375 L 20.09375 18.625 L 21.25 17.0625 L 21.6875 16.46875 L 21.25 15.875 L 19.34375 13.21875 L 19.25 11.15625 L 19.6875 10.6875 L 18.21875 9.3125 L 17.5 10.09375 L 17.21875 10.375 L 17.21875 10.8125 L 17.34375 13.25 C 16.164063 15.5 13.84375 15.71875 13.84375 15.71875 L 13.0625 15.8125 L 12.96875 16.5625 C 12.96875 16.5625 12.875 16.929688 12.6875 17.28125 C 12.570313 17.5 12.457031 17.65625 12.3125 17.75 C 12.125 17.617188 11.886719 17.417969 11.59375 17.125 C 11.117188 16.648438 10.78125 16.039063 10.78125 15.78125 C 10.78125 15.066406 11.113281 14.835938 11.59375 14.59375 C 12.074219 14.351563 12.59375 14.28125 12.59375 14.28125 L 12.875 14.25 L 13.125 14.0625 L 15.875 11.84375 L 16.28125 11.5 L 16.25 11 C 16.25 11 16.199219 9.875 16.5 8.8125 C 16.648438 8.28125 16.894531 7.773438 17.1875 7.46875 C 17.480469 7.164063 17.789063 7 18.40625 7 C 18.5625 7 18.683594 7.035156 18.90625 7.0625 L 18.8125 7.625 L 19.21875 8 L 22.375 11 L 23.75 9.53125 L 21 6.90625 L 21.09375 6.375 L 21.25 5.40625 L 20.28125 5.21875 C 20.28125 5.21875 19.273438 5 18.40625 5 Z M 20.375 12 L 20.40625 12.8125 L 21.34375 14 L 23.25 15.0625 L 23.75 16 L 25.53125 15.09375 L 24.75 13.59375 L 21.875 12 Z M 14.4375 19.78125 L 13.625 20.8125 L 14 22.59375 L 14 24 L 16 24 L 16 22.75 Z M 6 25 L 6 27 L 26 27 L 26 25 Z "></path>
</g>
</svg>
