<?xml version="1.0" encoding="UTF-8"?>
<svg xmlns="http://www.w3.org/2000/svg" xmlns:xlink="http://www.w3.org/1999/xlink" viewBox="0 0 32 32" version="1.1">
<g>
<path d="M 4 6 L 4 26 L 12 26 L 12 6 Z M 20 6 L 20 26 L 28 26 L 28 6 Z M 6 8 L 10 8 L 10 11 L 7 11 L 7 13 L 10 13 L 10 20 L 7 20 L 7 22 L 10 22 L 10 24 L 6 24 Z M 22 8 L 26 8 L 26 11 L 23 11 L 23 13 L 26 13 L 26 20 L 23 20 L 23 22 L 26 22 L 26 24 L 22 24 Z M 14 13 L 14 15 L 18 15 L 18 13 Z M 14 17 L 14 19 L 18 19 L 18 17 Z "></path>
</g>
</svg>
