<?xml version="1.0" encoding="UTF-8"?>
<svg xmlns="http://www.w3.org/2000/svg" xmlns:xlink="http://www.w3.org/1999/xlink" viewBox="0 0 32 32" version="1.1">
<g>
<path d="M 16 7 C 13.359375 7 11.066406 8.238281 9.421875 10.050781 C 9.28125 10.035156 9.15625 10 9 10 C 6.800781 10 5 11.800781 5 14 C 5 14.007813 5 14.007813 5 14.015625 C 3.269531 15.070313 2 16.832031 2 19 C 2 22.300781 4.699219 25 8 25 L 24 25 C 27.300781 25 30 22.300781 30 19 C 30 15.84375 27.511719 13.304688 24.40625 13.082031 C 23.179688 9.566406 19.921875 7 16 7 Z M 16 9 C 19.277344 9 22.003906 11.242188 22.777344 14.269531 L 22.980469 15.074219 L 23.800781 15.023438 C 24.011719 15.011719 24.070313 15 24 15 C 26.21875 15 28 16.78125 28 19 C 28 21.21875 26.21875 23 24 23 L 8 23 C 5.78125 23 4 21.21875 4 19 C 4 17.339844 5.003906 15.929688 6.433594 15.320313 L 7.128906 15.023438 L 7.03125 14.269531 C 7.011719 14.109375 7 14.023438 7 14 C 7 12.882813 7.882813 12 9 12 C 9.140625 12 9.289063 12.019531 9.460938 12.0625 L 10.089844 12.207031 L 10.484375 11.703125 C 11.765625 10.058594 13.75 9 16 9 Z M 15.984375 10.984375 C 15.433594 10.996094 14.992188 11.449219 15 12 L 15 16 C 14.996094 16.359375 15.183594 16.695313 15.496094 16.878906 C 15.808594 17.058594 16.191406 17.058594 16.503906 16.878906 C 16.816406 16.695313 17.003906 16.359375 17 16 L 17 12 C 17.003906 11.730469 16.898438 11.46875 16.707031 11.277344 C 16.515625 11.085938 16.253906 10.980469 15.984375 10.984375 Z M 16 19 C 15.449219 19 15 19.449219 15 20 C 15 20.550781 15.449219 21 16 21 C 16.550781 21 17 20.550781 17 20 C 17 19.449219 16.550781 19 16 19 Z "></path>
</g>
</svg>
