<?xml version="1.0" encoding="UTF-8"?>
<svg xmlns="http://www.w3.org/2000/svg" xmlns:xlink="http://www.w3.org/1999/xlink" viewBox="0 0 32 32" version="1.1">
<g>
<path d="M 2 6 L 2 26 L 30 26 L 30 6 Z M 4 8 L 28 8 L 28 24 L 4 24 Z M 9.53125 12.28125 L 9.53125 19.28125 L 13.75 19.28125 L 13.75 18 L 11.125 18 L 11.125 16.40625 L 13.40625 16.40625 L 13.40625 15.125 L 11.125 15.125 L 11.125 13.5625 L 13.5625 13.5625 L 13.5625 12.28125 Z M 16.5625 14.15625 C 16.277344 14.15625 14.375 14.222656 14.375 15.75 C 14.375 17.53125 16.75 17.136719 16.75 17.90625 C 16.75 18.058594 16.617188 18.34375 15.84375 18.34375 C 15.203125 18.34375 14.628906 18.058594 14.375 17.90625 L 14.375 19.15625 C 14.84375 19.324219 15.355469 19.40625 15.90625 19.40625 C 18.03125 19.40625 18.21875 18.152344 18.21875 17.75 C 18.21875 16.050781 15.90625 16.394531 15.90625 15.625 C 15.90625 15.558594 15.90625 15.21875 16.625 15.21875 C 17.230469 15.21875 17.710938 15.449219 17.90625 15.5625 L 17.90625 14.34375 C 17.683594 14.277344 17.1875 14.15625 16.5625 14.15625 Z M 21.625 14.15625 C 19.527344 14.15625 18.8125 15.625 18.8125 16.90625 C 18.8125 18.703125 20.199219 19.40625 21.375 19.40625 C 22.03125 19.40625 22.558594 19.296875 22.90625 19.09375 L 22.90625 17.875 C 22.539063 18.117188 22.167969 18.21875 21.78125 18.21875 C 21.257813 18.21875 20.375 17.984375 20.375 16.8125 C 20.375 16.171875 20.683594 15.34375 21.8125 15.34375 C 22.210938 15.34375 22.585938 15.445313 22.90625 15.6875 L 22.90625 14.40625 C 22.644531 14.25 22.214844 14.15625 21.625 14.15625 Z "></path>
</g>
</svg>
