<?xml version="1.0" encoding="UTF-8"?>
<svg xmlns="http://www.w3.org/2000/svg" xmlns:xlink="http://www.w3.org/1999/xlink" viewBox="0 0 32 32" version="1.1">
<g>
<path d="M 13.015625 5 C 11.371094 5 10.015625 6.355469 10.015625 8 C 10.015625 9.039063 10.5625 9.960938 11.375 10.5 C 10.5625 11.039063 10.015625 11.960938 10.015625 13 L 10.015625 17.566406 L 8.585938 19 L 7 19 C 4.800781 19 3 20.800781 3 23 C 3 25.199219 4.800781 27 7 27 L 11.414063 27 L 23.414063 15 L 25 15 C 27.199219 15 29 13.199219 29 11 C 29 8.800781 27.199219 7 25 7 L 20.585938 7 L 15.765625 11.816406 C 15.53125 11.28125 15.144531 10.820313 14.660156 10.5 C 15.472656 9.960938 16.015625 9.039063 16.015625 8 C 16.015625 6.355469 14.664063 5 13.015625 5 Z M 13.015625 7 C 13.582031 7 14.015625 7.4375 14.015625 8 C 14.015625 8.5625 13.582031 9 13.015625 9 C 12.453125 9 12.015625 8.5625 12.015625 8 C 12.015625 7.4375 12.453125 7 13.015625 7 Z M 21.414063 9 L 25 9 C 26.117188 9 27 9.882813 27 11 C 27 12.117188 26.117188 13 25 13 L 22.585938 13 L 10.585938 25 L 7 25 C 5.882813 25 5 24.117188 5 23 C 5 21.882813 5.882813 21 7 21 L 9.414063 21 Z M 13.015625 12 C 13.570313 12 14.015625 12.445313 14.015625 13 L 14.015625 13.566406 L 12.015625 15.566406 L 12.015625 13 C 12.015625 12.445313 12.464844 12 13.015625 12 Z "></path>
</g>
</svg>
