<?xml version="1.0" encoding="UTF-8"?>
<svg xmlns="http://www.w3.org/2000/svg" xmlns:xlink="http://www.w3.org/1999/xlink" viewBox="0 0 32 32" version="1.1">
<g>
<path d="M 13.03125 5 C 11.386719 5 10.03125 6.355469 10.03125 8 C 10.03125 9.027344 10.546875 9.957031 11.34375 10.5 C 10.546875 11.042969 10.03125 11.972656 10.03125 13 L 10.03125 17.53125 L 8.5625 19 L 7 19 C 4.800781 19 3 20.800781 3 23 C 3 25.199219 4.800781 27 7 27 L 11.40625 27 L 11.71875 26.71875 L 23.4375 15 L 25 15 C 27.199219 15 29 13.199219 29 11 C 29 8.800781 27.199219 7 25 7 L 20.59375 7 L 20.28125 7.28125 L 15.75 11.8125 C 15.519531 11.292969 15.1875 10.816406 14.71875 10.5 C 15.515625 9.957031 16.03125 9.027344 16.03125 8 C 16.03125 6.355469 14.675781 5 13.03125 5 Z M 13.03125 7 C 13.59375 7 14.03125 7.4375 14.03125 8 C 14.03125 8.5625 13.59375 9 13.03125 9 C 12.46875 9 12.03125 8.5625 12.03125 8 C 12.03125 7.4375 12.46875 7 13.03125 7 Z M 21.4375 9 L 25 9 C 26.117188 9 27 9.882813 27 11 C 27 12.117188 26.117188 13 25 13 L 22.59375 13 L 22.28125 13.28125 L 10.5625 25 L 7 25 C 5.882813 25 5 24.117188 5 23 C 5 21.882813 5.882813 21 7 21 L 9.40625 21 L 9.71875 20.71875 Z M 13.03125 12 C 13.585938 12 14.03125 12.445313 14.03125 13 L 14.03125 13.53125 L 12.03125 15.53125 L 12.03125 13 C 12.03125 12.445313 12.476563 12 13.03125 12 Z M 21 19 L 22.78125 20.78125 L 18.28125 25.28125 L 19.71875 26.71875 L 24.21875 22.21875 L 26 24 L 26 19 Z "></path>
</g>
</svg>
