<?xml version="1.0" encoding="UTF-8"?>
<svg xmlns="http://www.w3.org/2000/svg" xmlns:xlink="http://www.w3.org/1999/xlink" viewBox="0 0 32 32" version="1.1">
<g>
<path d="M 16 4 C 8.929688 4 5.605469 6.066406 5.46875 6.15625 L 5 6.4375 L 5 14.4375 C 5 16.324219 5.589844 18.121094 6.6875 19.65625 L 10 24.3125 L 10 21.5 C 10 21.3125 10.035156 21.117188 10.0625 20.9375 L 8.3125 18.5 C 7.460938 17.304688 7 15.90625 7 14.4375 L 7 7.59375 C 8.070313 7.09375 11.003906 6 16 6 C 20.996094 6 23.933594 7.097656 25 7.59375 L 25 14.4375 C 25 15.90625 24.539063 17.308594 23.6875 18.5 L 21.9375 20.9375 C 21.964844 21.117188 22 21.3125 22 21.5 L 22 24.3125 L 25.3125 19.65625 C 26.410156 18.121094 27 16.324219 27 14.4375 L 27 6.4375 L 26.53125 6.15625 C 26.394531 6.066406 23.070313 4 16 4 Z M 16 8 C 12.050781 8 9.5625 9.21875 9.5625 9.21875 L 9 9.5 L 9 13 C 9 14.644531 10.355469 16 12 16 L 14.46875 16 L 14.75 15.65625 C 14.75 15.65625 15.46875 15 16 15 C 16.53125 15 17.25 15.65625 17.25 15.65625 L 17.53125 16 L 20 16 C 21.644531 16 23 14.644531 23 13 L 23 9.5 L 22.4375 9.21875 C 22.4375 9.21875 19.949219 8 16 8 Z M 16 10 C 18.863281 10 20.390625 10.554688 21 10.8125 L 21 13 C 21 13.566406 20.566406 14 20 14 L 18.375 14 C 18 13.621094 17.277344 13 16 13 C 14.722656 13 14 13.621094 13.625 14 L 12 14 C 11.433594 14 11 13.566406 11 13 L 11 10.8125 C 11.609375 10.554688 13.136719 10 16 10 Z M 16 18 C 14.726563 18 13.574219 18.300781 12.65625 18.875 C 11.738281 19.449219 11 20.378906 11 21.5 L 11 24.5 C 11 25.621094 11.738281 26.550781 12.65625 27.125 C 13.574219 27.699219 14.726563 28 16 28 C 17.273438 28 18.425781 27.699219 19.34375 27.125 C 20.261719 26.550781 21 25.621094 21 24.5 L 21 21.5 C 21 20.378906 20.261719 19.449219 19.34375 18.875 C 18.425781 18.300781 17.273438 18 16 18 Z M 16 20 C 16.9375 20 17.78125 20.261719 18.3125 20.59375 C 18.84375 20.925781 19 21.242188 19 21.5 L 19 21.6875 C 18.144531 21.242188 17.121094 21 16 21 C 14.878906 21 13.855469 21.242188 13 21.6875 L 13 21.5 C 13 21.242188 13.15625 20.925781 13.6875 20.59375 C 14.21875 20.261719 15.0625 20 16 20 Z M 16 23 C 16.9375 23 17.78125 23.261719 18.3125 23.59375 C 18.84375 23.925781 19 24.242188 19 24.5 C 19 24.757813 18.84375 25.074219 18.3125 25.40625 C 17.78125 25.738281 16.9375 26 16 26 C 15.0625 26 14.21875 25.738281 13.6875 25.40625 C 13.15625 25.074219 13 24.757813 13 24.5 C 13 24.242188 13.15625 23.925781 13.6875 23.59375 C 14.21875 23.261719 15.0625 23 16 23 Z "></path>
</g>
</svg>
