<?xml version="1.0" encoding="UTF-8"?>
<svg xmlns="http://www.w3.org/2000/svg" xmlns:xlink="http://www.w3.org/1999/xlink" viewBox="0 0 32 32" version="1.1">
<g>
<path d="M 5 6 L 5 7 C 5 10.199219 6.046875 14.007813 7.0625 17.0625 C 7.613281 18.71875 8.140625 20.035156 8.53125 21 L 3.15625 21 L 4.15625 22.5625 C 4.15625 22.5625 4.707031 23.386719 5.53125 24.21875 C 6.355469 25.050781 7.492188 26 9 26 L 20.0625 26 C 21.515625 26 22.578125 25.039063 23.40625 24.21875 C 24.234375 23.398438 24.8125 22.59375 24.8125 22.59375 L 25.9375 21 L 20.5 21 C 20.730469 20.4375 20.976563 19.761719 21.28125 18.9375 C 21.382813 18.914063 22.886719 18.566406 24.46875 17.71875 C 25.285156 17.28125 26.136719 16.703125 26.8125 15.9375 C 27.488281 15.171875 28 14.171875 28 13 C 28 11.261719 26.542969 10 25 10 C 24.589844 10 24.15625 10.078125 23.71875 10.21875 C 23.894531 9.121094 24 8.027344 24 7 L 24 6 Z M 7.125 8 L 21.875 8 C 21.777344 9.492188 21.476563 11.125 21.09375 12.75 C 21.085938 12.773438 21.070313 12.789063 21.0625 12.8125 C 20.765625 14.058594 20.441406 15.304688 20.0625 16.4375 C 19.191406 19.046875 18.5 20.570313 18.3125 21 L 10.6875 21 C 10.5 20.570313 9.808594 19.027344 8.9375 16.40625 C 8.058594 13.765625 7.300781 10.621094 7.125 8 Z M 25 12 C 25.621094 12 26 12.238281 26 13 C 26 13.609375 25.761719 14.121094 25.3125 14.625 C 24.863281 15.128906 24.214844 15.601563 23.53125 15.96875 C 23.015625 16.246094 22.539063 16.460938 22.09375 16.625 C 22.457031 15.507813 22.785156 14.300781 23.09375 13.0625 C 23.101563 13.050781 23.117188 13.042969 23.125 13.03125 C 23.5625 12.300781 24.410156 12 25 12 Z M 7.3125 23 L 21.65625 23 C 21.046875 23.503906 20.339844 24 20.0625 24 L 9 24 C 8.570313 24 7.902344 23.496094 7.3125 23 Z "></path>
</g>
</svg>
