<?xml version="1.0"?>
<svg xmlns="http://www.w3.org/2000/svg" viewBox="0 0 32 32">
    <path d="M 6 3 L 6 29 L 22 29 L 22 27 L 8 27 L 8 5 L 24 5 L 24 13 L 26 13 L 26 3 L 6 3 z M 10 7 L 10 8 L 10 13 L 22 13 L 22 7 L 10 7 z M 12 9 L 20 9 L 20 11 L 12 11 L 12 9 z M 11 15 L 11 17 L 13 17 L 13 15 L 11 15 z M 15 15 L 15 17 L 17 17 L 17 15 L 15 15 z M 19 15 L 19 17 L 21 17 L 21 15 L 19 15 z M 26 15 L 26 17 C 24.3 17.3 23 18.7 23 20.5 C 23 22.5 24.5 24 26.5 24 L 27.5 24 C 28.3 24 29 24.7 29 25.5 C 29 26.3 28.3 27 27.5 27 L 24 27 L 24 29 L 26 29 L 26 31 L 28 31 L 28 29 C 29.7 28.7 31 27.3 31 25.5 C 31 23.5 29.5 22 27.5 22 L 26.5 22 C 25.7 22 25 21.3 25 20.5 C 25 19.7 25.7 19 26.5 19 L 30 19 L 30 17 L 28 17 L 28 15 L 26 15 z M 11 19 L 11 21 L 13 21 L 13 19 L 11 19 z M 15 19 L 15 21 L 17 21 L 17 19 L 15 19 z M 19 19 L 19 21 L 21 21 L 21 19 L 19 19 z M 11 23 L 11 25 L 13 25 L 13 23 L 11 23 z M 15 23 L 15 25 L 17 25 L 17 23 L 15 23 z M 19 23 L 19 25 L 21 25 L 21 23 L 19 23 z"></path>
</svg>
