<?xml version="1.0" encoding="UTF-8"?>
<svg xmlns="http://www.w3.org/2000/svg" xmlns:xlink="http://www.w3.org/1999/xlink" viewBox="0 0 32 32" version="1.1">
<g>
<path d="M 9 4 L 9 5 L 5 5 L 5 27 L 16.59375 27 C 17.789063 29.917969 20.664063 32 24 32 C 28.398438 32 32 28.398438 32 24 C 32 20.664063 29.917969 17.789063 27 16.59375 L 27 5 L 23 5 L 23 4 L 21 4 L 21 5 L 11 5 L 11 4 Z M 7 7 L 9 7 L 9 8 L 11 8 L 11 7 L 21 7 L 21 8 L 23 8 L 23 7 L 25 7 L 25 9 L 7 9 Z M 7 11 L 25 11 L 25 16.0625 C 24.667969 16.019531 24.339844 16 24 16 C 19.601563 16 16 19.601563 16 24 C 16 24.339844 16.019531 24.667969 16.0625 25 L 7 25 Z M 24 18 C 27.300781 18 30 20.699219 30 24 C 30 25.285156 29.570313 26.457031 28.875 27.4375 L 20.5625 19.125 C 21.542969 18.429688 22.714844 18 24 18 Z M 19.125 20.5625 L 27.4375 28.875 C 26.457031 29.570313 25.285156 30 24 30 C 20.699219 30 18 27.300781 18 24 C 18 22.714844 18.429688 21.542969 19.125 20.5625 Z "></path>
</g>
</svg>
