<?xml version="1.0" encoding="UTF-8"?>
<svg xmlns="http://www.w3.org/2000/svg" xmlns:xlink="http://www.w3.org/1999/xlink" viewBox="0 0 32 32" version="1.1">
<g>
<path d="M 6 3 L 6 29 L 26 29 L 26 9.59375 L 25.71875 9.28125 L 19.71875 3.28125 L 19.40625 3 Z M 8 5 L 18 5 L 18 11 L 24 11 L 24 27 L 8 27 Z M 20 6.4375 L 22.5625 9 L 20 9 Z M 12.21875 14 L 12 14.6875 L 10.0625 20.6875 L 10 20.84375 L 10 22 L 12 22 L 12 21.125 L 12.03125 21 L 13.96875 21 L 14 21.125 L 14 22 L 16 22 L 16 20.84375 L 15.9375 20.6875 L 14 14.6875 L 13.78125 14 Z M 19 15 L 19 17 L 17 17 L 17 19 L 19 19 L 19 21 L 21 21 L 21 19 L 23 19 L 23 17 L 21 17 L 21 15 Z M 13 18.0625 L 13.3125 19 L 12.6875 19 Z "></path>
</g>
</svg>
