<?xml version="1.0" encoding="UTF-8"?>
<svg xmlns="http://www.w3.org/2000/svg" xmlns:xlink="http://www.w3.org/1999/xlink" viewBox="0 0 32 32" version="1.1">
<g>
<path d="M 6 3 L 6 10 L 8 10 L 8 5 L 24 5 L 24 10 L 26 10 L 26 3 Z M 7 12 L 7 20 L 12 20 L 12 18 L 9 18 L 9 17 L 11 17 L 11 15 L 9 15 L 9 14 L 12 14 L 12 12 Z M 13 12 L 15 16 L 13 20 L 15 20 L 16 18 L 17 20 L 19 20 L 17 16 L 19 12 L 17 12 L 16 14 L 15 12 Z M 20 12 L 20 20 L 25 20 L 25 18 L 22 18 L 22 17 L 24 17 L 24 15 L 22 15 L 22 14 L 25 14 L 25 12 Z M 6 22 L 6 29 L 26 29 L 26 22 L 24 22 L 24 27 L 8 27 L 8 22 Z "></path>
</g>
</svg>
