<?xml version="1.0" encoding="UTF-8"?>
<svg xmlns="http://www.w3.org/2000/svg" xmlns:xlink="http://www.w3.org/1999/xlink" viewBox="0 0 32 32" version="1.1">
<g>
<path d="M 3.707031 2.292969 L 2.292969 3.707031 L 18 19.417969 L 18 25.777344 C 17.351563 25.910156 16.6875 26 16 26 C 10.464844 26 6 21.535156 6 16 C 6 14.382813 6.402344 12.800781 7.140625 11.382813 L 5.664063 9.90625 C 4.585938 11.742188 4 13.847656 4 16 C 4 22.617188 9.382813 28 16 28 C 16.679688 28 17.347656 27.9375 18 27.828125 L 18 32 L 32 32 L 32 18 L 19.417969 18 L 9.675781 8.261719 C 11.398438 6.851563 13.59375 6 16 6 C 19.273438 6 22.15625 7.578125 23.980469 10 L 20 10 L 20 12 L 27 12 L 27 5 L 25 5 L 25 8.070313 C 22.800781 5.578125 19.582031 4 16 4 C 13.050781 4 10.351563 5.078125 8.257813 6.84375 Z M 20 20 L 30 20 L 30 30 L 20 30 Z M 22.699219 21.300781 L 21.300781 22.699219 L 23.597656 25 L 21.300781 27.300781 L 22.699219 28.699219 L 25 26.402344 L 27.300781 28.699219 L 28.699219 27.300781 L 26.402344 25 L 28.699219 22.699219 L 27.300781 21.300781 L 25 23.597656 Z "></path>
</g>
</svg>
