<?xml version="1.0" encoding="UTF-8"?>
<svg xmlns="http://www.w3.org/2000/svg" xmlns:xlink="http://www.w3.org/1999/xlink" viewBox="0 0 32 32" version="1.1">
<g>
<path d="M 6 4 L 6 21 L 8 21 L 8 6 L 24 6 L 24 16 L 23.4375 16 L 21.25 13.53125 L 21.0625 13.34375 L 20.8125 13.25 L 17 12.03125 L 16.84375 12 L 12.5625 12 L 12.28125 12.59375 L 10.09375 17.59375 L 11.90625 18.40625 L 13.875 14 L 15.15625 14 L 13.09375 18.59375 L 13 18.75 L 13 18.9375 L 12.84375 22 L 7 22 L 7 24 L 14.75 24 L 14.8125 23.0625 L 14.90625 21.34375 L 16.6875 21.84375 L 19.8125 28 L 22.09375 28 L 18.5 20.90625 L 20.75 16 L 22.25 17.65625 L 22.5625 18 L 24 18 L 24 28 L 26 28 L 26 4 Z M 20 8 C 18.894531 8 18 8.894531 18 10 C 18 11.105469 18.894531 12 20 12 C 21.105469 12 22 11.105469 22 10 C 22 8.894531 21.105469 8 20 8 Z M 17.25 14.21875 L 19.1875 14.8125 L 16.90625 19.8125 L 15 19.25 L 15 19.21875 Z M 6 25 L 6 28 L 8 28 L 8 25 Z "></path>
</g>
</svg>
