<?xml version="1.0" encoding="UTF-8"?>
<svg xmlns="http://www.w3.org/2000/svg" xmlns:xlink="http://www.w3.org/1999/xlink" viewBox="0 0 32 32" version="1.1">
<g>
<path d="M 12 5 C 5.9375 5 1 9.9375 1 16 C 1 22.0625 5.9375 27 12 27 C 12.683594 27 13.351563 26.933594 14 26.8125 C 14.648438 26.933594 15.3125 27 16 27 C 16.683594 27 17.351563 26.933594 18 26.8125 C 18.648438 26.933594 19.3125 27 20 27 C 26.0625 27 31 22.0625 31 16 C 31 9.9375 26.0625 5 20 5 C 19.3125 5 18.648438 5.066406 18 5.1875 C 17.351563 5.066406 16.683594 5 16 5 C 15.3125 5 14.648438 5.066406 14 5.1875 C 13.351563 5.066406 12.683594 5 12 5 Z M 12 7 C 16.980469 7 21 11.019531 21 16 C 21 20.980469 16.980469 25 12 25 C 7.019531 25 3 20.980469 3 16 C 3 11.019531 7.019531 7 12 7 Z M 19 7.53125 C 22.5 8.765625 25 12.070313 25 16 C 25 19.929688 22.5 23.234375 19 24.46875 C 21.445313 22.449219 23 19.410156 23 16 C 23 12.589844 21.445313 9.550781 19 7.53125 Z M 23 7.53125 C 26.5 8.765625 29 12.070313 29 16 C 29 19.929688 26.5 23.234375 23 24.46875 C 25.445313 22.449219 27 19.410156 27 16 C 27 12.589844 25.445313 9.550781 23 7.53125 Z M 11 11 C 11 12.117188 10.117188 13 9 13 L 9 15 C 9.734375 15 10.40625 14.785156 11 14.4375 L 11 19 L 9 19 L 9 21 L 15 21 L 15 19 L 13 19 L 13 11 Z "></path>
</g>
</svg>
