<?xml version="1.0" encoding="UTF-8"?>
<svg xmlns="http://www.w3.org/2000/svg" xmlns:xlink="http://www.w3.org/1999/xlink" viewBox="0 0 32 32" version="1.1">
<g>
<path d="M 6 3 L 6 29 L 26 29 L 26 13.4375 L 27.71875 11.71875 L 28 11.40625 L 28 3 Z M 8 5 L 22 5 L 22 11.40625 L 22.28125 11.71875 L 24 13.4375 L 24 27 L 8 27 Z M 24 5 L 26 5 L 26 10.5625 L 25 11.5625 L 24 10.5625 Z M 16.5 13 C 15.671875 13 15 13.671875 15 14.5 C 15 14.671875 15.039063 14.84375 15.09375 15 L 13 15 L 13 17.09375 C 12.84375 17.039063 12.671875 17 12.5 17 C 11.671875 17 11 17.671875 11 18.5 C 11 19.328125 11.671875 20 12.5 20 C 12.671875 20 12.84375 19.960938 13 19.90625 L 13 22 L 20 22 L 20 19.90625 C 19.84375 19.960938 19.675781 20 19.5 20 C 18.671875 20 18 19.328125 18 18.5 C 18 17.671875 18.671875 17 19.5 17 C 19.675781 17 19.84375 17.039063 20 17.09375 L 20 15 L 17.90625 15 C 17.960938 14.84375 18 14.671875 18 14.5 C 18 13.671875 17.328125 13 16.5 13 Z "></path>
</g>
</svg>
