<?xml version="1.0" encoding="UTF-8"?>
<svg xmlns="http://www.w3.org/2000/svg" xmlns:xlink="http://www.w3.org/1999/xlink" viewBox="0 0 32 32" version="1.1">
<g>
<path d="M 8.0625 5 C 6.386719 5 5 6.386719 5 8.0625 L 5 23.9375 C 5 25.613281 6.386719 27 8.0625 27 L 23.9375 27 C 25.613281 27 27 25.613281 27 23.9375 L 27 8.0625 C 27 6.386719 25.613281 5 23.9375 5 Z M 8.0625 7 L 23.9375 7 C 24.535156 7 25 7.464844 25 8.0625 L 25 23.9375 C 25 24.535156 24.535156 25 23.9375 25 L 8.0625 25 C 7.464844 25 7 24.535156 7 23.9375 L 7 8.0625 C 7 7.464844 7.464844 7 8.0625 7 Z M 12 9 C 10.347656 9 9 10.347656 9 12 C 9 13.652344 10.347656 15 12 15 C 13.652344 15 15 13.652344 15 12 C 15 10.347656 13.652344 9 12 9 Z M 20 9 C 18.355469 9 17 10.355469 17 12 C 17 13.644531 18.355469 15 20 15 C 21.644531 15 23 13.644531 23 12 C 23 10.355469 21.644531 9 20 9 Z M 20 11 C 20.5625 11 21 11.4375 21 12 C 21 12.5625 20.5625 13 20 13 C 19.4375 13 19 12.5625 19 12 C 19 11.4375 19.4375 11 20 11 Z M 12 17 C 10.355469 17 9 18.355469 9 20 C 9 21.644531 10.355469 23 12 23 C 13.644531 23 15 21.644531 15 20 C 15 18.355469 13.644531 17 12 17 Z M 20 17 C 18.347656 17 17 18.347656 17 20 C 17 21.652344 18.347656 23 20 23 C 21.652344 23 23 21.652344 23 20 C 23 18.347656 21.652344 17 20 17 Z M 12 19 C 12.5625 19 13 19.4375 13 20 C 13 20.5625 12.5625 21 12 21 C 11.4375 21 11 20.5625 11 20 C 11 19.4375 11.4375 19 12 19 Z "></path>
</g>
</svg>
