<?xml version="1.0" encoding="UTF-8"?>
<svg xmlns="http://www.w3.org/2000/svg" xmlns:xlink="http://www.w3.org/1999/xlink" viewBox="0 0 32 32" version="1.1">
<g>
<path d="M 4 6 L 4 8 L 1 8 L 1 24 L 4 24 L 4 26 L 12 26 L 12 21 L 9 21 L 9 19 L 11.4375 19 L 13.15625 21.5625 L 13.46875 22 L 16.34375 22 L 16.59375 21.8125 L 20.375 18.96875 C 20.566406 18.96875 21.160156 18.980469 22 18.9375 L 22 21 L 19 21 L 19 26 L 27 26 L 27 21 L 24 21 L 24 18.75 C 25.597656 18.566406 27.398438 18.277344 29 17.625 L 29 23 L 31 23 L 31 9 L 29 9 L 29 14.375 C 27.398438 13.722656 25.597656 13.433594 24 13.25 L 24 11 L 27 11 L 27 6 L 19 6 L 19 11 L 22 11 L 22 13.0625 C 21.160156 13.019531 20.566406 13.03125 20.375 13.03125 L 16.59375 10.1875 L 16.34375 10 L 13.46875 10 L 13.15625 10.4375 L 11.4375 13 L 9 13 L 9 11 L 12 11 L 12 6 Z M 6 8 L 10 8 L 10 9 L 6 9 Z M 21 8 L 25 8 L 25 9 L 21 9 Z M 3 10 L 4 10 L 4 22 L 3 22 Z M 6 11 L 7 11 L 7 13 L 6 13 Z M 14.5625 12 L 15.65625 12 L 19.40625 14.8125 L 19.6875 15 L 20.03125 15 C 20.03125 15 21.640625 14.960938 23.65625 15.1875 C 24.894531 15.328125 26.261719 15.617188 27.46875 16 C 26.261719 16.382813 24.894531 16.671875 23.65625 16.8125 C 21.640625 17.039063 20.03125 17 20.03125 17 L 19.6875 17 L 19.40625 17.1875 L 15.65625 20 L 14.5625 20 L 12.84375 17.4375 L 12.53125 17 L 6 17 L 6 15 L 12.53125 15 L 12.84375 14.5625 Z M 14 15 L 14 17 L 16.90625 17 C 17.457031 17 17.90625 16.550781 17.90625 16 C 17.90625 15.449219 17.457031 15 16.90625 15 Z M 6 19 L 7 19 L 7 21 L 6 21 Z M 6 23 L 10 23 L 10 24 L 6 24 Z M 21 23 L 25 23 L 25 24 L 21 24 Z "></path>
</g>
</svg>
