<?xml version="1.0" encoding="UTF-8"?>
<svg xmlns="http://www.w3.org/2000/svg" xmlns:xlink="http://www.w3.org/1999/xlink" viewBox="0 0 32 32" version="1.1">
<g>
<path d="M 17 4 C 12.230469 4 8.210938 7.359375 7.21875 11.84375 C 7.125 11.835938 7.03125 11.8125 6.9375 11.8125 C 6.152344 11.8125 5.433594 12.101563 4.875 12.65625 C 4.320313 13.214844 4 13.960938 4 14.75 L 4 20.59375 C 3.941406 22.171875 4.550781 23.707031 5.65625 24.8125 L 7.03125 26.1875 C 8.203125 27.359375 9.753906 28 11.40625 28 C 12.167969 28 12.902344 27.855469 13.59375 27.59375 C 14.226563 27.742188 15.445313 28 17 28 C 18.992188 28 20.875 26.984375 22.4375 25.5625 C 23.898438 24.234375 25.0625 22.511719 25.75 20.6875 C 26.992188 20.320313 28 19.355469 28 18 C 28 17.105469 27.503906 16.394531 26.875 15.84375 C 26.945313 15.1875 27 14.539063 27 14 C 27 8.488281 22.511719 4 17 4 Z M 17 6 C 21.429688 6 25 9.570313 25 14 C 25 14.5625 24.945313 15.28125 24.84375 16.0625 L 24.75 16.78125 L 25.40625 17.09375 C 25.75 17.253906 26 17.59375 26 18 C 26 18.566406 25.566406 19 25 19 L 24.25 19 L 24.03125 19.6875 C 23.496094 21.28125 22.402344 22.90625 21.09375 24.09375 C 19.785156 25.28125 18.292969 26 17 26 C 16.671875 26 16.355469 25.964844 16.03125 25.9375 L 21.21875 20.75 C 21.730469 20.238281 22 19.566406 22 18.84375 C 22 18.121094 21.726563 17.445313 21.21875 16.9375 C 21.179688 16.898438 21.132813 16.847656 21.09375 16.8125 C 21.75 15.769531 21.625 14.375 20.71875 13.46875 C 20.511719 13.261719 20.285156 13.097656 20.03125 12.96875 C 20.03125 12.949219 20.03125 12.925781 20.03125 12.90625 C 20.03125 12.183594 19.730469 11.507813 19.21875 11 C 18.707031 10.488281 18.035156 10.21875 17.3125 10.21875 C 17.042969 10.21875 16.785156 10.269531 16.53125 10.34375 C 16.453125 10.234375 16.378906 10.128906 16.28125 10.03125 C 15.773438 9.519531 15.097656 9.21875 14.375 9.21875 C 13.652344 9.21875 12.945313 9.523438 12.4375 10.03125 L 9.375 13.09375 C 9.296875 12.980469 9.1875 12.882813 9.09375 12.78125 C 9.679688 8.941406 12.984375 6 17 6 Z M 14.375 11.21875 C 14.554688 11.21875 14.707031 11.300781 14.84375 11.4375 C 15.117188 11.710938 15.117188 12.132813 14.84375 12.40625 L 10.90625 16.375 L 11.875 17.375 L 16.84375 12.40625 C 16.980469 12.269531 17.132813 12.21875 17.3125 12.21875 C 17.492188 12.21875 17.675781 12.269531 17.8125 12.40625 C 18.085938 12.679688 18.085938 13.132813 17.8125 13.40625 L 12.875 18.34375 L 13.875 19.34375 L 18.3125 14.875 C 18.449219 14.738281 18.632813 14.6875 18.8125 14.6875 C 18.992188 14.6875 19.175781 14.738281 19.3125 14.875 C 19.585938 15.148438 19.585938 15.601563 19.3125 15.875 L 14.84375 20.3125 L 15.84375 21.3125 L 18.8125 18.34375 C 18.949219 18.207031 19.132813 18.15625 19.3125 18.15625 C 19.492188 18.15625 19.644531 18.207031 19.78125 18.34375 C 20.054688 18.617188 20.054688 19.070313 19.78125 19.34375 L 14.34375 24.78125 C 13.527344 25.601563 12.480469 26 11.40625 26 C 10.332031 26 9.257813 25.601563 8.4375 24.78125 L 7.0625 23.40625 C 6.300781 22.644531 5.953125 21.652344 6 20.65625 L 6 14.75 C 6 14.226563 6.414063 13.8125 6.9375 13.8125 C 7.460938 13.8125 7.90625 14.226563 7.90625 14.75 L 7.90625 17.40625 L 13.875 11.4375 C 14.011719 11.300781 14.195313 11.21875 14.375 11.21875 Z "></path>
</g>
</svg>
