<?xml version="1.0"?>
<svg xmlns="http://www.w3.org/2000/svg" viewBox="0 0 32 32">
    <path d="M 8 4 C 5.8026661 4 4 5.8026661 4 8 L 4 11 L 6 11 L 6 8 C 6 6.8833339 6.8833339 6 8 6 L 11 6 L 11 4 L 8 4 z M 21 4 L 21 6 L 24 6 C 25.116666 6 26 6.8833339 26 8 L 26 11 L 28 11 L 28 8 C 28 5.8026661 26.197334 4 24 4 L 21 4 z M 10 11 L 10 12 L 10 14 L 10 15 L 12 15 L 12 14 L 12 12 L 12 11 L 10 11 z M 15 11 L 15 17 L 14 17 L 14 19 L 15 19 C 16.093063 19 17 18.093063 17 17 L 17 11 L 15 11 z M 20 11 L 20 12 L 20 14 L 20 15 L 22 15 L 22 14 L 22 12 L 22 11 L 20 11 z M 4 20 L 4 24 C 4 26.197334 5.8026661 28 8 28 L 11 28 L 11 26 L 8 26 C 6.8833339 26 6 25.116666 6 24 L 6 20 L 4 20 z M 13.40625 20.242188 L 11.992188 21.65625 C 11.992188 21.65625 12.408868 22.059903 13.078125 22.394531 C 13.747382 22.72916 14.733333 23.050781 16 23.050781 C 17.266667 23.050781 18.252618 22.72916 18.921875 22.394531 C 19.591132 22.059903 20.007812 21.65625 20.007812 21.65625 L 18.59375 20.242188 C 18.59375 20.242188 18.458087 20.390097 18.027344 20.605469 C 17.596601 20.82084 16.933333 21.050781 16 21.050781 C 15.066667 21.050781 14.403399 20.82084 13.972656 20.605469 C 13.541913 20.390097 13.40625 20.242188 13.40625 20.242188 z M 26 21 L 26 24 C 26 25.116666 25.116666 26 24 26 L 21 26 L 21 28 L 24 28 C 26.197334 28 28 26.197334 28 24 L 28 21 L 26 21 z" font-weight="400" font-family="sans-serif" white-space="normal" overflow="visible"></path>
</svg>
