<?xml version="1.0" encoding="UTF-8"?>
<svg xmlns="http://www.w3.org/2000/svg" xmlns:xlink="http://www.w3.org/1999/xlink" viewBox="0 0 32 32" version="1.1">
<g>
<path d="M 16 4 C 13.320313 4 10.886719 4.777344 9.0625 6.09375 C 7.238281 7.410156 6 9.332031 6 11.5 C 6 13.667969 7.238281 15.589844 9.0625 16.90625 C 9.394531 17.148438 9.753906 17.359375 10.125 17.5625 C 9.605469 17.667969 9.113281 17.769531 8.65625 17.90625 C 7.683594 18.199219 6.863281 18.574219 6.21875 19.03125 C 5.574219 19.488281 5 20.136719 5 21 L 5 24 C 5 24.863281 5.574219 25.511719 6.21875 25.96875 C 6.863281 26.425781 7.683594 26.800781 8.65625 27.09375 C 10.601563 27.675781 13.15625 28 16 28 C 18.84375 28 21.398438 27.675781 23.34375 27.09375 C 24.316406 26.800781 25.136719 26.425781 25.78125 25.96875 C 26.425781 25.511719 27 24.863281 27 24 L 27 21 C 27 20.136719 26.425781 19.488281 25.78125 19.03125 C 25.136719 18.574219 24.316406 18.199219 23.34375 17.90625 C 22.886719 17.769531 22.394531 17.667969 21.875 17.5625 C 22.246094 17.359375 22.605469 17.148438 22.9375 16.90625 C 24.761719 15.589844 26 13.667969 26 11.5 C 26 9.332031 24.761719 7.410156 22.9375 6.09375 C 21.113281 4.777344 18.679688 4 16 4 Z M 16 6 C 18.289063 6 20.347656 6.683594 21.78125 7.71875 C 23.214844 8.753906 24 10.078125 24 11.5 C 24 12.921875 23.214844 14.246094 21.78125 15.28125 C 20.347656 16.316406 18.289063 17 16 17 C 13.710938 17 11.652344 16.316406 10.21875 15.28125 C 8.785156 14.246094 8 12.921875 8 11.5 C 8 10.078125 8.785156 8.753906 10.21875 7.71875 C 11.652344 6.683594 13.710938 6 16 6 Z M 15.28125 8.28125 L 12.28125 11.28125 L 13.71875 12.71875 L 16.71875 9.71875 Z M 18.28125 10.28125 L 15.28125 13.28125 L 16.71875 14.71875 L 19.71875 11.71875 Z M 16 19 C 18.679688 19 21.105469 19.339844 22.78125 19.84375 C 23.617188 20.09375 24.257813 20.398438 24.625 20.65625 C 24.992188 20.914063 25 21.035156 25 21 C 25 20.964844 24.992188 21.085938 24.625 21.34375 C 24.257813 21.601563 23.617188 21.90625 22.78125 22.15625 C 21.105469 22.660156 18.679688 23 16 23 C 13.320313 23 10.894531 22.660156 9.21875 22.15625 C 8.382813 21.90625 7.742188 21.601563 7.375 21.34375 C 7.007813 21.085938 7 20.964844 7 21 C 7 21.035156 7.007813 20.914063 7.375 20.65625 C 7.742188 20.398438 8.382813 20.09375 9.21875 19.84375 C 10.894531 19.339844 13.320313 19 16 19 Z M 7 23.4375 C 7.492188 23.691406 8.035156 23.90625 8.65625 24.09375 C 10.601563 24.675781 13.15625 25 16 25 C 18.84375 25 21.398438 24.675781 23.34375 24.09375 C 23.964844 23.90625 24.507813 23.691406 25 23.4375 L 25 24 C 25 23.964844 24.992188 24.085938 24.625 24.34375 C 24.257813 24.601563 23.617188 24.90625 22.78125 25.15625 C 21.105469 25.660156 18.679688 26 16 26 C 13.320313 26 10.894531 25.660156 9.21875 25.15625 C 8.382813 24.90625 7.742188 24.601563 7.375 24.34375 C 7.007813 24.085938 7 23.964844 7 24 Z "></path>
</g>
</svg>
