<?xml version="1.0"?>
<svg xmlns="http://www.w3.org/2000/svg" viewBox="0 0 32 32">
    <path d="M 13 5 L 13 11 A 1.0001 1.0001 0 0 0 13.552734 11.894531 L 17.857422 14.046875 L 15.275391 19.212891 L 10.628906 21.072266 A 1.0001 1.0001 0 0 0 10.072266 21.628906 L 8.0722656 26.628906 L 9.9277344 27.371094 L 11.769531 22.769531 L 16.371094 20.927734 A 1.0001 1.0001 0 0 0 16.894531 20.447266 L 19.646484 14.941406 L 22.892578 16.564453 L 22.013672 21.835938 L 23.986328 22.164062 L 24.986328 16.164062 A 1.0001 1.0001 0 0 0 24.447266 15.105469 L 15 10.382812 L 15 5 L 13 5 z M 21.5 5 C 19.578848 5 18 6.578848 18 8.5 C 18 10.421152 19.578848 12 21.5 12 C 23.421152 12 25 10.421152 25 8.5 C 25 6.578848 23.421152 5 21.5 5 z M 21.5 7 C 22.340272 7 23 7.6597282 23 8.5 C 23 9.3402718 22.340272 10 21.5 10 C 20.659728 10 20 9.3402718 20 8.5 C 20 7.6597282 20.659728 7 21.5 7 z M 9.9433594 15 C 9.7046094 15.0125 9.4690625 15.109063 9.2890625 15.289062 L 5.2890625 19.289062 L 6.7109375 20.710938 L 10.070312 17.339844 L 11.570312 18.539062 L 13.699219 17.689453 L 10.619141 15.220703 C 10.424141 15.060703 10.182109 14.9875 9.9433594 15 z" font-weight="400" font-family="sans-serif" white-space="normal" overflow="visible"></path>
</svg>
