<?xml version="1.0" encoding="UTF-8"?>
<svg xmlns="http://www.w3.org/2000/svg" xmlns:xlink="http://www.w3.org/1999/xlink" viewBox="0 0 32 32" version="1.1">
<g>
<path d="M 29 10 L 28 10 C 24.824219 10 22.863281 9.433594 20.96875 8.882813 C 19.398438 8.429688 17.914063 8 16 8 C 14.082031 8 12.597656 8.429688 11.023438 8.886719 C 9.128906 9.433594 7.167969 10 4 10 L 3 10 L 3 13 C 3 13.117188 3.03125 14.363281 4 15.769531 L 4 18.613281 C 4 19.148438 4.214844 19.664063 4.589844 20.03125 C 4.917969 20.351563 5.453125 20.804688 6.144531 21.136719 C 6.414063 21.265625 6.707031 21.328125 6.996094 21.328125 C 7.039063 21.328125 7.082031 21.3125 7.128906 21.3125 C 7.234375 21.605469 7.398438 21.875 7.636719 22.097656 C 8.175781 22.601563 9.148438 23.246094 10.734375 23.484375 C 10.832031 23.496094 10.925781 23.503906 11.019531 23.503906 C 11.214844 23.503906 11.402344 23.46875 11.585938 23.414063 C 11.949219 23.773438 12.449219 24 13 24 L 15 24 C 15.367188 24 15.703125 23.894531 16 23.722656 C 16.296875 23.894531 16.632813 24 17 24 L 19 24 C 19.550781 24 20.050781 23.773438 20.414063 23.410156 C 20.597656 23.46875 20.785156 23.503906 20.980469 23.503906 C 21.074219 23.503906 21.167969 23.496094 21.261719 23.480469 C 22.851563 23.246094 23.824219 22.597656 24.363281 22.09375 C 24.601563 21.871094 24.765625 21.601563 24.871094 21.308594 C 24.914063 21.3125 24.957031 21.328125 25 21.328125 C 25.289063 21.328125 25.582031 21.261719 25.855469 21.132813 C 26.546875 20.800781 27.085938 20.351563 27.410156 20.027344 C 27.785156 19.664063 28 19.148438 28 18.613281 L 28 15.769531 C 28.96875 14.363281 29 13.117188 29 13 Z M 5 11.980469 C 7.890625 11.871094 9.839844 11.308594 11.582031 10.804688 C 13.074219 10.375 14.367188 10 16 10 C 17.632813 10 18.921875 10.371094 20.414063 10.804688 C 22.152344 11.308594 24.105469 11.875 27 11.980469 L 27 12.984375 C 26.992188 13.191406 26.71875 18 16 18 C 5.28125 18 5.007813 13.191406 5 13 Z M 6 18.613281 L 6 17.699219 C 6.300781 17.902344 6.632813 18.097656 7 18.285156 L 7 19.324219 C 6.558594 19.113281 6.207031 18.816406 6 18.613281 Z M 9 20.632813 L 9 19.089844 C 9.605469 19.28125 10.269531 19.445313 11 19.582031 L 11 21.496094 C 9.886719 21.324219 9.269531 20.886719 9 20.632813 Z M 13 22 L 13 19.859375 C 13.628906 19.921875 14.292969 19.964844 15 19.984375 L 15 22 Z M 19 22 L 17 22 L 17 19.984375 C 17.707031 19.964844 18.371094 19.921875 19 19.859375 Z M 21 21.5 L 21 19.582031 C 21.730469 19.445313 22.394531 19.28125 22.996094 19.09375 L 22.996094 20.636719 C 22.726563 20.890625 22.105469 21.335938 21 21.5 Z M 25 19.320313 L 25 18.285156 C 25.367188 18.097656 25.703125 17.898438 26.007813 17.695313 L 26.011719 18.601563 C 25.792969 18.816406 25.4375 19.117188 25 19.320313 Z "></path>
</g>
</svg>
