<?xml version="1.0" encoding="UTF-8"?>
<svg xmlns="http://www.w3.org/2000/svg" xmlns:xlink="http://www.w3.org/1999/xlink" viewBox="0 0 32 32" version="1.1">
<g>
<path d="M 14 8 C 9.226563 8 5.160156 10.140625 2.25 13.4375 L 1.59375 14.15625 L 2.3125 14.8125 L 8.09375 20.125 L 8.8125 20.78125 L 13.09375 24.75 L 13.375 25 L 30 25 L 30 24 C 30 15.175781 22.824219 8 14 8 Z M 13 10.03125 L 13 17.0625 C 12.625 17.117188 12.257813 17.199219 11.90625 17.3125 L 9.0625 10.96875 C 10.285156 10.464844 11.59375 10.136719 13 10.03125 Z M 15 10.03125 C 16.160156 10.113281 17.28125 10.339844 18.34375 10.6875 L 15.65625 17.21875 C 15.4375 17.164063 15.226563 17.125 15 17.09375 Z M 20.1875 11.46875 C 21.257813 12 22.234375 12.660156 23.125 13.4375 L 18.125 18.375 C 17.929688 18.230469 17.742188 18.09375 17.53125 17.96875 Z M 7.28125 11.84375 L 10.125 18.1875 C 9.902344 18.339844 9.703125 18.511719 9.5 18.6875 L 4.46875 14.0625 C 5.328125 13.203125 6.257813 12.457031 7.28125 11.84375 Z M 24.5625 14.875 C 25.273438 15.707031 25.902344 16.613281 26.40625 17.59375 L 19.96875 20.34375 C 19.84375 20.144531 19.703125 19.96875 19.5625 19.78125 Z M 14 19 C 16.414063 19 18.304688 20.734375 18.78125 23 L 14.1875 23 L 11.0625 20.125 C 11.898438 19.484375 12.859375 19 14 19 Z M 27.15625 19.40625 C 27.550781 20.546875 27.816406 21.746094 27.90625 23 L 20.90625 23 C 20.863281 22.699219 20.832031 22.414063 20.75 22.125 Z "></path>
</g>
</svg>
