<?xml version="1.0" encoding="UTF-8"?>
<svg xmlns="http://www.w3.org/2000/svg" xmlns:xlink="http://www.w3.org/1999/xlink" viewBox="0 0 32 32" version="1.1">
<g>
<path d="M 16 3 C 8.832031 3 3 8.832031 3 16 C 3 23.167969 8.832031 29 16 29 C 23.167969 29 29 23.167969 29 16 C 29 8.832031 23.167969 3 16 3 Z M 16 5 C 22.085938 5 27 9.914063 27 16 C 27 22.085938 22.085938 27 16 27 C 9.914063 27 5 22.085938 5 16 C 5 9.914063 9.914063 5 16 5 Z M 16 6 C 10.476563 6 6 10.476563 6 16 C 6 21.523438 10.476563 26 16 26 C 17.421875 26 18.773438 25.691406 20 25.15625 L 20 20 L 10 20 L 10 18 L 20.78125 7.25 C 20.78125 7.25 20.503906 7.089844 20 6.84375 C 19.140625 6.417969 17.421875 6 16 6 Z M 22 8 L 22 18 L 25.78125 18 C 25.914063 17.351563 26 16.6875 26 16 C 26 12.730469 24.425781 9.824219 22 8 Z M 20 10 L 12 18 L 20 18 Z M 22 20 L 22 24 C 23.367188 22.972656 24.460938 21.582031 25.15625 20 Z "></path>
</g>
</svg>
