<?xml version="1.0" encoding="UTF-8"?>
<svg xmlns="http://www.w3.org/2000/svg" xmlns:xlink="http://www.w3.org/1999/xlink" viewBox="0 0 32 32" version="1.1">
<g>
<path d="M 16 2.9375 L 15.625 3.0625 L 5.625 7.0625 L 5.25 7.21875 L 5.09375 7.625 L 1.71875 15.625 L 1.125 17 L 4 17 L 4 29 L 28 29 L 28 17 L 30.875 17 L 30.28125 15.625 L 26.90625 7.625 L 26.75 7.21875 L 26.375 7.0625 L 16.375 3.0625 Z M 16 5.09375 L 25.28125 8.78125 L 27.875 15 L 26 15 L 26 27 L 24 27 L 24 18 L 8 18 L 8 27 L 6 27 L 6 15 L 4.125 15 L 6.71875 8.78125 Z M 14 10 L 14 14 L 18 14 L 18 10 Z M 12.09375 20 L 20 20 L 16.21875 22.21875 Z M 10 21.125 L 14.1875 23.375 L 10 25.84375 Z M 22 21.15625 L 22 25.34375 L 18.28125 23.34375 Z M 16.28125 24.5 L 20.90625 27 L 12 27 Z "></path>
</g>
</svg>
