<?xml version="1.0" encoding="UTF-8"?>
<svg xmlns="http://www.w3.org/2000/svg" xmlns:xlink="http://www.w3.org/1999/xlink" viewBox="0 0 32 32" version="1.1">
<g>
<path d="M 8 3 C 5.800781 3 4 4.800781 4 7 C 4 8.066406 4.433594 9.03125 5.125 9.75 C 3.273438 10.773438 2 12.746094 2 15 L 2 19.40625 L 2.28125 19.71875 L 4 21.4375 L 4 29 L 6 29 L 6 20.59375 L 5.71875 20.28125 L 4 18.5625 L 4 15 C 4 12.78125 5.78125 11 8 11 C 10.21875 11 12 12.78125 12 15 L 12 18.5625 L 10.28125 20.28125 L 10 20.59375 L 10 29 L 12 29 L 12 21.4375 L 13.71875 19.71875 L 14 19.40625 L 14 15 C 14 12.746094 12.726563 10.773438 10.875 9.75 C 11.566406 9.03125 12 8.066406 12 7 C 12 4.800781 10.199219 3 8 3 Z M 8 5 C 9.117188 5 10 5.882813 10 7 C 10 8.117188 9.117188 9 8 9 C 6.882813 9 6 8.117188 6 7 C 6 5.882813 6.882813 5 8 5 Z M 22 12 L 22 18 L 16 18 L 16 19.5 C 16 21.453125 17.042969 23.179688 18.59375 24.15625 C 17.664063 24.523438 17 25.449219 17 26.5 C 17 27.867188 18.132813 29 19.5 29 C 20.867188 29 22 27.867188 22 26.5 C 22 25.945313 21.8125 25.417969 21.5 25 L 24.5 25 C 24.1875 25.417969 24 25.945313 24 26.5 C 24 27.867188 25.132813 29 26.5 29 C 27.867188 29 29 27.867188 29 26.5 C 29 25.449219 28.335938 24.523438 27.40625 24.15625 C 28.824219 23.265625 29.808594 21.746094 29.96875 20 L 30 20 L 30 19 C 30 19 30.019531 17.304688 29.15625 15.5625 C 28.292969 13.820313 26.359375 12 23 12 Z M 24 14.25 C 25.8125 14.554688 26.859375 15.390625 27.375 16.4375 C 27.753906 17.203125 27.691406 17.507813 27.75 18 L 24 18 Z M 18.09375 20 L 27.90625 20 C 27.65625 21.6875 26.253906 23 24.5 23 L 21.5 23 C 19.746094 23 18.34375 21.6875 18.09375 20 Z M 19.5 26 C 19.789063 26 20 26.210938 20 26.5 C 20 26.789063 19.789063 27 19.5 27 C 19.210938 27 19 26.789063 19 26.5 C 19 26.210938 19.210938 26 19.5 26 Z M 26.5 26 C 26.789063 26 27 26.210938 27 26.5 C 27 26.789063 26.789063 27 26.5 27 C 26.210938 27 26 26.789063 26 26.5 C 26 26.210938 26.210938 26 26.5 26 Z "></path>
</g>
</svg>
