<?xml version="1.0" encoding="UTF-8"?>
<svg xmlns="http://www.w3.org/2000/svg" xmlns:xlink="http://www.w3.org/1999/xlink" viewBox="0 0 32 32" version="1.1">
<g>
<path d="M 6 3 L 6 29 L 26 29 L 26 9.59375 L 25.71875 9.28125 L 19.71875 3.28125 L 19.40625 3 Z M 8 5 L 18 5 L 18 11 L 24 11 L 24 27 L 8 27 Z M 20 6.4375 L 22.5625 9 L 20 9 Z M 16 12.09375 L 14.3125 16 L 10 16.5 L 13.1875 19.40625 L 12.3125 23.59375 L 16 21.5 L 19.6875 23.59375 L 18.8125 19.40625 L 22 16.5 L 17.6875 16 Z M 16 17.09375 L 16.40625 18 L 17.3125 18.09375 L 16.59375 18.6875 L 16.8125 19.59375 L 16 19.09375 L 15.1875 19.59375 L 15.40625 18.6875 L 14.6875 18 L 15.59375 17.90625 Z "></path>
</g>
</svg>
