<?xml version="1.0" encoding="UTF-8"?>
<svg xmlns="http://www.w3.org/2000/svg" xmlns:xlink="http://www.w3.org/1999/xlink" viewBox="0 0 32 32" version="1.1">
<g>
<path d="M 0 6 L 0 25 L 13 25 C 14.191406 25 15 25.808594 15 27 L 17 27 C 17 25.808594 17.808594 25 19 25 L 32 25 L 32 6 L 19 6 C 17.804688 6 16.734375 6.515625 16 7.34375 C 15.265625 6.515625 14.195313 6 13 6 Z M 2 8 L 13 8 C 14.191406 8 15 8.808594 15 10 L 17 10 C 17 8.808594 17.808594 8 19 8 L 30 8 L 30 23 L 19 23 C 17.804688 23 16.734375 23.515625 16 24.34375 C 15.265625 23.515625 14.195313 23 13 23 L 2 23 Z M 7 12 L 7 20 L 9 20 L 9 17 L 11 17 L 11 15 L 9 15 L 9 14 L 12 14 L 12 12 Z M 13 12 L 13 20 L 15.5 20 C 16.882813 20 18 18.882813 18 17.5 C 18 16.917969 17.738281 16.425781 17.40625 16 C 17.738281 15.574219 18 15.082031 18 14.5 C 18 13.117188 16.882813 12 15.5 12 Z M 21.5 12 C 20.117188 12 19 13.117188 19 14.5 L 19 15 L 21 15 L 21 14.5 C 21 14.285156 21.285156 14 21.5 14 C 21.714844 14 22 14.285156 22 14.5 L 22 15.3125 C 22 15.378906 21.925781 15.542969 21.78125 15.6875 L 19.3125 18.09375 L 19 18.375 L 19 20 L 24 20 L 24 18 L 22.28125 18 L 23.1875 17.125 L 23.21875 17.09375 C 23.675781 16.636719 24 16.046875 24 15.3125 L 24 14.5 C 24 13.117188 22.882813 12 21.5 12 Z M 15 14 L 15.5 14 C 15.714844 14 16 14.285156 16 14.5 C 16 14.714844 15.714844 15 15.5 15 L 15 15 Z M 15 17 L 15.5 17 C 15.714844 17 16 17.285156 16 17.5 C 16 17.714844 15.714844 18 15.5 18 L 15 18 Z "></path>
</g>
</svg>
