<?xml version="1.0" encoding="UTF-8"?>
<svg xmlns="http://www.w3.org/2000/svg" xmlns:xlink="http://www.w3.org/1999/xlink" viewBox="0 0 32 32" version="1.1">
<g>
<path d="M 6.71875 4.28125 L 5.28125 5.71875 L 11 11.4375 L 11 20 L 9 20 L 12 24 L 15 20 L 13 20 L 13 10.59375 L 12.71875 10.28125 Z M 25.28125 4.28125 L 19.28125 10.28125 L 19 10.59375 L 19 20 L 17 20 L 20 24 L 23 20 L 21 20 L 21 11.4375 L 26.71875 5.71875 Z M 4 14 L 4 16 L 6 16 L 6 28 L 26 28 L 26 16 L 28 16 L 28 14 L 24 14 L 24 26 L 8 26 L 8 14 Z "></path>
</g>
</svg>
