<?xml version="1.0" encoding="UTF-8"?>
<svg xmlns="http://www.w3.org/2000/svg" xmlns:xlink="http://www.w3.org/1999/xlink" viewBox="0 0 32 32" version="1.1">
<g>
<path d="M 16 4 C 14.894531 4 14 4.894531 14 6 C 14 6.074219 13.992188 6.148438 14 6.21875 C 12.722656 6.480469 11.519531 6.988281 10.46875 7.6875 C 10.101563 7.234375 9.566406 6.9375 8.9375 6.9375 C 7.832031 6.9375 6.9375 7.832031 6.9375 8.9375 C 6.9375 9.566406 7.234375 10.101563 7.6875 10.46875 C 6.988281 11.519531 6.480469 12.722656 6.21875 14 C 6.148438 13.992188 6.074219 14 6 14 C 4.894531 14 4 14.894531 4 16 C 4 17.105469 4.894531 18 6 18 C 6.074219 18 6.144531 17.976563 6.21875 17.96875 C 6.480469 19.265625 6.972656 20.46875 7.6875 21.53125 C 7.234375 21.898438 6.9375 22.433594 6.9375 23.0625 C 6.9375 24.167969 7.832031 25.0625 8.9375 25.0625 C 9.566406 25.0625 10.101563 24.765625 10.46875 24.3125 C 10.90625 24.605469 11.359375 24.839844 11.84375 25.0625 L 11 28 L 13.5 28 L 16 18.8125 L 17.375 23.875 C 16.925781 23.957031 16.472656 24 16 24 C 15.972656 24 15.933594 24 15.90625 24 L 15.46875 25.96875 C 15.648438 25.976563 15.816406 26 16 26 C 16.648438 26 17.292969 25.929688 17.90625 25.8125 L 18.5 28 L 21 28 L 17.8125 16.8125 C 17.925781 16.5625 18 16.292969 18 16 C 18 14.894531 17.105469 14 16 14 C 14.894531 14 14 14.894531 14 16 C 14 16.292969 14.074219 16.5625 14.1875 16.8125 L 12.375 23.125 C 9.777344 21.804688 8 19.109375 8 16 C 8 11.589844 11.589844 8 16 8 C 20.410156 8 24 11.589844 24 16 C 24 18.203125 23.074219 20.238281 21.625 21.6875 C 21.28125 22.046875 21.0625 22.527344 21.0625 23.0625 C 21.0625 24.167969 21.957031 25.0625 23.0625 25.0625 C 24.167969 25.0625 25.0625 24.167969 25.0625 23.0625 C 25.0625 22.433594 24.765625 21.898438 24.3125 21.53125 C 25.023438 20.46875 25.519531 19.261719 25.78125 17.96875 C 25.855469 17.976563 25.925781 18 26 18 C 27.105469 18 28 17.105469 28 16 C 28 14.894531 27.105469 14 26 14 C 25.925781 14 25.851563 13.992188 25.78125 14 C 25.519531 12.722656 25.011719 11.519531 24.3125 10.46875 C 24.765625 10.101563 25.0625 9.566406 25.0625 8.9375 C 25.0625 7.832031 24.167969 6.9375 23.0625 6.9375 C 22.433594 6.9375 21.898438 7.234375 21.53125 7.6875 C 20.480469 6.988281 19.277344 6.480469 18 6.21875 C 18.007813 6.148438 18 6.074219 18 6 C 18 4.894531 17.105469 4 16 4 Z "></path>
</g>
</svg>
