<?xml version="1.0" encoding="UTF-8"?>
<svg xmlns="http://www.w3.org/2000/svg" xmlns:xlink="http://www.w3.org/1999/xlink" viewBox="0 0 32 32" version="1.1">
<g>
<path d="M 3 4.875 L 3 23.84375 C 2.785156 23.769531 2.585938 23.667969 2.4375 23.5625 C 2.078125 23.3125 2 23.042969 2 23 L 0 23 C 0 23.941406 0.589844 24.683594 1.3125 25.1875 C 2.035156 25.691406 2.960938 26 4 26 C 5.035156 26 5.960938 25.691406 6.6875 25.1875 C 6.800781 25.109375 6.894531 25.027344 7 24.9375 C 7.101563 25.023438 7.203125 25.113281 7.3125 25.1875 C 8.035156 25.691406 8.960938 26 10 26 C 11.035156 26 11.960938 25.691406 12.6875 25.1875 C 12.800781 25.109375 12.894531 25.027344 13 24.9375 C 13.101563 25.023438 13.203125 25.113281 13.3125 25.1875 C 14.035156 25.691406 14.960938 26 16 26 C 17.035156 26 17.960938 25.691406 18.6875 25.1875 C 18.800781 25.109375 18.894531 25.027344 19 24.9375 C 19.101563 25.023438 19.203125 25.113281 19.3125 25.1875 C 20.035156 25.691406 20.960938 26 22 26 C 23.035156 26 23.960938 25.691406 24.6875 25.1875 C 24.800781 25.109375 24.894531 25.027344 25 24.9375 C 25.101563 25.023438 25.203125 25.113281 25.3125 25.1875 C 26.035156 25.691406 26.960938 26 28 26 C 29.035156 26 29.960938 25.691406 30.6875 25.1875 C 31.414063 24.683594 32 23.941406 32 23 L 30 23 C 30 23.058594 29.917969 23.316406 29.5625 23.5625 C 29.414063 23.664063 29.214844 23.769531 29 23.84375 L 29 19 L 28 19 C 28.550781 19 29 18.550781 29 18 L 29 17.15625 C 29.003906 17.105469 29.003906 17.050781 29 17 L 29 12 C 29.003906 11.847656 28.96875 11.699219 28.90625 11.5625 L 25.90625 5.5625 C 25.738281 5.214844 25.386719 4.996094 25 5 L 16 5 C 15.96875 5 15.9375 5 15.90625 5 C 15.875 5 15.84375 5 15.8125 5 C 15.496094 5.0625 15.230469 5.269531 15.09375 5.5625 L 12.09375 11.5625 C 12.03125 11.699219 11.996094 11.847656 12 12 L 12 17 C 12 17.03125 12 17.0625 12 17.09375 L 12 18 C 12 18.550781 12.449219 19 13 19 L 8 19 L 8 12.3125 L 9.71875 10.59375 L 10 10.28125 L 10 4.875 Z M 5 6.875 L 8 6.875 L 8 9.4375 L 6.28125 11.15625 L 6 11.46875 L 6 21 L 27 21 L 27 23.84375 C 26.785156 23.769531 26.585938 23.667969 26.4375 23.5625 C 26.078125 23.3125 26 23.042969 26 23 L 24 23 C 24 23.058594 23.917969 23.316406 23.5625 23.5625 C 23.207031 23.808594 22.636719 24 22 24 C 21.367188 24 20.796875 23.8125 20.4375 23.5625 C 20.078125 23.3125 20 23.042969 20 23 L 18 23 C 18 23.058594 17.917969 23.316406 17.5625 23.5625 C 17.207031 23.808594 16.636719 24 16 24 C 15.367188 24 14.796875 23.8125 14.4375 23.5625 C 14.078125 23.3125 14 23.042969 14 23 L 12 23 C 12 23.058594 11.917969 23.316406 11.5625 23.5625 C 11.207031 23.808594 10.636719 24 10 24 C 9.367188 24 8.796875 23.8125 8.4375 23.5625 C 8.078125 23.3125 8 23.042969 8 23 L 6 23 C 6 23.058594 5.917969 23.316406 5.5625 23.5625 C 5.414063 23.664063 5.214844 23.769531 5 23.84375 Z M 16.625 7 L 24.375 7 L 25.375 9 L 15.625 9 Z M 14.625 11 L 26.375 11 L 27 12.25 L 27 16 L 14 16 L 14 12.25 Z M 16.5 12 C 15.671875 12 15 12.671875 15 13.5 C 15 14.328125 15.671875 15 16.5 15 C 17.328125 15 18 14.328125 18 13.5 C 18 12.671875 17.328125 12 16.5 12 Z M 24.5 12 C 23.671875 12 23 12.671875 23 13.5 C 23 14.328125 23.671875 15 24.5 15 C 25.328125 15 26 14.328125 26 13.5 C 26 12.671875 25.328125 12 24.5 12 Z M 16.34375 18 L 24.65625 18 L 25 19 L 16 19 Z "></path>
</g>
</svg>
