<?xml version="1.0" encoding="UTF-8"?>
<svg xmlns="http://www.w3.org/2000/svg" xmlns:xlink="http://www.w3.org/1999/xlink" viewBox="0 0 32 32" version="1.1">
<g>
<path d="M 7.03125 2 L 7.03125 5.78125 C 7.269531 5.949219 7.429688 6.152344 7.5 6.25 C 7.519531 6.28125 7.554688 6.328125 7.59375 6.375 C 7.960938 6.78125 8.441406 7.261719 9.03125 7.8125 L 9.03125 4 L 23.03125 4 L 23.03125 14.28125 C 23.804688 14.378906 24.476563 14.4375 25.03125 14.46875 L 25.03125 2 Z M 10.09375 5 L 10.09375 5.40625 L 10.34375 5.40625 L 10.34375 7.25 L 10.03125 7.25 L 10.03125 7.625 L 11.21875 7.625 L 11.21875 7.25 L 10.84375 7.25 L 10.84375 6.53125 L 11.09375 6.53125 L 11.09375 6.8125 L 11.40625 6.8125 L 11.40625 5.9375 L 11.09375 5.9375 L 11.09375 6.1875 L 10.84375 6.1875 L 10.84375 5.40625 L 21.0625 5.40625 L 21.0625 5 Z M 21.375 5 L 21.375 5.40625 L 21.875 5.40625 L 21.875 5 Z M 12.1875 5.71875 C 11.9375 5.769531 11.875 5.933594 11.875 6.1875 L 11.875 7.21875 C 11.875 7.589844 12.089844 7.644531 12.53125 7.65625 L 12.5625 7.65625 C 13.046875 7.644531 13.21875 7.601563 13.21875 7.25 L 13.21875 6.96875 L 12.75 6.96875 L 12.75 7.125 C 12.75 7.289063 12.761719 7.308594 12.5625 7.3125 C 12.441406 7.3125 12.394531 7.300781 12.375 7.28125 C 12.367188 7.273438 12.347656 7.242188 12.34375 7.21875 C 12.339844 7.191406 12.34375 7.164063 12.34375 7.125 C 12.34375 7.125 12.34375 6.8125 12.34375 6.8125 L 13.21875 6.8125 L 13.21875 6.09375 C 13.21875 5.8125 13.011719 5.722656 12.5625 5.71875 L 12.5 5.71875 C 12.375 5.71875 12.269531 5.703125 12.1875 5.71875 Z M 14.875 5.71875 C 14.753906 5.71875 14.640625 5.777344 14.5625 5.875 C 14.523438 5.925781 14.5 5.980469 14.46875 6.03125 L 14.4375 6.125 L 14.4375 5.75 L 13.78125 5.75 L 13.78125 6.03125 L 13.9375 6.03125 L 13.9375 7.25 L 13.78125 7.25 L 13.78125 7.59375 L 14.5625 7.59375 L 14.5625 7.25 L 14.4375 7.25 L 14.4375 6.625 C 14.4375 6.601563 14.5 6.476563 14.59375 6.34375 C 14.640625 6.28125 14.6875 6.195313 14.71875 6.15625 L 14.75 6.15625 L 14.75 6.8125 L 15.1875 6.8125 L 15.1875 6.03125 C 15.1875 5.835938 15.074219 5.71875 14.875 5.71875 Z M 16.71875 5.71875 C 16.597656 5.71875 16.484375 5.777344 16.40625 5.875 C 16.367188 5.925781 16.34375 5.980469 16.3125 6.03125 L 16.25 6.125 L 16.25 5.75 L 15.59375 5.75 L 15.59375 6.03125 L 15.78125 6.03125 L 15.78125 7.25 L 15.59375 7.25 L 15.59375 7.59375 L 16.40625 7.59375 L 16.40625 7.25 L 16.25 7.25 L 16.25 6.625 C 16.25 6.601563 16.34375 6.476563 16.4375 6.34375 C 16.480469 6.28125 16.5 6.195313 16.53125 6.15625 L 16.5625 6.15625 L 16.5625 6.8125 L 17.03125 6.8125 L 17.03125 6.03125 C 17.03125 5.835938 16.917969 5.71875 16.71875 5.71875 Z M 17.875 5.71875 C 17.621094 5.757813 17.53125 5.867188 17.53125 6.15625 L 17.53125 6.34375 L 17.96875 6.34375 L 17.96875 6.1875 C 17.96875 6.015625 17.960938 6 18.15625 6 C 18.316406 6 18.3125 6.007813 18.3125 6.1875 L 18.3125 6.53125 L 17.9375 6.53125 C 17.589844 6.535156 17.46875 6.710938 17.46875 6.9375 L 17.46875 7.1875 C 17.46875 7.417969 17.636719 7.625 17.875 7.625 L 18.96875 7.625 L 18.96875 7.25 L 18.8125 7.25 L 18.8125 6.09375 C 18.8125 5.753906 18.625 5.71875 18.1875 5.71875 C 18.066406 5.71875 17.960938 5.707031 17.875 5.71875 Z M 20.46875 5.71875 C 20.347656 5.71875 20.234375 5.777344 20.15625 5.875 C 20.117188 5.925781 20.09375 5.980469 20.0625 6.03125 L 20 6.125 L 20 5.75 L 19.34375 5.75 L 19.34375 6.03125 L 19.53125 6.03125 L 19.53125 7.25 L 19.34375 7.25 L 19.34375 7.59375 L 20.15625 7.59375 L 20.15625 7.25 L 20 7.25 L 20 6.625 C 20 6.601563 20.09375 6.476563 20.1875 6.34375 C 20.230469 6.28125 20.25 6.195313 20.28125 6.15625 L 20.3125 6.15625 L 20.3125 6.8125 L 20.78125 6.8125 L 20.78125 6.03125 C 20.78125 5.835938 20.667969 5.71875 20.46875 5.71875 Z M 21.21875 5.75 L 21.21875 6.03125 L 21.375 6.03125 L 21.375 7.25 L 21.21875 7.25 L 21.21875 7.625 L 22.03125 7.625 L 22.03125 7.25 L 21.875 7.25 L 21.875 5.75 Z M 12.4375 6 L 12.625 6 C 12.695313 6 12.75 6.042969 12.75 6.09375 L 12.75 6.59375 L 12.34375 6.59375 L 12.34375 6.125 C 12.34375 6.039063 12.355469 6 12.4375 6 Z M 18.03125 6.78125 L 18.3125 6.78125 L 18.3125 7.15625 C 18.3125 7.28125 18.261719 7.3125 18.1875 7.3125 L 18.03125 7.3125 C 17.949219 7.308594 17.9375 7.242188 17.9375 7.15625 L 17.9375 6.9375 C 17.9375 6.851563 17.960938 6.78125 18.03125 6.78125 Z M 6.15625 7 C 6.132813 6.992188 6.09375 7.015625 6.0625 7.03125 C 5.957031 7.09375 6.070313 7.214844 6.1875 7.5 C 6.792969 8.953125 8.792969 13.660156 9.78125 17.3125 C 11.097656 22.183594 10.339844 28.691406 10.09375 30.46875 C 10.050781 30.78125 9.972656 30.96875 10.09375 31 C 10.210938 31.027344 10.261719 30.8125 10.375 30.53125 C 11.011719 28.960938 13.765625 24.320313 16.6875 21.53125 C 20.472656 17.917969 25.949219 16.515625 27.53125 16.1875 C 27.8125 16.128906 28.046875 16.109375 28.03125 16 C 28.019531 15.886719 27.820313 15.941406 27.53125 15.96875 C 25.746094 16.132813 20.515625 15.980469 15.34375 13.75 C 10.601563 11.703125 7.488281 8.5 6.46875 7.375 C 6.289063 7.179688 6.226563 7.027344 6.15625 7 Z M 14.375 8.40625 C 14.167969 8.410156 13.988281 8.429688 13.84375 8.46875 C 13.699219 8.507813 13.570313 8.546875 13.46875 8.625 C 13.390625 8.6875 13.328125 8.773438 13.28125 8.875 C 13.234375 8.976563 13.21875 9.074219 13.21875 9.1875 C 13.21875 9.300781 13.238281 9.425781 13.28125 9.53125 C 13.324219 9.632813 13.363281 9.722656 13.4375 9.78125 C 13.621094 9.933594 13.914063 10 14.3125 10 C 14.664063 10 14.953125 9.933594 15.15625 9.8125 C 15.371094 9.683594 15.46875 9.5 15.46875 9.21875 C 15.46875 8.992188 15.410156 8.785156 15.28125 8.65625 C 15.105469 8.480469 14.816406 8.410156 14.375 8.40625 Z M 10.03125 8.4375 L 10.625 9.96875 L 11.09375 9.96875 L 11.5625 8.71875 L 12.03125 9.96875 L 12.5 9.96875 L 13.09375 8.4375 L 12.71875 8.4375 L 12.28125 9.71875 L 11.8125 8.4375 L 11.34375 8.4375 L 10.875 9.71875 L 10.4375 8.4375 Z M 15.84375 8.4375 L 15.84375 9.96875 L 16.21875 9.96875 L 16.21875 9.3125 L 16.59375 9.3125 C 16.871094 9.3125 17.074219 9.34375 17.1875 9.40625 C 17.300781 9.46875 17.382813 9.585938 17.40625 9.75 C 17.421875 9.851563 17.433594 9.917969 17.4375 9.9375 C 17.441406 9.953125 17.421875 9.953125 17.4375 9.96875 L 17.84375 9.96875 C 17.824219 9.941406 17.785156 9.921875 17.78125 9.90625 C 17.777344 9.886719 17.789063 9.84375 17.78125 9.75 C 17.765625 9.601563 17.714844 9.503906 17.65625 9.4375 C 17.597656 9.375 17.5 9.296875 17.34375 9.25 C 17.464844 9.226563 17.550781 9.195313 17.625 9.15625 C 17.753906 9.082031 17.8125 8.976563 17.8125 8.84375 C 17.8125 8.769531 17.796875 8.714844 17.75 8.65625 C 17.703125 8.59375 17.640625 8.535156 17.5625 8.5 C 17.441406 8.445313 17.246094 8.4375 16.9375 8.4375 Z M 18.1875 8.4375 L 18.1875 9.34375 C 18.1875 9.464844 18.21875 9.585938 18.25 9.65625 C 18.28125 9.726563 18.332031 9.761719 18.40625 9.8125 C 18.488281 9.867188 18.578125 9.914063 18.6875 9.9375 C 18.796875 9.957031 18.941406 9.96875 19.125 9.96875 L 19.6875 9.96875 L 19.6875 9.78125 L 19.1875 9.78125 C 18.957031 9.785156 18.792969 9.761719 18.6875 9.6875 C 18.648438 9.660156 18.609375 9.617188 18.59375 9.5625 C 18.578125 9.511719 18.5625 9.410156 18.5625 9.3125 L 18.5625 8.4375 Z M 19.96875 8.4375 L 19.96875 9.96875 L 20.90625 9.96875 C 21.101563 9.96875 21.246094 9.980469 21.34375 9.96875 C 21.4375 9.957031 21.503906 9.910156 21.59375 9.875 C 21.875 9.757813 22.03125 9.53125 22.03125 9.1875 C 22.03125 9.015625 21.988281 8.859375 21.90625 8.75 C 21.785156 8.597656 21.621094 8.515625 21.40625 8.46875 C 21.292969 8.445313 21.09375 8.4375 20.84375 8.4375 Z M 14.34375 8.59375 C 14.625 8.59375 14.851563 8.660156 14.96875 8.78125 C 15.054688 8.871094 15.09375 9.023438 15.09375 9.21875 C 15.09375 9.378906 15.058594 9.480469 15 9.5625 C 14.894531 9.714844 14.667969 9.8125 14.34375 9.8125 C 14.058594 9.8125 13.863281 9.738281 13.75 9.625 C 13.652344 9.527344 13.59375 9.378906 13.59375 9.1875 C 13.59375 9.027344 13.652344 8.902344 13.71875 8.8125 C 13.828125 8.664063 14.019531 8.59375 14.34375 8.59375 Z M 16.21875 8.625 L 16.90625 8.625 C 17.105469 8.625 17.226563 8.632813 17.28125 8.65625 C 17.378906 8.695313 17.4375 8.769531 17.4375 8.875 C 17.4375 8.964844 17.371094 9.015625 17.28125 9.0625 C 17.214844 9.09375 17.105469 9.125 16.90625 9.125 L 16.21875 9.125 Z M 20.34375 8.625 L 20.90625 8.625 C 21.054688 8.625 21.160156 8.632813 21.25 8.65625 C 21.335938 8.679688 21.414063 8.699219 21.46875 8.75 C 21.578125 8.855469 21.621094 9.019531 21.625 9.21875 C 21.625 9.398438 21.597656 9.53125 21.5 9.625 C 21.394531 9.726563 21.203125 9.78125 20.9375 9.78125 L 20.34375 9.78125 Z M 7.03125 13.6875 L 7.03125 30 L 8.65625 30 C 8.796875 28.941406 9.003906 26.898438 9.03125 24.5625 L 9.03125 23.625 C 9.007813 21.644531 8.84375 19.535156 8.34375 17.6875 C 8 16.421875 7.519531 15.027344 7.03125 13.6875 Z M 13 15.59375 L 15.0625 15.90625 L 16.90625 16.96875 L 16.34375 18.5 C 16.1875 18.957031 15.390625 20.851563 13.25 21.28125 C 11.835938 19.589844 12.34375 17.582031 12.5 17.125 Z M 14.875 16.65625 C 14.871094 16.65625 14.859375 16.667969 14.84375 16.6875 C 14.828125 16.707031 14.839844 16.738281 14.84375 16.75 C 14.847656 16.761719 14.832031 16.777344 14.8125 16.78125 C 14.792969 16.785156 14.78125 16.75 14.78125 16.75 C 14.78125 16.75 14.761719 16.761719 14.75 16.75 C 14.738281 16.738281 14.71875 16.71875 14.71875 16.71875 C 14.71875 16.71875 14.707031 16.691406 14.6875 16.6875 C 14.667969 16.683594 14.640625 16.691406 14.625 16.6875 C 14.628906 16.691406 14.617188 16.714844 14.625 16.71875 C 14.632813 16.722656 14.617188 16.742188 14.625 16.75 C 14.636719 16.757813 14.632813 16.769531 14.65625 16.78125 C 14.660156 16.785156 14.691406 16.777344 14.6875 16.78125 C 14.695313 16.78125 14.691406 16.804688 14.6875 16.8125 C 14.667969 16.8125 14.644531 16.8125 14.625 16.8125 C 14.582031 16.816406 14.574219 16.839844 14.53125 16.84375 C 14.488281 16.851563 14.40625 16.84375 14.40625 16.84375 C 14.40625 16.84375 14.402344 16.847656 14.375 16.84375 C 14.347656 16.839844 14.328125 16.847656 14.3125 16.84375 C 14.292969 16.839844 14.296875 16.808594 14.28125 16.8125 C 14.269531 16.816406 14.261719 16.839844 14.25 16.84375 L 14.21875 16.875 L 14.1875 16.875 C 14.179688 16.882813 14.191406 16.898438 14.1875 16.90625 C 14.175781 16.921875 14.160156 16.949219 14.15625 16.96875 L 14.15625 17 C 14.15625 17 14.203125 17 14.21875 17 C 14.234375 17.003906 14.25 17 14.25 17 C 14.25 17 14.277344 17 14.28125 17 C 14.28125 17.003906 14.28125 17.03125 14.28125 17.03125 L 14.25 17.03125 C 14.246094 17.03125 14.21875 17.03125 14.21875 17.03125 C 14.222656 17.035156 14.214844 17.058594 14.21875 17.0625 C 14.234375 17.070313 14.265625 17.066406 14.28125 17.0625 C 14.296875 17.058594 14.292969 17.0625 14.3125 17.0625 C 14.316406 17.0625 14.335938 17.0625 14.34375 17.0625 C 14.375 17.070313 14.378906 17.109375 14.40625 17.125 C 14.433594 17.140625 14.441406 17.140625 14.46875 17.15625 C 14.5 17.171875 14.527344 17.183594 14.5625 17.1875 C 14.582031 17.191406 14.589844 17.199219 14.59375 17.21875 C 14.59375 17.21875 14.585938 17.253906 14.5625 17.28125 C 14.542969 17.308594 14.46875 17.34375 14.46875 17.34375 L 14.4375 17.40625 C 14.4375 17.40625 14.402344 17.433594 14.34375 17.46875 C 14.285156 17.503906 14.28125 17.5 14.28125 17.5 C 14.28125 17.5 14.253906 17.507813 14.21875 17.53125 C 14.183594 17.554688 14.183594 17.546875 14.15625 17.5625 C 14.136719 17.574219 14.113281 17.589844 14.09375 17.59375 C 14.074219 17.597656 14.066406 17.574219 14 17.59375 C 13.941406 17.609375 13.910156 17.628906 13.90625 17.625 C 13.902344 17.621094 13.878906 17.628906 13.875 17.625 C 13.871094 17.621094 13.8125 17.5 13.8125 17.5 L 13.78125 17.46875 L 13.78125 17.4375 C 13.78125 17.4375 13.761719 17.429688 13.75 17.40625 C 13.738281 17.386719 13.710938 17.359375 13.6875 17.34375 C 13.664063 17.328125 13.652344 17.3125 13.625 17.3125 C 13.605469 17.3125 13.578125 17.304688 13.5625 17.3125 C 13.542969 17.320313 13.550781 17.328125 13.53125 17.34375 C 13.511719 17.355469 13.476563 17.398438 13.46875 17.40625 C 13.457031 17.414063 13.4375 17.40625 13.4375 17.40625 C 13.4375 17.40625 13.402344 17.472656 13.375 17.5 C 13.34375 17.527344 13.3125 17.535156 13.28125 17.5625 C 13.230469 17.605469 13.175781 17.667969 13.15625 17.6875 C 13.15625 17.6875 13.128906 17.710938 13.125 17.71875 C 13.121094 17.726563 13.128906 17.742188 13.125 17.75 C 13.121094 17.757813 13.09375 17.75 13.09375 17.75 C 13.089844 17.753906 13.078125 17.789063 13.0625 17.8125 C 13.046875 17.835938 13.015625 17.921875 13.03125 17.9375 C 13.046875 17.953125 13.183594 17.925781 13.21875 17.875 C 13.238281 17.84375 13.195313 17.808594 13.21875 17.78125 C 13.226563 17.773438 13.238281 17.789063 13.25 17.78125 C 13.253906 17.777344 13.277344 17.785156 13.28125 17.78125 C 13.28125 17.78125 13.289063 17.84375 13.28125 17.90625 C 13.277344 17.921875 13.25 17.9375 13.25 17.9375 L 13.25 18 C 13.25 18 13.222656 18.074219 13.21875 18.09375 C 13.214844 18.113281 13.222656 18.109375 13.21875 18.125 C 13.214844 18.152344 13.214844 18.15625 13.21875 18.1875 C 13.222656 18.21875 13.214844 18.226563 13.21875 18.25 C 13.222656 18.265625 13.25 18.261719 13.25 18.28125 C 13.25 18.300781 13.238281 18.355469 13.25 18.40625 C 13.261719 18.453125 13.289063 18.496094 13.3125 18.5 C 13.335938 18.503906 13.34375 18.5 13.34375 18.5 C 13.34375 18.5 13.398438 18.417969 13.40625 18.34375 C 13.414063 18.269531 13.335938 18.304688 13.34375 18.25 C 13.347656 18.238281 13.34375 18.21875 13.34375 18.21875 C 13.34375 18.21875 13.34375 18.195313 13.34375 18.1875 C 13.34375 18.179688 13.339844 18.105469 13.34375 18.0625 C 13.347656 18.03125 13.371094 17.933594 13.375 17.90625 C 13.382813 17.832031 13.390625 17.851563 13.40625 17.84375 C 13.421875 17.835938 13.4375 17.84375 13.4375 17.84375 C 13.4375 17.84375 13.464844 17.867188 13.46875 17.875 L 13.53125 17.9375 C 13.53125 17.9375 13.550781 17.988281 13.5625 18 C 13.574219 18.007813 13.59375 18 13.59375 18 L 13.59375 18.0625 C 13.59375 18.0625 13.625 18.058594 13.625 18.0625 C 13.625 18.0625 13.621094 18.078125 13.65625 18.125 C 13.6875 18.160156 13.710938 18.164063 13.71875 18.1875 C 13.71875 18.191406 13.746094 18.253906 13.75 18.28125 C 13.757813 18.3125 13.777344 18.332031 13.78125 18.34375 C 13.785156 18.355469 13.78125 18.4375 13.78125 18.4375 L 13.8125 18.5 L 13.875 18.59375 L 13.90625 18.65625 C 13.90625 18.65625 13.972656 18.773438 14 18.8125 C 14.027344 18.851563 14.046875 18.910156 14.0625 18.9375 C 14.058594 18.929688 14.035156 18.945313 14.03125 18.9375 C 14 18.867188 13.941406 18.777344 13.9375 18.78125 C 13.914063 18.8125 13.917969 18.863281 13.90625 18.90625 C 13.898438 18.933594 13.878906 18.960938 13.875 19 C 13.871094 19.035156 13.875 19.058594 13.875 19.09375 C 13.875 19.128906 13.875 19.1875 13.875 19.1875 L 13.90625 19.28125 L 13.90625 19.375 C 13.90625 19.375 13.917969 19.394531 13.90625 19.40625 C 13.894531 19.417969 13.886719 19.441406 13.875 19.4375 C 13.859375 19.4375 13.8125 19.4375 13.8125 19.4375 L 13.625 19.375 L 13.53125 19.3125 C 13.53125 19.3125 13.527344 19.300781 13.46875 19.28125 C 13.4375 19.269531 13.394531 19.285156 13.375 19.28125 C 13.359375 19.277344 13.308594 19.246094 13.25 19.25 C 13.195313 19.253906 13.152344 19.257813 13.125 19.28125 C 13.105469 19.300781 13.164063 19.371094 13.21875 19.40625 C 13.308594 19.464844 13.296875 19.386719 13.34375 19.375 C 13.351563 19.371094 13.367188 19.375 13.375 19.375 C 13.402344 19.375 13.410156 19.394531 13.4375 19.40625 C 13.464844 19.414063 13.472656 19.429688 13.5 19.4375 C 13.648438 19.46875 13.84375 19.59375 13.84375 19.59375 C 13.84375 19.59375 13.910156 19.652344 13.9375 19.65625 C 13.96875 19.660156 13.953125 19.640625 13.96875 19.625 C 13.980469 19.613281 13.992188 19.609375 14 19.59375 C 14.003906 19.585938 14 19.574219 14 19.5625 C 14.003906 19.535156 14 19.5 14 19.5 C 14 19.5 14 19.453125 14 19.4375 C 14 19.414063 13.996094 19.398438 14 19.375 C 14.007813 19.332031 14.027344 19.328125 14.03125 19.3125 C 14.019531 19.347656 14.03125 19.4375 14.03125 19.4375 C 14.03125 19.4375 14.03125 19.503906 14.03125 19.53125 C 14.035156 19.558594 14.03125 19.59375 14.03125 19.59375 L 14.03125 19.6875 L 14.0625 19.71875 C 14.0625 19.71875 14.046875 19.761719 14.03125 19.78125 C 14.015625 19.800781 13.992188 19.796875 13.96875 19.8125 C 13.894531 19.855469 13.757813 19.925781 13.71875 19.9375 C 13.664063 19.953125 13.664063 19.960938 13.65625 19.96875 C 13.621094 20.015625 13.574219 19.988281 13.5 20.03125 C 13.484375 20.042969 13.441406 20.0625 13.4375 20.09375 C 13.4375 20.105469 13.566406 20.164063 13.65625 20.15625 C 13.726563 20.152344 13.660156 20.117188 13.6875 20.09375 C 13.707031 20.074219 13.761719 20.078125 13.78125 20.0625 C 13.8125 20.039063 13.78125 20.050781 13.8125 20.03125 C 13.910156 19.972656 13.980469 19.9375 14.125 19.90625 C 14.140625 19.902344 14.15625 19.90625 14.15625 19.90625 C 14.15625 19.90625 14.179688 19.882813 14.1875 19.875 C 14.199219 19.867188 14.179688 19.859375 14.1875 19.84375 C 14.191406 19.835938 14.214844 19.820313 14.21875 19.8125 C 14.222656 19.792969 14.222656 19.761719 14.21875 19.75 C 14.214844 19.738281 14.183594 19.71875 14.1875 19.6875 C 14.191406 19.65625 14.226563 19.621094 14.25 19.59375 C 14.273438 19.566406 14.3125 19.5625 14.3125 19.5625 L 14.375 19.53125 C 14.375 19.53125 14.472656 19.511719 14.5 19.5 C 14.523438 19.488281 14.550781 19.46875 14.59375 19.4375 C 14.640625 19.402344 14.6875 19.363281 14.71875 19.3125 C 14.730469 19.296875 14.75 19.28125 14.75 19.28125 C 14.75 19.28125 14.78125 19.28125 14.78125 19.28125 C 14.78125 19.28125 14.789063 19.28125 14.78125 19.3125 C 14.773438 19.34375 14.75 19.375 14.75 19.375 C 14.75 19.375 14.730469 19.414063 14.71875 19.4375 C 14.722656 19.433594 14.742188 19.449219 14.75 19.4375 C 14.773438 19.40625 14.765625 19.394531 14.78125 19.375 C 14.789063 19.367188 14.804688 19.371094 14.8125 19.375 C 14.8125 19.375 14.800781 19.433594 14.78125 19.46875 C 14.761719 19.503906 14.71875 19.5625 14.71875 19.5625 L 14.6875 19.5625 C 14.6875 19.5625 14.667969 19.609375 14.65625 19.625 C 14.648438 19.632813 14.660156 19.648438 14.65625 19.65625 C 14.6875 19.625 14.75 19.59375 14.75 19.59375 C 14.75 19.59375 14.785156 19.585938 14.8125 19.5625 C 14.835938 19.539063 14.875 19.46875 14.875 19.46875 C 14.875 19.46875 14.898438 19.457031 14.90625 19.4375 C 14.902344 19.453125 14.898438 19.492188 14.90625 19.53125 C 14.910156 19.515625 14.929688 19.519531 14.9375 19.5 C 14.953125 19.464844 14.957031 19.457031 14.96875 19.4375 C 14.980469 19.417969 14.996094 19.433594 15 19.40625 C 15.007813 19.378906 15 19.34375 15 19.34375 C 15 19.34375 15 19.316406 15 19.3125 C 15 19.308594 15 19.28125 15 19.28125 C 15.003906 19.28125 15.03125 19.28125 15.03125 19.28125 C 15.03125 19.28125 15.101563 19.289063 15.125 19.28125 C 15.148438 19.273438 15.1875 19.25 15.1875 19.25 C 15.1875 19.25 15.226563 19.210938 15.25 19.1875 C 15.3125 19.128906 15.332031 19.039063 15.34375 19 C 15.355469 18.960938 15.375 18.90625 15.375 18.90625 C 15.375 18.90625 15.390625 18.851563 15.40625 18.8125 C 15.421875 18.773438 15.4375 18.75 15.4375 18.75 C 15.4375 18.75 15.453125 18.6875 15.5 18.65625 C 15.546875 18.625 15.578125 18.621094 15.59375 18.59375 C 15.609375 18.570313 15.613281 18.515625 15.59375 18.53125 C 15.574219 18.546875 15.53125 18.566406 15.5 18.59375 C 15.457031 18.628906 15.394531 18.664063 15.375 18.65625 C 15.363281 18.652344 15.375 18.625 15.375 18.625 C 15.375 18.625 15.394531 18.578125 15.4375 18.53125 C 15.464844 18.5 15.46875 18.492188 15.5 18.46875 C 15.527344 18.449219 15.539063 18.460938 15.5625 18.4375 C 15.582031 18.417969 15.601563 18.410156 15.625 18.375 C 15.628906 18.367188 15.632813 18.347656 15.625 18.34375 C 15.613281 18.339844 15.550781 18.410156 15.5 18.4375 C 15.453125 18.464844 15.375 18.46875 15.375 18.46875 C 15.378906 18.457031 15.390625 18.433594 15.40625 18.40625 C 15.421875 18.378906 15.425781 18.347656 15.46875 18.3125 C 15.515625 18.269531 15.566406 18.230469 15.59375 18.21875 C 15.578125 18.222656 15.550781 18.210938 15.53125 18.21875 C 15.492188 18.230469 15.484375 18.253906 15.4375 18.28125 C 15.394531 18.308594 15.375 18.3125 15.375 18.3125 C 15.375 18.3125 15.335938 18.328125 15.3125 18.375 C 15.289063 18.421875 15.28125 18.46875 15.28125 18.46875 C 15.28125 18.46875 15.253906 18.503906 15.25 18.53125 C 15.242188 18.558594 15.25 18.59375 15.25 18.59375 C 15.25 18.59375 15.253906 18.65625 15.25 18.6875 C 15.246094 18.71875 15.21875 18.8125 15.21875 18.8125 C 15.21875 18.8125 15.210938 18.882813 15.1875 18.9375 C 15.164063 18.992188 15.136719 19.015625 15.125 19.03125 C 15.113281 19.046875 15.101563 19.074219 15.0625 19.09375 C 15.023438 19.117188 15 19.125 15 19.125 C 15 19.125 14.964844 19.152344 14.9375 19.15625 C 14.910156 19.160156 14.890625 19.160156 14.875 19.15625 C 14.859375 19.152344 14.816406 19.125 14.8125 19.125 C 14.8125 19.125 14.816406 19.046875 14.8125 19 C 14.808594 18.960938 14.78125 18.90625 14.78125 18.90625 C 14.78125 18.90625 14.746094 18.808594 14.71875 18.75 C 14.6875 18.679688 14.648438 18.632813 14.625 18.59375 C 14.617188 18.578125 14.59375 18.53125 14.59375 18.53125 C 14.59375 18.53125 14.507813 18.390625 14.5 18.28125 C 14.492188 18.207031 14.5 18.160156 14.53125 18.09375 C 14.535156 18.085938 14.554688 18.070313 14.5625 18.0625 C 14.566406 18.0625 14.582031 18.082031 14.59375 18.09375 C 14.601563 18.101563 14.625 18.09375 14.625 18.09375 C 14.625 18.09375 14.648438 18.121094 14.65625 18.125 C 14.664063 18.132813 14.6875 18.15625 14.6875 18.15625 C 14.6875 18.15625 14.714844 18.148438 14.71875 18.15625 C 14.71875 18.15625 14.75 18.15625 14.75 18.15625 L 14.78125 18.15625 L 14.75 18.09375 C 14.742188 18.082031 14.757813 18.074219 14.75 18.0625 C 14.753906 18.066406 14.78125 18.0625 14.78125 18.0625 L 14.8125 18.09375 C 14.8125 18.09375 14.847656 18.113281 14.875 18.125 C 14.855469 18.117188 14.851563 18.082031 14.84375 18.0625 C 14.828125 18.03125 14.839844 18.027344 14.8125 18 C 14.800781 17.988281 14.78125 17.96875 14.78125 17.96875 C 14.78125 17.96875 14.761719 17.949219 14.75 17.9375 C 14.769531 17.945313 14.796875 17.933594 14.8125 17.9375 C 14.828125 17.941406 14.839844 17.96875 14.84375 17.96875 C 14.847656 17.96875 14.867188 17.960938 14.875 17.96875 C 14.878906 17.972656 14.902344 17.964844 14.90625 17.96875 C 14.898438 17.953125 14.890625 17.921875 14.875 17.90625 C 14.859375 17.894531 14.84375 17.90625 14.84375 17.90625 L 14.84375 17.875 C 14.847656 17.875 14.863281 17.867188 14.875 17.875 C 14.882813 17.878906 14.871094 17.902344 14.875 17.90625 C 14.878906 17.910156 14.90625 17.90625 14.90625 17.90625 C 14.90625 17.90625 14.917969 17.921875 14.9375 17.9375 C 14.957031 17.949219 14.96875 17.96875 14.96875 17.96875 C 14.96875 17.96875 14.996094 17.96875 15 17.96875 C 15 17.96875 15.007813 17.941406 15 17.9375 C 14.992188 17.933594 14.980469 17.925781 14.96875 17.90625 C 14.957031 17.886719 14.9375 17.875 14.9375 17.875 C 14.9375 17.875 14.929688 17.859375 14.90625 17.84375 C 14.886719 17.828125 14.875 17.84375 14.875 17.84375 L 14.875 17.8125 C 14.878906 17.816406 14.90625 17.8125 14.90625 17.8125 C 14.898438 17.800781 14.90625 17.75 14.90625 17.75 C 14.917969 17.757813 14.9375 17.78125 14.9375 17.78125 L 14.96875 17.8125 C 14.972656 17.816406 14.992188 17.832031 15 17.84375 C 15.007813 17.855469 14.996094 17.867188 15 17.875 C 15.003906 17.878906 15.027344 17.871094 15.03125 17.875 L 15.03125 17.8125 C 15.03125 17.8125 15.015625 17.769531 15 17.75 C 14.984375 17.730469 14.96875 17.71875 14.96875 17.71875 C 14.960938 17.710938 14.941406 17.699219 14.9375 17.6875 C 14.933594 17.675781 14.941406 17.667969 14.9375 17.65625 C 14.933594 17.648438 14.945313 17.632813 14.9375 17.625 C 14.945313 17.628906 14.957031 17.617188 14.96875 17.625 C 14.976563 17.632813 14.960938 17.648438 14.96875 17.65625 C 14.976563 17.664063 14.996094 17.652344 15 17.65625 C 15.003906 17.660156 14.996094 17.683594 15 17.6875 C 15.003906 17.691406 15.011719 17.699219 15.03125 17.71875 C 15.050781 17.738281 15.070313 17.773438 15.09375 17.78125 C 15.109375 17.789063 15.125 17.78125 15.125 17.78125 C 15.121094 17.769531 15.132813 17.753906 15.125 17.75 C 15.105469 17.730469 15.074219 17.714844 15.0625 17.6875 C 15.0625 17.671875 15.0625 17.667969 15.0625 17.65625 C 15.0625 17.648438 15.0625 17.625 15.0625 17.625 C 15.0625 17.625 15.050781 17.585938 15.03125 17.5625 C 15.011719 17.539063 15.003906 17.535156 15 17.53125 C 14.996094 17.527344 14.96875 17.5 14.96875 17.5 C 14.96875 17.5 14.96875 17.472656 14.96875 17.46875 C 14.972656 17.449219 15.015625 17.488281 15.03125 17.5 C 15.054688 17.519531 15.035156 17.542969 15.0625 17.5625 C 15.074219 17.574219 15.113281 17.550781 15.125 17.5625 C 15.117188 17.554688 15.125 17.53125 15.125 17.53125 C 15.125 17.53125 15.128906 17.523438 15.125 17.5 C 15.121094 17.472656 15.097656 17.441406 15.0625 17.40625 C 15.066406 17.410156 15.089844 17.398438 15.09375 17.40625 C 15.097656 17.410156 15.121094 17.4375 15.125 17.4375 C 15.128906 17.441406 15.152344 17.433594 15.15625 17.4375 C 15.164063 17.441406 15.1875 17.46875 15.1875 17.46875 C 15.1875 17.46875 15.214844 17.464844 15.21875 17.46875 C 15.21875 17.46875 15.207031 17.421875 15.1875 17.40625 C 15.171875 17.390625 15.15625 17.40625 15.15625 17.40625 C 15.152344 17.402344 15.15625 17.375 15.15625 17.375 C 15.15625 17.375 15.132813 17.390625 15.125 17.375 C 15.117188 17.359375 15.132813 17.359375 15.125 17.34375 C 15.125 17.34375 15.160156 17.332031 15.1875 17.34375 C 15.214844 17.355469 15.25 17.375 15.25 17.375 C 15.242188 17.367188 15.238281 17.324219 15.21875 17.3125 C 15.191406 17.296875 15.1875 17.3125 15.1875 17.3125 C 15.1875 17.3125 15.164063 17.300781 15.15625 17.28125 C 15.148438 17.261719 15.15625 17.21875 15.15625 17.21875 C 15.160156 17.222656 15.179688 17.214844 15.1875 17.21875 C 15.207031 17.230469 15.199219 17.210938 15.21875 17.21875 C 15.230469 17.222656 15.238281 17.246094 15.25 17.25 C 15.261719 17.253906 15.269531 17.242188 15.28125 17.25 C 15.296875 17.257813 15.300781 17.269531 15.3125 17.28125 C 15.316406 17.285156 15.339844 17.277344 15.34375 17.28125 C 15.328125 17.257813 15.332031 17.238281 15.3125 17.21875 C 15.300781 17.207031 15.296875 17.199219 15.28125 17.1875 C 15.269531 17.179688 15.261719 17.164063 15.25 17.15625 C 15.238281 17.148438 15.230469 17.136719 15.21875 17.125 C 15.199219 17.105469 15.175781 17.113281 15.15625 17.09375 C 15.144531 17.082031 15.125 17.0625 15.125 17.0625 C 15.105469 17.046875 15.15625 17.027344 15.1875 17.03125 C 15.203125 17.03125 15.203125 17.027344 15.21875 17.03125 C 15.230469 17.039063 15.234375 17.066406 15.25 17.0625 C 15.273438 17.058594 15.261719 17.007813 15.25 17 C 15.234375 16.984375 15.1875 17 15.1875 17 L 15.125 16.96875 L 15.09375 16.96875 C 15.09375 16.96875 15.097656 16.953125 15.09375 16.9375 C 15.085938 16.921875 15.070313 16.863281 15.03125 16.84375 C 14.992188 16.824219 14.96875 16.820313 14.96875 16.8125 C 14.953125 16.742188 14.925781 16.722656 14.90625 16.6875 C 14.898438 16.675781 14.878906 16.652344 14.875 16.65625 Z M 15.21875 17.46875 C 15.222656 17.472656 15.214844 17.5 15.21875 17.5 C 15.226563 17.503906 15.25 17.5 15.25 17.5 C 15.25 17.5 15.261719 17.476563 15.25 17.46875 C 15.238281 17.460938 15.21875 17.472656 15.21875 17.46875 Z M 14.875 18.125 C 14.902344 18.136719 14.925781 18.15625 14.9375 18.15625 C 14.941406 18.15625 14.929688 18.125 14.9375 18.125 C 14.910156 18.121094 14.890625 18.132813 14.875 18.125 Z M 14.71875 18.15625 C 14.722656 18.164063 14.71875 18.1875 14.71875 18.1875 C 14.722656 18.191406 14.71875 18.21875 14.71875 18.21875 C 14.71875 18.21875 14.746094 18.214844 14.75 18.21875 C 14.738281 18.199219 14.75 18.1875 14.75 18.1875 C 14.75 18.1875 14.71875 18.15625 14.71875 18.15625 Z M 14.65625 19.65625 C 14.652344 19.664063 14.625 19.648438 14.625 19.65625 C 14.621094 19.675781 14.648438 19.722656 14.65625 19.71875 C 14.664063 19.714844 14.625 19.6875 14.65625 19.65625 Z M 14.625 16.71875 C 14.625 16.71875 14.59375 16.6875 14.59375 16.6875 C 14.574219 16.679688 14.566406 16.683594 14.53125 16.6875 C 14.527344 16.6875 14.519531 16.71875 14.53125 16.71875 C 14.542969 16.71875 14.578125 16.710938 14.59375 16.71875 C 14.59375 16.71875 14.625 16.71875 14.625 16.71875 Z M 13.53125 17.53125 C 13.53125 17.53125 13.550781 17.523438 13.5625 17.53125 C 13.574219 17.539063 13.59375 17.53125 13.59375 17.53125 C 13.597656 17.53125 13.59375 17.5625 13.59375 17.5625 L 13.625 17.59375 C 13.625 17.59375 13.617188 17.640625 13.625 17.65625 C 13.632813 17.671875 13.644531 17.699219 13.65625 17.71875 C 13.667969 17.742188 13.671875 17.757813 13.6875 17.78125 C 13.683594 17.78125 13.671875 17.800781 13.65625 17.78125 C 13.644531 17.769531 13.640625 17.730469 13.625 17.71875 C 13.609375 17.707031 13.53125 17.671875 13.5 17.65625 C 13.464844 17.640625 13.46875 17.65625 13.46875 17.65625 C 13.46875 17.65625 13.460938 17.621094 13.4375 17.625 C 13.445313 17.621094 13.429688 17.597656 13.4375 17.59375 C 13.476563 17.570313 13.53125 17.53125 13.53125 17.53125 Z M 25.03125 18.4375 C 24.414063 18.648438 23.738281 18.910156 23.03125 19.21875 L 23.03125 28 L 13.5 28 C 13.023438 28.75 12.617188 29.4375 12.3125 30 L 25.03125 30 Z M 14.3125 18.9375 C 14.324219 18.941406 14.296875 18.976563 14.28125 19 C 14.210938 19.097656 14.179688 19.085938 14.125 19.15625 C 14.078125 19.214844 14.046875 19.230469 14.03125 19.28125 C 14.050781 19.222656 14.054688 19.207031 14.09375 19.15625 C 14.152344 19.082031 14.195313 19.042969 14.25 18.96875 C 14.261719 18.949219 14.300781 18.933594 14.3125 18.9375 Z M 14.90625 19.3125 C 14.910156 19.316406 14.933594 19.304688 14.9375 19.3125 C 14.941406 19.328125 14.941406 19.351563 14.9375 19.375 C 14.9375 19.386719 14.910156 19.398438 14.90625 19.40625 C 14.917969 19.371094 14.90625 19.34375 14.90625 19.34375 C 14.90625 19.34375 14.910156 19.316406 14.90625 19.3125 Z M 14.6875 19.46875 C 14.679688 19.496094 14.6875 19.53125 14.6875 19.53125 C 14.691406 19.519531 14.707031 19.488281 14.71875 19.46875 C 14.714844 19.472656 14.691406 19.460938 14.6875 19.46875 Z M 13.0625 19.71875 C 13.03125 19.734375 13.03125 19.75 13.03125 19.75 C 13.03125 19.75 12.996094 19.785156 13 19.8125 C 13.007813 19.839844 13.003906 19.875 13.03125 19.90625 C 13.058594 19.9375 13.0625 19.96875 13.0625 19.96875 L 13.1875 20.03125 C 13.1875 20.03125 13.230469 20.09375 13.21875 20.15625 C 13.214844 20.1875 13.21875 20.230469 13.1875 20.25 C 13.214844 20.234375 13.265625 20.230469 13.28125 20.1875 C 13.320313 20.085938 13.28125 20.03125 13.28125 20.03125 C 13.28125 20.03125 13.269531 19.988281 13.25 19.96875 C 13.230469 19.953125 13.1875 19.90625 13.1875 19.90625 L 13.125 19.875 L 13.09375 19.84375 L 13.09375 19.8125 C 13.09375 19.8125 13.058594 19.777344 13.09375 19.75 C 13.128906 19.722656 13.1875 19.75 13.1875 19.75 C 13.1875 19.75 13.234375 19.769531 13.25 19.78125 C 13.242188 19.773438 13.25 19.75 13.25 19.75 C 13.25 19.75 13.214844 19.730469 13.1875 19.71875 C 13.160156 19.707031 13.09375 19.703125 13.0625 19.71875 Z M 13.25 19.78125 C 13.265625 19.792969 13.265625 19.820313 13.28125 19.84375 C 13.308594 19.886719 13.3125 19.90625 13.3125 19.90625 L 13.3125 19.9375 L 13.34375 19.9375 C 13.34375 19.9375 13.339844 19.871094 13.34375 19.84375 C 13.347656 19.816406 13.34375 19.78125 13.34375 19.78125 C 13.335938 19.789063 13.296875 19.789063 13.28125 19.78125 C 13.265625 19.773438 13.257813 19.789063 13.25 19.78125 Z M 13.1875 20.25 C 13.15625 20.269531 13.117188 20.265625 13.0625 20.25 C 12.957031 20.222656 12.910156 20.164063 12.90625 20.125 C 12.902344 20.085938 12.90625 20.0625 12.90625 20.0625 L 12.9375 20.03125 C 12.9375 20.03125 12.953125 20.058594 12.96875 20.0625 C 12.984375 20.066406 13.027344 20.0625 13.03125 20.03125 C 13.035156 19.996094 12.984375 19.972656 12.96875 19.96875 C 12.953125 19.964844 12.90625 19.976563 12.875 20.0625 C 12.84375 20.148438 12.90625 20.21875 12.90625 20.21875 C 12.90625 20.21875 12.9375 20.261719 13 20.28125 C 13.0625 20.300781 13.125 20.3125 13.125 20.3125 C 13.125 20.3125 13.148438 20.273438 13.1875 20.25 Z M 14.125 20.09375 C 14.097656 20.101563 14.027344 20.117188 14.03125 20.1875 C 14.035156 20.257813 14.160156 20.257813 14.1875 20.21875 C 14.1875 20.21875 14.117188 20.21875 14.09375 20.1875 C 14.070313 20.15625 14.121094 20.160156 14.125 20.15625 C 14.128906 20.152344 14.148438 20.121094 14.1875 20.125 C 14.226563 20.128906 14.28125 20.15625 14.28125 20.15625 L 14.34375 20.1875 C 14.34375 20.1875 14.375 20.21875 14.375 20.21875 L 14.34375 20.25 C 14.34375 20.25 14.316406 20.277344 14.28125 20.3125 C 14.246094 20.347656 14.21875 20.34375 14.21875 20.34375 C 14.21875 20.34375 14.175781 20.339844 14.15625 20.34375 C 14.144531 20.347656 14.164063 20.371094 14.15625 20.375 C 14.171875 20.375 14.1875 20.40625 14.1875 20.40625 C 14.1875 20.40625 14.144531 20.453125 14.125 20.46875 C 14.109375 20.484375 14.066406 20.511719 14.03125 20.53125 C 14 20.550781 13.964844 20.574219 13.90625 20.5625 C 13.847656 20.550781 13.820313 20.492188 13.8125 20.46875 C 13.820313 20.488281 13.792969 20.511719 13.8125 20.53125 C 13.871094 20.597656 13.96875 20.625 13.96875 20.625 C 13.96875 20.625 14.023438 20.601563 14.09375 20.5625 C 14.164063 20.523438 14.21875 20.46875 14.21875 20.46875 L 14.25 20.4375 L 14.28125 20.4375 C 14.28125 20.4375 14.316406 20.449219 14.34375 20.4375 C 14.359375 20.433594 14.335938 20.414063 14.34375 20.40625 C 14.320313 20.398438 14.28125 20.375 14.28125 20.375 L 14.34375 20.34375 C 14.34375 20.34375 14.363281 20.292969 14.375 20.28125 C 14.386719 20.273438 14.4375 20.25 14.4375 20.25 C 14.4375 20.25 14.503906 20.273438 14.5625 20.28125 C 14.621094 20.289063 14.65625 20.28125 14.65625 20.28125 L 14.75 20.28125 L 14.75 20.25 C 14.753906 20.253906 14.691406 20.273438 14.59375 20.25 C 14.496094 20.226563 14.4375 20.1875 14.4375 20.1875 L 14.34375 20.125 C 14.34375 20.125 14.304688 20.101563 14.28125 20.09375 C 14.257813 20.085938 14.21875 20.09375 14.21875 20.09375 C 14.21875 20.09375 14.152344 20.085938 14.125 20.09375 Z M 13.8125 20.46875 C 13.804688 20.445313 13.804688 20.425781 13.8125 20.40625 C 13.820313 20.386719 13.84375 20.34375 13.84375 20.34375 C 13.84375 20.34375 13.855469 20.367188 13.875 20.375 C 13.894531 20.382813 13.925781 20.378906 13.9375 20.34375 C 13.949219 20.308594 13.90625 20.28125 13.90625 20.28125 C 13.90625 20.28125 13.855469 20.269531 13.8125 20.3125 C 13.769531 20.355469 13.78125 20.40625 13.78125 20.40625 C 13.78125 20.40625 13.796875 20.421875 13.8125 20.46875 Z "></path>
</g>
</svg>
