<?xml version="1.0" encoding="UTF-8"?>
<svg xmlns="http://www.w3.org/2000/svg" xmlns:xlink="http://www.w3.org/1999/xlink" viewBox="0 0 32 32" version="1.1">
<g>
<path d="M 12 9 C 9.582031 9 7.820313 10.496094 6.71875 11.875 C 5.980469 12.796875 5.585938 13.550781 5.34375 14.0625 L 5.164063 14.191406 C 5.164063 14.191406 2 16.390625 2 20 C 2 20.917969 2.242188 21.6875 2.710938 22.230469 C 3.175781 22.769531 3.800781 23.023438 4.335938 23.109375 C 4.59375 23.152344 4.839844 23.164063 5.070313 23.160156 C 5.382813 24.769531 6.804688 26 8.5 26 C 10.25 26 11.703125 24.683594 11.949219 23 L 21.050781 23 C 21.296875 24.683594 22.75 26 24.5 26 C 26.261719 26 27.722656 24.664063 27.953125 22.964844 C 28.503906 22.917969 28.9375 22.804688 29.335938 22.515625 C 29.636719 22.296875 29.859375 21.9375 29.9375 21.640625 C 30.011719 21.347656 30 21.136719 30 21 L 30 19 C 30 17.75 29.488281 16.699219 28.769531 15.980469 C 28.050781 15.261719 27.160156 14.832031 26.316406 14.550781 C 24.902344 14.078125 23.949219 14.097656 23.539063 14.089844 L 21.398438 11.5625 L 21.4375 11.617188 C 19.578125 9.101563 17.046875 9 16 9 Z M 13 11 L 16 11 C 17.046875 11 18.421875 10.898438 19.828125 12.804688 L 19.851563 12.832031 L 22.535156 16 L 23 16 C 23 16 24.375 16.011719 25.683594 16.449219 C 26.167969 16.609375 26.628906 16.832031 27 17.097656 L 27 19 L 28 19 L 28 20.910156 C 27.988281 20.902344 27.855469 20.933594 27.625 20.960938 C 27.046875 19.808594 25.867188 19 24.5 19 C 23.117188 19 21.921875 19.824219 21.355469 21 L 11.644531 21 C 11.078125 19.824219 9.882813 19 8.5 19 C 7.066406 19 5.824219 19.882813 5.289063 21.125 C 5.09375 21.152344 4.863281 21.171875 4.664063 21.140625 C 4.449219 21.101563 4.324219 21.042969 4.226563 20.925781 C 4.132813 20.8125 4 20.582031 4 20 C 4 17.800781 5.835938 16.257813 6.152344 16 L 19 16 L 19 14 L 13 14 Z M 11 11.144531 L 11 14 L 7.664063 14 C 7.839844 13.722656 8.039063 13.425781 8.28125 13.125 C 8.980469 12.25 9.886719 11.457031 11 11.144531 Z M 8.5 21 C 9.339844 21 10 21.660156 10 22.5 C 10 23.339844 9.339844 24 8.5 24 C 7.660156 24 7 23.339844 7 22.5 C 7 21.660156 7.660156 21 8.5 21 Z M 24.5 21 C 25.339844 21 26 21.660156 26 22.5 C 26 23.339844 25.339844 24 24.5 24 C 23.660156 24 23 23.339844 23 22.5 C 23 21.660156 23.660156 21 24.5 21 Z "></path>
</g>
</svg>
