<?xml version="1.0" encoding="UTF-8"?>
<svg xmlns="http://www.w3.org/2000/svg" xmlns:xlink="http://www.w3.org/1999/xlink" viewBox="0 0 32 32" version="1.1">
<g>
<path d="M 5 5 L 5 27 L 27 27 L 27 5 Z M 7 7 L 25 7 L 25 25 L 7 25 Z M 19.6875 9 L 19.46875 9.09375 C 19.199219 9.226563 18.398438 9.4375 17.46875 9.65625 C 16.539063 9.875 15.449219 10.152344 14.375 10.5625 C 13.300781 10.972656 12.242188 11.527344 11.40625 12.40625 C 10.570313 13.285156 10 14.496094 10 15.96875 C 10 17.515625 10.683594 18.648438 11.375 19.28125 C 11.660156 19.542969 11.941406 19.738281 12.1875 19.875 C 12 20.953125 12 21.988281 12 23 L 14 23 C 14 21.628906 14.003906 20.460938 14.34375 19.375 C 14.683594 18.289063 15.328125 17.21875 16.90625 15.96875 L 15.6875 14.40625 C 14.261719 15.535156 13.359375 16.691406 12.8125 17.84375 C 12.789063 17.824219 12.773438 17.832031 12.75 17.8125 C 12.378906 17.46875 12 16.957031 12 15.96875 C 12 14.96875 12.308594 14.339844 12.84375 13.78125 C 13.378906 13.222656 14.179688 12.753906 15.09375 12.40625 C 16.007813 12.058594 17.015625 11.808594 17.9375 11.59375 C 18.5 11.460938 18.933594 11.328125 19.40625 11.1875 C 19.628906 12.066406 20 13.683594 20 16.40625 C 20 18.3125 19.480469 19.128906 19.03125 19.53125 C 18.582031 19.933594 18.050781 20 17.84375 20 C 17.488281 20 16.773438 19.625 15.875 19.25 L 15.125 21.09375 C 15.816406 21.382813 16.648438 22 17.84375 22 C 18.390625 22 19.441406 21.871094 20.375 21.03125 C 21.308594 20.191406 22 18.691406 22 16.40625 C 22 12.421875 21.125 9.6875 21.125 9.6875 L 20.90625 9 Z "></path>
</g>
</svg>
