<?xml version="1.0" encoding="UTF-8"?>
<svg xmlns="http://www.w3.org/2000/svg" xmlns:xlink="http://www.w3.org/1999/xlink" viewBox="0 0 32 32" version="1.1">
<g>
<path d="M 10 5 L 10 7.15625 C 9.636719 7.25 9.285156 7.375 8.96875 7.5625 L 7.46875 6.0625 L 6.0625 7.46875 L 7.5625 8.96875 C 7.375 9.285156 7.25 9.636719 7.15625 10 L 5 10 L 5 12 L 7.15625 12 C 7.234375 12.277344 7.339844 12.5625 7.46875 12.8125 C 8.019531 12.585938 8.636719 12.351563 9.34375 12.125 C 9.128906 11.804688 9 11.410156 9 11 C 9 9.898438 9.898438 9 11 9 C 12.101563 9 13 9.898438 13 11 C 13 11.054688 12.972656 11.101563 12.96875 11.15625 C 14.160156 10.910156 15.511719 10.683594 17 10.5 L 17 10 L 14.84375 10 C 14.75 9.640625 14.589844 9.3125 14.40625 9 L 15.9375 7.46875 L 14.53125 6.0625 L 13.03125 7.5625 C 12.710938 7.371094 12.367188 7.222656 12 7.125 L 12 5 Z M 26 12 C 18.0625 12 12.9375 13.023438 9.78125 14.0625 C 8.203125 14.582031 7.117188 15.089844 6.40625 15.5 C 5.695313 15.910156 5.3125 16.28125 5.3125 16.28125 L 5 16.5625 L 5 27 L 27 27 L 27 12 Z M 25 14.0625 L 25 16.03125 C 16.085938 16.328125 9.824219 20.4375 7 22.75 L 7 17.5 C 7.105469 17.421875 7.082031 17.4375 7.40625 17.25 C 7.992188 16.910156 8.980469 16.417969 10.4375 15.9375 C 13.199219 15.027344 17.917969 14.15625 25 14.0625 Z M 25 18.03125 L 25 20.09375 C 19.523438 20.835938 15.359375 24.351563 14.625 25 L 7.46875 25 C 9.417969 23.222656 15.558594 18.367188 25 18.03125 Z M 25 22.125 L 25 25 L 18.0625 25 C 19.78125 23.878906 22.246094 22.5625 25 22.125 Z "></path>
</g>
</svg>
