<?xml version="1.0"?>
<svg xmlns="http://www.w3.org/2000/svg" viewBox="0 0 32 32">
    <path d="M 4.4472656 4.2929688 L 3.0332031 5.7070312 L 22.171875 24.845703 C 23.725785 26.399613 26.276168 26.399613 27.830078 24.845703 C 29.383988 23.291793 29.383988 20.743363 27.830078 19.189453 C 27.053425 18.4128 26.024293 18.017578 25.001953 18.017578 L 25.001953 20.017578 C 25.515613 20.017578 26.018717 20.208169 26.414062 20.603516 C 27.204152 21.393606 27.204152 22.641551 26.414062 23.431641 C 25.623973 24.221731 24.376026 24.221731 23.585938 23.431641 L 4.4472656 4.2929688 z M 27.414062 4.4140625 L 17.40625 14.423828 L 18.820312 15.837891 L 28.828125 5.828125 L 27.414062 4.4140625 z M 6.9980469 18 C 5.9757066 18 4.9465752 18.395222 4.1699219 19.171875 C 2.6160118 20.725785 2.6160118 23.276168 4.1699219 24.830078 C 5.7238319 26.383988 8.2742149 26.383988 9.828125 24.830078 L 14.576172 20.080078 L 13.162109 18.666016 L 8.4140625 23.414062 C 7.6239726 24.204152 6.3760274 24.204152 5.5859375 23.414062 C 4.7958476 22.623973 4.7958476 21.376026 5.5859375 20.585938 C 5.9812841 20.19059 6.4843872 20 6.9980469 20 L 6.9980469 18 z M 16 24 A 2 2 0 0 0 14 26 A 2 2 0 0 0 16 28 A 2 2 0 0 0 18 26 A 2 2 0 0 0 16 24 z" font-weight="400" font-family="sans-serif" white-space="normal" overflow="visible"></path>
</svg>
