<?xml version="1.0"?>
<svg xmlns="http://www.w3.org/2000/svg" viewBox="0 0 32 32">
    <path d="M 6 3 L 6 29 L 15.349609 29 C 14.985609 28.372 14.680984 27.705 14.458984 27 L 8 27 L 8 5 L 18 5 L 18 11 L 24 11 L 24 14 C 24.685 14 25.354 14.070172 26 14.201172 L 26 9.5859375 L 19.414062 3 L 6 3 z M 20 6.4140625 L 22.585938 9 L 20 9 L 20 6.4140625 z M 23 16 L 23 18.199219 C 22.1 18.299219 21.2 18.699219 20.5 19.199219 L 19 17.699219 L 17.599609 19.099609 L 19.099609 20.5 C 18.599609 21.3 18.299609 22.1 18.099609 23 L 16 23 L 16 25 L 18.099609 25 C 18.199609 25.9 18.599609 26.8 19.099609 27.5 L 17.599609 29 L 19 30.400391 L 20.5 28.900391 C 21.3 29.400391 22.1 29.700391 23 29.900391 L 23 32 L 25 32 L 25 29.900391 C 25.9 29.800391 26.8 29.400391 27.5 28.900391 L 29 30.400391 L 30.400391 29 L 28.900391 27.5 C 29.400391 26.7 29.700391 25.9 29.900391 25 L 32 25 L 32 23 L 29.900391 23 C 29.800391 22.1 29.400391 21.2 28.900391 20.5 L 30.400391 19 L 29 17.599609 L 27.5 19.099609 C 26.7 18.599609 25.9 18.299609 25 18.099609 L 25 16 L 23 16 z M 24 20 C 26.2 20 28 21.8 28 24 C 28 26.2 26.2 28 24 28 C 21.8 28 20 26.2 20 24 C 20 21.8 21.8 20 24 20 z M 24 22 C 22.9 22 22 22.9 22 24 C 22 25.1 22.9 26 24 26 C 25.1 26 26 25.1 26 24 C 26 22.9 25.1 22 24 22 z" font-weight="400" font-family="sans-serif" white-space="normal" overflow="visible"></path>
</svg>
