<?xml version="1.0" encoding="UTF-8"?>
<svg xmlns="http://www.w3.org/2000/svg" xmlns:xlink="http://www.w3.org/1999/xlink" viewBox="0 0 32 32" version="1.1">
<g>
<path d="M 2.5625 5.84375 C 2.5625 5.84375 1 11.496094 1 16 C 1 20.503906 2.5625 26.15625 2.5625 26.15625 C 7.214844 25.34375 10.367188 23.445313 12.28125 21.9375 C 11.878906 21.261719 11.242188 20.011719 10.84375 18.5 L 9.28125 18.96875 L 8.71875 17.03125 L 10.53125 16.53125 C 10.519531 16.355469 10.5 16.175781 10.5 16 C 10.5 15.886719 10.496094 15.769531 10.5 15.65625 L 7.75 14.96875 L 8.25 13.03125 L 10.8125 13.65625 C 11.207031 12.050781 11.894531 10.730469 12.3125 10.03125 C 10.480469 8.578125 7.351563 6.695313 2.5625 5.84375 Z M 29.4375 5.84375 C 24.648438 6.695313 21.519531 8.578125 19.6875 10.03125 C 20.105469 10.730469 20.792969 12.050781 21.1875 13.65625 L 23.75 13.03125 L 24.25 14.96875 L 21.5 15.65625 C 21.503906 15.769531 21.5 15.886719 21.5 16 C 21.5 16.175781 21.480469 16.355469 21.46875 16.53125 L 23.28125 17.03125 L 22.71875 18.96875 L 21.15625 18.5 C 20.757813 20.011719 20.121094 21.261719 19.71875 21.9375 C 21.632813 23.445313 24.785156 25.34375 29.4375 26.15625 C 29.4375 26.15625 31 20.503906 31 16 C 31 11.496094 29.4375 5.84375 29.4375 5.84375 Z M 13.4375 11 C 13.4375 11 12 12.890625 12 16 C 12 19.109375 13.4375 21 13.4375 21 L 18.5625 21 C 18.5625 21 20 18.867188 20 16 C 20 13.132813 18.5625 11 18.5625 11 Z "></path>
</g>
</svg>
