<?xml version="1.0" encoding="UTF-8"?>
<svg xmlns="http://www.w3.org/2000/svg" xmlns:xlink="http://www.w3.org/1999/xlink" viewBox="0 0 32 32" version="1.1">
<g>
<path d="M 7 5 L 7 10 L 4 10 L 8 14 L 12 10 L 9 10 L 9 5 Z M 12 10 L 16 14 L 20 10 L 17 10 L 17 5 L 15 5 L 15 10 Z M 20 10 L 24 14 L 28 10 L 25 10 L 25 5 L 23 5 L 23 10 Z M 4 15 L 4 17 L 28 17 L 28 15 Z M 11 18 L 11 23 L 8 23 L 12 27 L 16 23 L 13 23 L 13 18 Z M 16 23 L 20 27 L 24 23 L 21 23 L 21 18 L 19 18 L 19 23 Z "></path>
</g>
</svg>
