<?xml version="1.0" encoding="UTF-8"?>
<svg xmlns="http://www.w3.org/2000/svg" xmlns:xlink="http://www.w3.org/1999/xlink" viewBox="0 0 32 32" version="1.1">
<g>
<path d="M 13 3 C 9.144531 3 6 6.144531 6 10 C 6 12.410156 7.230469 14.550781 9.09375 15.8125 C 5.527344 17.34375 3 20.882813 3 25 L 5 25 C 5 20.570313 8.570313 17 13 17 C 15.140625 17 17.066406 17.855469 18.5 19.21875 C 18.179688 19.914063 18 20.683594 18 21.5 C 18 22.648438 18.359375 23.707031 18.96875 24.59375 L 15.28125 28.28125 L 16.71875 29.71875 L 20.40625 26.03125 C 21.292969 26.640625 22.351563 27 23.5 27 C 26.527344 27 29 24.527344 29 21.5 C 29 18.472656 26.527344 16 23.5 16 C 22.019531 16 20.679688 16.601563 19.6875 17.5625 C 18.898438 16.851563 17.988281 16.277344 17 15.84375 C 18.097656 15.261719 19.144531 14.523438 20.09375 13.8125 C 22.160156 12.265625 23.71875 10.71875 23.71875 10.71875 L 24.40625 10 L 23.71875 9.3125 C 23.71875 9.3125 22.207031 7.738281 20.15625 6.1875 C 18.105469 4.636719 15.546875 3 13 3 Z M 13 5 C 14.574219 5 17.019531 6.363281 18.9375 7.8125 C 20.394531 8.914063 20.988281 9.53125 21.46875 10 C 20.976563 10.472656 20.371094 11.089844 18.90625 12.1875 C 16.96875 13.640625 14.496094 15 13 15 C 10.226563 15 8 12.773438 8 10 C 8 7.226563 10.226563 5 13 5 Z M 23.5 18 C 25.445313 18 27 19.554688 27 21.5 C 27 23.445313 25.445313 25 23.5 25 C 21.554688 25 20 23.445313 20 21.5 C 20 19.554688 21.554688 18 23.5 18 Z "></path>
</g>
</svg>
