<?xml version="1.0" encoding="UTF-8"?>
<svg xmlns="http://www.w3.org/2000/svg" xmlns:xlink="http://www.w3.org/1999/xlink" viewBox="0 0 32 32" version="1.1">
<g>
<path d="M 13 3 C 9.144531 3 6 6.144531 6 10 C 6 12.410156 7.230469 14.550781 9.09375 15.8125 C 5.527344 17.34375 3 20.882813 3 25 L 5 25 C 5 20.570313 8.570313 17 13 17 C 15.140625 17 17.066406 17.855469 18.5 19.21875 C 18.179688 19.914063 18 20.683594 18 21.5 C 18 22.648438 18.359375 23.707031 18.96875 24.59375 L 15.28125 28.28125 L 16.71875 29.71875 L 20.40625 26.03125 C 21.292969 26.640625 22.351563 27 23.5 27 C 26.527344 27 29 24.527344 29 21.5 C 29 18.472656 26.527344 16 23.5 16 C 22.019531 16 20.679688 16.601563 19.6875 17.5625 C 18.878906 16.835938 17.949219 16.246094 16.9375 15.8125 C 18.789063 14.550781 20 12.398438 20 10 C 20 6.144531 16.855469 3 13 3 Z M 13 5 C 15.773438 5 18 7.226563 18 10 C 18 12.773438 15.773438 15 13 15 C 10.226563 15 8 12.773438 8 10 C 8 7.226563 10.226563 5 13 5 Z M 23.5 18 C 25.445313 18 27 19.554688 27 21.5 C 27 23.445313 25.445313 25 23.5 25 C 21.554688 25 20 23.445313 20 21.5 C 20 19.554688 21.554688 18 23.5 18 Z "></path>
</g>
</svg>
