<?xml version="1.0" encoding="UTF-8"?>
<svg xmlns="http://www.w3.org/2000/svg" xmlns:xlink="http://www.w3.org/1999/xlink" viewBox="0 0 32 32" version="1.1">
<g>
<path d="M 3 3 L 3 25 L 12.5 25 C 14.117188 27.414063 16.886719 29 20 29 C 24.957031 29 29 24.957031 29 20 C 29 15.382813 25.484375 11.570313 21 11.0625 L 21 3 Z M 5 5 L 19 5 L 19 11.0625 C 17.265625 11.257813 15.671875 11.957031 14.375 13 L 7 13 L 7 15 L 12.5 15 C 12.085938 15.617188 11.78125 16.289063 11.53125 17 L 7 17 L 7 19 L 11.0625 19 C 11.023438 19.332031 11 19.65625 11 20 C 11 21.050781 11.199219 22.0625 11.53125 23 L 5 23 Z M 7 9 L 7 11 L 17 11 L 17 9 Z M 20 13 C 23.878906 13 27 16.121094 27 20 C 27 23.878906 23.878906 27 20 27 C 16.121094 27 13 23.878906 13 20 C 13 16.121094 16.121094 13 20 13 Z M 16.6875 15 C 15.585938 15.699219 14.8125 16.800781 14.3125 18 L 23 18 L 23 15 Z M 14.09375 21 C 14.292969 22.101563 14.800781 23.199219 15.5 24 L 23 24 L 23 21 Z "></path>
</g>
</svg>
