<?xml version="1.0" encoding="UTF-8"?>
<svg xmlns="http://www.w3.org/2000/svg" xmlns:xlink="http://www.w3.org/1999/xlink" viewBox="0 0 32 32" version="1.1">
<g>
<path d="M 11.125 2 C 10.542969 1.972656 9.980469 2.128906 9.46875 2.4375 C 8.089844 3.265625 7.660156 5.039063 8.4375 6.4375 L 8.375 6.46875 L 10.75 11.375 L 9.125 16.5 L 6.90625 19.34375 C 5.628906 20.996094 5.714844 23.367188 7.09375 24.9375 L 9.46875 27.625 C 10.796875 29.136719 12.707031 30 14.71875 30 L 20 30 C 23.855469 30 27 26.855469 27 23 L 27 14 C 27 12.355469 25.644531 11 24 11 C 23.464844 11 22.96875 11.15625 22.53125 11.40625 C 21.996094 10.5625 21.0625 10 20 10 C 18.9375 10 18.003906 10.5625 17.46875 11.40625 L 17.21875 10.90625 L 18.84375 5.96875 L 18.8125 5.96875 C 19.34375 4.429688 18.539063 2.738281 17 2.1875 C 16.25 1.917969 15.433594 1.945313 14.71875 2.28125 C 14.210938 2.519531 13.792969 2.902344 13.5 3.375 C 13.089844 2.742188 12.453125 2.277344 11.71875 2.09375 C 11.527344 2.046875 11.320313 2.007813 11.125 2 Z M 15.9375 4 C 16.070313 3.996094 16.214844 4.015625 16.34375 4.0625 C 16.871094 4.25 17.125 4.816406 16.9375 5.34375 L 16.9375 5.375 L 15.96875 8.3125 L 14.65625 5.65625 L 15.0625 4.6875 L 15.0625 4.65625 C 15.15625 4.398438 15.3125 4.210938 15.5625 4.09375 C 15.6875 4.035156 15.804688 4.003906 15.9375 4 Z M 10.875 4.03125 C 11 4.007813 11.117188 4 11.25 4.03125 C 11.515625 4.097656 11.703125 4.265625 11.84375 4.5 L 16.96875 14.90625 L 17 14.90625 L 17 15 L 19 15 L 19 13 C 19 12.433594 19.433594 12 20 12 C 20.566406 12 21 12.433594 21 13 L 21 15 L 23 15 L 23 14 C 23 13.433594 23.433594 13 24 13 C 24.566406 13 25 13.433594 25 14 L 25 23 C 25 25.773438 22.773438 28 20 28 L 14.71875 28 C 13.28125 28 11.917969 27.394531 10.96875 26.3125 L 8.59375 23.59375 C 7.839844 22.734375 7.800781 21.5 8.5 20.59375 L 9 19.9375 L 9 21 L 11 21 L 11 17.125 L 12 13.9375 L 13.21875 16.40625 L 15.03125 15.53125 L 10.1875 5.59375 L 10.15625 5.5625 L 10.15625 5.5 C 9.867188 5.019531 10.019531 4.445313 10.5 4.15625 C 10.617188 4.085938 10.75 4.054688 10.875 4.03125 Z "></path>
</g>
</svg>
