<?xml version="1.0" encoding="UTF-8"?>
<svg xmlns="http://www.w3.org/2000/svg" xmlns:xlink="http://www.w3.org/1999/xlink" viewBox="0 0 32 32" version="1.1">
<g>
<path d="M 25 11 C 24.464844 11 23.964844 11.152344 23.527344 11.402344 C 22.996094 10.5625 22.066406 10 21 10 C 20.464844 10 19.964844 10.152344 19.527344 10.402344 C 18.996094 9.5625 18.066406 9 17 9 C 16.648438 9 16.316406 9.070313 16.003906 9.183594 L 16.003906 7 C 16.003906 5.347656 14.65625 4 13.003906 4 C 13.003906 4 13 4 13 4 C 11.347656 4 10 5.347656 10 7 L 10 17.757813 L 9.121094 16.878906 C 7.949219 15.710938 6.046875 15.710938 4.878906 16.878906 C 3.710938 18.050781 3.710938 19.949219 4.878906 21.121094 L 11.671875 27.894531 C 13.054688 29.269531 14.679688 30 16.375 30 L 21 30 C 24.859375 30 28 26.859375 28 23 L 28 14 C 28 12.347656 26.652344 11 25 11 Z M 26 23 C 26 25.757813 23.757813 28 21 28 L 16.375 28 C 14.917969 28 13.78125 27.171875 13.082031 26.476563 L 6.292969 19.707031 C 5.902344 19.316406 5.902344 18.683594 6.292969 18.292969 C 6.683594 17.902344 7.316406 17.902344 7.707031 18.292969 L 12 22.585938 L 12.003906 7 C 12.003906 6.449219 12.449219 6 13.003906 6 C 13.550781 6 14 6.449219 14 7 L 14.003906 11.980469 C 14.003906 11.988281 14 11.992188 14 12 L 14 15 L 14.003906 15 L 14.003906 15.003906 L 16.003906 15 L 16.003906 11.984375 C 16.011719 11.441406 16.453125 11 17 11 C 17.550781 11 18 11.449219 18 12 L 18 15 L 20 15 L 20 13 C 20 12.449219 20.449219 12 21 12 C 21.550781 12 22 12.449219 22 13 L 22 15 L 24 15 L 24 14 C 24 13.449219 24.449219 13 25 13 C 25.550781 13 26 13.449219 26 14 Z "></path>
</g>
</svg>
