<?xml version="1.0" encoding="UTF-8"?>
<svg xmlns="http://www.w3.org/2000/svg" xmlns:xlink="http://www.w3.org/1999/xlink" viewBox="0 0 32 32" version="1.1">
<g>
<path d="M 15 4 C 9.488281 4 5 8.488281 5 14 C 5 17.683594 7.023438 20.890625 10 22.625 L 10 25 C 10 26.09375 10.90625 27 12 27 L 18 27 C 19.09375 27 20 26.09375 20 25 L 20 22.625 C 22.976563 20.890625 25 17.683594 25 14 C 25 8.488281 20.511719 4 15 4 Z M 15 6 C 19.429688 6 23 9.570313 23 14 C 23 18.429688 19.429688 22 15 22 C 10.570313 22 7 18.429688 7 14 C 7 9.570313 10.570313 6 15 6 Z M 15 12 C 13.894531 12 13 12.894531 13 14 C 13 15.105469 13.894531 16 15 16 C 16.105469 16 17 15.105469 17 14 C 17 12.894531 16.105469 12 15 12 Z M 27 17 C 25.894531 17 25 17.894531 25 19 C 25 19.738281 25.402344 20.371094 26 20.71875 L 26 21 C 26 22.117188 25.117188 23 24 23 L 21 23 L 21 25 L 24 25 C 26.199219 25 28 23.199219 28 21 L 28 20.71875 C 28.597656 20.371094 29 19.738281 29 19 C 29 17.894531 28.105469 17 27 17 Z M 12 23.5625 C 12.945313 23.859375 13.957031 24 15 24 C 16.042969 24 17.054688 23.859375 18 23.5625 L 18 25 L 12 25 Z "></path>
</g>
</svg>
