<?xml version="1.0" encoding="UTF-8"?>
<svg xmlns="http://www.w3.org/2000/svg" xmlns:xlink="http://www.w3.org/1999/xlink" viewBox="0 0 32 32" version="1.1">
<g>
<path d="M 4 5 L 4 27 L 21 27 C 23.136719 27 25.117188 26.34375 26.59375 25.09375 C 28.070313 23.84375 29 21.984375 29 19.78125 C 29 16.964844 27.109375 13.992188 25.3125 11.5625 C 23.515625 9.132813 21.71875 7.3125 21.71875 7.3125 L 21.03125 6.59375 L 20.3125 7.25 C 20.3125 7.25 19.277344 8.207031 18 9.6875 L 18 5 Z M 6 7 L 16 7 L 16 12.28125 C 14.984375 13.707031 14.015625 15.300781 13.46875 17 L 12 17 L 12 19 L 13.0625 19 C 13.035156 19.261719 13 19.519531 13 19.78125 C 13 20.199219 13.027344 20.609375 13.09375 21 L 12 21 L 12 23 L 13.78125 23 C 14.171875 23.761719 14.683594 24.445313 15.3125 25 L 6 25 Z M 8 9 L 8 11 L 10 11 L 10 9 Z M 12 9 L 12 11 L 14 11 L 14 9 Z M 20.96875 9.53125 C 21.46875 10.0625 22.332031 10.917969 23.6875 12.75 C 25.390625 15.054688 27 17.972656 27 19.78125 C 27 21.445313 26.371094 22.667969 25.3125 23.5625 C 25.210938 23.648438 25.113281 23.730469 25 23.8125 C 25.074219 23.507813 25.125 23.203125 25.125 22.875 C 25.125 17.949219 22.4375 14.96875 22.4375 14.96875 L 20.625 12.9375 L 20.6875 15.65625 C 20.6875 15.65625 20.710938 16.636719 20.59375 17.5625 C 20.542969 17.972656 20.460938 18.316406 20.375 18.5625 C 20.28125 18.507813 20.234375 18.519531 20.09375 18.375 C 19.855469 18.125 19.6875 17.875 19.6875 17.875 L 18.71875 16.34375 L 17.9375 17.96875 C 17.9375 17.96875 16.875 20.0625 16.875 22.875 C 16.875 23.1875 16.925781 23.488281 17 23.78125 C 16.894531 23.703125 16.785156 23.644531 16.6875 23.5625 C 15.628906 22.667969 15 21.445313 15 19.78125 C 15 17.554688 16.589844 14.703125 18.28125 12.5 C 19.621094 10.757813 20.46875 10.015625 20.96875 9.53125 Z M 8 13 L 8 15 L 10 15 L 10 13 Z M 12 13 L 12 15 L 14 15 L 14 13 Z M 8 17 L 8 19 L 10 19 L 10 17 Z M 22.34375 18.875 C 22.753906 19.933594 23.125 21.207031 23.125 22.875 C 23.125 23.90625 22.40625 24.769531 21.4375 24.96875 C 21.300781 24.996094 21.148438 25 21 25 C 20.847656 25 20.710938 24.976563 20.5625 24.96875 C 19.59375 24.769531 18.875 23.90625 18.875 22.875 C 18.875 21.824219 19.09375 20.984375 19.28125 20.28125 C 19.621094 20.523438 20.007813 20.71875 20.5625 20.71875 C 20.992188 20.71875 21.398438 20.527344 21.65625 20.28125 C 21.914063 20.035156 22.070313 19.769531 22.1875 19.5 C 22.273438 19.300781 22.289063 19.082031 22.34375 18.875 Z M 8 21 L 8 23 L 10 23 L 10 21 Z "></path>
</g>
</svg>
