<?xml version="1.0" encoding="UTF-8"?>
<svg xmlns="http://www.w3.org/2000/svg" xmlns:xlink="http://www.w3.org/1999/xlink" viewBox="0 0 32 32" version="1.1">
<g>
<path d="M 28.277344 3.726563 L 14.96875 6.386719 L 16.292969 7.707031 L 16.792969 8.207031 L 14.210938 10.789063 C 14.070313 10.871094 13.953125 10.988281 13.871094 11.128906 C 13.867188 11.128906 13.867188 11.132813 13.867188 11.132813 L 5 20 L 7.59375 22.59375 C 7.234375 22.847656 6.941406 23.136719 6.726563 23.441406 C 6.328125 24.011719 6.15625 24.5625 5.984375 24.949219 C 5.816406 25.335938 5.691406 25.539063 5.480469 25.6875 C 5.269531 25.839844 4.871094 26 4 26 L 4 28 C 5.128906 28 5.992188 27.777344 6.632813 27.324219 C 7.277344 26.867188 7.605469 26.242188 7.820313 25.746094 C 8.035156 25.25 8.175781 24.859375 8.367188 24.589844 C 8.519531 24.371094 8.691406 24.199219 9.046875 24.046875 L 12 27 L 23.519531 15.480469 C 23.566406 15.441406 23.609375 15.398438 23.648438 15.351563 L 23.792969 15.207031 L 25.613281 17.03125 Z M 25.726563 6.273438 L 24.386719 12.972656 L 19.027344 7.613281 Z M 18.207031 9.621094 L 21.828125 13.242188 L 16.5625 11.265625 Z M 15.007813 12.820313 L 21.078125 15.09375 L 18.902344 17.269531 L 12.832031 14.996094 Z M 11.28125 16.546875 L 17.347656 18.824219 L 15.171875 21 L 9.105469 18.722656 Z M 8.433594 20.605469 L 13.621094 22.550781 L 12 24.171875 Z "></path>
</g>
</svg>
