<?xml version="1.0" encoding="UTF-8"?>
<svg xmlns="http://www.w3.org/2000/svg" xmlns:xlink="http://www.w3.org/1999/xlink" viewBox="0 0 32 32" version="1.1">
<g>
<path d="M 13 7 L 13 8.59375 C 9.929688 9.632813 7.566406 12.144531 7.09375 15.28125 C 5.765625 15.730469 4.632813 16.292969 3.75 16.96875 C 2.734375 17.75 2 18.789063 2 20 C 2 21.042969 2.550781 21.96875 3.34375 22.6875 C 4.136719 23.40625 5.183594 23.984375 6.4375 24.46875 C 8.949219 25.433594 12.304688 26 16 26 C 19.695313 26 23.050781 25.433594 25.5625 24.46875 C 26.816406 23.984375 27.863281 23.40625 28.65625 22.6875 C 29.449219 21.96875 30 21.042969 30 20 C 30 18.789063 29.265625 17.75 28.25 16.96875 C 27.367188 16.292969 26.234375 15.730469 24.90625 15.28125 C 24.433594 12.144531 22.070313 9.632813 19 8.59375 L 19 7 Z M 15 9 L 17 9 L 17 12 L 19 12 L 19 10.625 C 21.382813 11.660156 23 13.886719 23 16.4375 L 23 18.1875 C 22.96875 18.222656 22.949219 18.25 22.875 18.3125 C 22.648438 18.5 22.242188 18.777344 21.65625 19.03125 C 20.484375 19.539063 18.609375 20 16 20 C 13.390625 20 11.515625 19.539063 10.34375 19.03125 C 9.757813 18.777344 9.351563 18.5 9.125 18.3125 C 9.050781 18.25 9.03125 18.222656 9 18.1875 L 9 16.4375 C 9 13.886719 10.617188 11.660156 13 10.625 L 13 12 L 15 12 Z M 14 14 L 14 17 L 16 18 L 18 17 L 18 14 Z M 7 17.5 L 7 18.4375 C 7 18.867188 7.164063 19.074219 7.3125 19.28125 C 7.460938 19.488281 7.632813 19.667969 7.84375 19.84375 C 8.265625 20.191406 8.832031 20.527344 9.5625 20.84375 C 11.023438 21.472656 13.148438 22 16 22 C 18.851563 22 20.976563 21.472656 22.4375 20.84375 C 23.167969 20.527344 23.734375 20.191406 24.15625 19.84375 C 24.367188 19.667969 24.539063 19.488281 24.6875 19.28125 C 24.835938 19.074219 25 18.867188 25 18.4375 L 25 17.5 C 25.835938 17.832031 26.542969 18.1875 27.03125 18.5625 C 27.761719 19.121094 28 19.609375 28 20 C 28 20.339844 27.835938 20.742188 27.3125 21.21875 C 26.789063 21.695313 25.941406 22.171875 24.84375 22.59375 C 22.648438 23.4375 19.484375 24 16 24 C 12.515625 24 9.351563 23.4375 7.15625 22.59375 C 6.058594 22.171875 5.210938 21.695313 4.6875 21.21875 C 4.164063 20.742188 4 20.339844 4 20 C 4 19.609375 4.238281 19.121094 4.96875 18.5625 C 5.457031 18.1875 6.164063 17.832031 7 17.5 Z "></path>
</g>
</svg>
