<?xml version="1.0" encoding="UTF-8"?>
<svg xmlns="http://www.w3.org/2000/svg" xmlns:xlink="http://www.w3.org/1999/xlink" viewBox="0 0 32 32" version="1.1">
<g>
<path d="M 16 19 C 14.347656 19 13 17.652344 13 16 C 13 14.347656 14.347656 13 16 13 C 17.652344 13 19 14.347656 19 16 C 19 17.652344 17.652344 19 16 19 Z M 16 15 C 15.449219 15 15 15.449219 15 16 C 15 16.550781 15.449219 17 16 17 C 16.550781 17 17 16.550781 17 16 C 17 15.449219 16.550781 15 16 15 Z M 7.515625 25.898438 L 6.808594 25.191406 C 1.738281 20.125 1.738281 11.875 6.808594 6.808594 L 7.515625 6.101563 L 12.464844 11.050781 L 11.757813 11.757813 C 10.625 12.890625 10 14.398438 10 16 C 10 17.601563 10.625 19.109375 11.757813 20.242188 L 12.464844 20.949219 Z M 7.546875 8.960938 C 4.15625 13.023438 4.15625 18.976563 7.546875 23.039063 L 9.679688 20.90625 C 8.589844 19.507813 8 17.800781 8 16 C 8 14.199219 8.589844 12.492188 9.679688 11.09375 Z M 24.484375 25.898438 L 19.535156 20.949219 L 20.242188 20.242188 C 22.582031 17.902344 22.582031 14.097656 20.242188 11.757813 L 19.535156 11.050781 L 24.484375 6.101563 L 25.191406 6.808594 C 30.261719 11.875 30.261719 20.125 25.191406 25.191406 Z M 22.320313 20.90625 L 24.453125 23.039063 C 27.84375 18.976563 27.84375 13.023438 24.453125 8.960938 L 22.320313 11.09375 C 24.554688 13.96875 24.554688 18.03125 22.320313 20.90625 Z "></path>
</g>
</svg>
