<?xml version="1.0" encoding="UTF-8"?>
<svg xmlns="http://www.w3.org/2000/svg" xmlns:xlink="http://www.w3.org/1999/xlink" viewBox="0 0 32 32" version="1.1">
<g>
<path d="M 16 3.90625 L 3.625 9.0625 L 3 9.34375 L 3 26 L 29 26 L 29 9.34375 L 28.375 9.0625 Z M 16 6.09375 L 27 10.6875 L 27 24 L 5 24 L 5 10.6875 Z M 16.03125 9.5625 L 15.375 10.125 C 15.375 10.125 14.160156 11.101563 12.96875 12.53125 C 11.777344 13.960938 10.5 15.859375 10.5 18 C 10.5 19.515625 11.132813 20.820313 12.15625 21.6875 C 13.179688 22.554688 14.550781 23 16 23 C 17.449219 23 18.820313 22.554688 19.84375 21.6875 C 20.867188 20.820313 21.5 19.515625 21.5 18 C 21.5 16.015625 20.210938 14.191406 19.03125 12.71875 C 17.851563 11.246094 16.6875 10.15625 16.6875 10.15625 Z M 15.96875 12.34375 C 16.355469 12.722656 16.722656 13.039063 17.46875 13.96875 C 18.539063 15.308594 19.5 17.035156 19.5 18 C 19.5 18.984375 19.132813 19.679688 18.53125 20.1875 C 18.347656 20.34375 18.136719 20.480469 17.90625 20.59375 C 17.964844 20.40625 18 20.207031 18 20 C 18 17.050781 16.4375 15.3125 16.4375 15.3125 C 16.4375 15.3125 16.488281 17.9375 15.6875 17.9375 C 15.136719 17.9375 14.59375 17.09375 14.59375 17.09375 C 14.59375 17.09375 14 18.351563 14 20 C 14 20.207031 14.035156 20.40625 14.09375 20.59375 C 13.863281 20.480469 13.652344 20.34375 13.46875 20.1875 C 12.867188 19.679688 12.5 18.984375 12.5 18 C 12.5 16.742188 13.472656 15.082031 14.53125 13.8125 C 15.261719 12.9375 15.585938 12.6875 15.96875 12.34375 Z "></path>
</g>
</svg>
