<?xml version="1.0" encoding="UTF-8"?>
<svg xmlns="http://www.w3.org/2000/svg" xmlns:xlink="http://www.w3.org/1999/xlink" viewBox="0 0 32 32" version="1.1">
<g>
<path d="M 15 4 L 15 5.09375 C 13.683594 5.292969 12.40625 5.855469 11.34375 6.6875 C 10.273438 7.527344 9.421875 8.664063 9.125 10 L 8 10 L 8 12 L 9 12 L 9 14 L 8 14 C 6.148438 14 4.601563 15.28125 4.15625 17 L 3 17 L 3 19 L 4.15625 19 C 4.601563 20.71875 6.148438 22 8 22 L 9 22 L 9 25 L 8 25 L 8 27 L 24 27 L 24 25 L 23 25 L 23 22 L 24 22 C 25.851563 22 27.398438 20.71875 27.84375 19 L 29 19 L 29 17 L 27.84375 17 C 27.398438 15.28125 25.851563 14 24 14 L 23 14 L 23 12 L 24 12 L 24 10 L 22.875 10 C 22.578125 8.664063 21.726563 7.527344 20.65625 6.6875 C 19.59375 5.855469 18.316406 5.292969 17 5.09375 L 17 4 Z M 16 7 C 17.109375 7 18.425781 7.480469 19.40625 8.25 C 20.058594 8.761719 20.527344 9.359375 20.78125 10 L 11.21875 10 C 11.472656 9.359375 11.941406 8.761719 12.59375 8.25 C 13.574219 7.480469 14.890625 7 16 7 Z M 11 12 L 21 12 L 21 16 L 23 16 L 23 20 L 21 20 L 21 25 L 11 25 L 11 20 L 9 20 L 9 16 L 11 16 Z M 16 14 C 13.800781 14 12 15.800781 12 18 C 12 20.199219 13.800781 22 16 22 C 18.199219 22 20 20.199219 20 18 C 20 15.800781 18.199219 14 16 14 Z M 16 16 C 17.117188 16 18 16.882813 18 18 C 18 19.117188 17.117188 20 16 20 C 14.882813 20 14 19.117188 14 18 C 14 16.882813 14.882813 16 16 16 Z M 7 16.28125 L 7 19.71875 C 6.402344 19.375 6 18.746094 6 18 C 6 17.253906 6.402344 16.625 7 16.28125 Z M 25 16.28125 C 25.597656 16.625 26 17.253906 26 18 C 26 18.746094 25.597656 19.375 25 19.71875 Z "></path>
</g>
</svg>
