<?xml version="1.0" encoding="UTF-8"?>
<svg xmlns="http://www.w3.org/2000/svg" xmlns:xlink="http://www.w3.org/1999/xlink" viewBox="0 0 32 32" version="1.1">
<g>
<path d="M 5 5 L 5 27 L 27 27 L 27 5 Z M 7 7 L 25 7 L 25 25 L 7 25 Z M 20.96875 11.0625 C 20.273438 11.765625 19.53125 12.496094 18.84375 13.1875 C 20.375 14.75 20.394531 17.292969 18.84375 18.84375 L 20.9375 20.9375 C 23.664063 18.210938 23.683594 13.796875 20.96875 11.0625 Z M 11.03125 11.09375 C 8.328125 13.828125 8.339844 18.214844 11.0625 20.9375 L 13.1875 18.8125 C 11.644531 17.269531 11.617188 14.78125 13.125 13.21875 C 12.417969 12.5 11.6875 11.769531 11.03125 11.09375 Z M 16 14 C 14.894531 14 14 14.894531 14 16 C 14 17.105469 14.894531 18 16 18 C 17.105469 18 18 17.105469 18 16 C 18 14.894531 17.105469 14 16 14 Z "></path>
</g>
</svg>
