<?xml version="1.0" encoding="UTF-8"?>
<svg xmlns="http://www.w3.org/2000/svg" xmlns:xlink="http://www.w3.org/1999/xlink" viewBox="0 0 32 32" version="1.1">
<g>
<path d="M 18.09375 3.0625 L 17.5625 3.34375 L 1.5625 11.34375 L 1.03125 11.625 L 1.03125 12.25 L 1 17 L 1 26 L 4.15625 26 C 4.601563 27.71875 6.148438 29 8 29 C 9.851563 29 11.398438 27.71875 11.84375 26 L 20.15625 26 C 20.601563 27.71875 22.148438 29 24 29 C 25.851563 29 27.398438 27.71875 27.84375 26 L 31 26 L 31 16.59375 L 30.71875 16.28125 L 24.71875 10.28125 L 24.40625 10 L 19.21875 10 L 22.59375 8.28125 L 24 7.53125 L 22.71875 6.5625 L 18.59375 3.4375 Z M 18.1875 5.65625 L 20.21875 7.1875 L 17.09375 8.78125 Z M 17.03125 5.875 L 15.84375 9.4375 L 15.75 9.46875 L 12.09375 8.34375 Z M 10.78125 9 L 14.4375 10.125 L 9.15625 12.84375 L 10.28125 9.25 Z M 9.03125 9.875 L 7.90625 13.5 L 7.6875 13.59375 L 4 12.375 Z M 17 12 L 23.5625 12 L 29 17.4375 L 29 24 L 27.84375 24 C 27.398438 22.28125 25.851563 21 24 21 C 22.148438 21 20.601563 22.28125 20.15625 24 L 11.84375 24 C 11.398438 22.28125 9.851563 21 8 21 C 6.148438 21 4.601563 22.28125 4.15625 24 L 3 24 L 3 19 L 17 19 Z M 15 12.15625 L 15 17 L 5.46875 17 Z M 3.03125 13.09375 L 6.46875 14.21875 L 3 16 Z M 8 23 C 9.117188 23 10 23.882813 10 25 C 10 26.117188 9.117188 27 8 27 C 6.882813 27 6 26.117188 6 25 C 6 23.882813 6.882813 23 8 23 Z M 24 23 C 25.117188 23 26 23.882813 26 25 C 26 26.117188 25.117188 27 24 27 C 22.882813 27 22 26.117188 22 25 C 22 23.882813 22.882813 23 24 23 Z "></path>
</g>
</svg>
