<?xml version="1.0" encoding="UTF-8"?>
<svg xmlns="http://www.w3.org/2000/svg" xmlns:xlink="http://www.w3.org/1999/xlink" viewBox="0 0 32 32" version="1.1">
<g>
<path d="M 3 4 L 3 11 L 4 11 L 4 28 L 28 28 L 28 11 L 29 11 L 29 4 Z M 5 6 L 27 6 L 27 9 L 5 9 Z M 6 11 L 26 11 L 26 26 L 24 26 L 24 21 C 24 16.59375 20.40625 13 16 13 C 11.59375 13 8 16.59375 8 21 L 8 26 L 6 26 Z M 16 15 C 19.324219 15 22 17.675781 22 21 L 22 26 L 19.4375 26 C 19.785156 25.410156 20 24.730469 20 24 C 20 23.285156 19.746094 22.664063 19.4375 22.003906 C 19.128906 21.347656 18.734375 20.671875 18.34375 20.058594 C 17.566406 18.828125 16.792969 17.820313 16.792969 17.820313 L 16 16.785156 L 15.207031 17.820313 C 15.207031 17.820313 14.433594 18.828125 13.65625 20.058594 C 13.265625 20.671875 12.871094 21.347656 12.5625 22.003906 C 12.253906 22.664063 12 23.285156 12 24 C 12 24.730469 12.214844 25.410156 12.5625 26 L 10 26 L 10 21 C 10 17.675781 12.675781 15 16 15 Z M 16 20.183594 C 16.261719 20.550781 16.328125 20.613281 16.65625 21.128906 C 17.015625 21.699219 17.371094 22.316406 17.625 22.855469 C 17.878906 23.394531 18 23.886719 18 24 C 18 24.75 17.59375 25.390625 16.988281 25.734375 C 17.164063 25.511719 17.285156 25.246094 17.285156 24.941406 C 17.285156 24.234375 16 22.714844 16 22.714844 C 16 22.714844 14.714844 24.234375 14.714844 24.941406 C 14.714844 25.246094 14.835938 25.511719 15.011719 25.734375 C 14.40625 25.390625 14 24.753906 14 24 C 14 23.886719 14.121094 23.394531 14.375 22.855469 C 14.628906 22.316406 14.984375 21.699219 15.34375 21.125 C 15.671875 20.613281 15.738281 20.550781 16 20.183594 Z "></path>
</g>
</svg>
