<?xml version="1.0" encoding="UTF-8"?>
<svg xmlns="http://www.w3.org/2000/svg" xmlns:xlink="http://www.w3.org/1999/xlink" viewBox="0 0 32 32" version="1.1">
<g>
<path d="M 3 4 L 3 28 L 12 28 L 12 27.0625 C 12.238281 27.1875 12.328125 27.292969 12.90625 27.46875 C 13.816406 27.746094 15.175781 28 17 28 L 29 28 L 29 23 C 29 19.820313 27.953125 17.644531 26.21875 16.4375 C 24.484375 15.230469 22.289063 15 20 15 C 18.285156 15 17.742188 14.316406 17.375 13.5625 C 17.007813 12.808594 17 12.03125 17 12.03125 L 17 4 Z M 5 6 L 15 6 L 15 8 L 5 8 Z M 5 10 L 15 10 L 15 12 C 15 12.015625 15.003906 12.480469 15.125 13.09375 C 14.824219 13.144531 14.484375 13.207031 14.125 13.34375 C 13.644531 13.527344 13.144531 13.820313 12.71875 14.3125 C 12.292969 14.804688 12 15.519531 12 16.3125 C 12 16.964844 12.226563 17.519531 12.53125 18 L 5 18 Z M 15.90625 15 C 16.640625 16.050781 17.984375 17 20 17 C 22.128906 17 23.933594 17.289063 25.09375 18.09375 C 26.070313 18.773438 26.652344 20.019531 26.84375 22 L 5 22 L 5 20 L 17 20 L 17 18 C 17 18 16.121094 17.992188 15.3125 17.71875 C 14.90625 17.582031 14.5625 17.375 14.34375 17.15625 C 14.125 16.9375 14 16.734375 14 16.3125 C 14 15.949219 14.082031 15.785156 14.21875 15.625 C 14.355469 15.464844 14.605469 15.324219 14.875 15.21875 C 15.347656 15.035156 15.789063 15.003906 15.90625 15 Z M 5 24 L 27 24 L 27 26 L 25 26 L 25 25 L 23 25 L 23 26 L 21 26 L 21 25 L 19 25 L 19 26 L 17 26 L 17 25 L 15 25 L 15 25.84375 C 14.378906 25.753906 13.878906 25.648438 13.5 25.53125 C 12.777344 25.308594 12.53125 25.15625 12.53125 25.15625 L 12.28125 25 L 10 25 L 10 26 L 8 26 L 8 25 L 6 25 L 6 26 L 5 26 Z "></path>
</g>
</svg>
