<?xml version="1.0" encoding="UTF-8"?>
<svg xmlns="http://www.w3.org/2000/svg" xmlns:xlink="http://www.w3.org/1999/xlink" viewBox="0 0 32 32" version="1.1">
<g>
<path d="M 15.59375 4 L 16.0625 5.34375 C 17.09375 8.277344 16.550781 10.152344 16 10.71875 C 15.722656 11.003906 15.515625 11.058594 15.1875 10.96875 C 14.859375 10.878906 14.371094 10.53125 13.875 9.71875 L 13.125 8.53125 L 12.25 9.59375 C 10.503906 11.65625 9.71875 14.007813 10.125 16 L 3 16 L 3 28 L 29 28 L 29 16 L 21.875 16 C 22.292969 13.96875 21.679688 11.671875 20.875 9.65625 C 20.371094 8.390625 19.765625 7.242188 19.21875 6.3125 C 18.671875 5.382813 18.265625 4.742188 17.84375 4.3125 L 17.53125 4 Z M 18.5625 9.5 C 18.710938 9.824219 18.894531 10.066406 19.03125 10.40625 C 19.835938 12.421875 20.234375 14.621094 19.84375 16 L 12.25 16 C 11.9375 14.976563 12.277344 13.542969 13.1875 12.03125 C 13.636719 12.445313 14.121094 12.757813 14.65625 12.90625 C 15.640625 13.175781 16.734375 12.847656 17.4375 12.125 C 18.0625 11.484375 18.410156 10.574219 18.5625 9.5 Z M 5 18 L 7 18 L 7 21 L 5 21 Z M 9 18 L 15 18 L 15 21 L 9 21 Z M 17 18 L 23 18 L 23 21 L 17 21 Z M 25 18 L 27 18 L 27 21 L 25 21 Z M 5 23 L 11 23 L 11 26 L 5 26 Z M 13 23 L 19 23 L 19 26 L 13 26 Z M 21 23 L 27 23 L 27 26 L 21 26 Z "></path>
</g>
</svg>
