<?xml version="1.0" encoding="UTF-8"?>
<svg xmlns="http://www.w3.org/2000/svg" xmlns:xlink="http://www.w3.org/1999/xlink" viewBox="0 0 32 32" version="1.1">
<g>
<path d="M 4 6 L 4 22 L 6 22 L 6 19 L 8 19 L 8 17 L 6 17 L 6 11 L 8 11 L 8 9 L 6 9 L 6 6 Z M 26 6 L 26 9 L 24 9 L 24 11 L 26 11 L 26 17 L 24 17 L 24 19 L 26 19 L 26 22 L 28 22 L 28 6 Z M 9.90625 7.96875 C 9.863281 7.976563 9.820313 7.988281 9.78125 8 C 9.316406 8.105469 8.988281 8.523438 9 9 L 9 19 C 9 19.03125 9 19.0625 9 19.09375 L 9 22 L 11 22 L 11 19.15625 C 11.003906 19.105469 11.003906 19.050781 11 19 L 11 9 C 11.011719 8.710938 10.894531 8.433594 10.6875 8.238281 C 10.476563 8.039063 10.191406 7.941406 9.90625 7.96875 Z M 12.90625 7.96875 C 12.863281 7.976563 12.820313 7.988281 12.78125 8 C 12.316406 8.105469 11.988281 8.523438 12 9 L 12 19 C 11.996094 19.359375 12.183594 19.695313 12.496094 19.878906 C 12.808594 20.058594 13.191406 20.058594 13.503906 19.878906 C 13.816406 19.695313 14.003906 19.359375 14 19 L 14 9 C 14.011719 8.710938 13.894531 8.433594 13.6875 8.238281 C 13.476563 8.039063 13.191406 7.941406 12.90625 7.96875 Z M 15.90625 7.96875 C 15.863281 7.976563 15.820313 7.988281 15.78125 8 C 15.316406 8.105469 14.988281 8.523438 15 9 L 15 19 C 14.996094 19.359375 15.183594 19.695313 15.496094 19.878906 C 15.808594 20.058594 16.191406 20.058594 16.503906 19.878906 C 16.816406 19.695313 17.003906 19.359375 17 19 L 17 9 C 17.011719 8.710938 16.894531 8.433594 16.6875 8.238281 C 16.476563 8.039063 16.191406 7.941406 15.90625 7.96875 Z M 18.90625 7.96875 C 18.863281 7.976563 18.820313 7.988281 18.78125 8 C 18.316406 8.105469 17.988281 8.523438 18 9 L 18 19 C 17.996094 19.359375 18.183594 19.695313 18.496094 19.878906 C 18.808594 20.058594 19.191406 20.058594 19.503906 19.878906 C 19.816406 19.695313 20.003906 19.359375 20 19 L 20 9 C 20.011719 8.710938 19.894531 8.433594 19.6875 8.238281 C 19.476563 8.039063 19.191406 7.941406 18.90625 7.96875 Z M 21.90625 7.96875 C 21.863281 7.976563 21.820313 7.988281 21.78125 8 C 21.316406 8.105469 20.988281 8.523438 21 9 L 21 19 C 20.996094 19.359375 21.183594 19.695313 21.496094 19.878906 C 21.808594 20.058594 22.191406 20.058594 22.503906 19.878906 C 22.816406 19.695313 23.003906 19.359375 23 19 L 23 9 C 23.011719 8.710938 22.894531 8.433594 22.6875 8.238281 C 22.476563 8.039063 22.191406 7.941406 21.90625 7.96875 Z M 8 23 L 8 25 L 9 25 L 9 28 L 11 28 L 11 25 L 12 25 L 12 23 Z "></path>
</g>
</svg>
