<?xml version="1.0" encoding="UTF-8"?>
<svg xmlns="http://www.w3.org/2000/svg" xmlns:xlink="http://www.w3.org/1999/xlink" viewBox="0 0 32 32" version="1.1">
<g>
<path d="M 24 4 L 23.59375 7.15625 L 22 6 L 23.75 11.71875 L 24.375 10.5625 L 25.90625 11.96875 L 25.5625 9.96875 L 29 11 L 26.53125 8.625 L 30 7 L 26.3125 7.53125 L 28 4 L 24.96875 7.0625 Z M 18.90625 5.03125 L 17 5.625 L 17.625 7.59375 L 8.125 10.5625 L 7.1875 10.875 L 7.46875 11.8125 C 7.527344 12.003906 7.53125 12.257813 7.4375 12.5625 C 6.675781 12.269531 5.539063 12 4 12 L 4 14 C 5 14 5.746094 14.125 6.28125 14.28125 C 6.265625 14.296875 6.265625 14.328125 6.25 14.34375 C 5.386719 15.285156 4.40625 15.96875 4.40625 15.96875 L 4 16.28125 L 4 18.71875 C 3.632813 19.167969 2 21.21875 2 24 C 2 26.132813 3.21875 27.625 3.21875 27.625 L 3.65625 28.15625 L 11.34375 25.59375 L 10.90625 24.59375 C 10.90625 24.59375 10.109375 22.644531 10 20.9375 C 9.960938 20.320313 10.125 20.296875 10.40625 20.15625 C 10.574219 20.074219 10.65625 20.082031 10.78125 20.0625 C 11.257813 20.429688 12.128906 21 13.5625 21 C 13.5625 21 14.929688 21.015625 16.1875 20.25 C 16.816406 19.867188 17.433594 19.238281 17.75 18.34375 C 18.066406 17.449219 18.078125 16.355469 17.6875 15.0625 L 16.71875 15.375 L 16.6875 15.15625 L 17.65625 14.875 L 17.40625 14 L 21.84375 12.5625 L 22.8125 12.25 L 22.5 11.3125 L 21.3125 7.5 L 21.03125 6.53125 L 20.0625 6.84375 L 19.53125 7 Z M 19.71875 9.0625 L 20.3125 10.96875 L 15.84375 12.40625 L 14.9375 12.71875 L 15.1875 13.65625 L 15.4375 14.5 C 15 14.652344 14.5 14.835938 13.90625 15.125 C 12.875 15.625 11.773438 16.449219 10.90625 17.53125 C 10.644531 17.234375 10.707031 17.121094 10.25 16.8125 C 9.589844 16.371094 8.625 16.089844 7.5 15.90625 C 7.613281 15.792969 7.605469 15.808594 7.71875 15.6875 C 8.234375 15.125 8.738281 14.492188 9.09375 13.75 C 9.308594 13.300781 9.40625 12.777344 9.4375 12.25 Z M 12.6875 12.0625 L 10.6875 12.71875 L 11.3125 14.625 L 13.3125 13.9375 Z M 15.8125 16.5 C 15.84375 16.921875 15.960938 17.449219 15.875 17.6875 C 15.730469 18.09375 15.492188 18.359375 15.15625 18.5625 C 14.484375 18.96875 13.5625 19 13.5625 19 C 13.117188 19 12.777344 18.859375 12.46875 18.71875 C 13.074219 17.984375 13.90625 17.332031 14.78125 16.90625 C 15.175781 16.714844 15.484375 16.621094 15.8125 16.5 Z M 6 17.8125 C 7.460938 17.789063 8.511719 18.058594 9.125 18.46875 C 9.222656 18.535156 9.171875 18.53125 9.25 18.59375 C 8.578125 19.042969 7.925781 19.878906 8 21.0625 C 8.085938 22.425781 8.433594 23.558594 8.71875 24.375 L 4.4375 25.8125 C 4.214844 25.390625 4 24.804688 4 24 C 4 21.933594 5.78125 19.625 5.78125 19.625 L 6 19.375 Z M 7 19 C 6.449219 19 6 19.449219 6 20 C 6 20.550781 6.449219 21 7 21 C 7.550781 21 8 20.550781 8 20 C 8 19.449219 7.550781 19 7 19 Z "></path>
</g>
</svg>
