<?xml version="1.0" encoding="UTF-8"?>
<svg xmlns="http://www.w3.org/2000/svg" xmlns:xlink="http://www.w3.org/1999/xlink" viewBox="0 0 32 32" version="1.1">
<g>
<path d="M 16 2 L 2 9.53125 L 2 11.84375 L 16 4.28125 L 30 11.8125 L 30 9.53125 Z M 16 6 L 2 13.53125 L 2 15.84375 L 16 8.28125 L 30 15.8125 L 30 13.53125 Z M 16 9.875 L 15.53125 10.125 L 2.53125 17.125 L 2 17.40625 L 2 18.65625 L 2.4375 18.96875 C 2.4375 18.96875 3.652344 19.75 5.90625 20.5 C 8.160156 21.25 11.519531 22 16 22 C 20.480469 22 23.839844 21.25 26.09375 20.5 C 28.347656 19.75 29.5625 18.96875 29.5625 18.96875 L 30 18.65625 L 30 17.40625 L 29.46875 17.125 L 16.46875 10.125 Z M 16 12.125 L 26.90625 18 C 26.417969 18.242188 26.464844 18.292969 25.46875 18.625 C 23.40625 19.3125 20.261719 20 16 20 C 11.738281 20 8.59375 19.3125 6.53125 18.625 C 5.535156 18.292969 5.582031 18.242188 5.09375 18 Z M 16 15 L 14 17 L 16 19 L 18 17 Z M 2 20.46875 L 2 22.65625 L 2.4375 22.96875 C 2.621094 23.09375 7.050781 26 16 26 C 24.949219 26 29.378906 23.09375 29.5625 22.96875 L 30 22.65625 L 30 20.5 L 28.4375 21.28125 C 28.398438 21.308594 24.277344 24 16 24 C 7.722656 24 3.601563 21.335938 3.5625 21.3125 Z M 2 24.46875 L 2 26.65625 L 2.4375 26.96875 C 2.621094 27.09375 7.050781 30 16 30 C 24.949219 30 29.378906 27.09375 29.5625 26.96875 L 30 26.65625 L 30 24.5 L 28.4375 25.28125 C 28.398438 25.308594 24.277344 28 16 28 C 7.722656 28 3.601563 25.335938 3.5625 25.3125 Z "></path>
</g>
</svg>
