<?xml version="1.0" encoding="UTF-8"?>
<svg xmlns="http://www.w3.org/2000/svg" xmlns:xlink="http://www.w3.org/1999/xlink" viewBox="0 0 32 32" version="1.1">
<g>
<path d="M 20 4 C 18.355469 4 17 5.355469 17 7 C 17 8.292969 17.84375 9.394531 19 9.8125 L 19 21.0625 C 19 23.804688 16.804688 26 14.0625 26 L 13.9375 26 C 11.195313 26 9 23.804688 9 21.0625 C 9 19.765625 9.496094 18.519531 10.40625 17.59375 L 12 19.1875 L 12 13.1875 L 9 16.1875 C 7.714844 17.488281 7 19.234375 7 21.0625 C 7 24.886719 10.113281 28 13.9375 28 L 14.0625 28 C 17.886719 28 21 24.886719 21 21.0625 L 21 9.8125 C 22.15625 9.394531 23 8.292969 23 7 C 23 5.355469 21.644531 4 20 4 Z M 20 6 C 20.5625 6 21 6.4375 21 7 C 21 7.5625 20.5625 8 20 8 C 19.4375 8 19 7.5625 19 7 C 19 6.4375 19.4375 6 20 6 Z "></path>
</g>
</svg>
