<?xml version="1.0" encoding="UTF-8"?>
<svg xmlns="http://www.w3.org/2000/svg" xmlns:xlink="http://www.w3.org/1999/xlink" viewBox="0 0 32 32" version="1.1">
<g>
<path d="M 16.5 3 C 14.578125 3 13 4.578125 13 6.5 C 13 7.378906 13.296875 8.277344 13.972656 8.921875 C 14.363281 9.289063 14.9375 9.6875 15.703125 10.21875 C 16.472656 10.75 17.398438 11.363281 18.3125 11.972656 C 19.230469 12.582031 20.144531 13.1875 20.878906 13.6875 C 21.613281 14.1875 22.21875 14.636719 22.324219 14.734375 C 22.753906 15.132813 23 15.394531 23 16.199219 C 23 16.851563 22.792969 17.234375 22.464844 17.519531 C 22.132813 17.808594 21.628906 18 21 18 L 20.890625 18 C 20.378906 15.597656 18.058594 13 14 13 C 9.363281 13 7 16.382813 7 19 L 7 20 L 12.234375 20 L 9.234375 25 L 16 25 L 16 29 L 18 29 L 18 25 L 20 25 L 20 23 L 18 23 L 18 20 L 21 20 C 22.03125 20 23.023438 19.6875 23.78125 19.027344 C 24.535156 18.367188 25 17.347656 25 16.199219 C 25 14.8125 24.292969 13.832031 23.675781 13.265625 C 23.304688 12.921875 22.757813 12.550781 22.003906 12.035156 C 21.253906 11.519531 20.335938 10.914063 19.421875 10.308594 C 18.503906 9.699219 17.585938 9.089844 16.84375 8.574219 C 16.097656 8.058594 15.484375 7.597656 15.347656 7.46875 C 15.148438 7.277344 15 6.925781 15 6.5 C 15 5.796875 15.464844 5.222656 16.109375 5.054688 C 16.335938 5.625 16.886719 6 17.5 6 C 17.640625 6 17.78125 5.980469 17.917969 5.9375 L 20.707031 8 C 21.097656 7.613281 21.097656 6.984375 20.707031 6.59375 L 18.972656 4.773438 C 18.992188 4.683594 19 4.589844 19 4.5 C 19 3.671875 18.328125 3 17.5 3 Z M 14 15 C 16.914063 15 18.3125 16.628906 18.78125 18 L 9.21875 18 C 9.6875 16.628906 11.085938 15 14 15 Z M 14.566406 20 L 16 20 L 16 23 L 12.765625 23 Z "></path>
</g>
</svg>
