<?xml version="1.0" encoding="UTF-8"?>
<svg xmlns="http://www.w3.org/2000/svg" xmlns:xlink="http://www.w3.org/1999/xlink" viewBox="0 0 32 32" version="1.1">
<g>
<path d="M 16 5 C 9.382813 5 4 10.382813 4 17 C 4 19.585938 4.683594 21.265625 5.34375 22.375 C 5.671875 22.929688 5.96875 23.324219 6.15625 23.625 C 6.304688 23.863281 6.328125 23.96875 6.34375 24.0625 C 6.3125 24.109375 6.296875 24.121094 6.25 24.1875 C 6.160156 24.324219 6.042969 24.515625 5.96875 24.8125 C 5.894531 25.109375 5.917969 25.570313 6.15625 25.90625 C 6.628906 26.574219 7.238281 26.679688 8.125 26.8125 C 9.011719 26.945313 10.296875 27 12.1875 27 L 19.8125 27 C 21.703125 27 22.988281 26.945313 23.875 26.8125 C 24.761719 26.679688 25.371094 26.574219 25.84375 25.90625 C 26.082031 25.570313 26.105469 25.109375 26.03125 24.8125 C 25.957031 24.515625 25.839844 24.324219 25.75 24.1875 C 25.703125 24.121094 25.6875 24.109375 25.65625 24.0625 C 25.671875 23.96875 25.695313 23.863281 25.84375 23.625 C 26.03125 23.324219 26.328125 22.929688 26.65625 22.375 C 27.316406 21.265625 28 19.585938 28 17 C 28 10.382813 22.617188 5 16 5 Z M 16 7 C 21.535156 7 26 11.464844 26 17 C 26 19.257813 25.472656 20.445313 24.9375 21.34375 C 24.671875 21.792969 24.386719 22.167969 24.125 22.59375 C 23.863281 23.019531 23.625 23.550781 23.625 24.1875 C 23.625 24.503906 23.730469 24.632813 23.8125 24.78125 C 23.699219 24.824219 23.847656 24.769531 23.5625 24.8125 C 22.855469 24.917969 21.652344 25 19.8125 25 L 12.1875 25 C 10.347656 25 9.144531 24.917969 8.4375 24.8125 C 8.152344 24.769531 8.300781 24.824219 8.1875 24.78125 C 8.269531 24.632813 8.375 24.503906 8.375 24.1875 C 8.375 23.550781 8.136719 23.019531 7.875 22.59375 C 7.613281 22.167969 7.328125 21.792969 7.0625 21.34375 C 6.527344 20.445313 6 19.257813 6 17 C 6 11.464844 10.464844 7 16 7 Z M 16 25 C 20.40625 25 24 21.40625 24 17 C 24 12.59375 20.40625 9 16 9 C 11.59375 9 8 12.59375 8 17 C 8 21.40625 11.59375 25 16 25 Z M 16 11 C 19.324219 11 22 13.675781 22 17 C 22 20.324219 19.324219 23 16 23 C 12.675781 23 10 20.324219 10 17 C 10 13.675781 12.675781 11 16 11 Z M 16 12 C 15.808594 12 15.621094 12.011719 15.4375 12.03125 L 15.21875 14.125 C 14.710938 14.261719 14.238281 14.515625 13.875 14.875 L 11.96875 14.03125 C 11.746094 14.332031 11.558594 14.652344 11.40625 15 L 13.09375 16.25 C 13.03125 16.496094 13 16.734375 13 17 C 13 17.265625 13.03125 17.503906 13.09375 17.75 L 11.40625 19 C 11.558594 19.347656 11.746094 19.667969 11.96875 19.96875 L 13.875 19.125 C 14.238281 19.484375 14.710938 19.738281 15.21875 19.875 L 15.4375 21.96875 C 15.621094 21.988281 15.808594 22 16 22 C 16.191406 22 16.378906 21.988281 16.5625 21.96875 L 16.78125 19.875 C 17.289063 19.738281 17.761719 19.484375 18.125 19.125 L 20.03125 19.96875 C 20.253906 19.667969 20.441406 19.347656 20.59375 19 L 18.90625 17.75 C 18.96875 17.503906 19 17.265625 19 17 C 19 16.734375 18.96875 16.496094 18.90625 16.25 L 20.59375 15 C 20.441406 14.652344 20.253906 14.332031 20.03125 14.03125 L 18.125 14.875 C 17.761719 14.515625 17.289063 14.261719 16.78125 14.125 L 16.5625 12.03125 C 16.378906 12.011719 16.191406 12 16 12 Z M 16 15.5 C 16.828125 15.5 17.5 16.171875 17.5 17 C 17.5 17.828125 16.828125 18.5 16 18.5 C 15.171875 18.5 14.5 17.828125 14.5 17 C 14.5 16.171875 15.171875 15.5 16 15.5 Z "></path>
</g>
</svg>
