<?xml version="1.0" encoding="UTF-8"?>
<svg xmlns="http://www.w3.org/2000/svg" xmlns:xlink="http://www.w3.org/1999/xlink" viewBox="0 0 32 32" version="1.1">
<g>
<path d="M 24 4 C 21.800781 4 20 5.800781 20 8 L 20 8.832031 C 19.980469 8.941406 19.980469 9.050781 20 9.15625 L 20 11 C 20 13.199219 21.800781 15 24 15 C 26.199219 15 28 13.199219 28 11 L 28 9.167969 C 28.019531 9.058594 28.019531 8.949219 28 8.84375 L 28 8 C 28 5.800781 26.199219 4 24 4 Z M 6.253906 4.015625 C 6.089844 4.03125 5.925781 4.0625 5.761719 4.113281 L 5.757813 4.113281 C 4.453125 4.519531 3.707031 5.933594 4.109375 7.242188 C 4.113281 7.242188 4.113281 7.242188 4.113281 7.242188 C 4.078125 7.136719 4.152344 7.382813 4.21875 7.636719 C 4.285156 7.890625 4.382813 8.246094 4.5 8.679688 C 4.730469 9.550781 5.050781 10.742188 5.414063 12.0625 C 6.136719 14.710938 7.023438 17.898438 7.734375 20.1875 C 8.152344 21.539063 9.25 22.53125 10.578125 22.863281 L 9.621094 25.253906 C 9.109375 26.539063 10.097656 28 11.476563 28 L 18.523438 28 C 19.90625 28 20.894531 26.539063 20.378906 25.253906 L 19.476563 23 L 19.5 23 C 20.867188 23 22 21.867188 22 20.5 C 22 19.132813 20.867188 18 19.5 18 L 12.289063 18 C 12.105469 17.40625 11.902344 16.679688 11.703125 16 L 18 16 C 18 14.894531 17.105469 14 16 14 L 11.125 14 C 10.773438 12.757813 10.421875 11.492188 10.113281 10.34375 C 9.78125 9.109375 9.488281 8.011719 9.273438 7.199219 C 9.164063 6.792969 9.074219 6.460938 9.011719 6.21875 C 8.949219 5.980469 8.929688 5.902344 8.886719 5.761719 L 8.886719 5.757813 C 8.53125 4.617188 7.40625 3.902344 6.253906 4.015625 Z M 6.554688 6 C 6.746094 6.015625 6.914063 6.144531 6.976563 6.351563 C 6.976563 6.355469 6.976563 6.355469 6.976563 6.355469 C 6.953125 6.277344 7.015625 6.496094 7.078125 6.734375 C 7.140625 6.972656 7.230469 7.304688 7.335938 7.710938 C 7.554688 8.523438 7.847656 9.628906 8.179688 10.867188 C 8.851563 13.34375 9.683594 16.34375 10.382813 18.609375 C 10.382813 18.609375 10.382813 18.609375 10.386719 18.609375 C 10.640625 19.433594 11.417969 20 12.277344 20 L 19.5 20 C 19.785156 20 20 20.214844 20 20.5 C 20 20.785156 19.785156 21 19.5 21 L 11.550781 21 C 10.671875 21 9.902344 20.4375 9.640625 19.597656 L 9.640625 19.59375 C 8.949219 17.355469 8.0625 14.175781 7.34375 11.539063 C 6.980469 10.21875 6.664063 9.035156 6.429688 8.164063 C 6.3125 7.730469 6.21875 7.375 6.148438 7.117188 C 6.082031 6.867188 6.074219 6.808594 6.023438 6.648438 C 5.9375 6.375 6.078125 6.105469 6.351563 6.023438 C 6.421875 6.003906 6.488281 5.996094 6.554688 6 Z M 24 6 C 25.117188 6 26 6.882813 26 8 L 22 8 C 22 6.882813 22.882813 6 24 6 Z M 22 10 L 26 10 L 26 11 C 26 12.117188 25.117188 13 24 13 C 22.882813 13 22 12.117188 22 11 Z M 12.675781 23 L 17.324219 23 L 18.523438 26 L 11.476563 26 Z "></path>
</g>
</svg>
