<?xml version="1.0" encoding="UTF-8"?>
<svg xmlns="http://www.w3.org/2000/svg" xmlns:xlink="http://www.w3.org/1999/xlink" viewBox="0 0 32 32" version="1.1">
<g>
<path d="M 8 4 L 8 6 C 8 12.5625 5.03125 15.78125 3 17 L 20 17 C 22.25 16.15625 24 13.71875 24 6 L 24 4 Z M 10 6 L 22 6 C 22 13.121094 20.433594 14.578125 19.597656 15 L 7.679688 15 C 8.9375 12.992188 10 10.085938 10 6 Z M 24 15.671875 C 23.480469 17.0625 22.792969 17.929688 22 18.476563 L 22 21 L 10 21 L 10 19 L 8 19 L 8 21 L 6 21 L 6 23 L 13.777344 23 L 11 26.824219 L 12.617188 28 L 16 23.34375 L 19.382813 28 L 21 26.824219 L 18.21875 23 L 26 23 L 26 21 L 24 21 Z "></path>
</g>
</svg>
