<?xml version="1.0" encoding="UTF-8"?>
<svg xmlns="http://www.w3.org/2000/svg" xmlns:xlink="http://www.w3.org/1999/xlink" viewBox="0 0 32 32" version="1.1">
<g>
<path d="M 11.5 4 C 9.578125 4 8 5.578125 8 7.5 L 8 8.78125 L 2.0625 23.625 L 1.65625 24.65625 L 2.71875 24.96875 C 2.71875 24.96875 5.269531 25.808594 6.125 27.46875 L 6.59375 28.40625 L 7.53125 27.84375 C 8.007813 27.550781 9.019531 27.289063 9.875 27.15625 C 10.714844 27.027344 11.347656 27 11.375 27 L 11.625 27 C 11.652344 27 12.285156 27.027344 13.125 27.15625 C 13.980469 27.289063 14.988281 27.550781 15.46875 27.84375 L 16.40625 28.40625 L 16.875 27.46875 C 17.730469 25.808594 20.28125 24.96875 20.28125 24.96875 L 21.34375 24.65625 L 20.9375 23.625 L 15 8.78125 L 15 7.5 C 15 5.578125 13.421875 4 11.5 4 Z M 20.5 4 C 18.578125 4 17 5.578125 17 7.5 L 17 10 C 17 10.960938 17.3125 12.027344 17.84375 13 C 18.109375 13.484375 18.457031 13.9375 18.875 14.3125 C 19.292969 14.6875 19.839844 15 20.5 15 C 21.160156 15 21.707031 14.6875 22.125 14.3125 C 22.542969 13.9375 22.890625 13.484375 23.15625 13 C 23.226563 12.867188 23.28125 12.730469 23.34375 12.59375 L 27.6875 23.4375 C 27.0625 23.714844 26.269531 24.171875 25.53125 24.8125 L 23.96875 17.78125 L 22.03125 18.21875 L 23.625 25.4375 C 23.359375 25.378906 23.101563 25.332031 22.8125 25.28125 C 22.8125 25.28125 21.679688 25.472656 20.5625 25.90625 C 19.445313 26.339844 19.011719 26.535156 18.28125 27.28125 C 19.132813 27.109375 19.976563 27.019531 20.375 27 L 20.59375 27 C 21.339844 27.03125 23.476563 27.238281 24.46875 27.84375 L 25.40625 28.40625 L 25.875 27.46875 C 26.78125 25.703125 29.257813 24.976563 29.28125 24.96875 L 30.34375 24.65625 L 24 8.78125 L 24 7.5 C 24 5.578125 22.421875 4 20.5 4 Z M 11.5 6 C 12.328125 6 13 6.671875 13 7.5 L 13 10 C 13 10.414063 12.75 11.347656 12.375 12.03125 C 12.1875 12.375 11.992188 12.652344 11.8125 12.8125 C 11.632813 12.972656 11.527344 13 11.5 13 C 11.472656 13 11.367188 12.972656 11.1875 12.8125 C 11.007813 12.652344 10.8125 12.375 10.625 12.03125 C 10.25 11.347656 10 10.414063 10 10 L 10 7.5 C 10 6.671875 10.671875 6 11.5 6 Z M 20.5 6 C 21.328125 6 22 6.671875 22 7.5 L 22 10 C 22 10.414063 21.75 11.347656 21.375 12.03125 C 21.1875 12.375 20.992188 12.652344 20.8125 12.8125 C 20.632813 12.972656 20.527344 13 20.5 13 C 20.472656 13 20.367188 12.972656 20.1875 12.8125 C 20.007813 12.652344 19.8125 12.375 19.625 12.03125 C 19.25 11.347656 19 10.414063 19 10 L 19 7.5 C 19 6.671875 19.671875 6 20.5 6 Z M 8.65625 12.59375 C 8.71875 12.730469 8.773438 12.867188 8.84375 13 C 9.109375 13.484375 9.457031 13.9375 9.875 14.3125 C 10.292969 14.6875 10.839844 15 11.5 15 C 12.160156 15 12.707031 14.6875 13.125 14.3125 C 13.542969 13.9375 13.890625 13.484375 14.15625 13 C 14.226563 12.867188 14.28125 12.730469 14.34375 12.59375 L 18.6875 23.46875 C 18.054688 23.710938 17.292969 24.117188 16.53125 24.84375 L 14.96875 17.78125 L 13.03125 18.21875 L 14.65625 25.53125 C 14.234375 25.382813 13.828125 25.246094 13.4375 25.1875 C 12.464844 25.039063 11.65625 25 11.65625 25 L 11.34375 25 C 11.34375 25 10.535156 25.039063 9.5625 25.1875 C 9.171875 25.246094 8.765625 25.382813 8.34375 25.53125 L 9.96875 18.21875 L 8.03125 17.78125 L 6.46875 24.84375 C 5.707031 24.117188 4.945313 23.710938 4.3125 23.46875 Z "></path>
</g>
</svg>
