<?xml version="1.0" encoding="UTF-8"?>
<svg xmlns="http://www.w3.org/2000/svg" xmlns:xlink="http://www.w3.org/1999/xlink" viewBox="0 0 32 32" version="1.1">
<g>
<path d="M 16 3 C 13.800781 3 12 4.800781 12 7 C 12 9.199219 13.800781 11 16 11 C 18.199219 11 20 9.199219 20 7 C 20 4.800781 18.199219 3 16 3 Z M 16 11 L 14.625 11 C 12.628906 11 10.820313 12.195313 10.03125 14.03125 L 8.28125 18.125 L 3.8125 19.03125 L 4.1875 20.96875 L 9.1875 19.96875 L 9.71875 19.875 L 9.90625 19.40625 L 11.875 14.8125 C 12.347656 13.707031 13.421875 13 14.625 13 L 17.375 13 C 18.578125 13 19.652344 13.707031 20.125 14.8125 L 22.09375 19.40625 L 22.28125 19.875 L 22.8125 19.96875 L 27.8125 20.96875 L 28.1875 19.03125 L 23.71875 18.125 L 21.96875 14.03125 C 21.183594 12.195313 19.375 11 17.375 11 Z M 16 5 C 17.117188 5 18 5.882813 18 7 C 18 8.117188 17.117188 9 16 9 C 14.882813 9 14 8.117188 14 7 C 14 5.882813 14.882813 5 16 5 Z M 13 15.65625 L 11.03125 20.25 L 7.21875 21.3125 C 6.472656 21.527344 5.980469 22.191406 6 22.96875 C 6.019531 23.742188 6.558594 24.382813 7.3125 24.5625 L 9.4375 25.0625 L 13.8125 24.0625 L 8.96875 22.90625 L 13 21.75 Z M 19 15.65625 L 19 21.75 L 19.71875 21.96875 L 23.03125 22.90625 L 9.78125 26.03125 L 10.21875 27.96875 L 24.6875 24.5625 C 25.457031 24.382813 25.984375 23.648438 26 22.96875 C 26.015625 22.289063 25.542969 21.53125 24.78125 21.3125 L 20.96875 20.21875 Z M 22.1875 26.1875 L 18.1875 27.125 L 21.78125 27.96875 Z M 6 30 L 6 32 L 26 32 L 26 30 Z "></path>
</g>
</svg>
