<?xml version="1.0"?>
<svg xmlns="http://www.w3.org/2000/svg" viewBox="0 0 32 32">
    <path d="M 15 4 C 11.698136 4 9 6.6981361 9 10 C 9 13.301864 11.698136 16 15 16 C 18.301864 16 21 13.301864 21 10 C 21 6.6981361 18.301864 4 15 4 z M 14.808594 6.0195312 A 1 1 0 0 0 14 7 A 1 1 0 0 0 15 8 A 1 1 0 0 0 16 7 A 1 1 0 0 0 15.201172 6.0195312 C 17.325216 6.1254693 19 7.8480737 19 10 C 19 12.155247 17.320128 13.879411 15.191406 13.980469 A 1 1 0 0 0 16 13 A 1 1 0 0 0 15 12 A 1 1 0 0 0 14 13 A 1 1 0 0 0 14.798828 13.980469 C 12.674784 13.874531 11 12.151927 11 10 C 11 7.8447533 12.679872 6.1205886 14.808594 6.0195312 z M 29.279297 6.4667969 L 24.367188 14.273438 C 22.609953 16.830908 21.006276 17.309295 19.814453 17.53125 C 18.225262 17.829781 16.173361 18.085999 13.945312 18 C 11.607238 17.909516 9.7959297 17.437715 8.3691406 16.976562 C 6.9423515 16.51541 6.0052351 16 4.8828125 16 C 4.1588101 16 3.5123843 16.322238 3.0273438 16.751953 C 2.542303 17.181668 2.1802929 17.720511 1.8886719 18.302734 C 1.3054297 19.467181 1 20.812667 1 22 C 1 23.084222 1.5616806 24.046139 2.3554688 24.78125 C 3.1492567 25.516361 4.1905454 26.08818 5.3984375 26.556641 C 7.8142217 27.493562 10.913906 28 14.033203 28 C 15.256703 28 16.359635 28.0077 17.410156 27.820312 C 18.460678 27.632928 19.47673 27.214562 20.308594 26.404297 L 20.308594 26.402344 C 21.280066 25.455431 21.931945 23.973294 22.570312 22.392578 C 22.736662 21.980668 22.877889 21.579399 23.03125 21.167969 L 23.042969 21.171875 C 23.65257 19.356718 25.095703 16.873047 25.095703 16.873047 L 30.970703 7.5332031 L 29.279297 6.4667969 z M 13 9 A 1 1 0 0 0 12 10 A 1 1 0 0 0 13 11 A 1 1 0 0 0 14 10 A 1 1 0 0 0 13 9 z M 17 9 A 1 1 0 0 0 16 10 A 1 1 0 0 0 17 11 A 1 1 0 0 0 18 10 A 1 1 0 0 0 17 9 z M 4.8828125 18 C 5.0629577 18 5.881335 18.269099 6.9140625 18.607422 L 6.1054688 20.388672 C 5.0499557 19.918052 4.2185119 19.403467 3.7558594 19.064453 C 3.947495 18.714325 4.1593503 18.420065 4.3535156 18.248047 C 4.5739438 18.052762 4.7273149 18 4.8828125 18 z M 21.623047 19.164062 C 21.365101 19.891826 21.120698 20.583315 20.833984 21.320312 C 20.56715 21.419497 19.623829 21.691275 17.583984 21.859375 L 18.570312 19.769531 C 19.078418 19.698022 19.559856 19.618182 19.998047 19.53125 L 20 19.539062 C 20.057093 19.529044 20.125316 19.511821 20.185547 19.5 L 20.1875 19.5 C 20.359311 19.466243 20.539727 19.423008 20.734375 19.371094 C 21.038355 19.301505 21.360134 19.232155 21.623047 19.164062 z M 8.8378906 19.205078 C 9.5826781 19.412299 10.433952 19.595029 11.369141 19.742188 L 10.458984 21.675781 C 9.5720082 21.518958 8.7442816 21.319143 7.9863281 21.083984 L 8.8378906 19.205078 z M 13.472656 19.96875 C 13.608873 19.976599 13.729732 19.994602 13.869141 20 C 14.730812 20.033259 15.511752 20.015165 16.257812 19.978516 L 15.314453 21.980469 C 14.889613 21.990431 14.456544 22 13.96875 22 C 13.482012 22 13.008831 21.976674 12.542969 21.943359 L 13.472656 19.96875 z M 3.09375 21.083984 C 3.6757978 21.465538 4.4266358 21.837707 5.2832031 22.207031 L 4.515625 23.900391 C 4.2045036 23.706849 3.9260414 23.509895 3.7128906 23.3125 C 3.1906476 22.828861 3 22.415778 3 22 C 3 21.726556 3.0391531 21.409661 3.09375 21.083984 z M 7.1582031 22.914062 C 7.9096502 23.157308 8.7024703 23.383391 9.5722656 23.558594 L 8.6953125 25.421875 C 7.8434741 25.236995 7.0308715 25.02566 6.3222656 24.763672 L 7.1582031 22.914062 z M 19.771484 23.671875 C 19.447019 24.275368 19.142196 24.746434 18.912109 24.970703 C 18.39636 25.472551 17.847644 25.710819 17.058594 25.851562 C 16.648085 25.924786 16.171733 25.959667 15.642578 25.978516 L 16.601562 23.945312 C 17.94809 23.889295 18.994647 23.794712 19.771484 23.671875 z M 11.632812 23.875 C 12.383501 23.954493 13.162456 24 13.96875 24 C 14.11413 24 14.22716 23.994863 14.367188 23.994141 L 13.433594 25.974609 C 12.519345 25.95329 11.620427 25.883276 10.740234 25.771484 L 11.632812 23.875 z"></path>
</svg>
