<?xml version="1.0" encoding="UTF-8"?>
<svg xmlns="http://www.w3.org/2000/svg" xmlns:xlink="http://www.w3.org/1999/xlink" viewBox="0 0 32 32" version="1.1">
<g>
<path d="M 9 5 L 9 16.84375 C 8.785156 16.769531 8.585938 16.667969 8.4375 16.5625 C 8.078125 16.3125 8 16.042969 8 16 L 6 16 C 6 16.058594 5.917969 16.316406 5.5625 16.5625 C 5.207031 16.808594 4.636719 17 4 17 L 4 19 C 5.035156 19 5.960938 18.691406 6.6875 18.1875 C 6.800781 18.109375 6.894531 18.027344 7 17.9375 C 7.101563 18.023438 7.203125 18.113281 7.3125 18.1875 C 7.792969 18.523438 8.371094 18.746094 9 18.875 L 9 20.84375 C 8.785156 20.769531 8.585938 20.667969 8.4375 20.5625 C 8.078125 20.3125 8 20.042969 8 20 L 6 20 C 6 20.058594 5.917969 20.316406 5.5625 20.5625 C 5.207031 20.808594 4.636719 21 4 21 L 4 23 C 5.035156 23 5.960938 22.691406 6.6875 22.1875 C 6.800781 22.109375 6.894531 22.027344 7 21.9375 C 7.101563 22.023438 7.203125 22.113281 7.3125 22.1875 C 7.792969 22.523438 8.371094 22.746094 9 22.875 L 9 24.84375 C 8.785156 24.769531 8.585938 24.667969 8.4375 24.5625 C 8.078125 24.3125 8 24.042969 8 24 L 6 24 C 6 24.058594 5.917969 24.316406 5.5625 24.5625 C 5.207031 24.808594 4.636719 25 4 25 L 4 27 C 5.035156 27 5.960938 26.691406 6.6875 26.1875 C 6.800781 26.109375 6.894531 26.027344 7 25.9375 C 7.101563 26.023438 7.203125 26.113281 7.3125 26.1875 C 8.035156 26.691406 8.960938 27 10 27 C 11.035156 27 11.960938 26.691406 12.6875 26.1875 C 12.800781 26.109375 12.894531 26.027344 13 25.9375 C 13.101563 26.023438 13.203125 26.113281 13.3125 26.1875 C 14.035156 26.691406 14.960938 27 16 27 C 17.035156 27 17.960938 26.691406 18.6875 26.1875 C 18.800781 26.109375 18.894531 26.027344 19 25.9375 C 19.101563 26.023438 19.203125 26.113281 19.3125 26.1875 C 20.035156 26.691406 20.960938 27 22 27 C 23.035156 27 23.960938 26.691406 24.6875 26.1875 C 24.800781 26.109375 24.894531 26.027344 25 25.9375 C 25.101563 26.023438 25.203125 26.113281 25.3125 26.1875 C 26.035156 26.691406 26.960938 27 28 27 L 28 25 C 27.367188 25 26.796875 24.8125 26.4375 24.5625 C 26.078125 24.3125 26 24.042969 26 24 L 24 24 C 24 24.058594 23.917969 24.316406 23.5625 24.5625 C 23.414063 24.664063 23.214844 24.769531 23 24.84375 L 23 22.875 C 23.628906 22.746094 24.207031 22.519531 24.6875 22.1875 C 24.800781 22.109375 24.894531 22.027344 25 21.9375 C 25.101563 22.023438 25.203125 22.113281 25.3125 22.1875 C 26.035156 22.691406 26.960938 23 28 23 L 28 21 C 27.367188 21 26.796875 20.8125 26.4375 20.5625 C 26.078125 20.3125 26 20.042969 26 20 L 24 20 C 24 20.058594 23.917969 20.316406 23.5625 20.5625 C 23.414063 20.664063 23.214844 20.769531 23 20.84375 L 23 18.875 C 23.628906 18.746094 24.207031 18.519531 24.6875 18.1875 C 24.800781 18.109375 24.894531 18.027344 25 17.9375 C 25.101563 18.023438 25.203125 18.113281 25.3125 18.1875 C 26.035156 18.691406 26.960938 19 28 19 L 28 17 C 27.367188 17 26.796875 16.8125 26.4375 16.5625 C 26.078125 16.3125 26 16.042969 26 16 L 24 16 C 24 16.058594 23.917969 16.316406 23.5625 16.5625 C 23.414063 16.664063 23.214844 16.769531 23 16.84375 L 23 5 Z M 11 7 L 21 7 L 21 24.84375 C 20.785156 24.769531 20.585938 24.667969 20.4375 24.5625 C 20.078125 24.3125 20 24.042969 20 24 L 18 24 C 18 24.058594 17.917969 24.316406 17.5625 24.5625 C 17.207031 24.808594 16.636719 25 16 25 C 15.367188 25 14.796875 24.8125 14.4375 24.5625 C 14.078125 24.3125 14 24.042969 14 24 L 12 24 C 12 24.058594 11.917969 24.316406 11.5625 24.5625 C 11.414063 24.664063 11.214844 24.769531 11 24.84375 Z M 13 9 L 13 11 L 15 11 L 15 9 Z M 17 9 L 17 11 L 19 11 L 19 9 Z M 13 13 L 13 15 L 15 15 L 15 13 Z M 17 13 L 17 15 L 19 15 L 19 13 Z M 13 17 L 13 19 L 15 19 L 15 17 Z M 17 17 L 17 19 L 19 19 L 19 17 Z M 13 21 L 13 23 L 15 23 L 15 21 Z M 17 21 L 17 23 L 19 23 L 19 21 Z "></path>
</g>
</svg>
