<?xml version="1.0" encoding="UTF-8"?>
<svg xmlns="http://www.w3.org/2000/svg" xmlns:xlink="http://www.w3.org/1999/xlink" viewBox="0 0 32 32" version="1.1">
<g>
<path d="M 15.84375 4 C 13.582031 4.03125 11.332031 5.296875 10.21875 7.6875 L 9.9375 8.25 L 9.34375 8.34375 C 4.191406 9.183594 2.203125 15.78125 5.96875 19.4375 L 6.40625 19.875 L 6.3125 20.5 C 5.511719 25.722656 11.054688 29.730469 15.625 27.1875 L 16.15625 26.90625 L 16.6875 27.1875 C 21.328125 29.601563 26.753906 25.445313 25.8125 20.25 L 25.71875 19.59375 L 26.15625 19.15625 C 29.820313 15.398438 27.640625 8.882813 22.46875 8.1875 L 22.46875 8.15625 L 21.875 8.09375 L 21.59375 7.53125 C 20.417969 5.171875 18.105469 3.96875 15.84375 4 Z M 15.875 6 C 17.425781 5.976563 18.972656 6.753906 19.8125 8.4375 L 20.3125 9.46875 L 20.5625 9.9375 L 21.09375 10 L 22.21875 10.15625 C 25.839844 10.640625 27.316406 15.085938 24.71875 17.75 L 23.90625 18.59375 L 23.5625 18.9375 L 23.65625 19.46875 L 23.84375 20.59375 C 24.519531 24.320313 20.890625 27.105469 17.625 25.40625 L 16.59375 24.875 L 16.125 24.625 L 15.65625 24.90625 L 14.65625 25.4375 C 11.4375 27.230469 7.738281 24.554688 8.3125 20.8125 L 8.46875 19.6875 L 8.5625 19.15625 L 8.1875 18.8125 L 7.375 18 C 4.707031 15.410156 6.078125 10.933594 9.6875 10.34375 L 10.78125 10.15625 L 11.3125 10.0625 L 11.53125 9.59375 L 12.03125 8.53125 C 12.824219 6.824219 14.324219 6.023438 15.875 6 Z M 16 12 C 15.449219 12 15 12.449219 15 13 C 15 13.550781 15.90625 16.96875 15.90625 16.96875 C 15.90625 16.96875 17 13.550781 17 13 C 17 12.449219 16.550781 12 16 12 Z M 15.90625 16.96875 C 15.90625 16.96875 19.574219 16.75 20.09375 16.5625 C 20.613281 16.375 20.875 15.800781 20.6875 15.28125 C 20.5 14.761719 19.925781 14.5 19.40625 14.6875 C 18.886719 14.875 15.90625 16.96875 15.90625 16.96875 Z M 15.90625 16.96875 C 15.90625 16.96875 17.539063 20.242188 17.90625 20.65625 C 18.273438 21.070313 18.898438 21.113281 19.3125 20.75 C 19.726563 20.382813 19.773438 19.757813 19.40625 19.34375 C 19.042969 18.929688 15.90625 16.96875 15.90625 16.96875 Z M 15.90625 16.96875 C 15.90625 16.96875 13.011719 19.015625 12.65625 19.4375 C 12.300781 19.863281 12.359375 20.488281 12.78125 20.84375 C 13.207031 21.199219 13.832031 21.140625 14.1875 20.71875 C 14.542969 20.292969 15.90625 16.96875 15.90625 16.96875 Z M 15.90625 16.96875 C 15.90625 16.96875 13.113281 14.878906 12.59375 14.6875 C 12.074219 14.496094 11.503906 14.761719 11.3125 15.28125 C 11.121094 15.800781 11.386719 16.371094 11.90625 16.5625 C 12.425781 16.753906 15.90625 16.96875 15.90625 16.96875 Z "></path>
</g>
</svg>
