<?xml version="1.0" encoding="UTF-8"?>
<svg xmlns="http://www.w3.org/2000/svg" xmlns:xlink="http://www.w3.org/1999/xlink" viewBox="0 0 32 32" version="1.1">
<g>
<path d="M 23.625 3.9375 L 7.21875 20.34375 L 7.1875 20.40625 L 4.6875 23.90625 L 4.1875 24.59375 L 4.78125 25.21875 L 6.78125 27.21875 L 7.40625 27.8125 L 8.09375 27.3125 L 11.59375 24.8125 L 11.65625 24.78125 L 28.0625 8.375 L 28 7.875 C 28 7.875 27.851563 6.414063 26.71875 5.28125 C 25.585938 4.148438 24.125 4 24.125 4 Z M 24.25 6.1875 C 24.519531 6.257813 24.855469 6.292969 25.28125 6.71875 C 25.707031 7.144531 25.742188 7.480469 25.8125 7.75 L 12.5 21.09375 L 10.9375 19.46875 Z M 22 9 C 21.449219 9 21 9.449219 21 10 C 21 10.550781 21.449219 11 22 11 C 22.550781 11 23 10.550781 23 10 C 23 9.449219 22.550781 9 22 9 Z M 19 12 C 18.449219 12 18 12.449219 18 13 C 18 13.550781 18.449219 14 19 14 C 19.550781 14 20 13.550781 20 13 C 20 12.449219 19.550781 12 19 12 Z M 16 15 C 15.449219 15 15 15.449219 15 16 C 15 16.550781 15.449219 17 16 17 C 16.550781 17 17 16.550781 17 16 C 17 15.449219 16.550781 15 16 15 Z M 9.5 20.90625 L 11.0625 22.53125 L 10.40625 23.1875 L 10.28125 23.28125 L 7.625 25.1875 L 6.8125 24.375 L 8.71875 21.71875 L 8.75 21.6875 L 8.8125 21.59375 Z M 9.40625 21.90625 L 7.90625 23.40625 L 8.59375 24.09375 L 10.09375 22.59375 Z "></path>
</g>
</svg>
