<?xml version="1.0" encoding="UTF-8"?>
<svg xmlns="http://www.w3.org/2000/svg" xmlns:xlink="http://www.w3.org/1999/xlink" viewBox="0 0 32 32" version="1.1">
<g>
<path d="M 11.5625 2.40625 L 10.96875 3.53125 C 10.96875 3.53125 10.28125 4.84375 10.28125 6.84375 C 10.28125 8.058594 10.839844 9.140625 11.53125 10.09375 C 12.222656 11.046875 13.082031 11.921875 13.90625 12.84375 C 14.089844 13.050781 14.261719 13.261719 14.4375 13.46875 C 14.761719 14.234375 14.84375 14.792969 14.8125 15.15625 C 14.777344 15.550781 14.667969 15.773438 14.375 16.03125 C 13.792969 16.546875 12.40625 16.992188 10.78125 17.375 C 9.15625 17.757813 7.324219 18.140625 5.78125 19.03125 C 4.238281 19.921875 3 21.515625 3 23.78125 C 3 25.886719 4.0625 28.375 4.0625 28.375 L 4.3125 29 L 5.6875 29 L 5.84375 28.9375 C 5.84375 28.9375 7.59375 28.269531 9.34375 27 C 11.09375 25.730469 13 23.75 13 21 L 11 21 C 11 22.796875 9.65625 24.316406 8.15625 25.40625 C 6.9375 26.292969 6.136719 26.574219 5.71875 26.75 C 5.464844 26.007813 5 24.804688 5 23.78125 C 5 22.15625 5.644531 21.40625 6.78125 20.75 C 7.917969 20.09375 9.570313 19.703125 11.21875 19.3125 C 12.867188 18.921875 14.53125 18.585938 15.71875 17.53125 C 16.027344 17.257813 16.308594 16.917969 16.5 16.53125 C 16.824219 17.296875 17 18.121094 17 19 C 17 21.390625 15.480469 23.394531 13.84375 24.84375 C 12.207031 26.292969 10.5625 27.09375 10.5625 27.09375 L 11.4375 28.90625 C 11.4375 28.90625 13.292969 27.992188 15.15625 26.34375 C 17.019531 24.695313 19 22.222656 19 19 C 19 16.273438 17.621094 14.183594 16.15625 12.4375 L 16.125 12.4375 C 15.871094 12.136719 15.625 11.8125 15.375 11.53125 C 14.519531 10.574219 13.726563 9.691406 13.15625 8.90625 C 12.585938 8.121094 12.28125 7.445313 12.28125 6.84375 C 12.28125 5.847656 12.460938 5.714844 12.59375 5.34375 C 12.910156 5.4375 13.160156 5.5625 13.5625 5.5625 C 14.285156 5.5625 14.84375 6.121094 14.84375 6.84375 C 14.84375 7.171875 14.558594 7.636719 14.15625 8.03125 L 15.53125 9.46875 C 15.910156 9.097656 16.429688 8.558594 16.6875 7.8125 C 17.839844 7.621094 20.539063 7.132813 23 6.34375 C 22.992188 6.730469 22.953125 7.59375 22.75 8.8125 C 22.492188 10.355469 21.929688 12.132813 21.03125 13.03125 C 19.671875 14.390625 19.671875 16.609375 21.03125 17.96875 C 22.390625 19.328125 24.609375 19.328125 25.96875 17.96875 C 27.871094 16.066406 28.390625 14.136719 28.46875 13.8125 C 29.367188 13.433594 30 12.535156 30 11.5 C 30 10.121094 28.878906 9 27.5 9 C 27.175781 9 26.878906 9.074219 26.59375 9.1875 L 25.96875 5.8125 L 25.84375 5.09375 C 25.890625 5.0625 25.957031 5.03125 26 5 L 16.28125 5 C 15.691406 4.125 14.691406 3.5625 13.5625 3.5625 C 12.84375 3.5625 12.53125 3.25 12.53125 3.25 Z M 24.625 9.5 L 25 11.5 L 25.03125 11.6875 C 25.09375 12.480469 25.5 13.148438 26.125 13.5625 C 26.148438 13.578125 26.164063 13.609375 26.1875 13.625 L 26.375 13.78125 C 26.230469 14.273438 25.863281 15.261719 24.5625 16.5625 C 23.96875 17.15625 23.03125 17.15625 22.4375 16.5625 C 21.84375 15.96875 21.84375 15.03125 22.4375 14.4375 C 23.792969 13.082031 24.320313 11.164063 24.625 9.5 Z "></path>
</g>
</svg>
