<?xml version="1.0" encoding="UTF-8"?>
<svg xmlns="http://www.w3.org/2000/svg" xmlns:xlink="http://www.w3.org/1999/xlink" viewBox="0 0 32 32" version="1.1">
<g>
<path d="M 4 5 L 4 27 L 12 27 L 12 5 Z M 13 5 L 13 27 L 15 27 L 15 5 Z M 16 5 L 16 27 L 18 27 L 18 5 Z M 19 5 L 19 27 L 21 27 L 21 5 Z M 22 5 L 22 7 L 26 7 L 26 25 L 22 25 L 22 27 L 28 27 L 28 5 Z M 6 7 L 10 7 L 10 8 L 7 8 L 7 10 L 10 10 L 10 11 L 7 11 L 7 13 L 10 13 L 10 16 L 7 16 L 7 18 L 10 18 L 10 19 L 7 19 L 7 21 L 10 21 L 10 22 L 7 22 L 7 24 L 10 24 L 10 25 L 6 25 Z M 24 9 C 23.449219 9 23 9.449219 23 10 C 23 10.550781 23.449219 11 24 11 C 24.550781 11 25 10.550781 25 10 C 25 9.449219 24.550781 9 24 9 Z M 24 13 C 23.449219 13 23 13.449219 23 14 C 23 14.550781 23.449219 15 24 15 C 24.550781 15 25 14.550781 25 14 C 25 13.449219 24.550781 13 24 13 Z M 24 17 C 23.449219 17 23 17.449219 23 18 C 23 18.550781 23.449219 19 24 19 C 24.550781 19 25 18.550781 25 18 C 25 17.449219 24.550781 17 24 17 Z M 24 21 C 23.449219 21 23 21.449219 23 22 C 23 22.550781 23.449219 23 24 23 C 24.550781 23 25 22.550781 25 22 C 25 21.449219 24.550781 21 24 21 Z "></path>
</g>
</svg>
