<?xml version="1.0" encoding="UTF-8"?>
<svg xmlns="http://www.w3.org/2000/svg" xmlns:xlink="http://www.w3.org/1999/xlink" viewBox="0 0 32 32" version="1.1">
<g>
<path d="M 11 3 L 11 6 L 11.667969 6 C 12.472656 6.464844 13 7.296875 13 8.234375 L 13 11.625 C 11.554688 12.761719 10.292969 14.445313 10.050781 16.355469 C 9.128906 16.707031 8.566406 17.234375 8.351563 17.453125 C 8.050781 17.535156 6.976563 17.851563 5.773438 18.828125 C 4.394531 19.949219 3 21.953125 3 25 L 3 25.042969 L 3.003906 25.085938 C 3.070313 25.851563 3.367188 26.554688 3.804688 27.15625 L 3.828125 27.1875 L 4.101563 27.5625 L 4.328125 27.5625 C 5.105469 28.253906 6.089844 28.679688 7.304688 28.84375 C 8.753906 29.046875 10.535156 29.03125 12.8125 29 L 13.371094 29 C 15.003906 29 16.605469 28.988281 18.003906 28.75 C 19.355469 28.527344 20.613281 28.078125 21.347656 27 L 23.609375 27 L 23.890625 26.457031 C 23.890625 26.457031 24.660156 24.964844 25.425781 23.066406 C 26.195313 21.171875 27 18.90625 27 17 C 27 16.78125 26.972656 16.566406 26.945313 16.351563 C 27.164063 15.96875 29 12.65625 29 9 C 29 8.34375 28.9375 7.480469 28.542969 6.648438 C 28.148438 5.8125 27.21875 5 26 5 C 25.265625 5 24.59375 5.207031 24 5.542969 L 24 3 Z M 13.425781 5 L 22 5 L 22 11 L 15 11 L 15 8.234375 C 15 6.949219 14.335938 5.859375 13.425781 5 Z M 26 7 C 26.488281 7 26.554688 7.121094 26.734375 7.5 C 26.914063 7.878906 27 8.519531 27 9 C 27 10.679688 26.46875 12.386719 25.96875 13.652344 C 25.4375 12.808594 24.742188 12.074219 24 11.5 L 24 8.289063 C 24.441406 7.53125 25.191406 7 26 7 Z M 14.339844 13 L 22.660156 13 C 23.84375 13.90625 25 15.722656 25 17 C 25 18.277344 24.304688 20.511719 23.574219 22.316406 C 22.964844 23.820313 22.542969 24.628906 22.359375 25 L 21.992188 25 C 21.992188 24.949219 22 24.894531 22 24.84375 C 22 23.324219 21.527344 21.441406 20.316406 19.84375 C 19.191406 18.355469 17.292969 17.265625 14.8125 17.109375 C 14.671875 16.984375 14.464844 16.816406 14.214844 16.648438 C 14.144531 16.589844 14.085938 16.523438 14.011719 16.46875 L 13.984375 16.503906 C 13.550781 16.253906 12.976563 16.042969 12.1875 16.011719 C 12.558594 14.902344 13.4375 13.691406 14.339844 13 Z M 12 18 C 12.421875 18 12.648438 18.03125 12.824219 18.078125 C 12.824219 18.082031 12.824219 18.082031 12.824219 18.082031 C 13.113281 18.296875 13.628906 19.527344 13.8125 20.722656 C 14 21.921875 14 23 14 23 L 16 23 C 16 23 16.003906 21.796875 15.792969 20.421875 C 15.726563 20 15.640625 19.554688 15.535156 19.109375 C 17.019531 19.371094 18.011719 20.113281 18.722656 21.050781 C 19.613281 22.230469 20 23.769531 20 24.84375 C 20 25.253906 19.917969 25.578125 19.769531 25.792969 L 19.753906 25.8125 L 19.742188 25.832031 C 19.5 26.226563 18.828125 26.585938 17.671875 26.78125 C 16.519531 26.976563 14.988281 27 13.371094 27 L 12.796875 27 C 10.523438 27.03125 8.785156 27.03125 7.574219 26.863281 C 6.371094 26.699219 5.78125 26.410156 5.40625 25.949219 C 5.15625 25.597656 5.046875 25.324219 5.007813 24.953125 C 5.027344 22.523438 6.019531 21.203125 7.035156 20.378906 C 7.511719 19.996094 7.96875 19.746094 8.335938 19.582031 C 8.550781 20.074219 8.730469 20.65625 8.828125 21.21875 C 9 22.195313 9 23 9 23 L 11 23 C 11 23 11 22.035156 10.796875 20.875 C 10.671875 20.148438 10.484375 19.328125 10.109375 18.5625 C 10.527344 18.292969 11.152344 18 12 18 Z "></path>
</g>
</svg>
