<?xml version="1.0" encoding="UTF-8"?>
<svg xmlns="http://www.w3.org/2000/svg" xmlns:xlink="http://www.w3.org/1999/xlink" viewBox="0 0 32 32" version="1.1">
<g>
<path d="M 5 5 L 5 14 C 5 17.515625 7.617188 20.417969 11 20.90625 L 11 25 L 7 25 L 7 27 L 17 27 L 17 25 L 13 25 L 13 20.90625 C 16.382813 20.417969 19 17.515625 19 14 L 19 5 Z M 21 5 L 21 12 L 22 12 C 22.550781 12 23 11.550781 23 11 L 23 5 Z M 25 5 L 25 12 C 25 13.667969 23.667969 15 22 15 L 21 15 L 21 27 L 23 27 L 23 16.78125 C 25.257813 16.300781 27 14.394531 27 12 L 27 5 Z M 7 7 L 17 7 L 17 14 C 17 16.773438 14.773438 19 12 19 C 9.226563 19 7 16.773438 7 14 Z "></path>
</g>
</svg>
