<?xml version="1.0" encoding="UTF-8"?>
<svg xmlns="http://www.w3.org/2000/svg" xmlns:xlink="http://www.w3.org/1999/xlink" viewBox="0 0 32 32" version="1.1">
<g>
<path d="M 13.683594 4.285156 L 13.457031 4.972656 C 13.167969 5.851563 13 6.792969 13 7.785156 C 13 12.078125 16.035156 15.683594 20 16.210938 L 20 22.011719 L 13.386719 16 L 8.648438 16 L 8.371094 16.222656 C 8.371094 16.222656 5.917969 18.199219 5.03125 21.757813 C 4.332031 24.542969 5.03125 27.238281 5.03125 27.238281 L 5.214844 28 L 26.585938 28 L 24.671875 26.261719 L 22 23.828125 L 22 16.210938 C 25.964844 15.683594 29 12.078125 29 7.785156 C 29 6.792969 28.832031 5.851563 28.542969 4.972656 L 28.316406 4.285156 Z M 15.246094 6.285156 L 26.753906 6.285156 C 26.867188 6.777344 27 7.257813 27 7.785156 C 27 11.421875 24.285156 14.285156 21 14.285156 C 17.714844 14.285156 15 11.421875 15 7.785156 C 15 7.257813 15.132813 6.777344 15.246094 6.285156 Z M 10.496094 18 L 12.613281 18 L 21.414063 26 L 19.386719 26 Z M 8.5625 18.953125 L 16.390625 26 L 6.863281 26 C 6.734375 25.21875 6.570313 23.839844 6.96875 22.242188 C 7.355469 20.703125 8.007813 19.652344 8.5625 18.953125 Z "></path>
</g>
</svg>
