<?xml version="1.0" encoding="UTF-8"?>
<svg xmlns="http://www.w3.org/2000/svg" xmlns:xlink="http://www.w3.org/1999/xlink" viewBox="0 0 32 32" version="1.1">
<g>
<path d="M 9 3 C 8.449219 3 8 3.449219 8 4 C 8 4.550781 8.449219 5 9 5 C 9.550781 5 10 4.550781 10 4 C 10 3.449219 9.550781 3 9 3 Z M 11.921875 3 L 12.066406 3.359375 C 12.828125 5.542969 13.53125 7.476563 14.15625 9.191406 C 15.871094 13.890625 17 16.992188 17 19 C 17 21.175781 14.757813 22.023438 14.671875 22.058594 C 12.511719 22.808594 6.703125 24.804688 5.769531 25.027344 L 5 25.207031 L 5 26 C 5 27.710938 6.289063 29 8 29 C 8.871094 29 9.585938 28.632813 10.070313 28.277344 C 10.875 28.726563 11.949219 29 13 29 C 13.621094 29 14.507813 28.796875 15.53125 28.566406 C 16.703125 28.300781 18.035156 28 19 28 C 19.875 28 20.726563 28.257813 21.550781 28.507813 C 22.347656 28.75 23.171875 29 24 29 C 25.066406 29 26.578125 28.542969 27.34375 27.261719 C 28.078125 26.019531 27.921875 24.421875 26.875 22.519531 C 25.71875 20.40625 25 18.078125 25 13 L 25 3 L 23 3 L 23 13 C 23 17.757813 23.597656 20.695313 25.125 23.480469 C 25.785156 24.683594 25.960938 25.667969 25.621094 26.238281 C 25.3125 26.761719 24.5625 27 24 27 C 23.46875 27 22.820313 26.804688 22.128906 26.59375 C 21.210938 26.316406 20.171875 26 19 26 C 17.8125 26 16.363281 26.328125 15.089844 26.617188 C 14.257813 26.804688 13.398438 27 13 27 C 12.019531 27 11.046875 26.632813 10.707031 26.292969 L 10.140625 25.722656 C 12.410156 24.957031 14.875 24.101563 15.332031 23.941406 C 15.484375 23.890625 19 22.601563 19 19 C 19 16.640625 17.882813 13.578125 16.035156 8.507813 C 15.441406 6.878906 14.777344 5.050781 14.0625 3 Z M 10 6 C 9.449219 6 9 6.449219 9 7 C 9 7.550781 9.449219 8 10 8 C 10.550781 8 11 7.550781 11 7 C 11 6.449219 10.550781 6 10 6 Z M 11 9 C 10.449219 9 10 9.449219 10 10 C 10 10.550781 10.449219 11 11 11 C 11.550781 11 12 10.550781 12 10 C 12 9.449219 11.550781 9 11 9 Z M 12 12 C 11.929688 12 11.859375 12.007813 11.792969 12.023438 C 8.621094 12.253906 6.109375 14.910156 6.109375 18.132813 C 6.109375 19.410156 6.503906 20.605469 7.175781 21.589844 L 7.1875 21.582031 C 7.375 21.84375 7.675781 22 8 22 C 8.550781 22 9 21.550781 9 21 C 9 20.765625 8.917969 20.542969 8.769531 20.363281 C 8.355469 19.71875 8.109375 18.960938 8.109375 18.132813 C 8.109375 15.902344 9.847656 14.109375 12.046875 14.003906 L 12.046875 14 C 12.578125 13.972656 13 13.535156 13 13 C 13 12.449219 12.550781 12 12 12 Z M 13 15 C 12.449219 15 12 15.449219 12 16 C 12 16.550781 12.449219 17 13 17 C 13.550781 17 14 16.550781 14 16 C 14 15.449219 13.550781 15 13 15 Z M 14 18 C 13.449219 18 13 18.449219 13 19 C 13 19.550781 13.449219 20 14 20 C 14.550781 20 15 19.550781 15 19 C 15 18.449219 14.550781 18 14 18 Z M 11 19 C 10.449219 19 10 19.449219 10 20 C 10 20.550781 10.449219 21 11 21 C 11.550781 21 12 20.550781 12 20 C 12 19.449219 11.550781 19 11 19 Z M 5 21 C 4.449219 21 4 21.449219 4 22 C 4 22.550781 4.449219 23 5 23 C 5.550781 23 6 22.550781 6 22 C 6 21.449219 5.550781 21 5 21 Z M 9.613281 25.902344 L 9.230469 26.359375 C 9.226563 26.367188 8.65625 27 8 27 C 7.675781 27 7.410156 26.882813 7.234375 26.679688 C 7.871094 26.480469 8.710938 26.203125 9.613281 25.902344 Z "></path>
</g>
</svg>
