<?xml version="1.0" encoding="UTF-8"?>
<svg xmlns="http://www.w3.org/2000/svg" xmlns:xlink="http://www.w3.org/1999/xlink" viewBox="0 0 32 32" version="1.1">
<g>
<path d="M 25 2.195313 L 22 6.695313 L 22 20 L 21 20 L 21 22 L 24 22 L 24 25.28125 C 23.40625 25.632813 23 26.269531 23 27 C 23 28.09375 23.90625 29 25 29 C 26.09375 29 27 28.09375 27 27 C 27 26.269531 26.59375 25.632813 26 25.28125 L 26 22 L 29 22 L 29 20 L 28 20 L 28 6.695313 Z M 11.503906 2.953125 L 11.203125 3.046875 C 11.203125 3.046875 8.351563 3.925781 3.773438 4.992188 L 3 5.171875 L 3 19 C 3 21.726563 5.125 24.0625 7.078125 25.84375 C 9.027344 27.628906 10.96875 28.84375 10.96875 28.84375 L 11.5 29.183594 L 12.03125 28.84375 C 12.03125 28.84375 13.972656 27.628906 15.921875 25.84375 C 17.875 24.0625 20 21.726563 20 19 L 20 5.203125 L 19.226563 5.023438 C 14.652344 3.960938 11.804688 3.046875 11.804688 3.046875 Z M 11.496094 5.03125 C 11.695313 5.097656 14.328125 5.871094 18 6.765625 L 18 13.996094 L 5.789063 6.53125 C 8.964844 5.746094 11.316406 5.089844 11.496094 5.03125 Z M 25 5.804688 L 26 7.304688 L 26 20 L 24 20 L 24 7.304688 Z M 5 8.394531 L 18 16.339844 L 18 18.265625 L 5 10.324219 Z M 5 12.667969 L 17.65625 20.398438 C 17.453125 20.863281 17.175781 21.34375 16.835938 21.828125 L 5 14.59375 Z M 5 16.9375 L 15.546875 23.386719 C 15.230469 23.722656 14.914063 24.0625 14.578125 24.371094 C 13.042969 25.769531 11.921875 26.46875 11.5 26.746094 C 11.078125 26.46875 9.957031 25.769531 8.421875 24.371094 C 6.625 22.726563 5 20.558594 5 19 Z "></path>
</g>
</svg>
