<?xml version="1.0" encoding="UTF-8"?>
<svg xmlns="http://www.w3.org/2000/svg" xmlns:xlink="http://www.w3.org/1999/xlink" viewBox="0 0 32 32" version="1.1">
<g>
<path d="M 15 3 C 8.953125 3 4 7.953125 4 14 C 4 16.164063 4.839844 17.976563 5.59375 19.59375 C 6.347656 21.210938 7 22.628906 7 24.09375 L 7 29 L 9 29 L 9 24.09375 C 9 22.058594 8.152344 20.355469 7.40625 18.75 C 6.660156 17.144531 6 15.636719 6 14 C 6 9.046875 10.046875 5 15 5 C 18.808594 5 20.863281 6.609375 22.09375 8.21875 C 23.324219 9.828125 23.625 11.40625 23.625 11.40625 L 23.65625 11.53125 L 23.71875 11.65625 L 26.375 17 C 26.449219 17.171875 26.441406 17.304688 26.4375 17.34375 L 26.375 17.34375 C 25.839844 17.523438 24.75 17.84375 24.75 17.84375 L 24 18.03125 L 24 21 C 24 21.667969 23.625 22.4375 23.03125 23.03125 C 22.4375 23.625 21.667969 24 21 24 L 19 24 L 19 29 L 21 29 L 21 26 C 22.332031 26 23.5625 25.375 24.46875 24.46875 C 25.375 23.5625 26 22.332031 26 21 L 26 19.53125 C 26.339844 19.433594 26.566406 19.402344 26.9375 19.28125 C 26.96875 19.273438 27 19.257813 27.03125 19.25 L 27.03125 19.21875 C 27.675781 19.015625 28.214844 18.480469 28.375 17.90625 C 28.546875 17.296875 28.4375 16.734375 28.21875 16.21875 L 28.21875 16.1875 L 28.1875 16.15625 L 25.53125 10.8125 L 25.5 10.75 C 25.421875 10.398438 25.023438 8.789063 23.65625 7 C 22.136719 5.007813 19.394531 3 15 3 Z M 12.875 8.3125 L 11.125 9.3125 L 11.9375 10.71875 C 11.292969 11.320313 10.832031 12.117188 10.625 13 L 9 13 L 9 15 L 10.625 15 C 10.828125 15.890625 11.289063 16.675781 11.9375 17.28125 L 11.125 18.6875 L 12.875 19.6875 L 13.6875 18.28125 C 14.105469 18.410156 14.542969 18.5 15 18.5 C 15.457031 18.5 15.894531 18.410156 16.3125 18.28125 L 17.125 19.6875 L 18.875 18.6875 L 18.0625 17.28125 C 18.710938 16.675781 19.171875 15.890625 19.375 15 L 21 15 L 21 13 L 19.375 13 C 19.171875 12.109375 18.710938 11.324219 18.0625 10.71875 L 18.875 9.3125 L 17.125 8.3125 L 16.3125 9.71875 C 15.894531 9.589844 15.457031 9.5 15 9.5 C 14.542969 9.5 14.105469 9.589844 13.6875 9.71875 Z M 15 11.5 C 16.390625 11.5 17.5 12.609375 17.5 14 C 17.5 15.390625 16.390625 16.5 15 16.5 C 13.609375 16.5 12.5 15.390625 12.5 14 C 12.5 12.609375 13.609375 11.5 15 11.5 Z "></path>
</g>
</svg>
