<?xml version="1.0" encoding="UTF-8"?>
<svg xmlns="http://www.w3.org/2000/svg" xmlns:xlink="http://www.w3.org/1999/xlink" viewBox="0 0 32 32" version="1.1">
<g>
<path d="M 15 3 C 8.953125 3 4 7.953125 4 14 C 4 16.164063 4.839844 17.976563 5.59375 19.59375 C 6.347656 21.210938 7 22.628906 7 24.09375 L 7 29 L 9 29 L 9 24.09375 C 9 22.058594 8.152344 20.355469 7.40625 18.75 C 6.660156 17.144531 6 15.636719 6 14 C 6 9.046875 10.046875 5 15 5 C 18.808594 5 20.863281 6.609375 22.09375 8.21875 C 23.324219 9.828125 23.625 11.40625 23.625 11.40625 L 23.65625 11.53125 L 23.71875 11.65625 L 26.375 17 C 26.449219 17.171875 26.441406 17.304688 26.4375 17.34375 L 26.375 17.34375 C 25.839844 17.523438 24.75 17.84375 24.75 17.84375 L 24 18.03125 L 24 21 C 24 21.667969 23.625 22.4375 23.03125 23.03125 C 22.4375 23.625 21.667969 24 21 24 L 19 24 L 19 29 L 21 29 L 21 26 C 22.332031 26 23.5625 25.375 24.46875 24.46875 C 25.375 23.5625 26 22.332031 26 21 L 26 19.53125 C 26.339844 19.433594 26.566406 19.402344 26.9375 19.28125 C 26.96875 19.273438 27 19.257813 27.03125 19.25 L 27.03125 19.21875 C 27.675781 19.015625 28.214844 18.480469 28.375 17.90625 C 28.546875 17.296875 28.4375 16.734375 28.21875 16.21875 L 28.21875 16.1875 L 28.1875 16.15625 L 25.53125 10.8125 L 25.5 10.75 C 25.421875 10.398438 25.023438 8.789063 23.65625 7 C 22.136719 5.007813 19.394531 3 15 3 Z M 14 9 L 14 16 L 16 16 L 16 9 Z M 14 18 L 14 20 L 16 20 L 16 18 Z "></path>
</g>
</svg>
