<?xml version="1.0" encoding="UTF-8"?>
<svg xmlns="http://www.w3.org/2000/svg" xmlns:xlink="http://www.w3.org/1999/xlink" viewBox="0 0 32 32" version="1.1">
<g>
<path d="M 21 3.96875 L 20.1875 5.125 L 17.5 8.90625 C 17.027344 8.554688 16.449219 8.324219 15.84375 8.1875 C 15.457031 6.386719 13.910156 5 12 5 C 10.539063 5 9.382813 5.886719 8.6875 7.0625 C 6.640625 7.230469 5 8.914063 5 11 C 5 11.363281 5.125 11.671875 5.21875 12 C 4.515625 12.636719 4 13.480469 4 14.5 C 4 15.609375 4.625 16.484375 5.4375 17.125 L 5.3125 17.4375 L 5.3125 17.46875 L 5.28125 17.5 L 5.28125 17.53125 C 5.257813 17.597656 5.25 17.621094 5.25 17.625 C 5.183594 17.800781 5.132813 17.996094 5.09375 18.1875 C 5.089844 18.199219 5.097656 18.207031 5.09375 18.21875 C 5.042969 18.46875 5 18.738281 5 19 C 5 21.199219 6.800781 23 9 23 C 9.269531 23 9.535156 22.984375 9.78125 22.9375 C 9.882813 22.917969 9.925781 22.898438 10 22.875 L 10 28 L 12 28 L 12 22.84375 C 12.3125 22.9375 12.652344 23 13 23 C 13.425781 23 13.804688 22.90625 14.1875 22.78125 C 15.851563 23.910156 17.683594 24.777344 20 24.96875 L 20 28 L 22 28 L 22 24.96875 C 24.390625 24.765625 26.394531 23.835938 28.15625 22.59375 L 28.96875 22.03125 L 28.40625 21.21875 L 25.75 17.5625 C 26.046875 17.386719 26.339844 17.257813 26.625 17.03125 L 27.375 16.4375 L 26.8125 15.65625 L 24.15625 12.125 C 24.503906 11.949219 24.863281 11.835938 25.1875 11.59375 L 25.96875 11 L 25.40625 10.21875 L 21.8125 5.125 Z M 12 7 C 13.117188 7 14 7.882813 14 9 L 14 10 L 15 10 C 15.527344 10 15.984375 10.203125 16.34375 10.53125 L 16.03125 11 L 16.8125 11.59375 C 17.132813 11.832031 17.5 11.917969 17.84375 12.09375 L 15.1875 15.65625 L 14.625 16.4375 L 15.375 17.03125 C 15.660156 17.257813 15.953125 17.386719 16.25 17.5625 C 15.273438 18.996094 14.378906 20.207031 14 20.71875 C 13.703125 20.898438 13.371094 21 13 21 C 12.488281 21 12.019531 20.796875 11.65625 20.46875 L 11 19.875 L 10.34375 20.46875 C 10.25 20.554688 10.128906 20.625 10.03125 20.6875 C 9.925781 20.753906 9.820313 20.804688 9.71875 20.84375 L 9.71875 20.875 C 9.773438 20.851563 9.703125 20.859375 9.65625 20.875 C 9.632813 20.882813 9.671875 20.859375 9.625 20.875 C 9.511719 20.914063 9.410156 20.960938 9.375 20.96875 C 9.246094 20.996094 9.128906 21 9 21 C 7.882813 21 7 20.117188 7 19 C 7 18.863281 7.003906 18.71875 7.03125 18.59375 C 7.054688 18.476563 7.105469 18.371094 7.15625 18.25 C 7.171875 18.210938 7.167969 18.195313 7.15625 18.21875 L 7.15625 18.1875 L 7.1875 18.15625 L 7.1875 18.09375 L 7.5625 17.21875 L 7.9375 16.25 L 7 15.90625 C 6.421875 15.695313 6 15.152344 6 14.5 C 6 13.925781 6.308594 13.445313 6.78125 13.1875 L 7.625 12.71875 L 7.21875 11.875 C 7.082031 11.59375 7 11.304688 7 11 C 7 9.882813 7.882813 9 9 9 C 8.90625 9 8.953125 9.019531 9.125 9.03125 L 9.875 9.0625 L 10.125 8.34375 C 10.398438 7.558594 11.121094 7 12 7 Z M 21 7.4375 L 23.09375 10.40625 C 22.84375 10.523438 22.640625 10.703125 22.375 10.78125 L 21.03125 11.1875 L 20.96875 11.1875 L 19.65625 10.78125 C 19.378906 10.703125 19.132813 10.527344 18.875 10.40625 Z M 21 11.21875 L 21.84375 12.34375 L 24.53125 15.96875 C 24.320313 16.089844 24.136719 16.238281 23.90625 16.34375 L 22.8125 16.84375 L 23.5 17.84375 L 26.125 21.4375 C 24.605469 22.359375 23.023438 23 21 23 C 18.9375 23 17.472656 22.4375 16.03125 21.5625 L 15.9375 21.5 C 15.925781 21.492188 15.917969 21.476563 15.90625 21.46875 C 16.398438 20.832031 17.28125 19.753906 18.53125 17.78125 L 19.125 16.8125 L 18.09375 16.34375 C 17.863281 16.238281 17.679688 16.089844 17.46875 15.96875 L 20.15625 12.34375 Z "></path>
</g>
</svg>
