<?xml version="1.0" encoding="UTF-8"?>
<svg xmlns="http://www.w3.org/2000/svg" xmlns:xlink="http://www.w3.org/1999/xlink" viewBox="0 0 32 32" version="1.1">
<g>
<path d="M 16 3 C 12.144531 3 9 6.144531 9 10 L 9 13 L 6 13 L 6 29 L 26 29 L 26 13 L 23 13 L 23 10 C 23 6.144531 19.855469 3 16 3 Z M 16 5 C 18.773438 5 21 7.226563 21 10 L 21 13 L 11 13 L 11 10 C 11 7.226563 13.226563 5 16 5 Z M 8 15 L 24 15 L 24 27 L 8 27 Z M 16 16 C 14.355469 16 13 17.355469 13 19 L 15 19 C 15 18.445313 15.445313 18 16 18 C 16.554688 18 17 18.445313 17 19 C 17 19.554688 16.554688 20 16 20 L 15 20 L 15 23 L 17 23 L 17 21.8125 C 18.15625 21.394531 19 20.292969 19 19 C 19 17.355469 17.644531 16 16 16 Z M 15 24 L 15 26 L 17 26 L 17 24 Z "></path>
</g>
</svg>
