<?xml version="1.0" encoding="UTF-8"?>
<svg xmlns="http://www.w3.org/2000/svg" xmlns:xlink="http://www.w3.org/1999/xlink" viewBox="0 0 32 32" version="1.1">
<g>
<path d="M 9 4 C 6.25 4 4 6.25 4 9 L 4 25 C 4 26.644531 5.355469 28 7 28 C 8.292969 28 9.394531 27.15625 9.8125 26 L 14.1875 26 C 14.605469 27.15625 15.707031 28 17 28 C 18.644531 28 20 26.644531 20 25 L 20 17.71875 C 20 16.433594 19.71875 15.167969 19.1875 14 L 15.96875 6.9375 C 15.160156 5.15625 13.394531 4 11.4375 4 Z M 19.96875 4.25 L 18.03125 4.65625 L 22.03125 25.1875 L 22.1875 26 L 28 26 L 28 24 L 23.8125 24 Z M 9 6 L 11.4375 6 C 12.617188 6 13.667969 6.675781 14.15625 7.75 L 17.375 14.84375 C 17.789063 15.753906 18 16.71875 18 17.71875 L 18 18 L 14.4375 18 L 11.71875 15.28125 L 11.40625 15 L 6 15 L 6 9 C 6 7.332031 7.332031 6 9 6 Z M 6 17 L 10.5625 17 L 13.28125 19.71875 L 13.59375 20 L 18 20 L 18 22.1875 C 17.683594 22.074219 17.351563 22 17 22 C 15.707031 22 14.605469 22.84375 14.1875 24 L 9.8125 24 C 9.394531 22.84375 8.292969 22 7 22 C 6.648438 22 6.316406 22.074219 6 22.1875 Z M 7 24 C 7.5625 24 8 24.4375 8 25 C 8 25.5625 7.5625 26 7 26 C 6.4375 26 6 25.5625 6 25 C 6 24.4375 6.4375 24 7 24 Z M 17 24 C 17.5625 24 18 24.4375 18 25 C 18 25.5625 17.5625 26 17 26 C 16.4375 26 16 25.5625 16 25 C 16 24.4375 16.4375 24 17 24 Z "></path>
</g>
</svg>
