<?xml version="1.0" encoding="UTF-8"?>
<svg xmlns="http://www.w3.org/2000/svg" xmlns:xlink="http://www.w3.org/1999/xlink" viewBox="0 0 32 32" version="1.1">
<g>
<path d="M 16 3 L 5 25 L 13 25 L 13 29 L 19 29 L 19 25 L 27 25 Z M 15 15 L 17 15 L 17 17.5625 L 18.3125 17.28125 L 18.9375 16.125 L 18.90625 17.53125 L 17.125 18.8125 L 17 19.8125 L 17 20.03125 L 18.25 19.875 L 18.8125 19.1875 L 19.875 19.09375 L 20.71875 18.125 L 20.4375 19.75 L 19.1875 19.96875 L 18.34375 20.78125 L 17 21.125 L 17 27 L 15 27 L 15 21 L 14.84375 20.4375 L 12.125 17.46875 L 15 19.21875 Z "></path>
</g>
</svg>
