<?xml version="1.0" encoding="UTF-8"?>
<svg xmlns="http://www.w3.org/2000/svg" xmlns:xlink="http://www.w3.org/1999/xlink" viewBox="0 0 32 32" version="1.1">
<g>
<path d="M 16 3 C 12.699219 3 10 5.699219 10 9 C 10 10.914063 10.910156 12.617188 12.3125 13.71875 C 8.628906 15.195313 6 18.796875 6 23 L 6 24 L 9 24 L 9 29 L 11 29 L 11 24 L 11.4375 24 C 12.210938 25.757813 13.957031 27 16 27 C 18.042969 27 19.789063 25.757813 20.5625 24 L 21 24 L 21 29 L 23 29 L 23 24 L 26 24 L 26 23 C 26 18.796875 23.371094 15.195313 19.6875 13.71875 C 21.089844 12.617188 22 10.914063 22 9 C 22 5.699219 19.300781 3 16 3 Z M 16 5 C 18.222656 5 20 6.777344 20 9 C 20 11.222656 18.222656 13 16 13 C 13.777344 13 12 11.222656 12 9 C 12 6.777344 13.777344 5 16 5 Z M 16 15 C 20.078125 15 23.304688 18.066406 23.8125 22 L 17 22 L 17 24 L 18.21875 24 C 17.667969 24.609375 16.882813 25 16 25 C 15.117188 25 14.332031 24.609375 13.78125 24 L 15 24 L 15 22 L 8.1875 22 C 8.695313 18.066406 11.921875 15 16 15 Z M 16 17 C 13.585938 17 11.558594 18.722656 11.09375 21 L 13.1875 21 C 13.601563 19.839844 14.699219 19 16 19 C 17.300781 19 18.398438 19.839844 18.8125 21 L 20.90625 21 C 20.441406 18.722656 18.414063 17 16 17 Z "></path>
</g>
</svg>
