<?xml version="1.0" encoding="UTF-8"?>
<svg xmlns="http://www.w3.org/2000/svg" xmlns:xlink="http://www.w3.org/1999/xlink" viewBox="0 0 32 32" version="1.1">
<g>
<path d="M 16 6 C 14.941406 6 14.007813 6.566406 13.472656 7.40625 C 13.035156 7.15625 12.535156 7 12 7 C 10.625 7 9.460938 7.953125 9.117188 9.226563 C 8.769531 9.082031 8.394531 9 8 9 C 6.355469 9 5 10.355469 5 12 L 5 19 C 5 20.644531 6.355469 22 8 22 C 8.535156 22 9.035156 21.84375 9.472656 21.59375 C 10.007813 22.433594 10.941406 23 12 23 C 12.769531 23 13.464844 22.695313 14 22.214844 C 14.347656 22.527344 14.765625 22.761719 15.230469 22.886719 C 15.097656 23.234375 15 23.597656 15 24 C 15 25.644531 16.355469 27 18 27 L 18.160156 27 L 24.289063 24.957031 C 24.894531 24.773438 25.515625 24.59375 26.078125 24.128906 C 26.636719 23.664063 27 22.867188 27 22 C 27 20.253906 26.085938 18.277344 25.160156 16.21875 C 24.253906 14.191406 23.300781 12.136719 23 10.859375 L 23 10 C 23 8.355469 21.644531 7 20 7 C 19.464844 7 18.964844 7.15625 18.527344 7.40625 C 17.992188 6.566406 17.058594 6 16 6 Z M 16 8 C 16.554688 8 17 8.445313 17 9 L 17 10 L 19 10 C 19 9.445313 19.445313 9 20 9 C 20.554688 9 21 9.445313 21 10 L 21 20 C 21 20.554688 20.554688 21 20 21 C 19.445313 21 19 20.554688 19 20 L 19 14 L 17 14 L 17 20 C 17 20.554688 16.554688 21 16 21 C 15.445313 21 15 20.554688 15 20 L 15 14 L 13 14 L 13 20 C 13 20.554688 12.554688 21 12 21 C 11.445313 21 11 20.554688 11 20 L 11 14 L 9 14 L 9 19 C 9 19.554688 8.554688 20 8 20 C 7.445313 20 7 19.554688 7 19 L 7 12 C 7 11.445313 7.445313 11 8 11 C 8.554688 11 9 11.445313 9 12 L 11 12 L 11 10 C 11 9.445313 11.445313 9 12 9 C 12.554688 9 13 9.445313 13 10 L 15 10 L 15 9 C 15 8.445313 15.445313 8 16 8 Z M 23 16.285156 C 23.113281 16.539063 23.222656 16.785156 23.335938 17.035156 C 24.246094 19.0625 25 21.09375 25 22 C 25 22.445313 24.949219 22.46875 24.800781 22.589844 C 24.65625 22.707031 24.273438 22.871094 23.710938 23.042969 L 23.699219 23.046875 L 17.925781 24.96875 C 17.414063 24.925781 17 24.527344 17 24 C 17 23.671875 17.207031 23.253906 17.5625 22.921875 C 17.816406 22.683594 18.101563 22.558594 18.332031 22.484375 C 18.808594 22.808594 19.382813 23 20 23 C 21.644531 23 23 21.644531 23 20 Z "></path>
</g>
</svg>
