<?xml version="1.0" encoding="UTF-8"?>
<svg xmlns="http://www.w3.org/2000/svg" xmlns:xlink="http://www.w3.org/1999/xlink" viewBox="0 0 32 32" version="1.1">
<g>
<path d="M 6 3 L 6 21 L 10 21 L 10 24 C 10 26.75 12.25 29 15 29 L 21.34375 29 C 22.789063 29 24.023438 27.949219 24.28125 26.53125 L 25.625 19.25 C 25.917969 17.636719 25.378906 15.972656 24.21875 14.8125 L 21 11.5625 L 21 3 Z M 8 5 L 19 5 L 19 19 L 17.28125 19 L 16.3125 13.625 C 16.039063 12.121094 14.71875 11 13.1875 11 C 11.441406 11 10 12.441406 10 14.1875 L 10 19 L 8 19 Z M 13.1875 13 C 13.765625 13 14.242188 13.402344 14.34375 13.96875 L 15.8125 21.96875 L 17.75 21.625 L 17.625 21 L 21 21 L 21 14.4375 L 22.8125 16.21875 C 23.507813 16.914063 23.832031 17.90625 23.65625 18.875 L 22.3125 26.1875 C 22.226563 26.667969 21.835938 27 21.34375 27 L 15 27 C 13.332031 27 12 25.667969 12 24 L 12 14.1875 C 12 13.523438 12.523438 13 13.1875 13 Z "></path>
</g>
</svg>
