<?xml version="1.0" encoding="UTF-8"?>
<svg xmlns="http://www.w3.org/2000/svg" xmlns:xlink="http://www.w3.org/1999/xlink" viewBox="0 0 32 32" version="1.1">
<g>
<path d="M 20 11 L 20 7 L 19 7 L 19 3.464844 L 18.386719 3.207031 C 16.382813 2.367188 13.203125 2.136719 13.070313 2.128906 L 12 2.050781 L 12 3.839844 L 13 5.535156 L 13 7 L 12 7 L 12 11 L 9 11 L 9 23.914063 C 9 27.792969 12.355469 29.78125 12.5 29.863281 L 12.730469 30 L 19.269531 30 L 19.503906 29.863281 C 19.644531 29.78125 23 27.792969 23 23.914063 L 23 11 Z M 14.601563 4.316406 C 15.351563 4.425781 16.238281 4.59375 17 4.832031 L 17 7 L 15 7 L 15 4.988281 Z M 14 9 L 18 9 L 18 11 L 14 11 Z M 21 23.914063 C 21 26.1875 19.304688 27.578125 18.703125 28 L 13.296875 28 C 12.691406 27.574219 11 26.1875 11 23.914063 L 11 13 L 21 13 Z "></path>
</g>
</svg>
