<?xml version="1.0" encoding="UTF-8"?>
<svg xmlns="http://www.w3.org/2000/svg" xmlns:xlink="http://www.w3.org/1999/xlink" viewBox="0 0 32 32" version="1.1">
<g>
<path d="M 11 5 C 7.699219 5 5 7.699219 5 11 L 5 12 L 7 12 L 7 11 C 7 8.78125 8.78125 7 11 7 C 13.058594 7 14.707031 8.535156 14.9375 10.53125 C 14.359375 10.203125 13.707031 10 13 10 C 10.800781 10 9 11.800781 9 14 L 11 14 C 11 12.882813 11.882813 12 13 12 C 14.117188 12 15 12.882813 15 14 L 15 15 L 17 15 L 17 14 C 17 13.859375 17.003906 13.726563 17.03125 13.59375 C 17.214844 12.675781 18.023438 12 19 12 C 20.117188 12 21 12.882813 21 14 L 23 14 C 23 11.800781 21.199219 10 19 10 C 18.726563 10 18.445313 10.039063 18.1875 10.09375 C 17.777344 10.179688 17.417969 10.332031 17.0625 10.53125 C 17.292969 8.535156 18.941406 7 21 7 C 23.21875 7 25 8.78125 25 11 L 25 12 L 27 12 L 27 11 C 27 7.699219 24.300781 5 21 5 C 18.910156 5 17.070313 6.085938 16 7.71875 C 14.925781 6.089844 13.085938 5 11 5 Z M 5 13 L 5 15 L 7 15 L 7 13 Z M 25 13 L 25 15 L 27 15 L 27 13 Z M 5 16 L 5 18 L 7 18 L 7 16 Z M 8 16 L 8 17 C 8 19.199219 9.800781 21 12 21 L 13 21 L 13 22 L 4 22 L 4 23 C 4 25.199219 5.800781 27 8 27 L 24 27 C 26.199219 27 28 25.199219 28 23 L 28 22 L 19 22 L 19 21 L 20 21 C 22.199219 21 24 19.199219 24 17 L 24 16 Z M 25 16 L 25 18 L 27 18 L 27 16 Z M 10.4375 18 L 21.5625 18 C 21.210938 18.558594 20.71875 19 20 19 L 12 19 C 11.28125 19 10.789063 18.558594 10.4375 18 Z M 5 19 L 5 21 L 7 21 L 7 19 Z M 25 19 L 25 21 L 27 21 L 27 19 Z M 15 21 L 17 21 L 17 22 L 15 22 Z M 6.4375 24 L 25.5625 24 C 25.210938 24.558594 24.71875 25 24 25 L 8 25 C 7.28125 25 6.789063 24.558594 6.4375 24 Z "></path>
</g>
</svg>
