<?xml version="1.0" encoding="UTF-8"?>
<svg xmlns="http://www.w3.org/2000/svg" xmlns:xlink="http://www.w3.org/1999/xlink" viewBox="0 0 32 32" version="1.1">
<g>
<path d="M 8 2 L 8 12 C 8 16.054688 11.074219 19.4375 15 19.9375 L 15 28 L 11 28 L 11 30 L 21 30 L 21 28 L 17 28 L 17 19.9375 C 20.925781 19.4375 24 16.054688 24 12 L 24 2 Z M 10 4 L 15.375 4 L 12.375 10 L 16.25 10 L 14.15625 13.5 L 15.84375 14.5 L 18.84375 9.5 L 19.78125 8 L 15.625 8 L 17.625 4 L 22 4 L 22 12 C 22 15.304688 19.304688 18 16 18 C 12.695313 18 10 15.304688 10 12 Z "></path>
</g>
</svg>
