<?xml version="1.0" encoding="UTF-8"?>
<svg xmlns="http://www.w3.org/2000/svg" xmlns:xlink="http://www.w3.org/1999/xlink" viewBox="0 0 32 32" version="1.1">
<g>
<path d="M 11 3 C 8.804688 3 7 4.804688 7 7 L 7 15 L 6 15 L 6 16 C 6 16 5.980469 17.285156 6.25 18.65625 C 6.382813 19.339844 6.578125 20.050781 6.96875 20.6875 C 7.21875 21.09375 7.636719 21.421875 8.125 21.65625 C 8.269531 23.597656 8.882813 25.390625 10.125 26.6875 C 11.523438 28.152344 13.574219 29 16 29 C 18.425781 29 20.476563 28.152344 21.875 26.6875 C 23.117188 25.390625 23.730469 23.597656 23.875 21.65625 C 24.363281 21.421875 24.78125 21.09375 25.03125 20.6875 C 25.421875 20.050781 25.617188 19.339844 25.75 18.65625 C 26.019531 17.285156 26 16 26 16 L 26 15 L 25 15 L 25 7 C 25 4.804688 23.195313 3 21 3 Z M 11.4375 7 L 21 7 C 22.105469 7 23 7.894531 23 9 L 23 17 L 23.90625 17 C 23.886719 17.441406 23.902344 17.660156 23.78125 18.28125 C 23.671875 18.835938 23.523438 19.363281 23.34375 19.65625 C 23.164063 19.949219 23.113281 19.9375 23 19.9375 L 22 19.9375 L 22 20.9375 C 22 22.746094 21.4375 24.265625 20.4375 25.3125 C 19.4375 26.359375 17.972656 27 16 27 C 14.027344 27 12.5625 26.359375 11.5625 25.3125 C 10.5625 24.265625 10 22.746094 10 20.9375 L 10 19.9375 L 9 19.9375 C 8.886719 19.9375 8.835938 19.949219 8.65625 19.65625 C 8.476563 19.363281 8.328125 18.835938 8.21875 18.28125 C 8.097656 17.660156 8.113281 17.441406 8.09375 17 L 9 17 L 9 9 C 9 8.5625 9.136719 8.140625 9.375 7.8125 L 11.0625 9.5 L 10.28125 10.28125 L 11.71875 11.71875 L 12.5 10.9375 L 13.0625 11.5 L 12.28125 12.28125 L 13.71875 13.71875 L 14.5 12.9375 L 15.28125 13.71875 L 16.71875 12.28125 L 15.9375 11.5 L 16.71875 10.71875 L 15.28125 9.28125 L 14.5 10.0625 L 13.9375 9.5 L 14.71875 8.71875 L 13.28125 7.28125 L 12.5 8.0625 Z M 11 16 C 11 17.105469 11.894531 18 13 18 C 14.105469 18 15 17.105469 15 16 Z M 17 16 C 17 17.105469 17.894531 18 19 18 C 20.105469 18 21 17.105469 21 16 Z M 20 21 C 17.160156 21 15.25 21.523438 14.03125 22.09375 C 13.421875 22.378906 12.980469 22.667969 12.6875 22.90625 C 12.394531 23.144531 12.21875 23.375 12.21875 23.375 L 13.78125 24.625 C 13.78125 24.625 13.800781 24.605469 13.96875 24.46875 C 14.136719 24.332031 14.414063 24.121094 14.875 23.90625 C 15.796875 23.476563 17.402344 23 20 23 Z "></path>
</g>
</svg>
