<?xml version="1.0" encoding="UTF-8"?>
<svg xmlns="http://www.w3.org/2000/svg" xmlns:xlink="http://www.w3.org/1999/xlink" viewBox="0 0 32 32" version="1.1">
<g>
<path d="M 14 3 C 13.449219 3 13 3.449219 13 4 C 13 4.550781 13.449219 5 14 5 C 14.550781 5 15 4.550781 15 4 C 15 3.449219 14.550781 3 14 3 Z M 14 5 L 9 5 C 7.164063 5 5.609375 6.289063 5.15625 8 L 2.875 8 L 3.625 9.4375 L 5 12.21875 L 5 26 C 5 27.09375 5.90625 28 7 28 L 21 28 C 22.09375 28 23 27.09375 23 26 L 23 24 L 24 24 C 26.199219 24 28 22.199219 28 20 L 28 15 C 28 12.800781 26.199219 11 24 11 L 23 11 L 23 9 C 23 6.816406 21.183594 5 19 5 Z M 9 7 L 19 7 C 19.640625 7 20.152344 7.449219 20.53125 8 L 7.46875 8 C 7.847656 7.449219 8.359375 7 9 7 Z M 6.125 10 L 13 10 L 13 20 L 8 20 L 8 22 L 20 22 L 20 20 L 15 20 L 15 10 L 21 10 L 21 26 L 7 26 L 7 11.6875 L 6.90625 11.5 Z M 23 13 L 24 13 C 25.117188 13 26 13.882813 26 15 L 26 20 C 26 21.117188 25.117188 22 24 22 L 23 22 Z "></path>
</g>
</svg>
