<?xml version="1.0" encoding="UTF-8"?>
<svg xmlns="http://www.w3.org/2000/svg" xmlns:xlink="http://www.w3.org/1999/xlink" viewBox="0 0 32 32" version="1.1">
<g>
<path d="M 14.4375 3.59375 L 13.34375 4.6875 L 13.34375 5.125 L 13.46875 9.3125 C 13.511719 10.738281 12.976563 12.148438 11.96875 13.15625 L 9.03125 16.0625 C 7.78125 17.324219 7 19.085938 7 21 C 7 24.855469 10.144531 28 14 28 C 17.855469 28 21 24.855469 21 21 C 21 18.632813 19.808594 16.546875 18 15.28125 C 18.425781 15.179688 18.867188 15.140625 19.3125 15.15625 L 23.5 15.28125 L 23.9375 15.3125 L 25.0625 14.1875 L 24.34375 13.5 L 15.15625 4.28125 Z M 15.40625 7.375 L 21.25 13.21875 L 19.375 13.15625 C 17.398438 13.09375 15.492188 13.851563 14.09375 15.25 L 11.125 18.21875 L 11.15625 18.25 C 11.042969 18.371094 10.914063 18.492188 10.8125 18.625 C 10.765625 18.6875 10.699219 18.71875 10.65625 18.78125 C 10.5625 18.921875 10.511719 19.070313 10.4375 19.21875 C 10.398438 19.300781 10.347656 19.382813 10.3125 19.46875 C 10.25 19.625 10.199219 19.804688 10.15625 19.96875 C 10.132813 20.054688 10.082031 20.128906 10.0625 20.21875 C 10.011719 20.476563 10 20.734375 10 21 C 10 21.273438 10.039063 21.554688 10.09375 21.8125 C 10.101563 21.859375 10.113281 21.890625 10.125 21.9375 C 10.175781 22.152344 10.226563 22.363281 10.3125 22.5625 C 10.320313 22.582031 10.335938 22.605469 10.34375 22.625 C 10.75 23.539063 11.488281 24.253906 12.40625 24.65625 C 12.421875 24.664063 12.421875 24.679688 12.4375 24.6875 C 12.636719 24.773438 12.847656 24.824219 13.0625 24.875 C 13.105469 24.886719 13.144531 24.898438 13.1875 24.90625 C 13.445313 24.960938 13.726563 25 14 25 C 15.472656 25 16.742188 24.191406 17.4375 23 L 14 23 C 13.464844 23 12.972656 22.785156 12.59375 22.40625 C 12.214844 22.027344 12 21.535156 12 21 C 12 20.480469 12.203125 20 12.5625 19.625 L 15.5 16.6875 C 15.617188 16.570313 15.75 16.480469 15.875 16.375 C 17.699219 17.121094 19 18.898438 19 21 C 19 23.773438 16.773438 26 14 26 C 11.226563 26 9 23.773438 9 21 C 9 19.632813 9.550781 18.402344 10.4375 17.5 L 10.4375 17.46875 L 13.375 14.5625 C 14.773438 13.164063 15.527344 11.226563 15.46875 9.25 Z M 15.5 19 C 14.132813 19 13 20.132813 13 21.5 L 13 22 L 15 22 L 15 21.5 C 15 21.214844 15.214844 21 15.5 21 C 15.785156 21 16 21.214844 16 21.5 L 16 22 L 18 22 L 18 21.5 C 18 20.132813 16.867188 19 15.5 19 Z M 23 22 L 23 23 L 21.75 23 C 21.566406 23.710938 21.265625 24.382813 20.90625 25 L 23 25 L 23 26 L 25 26 L 25 22 Z "></path>
</g>
</svg>
