<?xml version="1.0" encoding="UTF-8"?>
<svg xmlns="http://www.w3.org/2000/svg" xmlns:xlink="http://www.w3.org/1999/xlink" viewBox="0 0 32 32" version="1.1">
<g>
<path d="M 10 4 C 8.355469 4 7 5.355469 7 7 L 7 12.1875 L 9 11.75 L 9 7 C 9 6.433594 9.433594 6 10 6 L 22 6 C 22.566406 6 23 6.433594 23 7 L 23 11.75 L 25 12.1875 L 25 7 C 25 5.355469 23.644531 4 22 4 Z M 11.3125 9 L 11.0625 9.5625 L 9.3125 13.15625 L 5.75 14.03125 L 5 14.21875 L 5 25.28125 L 6.25 24.96875 L 9.46875 24.15625 L 11.0625 27.4375 L 11.3125 28 L 20.6875 28 L 20.9375 27.4375 L 22.53125 24.15625 L 25.75 24.96875 L 27 25.28125 L 27 14.21875 L 26.25 14.03125 L 22.6875 13.15625 L 20.9375 9.5625 L 20.6875 9 Z M 12.5625 11 L 19.4375 11 L 21.09375 14.4375 L 21.3125 14.84375 L 21.75 14.96875 L 25 15.78125 L 25 22.71875 L 22.25 22.03125 L 21.46875 21.84375 L 21.09375 22.5625 L 19.4375 26 L 12.5625 26 L 10.90625 22.5625 L 10.53125 21.84375 L 9.75 22.03125 L 7 22.71875 L 7 15.78125 L 10.25 14.96875 L 10.6875 14.84375 L 10.90625 14.4375 Z M 16 14 C 13.316406 14 11 15.949219 11 18.5 C 11 21.050781 13.316406 23 16 23 C 18.714844 23 21 20.925781 21 18.375 C 21 15.824219 18.648438 14 16 14 Z M 16 16 C 17.769531 16 19 17.058594 19 18.375 C 19 19.691406 17.703125 21 16 21 C 14.265625 21 13 19.816406 13 18.5 C 13 17.183594 14.265625 16 16 16 Z "></path>
</g>
</svg>
