<?xml version="1.0" encoding="UTF-8"?>
<svg xmlns="http://www.w3.org/2000/svg" xmlns:xlink="http://www.w3.org/1999/xlink" viewBox="0 0 32 32" version="1.1">
<g>
<path d="M 9 4 L 9 5 L 5 5 L 5 27 L 27 27 L 27 5 L 23 5 L 23 4 L 21 4 L 21 5 L 11 5 L 11 4 Z M 7 7 L 9 7 L 9 8 L 11 8 L 11 7 L 21 7 L 21 8 L 23 8 L 23 7 L 25 7 L 25 9 L 7 9 Z M 7 11 L 25 11 L 25 25 L 7 25 Z M 11 14 L 11 22 L 13 22 L 13 19 L 15 19 L 15 17 L 13 17 L 13 16 L 16 16 L 16 14 Z M 17 14 L 17 22 L 19 22 L 19 19 L 20 22 L 22 22 L 20.875 18.59375 C 21.558594 18.144531 22 17.371094 22 16.5 C 22 15.132813 20.867188 14 19.5 14 Z M 19 16 L 19.5 16 C 19.785156 16 20 16.214844 20 16.5 C 20 16.785156 19.785156 17 19.5 17 L 19 17 Z "></path>
</g>
</svg>
