<?xml version="1.0" encoding="UTF-8"?>
<svg xmlns="http://www.w3.org/2000/svg" xmlns:xlink="http://www.w3.org/1999/xlink" viewBox="0 0 32 32" version="1.1">
<g>
<path d="M 13.5 4 C 11.566406 4 10 5.566406 10 7.5 C 10 7.5 7 9.316406 7 13.5 C 7 15.183594 7.394531 16.480469 7.6875 17.25 C 7.277344 17.734375 7 18.316406 7 19 C 7 20.253906 7.863281 21.183594 8.96875 21.625 C 9.691406 23.402344 10.71875 24.957031 11.90625 26.0625 C 13.167969 27.238281 14.566406 28 16 28 C 17.433594 28 18.832031 27.238281 20.09375 26.0625 C 21.28125 24.957031 22.308594 23.402344 23.03125 21.625 C 24.136719 21.183594 25 20.253906 25 19 C 25 18.316406 24.722656 17.734375 24.3125 17.25 C 24.605469 16.480469 25 15.183594 25 13.5 C 25 9.316406 22 7.5 22 7.5 C 22 5.566406 20.433594 4 18.5 4 C 17.519531 4 16.636719 4.414063 16 5.0625 C 15.363281 4.414063 14.480469 4 13.5 4 Z M 12.5 6 C 12.628906 6 12.746094 6.058594 12.84375 6.15625 L 13.5 6.78125 L 14.15625 6.15625 C 14.351563 5.960938 14.648438 5.960938 14.84375 6.15625 C 15.039063 6.351563 15.039063 6.648438 14.84375 6.84375 L 14.21875 7.5 L 14.84375 8.15625 C 15.039063 8.351563 15.039063 8.648438 14.84375 8.84375 C 14.746094 8.941406 14.628906 9 14.5 9 C 14.371094 9 14.253906 8.941406 14.15625 8.84375 L 13.5 8.21875 L 12.84375 8.84375 C 12.746094 8.941406 12.628906 9 12.5 9 C 12.371094 9 12.253906 8.941406 12.15625 8.84375 C 11.960938 8.648438 11.960938 8.351563 12.15625 8.15625 L 12.78125 7.5 L 12.15625 6.84375 C 11.960938 6.648438 11.960938 6.351563 12.15625 6.15625 C 12.253906 6.058594 12.371094 6 12.5 6 Z M 17.5 6 C 17.628906 6 17.746094 6.058594 17.84375 6.15625 L 18.5 6.78125 L 19.15625 6.15625 C 19.351563 5.960938 19.648438 5.960938 19.84375 6.15625 C 20.039063 6.351563 20.039063 6.648438 19.84375 6.84375 L 19.21875 7.5 L 19.84375 8.15625 C 20.039063 8.351563 20.039063 8.648438 19.84375 8.84375 C 19.746094 8.941406 19.628906 9 19.5 9 C 19.371094 9 19.253906 8.941406 19.15625 8.84375 L 18.5 8.21875 L 17.84375 8.84375 C 17.746094 8.941406 17.628906 9 17.5 9 C 17.371094 9 17.253906 8.941406 17.15625 8.84375 C 16.960938 8.648438 16.960938 8.351563 17.15625 8.15625 L 17.78125 7.5 L 17.15625 6.84375 C 16.960938 6.648438 16.960938 6.351563 17.15625 6.15625 C 17.253906 6.058594 17.371094 6 17.5 6 Z M 15.46875 11 C 15.699219 10.988281 15.878906 11 16 11 C 16.964844 11 22 11 22 17 C 22 17.019531 22.003906 17.105469 22 17.25 L 21.96875 17.84375 L 22.5 18.125 C 22.808594 18.300781 23 18.625 23 19 C 23 19.515625 22.621094 19.902344 22.125 19.96875 L 21.53125 20.0625 L 21.3125 20.625 C 20.703125 22.25 19.738281 23.644531 18.71875 24.59375 C 17.699219 25.542969 16.632813 26 16 26 C 15.367188 26 14.300781 25.542969 13.28125 24.59375 C 12.261719 23.644531 11.296875 22.25 10.6875 20.625 L 10.46875 20.0625 L 9.875 19.96875 C 9.378906 19.902344 9 19.515625 9 19 C 9 18.625 9.191406 18.300781 9.5 18.125 L 10.03125 17.84375 L 10 17.25 C 9.996094 17.105469 10 17.019531 10 17 C 10 11.75 13.859375 11.082031 15.46875 11 Z M 11.15625 16 L 11.15625 17 C 11.777344 17 12.300781 17.035156 12.78125 17.0625 C 12.34375 17.167969 12 17.527344 12 18 C 12 18.550781 12.449219 19 13 19 C 13.550781 19 14 18.550781 14 18 C 14 17.59375 13.75 17.25 13.40625 17.09375 C 14.015625 17.144531 14.484375 17.210938 14.84375 17.28125 C 15.5625 17.425781 15.78125 17.5625 15.78125 17.5625 L 16 17.65625 L 16.21875 17.5625 C 16.21875 17.5625 16.433594 17.425781 17.15625 17.28125 C 17.515625 17.210938 17.984375 17.144531 18.59375 17.09375 C 18.25 17.25 18 17.59375 18 18 C 18 18.550781 18.449219 19 19 19 C 19.550781 19 20 18.550781 20 18 C 20 17.527344 19.65625 17.167969 19.21875 17.0625 C 19.699219 17.035156 20.222656 17 20.84375 17 L 20.84375 16 C 19.007813 16 17.765625 16.152344 16.96875 16.3125 C 16.320313 16.441406 16.117188 16.542969 16 16.59375 C 15.882813 16.542969 15.679688 16.441406 15.03125 16.3125 C 14.234375 16.152344 12.996094 16 11.15625 16 Z "></path>
</g>
</svg>
