<?xml version="1.0" encoding="UTF-8"?>
<svg xmlns="http://www.w3.org/2000/svg" xmlns:xlink="http://www.w3.org/1999/xlink" viewBox="0 0 32 32" version="1.1">
<g>
<path d="M 11 3 C 8.800781 3 7 4.800781 7 7 C 7 8.0625 7.425781 9.027344 8.109375 9.746094 C 6.261719 10.769531 5 12.742188 5 15 L 5 19.414063 L 7 21.414063 L 7 29 L 9 29 L 9 20.585938 L 7 18.585938 L 7 15 C 7 12.78125 8.78125 11 11 11 C 13.21875 11 15 12.78125 15 15 L 15 16 L 21 16 L 21 14 L 16.90625 14 C 16.597656 12.171875 15.460938 10.617188 13.890625 9.746094 C 14.574219 9.027344 15 8.0625 15 7 C 15 4.800781 13.199219 3 11 3 Z M 21 3 C 18.800781 3 17 4.800781 17 7 C 17 8.066406 17.429688 9.035156 18.117188 9.753906 C 17.867188 9.894531 17.625 10.042969 17.394531 10.214844 C 17.800781 10.757813 18.144531 11.347656 18.40625 11.984375 C 19.105469 11.378906 20.003906 11 21 11 C 23.207031 11 25 12.792969 25 15 L 25 18.585938 L 23 20.585938 L 23 29 L 25 29 L 25 21.414063 L 27 19.414063 L 27 15 C 27 12.738281 25.742188 10.765625 23.890625 9.742188 C 24.574219 9.027344 25 8.0625 25 7 C 25 4.800781 23.199219 3 21 3 Z M 11 5 C 12.117188 5 13 5.882813 13 7 C 13 8.117188 12.117188 9 11 9 C 9.882813 9 9 8.117188 9 7 C 9 5.882813 9.882813 5 11 5 Z M 21 5 C 22.117188 5 23 5.882813 23 7 C 23 8.117188 22.117188 9 21 9 C 19.882813 9 19 8.117188 19 7 C 19 5.882813 19.882813 5 21 5 Z M 13 19 L 13 29 L 15 29 L 15 19 Z M 17 19 L 17 29 L 19 29 L 19 19 Z "></path>
</g>
</svg>
