<?xml version="1.0" encoding="UTF-8"?>
<svg xmlns="http://www.w3.org/2000/svg" xmlns:xlink="http://www.w3.org/1999/xlink" viewBox="0 0 32 32" version="1.1">
<g>
<path d="M 6 5 C 5.449219 5 5 5.449219 5 6 C 5 6.550781 5.449219 7 6 7 C 6.550781 7 7 6.550781 7 6 C 7 5.449219 6.550781 5 6 5 Z M 6 7 L 5 7 L 5 27 L 7 27 L 7 24.75 L 13.28125 22.96875 L 14 22.75 L 14 5 L 13 5 C 11.15625 5 9.886719 5.933594 8.875 6.6875 C 8.199219 7.191406 7.632813 7.589844 7 7.8125 L 7 7 Z M 18 5 L 18 22.75 L 18.71875 22.96875 L 25 24.75 L 25 27 L 27 27 L 27 7 L 25 7 L 25 7.8125 C 24.367188 7.589844 23.800781 7.191406 23.125 6.6875 C 22.113281 5.933594 20.84375 5 19 5 Z M 26 7 C 26.550781 7 27 6.550781 27 6 C 27 5.449219 26.550781 5 26 5 C 25.449219 5 25 5.449219 25 6 C 25 6.550781 25.449219 7 26 7 Z M 12 7.25 L 12 21.25 L 7 22.65625 L 7 9.75 C 8.234375 9.46875 9.277344 8.898438 10.0625 8.3125 C 10.738281 7.808594 11.34375 7.46875 12 7.25 Z M 20 7.25 C 20.65625 7.46875 21.261719 7.808594 21.9375 8.3125 C 22.722656 8.898438 23.765625 9.46875 25 9.75 L 25 22.65625 L 20 21.25 Z M 10.5 14 C 10.222656 14 10 14.449219 10 15 C 10 15.550781 10.222656 16 10.5 16 C 10.777344 16 11 15.550781 11 15 C 11 14.449219 10.777344 14 10.5 14 Z M 21.5 14 C 21.222656 14 21 14.449219 21 15 C 21 15.550781 21.222656 16 21.5 16 C 21.777344 16 22 15.550781 22 15 C 22 14.449219 21.777344 14 21.5 14 Z "></path>
</g>
</svg>
