<?xml version="1.0" encoding="UTF-8"?>
<svg xmlns="http://www.w3.org/2000/svg" xmlns:xlink="http://www.w3.org/1999/xlink" viewBox="0 0 32 32" version="1.1">
<g>
<path d="M 13 4 C 10.800781 4 9 5.800781 9 8 C 9 9.113281 9.476563 10.117188 10.21875 10.84375 C 8.886719 11.746094 8 13.285156 8 15 L 10 15 C 10 13.34375 11.34375 12 13 12 C 14.65625 12 16 13.34375 16 15 L 18 15 C 18 13.285156 17.113281 11.746094 15.78125 10.84375 C 16.523438 10.117188 17 9.113281 17 8 C 17 5.800781 15.199219 4 13 4 Z M 13 6 C 14.117188 6 15 6.882813 15 8 C 15 9.117188 14.117188 10 13 10 C 11.882813 10 11 9.117188 11 8 C 11 6.882813 11.882813 6 13 6 Z M 23 12 C 21.355469 12 20 13.355469 20 15 L 22 15 C 22 14.445313 22.445313 14 23 14 C 23.554688 14 24 14.445313 24 15 L 26 15 C 26 13.355469 24.644531 12 23 12 Z M 4 16 L 4 18 L 5 18 L 5 28 L 27 28 L 27 18 L 28 18 L 28 16 Z M 7 18 L 25 18 L 25 26 L 7 26 Z "></path>
</g>
</svg>
