<?xml version="1.0" encoding="UTF-8"?>
<svg xmlns="http://www.w3.org/2000/svg" xmlns:xlink="http://www.w3.org/1999/xlink" viewBox="0 0 32 32" version="1.1">
<g>
<path d="M 6 5 C 5.449219 5 5 5.449219 5 6 C 5 6.550781 5.449219 7 6 7 C 6.550781 7 7 6.550781 7 6 C 7 5.449219 6.550781 5 6 5 Z M 6 7 L 5 7 L 5 27 L 7 27 L 7 25 L 25 25 L 25 27 L 27 27 L 27 7 L 25 7 L 25 7.9375 C 23.347656 7.78125 22.300781 7.246094 21.15625 6.625 C 19.796875 5.886719 18.265625 5 16 5 C 13.734375 5 12.203125 5.886719 10.84375 6.625 C 9.699219 7.246094 8.652344 7.78125 7 7.9375 L 7 7 Z M 26 7 C 26.550781 7 27 6.550781 27 6 C 27 5.449219 26.550781 5 26 5 C 25.449219 5 25 5.449219 25 6 C 25 6.550781 25.449219 7 26 7 Z M 15 7.0625 L 15 23 L 7 23 L 7 9.84375 C 9.050781 9.644531 10.621094 9.023438 11.8125 8.375 C 12.925781 7.769531 13.796875 7.246094 15 7.0625 Z M 17 7.0625 C 18.203125 7.246094 19.074219 7.769531 20.1875 8.375 C 21.378906 9.023438 22.949219 9.644531 25 9.84375 L 25 23 L 17 23 Z M 13 16 C 12.449219 16 12 16.449219 12 17 C 12 17.550781 12.449219 18 13 18 C 13.550781 18 14 17.550781 14 17 C 14 16.449219 13.550781 16 13 16 Z M 19 16 C 18.449219 16 18 16.449219 18 17 C 18 17.550781 18.449219 18 19 18 C 19.550781 18 20 17.550781 20 17 C 20 16.449219 19.550781 16 19 16 Z "></path>
</g>
</svg>
