<?xml version="1.0" encoding="UTF-8"?>
<svg xmlns="http://www.w3.org/2000/svg" xmlns:xlink="http://www.w3.org/1999/xlink" viewBox="0 0 32 32" version="1.1">
<g>
<path d="M 16 2 C 10.128906 2 6.738281 5.097656 5.175781 7.03125 C 4.984375 6.949219 4.789063 6.871094 4.578125 6.828125 C 4.050781 6.71875 3.265625 6.796875 2.804688 7.382813 C 2.410156 7.886719 2.277344 8.425781 2.164063 9.039063 C 2.050781 9.648438 2 10.324219 2 11 C 2 11.675781 2.050781 12.351563 2.164063 12.964844 C 2.277344 13.574219 2.410156 14.113281 2.804688 14.621094 L 2.808594 14.621094 C 3.117188 15.011719 3.535156 15.085938 3.804688 15.09375 C 3.875 15.097656 3.933594 15.085938 4 15.082031 L 4 18 L 6 18 L 6 14.296875 C 6.367188 14.070313 6.722656 13.8125 7.023438 13.5 C 7.378906 13.140625 7.75 12.710938 7.75 12 L 7.75 10 C 7.75 9.335938 7.449219 8.914063 7.132813 8.515625 C 7.027344 8.386719 6.902344 8.265625 6.78125 8.144531 C 8.058594 6.535156 10.859375 4 16 4 C 21.019531 4 23.808594 6.417969 25.128906 8.03125 C 24.964844 8.179688 24.804688 8.328125 24.664063 8.492188 C 24.324219 8.886719 24 9.308594 24 10 L 24 12 C 24 12.742188 24.402344 13.164063 24.777344 13.523438 C 25.136719 13.871094 25.5625 14.15625 26 14.402344 L 26 18 L 28 18 L 28 15.085938 C 28.046875 15.085938 28.085938 15.09375 28.136719 15.09375 C 28.40625 15.085938 28.808594 15.03125 29.132813 14.644531 C 29.554688 14.144531 29.699219 13.59375 29.824219 12.976563 C 29.945313 12.359375 30 11.679688 30 11 C 30 10.320313 29.945313 9.640625 29.824219 9.023438 C 29.699219 8.40625 29.554688 7.855469 29.132813 7.355469 C 28.644531 6.777344 27.882813 6.71875 27.34375 6.824219 C 27.152344 6.863281 26.976563 6.933594 26.796875 7 C 25.222656 5.0625 21.839844 2 16 2 Z M 10.996094 7 C 10.125 7 9.207031 7.25 8.328125 8.011719 C 7.871094 8.410156 7.910156 9.074219 8.328125 8.867188 C 9.074219 8.507813 9.738281 8.332031 10.328125 8.332031 C 12.125 8.332031 13.015625 10.433594 13.292969 10.707031 C 13.683594 11.097656 14.316406 11.097656 14.707031 10.707031 C 15.097656 10.316406 15.097656 9.683594 14.707031 9.292969 C 14.464844 9.050781 13.289063 7 10.996094 7 Z M 21.003906 7 C 18.710938 7 17.535156 9.050781 17.292969 9.292969 C 16.902344 9.683594 16.902344 10.316406 17.292969 10.707031 C 17.683594 11.097656 18.316406 11.097656 18.707031 10.707031 C 18.984375 10.433594 19.875 8.332031 21.671875 8.332031 C 22.261719 8.332031 22.925781 8.507813 23.671875 8.867188 C 24.089844 9.074219 24.128906 8.410156 23.671875 8.011719 C 22.792969 7.25 21.875 7 21.003906 7 Z M 27.660156 8.816406 C 27.710938 8.921875 27.792969 9.066406 27.859375 9.414063 C 27.949219 9.859375 28 10.429688 28 11 C 28 11.570313 27.949219 12.140625 27.859375 12.585938 C 27.816406 12.816406 27.78125 12.84375 27.730469 12.984375 C 27.515625 12.910156 27.277344 12.824219 27.015625 12.679688 C 26.679688 12.496094 26.351563 12.265625 26.160156 12.078125 C 25.96875 11.894531 26 11.757813 26 12 L 26 10 C 26 10.191406 26.003906 10.003906 26.183594 9.796875 C 26.363281 9.585938 26.652344 9.332031 26.953125 9.140625 C 27.226563 8.964844 27.492188 8.859375 27.660156 8.816406 Z M 4.304688 8.851563 C 4.453125 8.902344 4.640625 8.972656 4.859375 9.125 C 5.136719 9.3125 5.40625 9.5625 5.570313 9.769531 C 5.738281 9.976563 5.75 10.164063 5.75 10 L 5.75 12 C 5.75 11.789063 5.773438 11.921875 5.59375 12.105469 C 5.417969 12.285156 5.117188 12.511719 4.808594 12.691406 C 4.597656 12.816406 4.421875 12.878906 4.242188 12.953125 C 4.195313 12.816406 4.167969 12.804688 4.132813 12.597656 C 4.046875 12.148438 4 11.574219 4 11 C 4 10.425781 4.046875 9.851563 4.132813 9.398438 C 4.191406 9.082031 4.253906 8.976563 4.304688 8.851563 Z M 11.5 11.480469 C 10.425781 11.480469 9 12.015625 9 13.28125 C 9 14.539063 10.359375 13.742188 11.433594 13.742188 C 12.503906 13.742188 14 14.464844 14 13.492188 C 14 12.519531 12.574219 11.480469 11.5 11.480469 Z M 20.5 11.484375 C 19.425781 11.480469 18 12.519531 18 13.492188 C 18 14.464844 19.496094 13.742188 20.566406 13.742188 C 21.640625 13.742188 23 14.539063 23 13.28125 C 23 12.015625 21.574219 11.484375 20.5 11.484375 Z M 9 16 C 8.050781 16.625 7 17.777344 7 19 C 7 20.5 8.246094 22.066406 9.710938 22.703125 C 10.882813 23.378906 12.816406 24 16 24 C 19.183594 24 21.117188 23.378906 22.292969 22.703125 C 23.753906 22.066406 25 20.5 25 19 C 25 17.777344 23.949219 16.625 23 16 C 24 18 24 20 21 20 C 20.601563 20 20.332031 19.992188 20 19.816406 C 19.609375 19.386719 19.269531 18.804688 19 18 C 17 20 15 20 13 18 C 12.695313 18.914063 12.203125 19.546875 11.640625 19.988281 C 8.011719 19.867188 8.03125 17.9375 9 16 Z M 8 24 C 8 25.316406 8.796875 26.257813 9.523438 26.609375 C 9.859375 26.773438 10.148438 26.839844 10.378906 26.886719 C 10.503906 27.101563 10.558594 27.238281 10.832031 27.601563 C 11.054688 27.894531 11.316406 28.199219 11.648438 28.46875 C 11.980469 28.734375 12.414063 29 13 29 L 19 29 C 19.585938 29 20.019531 28.734375 20.351563 28.46875 C 20.683594 28.199219 20.945313 27.894531 21.167969 27.601563 C 21.457031 27.214844 21.527344 27.054688 21.644531 26.84375 C 21.921875 26.804688 22.039063 26.847656 22.449219 26.644531 C 23.1875 26.273438 24 25.332031 24 24 L 22 24 C 22 24.667969 21.8125 24.726563 21.550781 24.855469 C 21.292969 24.984375 21 25 21 25 L 20.386719 25 L 20.109375 25.546875 C 20.109375 25.546875 19.886719 25.980469 19.570313 26.398438 C 19.414063 26.605469 19.234375 26.800781 19.097656 26.90625 C 18.964844 27.015625 18.90625 27 19 27 L 13 27 C 13.09375 27 13.035156 27.015625 12.902344 26.90625 C 12.765625 26.800781 12.585938 26.605469 12.429688 26.398438 C 12.113281 25.980469 11.890625 25.546875 11.890625 25.546875 L 11.816406 25.40625 L 11.707031 25.292969 C 11.40625 24.992188 11.300781 25.039063 11.222656 25.015625 C 11.144531 24.996094 11.097656 24.988281 11.058594 24.984375 C 10.972656 24.96875 10.90625 24.957031 10.828125 24.941406 C 10.679688 24.914063 10.523438 24.875 10.402344 24.8125 C 10.15625 24.695313 10 24.683594 10 24 Z "></path>
</g>
</svg>
