<?xml version="1.0" encoding="UTF-8"?>
<svg xmlns="http://www.w3.org/2000/svg" xmlns:xlink="http://www.w3.org/1999/xlink" viewBox="0 0 32 32" version="1.1">
<g>
<path d="M 21 5 C 18.710938 5 16.609375 5.859375 15 7.265625 L 15 13 L 15.015625 13 C 15.492188 10.164063 18.027344 8 21 8 C 24.3125 8 27 10.6875 27 14 C 27 17.3125 24.3125 20 21 20 C 19.230469 20 17.640625 19.234375 16.542969 18.019531 C 16.527344 17.996094 14.632813 15.8125 13.992188 15.117188 C 12.757813 13.785156 10.960938 13 9 13 C 5.132813 13 2 16.132813 2 20 C 2 23.867188 5.132813 27 9 27 C 10.488281 27 11.863281 26.527344 13 25.734375 L 13 21 C 13 21 12 24 9 24 C 6.789063 24 5 22.210938 5 20 C 5 17.789063 6.789063 16 9 16 C 10.21875 16 11.304688 16.546875 12.035156 17.40625 C 12.035156 17.40625 14.492188 20.183594 14.664063 20.363281 C 16.269531 22.007813 18.523438 23 21 23 C 25.972656 23 30 18.972656 30 14 C 30 9.027344 25.972656 5 21 5 Z "></path>
</g>
</svg>
