<?xml version="1.0"?>
<svg xmlns="http://www.w3.org/2000/svg" viewBox="0 0 32 32">
    <path d="M 27 2.7792969 L 20.898438 4 L 5 4 L 5 5 L 5 27 L 7 27 L 7 28 L 9 28 L 9 27 L 17 27 L 17 28 L 19 28 L 19 27 L 20.898438 27 L 27 28.220703 L 27 27 L 27 2.7792969 z M 25 5.2207031 L 25 25.779297 L 22 25.179688 L 22 5.8203125 L 25 5.2207031 z M 7 6 L 20 6 L 20 11 L 18 11 L 18 8 L 14 8 L 14 11 L 11 11 L 11 8 L 9 8 L 9 11 L 7 11 L 7 6 z M 7 13 L 20 13 L 20 18 L 15 18 L 15 15 L 13 15 L 13 18 L 11 18 L 11 15 L 9 15 L 9 18 L 7 18 L 7 13 z M 7 20 L 20 20 L 20 25 L 18 25 L 18 22 L 16 22 L 16 25 L 13 25 L 13 22 L 9 22 L 9 25 L 7 25 L 7 20 z"></path>
</svg>
