<?xml version="1.0" encoding="UTF-8"?>
<svg xmlns="http://www.w3.org/2000/svg" xmlns:xlink="http://www.w3.org/1999/xlink" viewBox="0 0 32 32" version="1.1">
<g>
<path d="M 3 6 L 3 26 L 29 26 L 29 6 Z M 5 8 L 27 8 L 27 21.5625 L 19.21875 13.78125 L 18.5 13.09375 L 17.78125 13.78125 L 15.5 16.0625 L 11.71875 12.28125 L 11 11.59375 L 10.28125 12.28125 L 5 17.5625 Z M 22.5 9 C 21.132813 9 20 10.132813 20 11.5 C 20 12.867188 21.132813 14 22.5 14 C 23.867188 14 25 12.867188 25 11.5 C 25 10.132813 23.867188 9 22.5 9 Z M 22.5 11 C 22.789063 11 23 11.210938 23 11.5 C 23 11.789063 22.789063 12 22.5 12 C 22.210938 12 22 11.789063 22 11.5 C 22 11.210938 22.210938 11 22.5 11 Z M 11 14.4375 L 14.0625 17.5 L 7.5625 24 L 5 24 L 5 20.4375 Z M 18.5 15.9375 L 26.5625 24 L 10.4375 24 Z "></path>
</g>
</svg>
