<?xml version="1.0" encoding="UTF-8"?>
<svg xmlns="http://www.w3.org/2000/svg" xmlns:xlink="http://www.w3.org/1999/xlink" viewBox="0 0 32 32" version="1.1">
<g>
<path d="M 19.5 5 C 17.578125 5 16 6.578125 16 8.5 C 16 10.421875 17.578125 12 19.5 12 C 21.421875 12 23 10.421875 23 8.5 C 23 6.578125 21.421875 5 19.5 5 Z M 19.5 7 C 20.339844 7 21 7.660156 21 8.5 C 21 9.339844 20.339844 10 19.5 10 C 18.660156 10 18 9.339844 18 8.5 C 18 7.660156 18.660156 7 19.5 7 Z M 17.0625 12.5625 C 15.878906 12.5625 14.761719 13.234375 14.1875 14.34375 L 12.3125 17.9375 C 11.957031 18.625 11.921875 19.441406 12.21875 20.15625 C 12.515625 20.871094 13.105469 21.394531 13.84375 21.625 L 15.75 22.21875 L 14.6875 27 L 16.75 27 L 17.6875 22.65625 C 17.917969 21.632813 17.34375 20.625 16.34375 20.3125 L 14.4375 19.71875 C 14.203125 19.644531 14.101563 19.472656 14.0625 19.375 C 14.023438 19.277344 13.980469 19.09375 14.09375 18.875 L 15.96875 15.25 C 16.167969 14.863281 16.53125 14.632813 16.9375 14.59375 L 17.15625 17.8125 C 17.203125 18.476563 17.578125 19.074219 18.15625 19.40625 L 21.03125 21.0625 L 22.03125 19.34375 L 19.15625 17.6875 L 18.84375 13.03125 L 18.25 12.8125 C 17.863281 12.660156 17.457031 12.5625 17.0625 12.5625 Z M 18.875 23.40625 L 18.15625 27 L 19.84375 27 Z M 10.6875 23.5 C 9.488281 23.898438 10.199219 25.09375 9.5 25.09375 C 9.898438 25.894531 11.40625 25.90625 11.40625 25.90625 C 11.40625 25.90625 9.914063 26.40625 9.3125 25.40625 C 8.3125 25.40625 8 27 8 27 L 13 27 C 13 24.699219 10.886719 24.898438 10.6875 23.5 Z "></path>
</g>
</svg>
