<?xml version="1.0" encoding="UTF-8"?>
<svg xmlns="http://www.w3.org/2000/svg" xmlns:xlink="http://www.w3.org/1999/xlink" viewBox="0 0 32 32" version="1.1">
<g>
<path d="M 16 4 C 14.191406 4 12.699219 4.675781 11.59375 5.65625 C 10.488281 6.636719 9.742188 7.878906 9.21875 9.09375 C 8.410156 10.980469 8.183594 12.515625 8.09375 13.25 C 7.988281 13.285156 7.988281 13.265625 7.875 13.3125 C 7.621094 13.417969 7.335938 13.53125 7.0625 13.78125 C 6.789063 14.03125 6.5 14.476563 6.5 15 C 6.5 16.925781 7.46875 17.910156 8 18.375 C 7.953125 18.964844 7.855469 20.699219 8.5625 22.8125 C 8.980469 24.0625 9.691406 25.382813 10.90625 26.375 C 12.121094 27.367188 13.816406 28 16 28 C 18.183594 28 19.878906 27.371094 21.09375 26.375 C 22.308594 25.378906 23.019531 24.0625 23.4375 22.8125 C 24.136719 20.71875 24.046875 18.984375 24 18.375 C 24.53125 17.910156 25.5 16.925781 25.5 15 C 25.5 14.476563 25.210938 14.03125 24.9375 13.78125 C 24.664063 13.53125 24.378906 13.417969 24.125 13.3125 C 24.011719 13.265625 24.011719 13.285156 23.90625 13.25 C 23.816406 12.515625 23.589844 10.980469 22.78125 9.09375 C 22.257813 7.878906 21.511719 6.636719 20.40625 5.65625 C 19.300781 4.675781 17.808594 4 16 4 Z M 16 6 C 17.328125 6 18.265625 6.449219 19.0625 7.15625 C 19.859375 7.863281 20.492188 8.871094 20.9375 9.90625 C 21.824219 11.976563 22 14.09375 22 14.09375 L 22.0625 14.84375 L 22.84375 15 C 22.84375 15 23.128906 15.054688 23.375 15.15625 C 23.410156 15.171875 23.410156 15.171875 23.4375 15.1875 C 23.332031 16.511719 22.4375 17.15625 22.4375 17.15625 L 21.9375 17.5 L 22 18.125 C 22 18.125 22.230469 20.191406 21.5625 22.1875 C 21.417969 22.621094 21.230469 23.042969 21 23.4375 L 19.9375 20.59375 L 19.75 20.125 L 19.28125 20 C 18.210938 19.679688 17.59375 19.1875 17.59375 19.1875 L 17.1875 18.875 L 16.6875 19.0625 C 16.6875 19.0625 16.117188 19.1875 16 19.1875 C 15.882813 19.1875 15.3125 19.0625 15.3125 19.0625 L 14.8125 18.875 L 14.40625 19.1875 C 14.40625 19.1875 13.789063 19.679688 12.71875 20 L 12.25 20.125 L 12.0625 20.59375 L 11 23.4375 C 10.769531 23.042969 10.582031 22.621094 10.4375 22.1875 C 9.769531 20.191406 10 18.09375 10 18.09375 L 10.0625 17.5 L 9.5625 17.15625 C 9.5625 17.15625 8.667969 16.511719 8.5625 15.1875 C 8.589844 15.171875 8.589844 15.171875 8.625 15.15625 C 8.871094 15.054688 9.15625 15 9.15625 15 L 9.9375 14.84375 L 10 14.09375 C 10 14.09375 10.175781 11.976563 11.0625 9.90625 C 11.507813 8.871094 12.140625 7.863281 12.9375 7.15625 C 13.734375 6.449219 14.671875 6 16 6 Z M 13 15 C 12.171875 15 11.5 15.671875 11.5 16.5 L 14.5 16.5 C 14.5 15.671875 13.828125 15 13 15 Z M 19 15 C 18.171875 15 17.5 15.671875 17.5 16.5 L 20.5 16.5 C 20.5 15.671875 19.828125 15 19 15 Z M 15.15625 21.03125 C 15.390625 21.101563 15.539063 21.1875 16 21.1875 C 16.460938 21.1875 16.613281 21.101563 16.84375 21.03125 C 17.039063 21.164063 17.519531 21.371094 18.1875 21.65625 L 19.5 25.03125 C 18.863281 25.46875 18.070313 25.8125 17 25.9375 L 17 23.5 L 15 23.5 L 15 25.9375 C 13.929688 25.8125 13.136719 25.46875 12.5 25.03125 L 13.8125 21.65625 C 14.480469 21.371094 14.960938 21.164063 15.15625 21.03125 Z "></path>
</g>
</svg>
