<?xml version="1.0" encoding="UTF-8"?>
<svg xmlns="http://www.w3.org/2000/svg" xmlns:xlink="http://www.w3.org/1999/xlink" viewBox="0 0 32 32" version="1.1">
<g>
<path d="M 12.4375 3 C 9.78125 3 6.6875 4.0625 6.6875 4.0625 L 5.90625 4.3125 L 6 5.09375 L 8 24.09375 L 8.09375 25 L 9 25 L 9 25.5 C 9 27.421875 10.578125 29 12.5 29 C 14.421875 29 16 27.421875 16 25.5 L 16 25 L 17 25 L 17 25.5 C 17 27.421875 18.578125 29 20.5 29 C 22.421875 29 24 27.421875 24 25.5 L 24 25 L 24.90625 25 L 25 24.09375 L 27 5.09375 L 27.09375 4.28125 L 26.3125 4.03125 C 26.3125 4.03125 23.09375 3 20.4375 3 C 19.171875 3 17.828125 3.253906 16.75 3.5 L 16.78125 3.59375 C 15.601563 3.304688 13.957031 3 12.4375 3 Z M 12.4375 5 C 14.085938 5 15.996094 5.5 16.90625 5.75 L 15.5 19.21875 L 15.09375 23 L 9.90625 23 L 8.09375 5.71875 C 8.984375 5.464844 10.804688 5 12.4375 5 Z M 20.4375 5 C 22.085938 5 23.996094 5.5 24.90625 5.75 L 23.09375 23 L 17.90625 23 L 17.53125 19.1875 L 19 5.09375 C 19.5 5.027344 19.996094 5 20.4375 5 Z M 12 7 C 11.449219 7 11 7.449219 11 8 C 11 8.550781 11.449219 9 12 9 C 12.550781 9 13 8.550781 13 8 C 13 7.449219 12.550781 7 12 7 Z M 21 7 C 20.449219 7 20 7.449219 20 8 C 20 8.550781 20.449219 9 21 9 C 21.550781 9 22 8.550781 22 8 C 22 7.449219 21.550781 7 21 7 Z M 12 11 C 11.449219 11 11 11.449219 11 12 C 11 12.550781 11.449219 13 12 13 C 12.550781 13 13 12.550781 13 12 C 13 11.449219 12.550781 11 12 11 Z M 21 11 C 20.449219 11 20 11.449219 20 12 C 20 12.550781 20.449219 13 21 13 C 21.550781 13 22 12.550781 22 12 C 22 11.449219 21.550781 11 21 11 Z M 12 15 C 11.449219 15 11 15.449219 11 16 C 11 16.550781 11.449219 17 12 17 C 12.550781 17 13 16.550781 13 16 C 13 15.449219 12.550781 15 12 15 Z M 21 15 C 20.449219 15 20 15.449219 20 16 C 20 16.550781 20.449219 17 21 17 C 21.550781 17 22 16.550781 22 16 C 22 15.449219 21.550781 15 21 15 Z M 12 19 C 11.449219 19 11 19.449219 11 20 C 11 20.550781 11.449219 21 12 21 C 12.550781 21 13 20.550781 13 20 C 13 19.449219 12.550781 19 12 19 Z M 21 19 C 20.449219 19 20 19.449219 20 20 C 20 20.550781 20.449219 21 21 21 C 21.550781 21 22 20.550781 22 20 C 22 19.449219 21.550781 19 21 19 Z M 11 25 L 14 25 L 14 25.5 C 14 26.339844 13.339844 27 12.5 27 C 11.660156 27 11 26.339844 11 25.5 Z M 19 25 L 22 25 L 22 25.5 C 22 26.339844 21.339844 27 20.5 27 C 19.660156 27 19 26.339844 19 25.5 Z "></path>
</g>
</svg>
