<?xml version="1.0" encoding="UTF-8"?>
<svg xmlns="http://www.w3.org/2000/svg" xmlns:xlink="http://www.w3.org/1999/xlink" viewBox="0 0 32 32" version="1.1">
<g>
<path d="M 0.25 7 L 1.125 8.5 L 5.46875 15.96875 L 5.46875 16 L 5.78125 16.5 L 9.625 23.0625 C 10.324219 24.253906 11.613281 25 13 25 L 21.25 25 L 21.53125 24.5 L 22.96875 22.0625 L 24.21875 24 C 24.226563 24.011719 24.242188 24.019531 24.25 24.03125 C 24.636719 24.628906 25.289063 25 26 25 L 31.75 25 L 26.5 16 L 26.21875 15.5 L 22.375 8.9375 C 21.675781 7.746094 20.386719 7 19 7 L 10.75 7 L 10.4375 7.5 L 9.0625 9.875 L 7.875 8 C 7.492188 7.382813 6.820313 7 6.09375 7 Z M 3.75 9 L 6.09375 9 C 6.132813 9 6.140625 9.003906 6.15625 9.03125 L 7.90625 11.84375 L 6.65625 14 Z M 11.90625 9 L 14.75 9 L 13.5 11 L 13.4375 11 L 13.15625 11.46875 L 10.6875 15.46875 L 10.375 16 L 10.6875 16.53125 L 13.15625 20.53125 L 13.4375 21 L 16.21875 21 L 14.9375 23 L 13 23 C 12.3125 23 11.675781 22.632813 11.34375 22.0625 L 7.78125 16 Z M 17.09375 9 L 19 9 C 19.6875 9 20.324219 9.367188 20.65625 9.9375 L 24.21875 16 L 20.09375 23 L 17.28125 23 L 21.4375 16.53125 L 21.78125 16 L 21.4375 15.46875 L 18.84375 11.46875 L 18.53125 11 L 15.84375 11 Z M 14.59375 13 L 17.46875 13 L 19.40625 16 L 17.46875 19 L 14.5625 19 L 12.71875 16 L 13.15625 15.28125 Z M 25.34375 17.96875 L 28.25 23 L 26 23 C 25.960938 23 25.921875 22.992188 25.90625 22.96875 L 25.90625 22.9375 L 24.09375 20.125 Z "></path>
</g>
</svg>
