<?xml version="1.0" encoding="UTF-8"?>
<svg xmlns="http://www.w3.org/2000/svg" xmlns:xlink="http://www.w3.org/1999/xlink" viewBox="0 0 32 32" version="1.1">
<g>
<path d="M 16 3.90625 L 15.59375 4.09375 L 4.59375 8.96875 L 4 9.25 L 4 28 L 10 28 L 10 18 L 22 18 L 22 28 L 28 28 L 28 9.25 L 27.40625 8.96875 L 16.40625 4.09375 Z M 16 6.09375 L 26 10.5625 L 26 26 L 24 26 L 24 17.1875 C 24.027344 17.054688 24.027344 16.914063 24 16.78125 L 24 12 L 8 12 L 8 16.6875 C 7.941406 16.882813 7.941406 17.085938 8 17.28125 L 8 26 L 6 26 L 6 10.5625 Z M 10 14 L 15 14 C 15 14.550781 15.449219 15 16 15 C 16.550781 15 17 14.550781 17 14 L 22 14 L 22 16 L 10 16 Z "></path>
</g>
</svg>
