<?xml version="1.0" encoding="UTF-8"?>
<svg xmlns="http://www.w3.org/2000/svg" xmlns:xlink="http://www.w3.org/1999/xlink" viewBox="0 0 32 32" version="1.1">
<g>
<path d="M 16 4.90625 L 3.625 10.0625 L 3 10.34375 L 3 26 L 5 26 L 5 11.6875 L 16 7.09375 L 27 11.6875 L 27 26 L 29 26 L 29 10.34375 L 28.375 10.0625 Z M 11.5 11 C 10.15625 11 9.078125 11.9375 8.65625 13.0625 L 8.65625 13.09375 L 7.25 17.375 L 7.34375 17.40625 C 7.183594 17.761719 7 18.175781 7 18.3125 L 7 22 C 7 22.523438 7.183594 23.058594 7.5625 23.4375 C 7.691406 23.566406 7.84375 23.664063 8 23.75 L 8 25 C 8 25.601563 8.398438 26 9 26 C 9.601563 26 10 25.601563 10 25 L 10 24 L 22 24 L 22 25 C 22 25.601563 22.398438 26 23 26 C 23.601563 26 24 25.601563 24 25 L 24 23.75 C 24.15625 23.664063 24.308594 23.566406 24.4375 23.4375 C 24.816406 23.058594 25 22.523438 25 22 L 25 18.3125 C 25 18.136719 24.960938 17.753906 24.8125 17.375 L 24.84375 17.375 L 23.4375 13.09375 L 23.4375 13.0625 C 23.015625 11.9375 21.9375 11 20.59375 11 Z M 11.5 13 L 20.59375 13 C 21.050781 13 21.382813 13.273438 21.5625 13.75 L 22.28125 16 L 9.8125 16 L 10.5625 13.71875 C 10.746094 13.273438 11.0625 13 11.5 13 Z M 9.15625 18 L 22.9375 18 L 22.96875 18.09375 L 23 18.15625 C 22.980469 18.117188 23 18.113281 23 18.3125 L 23 22 L 9 22 L 9 18.3125 L 9.0625 18.25 Z M 11 19 C 10.449219 19 10 19.449219 10 20 C 10 20.550781 10.449219 21 11 21 C 11.550781 21 12 20.550781 12 20 C 12 19.449219 11.550781 19 11 19 Z M 21 19 C 20.449219 19 20 19.449219 20 20 C 20 20.550781 20.449219 21 21 21 C 21.550781 21 22 20.550781 22 20 C 22 19.449219 21.550781 19 21 19 Z "></path>
</g>
</svg>
