<?xml version="1.0" encoding="UTF-8"?>
<svg xmlns="http://www.w3.org/2000/svg" xmlns:xlink="http://www.w3.org/1999/xlink" viewBox="0 0 32 32" version="1.1">
<g>
<path d="M 21.78125 0.675781 L 16.503906 7.269531 L 21.921875 10.519531 L 20.433594 13 L 3 13 L 3 28 L 6.1875 28 C 6.605469 29.15625 7.707031 30 9 30 C 10.292969 30 11.394531 29.15625 11.8125 28 L 22.1875 28 C 22.605469 29.15625 23.707031 30 25 30 C 26.292969 30 27.394531 29.15625 27.8125 28 L 30 28 L 30 20.585938 L 25.414063 16 L 21 16 L 21 15.941406 L 27.859375 4.515625 L 27.171875 4.101563 L 26.910156 3.9375 Z M 22.21875 3.324219 L 24.988281 5.085938 L 22.6875 8.644531 L 19.496094 6.734375 Z M 15 7 C 14.449219 7 14 7.449219 14 8 C 14 8.550781 14.449219 9 15 9 C 15.550781 9 16 8.550781 16 8 C 16 7.449219 15.550781 7 15 7 Z M 18 9 C 17.449219 9 17 9.449219 17 10 C 17 10.550781 17.449219 11 18 11 C 18.550781 11 19 10.550781 19 10 C 19 9.449219 18.550781 9 18 9 Z M 15 10 C 14.449219 10 14 10.449219 14 11 C 14 11.550781 14.449219 12 15 12 C 15.550781 12 16 11.550781 16 11 C 16 10.449219 15.550781 10 15 10 Z M 5 15 L 19 15 L 19 15.390625 L 14.140625 23.484375 L 15.859375 24.515625 L 19.765625 18 L 24.585938 18 L 28 21.414063 L 28 26 L 27.8125 26 C 27.394531 24.84375 26.292969 24 25 24 C 23.707031 24 22.605469 24.84375 22.1875 26 L 11.8125 26 C 11.394531 24.84375 10.292969 24 9 24 C 7.707031 24 6.605469 24.84375 6.1875 26 L 5 26 Z M 9 26 C 9.5625 26 10 26.4375 10 27 C 10 27.5625 9.5625 28 9 28 C 8.4375 28 8 27.5625 8 27 C 8 26.4375 8.4375 26 9 26 Z M 25 26 C 25.5625 26 26 26.4375 26 27 C 26 27.5625 25.5625 28 25 28 C 24.4375 28 24 27.5625 24 27 C 24 26.4375 24.4375 26 25 26 Z "></path>
</g>
</svg>
