<?xml version="1.0" encoding="UTF-8"?>
<svg xmlns="http://www.w3.org/2000/svg" xmlns:xlink="http://www.w3.org/1999/xlink" viewBox="0 0 32 32" version="1.1">
<g>
<path d="M 26.84375 1.96875 C 24.703125 1.984375 20.300781 2.351563 17.5 4.9375 C 16.480469 5.878906 15.769531 7.03125 15.375 8.34375 L 11 9 L 11.15625 10.03125 C 7.507813 10.8125 4.84375 12.058594 2.96875 13.8125 C 2.246094 14.492188 1.882813 15.488281 2.03125 16.46875 C 2.121094 17.066406 2.394531 17.617188 2.8125 18.0625 C 3.402344 18.691406 4.199219 19 5 19 C 5.734375 19 6.484375 18.726563 7.0625 18.1875 C 8.039063 17.273438 9.769531 16.507813 12.09375 15.96875 L 12.21875 16.90625 L 16 16.34375 L 16 20 L 16.9375 20 C 16.757813 22.378906 16.289063 24.203125 15.53125 25.3125 C 14.597656 26.675781 14.945313 28.53125 16.3125 29.46875 C 16.816406 29.808594 17.394531 30 18 30 C 18.992188 30 19.910156 29.507813 20.46875 28.6875 C 21.894531 26.597656 22.75 23.683594 22.96875 20 L 24 20 L 24 15 L 23 15 L 23 14.28125 C 23.269531 13.949219 23.492188 13.589844 23.65625 13.1875 C 24.636719 11.402344 28.207031 10.257813 29.5 9.96875 L 29.96875 8.28125 C 28.078125 6.511719 26.277344 5.980469 24.8125 6.03125 C 25.757813 4.957031 26.941406 4.152344 28 4 L 28 3 L 28.09375 2 C 28.023438 1.996094 27.558594 1.964844 26.84375 1.96875 Z M 24 4.21875 C 23.902344 4.292969 23.84375 4.34375 23.84375 4.34375 C 22.496094 5.714844 21.199219 7.46875 21.09375 9.59375 C 21.640625 10.054688 22 10.734375 22 11.5 C 22 12.3125 21.605469 13.046875 21 13.5 L 21 15 L 18.4375 15 C 17.96875 14.433594 17 13.011719 17 11 C 17 9.066406 17.605469 7.585938 18.84375 6.4375 C 20.25 5.136719 22.238281 4.507813 24 4.21875 Z M 25.125 8 C 25.679688 8.019531 26.347656 8.175781 27.09375 8.59375 C 26.082031 8.953125 24.867188 9.507813 23.8125 10.25 C 23.671875 9.785156 23.460938 9.359375 23.1875 8.96875 C 23.226563 8.824219 23.257813 8.648438 23.3125 8.5 C 23.582031 8.3125 24.199219 7.96875 25.125 8 Z M 19.5 10 C 18.671875 10 18 10.671875 18 11.5 C 18 12.328125 18.671875 13 19.5 13 C 20.328125 13 21 12.328125 21 11.5 C 21 10.671875 20.328125 10 19.5 10 Z M 14.28125 10.53125 L 14.875 14.46875 L 13.90625 14.625 L 13.75 13.59375 L 12.71875 13.8125 C 9.460938 14.433594 7.097656 15.394531 5.6875 16.71875 C 5.285156 17.097656 4.65625 17.085938 4.28125 16.6875 C 4.140625 16.539063 4.0625 16.355469 4.03125 16.15625 C 3.980469 15.828125 4.070313 15.507813 4.3125 15.28125 C 6.035156 13.667969 8.804688 12.496094 12.5 11.8125 L 13.4375 11.625 L 13.28125 10.6875 Z M 18 17 L 22 17 L 22 18 L 21.03125 18 L 21 18.96875 C 20.886719 22.726563 20.140625 25.617188 18.8125 27.5625 C 18.511719 28.003906 17.878906 28.113281 17.4375 27.8125 C 16.984375 27.5 16.875 26.890625 17.1875 26.4375 C 18.28125 24.839844 18.882813 22.34375 19 19.03125 L 19.03125 18 L 18 18 Z "></path>
</g>
</svg>
