<?xml version="1.0" encoding="UTF-8"?>
<svg xmlns="http://www.w3.org/2000/svg" xmlns:xlink="http://www.w3.org/1999/xlink" viewBox="0 0 32 32" version="1.1">
<g>
<path d="M 13 6 C 12.398438 6 11.933594 6.203125 11.3125 6.59375 C 10.691406 6.984375 9.984375 7.589844 9.34375 8.46875 C 8.40625 9.753906 7.589844 11.628906 7.21875 14.25 C 5.835938 14.707031 4.65625 15.273438 3.75 15.96875 C 2.734375 16.75 2 17.789063 2 19 C 2 20.042969 2.550781 20.96875 3.34375 21.6875 C 4.136719 22.40625 5.183594 22.984375 6.4375 23.46875 C 8.949219 24.433594 12.304688 25 16 25 C 19.695313 25 23.050781 24.433594 25.5625 23.46875 C 26.816406 22.984375 27.863281 22.40625 28.65625 21.6875 C 29.449219 20.96875 30 20.042969 30 19 C 30 17.789063 29.265625 16.75 28.25 15.96875 C 27.34375 15.273438 26.164063 14.707031 24.78125 14.25 C 24.40625 11.625 23.589844 9.753906 22.65625 8.46875 C 22.019531 7.59375 21.347656 6.984375 20.71875 6.59375 C 20.089844 6.203125 19.582031 6 19 6 C 18.414063 6 17.988281 6.25 17.65625 6.5 C 17.324219 6.75 17.066406 7.03125 16.8125 7.28125 C 16.558594 7.53125 16.324219 7.75 16.15625 7.875 C 16.089844 7.925781 16.035156 7.949219 16 7.96875 C 15.964844 7.949219 15.914063 7.925781 15.84375 7.875 C 15.667969 7.746094 15.445313 7.53125 15.1875 7.28125 C 14.929688 7.03125 14.636719 6.746094 14.3125 6.5 C 13.988281 6.253906 13.59375 6 13 6 Z M 12.9375 8 C 12.964844 8.015625 13.039063 8.058594 13.125 8.125 C 13.296875 8.253906 13.523438 8.46875 13.78125 8.71875 C 14.039063 8.96875 14.320313 9.253906 14.65625 9.5 C 14.992188 9.746094 15.414063 10 16 10 C 16.585938 10 17.011719 9.75 17.34375 9.5 C 17.675781 9.25 17.964844 8.96875 18.21875 8.71875 C 18.472656 8.46875 18.707031 8.25 18.875 8.125 C 18.949219 8.070313 18.972656 8.015625 19 8 C 18.898438 8 19.257813 8.035156 19.65625 8.28125 C 20.054688 8.527344 20.570313 8.949219 21.0625 9.625 C 22.023438 10.945313 22.925781 13.316406 22.96875 17.21875 C 22.941406 17.25 22.953125 17.269531 22.90625 17.3125 C 22.699219 17.496094 22.316406 17.746094 21.75 18 C 20.617188 18.507813 18.746094 19 16 19 C 13.25 19 11.378906 18.53125 10.25 18.03125 C 9.6875 17.78125 9.328125 17.523438 9.125 17.34375 C 9.066406 17.292969 9.050781 17.257813 9.03125 17.21875 C 9.074219 13.347656 10 10.984375 10.96875 9.65625 C 11.464844 8.976563 11.976563 8.53125 12.375 8.28125 C 12.65625 8.105469 12.851563 8.023438 12.9375 8 Z M 7.03125 16.46875 C 7.019531 16.789063 7 17.101563 7 17.4375 C 7 18.214844 7.378906 18.484375 7.78125 18.84375 C 8.183594 19.203125 8.71875 19.527344 9.4375 19.84375 C 10.878906 20.480469 13.023438 21 16 21 C 18.984375 21 21.125 20.457031 22.5625 19.8125 C 23.28125 19.488281 23.820313 19.160156 24.21875 18.8125 C 24.417969 18.636719 24.582031 18.449219 24.71875 18.25 C 24.855469 18.050781 25 17.863281 25 17.4375 C 25 17.097656 24.980469 16.789063 24.96875 16.46875 C 25.824219 16.804688 26.535156 17.179688 27.03125 17.5625 C 27.761719 18.121094 28 18.609375 28 19 C 28 19.339844 27.835938 19.742188 27.3125 20.21875 C 26.789063 20.695313 25.941406 21.171875 24.84375 21.59375 C 22.648438 22.4375 19.484375 23 16 23 C 12.515625 23 9.351563 22.4375 7.15625 21.59375 C 6.058594 21.171875 5.210938 20.695313 4.6875 20.21875 C 4.164063 19.742188 4 19.339844 4 19 C 4 18.609375 4.238281 18.121094 4.96875 17.5625 C 5.464844 17.179688 6.175781 16.804688 7.03125 16.46875 Z "></path>
</g>
</svg>
