<?xml version="1.0" encoding="UTF-8"?>
<svg xmlns="http://www.w3.org/2000/svg" xmlns:xlink="http://www.w3.org/1999/xlink" viewBox="0 0 32 32" version="1.1">
<g>
<path d="M 17 2 C 15.617188 2 14.46875 2.96875 14.125 4.25 C 13.773438 4.105469 13.402344 4 13 4 C 11.355469 4 10 5.355469 10 7 L 10 15.75 L 9.125 14.875 C 7.960938 13.710938 6.039063 13.710938 4.875 14.875 C 3.710938 16.039063 3.710938 17.960938 4.875 19.125 L 11.65625 25.90625 C 11.769531 26.015625 11.886719 26.117188 12 26.21875 L 12 30 L 26 30 L 26 25.75 C 27.183594 24.496094 28 22.859375 28 21 L 28 10 C 28 8.355469 26.644531 7 25 7 C 24.648438 7 24.316406 7.074219 24 7.1875 L 24 7 C 24 5.355469 22.644531 4 21 4 C 20.597656 4 20.226563 4.105469 19.875 4.25 C 19.53125 2.96875 18.382813 2 17 2 Z M 17 4 C 17.566406 4 18 4.433594 18 5 L 18 14 L 20 14 L 20 7 C 20 6.433594 20.433594 6 21 6 C 21.566406 6 22 6.433594 22 7 L 22 14 L 24 14 L 24 10 C 24 9.433594 24.433594 9 25 9 C 25.566406 9 26 9.433594 26 10 L 26 21 C 26 22.484375 25.367188 23.800781 24.34375 24.71875 L 24 25.03125 L 24 28 L 14 28 L 14 25.25 L 13.625 24.9375 C 13.429688 24.785156 13.257813 24.632813 13.09375 24.46875 L 6.28125 17.71875 C 5.882813 17.320313 5.882813 16.679688 6.28125 16.28125 C 6.679688 15.882813 7.320313 15.882813 7.71875 16.28125 L 7.78125 16.34375 L 10.28125 18.875 L 12 20.59375 L 12 7 C 12 6.433594 12.433594 6 13 6 C 13.566406 6 14 6.433594 14 7 L 14 14 L 16 14 L 16 5 C 16 4.433594 16.433594 4 17 4 Z M 18.9375 16 C 18.242188 16.007813 17.566406 16.378906 17.21875 17.125 L 17.03125 17.53125 L 16.625 17.59375 C 15.03125 17.855469 14.421875 19.863281 15.59375 21 L 15.90625 21.28125 L 15.84375 21.6875 C 15.59375 23.316406 17.269531 24.539063 18.6875 23.75 L 19.0625 23.5625 L 19.40625 23.75 C 20.84375 24.496094 22.515625 23.214844 22.21875 21.59375 L 22.125 21.1875 L 22.4375 20.90625 C 23.578125 19.738281 22.910156 17.746094 21.3125 17.53125 L 20.90625 17.46875 L 20.71875 17.09375 C 20.351563 16.359375 19.632813 15.992188 18.9375 16 Z M 19 19 C 19.550781 19 20 19.449219 20 20 C 19.996094 20.554688 19.550781 21 19 21 C 18.449219 21 18 20.554688 18 20 C 18 19.449219 18.445313 18.996094 19 19 Z "></path>
</g>
</svg>
