<?xml version="1.0" encoding="UTF-8"?>
<svg xmlns="http://www.w3.org/2000/svg" xmlns:xlink="http://www.w3.org/1999/xlink" viewBox="0 0 32 32" version="1.1">
<g>
<path d="M 31 11 C 30.246094 11.84375 28.625 14 24 14 C 22.25 14 21.144531 14.035156 19.761719 13.453125 C 19.085938 13.167969 18.136719 13.011719 17.007813 13 C 15.71875 12.988281 13.378906 13.449219 12.292969 14.085938 C 11.726563 14.414063 8 16.59375 8 20.425781 C 8 21.867188 8.53125 23.875 9.40625 25.113281 C 10.144531 26.152344 11.695313 26.855469 13 27 C 13.417969 27.046875 13.589844 26.996094 14 27 C 14.691406 27.003906 15.042969 26.960938 15.730469 26.773438 C 18.128906 26.125 20 24.375 20 21 C 20 19.992188 19.609375 18.859375 18.738281 18.035156 C 18.046875 17.382813 17.542969 17 16 17 C 15.253906 17 15.746094 16.953125 15 17 C 12.582031 17.542969 12.847656 19.605469 13.320313 20.136719 C 13.539063 20.382813 13.789063 20.621094 13.925781 20.910156 C 14.339844 21.785156 13.546875 22.792969 12.828125 22.960938 C 11.703125 23.226563 10.90625 22.78125 10.292969 21.796875 C 9.859375 21.097656 9.984375 20 10.292969 19.292969 C 10.699219 18.351563 12.082031 16 15.832031 16 C 18.875 16 21.308594 17.445313 22 17.792969 C 24.582031 18.667969 27.582031 17 29 17 C 27.082031 17.832031 26 22 23 22 C 23 24 21.542969 25.625 21 26 C 22.332031 26 23.109375 26.078125 24 26 C 23.488281 26.203125 20.875 28 13 28 C 10.25 28 7.507813 26.695313 6.660156 26.078125 C 5.132813 24.96875 4.015625 23.019531 4 21 C 3.984375 18.773438 4.847656 16.960938 6.335938 15.378906 C 7.457031 14.1875 8.792969 13.3125 10.3125 12.726563 C 11.410156 12.300781 13.5 12 15 12 C 14.082031 11.5 12.082031 11 11 11 C 9.570313 10.980469 8.378906 11.539063 7.089844 12.117188 C 5.785156 12.703125 4.433594 13.050781 3 13 C 2.566406 12.984375 1.433594 13.0625 1 13 C 4.75 11.042969 5.332031 7.957031 11 5 C 9.542969 6.375 8.175781 7.949219 8.207031 7.996094 C 13.082031 5.332031 16.542969 4.75 20 4 C 16.667969 5.417969 13.792969 7.082031 11 9 C 11.019531 9.042969 13.871094 8.351563 15.265625 8.128906 C 15.828125 8.039063 16.5 8 17 8 C 21.332031 8 24 12 27 12 C 28.484375 12 31 10.9375 31 11 Z "></path>
</g>
</svg>
