<?xml version="1.0" encoding="UTF-8"?>
<svg xmlns="http://www.w3.org/2000/svg" xmlns:xlink="http://www.w3.org/1999/xlink" viewBox="0 0 32 32" version="1.1">
<g>
<path d="M 17 3.59375 L 16.28125 4.28125 L 14.5625 6 L 12 6 L 12 11.78125 C 12 11.917969 11.917969 12 11.78125 12 C 7.964844 12 4.515625 14.742188 4.0625 18.59375 C 3.53125 23.109375 7.070313 27 11.5 27 C 11.878906 27 12.234375 26.957031 12.59375 26.90625 C 13.566406 27.585938 14.730469 28 16 28 C 17.269531 28 18.433594 27.585938 19.40625 26.90625 C 20.617188 27.085938 21.929688 26.988281 23.28125 26.4375 C 25.722656 25.4375 27.570313 23.207031 27.9375 20.5625 C 28.574219 15.980469 24.984375 12 20.5 12 L 20.21875 12 C 20.082031 12 20 11.917969 20 11.78125 L 20 6.59375 L 19.71875 6.28125 L 17.71875 4.28125 Z M 17 6.4375 L 18 7.4375 L 18 11.78125 C 18 13 19 14 20.21875 14 L 20.5 14 C 23.808594 14 26.414063 16.855469 25.9375 20.28125 C 25.671875 22.175781 24.328125 23.859375 22.53125 24.59375 C 22.078125 24.777344 21.640625 24.878906 21.21875 24.9375 C 21.714844 24.066406 22 23.070313 22 22 C 22 17.789063 18.5 15.34375 18.5 15.34375 L 17.34375 17 C 17.34375 17 20 18.90625 20 22 C 20 24.21875 18.21875 26 16 26 C 13.78125 26 12 24.21875 12 22 C 12 21.171875 12.273438 20.398438 12.71875 19.75 L 11.0625 18.625 C 10.402344 19.589844 10 20.75 10 22 C 10 23.070313 10.285156 24.066406 10.78125 24.9375 C 7.867188 24.554688 5.664063 21.925781 6.03125 18.8125 C 6.359375 16.03125 8.921875 14 11.78125 14 C 13 14 14 13 14 11.78125 L 14 8 L 15.40625 8 L 15.71875 7.71875 Z "></path>
</g>
</svg>
