<?xml version="1.0" encoding="UTF-8"?>
<svg xmlns="http://www.w3.org/2000/svg" xmlns:xlink="http://www.w3.org/1999/xlink" viewBox="0 0 32 32" version="1.1">
<g>
<path d="M 16 3.25 L 15.1875 4.4375 C 15.1875 4.4375 14.648438 5.191406 14.125 6.09375 C 13.863281 6.546875 13.617188 7.019531 13.40625 7.5 C 13.195313 7.980469 13 8.421875 13 9 C 13 9.410156 13.097656 9.796875 13.25 10.15625 C 12.078125 10.289063 10.980469 10.492188 9.96875 10.78125 C 9.925781 10.3125 9.777344 9.914063 9.59375 9.5 C 9.382813 9.019531 9.136719 8.546875 8.875 8.09375 C 8.351563 7.191406 7.8125 6.4375 7.8125 6.4375 L 7 5.25 L 6.1875 6.4375 C 6.1875 6.4375 5.648438 7.191406 5.125 8.09375 C 4.863281 8.546875 4.617188 9.019531 4.40625 9.5 C 4.195313 9.980469 4 10.421875 4 11 C 4 11.949219 4.457031 12.792969 5.15625 13.34375 C 5.144531 13.355469 5.132813 13.363281 5.125 13.375 C 4.445313 14.105469 4 15.011719 4 16 C 4 16.921875 4.394531 17.765625 5 18.46875 L 5 21.5 C 5 22.425781 5.429688 23.265625 6.0625 23.9375 C 6.695313 24.609375 7.539063 25.148438 8.53125 25.59375 C 10.515625 26.484375 13.128906 27 16 27 C 18.871094 27 21.484375 26.484375 23.46875 25.59375 C 24.460938 25.148438 25.304688 24.609375 25.9375 23.9375 C 26.570313 23.265625 27 22.425781 27 21.5 L 27 18.46875 C 27.605469 17.765625 28 16.921875 28 16 C 28 15.011719 27.554688 14.105469 26.875 13.375 C 26.867188 13.363281 26.855469 13.355469 26.84375 13.34375 C 27.542969 12.792969 28 11.949219 28 11 C 28 10.421875 27.804688 9.980469 27.59375 9.5 C 27.382813 9.019531 27.136719 8.546875 26.875 8.09375 C 26.351563 7.191406 25.8125 6.4375 25.8125 6.4375 L 25 5.25 L 24.1875 6.4375 C 24.1875 6.4375 23.648438 7.191406 23.125 8.09375 C 22.863281 8.546875 22.617188 9.019531 22.40625 9.5 C 22.222656 9.914063 22.074219 10.3125 22.03125 10.78125 C 21.019531 10.492188 19.921875 10.289063 18.75 10.15625 C 18.902344 9.796875 19 9.410156 19 9 C 19 8.421875 18.804688 7.980469 18.59375 7.5 C 18.382813 7.019531 18.136719 6.546875 17.875 6.09375 C 17.351563 5.191406 16.8125 4.4375 16.8125 4.4375 Z M 16 6.875 C 16.066406 6.984375 16.058594 6.976563 16.125 7.09375 C 16.363281 7.503906 16.617188 7.941406 16.78125 8.3125 C 16.945313 8.683594 17 9.027344 17 9 C 17 9.554688 16.554688 10 16 10 C 15.445313 10 15 9.554688 15 9 C 15 9.027344 15.054688 8.683594 15.21875 8.3125 C 15.382813 7.941406 15.636719 7.503906 15.875 7.09375 C 15.941406 6.976563 15.933594 6.984375 16 6.875 Z M 7 8.875 C 7.066406 8.984375 7.058594 8.976563 7.125 9.09375 C 7.363281 9.503906 7.617188 9.941406 7.78125 10.3125 C 7.945313 10.683594 8 11.027344 8 11 C 8 11.164063 7.914063 11.367188 7.8125 11.5625 C 7.503906 11.703125 7.21875 11.84375 6.9375 12 C 6.414063 11.96875 6 11.53125 6 11 C 6 11.027344 6.054688 10.683594 6.21875 10.3125 C 6.382813 9.941406 6.636719 9.503906 6.875 9.09375 C 6.941406 8.976563 6.933594 8.984375 7 8.875 Z M 25 8.875 C 25.066406 8.984375 25.058594 8.976563 25.125 9.09375 C 25.363281 9.503906 25.617188 9.941406 25.78125 10.3125 C 25.945313 10.683594 26 11.027344 26 11 C 26 11.53125 25.585938 11.96875 25.0625 12 C 24.78125 11.84375 24.496094 11.703125 24.1875 11.5625 C 24.085938 11.367188 24 11.164063 24 11 C 24 11.027344 24.054688 10.683594 24.21875 10.3125 C 24.382813 9.941406 24.636719 9.503906 24.875 9.09375 C 24.941406 8.976563 24.933594 8.984375 25 8.875 Z M 16 12 C 18.914063 12 21.558594 12.550781 23.375 13.375 C 24.28125 13.789063 24.972656 14.285156 25.40625 14.75 C 25.839844 15.214844 26 15.605469 26 16 C 26 16.394531 25.839844 16.785156 25.40625 17.25 C 24.972656 17.714844 24.28125 18.210938 23.375 18.625 C 21.558594 19.449219 18.914063 20 16 20 C 13.085938 20 10.441406 19.449219 8.625 18.625 C 7.71875 18.210938 7.027344 17.714844 6.59375 17.25 C 6.160156 16.785156 6 16.394531 6 16 C 6 15.605469 6.160156 15.214844 6.59375 14.75 C 7.027344 14.285156 7.71875 13.789063 8.625 13.375 C 10.441406 12.550781 13.085938 12 16 12 Z M 7 20.03125 C 7.261719 20.175781 7.527344 20.308594 7.8125 20.4375 C 8.1875 20.609375 8.585938 20.761719 9 20.90625 L 9 22.09375 L 11 23 L 11 21.46875 C 12.234375 21.742188 13.582031 21.914063 15 21.96875 L 15 24 L 17 24 L 17 21.96875 C 18.417969 21.914063 19.765625 21.742188 21 21.46875 L 21 23 L 23 22.09375 L 23 20.90625 C 23.414063 20.761719 23.8125 20.609375 24.1875 20.4375 C 24.472656 20.308594 24.738281 20.175781 25 20.03125 L 25 21.5 C 25 21.824219 24.851563 22.15625 24.46875 22.5625 C 24.085938 22.96875 23.476563 23.414063 22.65625 23.78125 C 21.015625 24.515625 18.628906 25 16 25 C 13.371094 25 10.984375 24.515625 9.34375 23.78125 C 8.523438 23.414063 7.914063 22.96875 7.53125 22.5625 C 7.148438 22.15625 7 21.824219 7 21.5 Z "></path>
</g>
</svg>
