<?xml version="1.0" encoding="UTF-8"?>
<svg xmlns="http://www.w3.org/2000/svg" xmlns:xlink="http://www.w3.org/1999/xlink" viewBox="0 0 32 32" version="1.1">
<g>
<path d="M 16.03125 2.59375 L 15.3125 3.28125 C 15.3125 3.28125 13.523438 4.949219 11.71875 7.3125 C 9.914063 9.675781 8 12.722656 8 15.8125 C 8 17.984375 8.90625 19.84375 10.375 21.09375 C 11.84375 22.34375 13.84375 23 16 23 C 18.148438 23 20.117188 22.367188 21.59375 21.125 C 23.070313 19.882813 24 18.027344 24 15.8125 C 24 13.003906 22.109375 10.03125 20.3125 7.59375 C 18.515625 5.15625 16.71875 3.3125 16.71875 3.3125 Z M 15.96875 5.53125 C 16.46875 6.0625 17.332031 6.941406 18.6875 8.78125 C 20.390625 11.09375 22 14.019531 22 15.8125 C 22 17.496094 21.363281 18.710938 20.3125 19.59375 C 20.199219 19.6875 20.09375 19.789063 19.96875 19.875 C 20.046875 19.5625 20.09375 19.242188 20.09375 18.90625 C 20.09375 13.945313 17.34375 10.90625 17.34375 10.90625 L 15.53125 8.96875 L 15.59375 11.625 C 15.59375 11.625 15.613281 12.601563 15.5 13.53125 C 15.449219 13.933594 15.363281 14.285156 15.28125 14.53125 C 15.1875 14.476563 15.15625 14.472656 15.03125 14.34375 C 14.800781 14.105469 14.65625 13.875 14.65625 13.875 L 13.6875 12.3125 L 12.90625 13.96875 C 12.90625 13.96875 11.90625 16.074219 11.90625 18.90625 C 11.90625 19.222656 11.960938 19.515625 12.03125 19.8125 C 11.914063 19.726563 11.796875 19.65625 11.6875 19.5625 C 10.632813 18.664063 10 17.441406 10 15.8125 C 10 13.601563 11.585938 10.746094 13.28125 8.53125 C 14.617188 6.789063 15.460938 6.023438 15.96875 5.53125 Z M 17.25 14.75 C 17.691406 15.828125 18.09375 17.171875 18.09375 18.90625 C 18.09375 19.914063 17.359375 20.773438 16.40625 20.96875 C 16.269531 20.976563 16.140625 21 16 21 C 15.863281 21 15.726563 20.976563 15.59375 20.96875 C 14.640625 20.773438 13.90625 19.914063 13.90625 18.90625 C 13.90625 17.859375 14.074219 17.007813 14.25 16.3125 C 14.578125 16.535156 14.980469 16.6875 15.5 16.6875 C 15.933594 16.6875 16.34375 16.46875 16.59375 16.21875 C 16.84375 15.96875 16.980469 15.707031 17.09375 15.4375 C 17.1875 15.214844 17.195313 14.980469 17.25 14.75 Z M 7 24 L 7 28 L 25 28 L 25 24 L 23 24 L 23 26 L 21 26 L 21 24 L 19 24 L 19 26 L 17 26 L 17 24 L 15 24 L 15 26 L 13 26 L 13 24 L 11 24 L 11 26 L 9 26 L 9 24 Z "></path>
</g>
</svg>
