<?xml version="1.0" encoding="UTF-8"?>
<svg xmlns="http://www.w3.org/2000/svg" xmlns:xlink="http://www.w3.org/1999/xlink" viewBox="0 0 32 32" version="1.1">
<g>
<path d="M 16 4 C 10.800781 4 6.558594 7.933594 6.0625 13 L 4 13 L 4 15 L 6 15 L 6 19 L 4 19 L 4 21 L 6 21 C 6 23.746094 8.253906 26 11 26 L 12.5625 26 C 13.253906 27.195313 14.519531 28 16 28 C 17.480469 28 18.746094 27.195313 19.4375 26 L 21 26 C 23.746094 26 26 23.746094 26 21 L 28 21 L 28 19 L 26 19 L 26 15 L 28 15 L 28 13 L 25.9375 13 C 25.441406 7.933594 21.199219 4 16 4 Z M 16 6 C 20.464844 6 24 9.535156 24 14 L 24 21 C 24 22.65625 22.65625 24 21 24 L 20 24 C 20 21.789063 18.210938 20 16 20 C 13.789063 20 12 21.789063 12 24 L 11 24 C 9.34375 24 8 22.65625 8 21 L 8 14 C 8 9.535156 11.535156 6 16 6 Z M 12 13 C 10.355469 13 9 14.355469 9 16 C 9 17.644531 10.355469 19 12 19 C 13.644531 19 15 17.644531 15 16 C 15 14.355469 13.644531 13 12 13 Z M 20 13 C 18.355469 13 17 14.355469 17 16 C 17 17.644531 18.355469 19 20 19 C 21.644531 19 23 17.644531 23 16 C 23 14.355469 21.644531 13 20 13 Z M 12 15 C 12.5625 15 13 15.4375 13 16 C 13 16.5625 12.5625 17 12 17 C 11.4375 17 11 16.5625 11 16 C 11 15.4375 11.4375 15 12 15 Z M 20 15 C 20.5625 15 21 15.4375 21 16 C 21 16.5625 20.5625 17 20 17 C 19.4375 17 19 16.5625 19 16 C 19 15.4375 19.4375 15 20 15 Z M 16 22 C 17.191406 22 18 22.808594 18 24 C 18 25.191406 17.191406 26 16 26 C 14.808594 26 14 25.191406 14 24 C 14 22.808594 14.808594 22 16 22 Z "></path>
</g>
</svg>
