<?xml version="1.0" encoding="UTF-8"?>
<svg xmlns="http://www.w3.org/2000/svg" xmlns:xlink="http://www.w3.org/1999/xlink" viewBox="0 0 32 32" version="1.1">
<g>
<path d="M 28.5625 7.34375 L 26 7.875 L 26 7.84375 C 25.082031 8.027344 24.253906 8.496094 23.59375 9.15625 L 22.125 10.625 L 21.71875 10.25 L 21.40625 9.9375 L 13.5 9.9375 L 13.1875 10.21875 L 5.40625 18 C 4.632813 18.773438 4.632813 20.039063 5.40625 20.8125 L 5.65625 21.0625 L 2.65625 24.03125 L 4.09375 25.4375 L 7.0625 22.46875 L 9.125 24.53125 C 11.003906 26.410156 13.988281 26.660156 16.15625 25.125 L 21.28125 21.5 C 21.628906 21.414063 21.953125 21.234375 22.21875 20.96875 L 23.8125 19.40625 L 24.0625 19.125 L 24.09375 18.75 L 24.375 13.375 L 24.40625 12.9375 L 24.09375 12.625 L 23.5 12.0625 L 25 10.5625 C 25.382813 10.179688 25.878906 9.917969 26.40625 9.8125 L 28.9375 9.3125 Z M 14.28125 11.9375 L 20.5625 11.9375 L 22.34375 13.71875 L 22.125 18.25 L 20.8125 19.5625 L 15.8125 16.5625 C 14.601563 15.835938 13.03125 16.035156 12.03125 17.03125 L 8.25 20.8125 L 6.84375 19.40625 Z M 14.09375 18.125 C 14.324219 18.097656 14.566406 18.152344 14.78125 18.28125 L 15.6875 18.84375 L 14.71875 19.125 L 14.4375 19.21875 L 14.25 19.40625 L 12.5 21.40625 L 14 22.75 L 15.59375 20.9375 L 17.96875 20.21875 L 18.875 20.75 L 15 23.5 C 13.613281 24.480469 11.734375 24.296875 10.53125 23.09375 L 10.28125 22.875 L 9.65625 22.25 L 13.46875 18.4375 C 13.648438 18.257813 13.863281 18.152344 14.09375 18.125 Z "></path>
</g>
</svg>
