<?xml version="1.0" encoding="UTF-8"?>
<svg xmlns="http://www.w3.org/2000/svg" xmlns:xlink="http://www.w3.org/1999/xlink" viewBox="0 0 32 32" version="1.1">
<g>
<path d="M 11.09375 3 C 11.09375 3 14.464844 3.78125 14.25 4.84375 C 14.082031 5.679688 12 6 12 6 C 12 6 14.214844 7 16 7 C 17.21875 7 18 6.417969 18 5.625 C 18 3.011719 13.621094 3 11.09375 3 Z M 15 8.1875 L 15 10 L 11.03125 10 L 8.21875 29 L 10.25 29 L 12.78125 12 L 15 12 L 15 17.59375 L 13.21875 15.8125 L 12.875 18.28125 L 14.59375 20 L 12.28125 22.3125 L 11.78125 25.625 L 15 22.40625 L 15 29 L 17 29 L 17 12 L 19.21875 12 L 19.65625 14.90625 L 18 16.59375 L 18 19.40625 L 20.03125 17.40625 L 20.9375 23.5 L 18 20.59375 L 18 23.40625 L 21.4375 26.875 L 21.75 29 L 23.78125 29 L 20.96875 10 L 17 10 L 17 8.1875 Z "></path>
</g>
</svg>
