<?xml version="1.0" encoding="UTF-8"?>
<svg xmlns="http://www.w3.org/2000/svg" xmlns:xlink="http://www.w3.org/1999/xlink" viewBox="0 0 32 32" version="1.1">
<g>
<path d="M 23.5625 4.03125 L 22.28125 5.28125 L 23.71875 6.71875 L 24.96875 5.4375 Z M 20.71875 5.28125 L 19.28125 6.71875 L 26.28125 13.71875 L 27.71875 12.28125 Z M 25.5625 6.03125 L 24.28125 7.28125 L 25.71875 8.71875 L 26.96875 7.4375 Z M 18.71875 7.28125 L 17.28125 8.71875 L 24.28125 15.71875 L 25.71875 14.28125 Z M 27.5625 8.03125 L 26.28125 9.28125 L 27.71875 10.71875 L 28.96875 9.4375 Z M 17.28125 10.28125 L 12.5 15.0625 L 12.09375 14.6875 L 11.375 14 L 9.90625 15.46875 L 6.71875 12.28125 L 5.28125 13.71875 L 8.46875 16.90625 L 6.4375 18.9375 L 7.15625 19.65625 L 7.5 19.96875 L 5.90625 21.5625 C 5.722656 21.367188 5.539063 21.144531 5.375 20.90625 C 5.128906 20.550781 4.996094 20.1875 4.96875 19.9375 C 4.941406 19.6875 4.949219 19.550781 5.21875 19.28125 L 3.78125 17.875 C 3.132813 18.523438 2.886719 19.40625 2.96875 20.15625 C 3.050781 20.90625 3.390625 21.542969 3.75 22.0625 C 3.992188 22.414063 4.257813 22.710938 4.5 22.96875 C 3.695313 23.90625 3.753906 25.34375 4.65625 26.21875 L 6.75 28.25 C 7.667969 29.140625 9.148438 29.140625 10.0625 28.25 L 10.09375 28.25 L 12.96875 25.375 L 13.3125 25.6875 L 14.03125 26.375 L 18.96875 21.4375 L 18.25 20.71875 L 17.96875 20.46875 L 22.71875 15.71875 L 21.28125 14.28125 L 16.53125 19.03125 L 15.96875 18.46875 L 20.71875 13.71875 L 19.28125 12.28125 L 14.5 17.0625 L 13.9375 16.5 L 18.71875 11.71875 Z M 11.375 16.8125 L 16.125 21.46875 L 14.03125 23.5625 L 9.28125 18.90625 Z M 8.90625 21.375 L 11.53125 23.96875 L 8.6875 26.8125 C 8.53125 26.96875 8.3125 26.964844 8.15625 26.8125 L 6.0625 24.78125 C 5.902344 24.625 5.871094 24.410156 6.03125 24.25 Z "></path>
</g>
</svg>
