<?xml version="1.0" encoding="UTF-8"?>
<svg xmlns="http://www.w3.org/2000/svg" xmlns:xlink="http://www.w3.org/1999/xlink" viewBox="0 0 32 32" version="1.1">
<g>
<path d="M 16 3 C 12.925781 3 10.175781 4.539063 8.84375 6.84375 L 4.375 5.0625 L 3.625 6.9375 L 8.125 8.75 C 8.042969 9.15625 8 9.570313 8 10 L 8 10.53125 C 5.28125 12.53125 3 16.109375 3 22 L 3 22.71875 L 3.6875 22.9375 L 9.6875 24.9375 L 9.71875 24.875 C 9.851563 25.097656 9.976563 25.320313 10.125 25.53125 C 11.480469 27.472656 13.519531 29 16 29 C 18.476563 29 20.515625 27.496094 21.875 25.5625 C 22.027344 25.34375 22.144531 25.105469 22.28125 24.875 L 22.3125 24.9375 L 28.3125 22.9375 L 29 22.71875 L 29 22 C 29 16.085938 26.71875 12.496094 24 10.5 L 24 10 C 24 9.570313 23.957031 9.15625 23.875 8.75 L 28.375 6.9375 L 27.625 5.0625 L 23.15625 6.84375 C 21.824219 4.539063 19.074219 3 16 3 Z M 16 5 C 19.097656 5 21.527344 6.914063 21.9375 9.28125 C 19.523438 8.167969 17.179688 8 16 8 C 14.816406 8 12.476563 8.191406 10.0625 9.3125 C 10.457031 6.929688 12.890625 5 16 5 Z M 16 10 C 17.179688 10 20.015625 10.253906 22.4375 11.84375 C 24.75 13.359375 26.753906 16.089844 26.9375 21.3125 L 23.40625 22.5 C 23.792969 21.339844 24 20.148438 24 19 C 24 17.515625 23.433594 16.300781 22.625 15.4375 C 21.816406 14.574219 20.816406 14.035156 19.84375 13.6875 C 17.894531 12.992188 16 13 16 13 C 16 13 14.101563 13.011719 12.15625 13.71875 C 11.183594 14.070313 10.179688 14.609375 9.375 15.46875 C 8.570313 16.328125 8 17.535156 8 19 C 8 20.140625 8.207031 21.34375 8.59375 22.5 L 5.0625 21.3125 C 5.246094 16.109375 7.25 13.398438 9.5625 11.875 C 11.988281 10.28125 14.824219 10 16 10 Z M 16 15 C 16 15 17.605469 15.007813 19.15625 15.5625 C 19.933594 15.839844 20.683594 16.238281 21.1875 16.78125 C 21.691406 17.324219 22 17.984375 22 19 C 22 20.738281 21.355469 22.832031 20.25 24.40625 C 19.144531 25.980469 17.667969 27 16 27 C 14.335938 27 12.855469 25.988281 11.75 24.40625 C 10.644531 22.824219 10 20.710938 10 19 C 10 18.011719 10.304688 17.382813 10.8125 16.84375 C 11.320313 16.304688 12.066406 15.875 12.84375 15.59375 C 14.398438 15.027344 16 15 16 15 Z M 11.9375 18 C 11.417969 18.027344 11 18.125 11 18.125 C 11 18.125 11.429688 19.339844 12.4375 19.78125 C 13.445313 20.222656 15 19.875 15 19.875 C 15 19.875 14.515625 18.636719 13.5625 18.21875 C 13.085938 18.007813 12.457031 17.972656 11.9375 18 Z M 20.0625 18 C 19.542969 17.972656 18.914063 18.007813 18.4375 18.21875 C 17.484375 18.636719 17 19.875 17 19.875 C 17 19.875 18.554688 20.222656 19.5625 19.78125 C 20.570313 19.339844 21 18.125 21 18.125 C 21 18.125 20.582031 18.027344 20.0625 18 Z "></path>
</g>
</svg>
