<?xml version="1.0" encoding="UTF-8"?>
<svg xmlns="http://www.w3.org/2000/svg" xmlns:xlink="http://www.w3.org/1999/xlink" viewBox="0 0 32 32" version="1.1">
<g>
<path d="M 28 16 C 28 9.386719 22.613281 4 16 4 C 9.386719 4 4 9.386719 4 16 C 4 22.640625 9.386719 28 16 28 C 22.613281 28 28 22.640625 28 16 Z M 26.578125 16 C 26.578125 21.847656 21.847656 26.578125 16 26.578125 C 10.152344 26.578125 5.414063 21.847656 5.414063 16 C 5.414063 10.152344 10.152344 5.414063 16 5.414063 C 21.847656 5.414063 26.578125 10.183594 26.578125 16 Z M 25.339844 16 C 25.339844 12.6875 23.652344 9.265625 20.027344 8.167969 C 19.273438 7.9375 18.640625 7.785156 17.910156 7.785156 C 16.230469 7.785156 16.171875 8.742188 15.386719 8.742188 C 14.953125 8.742188 14.664063 8.429688 14.664063 8.046875 C 14.664063 7.382813 15.445313 6.863281 16.691406 6.863281 C 17.855469 6.863281 18.753906 7.152344 18.921875 7.234375 L 18.953125 7.152344 C 18.640625 7.035156 17.535156 6.652344 16 6.652344 C 12.65625 6.652344 9.265625 8.367188 8.167969 11.964844 C 7.9375 12.71875 7.785156 13.359375 7.785156 14.082031 C 7.785156 15.769531 8.742188 15.851563 8.742188 16.632813 C 8.742188 17.042969 8.429688 17.335938 8.046875 17.335938 C 7.382813 17.335938 6.863281 16.574219 6.863281 15.296875 C 6.863281 14.140625 7.152344 13.238281 7.203125 13.066406 L 7.121094 13.039063 C 7.03125 13.390625 6.652344 14.464844 6.652344 16 C 6.652344 19.363281 8.367188 22.757813 11.964844 23.859375 C 12.71875 24.09375 13.359375 24.234375 14.082031 24.234375 C 15.769531 24.234375 15.820313 23.25 16.601563 23.25 C 17.011719 23.25 17.335938 23.570313 17.335938 23.972656 C 17.335938 24.613281 16.574219 25.136719 15.296875 25.136719 C 14.140625 25.136719 13.210938 24.84375 13.066406 24.785156 L 13.039063 24.875 C 13.359375 25.015625 14.464844 25.335938 16 25.335938 C 19.332031 25.335938 22.757813 23.652344 23.832031 20.027344 C 24.0625 19.300781 24.203125 18.640625 24.203125 17.9375 C 24.203125 16.230469 23.25 16.167969 23.25 15.386719 C 23.25 14.953125 23.539063 14.660156 23.941406 14.660156 C 24.613281 14.660156 25.136719 15.445313 25.136719 16.722656 C 25.136719 17.855469 24.84375 18.75 24.785156 18.949219 L 24.875 18.980469 C 24.988281 18.640625 25.339844 17.566406 25.339844 16 Z M 22.179688 18.949219 C 22.179688 20.335938 20.984375 21.78125 19.226563 21.78125 C 17.109375 21.78125 16.03125 19.996094 16.03125 18.398438 C 16.03125 16.148438 17.566406 15.199219 18.214844 14.859375 C 18.089844 14.765625 17.996094 14.648438 17.90625 14.488281 C 17.164063 15.011719 16.492188 15.476563 15.074219 16.277344 C 15.011719 17.257813 14.925781 18.335938 14.671875 19.078125 C 14.148438 20.644531 13.074219 21.785156 11.65625 21.785156 C 10.464844 21.785156 9.878906 20.921875 9.878906 19.996094 C 9.878906 19.324219 10.273438 18.460938 10.984375 17.8125 C 11.878906 17.011719 12.859375 16.523438 14.214844 15.808594 C 14.246094 15.628906 14.277344 15.445313 14.308594 15.226563 C 13.96875 15.53125 13.476563 15.660156 13.074219 15.660156 C 12.433594 15.660156 11.902344 15.105469 11.785156 14.519531 C 10.921875 14.457031 10.273438 13.839844 10.242188 12.859375 C 10.242188 12.15625 10.519531 11.539063 10.984375 11.539063 C 11.167969 11.539063 11.230469 11.6875 11.230469 11.816406 C 11.230469 11.933594 11.074219 12.339844 11.074219 12.734375 C 11.074219 13.136719 11.261719 13.660156 11.753906 13.660156 C 11.753906 12.0625 12.925781 9.996094 14.308594 9.996094 C 15.226563 9.996094 15.351563 10.675781 15.351563 10.984375 C 15.351563 12.433594 13.902344 14.03125 12.734375 14.425781 C 12.765625 14.554688 12.890625 14.894531 13.261719 14.894531 C 13.722656 14.894531 14.277344 14.460938 14.554688 14.117188 C 14.671875 13.476563 15.136719 12.554688 15.757813 12.554688 C 16 12.554688 16.121094 12.734375 16.121094 12.957031 C 16.121094 13.414063 15.628906 14 15.257813 14.394531 C 15.203125 14.703125 15.171875 15.046875 15.171875 15.320313 C 16.246094 14.671875 16.800781 14.339844 17.601563 13.757813 C 17.535156 13.542969 17.535156 13.289063 17.535156 13.042969 C 17.535156 11.605469 18.492188 9.996094 19.753906 9.996094 C 20.464844 9.996094 20.828125 10.496094 20.828125 11.050781 C 20.828125 12.09375 19.933594 13.011719 18.675781 13.96875 C 18.769531 14.214844 18.921875 14.429688 19.167969 14.554688 C 19.199219 14.492188 19.601563 14.425781 19.933594 14.425781 C 20.304688 14.425781 20.828125 14.523438 20.828125 14.894531 C 20.828125 15.320313 20.242188 15.414063 19.785156 15.414063 C 19.539063 15.449219 19.136719 15.351563 19.136719 15.351563 C 18.464844 15.535156 17.164063 16.308594 17.164063 18.273438 C 17.164063 19.601563 17.996094 20.828125 19.292969 20.828125 C 20.273438 20.828125 21.074219 20.089844 21.105469 18.953125 C 21.105469 18.214844 20.796875 17.441406 20.0625 17.441406 C 19.6875 17.441406 19.355469 17.71875 19.355469 18.121094 C 19.324219 18.738281 19.785156 18.800781 19.785156 19.195313 C 19.785156 19.472656 19.570313 19.601563 19.355469 19.601563 C 18.738281 19.601563 18.273438 18.984375 18.273438 18.214844 C 18.273438 17.289063 19.078125 16.523438 20.125 16.523438 C 21.472656 16.523438 22.179688 17.691406 22.179688 18.949219 Z M 19.683594 11.472656 C 19.683594 11.328125 19.652344 11.152344 19.476563 11.152344 C 19.042969 11.152344 18.347656 12.082031 18.347656 13.269531 C 19.214844 12.515625 19.683594 11.875 19.683594 11.472656 Z M 14.546875 11.351563 C 14.546875 11.210938 14.464844 11.152344 14.34375 11.152344 C 13.730469 11.152344 12.867188 12.746094 12.867188 13.703125 C 13.820313 13.179688 14.546875 11.992188 14.546875 11.351563 Z M 14.203125 16.78125 C 12.898438 17.417969 11.242188 18.550781 11.242188 19.796875 C 11.242188 20.257813 11.472656 20.550781 11.90625 20.550781 C 13.179688 20.550781 13.964844 18.519531 14.203125 16.78125 Z "></path>
</g>
</svg>
