<?xml version="1.0" encoding="UTF-8"?>
<svg xmlns="http://www.w3.org/2000/svg" xmlns:xlink="http://www.w3.org/1999/xlink" viewBox="0 0 32 32" version="1.1">
<g>
<path d="M 16 4 C 14.894531 4 14 4.894531 14 6 C 14 6.738281 14.402344 7.371094 15 7.71875 L 15 10 L 7 10 L 7 14.28125 C 6.402344 14.628906 6 15.261719 6 16 C 6 16.738281 6.402344 17.371094 7 17.71875 L 7 20 L 3 20 L 3 24.28125 C 2.402344 24.628906 2 25.261719 2 26 C 2 27.105469 2.894531 28 4 28 C 5.105469 28 6 27.105469 6 26 C 6 25.261719 5.597656 24.628906 5 24.28125 L 5 22 L 11 22 L 11 24.28125 C 10.402344 24.628906 10 25.261719 10 26 C 10 27.105469 10.894531 28 12 28 C 13.105469 28 14 27.105469 14 26 C 14 25.261719 13.597656 24.628906 13 24.28125 L 13 20 L 9 20 L 9 17.71875 C 9.597656 17.371094 10 16.738281 10 16 C 10 15.261719 9.597656 14.628906 9 14.28125 L 9 12 L 23 12 L 23 14.28125 C 22.402344 14.628906 22 15.261719 22 16 C 22 16.738281 22.402344 17.371094 23 17.71875 L 23 20 L 19 20 L 19 24.28125 C 18.402344 24.628906 18 25.261719 18 26 C 18 27.105469 18.894531 28 20 28 C 21.105469 28 22 27.105469 22 26 C 22 25.261719 21.597656 24.628906 21 24.28125 L 21 22 L 27 22 L 27 24.28125 C 26.402344 24.628906 26 25.261719 26 26 C 26 27.105469 26.894531 28 28 28 C 29.105469 28 30 27.105469 30 26 C 30 25.261719 29.597656 24.628906 29 24.28125 L 29 20 L 25 20 L 25 17.71875 C 25.597656 17.371094 26 16.738281 26 16 C 26 15.261719 25.597656 14.628906 25 14.28125 L 25 10 L 17 10 L 17 7.71875 C 17.597656 7.371094 18 6.738281 18 6 C 18 4.894531 17.105469 4 16 4 Z "></path>
</g>
</svg>
