<?xml version="1.0" encoding="UTF-8"?>
<svg xmlns="http://www.w3.org/2000/svg" xmlns:xlink="http://www.w3.org/1999/xlink" viewBox="0 0 32 32" version="1.1">
<g>
<path d="M 3 4 L 3 6 L 29 6 L 29 4 Z M 6 7 L 6 8 L 3 8 L 3 10 L 29 10 L 29 8 L 26 8 L 26 7 L 24 7 L 24 8 L 8 8 L 8 7 Z M 6 11 L 6 12 L 3 12 L 3 14 L 29 14 L 29 12 L 26 12 L 26 11 L 24 11 L 24 12 L 8 12 L 8 11 Z M 6 15 L 6 28 L 26 28 L 26 15 L 24 15 L 24 26 L 8 26 L 8 15 Z M 28 15 C 27.5 15 27 15.5 27 16 C 27 16.5 27.5 17 28 17 C 28.5 17 29 16.5 29 16 C 29 15.5 28.5 15 28 15 Z M 28 18 C 27.5 18 27 18.5 27 19 C 27 19.5 27.5 20 28 20 C 28.5 20 29 19.5 29 19 C 29 18.5 28.5 18 28 18 Z M 28 21 C 27.5 21 27 21.5 27 22 C 27 22.5 27.5 23 28 23 C 28.5 23 29 22.5 29 22 C 29 21.5 28.5 21 28 21 Z M 28 24 C 27.5 24 27 24.5 27 25 C 27 25.5 27.5 26 28 26 C 28.5 26 29 25.5 29 25 C 29 24.5 28.5 24 28 24 Z "></path>
</g>
</svg>
