<?xml version="1.0" encoding="UTF-8"?>
<svg xmlns="http://www.w3.org/2000/svg" xmlns:xlink="http://www.w3.org/1999/xlink" viewBox="0 0 32 32" version="1.1">
<g>
<path d="M 17 3 C 16.246094 3 15.566406 3.308594 15.125 3.75 C 14.683594 4.191406 14.433594 4.714844 14.28125 5.1875 C 13.988281 6.085938 14 6.824219 14 6.90625 C 14 6.90625 14 6.9375 14 6.9375 C 14 6.941406 14 7 14 7 C 14 7 14.03125 7 14.03125 7 C 14.023438 7.085938 13.949219 7.683594 14.28125 8.40625 C 14.625 9.15625 15.574219 9.925781 16.90625 9.96875 C 16.90625 9.976563 16.90625 9.988281 16.90625 10 L 16 9.90625 C 15.929688 10.566406 15.636719 10.679688 15.125 10.84375 C 14.640625 10.996094 14.183594 11 14.125 11 C 14.121094 11 14.0625 11 14.0625 11 C 13.960938 10.992188 11.164063 10.785156 9.1875 13.40625 L 8.5 14.34375 C 7.480469 15.695313 8.027344 17.710938 9.625 18.3125 C 10.636719 18.695313 12.050781 19 14 19 L 14 17 C 12.253906 17 11.070313 16.722656 10.3125 16.4375 C 9.933594 16.292969 9.839844 15.894531 10.09375 15.5625 L 10.8125 14.59375 C 12.273438 12.660156 13.875 13 13.875 13 L 13.9375 13 C 13.9375 13 14.789063 13.046875 15.71875 12.75 C 16.078125 12.636719 16.480469 12.445313 16.84375 12.15625 C 16.96875 12.394531 17.105469 12.617188 17.28125 12.75 C 17.515625 12.925781 17.8125 12.992188 17.84375 13 C 17.84375 13 17.875 13 17.875 13 C 17.925781 13.011719 19.449219 13.316406 20.15625 14.5 C 20.304688 14.75 20.519531 15.5 20.65625 16.34375 C 20.792969 17.1875 20.886719 18.144531 20.9375 18.96875 C 20.972656 19.535156 20.542969 20 19.96875 20 L 16.40625 20 L 16.125 20.5 C 16.125 20.5 15.023438 22.355469 14.875 24.4375 C 14.851563 24.785156 14.855469 25.164063 14.90625 25.53125 C 14.550781 25.246094 14.238281 24.933594 13.9375 24.59375 C 12.984375 23.511719 12.335938 22.183594 12.09375 21 C 12.070313 20.871094 12.078125 20.75 12.0625 20.625 C 12.058594 20.582031 12.035156 20.542969 12.03125 20.5 C 12.011719 20.332031 12 20.160156 12 20 C 12 19.972656 12 19.914063 12 19.875 C 11.289063 19.792969 10.644531 19.675781 10.03125 19.5 C 10.015625 19.765625 10 19.949219 10 20 C 10 22 10.890625 24.183594 12.4375 25.9375 C 13.984375 27.691406 16.25 29 19 29 C 19.234375 29 19.464844 28.976563 19.6875 28.96875 C 19.796875 28.972656 19.886719 29 20 29 L 20 28.96875 C 22.019531 28.851563 23.394531 28.390625 24.3125 27.875 C 24.84375 27.578125 25.222656 27.253906 25.46875 27 C 25.714844 26.746094 25.875 26.5 25.875 26.5 L 24.125 25.5 C 24.125 25.5 24.148438 25.503906 24.03125 25.625 C 23.914063 25.746094 23.707031 25.921875 23.34375 26.125 C 22.679688 26.496094 21.464844 26.902344 19.5 26.96875 C 18.28125 26.890625 17.632813 26.566406 17.3125 26.21875 C 16.945313 25.824219 16.824219 25.273438 16.875 24.5625 C 16.949219 23.503906 17.367188 22.535156 17.625 22 L 19.96875 22 C 21.660156 22 23.039063 20.566406 22.9375 18.875 C 22.886719 18.007813 22.78125 16.980469 22.625 16.03125 C 22.46875 15.082031 22.277344 14.226563 21.84375 13.5 C 20.792969 11.746094 19.222656 11.289063 18.625 11.15625 C 18.605469 11.046875 18.523438 10.570313 18.9375 9.3125 C 19.011719 9.175781 19.636719 8.058594 19.875 6.65625 C 20.003906 5.914063 20.046875 5.074219 19.59375 4.28125 C 19.140625 3.488281 18.152344 3 17 3 Z M 17 5 C 17.703125 5 17.761719 5.136719 17.84375 5.28125 C 17.925781 5.425781 17.992188 5.835938 17.90625 6.34375 C 17.773438 7.109375 17.492188 7.625 17.3125 8 L 17 8 C 16.222656 8 16.199219 7.824219 16.09375 7.59375 C 15.988281 7.363281 16 7.09375 16 7.09375 L 16 7 C 16 7 16.007813 6.367188 16.1875 5.8125 C 16.277344 5.535156 16.40625 5.308594 16.53125 5.1875 C 16.65625 5.066406 16.734375 5 17 5 Z "></path>
</g>
</svg>
