<?xml version="1.0" encoding="UTF-8"?>
<svg xmlns="http://www.w3.org/2000/svg" xmlns:xlink="http://www.w3.org/1999/xlink" viewBox="0 0 32 32" version="1.1">
<g>
<path d="M 16 3.5 L 15.375 4.1875 C 15.351563 4.207031 15.332031 4.226563 15.3125 4.25 L 15.25 4.3125 C 15.226563 4.34375 15.207031 4.375 15.1875 4.40625 L 5.46875 15.0625 C 5.191406 15.183594 4.984375 15.425781 4.90625 15.71875 L 4.65625 16 L 4.90625 16.28125 C 4.992188 16.582031 5.210938 16.824219 5.5 16.9375 L 15.03125 27.4375 C 15.03125 27.449219 15.03125 27.457031 15.03125 27.46875 C 15.125 27.71875 15.316406 27.921875 15.5625 28.03125 L 16 28.5 L 16.4375 28 C 16.457031 27.992188 16.480469 27.980469 16.5 27.96875 L 16.53125 27.9375 C 16.691406 27.839844 16.820313 27.699219 16.90625 27.53125 C 16.90625 27.519531 16.90625 27.511719 16.90625 27.5 L 26.75 16.6875 L 26.75 16.65625 C 26.773438 16.636719 26.792969 16.617188 26.8125 16.59375 L 27.34375 16 L 26.84375 15.4375 C 26.816406 15.394531 26.785156 15.351563 26.75 15.3125 L 16.875 4.46875 C 16.867188 4.449219 16.855469 4.425781 16.84375 4.40625 L 16.8125 4.375 C 16.773438 4.328125 16.734375 4.289063 16.6875 4.25 Z M 15.3125 7.25 L 16.78125 16.75 L 8 15.3125 Z M 17.5 8.15625 L 24.125 15.4375 L 18.84375 16.78125 Z M 8.71875 17.46875 L 16.78125 18.8125 L 15.4375 24.90625 Z M 23 17.78125 L 17.78125 23.53125 L 18.84375 18.84375 Z "></path>
</g>
</svg>
