<?xml version="1.0" encoding="UTF-8"?>
<svg xmlns="http://www.w3.org/2000/svg" xmlns:xlink="http://www.w3.org/1999/xlink" viewBox="0 0 32 32" version="1.1">
<g>
<path d="M 20.125 4 L 20 4.84375 L 19.125 11 L 18 11 L 18 7 L 7 7 L 7 11 L 4 11 L 4 28 L 6 28 L 6 13 L 9 13 L 9 9 L 16 9 L 16 13 L 20.875 13 L 21 12.15625 L 21.875 6 L 22.125 6 L 23 12.15625 L 23.125 13 L 26 13 L 26 28 L 28 28 L 28 11 L 24.875 11 L 24 4.84375 L 23.875 4 Z M 10 10 L 10 12 L 12 12 L 12 10 Z M 13 10 L 13 12 L 15 12 L 15 10 Z M 11 16.59375 L 10.28125 17.28125 L 7.28125 20.28125 L 8.71875 21.71875 L 10 20.4375 L 10 28 L 12 28 L 12 20.4375 L 13.28125 21.71875 L 14.71875 20.28125 L 11.71875 17.28125 Z M 21 16.59375 L 20.28125 17.28125 L 17.28125 20.28125 L 18.71875 21.71875 L 20 20.4375 L 20 28 L 22 28 L 22 20.4375 L 23.28125 21.71875 L 24.71875 20.28125 L 21.71875 17.28125 Z "></path>
</g>
</svg>
