<?xml version="1.0" encoding="UTF-8"?>
<svg xmlns="http://www.w3.org/2000/svg" xmlns:xlink="http://www.w3.org/1999/xlink" viewBox="0 0 32 32" version="1.1">
<g>
<path d="M 11.4375 6 L 11.15625 6.5 C 11.15625 6.5 8.285156 11.277344 6.21875 16.28125 C 5.300781 16.714844 3.046875 17.984375 2.0625 20.65625 L 1.875 21.15625 L 2.1875 21.59375 C 2.1875 21.59375 2.476563 21.949219 2.96875 22.375 C 3.460938 22.800781 4.210938 23.367188 5.28125 23.90625 C 7.425781 24.980469 10.839844 26 16 26 C 21.160156 26 24.574219 24.980469 26.71875 23.90625 C 27.789063 23.367188 28.539063 22.800781 29.03125 22.375 C 29.523438 21.949219 29.8125 21.59375 29.8125 21.59375 L 30.125 21.15625 L 29.9375 20.65625 C 29.160156 18.546875 27.558594 17.277344 26.46875 16.625 C 27.339844 15.269531 28 13.429688 28 11 L 28 9.78125 L 26.8125 10.03125 C 26.8125 10.03125 25.285156 10.328125 23.84375 11.625 C 23.8125 11.652344 23.78125 11.6875 23.75 11.71875 C 22.296875 8.847656 20.84375 6.46875 20.84375 6.46875 L 20.5625 6 L 18.625 6 L 18.3125 6.25 C 18.3125 6.25 17.792969 6.75 17.1875 7.21875 C 16.882813 7.453125 16.570313 7.660156 16.3125 7.8125 C 16.183594 7.886719 16.070313 7.941406 16 7.96875 C 15.929688 7.941406 15.816406 7.886719 15.6875 7.8125 C 15.429688 7.660156 15.117188 7.453125 14.8125 7.21875 C 14.207031 6.75 13.6875 6.25 13.6875 6.25 L 13.375 6 Z M 12.5625 8 L 12.625 8 C 12.8125 8.167969 13.074219 8.378906 13.59375 8.78125 C 13.9375 9.046875 14.308594 9.339844 14.6875 9.5625 C 15.066406 9.785156 15.390625 10 16 10 C 16.609375 10 16.933594 9.785156 17.3125 9.5625 C 17.691406 9.339844 18.0625 9.046875 18.40625 8.78125 C 18.925781 8.378906 19.1875 8.167969 19.375 8 C 19.378906 7.996094 19.402344 8.003906 19.40625 8 C 19.632813 8.371094 21.007813 10.640625 22.375 13.4375 C 21.671875 14.625 21.144531 16.203125 21.03125 18.21875 C 19.785156 18.652344 18.160156 19 16 19 C 12.898438 19 10.828125 18.304688 9.53125 17.625 C 8.582031 17.128906 8.449219 16.921875 8.25 16.71875 C 10.058594 12.441406 12.171875 8.667969 12.5625 8 Z M 25.65625 12.8125 C 25.292969 14.613281 24.625 15.984375 23.8125 16.75 C 23.570313 16.976563 23.566406 16.871094 23.34375 17.03125 C 23.710938 15.171875 24.371094 13.796875 25.15625 13.09375 C 25.417969 12.859375 25.417969 12.960938 25.65625 12.8125 Z M 6.84375 18.21875 C 7.242188 18.550781 7.824219 18.972656 8.59375 19.375 C 10.167969 20.195313 12.589844 21 16 21 C 17.996094 21 19.652344 20.707031 21 20.3125 L 21.28125 20.25 C 21.335938 20.230469 21.382813 20.207031 21.4375 20.1875 L 22.28125 19.96875 C 22.28125 19.96875 23.726563 19.539063 25.125 18.25 C 25.136719 18.238281 25.144531 18.230469 25.15625 18.21875 C 25.824219 18.609375 27.019531 19.433594 27.75 20.84375 C 27.726563 20.863281 27.742188 20.851563 27.71875 20.875 C 27.34375 21.199219 26.734375 21.632813 25.8125 22.09375 C 23.96875 23.019531 20.894531 24 16 24 C 11.105469 24 8.03125 23.019531 6.1875 22.09375 C 5.265625 21.632813 4.65625 21.199219 4.28125 20.875 C 4.257813 20.851563 4.273438 20.863281 4.25 20.84375 C 4.980469 19.433594 6.175781 18.609375 6.84375 18.21875 Z "></path>
</g>
</svg>
