<?xml version="1.0" encoding="UTF-8"?>
<svg xmlns="http://www.w3.org/2000/svg" xmlns:xlink="http://www.w3.org/1999/xlink" viewBox="0 0 32 32" version="1.1">
<g>
<path d="M 15.640625 6.296875 L 15.851563 6.777344 C 16.066406 7.269531 16.472656 7.65625 16.976563 7.84375 C 17.203125 7.929688 17.441406 7.972656 17.679688 7.972656 C 17.972656 7.972656 18.261719 7.910156 18.527344 7.78125 L 21.527344 6.378906 L 23.332031 7.964844 L 23.660156 8.273438 L 23.433594 9.257813 C 23.363281 9.554688 23.363281 9.863281 23.433594 10.164063 L 24.488281 14.710938 C 24.402344 14.757813 24.320313 14.8125 24.242188 14.875 L 21.949219 16.6875 L 20.660156 17.183594 L 19.320313 17.429688 C 18.703125 17.542969 18.175781 17.9375 17.894531 18.5 C 17.613281 19.058594 17.609375 19.71875 17.886719 20.28125 L 19.261719 23.085938 C 19.367188 23.296875 19.507813 23.488281 19.679688 23.652344 L 21.289063 25.1875 L 20.386719 25.949219 C 20.0625 26.222656 19.835938 26.589844 19.734375 26.992188 L 19.007813 27.054688 C 18.804688 27.070313 18.605469 27.117188 18.417969 27.191406 L 17.214844 27.679688 L 16.828125 27.6875 L 16.113281 27.460938 C 15.917969 27.402344 15.71875 27.371094 15.515625 27.371094 C 15.238281 27.371094 14.960938 27.429688 14.703125 27.542969 L 12.5 27.0625 C 12.441406 27.050781 12.386719 27.039063 12.328125 27.03125 L 10.113281 26.746094 L 10.1875 26.515625 L 11.21875 24.433594 C 11.460938 23.945313 11.492188 23.382813 11.308594 22.871094 C 11.125 22.359375 10.742188 21.941406 10.246094 21.722656 L 8.074219 20.75 C 7.9375 20.6875 7.789063 20.640625 7.640625 20.613281 L 7.472656 20.578125 L 7.269531 20.269531 L 7.117188 19.289063 L 7.121094 19.285156 C 7.523438 18.816406 7.683594 18.1875 7.5625 17.585938 L 7.203125 15.824219 L 7.46875 15.121094 C 7.535156 14.9375 7.578125 14.746094 7.589844 14.554688 L 7.613281 14.1875 C 7.664063 14.15625 7.710938 14.117188 7.757813 14.082031 L 9.484375 12.636719 C 10.195313 12.046875 10.402344 11.050781 10.003906 10.230469 L 10.925781 9.105469 C 11.066406 9.160156 11.214844 9.199219 11.367188 9.222656 C 11.679688 9.414063 12.042969 9.515625 12.414063 9.515625 C 12.566406 9.515625 12.722656 9.5 12.875 9.464844 C 13.644531 9.28125 14.238281 8.660156 14.382813 7.878906 L 14.417969 7.675781 C 14.816406 7.523438 15.160156 7.242188 15.394531 6.875 C 15.507813 6.695313 15.589844 6.5 15.640625 6.296875 M 13.117188 2 L 13.753906 3.445313 L 13.042969 3.929688 L 13.699219 5.8125 L 12.707031 5.925781 L 12.414063 7.519531 L 11.898438 6.835938 L 11.65625 7.242188 L 11.152344 6.28125 L 9.585938 6.230469 L 9.242188 6.890625 L 9.632813 7.53125 L 7.609375 10.003906 L 8.207031 11.105469 L 6.476563 12.546875 L 5.738281 12.382813 L 5.597656 14.417969 L 5.128906 15.660156 L 5.601563 17.984375 L 5 18.6875 L 5.359375 21.003906 L 6.257813 22.382813 L 7.257813 22.574219 L 9.425781 23.546875 L 8.332031 25.757813 L 7.691406 27.734375 L 8.148438 28.761719 L 9.851563 28.726563 L 12.074219 29.015625 L 14.335938 29.507813 L 14.789063 30 L 15.519531 29.371094 L 16.539063 29.6875 L 17.621094 29.675781 L 19.171875 29.046875 L 20.542969 28.933594 L 22.050781 29.28125 L 21.675781 27.730469 L 21.679688 27.476563 L 23.945313 25.5625 L 24.027344 25.027344 L 21.058594 22.203125 L 19.683594 19.398438 L 21.207031 19.117188 L 22.953125 18.445313 L 25.484375 16.445313 L 25.996094 16.660156 L 26.636719 17.390625 L 27 16.671875 L 25.382813 9.710938 L 25.78125 7.996094 L 25.734375 7.472656 L 24.679688 6.484375 L 22.335938 4.425781 L 21.882813 4.113281 L 21.289063 4.28125 L 17.683594 5.972656 L 16.808594 3.988281 L 16.089844 4.082031 L 15.535156 3.621094 L 15.703125 2.5625 L 14.777344 2.207031 L 14.109375 2.253906 Z "></path>
</g>
</svg>
