<?xml version="1.0" encoding="UTF-8"?>
<svg xmlns="http://www.w3.org/2000/svg" xmlns:xlink="http://www.w3.org/1999/xlink" viewBox="0 0 32 32" version="1.1">
<g>
<path d="M 16 3 C 13.25 3 11 5.25 11 8 C 11 8.839844 11.222656 9.617188 11.59375 10.3125 L 6.75 9.09375 L 6.71875 9.09375 C 6.527344 9.046875 6.320313 9.011719 6.125 9 C 5.542969 8.96875 4.972656 9.105469 4.46875 9.40625 C 3.78125 9.816406 3.285156 10.507813 3.09375 11.28125 C 2.898438 12.050781 3.03125 12.851563 3.4375 13.53125 C 3.847656 14.210938 4.507813 14.714844 5.28125 14.90625 L 11 16.34375 L 11 18.625 L 8.25 24.78125 C 7.585938 26.285156 8.277344 28.082031 9.78125 28.75 C 10.164063 28.921875 10.582031 29 11 29 C 12.183594 29 13.269531 28.296875 13.75 27.21875 L 16 22.125 L 18.25 27.21875 C 18.730469 28.300781 19.816406 29 21 29 C 21.417969 29 21.835938 28.921875 22.21875 28.75 C 23.722656 28.082031 24.414063 26.285156 23.75 24.78125 L 21 18.625 L 21 16.34375 L 26.71875 14.90625 C 27.492188 14.714844 28.15625 14.210938 28.5625 13.53125 C 28.96875 12.851563 29.101563 12.050781 28.90625 11.28125 C 28.714844 10.507813 28.21875 9.816406 27.53125 9.40625 C 26.859375 9.003906 26.039063 8.90625 25.28125 9.09375 C 25.269531 9.097656 25.261719 9.089844 25.25 9.09375 L 20.40625 10.3125 C 20.777344 9.617188 21 8.839844 21 8 C 21 5.25 18.75 3 16 3 Z M 16 5 C 17.667969 5 19 6.332031 19 8 C 19 9.667969 17.667969 11 16 11 C 14.332031 11 13 9.667969 13 8 C 13 6.332031 14.332031 5 16 5 Z M 5.875 11 C 6 10.984375 6.117188 10.996094 6.25 11.03125 L 6.375 11.0625 L 5.84375 13 L 5.75 12.96875 C 5.484375 12.902344 5.296875 12.734375 5.15625 12.5 C 5.015625 12.265625 4.964844 12.015625 5.03125 11.75 C 5.097656 11.484375 5.265625 11.265625 5.5 11.125 C 5.617188 11.054688 5.75 11.015625 5.875 11 Z M 26.15625 11 C 26.277344 11.015625 26.382813 11.054688 26.5 11.125 C 26.738281 11.265625 26.902344 11.480469 26.96875 11.75 C 27.035156 12.011719 26.984375 12.261719 26.84375 12.5 C 26.703125 12.734375 26.515625 12.902344 26.25 12.96875 L 26.15625 13 L 25.625 11.0625 L 25.75 11.03125 L 25.78125 11.03125 C 25.90625 11 26.035156 10.984375 26.15625 11 Z M 8.34375 11.5625 L 14 12.96875 L 14.125 13 L 17.875 13 L 18 12.96875 L 23.65625 11.5625 L 24.21875 13.46875 L 19.75 14.59375 L 19 14.78125 L 19 19.03125 L 19.09375 19.21875 L 21.03125 23.59375 L 19.21875 24.46875 L 17.5 20.59375 L 17.25 20 L 14.75 20 L 14.5 20.59375 L 12.78125 24.46875 L 10.96875 23.59375 L 12.90625 19.21875 L 13 19.03125 L 13 14.78125 L 12.25 14.59375 L 7.78125 13.46875 Z M 16 14 C 15.449219 14 15 14.449219 15 15 C 15 15.550781 15.449219 16 16 16 C 16.550781 16 17 15.550781 17 15 C 17 14.449219 16.550781 14 16 14 Z M 16 17 C 15.449219 17 15 17.449219 15 18 C 15 18.550781 15.449219 19 16 19 C 16.550781 19 17 18.550781 17 18 C 17 17.449219 16.550781 17 16 17 Z M 10.15625 25.4375 L 11.9375 26.3125 L 11.90625 26.40625 C 11.746094 26.769531 11.394531 27 11 27 C 10.855469 27 10.722656 26.964844 10.59375 26.90625 C 10.085938 26.679688 9.867188 26.109375 10.09375 25.59375 Z M 21.84375 25.4375 L 21.90625 25.59375 C 22.132813 26.109375 21.914063 26.679688 21.40625 26.90625 C 21.277344 26.964844 21.144531 27 21 27 C 20.605469 27 20.253906 26.769531 20.09375 26.40625 L 20.0625 26.3125 Z "></path>
</g>
</svg>
