<?xml version="1.0" encoding="UTF-8"?>
<svg xmlns="http://www.w3.org/2000/svg" xmlns:xlink="http://www.w3.org/1999/xlink" viewBox="0 0 32 32" version="1.1">
<g>
<path d="M 16 3.765625 L 15.414063 4.1875 C 15.414063 4.1875 6.070313 10.960938 3.320313 12.96875 C 2.472656 13.59375 2 14.597656 2 15.660156 C 2 17.363281 3.320313 18.769531 5 18.9375 L 5 28 L 27 28 L 27 18.9375 C 28.679688 18.769531 30 17.363281 30 15.660156 C 30 14.597656 29.527344 13.59375 28.675781 12.96875 C 25.929688 10.960938 16.585938 4.1875 16.585938 4.1875 Z M 16 6.234375 C 16.828125 6.835938 24.898438 12.683594 27.496094 14.582031 C 27.765625 14.78125 28 15.226563 28 15.660156 C 28 16.386719 27.40625 17 26.691406 17 L 25 17 L 25 26 L 19 26 L 19 24 C 19 22.355469 17.644531 21 16 21 C 14.355469 21 13 22.355469 13 24 L 13 26 L 7 26 L 7 17 L 5.308594 17 C 4.59375 17 4 16.386719 4 15.660156 C 4 15.226563 4.234375 14.78125 4.503906 14.582031 C 7.101563 12.683594 15.171875 6.835938 16 6.234375 Z M 16 8 C 15.449219 8 15 8.449219 15 9 C 15 9.550781 15.449219 10 16 10 C 16.550781 10 17 9.550781 17 9 C 17 8.449219 16.550781 8 16 8 Z M 13 10 C 12.449219 10 12 10.449219 12 11 C 12 11.550781 12.449219 12 13 12 C 13.550781 12 14 11.550781 14 11 C 14 10.449219 13.550781 10 13 10 Z M 19 10 C 18.449219 10 18 10.449219 18 11 C 18 11.550781 18.449219 12 19 12 C 19.550781 12 20 11.550781 20 11 C 20 10.449219 19.550781 10 19 10 Z M 10 12 C 9.449219 12 9 12.449219 9 13 C 9 13.550781 9.449219 14 10 14 C 10.550781 14 11 13.550781 11 13 C 11 12.449219 10.550781 12 10 12 Z M 22 12 C 21.449219 12 21 12.449219 21 13 C 21 13.550781 21.449219 14 22 14 C 22.550781 14 23 13.550781 23 13 C 23 12.449219 22.550781 12 22 12 Z M 7 14 C 6.449219 14 6 14.449219 6 15 C 6 15.550781 6.449219 16 7 16 C 7.550781 16 8 15.550781 8 15 C 8 14.449219 7.550781 14 7 14 Z M 25 14 C 24.449219 14 24 14.449219 24 15 C 24 15.550781 24.449219 16 25 16 C 25.550781 16 26 15.550781 26 15 C 26 14.449219 25.550781 14 25 14 Z M 15 15 C 14.449219 15 14 15.449219 14 16 L 14 18 C 14 18.550781 14.449219 19 15 19 L 17 19 C 17.550781 19 18 18.550781 18 18 L 18 16 C 18 15.449219 17.550781 15 17 15 Z M 9 17 C 8.449219 17 8 17.449219 8 18 C 8 18.550781 8.449219 19 9 19 C 9.550781 19 10 18.550781 10 18 C 10 17.449219 9.550781 17 9 17 Z M 23 17 C 22.449219 17 22 17.449219 22 18 C 22 18.550781 22.449219 19 23 19 C 23.550781 19 24 18.550781 24 18 C 24 17.449219 23.550781 17 23 17 Z M 9 20 C 8.449219 20 8 20.449219 8 21 C 8 21.550781 8.449219 22 9 22 C 9.550781 22 10 21.550781 10 21 C 10 20.449219 9.550781 20 9 20 Z M 23 20 C 22.449219 20 22 20.449219 22 21 C 22 21.550781 22.449219 22 23 22 C 23.550781 22 24 21.550781 24 21 C 24 20.449219 23.550781 20 23 20 Z M 9 23 C 8.449219 23 8 23.449219 8 24 C 8 24.550781 8.449219 25 9 25 C 9.550781 25 10 24.550781 10 24 C 10 23.449219 9.550781 23 9 23 Z M 16 23 C 16.566406 23 17 23.433594 17 24 L 17 26 L 15 26 L 15 24 C 15 23.433594 15.433594 23 16 23 Z M 23 23 C 22.449219 23 22 23.449219 22 24 C 22 24.550781 22.449219 25 23 25 C 23.550781 25 24 24.550781 24 24 C 24 23.449219 23.550781 23 23 23 Z "></path>
</g>
</svg>
