<?xml version="1.0" encoding="UTF-8"?>
<svg xmlns="http://www.w3.org/2000/svg" xmlns:xlink="http://www.w3.org/1999/xlink" viewBox="0 0 32 32" version="1.1">
<g>
<path d="M 16 3 C 13.25 3 11 5.25 11 8 C 11 9.648438 11.824219 11.117188 13.0625 12.03125 C 12.898438 12.164063 12.738281 12.285156 12.59375 12.4375 C 11.773438 13.304688 11.269531 14.460938 11.03125 15.71875 C 11.023438 15.753906 11.007813 15.777344 11 15.8125 L 9.34375 21.71875 L 9 23 L 13 23 L 13 29 L 15 29 L 15 23 L 17 23 L 17 29 L 19 29 L 19 23 L 23 23 L 22.65625 21.71875 L 20.96875 15.71875 L 20.9375 15.71875 C 20.699219 14.519531 20.21875 13.378906 19.40625 12.5 C 19.257813 12.339844 19.078125 12.203125 18.90625 12.0625 C 20.164063 11.152344 21 9.664063 21 8 C 21 5.25 18.75 3 16 3 Z M 16 5 C 17.667969 5 19 6.332031 19 8 C 19 9.667969 17.667969 11 16 11 C 14.332031 11 13 9.667969 13 8 C 13 6.332031 14.332031 5 16 5 Z M 16 13 C 16.828125 13 17.421875 13.316406 17.9375 13.875 C 18.453125 14.433594 18.859375 15.261719 19.03125 16.1875 L 19.03125 16.28125 L 20.34375 21 L 11.65625 21 L 12.96875 16.28125 L 12.96875 16.21875 L 13 16.1875 C 13.175781 15.1875 13.558594 14.347656 14.0625 13.8125 C 14.566406 13.277344 15.152344 13 16 13 Z "></path>
</g>
</svg>
