<?xml version="1.0" encoding="UTF-8"?>
<svg xmlns="http://www.w3.org/2000/svg" xmlns:xlink="http://www.w3.org/1999/xlink" viewBox="0 0 32 32" version="1.1">
<g>
<path d="M 6 3 L 6 10 L 8 10 L 8 5 L 24 5 L 24 10 L 26 10 L 26 3 Z M 10.59375 12 C 9.210938 12 8.09375 13.117188 8.09375 14.5 L 8.09375 17.5 C 8.09375 18.882813 9.210938 20 10.59375 20 L 13.09375 20 L 13.09375 16 L 11.09375 16 L 11.09375 18 L 10.59375 18 C 10.378906 18 10.09375 17.714844 10.09375 17.5 L 10.09375 14.5 C 10.09375 14.285156 10.378906 14 10.59375 14 C 10.808594 14 11.09375 14.285156 11.09375 14.5 L 11.09375 15 L 13.09375 15 L 13.09375 14.5 C 13.09375 13.117188 11.976563 12 10.59375 12 Z M 15 12 L 15 20 L 17 20 L 17 12 Z M 21.5 12 C 20.117188 12 19 13.117188 19 14.5 C 19 15.882813 20.117188 17 21.5 17 C 21.714844 17 22 17.285156 22 17.5 C 22 17.800781 21.882813 18 21.5 18 C 21.132813 18 21.074219 17.921875 21.0625 17.90625 C 21.050781 17.890625 21 17.828125 21 17.59375 L 19 17.59375 C 19 18.160156 19.164063 18.796875 19.625 19.28125 C 20.085938 19.765625 20.769531 20 21.5 20 C 22.917969 20 24 18.800781 24 17.5 C 24 16.117188 22.882813 15 21.5 15 C 21.285156 15 21 14.714844 21 14.5 C 21 14.285156 21.285156 14 21.5 14 C 21.765625 14 21.847656 14.0625 21.90625 14.125 C 21.964844 14.1875 22 14.292969 22 14.40625 L 24 14.40625 C 24 13.816406 23.785156 13.214844 23.34375 12.75 C 22.902344 12.285156 22.234375 12 21.5 12 Z M 6 22 L 6 29 L 26 29 L 26 22 L 24 22 L 24 27 L 8 27 L 8 22 Z "></path>
</g>
</svg>
