<?xml version="1.0" encoding="UTF-8"?>
<svg xmlns="http://www.w3.org/2000/svg" xmlns:xlink="http://www.w3.org/1999/xlink" viewBox="0 0 32 32" version="1.1">
<g>
<path d="M 17.59375 3 L 16.875 3.6875 L 8 12.59375 C 6.679688 13.914063 6.679688 16.085938 8 17.40625 L 8.0625 17.5 L 6.28125 19.28125 L 5.59375 20 L 6.28125 20.71875 L 6.5625 21 C 5.554688 22.046875 4 24.085938 4 27 L 4 28 L 5 28 C 7.984375 28 9.996094 26.488281 11.03125 25.46875 L 11.28125 25.71875 L 12 26.40625 L 12.71875 25.71875 L 14.5 23.9375 L 14.59375 24 C 15.914063 25.320313 18.085938 25.320313 19.40625 24 L 28.3125 15.125 L 29 14.40625 L 28.3125 13.6875 L 18.3125 3.6875 Z M 17.59375 5.84375 L 26.15625 14.40625 L 18.6875 21.875 L 18 22.59375 C 17.441406 23.152344 16.558594 23.152344 16 22.59375 L 9.40625 16 C 8.847656 15.441406 8.847656 14.558594 9.40625 14 Z M 13.71875 12.28125 L 12.28125 13.71875 L 18.28125 19.71875 L 19.71875 18.28125 Z M 9.5 18.9375 L 13.0625 22.5 L 12 23.5625 L 8.4375 20 Z M 8 22.4375 L 9.59375 24.03125 C 9.097656 24.605469 8.136719 25.402344 6.21875 25.78125 C 6.613281 23.957031 7.421875 22.972656 8 22.4375 Z "></path>
</g>
</svg>
