<?xml version="1.0" encoding="UTF-8"?>
<svg xmlns="http://www.w3.org/2000/svg" xmlns:xlink="http://www.w3.org/1999/xlink" viewBox="0 0 32 32" version="1.1">
<g>
<path d="M 4 5 L 4 6.34375 C 2.804688 6.914063 2 8.128906 2 9.5 C 2 10.925781 2.855469 12.179688 4.125 12.71875 C 4.546875 15.753906 6.042969 18.875 8.21875 21.21875 C 9.117188 27.09375 12.59375 28 16 28 C 19.410156 28 22.886719 27.113281 23.78125 21.21875 C 25.929688 18.894531 27.449219 15.746094 27.875 12.71875 C 29.144531 12.179688 30 10.925781 30 9.5 C 30 8.128906 29.195313 6.914063 28 6.34375 L 28 5 L 26 5 L 26 7.875 L 26.8125 8.03125 C 27.507813 8.171875 28 8.789063 28 9.5 C 28 10.222656 27.492188 10.835938 26.78125 10.96875 L 26.03125 11.125 L 25.96875 11.875 C 25.804688 13.800781 25.078125 15.808594 24 17.59375 L 24 17 L 23 17 C 21.636719 17 20.910156 18.132813 20.375 18.96875 C 20.117188 19.375 19.722656 20 19.5 20 C 19.273438 20 19.234375 19.964844 19.15625 19.75 C 19.03125 19.390625 19.03125 18.839844 19.03125 18.375 L 19.03125 17.59375 L 18.28125 17.40625 C 18.03125 17.339844 16.75 17 16 17 C 15.25 17 13.96875 17.339844 13.71875 17.40625 L 12.96875 17.65625 L 12.96875 18.40625 C 12.96875 18.757813 12.976563 19.300781 12.84375 19.6875 C 12.738281 19.996094 12.652344 20 12.5 20 C 12.277344 20 11.882813 19.375 11.625 18.96875 C 11.089844 18.132813 10.359375 17 9 17 L 8 17 L 8 17.59375 C 6.917969 15.804688 6.199219 13.808594 6.03125 11.875 L 5.96875 11.09375 L 5.21875 10.96875 C 4.507813 10.839844 4 10.222656 4 9.5 C 4 8.789063 4.492188 8.171875 5.1875 8.03125 L 6 7.875 L 6 5 Z M 11.5 6 C 10.671875 6 10 6.671875 10 7.5 C 10 8.328125 10.671875 9 11.5 9 C 12.328125 9 13 8.328125 13 7.5 C 13 6.671875 12.328125 6 11.5 6 Z M 20.5 6 C 19.671875 6 19 6.671875 19 7.5 C 19 8.328125 19.671875 9 20.5 9 C 21.328125 9 22 8.328125 22 7.5 C 22 6.671875 21.328125 6 20.5 6 Z M 16 13.96875 C 14.480469 13.929688 12.371094 14.246094 11.5 14.75 L 12.5 16.5 C 12.824219 16.3125 14.378906 15.96875 15.96875 15.96875 L 16 15.96875 C 17.527344 15.972656 19.140625 16.285156 19.53125 16.5 L 20.46875 14.75 C 19.574219 14.257813 17.503906 13.972656 16 13.96875 Z "></path>
</g>
</svg>
