<?xml version="1.0" encoding="UTF-8"?>
<svg xmlns="http://www.w3.org/2000/svg" xmlns:xlink="http://www.w3.org/1999/xlink" viewBox="0 0 32 32" version="1.1">
<g>
<path d="M 5 6 C 3.90625 6 3 6.90625 3 8 L 3 12 C 3 13.09375 3.90625 14 5 14 L 9 14 L 9 15 L 4 15 C 3.640625 14.996094 3.304688 15.183594 3.121094 15.496094 C 2.941406 15.808594 2.941406 16.191406 3.121094 16.503906 C 3.304688 16.816406 3.640625 17.003906 4 17 L 9.03125 17 C 10.113281 17 11 16.113281 11 15.03125 L 11 12 C 11.007813 11.9375 11.007813 11.875 11 11.8125 L 11 8 C 11 6.90625 10.09375 6 9 6 Z M 14 6 C 12.90625 6 12 6.90625 12 8 L 12 12 C 12 13.09375 12.90625 14 14 14 L 18 14 C 19.09375 14 20 13.09375 20 12 L 20 8 C 20 6.90625 19.09375 6 18 6 Z M 23 6 C 21.90625 6 21 6.90625 21 8 L 21 12 C 21 13.09375 21.90625 14 23 14 L 27 14 L 27 15 L 22 15 C 21.640625 14.996094 21.304688 15.183594 21.121094 15.496094 C 20.941406 15.808594 20.941406 16.191406 21.121094 16.503906 C 21.304688 16.816406 21.640625 17.003906 22 17 L 27.03125 17 C 28.113281 17 29 16.113281 29 15.03125 L 29 12 C 29.007813 11.9375 29.007813 11.875 29 11.8125 L 29 8 C 29 6.90625 28.09375 6 27 6 Z M 5 8 L 9 8 L 9 11.8125 C 8.996094 11.855469 8.996094 11.894531 9 11.9375 L 9 12 L 5 12 Z M 14 8 L 18 8 L 18 12 L 14 12 Z M 23 8 L 27 8 L 27 11.8125 C 26.996094 11.855469 26.996094 11.894531 27 11.9375 L 27 12 L 23 12 Z M 23.90625 17.96875 C 23.863281 17.976563 23.820313 17.988281 23.78125 18 L 21 18 C 19.90625 18 19 18.90625 19 20 L 19 25 C 18.996094 25.359375 19.183594 25.695313 19.496094 25.878906 C 19.808594 26.058594 20.191406 26.058594 20.503906 25.878906 C 20.816406 25.695313 21.003906 25.359375 21 25 L 21 20 L 23 20 L 23 25 C 22.996094 25.359375 23.183594 25.695313 23.496094 25.878906 C 23.808594 26.058594 24.191406 26.058594 24.503906 25.878906 C 24.816406 25.695313 25.003906 25.359375 25 25 L 25 20 L 27 20 L 27 25.03125 C 26.996094 25.390625 27.183594 25.726563 27.496094 25.910156 C 27.808594 26.089844 28.191406 26.089844 28.503906 25.910156 C 28.816406 25.726563 29.003906 25.390625 29 25.03125 L 29 18 L 24.1875 18 C 24.097656 17.976563 24 17.964844 23.90625 17.96875 Z M 5 18 C 3.90625 18 3 18.90625 3 20 L 3 24 C 3 25.09375 3.90625 26 5 26 L 8 26 C 8.359375 26.003906 8.695313 25.816406 8.878906 25.503906 C 9.058594 25.191406 9.058594 24.808594 8.878906 24.496094 C 8.695313 24.183594 8.359375 23.996094 8 24 L 5 24 L 5 20 L 8 20 C 8.359375 20.003906 8.695313 19.816406 8.878906 19.503906 C 9.058594 19.191406 9.058594 18.808594 8.878906 18.496094 C 8.695313 18.183594 8.359375 17.996094 8 18 Z M 12 18 C 10.90625 18 10 18.90625 10 20 L 10 24 C 10 25.09375 10.90625 26 12 26 L 16 26 C 17.09375 26 18 25.09375 18 24 L 18 20 C 18 18.90625 17.09375 18 16 18 Z M 12 20 L 16 20 L 16 24 L 12 24 Z "></path>
</g>
</svg>
