<?xml version="1.0" encoding="UTF-8"?>
<svg xmlns="http://www.w3.org/2000/svg" xmlns:xlink="http://www.w3.org/1999/xlink" viewBox="0 0 32 32" version="1.1">
<g>
<path d="M 11.96875 6 L 11.75 6.6875 L 10.0625 11.6875 L 10 11.84375 L 10 12 L 6.96875 12 L 6.75 12.6875 L 5.0625 17.6875 L 5 17.84375 L 5 18 L 1.96875 18 L 1.75 18.6875 L 0.0625 23.6875 L 0 23.84375 L 0 26 L 32 26 L 32 23.84375 L 31.9375 23.6875 L 30.25 18.6875 L 30.03125 18 L 27 18 L 27 17.84375 L 26.9375 17.6875 L 25.25 12.6875 L 25.03125 12 L 22 12 L 22 11.84375 L 21.9375 11.6875 L 20.25 6.6875 L 20.03125 6 Z M 13.40625 8 L 18.59375 8 L 19.96875 12 L 12.03125 12 Z M 8.40625 14 L 13.59375 14 L 14.96875 18 L 7.03125 18 Z M 15.6875 14 L 16.3125 14 L 16 14.90625 Z M 18.40625 14 L 23.59375 14 L 24.96875 18 L 17.03125 18 Z M 3.40625 20 L 8.59375 20 L 9.96875 24 L 2.03125 24 Z M 10.6875 20 L 11.3125 20 L 11 20.90625 Z M 13.40625 20 L 18.59375 20 L 19.96875 24 L 12.03125 24 Z M 20.6875 20 L 21.3125 20 L 21 20.90625 Z M 23.40625 20 L 28.59375 20 L 29.96875 24 L 22.03125 24 Z "></path>
</g>
</svg>
