<?xml version="1.0" encoding="UTF-8"?>
<svg xmlns="http://www.w3.org/2000/svg" xmlns:xlink="http://www.w3.org/1999/xlink" viewBox="0 0 32 32" version="1.1">
<g>
<path d="M 16 4 C 9.382813 4 4 9.382813 4 16 C 4 22.617188 9.382813 28 16 28 C 22.617188 28 28 22.617188 28 16 C 28 9.382813 22.617188 4 16 4 Z M 16 6 C 21.535156 6 26 10.464844 26 16 C 26 21.535156 21.535156 26 16 26 C 10.464844 26 6 21.535156 6 16 C 6 10.464844 10.464844 6 16 6 Z M 14.4375 8 L 14.15625 8.4375 C 14.15625 8.4375 13.394531 9.613281 12.625 10.96875 C 12.242188 11.648438 11.863281 12.386719 11.5625 13.0625 C 11.261719 13.738281 11 14.292969 11 15 L 11 20 C 11 21.644531 12.355469 23 14 23 L 19 23 C 19.824219 23 20.554688 22.585938 21 22.0625 C 21.445313 21.539063 21.707031 20.945313 21.9375 20.375 C 22.253906 19.585938 22.457031 18.378906 22.65625 17.25 C 22.855469 16.121094 23 15.15625 23 15.15625 L 23 15 C 23 13.355469 21.644531 12 20 12 L 16.375 12 L 16.9375 10.3125 L 16.90625 10.3125 C 17.070313 9.890625 17.152344 9.359375 16.9375 8.9375 C 16.710938 8.488281 16.320313 8.300781 16.03125 8.1875 C 15.457031 7.964844 14.96875 8 14.96875 8 Z M 14.1875 12.34375 L 14.0625 12.6875 L 13.625 14 L 20 14 C 20.539063 14 20.945313 14.433594 20.96875 14.96875 C 20.96875 14.96875 20.96875 14.996094 20.96875 15 L 19 15 L 19 17 L 20.65625 17 C 20.597656 17.332031 20.539063 17.667969 20.46875 18 L 19 18 L 19 20 L 19.90625 20 C 19.765625 20.328125 19.625 20.605469 19.5 20.75 C 19.328125 20.953125 19.277344 21 19 21 L 14 21 C 13.445313 21 13 20.554688 13 20 L 13 15 C 13 15 13.113281 14.457031 13.375 13.875 C 13.585938 13.40625 13.898438 12.871094 14.1875 12.34375 Z "></path>
</g>
</svg>
