<?xml version="1.0" encoding="UTF-8"?>
<svg xmlns="http://www.w3.org/2000/svg" xmlns:xlink="http://www.w3.org/1999/xlink" viewBox="0 0 32 32" version="1.1">
<g>
<path d="M 1 5 L 1 17 L 31 17 L 31 5 Z M 3 7 L 29 7 L 29 15 L 3 15 Z M 7 9 C 5.894531 9 5 9.894531 5 11 C 5 12.105469 5.894531 13 7 13 C 8.105469 13 9 12.105469 9 11 C 9 9.894531 8.105469 9 7 9 Z M 13 9 C 11.894531 9 11 9.894531 11 11 C 11 12.105469 11.894531 13 13 13 C 14.105469 13 15 12.105469 15 11 C 15 9.894531 14.105469 9 13 9 Z M 19 9 C 17.894531 9 17 9.894531 17 11 C 17 12.105469 17.894531 13 19 13 C 20.105469 13 21 12.105469 21 11 C 21 9.894531 20.105469 9 19 9 Z M 25 9 C 23.894531 9 23 9.894531 23 11 C 23 12.105469 23.894531 13 25 13 C 26.105469 13 27 12.105469 27 11 C 27 9.894531 26.105469 9 25 9 Z M 21.28125 19.28125 L 15 25.5625 L 11.71875 22.28125 L 10.28125 23.71875 L 14.28125 27.71875 L 15 28.40625 L 15.71875 27.71875 L 22.71875 20.71875 Z "></path>
</g>
</svg>
