<?xml version="1.0" encoding="UTF-8"?>
<svg xmlns="http://www.w3.org/2000/svg" xmlns:xlink="http://www.w3.org/1999/xlink" viewBox="0 0 32 32" version="1.1">
<g>
<path d="M 20.3125 3.9375 L 19.875 4 L 4.875 6 L 3.84375 6.15625 L 4 7.15625 L 6 19.15625 L 6.0625 19.34375 L 9.0625 27.1875 L 9.375 28.03125 L 10.25 27.8125 L 25.25 23.8125 L 25.875 23.65625 L 25.96875 23 L 28 11.15625 L 28.09375 10.59375 L 27.65625 10.25 L 20.65625 4.25 Z M 19.6875 6.0625 L 25.40625 10.9375 L 19.96875 11.90625 L 16.53125 8.25 L 6.46875 9.65625 L 6.15625 7.875 Z M 16.71875 12.03125 L 20.1875 16.25 C 20.1875 16.25 14.535156 17.273438 14.46875 17.46875 C 14.402344 17.664063 13.03125 15.125 13.03125 15.125 L 8.03125 16.09375 L 7.21875 14.21875 L 7.125 13.65625 Z M 13.5 19.5 L 14.9375 22.125 L 9.71875 23.34375 L 8.625 20.46875 Z "></path>
</g>
</svg>
