<?xml version="1.0" encoding="UTF-8"?>
<svg xmlns="http://www.w3.org/2000/svg" xmlns:xlink="http://www.w3.org/1999/xlink" viewBox="0 0 32 32" version="1.1">
<g>
<path d="M 7 4 L 7 28 L 25 28 L 25 9.335938 L 19.664063 4 Z M 9 6 L 18 6 L 18 11 L 23 11 L 23 26 L 9 26 Z M 20 7.164063 L 21.835938 9 L 20 9 Z M 14.5 13 C 12.578125 13 11 14.578125 11 16.5 C 11 18.421875 12.578125 20 14.5 20 C 16.421875 20 18 18.421875 18 16.5 C 18 14.578125 16.421875 13 14.5 13 Z M 14.5 15 C 15.339844 15 16 15.660156 16 16.5 C 16 17.339844 15.339844 18 14.5 18 C 13.660156 18 13 17.339844 13 16.5 C 13 15.660156 13.660156 15 14.5 15 Z M 19 17 L 19 21 L 15 21 L 15 23 L 21 23 L 21 17 Z "></path>
</g>
</svg>
