<?xml version="1.0" encoding="UTF-8"?>
<svg xmlns="http://www.w3.org/2000/svg" xmlns:xlink="http://www.w3.org/1999/xlink" viewBox="0 0 32 32" version="1.1">
<g>
<path d="M 16 3 C 8.820313 3 3 8.820313 3 16 C 3 23.179688 8.820313 29 16 29 C 23.179688 29 29 23.179688 29 16 C 29 8.820313 23.179688 3 16 3 Z M 11.65625 6.15625 C 12.917969 6.09375 14.453125 6.808594 16 8.125 C 18.0625 6.367188 20.097656 5.660156 21.5 6.46875 C 22.902344 7.277344 23.300781 9.398438 22.8125 12.0625 C 25.367188 12.96875 27 14.378906 27 16 C 27 17.621094 25.367188 19.03125 22.8125 19.9375 C 23.300781 22.601563 22.902344 24.71875 21.5 25.53125 C 20.097656 26.34375 18.0625 25.632813 16 23.875 C 13.9375 25.632813 11.902344 26.339844 10.5 25.53125 C 9.097656 24.71875 8.699219 22.601563 9.1875 19.9375 C 6.632813 19.03125 5 17.621094 5 16 C 5 14.378906 6.632813 12.96875 9.1875 12.0625 C 8.699219 9.398438 9.097656 7.277344 10.5 6.46875 C 10.851563 6.265625 11.234375 6.175781 11.65625 6.15625 Z M 11.8125 7.125 C 11.503906 7.128906 11.234375 7.210938 11 7.34375 C 10.066406 7.878906 9.730469 9.511719 10.125 11.75 C 11.066406 11.484375 12.109375 11.285156 13.21875 11.15625 C 13.886719 10.257813 14.582031 9.460938 15.28125 8.78125 C 13.972656 7.683594 12.734375 7.113281 11.8125 7.125 Z M 20.1875 7.125 C 19.265625 7.113281 18.027344 7.683594 16.71875 8.78125 C 17.417969 9.460938 18.117188 10.257813 18.78125 11.15625 C 19.890625 11.285156 20.933594 11.484375 21.875 11.75 C 22.269531 9.511719 21.929688 7.878906 21 7.34375 C 20.765625 7.210938 20.496094 7.128906 20.1875 7.125 Z M 16 9.4375 C 15.519531 9.902344 15.042969 10.433594 14.5625 11.03125 C 15.035156 11.003906 15.507813 11 16 11 C 16.492188 11 16.964844 11.003906 17.4375 11.03125 C 16.957031 10.433594 16.480469 9.902344 16 9.4375 Z M 16 12 C 15.214844 12 14.464844 12.027344 13.75 12.09375 C 13.335938 12.679688 12.925781 13.320313 12.53125 14 C 12.136719 14.679688 11.800781 15.347656 11.5 16 C 11.800781 16.652344 12.140625 17.320313 12.53125 18 C 12.921875 18.679688 13.335938 19.320313 13.75 19.90625 C 14.464844 19.972656 15.214844 20 16 20 C 16.785156 20 17.535156 19.972656 18.25 19.90625 C 18.664063 19.320313 19.074219 18.679688 19.46875 18 C 19.863281 17.320313 20.199219 16.652344 20.5 16 C 20.199219 15.347656 19.859375 14.679688 19.46875 14 C 19.074219 13.320313 18.664063 12.679688 18.25 12.09375 C 17.535156 12.027344 16.785156 12 16 12 Z M 12.4375 12.28125 C 11.679688 12.398438 10.957031 12.535156 10.3125 12.71875 C 10.472656 13.367188 10.722656 14.066406 11 14.78125 C 11.214844 14.355469 11.410156 13.925781 11.65625 13.5 C 11.902344 13.074219 12.175781 12.675781 12.4375 12.28125 Z M 19.5625 12.28125 C 19.824219 12.675781 20.097656 13.074219 20.34375 13.5 C 20.589844 13.925781 20.785156 14.355469 21 14.78125 C 21.277344 14.066406 21.527344 13.367188 21.6875 12.71875 C 21.046875 12.535156 20.320313 12.398438 19.5625 12.28125 Z M 9.375 13.03125 C 7.238281 13.8125 6 14.925781 6 16 C 6 17.074219 7.238281 18.1875 9.375 18.96875 C 9.613281 18.019531 9.960938 17.027344 10.40625 16 C 9.960938 14.972656 9.613281 13.976563 9.375 13.03125 Z M 22.625 13.03125 C 22.386719 13.976563 22.039063 14.972656 21.59375 16 C 22.039063 17.027344 22.386719 18.023438 22.625 18.96875 C 24.761719 18.1875 26 17.074219 26 16 C 26 14.925781 24.761719 13.8125 22.625 13.03125 Z M 16 14.84375 C 16.644531 14.84375 17.15625 15.355469 17.15625 16 C 17.15625 16.644531 16.644531 17.15625 16 17.15625 C 15.355469 17.15625 14.84375 16.644531 14.84375 16 C 14.84375 15.355469 15.355469 14.84375 16 14.84375 Z M 11 17.21875 C 10.722656 17.933594 10.476563 18.632813 10.3125 19.28125 C 10.957031 19.464844 11.679688 19.601563 12.4375 19.71875 C 12.175781 19.324219 11.902344 18.925781 11.65625 18.5 C 11.410156 18.074219 11.214844 17.640625 11 17.21875 Z M 21 17.21875 C 20.785156 17.644531 20.589844 18.074219 20.34375 18.5 C 20.097656 18.925781 19.824219 19.320313 19.5625 19.71875 C 20.320313 19.601563 21.046875 19.464844 21.6875 19.28125 C 21.527344 18.632813 21.277344 17.933594 21 17.21875 Z M 10.125 20.25 C 9.730469 22.488281 10.066406 24.121094 11 24.65625 C 11.929688 25.195313 13.535156 24.679688 15.28125 23.21875 C 14.582031 22.535156 13.882813 21.742188 13.21875 20.84375 C 12.109375 20.714844 11.066406 20.515625 10.125 20.25 Z M 21.875 20.25 C 20.933594 20.515625 19.890625 20.714844 18.78125 20.84375 C 18.113281 21.742188 17.417969 22.539063 16.71875 23.21875 C 18.460938 24.679688 20.066406 25.195313 21 24.65625 C 21.929688 24.121094 22.269531 22.492188 21.875 20.25 Z M 14.5625 20.96875 C 15.042969 21.566406 15.519531 22.097656 16 22.5625 C 16.480469 22.097656 16.957031 21.566406 17.4375 20.96875 C 16.964844 20.996094 16.492188 21 16 21 C 15.507813 21 15.035156 20.996094 14.5625 20.96875 Z "></path>
</g>
</svg>
