<?xml version="1.0" encoding="UTF-8"?>
<svg xmlns="http://www.w3.org/2000/svg" xmlns:xlink="http://www.w3.org/1999/xlink" viewBox="0 0 32 32" version="1.1">
<g>
<path d="M 10 3 C 8.914063 3 8 3.914063 8 5 L 8 27.125 C 8 28.164063 8.835938 29 9.875 29 L 22.125 29 C 23.164063 29 24 28.164063 24 27.125 L 24 5 C 24 3.914063 23.085938 3 22 3 Z M 10 5 L 22 5 L 22 18 L 10 18 Z M 16 19 C 16.550781 19 17 19.449219 17 20 C 17 20.550781 16.550781 21 16 21 C 15.449219 21 15 20.550781 15 20 C 15 19.449219 15.449219 19 16 19 Z M 11.625 22 L 13 22 L 13 24 L 10 24 L 10 23.625 C 10 22.722656 10.722656 22 11.625 22 Z M 14 22 L 18 22 L 18 24 L 14 24 Z M 19 22 L 20.375 22 C 21.277344 22 22 22.722656 22 23.625 L 22 24 L 19 24 Z M 10 25 L 13 25 L 13 27 L 11.625 27 C 10.722656 27 10 26.277344 10 25.375 Z M 14 25 L 18 25 L 18 27 L 14 27 Z M 19 25 L 22 25 L 22 25.375 C 22 26.277344 21.277344 27 20.375 27 L 19 27 Z "></path>
</g>
</svg>
