<?xml version="1.0" encoding="UTF-8"?>
<svg xmlns="http://www.w3.org/2000/svg" xmlns:xlink="http://www.w3.org/1999/xlink" viewBox="0 0 32 32" version="1.1">
<g>
<path d="M 24.5 3 C 23.132813 3 22 4.132813 22 5.5 C 22 5.628906 22.011719 5.753906 22.03125 5.875 C 21.375 5.675781 20.765625 5.5625 20.1875 5.5625 C 15.441406 5.5625 13.199219 11.574219 11.46875 12.84375 C 9.695313 14.148438 4.890625 12.84375 4.21875 15.90625 C 3.804688 16.632813 3.996094 17.339844 4.28125 18 C 4.566406 18.660156 5.027344 19.371094 5.65625 20.125 C 6.839844 21.539063 8.660156 23.117188 11.03125 24.65625 C 11.117188 27.054688 13.078125 29 15.5 29 C 16.484375 29 17.382813 28.667969 18.125 28.125 C 19.742188 28.664063 21.234375 29 22.53125 29 C 23.066406 29 23.558594 28.945313 24 28.8125 C 24.441406 28.679688 24.886719 28.460938 25.1875 27.9375 C 26.210938 26.722656 26.5 25.523438 24.59375 22.40625 C 22.691406 19.296875 30.023438 12.246094 25.46875 7.8125 C 26.363281 7.429688 27 6.527344 27 5.5 C 27 4.132813 25.867188 3 24.5 3 Z M 24.5 5 C 24.789063 5 25 5.210938 25 5.5 C 25 5.789063 24.789063 6 24.5 6 C 24.210938 6 24 5.789063 24 5.5 C 24 5.210938 24.210938 5 24.5 5 Z M 20.1875 7.5625 C 20.988281 7.5625 21.863281 7.835938 22.84375 8.375 C 25.78125 9.988281 25.34375 12.015625 23.625 16.25 C 22.828125 18.21875 22.007813 20.242188 22.34375 22.0625 C 21.011719 20.886719 19.300781 19.601563 17 18.28125 C 14.4375 16.808594 12.195313 15.9375 10.3125 15.375 C 11.15625 15.222656 11.972656 14.972656 12.65625 14.46875 C 13.429688 13.898438 14.0625 12.972656 14.8125 11.90625 C 16.175781 9.96875 17.882813 7.5625 20.1875 7.5625 Z M 6.875 16.875 C 8.878906 16.875 12.441406 18.035156 15.8125 19.96875 C 15.855469 19.992188 15.894531 20.007813 15.9375 20.03125 C 15.792969 20.015625 15.648438 20 15.5 20 C 13.722656 20 12.199219 21.058594 11.46875 22.5625 C 9.566406 21.246094 8.105469 19.90625 7.1875 18.8125 C 6.644531 18.164063 6.292969 17.609375 6.125 17.21875 C 6.0625 17.070313 6.042969 17 6.03125 16.96875 C 6.207031 16.917969 6.503906 16.875 6.875 16.875 Z M 15.5 22 C 16.890625 22 18 23.105469 18 24.5 C 18 25.894531 16.890625 27 15.5 27 C 14.105469 27 13 25.890625 13 24.5 C 13 23.109375 14.105469 22 15.5 22 Z M 19.46875 22.40625 C 20.539063 23.246094 21.390625 24.058594 22.03125 24.78125 C 22.660156 25.492188 23.082031 26.125 23.28125 26.5625 C 23.359375 26.734375 23.363281 26.824219 23.375 26.90625 C 23.199219 26.957031 22.902344 27 22.53125 27 C 21.746094 27 20.699219 26.832031 19.53125 26.5 C 19.835938 25.894531 20 25.21875 20 24.5 C 20 23.742188 19.804688 23.035156 19.46875 22.40625 Z "></path>
</g>
</svg>
