<?xml version="1.0" encoding="UTF-8"?>
<svg xmlns="http://www.w3.org/2000/svg" xmlns:xlink="http://www.w3.org/1999/xlink" viewBox="0 0 32 32" version="1.1">
<g>
<path d="M 6 3 L 6 10 L 8 10 L 8 5 L 24 5 L 24 10 L 26 10 L 26 3 Z M 9.59375 12 C 8.210938 12 7.09375 13.117188 7.09375 14.5 L 7.09375 17.5 C 7.09375 18.882813 8.210938 20 9.59375 20 L 12.09375 20 L 12.09375 16 L 10.09375 16 L 10.09375 18 L 9.59375 18 C 9.378906 18 9.09375 17.714844 9.09375 17.5 L 9.09375 14.5 C 9.09375 14.285156 9.378906 14 9.59375 14 C 9.808594 14 10.09375 14.285156 10.09375 14.5 L 10.09375 15 L 12.09375 15 L 12.09375 14.5 C 12.09375 13.117188 10.976563 12 9.59375 12 Z M 14 12 L 14 20 L 16 20 L 16 18 C 17.644531 18 19 16.644531 19 15 C 19 13.355469 17.644531 12 16 12 Z M 20 12 L 22 16 L 20 20 L 22 20 L 23 18 L 24 20 L 26 20 L 24 16 L 26 12 L 24 12 L 23 14 L 22 12 Z M 16 14 C 16.554688 14 17 14.445313 17 15 C 17 15.554688 16.554688 16 16 16 Z M 6 22 L 6 29 L 26 29 L 26 22 L 24 22 L 24 27 L 8 27 L 8 22 Z "></path>
</g>
</svg>
