<?xml version="1.0" encoding="UTF-8"?>
<svg xmlns="http://www.w3.org/2000/svg" xmlns:xlink="http://www.w3.org/1999/xlink" viewBox="0 0 32 32" version="1.1">
<g>
<path d="M 10 3 C 10 9.042969 16 9 16 9 C 14.484375 9 13.179688 9.871094 12.5 11.125 C 11.820313 9.871094 10.515625 9 9 9 C 6.800781 9 5 10.800781 5 13 C 5 15.199219 6.800781 17 9 17 C 9.199219 17 9.402344 16.964844 9.59375 16.9375 C 9.222656 17.542969 9 18.242188 9 19 C 9 21.058594 10.585938 22.730469 12.59375 22.9375 C 12.222656 23.542969 12 24.242188 12 25 C 12 27.199219 13.800781 29 16 29 C 18.199219 29 20 27.199219 20 25 C 20 24.242188 19.777344 23.542969 19.40625 22.9375 C 21.414063 22.730469 23 21.058594 23 19 C 23 18.257813 22.792969 17.566406 22.4375 16.96875 C 22.621094 16.996094 22.8125 17 23 17 C 25.199219 17 27 15.199219 27 13 C 27 10.800781 25.199219 9 23 9 C 21.484375 9 20.179688 9.871094 19.5 11.125 C 18.859375 9.941406 17.660156 9.089844 16.25 9 C 17.398438 8.925781 22 8.285156 22 3 C 16.75 3 16.082031 7.601563 16 8.75 C 15.917969 7.601563 15.25 3 10 3 Z M 9 11 C 10.117188 11 11 11.882813 11 13 C 11 14.117188 10.117188 15 9 15 C 7.882813 15 7 14.117188 7 13 C 7 11.882813 7.882813 11 9 11 Z M 16 11 C 17.117188 11 18 11.882813 18 13 C 18 14.117188 17.117188 15 16 15 C 14.882813 15 14 14.117188 14 13 C 14 11.882813 14.882813 11 16 11 Z M 23 11 C 24.117188 11 25 11.882813 25 13 C 25 14.117188 24.117188 15 23 15 C 21.882813 15 21 14.117188 21 13 C 21 11.882813 21.882813 11 23 11 Z M 12.5 14.875 C 12.53125 14.929688 12.5625 14.976563 12.59375 15.03125 C 12.53125 15.039063 12.46875 15.054688 12.40625 15.0625 C 12.441406 15.003906 12.464844 14.9375 12.5 14.875 Z M 19.5 14.875 C 19.535156 14.941406 19.585938 14.996094 19.625 15.0625 C 19.554688 15.050781 19.480469 15.039063 19.40625 15.03125 C 19.4375 14.976563 19.46875 14.929688 19.5 14.875 Z M 13 17 C 14.117188 17 15 17.882813 15 19 C 15 20.117188 14.117188 21 13 21 C 11.882813 21 11 20.117188 11 19 C 11 17.882813 11.882813 17 13 17 Z M 19 17 C 20.117188 17 21 17.882813 21 19 C 21 20.117188 20.117188 21 19 21 C 17.882813 21 17 20.117188 17 19 C 17 17.882813 17.882813 17 19 17 Z M 16 23 C 17.117188 23 18 23.882813 18 25 C 18 26.117188 17.117188 27 16 27 C 14.882813 27 14 26.117188 14 25 C 14 23.882813 14.882813 23 16 23 Z "></path>
</g>
</svg>
