<?xml version="1.0" encoding="UTF-8"?>
<svg xmlns="http://www.w3.org/2000/svg" xmlns:xlink="http://www.w3.org/1999/xlink" viewBox="0 0 32 32" version="1.1">
<g>
<path d="M 7.3125 4.25 C 8.648438 5.210938 14 10.1875 14 28 L 18 28 C 18 10.929688 8.757813 5.066406 7.3125 4.25 Z M 24.78125 8.09375 C 24.183594 8.269531 19.933594 9.671875 17.78125 15.5 C 17.925781 15.980469 18.058594 16.480469 18.1875 17 C 18.429688 17.972656 18.636719 19.015625 18.8125 20.125 C 20.085938 11.167969 23.859375 8.59375 24.78125 8.09375 Z M 4 12 C 4 12 9 16.296875 9 28 L 13 28 C 13 17.8125 4 12 4 12 Z M 28 12 C 28 12 19 17.8125 19 28 L 23 28 C 23 16.296875 28 12 28 12 Z "></path>
</g>
</svg>
