<?xml version="1.0" encoding="UTF-8"?>
<svg xmlns="http://www.w3.org/2000/svg" xmlns:xlink="http://www.w3.org/1999/xlink" viewBox="0 0 32 32" version="1.1">
<g>
<path d="M 9 5 L 9 6.3125 L 4 8.3125 L 4 13.71875 L 4.65625 13.9375 L 16.34375 18.125 C 15.234375 18.597656 13.722656 19.0625 12.15625 19.65625 C 10.492188 20.285156 8.777344 21.046875 7.40625 22.1875 C 6.035156 23.328125 5 24.949219 5 27 L 7 27 C 7 25.570313 7.589844 24.605469 8.65625 23.71875 C 9.722656 22.832031 11.257813 22.128906 12.84375 21.53125 C 14.429688 20.933594 16.0625 20.429688 17.375 19.84375 C 18.03125 19.550781 18.605469 19.246094 19.09375 18.8125 C 19.582031 18.378906 20 17.738281 20 17 L 20 12 L 26 12 L 26 18 C 26 19.347656 25.179688 20.664063 24.1875 22.09375 C 23.195313 23.523438 22 25.046875 22 27 L 24 27 C 24 25.929688 24.804688 24.699219 25.8125 23.25 C 26.820313 21.800781 28 20.117188 28 18 L 28 8 L 26 8 L 26 10 L 24 10 L 24 8 L 22 8 L 22 10 L 20 10 L 20 8 L 18 8 L 18 10.71875 L 13.46875 9.59375 L 14.5625 8.84375 L 15 8.53125 L 15 5 L 13 5 L 13 7.4375 L 10.4375 9.15625 L 8.5625 10.4375 L 10.75 10.96875 L 18 12.78125 L 18 16.59375 L 6 12.3125 L 6 9.6875 L 11 7.6875 L 11 5 Z M 23 14 C 21.898438 14 21 14.898438 21 16 L 21 18 C 21 20.617188 11 22.769531 11 27 L 18 27 C 18 23.125 25 21.0625 25 18 L 25 16 C 25 14.898438 24.101563 14 23 14 Z "></path>
</g>
</svg>
