<?xml version="1.0" encoding="UTF-8"?>
<svg xmlns="http://www.w3.org/2000/svg" xmlns:xlink="http://www.w3.org/1999/xlink" viewBox="0 0 32 32" version="1.1">
<g>
<path d="M 3 4 L 3 9.59375 C 3 10.753906 3.441406 11.640625 4 12.1875 L 4 14.0625 C 4 14.0625 4.027344 14.753906 4.40625 15.46875 C 4.535156 15.714844 4.75 15.957031 5 16.1875 L 5 17 C 5 17.839844 5.558594 18.539063 6.0625 18.78125 C 6.125 18.8125 6.1875 18.820313 6.25 18.84375 C 6.71875 20.707031 7.8125 22.703125 9.1875 24.5 C 11.03125 26.90625 13.386719 29 16 29 C 18.613281 29 20.96875 26.90625 22.8125 24.5 C 24.1875 22.703125 25.28125 20.707031 25.75 18.84375 C 25.8125 18.820313 25.875 18.8125 25.9375 18.78125 C 26.441406 18.539063 27 17.839844 27 17 L 27 16.1875 C 27.25 15.957031 27.464844 15.714844 27.59375 15.46875 C 27.972656 14.753906 28 14.0625 28 14.0625 L 28 12.1875 C 28.558594 11.640625 29 10.753906 29 9.59375 L 29 4 L 28 4 C 23.582031 4 21.609375 7.519531 21.21875 8.3125 C 20.621094 8.144531 20 8.0625 19.375 8.03125 C 19.03125 7.765625 17.652344 6.703125 16.4375 6.09375 L 16 5.875 L 15.59375 6.09375 C 14.339844 6.675781 12.96875 7.757813 12.625 8.03125 C 12.003906 8.058594 11.375 8.152344 10.78125 8.3125 C 10.390625 7.519531 8.417969 4 4 4 Z M 5 6.21875 C 7.457031 6.703125 8.625 8.550781 8.9375 9.125 C 7.898438 9.757813 7 10.710938 7 12 C 7 12.71875 7.230469 13.316406 7.5625 13.78125 C 7.183594 14.058594 6.8125 14.429688 6.53125 14.90625 C 6.367188 14.824219 6.277344 14.703125 6.1875 14.53125 C 6.050781 14.273438 6.007813 14.050781 6 14 L 6 11 C 6 11 5.746094 10.988281 5.5 10.84375 C 5.253906 10.699219 5 10.527344 5 9.59375 Z M 27 6.21875 L 27 9.59375 C 27 10.527344 26.746094 10.699219 26.5 10.84375 C 26.253906 10.988281 26 11 26 11 L 26 14 C 25.992188 14.050781 25.949219 14.273438 25.8125 14.53125 C 25.722656 14.703125 25.632813 14.824219 25.46875 14.90625 C 25.1875 14.429688 24.816406 14.058594 24.4375 13.78125 C 24.769531 13.316406 25 12.71875 25 12 C 25 10.710938 24.101563 9.757813 23.0625 9.125 C 23.375 8.550781 24.542969 6.703125 27 6.21875 Z M 16 8.1875 C 16.191406 8.304688 16.386719 8.460938 16.59375 8.59375 C 16.480469 8.65625 16.355469 8.707031 16.25 8.78125 C 16.160156 8.84375 16.082031 8.925781 16 9 C 15.917969 8.925781 15.839844 8.84375 15.75 8.78125 C 15.640625 8.707031 15.523438 8.628906 15.40625 8.5625 C 15.609375 8.433594 15.816406 8.296875 16 8.1875 Z M 13 10 C 13.714844 10 14.265625 10.207031 14.59375 10.4375 C 14.921875 10.667969 15 10.863281 15 11 L 17 11 C 17 10.863281 17.078125 10.667969 17.40625 10.4375 C 17.734375 10.207031 18.285156 10 19 10 C 19.992188 10 21.125 10.289063 21.90625 10.71875 C 22.6875 11.148438 23 11.621094 23 12 C 23 12.6875 22.816406 12.75 22.5625 12.875 C 22.308594 13 22.03125 13 22.03125 13 C 22.027344 13 21.96875 13 21.96875 13 L 22 14 L 21.96875 15 C 21.96875 15 22.023438 15 22.03125 15 C 22.03125 15 22.558594 15.003906 23.0625 15.25 C 23.566406 15.496094 24 15.796875 24 17 C 24 18.433594 22.867188 21.15625 21.21875 23.3125 C 19.570313 25.46875 17.414063 27 16 27 C 14.585938 27 12.429688 25.46875 10.78125 23.3125 C 9.132813 21.15625 8 18.433594 8 17 C 8 15.796875 8.433594 15.496094 8.9375 15.25 C 9.441406 15.003906 9.96875 15 9.96875 15 C 9.976563 15 10.03125 15 10.03125 15 L 10 14 L 10.03125 13 C 10.03125 13 9.972656 13 9.96875 13 C 9.96875 13 9.691406 13 9.4375 12.875 C 9.183594 12.75 9 12.6875 9 12 C 9 11.621094 9.3125 11.148438 10.09375 10.71875 C 10.875 10.289063 12.007813 10 13 10 Z M 10 14 C 10 15.6875 11.3125 18 13 18 C 14.6875 18 15 16 15 16 C 15 16 14.222656 15.292969 13 14.71875 C 12.964844 15.441406 12.757813 16 12.5 16 C 12.214844 16 11.96875 15.328125 11.96875 14.5 C 11.96875 14.4375 11.964844 14.375 11.96875 14.3125 C 11.367188 14.125 10.707031 14 10 14 Z M 22 14 C 21.292969 14 20.632813 14.125 20.03125 14.3125 C 20.035156 14.375 20.03125 14.4375 20.03125 14.5 C 20.03125 15.328125 19.785156 16 19.5 16 C 19.242188 16 19.035156 15.441406 19 14.71875 C 17.777344 15.292969 17 16 17 16 C 17 16 17.3125 18 19 18 C 20.6875 18 22 15.6875 22 14 Z M 14.5 18 C 14.222656 18 14 18.449219 14 19 C 14 19.550781 14.222656 20 14.5 20 C 14.777344 20 15 19.550781 15 19 C 15 18.449219 14.777344 18 14.5 18 Z M 17.5 18 C 17.222656 18 17 18.449219 17 19 C 17 19.550781 17.222656 20 17.5 20 C 17.777344 20 18 19.550781 18 19 C 18 18.449219 17.777344 18 17.5 18 Z M 11 21 C 11 21 12.914063 25 16 25 C 19.085938 25 21 21 21 21 L 20 21 L 19 23 L 18 21 L 17 23 L 16 21 L 15 23 L 14 21 L 13 23 L 12 21 Z "></path>
</g>
</svg>
