<?xml version="1.0" encoding="UTF-8"?>
<svg xmlns="http://www.w3.org/2000/svg" xmlns:xlink="http://www.w3.org/1999/xlink" viewBox="0 0 32 32" version="1.1">
<g>
<path d="M 15.875 4 L 15.78125 4.03125 C 15.78125 4.03125 15.097656 4.203125 14.25 4.6875 C 13.527344 5.097656 12.640625 5.796875 11.71875 6.8125 C 10.933594 6.296875 10.003906 6 9 6 C 6.25 6 4 8.25 4 11 C 4 13.292969 5.574219 15.230469 7.6875 15.8125 C 7.582031 16.257813 7.480469 16.722656 7.40625 17.25 C 7.15625 18.957031 7 20.839844 7 23 L 9 23 C 9 21.011719 9.128906 19.269531 9.34375 17.71875 C 9.433594 17.054688 9.550781 16.492188 9.6875 15.9375 C 11.035156 15.746094 12.21875 15.011719 13 13.96875 C 12.355469 15.328125 12 16.878906 12 18.53125 C 12 23.621094 15.472656 28 20 28 C 24.527344 28 28 23.621094 28 18.53125 C 28 15.636719 26.890625 13.027344 25.09375 11.28125 L 24.875 11.0625 L 24.1875 7 L 26 7 L 26 4 Z M 18.03125 6 L 21.96875 6 L 22 6.15625 L 22.8125 11 L 17.1875 11 L 18 6.15625 Z M 15.78125 7.125 L 15.125 11.0625 L 14.84375 11.34375 C 14.402344 11.78125 14.003906 12.28125 13.65625 12.8125 C 13.878906 12.25 14 11.640625 14 11 C 14 10.070313 13.726563 9.214844 13.28125 8.46875 C 14.222656 7.660156 15.125 7.292969 15.78125 7.125 Z M 9 8 C 9.535156 8 10.035156 8.136719 10.46875 8.375 C 9.914063 9.261719 9.417969 10.328125 8.9375 11.53125 C 8.742188 11.988281 8.546875 12.414063 8.375 12.9375 C 8.285156 13.222656 8.195313 13.542969 8.125 13.875 C 6.890625 13.503906 6 12.363281 6 11 C 6 9.332031 7.332031 8 9 8 Z M 11.875 10.15625 C 11.953125 10.425781 12 10.703125 12 11 C 12 12.234375 11.277344 13.289063 10.21875 13.75 C 10.25 13.636719 10.277344 13.507813 10.3125 13.40625 C 10.398438 13.136719 10.5 12.9375 10.59375 12.6875 C 10.988281 11.683594 11.421875 10.851563 11.875 10.15625 Z M 16 13 C 16.003906 12.996094 16.027344 13.003906 16.03125 13 L 16.6875 13 C 16.429688 13.894531 16.238281 14.910156 16.125 16 L 14.34375 16 C 14.6875 14.835938 15.277344 13.796875 16 13 Z M 18.8125 13 L 21.1875 13 C 21.472656 13.808594 21.703125 14.832031 21.84375 16 L 18.15625 16 C 18.296875 14.832031 18.527344 13.808594 18.8125 13 Z M 23.3125 13 L 23.96875 13 C 23.972656 13.003906 23.996094 12.996094 24 13 C 24.726563 13.800781 25.28125 14.828125 25.625 16 L 23.875 16 C 23.761719 14.910156 23.570313 13.894531 23.3125 13 Z M 14.03125 18 L 16.03125 18 C 16.027344 18.179688 16 18.347656 16 18.53125 C 16 19.398438 16.074219 20.203125 16.15625 21 L 14.34375 21 C 14.125 20.230469 14 19.398438 14 18.53125 C 14 18.351563 14.019531 18.175781 14.03125 18 Z M 18.03125 18 L 21.96875 18 C 21.972656 18.179688 22 18.347656 22 18.53125 C 22 19.398438 21.933594 20.222656 21.84375 21 L 18.15625 21 C 18.066406 20.222656 18 19.398438 18 18.53125 C 18 18.347656 18.027344 18.179688 18.03125 18 Z M 23.96875 18 L 25.96875 18 C 25.980469 18.175781 26 18.351563 26 18.53125 C 26 19.398438 25.875 20.230469 25.65625 21 L 23.84375 21 C 23.925781 20.203125 24 19.398438 24 18.53125 C 24 18.347656 23.972656 18.179688 23.96875 18 Z M 15.21875 23 L 16.4375 23 C 16.574219 23.648438 16.742188 24.265625 16.9375 24.8125 C 16.960938 24.882813 17.003906 24.933594 17.03125 25 C 16.324219 24.492188 15.710938 23.8125 15.21875 23 Z M 18.46875 23 L 21.53125 23 C 21.433594 23.414063 21.308594 23.78125 21.1875 24.125 C 20.941406 24.808594 20.648438 25.335938 20.40625 25.625 C 20.164063 25.914063 20.035156 25.9375 20 25.9375 C 19.964844 25.9375 19.835938 25.914063 19.59375 25.625 C 19.351563 25.335938 19.058594 24.808594 18.8125 24.125 C 18.691406 23.78125 18.566406 23.414063 18.46875 23 Z M 23.5625 23 L 24.78125 23 C 24.289063 23.8125 23.675781 24.492188 22.96875 25 C 22.996094 24.933594 23.039063 24.882813 23.0625 24.8125 C 23.257813 24.265625 23.425781 23.648438 23.5625 23 Z "></path>
</g>
</svg>
