<?xml version="1.0" encoding="UTF-8"?>
<svg xmlns="http://www.w3.org/2000/svg" xmlns:xlink="http://www.w3.org/1999/xlink" viewBox="0 0 32 32" version="1.1">
<g>
<path d="M 8 3 L 8 5 C 9.03125 5 9.988281 6.210938 11 7.5 C 11.128906 7.664063 11.273438 7.835938 11.40625 8 L 12.46875 8 C 12.246094 7.199219 12.125 6.382813 12.0625 5.625 C 10.949219 4.246094 9.734375 3 8 3 Z M 13 3 C 13 3.703125 12.941406 5.152344 13.1875 6.65625 C 13.316406 7.429688 13.539063 8.246094 13.90625 9 L 10.3125 9 C 8.5 9 7.066406 10.601563 7.25 12.40625 C 7.542969 15.257813 7.988281 19.886719 8 20 C 8 20 8 20.03125 8 20.03125 C 8 20.058594 7.964844 20.316406 7.84375 20.5625 C 7.714844 20.824219 7.671875 21 7 21 C 6.328125 21 6.285156 20.824219 6.15625 20.5625 C 6.027344 20.300781 6 20 6 20 L 6 13.96875 C 6 13.96875 5.980469 13.117188 5.65625 12.1875 C 5.496094 11.722656 5.273438 11.214844 4.84375 10.78125 C 4.414063 10.347656 3.738281 10 3 10 L 3 12 C 3.21875 12 3.28125 12.027344 3.40625 12.15625 C 3.53125 12.285156 3.683594 12.527344 3.78125 12.8125 C 3.972656 13.367188 4 13.96875 4 14 C 4 14 4 14.03125 4 14.03125 L 4 20 C 4 20 3.976563 20.699219 4.34375 21.4375 C 4.710938 22.175781 5.664063 23 7 23 C 8.335938 23 9.289063 22.175781 9.65625 21.4375 C 10.023438 20.699219 10 20 10 20 L 10 19.90625 C 10 19.90625 9.515625 15.085938 9.21875 12.1875 C 9.152344 11.527344 9.648438 11 10.3125 11 L 21.6875 11 C 22.351563 11 22.847656 11.527344 22.78125 12.1875 C 22.484375 15.085938 22 19.90625 22 19.90625 L 22 20 C 22 20 21.976563 20.699219 22.34375 21.4375 C 22.710938 22.175781 23.664063 23 25 23 C 26.335938 23 27.289063 22.175781 27.65625 21.4375 C 28.023438 20.699219 28 20 28 20 L 28 14 C 28 13.96875 28.027344 13.367188 28.21875 12.8125 C 28.316406 12.527344 28.46875 12.285156 28.59375 12.15625 C 28.71875 12.027344 28.78125 12 29 12 L 29 10 C 28.261719 10 27.585938 10.347656 27.15625 10.78125 C 26.726563 11.214844 26.503906 11.722656 26.34375 12.1875 C 26.019531 13.117188 26 13.96875 26 13.96875 L 26 20 C 26 20 25.972656 20.300781 25.84375 20.5625 C 25.714844 20.824219 25.671875 21 25 21 C 24.328125 21 24.285156 20.824219 24.15625 20.5625 C 24.035156 20.316406 24 20.058594 24 20.03125 C 24 20.03125 24 20 24 20 C 24.011719 19.886719 24.457031 15.257813 24.75 12.40625 C 24.933594 10.601563 23.5 9 21.6875 9 L 18.09375 9 C 18.460938 8.246094 18.683594 7.429688 18.8125 6.65625 C 19.058594 5.152344 19 3.703125 19 3 L 17 3 C 17 3.789063 17.050781 5.09375 16.84375 6.34375 C 16.695313 7.238281 16.414063 8.03125 16 8.59375 C 15.585938 8.03125 15.304688 7.238281 15.15625 6.34375 C 14.949219 5.09375 15 3.789063 15 3 Z M 24 3 C 22.265625 3 21.054688 4.246094 19.9375 5.625 C 19.875 6.382813 19.753906 7.199219 19.53125 8 L 20.59375 8 C 20.726563 7.835938 20.871094 7.664063 21 7.5 C 22.011719 6.210938 22.96875 5 24 5 Z M 6 6 C 6 7.085938 6.652344 8.0625 7.78125 8.875 C 8.5 8.3125 9.390625 8 10.3125 8 C 8.847656 7.394531 8 6.613281 8 6 Z M 24 6 C 24 6.613281 23.152344 7.394531 21.6875 8 C 22.609375 8 23.503906 8.3125 24.21875 8.875 C 25.347656 8.0625 26 7.085938 26 6 Z M 11 12 C 11 13.941406 13.105469 13.871094 13.875 20.9375 C 14.210938 24.003906 15.621094 25.96875 16 25.96875 C 16.378906 25.96875 17.789063 24.003906 18.125 20.9375 C 18.894531 13.871094 21 13.941406 21 12 Z M 13 13 L 15 14 C 15 14.550781 14.550781 15 14 15 C 13.167969 15 13 13.550781 13 13 Z M 19 13 C 19 13.550781 18.832031 15 18 15 C 17.449219 15 17 14.550781 17 14 Z M 13.34375 23.21875 C 12.816406 23.519531 12.03125 24.125 12.03125 24.90625 C 12.03125 26.066406 13.414063 26.644531 14.03125 27.1875 C 14.652344 27.730469 15.128906 29 16 29 C 16.871094 29 17.378906 27.730469 18 27.1875 C 18.621094 26.644531 20 26.066406 20 24.90625 C 20 24.132813 19.214844 23.554688 18.6875 23.25 C 18.101563 25.386719 17.007813 27 16 27 C 14.953125 27 13.925781 25.246094 13.34375 23.21875 Z "></path>
</g>
</svg>
