<?xml version="1.0" encoding="UTF-8"?>
<svg xmlns="http://www.w3.org/2000/svg" xmlns:xlink="http://www.w3.org/1999/xlink" viewBox="0 0 32 32" version="1.1">
<g>
<path d="M 16 2.0625 L 15.25 2.90625 C 14.816406 3.398438 11.675781 7.015625 10.46875 10 L 12.65625 10 C 13.445313 8.445313 14.8125 6.539063 16 5.09375 C 17.1875 6.539063 18.554688 8.445313 19.34375 10 L 21.53125 10 C 20.324219 7.015625 17.183594 3.398438 16.75 2.90625 Z M 16 8.25 L 15.1875 9.4375 C 15.066406 9.613281 14.9375 9.800781 14.8125 10 L 17.1875 10 C 17.0625 9.800781 16.933594 9.613281 16.8125 9.4375 Z M 5 11 L 5 12 C 5 15.757813 6.894531 19.078125 9.78125 21.0625 L 6 26.8125 L 7.6875 27.90625 L 11.53125 22.03125 C 12.609375 22.511719 13.777344 22.828125 15 22.9375 L 15 30 L 17 30 L 17 22.9375 C 18.222656 22.828125 19.390625 22.511719 20.46875 22.03125 L 24.3125 28.03125 L 26 26.96875 L 22.21875 21.0625 C 25.105469 19.078125 27 15.757813 27 12 L 27 11 Z M 7.21875 13 L 24.78125 13 C 24.261719 17.484375 20.625 21 16 21 C 11.375 21 7.738281 17.484375 7.21875 13 Z "></path>
</g>
</svg>
