<?xml version="1.0" encoding="UTF-8"?>
<svg xmlns="http://www.w3.org/2000/svg" xmlns:xlink="http://www.w3.org/1999/xlink" viewBox="0 0 32 32" version="1.1">
<g>
<path d="M 16 3 C 12.765625 3 11.042969 5.304688 10.5625 6 L 6 6 C 4.90625 6 4 6.90625 4 8 L 4 12.53125 C 3.867188 12.808594 3.867188 13.128906 4 13.40625 L 4 25 C 4 26.09375 4.90625 27 6 27 L 7 27 L 7 28 L 9 28 L 9 27 L 23 27 L 23 28 L 25 28 L 25 27 L 26 27 C 27.09375 27 28 26.09375 28 25 L 28 13.1875 C 28.027344 13.054688 28.027344 12.914063 28 12.78125 L 28 8 C 28 6.90625 27.09375 6 26 6 L 21.40625 6 C 20.921875 5.332031 19.140625 3 16 3 Z M 16 5 C 16.949219 5 17.84375 5.46875 18.5625 6 L 13.34375 6 C 14.046875 5.464844 14.953125 5 16 5 Z M 6 8 L 26 8 L 26 12 L 6 12 Z M 8 9 C 7.449219 9 7 9.449219 7 10 C 7 10.550781 7.449219 11 8 11 C 8.550781 11 9 10.550781 9 10 C 9 9.449219 8.550781 9 8 9 Z M 11 9 L 11 11 L 12 11 L 12 9 Z M 14 9 L 14 11 L 15 11 L 15 9 Z M 18 9 C 17.449219 9 17 9.449219 17 10 C 17 10.550781 17.449219 11 18 11 C 18.550781 11 19 10.550781 19 10 C 19 9.449219 18.550781 9 18 9 Z M 21 9 C 20.449219 9 20 9.449219 20 10 C 20 10.550781 20.449219 11 21 11 C 21.550781 11 22 10.550781 22 10 C 22 9.449219 21.550781 9 21 9 Z M 24 9 C 23.449219 9 23 9.449219 23 10 C 23 10.550781 23.449219 11 24 11 C 24.550781 11 25 10.550781 25 10 C 25 9.449219 24.550781 9 24 9 Z M 6 14 L 26 14 L 26 25 L 6 25 Z M 7.5 15 C 7.222656 15 7 15.222656 7 15.5 C 7 15.777344 7.222656 16 7.5 16 C 7.777344 16 8 15.777344 8 15.5 C 8 15.222656 7.777344 15 7.5 15 Z M 9.5 15 C 9.222656 15 9 15.222656 9 15.5 C 9 15.777344 9.222656 16 9.5 16 C 9.777344 16 10 15.777344 10 15.5 C 10 15.222656 9.777344 15 9.5 15 Z M 11.5 15 C 11.222656 15 11 15.222656 11 15.5 C 11 15.777344 11.222656 16 11.5 16 C 11.777344 16 12 15.777344 12 15.5 C 12 15.222656 11.777344 15 11.5 15 Z M 13.5 15 C 13.222656 15 13 15.222656 13 15.5 C 13 15.777344 13.222656 16 13.5 16 C 13.777344 16 14 15.777344 14 15.5 C 14 15.222656 13.777344 15 13.5 15 Z M 15.5 15 C 15.222656 15 15 15.222656 15 15.5 C 15 15.777344 15.222656 16 15.5 16 C 15.777344 16 16 15.777344 16 15.5 C 16 15.222656 15.777344 15 15.5 15 Z M 17.5 15 C 17.222656 15 17 15.222656 17 15.5 C 17 15.777344 17.222656 16 17.5 16 C 17.777344 16 18 15.777344 18 15.5 C 18 15.222656 17.777344 15 17.5 15 Z M 19.5 15 C 19.222656 15 19 15.222656 19 15.5 C 19 15.777344 19.222656 16 19.5 16 C 19.777344 16 20 15.777344 20 15.5 C 20 15.222656 19.777344 15 19.5 15 Z M 21.5 15 C 21.222656 15 21 15.222656 21 15.5 C 21 15.777344 21.222656 16 21.5 16 C 21.777344 16 22 15.777344 22 15.5 C 22 15.222656 21.777344 15 21.5 15 Z M 23.5 15 C 23.222656 15 23 15.222656 23 15.5 C 23 15.777344 23.222656 16 23.5 16 C 23.777344 16 24 15.777344 24 15.5 C 24 15.222656 23.777344 15 23.5 15 Z M 8.5 17 C 8.222656 17 8 17.222656 8 17.5 C 8 17.777344 8.222656 18 8.5 18 C 8.777344 18 9 17.777344 9 17.5 C 9 17.222656 8.777344 17 8.5 17 Z M 10.5 17 C 10.222656 17 10 17.222656 10 17.5 C 10 17.777344 10.222656 18 10.5 18 C 10.777344 18 11 17.777344 11 17.5 C 11 17.222656 10.777344 17 10.5 17 Z M 12.5 17 C 12.222656 17 12 17.222656 12 17.5 C 12 17.777344 12.222656 18 12.5 18 C 12.777344 18 13 17.777344 13 17.5 C 13 17.222656 12.777344 17 12.5 17 Z M 14.5 17 C 14.222656 17 14 17.222656 14 17.5 C 14 17.777344 14.222656 18 14.5 18 C 14.777344 18 15 17.777344 15 17.5 C 15 17.222656 14.777344 17 14.5 17 Z M 16.5 17 C 16.222656 17 16 17.222656 16 17.5 C 16 17.777344 16.222656 18 16.5 18 C 16.777344 18 17 17.777344 17 17.5 C 17 17.222656 16.777344 17 16.5 17 Z M 18.5 17 C 18.222656 17 18 17.222656 18 17.5 C 18 17.777344 18.222656 18 18.5 18 C 18.777344 18 19 17.777344 19 17.5 C 19 17.222656 18.777344 17 18.5 17 Z M 20.5 17 C 20.222656 17 20 17.222656 20 17.5 C 20 17.777344 20.222656 18 20.5 18 C 20.777344 18 21 17.777344 21 17.5 C 21 17.222656 20.777344 17 20.5 17 Z M 22.5 17 C 22.222656 17 22 17.222656 22 17.5 C 22 17.777344 22.222656 18 22.5 18 C 22.777344 18 23 17.777344 23 17.5 C 23 17.222656 22.777344 17 22.5 17 Z M 24.5 17 C 24.222656 17 24 17.222656 24 17.5 C 24 17.777344 24.222656 18 24.5 18 C 24.777344 18 25 17.777344 25 17.5 C 25 17.222656 24.777344 17 24.5 17 Z M 7.5 19 C 7.222656 19 7 19.222656 7 19.5 C 7 19.777344 7.222656 20 7.5 20 C 7.777344 20 8 19.777344 8 19.5 C 8 19.222656 7.777344 19 7.5 19 Z M 9.5 19 C 9.222656 19 9 19.222656 9 19.5 C 9 19.777344 9.222656 20 9.5 20 C 9.777344 20 10 19.777344 10 19.5 C 10 19.222656 9.777344 19 9.5 19 Z M 11.5 19 C 11.222656 19 11 19.222656 11 19.5 C 11 19.777344 11.222656 20 11.5 20 C 11.777344 20 12 19.777344 12 19.5 C 12 19.222656 11.777344 19 11.5 19 Z M 13.5 19 C 13.222656 19 13 19.222656 13 19.5 C 13 19.777344 13.222656 20 13.5 20 C 13.777344 20 14 19.777344 14 19.5 C 14 19.222656 13.777344 19 13.5 19 Z M 15.5 19 C 15.222656 19 15 19.222656 15 19.5 C 15 19.777344 15.222656 20 15.5 20 C 15.777344 20 16 19.777344 16 19.5 C 16 19.222656 15.777344 19 15.5 19 Z M 17.5 19 C 17.222656 19 17 19.222656 17 19.5 C 17 19.777344 17.222656 20 17.5 20 C 17.777344 20 18 19.777344 18 19.5 C 18 19.222656 17.777344 19 17.5 19 Z M 19.5 19 C 19.222656 19 19 19.222656 19 19.5 C 19 19.777344 19.222656 20 19.5 20 C 19.777344 20 20 19.777344 20 19.5 C 20 19.222656 19.777344 19 19.5 19 Z M 21.5 19 C 21.222656 19 21 19.222656 21 19.5 C 21 19.777344 21.222656 20 21.5 20 C 21.777344 20 22 19.777344 22 19.5 C 22 19.222656 21.777344 19 21.5 19 Z M 23.5 19 C 23.222656 19 23 19.222656 23 19.5 C 23 19.777344 23.222656 20 23.5 20 C 23.777344 20 24 19.777344 24 19.5 C 24 19.222656 23.777344 19 23.5 19 Z M 8.5 21 C 8.222656 21 8 21.222656 8 21.5 C 8 21.777344 8.222656 22 8.5 22 C 8.777344 22 9 21.777344 9 21.5 C 9 21.222656 8.777344 21 8.5 21 Z M 10.5 21 C 10.222656 21 10 21.222656 10 21.5 C 10 21.777344 10.222656 22 10.5 22 C 10.777344 22 11 21.777344 11 21.5 C 11 21.222656 10.777344 21 10.5 21 Z M 12.5 21 C 12.222656 21 12 21.222656 12 21.5 C 12 21.777344 12.222656 22 12.5 22 C 12.777344 22 13 21.777344 13 21.5 C 13 21.222656 12.777344 21 12.5 21 Z M 14.5 21 C 14.222656 21 14 21.222656 14 21.5 C 14 21.777344 14.222656 22 14.5 22 C 14.777344 22 15 21.777344 15 21.5 C 15 21.222656 14.777344 21 14.5 21 Z M 16.5 21 C 16.222656 21 16 21.222656 16 21.5 C 16 21.777344 16.222656 22 16.5 22 C 16.777344 22 17 21.777344 17 21.5 C 17 21.222656 16.777344 21 16.5 21 Z M 18.5 21 C 18.222656 21 18 21.222656 18 21.5 C 18 21.777344 18.222656 22 18.5 22 C 18.777344 22 19 21.777344 19 21.5 C 19 21.222656 18.777344 21 18.5 21 Z M 20.5 21 C 20.222656 21 20 21.222656 20 21.5 C 20 21.777344 20.222656 22 20.5 22 C 20.777344 22 21 21.777344 21 21.5 C 21 21.222656 20.777344 21 20.5 21 Z M 22.5 21 C 22.222656 21 22 21.222656 22 21.5 C 22 21.777344 22.222656 22 22.5 22 C 22.777344 22 23 21.777344 23 21.5 C 23 21.222656 22.777344 21 22.5 21 Z M 24.5 21 C 24.222656 21 24 21.222656 24 21.5 C 24 21.777344 24.222656 22 24.5 22 C 24.777344 22 25 21.777344 25 21.5 C 25 21.222656 24.777344 21 24.5 21 Z M 7.5 23 C 7.222656 23 7 23.222656 7 23.5 C 7 23.777344 7.222656 24 7.5 24 C 7.777344 24 8 23.777344 8 23.5 C 8 23.222656 7.777344 23 7.5 23 Z M 9.5 23 C 9.222656 23 9 23.222656 9 23.5 C 9 23.777344 9.222656 24 9.5 24 C 9.777344 24 10 23.777344 10 23.5 C 10 23.222656 9.777344 23 9.5 23 Z M 11.5 23 C 11.222656 23 11 23.222656 11 23.5 C 11 23.777344 11.222656 24 11.5 24 C 11.777344 24 12 23.777344 12 23.5 C 12 23.222656 11.777344 23 11.5 23 Z M 13.5 23 C 13.222656 23 13 23.222656 13 23.5 C 13 23.777344 13.222656 24 13.5 24 C 13.777344 24 14 23.777344 14 23.5 C 14 23.222656 13.777344 23 13.5 23 Z M 15.5 23 C 15.222656 23 15 23.222656 15 23.5 C 15 23.777344 15.222656 24 15.5 24 C 15.777344 24 16 23.777344 16 23.5 C 16 23.222656 15.777344 23 15.5 23 Z M 17.5 23 C 17.222656 23 17 23.222656 17 23.5 C 17 23.777344 17.222656 24 17.5 24 C 17.777344 24 18 23.777344 18 23.5 C 18 23.222656 17.777344 23 17.5 23 Z M 19.5 23 C 19.222656 23 19 23.222656 19 23.5 C 19 23.777344 19.222656 24 19.5 24 C 19.777344 24 20 23.777344 20 23.5 C 20 23.222656 19.777344 23 19.5 23 Z M 21.5 23 C 21.222656 23 21 23.222656 21 23.5 C 21 23.777344 21.222656 24 21.5 24 C 21.777344 24 22 23.777344 22 23.5 C 22 23.222656 21.777344 23 21.5 23 Z M 23.5 23 C 23.222656 23 23 23.222656 23 23.5 C 23 23.777344 23.222656 24 23.5 24 C 23.777344 24 24 23.777344 24 23.5 C 24 23.222656 23.777344 23 23.5 23 Z "></path>
</g>
</svg>
