<?xml version="1.0" encoding="UTF-8"?>
<svg xmlns="http://www.w3.org/2000/svg" xmlns:xlink="http://www.w3.org/1999/xlink" viewBox="0 0 32 32" version="1.1">
<g>
<path d="M 16 5 C 9.382813 5 4 10.382813 4 17 C 4 19.949219 5.070313 22.65625 6.84375 24.75 L 5.5625 26 C 5.542969 26 5.519531 26 5.5 26 C 4.671875 26 4 26.671875 4 27.5 C 4 28.328125 4.671875 29 5.5 29 C 6.328125 29 7 28.328125 7 27.5 C 7 27.480469 7 27.457031 7 27.4375 L 8.25 26.15625 C 10.34375 27.929688 13.050781 29 16 29 C 22.617188 29 28 23.617188 28 17 C 28 14.050781 26.929688 11.34375 25.15625 9.25 L 26.4375 8 C 26.457031 8 26.480469 8 26.5 8 C 27.328125 8 28 7.328125 28 6.5 C 28 5.671875 27.328125 5 26.5 5 C 25.671875 5 25 5.671875 25 6.5 C 25 6.519531 25 6.542969 25 6.5625 L 23.75 7.84375 C 21.65625 6.070313 18.949219 5 16 5 Z M 16 7 C 18.171875 7 20.175781 7.703125 21.8125 8.875 C 21.613281 8.867188 21.414063 8.882813 21.21875 8.90625 C 20.433594 9 19.632813 9.308594 18.75 9.75 C 18.085938 10.082031 17.371094 10.539063 16.65625 11.03125 C 15.75 10.433594 14.875 9.976563 14 9.65625 C 12.175781 8.988281 10.300781 8.886719 9.09375 10.09375 C 7.886719 11.300781 7.988281 13.175781 8.65625 15 C 8.976563 15.875 9.433594 16.75 10.03125 17.65625 C 9.539063 18.371094 9.082031 19.085938 8.75 19.75 C 8.308594 20.632813 8 21.433594 7.90625 22.21875 C 7.882813 22.414063 7.863281 22.613281 7.875 22.8125 C 6.703125 21.175781 6 19.171875 6 17 C 6 11.464844 10.464844 7 16 7 Z M 21.4375 10.90625 C 21.871094 10.855469 22.007813 10.945313 22.03125 10.96875 C 22.054688 10.992188 22.144531 11.128906 22.09375 11.5625 C 22.042969 11.996094 21.839844 12.660156 21.46875 13.40625 C 21.273438 13.800781 21 14.21875 20.71875 14.65625 C 20.363281 14.234375 20 13.8125 19.59375 13.40625 C 19.1875 13 18.765625 12.636719 18.34375 12.28125 C 18.78125 12 19.199219 11.726563 19.59375 11.53125 C 20.339844 11.160156 21.003906 10.957031 21.4375 10.90625 Z M 11.5 11.15625 C 11.972656 11.144531 12.582031 11.265625 13.3125 11.53125 C 13.824219 11.71875 14.367188 12.007813 14.9375 12.34375 C 14.304688 12.871094 13.65625 13.40625 13.03125 14.03125 C 12.40625 14.65625 11.871094 15.304688 11.34375 15.9375 C 11.007813 15.367188 10.71875 14.824219 10.53125 14.3125 C 9.996094 12.851563 10.117188 11.882813 10.5 11.5 C 10.691406 11.308594 11.027344 11.167969 11.5 11.15625 Z M 24.125 11.1875 C 25.296875 12.824219 26 14.828125 26 17 C 26 22.535156 21.535156 27 16 27 C 13.828125 27 11.824219 26.296875 10.1875 25.125 C 10.386719 25.136719 10.585938 25.117188 10.78125 25.09375 C 11.566406 25 12.367188 24.691406 13.25 24.25 C 13.914063 23.917969 14.628906 23.460938 15.34375 22.96875 C 16.25 23.566406 17.125 24.023438 18 24.34375 C 19.824219 25.011719 21.699219 25.113281 22.90625 23.90625 C 24.113281 22.699219 24.011719 20.824219 23.34375 19 C 23.023438 18.125 22.566406 17.25 21.96875 16.34375 C 22.460938 15.628906 22.917969 14.914063 23.25 14.25 C 23.691406 13.367188 24 12.566406 24.09375 11.78125 C 24.117188 11.585938 24.136719 11.386719 24.125 11.1875 Z M 16.65625 13.5 C 17.171875 13.90625 17.65625 14.34375 18.15625 14.84375 C 18.65625 15.34375 19.09375 15.828125 19.5 16.34375 C 18.921875 17.066406 18.261719 17.800781 17.53125 18.53125 C 16.800781 19.261719 16.066406 19.921875 15.34375 20.5 C 14.828125 20.09375 14.34375 19.65625 13.84375 19.15625 C 13.34375 18.65625 12.90625 18.171875 12.5 17.65625 C 13.078125 16.933594 13.738281 16.199219 14.46875 15.46875 C 15.199219 14.738281 15.933594 14.078125 16.65625 13.5 Z M 16 16 C 15.449219 16 15 16.449219 15 17 C 15 17.550781 15.449219 18 16 18 C 16.550781 18 17 17.550781 17 17 C 17 16.449219 16.550781 16 16 16 Z M 20.65625 18.0625 C 20.992188 18.632813 21.28125 19.175781 21.46875 19.6875 C 22.003906 21.148438 21.882813 22.117188 21.5 22.5 C 21.117188 22.882813 20.148438 23.003906 18.6875 22.46875 C 18.175781 22.28125 17.632813 21.992188 17.0625 21.65625 C 17.695313 21.128906 18.34375 20.59375 18.96875 19.96875 C 19.59375 19.34375 20.128906 18.695313 20.65625 18.0625 Z M 11.28125 19.34375 C 11.636719 19.765625 12 20.1875 12.40625 20.59375 C 12.8125 21 13.234375 21.363281 13.65625 21.71875 C 13.21875 22 12.800781 22.273438 12.40625 22.46875 C 11.660156 22.839844 10.996094 23.042969 10.5625 23.09375 C 10.128906 23.144531 9.992188 23.054688 9.96875 23.03125 C 9.945313 23.007813 9.855469 22.871094 9.90625 22.4375 C 9.957031 22.003906 10.160156 21.339844 10.53125 20.59375 C 10.726563 20.199219 11 19.78125 11.28125 19.34375 Z "></path>
</g>
</svg>
