<?xml version="1.0" encoding="UTF-8"?>
<svg xmlns="http://www.w3.org/2000/svg" xmlns:xlink="http://www.w3.org/1999/xlink" viewBox="0 0 32 32" version="1.1">
<g>
<path d="M 22.632813 3 L 22.355469 3.234375 C 22.355469 3.234375 19.65625 5.523438 18.066406 9.640625 C 16.75 13.039063 13.96875 13 13.96875 13 L 9 13 C 7.910156 13 7.019531 13.304688 6.3125 13.75 C 6.160156 13.421875 6 12.886719 6 12 C 6 11.132813 6.3125 10.746094 6.738281 10.4375 C 7.164063 10.128906 7.777344 10 8 10 C 8.269531 10 8.847656 10.054688 9.25 10.296875 C 9.652344 10.539063 10 10.855469 10 12 L 12 12 C 12 10.316406 11.199219 9.132813 10.277344 8.582031 C 9.355469 8.03125 8.433594 8 8 8 C 7.292969 8 6.40625 8.207031 5.5625 8.816406 C 4.722656 9.425781 4 10.539063 4 12 C 4 13.308594 4.285156 14.238281 4.621094 14.851563 C 4.691406 14.984375 4.773438 15.097656 4.851563 15.203125 C 4.78125 15.316406 4.707031 15.429688 4.648438 15.542969 C 4.019531 16.769531 4 17.972656 4 17.972656 L 4 29 L 6 29 L 6 18.027344 C 6 18.027344 6.035156 17.230469 6.429688 16.457031 C 6.824219 15.683594 7.394531 15 9 15 L 14.03125 15 C 14.03125 15 18.246094 14.722656 19.933594 10.359375 C 20.503906 8.886719 21.210938 7.894531 21.863281 6.992188 L 21.859375 7 L 23 7 C 23.339844 7 23.515625 7.183594 23.726563 7.523438 C 23.9375 7.863281 24.027344 8.222656 24.027344 8.222656 L 24.152344 8.773438 L 26.609375 9.59375 L 26.296875 10.191406 C 25.941406 10.246094 25.671875 10.222656 25.03125 10.5625 C 24.066406 11.074219 23 12.238281 23 14 C 23 16.832031 20.347656 19.242188 20.347656 19.242188 L 20 19.542969 L 20 29 L 22 29 L 22 20.367188 C 22.558594 19.867188 25 17.585938 25 14 C 25 12.949219 25.433594 12.613281 25.96875 12.328125 C 26.503906 12.042969 27.0625 12 27.0625 12 L 27.625 11.964844 L 29 9.339844 L 29 8.28125 L 25.730469 7.1875 C 25.644531 6.941406 25.652344 6.835938 25.429688 6.476563 C 25.171875 6.054688 24.683594 5.648438 24.09375 5.351563 L 24.398438 3 Z M 10.578125 19.832031 L 10.167969 20.445313 C 9.375 21.632813 8.5 22.136719 8.5 22.136719 L 8 22.421875 L 8 29 L 10 29 L 10 23.5 C 10.347656 23.246094 10.773438 22.785156 11.332031 22.113281 C 12.011719 22.308594 13.839844 22.71875 16 22.875 L 16 29 L 18 29 L 18 21 L 17 21 C 14.628906 21 11.28125 20.042969 11.28125 20.042969 Z "></path>
</g>
</svg>
