<?xml version="1.0" encoding="UTF-8"?>
<svg xmlns="http://www.w3.org/2000/svg" xmlns:xlink="http://www.w3.org/1999/xlink" viewBox="0 0 32 32" version="1.1">
<g>
<path d="M 2 6 L 2 24 L 15 24 L 15 26 L 10 26 L 10 28 L 22 28 L 22 26 L 17 26 L 17 24 L 30 24 L 30 6 Z M 4 8 L 28 8 L 28 22 L 4 22 Z M 8.625 12.21875 L 7.375 13.78125 C 7.429688 13.828125 9.375 14.714844 10.53125 17.5625 C 10.886719 18.441406 11.769531 19 12.71875 19 C 13.515625 19 14.277344 18.601563 14.71875 17.9375 L 14.9375 17.5625 C 15.4375 16.816406 16.5625 16.816406 17.0625 17.5625 L 17.28125 17.9375 C 17.726563 18.601563 18.484375 19 19.28125 19 C 20.226563 19 21.109375 18.433594 21.46875 17.5625 C 22.644531 14.695313 24.570313 13.828125 24.625 13.78125 L 23.375 12.21875 C 23.351563 12.238281 21.058594 14 16 14 C 10.941406 14 8.648438 12.238281 8.625 12.21875 Z M 13 15 C 13.550781 15 14 15.449219 14 16 C 14 16.550781 13.550781 17 13 17 C 12.449219 17 12 16.550781 12 16 C 12 15.449219 12.449219 15 13 15 Z M 19 15 C 19.550781 15 20 15.449219 20 16 C 20 16.550781 19.550781 17 19 17 C 18.449219 17 18 16.550781 18 16 C 18 15.449219 18.449219 15 19 15 Z "></path>
</g>
</svg>
