<?xml version="1.0" encoding="UTF-8"?>
<svg xmlns="http://www.w3.org/2000/svg" xmlns:xlink="http://www.w3.org/1999/xlink" viewBox="0 0 32 32" version="1.1">
<g>
<path d="M 19 3 C 13.488281 3 9 7.488281 9 13 C 9 15.394531 9.839844 17.589844 11.25 19.3125 L 3.28125 27.28125 L 4.71875 28.71875 L 12.6875 20.75 C 14.410156 22.160156 16.605469 23 19 23 C 24.511719 23 29 18.511719 29 13 C 29 7.488281 24.511719 3 19 3 Z M 18.1875 5.03125 C 18.289063 5.019531 18.394531 5.039063 18.5 5.03125 C 18.941406 5.667969 19.8125 7.0625 19.8125 8.5 C 19.8125 9.148438 19.609375 9.773438 19.375 10.34375 C 19.039063 9.515625 18.535156 8.609375 17.75 7.84375 C 16.855469 6.964844 15.804688 6.433594 14.875 6.125 C 15.855469 5.535156 16.988281 5.152344 18.1875 5.03125 Z M 21 5.25 C 22.28125 5.578125 23.429688 6.203125 24.375 7.0625 C 24.230469 7.816406 23.808594 9.398438 22.78125 10.40625 C 22.316406 10.863281 21.730469 11.167969 21.15625 11.40625 C 21.519531 10.585938 21.8125 9.597656 21.8125 8.5 C 21.8125 7.246094 21.433594 6.128906 21 5.25 Z M 12.9375 7.75 C 13.703125 7.882813 15.316406 8.273438 16.34375 9.28125 C 16.789063 9.714844 17.101563 10.269531 17.34375 10.8125 C 16.535156 10.460938 15.570313 10.1875 14.5 10.1875 C 13.246094 10.1875 12.128906 10.566406 11.25 11 C 11.5625 9.777344 12.136719 8.675781 12.9375 7.75 Z M 25.9375 9 C 26.53125 10.035156 26.890625 11.234375 26.96875 12.5 C 26.332031 12.941406 24.9375 13.8125 23.5 13.8125 C 22.875 13.8125 22.273438 13.625 21.71875 13.40625 C 22.542969 13.085938 23.421875 12.59375 24.1875 11.84375 C 25.082031 10.96875 25.609375 9.917969 25.9375 9 Z M 14.5 12.1875 C 15.125 12.1875 15.726563 12.375 16.28125 12.59375 C 15.457031 12.914063 14.578125 13.40625 13.8125 14.15625 C 12.925781 15.023438 12.390625 16.054688 12.0625 16.96875 C 11.472656 15.9375 11.109375 14.757813 11.03125 13.5 C 11.667969 13.058594 13.0625 12.1875 14.5 12.1875 Z M 16.84375 14.59375 C 16.480469 15.414063 16.1875 16.402344 16.1875 17.5 C 16.1875 18.753906 16.566406 19.871094 17 20.75 C 15.722656 20.421875 14.570313 19.792969 13.625 18.9375 C 13.769531 18.183594 14.191406 16.601563 15.21875 15.59375 C 15.683594 15.136719 16.269531 14.832031 16.84375 14.59375 Z M 26.75 15 C 26.4375 16.21875 25.859375 17.332031 25.0625 18.25 C 24.296875 18.117188 22.683594 17.726563 21.65625 16.71875 C 21.210938 16.285156 20.898438 15.730469 20.65625 15.1875 C 21.464844 15.539063 22.429688 15.8125 23.5 15.8125 C 24.753906 15.8125 25.871094 15.433594 26.75 15 Z M 18.625 15.65625 C 18.960938 16.484375 19.464844 17.390625 20.25 18.15625 C 21.132813 19.023438 22.171875 19.53125 23.09375 19.84375 C 22.027344 20.480469 20.8125 20.886719 19.5 20.96875 C 19.058594 20.332031 18.1875 18.9375 18.1875 17.5 C 18.1875 16.851563 18.390625 16.226563 18.625 15.65625 Z "></path>
</g>
</svg>
