<?xml version="1.0" encoding="UTF-8"?>
<svg xmlns="http://www.w3.org/2000/svg" xmlns:xlink="http://www.w3.org/1999/xlink" viewBox="0 0 32 32" version="1.1">
<g>
<path d="M 16 3 C 8.832031 3 3 8.832031 3 16 C 3 23.167969 8.832031 29 16 29 C 23.167969 29 29 23.167969 29 16 C 29 8.832031 23.167969 3 16 3 Z M 16 5 C 22.085938 5 27 9.914063 27 16 C 27 18.5625 26.121094 20.910156 24.660156 22.78125 C 23.488281 22.375 22.585938 21.523438 22.207031 21.113281 C 23.820313 19.402344 25 16.859375 25 13.390625 C 25 12.839844 24.550781 12.394531 24 12.390625 C 23.085938 12.390625 22.390625 12.800781 21.835938 13.097656 C 21.640625 13.203125 21.515625 13.269531 21.386719 13.339844 C 21.011719 12.980469 20.671875 12.527344 20.21875 12.398438 C 19.5 12.191406 18.753906 12.316406 18.164063 12.65625 C 17.421875 13.089844 17.054688 13.910156 16.9375 14.808594 C 16.492188 14.722656 16.085938 14.683594 15.527344 14.535156 C 14.574219 14.277344 13.378906 14 11.757813 14 C 10.804688 14 9.933594 14.308594 9.28125 14.871094 L 8.707031 14.292969 C 8.519531 14.097656 8.261719 13.992188 7.992188 13.988281 C 7.582031 13.992188 7.21875 14.238281 7.0625 14.613281 C 6.910156 14.992188 7 15.421875 7.292969 15.707031 L 8.199219 16.613281 C 8.058594 17.121094 7.996094 17.667969 8 18.25 C 8.007813 19.269531 8.3125 20.1875 8.800781 20.980469 C 8.464844 21.40625 7.867188 22 7 22 C 6.929688 22 6.859375 22.003906 6.792969 22.019531 C 5.664063 20.289063 5 18.226563 5 16 C 5 9.914063 9.914063 5 16 5 Z M 21.703125 13.597656 C 21.761719 13.625 21.757813 13.578125 21.824219 13.625 L 22.082031 13.902344 C 21.984375 13.746094 21.816406 13.734375 21.703125 13.597656 Z M 19.40625 14.296875 C 19.488281 14.289063 19.574219 14.292969 19.667969 14.320313 C 19.851563 14.375 20.109375 14.519531 20.390625 14.96875 C 20.457031 15.078125 20.546875 15.167969 20.652344 15.246094 C 21.09375 15.566406 21.441406 15.457031 21.625 15.410156 C 21.8125 15.363281 21.929688 15.308594 22.050781 15.25 C 22.296875 15.128906 22.535156 14.996094 22.78125 14.859375 C 22.816406 14.84375 22.828125 14.847656 22.863281 14.828125 C 22.550781 17.484375 21.464844 19.238281 20.097656 20.367188 C 18.492188 21.695313 16.480469 22.199219 15.25 22.199219 C 13.914063 22.199219 12.542969 21.78125 11.566406 21.074219 C 10.59375 20.363281 10.007813 19.445313 10 18.234375 C 9.992188 17.367188 10.191406 16.808594 10.449219 16.496094 C 10.707031 16.179688 11.050781 16 11.757813 16 C 13.160156 16 14.101563 16.222656 15.007813 16.464844 C 15.914063 16.707031 16.808594 17 17.9375 17 C 18.273438 17 18.589844 16.828125 18.773438 16.546875 C 18.960938 16.261719 18.988281 15.90625 18.851563 15.59375 C 18.582031 14.984375 18.847656 14.574219 19.167969 14.386719 C 19.246094 14.339844 19.328125 14.308594 19.40625 14.296875 Z M 20.683594 22.425781 C 21.089844 22.886719 21.957031 23.722656 23.183594 24.328125 C 21.257813 25.992188 18.75 27 16 27 C 12.957031 27 10.210938 25.773438 8.21875 23.785156 C 9.074219 23.503906 9.710938 22.988281 10.152344 22.496094 C 10.230469 22.5625 10.308594 22.628906 10.394531 22.691406 C 11.769531 23.6875 13.511719 24.199219 15.25 24.199219 C 16.789063 24.199219 18.824219 23.710938 20.683594 22.425781 Z "></path>
</g>
</svg>
