<?xml version="1.0" encoding="UTF-8"?>
<svg xmlns="http://www.w3.org/2000/svg" xmlns:xlink="http://www.w3.org/1999/xlink" viewBox="0 0 32 32" version="1.1">
<g>
<path d="M 12.292969 4.46875 L 10.214844 9.886719 L 6.3125 10.023438 L 2.070313 20.628906 L 3.929688 21.371094 L 7.6875 11.976563 L 9.433594 11.917969 L 7.710938 16.394531 C 7.355469 16.675781 7.050781 16.972656 6.796875 17.269531 C 5.847656 18.402344 5.550781 19.582031 5.550781 19.582031 L 5.234375 20.839844 L 6.011719 20.832031 L 4.097656 25.816406 L 5.964844 26.53125 L 8.164063 20.808594 L 12.03125 20.765625 L 12.035156 20.765625 C 13.800781 20.785156 15.710938 21.308594 17.578125 21.859375 C 19.445313 22.410156 21.257813 23 23 23 C 24.601563 23 26.1875 22.394531 27.421875 21.820313 C 28.652344 21.246094 29.546875 20.664063 29.546875 20.664063 L 30.191406 20.242188 L 27.402344 11.875 L 22.28125 13.003906 L 13.332031 9.777344 L 12.386719 9.8125 L 14.160156 5.183594 Z M 13.015625 11.789063 L 22.152344 15.082031 L 26.078125 14.214844 L 27.785156 19.347656 C 27.46875 19.539063 27.285156 19.675781 26.578125 20.003906 C 25.476563 20.519531 24.058594 21 23 21 C 21.742188 21 20.027344 20.492188 18.140625 19.9375 C 16.257813 19.382813 14.1875 18.789063 12.050781 18.765625 L 12.042969 18.765625 L 8.1875 18.808594 C 8.273438 18.683594 8.21875 18.6875 8.328125 18.558594 C 8.984375 17.777344 10.019531 17 12 17 L 18 17 L 18 15 L 12 15 C 11.390625 15 10.835938 15.066406 10.324219 15.183594 L 11.605469 11.839844 Z "></path>
</g>
</svg>
