<?xml version="1.0" encoding="UTF-8"?>
<svg xmlns="http://www.w3.org/2000/svg" xmlns:xlink="http://www.w3.org/1999/xlink" viewBox="0 0 32 32" version="1.1">
<g>
<path d="M 16 3.9375 L 15.625 4.0625 L 10 6.3125 L 10 13.6875 L 15.625 15.9375 L 16 16.0625 L 16.375 15.9375 L 22 13.6875 L 22 6.3125 L 16.375 4.0625 Z M 3 5 L 3 16.40625 L 3.28125 16.71875 L 9 22.4375 L 9 28 L 15 28 L 15 22.03125 C 15 22.03125 15 22 15 22 C 15.003906 21.945313 15.144531 18.84375 12.5625 17.1875 C 12.554688 17.183594 12.570313 17.160156 12.5625 17.15625 C 12.554688 17.152344 12.539063 17.160156 12.53125 17.15625 C 11.347656 16.382813 10.125 15.75 9.28125 15.09375 C 8.429688 14.433594 8 13.886719 8 13 L 6 13 C 6 14.617188 6.945313 15.84375 8.03125 16.6875 C 9.117188 17.53125 10.378906 18.152344 11.4375 18.84375 L 11.46875 18.84375 C 13.070313 19.847656 13 21.96875 13 21.96875 L 13 26 L 11 26 L 11 21.59375 L 10.71875 21.28125 L 5 15.5625 L 5 5 Z M 27 5 L 27 15.5625 L 21.28125 21.28125 L 21 21.59375 L 21 26 L 19 26 L 19 21.9375 C 19 21.9375 18.929688 19.847656 20.53125 18.84375 L 20.5625 18.84375 C 21.617188 18.152344 22.882813 17.53125 23.96875 16.6875 C 25.054688 15.84375 26 14.617188 26 13 L 24 13 C 24 13.886719 23.570313 14.433594 22.71875 15.09375 C 21.875 15.75 20.652344 16.382813 19.46875 17.15625 C 19.460938 17.160156 19.445313 17.152344 19.4375 17.15625 L 19.4375 17.1875 C 16.875 18.828125 16.996094 21.894531 17 22 C 17 22 17 22.0625 17 22.0625 L 17 28 L 23 28 L 23 22.4375 L 28.71875 16.71875 L 29 16.40625 L 29 5 Z M 16 6.09375 L 18.28125 7 L 16 7.90625 L 13.71875 7 Z M 12 8.5 L 15.625 9.9375 L 16 10.0625 L 16.375 9.9375 L 20 8.5 L 20 12.3125 L 16 13.90625 L 12 12.3125 Z "></path>
</g>
</svg>
