<?xml version="1.0" encoding="UTF-8"?>
<svg xmlns="http://www.w3.org/2000/svg" xmlns:xlink="http://www.w3.org/1999/xlink" viewBox="0 0 32 32" version="1.1">
<g>
<path d="M 19 4 C 18.449219 4 18 4.449219 18 5 C 18 5.550781 18.449219 6 19 6 C 19.550781 6 20 5.550781 20 5 C 20 4.449219 19.550781 4 19 4 Z M 22 5 C 21.449219 5 21 5.449219 21 6 C 21 6.550781 21.449219 7 22 7 C 22.550781 7 23 6.550781 23 6 C 23 5.449219 22.550781 5 22 5 Z M 16 6 C 15.449219 6 15 6.449219 15 7 C 15 7.550781 15.449219 8 16 8 C 16.550781 8 17 7.550781 17 7 C 17 6.449219 16.550781 6 16 6 Z M 12.0625 7.125 C 11.804688 7.125 11.539063 7.210938 11.34375 7.40625 L 10.21875 8.53125 C 7.867188 7.542969 5.25 7.84375 3.5625 9.53125 C 1.222656 11.871094 1.550781 15.988281 4.28125 18.71875 C 7.011719 21.449219 11.128906 21.777344 13.46875 19.4375 C 15.15625 17.75 15.457031 15.132813 14.46875 12.78125 L 15.59375 11.65625 C 15.984375 11.265625 15.984375 10.640625 15.59375 10.25 L 12.75 7.40625 C 12.554688 7.210938 12.320313 7.125 12.0625 7.125 Z M 23 8 C 22.449219 8 22 8.449219 22 9 C 22 9.550781 22.449219 10 23 10 C 23.550781 10 24 9.550781 24 9 C 24 8.449219 23.550781 8 23 8 Z M 12.75 9.25 C 13.007813 9.25 13.273438 9.335938 13.46875 9.53125 C 13.859375 9.921875 13.859375 10.546875 13.46875 10.9375 C 13.078125 11.328125 12.453125 11.328125 12.0625 10.9375 C 11.671875 10.546875 11.671875 9.921875 12.0625 9.53125 C 12.257813 9.335938 12.492188 9.25 12.75 9.25 Z M 7.15625 9.96875 C 8.542969 9.851563 10.125 10.4375 11.34375 11.65625 C 13.292969 13.605469 13.621094 16.472656 12.0625 18.03125 C 10.503906 19.589844 7.636719 19.261719 5.6875 17.3125 C 3.738281 15.363281 3.410156 12.496094 4.96875 10.9375 C 5.554688 10.351563 6.324219 10.039063 7.15625 9.96875 Z M 23 11 C 22.449219 11 22 11.449219 22 12 C 22 12.550781 22.449219 13 23 13 C 23.550781 13 24 12.550781 24 12 C 24 11.449219 23.550781 11 23 11 Z M 21 14 C 20.449219 14 20 14.449219 20 15 L 20 16.59375 C 17.640625 17.558594 16 19.613281 16 22 C 16 25.308594 19.140625 28 23 28 C 26.859375 28 30 25.308594 30 22 C 30 19.613281 28.359375 17.558594 26 16.59375 L 26 15 C 26 14.449219 25.550781 14 25 14 Z M 23 15 C 23.550781 15 24 15.449219 24 16 C 24 16.550781 23.550781 17 23 17 C 22.449219 17 22 16.550781 22 16 C 22 15.449219 22.449219 15 23 15 Z M 23 18 C 25.757813 18 28 19.792969 28 22 C 28 24.207031 25.757813 26 23 26 C 20.242188 26 18 24.207031 18 22 C 18 19.792969 20.242188 18 23 18 Z "></path>
</g>
</svg>
