<?xml version="1.0" encoding="UTF-8"?>
<svg xmlns="http://www.w3.org/2000/svg" xmlns:xlink="http://www.w3.org/1999/xlink" viewBox="0 0 32 32" version="1.1">
<g>
<path d="M 10.496094 3.007813 C 6.125 2.882813 2.230469 6.175781 2.007813 10.59375 C 1.910156 12.59375 2.554688 14.460938 3.6875 15.917969 L 3.695313 15.921875 L 4.070313 16.390625 C 3.875 17.347656 4.140625 18.382813 4.878906 19.121094 C 5.460938 19.703125 6.234375 20 7 20 C 7 20 7.003906 20 7.007813 20 C 7.007813 20.769531 7.296875 21.539063 7.878906 22.121094 C 8.460938 22.703125 9.234375 23 10 23 C 10 23 10.003906 23 10.003906 23 C 10.003906 23.769531 10.296875 24.539063 10.878906 25.121094 C 11.460938 25.703125 12.234375 26 13 26 C 13 26 13.003906 26 13.003906 26 C 13.003906 26.769531 13.296875 27.539063 13.878906 28.121094 C 14.460938 28.703125 15.234375 29 16 29 C 16.765625 29 17.539063 28.703125 18.121094 28.121094 L 19.121094 27.121094 C 19.449219 26.792969 19.675781 26.402344 19.816406 25.988281 C 19.878906 25.992188 19.941406 26 20 26 C 20.765625 26 21.539063 25.703125 22.121094 25.121094 C 22.703125 24.539063 22.996094 23.769531 22.996094 23 C 22.996094 23 23 23 23 23 C 23.765625 23 24.539063 22.703125 25.121094 22.121094 C 25.6875 21.554688 25.976563 20.804688 25.988281 20.050781 C 26.726563 20.027344 27.535156 19.757813 28.148438 19.09375 L 28.152344 19.09375 C 29.027344 18.140625 29.023438 16.792969 28.441406 15.671875 C 29.472656 14.25 30.085938 12.492188 29.988281 10.59375 C 29.769531 6.175781 25.875 2.882813 21.503906 3.007813 C 19.777344 3.054688 17.734375 3.433594 16 4.929688 C 14.265625 3.433594 12.222656 3.054688 10.496094 3.007813 Z M 10.4375 5.007813 C 11.890625 5.046875 13.296875 5.292969 14.542969 6.304688 L 11.886719 8.875 L 11.878906 8.878906 C 10.714844 10.042969 10.714844 11.957031 11.878906 13.121094 C 12.460938 13.703125 13.234375 14 14 14 C 14.765625 14 15.539063 13.703125 16.121094 13.125 L 18.957031 10.390625 C 19.53125 9.839844 20.410156 9.855469 20.96875 10.421875 L 26.703125 16.292969 L 26.707031 16.296875 C 27.105469 16.691406 27.09375 17.285156 26.679688 17.734375 C 26.679688 17.734375 26.675781 17.734375 26.675781 17.734375 C 26.675781 17.734375 26.675781 17.738281 26.675781 17.738281 C 26.390625 18.050781 26.105469 18.101563 25.746094 18.058594 C 25.386719 18.015625 25.007813 17.765625 24.96875 17.71875 L 21.722656 14.3125 L 20.277344 15.6875 L 23.699219 19.285156 L 23.707031 19.292969 C 24.105469 19.691406 24.105469 20.308594 23.707031 20.707031 L 23.703125 20.707031 C 23.507813 20.90625 23.257813 21 23 21 C 22.648438 21 22.5625 21.015625 22.453125 20.984375 C 22.347656 20.957031 22.125 20.859375 21.691406 20.429688 L 18.722656 17.3125 L 17.277344 18.6875 L 20.699219 22.285156 L 20.707031 22.292969 C 21.105469 22.691406 21.105469 23.308594 20.707031 23.707031 L 20.703125 23.707031 C 20.507813 23.90625 20.257813 24 20 24 C 19.933594 24 19.871094 23.988281 19.808594 23.972656 C 19.664063 23.574219 19.4375 23.195313 19.121094 22.878906 C 18.539063 22.296875 17.769531 22.003906 17 22.003906 C 17 22.003906 16.996094 22.003906 16.996094 22.003906 C 16.996094 21.234375 16.703125 20.460938 16.121094 19.878906 C 15.539063 19.296875 14.769531 19.003906 14 19.003906 C 14 19.003906 13.996094 19.003906 13.996094 19.003906 C 13.996094 18.234375 13.703125 17.460938 13.121094 16.878906 C 12.539063 16.296875 11.769531 16.003906 11 16.003906 C 11 16.003906 10.996094 16.003906 10.996094 16.003906 C 10.996094 15.234375 10.703125 14.460938 10.121094 13.878906 C 9.539063 13.296875 8.769531 13.003906 8 13.003906 C 7.230469 13.003906 6.460938 13.296875 5.878906 13.878906 L 5.1875 14.566406 C 4.390625 13.492188 3.933594 12.15625 4.007813 10.691406 C 4.171875 7.40625 7.101563 4.914063 10.4375 5.007813 Z M 21.5625 5.007813 C 24.898438 4.914063 27.828125 7.40625 27.992188 10.691406 C 28.050781 11.878906 27.691406 12.941406 27.15625 13.890625 L 22.398438 9.023438 C 21.089844 7.683594 18.917969 7.652344 17.574219 8.953125 L 14.714844 11.703125 L 14.707031 11.707031 C 14.507813 11.90625 14.257813 12 14 12 C 13.742188 12 13.492188 11.90625 13.296875 11.707031 L 13.292969 11.707031 C 12.894531 11.308594 12.894531 10.691406 13.292969 10.292969 L 16.996094 6.710938 L 17 6.707031 C 18.355469 5.351563 19.929688 5.050781 21.5625 5.007813 Z M 8 14.996094 C 8.253906 14.996094 8.507813 15.09375 8.707031 15.292969 C 9.105469 15.691406 9.105469 16.308594 8.707031 16.707031 L 7.707031 17.707031 L 7.703125 17.707031 C 7.507813 17.90625 7.257813 18 7 18 C 6.742188 18 6.492188 17.90625 6.296875 17.707031 L 6.292969 17.707031 C 5.894531 17.308594 5.894531 16.691406 6.292969 16.292969 L 7.292969 15.292969 C 7.492188 15.09375 7.746094 14.996094 8 14.996094 Z M 11 17.996094 C 11.253906 17.996094 11.507813 18.09375 11.707031 18.292969 C 12.105469 18.691406 12.105469 19.308594 11.707031 19.707031 L 10.707031 20.707031 L 10.703125 20.707031 C 10.507813 20.90625 10.257813 21 10 21 C 9.742188 21 9.492188 20.90625 9.296875 20.707031 L 9.292969 20.707031 C 8.894531 20.308594 8.894531 19.691406 9.292969 19.292969 L 10.292969 18.292969 C 10.492188 18.09375 10.746094 17.996094 11 17.996094 Z M 14 20.996094 C 14.253906 20.996094 14.507813 21.09375 14.707031 21.292969 C 15.105469 21.691406 15.105469 22.308594 14.707031 22.707031 L 13.707031 23.707031 L 13.703125 23.707031 C 13.507813 23.90625 13.257813 24 13 24 C 12.742188 24 12.492188 23.90625 12.296875 23.707031 L 12.292969 23.707031 C 11.894531 23.308594 11.894531 22.691406 12.292969 22.292969 L 13.292969 21.292969 C 13.492188 21.09375 13.746094 20.996094 14 20.996094 Z M 17 23.996094 C 17.253906 23.996094 17.507813 24.09375 17.707031 24.292969 C 18.105469 24.691406 18.105469 25.308594 17.707031 25.707031 L 16.707031 26.707031 L 16.703125 26.707031 C 16.507813 26.90625 16.257813 27 16 27 C 15.742188 27 15.492188 26.90625 15.296875 26.707031 L 15.292969 26.707031 C 14.894531 26.308594 14.894531 25.691406 15.292969 25.292969 L 16.292969 24.292969 C 16.492188 24.09375 16.746094 23.996094 17 23.996094 Z "></path>
</g>
</svg>
