<?xml version="1.0" encoding="UTF-8"?>
<svg xmlns="http://www.w3.org/2000/svg" xmlns:xlink="http://www.w3.org/1999/xlink" viewBox="0 0 32 32" version="1.1">
<g>
<path d="M 5 5 L 5 11 L 7 11 L 7 7 L 11 7 L 11 5 Z M 21 5 L 21 7 L 25 7 L 25 11 L 27 11 L 27 5 Z M 20 10 C 18.199219 10 16.84375 10.863281 16.125 12.03125 C 15.460938 13.101563 15.226563 14.347656 15.03125 15.53125 C 15.011719 15.519531 14.988281 15.511719 14.96875 15.5 C 14.128906 14.933594 13.84375 14.46875 13.84375 14.46875 L 12.15625 15.53125 C 12.15625 15.53125 12.699219 16.386719 13.84375 17.15625 C 14.082031 17.316406 14.359375 17.472656 14.65625 17.625 C 14.539063 18.183594 14.410156 18.660156 14.25 19.03125 C 14.09375 19.394531 13.933594 19.644531 13.75 19.78125 C 13.566406 19.917969 13.351563 20 12.9375 20 C 12.238281 20 12.160156 19.890625 12.125 19.84375 C 12.089844 19.796875 12 19.515625 12 19 L 10 19 C 10 19.644531 10.027344 20.367188 10.53125 21.03125 C 11.035156 21.695313 11.914063 22 12.9375 22 C 13.703125 22 14.429688 21.785156 14.96875 21.375 C 15.507813 20.964844 15.847656 20.417969 16.09375 19.84375 C 16.304688 19.355469 16.445313 18.839844 16.5625 18.3125 C 17.070313 18.441406 17.640625 18.539063 18.25 18.59375 C 18.445313 19.480469 18.777344 20.242188 19.1875 20.84375 C 19.597656 21.445313 20.136719 22 21 22 L 21 20 C 21.195313 20 21.03125 20.039063 20.8125 19.71875 C 20.59375 19.398438 20.371094 18.839844 20.21875 18.15625 C 19.917969 16.789063 19.96875 14.925781 20.8125 13.09375 L 18.96875 12.25 C 18.289063 13.726563 18.027344 15.214844 18.03125 16.5625 C 17.617188 16.511719 17.246094 16.4375 16.90625 16.34375 C 16.917969 16.28125 16.925781 16.21875 16.9375 16.15625 C 17.140625 14.929688 17.40625 13.800781 17.84375 13.09375 C 18.28125 12.386719 18.746094 12 20 12 Z M 5 21 L 5 27 L 11 27 L 11 25 L 7 25 L 7 21 Z M 25 21 L 25 25 L 21 25 L 21 27 L 27 27 L 27 21 Z "></path>
</g>
</svg>
