<?xml version="1.0" encoding="UTF-8"?>
<svg xmlns="http://www.w3.org/2000/svg" xmlns:xlink="http://www.w3.org/1999/xlink" viewBox="0 0 32 32" version="1.1">
<g>
<path d="M 13.3125 4.0625 L 13 4.46875 C 13 4.46875 11 7.3125 11 11.46875 C 11 13.753906 11.691406 15.222656 12.625 16.0625 C 13.558594 16.902344 14.609375 17.0625 15.15625 17.0625 C 16.351563 17.0625 17.183594 16.445313 17.875 16.15625 L 17.125 14.3125 C 16.226563 14.6875 15.511719 15.0625 15.15625 15.0625 C 14.949219 15.0625 14.417969 14.996094 13.96875 14.59375 C 13.519531 14.191406 13 13.375 13 11.46875 C 13 8.535156 13.992188 6.773438 14.375 6.15625 C 15.609375 6.601563 17.050781 6.859375 18.375 7.4375 C 19.15625 7.777344 19.796875 8.230469 20.25 8.78125 C 20.703125 9.332031 21 9.996094 21 11.03125 C 21 12.019531 20.621094 12.5 20.25 12.84375 C 20.1875 12.902344 20.152344 12.921875 20.09375 12.96875 C 19.550781 11.726563 18.675781 10.515625 17.3125 9.4375 L 16.09375 11.03125 C 19.15625 13.453125 19 16.320313 19 19.0625 L 21 19.0625 C 21 17.882813 20.992188 16.445313 20.6875 14.96875 C 20.957031 14.828125 21.292969 14.617188 21.625 14.3125 C 22.316406 13.679688 23 12.578125 23 11.03125 C 23 9.59375 22.542969 8.386719 21.8125 7.5 C 21.082031 6.613281 20.113281 6.042969 19.15625 5.625 C 17.238281 4.789063 15.128906 4.449219 14.53125 4.15625 L 14.3125 4.0625 Z M 10.5 19.0625 C 9.472656 19.066406 8.6875 19.3125 8.6875 19.3125 L 8.65625 19.34375 L 3.90625 21.15625 L 3 21.5 L 3.34375 22.40625 L 4.65625 26.09375 L 5 27.0625 L 5.9375 26.71875 L 9.9375 25.1875 L 16.625 28.875 L 17.0625 29.09375 L 17.5 28.9375 L 29.375 24 L 28.625 22.15625 L 17.15625 26.875 L 10.46875 23.21875 L 10.0625 22.96875 L 9.65625 23.15625 L 6.1875 24.46875 L 5.5625 22.6875 L 9.34375 21.21875 C 9.34375 21.21875 9.828125 21.0625 10.53125 21.0625 C 11.234375 21.0625 12.046875 21.210938 12.75 21.84375 C 13.78125 22.738281 14.574219 23.378906 15.65625 23.71875 C 16.738281 24.058594 17.949219 24.101563 20 24.09375 L 20 22.09375 C 17.988281 22.101563 16.9375 22.027344 16.25 21.8125 C 15.570313 21.597656 15.078125 21.195313 14.09375 20.34375 C 14.085938 20.335938 14.070313 20.351563 14.0625 20.34375 C 12.90625 19.3125 11.519531 19.058594 10.5 19.0625 Z "></path>
</g>
</svg>
