<?xml version="1.0" encoding="UTF-8"?>
<svg xmlns="http://www.w3.org/2000/svg" xmlns:xlink="http://www.w3.org/1999/xlink" viewBox="0 0 32 32" version="1.1">
<g>
<path d="M 16 7 C 14.355469 7 13 8.355469 13 10 L 15 10 C 15 9.433594 15.433594 9 16 9 C 16.566406 9 17 9.433594 17 10 C 17 10.394531 16.789063 10.710938 16.46875 10.875 C 15.476563 11.386719 15 12.445313 15 13.4375 L 15 14.40625 L 0.53125 22.125 L 0 22.40625 L 0 25 L 32 25 L 32 22.40625 L 31.46875 22.125 L 17 14.40625 L 17 13.4375 C 17 13.082031 17.171875 12.761719 17.375 12.65625 C 18.339844 12.15625 19 11.152344 19 10 C 19 8.355469 17.644531 7 16 7 Z M 16 16.125 L 28.875 23 L 3.125 23 Z "></path>
</g>
</svg>
