<?xml version="1.0" encoding="UTF-8"?>
<svg xmlns="http://www.w3.org/2000/svg" xmlns:xlink="http://www.w3.org/1999/xlink" viewBox="0 0 32 32" version="1.1">
<g>
<path d="M 9.125 3 C 7.398438 3 6 4.457031 6 6.1875 L 6 26 L 7 26 L 7 29 L 25 29 L 25 26 L 26 26 L 26 6.1875 C 26 4.457031 24.601563 3 22.875 3 Z M 9.125 5 L 22.875 5 C 23.488281 5 24 5.507813 24 6.1875 L 24 24 L 8 24 L 8 6.1875 C 8 5.507813 8.511719 5 9.125 5 Z M 9 6 L 9 19 L 23 19 L 23 6 Z M 11 8 L 21 8 L 21 17 L 11 17 Z M 12 9 L 12 11 L 14 11 L 14 9 Z M 15 9 L 15 13 L 17 13 L 17 9 Z M 18 9 L 18 11 L 20 11 L 20 9 Z M 13 14 C 13 14.464844 13.125 14.96875 13.46875 15.375 C 13.8125 15.78125 14.355469 16 14.875 16 L 17 16 C 17.519531 16 18.058594 15.808594 18.4375 15.4375 C 18.816406 15.066406 19 14.53125 19 14 Z M 10 21 L 10 23 L 12 23 L 12 21 Z M 18 21 L 18 23 L 22 23 L 22 21 Z M 9 26 L 23 26 L 23 27 L 9 27 Z "></path>
</g>
</svg>
