<?xml version="1.0" encoding="UTF-8"?>
<svg xmlns="http://www.w3.org/2000/svg" xmlns:xlink="http://www.w3.org/1999/xlink" viewBox="0 0 32 32" version="1.1">
<g>
<path d="M 8.71875 8 C 7.863281 8 7.082031 8.5625 6.8125 9.375 L 6.28125 11 L 5 11 C 3.90625 11 3 11.90625 3 13 L 3 19 C 3 20.09375 3.90625 21 5 21 L 6.28125 21 L 6.8125 22.625 C 7.082031 23.4375 7.863281 24 8.71875 24 L 23.28125 24 C 24.136719 24 24.917969 23.441406 25.1875 22.625 L 25.71875 21 L 27 21 C 28.09375 21 29 20.09375 29 19 L 29 13 C 29 11.90625 28.09375 11 27 11 L 25.71875 11 L 25.1875 9.375 C 24.917969 8.5625 24.136719 8 23.28125 8 Z M 8.71875 10 L 23.28125 10 L 23.625 11 L 8.375 11 Z M 5 13 L 27 13 L 27 19 L 5 19 Z M 7 14 L 7 18 L 9 18 L 9 14 Z M 11 14 L 11 18 L 13 18 L 13 14 Z M 15 14 L 15 18 L 17 18 L 17 14 Z M 19 14 L 19 18 L 21 18 L 21 14 Z M 23 14 L 23 18 L 25 18 L 25 14 Z M 8.375 21 L 23.625 21 L 23.28125 22 L 8.71875 22 Z "></path>
</g>
</svg>
