<?xml version="1.0" encoding="UTF-8"?>
<svg xmlns="http://www.w3.org/2000/svg" xmlns:xlink="http://www.w3.org/1999/xlink" viewBox="0 0 32 32" version="1.1">
<g>
<path d="M 16 5 C 13.722656 5 11.65625 5.234375 10.09375 5.625 C 9.3125 5.820313 8.667969 6.054688 8.125 6.375 C 7.582031 6.695313 7 7.183594 7 8 L 7 12 C 7 12.816406 7.582031 13.304688 8.125 13.625 C 8.667969 13.945313 9.3125 14.179688 10.09375 14.375 C 10.929688 14.585938 11.921875 14.765625 13 14.875 L 13 21 L 19 21 L 19 14.875 C 20.078125 14.765625 21.070313 14.585938 21.90625 14.375 C 22.6875 14.179688 23.332031 13.945313 23.875 13.625 C 24.417969 13.304688 25 12.816406 25 12 L 25 8 C 25 7.183594 24.417969 6.695313 23.875 6.375 C 23.332031 6.054688 22.6875 5.820313 21.90625 5.625 C 20.34375 5.234375 18.277344 5 16 5 Z M 16 7 C 18.140625 7 20.074219 7.230469 21.40625 7.5625 C 21.957031 7.699219 22.335938 7.859375 22.625 8 C 22.335938 8.140625 21.957031 8.300781 21.40625 8.4375 C 20.074219 8.769531 18.140625 9 16 9 C 13.859375 9 11.925781 8.769531 10.59375 8.4375 C 10.042969 8.300781 9.664063 8.140625 9.375 8 C 9.664063 7.859375 10.042969 7.699219 10.59375 7.5625 C 11.925781 7.230469 13.859375 7 16 7 Z M 9 10.03125 C 9.335938 10.160156 9.691406 10.273438 10.09375 10.375 C 11.65625 10.765625 13.722656 11 16 11 C 18.277344 11 20.34375 10.765625 21.90625 10.375 C 22.308594 10.273438 22.664063 10.160156 23 10.03125 L 23 11.8125 C 22.988281 11.820313 22.980469 11.84375 22.875 11.90625 C 22.609375 12.0625 22.070313 12.269531 21.40625 12.4375 C 20.074219 12.769531 18.140625 13 16 13 C 13.859375 13 11.925781 12.769531 10.59375 12.4375 C 9.929688 12.269531 9.390625 12.0625 9.125 11.90625 C 9.019531 11.84375 9.011719 11.820313 9 11.8125 Z M 15 14.96875 C 15.332031 14.980469 15.65625 15 16 15 C 16.34375 15 16.667969 14.980469 17 14.96875 L 17 19 L 15 19 Z M 12 17 C 10.378906 17 8.96875 17.976563 8.34375 19.375 C 7.75 18.917969 7.15625 18.550781 6.5625 18.3125 C 6.0625 18.113281 5.570313 17.996094 5.0625 18 C 4.554688 18.003906 3.976563 18.148438 3.5625 18.5625 C 3.148438 18.976563 3.003906 19.554688 3 20.0625 C 2.996094 20.570313 3.113281 21.0625 3.3125 21.5625 C 3.714844 22.566406 4.46875 23.59375 5.4375 24.5625 C 6.40625 25.53125 7.433594 26.285156 8.4375 26.6875 C 8.9375 26.886719 9.429688 27.003906 9.9375 27 C 10.445313 26.996094 11.023438 26.851563 11.4375 26.4375 C 11.851563 26.023438 11.996094 25.445313 12 24.9375 C 12.003906 24.429688 11.886719 23.9375 11.6875 23.4375 C 11.351563 22.59375 10.757813 21.738281 10 20.90625 C 10.046875 19.835938 10.914063 19 12 19 Z M 20 17 L 20 19 C 21.085938 19 21.953125 19.835938 22 20.90625 C 21.242188 21.738281 20.648438 22.59375 20.3125 23.4375 C 20.113281 23.9375 19.996094 24.429688 20 24.9375 C 20.003906 25.445313 20.148438 26.023438 20.5625 26.4375 C 20.976563 26.851563 21.554688 26.996094 22.0625 27 C 22.570313 27.003906 23.0625 26.886719 23.5625 26.6875 C 24.566406 26.285156 25.59375 25.53125 26.5625 24.5625 C 27.53125 23.59375 28.285156 22.566406 28.6875 21.5625 C 28.886719 21.0625 29.003906 20.570313 29 20.0625 C 28.996094 19.554688 28.851563 18.976563 28.4375 18.5625 C 28.023438 18.148438 27.445313 18.003906 26.9375 18 C 26.429688 17.996094 25.9375 18.113281 25.4375 18.3125 C 24.84375 18.550781 24.25 18.917969 23.65625 19.375 C 23.03125 17.976563 21.621094 17 20 17 Z M 5 20 C 5.019531 20 5.039063 20 5.09375 20 C 5.238281 20 5.511719 20.054688 5.84375 20.1875 C 6.503906 20.453125 7.351563 21.039063 8.15625 21.84375 C 8.960938 22.648438 9.546875 23.496094 9.8125 24.15625 C 9.945313 24.488281 10 24.761719 10 24.90625 C 10 24.960938 10 24.980469 10 25 C 9.980469 25 9.960938 25 9.90625 25 C 9.761719 25 9.488281 24.945313 9.15625 24.8125 C 8.496094 24.546875 7.648438 23.960938 6.84375 23.15625 C 6.039063 22.351563 5.453125 21.503906 5.1875 20.84375 C 5.054688 20.511719 5 20.238281 5 20.09375 C 5 20.039063 5 20.019531 5 20 Z M 26.90625 20 C 26.960938 20 26.980469 20 27 20 C 27 20.019531 27 20.039063 27 20.09375 C 27 20.238281 26.945313 20.511719 26.8125 20.84375 C 26.546875 21.503906 25.960938 22.351563 25.15625 23.15625 C 24.351563 23.960938 23.503906 24.546875 22.84375 24.8125 C 22.511719 24.945313 22.238281 25 22.09375 25 C 22.039063 25 22.019531 25 22 25 C 22 24.980469 22 24.960938 22 24.90625 C 22 24.761719 22.054688 24.488281 22.1875 24.15625 C 22.453125 23.496094 23.039063 22.648438 23.84375 21.84375 C 24.648438 21.039063 25.496094 20.453125 26.15625 20.1875 C 26.488281 20.054688 26.761719 20 26.90625 20 Z "></path>
</g>
</svg>
