<?xml version="1.0" encoding="UTF-8"?>
<svg xmlns="http://www.w3.org/2000/svg" xmlns:xlink="http://www.w3.org/1999/xlink" viewBox="0 0 32 32" version="1.1">
<g>
<path d="M 6 4 L 6 6 L 10 6 L 10 4 Z M 13.78125 6 C 12.542969 6 11.714844 6.777344 11.1875 7.28125 C 10.660156 7.785156 10.421875 8 10 8 L 10 10 C 10.371094 10 10.703125 9.925781 11 9.8125 L 11 25 C 11.199219 24.976563 11.539063 24.882813 12 24.71875 L 12 9.21875 C 12.214844 9.042969 12.402344 8.871094 12.5625 8.71875 C 12.746094 8.542969 12.863281 8.453125 13 8.34375 L 13 24.3125 C 13.308594 24.175781 13.644531 24.019531 14 23.84375 L 14 8.0625 C 14.171875 8.105469 14.347656 8.171875 14.59375 8.375 C 14.71875 8.476563 14.863281 8.609375 15 8.75 L 15 23.3125 C 15.324219 23.136719 15.65625 22.957031 16 22.75 L 16 9.96875 C 16.320313 10.40625 16.636719 10.847656 17 11.28125 L 17 22.125 C 17.328125 21.90625 17.664063 21.679688 18 21.4375 L 18 12.28125 C 18.171875 12.410156 18.367188 12.523438 18.5625 12.625 C 18.707031 12.699219 18.855469 12.761719 19 12.8125 L 19 20.65625 C 19.320313 20.398438 19.65625 20.121094 20 19.8125 L 20 12.96875 C 20.34375 12.976563 20.675781 12.9375 21 12.875 L 21 18.875 C 21.347656 18.519531 21.683594 18.144531 22 17.75 L 22 12.625 C 22.007813 12.621094 22.023438 12.628906 22.03125 12.625 C 22.398438 12.507813 22.703125 12.414063 23 12.3125 L 23 16.28125 C 23.601563 15.246094 24 14.144531 24 13 L 24 12 C 24.363281 12 25 12.609375 25 13 C 25 16.265625 22.167969 19.605469 18.84375 22.0625 C 17.179688 23.292969 15.410156 24.28125 13.9375 24.96875 C 12.464844 25.65625 11.175781 26 10.9375 26 L 9 26 L 9 7 L 7 7 L 7 28 L 10.9375 28 C 11.996094 28 13.183594 27.527344 14.78125 26.78125 C 16.378906 26.035156 18.25 24.972656 20.03125 23.65625 C 23.597656 21.019531 27 17.359375 27 13 C 27 11.324219 25.648438 10 24 10 C 23.488281 10 23.101563 10.136719 22.6875 10.28125 C 22.273438 10.425781 21.855469 10.585938 21.4375 10.71875 C 20.601563 10.980469 19.882813 11.058594 19.46875 10.84375 C 19.019531 10.609375 18.171875 9.519531 17.3125 8.40625 C 16.882813 7.851563 16.4375 7.304688 15.875 6.84375 C 15.3125 6.382813 14.613281 6 13.78125 6 Z "></path>
</g>
</svg>
