<?xml version="1.0" encoding="UTF-8"?>
<svg xmlns="http://www.w3.org/2000/svg" xmlns:xlink="http://www.w3.org/1999/xlink" viewBox="0 0 32 32" version="1.1">
<g>
<path d="M 16 5 C 13.773438 5 11.734375 5.335938 10.375 5.625 C 8.996094 5.921875 8 7.160156 8 8.5625 L 8 12.375 L 7.65625 12.5625 C 6.640625 13.070313 6 14.117188 6 15.25 L 6 18 L 4.28125 18 L 4.0625 18.6875 L 3.0625 21.6875 L 2.9375 22 L 3.0625 22.3125 L 4.0625 25.3125 L 4.28125 26 L 27.71875 26 L 27.9375 25.3125 L 28.9375 22.3125 L 29.0625 22 L 28.9375 21.6875 L 27.9375 18.6875 L 27.71875 18 L 26 18 L 26 15.25 C 26 14.414063 25.652344 13.621094 25.0625 13.0625 L 26.96875 9 L 29 9 L 29 7 L 26.96875 7 C 26.195313 7 25.484375 7.457031 25.15625 8.15625 L 24 10.65625 L 24 8.5625 C 24 7.160156 23.003906 5.917969 21.625 5.625 C 20.265625 5.335938 18.226563 5 16 5 Z M 15 7.03125 L 15 10 L 10 10 L 10 8.5625 C 10 8.082031 10.316406 7.691406 10.78125 7.59375 C 11.835938 7.367188 13.351563 7.113281 15 7.03125 Z M 17 7.03125 C 18.648438 7.113281 20.164063 7.367188 21.21875 7.59375 C 21.683594 7.691406 22 8.082031 22 8.5625 L 22 10 L 17 10 Z M 10 12 L 22 12 L 22 13.625 L 23.4375 14.34375 C 23.777344 14.515625 24 14.867188 24 15.25 L 24 18 L 8 18 L 8 15.25 C 8 14.871094 8.222656 14.515625 8.5625 14.34375 L 10 13.625 Z M 11.5 14 C 10.671875 14 10 14.671875 10 15.5 C 10 16.328125 10.671875 17 11.5 17 C 12.328125 17 13 16.328125 13 15.5 C 13 14.671875 12.328125 14 11.5 14 Z M 20.5 14 C 19.671875 14 19 14.671875 19 15.5 C 19 16.328125 19.671875 17 20.5 17 C 21.328125 17 22 16.328125 22 15.5 C 22 14.671875 21.328125 14 20.5 14 Z M 5.71875 20 L 26.28125 20 L 26.625 21 L 5.375 21 Z M 5.375 23 L 26.625 23 L 26.28125 24 L 5.71875 24 Z "></path>
</g>
</svg>
