<?xml version="1.0" encoding="UTF-8"?>
<svg xmlns="http://www.w3.org/2000/svg" xmlns:xlink="http://www.w3.org/1999/xlink" viewBox="0 0 32 32" version="1.1">
<g>
<path d="M 5 5 L 5 27 L 27 27 L 27 5 Z M 7 7 L 25 7 L 25 25 L 7 25 Z M 13 10 L 13 13 L 10 13 L 10 15 L 13 15 L 13 17 L 10 17 L 10 19 L 13 19 L 13 22 L 15 22 L 15 19 L 17 19 L 17 22 L 19 22 L 19 19 L 22 19 L 22 17 L 19 17 L 19 15 L 22 15 L 22 13 L 19 13 L 19 10 L 17 10 L 17 13 L 15 13 L 15 10 Z M 15 15 L 17 15 L 17 17 L 15 17 Z "></path>
</g>
</svg>
