<?xml version="1.0" encoding="UTF-8"?>
<svg xmlns="http://www.w3.org/2000/svg" xmlns:xlink="http://www.w3.org/1999/xlink" viewBox="0 0 32 32" version="1.1">
<g>
<path d="M 3 7 L 3 12 L 8 12 L 8 7 Z M 10 7 L 10 12 L 15 12 L 15 7 Z M 17 7 L 17 12 L 22 12 L 22 7 Z M 24 7 L 24 12 L 29 12 L 29 7 Z M 5 9 L 6 9 L 6 10 L 5 10 Z M 12 9 L 13 9 L 13 10 L 12 10 Z M 19 9 L 20 9 L 20 10 L 19 10 Z M 26 9 L 27 9 L 27 10 L 26 10 Z M 3 14 L 3 19 L 8 19 L 8 14 Z M 10 14 L 10 19 L 15 19 L 15 14 Z M 17 14 L 17 19 L 17.78125 19 C 16.679688 20.371094 16 22.113281 16 24 C 16 28.40625 19.59375 32 24 32 C 28.40625 32 32 28.40625 32 24 C 32 21.480469 30.828125 19.25 29 17.78125 L 29 14 L 24 14 L 24 16 C 23.304688 16 22.644531 16.113281 22 16.28125 L 22 14 Z M 5 16 L 6 16 L 6 17 L 5 17 Z M 12 16 L 13 16 L 13 17 L 12 17 Z M 19 16 L 20 16 L 20 17 L 19 17 Z M 26 16 L 27 16 L 27 16.59375 C 26.675781 16.460938 26.34375 16.371094 26 16.28125 Z M 24 18 C 27.324219 18 30 20.675781 30 24 C 30 27.324219 27.324219 30 24 30 C 20.675781 30 18 27.324219 18 24 C 18 20.675781 20.675781 18 24 18 Z M 21 20 L 21 21 L 20 21 L 20 23 L 21 23 L 21 25 L 20 25 L 20 27 L 21 27 L 21 28 L 23 28 L 23 27 L 25 27 L 25 28 L 27 28 L 27 27 L 28 27 L 28 25 L 27 25 L 27 23 L 28 23 L 28 21 L 27 21 L 27 20 L 25 20 L 25 21 L 23 21 L 23 20 Z M 3 21 L 3 26 L 8 26 L 8 21 Z M 10 21 L 10 26 L 15 26 L 15 21 Z M 5 23 L 6 23 L 6 24 L 5 24 Z M 12 23 L 13 23 L 13 24 L 12 24 Z M 23 23 L 25 23 L 25 25 L 23 25 Z "></path>
</g>
</svg>
