<?xml version="1.0" encoding="UTF-8"?>
<svg xmlns="http://www.w3.org/2000/svg" xmlns:xlink="http://www.w3.org/1999/xlink" viewBox="0 0 32 32" version="1.1">
<g>
<path d="M 5 5 L 5 27 L 16.59375 27 C 17.789063 29.917969 20.660156 32 24 32 C 28.40625 32 32 28.40625 32 24 C 32 20.660156 29.917969 17.789063 27 16.59375 L 27 5 Z M 7 7 L 10 7 L 10 10 L 7 10 Z M 12 7 L 15 7 L 15 10 L 12 10 Z M 17 7 L 20 7 L 20 10 L 17 10 Z M 22 7 L 25 7 L 25 10 L 22 10 Z M 7 12 L 10 12 L 10 15 L 7 15 Z M 12 12 L 15 12 L 15 15 L 12 15 Z M 17 12 L 20 12 L 20 15 L 17 15 Z M 22 12 L 25 12 L 25 15 L 22 15 Z M 7 17 L 10 17 L 10 20 L 7 20 Z M 12 17 L 15 17 L 15 20 L 12 20 Z M 17 17 L 20 17 L 20 17.09375 C 18.792969 17.796875 17.796875 18.792969 17.09375 20 L 17 20 Z M 24 18 C 27.324219 18 30 20.675781 30 24 C 30 27.324219 27.324219 30 24 30 C 20.675781 30 18 27.324219 18 24 C 18 20.675781 20.675781 18 24 18 Z M 21 20 L 21 21 L 20 21 L 20 23 L 21 23 L 21 25 L 20 25 L 20 27 L 21 27 L 21 28 L 23 28 L 23 27 L 25 27 L 25 28 L 27 28 L 27 27 L 28 27 L 28 25 L 27 25 L 27 23 L 28 23 L 28 21 L 27 21 L 27 20 L 25 20 L 25 21 L 23 21 L 23 20 Z M 7 22 L 10 22 L 10 25 L 7 25 Z M 12 22 L 15 22 L 15 25 L 12 25 Z M 23 23 L 25 23 L 25 25 L 23 25 Z "></path>
</g>
</svg>
