<?xml version="1.0" encoding="UTF-8"?>
<svg xmlns="http://www.w3.org/2000/svg" xmlns:xlink="http://www.w3.org/1999/xlink" viewBox="0 0 32 32" version="1.1">
<g>
<path d="M 21.09375 2 L 16.0625 7.03125 L 17.28125 8.25 L 0.75 25.59375 C -0.191406 26.558594 -0.261719 28.101563 0.625 29.125 C 1.609375 30.261719 3.40625 30.34375 4.46875 29.28125 L 4.46875 29.25 L 20.96875 11.9375 L 21.15625 12.125 C 23.625 14.59375 24.09375 17.03125 24.09375 17.03125 L 24.28125 18.03125 L 25.28125 17.84375 C 25.28125 17.84375 27.386719 17.363281 29.375 15.375 C 31.332031 13.417969 31.84375 11.5625 31.84375 11.5625 L 32.0625 10.625 L 31.125 10.375 C 31.125 10.375 28.773438 9.679688 26.15625 7.0625 C 26.054688 6.960938 26.097656 7.003906 26 6.90625 L 26.46875 6.40625 L 27.1875 5.71875 L 23.5 2.03125 L 22.3125 3.21875 C 22.273438 3.179688 21.8125 2.71875 21.8125 2.71875 Z M 21.09375 4.875 C 21.519531 5.300781 22.402344 6.183594 24.71875 8.5 C 26.84375 10.625 28.558594 11.429688 29.5625 11.84375 C 29.304688 12.359375 28.859375 13.078125 27.96875 13.96875 C 27.058594 14.878906 26.273438 15.308594 25.6875 15.5625 C 25.339844 14.492188 24.636719 12.761719 22.59375 10.71875 L 18.90625 7.03125 Z M 18.71875 9.6875 L 19.5625 10.53125 L 3.03125 27.84375 C 2.769531 28.105469 2.398438 28.089844 2.15625 27.8125 C 1.941406 27.5625 1.953125 27.234375 2.1875 27 L 2.1875 26.96875 Z "></path>
</g>
</svg>
