<?xml version="1.0" encoding="UTF-8"?>
<svg xmlns="http://www.w3.org/2000/svg" xmlns:xlink="http://www.w3.org/1999/xlink" viewBox="0 0 32 32" version="1.1">
<g>
<path d="M 8.9375 5 C 6.773438 5 5 6.773438 5 8.9375 L 5 23.0625 C 5 25.226563 6.773438 27 8.9375 27 L 23.0625 27 C 25.226563 27 27 25.226563 27 23.0625 L 27 8.9375 C 27 6.773438 25.226563 5 23.0625 5 Z M 8.9375 7 L 23.0625 7 C 24.144531 7 25 7.855469 25 8.9375 L 25 23.0625 C 25 24.144531 24.144531 25 23.0625 25 L 8.9375 25 C 7.855469 25 7 24.144531 7 23.0625 L 7 8.9375 C 7 7.855469 7.855469 7 8.9375 7 Z M 18.9375 11.59375 L 18.9375 17.46875 L 21 17.46875 L 21 11.59375 Z M 10.71875 11.625 L 10.71875 20.375 L 13.1875 20.375 C 14.179688 20.375 14.875 20.347656 15.3125 20.28125 C 15.75 20.210938 16.140625 20.097656 16.4375 19.9375 C 16.804688 19.742188 17.054688 19.449219 17.25 19.09375 C 17.445313 18.738281 17.5625 18.34375 17.5625 17.875 C 17.5625 17.226563 17.382813 16.699219 17.03125 16.3125 C 16.683594 15.921875 16.214844 15.703125 15.59375 15.65625 C 16.148438 15.503906 16.527344 15.296875 16.78125 15 C 17.035156 14.710938 17.15625 14.308594 17.15625 13.8125 C 17.15625 13.417969 17.070313 13.082031 16.90625 12.78125 C 16.734375 12.480469 16.507813 12.242188 16.1875 12.0625 C 15.90625 11.90625 15.546875 11.785156 15.15625 11.71875 C 14.761719 11.65625 14.078125 11.625 13.09375 11.625 Z M 12.90625 13.5625 L 13.4375 13.5625 C 14.027344 13.5625 14.421875 13.648438 14.625 13.78125 C 14.828125 13.914063 14.9375 14.140625 14.9375 14.46875 C 14.9375 14.785156 14.8125 14.996094 14.59375 15.125 C 14.375 15.253906 13.992188 15.3125 13.40625 15.3125 L 12.90625 15.3125 Z M 12.90625 16.875 L 13.78125 16.875 C 14.359375 16.875 14.757813 16.949219 14.96875 17.09375 C 15.183594 17.238281 15.3125 17.507813 15.3125 17.875 C 15.3125 18.207031 15.171875 18.453125 14.9375 18.59375 C 14.703125 18.738281 14.3125 18.78125 13.75 18.78125 L 12.90625 18.78125 Z M 19.96875 18.0625 C 19.320313 18.0625 18.78125 18.601563 18.78125 19.25 C 18.78125 19.898438 19.320313 20.40625 19.96875 20.40625 C 20.617188 20.40625 21.15625 19.898438 21.15625 19.25 C 21.15625 18.601563 20.617188 18.0625 19.96875 18.0625 Z "></path>
</g>
</svg>
