<?xml version="1.0" encoding="UTF-8"?>
<svg xmlns="http://www.w3.org/2000/svg" xmlns:xlink="http://www.w3.org/1999/xlink" viewBox="0 0 32 32" version="1.1">
<g>
<path d="M 18 5 C 18 5 14.3125 7.800781 14.8125 14 L 17.3125 14 C 16.710938 11.199219 18 5 18 5 Z M 23 5 C 23 5 17.59375 6.5 17.59375 14 L 20 14 C 20 8.101563 23 5 23 5 Z M 13 6 C 13 6 13.398438 6.988281 13.5 8.1875 C 14.101563 8.789063 14.3125 9.3125 14.3125 9.3125 C 14.3125 9.3125 14.414063 8.605469 14.8125 7.90625 C 14.511719 7.007813 13.601563 6.199219 13 6 Z M 9 6.6875 C 9 6.6875 12 8.101563 12 14 L 14.3125 14 C 14.3125 6.800781 9 6.6875 9 6.6875 Z M 25 7 C 22.898438 7.300781 20.699219 10.601563 20.5 14 L 23 14 C 23 10.199219 25 7 25 7 Z M 6 8 C 6 8 9 10.199219 9 14 L 11.5 14 C 10.398438 9.800781 8.101563 8.300781 6 8 Z M 9 15 L 9 17 L 23 17 L 23 15 Z M 9 18 C 9 19.996094 7.992188 21.175781 6.90625 21.96875 C 5.820313 22.761719 4.75 23.03125 4.75 23.03125 L 5.25 24.96875 C 5.25 24.96875 6.679688 24.59375 8.09375 23.5625 C 8.964844 22.929688 9.875 22.003906 10.4375 20.75 C 9.507813 23.226563 7.75 25.34375 7.75 25.34375 L 9.25 26.65625 C 9.25 26.65625 12.53125 23.105469 12.96875 18.90625 C 12.75 22.433594 11.375 26.375 11.375 26.375 L 13.25 27.03125 C 13.25 27.03125 15 22.285156 15 18 Z M 15 18 L 15 27 L 17 27 L 17 18 Z M 17 18 C 17 22.285156 18.75 27.03125 18.75 27.03125 L 20.625 26.375 C 20.625 26.375 19.25 22.433594 19.03125 18.90625 C 19.46875 23.105469 22.75 26.65625 22.75 26.65625 L 24.25 25.34375 C 24.25 25.34375 22.453125 23.175781 21.53125 20.65625 C 22.074219 21.941406 22.953125 22.914063 23.8125 23.5625 C 25.183594 24.597656 26.5625 24.96875 26.5625 24.96875 L 27.09375 23.03125 C 27.09375 23.03125 26.074219 22.757813 25.03125 21.96875 C 23.988281 21.179688 23 20.007813 23 18 Z "></path>
</g>
</svg>
