<?xml version="1.0" encoding="UTF-8"?>
<svg xmlns="http://www.w3.org/2000/svg" xmlns:xlink="http://www.w3.org/1999/xlink" viewBox="0 0 32 32" version="1.1">
<g>
<path d="M 15.0625 4 C 14.925781 4.007813 14.839844 4.027344 14.8125 4.03125 C 14.703125 4.050781 4 6.046875 4 18 C 4 19.773438 4.203125 21.28125 4.375 22.5 C 4.683594 24.6875 4.8125 25.78125 4 26.59375 L 5.40625 28 C 6.242188 27.164063 7.566406 27.308594 9.84375 27.625 C 11.070313 27.796875 12.460938 28 14 28 C 26.019531 28 27.972656 17.265625 28 17.09375 C 28.003906 17.058594 28.019531 16.835938 28 16.46875 C 28 16.457031 28 16.449219 28 16.4375 C 27.917969 15.09375 27.324219 11.882813 23.71875 8.28125 C 19.550781 4.113281 16.011719 3.957031 15.0625 4 Z M 15.5625 6 C 16.558594 6.070313 19.144531 6.582031 22.28125 9.71875 C 25.414063 12.851563 25.925781 15.472656 26 16.4375 C 26 17.304688 25.304688 18 24.4375 18 C 23.574219 18 22.871094 17.292969 22.875 16.4375 L 22.875 16.3125 L 20.9375 15.9375 C 20.742188 16.574219 20.15625 17 19.5 17 C 18.671875 17 18 16.328125 18 15.5 C 18 15.398438 18 15.289063 18.03125 15.15625 L 16.84375 13.96875 C 16.710938 14 16.601563 14 16.5 14 C 15.671875 14 15 13.328125 15 12.5 C 15 11.828125 15.441406 11.238281 16.09375 11.0625 L 15.75 9.09375 L 15.5625 9.125 C 14.703125 9.125 14 8.425781 14 7.5625 C 14 6.699219 14.703125 6 15.5625 6 Z M 12.03125 7.15625 C 12.015625 7.292969 12 7.421875 12 7.5625 C 12 8.804688 12.625 9.894531 13.59375 10.53125 C 13.207031 11.09375 13 11.78125 13 12.5 C 13 14.269531 14.320313 15.738281 16.03125 15.96875 C 16.261719 17.679688 17.730469 19 19.5 19 C 20.21875 19 20.90625 18.789063 21.46875 18.40625 C 22.109375 19.367188 23.195313 20 24.4375 20 C 24.585938 20 24.730469 19.988281 24.875 19.96875 C 23.457031 22.628906 20.390625 26 14 26 C 12.601563 26 11.285156 25.816406 10.125 25.65625 C 9.128906 25.515625 8.183594 25.375 7.3125 25.375 C 7.0625 25.375 6.832031 25.382813 6.59375 25.40625 C 6.6875 24.429688 6.535156 23.363281 6.375 22.21875 C 6.203125 21 6 19.632813 6 18 C 6 11.636719 9.382813 8.582031 12.03125 7.15625 Z M 19.53125 9 C 19.355469 8.984375 19.21875 9.03125 19.125 9.125 C 18.757813 9.492188 19.300781 10.613281 20.34375 11.65625 C 21.386719 12.699219 22.507813 13.242188 22.875 12.875 C 23.242188 12.507813 22.699219 11.386719 21.65625 10.34375 C 20.875 9.5625 20.058594 9.046875 19.53125 9 Z "></path>
</g>
</svg>
