<?xml version="1.0" encoding="UTF-8"?>
<svg xmlns="http://www.w3.org/2000/svg" xmlns:xlink="http://www.w3.org/1999/xlink" viewBox="0 0 32 32" version="1.1">
<g>
<path d="M 22.03125 6 C 20.691406 6 19.597656 6.402344 18.75 6.96875 C 18.046875 6.429688 17.214844 6.15625 16.375 6.15625 L 4 6.15625 L 4 17.96875 L 7.15625 17.96875 C 6.269531 19 5.71875 20.316406 5.71875 21.78125 C 5.71875 25.023438 8.382813 27.6875 11.625 27.6875 C 13.367188 27.6875 14.921875 26.929688 16 25.71875 C 17.078125 26.925781 18.632813 27.6875 20.375 27.6875 C 23.617188 27.6875 26.28125 25.023438 26.28125 21.78125 C 26.28125 20.085938 25.527344 18.574219 24.375 17.5 C 25.066406 17.199219 25.699219 16.773438 26.25 16.21875 C 27.371094 15.082031 28 13.589844 28 12 C 28 8.707031 25.324219 6 22.03125 6 Z M 22.03125 8 C 24.222656 8 26 9.761719 26 12 C 26 14.191406 24.222656 16 22.03125 16 C 19.84375 16 18.75 14.417969 18.4375 13.78125 C 18.4375 14.792969 17.488281 15.96875 16.125 15.96875 L 12.71875 15.96875 L 12.71875 8.125 L 16.34375 8.125 C 17.46875 8.128906 18.441406 9.304688 18.4375 10.28125 C 18.714844 9.628906 19.84375 8 22.03125 8 Z M 6 8.125 L 8.1875 8.125 L 8.1875 11.0625 L 9.5625 11.0625 L 9.5625 8.125 L 11.6875 8.125 L 11.6875 15.90625 C 11.667969 15.90625 11.644531 15.90625 11.625 15.90625 C 11.355469 15.90625 11.074219 15.933594 10.8125 15.96875 L 9.5625 15.96875 L 9.5625 12.9375 L 8.1875 12.9375 L 8.1875 15.96875 L 6 15.96875 Z M 14.75 9.875 L 14.75 11.21875 L 15.84375 11.21875 C 16.15625 11.21875 16.40625 10.882813 16.40625 10.53125 C 16.40625 10.179688 16.15625 9.875 15.84375 9.875 Z M 22.03125 10.40625 C 21.160156 10.40625 20.4375 11.128906 20.4375 12 C 20.4375 12.871094 21.160156 13.5625 22.03125 13.5625 C 22.902344 13.5625 23.59375 12.871094 23.59375 12 C 23.59375 11.128906 22.902344 10.40625 22.03125 10.40625 Z M 18.0625 11.5 C 17.917969 11.679688 17.496094 11.96875 17.25 12 C 17.5 12.03125 17.898438 12.339844 18.0625 12.59375 C 18.003906 12.371094 18.011719 11.722656 18.0625 11.5 Z M 14.75 12.8125 L 14.75 14.125 L 15.84375 14.125 C 16.15625 14.125 16.375 13.820313 16.375 13.46875 C 16.375 13.117188 16.15625 12.8125 15.84375 12.8125 Z M 20.375 17.90625 C 22.519531 17.90625 24.28125 19.636719 24.28125 21.78125 C 24.28125 23.925781 22.519531 25.6875 20.375 25.6875 C 18.230469 25.6875 16.5 23.925781 16.5 21.78125 C 16.5 19.636719 18.230469 17.90625 20.375 17.90625 Z M 11.09375 17.96875 L 12.25 17.96875 C 13.6875 18.203125 14.867188 19.238281 15.3125 20.59375 L 13.28125 20.59375 C 13.28125 20.59375 12.804688 19.625 11.5 19.625 C 11.5 19.625 10.441406 19.683594 10.03125 20.40625 C 10.03125 20.40625 9.132813 21.5625 10.03125 23.125 C 10.03125 23.125 10.550781 24.011719 11.625 24.03125 C 11.625 24.03125 11.679688 24.03125 11.8125 24.03125 C 12.207031 24.03125 13.070313 23.898438 13.4375 22.84375 L 11.25 22.84375 L 11.25 21.375 L 15.46875 21.375 C 15.484375 21.515625 15.5 21.636719 15.5 21.78125 C 15.5 23.925781 13.769531 25.6875 11.625 25.6875 C 9.480469 25.6875 7.71875 23.925781 7.71875 21.78125 C 7.71875 19.820313 9.203125 18.230469 11.09375 17.96875 Z M 20.40625 20.3125 C 19.578125 20.3125 18.90625 20.984375 18.90625 21.8125 C 18.90625 22.640625 19.578125 23.3125 20.40625 23.3125 C 21.234375 23.3125 21.90625 22.640625 21.90625 21.8125 C 21.90625 20.984375 21.234375 20.3125 20.40625 20.3125 Z "></path>
</g>
</svg>
