<?xml version="1.0" encoding="UTF-8"?>
<svg xmlns="http://www.w3.org/2000/svg" xmlns:xlink="http://www.w3.org/1999/xlink" viewBox="0 0 32 32" version="1.1">
<g>
<path d="M 11.5 7 C 10.132813 7 9 8.132813 9 9.5 L 9 13.5 C 9 14.867188 10.132813 16 11.5 16 C 12.867188 16 14 14.867188 14 13.5 L 14 9.5 C 14 8.132813 12.867188 7 11.5 7 Z M 18.5 7 C 17.132813 7 16 8.132813 16 9.5 C 16 10.0625 16.210938 10.578125 16.53125 11 C 16.210938 11.421875 16 11.9375 16 12.5 L 16 13.5 C 16 14.867188 17.132813 16 18.5 16 C 19.867188 16 21 14.867188 21 13.5 L 21 12.5 C 21 11.9375 20.789063 11.421875 20.46875 11 C 20.789063 10.578125 21 10.0625 21 9.5 C 21 8.132813 19.867188 7 18.5 7 Z M 25.5 7 C 24.132813 7 23 8.132813 23 9.5 L 23 13.5 C 23 14.867188 24.132813 16 25.5 16 C 26.867188 16 28 14.867188 28 13.5 L 28 9.5 C 28 8.132813 26.867188 7 25.5 7 Z M 5.28125 7.1875 L 5 7.65625 C 5 7.65625 4.386719 8.664063 3.1875 9.0625 L 3.8125 10.9375 C 4.34375 10.761719 4.617188 10.457031 5 10.1875 L 5 16 L 7 16 L 7 7.1875 Z M 11.5 9 C 11.785156 9 12 9.214844 12 9.5 L 12 13.5 C 12 13.785156 11.785156 14 11.5 14 C 11.214844 14 11 13.785156 11 13.5 L 11 9.5 C 11 9.214844 11.214844 9 11.5 9 Z M 18.5 9 C 18.785156 9 19 9.214844 19 9.5 C 19 9.785156 18.785156 10 18.5 10 C 18.214844 10 18 9.785156 18 9.5 C 18 9.214844 18.214844 9 18.5 9 Z M 25.5 9 C 25.785156 9 26 9.214844 26 9.5 L 26 13.5 C 26 13.785156 25.785156 14 25.5 14 C 25.214844 14 25 13.785156 25 13.5 L 25 9.5 C 25 9.214844 25.214844 9 25.5 9 Z M 18.5 12 C 18.785156 12 19 12.214844 19 12.5 L 19 13.5 C 19 13.785156 18.785156 14 18.5 14 C 18.214844 14 18 13.785156 18 13.5 L 18 12.5 C 18 12.214844 18.214844 12 18.5 12 Z M 2 18 L 2 26 L 30 26 L 30 18 L 28 18 L 28 20 L 27 20 L 27 22 L 28 22 L 28 24 L 4 24 L 4 22 L 5 22 L 5 20 L 4 20 L 4 18 Z M 7 20 L 7 22 L 9 22 L 9 20 Z M 11 20 L 11 22 L 13 22 L 13 20 Z M 15 20 L 15 22 L 17 22 L 17 20 Z M 19 20 L 19 22 L 21 22 L 21 20 Z M 23 20 L 23 22 L 25 22 L 25 20 Z "></path>
</g>
</svg>
