<?xml version="1.0" encoding="UTF-8"?>
<svg xmlns="http://www.w3.org/2000/svg" xmlns:xlink="http://www.w3.org/1999/xlink" viewBox="0 0 32 32" version="1.1">
<g>
<path d="M 6 7 L 6 9 L 8.71875 9 C 8.199219 10.113281 7 12.84375 7 16 L 9 16 C 9 12.882813 10.90625 8.9375 10.90625 8.9375 L 11 8.75 L 11 7 Z M 15.5 7 C 14.132813 7 13 8.132813 13 9.5 L 13 10 L 15 10 L 15 9.5 C 15 9.214844 15.214844 9 15.5 9 C 15.785156 9 16 9.214844 16 9.5 L 16 10.28125 C 16 10.8125 15.78125 11.3125 15.40625 11.6875 L 13.28125 13.8125 L 13 14.125 L 13 16 L 18 16 L 18 14 L 15.9375 14 L 16.8125 13.125 C 17.5625 12.375 18 11.34375 18 10.28125 L 18 9.5 C 18 8.132813 16.867188 7 15.5 7 Z M 22.5 7 C 21.132813 7 20 8.132813 20 9.5 L 20 13.5 C 20 14.867188 21.132813 16 22.5 16 C 23.867188 16 25 14.867188 25 13.5 L 25 9.5 C 25 8.132813 23.867188 7 22.5 7 Z M 22.5 9 C 22.785156 9 23 9.214844 23 9.5 L 23 13.5 C 23 13.785156 22.785156 14 22.5 14 C 22.214844 14 22 13.785156 22 13.5 L 22 9.5 C 22 9.214844 22.214844 9 22.5 9 Z M 2 18 L 2 26 L 30 26 L 30 18 L 28 18 L 28 20 L 27 20 L 27 22 L 28 22 L 28 24 L 4 24 L 4 22 L 5 22 L 5 20 L 4 20 L 4 18 Z M 7 20 L 7 22 L 9 22 L 9 20 Z M 11 20 L 11 22 L 13 22 L 13 20 Z M 15 20 L 15 22 L 17 22 L 17 20 Z M 19 20 L 19 22 L 21 22 L 21 20 Z M 23 20 L 23 22 L 25 22 L 25 20 Z "></path>
</g>
</svg>
