<?xml version="1.0" encoding="UTF-8"?>
<svg xmlns="http://www.w3.org/2000/svg" xmlns:xlink="http://www.w3.org/1999/xlink" viewBox="0 0 32 32" version="1.1">
<g>
<path d="M 4 7 L 4 23 L 28 23 L 28 7 Z M 6 9 L 26 9 L 26 21 L 6 21 Z M 10 12 L 9 18 L 10.8125 18 L 11.1875 15.59375 L 13.5 15.59375 L 13.09375 18 L 14.8125 18 L 15.8125 12 L 14.09375 12 L 13.6875 14.09375 L 11.40625 14.09375 L 11.8125 12 Z M 17.3125 12 L 17.09375 13.40625 L 20.40625 13.40625 C 21.007813 13.40625 21.292969 13.613281 21.09375 14.3125 L 20.90625 15.59375 C 20.804688 16.195313 20.511719 16.59375 19.8125 16.59375 L 18.3125 16.59375 L 18.6875 14.09375 L 17 14.09375 L 16.3125 18 L 19.90625 18 C 21.707031 18 22.386719 17.195313 22.6875 15.59375 L 22.90625 14.3125 C 23.207031 12.613281 22.488281 12 20.6875 12 Z M 10 24 L 10 26 L 22 26 L 22 24 Z "></path>
</g>
</svg>
