<?xml version="1.0" encoding="UTF-8"?>
<svg xmlns="http://www.w3.org/2000/svg" xmlns:xlink="http://www.w3.org/1999/xlink" viewBox="0 0 32 32" version="1.1">
<g>
<path d="M 3 8 L 3 24 L 9 24 L 9 19 L 11 19 L 11 24 L 17 24 L 17 8 L 11 8 L 11 13 L 9 13 L 9 8 Z M 24.5 8 C 22.027344 8 20 10.027344 20 12.5 L 20 14 L 22 14 L 22 12.5 C 22 11.109375 23.109375 10 24.5 10 C 25.890625 10 27 11.109375 27 12.5 L 27 14.15625 C 27 15.03125 26.601563 15.867188 25.9375 16.4375 L 20.34375 21.25 L 20 21.53125 L 20 24 L 29 24 L 29 22 L 22.53125 22 L 27.25 17.96875 C 28.359375 17.019531 29 15.617188 29 14.15625 L 29 12.5 C 29 10.027344 26.972656 8 24.5 8 Z M 5 10 L 7 10 L 7 15 L 13 15 L 13 10 L 15 10 L 15 22 L 13 22 L 13 17 L 7 17 L 7 22 L 5 22 Z "></path>
</g>
</svg>
