<?xml version="1.0" encoding="UTF-8"?>
<svg xmlns="http://www.w3.org/2000/svg" xmlns:xlink="http://www.w3.org/1999/xlink" viewBox="0 0 32 32" version="1.1">
<g>
<path d="M 3 7 L 3 25 L 9 25 L 9 19 L 12 19 L 12 25 L 18 25 L 18 7 L 12 7 L 12 13 L 9 13 L 9 7 Z M 25.3125 7 L 25.0625 7.625 C 25.0625 7.625 24.078125 10 22 10 L 21 10 L 21 14 L 24 14 L 24 25 L 29 25 L 29 7 Z M 5 9 L 7 9 L 7 15 L 14 15 L 14 9 L 16 9 L 16 23 L 14 23 L 14 17 L 7 17 L 7 23 L 5 23 Z M 26.53125 9 L 27 9 L 27 23 L 26 23 L 26 12 L 23 12 L 23 11.75 C 25.183594 11.238281 26.164063 9.742188 26.53125 9 Z "></path>
</g>
</svg>
