<?xml version="1.0" encoding="UTF-8"?>
<svg xmlns="http://www.w3.org/2000/svg" xmlns:xlink="http://www.w3.org/1999/xlink" viewBox="0 0 32 32" version="1.1">
<g>
<path d="M 4 9 L 4 23 L 10 23 L 10 19 L 12 19 L 12 23 L 18 23 L 18 9 L 12 9 L 12 13 L 10 13 L 10 9 Z M 20 9 L 20 11 L 24 11 C 25.117188 11 26 11.882813 26 13 C 26 14.117188 25.117188 15 24 15 L 22 15 L 22 17 L 24 17 C 25.117188 17 26 17.882813 26 19 C 26 20.117188 25.117188 21 24 21 L 20 21 L 20 23 L 24 23 C 26.199219 23 28 21.199219 28 19 C 28 17.800781 27.441406 16.734375 26.59375 16 C 27.441406 15.265625 28 14.199219 28 13 C 28 10.800781 26.199219 9 24 9 Z M 6 11 L 8 11 L 8 15 L 14 15 L 14 11 L 16 11 L 16 21 L 14 21 L 14 17 L 8 17 L 8 21 L 6 21 Z "></path>
</g>
</svg>
