<?xml version="1.0" encoding="UTF-8"?>
<svg xmlns="http://www.w3.org/2000/svg" xmlns:xlink="http://www.w3.org/1999/xlink" viewBox="0 0 32 32" version="1.1">
<g>
<path d="M 9.59375 4 L 9.28125 4.28125 L 6.28125 7.28125 L 6 7.59375 L 6 26.125 C 3.921875 26.601563 2.65625 27.0625 2.65625 27.0625 L 3.34375 28.9375 C 3.34375 28.9375 8.695313 27 16 27 C 23.304688 27 28.65625 28.9375 28.65625 28.9375 L 29.34375 27.0625 C 29.34375 27.0625 28.078125 26.601563 26 26.125 L 26 7.59375 L 25.71875 7.28125 L 22.71875 4.28125 L 22.40625 4 Z M 10.4375 6 L 21.5625 6 L 24 8.4375 L 24 25.75 C 21.800781 25.351563 19.074219 25 16 25 C 12.925781 25 10.199219 25.351563 8 25.75 L 8 8.4375 Z M 9 11 L 9 19 L 11 19 L 11 16 L 12 19 L 14 19 L 12.875 15.59375 C 13.558594 15.144531 14 14.371094 14 13.5 C 14 12.132813 12.867188 11 11.5 11 Z M 15 11 L 15 19 L 17 19 L 17 11 Z M 18 11 L 18 19 L 20 19 L 20 17 C 21.644531 17 23 15.644531 23 14 C 23 12.355469 21.644531 11 20 11 Z M 11 13 L 11.5 13 C 11.785156 13 12 13.214844 12 13.5 C 12 13.785156 11.785156 14 11.5 14 L 11 14 Z M 20 13 C 20.566406 13 21 13.433594 21 14 C 21 14.566406 20.566406 15 20 15 Z "></path>
</g>
</svg>
