<?xml version="1.0" encoding="UTF-8"?>
<svg xmlns="http://www.w3.org/2000/svg" xmlns:xlink="http://www.w3.org/1999/xlink" viewBox="0 0 32 32" version="1.1">
<g>
<path d="M 14.03125 8 C 12.679688 8 11.394531 8.4375 10.3125 9.25 L 3.40625 14.46875 C 1.90625 15.597656 1 17.375 1 19.25 L 1 21 L 0 21 L 0 23 L 10.09375 23 L 14.53125 28.4375 L 15.78125 29.9375 L 17.3125 28.75 L 19.15625 27.3125 L 20.78125 26.0625 L 19.46875 24.46875 L 18.25 23 L 32 23 L 32 21 L 27.5 21 L 29.8125 20.125 L 31.65625 19.4375 L 31 17.59375 L 30 14.75 L 29.28125 12.75 L 27.34375 13.5625 L 22.8125 15.4375 L 18.96875 10.4375 C 17.785156 8.898438 15.972656 8 14.03125 8 Z M 14.03125 10 C 15.292969 10 16.546875 10.582031 17.375 11.65625 L 22.15625 17.90625 L 28.09375 15.40625 L 29.09375 18.25 L 22.09375 20.90625 C 21.9375 20.964844 21.789063 21 21.625 21 C 21.257813 21 20.890625 20.835938 20.625 20.5625 L 15.28125 15.09375 L 9.5625 19 L 12.375 19 L 17.90625 25.75 L 16.09375 27.15625 L 11.03125 21 C 11.03125 21 7.476563 21 5.09375 21 C 4.472656 21 4.375 21 4 21 L 3 21 L 3 19.25 C 3 17.992188 3.585938 16.816406 4.59375 16.0625 L 11.53125 10.84375 C 12.285156 10.277344 13.152344 10 14.03125 10 Z M 15.03125 17.6875 L 18.25 21 L 16.625 21 L 14.3125 18.1875 Z "></path>
</g>
</svg>
