<?xml version="1.0" encoding="UTF-8"?>
<svg xmlns="http://www.w3.org/2000/svg" xmlns:xlink="http://www.w3.org/1999/xlink" viewBox="0 0 32 32" version="1.1">
<g>
<path d="M 12 3 C 10.269531 3 8.742188 3.5 7.65625 4.5625 C 6.570313 5.625 6 7.1875 6 9 C 6 11.894531 7.648438 15.003906 9.625 17.5 C 10.613281 18.746094 11.679688 19.820313 12.75 20.625 C 13.4375 21.140625 14.113281 21.546875 14.8125 21.78125 C 14.753906 21.910156 14.707031 22.039063 14.625 22.1875 C 14.394531 22.601563 14 23.171875 14 24 C 14 25.15625 14.808594 25.765625 15.3125 26.25 C 15.566406 26.492188 15.789063 26.691406 15.90625 26.84375 C 16.023438 26.996094 16 27.054688 16 27 C 16 27.683594 15.03125 28.3125 15.03125 28.3125 L 15.96875 30.09375 C 15.96875 30.09375 18 29.113281 18 27 C 18 26.421875 17.726563 25.960938 17.46875 25.625 C 17.210938 25.289063 16.933594 25.050781 16.6875 24.8125 C 16.191406 24.335938 16 23.960938 16 24 C 16 23.859375 16.105469 23.667969 16.375 23.1875 C 16.554688 22.867188 16.75 22.417969 16.875 21.875 C 17.664063 21.667969 18.4375 21.207031 19.21875 20.625 C 20.289063 19.828125 21.386719 18.773438 22.375 17.53125 C 24.355469 15.046875 26 11.933594 26 9 C 26 7.1875 25.429688 5.625 24.34375 4.5625 C 23.257813 3.5 21.730469 3 20 3 C 18.003906 3 16.867188 3.945313 16.03125 4.6875 C 15.292969 3.96875 14.246094 3 12 3 Z M 12 5 C 14.140625 5 14.1875 5.804688 15.375 6.78125 L 16 7.28125 L 16.625 6.78125 C 17.710938 5.886719 18.296875 5 20 5 C 21.347656 5 22.324219 5.367188 22.96875 6 C 23.613281 6.632813 24 7.585938 24 9 C 24 11.128906 22.605469 14.03125 20.8125 16.28125 C 19.917969 17.40625 18.921875 18.367188 18.03125 19.03125 C 17.140625 19.695313 16.332031 20 16 20 C 15.675781 20 14.859375 19.699219 13.96875 19.03125 C 13.078125 18.363281 12.085938 17.382813 11.1875 16.25 C 9.394531 13.988281 8 11.074219 8 9 C 8 7.585938 8.386719 6.632813 9.03125 6 C 9.675781 5.367188 10.652344 5 12 5 Z "></path>
</g>
</svg>
