<?xml version="1.0" encoding="UTF-8"?>
<svg xmlns="http://www.w3.org/2000/svg" xmlns:xlink="http://www.w3.org/1999/xlink" viewBox="0 0 32 32" version="1.1">
<g>
<path d="M 9.5 4 C 5.363281 4 2 7.402344 2 11.5 C 2 12.929688 2.648438 14.167969 3.25 15.0625 C 3.851563 15.957031 4.46875 16.53125 4.46875 16.53125 L 15.28125 27.375 L 16 28.09375 L 16.71875 27.375 L 27.53125 16.53125 C 27.53125 16.53125 30 14.355469 30 11.5 C 30 7.402344 26.636719 4 22.5 4 C 19.066406 4 16.855469 6.066406 16 6.9375 C 15.144531 6.066406 12.933594 4 9.5 4 Z M 9.5 6 C 12.488281 6 15.25 8.90625 15.25 8.90625 L 16 9.75 L 16.75 8.90625 C 16.75 8.90625 19.511719 6 22.5 6 C 25.542969 6 28 8.496094 28 11.5 C 28 13.042969 26.125 15.125 26.125 15.125 L 16 25.25 L 5.875 15.125 C 5.875 15.125 5.390625 14.660156 4.90625 13.9375 C 4.421875 13.214844 4 12.273438 4 11.5 C 4 8.496094 6.457031 6 9.5 6 Z M 24.28125 9.28125 L 17 16.5625 L 13.71875 13.28125 L 12.28125 14.71875 L 16.28125 18.71875 L 17 19.40625 L 17.71875 18.71875 L 25.71875 10.71875 Z "></path>
</g>
</svg>
