<?xml version="1.0" encoding="UTF-8"?>
<svg xmlns="http://www.w3.org/2000/svg" xmlns:xlink="http://www.w3.org/1999/xlink" viewBox="0 0 32 32" version="1.1">
<g>
<path d="M 18 5 C 16.023438 5 13.527344 5.710938 11.5 7.59375 C 10.558594 8.46875 9.765625 9.625 9.15625 11.03125 C 9.105469 11.011719 9.058594 11 9 11 C 7.894531 11 7 11.894531 7 13 C 7 13.792969 7.453125 14.488281 8.125 14.8125 C 8.039063 15.507813 8 16.222656 8 17 C 8 17.808594 8.042969 18.535156 8.09375 19.21875 C 7.445313 19.546875 7 20.21875 7 21 C 7 22.007813 7.746094 22.832031 8.71875 22.96875 C 8.960938 23.738281 9.257813 24.375 9.59375 24.90625 C 10.566406 26.441406 11.964844 27 13 27 C 13.921875 27 14.902344 26.699219 15.6875 26.03125 C 16.472656 25.363281 17 24.296875 17 23 C 17 21.066406 16.085938 19.742188 15.34375 18.625 C 14.601563 17.507813 14 16.582031 14 15 C 14 12.265625 16.46875 10.8125 16.46875 10.8125 L 17.375 10.28125 L 16.78125 9.40625 L 15.9375 8.09375 L 14.25 9.1875 L 14.65625 9.78125 C 13.714844 10.484375 12 11.984375 12 15 C 12 17.125 12.898438 18.574219 13.65625 19.71875 C 14.414063 20.863281 15 21.679688 15 23 C 15 23.789063 14.738281 24.222656 14.375 24.53125 C 14.011719 24.839844 13.488281 25 13 25 C 12.546875 25 11.9375 24.882813 11.28125 23.84375 C 10.625 22.804688 10 20.742188 10 17 C 10 12.964844 11.269531 10.523438 12.875 9.03125 C 14.480469 7.539063 16.5 7 18 7 C 19.609375 7 21.164063 7.472656 22.25 8.3125 C 23.335938 9.152344 24 10.308594 24 12 C 24 13.363281 23.566406 14.417969 23.0625 15.6875 C 22.59375 16.867188 22.101563 18.234375 22.03125 20 C 20.773438 20.386719 19.84375 21.558594 19.84375 22.9375 C 19.84375 24.628906 21.246094 26 22.9375 26 C 23.785156 26 24.460938 25.695313 25 25.15625 C 24.847656 25.234375 24.699219 25.21875 24.46875 25.21875 C 23.160156 25.21875 22.15625 24.246094 22.15625 22.9375 C 22.15625 21.628906 23.160156 20.625 24.46875 20.625 C 24.699219 20.625 24.847656 20.609375 25 20.6875 C 24.722656 20.410156 24.390625 20.207031 24.03125 20.0625 C 24.089844 18.652344 24.480469 17.5625 24.9375 16.40625 C 25.433594 15.152344 26 13.785156 26 12 C 26 9.734375 24.984375 7.890625 23.46875 6.71875 C 21.953125 5.546875 19.988281 5 18 5 Z M 24.46875 21.375 C 23.621094 21.375 22.9375 22.089844 22.9375 22.9375 C 22.9375 23.785156 23.621094 24.46875 24.46875 24.46875 C 25.316406 24.46875 26 23.785156 26 22.9375 C 26 22.089844 25.316406 21.375 24.46875 21.375 Z "></path>
</g>
</svg>
