<?xml version="1.0" encoding="UTF-8"?>
<svg xmlns="http://www.w3.org/2000/svg" xmlns:xlink="http://www.w3.org/1999/xlink" viewBox="0 0 32 32" version="1.1">
<g>
<path d="M 9.5 4 C 5.363281 4 2 7.363281 2 11.5 C 2 14.089844 4.363281 16.445313 4.460938 16.539063 L 16 28.078125 L 20.132813 23.949219 C 19.824219 23.976563 19.511719 23.996094 19.195313 23.996094 C 18.59375 23.996094 18.003906 23.9375 17.425781 23.828125 L 16 25.253906 L 5.867188 15.121094 C 5.351563 14.605469 4 12.949219 4 11.5 C 4 8.46875 6.46875 6 9.5 6 C 11.050781 6 12.484375 6.726563 13.535156 7.457031 L 14.972656 6.023438 C 13.65625 5.054688 11.714844 4 9.5 4 Z M 22.804688 4.007813 C 20.960938 4.007813 19.117188 4.707031 17.71875 6.109375 C 17.21875 6.605469 14.605469 9.21875 14.109375 9.71875 C 11.304688 12.519531 11.304688 17.089844 14.109375 19.890625 C 16.910156 22.695313 21.480469 22.695313 24.28125 19.890625 L 27.890625 16.28125 C 30.695313 13.480469 30.695313 8.910156 27.890625 6.109375 C 26.492188 4.707031 24.648438 4.007813 22.804688 4.007813 Z M 22.804688 5.992188 C 24.132813 5.992188 25.460938 6.503906 26.480469 7.523438 C 28.515625 9.558594 28.515625 12.832031 26.480469 14.871094 L 22.871094 18.480469 C 21.074219 20.273438 18.320313 20.484375 16.296875 19.117188 L 17.554688 17.859375 C 17.804688 17.949219 18.070313 18 18.332031 18 C 18.925781 18 19.535156 17.765625 19.984375 17.3125 L 21.3125 15.984375 C 22.214844 15.082031 22.21875 13.589844 21.316406 12.6875 C 20.867188 12.234375 20.265625 12.007813 19.667969 12.003906 C 19.066406 12.003906 18.46875 12.230469 18.015625 12.683594 L 16.683594 14.015625 C 16.035156 14.667969 15.859375 15.621094 16.144531 16.441406 L 14.882813 17.703125 C 13.515625 15.679688 13.726563 12.925781 15.519531 11.128906 C 15.523438 11.128906 15.523438 11.128906 15.523438 11.128906 C 16.015625 10.632813 18.632813 8.015625 19.128906 7.523438 C 20.148438 6.503906 21.476563 5.992188 22.804688 5.992188 Z M 19.667969 13.996094 C 19.75 13.996094 19.832031 14.027344 19.902344 14.097656 C 20.039063 14.238281 20.039063 14.429688 19.902344 14.566406 L 18.566406 15.902344 C 18.496094 15.972656 18.421875 16 18.332031 16 C 18.265625 16 18.207031 15.976563 18.152344 15.9375 C 18.121094 15.910156 18.09375 15.878906 18.0625 15.851563 C 17.964844 15.71875 17.972656 15.554688 18.09375 15.433594 L 18.097656 15.433594 L 19.429688 14.097656 C 19.5 14.027344 19.582031 13.992188 19.667969 13.996094 Z "></path>
</g>
</svg>
