<?xml version="1.0" encoding="UTF-8"?>
<svg xmlns="http://www.w3.org/2000/svg" xmlns:xlink="http://www.w3.org/1999/xlink" viewBox="0 0 32 32" version="1.1">
<g>
<path d="M 5 5 L 5 27 L 27 27 L 27 5 Z M 7 7 L 25 7 L 25 25 L 7 25 Z M 11.40625 9.21875 C 11.40625 9.21875 9 10.855469 9 13.5 C 9 14.820313 9.65625 15.792969 10.15625 16.5625 C 10.65625 17.332031 11 17.894531 11 18.5 C 11 19.710938 9.375 21.21875 9.375 21.21875 L 10.625 22.78125 C 10.625 22.78125 13 21.109375 13 18.5 C 13 17.195313 12.34375 16.230469 11.84375 15.46875 C 11.34375 14.707031 11 14.140625 11 13.5 C 11 12.214844 12.59375 10.78125 12.59375 10.78125 Z M 16.40625 9.21875 C 16.40625 9.21875 14 10.855469 14 13.5 C 14 14.820313 14.65625 15.792969 15.15625 16.5625 C 15.65625 17.332031 16 17.894531 16 18.5 C 16 19.710938 14.375 21.21875 14.375 21.21875 L 15.625 22.78125 C 15.625 22.78125 18 21.109375 18 18.5 C 18 17.195313 17.34375 16.230469 16.84375 15.46875 C 16.34375 14.707031 16 14.140625 16 13.5 C 16 12.214844 17.59375 10.78125 17.59375 10.78125 Z M 21.40625 9.21875 C 21.40625 9.21875 19 10.855469 19 13.5 C 19 14.820313 19.65625 15.792969 20.15625 16.5625 C 20.65625 17.332031 21 17.894531 21 18.5 C 21 19.710938 19.375 21.21875 19.375 21.21875 L 20.625 22.78125 C 20.625 22.78125 23 21.109375 23 18.5 C 23 17.195313 22.34375 16.230469 21.84375 15.46875 C 21.34375 14.707031 21 14.140625 21 13.5 C 21 12.214844 22.59375 10.78125 22.59375 10.78125 Z "></path>
</g>
</svg>
