<?xml version="1.0" encoding="UTF-8"?>
<svg xmlns="http://www.w3.org/2000/svg" xmlns:xlink="http://www.w3.org/1999/xlink" viewBox="0 0 32 32" version="1.1">
<g>
<path d="M 9.75 3.59375 L 9.03125 4.28125 L 5.03125 8.28125 L 6.46875 9.71875 L 8.75 7.4375 L 8.75 9 C 8.75 9.660156 8.214844 11.996094 7.6875 13.8125 C 7.058594 15.984375 7.527344 18.328125 8.9375 20.09375 C 9.992188 21.410156 10.316406 23.148438 9.78125 24.75 L 8.8125 27.6875 L 10.6875 28.3125 L 11.65625 25.40625 C 12.402344 23.164063 11.976563 20.6875 10.5 18.84375 C 9.492188 17.582031 9.144531 15.921875 9.59375 14.375 C 10.132813 12.515625 10.75 10.398438 10.75 9 L 10.75 7.4375 L 13.03125 9.71875 L 14.46875 8.28125 L 10.46875 4.28125 Z M 18.875 9.9375 L 18.875 11.78125 L 19.34375 11.78125 C 18.761719 12.152344 18.230469 12.648438 17.84375 13.21875 L 17.84375 12.9375 L 15.84375 12.9375 L 15.84375 14.8125 L 17.15625 14.8125 C 17.0625 15.195313 17 15.585938 17 16 C 17 16.414063 17.0625 16.804688 17.15625 17.1875 L 15.84375 17.1875 L 15.84375 19.0625 L 17.84375 19.0625 L 17.84375 18.78125 C 18.230469 19.351563 18.761719 19.847656 19.34375 20.21875 L 18.875 20.21875 L 18.875 22.0625 L 20.875 22.0625 L 20.875 20.875 C 21.238281 20.960938 21.613281 21 22 21 C 22.386719 21 22.761719 20.960938 23.125 20.875 L 23.125 22.0625 L 25.125 22.0625 L 25.125 20.21875 L 24.65625 20.21875 C 25.238281 19.847656 25.769531 19.351563 26.15625 18.78125 L 26.15625 19.0625 L 28.15625 19.0625 L 28.15625 17.1875 L 26.84375 17.1875 C 26.9375 16.804688 27 16.414063 27 16 C 27 15.585938 26.9375 15.195313 26.84375 14.8125 L 28.15625 14.8125 L 28.15625 12.9375 L 26.15625 12.9375 L 26.15625 13.21875 C 25.769531 12.648438 25.238281 12.152344 24.65625 11.78125 L 25.125 11.78125 L 25.125 9.9375 L 23.125 9.9375 L 23.125 11.125 C 22.761719 11.039063 22.386719 11 22 11 C 21.613281 11 21.238281 11.039063 20.875 11.125 L 20.875 9.9375 Z M 22 13 C 23.667969 13 25 14.332031 25 16 C 25 17.667969 23.667969 19 22 19 C 20.332031 19 19 17.667969 19 16 C 19 14.332031 20.332031 13 22 13 Z "></path>
</g>
</svg>
