<?xml version="1.0" encoding="UTF-8"?>
<svg xmlns="http://www.w3.org/2000/svg" xmlns:xlink="http://www.w3.org/1999/xlink" viewBox="0 0 32 32" version="1.1">
<g>
<path d="M 4 4 L 4 28 L 28 28 L 28 26 L 6 26 L 6 4 Z M 16 6 C 14.894531 6 14 6.894531 14 8 C 14 9.105469 14.894531 10 16 10 C 17.105469 10 18 9.105469 18 8 C 18 6.894531 17.105469 6 16 6 Z M 10 7 C 9.449219 7 9 7.449219 9 8 C 9 8.550781 9.449219 9 10 9 C 10.550781 9 11 8.550781 11 8 C 11 7.449219 10.550781 7 10 7 Z M 22 7 C 21.449219 7 21 7.449219 21 8 C 21 8.550781 21.449219 9 22 9 C 22.550781 9 23 8.550781 23 8 C 23 7.449219 22.550781 7 22 7 Z M 27 7 C 26.449219 7 26 7.449219 26 8 C 26 8.550781 26.449219 9 27 9 C 27.550781 9 28 8.550781 28 8 C 28 7.449219 27.550781 7 27 7 Z M 22 12 C 20.894531 12 20 12.894531 20 14 C 20 15.105469 20.894531 16 22 16 C 23.105469 16 24 15.105469 24 14 C 24 12.894531 23.105469 12 22 12 Z M 10 13 C 9.449219 13 9 13.449219 9 14 C 9 14.550781 9.449219 15 10 15 C 10.550781 15 11 14.550781 11 14 C 11 13.449219 10.550781 13 10 13 Z M 27 13 C 26.449219 13 26 13.449219 26 14 C 26 14.550781 26.449219 15 27 15 C 27.550781 15 28 14.550781 28 14 C 28 13.449219 27.550781 13 27 13 Z M 10 19 C 8.894531 19 8 19.894531 8 21 C 8 22.105469 8.894531 23 10 23 C 11.105469 23 12 22.105469 12 21 C 12 19.894531 11.105469 19 10 19 Z M 16 20 C 15.449219 20 15 20.449219 15 21 C 15 21.550781 15.449219 22 16 22 C 16.550781 22 17 21.550781 17 21 C 17 20.449219 16.550781 20 16 20 Z M 22 20 C 21.449219 20 21 20.449219 21 21 C 21 21.550781 21.449219 22 22 22 C 22.550781 22 23 21.550781 23 21 C 23 20.449219 22.550781 20 22 20 Z M 27 20 C 26.449219 20 26 20.449219 26 21 C 26 21.550781 26.449219 22 27 22 C 27.550781 22 28 21.550781 28 21 C 28 20.449219 27.550781 20 27 20 Z "></path>
</g>
</svg>
