<?xml version="1.0" encoding="UTF-8"?>
<svg xmlns="http://www.w3.org/2000/svg" xmlns:xlink="http://www.w3.org/1999/xlink" viewBox="0 0 32 32" version="1.1">
<g>
<path d="M 16 3 C 10.710938 3 6.378906 7.113281 6.03125 12.3125 C 4.824219 12.878906 4 14.121094 4 15.5 C 4 16.929688 4.851563 18.183594 6.125 18.71875 C 6.898438 23.804688 10.902344 29 16 29 C 21.097656 29 25.101563 23.804688 25.875 18.71875 C 27.148438 18.183594 28 16.929688 28 15.5 C 28 14.121094 27.175781 12.875 25.96875 12.3125 C 25.621094 7.109375 21.289063 3 16 3 Z M 16 5 C 16.691406 5 17.359375 5.085938 18 5.25 L 18 6.65625 C 17.855469 6.742188 17.742188 6.855469 17.65625 7 L 14.34375 7 C 14.257813 6.855469 14.144531 6.742188 14 6.65625 L 14 5.25 C 14.640625 5.085938 15.308594 5 16 5 Z M 13 5.59375 L 13 6.65625 C 12.855469 6.742188 12.742188 6.855469 12.65625 7 L 10.71875 7 C 11.390625 6.410156 12.160156 5.933594 13 5.59375 Z M 19 5.59375 C 19.839844 5.933594 20.609375 6.410156 21.28125 7 L 19.34375 7 C 19.257813 6.855469 19.144531 6.742188 19 6.65625 Z M 10 8 L 12.65625 8 C 12.742188 8.144531 12.855469 8.257813 13 8.34375 L 13 10.65625 C 12.855469 10.742188 12.742188 10.855469 12.65625 11 L 10.34375 11 C 10.257813 10.855469 10.144531 10.742188 10 10.65625 Z M 14.34375 8 L 17.65625 8 C 17.742188 8.144531 17.855469 8.257813 18 8.34375 L 18 10.65625 C 17.855469 10.742188 17.742188 10.855469 17.65625 11 L 14.34375 11 C 14.257813 10.855469 14.144531 10.742188 14 10.65625 L 14 8.34375 C 14.144531 8.257813 14.257813 8.144531 14.34375 8 Z M 19.34375 8 L 22 8 L 22 10.65625 C 21.855469 10.742188 21.742188 10.855469 21.65625 11 L 19.34375 11 C 19.257813 10.855469 19.144531 10.742188 19 10.65625 L 19 8.34375 C 19.144531 8.257813 19.257813 8.144531 19.34375 8 Z M 9 9.125 L 9 10.65625 C 8.855469 10.742188 8.742188 10.855469 8.65625 11 L 8.25 11 C 8.421875 10.34375 8.679688 9.703125 9 9.125 Z M 23 9.125 C 23.320313 9.707031 23.582031 10.34375 23.75 11 L 23.34375 11 C 23.257813 10.855469 23.144531 10.742188 23 10.65625 Z M 8.0625 12 L 8.65625 12 C 8.742188 12.144531 8.855469 12.257813 9 12.34375 L 9 14.65625 C 8.855469 14.742188 8.742188 14.855469 8.65625 15 L 6.09375 15 C 6.265625 14.515625 6.664063 14.136719 7.1875 14.03125 L 8 13.8125 L 8 13 C 8 12.660156 8.023438 12.328125 8.0625 12 Z M 10.34375 12 L 12.65625 12 C 12.742188 12.144531 12.855469 12.257813 13 12.34375 L 13 13.0625 C 13.371094 13.136719 13.707031 13.277344 14 13.5 L 14 12.34375 C 14.144531 12.257813 14.257813 12.144531 14.34375 12 L 17.65625 12 C 17.742188 12.144531 17.855469 12.257813 18 12.34375 L 18 13.5 C 18.292969 13.277344 18.628906 13.136719 19 13.0625 L 19 12.34375 C 19.144531 12.257813 19.257813 12.144531 19.34375 12 L 21.65625 12 C 21.742188 12.144531 21.855469 12.257813 22 12.34375 L 22 18.65625 C 21.855469 18.742188 21.742188 18.855469 21.65625 19 L 19.34375 19 C 19.257813 18.855469 19.144531 18.742188 19 18.65625 L 19 17.9375 C 18.628906 17.863281 18.292969 17.722656 18 17.5 L 18 18.65625 C 17.855469 18.742188 17.742188 18.855469 17.65625 19 L 14.34375 19 C 14.257813 18.855469 14.144531 18.742188 14 18.65625 L 14 17.5 C 13.707031 17.722656 13.371094 17.863281 13 17.9375 L 13 18.65625 C 12.855469 18.742188 12.742188 18.855469 12.65625 19 L 10.34375 19 C 10.257813 18.855469 10.144531 18.742188 10 18.65625 L 10 12.34375 C 10.144531 12.257813 10.257813 12.144531 10.34375 12 Z M 23.34375 12 L 23.9375 12 C 23.976563 12.324219 24 12.664063 24 13 L 23.9375 13.84375 L 24.8125 14.03125 C 25.335938 14.136719 25.734375 14.515625 25.90625 15 L 23.34375 15 C 23.257813 14.855469 23.144531 14.742188 23 14.65625 L 23 12.34375 C 23.144531 12.257813 23.257813 12.144531 23.34375 12 Z M 12.5 14 C 11.671875 14 11 14.671875 11 15.5 C 11 16.328125 11.671875 17 12.5 17 C 13.328125 17 14 16.328125 14 15.5 C 14 14.671875 13.328125 14 12.5 14 Z M 19.5 14 C 18.671875 14 18 14.671875 18 15.5 C 18 16.328125 18.671875 17 19.5 17 C 20.328125 17 21 16.328125 21 15.5 C 21 14.671875 20.328125 14 19.5 14 Z M 6.09375 16 L 8.65625 16 C 8.742188 16.144531 8.855469 16.257813 9 16.34375 L 9 18.65625 C 8.855469 18.742188 8.742188 18.855469 8.65625 19 L 8.21875 19 C 8.140625 18.617188 8.066406 18.222656 8.03125 17.84375 L 7.96875 17.09375 L 7.21875 16.96875 C 6.679688 16.871094 6.269531 16.492188 6.09375 16 Z M 23.34375 16 L 25.90625 16 C 25.730469 16.492188 25.320313 16.871094 24.78125 16.96875 L 24.03125 17.09375 L 23.96875 17.84375 C 23.933594 18.222656 23.859375 18.617188 23.78125 19 L 23.34375 19 C 23.257813 18.855469 23.144531 18.742188 23 18.65625 L 23 16.34375 C 23.144531 16.257813 23.257813 16.144531 23.34375 16 Z M 8.46875 20 L 8.65625 20 C 8.742188 20.144531 8.855469 20.257813 9 20.34375 L 9 21.375 C 8.800781 20.921875 8.613281 20.46875 8.46875 20 Z M 10.34375 20 L 12.65625 20 C 12.742188 20.144531 12.855469 20.257813 13 20.34375 L 13 22.65625 C 12.855469 22.742188 12.742188 22.855469 12.65625 23 L 10 23 L 10 20.34375 C 10.144531 20.257813 10.257813 20.144531 10.34375 20 Z M 14.34375 20 L 17.65625 20 C 17.742188 20.144531 17.855469 20.257813 18 20.34375 L 18 22.65625 C 17.855469 22.742188 17.742188 22.855469 17.65625 23 L 14.34375 23 C 14.257813 22.855469 14.144531 22.742188 14 22.65625 L 14 20.34375 C 14.144531 20.257813 14.257813 20.144531 14.34375 20 Z M 19.34375 20 L 21.65625 20 C 21.742188 20.144531 21.855469 20.257813 22 20.34375 L 22 23 L 19.34375 23 C 19.257813 22.855469 19.144531 22.742188 19 22.65625 L 19 20.34375 C 19.144531 20.257813 19.257813 20.144531 19.34375 20 Z M 23.34375 20 L 23.53125 20 C 23.386719 20.46875 23.203125 20.921875 23 21.375 L 23 20.34375 C 23.144531 20.257813 23.257813 20.144531 23.34375 20 Z M 10.5625 24 L 12.65625 24 C 12.742188 24.144531 12.855469 24.257813 13 24.34375 L 13 26.15625 C 12.097656 25.628906 11.265625 24.875 10.5625 24 Z M 14.34375 24 L 17.65625 24 C 17.742188 24.144531 17.855469 24.257813 18 24.34375 L 18 26.625 C 17.359375 26.867188 16.691406 27 16 27 C 15.308594 27 14.640625 26.867188 14 26.625 L 14 24.34375 C 14.144531 24.257813 14.257813 24.144531 14.34375 24 Z M 19.34375 24 L 21.4375 24 C 20.734375 24.875 19.902344 25.628906 19 26.15625 L 19 24.34375 C 19.144531 24.257813 19.257813 24.144531 19.34375 24 Z "></path>
</g>
</svg>
