<?xml version="1.0" encoding="UTF-8"?>
<svg xmlns="http://www.w3.org/2000/svg" xmlns:xlink="http://www.w3.org/1999/xlink" viewBox="0 0 32 32" version="1.1">
<g>
<path d="M 16 5 C 11.074219 5 8.378906 7.566406 7.15625 10.0625 C 6.128906 12.160156 6.042969 13.921875 6.03125 14.53125 C 5.253906 15.132813 4.417969 16.039063 4.125 17.4375 C 3.84375 18.765625 3.324219 21.359375 3.03125 23.25 C 2.894531 24.125 3.144531 25.113281 3.84375 25.84375 C 4.367188 26.390625 5.113281 26.785156 6.03125 26.9375 C 6.253906 26.980469 6.480469 27 6.71875 27 C 10.003906 27 11.988281 26 16 26 C 20.011719 26 21.871094 27 25 27 C 25.828125 27 26.472656 26.875 27 26.59375 C 27.085938 26.546875 27.171875 26.496094 27.25 26.4375 C 27.839844 26.097656 28.277344 25.644531 28.53125 25.1875 C 29.042969 24.277344 29 23.375 29 23.375 L 29 23.3125 L 28.96875 23.21875 C 28.96875 23.21875 28.28125 19.289063 27.84375 17.40625 C 27.441406 15.679688 26.453125 14.871094 25.9375 14.5 C 25.910156 13.890625 25.804688 12.148438 24.75 10.0625 C 23.496094 7.578125 20.792969 5 16 5 Z M 16 7 C 20.121094 7 21.921875 8.921875 22.9375 10.9375 C 23.953125 12.953125 24 15 24 15 L 24 15.59375 L 24.5 15.875 C 24.5 15.875 25.550781 16.453125 25.875 17.84375 C 26.164063 19.082031 26.523438 21 26.75 22.25 C 26.265625 21.636719 25.683594 20.941406 25.21875 20.40625 C 24.855469 19.984375 24.164063 19.355469 22.96875 19.1875 C 21.773438 19.019531 19.867188 19 16 19 C 12.25 19 10.285156 19.042969 9.03125 19.21875 C 7.777344 19.394531 7.058594 19.925781 6.65625 20.375 C 6.285156 20.789063 5.789063 21.261719 5.3125 21.84375 C 5.589844 20.347656 5.894531 18.78125 6.09375 17.84375 C 6.300781 16.859375 6.972656 16.199219 7.53125 15.84375 L 8 15.53125 L 8 14.96875 C 8 14.96875 7.957031 12.941406 8.9375 10.9375 C 9.601563 9.574219 10.679688 8.273438 12.625 7.5625 C 12.4375 7.988281 12.792969 8.996094 12.71875 9.1875 C 12.429688 9.921875 11.78125 10.378906 11.46875 11.09375 C 11.222656 11.660156 11.386719 12.308594 12.125 12.15625 C 12.691406 12.039063 12.886719 11.390625 13.5 11.28125 C 14.054688 11.183594 15.003906 11.652344 15.4375 11.1875 C 15.980469 10.605469 15.242188 10.355469 14.90625 10 C 14.351563 9.414063 14.082031 7.585938 13.0625 7.40625 C 13.886719 7.164063 14.851563 7 16 7 Z M 20.65625 9.6875 C 20.207031 9.746094 19.921875 10.375 19.5 10.5625 C 19.253906 10.667969 17.625 10.875 18.0625 11.4375 C 18.449219 11.9375 19.050781 11.457031 19.5625 11.875 C 19.886719 12.140625 19.992188 12.492188 20.3125 12.78125 C 20.703125 13.136719 21.144531 13.421875 21.15625 12.625 C 21.160156 12.371094 20.882813 12.21875 20.84375 11.96875 C 20.773438 11.507813 20.761719 11.386719 20.875 11.03125 C 21.039063 10.511719 21.523438 9.871094 20.84375 9.6875 C 20.773438 9.667969 20.71875 9.679688 20.65625 9.6875 Z M 16.65625 13.90625 C 16.238281 13.984375 15.960938 14.660156 15.625 14.875 C 15.074219 15.226563 14.445313 14.898438 13.875 15.1875 C 13.648438 15.300781 13.332031 15.609375 13.40625 15.90625 C 13.535156 16.417969 14.058594 16.167969 14.40625 16.28125 C 14.925781 16.453125 15.164063 16.945313 15.53125 17.3125 C 15.820313 17.605469 16.429688 18.148438 16.75 17.71875 C 17.125 17.21875 16.535156 16.566406 16.5625 16.03125 C 16.589844 15.527344 17.570313 14.441406 17.125 14.0625 C 16.953125 13.917969 16.796875 13.878906 16.65625 13.90625 Z M 9.09375 14.71875 C 8.558594 14.769531 8.148438 14.984375 8.0625 15.71875 C 8.011719 16.140625 8.40625 18.953125 9.0625 17.96875 C 9.394531 17.472656 8.996094 16.773438 9.46875 16.21875 C 9.480469 16.203125 9.488281 16.199219 9.5 16.1875 C 9.882813 15.800781 10.628906 15.84375 10.90625 15.46875 C 11.460938 14.71875 10.070313 14.734375 9.65625 14.71875 C 9.460938 14.710938 9.273438 14.703125 9.09375 14.71875 Z M 22.3125 15.25 C 21.804688 15.261719 21.210938 15.925781 20.96875 16.28125 C 20 17.710938 21.4375 17.296875 22.375 17.53125 C 22.871094 17.65625 23.324219 18.066406 23.84375 18.09375 C 25.867188 18.195313 23.789063 16.855469 23.375 16.4375 C 23.113281 16.171875 23.015625 15.804688 22.78125 15.5 C 22.652344 15.328125 22.480469 15.246094 22.3125 15.25 Z M 16 21 C 19.855469 21 21.78125 21.058594 22.6875 21.1875 C 23.59375 21.316406 23.273438 21.210938 23.6875 21.6875 C 24.5625 22.703125 25.949219 24.507813 26.0625 24.65625 C 26.0625 24.65625 26.089844 24.832031 26.09375 24.8125 C 26.042969 24.832031 25.996094 24.859375 25.9375 24.875 C 25.875 24.898438 25.828125 24.917969 25.71875 24.9375 C 25.519531 24.972656 25.289063 25 25 25 C 22.332031 25 20.332031 24 16 24 C 11.816406 24 9.707031 24.9375 7 25 C 6.777344 25 6.582031 24.992188 6.40625 24.96875 C 6.144531 24.921875 6.039063 24.828125 6 24.78125 C 5.949219 24.71875 5.953125 24.652344 6 24.53125 C 6.367188 23.589844 7.316406 22.617188 8.125 21.71875 C 8.472656 21.332031 8.316406 21.328125 9.3125 21.1875 C 10.308594 21.046875 12.269531 21 16 21 Z "></path>
</g>
</svg>
