<?xml version="1.0" encoding="UTF-8"?>
<svg xmlns="http://www.w3.org/2000/svg" xmlns:xlink="http://www.w3.org/1999/xlink" viewBox="0 0 32 32" version="1.1">
<g>
<path d="M 16 4.90625 L 3.625 10.0625 L 3 10.34375 L 3 27 L 29 27 L 29 10.34375 L 28.375 10.0625 Z M 16 7.09375 L 27 11.6875 L 27 25 L 5 25 L 5 11.6875 Z M 14.5 10 C 13.292969 10 12.296875 10.859375 12.0625 12 C 12.042969 12 12.019531 12 12 12 C 10.894531 12 10 12.894531 10 14 C 10 14.921875 10.621094 15.707031 11.46875 15.9375 C 11.179688 16.570313 11 17.261719 11 18 L 11 21 L 13 21 L 13 18 C 13 16.332031 14.332031 15 16 15 C 17.667969 15 19 16.332031 19 18 C 19 19.289063 18.5 20.050781 17.8125 20.65625 C 17.125 21.261719 16.226563 21.65625 15.59375 21.84375 L 16.15625 23.75 C 16.957031 23.511719 18.109375 23.054688 19.125 22.15625 C 19.738281 21.613281 20.3125 20.898438 20.65625 20 L 22.4375 20 C 22.414063 18.585938 21.664063 17.78125 20.9375 17.3125 C 20.777344 16.171875 20.238281 15.136719 19.4375 14.375 C 19.78125 14.015625 20 13.535156 20 13 C 20 11.894531 19.105469 11 18 11 C 17.527344 11 17.09375 11.164063 16.75 11.4375 C 16.347656 10.59375 15.496094 10 14.5 10 Z M 17 17 C 16.449219 17 16 17.449219 16 18 C 16 18.550781 16.449219 19 17 19 C 17.550781 19 18 18.550781 18 18 C 18 17.449219 17.550781 17 17 17 Z "></path>
</g>
</svg>
