<?xml version="1.0" encoding="UTF-8"?>
<svg xmlns="http://www.w3.org/2000/svg" xmlns:xlink="http://www.w3.org/1999/xlink" viewBox="0 0 32 32" version="1.1">
<g>
<path d="M 16 2.0625 L 15.25 2.90625 C 15.25 2.90625 13.972656 4.339844 12.6875 6.15625 C 12.042969 7.0625 11.378906 8.074219 10.875 9.0625 C 10.371094 10.050781 10 11.007813 10 12 C 10 15.300781 12.699219 18 16 18 C 19.300781 18 22 15.300781 22 12 C 22 11.007813 21.628906 10.050781 21.125 9.0625 C 20.621094 8.074219 19.957031 7.0625 19.3125 6.15625 C 18.027344 4.339844 16.75 2.90625 16.75 2.90625 Z M 16 5.15625 C 16.4375 5.675781 16.84375 6.121094 17.6875 7.3125 C 18.292969 8.167969 18.878906 9.117188 19.3125 9.96875 C 19.746094 10.820313 20 11.613281 20 12 C 20 14.21875 18.21875 16 16 16 C 13.78125 16 12 14.21875 12 12 C 12 11.613281 12.253906 10.820313 12.6875 9.96875 C 13.121094 9.117188 13.707031 8.167969 14.3125 7.3125 C 15.15625 6.121094 15.5625 5.675781 16 5.15625 Z M 16 9.25 L 15.1875 10.4375 C 15.1875 10.4375 14.898438 10.808594 14.625 11.28125 C 14.488281 11.515625 14.367188 11.792969 14.25 12.0625 C 14.132813 12.332031 14 12.558594 14 13 C 14 14.09375 14.90625 15 16 15 C 17.09375 15 18 14.09375 18 13 C 18 12.558594 17.867188 12.332031 17.75 12.0625 C 17.632813 11.792969 17.511719 11.515625 17.375 11.28125 C 17.101563 10.808594 16.8125 10.4375 16.8125 10.4375 Z M 16 18.03125 L 10.5 21.125 L 9 22 L 9 26 L 16 30.15625 L 23 26 L 23 22 L 21.5 21.125 Z M 16 20.3125 L 18.96875 22 L 16 23.6875 L 13.03125 22 Z M 11 23.15625 L 16 25.96875 L 21 23.15625 L 21 24.875 L 16 27.84375 L 11 24.875 Z "></path>
</g>
</svg>
