<?xml version="1.0" encoding="UTF-8"?>
<svg xmlns="http://www.w3.org/2000/svg" xmlns:xlink="http://www.w3.org/1999/xlink" viewBox="0 0 32 32" version="1.1">
<g>
<path d="M 12.203125 4 L 10.609375 11 L 12.660156 11 L 13.796875 6 L 15 6 L 15 11 L 17 11 L 17 6 L 18.203125 6 L 19.339844 11 L 21.390625 11 L 19.796875 4 Z M 4 12 L 4 14 L 6 14 L 6 15 L 8 15 L 8 14 L 24 14 L 24 15 L 26 15 L 26 14 L 28 14 L 28 12 Z M 9.703125 15 L 6.746094 28 L 25.253906 28 L 22.296875 15 L 20.246094 15 L 22.746094 26 L 17 26 L 17 15 L 15 15 L 15 26 L 9.253906 26 L 11.753906 15 Z "></path>
</g>
</svg>
