<?xml version="1.0" encoding="UTF-8"?>
<svg xmlns="http://www.w3.org/2000/svg" xmlns:xlink="http://www.w3.org/1999/xlink" viewBox="0 0 32 32" version="1.1">
<g>
<path d="M 5 5 L 5 27 L 27 27 L 27 25 L 7 25 L 7 22.5625 C 7.59375 22.835938 8.257813 23 9 23 C 10.035156 23 10.960938 22.691406 11.6875 22.1875 C 11.800781 22.109375 11.894531 22.027344 12 21.9375 C 12.101563 22.023438 12.203125 22.113281 12.3125 22.1875 C 13.035156 22.691406 13.960938 23 15 23 C 16.035156 23 16.960938 22.691406 17.6875 22.1875 C 17.800781 22.109375 17.894531 22.027344 18 21.9375 C 18.101563 22.023438 18.203125 22.113281 18.3125 22.1875 C 19.035156 22.691406 19.960938 23 21 23 C 22.035156 23 22.960938 22.691406 23.6875 22.1875 C 23.800781 22.109375 23.894531 22.027344 24 21.9375 C 24.101563 22.023438 24.203125 22.113281 24.3125 22.1875 C 25.035156 22.691406 25.960938 23 27 23 L 27 21 C 26.367188 21 25.796875 20.8125 25.4375 20.5625 C 25.078125 20.3125 25 20.042969 25 20 L 23 20 C 23 20.058594 22.917969 20.316406 22.5625 20.5625 C 22.207031 20.808594 21.636719 21 21 21 C 20.367188 21 19.796875 20.8125 19.4375 20.5625 C 19.078125 20.3125 19 20.042969 19 20 L 17 20 C 17 20.058594 16.917969 20.316406 16.5625 20.5625 C 16.207031 20.808594 15.636719 21 15 21 C 14.367188 21 13.796875 20.8125 13.4375 20.5625 C 13.078125 20.3125 13 20.042969 13 20 L 11 20 C 11 20.058594 10.917969 20.316406 10.5625 20.5625 C 10.207031 20.808594 9.636719 21 9 21 C 8.367188 21 7.796875 20.8125 7.4375 20.5625 C 7.078125 20.3125 7 20.042969 7 20 L 7 17.5625 C 7.59375 17.835938 8.257813 18 9 18 C 10.035156 18 10.960938 17.691406 11.6875 17.1875 C 11.800781 17.109375 11.894531 17.027344 12 16.9375 C 12.101563 17.023438 12.203125 17.113281 12.3125 17.1875 C 13.035156 17.691406 13.960938 18 15 18 C 16.035156 18 16.960938 17.691406 17.6875 17.1875 C 17.800781 17.109375 17.894531 17.027344 18 16.9375 C 18.101563 17.023438 18.203125 17.113281 18.3125 17.1875 C 19.035156 17.691406 19.960938 18 21 18 C 22.035156 18 22.960938 17.691406 23.6875 17.1875 C 23.800781 17.109375 23.894531 17.027344 24 16.9375 C 24.101563 17.023438 24.203125 17.113281 24.3125 17.1875 C 25.035156 17.691406 25.960938 18 27 18 L 27 16 C 26.367188 16 25.796875 15.8125 25.4375 15.5625 C 25.078125 15.3125 25 15.042969 25 15 L 23 15 C 23 15.058594 22.917969 15.316406 22.5625 15.5625 C 22.207031 15.808594 21.636719 16 21 16 C 20.367188 16 19.796875 15.8125 19.4375 15.5625 C 19.078125 15.3125 19 15.042969 19 15 L 17 15 C 17 15.058594 16.917969 15.316406 16.5625 15.5625 C 16.207031 15.808594 15.636719 16 15 16 C 14.367188 16 13.796875 15.8125 13.4375 15.5625 C 13.078125 15.3125 13 15.042969 13 15 L 11 15 C 11 15.058594 10.917969 15.316406 10.5625 15.5625 C 10.207031 15.808594 9.636719 16 9 16 C 8.367188 16 7.796875 15.8125 7.4375 15.5625 C 7.078125 15.3125 7 15.042969 7 15 L 7 12.5625 C 7.59375 12.835938 8.257813 13 9 13 C 10.035156 13 10.960938 12.691406 11.6875 12.1875 C 11.800781 12.109375 11.894531 12.027344 12 11.9375 C 12.101563 12.023438 12.203125 12.113281 12.3125 12.1875 C 13.035156 12.691406 13.960938 13 15 13 C 16.035156 13 16.960938 12.691406 17.6875 12.1875 C 17.800781 12.109375 17.894531 12.027344 18 11.9375 C 18.101563 12.023438 18.203125 12.113281 18.3125 12.1875 C 19.035156 12.691406 19.960938 13 21 13 C 22.035156 13 22.960938 12.691406 23.6875 12.1875 C 23.800781 12.109375 23.894531 12.027344 24 11.9375 C 24.101563 12.023438 24.203125 12.113281 24.3125 12.1875 C 25.035156 12.691406 25.960938 13 27 13 L 27 11 C 26.367188 11 25.796875 10.8125 25.4375 10.5625 C 25.078125 10.3125 25 10.042969 25 10 L 23 10 L 23 9 L 24 7 L 21 7 L 21 5 L 15 5 L 15 7 L 12 7 L 13 9 L 13 10 L 11 10 C 11 10.058594 10.917969 10.316406 10.5625 10.5625 C 10.207031 10.808594 9.636719 11 9 11 C 8.367188 11 7.796875 10.8125 7.4375 10.5625 C 7.078125 10.3125 7 10.042969 7 10 L 7 5 Z "></path>
</g>
</svg>
