<?xml version="1.0"?>
<svg xmlns="http://www.w3.org/2000/svg" viewBox="0 0 32 32">
    <path d="M 3 5 L 3 23 L 6 23 L 6 28.441406 L 11.355469 23 L 15 23 L 15 21 L 10.517578 21 L 8 23.558594 L 8 21 L 5 21 L 5 7 L 27 7 L 27 20 L 29 20 L 29 5 L 3 5 z M 22 13.900391 L 12.300781 32 L 31.699219 32 L 22 13.900391 z M 22 18.099609 L 28.400391 30 L 15.699219 30 L 22 18.099609 z M 21 21 L 21 26 L 23 26 L 23 21 L 21 21 z M 21 27 L 21 29 L 23 29 L 23 27 L 21 27 z" font-weight="400" font-family="sans-serif" white-space="normal" overflow="visible"></path>
</svg>
