<?xml version="1.0" encoding="UTF-8"?>
<svg xmlns="http://www.w3.org/2000/svg" xmlns:xlink="http://www.w3.org/1999/xlink" viewBox="0 0 32 32" version="1.1">
<g>
<path d="M 15 3 L 15 6 L 17 6 L 17 3 Z M 4.71875 3.28125 L 3.28125 4.71875 L 5.46875 6.875 L 6.875 5.46875 Z M 28.28125 3.3125 L 26.1875 5.5 L 27.625 6.875 L 29.71875 4.6875 Z M 5 8 L 5 13.5625 L 3.28125 15.28125 L 2.59375 16 L 3.28125 16.71875 L 5 18.4375 L 5 24 L 28 24 L 28 8 Z M 7 10 L 26 10 L 26 22 L 7 22 L 7 17.59375 L 6.71875 17.28125 L 5.4375 16 L 6.71875 14.71875 L 7 14.40625 Z M 11 12 L 11 14 L 22 14 L 22 12 Z M 11 15 L 11 17 L 20 17 L 20 15 Z M 11 18 L 11 20 L 22 20 L 22 18 Z M 5.46875 25.125 L 3.28125 27.28125 L 4.71875 28.71875 L 6.875 26.53125 Z M 27.625 25.125 L 26.1875 26.5 L 28.28125 28.6875 L 29.71875 27.3125 Z M 15 26 L 15 29 L 17 29 L 17 26 Z "></path>
</g>
</svg>
