<?xml version="1.0" encoding="UTF-8"?>
<svg xmlns="http://www.w3.org/2000/svg" xmlns:xlink="http://www.w3.org/1999/xlink" viewBox="0 0 32 32" version="1.1">
<g>
<path d="M 16.84375 4 L 10.84375 5 L 11.15625 7 L 17.15625 6 Z M 19.03125 5.96875 L 18.8125 6.03125 L 8.8125 8.03125 L 7.03125 8.375 L 8.28125 9.6875 C 8.28125 9.6875 11 12.609375 11 17 L 11 18.59375 L 12.4375 17.90625 C 14.335938 16.984375 20.8125 15 25 15 L 26.21875 15 L 25.96875 13.78125 C 24.636719 7.417969 19.21875 6.03125 19.21875 6.03125 Z M 18.90625 8.03125 C 19.109375 8.078125 22.191406 8.992188 23.59375 13.125 C 19.59375 13.394531 15.351563 14.644531 12.8125 15.6875 C 12.472656 12.65625 11.488281 10.835938 10.65625 9.6875 Z M 2 15 L 2 20.40625 L 2.28125 20.71875 L 3.125 21.5625 C 3.1875 21.769531 3.378906 22.335938 3.75 23.25 C 3.976563 23.800781 4.21875 24.402344 4.53125 24.96875 C 4.363281 24.996094 4.183594 25 4 25 C 3.367188 25 2.796875 24.8125 2.4375 24.5625 C 2.078125 24.3125 2 24.042969 2 24 L 0 24 C 0 24.941406 0.589844 25.683594 1.3125 26.1875 C 2.035156 26.691406 2.960938 27 4 27 C 5.035156 27 5.960938 26.691406 6.6875 26.1875 C 6.800781 26.109375 6.894531 26.027344 7 25.9375 C 7.101563 26.023438 7.203125 26.113281 7.3125 26.1875 C 8.035156 26.691406 8.960938 27 10 27 C 11.035156 27 11.960938 26.691406 12.6875 26.1875 C 12.800781 26.109375 12.894531 26.027344 13 25.9375 C 13.101563 26.023438 13.203125 26.113281 13.3125 26.1875 C 14.035156 26.691406 14.960938 27 16 27 C 17.035156 27 17.960938 26.691406 18.6875 26.1875 C 18.800781 26.109375 18.894531 26.027344 19 25.9375 C 19.101563 26.023438 19.203125 26.113281 19.3125 26.1875 C 20.035156 26.691406 20.960938 27 22 27 C 23.035156 27 23.960938 26.691406 24.6875 26.1875 C 24.800781 26.109375 24.894531 26.027344 25 25.9375 C 25.101563 26.023438 25.203125 26.113281 25.3125 26.1875 C 26.035156 26.691406 26.960938 27 28 27 C 29.035156 27 29.960938 26.691406 30.6875 26.1875 C 31.414063 25.683594 32 24.941406 32 24 L 30 24 C 30 24.058594 29.917969 24.316406 29.5625 24.5625 C 29.207031 24.808594 28.636719 25 28 25 C 27.617188 25 27.273438 24.921875 26.96875 24.8125 C 28.363281 23.539063 30 21.15625 30 17 L 30 16 L 21.46875 16 L 21.15625 16.4375 L 19.4375 19 L 9.625 19 L 7.625 15 Z M 4 17 L 6.375 17 L 8.375 21 L 20.53125 21 L 20.84375 20.5625 L 22.5625 18 L 27.875 18 C 27.539063 22.003906 25.539063 23.558594 24.75 24 L 24 24 C 24 24.058594 23.917969 24.316406 23.5625 24.5625 C 23.207031 24.808594 22.636719 25 22 25 C 21.367188 25 20.796875 24.8125 20.4375 24.5625 C 20.078125 24.3125 20 24.042969 20 24 L 18 24 C 18 24.058594 17.917969 24.316406 17.5625 24.5625 C 17.207031 24.808594 16.636719 25 16 25 C 15.367188 25 14.796875 24.8125 14.4375 24.5625 C 14.078125 24.3125 14 24.042969 14 24 L 12 24 C 12 24.058594 11.917969 24.316406 11.5625 24.5625 C 11.207031 24.808594 10.636719 25 10 25 C 9.367188 25 8.796875 24.8125 8.4375 24.5625 C 8.078125 24.3125 8 24.042969 8 24 L 6.3125 24 C 6.050781 23.535156 5.800781 23.003906 5.59375 22.5 C 5.199219 21.535156 4.96875 20.71875 4.96875 20.71875 L 4.875 20.46875 L 4.71875 20.28125 L 4 19.5625 Z M 25 19 C 24.449219 19 24 19.449219 24 20 C 24 20.550781 24.449219 21 25 21 C 25.550781 21 26 20.550781 26 20 C 26 19.449219 25.550781 19 25 19 Z "></path>
</g>
</svg>
