<?xml version="1.0" encoding="UTF-8"?>
<svg xmlns="http://www.w3.org/2000/svg" xmlns:xlink="http://www.w3.org/1999/xlink" viewBox="0 0 32 32" version="1.1">
<g>
<path d="M 6 4 L 6 6 L 9 6 L 9 10 C 9 12.53125 10.375 14.769531 12.40625 16 C 10.375 17.230469 9 19.46875 9 22 L 9 26 L 6 26 L 6 28 L 26 28 L 26 26 L 23 26 L 23 22 C 23 19.46875 21.625 17.230469 19.59375 16 C 21.625 14.769531 23 12.53125 23 10 L 23 6 L 26 6 L 26 4 Z M 11 6 L 21 6 L 21 9 L 11 9 Z M 11.09375 11 L 20.90625 11 C 20.4375 13.273438 18.410156 15 16 15 C 13.589844 15 11.5625 13.273438 11.09375 11 Z M 16 17 C 18.753906 17 21 19.246094 21 22 L 21 23.5 C 20.511719 22.910156 19.96875 22.359375 19.4375 21.875 C 17.988281 20.558594 16.53125 19.65625 16.53125 19.65625 L 16 19.3125 L 15.46875 19.65625 C 15.46875 19.65625 14.011719 20.558594 12.5625 21.875 C 12.03125 22.359375 11.488281 22.910156 11 23.5 L 11 22 C 11 19.246094 13.246094 17 16 17 Z M 16 21.75 C 16.382813 22.003906 17.023438 22.433594 18.0625 23.375 C 18.957031 24.1875 19.765625 25.171875 20.1875 26 L 11.8125 26 C 12.234375 25.171875 13.042969 24.1875 13.9375 23.375 C 14.976563 22.433594 15.617188 22.003906 16 21.75 Z "></path>
</g>
</svg>
