<?xml version="1.0" encoding="UTF-8"?>
<svg xmlns="http://www.w3.org/2000/svg" xmlns:xlink="http://www.w3.org/1999/xlink" viewBox="0 0 32 32" version="1.1">
<g>
<path d="M 16.25 3.03125 C 15.722656 3.074219 15.152344 3.195313 14.5625 3.40625 C 14.550781 3.410156 14.542969 3.402344 14.53125 3.40625 C 13.382813 3.816406 12.226563 4.789063 11.3125 6.1875 C 10.714844 7.105469 10.246094 8.234375 10.0625 9.5 C 9.640625 9.429688 9.203125 9.445313 8.8125 9.46875 C 8.011719 9.515625 7.269531 9.683594 6.90625 9.75 C 6.828125 9.761719 6.648438 9.78125 6.6875 9.78125 C 6.644531 9.78125 6.460938 9.710938 6.28125 9.53125 C 6.101563 9.351563 6 9.1875 6 9.1875 L 5.6875 8.6875 L 4.59375 8.6875 L 4.28125 9 C 3.757813 9.554688 2.789063 11.035156 3.03125 13.34375 C 3.285156 15.953125 4.757813 17.675781 6.1875 18.6875 C 6.640625 19.007813 7.066406 19.265625 7.46875 19.46875 C 7.253906 19.828125 7.085938 20.1875 7 20.53125 C 6.820313 21.234375 6.75 21.867188 6.625 22.25 C 6.441406 22.8125 5.59375 23.21875 5.59375 23.21875 L 4.9375 23.46875 L 4.9375 24.625 L 5.125 24.875 C 5.382813 25.242188 5.96875 25.964844 6.90625 26.65625 C 7.84375 27.347656 9.140625 28 10.71875 28 C 12.261719 28 14.566406 27.480469 16.3125 25.6875 C 17.167969 26.566406 18.414063 26.761719 18.65625 26.875 C 19.222656 27.132813 19.25 27.96875 19.25 27.96875 L 19.21875 29 L 20.5 29 L 20.625 28.96875 C 21.261719 28.804688 22.679688 28.203125 24 26.34375 L 24.0625 26.21875 C 25.265625 23.933594 25.25 21.707031 24.8125 20 C 24.660156 19.410156 24.480469 18.917969 24.28125 18.46875 C 24.984375 18.3125 25.835938 17.953125 26.4375 17.09375 L 26.46875 17.0625 L 26.46875 17.03125 C 26.449219 17.066406 26.792969 16.824219 27.21875 16.71875 C 27.644531 16.613281 28.03125 16.59375 28.03125 16.59375 L 28.875 16.53125 L 28.96875 15.6875 C 28.96875 15.6875 29.207031 13.539063 27.6875 11.5 C 26.902344 10.449219 25.636719 9.441406 24.03125 8.9375 C 23.226563 8.6875 22.335938 8.558594 21.40625 8.65625 C 21.132813 8.683594 20.84375 8.742188 20.5625 8.8125 C 20.476563 8.335938 20.316406 7.894531 20.125 7.53125 C 19.71875 6.769531 19.21875 6.148438 19.125 6 C 18.976563 5.71875 19 5.582031 19.0625 5.40625 C 19.125 5.230469 19.277344 5.074219 19.34375 5 L 19.59375 4.6875 L 19.59375 3.59375 L 18.9375 3.34375 C 18.9375 3.34375 18.460938 3.148438 17.65625 3.0625 C 17.257813 3.019531 16.777344 2.988281 16.25 3.03125 Z M 17.15625 5.03125 C 17.027344 5.578125 16.992188 6.230469 17.34375 6.90625 L 17.34375 6.9375 L 17.375 6.9375 C 17.683594 7.472656 18.09375 7.941406 18.375 8.46875 C 18.65625 8.996094 18.707031 9.363281 18.5625 9.65625 L 19.625 11.34375 C 21.03125 10.480469 22.292969 10.484375 23.4375 10.84375 C 24.582031 11.203125 25.578125 11.992188 26.09375 12.6875 C 26.691406 13.492188 26.867188 14.195313 26.9375 14.71875 C 26.84375 14.738281 26.851563 14.726563 26.75 14.75 C 26.136719 14.898438 25.335938 15.160156 24.8125 15.96875 L 24.78125 15.9375 C 24.402344 16.480469 23.40625 16.59375 23.09375 16.59375 L 21.6875 18 C 21.753906 18.066406 22.53125 19.128906 22.875 20.46875 C 23.214844 21.800781 23.246094 23.457031 22.3125 25.25 C 22.308594 25.261719 22.316406 25.269531 22.3125 25.28125 C 21.816406 25.949219 21.324219 26.398438 20.9375 26.65625 C 20.710938 26.066406 20.324219 25.4375 19.5 25.0625 C 18.480469 24.589844 17.722656 24.476563 17.5625 24 L 15.8125 23.0625 C 14.523438 25.457031 12.132813 26 10.71875 26 C 9.6875 26 8.796875 25.582031 8.09375 25.0625 C 7.734375 24.796875 7.636719 24.625 7.40625 24.375 C 7.835938 24.027344 8.292969 23.597656 8.53125 22.875 C 8.765625 22.164063 8.816406 21.511719 8.9375 21.03125 C 9.054688 20.574219 9.164063 20.34375 9.4375 20.15625 C 9.445313 20.15625 9.460938 20.15625 9.46875 20.15625 C 9.476563 20.152344 9.460938 20.128906 9.46875 20.125 L 9.78125 18.15625 C 9.722656 18.148438 8.441406 17.839844 7.34375 17.0625 C 6.246094 16.285156 5.226563 15.105469 5.03125 13.125 C 4.949219 12.332031 5.101563 11.714844 5.28125 11.25 C 5.640625 11.527344 6.066406 11.78125 6.6875 11.78125 C 7.058594 11.78125 7.164063 11.75 7.09375 11.75 L 7.1875 11.75 L 7.25 11.71875 C 7.675781 11.640625 8.34375 11.503906 8.9375 11.46875 C 9.53125 11.433594 10 11.597656 10.03125 11.625 L 12 11.40625 C 11.800781 9.773438 12.265625 8.355469 12.96875 7.28125 C 13.671875 6.207031 14.675781 5.503906 15.21875 5.3125 C 15.988281 5.03125 16.636719 5 17.15625 5.03125 Z M 15 11 L 15 12.0625 C 13.875 12.25 13 13.203125 13 14.375 C 13 15.226563 13.433594 15.972656 13.9375 16.4375 C 14.441406 16.902344 15.027344 17.195313 15.53125 17.46875 C 16.035156 17.742188 16.472656 17.976563 16.71875 18.1875 C 16.964844 18.398438 17 18.464844 17 18.625 C 17 18.847656 16.847656 19 16.625 19 L 15.375 19 C 15.152344 19 15 18.847656 15 18.625 L 15 18 L 13 18 L 13 18.625 C 13 19.796875 13.875 20.75 15 20.9375 L 15 22 L 17 22 L 17 20.9375 C 18.125 20.75 19 19.796875 19 18.625 C 19 17.792969 18.535156 17.085938 18.03125 16.65625 C 17.527344 16.226563 16.964844 15.953125 16.46875 15.6875 C 15.972656 15.421875 15.558594 15.160156 15.3125 14.9375 C 15.066406 14.714844 15 14.617188 15 14.375 C 15 14.152344 15.152344 14 15.375 14 L 16.625 14 C 16.847656 14 17 14.152344 17 14.375 L 17 15 L 19 15 L 19 14.375 C 19 13.203125 18.125 12.25 17 12.0625 L 17 11 Z "></path>
</g>
</svg>
