<?xml version="1.0" encoding="UTF-8"?>
<svg xmlns="http://www.w3.org/2000/svg" xmlns:xlink="http://www.w3.org/1999/xlink" viewBox="0 0 32 32" version="1.1">
<g>
<path d="M 25.9375 5 L 21.53125 17.125 C 20.828125 18.863281 19.15625 20 17.28125 20 L 8 20 C 5.792969 20 4 21.792969 4 24 C 4 26.207031 5.792969 28 8 28 L 15.5 28 C 18.015625 28 20.265625 26.425781 21.125 24.0625 L 28.0625 5 Z M 10 8 C 8.792969 8 7.691406 8.167969 6.8125 8.5 C 6.371094 8.664063 5.992188 8.855469 5.65625 9.15625 C 5.320313 9.457031 5 9.933594 5 10.5 L 5 13.5 C 5 14.066406 5.320313 14.542969 5.65625 14.84375 C 5.992188 15.144531 6.371094 15.335938 6.8125 15.5 C 7.691406 15.832031 8.792969 16 10 16 C 11.207031 16 12.308594 15.832031 13.1875 15.5 C 13.628906 15.335938 14.007813 15.144531 14.34375 14.84375 C 14.679688 14.542969 15 14.066406 15 13.5 L 15 10.5 C 15 9.933594 14.679688 9.457031 14.34375 9.15625 C 14.007813 8.855469 13.628906 8.664063 13.1875 8.5 C 12.308594 8.167969 11.207031 8 10 8 Z M 10 10 C 11.003906 10 11.902344 10.164063 12.46875 10.375 C 12.59375 10.421875 12.632813 10.453125 12.71875 10.5 C 12.632813 10.546875 12.59375 10.578125 12.46875 10.625 C 11.902344 10.835938 11.003906 11 10 11 C 8.996094 11 8.097656 10.835938 7.53125 10.625 C 7.40625 10.578125 7.367188 10.546875 7.28125 10.5 C 7.367188 10.453125 7.40625 10.421875 7.53125 10.375 C 8.097656 10.164063 8.996094 10 10 10 Z M 7 12.5625 C 7.847656 12.847656 8.875 13 10 13 C 11.125 13 12.152344 12.847656 13 12.5625 L 13 13.375 C 12.921875 13.4375 12.734375 13.527344 12.46875 13.625 C 11.902344 13.835938 11.003906 14 10 14 C 8.996094 14 8.097656 13.835938 7.53125 13.625 C 7.265625 13.527344 7.078125 13.4375 7 13.375 Z M 19.96875 21.4375 L 19.25 23.375 C 18.855469 24.457031 18.027344 25.269531 17 25.6875 L 17 22 L 17.28125 22 C 18.226563 22 19.144531 21.804688 19.96875 21.4375 Z M 8 22 L 8 26 C 6.898438 26 6 25.101563 6 24 C 6 22.898438 6.898438 22 8 22 Z M 10 22 L 15 22 L 15 26 L 10 26 Z "></path>
</g>
</svg>
