<?xml version="1.0"?>
<svg xmlns="http://www.w3.org/2000/svg" viewBox="0 0 32 32">
    <path d="M 12 1.5371094 L 6.4609375 14 L 8 14 L 8 16.414062 L 9 17.414062 L 9 21.166016 C 8.7113182 20.939103 8.4263639 20.692905 8.25 20.472656 C 8.0497701 20.222603 8 20.038354 8 20 L 8 19 L 6 19 L 6 17 L 4 17 L 4 19 L 3.3828125 19 L 2 21.763672 L 2 23.648438 L 0.99609375 24.900391 L 1.0273438 28.009766 L 3.0273438 27.990234 L 3.0039062 25.59375 L 4 24.351562 L 4 22.236328 L 4.6171875 21 L 6.3984375 21 C 6.5163375 21.23174 6.5352744 21.534505 6.6875 21.724609 C 7.0497701 22.177024 7.4810412 22.545841 7.8984375 22.859375 C 8.73323 23.486443 9.5507812 23.894531 9.5507812 23.894531 L 11 24.621094 L 11 16.585938 L 10 15.585938 L 10 12 L 9.5390625 12 L 12 6.4628906 L 14.460938 12 L 14 12 L 14 18 L 19 18 L 19 22 L 24 22 L 24 20.109375 L 25 15.611328 L 26 20.111328 L 26 22 L 28 22 L 28 20.146484 L 28.5 18.478516 L 29 20.146484 L 29 28 L 31 28 L 31 19.853516 L 28.5 11.519531 L 27.144531 16.039062 L 25 6.390625 L 22 19.890625 L 22 20 L 21 20 L 21 13 L 19 13 L 19 16 L 16 16 L 16 14 L 17.539062 14 L 12 1.5371094 z" font-weight="400" font-family="sans-serif" white-space="normal" overflow="visible"></path>
</svg>
