<?xml version="1.0" encoding="UTF-8"?>
<svg xmlns="http://www.w3.org/2000/svg" xmlns:xlink="http://www.w3.org/1999/xlink" viewBox="0 0 32 32" version="1.1">
<g>
<path d="M 13.84375 5 C 11.1875 5 9 7.1875 9 9.84375 L 9 20 L 2 20 L 2 25 L 9 25 L 9 27 L 30 27 L 30 9.84375 C 30 7.1875 27.8125 5 25.15625 5 Z M 13.84375 7 L 25.15625 7 C 26.734375 7 28 8.265625 28 9.84375 L 28 17 L 11 17 L 11 9.84375 C 11 8.265625 12.265625 7 13.84375 7 Z M 15.8125 9 C 14.269531 9 13 10.269531 13 11.8125 L 13 14 L 26 14 L 26 11.8125 C 26 10.269531 24.730469 9 23.1875 9 Z M 15.8125 11 L 23.1875 11 C 23.648438 11 24 11.351563 24 11.8125 L 24 12 L 15 12 L 15 11.8125 C 15 11.351563 15.351563 11 15.8125 11 Z M 11 19 L 13 19 L 13 22 L 15 22 L 15 19 L 24 19 L 24 22 L 26 22 L 26 19 L 28 19 L 28 25 L 11 25 Z M 4 22 L 9 22 L 9 23 L 4 23 Z "></path>
</g>
</svg>
