<?xml version="1.0" encoding="UTF-8"?>
<svg xmlns="http://www.w3.org/2000/svg" xmlns:xlink="http://www.w3.org/1999/xlink" viewBox="0 0 32 32" version="1.1">
<g>
<path d="M 16 3.90625 L 15.59375 4.09375 L 4.59375 9.09375 L 4 9.34375 L 4 28 L 28 28 L 28 9.34375 L 27.40625 9.09375 L 16.40625 4.09375 Z M 16 6.09375 L 26 10.625 L 26 26 L 6 26 L 6 10.625 Z M 12.875 10.9375 L 12.875 12.78125 L 13.34375 12.78125 C 12.761719 13.152344 12.230469 13.648438 11.84375 14.21875 L 11.84375 13.9375 L 9.84375 13.9375 L 9.84375 15.8125 L 11.15625 15.8125 C 11.0625 16.195313 11 16.585938 11 17 C 11 17.414063 11.0625 17.804688 11.15625 18.1875 L 9.84375 18.1875 L 9.84375 20.0625 L 11.84375 20.0625 L 11.84375 19.78125 C 12.230469 20.351563 12.761719 20.847656 13.34375 21.21875 L 12.875 21.21875 L 12.875 23.0625 L 14.875 23.0625 L 14.875 21.875 C 15.238281 21.960938 15.609375 22 16 22 C 16.390625 22 16.761719 21.960938 17.125 21.875 L 17.125 23.0625 L 19.125 23.0625 L 19.125 21.21875 L 18.65625 21.21875 C 19.238281 20.847656 19.769531 20.351563 20.15625 19.78125 L 20.15625 20.0625 L 22.15625 20.0625 L 22.15625 18.1875 L 20.84375 18.1875 C 20.9375 17.804688 21 17.414063 21 17 C 21 16.585938 20.9375 16.195313 20.84375 15.8125 L 22.15625 15.8125 L 22.15625 13.9375 L 20.15625 13.9375 L 20.15625 14.21875 C 19.769531 13.648438 19.238281 13.152344 18.65625 12.78125 L 19.125 12.78125 L 19.125 10.9375 L 17.125 10.9375 L 17.125 12.125 C 16.761719 12.039063 16.390625 12 16 12 C 15.609375 12 15.238281 12.039063 14.875 12.125 L 14.875 10.9375 Z M 16 14 C 17.652344 14 19 15.347656 19 17 C 19 18.652344 17.652344 20 16 20 C 14.347656 20 13 18.652344 13 17 C 13 15.347656 14.347656 14 16 14 Z "></path>
</g>
</svg>
