<?xml version="1.0"?>
<svg xmlns="http://www.w3.org/2000/svg" viewBox="0 0 32 32">
    <path d="M 9.5 3 C 5.362182 3 2 6.4035211 2 10.5 C 2 11.928333 2.6517943 13.153437 3.2519531 14.048828 C 3.852112 14.94422 4.4648436 15.544922 4.4648438 15.544922 L 7.2714844 18.353516 L 8.6855469 16.939453 L 5.8710938 14.123047 L 5.8691406 14.121094 C 5.8691406 14.121094 5.3974037 13.656655 4.9140625 12.935547 C 4.4307181 12.214485 4 11.271667 4 10.5 C 4 7.4964789 6.457818 5 9.5 5 C 12.486472 5 15.255859 7.9179686 15.255859 7.9179688 L 16 8.75 L 16.744141 7.9179688 C 16.744141 7.9179688 19.513528 5 22.5 5 C 25.542182 5 28 7.4964789 28 10.5 L 28 11 L 30 11 L 30 10.5 C 30 6.4035211 26.637818 3 22.5 3 C 19.067966 3 16.855454 5.0600745 16 5.9316406 C 15.144546 5.0600745 12.932034 3 9.5 3 z M 22.410156 9.9863281 L 21.703125 10.693359 L 18.365234 14.03125 L 18.033203 14.03125 L 14.46875 14.03125 A 1.0001 1.0001 0 0 0 13.753906 14.332031 L 10.271484 17.880859 C 8.9431568 19.20979 8.8405438 20.814602 9.2089844 21.865234 C 9.577425 22.915867 10.298828 23.564453 10.298828 23.564453 C 10.326348 23.591993 12.442836 25.709455 14.515625 27.78125 C 15.798396 29.063406 17.388006 29.14791 18.435547 28.806641 C 19.483088 28.465372 20.160156 27.792969 20.160156 27.792969 A 1.0001 1.0001 0 0 0 20.171875 27.779297 L 27.980469 19.970703 L 28.6875 19.263672 L 27.273438 17.849609 L 26.566406 18.556641 L 18.769531 26.353516 C 18.769531 26.353516 18.368866 26.724316 17.816406 26.904297 C 17.263947 27.084278 16.732917 27.168078 15.929688 26.365234 C 13.843917 24.280464 11.685547 22.123047 11.685547 22.123047 A 1.0001 1.0001 0 0 0 11.658203 22.095703 C 11.658203 22.095703 11.278013 21.722992 11.095703 21.203125 C 10.913394 20.683258 10.810875 20.169991 11.685547 19.294922 A 1.0001 1.0001 0 0 0 11.693359 19.287109 L 14.888672 16.03125 L 16.365234 16.03125 L 15.222656 17.173828 L 14.515625 17.880859 L 15.929688 19.294922 L 16.636719 18.587891 L 23.117188 12.107422 L 23.824219 11.400391 L 22.410156 9.9863281 z M 25.53125 11.107422 L 24.824219 11.814453 L 18.757812 17.880859 L 18.050781 18.587891 L 19.464844 20.001953 L 20.171875 19.294922 L 26.238281 13.228516 L 26.945312 12.521484 L 25.53125 11.107422 z M 26.652344 14.228516 L 25.945312 14.935547 L 20.878906 20.001953 L 20.171875 20.708984 L 21.585938 22.123047 L 22.292969 21.416016 L 27.359375 16.349609 L 28.066406 15.642578 L 26.652344 14.228516 z" font-weight="400" font-family="sans-serif" white-space="normal" overflow="visible"></path>
</svg>
