<?xml version="1.0" encoding="UTF-8"?>
<svg xmlns="http://www.w3.org/2000/svg" xmlns:xlink="http://www.w3.org/1999/xlink" viewBox="0 0 32 32" version="1.1">
<g>
<path d="M 3 6 L 3 22 L 3.851563 22 L 14.675781 25.328125 L 14.6875 25.328125 C 15.332031 25.511719 15.996094 25.445313 16.574219 25.203125 C 16.921875 25.707031 17.433594 26.109375 18.0625 26.285156 L 24.898438 28.226563 L 26.886719 22 L 29 22 L 29 6 L 21 6 C 20.230469 6 19.535156 6.304688 19 6.789063 C 18.464844 6.304688 17.769531 6 17 6 Z M 5 8 L 17 8 C 17.566406 8 18 8.433594 18 9 L 20 9 C 20 8.433594 20.433594 8 21 8 L 27 8 L 27 20 L 21 20 C 20.433594 20 20 19.566406 20 19 L 18 19 C 18 19.566406 17.566406 20 17 20 L 5 20 Z M 10.09375 10 C 8.421875 10 7 11.335938 7 13.007813 C 7 14.660156 8.140625 15.835938 9.117188 16.632813 C 10.09375 17.429688 11.0625 17.898438 11.0625 17.898438 L 11.5 18.113281 L 11.9375 17.898438 C 11.9375 17.898438 12.90625 17.429688 13.882813 16.632813 C 14.859375 15.835938 16 14.660156 16 13.007813 C 16 11.335938 14.578125 10 12.90625 10 C 12.386719 10 11.949219 10.28125 11.5 10.519531 C 11.050781 10.285156 10.613281 10 10.09375 10 Z M 18 10 L 18 12 L 20 12 L 20 10 Z M 22 10 L 22 13 L 25 13 L 25 10 Z M 10.09375 12 C 10.382813 12 10.648438 12.101563 10.84375 12.273438 L 11.5 12.84375 L 12.15625 12.273438 C 12.351563 12.101563 12.617188 12 12.90625 12 C 13.539063 12 14 12.46875 14 13.007813 C 14 13.636719 13.390625 14.453125 12.617188 15.082031 C 12.0625 15.535156 11.773438 15.664063 11.5 15.8125 C 11.226563 15.664063 10.9375 15.535156 10.382813 15.082031 C 9.609375 14.453125 9 13.636719 9 13.007813 C 9 12.46875 9.460938 12 10.09375 12 Z M 18 13 L 18 15 L 20 15 L 20 13 Z M 18 16 L 18 18 L 20 18 L 20 16 Z M 22 16 L 22 18 L 25 18 L 25 16 Z M 19 21.214844 C 19.535156 21.695313 20.230469 22 21 22 L 24.78125 22 L 23.578125 25.773438 L 18.609375 24.363281 C 18.175781 24.242188 18.003906 23.898438 18.113281 23.546875 L 18.8125 21.355469 C 18.875 21.304688 18.941406 21.265625 19 21.214844 Z M 10.660156 22 L 16.507813 22 L 16.207031 22.9375 C 16.097656 23.289063 15.671875 23.527344 15.234375 23.40625 Z "></path>
</g>
</svg>
