<?xml version="1.0" encoding="UTF-8"?>
<svg xmlns="http://www.w3.org/2000/svg" xmlns:xlink="http://www.w3.org/1999/xlink" viewBox="0 0 32 32" version="1.1">
<g>
<path d="M 11 4 C 9.355469 4 8 5.355469 8 7 L 8 8.5625 C 6.816406 9.257813 6 10.535156 6 12 L 6 26 C 6 27.09375 6.90625 28 8 28 L 24 28 C 25.09375 28 26 27.09375 26 26 L 26 12 C 26 10.535156 25.183594 9.257813 24 8.5625 L 24 7 C 24 5.355469 22.644531 4 21 4 Z M 11 6 L 21 6 C 21.566406 6 22 6.433594 22 7 L 22 8 L 10 8 L 10 7 C 10 6.433594 10.433594 6 11 6 Z M 10 10 L 22 10 C 23.117188 10 24 10.882813 24 12 L 24 26 L 8 26 L 8 12 C 8 10.882813 8.882813 10 10 10 Z M 15.9375 12 L 15.65625 12.5 L 14.46875 14.5 L 11.4375 14.5 L 11.15625 15 L 9.65625 17.5 L 9.34375 18 L 9.65625 18.5 L 11.15625 21 L 11.4375 21.5 L 14.46875 21.5 L 15.65625 23.5 L 15.9375 24 L 20.0625 24 L 20.34375 23.5 L 21.84375 21 L 22.15625 20.5 L 21.84375 20 L 20.65625 18 L 21.84375 16 L 22.15625 15.5 L 21.84375 15 L 20.34375 12.5 L 20.0625 12 Z M 17.03125 14 L 18.96875 14 L 19.84375 15.5 L 18.96875 17 L 17.03125 17 L 16.15625 15.5 Z M 12.5625 16.5 L 14.4375 16.5 L 15.34375 18 L 14.4375 19.5 L 12.5625 19.5 L 11.6875 18 Z M 17.03125 19 L 18.96875 19 L 19.84375 20.5 L 18.96875 22 L 17.03125 22 L 16.15625 20.5 Z "></path>
</g>
</svg>
