<?xml version="1.0" encoding="UTF-8"?>
<svg xmlns="http://www.w3.org/2000/svg" xmlns:xlink="http://www.w3.org/1999/xlink" viewBox="0 0 32 32" version="1.1">
<g>
<path d="M 28.015625 5.445313 L 26.613281 4.019531 L 24.289063 6.308594 C 22.925781 5.34375 20.539063 4 17.8125 4 C 13.632813 4 11.386719 6.199219 11.292969 6.292969 L 10.695313 6.890625 L 11.183594 7.578125 C 11.1875 7.582031 11.195313 7.589844 11.199219 7.597656 C 9.695313 8.34375 7.503906 10.007813 6.070313 13.632813 L 5.753906 14.429688 L 6.089844 14.628906 C 5.136719 15.910156 4 18.054688 4 21 L 4 21.988281 L 4.988281 22 C 5.011719 22 5.046875 22 5.097656 22 C 5.191406 22 5.335938 22 5.503906 21.992188 C 4.980469 23.773438 4.996094 25.742188 5 26.019531 L 5.019531 26.980469 L 5.980469 27 C 6.015625 27 6.074219 27 6.15625 27 C 6.742188 27 8.445313 26.957031 10.007813 26.496094 C 9.996094 26.757813 10 26.941406 10 27.011719 L 10.011719 28 L 11 28 C 13.945313 28 16.089844 26.863281 17.371094 25.90625 L 17.566406 26.246094 L 18.367188 25.929688 C 21.992188 24.496094 23.65625 22.304688 24.402344 20.800781 C 24.410156 20.804688 24.421875 20.8125 24.421875 20.816406 L 25.144531 21.324219 L 25.738281 20.675781 C 25.832031 20.574219 28.003906 18.152344 28.003906 14 C 28.003906 11.402344 26.714844 9.121094 25.703125 7.726563 Z M 12.710938 9.117188 C 13.609375 9.828125 14.890625 10.578125 16.539063 10.871094 C 16.390625 11.355469 16.285156 11.851563 16.203125 12.328125 C 15.320313 12.894531 11.734375 14.945313 8.296875 13.527344 C 9.765625 10.453125 11.808594 9.429688 12.710938 9.117188 Z M 16.140625 19.351563 C 15.441406 19.75 13.53125 20.722656 11.050781 20.949219 C 11.28125 18.488281 12.246094 16.574219 12.648438 15.867188 C 13.976563 15.625 15.136719 15.164063 16 14.738281 C 16 14.867188 16 14.972656 16 15.019531 L 16.019531 15.980469 L 16.980469 16 C 17.027344 16 17.132813 16 17.261719 16 C 16.835938 16.863281 16.378906 18.027344 16.140625 19.351563 Z M 7.929688 15.515625 C 8.746094 15.808594 9.554688 15.960938 10.339844 16.003906 C 9.964844 16.828125 9.554688 17.9375 9.285156 19.246094 C 8.417969 19.691406 7.066406 19.890625 6.058594 19.960938 C 6.304688 17.828125 7.253906 16.339844 7.929688 15.515625 Z M 7.03125 24.96875 C 7.097656 23.984375 7.296875 22.671875 7.738281 21.773438 C 8.160156 21.703125 8.59375 21.613281 9.015625 21.492188 C 9.007813 21.660156 9 21.828125 9 22 L 9 23 L 10 23 C 10.171875 23 10.34375 22.992188 10.511719 22.984375 C 10.386719 23.414063 10.289063 23.855469 10.21875 24.28125 C 9.324219 24.714844 8.007813 24.902344 7.03125 24.96875 Z M 12.753906 22.714844 C 14.058594 22.445313 15.164063 22.039063 15.984375 21.667969 C 16.03125 22.449219 16.191406 23.257813 16.484375 24.070313 C 15.65625 24.746094 14.15625 25.695313 12.039063 25.941406 C 12.109375 24.933594 12.308594 23.582031 12.753906 22.714844 Z M 18.472656 23.703125 C 17.054688 20.265625 19.105469 16.679688 19.671875 15.796875 C 20.148438 15.71875 20.648438 15.609375 21.128906 15.460938 C 21.421875 17.109375 22.171875 18.394531 22.882813 19.292969 C 22.570313 20.183594 21.550781 22.230469 18.472656 23.703125 Z M 24.828125 18.496094 C 24.066406 17.679688 23 16.152344 23 14 L 23 12.222656 L 21.480469 13.144531 C 20.601563 13.679688 19.105469 13.894531 18.03125 13.96875 C 18.101563 12.894531 18.316406 11.402344 18.855469 10.519531 L 19.777344 9 L 18 9 C 15.816406 9 14.28125 7.90625 13.472656 7.144531 C 14.285156 6.644531 15.738281 6 17.8125 6 C 20.367188 6 22.675781 7.5625 23.644531 8.324219 C 24.484375 9.359375 26 11.570313 26 14 C 26 16.074219 25.335938 17.621094 24.828125 18.496094 Z "></path>
</g>
</svg>
