<?xml version="1.0" encoding="UTF-8"?>
<svg xmlns="http://www.w3.org/2000/svg" xmlns:xlink="http://www.w3.org/1999/xlink" viewBox="0 0 32 32" version="1.1">
<g>
<path d="M 27.5625 2.59375 L 27.28125 2.8125 C 27.28125 2.8125 26.695313 3.257813 25.875 3.71875 C 25.054688 4.179688 24.003906 4.59375 23.40625 4.59375 L 23.3125 4.59375 C 23.3125 4.59375 23.332031 5.066406 23.34375 5.53125 L 22.71875 4.875 C 18.714844 8.679688 11.71875 15.375 11.71875 15.375 L 10.96875 16.0625 L 11.03125 16.125 L 3.3125 23.59375 L 2.59375 24.28125 L 3.28125 25 L 5.875 27.6875 L 6.21875 28.03125 L 6.6875 28 C 6.6875 28 7.738281 27.933594 9.03125 27.625 C 10.324219 27.316406 11.894531 26.824219 13 25.71875 C 13.953125 24.765625 14.398438 23.875 14.8125 23.09375 C 15.117188 22.519531 15.429688 21.960938 16 21.28125 L 16.78125 22.09375 L 17.46875 22.8125 L 18.1875 22.125 C 23.417969 16.996094 26.113281 13.726563 27.53125 11 C 28.949219 8.273438 29 6.101563 29 3.59375 L 29 2.59375 Z M 26.90625 5.4375 C 26.835938 6.96875 26.636719 8.386719 25.75 10.09375 C 24.585938 12.332031 22.09375 15.390625 17.5 19.96875 L 13.8125 16.125 C 14.613281 15.359375 20.148438 10.074219 23.90625 6.5 C 25.003906 6.371094 26.019531 5.933594 26.84375 5.46875 C 26.878906 5.449219 26.875 5.457031 26.90625 5.4375 Z M 26 13.5 C 26 13.5 24.5 16.699219 24.5 17.5 C 24.5 18.300781 25.199219 19 26 19 C 26.800781 19 27.5 18.300781 27.5 17.5 C 27.5 16.699219 26 13.5 26 13.5 Z M 12.4375 17.5625 L 14.59375 19.8125 C 13.816406 20.714844 13.375 21.507813 13.03125 22.15625 C 12.59375 22.976563 12.339844 23.535156 11.59375 24.28125 C 11 24.875 9.722656 25.386719 8.59375 25.65625 C 7.6875 25.871094 7.207031 25.910156 6.9375 25.9375 L 5.40625 24.3125 Z M 23.5 21 C 23.5 21 22.5 22.398438 22.5 23 C 22.5 23.601563 22.898438 24 23.5 24 C 24.101563 24 24.5 23.601563 24.5 23 C 24.5 22.398438 23.5 21 23.5 21 Z "></path>
</g>
</svg>
