<?xml version="1.0" encoding="UTF-8"?>
<svg xmlns="http://www.w3.org/2000/svg" xmlns:xlink="http://www.w3.org/1999/xlink" viewBox="0 0 32 32" version="1.1">
<g>
<path d="M 16 4 C 9.9375 4 5 8.9375 5 15 C 5 17.980469 6.007813 20.054688 6.9375 21.6875 C 7.867188 23.320313 8.625 24.484375 8.625 26 L 7 26 L 7 28 L 11 28 L 11 26 C 11 22.246094 10 18.851563 10 15 C 10 11.476563 12.476563 9 16 9 C 19.523438 9 22 11.476563 22 15 C 22 18.851563 21 22.246094 21 26 L 21 28 L 25 28 L 25 26 L 23.375 26 C 23.375 24.535156 24.132813 23.363281 25.0625 21.71875 C 25.992188 20.074219 27 17.980469 27 15 C 27 8.9375 22.0625 4 16 4 Z M 16 6 C 20.984375 6 25 10.015625 25 15 C 25 17.277344 24.335938 18.796875 23.5625 20.21875 C 23.785156 18.585938 24 16.871094 24 15 C 24 10.488281 20.511719 7 16 7 C 11.488281 7 8 10.488281 8 15 C 8 16.859375 8.21875 18.5625 8.4375 20.1875 C 7.664063 18.773438 7 17.277344 7 15 C 7 10.015625 11.015625 6 16 6 Z "></path>
</g>
</svg>
