<?xml version="1.0" encoding="UTF-8"?>
<svg xmlns="http://www.w3.org/2000/svg" xmlns:xlink="http://www.w3.org/1999/xlink" viewBox="0 0 32 32" version="1.1">
<g>
<path d="M 16 3 C 15.230469 3 14.457031 3.292969 13.875 3.875 L 13.75 4.03125 L 4.03125 13.75 L 3.875 13.875 C 2.710938 15.039063 2.710938 16.960938 3.875 18.125 L 13.875 28.125 C 15.039063 29.289063 16.960938 29.289063 18.125 28.125 L 28.125 18.125 C 29.289063 16.960938 29.289063 15.039063 28.125 13.875 L 18.125 3.875 C 17.542969 3.292969 16.769531 3 16 3 Z M 16 5 C 16.253906 5 16.519531 5.082031 16.71875 5.28125 L 26.71875 15.28125 C 27.117188 15.679688 27.117188 16.320313 26.71875 16.71875 L 16.71875 26.71875 C 16.320313 27.117188 15.679688 27.117188 15.28125 26.71875 L 5.28125 16.71875 C 4.882813 16.320313 4.882813 15.679688 5.28125 15.28125 L 15.28125 5.28125 C 15.480469 5.082031 15.746094 5 16 5 Z M 18.59375 9.90625 C 17.761719 10 16.867188 10.109375 16.3125 11.21875 C 13.539063 11.496094 11.125 13.320313 9 16.09375 L 13.90625 21 C 14.921875 19.984375 13.902344 17.949219 15.75 16.65625 C 16.210938 18.6875 18.605469 18.414063 19.4375 18.96875 C 19.898438 19.246094 20.167969 20.367188 21.09375 19.71875 C 21.464844 19.71875 21.65625 19.523438 21.65625 18.96875 C 21.839844 18.507813 22.210938 18.242188 21.84375 17.6875 C 19.535156 14.914063 20.351563 14.25 18.6875 12.21875 C 18.503906 12.035156 18.789063 12.125 19.25 12.21875 C 19.066406 11.386719 18.15625 11.03125 18.15625 11.03125 Z M 19.4375 10.5625 C 19.183594 10.574219 18.871094 10.613281 18.6875 10.75 L 18.59375 11.03125 C 18.59375 11.03125 18.972656 11.285156 19.15625 11.46875 C 19.339844 11.191406 19.90625 10.5625 19.90625 10.5625 C 19.90625 10.5625 19.691406 10.550781 19.4375 10.5625 Z "></path>
</g>
</svg>
