<?xml version="1.0" encoding="UTF-8"?>
<svg xmlns="http://www.w3.org/2000/svg" xmlns:xlink="http://www.w3.org/1999/xlink" viewBox="0 0 32 32" version="1.1">
<g>
<path d="M 12.0625 4.09375 C 12.0625 4.09375 11 6.152344 11 8.59375 C 11 9.835938 11.597656 10.871094 12.09375 11.84375 C 12.589844 12.816406 13 13.71875 13 14.4375 C 13 15.664063 12.558594 17.441406 12.28125 18.34375 L 14.1875 18.9375 C 14.5 17.925781 15 16.097656 15 14.4375 C 15 13.078125 14.410156 11.933594 13.90625 10.9375 C 13.402344 9.941406 13 9.050781 13 8.59375 C 13 6.75 13.84375 5 13.84375 5 Z M 15 8.1875 C 15 9.445313 15.601563 10.511719 16.09375 11.59375 C 16.585938 12.675781 17 13.75 17 14.78125 C 17 16.707031 16.0625 19.5 16.0625 19.5 L 17.9375 20.15625 C 17.9375 20.15625 19 17.304688 19 14.78125 C 19 13.234375 18.414063 11.90625 17.90625 10.78125 C 17.398438 9.65625 17 8.6875 17 8.1875 Z M 11 13.71875 C 7.992188 14.65625 6 16.425781 6 18.5 C 6 21.585938 10.394531 24 16 24 C 21.605469 24 26 21.585938 26 18.5 C 26 16.425781 24.007813 14.65625 21 13.71875 L 21 15.8125 C 22.871094 16.503906 24 17.53125 24 18.5 C 24 20.15625 20.714844 22 16 22 C 11.285156 22 8 20.15625 8 18.5 C 8 17.53125 9.128906 16.503906 11 15.8125 Z M 4.03125 22 C 4.492188 25.402344 9.585938 28 16 28 C 22.414063 28 27.507813 25.402344 27.96875 22 L 25.90625 22 C 25.332031 23.984375 21.433594 26 16 26 C 10.566406 26 6.667969 23.984375 6.09375 22 Z "></path>
</g>
</svg>
