<?xml version="1.0" encoding="UTF-8"?>
<svg xmlns="http://www.w3.org/2000/svg" xmlns:xlink="http://www.w3.org/1999/xlink" viewBox="0 0 32 32" version="1.1">
<g>
<path d="M 6 3 L 6 29 L 26 29 L 26 9.59375 L 25.71875 9.28125 L 19.71875 3.28125 L 19.40625 3 Z M 8 5 L 18 5 L 18 11 L 24 11 L 24 27 L 8 27 Z M 20 6.4375 L 22.5625 9 L 20 9 Z M 16.03125 12.625 L 15.34375 13.25 C 15.34375 13.25 14.285156 14.171875 13.25 15.5 C 12.214844 16.828125 11.09375 18.566406 11.09375 20.5 C 11.09375 21.859375 11.648438 23.0625 12.5625 23.84375 C 13.476563 24.625 14.703125 25 16 25 C 17.3125 25 18.535156 24.574219 19.4375 23.78125 C 20.339844 22.988281 20.90625 21.820313 20.90625 20.5 C 20.90625 18.730469 19.769531 17.09375 18.75 15.71875 C 17.730469 14.34375 16.71875 13.3125 16.71875 13.3125 Z M 15.96875 15.5 C 16.324219 15.886719 16.566406 16.113281 17.15625 16.90625 C 18.085938 18.15625 18.90625 19.769531 18.90625 20.5 C 18.90625 21.28125 18.621094 21.847656 18.125 22.28125 C 17.984375 22.402344 17.832031 22.5 17.65625 22.59375 C 17.671875 22.496094 17.6875 22.414063 17.6875 22.3125 C 17.6875 19.710938 16.40625 18.1875 16.40625 18.1875 C 16.40625 18.1875 16.511719 20.5 15.8125 20.5 C 15.3125 20.5 14.8125 19.8125 14.8125 19.8125 C 14.8125 19.8125 14.3125 20.914063 14.3125 22.3125 C 14.3125 22.425781 14.320313 22.515625 14.34375 22.625 C 14.167969 22.535156 14.011719 22.429688 13.875 22.3125 C 13.386719 21.894531 13.09375 21.34375 13.09375 20.5 C 13.09375 19.433594 13.929688 17.921875 14.84375 16.75 C 15.414063 16.019531 15.621094 15.84375 15.96875 15.5 Z "></path>
</g>
</svg>
