<?xml version="1.0" encoding="UTF-8"?>
<svg xmlns="http://www.w3.org/2000/svg" xmlns:xlink="http://www.w3.org/1999/xlink" viewBox="0 0 32 32" version="1.1">
<g>
<path d="M 17 3 C 14.238281 3 12 5.238281 12 8 C 12 10.761719 14.238281 13 17 13 C 19.761719 13 22 10.761719 22 8 C 22 5.238281 19.761719 3 17 3 Z M 16 5 L 18 5 L 18 7 L 16 7 Z M 16 8 L 18 8 L 18 11 L 16 11 Z M 6.5 11 C 5.132813 11 4 12.132813 4 13.5 L 4 28 L 9 28 L 9 26 L 23 26 L 23 28 L 28 28 L 28 17 C 28 15.355469 26.644531 14 25 14 L 13 14 L 13 14.5625 C 12.40625 14.214844 11.734375 14 11 14 C 10.265625 14 9.59375 14.214844 9 14.5625 L 9 13.5 C 9 12.132813 7.867188 11 6.5 11 Z M 6.5 13 C 6.785156 13 7 13.214844 7 13.5 L 7 22 L 26 22 L 26 26 L 25 26 L 25 24 L 7 24 L 7 26 L 6 26 L 6 13.5 C 6 13.214844 6.214844 13 6.5 13 Z M 11 16 C 12.117188 16 13 16.882813 13 18 C 13 19.117188 12.117188 20 11 20 C 9.882813 20 9 19.117188 9 18 C 9 16.882813 9.882813 16 11 16 Z M 15 16 L 25 16 C 25.566406 16 26 16.433594 26 17 L 26 20 L 15 20 Z "></path>
</g>
</svg>
