<?xml version="1.0" encoding="UTF-8"?>
<svg xmlns="http://www.w3.org/2000/svg" xmlns:xlink="http://www.w3.org/1999/xlink" viewBox="0 0 32 32" version="1.1">
<g>
<path d="M 8.0625 5 L 7.9375 7 C 7.9375 7 9.234375 7.085938 10.71875 7.375 C 11.1875 7.464844 11.667969 7.609375 12.125 7.75 C 11.996094 7.828125 11.898438 7.917969 11.78125 8 L 3.5 8 L 4.09375 9.375 C 4.09375 9.375 4.609375 10.613281 5.84375 11.75 C 6.398438 12.261719 7.121094 12.753906 8 13.15625 C 7.96875 13.566406 7.796875 13.820313 7.53125 14.0625 C 7.230469 14.335938 6.75 14.566406 6.21875 14.71875 C 5.152344 15.023438 4.03125 15 4.03125 15 L 3.96875 17 C 3.96875 17 5.347656 17.039063 6.78125 16.625 C 7.5 16.417969 8.269531 16.113281 8.90625 15.53125 C 9.378906 15.101563 9.746094 14.492188 9.90625 13.78125 C 10.550781 13.914063 11.234375 14 12 14 L 12 12 C 9.59375 12 8.125 11.113281 7.1875 10.25 C 7.046875 10.121094 7.113281 10.125 7 10 L 12.40625 10 L 12.6875 9.71875 C 12.6875 9.71875 12.773438 9.640625 13.28125 9.4375 C 13.789063 9.234375 14.644531 9 16 9 C 18.484375 9 20.3125 10.71875 20.3125 10.71875 L 20.53125 10.9375 L 20.84375 11 L 26.59375 11.8125 L 25.71875 14.0625 C 25.5625 14.457031 25.121094 14.632813 24.71875 14.5 C 22.855469 13.878906 19.988281 13 18 13 C 16.816406 13 15.894531 13.597656 15.46875 14.28125 C 15.042969 14.964844 15 15.625 15 16 C 15 17.082031 15.695313 17.792969 16.4375 18.4375 C 17.179688 19.082031 18.089844 19.644531 19 20.15625 C 20.207031 20.835938 20.738281 21.050781 21.40625 21.34375 C 21.222656 21.445313 21.0625 21.636719 20.84375 21.5625 L 16.3125 20.0625 L 15 19.625 L 15 21 C 15 22.441406 15.050781 23.792969 15.59375 24.96875 C 16.136719 26.144531 17.382813 27 19 27 L 19 25 C 17.925781 25 17.691406 24.746094 17.40625 24.125 C 17.25 23.789063 17.25 23.03125 17.1875 22.4375 L 20.21875 23.46875 C 21.53125 23.90625 22.976563 23.296875 23.59375 22.0625 L 23.90625 21.4375 L 24.375 20.46875 L 23.5 20.125 C 23.648438 19.710938 23.792969 18.984375 23.53125 18 C 22.929688 18.800781 22.03125 19.40625 22.03125 19.40625 C 22.03125 19.40625 22.042969 19.429688 22.03125 19.46875 C 21.949219 19.429688 21.867188 19.382813 21.78125 19.34375 C 21.929688 18.917969 22.070313 18.300781 21.96875 17.5 C 21.523438 17.945313 21.039063 18.261719 20.6875 18.46875 C 20.785156 18.074219 20.855469 17.609375 20.78125 17 C 20.25 17.53125 19.652344 17.863281 19.34375 18.03125 C 19.199219 17.941406 19.042969 17.875 18.90625 17.78125 C 18.972656 17.417969 19.03125 17.011719 18.96875 16.5 C 18.695313 16.773438 18.382813 16.992188 18.09375 17.1875 C 17.980469 17.097656 17.847656 16.992188 17.75 16.90625 C 17.179688 16.414063 17 15.980469 17 16 C 17 15.875 17.039063 15.535156 17.15625 15.34375 C 17.273438 15.152344 17.371094 15 18 15 C 18.691406 15 19.855469 15.230469 21.0625 15.53125 C 21.035156 15.777344 21.050781 15.585938 21 16 C 21.234375 15.9375 21.464844 15.820313 21.6875 15.6875 C 21.8125 15.722656 21.9375 15.746094 22.0625 15.78125 C 22.058594 16.0625 22.042969 16.367188 22 16.71875 C 22.335938 16.625 22.65625 16.367188 22.9375 16.0625 C 22.980469 16.074219 23.019531 16.082031 23.0625 16.09375 C 23.058594 16.371094 23.042969 16.660156 23 17 C 23.328125 16.910156 23.632813 16.636719 23.90625 16.34375 C 23.945313 16.355469 23.992188 16.394531 24.03125 16.40625 C 24.046875 16.773438 24.066406 17.191406 24 17.71875 C 24.542969 17.570313 25.046875 17.03125 25.40625 16.5 C 25.410156 16.492188 25.402344 16.476563 25.40625 16.46875 C 26.347656 16.3125 27.191406 15.714844 27.5625 14.78125 L 28.9375 11.375 L 29.40625 10.1875 L 28.15625 10 L 21.34375 9.03125 C 20.902344 8.632813 19.015625 7 16 7 C 15.785156 7 15.605469 7.023438 15.40625 7.03125 C 14.238281 6.070313 12.578125 5.695313 11.09375 5.40625 C 9.476563 5.09375 8.0625 5 8.0625 5 Z M 15 10 L 16 12 L 19 10 Z M 8.375 17.21875 C 8.132813 17.414063 6.9375 17.757813 5.90625 17.875 C 4.875 17.992188 4 18 4 18 L 4 20 C 4 20 5 20.007813 6.15625 19.875 C 7.3125 19.742188 8.617188 19.585938 9.625 18.78125 Z M 8.53125 20.125 C 7.957031 20.433594 6.746094 20.710938 5.75 20.84375 C 4.753906 20.976563 3.96875 21 3.96875 21 L 4.03125 23 C 4.03125 23 4.933594 22.960938 6.03125 22.8125 C 7.128906 22.664063 8.417969 22.441406 9.46875 21.875 Z M 8.53125 23.125 C 7.957031 23.433594 6.746094 23.710938 5.75 23.84375 C 4.753906 23.976563 3.96875 24 3.96875 24 L 4.03125 26 C 4.03125 26 4.933594 25.960938 6.03125 25.8125 C 7.128906 25.664063 8.417969 25.441406 9.46875 24.875 Z "></path>
</g>
</svg>
