<?xml version="1.0" encoding="UTF-8"?>
<svg xmlns="http://www.w3.org/2000/svg" xmlns:xlink="http://www.w3.org/1999/xlink" viewBox="0 0 32 32" version="1.1">
<g>
<path d="M 12 3 C 12 5.839844 13.574219 7.539063 15.0625 8.28125 C 16.550781 9.023438 18 9 18 9 L 21.375 9 L 22.3125 10.875 L 22.8125 10.96875 L 27 11.8125 L 27 14 C 26.996094 14.027344 26.976563 14.273438 26.84375 14.53125 C 26.703125 14.804688 26.628906 15 26 15 C 25.773438 15 25.667969 14.9375 25.4375 14.75 C 25.207031 14.5625 24.910156 14.238281 24.5625 13.84375 C 23.867188 13.054688 22.746094 12 21 12 C 20.066406 12 19.253906 12.359375 18.6875 12.875 C 18.121094 13.390625 17.769531 14.03125 17.53125 14.625 C 17.054688 15.808594 17 16.9375 17 16.9375 L 17 16.96875 C 17 16.96875 16.964844 18.128906 17.40625 19.34375 C 17.625 19.953125 17.964844 20.601563 18.5625 21.125 C 18.601563 21.160156 18.648438 21.1875 18.6875 21.21875 C 18.484375 21.28125 18.277344 21.359375 18.0625 21.46875 C 17.074219 21.960938 16 23.164063 16 25 C 16 26.835938 17.074219 28.039063 18.0625 28.53125 C 19.050781 29.023438 20 29 20 29 L 20 27 C 20 27 19.449219 26.972656 18.9375 26.71875 C 18.425781 26.464844 18 26.171875 18 25 C 18 23.828125 18.425781 23.535156 18.9375 23.28125 C 19.449219 23.027344 20 23 20 23 L 23.375 23 C 23.164063 23.539063 23 24.199219 23 25 L 25 25 C 25 24.066406 25.84375 22.53125 25.84375 22.53125 L 26 22.28125 L 26 20 L 25.5 20 L 25 19 L 24.5 20 L 21 20 C 20.4375 20 20.132813 19.851563 19.875 19.625 C 19.617188 19.398438 19.421875 19.046875 19.28125 18.65625 C 19.003906 17.886719 19 17.09375 19 17.0625 L 19 17.03125 C 19.003906 17 19.050781 16.175781 19.375 15.375 C 19.539063 14.96875 19.773438 14.609375 20.03125 14.375 C 20.289063 14.140625 20.546875 14 21 14 C 22.023438 14 22.4375 14.445313 23.0625 15.15625 C 23.375 15.511719 23.699219 15.9375 24.15625 16.3125 C 24.390625 16.503906 24.679688 16.65625 25 16.78125 L 25 18.84375 C 25 18.84375 26.125 17.898438 26.6875 16.9375 C 27.636719 16.71875 28.320313 16.0625 28.625 15.46875 C 29 14.742188 29 14.03125 29 14.03125 L 29 10.1875 L 28.1875 10.03125 L 23.6875 9.125 L 22.625 7 L 18 7 C 18 7 16.949219 7.003906 15.9375 6.5 C 14.925781 5.996094 14 5.175781 14 3 Z M 8 4 C 8 4 7.976563 5.410156 8.5625 6.875 C 8.855469 7.605469 9.300781 8.390625 10.03125 9 C 10.761719 9.609375 11.789063 10 13 10 L 13 8 C 12.207031 8 11.707031 7.765625 11.3125 7.4375 C 10.917969 7.109375 10.644531 6.644531 10.4375 6.125 C 10.023438 5.089844 10 4 10 4 Z M 5 7.9375 C 4.894531 9.457031 5.539063 10.464844 6.03125 11.46875 C 6.523438 12.472656 7 13.632813 7 16 C 7 18.179688 6.070313 18.996094 5.0625 19.5 C 4.054688 20.003906 3 20 3 20 L 3 22 C 3 22 4.445313 22.023438 5.9375 21.28125 C 7.429688 20.539063 9 18.84375 9 16 C 9 14.730469 8.859375 13.699219 8.65625 12.84375 C 9.066406 12.945313 9.515625 13 10 13 L 10 11 C 8.335938 11 7.789063 10.324219 7.40625 9.5625 C 7.023438 8.800781 7 8 7 8 L 6 8 Z M 19 10 L 21 11 L 21 10 Z M 8 22 C 8 22.5 7.855469 22.773438 7.625 23.03125 C 7.394531 23.289063 7.027344 23.5 6.625 23.65625 C 5.824219 23.964844 4.96875 24 4.96875 24 L 5.03125 26 C 5.03125 26 6.175781 25.992188 7.375 25.53125 C 7.972656 25.300781 8.605469 24.953125 9.125 24.375 C 9.644531 23.796875 10 22.957031 10 22 Z M 12 24 C 12 25.621094 11.300781 26.203125 10.53125 26.59375 C 9.761719 26.984375 8.96875 27 8.96875 27 L 9.03125 29 C 9.03125 29 10.238281 29.003906 11.46875 28.375 C 12.699219 27.746094 14 26.300781 14 24 Z "></path>
</g>
</svg>
