<?xml version="1.0" encoding="UTF-8"?>
<svg xmlns="http://www.w3.org/2000/svg" xmlns:xlink="http://www.w3.org/1999/xlink" viewBox="0 0 32 32" version="1.1">
<g>
<path d="M 10 4 C 7.800781 4 6 5.800781 6 8 C 6 9.152344 6.523438 10.175781 7.3125 10.90625 C 6.40625 11.585938 5.746094 12.597656 5.53125 13.8125 C 5.53125 13.824219 5.53125 13.832031 5.53125 13.84375 L 4.03125 21.8125 L 3.78125 23 L 7 23 L 7 28 L 13 28 L 13 23 L 16.21875 23 L 15.96875 21.8125 L 14.46875 13.84375 C 14.46875 13.832031 14.46875 13.824219 14.46875 13.8125 C 14.253906 12.597656 13.59375 11.585938 12.6875 10.90625 C 13.476563 10.175781 14 9.152344 14 8 C 14 5.800781 12.199219 4 10 4 Z M 10 6 C 11.117188 6 12 6.882813 12 8 C 12 9.117188 11.117188 10 10 10 C 8.882813 10 8 9.117188 8 8 C 8 6.882813 8.882813 6 10 6 Z M 22 8 L 22 18 L 21.6875 18 C 20.152344 18 18.871094 19.148438 18.71875 20.6875 L 18 26.875 L 17.875 28 L 28.125 28 L 28 26.875 L 27.1875 20.6875 C 27.035156 19.148438 25.722656 18 24.1875 18 L 24 18 L 24 8 Z M 10 12 C 11.230469 12 12.277344 12.816406 12.5 14.15625 L 12.5 14.1875 L 12.53125 14.1875 L 13.8125 21 L 11 21 L 11 26 L 9 26 L 9 21 L 6.1875 21 L 7.46875 14.1875 L 7.5 14.1875 L 7.5 14.15625 C 7.722656 12.816406 8.769531 12 10 12 Z M 21.6875 20 L 24.1875 20 C 24.652344 20 25.171875 20.445313 25.21875 20.90625 L 25.21875 21 L 20.6875 21 L 20.6875 20.90625 C 20.734375 20.445313 21.222656 20 21.6875 20 Z M 20.46875 23 L 25.46875 23 L 25.84375 26 L 20.125 26 Z "></path>
</g>
</svg>
