<?xml version="1.0" encoding="UTF-8"?>
<svg xmlns="http://www.w3.org/2000/svg" xmlns:xlink="http://www.w3.org/1999/xlink" viewBox="0 0 32 32" version="1.1">
<g>
<path d="M 16 3 C 8.820313 3 3 8.820313 3 16 C 3 23.179688 8.820313 29 16 29 C 23.179688 29 29 23.179688 29 16 C 29 8.820313 23.179688 3 16 3 Z M 16 5 C 20.226563 5 23.902344 7.402344 25.742188 10.910156 C 25.453125 10.53125 24.96875 10.296875 24.339844 10.296875 L 19.515625 10.296875 L 15.4375 21.71875 L 13.609375 26.730469 C 10.652344 26.070313 8.144531 24.21875 6.609375 21.703125 L 9.046875 21.703125 L 12.46875 12.199219 L 14.449219 12.199219 L 11.015625 21.703125 L 13.4375 21.703125 L 16.683594 12.535156 C 17.132813 11.304688 16.425781 10.296875 15.117188 10.296875 L 13.140625 10.296875 L 15.03125 5.046875 C 15.351563 5.019531 15.671875 5 16 5 Z M 12.175781 5.699219 L 6.5 21.515625 C 5.550781 19.890625 5 18.011719 5 16 C 5 11.28125 7.992188 7.257813 12.175781 5.699219 Z M 25.976563 11.394531 C 26.625 12.800781 27 14.355469 27 16 C 27 22.066406 22.066406 27 16 27 C 15.992188 27 15.988281 27 15.980469 27 L 17.914063 21.691406 L 21.390625 21.691406 C 22 21.691406 22.667969 21.222656 22.875 20.652344 L 25.90625 12.535156 C 26.058594 12.117188 26.066406 11.730469 25.976563 11.394531 Z M 21.582031 12.199219 L 23.550781 12.199219 L 20.703125 19.800781 L 18.734375 19.800781 Z "></path>
</g>
</svg>
