<?xml version="1.0" encoding="UTF-8"?>
<svg xmlns="http://www.w3.org/2000/svg" xmlns:xlink="http://www.w3.org/1999/xlink" viewBox="0 0 32 32" version="1.1">
<g>
<path d="M 0 7 L 0 25 L 32 25 L 32 7 Z M 2 9 L 30 9 L 30 23 L 2 23 Z M 5 12 L 5 20 L 7 20 L 7 17 L 8 17 L 8 20 L 10 20 L 10 12 L 8 12 L 8 15 L 7 15 L 7 12 Z M 11 12 L 11 14 L 12 14 L 12 20 L 14 20 L 14 14 L 15 14 L 15 12 Z M 16 12 L 16 20 L 18 20 L 18 15.34375 L 18.1875 15.59375 L 19 16.65625 L 19.8125 15.59375 L 20 15.34375 L 20 20 L 22 20 L 22 12 L 20 12 L 19.6875 12.40625 L 19 13.3125 L 18.3125 12.40625 L 18 12 Z M 23 12 L 23 20 L 27 20 L 27 18 L 25 18 L 25 12 Z "></path>
</g>
</svg>
