<?xml version="1.0" encoding="UTF-8"?>
<svg xmlns="http://www.w3.org/2000/svg" xmlns:xlink="http://www.w3.org/1999/xlink" viewBox="0 0 32 32" version="1.1">
<g>
<path d="M 13.59375 3 C 12.976563 3.09375 12.390625 3.734375 12.125 4.6875 C 11.769531 5.957031 12.105469 7.324219 12.90625 7.71875 C 13.707031 8.113281 14.644531 7.394531 15 6.125 C 15.355469 4.855469 15.019531 3.488281 14.21875 3.09375 C 14.019531 2.996094 13.800781 2.96875 13.59375 3 Z M 18.0625 3 C 17.960938 3.015625 17.882813 3.042969 17.78125 3.09375 C 16.980469 3.488281 16.613281 4.855469 16.96875 6.125 C 17.324219 7.394531 18.261719 8.113281 19.0625 7.71875 C 19.863281 7.324219 20.230469 5.957031 19.875 4.6875 C 19.5625 3.574219 18.785156 2.886719 18.0625 3 Z M 10.09375 4 C 9.476563 4.027344 8.996094 4.714844 9.03125 5.53125 C 9.066406 6.347656 9.601563 6.996094 10.21875 6.96875 C 10.835938 6.941406 11.316406 6.253906 11.28125 5.4375 C 11.246094 4.621094 10.710938 3.972656 10.09375 4 Z M 21.90625 4 C 21.289063 3.972656 20.753906 4.621094 20.71875 5.4375 C 20.683594 6.253906 21.164063 6.941406 21.78125 6.96875 C 22.398438 6.996094 22.933594 6.347656 22.96875 5.53125 C 23.003906 4.714844 22.523438 4.027344 21.90625 4 Z M 7.28125 5 C 7.214844 5.003906 7.160156 5.007813 7.09375 5.03125 C 6.574219 5.207031 6.34375 5.957031 6.59375 6.6875 C 6.84375 7.417969 7.449219 7.863281 7.96875 7.6875 C 8.488281 7.511719 8.71875 6.761719 8.46875 6.03125 C 8.25 5.390625 7.75 4.976563 7.28125 5 Z M 24.6875 5 C 24.21875 4.976563 23.71875 5.390625 23.5 6.03125 C 23.25 6.761719 23.480469 7.511719 24 7.6875 C 24.519531 7.863281 25.125 7.417969 25.375 6.6875 C 25.625 5.957031 25.425781 5.207031 24.90625 5.03125 C 24.839844 5.007813 24.753906 5.003906 24.6875 5 Z M 5.21875 6.6875 C 5.085938 6.695313 4.960938 6.742188 4.84375 6.8125 C 4.378906 7.097656 4.320313 7.804688 4.6875 8.40625 C 5.054688 9.007813 5.722656 9.285156 6.1875 9 C 6.652344 8.714844 6.710938 7.976563 6.34375 7.375 C 6.066406 6.921875 5.621094 6.667969 5.21875 6.6875 Z M 26.75 6.6875 C 26.347656 6.667969 25.902344 6.921875 25.625 7.375 C 25.257813 7.976563 25.347656 8.714844 25.8125 9 C 26.277344 9.285156 26.945313 9.007813 27.3125 8.40625 C 27.679688 7.804688 27.589844 7.097656 27.125 6.8125 C 27.007813 6.742188 26.882813 6.695313 26.75 6.6875 Z M 3.5625 8.9375 C 3.445313 8.960938 3.339844 9.015625 3.25 9.09375 C 2.886719 9.402344 2.933594 10.050781 3.34375 10.53125 C 3.753906 11.011719 4.355469 11.152344 4.71875 10.84375 C 5.082031 10.535156 5.066406 9.886719 4.65625 9.40625 C 4.351563 9.046875 3.910156 8.867188 3.5625 8.9375 Z M 28.40625 8.9375 C 28.058594 8.867188 27.648438 9.046875 27.34375 9.40625 C 26.933594 9.886719 26.886719 10.535156 27.25 10.84375 C 27.613281 11.152344 28.246094 11.011719 28.65625 10.53125 C 29.066406 10.050781 29.082031 9.402344 28.71875 9.09375 C 28.628906 9.015625 28.523438 8.960938 28.40625 8.9375 Z M 11.40625 9 C 10.414063 9 8.746094 9.207031 7.15625 10.03125 C 5.566406 10.855469 4.042969 12.453125 3.96875 14.90625 C 3.898438 17.203125 4.617188 18.804688 5.25 20.1875 C 5.882813 21.570313 6.4375 22.75 6.4375 24.6875 C 6.4375 25.675781 6.722656 26.667969 7.3125 27.5 C 7.902344 28.332031 8.882813 29 10.0625 29 C 11.480469 29 12.597656 28.5 13.21875 27.65625 C 13.839844 26.8125 13.941406 25.839844 13.96875 24.9375 C 14.023438 23.175781 13.367188 21.984375 12.84375 21.15625 C 12.320313 20.328125 11.96875 19.875 11.96875 18.78125 C 11.96875 17.386719 12.480469 16.914063 13.21875 16.125 C 13.957031 15.335938 14.96875 14.234375 14.96875 12.375 C 14.96875 11.050781 14.324219 10.015625 13.53125 9.53125 C 12.738281 9.046875 11.945313 9 11.40625 9 Z M 20.15625 9 C 19.660156 9.035156 19.03125 9.167969 18.4375 9.53125 C 17.644531 10.015625 17 11.050781 17 12.375 C 17 14.234375 18.042969 15.335938 18.78125 16.125 C 19.519531 16.914063 20 17.386719 20 18.78125 C 20 19.875 19.648438 20.328125 19.125 21.15625 C 18.601563 21.984375 17.945313 23.175781 18 24.9375 C 18.027344 25.839844 18.128906 26.8125 18.75 27.65625 C 19.371094 28.5 20.488281 29 21.90625 29 C 23.085938 29 24.066406 28.332031 24.65625 27.5 C 25.246094 26.667969 25.53125 25.675781 25.53125 24.6875 C 25.53125 22.75 26.085938 21.570313 26.71875 20.1875 C 27.351563 18.804688 28.070313 17.203125 28 14.90625 C 27.925781 12.453125 26.433594 10.855469 24.84375 10.03125 C 23.253906 9.207031 21.585938 9 20.59375 9 C 20.460938 9 20.320313 8.988281 20.15625 9 Z M 11.40625 11 C 11.765625 11 12.226563 11.082031 12.5 11.25 C 12.773438 11.417969 12.96875 11.582031 12.96875 12.375 C 12.96875 13.585938 12.511719 13.96875 11.75 14.78125 C 10.988281 15.59375 9.96875 16.796875 9.96875 18.78125 C 9.96875 20.390625 10.65625 21.460938 11.15625 22.25 C 11.65625 23.039063 12.007813 23.570313 11.96875 24.875 C 11.945313 25.621094 11.808594 26.175781 11.59375 26.46875 C 11.378906 26.761719 11.082031 27 10.0625 27 C 9.582031 27 9.246094 26.777344 8.9375 26.34375 C 8.628906 25.910156 8.4375 25.269531 8.4375 24.6875 C 8.4375 22.34375 7.691406 20.75 7.0625 19.375 C 6.433594 18 5.910156 16.847656 5.96875 14.96875 C 6.023438 13.246094 6.894531 12.386719 8.0625 11.78125 C 9.230469 11.175781 10.722656 11 11.40625 11 Z M 20.59375 11 C 21.277344 11 22.738281 11.175781 23.90625 11.78125 C 25.074219 12.386719 25.949219 13.246094 26 14.96875 C 26.058594 16.847656 25.535156 18 24.90625 19.375 C 24.277344 20.75 23.53125 22.34375 23.53125 24.6875 C 23.53125 25.269531 23.335938 25.910156 23.03125 26.34375 C 22.726563 26.777344 22.386719 27 21.90625 27 C 20.882813 27 20.589844 26.761719 20.375 26.46875 C 20.160156 26.175781 20.023438 25.621094 20 24.875 C 19.960938 23.570313 20.3125 23.039063 20.8125 22.25 C 21.3125 21.460938 22 20.390625 22 18.78125 C 22 16.796875 20.980469 15.59375 20.21875 14.78125 C 19.457031 13.96875 19 13.582031 19 12.375 C 19 11.582031 19.195313 11.417969 19.46875 11.25 C 19.742188 11.082031 20.234375 11 20.59375 11 Z "></path>
</g>
</svg>
