<?xml version="1.0"?>
<svg xmlns="http://www.w3.org/2000/svg" viewBox="0 0 32 32">
    <path d="M 16 4 C 9.383 4 4 9.383 4 16 C 4 22.617 9.383 28 16 28 C 16.011 28 16.022203 27.998047 16.033203 27.998047 C 14.181203 26.437047 13 24.106 13 21.5 C 13 20.829 13.086375 20.179734 13.234375 19.552734 C 13.129375 18.755734 13.050531 17.911 13.019531 17 L 14.302734 17 C 14.774734 16.247 15.356203 15.57 16.033203 15 L 13.019531 15 C 13.056487 13.911517 13.165448 12.923834 13.304688 12 L 18.703125 12 C 18.771433 12.454635 18.833258 12.922064 18.878906 13.417969 C 19.506906 13.213969 20.167609 13.085203 20.849609 13.033203 C 20.81497 12.681342 20.759752 12.343517 20.712891 12 L 25.117188 12 C 25.421175 12.69375 25.664918 13.420669 25.806641 14.185547 C 26.637641 14.676547 27.381 15.298203 28 16.033203 C 27.999 16.021203 28 16.011 28 16 C 28 9.383 22.617 4 16 4 z M 16 6 C 16.725398 6 17.667207 7.4948591 18.300781 10 L 13.691406 10 C 14.325644 7.4910125 15.273412 6 16 6 z M 12.822266 6.5273438 C 12.32091 7.4918436 11.92676 8.6842729 11.630859 10 L 8.0175781 10 C 9.2220422 8.4048877 10.888785 7.1778311 12.822266 6.5273438 z M 19.179688 6.5273438 C 21.105942 7.1758533 22.746849 8.4103166 23.943359 10 L 20.357422 10 C 20.06343 8.6881534 19.679214 7.4894369 19.179688 6.5273438 z M 6.84375 12 L 11.273438 12 C 11.14048 12.972753 11.050407 13.97945 11.017578 15 L 6.0507812 15 C 6.156283 13.941777 6.4329894 12.934955 6.84375 12 z M 21.5 15 C 17.921994 15 15 17.921994 15 21.5 C 15 25.078006 17.921994 28 21.5 28 C 22.929665 28 24.250536 27.528709 25.326172 26.740234 L 30.292969 31.707031 L 31.707031 30.292969 L 26.740234 25.326172 C 27.528709 24.250536 28 22.929665 28 21.5 C 28 17.921994 25.078006 15 21.5 15 z M 6.0507812 17 L 11.017578 17 C 11.050578 18.019 11.136531 19.027 11.269531 20 L 6.8417969 20 C 6.4317969 19.065 6.1557813 18.058 6.0507812 17 z M 21.5 17 C 23.997126 17 26 19.002874 26 21.5 C 26 23.997126 23.997126 26 21.5 26 C 19.002874 26 17 23.997126 17 21.5 C 17 19.002874 19.002874 17 21.5 17 z M 21.5 18 A 1.5 1.5 0 0 0 20 19.5 A 1.5 1.5 0 0 0 20.845703 20.847656 C 19.784429 21.136637 19 22.096996 19 23.25 L 19 24 L 24 24 L 24 23.25 C 24 22.096996 23.215571 21.136637 22.154297 20.847656 A 1.5 1.5 0 0 0 23 19.5 A 1.5 1.5 0 0 0 21.5 18 z M 8.0195312 22 L 11.625 22 C 11.92 23.32 12.320266 24.506656 12.822266 25.472656 C 10.888266 24.822656 9.2235312 23.597 8.0195312 22 z" font-weight="400" font-family="sans-serif" white-space="normal" overflow="visible"></path>
</svg>
