<?xml version="1.0" encoding="UTF-8"?>
<svg xmlns="http://www.w3.org/2000/svg" xmlns:xlink="http://www.w3.org/1999/xlink" viewBox="0 0 32 32" version="1.1">
<g>
<path d="M 16 4 C 10.488281 4 6 8.488281 6 14 L 6 17.59375 L 6.03125 17.59375 C 6.011719 17.726563 6 17.863281 6 18 C 6 19.320313 6.84375 20.445313 8.03125 20.84375 C 8.453125 24.859375 11.875 28 16 28 C 20.125 28 23.546875 24.859375 23.96875 20.84375 C 25.15625 20.445313 26 19.320313 26 18 C 26 17.863281 25.988281 17.726563 25.96875 17.59375 L 26 17.59375 L 26 14 C 26 8.488281 21.511719 4 16 4 Z M 16 6 C 20.429688 6 24 9.570313 24 14 L 24 15.15625 C 23.96875 15.144531 23.9375 15.136719 23.90625 15.125 C 23.511719 13.332031 21.910156 12 20 12 C 19.449219 12 19 11.550781 19 11 L 19 10 L 17 10 L 17 11 C 17 11.550781 16.550781 12 16 12 L 12 12 C 10.089844 12 8.488281 13.332031 8.09375 15.125 C 8.0625 15.136719 8.03125 15.144531 8 15.15625 L 8 14 C 8 9.570313 11.570313 6 16 6 Z M 18 13.21875 C 18.53125 13.695313 19.230469 14 20 14 C 21.101563 14 22 14.898438 22 16 L 22 17 L 23 17 C 23.550781 17 24 17.449219 24 18 C 24 18.550781 23.550781 19 23 19 L 22 19 L 22 20 C 22 23.308594 19.308594 26 16 26 C 12.691406 26 10 23.308594 10 20 L 10 19 L 9 19 C 8.449219 19 8 18.550781 8 18 C 8 17.449219 8.449219 17 9 17 L 10 17 L 10 16 C 10 14.898438 10.898438 14 12 14 L 16 14 C 16.769531 14 17.46875 13.695313 18 13.21875 Z M 13 17 C 12.449219 17 12 17.449219 12 18 C 12 18.550781 12.449219 19 13 19 C 13.550781 19 14 18.550781 14 18 C 14 17.449219 13.550781 17 13 17 Z M 19 17 C 18.449219 17 18 17.449219 18 18 C 18 18.550781 18.449219 19 19 19 C 19.550781 19 20 18.550781 20 18 C 20 17.449219 19.550781 17 19 17 Z "></path>
</g>
</svg>
