<?xml version="1.0" encoding="UTF-8"?>
<svg xmlns="http://www.w3.org/2000/svg" xmlns:xlink="http://www.w3.org/1999/xlink" viewBox="0 0 32 32" version="1.1">
<g>
<path d="M 15.90625 3.1875 C 14.507813 3.488281 13.394531 4.695313 13.09375 6.09375 C 13.09375 6.292969 13.101563 8.792969 12.5 8.09375 C 11.398438 6.992188 12.804688 6.1875 10.40625 4.6875 C 11.304688 6.789063 9.5 9.09375 9.5 10.09375 C 9 9.792969 8.585938 9.605469 8.1875 9.40625 C 7.585938 9.105469 6.914063 8.992188 6.3125 9.09375 C 7.011719 8.992188 7.789063 10.710938 7.6875 11.3125 C 7.585938 12.210938 7 13.09375 7 14.09375 C 7 14.917969 7.34375 15.625 7.75 16.3125 C 6.730469 16.792969 6 17.804688 6 19 C 6 20.320313 6.964844 21.257813 8.15625 21.65625 C 8.371094 23.65625 9.355469 25.421875 10.75 26.6875 C 12.300781 28.097656 14.214844 29 16 29 C 17.785156 29 19.699219 28.097656 21.25 26.6875 C 22.644531 25.421875 23.628906 23.65625 23.84375 21.65625 C 25.035156 21.257813 26 20.320313 26 19 C 26 18.019531 25.519531 17.144531 24.78125 16.59375 C 26.085938 14.648438 26.875 11.019531 24.6875 9.09375 C 25.1875 10.292969 24.914063 11.898438 24.3125 12 C 21.914063 12.398438 25.3125 8.289063 23.3125 4.6875 C 23.414063 5.789063 22.488281 9.710938 21.6875 9.3125 C 20.789063 8.8125 22.488281 7.386719 21.1875 5.6875 C 21.1875 6.789063 20.195313 7.59375 19.59375 7.59375 C 19.09375 7.59375 18.992188 6.804688 19.09375 6.40625 C 19.394531 5.40625 20.007813 3.6875 20.90625 3.1875 C 19.304688 3.289063 16.898438 4.292969 16 7.59375 C 14.800781 6.792969 15.207031 4.1875 15.90625 3.1875 Z M 17.5 9.8125 C 18 11.113281 17.710938 12.199219 18.3125 13 C 18.710938 13.601563 19.914063 13.992188 20.3125 14.59375 C 19.8125 12.894531 20.300781 12.1875 20 11.1875 C 21.601563 12.386719 22.210938 12.988281 22.3125 15.6875 C 22.3125 16.789063 21.492188 18.304688 23.09375 19.40625 C 22.921875 18.949219 23.152344 18.496094 23.46875 18.09375 C 23.792969 18.257813 24 18.601563 24 19 C 24 19.566406 23.566406 20 23 20 L 22 20 L 22 21 C 22 22.574219 21.113281 24.09375 19.875 25.21875 C 18.636719 26.34375 17.046875 27 16 27 C 14.953125 27 13.363281 26.34375 12.125 25.21875 C 10.886719 24.09375 10 22.574219 10 21 L 10 20 L 9 20 C 8.433594 20 8 19.566406 8 19 C 8 18.53125 8.296875 18.148438 8.71875 18.03125 C 8.964844 18.570313 9.121094 19.152344 9.09375 19.8125 C 11.195313 16.511719 7.492188 16.90625 11.09375 12.40625 C 11.195313 13.40625 11.804688 14.511719 12.90625 14.8125 C 12.304688 12.8125 13.09375 12.199219 14.09375 11 C 14.195313 11.699219 13.914063 13.292969 15.3125 14.59375 C 15.113281 11.394531 17.199219 11.414063 17.5 9.8125 Z M 11 18.09375 C 11 18.894531 11.792969 20 13.09375 20 C 14.292969 20 14.90625 19.199219 14.90625 19 Z M 21 18.09375 L 17.09375 19 C 17.09375 19.199219 17.707031 20 18.90625 20 C 20.207031 20 21 18.894531 21 18.09375 Z "></path>
</g>
</svg>
