<?xml version="1.0" encoding="UTF-8"?>
<svg xmlns="http://www.w3.org/2000/svg" xmlns:xlink="http://www.w3.org/1999/xlink" viewBox="0 0 32 32" version="1.1">
<g>
<path d="M 15 4 C 8.933594 4 4 8.933594 4 15 C 4 21.066406 8.933594 26 15 26 C 16.289063 26 17.535156 25.753906 18.6875 25.34375 C 18.578125 24.910156 18.5 24.46875 18.5 24 C 18.5 23.765625 18.546875 23.511719 18.59375 23.25 C 17.496094 23.730469 16.273438 24 15 24 C 10.039063 24 6 19.960938 6 15 C 6 10.039063 10.039063 6 15 6 C 19.535156 6 23.292969 9.382813 23.90625 13.75 L 24 13.59375 L 25.90625 16.375 C 25.960938 15.929688 26 15.460938 26 15 C 26 8.933594 21.066406 4 15 4 Z M 15 8 C 11.140625 8 8 11.140625 8 15 C 8 15.765625 8.132813 16.539063 8.40625 17.3125 L 10.3125 16.65625 C 10.113281 16.097656 10 15.539063 10 15 C 10 12.242188 12.242188 10 15 10 C 16.015625 10 16.933594 10.316406 17.71875 10.84375 L 15.5 13.0625 C 15.339844 13.019531 15.171875 13 15 13 C 13.894531 13 13 13.894531 13 15 C 13 16.105469 13.894531 17 15 17 C 16.105469 17 17 16.105469 17 15 C 17 14.828125 16.980469 14.660156 16.9375 14.5 L 21.21875 10.21875 L 19.78125 8.78125 L 19.1875 9.375 C 18.023438 8.503906 16.566406 8 15 8 Z M 21.40625 12.1875 L 19.84375 13.78125 C 19.945313 14.175781 20 14.574219 20 15 C 20 15.539063 19.882813 16.097656 19.6875 16.65625 L 21.59375 17.3125 C 21.867188 16.539063 22 15.765625 22 15 C 22 14.003906 21.785156 13.046875 21.40625 12.1875 Z M 24 16.25 L 23.1875 17.4375 C 23.1875 17.4375 22.398438 18.542969 21.625 19.875 C 21.238281 20.542969 20.867188 21.273438 20.5625 21.96875 C 20.257813 22.664063 20 23.285156 20 24 C 20 26.199219 21.800781 28 24 28 C 26.199219 28 28 26.199219 28 24 C 28 23.285156 27.742188 22.664063 27.4375 21.96875 C 27.132813 21.273438 26.761719 20.542969 26.375 19.875 C 25.601563 18.542969 24.8125 17.4375 24.8125 17.4375 Z M 24 19.875 C 24.257813 20.273438 24.308594 20.332031 24.625 20.875 C 24.988281 21.5 25.367188 22.195313 25.625 22.78125 C 25.882813 23.367188 26 23.886719 26 24 C 26 25.117188 25.117188 26 24 26 C 22.882813 26 22 25.117188 22 24 C 22 23.886719 22.117188 23.367188 22.375 22.78125 C 22.632813 22.195313 23.011719 21.5 23.375 20.875 C 23.691406 20.332031 23.742188 20.273438 24 19.875 Z "></path>
</g>
</svg>
