<?xml version="1.0" encoding="UTF-8"?>
<svg xmlns="http://www.w3.org/2000/svg" xmlns:xlink="http://www.w3.org/1999/xlink" viewBox="0 0 32 32" version="1.1">
<g>
<path d="M 9.34375 4.96875 C 8.351563 4.964844 7.308594 5.058594 6.25 5.28125 L 5.0625 5.53125 L 5.5625 6.65625 C 5.960938 7.582031 6.578125 8.382813 7.1875 9.03125 C 4.9375 9.121094 3.6875 9.46875 3.6875 9.46875 L 2.25 9.90625 L 3.25 11.0625 C 6.089844 14.351563 9.332031 16.226563 12.1875 16.8125 C 13.261719 17.035156 14.335938 16.964844 15.28125 16.78125 C 15.195313 18.292969 15.828125 19.527344 16 19.84375 L 16 26.3125 L 16.65625 26.53125 C 16.65625 26.53125 17.914063 26.96875 19.34375 26.96875 C 21.464844 26.96875 22.75 25.3125 22.75 25.3125 L 23.125 24.875 L 22.9375 24.34375 L 21.125 19.3125 C 21.90625 18.722656 23.5 17.320313 23.5 14.5 C 23.5 13.570313 23.300781 13.164063 23.15625 12.75 C 23.691406 12.277344 24.6875 11.269531 24.9375 9.40625 C 25.617188 9.253906 27.078125 9 29 9 L 29 7 C 26.5 7 24.875 7.375 24.375 7.5 C 24.246094 7.425781 24.242188 7.414063 24.0625 7.34375 C 23.585938 7.160156 22.898438 7 22 7 C 20.773438 7 19.835938 7.625 19.3125 8.28125 C 19.273438 8.332031 19.253906 8.386719 19.21875 8.4375 C 16.914063 6.867188 13.894531 5.277344 10.3125 5 C 9.992188 4.976563 9.675781 4.96875 9.34375 4.96875 Z M 9.875 7.09375 C 13.179688 7.246094 15.984375 8.65625 18.21875 10.1875 C 18.160156 10.265625 18.097656 10.332031 18.03125 10.40625 C 17.980469 10.460938 17.925781 10.507813 17.875 10.5625 C 15.167969 9.863281 12.75 9.339844 10.34375 9.125 C 10.332031 9.113281 10.324219 9.105469 10.3125 9.09375 C 10.292969 9.082031 10.269531 9.070313 10.25 9.0625 C 10.25 9.0625 9.222656 8.164063 8.34375 7.125 C 8.859375 7.089844 9.378906 7.070313 9.875 7.09375 Z M 22 9 C 22.40625 9 22.691406 9.035156 22.9375 9.09375 C 22.695313 10.789063 21.5 11.59375 21.5 11.59375 L 20.84375 12.0625 L 21.15625 12.78125 C 21.15625 12.78125 21.5 13.714844 21.5 14.5 C 21.5 16.957031 19.5 18.125 19.5 18.125 L 19 18.4375 L 19 19.28125 L 19.0625 19.4375 L 20.84375 24.375 C 20.496094 24.660156 19.988281 24.96875 19.34375 24.96875 C 18.671875 24.96875 18.367188 24.847656 18 24.75 L 18 19.46875 L 17.875 19.25 C 17.875 19.25 17.105469 17.324219 17.5 16.09375 C 18.019531 15.875 18.34375 15.6875 18.34375 15.6875 L 17.40625 13.90625 C 17.40625 13.90625 14.5625 15.253906 12.5625 14.84375 C 10.710938 14.464844 8.515625 13.140625 6.375 11.1875 C 7.007813 11.101563 6.902344 11 8.1875 11 C 11.242188 11 14.1875 11.664063 17.96875 12.65625 L 18.75 12.875 L 19.09375 12.21875 C 19.078125 12.242188 19.085938 12.230469 19.125 12.15625 C 19.140625 12.132813 19.164063 12.121094 19.1875 12.09375 C 19.269531 12 19.371094 11.894531 19.5 11.75 C 19.757813 11.464844 20.058594 11.144531 20.28125 10.65625 C 20.46875 10.25 20.621094 9.851563 20.875 9.53125 C 21.128906 9.210938 21.371094 9 22 9 Z "></path>
</g>
</svg>
