<?xml version="1.0" encoding="UTF-8"?>
<svg xmlns="http://www.w3.org/2000/svg" xmlns:xlink="http://www.w3.org/1999/xlink" viewBox="0 0 32 32" version="1.1">
<g>
<path d="M 8.09375 3 L 8 3.875 L 7.09375 12 L 6 12 L 6 19 L 10 19 L 10 29 L 22 29 L 22 19 L 26 19 L 26 12 L 24.90625 12 L 24 3.875 L 23.90625 3 Z M 9.90625 5 L 22.09375 5 L 23 13.125 L 23.09375 14 L 24 14 L 24 17 L 20 17 L 20 21 L 12 21 L 12 17 L 8 17 L 8 14 L 8.90625 14 L 9 13.125 Z M 10 10 L 10 14 L 13 14 L 13 19 L 19 19 L 19 14 L 22 14 L 22 10 Z M 15 12 L 17 12 L 17 17 L 15 17 Z M 12 23 L 20 23 L 20 27 L 12 27 Z "></path>
</g>
</svg>
