<?xml version="1.0" encoding="UTF-8"?>
<svg xmlns="http://www.w3.org/2000/svg" xmlns:xlink="http://www.w3.org/1999/xlink" viewBox="0 0 32 32" version="1.1">
<g>
<path d="M 13.21875 4.15625 C 11.683594 4.769531 10.953125 6.539063 11.5625 8.0625 L 11.59375 8.09375 L 11.625 8.15625 C 10.171875 8.972656 8.972656 10.171875 8.15625 11.625 L 8.09375 11.59375 L 8.0625 11.5625 C 7.597656 11.375 7.339844 10.757813 7.53125 10.28125 L 5.65625 9.53125 C 5.058594 11.023438 5.808594 12.730469 7.28125 13.375 L 7.28125 13.40625 L 7.34375 13.4375 L 7.375 13.4375 C 7.136719 14.246094 7 15.113281 7 16 C 7 16.886719 7.132813 17.753906 7.375 18.5625 L 7.34375 18.5625 C 6.867188 18.753906 6.21875 18.496094 6.03125 18.03125 L 4.15625 18.78125 C 4.769531 20.316406 6.539063 21.046875 8.0625 20.4375 L 8.09375 20.40625 L 8.15625 20.375 C 9.511719 22.785156 11.929688 24.515625 14.78125 24.90625 C 14.476563 25.574219 13.847656 26 13 26 C 11.808594 26 11 25.191406 11 24 L 9 24 C 9 25.191406 8.191406 26 7 26 C 5.808594 26 5 25.191406 5 24 L 3 24 C 3 26.210938 4.789063 28 7 28 C 8.195313 28 9.265625 27.484375 10 26.65625 C 10.734375 27.484375 11.804688 28 13 28 C 14.195313 28 15.265625 27.484375 16 26.65625 C 16.734375 27.484375 17.804688 28 19 28 C 20.195313 28 21.265625 27.484375 22 26.65625 C 22.734375 27.484375 23.804688 28 25 28 C 27.210938 28 29 26.210938 29 24 L 27 24 C 27 25.191406 26.191406 26 25 26 C 23.808594 26 23 25.191406 23 24 L 21 24 C 21 25.191406 20.191406 26 19 26 C 18.152344 26 17.523438 25.574219 17.21875 24.90625 C 20.070313 24.515625 22.488281 22.785156 23.84375 20.375 L 23.90625 20.40625 L 23.9375 20.4375 C 24.402344 20.625 24.660156 21.242188 24.46875 21.71875 L 26.34375 22.46875 C 26.941406 20.976563 26.191406 19.269531 24.71875 18.625 C 24.710938 18.621094 24.726563 18.597656 24.71875 18.59375 L 24.65625 18.5625 L 24.625 18.5625 C 24.867188 17.753906 25 16.886719 25 16 C 25 15.113281 24.863281 14.246094 24.625 13.4375 L 24.65625 13.4375 C 25.132813 13.246094 25.78125 13.503906 25.96875 13.96875 L 27.84375 13.21875 C 27.382813 12.070313 26.261719 11.363281 25.09375 11.34375 C 24.703125 11.335938 24.316406 11.410156 23.9375 11.5625 L 23.90625 11.59375 L 23.84375 11.625 C 23.027344 10.171875 21.828125 8.972656 20.375 8.15625 L 20.40625 8.09375 L 20.4375 8.0625 C 20.625 7.597656 21.242188 7.339844 21.71875 7.53125 L 22.46875 5.65625 C 22.09375 5.507813 21.722656 5.429688 21.34375 5.4375 C 20.203125 5.464844 19.109375 6.175781 18.625 7.28125 C 18.621094 7.289063 18.597656 7.273438 18.59375 7.28125 L 18.5625 7.34375 L 18.5625 7.375 C 17.753906 7.136719 16.886719 7 16 7 C 15.113281 7 14.246094 7.136719 13.4375 7.375 L 13.4375 7.34375 C 13.246094 6.867188 13.503906 6.21875 13.96875 6.03125 Z M 16 9 C 19.878906 9 23 12.121094 23 16 C 23 19.878906 19.878906 23 16 23 C 12.121094 23 9 19.878906 9 16 C 9 12.121094 12.121094 9 16 9 Z M 16.09375 10.5625 L 13.65625 15.4375 L 14.5625 15.90625 L 15.65625 16.4375 L 14.09375 19.5625 L 15.90625 20.4375 L 18.34375 15.5625 L 17.4375 15.09375 L 16.34375 14.5625 L 17.90625 11.4375 Z "></path>
</g>
</svg>
