<?xml version="1.0" encoding="UTF-8"?>
<svg xmlns="http://www.w3.org/2000/svg" xmlns:xlink="http://www.w3.org/1999/xlink" viewBox="0 0 32 32" version="1.1">
<g>
<path d="M 23 5 L 23 7 L 28 7 L 28 5 Z M 12 5.09375 L 11.15625 6.46875 C 11.15625 6.46875 9.644531 8.910156 8.125 11.78125 C 7.367188 13.21875 6.582031 14.765625 6 16.1875 C 5.417969 17.609375 5 18.871094 5 20 C 5 23.855469 8.144531 27 12 27 C 15.855469 27 19 23.855469 19 20 C 19 18.871094 18.582031 17.609375 18 16.1875 C 17.417969 14.765625 16.632813 13.21875 15.875 11.78125 C 14.355469 8.910156 12.84375 6.46875 12.84375 6.46875 Z M 12 9 C 12.515625 9.859375 13.0625 10.710938 14.125 12.71875 C 14.699219 13.808594 15.242188 14.921875 15.71875 16 L 8.28125 16 C 8.757813 14.921875 9.300781 13.808594 9.875 12.71875 C 10.9375 10.710938 11.484375 9.859375 12 9 Z M 25 10 L 25 12 L 28 12 L 28 10 Z M 23 15 L 23 17 L 28 17 L 28 15 Z M 25 20 L 25 22 L 28 22 L 28 20 Z M 23 25 L 23 27 L 28 27 L 28 25 Z "></path>
</g>
</svg>
