<?xml version="1.0" encoding="UTF-8"?>
<svg xmlns="http://www.w3.org/2000/svg" xmlns:xlink="http://www.w3.org/1999/xlink" viewBox="0 0 32 32" version="1.1">
<g>
<path d="M 16 4 C 12.914063 4 10.355469 6.339844 10.03125 9.34375 C 8.003906 10.058594 6.460938 11.832031 6.09375 14 L 8.15625 14 C 8.601563 12.28125 10.140625 11 12 11 C 12.527344 11 13.027344 11.121094 13.5 11.3125 C 13.847656 10.707031 14.257813 10.140625 14.75 9.65625 C 13.957031 9.246094 13.078125 9.023438 12.15625 9 C 12.597656 7.269531 14.128906 6 16 6 C 17.871094 6 19.402344 7.269531 19.84375 9 C 17.257813 9.070313 14.976563 10.820313 14.25 13.3125 L 16.15625 13.875 C 16.648438 12.179688 18.230469 11 20 11 C 21.859375 11 23.398438 12.28125 23.84375 14 L 25.90625 14 C 25.539063 11.832031 23.996094 10.058594 21.96875 9.34375 C 21.644531 6.339844 19.085938 4 16 4 Z M 4 15 L 4 16 C 4 19.890625 6.503906 23.183594 9.96875 24.4375 C 9.375 25.136719 9 26.019531 9 27 L 9 28 L 23 28 L 23 27 C 23 26.019531 22.625 25.136719 22.03125 24.4375 C 25.496094 23.183594 28 19.890625 28 16 L 28 15 Z M 6.21875 17 L 25.78125 17 C 25.277344 20.375 22.519531 23 19 23 L 13 23 C 9.480469 23 6.722656 20.375 6.21875 17 Z M 13 25 L 19 25 C 19.71875 25 20.210938 25.441406 20.5625 26 L 11.4375 26 C 11.789063 25.441406 12.28125 25 13 25 Z "></path>
</g>
</svg>
