<?xml version="1.0" encoding="UTF-8"?>
<svg xmlns="http://www.w3.org/2000/svg" xmlns:xlink="http://www.w3.org/1999/xlink" viewBox="0 0 32 32" version="1.1">
<g>
<path d="M 26 4 C 25.230469 4 24.457031 4.292969 23.875 4.875 L 14.90625 13.84375 C 14.066406 13.308594 13.074219 13 12 13 C 11.96875 13 11.9375 13 11.90625 13 C 11.863281 12.996094 11.824219 12.996094 11.78125 13 C 11.730469 12.996094 11.675781 13 11.625 13 C 10.855469 13 10.167969 13.230469 9.65625 13.625 C 9.144531 14.019531 8.839844 14.519531 8.59375 15 C 8.105469 15.960938 7.765625 16.890625 7.03125 17.6875 C 6.351563 18.429688 5.539063 18.804688 4.6875 19.40625 C 3.835938 20.007813 3 21.074219 3 22.59375 C 3 22.65625 2.996094 22.71875 3 22.78125 C 2.992188 22.855469 2.992188 22.925781 3 23 C 3 23.40625 3.082031 23.777344 3.28125 24.28125 C 3.480469 24.785156 3.824219 25.382813 4.3125 25.9375 C 5.292969 27.046875 6.972656 28 9.46875 28 C 14.019531 28 18 24.589844 18 19.90625 C 18 19.695313 17.984375 19.492188 17.96875 19.28125 L 28.125 9.125 C 29.289063 7.960938 29.289063 6.039063 28.125 4.875 C 27.542969 4.292969 26.769531 4 26 4 Z M 26 5.96875 C 26.257813 5.96875 26.519531 6.082031 26.71875 6.28125 C 27.117188 6.679688 27.117188 7.320313 26.71875 7.71875 L 17.4375 16.96875 C 17.179688 16.332031 16.828125 15.75 16.40625 15.21875 C 16.402344 15.210938 16.410156 15.195313 16.40625 15.1875 L 25.28125 6.28125 C 25.480469 6.082031 25.742188 5.96875 26 5.96875 Z M 11.625 15 C 12.859375 15 14 15.90625 14 18.09375 C 14 18.589844 13.425781 20.269531 12.25 21.59375 C 11.074219 22.917969 9.417969 24 7.15625 24 C 6.453125 24 5.839844 23.851563 5.5 23.625 C 5.160156 23.398438 5 23.1875 5 22.59375 C 5 21.648438 5.21875 21.503906 5.84375 21.0625 C 6.464844 20.621094 7.53125 20.078125 8.5 19.03125 C 8.507813 19.023438 8.492188 19.007813 8.5 19 C 9.546875 17.855469 10 16.636719 10.375 15.90625 C 10.5625 15.539063 10.722656 15.304688 10.875 15.1875 C 11.027344 15.070313 11.191406 15 11.625 15 Z M 15.90625 18.96875 C 15.960938 19.277344 16 19.597656 16 19.90625 C 16 23.472656 13.042969 26 9.46875 26 C 9.066406 26 8.703125 25.957031 8.375 25.90625 C 10.691406 25.578125 12.5 24.347656 13.75 22.9375 C 14.925781 21.609375 15.664063 20.210938 15.90625 18.96875 Z "></path>
</g>
</svg>
