<?xml version="1.0" encoding="UTF-8"?>
<svg xmlns="http://www.w3.org/2000/svg" xmlns:xlink="http://www.w3.org/1999/xlink" viewBox="0 0 32 32" version="1.1">
<g>
<path d="M 14 3 C 8.796875 3 4.3125 7.25 4.3125 7.25 L 4 7.5625 L 4 24 L 8 24 L 8 26 L 3 26 L 3 28 L 27 28 C 28.332031 28 29.285156 27.175781 29.65625 26.4375 C 30.027344 25.699219 30 25 30 25 L 28 25 C 28 25 27.972656 25.300781 27.84375 25.5625 C 27.714844 25.824219 27.667969 26 27 26 L 21 26 L 21 24 L 28 24 L 28 22 C 28.03125 19.566406 27.621094 17.734375 26.375 16.53125 C 25.128906 15.328125 23.3125 15 21 15 C 18.785156 15 17.996094 14.066406 17.5 13.0625 C 17.003906 12.058594 17 11.03125 17 11.03125 L 17 3 Z M 14 5 L 15 5 L 15 8 L 13 8 L 13 10 L 15 10 L 15 11 L 13 11 L 13 13 L 15.3125 13 C 15.386719 13.234375 15.484375 13.46875 15.59375 13.71875 L 13.71875 14.90625 L 14.78125 16.59375 L 16.75 15.34375 C 16.945313 15.535156 17.136719 15.734375 17.375 15.90625 L 16.21875 17.65625 L 17.875 18.75 L 19.21875 16.75 C 19.472656 16.816406 19.722656 16.898438 20 16.9375 L 20 19 L 22 19 L 22 17.03125 C 23.484375 17.132813 24.453125 17.472656 25 18 C 25.664063 18.640625 26.03125 19.808594 26 22 L 6 22 L 6 8.53125 C 6.460938 8.140625 10.191406 5 14 5 Z M 10 24 L 19 24 L 19 26 L 10 26 Z "></path>
</g>
</svg>
