<?xml version="1.0" encoding="UTF-8"?>
<svg xmlns="http://www.w3.org/2000/svg" xmlns:xlink="http://www.w3.org/1999/xlink" viewBox="0 0 32 32" version="1.1">
<g>
<path d="M 16 2 L 13.59375 6.375 L 12 4 L 8.625 11.65625 C 8.566406 11.625 8.488281 11.597656 8.4375 11.5625 C 8.078125 11.3125 8 11.042969 8 11 L 6 11 C 6 11.058594 5.917969 11.316406 5.5625 11.5625 C 5.207031 11.808594 4.636719 12 4 12 C 3.367188 12 2.796875 11.8125 2.4375 11.5625 C 2.078125 11.3125 2 11.042969 2 11 L 0 11 C 0 11.941406 0.589844 12.683594 1.3125 13.1875 C 2.035156 13.691406 2.960938 14 4 14 C 5.035156 14 5.960938 13.691406 6.6875 13.1875 C 6.800781 13.109375 6.894531 13.027344 7 12.9375 C 7.101563 13.023438 7.203125 13.113281 7.3125 13.1875 C 7.464844 13.292969 7.644531 13.382813 7.8125 13.46875 L 7.8125 13.5 C 8.019531 13.605469 8.242188 13.675781 8.46875 13.75 C 8.492188 13.757813 8.507813 13.773438 8.53125 13.78125 C 8.921875 13.902344 9.34375 13.980469 9.78125 14 L 9.78125 13.96875 C 9.855469 13.972656 9.925781 14 10 14 C 11.035156 14 11.960938 13.691406 12.6875 13.1875 C 12.800781 13.109375 12.894531 13.027344 13 12.9375 C 13.101563 13.023438 13.203125 13.113281 13.3125 13.1875 C 14.035156 13.691406 14.960938 14 16 14 C 17.035156 14 17.960938 13.691406 18.6875 13.1875 C 18.800781 13.109375 18.894531 13.027344 19 12.9375 C 19.101563 13.023438 19.203125 13.113281 19.3125 13.1875 C 20.035156 13.691406 20.960938 14 22 14 C 22.226563 14 22.441406 13.964844 22.65625 13.9375 C 22.753906 13.925781 22.84375 13.921875 22.9375 13.90625 C 23.03125 13.886719 23.128906 13.867188 23.21875 13.84375 C 23.304688 13.824219 23.386719 13.804688 23.46875 13.78125 C 23.546875 13.757813 23.609375 13.714844 23.6875 13.6875 C 23.820313 13.640625 23.96875 13.589844 24.09375 13.53125 C 24.300781 13.429688 24.507813 13.3125 24.6875 13.1875 C 24.800781 13.109375 24.894531 13.027344 25 12.9375 C 25.101563 13.023438 25.203125 13.113281 25.3125 13.1875 C 26.035156 13.691406 26.960938 14 28 14 C 29.035156 14 29.960938 13.691406 30.6875 13.1875 C 31.414063 12.683594 32 11.941406 32 11 L 30 11 C 30 11.058594 29.917969 11.316406 29.5625 11.5625 C 29.207031 11.808594 28.636719 12 28 12 C 27.367188 12 26.796875 11.8125 26.4375 11.5625 C 26.078125 11.3125 26 11.042969 26 11 L 24 11 C 24 11.058594 23.917969 11.316406 23.5625 11.5625 C 23.511719 11.597656 23.433594 11.625 23.375 11.65625 L 21 6 L 19.4375 7.4375 Z M 16.1875 5.9375 L 19.0625 10.5625 L 20.3125 9.4375 L 21.34375 11.9375 C 20.980469 11.859375 20.664063 11.722656 20.4375 11.5625 C 20.078125 11.3125 20 11.042969 20 11 L 18 11 C 18 11.058594 17.917969 11.316406 17.5625 11.5625 C 17.207031 11.808594 16.636719 12 16 12 C 15.367188 12 14.796875 11.8125 14.4375 11.5625 C 14.078125 11.3125 14 11.042969 14 11 L 12 11 C 12 11.058594 11.917969 11.316406 11.5625 11.5625 C 11.351563 11.710938 11.050781 11.828125 10.71875 11.90625 L 12.5 8 L 13.90625 10.125 Z M 7.03125 15.34375 L 5.84375 18.15625 L 14 29 L 16.25 25.875 L 19.21875 28.90625 L 26.125 18.09375 L 24.9375 15.34375 C 24.347656 15.621094 23.691406 15.839844 23 15.9375 L 23.875 17.90625 L 18.8125 25.875 L 16 23 L 14.03125 25.78125 L 8.15625 17.84375 L 8.96875 15.9375 C 8.277344 15.835938 7.621094 15.625 7.03125 15.34375 Z "></path>
</g>
</svg>
