<?xml version="1.0" encoding="UTF-8"?>
<svg xmlns="http://www.w3.org/2000/svg" xmlns:xlink="http://www.w3.org/1999/xlink" viewBox="0 0 32 32" version="1.1">
<g>
<path d="M 16 4 C 14.632813 4 13.472656 4.644531 12.574219 5.535156 C 12.070313 5.300781 11.59375 5 11 5 C 8.800781 5 7 6.800781 7 9 L 5 9 L 5 23 L 8 23 L 8 25.863281 C 8 25.984375 7.988281 25.992188 7.984375 26 C 7.625 26 7.292969 26.191406 7.113281 26.503906 C 6.933594 26.816406 6.9375 27.199219 7.121094 27.511719 C 7.304688 27.820313 7.640625 28.007813 8 28 C 8.578125 28 9.175781 27.742188 9.53125 27.308594 C 9.882813 26.875 10 26.355469 10 25.863281 L 10 23 L 12 23 L 12 25.863281 C 12 25.984375 11.988281 25.992188 11.984375 26 C 11.625 26 11.292969 26.191406 11.113281 26.503906 C 10.933594 26.816406 10.9375 27.199219 11.121094 27.511719 C 11.304688 27.820313 11.640625 28.007813 12 28 C 12.578125 28 13.175781 27.742188 13.53125 27.308594 C 13.882813 26.875 14 26.355469 14 25.863281 L 14 23 L 19 23 L 19 25.863281 C 19 25.984375 18.988281 25.992188 18.984375 26 C 18.625 26 18.292969 26.191406 18.113281 26.503906 C 17.933594 26.816406 17.9375 27.199219 18.121094 27.511719 C 18.304688 27.820313 18.640625 28.007813 19 28 C 19.578125 28 20.175781 27.742188 20.53125 27.308594 C 20.882813 26.875 21 26.355469 21 25.863281 L 21 23 L 23 23 L 23 25.863281 C 23 25.984375 22.988281 25.992188 22.984375 26 C 22.625 26 22.292969 26.191406 22.113281 26.503906 C 21.933594 26.816406 21.9375 27.199219 22.121094 27.511719 C 22.304688 27.820313 22.640625 28.007813 23 28 C 23.578125 28 24.175781 27.742188 24.53125 27.308594 C 24.882813 26.875 25 26.355469 25 25.863281 L 25 23 L 27 23 L 27 9 L 26 9 C 26 6.800781 24.199219 5 22 5 C 21.097656 5 20.328125 5.378906 19.65625 5.890625 C 18.742188 4.8125 17.519531 4 16 4 Z M 16 6 C 17.1875 6 18.191406 6.6875 18.683594 7.6875 C 18.835938 8 19.144531 8.210938 19.492188 8.238281 C 19.839844 8.269531 20.179688 8.113281 20.386719 7.832031 C 20.753906 7.324219 21.328125 7 22 7 C 23.117188 7 24 7.882813 24 9 L 9 9 C 9 7.882813 9.882813 7 11 7 C 11.449219 7 11.855469 7.152344 12.199219 7.414063 C 12.410156 7.574219 12.679688 7.644531 12.945313 7.609375 C 13.207031 7.570313 13.445313 7.429688 13.605469 7.214844 C 14.15625 6.476563 15.015625 6 16 6 Z M 7 11 L 7.945313 11 C 8.109375 11.042969 8.28125 11.042969 8.445313 11 L 24.554688 11 C 24.699219 11.039063 24.851563 11.042969 25 11.011719 L 25 21 L 24.15625 21 C 24.097656 20.992188 24.042969 20.984375 23.984375 20.984375 C 23.9375 20.988281 23.886719 20.992188 23.839844 21 L 20.15625 21 C 20.097656 20.992188 20.042969 20.984375 19.984375 20.984375 C 19.9375 20.988281 19.886719 20.992188 19.839844 21 L 13.15625 21 C 13.097656 20.992188 13.042969 20.984375 12.984375 20.984375 C 12.9375 20.988281 12.886719 20.992188 12.839844 21 L 9.15625 21 C 9.097656 20.992188 9.042969 20.984375 8.984375 20.984375 C 8.9375 20.988281 8.886719 20.992188 8.839844 21 L 7 21 Z M 12 15 C 11.449219 15 11 15.449219 11 16 C 11 16.550781 11.449219 17 12 17 C 12.550781 17 13 16.550781 13 16 C 13 15.449219 12.550781 15 12 15 Z M 16 15 C 15.449219 15 15 15.449219 15 16 C 15 16.550781 15.449219 17 16 17 C 16.550781 17 17 16.550781 17 16 C 17 15.449219 16.550781 15 16 15 Z M 20 15 C 19.449219 15 19 15.449219 19 16 C 19 16.550781 19.449219 17 20 17 C 20.550781 17 21 16.550781 21 16 C 21 15.449219 20.550781 15 20 15 Z "></path>
</g>
</svg>
