<?xml version="1.0" encoding="UTF-8"?>
<svg xmlns="http://www.w3.org/2000/svg" xmlns:xlink="http://www.w3.org/1999/xlink" viewBox="0 0 32 32" version="1.1">
<g>
<path d="M 15 3 L 15 7 L 17 7 L 17 3 Z M 7 5 L 7 27 L 16.59375 27 C 17.789063 29.917969 20.660156 32 24 32 C 28.40625 32 32 28.40625 32 24 C 32 19.933594 28.933594 16.5625 25 16.0625 L 25 5 L 18 5 L 18 7 L 23 7 L 23 16.0625 C 21.707031 16.226563 20.496094 16.699219 19.46875 17.40625 C 19.257813 17.195313 19.027344 17.011719 18.78125 16.84375 C 19.523438 16.117188 20 15.113281 20 14 C 20 11.800781 18.199219 10 16 10 C 13.800781 10 12 11.800781 12 14 C 12 15.113281 12.476563 16.117188 13.21875 16.84375 C 11.886719 17.746094 11 19.28125 11 21 L 13 21 C 13 19.332031 14.332031 18 16 18 C 16.761719 18 17.441406 18.285156 17.96875 18.75 C 16.746094 20.15625 16 22 16 24 C 16 24.339844 16.019531 24.667969 16.0625 25 L 9 25 L 9 7 L 14 7 L 14 5 Z M 16 12 C 17.117188 12 18 12.882813 18 14 C 18 15.117188 17.117188 16 16 16 C 14.882813 16 14 15.117188 14 14 C 14 12.882813 14.882813 12 16 12 Z M 24 18 C 27.324219 18 30 20.675781 30 24 C 30 27.324219 27.324219 30 24 30 C 20.675781 30 18 27.324219 18 24 C 18 20.675781 20.675781 18 24 18 Z M 21.71875 20.28125 L 20.28125 21.71875 L 22.5625 24 L 20.28125 26.28125 L 21.71875 27.71875 L 24 25.4375 L 26.28125 27.71875 L 27.71875 26.28125 L 25.4375 24 L 27.71875 21.71875 L 26.28125 20.28125 L 24 22.5625 Z "></path>
</g>
</svg>
