<?xml version="1.0" encoding="UTF-8"?>
<svg xmlns="http://www.w3.org/2000/svg" xmlns:xlink="http://www.w3.org/1999/xlink" viewBox="0 0 32 32" version="1.1">
<g>
<path d="M 24.90625 4.46875 L 23.59375 5.09375 L 20.125 6.6875 C 18.832031 6.289063 17.457031 6 16 6 C 10.386719 6 5.550781 9.253906 4.3125 13.75 C 4.113281 13.570313 4 13.296875 4 13 L 4 12 L 2 12 L 2 13 C 2 14.292969 2.84375 15.394531 4 15.8125 C 4 15.875 4 15.9375 4 16 C 4 18.726563 5.4375 21.097656 7.5 22.875 L 7.03125 24.78125 L 6.78125 25.75 L 7.75 25.96875 L 11.75 26.96875 L 12.71875 27.21875 L 13.125 25.59375 C 14.058594 25.792969 14.988281 26 16 26 C 17.007813 26 17.941406 25.789063 18.875 25.59375 L 19.28125 27.21875 L 20.25 26.96875 L 24.25 25.96875 L 25.21875 25.75 L 24.96875 24.78125 L 24.5 22.9375 C 25.492188 22.09375 26.316406 21.113281 26.90625 20 L 29.21875 20 L 29.34375 19.125 L 30 14.5 L 30 13 L 27.375 13 C 26.898438 11.742188 26.160156 10.601563 25.1875 9.625 L 25 5.9375 Z M 23.09375 7.53125 L 23.21875 10.09375 L 23.25 10.5 L 23.53125 10.75 C 24.617188 11.75 25.386719 12.976563 25.75 14.28125 L 25.96875 15 L 27.875 15 L 27.46875 18 L 25.71875 18 L 25.4375 18.59375 C 24.90625 19.820313 24.003906 20.949219 22.8125 21.84375 L 22.28125 22.21875 L 22.4375 22.875 L 22.78125 24.28125 L 20.71875 24.78125 L 20.59375 24.25 L 20.34375 23.25 L 19.375 23.53125 C 18.324219 23.832031 17.179688 24 16 24 C 14.820313 24 13.679688 23.832031 12.625 23.53125 L 11.625 23.25 L 11.40625 24.25 L 11.28125 24.78125 L 9.21875 24.28125 L 9.5625 22.875 L 9.71875 22.21875 L 9.1875 21.84375 C 7.195313 20.351563 6 18.277344 6 16 C 6 11.691406 10.367188 8 16 8 C 17.410156 8 18.753906 8.234375 19.96875 8.65625 L 20.34375 8.78125 Z M 16 10 C 13.789063 10 12 11.789063 12 14 C 12 16.210938 14 17.015625 14 21 L 15 21 C 15 21.554688 15.449219 22 16 22 C 16.550781 22 17 21.550781 17 21 L 18 21 C 18 17.042969 20 16.199219 20 14 C 20 11.800781 18.210938 10 16 10 Z M 16 12 C 17.101563 12 18 12.898438 18 14 C 18 14.425781 17.808594 14.792969 17.4375 15.5 C 17.09375 16.152344 16.671875 16.941406 16.375 18 L 15.625 18 C 15.328125 16.9375 14.90625 16.121094 14.5625 15.46875 C 14.191406 14.769531 14 14.425781 14 14 C 14 12.898438 14.898438 12 16 12 Z "></path>
</g>
</svg>
