<?xml version="1.0" encoding="UTF-8"?>
<svg xmlns="http://www.w3.org/2000/svg" xmlns:xlink="http://www.w3.org/1999/xlink" viewBox="0 0 32 32" version="1.1">
<g>
<path d="M 10 2 C 9.449219 2 9 2.449219 9 3 C 9 3.550781 9.449219 4 10 4 C 10.550781 4 11 3.550781 11 3 C 11 2.449219 10.550781 2 10 2 Z M 17.003906 2 C 14.25 1.988281 12.003906 4.25 12 6.996094 C 11.988281 8.398438 12.585938 9.539063 13.078125 10.621094 C 13.570313 11.703125 13.996094 12.734375 14 14.003906 L 14.003906 15 L 19.988281 15 L 20 14.011719 C 20.011719 12.722656 20.433594 11.671875 20.921875 10.589844 C 21.40625 9.503906 21.992188 8.382813 22 7.003906 C 22.011719 4.210938 19.703125 2.011719 17.003906 2 Z M 24 2 C 23.449219 2 23 2.449219 23 3 C 23 3.550781 23.449219 4 24 4 C 24.550781 4 25 3.550781 25 3 C 25 2.449219 24.550781 2 24 2 Z M 16.996094 4 C 18.617188 4.007813 20.007813 5.308594 20 6.996094 C 19.996094 7.769531 19.601563 8.644531 19.09375 9.769531 C 18.699219 10.65625 18.332031 11.757813 18.15625 13 L 15.84375 13 C 15.667969 11.765625 15.296875 10.671875 14.898438 9.789063 C 14.390625 8.671875 13.992188 7.804688 14 7.007813 L 14 7 C 14 5.332031 15.332031 3.992188 16.996094 4 Z M 9 6 C 8.449219 6 8 6.449219 8 7 C 8 7.550781 8.449219 8 9 8 C 9.550781 8 10 7.550781 10 7 C 10 6.449219 9.550781 6 9 6 Z M 25 6 C 24.449219 6 24 6.449219 24 7 C 24 7.550781 24.449219 8 25 8 C 25.550781 8 26 7.550781 26 7 C 26 6.449219 25.550781 6 25 6 Z M 10 10 C 9.449219 10 9 10.449219 9 11 C 9 11.550781 9.449219 12 10 12 C 10.550781 12 11 11.550781 11 11 C 11 10.449219 10.550781 10 10 10 Z M 24 10 C 23.449219 10 23 10.449219 23 11 C 23 11.550781 23.449219 12 24 12 C 24.550781 12 25 11.550781 25 11 C 25 10.449219 24.550781 10 24 10 Z M 14 16 L 14 18 L 17.023438 19 L 20 18 L 20 16 Z M 10.515625 19 C 9.484375 19.003906 8.699219 19.265625 8.699219 19.265625 L 8.679688 19.273438 L 3.007813 21.449219 L 4.992188 27.019531 L 9.921875 25.128906 L 17.058594 29.058594 L 29.382813 23.953125 L 28.617188 22.109375 L 17.179688 26.84375 L 10.078125 22.933594 L 6.1875 24.421875 L 5.546875 22.617188 L 9.34375 21.160156 C 9.351563 21.15625 9.820313 21 10.515625 21 C 11.21875 21 12.039063 21.15625 12.738281 21.789063 L 12.75 21.796875 L 12.753906 21.800781 C 13.785156 22.695313 14.5625 23.320313 15.644531 23.660156 C 16.726563 24 17.953125 24.039063 20.003906 24.03125 L 19.996094 22.03125 C 17.984375 22.039063 16.933594 21.96875 16.246094 21.75 C 15.558594 21.539063 15.070313 21.160156 14.078125 20.300781 L 14.066406 20.292969 C 12.910156 19.253906 11.535156 18.996094 10.515625 19 Z "></path>
</g>
</svg>
