<?xml version="1.0" encoding="UTF-8"?>
<svg xmlns="http://www.w3.org/2000/svg" xmlns:xlink="http://www.w3.org/1999/xlink" viewBox="0 0 32 32" version="1.1">
<g>
<path d="M 21.0625 7 C 20.398438 7.007813 19.59375 7.035156 18.8125 7.09375 C 18.03125 7.152344 17.277344 7.257813 16.625 7.4375 C 16.296875 7.527344 15.992188 7.605469 15.6875 7.8125 C 15.609375 7.863281 15.515625 7.921875 15.4375 8 L 2 8 L 2 24 L 24 24 L 24 22.96875 C 24.308594 23 24.636719 23 25 23 L 30 23 L 30 21 L 25 21 C 24.25 21 23.988281 20.976563 23.65625 20.84375 C 23.753906 20.882813 23.242188 20.632813 22.6875 20.34375 C 22.132813 20.054688 21.394531 19.683594 20.6875 19.3125 C 19.980469 18.941406 19.28125 18.574219 18.71875 18.28125 C 18.15625 17.988281 17.878906 17.816406 17.5625 17.6875 C 17.101563 17.5 16.875 17.023438 17.0625 16.5625 C 17.25 16.101563 17.757813 15.875 18.21875 16.0625 C 18.460938 16.160156 23.625 18.3125 23.625 18.3125 L 25 18.875 L 25 17.03125 L 24 10.84375 L 23.875 10.21875 L 23.28125 10.03125 L 19.875 9.0625 C 20.929688 9.023438 22.082031 9.003906 22.46875 9 C 23.449219 8.996094 24.078125 9.246094 24.5625 9.625 C 25.046875 10.003906 25.398438 10.558594 25.6875 11.125 C 26.039063 11.8125 26.480469 12.9375 27.09375 13.9375 C 27.402344 14.4375 27.753906 14.917969 28.21875 15.3125 C 28.683594 15.707031 29.300781 16 30 16 L 30 14 C 29.859375 14 29.714844 13.964844 29.5 13.78125 C 29.285156 13.597656 29.054688 13.269531 28.8125 12.875 C 28.328125 12.085938 27.894531 11.050781 27.46875 10.21875 C 27.109375 9.515625 26.59375 8.699219 25.78125 8.0625 C 24.96875 7.425781 23.847656 6.992188 22.46875 7 C 22.253906 7 21.726563 6.992188 21.0625 7 Z M 4 10 L 15.84375 10 L 22.09375 11.78125 L 22.75 15.78125 C 21.253906 15.160156 19.265625 14.339844 18.96875 14.21875 C 17.503906 13.628906 15.808594 14.347656 15.21875 15.8125 C 14.628906 17.277344 15.347656 18.972656 16.8125 19.5625 C 16.71875 19.527344 17.257813 19.773438 17.8125 20.0625 C 18.367188 20.351563 19.074219 20.722656 19.78125 21.09375 C 20.402344 21.417969 20.980469 21.730469 21.5 22 L 4 22 Z M 10 12 C 8.355469 12 7 13.355469 7 15 C 7 15.679688 7.238281 16.308594 7.625 16.8125 C 6.652344 17.542969 6 18.699219 6 20 L 8 20 C 8 18.882813 8.882813 18 10 18 C 11.117188 18 12 18.882813 12 20 L 14 20 C 14 18.699219 13.347656 17.542969 12.375 16.8125 C 12.761719 16.308594 13 15.679688 13 15 C 13 13.355469 11.644531 12 10 12 Z M 10 14 C 10.5625 14 11 14.4375 11 15 C 11 15.5625 10.5625 16 10 16 C 9.4375 16 9 15.5625 9 15 C 9 14.4375 9.4375 14 10 14 Z "></path>
</g>
</svg>
