<?xml version="1.0" encoding="UTF-8"?>
<svg xmlns="http://www.w3.org/2000/svg" xmlns:xlink="http://www.w3.org/1999/xlink" viewBox="0 0 32 32" version="1.1">
<g>
<path d="M 6 6 C 4.898438 6 4 6.898438 4 8 L 4 21 C 4 22.101563 4.898438 23 6 23 L 26 23 C 27.101563 23 28 22.101563 28 21 L 28 8 C 28 6.898438 27.101563 6 26 6 Z M 6 8 L 26 8 L 26 19 L 6 19 Z M 16 20 C 16.550781 20 17 20.449219 17 21 C 17 21.550781 16.550781 22 16 22 C 15.449219 22 15 21.550781 15 21 C 15 20.449219 15.449219 20 16 20 Z M 14.15625 24 L 14.0625 24.59375 C 13.957031 25.257813 13.390625 25.75 12.71875 25.75 L 11 25.75 L 11 27 L 21 27 L 21 25.75 L 19.28125 25.75 C 18.609375 25.75 18.042969 25.257813 17.9375 24.59375 L 17.84375 24 Z "></path>
</g>
</svg>
