<?xml version="1.0" encoding="UTF-8"?>
<svg xmlns="http://www.w3.org/2000/svg" xmlns:xlink="http://www.w3.org/1999/xlink" viewBox="0 0 32 32" version="1.1">
<g>
<path d="M 4 5 L 4 27 L 15 27 C 14.785156 26.359375 14.636719 25.691406 14.5625 25 L 6 25 L 6 11 L 26 11 L 26 14.71875 C 26.699219 14.871094 27.367188 15.109375 28 15.40625 L 28 5 Z M 6 7 L 26 7 L 26 9 L 6 9 Z M 9 14 L 9 16 L 11 16 L 11 14 Z M 13 14 L 13 16 L 18.90625 16 C 19.84375 15.398438 20.878906 14.960938 22 14.71875 L 22 14 Z M 24 16 C 19.59375 16 16 19.59375 16 24 C 16 28.40625 19.59375 32 24 32 C 28.40625 32 32 28.40625 32 24 C 32 19.59375 28.40625 16 24 16 Z M 9 18 L 9 20 L 11 20 L 11 18 Z M 13 18 L 13 20 L 15.40625 20 C 15.742188 19.28125 16.160156 18.609375 16.65625 18 Z M 24 18 C 27.324219 18 30 20.675781 30 24 C 30 27.324219 27.324219 30 24 30 C 20.675781 30 18 27.324219 18 24 C 18 20.675781 20.675781 18 24 18 Z M 21.96875 20 L 22 20 C 21.992188 20.003906 21.976563 19.996094 21.96875 20 Z M 23 20 L 23 24.5 L 25 24.5 L 25 20 Z M 23 26 L 23 28 L 25 28 L 25 26 Z "></path>
</g>
</svg>
