<?xml version="1.0" encoding="UTF-8"?>
<svg xmlns="http://www.w3.org/2000/svg" xmlns:xlink="http://www.w3.org/1999/xlink" viewBox="0 0 32 32" version="1.1">
<g>
<path d="M 15.875 4 L 15.78125 4.03125 C 15.78125 4.03125 15.097656 4.203125 14.25 4.6875 C 13.527344 5.097656 12.640625 5.796875 11.71875 6.8125 C 10.933594 6.296875 10.003906 6 9 6 C 6.25 6 4 8.25 4 11 C 4 13.292969 5.574219 15.230469 7.6875 15.8125 C 7.582031 16.257813 7.480469 16.722656 7.40625 17.25 C 7.15625 18.957031 7 20.839844 7 23 L 9 23 C 9 21.011719 9.128906 19.269531 9.34375 17.71875 C 9.433594 17.054688 9.550781 16.492188 9.6875 15.9375 C 11.035156 15.746094 12.21875 15.011719 13 13.96875 L 13 28 L 27 28 L 27 11 L 24.84375 11 L 24.1875 7 L 26 7 L 26 4 Z M 18.03125 6 L 21.96875 6 L 22 6.15625 L 22.8125 11 L 17.1875 11 L 18 6.15625 Z M 15.78125 7.125 L 15.125 11 L 14 11 C 14 10.070313 13.726563 9.214844 13.28125 8.46875 C 14.222656 7.660156 15.125 7.292969 15.78125 7.125 Z M 9 8 C 9.535156 8 10.035156 8.136719 10.46875 8.375 C 9.914063 9.261719 9.417969 10.328125 8.9375 11.53125 C 8.742188 11.988281 8.546875 12.414063 8.375 12.9375 C 8.285156 13.222656 8.195313 13.542969 8.125 13.875 C 6.890625 13.503906 6 12.363281 6 11 C 6 9.332031 7.332031 8 9 8 Z M 11.875 10.15625 C 11.953125 10.425781 12 10.703125 12 11 C 12 12.234375 11.277344 13.289063 10.21875 13.75 C 10.25 13.636719 10.277344 13.507813 10.3125 13.40625 C 10.398438 13.136719 10.5 12.9375 10.59375 12.6875 C 10.988281 11.683594 11.421875 10.851563 11.875 10.15625 Z M 15 13 L 25 13 L 25 26 L 15 26 Z M 17 16 L 17 18 L 23 18 L 23 16 Z "></path>
</g>
</svg>
