<?xml version="1.0" encoding="UTF-8"?>
<svg xmlns="http://www.w3.org/2000/svg" xmlns:xlink="http://www.w3.org/1999/xlink" viewBox="0 0 32 32" version="1.1">
<g>
<path d="M 8 6 C 6.707031 6 5.605469 6.84375 5.1875 8 L 2 8 L 2 10 L 5.1875 10 C 5.605469 11.15625 6.707031 12 8 12 C 9.292969 12 10.394531 11.15625 10.8125 10 L 13.1875 10 C 13.605469 11.15625 14.707031 12 16 12 C 17.292969 12 18.394531 11.15625 18.8125 10 L 21.1875 10 C 21.605469 11.15625 22.707031 12 24 12 C 25.292969 12 26.394531 11.15625 26.8125 10 L 30 10 L 30 8 L 26.8125 8 C 26.394531 6.84375 25.292969 6 24 6 C 22.707031 6 21.605469 6.84375 21.1875 8 L 18.8125 8 C 18.394531 6.84375 17.292969 6 16 6 C 14.707031 6 13.605469 6.84375 13.1875 8 L 10.8125 8 C 10.394531 6.84375 9.292969 6 8 6 Z M 8 8 C 8.5625 8 9 8.4375 9 9 C 9 9.5625 8.5625 10 8 10 C 7.4375 10 7 9.5625 7 9 C 7 8.4375 7.4375 8 8 8 Z M 16 8 C 16.5625 8 17 8.4375 17 9 C 17 9.5625 16.5625 10 16 10 C 15.4375 10 15 9.5625 15 9 C 15 8.4375 15.4375 8 16 8 Z M 24 8 C 24.5625 8 25 8.4375 25 9 C 25 9.5625 24.5625 10 24 10 C 23.4375 10 23 9.5625 23 9 C 23 8.4375 23.4375 8 24 8 Z M 9.8125 16.28125 L 3.09375 23 L 9.8125 29.71875 L 11.21875 28.28125 L 6.9375 24 L 28 24 L 28 22 L 6.9375 22 L 11.21875 17.71875 Z "></path>
</g>
</svg>
