<?xml version="1.0" encoding="UTF-8"?>
<svg xmlns="http://www.w3.org/2000/svg" xmlns:xlink="http://www.w3.org/1999/xlink" viewBox="0 0 32 32" version="1.1">
<g>
<path d="M 16 3.96875 L 15.46875 4.3125 L 3.96875 11.53125 L 5 13.15625 L 5 28 L 27 28 L 27 13.15625 L 28.03125 11.53125 L 16.53125 4.3125 Z M 16 6.34375 L 25 12 L 25 21 L 17 21 L 17 18.84375 C 18.71875 18.398438 20 16.851563 20 15 C 20 12.800781 18.199219 11 16 11 C 13.800781 11 12 12.800781 12 15 C 12 16.851563 13.28125 18.398438 15 18.84375 L 15 23 L 25 23 L 25 26 L 7 26 L 7 12 Z M 16 13 C 17.117188 13 18 13.882813 18 15 C 18 16.117188 17.117188 17 16 17 C 14.882813 17 14 16.117188 14 15 C 14 13.882813 14.882813 13 16 13 Z M 16 14 C 15.449219 14 15 14.449219 15 15 C 15 15.550781 15.449219 16 16 16 C 16.550781 16 17 15.550781 17 15 C 17 14.449219 16.550781 14 16 14 Z "></path>
</g>
</svg>
