<?xml version="1.0" encoding="UTF-8"?>
<svg xmlns="http://www.w3.org/2000/svg" xmlns:xlink="http://www.w3.org/1999/xlink" viewBox="0 0 32 32" version="1.1">
<g>
<path d="M 8 3 L 8 7 L 12 7 L 14 6 L 24 6 L 24 10 L 2 10 L 2 22 L 18 22 L 18 26 L 14 26 L 12 25 L 8 25 L 8 29 L 12 29 L 14 28 L 20 28 L 20 17.730469 C 20.617188 17.375 21 16.714844 21 16 C 21 14.894531 20.105469 14 19 14 C 17.894531 14 17 14.894531 17 16 C 17 16.714844 17.382813 17.371094 18 17.730469 L 18 20 L 4 20 L 4 12 L 24 12 L 24 14.269531 C 23.382813 14.628906 23 15.285156 23 16 C 23 17.105469 23.894531 18 25 18 C 26.105469 18 27 17.105469 27 16 C 27 15.285156 26.617188 14.625 26 14.269531 L 26 4 L 14 4 L 12 3 Z M 28 10 L 28 20 L 22 20 L 22 22 L 30 22 L 30 10 Z M 7 14 C 5.894531 14 5 14.894531 5 16 C 5 17.105469 5.894531 18 7 18 C 8.105469 18 9 17.105469 9 16 C 9 14.894531 8.105469 14 7 14 Z M 13 14 C 11.894531 14 11 14.894531 11 16 C 11 17.105469 11.894531 18 13 18 C 14.105469 18 15 17.105469 15 16 C 15 14.894531 14.105469 14 13 14 Z "></path>
</g>
</svg>
