<?xml version="1.0" encoding="UTF-8"?>
<svg xmlns="http://www.w3.org/2000/svg" xmlns:xlink="http://www.w3.org/1999/xlink" viewBox="0 0 32 32" version="1.1">
<g>
<path d="M 28 4 L 26 4 C 26 5.5 22.808594 5.960938 21.953125 6 L 21.566406 6.019531 L 12 15.585938 L 10.707031 14.292969 L 9.292969 15.707031 L 10.585938 17 L 3.984375 23.601563 L 8.398438 28.015625 L 15 21.414063 L 16.292969 22.707031 L 17.707031 21.292969 L 16.839844 20.425781 C 20.269531 19.050781 28 14.757813 28 4 Z M 8.398438 25.1875 L 6.8125 23.601563 L 12 18.414063 L 13.585938 20 Z M 15.289063 18.878906 L 13.414063 17 L 22.441406 7.972656 C 23.453125 7.886719 24.691406 7.632813 25.742188 7.121094 C 24.308594 15.445313 17.304688 18.238281 15.289063 18.878906 Z "></path>
</g>
</svg>
