<?xml version="1.0" encoding="UTF-8"?>
<svg xmlns="http://www.w3.org/2000/svg" xmlns:xlink="http://www.w3.org/1999/xlink" viewBox="0 0 32 32" version="1.1">
<g>
<path d="M 4 5 L 4 27 L 28 27 L 28 5 Z M 6 7 L 26 7 L 26 9 L 6 9 Z M 6 11 L 26 11 L 26 25 L 6 25 Z M 9.9375 14 L 9.625 14.34375 C 9.625 14.34375 8.925781 15 8.375 15 L 8.375 17 C 9.066406 17 9.550781 16.695313 10 16.4375 L 10 22 L 12 22 L 12 14 Z M 16.5 14 C 15.132813 14 14 15.132813 14 16.5 L 14 19.5 C 14 20.867188 15.132813 22 16.5 22 C 17.867188 22 19 20.867188 19 19.5 L 19 16.5 C 19 15.132813 17.867188 14 16.5 14 Z M 21.9375 14 L 21.625 14.34375 C 21.625 14.34375 20.925781 15 20.375 15 L 20.375 17 C 21.066406 17 21.550781 16.695313 22 16.4375 L 22 22 L 24 22 L 24 14 Z M 16.5 16 C 16.785156 16 17 16.214844 17 16.5 L 17 19.5 C 17 19.785156 16.785156 20 16.5 20 C 16.214844 20 16 19.785156 16 19.5 L 16 16.5 C 16 16.214844 16.214844 16 16.5 16 Z "></path>
</g>
</svg>
