<?xml version="1.0" encoding="UTF-8"?>
<svg xmlns="http://www.w3.org/2000/svg" xmlns:xlink="http://www.w3.org/1999/xlink" viewBox="0 0 32 32" version="1.1">
<g>
<path d="M 4 4 L 4 6 L 11 6 C 11.554688 6 12 6.445313 12 7 L 12 14 C 10.894531 14 10 14.894531 10 16 C 10 17.105469 10.894531 18 12 18 L 12 25 C 12 25.554688 11.554688 26 11 26 L 4 26 L 4 28 L 11 28 C 12.644531 28 14 26.644531 14 25 L 14 7 C 14 5.355469 12.644531 4 11 4 Z M 16 4 L 16 6 C 21.566406 6 26 10.433594 26 16 C 26 21.566406 21.566406 26 16 26 L 16 28 C 22.636719 28 28 22.636719 28 16 C 28 9.363281 22.636719 4 16 4 Z M 16 8 L 16 10 C 19.371094 10 22 12.628906 22 16 C 22 19.371094 19.371094 22 16 22 L 16 24 C 20.429688 24 24 20.429688 24 16 C 24 11.570313 20.429688 8 16 8 Z M 16 12 L 16 14 C 17.191406 14 18 14.808594 18 16 C 18 17.191406 17.191406 18 16 18 L 16 20 C 18.210938 20 20 18.210938 20 16 C 20 13.789063 18.210938 12 16 12 Z "></path>
</g>
</svg>
