<?xml version="1.0" encoding="UTF-8"?>
<svg xmlns="http://www.w3.org/2000/svg" xmlns:xlink="http://www.w3.org/1999/xlink" viewBox="0 0 32 32" version="1.1">
<g>
<path d="M 6.5 4 C 4.855469 4 3.5 5.355469 3.5 7 C 3.5 8.644531 4.855469 10 6.5 10 C 8.144531 10 9.5 8.644531 9.5 7 C 9.5 5.355469 8.144531 4 6.5 4 Z M 6.5 6 C 7.0625 6 7.5 6.4375 7.5 7 C 7.5 7.5625 7.0625 8 6.5 8 C 5.9375 8 5.5 7.5625 5.5 7 C 5.5 6.4375 5.9375 6 6.5 6 Z M 4 11 L 4 28 L 10 28 L 10 20 C 10 18.300781 11.300781 17 13 17 L 28 17 L 28 11 L 13 11 C 12 11 11 11.199219 10 11.5 L 10 11 Z M 6 13 L 8 13 L 8 15.09375 C 9.300781 13.792969 11 13 13 13 L 16 13 L 16 15 L 13 15 C 10.199219 15 8 17.199219 8 20 L 8 26 L 6 26 Z M 18 13 L 20 13 L 20 15 L 18 15 Z M 22 13 L 23 13 L 23 15 L 22 15 Z M 25 13 L 26 13 L 26 15 L 25 15 Z "></path>
</g>
</svg>
