<?xml version="1.0" encoding="UTF-8"?>
<svg xmlns="http://www.w3.org/2000/svg" xmlns:xlink="http://www.w3.org/1999/xlink" viewBox="0 0 32 32" version="1.1">
<g>
<path d="M 13 5 L 13 27 L 28 27 L 28 5 Z M 5 6 L 5 8 L 7 8 L 7 9 L 4 9 L 4 21.53125 L 4.4375 21.84375 L 7 23.5625 L 7 27 L 9 27 L 9 23.5625 L 11.5625 21.84375 L 12 21.53125 L 12 9 L 9 9 L 9 8 L 11 8 L 11 6 Z M 15 7 L 26 7 L 26 25 L 15 25 Z M 17 9 L 17 16 L 24 16 L 24 9 Z M 6 11 L 10 11 L 10 12 L 8 12 L 8 14 L 10 14 L 10 15 L 8 15 L 8 17 L 10 17 L 10 18 L 8 18 L 8 20 L 10 20 L 10 20.4375 L 8 21.78125 L 6 20.4375 Z M 19 11 L 22 11 L 22 14 L 19 14 Z M 17 18 L 17 20 L 20 20 L 20 18 Z M 21 18 L 21 20 L 24 20 L 24 18 Z M 17 21 L 17 23 L 20 23 L 20 21 Z M 21 21 L 21 23 L 24 23 L 24 21 Z "></path>
</g>
</svg>
