<?xml version="1.0" encoding="UTF-8"?>
<svg xmlns="http://www.w3.org/2000/svg" xmlns:xlink="http://www.w3.org/1999/xlink" viewBox="0 0 32 32" version="1.1">
<g>
<path d="M 16 3 L 11 8 L 15 8 L 15 11 L 17 11 L 17 8 L 21 8 Z M 3 13 L 3 28 L 29 28 L 29 13 Z M 7 15 L 25 15 C 25 16.105469 25.894531 17 27 17 L 27 24 C 25.894531 24 25 24.894531 25 26 L 7 26 C 7 24.894531 6.105469 24 5 24 L 5 17 C 6.105469 17 7 16.105469 7 15 Z M 16 16 C 13.789063 16 12 18.015625 12 20.5 C 12 22.984375 13.789063 25 16 25 C 18.210938 25 20 22.984375 20 20.5 C 20 18.015625 18.210938 16 16 16 Z M 16 18 C 17.101563 18 18 19.121094 18 20.5 C 18 21.878906 17.101563 23 16 23 C 14.898438 23 14 21.878906 14 20.5 C 14 19.121094 14.898438 18 16 18 Z M 8.5 19 C 7.671875 19 7 19.671875 7 20.5 C 7 21.328125 7.671875 22 8.5 22 C 9.328125 22 10 21.328125 10 20.5 C 10 19.671875 9.328125 19 8.5 19 Z M 23.5 19 C 22.671875 19 22 19.671875 22 20.5 C 22 21.328125 22.671875 22 23.5 22 C 24.328125 22 25 21.328125 25 20.5 C 25 19.671875 24.328125 19 23.5 19 Z "></path>
</g>
</svg>
