<?xml version="1.0" encoding="UTF-8"?>
<svg xmlns="http://www.w3.org/2000/svg" xmlns:xlink="http://www.w3.org/1999/xlink" viewBox="0 0 32 32" version="1.1">
<g>
<path d="M 15 3 C 8.9375 3 4 7.9375 4 14 C 4 16.15625 4.84375 17.941406 5.59375 19.5625 C 6.34375 21.183594 7 22.625 7 24.125 L 7 29 L 9 29 L 9 24.125 C 9 22.0625 8.15625 20.332031 7.40625 18.71875 C 6.65625 17.105469 6 15.628906 6 14 C 6 9.015625 10.015625 5 15 5 C 18.808594 5 20.835938 6.582031 22.0625 8.1875 C 23.289063 9.792969 23.59375 11.375 23.59375 11.375 L 23.625 11.5 L 23.6875 11.625 C 23.6875 11.625 26.042969 16.378906 26.375 17.03125 C 26.445313 17.167969 26.445313 17.28125 26.4375 17.3125 C 26.429688 17.34375 26.484375 17.320313 26.40625 17.34375 C 25.839844 17.503906 24.75 17.78125 24.75 17.78125 L 24 17.96875 L 24 21 C 24 21.65625 23.625 22.433594 23.03125 23.03125 C 22.4375 23.628906 21.664063 24 21 24 L 19 24 L 19 29 L 21 29 L 21 26 C 22.335938 26 23.5625 25.347656 24.46875 24.4375 C 25.375 23.527344 26 22.328125 26 21 L 26 19.5 C 26.371094 19.402344 26.625 19.347656 26.96875 19.25 C 27.652344 19.054688 28.195313 18.480469 28.375 17.875 C 28.554688 17.269531 28.4375 16.640625 28.15625 16.09375 C 27.867188 15.527344 25.5 10.71875 25.5 10.71875 L 25.46875 10.71875 C 25.382813 10.34375 25.007813 8.734375 23.65625 6.96875 C 22.136719 4.984375 19.390625 3 15 3 Z M 15 10 C 12.789063 10 11 11.789063 11 14 C 11 16.210938 13 17.015625 13 21 L 14 21 C 14 21.554688 14.449219 22 15 22 C 15.550781 22 16 21.550781 16 21 L 17 21 C 17 17.042969 19 16.199219 19 14 C 19 11.800781 17.210938 10 15 10 Z M 15 12 C 16.101563 12 17 12.898438 17 14 C 17 14.425781 16.808594 14.792969 16.4375 15.5 C 16.09375 16.152344 15.671875 16.941406 15.375 18 L 14.625 18 C 14.328125 16.9375 13.90625 16.121094 13.5625 15.46875 C 13.191406 14.769531 13 14.425781 13 14 C 13 12.898438 13.898438 12 15 12 Z "></path>
</g>
</svg>
