<?xml version="1.0" encoding="UTF-8"?>
<svg xmlns="http://www.w3.org/2000/svg" xmlns:xlink="http://www.w3.org/1999/xlink" viewBox="0 0 32 32" version="1.1">
<g>
<path d="M 5 5 C 3.894531 5 3 5.894531 3 7 C 3 8.105469 3.894531 9 5 9 L 6 9 L 6 24 C 6 25.644531 7.355469 27 9 27 L 23 27 C 24.644531 27 26 25.644531 26 24 L 26 9 L 27 9 C 28.105469 9 29 8.105469 29 7 C 29 5.894531 28.105469 5 27 5 Z M 8 7 L 18 7 L 18 25 L 9 25 C 8.433594 25 8 24.566406 8 24 Z M 21 7 L 24 7 L 24 24 C 24 24.566406 23.566406 25 23 25 L 21 25 Z "></path>
</g>
</svg>
