<?xml version="1.0"?>
<svg xmlns="http://www.w3.org/2000/svg" viewBox="0 0 32 32">
    <path d="M 5 6 C 3.895 6 3 6.895 3 8 C 3 9.105 3.895 10 5 10 L 6 10 L 6 28 L 26 28 L 26 10 L 27 10 C 28.105 10 29 9.105 29 8 C 29 6.895 28.105 6 27 6 L 25 6 L 7 6 L 5 6 z M 8 8 L 24 8 L 24 26 L 8 26 L 8 8 z M 16.925781 11 C 15.465899 11 14.231645 11.796452 13.503906 12.921875 C 13.107728 13.53455 12.842776 14.241411 12.673828 15 L 11.455078 15 L 11.455078 16.5 L 12.482422 16.5 C 12.474349 16.667149 12.455078 16.83008 12.455078 17 C 12.455078 17.16992 12.474349 17.332851 12.482422 17.5 L 11.455078 17.5 L 11.455078 19 L 12.673828 19 C 12.842776 19.758589 13.107728 20.46545 13.503906 21.078125 C 14.231645 22.203548 15.465899 23 16.925781 23 C 18.296619 23 19.419581 22.3124 20.255859 21.345703 L 18.744141 20.037109 C 18.118419 20.760413 17.726944 21 16.925781 21 C 16.126663 21 15.624152 20.676514 15.181641 19.992188 C 15.006825 19.721841 14.865658 19.377751 14.748047 19 L 17.455078 19 L 17.455078 17.5 L 14.484375 17.5 C 14.473576 17.334061 14.455078 17.172872 14.455078 17 C 14.455078 16.827128 14.473576 16.665939 14.484375 16.5 L 17.455078 16.5 L 17.455078 15 L 14.748047 15 C 14.865658 14.622249 15.006825 14.278159 15.181641 14.007812 C 15.624152 13.323486 16.126663 13 16.925781 13 C 17.660742 13 18.09003 13.318099 18.744141 14.074219 L 20.255859 12.765625 C 19.44797 11.831745 18.364821 11 16.925781 11 z"></path>
</svg>
