<?xml version="1.0" encoding="UTF-8"?>
<svg xmlns="http://www.w3.org/2000/svg" xmlns:xlink="http://www.w3.org/1999/xlink" viewBox="0 0 32 32" version="1.1">
<g>
<path d="M 11.9375 4.65625 L 10.0625 5.34375 C 10.0625 5.34375 10.566406 6.539063 11.71875 7.5625 C 11.6875 7.585938 11.65625 7.601563 11.625 7.625 C 11.109375 8.015625 10.613281 8.652344 10.1875 9.59375 L 9.21875 8.34375 L 9.0625 8.15625 L 8.8125 8.03125 L 6.375 7.0625 L 5.625 8.9375 L 7.8125 9.8125 L 9 11.34375 C 8.824219 11.5625 8.65625 11.796875 8.5 12.03125 L 5.9375 12.5 L 5.5625 12.5625 L 5.3125 12.875 L 3.8125 14.84375 L 5.375 16.0625 L 6.65625 14.40625 L 7.4375 14.28125 C 7.164063 15.144531 7 16.050781 7 17 C 7 18.550781 7.363281 19.882813 7.9375 21.03125 L 7.1875 23.3125 L 4.4375 25.15625 L 5.5625 26.84375 L 8.84375 24.65625 L 8.9375 24.3125 L 9.34375 23.0625 C 10 23.808594 10.714844 24.441406 11.4375 24.9375 C 13.601563 26.425781 15.75 26.96875 15.75 26.96875 L 16 27.03125 L 16.25 26.96875 C 16.25 26.96875 18.398438 26.425781 20.5625 24.9375 C 21.285156 24.441406 22 23.808594 22.65625 23.0625 L 23.0625 24.3125 L 23.15625 24.65625 L 26.4375 26.84375 L 27.5625 25.15625 L 24.8125 23.3125 L 24.0625 21.03125 C 24.636719 19.882813 25 18.550781 25 17 C 25 16.054688 24.863281 15.136719 24.59375 14.28125 L 25.34375 14.40625 L 26.625 16.0625 L 28.1875 14.84375 L 26.6875 12.875 L 26.4375 12.5625 L 26.0625 12.5 L 23.5 12.03125 C 23.34375 11.792969 23.179688 11.5625 23 11.34375 L 24.1875 9.8125 L 26.375 8.9375 L 25.625 7.0625 L 23.1875 8.03125 L 22.9375 8.15625 L 22.78125 8.34375 L 21.8125 9.625 C 21.375 8.664063 20.851563 8.023438 20.34375 7.625 C 20.324219 7.609375 20.300781 7.609375 20.28125 7.59375 C 21.445313 6.566406 21.9375 5.34375 21.9375 5.34375 L 20.0625 4.65625 C 20.0625 4.65625 19.566406 6.15625 17.90625 6.75 C 17.414063 6.28125 16.734375 6 16 6 C 15.265625 6 14.585938 6.28125 14.09375 6.75 C 12.433594 6.15625 11.9375 4.65625 11.9375 4.65625 Z M 13.1875 9 L 18.78125 9 C 18.84375 9.019531 18.945313 9.070313 19.09375 9.1875 C 19.296875 9.347656 19.621094 10.066406 19.90625 10.625 C 19.1875 10.796875 17.980469 11 16 11 C 13.972656 11 12.71875 10.800781 12 10.625 C 11.984375 10.621094 11.984375 10.628906 11.96875 10.625 C 12.285156 9.894531 12.601563 9.402344 12.84375 9.21875 C 13 9.101563 13.117188 9.023438 13.1875 9 Z M 10.78125 12.34375 C 10.984375 12.417969 11.171875 12.480469 11.5 12.5625 C 12.410156 12.785156 13.84375 13 16 13 C 18.15625 13 19.5625 12.785156 20.46875 12.5625 C 20.804688 12.480469 21.011719 12.417969 21.21875 12.34375 C 22.324219 13.578125 23 15.203125 23 17 C 23 20.121094 21.273438 22.050781 19.4375 23.3125 C 18.503906 23.953125 17.644531 24.34375 17 24.59375 L 17 14 L 15 14 L 15 24.59375 C 14.355469 24.34375 13.496094 23.953125 12.5625 23.3125 C 10.726563 22.050781 9 20.121094 9 17 C 9 15.210938 9.679688 13.582031 10.78125 12.34375 Z "></path>
</g>
</svg>
