<?xml version="1.0" encoding="UTF-8"?>
<svg xmlns="http://www.w3.org/2000/svg" xmlns:xlink="http://www.w3.org/1999/xlink" viewBox="0 0 32 32" version="1.1">
<g>
<path d="M 16 6 C 9.9375 6 5 10.9375 5 17 L 5 22 C 5 23.644531 6.355469 25 8 25 L 9.78125 25 C 11.25 26.828125 13.480469 28 16 28 C 18.519531 28 20.75 26.828125 22.21875 25 L 24 25 C 25.644531 25 27 23.644531 27 22 L 27 17 C 27 10.9375 22.0625 6 16 6 Z M 16 8 C 20.984375 8 25 12.015625 25 17 L 23.40625 17 C 22.210938 14.082031 19.339844 12 16 12 C 12.660156 12 9.789063 14.082031 8.59375 17 L 7 17 C 7 12.015625 11.015625 8 16 8 Z M 16.9375 14.09375 C 17.628906 14.199219 18.285156 14.398438 18.875 14.71875 L 18.90625 14.71875 L 18.96875 15.84375 L 18.28125 15.53125 L 17.71875 16.03125 L 17.8125 17.375 L 19.25 16.9375 L 21 17.5 L 20.5625 18.3125 L 19.46875 17.65625 L 18.3125 17.8125 L 17.1875 18.6875 L 16.5625 20.65625 L 17.84375 21.71875 C 17.84375 21.71875 19.148438 21.46875 19.21875 21.46875 C 19.289063 21.46875 19.75 22.65625 19.75 22.65625 L 18.9375 25.25 C 18.074219 25.730469 17.0625 26 16 26 C 15.617188 26 15.238281 25.941406 14.875 25.875 L 14.53125 25.3125 L 15.25 22.65625 L 12.59375 20.6875 L 10.15625 20.6875 L 10.03125 20.40625 C 10.023438 20.273438 10 20.136719 10 20 C 10 19.628906 10.03125 19.257813 10.09375 18.90625 L 11.28125 17.96875 L 13.90625 16.71875 L 13.5 15 L 14.625 14.71875 L 15.1875 15.46875 L 17.15625 15.09375 Z M 7 19 L 8 19 L 8 23 C 7.433594 23 7 22.566406 7 22 Z M 24 19 L 25 19 L 25 22 C 25 22.566406 24.566406 23 24 23 Z M 11.53125 24 L 11.96875 24 L 12.90625 25.15625 C 12.382813 24.84375 11.933594 24.449219 11.53125 24 Z "></path>
</g>
</svg>
