<?xml version="1.0" encoding="UTF-8"?>
<svg xmlns="http://www.w3.org/2000/svg" xmlns:xlink="http://www.w3.org/1999/xlink" viewBox="0 0 32 32" version="1.1">
<g>
<path d="M 4 4 L 4 28 L 28 28 L 28 4 Z M 6 6 L 26 6 L 26 26 L 6 26 Z M 16 8 C 11.59375 8 8 11.59375 8 16 C 8 20.40625 11.59375 24 16 24 C 20.40625 24 24 20.40625 24 16 C 24 11.59375 20.40625 8 16 8 Z M 16 10 C 19.324219 10 22 12.675781 22 16 C 22 19.324219 19.324219 22 16 22 C 12.675781 22 10 19.324219 10 16 C 10 12.675781 12.675781 10 16 10 Z M 16 12 C 13.800781 12 12 13.800781 12 16 C 12 18.199219 13.800781 20 16 20 C 18.199219 20 20 18.199219 20 16 C 20 13.800781 18.199219 12 16 12 Z M 16 14 C 17.117188 14 18 14.882813 18 16 C 18 17.117188 17.117188 18 16 18 C 14.882813 18 14 17.117188 14 16 C 14 14.882813 14.882813 14 16 14 Z "></path>
</g>
</svg>
