<?xml version="1.0" encoding="UTF-8"?>
<svg xmlns="http://www.w3.org/2000/svg" xmlns:xlink="http://www.w3.org/1999/xlink" viewBox="0 0 32 32" version="1.1">
<g>
<path d="M 8 4 L 8 28 L 24 28 L 24 4 Z M 10 6 L 22 6 L 22 26 L 10 26 Z M 13.5 8 C 12.671875 8 12 8.671875 12 9.5 C 12 10.328125 12.671875 11 13.5 11 C 14.328125 11 15 10.328125 15 9.5 C 15 8.671875 14.328125 8 13.5 8 Z M 4 9 L 4 11 L 7 11 L 7 9 Z M 25 9 L 25 11 L 28 11 L 28 9 Z M 4 15 L 4 17 L 7 17 L 7 15 Z M 25 15 L 25 17 L 28 17 L 28 15 Z M 4 21 L 4 23 L 7 23 L 7 21 Z M 25 21 L 25 23 L 28 23 L 28 21 Z "></path>
</g>
</svg>
