<?xml version="1.0" encoding="UTF-8"?>
<svg xmlns="http://www.w3.org/2000/svg" xmlns:xlink="http://www.w3.org/1999/xlink" viewBox="0 0 32 32" version="1.1">
<g>
<path d="M 30.890625 6.972656 L 28.214844 6.109375 C 27.945313 6.023438 21.59375 4 16 4 C 9.382813 4 4 9.382813 4 16 C 4 18.542969 4.804688 20.980469 6.277344 23.011719 L 1.113281 25.027344 L 3.789063 25.890625 C 4.054688 25.976563 10.40625 28 16 28 C 22.617188 28 28 22.617188 28 16 C 28 13.460938 27.195313 11.019531 25.726563 8.984375 Z M 6 16 C 6 10.484375 10.484375 6 16 6 C 19.039063 6 22.410156 6.664063 24.730469 7.226563 L 14.335938 11.285156 L 14.34375 11.304688 C 12.402344 11.992188 11 13.828125 11 16 C 11 17.792969 11.957031 19.359375 13.382813 20.238281 L 8.210938 22.257813 C 6.78125 20.484375 6 18.296875 6 16 Z M 16 19 C 14.347656 19 13 17.652344 13 16 C 13 14.347656 14.347656 13 16 13 C 17.652344 13 19 14.347656 19 16 C 19 17.652344 17.652344 19 16 19 Z M 26 16 C 26 21.515625 21.515625 26 16 26 C 12.960938 26 9.589844 25.335938 7.269531 24.769531 L 17.664063 20.714844 L 17.65625 20.695313 C 19.597656 20.007813 21 18.171875 21 16 C 21 14.207031 20.039063 12.640625 18.617188 11.757813 L 23.789063 9.742188 C 25.214844 11.515625 26 13.707031 26 16 Z "></path>
</g>
</svg>
