<?xml version="1.0" encoding="UTF-8"?>
<svg xmlns="http://www.w3.org/2000/svg" xmlns:xlink="http://www.w3.org/1999/xlink" viewBox="0 0 32 32" version="1.1">
<g>
<path d="M 8.875 5 L 8.625 5.15625 L 7.53125 5.84375 L 7.21875 6.03125 L 7.09375 6.34375 L 6.40625 8.375 L 2.8125 9.03125 L 2 9.15625 L 2 19 C 2 19.964844 2.167969 20.835938 2.53125 21.5625 C 2.894531 22.289063 3.546875 23 4.5 23 C 5.242188 23 5.804688 22.5625 6.1875 22.03125 L 9.15625 22.6875 C 9.269531 23.273438 9.449219 23.804688 9.6875 24.28125 C 10.140625 25.1875 10.90625 26 12 26 C 12.085938 26 12.167969 25.976563 12.25 25.96875 L 28.9375 27 L 30 27.0625 L 30 18 L 28 18 L 28 16 C 28 14.78125 27.253906 13.675781 26.125 13.21875 L 23.8125 12.25 L 23.0625 9.5 C 22.832031 8.625 22.058594 8 21.15625 8 L 14.75 8 L 12.6875 8.3125 C 11.71875 8.460938 11 9.332031 11 10.3125 L 11 16.28125 C 10.679688 16.453125 10.421875 16.71875 10.1875 17 L 8.15625 17 L 6.59375 16.6875 C 6.558594 16.601563 6.511719 16.519531 6.46875 16.4375 C 6.105469 15.710938 5.453125 15 4.5 15 C 4.324219 15 4.15625 15.019531 4 15.0625 L 4 10.8125 L 7.3125 10.25 L 7.90625 10.125 L 8.09375 9.59375 L 8.875 7.34375 L 9.4375 7 L 21.59375 7 L 21.59375 5 Z M 16.15625 10 L 21.15625 10 L 21.6875 12 L 16.59375 12 Z M 14.15625 10.125 L 14.84375 13.21875 L 15.03125 14 L 22.75 14 L 25.375 15.0625 C 25.753906 15.214844 26 15.589844 26 16 L 26 16.09375 C 25.414063 16.296875 25 16.84375 25 17.5 C 25 17.671875 25.039063 17.84375 25.09375 18 L 19.90625 18 C 19.960938 17.84375 20 17.671875 20 17.5 C 20 16.671875 19.328125 16 18.5 16 C 17.671875 16 17 16.671875 17 17.5 C 17 17.671875 17.039063 17.84375 17.09375 18 L 14.4375 18 C 14.398438 17.90625 14.355469 17.808594 14.3125 17.71875 C 14.015625 17.125 13.574219 16.59375 13 16.28125 L 13 10.3125 Z M 4.5 17.0625 C 4.535156 17.101563 4.578125 17.15625 4.65625 17.3125 C 4.835938 17.671875 5 18.308594 5 19 C 5 19.691406 4.835938 20.328125 4.65625 20.6875 C 4.578125 20.84375 4.535156 20.898438 4.5 20.9375 C 4.464844 20.898438 4.421875 20.84375 4.34375 20.6875 C 4.164063 20.328125 4 19.691406 4 19 C 4 18.308594 4.164063 17.671875 4.34375 17.3125 C 4.421875 17.15625 4.464844 17.101563 4.5 17.0625 Z M 12 18 C 12.011719 18 12.261719 18.082031 12.53125 18.625 C 12.800781 19.167969 13 20.03125 13 21 C 13 21.96875 12.800781 22.832031 12.53125 23.375 C 12.261719 23.917969 12.011719 24 12 24 C 11.988281 24 11.738281 23.917969 11.46875 23.375 C 11.199219 22.832031 11 21.96875 11 21 C 11 20.03125 11.199219 19.167969 11.46875 18.625 C 11.738281 18.082031 11.988281 18 12 18 Z M 7 18.78125 L 7.96875 18.96875 L 8.0625 19 L 9.25 19 C 9.125 19.503906 9.023438 20.03125 9 20.59375 L 6.90625 20.125 C 6.964844 19.769531 7 19.390625 7 19 C 7 18.925781 7.003906 18.851563 7 18.78125 Z M 14.9375 20 L 28 20 L 28 24.9375 L 14.40625 24.09375 C 14.800781 23.21875 15 22.15625 15 21 C 15 20.65625 14.972656 20.324219 14.9375 20 Z "></path>
</g>
</svg>
