<?xml version="1.0" encoding="UTF-8"?>
<svg xmlns="http://www.w3.org/2000/svg" xmlns:xlink="http://www.w3.org/1999/xlink" viewBox="0 0 32 32" version="1.1">
<g>
<path d="M 16 3 C 12.199219 3 9.765625 3.625 8.1875 4.625 C 6.609375 5.625 5.96875 7.082031 5.96875 8.28125 C 5.96875 9.507813 6.285156 10.675781 6.78125 12.09375 C 6.527344 12.023438 6.269531 12 6 12 C 5.316406 12 4.65625 12.230469 4.125 12.65625 C 2.84375 13.6875 2.632813 15.589844 3.65625 16.875 L 6.96875 21 C 7.984375 22.257813 9.507813 23 11.125 23 L 20.875 23 C 22.5 23 24.046875 22.269531 25.0625 21 L 28.34375 16.875 C 29.371094 15.589844 29.15625 13.683594 27.875 12.65625 C 27.34375 12.230469 26.679688 12 26 12 C 25.730469 12 25.472656 12.023438 25.21875 12.09375 C 25.714844 10.675781 26.03125 9.507813 26.03125 8.28125 C 26.03125 7.082031 25.390625 5.625 23.8125 4.625 C 22.234375 3.625 19.800781 3 16 3 Z M 16 5 C 19.574219 5 21.660156 5.621094 22.75 6.3125 C 23.839844 7.003906 24.03125 7.695313 24.03125 8.28125 C 24.03125 9.855469 23.265625 11.597656 21.90625 15.3125 L 20.5625 17 L 11.4375 17 L 10.09375 15.3125 C 8.746094 11.632813 7.96875 9.847656 7.96875 8.28125 C 7.96875 7.695313 8.160156 7.003906 9.25 6.3125 C 10.339844 5.621094 12.425781 5 16 5 Z M 6 14 C 6.3125 14 6.585938 14.128906 6.78125 14.375 L 10.0625 18.5 L 10.09375 18.5 C 10.339844 18.804688 10.730469 19 11.125 19 L 20.875 19 C 21.269531 19 21.691406 18.808594 21.9375 18.5 L 23.65625 16.34375 L 25.21875 14.375 C 25.414063 14.128906 25.6875 14 26 14 C 26.222656 14 26.449219 14.078125 26.625 14.21875 C 27.0625 14.570313 27.128906 15.1875 26.78125 15.625 L 23.5 19.75 C 22.855469 20.554688 21.90625 21 20.875 21 L 11.125 21 C 10.09375 21 9.144531 20.554688 8.5 19.75 L 5.21875 15.625 C 4.871094 15.1875 4.9375 14.570313 5.375 14.21875 C 5.550781 14.078125 5.777344 14 6 14 Z M 15 24 L 15 27 L 11 27 L 11 29 L 21 29 L 21 27 L 17 27 L 17 24 Z "></path>
</g>
</svg>
