<?xml version="1.0" encoding="UTF-8"?>
<svg xmlns="http://www.w3.org/2000/svg" xmlns:xlink="http://www.w3.org/1999/xlink" viewBox="0 0 32 32" version="1.1">
<g>
<path d="M 6 3 L 6 29 L 26 29 L 26 13.4375 L 27.71875 11.71875 L 28 11.40625 L 28 3 Z M 8 5 L 22 5 L 22 11.40625 L 22.28125 11.71875 L 24 13.4375 L 24 27 L 8 27 Z M 24 5 L 26 5 L 26 10.5625 L 25 11.5625 L 24 10.5625 Z M 16 11 C 12.699219 11 10 13.699219 10 17 C 10 20.300781 12.699219 23 16 23 C 19.300781 23 22 20.300781 22 17 C 22 13.699219 19.300781 11 16 11 Z M 16.6875 13.09375 C 17.171875 13.175781 17.625 13.324219 18.03125 13.5625 L 18.09375 14.28125 L 17.625 14.09375 L 17.25 14.40625 L 17.3125 15.3125 L 18.28125 15.03125 L 19.46875 15.40625 L 19.15625 15.9375 L 18.4375 15.5 L 17.65625 15.625 L 16.90625 16.1875 L 16.46875 17.5 L 17.3125 18.1875 C 17.3125 18.1875 18.203125 18.03125 18.25 18.03125 C 18.296875 18.03125 18.625 18.84375 18.625 18.84375 L 18.125 20.375 C 17.511719 20.757813 16.785156 21 16 21 C 15.765625 21 15.535156 20.945313 15.3125 20.90625 L 15.125 20.59375 L 15.59375 18.84375 L 13.8125 17.5 L 12.15625 17.5 L 12.03125 17.25 C 12.027344 17.164063 12 17.085938 12 17 C 12 16.785156 12.03125 16.578125 12.0625 16.375 L 12.90625 15.71875 L 14.6875 14.875 L 14.40625 13.71875 L 15.1875 13.5625 L 15.53125 14.0625 L 16.875 13.8125 Z M 13.0625 19.71875 L 13.375 19.71875 L 13.96875 20.4375 C 13.628906 20.238281 13.328125 20.003906 13.0625 19.71875 Z "></path>
</g>
</svg>
