<?xml version="1.0" encoding="UTF-8"?>
<svg xmlns="http://www.w3.org/2000/svg" xmlns:xlink="http://www.w3.org/1999/xlink" viewBox="0 0 32 32" version="1.1">
<g>
<path d="M 16 3 C 8.832031 3 3 8.832031 3 16 C 3 23.167969 8.832031 29 16 29 C 23.167969 29 29 23.167969 29 16 C 29 8.832031 23.167969 3 16 3 Z M 14.875 5.0625 C 14.917969 5.058594 14.957031 5.066406 15 5.0625 L 15 15 L 5.0625 15 C 5.535156 9.757813 9.648438 5.589844 14.875 5.0625 Z M 17 5.0625 C 22.613281 5.566406 27 10.25 27 16 C 27 18.679688 26.054688 21.125 24.46875 23.03125 L 17 15.5625 Z M 5.0625 17 L 15.5625 17 L 23.03125 24.46875 C 21.125 26.054688 18.679688 27 16 27 C 10.25 27 5.566406 22.613281 5.0625 17 Z "></path>
</g>
</svg>
