<?xml version="1.0" encoding="UTF-8"?>
<svg xmlns="http://www.w3.org/2000/svg" xmlns:xlink="http://www.w3.org/1999/xlink" viewBox="0 0 32 32" version="1.1">
<g>
<path d="M 25 5 L 23.8125 5.21875 L 5 9 L 4.8125 9.03125 L 4 9.1875 L 4 27 L 28 27 L 28 9 L 15.09375 9 L 23 7.4375 L 23 8 L 25 8 Z M 6 11 L 26 11 L 26 25 L 6 25 Z M 13.5 14 C 12.117188 14 11 15.117188 11 16.5 C 11 19.003906 16 22 16 22 C 16 22 21 19.003906 21 16.5 C 21 15.117188 19.882813 14 18.5 14 C 17.117188 14 16 15.117188 16 16.5 C 16 15.117188 14.882813 14 13.5 14 Z "></path>
</g>
</svg>
