<?xml version="1.0" encoding="UTF-8"?>
<svg xmlns="http://www.w3.org/2000/svg" xmlns:xlink="http://www.w3.org/1999/xlink" viewBox="0 0 32 32" version="1.1">
<g>
<path d="M 16 1.8125 L 15.4375 2.15625 L 3.4375 10.15625 L 3 10.46875 L 3 28 L 29 28 L 29 10.46875 L 28.5625 10.15625 L 16.5625 2.15625 Z M 16 4.21875 L 26.25 11.0625 L 16 18.75 L 5.75 11.0625 Z M 15 7 L 15 10 L 12 10 L 12 12 L 15 12 L 15 15 L 17 15 L 17 12 L 20 12 L 20 10 L 17 10 L 17 7 Z M 5 13 L 15.40625 20.8125 L 16 21.25 L 16.59375 20.8125 L 27 13 L 27 26 L 5 26 Z "></path>
</g>
</svg>
