<?xml version="1.0" encoding="UTF-8"?>
<svg xmlns="http://www.w3.org/2000/svg" xmlns:xlink="http://www.w3.org/1999/xlink" viewBox="0 0 32 32" version="1.1">
<g>
<path d="M 11 4 L 11 6 L 15 6 L 15 4 Z M 17 4 L 17 6 L 21 6 L 21 4 Z M 9 4.09375 C 6.496094 4.523438 4.523438 6.5 4.09375 9 L 6.15625 9 C 6.527344 7.609375 7.605469 6.523438 9 6.15625 Z M 23 4.09375 L 23 6.15625 C 24.394531 6.523438 25.472656 7.609375 25.84375 9 L 27.90625 9 C 27.476563 6.5 25.503906 4.523438 23 4.09375 Z M 4 11 L 4 15 L 6 15 L 6 11 Z M 26 11 L 26 15 L 28 15 L 28 11 Z M 4 17 L 4 21 L 6 21 L 6 17 Z M 26 17 L 26 21 L 28 21 L 28 17 Z M 4.09375 23 C 4.523438 25.5 6.5 27.476563 9 27.90625 L 9 25.84375 C 7.605469 25.476563 6.527344 24.390625 6.15625 23 Z M 25.84375 23 C 25.472656 24.390625 24.394531 25.476563 23 25.84375 L 23 27.90625 C 25.503906 27.476563 27.476563 25.5 27.90625 23 Z M 11 26 L 11 28 L 15 28 L 15 26 Z M 17 26 L 17 28 L 21 28 L 21 26 Z "></path>
</g>
</svg>
