<?xml version="1.0" encoding="UTF-8"?>
<svg xmlns="http://www.w3.org/2000/svg" xmlns:xlink="http://www.w3.org/1999/xlink" viewBox="0 0 32 32" version="1.1">
<g>
<path d="M 29 16 C 29 14.140625 27.964844 12.53125 26.453125 11.671875 C 26.914063 9.992188 26.507813 8.121094 25.191406 6.808594 C 23.875 5.492188 22.007813 5.085938 20.328125 5.546875 C 19.46875 4.035156 17.859375 3 16 3 C 14.140625 3 12.53125 4.035156 11.671875 5.546875 C 9.992188 5.085938 8.125 5.492188 6.808594 6.808594 C 5.492188 8.125 5.085938 9.992188 5.546875 11.671875 C 4.035156 12.53125 3 14.140625 3 16 C 3 17.859375 4.035156 19.46875 5.546875 20.328125 C 5.085938 22.007813 5.492188 23.878906 6.808594 25.191406 C 7.78125 26.167969 9.0625 26.65625 10.34375 26.65625 C 10.792969 26.65625 11.234375 26.574219 11.671875 26.453125 C 12.53125 27.964844 14.140625 29 16 29 C 17.859375 29 19.46875 27.964844 20.328125 26.453125 C 20.765625 26.574219 21.210938 26.652344 21.65625 26.652344 C 22.9375 26.652344 24.21875 26.164063 25.191406 25.191406 C 26.507813 23.875 26.914063 22.007813 26.453125 20.328125 C 27.964844 19.46875 29 17.859375 29 16 Z M 8.222656 8.222656 C 8.808594 7.636719 9.574219 7.34375 10.34375 7.34375 C 10.585938 7.34375 10.820313 7.382813 11.058594 7.441406 C 11.035156 7.628906 11 7.808594 11 8 L 11 11 L 8 11 C 7.808594 11 7.628906 11.035156 7.441406 11.058594 C 7.199219 10.070313 7.453125 8.988281 8.222656 8.222656 Z M 6.453125 18.558594 C 5.585938 18.03125 5 17.085938 5 16 C 5 14.914063 5.585938 13.96875 6.453125 13.441406 C 6.570313 13.589844 6.671875 13.742188 6.808594 13.878906 L 8.929688 16 L 6.808594 18.121094 C 6.671875 18.257813 6.570313 18.410156 6.453125 18.558594 Z M 8.222656 23.777344 C 7.453125 23.011719 7.199219 21.929688 7.441406 20.941406 C 7.628906 20.964844 7.808594 21 8 21 L 11 21 L 11 24 C 11 24.191406 11.035156 24.371094 11.058594 24.558594 C 10.070313 24.800781 8.988281 24.546875 8.222656 23.777344 Z M 11.101563 19 L 8.757813 19 L 10.414063 17.34375 C 10.753906 17.566406 11.121094 17.730469 11.496094 17.867188 C 11.324219 18.226563 11.183594 18.601563 11.101563 19 Z M 10.414063 14.65625 L 8.757813 13 L 11.101563 13 C 11.183594 13.398438 11.324219 13.773438 11.496094 14.136719 C 11.121094 14.269531 10.757813 14.433594 10.414063 14.65625 Z M 16 5 C 17.085938 5 18.03125 5.585938 18.558594 6.453125 C 18.410156 6.570313 18.257813 6.671875 18.121094 6.808594 L 16 8.929688 L 13.878906 6.808594 C 13.742188 6.671875 13.589844 6.566406 13.441406 6.453125 C 13.96875 5.585938 14.914063 5 16 5 Z M 18 16 C 18 17.105469 17.105469 18 16 18 C 14.894531 18 14 17.105469 14 16 C 14 14.894531 14.894531 14 16 14 C 17.105469 14 18 14.894531 18 16 Z M 13 8.757813 L 14.65625 10.414063 C 14.433594 10.753906 14.269531 11.121094 14.132813 11.496094 C 13.773438 11.324219 13.398438 11.183594 13 11.101563 Z M 13 20.898438 C 13.398438 20.816406 13.773438 20.675781 14.136719 20.503906 C 14.269531 20.878906 14.433594 21.246094 14.65625 21.585938 L 13 23.242188 Z M 16 27 C 14.914063 27 13.96875 26.414063 13.441406 25.546875 C 13.589844 25.429688 13.742188 25.328125 13.878906 25.191406 L 16 23.070313 L 18.121094 25.191406 C 18.257813 25.328125 18.410156 25.433594 18.558594 25.546875 C 18.03125 26.414063 17.085938 27 16 27 Z M 19 23.242188 L 17.34375 21.585938 C 17.566406 21.246094 17.730469 20.878906 17.867188 20.503906 C 18.226563 20.675781 18.601563 20.816406 19 20.898438 Z M 19 11.101563 C 18.601563 11.183594 18.226563 11.324219 17.863281 11.496094 C 17.730469 11.121094 17.566406 10.753906 17.34375 10.414063 L 19 8.757813 Z M 21.65625 7.34375 C 22.425781 7.34375 23.195313 7.636719 23.777344 8.222656 C 24.546875 8.988281 24.800781 10.070313 24.558594 11.058594 C 24.371094 11.035156 24.191406 11 24 11 L 21 11 L 21 8 C 21 7.808594 20.964844 7.628906 20.941406 7.441406 C 21.179688 7.382813 21.414063 7.34375 21.65625 7.34375 Z M 20.898438 13 L 23.242188 13 L 21.585938 14.65625 C 21.246094 14.433594 20.878906 14.269531 20.503906 14.136719 C 20.675781 13.773438 20.816406 13.402344 20.898438 13 Z M 20.503906 17.863281 C 20.878906 17.730469 21.246094 17.566406 21.585938 17.34375 L 23.242188 19 L 20.898438 19 C 20.816406 18.601563 20.675781 18.226563 20.503906 17.863281 Z M 23.777344 23.777344 C 23.011719 24.546875 21.929688 24.800781 20.941406 24.558594 C 20.964844 24.371094 21 24.191406 21 24 L 21 21 L 24 21 C 24.191406 21 24.371094 20.964844 24.558594 20.941406 C 24.800781 21.929688 24.546875 23.011719 23.777344 23.777344 Z M 25.546875 18.558594 C 25.429688 18.410156 25.328125 18.257813 25.191406 18.121094 L 23.070313 16 L 25.191406 13.878906 C 25.328125 13.742188 25.433594 13.589844 25.546875 13.441406 C 26.414063 13.96875 27 14.914063 27 16 C 27 17.085938 26.414063 18.03125 25.546875 18.558594 Z "></path>
</g>
</svg>
