<?xml version="1.0" encoding="UTF-8"?>
<svg xmlns="http://www.w3.org/2000/svg" xmlns:xlink="http://www.w3.org/1999/xlink" viewBox="0 0 32 32" version="1.1">
<g>
<path d="M 9.332031 5 C 6.941406 5 5 6.941406 5 9.332031 L 5 22.667969 C 5 25.058594 6.941406 27 9.332031 27 L 22.667969 27 C 25.058594 27 27 25.058594 27 22.667969 L 27 9.332031 C 27 6.941406 25.058594 5 22.667969 5 Z M 9.703125 7 L 22.296875 7 C 23.789063 7 25 8.210938 25 9.703125 L 25 22.296875 C 25 23.789063 23.789063 25 22.296875 25 L 9.703125 25 C 8.210938 25 7 23.789063 7 22.296875 L 7 9.703125 C 7 8.210938 8.210938 7 9.703125 7 Z M 18.75 9.875 C 16.054688 9.875 14.375 12.582031 14.375 16.5 C 14.375 20.453125 16.035156 23 18.75 23 C 21.453125 23 23.125 20.402344 23.125 16.453125 C 23.125 12.527344 21.445313 9.875 18.75 9.875 Z M 10.980469 10 C 10.789063 10.605469 10.3125 11.664063 9 12 C 9 12 9.050781 12.488281 9.109375 13.09375 C 9.796875 13.089844 10.546875 12.773438 10.980469 12.289063 L 11.015625 23 L 12.5 23 L 12.5 10 Z M 18.75 11.5 C 20.546875 11.5 21.5 13.425781 21.5 16.5 C 21.5 19.621094 20.5625 21.5 18.75 21.5 C 16.929688 21.5 16 19.570313 16 16.453125 C 16 13.402344 16.953125 11.5 18.75 11.5 Z "></path>
</g>
</svg>
