<?xml version="1.0"?>
<svg xmlns="http://www.w3.org/2000/svg" viewBox="0 0 32 32">
    <path d="M 10 2 C 8.3550302 2 7 3.3550302 7 5 L 7 27 C 7 28.64497 8.3550302 30 10 30 L 22 30 C 23.64497 30 25 28.64497 25 27 L 25 5 C 25 3.3550302 23.64497 2 22 2 L 10 2 z M 10 4 L 22 4 C 22.56503 4 23 4.4349698 23 5 L 23 27 C 23 27.56503 22.56503 28 22 28 L 10 28 C 9.4349698 28 9 27.56503 9 27 L 9 5 C 9 4.4349698 9.4349698 4 10 4 z M 11 6 L 11 8 L 13 8 L 13 6 L 11 6 z M 15 6 L 15 8 L 17 8 L 17 6 L 15 6 z M 19 6 L 19 8 L 21 8 L 21 6 L 19 6 z M 11 10 L 11 12 L 13 12 L 13 10 L 11 10 z M 15 10 L 15 12 L 17 12 L 17 10 L 15 10 z M 19 10 L 19 12 L 21 12 L 21 10 L 19 10 z M 11 14 L 11 16 L 13 16 L 13 14 L 11 14 z M 15 14 L 15 16 L 17 16 L 17 14 L 15 14 z M 19 14 L 19 16 L 21 16 L 21 14 L 19 14 z M 11 18 L 11 20 L 13 20 L 13 18 L 11 18 z M 15 18 L 15 20 L 17 20 L 17 18 L 15 18 z M 19 18 L 19 20 L 21 20 L 21 18 L 19 18 z M 11 24 L 11 26 L 13 26 L 13 24 L 11 24 z M 15 24 L 15 26 L 17 26 L 17 24 L 15 24 z M 19 24 L 19 26 L 21 26 L 21 24 L 19 24 z"></path>
</svg>
