<?xml version="1.0" encoding="UTF-8"?>
<svg xmlns="http://www.w3.org/2000/svg" xmlns:xlink="http://www.w3.org/1999/xlink" viewBox="0 0 32 32" version="1.1">
<g>
<path d="M 11 5 C 7.699219 5 5 7.699219 5 11 L 5 21 C 5 24.300781 7.699219 27 11 27 L 21 27 C 24.300781 27 27 24.300781 27 21 L 27 11 C 27 7.699219 24.300781 5 21 5 Z M 11 7 L 21 7 C 23.21875 7 25 8.78125 25 11 L 25 21 C 25 23.21875 23.21875 25 21 25 L 11 25 C 8.78125 25 7 23.21875 7 21 L 7 11 C 7 8.78125 8.78125 7 11 7 Z M 10.4375 12.84375 C 10.117188 12.84375 9.875 13.074219 9.875 13.375 C 9.875 13.671875 10.117188 13.90625 10.4375 13.90625 C 10.757813 13.90625 11 13.671875 11 13.375 C 11 13.074219 10.757813 12.84375 10.4375 12.84375 Z M 20.84375 13 C 19.59375 13 18.78125 13.667969 18.78125 14.6875 C 18.78125 15.527344 19.246094 16.039063 20.28125 16.28125 L 21 16.46875 C 21.757813 16.648438 22.09375 16.90625 22.09375 17.34375 C 22.09375 17.851563 21.589844 18.21875 20.875 18.21875 C 20.109375 18.21875 19.574219 17.855469 19.5 17.3125 L 18.625 17.3125 C 18.6875 18.335938 19.511719 19 20.78125 19 C 22.136719 19 23 18.3125 23 17.21875 C 23 16.359375 22.515625 15.898438 21.34375 15.625 L 20.71875 15.46875 C 19.972656 15.292969 19.65625 15.03125 19.65625 14.625 C 19.65625 14.109375 20.140625 13.78125 20.84375 13.78125 C 21.511719 13.78125 21.949219 14.128906 22.03125 14.65625 L 22.90625 14.65625 C 22.855469 13.691406 22.003906 13 20.84375 13 Z M 14.96875 13.03125 C 13.316406 13.03125 12.28125 14.183594 12.28125 16.03125 C 12.28125 17.875 13.292969 19.03125 14.96875 19.03125 C 16.640625 19.03125 17.65625 17.871094 17.65625 16.03125 C 17.65625 14.1875 16.628906 13.03125 14.96875 13.03125 Z M 14.96875 13.875 C 16.0625 13.875 16.75 14.703125 16.75 16.03125 C 16.75 17.351563 16.0625 18.21875 14.96875 18.21875 C 13.863281 18.21875 13.21875 17.351563 13.21875 16.03125 C 13.21875 14.703125 13.882813 13.875 14.96875 13.875 Z M 9.9375 15 L 9.9375 19 L 10.9375 19 L 10.9375 15 Z "></path>
</g>
</svg>
