<?xml version="1.0" encoding="UTF-8"?>
<svg xmlns="http://www.w3.org/2000/svg" xmlns:xlink="http://www.w3.org/1999/xlink" viewBox="0 0 32 32" version="1.1">
<g>
<path d="M 16 3 C 11.042969 3 7 7.042969 7 12 C 7 13.40625 7.570313 15.019531 8.34375 16.78125 C 9.117188 18.542969 10.113281 20.414063 11.125 22.15625 C 13.148438 25.644531 15.1875 28.5625 15.1875 28.5625 L 16 29.75 L 16.8125 28.5625 C 16.8125 28.5625 18.851563 25.644531 20.875 22.15625 C 21.886719 20.414063 22.882813 18.542969 23.65625 16.78125 C 24.429688 15.019531 25 13.40625 25 12 C 25 7.042969 20.957031 3 16 3 Z M 16 5 C 19.878906 5 23 8.121094 23 12 C 23 12.800781 22.570313 14.316406 21.84375 15.96875 C 21.117188 17.621094 20.113281 19.453125 19.125 21.15625 C 17.554688 23.867188 16.578125 25.300781 16 26.15625 C 15.421875 25.300781 14.445313 23.867188 12.875 21.15625 C 11.886719 19.453125 10.882813 17.621094 10.15625 15.96875 C 9.429688 14.316406 9 12.800781 9 12 C 9 8.121094 12.121094 5 16 5 Z M 12 9 L 12 16 L 14 16 L 14 9 Z M 16 9 L 16 16 L 18 16 L 18 14 L 18.5 14 C 19.867188 14 21 12.867188 21 11.5 C 21 10.132813 19.867188 9 18.5 9 Z M 18 11 L 18.5 11 C 18.785156 11 19 11.214844 19 11.5 C 19 11.785156 18.785156 12 18.5 12 L 18 12 Z "></path>
</g>
</svg>
