<?xml version="1.0" encoding="UTF-8"?>
<svg xmlns="http://www.w3.org/2000/svg" xmlns:xlink="http://www.w3.org/1999/xlink" viewBox="0 0 32 32" version="1.1">
<g>
<path d="M 7 7 C 5.355469 7 4 8.355469 4 10 L 4 22 C 4 23.644531 5.355469 25 7 25 L 25 25 C 26.644531 25 28 23.644531 28 22 L 28 10 C 28 8.355469 26.644531 7 25 7 Z M 7 9 L 25 9 C 25.554688 9 26 9.445313 26 10 L 26 22 C 26 22.554688 25.554688 23 25 23 L 7 23 C 6.445313 23 6 22.554688 6 22 L 6 10 C 6 9.445313 6.445313 9 7 9 Z M 8 15 C 7.449219 15 7 15.449219 7 16 C 7 16.550781 7.449219 17 8 17 C 8.550781 17 9 16.550781 9 16 C 9 15.449219 8.550781 15 8 15 Z "></path>
</g>
</svg>
