<?xml version="1.0" encoding="UTF-8"?>
<svg xmlns="http://www.w3.org/2000/svg" xmlns:xlink="http://www.w3.org/1999/xlink" viewBox="0 0 32 32" version="1.1">
<g>
<path d="M 11 7 L 11 9 L 24 9 C 25.65625 9 27 10.34375 27 12 L 27 13 L 21 13 L 21 12 L 15 12 L 15 13 L 14 13 C 7.953125 13 3 17.953125 3 24 L 3 25 L 29 25 L 29 12 C 29 9.253906 26.746094 7 24 7 Z M 14 15 L 27 15 L 27 23 L 5.21875 23 C 5.742188 18.535156 9.398438 15 14 15 Z M 13 18 C 12.449219 18 12 18.449219 12 19 C 12 19.550781 12.449219 20 13 20 C 13.550781 20 14 19.550781 14 19 C 14 18.449219 13.550781 18 13 18 Z M 17 18 C 16.449219 18 16 18.449219 16 19 C 16 19.550781 16.449219 20 17 20 C 17.550781 20 18 19.550781 18 19 C 18 18.449219 17.550781 18 17 18 Z M 21 18 C 20.449219 18 20 18.449219 20 19 C 20 19.550781 20.449219 20 21 20 C 21.550781 20 22 19.550781 22 19 C 22 18.449219 21.550781 18 21 18 Z "></path>
</g>
</svg>
