<?xml version="1.0" encoding="UTF-8"?>
<svg xmlns="http://www.w3.org/2000/svg" xmlns:xlink="http://www.w3.org/1999/xlink" viewBox="0 0 32 32" version="1.1">
<g>
<path d="M 15.96875 3 C 15.867188 2.996094 11.59375 2.878906 8.1875 5.625 L 8.0625 5.6875 L 8 5.8125 C 7.285156 6.765625 7.070313 8.023438 6.875 9.28125 C 6.722656 10.253906 6.683594 10.980469 6.65625 11.625 C 6.589844 11.675781 6.464844 11.660156 6.40625 11.71875 C 6.175781 11.949219 6 12.253906 6 12.6875 L 6 12.75 L 6.1875 17.5 C 6.1875 17.511719 6.1875 17.519531 6.1875 17.53125 C 6.195313 17.945313 6.398438 18.242188 6.625 18.46875 C 6.722656 18.566406 6.902344 18.585938 7.03125 18.65625 C 7.101563 18.980469 7.246094 19.703125 7.53125 20.84375 C 7.703125 21.527344 7.914063 22.238281 8.09375 22.84375 C 8.265625 23.421875 8.367188 23.847656 8.625 24.28125 C 8.632813 24.296875 8.648438 24.328125 8.65625 24.34375 C 9.375 25.644531 10.839844 27.527344 12.5 28.4375 L 12.5 28.46875 C 12.507813 28.472656 12.523438 28.464844 12.53125 28.46875 C 13.144531 28.828125 13.648438 28.835938 14.25 28.875 C 14.863281 28.914063 15.5 28.90625 16 28.90625 C 16.582031 28.90625 17.222656 28.867188 17.8125 28.8125 C 18.402344 28.757813 18.878906 28.730469 19.375 28.53125 L 19.40625 28.5 L 19.4375 28.5 C 21.238281 27.597656 22.644531 25.613281 23.34375 24.34375 C 23.347656 24.335938 23.339844 24.320313 23.34375 24.3125 C 23.351563 24.300781 23.367188 24.292969 23.375 24.28125 C 23.632813 23.847656 23.734375 23.421875 23.90625 22.84375 C 24.085938 22.238281 24.296875 21.527344 24.46875 20.84375 C 24.753906 19.703125 24.898438 18.980469 24.96875 18.65625 C 25.097656 18.585938 25.277344 18.566406 25.375 18.46875 C 25.601563 18.242188 25.804688 17.945313 25.8125 17.53125 C 25.8125 17.519531 25.8125 17.511719 25.8125 17.5 L 26 12.75 L 26 12.6875 C 26 12.253906 25.824219 11.949219 25.59375 11.71875 C 25.535156 11.660156 25.410156 11.675781 25.34375 11.625 C 25.296875 11.046875 25.242188 10.289063 25.09375 9.28125 C 24.910156 8.03125 24.726563 6.777344 24 5.8125 L 23.9375 5.6875 L 23.8125 5.625 C 20.40625 2.878906 16.132813 2.996094 16.03125 3 C 16.03125 3 15.96875 3 15.96875 3 Z M 15.96875 5 L 16.03125 5 C 16.03125 5 19.695313 4.996094 22.4375 7.125 C 22.621094 7.433594 22.964844 8.46875 23.125 9.5625 C 23.292969 10.710938 23.351563 11.851563 23.40625 12.40625 L 23.5 13.3125 L 23.96875 13.3125 L 23.84375 16.90625 L 23.09375 16.90625 L 23.09375 17.90625 C 23.070313 18.019531 22.847656 19.074219 22.53125 20.34375 C 22.363281 21.011719 22.167969 21.726563 22 22.28125 C 21.832031 22.835938 21.621094 23.339844 21.65625 23.28125 L 21.625 23.28125 L 21.625 23.3125 C 21.125 24.226563 19.601563 26.125 18.625 26.65625 C 18.621094 26.65625 18.136719 26.796875 17.625 26.84375 C 17.113281 26.890625 16.519531 26.90625 16 26.90625 C 15.5 26.90625 14.886719 26.910156 14.375 26.875 C 13.863281 26.839844 13.371094 26.671875 13.5 26.75 L 13.5 26.71875 L 13.46875 26.71875 C 13.101563 26.519531 12.621094 26.027344 12.125 25.5 C 11.402344 24.730469 10.664063 23.839844 10.375 23.3125 L 10.375 23.28125 L 10.34375 23.28125 C 10.378906 23.339844 10.167969 22.835938 10 22.28125 C 9.832031 21.726563 9.636719 21.011719 9.46875 20.34375 C 9.152344 19.074219 8.929688 18.019531 8.90625 17.90625 L 8.90625 16.90625 L 8.15625 16.90625 L 8.03125 13.3125 L 8.59375 13.3125 L 8.59375 12.3125 C 8.59375 11.914063 8.664063 10.734375 8.84375 9.59375 C 9.011719 8.507813 9.367188 7.445313 9.5625 7.125 C 12.304688 4.996094 15.96875 5 15.96875 5 Z M 12.125 25.5 L 13.25 25.5 L 14.25 25 L 17.75 25 L 18.75 25.5 L 19.875 25.5 L 20.0625 24.75 L 20.90625 21.4375 L 22.40625 18.4375 L 22.46875 18.25 L 23.0625 15.875 L 22 13.75 L 22 8.375 L 21.4375 8.09375 L 18.65625 6.71875 L 17.5 6.125 L 17.21875 7.375 L 16.40625 11 L 15.59375 11 L 14.78125 7.375 L 14.5 6.125 L 13.34375 6.71875 L 10.5625 8.09375 L 10 8.375 L 10 13.75 L 8.9375 15.875 L 9.53125 18.25 L 9.59375 18.4375 L 11.09375 21.4375 L 11.9375 24.75 Z M 13.09375 9.0625 L 13.8125 12.21875 L 14 13 L 18 13 L 18.1875 12.21875 L 18.90625 9.0625 L 20 9.625 L 20 14.25 L 20.875 16 L 17 16 L 17 18 L 20.375 18 L 19.09375 20.5625 L 19.03125 20.75 L 18.4375 23.09375 L 18.25 23 L 13.75 23 L 13.5625 23.09375 L 12.96875 20.75 L 12.90625 20.5625 L 11.625 18 L 15 18 L 15 16 L 11.125 16 L 12 14.25 L 12 9.625 Z "></path>
</g>
</svg>
