<?xml version="1.0" encoding="UTF-8"?>
<svg xmlns="http://www.w3.org/2000/svg" xmlns:xlink="http://www.w3.org/1999/xlink" viewBox="0 0 32 32" version="1.1">
<g>
<path d="M 4 6 L 4 26 L 28 26 L 28 6 Z M 6 8 L 26 8 L 26 24 L 6 24 Z M 9 12 L 9 20 L 11 20 L 11 12 Z M 14.5 12 C 13.132813 12 12 13.132813 12 14.5 C 12 15.867188 13.132813 17 14.5 17 C 14.785156 17 15 17.214844 15 17.5 C 15 17.863281 14.9375 18 14.5 18 C 14.121094 18 14.066406 17.914063 14.0625 17.90625 C 14.058594 17.898438 14 17.867188 14 17.625 L 12 17.625 C 12 18.191406 12.15625 18.832031 12.625 19.3125 C 13.09375 19.792969 13.773438 20 14.5 20 C 15.910156 20 17 18.792969 17 17.5 C 17 16.132813 15.867188 15 14.5 15 C 14.214844 15 14 14.785156 14 14.5 C 14 14.214844 14.214844 14 14.5 14 C 14.769531 14 14.84375 14.058594 14.90625 14.125 C 14.96875 14.191406 15 14.320313 15 14.40625 L 17 14.40625 C 17 13.839844 16.804688 13.253906 16.375 12.78125 C 15.945313 12.308594 15.257813 12 14.5 12 Z M 20.5 12 C 19.132813 12 18 13.132813 18 14.5 L 18 17.5 C 18 18.867188 19.132813 20 20.5 20 C 21.867188 20 23 18.867188 23 17.5 L 23 14.5 C 23 13.132813 21.867188 12 20.5 12 Z M 20.5 14 C 20.785156 14 21 14.214844 21 14.5 L 21 17.5 C 21 17.785156 20.785156 18 20.5 18 C 20.214844 18 20 17.785156 20 17.5 L 20 14.5 C 20 14.214844 20.214844 14 20.5 14 Z "></path>
</g>
</svg>
