<?xml version="1.0" encoding="UTF-8"?>
<svg xmlns="http://www.w3.org/2000/svg" xmlns:xlink="http://www.w3.org/1999/xlink" viewBox="0 0 32 32" version="1.1">
<g>
<path d="M 4.90625 3.96875 C 4.863281 3.976563 4.820313 3.988281 4.78125 4 C 4.316406 4.105469 3.988281 4.523438 4 5 L 4 8.0625 C 4 14.339844 8.855469 19.484375 15 20 L 15 23 L 10 23 L 10 25 L 22 25 L 22 23 L 17 23 L 17 20 C 23.144531 19.484375 28 14.339844 28 8.0625 L 28 5 C 28.003906 4.640625 27.816406 4.304688 27.503906 4.121094 C 27.191406 3.941406 26.808594 3.941406 26.496094 4.121094 C 26.183594 4.304688 25.996094 4.640625 26 5 L 26 8.0625 C 26 13.261719 22.066406 17.503906 17 18 L 17 16.9375 C 21.484375 16.429688 25 12.617188 25 8 L 25 5 C 25.003906 4.640625 24.816406 4.304688 24.503906 4.121094 C 24.191406 3.941406 23.808594 3.941406 23.496094 4.121094 C 23.183594 4.304688 22.996094 4.640625 23 5 L 23 8 C 23 11.535156 20.398438 14.421875 17 14.90625 L 17 13.90625 C 19.835938 13.429688 22 10.964844 22 8 L 22 5 C 22.003906 4.640625 21.816406 4.304688 21.503906 4.121094 C 21.191406 3.941406 20.808594 3.941406 20.496094 4.121094 C 20.183594 4.304688 19.996094 4.640625 20 5 L 20 8 C 20 9.875 18.730469 11.402344 17 11.84375 L 17 5 C 17.007813 4.691406 16.871094 4.398438 16.632813 4.203125 C 16.398438 4.007813 16.082031 3.933594 15.78125 4 C 15.316406 4.105469 14.988281 4.523438 15 5 L 15 11.84375 C 13.269531 11.402344 12 9.875 12 8 L 12 5 C 12.007813 4.691406 11.871094 4.398438 11.632813 4.203125 C 11.398438 4.007813 11.082031 3.933594 10.78125 4 C 10.316406 4.105469 9.988281 4.523438 10 5 L 10 8 C 10 10.964844 12.164063 13.429688 15 13.90625 L 15 14.90625 C 11.601563 14.421875 9 11.535156 9 8 L 9 5 C 9.007813 4.691406 8.871094 4.398438 8.632813 4.203125 C 8.398438 4.007813 8.082031 3.933594 7.78125 4 C 7.316406 4.105469 6.988281 4.523438 7 5 L 7 8 C 7 12.617188 10.515625 16.429688 15 16.9375 L 15 18 C 9.933594 17.503906 6 13.261719 6 8.0625 L 6 5 C 6.011719 4.710938 5.894531 4.433594 5.6875 4.238281 C 5.476563 4.039063 5.191406 3.941406 4.90625 3.96875 Z M 7 26 L 7 28 L 25 28 L 25 26 Z "></path>
</g>
</svg>
