<?xml version="1.0" encoding="UTF-8"?>
<svg xmlns="http://www.w3.org/2000/svg" xmlns:xlink="http://www.w3.org/1999/xlink" viewBox="0 0 32 32" version="1.1">
<g>
<path d="M 6 3 L 6 10 L 8 10 L 8 5 L 24 5 L 24 10 L 26 10 L 26 3 Z M 10 12 L 10 17.5 C 10 17.785156 9.785156 18 9.5 18 C 9.214844 18 9 17.785156 9 17.5 L 9 17 L 7 17 L 7 17.5 C 7 18.867188 8.132813 20 9.5 20 C 10.867188 20 12 18.867188 12 17.5 L 12 12 Z M 15.5 12 C 14.132813 12 13 13.132813 13 14.5 L 13 15 L 15 15 L 15 14.5 C 15 14.214844 15.214844 14 15.5 14 C 15.785156 14 16 14.214844 16 14.5 L 16 15.34375 C 16 15.484375 15.945313 15.625 15.84375 15.71875 L 13.3125 18 L 13 18.3125 L 13 20 L 18 20 L 18 18 L 16.3125 18 L 17.1875 17.1875 C 17.703125 16.714844 18 16.042969 18 15.34375 L 18 14.5 C 18 13.132813 16.867188 12 15.5 12 Z M 19 12 L 19 20 L 21 20 L 21 18 L 21.125 17.78125 L 22 20 L 24 20 L 22.21875 15.5625 L 24 12 L 22 12 L 21 14 L 21 12 Z M 6 22 L 6 29 L 26 29 L 26 22 L 24 22 L 24 27 L 8 27 L 8 22 Z "></path>
</g>
</svg>
