<?xml version="1.0" encoding="UTF-8"?>
<svg xmlns="http://www.w3.org/2000/svg" xmlns:xlink="http://www.w3.org/1999/xlink" viewBox="0 0 32 32" version="1.1">
<g>
<path d="M 12 5 C 10.355469 5 9 6.355469 9 8 C 9 9.644531 10.355469 11 12 11 C 13.644531 11 15 9.644531 15 8 C 15 6.355469 13.644531 5 12 5 Z M 12 7 C 12.5625 7 13 7.4375 13 8 C 13 8.5625 12.5625 9 12 9 C 11.4375 9 11 8.5625 11 8 C 11 7.4375 11.4375 7 12 7 Z M 1 9 L 1 11 L 2 11 C 2.554688 11 3 11.445313 3 12 L 3 21 C 3 23.746094 5.253906 26 8 26 L 24 26 C 26.746094 26 29 23.746094 29 21 L 29 12 C 29 11.445313 29.445313 11 30 11 L 31 11 L 31 9 L 30 9 C 28.355469 9 27 10.355469 27 12 L 27 13 L 23.8125 13 C 23.394531 11.84375 22.292969 11 21 11 C 19.707031 11 18.605469 11.84375 18.1875 13 L 5 13 L 5 12 C 5 10.355469 3.644531 9 2 9 Z M 21 13 C 21.5625 13 22 13.4375 22 14 C 22 14.5625 21.5625 15 21 15 C 20.4375 15 20 14.5625 20 14 C 20 13.4375 20.4375 13 21 13 Z M 5 15 L 18.1875 15 C 18.605469 16.15625 19.707031 17 21 17 C 22.292969 17 23.394531 16.15625 23.8125 15 L 27 15 L 27 21 C 27 22.65625 25.65625 24 24 24 L 8 24 C 6.34375 24 5 22.65625 5 21 Z M 12 17 C 10.355469 17 9 18.355469 9 20 C 9 21.644531 10.355469 23 12 23 C 13.644531 23 15 21.644531 15 20 C 15 18.355469 13.644531 17 12 17 Z M 12 19 C 12.5625 19 13 19.4375 13 20 C 13 20.5625 12.5625 21 12 21 C 11.4375 21 11 20.5625 11 20 C 11 19.4375 11.4375 19 12 19 Z "></path>
</g>
</svg>
