<?xml version="1.0" encoding="UTF-8"?>
<svg xmlns="http://www.w3.org/2000/svg" xmlns:xlink="http://www.w3.org/1999/xlink" viewBox="0 0 32 32" version="1.1">
<g>
<path d="M 3 3 L 3 29 L 29 29 L 29 3 Z M 5 5 L 7 5 L 7 12 L 5 12 Z M 9 5 L 11 5 L 11 12 L 9 12 Z M 13 5 L 15 5 L 15 12 L 13 12 Z M 17 5 L 19 5 L 19 12 L 17 12 Z M 21 5 L 23 5 L 23 12 L 21 12 Z M 25 5 L 27 5 L 27 12 L 25 12 Z M 5 14 L 15 14 L 15 18 L 5 18 Z M 17 14 L 27 14 L 27 18 L 17 18 Z M 13 15 C 12.449219 15 12 15.449219 12 16 C 12 16.550781 12.449219 17 13 17 C 13.550781 17 14 16.550781 14 16 C 14 15.449219 13.550781 15 13 15 Z M 19 15 C 18.449219 15 18 15.449219 18 16 C 18 16.550781 18.449219 17 19 17 C 19.550781 17 20 16.550781 20 16 C 20 15.449219 19.550781 15 19 15 Z M 5 20 L 15 20 L 15 27 L 13 27 L 13 22 L 11 22 L 11 27 L 9 27 L 9 22 L 7 22 L 7 27 L 5 27 Z M 17 20 L 27 20 L 27 27 L 25 27 L 25 22 L 23 22 L 23 27 L 21 27 L 21 22 L 19 22 L 19 27 L 17 27 Z "></path>
</g>
</svg>
