<?xml version="1.0" encoding="UTF-8"?>
<svg xmlns="http://www.w3.org/2000/svg" xmlns:xlink="http://www.w3.org/1999/xlink" viewBox="0 0 32 32" version="1.1">
<g>
<path d="M 7 3 L 7 29 L 25 29 L 25 3 Z M 9 5 L 11 5 L 11 11 L 9 11 Z M 13 5 L 15 5 L 15 11 L 13 11 Z M 17 5 L 19 5 L 19 11 L 17 11 Z M 21 5 L 23 5 L 23 11 L 21 11 Z M 9 13 L 15 13 L 15 18 L 13 18 L 13 15 L 11 15 L 11 18 L 9 18 Z M 22 14 C 22.550781 14 23 14.449219 23 15 C 23 15.550781 22.550781 16 22 16 C 21.449219 16 21 15.550781 21 15 C 21 14.449219 21.449219 14 22 14 Z M 9 20 L 23 20 L 23 27 L 21 27 L 21 22 L 19 22 L 19 27 L 17 27 L 17 22 L 15 22 L 15 27 L 13 27 L 13 22 L 11 22 L 11 27 L 9 27 Z "></path>
</g>
</svg>
