<?xml version="1.0" encoding="UTF-8"?>
<svg xmlns="http://www.w3.org/2000/svg" xmlns:xlink="http://www.w3.org/1999/xlink" viewBox="0 0 32 32" version="1.1">
<g>
<path d="M 16 4 C 9.382813 4 4 9.382813 4 16 C 4 22.617188 9.382813 28 16 28 C 22.617188 28 28 22.617188 28 16 C 28 9.382813 22.617188 4 16 4 Z M 16 6 C 18.621094 6 21 7.011719 22.78125 8.65625 C 23.140625 9.53125 23.546875 10.8125 23.65625 12.3125 C 23.75 13.609375 23.609375 15.035156 22.96875 16.4375 C 22.976563 16.292969 23 16.148438 23 16 C 23 14.714844 22.640625 13.507813 22.03125 12.46875 C 21.140625 9.390625 19.109375 7.601563 17.09375 6.625 C 16.585938 6.378906 16.085938 6.191406 15.59375 6.03125 C 15.730469 6.027344 15.863281 6 16 6 Z M 12.96875 6.46875 C 13.914063 6.585938 15.261719 6.855469 16.65625 7.53125 C 17.816406 8.09375 18.957031 8.925781 19.84375 10.15625 C 18.738281 9.425781 17.417969 9 16 9 C 15.949219 9 15.894531 9 15.84375 9 C 14.851563 8.769531 13.90625 8.691406 13.03125 8.75 C 11.210938 8.875 9.671875 9.535156 8.4375 10.375 C 7.933594 10.714844 7.5 11.097656 7.09375 11.46875 C 8.292969 9.101563 10.402344 7.285156 12.96875 6.46875 Z M 12.875 9.75 C 11.589844 10.394531 10.527344 11.398438 9.84375 12.65625 C 7.714844 14.941406 7.183594 17.550781 7.34375 19.75 C 7.386719 20.328125 7.484375 20.863281 7.59375 21.375 C 6.601563 19.820313 6 17.984375 6 16 C 6 15.285156 6.078125 14.578125 6.21875 13.90625 C 6.792969 13.136719 7.6875 12.078125 9 11.1875 C 10.070313 10.460938 11.359375 9.894531 12.875 9.75 Z M 24.40625 10.625 C 25.398438 12.179688 26 14.015625 26 16 C 26 16.714844 25.921875 17.421875 25.78125 18.09375 C 25.207031 18.863281 24.3125 19.921875 23 20.8125 C 21.929688 21.539063 20.640625 22.105469 19.125 22.25 C 20.359375 21.628906 21.375 20.664063 22.0625 19.46875 C 22.082031 19.449219 22.105469 19.425781 22.125 19.40625 C 22.136719 19.386719 22.144531 19.363281 22.15625 19.34375 C 24.285156 17.058594 24.816406 14.449219 24.65625 12.25 C 24.613281 11.671875 24.515625 11.136719 24.40625 10.625 Z M 16 11 C 18.773438 11 21 13.226563 21 16 C 21 18.773438 18.773438 21 16 21 C 13.226563 21 11 18.773438 11 16 C 11 13.226563 13.226563 11 16 11 Z M 15.375 12.03125 L 15.3125 12.5 C 15.3125 12.507813 15.328125 12.492188 15.34375 12.5 L 15.34375 12.5625 C 15.328125 12.566406 15.3125 12.554688 15.3125 12.5625 L 15.28125 12.75 C 15.246094 12.753906 15.234375 12.78125 15.21875 12.8125 C 15.199219 12.855469 15.15625 12.933594 15.15625 13 C 15.15625 13.199219 15.171875 13.40625 15.34375 13.40625 C 15.414063 13.40625 15.472656 13.371094 15.5 13.34375 C 15.5 13.390625 15.484375 13.484375 15.46875 13.53125 C 15.429688 13.589844 15.375 13.628906 15.3125 13.625 C 15.152344 13.621094 15.148438 13.484375 15.15625 13.40625 C 15.15625 13.40625 15.105469 13.410156 15.09375 13.46875 C 15.050781 13.738281 14.9375 14.402344 14.9375 14.71875 C 14.9375 14.917969 15.105469 15.03125 15.15625 15.03125 C 15.226563 15.03125 15.28125 15.03125 15.28125 15.03125 L 15.03125 19.5 C 15.03125 19.5 15.113281 19.75 15.25 19.75 C 15.441406 19.75 15.5625 19.53125 15.5625 19.53125 C 15.5625 19.53125 15.96875 16.789063 16 16.5 C 15.988281 17.074219 16.175781 17.378906 16.125 17.59375 C 16.074219 17.808594 16.132813 19.175781 16.1875 19.53125 C 16.1875 19.53125 16.554688 19.585938 16.65625 19.59375 C 16.972656 19.621094 17.21875 19.566406 17.21875 19.5 C 17.214844 19.402344 16.960938 19.429688 16.71875 19.1875 L 16.6875 14.9375 C 16.6875 14.9375 16.820313 14.871094 16.90625 14.8125 C 16.960938 14.777344 16.972656 14.679688 16.96875 14.59375 C 16.964844 14.554688 16.824219 13.695313 16.8125 13.625 C 16.800781 13.546875 16.757813 13.46875 16.625 13.40625 C 16.5625 13.378906 16.25 13.25 16.25 13.25 L 16.21875 13.15625 L 16.15625 13.15625 L 16.15625 13.0625 C 16.242188 12.988281 16.25 12.78125 16.25 12.78125 C 16.289063 12.742188 16.300781 12.691406 16.3125 12.625 C 16.320313 12.585938 16.3125 12.5625 16.3125 12.5625 C 16.335938 12.398438 16.332031 12.152344 16.09375 12.125 C 16.09375 12.125 16.109375 12.074219 16.09375 12.0625 C 15.601563 12 15.644531 12.398438 15.65625 12.5625 C 15.65625 12.5625 15.625 12.578125 15.625 12.59375 C 15.625 12.640625 15.613281 12.765625 15.6875 12.8125 L 15.71875 13.09375 C 15.84375 13.15625 15.875 13.1875 15.875 13.1875 L 15.84375 13.21875 L 15.9375 13.40625 L 16.09375 13.28125 C 16.09375 13.28125 16.183594 13.324219 16.25 13.34375 C 16.324219 13.648438 16.269531 14.148438 16.25 14.34375 C 16.207031 13.996094 15.804688 13.160156 15.6875 13.125 C 15.6875 13.125 15.609375 13.175781 15.53125 13.21875 C 15.585938 13.023438 15.527344 12.972656 15.5 12.9375 C 15.480469 12.914063 15.453125 12.894531 15.40625 12.875 L 15.40625 12.84375 C 15.40625 12.84375 15.457031 12.847656 15.46875 12.84375 C 15.539063 12.828125 15.527344 12.746094 15.46875 12.75 C 15.453125 12.75 15.441406 12.75 15.4375 12.75 L 15.4375 12.59375 C 15.4375 12.585938 15.453125 12.570313 15.4375 12.5625 L 15.4375 12.53125 C 15.453125 12.527344 15.46875 12.507813 15.46875 12.5 L 15.5 12.0625 C 15.5 12.050781 15.472656 12.035156 15.4375 12.03125 C 15.402344 12.027344 15.375 12.019531 15.375 12.03125 Z M 15 12.8125 C 14.984375 12.820313 14.992188 12.851563 15 12.875 C 15.007813 12.898438 15.046875 12.914063 15.0625 12.90625 C 15.078125 12.898438 15.070313 12.867188 15.0625 12.84375 C 15.054688 12.820313 15.015625 12.804688 15 12.8125 Z M 16.40625 13.75 C 16.421875 13.75 16.625 13.777344 16.625 13.875 C 16.582031 13.871094 16.457031 13.863281 16.40625 13.84375 Z M 15.625 14.625 L 15.75 14.625 C 15.796875 14.707031 15.824219 14.832031 15.78125 14.96875 L 15.6875 14.96875 C 15.671875 14.960938 15.664063 14.953125 15.65625 14.9375 C 15.707031 14.863281 15.65625 14.765625 15.625 14.6875 C 15.640625 14.683594 15.65625 14.679688 15.65625 14.65625 C 15.65625 14.632813 15.640625 14.621094 15.625 14.625 Z M 9.03125 15.5625 C 9.023438 15.707031 9 15.851563 9 16 C 9 17.296875 9.351563 18.519531 9.96875 19.5625 C 10.863281 22.625 12.898438 24.402344 14.90625 25.375 C 15.414063 25.621094 15.914063 25.808594 16.40625 25.96875 C 16.269531 25.972656 16.136719 26 16 26 C 13.378906 26 11 24.988281 9.21875 23.34375 C 8.859375 22.46875 8.453125 21.1875 8.34375 19.6875 C 8.25 18.390625 8.390625 16.964844 9.03125 15.5625 Z M 24.90625 20.53125 C 23.707031 22.898438 21.597656 24.714844 19.03125 25.53125 C 18.085938 25.414063 16.738281 25.144531 15.34375 24.46875 C 14.183594 23.90625 13.042969 23.074219 12.15625 21.84375 C 13.261719 22.574219 14.582031 23 16 23 C 16.050781 23 16.105469 23 16.15625 23 C 19.210938 23.714844 21.734375 22.867188 23.5625 21.625 C 24.066406 21.285156 24.5 20.902344 24.90625 20.53125 Z "></path>
</g>
</svg>
