<?xml version="1.0" encoding="UTF-8"?>
<svg xmlns="http://www.w3.org/2000/svg" xmlns:xlink="http://www.w3.org/1999/xlink" viewBox="0 0 32 32" version="1.1">
<g>
<path d="M 16 3 C 9.933594 3 5 7.484375 5 13 C 5 20.398438 9.804688 29 16 29 C 22.195313 29 27 20.398438 27 13 C 27 7.484375 22.066406 3 16 3 Z M 16 5 C 16.550781 5 17 5.449219 17 6 C 17 6.550781 16.550781 7 16 7 C 15.449219 7 15 6.550781 15 6 C 15 5.449219 15.449219 5 16 5 Z M 14 5.1875 L 14 8 L 18 8 L 18 5.1875 C 22.003906 5.996094 25 9.199219 25 13 L 23 13 L 23 17 L 24.5 17 C 23.609375 20.800781 21.59375 24.414063 19 26.0625 C 19 26.042969 19 26.023438 19 26 C 19 25.449219 18.550781 25 18 25 C 17.449219 25 17 25.449219 17 26 C 17 26.324219 17.164063 26.597656 17.40625 26.78125 C 16.941406 26.917969 16.484375 27 16 27 C 15.515625 27 15.058594 26.917969 14.59375 26.78125 C 14.835938 26.597656 15 26.324219 15 26 C 15 25.449219 14.550781 25 14 25 C 13.449219 25 13 25.449219 13 26 C 13 26.023438 13 26.042969 13 26.0625 C 10.40625 24.414063 8.390625 20.800781 7.5 17 L 9 17 L 9 13 L 7 13 C 7 9.199219 9.996094 5.996094 14 5.1875 Z M 12.5 13 C 11.671875 13 11 13.671875 11 14.5 C 11 15.328125 11.671875 16 12.5 16 C 13.328125 16 14 15.328125 14 14.5 C 14 13.671875 13.328125 13 12.5 13 Z M 19.5 13 C 18.671875 13 18 13.671875 18 14.5 C 18 15.328125 18.671875 16 19.5 16 C 20.328125 16 21 15.328125 21 14.5 C 21 13.671875 20.328125 13 19.5 13 Z M 7.5 14 C 7.777344 14 8 14.449219 8 15 C 8 15.550781 7.777344 16 7.5 16 C 7.222656 16 7 15.550781 7 15 C 7 14.449219 7.222656 14 7.5 14 Z M 24.5 14 C 24.777344 14 25 14.449219 25 15 C 25 15.550781 24.777344 16 24.5 16 C 24.222656 16 24 15.550781 24 15 C 24 14.449219 24.222656 14 24.5 14 Z M 16 19 C 15.324219 19 14 20 14 20 L 18 20 C 18 20 16.675781 19 16 19 Z M 14 22 C 13.449219 22 13 22.449219 13 23 C 13 23.550781 13.449219 24 14 24 C 14.550781 24 15 23.550781 15 23 C 15 22.449219 14.550781 22 14 22 Z M 18 22 C 17.449219 22 17 22.449219 17 23 C 17 23.550781 17.449219 24 18 24 C 18.550781 24 19 23.550781 19 23 C 19 22.449219 18.550781 22 18 22 Z "></path>
</g>
</svg>
