<?xml version="1.0" encoding="UTF-8"?>
<svg xmlns="http://www.w3.org/2000/svg" xmlns:xlink="http://www.w3.org/1999/xlink" viewBox="0 0 32 32" version="1.1">
<g>
<path d="M 22.5625 3 C 22.289063 3.015625 21.996094 3.121094 21.71875 3.34375 C 20.542969 4.285156 20.722656 4.769531 20.15625 5.90625 C 19.964844 6.566406 19.648438 6.617188 19.375 6.03125 C 19.046875 5.449219 18.886719 4.722656 18.375 4.28125 C 17.550781 3.570313 16.621094 4.105469 17.125 4.90625 C 17.628906 5.707031 17.835938 6.550781 18.03125 7.875 C 18.324219 9.847656 17.5 12.042969 16.40625 13.09375 C 14.429688 9.050781 11.847656 6.050781 10.03125 5.125 C 9.480469 4.84375 9.3125 5.078125 9.3125 5.34375 C 9.65625 9.304688 9.78125 12.039063 9.5625 14.0625 C 9.464844 14.96875 7.328125 18.3125 7.4375 19.09375 C 7.546875 19.871094 8.171875 21.089844 8.59375 21.71875 C 8.421875 21.59375 7.988281 21.878906 8.09375 22.28125 C 7.332031 22.707031 7.402344 23.359375 8.1875 23.53125 C 8.390625 24.058594 8.433594 24.320313 9 24.5625 C 8.890625 25.675781 8.773438 26.820313 8.65625 28.0625 C 9.164063 30.5625 13.035156 26.238281 13.53125 25.875 C 16.214844 23.90625 16.625 28.203125 18.5 28.875 C 21.65625 30.003906 20.632813 23.363281 18.09375 16.84375 C 17.792969 12.652344 19.203125 11.457031 20.5625 10.90625 C 21.277344 10.671875 21.808594 10.625 22.78125 10.90625 C 24.453125 11.386719 24.800781 9.484375 23.3125 9.25 C 22.746094 9.160156 22.335938 9.167969 21.8125 8.9375 C 22.023438 8.097656 22.859375 8.054688 23.6875 7.9375 C 25.570313 7.671875 25.40625 5.640625 23.3125 6.125 C 22.398438 6.339844 21.988281 6.882813 21.65625 6.875 C 22.082031 6.097656 22.800781 5.429688 23.5 4.4375 C 24.023438 3.691406 23.378906 2.953125 22.5625 3 Z M 12.84375 10.3125 C 13.089844 10.28125 13.304688 10.296875 13.53125 10.375 C 14.433594 10.679688 14.738281 11.828125 14.1875 12.90625 C 13.636719 13.984375 12.433594 14.585938 11.53125 14.28125 C 10.628906 13.976563 10.355469 12.859375 10.90625 11.78125 C 11.320313 10.972656 12.105469 10.410156 12.84375 10.3125 Z M 11.875 11.78125 C 11.738281 11.785156 11.597656 11.863281 11.46875 12 C 11.210938 12.277344 11.125 12.734375 11.28125 13 C 11.441406 13.265625 11.773438 13.246094 12.03125 12.96875 C 12.289063 12.691406 12.378906 12.234375 12.21875 11.96875 C 12.140625 11.835938 12.011719 11.777344 11.875 11.78125 Z M 15.1875 14.34375 C 16.695313 17.226563 18.117188 20.640625 18.40625 24.53125 C 18.542969 26.382813 17.054688 24.382813 16.875 24.0625 C 13.8125 18.546875 9.878906 29.875 10.65625 22.78125 C 11.058594 19.859375 11.253906 19.472656 11.34375 16.0625 C 11.34375 16.0625 13.6875 17.285156 15.1875 14.34375 Z M 9.625 17.71875 C 9.550781 18.683594 9.53125 19.320313 9.4375 20.3125 C 9.230469 19.773438 8.957031 19.71875 8.8125 19.21875 C 9.113281 18.890625 9.320313 18.25 9.625 17.71875 Z "></path>
</g>
</svg>
