<?xml version="1.0" encoding="UTF-8"?>
<svg xmlns="http://www.w3.org/2000/svg" xmlns:xlink="http://www.w3.org/1999/xlink" viewBox="0 0 32 32" version="1.1">
<g>
<path d="M 16 4 C 9.382813 4 4 9.382813 4 16 C 4 22.617188 9.382813 28 16 28 C 22.617188 28 28 22.617188 28 16 C 28 9.382813 22.617188 4 16 4 Z M 16 6 C 21.535156 6 26 10.464844 26 16 C 26 21.535156 21.535156 26 16 26 C 10.464844 26 6 21.535156 6 16 C 6 10.464844 10.464844 6 16 6 Z M 16.53125 8.03125 C 15.988281 9.203125 15.523438 10.839844 15.34375 13.09375 C 15.558594 13.042969 15.769531 13 16 13 C 16.289063 13 16.578125 13.046875 16.84375 13.125 C 17.03125 10.839844 17.550781 9.308594 18.09375 8.28125 C 17.597656 8.144531 17.0625 8.066406 16.53125 8.03125 Z M 13.9375 8.28125 C 13.425781 8.417969 12.933594 8.582031 12.46875 8.8125 C 12.582031 10.097656 12.996094 11.769531 13.96875 13.8125 C 14.335938 13.472656 14.78125 13.21875 15.28125 13.09375 C 14.304688 11.023438 13.980469 9.441406 13.9375 8.28125 Z M 20.46875 9.375 C 19.410156 10.117188 18.160156 11.285156 16.875 13.15625 C 17.367188 13.308594 17.808594 13.574219 18.15625 13.9375 C 19.464844 12.054688 20.671875 10.960938 21.65625 10.34375 C 21.289063 9.972656 20.902344 9.667969 20.46875 9.375 Z M 10.34375 10.34375 C 9.972656 10.710938 9.667969 11.097656 9.375 11.53125 C 10.117188 12.589844 11.285156 13.839844 13.15625 15.125 C 13.308594 14.632813 13.574219 14.191406 13.9375 13.84375 C 12.054688 12.535156 10.960938 11.328125 10.34375 10.34375 Z M 23.1875 12.46875 C 21.902344 12.582031 20.230469 12.996094 18.1875 13.96875 C 18.527344 14.335938 18.78125 14.78125 18.90625 15.28125 C 20.976563 14.304688 22.558594 13.980469 23.71875 13.9375 C 23.582031 13.425781 23.417969 12.933594 23.1875 12.46875 Z M 8.28125 13.90625 C 8.144531 14.402344 8.066406 14.9375 8.03125 15.46875 C 9.203125 16.011719 10.839844 16.476563 13.09375 16.65625 C 13.042969 16.441406 13 16.230469 13 16 C 13 15.710938 13.046875 15.421875 13.125 15.15625 C 10.839844 14.96875 9.308594 14.449219 8.28125 13.90625 Z M 16 14 C 14.894531 14 14 14.894531 14 16 C 14 17.105469 14.894531 18 16 18 C 17.105469 18 18 17.105469 18 16 C 18 14.894531 17.105469 14 16 14 Z M 18.90625 15.34375 C 18.957031 15.558594 19 15.769531 19 16 C 19 16.289063 18.953125 16.578125 18.875 16.84375 C 21.160156 17.03125 22.691406 17.550781 23.71875 18.09375 C 23.855469 17.597656 23.933594 17.0625 23.96875 16.53125 C 22.796875 15.988281 21.160156 15.523438 18.90625 15.34375 Z M 13.09375 16.71875 C 11.023438 17.695313 9.441406 18.019531 8.28125 18.0625 C 8.417969 18.574219 8.582031 19.0625 8.8125 19.53125 C 10.097656 19.414063 11.773438 19 13.8125 18.03125 C 13.472656 17.664063 13.21875 17.21875 13.09375 16.71875 Z M 18.84375 16.875 C 18.691406 17.367188 18.425781 17.808594 18.0625 18.15625 C 19.945313 19.464844 21.039063 20.671875 21.65625 21.65625 C 22.027344 21.289063 22.332031 20.902344 22.625 20.46875 C 21.882813 19.410156 20.714844 18.160156 18.84375 16.875 Z M 13.84375 18.0625 C 12.535156 19.945313 11.328125 21.039063 10.34375 21.65625 C 10.710938 22.027344 11.097656 22.332031 11.53125 22.625 C 12.589844 21.882813 13.839844 20.714844 15.125 18.84375 C 14.632813 18.691406 14.191406 18.425781 13.84375 18.0625 Z M 18.03125 18.1875 C 17.664063 18.527344 17.21875 18.78125 16.71875 18.90625 C 17.695313 20.976563 18.019531 22.558594 18.0625 23.71875 C 18.574219 23.582031 19.066406 23.417969 19.53125 23.1875 C 19.417969 21.902344 19.003906 20.230469 18.03125 18.1875 Z M 15.15625 18.875 C 14.96875 21.160156 14.449219 22.691406 13.90625 23.71875 C 14.402344 23.855469 14.9375 23.933594 15.46875 23.96875 C 16.011719 22.796875 16.476563 21.160156 16.65625 18.90625 C 16.441406 18.957031 16.230469 19 16 19 C 15.710938 19 15.421875 18.953125 15.15625 18.875 Z "></path>
</g>
</svg>
