<?xml version="1.0" encoding="UTF-8"?>
<svg xmlns="http://www.w3.org/2000/svg" xmlns:xlink="http://www.w3.org/1999/xlink" viewBox="0 0 32 32" version="1.1">
<g>
<path d="M 13.574219 3 C 13.371094 3 13.167969 3.097656 13.066406 3.28125 C 12.964844 3.464844 12.980469 3.6875 13.105469 3.859375 C 13.105469 3.863281 13.105469 3.867188 13.109375 3.871094 C 14.089844 4.753906 14 6 14 6 C 12.996094 5.140625 12.3125 5 11 5 C 10.144531 5 9.09375 5.585938 8.234375 6.179688 C 8.046875 6.308594 7.960938 6.539063 8.015625 6.757813 C 8.074219 6.976563 8.257813 7.136719 8.484375 7.164063 C 8.695313 7.1875 12 8 12 8 C 8.058594 8 5.597656 8.609375 5.015625 10.328125 C 4.949219 10.527344 5.03125 10.75 5.195313 10.886719 C 5.265625 10.945313 5.351563 10.980469 5.4375 11 L 7.914063 11.125 L 6.242188 12.21875 C 5.984375 12.394531 5.921875 12.746094 6.105469 13 L 7 15 L 7 16.492188 C 6.457031 16.234375 5.832031 16 5.167969 16 C 4.03125 16 3.507813 16.679688 3.265625 17.078125 C 2.554688 18.246094 3.484375 20.050781 3.597656 20.265625 C 3.917969 20.835938 5.898438 23.867188 7.617188 23.96875 C 7.722656 23.976563 7.820313 23.980469 7.914063 23.980469 C 8.585938 23.980469 8.917969 23.703125 9.101563 23.433594 C 9.265625 24.078125 9.441406 25.019531 9.601563 25.40625 C 10.195313 26.886719 15.015625 29 17.78125 29 C 21.335938 29 23.324219 28.460938 23.410156 28.4375 C 23.566406 28.394531 23.695313 28.285156 23.761719 28.140625 C 23.824219 28.007813 25.464844 24.992188 26.261719 23.390625 L 26.269531 23.390625 C 26.46875 22.992188 26.621094 22.671875 26.6875 22.5 C 26.960938 21.757813 27.953125 16.296875 27.953125 16.296875 C 27.996094 16.203125 28.007813 16.101563 27.996094 16 C 27.996094 16 28 9.800781 28 9.203125 C 28 6.089844 26.089844 4.246094 26 4.15625 C 25.851563 4.011719 25.632813 3.960938 25.433594 4.03125 C 25.386719 4.046875 25.359375 4.082031 25.316406 4.109375 C 25.304688 4.113281 25.292969 4.109375 25.28125 4.117188 C 25.140625 4.164063 25.046875 4.269531 24.984375 4.394531 L 25.089844 4.429688 C 25.085938 4.449219 25.070313 4.460938 25.066406 4.476563 C 25.058594 4.542969 25.050781 4.609375 25.039063 4.675781 C 25.167969 5.398438 25.070313 6.371094 24.90625 7.335938 C 24.90625 7.335938 24.601563 4.4375 23.109375 3.242188 C 23.015625 3.167969 22.910156 3.121094 22.804688 3.0625 C 22.632813 2.972656 22.429688 2.980469 22.265625 3.078125 C 22.101563 3.171875 22 3.351563 22 3.539063 L 22 6 C 22 6 20.730469 3.9375 19.214844 3.144531 C 19.035156 3.097656 18.851563 3.050781 18.65625 3.011719 C 18.445313 2.96875 18.226563 3.054688 18.101563 3.226563 C 17.976563 3.402344 18.015625 3.613281 18.078125 3.820313 C 18.332031 4.644531 18 6 18 6 C 18 6 17.265625 3.390625 13.988281 3.03125 C 13.847656 3.019531 13.714844 3.007813 13.574219 3 Z M 15 10 C 20.03125 10 24.761719 12.347656 26.496094 12.878906 C 26.492188 13.796875 26.496094 14.542969 26.496094 15.023438 L 22.828125 15.664063 C 22.285156 15.757813 21.921875 16.277344 22.015625 16.820313 C 22.050781 17.023438 22.152344 17.191406 22.285156 17.328125 C 22.125 17.652344 22.035156 17.984375 22.027344 18.261719 C 22.003906 18.453125 22.042969 20.207031 22.75 21.21875 C 23.140625 21.773438 23.8125 22 24.53125 22 C 24.730469 22 24.992188 21.957031 25.296875 21.890625 C 25.292969 21.902344 25.28125 21.96875 25.277344 21.976563 C 25.25 22.042969 25.078125 22.367188 25.015625 22.5 L 22.84375 22.5 L 22.503906 22.503906 C 21.15625 22.503906 18.832031 22.417969 15.335938 21.535156 C 13.863281 21.167969 10.972656 19.46875 9 18.253906 C 9.003906 18.152344 9.015625 18.0625 9.039063 18 C 9.347656 17.164063 10.992188 15.019531 11 15 L 11 13 C 11 12.359375 11.5 10 15 10 Z M 13.96875 12 C 13.433594 12 13 12.445313 13 12.996094 C 13 13.246094 13.097656 13.46875 13.246094 13.644531 C 12.433594 14.203125 12 15.039063 12 15.855469 C 12 19.28125 14.183594 20 16.015625 20 C 17.476563 20 18.796875 19.265625 19.542969 18.035156 C 19.640625 17.875 19.695313 17.773438 19.75 17.652344 C 19.933594 17.433594 20.035156 17.148438 19.984375 16.84375 C 19.722656 15.167969 18.125 12 13.96875 12 Z M 15.484375 14.949219 C 15.710938 14.949219 16.019531 15.09375 16.339844 15.277344 C 15.828125 15.207031 15.277344 15.667969 15.078125 16.375 C 14.859375 17.121094 15.121094 17.855469 15.660156 18.007813 C 16.203125 18.160156 16.8125 17.679688 17.03125 16.925781 C 17.175781 16.410156 17.085938 15.914063 16.847656 15.597656 C 17.257813 15.890625 17.609375 16.207031 17.871094 16.472656 C 17.949219 16.679688 17.96875 16.773438 18 16.902344 C 17.769531 17.351563 17.164063 18.050781 16.015625 18.050781 C 14.222656 18.050781 13.871094 17.246094 13.871094 15.855469 C 13.871094 15.574219 14.277344 14.949219 15.484375 14.949219 Z M 5.167969 17.5 C 5.761719 17.5 6.53125 17.917969 6.992188 18.167969 C 7.0625 18.203125 7.273438 18.363281 7.515625 18.539063 L 8.699219 22.097656 C 8.496094 22.246094 8.253906 22.378906 7.945313 22.480469 C 7.9375 22.480469 7.925781 22.480469 7.914063 22.480469 C 7.851563 22.480469 7.78125 22.480469 7.707031 22.472656 C 7.109375 22.4375 5.597656 20.757813 4.917969 19.550781 C 4.585938 18.9375 4.402344 18.097656 4.546875 17.859375 C 4.695313 17.617188 4.828125 17.5 5.167969 17.5 Z M 25 18.066406 C 25.359375 18.089844 25.710938 18.132813 26.0625 18.199219 C 25.96875 18.691406 25.875 19.222656 25.785156 19.65625 C 24.941406 19.914063 24.601563 19.96875 24.53125 19.96875 C 24.332031 19.96875 24.277344 19.902344 24.25 19.871094 C 24.230469 19.851563 24.222656 19.8125 24.207031 19.789063 C 24.515625 19.566406 24.78125 19.183594 24.914063 18.703125 C 24.972656 18.484375 25 18.273438 25 18.066406 Z M 15 23 C 19.007813 23.917969 21.464844 24.003906 22.503906 24.003906 C 22.742188 24.003906 22.90625 24 23 24 L 22.71875 26 L 16 26 Z M 11.855469 25.546875 L 11.921875 25.589844 C 11.898438 25.574219 11.878906 25.558594 11.855469 25.546875 Z "></path>
</g>
</svg>
