<?xml version="1.0" encoding="UTF-8"?>
<svg xmlns="http://www.w3.org/2000/svg" xmlns:xlink="http://www.w3.org/1999/xlink" viewBox="0 0 32 32" version="1.1">
<g>
<path d="M 12.0625 3 L 12 3.9375 C 12 3.9375 11.949219 4.722656 11.8125 5.5625 C 11.746094 5.984375 11.671875 6.414063 11.5625 6.75 C 11.453125 7.085938 11.28125 7.3125 11.3125 7.28125 C 11.375 7.222656 11.007813 7.425781 10.5 7.59375 C 9.992188 7.761719 9.34375 7.964844 8.625 8.1875 C 7.1875 8.632813 5.515625 9.15625 4.3125 10.25 L 3.875 10.6875 L 4.03125 11.28125 L 9.03125 28.28125 L 9.25 29 L 22.75 29 L 22.96875 28.28125 L 27.96875 11.28125 L 28.125 10.6875 L 27.6875 10.25 C 26.484375 9.15625 24.8125 8.632813 23.375 8.1875 C 22.65625 7.964844 22.007813 7.761719 21.5 7.59375 C 21.011719 7.429688 20.683594 7.242188 20.71875 7.28125 L 20.6875 7.28125 C 20.71875 7.3125 20.546875 7.085938 20.4375 6.75 C 20.328125 6.414063 20.253906 5.984375 20.1875 5.5625 C 20.050781 4.722656 20 3.9375 20 3.9375 L 19.9375 3 Z M 13.90625 5 L 18.09375 5 C 18.125 5.328125 18.113281 5.410156 18.1875 5.875 C 18.265625 6.359375 18.375 6.855469 18.53125 7.34375 C 18.6875 7.832031 18.863281 8.300781 19.3125 8.71875 C 19.792969 9.164063 20.261719 9.308594 20.84375 9.5 C 20.878906 9.511719 20.929688 9.519531 20.96875 9.53125 C 20.699219 12.046875 18.589844 14 16 14 C 13.410156 14 11.300781 12.046875 11.03125 9.53125 C 11.070313 9.519531 11.121094 9.511719 11.15625 9.5 C 11.738281 9.308594 12.207031 9.164063 12.6875 8.71875 C 13.136719 8.300781 13.3125 7.832031 13.46875 7.34375 C 13.625 6.855469 13.734375 6.359375 13.8125 5.875 C 13.886719 5.410156 13.875 5.328125 13.90625 5 Z M 9.09375 10.125 C 9.632813 13.449219 12.527344 16 16 16 C 19.472656 16 22.367188 13.449219 22.90625 10.125 C 24.03125 10.484375 25.054688 10.972656 25.8125 11.5 L 21.25 27 L 10.75 27 L 6.1875 11.5 C 6.945313 10.972656 7.96875 10.484375 9.09375 10.125 Z M 16 16 L 14 18 L 16 21 L 18 18 Z "></path>
</g>
</svg>
