<?xml version="1.0" encoding="UTF-8"?>
<svg xmlns="http://www.w3.org/2000/svg" xmlns:xlink="http://www.w3.org/1999/xlink" viewBox="0 0 32 32" version="1.1">
<g>
<path d="M 9.5 3 C 7.578125 3 6 4.578125 6 6.5 C 6 8.121094 7.148438 9.484375 8.65625 9.875 C 8.242188 10.839844 8 11.886719 8 13 L 8 22 C 8 22.566406 7.566406 23 7 23 L 6 23 L 6 25 L 13.1875 25 C 13.074219 25.316406 13 25.648438 13 26 C 13 27.644531 14.355469 29 16 29 C 17.644531 29 19 27.644531 19 26 C 19 25.648438 18.925781 25.316406 18.8125 25 L 26 25 L 26 23 L 25 23 C 24.433594 23 24 22.566406 24 22 L 24 13 C 24 11.921875 23.765625 10.90625 23.375 9.96875 C 25.054688 9.71875 26.375 8.246094 26.375 6.5 C 26.375 4.578125 24.796875 3 22.875 3 C 22.167969 3 21.605469 3.234375 20.875 3.53125 C 20.144531 3.828125 19.324219 4.210938 18.5625 4.59375 C 18.34375 4.703125 18.207031 4.800781 18 4.90625 C 17.949219 3.84375 17.074219 3 16 3 C 14.992188 3 14.167969 3.746094 14.03125 4.71875 C 13.949219 4.675781 13.898438 4.636719 13.8125 4.59375 C 13.050781 4.210938 12.230469 3.828125 11.5 3.53125 C 10.769531 3.234375 10.207031 3 9.5 3 Z M 9.5 5 C 9.484375 5 10.097656 5.140625 10.75 5.40625 C 11.402344 5.671875 12.171875 6.039063 12.90625 6.40625 C 13.316406 6.613281 13.324219 6.621094 13.6875 6.8125 C 13.375 6.921875 13.378906 6.945313 13.03125 7.0625 C 12.292969 7.308594 11.535156 7.539063 10.875 7.71875 C 10.214844 7.898438 9.605469 8 9.5 8 C 8.660156 8 8 7.339844 8 6.5 C 8 5.660156 8.660156 5 9.5 5 Z M 22.875 5 C 23.714844 5 24.375 5.660156 24.375 6.5 C 24.375 7.339844 23.714844 8 22.875 8 C 22.769531 8 22.160156 7.898438 21.5 7.71875 C 20.839844 7.539063 20.082031 7.308594 19.34375 7.0625 C 18.996094 6.945313 19 6.921875 18.6875 6.8125 C 19.050781 6.621094 19.058594 6.613281 19.46875 6.40625 C 20.203125 6.039063 20.972656 5.671875 21.625 5.40625 C 22.277344 5.140625 22.890625 5 22.875 5 Z M 16.1875 8.0625 C 16.453125 8.160156 17.351563 8.492188 18.6875 8.9375 C 19.4375 9.1875 20.253906 9.460938 20.96875 9.65625 C 21.613281 10.613281 22 11.765625 22 13 L 22 22 C 22 22.351563 22.074219 22.683594 22.1875 23 L 9.8125 23 C 9.925781 22.683594 10 22.351563 10 22 L 10 13 C 10 11.804688 10.359375 10.6875 10.96875 9.75 C 11.101563 9.714844 11.230469 9.695313 11.375 9.65625 C 12.097656 9.460938 12.925781 9.191406 13.6875 8.9375 C 15.023438 8.492188 15.921875 8.160156 16.1875 8.0625 Z M 16 25 C 16.5625 25 17 25.4375 17 26 C 17 26.5625 16.5625 27 16 27 C 15.4375 27 15 26.5625 15 26 C 15 25.4375 15.4375 25 16 25 Z "></path>
</g>
</svg>
