<?xml version="1.0" encoding="UTF-8"?>
<svg xmlns="http://www.w3.org/2000/svg" xmlns:xlink="http://www.w3.org/1999/xlink" viewBox="0 0 32 32" version="1.1">
<g>
<path d="M 6.753906 4.992188 C 6.652344 4.984375 6.542969 4.980469 6.429688 4.992188 C 6.199219 5.023438 5.953125 5.117188 5.695313 5.359375 C 5.03125 5.996094 4.945313 6.816406 4.9375 7.59375 C 4.929688 8.375 5.058594 9.195313 5.21875 9.960938 C 5.488281 11.234375 5.769531 12 5.890625 12.355469 C 5.421875 12.964844 3.328125 15.765625 3.328125 19.175781 L 3.328125 20.125 L 4.273438 20.175781 C 5.644531 20.25 6.027344 20.625 6.246094 20.984375 C 6.464844 21.347656 6.496094 21.871094 6.496094 22.359375 L 6.496094 23.222656 L 7.351563 23.347656 C 9.03125 23.597656 10.058594 24.175781 11.273438 24.78125 C 12.488281 25.382813 13.90625 26 15.941406 26 C 17.980469 26 19.394531 25.382813 20.609375 24.78125 C 21.828125 24.175781 22.855469 23.597656 24.535156 23.347656 L 25.390625 23.222656 L 25.390625 22.359375 C 25.390625 21.871094 25.421875 21.347656 25.640625 20.984375 C 25.859375 20.625 26.238281 20.25 27.609375 20.175781 L 28.558594 20.125 L 28.558594 19.175781 C 28.558594 15.765625 26.46875 12.964844 26 12.355469 C 26.121094 12 26.398438 11.234375 26.667969 9.960938 C 26.828125 9.195313 26.957031 8.375 26.949219 7.59375 C 26.941406 6.816406 26.859375 5.996094 26.191406 5.359375 C 25.679688 4.875 25.203125 4.976563 24.84375 5.03125 C 24.484375 5.085938 24.140625 5.195313 23.761719 5.335938 C 23.007813 5.621094 22.144531 6.039063 21.304688 6.476563 C 19.828125 7.25 18.761719 7.902344 18.449219 8.09375 C 17.375 7.703125 16.371094 7.636719 15.941406 7.636719 C 15.515625 7.636719 14.511719 7.703125 13.4375 8.09375 C 13.128906 7.902344 12.058594 7.25 10.582031 6.476563 C 9.742188 6.039063 8.882813 5.621094 8.125 5.335938 C 7.75 5.195313 7.402344 5.085938 7.046875 5.03125 C 6.957031 5.015625 6.855469 5 6.753906 4.992188 Z M 7.023438 7.09375 C 7.152344 7.125 7.246094 7.144531 7.421875 7.210938 C 8.035156 7.441406 8.855469 7.832031 9.65625 8.25 C 11.257813 9.089844 12.785156 10.019531 12.785156 10.019531 L 13.265625 10.3125 L 13.761719 10.054688 C 14.570313 9.640625 15.394531 9.636719 15.941406 9.636719 C 16.492188 9.636719 17.316406 9.640625 18.125 10.054688 L 18.625 10.3125 L 19.105469 10.019531 C 19.105469 10.019531 20.632813 9.089844 22.234375 8.25 C 23.03125 7.832031 23.851563 7.441406 24.464844 7.210938 C 24.640625 7.144531 24.734375 7.128906 24.859375 7.09375 C 24.902344 7.210938 24.949219 7.261719 24.953125 7.609375 C 24.957031 8.152344 24.855469 8.863281 24.710938 9.550781 C 24.421875 10.925781 23.972656 12.179688 23.972656 12.179688 L 23.792969 12.695313 L 24.125 13.128906 C 24.125 13.128906 26.074219 15.898438 26.421875 18.453125 C 25.277344 18.738281 24.363281 19.230469 23.929688 19.949219 C 23.570313 20.542969 23.472656 21.101563 23.433594 21.59375 C 21.898438 21.949219 20.699219 22.503906 19.71875 22.988281 C 18.558594 23.566406 17.601563 24 15.941406 24 C 14.285156 24 13.328125 23.566406 12.167969 22.988281 C 11.1875 22.503906 9.988281 21.949219 8.453125 21.59375 C 8.414063 21.101563 8.316406 20.542969 7.953125 19.949219 C 7.519531 19.230469 6.609375 18.738281 5.460938 18.453125 C 5.8125 15.898438 7.757813 13.128906 7.757813 13.128906 L 8.097656 12.695313 L 7.914063 12.179688 C 7.914063 12.179688 7.464844 10.925781 7.179688 9.550781 C 7.035156 8.863281 6.933594 8.152344 6.9375 7.609375 C 6.941406 7.261719 6.984375 7.210938 7.023438 7.09375 Z M 12.613281 12.007813 C 11.457031 12.007813 10.410156 12.460938 9.59375 13.011719 C 9.183594 13.289063 8.832031 13.589844 8.550781 13.929688 C 8.269531 14.269531 8 14.625 8 15.230469 C 8 16.625 8.886719 17.785156 9.882813 18.863281 C 10.382813 19.40625 10.929688 19.890625 11.5 20.265625 C 12.074219 20.640625 12.65625 20.941406 13.378906 20.9375 C 14.273438 20.9375 14.929688 20.4375 15.238281 20.1875 C 15.550781 19.933594 15.554688 19.875 16 19.875 C 16.445313 19.875 16.449219 19.933594 16.761719 20.1875 C 17.070313 20.4375 17.726563 20.9375 18.621094 20.9375 C 19.34375 20.9375 19.925781 20.640625 20.5 20.265625 C 21.070313 19.890625 21.617188 19.402344 22.113281 18.863281 C 23.113281 17.785156 24 16.625 24 15.230469 C 24 14.625 23.730469 14.265625 23.449219 13.925781 C 23.167969 13.589844 22.816406 13.285156 22.40625 13.011719 C 21.589844 12.457031 20.542969 12.007813 19.386719 12.007813 C 18.394531 12.007813 17.652344 12.394531 17.164063 12.667969 C 16.675781 12.9375 16.445313 13.074219 16 13.074219 C 15.554688 13.074219 15.324219 12.9375 14.835938 12.667969 C 14.347656 12.394531 13.605469 12.007813 12.613281 12.007813 Z M 12.613281 14.007813 C 13.140625 14.007813 13.394531 14.152344 13.867188 14.417969 C 14.339844 14.679688 15.046875 15.074219 16 15.074219 C 16.953125 15.074219 17.660156 14.679688 18.132813 14.417969 C 18.605469 14.152344 18.859375 14.007813 19.386719 14.007813 C 19.976563 14.007813 20.738281 14.296875 21.289063 14.667969 C 21.566406 14.855469 21.789063 15.058594 21.910156 15.207031 C 21.953125 15.257813 21.960938 15.285156 21.972656 15.3125 C 21.910156 15.621094 21.40625 16.6875 20.648438 17.503906 C 20.242188 17.945313 19.792969 18.335938 19.398438 18.59375 C 19.003906 18.851563 18.660156 18.9375 18.621094 18.9375 C 18.320313 18.9375 18.367188 18.910156 18.015625 18.628906 C 17.664063 18.347656 16.953125 17.875 16 17.875 C 15.046875 17.875 14.335938 18.347656 13.984375 18.628906 C 13.632813 18.910156 13.679688 18.9375 13.378906 18.9375 C 13.339844 18.941406 12.996094 18.851563 12.601563 18.59375 C 12.207031 18.335938 11.757813 17.945313 11.351563 17.503906 C 10.59375 16.6875 10.089844 15.621094 10.027344 15.3125 C 10.039063 15.285156 10.046875 15.257813 10.089844 15.207031 C 10.210938 15.058594 10.433594 14.855469 10.710938 14.667969 C 11.261719 14.296875 12.023438 14.007813 12.613281 14.007813 Z M 13 15 C 12.449219 15 12 15.449219 12 16 C 12 16.550781 12.449219 17 13 17 C 13.550781 17 14 16.550781 14 16 C 14 15.449219 13.550781 15 13 15 Z M 19 15 C 18.449219 15 18 15.449219 18 16 C 18 16.550781 18.449219 17 19 17 C 19.550781 17 20 16.550781 20 16 C 20 15.449219 19.550781 15 19 15 Z "></path>
</g>
</svg>
