<?xml version="1.0" encoding="UTF-8"?>
<svg xmlns="http://www.w3.org/2000/svg" xmlns:xlink="http://www.w3.org/1999/xlink" viewBox="0 0 32 32" version="1.1">
<g>
<path d="M 16 2 C 11.667969 2 9.042969 3.976563 7.65625 5.9375 C 6.269531 7.898438 6 9.875 6 9.875 L 6 11 L 4 11 L 4 16 L 6 16 L 6 19 L 9 19 L 9 22.25 L 9.125 22.5 L 13.125 29.5 L 13.40625 30 L 18.59375 30 L 18.875 29.5 L 22.875 22.5 L 23 22.25 L 23 19 L 26 19 L 26 16 L 28 16 L 28 11 L 26 11 L 26 9.875 C 26 9.875 25.730469 7.898438 24.34375 5.9375 C 22.957031 3.976563 20.332031 2 16 2 Z M 16 4 C 19.753906 4 21.628906 5.523438 22.71875 7.0625 C 23.222656 7.769531 23.527344 8.445313 23.71875 9 L 8.28125 9 C 8.472656 8.445313 8.777344 7.769531 9.28125 7.0625 C 10.371094 5.523438 12.246094 4 16 4 Z M 8 11 L 24 11 L 24 12.34375 C 22.933594 12.78125 20.199219 13.742188 17 13.9375 L 17 13 L 15 13 L 15 13.9375 C 11.800781 13.742188 9.066406 12.78125 8 12.34375 Z M 8 14.46875 C 9.519531 15.023438 12.097656 15.78125 15 15.9375 L 15 19 L 17 19 L 17 15.9375 C 19.902344 15.78125 22.480469 15.023438 24 14.46875 L 24 17 L 21 17 L 21 21.71875 L 20.34375 22.90625 L 18.71875 21.28125 L 18.40625 21 L 13.59375 21 L 13.28125 21.28125 L 11.65625 22.90625 L 11 21.71875 L 11 17 L 8 17 Z M 14.4375 23 L 17.5625 23 L 19.28125 24.71875 L 17.40625 28 L 14.59375 28 L 12.71875 24.71875 Z "></path>
</g>
</svg>
