<?xml version="1.0" encoding="UTF-8"?>
<svg xmlns="http://www.w3.org/2000/svg" xmlns:xlink="http://www.w3.org/1999/xlink" viewBox="0 0 32 32" version="1.1">
<g>
<path d="M 15.09375 0.90625 L 14.53125 1.90625 L 14.21875 2.4375 L 13.4375 2.1875 L 12.875 2 L 12.4375 2.40625 C 11.421875 3.332031 11.089844 4.023438 10.84375 4.46875 C 10.632813 4.449219 10.566406 4.460938 10.1875 4.40625 L 9.375 4.28125 L 9.09375 5.03125 C 8.9375 5.449219 8.78125 5.90625 8.625 6.34375 L 7.84375 6.34375 L 7.5625 6.8125 C 7.5625 6.8125 6.960938 7.804688 6.625 9.0625 C 6.4375 9.765625 6.464844 10.394531 6.46875 11 L 6 10.78125 L 6.09375 12.5 C 6.09375 12.5 6.171875 14.167969 6.96875 15.71875 C 7.160156 16.230469 7.433594 16.691406 7.6875 17.125 C 8.023438 17.691406 8.183594 17.867188 8.375 18.125 L 7.71875 19.71875 L 7.46875 20.3125 L 7.9375 20.8125 L 8.71875 21.5625 L 9.0625 21.90625 L 9.4375 21.875 C 9.445313 21.957031 9.421875 22.019531 9.46875 22.15625 C 9.421875 22.019531 9.832031 23.832031 9.84375 24 L 9.84375 24.03125 C 9.886719 24.46875 10.074219 24.703125 10.21875 24.9375 C 10.367188 25.179688 10.539063 25.402344 10.71875 25.625 C 11.078125 26.074219 11.46875 26.515625 11.65625 26.75 C 12.167969 27.378906 12.65625 27.78125 12.65625 27.78125 L 12.9375 28 L 19.6875 28 L 19.96875 27.5 C 19.96875 27.5 21.679688 24.5625 22.25 23.3125 C 22.554688 22.644531 22.527344 22.460938 22.625 21.96875 L 23.15625 22.1875 L 23.625 21.5625 L 24.53125 20.34375 L 25 19.6875 L 24.46875 19.09375 L 24.03125 18.59375 L 25.21875 16.6875 L 25.34375 16.5 L 25.375 16.28125 L 25.71875 13.71875 L 25.6875 13.71875 C 25.816406 13.136719 26.09375 11.796875 26.09375 10.21875 C 26.09375 7.871094 24.6875 6.3125 24.6875 6.3125 L 24.1875 5.75 L 23.8125 5.9375 C 23.453125 5.339844 22.925781 4.582031 22.09375 3.84375 L 21.125 2.96875 L 20.6875 3.8125 C 19.691406 2.773438 18.65625 1.96875 18.65625 1.96875 L 18.15625 1.59375 L 17.625 1.90625 L 16.875 2.28125 L 16 1.625 Z M 19.5 28 L 16.8125 29.375 C 16.8125 29.375 16.484375 29 16.125 29 C 15.800781 29 15.523438 29.40625 15.46875 29.46875 C 15.234375 29.46875 13.253906 28.035156 12.125 28.125 C 11.929688 29.214844 12.144531 30.574219 12.71875 31 C 13.167969 31 15.5625 29.84375 15.5625 29.84375 C 15.5625 29.84375 15.808594 30.21875 16.3125 30.21875 C 16.816406 30.21875 16.875 29.902344 17 29.75 C 18.9375 30.855469 19.875 31 19.875 31 C 19.875 31 20.0625 30.441406 20.0625 29.53125 C 20.0625 28.621094 19.5 28 19.5 28 Z M 15.6875 3.90625 L 16.125 4.25 L 16.65625 4.65625 L 17.21875 4.34375 L 17.90625 3.96875 C 18.347656 4.3125 19.519531 5.199219 20.0625 6.0625 L 21 7.5625 L 21.59375 6.4375 C 21.882813 6.894531 22.46875 7.625 22.46875 7.625 L 22.84375 8.59375 L 23.59375 8.25 C 23.84375 8.695313 24.09375 9.332031 24.09375 10.21875 C 24.09375 10.273438 24.09375 10.285156 24.09375 10.34375 C 24 10.171875 23.996094 10.007813 23.875 9.84375 L 23.03125 8.71875 L 22.3125 9.84375 L 21.71875 9 L 20.8125 7.71875 L 20.09375 8.96875 C 19.699219 8.414063 19.597656 8.078125 18.9375 7.53125 L 18.03125 6.8125 L 17.4375 7.78125 C 17.378906 7.878906 17.398438 7.875 17.34375 7.96875 L 16.59375 7.375 L 15.96875 6.90625 L 15.34375 7.40625 L 13.1875 9.21875 L 12.875 8.96875 L 12.09375 8.40625 L 11.5 9.1875 L 10.46875 10.59375 L 9.90625 9.8125 L 9.0625 10.78125 C 9.0625 10.78125 8.742188 11.25 8.53125 11.53125 C 8.46875 10.96875 8.335938 10.445313 8.5625 9.59375 C 8.742188 8.914063 8.945313 8.589844 9.09375 8.3125 L 10.0625 8.3125 L 10.28125 7.65625 C 10.28125 7.65625 10.527344 7 10.71875 6.46875 C 10.863281 6.480469 11.21875 6.53125 11.21875 6.53125 L 11.875 6.59375 L 12.1875 5.96875 C 12.1875 5.96875 12.800781 5.0625 13.4375 4.3125 L 14.34375 4.625 L 15.125 4.90625 L 15.53125 4.1875 Z M 16 9.46875 L 17.0625 10.28125 L 18.09375 11.0625 L 18.5 10.125 C 18.859375 10.609375 19.375 11.25 19.375 11.25 L 20.28125 12.6875 L 21 11.4375 L 21.46875 12.09375 L 22.21875 13.1875 L 22.8125 12.4375 C 22.816406 12.460938 22.839844 12.476563 22.84375 12.5 C 22.964844 13.03125 23 13.4375 23 13.4375 L 23.03125 13.8125 L 23.625 14.40625 L 23.4375 15.75 L 22.125 17.84375 L 22 18.0625 L 21.96875 18.3125 L 21.9375 18.78125 L 21.90625 19.21875 L 22.1875 19.53125 L 22.375 19.75 L 22.3125 19.71875 L 21.09375 19.25 L 20.96875 20.5625 C 20.96875 20.5625 20.941406 20.6875 20.9375 20.71875 L 20.875 20.6875 L 20.59375 21.78125 L 20.375 21.84375 L 19.9375 21.15625 L 19.78125 22.65625 L 19.40625 22.75 L 19 21.78125 L 18.875 23 L 17.8125 23.0625 L 17.59375 21.78125 L 17.25 21.84375 L 17.1875 22.6875 L 15.71875 22.65625 L 15.6875 21.875 L 15.46875 21.9375 L 15.1875 23.59375 L 14.03125 23.46875 L 14.03125 22.15625 L 13.84375 22.1875 L 13.5625 23.125 L 12.53125 22.78125 L 12.75 21.71875 L 12.1875 22.46875 L 11.8125 22.28125 L 11.84375 21.78125 L 11.5 21.96875 L 11.46875 21.21875 L 11.375 21.25 C 11.382813 21.050781 11.40625 20.875 11.40625 20.875 L 11.5 19.71875 L 10.34375 19.78125 L 9.84375 19.84375 L 10.4375 18.40625 L 10.65625 17.875 L 10.28125 17.40625 C 10.28125 17.40625 9.863281 16.847656 9.4375 16.125 C 9.300781 15.894531 9.171875 15.652344 9.0625 15.40625 C 9.152344 14.589844 9.492188 13.800781 9.84375 13.1875 L 10.40625 14 L 11.25 12.90625 L 12.5 11.1875 L 12.65625 11.28125 L 13.28125 11.75 L 13.875 11.25 Z M 10.21875 15 C 9.96875 15.335938 10 16.28125 10 16.28125 C 10 16.28125 10.261719 16.644531 10.40625 16.90625 C 10.550781 17.167969 11.5625 18.1875 11.5625 18.1875 C 11.5625 18.1875 10.824219 19.121094 11.0625 19.65625 C 12.140625 19.308594 12.808594 18.953125 13.40625 18.59375 C 13.363281 18.761719 13.058594 20 13.53125 20 C 13.796875 20 13.90625 19.886719 13.90625 19.6875 C 13.90625 19.488281 13.5625 19.3125 13.5625 19.3125 C 13.625 18.730469 13.851563 18.46875 14 18.25 C 14.058594 18.210938 14.128906 18.160156 14.1875 18.125 C 14.941406 17.636719 15 16.835938 15 16.5 C 15 16.164063 14.75 15.53125 14.75 15.53125 C 14.75 15.53125 14.320313 16.6875 13.78125 16.6875 C 13.242188 16.6875 12.039063 15.96875 11.5 15.96875 C 10.960938 15.96875 10.46875 16.25 10.46875 16.25 C 10.433594 16.136719 10.363281 15.636719 10.21875 15 Z M 22.71875 15 C 22.71875 15 22.433594 16.195313 22.125 16.46875 C 21.933594 16.503906 21.40625 16.0625 21.40625 16.0625 C 21.40625 16.0625 18.464844 16.804688 18.15625 16.90625 C 17.847656 17.007813 17 16.53125 17 16.53125 C 17.039063 16.90625 17.425781 17.757813 17.84375 18.03125 C 18.421875 18.40625 19.421875 18.648438 20 18.75 C 20.578125 18.851563 21.03125 19 21.03125 19 C 21.03125 19 21.273438 18.234375 21.3125 18.0625 C 21.351563 17.890625 22.113281 17.429688 22.34375 17.15625 C 22.574219 16.882813 22.980469 16.203125 23 16 C 23.039063 15.589844 22.71875 15 22.71875 15 Z M 14.9375 18.53125 C 14.9375 18.53125 14.953125 19.609375 15.0625 19.9375 C 15.171875 20.265625 15.921875 21.421875 16.03125 21.53125 C 16.140625 21.640625 16.644531 20.46875 16.71875 20.03125 C 16.792969 19.59375 16.9375 18.625 16.9375 18.625 L 16 20 C 16 20 15.160156 18.785156 14.9375 18.53125 Z M 11.78125 23.34375 L 11.84375 23.34375 L 11.9375 23.90625 C 11.929688 23.898438 11.910156 23.882813 11.90625 23.875 C 11.867188 23.8125 11.851563 23.738281 11.84375 23.71875 C 11.832031 23.597656 11.800781 23.46875 11.78125 23.34375 Z M 11.96875 23.96875 L 12.28125 24.15625 L 12.3125 24.4375 C 12.296875 24.417969 12.296875 24.394531 12.28125 24.375 C 12.15625 24.21875 12.050781 24.085938 11.96875 23.96875 Z M 12.65625 24.03125 L 13.34375 24.3125 L 13.5625 25.625 L 13.78125 25.59375 L 13.875 24.53125 L 14.40625 24.65625 L 14.46875 25.75 L 14.84375 25.71875 L 14.9375 24.84375 L 15.96875 24.9375 L 16.40625 25.96875 L 16.59375 25.9375 L 16.8125 24.8125 L 17.78125 24.84375 L 17.84375 25.875 L 18.03125 25.84375 L 18.40625 24.6875 L 19.03125 24.59375 L 19.09375 25 C 18.882813 25.375 18.636719 25.820313 18.53125 26 L 13.71875 26 C 13.597656 25.890625 13.492188 25.804688 13.21875 25.46875 L 13.1875 25.4375 C 12.988281 25.195313 12.738281 24.90625 12.5 24.625 Z M 19.59375 24.0625 C 19.5 24.234375 19.46875 24.332031 19.375 24.5 L 19.40625 24.09375 Z "></path>
</g>
</svg>
