<?xml version="1.0" encoding="UTF-8"?>
<svg xmlns="http://www.w3.org/2000/svg" xmlns:xlink="http://www.w3.org/1999/xlink" viewBox="0 0 32 32" version="1.1">
<g>
<path d="M 5 5 C 3.355469 5 2 6.355469 2 8 C 2 9.644531 3.355469 11 5 11 C 5.863281 11 6.636719 10.621094 7.1875 10.03125 C 7.59375 10.789063 8 11.820313 8 13 C 8 14.242188 7.601563 14.679688 7.0625 16 C 6.574219 17.195313 6.117188 18.929688 6.03125 22 L 5 22 L 5 27 L 27 27 L 27 22 L 25.96875 22 C 25.785156 19.933594 25.039063 18.425781 24.34375 17.3125 C 23.941406 16.667969 23.558594 16.148438 23.3125 15.75 C 23.066406 15.351563 23 15.097656 23 15 C 23 14.804688 23.527344 13.796875 24.21875 13.0625 C 24.339844 12.933594 24.445313 12.863281 24.5625 12.75 C 25.109375 13.507813 26.003906 14 27 14 C 28.644531 14 30 12.644531 30 11 C 30 9.355469 28.644531 8 27 8 C 25.699219 8 24.597656 8.859375 24.1875 10.03125 C 20.488281 10.261719 18.023438 12.011719 16.5 14.09375 C 15.863281 12.132813 14.636719 10.558594 13.21875 9.4375 C 11.457031 8.042969 9.472656 7.261719 7.8125 7.0625 C 7.410156 5.878906 6.3125 5 5 5 Z M 5 7 C 5.5625 7 6 7.4375 6 8 C 6 8.5625 5.5625 9 5 9 C 4.4375 9 4 8.5625 4 8 C 4 7.4375 4.4375 7 5 7 Z M 9.15625 9.46875 C 10.078125 9.800781 11.074219 10.292969 11.96875 11 C 13.671875 12.351563 15 14.300781 15 17 C 14.023438 19.636719 14 22 14 22 L 8.03125 22 C 8.117188 19.207031 8.527344 17.757813 8.9375 16.75 C 9.398438 15.617188 10 14.695313 10 13 C 10 11.601563 9.613281 10.410156 9.15625 9.46875 Z M 27 10 C 27.5625 10 28 10.4375 28 11 C 28 11.5625 27.5625 12 27 12 C 26.4375 12 26 11.5625 26 11 C 26 10.4375 26.4375 10 27 10 Z M 22.21875 12.34375 C 21.582031 13.066406 21 13.894531 21 15 C 21 15.714844 21.308594 16.269531 21.625 16.78125 C 21.941406 17.292969 22.308594 17.785156 22.65625 18.34375 C 23.238281 19.28125 23.773438 20.398438 23.9375 22 L 16 22 C 16 22 16.023438 19.636719 17.03125 17.21875 L 17.0625 17.21875 L 17.0625 17.15625 C 17.097656 17.074219 17.117188 16.988281 17.15625 16.90625 C 18.042969 14.957031 19.472656 13.089844 22.21875 12.34375 Z M 7 24 L 25 24 L 25 25 L 7 25 Z "></path>
</g>
</svg>
