<?xml version="1.0" encoding="UTF-8"?>
<svg xmlns="http://www.w3.org/2000/svg" xmlns:xlink="http://www.w3.org/1999/xlink" viewBox="0 0 32 32" version="1.1">
<g>
<path d="M 0 7 L 0 25 L 32 25 L 32 7 Z M 2 9 L 30 9 L 30 23 L 2 23 Z M 10 12 L 10 17.5 C 10 17.714844 9.714844 18 9.5 18 C 9.285156 18 9 17.714844 9 17.5 L 9 17 L 7 17 L 7 17.5 C 7 18.882813 8.117188 20 9.5 20 C 10.882813 20 12 18.882813 12 17.5 L 12 12 Z M 15.5 12 C 14.117188 12 13 13.117188 13 14.5 C 13 15.882813 14.117188 17 15.5 17 C 15.714844 17 16 17.285156 16 17.5 C 16 17.800781 15.882813 18 15.5 18 C 15.132813 18 15.074219 17.921875 15.0625 17.90625 C 15.050781 17.890625 15 17.828125 15 17.59375 L 13 17.59375 C 13 18.160156 13.164063 18.796875 13.625 19.28125 C 14.085938 19.765625 14.769531 20 15.5 20 C 16.917969 20 18 18.800781 18 17.5 C 18 16.117188 16.882813 15 15.5 15 C 15.285156 15 15 14.714844 15 14.5 C 15 14.285156 15.285156 14 15.5 14 C 15.765625 14 15.847656 14.0625 15.90625 14.125 C 15.964844 14.1875 16 14.292969 16 14.40625 L 18 14.40625 C 18 13.816406 17.785156 13.214844 17.34375 12.75 C 16.902344 12.285156 16.234375 12 15.5 12 Z M 19 12 L 19 20 L 21 20 L 21 18 C 22.644531 18 24 16.644531 24 15 C 24 13.355469 22.644531 12 21 12 Z M 21 14 C 21.554688 14 22 14.445313 22 15 C 22 15.554688 21.554688 16 21 16 Z "></path>
</g>
</svg>
