<?xml version="1.0" encoding="UTF-8"?>
<svg xmlns="http://www.w3.org/2000/svg" xmlns:xlink="http://www.w3.org/1999/xlink" viewBox="0 0 32 32" version="1.1">
<g>
<path d="M 16 3.003906 C 15.9375 3 13.34375 2.914063 10.566406 4.492188 C 7.789063 6.066406 4.867188 9.390625 4.046875 15.691406 C 3.90625 15.949219 3.015625 17.609375 3 19.992188 L 3 20.007813 L 2.992188 21 L 3.09375 21 C 3.339844 22.757813 4.296875 26.464844 8 29 C 7.980469 28.386719 7.984375 27.890625 7.984375 27.464844 C 8.3125 27.671875 8.671875 27.878906 9.039063 28.089844 C 9.15625 28.160156 9.269531 28.234375 9.382813 28.296875 C 9.429688 28.324219 9.46875 28.347656 9.519531 28.375 L 9.523438 28.371094 C 10.398438 28.839844 11 29 11 29 L 11 26.75 C 11.027344 26.773438 9.761719 26.238281 8.453125 25.355469 C 8.234375 25.199219 8.003906 25.042969 7.8125 24.890625 C 7.722656 24.820313 7.632813 24.75 7.546875 24.675781 C 7.347656 24.511719 7.175781 24.347656 7.003906 24.183594 C 6.882813 24.0625 6.753906 23.949219 6.640625 23.824219 C 6.613281 23.789063 6.597656 23.777344 6.566406 23.746094 C 6.367188 23.53125 6.171875 23.3125 6.023438 23.105469 C 5.246094 22.03125 5.011719 21.066406 5 20 C 5.019531 17.996094 5.867188 16.5 5.867188 16.5 L 5.96875 16.324219 L 5.992188 16.121094 C 6.710938 10.183594 9.242188 7.542969 11.558594 6.226563 C 13.871094 4.914063 15.960938 5 15.960938 5 L 16.039063 5 C 16.039063 5 18.128906 4.914063 20.441406 6.226563 C 22.757813 7.542969 25.289063 10.183594 26.007813 16.121094 L 26.03125 16.332031 L 26.144531 16.515625 C 26.144531 16.515625 27.015625 17.972656 27 19.992188 C 26.992188 21.0625 26.757813 22.027344 25.980469 23.105469 C 25.828125 23.3125 25.632813 23.53125 25.433594 23.746094 C 25.402344 23.777344 25.386719 23.789063 25.359375 23.824219 C 25.246094 23.949219 25.117188 24.0625 24.996094 24.183594 C 24.824219 24.347656 24.652344 24.511719 24.453125 24.675781 C 24.367188 24.75 24.277344 24.820313 24.1875 24.890625 C 23.996094 25.042969 23.765625 25.199219 23.546875 25.355469 C 22.238281 26.238281 20.972656 26.773438 21 26.75 L 21 29 C 21 29 21.601563 28.839844 22.476563 28.371094 L 22.480469 28.375 C 22.53125 28.347656 22.570313 28.324219 22.621094 28.296875 C 22.726563 28.234375 22.84375 28.164063 22.957031 28.09375 C 23.324219 27.882813 23.6875 27.671875 24.015625 27.464844 C 24.015625 27.890625 24.019531 28.386719 24 29 C 27.355469 26.703125 28.441406 23.46875 28.804688 21.566406 C 28.921875 21.042969 28.996094 20.519531 29 20.007813 C 29 20.003906 29 20.003906 29 20 C 29.015625 17.605469 28.113281 15.96875 27.953125 15.691406 C 27.132813 9.390625 24.210938 6.066406 21.433594 4.492188 C 18.65625 2.914063 16.0625 3 16 3.003906 Z M 13.5 8 L 13.484375 8.03125 L 13.433594 8.050781 C 13.433594 8.050781 12.007813 8.53125 10.664063 9.890625 C 9.320313 11.246094 8 13.542969 8 17 C 8 18.914063 8.226563 20.484375 8.476563 21.621094 C 8.601563 22.1875 8.730469 22.648438 8.835938 22.988281 C 8.945313 23.328125 9.003906 23.496094 9.105469 23.699219 C 9.222656 23.929688 9.277344 23.949219 9.328125 23.996094 C 9.375 24.039063 9.410156 24.074219 9.445313 24.105469 C 9.523438 24.164063 9.601563 24.222656 9.691406 24.292969 C 9.875 24.425781 10.109375 24.585938 10.386719 24.769531 C 10.941406 25.144531 11.664063 25.609375 12.390625 26.066406 C 13.117188 26.523438 13.851563 26.972656 14.4375 27.3125 C 14.726563 27.484375 14.980469 27.625 15.1875 27.734375 C 15.292969 27.789063 15.382813 27.835938 15.480469 27.875 C 15.574219 27.917969 15.542969 28 16 28 C 16.402344 28 16.382813 27.9375 16.472656 27.902344 C 16.566406 27.863281 16.660156 27.828125 16.761719 27.78125 C 16.96875 27.683594 17.222656 27.5625 17.515625 27.414063 C 18.097656 27.117188 18.828125 26.726563 19.558594 26.328125 C 20.285156 25.933594 21.003906 25.53125 21.558594 25.210938 C 21.835938 25.050781 22.070313 24.910156 22.25 24.796875 C 22.34375 24.738281 22.417969 24.691406 22.496094 24.636719 C 22.53125 24.609375 22.566406 24.585938 22.613281 24.546875 C 22.664063 24.503906 22.710938 24.507813 22.859375 24.265625 C 22.988281 24.050781 22.976563 24.015625 23.019531 23.890625 C 23.066406 23.765625 23.117188 23.613281 23.171875 23.425781 C 23.277344 23.050781 23.40625 22.546875 23.527344 21.929688 C 23.773438 20.691406 24 18.996094 24 17 L 24 16.460938 L 23.550781 16.167969 C 19.5625 13.535156 16.886719 8.535156 16.886719 8.535156 L 16.605469 8 Z M 13.292969 10.34375 C 13.707031 11.5 14.691406 13.382813 17 15 L 17 12.394531 C 17.578125 13.191406 18.304688 14.089844 19.195313 15.011719 C 18.59375 15.058594 18 15.925781 18 17 C 18 18.105469 18.628906 19 19.25 19 C 19.820313 19 21.644531 18.660156 21.9375 17.75 C 21.890625 19.234375 21.753906 20.59375 21.566406 21.542969 C 21.453125 22.105469 21.339844 22.554688 21.25 22.867188 C 21.21875 22.972656 21.195313 23.039063 21.171875 23.109375 C 21.027344 23.203125 20.8125 23.332031 20.554688 23.480469 C 20.023438 23.789063 19.316406 24.183594 18.597656 24.574219 C 17.882813 24.964844 17.160156 25.347656 16.609375 25.628906 C 16.367188 25.75 16.183594 25.839844 16.027344 25.914063 C 15.871094 25.832031 15.683594 25.726563 15.441406 25.585938 C 14.890625 25.261719 14.167969 24.820313 13.453125 24.371094 C 12.738281 23.921875 12.03125 23.464844 11.5 23.109375 C 11.234375 22.933594 11.015625 22.78125 10.871094 22.671875 C 10.855469 22.664063 10.855469 22.660156 10.84375 22.652344 C 10.816406 22.585938 10.800781 22.558594 10.746094 22.378906 C 10.652344 22.097656 10.539063 21.699219 10.429688 21.191406 C 10.234375 20.296875 10.054688 19.054688 10.015625 17.566406 C 10.105469 18.617188 12.140625 19 12.75 19 C 13.371094 19 14 18.105469 14 17 C 14 15.894531 13.371094 15 12.75 15 C 11.953125 15 10.082031 16.34375 10.011719 17.4375 C 10.007813 17.289063 10 17.152344 10 17 C 10 14.039063 11.054688 12.335938 12.085938 11.296875 C 12.542969 10.835938 12.960938 10.539063 13.292969 10.34375 Z M 12.5 16 C 12.777344 16 13 16.222656 13 16.5 C 13 16.777344 12.777344 17 12.5 17 C 12.222656 17 12 16.777344 12 16.5 C 12 16.222656 12.222656 16 12.5 16 Z M 19.5 16 C 19.777344 16 20 16.222656 20 16.5 C 20 16.777344 19.777344 17 19.5 17 C 19.222656 17 19 16.777344 19 16.5 C 19 16.222656 19.222656 16 19.5 16 Z M 16 22 C 15.449219 22 15 22.222656 15 22.5 C 15 22.777344 15.449219 23 16 23 C 16.550781 23 17 22.777344 17 22.5 C 17 22.222656 16.550781 22 16 22 Z "></path>
</g>
</svg>
