<?xml version="1.0" encoding="UTF-8"?>
<svg xmlns="http://www.w3.org/2000/svg" xmlns:xlink="http://www.w3.org/1999/xlink" viewBox="0 0 32 32" version="1.1">
<g>
<path d="M 24 2 L 24 4 C 24.027344 4 24.355469 4.070313 24.65625 4.1875 C 24.957031 4.304688 25.246094 4.46875 25.34375 4.5625 C 25.742188 4.949219 26.15625 5.5625 26.15625 5.5625 L 26.375 5.84375 L 26.71875 5.96875 C 26.71875 5.96875 28.5625 6.566406 29.65625 9 L 28.90625 9 L 28.6875 9.125 C 28.6875 9.125 28.511719 9.21875 28.28125 9.25 C 28.050781 9.28125 27.933594 9.292969 27.78125 9.125 L 27.625 8.9375 L 27.40625 8.84375 C 27.0625 8.714844 26.621094 8.695313 26.25 8.8125 C 25.878906 8.929688 25.605469 9.144531 25.40625 9.375 C 25.011719 9.835938 24.84375 10.328125 24.625 10.84375 C 24.1875 11.871094 23.726563 12.984375 23.03125 13.5625 C 22.300781 14.171875 22.0625 15.019531 22 15.71875 C 21.9375 16.417969 22 17.070313 22 17.40625 C 22 17.914063 21.855469 18.265625 21.5625 18.53125 C 21.269531 18.796875 20.773438 19 20 19 L 20 21 C 21.15625 21 22.183594 20.660156 22.90625 20 C 23.628906 19.339844 24 18.390625 24 17.40625 C 24 16.878906 23.960938 16.34375 24 15.90625 C 24.039063 15.46875 24.140625 15.238281 24.3125 15.09375 C 25.550781 14.0625 26.027344 12.597656 26.4375 11.625 C 26.617188 11.203125 26.78125 10.949219 26.875 10.8125 C 27.457031 11.15625 28.097656 11.285156 28.5625 11.21875 C 28.953125 11.164063 29.058594 11.082031 29.25 11 L 32 11 L 32 9.4375 L 31.96875 9.28125 C 30.894531 5.652344 28.359375 4.535156 27.71875 4.28125 C 27.625 4.144531 27.289063 3.683594 26.75 3.15625 C 26.34375 2.757813 25.878906 2.5 25.40625 2.3125 C 24.933594 2.125 24.496094 2 24 2 Z M 15 4 C 12.261719 4 10.335938 5.484375 9.1875 7.46875 C 8.039063 9.453125 7.503906 11.910156 7.0625 14.3125 C 6.621094 16.714844 6.257813 19.0625 5.6875 20.6875 C 5.402344 21.5 5.070313 22.140625 4.71875 22.5 C 4.367188 22.859375 4.050781 23 3.5 23 C 2.75 23 2.335938 22.808594 2.09375 22.65625 C 1.851563 22.503906 1.84375 22.46875 1.84375 22.46875 L 0.15625 23.53125 C 0.15625 23.53125 0.488281 23.996094 1.03125 24.34375 C 1.574219 24.691406 2.390625 25 3.5 25 C 4.546875 25 5.496094 24.554688 6.15625 23.875 C 6.816406 23.195313 7.253906 22.34375 7.59375 21.375 C 8.273438 19.4375 8.597656 17.035156 9.03125 14.6875 C 9.464844 12.339844 9.992188 10.046875 10.90625 8.46875 C 11.820313 6.890625 12.921875 6 15 6 C 16.527344 6 17.636719 6.808594 18.65625 7.75 C 19.164063 8.21875 19.644531 8.699219 20.125 9.125 C 20.605469 9.550781 21.117188 10 21.9375 10 C 23.183594 10 24.089844 9.226563 24.59375 8.53125 C 25.097656 7.835938 25.460938 7.171875 25.5625 7.0625 L 24.09375 5.65625 C 23.519531 6.261719 23.324219 6.898438 23 7.34375 C 22.675781 7.789063 22.457031 8 21.9375 8 C 22.035156 8 21.804688 7.949219 21.4375 7.625 C 21.070313 7.300781 20.605469 6.78125 20.03125 6.25 C 18.882813 5.191406 17.238281 4 15 4 Z M 17 13.875 L 17 15.375 C 17 18.726563 16.140625 19.734375 15 20.4375 C 14.714844 20.613281 14.378906 20.769531 14.03125 20.90625 C 14.492188 19.527344 14.425781 18.214844 14 17.15625 C 13.628906 16.234375 13.039063 15.511719 12.4375 14.96875 C 11.835938 14.425781 11.269531 14.070313 10.59375 13.9375 L 10.21875 15.875 C 10.253906 15.882813 10.691406 16.074219 11.09375 16.4375 C 11.496094 16.800781 11.917969 17.316406 12.15625 17.90625 C 12.628906 19.074219 12.65625 20.578125 10.65625 22.59375 C 10.644531 22.605469 10.636719 22.613281 10.625 22.625 C 9.332031 23.78125 9.335938 25.449219 9.125 26.5625 C 9.019531 27.125 8.859375 27.535156 8.71875 27.71875 C 8.578125 27.902344 8.519531 28 8 28 L 8 30 C 8.976563 30 9.832031 29.570313 10.3125 28.9375 C 10.792969 28.304688 10.96875 27.59375 11.09375 26.9375 C 11.34375 25.621094 11.492188 24.507813 11.96875 24.09375 C 11.988281 24.074219 12.007813 24.050781 12.03125 24.03125 C 12.878906 23.351563 14.445313 23.101563 16.03125 22.125 C 17.445313 21.253906 18.585938 19.5625 18.875 16.6875 C 19.472656 16.84375 20.191406 17 21 17 L 21 15 C 19.734375 15 18.40625 14.46875 18.40625 14.46875 Z "></path>
</g>
</svg>
