<?xml version="1.0" encoding="UTF-8"?>
<svg xmlns="http://www.w3.org/2000/svg" xmlns:xlink="http://www.w3.org/1999/xlink" viewBox="0 0 32 32" version="1.1">
<g>
<path d="M 3.71875 2.28125 L 2.28125 3.71875 L 28.28125 29.71875 L 29.71875 28.28125 L 24.5625 23.125 C 25.179688 22.078125 25.601563 20.898438 25.8125 19.65625 C 27.019531 19.269531 28 18.328125 28 17 C 28 15.644531 26.992188 14.679688 25.75 14.3125 C 25.058594 10.371094 22.121094 7.199219 18.28125 6.28125 C 18.40625 6.125 18.554688 6 19 6 L 19 4 C 17.917969 4 17.050781 4.546875 16.59375 5.1875 C 16.566406 5.226563 16.558594 5.273438 16.53125 5.3125 C 15.796875 4.015625 14.222656 3 12 3 L 12 5 C 13.511719 5 14.304688 5.523438 14.6875 6.09375 C 12.8125 6.339844 11.085938 7.109375 9.6875 8.25 Z M 16 8 C 20.128906 8 23.496094 11.121094 23.9375 15.125 L 24.0625 16.0625 L 25 16 C 25.566406 16 26 16.433594 26 17 C 26 17.566406 25.566406 18 25 18 L 24.03125 18 L 23.9375 18.875 C 23.828125 19.875 23.5625 20.828125 23.125 21.6875 L 20.25 18.8125 C 20.703125 18.554688 21 18.058594 21 17.5 C 21 16.671875 20.328125 16 19.5 16 C 18.941406 16 18.445313 16.296875 18.1875 16.75 L 11.125 9.6875 C 12.476563 8.632813 14.148438 8 16 8 Z M 7.125 11.375 C 6.679688 12.230469 6.371094 13.167969 6.1875 14.125 C 4.929688 14.484375 4 15.628906 4 17 C 4 18.351563 4.910156 19.503906 6.1875 19.875 C 7.070313 24.5625 11.152344 28 16 28 C 18.140625 28 20.164063 27.3125 21.84375 26.09375 L 20.40625 24.65625 C 19.117188 25.511719 17.601563 26 16 26 C 11.914063 26 8.507813 22.929688 8.0625 18.875 L 7.9375 17.96875 L 6.9375 18 C 6.410156 17.972656 6 17.535156 6 17 C 6 16.464844 6.410156 16.027344 6.9375 16 L 7.9375 16.03125 L 8.0625 15.125 C 8.148438 14.347656 8.324219 13.582031 8.625 12.875 Z M 11.875 16.125 C 11.351563 16.359375 11 16.890625 11 17.5 C 11 18.328125 11.671875 19 12.5 19 C 13.109375 19 13.640625 18.648438 13.875 18.125 Z "></path>
</g>
</svg>
