<?xml version="1.0" encoding="UTF-8"?>
<svg xmlns="http://www.w3.org/2000/svg" xmlns:xlink="http://www.w3.org/1999/xlink" viewBox="0 0 32 32" version="1.1">
<g>
<path d="M 15 18 L 17 18 L 17 26 C 17 27.652344 15.652344 29 14 29 C 12.347656 29 11 27.652344 11 26 L 11 25 L 13 25 L 13 26 C 13 26.550781 13.449219 27 14 27 C 14.550781 27 15 26.550781 15 26 Z M 28 18 L 26 18 C 26 17.710938 25.125 17 23.5 17 C 21.875 17 21 17.710938 21 18 L 19 18 C 19 17.75 17.9375 17 16 17 C 14.0625 17 13 17.75 13 18 L 11 18 C 11 17.710938 10.125 17 8.5 17 C 6.875 17 6 17.710938 6 18 L 4 18 C 4 13.0625 8.640625 7.582031 15 7.050781 L 15 5 L 17 5 L 17 7.050781 C 23.359375 7.582031 28 13.0625 28 18 Z M 25.410156 15.273438 C 24.050781 11.980469 20.417969 9 16 9 C 11.582031 9 7.949219 11.980469 6.589844 15.273438 C 7.164063 15.101563 7.804688 15 8.5 15 C 9.984375 15 11.242188 15.441406 12.054688 16.136719 C 12.953125 15.441406 14.351563 15 16 15 C 17.648438 15 19.046875 15.441406 19.945313 16.136719 C 20.757813 15.441406 22.015625 15 23.5 15 C 24.195313 15 24.835938 15.101563 25.410156 15.273438 Z M 7.5 8 C 8.328125 8 9 7.328125 9 6.5 C 9 5.671875 7.5 3 7.5 3 C 7.5 3 6 5.671875 6 6.5 C 6 7.328125 6.671875 8 7.5 8 Z M 26.5 9 C 27.328125 9 28 8.328125 28 7.5 C 28 6.671875 26.5 4 26.5 4 C 26.5 4 25 6.671875 25 7.5 C 25 8.328125 25.671875 9 26.5 9 Z "></path>
</g>
</svg>
