<?xml version="1.0" encoding="UTF-8"?>
<svg xmlns="http://www.w3.org/2000/svg" xmlns:xlink="http://www.w3.org/1999/xlink" viewBox="0 0 32 32" version="1.1">
<g>
<path d="M 6 3 C 4.300781 3 3 4.300781 3 6 L 3 26 C 3 27.699219 4.300781 29 6 29 L 26 29 C 27.699219 29 29 27.699219 29 26 L 29 6 C 29 4.300781 27.699219 3 26 3 Z M 6 5 L 26 5 C 26.601563 5 27 5.398438 27 6 L 27 26 C 27 26.601563 26.601563 27 26 27 L 6 27 C 5.398438 27 5 26.601563 5 26 L 5 6 C 5 5.398438 5.398438 5 6 5 Z M 16 9 C 16 9 14.199219 11 9 11 C 9 11 8.699219 19.398438 16 24 C 23.300781 19.398438 23 11 23 11 C 17.800781 11 16 9 16 9 Z M 16 11.5 C 17 12.101563 18.601563 12.699219 20.902344 12.902344 C 20.601563 15.101563 19.5 18.898438 16 21.597656 C 12.5 18.898438 11.5 15.101563 11.097656 12.902344 C 13.398438 12.601563 15 12 16 11.5 Z "></path>
</g>
</svg>
