<?xml version="1.0" encoding="UTF-8"?>
<svg xmlns="http://www.w3.org/2000/svg" xmlns:xlink="http://www.w3.org/1999/xlink" viewBox="0 0 32 32" version="1.1">
<g>
<path d="M 16 2 C 15.449219 2 15 2.449219 15 3 C 15 3.550781 15.449219 4 16 4 C 16.550781 4 17 3.550781 17 3 C 17 2.449219 16.550781 2 16 2 Z M 16 4 C 14.109375 4 13.238281 5.808594 13.03125 6.78125 L 12 10.84375 C 11.417969 14.429688 9.738281 16.257813 8.25 17.875 C 8.050781 18.09375 7.847656 18.316406 7.65625 18.53125 C 7.339844 17.148438 7.085938 15.054688 7 12.96875 C 6.976563 10.871094 5.21875 10.039063 4 10 L 3 10 L 3 12 L 3.96875 12 C 4.359375 12.023438 5 12.179688 5 13 L 5 23 C 5 24.429688 5.851563 26.46875 8.09375 26.90625 C 9.71875 28.660156 12.3125 30 16 30 C 20.546875 30 23.429688 27.964844 24.875 25.625 C 28.980469 23.070313 29 18.167969 29 12 L 29 11 L 22.96875 11 L 23 12.03125 C 23.027344 13.882813 22.195313 14.574219 21.5625 14.84375 C 20.878906 13.738281 20.289063 12.417969 19.96875 10.75 L 18.96875 6.8125 C 18.769531 5.84375 17.90625 4 16 4 Z M 16 6 C 16.75 6 17.019531 7.199219 17.03125 7.25 L 17.71875 10 L 14.28125 10 L 14.96875 7.25 L 14.96875 7.1875 C 14.972656 7.175781 15.257813 6 16 6 Z M 13.8125 12 L 18.21875 12 C 19.035156 15.238281 20.75 17.242188 22.15625 18.875 C 23.191406 20.070313 24 21.027344 24 22 C 24 24.421875 21.457031 28 16 28 C 10.542969 28 8 24.421875 8 22 C 8 21.140625 8.617188 20.414063 9.71875 19.21875 C 11.132813 17.683594 13.03125 15.609375 13.8125 12 Z M 24.9375 13 L 27 13 C 26.984375 16.746094 26.859375 19.5 25.96875 21.46875 C 25.773438 20.011719 24.777344 18.894531 23.65625 17.59375 C 23.351563 17.242188 23.058594 16.851563 22.75 16.46875 C 23.75 15.90625 24.699219 14.851563 24.9375 13 Z "></path>
</g>
</svg>
