<?xml version="1.0" encoding="UTF-8"?>
<svg xmlns="http://www.w3.org/2000/svg" xmlns:xlink="http://www.w3.org/1999/xlink" viewBox="0 0 32 32" version="1.1">
<g>
<path d="M 12 3 C 11.636719 3 11.273438 3.074219 10.9375 3.21875 L 6.8125 5 L 4 5 L 4 7 L 7.21875 7 L 7.40625 6.90625 L 11.71875 5.0625 C 11.894531 4.988281 12.105469 4.988281 12.28125 5.0625 L 16.375 6.8125 L 18.96875 10.0625 C 19.277344 10.449219 19.191406 11.007813 18.78125 11.28125 C 18.429688 11.515625 17.992188 11.449219 17.71875 11.125 L 15.9375 9.03125 L 15.78125 8.8125 L 15.5625 8.71875 L 12.03125 7.375 L 11.40625 7.125 L 10.9375 7.625 L 10.625 7.96875 L 10.625 8 C 10.1875 8.445313 9.878906 9.019531 10.0625 9.75 C 10.15625 10.121094 10.40625 10.503906 10.75 10.71875 C 11.09375 10.933594 11.507813 11 11.90625 11 L 14 11 C 14.566406 11 15 11.433594 15 12 C 15 12.566406 14.566406 13 14 13 L 9 13 C 8.074219 13 7.644531 12.679688 7.34375 12.34375 C 7.042969 12.007813 6.96875 11.71875 6.96875 11.71875 L 6.75 11 L 4 11 L 4 13 L 5.46875 13 C 5.597656 13.257813 5.5625 13.339844 5.84375 13.65625 C 6.441406 14.320313 7.519531 15 9 15 L 12.03125 15 C 12.195313 16.101563 12.886719 17.054688 13.90625 17.5625 L 14 17.625 L 14 20.5 L 12.6875 20.28125 C 11.335938 20.054688 9.996094 20.828125 9.5625 22.125 C 9.109375 23.480469 9.78125 24.984375 11.09375 25.5625 L 11.09375 25.59375 C 12.386719 26.164063 14.3125 26.988281 16.03125 27.6875 C 16.890625 28.035156 17.683594 28.359375 18.34375 28.59375 C 18.675781 28.710938 18.960938 28.804688 19.21875 28.875 C 19.476563 28.945313 19.675781 29 20 29 C 20.578125 29 21.011719 28.800781 21.5 28.59375 C 21.988281 28.386719 22.503906 28.15625 23 27.90625 C 23.496094 27.65625 23.976563 27.417969 24.375 27.25 C 24.773438 27.082031 25.113281 27 25.125 27 C 26.007813 27 27.21875 27.4375 27.21875 27.4375 L 27.96875 25.59375 C 27.96875 25.59375 26.597656 25 25.125 25 C 24.546875 25 24.089844 25.167969 23.59375 25.375 C 23.097656 25.582031 22.589844 25.84375 22.09375 26.09375 C 21.597656 26.34375 21.113281 26.613281 20.71875 26.78125 C 20.324219 26.949219 19.980469 27 20 27 C 20.117188 27 19.96875 26.988281 19.78125 26.9375 C 19.59375 26.886719 19.304688 26.796875 19 26.6875 C 18.390625 26.472656 17.625 26.1875 16.78125 25.84375 C 15.097656 25.160156 13.191406 24.316406 11.90625 23.75 C 11.523438 23.582031 11.335938 23.183594 11.46875 22.78125 C 11.59375 22.402344 11.953125 22.183594 12.34375 22.25 L 16.03125 22.875 C 15.996094 23.304688 16.054688 23.75 16.25 24.15625 C 16.734375 25.164063 17.832031 25.722656 18.9375 25.53125 L 19 25.53125 L 19.0625 25.5 L 22.375 24.5 L 21.78125 22.5625 L 18.59375 23.5625 C 18.367188 23.601563 18.164063 23.492188 18.0625 23.28125 C 17.933594 23.015625 18.046875 22.71875 18.3125 22.59375 L 19.0625 22.25 C 19.335938 22.144531 19.53125 22.046875 19.84375 21.9375 C 21.207031 21.453125 22.882813 21 23.8125 21 C 25.867188 21 29.03125 22.21875 29.03125 22.21875 L 29.78125 20.375 C 29.78125 20.375 26.582031 19 23.8125 19 C 22.332031 19 20.632813 19.546875 19.1875 20.0625 C 19.109375 20.089844 19.074219 20.097656 19 20.125 L 19 17.625 L 19.09375 17.5625 C 20.269531 16.976563 21 15.78125 21 14.46875 C 21 13.75 20.78125 13.082031 20.40625 12.53125 C 21.332031 11.53125 21.417969 9.917969 20.53125 8.8125 L 17.78125 5.375 L 17.625 5.1875 L 17.40625 5.09375 L 13.0625 3.21875 C 12.726563 3.074219 12.363281 3 12 3 Z M 17.96875 13.28125 C 18.136719 13.320313 18.296875 13.339844 18.46875 13.34375 C 18.796875 13.617188 19 14.007813 19 14.46875 C 19 15.03125 18.6875 15.53125 18.1875 15.78125 L 17 16.375 L 17 20.9375 C 16.988281 20.941406 16.949219 20.964844 16.9375 20.96875 L 16 20.8125 L 16 16.375 L 14.8125 15.78125 C 14.476563 15.613281 14.222656 15.335938 14.09375 15 C 14.597656 14.984375 15.054688 14.820313 15.4375 14.5625 C 15.707031 14.832031 16.085938 15 16.5 15 C 17.328125 15 18 14.328125 18 13.5 C 18 13.425781 17.980469 13.351563 17.96875 13.28125 Z "></path>
</g>
</svg>
