<?xml version="1.0" encoding="UTF-8"?>
<svg xmlns="http://www.w3.org/2000/svg" xmlns:xlink="http://www.w3.org/1999/xlink" viewBox="0 0 32 32" version="1.1">
<g>
<path d="M 15 5 C 14.488281 5 14.0625 5.304688 13.84375 5.59375 C 13.625 5.882813 13.5 6.167969 13.40625 6.46875 C 13.296875 6.824219 13.207031 7.203125 13.15625 7.59375 C 13.074219 7.511719 13.007813 7.421875 12.90625 7.34375 C 12.703125 7.183594 12.425781 7 12 7 C 11.554688 7 11.285156 7.207031 11.09375 7.375 C 10.902344 7.542969 10.753906 7.71875 10.625 7.90625 C 10.371094 8.28125 10.140625 8.726563 9.9375 9.1875 C 9.597656 9.953125 9.371094 10.6875 9.1875 11.3125 C 6.246094 12.777344 5.003906 13.734375 4.65625 14.03125 C 4.433594 14.039063 4 14.035156 3.3125 14.15625 C 2.886719 14.230469 2.464844 14.351563 2.03125 14.5625 C 1.816406 14.667969 1.582031 14.800781 1.375 15.03125 C 1.167969 15.261719 1 15.617188 1 16 C 1 17.226563 1.617188 18.214844 2.375 18.84375 C 3.019531 19.378906 3.75 19.632813 4.4375 19.8125 C 5.355469 20.738281 6.625 21.214844 7.71875 21.53125 C 8.410156 21.730469 8.601563 21.742188 9 21.8125 L 9 22 C 9 23.117188 9.730469 23.9375 10.75 24.625 C 11.769531 25.3125 13.183594 25.84375 14.90625 26 L 22.53125 26 L 22.84375 25.5625 C 22.761719 25.6875 22.8125 25.570313 22.875 25.5 C 22.9375 25.429688 23.039063 25.339844 23.15625 25.21875 C 23.390625 24.972656 23.710938 24.648438 24.09375 24.25 C 24.859375 23.457031 25.847656 22.417969 26.84375 21.3125 C 27.839844 20.207031 28.828125 19.054688 29.59375 18 C 29.976563 17.472656 30.316406 16.945313 30.5625 16.46875 C 30.808594 15.992188 31 15.566406 31 15 C 31 14.28125 30.621094 14.082031 30.375 13.875 C 30.128906 13.667969 29.875 13.488281 29.5625 13.3125 C 28.941406 12.960938 28.171875 12.613281 27.40625 12.28125 C 26.105469 11.71875 25.175781 11.386719 24.8125 11.25 C 24.730469 10.90625 24.636719 10.464844 24.34375 9.65625 C 24.148438 9.117188 23.933594 8.578125 23.625 8.09375 C 23.316406 7.609375 22.878906 7 22 7 C 21.347656 7 21.003906 7.292969 20.75 7.59375 C 20.679688 7.195313 20.601563 6.804688 20.46875 6.4375 C 20.359375 6.136719 20.238281 5.84375 20 5.5625 C 19.761719 5.28125 19.339844 5 18.84375 5 C 17.851563 5 17.148438 5.539063 16.65625 6.0625 C 16.539063 5.898438 16.441406 5.71875 16.28125 5.5625 C 16 5.289063 15.59375 5 15 5 Z M 18.59375 7.15625 C 18.710938 7.492188 18.8125 8.050781 18.875 8.625 C 18.988281 9.648438 19 10.566406 19 10.8125 C 19 10.84375 19 10.875 19 10.90625 C 19 10.914063 19 11 19 11 C 19 11.011719 19 11.019531 19 11.03125 C 19 11.050781 19 11.074219 19 11.09375 C 19.015625 11.273438 19.082031 11.445313 19.1875 11.59375 C 19.195313 11.613281 19.207031 11.636719 19.21875 11.65625 C 19.230469 11.65625 19.238281 11.65625 19.25 11.65625 C 19.257813 11.675781 19.269531 11.699219 19.28125 11.71875 C 19.292969 11.730469 19.300781 11.738281 19.3125 11.75 C 18.859375 11.863281 18.433594 12 17 12 C 15.722656 12 15.140625 11.878906 14.65625 11.78125 C 14.667969 11.761719 14.679688 11.738281 14.6875 11.71875 C 14.71875 11.699219 14.75 11.679688 14.78125 11.65625 C 14.804688 11.617188 14.824219 11.574219 14.84375 11.53125 C 14.855469 11.511719 14.867188 11.488281 14.875 11.46875 C 14.886719 11.457031 14.894531 11.449219 14.90625 11.4375 C 14.929688 11.386719 14.953125 11.335938 14.96875 11.28125 C 14.96875 11.269531 14.96875 11.261719 14.96875 11.25 C 14.96875 11.230469 14.96875 11.207031 14.96875 11.1875 C 14.980469 11.175781 14.988281 11.167969 15 11.15625 C 15 11.136719 15 11.113281 15 11.09375 C 15 11.082031 15 11.074219 15 11.0625 C 15 11.042969 15 11.019531 15 11 C 15 10.988281 15 10.980469 15 10.96875 C 15 10.9375 15 10.90625 15 10.875 C 14.996094 10.738281 14.964844 9.695313 15.0625 8.59375 C 15.101563 8.164063 15.179688 7.832031 15.25 7.5 C 15.464844 7.867188 15.625 8.25 15.625 8.25 C 15.769531 8.625 16.125 8.882813 16.527344 8.894531 C 16.929688 8.90625 17.300781 8.679688 17.46875 8.3125 C 17.46875 8.3125 17.632813 7.957031 17.9375 7.59375 C 18.160156 7.328125 18.382813 7.242188 18.59375 7.15625 Z M 22 9.3125 C 22.152344 9.582031 22.324219 9.941406 22.46875 10.34375 C 22.800781 11.265625 23.03125 12.21875 23.03125 12.21875 L 23.15625 12.75 L 23.65625 12.9375 C 23.65625 12.9375 23.90625 13.027344 24 13.0625 L 24 15 L 20 15 L 9.0625 13.59375 C 9.5 13.363281 9.886719 13.171875 10.4375 12.90625 L 10.84375 12.6875 L 10.96875 12.25 C 11.09375 11.769531 11.429688 10.765625 11.78125 9.96875 C 11.882813 9.742188 11.964844 9.613281 12.0625 9.4375 C 12.175781 9.613281 12.292969 9.757813 12.40625 9.96875 C 12.53125 10.203125 12.621094 10.414063 12.71875 10.625 C 12.390625 10.871094 12 11.234375 12 12 C 12 12.351563 12.15625 12.777344 12.4375 13.0625 C 12.71875 13.347656 13.078125 13.53125 13.46875 13.65625 C 14.246094 13.902344 15.292969 14 17 14 C 19.039063 14 20.125 13.804688 20.875 13.46875 C 21.25 13.300781 21.550781 13.082031 21.75 12.78125 C 21.949219 12.480469 22 12.101563 22 12 C 22 11.585938 21.886719 11.457031 21.8125 11.34375 C 21.738281 11.230469 21.664063 11.171875 21.59375 11.09375 C 21.476563 10.964844 21.34375 10.859375 21.21875 10.75 C 21.328125 10.511719 21.445313 10.246094 21.59375 9.96875 C 21.734375 9.707031 21.867188 9.507813 22 9.3125 Z M 26 13.875 C 26.210938 13.960938 26.378906 14.03125 26.59375 14.125 C 27.328125 14.441406 28.058594 14.777344 28.5625 15.0625 C 28.722656 15.15625 28.804688 15.210938 28.90625 15.28125 C 28.875 15.382813 28.871094 15.390625 28.78125 15.5625 C 28.605469 15.902344 28.3125 16.335938 27.96875 16.8125 C 27.277344 17.765625 26.34375 18.894531 25.375 19.96875 C 24.40625 21.042969 23.417969 22.054688 22.65625 22.84375 C 22.277344 23.238281 21.960938 23.589844 21.71875 23.84375 C 21.65625 23.90625 21.613281 23.945313 21.5625 24 L 20.3125 24 C 20.421875 23.808594 20.550781 23.621094 20.71875 23.40625 C 21.214844 22.773438 21.953125 22.0625 22.71875 21.28125 C 24.25 19.722656 26 17.765625 26 15 Z M 8.9375 14.75 L 10.90625 15 C 10.71875 15.085938 10.59375 15.289063 10.59375 15.5625 C 10.59375 15.820313 10.703125 16.0625 10.875 16.15625 C 10.726563 16.164063 10.574219 16.15625 10.375 16.125 C 8.84375 15.875 8.9375 14.75 8.9375 14.75 Z M 7.03125 14.78125 C 7.03125 14.832031 7.03125 14.859375 7.03125 14.90625 C 7.03125 15.476563 6.941406 17.375 9.1875 17.625 C 11.855469 17.921875 13 15.5 13 15.5 L 13.59375 15.6875 C 13.59375 15.6875 13.96875 19 17 19 C 20 19 20 16 20 16 L 23.875 16 C 23.53125 17.453125 22.484375 18.679688 21.28125 19.90625 C 20.546875 20.65625 19.785156 21.382813 19.15625 22.1875 C 18.730469 22.730469 18.355469 23.332031 18.15625 24 L 15.09375 24 C 13.683594 23.871094 12.574219 23.441406 11.875 22.96875 C 11.363281 22.625 11.179688 22.320313 11.09375 22.15625 C 15.457031 22.496094 18.46875 20.875 18.46875 20.875 L 17.53125 19.125 C 17.53125 19.125 14.566406 20.699219 10.15625 20 L 10.125 20 C 10.125 20 9.292969 19.886719 8.28125 19.59375 C 7.429688 19.347656 6.503906 18.945313 6 18.5625 L 6 15.46875 C 6.199219 15.3125 6.554688 15.082031 7.03125 14.78125 Z M 11.28125 15.03125 L 11.84375 15.09375 C 11.84375 15.09375 11.925781 15.714844 11.40625 16 C 11.492188 15.886719 11.5625 15.734375 11.5625 15.5625 C 11.5625 15.324219 11.433594 15.136719 11.28125 15.03125 Z M 15.5625 15.71875 L 17.8125 16 C 17.628906 16.117188 17.5 16.324219 17.5 16.59375 C 17.5 16.929688 17.707031 17.214844 17.96875 17.28125 C 17.792969 17.289063 17.585938 17.289063 17.34375 17.25 C 15.601563 16.964844 15.5625 15.71875 15.5625 15.71875 Z M 18.4375 16.0625 L 18.875 16.125 C 18.875 16.125 19.113281 16.917969 18.40625 17.1875 C 18.5625 17.0625 18.65625 16.839844 18.65625 16.59375 C 18.65625 16.367188 18.578125 16.191406 18.4375 16.0625 Z M 4 16.09375 L 4 17.5625 C 3.875 17.488281 3.761719 17.398438 3.65625 17.3125 C 3.324219 17.039063 3.203125 16.6875 3.125 16.28125 C 3.28125 16.226563 3.453125 16.167969 3.6875 16.125 C 3.800781 16.105469 3.890625 16.109375 4 16.09375 Z "></path>
</g>
</svg>
