<?xml version="1.0" encoding="UTF-8"?>
<svg xmlns="http://www.w3.org/2000/svg" xmlns:xlink="http://www.w3.org/1999/xlink" viewBox="0 0 32 32" version="1.1">
<g>
<path d="M 8 6 L 8 9 L 11 9 L 11 6 Z M 14 6 L 14 9 L 17 9 L 17 6 Z M 20 6 L 20 9 L 23 9 L 23 6 Z M 8 12 L 8 15 L 11 15 L 11 12 Z M 14 12 L 14 15 L 17 15 L 17 12 Z M 20 12 L 20 15 L 23 15 L 23 12 Z M 8 18 L 8 21 L 11 21 L 11 18 Z M 14 18 L 14 21 L 17 21 L 17 18 Z M 20 18 L 20 21 L 23 21 L 23 18 Z M 14 24 L 14 27 L 17 27 L 17 24 Z "></path>
</g>
</svg>
