<?xml version="1.0" encoding="UTF-8"?>
<svg xmlns="http://www.w3.org/2000/svg" xmlns:xlink="http://www.w3.org/1999/xlink" viewBox="0 0 32 32" version="1.1">
<g>
<path d="M 11.5 4 C 9.578125 4 8 5.578125 8 7.5 C 8 9.421875 9.578125 11 11.5 11 C 13.421875 11 15 9.421875 15 7.5 C 15 5.578125 13.421875 4 11.5 4 Z M 11.5 6 C 12.339844 6 13 6.660156 13 7.5 C 13 8.339844 12.339844 9 11.5 9 C 10.660156 9 10 8.339844 10 7.5 C 10 6.660156 10.660156 6 11.5 6 Z M 16.71875 6.625 L 16.1875 10.34375 L 13.90625 11.21875 L 13.8125 11.21875 L 10.90625 11.625 C 10.574219 11.667969 10.273438 11.832031 10.03125 12.0625 L 7.625 14.34375 C 7.15625 14.792969 7 15.496094 7.25 16.09375 L 8.84375 19.9375 L 10.6875 19.15625 L 9.21875 15.59375 L 10.46875 14.375 C 11.378906 16.816406 13.25 18.460938 14 19.03125 L 15.15625 23.0625 C 14.304688 26.125 13.957031 27.410156 13.8125 28 L 15.875 28 C 16.171875 26.886719 16.757813 24.746094 17.15625 23.3125 L 17.21875 23.0625 L 16.09375 19.0625 L 18.59375 17.09375 L 27.03125 14.1875 L 26.375 12.28125 L 18.15625 15.15625 C 18.015625 15.09375 17.824219 15.042969 17.28125 14.625 C 16.757813 14.21875 16.132813 13.601563 15.53125 12.71875 L 17.125 12.125 C 17.660156 11.921875 18.042969 11.4375 18.125 10.875 L 18.71875 6.9375 Z M 13.53125 13.3125 C 14.359375 14.667969 15.289063 15.621094 16.0625 16.21875 C 16.140625 16.28125 16.207031 16.320313 16.28125 16.375 L 15.0625 17.3125 C 14.414063 16.800781 12.910156 15.46875 12.25 13.46875 Z "></path>
</g>
</svg>
