<?xml version="1.0" encoding="UTF-8"?>
<svg xmlns="http://www.w3.org/2000/svg" xmlns:xlink="http://www.w3.org/1999/xlink" viewBox="0 0 32 32" version="1.1">
<g>
<path d="M 18.84375 4 C 17.667969 4 16.488281 4.382813 15.5625 5.15625 C 14.636719 5.929688 14 7.140625 14 8.5625 C 14 9.625 14.226563 10.457031 14.46875 11.09375 C 13.082031 11.355469 10 12.433594 10 16.96875 C 10 19.628906 11 22.011719 11 28 L 13 28 C 13 20.703125 13.230469 19.292969 14.78125 19.0625 C 14.421875 19.609375 14 20.433594 14 21.71875 C 14 23.664063 14.972656 25.101563 16.09375 25.90625 C 17.214844 26.710938 18.417969 27 19.3125 27 C 21.472656 27 23.476563 25.847656 24.84375 23.84375 C 26.210938 21.839844 27 19.019531 27 15.46875 C 27 7.257813 22.390625 4 18.84375 4 Z M 18.84375 6 C 21.21875 6 25 7.96875 25 15.46875 C 25 18.71875 24.257813 21.152344 23.1875 22.71875 C 22.117188 24.285156 20.785156 25 19.3125 25 C 18.945313 25 17.964844 24.792969 17.25 24.28125 C 16.535156 23.769531 16 23.042969 16 21.71875 C 16 20.492188 16.75 19.6875 16.75 19.6875 L 17.21875 19.15625 L 16.875 18.53125 C 16.875 18.53125 16.03125 16.800781 16.03125 15.4375 C 16.03125 13.578125 16.78125 12.59375 16.78125 12.59375 L 17.21875 12.0625 L 16.84375 11.46875 C 16.84375 11.46875 16 10.019531 16 8.5625 C 16 7.71875 16.347656 7.128906 16.875 6.6875 C 17.402344 6.246094 18.128906 6 18.84375 6 Z "></path>
</g>
</svg>
