<?xml version="1.0" encoding="UTF-8"?>
<svg xmlns="http://www.w3.org/2000/svg" xmlns:xlink="http://www.w3.org/1999/xlink" viewBox="0 0 32 32" version="1.1">
<g>
<path d="M 5 3 L 5 29 L 7 29 L 7 27 L 21 27 L 21 29 L 23 29 L 23 27 L 26 27 L 26 29 L 28 29 L 28 4 L 26 4 L 26 7 L 23 7 L 23 4 L 21 4 L 21 7 L 7 7 L 7 3 Z M 7 9 L 11 9 L 11 11 L 7 11 Z M 13 9 L 21 9 L 21 11 L 13 11 Z M 23 9 L 26 9 L 26 11 L 23 11 Z M 7 14 L 21 14 L 21 20 L 7 20 Z M 23 14 L 26 14 L 26 16 L 23 16 Z M 23 18 L 26 18 L 26 20 L 23 20 Z M 7 22 L 11 22 L 11 24 L 7 24 Z M 13 22 L 21 22 L 21 24 L 13 24 Z M 23 22 L 26 22 L 26 24 L 23 24 Z "></path>
</g>
</svg>
