<?xml version="1.0" encoding="UTF-8"?>
<svg xmlns="http://www.w3.org/2000/svg" xmlns:xlink="http://www.w3.org/1999/xlink" viewBox="0 0 32 32" version="1.1">
<g>
<path d="M 12.84375 3 L 12.6875 3.0625 L 9.6875 4.0625 L 9.3125 4.15625 L 9.125 4.5 C 6.625 8.816406 4.3125 16.15625 4.3125 16.15625 L 4 17.0625 L 4.90625 17.40625 L 8.96875 18.9375 L 9 18.84375 L 9 29 L 23 29 L 23 18.84375 L 23.03125 18.9375 L 27.125 17.34375 L 28 17 L 27.6875 16.09375 C 27.6875 16.09375 25.375 8.8125 22.875 4.5 L 22.6875 4.15625 L 22.3125 4.0625 L 19.3125 3.0625 L 19.15625 3 Z M 14.34375 5 L 17.65625 5 L 16 10.5 Z M 12.3125 5.25 L 15 14.1875 L 15 18 L 11 18 L 11 14 L 9 14 L 9 16.8125 L 6.5 15.875 C 6.914063 14.628906 8.757813 9.328125 10.75 5.78125 Z M 19.6875 5.25 L 21.25 5.78125 C 23.242188 9.324219 25.082031 14.597656 25.5 15.84375 L 23 16.8125 L 23 14 L 21 14 L 21 18 L 17 18 L 17 14.1875 Z M 11 20 L 15 20 L 15 27 L 11 27 Z M 17 20 L 21 20 L 21 27 L 17 27 Z "></path>
</g>
</svg>
