<?xml version="1.0" encoding="UTF-8"?>
<svg xmlns="http://www.w3.org/2000/svg" xmlns:xlink="http://www.w3.org/1999/xlink" viewBox="0 0 32 32" version="1.1">
<g>
<path d="M 16 3 C 14.90625 3 14 3.90625 14 5 C 14 5.0625 13.996094 5.125 14 5.1875 C 9.503906 6.007813 6.28125 9.28125 6.28125 9.28125 L 6.03125 9.53125 C 5.480469 9.210938 4.800781 9 4 9 L 3 9 L 3 11 L 4 11 C 5.136719 11 5.457031 11.421875 5.71875 11.9375 C 5.976563 12.441406 6 12.972656 6 13 C 6 13 6 13.03125 6 13.03125 L 6 18 C 6 19.648438 6.542969 20.996094 7.5 21.84375 C 7.628906 21.960938 7.765625 22.058594 7.90625 22.15625 L 5.625 29 L 26.375 29 L 25.9375 27.6875 L 24.0625 22.03125 C 24.214844 21.921875 24.363281 21.816406 24.5 21.6875 C 25.429688 20.8125 26 19.515625 26 18 L 26 12.96875 C 26 12.96875 26.007813 12.4375 26.25 11.9375 C 26.492188 11.4375 26.785156 11 28 11 L 29 11 L 29 9 L 28 9 C 27.1875 9 26.496094 9.1875 25.9375 9.5 L 25.71875 9.28125 C 25.71875 9.28125 22.496094 6.007813 18 5.1875 C 18.003906 5.125 18 5.0625 18 5 C 18 3.90625 17.09375 3 16 3 Z M 16 7 C 18.410156 7 20.488281 8 22.03125 9 L 9.96875 9 C 11.511719 8 13.589844 7 16 7 Z M 7.46875 11 L 24.46875 11 C 24.457031 11.019531 24.445313 11.042969 24.4375 11.0625 C 23.957031 12.046875 24 12.972656 24 13 C 24 13 24 13.03125 24 13.03125 L 24 18 C 24 19.046875 23.675781 19.734375 23.15625 20.21875 C 22.636719 20.703125 21.882813 21 21 21 L 11 21 C 10.070313 21 9.335938 20.777344 8.84375 20.34375 C 8.351563 19.910156 8 19.234375 8 18 L 8 12.96875 C 8 12.96875 8 12.046875 7.5 11.0625 C 7.488281 11.042969 7.480469 11.019531 7.46875 11 Z M 16 13 C 14.808594 13 13.824219 13.609375 13.09375 14.4375 C 12.726563 14.277344 12.425781 14 12 14 C 10.355469 14 9 15.355469 9 17 L 11 17 C 11 16.433594 11.433594 16 12 16 C 12.273438 16 12.503906 16.105469 12.6875 16.28125 L 13.625 17.1875 L 14.25 16.03125 C 14.59375 15.40625 15.242188 15 16 15 C 16.757813 15 17.40625 15.40625 17.75 16.03125 L 18.375 17.1875 L 19.3125 16.28125 C 19.496094 16.105469 19.726563 16 20 16 C 20.566406 16 21 16.433594 21 17 L 23 17 C 23 15.355469 21.644531 14 20 14 C 19.574219 14 19.273438 14.277344 18.90625 14.4375 C 18.175781 13.609375 17.191406 13 16 13 Z M 9.71875 23 L 22.28125 23 L 23.625 27 L 8.375 27 Z M 16 24 C 15.449219 24 15 24.449219 15 25 C 15 25.550781 15.449219 26 16 26 C 16.550781 26 17 25.550781 17 25 C 17 24.449219 16.550781 24 16 24 Z "></path>
</g>
</svg>
