<?xml version="1.0" encoding="UTF-8"?>
<svg xmlns="http://www.w3.org/2000/svg" xmlns:xlink="http://www.w3.org/1999/xlink" viewBox="0 0 32 32" version="1.1">
<g>
<path d="M 14.375 3.5 L 12.0625 7.09375 L 11.53125 7.9375 L 12.34375 8.46875 L 12.90625 8.84375 L 10.46875 12 L 13 12 L 14.59375 9.9375 L 16.03125 10.875 L 13.25 13 L 9 13 C 7.355469 13 6 14.355469 6 16 L 6 20.09375 C 6 20.582031 6.171875 21.070313 6.5 21.4375 L 9.8125 25.125 C 9.515625 25.355469 9.214844 25.585938 8.9375 25.8125 C 7.132813 25.359375 5.625 24.21875 5.625 24.21875 L 4.375 25.78125 C 4.375 25.78125 7.015625 28 10.3125 28 C 12.636719 28 14.972656 27.472656 17.03125 26.96875 C 19.089844 26.464844 20.921875 26 22 26 C 24.167969 26 26.375 27.71875 26.375 27.71875 L 27.625 26.1875 C 27.625 26.1875 26.699219 25.382813 25.28125 24.75 C 25.550781 24.386719 25.816406 24.023438 26.125 23.5625 C 27.007813 22.242188 28 20.789063 28 19.21875 C 28 18.714844 27.863281 18.050781 27.375 17.59375 C 26.886719 17.136719 26.230469 17 25.5 17 C 23.308594 17 20.496094 18.308594 17.46875 20.03125 L 14.78125 18 C 14.242188 17.597656 13.542969 17.488281 12.90625 17.71875 L 12 18.03125 L 12 16 L 10 16 L 10 20.875 L 11.34375 20.40625 L 13.5625 19.59375 L 15.625 21.15625 C 14.175781 22.046875 12.765625 22.980469 11.4375 23.9375 L 8 20.09375 L 8 16 C 8 15.4375 8.433594 15 9 15 L 13.9375 15 L 14.1875 14.78125 L 17.8125 12 L 18.71875 12.59375 L 19.53125 13.125 L 20.09375 12.3125 L 23.375 7.40625 L 21.71875 6.28125 L 18.96875 10.375 L 14.28125 7.34375 L 16.0625 4.59375 Z M 7.5 5 C 5.578125 5 4 6.578125 4 8.5 C 4 10.421875 5.578125 12 7.5 12 C 9.421875 12 11 10.421875 11 8.5 C 11 6.578125 9.421875 5 7.5 5 Z M 7.5 7 C 8.339844 7 9 7.660156 9 8.5 C 9 9.339844 8.339844 10 7.5 10 C 6.660156 10 6 9.339844 6 8.5 C 6 7.660156 6.660156 7 7.5 7 Z M 25.5 19 C 25.957031 19 26.035156 19.097656 26 19.0625 C 26.003906 19.078125 26 19.113281 26 19.21875 C 26 19.667969 25.285156 21.21875 24.46875 22.4375 C 23.984375 23.160156 23.5625 23.71875 23.25 24.125 C 22.851563 24.054688 22.429688 24 22 24 C 20.421875 24 18.589844 24.535156 16.5625 25.03125 C 15.152344 25.375 13.648438 25.671875 12.1875 25.84375 C 14.039063 24.484375 16.148438 23.109375 18.1875 21.9375 C 21.210938 20.199219 24.207031 19 25.5 19 Z "></path>
</g>
</svg>
