<?xml version="1.0" encoding="UTF-8"?>
<svg xmlns="http://www.w3.org/2000/svg" xmlns:xlink="http://www.w3.org/1999/xlink" viewBox="0 0 32 32" version="1.1">
<g>
<path d="M 18.625 4.03125 C 18.25 4.050781 17.847656 4.070313 17.46875 4.125 C 14.445313 4.574219 11.332031 6.167969 8.75 8.75 C 6.167969 11.332031 4.574219 14.445313 4.125 17.46875 C 3.675781 20.492188 4.402344 23.464844 6.46875 25.53125 C 8.535156 27.597656 11.507813 28.324219 14.53125 27.875 C 17.554688 27.425781 20.667969 25.832031 23.25 23.25 C 25.832031 20.667969 27.425781 17.554688 27.875 14.53125 C 28.324219 11.507813 27.597656 8.535156 25.53125 6.46875 C 23.722656 4.660156 21.25 3.894531 18.625 4.03125 Z M 18.71875 6 C 20.878906 5.882813 22.769531 6.519531 24.125 7.875 C 25.675781 9.425781 26.285156 11.675781 25.90625 14.21875 C 25.527344 16.761719 24.144531 19.542969 21.84375 21.84375 C 19.542969 24.144531 16.761719 25.527344 14.21875 25.90625 C 11.675781 26.285156 9.425781 25.675781 7.875 24.125 C 6.324219 22.574219 5.714844 20.324219 6.09375 17.78125 C 6.472656 15.238281 7.855469 12.457031 10.15625 10.15625 C 12.457031 7.855469 15.238281 6.472656 17.78125 6.09375 C 18.097656 6.046875 18.410156 6.015625 18.71875 6 Z M 17 10 C 16.449219 10 16 10.449219 16 11 C 16 11.550781 17 14 17 14 C 17 14 18 11.550781 18 11 C 18 10.449219 17.550781 10 17 10 Z M 21 10 C 20.742188 10 20.476563 10.085938 20.28125 10.28125 C 19.890625 10.671875 19 13 19 13 C 19 13 21.328125 12.109375 21.71875 11.71875 C 22.109375 11.328125 22.109375 10.671875 21.71875 10.28125 C 21.523438 10.085938 21.257813 10 21 10 Z M 13 12 C 12.742188 12 12.476563 12.085938 12.28125 12.28125 C 11.890625 12.671875 11.890625 13.328125 12.28125 13.71875 C 12.671875 14.109375 15 15 15 15 C 15 15 14.109375 12.671875 13.71875 12.28125 C 13.523438 12.085938 13.257813 12 13 12 Z M 21 14 C 20.449219 14 18 15 18 15 C 18 15 20.449219 16 21 16 C 21.550781 16 22 15.550781 22 15 C 22 14.449219 21.550781 14 21 14 Z M 11 16 C 10.449219 16 10 16.449219 10 17 C 10 17.550781 10.449219 18 11 18 C 11.550781 18 14 17 14 17 C 14 17 11.550781 16 11 16 Z M 17 17 C 17 17 17.890625 19.328125 18.28125 19.71875 C 18.671875 20.109375 19.328125 20.109375 19.71875 19.71875 C 20.109375 19.328125 20.109375 18.671875 19.71875 18.28125 C 19.328125 17.890625 17 17 17 17 Z M 15 18 C 15 18 14 20.449219 14 21 C 14 21.550781 14.449219 22 15 22 C 15.550781 22 16 21.550781 16 21 C 16 20.449219 15 18 15 18 Z M 13 19 C 13 19 10.671875 19.890625 10.28125 20.28125 C 9.890625 20.671875 9.890625 21.328125 10.28125 21.71875 C 10.671875 22.109375 11.328125 22.109375 11.71875 21.71875 C 12.109375 21.328125 13 19 13 19 Z "></path>
</g>
</svg>
