<?xml version="1.0" encoding="UTF-8"?>
<svg xmlns="http://www.w3.org/2000/svg" xmlns:xlink="http://www.w3.org/1999/xlink" viewBox="0 0 32 32" version="1.1">
<g>
<path d="M 16 2.46875 L 15.75 2.53125 C 15.75 2.53125 13.890625 3.003906 11.71875 3.46875 C 9.546875 3.933594 6.976563 4.375 6 4.375 L 5 4.375 L 5 17.25 C 5 21.425781 7.78125 24.492188 10.40625 26.46875 C 13.03125 28.445313 15.65625 29.4375 15.65625 29.4375 L 16 29.5625 L 16.34375 29.4375 C 16.34375 29.4375 18.964844 28.46875 21.59375 26.5 C 24.222656 24.53125 27 21.453125 27 17.25 L 27 4.375 L 26 4.375 C 25.019531 4.375 22.453125 3.933594 20.28125 3.46875 C 18.109375 3.003906 16.25 2.53125 16.25 2.53125 Z M 16 4.53125 C 16.210938 4.582031 17.800781 4.960938 19.875 5.40625 C 21.558594 5.765625 23.167969 6.015625 24.5625 6.15625 L 7.03125 17.84375 C 7.015625 17.644531 7 17.457031 7 17.25 L 7 6.21875 C 8.476563 6.097656 10.273438 5.800781 12.125 5.40625 C 14.199219 4.960938 15.789063 4.582031 16 4.53125 Z M 11 8 L 10 9.5 L 11 11 L 12 9.5 Z M 25 8.28125 L 25 11.125 L 8.6875 22 C 8.21875 21.363281 7.820313 20.671875 7.53125 19.9375 Z M 25 13.53125 L 25 17.25 C 25 20.566406 22.777344 23.128906 20.40625 24.90625 C 18.3125 26.472656 16.464844 27.222656 16 27.40625 C 15.539063 27.21875 13.691406 26.453125 11.59375 24.875 C 11.054688 24.46875 10.53125 24.019531 10.03125 23.53125 Z M 20 20 L 19 21.5 L 20 23 L 21 21.5 Z "></path>
</g>
</svg>
