<?xml version="1.0" encoding="UTF-8"?>
<svg xmlns="http://www.w3.org/2000/svg" xmlns:xlink="http://www.w3.org/1999/xlink" viewBox="0 0 32 32" version="1.1">
<g>
<path d="M 13.40625 4 L 12 5.40625 L 13.59375 7 L 16.40625 7 Z M 6 7 C 4.894531 7 4 7.894531 4 9 C 4 10.105469 4.894531 11 6 11 C 6.738281 11 7.371094 10.597656 7.71875 10 L 9 10 L 9 28 L 23 28 L 23 18.96875 L 20.84375 16.8125 C 20.535156 17.519531 19.820313 18 19 18 C 17.898438 18 17 17.101563 17 16 L 15 16 C 15 17.117188 14.117188 18 13 18 C 11.882813 18 11 17.117188 11 16 L 11 14.4375 C 11.589844 14.78125 12.269531 15 13 15 C 14.199219 15 15.265625 14.464844 16 13.625 C 16.734375 14.464844 17.800781 15 19 15 L 15.03125 11 L 15 11 C 15 12.101563 14.101563 13 13 13 C 11.898438 13 11 12.101563 11 11 L 11 10 L 16.59375 10 L 24.0625 17.46875 C 24.015625 17.636719 24 17.816406 24 18 C 24 19.105469 24.894531 20 26 20 C 27.105469 20 28 19.105469 28 18 C 28 16.894531 27.105469 16 26 16 C 25.816406 16 25.636719 16.015625 25.46875 16.0625 L 19.40625 10 L 26 10 L 26 8 L 7.71875 8 C 7.371094 7.402344 6.738281 7 6 7 Z M 16 18.59375 C 16.734375 19.445313 17.792969 20 19 20 C 19.730469 20 20.410156 19.78125 21 19.4375 L 21 21 C 21 22.117188 20.117188 23 19 23 C 17.882813 23 17 22.117188 17 21 L 15 21 C 15 22.117188 14.117188 23 13 23 C 11.882813 23 11 22.117188 11 21 L 11 19.4375 C 11.59375 19.785156 12.265625 20 13 20 C 14.199219 20 15.265625 19.441406 16 18.59375 Z M 16 23.59375 C 16.734375 24.441406 17.800781 25 19 25 C 19.734375 25 20.40625 24.785156 21 24.4375 L 21 26 L 11 26 L 11 24.4375 C 11.59375 24.785156 12.265625 25 13 25 C 14.199219 25 15.265625 24.441406 16 23.59375 Z "></path>
</g>
</svg>
