<?xml version="1.0" encoding="UTF-8"?>
<svg xmlns="http://www.w3.org/2000/svg" xmlns:xlink="http://www.w3.org/1999/xlink" viewBox="0 0 32 32" version="1.1">
<g>
<path d="M 9 4 C 6.25 4 4 6.25 4 9 C 4 10.546875 4.730469 11.925781 5.84375 12.84375 C 5.316406 14.128906 5 15.527344 5 17 C 5 23.0625 9.9375 28 16 28 C 22.0625 28 27 23.0625 27 17 C 27 15.527344 26.683594 14.128906 26.15625 12.84375 C 27.269531 11.925781 28 10.546875 28 9 C 28 6.25 25.75 4 23 4 C 21.214844 4 19.636719 4.957031 18.75 6.375 C 17.878906 6.144531 16.953125 6 16 6 C 15.046875 6 14.121094 6.144531 13.25 6.375 C 12.363281 4.957031 10.785156 4 9 4 Z M 9 6 C 10.667969 6 12 7.332031 12 9 C 12 10.667969 10.667969 12 9 12 C 7.332031 12 6 10.667969 6 9 C 6 7.332031 7.332031 6 9 6 Z M 23 6 C 24.667969 6 26 7.332031 26 9 C 26 10.667969 24.667969 12 23 12 C 21.332031 12 20 10.667969 20 9 C 20 7.332031 21.332031 6 23 6 Z M 9 8 C 8.449219 8 8 8.449219 8 9 C 8 9.550781 8.449219 10 9 10 C 9.550781 10 10 9.550781 10 9 C 10 8.449219 9.550781 8 9 8 Z M 16 8 C 16.71875 8 17.394531 8.089844 18.0625 8.25 C 18.023438 8.496094 18 8.742188 18 9 C 18 11.75 20.25 14 23 14 C 23.492188 14 23.957031 13.914063 24.40625 13.78125 C 24.789063 14.78125 25 15.867188 25 17 C 25 21.984375 20.984375 26 16 26 C 11.015625 26 7 21.984375 7 17 C 7 15.867188 7.210938 14.78125 7.59375 13.78125 C 8.042969 13.914063 8.507813 14 9 14 C 11.75 14 14 11.75 14 9 C 14 8.742188 13.976563 8.496094 13.9375 8.25 C 14.605469 8.089844 15.28125 8 16 8 Z M 23 8 C 22.449219 8 22 8.449219 22 9 C 22 9.550781 22.449219 10 23 10 C 23.550781 10 24 9.550781 24 9 C 24 8.449219 23.550781 8 23 8 Z M 10.8125 18 L 9.09375 19 C 10.476563 21.386719 13.046875 23 16 23 C 18.953125 23 21.523438 21.386719 22.90625 19 L 21.1875 18 C 20.148438 19.792969 18.226563 21 16 21 C 13.773438 21 11.851563 19.792969 10.8125 18 Z "></path>
</g>
</svg>
