<?xml version="1.0" encoding="UTF-8"?>
<svg xmlns="http://www.w3.org/2000/svg" xmlns:xlink="http://www.w3.org/1999/xlink" viewBox="0 0 32 32" version="1.1">
<g>
<path d="M 8 5 L 8 16 L 14 16 C 15.117188 16 16 16.882813 16 18 L 18 18 C 18 16.882813 18.882813 16 20 16 L 26 16 L 26 5 L 20 5 C 18.800781 5 17.734375 5.558594 17 6.40625 C 16.265625 5.558594 15.199219 5 14 5 Z M 10 7 L 14 7 C 15.117188 7 16 7.882813 16 9 L 18 9 C 18 7.882813 18.882813 7 20 7 L 24 7 L 24 14 L 20 14 C 18.800781 14 17.734375 14.558594 17 15.40625 C 16.265625 14.558594 15.199219 14 14 14 L 10 14 Z M 10.5 19 C 9.472656 19.003906 8.6875 19.28125 8.6875 19.28125 L 8.65625 19.28125 L 3.90625 21.09375 L 3 21.4375 L 3.34375 22.375 L 4.65625 26.0625 L 5 27.03125 L 5.9375 26.65625 L 9.9375 25.125 L 16.625 28.8125 L 17.0625 29.0625 L 17.5 28.875 L 29.375 23.96875 L 28.625 22.09375 L 17.1875 26.84375 L 10.46875 23.15625 L 10.0625 22.9375 L 9.65625 23.09375 L 6.1875 24.40625 L 5.5625 22.625 L 9.34375 21.15625 C 9.34375 21.15625 9.375 21.15625 9.375 21.15625 C 9.398438 21.148438 9.84375 21 10.53125 21 C 11.234375 21 12.046875 21.148438 12.75 21.78125 L 12.75 21.8125 C 13.78125 22.707031 14.574219 23.316406 15.65625 23.65625 C 16.738281 23.996094 17.949219 24.039063 20 24.03125 L 20 22.03125 C 17.988281 22.039063 16.9375 21.964844 16.25 21.75 C 15.574219 21.539063 15.0625 21.152344 14.09375 20.3125 C 14.082031 20.300781 14.074219 20.292969 14.0625 20.28125 C 12.910156 19.261719 11.515625 18.996094 10.5 19 Z "></path>
</g>
</svg>
