<?xml version="1.0"?>
<svg xmlns="http://www.w3.org/2000/svg" viewBox="0 0 32 32">
    <path d="M 15.945312 3.0078125 C 15.430364 3.0078125 14.916504 3.2006832 14.529297 3.5878906 L 11.292969 6.8222656 A 1.0001 1.0001 0 0 0 11 7.5292969 L 11 18.814453 A 1.0001 1.0001 0 0 0 12.707031 19.521484 L 22.294922 9.9335938 A 1.0001 1.0001 0 0 0 22.294922 8.5195312 L 17.363281 3.5878906 C 16.976074 3.2006832 16.460262 3.0078125 15.945312 3.0078125 z M 15.943359 5.0019531 C 15.952959 4.9923631 15.939619 4.9923631 15.949219 5.0019531 L 20.173828 9.2265625 L 13 16.400391 L 13 7.9433594 L 15.943359 5.0019531 z M 7.9707031 10.529297 A 1.0001 1.0001 0 0 0 7.2929688 10.822266 L 3.5332031 14.582031 C 2.7587882 15.356446 2.7587882 16.641601 3.5332031 17.416016 L 7.2929688 21.177734 A 1.0001 1.0001 0 0 0 9 20.470703 L 9 11.529297 A 1.0001 1.0001 0 0 0 7.9707031 10.529297 z M 24.400391 11.054688 A 1.0001 1.0001 0 0 0 23.708984 11.347656 L 18.976562 16.080078 A 1.0001 1.0001 0 0 0 18.976562 17.494141 L 22.919922 21.439453 A 1.0001 1.0001 0 0 0 24.335938 21.439453 L 28.357422 17.417969 C 29.131864 16.643527 29.131837 15.356446 28.357422 14.582031 L 25.123047 11.347656 A 1.0001 1.0001 0 0 0 24.400391 11.054688 z M 24.416016 13.46875 L 26.943359 15.998047 C 26.952959 16.007647 26.954919 15.992306 26.943359 16.003906 L 23.628906 19.318359 L 21.097656 16.787109 L 24.416016 13.46875 z M 7 13.943359 L 7 18.056641 L 4.9472656 16.001953 C 4.9376756 15.992353 4.9376756 16.005694 4.9472656 15.996094 L 7 13.943359 z M 16.839844 18.615234 A 1.0001 1.0001 0 0 0 16.148438 18.908203 L 11.292969 23.763672 A 1.0001 1.0001 0 0 0 11.292969 25.177734 L 14.527344 28.414062 C 15.301759 29.188478 16.586913 29.188478 17.361328 28.414062 L 21.507812 24.267578 A 1.0001 1.0001 0 0 0 21.507812 22.853516 L 17.5625 18.908203 A 1.0001 1.0001 0 0 0 16.839844 18.615234 z M 16.855469 21.029297 L 19.386719 23.560547 L 15.947266 26.998047 C 15.937666 27.007647 15.951006 27.007647 15.941406 26.998047 L 13.414062 24.470703 L 16.855469 21.029297 z"></path>
</svg>
