<?xml version="1.0" encoding="UTF-8"?>
<svg xmlns="http://www.w3.org/2000/svg" xmlns:xlink="http://www.w3.org/1999/xlink" viewBox="0 0 32 32" version="1.1">
<g>
<path d="M 22.34375 2.875 L 19.71875 7.125 L 21.0625 3.6875 L 19.21875 2.9375 L 16.875 8.9375 L 18.5 9.5625 L 20 10.46875 L 24.03125 3.9375 Z M 16.5 4.46875 C 16.339844 4.628906 15.867188 4.910156 14.46875 5.03125 L 14.34375 5.03125 C 12.207031 5.25 10.238281 6.050781 8.625 7.25 C 8.597656 6.519531 8.449219 5.777344 8.09375 5.09375 L 6.3125 6.03125 C 6.847656 7.070313 6.488281 9.164063 5.84375 10.25 C 4.679688 12.054688 4 14.199219 4 16.5 C 4 22.84375 9.15625 28 15.5 28 C 17.945313 28 20.226563 27.242188 22.09375 25.9375 C 22.851563 25.414063 25.074219 25 26.375 25 L 26.375 23 C 25.9375 23 25.445313 23.046875 24.9375 23.09375 C 25.769531 21.902344 26.382813 20.523438 26.71875 19.0625 L 26.78125 19.0625 C 27.253906 17.09375 28.371094 16.453125 29.09375 16.15625 L 28.34375 14.3125 C 27.941406 14.476563 27.417969 14.742188 26.90625 15.15625 C 26.695313 13.335938 26.089844 11.621094 25.0625 10.09375 C 24.210938 8.828125 23.90625 7.820313 23.90625 7.8125 L 22.65625 9.71875 C 22.851563 10.183594 22.996094 10.578125 23.40625 11.1875 C 23.574219 11.4375 23.734375 11.707031 23.875 11.96875 L 23.34375 11.96875 L 23.03125 11.9375 L 22.78125 12.125 L 20.78125 13.46875 L 21.875 15.125 L 23.59375 13.96875 L 24.65625 14 C 24.875 14.808594 25 15.644531 25 16.5 C 25 21.742188 20.742188 26 15.5 26 C 10.257813 26 6 21.742188 6 16.5 C 6 11.601563 9.664063 7.535156 14.625 7.03125 C 14.964844 7.003906 15.351563 6.953125 15.75 6.875 Z M 11.90625 10 L 11.15625 11.84375 L 13.375 12.75 L 14.28125 14.5 L 16.0625 13.5625 L 14.9375 11.46875 L 14.78125 11.15625 L 14.4375 11 Z M 9.03125 16 L 8.3125 17.84375 L 10.34375 18.6875 L 11 20.40625 L 12.875 19.71875 L 12.0625 17.5625 L 11.90625 17.125 L 11.5 16.96875 Z M 19.21875 18.59375 L 18.75 18.65625 L 16.0625 19.125 L 16.375 21.09375 L 18.625 20.71875 L 20.5 22.375 L 21.8125 20.875 L 19.59375 18.90625 Z "></path>
</g>
</svg>
