<?xml version="1.0"?>
<svg xmlns="http://www.w3.org/2000/svg" viewBox="0 0 32 32">
    <path d="M 7 4 L 7 5 L 7 14 L 6 14 C 4.3550302 14 3 15.35503 3 17 L 3 28 L 29 28 L 29 17 C 29 15.35503 27.64497 14 26 14 L 25 14 L 25 4 L 7 4 z M 9 6 L 23 6 L 23 19 L 9 19 L 9 6 z M 11 8 L 11 12 L 15 12 L 15 8 L 11 8 z M 17 9 L 17 11 L 21 11 L 21 9 L 17 9 z M 11 14 L 11 17 L 13 17 L 13 14 L 11 14 z M 14 14 L 14 17 L 15 17 L 15 14 L 14 14 z M 16 14 L 16 17 L 18 17 L 18 14 L 16 14 z M 19 14 L 19 17 L 21 17 L 21 14 L 19 14 z M 6 16 L 7 16 L 7 21 L 25 21 L 25 16 L 26 16 C 26.56503 16 27 16.43497 27 17 L 27 26 L 5 26 L 5 17 C 5 16.43497 5.4349698 16 6 16 z M 25 23 A 1 1 0 0 0 24 24 A 1 1 0 0 0 25 25 A 1 1 0 0 0 26 24 A 1 1 0 0 0 25 23 z"></path>
</svg>
