<?xml version="1.0" encoding="UTF-8"?>
<svg xmlns="http://www.w3.org/2000/svg" xmlns:xlink="http://www.w3.org/1999/xlink" viewBox="0 0 32 32" version="1.1">
<g>
<path d="M 18.75 2.96875 C 18.542969 2.972656 18.355469 3.003906 18.15625 3.03125 C 17.359375 3.144531 16.617188 3.445313 16.03125 4.03125 C 14.433594 5.628906 14.078125 7.441406 13.65625 9.0625 C 13.304688 10.417969 12.894531 11.714844 11.71875 13.15625 C 11.679688 13.199219 11.628906 13.234375 11.59375 13.28125 C 11.40625 13.503906 11.226563 13.738281 11 13.96875 C 10.980469 13.988281 10.988281 14.011719 10.96875 14.03125 C 10.140625 14.796875 9.929688 15.945313 10.0625 17.0625 C 10.199219 18.203125 10.710938 19.398438 11.65625 20.34375 C 12.601563 21.289063 13.800781 21.777344 14.9375 21.90625 C 16.058594 22.03125 17.207031 21.839844 17.96875 21 C 17.980469 20.988281 17.988281 20.980469 18 20.96875 C 19.785156 19.1875 21.296875 18.730469 22.90625 18.3125 C 24.527344 17.890625 26.339844 17.535156 27.9375 15.9375 C 29.105469 14.773438 29.246094 13.015625 28.75 11.34375 C 28.253906 9.671875 27.144531 7.957031 25.59375 6.40625 C 24.042969 4.855469 22.332031 3.75 20.65625 3.25 C 20.027344 3.0625 19.367188 2.957031 18.75 2.96875 Z M 18.46875 4.96875 C 18.902344 4.914063 19.4375 4.96875 20.0625 5.15625 C 21.316406 5.53125 22.835938 6.460938 24.1875 7.8125 C 25.539063 9.164063 26.445313 10.660156 26.8125 11.90625 C 27.179688 13.152344 27.046875 14.019531 26.53125 14.53125 C 25.355469 15.710938 24.105469 15.933594 22.40625 16.375 C 20.945313 16.753906 19.195313 17.296875 17.40625 18.78125 L 17.375 18.75 C 17.230469 18.917969 16.757813 19.117188 16.09375 19.03125 C 15.429688 18.945313 14.671875 18.578125 14.0625 17.96875 C 13.46875 17.375 13.089844 16.546875 13 15.8125 C 12.910156 15.078125 13.144531 14.527344 13.28125 14.40625 C 14.675781 12.664063 15.226563 10.984375 15.59375 9.5625 C 16.035156 7.863281 16.257813 6.617188 17.4375 5.4375 C 17.691406 5.183594 18.035156 5.023438 18.46875 4.96875 Z M 18.8125 5.96875 C 18.5 5.96875 18.285156 6.027344 18.15625 6.15625 C 18.097656 6.214844 18.054688 6.285156 18 6.34375 L 18 7 L 17.5 7 C 17.320313 7.308594 17.183594 7.636719 17.0625 8 L 18 8 L 18 10 L 16.53125 10 C 16.445313 10.320313 16.359375 10.65625 16.25 11 L 18 11 L 18 13 L 16 13 L 16 11.6875 C 15.726563 12.425781 15.367188 13.195313 14.84375 14 L 15 14 L 15 16 L 14.0625 16 C 14.152344 16.359375 14.3125 16.703125 14.53125 17 L 15 17 L 15 17.46875 C 15.308594 17.707031 15.65625 17.878906 16 17.96875 L 16 17 L 18 17 L 18 17.125 C 18.765625 16.628906 19.519531 16.269531 20.21875 16 L 19 16 L 19 14 L 21 14 L 21 15.71875 C 21.34375 15.609375 21.679688 15.523438 22 15.4375 L 22 14 L 24 14 L 24 14.90625 C 24.363281 14.785156 24.691406 14.621094 25 14.4375 L 25 14 L 25.59375 14 C 25.664063 13.9375 25.746094 13.878906 25.8125 13.8125 C 25.945313 13.679688 26 13.46875 26 13.15625 C 26 13.109375 26.003906 13.046875 26 13 L 25 13 L 25 11 L 25.34375 11 C 25.003906 10.367188 24.550781 9.722656 24 9.09375 L 24 10 L 22 10 L 22 8 L 22.9375 8 C 22.304688 7.441406 21.636719 6.96875 21 6.625 L 21 7 L 19 7 L 19 5.96875 C 18.941406 5.964844 18.867188 5.96875 18.8125 5.96875 Z M 19 8 L 21 8 L 21 10 L 19 10 Z M 19 11 L 21 11 L 21 13 L 19 13 Z M 22 11 L 24 11 L 24 13 L 22 13 Z M 16 14 L 18 14 L 18 16 L 16 16 Z M 9.59375 21 L 2.96875 27.59375 L 4.40625 29.03125 L 10.96875 22.46875 L 10.25 21.75 C 10.011719 21.511719 9.796875 21.265625 9.59375 21 Z "></path>
</g>
</svg>
