<?xml version="1.0" encoding="UTF-8"?>
<svg xmlns="http://www.w3.org/2000/svg" xmlns:xlink="http://www.w3.org/1999/xlink" viewBox="0 0 32 32" version="1.1">
<g>
<path d="M 9 4 C 7.355469 4 6 5.355469 6 7 L 6 27 L 8 27 L 8 7 C 8 6.445313 8.445313 6 9 6 L 10 6 L 10 4 Z M 25 4 C 23.355469 4 22 5.355469 22 7 L 22 8 L 9 8 L 9 10 L 22 10 L 22 12 L 9 12 L 9 14 L 22 14 L 22 16 L 9 16 L 9 18 L 22 18 L 22 20 L 9 20 L 9 22 L 22 22 L 22 24 L 9 24 L 9 26 L 22 26 L 22 27 L 24 27 L 24 7 C 24 6.445313 24.445313 6 25 6 L 26 6 L 26 4 Z "></path>
</g>
</svg>
