<?xml version="1.0" encoding="UTF-8"?>
<svg xmlns="http://www.w3.org/2000/svg" xmlns:xlink="http://www.w3.org/1999/xlink" viewBox="0 0 32 32" version="1.1">
<g>
<path d="M 28.5625 3.09375 L 24.96875 4.90625 L 24.71875 5.03125 L 24.5625 5.28125 C 24.5625 5.28125 18.359375 14.910156 14.96875 20.15625 C 14.867188 19.945313 14.753906 19.730469 14.625 19.53125 C 13.902344 18.414063 12.753906 17.382813 11.3125 16.53125 C 9.871094 15.679688 8.421875 15.15625 7.09375 15.0625 C 5.824219 14.972656 4.535156 15.296875 3.84375 16.3125 C 3.8125 16.355469 3.777344 16.390625 3.75 16.4375 C 2.78125 17.691406 2.085938 19.421875 2 21.25 C 1.910156 23.136719 2.542969 25.179688 4.34375 26.59375 C 7.390625 28.992188 11.917969 28.488281 14.0625 25.25 C 15.039063 23.777344 25.832031 6.96875 26.09375 6.5625 L 29.4375 4.90625 Z M 6.375 17.0625 C 6.550781 17.042969 6.738281 17.046875 6.96875 17.0625 C 7.890625 17.125 9.105469 17.539063 10.3125 18.25 C 11.519531 18.960938 12.46875 19.851563 12.96875 20.625 C 13.46875 21.398438 13.460938 21.898438 13.34375 22.09375 C 13.226563 22.289063 12.796875 22.53125 11.875 22.46875 C 10.953125 22.40625 9.707031 22.023438 8.5 21.3125 C 7.292969 20.601563 6.375 19.710938 5.875 18.9375 C 5.375 18.164063 5.351563 17.664063 5.46875 17.46875 C 5.554688 17.320313 5.851563 17.117188 6.375 17.0625 Z M 4.21875 20.0625 C 4.941406 21.160156 6.050781 22.195313 7.46875 23.03125 C 8.910156 23.882813 10.390625 24.34375 11.71875 24.4375 C 11.863281 24.449219 12.011719 24.4375 12.15625 24.4375 C 10.597656 26.398438 7.679688 26.675781 5.59375 25.03125 C 4.328125 24.035156 3.933594 22.742188 4 21.34375 C 4.019531 20.917969 4.109375 20.484375 4.21875 20.0625 Z "></path>
</g>
</svg>
