<?xml version="1.0" encoding="UTF-8"?>
<svg xmlns="http://www.w3.org/2000/svg" xmlns:xlink="http://www.w3.org/1999/xlink" viewBox="0 0 32 32" version="1.1">
<g>
<path d="M 10.3125 4 L 6.0625 14.625 L 5.53125 16 L 26.46875 16 L 25.9375 14.625 L 21.6875 4 Z M 11.6875 6 L 20.3125 6 L 23.5 14 L 8.5 14 Z M 15 17 L 15 21.09375 C 12.730469 21.5625 11 23.597656 11 26 C 11 26.523438 11.09375 26.921875 11.09375 27 L 11.09375 28 L 20.625 28 L 20.84375 27.3125 C 21.027344 26.757813 21 26.300781 21 26 C 21 23.597656 19.269531 21.5625 17 21.09375 L 17 17 Z M 16 23 C 17.65625 23 19 24.34375 19 26 L 13 26 C 13 24.34375 14.34375 23 16 23 Z "></path>
</g>
</svg>
