<?xml version="1.0" encoding="UTF-8"?>
<svg xmlns="http://www.w3.org/2000/svg" xmlns:xlink="http://www.w3.org/1999/xlink" viewBox="0 0 32 32" version="1.1">
<g>
<path d="M 24 5 L 24 6.59375 L 22.90625 5.5 L 21.5 6.90625 L 22.59375 8 L 21 8 L 21 10 L 22.59375 10 L 21.5 11.09375 L 22.90625 12.5 L 24 11.40625 L 24 13 L 26 13 L 26 11.40625 L 27.09375 12.5 L 28.5 11.09375 L 27.40625 10 L 29 10 L 29 8 L 27.40625 8 L 28.5 6.90625 L 27.09375 5.5 L 26 6.59375 L 26 5 Z M 25 7 C 26.101563 7 27 7.898438 27 9 C 27 10.101563 26.101563 11 25 11 C 23.898438 11 23 10.101563 23 9 C 23 7.898438 23.898438 7 25 7 Z M 13 12.4375 L 2.21875 25.375 L 0.875 27 L 31.21875 27 L 29.75 25.34375 L 21.84375 16.34375 L 21.125 15.5 L 20.375 16.3125 L 18.1875 18.65625 L 13.78125 13.375 Z M 13 15.5625 L 20.875 25 L 5.125 25 Z M 21.09375 18.5 L 26.78125 25 L 23.46875 25 L 19.46875 20.21875 Z "></path>
</g>
</svg>
