<?xml version="1.0" encoding="UTF-8"?>
<svg xmlns="http://www.w3.org/2000/svg" xmlns:xlink="http://www.w3.org/1999/xlink" viewBox="0 0 32 32" version="1.1">
<g>
<path d="M 6.5 4 C 5.132813 4 4 5.132813 4 6.5 C 4 7.867188 5.132813 9 6.5 9 C 6.785156 9 7 9.214844 7 9.5 C 7 9.863281 6.9375 10 6.5 10 C 6.121094 10 6.066406 9.914063 6.0625 9.90625 C 6.058594 9.898438 6 9.867188 6 9.625 L 4 9.625 C 4 10.191406 4.15625 10.832031 4.625 11.3125 C 5.09375 11.792969 5.773438 12 6.5 12 C 7.910156 12 9 10.792969 9 9.5 C 9 8.132813 7.867188 7 6.5 7 C 6.214844 7 6 6.785156 6 6.5 C 6 6.214844 6.214844 6 6.5 6 C 6.769531 6 6.84375 6.058594 6.90625 6.125 C 6.96875 6.191406 7 6.320313 7 6.40625 L 9 6.40625 C 9 5.839844 8.804688 5.253906 8.375 4.78125 C 7.945313 4.308594 7.257813 4 6.5 4 Z M 12.25 4 L 12 4.65625 L 10.0625 9.96875 L 10 10.15625 L 10 12 L 12 12 L 12 11 L 14 11 L 14 12 L 16 12 L 16 10.15625 L 15.9375 9.96875 L 14 4.65625 L 13.75 4 Z M 17 4 L 17 12 L 22 12 L 22 10 L 19 10 L 19 4 Z M 23 4 L 23 12 L 28 12 L 28 10 L 25 10 L 25 9 L 27 9 L 27 7 L 25 7 L 25 6 L 28 6 L 28 4 Z M 13 7.75 L 13.46875 9 L 12.53125 9 Z M 4 13 L 4 15 L 15 15 L 15 24 L 17 24 L 17 15 L 28 15 L 28 13 Z M 7.4375 20 L 7.15625 20.5 L 4.15625 25.5 L 4 25.71875 L 4 28 L 28 28 L 28 25.71875 L 27.84375 25.5 L 24.84375 20.5 L 24.5625 20 L 19 20 L 19 22 L 23.46875 22 L 25.84375 26 L 6.15625 26 L 8.53125 22 L 13 22 L 13 20 Z "></path>
</g>
</svg>
