<?xml version="1.0" encoding="UTF-8"?>
<svg xmlns="http://www.w3.org/2000/svg" xmlns:xlink="http://www.w3.org/1999/xlink" viewBox="0 0 32 32" version="1.1">
<g>
<path d="M 13 3 L 13 5.25 C 11.003906 5.5625 9.191406 6.160156 7.71875 7.03125 C 5.535156 8.320313 4 10.246094 4 12.5 C 4 14.753906 5.535156 16.679688 7.71875 17.96875 C 9.191406 18.839844 11.003906 19.4375 13 19.75 L 13 22 L 19 22 L 19 19.75 C 20.996094 19.4375 22.808594 18.839844 24.28125 17.96875 C 26.464844 16.679688 28 14.753906 28 12.5 C 28 10.246094 26.464844 8.320313 24.28125 7.03125 C 22.808594 6.160156 20.996094 5.5625 19 5.25 L 19 3 Z M 15.9375 22 C 14.832031 22 13.9375 22.894531 13.9375 24 C 13.9375 25.105469 14.832031 26 15.9375 26 C 17.042969 26 17.9375 25.105469 17.9375 24 C 17.9375 22.894531 17.042969 22 15.9375 22 Z M 15.9375 26 C 14.679688 27.109375 14.90625 30 14.90625 30 L 16.96875 30 C 16.96875 30 17.195313 27.09375 15.9375 26 Z M 15 5 L 17 5 L 17 5.03125 C 16.886719 5.027344 16.769531 5.035156 16.65625 5.03125 C 16.445313 5.003906 16.214844 5 16 5 C 15.664063 5 15.328125 5.015625 15 5.03125 Z M 16 7 C 17.03125 7 17.996094 7.519531 18.75 8.5 C 19.503906 9.480469 20 10.914063 20 12.5 C 20 14.085938 19.503906 15.519531 18.75 16.5 C 17.996094 17.480469 17.03125 18 16 18 C 14.96875 18 14.003906 17.480469 13.25 16.5 C 12.496094 15.519531 12 14.085938 12 12.5 C 12 10.914063 12.496094 9.480469 13.25 8.5 C 14.003906 7.519531 14.96875 7 16 7 Z M 11.40625 7.625 C 10.507813 8.953125 10 10.660156 10 12.5 C 10 14.339844 10.507813 16.046875 11.40625 17.375 C 10.398438 17.082031 9.480469 16.699219 8.71875 16.25 C 6.921875 15.1875 6 13.835938 6 12.5 C 6 11.164063 6.921875 9.8125 8.71875 8.75 C 9.480469 8.300781 10.398438 7.917969 11.40625 7.625 Z M 20.59375 7.625 C 21.601563 7.917969 22.519531 8.300781 23.28125 8.75 C 25.078125 9.8125 26 11.164063 26 12.5 C 26 13.835938 25.078125 15.1875 23.28125 16.25 C 22.519531 16.699219 21.601563 17.082031 20.59375 17.375 C 21.492188 16.046875 22 14.339844 22 12.5 C 22 10.660156 21.492188 8.953125 20.59375 7.625 Z "></path>
</g>
</svg>
