<?xml version="1.0" encoding="UTF-8"?>
<svg xmlns="http://www.w3.org/2000/svg" xmlns:xlink="http://www.w3.org/1999/xlink" viewBox="0 0 32 32" version="1.1">
<g>
<path d="M 28.101563 12.699219 C 28 11.800781 27.601563 10.898438 27 10.300781 C 27.300781 8.898438 26.898438 7.5 26 6.601563 C 24.800781 5.398438 23 5 20.898438 5.601563 C 19.5 4.898438 17.300781 4.800781 15.800781 5.5 C 14.101563 4.601563 11.800781 4.398438 9.800781 5.601563 C 8.300781 5.300781 6.800781 5.800781 5.699219 7 C 4.898438 8 4.5 9.300781 4.800781 10.398438 C 4.300781 10.898438 3.898438 11.601563 3.800781 12.5 C 3.601563 13.5 3.699219 14.800781 4.300781 15.800781 C 3.601563 17.199219 3.699219 19.101563 5.199219 20.699219 C 4.699219 23 6 24.699219 7.398438 25.5 C 8.300781 26 9.699219 26.101563 10.898438 25.699219 C 11.898438 25.398438 12.699219 24.800781 13.101563 24 C 13.5 23.398438 13.398438 22 13 20.898438 C 12.699219 20.199219 12.398438 19.699219 11.898438 19.199219 C 12.398438 17.800781 12.101563 16.101563 11.5 14.898438 C 12 14.101563 12.101563 13.199219 12.101563 12.601563 C 12.699219 12.898438 13.398438 13 14 13 C 14.800781 13 15.601563 12.699219 16.300781 12.199219 C 17.300781 12.699219 18.601563 12.699219 19.699219 12.300781 C 19.601563 13.199219 19.800781 14.300781 20.300781 15.398438 C 19.5 16.699219 19.5 18.101563 20 19.101563 C 19.5 19.699219 19.199219 20.398438 19.101563 21.101563 C 17.300781 21.5 16.101563 22.898438 16.101563 24.699219 C 16.101563 27.300781 17.101563 29 18.601563 29 C 20.101563 29 20.699219 27.101563 20.898438 25.898438 C 22.800781 25.601563 25.5 24.300781 25.800781 21.398438 C 26.601563 20.898438 27.199219 19.898438 27.5 18.800781 C 27.800781 17.699219 27.699219 16.699219 27.398438 15.898438 C 28 14.898438 28.199219 13.800781 28.101563 12.699219 Z M 25.398438 15.101563 L 24.800781 15.699219 L 25.398438 16.398438 C 25.699219 16.800781 25.800781 17.5 25.601563 18.300781 C 25.398438 19.101563 24.898438 19.699219 24.5 19.898438 L 23.898438 20.101563 L 23.898438 20.800781 C 23.898438 23.800781 20.101563 24 20 24 L 19.101563 24 L 19 24.898438 C 18.898438 25.601563 18.699219 26.5 18.5 26.898438 C 18.300781 26.601563 18 25.800781 18 24.699219 C 18 23.699219 18.800781 23 19.898438 23 L 21 23 L 21 21.898438 C 21 21.300781 21.101563 20.800781 21.898438 20 L 22.601563 19.398438 L 22 18.601563 C 21.5 18 21.398438 17.101563 22.300781 16.101563 L 22.800781 15.5 L 22.398438 14.898438 C 21.800781 14.101563 21.699219 13.300781 21.699219 12.800781 C 22.5 13 23.300781 13.101563 23.800781 13.101563 C 24 13.101563 24.101563 13.101563 24.199219 13.101563 L 24.101563 11.101563 C 23.398438 11.101563 21.800781 11 21.300781 10.300781 L 20.601563 9.5 L 19.800781 10.199219 C 19 10.898438 17.601563 11 17 10.398438 L 16.300781 9.699219 L 15.601563 10.5 C 15 10.800781 14.5 11 13.898438 11 C 13.101563 11 12.398438 10.699219 12 10.300781 L 11.398438 9.699219 L 10.699219 10.300781 C 10.199219 10.601563 9.5 11 8 11 L 8 13 C 8.898438 13 9.5 12.898438 10.101563 12.699219 C 10.101563 13.199219 9.898438 13.800781 9.5 14.398438 L 9 15.101563 L 9.601563 15.699219 C 10.101563 16.300781 10.5 18.199219 9.800781 19 L 9 20 L 10.199219 20.5 C 11.199219 20.898438 11.398438 22.800781 11.300781 23.199219 C 11.199219 23.5 10.800781 23.699219 10.300781 23.898438 C 9.5 24.101563 8.699219 24.101563 8.300781 23.898438 C 7.601563 23.5 6.601563 22.699219 7.199219 20.898438 L 7.398438 20.300781 L 7 19.699219 C 5.398438 18.300781 5.898438 16.898438 6.300781 16.398438 L 7 15.699219 L 6.199219 15 C 5.800781 14.601563 5.601563 13.699219 5.699219 12.898438 C 5.800781 12.300781 6.101563 11.898438 6.300781 11.800781 L 7.300781 11.398438 L 6.800781 10.398438 C 6.5 9.800781 6.601563 8.898438 7.101563 8.300781 C 7.699219 7.601563 8.601563 7.300781 9.5 7.601563 L 10 7.699219 L 10.398438 7.398438 C 12 6.300781 13.898438 6.601563 15.101563 7.398438 L 15.699219 7.800781 L 16.300781 7.398438 C 17.199219 6.800781 19.199219 6.800781 20.101563 7.398438 L 20.5 7.699219 L 21 7.5 C 22.5 7 23.800781 7.101563 24.5 7.898438 C 25 8.5 25.199219 9.300781 24.800781 10.199219 L 24.5 11 L 25.199219 11.398438 C 25.5 11.601563 25.800781 12.101563 25.898438 12.800781 C 26.101563 13.398438 26.101563 14.300781 25.398438 15.101563 Z "></path>
</g>
</svg>
