<?xml version="1.0" encoding="UTF-8"?>
<svg xmlns="http://www.w3.org/2000/svg" xmlns:xlink="http://www.w3.org/1999/xlink" viewBox="0 0 32 32" version="1.1">
<g>
<path d="M 5 5 L 5 27 L 27 27 L 27 5 Z M 7 7 L 25 7 L 25 25 L 7 25 Z M 15.90625 9 C 14.511719 9.019531 13.117188 9.824219 12.4375 11.28125 L 12.40625 11.34375 L 12.28125 11.375 C 9.121094 11.890625 7.914063 15.984375 10.21875 18.21875 L 10.3125 18.28125 L 10.28125 18.40625 C 9.792969 21.589844 13.230469 24.058594 16.03125 22.5 L 16.09375 22.46875 L 16.15625 22.5 C 19 23.976563 22.386719 21.386719 21.8125 18.21875 L 21.78125 18.125 L 21.875 18.03125 C 24.117188 15.730469 22.769531 11.707031 19.59375 11.28125 L 19.5 11.28125 L 19.46875 11.1875 C 18.75 9.75 17.300781 8.980469 15.90625 9 Z M 15.9375 11 C 16.625 10.992188 17.273438 11.296875 17.65625 12.0625 L 18.1875 13.125 L 18.71875 13.1875 L 19.3125 13.25 C 20.9375 13.46875 21.613281 15.453125 20.4375 16.65625 L 19.625 17.46875 L 19.71875 17.96875 L 19.84375 18.59375 C 20.152344 20.289063 18.5625 21.484375 17.09375 20.71875 L 16.53125 20.4375 L 16.0625 20.1875 L 15.59375 20.46875 L 15.0625 20.75 C 13.613281 21.554688 11.988281 20.394531 12.25 18.6875 L 12.34375 18.0625 L 12.40625 17.5625 L 12.0625 17.1875 L 11.59375 16.78125 C 10.386719 15.609375 11.003906 13.609375 12.625 13.34375 L 13.21875 13.25 L 13.75 13.1875 L 13.96875 12.6875 L 14.25 12.125 C 14.609375 11.351563 15.25 11.007813 15.9375 11 Z M 16 15 C 15.171875 15 14.5 15.671875 14.5 16.5 C 14.5 17.328125 15.171875 18 16 18 C 16.828125 18 17.5 17.328125 17.5 16.5 C 17.5 15.671875 16.828125 15 16 15 Z "></path>
</g>
</svg>
