<?xml version="1.0" encoding="UTF-8"?>
<svg xmlns="http://www.w3.org/2000/svg" xmlns:xlink="http://www.w3.org/1999/xlink" viewBox="0 0 32 32" version="1.1">
<g>
<path d="M 16 3 C 13.425781 3 11.085938 3.347656 9.3125 3.9375 C 8.425781 4.234375 7.6875 4.5625 7.09375 5.03125 C 6.5 5.5 6 6.179688 6 7 L 6 20 C 6 20.816406 6.5 21.496094 7.09375 21.96875 C 7.613281 22.382813 8.261719 22.699219 9 22.96875 L 9 26 C 9 26.683594 9.402344 27.214844 9.84375 27.5625 C 10.285156 27.910156 10.820313 28.167969 11.4375 28.375 C 12.667969 28.785156 14.257813 29 16 29 C 17.742188 29 19.332031 28.785156 20.5625 28.375 C 21.179688 28.167969 21.714844 27.910156 22.15625 27.5625 C 22.597656 27.214844 23 26.683594 23 26 L 23 22.96875 C 23.738281 22.699219 24.386719 22.382813 24.90625 21.96875 C 25.5 21.496094 26 20.816406 26 20 L 26 7 C 26 6.179688 25.5 5.5 24.90625 5.03125 C 24.3125 4.5625 23.574219 4.234375 22.6875 3.9375 C 20.914063 3.347656 18.574219 3 16 3 Z M 16 5 C 18.394531 5 20.578125 5.316406 22.0625 5.8125 C 22.804688 6.058594 23.371094 6.375 23.6875 6.625 C 24.003906 6.875 24 6.992188 24 7 C 24 7.007813 24.003906 7.125 23.6875 7.375 C 23.371094 7.625 22.804688 7.941406 22.0625 8.1875 C 22.042969 8.195313 22.019531 8.210938 22 8.21875 C 21.960938 7.632813 21.589844 7.140625 21.21875 6.84375 C 20.828125 6.527344 20.371094 6.335938 19.84375 6.15625 C 18.792969 5.796875 17.472656 5.59375 16 5.59375 C 14.527344 5.59375 13.207031 5.796875 12.15625 6.15625 C 11.628906 6.335938 11.171875 6.527344 10.78125 6.84375 C 10.410156 7.140625 10.039063 7.632813 10 8.21875 C 9.980469 8.210938 9.957031 8.195313 9.9375 8.1875 C 9.195313 7.941406 8.628906 7.625 8.3125 7.375 C 7.996094 7.125 8 7.007813 8 7 C 8 6.992188 7.996094 6.875 8.3125 6.625 C 8.628906 6.375 9.195313 6.058594 9.9375 5.8125 C 11.421875 5.316406 13.605469 5 16 5 Z M 16 7.59375 C 17.289063 7.59375 18.460938 7.773438 19.21875 8.03125 C 19.492188 8.125 19.605469 8.226563 19.75 8.3125 C 19.605469 8.398438 19.484375 8.472656 19.21875 8.5625 C 18.648438 8.753906 17.847656 8.90625 16.9375 8.96875 C 16.625 8.980469 16.320313 9 16 9 C 15.667969 9 15.351563 8.980469 15.03125 8.96875 C 14.136719 8.90625 13.34375 8.753906 12.78125 8.5625 C 12.515625 8.472656 12.394531 8.398438 12.25 8.3125 C 12.394531 8.226563 12.507813 8.125 12.78125 8.03125 C 13.539063 7.773438 14.710938 7.59375 16 7.59375 Z M 8 9.53125 C 8.394531 9.730469 8.828125 9.902344 9.3125 10.0625 C 11.085938 10.652344 13.425781 11 16 11 C 16.363281 11 16.707031 10.980469 17.0625 10.96875 C 17.082031 10.96875 17.105469 10.96875 17.125 10.96875 C 19.246094 10.882813 21.179688 10.566406 22.6875 10.0625 C 23.171875 9.902344 23.605469 9.730469 24 9.53125 L 24 20 C 24 20.03125 24 20.15625 23.6875 20.40625 C 23.375 20.65625 22.800781 20.941406 22.0625 21.1875 C 20.585938 21.675781 18.414063 22 16 22 C 13.585938 22 11.414063 21.675781 9.9375 21.1875 C 9.199219 20.941406 8.625 20.65625 8.3125 20.40625 C 8 20.15625 8 20.03125 8 20 Z M 15 16 L 15 20 L 17 20 L 17 16 Z M 11 23.53125 C 12.46875 23.835938 14.164063 24 16 24 C 17.835938 24 19.53125 23.835938 21 23.53125 L 21 25.90625 C 20.996094 25.90625 20.988281 25.933594 20.90625 26 C 20.738281 26.128906 20.378906 26.3125 19.90625 26.46875 C 18.960938 26.785156 17.558594 27 16 27 C 14.441406 27 13.039063 26.785156 12.09375 26.46875 C 11.621094 26.3125 11.261719 26.128906 11.09375 26 C 11.011719 25.933594 11.003906 25.90625 11 25.90625 Z "></path>
</g>
</svg>
