<?xml version="1.0" encoding="UTF-8"?>
<svg xmlns="http://www.w3.org/2000/svg" xmlns:xlink="http://www.w3.org/1999/xlink" viewBox="0 0 32 32" version="1.1">
<g>
<path d="M 3 2 C 2.449219 2 2 2.449219 2 3 C 2 3.550781 2.449219 4 3 4 C 3.550781 4 4 3.550781 4 3 C 4 2.449219 3.550781 2 3 2 Z M 5 4 C 4.449219 4 4 4.449219 4 5 C 4 5.550781 4.449219 6 5 6 C 5.550781 6 6 5.550781 6 5 C 6 4.449219 5.550781 4 5 4 Z M 7 6 C 6.449219 6 6 6.449219 6 7 C 6 7.550781 6.449219 8 7 8 C 7.550781 8 8 7.550781 8 7 C 8 6.449219 7.550781 6 7 6 Z M 11 6.585938 L 9.46875 8.117188 C 9.324219 8.039063 9.164063 8 9 8 C 8.449219 8 8 8.449219 8 9 C 8 9.164063 8.039063 9.324219 8.117188 9.46875 L 6.585938 11 L 10.085938 14.5 L 7 17.585938 L 7 23 L 9 23 L 9 18.414063 L 13 22.414063 L 13 30 L 15 30 L 15 24.414063 L 18.582031 27.996094 C 19.910156 29.324219 22.089844 29.324219 23.417969 27.996094 L 27.996094 23.417969 C 29.324219 22.089844 29.324219 19.910156 27.996094 18.582031 L 18.414063 9 L 23 9 L 23 7 L 17.585938 7 L 14.5 10.085938 Z M 11 9.414063 L 13.078125 11.492188 L 11.492188 13.078125 L 9.414063 11 Z M 17 10.414063 L 26.582031 19.996094 C 27.144531 20.558594 27.144531 21.441406 26.582031 22.003906 L 22.003906 26.582031 C 21.441406 27.144531 20.558594 27.144531 19.996094 26.582031 L 10.414063 17 Z "></path>
</g>
</svg>
