<?xml version="1.0" encoding="UTF-8"?>
<svg xmlns="http://www.w3.org/2000/svg" xmlns:xlink="http://www.w3.org/1999/xlink" viewBox="0 0 32 32" version="1.1">
<g>
<path d="M 16 4 C 12.191406 4 8.796875 5.789063 6.59375 8.5625 L 5 7 L 4 13 L 10 12 L 8 10 C 9.632813 7.824219 12.144531 6.347656 15 6.0625 L 15 7 L 17 7 L 17 6.0625 C 21.738281 6.527344 25.472656 10.261719 25.9375 15 L 25 15 L 25 17 L 25.9375 17 C 25.472656 21.738281 21.738281 25.472656 17 25.9375 L 17 25 L 15 25 L 15 25.9375 C 9.933594 25.441406 6 21.199219 6 16 L 4 16 C 4 22.617188 9.382813 28 16 28 C 22.617188 28 28 22.617188 28 16 C 28 9.382813 22.617188 4 16 4 Z M 11.9375 12 L 11.625 12.34375 C 11.625 12.34375 10.925781 13 10.375 13 L 10.375 15 C 11.066406 15 11.550781 14.695313 12 14.4375 L 12 20 L 14 20 L 14 12 Z M 18.5 12 C 17.132813 12 16 13.132813 16 14.5 L 16 15 L 18 15 L 18 14.5 C 18 14.214844 18.214844 14 18.5 14 C 18.785156 14 19 14.214844 19 14.5 L 19 15.34375 C 19 15.484375 18.945313 15.625 18.84375 15.71875 L 16.3125 18 L 16 18.3125 L 16 20 L 21 20 L 21 18 L 19.3125 18 L 20.1875 17.1875 C 20.703125 16.714844 21 16.042969 21 15.34375 L 21 14.5 C 21 13.132813 19.867188 12 18.5 12 Z "></path>
</g>
</svg>
