<?xml version="1.0" encoding="UTF-8"?>
<svg xmlns="http://www.w3.org/2000/svg" xmlns:xlink="http://www.w3.org/1999/xlink" viewBox="0 0 32 32" version="1.1">
<g>
<path d="M 16 4 C 12.191406 4 8.796875 5.789063 6.59375 8.5625 L 5 7 L 4 13 L 10 12 L 8 10 C 9.632813 7.824219 12.144531 6.347656 15 6.0625 L 15 7 L 17 7 L 17 6.0625 C 21.738281 6.527344 25.472656 10.261719 25.9375 15 L 25 15 L 25 17 L 25.9375 17 C 25.472656 21.738281 21.738281 25.472656 17 25.9375 L 17 25 L 15 25 L 15 25.9375 C 9.933594 25.441406 6 21.199219 6 16 L 4 16 C 4 22.617188 9.382813 28 16 28 C 22.617188 28 28 22.617188 28 16 C 28 9.382813 22.617188 4 16 4 Z M 17 12 C 15.042969 12 13 13.789063 13 17 L 13 17.5 C 13 18.867188 14.132813 20 15.5 20 C 16.867188 20 18 18.867188 18 17.5 C 18 16.132813 16.867188 15 15.5 15 L 15.46875 15 C 15.882813 14.269531 16.480469 14 17 14 Z M 15 17 L 15.5 17 C 15.785156 17 16 17.214844 16 17.5 C 16 17.785156 15.785156 18 15.5 18 C 15.214844 18 15 17.785156 15 17.5 Z "></path>
</g>
</svg>
