<?xml version="1.0" encoding="UTF-8"?>
<svg xmlns="http://www.w3.org/2000/svg" xmlns:xlink="http://www.w3.org/1999/xlink" viewBox="0 0 32 32" version="1.1">
<g>
<path d="M 16 4 C 12.191406 4 8.796875 5.789063 6.59375 8.5625 L 5 7 L 4 13 L 10 12 L 8 10 C 9.632813 7.824219 12.144531 6.347656 15 6.0625 L 15 7 L 17 7 L 17 6.0625 C 21.738281 6.527344 25.472656 10.261719 25.9375 15 L 25 15 L 25 17 L 25.9375 17 C 25.472656 21.738281 21.738281 25.472656 17 25.9375 L 17 25 L 15 25 L 15 25.9375 C 9.933594 25.441406 6 21.199219 6 16 L 4 16 C 4 22.617188 9.382813 28 16 28 C 22.617188 28 28 22.617188 28 16 C 28 9.382813 22.617188 4 16 4 Z M 14.9375 12 L 14.625 12.34375 C 14.625 12.34375 13.925781 13 13.375 13 L 13.375 15 C 14.066406 15 14.550781 14.695313 15 14.4375 L 15 20 L 17 20 L 17 12 Z "></path>
</g>
</svg>
