<?xml version="1.0" encoding="UTF-8"?>
<svg xmlns="http://www.w3.org/2000/svg" xmlns:xlink="http://www.w3.org/1999/xlink" viewBox="0 0 32 32" version="1.1">
<g>
<path d="M 16 4 C 12.191406 4 8.796875 5.789063 6.59375 8.5625 L 5 7 L 4 13 L 10 12 L 8 10 C 9.632813 7.824219 12.144531 6.347656 15 6.0625 L 15 7 L 17 7 L 17 6.0625 C 21.738281 6.527344 25.503906 10.261719 25.96875 15 L 25 15 L 25 17 L 25.96875 17 C 25.503906 21.738281 21.738281 25.472656 17 25.9375 L 17 25 L 15 25 L 15 25.9375 C 9.933594 25.441406 6 21.199219 6 16 L 4 16 C 4 22.617188 9.382813 28 16 28 C 22.617188 28 28 22.617188 28 16 C 28 9.382813 22.617188 4 16 4 Z M 12 12 C 10.042969 12 8 13.789063 8 17 L 8 17.5 C 8 18.867188 9.132813 20 10.5 20 C 11.867188 20 13 18.867188 13 17.5 C 13 16.132813 11.867188 15 10.5 15 L 10.46875 15 C 10.882813 14.269531 11.480469 14 12 14 Z M 16.5 12 C 15.128906 12 14 13.128906 14 14.5 L 14 17.5 C 14 18.871094 15.128906 20 16.5 20 C 17.871094 20 19 18.871094 19 17.5 L 19 14.5 C 19 13.128906 17.871094 12 16.5 12 Z M 16.5 14 C 16.78125 14 17 14.21875 17 14.5 L 17 17.5 C 17 17.78125 16.78125 18 16.5 18 C 16.21875 18 16 17.78125 16 17.5 L 16 14.5 C 16 14.21875 16.21875 14 16.5 14 Z M 22 14 C 20.90625 14 20 14.90625 20 16 C 20 17.09375 20.90625 18 22 18 L 20 18 C 20 18.433594 20.105469 18.925781 20.46875 19.34375 C 20.832031 19.761719 21.421875 20 22 20 C 23.101563 20 24 19.015625 24 18 C 24 16.90625 23.09375 16 22 16 L 24 16 C 24 15.542969 23.863281 15.085938 23.53125 14.6875 C 23.199219 14.289063 22.617188 14 22 14 Z M 10 17 L 10.5 17 C 10.785156 17 11 17.214844 11 17.5 C 11 17.785156 10.785156 18 10.5 18 C 10.214844 18 10 17.785156 10 17.5 Z "></path>
</g>
</svg>
