<?xml version="1.0" encoding="UTF-8"?>
<svg xmlns="http://www.w3.org/2000/svg" xmlns:xlink="http://www.w3.org/1999/xlink" viewBox="0 0 32 32" version="1.1">
<g>
<path d="M 16 4 C 9.382813 4 4 9.382813 4 16 C 4 22.617188 9.382813 28 16 28 C 22.617188 28 28 22.617188 28 16 C 28 9.382813 22.617188 4 16 4 Z M 16 6 C 18.800781 6 21.3125 7.15625 23.125 9 L 8.875 9 C 10.6875 7.15625 13.199219 6 16 6 Z M 7.34375 11 L 24.65625 11 C 25.347656 12.199219 25.796875 13.550781 25.9375 15 L 6.0625 15 C 6.203125 13.550781 6.652344 12.199219 7.34375 11 Z M 6.0625 17 L 25.9375 17 C 25.796875 18.449219 25.347656 19.800781 24.65625 21 L 7.34375 21 C 6.652344 19.800781 6.203125 18.449219 6.0625 17 Z M 8.875 23 L 23.125 23 C 21.3125 24.84375 18.800781 26 16 26 C 13.199219 26 10.6875 24.84375 8.875 23 Z "></path>
</g>
</svg>
