<?xml version="1.0" encoding="UTF-8"?>
<svg xmlns="http://www.w3.org/2000/svg" xmlns:xlink="http://www.w3.org/1999/xlink" viewBox="0 0 32 32" version="1.1">
<g>
<path d="M 16 2.6875 L 15.34375 3.21875 C 15.34375 3.21875 14.058594 4.300781 12.75 5.78125 C 11.441406 7.261719 10 9.121094 10 11.1875 C 10 12.605469 10.347656 14.621094 10.75 16.59375 L 10.0625 17.0625 C 8.753906 17.96875 8.09375 19.5625 8.40625 21.125 L 9.03125 24.1875 L 9.3125 25.65625 L 10.5625 24.84375 L 13.3125 23 L 18.6875 23 L 21.4375 24.84375 L 22.6875 25.65625 L 22.96875 24.1875 L 23.59375 21.125 C 23.90625 19.5625 23.246094 17.96875 21.9375 17.0625 L 21.25 16.59375 C 21.65625 14.613281 22 12.589844 22 11.1875 C 22 9.136719 20.558594 7.300781 19.25 5.8125 C 17.941406 4.324219 16.625 3.21875 16.625 3.21875 Z M 16 5.40625 C 16.410156 5.769531 16.878906 6.132813 17.75 7.125 C 18.945313 8.484375 20 10.261719 20 11.1875 C 20 12.453125 19.527344 15.1875 19.03125 17.5 C 18.621094 19.402344 18.351563 20.472656 18.21875 21 L 13.78125 21 C 13.648438 20.476563 13.375 19.421875 12.96875 17.53125 C 12.472656 15.230469 12 12.488281 12 11.1875 C 12 10.214844 13.0625 8.472656 14.25 7.125 C 15.125 6.132813 15.597656 5.761719 16 5.40625 Z M 16 10.6875 C 14.882813 10.6875 13.96875 11.601563 13.96875 12.71875 C 13.96875 13.835938 14.882813 14.71875 16 14.71875 C 17.117188 14.71875 18.03125 13.835938 18.03125 12.71875 C 18.03125 11.601563 17.117188 10.6875 16 10.6875 Z M 11.1875 18.6875 C 11.480469 20.015625 11.699219 20.945313 11.84375 21.53125 L 10.6875 22.3125 L 10.375 20.75 C 10.21875 19.964844 10.53125 19.144531 11.1875 18.6875 Z M 20.78125 18.6875 L 20.8125 18.6875 C 21.46875 19.144531 21.78125 19.964844 21.625 20.75 L 21.3125 22.3125 L 20.15625 21.53125 C 20.296875 20.945313 20.488281 20.007813 20.78125 18.6875 Z M 13 24 C 13 27.015625 15.375 28.78125 15.375 28.78125 L 16 29.25 L 16.59375 28.8125 C 16.59375 28.8125 19 27.03125 19 24 L 17 24 C 17 25.226563 16.46875 26.027344 16 26.5625 C 15.53125 26.019531 15 25.207031 15 24 Z "></path>
</g>
</svg>
