<?xml version="1.0" encoding="UTF-8"?>
<svg xmlns="http://www.w3.org/2000/svg" xmlns:xlink="http://www.w3.org/1999/xlink" viewBox="0 0 32 32" version="1.1">
<g>
<path d="M 6 4 L 6 6 L 8 6 L 8 4 Z M 12 4 L 12 6 L 14 6 L 14 4 Z M 18 4 L 18 6 L 20 6 L 20 4 Z M 24 4 L 24 6 L 26 6 L 26 4 Z M 3 7 L 3 25 L 29 25 L 29 7 Z M 5 9 L 27 9 L 27 23 L 5 23 Z M 7 11 L 7 21 L 12 21 L 12 19 L 9 19 L 9 11 Z M 15 11 C 13.355469 11 12 12.355469 12 14 L 12 18 C 12 19.644531 13.355469 21 15 21 C 16.644531 21 18 19.644531 18 18 L 18 17 L 16 17 L 16 18 C 16 18.554688 15.554688 19 15 19 C 14.445313 19 14 18.554688 14 18 L 14 14 C 14 13.445313 14.445313 13 15 13 C 15.554688 13 16 13.445313 16 14 L 16 15 L 18 15 L 18 14 C 18 12.355469 16.644531 11 15 11 Z M 19 11 L 19 21 L 21 21 C 23.210938 21 25 19.210938 25 17 L 25 15 C 25 12.789063 23.210938 11 21 11 Z M 21 13 C 22.191406 13 23 13.808594 23 15 L 23 17 C 23 18.191406 22.191406 19 21 19 Z M 6 26 L 6 28 L 8 28 L 8 26 Z M 12 26 L 12 28 L 14 28 L 14 26 Z M 18 26 L 18 28 L 20 28 L 20 26 Z M 24 26 L 24 28 L 26 28 L 26 26 Z "></path>
</g>
</svg>
