<?xml version="1.0" encoding="UTF-8"?>
<svg xmlns="http://www.w3.org/2000/svg" xmlns:xlink="http://www.w3.org/1999/xlink" viewBox="0 0 32 32" version="1.1">
<g>
<path d="M 10 6 L 10 11 L 2 11 L 2 26 L 30 26 L 30 12 L 23 12 L 23 6 Z M 12 8 L 21 8 L 21 14 L 28 14 L 28 24 L 4 24 L 4 13 L 12 13 Z M 15.84375 9 L 15.625 9.71875 C 15.625 9.71875 15.519531 10.078125 15.28125 10.4375 C 15.042969 10.796875 14.800781 11 14.53125 11 L 14.53125 13 C 15.113281 13 15.605469 12.804688 16 12.53125 L 16 16 L 18 16 L 18 9 Z M 8.5 15 C 7.132813 15 6 16.132813 6 17.5 L 6 18 L 8 18 L 8 17.5 C 8 17.214844 8.214844 17 8.5 17 C 8.785156 17 9 17.214844 9 17.5 L 9 17.78125 C 9 17.933594 8.929688 18.0625 8.8125 18.15625 L 6.375 20.125 L 6 20.40625 L 6 22 L 11 22 L 11 20 L 9.71875 20 L 10.0625 19.71875 C 10.65625 19.246094 11 18.539063 11 17.78125 L 11 17.5 C 11 16.132813 9.867188 15 8.5 15 Z M 21 16 L 21 18 L 21.53125 18 L 21.375 18.125 L 21 18.40625 L 21 20 L 23.5 20 C 23.785156 20 24 20.214844 24 20.5 C 24 20.785156 23.785156 21 23.5 21 L 21 21 L 21 23 L 23.5 23 C 24.867188 23 26 21.867188 26 20.5 C 26 19.4375 25.226563 18.703125 24.28125 18.34375 L 24.84375 17.875 L 25.21875 17.59375 L 25.21875 16 Z "></path>
</g>
</svg>
