<?xml version="1.0"?>
<svg xmlns="http://www.w3.org/2000/svg" viewBox="0 0 32 32">
    <path d="M 5 5 L 5 6 L 5 27 L 27 27 L 27 5 L 18.054688 5 L 7.9453125 5 L 5 5 z M 7 7 L 9.1640625 7 C 9.2749751 7.1910563 9.3221848 7.2556978 9.4804688 7.5722656 C 9.7691174 8.1495628 10 8.9166667 10 9 L 10 19.875 C 10 20.083333 9.8597949 20.507033 9.6816406 20.837891 C 9.5034863 21.168749 9.3359375 21.386719 9.3359375 21.386719 L 8.0800781 23 L 22.220703 23 L 24.019531 14.003906 L 21.875 15.71875 C 21.875 15.71875 21.553435 15.989954 20.722656 16.322266 C 19.891878 16.654577 18.616667 17 16.875 17 C 16.464512 17 16.225381 16.939715 16 16.886719 L 16 9 C 16 8.9166667 16.230883 8.1495628 16.519531 7.5722656 C 16.677815 7.2556978 16.725025 7.1910563 16.835938 7 L 25 7 L 25 25 L 7 25 L 7 7 z M 11.371094 7 L 14.628906 7 C 14.332905 7.5957639 14 8.210563 14 9 L 14 18.191406 L 14.486328 18.482422 C 14.486328 18.482422 14.781267 18.649419 15.181641 18.769531 C 15.582015 18.889643 16.15 19 16.875 19 C 18.706883 19 20.093606 18.653368 21.125 18.277344 L 20.580078 21 L 11.671875 21 C 11.809563 20.641034 12 20.340851 12 19.875 L 12 9 C 12 8.210563 11.667095 7.5957639 11.371094 7 z" font-weight="400" font-family="sans-serif" white-space="normal" overflow="visible"></path>
</svg>
