<?xml version="1.0" encoding="UTF-8"?>
<svg xmlns="http://www.w3.org/2000/svg" xmlns:xlink="http://www.w3.org/1999/xlink" viewBox="0 0 32 32" version="1.1">
<g>
<path d="M 16 4 L 11.34375 11 L 15 11 L 15 23 L 17 23 L 17 11 L 20.65625 11 Z M 13 18.15625 C 8.167969 18.636719 4 20.273438 4 23 C 4 26.28125 10.035156 28 16 28 C 21.964844 28 28 26.28125 28 23 C 28 20.273438 23.832031 18.636719 19 18.15625 L 19 20.15625 C 23.300781 20.621094 26 22.019531 26 23 C 26 24.195313 22.011719 26 16 26 C 9.988281 26 6 24.195313 6 23 C 6 22.019531 8.699219 20.621094 13 20.15625 Z "></path>
</g>
</svg>
