<?xml version="1.0" encoding="UTF-8"?>
<svg xmlns="http://www.w3.org/2000/svg" xmlns:xlink="http://www.w3.org/1999/xlink" viewBox="0 0 32 32" version="1.1">
<g>
<path d="M 8 3.0625 L 7.28125 3.75 L 3.96875 7.0625 L 5.40625 8.46875 L 7 6.90625 L 7 12 L 9 12 L 9 6.90625 L 10.59375 8.46875 L 12.03125 7.0625 L 8.71875 3.75 Z M 8 13 C 5.25 13 3 15.25 3 18 C 3 19.476563 3.660156 20.800781 4.6875 21.71875 C 1.929688 22.984375 0 25.777344 0 29 L 2 29 C 2 25.675781 4.675781 23 8 23 C 11.324219 23 14 25.675781 14 29 L 16 29 C 16 27.621094 15.648438 26.320313 15.03125 25.1875 L 15.09375 25.1875 C 15.464844 23.363281 17.054688 22 19 22 C 21.21875 22 23 23.78125 23 26 L 25 26 C 25 24.910156 24.703125 23.882813 24.1875 23 C 24.601563 21.839844 25.6875 21 27 21 C 28.667969 21 30 22.332031 30 24 L 32 24 C 32 22.164063 30.984375 20.558594 29.5 19.6875 C 29.824219 19.207031 30 18.617188 30 18 C 30 16.355469 28.644531 15 27 15 C 25.355469 15 24 16.355469 24 18 C 24 18.617188 24.175781 19.207031 24.5 19.6875 C 23.792969 20.097656 23.214844 20.6875 22.78125 21.375 C 22.5 21.144531 22.195313 20.929688 21.875 20.75 C 21.929688 20.691406 21.980469 20.625 22.03125 20.5625 C 22.125 20.453125 22.230469 20.339844 22.3125 20.21875 C 22.46875 19.988281 22.582031 19.757813 22.6875 19.5 C 22.78125 19.277344 22.855469 19.054688 22.90625 18.8125 C 22.960938 18.554688 23 18.273438 23 18 C 23 15.800781 21.199219 14 19 14 C 17.078125 14 15.46875 15.371094 15.09375 17.1875 C 15.039063 17.445313 15 17.726563 15 18 C 15 18.269531 15.039063 18.53125 15.09375 18.78125 C 15.097656 18.792969 15.089844 18.800781 15.09375 18.8125 C 15.148438 19.054688 15.214844 19.277344 15.3125 19.5 C 15.507813 19.980469 15.800781 20.382813 16.15625 20.75 C 15.082031 21.339844 14.210938 22.25 13.65625 23.34375 C 12.984375 22.671875 12.183594 22.117188 11.3125 21.71875 C 12.339844 20.800781 13 19.476563 13 18 C 13 15.25 10.75 13 8 13 Z M 8 15 C 9.667969 15 11 16.332031 11 18 C 11 19.667969 9.667969 21 8 21 C 6.332031 21 5 19.667969 5 18 C 5 16.332031 6.332031 15 8 15 Z M 19 16 C 20.117188 16 21 16.882813 21 18 C 21 19.117188 20.117188 20 19 20 C 18.164063 20 17.457031 19.5 17.15625 18.78125 C 17.105469 18.660156 17.058594 18.539063 17.03125 18.40625 C 17.003906 18.273438 17 18.140625 17 18 C 17 17.859375 17.003906 17.726563 17.03125 17.59375 C 17.214844 16.675781 18.023438 16 19 16 Z M 27 17 C 27.5625 17 28 17.4375 28 18 C 28 18.5625 27.5625 19 27 19 C 26.4375 19 26 18.5625 26 18 C 26 17.4375 26.4375 17 27 17 Z "></path>
</g>
</svg>
