<?xml version="1.0" encoding="UTF-8"?>
<svg xmlns="http://www.w3.org/2000/svg" xmlns:xlink="http://www.w3.org/1999/xlink" viewBox="0 0 32 32" version="1.1">
<g>
<path d="M 12 6 L 12 10 L 0 10 L 0 12 L 12 12 L 12 20 L 0 20 L 0 22 L 12 22 L 12 26 L 18 26 L 18 25 C 18 24.445313 18.445313 24 19 24 L 24 24 C 28.429688 24 32 20.429688 32 16 C 32 11.570313 28.429688 8 24 8 L 19 8 C 18.445313 8 18 7.554688 18 7 L 18 6 Z M 14 8 L 16 8 L 16 24 L 14 24 Z M 18 9.78125 C 18.304688 9.917969 18.632813 10 19 10 L 24 10 C 27.371094 10 30 12.628906 30 16 C 30 19.371094 27.371094 22 24 22 L 19 22 C 18.632813 22 18.304688 22.082031 18 22.21875 L 18 17 L 19.1875 17 C 19.605469 18.15625 20.707031 19 22 19 C 23.644531 19 25 17.644531 25 16 C 25 14.355469 23.644531 13 22 13 C 20.707031 13 19.605469 13.84375 19.1875 15 L 18 15 Z M 22 15 C 22.5625 15 23 15.4375 23 16 C 23 16.5625 22.5625 17 22 17 C 21.4375 17 21 16.5625 21 16 C 21 15.4375 21.4375 15 22 15 Z "></path>
</g>
</svg>
