<?xml version="1.0" encoding="UTF-8"?>
<svg xmlns="http://www.w3.org/2000/svg" xmlns:xlink="http://www.w3.org/1999/xlink" viewBox="0 0 32 32" version="1.1">
<g>
<path d="M 7 4 L 7 7.945313 L 5.765625 19.6875 L 4.800781 18.402344 L 3.199219 19.597656 L 5 22 L 3 22 L 3 24 L 5.3125 24 L 4.890625 28 L 13.78125 28 L 16 19.125 L 18.21875 28 L 27.109375 28 L 26.6875 24 L 29 24 L 29 22 L 27 22 L 28.800781 19.597656 L 27.199219 18.402344 L 26.234375 19.6875 L 25 7.945313 L 25 4 Z M 9 6 L 11 6 L 11 12 L 12 13 L 13 12 L 13 9.800781 L 16 11 L 19 9.800781 L 19 12 L 20 13 L 21 12 L 21 6 L 23 6 L 23 8 L 24.46875 22 L 18.78125 22 L 17.03125 15 L 14.96875 15 L 13.21875 22 L 7.53125 22 L 8.992188 8.101563 Z M 14 6 C 14.550781 6 15 6.449219 15 7 C 15 7.550781 14.550781 8 14 8 C 13.449219 8 13 7.550781 13 7 C 13 6.449219 13.449219 6 14 6 Z M 18 6 C 18.550781 6 19 6.449219 19 7 C 19 7.550781 18.550781 8 18 8 C 17.449219 8 17 7.550781 17 7 C 17 6.449219 17.449219 6 18 6 Z M 7.320313 24 L 12.71875 24 L 12.21875 26 L 7.109375 26 Z M 19.28125 24 L 24.679688 24 L 24.890625 26 L 19.78125 26 Z "></path>
</g>
</svg>
