<?xml version="1.0" encoding="UTF-8"?>
<svg xmlns="http://www.w3.org/2000/svg" xmlns:xlink="http://www.w3.org/1999/xlink" viewBox="0 0 32 32" version="1.1">
<g>
<path d="M 27.84375 2.28125 L 25.15625 3.1875 L 21.1875 9.34375 L 25.21875 6.5625 Z M 28.84375 5.375 L 20.875 10.96875 L 25.125 10.46875 L 28.21875 8.3125 Z M 22.3125 5.5 L 19.09375 6.90625 L 15.125 13.3125 C 14.832031 13.429688 14.585938 13.527344 14.40625 13.65625 C 13.734375 14.140625 8.769531 18.207031 7.4375 19.375 C 6.617188 20.09375 6.472656 21.078125 6.65625 21.96875 C 6.65625 21.972656 6.671875 21.964844 6.40625 22.09375 C 6.101563 22.246094 5.535156 22.4375 4.5625 22.4375 L 4.5625 24.4375 C 5.800781 24.4375 6.683594 24.167969 7.28125 23.875 C 7.363281 23.832031 7.425781 23.761719 7.5 23.71875 C 7.523438 23.746094 7.539063 23.785156 7.5625 23.8125 C 7.292969 24.1875 7.121094 24.597656 6.96875 25 C 6.695313 25.71875 6.53125 26.382813 6.53125 26.96875 L 8.53125 26.96875 C 8.53125 26.824219 8.652344 26.191406 8.84375 25.6875 C 9.011719 25.242188 9.238281 24.917969 9.34375 24.8125 C 10.179688 25.019531 11.183594 24.925781 12.09375 24 C 12.925781 23.152344 20.578125 15.304688 21.84375 14 C 23.355469 13.757813 23.90625 13.660156 25.3125 13.4375 L 27.125 11.46875 C 25.515625 11.574219 21.265625 11.914063 18.03125 12.53125 Z M 19.3125 14.40625 C 18.300781 15.402344 11.570313 21.996094 10.8125 22.875 C 10.386719 23.367188 9.171875 23.066406 8.8125 22.71875 C 8.484375 22.402344 8.210938 21.515625 8.84375 20.8125 C 9.53125 20.148438 16.09375 14.90625 16.09375 14.90625 C 16.09375 14.90625 18.289063 14.570313 19.3125 14.40625 Z "></path>
</g>
</svg>
