<?xml version="1.0" encoding="UTF-8"?>
<svg xmlns="http://www.w3.org/2000/svg" xmlns:xlink="http://www.w3.org/1999/xlink" viewBox="0 0 32 32" version="1.1">
<g>
<path d="M 16 3 C 13.804688 3 12.203125 4.605469 11.28125 6.5 C 10.359375 8.394531 9.960938 10.679688 10 12.6875 C 10.046875 15.019531 11.0625 17.375 11.0625 17.375 L 11.34375 18 L 19.75 18 L 19.96875 17.25 C 19.96875 17.25 20.757813 14.308594 20.96875 11.5 C 21.050781 10.394531 21.015625 8.472656 20.40625 6.65625 C 20.101563 5.746094 19.660156 4.855469 18.9375 4.15625 C 18.214844 3.457031 17.1875 3 16 3 Z M 16 5 C 16.703125 5 17.128906 5.203125 17.53125 5.59375 C 17.933594 5.984375 18.292969 6.605469 18.53125 7.3125 C 19.003906 8.726563 19.0625 10.527344 19 11.375 C 18.835938 13.550781 18.316406 15.371094 18.15625 16 L 12.6875 16 C 12.441406 15.316406 12.027344 13.984375 12 12.65625 C 11.96875 10.960938 12.355469 8.894531 13.09375 7.375 C 13.832031 5.855469 14.769531 5 16 5 Z M 11 21 L 11 22 C 10.988281 23.378906 11.121094 24.988281 11.8125 26.40625 C 12.503906 27.824219 13.957031 29 16 29 C 18.261719 29 19.980469 26.785156 20 24 C 20.003906 23.355469 19.976563 22.597656 19.75 21.75 L 19.5625 21 Z M 13.15625 23 L 17.90625 23 C 17.941406 23.328125 18.003906 23.664063 18 24 C 17.984375 26.023438 16.929688 27 16 27 C 14.621094 27 14.050781 26.464844 13.59375 25.53125 C 13.265625 24.863281 13.226563 23.902344 13.15625 23 Z "></path>
</g>
</svg>
