<?xml version="1.0" encoding="UTF-8"?>
<svg xmlns="http://www.w3.org/2000/svg" xmlns:xlink="http://www.w3.org/1999/xlink" viewBox="0 0 32 32" version="1.1">
<g>
<path d="M 20.59375 3 C 19.976563 3.09375 19.394531 3.734375 19.125 4.6875 C 18.769531 5.957031 19.105469 7.324219 19.90625 7.71875 C 20.707031 8.113281 21.644531 7.394531 22 6.125 C 22.355469 4.855469 22.019531 3.488281 21.21875 3.09375 C 21.019531 2.996094 20.800781 2.96875 20.59375 3 Z M 17.09375 4 C 16.476563 4.027344 15.996094 4.714844 16.03125 5.53125 C 16.066406 6.347656 16.601563 6.996094 17.21875 6.96875 C 17.835938 6.941406 18.316406 6.253906 18.28125 5.4375 C 18.246094 4.621094 17.710938 3.972656 17.09375 4 Z M 14.28125 5 C 14.214844 5.003906 14.160156 5.007813 14.09375 5.03125 C 13.574219 5.207031 13.34375 5.957031 13.59375 6.6875 C 13.84375 7.417969 14.449219 7.863281 14.96875 7.6875 C 15.488281 7.511719 15.71875 6.761719 15.46875 6.03125 C 15.25 5.390625 14.75 4.976563 14.28125 5 Z M 12.21875 6.6875 C 12.085938 6.695313 11.960938 6.742188 11.84375 6.8125 C 11.378906 7.097656 11.320313 7.804688 11.6875 8.40625 C 12.054688 9.007813 12.722656 9.285156 13.1875 9 C 13.652344 8.714844 13.710938 7.976563 13.34375 7.375 C 13.066406 6.921875 12.621094 6.667969 12.21875 6.6875 Z M 10.5625 8.9375 C 10.445313 8.960938 10.339844 9.015625 10.25 9.09375 C 9.886719 9.402344 9.933594 10.050781 10.34375 10.53125 C 10.753906 11.011719 11.355469 11.152344 11.71875 10.84375 C 12.082031 10.535156 12.066406 9.886719 11.65625 9.40625 C 11.351563 9.046875 10.910156 8.867188 10.5625 8.9375 Z M 18.40625 9 C 17.414063 9 15.746094 9.207031 14.15625 10.03125 C 12.566406 10.855469 11.042969 12.453125 10.96875 14.90625 C 10.898438 17.203125 11.617188 18.804688 12.25 20.1875 C 12.882813 21.570313 13.4375 22.75 13.4375 24.6875 C 13.4375 25.675781 13.722656 26.667969 14.3125 27.5 C 14.902344 28.332031 15.882813 29 17.0625 29 C 18.480469 29 19.597656 28.5 20.21875 27.65625 C 20.839844 26.8125 20.941406 25.839844 20.96875 24.9375 C 21.023438 23.175781 20.367188 21.984375 19.84375 21.15625 C 19.320313 20.328125 18.96875 19.875 18.96875 18.78125 C 18.96875 17.386719 19.480469 16.914063 20.21875 16.125 C 20.957031 15.335938 21.96875 14.234375 21.96875 12.375 C 21.96875 11.050781 21.324219 10.015625 20.53125 9.53125 C 19.738281 9.046875 18.945313 9 18.40625 9 Z M 18.40625 11 C 18.765625 11 19.226563 11.082031 19.5 11.25 C 19.773438 11.417969 19.96875 11.582031 19.96875 12.375 C 19.96875 13.585938 19.511719 13.96875 18.75 14.78125 C 17.988281 15.59375 16.96875 16.796875 16.96875 18.78125 C 16.96875 20.390625 17.65625 21.460938 18.15625 22.25 C 18.65625 23.039063 19.007813 23.570313 18.96875 24.875 C 18.945313 25.621094 18.808594 26.175781 18.59375 26.46875 C 18.378906 26.761719 18.082031 27 17.0625 27 C 16.582031 27 16.246094 26.777344 15.9375 26.34375 C 15.628906 25.910156 15.4375 25.269531 15.4375 24.6875 C 15.4375 22.34375 14.691406 20.75 14.0625 19.375 C 13.433594 18 12.910156 16.847656 12.96875 14.96875 C 13.023438 13.246094 13.894531 12.386719 15.0625 11.78125 C 16.230469 11.175781 17.722656 11 18.40625 11 Z "></path>
</g>
</svg>
