<?xml version="1.0" encoding="UTF-8"?>
<svg xmlns="http://www.w3.org/2000/svg" xmlns:xlink="http://www.w3.org/1999/xlink" viewBox="0 0 32 32" version="1.1">
<g>
<path d="M 9.3125 5 C 6.941406 5 5 6.941406 5 9.3125 L 5 22.6875 C 5 25.058594 6.941406 27 9.3125 27 L 22.6875 27 C 25.058594 27 27 25.058594 27 22.6875 L 27 9.3125 C 27 6.941406 25.058594 5 22.6875 5 Z M 14.34375 11.78125 C 14.90625 11.78125 15.59375 12.058594 15.59375 12.59375 C 15.59375 13.378906 14.945313 13.652344 14.3125 13.6875 C 14.03125 13.722656 13.589844 13.71875 13.34375 13.71875 C 13.34375 13.71875 13.148438 14.054688 12.9375 14.625 C 14.097656 14.484375 14.617188 14.722656 14.40625 15.4375 C 14.125 16.363281 13.328125 16.425781 12.34375 16.25 C 12.273438 16.464844 12.136719 16.910156 12.03125 17.375 C 12.417969 17.304688 12.695313 17.21875 13.1875 17.21875 C 13.714844 17.21875 14.09375 17.472656 14.09375 17.9375 C 14.09375 19.078125 12.84375 19.40625 12 19.40625 C 11.050781 19.40625 10.21875 18.878906 10.21875 17.84375 C 10.21875 16.597656 10.867188 14.714844 11.5 13.5 C 12.238281 11.96875 13.007813 11.78125 14.34375 11.78125 Z M 18.5 11.8125 C 19.628906 11.8125 20.484375 12.242188 20.34375 13.3125 C 20.238281 14.09375 19.855469 14.523438 19.1875 14.59375 C 18.976563 14.59375 18.1875 14.597656 18.46875 13.8125 C 18.539063 13.5625 18.609375 13.34375 18.1875 13.34375 C 17.871094 13.34375 17.640625 13.566406 17.5 13.78125 C 17.148438 14.28125 16.417969 16.21875 16.3125 17 C 16.207031 17.570313 16.441406 17.6875 16.6875 17.6875 C 17.109375 17.6875 17.574219 17.214844 17.75 16.5 C 17.75 16.5 16.945313 16.488281 17.15625 15.8125 C 17.367188 15.101563 17.800781 14.941406 18.46875 14.90625 C 19.769531 14.871094 19.605469 15.839844 19.5 16.375 C 19.148438 18.050781 18 19.40625 16.3125 19.40625 C 15.152344 19.40625 14.4375 18.738281 14.4375 17.5625 C 14.4375 16.707031 14.871094 15.410156 15.1875 14.625 C 15.890625 12.984375 16.640625 11.8125 18.5 11.8125 Z M 23.59375 11.84375 C 25.808594 11.84375 25.425781 13.863281 25.25 14.71875 C 25.039063 15.714844 24.578125 16.894531 24.125 17.75 C 23.316406 19.210938 22.371094 19.40625 21.5625 19.40625 C 20.71875 19.40625 19.75 19.070313 19.75 17.75 C 19.75 16.824219 20.148438 15.511719 20.5 14.65625 C 21.097656 13.085938 21.695313 11.808594 23.59375 11.84375 Z M 9.875 11.875 C 10.4375 11.875 10.597656 12.148438 10.5625 12.46875 C 10.5625 13.394531 9.085938 16.238281 8.59375 17.34375 C 9.753906 17.164063 10.035156 17.539063 10 17.96875 C 9.894531 19.144531 8.824219 19.410156 7.875 19.375 C 7.207031 19.375 6.625 19.03125 6.625 18.25 C 6.589844 16.859375 7.953125 13.65625 8.625 12.625 C 8.941406 12.125 9.277344 11.875 9.875 11.875 Z M 23.34375 13.375 C 23.167969 13.375 22.984375 13.410156 22.84375 13.625 C 22.492188 14.089844 21.527344 16.808594 21.5625 17.34375 C 21.5625 17.523438 21.660156 17.6875 21.90625 17.6875 C 22.152344 17.6875 22.328125 17.5 22.46875 17.25 C 22.75 16.753906 23.621094 14.324219 23.65625 13.71875 C 23.65625 13.574219 23.625 13.375 23.34375 13.375 Z "></path>
</g>
</svg>
