<?xml version="1.0" encoding="UTF-8"?>
<svg xmlns="http://www.w3.org/2000/svg" xmlns:xlink="http://www.w3.org/1999/xlink" viewBox="0 0 32 32" version="1.1">
<g>
<path d="M 12 4 C 10.90625 4 10 4.90625 10 6 L 10 7 L 8 7 C 5.800781 7 4 8.800781 4 11 L 4 21 C 4 23.199219 5.800781 25 8 25 L 24 25 C 26.199219 25 28 23.199219 28 21 L 28 11 C 28 8.800781 26.199219 7 24 7 L 22 7 L 22 6 C 22 4.90625 21.09375 4 20 4 Z M 12 6 L 20 6 L 20 7 L 12 7 Z M 8 9 L 24 9 C 25.117188 9 26 9.882813 26 11 L 26 21 C 26 22.117188 25.117188 23 24 23 L 8 23 C 6.882813 23 6 22.117188 6 21 L 6 11 C 6 9.882813 6.882813 9 8 9 Z M 13 12 C 12.449219 12 12 12.449219 12 13 C 12 13.550781 12.449219 14 13 14 C 13.550781 14 14 13.550781 14 13 C 14 12.449219 13.550781 12 13 12 Z M 19 12 C 18.449219 12 18 12.449219 18 13 C 18 13.550781 18.449219 14 19 14 C 19.550781 14 20 13.550781 20 13 C 20 12.449219 19.550781 12 19 12 Z M 19.371094 16.867188 C 18.597656 17.496094 17.601563 18 16 18 C 14.398438 18 13.402344 17.496094 12.628906 16.871094 L 11.371094 18.421875 C 12.425781 19.277344 13.949219 20 16 20 C 18.050781 20 19.578125 19.273438 20.628906 18.421875 Z M 9 26 L 9 28 L 23 28 L 23 26 Z "></path>
</g>
</svg>
