<?xml version="1.0"?>
<svg xmlns="http://www.w3.org/2000/svg" viewBox="0 0 32 32">
    <path d="M 9.9570312 5 C 7.7420981 7.5971254 5.8253069 9.9580606 5.6503906 10.173828 L 0.037109375 15.787109 L 4.2734375 20.023438 L 4.8496094 19.447266 C 4.9586551 19.698685 5.0342582 19.868022 5.2070312 20.251953 C 5.4938971 20.889418 5.896522 21.646522 6.5683594 22.318359 L 11.246094 26.996094 L 11.941406 26.460938 C 11.941406 26.460938 13.990987 25.066741 13.998047 22.753906 C 14.000947 21.836651 13.59004 20.855665 12.75 20.015625 C 12.01409 19.279715 11.998979 18.675344 11.998047 17.873047 C 11.997859 17.065701 12.147316 16.553424 12.21875 16.333984 L 13.601562 14.951172 C 13.528563 14.131172 13.454813 13.248844 13.382812 12.339844 L 11.349609 14.371094 L 7.7460938 10.767578 C 8.6840937 9.6255781 10.639656 7.259 12.597656 5 L 9.9570312 5 z M 15 5 C 15 9.4030184 15.948935 18.550924 16 19.041016 L 16 27 L 21.992188 27 L 21.992188 26.183594 C 22.247014 26.284214 22.420183 26.350376 22.814453 26.5 C 23.467951 26.748 24.287788 27 25.238281 27 L 32 27 L 32 26 C 32 26 32.01372 24.852523 31.558594 23.646484 C 31.331029 23.043465 30.978497 22.39599 30.388672 21.875 C 29.798846 21.35401 28.956042 21 27.980469 21 C 27.187727 21 26.763821 20.719822 26.214844 20.318359 C 25.37844 19.705871 25.072263 18.987791 25 18.806641 L 25 5 L 23 5 L 23 18 L 17.904297 18 C 17.659297 15.523 17 8.538 17 5 L 15 5 z M 6.4023438 12.25 L 10.21875 16.068359 C 10.108537 16.51225 9.9974215 17.122054 9.9980469 17.875 L 9.9980469 17.876953 C 9.9991169 18.796656 10.139846 20.233596 11.335938 21.429688 C 11.883897 21.977646 11.99918 22.383349 11.998047 22.746094 C 11.996447 23.266962 11.649229 23.805598 11.306641 24.228516 L 7.9824219 20.904297 C 7.5622593 20.484134 7.2721342 19.966926 7.03125 19.431641 C 6.7903658 18.896355 6.6379325 18.370932 6.3027344 17.84375 L 6.2421875 17.75 L 4.9804688 16.488281 L 4.2734375 17.195312 L 2.8652344 15.787109 L 6.4023438 12.25 z M 18 20 L 23.365234 20 C 23.65978 20.541942 24.166839 21.29578 25.035156 21.931641 C 25.662179 22.390178 26.63321 23 27.980469 23 C 28.514395 23 28.805185 23.14599 29.064453 23.375 C 29.323721 23.60401 29.537689 23.956535 29.6875 24.353516 C 29.805156 24.665291 29.76465 24.725249 29.810547 25 L 25.238281 25 C 24.643775 25 24.074142 24.839109 23.525391 24.630859 C 22.976639 24.42261 22.495238 24.159011 21.884766 24.023438 L 21.777344 24 L 19.992188 24 L 19.992188 25 L 18 25 L 18 20 z" font-weight="400" font-family="sans-serif" white-space="normal" overflow="visible"></path>
</svg>
