<?xml version="1.0" encoding="UTF-8"?>
<svg xmlns="http://www.w3.org/2000/svg" xmlns:xlink="http://www.w3.org/1999/xlink" viewBox="0 0 32 32" version="1.1">
<g>
<path d="M 8.3125 3 C 6.167969 3 4 4.679688 4 7.25 C 4 8.816406 4.753906 10.117188 5.15625 10.6875 C 3.527344 13.75 3 17.027344 3 19 L 3 19.5 L 3.40625 19.8125 C 5.753906 21.589844 7.171875 23.730469 8.875 25.59375 C 10.578125 27.457031 12.707031 29 16 29 C 19.292969 29 21.421875 27.457031 23.125 25.59375 C 24.828125 23.730469 26.246094 21.589844 28.59375 19.8125 L 29 19.5 L 29 19 C 29 17.027344 28.472656 13.75 26.84375 10.6875 C 27.246094 10.117188 28 8.816406 28 7.25 C 28 4.679688 25.832031 3 23.6875 3 C 21.804688 3 20.519531 3.886719 19.8125 4.5625 C 18.667969 4.199219 17.402344 4 16 4 C 14.597656 4 13.332031 4.199219 12.1875 4.5625 C 11.480469 3.886719 10.195313 3 8.3125 3 Z M 8.3125 5 C 9.101563 5 9.6875 5.203125 10.125 5.4375 C 8.605469 6.28125 7.375 7.445313 6.40625 8.71875 C 6.195313 8.273438 6 7.753906 6 7.25 C 6 5.800781 7.191406 5 8.3125 5 Z M 23.6875 5 C 24.808594 5 26 5.800781 26 7.25 C 26 7.753906 25.804688 8.273438 25.59375 8.71875 C 24.625 7.445313 23.394531 6.28125 21.875 5.4375 C 22.3125 5.203125 22.898438 5 23.6875 5 Z M 14.34375 6.09375 C 14.699219 6.636719 15.300781 7 16 7 C 16.691406 7 17.296875 6.65625 17.65625 6.125 C 18.585938 6.257813 19.433594 6.488281 20.1875 6.8125 C 20.082031 7.019531 20 7.25 20 7.5 C 20 8.328125 20.671875 9 21.5 9 C 21.976563 9 22.414063 8.785156 22.6875 8.4375 C 23.519531 9.203125 24.210938 10.097656 24.78125 11.0625 C 25.1875 11.75 25.535156 12.472656 25.8125 13.1875 C 25.332031 13.4375 25 13.921875 25 14.5 C 25 15.328125 25.671875 16 26.5 16 C 26.539063 16 26.585938 16.003906 26.625 16 C 26.828125 17.011719 26.914063 17.917969 26.9375 18.625 C 26.886719 18.667969 26.832031 18.707031 26.78125 18.75 C 26.519531 18.304688 26.054688 18 25.5 18 C 24.671875 18 24 18.671875 24 19.5 C 24 20.027344 24.273438 20.484375 24.6875 20.75 C 23.507813 22.007813 22.542969 23.246094 21.625 24.25 C 20.078125 25.941406 18.710938 27 16 27 C 13.289063 27 11.921875 25.941406 10.375 24.25 C 9.457031 23.246094 8.492188 22.007813 7.3125 20.75 C 7.726563 20.484375 8 20.027344 8 19.5 C 8 18.671875 7.328125 18 6.5 18 C 5.945313 18 5.480469 18.304688 5.21875 18.75 C 5.167969 18.707031 5.113281 18.667969 5.0625 18.625 C 5.085938 17.917969 5.171875 17.011719 5.375 16 C 5.414063 16.003906 5.460938 16 5.5 16 C 6.328125 16 7 15.328125 7 14.5 C 7 13.921875 6.667969 13.4375 6.1875 13.1875 C 6.464844 12.472656 6.8125 11.75 7.21875 11.0625 C 7.789063 10.097656 8.480469 9.203125 9.3125 8.4375 C 9.585938 8.785156 10.023438 9 10.5 9 C 11.328125 9 12 8.328125 12 7.5 C 12 7.25 11.917969 7.019531 11.8125 6.8125 C 12.566406 6.488281 13.410156 6.222656 14.34375 6.09375 Z M 16 9 C 15.449219 9 15 9.449219 15 10 C 15 10.550781 15.449219 11 16 11 C 16.550781 11 17 10.550781 17 10 C 17 9.449219 16.550781 9 16 9 Z M 9 11 C 9 11 8.257813 11.914063 8 13 L 10 13 L 10 14 L 11.96875 14 C 11.980469 14.066406 12 14.121094 12 14.1875 C 12 14.433594 11.921875 14.601563 11.71875 14.875 C 11.515625 15.148438 11.199219 15.492188 10.8125 15.875 C 10.035156 16.640625 9 17.765625 9 19.46875 C 9 21.644531 10.875 22.96875 10.875 22.96875 L 12.125 21.40625 C 12.125 21.40625 11 20.332031 11 19.46875 C 11 18.515625 11.464844 17.992188 12.1875 17.28125 C 12.550781 16.925781 12.984375 16.550781 13.34375 16.0625 C 13.703125 15.574219 14 14.9375 14 14.1875 C 14 13.28125 13.605469 12.496094 13.0625 11.9375 C 12.519531 11.378906 11.808594 11 11 11 Z M 21 11 C 20.191406 11 19.480469 11.378906 18.9375 11.9375 C 18.394531 12.496094 18 13.28125 18 14.1875 C 18 14.9375 18.296875 15.574219 18.65625 16.0625 C 19.015625 16.550781 19.449219 16.925781 19.8125 17.28125 C 20.535156 17.992188 21 18.515625 21 19.46875 C 21 20.332031 19.875 21.40625 19.875 21.40625 L 21.125 22.96875 C 21.125 22.96875 23 21.644531 23 19.46875 C 23 17.765625 21.964844 16.640625 21.1875 15.875 C 20.800781 15.492188 20.484375 15.148438 20.28125 14.875 C 20.078125 14.601563 20 14.433594 20 14.1875 C 20 14.121094 20.019531 14.066406 20.03125 14 L 22 14 L 22 13 L 24 13 C 23.742188 11.914063 23 11 23 11 Z M 14.1875 18 C 12.675781 18 12.09375 19.4375 12.09375 19.4375 L 13.90625 20.28125 C 13.90625 20.28125 14.113281 20 14.1875 20 C 14.261719 20 14.625 20.097656 14.90625 20.25 C 15.1875 20.402344 15.40625 20.5625 15.40625 20.5625 L 16 21.03125 L 16.59375 20.5625 C 16.59375 20.5625 16.8125 20.402344 17.09375 20.25 C 17.375 20.097656 17.738281 20 17.8125 20 C 17.886719 20 18.09375 20.28125 18.09375 20.28125 L 19.90625 19.4375 C 19.90625 19.4375 19.324219 18 17.8125 18 C 17.09375 18 16.546875 18.269531 16.125 18.5 C 16.046875 18.542969 16.066406 18.554688 16 18.59375 C 15.933594 18.554688 15.953125 18.542969 15.875 18.5 C 15.453125 18.269531 14.90625 18 14.1875 18 Z M 15 22 C 15 22.464844 14.84375 22.558594 14.40625 22.75 C 13.96875 22.941406 13.3125 23 13 23 L 13 25 C 13.511719 25 14.363281 24.933594 15.21875 24.5625 C 15.488281 24.445313 15.75 24.277344 16 24.0625 C 16.25 24.277344 16.511719 24.445313 16.78125 24.5625 C 17.636719 24.933594 18.488281 25 19 25 L 19 23 C 18.6875 23 18.03125 22.941406 17.59375 22.75 C 17.15625 22.558594 17 22.464844 17 22 Z "></path>
</g>
</svg>
