<?xml version="1.0" encoding="UTF-8"?>
<svg xmlns="http://www.w3.org/2000/svg" xmlns:xlink="http://www.w3.org/1999/xlink" viewBox="0 0 32 32" version="1.1">
<g>
<path d="M 16 4 C 14.910156 4 14.222656 4.703125 13.8125 5.09375 C 13.402344 5.484375 13.28125 5.625 12.75 5.625 C 12.078125 5.625 11.488281 5.792969 11 6.03125 C 10.875 6.007813 10.753906 6 10.625 6 C 9.980469 6 9.402344 6.222656 8.96875 6.5625 C 8.535156 6.902344 8.257813 7.300781 8.0625 7.6875 C 7.667969 8.460938 7.441406 9.183594 7.28125 9.375 C 7.242188 9.421875 6.925781 9.699219 6.59375 10.03125 C 6.261719 10.363281 5.882813 10.769531 5.5625 11.3125 C 4.925781 12.402344 4.71875 14.105469 5.84375 15.71875 C 6.066406 16.039063 5.980469 16.421875 6.09375 17.34375 C 6.207031 18.265625 6.742188 19.476563 8.21875 20.5 C 8.5625 20.738281 8.882813 21.195313 9.25 21.78125 C 9.617188 22.367188 10.050781 23.109375 10.875 23.59375 C 11.574219 24.003906 12.085938 24.226563 12.40625 24.59375 C 12.726563 24.960938 13 25.546875 13 27 L 13 28 L 18 28 L 18 27 C 18 25.605469 18.308594 25.265625 18.71875 24.96875 C 19.128906 24.671875 19.855469 24.519531 20.6875 24.03125 C 21.546875 23.527344 22.023438 22.757813 22.5 22.0625 C 22.976563 21.367188 23.460938 20.722656 23.78125 20.5 C 25.257813 19.476563 25.792969 18.265625 25.90625 17.34375 C 26.019531 16.421875 25.933594 16.039063 26.15625 15.71875 C 27.28125 14.105469 27.074219 12.402344 26.4375 11.3125 C 26.117188 10.769531 25.738281 10.363281 25.40625 10.03125 C 25.074219 9.699219 24.757813 9.421875 24.71875 9.375 C 24.558594 9.183594 24.332031 8.460938 23.9375 7.6875 C 23.742188 7.300781 23.464844 6.902344 23.03125 6.5625 C 22.597656 6.222656 22.019531 6 21.375 6 C 21.214844 6 21.0625 6.027344 20.90625 6.0625 C 20.347656 5.800781 19.6875 5.625 18.9375 5.625 C 18.921875 5.625 18.9375 5.664063 18.84375 5.59375 C 18.75 5.523438 18.589844 5.347656 18.375 5.125 C 17.941406 4.679688 17.132813 4 16 4 Z M 16 6 C 16.433594 6 16.574219 6.160156 16.9375 6.53125 C 17.117188 6.71875 17.316406 6.953125 17.625 7.1875 C 17.933594 7.421875 18.414063 7.625 18.9375 7.625 C 19.027344 7.625 19.105469 7.648438 19.1875 7.65625 C 19.039063 8.019531 18.925781 8.402344 18.875 8.8125 C 18.867188 8.816406 18.878906 8.8125 18.84375 8.84375 C 18.722656 8.941406 18.449219 9.101563 18.125 9.34375 C 17.472656 9.828125 16.675781 10.875 16.84375 12.34375 C 16.933594 13.140625 16.867188 13.441406 16.71875 14.03125 C 16.570313 14.621094 16.316406 15.445313 16.1875 16.90625 C 16.144531 17.375 16.050781 17.667969 15.9375 17.9375 C 15.886719 17.648438 15.847656 17.3125 15.8125 16.90625 C 15.683594 15.445313 15.429688 14.621094 15.28125 14.03125 C 15.132813 13.441406 15.066406 13.140625 15.15625 12.34375 C 15.324219 10.875 14.527344 9.828125 13.875 9.34375 C 13.550781 9.101563 13.277344 8.941406 13.15625 8.84375 C 13.121094 8.8125 13.132813 8.816406 13.125 8.8125 C 13.070313 8.394531 12.964844 7.996094 12.8125 7.625 C 13.953125 7.601563 14.742188 6.953125 15.1875 6.53125 C 15.640625 6.101563 15.6875 6 16 6 Z M 10.625 8 C 10.699219 8 10.730469 7.972656 10.84375 8.125 C 10.957031 8.277344 11.070313 8.632813 11.125 9.09375 C 11.195313 9.695313 11.59375 10.15625 11.90625 10.40625 C 12.21875 10.65625 12.488281 10.789063 12.6875 10.9375 C 13.085938 11.234375 13.253906 11.257813 13.15625 12.125 C 13.039063 13.144531 13.179688 13.859375 13.34375 14.5 C 13.507813 15.140625 13.695313 15.773438 13.8125 17.09375 C 13.933594 18.464844 14.210938 19.363281 14.53125 20 C 14.09375 20.667969 13.691406 21.535156 13.40625 22.8125 C 12.851563 22.363281 12.285156 22.113281 11.875 21.875 C 11.601563 21.714844 11.296875 21.328125 10.9375 20.75 C 10.578125 20.171875 10.167969 19.425781 9.375 18.875 C 8.234375 18.082031 8.164063 17.660156 8.09375 17.09375 C 8.023438 16.527344 8.160156 15.582031 7.46875 14.59375 C 6.714844 13.507813 6.910156 12.980469 7.28125 12.34375 C 7.46875 12.027344 7.726563 11.710938 8 11.4375 C 8.273438 11.164063 8.558594 10.957031 8.8125 10.65625 C 9.445313 9.90625 9.59375 9.085938 9.84375 8.59375 C 9.96875 8.347656 10.085938 8.203125 10.1875 8.125 C 10.289063 8.046875 10.359375 8 10.625 8 Z M 21.28125 8 C 21.3125 7.988281 21.339844 8 21.375 8 C 21.640625 8 21.710938 8.046875 21.8125 8.125 C 21.914063 8.203125 22.03125 8.347656 22.15625 8.59375 C 22.40625 9.085938 22.554688 9.90625 23.1875 10.65625 C 23.441406 10.957031 23.726563 11.164063 24 11.4375 C 24.273438 11.710938 24.53125 12.027344 24.71875 12.34375 C 25.089844 12.980469 25.285156 13.507813 24.53125 14.59375 C 23.839844 15.582031 23.976563 16.558594 23.90625 17.125 C 23.835938 17.691406 23.765625 18.082031 22.625 18.875 C 21.8125 19.441406 21.316406 20.25 20.84375 20.9375 C 20.371094 21.625 19.925781 22.171875 19.6875 22.3125 C 19.289063 22.546875 18.40625 22.710938 17.53125 23.34375 C 16.851563 23.835938 16.402344 24.800781 16.1875 26 L 15.09375 26 C 15.222656 23.160156 15.703125 21.753906 16.28125 20.9375 C 16.609375 20.472656 17.023438 20.09375 17.40625 19.5 C 17.789063 18.90625 18.097656 18.117188 18.1875 17.09375 C 18.304688 15.773438 18.492188 15.140625 18.65625 14.5 C 18.820313 13.859375 18.960938 13.144531 18.84375 12.125 C 18.746094 11.257813 18.914063 11.234375 19.3125 10.9375 C 19.511719 10.789063 19.78125 10.660156 20.09375 10.40625 C 20.40625 10.152344 20.804688 9.695313 20.875 9.09375 C 20.929688 8.632813 21.042969 8.277344 21.15625 8.125 C 21.214844 8.046875 21.25 8.011719 21.28125 8 Z "></path>
</g>
</svg>
