<?xml version="1.0" encoding="UTF-8"?>
<svg xmlns="http://www.w3.org/2000/svg" xmlns:xlink="http://www.w3.org/1999/xlink" viewBox="0 0 32 32" version="1.1">
<g>
<path d="M 14.75 3 C 13.78125 3 13 3.792969 13 4.75 C 13 5.34375 13.59375 5.90625 13.59375 5.90625 L 16.5 8.84375 L 19.40625 5.90625 C 19.40625 5.90625 20 5.34375 20 4.75 C 20 3.796875 19.21875 3 18.25 3 C 17.28125 3 16.5 3.875 16.5 3.875 C 16.5 3.875 15.71875 3 14.75 3 Z M 10 9 C 7.414063 9 4.679688 9.328125 2.8125 11.78125 C 0.945313 14.234375 0 18.429688 0 26 L 0 27 L 6.15625 27 C 6.949219 27.613281 7.894531 28 9 28 C 10.101563 28 11.050781 27.613281 11.84375 27 L 20.15625 27 C 20.949219 27.613281 21.894531 28 23 28 C 24.101563 28 25.050781 27.613281 25.84375 27 L 32 27 L 32 26 C 32 18.859375 31.066406 14.953125 29.65625 12.6875 C 28.425781 10.703125 26.777344 10.234375 25.5625 10.125 L 24.71875 9.28125 L 24.40625 9 L 24 9 C 22.183594 9 20.355469 9.128906 18.71875 10.09375 C 17.617188 10.742188 16.679688 11.769531 15.9375 13.25 C 15.839844 13.0625 15.761719 12.855469 15.65625 12.6875 C 14.425781 10.703125 12.777344 10.234375 11.5625 10.125 L 10.71875 9.28125 L 10.40625 9 Z M 9.59375 11.03125 L 10.28125 11.71875 L 10.59375 12 L 11 12 C 11.917969 12 12.875 12.042969 13.9375 13.75 C 14.933594 15.351563 15.824219 18.855469 15.9375 25 L 13.53125 25 C 13.582031 24.90625 13.636719 24.8125 13.6875 24.71875 C 14.605469 22.949219 15 20.835938 15 19 L 13 19 C 13 20.53125 12.625 22.425781 11.90625 23.8125 C 11.1875 25.199219 10.28125 26 9 26 C 7.722656 26 6.8125 25.203125 6.09375 23.8125 C 5.375 22.421875 5 20.523438 5 19 C 5 18.265625 5.121094 18.234375 5.625 18.03125 C 6.128906 17.828125 7.054688 17.730469 8.0625 17.65625 C 9.070313 17.582031 10.183594 17.542969 11.1875 17.0625 C 12.191406 16.582031 13 15.445313 13 14 L 11 14 C 11 14.871094 10.808594 15.015625 10.3125 15.25 C 9.816406 15.484375 8.929688 15.585938 7.9375 15.65625 C 6.945313 15.726563 5.871094 15.753906 4.875 16.15625 C 3.878906 16.558594 3 17.632813 3 19 C 3 20.828125 3.394531 22.945313 4.3125 24.71875 C 4.359375 24.8125 4.417969 24.90625 4.46875 25 L 2.09375 25 C 2.203125 18.425781 3.113281 14.699219 4.40625 13 C 5.691406 11.308594 7.382813 11.058594 9.59375 11.03125 Z M 23.59375 11.03125 L 24.28125 11.71875 L 24.59375 12 L 25 12 C 25.917969 12 26.875 12.042969 27.9375 13.75 C 28.933594 15.351563 29.824219 18.855469 29.9375 25 L 27.53125 25 C 27.582031 24.90625 27.636719 24.8125 27.6875 24.71875 C 28.605469 22.949219 29 20.835938 29 19 L 27 19 C 27 20.53125 26.625 22.425781 25.90625 23.8125 C 25.1875 25.199219 24.28125 26 23 26 C 21.722656 26 20.8125 25.203125 20.09375 23.8125 C 19.375 22.421875 19 20.523438 19 19 C 19 18.265625 19.121094 18.234375 19.625 18.03125 C 20.128906 17.828125 21.054688 17.730469 22.0625 17.65625 C 23.070313 17.582031 24.183594 17.542969 25.1875 17.0625 C 26.191406 16.582031 27 15.445313 27 14 L 25 14 C 25 14.871094 24.808594 15.015625 24.3125 15.25 C 23.816406 15.484375 22.929688 15.585938 21.9375 15.65625 C 20.945313 15.726563 19.871094 15.753906 18.875 16.15625 C 18.253906 16.40625 17.6875 16.910156 17.34375 17.59375 C 17.234375 17.023438 17.164063 16.457031 17.03125 15.96875 C 17.71875 13.585938 18.640625 12.449219 19.71875 11.8125 C 20.742188 11.207031 22.066406 11.054688 23.59375 11.03125 Z M 6.96875 19 C 6.433594 19 6 19.449219 6 20 C 6 20.550781 6.433594 21 6.96875 21 C 7.503906 21 7.9375 20.550781 7.9375 20 C 7.9375 19.449219 7.503906 19 6.96875 19 Z M 11 19 C 10.449219 19 10 19.449219 10 20 C 10 20.550781 10.449219 21 11 21 C 11.550781 21 12 20.550781 12 20 C 12 19.449219 11.550781 19 11 19 Z M 20.96875 19 C 20.433594 19 20 19.449219 20 20 C 20 20.550781 20.433594 21 20.96875 21 C 21.503906 21 21.9375 20.550781 21.9375 20 C 21.9375 19.449219 21.503906 19 20.96875 19 Z M 25 19 C 24.449219 19 24 19.449219 24 20 C 24 20.550781 24.449219 21 25 21 C 25.550781 21 26 20.550781 26 20 C 26 19.449219 25.550781 19 25 19 Z M 17.96875 23.96875 C 18.074219 24.222656 18.1875 24.476563 18.3125 24.71875 C 18.359375 24.8125 18.417969 24.90625 18.46875 25 L 18 25 C 17.996094 24.652344 17.976563 24.300781 17.96875 23.96875 Z "></path>
</g>
</svg>
