<?xml version="1.0" encoding="UTF-8"?>
<svg xmlns="http://www.w3.org/2000/svg" xmlns:xlink="http://www.w3.org/1999/xlink" viewBox="0 0 32 32" version="1.1">
<g>
<path d="M 13.75 3 C 12.78125 3 12 3.792969 12 4.75 C 12 5.34375 12.59375 5.90625 12.59375 5.90625 L 15.5 8.84375 L 18.40625 5.90625 C 18.40625 5.90625 19 5.34375 19 4.75 C 19 3.796875 18.21875 3 17.25 3 C 16.28125 3 15.5 3.875 15.5 3.875 C 15.5 3.875 14.71875 3 13.75 3 Z M 8.9375 8 C 6.042969 8 3.910156 8.726563 2.5625 10.25 C 1.214844 11.773438 0.78125 13.90625 0.78125 16.375 L 0.78125 17.0625 C 0.335938 17.539063 0 18.113281 0 18.8125 C 0 19.855469 0.703125 20.644531 1.59375 21.0625 C 1.875 21.992188 2.191406 22.949219 2.53125 23.78125 C 2.914063 24.722656 3.238281 25.460938 3.75 26.03125 C 6.054688 28.59375 9.945313 28.59375 12.25 26.03125 C 12.761719 25.460938 13.085938 24.722656 13.46875 23.78125 C 13.808594 22.945313 14.125 21.992188 14.40625 21.0625 C 15.296875 20.644531 16 19.855469 16 18.8125 C 16 18.113281 15.667969 17.539063 15.21875 17.0625 L 15.21875 16.375 C 15.21875 11.992188 12.917969 9.511719 10.46875 9.15625 L 9.6875 8.3125 L 9.375 8 Z M 16 18.8125 C 16 19.855469 16.703125 20.644531 17.59375 21.0625 C 17.875 21.992188 18.191406 22.949219 18.53125 23.78125 C 18.914063 24.722656 19.238281 25.460938 19.75 26.03125 C 22.054688 28.59375 25.945313 28.59375 28.25 26.03125 C 28.761719 25.460938 29.085938 24.722656 29.46875 23.78125 C 29.808594 22.945313 30.125 21.992188 30.40625 21.0625 C 31.296875 20.644531 32 19.855469 32 18.8125 C 32 18.113281 31.667969 17.539063 31.21875 17.0625 L 31.21875 16.375 C 31.21875 11.992188 28.917969 9.511719 26.46875 9.15625 L 25.6875 8.3125 L 25.375 8 L 24.9375 8 C 22.042969 8 19.910156 8.726563 18.5625 10.25 C 17.214844 11.773438 16.78125 13.90625 16.78125 16.375 L 16.78125 17.0625 C 16.335938 17.539063 16 18.113281 16 18.8125 Z M 8.5625 10.0625 L 9.03125 10.53125 C 9.25 11.011719 9.359375 11.371094 9.375 11.5625 C 9.390625 11.765625 9.367188 11.75 9.34375 11.78125 C 9.300781 11.839844 8.863281 12.078125 8.15625 12.25 C 7.449219 12.421875 6.566406 12.574219 5.71875 13.09375 C 4.871094 13.613281 4.167969 14.65625 4.15625 16 L 6.15625 16 C 6.164063 15.207031 6.34375 15.03125 6.75 14.78125 C 7.15625 14.53125 7.859375 14.375 8.625 14.1875 C 9.390625 14 10.3125 13.820313 10.9375 12.96875 C 11.226563 12.574219 11.359375 12.058594 11.34375 11.53125 C 12.324219 12.230469 13.21875 13.699219 13.21875 16.375 L 13.21875 17.96875 L 13.6875 18.25 C 13.855469 18.351563 14 18.546875 14 18.8125 C 14 19.179688 13.769531 19.414063 13.5 19.4375 L 12.8125 19.5 L 12.625 20.15625 C 12.339844 21.136719 11.972656 22.171875 11.625 23.03125 C 11.277344 23.890625 10.863281 24.628906 10.78125 24.71875 C 9.195313 26.480469 6.804688 26.480469 5.21875 24.71875 C 5.136719 24.628906 4.722656 23.890625 4.375 23.03125 C 4.027344 22.171875 3.660156 21.136719 3.375 20.15625 L 3.1875 19.5 L 2.5 19.4375 C 2.230469 19.414063 2 19.179688 2 18.8125 C 2 18.554688 2.140625 18.351563 2.3125 18.25 L 2.78125 17.96875 L 2.78125 16.34375 C 2.785156 14.136719 3.195313 12.574219 4.0625 11.59375 C 4.882813 10.667969 6.28125 10.128906 8.5625 10.0625 Z M 24.5625 10.0625 L 25.03125 10.53125 C 25.25 11.011719 25.359375 11.371094 25.375 11.5625 C 25.390625 11.765625 25.367188 11.75 25.34375 11.78125 C 25.300781 11.839844 24.863281 12.078125 24.15625 12.25 C 23.449219 12.421875 22.566406 12.574219 21.71875 13.09375 C 20.871094 13.613281 20.167969 14.65625 20.15625 16 L 22.15625 16 C 22.164063 15.207031 22.34375 15.03125 22.75 14.78125 C 23.15625 14.53125 23.859375 14.375 24.625 14.1875 C 25.390625 14 26.3125 13.820313 26.9375 12.96875 C 27.226563 12.574219 27.359375 12.058594 27.34375 11.53125 C 28.324219 12.230469 29.21875 13.699219 29.21875 16.375 L 29.21875 17.96875 L 29.6875 18.25 C 29.855469 18.351563 30 18.546875 30 18.8125 C 30 19.179688 29.769531 19.414063 29.5 19.4375 L 28.8125 19.5 L 28.625 20.15625 C 28.339844 21.136719 27.972656 22.171875 27.625 23.03125 C 27.277344 23.890625 26.863281 24.628906 26.78125 24.71875 C 25.195313 26.480469 22.804688 26.480469 21.21875 24.71875 C 21.136719 24.628906 20.722656 23.890625 20.375 23.03125 C 20.027344 22.171875 19.660156 21.136719 19.375 20.15625 L 19.1875 19.5 L 18.5 19.4375 C 18.230469 19.414063 18 19.179688 18 18.8125 C 18 18.554688 18.140625 18.351563 18.3125 18.25 L 18.78125 17.96875 L 18.78125 16.34375 C 18.785156 14.136719 19.195313 12.574219 20.0625 11.59375 C 20.882813 10.667969 22.28125 10.128906 24.5625 10.0625 Z M 6 18 C 5.449219 18 5 18.449219 5 19 C 5 19.550781 5.449219 20 6 20 C 6.550781 20 7 19.550781 7 19 C 7 18.449219 6.550781 18 6 18 Z M 10 18 C 9.449219 18 9 18.449219 9 19 C 9 19.550781 9.449219 20 10 20 C 10.550781 20 11 19.550781 11 19 C 11 18.449219 10.550781 18 10 18 Z M 22 18 C 21.449219 18 21 18.449219 21 19 C 21 19.550781 21.449219 20 22 20 C 22.550781 20 23 19.550781 23 19 C 23 18.449219 22.550781 18 22 18 Z M 26 18 C 25.449219 18 25 18.449219 25 19 C 25 19.550781 25.449219 20 26 20 C 26.550781 20 27 19.550781 27 19 C 27 18.449219 26.550781 18 26 18 Z "></path>
</g>
</svg>
