<?xml version="1.0" encoding="UTF-8"?>
<svg xmlns="http://www.w3.org/2000/svg" xmlns:xlink="http://www.w3.org/1999/xlink" viewBox="0 0 32 32" version="1.1">
<g>
<path d="M 16 3 C 9.515625 3 4.125 7.78125 3.15625 14 L 0.5 14 L 4 18.375 L 7.5 14 L 5.1875 14 C 6.125 8.875 10.597656 5 16 5 C 19.042969 5 21.789063 6.226563 23.78125 8.21875 L 25.1875 6.8125 C 22.835938 4.460938 19.585938 3 16 3 Z M 16 10 C 13.800781 10 12 11.800781 12 14 C 12 15.113281 12.476563 16.117188 13.21875 16.84375 C 11.886719 17.746094 11 19.28125 11 21 L 13 21 C 13 19.332031 14.332031 18 16 18 C 17.667969 18 19 19.332031 19 21 L 21 21 C 21 19.34375 20.15625 17.878906 18.90625 16.96875 C 19.234375 16.753906 19.550781 16.53125 19.84375 16.3125 C 20.90625 15.515625 21.71875 14.71875 21.71875 14.71875 L 22.40625 14 L 21.71875 13.3125 C 21.71875 13.3125 20.933594 12.488281 19.875 11.6875 C 18.816406 10.886719 17.515625 10 16 10 Z M 16 12 C 16.542969 12 17.730469 12.613281 18.65625 13.3125 C 19.121094 13.664063 19.179688 13.738281 19.46875 14 C 19.175781 14.261719 19.121094 14.339844 18.65625 14.6875 C 17.71875 15.390625 16.496094 16 16 16 C 14.882813 16 14 15.117188 14 14 C 14 12.882813 14.882813 12 16 12 Z M 28 12.625 L 24.5 17 L 26.9375 17 C 26.433594 22.613281 21.75 27 16 27 C 12.957031 27 10.210938 25.773438 8.21875 23.78125 L 6.8125 25.1875 C 9.164063 27.539063 12.417969 29 16 29 C 22.824219 29 28.417969 23.695313 28.9375 17 L 31.5 17 Z "></path>
</g>
</svg>
