<?xml version="1.0" encoding="UTF-8"?>
<svg xmlns="http://www.w3.org/2000/svg" xmlns:xlink="http://www.w3.org/1999/xlink" viewBox="0 0 32 32" version="1.1">
<g>
<path d="M 8.59375 3 L 7.65625 3.34375 L 5 4.3125 L 5.65625 6.1875 L 7.40625 5.5625 L 14.0625 23.34375 L 14.40625 24.28125 L 15.34375 23.9375 L 25.96875 19.9375 L 25.28125 18.0625 L 15.59375 21.71875 L 8.9375 3.9375 Z M 11 21 C 9.355469 21 8 22.355469 8 24 C 8 25.644531 9.355469 27 11 27 C 12.644531 27 14 25.644531 14 24 C 14 22.355469 12.644531 21 11 21 Z M 11 27 L 5 27 L 5 29 L 27 29 L 27 27 Z M 11 23 C 11.5625 23 12 23.4375 12 24 C 12 24.5625 11.5625 25 11 25 C 10.4375 25 10 24.5625 10 24 C 10 23.4375 10.4375 23 11 23 Z "></path>
</g>
</svg>
