<?xml version="1.0" encoding="UTF-8"?>
<svg xmlns="http://www.w3.org/2000/svg" xmlns:xlink="http://www.w3.org/1999/xlink" viewBox="0 0 32 32" version="1.1">
<g>
<path d="M 12.96875 3 C 12.636719 3 12.308594 3.023438 11.96875 3.0625 C 7.90625 3.519531 4.582031 6.753906 4.0625 10.8125 C 3.652344 14.023438 4.957031 16.996094 7.1875 18.875 C 8.332031 19.839844 9 21.253906 9 22.75 L 9 28 L 11.28125 28 C 11.628906 28.597656 12.261719 29 13 29 C 13.738281 29 14.371094 28.597656 14.71875 28 L 17 28 L 17 22.75 C 17 21.222656 17.734375 19.800781 18.9375 18.75 C 20.816406 17.101563 22 14.691406 22 12 C 22 7.027344 17.933594 2.980469 12.96875 3 Z M 12.96875 5 C 16.871094 4.980469 20 8.113281 20 12 C 20 14.101563 19.089844 15.96875 17.625 17.25 C 16.246094 18.457031 15.40625 20.152344 15.1875 22 L 10.84375 22 C 10.644531 20.210938 9.894531 18.519531 8.5 17.34375 C 6.761719 15.878906 5.738281 13.597656 6.0625 11.0625 C 6.460938 7.941406 9.058594 5.382813 12.1875 5.03125 C 12.453125 5 12.707031 5 12.96875 5 Z M 21.875 18.9375 L 21.875 20.78125 L 22.34375 20.78125 C 21.738281 21.167969 21.238281 21.679688 20.84375 22.28125 L 20.84375 21.9375 L 18.84375 21.9375 L 18.84375 23.8125 L 20.125 23.8125 C 20.03125 24.191406 20 24.59375 20 25 C 20 25.414063 20.0625 25.804688 20.15625 26.1875 L 18.84375 26.1875 L 18.84375 28.0625 L 20.84375 28.0625 L 20.84375 27.78125 C 21.230469 28.351563 21.761719 28.847656 22.34375 29.21875 L 21.875 29.21875 L 21.875 31.0625 L 23.875 31.0625 L 23.875 29.875 C 24.238281 29.960938 24.613281 30 25 30 C 25.386719 30 25.761719 29.960938 26.125 29.875 L 26.125 31.0625 L 28.125 31.0625 L 28.125 29.21875 L 27.65625 29.21875 C 28.261719 28.832031 28.761719 28.320313 29.15625 27.71875 L 29.15625 28.0625 L 31.15625 28.0625 L 31.15625 26.1875 L 29.875 26.1875 C 29.96875 25.808594 30 25.40625 30 25 C 30 24.585938 29.9375 24.195313 29.84375 23.8125 L 31.15625 23.8125 L 31.15625 21.9375 L 29.15625 21.9375 L 29.15625 22.21875 C 28.757813 21.632813 28.230469 21.15625 27.625 20.78125 L 28.125 20.78125 L 28.125 18.9375 L 26.125 18.9375 L 26.125 20.125 C 25.761719 20.039063 25.386719 20 25 20 C 24.613281 20 24.238281 20.039063 23.875 20.125 L 23.875 18.9375 Z M 25 22 C 26.667969 22 28 23.332031 28 25 C 28 26.667969 26.667969 28 25 28 C 23.332031 28 22 26.667969 22 25 C 22 23.332031 23.332031 22 25 22 Z M 11 24 L 15 24 L 15 26 L 11 26 Z "></path>
</g>
</svg>
