<?xml version="1.0" encoding="UTF-8"?>
<svg xmlns="http://www.w3.org/2000/svg" xmlns:xlink="http://www.w3.org/1999/xlink" viewBox="0 0 32 32" version="1.1">
<g>
<path d="M 16 4 C 11.042969 4 7 8.042969 7 13 C 7 15.855469 8.4375 17.875 9.75 19.3125 C 10.40625 20.03125 11.054688 20.644531 11.46875 21.125 C 11.882813 21.605469 12 21.917969 12 22 C 12 22.03125 12 22.0625 12 22.09375 L 12 25 C 12 26.09375 12.90625 27 14 27 L 15 28 L 17 28 L 18 27 C 19.09375 27 20 26.09375 20 25 L 20 22.3125 C 20.003906 22.261719 20.003906 22.207031 20 22.15625 C 20 22.019531 20.148438 21.65625 20.5625 21.15625 C 20.976563 20.65625 21.597656 20.042969 22.25 19.3125 C 23.558594 17.851563 25 15.835938 25 13 C 25 8.042969 20.957031 4 16 4 Z M 16 6 C 19.878906 6 23 9.121094 23 13 C 23 15.167969 21.941406 16.667969 20.75 18 C 20.152344 18.664063 19.523438 19.242188 19 19.875 C 18.71875 20.214844 18.46875 20.589844 18.28125 21 L 13.78125 21 C 13.585938 20.554688 13.28125 20.175781 12.96875 19.8125 C 12.445313 19.207031 11.84375 18.617188 11.25 17.96875 C 10.0625 16.667969 9 15.195313 9 13 C 9 9.121094 12.121094 6 16 6 Z M 13.96875 9.53125 L 12.53125 10.96875 L 14.5625 13 L 12.53125 15.03125 L 13.96875 16.46875 L 16 14.4375 L 18.03125 16.46875 L 19.46875 15.03125 L 17.4375 13 L 19.46875 10.96875 L 18.03125 9.53125 L 16 11.5625 Z M 14 23 L 18 23 L 18 25 L 14 25 Z "></path>
</g>
</svg>
