<?xml version="1.0" encoding="UTF-8"?>
<svg xmlns="http://www.w3.org/2000/svg" xmlns:xlink="http://www.w3.org/1999/xlink" viewBox="0 0 32 32" version="1.1">
<g>
<path d="M 4 4 L 4 28 L 6 28 L 6 17 L 7 17 C 8.644531 17 10 15.644531 10 14 L 10 13 C 10 10.246094 12.246094 8 15 8 C 17.753906 8 20 10.246094 20 13 L 20 17.09375 C 18.054688 17.496094 16.496094 19.054688 16.09375 21 L 14 21 L 14 23 L 19 23 C 19 24.105469 19.894531 25 21 25 C 22.105469 25 23 24.105469 23 23 L 28 23 L 28 21 L 25.90625 21 C 25.503906 19.054688 23.945313 17.496094 22 17.09375 L 22 13 C 22 9.15625 18.84375 6 15 6 C 11.15625 6 8 9.15625 8 13 L 8 14 C 8 14.554688 7.554688 15 7 15 L 6 15 L 6 4 Z M 21 19 C 22.300781 19 23.394531 19.84375 23.8125 21 L 18.1875 21 C 18.605469 19.84375 19.699219 19 21 19 Z "></path>
</g>
</svg>
