<?xml version="1.0" encoding="UTF-8"?>
<svg xmlns="http://www.w3.org/2000/svg" xmlns:xlink="http://www.w3.org/1999/xlink" viewBox="0 0 32 32" version="1.1">
<g>
<path d="M 4 4 L 4 28 L 28 28 L 28 4 Z M 6 6 L 26 6 L 26 26 L 6 26 Z M 15 8 L 15 12.15625 C 14.644531 12.246094 14.308594 12.382813 14 12.5625 L 10.21875 8.78125 L 8.78125 10.21875 L 12.5625 14 C 12.378906 14.3125 12.21875 14.640625 12.125 15 L 9 15 L 9 17 L 12 17 L 12 18.5625 L 8.28125 22.28125 L 9.71875 23.71875 L 13.4375 20 L 18.5625 20 L 20.78125 22.21875 L 22.21875 20.78125 L 20 18.5625 L 20 17 L 24 17 L 24 15 L 19.875 15 C 19.78125 14.640625 19.621094 14.3125 19.4375 14 L 21.71875 11.71875 L 20.28125 10.28125 L 18 12.5625 C 17.691406 12.382813 17.355469 12.246094 17 12.15625 L 17 8 Z M 16 14 C 17.191406 14 18 14.808594 18 16 L 18 18 L 14 18 L 14 16 C 14 14.808594 14.808594 14 16 14 Z "></path>
</g>
</svg>
