<?xml version="1.0" encoding="UTF-8"?>
<svg xmlns="http://www.w3.org/2000/svg" xmlns:xlink="http://www.w3.org/1999/xlink" viewBox="0 0 32 32" version="1.1">
<g>
<path d="M 14.375 4 L 10.375 12 L 4 12 L 4 28 L 22.84375 28 C 24.253906 28 25.484375 27.003906 25.78125 25.625 L 27.9375 15.625 C 28.332031 13.777344 26.886719 12 25 12 L 17.21875 12 C 17.292969 11.375 17.308594 10.746094 17.78125 9.3125 C 18.085938 8.386719 18 7.535156 18 7 C 18 6.253906 17.699219 5.566406 17.1875 5 C 16.675781 4.433594 15.90625 4 15 4 Z M 15.5 6.25 C 15.5625 6.296875 15.664063 6.28125 15.71875 6.34375 C 15.90625 6.550781 16 6.835938 16 7 C 16 7.648438 16.019531 8.253906 15.875 8.6875 C 15.128906 10.949219 15 12.9375 15 12.9375 L 14.9375 14 L 25 14 C 25.660156 14 26.105469 14.574219 25.96875 15.21875 L 23.84375 25.21875 C 23.742188 25.6875 23.320313 26 22.84375 26 L 12 26 L 12 13.25 Z M 6 14 L 10 14 L 10 26 L 6 26 Z M 8 23 C 7.449219 23 7 23.449219 7 24 C 7 24.550781 7.449219 25 8 25 C 8.550781 25 9 24.550781 9 24 C 9 23.449219 8.550781 23 8 23 Z "></path>
</g>
</svg>
