<?xml version="1.0" encoding="UTF-8"?>
<svg xmlns="http://www.w3.org/2000/svg" xmlns:xlink="http://www.w3.org/1999/xlink" viewBox="0 0 32 32" version="1.1">
<g>
<path d="M 6 3 L 6 29 L 26 29 L 26 13.4375 L 27.71875 11.71875 L 28 11.40625 L 28 3 Z M 8 5 L 22 5 L 22 11.40625 L 22.28125 11.71875 L 24 13.4375 L 24 27 L 8 27 Z M 24 5 L 26 5 L 26 10.5625 L 25 11.5625 L 24 10.5625 Z M 14 13 C 12.34375 13 11 14.34375 11 16 C 11 16.769531 11.328125 17.550781 11.78125 18 C 12.234375 18.449219 16 22.1875 16 22.1875 C 16 22.1875 19.773438 18.445313 20.21875 18 C 20.664063 17.554688 21 16.769531 21 16 C 21 14.34375 19.65625 13 18 13 C 17.226563 13 16.53125 13.300781 16 13.78125 C 15.46875 13.300781 14.773438 13 14 13 Z "></path>
</g>
</svg>
