<?xml version="1.0" encoding="UTF-8"?>
<svg xmlns="http://www.w3.org/2000/svg" xmlns:xlink="http://www.w3.org/1999/xlink" viewBox="0 0 32 32" version="1.1">
<g>
<path d="M 0 9 L 0 11 L 3 11 L 3 14 L 0 14 L 0 16 L 21.933594 16 L 28.875 16.992188 L 28.890625 16.996094 C 29.410156 17.050781 30 17.625 30 18 L 29 18 L 29 20 L 30 20 L 30 21 L 27.644531 21 C 27.078125 19.824219 25.882813 19 24.5 19 C 23.117188 19 21.921875 19.824219 21.355469 21 L 0.0820313 21 L 0.0820313 23 L 21.050781 23 C 21.296875 24.683594 22.75 26 24.5 26 C 26.25 26 27.703125 24.683594 27.949219 23 L 30 23 C 31.09375 23 32 22.09375 32 21 L 32 18 C 32 16.335938 30.613281 15.171875 29.109375 15.003906 L 22.503906 14.0625 L 19.382813 10.546875 C 18.535156 9.589844 17.328125 9 16 9 Z M 5 11 L 12 11 L 12 14 L 5 14 Z M 14 11 L 16 11 C 16.761719 11 17.371094 11.292969 17.886719 11.875 L 19.777344 14 L 14 14 Z M 24.5 21 C 25.339844 21 26 21.660156 26 22.5 C 26 23.339844 25.339844 24 24.5 24 C 23.660156 24 23 23.339844 23 22.5 C 23 21.660156 23.660156 21 24.5 21 Z "></path>
</g>
</svg>
