<?xml version="1.0" encoding="UTF-8"?>
<svg xmlns="http://www.w3.org/2000/svg" xmlns:xlink="http://www.w3.org/1999/xlink" viewBox="0 0 32 32" version="1.1">
<g>
<path d="M 25.4375 3.003906 C 24.605469 3.003906 23.777344 3.316406 23.148438 3.945313 L 21.941406 5.148438 C 20.875 6.214844 20.726563 7.867188 21.472656 9.109375 L 21.109375 9.476563 C 20.597656 9.167969 20.019531 9.003906 19.4375 9.003906 C 18.605469 9.003906 17.777344 9.316406 17.148438 9.945313 L 15.941406 11.148438 C 14.6875 12.402344 14.6875 14.46875 15.941406 15.722656 L 16.277344 16.058594 C 17.53125 17.3125 19.597656 17.3125 20.851563 16.058594 L 22.054688 14.851563 C 23.121094 13.785156 23.273438 12.132813 22.523438 10.890625 L 22.890625 10.527344 C 24.132813 11.273438 25.78125 11.125 26.851563 10.058594 L 28.054688 8.851563 C 29.308594 7.597656 29.308594 5.53125 28.054688 4.273438 L 27.722656 3.945313 C 27.097656 3.316406 26.265625 3.003906 25.4375 3.003906 Z M 25.4375 4.996094 C 25.75 4.996094 26.070313 5.117188 26.3125 5.359375 L 26.640625 5.6875 C 27.125 6.171875 27.125 6.953125 26.640625 7.4375 L 25.4375 8.640625 C 25.164063 8.914063 24.792969 9.015625 24.4375 8.976563 L 25.707031 7.707031 L 24.292969 6.292969 L 23.019531 7.5625 C 22.984375 7.207031 23.082031 6.835938 23.359375 6.5625 L 24.5625 5.359375 C 24.804688 5.117188 25.121094 4.996094 25.4375 4.996094 Z M 8 7 C 5.242188 7 3 9.242188 3 12 L 3 25 L 15 25 L 15 29 L 17 29 L 17 25 L 27 25 L 27 12.375 C 26.382813 12.691406 25.707031 12.898438 25 12.953125 L 25 23 L 13 23 L 13 12 C 13 10.871094 12.605469 9.839844 11.96875 9 L 15.265625 9 L 15.734375 8.53125 C 16.59375 7.671875 17.78125 7.164063 19.035156 7.070313 C 19.039063 7.046875 19.042969 7.023438 19.046875 7 Z M 8 9 C 9.667969 9 11 10.332031 11 12 L 11 23 L 5 23 L 5 12 C 5 10.347656 6.347656 9 8 9 Z M 19.4375 10.996094 C 19.480469 10.996094 19.519531 11.015625 19.5625 11.019531 L 18.292969 12.292969 L 19.707031 13.707031 L 20.980469 12.4375 C 21.015625 12.792969 20.914063 13.164063 20.640625 13.4375 L 19.4375 14.640625 C 18.953125 15.125 18.171875 15.125 17.6875 14.640625 L 17.359375 14.3125 C 16.875 13.828125 16.875 13.046875 17.359375 12.5625 L 18.5625 11.359375 C 18.804688 11.117188 19.121094 10.996094 19.4375 10.996094 Z M 6 13 L 6 15 L 10 15 L 10 13 Z "></path>
</g>
</svg>
