<?xml version="1.0" encoding="UTF-8"?>
<svg xmlns="http://www.w3.org/2000/svg" xmlns:xlink="http://www.w3.org/1999/xlink" viewBox="0 0 32 32" version="1.1">
<g>
<path d="M 12 2 C 10.566406 2 8.664063 2.605469 7 4.03125 C 5.335938 5.457031 4 7.773438 4 11 C 4 11.996094 4.273438 13.230469 4.53125 14.3125 C 4.765625 15.308594 4.964844 16 5 16.125 C 4.523438 20.53125 5.800781 23.660156 7.28125 25.59375 C 8.777344 27.546875 10.464844 28.355469 10.5 28.375 C 10.5 28.375 10.53125 28.375 10.53125 28.375 C 10.574219 28.398438 13.367188 30 16 30 C 18.632813 30 21.425781 28.398438 21.46875 28.375 C 21.46875 28.375 21.5 28.375 21.5 28.375 C 21.535156 28.355469 23.222656 27.546875 24.71875 25.59375 C 26.199219 23.660156 27.476563 20.53125 27 16.125 C 27.035156 16 27.234375 15.308594 27.46875 14.3125 C 27.726563 13.230469 28 11.996094 28 11 C 28 7.773438 26.664063 5.457031 25 4.03125 C 23.335938 2.605469 21.433594 2 20 2 C 17.941406 2 16.570313 2.621094 16 2.90625 C 15.429688 2.621094 14.058594 2 12 2 Z M 12 4 C 13.96875 4 15.5 4.875 15.5 4.875 L 16 5.15625 L 16.5 4.875 C 16.5 4.875 18.03125 4 20 4 C 20.8125 4 22.414063 4.4375 23.6875 5.53125 C 24.960938 6.625 26 8.308594 26 11 C 26 11.570313 25.773438 12.816406 25.53125 13.84375 C 25.289063 14.871094 25.03125 15.71875 25.03125 15.71875 L 24.96875 15.90625 L 25 16.125 C 25.503906 20.191406 24.363281 22.757813 23.125 24.375 C 22.296875 25.457031 21.472656 26.046875 21 26.34375 L 21 24 L 19.46875 27.09375 C 18.484375 27.503906 17.0625 28 16 28 C 14.9375 28 13.515625 27.503906 12.53125 27.09375 L 11 24 L 11 26.34375 C 10.527344 26.046875 9.703125 25.457031 8.875 24.375 C 7.636719 22.757813 6.496094 20.191406 7 16.125 L 7.03125 15.90625 L 6.96875 15.71875 C 6.96875 15.71875 6.710938 14.871094 6.46875 13.84375 C 6.226563 12.816406 6 11.570313 6 11 C 6 8.308594 7.039063 6.625 8.3125 5.53125 C 9.585938 4.4375 11.1875 4 12 4 Z M 10 8 C 8.78125 8 7.90625 9.125 7.90625 10.6875 C 7.90625 11.804688 8.558594 12.648438 9.125 13.1875 C 9.277344 13.964844 9.554688 14.648438 9.84375 15.25 C 10.273438 16.140625 10.71875 16.960938 11.03125 18.25 L 11.0625 18.25 C 11.023438 18.496094 11 18.753906 11 19 C 11 19.746094 11.25 20.539063 11.78125 21.25 C 12.195313 21.804688 12.828125 22.3125 13.625 22.5 C 14.058594 23.382813 14.957031 24 16 24 C 17.042969 24 17.941406 23.382813 18.375 22.5 C 19.171875 22.3125 19.804688 21.804688 20.21875 21.25 C 20.75 20.539063 21 19.746094 21 19 C 21 18.746094 20.976563 18.503906 20.9375 18.25 L 20.96875 18.25 C 21.28125 16.960938 21.726563 16.140625 22.15625 15.25 C 22.460938 14.613281 22.761719 13.898438 22.90625 13.0625 C 23.441406 12.519531 24 11.71875 24 10.6875 C 24 9.125 23.125 8 21.90625 8 C 21.511719 8 21.210938 8.152344 20.96875 8.28125 C 20.878906 8.328125 20.78125 8.367188 20.6875 8.40625 C 20.148438 8.15625 19.566406 8 19 8 C 17.542969 8 16.558594 8.535156 16 8.875 C 15.441406 8.535156 14.457031 8 13 8 C 12.417969 8 11.828125 8.175781 11.28125 8.4375 C 11.160156 8.390625 11.046875 8.339844 10.9375 8.28125 C 10.695313 8.152344 10.394531 8 10 8 Z M 13 10 C 14.152344 10 15.4375 10.8125 15.4375 10.8125 L 16 11.21875 L 16.5625 10.8125 C 16.5625 10.8125 17.847656 10 19 10 C 19.921875 10 21 10.609375 21 12 C 21 12.957031 20.742188 13.542969 20.34375 14.375 C 20.21875 14.636719 20.082031 14.972656 19.9375 15.28125 C 19.691406 14.707031 19.484375 14.1875 19.28125 13.71875 C 19.941406 13.242188 20 12.300781 20 12 C 18.015625 12.449219 17 13.59375 17 13.59375 C 17 13.59375 17.015625 13.617188 17.0625 13.65625 C 17.378906 14.496094 17.867188 15.507813 18.28125 16.5 C 18.695313 17.492188 19 18.492188 19 19 C 19 19.203125 18.875 19.695313 18.625 20.03125 C 18.375 20.367188 18.105469 20.5625 17.65625 20.5625 C 17.183594 20.5625 16.59375 20.1875 16.59375 20.1875 L 16.1875 19.90625 C 16.335938 19.839844 16.558594 19.730469 16.71875 19.625 C 16.601563 19.480469 16.582031 19.296875 16.6875 19.1875 C 16.800781 19.070313 17.011719 19.101563 17.15625 19.25 C 17.171875 19.265625 17.175781 19.265625 17.1875 19.28125 C 17.453125 19.0625 17.65625 18.851563 17.65625 18.71875 L 17.65625 18.4375 C 17.65625 17.84375 14.34375 17.796875 14.34375 18.4375 L 14.34375 18.875 C 14.34375 18.875 14.566406 19.039063 14.84375 19.25 C 14.988281 19.101563 15.199219 19.070313 15.3125 19.1875 C 15.410156 19.289063 15.410156 19.453125 15.3125 19.59375 C 15.464844 19.703125 15.667969 19.800781 15.8125 19.875 L 15.40625 20.1875 C 15.40625 20.1875 14.816406 20.5625 14.34375 20.5625 C 13.894531 20.5625 13.625 20.367188 13.375 20.03125 C 13.125 19.695313 13 19.203125 13 19 C 13 18.496094 13.296875 17.492188 13.71875 16.5 C 14.140625 15.507813 14.652344 14.5 14.96875 13.65625 C 14.996094 13.632813 15 13.59375 15 13.59375 C 15 13.59375 13.984375 12.449219 12 12 C 12 12.308594 12.054688 13.285156 12.75 13.75 C 12.542969 14.210938 12.3125 14.71875 12.0625 15.28125 C 11.917969 14.972656 11.78125 14.636719 11.65625 14.375 C 11.257813 13.542969 11 12.957031 11 12 C 11 10.609375 12.078125 10 13 10 Z "></path>
</g>
</svg>
