<?xml version="1.0" encoding="UTF-8"?>
<svg xmlns="http://www.w3.org/2000/svg" xmlns:xlink="http://www.w3.org/1999/xlink" viewBox="0 0 32 32" version="1.1">
<g>
<path d="M 19 6 C 17.707031 6 16.441406 6.386719 15.5 7.25 C 14.558594 8.113281 14 9.433594 14 11 C 14 11.738281 14.183594 12.402344 14.46875 13 C 13.898438 13.324219 13.121094 13.796875 12.1875 14.5625 C 10.675781 15.800781 9 17.617188 9 20 L 9 21 C 9 21.566406 8.566406 22 8 22 C 7.449219 22 7 21.53125 7 21 C 7 19.832031 7.8125 18.5625 7.8125 18.5625 L 6.1875 17.4375 C 6.1875 17.4375 5 18.992188 5 21 C 5 22.632813 6.339844 24 8 24 C 8.910156 24 9.730469 23.585938 10.28125 22.9375 C 10.535156 23.191406 10.789063 23.382813 11 23.53125 L 11 24 L 18 24 L 18 22 L 16.84375 22 C 16.980469 21.882813 17.117188 21.769531 17.25 21.625 C 17.644531 21.199219 18 20.59375 18 19.875 C 18 19.183594 17.820313 18.417969 17.28125 17.84375 C 16.742188 17.269531 15.921875 17 15 17 L 15 19 C 15.5625 19 15.757813 19.125 15.84375 19.21875 C 15.929688 19.3125 16 19.496094 16 19.875 C 16 20.011719 15.980469 20.097656 15.8125 20.28125 C 15.644531 20.464844 15.316406 20.664063 14.96875 20.875 C 14.621094 21.085938 14.242188 21.300781 13.875 21.5625 C 13.722656 21.671875 13.5625 21.824219 13.40625 22 L 12.28125 22 C 11.898438 21.71875 11 20.957031 11 20 C 11 18.613281 12.132813 17.164063 13.4375 16.09375 C 14.386719 15.316406 15.171875 14.894531 15.625 14.65625 C 15.859375 14.90625 16.109375 15.136719 16.34375 15.34375 C 17.449219 16.316406 18.53125 16.875 18.53125 16.875 L 19.46875 15.125 C 19.46875 15.125 18.550781 14.632813 17.65625 13.84375 C 16.761719 13.054688 16 12.027344 16 11 C 16 9.886719 16.332031 9.1875 16.84375 8.71875 C 17.355469 8.25 18.109375 8 19 8 C 19.5625 8 20.046875 8.199219 20.4375 8.40625 C 20.148438 8.867188 20 9.421875 20 10 C 20 11.644531 21.355469 13 23 13 L 24 13 L 24 11 L 23 11 C 22.433594 11 22 10.566406 22 10 C 22 9.433594 22.433594 9 23 9 L 25 9 L 25 7 L 23 7 C 22.714844 7 22.449219 7.050781 22.1875 7.125 C 21.578125 6.652344 20.472656 6 19 6 Z M 22 15 C 22 16.464844 20.90625 17.15625 20.90625 17.15625 L 20.59375 17.375 L 20.5 17.78125 L 20.03125 19.78125 L 19.875 20.40625 L 20.40625 20.8125 L 24.65625 24 L 27 24 L 27 22 L 25.34375 22 L 22.125 19.59375 L 22.375 18.5 C 22.84375 18.117188 24 17.058594 24 15 Z M 4 25 L 4 27 L 28 27 L 28 25 Z "></path>
</g>
</svg>
