<?xml version="1.0" encoding="UTF-8"?>
<svg xmlns="http://www.w3.org/2000/svg" xmlns:xlink="http://www.w3.org/1999/xlink" viewBox="0 0 32 32" version="1.1">
<g>
<path d="M 10.875 3 C 10.765625 3.015625 10.660156 3.046875 10.5625 3.09375 L 8.5625 4.09375 C 8.214844 4.261719 7.996094 4.613281 8 5 L 8 8 C 8 8.550781 8.449219 9 9 9 L 9 18 L 6 18 L 6 19 C 6 25.152344 7.0625 28.3125 7.0625 28.3125 L 7.28125 29 L 12.71875 29 L 12.9375 28.3125 C 12.9375 28.3125 14 25.03125 14 19 L 14 18 L 11 18 L 11 9 C 11.550781 9 12 8.550781 12 8 L 12 4 C 12.003906 3.710938 11.878906 3.4375 11.664063 3.246094 C 11.449219 3.054688 11.160156 2.964844 10.875 3 Z M 19 9 L 19 12 L 17 12 L 17 13 C 17 24.125 18.03125 28.25 18.03125 28.25 L 18.21875 29 L 25.78125 29 L 25.96875 28.25 C 25.96875 28.25 27 24.183594 27 13 L 27 12 L 25 12 L 25 9 Z M 21 11 L 23 11 L 23 12 L 21 12 Z M 19.03125 14 L 24.96875 14 C 24.902344 22.761719 24.324219 26.234375 24.15625 27 L 19.875 27 C 19.707031 26.234375 19.097656 22.734375 19.03125 14 Z M 8.0625 20 L 11.9375 20 C 11.835938 24.09375 11.414063 26.292969 11.21875 27 L 8.78125 27 C 8.585938 26.3125 8.164063 24.152344 8.0625 20 Z "></path>
</g>
</svg>
