<?xml version="1.0" encoding="UTF-8"?>
<svg xmlns="http://www.w3.org/2000/svg" xmlns:xlink="http://www.w3.org/1999/xlink" viewBox="0 0 32 32" version="1.1">
<g>
<path d="M 5 5 L 5 27 L 27 27 L 27 5 Z M 7 7 L 17.5625 7 L 7 17.5625 Z M 20.4375 7 L 25 7 L 25 11.5625 L 11.5625 25 L 7 25 L 7 20.4375 L 9.28125 22.71875 L 10.71875 21.28125 L 8.4375 19 L 10 17.4375 L 11.28125 18.71875 L 12.71875 17.28125 L 11.4375 16 L 13 14.4375 L 15.28125 16.71875 L 16.71875 15.28125 L 14.4375 13 L 16 11.4375 L 17.28125 12.71875 L 18.71875 11.28125 L 17.4375 10 L 19 8.4375 L 21.28125 10.71875 L 22.71875 9.28125 Z M 25 14.4375 L 25 25 L 14.4375 25 Z "></path>
</g>
</svg>
