<?xml version="1.0"?>
<svg xmlns="http://www.w3.org/2000/svg" viewBox="0 0 32 32">
    <path d="M 20 4 L 20 8 C 20 9.1666667 19.399005 10.223761 18.667969 11.320312 C 17.936933 12.416868 17 13.5 17 15 A 1.0001 1.0001 0 0 0 17 15.005859 C 17.000555 15.091664 16.999618 15.789735 17 16 L 17 23 C 16.999442 24.247349 17.000244 25.57924 17 26 L 15 26 L 15 16 C 15 14.41228 14.156999 13.097167 13 12.185547 L 13 6 L 7 6 L 7 12.185547 C 5.8430015 13.097167 5 14.41228 5 16 L 5 26 L 3 26 L 3 28 L 5 28 L 15 28 L 29 28 L 29 26 L 27 26 C 26.999217 25.581446 27.00179 24.243419 27 23 L 27 16 C 27.001216 15.790975 26.998245 15.108541 27 15.019531 A 1.0001 1.0001 0 0 0 27 15 C 27 13.5 26.063067 12.416868 25.332031 11.320312 C 24.600995 10.223759 24 9.1666667 24 8 L 24 4 L 22 4 L 20 4 z M 9 8 L 11 8 L 11 10 L 9 10 L 9 8 z M 21.638672 10 L 22.361328 10 C 22.693933 10.92931 23.203835 11.733487 23.667969 12.429688 C 24.436933 13.583133 25 14.5 25 15 L 19 15 C 19 14.5 19.563067 13.583132 20.332031 12.429688 C 20.796165 11.733487 21.306067 10.92931 21.638672 10 z M 9 12 L 11 12 L 11 13.130859 L 11.498047 13.419922 C 12.39835 13.943776 13 14.888155 13 16 L 7 16 C 7 14.888155 7.60165 13.943776 8.5019531 13.419922 L 9 13.130859 L 9 12 z M 19 17 L 25 17 L 25 22 L 19 22 L 19 17 z M 7 18 L 13 18 L 13 21 L 7 21 L 7 18 z M 7 23 L 13 23 L 13 26 L 7 26 L 7 23 z M 19 24 L 25 24 C 25.001397 24.635969 24.999364 25.727063 25 26 L 19 26 C 19.000177 25.722007 18.999612 24.648193 19 24 z"></path>
</svg>
