<?xml version="1.0" encoding="UTF-8"?>
<svg xmlns="http://www.w3.org/2000/svg" xmlns:xlink="http://www.w3.org/1999/xlink" viewBox="0 0 32 32" version="1.1">
<g>
<path d="M 1 5 L 1 28 L 10 28 L 10 5 Z M 17 5 L 17 28 L 26 28 L 26 5 Z M 3 7 L 8 7 L 8 12 L 3 12 Z M 19 7 L 24 7 L 24 12 L 19 12 Z M 4 8 L 4 11 L 7 11 L 7 8 Z M 12 8 L 12 10 L 15 10 L 15 8 Z M 20 8 L 20 11 L 23 11 L 23 8 Z M 28 8 L 28 10 L 31 10 L 31 8 Z M 3 14 L 8 14 L 8 19 L 3 19 Z M 19 14 L 24 14 L 24 19 L 19 19 Z M 5.5 15 C 4.671875 15 4 15.671875 4 16.5 C 4 17.328125 4.671875 18 5.5 18 C 6.328125 18 7 17.328125 7 16.5 C 7 15.671875 6.328125 15 5.5 15 Z M 12 15 L 12 17 L 15 17 L 15 15 Z M 21.5 15 C 20.671875 15 20 15.671875 20 16.5 C 20 17.328125 20.671875 18 21.5 18 C 22.328125 18 23 17.328125 23 16.5 C 23 15.671875 22.328125 15 21.5 15 Z M 28 15 L 28 17 L 31 17 L 31 15 Z M 3 21 L 8 21 L 8 26 L 3 26 Z M 19 21 L 24 21 L 24 26 L 19 26 Z M 5.5 22 L 4 25 L 7 25 Z M 12 22 L 12 24 L 15 24 L 15 22 Z M 21.5 22 L 20 25 L 23 25 Z M 28 22 L 28 24 L 31 24 L 31 22 Z "></path>
</g>
</svg>
