<?xml version="1.0" encoding="UTF-8"?>
<svg xmlns="http://www.w3.org/2000/svg" xmlns:xlink="http://www.w3.org/1999/xlink" viewBox="0 0 32 32" version="1.1">
<g>
<path d="M 20.5 4 C 18.578125 4 17 5.578125 17 7.5 C 17 9.421875 18.578125 11 20.5 11 C 22.421875 11 24 9.421875 24 7.5 C 24 5.578125 22.421875 4 20.5 4 Z M 20.5 6 C 21.339844 6 22 6.660156 22 7.5 C 22 8.339844 21.339844 9 20.5 9 C 19.660156 9 19 8.339844 19 7.5 C 19 6.660156 19.660156 6 20.5 6 Z M 19.84375 12 C 18.332031 12 16.957031 12.867188 16.28125 14.21875 L 15.375 16 L 12 16 L 12 18 L 16.625 18 L 16.90625 17.4375 L 18.03125 15.15625 L 18.0625 15.09375 C 18.402344 14.414063 19.085938 14 19.84375 14 L 21 14 C 22.117188 14 23 14.882813 23 16 L 23 20.03125 L 21.5625 20.75 L 21 21 L 21 28 L 23 28 L 23 22.25 L 25 21.25 L 25 16 C 25 13.800781 23.199219 12 21 12 Z M 10.5 18 L 9 19.5 L 10.5 21 L 12 19.5 Z M 6.21875 20 L 7.09375 28 L 13.90625 28 L 14.78125 20 L 12.78125 20 L 12.09375 26 L 8.90625 26 L 8.21875 20 Z M 18 21 L 18 28 L 20 28 L 20 21 Z M 10.5 22 L 9 23.5 L 10.5 25 L 12 23.5 Z "></path>
</g>
</svg>
