<?xml version="1.0" encoding="UTF-8"?>
<svg xmlns="http://www.w3.org/2000/svg" xmlns:xlink="http://www.w3.org/1999/xlink" viewBox="0 0 32 32" version="1.1">
<g>
<path d="M 26 4 C 24.960938 4 23.609375 4.339844 22.09375 4.6875 C 20.578125 5.035156 18.972656 5.402344 17.9375 5.53125 C 15.886719 5.785156 12.480469 6.238281 9.5 7.9375 C 6.519531 9.636719 4 12.769531 4 17.8125 C 4 22.371094 6.0625 27.375 6.0625 27.375 L 6.3125 28 L 7 28 C 10.914063 28 14.273438 25.5625 16.71875 23.1875 C 17.941406 22 18.9375 20.824219 19.65625 19.90625 C 20.015625 19.449219 20.324219 19.035156 20.53125 18.75 C 20.636719 18.609375 20.722656 18.515625 20.78125 18.4375 C 20.808594 18.398438 20.832031 18.363281 20.84375 18.34375 C 20.828125 18.386719 21.351563 18.070313 22.03125 17.6875 C 22.757813 17.277344 23.699219 16.699219 24.59375 15.8125 C 26.386719 14.035156 28 11.023438 28 6.0625 C 28 5.792969 27.992188 5.332031 27.6875 4.84375 C 27.382813 4.355469 26.695313 4 26 4 Z M 26 6 C 26.003906 6.03125 26 6.011719 26 6.0625 C 26 10.601563 24.597656 12.945313 23.15625 14.375 C 22.4375 15.089844 21.710938 15.574219 21.0625 15.9375 C 21.003906 15.972656 20.964844 16 20.90625 16.03125 C 21.171875 13.023438 20.753906 10.707031 20.15625 9.0625 C 19.902344 8.359375 19.617188 7.8125 19.34375 7.34375 C 20.347656 7.148438 21.457031 6.871094 22.53125 6.625 C 24.035156 6.277344 25.5 6 26 6 Z M 17.1875 7.6875 C 17.230469 7.746094 17.265625 7.773438 17.3125 7.84375 C 17.589844 8.257813 17.96875 8.882813 18.28125 9.75 C 18.898438 11.453125 19.355469 14.09375 18.65625 17.90625 C 18.488281 18.136719 18.328125 18.355469 18.09375 18.65625 C 17.414063 19.523438 16.480469 20.648438 15.34375 21.75 C 13.246094 23.789063 10.503906 25.632813 7.6875 25.90625 C 7.324219 24.925781 6 21.257813 6 17.8125 C 6 13.402344 7.96875 11.132813 10.5 9.6875 C 12.65625 8.457031 15.21875 7.96875 17.1875 7.6875 Z "></path>
</g>
</svg>
