<?xml version="1.0" encoding="UTF-8"?>
<svg xmlns="http://www.w3.org/2000/svg" xmlns:xlink="http://www.w3.org/1999/xlink" viewBox="0 0 32 32" version="1.1">
<g>
<path d="M 5 2 L 5 26.8125 L 5.78125 26.96875 L 17.78125 29.5 L 19 29.75 L 19 27 L 25 27 L 25 21.78125 L 25.90625 21.4375 L 26.84375 21.0625 L 26.5 20.15625 L 24.9375 16 L 25 16 L 25 14.4375 L 26.71875 12.71875 L 27 12.40625 L 27 2 Z M 14.03125 4 L 25 4 L 25 11.5625 L 23.71875 12.84375 L 21.375 6.65625 L 21.03125 5.71875 L 20.09375 6.0625 L 17 7.25 L 17 4.75 L 16.25 4.5625 Z M 7 4.28125 L 15 6.3125 L 15 14.9375 L 17 16.9375 L 17 27.3125 L 7 25.1875 Z M 19.875 8.3125 L 24.28125 19.90625 L 19 21.96875 L 19 16.125 L 18.71875 15.8125 L 17 14.09375 L 17 9.40625 Z M 23 22.5625 L 23 25 L 19 25 L 19 24.09375 Z "></path>
</g>
</svg>
