<?xml version="1.0" encoding="UTF-8"?>
<svg xmlns="http://www.w3.org/2000/svg" xmlns:xlink="http://www.w3.org/1999/xlink" viewBox="0 0 32 32" version="1.1">
<g>
<path d="M 16 6 C 14.21875 6 12.714844 6.898438 11.625 8.125 C 11.421875 8.074219 11.265625 8 11 8 C 10.183594 8 9.484375 8.414063 8.9375 9 L 7 9 C 5.355469 9 4 10.355469 4 12 L 4 13.1875 C 2.84375 13.605469 2 14.707031 2 16 L 2 27 L 4 27 L 4 25 L 28 25 L 28 27 L 30 27 L 30 16 C 30 14.707031 29.15625 13.605469 28 13.1875 L 28 12 C 28 10.355469 26.644531 9 25 9 L 23.0625 9 C 22.515625 8.414063 21.816406 8 21 8 C 20.734375 8 20.578125 8.074219 20.375 8.125 C 19.285156 6.898438 17.78125 6 16 6 Z M 16 8 C 17.347656 8 18.554688 8.730469 19.28125 9.78125 L 19.71875 10.375 L 20.40625 10.15625 C 20.707031 10.054688 20.921875 10 21 10 C 21.320313 10 21.710938 10.234375 21.8125 10.4375 L 22.09375 11 L 25 11 C 25.554688 11 26 11.445313 26 12 L 26 13.1875 C 24.84375 13.605469 24 14.707031 24 16 L 24 18 L 8 18 L 8 16 C 8 14.707031 7.15625 13.605469 6 13.1875 L 6 12 C 6 11.445313 6.445313 11 7 11 L 9.90625 11 L 10.1875 10.4375 C 10.289063 10.234375 10.679688 10 11 10 C 11.078125 10 11.292969 10.054688 11.59375 10.15625 L 12.28125 10.375 L 12.71875 9.78125 C 13.445313 8.730469 14.652344 8 16 8 Z M 11 13 C 10.449219 13 10 13.449219 10 14 C 10 14.550781 10.449219 15 11 15 C 11.550781 15 12 14.550781 12 14 C 12 13.449219 11.550781 13 11 13 Z M 16 13 C 15.449219 13 15 13.449219 15 14 C 15 14.550781 15.449219 15 16 15 C 16.550781 15 17 14.550781 17 14 C 17 13.449219 16.550781 13 16 13 Z M 21 13 C 20.449219 13 20 13.449219 20 14 C 20 14.550781 20.449219 15 21 15 C 21.550781 15 22 14.550781 22 14 C 22 13.449219 21.550781 13 21 13 Z M 5 15 C 5.554688 15 6 15.445313 6 16 L 6 20 L 26 20 L 26 16 C 26 15.445313 26.445313 15 27 15 C 27.554688 15 28 15.445313 28 16 L 28 23 L 4 23 L 4 16 C 4 15.445313 4.445313 15 5 15 Z "></path>
</g>
</svg>
