<?xml version="1.0" encoding="UTF-8"?>
<svg xmlns="http://www.w3.org/2000/svg" xmlns:xlink="http://www.w3.org/1999/xlink" viewBox="0 0 32 32" version="1.1">
<g>
<path d="M 4 6 C 3.476563 6 2.941406 6.183594 2.5625 6.5625 C 2.183594 6.941406 2 7.476563 2 8 L 2 24 C 2 24.523438 2.183594 25.058594 2.5625 25.4375 C 2.941406 25.816406 3.476563 26 4 26 L 28 26 C 28.523438 26 29.058594 25.816406 29.4375 25.4375 C 29.816406 25.058594 30 24.523438 30 24 L 30 8 C 30 7.476563 29.816406 6.941406 29.4375 6.5625 C 29.058594 6.183594 28.523438 6 28 6 Z M 4 8 L 28 8 L 28 24 L 4 24 Z M 16 10 C 14.355469 10 13 11.355469 13 13 L 13 14 L 11 14 L 11 22 L 21 22 L 21 14 L 19 14 L 19 13 C 19 11.355469 17.644531 10 16 10 Z M 16 12 C 16.554688 12 17 12.445313 17 13 L 17 14 L 15 14 L 15 13 C 15 12.445313 15.445313 12 16 12 Z M 13 16 L 19 16 L 19 20 L 13 20 Z "></path>
</g>
</svg>
