<?xml version="1.0" encoding="UTF-8"?>
<svg xmlns="http://www.w3.org/2000/svg" xmlns:xlink="http://www.w3.org/1999/xlink" viewBox="0 0 32 32" version="1.1">
<g>
<path d="M 8 2 C 7.476563 2 6.941406 2.183594 6.5625 2.5625 C 6.183594 2.941406 6 3.476563 6 4 L 6 28 C 6 28.523438 6.183594 29.058594 6.5625 29.4375 C 6.941406 29.816406 7.476563 30 8 30 L 24 30 C 24.523438 30 25.058594 29.816406 25.4375 29.4375 C 25.816406 29.058594 26 28.523438 26 28 L 26 4 C 26 3.476563 25.816406 2.941406 25.4375 2.5625 C 25.058594 2.183594 24.523438 2 24 2 Z M 8 4 L 24 4 L 24 28 L 8 28 Z M 16 10 C 14.355469 10 13 11.355469 13 13 L 13 14 L 11 14 L 11 22 L 21 22 L 21 14 L 19 14 L 19 13 C 19 11.355469 17.644531 10 16 10 Z M 16 12 C 16.554688 12 17 12.445313 17 13 L 17 14 L 15 14 L 15 13 C 15 12.445313 15.445313 12 16 12 Z M 13 16 L 19 16 L 19 20 L 13 20 Z "></path>
</g>
</svg>
