<?xml version="1.0"?>
<svg xmlns="http://www.w3.org/2000/svg" viewBox="0 0 32 32">
    <path d="M 16 4 C 9.3845336 4 4 9.3845336 4 16 C 4 22.615466 9.3845336 28 16 28 C 17.931835 28 19.761895 27.541271 21.380859 26.728516 L 20.484375 24.941406 C 19.13534 25.618651 17.616165 26 16 26 C 10.465466 26 6 21.534534 6 16 C 6 10.465466 10.465466 6 16 6 C 21.534534 6 26 10.465466 26 16 C 26 17.203575 25.784109 18.352125 25.396484 19.417969 L 24.533203 17.675781 L 22.740234 18.5625 L 25.068359 23.261719 L 29.765625 20.933594 L 28.878906 19.142578 L 27.341797 19.904297 C 27.763648 18.678246 28 17.366071 28 16 C 28 9.3845336 22.615466 4 16 4 z M 16 10 C 14.354745 10 13 11.354745 13 13 L 13 14 L 11 14 L 11 15 L 11 22 L 21 22 L 21 14 L 19 14 L 19 13 C 19 11.354745 17.645255 10 16 10 z M 16 12 C 16.558745 12 17 12.441255 17 13 L 17 14 L 15 14 L 15 13 C 15 12.441255 15.441255 12 16 12 z M 13 16 L 19 16 L 19 20 L 13 20 L 13 16 z" font-weight="400" font-family="sans-serif" white-space="normal" overflow="visible"></path>
</svg>
