<?xml version="1.0"?>
<svg xmlns="http://www.w3.org/2000/svg" viewBox="0 0 32 32">
    <path d="M 16 3 C 8.8308481 3 3 8.8308481 3 16 C 3 23.169152 8.8308481 29 16 29 C 23.169152 29 29 23.169152 29 16 L 27 16 C 27 22.088848 22.088848 27 16 27 C 9.9111519 27 5 22.088848 5 16 C 5 9.9111519 9.9111519 5 16 5 C 19.841374 5 23.12717 7.0262137 25.09375 10 L 22 10 L 22 12 L 28 12 L 28 6 L 26 6 L 26 7.7519531 C 23.61357 4.8623607 20.031621 3 16 3 z M 16 10 C 14.354745 10 13 11.354745 13 13 L 13 14 L 11 14 L 11 15 L 11 22 L 21 22 L 21 14 L 19 14 L 19 13 C 19 11.354745 17.645255 10 16 10 z M 16 12 C 16.558745 12 17 12.441255 17 13 L 17 14 L 15 14 L 15 13 C 15 12.441255 15.441255 12 16 12 z M 13 16 L 19 16 L 19 20 L 13 20 L 13 16 z" font-weight="400" font-family="sans-serif" white-space="normal" overflow="visible"></path>
</svg>
