<?xml version="1.0" encoding="UTF-8"?>
<svg xmlns="http://www.w3.org/2000/svg" xmlns:xlink="http://www.w3.org/1999/xlink" viewBox="0 0 32 32" version="1.1">
<g>
<path d="M 9 6 C 6.035156 6 3.570313 8.164063 3.09375 11 L 1 11 L 1 13 L 3.09375 13 C 3.570313 15.835938 6.035156 18 9 18 C 12.300781 18 15 15.300781 15 12 C 15 11.433594 15.433594 11 16 11 C 16.566406 11 17 11.433594 17 12 C 17 15.300781 19.699219 18 23 18 C 25.964844 18 28.429688 15.835938 28.90625 13 L 31 13 L 31 11 L 28.90625 11 C 28.429688 8.164063 25.964844 6 23 6 C 20.609375 6 18.527344 7.40625 17.5625 9.4375 C 17.109375 9.160156 16.566406 9 16 9 C 15.433594 9 14.890625 9.160156 14.4375 9.4375 C 13.472656 7.40625 11.390625 6 9 6 Z M 9 8 C 11.222656 8 13 9.777344 13 12 C 13 14.222656 11.222656 16 9 16 C 6.777344 16 5 14.222656 5 12 C 5 9.777344 6.777344 8 9 8 Z M 23 8 C 25.222656 8 27 9.777344 27 12 C 27 14.222656 25.222656 16 23 16 C 20.777344 16 19 14.222656 19 12 C 19 9.777344 20.777344 8 23 8 Z M 14.5 21 C 12.882813 21 11.886719 22.089844 11.21875 22.84375 C 10.886719 23.222656 10.605469 23.527344 10.34375 23.71875 C 10.082031 23.910156 9.855469 24 9.5 24 C 8.976563 24 8.664063 23.734375 8.375 23.375 C 8.085938 23.015625 7.9375 22.65625 7.9375 22.65625 L 6.0625 23.34375 C 6.0625 23.34375 6.296875 23.984375 6.8125 24.625 C 7.328125 25.265625 8.230469 26 9.5 26 C 10.292969 26 10.984375 25.714844 11.5 25.34375 C 12.015625 24.972656 12.390625 24.527344 12.71875 24.15625 C 13.375 23.410156 13.714844 23 14.5 23 C 14.421875 23 14.613281 23.054688 14.78125 23.21875 C 14.949219 23.382813 15.0625 23.53125 15.0625 23.53125 L 15.34375 24 L 16.625 24 L 16.9375 23.5625 C 16.9375 23.5625 17.046875 23.386719 17.21875 23.21875 C 17.390625 23.050781 17.578125 23 17.5 23 C 18.285156 23 18.625 23.410156 19.28125 24.15625 C 19.609375 24.527344 19.984375 24.972656 20.5 25.34375 C 21.015625 25.714844 21.707031 26 22.5 26 C 23.769531 26 24.671875 25.265625 25.1875 24.625 C 25.703125 23.984375 25.9375 23.34375 25.9375 23.34375 L 24.0625 22.65625 C 24.0625 22.65625 23.945313 23.015625 23.65625 23.375 C 23.367188 23.734375 23.023438 24 22.5 24 C 22.144531 24 21.949219 23.910156 21.6875 23.71875 C 21.425781 23.527344 21.113281 23.222656 20.78125 22.84375 C 20.113281 22.089844 19.117188 21 17.5 21 C 16.800781 21 16.335938 21.320313 16 21.625 C 15.664063 21.320313 15.199219 21 14.5 21 Z "></path>
</g>
</svg>
