<?xml version="1.0" encoding="UTF-8"?>
<svg xmlns="http://www.w3.org/2000/svg" xmlns:xlink="http://www.w3.org/1999/xlink" viewBox="0 0 32 32" version="1.1">
<g>
<path d="M 16 4 C 9.382813 4 4 9.382813 4 16 C 4 21.578125 7.832031 26.257813 13 27.59375 L 13 25.53125 C 8.945313 24.253906 6 20.46875 6 16 C 6 10.484375 10.484375 6 16 6 C 21.515625 6 26 10.484375 26 16 C 26 20.46875 23.054688 24.253906 19 25.53125 L 19 27.59375 C 24.167969 26.257813 28 21.578125 28 16 C 28 9.382813 22.617188 4 16 4 Z M 16 11.96875 L 15.28125 12.65625 L 11.28125 16.65625 L 12.71875 18.09375 L 15 15.8125 L 15 28 L 17 28 L 17 15.8125 L 19.28125 18.09375 L 20.71875 16.65625 L 16.71875 12.65625 Z "></path>
</g>
</svg>
