<?xml version="1.0" encoding="UTF-8"?>
<svg xmlns="http://www.w3.org/2000/svg" xmlns:xlink="http://www.w3.org/1999/xlink" viewBox="0 0 32 32" version="1.1">
<g>
<path d="M 16 4 C 11.949219 4 8.359375 6.011719 6.1875 9.09375 L 7.8125 10.25 C 9.621094 7.679688 12.609375 6 16 6 C 21.535156 6 26 10.464844 26 16 C 26 21.535156 21.535156 26 16 26 C 12.609375 26 9.625 24.320313 7.8125 21.75 L 6.1875 22.90625 C 8.359375 25.988281 11.949219 28 16 28 C 22.617188 28 28 22.617188 28 16 C 28 9.382813 22.617188 4 16 4 Z M 8.65625 11.28125 L 4.65625 15.28125 L 3.96875 16 L 4.65625 16.71875 L 8.65625 20.71875 L 10.09375 19.28125 L 7.8125 17 L 20 17 L 20 15 L 7.8125 15 L 10.09375 12.71875 Z "></path>
</g>
</svg>
