<?xml version="1.0" encoding="UTF-8"?>
<svg xmlns="http://www.w3.org/2000/svg" xmlns:xlink="http://www.w3.org/1999/xlink" viewBox="0 0 32 32" version="1.1">
<g>
<path d="M 16 4 C 9.382813 4 4 9.382813 4 16 C 4 20.050781 6.011719 23.640625 9.09375 25.8125 L 10.25 24.1875 C 7.679688 22.378906 6 19.390625 6 16 C 6 10.464844 10.464844 6 16 6 C 21.535156 6 26 10.464844 26 16 C 26 19.390625 24.320313 22.375 21.75 24.1875 L 22.90625 25.8125 C 25.988281 23.640625 28 20.050781 28 16 C 28 9.382813 22.617188 4 16 4 Z M 15 12 L 15 24.1875 L 12.71875 21.90625 L 11.28125 23.34375 L 15.28125 27.34375 L 16 28.03125 L 16.71875 27.34375 L 20.71875 23.34375 L 19.28125 21.90625 L 17 24.1875 L 17 12 Z "></path>
</g>
</svg>
