<?xml version="1.0" encoding="UTF-8"?>
<svg xmlns="http://www.w3.org/2000/svg" xmlns:xlink="http://www.w3.org/1999/xlink" viewBox="0 0 32 32" version="1.1">
<g>
<path d="M 16 4 C 9.382813 4 4 9.382813 4 16 C 4 22.617188 9.382813 28 16 28 C 22.617188 28 28 22.617188 28 16 C 28 9.382813 22.617188 4 16 4 Z M 15 6.21875 L 15 25.78125 C 14.160156 25.417969 13.328125 24.601563 12.625 23.3125 C 11.640625 21.507813 11 18.890625 11 16 C 11 13.109375 11.640625 10.492188 12.625 8.6875 C 13.328125 7.398438 14.160156 6.582031 15 6.21875 Z M 17 6.21875 C 17.839844 6.582031 18.671875 7.398438 19.375 8.6875 C 20.359375 10.492188 21 13.109375 21 16 C 21 18.890625 20.359375 21.507813 19.375 23.3125 C 18.671875 24.601563 17.839844 25.417969 17 25.78125 Z M 11.1875 7.25 C 11.082031 7.417969 10.972656 7.574219 10.875 7.75 C 9.6875 9.929688 9 12.816406 9 16 C 9 19.183594 9.6875 22.070313 10.875 24.25 C 10.972656 24.425781 11.082031 24.582031 11.1875 24.75 C 8.089844 23.054688 6 19.789063 6 16 C 6 12.210938 8.089844 8.945313 11.1875 7.25 Z M 20.8125 7.25 C 23.910156 8.945313 26 12.210938 26 16 C 26 19.789063 23.910156 23.054688 20.8125 24.75 C 20.917969 24.582031 21.027344 24.425781 21.125 24.25 C 22.3125 22.070313 23 19.183594 23 16 C 23 12.816406 22.3125 9.929688 21.125 7.75 C 21.027344 7.574219 20.917969 7.417969 20.8125 7.25 Z "></path>
</g>
</svg>
