<?xml version="1.0" encoding="UTF-8"?>
<svg xmlns="http://www.w3.org/2000/svg" xmlns:xlink="http://www.w3.org/1999/xlink" viewBox="0 0 32 32" version="1.1">
<g>
<path d="M 18 5 C 14.449219 4.988281 11.667969 5.839844 9.78125 7.578125 C 7.878906 9.308594 7 11.871094 7 14.902344 L 7 15.652344 C 6.390625 16.25 6 17.007813 6 17.859375 C 6 19.21875 6.949219 20.179688 8.148438 20.628906 C 8.820313 22.820313 9.179688 24.371094 10.671875 26.378906 L 10.6875 26.410156 L 10.710938 26.4375 C 12.152344 28.109375 14.070313 29 16 29 C 17.929688 29 19.847656 28.109375 21.289063 26.4375 L 21.3125 26.410156 L 21.328125 26.378906 C 22.820313 24.371094 23.179688 22.820313 23.847656 20.628906 C 25.050781 20.179688 26 19.21875 26 17.859375 C 26 17.007813 25.609375 16.25 25 15.652344 L 25 14.902344 C 25 12.128906 24.492188 10.160156 23.402344 8.828125 C 22.460938 7.691406 21.101563 7.238281 19.679688 7.117188 L 18.621094 5 Z M 17.421875 7.070313 L 18.019531 8.269531 C 18.019531 8.320313 18.03125 8.390625 18.03125 8.410156 L 18.03125 8.421875 C 18.03125 9.300781 17.851563 9.429688 17.460938 9.640625 C 17.0625 9.851563 16.28125 9.960938 15.390625 10.0625 C 14.511719 10.160156 13.5 10.25 12.570313 10.8125 C 11.648438 11.371094 11 12.519531 11 14 L 13 14 C 13 12.980469 13.21875 12.757813 13.609375 12.519531 C 14 12.28125 14.75 12.140625 15.621094 12.050781 C 16.480469 11.949219 17.460938 11.890625 18.378906 11.410156 C 19.160156 11 19.78125 10.160156 19.96875 9.078125 C 20.769531 9.210938 21.371094 9.519531 21.847656 10.097656 C 22.507813 10.898438 23 12.378906 23 14.902344 L 23 16.578125 L 23.5 16.871094 C 23.699219 16.980469 24 17.488281 24 17.859375 C 24 18.28125 23.351563 18.96875 22.921875 19 L 22.25 19.0625 L 22.039063 19.699219 C 21.277344 22.167969 21.089844 23.320313 19.738281 25.160156 C 18.648438 26.421875 17.320313 27 16 27 C 14.679688 27 13.351563 26.421875 12.261719 25.160156 C 10.910156 23.320313 10.722656 22.167969 9.960938 19.699219 L 9.75 19.0625 L 9.078125 19 C 8.660156 18.96875 8 18.269531 8 17.859375 C 8 17.488281 8.300781 16.980469 8.5 16.871094 L 9 16.578125 L 9 14.902344 C 9 12.25 9.722656 10.351563 11.128906 9.050781 C 12.441406 7.839844 14.539063 7.160156 17.421875 7.070313 Z M 13.730469 17.320313 L 12.003906 17.921875 C 11.964844 18.375 12.246094 18.808594 12.691406 18.953125 C 13.21875 19.121094 13.78125 18.828125 13.949219 18.304688 C 14.0625 17.953125 13.964844 17.574219 13.730469 17.320313 Z M 18.265625 17.320313 C 18.035156 17.574219 17.933594 17.953125 18.046875 18.304688 C 18.214844 18.828125 18.78125 19.121094 19.304688 18.953125 C 19.753906 18.808594 20.03125 18.375 19.992188 17.921875 Z M 4 22 C 3.449219 22 3 22.449219 3 23 C 3 23.550781 3.449219 24 4 24 C 4.621094 24 6 23 6 23 C 6 23 4.648438 22 4 22 Z M 16 22 C 15.863281 22 15.726563 22.015625 15.597656 22.042969 C 15.339844 22.09375 15.09375 22.199219 14.882813 22.34375 C 14.5625 22.558594 14.3125 22.863281 14.15625 23.222656 C 14.058594 23.460938 14 23.726563 14 24 L 18 24 C 18 22.898438 17.101563 22 16 22 Z M 28 22 C 27.351563 22 26 23 26 23 C 26 23 27.378906 24 28 24 C 28.550781 24 29 23.550781 29 23 C 29 22.449219 28.550781 22 28 22 Z M 6.945313 26.328125 C 6.945313 26.328125 5.441406 26.984375 5.125 27.535156 C 4.859375 28.003906 5.023438 28.605469 5.492188 28.871094 C 5.957031 29.136719 6.558594 28.976563 6.824219 28.507813 C 7.125 27.980469 6.945313 26.328125 6.945313 26.328125 Z M 25.050781 26.328125 C 25.050781 26.328125 24.875 27.980469 25.175781 28.507813 C 25.441406 28.976563 26.042969 29.136719 26.511719 28.871094 C 26.976563 28.605469 27.140625 28.003906 26.875 27.535156 C 26.558594 26.984375 25.050781 26.328125 25.050781 26.328125 Z "></path>
</g>
</svg>
