<?xml version="1.0"?>
<svg xmlns="http://www.w3.org/2000/svg" viewBox="0 0 32 32">
    <path d="M 22 4.5234375 L 22 19.541016 A 4 4 0 0 0 20 19 A 4 4 0 0 0 16 23 A 4 4 0 0 0 20 27 A 4 4 0 0 0 24 23 L 24 7.4765625 L 27.628906 8.9277344 L 28.371094 7.0722656 L 22 4.5234375 z M 4 5 L 4 12 L 10 8.5 L 4 5 z M 7.96875 5 L 11.007812 6.7714844 L 11.398438 7 L 20 7 L 20 5 L 7.96875 5 z M 11.398438 10 L 11.007812 10.228516 L 7.96875 12 L 20 12 L 20 10 L 11.398438 10 z M 4 15 L 4 17 L 20 17 L 20 15 L 4 15 z M 4 20 L 4 22 L 14.089844 22 C 14.211844 21.282 14.4595 20.608 14.8125 20 L 4 20 z M 4 25 L 4 27 L 15.541016 27 C 15.022016 26.422 14.614609 25.746 14.349609 25 L 4 25 z"></path>
</svg>
