<?xml version="1.0"?>
<svg xmlns="http://www.w3.org/2000/svg" viewBox="0 0 32 32">
    <path d="M 19.5 3.0292969 C 17.02 3.0292969 15 5.0492969 15 7.5292969 C 15 11.509297 21.749531 15.320234 22.519531 15.740234 L 23 16 L 23.480469 15.740234 C 24.250469 15.320234 31 11.509297 31 7.5292969 C 31 5.0492969 28.98 3.0292969 26.5 3.0292969 C 25.09 3.0292969 23.83 3.6792188 23 4.6992188 C 22.17 3.6792187 20.91 3.0292969 19.5 3.0292969 z M 19.5 5.0292969 C 20.88 5.0292969 22 6.1492969 22 7.5292969 L 24 7.5292969 C 24 6.1492969 25.12 5.0292969 26.5 5.0292969 C 27.88 5.0292969 29 6.1492969 29 7.5292969 C 29 9.5092969 25.5 12.250937 23 13.710938 C 20.5 12.250937 17 9.5092969 17 7.5292969 C 17 6.1492969 18.12 5.0292969 19.5 5.0292969 z M 2 12 L 2 28 L 16 28 L 30 28 L 30 16 L 30 13.429688 C 29.36 14.069688 28.68 14.659922 28 15.169922 L 28 17 L 28 24.087891 A 1.5 1.5 0 0 0 27.5 24 A 1.5 1.5 0 0 0 26 25.5 A 1.5 1.5 0 0 0 26.087891 26 L 16 26 L 5.9121094 26 A 1.5 1.5 0 0 0 6 25.5 A 1.5 1.5 0 0 0 4.5 24 A 1.5 1.5 0 0 0 4 24.087891 L 4 15.912109 A 1.5 1.5 0 0 0 4.5 16 A 1.5 1.5 0 0 0 6 14.5 A 1.5 1.5 0 0 0 5.9121094 14 L 14 14 L 16.560547 14 C 15.810547 13.31 15.22 12.63 14.75 12 L 14 12 L 2 12 z M 16 16 C 13.790196 16 12 17.790196 12 20 L 12 21 L 12.201172 21 C 12.654113 22.712177 14.145038 24 16 24 C 17.854962 24 19.345887 22.712177 19.798828 21 L 20 21 L 20 20 C 20 17.790196 18.209804 16 16 16 z M 16 18 C 17.190196 18 18 18.809804 18 20 C 18 21.190196 17.190196 22 16 22 C 14.809804 22 14 21.190196 14 20 C 14 18.809804 14.809804 18 16 18 z M 9 18.5 A 1.5 1.5 0 0 0 7.5 20 A 1.5 1.5 0 0 0 9 21.5 A 1.5 1.5 0 0 0 10.5 20 A 1.5 1.5 0 0 0 9 18.5 z M 23 18.5 A 1.5 1.5 0 0 0 21.5 20 A 1.5 1.5 0 0 0 23 21.5 A 1.5 1.5 0 0 0 24.5 20 A 1.5 1.5 0 0 0 23 18.5 z"></path>
</svg>
