<?xml version="1.0" encoding="UTF-8"?>
<svg xmlns="http://www.w3.org/2000/svg" xmlns:xlink="http://www.w3.org/1999/xlink" viewBox="0 0 32 32" version="1.1">
<g>
<path d="M 8 2 L 8 16 L 2 16 L 16 30 L 30 16 L 24 16 L 24 2 Z M 10 4 L 22 4 L 22 18 L 25.199219 18 L 16 27 L 6.800781 18 L 10 18 Z M 15 7 L 15 8.5 C 13.800781 8.898438 13 9.898438 13 11.199219 C 13 12.800781 14.300781 14.097656 16 14.097656 C 16.601563 14.097656 17 14.5 17 15 C 17 15.5 16.601563 15.902344 16 15.902344 C 15.398438 15.902344 15 15.5 15 15 L 13 15 C 13 16.199219 13.800781 17.300781 15 17.699219 L 15 19 L 17 19 L 17 17.5 C 18.199219 17.101563 19 16.101563 19 14.800781 C 19 13.300781 17.699219 12 16 12 C 15.398438 12 15 11.597656 15 11.097656 C 15 10.597656 15.398438 10.199219 16 10.199219 C 16.601563 10.199219 17 10.597656 17 11.097656 L 19 11.097656 C 19 9.898438 18.199219 8.800781 17 8.398438 L 17 7 Z "></path>
</g>
</svg>
