<?xml version="1.0" encoding="UTF-8"?>
<svg xmlns="http://www.w3.org/2000/svg" xmlns:xlink="http://www.w3.org/1999/xlink" viewBox="0 0 32 32" version="1.1">
<g>
<path d="M 3.71875 2.28125 L 2.28125 3.71875 L 28.28125 29.71875 L 29.71875 28.28125 L 25.8125 24.375 C 26.328125 24.039063 26.617188 23.785156 26.65625 23.75 L 27 23.46875 L 27 16.59375 L 25.75 15.34375 C 24.617188 14.210938 24 12.695313 24 11.09375 L 24 9 C 24 6.375 19.976563 5 16 5 C 13.027344 5 10.011719 5.765625 8.6875 7.25 Z M 16 7 C 19.722656 7 22 8.296875 22 9 C 22 9.703125 19.722656 11 16 11 C 14.222656 11 12.777344 10.699219 11.75 10.3125 L 10.125 8.6875 C 10.648438 7.96875 12.789063 7 16 7 Z M 14 8 C 13.449219 8 13 8.449219 13 9 C 13 9.550781 13.449219 10 14 10 C 14.550781 10 15 9.550781 15 9 C 15 8.449219 14.550781 8 14 8 Z M 18 8 C 17.449219 8 17 8.449219 17 9 C 17 9.550781 17.449219 10 18 10 C 18.550781 10 19 9.550781 19 9 C 19 8.449219 18.550781 8 18 8 Z M 22.03125 11.71875 C 22.175781 13.621094 22.980469 15.386719 24.34375 16.75 L 25 17.40625 L 25 22.5 C 24.851563 22.601563 24.589844 22.761719 24.34375 22.90625 L 18.9375 17.5 L 19 17.5 C 19 16.121094 17.878906 15 16.5 15 L 16.4375 15 L 14.34375 12.90625 C 14.886719 12.960938 15.445313 13 16 13 C 18.234375 13 20.488281 12.566406 22.03125 11.71875 Z M 7.90625 12.125 C 7.699219 13.34375 7.140625 14.453125 6.25 15.34375 L 5 16.59375 L 5 23.46875 L 5.34375 23.75 C 5.496094 23.882813 9.132813 27 16 27 C 18.371094 27 20.347656 26.617188 21.9375 26.125 L 20.28125 24.5 C 19.058594 24.792969 17.648438 25 16 25 C 11.050781 25 7.980469 23.183594 7 22.5 L 7 17.40625 L 7.65625 16.75 C 8.519531 15.886719 9.171875 14.871094 9.5625 13.75 Z M 13.03125 17.21875 C 13.019531 17.308594 13 17.40625 13 17.5 C 13 18.878906 14.121094 20 15.5 20 L 15.8125 20 Z M 13 20.5 C 13 21.878906 14.121094 23 15.5 23 L 16.5 23 C 17.136719 23 17.714844 22.738281 18.15625 22.34375 L 16.71875 20.9375 C 16.648438 20.976563 16.585938 21 16.5 21 L 15.5 21 C 15.222656 21 15 20.773438 15 20.5 Z "></path>
</g>
</svg>
