<?xml version="1.0" encoding="UTF-8"?>
<svg xmlns="http://www.w3.org/2000/svg" xmlns:xlink="http://www.w3.org/1999/xlink" viewBox="0 0 32 32" version="1.1">
<g>
<path d="M 8 2 L 8 16 L 2 16 L 16 30 L 30 16 L 24 16 L 24 2 Z M 10 4 L 22 4 L 22 18 L 25.203125 18 L 16 27 L 6.796875 18 L 10 18 Z M 16.5625 8.609375 C 15.9375 8.589844 15.335938 8.714844 14.800781 8.980469 C 13.734375 9.515625 13 10.667969 13 12 C 13 12.355469 13.054688 12.683594 13.128906 13 L 12 13 L 12 15 L 13.753906 15 C 13.761719 15.023438 13.773438 15.046875 13.777344 15.066406 C 13.960938 15.84375 13.984375 16.390625 13.523438 17 L 13 17 L 13 19 L 20 19 L 20 16 L 18 16 L 18 17 L 15.703125 17 C 15.898438 16.308594 15.882813 15.621094 15.78125 15 L 18 15 L 18 13 L 15.257813 13 C 15.109375 12.539063 15 12.179688 15 12 C 15 11.332031 15.265625 10.984375 15.699219 10.769531 C 16.128906 10.554688 16.792969 10.515625 17.550781 10.894531 L 18.449219 9.105469 C 17.828125 8.796875 17.183594 8.632813 16.5625 8.609375 Z "></path>
</g>
</svg>
