<?xml version="1.0" encoding="UTF-8"?>
<svg xmlns="http://www.w3.org/2000/svg" xmlns:xlink="http://www.w3.org/1999/xlink" viewBox="0 0 32 32" version="1.1">
<g>
<path d="M 8 2 L 8 16 L 2 16 L 16 30 L 30 16 L 24 16 L 24 2 Z M 10 4 L 22 4 L 22 18 L 25 18 L 16 27 L 7 18 L 10 18 Z M 16.5 8 C 15.1875 8 14.019531 8.695313 13.234375 9.703125 C 12.734375 10.351563 12.386719 11.140625 12.1875 12 L 11 12 L 11 13 L 12.039063 13 C 12.027344 13.167969 12 13.328125 12 13.5 C 12 13.671875 12.027344 13.832031 12.039063 14 L 11 14 L 11 15 L 12.1875 15 C 12.386719 15.859375 12.734375 16.648438 13.234375 17.296875 C 14.019531 18.304688 15.1875 19 16.5 19 C 18.148438 19 19.535156 17.921875 20.296875 16.464844 L 18.519531 15.535156 C 18.023438 16.488281 17.277344 17 16.5 17 C 15.882813 17 15.296875 16.6875 14.8125 16.066406 C 14.585938 15.773438 14.394531 15.410156 14.25 15 L 17 15 L 17 14 L 14.039063 14 C 14.019531 13.835938 14 13.671875 14 13.5 C 14 13.328125 14.019531 13.164063 14.039063 13 L 17 13 L 17 12 L 14.25 12 C 14.394531 11.589844 14.585938 11.226563 14.8125 10.933594 C 15.296875 10.3125 15.882813 10 16.5 10 C 17.277344 10 18.023438 10.511719 18.519531 11.464844 L 20.296875 10.535156 C 19.535156 9.078125 18.148438 8 16.5 8 Z "></path>
</g>
</svg>
