<?xml version="1.0" encoding="UTF-8"?>
<svg xmlns="http://www.w3.org/2000/svg" xmlns:xlink="http://www.w3.org/1999/xlink" viewBox="0 0 32 32" version="1.1">
<g>
<path d="M 5 5 L 5 27 L 27 27 L 27 25 L 7 25 L 7 22.5625 C 7.59375 22.835938 8.257813 23 9 23 C 10.035156 23 10.960938 22.691406 11.6875 22.1875 C 11.800781 22.109375 11.894531 22.027344 12 21.9375 C 12.101563 22.023438 12.203125 22.113281 12.3125 22.1875 C 13.035156 22.691406 13.960938 23 15 23 C 16.035156 23 16.960938 22.691406 17.6875 22.1875 C 17.800781 22.109375 17.894531 22.027344 18 21.9375 C 18.101563 22.023438 18.203125 22.113281 18.3125 22.1875 C 19.035156 22.691406 19.960938 23 21 23 C 22.035156 23 22.960938 22.691406 23.6875 22.1875 C 23.800781 22.109375 23.894531 22.027344 24 21.9375 C 24.101563 22.023438 24.203125 22.113281 24.3125 22.1875 C 25.035156 22.691406 25.960938 23 27 23 L 27 21 C 26.367188 21 25.796875 20.8125 25.4375 20.5625 C 25.078125 20.3125 25 20.042969 25 20 L 23 20 L 23 19 L 24 17 L 21 17 L 21 15 L 15 15 L 15 17 L 12 17 L 13 19 L 13 20 L 11 20 C 11 20.058594 10.917969 20.316406 10.5625 20.5625 C 10.207031 20.808594 9.636719 21 9 21 C 8.367188 21 7.796875 20.8125 7.4375 20.5625 C 7.078125 20.3125 7 20.042969 7 20 L 7 5 Z "></path>
</g>
</svg>
