<?xml version="1.0" encoding="UTF-8"?>
<svg xmlns="http://www.w3.org/2000/svg" xmlns:xlink="http://www.w3.org/1999/xlink" viewBox="0 0 32 32" version="1.1">
<g>
<path d="M 2 6 L 2 26 L 30 26 L 30 6 Z M 4 8 L 28 8 L 28 24 L 4 24 Z M 18.90625 10 L 10.6875 22 L 13.09375 22 L 21.3125 10 Z M 12 11 C 10.90625 11 10 11.90625 10 13 C 10 14.09375 10.90625 15 12 15 C 13.09375 15 14 14.09375 14 13 C 14 11.90625 13.09375 11 12 11 Z M 20 17 C 18.90625 17 18 17.90625 18 19 C 18 20.09375 18.90625 21 20 21 C 21.09375 21 22 20.09375 22 19 C 22 17.90625 21.09375 17 20 17 Z "></path>
</g>
</svg>
