<?xml version="1.0" encoding="UTF-8"?>
<svg xmlns="http://www.w3.org/2000/svg" xmlns:xlink="http://www.w3.org/1999/xlink" viewBox="0 0 32 32" version="1.1">
<g>
<path d="M 5 6 C 3.355469 6 2 7.355469 2 9 L 2 23 C 2 24.644531 3.355469 26 5 26 L 27 26 C 28.644531 26 30 24.644531 30 23 L 30 9 C 30 7.355469 28.644531 6 27 6 Z M 5 8 L 27 8 C 27.566406 8 28 8.433594 28 9 L 28 23 C 28 23.566406 27.566406 24 27 24 L 5 24 C 4.433594 24 4 23.566406 4 23 L 4 9 C 4 8.433594 4.433594 8 5 8 Z M 9.5 11 C 7.570313 11 6 12.570313 6 14.5 C 6 17.363281 10.503906 20.8125 11.40625 21.46875 L 12 21.902344 L 12.59375 21.46875 C 13.496094 20.808594 18 17.363281 18 14.5 C 18 12.570313 16.429688 11 14.5 11 C 13.519531 11 12.636719 11.402344 12 12.050781 C 11.363281 11.402344 10.480469 11 9.5 11 Z M 9.5 13 C 10.328125 13 11 13.671875 11 14.5 L 13 14.5 C 13 13.671875 13.671875 13 14.5 13 C 15.328125 13 16 13.671875 16 14.5 C 16 15.734375 13.824219 17.953125 12 19.40625 C 10.175781 17.953125 8 15.734375 8 14.5 C 8 13.671875 8.671875 13 9.5 13 Z M 18 20 L 18 22 L 20 22 L 20 20 Z M 21 20 L 21 22 L 23 22 L 23 20 Z M 24 20 L 24 22 L 26 22 L 26 20 Z "></path>
</g>
</svg>
