<?xml version="1.0"?>
<svg xmlns="http://www.w3.org/2000/svg" viewBox="0 0 32 32">
    <path d="M 20.339844 4.03125 L 4.1796875 8.015625 L 1.9824219 12.556641 L 2.0019531 12.822266 L 2.3925781 18.164062 L 5.03125 23 L 6 23 L 6 24.625 C 6 25.851389 6.5825314 26.761335 7.1503906 27.263672 C 7.7182498 27.766009 8.3300781 27.955078 8.3300781 27.955078 L 8.9199219 26.044922 C 8.9199219 26.044922 8.7192502 25.983992 8.4746094 25.767578 C 8.2299686 25.551165 8 25.273611 8 24.625 L 8 23 L 10 23 L 10 24.625 C 10 25.851389 10.582531 26.761335 11.150391 27.263672 C 11.71825 27.766009 12.330078 27.955078 12.330078 27.955078 L 12.919922 26.044922 C 12.919922 26.044922 12.71925 25.983992 12.474609 25.767578 C 12.229969 25.551165 12 25.273611 12 24.625 L 12 23 L 16 23 L 16 24.625 C 16 25.851389 16.582531 26.761335 17.150391 27.263672 C 17.71825 27.766009 18.330078 27.955078 18.330078 27.955078 L 18.919922 26.044922 C 18.919922 26.044922 18.71925 25.983992 18.474609 25.767578 C 18.229969 25.551165 18 25.273611 18 24.625 L 18 23 L 20 23 L 20 24.625 C 20 25.851389 20.582531 26.761335 21.150391 27.263672 C 21.71825 27.766009 22.330078 27.955078 22.330078 27.955078 L 22.919922 26.044922 C 22.919922 26.044922 22.71925 25.983992 22.474609 25.767578 C 22.229969 25.551165 22 25.273611 22 24.625 L 22 23 L 22.787109 23 L 29.949219 12.1875 L 20.339844 4.03125 z M 18.578125 6.5273438 L 17.734375 9.1210938 L 4.7519531 11.423828 L 5.5703125 9.734375 L 18.578125 6.5273438 z M 20.572266 6.8535156 L 24.640625 10.304688 L 19.792969 9.2578125 L 20.572266 6.8535156 z M 17.630859 11.169922 L 18.214844 16.060547 L 4.3007812 16.822266 L 4.0644531 13.576172 L 17.630859 11.169922 z M 19.658203 11.273438 L 25.816406 12.605469 L 20.15625 15.464844 L 19.658203 11.273438 z M 25.775391 14.867188 L 22.302734 20.109375 L 20.730469 17.414062 L 25.775391 14.867188 z M 18.777344 18.03125 L 20.509766 21 L 6.21875 21 L 5.0117188 18.787109 L 18.777344 18.03125 z"></path>
</svg>
