<?xml version="1.0" encoding="UTF-8"?>
<svg xmlns="http://www.w3.org/2000/svg" xmlns:xlink="http://www.w3.org/1999/xlink" viewBox="0 0 32 32" version="1.1">
<g>
<path d="M 15 5 L 15 15.46875 L 11.625 17.875 L 9.34375 17.0625 L 8.65625 18.9375 L 10.03125 19.40625 L 8.28125 21.3125 L 9.71875 22.6875 L 12.46875 19.71875 L 12.5 19.6875 L 12.96875 19.375 C 12.984375 19.90625 13 20.382813 13 21 C 13 23.761719 10.992188 25 9 25 L 6.90625 25 C 6.402344 25 6 24.457031 6 24.09375 C 6 17.023438 9.863281 12 11.09375 12 C 11.417969 12 12.273438 12.355469 12.71875 15.75 L 14 14.84375 L 14 12.4375 C 13.414063 10.945313 12.515625 10 11.09375 10 C 8 10 4 16.839844 4 24.09375 C 4 25.648438 5.351563 27 6.90625 27 L 9 27 C 12.476563 27 15 24.476563 15 21 C 15 19.988281 14.957031 18.984375 14.90625 18 L 16 17.21875 L 17.09375 18 C 17.042969 18.984375 17 19.988281 17 21 C 17 24.476563 19.523438 27 23 27 L 25.09375 27 C 26.648438 27 28 25.648438 28 24.09375 C 28 16.839844 24 10 20.90625 10 C 19.484375 10 18.585938 10.945313 18 12.4375 L 18 14.84375 L 19.28125 15.75 C 19.726563 12.355469 20.582031 12 20.90625 12 C 22.136719 12 26 17.023438 26 24.09375 C 26 24.457031 25.597656 25 25.09375 25 L 23 25 C 21.007813 25 19 23.761719 19 21 C 19 20.382813 19.015625 19.90625 19.03125 19.375 L 19.5 19.6875 L 19.53125 19.71875 L 22.28125 22.6875 L 23.71875 21.3125 L 21.96875 19.40625 L 23.34375 18.9375 L 22.65625 17.0625 L 20.375 17.875 L 17 15.46875 L 17 5 Z "></path>
</g>
</svg>
