<?xml version="1.0" encoding="UTF-8"?>
<svg xmlns="http://www.w3.org/2000/svg" xmlns:xlink="http://www.w3.org/1999/xlink" viewBox="0 0 32 32" version="1.1">
<g>
<path d="M 7.375 5 C 6.066406 5 5 6.066406 5 7.375 L 5 9 L 7 9 L 7 7.375 C 7 7.148438 7.148438 7 7.375 7 C 7.621094 7 7.804688 7.167969 7.78125 7.40625 C 7.78125 7.414063 7.78125 7.429688 7.78125 7.4375 L 6.21875 15.03125 C 5.410156 18.980469 7.082031 22.777344 10.03125 25 L 9 25 L 9 27 L 23 27 L 23 25 L 21.96875 25 C 24.917969 22.777344 26.589844 18.980469 25.78125 15.03125 L 24.21875 7.4375 L 24.21875 7.40625 C 24.195313 7.167969 24.378906 7 24.625 7 C 24.851563 7 25 7.148438 25 7.375 L 25 9 L 27 9 L 27 7.375 C 27 6.066406 25.933594 5 24.625 5 C 23.441406 5 22.445313 5.890625 22.25 7 L 21 7 L 21 6 L 20 6 L 20 7 L 18 7 L 18 6 L 17 6 L 17 7 L 15 7 L 15 6 L 14 6 L 14 7 L 12 7 L 12 6 L 11 6 L 11 7 L 9.75 7 C 9.554688 5.890625 8.558594 5 7.375 5 Z M 9.5 9 L 11 9 L 11 21.875 C 11.308594 22.191406 11.644531 22.46875 12 22.71875 L 12 9 L 14 9 L 14 23.6875 C 14.324219 23.785156 14.660156 23.855469 15 23.90625 L 15 9 L 17 9 L 17 23.90625 C 17.339844 23.855469 17.675781 23.785156 18 23.6875 L 18 9 L 20 9 L 20 22.71875 C 20.355469 22.46875 20.691406 22.191406 21 21.875 L 21 9 L 22.5 9 L 23.8125 15.4375 C 24.828125 20.40625 21.070313 25 16 25 C 10.929688 25 7.171875 20.40625 8.1875 15.4375 Z "></path>
</g>
</svg>
