<?xml version="1.0" encoding="UTF-8"?>
<svg xmlns="http://www.w3.org/2000/svg" xmlns:xlink="http://www.w3.org/1999/xlink" viewBox="0 0 32 32" version="1.1">
<g>
<path d="M 6 6 C 4.90625 6 4 6.90625 4 8 L 4 22 C 4 23.09375 4.90625 24 6 24 L 14.09375 24 L 13.6875 26 L 11 26 L 11 28 L 21 28 L 21 26 L 18.3125 26 L 17.90625 24 L 26 24 C 27.09375 24 28 23.09375 28 22 L 28 8 C 28 6.90625 27.09375 6 26 6 Z M 6 8 L 26 8 L 26 20 L 6 20 Z M 17.21875 11 C 16.90625 11 16.542969 11.167969 16.3125 11.4375 C 16.132813 11.660156 15.929688 12.027344 16 12.375 C 16.320313 12.414063 16.675781 12.207031 16.875 11.9375 C 17.105469 11.6875 17.238281 11.347656 17.21875 11 Z M 15.0625 12.4375 C 14.214844 12.4375 13.5625 13.195313 13.5625 14.28125 C 13.5625 15.699219 14.519531 17 15.125 17 C 15.492188 17 15.640625 16.75 16.125 16.75 C 16.574219 16.75 16.703125 17 17.09375 17 C 17.816406 17 18.414063 15.5 18.4375 15.40625 C 18.320313 15.351563 17.625 15 17.625 14.1875 C 17.625 13.40625 18.253906 13.078125 18.28125 13.0625 C 17.933594 12.53125 17.394531 12.4375 17.1875 12.4375 C 16.703125 12.4375 16.261719 12.71875 16.03125 12.71875 C 15.792969 12.71875 15.457031 12.4375 15.0625 12.4375 Z M 16 20.5 C 16.550781 20.5 17 20.949219 17 21.5 C 17 22.050781 16.550781 22.5 16 22.5 C 15.449219 22.5 15 22.050781 15 21.5 C 15 20.949219 15.449219 20.5 16 20.5 Z "></path>
</g>
</svg>
