<?xml version="1.0" encoding="UTF-8"?>
<svg xmlns="http://www.w3.org/2000/svg" xmlns:xlink="http://www.w3.org/1999/xlink" viewBox="0 0 32 32" version="1.1">
<g>
<path d="M 16 7 C 12.863281 7 10.019531 7.4375 7.875 8.21875 C 6.804688 8.609375 5.910156 9.089844 5.21875 9.6875 C 4.527344 10.285156 4 11.074219 4 12 L 4 20 C 4 20.925781 4.527344 21.714844 5.21875 22.3125 C 5.910156 22.910156 6.804688 23.390625 7.875 23.78125 C 10.019531 24.5625 12.863281 25 16 25 C 19.136719 25 21.980469 24.5625 24.125 23.78125 C 25.195313 23.390625 26.089844 22.910156 26.78125 22.3125 C 27.472656 21.714844 28 20.925781 28 20 L 28 12 C 28 11.074219 27.472656 10.285156 26.78125 9.6875 C 26.089844 9.089844 25.195313 8.609375 24.125 8.21875 C 21.980469 7.4375 19.136719 7 16 7 Z M 16 9 C 18.9375 9 21.601563 9.457031 23.4375 10.125 C 24.355469 10.460938 25.046875 10.828125 25.46875 11.1875 C 25.890625 11.546875 26 11.820313 26 12 C 26 12.179688 25.890625 12.453125 25.46875 12.8125 C 25.046875 13.171875 24.355469 13.539063 23.4375 13.875 C 21.601563 14.542969 18.9375 15 16 15 C 13.0625 15 10.398438 14.542969 8.5625 13.875 C 7.644531 13.539063 6.953125 13.171875 6.53125 12.8125 C 6.109375 12.453125 6 12.179688 6 12 C 6 11.820313 6.109375 11.546875 6.53125 11.1875 C 6.953125 10.828125 7.644531 10.460938 8.5625 10.125 C 10.398438 9.457031 13.0625 9 16 9 Z M 6 14.875 C 6.546875 15.222656 7.164063 15.523438 7.875 15.78125 C 10.019531 16.5625 12.863281 17 16 17 C 19.136719 17 21.980469 16.5625 24.125 15.78125 C 24.835938 15.523438 25.453125 15.222656 26 14.875 L 26 16 C 26 16.148438 25.910156 16.363281 25.5625 16.59375 C 25.214844 16.824219 24.648438 17 24 17 L 23 17 L 23 18 C 23 18.148438 22.910156 18.363281 22.5625 18.59375 C 22.214844 18.824219 21.648438 19 21 19 C 20.371094 19 19.820313 18.820313 19.46875 18.59375 L 18.375 17.90625 L 17.96875 19.125 C 17.875 19.402344 17.117188 20 16 20 C 14.882813 20 14.125 19.402344 14.03125 19.125 L 13.625 17.90625 L 12.53125 18.59375 C 12.179688 18.820313 11.628906 19 11 19 C 10.351563 19 9.785156 18.824219 9.4375 18.59375 C 9.089844 18.363281 9 18.148438 9 18 L 9 17 L 8 17 C 7.351563 17 6.785156 16.824219 6.4375 16.59375 C 6.089844 16.363281 6 16.148438 6 16 Z M 6 18.53125 C 6.390625 18.644531 6.800781 18.714844 7.21875 18.78125 C 7.4375 19.378906 7.792969 19.902344 8.3125 20.25 C 9.050781 20.742188 9.992188 21 11 21 C 11.667969 21 12.214844 20.722656 12.78125 20.5 C 13.523438 21.40625 14.644531 22 16 22 C 17.355469 22 18.476563 21.40625 19.21875 20.5 C 19.785156 20.722656 20.332031 21 21 21 C 22.007813 21 22.949219 20.742188 23.6875 20.25 C 24.207031 19.902344 24.5625 19.378906 24.78125 18.78125 C 25.199219 18.714844 25.609375 18.644531 26 18.53125 L 26 20 C 26 20.179688 25.890625 20.453125 25.46875 20.8125 C 25.046875 21.171875 24.355469 21.539063 23.4375 21.875 C 21.601563 22.542969 18.9375 23 16 23 C 13.0625 23 10.398438 22.542969 8.5625 21.875 C 7.644531 21.539063 6.953125 21.171875 6.53125 20.8125 C 6.109375 20.453125 6 20.179688 6 20 Z "></path>
</g>
</svg>
