<?xml version="1.0" encoding="UTF-8"?>
<svg xmlns="http://www.w3.org/2000/svg" xmlns:xlink="http://www.w3.org/1999/xlink" viewBox="0 0 32 32" version="1.1">
<g>
<path d="M 14 8 C 13.449219 8 13 8.449219 13 9 C 13 9.550781 13.449219 10 14 10 C 14.550781 10 15 9.550781 15 9 C 15 8.449219 14.550781 8 14 8 Z M 14 10 C 12.152344 10 11.167969 13.28125 11.0625 13.59375 L 10.90625 14 L 17 14 L 16.875 13.59375 C 16.773438 13.28125 15.847656 10 14 10 Z M 0.875 15 L 1 16.125 C 1 16.125 1.269531 18.101563 2.65625 20.0625 C 3.980469 21.929688 6.457031 23.800781 10.4375 23.96875 C 11.386719 24.601563 12.578125 25 14 25 C 17.234375 25 19.546875 23.300781 21.28125 21.75 C 22.148438 20.976563 22.890625 20.222656 23.53125 19.71875 C 24.171875 19.214844 24.660156 19 25 19 L 25 18.9375 C 26.335938 18.816406 27.601563 18.480469 28.625 17.96875 C 29.902344 17.328125 31 16.394531 31 15 L 29 15 C 29 15.148438 28.664063 15.714844 27.71875 16.1875 C 26.773438 16.660156 25.398438 17 24 17 C 21.984375 17 20.664063 16.554688 19.84375 16.125 C 19.023438 15.695313 18.78125 15.375 18.78125 15.375 L 18.46875 15 Z M 14 25 C 10.769531 25 10 27 10 27 L 18 27 C 18 27 17.230469 25 14 25 Z M 3.3125 17 L 7 17 C 7.066406 17.828125 7.230469 19.042969 7.71875 20.34375 C 7.886719 20.789063 8.089844 21.246094 8.34375 21.6875 C 6.300781 21.164063 5.074219 20.058594 4.28125 18.9375 C 3.785156 18.234375 3.503906 17.550781 3.3125 17 Z M 9 17 L 17.71875 17 C 17.957031 17.234375 18.136719 17.472656 18.90625 17.875 C 19.570313 18.222656 20.484375 18.535156 21.59375 18.75 C 21.050781 19.230469 20.507813 19.738281 19.9375 20.25 C 18.3125 21.699219 16.542969 23 14 23 C 12.6875 23 11.816406 22.605469 11.125 22 C 10.433594 21.394531 9.929688 20.550781 9.59375 19.65625 C 9.226563 18.679688 9.070313 17.707031 9 17 Z "></path>
</g>
</svg>
