<?xml version="1.0" encoding="UTF-8"?>
<svg xmlns="http://www.w3.org/2000/svg" xmlns:xlink="http://www.w3.org/1999/xlink" viewBox="0 0 32 32" version="1.1">
<g>
<path d="M 11 6 C 9.113281 6 7.539063 7.324219 7.125 9.09375 C 6.921875 9.042969 6.71875 9 6.5 9 C 5.117188 9 4 10.117188 4 11.5 L 4 26 L 9 26 L 9 24 L 23 24 L 23 26 L 28 26 L 28 9 C 28 7.355469 26.644531 6 25 6 L 13 6 L 13 6.5625 C 12.40625 6.214844 11.734375 6 11 6 Z M 11 8 C 12.117188 8 13 8.882813 13 10 C 13 11.117188 12.117188 12 11 12 C 9.882813 12 9 11.117188 9 10 C 9 8.882813 9.882813 8 11 8 Z M 15 8 L 25 8 C 25.554688 8 26 8.445313 26 9 L 26 18 L 15 18 Z M 6.5 11 C 6.714844 11 7 11.285156 7 11.5 L 7 20 L 26 20 L 26 24 L 25 24 L 25 22 L 7 22 L 7 24 L 6 24 L 6 11.5 C 6 11.285156 6.285156 11 6.5 11 Z M 18.6875 11 C 17.6875 11 17 11.8125 17 12.8125 C 17 13.414063 17.59375 14 17.59375 14 L 20.5 16.90625 L 23.40625 14 C 23.40625 14 24 13.414063 24 12.8125 C 24 11.8125 23.1875 11 22.1875 11 C 21.1875 11 20.5 11.90625 20.5 11.90625 C 20.5 11.90625 19.6875 11 18.6875 11 Z M 11 14 C 12.117188 14 13 14.882813 13 16 C 13 17.117188 12.117188 18 11 18 C 9.882813 18 9 17.117188 9 16 C 9 14.882813 9.882813 14 11 14 Z "></path>
</g>
</svg>
