<?xml version="1.0" encoding="UTF-8"?>
<svg xmlns="http://www.w3.org/2000/svg" xmlns:xlink="http://www.w3.org/1999/xlink" viewBox="0 0 32 32" version="1.1">
<g>
<path d="M 16 4 C 13.800781 4 12 5.800781 12 8 C 12 9.113281 12.476563 10.117188 13.21875 10.84375 C 11.886719 11.746094 11 13.28125 11 15 L 11 18.375 L 13 20.625 L 13 28 L 15 28 L 15 21.375 L 15.75 20.6875 L 13 17.625 L 13 15 C 13 13.332031 14.332031 12 16 12 C 17.667969 12 19 13.332031 19 15 L 19 17.625 L 16.25 20.6875 L 16.0625 20.90625 L 16.03125 21.1875 L 15.53125 23.8125 L 15.4375 24.28125 L 15.71875 24.625 L 18.21875 27.625 L 19.78125 26.375 L 17.5625 23.71875 L 17.90625 21.84375 L 20.75 18.65625 L 21 18.375 L 21 15 C 21 13.28125 20.113281 11.746094 18.78125 10.84375 C 19.523438 10.117188 20 9.113281 20 8 C 20 5.800781 18.199219 4 16 4 Z M 16 6 C 17.117188 6 18 6.882813 18 8 C 18 9.117188 17.117188 10 16 10 C 14.882813 10 14 9.117188 14 8 C 14 6.882813 14.882813 6 16 6 Z "></path>
</g>
</svg>
