<?xml version="1.0" encoding="UTF-8"?>
<svg xmlns="http://www.w3.org/2000/svg" xmlns:xlink="http://www.w3.org/1999/xlink" viewBox="0 0 32 32" version="1.1">
<g>
<path d="M 7.5 4 L 6.722656 6.722656 L 4 7.5 L 6.722656 8.277344 L 7.5 11 L 8.277344 8.277344 L 11 7.5 L 8.277344 6.722656 Z M 21 5 L 18.203125 9.203125 L 17 8 L 13.96875 11.03125 C 13.808594 11.023438 13.664063 11 13.5 11 C 9.15625 11 5.566406 14.285156 5.066406 18.496094 C 5.0625 18.527344 5.054688 18.558594 5.054688 18.589844 C 5.019531 18.886719 5 19.191406 5 19.5 C 5 19.789063 5.015625 20.074219 5.046875 20.359375 C 5.050781 20.414063 5.0625 20.46875 5.070313 20.527344 C 5.09375 20.746094 5.125 20.96875 5.171875 21.183594 C 5.191406 21.292969 5.226563 21.402344 5.25 21.511719 C 5.289063 21.660156 5.320313 21.816406 5.367188 21.964844 C 5.417969 22.132813 5.484375 22.296875 5.546875 22.464844 C 5.578125 22.546875 5.601563 22.632813 5.636719 22.714844 C 5.71875 22.914063 5.808594 23.105469 5.90625 23.296875 C 5.925781 23.339844 5.945313 23.382813 5.96875 23.421875 C 6.082031 23.640625 6.207031 23.851563 6.339844 24.058594 C 6.347656 24.070313 6.351563 24.082031 6.359375 24.09375 C 6.78125 24.742188 7.289063 25.328125 7.867188 25.84375 C 7.902344 25.875 7.941406 25.910156 7.976563 25.945313 C 8.117188 26.0625 8.261719 26.175781 8.40625 26.285156 C 8.496094 26.355469 8.585938 26.421875 8.679688 26.488281 C 8.800781 26.574219 8.929688 26.648438 9.054688 26.730469 C 9.164063 26.796875 9.273438 26.867188 9.382813 26.933594 C 9.507813 27 9.636719 27.058594 9.765625 27.121094 C 9.894531 27.183594 10.023438 27.253906 10.15625 27.3125 C 10.261719 27.355469 10.371094 27.390625 10.480469 27.433594 C 10.632813 27.492188 10.785156 27.554688 10.941406 27.605469 C 11.0625 27.644531 11.1875 27.667969 11.308594 27.703125 C 11.460938 27.742188 11.613281 27.789063 11.773438 27.824219 C 11.882813 27.84375 11.996094 27.855469 12.105469 27.875 C 12.5625 27.949219 13.023438 28 13.5 28 C 13.84375 28 14.183594 27.972656 14.515625 27.933594 C 14.632813 27.917969 14.746094 27.898438 14.863281 27.878906 C 15.097656 27.839844 15.328125 27.792969 15.550781 27.738281 C 15.652344 27.714844 15.753906 27.6875 15.855469 27.660156 C 16.140625 27.578125 16.421875 27.480469 16.695313 27.371094 C 16.730469 27.355469 16.769531 27.34375 16.800781 27.328125 C 17.105469 27.203125 17.394531 27.050781 17.679688 26.890625 C 17.761719 26.84375 17.839844 26.792969 17.921875 26.746094 C 18.113281 26.625 18.304688 26.5 18.488281 26.363281 C 18.585938 26.292969 18.683594 26.222656 18.777344 26.148438 C 18.992188 25.976563 19.203125 25.792969 19.402344 25.601563 C 19.429688 25.574219 19.460938 25.550781 19.488281 25.519531 C 19.726563 25.285156 19.949219 25.03125 20.15625 24.765625 C 20.1875 24.726563 20.21875 24.679688 20.25 24.640625 C 20.449219 24.378906 20.636719 24.109375 20.800781 23.828125 C 20.804688 23.824219 20.804688 23.824219 20.808594 23.820313 C 21.558594 22.550781 22 21.078125 22 19.5 C 22 19.335938 21.976563 19.191406 21.96875 19.03125 L 25 16 L 23.796875 14.796875 L 28 12 Z M 21.3125 8.140625 L 24.859375 11.6875 L 22.359375 13.359375 L 19.640625 10.640625 Z M 17 10.828125 L 22.171875 16 L 21 17.171875 L 15.828125 12 Z M 13.5 13 C 13.671875 13 13.859375 13.023438 14.042969 13.042969 L 19.957031 18.957031 C 19.976563 19.140625 20 19.328125 20 19.5 C 20 19.964844 19.949219 20.417969 19.859375 20.859375 C 19.75 20.726563 19.644531 20.59375 19.527344 20.472656 C 18.625 19.5625 17.371094 19 16 19 L 12 19 C 11.171875 19 10.433594 18.664063 9.890625 18.117188 C 9.890625 18.113281 9.886719 18.109375 9.882813 18.109375 C 9.335938 17.566406 9 16.828125 9 16 C 9 15.398438 9.179688 14.84375 9.488281 14.386719 C 10.59375 13.519531 11.980469 13 13.5 13 Z M 7.375 17.84375 C 7.632813 18.476563 7.996094 19.054688 8.476563 19.527344 C 9.375 20.4375 10.628906 21 12 21 L 16 21 C 16.828125 21 17.566406 21.335938 18.109375 21.882813 C 18.109375 21.886719 18.113281 21.890625 18.121094 21.890625 C 18.457031 22.222656 18.621094 22.675781 18.765625 23.125 C 17.757813 24.601563 16.195313 25.683594 14.34375 25.9375 C 14.328125 25.941406 14.316406 25.945313 14.300781 25.949219 C 14.039063 25.980469 13.773438 26 13.5 26 C 13.273438 26 13.054688 25.988281 12.832031 25.96875 C 12.726563 25.957031 12.621094 25.933594 12.515625 25.917969 C 12.398438 25.902344 12.28125 25.886719 12.167969 25.863281 C 12.074219 25.84375 11.984375 25.816406 11.894531 25.792969 C 11.769531 25.761719 11.644531 25.734375 11.527344 25.695313 C 11.457031 25.671875 11.390625 25.644531 11.324219 25.621094 C 11.179688 25.570313 11.039063 25.519531 10.90625 25.460938 C 10.871094 25.445313 10.839844 25.429688 10.808594 25.414063 C 10.042969 25.0625 9.359375 24.570313 8.796875 23.960938 C 8.792969 23.957031 8.789063 23.953125 8.78125 23.949219 C 8.089844 23.222656 7.566406 22.339844 7.273438 21.359375 C 7.214844 21.164063 7.164063 20.964844 7.125 20.761719 C 7.042969 20.355469 7 19.933594 7 19.5 C 7 18.90625 7.226563 18.390625 7.375 17.84375 Z M 25.5 21 L 24.722656 23.722656 L 22 24.5 L 24.722656 25.277344 L 25.5 28 L 26.277344 25.277344 L 29 24.5 L 26.277344 23.722656 Z "></path>
</g>
</svg>
