<?xml version="1.0" encoding="UTF-8"?>
<svg xmlns="http://www.w3.org/2000/svg" xmlns:xlink="http://www.w3.org/1999/xlink" viewBox="0 0 32 32" version="1.1">
<g>
<path d="M 19.1875 5.59375 L 17.71875 8.0625 L 15.21875 12.1875 L 10.59375 11.40625 L 7.84375 10.9375 L 9.65625 13.03125 L 12.78125 16.59375 L 10.5 20.78125 L 9.15625 23.3125 L 16.15625 20.3125 L 19.34375 23.5625 L 21.28125 25.53125 L 21.0625 22.78125 L 20.6875 18.125 L 24.875 15.96875 L 26.1875 15.28125 C 25.929688 16.035156 25.257813 17.726563 25.34375 17.75 C 25.476563 17.789063 26.507813 15.726563 26.9375 15.78125 C 27.367188 15.835938 28.375 17.761719 28.46875 17.6875 C 28.5625 17.613281 27.382813 15.761719 27.53125 15.3125 C 27.679688 14.863281 30.019531 15.007813 30 14.875 C 29.980469 14.742188 27.65625 14.726563 27.46875 14.5 C 27.28125 14.273438 28.46875 12.246094 28.375 12.1875 C 28.28125 12.128906 27.128906 14.144531 26.8125 14.21875 C 26.496094 14.292969 25.363281 12.273438 25.25 12.3125 C 25.164063 12.339844 25.796875 13.65625 26.125 14.40625 L 24.625 14.09375 L 20.15625 13.1875 L 19.5625 8.4375 Z M 6.5 9.1875 C 1.5625 13.308594 2 18.8125 2 18.8125 C 2 22.425781 4.03125 26 7.625 26 C 11.21875 26 15.65625 21.8125 15.65625 21.8125 C 15.65625 21.8125 12.613281 24.1875 9.1875 24.1875 C 5.761719 24.1875 4.09375 21.128906 4.09375 17.0625 C 4.09375 12.996094 5.65625 10.769531 6.5 9.1875 Z M 17.9375 11.5625 L 18.28125 14.125 L 18.375 14.84375 L 19.0625 15 L 21.4375 15.5 L 19.1875 16.65625 L 18.59375 16.9375 L 18.65625 17.625 L 18.84375 20.1875 L 17.125 18.40625 L 16.625 17.90625 L 16 18.1875 L 13.625 19.21875 L 14.84375 16.96875 L 15.1875 16.34375 L 14.71875 15.84375 L 13 13.84375 L 15.5625 14.28125 L 16.25 14.375 L 16.59375 13.8125 Z "></path>
</g>
</svg>
