<?xml version="1.0" encoding="UTF-8"?>
<svg xmlns="http://www.w3.org/2000/svg" xmlns:xlink="http://www.w3.org/1999/xlink" viewBox="0 0 32 32" version="1.1">
<g>
<path d="M 5 5 L 5 27 L 27 27 L 27 5 Z M 7 7 L 25 7 L 25 25 L 7 25 Z M 14 8 L 14 16 L 16 16 L 16 8 Z M 17 9 L 17 16 L 19 16 L 19 9 Z M 11 10 L 11 17.125 L 9.8125 15.4375 L 8.1875 16.5625 L 11.78125 21.6875 C 12.675781 23.070313 14.242188 24 16 24 L 17 24 C 19.746094 24 22 21.746094 22 19 L 22 12 L 20 12 L 20 19 C 20 20.65625 18.65625 22 17 22 L 16 22 C 14.902344 22 13.929688 21.414063 13.40625 20.53125 C 13.140625 20.085938 13 19.554688 13 19 L 13 10 Z "></path>
</g>
</svg>
