<?xml version="1.0"?>
<svg xmlns="http://www.w3.org/2000/svg" viewBox="0 0 32 32">
    <path d="M 15.5 4 C 13.578848 4 12 5.578848 12 7.5 C 12 9.421152 13.578848 11 15.5 11 C 17.421152 11 19 9.421152 19 7.5 C 19 5.578848 17.421152 4 15.5 4 z M 15.5 6 C 16.340272 6 17 6.6597282 17 7.5 C 17 8.3402718 16.340272 9 15.5 9 C 14.659728 9 14 8.3402718 14 7.5 C 14 6.6597282 14.659728 6 15.5 6 z M 13.091797 12 C 11.966797 12 10.945594 12.621375 10.433594 13.609375 L 8.3359375 17.539062 C 7.9399375 18.303062 7.892125 19.202859 8.203125 20.005859 C 8.515125 20.808859 9.1567031 21.437328 9.9707031 21.736328 L 12 22.46875 L 10 28 L 12.132812 28 L 13.876953 23.160156 C 14.061953 22.658156 14.039453 22.115859 13.814453 21.630859 C 13.589453 21.145859 13.190594 20.775844 12.683594 20.589844 L 10.654297 19.859375 C 10.381297 19.758375 10.174359 19.55225 10.068359 19.28125 C 9.9633594 19.01025 9.9794219 18.718703 10.107422 18.470703 L 12.203125 14.539062 C 12.376125 14.206062 12.716797 14 13.091797 14 L 13.390625 14 L 16 17.962891 L 16 22 L 24 22 L 24 14 L 18.167969 14 L 19.484375 16 L 22 16 L 22 20 L 19.720703 20 L 15.167969 13.082031 C 14.822969 12.415031 14.142625 12 13.390625 12 L 13.091797 12 z M 15.328125 25.03125 L 14.257812 28 L 16.349609 28 L 15.328125 25.03125 z" font-weight="400" font-family="sans-serif" white-space="normal" overflow="visible"></path>
</svg>
