<?xml version="1.0" encoding="UTF-8"?>
<svg xmlns="http://www.w3.org/2000/svg" xmlns:xlink="http://www.w3.org/1999/xlink" viewBox="0 0 32 32" version="1.1">
<g>
<path d="M 3 5 L 3 27 L 29 27 L 29 5 Z M 5 7 L 27 7 L 27 25 L 5 25 Z M 7.53125 12.4375 L 7.53125 19.4375 L 9.03125 19.4375 L 9.03125 15.59375 C 9.03125 15.085938 9.027344 14.714844 9 14.46875 C 9.066406 14.597656 9.207031 14.773438 9.375 15.03125 L 12.25 19.4375 L 13.84375 19.4375 L 13.84375 12.4375 L 12.34375 12.4375 L 12.34375 16.3125 C 12.34375 16.792969 12.378906 17.117188 12.40625 17.28125 L 12.375 17.28125 C 12.265625 17.09375 12.160156 16.878906 12.03125 16.6875 L 9.25 12.4375 Z M 18.15625 12.4375 L 18.15625 19.4375 L 19.65625 19.4375 L 19.65625 15.59375 C 19.65625 15.085938 19.621094 14.714844 19.59375 14.46875 L 19.625 14.46875 C 19.691406 14.597656 19.800781 14.773438 19.96875 15.03125 L 22.875 19.4375 L 24.46875 19.4375 L 24.46875 12.4375 L 22.96875 12.4375 L 22.96875 16.3125 C 22.96875 16.792969 22.972656 17.117188 23 17.28125 L 22.96875 17.28125 C 22.859375 17.09375 22.753906 16.878906 22.625 16.6875 L 19.84375 12.4375 Z M 16 14.375 C 15.738281 14.375 15.519531 14.445313 15.34375 14.59375 C 15.167969 14.742188 15.09375 14.953125 15.09375 15.1875 C 15.09375 15.414063 15.175781 15.59375 15.34375 15.75 C 15.511719 15.902344 15.714844 16 15.96875 16 C 16.242188 16 16.488281 15.898438 16.65625 15.75 C 16.828125 15.601563 16.90625 15.425781 16.90625 15.1875 C 16.90625 14.957031 16.824219 14.746094 16.65625 14.59375 C 16.488281 14.441406 16.265625 14.375 16 14.375 Z M 16 17.9375 C 15.738281 17.9375 15.519531 18.039063 15.34375 18.1875 C 15.167969 18.335938 15.09375 18.515625 15.09375 18.75 C 15.09375 18.976563 15.175781 19.15625 15.34375 19.3125 C 15.511719 19.46875 15.714844 19.5625 15.96875 19.5625 C 16.242188 19.5625 16.488281 19.496094 16.65625 19.34375 C 16.828125 19.195313 16.90625 18.988281 16.90625 18.75 C 16.90625 18.519531 16.824219 18.335938 16.65625 18.1875 C 16.488281 18.035156 16.265625 17.9375 16 17.9375 Z "></path>
</g>
</svg>
