<?xml version="1.0" encoding="UTF-8"?>
<svg xmlns="http://www.w3.org/2000/svg" xmlns:xlink="http://www.w3.org/1999/xlink" viewBox="0 0 32 32" version="1.1">
<g>
<path d="M 29 0 C 28.230469 0 27.457031 0.292969 26.875 0.875 L 16.75 11 L 16.71875 11.3125 L 16.25 14.625 L 16.03125 15.96875 L 17.375 15.75 L 20.6875 15.28125 L 21 15.25 L 31.125 5.125 C 32.285156 3.964844 32.285156 2.035156 31.125 0.875 C 30.542969 0.292969 29.769531 0 29 0 Z M 29 2 C 29.253906 2 29.519531 2.082031 29.71875 2.28125 C 30.105469 2.667969 30.117188 3.257813 29.75 3.65625 L 29.71875 3.6875 L 20.0625 13.375 L 18.40625 13.59375 L 18.625 11.9375 L 28.3125 2.28125 C 28.511719 2.082031 28.746094 2 29 2 Z M 11.96875 4.9375 L 4 8.34375 L 4 27.53125 L 12.03125 24.0625 L 20.03125 27.0625 L 28 23.65625 L 28 10.34375 L 26 12.34375 L 26 22.34375 L 21 24.46875 L 21 16.75 L 19 17.03125 L 19 24.5625 L 13 22.3125 L 13 7.4375 L 16.78125 8.875 L 18.34375 7.3125 Z M 11 7.5 L 11 22.34375 L 6 24.46875 L 6 9.65625 Z "></path>
</g>
</svg>
