<?xml version="1.0" encoding="UTF-8"?>
<svg xmlns="http://www.w3.org/2000/svg" xmlns:xlink="http://www.w3.org/1999/xlink" viewBox="0 0 32 32" version="1.1">
<g>
<path d="M 16 4 C 9.382813 4 4 9.382813 4 16 C 4 22.617188 9.382813 28 16 28 C 22.617188 28 28 22.617188 28 16 C 28 9.382813 22.617188 4 16 4 Z M 16 6 C 21.535156 6 26 10.464844 26 16 C 26 21.535156 21.535156 26 16 26 C 10.464844 26 6 21.535156 6 16 C 6 10.464844 10.464844 6 16 6 Z M 12.4375 10.25 L 8 19.5 L 10.78125 21.75 L 13.21875 14.8125 L 15.96875 18.28125 L 18.78125 14.8125 L 21.15625 21.75 L 24 19.5 L 19.46875 10.25 L 15.96875 14.40625 Z "></path>
</g>
</svg>
