<?xml version="1.0" encoding="UTF-8"?>
<svg xmlns="http://www.w3.org/2000/svg" xmlns:xlink="http://www.w3.org/1999/xlink" viewBox="0 0 32 32" version="1.1">
<g>
<path d="M 8.78125 4.03125 C 8.523438 4.054688 8.265625 4.109375 8.03125 4.1875 C 7.097656 4.503906 6.3125 5.121094 5.6875 5.75 C 5.054688 6.386719 4.457031 7.15625 4.15625 8.09375 C 3.855469 9.03125 3.996094 10.25 4.84375 11.09375 C 7.160156 13.398438 8.75 14.464844 10.125 14.84375 C 11.4375 15.203125 12.527344 14.714844 13.125 14.25 C 13.765625 14.601563 14.75 15 16 15 C 18.035156 15 19.460938 14.097656 20.625 13.34375 C 21.789063 12.589844 22.683594 12 24 12 C 24 12 24.550781 12.027344 25.0625 12.28125 C 25.574219 12.535156 26 12.832031 26 14 C 26 15.585938 25.125 16.601563 24.6875 17 L 4 17 L 4 28 L 26 28 L 26 18.4375 C 26.703125 17.789063 28 16.289063 28 14 C 28 12.167969 26.925781 10.964844 25.9375 10.46875 C 24.949219 9.972656 24 10 24 10 C 22.066406 10 20.710938 10.910156 19.5625 11.65625 C 18.414063 12.402344 17.464844 13 16 13 C 15.382813 13 14.890625 12.84375 14.5 12.6875 C 14.863281 12.070313 15.132813 11.199219 14.84375 10.15625 C 14.460938 8.78125 13.398438 7.171875 11.0625 4.84375 C 10.632813 4.417969 10.09375 4.160156 9.5625 4.0625 C 9.296875 4.011719 9.039063 4.007813 8.78125 4.03125 Z M 8.9375 5.96875 C 9.191406 5.917969 9.359375 5.988281 9.625 6.25 C 11.847656 8.460938 12.722656 9.921875 12.9375 10.6875 C 13.152344 11.453125 12.976563 11.5625 12.65625 11.9375 C 12.25 12.414063 12.378906 12.285156 11.9375 12.65625 C 11.558594 12.972656 11.429688 13.148438 10.65625 12.9375 C 9.882813 12.726563 8.449219 11.878906 6.25 9.6875 C 5.921875 9.359375 5.914063 9.179688 6.0625 8.71875 C 6.210938 8.257813 6.640625 7.644531 7.125 7.15625 C 7.613281 6.660156 8.207031 6.214844 8.65625 6.0625 C 8.769531 6.023438 8.851563 5.984375 8.9375 5.96875 Z M 10 9 C 9.449219 9 9 9.449219 9 10 C 9 10.550781 9.449219 11 10 11 C 10.550781 11 11 10.550781 11 10 C 11 9.449219 10.550781 9 10 9 Z M 6 19 L 24 19 L 24 26 L 6 26 Z M 8 20 L 8 25 L 10 25 L 10 20 Z M 11 20 L 11 25 L 13 25 L 13 20 Z M 15 20 L 15 22 L 22 22 L 22 20 Z M 16 23 C 15.449219 23 15 23.449219 15 24 C 15 24.550781 15.449219 25 16 25 C 16.550781 25 17 24.550781 17 24 C 17 23.449219 16.550781 23 16 23 Z M 21 23 C 20.449219 23 20 23.449219 20 24 C 20 24.550781 20.449219 25 21 25 C 21.550781 25 22 24.550781 22 24 C 22 23.449219 21.550781 23 21 23 Z "></path>
</g>
</svg>
