<?xml version="1.0" encoding="UTF-8"?>
<svg xmlns="http://www.w3.org/2000/svg" xmlns:xlink="http://www.w3.org/1999/xlink" viewBox="0 0 32 32" version="1.1">
<g>
<path d="M 14 3 C 14.023438 3 13.90625 3.429688 14 4.125 C 14.042969 4.292969 14.0625 4.5 14.15625 4.6875 C 14.226563 4.886719 14.347656 5.050781 14.46875 5.25 C 14.730469 5.625 15.070313 5.964844 15.34375 6.28125 C 15.621094 6.597656 15.828125 6.917969 15.9375 7.21875 C 15.976563 7.378906 16.019531 7.503906 16.03125 7.65625 C 16.042969 7.785156 16.0625 7.890625 16.0625 8 C 16.042969 8 16.019531 8 16 8 C 15.535156 8 15.097656 8.046875 14.65625 8.125 C 14.5625 8.007813 14.484375 7.859375 14.375 7.71875 C 14.25 7.546875 14.070313 7.410156 13.90625 7.25 C 13.742188 7.089844 13.519531 6.980469 13.3125 6.84375 C 12.867188 6.582031 12.363281 6.417969 11.90625 6.34375 C 11.445313 6.265625 11.046875 6.226563 10.6875 6.125 C 10.515625 6.0625 10.332031 6.027344 10.1875 5.9375 C 10.027344 5.867188 9.910156 5.75 9.78125 5.65625 C 9.554688 5.441406 9.378906 5.226563 9.28125 5.0625 C 9.171875 4.902344 9.09375 4.8125 9.09375 4.8125 C 9.113281 4.804688 9.171875 5.242188 9.53125 5.84375 C 9.636719 5.980469 9.75 6.144531 9.90625 6.28125 C 10.046875 6.4375 10.214844 6.585938 10.40625 6.71875 C 10.792969 6.960938 11.25 7.128906 11.625 7.3125 C 12.003906 7.496094 12.28125 7.703125 12.5 7.9375 C 12.601563 8.070313 12.710938 8.175781 12.78125 8.3125 C 12.84375 8.433594 12.898438 8.519531 12.9375 8.625 C 12.554688 8.785156 12.164063 8.972656 11.8125 9.1875 C 11.679688 9.109375 11.535156 9.027344 11.375 8.9375 C 11.195313 8.828125 10.996094 8.773438 10.78125 8.6875 C 10.570313 8.601563 10.304688 8.550781 10.0625 8.5 C 9.550781 8.425781 9.046875 8.492188 8.59375 8.59375 C 8.136719 8.695313 7.714844 8.832031 7.34375 8.875 C 7.160156 8.882813 6.980469 8.875 6.8125 8.84375 C 6.636719 8.835938 6.496094 8.785156 6.34375 8.75 C 6.054688 8.636719 5.808594 8.488281 5.65625 8.375 C 5.496094 8.269531 5.40625 8.21875 5.40625 8.21875 C 5.421875 8.203125 5.628906 8.605469 6.1875 9.03125 C 6.335938 9.117188 6.492188 9.246094 6.6875 9.3125 C 6.878906 9.40625 7.085938 9.445313 7.3125 9.5 C 7.761719 9.578125 8.242188 9.566406 8.65625 9.59375 C 9.074219 9.621094 9.429688 9.707031 9.71875 9.84375 C 9.863281 9.929688 10.007813 9.964844 10.125 10.0625 C 10.226563 10.148438 10.328125 10.230469 10.40625 10.3125 C 10.070313 10.640625 9.773438 10.992188 9.5 11.375 C 9.347656 11.355469 9.183594 11.335938 9 11.3125 C 8.792969 11.28125 8.574219 11.308594 8.34375 11.3125 C 8.117188 11.316406 7.867188 11.386719 7.625 11.4375 C 7.128906 11.570313 6.660156 11.824219 6.28125 12.09375 C 5.898438 12.367188 5.578125 12.628906 5.25 12.8125 C 5.085938 12.890625 4.917969 12.992188 4.75 13.03125 C 4.585938 13.09375 4.4375 13.097656 4.28125 13.125 C 3.96875 13.132813 3.6875 13.109375 3.5 13.0625 C 3.308594 13.027344 3.1875 13 3.1875 13 C 3.195313 12.980469 3.570313 13.265625 4.25 13.4375 C 4.421875 13.460938 4.605469 13.515625 4.8125 13.5 C 5.023438 13.511719 5.238281 13.445313 5.46875 13.40625 C 5.914063 13.304688 6.355469 13.105469 6.75 12.96875 C 7.144531 12.828125 7.492188 12.769531 7.8125 12.78125 C 7.976563 12.804688 8.132813 12.796875 8.28125 12.84375 C 8.398438 12.882813 8.496094 12.898438 8.59375 12.9375 C 8.429688 13.328125 8.320313 13.738281 8.21875 14.15625 C 8.078125 14.195313 7.917969 14.234375 7.75 14.28125 C 7.546875 14.328125 7.367188 14.441406 7.15625 14.53125 C 6.945313 14.621094 6.707031 14.769531 6.5 14.90625 C 6.085938 15.214844 5.78125 15.605469 5.53125 16 C 5.277344 16.394531 5.078125 16.769531 4.84375 17.0625 C 4.722656 17.199219 4.609375 17.339844 4.46875 17.4375 C 4.339844 17.558594 4.167969 17.605469 4.03125 17.6875 C 3.746094 17.8125 3.5 17.910156 3.3125 17.9375 C 3.121094 17.976563 3 18 3 18 C 3 17.976563 3.429688 18.09375 4.125 18 C 4.292969 17.957031 4.5 17.9375 4.6875 17.84375 C 4.886719 17.773438 5.050781 17.652344 5.25 17.53125 C 5.625 17.269531 5.964844 16.929688 6.28125 16.65625 C 6.597656 16.378906 6.917969 16.171875 7.21875 16.0625 C 7.378906 16.023438 7.503906 15.980469 7.65625 15.96875 C 7.785156 15.957031 7.890625 15.9375 8 15.9375 C 8 15.957031 8 15.980469 8 16 C 8 16.417969 8.03125 16.816406 8.09375 17.21875 C 7.972656 17.3125 7.863281 17.417969 7.71875 17.53125 C 7.546875 17.652344 7.410156 17.835938 7.25 18 C 7.089844 18.164063 6.953125 18.386719 6.8125 18.59375 C 6.550781 19.035156 6.390625 19.542969 6.3125 20 C 6.230469 20.460938 6.199219 20.890625 6.09375 21.25 C 6.03125 21.421875 5.96875 21.574219 5.875 21.71875 C 5.800781 21.878906 5.6875 21.996094 5.59375 22.125 C 5.375 22.347656 5.164063 22.527344 5 22.625 C 4.839844 22.734375 4.75 22.8125 4.75 22.8125 C 4.742188 22.792969 5.175781 22.726563 5.78125 22.375 C 5.917969 22.269531 6.113281 22.1875 6.25 22.03125 C 6.40625 21.890625 6.519531 21.6875 6.65625 21.5 C 6.902344 21.113281 7.09375 20.683594 7.28125 20.3125 C 7.46875 19.933594 7.671875 19.621094 7.90625 19.40625 C 8.039063 19.308594 8.144531 19.226563 8.28125 19.15625 C 8.402344 19.09375 8.488281 19.039063 8.59375 19 C 8.867188 19.671875 9.25 20.308594 9.6875 20.875 L 5.28125 25.28125 L 6.71875 26.71875 L 11.125 22.3125 C 11.207031 22.375 11.292969 22.441406 11.375 22.5 C 11.355469 22.652344 11.335938 22.816406 11.3125 23 C 11.28125 23.207031 11.308594 23.425781 11.3125 23.65625 C 11.316406 23.882813 11.386719 24.132813 11.4375 24.375 C 11.570313 24.871094 11.824219 25.339844 12.09375 25.71875 C 12.367188 26.101563 12.628906 26.421875 12.8125 26.75 C 12.890625 26.914063 12.992188 27.082031 13.03125 27.25 C 13.09375 27.414063 13.097656 27.59375 13.125 27.75 C 13.132813 28.0625 13.109375 28.3125 13.0625 28.5 C 13.027344 28.691406 13 28.8125 13 28.8125 C 12.980469 28.804688 13.265625 28.429688 13.4375 27.75 C 13.460938 27.578125 13.515625 27.394531 13.5 27.1875 C 13.511719 26.976563 13.445313 26.761719 13.40625 26.53125 C 13.304688 26.085938 13.105469 25.644531 12.96875 25.25 C 12.828125 24.855469 12.769531 24.507813 12.78125 24.1875 C 12.804688 24.023438 12.796875 23.867188 12.84375 23.71875 C 12.882813 23.601563 12.898438 23.503906 12.9375 23.40625 C 13.328125 23.570313 13.738281 23.679688 14.15625 23.78125 C 14.195313 23.921875 14.234375 24.082031 14.28125 24.25 C 14.328125 24.453125 14.441406 24.632813 14.53125 24.84375 C 14.621094 25.054688 14.769531 25.292969 14.90625 25.5 C 15.214844 25.914063 15.605469 26.21875 16 26.46875 C 16.394531 26.722656 16.769531 26.921875 17.0625 27.15625 C 17.199219 27.277344 17.339844 27.390625 17.4375 27.53125 C 17.558594 27.660156 17.605469 27.832031 17.6875 27.96875 C 17.8125 28.253906 17.910156 28.5 17.9375 28.6875 C 17.976563 28.878906 18 29 18 29 C 17.976563 29 18.09375 28.570313 18 27.875 C 17.957031 27.707031 17.9375 27.5 17.84375 27.3125 C 17.773438 27.113281 17.652344 26.949219 17.53125 26.75 C 17.269531 26.375 16.929688 26.035156 16.65625 25.71875 C 16.378906 25.402344 16.171875 25.082031 16.0625 24.78125 C 16.023438 24.621094 15.980469 24.496094 15.96875 24.34375 C 15.957031 24.214844 15.9375 24.109375 15.9375 24 C 15.957031 24 15.980469 24 16 24 C 16.417969 24 16.816406 23.96875 17.21875 23.90625 C 17.3125 24.027344 17.417969 24.136719 17.53125 24.28125 C 17.652344 24.453125 17.835938 24.589844 18 24.75 C 18.164063 24.910156 18.386719 25.046875 18.59375 25.1875 C 19.035156 25.449219 19.542969 25.609375 20 25.6875 C 20.460938 25.769531 20.890625 25.800781 21.25 25.90625 C 21.421875 25.96875 21.574219 26.03125 21.71875 26.125 C 21.878906 26.199219 21.996094 26.3125 22.125 26.40625 C 22.347656 26.625 22.527344 26.835938 22.625 27 C 22.734375 27.160156 22.8125 27.25 22.8125 27.25 C 22.792969 27.257813 22.726563 26.824219 22.375 26.21875 C 22.269531 26.082031 22.1875 25.886719 22.03125 25.75 C 21.890625 25.59375 21.6875 25.480469 21.5 25.34375 C 21.113281 25.097656 20.683594 24.90625 20.3125 24.71875 C 19.933594 24.53125 19.621094 24.328125 19.40625 24.09375 C 19.308594 23.960938 19.226563 23.855469 19.15625 23.71875 C 19.09375 23.597656 19.039063 23.511719 19 23.40625 C 19.40625 23.238281 19.816406 23.042969 20.1875 22.8125 C 20.320313 22.890625 20.464844 22.972656 20.625 23.0625 C 20.804688 23.171875 21.003906 23.226563 21.21875 23.3125 C 21.429688 23.398438 21.695313 23.449219 21.9375 23.5 C 22.449219 23.574219 22.953125 23.507813 23.40625 23.40625 C 23.863281 23.304688 24.285156 23.164063 24.65625 23.125 C 24.839844 23.117188 25.019531 23.125 25.1875 23.15625 C 25.363281 23.164063 25.503906 23.214844 25.65625 23.25 C 25.945313 23.363281 26.191406 23.511719 26.34375 23.625 C 26.503906 23.730469 26.59375 23.78125 26.59375 23.78125 C 26.578125 23.796875 26.371094 23.394531 25.8125 22.96875 C 25.664063 22.882813 25.507813 22.753906 25.3125 22.6875 C 25.121094 22.59375 24.914063 22.554688 24.6875 22.5 C 24.238281 22.421875 23.757813 22.433594 23.34375 22.40625 C 22.925781 22.378906 22.570313 22.292969 22.28125 22.15625 C 22.136719 22.070313 21.992188 22.035156 21.875 21.9375 C 21.773438 21.851563 21.671875 21.769531 21.59375 21.6875 C 21.929688 21.359375 22.226563 21.007813 22.5 20.625 C 22.652344 20.644531 22.816406 20.664063 23 20.6875 C 23.207031 20.71875 23.425781 20.691406 23.65625 20.6875 C 23.882813 20.683594 24.132813 20.613281 24.375 20.5625 C 24.871094 20.429688 25.339844 20.175781 25.71875 19.90625 C 26.101563 19.632813 26.421875 19.371094 26.75 19.1875 C 26.914063 19.109375 27.082031 19.007813 27.25 18.96875 C 27.414063 18.90625 27.59375 18.902344 27.75 18.875 C 28.0625 18.867188 28.3125 18.890625 28.5 18.9375 C 28.691406 18.972656 28.8125 19 28.8125 19 C 28.804688 19.019531 28.429688 18.734375 27.75 18.5625 C 27.578125 18.539063 27.394531 18.484375 27.1875 18.5 C 26.976563 18.488281 26.761719 18.554688 26.53125 18.59375 C 26.085938 18.695313 25.644531 18.894531 25.25 19.03125 C 24.855469 19.171875 24.507813 19.230469 24.1875 19.21875 C 24.023438 19.195313 23.867188 19.203125 23.71875 19.15625 C 23.601563 19.117188 23.503906 19.101563 23.40625 19.0625 C 23.570313 18.671875 23.679688 18.261719 23.78125 17.84375 C 23.921875 17.804688 24.082031 17.765625 24.25 17.71875 C 24.453125 17.671875 24.632813 17.558594 24.84375 17.46875 C 25.054688 17.378906 25.292969 17.230469 25.5 17.09375 C 25.914063 16.785156 26.21875 16.394531 26.46875 16 C 26.722656 15.605469 26.921875 15.230469 27.15625 14.9375 C 27.277344 14.800781 27.390625 14.660156 27.53125 14.5625 C 27.660156 14.441406 27.832031 14.394531 27.96875 14.3125 C 28.253906 14.1875 28.5 14.089844 28.6875 14.0625 C 28.878906 14.023438 29 14 29 14 C 29 14.023438 28.570313 13.90625 27.875 14 C 27.707031 14.042969 27.5 14.0625 27.3125 14.15625 C 27.113281 14.226563 26.949219 14.347656 26.75 14.46875 C 26.375 14.730469 26.035156 15.070313 25.71875 15.34375 C 25.402344 15.621094 25.082031 15.828125 24.78125 15.9375 C 24.621094 15.976563 24.496094 16.019531 24.34375 16.03125 C 24.214844 16.042969 24.109375 16.0625 24 16.0625 C 24 16.042969 24 16.019531 24 16 C 24 15.574219 23.972656 15.15625 23.90625 14.75 C 24.023438 14.660156 24.140625 14.574219 24.28125 14.46875 C 24.453125 14.347656 24.589844 14.164063 24.75 14 C 24.910156 13.835938 25.046875 13.613281 25.1875 13.40625 C 25.449219 12.964844 25.609375 12.457031 25.6875 12 C 25.769531 11.539063 25.800781 11.109375 25.90625 10.75 C 25.96875 10.578125 26.03125 10.425781 26.125 10.28125 C 26.199219 10.121094 26.3125 10.003906 26.40625 9.875 C 26.625 9.652344 26.835938 9.472656 27 9.375 C 27.160156 9.265625 27.25 9.1875 27.25 9.1875 C 27.257813 9.207031 26.824219 9.273438 26.21875 9.625 C 26.082031 9.730469 25.886719 9.8125 25.75 9.96875 C 25.59375 10.109375 25.480469 10.3125 25.34375 10.5 C 25.097656 10.886719 24.90625 11.316406 24.71875 11.6875 C 24.53125 12.066406 24.328125 12.378906 24.09375 12.59375 C 23.960938 12.691406 23.855469 12.773438 23.71875 12.84375 C 23.59375 12.90625 23.519531 12.992188 23.40625 13.03125 C 23.253906 12.65625 23.078125 12.28125 22.875 11.9375 L 21.40625 13.40625 C 21.78125 14.1875 22 15.074219 22 16 C 22 19.324219 19.324219 22 16 22 C 12.675781 22 10 19.324219 10 16 C 10 12.675781 12.675781 10 16 10 C 16.925781 10 17.8125 10.21875 18.59375 10.59375 L 19.34375 9.8125 L 20.03125 9.125 C 20.039063 9.128906 20.054688 9.121094 20.0625 9.125 L 20.6875 8.46875 C 20.683594 8.417969 20.6875 8.394531 20.6875 8.34375 C 20.683594 8.117188 20.613281 7.867188 20.5625 7.625 C 20.429688 7.128906 20.179688 6.660156 19.90625 6.28125 C 19.632813 5.898438 19.371094 5.578125 19.1875 5.25 C 19.109375 5.085938 19.007813 4.917969 18.96875 4.75 C 18.90625 4.585938 18.902344 4.4375 18.875 4.28125 C 18.867188 3.96875 18.890625 3.683594 18.9375 3.5 C 18.96875 3.308594 19 3.1875 19 3.1875 C 19.019531 3.195313 18.734375 3.570313 18.5625 4.25 C 18.542969 4.421875 18.484375 4.605469 18.5 4.8125 C 18.488281 5.023438 18.554688 5.238281 18.59375 5.46875 C 18.695313 5.914063 18.894531 6.355469 19.03125 6.75 C 19.171875 7.144531 19.230469 7.492188 19.21875 7.8125 C 19.195313 7.976563 19.203125 8.132813 19.15625 8.28125 C 19.113281 8.414063 19.082031 8.519531 19.03125 8.625 C 18.652344 8.46875 18.25 8.316406 17.84375 8.21875 C 17.804688 8.078125 17.765625 7.917969 17.71875 7.75 C 17.671875 7.546875 17.558594 7.367188 17.46875 7.15625 C 17.378906 6.945313 17.230469 6.707031 17.09375 6.5 C 16.785156 6.085938 16.394531 5.78125 16 5.53125 C 15.605469 5.277344 15.230469 5.078125 14.9375 4.84375 C 14.800781 4.722656 14.660156 4.609375 14.5625 4.46875 C 14.441406 4.339844 14.394531 4.167969 14.3125 4.03125 C 14.1875 3.746094 14.089844 3.5 14.0625 3.3125 C 14.023438 3.121094 14 3 14 3 Z M 28 4 L 24 5 L 24 6.5625 L 20.5 10.0625 L 20.40625 10.1875 L 18.28125 12.28125 L 19.71875 13.71875 L 25.4375 8 L 27 8 Z "></path>
</g>
</svg>
