<?xml version="1.0" encoding="UTF-8"?>
<svg xmlns="http://www.w3.org/2000/svg" xmlns:xlink="http://www.w3.org/1999/xlink" viewBox="0 0 32 32" version="1.1">
<g>
<path d="M 8 3 L 8 5 L 9 5 L 9 6 L 8 6 L 8 8 L 9 8 L 9 9 L 8 9 L 8 11 L 9 11 L 9 18 L 6 18 L 6 26.09375 C 6 27.6875 7.3125 29 8.90625 29 L 11.09375 29 C 12.6875 29 14 27.6875 14 26.09375 L 14 18 L 11 18 L 11 11 L 12 11 L 12 9 L 11 9 L 11 8 L 12 8 L 12 6 L 11 6 L 11 5 L 12 5 L 12 3 Z M 19 9 L 19 12 L 17 12 L 17 26.03125 C 17 27.660156 18.339844 29 19.96875 29 L 24.03125 29 C 25.660156 29 27 27.660156 27 26.03125 L 27 12 L 25 12 L 25 9 Z M 21 11 L 23 11 L 23 12 L 21 12 Z M 19 14 L 25 14 L 25 15 L 19 15 Z M 19 17 L 25 17 L 25 26.03125 C 25 26.578125 24.578125 27 24.03125 27 L 19.96875 27 C 19.421875 27 19 26.578125 19 26.03125 Z M 8 20 L 12 20 L 12 26.09375 C 12 26.605469 11.605469 27 11.09375 27 L 8.90625 27 C 8.394531 27 8 26.605469 8 26.09375 Z "></path>
</g>
</svg>
