<?xml version="1.0" encoding="UTF-8"?>
<svg xmlns="http://www.w3.org/2000/svg" xmlns:xlink="http://www.w3.org/1999/xlink" viewBox="0 0 32 32" version="1.1">
<g>
<path d="M 18.5 4 C 16.578125 4 15 5.578125 15 7.5 C 15 9.421875 16.578125 11 18.5 11 C 20.421875 11 22 9.421875 22 7.5 C 22 5.578125 20.421875 4 18.5 4 Z M 18.5 6 C 19.339844 6 20 6.660156 20 7.5 C 20 8.339844 19.339844 9 18.5 9 C 17.660156 9 17 8.339844 17 7.5 C 17 6.660156 17.660156 6 18.5 6 Z M 22.6875 11.34375 C 22.511719 11.355469 22.328125 11.394531 22.15625 11.4375 L 20.59375 11.8125 C 19.796875 12.011719 19.125 12.535156 18.71875 13.25 L 16.03125 18 L 18.34375 18 L 19.84375 15.28125 L 21.125 18 L 23.3125 18 L 21.3125 13.6875 L 22.625 13.375 C 23.085938 13.253906 23.578125 13.472656 23.78125 13.90625 L 25.6875 18 L 27.875 18 L 25.59375 13.0625 C 25.0625 11.921875 23.90625 11.261719 22.6875 11.34375 Z M 7.5 17 C 5.578125 17 4 18.578125 4 20.5 C 4 22.421875 5.578125 24 7.5 24 C 9.421875 24 11 22.421875 11 20.5 C 11 18.578125 9.421875 17 7.5 17 Z M 7.5 19 C 8.339844 19 9 19.660156 9 20.5 C 9 21.339844 8.339844 22 7.5 22 C 6.660156 22 6 21.339844 6 20.5 C 6 19.660156 6.660156 19 7.5 19 Z M 15 19 C 13.355469 19 12 20.355469 12 22 L 12 23.5625 L 9.5625 26 L 4 26 L 4 28 L 10.40625 28 L 10.71875 27.71875 L 13.4375 25 L 23 25 L 23 27 L 29 27 L 29 25 L 25 25 L 25 21 L 29 21 L 29 19 Z M 15 21 L 23 21 L 23 23 L 14 23 L 14 22 C 14 21.433594 14.433594 21 15 21 Z "></path>
</g>
</svg>
