<?xml version="1.0"?>
<svg xmlns="http://www.w3.org/2000/svg" viewBox="0 0 32 32">
    <path d="M 11 6 C 5.4889971 6 1 10.488997 1 16 C 1 21.511003 5.4889971 26 11 26 C 12.817592 26 14.519361 25.504551 15.990234 24.652344 C 17.464514 25.507892 19.178073 26 21 26 C 26.511334 26 31 21.511334 31 16 C 31 10.488666 26.511334 6 21 6 C 19.178073 6 17.464514 6.4921076 15.990234 7.3476562 C 14.519361 6.4954492 12.817592 6 11 6 z M 11 8 C 12.146195 8 13.2327 8.2428221 14.216797 8.6738281 C 14.215451 8.6750761 14.214236 8.6764857 14.212891 8.6777344 C 13.484891 9.3537344 12.856516 10.137 12.353516 11 L 17.248047 11 C 17.729345 11.601339 18.12323 12.273809 18.416016 13 L 11.46875 13 C 11.26475 13.641 11.122734 14.31 11.052734 15 L 18.931641 15 C 18.972344 15.328147 19 15.660531 19 16 C 19 16.339469 18.972344 16.671853 18.931641 17 L 11.052734 17 C 11.121734 17.69 11.26475 18.359 11.46875 19 L 18.416016 19 C 18.12323 19.726191 17.729345 20.398661 17.248047 21 L 12.353516 21 C 12.856516 21.863 13.484891 22.646266 14.212891 23.322266 C 14.214236 23.323514 14.215451 23.324924 14.216797 23.326172 C 13.2327 23.757178 12.146195 24 11 24 C 6.5698774 24 3 20.430123 3 16 C 3 11.569877 6.5698774 8 11 8 z M 21 8 C 25.430666 8 29 11.569334 29 16 C 29 20.430666 25.430666 24 21 24 C 19.854144 24 18.775036 23.748348 17.792969 23.316406 C 17.797013 23.312647 17.800649 23.308453 17.804688 23.304688 C 18.029446 23.095148 18.24446 22.875676 18.449219 22.646484 C 18.47075 22.622421 18.492369 22.598488 18.513672 22.574219 C 18.727824 22.329836 18.931189 22.07695 19.121094 21.8125 C 19.124683 21.807518 19.127279 21.801864 19.130859 21.796875 C 19.307418 21.55006 19.472971 21.295939 19.626953 21.033203 C 19.645799 21.001173 19.665096 20.969754 19.683594 20.9375 C 19.822927 20.69358 19.949532 20.441681 20.068359 20.185547 C 20.094105 20.130297 20.123681 20.077273 20.148438 20.021484 C 20.2478 19.796585 20.333136 19.565192 20.416016 19.332031 C 20.449649 19.237883 20.488681 19.146202 20.519531 19.050781 C 20.591685 18.826461 20.648695 18.596083 20.705078 18.365234 C 20.72905 18.267581 20.760195 18.172974 20.78125 18.074219 C 20.825702 17.864711 20.853717 17.649616 20.884766 17.435547 C 20.904444 17.300511 20.931144 17.167985 20.945312 17.03125 C 20.980341 16.691786 21 16.348515 21 16 C 21 15.651485 20.980341 15.308214 20.945312 14.96875 C 20.931144 14.832015 20.904444 14.699489 20.884766 14.564453 C 20.853717 14.350384 20.825702 14.135289 20.78125 13.925781 C 20.760195 13.827026 20.72905 13.732419 20.705078 13.634766 C 20.648695 13.403917 20.591685 13.173539 20.519531 12.949219 C 20.488681 12.853798 20.449649 12.762117 20.416016 12.667969 C 20.333136 12.434808 20.2478 12.203415 20.148438 11.978516 C 20.123681 11.922727 20.094105 11.869703 20.068359 11.814453 C 19.949532 11.558319 19.822927 11.30642 19.683594 11.0625 C 19.665096 11.030246 19.645799 10.998827 19.626953 10.966797 C 19.46986 10.698754 19.301669 10.438958 19.121094 10.1875 C 19.112411 10.175447 19.102485 10.164357 19.09375 10.152344 C 18.911422 9.9008054 18.718046 9.659006 18.513672 9.4257812 C 18.492369 9.4015116 18.47075 9.3775791 18.449219 9.3535156 C 18.24446 9.1243238 18.029446 8.9048523 17.804688 8.6953125 C 17.800649 8.691547 17.797013 8.6873527 17.792969 8.6835938 C 18.775036 8.2516524 19.854144 8 21 8 z"></path>
</svg>
