<?xml version="1.0" encoding="UTF-8"?>
<svg xmlns="http://www.w3.org/2000/svg" xmlns:xlink="http://www.w3.org/1999/xlink" viewBox="0 0 32 32" version="1.1">
<g>
<path d="M 9.96875 2.90625 L 9.15625 4.15625 C 8.90625 4.542969 3 13.714844 3 22 C 3 25.644531 4.964844 27.996094 8 28 L 8 26 C 7.664063 26 6 25.902344 6 24 C 6 22.664063 8.730469 18.117188 11.03125 14.71875 C 11.992188 16.132813 13 17.957031 13 18.9375 C 13 18.949219 12.929688 20 11 20 L 11 22 L 12 22 C 16.132813 22 17 19.28125 17 17 C 17 12.953125 11.445313 4.988281 10.8125 4.09375 Z M 10.0625 6.53125 C 11.964844 9.40625 15 14.539063 15 17 C 15 17.421875 14.976563 17.800781 14.90625 18.125 C 14.386719 15.757813 12.070313 12.746094 11.78125 12.375 L 10.96875 11.3125 L 10.1875 12.4375 C 9.449219 13.484375 6.59375 17.554688 5.03125 20.78125 C 5.441406 15.152344 8.578125 9.125 10.0625 6.53125 Z M 28 16 L 14.875 23.375 C 13.890625 22.824219 12.429688 22.878906 11.09375 23.65625 C 10.066406 24.257813 9.328125 25.191406 9.09375 26.125 C 8.9375 26.757813 9 27.367188 9.3125 27.875 C 9.765625 28.605469 10.621094 29 11.59375 29 C 12.332031 29 13.140625 28.789063 13.90625 28.34375 C 14.933594 27.746094 15.671875 26.804688 15.90625 25.875 C 15.976563 25.585938 15.996094 25.304688 15.96875 25.03125 L 29 17.75 Z M 13.40625 25 C 13.710938 25 13.914063 25.070313 13.96875 25.15625 C 14.007813 25.21875 13.980469 25.355469 13.96875 25.40625 C 13.890625 25.714844 13.578125 26.203125 12.90625 26.59375 C 11.941406 27.15625 11.144531 27.027344 11.03125 26.84375 C 10.992188 26.78125 11.019531 26.640625 11.03125 26.59375 C 11.109375 26.285156 11.421875 25.796875 12.09375 25.40625 C 12.605469 25.109375 13.066406 25 13.40625 25 Z "></path>
</g>
</svg>
