<?xml version="1.0" encoding="UTF-8"?>
<svg xmlns="http://www.w3.org/2000/svg" xmlns:xlink="http://www.w3.org/1999/xlink" viewBox="0 0 32 32" version="1.1">
<g>
<path d="M 5 5 L 5 27 L 27 27 L 27 5 Z M 7 7 L 15 7 L 15 15 L 7 15 Z M 17 7 L 25 7 L 25 15 L 17 15 Z M 10 8 L 10 10 L 8 10 L 8 12 L 10 12 L 10 14 L 12 14 L 12 12 L 14 12 L 14 10 L 12 10 L 12 8 Z M 18 10 L 18 12 L 24 12 L 24 10 Z M 7 17 L 15 17 L 15 25 L 7 25 Z M 17 17 L 25 17 L 25 25 L 17 25 Z M 18 18 L 18 20 L 24 20 L 24 18 Z M 9.59375 18.1875 L 8.1875 19.59375 L 9.59375 21 L 8.1875 22.40625 L 9.59375 23.8125 L 11 22.40625 L 12.40625 23.8125 L 13.8125 22.40625 L 12.40625 21 L 13.8125 19.59375 L 12.40625 18.1875 L 11 19.59375 Z M 18 22 L 18 24 L 24 24 L 24 22 Z "></path>
</g>
</svg>
