<?xml version="1.0" encoding="UTF-8"?>
<svg xmlns="http://www.w3.org/2000/svg" xmlns:xlink="http://www.w3.org/1999/xlink" viewBox="0 0 32 32" version="1.1">
<g>
<path d="M 16 4 C 9.382813 4 4 9.382813 4 16 C 4 20.429688 6.417969 24.296875 10 26.375 L 10 23.96875 C 7.578125 22.144531 6 19.261719 6 16 C 6 10.484375 10.484375 6 16 6 C 21.515625 6 26 10.484375 26 16 C 26 19.261719 24.421875 22.140625 22 23.96875 L 22 26.375 C 25.582031 24.296875 28 20.429688 28 16 C 28 9.382813 22.617188 4 16 4 Z M 13 10 C 11.675781 10 10.679688 10.933594 10.03125 12 C 9.382813 13.066406 9 14.347656 9 15.65625 C 9 16.964844 9.410156 18.109375 10.15625 18.875 C 10.660156 19.394531 11.3125 19.714844 12 19.875 L 12 29 L 14 29 L 14 19.875 C 14.6875 19.714844 15.339844 19.394531 15.84375 18.875 C 15.914063 18.800781 15.964844 18.703125 16.03125 18.625 C 16.550781 19.210938 17.21875 19.640625 18 19.84375 L 18 29 L 20 29 L 20 19.84375 C 21.71875 19.398438 23 17.851563 23 16 L 23 10 L 21 10 L 21 16 C 21 17.117188 20.117188 18 19 18 C 17.882813 18 17 17.117188 17 16 L 17 10 L 15 10 L 15 10.8125 C 14.453125 10.328125 13.78125 10 13 10 Z M 18 10 L 18 15 C 18 15.550781 18.449219 16 19 16 C 19.550781 16 20 15.550781 20 15 L 20 10 Z M 13 12 C 13.335938 12 13.84375 12.316406 14.28125 13.03125 C 14.71875 13.746094 15 14.753906 15 15.65625 C 15 16.558594 14.746094 17.121094 14.40625 17.46875 C 14.066406 17.816406 13.601563 18 13 18 C 12.398438 18 11.933594 17.816406 11.59375 17.46875 C 11.253906 17.121094 11 16.558594 11 15.65625 C 11 14.753906 11.28125 13.746094 11.71875 13.03125 C 12.15625 12.316406 12.664063 12 13 12 Z "></path>
</g>
</svg>
