<?xml version="1.0" encoding="UTF-8"?>
<svg xmlns="http://www.w3.org/2000/svg" xmlns:xlink="http://www.w3.org/1999/xlink" viewBox="0 0 32 32" version="1.1">
<g>
<path d="M 4 11 C 2.355469 11 1 12.355469 1 14 L 1 21 L 3 21 L 3 14 C 3 13.433594 3.433594 13 4 13 L 7 13 C 7.566406 13 8 13.433594 8 14 L 8 21 L 10 21 L 10 14 C 10 13.433594 10.433594 13 11 13 L 14 13 C 14.566406 13 15 13.433594 15 14 L 15 21 L 17 21 L 17 14 C 17 12.355469 15.644531 11 14 11 L 11 11 C 10.234375 11 9.53125 11.300781 9 11.78125 C 8.46875 11.300781 7.765625 11 7 11 Z M 22 11 C 20.355469 11 19 12.355469 19 14 L 19 25 L 21 25 L 21 20.8125 C 21.316406 20.925781 21.648438 21 22 21 L 28 21 C 29.644531 21 31 19.644531 31 18 L 31 14 C 31 12.355469 29.644531 11 28 11 Z M 22 13 L 28 13 C 28.566406 13 29 13.433594 29 14 L 29 18 C 29 18.566406 28.566406 19 28 19 L 22 19 C 21.433594 19 21 18.566406 21 18 L 21 14 C 21 13.433594 21.433594 13 22 13 Z "></path>
</g>
</svg>
