<?xml version="1.0" encoding="UTF-8"?>
<svg xmlns="http://www.w3.org/2000/svg" xmlns:xlink="http://www.w3.org/1999/xlink" viewBox="0 0 32 32" version="1.1">
<g>
<path d="M 8 4 L 11.8125 13.1875 C 9.527344 14.597656 8 17.125 8 20 C 8 24.40625 11.59375 28 16 28 C 20.40625 28 24 24.40625 24 20 C 24 17.125 22.472656 14.597656 20.1875 13.1875 L 24 4 L 22 4 L 18.5 12.40625 C 17.921875 12.214844 17.3125 12.085938 16.6875 12.03125 L 20 4 L 18 4 L 14.59375 12.125 C 14.222656 12.191406 13.851563 12.289063 13.5 12.40625 L 10 4 Z M 12 4 L 14.46875 9.90625 L 15.46875 7.5 L 14 4 Z M 16 14 C 19.324219 14 22 16.675781 22 20 C 22 23.324219 19.324219 26 16 26 C 12.675781 26 10 23.324219 10 20 C 10 16.675781 12.675781 14 16 14 Z M 16 16 C 15.136719 16 14.414063 16.152344 13.84375 16.59375 C 13.273438 17.035156 13 17.75 13 18.375 L 15 18.375 C 15 18.1875 15 18.234375 15.0625 18.1875 C 15.125 18.140625 15.394531 18 16 18 C 16.582031 18 16.832031 18.121094 16.90625 18.1875 C 16.980469 18.253906 17 18.300781 17 18.5 C 17 18.785156 16.785156 19 16.5 19 L 16 19 L 16 21 L 16.5 21 C 16.785156 21 17 21.214844 17 21.5 C 17 21.75 16.980469 21.773438 16.9375 21.8125 C 16.894531 21.851563 16.65625 22 16 22 C 15.324219 22 15.058594 21.867188 15.03125 21.84375 C 15.003906 21.820313 15 21.863281 15 21.625 L 13 21.625 C 13 22.195313 13.207031 22.910156 13.78125 23.375 C 14.355469 23.839844 15.082031 24 16 24 C 16.9375 24 17.722656 23.816406 18.28125 23.3125 C 18.839844 22.808594 19 22.078125 19 21.5 C 19 20.9375 18.789063 20.421875 18.46875 20 C 18.789063 19.578125 19 19.0625 19 18.5 C 19 17.871094 18.746094 17.164063 18.1875 16.6875 C 17.628906 16.210938 16.886719 16 16 16 Z "></path>
</g>
</svg>
