<?xml version="1.0" encoding="UTF-8"?>
<svg xmlns="http://www.w3.org/2000/svg" xmlns:xlink="http://www.w3.org/1999/xlink" viewBox="0 0 32 32" version="1.1">
<g>
<path d="M 8 4 L 11.8125 13.1875 C 9.527344 14.597656 8 17.125 8 20 C 8 24.40625 11.59375 28 16 28 C 20.40625 28 24 24.40625 24 20 C 24 17.125 22.472656 14.597656 20.1875 13.1875 L 24 4 L 22 4 L 18.5 12.40625 C 17.921875 12.214844 17.3125 12.085938 16.6875 12.03125 L 20 4 L 18 4 L 14.59375 12.125 C 14.222656 12.191406 13.851563 12.289063 13.5 12.40625 L 10 4 Z M 12 4 L 14.46875 9.90625 L 15.46875 7.5 L 14 4 Z M 16 14 C 19.324219 14 22 16.675781 22 20 C 22 23.324219 19.324219 26 16 26 C 12.675781 26 10 23.324219 10 20 C 10 16.675781 12.675781 14 16 14 Z M 14.84375 16 L 14.625 16.71875 C 14.625 16.71875 14.519531 17.078125 14.28125 17.4375 C 14.042969 17.796875 13.800781 18 13.53125 18 L 13.53125 20 C 14.113281 20 14.605469 19.804688 15 19.53125 L 15 24 L 17 24 L 17 16 Z "></path>
</g>
</svg>
