<?xml version="1.0" encoding="UTF-8"?>
<svg xmlns="http://www.w3.org/2000/svg" xmlns:xlink="http://www.w3.org/1999/xlink" viewBox="0 0 32 32" version="1.1">
<g>
<path d="M 15 4 L 15 9 L 11 9 C 11 9 8.816406 13.613281 5 16 L 4 27 L 28 27 L 27 16 C 23.183594 13.613281 21 9 21 9 L 17 9 L 17 7.203125 C 18.964844 6.691406 20.921875 6.738281 23 5 C 19.59375 5 18.625 4 15 4 Z M 12.191406 11 L 19.808594 11 C 20.523438 12.238281 21.867188 14.253906 23.753906 16 L 20.929688 16 L 19.054688 13 L 12.945313 13 L 11.070313 16 L 8.242188 16 C 10.132813 14.253906 11.476563 12.238281 12.191406 11 Z M 14.054688 15 L 17.945313 15 L 19.195313 17 L 12.804688 17 Z M 6.828125 18 L 10 18 L 10 25 L 6.1875 25 Z M 22 18 L 25.171875 18 L 25.8125 25 L 22 25 Z M 12 19 L 20 19 L 20 25 L 18 25 L 18 21 L 14 21 L 14 25 L 12 25 Z "></path>
</g>
</svg>
