<?xml version="1.0"?>
<svg xmlns="http://www.w3.org/2000/svg" viewBox="0 0 32 32">
    <path d="M 10 4 C 8.898 4 8 4.898 8 6 L 8 26 C 8 27.102 8.898 28 10 28 L 22 28 C 23.102 28 24 27.102 24 26 L 24 6 C 24 4.898 23.102 4 22 4 L 10 4 z M 10 6 L 22 6 L 22 26 L 10 26 L 10 6 z M 15 10 L 15 13 L 12 13 L 12 15 L 15 15 L 15 18 L 17 18 L 17 15 L 20 15 L 20 13 L 17 13 L 17 10 L 15 10 z M 14 23 L 14 25 L 18 25 L 18 23 L 14 23 z" font-weight="400" font-family="sans-serif" white-space="normal" overflow="visible"></path>
</svg>
