<?xml version="1.0" encoding="UTF-8"?>
<svg xmlns="http://www.w3.org/2000/svg" xmlns:xlink="http://www.w3.org/1999/xlink" viewBox="0 0 32 32" version="1.1">
<g>
<path d="M 16 1.59375 L 1.59375 16 L 16 30.40625 L 30.40625 16 Z M 16 4.40625 L 27.59375 16 L 16 27.59375 L 4.40625 16 Z M 11 14.5 C 10.171875 14.5 9.5 15.171875 9.5 16 C 9.5 16.828125 10.171875 17.5 11 17.5 C 11.828125 17.5 12.5 16.828125 12.5 16 C 12.5 15.171875 11.828125 14.5 11 14.5 Z M 16 14.5 C 15.171875 14.5 14.5 15.171875 14.5 16 C 14.5 16.828125 15.171875 17.5 16 17.5 C 16.828125 17.5 17.5 16.828125 17.5 16 C 17.5 15.171875 16.828125 14.5 16 14.5 Z M 21 14.5 C 20.171875 14.5 19.5 15.171875 19.5 16 C 19.5 16.828125 20.171875 17.5 21 17.5 C 21.828125 17.5 22.5 16.828125 22.5 16 C 22.5 15.171875 21.828125 14.5 21 14.5 Z "></path>
</g>
</svg>
