<?xml version="1.0" encoding="UTF-8"?>
<svg xmlns="http://www.w3.org/2000/svg" xmlns:xlink="http://www.w3.org/1999/xlink" viewBox="0 0 32 32" version="1.1">
<g>
<path d="M 16 3 C 13.800781 3 12 4.800781 12 7 C 12 9.199219 13.800781 11 16 11 C 18.199219 11 20 9.199219 20 7 C 20 4.800781 18.199219 3 16 3 Z M 16 5 C 17.117188 5 18 5.882813 18 7 C 18 8.117188 17.117188 9 16 9 C 14.882813 9 14 8.117188 14 7 C 14 5.882813 14.882813 5 16 5 Z M 14.0625 12 C 12.449219 12 10.9375 12.78125 10 14.09375 L 9.96875 14.09375 L 9.96875 14.125 L 7.375 18.03125 L 7.375 18.0625 C 6.941406 18.695313 6.929688 19.515625 7.28125 20.09375 C 7.636719 20.679688 8.382813 21.078125 9.15625 20.96875 L 11 20.71875 L 11 21.3125 L 7.75 22.625 C 6.6875 23.050781 6 24.074219 6 25.21875 C 6 26.757813 7.242188 28 8.78125 28 L 23.21875 28 C 24.757813 28 26 26.757813 26 25.21875 C 26 24.074219 25.316406 23.054688 24.25 22.625 L 21 21.3125 L 21 20.71875 L 22.84375 20.96875 C 23.617188 21.078125 24.363281 20.679688 24.71875 20.09375 C 25.070313 19.515625 25.058594 18.695313 24.625 18.0625 L 24.625 18.03125 L 22.03125 14.125 L 22.03125 14.09375 L 22 14.09375 C 21.0625 12.78125 19.550781 12 17.9375 12 Z M 14.0625 14 L 17.9375 14 C 18.90625 14 19.8125 14.460938 20.375 15.25 L 22.84375 18.96875 L 18.53125 18.34375 L 16.78125 16.15625 L 16 15.21875 L 15.21875 16.15625 L 13.46875 18.34375 L 9.15625 18.96875 L 11.625 15.25 C 12.1875 14.460938 13.09375 14 14.0625 14 Z M 16 18.40625 L 17.21875 19.90625 L 17.46875 20.21875 L 17.84375 20.25 L 19 20.40625 L 19 22.6875 L 23.5 24.46875 C 23.800781 24.589844 24 24.894531 24 25.21875 C 24 25.652344 23.652344 26 23.21875 26 L 18.9375 26 C 18.972656 25.835938 19 25.671875 19 25.5 C 19 24.121094 17.878906 23 16.5 23 L 11 25 L 16.5 25 C 16.773438 25 17 25.222656 17 25.5 C 17 25.777344 16.773438 26 16.5 26 L 8.78125 26 C 8.347656 26 8 25.652344 8 25.21875 C 8 24.894531 8.199219 24.589844 8.5 24.46875 L 13 22.6875 L 13 20.40625 L 14.15625 20.25 L 14.53125 20.21875 L 14.78125 19.90625 Z "></path>
</g>
</svg>
