<?xml version="1.0"?>
<svg xmlns="http://www.w3.org/2000/svg" viewBox="0 0 32 32">
    <path d="M 10 4 C 8.898 4 8 4.898 8 6 L 8 26 C 8 27.102 8.898 28 10 28 L 22 28 C 23.102 28 24 27.102 24 26 L 24 6 C 24 4.898 23.102 4 22 4 L 10 4 z M 10 6 L 22 6 L 22 26 L 10 26 L 10 6 z M 15 9 L 15 12.269531 L 12.169922 10.634766 L 11.169922 12.365234 L 14.001953 14 L 11.169922 15.634766 L 12.169922 17.365234 L 15 15.730469 L 15 19 L 17 19 L 17 15.730469 L 19.830078 17.365234 L 20.830078 15.634766 L 17.998047 14 L 20.830078 12.365234 L 19.830078 10.634766 L 17 12.269531 L 17 9 L 15 9 z M 14 23 L 14 25 L 18 25 L 18 23 L 14 23 z"></path>
</svg>
