<?xml version="1.0" encoding="UTF-8"?>
<svg xmlns="http://www.w3.org/2000/svg" xmlns:xlink="http://www.w3.org/1999/xlink" viewBox="0 0 32 32" version="1.1">
<g>
<path d="M 9.5 4 C 7.578125 4 6 5.578125 6 7.5 C 6 9.421875 7.578125 11 9.5 11 C 11.421875 11 13 9.421875 13 7.5 C 13 5.578125 11.421875 4 9.5 4 Z M 22.5 4 C 20.578125 4 19 5.578125 19 7.5 C 19 9.421875 20.578125 11 22.5 11 C 24.421875 11 26 9.421875 26 7.5 C 26 5.578125 24.421875 4 22.5 4 Z M 9.5 6 C 10.339844 6 11 6.660156 11 7.5 C 11 8.339844 10.339844 9 9.5 9 C 8.660156 9 8 8.339844 8 7.5 C 8 6.660156 8.660156 6 9.5 6 Z M 22.5 6 C 23.339844 6 24 6.660156 24 7.5 C 24 8.339844 23.339844 9 22.5 9 C 21.660156 9 21 8.339844 21 7.5 C 21 6.660156 21.660156 6 22.5 6 Z M 9 12 C 6.792969 12 5 13.792969 5 16 L 5 21.25 L 7 22.25 L 7 28 L 9 28 L 9 21 L 7 20 L 7 16 C 7 14.898438 7.898438 14 9 14 L 10.15625 14 C 10.917969 14 11.597656 14.410156 11.9375 15.09375 L 13.21875 17.65625 L 16.28125 20.0625 L 17.71875 18.65625 L 14.78125 16.34375 L 13.71875 14.21875 C 13.035156 12.855469 11.679688 12 10.15625 12 Z M 21.84375 12 C 20.320313 12 18.964844 12.855469 18.28125 14.21875 L 17.21875 16.34375 L 16.8125 16.65625 L 18.125 17.6875 L 18.4375 17.9375 L 18.78125 17.65625 L 20.0625 15.09375 C 20.402344 14.410156 21.082031 14 21.84375 14 L 23 14 C 24.117188 14 25 14.882813 25 16 L 25 20.03125 L 23.5625 20.75 L 23 21 L 23 28 L 25 28 L 25 22.25 L 27 21.25 L 27 16 C 27 13.800781 25.199219 12 23 12 Z M 10 21 L 10 28 L 12 28 L 12 21 Z M 20 21 L 20 28 L 22 28 L 22 21 Z "></path>
</g>
</svg>
