<?xml version="1.0" encoding="UTF-8"?>
<svg xmlns="http://www.w3.org/2000/svg" xmlns:xlink="http://www.w3.org/1999/xlink" viewBox="0 0 32 32" version="1.1">
<g>
<path d="M 22.5625 4.59375 L 4.59375 22.5625 L 5.28125 23.28125 C 10.238281 28.238281 18.324219 28.238281 23.28125 23.28125 C 28.238281 18.324219 28.238281 10.238281 23.28125 5.28125 Z M 22.4375 7.5625 C 25.90625 11.777344 25.816406 17.933594 21.875 21.875 C 17.933594 25.816406 11.777344 25.90625 7.5625 22.4375 L 9.78125 20.21875 C 11.007813 20.964844 14.367188 22.382813 18.375 18.375 C 21.210938 15.539063 22.273438 12.203125 20.28125 9.71875 Z M 17.6875 12.40625 C 17.984375 12.363281 18.605469 12.394531 19.09375 12.625 C 19.746094 12.933594 20.109375 13.78125 20.0625 13.875 C 20.015625 13.96875 19.246094 14.136719 18.5625 13.8125 C 17.902344 13.5 17.480469 12.660156 17.5 12.5 C 17.5 12.496094 17.5 12.472656 17.5 12.46875 C 17.503906 12.457031 17.546875 12.445313 17.5625 12.4375 C 17.59375 12.421875 17.625 12.414063 17.6875 12.40625 Z M 16.6875 13.71875 C 16.777344 13.628906 17.617188 13.898438 18.125 14.40625 C 18.632813 14.914063 18.699219 15.800781 18.625 15.875 C 18.550781 15.949219 17.78125 15.875 17.25 15.34375 C 16.71875 14.8125 16.597656 13.808594 16.6875 13.71875 Z M 15.375 15.1875 C 15.464844 15.097656 16.273438 15.367188 16.78125 15.875 C 17.289063 16.382813 17.355469 17.269531 17.28125 17.34375 C 17.207031 17.417969 16.4375 17.34375 15.90625 16.8125 C 15.375 16.28125 15.285156 15.277344 15.375 15.1875 Z M 13.9375 16.6875 C 14.28125 16.707031 14.914063 16.882813 15.3125 17.28125 C 15.84375 17.8125 15.949219 18.550781 15.875 18.625 C 15.800781 18.699219 14.882813 18.632813 14.375 18.125 C 13.867188 17.617188 13.628906 16.808594 13.71875 16.71875 C 13.742188 16.695313 13.824219 16.679688 13.9375 16.6875 Z M 12.59375 17.40625 C 12.882813 17.507813 13.496094 17.878906 13.75 18.4375 C 14.058594 19.121094 13.875 19.863281 13.78125 19.90625 C 13.6875 19.949219 12.859375 19.558594 12.5625 18.90625 C 12.363281 18.464844 12.347656 17.941406 12.375 17.625 Z "></path>
</g>
</svg>
