<?xml version="1.0" encoding="UTF-8"?>
<svg xmlns="http://www.w3.org/2000/svg" xmlns:xlink="http://www.w3.org/1999/xlink" viewBox="0 0 32 32" version="1.1">
<g>
<path d="M 16 7 C 5.960938 7 3.875 7.28125 3.875 7.28125 L 3.21875 7.375 L 3.03125 7.96875 C 3.03125 7.96875 1 14.652344 1 20 L 1 21 L 2 21 C 7.367188 21 9.84375 22.226563 10.96875 23.25 C 11.53125 23.761719 11.785156 24.230469 11.90625 24.5625 C 12.027344 24.894531 12 25 12 25 L 12 26 L 20.03125 26 L 20 24.96875 C 20 24.96875 19.976563 24.894531 20.09375 24.5625 C 20.210938 24.230469 20.472656 23.761719 21.03125 23.25 C 22.148438 22.226563 24.609375 21 30 21 L 31 21 L 31 20 C 31 13.925781 28.9375 7.9375 28.9375 7.9375 L 28.75 7.375 L 28.125 7.28125 C 28.125 7.28125 25.933594 7 16 7 Z M 16 9 C 25.378906 9 27.039063 9.226563 27.25 9.25 C 27.527344 10.113281 28.761719 14.273438 28.9375 19.0625 C 26.410156 19.144531 24.433594 19.472656 22.90625 19.96875 C 22.53125 14.78125 20.875 11.53125 20.875 11.53125 L 19.125 12.46875 C 19.125 12.46875 20.714844 15.617188 20.9375 20.84375 C 20.429688 21.132813 20.007813 21.429688 19.65625 21.75 C 18.851563 22.488281 18.433594 23.269531 18.21875 23.875 C 18.195313 23.941406 18.207031 23.9375 18.1875 24 L 13.8125 24 C 13.792969 23.933594 13.804688 23.941406 13.78125 23.875 C 13.5625 23.269531 13.121094 22.488281 12.3125 21.75 C 11.96875 21.433594 11.554688 21.125 11.0625 20.84375 C 11.285156 15.617188 12.875 12.46875 12.875 12.46875 L 11.125 11.53125 C 11.125 11.53125 9.464844 14.792969 9.09375 20 C 7.582031 19.503906 5.625 19.148438 3.125 19.0625 C 3.320313 14.804688 4.511719 10.1875 4.78125 9.25 C 4.992188 9.222656 6.550781 9 16 9 Z "></path>
</g>
</svg>
