<?xml version="1.0" encoding="UTF-8"?>
<svg xmlns="http://www.w3.org/2000/svg" xmlns:xlink="http://www.w3.org/1999/xlink" viewBox="0 0 32 32" version="1.1">
<g>
<path d="M 17.953125 2.953125 L 17.757813 2.988281 C 17.65625 2.992188 17.550781 3.007813 17.453125 3.042969 L 9.304688 4.5 C 9.273438 4.503906 9.238281 4.507813 9.207031 4.515625 L 8.90625 4.570313 L 8.695313 4.828125 C 8.6875 4.832031 8.679688 4.839844 8.671875 4.851563 L 3.34375 11.230469 C 3.261719 11.300781 3.191406 11.382813 3.132813 11.472656 L 3 11.636719 L 3 11.863281 C 2.988281 11.949219 2.988281 12.035156 3 12.117188 L 3 20.042969 C 2.976563 20.167969 2.976563 20.296875 3 20.425781 L 3 20.609375 L 3.132813 20.765625 C 3.1875 20.851563 3.253906 20.929688 3.328125 20.996094 L 8.546875 27.09375 C 8.617188 27.222656 8.714844 27.335938 8.832031 27.421875 L 8.914063 27.519531 L 9.039063 27.542969 C 9.183594 27.605469 9.34375 27.628906 9.5 27.621094 L 17.507813 28.96875 C 17.578125 28.988281 17.652344 29 17.730469 29.003906 L 17.964844 29.046875 L 18.140625 28.941406 C 18.238281 28.90625 18.332031 28.851563 18.410156 28.785156 C 18.414063 28.785156 18.417969 28.785156 18.417969 28.78125 L 25.515625 24.714844 C 25.578125 24.6875 25.636719 24.652344 25.691406 24.609375 L 25.917969 24.484375 L 26.015625 24.222656 C 26.039063 24.167969 26.058594 24.109375 26.078125 24.050781 L 28.84375 16.546875 C 28.929688 16.414063 28.984375 16.265625 29.003906 16.113281 L 29.066406 15.949219 L 25.917969 7.4375 L 25.59375 7.257813 L 18.40625 3.210938 C 18.320313 3.136719 18.222656 3.082031 18.113281 3.046875 Z M 16.269531 5.28125 L 14.625 10.023438 L 11.332031 6.167969 Z M 18.328125 5.460938 L 22.761719 7.957031 L 16.652344 10.296875 Z M 9.449219 7.039063 L 12.828125 11 L 6.140625 11 Z M 23.59375 9.78125 L 21.503906 17.09375 L 16.796875 12.382813 Z M 25.230469 11.339844 L 26.765625 15.5 L 23.585938 17.089844 Z M 6.042969 13 L 13.460938 13 L 10.765625 19.070313 Z M 15.324219 13.734375 L 19.941406 18.359375 L 12.683594 19.675781 Z M 5 14.914063 L 8.761719 19.75 L 5 19.34375 Z M 26.164063 18.035156 L 24.859375 21.574219 L 23.449219 19.394531 Z M 20.269531 20.332031 L 17.484375 26.261719 L 13.019531 21.652344 Z M 22.140625 21.054688 L 23.691406 23.453125 L 20.027344 25.558594 Z M 6.398438 21.503906 L 9.71875 21.867188 L 8.980469 24.519531 Z M 11.496094 22.949219 L 14.9375 26.507813 L 10.703125 25.796875 Z "></path>
</g>
</svg>
