<?xml version="1.0" encoding="UTF-8"?>
<svg xmlns="http://www.w3.org/2000/svg" xmlns:xlink="http://www.w3.org/1999/xlink" viewBox="0 0 32 32" version="1.1">
<g>
<path d="M 26 4 C 25.597656 4 25.160156 4.277344 24.96875 4.53125 C 24.777344 4.785156 24.703125 5.019531 24.625 5.28125 C 24.46875 5.804688 24.355469 6.492188 24.21875 7.5 C 23.914063 9.738281 23.117188 10.78125 22.4375 11.34375 C 21.789063 11.882813 21.355469 11.960938 21.3125 11.96875 L 21.25 11.90625 C 20.589844 11.449219 19.804688 11.175781 19 11.0625 C 18.226563 10.953125 17.421875 11.023438 16.6875 11.25 L 16.6875 11.21875 L 16.59375 11.25 L 5.71875 13.875 C 5.6875 13.875 5.65625 13.875 5.625 13.875 C 4.851563 14.128906 4.179688 14.683594 4.03125 15.5 C 4 15.667969 4.011719 15.839844 4.03125 16 L 4 16 C 4 16 4 17.398438 4 18.84375 C 4 20.289063 4.003906 21.859375 4 21.96875 C 3.988281 22.527344 4.320313 23.226563 4.875 23.71875 L 4.84375 23.75 L 4.90625 23.8125 L 8.28125 26.9375 L 8.3125 26.96875 L 8.34375 26.96875 C 9.621094 28 11.425781 28.304688 12.96875 27.75 L 13 27.75 L 24.40625 24.09375 L 24.4375 24.09375 C 25.257813 23.792969 25.980469 23.125 26 22.21875 C 26.007813 21.914063 26 20.582031 26 19.1875 C 26 17.792969 26 16.4375 26 16.4375 C 26 16.425781 26 16.417969 26 16.40625 C 26.050781 16.003906 25.972656 15.609375 25.78125 15.28125 C 26.023438 15.082031 26.261719 14.839844 26.5 14.5 C 27.328125 13.320313 28 11.289063 28 7.75 C 28 6.859375 27.890625 6.09375 27.65625 5.4375 C 27.539063 5.109375 27.410156 4.808594 27.15625 4.53125 C 26.902344 4.253906 26.46875 4 26 4 Z M 25.90625 8.8125 C 25.761719 11.230469 25.277344 12.726563 24.84375 13.34375 C 24.59375 13.703125 24.375 13.867188 24.25 13.9375 L 23.21875 13.21875 C 23.386719 13.113281 23.550781 13.015625 23.71875 12.875 C 24.601563 12.140625 25.421875 10.753906 25.90625 8.8125 Z M 17.90625 13.0625 C 18.671875 13.046875 19.675781 13.25 20.125 13.5625 L 23.78125 16.03125 C 23.863281 16.085938 23.875 16.09375 23.90625 16.125 C 23.871094 16.148438 23.855469 16.183594 23.78125 16.21875 C 23.753906 16.230469 23.789063 16.203125 23.75 16.21875 L 12.6875 19.90625 C 12.675781 19.917969 12.667969 19.925781 12.65625 19.9375 C 12.007813 20.175781 10.59375 19.957031 10.03125 19.53125 L 10 19.5 L 6.25 16.09375 C 6.238281 16.082031 6.230469 16.074219 6.21875 16.0625 C 6.121094 15.984375 6.09375 15.945313 6.0625 15.90625 C 6.09375 15.886719 6.136719 15.839844 6.1875 15.8125 C 6.230469 15.789063 6.164063 15.808594 6.25 15.78125 L 17.15625 13.15625 C 17.1875 13.15625 17.21875 13.15625 17.25 13.15625 C 17.425781 13.097656 17.652344 13.066406 17.90625 13.0625 Z M 24 18.21875 C 24 18.644531 24 18.695313 24 19.1875 C 24 20.582031 24 22.125 24 22.15625 C 24.003906 22.035156 24.015625 22.117188 23.78125 22.21875 L 23.78125 22.1875 L 12.375 25.84375 L 12.34375 25.875 L 12.3125 25.875 C 11.65625 26.117188 10.246094 25.898438 9.65625 25.46875 C 9.640625 25.457031 9.609375 25.449219 9.59375 25.4375 L 6.1875 22.28125 L 6.15625 22.25 C 5.953125 22.085938 6 22.109375 6 22.03125 C 6.007813 21.71875 6 20.292969 6 18.84375 C 6 18.683594 6 18.6875 6 18.53125 L 8.6875 21 C 8.699219 21.011719 8.707031 21.019531 8.71875 21.03125 C 9.984375 22.050781 11.785156 22.363281 13.3125 21.8125 L 13.34375 21.8125 Z "></path>
</g>
</svg>
