<?xml version="1.0" encoding="UTF-8"?>
<svg xmlns="http://www.w3.org/2000/svg" xmlns:xlink="http://www.w3.org/1999/xlink" viewBox="0 0 32 32" version="1.1">
<g>
<path d="M 12 3 C 10.355469 3 9 4.355469 9 6 L 9 15.75 L 8.125 14.875 C 6.960938 13.710938 5.039063 13.710938 3.875 14.875 C 2.710938 16.039063 2.710938 17.960938 3.875 19.125 L 10.65625 25.90625 C 11.832031 27.078125 13.457031 28 15.375 28 L 20 28 C 23.855469 28 27 24.855469 27 21 L 27 7 C 27 5.355469 25.644531 4 24 4 C 22.355469 4 21 5.355469 21 7 L 21 9.1875 C 20.683594 9.074219 20.351563 9 20 9 C 19.234375 9 18.53125 9.300781 18 9.78125 C 17.46875 9.300781 16.765625 9 16 9 C 15.648438 9 15.316406 9.074219 15 9.1875 L 15 6 C 15 4.355469 13.644531 3 12 3 Z M 12 5 C 12.566406 5 13 5.433594 13 6 L 13 16 C 13 17.644531 14.355469 19 16 19 C 16.765625 19 17.46875 18.699219 18 18.21875 C 18.53125 18.699219 19.234375 19 20 19 C 21.644531 19 23 17.644531 23 16 L 23 7 C 23 6.433594 23.433594 6 24 6 C 24.566406 6 25 6.433594 25 7 L 25 21 C 25 23.773438 22.773438 26 20 26 L 15.375 26 C 14.101563 26 13.007813 25.378906 12.09375 24.46875 L 5.28125 17.71875 C 4.882813 17.320313 4.882813 16.679688 5.28125 16.28125 C 5.679688 15.882813 6.320313 15.882813 6.71875 16.28125 L 6.78125 16.375 L 11 20.59375 L 11 6 C 11 5.433594 11.433594 5 12 5 Z M 16 11 C 16.566406 11 17 11.433594 17 12 L 17 16 C 17 16.566406 16.566406 17 16 17 C 15.433594 17 15 16.566406 15 16 L 15 12 C 15 11.433594 15.433594 11 16 11 Z M 20 11 C 20.566406 11 21 11.433594 21 12 L 21 16 C 21 16.566406 20.566406 17 20 17 C 19.433594 17 19 16.566406 19 16 L 19 12 C 19 11.433594 19.433594 11 20 11 Z "></path>
</g>
</svg>
