<?xml version="1.0" encoding="UTF-8"?>
<svg xmlns="http://www.w3.org/2000/svg" xmlns:xlink="http://www.w3.org/1999/xlink" viewBox="0 0 32 32" version="1.1">
<g>
<path d="M 8 5 L 8 27 L 10 27 L 10 7 L 22 7 L 22 27 L 24 27 L 24 5 Z M 3 9 L 3 11 L 7 13 L 7 11 Z M 16 9 C 14.355469 9 13 10.355469 13 12 C 13 12.988281 13.472656 13.890625 14.21875 14.4375 C 12.910156 15.097656 12 16.445313 12 18 L 12 21.40625 L 12.28125 21.71875 L 13 22.4375 L 13 27 L 19 27 L 19 22.4375 L 19.71875 21.71875 L 20 21.40625 L 20 18 C 20 16.445313 19.089844 15.097656 17.78125 14.4375 C 18.527344 13.890625 19 12.988281 19 12 C 19 10.355469 17.644531 9 16 9 Z M 29 9 L 25 11 L 25 13 L 29 11 Z M 16 11 C 16.5625 11 17 11.4375 17 12 C 17 12.5625 16.5625 13 16 13 C 15.4375 13 15 12.5625 15 12 C 15 11.4375 15.4375 11 16 11 Z M 3 15 L 3 17 L 7 17 L 7 15 Z M 25 15 L 25 17 L 29 17 L 29 15 Z M 16 16 C 17.117188 16 18 16.882813 18 18 L 18 20.5625 L 17.28125 21.28125 L 17 21.59375 L 17 25 L 15 25 L 15 21.59375 L 14.71875 21.28125 L 14 20.5625 L 14 18 C 14 16.882813 14.882813 16 16 16 Z M 7 19 L 3 21 L 3 23 L 7 21 Z M 25 19 L 25 21 L 29 23 L 29 21 Z "></path>
</g>
</svg>
