<?xml version="1.0" encoding="UTF-8"?>
<svg xmlns="http://www.w3.org/2000/svg" xmlns:xlink="http://www.w3.org/1999/xlink" viewBox="0 0 32 32" version="1.1">
<g>
<path d="M 4 4 L 4 14 L 9.09375 14 C 9.050781 14.328125 9 14.65625 9 15 C 9 17.300781 10.09375 19.4375 10.09375 19.4375 L 10.25 19.75 L 10.5625 19.90625 C 10.5625 19.90625 12.121094 20.671875 14 20.90625 C 14 20.9375 14 20.96875 14 21 C 14 24.855469 17.144531 28 21 28 C 24.855469 28 28 24.855469 28 21 C 28 17.144531 24.855469 14 21 14 C 20.980469 14 20.957031 14 20.9375 14 C 20.707031 12.089844 19.90625 10.5625 19.90625 10.5625 L 19.75 10.25 L 19.46875 10.09375 C 19.46875 10.09375 17.363281 9 15 9 C 14.660156 9 14.324219 9.023438 14 9.0625 L 14 4 Z M 6 6 L 12 6 L 12 9.53125 C 11.113281 9.816406 10.53125 10.09375 10.53125 10.09375 L 10.25 10.25 L 10.09375 10.5625 C 10.09375 10.5625 9.8125 11.128906 9.53125 12 L 6 12 Z M 15 11 C 16.46875 11 17.8125 11.597656 18.21875 11.78125 C 18.378906 12.140625 18.796875 13.160156 18.9375 14.3125 C 16.75 14.996094 14.996094 16.75 14.3125 18.9375 C 13.175781 18.796875 12.144531 18.375 11.78125 18.21875 C 11.59375 17.78125 11 16.390625 11 15 C 11 14.433594 11.089844 13.878906 11.21875 13.375 C 11.230469 13.335938 11.242188 13.292969 11.25 13.25 C 11.253906 13.230469 11.273438 13.207031 11.28125 13.1875 C 11.28125 13.15625 11.28125 13.125 11.28125 13.09375 C 11.457031 12.488281 11.683594 12.007813 11.78125 11.78125 C 11.996094 11.683594 12.5 11.460938 13.125 11.28125 C 13.1875 11.277344 13.25 11.265625 13.3125 11.25 C 13.34375 11.242188 13.375 11.226563 13.40625 11.21875 C 13.894531 11.097656 14.425781 11 15 11 Z M 21 16 C 23.773438 16 26 18.226563 26 21 C 26 23.773438 23.773438 26 21 26 C 18.226563 26 16 23.773438 16 21 C 16 18.226563 18.226563 16 21 16 Z "></path>
</g>
</svg>
