<?xml version="1.0" encoding="UTF-8"?>
<svg xmlns="http://www.w3.org/2000/svg" xmlns:xlink="http://www.w3.org/1999/xlink" viewBox="0 0 32 32" version="1.1">
<g>
<path d="M 16 3 C 15.824219 3 12.183594 2.984375 9.875 4.78125 C 9.699219 4.898438 9.546875 5.019531 9.4375 5.125 C 9.351563 5.210938 9.332031 5.246094 9.28125 5.3125 C 9.28125 5.3125 9.25 5.34375 9.25 5.34375 C 9.222656 5.378906 9.15625 5.46875 9.15625 5.46875 C 6.585938 8.304688 5.152344 13.128906 5.03125 16.53125 C 5.003906 16.679688 5 16.839844 5 17 C 5 20.105469 5.960938 25.910156 6 26.15625 L 6.15625 27 L 11.8125 27 C 13.867188 28.515625 15.8125 28.96875 15.8125 28.96875 L 16 29.03125 L 16.1875 28.96875 C 16.1875 28.96875 18.132813 28.515625 20.1875 27 L 25.84375 27 L 26 26.15625 C 26.039063 25.910156 27 20.105469 27 17 C 27 16.839844 26.996094 16.679688 26.96875 16.53125 C 26.847656 13.128906 25.414063 8.304688 22.84375 5.46875 C 22.84375 5.46875 22.761719 5.367188 22.71875 5.3125 C 22.667969 5.246094 22.648438 5.210938 22.5625 5.125 C 22.453125 5.019531 22.300781 4.898438 22.125 4.78125 C 19.816406 2.988281 16.179688 3.007813 16 3 Z M 13 6 L 19 6 C 20.050781 6 20.617188 6.214844 20.90625 6.375 C 21.039063 6.476563 21.167969 6.570313 21.28125 6.6875 C 21.28125 6.6875 21.28125 6.695313 21.40625 6.90625 C 21.53125 7.117188 21.730469 7.480469 21.9375 8.09375 C 22.355469 9.320313 22.835938 11.472656 22.96875 15.03125 L 23 16 L 24 16 C 24.566406 16 25 16.433594 25 17 C 25 17.566406 24.566406 18 24 18 C 24.101563 18 24.066406 18.011719 23.90625 18 L 23 17.9375 L 22.875 18.84375 C 21.964844 25.578125 16.542969 26.855469 16 26.96875 C 15.457031 26.855469 10.035156 25.578125 9.125 18.84375 L 9 17.9375 L 8.09375 18 C 7.933594 18.011719 7.898438 18 8 18 C 7.433594 18 7 17.566406 7 17 C 7 16.433594 7.433594 16 8 16 L 9 16 L 9.03125 15.03125 C 9.164063 11.472656 9.644531 9.320313 10.0625 8.09375 C 10.269531 7.480469 10.46875 7.117188 10.59375 6.90625 C 10.71875 6.695313 10.71875 6.6875 10.71875 6.6875 L 10.84375 6.5625 C 10.878906 6.53125 10.949219 6.457031 11.09375 6.375 C 11.382813 6.214844 11.949219 6 13 6 Z M 12.5 15 C 11.671875 15 11 15.671875 11 16.5 C 11 17.328125 11.671875 18 12.5 18 C 13.328125 18 14 17.328125 14 16.5 C 14 15.671875 13.328125 15 12.5 15 Z M 19.5 15 C 18.671875 15 18 15.671875 18 16.5 C 18 17.328125 18.671875 18 19.5 18 C 20.328125 18 21 17.328125 21 16.5 C 21 15.671875 20.328125 15 19.5 15 Z M 16 21 C 13.832031 21 12.375 22.21875 12.375 22.21875 L 13.625 23.78125 C 13.625 23.78125 14.574219 23 16 23 C 17.425781 23 18.375 23.78125 18.375 23.78125 L 19.625 22.21875 C 19.625 22.21875 18.167969 21 16 21 Z "></path>
</g>
</svg>
