<?xml version="1.0" encoding="UTF-8"?>
<svg xmlns="http://www.w3.org/2000/svg" xmlns:xlink="http://www.w3.org/1999/xlink" viewBox="0 0 32 32" version="1.1">
<g>
<path d="M 10 4 C 8.3125 4 7 4.78125 6.1875 5.78125 C 5.375 6.78125 5 7.949219 5 9 L 7 9 C 7 8.449219 7.230469 7.632813 7.71875 7.03125 C 8.207031 6.429688 8.886719 6 10 6 Z M 17 6 C 13.15625 6 10 9.15625 10 13 C 10 13.90625 10.199219 14.65625 10.375 15.28125 C 10.550781 15.90625 10.6875 16.40625 10.6875 17 C 10.6875 17.265625 10.582031 17.722656 10.40625 18.28125 C 10.230469 18.839844 10 19.519531 10 20.3125 C 10 21.871094 10.78125 23.140625 11.84375 23.90625 C 12.90625 24.671875 14.21875 25 15.5 25 C 18.550781 25 20.800781 23.09375 22.125 20.71875 C 23.449219 18.34375 24 15.460938 24 13 C 24 9.15625 20.84375 6 17 6 Z M 17 8 C 19.753906 8 22 10.246094 22 13 C 22 15.140625 21.476563 17.777344 20.375 19.75 C 19.273438 21.722656 17.746094 23 15.5 23 C 14.582031 23 13.636719 22.738281 13 22.28125 C 12.363281 21.824219 12 21.253906 12 20.3125 C 12 19.90625 12.140625 19.417969 12.3125 18.875 C 12.484375 18.332031 12.6875 17.734375 12.6875 17 C 12.6875 16.09375 12.488281 15.34375 12.3125 14.71875 C 12.136719 14.09375 12 13.59375 12 13 C 12 10.246094 14.246094 8 17 8 Z M 17 10 C 15.355469 10 14 11.355469 14 13 C 14 14.644531 15.355469 16 17 16 C 18.644531 16 20 14.644531 20 13 C 20 11.355469 18.644531 10 17 10 Z M 26 11 C 26 12.550781 25.753906 13.6875 25.53125 14.4375 C 25.308594 15.1875 25.125 15.5 25.125 15.5 L 26.875 16.5 C 26.875 16.5 27.191406 15.953125 27.46875 15.03125 C 27.746094 14.109375 28 12.75 28 11 Z M 17 12 C 17.5625 12 18 12.4375 18 13 C 18 13.5625 17.5625 14 17 14 C 16.4375 14 16 13.5625 16 13 C 16 12.4375 16.4375 12 17 12 Z M 7 15 C 7 16.042969 6.652344 16.457031 6.34375 16.71875 C 6.035156 16.980469 5.8125 17.03125 5.8125 17.03125 L 6.1875 18.96875 C 6.1875 18.96875 6.964844 18.839844 7.65625 18.25 C 8.347656 17.660156 9 16.554688 9 15 Z M 15.5 18 C 14.671875 18 14 18.671875 14 19.5 C 14 20.328125 14.671875 21 15.5 21 C 16.328125 21 17 20.328125 17 19.5 C 17 18.671875 16.328125 18 15.5 18 Z M 25 22 C 23.355469 22 22 23.355469 22 25 C 22 26.644531 23.355469 28 25 28 C 26.644531 28 28 26.644531 28 25 C 28 23.355469 26.644531 22 25 22 Z M 8 24 C 7.449219 24 7 24.449219 7 25 C 7 25.550781 7.449219 26 8 26 C 8.550781 26 9 25.550781 9 25 C 9 24.449219 8.550781 24 8 24 Z M 25 24 C 25.5625 24 26 24.4375 26 25 C 26 25.5625 25.5625 26 25 26 C 24.4375 26 24 25.5625 24 25 C 24 24.4375 24.4375 24 25 24 Z "></path>
</g>
</svg>
