<?xml version="1.0" encoding="UTF-8"?>
<svg xmlns="http://www.w3.org/2000/svg" xmlns:xlink="http://www.w3.org/1999/xlink" viewBox="0 0 32 32" version="1.1">
<g>
<path d="M 14 6 C 11.15625 6 8.601563 6.324219 6.65625 6.90625 C 5.683594 7.199219 4.863281 7.574219 4.21875 8.03125 C 3.574219 8.488281 3 9.136719 3 10 C 3 10.863281 3.574219 11.511719 4.21875 11.96875 C 4.710938 12.316406 5.316406 12.621094 6 12.875 L 6 19.15625 C 5.28125 19.410156 4.628906 19.691406 4.125 20.0625 C 3.515625 20.511719 3 21.167969 3 22 C 3 22.863281 3.574219 23.511719 4.21875 23.96875 C 4.863281 24.425781 5.683594 24.800781 6.65625 25.09375 C 8.601563 25.675781 11.15625 26 14 26 C 16.84375 26 19.398438 25.675781 21.34375 25.09375 C 22.316406 24.800781 23.136719 24.425781 23.78125 23.96875 C 24.125 23.726563 24.429688 23.414063 24.65625 23.0625 C 26.171875 23.359375 27.09375 24.59375 27.09375 24.59375 L 27.40625 25 L 29 25 L 29 11.5 L 28.59375 11.1875 C 28.59375 11.1875 28.058594 10.8125 27.15625 10.53125 C 26.617188 10.363281 25.882813 10.191406 25 10.09375 C 25 10.0625 25 10.03125 25 10 C 25 9.136719 24.425781 8.488281 23.78125 8.03125 C 23.136719 7.574219 22.316406 7.199219 21.34375 6.90625 C 19.398438 6.324219 16.84375 6 14 6 Z M 14 8 C 16.679688 8 19.105469 8.339844 20.78125 8.84375 C 21.617188 9.09375 22.257813 9.398438 22.625 9.65625 C 22.992188 9.914063 23 10.035156 23 10 C 23 9.964844 22.992188 10.085938 22.625 10.34375 C 22.257813 10.601563 21.617188 10.90625 20.78125 11.15625 C 19.105469 11.660156 16.679688 12 14 12 C 11.320313 12 8.894531 11.660156 7.21875 11.15625 C 6.382813 10.90625 5.742188 10.601563 5.375 10.34375 C 5.007813 10.085938 5 9.964844 5 10 C 5 10.035156 5.007813 9.914063 5.375 9.65625 C 5.742188 9.398438 6.382813 9.09375 7.21875 8.84375 C 8.894531 8.339844 11.320313 8 14 8 Z M 14 9 C 11.238281 9 9 9.449219 9 10 C 9 10.550781 11.238281 11 14 11 C 16.761719 11 19 10.550781 19 10 C 19 9.449219 16.761719 9 14 9 Z M 23.71875 12.03125 C 25.027344 12.089844 25.96875 12.285156 26.5625 12.46875 C 26.925781 12.582031 26.871094 12.59375 27 12.65625 L 27 21.9375 C 26.390625 21.550781 25.644531 21.199219 24.75 21.0625 C 24.542969 20.660156 24.234375 20.328125 23.875 20.0625 C 23.371094 19.691406 22.71875 19.410156 22 19.15625 L 22 12.875 C 22.652344 12.632813 23.242188 12.359375 23.71875 12.03125 Z M 8 13.40625 C 9.722656 13.773438 11.769531 14 14 14 C 16.230469 14 18.277344 13.773438 20 13.40625 L 20 19.90625 C 19.988281 19.910156 19.949219 19.953125 19.84375 20.03125 C 19.628906 20.1875 19.21875 20.417969 18.65625 20.59375 C 17.527344 20.945313 15.847656 21.1875 14 21.1875 C 12.152344 21.1875 10.472656 20.945313 9.34375 20.59375 C 8.78125 20.417969 8.371094 20.1875 8.15625 20.03125 C 8.050781 19.953125 8.011719 19.910156 8 19.90625 Z M 6.4375 21.125 C 6.597656 21.328125 6.773438 21.511719 6.96875 21.65625 C 7.464844 22.019531 8.046875 22.28125 8.75 22.5 C 10.15625 22.9375 11.984375 23.1875 14 23.1875 C 16.015625 23.1875 17.84375 22.9375 19.25 22.5 C 19.953125 22.28125 20.535156 22.019531 21.03125 21.65625 C 21.226563 21.511719 21.402344 21.328125 21.5625 21.125 C 22.042969 21.3125 22.449219 21.511719 22.6875 21.6875 C 23.019531 21.933594 23 22.039063 23 22 C 23 21.964844 22.992188 22.085938 22.625 22.34375 C 22.257813 22.601563 21.617188 22.90625 20.78125 23.15625 C 19.105469 23.660156 16.679688 24 14 24 C 11.320313 24 8.894531 23.660156 7.21875 23.15625 C 6.382813 22.90625 5.742188 22.601563 5.375 22.34375 C 5.007813 22.085938 5 21.964844 5 22 C 5 22.039063 4.980469 21.933594 5.3125 21.6875 C 5.550781 21.511719 5.957031 21.3125 6.4375 21.125 Z "></path>
</g>
</svg>
