<?xml version="1.0" encoding="UTF-8"?>
<svg xmlns="http://www.w3.org/2000/svg" xmlns:xlink="http://www.w3.org/1999/xlink" viewBox="0 0 32 32" version="1.1">
<g>
<path d="M 16.0625 1.648438 C 16.0625 1.648438 13.074219 9.601563 9.132813 16.503906 C 5.621094 22.644531 1.269531 27.316406 1.269531 27.316406 L 2.242188 28.96875 C 2.242188 28.96875 10.191406 27 17 27 C 21.425781 27 24.597656 27.492188 26.644531 27.972656 C 28.695313 28.453125 29.550781 28.894531 29.550781 28.894531 L 31 28 L 31 11 L 29.105469 10.550781 C 28.015625 12.734375 26.25 14.28125 25 15.183594 L 25 6 L 23.007813 5.875 C 23.007813 5.875 22.140625 11.996094 18 15.175781 L 18 2 Z M 16 7.078125 L 16 25.058594 C 11.195313 25.175781 7.230469 25.882813 4.625 26.4375 C 6.242188 24.507813 8.5 21.640625 10.871094 17.496094 C 12.972656 13.8125 14.734375 10.011719 16 7.078125 Z M 23 11.953125 L 23 25.328125 C 21.570313 25.164063 19.875 25.058594 18 25.027344 L 18 17.578125 C 20.457031 16.164063 21.953125 14.019531 23 11.953125 Z M 29 14.246094 L 29 26.640625 C 28.449219 26.425781 28.351563 26.320313 27.105469 26.027344 C 26.496094 25.882813 25.78125 25.746094 25 25.613281 L 25 17.578125 C 25.828125 17.089844 27.472656 16.003906 29 14.246094 Z "></path>
</g>
</svg>
