<?xml version="1.0" encoding="UTF-8"?>
<svg xmlns="http://www.w3.org/2000/svg" xmlns:xlink="http://www.w3.org/1999/xlink" viewBox="0 0 32 32" version="1.1">
<g>
<path d="M 16 3 C 8.832031 3 3 8.832031 3 16 C 3 23.167969 8.832031 29 16 29 C 23.167969 29 29 23.167969 29 16 C 29 12.855469 27.863281 9.96875 26 7.71875 L 24.375 8.875 C 24.378906 8.882813 24.371094 8.898438 24.375 8.90625 L 21.75 10.65625 L 22.84375 12.3125 L 25.53125 10.53125 C 26.464844 12.144531 27 14.007813 27 16 C 27 22.066406 22.066406 27 16 27 C 9.933594 27 5 22.066406 5 16 C 5 9.933594 9.933594 5 16 5 C 18.113281 5 20.070313 5.617188 21.75 6.65625 L 23.5 5.40625 C 21.375 3.894531 18.800781 3 16 3 Z M 16 11 C 13.238281 11 11 13.238281 11 16 C 11 18.761719 13.238281 21 16 21 C 18.761719 21 21 18.761719 21 16 C 21 13.238281 18.761719 11 16 11 Z M 16 14 C 17.105469 14 18 14.894531 18 16 C 18 17.105469 17.105469 18 16 18 C 14.894531 18 14 17.105469 14 16 C 14 14.894531 14.894531 14 16 14 Z "></path>
</g>
</svg>
