<?xml version="1.0"?>
<svg xmlns="http://www.w3.org/2000/svg" viewBox="0 0 32 32">
    <path d="M 21.5 2.0859375 L 2.0859375 21.501953 L 2.7929688 22.208984 L 10.5 29.914062 L 19.306641 21.105469 L 20.007812 21.806641 L 22.806641 19.007812 L 22.105469 18.306641 L 23.394531 17.017578 L 24.095703 17.71875 L 25.689453 16.125 L 24.988281 15.423828 L 29.914062 10.498047 L 21.5 2.0859375 z M 21.5 4.9140625 L 27.085938 10.498047 L 25.5 12.085938 L 19.914062 6.5 L 21.5 4.9140625 z M 18.5 7.9140625 L 24.085938 13.5 L 13.5 24.085938 L 7.9140625 18.5 L 18.5 7.9140625 z M 19 12 A 1 1 0 0 0 18 13 A 1 1 0 0 0 19 14 A 1 1 0 0 0 20 13 A 1 1 0 0 0 19 12 z M 15 15 L 15 17 L 17 17 L 17 15 L 15 15 z M 13 18 A 1 1 0 0 0 12 19 A 1 1 0 0 0 13 20 A 1 1 0 0 0 14 19 A 1 1 0 0 0 13 18 z M 6.5 19.914062 L 12.085938 25.5 L 10.5 27.085938 L 4.9140625 21.501953 L 6.5 19.914062 z"></path>
</svg>
