<?xml version="1.0" encoding="UTF-8"?>
<svg xmlns="http://www.w3.org/2000/svg" xmlns:xlink="http://www.w3.org/1999/xlink" viewBox="0 0 32 32" version="1.1">
<g>
<path d="M 20.28125 5.78125 L 18.875 7.21875 L 24.8125 13.1875 C 26.382813 14.757813 26.382813 17.273438 24.8125 18.84375 C 23.246094 20.410156 20.757813 20.394531 19.1875 18.84375 C 18.933594 18.589844 16.789063 16.429688 15.90625 15.53125 L 17.65625 13.78125 L 16.21875 12.34375 L 14.5 14.09375 L 13.78125 14.78125 L 13.71875 14.84375 L 11.53125 17.0625 L 11.5 17.0625 L 11.1875 16.71875 L 10.71875 16.78125 L 9.1875 16.90625 L 8.84375 16.90625 L 4.875 20.875 C 3.710938 22.039063 3.710938 23.960938 4.875 25.125 C 6.039063 26.289063 7.960938 26.289063 9.125 25.125 L 13.09375 21.15625 L 13.09375 20.8125 L 13.21875 19.28125 L 13.28125 18.8125 L 12.9375 18.5 L 12.9375 18.46875 L 14.5 16.9375 C 15.386719 17.839844 17.429688 19.929688 17.75 20.25 C 20.085938 22.585938 23.914063 22.585938 26.25 20.25 C 28.585938 17.914063 28.585938 14.085938 26.25 11.75 Z M 19.6875 8.90625 L 18.5 10.09375 L 19.90625 11.5 L 21.09375 10.3125 Z M 10.40625 18.78125 L 11.21875 19.59375 L 11.15625 20.25 L 7.71875 23.71875 C 7.320313 24.117188 6.679688 24.117188 6.28125 23.71875 C 5.882813 23.320313 5.882813 22.679688 6.28125 22.28125 L 9.75 18.84375 Z "></path>
</g>
</svg>
