<?xml version="1.0"?>
<svg xmlns="http://www.w3.org/2000/svg" viewBox="0 0 32 32">
    <path d="M 16 4 C 9.3844276 4 4 9.3844276 4 16 C 4 22.547 9.2755741 27.880211 15.796875 27.990234 C 15.865178 27.991387 15.931428 28 16 28 A 2 2 0 0 0 16.160156 27.992188 C 22.701425 27.905169 28 22.561504 28 16 C 28 9.3844276 22.615572 4 16 4 z M 16 6 C 21.534692 6 26 10.465308 26 16 C 26 20.853764 22.56621 24.884261 17.988281 25.802734 A 2 2 0 0 0 16 24 A 2 2 0 0 0 14.009766 25.800781 C 9.4329179 24.881473 6 20.853 6 16 C 6 10.465308 10.465308 6 16 6 z M 16 8 A 1 1 0 0 0 15 9 A 1 1 0 0 0 16 10 A 1 1 0 0 0 17 9 A 1 1 0 0 0 16 8 z M 11 10 A 1 1 0 0 0 10 11 A 1 1 0 0 0 11 12 A 1 1 0 0 0 12 11 A 1 1 0 0 0 11 10 z M 21 10 A 1 1 0 0 0 20 11 A 1 1 0 0 0 21 12 A 1 1 0 0 0 22 11 A 1 1 0 0 0 21 10 z M 9 15 A 1 1 0 0 0 8 16 A 1 1 0 0 0 9 17 A 1 1 0 0 0 10 16 A 1 1 0 0 0 9 15 z M 23 15 A 1 1 0 0 0 22 16 A 1 1 0 0 0 23 17 A 1 1 0 0 0 24 16 A 1 1 0 0 0 23 15 z" font-weight="400" font-family="sans-serif" white-space="normal" overflow="visible"></path>
</svg>
