<?xml version="1.0" encoding="UTF-8"?>
<svg xmlns="http://www.w3.org/2000/svg" xmlns:xlink="http://www.w3.org/1999/xlink" viewBox="0 0 32 32" version="1.1">
<g>
<path d="M 15 7 L 15 11 L 13.28125 11 L 13.0625 11.6875 L 12.59375 13.125 C 12.144531 12.441406 11.371094 12 10.5 12 C 9.132813 12 8 13.132813 8 14.5 C 8 15.867188 9.132813 17 10.5 17 C 10.796875 17 11.078125 16.941406 11.34375 16.84375 L 11.15625 17.4375 C 11.132813 17.460938 11.113281 17.445313 11.09375 17.46875 C 10.976563 17.597656 10.863281 17.78125 10.75 18 L 2 19 L 1.875 19 L 2 20 L 2 21 L 10.0625 21 C 10.042969 21.3125 10 21.636719 10 22 L 10 23 L 13 23 L 13 26 L 15 26 L 15 23 L 17 23 L 17 26 L 19 26 L 19 23 L 22 23 L 22 22 C 22 21.636719 21.957031 21.3125 21.9375 21 L 30 21 L 30 20 L 30.125 19 L 30 19 L 21.25 18 C 21.136719 17.78125 21.023438 17.597656 20.90625 17.46875 C 20.886719 17.445313 20.867188 17.460938 20.84375 17.4375 L 20.65625 16.84375 C 20.921875 16.941406 21.203125 17 21.5 17 C 22.867188 17 24 15.867188 24 14.5 C 24 13.132813 22.867188 12 21.5 12 C 20.628906 12 19.855469 12.441406 19.40625 13.125 L 18.9375 11.6875 L 18.71875 11 L 17 11 L 17 7 Z M 2 8 L 2 10 L 14 10 L 14 8 Z M 18 8 L 18 10 L 30 10 L 30 8 Z M 14.71875 13 L 17.28125 13 L 19.0625 18.3125 L 19.1875 18.6875 L 19.40625 18.8125 C 19.425781 18.832031 19.507813 18.894531 19.59375 19.09375 C 19.707031 19.355469 19.789063 20.253906 19.875 21 L 12.125 21 C 12.210938 20.253906 12.292969 19.355469 12.40625 19.09375 C 12.492188 18.894531 12.574219 18.832031 12.59375 18.8125 L 12.8125 18.6875 L 12.9375 18.3125 Z M 10.5 14 C 10.789063 14 11 14.210938 11 14.5 C 11 14.789063 10.789063 15 10.5 15 C 10.210938 15 10 14.789063 10 14.5 C 10 14.210938 10.210938 14 10.5 14 Z M 21.5 14 C 21.789063 14 22 14.210938 22 14.5 C 22 14.789063 21.789063 15 21.5 15 C 21.210938 15 21 14.789063 21 14.5 C 21 14.210938 21.210938 14 21.5 14 Z M 5 22 C 4.449219 22 4 22.449219 4 23 C 4 23.550781 4.449219 24 5 24 C 5.550781 24 6 23.550781 6 23 C 6 22.449219 5.550781 22 5 22 Z M 8 22 C 7.449219 22 7 22.449219 7 23 C 7 23.550781 7.449219 24 8 24 C 8.550781 24 9 23.550781 9 23 C 9 22.449219 8.550781 22 8 22 Z M 24 22 C 23.449219 22 23 22.449219 23 23 C 23 23.550781 23.449219 24 24 24 C 24.550781 24 25 23.550781 25 23 C 25 22.449219 24.550781 22 24 22 Z M 27 22 C 26.449219 22 26 22.449219 26 23 C 26 23.550781 26.449219 24 27 24 C 27.550781 24 28 23.550781 28 23 C 28 22.449219 27.550781 22 27 22 Z "></path>
</g>
</svg>
