<?xml version="1.0" encoding="UTF-8"?>
<svg xmlns="http://www.w3.org/2000/svg" xmlns:xlink="http://www.w3.org/1999/xlink" viewBox="0 0 32 32" version="1.1">
<g>
<path d="M 9 3 L 9 9.34375 C 8.355469 10.003906 8.09375 10.59375 8.09375 10.59375 L 8 10.78125 L 8 11 L 5.5 11 L 5.1875 11.40625 C 5.1875 11.40625 3.089844 14.257813 3 18.53125 C 2.910156 22.847656 5.21875 25.625 5.21875 25.625 L 5.53125 26 L 8 26 L 8 27 C 8 28.09375 8.90625 29 10 29 L 22 29 C 22.933594 29 23.722656 28.339844 23.9375 27.46875 C 26.765625 24.726563 27.925781 20.210938 28.5 16.34375 C 29.089844 12.363281 29 9.027344 29 9 L 29 8.96875 C 29 8.941406 29.035156 7.851563 28.59375 6.65625 C 28.371094 6.050781 27.996094 5.398438 27.40625 4.875 C 26.816406 4.351563 25.980469 4 25 4 C 24.019531 4 23.183594 4.351563 22.59375 4.875 C 22.003906 5.398438 21.628906 6.050781 21.40625 6.65625 C 21.21875 7.160156 21.117188 7.628906 21.0625 8.03125 C 19.859375 7.453125 18.21875 7 16 7 C 13.820313 7 12.195313 7.4375 11 8 L 11 3 Z M 25 6 C 25.542969 6 25.835938 6.148438 26.09375 6.375 C 26.351563 6.601563 26.542969 6.949219 26.6875 7.34375 C 26.980469 8.132813 27 9 27 9 L 27 9.03125 C 27 9.03125 27.09375 12.257813 26.53125 16.0625 C 26.117188 18.851563 25.320313 21.902344 24 24.15625 L 24 10.78125 L 23.90625 10.59375 C 23.90625 10.59375 23.644531 10.003906 23 9.34375 L 23 9 C 23 9 23.019531 8.132813 23.3125 7.34375 C 23.457031 6.949219 23.648438 6.601563 23.90625 6.375 C 24.164063 6.148438 24.457031 6 25 6 Z M 16 9 C 17.226563 9 18.210938 9.15625 19 9.375 L 19 14 C 19 14.554688 18.554688 15 18 15 L 14 15 C 13.445313 15 13 14.554688 13 14 L 13 9.375 C 13.789063 9.15625 14.773438 9 16 9 Z M 11 10.28125 L 11 14 C 11 15.644531 12.355469 17 14 17 L 15 17 L 15 19 L 17 19 L 17 17 L 18 17 C 19.644531 17 21 15.644531 21 14 L 21 10.28125 C 21.015625 10.292969 21.046875 10.300781 21.0625 10.3125 C 21.847656 10.878906 21.96875 11.238281 22 11.3125 L 22 27 L 10 27 L 10 11.3125 C 10.03125 11.238281 10.152344 10.878906 10.9375 10.3125 C 10.953125 10.300781 10.984375 10.292969 11 10.28125 Z M 5.625 15 L 8 15 L 8 22 L 5.53125 22 C 5.222656 21.125 4.96875 19.984375 5 18.5625 C 5.03125 17.082031 5.308594 15.90625 5.625 15 Z "></path>
</g>
</svg>
