<?xml version="1.0" encoding="UTF-8"?>
<svg xmlns="http://www.w3.org/2000/svg" xmlns:xlink="http://www.w3.org/1999/xlink" viewBox="0 0 32 32" version="1.1">
<g>
<path d="M 13.5 4 C 12.132813 4 11 5.132813 11 6.5 C 11 7.332031 11.492188 7.949219 12.125 8.40625 L 9.6875 12.53125 C 9.230469 13.304688 9 14.195313 9 15.09375 L 9 25 C 9 26.644531 10.355469 28 12 28 L 20 28 C 21.644531 28 23 26.644531 23 25 L 23 15.09375 C 23 14.195313 22.769531 13.304688 22.3125 12.53125 L 19.875 8.40625 C 20.507813 7.949219 21 7.332031 21 6.5 C 21 5.132813 19.867188 4 18.5 4 Z M 13.5 6 L 18.5 6 C 18.785156 6 19 6.214844 19 6.5 C 19 6.785156 18.785156 7 18.5 7 L 17.5 7 L 17.5 8.375 L 17.625 8.625 L 20.59375 13.5625 C 20.867188 14.027344 21 14.554688 21 15.09375 L 21 25 C 21 25.566406 20.566406 26 20 26 L 12 26 C 11.433594 26 11 25.566406 11 25 L 11 15.09375 C 11 14.554688 11.132813 14.027344 11.40625 13.5625 L 14.375 8.625 L 14.5 8.375 L 14.5 7 L 13.5 7 C 13.214844 7 13 6.785156 13 6.5 C 13 6.214844 13.214844 6 13.5 6 Z "></path>
</g>
</svg>
