<?xml version="1.0" encoding="UTF-8"?>
<svg xmlns="http://www.w3.org/2000/svg" xmlns:xlink="http://www.w3.org/1999/xlink" viewBox="0 0 32 32" version="1.1">
<g>
<path d="M 9 2 L 9 4 L 14.28125 4 L 14.65625 5.09375 C 10.335938 5.75 7 9.5 7 14 L 7 15 L 8.125 15 L 10 29.125 L 10.125 30 L 21.875 30 L 22 29.125 L 23.875 15 L 25 15 L 25 14 C 25 9.289063 21.335938 5.40625 16.71875 5.03125 L 15.9375 2.6875 L 15.71875 2 Z M 16 7 C 19.519531 7 22.277344 9.625 22.78125 13 L 9.21875 13 C 9.722656 9.625 12.480469 7 16 7 Z M 10.15625 15 L 21.84375 15 L 21.59375 17 L 19 17 L 19 19 L 21.3125 19 L 20.125 28 L 11.875 28 L 10.6875 19 L 17 19 L 17 17 L 10.40625 17 Z "></path>
</g>
</svg>
