<?xml version="1.0" encoding="UTF-8"?>
<svg xmlns="http://www.w3.org/2000/svg" xmlns:xlink="http://www.w3.org/1999/xlink" viewBox="0 0 32 32" version="1.1">
<g>
<path d="M 11 3 L 11 5 L 21 5 L 21 3 Z M 21 5 L 21 7 L 23 7 L 23 9 L 25 9 L 25 11 L 27 11 L 27 5 Z M 27 11 L 27 21 L 29 21 L 29 11 Z M 27 21 L 25 21 L 25 23 L 27 23 Z M 25 21 L 25 13 L 23 13 L 23 21 Z M 23 13 L 23 11 L 21 11 L 21 13 Z M 21 13 L 19 13 L 19 15 L 21 15 Z M 19 15 L 17 15 L 17 17 L 19 17 Z M 17 17 L 15 17 L 15 19 L 17 19 Z M 15 19 L 13 19 L 13 21 L 15 21 Z M 13 21 L 11 21 L 11 23 L 13 23 Z M 11 23 L 9 23 L 9 25 L 11 25 Z M 9 25 L 7 25 L 7 27 L 9 27 Z M 7 27 L 5 27 L 5 25 L 3 25 L 3 29 L 7 29 Z M 5 25 L 7 25 L 7 23 L 5 23 Z M 7 23 L 9 23 L 9 21 L 7 21 Z M 9 21 L 11 21 L 11 19 L 9 19 Z M 11 19 L 13 19 L 13 17 L 11 17 Z M 13 17 L 15 17 L 15 15 L 13 15 Z M 15 15 L 17 15 L 17 13 L 15 13 Z M 17 13 L 19 13 L 19 11 L 17 11 Z M 19 11 L 21 11 L 21 9 L 19 9 Z M 19 9 L 19 7 L 11 7 L 11 9 Z M 11 7 L 11 5 L 9 5 L 9 7 Z "></path>
</g>
</svg>
