<?xml version="1.0" encoding="UTF-8"?>
<svg xmlns="http://www.w3.org/2000/svg" xmlns:xlink="http://www.w3.org/1999/xlink" viewBox="0 0 32 32" version="1.1">
<g>
<path d="M 13 3 L 13 5 L 19 5 L 19 3 Z M 19 5 L 19 7 L 21 7 L 21 5 Z M 21 7 L 21 9 L 23 9 L 23 7 Z M 23 9 L 23 13 L 25 13 L 25 9 Z M 25 13 L 25 21 L 27 21 L 27 13 Z M 25 21 L 23 21 L 23 25 L 25 25 Z M 23 25 L 21 25 L 21 21 L 19 21 L 19 27 L 13 27 L 13 21 L 11 21 L 11 25 L 9 25 L 9 27 L 11 27 L 11 29 L 21 29 L 21 27 L 23 27 Z M 9 25 L 9 21 L 7 21 L 7 25 Z M 7 21 L 7 13 L 5 13 L 5 21 Z M 7 13 L 9 13 L 9 9 L 7 9 Z M 9 9 L 11 9 L 11 7 L 9 7 Z M 11 7 L 13 7 L 13 5 L 11 5 Z M 11 9 L 11 11 L 13 11 L 13 9 Z M 13 11 L 13 13 L 19 13 L 19 11 Z M 19 11 L 21 11 L 21 9 L 19 9 Z M 19 13 L 19 19 L 21 19 L 21 13 Z M 19 19 L 13 19 L 13 21 L 19 21 Z M 13 19 L 13 13 L 11 13 L 11 19 Z "></path>
</g>
</svg>
