<?xml version="1.0"?>
<svg xmlns="http://www.w3.org/2000/svg" viewBox="0 0 32 32">
    <path d="M 5 6 L 5 26 L 27 26 L 27 6 L 5 6 z M 14 8 L 18 8 L 18 10 L 25 10 L 25 16 L 22 16 L 22 18 L 25 18 L 25 22 L 22 22 L 22 24 L 18 24 L 18 20 L 14 20 L 14 24 L 10 24 L 10 22 L 7 22 L 7 18 L 10 18 L 10 16 L 7 16 L 7 10 L 14 10 L 14 8 z M 10 18 L 10 20 L 14 20 L 14 18 L 10 18 z M 14 18 L 18 18 L 18 16 L 14 16 L 14 18 z M 18 18 L 18 20 L 22 20 L 22 18 L 18 18 z M 10 12 L 10 14 L 14 14 L 14 12 L 10 12 z M 18 12 L 18 14 L 22 14 L 22 12 L 18 12 z"></path>
</svg>
