<?xml version="1.0" encoding="UTF-8"?>
<svg xmlns="http://www.w3.org/2000/svg" xmlns:xlink="http://www.w3.org/1999/xlink" viewBox="0 0 32 32" version="1.1">
<g>
<path d="M 23 3 L 23 5 L 27 5 L 27 9 L 29 9 L 29 3 Z M 27 9 L 25 9 L 25 11 L 27 11 Z M 25 11 L 23 11 L 23 13 L 25 13 Z M 23 13 L 21 13 L 21 15 L 23 15 Z M 21 15 L 19 15 L 19 17 L 21 17 Z M 19 17 L 17 17 L 17 19 L 19 19 Z M 17 19 L 13 19 L 13 21 L 17 21 Z M 17 21 L 17 23 L 19 23 L 19 21 Z M 19 23 L 19 25 L 17 25 L 17 27 L 21 27 L 21 23 Z M 17 25 L 17 23 L 13 23 L 13 25 Z M 13 23 L 13 21 L 11 21 L 11 23 Z M 11 23 L 9 23 L 9 21 L 7 21 L 7 23 L 3 23 L 3 29 L 9 29 L 9 25 L 11 25 Z M 9 21 L 11 21 L 11 19 L 9 19 Z M 9 19 L 9 15 L 7 15 L 7 19 Z M 7 15 L 7 13 L 9 13 L 9 11 L 5 11 L 5 15 Z M 9 13 L 9 15 L 11 15 L 11 13 Z M 11 15 L 11 19 L 13 19 L 13 15 Z M 13 15 L 15 15 L 15 13 L 13 13 Z M 15 13 L 17 13 L 17 11 L 15 11 Z M 17 11 L 19 11 L 19 9 L 17 9 Z M 19 9 L 21 9 L 21 7 L 19 7 Z M 21 7 L 23 7 L 23 5 L 21 5 Z M 5 25 L 7 25 L 7 27 L 5 27 Z "></path>
</g>
</svg>
