<?xml version="1.0" encoding="UTF-8"?>
<svg xmlns="http://www.w3.org/2000/svg" xmlns:xlink="http://www.w3.org/1999/xlink" viewBox="0 0 32 32" version="1.1">
<g>
<path d="M 16.246094 2.003906 C 12.425781 1.890625 9.175781 4.480469 8.265625 8 L 7 8 L 7 10 L 8 10 L 8 16.328125 C 7.964844 16.347656 7.941406 16.351563 7.90625 16.371094 C 7.4375 16.617188 6.835938 17.023438 6.25 17.675781 C 5.09375 18.964844 4.042969 21.203125 4.007813 24.824219 C 3.988281 24.921875 3.984375 25.027344 4 25.128906 L 4 28 C 3.996094 28.417969 4.25 28.796875 4.640625 28.945313 C 5.03125 29.097656 5.472656 28.988281 5.75 28.671875 C 6.039063 29.011719 6.515625 29.121094 6.921875 28.9375 C 7.328125 28.753906 7.5625 28.328125 7.5 27.886719 C 7.777344 27.730469 7.964844 27.457031 8.003906 27.140625 C 8.046875 26.828125 7.933594 26.511719 7.707031 26.292969 L 6.015625 24.597656 C 6.085938 21.515625 6.949219 19.890625 7.738281 19.015625 C 7.828125 18.914063 7.910156 18.855469 8 18.769531 L 8 21.824219 C 7.980469 21.933594 7.980469 22.042969 8 22.152344 L 8 24 C 8 26.199219 9.800781 28 12 28 L 12.382813 28 L 13.105469 29.449219 C 13.117188 29.46875 13.128906 29.492188 13.140625 29.515625 C 13.058594 29.660156 13 29.820313 13 30 L 15 30 C 15 29.832031 14.945313 29.679688 14.875 29.542969 L 16 28.414063 L 17.125 29.542969 C 17.054688 29.679688 17 29.832031 17 30 L 19 30 C 19 29.820313 18.941406 29.660156 18.859375 29.515625 C 18.871094 29.492188 18.882813 29.46875 18.894531 29.449219 L 19.617188 28 L 20 28 C 22.199219 28 24 26.199219 24 24 L 24 22.152344 C 24.019531 22.042969 24.019531 21.929688 24 21.820313 L 24 18.769531 C 24.089844 18.855469 24.171875 18.914063 24.261719 19.015625 C 25.050781 19.890625 25.914063 21.515625 25.984375 24.597656 L 24.292969 26.292969 C 24.0625 26.515625 23.953125 26.832031 23.996094 27.144531 C 24.039063 27.460938 24.226563 27.738281 24.507813 27.890625 C 24.460938 28.320313 24.699219 28.734375 25.09375 28.910156 C 25.488281 29.085938 25.953125 28.988281 26.246094 28.667969 C 26.519531 28.984375 26.964844 29.097656 27.355469 28.949219 C 27.75 28.796875 28.003906 28.417969 28 28 L 28 25.125 C 28.003906 25.105469 28.003906 25.085938 28.003906 25.0625 C 28.007813 25 28.007813 24.929688 28 24.863281 C 27.996094 24.847656 27.996094 24.828125 27.992188 24.808594 C 27.953125 21.195313 26.902344 18.964844 25.75 17.675781 C 25.164063 17.023438 24.5625 16.617188 24.09375 16.371094 C 24.058594 16.351563 24.035156 16.347656 24 16.328125 L 24 10.292969 C 24 10.195313 23.988281 10.097656 23.984375 10 L 25 10 L 25 8 L 23.675781 8 C 22.742188 4.6875 19.84375 2.113281 16.246094 2.003906 Z M 16.1875 4 C 18.660156 4.078125 20.722656 5.75 21.578125 8 L 19.855469 8 C 19.40625 6.285156 17.851563 5 16 5 C 14.148438 5 12.59375 6.285156 12.144531 8 L 10.34375 8 C 11.183594 5.609375 13.480469 3.921875 16.1875 4 Z M 16 7 C 17.117188 7 18 7.882813 18 9 C 18 10.117188 17.117188 11 16 11 C 14.949219 11 14.117188 10.214844 14.019531 9.195313 C 14.113281 9.664063 14.523438 10 15 10 C 15.550781 10 16 9.550781 16 9 C 16 8.449219 15.550781 8 15 8 C 14.527344 8 14.117188 8.332031 14.019531 8.796875 C 14.121094 7.78125 14.953125 7 16 7 Z M 10 10 L 12.144531 10 C 12.59375 11.714844 14.148438 13 16 13 C 17.851563 13 19.40625 11.714844 19.855469 10 L 21.984375 10 C 21.992188 10.097656 22 10.195313 22 10.292969 L 22 16.382813 L 18.765625 18 L 13.234375 18 L 10 16.382813 Z M 13.707031 14.292969 L 12.292969 15.707031 C 12.292969 15.707031 12.683594 16.085938 13.300781 16.394531 C 13.921875 16.703125 14.832031 17 16 17 C 17.167969 17 18.078125 16.703125 18.699219 16.394531 C 19.316406 16.085938 19.707031 15.707031 19.707031 15.707031 L 18.292969 14.292969 C 18.292969 14.292969 18.183594 14.414063 17.800781 14.605469 C 17.421875 14.796875 16.832031 15 16 15 C 15.167969 15 14.578125 14.796875 14.199219 14.605469 C 13.816406 14.414063 13.707031 14.292969 13.707031 14.292969 Z M 10 18.617188 L 12 19.617188 L 12 21.921875 C 11.785156 21.90625 11.773438 21.921875 11.515625 21.886719 C 10.945313 21.804688 10.351563 21.613281 10 21.453125 Z M 22 18.617188 L 22 21.453125 C 21.648438 21.613281 21.054688 21.804688 20.484375 21.886719 C 20.226563 21.921875 20.214844 21.90625 20 21.921875 L 20 19.617188 Z M 14 20 L 18 20 L 18 24 L 19 24 C 19 24 19.8125 24 20.765625 23.863281 C 21.15625 23.808594 21.578125 23.734375 22 23.625 L 22 24 C 22 25.117188 21.117188 26 20 26 L 19.164063 26 C 19.09375 25.988281 19.023438 25.984375 18.953125 25.988281 C 18.917969 25.988281 18.882813 25.992188 18.84375 26 L 16.175781 26 C 16.113281 25.988281 16.054688 25.984375 15.992188 25.984375 C 15.992188 25.984375 15.992188 25.984375 15.988281 25.984375 C 15.933594 25.988281 15.882813 25.992188 15.828125 26 L 13.140625 26 C 13.097656 25.992188 13.058594 25.988281 13.015625 25.988281 C 12.957031 25.988281 12.902344 25.992188 12.84375 26 L 12 26 C 10.882813 26 10 25.117188 10 24 L 10 23.625 C 10.421875 23.734375 10.84375 23.808594 11.234375 23.863281 C 12.1875 24 13 24 13 24 L 14 24 Z "></path>
</g>
</svg>
