<?xml version="1.0" encoding="UTF-8"?>
<svg xmlns="http://www.w3.org/2000/svg" xmlns:xlink="http://www.w3.org/1999/xlink" viewBox="0 0 32 32" version="1.1">
<g>
<path d="M 4 4 L 4 28 L 28 28 L 28 26 L 6 26 L 6 4 Z M 10 4.875 L 8 5.125 C 8 5.125 8.503906 9.171875 9.78125 13.28125 C 10.417969 15.335938 11.242188 17.421875 12.375 19.0625 C 13.507813 20.703125 15.042969 22 17 22 C 18.957031 22 20.492188 20.703125 21.625 19.0625 C 22.757813 17.421875 23.582031 15.335938 24.21875 13.28125 C 25.496094 9.171875 26 5.125 26 5.125 L 24 4.875 C 24 4.875 23.519531 8.828125 22.3125 12.71875 C 21.707031 14.664063 20.90625 16.578125 19.96875 17.9375 C 19.03125 19.296875 18.074219 20 17 20 C 15.925781 20 14.96875 19.296875 14.03125 17.9375 C 13.09375 16.578125 12.292969 14.664063 11.6875 12.71875 C 10.480469 8.828125 10 4.875 10 4.875 Z M 17 22 L 16 22 L 16 24 L 18 24 L 18 22 Z M 8 22 L 8 24 L 10 24 L 10 22 Z M 12 22 L 12 24 L 14 24 L 14 22 Z M 20 22 L 20 24 L 22 24 L 22 22 Z M 24 22 L 24 24 L 26 24 L 26 22 Z "></path>
</g>
</svg>
