<?xml version="1.0" encoding="UTF-8"?>
<svg xmlns="http://www.w3.org/2000/svg" xmlns:xlink="http://www.w3.org/1999/xlink" viewBox="0 0 32 32" version="1.1">
<g>
<path d="M 9 4 L 9 5 L 5 5 L 5 27 L 27 27 L 27 5 L 23 5 L 23 4 L 21 4 L 21 5 L 11 5 L 11 4 Z M 7 7 L 9 7 L 9 8 L 11 8 L 11 7 L 21 7 L 21 8 L 23 8 L 23 7 L 25 7 L 25 9 L 7 9 Z M 7 11 L 25 11 L 25 25 L 7 25 Z M 14.875 14 L 14.59375 14.40625 C 14.59375 14.40625 14.046875 15 13.5 15 L 13.5 17 C 14.15625 17 14.574219 16.722656 15 16.46875 L 15 22 L 17 22 L 17 14 Z M 18 16 L 18 18.5 C 18 19.871094 19.128906 21 20.5 21 C 20.671875 21 20.839844 20.972656 21 20.9375 L 21 21.5 C 21 21.78125 20.78125 22 20.5 22 C 20.21875 22 20 21.78125 20 21.5 L 18 21.5 C 18 22.871094 19.128906 24 20.5 24 C 21.871094 24 23 22.871094 23 21.5 L 23 16 L 21 16 L 21 18.5 C 21 18.78125 20.78125 19 20.5 19 C 20.21875 19 20 18.78125 20 18.5 L 20 16 Z M 8 17 L 8 19 L 12 19 L 12 17 Z "></path>
</g>
</svg>
