<?xml version="1.0" encoding="UTF-8"?>
<svg xmlns="http://www.w3.org/2000/svg" xmlns:xlink="http://www.w3.org/1999/xlink" viewBox="0 0 32 32" version="1.1">
<g>
<path d="M 16 4 C 11.59375 4 8 7.59375 8 12 C 8 16.40625 11.59375 20 16 20 C 20.40625 20 24 16.40625 24 12 C 24 7.59375 20.40625 4 16 4 Z M 16 6 C 19.324219 6 22 8.675781 22 12 C 22 15.324219 19.324219 18 16 18 C 12.675781 18 10 15.324219 10 12 C 10 8.675781 12.675781 6 16 6 Z M 5 12 C 5 17.726563 9.402344 22.429688 15 22.9375 L 15 26 L 12 26 L 12 28 L 20 28 L 20 26 L 17 26 L 17 22.9375 C 22.597656 22.429688 27 17.726563 27 12 L 25 12 C 25 16.984375 20.984375 21 16 21 C 11.015625 21 7 16.984375 7 12 Z "></path>
</g>
</svg>
