<?xml version="1.0" encoding="UTF-8"?>
<svg xmlns="http://www.w3.org/2000/svg" xmlns:xlink="http://www.w3.org/1999/xlink" viewBox="0 0 32 32" version="1.1">
<g>
<path d="M 16 4 C 13.351563 4 10.980469 4.539063 9.21875 5.28125 C 8.339844 5.652344 7.625 6.054688 7.0625 6.53125 C 6.5 7.007813 6 7.574219 6 8.40625 C 6 10.996094 7.433594 12.960938 8.71875 14.5 C 9.363281 15.269531 9.988281 15.953125 10.40625 16.53125 C 10.824219 17.109375 11 17.566406 11 17.8125 L 11 21 C 11 21.730469 11.402344 22.371094 12 22.71875 L 12 25 C 12 26.09375 12.90625 27 14 27 L 15 28 L 17 28 L 18 27 C 19.09375 27 20 26.09375 20 25 L 20 22.71875 C 20.597656 22.371094 21 21.730469 21 21 L 21 17.8125 C 21 17.566406 21.175781 17.109375 21.59375 16.53125 C 22.011719 15.953125 22.636719 15.269531 23.28125 14.5 C 24.566406 12.960938 26 10.996094 26 8.40625 C 26 7.574219 25.5 7.007813 24.9375 6.53125 C 24.375 6.054688 23.660156 5.652344 22.78125 5.28125 C 21.019531 4.539063 18.648438 4 16 4 Z M 16 6 C 18.371094 6 20.515625 6.5 22 7.125 C 22.691406 7.417969 23.214844 7.726563 23.5625 8 L 8.4375 8 C 8.785156 7.726563 9.308594 7.417969 10 7.125 C 11.484375 6.5 13.628906 6 16 6 Z M 8.28125 10 L 23.71875 10 C 23.324219 11.15625 22.5625 12.207031 21.71875 13.21875 C 21.113281 13.945313 20.488281 14.65625 19.96875 15.375 C 19.449219 16.09375 19 16.867188 19 17.8125 L 19 21 L 13 21 L 13 17.8125 C 13 16.867188 12.550781 16.09375 12.03125 15.375 C 11.511719 14.65625 10.886719 13.945313 10.28125 13.21875 C 9.4375 12.207031 8.675781 11.15625 8.28125 10 Z M 14 23 L 18 23 L 18 25 L 14 25 Z "></path>
</g>
</svg>
