<?xml version="1.0" encoding="UTF-8"?>
<svg xmlns="http://www.w3.org/2000/svg" xmlns:xlink="http://www.w3.org/1999/xlink" viewBox="0 0 32 32" version="1.1">
<g>
<path d="M 26.90625 3.96875 L 26.21875 4.375 L 19.59375 8.21875 L 19.46875 8.28125 L 11.75 16 L 7.59375 16 L 7.3125 16.28125 L 4.3125 19.25 L 4 19.53125 L 4 21 L 7.25 21 L 11 24.75 L 11 28 L 12.46875 28 L 12.75 27.6875 L 15.71875 24.6875 L 16 24.40625 L 16 20.25 L 23.71875 12.53125 L 23.78125 12.40625 L 27.625 5.78125 L 28 5.125 L 27.46875 4.5625 L 27.4375 4.53125 Z M 24.0625 7.9375 L 22.34375 10.90625 L 21.09375 9.65625 Z M 19.5625 11 L 21 12.4375 L 11.25 22.15625 L 9.84375 20.75 Z M 8.40625 18 L 9.5625 18 L 8.5625 19 L 7.375 19 Z M 14 22.4375 L 14 23.59375 L 13 24.625 L 13 23.4375 Z "></path>
</g>
</svg>
