<?xml version="1.0" encoding="UTF-8"?>
<svg xmlns="http://www.w3.org/2000/svg" xmlns:xlink="http://www.w3.org/1999/xlink" viewBox="0 0 32 32" version="1.1">
<g>
<path d="M 18 5 L 18 7 L 21.59375 7 L 16 12.5625 L 10 6.59375 L 8.59375 8 L 15.28125 14.71875 L 16 15.40625 L 16.71875 14.71875 L 23 8.40625 L 23 12 L 25 12 L 25 5 Z M 16 16 C 12.078125 16 8.785156 16.726563 6.625 17.34375 C 4.492188 17.972656 3 19.941406 3 22.1875 L 3 25 C 3 25.523438 3.183594 26.058594 3.5625 26.4375 C 3.941406 26.816406 4.476563 27 5 27 L 9 27 C 9.523438 27 10.058594 26.816406 10.4375 26.4375 C 10.816406 26.058594 11 25.523438 11 25 L 11 22.375 C 11.1875 22.285156 11.222656 22.230469 11.78125 22.0625 C 12.695313 21.789063 14.101563 21.5 16 21.5 C 17.898438 21.5 19.304688 21.789063 20.21875 22.0625 C 20.777344 22.230469 20.8125 22.285156 21 22.375 L 21 25 C 21 25.523438 21.183594 26.058594 21.5625 26.4375 C 21.941406 26.816406 22.476563 27 23 27 L 27 27 C 27.523438 27 28.058594 26.816406 28.4375 26.4375 C 28.816406 26.058594 29 25.523438 29 25 L 29 22.1875 C 29 19.953125 27.488281 18.0625 25.40625 17.4375 C 25.398438 17.433594 25.382813 17.441406 25.375 17.4375 C 23.175781 16.707031 19.910156 16 16 16 Z M 16 18 C 19.675781 18 22.78125 18.675781 24.78125 19.34375 L 24.8125 19.34375 C 26.117188 19.726563 27 20.832031 27 22.1875 L 27 25 L 23 25 L 23 21.125 L 22.5 20.84375 C 22.5 20.84375 21.867188 20.484375 20.78125 20.15625 C 19.695313 19.828125 18.101563 19.5 16 19.5 C 13.898438 19.5 12.304688 19.828125 11.21875 20.15625 C 10.132813 20.484375 9.5 20.84375 9.5 20.84375 L 9 21.125 L 9 25 L 5 25 L 5 22.1875 C 5 20.832031 5.917969 19.621094 7.1875 19.25 C 9.226563 18.667969 12.324219 18 16 18 Z "></path>
</g>
</svg>
