<?xml version="1.0" encoding="UTF-8"?>
<svg xmlns="http://www.w3.org/2000/svg" xmlns:xlink="http://www.w3.org/1999/xlink" viewBox="0 0 32 32" version="1.1">
<g>
<path d="M 10.0625 4.5625 L 7.09375 10.5625 L 6.875 11.03125 L 7.15625 11.5 L 9.53125 15.53125 C 9.074219 16.355469 8.679688 17.167969 8.40625 17.96875 L 5.0625 14.625 L 6 8.15625 L 4 7.84375 L 3 14.84375 L 2.9375 15.34375 L 3.28125 15.71875 L 8 20.40625 L 8 20.875 C 8 22.816406 7.964844 24.625 9.15625 26.03125 C 10.347656 27.4375 12.445313 28 16 28 C 19.554688 28 21.652344 27.4375 22.84375 26.03125 C 24.035156 24.625 24 22.816406 24 20.875 L 24 20.40625 L 28.71875 15.71875 L 29.0625 15.34375 L 29 14.84375 L 28 7.84375 L 26 8.15625 L 26.9375 14.625 L 23.59375 17.96875 C 23.320313 17.167969 22.925781 16.355469 22.46875 15.53125 L 24.84375 11.5 L 25.125 11.03125 L 24.90625 10.5625 L 21.9375 4.5625 L 20.15625 5.4375 L 22.875 10.96875 L 21.3125 13.59375 C 20.613281 12.542969 19.867188 11.570313 19.15625 10.8125 C 18.433594 9.183594 17.421875 7.984375 16.84375 7.34375 L 16.53125 7 L 15.46875 7 L 15.15625 7.34375 C 14.578125 7.984375 13.566406 9.183594 12.84375 10.8125 C 12.128906 11.570313 11.386719 12.542969 10.6875 13.59375 L 9.125 10.96875 L 11.84375 5.4375 Z M 16 9.5625 C 16.902344 10.707031 18 12.390625 18 14.65625 C 18 15.378906 17.847656 15.519531 17.59375 15.6875 C 17.339844 15.855469 16.785156 16 16 16 C 15.214844 16 14.660156 15.855469 14.40625 15.6875 C 14.152344 15.519531 14 15.378906 14 14.65625 C 14 12.390625 15.097656 10.707031 16 9.5625 Z M 12.0625 15.15625 C 12.179688 16.105469 12.59375 16.917969 13.28125 17.375 C 14.089844 17.910156 15.039063 18 16 18 C 16.960938 18 17.910156 17.910156 18.71875 17.375 C 19.40625 16.917969 19.820313 16.105469 19.9375 15.15625 C 20.152344 15.488281 20.367188 15.816406 20.5625 16.15625 C 21.433594 17.679688 22 19.265625 22 20 L 22 20.875 C 22 22.796875 21.898438 24.058594 21.3125 24.75 C 20.726563 25.441406 19.335938 26 16 26 C 12.664063 26 11.273438 25.441406 10.6875 24.75 C 10.101563 24.058594 10 22.796875 10 20.875 L 10 20 C 10 19.265625 10.566406 17.679688 11.4375 16.15625 C 11.632813 15.816406 11.847656 15.488281 12.0625 15.15625 Z "></path>
</g>
</svg>
