<?xml version="1.0" encoding="UTF-8"?>
<svg xmlns="http://www.w3.org/2000/svg" xmlns:xlink="http://www.w3.org/1999/xlink" viewBox="0 0 32 32" version="1.1">
<g>
<path d="M 2 5 L 2 25 L 7 25 L 7 30.09375 L 8.625 28.78125 L 13.34375 25 L 30 25 L 30 5 Z M 4 7 L 28 7 L 28 23 L 12.65625 23 L 12.375 23.21875 L 9 25.90625 L 9 23 L 4 23 Z M 23 10 C 21.894531 10 21 10.894531 21 12 C 21 13.105469 21.894531 14 23 14 C 24.105469 14 25 13.105469 25 12 C 25 10.894531 24.105469 10 23 10 Z M 11.90625 12.28125 L 6.28125 17.90625 L 7.71875 19.3125 L 11.90625 15.125 L 16.90625 20.125 L 17.59375 19.40625 L 19.6875 17.3125 L 22.28125 19.90625 L 23.71875 18.5 L 20.40625 15.1875 L 19.6875 14.5 L 16.875 17.3125 L 12.59375 13 Z "></path>
</g>
</svg>
