<?xml version="1.0"?>
<svg xmlns="http://www.w3.org/2000/svg" viewBox="0 0 32 32">
    <path d="M 11 4 C 9.3550302 4 8 5.3550302 8 7 L 8 9 L 8 18 L 10 18 L 10 11.8125 C 10.314909 11.926042 10.648097 12 11 12 C 11.768717 12 12.466675 11.695838 13 11.212891 C 13.533325 11.695838 14.231283 12 15 12 C 15.768717 12 16.466675 11.695838 17 11.212891 C 17.533325 11.695838 18.231283 12 19 12 C 20.645255 12 22 10.645255 22 9 L 22 22 L 18 22 L 18 24 L 22 24 L 22 25 C 22 25.56503 21.56503 26 21 26 L 16 26 L 16 28 L 21 28 C 22.64497 28 24 26.64497 24 25 L 24 7 C 24 5.3550302 22.64497 4 21 4 L 11 4 z M 11 6 L 12 6 L 12 9 C 12 9.5587453 11.558745 10 11 10 C 10.441255 10 10 9.5587453 10 9 L 10 7 C 10 6.4349698 10.43497 6 11 6 z M 14 6 L 16 6 L 16 9 C 16 9.5587453 15.558745 10 15 10 C 14.441255 10 14 9.5587453 14 9 L 14 6 z M 18 6 L 20 6 L 20 9 C 20 9.5587453 19.558745 10 19 10 C 18.441255 10 18 9.5587453 18 9 L 18 6 z M 16 13 L 16 15 L 13 15 L 13 17 L 16 17 L 16 19 L 20 16 L 16 13 z M 5.6113281 18.964844 L 2.0703125 22.503906 L 2.0664062 22.507812 C 2.0664062 22.507812 1.1939446 23.385775 0.8125 24.763672 C 0.43105536 26.141569 0.6363048 28.134352 2.4199219 29.917969 C 3.8147269 31.312773 5.1858647 31.855555 6.3183594 31.929688 L 6.3183594 31.986328 L 13 31.986328 L 13 29.986328 L 10.183594 29.986328 L 16.693359 23.720703 L 15.306641 22.279297 L 7.7460938 29.558594 C 7.7445937 29.560094 7.4520558 29.847727 6.828125 29.931641 C 6.2025948 30.015823 5.2469378 29.914907 3.8339844 28.501953 C 2.4746014 27.14257 2.508429 26.134228 2.7402344 25.296875 C 2.9720397 24.459522 3.4960937 23.908203 3.4960938 23.908203 L 7.0253906 20.378906 L 5.6113281 18.964844 z M 8.4394531 20.380859 L 5.6113281 23.207031 L 7.0253906 24.623047 L 9.8535156 21.794922 L 8.4394531 20.380859 z M 11.267578 21.792969 L 7.7324219 25.330078 L 9.1464844 26.744141 L 12.681641 23.208984 L 11.267578 21.792969 z"></path>
</svg>
