<?xml version="1.0"?>
<svg xmlns="http://www.w3.org/2000/svg" viewBox="0 0 32 32">
    <path d="M 11 4 C 9.346 4 8 5.346 8 7 L 8 7.6660156 L 5 11.666016 L 5 12 C 5 13.645255 6.3547453 15 8 15 L 8 25 C 8 26.657 9.343 28 11 28 L 20.742188 28 C 19.970188 27.475 19.313703 26.8 18.845703 26 L 11 26 C 10.448 26 10 25.552 10 25 L 10 24 L 18.101562 24 C 18.045563 23.673 18.015625 23.339 18.015625 23 C 18.015625 22.659 18.050469 22.326 18.105469 22 L 10 22 L 10 14.212891 C 10.533325 14.695838 11.231283 15 12 15 C 12.768717 15 13.466675 14.695838 14 14.212891 C 14.533325 14.695838 15.231283 15 16 15 C 16.768717 15 17.466675 14.695838 18 14.212891 C 18.533325 14.695838 19.231283 15 20 15 C 20.768717 15 21.466675 14.695838 22 14.212891 L 22 17.355469 C 22.626 17.131469 23.298 17.002 24 17 L 24 15 C 25.645255 15 27 13.645255 27 12 L 27 11.666016 L 24 7.6660156 L 24 7 C 24 5.346 22.654 4 21 4 L 11 4 z M 11 6 L 21 6 C 21.551 6 22 6.449 22 7 L 22 8 L 10 8 L 10 7 C 10 6.449 10.449 6 11 6 z M 8.75 10 L 23.25 10 L 24.912109 12.216797 C 24.804367 12.653486 24.473469 13 24 13 C 23.441255 13 23 12.558745 23 12 L 21 12 C 21 12.558745 20.558745 13 20 13 C 19.441255 13 19 12.558745 19 12 L 17 12 C 17 12.558745 16.558745 13 16 13 C 15.441255 13 15 12.558745 15 12 L 13 12 C 13 12.558745 12.558745 13 12 13 C 11.441255 13 11 12.558745 11 12 L 9 12 C 9 12.558745 8.5587453 13 8 13 C 7.5265308 13 7.195633 12.653486 7.0878906 12.216797 L 8.75 10 z M 24.015625 19 C 21.809625 19 20.015625 20.794 20.015625 23 C 20.015625 23.222675 20.033851 23.441494 20.070312 23.65625 C 20.176797 24.292864 20.438883 24.876047 20.810547 25.373047 C 20.816507 25.381027 20.822106 25.392454 20.828125 25.400391 C 20.926931 25.530312 21.038689 25.648813 21.152344 25.765625 C 21.188281 25.802662 21.218486 25.845191 21.255859 25.880859 C 21.376663 25.995829 21.510155 26.096011 21.644531 26.195312 C 21.681089 26.222399 21.712462 26.255373 21.75 26.28125 C 21.844063 26.345945 21.947277 26.396507 22.046875 26.453125 C 22.02709 26.63289 22.015625 26.815182 22.015625 27 C 22.015625 27.343803 22.050304 27.67917 22.117188 28.003906 C 22.117188 28.003906 22.117188 28.005859 22.117188 28.005859 C 22.517488 29.956973 24.056699 31.498137 26.007812 31.898438 C 26.009045 31.898692 26.010486 31.898184 26.011719 31.898438 C 26.173104 31.931418 26.337323 31.95764 26.503906 31.974609 C 26.503906 31.974609 26.505859 31.974609 26.505859 31.974609 C 26.673421 31.991757 26.843723 32 27.015625 32 C 27.359428 32 27.696748 31.965321 28.021484 31.898438 C 29.648302 31.564601 30.988093 30.438061 31.621094 28.941406 C 31.747789 28.643135 31.847185 28.329936 31.914062 28.005859 C 31.914062 28.005859 31.914062 28.003906 31.914062 28.003906 C 31.980946 27.67917 32.015625 27.343803 32.015625 27 L 32.015625 26 L 31.914062 26 C 31.567686 24.301722 30.350979 22.927189 28.757812 22.330078 C 28.661287 22.292267 28.558515 22.269871 28.458984 22.238281 C 28.273514 22.181802 28.092283 22.116787 27.898438 22.082031 C 27.541915 20.576785 26.340112 19.39415 24.818359 19.082031 C 24.558795 19.028441 24.290258 19 24.015625 19 z M 24.015625 21 C 24.1535 21 24.287881 21.014334 24.417969 21.041016 C 24.419216 21.041264 24.420629 21.040765 24.421875 21.041016 C 25.04625 21.170317 25.560716 21.594671 25.824219 22.158203 C 24.495428 22.485581 23.386535 23.343736 22.712891 24.496094 C 22.284005 24.126509 22.015625 23.586736 22.015625 23 C 22.015625 22.861959 22.03075 22.727406 22.056641 22.597656 C 22.216478 21.818358 22.830595 21.202287 23.609375 21.041016 C 23.740279 21.014637 23.876258 21 24.015625 21 z M 27.015625 24 C 28.669625 24 30.015625 25.346 30.015625 27 C 30.015625 28.44725 28.984824 29.659207 27.619141 29.939453 C 27.424573 29.97831 27.222583 30 27.015625 30 C 26.808667 30 26.606677 29.97831 26.412109 29.939453 C 25.046426 29.659207 24.015625 28.44725 24.015625 27 C 24.015625 26.793042 24.037315 26.591052 24.076172 26.396484 C 24.316383 25.225898 25.241523 24.300758 26.412109 24.060547 C 26.606677 24.02169 26.808667 24 27.015625 24 z"></path>
</svg>
