<?xml version="1.0"?>
<svg xmlns="http://www.w3.org/2000/svg" viewBox="0 0 32 32">
    <path d="M 11 4 C 9.3550302 4 8 5.3550302 8 7 L 8 25 C 8 26.64497 9.3550302 28 11 28 L 21 28 C 22.64497 28 24 26.64497 24 25 L 24 20 L 29 20 L 29 9 L 24 9 L 24 7 C 24 5.3550302 22.64497 4 21 4 L 11 4 z M 11 6 L 21 6 C 21.56503 6 22 6.4349698 22 7 L 22 9 L 13 9 L 13 10 L 13 20 L 22 20 L 22 25 C 22 25.56503 21.56503 26 21 26 L 11 26 C 10.43497 26 10 25.56503 10 25 L 10 7 C 10 6.4349698 10.43497 6 11 6 z M 16.435547 11 L 25.564453 11 L 21 13.824219 L 16.435547 11 z M 15 12.460938 L 21 16.175781 L 27 12.460938 L 27 18 L 15 18 L 15 12.460938 z M 16 23 C 15.449 23 15 23.449 15 24 C 15 24.551 15.449 25 16 25 C 16.551 25 17 24.551 17 24 C 17 23.449 16.551 23 16 23 z"></path>
</svg>
