<?xml version="1.0"?>
<svg xmlns="http://www.w3.org/2000/svg" viewBox="0 0 32 32">
    <path d="M 11 4 C 9.3550302 4 8 5.3550302 8 7 L 8 25 C 8 26.64497 9.3550302 28 11 28 L 21 28 C 22.64497 28 24 26.64497 24 25 L 24 7 C 24 5.3550302 22.64497 4 21 4 L 11 4 z M 11 6 L 21 6 C 21.56503 6 22 6.4349698 22 7 L 22 25 C 22 25.56503 21.56503 26 21 26 L 11 26 C 10.43497 26 10 25.56503 10 25 L 10 7 C 10 6.4349698 10.43497 6 11 6 z M 15 9 L 15 10.185547 C 13.837698 10.603594 13 11.712172 13 13 C 13 13.833668 13.47397 14.531525 13.982422 14.958984 C 14.490874 15.386444 15.049683 15.653884 15.550781 15.90625 C 16.05188 16.158616 16.494102 16.397002 16.736328 16.597656 C 16.978554 16.79831 17 16.847176 17 17 C 17 17.524506 16.548741 18 16 18 C 15.43497 18 15 17.56503 15 17 L 13 17 C 13 18.293127 13.842679 19.395132 15 19.8125 L 15 21 L 17 21 L 17 19.8125 C 18.164349 19.393892 19 18.284933 19 17 C 19 16.169324 18.521446 15.477268 18.013672 15.056641 C 17.505898 14.636013 16.94812 14.372353 16.449219 14.121094 C 15.950317 13.869834 15.509126 13.630806 15.267578 13.427734 C 15.02603 13.224663 15 13.168332 15 13 C 15 12.461911 15.44583 12 16 12 C 16.56503 12 17 12.43497 17 13 L 19 13 C 19 11.706873 18.157321 10.604868 17 10.1875 L 17 9 L 15 9 z M 16 23 A 1 1 0 0 0 15 24 A 1 1 0 0 0 16 25 A 1 1 0 0 0 17 24 A 1 1 0 0 0 16 23 z" font-weight="400" font-family="sans-serif" white-space="normal" overflow="visible"></path>
</svg>
