<?xml version="1.0"?>
<svg xmlns="http://www.w3.org/2000/svg" viewBox="0 0 32 32">
    <path d="M 11 4 C 9.346 4 8 5.346 8 7 L 8 7.6660156 L 5 11.666016 L 5 12 C 5 13.645255 6.3547453 15 8 15 L 8 25 C 8 26.654 9.346 28 11 28 L 17.84375 28 L 15.974609 26.103516 C 15.966609 26.094516 15.929906 26.056 15.878906 26 L 11 26 C 10.449 26 10 25.552 10 25 L 10 24 L 14.564453 24 C 14.296453 23.416 14.096156 22.736 14.035156 22 L 10 22 L 10 14.212891 C 10.533325 14.695838 11.231283 15 12 15 C 12.768717 15 13.466675 14.695838 14 14.212891 C 14.533325 14.695838 15.231283 15 16 15 C 16.768717 15 17.466675 14.695838 18 14.212891 C 18.533325 14.695838 19.231283 15 20 15 C 20.768717 15 21.466675 14.695838 22 14.212891 L 22 15.201172 C 22.764 15.389172 23.440516 15.678375 23.978516 15.984375 C 23.984516 15.980375 23.993 15.977609 24 15.974609 L 24 15 C 25.645255 15 27 13.645255 27 12 L 27 11.666016 L 24 7.6660156 L 24 7 C 24 5.346 22.654 4 21 4 L 11 4 z M 11 6 L 21 6 C 21.551 6 22 6.449 22 7 L 22 8 L 10 8 L 10 7 C 10 6.449 10.449 6 11 6 z M 8.75 10 L 23.25 10 L 24.912109 12.216797 C 24.804367 12.653486 24.473469 13 24 13 C 23.441255 13 23 12.558745 23 12 L 21 12 C 21 12.558745 20.558745 13 20 13 C 19.441255 13 19 12.558745 19 12 L 17 12 C 17 12.558745 16.558745 13 16 13 C 15.441255 13 15 12.558745 15 12 L 13 12 C 13 12.558745 12.558745 13 12 13 C 11.441255 13 11 12.558745 11 12 L 9 12 C 9 12.558745 8.5587453 13 8 13 C 7.5265308 13 7.195633 12.653486 7.0878906 12.216797 L 8.75 10 z M 20.5 17 C 18 17 16 19.099609 16 21.599609 C 16 23.199609 17.300391 24.599219 17.400391 24.699219 L 24 31.400391 L 30.5 24.699219 C 30.7 24.599219 32 23.199609 32 21.599609 C 32 19.099609 30 17 27.5 17 C 26 17 24.7 17.800391 24 18.400391 C 23.2 17.800391 22 17 20.5 17 z M 20.5 19 C 21.7 19 22.899219 20.1 23.199219 20.5 L 24 21.300781 L 24.699219 20.5 C 24.699219 20.4 26 19 27.5 19 C 28.9 19 30 20.199609 30 21.599609 C 30 22.199609 29.299609 23.100781 29.099609 23.300781 L 24 28.599609 L 18.900391 23.300781 C 18.700391 23.100781 18 22.299609 18 21.599609 C 18 20.199609 19.1 19 20.5 19 z"></path>
</svg>
