<?xml version="1.0"?>
<svg xmlns="http://www.w3.org/2000/svg" viewBox="0 0 32 32">
    <path d="M 11 4 C 9.3550302 4 8 5.3550302 8 7 L 8 25 C 8 26.64497 9.3550302 28 11 28 L 18.207031 28 L 18.207031 26 L 11 26 C 10.43497 26 10 25.56503 10 25 L 10 24 L 16 24 L 16 22 L 10 22 L 10 9 C 10 10.645255 11.354745 12 13 12 C 13.768717 12 14.466675 11.695838 15 11.212891 C 15.533325 11.695838 16.231283 12 17 12 C 17.768717 12 18.466675 11.695838 19 11.212891 C 19.533325 11.695838 20.231283 12 21 12 C 21.351904 12 21.685091 11.926042 22 11.8125 L 22 18 L 24 18 L 24 9 L 24 7 C 24 5.3550302 22.64497 4 21 4 L 11 4 z M 12 6 L 14 6 L 14 9 C 14 9.5587453 13.558745 10 13 10 C 12.441255 10 12 9.5587453 12 9 L 12 6 z M 16 6 L 18 6 L 18 9 C 18 9.5587453 17.558745 10 17 10 C 16.441255 10 16 9.5587453 16 9 L 16 6 z M 20 6 L 21 6 C 21.56503 6 22 6.4349698 22 7 L 22 9 C 22 9.5587453 21.558745 10 21 10 C 20.441255 10 20 9.5587453 20 9 L 20 6 z M 25 18.699219 L 23 23.300781 L 18 23.800781 L 21.699219 27.101562 L 20.699219 32 L 25 29.5 L 29.300781 32 L 28.300781 27.101562 L 32 23.800781 L 27 23.300781 L 25 18.699219 z M 25 23.601562 L 25.199219 24 L 25.699219 25.101562 L 26.898438 25.199219 L 27.398438 25.300781 L 27 25.601562 L 26.101562 26.398438 L 26.300781 27.5 L 26.398438 28 L 26 27.800781 L 25 27.199219 L 24 27.800781 L 23.601562 28 L 23.699219 27.5 L 23.898438 26.398438 L 23 25.601562 L 22.601562 25.300781 L 23.101562 25.199219 L 24.300781 25.101562 L 24.800781 24 L 25 23.601562 z"></path>
</svg>
