<?xml version="1.0"?>
<svg xmlns="http://www.w3.org/2000/svg" viewBox="0 0 32 32">
    <path d="M 11 4 C 9.3550302 4 8 5.3550302 8 7 L 8 25 C 8 26.64497 9.3550302 28 11 28 L 14 28 L 14 26 L 11 26 C 10.43497 26 10 25.56503 10 25 L 10 24 L 14 24 L 14 22 L 10 22 L 10 9 C 10 10.645255 11.354745 12 13 12 C 13.768717 12 14.466675 11.695838 15 11.212891 C 15.533325 11.695838 16.231283 12 17 12 C 17.768717 12 18.466675 11.695838 19 11.212891 C 19.533325 11.695838 20.231283 12 21 12 C 21.351904 12 21.685091 11.926042 22 11.8125 L 22 19 L 24 19 L 24 9 L 24 7 C 24 5.3550302 22.64497 4 21 4 L 11 4 z M 12 6 L 14 6 L 14 9 C 14 9.5587453 13.558745 10 13 10 C 12.441255 10 12 9.5587453 12 9 L 12 6 z M 16 6 L 18 6 L 18 9 C 18 9.5587453 17.558745 10 17 10 C 16.441255 10 16 9.5587453 16 9 L 16 6 z M 20 6 L 21 6 C 21.56503 6 22 6.4349698 22 7 L 22 9 C 22 9.5587453 21.558745 10 21 10 C 20.441255 10 20 9.5587453 20 9 L 20 6 z M 18.994141 21 C 17.349682 21 15.994141 22.354427 15.994141 24 L 15.994141 29 C 15.994141 30.64497 17.349171 32 18.994141 32 L 28.994141 32 C 30.63911 32 31.994141 30.64497 31.994141 29 L 31.994141 24 C 31.994141 22.35503 30.63911 21 28.994141 21 L 18.994141 21 z M 18.994141 23 L 28.994141 23 C 29.559171 23 29.994141 23.43497 29.994141 24 L 29.994141 27 L 17.994141 27 L 17.994141 24 C 17.994141 23.435573 18.4306 23 18.994141 23 z M 17.994141 29 L 29.994141 29 C 29.994141 29.56503 29.559171 30 28.994141 30 L 18.994141 30 C 18.42911 30 17.994141 29.56503 17.994141 29 z" font-weight="400" font-family="sans-serif" white-space="normal" overflow="visible"></path>
</svg>
