<?xml version="1.0"?>
<svg xmlns="http://www.w3.org/2000/svg" viewBox="0 0 32 32">
    <path d="M 11 4 C 9.3550302 4 8 5.3550302 8 7 L 8 7.6660156 L 5 11.666016 L 5 12 C 5 13.645255 6.3547453 15 8 15 L 8 25 C 8 26.64497 9.3550302 28 11 28 L 13 28 L 13 26 L 11 26 C 10.43497 26 10 25.56503 10 25 L 10 24 L 13 24 L 13 22 L 10 22 L 10 14.212891 C 10.533325 14.695838 11.231283 15 12 15 C 12.768717 15 13.466675 14.695838 14 14.212891 C 14.533325 14.695838 15.231283 15 16 15 C 16.768717 15 17.466675 14.695838 18 14.212891 C 18.533325 14.695838 19.231283 15 20 15 C 20.768717 15 21.466675 14.695838 22 14.212891 L 22 17 L 24 17 L 24 15 C 25.645255 15 27 13.645255 27 12 L 27 11.666016 L 24 7.6660156 L 24 7 C 24 5.3550302 22.64497 4 21 4 L 11 4 z M 11 6 L 21 6 C 21.56503 6 22 6.4349698 22 7 L 22 8 L 10 8 L 10 7 C 10 6.4349698 10.43497 6 11 6 z M 8.75 10 L 23.25 10 L 24.912109 12.216797 C 24.804367 12.653486 24.473469 13 24 13 C 23.441255 13 23 12.558745 23 12 L 21 12 C 21 12.558745 20.558745 13 20 13 C 19.441255 13 19 12.558745 19 12 L 17 12 C 17 12.558745 16.558745 13 16 13 C 15.441255 13 15 12.558745 15 12 L 13 12 C 13 12.558745 12.558745 13 12 13 C 11.441255 13 11 12.558745 11 12 L 9 12 C 9 12.558745 8.5587453 13 8 13 C 7.5265308 13 7.195633 12.653486 7.0878906 12.216797 L 8.75 10 z M 18 19 C 16.35503 19 15 20.35503 15 22 L 15 29 C 15 30.64497 16.35503 32 18 32 L 29 32 C 30.64497 32 32 30.64497 32 29 L 32 22 C 32 20.35503 30.64497 19 29 19 L 18 19 z M 18 21 L 29 21 C 29.56503 21 30 21.43497 30 22 L 30 23 L 18 23 L 18 25 L 30 25 L 30 29 C 30 29.56503 29.56503 30 29 30 L 18 30 C 17.43497 30 17 29.56503 17 29 L 17 22 C 17 21.43497 17.43497 21 18 21 z"></path>
</svg>
