<?xml version="1.0"?>
<svg xmlns="http://www.w3.org/2000/svg" viewBox="0 0 32 32">
    <path d="M 11 4 C 9.346 4 8 5.346 8 7 L 8 7.6660156 L 5 11.666016 L 5 12 C 5 13.645255 6.3547453 15 8 15 L 8 25 C 8 26.654 9.346 28 11 28 L 16.757812 28 L 14.757812 26 L 11 26 C 10.448 26 10 25.552 10 25 L 10 14.212891 C 10.533325 14.695838 11.231283 15 12 15 C 12.768717 15 13.466675 14.695838 14 14.212891 C 14.533325 14.695838 15.231283 15 16 15 C 16.768717 15 17.466675 14.695838 18 14.212891 C 18.533325 14.695838 19.231283 15 20 15 C 20.768717 15 21.466675 14.695838 22 14.212891 L 22 15 L 24 15 C 25.645255 15 27 13.645255 27 12 L 27 11.666016 L 24 7.6660156 L 24 7 C 24 5.346 22.654 4 21 4 L 11 4 z M 11 6 L 21 6 C 21.552 6 22 6.449 22 7 L 22 8 L 10 8 L 10 7 C 10 6.449 10.448 6 11 6 z M 8.75 10 L 23.25 10 L 24.912109 12.216797 C 24.804367 12.653486 24.473469 13 24 13 C 23.441255 13 23 12.558745 23 12 L 21 12 C 21 12.558745 20.558745 13 20 13 C 19.441255 13 19 12.558745 19 12 L 17 12 C 17 12.558745 16.558745 13 16 13 C 15.441255 13 15 12.558745 15 12 L 13 12 C 13 12.558745 12.558745 13 12 13 C 11.441255 13 11 12.558745 11 12 L 9 12 C 9 12.558745 8.5587453 13 8 13 C 7.5265308 13 7.195633 12.653486 7.0878906 12.216797 L 8.75 10 z M 15 17 L 15 19 L 12 19 L 12 21 L 15 21 L 15 23 L 19 20 L 15 17 z M 21 17 L 21 26.585938 L 18.982422 24.568359 L 17.568359 25.982422 L 22.292969 30.707031 L 22.332031 30.667969 C 23.185541 31.415747 24.539259 32 26.511719 32 C 29.034181 32 30.588381 30.736218 31.292969 29.492188 C 31.997557 28.248157 32 27.011719 32 27.011719 L 32 27.005859 L 32 22 L 30 22 L 30 26.988281 C 30 26.988281 29.9809 27.751844 29.552734 28.507812 C 29.124572 29.263782 28.434256 30 26.511719 30 C 24.51364 30 23.765667 29.394352 23.382812 28.892578 C 22.999959 28.390804 23 27.978516 23 27.978516 L 23 17 L 21 17 z M 24 20 L 24 25 L 26 25 L 26 20 L 24 20 z M 27 21 L 27 25 L 29 25 L 29 21 L 27 21 z"></path>
</svg>
