<?xml version="1.0" encoding="UTF-8"?>
<svg xmlns="http://www.w3.org/2000/svg" xmlns:xlink="http://www.w3.org/1999/xlink" viewBox="0 0 32 32" version="1.1">
<g>
<path d="M 0 6 L 0 25 L 13 25 C 14.191406 25 15 25.808594 15 27 L 17 27 C 17 25.808594 17.808594 25 19 25 L 32 25 L 32 6 L 19 6 C 17.804688 6 16.734375 6.515625 16 7.34375 C 15.265625 6.515625 14.195313 6 13 6 Z M 2 8 L 13 8 C 14.191406 8 15 8.808594 15 10 L 17 10 C 17 8.808594 17.808594 8 19 8 L 30 8 L 30 23 L 19 23 C 17.804688 23 16.734375 23.515625 16 24.34375 C 15.265625 23.515625 14.195313 23 13 23 L 2 23 Z M 5 12 L 5 20 L 7 20 L 7 15.34375 L 7.1875 15.59375 L 8 16.65625 L 8.8125 15.59375 L 9 15.34375 L 9 20 L 11 20 L 11 12 L 9 12 L 8.6875 12.40625 L 8 13.3125 L 7.3125 12.40625 L 7 12 Z M 14.5 12 C 13.117188 12 12 13.117188 12 14.5 L 12 17.5 C 12 18.882813 13.117188 20 14.5 20 C 15.882813 20 17 18.882813 17 17.5 L 17 14.5 C 17 13.117188 15.882813 12 14.5 12 Z M 18 12 L 18 20 L 20.5 20 C 21.882813 20 23 18.882813 23 17.5 C 23 16.917969 22.738281 16.425781 22.40625 16 C 22.738281 15.574219 23 15.082031 23 14.5 C 23 13.117188 21.882813 12 20.5 12 Z M 24 12 L 24 20 L 26 20 L 26 12 Z M 14.5 14 C 14.714844 14 15 14.285156 15 14.5 L 15 17.5 C 15 17.714844 14.714844 18 14.5 18 C 14.285156 18 14 17.714844 14 17.5 L 14 14.5 C 14 14.285156 14.285156 14 14.5 14 Z M 20 14 L 20.5 14 C 20.714844 14 21 14.285156 21 14.5 C 21 14.714844 20.714844 15 20.5 15 L 20 15 Z M 20 17 L 20.5 17 C 20.714844 17 21 17.285156 21 17.5 C 21 17.714844 20.714844 18 20.5 18 L 20 18 Z "></path>
</g>
</svg>
