<?xml version="1.0"?>
<svg xmlns="http://www.w3.org/2000/svg" viewBox="0 0 32 32">
    <path d="M 11 4 C 9.3550302 4 8 5.3550302 8 7 L 8 25 C 8 26.64497 9.3550302 28 11 28 L 19 28 L 19 26 L 11 26 C 10.43497 26 10 25.56503 10 25 L 10 24 L 18 24 L 18 22 L 10 22 L 10 9 C 10 10.645255 11.354745 12 13 12 C 13.768717 12 14.466675 11.695838 15 11.212891 C 15.533325 11.695838 16.231283 12 17 12 C 17.768717 12 18.466675 11.695838 19 11.212891 C 19.533325 11.695838 20.231283 12 21 12 C 21.351904 12 21.685091 11.926042 22 11.8125 L 22 17 L 24 17 L 24 9 L 24 7 C 24 5.3550302 22.64497 4 21 4 L 11 4 z M 12 6 L 14 6 L 14 9 C 14 9.5587453 13.558745 10 13 10 C 12.441255 10 12 9.5587453 12 9 L 12 6 z M 16 6 L 18 6 L 18 9 C 18 9.5587453 17.558745 10 17 10 C 16.441255 10 16 9.5587453 16 9 L 16 6 z M 20 6 L 21 6 C 21.56503 6 22 6.4349698 22 7 L 22 9 C 22 9.5587453 21.558745 10 21 10 C 20.441255 10 20 9.5587453 20 9 L 20 6 z M 24.015625 19 C 21.818562 19 20.015625 20.802937 20.015625 23 C 20.015625 24.482899 20.840318 25.767237 22.046875 26.453125 C 22.02709 26.63289 22.015625 26.815182 22.015625 27 C 22.015625 29.750424 24.265201 32 27.015625 32 C 29.766049 32 32.015625 29.750424 32.015625 27 L 32.015625 26 L 31.8125 26 C 31.393514 24.026394 29.874095 22.449019 27.898438 22.082031 C 27.478598 20.324023 25.895948 19 24.015625 19 z M 24.015625 21 C 24.82781 21 25.513174 21.472151 25.828125 22.158203 C 24.499429 22.48671 23.387446 23.347668 22.712891 24.501953 C 22.288248 24.141229 22.015625 23.609398 22.015625 23 C 22.015625 21.885063 22.900688 21 24.015625 21 z M 27.015625 24 C 28.687201 24 30.015625 25.328424 30.015625 27 C 30.015625 28.671576 28.687201 30 27.015625 30 C 25.344049 30 24.015625 28.671576 24.015625 27 C 24.015625 25.328424 25.344049 24 27.015625 24 z" font-weight="400" font-family="sans-serif" white-space="normal" overflow="visible"></path>
</svg>
