<?xml version="1.0"?>
<svg xmlns="http://www.w3.org/2000/svg" viewBox="0 0 32 32">
    <path d="M 9 2 C 7.3550302 2 6 3.3550302 6 5 L 6 27 C 6 28.64497 7.3550302 30 9 30 L 19 30 C 20.64497 30 22 28.64497 22 27 L 22 17 L 29 17 L 29 6 L 22 6 L 22 5 C 22 3.3550302 20.64497 2 19 2 L 9 2 z M 9 4 L 19 4 C 19.56503 4 20 4.4349698 20 5 L 20 6 L 13 6 L 13 7 L 13 17 L 20 17 L 20 27 C 20 27.56503 19.56503 28 19 28 L 9 28 C 8.4349698 28 8 27.56503 8 27 L 8 5 C 8 4.4349698 8.4349698 4 9 4 z M 16.435547 8 L 25.564453 8 L 21 10.824219 L 16.435547 8 z M 15 9.4609375 L 21 13.175781 L 27 9.4609375 L 27 15 L 15 15 L 15 9.4609375 z M 14 25 C 13.449 25 13 25.449 13 26 C 13 26.551 13.449 27 14 27 C 14.551 27 15 26.551 15 26 C 15 25.449 14.551 25 14 25 z"></path>
</svg>
