<?xml version="1.0"?>
<svg xmlns="http://www.w3.org/2000/svg" viewBox="0 0 32 32">
    <path d="M 11 4 C 9.3550302 4 8 5.3550302 8 7 L 8 25 C 8 26.64497 9.3550302 28 11 28 L 16 28 L 16 26 L 11 26 C 10.43497 26 10 25.56503 10 25 L 10 24 L 14 24 L 14 22 L 10 22 L 10 9 C 10 10.645255 11.354745 12 13 12 C 13.768717 12 14.466675 11.695838 15 11.212891 C 15.533325 11.695838 16.231283 12 17 12 C 17.768717 12 18.466675 11.695838 19 11.212891 C 19.533325 11.695838 20.231283 12 21 12 C 21.351904 12 21.685091 11.926042 22 11.8125 L 22 16 L 24 16 L 24 7 C 24 5.3550302 22.64497 4 21 4 L 11 4 z M 12 6 L 14 6 L 14 9 C 14 9.5587453 13.558745 10 13 10 C 12.441255 10 12 9.5587453 12 9 L 12 6 z M 16 6 L 18 6 L 18 9 C 18 9.5587453 17.558745 10 17 10 C 16.441255 10 16 9.5587453 16 9 L 16 6 z M 20 6 L 21 6 C 21.56503 6 22 6.4349698 22 7 L 22 9 C 22 9.5587453 21.558745 10 21 10 C 20.441255 10 20 9.5587453 20 9 L 20 6 z M 20.5 17 C 18 17 16 19.099609 16 21.599609 C 16 23.199609 17.300391 24.599219 17.400391 24.699219 L 24 31.400391 L 30.5 24.699219 C 30.7 24.599219 32 23.199609 32 21.599609 C 32 19.099609 30 17 27.5 17 C 26 17 24.7 17.800391 24 18.400391 C 23.2 17.800391 22 17 20.5 17 z M 20.5 19 C 21.7 19 22.899219 20.1 23.199219 20.5 L 24 21.300781 L 24.699219 20.5 C 24.699219 20.4 26 19 27.5 19 C 28.9 19 30 20.199609 30 21.599609 C 30 22.199609 29.299609 23.100781 29.099609 23.300781 L 24 28.599609 L 18.900391 23.300781 C 18.700391 23.100781 18 22.299609 18 21.599609 C 18 20.199609 19.1 19 20.5 19 z" font-weight="400" font-family="sans-serif" white-space="normal" overflow="visible"></path>
</svg>
