<?xml version="1.0" encoding="UTF-8"?>
<svg xmlns="http://www.w3.org/2000/svg" xmlns:xlink="http://www.w3.org/1999/xlink" viewBox="0 0 32 32" version="1.1">
<g>
<path d="M 16 4.96875 L 3 8.21875 L 3 24 L 5 24 C 5 25.644531 6.355469 27 8 27 C 9.644531 27 11 25.644531 11 24 L 21 24 C 21 25.644531 22.355469 27 24 27 C 25.644531 27 27 25.644531 27 24 L 29 24 L 29 8.21875 Z M 16 7.03125 L 27 9.78125 L 27 22 L 25 22 L 25 12 L 17 12 L 17 22 L 5 22 L 5 9.78125 Z M 7 12 L 7 18 L 15 18 L 15 12 Z M 9 14 L 13 14 L 13 16 L 9 16 Z M 19 14 L 23 14 L 23 22 L 19 22 Z M 7 24 L 9 24 C 9 24.554688 8.554688 25 8 25 C 7.445313 25 7 24.554688 7 24 Z M 23 24 L 25 24 C 25 24.554688 24.554688 25 24 25 C 23.445313 25 23 24.554688 23 24 Z "></path>
</g>
</svg>
