<?xml version="1.0" encoding="UTF-8"?>
<svg xmlns="http://www.w3.org/2000/svg" xmlns:xlink="http://www.w3.org/1999/xlink" viewBox="0 0 32 32" version="1.1">
<g>
<path d="M 16 3 C 15.449219 3 15 3.449219 15 4 C 15 4.175781 15.074219 4.324219 15.15625 4.46875 L 12.59375 7.875 L 9.25 7.03125 L 9 6.96875 C 8.984375 6.429688 8.542969 6 8 6 C 7.449219 6 7 6.449219 7 7 C 7 7.542969 7.429688 7.984375 7.96875 8 L 8.90625 11.75 C 8.070313 12.71875 6 15.523438 6 20 L 6 21 L 8.875 21 C 7.101563 22.804688 6 25.277344 6 28 L 8 28 C 8 23.570313 11.570313 20 16 20 C 20.429688 20 24 23.570313 24 28 L 26 28 C 26 25.277344 24.898438 22.804688 23.125 21 L 26 21 L 26 20 C 26 15.523438 23.929688 12.71875 23.09375 11.75 L 24.03125 8 C 24.570313 7.984375 25 7.542969 25 7 C 25 6.449219 24.550781 6 24 6 C 23.457031 6 23.015625 6.429688 23 6.96875 L 22.75 7.03125 L 19.40625 7.875 L 16.84375 4.46875 C 16.925781 4.324219 17 4.175781 17 4 C 17 3.449219 16.550781 3 16 3 Z M 16 6.6875 L 18.1875 9.59375 L 18.59375 10.125 L 19.25 9.96875 L 21.625 9.375 L 21.21875 11 L 10.78125 11 L 10.375 9.375 L 12.75 9.96875 L 13.40625 10.125 L 13.8125 9.59375 Z M 11 13 L 21 13 C 21 15.773438 18.773438 18 16 18 C 13.226563 18 11 15.773438 11 13 Z M 9.28125 14.875 C 9.734375 16.488281 10.738281 17.894531 12.09375 18.8125 C 11.964844 18.867188 11.84375 18.941406 11.71875 19 L 8.125 19 C 8.277344 17.269531 8.773438 15.90625 9.28125 14.875 Z M 22.71875 14.875 C 23.226563 15.90625 23.722656 17.269531 23.875 19 L 20.28125 19 C 20.15625 18.941406 20.035156 18.867188 19.90625 18.8125 C 21.261719 17.894531 22.265625 16.488281 22.71875 14.875 Z "></path>
</g>
</svg>
