<?xml version="1.0" encoding="UTF-8"?>
<svg xmlns="http://www.w3.org/2000/svg" xmlns:xlink="http://www.w3.org/1999/xlink" viewBox="0 0 32 32" version="1.1">
<g>
<path d="M 11.71875 3.28125 L 10.28125 4.71875 C 11.566406 6.003906 11.78125 7.476563 11.65625 9.25 C 11.53125 11.023438 11 12.957031 11 14.84375 C 11 15.929688 11.382813 17.339844 12.3125 18.625 C 13.242188 19.910156 14.832031 21 17 21 C 18.683594 21 19.988281 20.46875 20.90625 19.65625 C 21.824219 18.84375 22.34375 17.816406 22.71875 16.875 C 23.09375 15.933594 23.34375 15.058594 23.59375 14.53125 C 23.71875 14.269531 23.847656 14.085938 23.90625 14.03125 C 23.964844 13.976563 23.917969 14 24 14 L 24 12 C 23.453125 12 22.925781 12.234375 22.5625 12.5625 C 22.199219 12.890625 21.96875 13.261719 21.78125 13.65625 C 21.410156 14.441406 21.195313 15.316406 20.875 16.125 C 20.554688 16.933594 20.15625 17.65625 19.59375 18.15625 C 19.03125 18.65625 18.292969 19 17 19 C 15.460938 19 14.546875 18.324219 13.90625 17.4375 C 13.265625 16.550781 13 15.410156 13 14.84375 C 13 13.367188 13.511719 11.410156 13.65625 9.375 C 13.800781 7.339844 13.5 5.0625 11.71875 3.28125 Z M 7.8125 3.40625 L 6.1875 4.59375 C 8.476563 7.773438 8.277344 9.542969 8.09375 11.25 C 8.042969 11.730469 8 12.203125 8 12.71875 C 8 16.824219 9.453125 19.308594 12.5625 20.375 C 10.839844 18.867188 10 16.601563 10 14.84375 C 10 14.515625 10.003906 14.175781 10.03125 13.84375 C 10.003906 13.492188 10 13.113281 10 12.71875 C 10 12.308594 10.046875 11.886719 10.09375 11.4375 C 10.296875 9.550781 10.546875 7.203125 7.8125 3.40625 Z M 17 13 C 15.894531 13 15 13.894531 15 15 C 15 16.105469 15.894531 17 17 17 C 18.105469 17 19 16.105469 19 15 C 19 13.894531 18.105469 13 17 13 Z M 10 22 L 10 24 L 22 24 L 22 22 Z M 12 25 L 12 27 L 20 27 L 20 25 Z "></path>
</g>
</svg>
