<?xml version="1.0" encoding="UTF-8"?>
<svg xmlns="http://www.w3.org/2000/svg" xmlns:xlink="http://www.w3.org/1999/xlink" viewBox="0 0 32 32" version="1.1">
<g>
<path d="M 16 3 C 15.449219 3 15 3.449219 15 4 C 15 4.175781 15.074219 4.324219 15.15625 4.46875 L 12.59375 7.875 L 9.25 7.03125 L 9 6.96875 C 8.984375 6.429688 8.542969 6 8 6 C 7.449219 6 7 6.449219 7 7 C 7 7.542969 7.429688 7.984375 7.96875 8 L 9 12.125 L 9 13 C 9 15.410156 10.230469 17.550781 12.09375 18.8125 C 8.527344 20.34375 6 23.882813 6 28 L 8 28 C 8 23.570313 11.570313 20 16 20 C 20.429688 20 24 23.570313 24 28 L 26 28 C 26 23.882813 23.472656 20.34375 19.90625 18.8125 C 21.769531 17.550781 23 15.410156 23 13 L 23 12.125 L 24.03125 8 C 24.570313 7.984375 25 7.542969 25 7 C 25 6.449219 24.550781 6 24 6 C 23.457031 6 23.015625 6.429688 23 6.96875 L 22.75 7.03125 L 19.40625 7.875 L 16.84375 4.46875 C 16.925781 4.324219 17 4.175781 17 4 C 17 3.449219 16.550781 3 16 3 Z M 16 6.6875 L 18.1875 9.59375 L 18.59375 10.125 L 19.25 9.96875 L 21.625 9.375 L 21.21875 11 L 10.78125 11 L 10.375 9.375 L 12.75 9.96875 L 13.40625 10.125 L 13.8125 9.59375 Z M 11 13 L 21 13 C 21 15.773438 18.773438 18 16 18 C 13.226563 18 11 15.773438 11 13 Z "></path>
</g>
</svg>
