<?xml version="1.0" encoding="UTF-8"?>
<svg xmlns="http://www.w3.org/2000/svg" xmlns:xlink="http://www.w3.org/1999/xlink" viewBox="0 0 32 32" version="1.1">
<g>
<path d="M 22 4.242188 L 21.175781 5.429688 C 20.523438 6.378906 19 8.722656 19 10 C 19 11.652344 20.347656 13 22 13 C 23.652344 13 25 11.652344 25 10 C 25 8.722656 23.476563 6.378906 22.824219 5.429688 Z M 22 7.851563 C 22.574219 8.824219 22.992188 9.695313 23 10 C 23 10.554688 22.550781 11 22 11 C 21.449219 11 21 10.550781 21 10 C 21.007813 9.695313 21.425781 8.824219 22 7.851563 Z M 3 9 C 3 10.625 4.832031 12 7 12 C 8.1875 12 9.261719 11.582031 10 10.941406 C 10.738281 11.582031 11.8125 12 13 12 C 14.1875 12 15.265625 11.578125 16.003906 10.9375 C 16.511719 11.371094 17.171875 11.703125 17.921875 11.871094 C 17.65625 11.296875 17.5 10.667969 17.5 10 C 17.5 9.875 17.515625 9.738281 17.53125 9.601563 C 17.191406 9.390625 17 9.148438 17 9 L 15 9 C 15 9.304688 14.246094 10 13 10 C 11.777344 10 11 9.296875 11 9 L 9 9 C 9 9.304688 8.246094 10 7 10 C 5.777344 10 5 9.296875 5 9 Z M 27 9 C 27 9.152344 26.8125 9.398438 26.46875 9.609375 C 26.488281 9.746094 26.5 9.878906 26.5 10 C 26.5 10.667969 26.34375 11.296875 26.078125 11.871094 C 27.738281 11.503906 29 10.34375 29 9 Z M 3 16 C 3 17.625 4.832031 19 7 19 C 8.1875 19 9.261719 18.582031 10 17.941406 C 10.738281 18.582031 11.8125 19 13 19 C 14.1875 19 15.261719 18.582031 16 17.941406 C 16.738281 18.582031 17.8125 19 19 19 C 20.1875 19 21.261719 18.582031 22 17.941406 C 22.738281 18.582031 23.8125 19 25 19 C 27.167969 19 29 17.625 29 16 L 27 16 C 27 16.304688 26.242188 17 25 17 C 23.777344 17 23 16.296875 23 16 L 21 16 C 21 16.304688 20.242188 17 19 17 C 17.777344 17 17 16.296875 17 16 L 15 16 C 15 16.304688 14.246094 17 13 17 C 11.777344 17 11 16.296875 11 16 L 9 16 C 9 16.304688 8.246094 17 7 17 C 5.777344 17 5 16.296875 5 16 Z M 10 20.238281 L 9.179688 21.433594 C 8.523438 22.378906 7 24.722656 7 26 C 7 27.652344 8.347656 29 10 29 C 11.652344 29 13 27.652344 13 26 C 13 24.722656 11.476563 22.378906 10.824219 21.433594 Z M 3 23 C 3 24.234375 4.058594 25.320313 5.515625 25.773438 C 5.554688 25.226563 5.734375 24.582031 6.054688 23.84375 C 5.394531 23.621094 5 23.210938 5 23 Z M 15 23 C 15 23.21875 14.613281 23.625 13.949219 23.847656 C 14.265625 24.585938 14.445313 25.226563 14.484375 25.773438 C 15.070313 25.589844 15.589844 25.300781 16.003906 24.945313 C 16.746094 25.582031 17.816406 26 19 26 C 20.1875 26 21.261719 25.582031 22 24.941406 C 22.738281 25.582031 23.8125 26 25 26 C 27.167969 26 29 24.625 29 23 L 27 23 C 27 23.304688 26.242188 24 25 24 C 23.777344 24 23 23.296875 23 23 L 21 23 C 21 23.304688 20.242188 24 19 24 C 17.777344 24 17 23.296875 17 23 Z M 10 23.855469 C 10.574219 24.824219 10.992188 25.695313 11 26 C 11 26.554688 10.550781 27 10 27 C 9.449219 27 9 26.554688 9 26 C 9.007813 25.695313 9.425781 24.824219 10 23.855469 Z "></path>
</g>
</svg>
