<?xml version="1.0" encoding="UTF-8"?>
<svg xmlns="http://www.w3.org/2000/svg" xmlns:xlink="http://www.w3.org/1999/xlink" viewBox="0 0 32 32" version="1.1">
<g>
<path d="M 15 2 L 15 5 L 14.703125 5 L 10.078125 8 L 4.132813 8 L 10.917969 18.175781 L 7.691406 30 L 24.308594 30 L 23.964844 28.734375 L 21.03125 17.976563 L 22.800781 10 L 25.445313 10 C 26.0625 11.742188 26.660156 13.925781 26.828125 14.578125 L 24.445313 16.167969 L 25.554688 17.832031 L 29.140625 15.441406 L 28.96875 14.757813 C 28.96875 14.757813 27.992188 10.789063 27.109375 8.625 L 26.855469 8 L 22.277344 8 L 17.277344 5 L 17 5 L 17 2 Z M 15.296875 7 L 16.722656 7 L 20.867188 9.484375 L 19.199219 17 L 12.535156 17 L 7.867188 10 L 10.671875 10 Z M 12.765625 19 L 19.234375 19 L 21.691406 28 L 10.308594 28 Z "></path>
</g>
</svg>
