<?xml version="1.0" encoding="UTF-8"?>
<svg xmlns="http://www.w3.org/2000/svg" xmlns:xlink="http://www.w3.org/1999/xlink" viewBox="0 0 32 32" version="1.1">
<g>
<path d="M 16 4.875 L 11 7.375 L 11 12 L 9 12 L 9 10.46875 L 8.5625 10.15625 L 7.0625 9.15625 L 6.5 8.8125 L 5.9375 9.15625 L 4.4375 10.15625 L 4 10.46875 L 4 25 L 28 25 L 28 10.46875 L 27.5625 10.15625 L 26.0625 9.15625 L 25.5 8.8125 L 24.9375 9.15625 L 23.4375 10.15625 L 23 10.46875 L 23 12 L 21 12 L 21 7.375 Z M 16 7.125 L 19 8.625 L 19 12 L 13 12 L 13 8.625 Z M 6.5 11.21875 L 7 11.5625 L 7 14 L 25 14 L 25 11.5625 L 25.5 11.21875 L 26 11.5625 L 26 23 L 20 23 L 20 17.28125 L 19.3125 17.0625 L 16.3125 16.0625 L 16 15.9375 L 15.6875 16.0625 L 12.6875 17.0625 L 12 17.28125 L 12 23 L 6 23 L 6 11.5625 Z M 16 18.03125 L 18 18.71875 L 18 23 L 14 23 L 14 18.71875 Z "></path>
</g>
</svg>
