<?xml version="1.0" encoding="UTF-8"?>
<svg xmlns="http://www.w3.org/2000/svg" xmlns:xlink="http://www.w3.org/1999/xlink" viewBox="0 0 32 32" version="1.1">
<g>
<path d="M 9 4 L 9 5 L 5 5 L 5 27 L 27 27 L 27 5 L 23 5 L 23 4 L 21 4 L 21 5 L 11 5 L 11 4 Z M 7 7 L 9 7 L 9 8 L 11 8 L 11 7 L 21 7 L 21 8 L 23 8 L 23 7 L 25 7 L 25 9 L 7 9 Z M 7 11 L 25 11 L 25 25 L 7 25 Z M 10 14 L 10 22 L 12 22 L 12 17.34375 L 12.1875 17.59375 L 13 18.65625 L 13.8125 17.59375 L 14 17.34375 L 14 22 L 16 22 L 16 14 L 14 14 L 13.6875 14.40625 L 13 15.3125 L 12.3125 14.40625 L 12 14 Z M 19.5 14 C 18.132813 14 17 15.132813 17 16.5 L 17 19.46875 C 17 20.835938 18.132813 21.96875 19.5 21.96875 C 20.867188 21.96875 22 20.835938 22 19.46875 L 22 16.5 C 22 15.132813 20.867188 14 19.5 14 Z M 19.5 16 C 19.785156 16 20 16.214844 20 16.5 L 20 19.46875 C 20 19.753906 19.785156 19.96875 19.5 19.96875 C 19.214844 19.96875 19 19.753906 19 19.46875 L 19 16.5 C 19 16.214844 19.214844 16 19.5 16 Z "></path>
</g>
</svg>
