<?xml version="1.0" encoding="UTF-8"?>
<svg xmlns="http://www.w3.org/2000/svg" xmlns:xlink="http://www.w3.org/1999/xlink" viewBox="0 0 32 32" version="1.1">
<g>
<path d="M 16 3 C 13 3 10.59375 4.09375 10.59375 4.09375 L 9.625 4.5 L 10.09375 5.4375 L 11.6875 8.59375 C 9.554688 9.851563 4 13.703125 4 20 C 4 22.953125 4.957031 25.195313 7.03125 26.4375 C 9.105469 27.679688 12.011719 28 16 28 C 19.988281 28 22.894531 27.679688 24.96875 26.4375 C 27.042969 25.195313 28 22.953125 28 20 C 28 15.890625 25.601563 12.8125 23.34375 10.8125 C 25.289063 11.601563 26.25 12.6875 26.25 12.6875 L 27.75 11.3125 C 27.75 11.3125 25.199219 8.617188 20.5625 8.09375 L 21.90625 5.4375 L 22.375 4.5 L 21.40625 4.09375 C 21.40625 4.09375 19 3 16 3 Z M 16 5 C 17.574219 5 18.765625 5.292969 19.59375 5.5625 L 18.375 8 L 13.625 8 L 12.40625 5.5625 C 13.234375 5.292969 14.425781 5 16 5 Z M 13.3125 10 L 18.6875 10 C 18.933594 10.128906 26 13.855469 26 20 C 26 22.570313 25.402344 23.839844 23.9375 24.71875 C 22.472656 25.597656 19.863281 26 16 26 C 12.136719 26 9.527344 25.597656 8.0625 24.71875 C 6.597656 23.839844 6 22.570313 6 20 C 6 13.855469 13.066406 10.128906 13.3125 10 Z M 16.46875 12 C 15.007813 12 13.789063 12.78125 13.0625 13.90625 C 12.667969 14.519531 12.390625 15.238281 12.21875 16 L 11 16 L 11 17.5 L 12.03125 17.5 C 12.023438 17.667969 12 17.832031 12 18 C 12 18.167969 12.023438 18.332031 12.03125 18.5 L 11 18.5 L 11 20 L 12.21875 20 C 12.390625 20.761719 12.667969 21.480469 13.0625 22.09375 C 13.789063 23.21875 15.007813 24 16.46875 24 C 17.839844 24 18.976563 23.308594 19.8125 22.34375 L 18.28125 21.03125 C 17.65625 21.753906 17.269531 22 16.46875 22 C 15.667969 22 15.160156 21.683594 14.71875 21 C 14.542969 20.726563 14.398438 20.382813 14.28125 20 L 17 20 L 17 18.5 L 14.03125 18.5 C 14.019531 18.335938 14 18.171875 14 18 C 14 17.828125 14.019531 17.664063 14.03125 17.5 L 17 17.5 L 17 16 L 14.28125 16 C 14.398438 15.617188 14.542969 15.273438 14.71875 15 C 15.160156 14.316406 15.667969 14 16.46875 14 C 17.203125 14 17.628906 14.304688 18.28125 15.0625 L 19.8125 13.75 C 19.003906 12.816406 17.90625 12 16.46875 12 Z "></path>
</g>
</svg>
