<?xml version="1.0" encoding="UTF-8"?>
<svg xmlns="http://www.w3.org/2000/svg" xmlns:xlink="http://www.w3.org/1999/xlink" viewBox="0 0 32 32" version="1.1">
<g>
<path d="M 8 3 L 8 7.15625 L 3.4375 10.15625 L 3 10.46875 L 3 28 L 29 28 L 29 10.46875 L 28.5625 10.15625 L 24 7.15625 L 24 3 Z M 11.90625 5 L 20.09375 5 C 20.039063 5.15625 20 5.328125 20 5.5 C 20 6.328125 20.671875 7 21.5 7 C 21.671875 7 21.84375 6.960938 22 6.90625 L 22 14.25 L 19.8125 15.875 C 19.324219 14.214844 17.816406 13 16 13 C 14.183594 13 12.675781 14.214844 12.1875 15.875 L 10 14.25 L 10 6.90625 C 10.15625 6.960938 10.328125 7 10.5 7 C 11.328125 7 12 6.328125 12 5.5 C 12 5.328125 11.960938 5.15625 11.90625 5 Z M 16 8.5 C 15.171875 8.5 14.5 9.171875 14.5 10 C 14.5 10.828125 15.171875 11.5 16 11.5 C 16.828125 11.5 17.5 10.828125 17.5 10 C 17.5 9.171875 16.828125 8.5 16 8.5 Z M 8 9.5625 L 8 12.75 L 5.75 11.0625 Z M 24 9.5625 L 26.25 11.0625 L 24 12.75 Z M 5 13 L 15.40625 20.8125 L 16 21.25 L 16.59375 20.8125 L 27 13 L 27 26 L 5 26 Z M 16 15 C 17.191406 15 18 15.808594 18 17 L 18 17.25 L 16 18.75 L 14 17.25 L 14 17 C 14 15.808594 14.808594 15 16 15 Z "></path>
</g>
</svg>
