<?xml version="1.0" encoding="UTF-8"?>
<svg xmlns="http://www.w3.org/2000/svg" xmlns:xlink="http://www.w3.org/1999/xlink" viewBox="0 0 32 32" version="1.1">
<g>
<path d="M 16 3 C 13 3 10.59375 4.09375 10.59375 4.09375 L 9.625 4.5 L 10.09375 5.4375 L 11.6875 8.59375 C 9.554688 9.851563 4 13.703125 4 20 C 4 22.953125 4.957031 25.195313 7.03125 26.4375 C 9.105469 27.679688 12.011719 28 16 28 C 19.988281 28 22.894531 27.679688 24.96875 26.4375 C 27.042969 25.195313 28 22.953125 28 20 C 28 15.890625 25.601563 12.8125 23.34375 10.8125 C 25.289063 11.601563 26.25 12.6875 26.25 12.6875 L 27.75 11.3125 C 27.75 11.3125 25.199219 8.617188 20.5625 8.09375 L 21.90625 5.4375 L 22.375 4.5 L 21.40625 4.09375 C 21.40625 4.09375 19 3 16 3 Z M 16 5 C 17.574219 5 18.765625 5.292969 19.59375 5.5625 L 18.375 8 L 13.625 8 L 12.40625 5.5625 C 13.234375 5.292969 14.425781 5 16 5 Z M 13.3125 10 L 18.6875 10 C 18.933594 10.128906 26 13.855469 26 20 C 26 22.570313 25.402344 23.839844 23.9375 24.71875 C 22.472656 25.597656 19.863281 26 16 26 C 12.136719 26 9.527344 25.597656 8.0625 24.71875 C 6.597656 23.839844 6 22.570313 6 20 C 6 13.855469 13.066406 10.128906 13.3125 10 Z M 11.15625 13 L 14.90625 18 L 13 18 L 13 20 L 15 20 L 15 21 L 13 21 L 13 23 L 15 23 L 15 24 L 17 24 L 17 23 L 19 23 L 19 21 L 17 21 L 17 20 L 19 20 L 19 18 L 17.25 18 L 21 13 L 18.625 13 L 16 16.3125 L 13.53125 13 Z "></path>
</g>
</svg>
