<?xml version="1.0" encoding="UTF-8"?>
<svg xmlns="http://www.w3.org/2000/svg" xmlns:xlink="http://www.w3.org/1999/xlink" viewBox="0 0 32 32" version="1.1">
<g>
<path d="M 16 4 C 10.84375 4 6.714844 7.980469 6.1875 13 L 3 13 L 3 19 L 4.09375 19 C 4.183594 19.964844 4.425781 21.519531 5.5 23.46875 C 7.015625 26.214844 10.210938 29 16 29 C 21.789063 29 24.984375 26.214844 26.5 23.46875 C 27.574219 21.519531 27.816406 19.964844 27.90625 19 L 29 19 L 29 13 L 25.8125 13 C 25.285156 7.980469 21.15625 4 16 4 Z M 16 6 C 20.429688 6 24 9.570313 24 14 L 24 15 L 22 15 L 22 17 L 19 17 L 19 15 L 13 15 L 13 17 L 10 17 L 10 15 L 8 15 L 8 14 C 8 9.570313 11.570313 6 16 6 Z M 16 6 C 14.894531 6 14 6.449219 14 7 C 14 7.550781 14.894531 8 16 8 C 17.105469 8 18 7.550781 18 7 C 18 6.449219 17.105469 6 16 6 Z M 11 9 C 11 9 10.539063 15.242188 15 12 Z M 21 9 L 17 12 C 21.460938 15.242188 21 9 21 9 Z M 5 15 L 7 15 L 7 18 L 9 18 L 9 22 L 13 22 L 13 19 L 19 19 L 19 22 L 23 22 L 23 18 L 25 18 L 25 15 L 27 15 L 27 17 L 26 17 L 26 18 C 26 18 25.992188 20.277344 24.75 22.53125 C 23.507813 24.785156 21.179688 27 16 27 C 10.820313 27 8.492188 24.785156 7.25 22.53125 C 6.007813 20.277344 6 18 6 18 L 6 17 L 5 17 Z "></path>
</g>
</svg>
