<?xml version="1.0" encoding="UTF-8"?>
<svg xmlns="http://www.w3.org/2000/svg" xmlns:xlink="http://www.w3.org/1999/xlink" viewBox="0 0 32 32" version="1.1">
<g>
<path d="M 8.46875 5 L 3.96875 22 L 6.035156 22 L 7.09375 18 L 11.882813 18 L 12.9375 22 L 15.003906 22 L 10.53125 5 Z M 16.933594 5 L 18.992188 22 L 21.027344 22 L 22.5 15.511719 L 23.972656 22 L 26.007813 22 L 28.066406 5 L 26.050781 5 L 24.699219 16.164063 L 23.527344 11 L 21.472656 11 L 20.300781 16.164063 L 18.949219 5 Z M 9.496094 8.921875 L 11.359375 16 L 7.625 16 Z M 4 24 L 4 27 L 15 27 L 15 24 L 13 24 L 13 25 L 6 25 L 6 24 Z M 17 24 L 17 27 L 28 27 L 28 24 L 26 24 L 26 25 L 19 25 L 19 24 Z "></path>
</g>
</svg>
