<?xml version="1.0" encoding="UTF-8"?>
<svg xmlns="http://www.w3.org/2000/svg" xmlns:xlink="http://www.w3.org/1999/xlink" viewBox="0 0 32 32" version="1.1">
<g>
<path d="M 15 4 L 15 6.1875 C 14.328125 6.429688 13.765625 6.90625 13.410156 7.515625 L 7.289063 6.910156 L 6.976563 7.917969 L 10.652344 20 L 5.355469 20 L 7.230469 13.902344 L 6.191406 10.480469 L 3.046875 20.703125 L 3 20.988281 C 3 21.078125 2.996094 23.191406 4.449219 24.65625 C 5.332031 25.546875 6.527344 26 8 26 C 9.472656 26 10.667969 25.546875 11.550781 24.65625 C 13.003906 23.191406 13 21.078125 13 20.988281 L 9.40625 9.171875 L 13.050781 9.496094 C 13.292969 10.90625 14.523438 12 16 12 C 17.113281 12 18.085938 11.371094 18.601563 10.457031 L 23.21875 10.894531 L 26.644531 22 L 21.355469 22 L 23.203125 15.988281 L 22.160156 12.574219 L 19.046875 22.703125 L 19 22.988281 C 19 23.078125 18.996094 25.191406 20.449219 26.65625 C 21.332031 27.546875 22.527344 28 24 28 C 25.472656 28 26.667969 27.546875 27.550781 26.65625 C 29.003906 25.191406 29 23.078125 29 22.988281 L 24.765625 9.085938 L 18.949219 8.488281 C 18.761719 7.421875 18 6.546875 17 6.1875 L 17 4 Z M 16 8 C 16.5625 8 17 8.4375 17 9 C 17 9.5625 16.5625 10 16 10 C 15.4375 10 15 9.5625 15 9 C 15 8.4375 15.4375 8 16 8 Z M 5.148438 22 L 10.847656 22 C 10.59375 22.890625 9.902344 24 8 24 C 6.097656 24 5.40625 22.886719 5.148438 22 Z M 21.152344 24 L 26.847656 24 C 26.59375 24.890625 25.902344 26 24 26 C 22.097656 26 21.40625 24.886719 21.152344 24 Z "></path>
</g>
</svg>
