<?xml version="1.0" encoding="UTF-8"?>
<svg xmlns="http://www.w3.org/2000/svg" xmlns:xlink="http://www.w3.org/1999/xlink" viewBox="0 0 32 32" version="1.1">
<g>
<path d="M 24 3.59375 L 23.28125 4.28125 L 5.28125 22.28125 L 4.59375 23 L 5.28125 23.71875 L 7.5625 26 L 4 26 L 4 28 L 14 28 L 14 26 L 10.4375 26 L 16.125 20.3125 C 16.640625 20.734375 17.289063 21 18 21 C 18.425781 21 18.820313 20.882813 19.1875 20.71875 L 23.8125 26 L 23 26 L 23 28 L 28 28 L 28 26 L 26.4375 26 L 20.65625 19.375 C 20.871094 18.960938 21 18.496094 21 18 C 21 17.289063 20.734375 16.640625 20.3125 16.125 L 27.71875 8.71875 L 28.40625 8 L 27.71875 7.28125 L 24.71875 4.28125 Z M 24 6.4375 L 25.5625 8 L 18.5 15.0625 C 18.335938 15.035156 18.171875 15 18 15 C 16.355469 15 15 16.355469 15 18 C 15 18.171875 15.035156 18.335938 15.0625 18.5 L 14 19.5625 L 12.4375 18 Z M 18 17 C 18.5625 17 19 17.4375 19 18 C 19 18.5625 18.5625 19 18 19 C 17.4375 19 17 18.5625 17 18 C 17 17.4375 17.4375 17 18 17 Z M 11 19.4375 L 12.5625 21 L 9 24.5625 L 7.4375 23 Z "></path>
</g>
</svg>
