<?xml version="1.0" encoding="UTF-8"?>
<svg xmlns="http://www.w3.org/2000/svg" xmlns:xlink="http://www.w3.org/1999/xlink" viewBox="0 0 32 32" version="1.1">
<g>
<path d="M 13 3 L 13 5 L 3 5 L 3 29 L 29 29 L 29 5 L 25 5 L 25 3 L 17 3 L 17 5 L 16 5 L 16 3 Z M 19 5 L 23 5 L 23 7 L 19 7 Z M 5 7 L 13 7 L 13 9 L 16 9 L 16 7 L 17 7 L 17 9 L 25 9 L 25 7 L 27 7 L 27 27 L 5 27 Z M 7 11 L 7 21 L 13 21 L 13 11 Z M 15 11 L 15 21 L 25 21 L 25 11 Z M 9 13 L 11 13 L 11 19 L 9 19 Z M 17 13 L 23 13 L 23 19 L 17 19 Z M 19 15 L 19 17 L 21 17 L 21 15 Z M 7 23 L 7 25 L 21 25 L 21 23 Z M 24 23 C 23.449219 23 23 23.449219 23 24 C 23 24.550781 23.449219 25 24 25 C 24.550781 25 25 24.550781 25 24 C 25 23.449219 24.550781 23 24 23 Z "></path>
</g>
</svg>
