<?xml version="1.0" encoding="UTF-8"?>
<svg xmlns="http://www.w3.org/2000/svg" xmlns:xlink="http://www.w3.org/1999/xlink" viewBox="0 0 32 32" version="1.1">
<g>
<path d="M 10 4 C 7.800781 4 6 5.800781 6 8 C 6 9.113281 6.476563 10.117188 7.21875 10.84375 C 5.886719 11.746094 5 13.285156 5 15 L 5 20.625 L 7 21.625 L 7 28 L 13 28 L 13 21.625 L 15 20.625 L 15 15 C 15 13.285156 14.113281 11.746094 12.78125 10.84375 C 13.523438 10.117188 14 9.113281 14 8 C 14 5.800781 12.199219 4 10 4 Z M 14.40625 4 C 15.40625 5.101563 16 6.5 16 8 C 16 8.898438 15.804688 9.792969 15.40625 10.59375 C 16.40625 11.792969 17 13.398438 17 15 L 17 21.90625 L 15 22.90625 L 15 28 L 17 28 L 17 24.09375 L 19 23.09375 L 19 15 C 19 13.300781 18.488281 11.710938 17.6875 10.3125 C 17.886719 9.613281 18 8.800781 18 8 C 18 6.5 17.605469 5.199219 16.90625 4 Z M 19.1875 4 C 19.6875 5.300781 20 6.601563 20 8 C 20 8.699219 19.914063 9.398438 19.8125 10 C 20.613281 11.5 21 13.300781 21 15 L 21 24.3125 L 19 25.3125 L 19 28 L 21 28 L 21 26.59375 L 23 25.59375 L 23 15 C 23 13.199219 22.605469 11.386719 21.90625 9.6875 C 22.007813 9.1875 22 8.601563 22 8 C 22 6.601563 21.710938 5.300781 21.3125 4 Z M 23.40625 4 C 23.804688 5.300781 24 6.699219 24 8 C 24 8.5 24.007813 9.007813 23.90625 9.40625 C 24.605469 11.207031 25 13.101563 25 15 L 25 26.8125 L 23 27.8125 L 23 28 L 27 28 L 27 15 C 27 13 26.601563 10.988281 26 9.1875 L 26 8 C 26 6.699219 25.800781 5.300781 25.5 4 Z M 10 6 C 11.117188 6 12 6.882813 12 8 C 12 9.117188 11.117188 10 10 10 C 8.882813 10 8 9.117188 8 8 C 8 6.882813 8.882813 6 10 6 Z M 10 12 C 11.65625 12 13 13.34375 13 15 L 13 19.375 L 11 20.375 L 11 26 L 9 26 L 9 20.375 L 7 19.375 L 7 15 C 7 13.34375 8.34375 12 10 12 Z "></path>
</g>
</svg>
