<?xml version="1.0" encoding="UTF-8"?>
<svg xmlns="http://www.w3.org/2000/svg" xmlns:xlink="http://www.w3.org/1999/xlink" viewBox="0 0 32 32" version="1.1">
<g>
<path d="M 16 4 C 10.488281 4 6 8.488281 6 14 L 6 18 C 6 23.511719 10.488281 28 16 28 C 21.511719 28 26 23.511719 26 18 L 26 14 C 26 8.488281 21.511719 4 16 4 Z M 16 6 C 20.089844 6 23.445313 9.046875 23.9375 13 L 8.0625 13 C 8.554688 9.046875 11.910156 6 16 6 Z M 15 7 L 15 12 L 17 12 L 17 7 Z M 8 15 L 24 15 L 24 18 C 24 22.429688 20.429688 26 16 26 C 11.570313 26 8 22.429688 8 18 Z "></path>
</g>
</svg>
