<?xml version="1.0" encoding="UTF-8"?>
<svg xmlns="http://www.w3.org/2000/svg" xmlns:xlink="http://www.w3.org/1999/xlink" viewBox="0 0 32 32" version="1.1">
<g>
<path d="M 7 4 C 5.355469 4 4 5.355469 4 7 L 4 14 L 6 14 L 6 7 C 6 6.445313 6.445313 6 7 6 L 25 6 C 25.554688 6 26 6.445313 26 7 L 26 14 L 28 14 L 28 7 C 28 5.355469 26.644531 4 25 4 Z M 8 12 L 7 16 L 9 16 L 10 12 Z M 11.8125 12 L 10.8125 16 L 12.8125 16 L 13.8125 12 Z M 15.5 12 L 14.5 16 L 16.5 16 L 17.5 12 Z M 19.1875 12 L 18.1875 16 L 20.1875 16 L 21.1875 12 Z M 23 12 L 22 16 L 24 16 L 25 12 Z M 9 19 L 9 27 L 16.90625 27 L 17.1875 26.4375 C 17.289063 26.234375 17.679688 26 18 26 C 18.320313 26 18.710938 26.234375 18.8125 26.4375 L 19.09375 27 L 23 27 L 23 19 Z M 11 21 L 21 21 L 21 25 L 20.0625 25 C 19.515625 24.414063 18.816406 24 18 24 C 17.183594 24 16.484375 24.414063 15.9375 25 L 11 25 Z M 14 22 C 13.449219 22 13 22.449219 13 23 C 13 23.550781 13.449219 24 14 24 C 14.550781 24 15 23.550781 15 23 C 15 22.449219 14.550781 22 14 22 Z "></path>
</g>
</svg>
