<?xml version="1.0" encoding="UTF-8"?>
<svg xmlns="http://www.w3.org/2000/svg" xmlns:xlink="http://www.w3.org/1999/xlink" viewBox="0 0 32 32" version="1.1">
<g>
<path d="M 16 4 C 10.488281 4 6 8.488281 6 14 L 6 18 C 6 23.511719 10.488281 28 16 28 C 21.511719 28 26 23.511719 26 18 L 26 14 C 26 8.488281 21.511719 4 16 4 Z M 15 6.0625 L 15 13 L 8.0625 13 C 8.515625 9.375 11.375 6.515625 15 6.0625 Z M 17 6.0625 C 18.03125 6.191406 19.003906 6.519531 19.875 7 L 17 7 Z M 17 9 L 22.25 9 C 22.5 9.3125 22.703125 9.652344 22.90625 10 L 17 10 Z M 17 12 L 23.75 12 C 23.832031 12.324219 23.894531 12.660156 23.9375 13 L 17 13 Z M 8 15 L 24 15 L 24 18 C 24 22.429688 20.429688 26 16 26 C 11.570313 26 8 22.429688 8 18 Z "></path>
</g>
</svg>
