<?xml version="1.0" encoding="UTF-8"?>
<svg xmlns="http://www.w3.org/2000/svg" xmlns:xlink="http://www.w3.org/1999/xlink" viewBox="0 0 32 32" version="1.1">
<g>
<path d="M 16 4 C 10.488281 4 6 8.488281 6 14 L 6 18 C 6 23.511719 10.488281 28 16 28 C 21.511719 28 26 23.511719 26 18 L 26 14 C 26 8.488281 21.511719 4 16 4 Z M 16 6 C 20.429688 6 24 9.570313 24 14 L 24 18 C 24 22.429688 20.429688 26 16 26 C 11.570313 26 8 22.429688 8 18 L 8 14 C 8 9.570313 11.570313 6 16 6 Z M 16 7.5 L 13.5 10 L 15 10 L 15 13 L 13.5 13 L 16 15.5 L 18.5 13 L 17 13 L 17 10 L 18.5 10 Z "></path>
</g>
</svg>
