<?xml version="1.0" encoding="UTF-8"?>
<svg xmlns="http://www.w3.org/2000/svg" xmlns:xlink="http://www.w3.org/1999/xlink" viewBox="0 0 32 32" version="1.1">
<g>
<path d="M 5 5 L 5 27 L 27 27 L 27 21 L 25 23 L 25 25 L 7 25 L 7 7 L 25 7 L 25 9 L 27 11 L 27 5 Z M 13.3125 9 C 12.761719 9.050781 12.355469 9.542969 12.40625 10.09375 C 12.457031 10.644531 12.949219 11.050781 13.5 11 L 18.5 11 C 18.859375 11.003906 19.195313 10.816406 19.378906 10.503906 C 19.558594 10.191406 19.558594 9.808594 19.378906 9.496094 C 19.195313 9.183594 18.859375 8.996094 18.5 9 L 13.5 9 C 13.46875 9 13.4375 9 13.40625 9 C 13.375 9 13.34375 9 13.3125 9 Z M 24.21875 10.78125 L 22.78125 12.21875 L 25.5625 15 L 17 15 L 17 17 L 25.5625 17 L 22.78125 19.78125 L 24.21875 21.21875 L 28.71875 16.71875 L 29.40625 16 L 28.71875 15.28125 Z "></path>
</g>
</svg>
