<?xml version="1.0" encoding="UTF-8"?>
<svg xmlns="http://www.w3.org/2000/svg" xmlns:xlink="http://www.w3.org/1999/xlink" viewBox="0 0 32 32" version="1.1">
<g>
<path d="M 15.875 4 L 15.78125 4.03125 L 4.78125 6.46875 L 4 6.65625 L 4 25.34375 L 4.78125 25.53125 L 15.78125 27.96875 L 15.875 28 L 18 28 L 18 19 L 20.28125 19 C 20.566406 18.203125 21.070313 17.519531 21.71875 17 L 18 17 L 18 12.09375 L 20.40625 13.8125 L 21.0625 14.25 L 21.65625 13.78125 L 26 10.15625 L 26 16.28125 C 26.796875 16.566406 27.480469 17.070313 28 17.71875 L 28 7 L 18 7 L 18 4 Z M 16 6.03125 L 16 25.96875 L 6 23.78125 L 6 8.21875 Z M 18 9 L 24.25 9 L 20.96875 11.71875 L 18 9.625 Z M 10.59375 11 C 9.515625 11 8.625 11.464844 7.96875 12.40625 C 7.3125 13.351563 7 14.597656 7 16.125 C 7 17.570313 7.324219 18.753906 7.96875 19.65625 C 8.613281 20.558594 9.445313 21 10.46875 21 C 11.519531 21 12.378906 20.523438 13.03125 19.59375 C 13.683594 18.664063 14 17.457031 14 15.9375 C 14 14.457031 13.691406 13.246094 13.0625 12.34375 C 12.433594 11.441406 11.613281 11 10.59375 11 Z M 10.53125 13 C 10.984375 13 11.332031 13.277344 11.59375 13.8125 C 11.855469 14.347656 12 15.097656 12 16.0625 C 12 16.988281 11.863281 17.699219 11.59375 18.21875 C 11.324219 18.738281 10.960938 19 10.5 19 C 10.054688 19 9.683594 18.722656 9.40625 18.1875 C 9.128906 17.652344 9 16.921875 9 16 C 9 15.09375 9.128906 14.363281 9.40625 13.8125 C 9.683594 13.261719 10.0625 13 10.53125 13 Z M 24.5 17 C 22.570313 17 21 18.570313 21 20.5 C 21 22.429688 22.570313 24 24.5 24 C 26.429688 24 28 22.429688 28 20.5 C 28 18.570313 26.429688 17 24.5 17 Z M 24 18 L 25 18 L 25 20 L 27 20 L 27 21 L 24 21 Z "></path>
</g>
</svg>
