<?xml version="1.0" encoding="UTF-8"?>
<svg xmlns="http://www.w3.org/2000/svg" xmlns:xlink="http://www.w3.org/1999/xlink" viewBox="0 0 32 32" version="1.1">
<g>
<path d="M 15.90625 4 L 15.8125 4.03125 L 4.8125 6.03125 L 4 6.15625 L 4 25.84375 L 4.8125 25.96875 L 15.8125 27.96875 L 15.90625 28 L 18 28 L 18 26 L 28 26 L 28 7 L 18 7 L 18 4 Z M 16 6 L 16 26 L 6 24.1875 L 6 7.8125 Z M 18 9 L 26 9 L 26 24 L 18 24 L 18 22.65625 L 20.65625 20 L 18 17.34375 L 18 13 L 21 13 L 21 16 L 19.5 16 L 22 18.5 L 24.5 16 L 23 16 L 23 11 L 18 11 Z M 11.3125 11.40625 C 11.160156 11.40625 10.984375 11.421875 10.8125 11.4375 L 8 11.75 L 8 20.1875 L 9.8125 20.40625 L 9.78125 17.34375 L 10.6875 17.40625 C 13.15625 17.5625 13.9375 15.390625 13.9375 14.3125 C 13.9375 13.300781 13.621094 11.433594 11.3125 11.40625 Z M 10.5 13.03125 C 11.558594 12.949219 12.117188 13.375 12.125 14.34375 C 12.132813 15.332031 11.59375 15.839844 10.53125 15.84375 L 9.78125 15.84375 L 9.75 13.09375 Z "></path>
</g>
</svg>
