<?xml version="1.0" encoding="UTF-8"?>
<svg xmlns="http://www.w3.org/2000/svg" xmlns:xlink="http://www.w3.org/1999/xlink" viewBox="0 0 32 32" version="1.1">
<g>
<path d="M 15.875 4 L 15.78125 4.03125 L 4.78125 6.46875 L 4 6.65625 L 4 25.34375 L 4.78125 25.53125 L 15.78125 27.96875 L 15.875 28 L 18 28 L 18 25 L 28 25 L 28 7 L 18 7 L 18 4 Z M 16 6.03125 L 16 25.96875 L 6 23.78125 L 6 8.21875 Z M 18 9 L 26 9 L 26 23 L 18 23 L 18 22 L 24 22 L 24 20 L 18 20 L 18 18.4375 C 18.589844 18.78125 19.269531 19 20 19 C 22.210938 19 24 17.210938 24 15 L 20 15 L 20 11 C 19.269531 11 18.589844 11.21875 18 11.5625 Z M 21 10 L 21 14 L 25 14 C 25 11.789063 23.210938 10 21 10 Z M 11.3125 11.40625 C 11.160156 11.40625 10.984375 11.421875 10.8125 11.4375 L 8 11.75 L 8 20.1875 L 9.8125 20.40625 L 9.78125 17.34375 L 10.6875 17.40625 C 13.15625 17.5625 13.9375 15.390625 13.9375 14.3125 C 13.9375 13.300781 13.621094 11.433594 11.3125 11.40625 Z M 10.5 13.03125 C 11.558594 12.949219 12.117188 13.375 12.125 14.34375 C 12.132813 15.332031 11.59375 15.839844 10.53125 15.84375 L 9.78125 15.84375 L 9.75 13.09375 Z "></path>
</g>
</svg>
