<?xml version="1.0" encoding="UTF-8"?>
<svg xmlns="http://www.w3.org/2000/svg" xmlns:xlink="http://www.w3.org/1999/xlink" viewBox="0 0 32 32" version="1.1">
<g>
<path d="M 10.5 4 L 10.1875 4.40625 L 9 6 L 3 6 L 3 21 L 7 21 L 7 28 L 29 28 L 29 13 L 25 13 L 25 6 L 19 6 L 17.8125 4.40625 L 17.5 4 Z M 11.5 6 L 16.5 6 L 17.6875 7.59375 L 18 8 L 23 8 L 23 13 L 21.8125 11.40625 L 21.5 11 L 18.625 11 C 17.867188 9.238281 16.0625 8 14 8 C 11.253906 8 9 10.253906 9 13 L 7 13 L 7 19 L 5 19 L 5 8 L 10 8 L 10.3125 7.59375 Z M 7 9 C 6.449219 9 6 9.449219 6 10 C 6 10.550781 6.449219 11 7 11 C 7.550781 11 8 10.550781 8 10 C 8 9.449219 7.550781 9 7 9 Z M 14 10 C 14.917969 10 15.730469 10.390625 16.28125 11 L 14.5 11 L 14.1875 11.40625 L 13 13 L 11 13 C 11 11.34375 12.34375 10 14 10 Z M 15.5 13 L 20.5 13 L 21.6875 14.59375 L 22 15 L 27 15 L 27 26 L 9 26 L 9 15 L 14 15 L 14.3125 14.59375 Z M 18 15 C 15.25 15 13 17.25 13 20 C 13 22.75 15.25 25 18 25 C 20.75 25 23 22.75 23 20 C 23 17.25 20.75 15 18 15 Z M 11 16 C 10.449219 16 10 16.449219 10 17 C 10 17.550781 10.449219 18 11 18 C 11.550781 18 12 17.550781 12 17 C 12 16.449219 11.550781 16 11 16 Z M 18 17 C 19.667969 17 21 18.332031 21 20 C 21 21.667969 19.667969 23 18 23 C 16.332031 23 15 21.667969 15 20 C 15 18.332031 16.332031 17 18 17 Z "></path>
</g>
</svg>
