<?xml version="1.0" encoding="UTF-8"?>
<svg xmlns="http://www.w3.org/2000/svg" xmlns:xlink="http://www.w3.org/1999/xlink" viewBox="0 0 32 32" version="1.1">
<g>
<path d="M 15 4 L 15 11.0625 L 12.71875 8.78125 L 11.28125 10.21875 L 15.28125 14.21875 L 16 14.90625 L 16.71875 14.21875 L 20.71875 10.21875 L 19.28125 8.78125 L 17 11.0625 L 17 4 Z M 3 11 L 3 13 L 6 13 C 6.554688 13 7 13.445313 7 14 L 7 18.0625 L 4.71875 15.78125 L 3.28125 17.21875 L 7.28125 21.21875 L 8 21.90625 L 8.71875 21.21875 L 12.71875 17.21875 L 11.28125 15.78125 L 9 18.0625 L 9 14 C 9 12.355469 7.644531 11 6 11 Z M 26 11 C 24.355469 11 23 12.355469 23 14 L 23 18.0625 L 20.71875 15.78125 L 19.28125 17.21875 L 23.28125 21.21875 L 24 21.90625 L 24.71875 21.21875 L 28.71875 17.21875 L 27.28125 15.78125 L 25 18.0625 L 25 14 C 25 13.445313 25.445313 13 26 13 L 29 13 L 29 11 Z M 3 22 L 3 27 L 29 27 L 29 22 L 27 22 L 27 25 L 5 25 L 5 22 Z "></path>
</g>
</svg>
