<?xml version="1.0" encoding="UTF-8"?>
<svg xmlns="http://www.w3.org/2000/svg" xmlns:xlink="http://www.w3.org/1999/xlink" viewBox="0 0 32 32" version="1.1">
<g>
<path d="M 15.53125 4.03125 C 14.296875 4.03125 13.328125 4.726563 12.625 5.625 C 12.035156 5.289063 11.382813 5.0625 10.65625 5.0625 C 8.609375 5.0625 6.957031 6.617188 6.75 8.59375 C 5.203125 8.949219 4 10.238281 4 11.875 C 4 13.785156 5.613281 15.3125 7.53125 15.3125 C 8.246094 15.3125 8.851563 15.050781 9.40625 14.6875 C 9.730469 15.007813 10.105469 15.273438 10.5 15.5 L 10.40625 15.625 C 10.40625 15.625 12.484375 17.039063 12.90625 19.96875 C 12.34375 20.09375 11.816406 20.21875 11.375 20.4375 C 11.027344 20.609375 10.703125 20.835938 10.4375 21.125 C 10.171875 21.414063 9.96875 21.804688 9.96875 22.28125 C 9.96875 22.917969 10.324219 23.433594 10.71875 23.75 C 11.113281 24.066406 11.597656 24.257813 12.125 24.4375 C 12.175781 24.453125 12.230469 24.484375 12.28125 24.5 C 11.929688 24.949219 11.484375 25.238281 11.03125 25.46875 C 10.019531 25.984375 9 26 9 26 L 9 28 C 9 28 10.480469 28.007813 11.96875 27.25 C 12.839844 26.804688 13.722656 26.039063 14.3125 24.90625 C 14.847656 24.96875 15.410156 25 16 25 C 16.589844 25 17.152344 24.96875 17.6875 24.90625 C 18.277344 26.039063 19.160156 26.804688 20.03125 27.25 C 21.519531 28.007813 23 28 23 28 L 23 26 C 23 26 21.980469 25.984375 20.96875 25.46875 C 20.515625 25.238281 20.070313 24.949219 19.71875 24.5 C 19.769531 24.484375 19.824219 24.453125 19.875 24.4375 C 20.402344 24.257813 20.886719 24.066406 21.28125 23.75 C 21.675781 23.433594 22.03125 22.917969 22.03125 22.28125 C 22.03125 21.792969 21.808594 21.386719 21.53125 21.09375 C 21.253906 20.800781 20.921875 20.582031 20.5625 20.40625 C 20.132813 20.199219 19.636719 20.027344 19.09375 19.90625 C 19.558594 17.113281 21.6875 16.03125 21.6875 16.03125 L 21.65625 15.9375 C 22.558594 15.746094 23.308594 15.210938 23.875 14.5 C 26.128906 14.5 28 12.703125 28 10.46875 C 28 8.234375 26.132813 6.4375 23.875 6.4375 C 23.582031 6.4375 23.308594 6.535156 23.03125 6.59375 C 22.304688 5.5625 21.234375 4.8125 19.875 4.8125 C 19.261719 4.8125 18.765625 5.101563 18.25 5.34375 C 17.546875 4.59375 16.648438 4.03125 15.53125 4.03125 Z M 15.53125 6.03125 C 16.238281 6.03125 16.8125 6.429688 17.125 6.96875 L 17.71875 7.9375 L 18.59375 7.25 C 18.945313 6.976563 19.398438 6.8125 19.875 6.8125 C 20.746094 6.8125 21.4375 7.324219 21.71875 8.03125 L 22.09375 8.96875 L 23.03125 8.59375 C 23.289063 8.488281 23.578125 8.4375 23.875 8.4375 C 25.085938 8.4375 26 9.347656 26 10.46875 C 26 11.585938 25.082031 12.5 23.875 12.5 C 23.878906 12.5 23.796875 12.488281 23.625 12.46875 L 22.9375 12.40625 L 22.625 13.03125 C 22.332031 13.621094 21.722656 14.03125 20.96875 14.03125 C 20.28125 14.03125 19.695313 13.703125 19.375 13.1875 L 18.84375 12.34375 L 18 12.84375 C 17.660156 13.050781 17.292969 13.15625 16.875 13.15625 C 16.414063 13.15625 15.976563 13.019531 15.625 12.78125 L 14.8125 12.25 L 14.25 13.0625 C 13.84375 13.640625 13.148438 14.03125 12.34375 14.03125 C 11.472656 14.03125 10.734375 13.542969 10.34375 12.875 L 9.625 11.65625 L 8.71875 12.75 C 8.4375 13.09375 8.023438 13.3125 7.53125 13.3125 C 6.660156 13.3125 6 12.667969 6 11.875 C 6 11.082031 6.660156 10.4375 7.53125 10.4375 C 7.433594 10.4375 7.449219 10.429688 7.625 10.4375 L 8.875 10.5 L 8.6875 9.28125 C 8.664063 9.140625 8.65625 9.039063 8.65625 8.96875 C 8.65625 7.921875 9.519531 7.0625 10.65625 7.0625 C 11.238281 7.0625 11.726563 7.28125 12.09375 7.65625 L 13.25 8.84375 L 13.78125 7.28125 C 14.011719 6.574219 14.683594 6.03125 15.53125 6.03125 Z M 18.28125 14.78125 C 18.5625 15.070313 18.875 15.324219 19.21875 15.53125 C 18.183594 16.613281 17 18.394531 17 21 L 17 21.9375 C 17 22.292969 17.015625 22.648438 17.0625 22.96875 C 16.71875 22.996094 16.371094 23 16 23 C 15.628906 23 15.28125 22.996094 14.9375 22.96875 C 14.984375 22.648438 15 22.292969 15 21.9375 L 15 21 C 15 18.765625 14.183594 17.054688 13.34375 15.875 C 13.960938 15.695313 14.519531 15.351563 15 14.9375 L 15 18 L 17 18 L 17 15.15625 C 17.464844 15.128906 17.859375 14.941406 18.28125 14.78125 Z M 19 21.96875 C 19.257813 22.046875 19.515625 22.136719 19.6875 22.21875 C 19.753906 22.25 19.761719 22.25 19.8125 22.28125 C 19.667969 22.367188 19.527344 22.46875 19.25 22.5625 C 19.1875 22.585938 19.101563 22.605469 19.03125 22.625 C 19.007813 22.417969 19 22.207031 19 21.96875 Z M 13 22 C 12.996094 22.226563 12.992188 22.425781 12.96875 22.625 C 12.898438 22.605469 12.8125 22.585938 12.75 22.5625 C 12.476563 22.46875 12.332031 22.398438 12.1875 22.3125 C 12.226563 22.289063 12.230469 22.277344 12.28125 22.25 C 12.460938 22.160156 12.710938 22.085938 13 22 Z "></path>
</g>
</svg>
