<?xml version="1.0"?>
<svg xmlns="http://www.w3.org/2000/svg" viewBox="0 0 32 32">
    <path d="M 18.486328 1.0546875 C 17.90163 1.0690953 17.305781 1.1358466 16.705078 1.2578125 C 13.692078 1.869894 11.303782 3.7266107 10.388672 6.1054688 C 6.0400189 8.0643441 3 12.43006 3 17.5 C 3 24.391492 8.6085077 30 15.5 30 C 19.305581 30 22.715039 28.283935 25.009766 25.591797 L 30 27.464844 L 26.300781 23.763672 C 27.374583 21.919504 28 19.783055 28 17.5 C 28 16.13622 27.76996 14.824594 27.365234 13.59375 C 28.13741 13.12916 28.819477 12.571299 29.375 11.933594 C 30.591272 10.537391 31.230143 8.7321891 30.863281 6.9257812 C 30.49642 5.1193735 29.203621 3.7076228 27.539062 2.8964844 C 26.189998 2.2390852 24.580764 1.9550248 22.896484 2.0957031 C 22.087536 1.6431269 21.177097 1.3216711 20.197266 1.1660156 C 19.644574 1.0782154 19.071026 1.0402797 18.486328 1.0546875 z M 18.533203 3.0585938 C 18.790119 3.0529912 19.041749 3.0630364 19.289062 3.0820312 C 18.251777 3.5910341 17.352944 4.2639043 16.644531 5.0585938 C 16.266701 5.0242528 15.886475 5 15.5 5 C 14.757292 5 14.033662 5.0763037 13.326172 5.2011719 C 14.225915 4.2857481 15.533757 3.5376415 17.103516 3.21875 C 17.588813 3.1202159 18.067468 3.06875 18.533203 3.0585938 z M 23.363281 4.0625 C 24.598368 4.0078182 25.744818 4.2463637 26.662109 4.6933594 C 27.885164 5.2893537 28.675862 6.2090357 28.902344 7.3242188 C 29.128825 8.4394018 28.758906 9.5932634 27.865234 10.619141 C 26.971564 11.645019 25.557113 12.49191 23.853516 12.837891 C 22.149917 13.183873 20.517977 12.95537 19.294922 12.359375 C 18.071867 11.763381 17.281169 10.845652 17.054688 9.7304688 C 16.828207 8.6152855 17.198126 7.4594715 18.091797 6.4335938 C 18.985467 5.4077163 20.399918 4.5647318 22.103516 4.21875 C 22.529415 4.1322546 22.951586 4.0807273 23.363281 4.0625 z M 15.419922 7.0039062 C 15.019337 7.9886748 14.876192 9.0576622 15.09375 10.128906 C 15.460611 11.935314 16.753411 13.347064 18.417969 14.158203 C 19.387318 14.630566 20.492965 14.908178 21.662109 14.978516 C 21.662109 14.978516 21.660156 14.980469 21.660156 14.980469 C 21.880156 16.100469 22 17.28 22 18.5 C 22 20.94 21.519219 23.220625 20.699219 25.140625 C 22.729219 23.220625 24 20.51 24 17.5 C 24 16.62 23.889922 15.750391 23.669922 14.900391 C 23.66093 14.901515 23.64815 14.896063 23.638672 14.896484 C 23.842812 14.86763 24.046552 14.83859 24.251953 14.796875 C 24.699038 14.706077 25.128484 14.582717 25.544922 14.439453 C 25.839501 15.407132 26 16.432819 26 17.5 C 26 23.310508 21.310508 28 15.5 28 C 9.6894923 28 5 23.310508 5 17.5 C 5 11.716512 9.6468881 7.0472404 15.419922 7.0039062 z M 11.5 13 C 9.0265633 13 7 15.026563 7 17.5 C 7 19.973437 9.0265633 22 11.5 22 C 13.973437 22 16 19.973437 16 17.5 C 16 15.026563 13.973437 13 11.5 13 z M 11.5 15 C 12.892557 15 14 16.107443 14 17.5 C 14 18.892557 12.892557 20 11.5 20 C 10.107443 20 9 18.892557 9 17.5 C 9 16.107443 10.107443 15 11.5 15 z" font-weight="400" font-family="sans-serif" white-space="normal" overflow="visible"></path>
</svg>
