<?xml version="1.0" encoding="UTF-8"?>
<svg xmlns="http://www.w3.org/2000/svg" xmlns:xlink="http://www.w3.org/1999/xlink" viewBox="0 0 32 32" version="1.1">
<g>
<path d="M 16 4 C 13.800781 4 12 5.800781 12 8 C 12 10.199219 13.800781 12 16 12 C 18.199219 12 20 10.199219 20 8 C 20 5.800781 18.199219 4 16 4 Z M 16 6 C 17.117188 6 18 6.882813 18 8 C 18 9.117188 17.117188 10 16 10 C 14.882813 10 14 9.117188 14 8 C 14 6.882813 14.882813 6 16 6 Z M 23.46875 6.8125 L 22.53125 7.1875 L 24.46875 12.34375 L 22.8125 14.59375 L 20.125 12.59375 C 19.605469 12.203125 18.992188 12 18.34375 12 L 16.8125 12 L 16.5625 12.65625 L 16 14.15625 L 15.4375 12.65625 L 15.1875 12 L 13.65625 12 C 13.007813 12 12.394531 12.203125 11.875 12.59375 L 9.1875 14.59375 L 6.8125 11.40625 L 5.1875 12.59375 L 7.9375 16.28125 C 8.398438 16.898438 9.320313 17.023438 9.9375 16.5625 L 11 15.75 L 11 23 L 13 23 L 13 28 L 19 28 L 19 23 L 21 23 L 21 15.75 L 22.0625 16.5625 C 22.679688 17.023438 23.601563 16.898438 24.0625 16.28125 L 25.3125 14.59375 L 25.53125 15.15625 L 26.46875 14.8125 L 26.03125 13.65625 L 26.8125 12.59375 L 25.1875 11.40625 Z M 13.65625 14 L 13.8125 14 L 15.0625 17.34375 L 16 19.84375 L 16.9375 17.34375 L 18.1875 14 L 18.34375 14 C 18.5625 14 18.765625 14.058594 18.9375 14.1875 L 19 14.25 L 19 21 L 17 21 L 17 26 L 15 26 L 15 21 L 13 21 L 13 14.25 L 13.0625 14.1875 C 13.234375 14.058594 13.4375 14 13.65625 14 Z "></path>
</g>
</svg>
