<?xml version="1.0" encoding="UTF-8"?>
<svg xmlns="http://www.w3.org/2000/svg" xmlns:xlink="http://www.w3.org/1999/xlink" viewBox="0 0 32 32" version="1.1">
<g>
<path d="M 4 7 L 4 23 L 28 23 L 28 7 Z M 6 9 L 26 9 L 26 21 L 6 21 Z M 16 10.0625 L 16 15.0625 C 15.835938 15.027344 15.671875 15 15.5 15 C 14.121094 15 13 16.121094 13 17.5 C 13 18.878906 14.121094 20 15.5 20 C 16.878906 20 18 18.878906 18 17.5 C 18 17.382813 17.984375 17.269531 17.96875 17.15625 L 18 17.15625 L 18 12.6875 L 19.4375 13.09375 L 19.96875 11.15625 L 17.28125 10.40625 Z M 10 24 L 10 26 L 22 26 L 22 24 Z "></path>
</g>
</svg>
