<?xml version="1.0" encoding="UTF-8"?>
<svg xmlns="http://www.w3.org/2000/svg" xmlns:xlink="http://www.w3.org/1999/xlink" viewBox="0 0 32 32" version="1.1">
<g>
<path d="M 13.6875 10 C 11.367188 10 9.816406 11.285156 8.90625 12.5625 C 8.339844 13.332031 7.90625 14.277344 7.375 15.09375 C 6.84375 15.910156 6.269531 16.519531 5.6875 16.71875 L 5.65625 16.71875 C 3.992188 17.359375 3.40625 16.871094 3.125 16.34375 C 2.84375 15.816406 2.964844 15.191406 3.4375 14.96875 L 4 14.71875 L 4 13 L 3 13 C 2.820313 13 2.730469 13.15625 2.5625 13.1875 C 2.058594 13.285156 1.546875 13.390625 1.21875 13.6875 C 0.78125 14.085938 0.511719 14.566406 0.34375 15 C 0.0078125 15.867188 0 16.65625 0 16.65625 L 0 16.6875 C 0 17.890625 0.382813 19.339844 1.625 20.375 C 2.867188 21.410156 4.824219 22 7.75 22 C 10.707031 22 13.910156 21.242188 16 19.28125 C 18.089844 21.242188 21.292969 22 24.25 22 C 27.175781 22 29.132813 21.410156 30.375 20.375 C 31.617188 19.339844 32 17.890625 32 16.6875 L 32 16.65625 C 32 16.65625 31.992188 15.867188 31.65625 15 C 31.488281 14.566406 31.21875 14.085938 30.78125 13.6875 C 30.453125 13.390625 29.941406 13.285156 29.4375 13.1875 C 29.269531 13.15625 29.179688 13 29 13 L 28 13 L 28 14.71875 L 28.5625 14.96875 C 29.035156 15.191406 29.15625 15.816406 28.875 16.34375 C 28.59375 16.871094 28.007813 17.359375 26.34375 16.71875 L 26.3125 16.71875 C 25.730469 16.519531 25.160156 15.910156 24.625 15.09375 C 24.089844 14.277344 23.660156 13.332031 23.09375 12.5625 C 22.179688 11.285156 20.628906 10 18.3125 10 C 17.429688 10 16.675781 10.371094 16 10.875 C 15.324219 10.371094 14.570313 10 13.6875 10 Z M 13.6875 12 C 14.296875 12 14.816406 12.25 15.25 12.75 L 16 13.65625 L 16.75 12.75 C 17.183594 12.246094 17.703125 12 18.3125 12 C 19.945313 12 20.753906 12.71875 21.46875 13.71875 L 21.46875 13.75 C 21.832031 14.246094 22.339844 15.226563 22.96875 16.1875 C 23.589844 17.140625 24.402344 18.121094 25.65625 18.5625 L 25.65625 18.59375 C 25.664063 18.597656 25.679688 18.589844 25.6875 18.59375 C 27.398438 19.238281 28.71875 18.804688 29.6875 18.03125 C 29.546875 18.316406 29.394531 18.59375 29.09375 18.84375 C 28.359375 19.453125 26.90625 20 24.25 20 C 21.3125 20 18.113281 19.0625 16.78125 17.34375 L 16 16.3125 L 15.21875 17.34375 C 13.886719 19.0625 10.6875 20 7.75 20 C 5.09375 20 3.640625 19.453125 2.90625 18.84375 C 2.605469 18.59375 2.453125 18.316406 2.3125 18.03125 C 3.28125 18.804688 4.601563 19.238281 6.3125 18.59375 C 6.328125 18.589844 6.328125 18.566406 6.34375 18.5625 C 7.597656 18.121094 8.410156 17.140625 9.03125 16.1875 C 9.660156 15.226563 10.164063 14.246094 10.53125 13.75 L 10.53125 13.71875 C 11.246094 12.71875 12.050781 12 13.6875 12 Z "></path>
</g>
</svg>
