<?xml version="1.0" encoding="UTF-8"?>
<svg xmlns="http://www.w3.org/2000/svg" xmlns:xlink="http://www.w3.org/1999/xlink" viewBox="0 0 32 32" version="1.1">
<g>
<path d="M 4 5 L 4 6.5625 C 2.882813 7.148438 2 8.160156 2 9.5 C 2 10.921875 2.960938 11.988281 4.1875 12.53125 C 4.550781 15.429688 5.800781 18.417969 7.78125 20.75 C 9.875 23.21875 12.75 25 16 25 C 19.25 25 22.125 23.21875 24.21875 20.75 C 26.199219 18.417969 27.449219 15.429688 27.8125 12.53125 C 29.039063 11.988281 30 10.921875 30 9.5 C 30 8.160156 29.117188 7.148438 28 6.5625 L 28 5 L 26 5 L 26 7.875 L 26.8125 8.03125 C 27.496094 8.171875 28 8.765625 28 9.5 C 28 10.246094 27.480469 10.839844 26.78125 10.96875 L 26.03125 11.09375 L 25.96875 11.875 C 25.746094 14.445313 24.507813 17.289063 22.6875 19.4375 C 20.867188 21.585938 18.503906 23 16 23 C 13.496094 23 11.132813 21.585938 9.3125 19.4375 C 7.492188 17.289063 6.253906 14.445313 6.03125 11.875 L 5.96875 11.09375 L 5.21875 10.96875 C 4.519531 10.839844 4 10.246094 4 9.5 C 4 8.765625 4.503906 8.171875 5.1875 8.03125 L 6 7.875 L 6 5 Z M 11.5 6 C 10.671875 6 10 6.671875 10 7.5 C 10 8.328125 10.671875 9 11.5 9 C 12.328125 9 13 8.328125 13 7.5 C 13 6.671875 12.328125 6 11.5 6 Z M 20.5 6 C 19.671875 6 19 6.671875 19 7.5 C 19 8.328125 19.671875 9 20.5 9 C 21.328125 9 22 8.328125 22 7.5 C 22 6.671875 21.328125 6 20.5 6 Z M 14.75 12 C 13.695313 12 13.089844 12.492188 12.65625 13.0625 C 12.160156 13.695313 11.648438 14.996094 10.65625 15.3125 C 8.546875 16.070313 7.960938 14.015625 9.0625 13.53125 L 9.0625 13.5 C 8.039063 13.5 8 14.84375 8 14.84375 C 8 15.855469 8.617188 17 11.59375 17 C 13.261719 17 15.113281 16.542969 16 15.46875 C 16.886719 16.542969 18.738281 17 20.40625 17 C 23.382813 17 24 15.855469 24 14.84375 C 24 14.84375 23.960938 13.5 22.9375 13.5 L 22.9375 13.53125 C 24.039063 14.015625 23.453125 16.074219 21.34375 15.3125 C 20.351563 14.996094 19.839844 13.695313 19.34375 13.0625 C 18.910156 12.492188 18.304688 12 17.25 12 C 16.761719 12 16.316406 12.214844 16 12.5625 C 15.683594 12.214844 15.238281 12 14.75 12 Z "></path>
</g>
</svg>
