<?xml version="1.0" encoding="UTF-8"?>
<svg xmlns="http://www.w3.org/2000/svg" xmlns:xlink="http://www.w3.org/1999/xlink" viewBox="0 0 32 32" version="1.1">
<g>
<path d="M 3 5 L 3 23 L 8 23 L 8 28.09375 L 9.625 26.78125 L 14.34375 23 L 29 23 L 29 5 Z M 5 7 L 27 7 L 27 21 L 13.65625 21 L 13.375 21.21875 L 10 23.90625 L 10 21 L 5 21 Z M 16 9 C 14.355469 9 13 10.355469 13 12 C 13 12.957031 13.449219 13.824219 14.15625 14.375 C 12.316406 15.113281 11 16.902344 11 19 L 13 19 C 13 17.332031 14.332031 16 16 16 C 17.667969 16 19 17.332031 19 19 L 21 19 C 21 16.902344 19.683594 15.113281 17.84375 14.375 C 18.550781 13.824219 19 12.957031 19 12 C 19 10.355469 17.644531 9 16 9 Z M 16 11 C 16.5625 11 17 11.4375 17 12 C 17 12.5625 16.5625 13 16 13 C 15.4375 13 15 12.5625 15 12 C 15 11.4375 15.4375 11 16 11 Z "></path>
</g>
</svg>
