<?xml version="1.0" encoding="UTF-8"?>
<svg xmlns="http://www.w3.org/2000/svg" xmlns:xlink="http://www.w3.org/1999/xlink" viewBox="0 0 32 32" version="1.1">
<g>
<path d="M 5 5 L 5 27 L 27 27 L 27 5 Z M 19.496094 8.648438 C 20.65625 8.648438 21.597656 9.589844 21.597656 10.75 C 21.597656 11.910156 20.65625 12.851563 19.496094 12.851563 C 18.339844 12.851563 17.398438 11.910156 17.398438 10.75 C 17.398438 9.589844 18.339844 8.648438 19.496094 8.648438 Z M 14.949219 8.648438 C 15.917969 8.648438 16.699219 9.433594 16.699219 10.398438 C 16.699219 11.367188 15.917969 12.148438 14.949219 12.148438 C 13.984375 12.148438 13.199219 11.367188 13.199219 10.398438 C 13.199219 9.433594 13.984375 8.648438 14.949219 8.648438 Z M 11.101563 9.351563 C 11.871094 9.351563 12.5 9.976563 12.5 10.75 C 12.5 11.523438 11.871094 12.148438 11.101563 12.148438 C 10.328125 12.148438 9.699219 11.523438 9.699219 10.75 C 9.699219 9.976563 10.328125 9.351563 11.101563 9.351563 Z M 16.007813 23.351563 L 16.007813 20.550781 L 12.511719 20.550781 L 12.511719 18.449219 L 9 18.449219 C 9 18.449219 9 15.03125 9 14.804688 C 9 14.445313 9.394531 12.851563 11.101563 12.851563 C 12.304688 12.851563 12.839844 13.871094 12.949219 14.257813 C 13.480469 13.753906 14.097656 13.472656 14.933594 13.472656 C 15.769531 13.472656 16.710938 14.101563 17.164063 14.886719 C 17.648438 14.519531 18.257813 14.046875 19.753906 14.046875 C 21.925781 14.046875 23 16.042969 23 17.1875 C 23 18.226563 23 23.351563 23 23.351563 C 20.671875 23.351563 16.007813 23.351563 16.007813 23.351563 Z "></path>
</g>
</svg>
