<?xml version="1.0" encoding="UTF-8"?>
<svg xmlns="http://www.w3.org/2000/svg" xmlns:xlink="http://www.w3.org/1999/xlink" viewBox="0 0 32 32" version="1.1">
<g>
<path d="M 14.5 6 C 13.121094 6 12 7.121094 12 8.5 C 12 9.878906 13.121094 11 14.5 11 C 15.878906 11 17 9.878906 17 8.5 C 17 7.121094 15.878906 6 14.5 6 Z M 21 6 C 19.34375 6 18 7.34375 18 9 C 18 10.65625 19.34375 12 21 12 C 22.65625 12 24 10.65625 24 9 C 24 7.34375 22.65625 6 21 6 Z M 9 7 C 7.894531 7 7 7.894531 7 9 C 7 10.105469 7.894531 11 9 11 C 10.105469 11 11 10.105469 11 9 C 11 7.894531 10.105469 7 9 7 Z M 9 12 C 6.5625 12 6 14.269531 6 14.78125 L 6 20 L 11.03125 20 L 11.03125 23 L 16 23 L 16 27 L 26 27 C 25.996094 27 26 19.675781 26 18.1875 C 26 16.554688 24.476563 13.71875 21.375 13.71875 C 19.238281 13.71875 18.351563 14.386719 17.65625 14.90625 C 17.011719 13.785156 15.664063 12.90625 14.46875 12.90625 C 13.273438 12.90625 12.410156 13.277344 11.65625 14 C 11.5 13.449219 10.71875 12 9 12 Z "></path>
</g>
</svg>
