<?xml version="1.0" encoding="UTF-8"?>
<svg xmlns="http://www.w3.org/2000/svg" xmlns:xlink="http://www.w3.org/1999/xlink" viewBox="0 0 32 32" version="1.1">
<g>
<path d="M 12 4 L 12 5 C 12 6.96875 12.183594 9.285156 12.625 11.125 C 9.335938 11.4375 5.972656 12.394531 3.4375 14.1875 L 2.84375 14.59375 L 3.03125 15.28125 C 3.59375 17.238281 5.1875 19.632813 7.125 21.96875 C 9.0625 24.304688 11.34375 26.503906 13.46875 27.84375 L 14.5 28.5 L 14.9375 27.375 C 15.757813 25.292969 16.53125 22.867188 17.21875 20.53125 L 18.28125 21.6875 L 18.90625 22.375 L 19.625 21.78125 C 25.433594 17.039063 27.9375 10.34375 27.9375 10.34375 L 28.15625 9.78125 L 27.71875 9.3125 C 27.71875 9.3125 22.730469 4 13 4 Z M 14.15625 6.125 C 21.597656 6.503906 25.152344 9.707031 25.75 10.3125 C 25.378906 11.214844 23.378906 15.675781 19.03125 19.5625 L 17.84375 18.3125 C 17.859375 18.261719 17.890625 18.207031 17.90625 18.15625 C 18.3125 16.699219 18.65625 15.378906 18.90625 14.375 C 19.15625 13.371094 19.292969 12.789063 19.34375 12.375 L 19.46875 11.4375 L 18.53125 11.28125 C 17.386719 11.09375 16.121094 10.988281 14.8125 11 C 14.761719 11 14.707031 11 14.65625 11 C 14.359375 9.742188 14.234375 7.839844 14.15625 6.125 Z M 17 8 C 16.449219 8 16 8.449219 16 9 C 16 9.550781 16.449219 10 17 10 C 17.550781 10 18 9.550781 18 9 C 18 8.449219 17.550781 8 17 8 Z M 21.5 9 C 21.222656 9 21 9.222656 21 9.5 C 21 9.777344 21.222656 10 21.5 10 C 21.777344 10 22 9.777344 22 9.5 C 22 9.222656 21.777344 9 21.5 9 Z M 22 12 C 21.449219 12 21 12.449219 21 13 C 21 13.550781 21.449219 14 22 14 C 22.550781 14 23 13.550781 23 13 C 23 12.449219 22.550781 12 22 12 Z M 14.84375 13.03125 C 15.652344 13.015625 16.390625 13.117188 17.125 13.1875 C 17.058594 13.480469 17.066406 13.511719 16.96875 13.90625 C 16.726563 14.890625 16.402344 16.1875 16 17.625 C 15.3125 20.082031 14.394531 22.859375 13.5 25.3125 C 11.90625 24.109375 10.167969 22.507813 8.65625 20.6875 C 7.066406 18.773438 5.890625 16.839844 5.3125 15.4375 C 7.894531 13.90625 11.542969 13.089844 14.84375 13.03125 Z M 11 15 C 10.449219 15 10 15.449219 10 16 C 10 16.550781 10.449219 17 11 17 C 11.550781 17 12 16.550781 12 16 C 12 15.449219 11.550781 15 11 15 Z M 20.5 15 C 20.222656 15 20 15.222656 20 15.5 C 20 15.777344 20.222656 16 20.5 16 C 20.777344 16 21 15.777344 21 15.5 C 21 15.222656 20.777344 15 20.5 15 Z M 8.5 16 C 8.222656 16 8 16.222656 8 16.5 C 8 16.777344 8.222656 17 8.5 17 C 8.777344 17 9 16.777344 9 16.5 C 9 16.222656 8.777344 16 8.5 16 Z M 14.5 16 C 14.222656 16 14 16.222656 14 16.5 C 14 16.777344 14.222656 17 14.5 17 C 14.777344 17 15 16.777344 15 16.5 C 15 16.222656 14.777344 16 14.5 16 Z M 10.5 18 C 10.222656 18 10 18.222656 10 18.5 C 10 18.777344 10.222656 19 10.5 19 C 10.777344 19 11 18.777344 11 18.5 C 11 18.222656 10.777344 18 10.5 18 Z M 13 19 C 12.449219 19 12 19.449219 12 20 C 12 20.550781 12.449219 21 13 21 C 13.550781 21 14 20.550781 14 20 C 14 19.449219 13.550781 19 13 19 Z "></path>
</g>
</svg>
