<?xml version="1.0" encoding="UTF-8"?>
<svg xmlns="http://www.w3.org/2000/svg" xmlns:xlink="http://www.w3.org/1999/xlink" viewBox="0 0 32 32" version="1.1">
<g>
<path d="M 12 3 L 12 11.625 C 11.539063 12.171875 10.558594 13.460938 9.59375 15.5 C 8.285156 18.257813 7 22.402344 7 28 L 7 29 L 25 29 L 25 28 C 25 22.390625 23.714844 18.226563 22.40625 15.46875 C 21.441406 13.433594 20.460938 12.132813 20 11.59375 L 20 3 Z M 14 5 L 18 5 L 18 11 L 14 11 Z M 13.46875 13 L 15 13 L 15 20 L 17 20 L 17 13 L 18.53125 13 C 18.828125 13.332031 19.613281 14.273438 20.59375 16.34375 C 21.699219 18.675781 22.75 22.277344 22.90625 27 L 9.09375 27 C 9.25 22.285156 10.300781 18.679688 11.40625 16.34375 C 12.386719 14.269531 13.171875 13.335938 13.46875 13 Z M 15 21 L 14 25 L 18 25 L 17 21 Z "></path>
</g>
</svg>
