<?xml version="1.0" encoding="UTF-8"?>
<svg xmlns="http://www.w3.org/2000/svg" xmlns:xlink="http://www.w3.org/1999/xlink" viewBox="0 0 32 32" version="1.1">
<g>
<path d="M 21.09375 3.90625 L 19.65625 5.34375 L 22.4375 8.125 L 20.5625 10 C 20.390625 10.15625 20.253906 10.375 20.0625 10.53125 L 19.65625 10.90625 L 13.21875 17.34375 L 6.40625 24.1875 C 6.195313 24.441406 5.878906 24.578125 5.71875 24.84375 C 5.5625 25.113281 5.421875 25.386719 5.28125 25.625 C 4.996094 26.097656 4.785156 26.523438 4.59375 26.875 C 4.214844 27.582031 4 28 4 28 C 4 28 4.417969 27.789063 5.125 27.40625 C 5.476563 27.214844 5.902344 27.003906 6.375 26.71875 C 6.613281 26.578125 6.890625 26.4375 7.15625 26.28125 C 7.421875 26.121094 7.558594 25.808594 7.8125 25.59375 L 14.65625 18.78125 L 21.09375 12.34375 L 21.46875 11.9375 C 21.625 11.746094 21.84375 11.609375 22 11.4375 L 23.875 9.5625 L 26.65625 12.34375 L 28.09375 10.90625 Z "></path>
</g>
</svg>
