<?xml version="1.0" encoding="UTF-8"?>
<svg xmlns="http://www.w3.org/2000/svg" xmlns:xlink="http://www.w3.org/1999/xlink" viewBox="0 0 32 32" version="1.1">
<g>
<path d="M 4 4 L 4 28 L 28 28 L 28 4 Z M 6 6 L 26 6 L 26 26 L 23.9375 26 C 23.59375 23.296875 21.882813 21.011719 19.53125 19.84375 C 21.023438 18.75 22 16.984375 22 15 C 22 11.699219 19.300781 9 16 9 C 12.699219 9 10 11.699219 10 15 C 10 16.984375 10.976563 18.75 12.46875 19.84375 C 10.117188 21.011719 8.40625 23.296875 8.0625 26 L 6 26 Z M 16 11 C 18.222656 11 20 12.777344 20 15 C 20 17.222656 18.222656 19 16 19 C 13.777344 19 12 17.222656 12 15 C 12 12.777344 13.777344 11 16 11 Z M 16 21 C 18.984375 21 21.433594 23.152344 21.90625 26 L 10.09375 26 C 10.566406 23.152344 13.015625 21 16 21 Z "></path>
</g>
</svg>
