<?xml version="1.0" encoding="UTF-8"?>
<svg xmlns="http://www.w3.org/2000/svg" xmlns:xlink="http://www.w3.org/1999/xlink" viewBox="0 0 32 32" version="1.1">
<g>
<path d="M 3 5 L 3 15.28125 L 3.15625 15.53125 C 3.15625 15.53125 6.445313 20.726563 8.78125 23.375 C 10.066406 26.089844 12.8125 28 16 28 C 19.1875 28 21.933594 26.089844 23.21875 23.375 C 25.554688 20.726563 28.84375 15.53125 28.84375 15.53125 L 29 15.28125 L 29 5 Z M 5 7 L 8 7 L 8 14 L 5 14 Z M 10 7 L 22 7 L 22 20 C 22 20.800781 21.851563 21.582031 21.5625 22.28125 C 20.664063 24.464844 18.503906 26 16 26 C 13.496094 26 11.335938 24.464844 10.4375 22.28125 C 10.148438 21.582031 10 20.800781 10 20 Z M 24 7 L 27 7 L 27 14 L 24 14 Z M 5.84375 16 L 8 16 L 8 19.125 C 7.007813 17.734375 6.402344 16.851563 5.84375 16 Z M 24 16 L 26.15625 16 C 25.597656 16.851563 24.992188 17.734375 24 19.125 Z "></path>
</g>
</svg>
