<?xml version="1.0" encoding="UTF-8"?>
<svg xmlns="http://www.w3.org/2000/svg" xmlns:xlink="http://www.w3.org/1999/xlink" viewBox="0 0 32 32" version="1.1">
<g>
<path d="M 5 5 L 5 27 L 27 27 L 27 5 Z M 7 7 L 13 7 L 13 25 L 7 25 Z M 15 7 L 19 7 L 19 25 L 15 25 Z M 21 7 L 25 7 L 25 25 L 21 25 Z M 10 9 C 9.449219 9 9 9.449219 9 10 C 9 10.550781 9.449219 11 10 11 C 10.550781 11 11 10.550781 11 10 C 11 9.449219 10.550781 9 10 9 Z M 17 9 C 16.449219 9 16 9.449219 16 10 C 16 10.550781 16.449219 11 17 11 C 17.550781 11 18 10.550781 18 10 C 18 9.449219 17.550781 9 17 9 Z M 23 9 C 22.449219 9 22 9.449219 22 10 C 22 10.550781 22.449219 11 23 11 C 23.550781 11 24 10.550781 24 10 C 24 9.449219 23.550781 9 23 9 Z M 10 12 C 9.449219 12 9 12.449219 9 13 C 9 13.550781 9.449219 14 10 14 C 10.550781 14 11 13.550781 11 13 C 11 12.449219 10.550781 12 10 12 Z M 16 15 L 16 23 L 18 23 L 18 15 Z M 22 15 L 22 23 L 24 23 L 24 15 Z "></path>
</g>
</svg>
