<?xml version="1.0" encoding="UTF-8"?>
<svg xmlns="http://www.w3.org/2000/svg" xmlns:xlink="http://www.w3.org/1999/xlink" viewBox="0 0 32 32" version="1.1">
<g>
<path d="M 15 1 L 15 5.0625 C 14.683594 5.097656 14.375 5.132813 14.0625 5.1875 C 13.691406 5.25 13.324219 5.308594 12.96875 5.40625 C 12.851563 5.4375 12.742188 5.496094 12.625 5.53125 C 12.402344 5.601563 12.183594 5.667969 11.96875 5.75 C 11.800781 5.8125 11.632813 5.867188 11.46875 5.9375 C 10.546875 6.34375 9.707031 6.902344 8.9375 7.53125 L 8.90625 7.53125 L 6.09375 4.6875 L 4.6875 6.09375 L 7.5 8.90625 C 7.480469 8.929688 7.457031 8.945313 7.4375 8.96875 C 7.167969 9.292969 6.917969 9.644531 6.6875 10 L 2 10 L 2 12 L 5.8125 12 C 5.789063 12.042969 5.738281 12.074219 5.71875 12.125 C 5.523438 12.640625 5.765625 13.210938 6.28125 13.40625 C 6.796875 13.601563 7.398438 13.328125 7.59375 12.8125 C 7.699219 12.53125 7.664063 12.246094 7.53125 12 L 24.46875 12 C 24.335938 12.246094 24.300781 12.53125 24.40625 12.8125 C 24.601563 13.328125 25.203125 13.601563 25.71875 13.40625 C 26.234375 13.210938 26.476563 12.640625 26.28125 12.125 C 26.261719 12.074219 26.210938 12.042969 26.1875 12 L 30 12 L 30 10 L 25.125 10 C 24.902344 9.65625 24.667969 9.316406 24.40625 9 L 27.3125 6.09375 L 25.90625 4.6875 L 23 7.59375 C 22.878906 7.484375 22.753906 7.378906 22.625 7.28125 C 22.582031 7.25 22.542969 7.21875 22.5 7.1875 C 21.71875 6.605469 20.859375 6.144531 19.9375 5.78125 C 19.773438 5.714844 19.605469 5.652344 19.4375 5.59375 C 19.242188 5.527344 19.042969 5.460938 18.84375 5.40625 C 18.824219 5.402344 18.800781 5.410156 18.78125 5.40625 C 18.332031 5.285156 17.875 5.15625 17.40625 5.09375 C 17.3125 5.082031 17.21875 5.074219 17.125 5.0625 C 17.085938 5.058594 17.042969 5.066406 17 5.0625 L 17 1 Z M 15.90625 7 C 16.324219 7 16.722656 7.039063 17.125 7.09375 C 17.378906 7.128906 17.628906 7.164063 17.875 7.21875 C 17.925781 7.230469 17.980469 7.238281 18.03125 7.25 C 18.210938 7.292969 18.386719 7.351563 18.5625 7.40625 C 19.234375 7.613281 19.875 7.898438 20.46875 8.25 C 20.488281 8.261719 20.511719 8.269531 20.53125 8.28125 C 20.84375 8.46875 21.148438 8.683594 21.4375 8.90625 C 21.640625 9.0625 21.84375 9.234375 22.03125 9.40625 C 22.054688 9.425781 22.074219 9.449219 22.09375 9.46875 C 22.277344 9.640625 22.457031 9.8125 22.625 10 L 9.21875 10 C 9.269531 9.945313 9.324219 9.898438 9.375 9.84375 C 9.453125 9.761719 9.515625 9.671875 9.59375 9.59375 C 9.84375 9.347656 10.097656 9.125 10.375 8.90625 C 10.632813 8.707031 10.910156 8.515625 11.1875 8.34375 C 11.21875 8.324219 11.25 8.300781 11.28125 8.28125 C 11.300781 8.269531 11.324219 8.261719 11.34375 8.25 C 11.636719 8.074219 11.9375 7.921875 12.25 7.78125 C 12.382813 7.722656 12.523438 7.675781 12.65625 7.625 C 12.832031 7.554688 13.007813 7.496094 13.1875 7.4375 C 13.726563 7.265625 14.292969 7.128906 14.875 7.0625 C 15.210938 7.023438 15.558594 7 15.90625 7 Z M 11 14 L 11 22 L 13 22 L 13 14 Z M 16.5 14 C 15.132813 14 14 15.132813 14 16.5 L 14 17 L 16 17 L 16 16.5 C 16 16.214844 16.214844 16 16.5 16 C 16.785156 16 17 16.214844 17 16.5 L 17 17.34375 C 17 17.484375 16.945313 17.625 16.84375 17.71875 L 14.3125 20 L 14 20.3125 L 14 22 L 19 22 L 19 20 L 17.3125 20 L 18.1875 19.1875 C 18.703125 18.714844 19 18.042969 19 17.34375 L 19 16.5 C 19 15.132813 17.867188 14 16.5 14 Z M 21 14 C 20.449219 14 20 14.449219 20 15 C 20 15.550781 20.449219 16 21 16 C 21.550781 16 22 15.550781 22 15 C 22 14.449219 21.550781 14 21 14 Z M 2 15 C 1.449219 15 1 15.449219 1 16 C 1 16.550781 1.449219 17 2 17 C 2.550781 17 3 16.550781 3 16 C 3 15.449219 2.550781 15 2 15 Z M 6 15 C 5.449219 15 5 15.449219 5 16 C 5 16.550781 5.449219 17 6 17 C 6.550781 17 7 16.550781 7 16 C 7 15.449219 6.550781 15 6 15 Z M 26 15 C 25.449219 15 25 15.449219 25 16 C 25 16.550781 25.449219 17 26 17 C 26.550781 17 27 16.550781 27 16 C 27 15.449219 26.550781 15 26 15 Z M 30 15 C 29.449219 15 29 15.449219 29 16 C 29 16.550781 29.449219 17 30 17 C 30.550781 17 31 16.550781 31 16 C 31 15.449219 30.550781 15 30 15 Z M 6.78125 18.8125 C 6.652344 18.8125 6.503906 18.851563 6.375 18.90625 C 5.863281 19.117188 5.632813 19.707031 5.84375 20.21875 C 6.054688 20.730469 6.644531 20.960938 7.15625 20.75 C 7.667969 20.539063 7.898438 19.949219 7.6875 19.4375 C 7.527344 19.054688 7.171875 18.816406 6.78125 18.8125 Z M 25.21875 18.8125 C 24.828125 18.816406 24.472656 19.054688 24.3125 19.4375 C 24.101563 19.949219 24.332031 20.539063 24.84375 20.75 C 25.355469 20.960938 25.945313 20.730469 26.15625 20.21875 C 26.367188 19.707031 26.136719 19.117188 25.625 18.90625 C 25.496094 18.851563 25.347656 18.8125 25.21875 18.8125 Z M 8.9375 22.0625 C 8.679688 22.0625 8.414063 22.179688 8.21875 22.375 C 7.828125 22.765625 7.828125 23.390625 8.21875 23.78125 C 8.609375 24.171875 9.234375 24.171875 9.625 23.78125 C 10.015625 23.390625 10.015625 22.765625 9.625 22.375 C 9.429688 22.179688 9.195313 22.0625 8.9375 22.0625 Z M 23.0625 22.0625 C 22.933594 22.0625 22.808594 22.109375 22.6875 22.15625 C 22.566406 22.203125 22.472656 22.277344 22.375 22.375 C 21.984375 22.765625 21.984375 23.390625 22.375 23.78125 C 22.570313 23.976563 22.804688 24.0625 23.0625 24.0625 C 23.320313 24.0625 23.585938 23.976563 23.78125 23.78125 C 24.171875 23.390625 24.171875 22.765625 23.78125 22.375 C 23.585938 22.179688 23.320313 22.0625 23.0625 22.0625 Z M 12.1875 24.25 C 11.796875 24.253906 11.410156 24.492188 11.25 24.875 C 11.039063 25.386719 11.300781 25.945313 11.8125 26.15625 C 12.324219 26.367188 12.914063 26.136719 13.125 25.625 C 13.335938 25.113281 13.074219 24.523438 12.5625 24.3125 C 12.433594 24.257813 12.316406 24.25 12.1875 24.25 Z M 19.8125 24.25 C 19.683594 24.25 19.566406 24.257813 19.4375 24.3125 C 18.925781 24.523438 18.664063 25.113281 18.875 25.625 C 19.085938 26.136719 19.675781 26.367188 20.1875 26.15625 C 20.699219 25.945313 20.960938 25.386719 20.75 24.875 C 20.589844 24.492188 20.203125 24.253906 19.8125 24.25 Z M 6.09375 24.90625 C 5.835938 24.90625 5.601563 24.992188 5.40625 25.1875 C 5.015625 25.578125 5.015625 26.203125 5.40625 26.59375 C 5.796875 26.984375 6.421875 26.984375 6.8125 26.59375 C 7.203125 26.203125 7.203125 25.578125 6.8125 25.1875 C 6.617188 24.992188 6.351563 24.90625 6.09375 24.90625 Z M 25.90625 24.90625 C 25.648438 24.90625 25.382813 24.992188 25.1875 25.1875 C 24.796875 25.578125 24.796875 26.203125 25.1875 26.59375 C 25.578125 26.984375 26.203125 26.984375 26.59375 26.59375 C 26.984375 26.203125 26.984375 25.578125 26.59375 25.1875 C 26.398438 24.992188 26.164063 24.90625 25.90625 24.90625 Z M 16 25 C 15.449219 25 15 25.449219 15 26 C 15 26.550781 15.449219 27 16 27 C 16.550781 27 17 26.550781 17 26 C 17 25.449219 16.550781 25 16 25 Z M 16 29 C 15.449219 29 15 29.449219 15 30 C 15 30.550781 15.449219 31 16 31 C 16.550781 31 17 30.550781 17 30 C 17 29.449219 16.550781 29 16 29 Z "></path>
</g>
</svg>
