<?xml version="1.0" encoding="UTF-8"?>
<svg xmlns="http://www.w3.org/2000/svg" xmlns:xlink="http://www.w3.org/1999/xlink" viewBox="0 0 32 32" version="1.1">
<g>
<path d="M 4 5 L 4 27 L 28 27 L 28 5 Z M 6 7 L 26 7 L 26 11 L 6 11 Z M 8 8 C 7.449219 8 7 8.449219 7 9 C 7 9.550781 7.449219 10 8 10 C 8.550781 10 9 9.550781 9 9 C 9 8.449219 8.550781 8 8 8 Z M 11 8 C 10.449219 8 10 8.449219 10 9 C 10 9.550781 10.449219 10 11 10 C 11.550781 10 12 9.550781 12 9 C 12 8.449219 11.550781 8 11 8 Z M 13 8 L 13 10 L 24 10 L 24 8 Z M 6 13 L 26 13 L 26 25 L 6 25 Z "></path>
</g>
</svg>
