<?xml version="1.0" encoding="UTF-8"?>
<svg xmlns="http://www.w3.org/2000/svg" xmlns:xlink="http://www.w3.org/1999/xlink" viewBox="0 0 32 32" version="1.1">
<g>
<path d="M 4 5 L 4 27 L 28 27 L 28 5 Z M 6 7 L 13 7 L 13 25 L 6 25 Z M 15 7 L 26 7 L 26 25 L 15 25 Z M 8 9 C 7.449219 9 7 9.449219 7 10 C 7 10.550781 7.449219 11 8 11 C 8.550781 11 9 10.550781 9 10 C 9 9.449219 8.550781 9 8 9 Z M 11 9 C 10.449219 9 10 9.449219 10 10 C 10 10.550781 10.449219 11 11 11 C 11.550781 11 12 10.550781 12 10 C 12 9.449219 11.550781 9 11 9 Z M 7 12 L 7 14 L 12 14 L 12 12 Z "></path>
</g>
</svg>
