<?xml version="1.0" encoding="UTF-8"?>
<svg xmlns="http://www.w3.org/2000/svg" xmlns:xlink="http://www.w3.org/1999/xlink" viewBox="0 0 32 32" version="1.1">
<g>
<path d="M 16 4 C 9.382813 4 4 9.382813 4 16 C 4 22.617188 9.382813 28 16 28 C 22.617188 28 28 22.617188 28 16 C 28 9.382813 22.617188 4 16 4 Z M 16 6 C 21.535156 6 26 10.464844 26 16 C 26 21.535156 21.535156 26 16 26 C 10.464844 26 6 21.535156 6 16 C 6 10.464844 10.464844 6 16 6 Z M 21.875 10.1875 L 19.625 11.0625 L 10.40625 14.65625 L 7.8125 15.65625 L 14.1875 17.78125 L 15.15625 21.15625 L 15.9375 23.8125 L 17.03125 21.28125 Z M 18.125 13.8125 L 16.3125 17.9375 L 15.96875 16.71875 L 15.8125 16.21875 L 15.3125 16.0625 L 13.71875 15.53125 Z "></path>
</g>
</svg>
