<?xml version="1.0" encoding="UTF-8"?>
<svg xmlns="http://www.w3.org/2000/svg" xmlns:xlink="http://www.w3.org/1999/xlink" viewBox="0 0 32 32" version="1.1">
<g>
<path d="M 4 4 C 4 8.199219 5.277344 12.152344 7.40625 15.09375 C 9.324219 17.742188 11.992188 19.59375 15 19.9375 L 15 21.34375 L 13 24 L 16 28 L 19 24 L 17 21.34375 L 17 19.9375 C 20.007813 19.59375 22.675781 17.742188 24.59375 15.09375 C 26.722656 12.152344 28 8.199219 28 4 L 26 4 C 26 7.789063 24.820313 11.347656 22.96875 13.90625 C 21.117188 16.464844 18.652344 18 16 18 C 13.347656 18 10.882813 16.464844 9.03125 13.90625 C 7.179688 11.347656 6 7.789063 6 4 Z "></path>
</g>
</svg>
