<?xml version="1.0" encoding="UTF-8"?>
<svg xmlns="http://www.w3.org/2000/svg" xmlns:xlink="http://www.w3.org/1999/xlink" viewBox="0 0 32 32" version="1.1">
<g>
<path d="M 15 4 L 15 6 C 17 6 18.503906 6.394531 19.625 6.875 C 19.15625 7.425781 18.625 8.054688 17.96875 8.84375 C 16.441406 10.679688 14.488281 13.039063 12.5625 15.375 C 8.765625 19.980469 5.203125 24.367188 5.09375 24.5 C 5.09375 24.503906 4.96875 24.625 4.96875 24.625 L 6.375 26.03125 C 6.375 26.03125 6.496094 25.90625 6.5 25.90625 C 6.632813 25.796875 10.996094 22.234375 15.59375 18.4375 C 17.925781 16.511719 20.289063 14.5625 22.125 13.03125 C 22.804688 12.464844 23.308594 12.046875 23.8125 11.625 C 23.917969 12.074219 24 12.550781 24 13 C 24 13.910156 23.71875 14.488281 23.1875 15.0625 C 22.65625 15.636719 21.84375 16.136719 20.96875 16.6875 C 20.09375 17.238281 19.15625 17.832031 18.375 18.65625 C 17.59375 19.480469 17 20.605469 17 22 C 17 23.558594 17.578125 24.832031 18.4375 25.71875 C 19.296875 26.605469 20.40625 27.113281 21.46875 27.4375 C 22.53125 27.761719 23.574219 27.910156 24.40625 27.96875 C 25.238281 28.027344 25.910156 28 26 28 L 26 26 C 25.753906 26 25.261719 26.019531 24.53125 25.96875 C 23.800781 25.917969 22.882813 25.792969 22.03125 25.53125 C 21.179688 25.269531 20.410156 24.863281 19.875 24.3125 C 19.339844 23.761719 19 23.097656 19 22 C 19 21.121094 19.28125 20.59375 19.8125 20.03125 C 20.34375 19.46875 21.15625 18.925781 22.03125 18.375 C 22.90625 17.824219 23.84375 17.246094 24.625 16.40625 C 25.40625 15.566406 26 14.414063 26 13 C 26 11.882813 25.71875 10.855469 25.5 10.1875 C 25.511719 10.175781 25.550781 10.136719 25.5625 10.125 C 26.125 9.5625 26.636719 8.777344 26.875 7.84375 C 27.113281 6.910156 26.980469 5.730469 26.125 4.875 C 25.695313 4.445313 25.183594 4.203125 24.65625 4.09375 C 24.128906 3.984375 23.589844 4.003906 23.125 4.125 C 22.261719 4.351563 21.539063 4.808594 21 5.3125 C 19.585938 4.609375 17.628906 4 15 4 Z M 23.9375 6 C 24.230469 5.964844 24.464844 6.027344 24.71875 6.28125 C 25.058594 6.621094 25.054688 6.882813 24.9375 7.34375 C 24.820313 7.804688 24.488281 8.355469 24.15625 8.6875 C 24.152344 8.691406 23.703125 9.101563 23.125 9.59375 C 22.546875 10.085938 21.757813 10.738281 20.84375 11.5 C 19.011719 13.027344 16.644531 14.980469 14.3125 16.90625 C 13.644531 17.457031 13.648438 17.464844 13 18 C 13.542969 17.34375 13.535156 17.332031 14.09375 16.65625 C 16.019531 14.320313 17.976563 11.957031 19.5 10.125 C 20.257813 9.21875 20.917969 8.453125 21.40625 7.875 C 21.574219 8 21.699219 8.117188 21.8125 8.21875 C 21.777344 8.511719 21.816406 8.785156 22 8.96875 C 22.398438 9.367188 23.183594 9.222656 23.75 8.65625 C 24.316406 8.089844 24.457031 7.332031 24.0625 6.9375 C 23.84375 6.71875 23.507813 6.664063 23.15625 6.75 C 23.054688 6.660156 22.9375 6.539063 22.8125 6.4375 C 23.078125 6.269531 23.359375 6.132813 23.625 6.0625 C 23.742188 6.03125 23.839844 6.011719 23.9375 6 Z "></path>
</g>
</svg>
