<?xml version="1.0" encoding="UTF-8"?>
<svg xmlns="http://www.w3.org/2000/svg" xmlns:xlink="http://www.w3.org/1999/xlink" viewBox="0 0 32 32" version="1.1">
<g>
<path d="M 16 4 C 9.382813 4 4 9.382813 4 16 C 4 22.617188 9.382813 28 16 28 C 22.617188 28 28 22.617188 28 16 C 28 9.382813 22.617188 4 16 4 Z M 16 6 C 20.042969 6 23.515625 8.371094 25.09375 11.8125 C 24.269531 10.71875 22.964844 10 21.5 10 C 19.199219 10 17.316406 11.761719 17.0625 14 L 14.9375 14 C 14.683594 11.761719 12.800781 10 10.5 10 C 9.035156 10 7.730469 10.71875 6.90625 11.8125 C 8.484375 8.371094 11.957031 6 16 6 Z M 10.5 12 C 11.773438 12 12.800781 12.933594 12.96875 14.15625 C 12.816406 13.488281 12.214844 13 11.5 13 C 10.671875 13 10 13.671875 10 14.5 C 10 15.328125 10.671875 16 11.5 16 C 12.214844 16 12.816406 15.511719 12.96875 14.84375 C 12.800781 16.066406 11.773438 17 10.5 17 C 9.109375 17 8 15.890625 8 14.5 C 8 13.109375 9.109375 12 10.5 12 Z M 21.5 12 C 22.890625 12 24 13.109375 24 14.5 C 24 15.890625 22.890625 17 21.5 17 C 20.226563 17 19.199219 16.066406 19.03125 14.84375 C 19.183594 15.511719 19.785156 16 20.5 16 C 21.328125 16 22 15.328125 22 14.5 C 22 13.671875 21.328125 13 20.5 13 C 19.785156 13 19.183594 13.488281 19.03125 14.15625 C 19.199219 12.933594 20.226563 12 21.5 12 Z M 6.0625 15.0625 C 6.34375 17.269531 8.21875 19 10.5 19 C 12.445313 19 14.09375 17.738281 14.71875 16 L 17.28125 16 C 17.90625 17.738281 19.554688 19 21.5 19 C 23.78125 19 25.65625 17.269531 25.9375 15.0625 C 25.964844 15.371094 26 15.683594 26 16 C 26 21.535156 21.535156 26 16 26 C 10.464844 26 6 21.535156 6 16 C 6 15.683594 6.035156 15.371094 6.0625 15.0625 Z M 12 20 L 12 22 L 20 22 L 20 20 Z "></path>
</g>
</svg>
