<?xml version="1.0" encoding="UTF-8"?>
<svg xmlns="http://www.w3.org/2000/svg" xmlns:xlink="http://www.w3.org/1999/xlink" viewBox="0 0 32 32" version="1.1">
<g>
<path d="M 6 5 L 6 7 L 4.15625 7 L 4 7.84375 L 2.71875 15.84375 L 2.5 17 L 4 17 C 4.605469 17 4.96875 17.265625 5.15625 17.5625 C 5.34375 17.859375 5.347656 18.167969 5.15625 18.46875 L 5.15625 18.5 L 3.375 21.46875 L 3.375 21.5 C 2.6875 22.609375 3.074219 24.050781 4.1875 24.71875 L 4.15625 24.75 L 4.21875 24.78125 L 7.40625 26.8125 L 8.15625 27.28125 L 8.71875 26.5625 C 8.71875 26.5625 9.664063 25.253906 10.53125 22.96875 C 13.175781 22.738281 14.84375 20.875 15.5 20 L 26 20 L 26 21 L 29 21 L 29 13 L 30 13 L 30 10 L 29 10 L 29 7 L 10.625 7 L 9.625 5 Z M 8 7 L 8.375 7 L 9.375 9 L 27 9 L 27 18 L 16 18 L 16 15 L 10.03125 15 L 10 15.96875 C 9.832031 20.945313 8.167969 23.660156 7.5625 24.5625 L 5.21875 23.0625 L 5.1875 23.0625 L 5.1875 23.03125 C 4.996094 22.925781 4.945313 22.714844 5.0625 22.53125 L 5.0625 22.5 L 6.84375 19.53125 L 6.84375 19.5 C 7.4375 18.546875 7.394531 17.378906 6.84375 16.5 C 6.429688 15.835938 5.683594 15.433594 4.84375 15.21875 L 5.875 9 L 8 9 Z M 17 10 L 17 17 L 26 17 L 26 10 Z M 19 12 L 24 12 L 24 15 L 19 15 Z M 11.875 17 L 14 17 L 14 18.6875 C 13.703125 19.097656 12.738281 20.28125 11.21875 20.78125 C 11.515625 19.652344 11.761719 18.398438 11.875 17 Z "></path>
</g>
</svg>
