<?xml version="1.0" encoding="UTF-8"?>
<svg xmlns="http://www.w3.org/2000/svg" xmlns:xlink="http://www.w3.org/1999/xlink" viewBox="0 0 32 32" version="1.1">
<g>
<path d="M 10 6 L 10 26 L 24 26 L 24 6 Z M 12 8 L 22 8 L 22 20 L 12 20 Z M 16.90625 9.96875 C 16.863281 9.976563 16.820313 9.988281 16.78125 10 C 16.316406 10.105469 15.988281 10.523438 16 11 L 16 17 C 15.996094 17.359375 16.183594 17.695313 16.496094 17.878906 C 16.808594 18.058594 17.191406 18.058594 17.503906 17.878906 C 17.816406 17.695313 18.003906 17.359375 18 17 L 18 11 C 18.011719 10.710938 17.894531 10.433594 17.6875 10.238281 C 17.476563 10.039063 17.191406 9.941406 16.90625 9.96875 Z M 12 22 L 22 22 L 22 24 L 12 24 Z "></path>
</g>
</svg>
