<?xml version="1.0" encoding="UTF-8"?>
<svg xmlns="http://www.w3.org/2000/svg" xmlns:xlink="http://www.w3.org/1999/xlink" viewBox="0 0 32 32" version="1.1">
<g>
<path d="M 3.851563 12 C 4.261719 12 4.703125 12 5.113281 12 C 5.109375 14.511719 5.105469 17.023438 5.101563 19.535156 C 4.660156 19.578125 4.175781 19.640625 3.734375 19.691406 C 3.171875 18.117188 2.824219 17.140625 2.261719 15.484375 C 2.261719 17.167969 2.257813 18.199219 2.257813 19.882813 C 1.847656 19.9375 1.410156 19.992188 1 20.050781 C 1 17.367188 1 14.683594 1 12 C 1.460938 12 1.75 12 2.214844 12 C 2.757813 13.761719 3.300781 14.871094 3.84375 16.546875 C 3.847656 14.828125 3.847656 13.71875 3.851563 12 Z M 9.839844 13.242188 C 9.839844 12.882813 9.828125 12.363281 9.832031 12 C 8.660156 12 7.503906 12 6.332031 12 C 6.328125 14.476563 6.324219 16.953125 6.316406 19.429688 C 7.488281 19.320313 8.660156 19.234375 9.832031 19.167969 C 9.832031 18.804688 9.832031 18.285156 9.835938 17.921875 C 9.070313 17.96875 8.34375 18.019531 7.582031 18.070313 C 7.582031 17.402344 7.585938 16.855469 7.585938 16.1875 C 8.140625 16.179688 8.726563 16.1875 9.296875 16.175781 C 9.296875 15.8125 9.296875 15.289063 9.296875 14.925781 C 8.734375 14.9375 8.140625 14.9375 7.589844 14.949219 C 7.589844 14.28125 7.589844 13.917969 7.59375 13.253906 C 7.941406 13.246094 9.550781 13.246094 9.839844 13.242188 Z M 10.648438 13.242188 C 10.703125 13.242188 11.917969 13.25 11.960938 13.25 C 11.960938 15.246094 11.957031 17.066406 11.953125 19.0625 C 12.367188 19.050781 12.808594 19.035156 13.21875 19.023438 C 13.222656 17.039063 13.222656 15.226563 13.226563 13.242188 C 13.660156 13.242188 14.109375 13.238281 14.546875 13.238281 C 14.546875 12.886719 14.546875 12.359375 14.546875 12.007813 C 13.265625 12.007813 11.9375 12.007813 10.652344 12.007813 C 10.648438 12.363281 10.648438 12.882813 10.648438 13.242188 Z M 18.878906 12 C 17.707031 12 16.535156 12 15.367188 12 C 15.367188 14.328125 15.363281 16.660156 15.363281 18.992188 C 15.5 18.988281 15.636719 18.988281 15.777344 18.988281 C 16.058594 18.988281 16.339844 18.992188 16.617188 18.992188 C 16.617188 18.003906 16.617188 17.101563 16.617188 16.113281 C 16.683594 16.113281 18.160156 16.109375 18.328125 16.113281 C 18.328125 15.757813 18.324219 15.230469 18.324219 14.875 C 18.171875 14.875 16.679688 14.875 16.617188 14.875 C 16.617188 14.238281 16.617188 13.882813 16.613281 13.246094 C 16.753906 13.246094 18.539063 13.246094 18.878906 13.246094 C 18.878906 12.894531 18.878906 12.355469 18.878906 12 Z M 20.957031 17.863281 C 20.953125 15.847656 20.964844 14.019531 20.964844 12.003906 C 20.550781 12.003906 20.109375 12.003906 19.699219 12.003906 C 19.703125 14.359375 19.691406 16.710938 19.695313 19.0625 C 20.816406 19.105469 21.996094 19.152344 23.121094 19.230469 C 23.117188 18.867188 23.117188 18.347656 23.117188 17.984375 C 22.40625 17.941406 21.667969 17.894531 20.957031 17.863281 Z M 24.171875 19.304688 C 24.582031 19.339844 25.007813 19.371094 25.417969 19.40625 C 25.421875 16.941406 25.421875 14.472656 25.417969 12.007813 C 25.007813 12.007813 24.566406 12.007813 24.15625 12.007813 C 24.160156 14.4375 24.164063 16.871094 24.171875 19.304688 Z M 29.347656 15.796875 C 29.882813 14.535156 30.425781 13.328125 30.980469 12.007813 C 30.527344 12.007813 30.058594 12.007813 29.601563 12.007813 C 29.261719 12.824219 29.023438 13.347656 28.695313 14.125 C 28.390625 13.316406 28.1875 12.792969 27.882813 12.007813 C 27.425781 12.007813 26.957031 12.007813 26.503906 12.007813 C 27.007813 13.234375 27.46875 14.46875 27.980469 15.777344 C 27.449219 17.03125 26.90625 18.277344 26.375 19.484375 C 26.816406 19.527344 27.269531 19.589844 27.710938 19.640625 C 28.027344 18.863281 28.316406 18.265625 28.632813 17.46875 C 28.949219 18.316406 29.234375 18.972656 29.550781 19.847656 C 29.988281 19.90625 30.558594 19.988281 31 20.050781 C 30.46875 18.628906 29.886719 17.144531 29.347656 15.796875 Z "></path>
</g>
</svg>
