<?xml version="1.0" encoding="UTF-8"?>
<svg xmlns="http://www.w3.org/2000/svg" xmlns:xlink="http://www.w3.org/1999/xlink" viewBox="0 0 32 32" version="1.1">
<g>
<path d="M 9.03125 5 C 6.8125 5 5 6.8125 5 9.03125 L 5 22.96875 C 5 25.1875 6.8125 27 9.03125 27 L 22.96875 27 C 25.1875 27 27 25.1875 27 22.96875 L 27 9.03125 C 27 6.8125 25.1875 5 22.96875 5 Z M 9.03125 7 L 22.96875 7 C 24.09375 7 25 7.902344 25 9.03125 L 25 18.5625 C 24.261719 18.304688 23.207031 18 22 17.71875 L 22 11 L 23 11 L 23 9 L 19 9 L 19 11 L 20 11 L 20 16.5625 L 12.71875 9.28125 L 12.40625 9 L 10 9 L 10 11 L 11 11 L 11 17.5 C 9.316406 17.820313 7.941406 18.230469 7 18.5625 L 7 9.03125 C 7 7.902344 7.902344 7 9.03125 7 Z M 13 12.4375 L 17.625 17.0625 C 17.09375 17.027344 16.5625 17 16 17 C 14.945313 17 13.945313 17.078125 13 17.1875 Z M 16 19 C 20.355469 19 23.769531 20.171875 25 20.65625 L 25 22.96875 C 25 24.09375 24.097656 25 22.96875 25 L 9.03125 25 C 7.902344 25 7 24.097656 7 22.96875 L 7 20.65625 C 7.707031 20.378906 9.058594 19.925781 11 19.53125 L 11 21 L 10 21 L 10 23 L 14 23 L 14 21 L 13 21 L 13 19.21875 C 13.945313 19.101563 14.933594 19 16 19 Z "></path>
</g>
</svg>
