<?xml version="1.0" encoding="UTF-8"?>
<svg xmlns="http://www.w3.org/2000/svg" xmlns:xlink="http://www.w3.org/1999/xlink" viewBox="0 0 32 32" version="1.1">
<g>
<path d="M 5 5 L 5 7 L 7 7 C 7.566406 7 8 7.433594 8 8 L 8 27 L 10 27 L 10 20 L 12 20 L 12 22 L 23 22 L 23 20 L 24 20 C 25.644531 20 27 18.644531 27 17 L 27 11 C 27 9.355469 25.644531 8 24 8 L 10 8 C 10 6.355469 8.644531 5 7 5 Z M 10 10 L 24 10 C 24.566406 10 25 10.433594 25 11 L 25 17 C 25 17.566406 24.566406 18 24 18 L 10 18 Z M 19 12 L 19 16 L 23 16 L 23 12 Z M 16 12.5 C 15.554688 12.5 15.148438 12.691406 14.875 13 L 12 13 L 12 15 L 14.875 15 C 15.148438 15.308594 15.554688 15.5 16 15.5 C 16.828125 15.5 17.5 14.828125 17.5 14 C 17.5 13.171875 16.828125 12.5 16 12.5 Z "></path>
</g>
</svg>
