<?xml version="1.0" encoding="UTF-8"?>
<svg xmlns="http://www.w3.org/2000/svg" xmlns:xlink="http://www.w3.org/1999/xlink" viewBox="0 0 32 32" version="1.1">
<g>
<path d="M 16 3 C 14.136719 3 12.601563 4.273438 12.15625 6 L 3 6 L 3 26 L 16 26 L 15 25 L 16 24 L 5 24 L 5 19 L 18 19 L 18 18 L 22 18 L 23 17 L 5 17 L 5 8 L 27 8 L 27 17 L 28 18 L 29 18 L 29 6 L 19.84375 6 C 19.398438 4.273438 17.863281 3 16 3 Z M 16 5 C 16.808594 5 17.429688 5.386719 17.75 6 L 14.25 6 C 14.570313 5.386719 15.191406 5 16 5 Z M 16 14 C 15.449219 14 15 14.449219 15 15 C 15 15.550781 15.449219 16 16 16 C 16.550781 16 17 15.550781 17 15 C 17 14.449219 16.550781 14 16 14 Z M 25 17.929688 L 22.929688 20 L 20 20 L 20 22.929688 L 17.929688 25 L 20 27.070313 L 20 30 L 22.929688 30 L 25 32.070313 L 27.070313 30 L 30 30 L 30 27.070313 L 32.070313 25 L 30 22.929688 L 30 20 L 27.070313 20 Z M 25 20.757813 L 26.242188 22 L 28 22 L 28 23.757813 L 29.242188 25 L 28 26.242188 L 28 28 L 26.242188 28 L 25 29.242188 L 23.757813 28 L 22 28 L 22 26.242188 L 20.757813 25 L 22 23.757813 L 22 22 L 23.757813 22 Z "></path>
</g>
</svg>
