<?xml version="1.0" encoding="UTF-8"?>
<svg xmlns="http://www.w3.org/2000/svg" xmlns:xlink="http://www.w3.org/1999/xlink" viewBox="0 0 32 32" version="1.1">
<g>
<path d="M 8.5 5 L 8.1875 5.40625 L 5 9.65625 L 5 27 L 27 27 L 27 9.65625 L 23.8125 5.40625 L 23.5 5 Z M 9.5 7 L 15 7 L 15 9 L 8 9 Z M 17 7 L 22.5 7 L 24 9 L 17 9 Z M 7 11 L 25 11 L 25 25 L 7 25 Z M 12.71875 13 C 12.167969 13.078125 11.78125 13.589844 11.859375 14.140625 C 11.9375 14.691406 12.449219 15.078125 13 15 L 19 15 C 19.359375 15.003906 19.695313 14.816406 19.878906 14.503906 C 20.058594 14.191406 20.058594 13.808594 19.878906 13.496094 C 19.695313 13.183594 19.359375 12.996094 19 13 L 13 13 C 12.96875 13 12.9375 13 12.90625 13 C 12.875 13 12.84375 13 12.8125 13 C 12.78125 13 12.75 13 12.71875 13 Z M 19 18 L 18 19 L 18 21 L 20 21 L 20 19 Z M 23 18 L 22 19 L 22 21 L 24 21 L 24 19 Z M 18 22 L 18 24 L 24 24 L 24 22 Z "></path>
</g>
</svg>
