<?xml version="1.0" encoding="UTF-8"?>
<svg xmlns="http://www.w3.org/2000/svg" xmlns:xlink="http://www.w3.org/1999/xlink" viewBox="0 0 32 32" version="1.1">
<g>
<path d="M 5.800781 10 C 6.132813 10.011719 7.34375 8.394531 7.601563 8.199219 C 9.480469 10.773438 9.8125 11.769531 14.144531 15.679688 C 13.882813 13.898438 11.003906 8.640625 9.398438 7 C 10.183594 6.210938 11.34375 4.539063 11.800781 4 C 12.28125 5.386719 14.226563 10.933594 16 14.199219 C 17.355469 11.628906 19.621094 4.988281 19.601563 4 C 20.375 4.71875 21.695313 6.273438 22.550781 7.019531 C 20.878906 8.304688 18.355469 14.195313 17.3125 16.964844 C 17.183594 17.371094 17.199219 18.429688 17.199219 18.429688 C 18.136719 19.144531 21.425781 22.65625 22 23.199219 C 20.242188 15.292969 22.730469 9.980469 24.398438 8.199219 C 24.667969 8.480469 25.34375 9.128906 26.199219 10 C 25.3125 11.1875 23.871094 13.96875 23.800781 17.199219 C 23.695313 21.851563 24.347656 24.367188 25.601563 26.199219 C 25.039063 26.886719 24.59375 27.058594 23.800781 28 C 22.542969 26.847656 17.199219 21.75 17.199219 21.75 L 17.199219 25 C 17.238281 25.203125 16.996094 27.128906 17.800781 28 L 14.199219 28 C 14.789063 27.203125 14.785156 25.472656 14.800781 24.933594 L 14.800781 19.339844 C 14.105469 18.671875 10.742188 15.554688 10.4375 15.234375 C 10.804688 17.113281 10.808594 22.996094 8.199219 27.398438 C 7.984375 27.09375 5.757813 25.070313 5.800781 25 C 6.601563 23.742188 8.171875 20.441406 8.199219 17.800781 C 8.25 12.976563 6.574219 11.179688 5.800781 10 Z "></path>
</g>
</svg>
