<?xml version="1.0" encoding="UTF-8"?>
<svg xmlns="http://www.w3.org/2000/svg" xmlns:xlink="http://www.w3.org/1999/xlink" viewBox="0 0 32 32" version="1.1">
<g>
<path d="M 5 5 L 5 27 L 16 27 L 16 25 L 7 25 L 7 7 L 25 7 L 25 16 L 27 16 L 27 5 Z M 9 9 L 9 14 L 23 14 L 23 9 Z M 11 11 L 21 11 L 21 12 L 11 12 Z M 9 16 L 9 23 L 15 23 L 15 16 Z M 23 16 L 21 18 L 18 18 L 18 21 L 16 23 L 18 25 L 18 28 L 21 28 L 23 30 L 25 28 L 28 28 L 28 25 L 30 23 L 28 21 L 28 18 L 25 18 Z M 11 18 L 13 18 L 13 21 L 11 21 Z M 23 19 L 24 20 L 26 20 L 26 22 L 27 23 L 26 24 L 26 26 L 24 26 L 23 27 L 22 26 L 20 26 L 20 24 L 18.914063 23 L 20 22 L 20 20 L 22 20 Z "></path>
</g>
</svg>
