<?xml version="1.0" encoding="UTF-8"?>
<svg xmlns="http://www.w3.org/2000/svg" xmlns:xlink="http://www.w3.org/1999/xlink" viewBox="0 0 32 32" version="1.1">
<g>
<path d="M 7 -0.0625 L 6.28125 0.625 L 4.90625 2 L 2 2 L 2 4.90625 L 0.625 6.28125 L -0.0625 7 L 0.625 7.71875 L 2 9.09375 L 2 12 L 4.90625 12 L 6.28125 13.375 L 7 14.0625 L 7.71875 13.375 L 9.09375 12 L 12 12 L 12 9.09375 L 13.375 7.71875 L 14.0625 7 L 13.375 6.28125 L 12 4.90625 L 12 2 L 9.09375 2 L 7.71875 0.625 Z M 7 2.78125 L 7.9375 3.71875 L 8.25 4 L 10 4 L 10 5.75 L 10.28125 6.0625 L 11.21875 7 L 10.28125 7.9375 L 10 8.25 L 10 10 L 8.25 10 L 7.9375 10.28125 L 7 11.21875 L 6.0625 10.28125 L 5.75 10 L 4 10 L 4 8.25 L 3.71875 7.9375 L 2.78125 7 L 3.71875 6.0625 L 4 5.75 L 4 4 L 5.75 4 L 6.0625 3.71875 Z M 14 4 L 14 4.09375 L 15.90625 6 L 26 6 L 26 8 L 15.90625 8 L 14 9.90625 L 14 10 L 26 10 L 26 22 L 6 22 L 6 15.90625 L 4.09375 14 L 4 14 L 4 28 L 28 28 L 28 4 Z M 6 24 L 26 24 L 26 26 L 6 26 Z "></path>
</g>
</svg>
