<?xml version="1.0"?>
<svg xmlns="http://www.w3.org/2000/svg" viewBox="0 0 32 32">
    <path d="M 4 4 L 4 26 L 13.984375 26 L 13.984375 25.914062 L 12.070312 24.001953 L 6 24.001953 L 6 6 L 21 6 L 21 13.130859 L 23 15.132812 L 23 4 L 4 4 z M 8 8 L 8 10 L 12 10 L 12 8 L 8 8 z M 15 8 L 15 10 L 19 10 L 19 8 L 15 8 z M 8 12 L 8 14 L 12 14 L 12 12 L 8 12 z M 15 12 L 15 14 L 19 14 L 19 12 L 15 12 z M 20.984375 15.945312 L 18.914062 18.015625 L 15.984375 18.015625 L 15.984375 20.945312 L 13.914062 23.015625 L 15.984375 25.085938 L 15.984375 28.015625 L 18.914062 28.015625 L 20.984375 30.085938 L 23.054688 28.015625 L 25.984375 28.015625 L 25.984375 25.085938 L 28.054688 23.015625 L 25.984375 20.945312 L 25.984375 18.015625 L 23.054688 18.015625 L 20.984375 15.945312 z M 8 16 L 8 18 L 12 18 L 12 16 L 8 16 z M 20.984375 18.773438 L 22.226562 20.015625 L 23.984375 20.015625 L 23.984375 21.773438 L 25.226562 23.015625 L 23.984375 24.257812 L 23.984375 24.671875 L 23.984375 26.015625 L 22.226562 26.015625 L 20.984375 27.257812 L 19.742188 26.015625 L 17.984375 26.015625 L 17.984375 24.257812 L 16.742188 23.015625 L 17.984375 21.773438 L 17.984375 20.015625 L 19.742188 20.015625 L 20.984375 18.773438 z M 8 20 L 8 22 L 12 22 L 12 20 L 8 20 z"></path>
</svg>
