<?xml version="1.0" encoding="UTF-8"?>
<svg xmlns="http://www.w3.org/2000/svg" xmlns:xlink="http://www.w3.org/1999/xlink" viewBox="0 0 32 32" version="1.1">
<g>
<path d="M 11.5 3 C 9.578125 3 8 4.578125 8 6.5 C 8 8.421875 9.578125 10 11.5 10 C 13.421875 10 15 8.421875 15 6.5 C 15 4.578125 13.421875 3 11.5 3 Z M 20.5 3 C 18.578125 3 17 4.578125 17 6.5 C 17 8.734375 16.105469 10.550781 16.105469 10.550781 L 15.78125 11.199219 L 16.292969 11.707031 C 16.292969 11.707031 16.457031 11.855469 16.722656 12.03125 L 15.675781 13.433594 C 15.0625 12.007813 13.640625 11 12 11 L 10 11 C 7.800781 11 6 12.800781 6 15 L 6 21.234375 L 8 22.234375 L 8 29 L 10 29 L 10 21 L 8 20 L 8 15 C 8 13.882813 8.882813 13 10 13 L 12 13 C 13.117188 13 14 13.882813 14 15 L 14 15.667969 L 11.199219 19.402344 L 12.800781 20.597656 L 17.203125 14.730469 L 17.441406 16.621094 C 15.605469 18.089844 14.863281 20.726563 14.453125 23.078125 C 14 25.679688 14 28 14 28 L 14 29 L 27 29 L 27 28 C 27 28 27 25.679688 26.546875 23.078125 C 26.292969 21.632813 25.914063 20.085938 25.234375 18.765625 L 27.21875 14.800781 L 24.378906 11.964844 C 24.585938 11.816406 24.707031 11.707031 24.707031 11.707031 L 25.21875 11.199219 L 24.894531 10.550781 C 24.894531 10.550781 24 8.734375 24 6.5 C 24 4.578125 22.421875 3 20.5 3 Z M 11.5 5 C 12.339844 5 13 5.660156 13 6.5 C 13 7.339844 12.339844 8 11.5 8 C 10.660156 8 10 7.339844 10 6.5 C 10 5.660156 10.660156 5 11.5 5 Z M 20.5 5 C 21.339844 5 22 5.660156 22 6.5 C 22 8.4375 22.449219 9.773438 22.773438 10.589844 C 22.335938 10.78125 21.613281 11 20.5 11 C 19.386719 11 18.664063 10.78125 18.226563 10.589844 C 18.550781 9.773438 19 8.4375 19 6.5 C 19 5.660156 19.660156 5 20.5 5 Z M 19.011719 13 L 21.988281 13 C 21.992188 13.019531 22 13.023438 21.996094 13.046875 L 21.996094 13.058594 L 21.421875 17.535156 L 22.003906 17.871094 C 23.191406 18.546875 24.15625 21.023438 24.578125 23.421875 C 24.90625 25.296875 24.890625 26.328125 24.90625 27 L 16.09375 27 C 16.109375 26.328125 16.09375 25.296875 16.421875 23.421875 C 16.84375 21.023438 17.808594 18.546875 18.996094 17.871094 L 19.578125 17.535156 L 19.492188 16.875 L 19.003906 13.058594 L 19.003906 13.046875 C 19 13.023438 19.007813 13.019531 19.011719 13 Z M 23.855469 14.269531 L 24.78125 15.199219 L 23.90625 16.949219 C 23.789063 16.839844 23.683594 16.71875 23.558594 16.621094 Z "></path>
</g>
</svg>
