<?xml version="1.0" encoding="UTF-8"?>
<svg xmlns="http://www.w3.org/2000/svg" xmlns:xlink="http://www.w3.org/1999/xlink" viewBox="0 0 32 32" version="1.1">
<g>
<path d="M 10.402344 2.796875 L 9.664063 3.054688 C 8.308594 3.535156 4.84375 5.308594 1.359375 8.234375 L 0.945313 8.578125 L 1.007813 9.109375 C 1.007813 9.109375 1.328125 12.078125 2.023438 15.21875 L 2.132813 15.703125 L 2.585938 15.910156 C 3.1875 16.183594 4.722656 17.082031 5.371094 17.511719 C 6.308594 22.351563 10.558594 26 15.671875 26 C 16.832031 26 17.984375 25.8125 19.058594 25.441406 C 20.09375 26.527344 21.125 27.667969 22.332031 28.746094 L 22.898438 29.25 L 23.535156 28.84375 C 26.019531 27.265625 29.785156 23.667969 30.945313 20.328125 L 31 20.167969 L 31 20 C 31 18.152344 30.484375 14.839844 28.824219 12.433594 L 28.5625 12.050781 L 28.105469 12.003906 C 27.257813 11.917969 26.175781 11.710938 25.359375 11.464844 C 23.792969 7.660156 20.011719 5 15.671875 5 C 14.515625 5 13.40625 5.195313 12.363281 5.539063 C 11.816406 4.816406 11.324219 4.183594 10.832031 3.445313 Z M 9.695313 5.269531 C 9.957031 5.636719 10.230469 6.003906 10.5 6.367188 C 7.4375 8.101563 5.347656 11.332031 5.195313 15.066406 C 4.769531 14.832031 4.335938 14.59375 3.953125 14.402344 C 4.0625 13.277344 4.65625 11.949219 5 11.546875 C 4.492188 10.816406 3.753906 10.089844 3.097656 9.523438 C 3.097656 9.515625 3.089844 9.464844 3.085938 9.453125 C 5.871094 7.214844 8.527344 5.78125 9.695313 5.269531 Z M 15.671875 7 C 18.789063 7 21.53125 8.707031 23 11.214844 L 23 15.859375 C 22.949219 16.125 22.542969 17.292969 21.671875 18.515625 C 20.792969 19.753906 19.453125 21.117188 17.539063 22.113281 L 16.253906 22.78125 L 17.332031 23.746094 C 17.363281 23.773438 17.390625 23.800781 17.417969 23.828125 C 16.855469 23.941406 16.265625 24 15.671875 24 C 10.9375 24 7.171875 20.234375 7.171875 15.5 C 7.171875 10.765625 10.9375 7 15.671875 7 Z M 12.667969 8.8125 C 12.375 8.855469 12.039063 9.007813 11.734375 9.253906 C 11.121094 9.742188 10.8125 10.417969 11.121094 10.785156 C 11.363281 11.152344 12.101563 11.03125 12.714844 10.542969 C 13.328125 10.050781 13.570313 9.378906 13.328125 9.007813 C 13.203125 8.824219 12.960938 8.765625 12.667969 8.8125 Z M 17.476563 10.265625 C 17.066406 10.265625 16.636719 10.480469 16.332031 10.863281 C 15.84375 11.476563 15.902344 12.335938 16.453125 12.765625 C 17.007813 13.195313 17.804688 13.011719 18.296875 12.398438 C 18.785156 11.785156 18.722656 10.925781 18.171875 10.5 C 17.964844 10.335938 17.722656 10.261719 17.476563 10.265625 Z M 25 13.40625 C 25.707031 13.617188 26.398438 13.765625 27.078125 13.863281 C 27.085938 14.199219 27.078125 14.589844 27 15 C 26.746094 16.652344 26.445313 18.425781 26 19 C 26.882813 19.324219 27.957031 19.566406 28.945313 19.847656 C 28.09375 22.03125 25.074219 25.148438 23.046875 26.636719 C 21.894531 25.523438 20.761719 24.328125 19.546875 23.132813 C 21.160156 22.074219 22.460938 20.855469 23.300781 19.675781 C 24.332031 18.222656 24.835938 17.003906 24.984375 16.171875 L 25 16.089844 Z M 9 14 L 8 14.335938 C 8 15.5 8.4375 19.40625 11.933594 20.570313 C 14.09375 21.421875 16.511719 21.042969 18.972656 19.003906 L 17.40625 17.515625 C 16.15625 18.890625 13.945313 19.179688 12.351563 18.6875 C 9.347656 17.769531 9.0625 15.164063 9 14 Z "></path>
</g>
</svg>
