<?xml version="1.0"?>
<svg xmlns="http://www.w3.org/2000/svg" viewBox="0 0 32 32">
    <path d="M 11 4 C 6.593562 4 3 7.593562 3 12 C 3 13.268276 3.4975235 14.672446 4.1777344 16.220703 C 4.8579453 17.76896 5.7481364 19.42275 6.6347656 20.951172 C 8.4080241 24.008016 10.177734 26.568359 10.177734 26.568359 L 11 27.759766 L 11.822266 26.568359 C 11.822266 26.568359 13.591976 24.008016 15.365234 20.951172 C 16.251864 19.42275 17.142055 17.76896 17.822266 16.220703 C 18.502477 14.672446 19 13.268276 19 12 C 19 7.593562 15.406438 4 11 4 z M 21.457031 4.9179688 L 20.042969 6.3320312 L 26.210938 12.5 L 20.042969 18.667969 L 21.457031 20.082031 L 29.039062 12.5 L 21.457031 4.9179688 z M 11 6 C 14.325562 6 17 8.674438 17 12 C 17 12.664724 16.622523 13.976835 15.990234 15.416016 C 15.357945 16.855196 14.498136 18.458938 13.634766 19.947266 C 12.318783 22.215832 11.552819 23.305801 11 24.126953 C 10.447181 23.305801 9.6812174 22.215832 8.3652344 19.947266 C 7.5018636 18.458938 6.6420547 16.855196 6.0097656 15.416016 C 5.3774765 13.976835 5 12.664724 5 12 C 5 8.674438 7.674438 6 11 6 z M 11 10 A 2 2 0 0 0 9 12 A 2 2 0 0 0 11 14 A 2 2 0 0 0 13 12 A 2 2 0 0 0 11 10 z" font-weight="400" font-family="sans-serif" white-space="normal" overflow="visible"></path>
</svg>
