<?xml version="1.0"?>
<svg xmlns="http://www.w3.org/2000/svg" viewBox="0 0 32 32">
    <path d="M 7 4 C 5.3550302 4 4 5.3550302 4 7 L 4 25 C 4 26.64497 5.3550302 28 7 28 L 25 28 C 26.64497 28 28 26.64497 28 25 L 28 7 C 28 5.3550302 26.64497 4 25 4 L 7 4 z M 7 6 L 25 6 C 25.56503 6 26 6.4349698 26 7 L 26 25 C 26 25.56503 25.56503 26 25 26 L 7 26 C 6.4349698 26 6 25.56503 6 25 L 6 7 C 6 6.4349698 6.4349698 6 7 6 z M 11 8 C 9.3550302 8 8 9.3550302 8 11 L 8 16.414062 L 15.585938 24 L 21 24 C 22.64497 24 24 22.64497 24 21 L 24 11 C 24 9.3550302 22.64497 8 21 8 L 11 8 z M 11 10 L 21 10 C 21.56503 10 22 10.43497 22 11 L 22 21 C 22 21.56503 21.56503 22 21 22 L 16.414062 22 L 10 15.585938 L 10 11 C 10 10.43497 10.43497 10 11 10 z M 9.5 21 A 1.5 1.5 0 0 0 8 22.5 A 1.5 1.5 0 0 0 9.5 24 A 1.5 1.5 0 0 0 11 22.5 A 1.5 1.5 0 0 0 9.5 21 z" font-weight="400" font-family="sans-serif" white-space="normal" overflow="visible"></path>
</svg>
