<?xml version="1.0"?>
<svg xmlns="http://www.w3.org/2000/svg" viewBox="0 0 32 32">
    <path d="M 14.199219 3.1308594 C 13.449219 3.2308594 12.719531 3.4008594 12.019531 3.6308594 C 11.319531 3.8508594 10.649531 4.1309375 10.019531 4.4609375 C 9.3695312 4.8009375 8.7499219 5.1908594 8.1699219 5.6308594 C 5.0299219 8.0008594 3 11.77 3 16 C 3 23.17 8.83 29 16 29 C 23.17 29 29 23.17 29 16 C 29 11.77 26.970078 8.0008594 23.830078 5.6308594 C 23.250078 5.1908594 22.630469 4.8009375 21.980469 4.4609375 C 21.350469 4.1309375 20.680469 3.8508594 19.980469 3.6308594 C 19.280469 3.4008594 18.550781 3.2308594 17.800781 3.1308594 C 17.930781 3.3908594 18 3.69 18 4 C 18 4.42 17.870391 4.8108594 17.650391 5.1308594 C 17.290391 5.6508594 16.68 6 16 6 C 15.32 6 14.709609 5.6508594 14.349609 5.1308594 C 14.129609 4.8108594 14 4.42 14 4 C 14 3.845 14.017031 3.693125 14.050781 3.546875 C 14.084531 3.400625 14.134219 3.2608594 14.199219 3.1308594 z M 12.349609 5.6191406 C 12.639609 6.2991406 13.130469 6.8790625 13.730469 7.2890625 C 14.380469 7.7390625 15.16 8 16 8 C 16.84 8 17.619531 7.7390625 18.269531 7.2890625 C 18.869531 6.8790625 19.360391 6.2991406 19.650391 5.6191406 C 20.290391 5.8391406 20.900703 6.1209375 21.470703 6.4609375 C 22.060703 6.7909375 22.610859 7.1791406 23.130859 7.6191406 C 25.500859 9.6391406 27 12.65 27 16 C 27 22.07 22.07 27 16 27 C 9.93 27 5 22.07 5 16 C 5 12.65 6.4991406 9.6391406 8.8691406 7.6191406 C 9.3891406 7.1791406 9.9392969 6.7909375 10.529297 6.4609375 C 11.099297 6.1209375 11.709609 5.8391406 12.349609 5.6191406 z M 11.650391 8.1191406 C 11.060391 8.4491406 10.509766 8.8390625 10.009766 9.2890625 C 8.1597656 10.939062 7 13.34 7 16 C 7 20.96 11.04 25 16 25 C 20.96 25 25 20.96 25 16 C 25 13.34 23.840234 10.939063 21.990234 9.2890625 C 21.490234 8.8390625 20.939609 8.4491406 20.349609 8.1191406 C 19.829609 8.6791406 19.190469 9.1409375 18.480469 9.4609375 C 17.730469 9.8109375 16.89 10 16 10 C 15.11 10 14.269531 9.8109375 13.519531 9.4609375 C 12.809531 9.1409375 12.170391 8.6791406 11.650391 8.1191406 z M 11.529297 10.619141 C 12.799297 11.489141 14.35 12 16 12 C 17.65 12 19.200703 11.489141 20.470703 10.619141 C 22.020703 11.899141 23 13.84 23 16 C 23 19.86 19.86 23 16 23 C 12.14 23 9 19.86 9 16 C 9 13.84 9.9792969 11.899141 11.529297 10.619141 z"></path>
</svg>
