<?xml version="1.0" encoding="UTF-8"?>
<svg xmlns="http://www.w3.org/2000/svg" xmlns:xlink="http://www.w3.org/1999/xlink" viewBox="0 0 32 32" version="1.1">
<g>
<path d="M 16 4.0625 C 14.210938 4.0625 12.4375 4.75 11.09375 6.09375 L 12.5 7.5 C 14.410156 5.589844 17.574219 5.597656 19.59375 7.53125 L 21 6.0625 C 19.609375 4.730469 17.789063 4.0625 16 4.0625 Z M 9 7 L 9 26 C 9 27.101563 9.898438 28 11 28 L 21 28 C 22.101563 28 23 27.101563 23 26 L 23 7 L 21 9 L 21 26 L 11 26 L 11 9 Z M 16.0625 7 C 15.035156 7 13.972656 7.402344 13.1875 8.1875 L 14.59375 9.59375 C 15.421875 8.765625 16.664063 8.785156 17.375 9.5625 L 18.84375 8.21875 C 18.101563 7.40625 17.089844 7 16.0625 7 Z M 16 10 C 15.449219 10 15 10.449219 15 11 C 15 11.550781 15.449219 12 16 12 C 16.550781 12 17 11.550781 17 11 C 17 10.449219 16.550781 10 16 10 Z M 14.5 23 L 14.5 25 L 17.5 25 L 17.5 23 Z "></path>
</g>
</svg>
