<?xml version="1.0" encoding="UTF-8"?>
<svg xmlns="http://www.w3.org/2000/svg" xmlns:xlink="http://www.w3.org/1999/xlink" viewBox="0 0 32 32" version="1.1">
<g>
<path d="M 9 4 C 6.253906 4 4 6.253906 4 9 L 4 23 C 4 25.746094 6.253906 28 9 28 L 23 28 C 25.746094 28 28 25.746094 28 23 L 28 9 C 28 6.253906 25.746094 4 23 4 Z M 9 6 L 9 23 C 9 24.128906 9.390625 25.160156 10.03125 26 L 9 26 C 7.34375 26 6 24.65625 6 23 L 6 9 C 6 7.34375 7.34375 6 9 6 Z M 9.25 6 L 23 6 C 24.65625 6 26 7.34375 26 9 L 26 23 C 26 24.65625 24.65625 26 23 26 L 14 26 C 12.34375 26 11 24.65625 11 23 L 11 10.21875 L 18.34375 16.75 L 19.65625 15.25 Z M 13.65625 15.25 L 12.34375 16.75 L 18.34375 22.0625 L 19.65625 20.5625 Z "></path>
</g>
</svg>
