<?xml version="1.0" encoding="UTF-8"?>
<svg xmlns="http://www.w3.org/2000/svg" xmlns:xlink="http://www.w3.org/1999/xlink" viewBox="0 0 32 32" version="1.1">
<g>
<path d="M 2 8 L 2 24 L 24 24 L 24 20.625 L 30 23.625 L 30 8.375 L 24 11.375 L 24 8 Z M 4 10 L 22 10 L 22 22 L 4 22 Z M 28 11.625 L 28 20.375 L 24 18.375 L 24 13.625 Z M 9 12 C 8.449219 12 8 12.449219 8 13 C 8 13.550781 8.449219 14 9 14 C 9.550781 14 10 13.550781 10 13 C 10 12.449219 9.550781 12 9 12 Z M 15 12 C 12.789063 12 11 13.789063 11 16 C 11 18.210938 12.789063 20 15 20 C 16.066406 20 17.03125 19.589844 17.75 18.90625 C 17.507813 18.96875 17.261719 19 17 19 C 15.34375 19 14 17.65625 14 16 C 14 14.34375 15.34375 13 17 13 C 17.261719 13 17.507813 13.03125 17.75 13.09375 C 17.523438 12.878906 17.273438 12.691406 17 12.53125 C 16.414063 12.1875 15.730469 12 15 12 Z "></path>
</g>
</svg>
