<?xml version="1.0" encoding="UTF-8"?>
<svg xmlns="http://www.w3.org/2000/svg" xmlns:xlink="http://www.w3.org/1999/xlink" viewBox="0 0 32 32" version="1.1">
<g>
<path d="M 12.5 3.96875 C 10.710938 3.96875 9.230469 5.304688 9 7.03125 C 8.289063 7.109375 7.65625 7.433594 7.15625 7.875 C 6.585938 8.378906 6.160156 9.03125 5.8125 9.71875 C 5.175781 10.976563 3.46875 14.875 3.46875 14.875 L 3.5 14.875 C 3.191406 15.523438 3 16.238281 3 17 L 3 19 C 3 21.746094 5.253906 24 8 24 L 10.8125 24 C 11.855469 25.785156 13.792969 27 16 27 C 18.207031 27 20.144531 25.785156 21.1875 24 L 24 24 C 26.746094 24 29 21.746094 29 19 L 29 17 C 29 16.371094 28.871094 15.773438 28.65625 15.21875 C 28.65625 15.21875 28.597656 15.070313 28.59375 15.0625 C 28.585938 15.039063 28.570313 15.023438 28.5625 15 C 28.402344 14.632813 26.804688 10.933594 26.1875 9.71875 C 25.839844 9.03125 25.414063 8.378906 24.84375 7.875 C 24.34375 7.433594 23.710938 7.109375 23 7.03125 C 22.769531 5.304688 21.289063 3.96875 19.5 3.96875 C 18.527344 3.96875 17.640625 4.359375 17 5 L 17 4.96875 L 15 4.96875 L 15 5 C 14.359375 4.359375 13.472656 3.96875 12.5 3.96875 Z M 12.5 6.03125 C 13.136719 6.03125 13.671875 6.433594 13.875 7 L 11.125 7 C 11.328125 6.433594 11.863281 6.03125 12.5 6.03125 Z M 19.5 6.03125 C 20.136719 6.03125 20.671875 6.433594 20.875 7 L 18.125 7 C 18.328125 6.433594 18.863281 6.03125 19.5 6.03125 Z M 9.3125 9 L 22.6875 9 C 22.957031 9 23.195313 9.105469 23.5 9.375 C 23.804688 9.644531 24.140625 10.097656 24.40625 10.625 C 24.53125 10.875 24.847656 11.589844 25.09375 12.125 C 24.738281 12.042969 24.378906 12 24 12 L 8 12 C 7.621094 12 7.261719 12.042969 6.90625 12.125 C 7.15625 11.585938 7.457031 10.890625 7.59375 10.625 C 7.859375 10.097656 8.164063 9.644531 8.46875 9.375 C 8.773438 9.105469 9.042969 9 9.3125 9 Z M 8 14 L 24 14 C 25.65625 14 27 15.34375 27 17 L 27 19 C 27 20.65625 25.65625 22 24 22 L 21.90625 22 C 21.960938 21.679688 22 21.335938 22 21 C 22 17.699219 19.300781 15 16 15 C 12.699219 15 10 17.699219 10 21 C 10 21.335938 10.039063 21.679688 10.09375 22 L 8 22 C 6.34375 22 5 20.65625 5 19 L 5 17 C 5 15.34375 6.34375 14 8 14 Z M 16 17 C 18.222656 17 20 18.78125 20 21 C 20 23.21875 18.222656 25 16 25 C 13.777344 25 12 23.21875 12 21 C 12 18.78125 13.777344 17 16 17 Z "></path>
</g>
</svg>
