<?xml version="1.0" encoding="UTF-8"?>
<svg xmlns="http://www.w3.org/2000/svg" xmlns:xlink="http://www.w3.org/1999/xlink" viewBox="0 0 32 32" version="1.1">
<g>
<path d="M 21 4 C 19.355469 4 18 5.355469 18 7 C 18 8.644531 19.355469 10 21 10 C 21.523438 10 21.820313 9.90625 21.6875 9.90625 L 21.6875 7.90625 C 21.152344 7.90625 21.078125 8 21 8 C 20.445313 8 20 7.554688 20 7 C 20 6.445313 20.445313 6 21 6 C 21.078125 6 21.261719 6.054688 21.34375 6.09375 L 22.25 4.3125 C 21.929688 4.152344 21.523438 4 21 4 Z M 27 6 C 26.449219 6 26 6.449219 26 7 C 26 7.550781 26.449219 8 27 8 C 27.550781 8 28 7.550781 28 7 C 28 6.449219 27.550781 6 27 6 Z M 25 9 C 24.449219 9 24 9.449219 24 10 C 24 10.550781 24.449219 11 25 11 C 25.550781 11 26 10.550781 26 10 C 26 9.449219 25.550781 9 25 9 Z M 13 10 C 9.699219 10 7 12.699219 7 16 C 7 17.984375 7.976563 19.75 9.46875 20.84375 C 6.824219 22.148438 5 24.84375 5 28 L 7 28 C 7 24.628906 9.628906 22 13 22 C 16.371094 22 19 24.628906 19 28 L 21 28 C 21 24.84375 19.175781 22.148438 16.53125 20.84375 C 18.023438 19.75 19 17.984375 19 16 C 19 12.699219 16.300781 10 13 10 Z M 13 12 C 15.222656 12 17 13.777344 17 16 C 17 18.222656 15.222656 20 13 20 C 10.777344 20 9 18.222656 9 16 C 9 13.777344 10.777344 12 13 12 Z "></path>
</g>
</svg>
