<?xml version="1.0" encoding="UTF-8"?>
<svg xmlns="http://www.w3.org/2000/svg" xmlns:xlink="http://www.w3.org/1999/xlink" viewBox="0 0 32 32" version="1.1">
<g>
<path d="M 16 3 C 9.945313 3 5 7.839844 5 13.8125 C 5 14.40625 5.101563 16.113281 5.4375 17.90625 C 5.1875 18.140625 4.941406 18.429688 4.6875 18.78125 C 3.808594 19.992188 3 21.964844 3 25 L 5 25 C 5 22.75 5.476563 21.347656 6 20.4375 L 6 27 L 8 27 L 8 24.0625 C 8.585938 24.90625 9.265625 25.691406 10.03125 26.375 C 11.753906 27.914063 13.832031 29 16 29 C 18.167969 29 20.246094 27.914063 21.96875 26.375 C 23.5 25.007813 24.695313 23.242188 25.46875 21.375 L 25.5625 21.375 L 25.8125 20.71875 C 25.816406 20.710938 25.808594 20.695313 25.8125 20.6875 C 26.785156 18.179688 27 14.722656 27 13.8125 C 27 7.839844 22.054688 3 16 3 Z M 16 5 C 20.992188 5 25 8.941406 25 13.8125 C 25 14.222656 24.746094 17.515625 24.09375 19.53125 C 23.734375 19.941406 20.898438 23 17 23 L 17 25 C 18.796875 25 20.371094 24.507813 21.6875 23.84375 C 21.359375 24.226563 20.992188 24.578125 20.625 24.90625 C 19.160156 26.214844 17.484375 27 16 27 C 14.515625 27 12.839844 26.214844 11.375 24.90625 C 9.910156 23.597656 8.691406 21.785156 8.09375 20.03125 L 7.96875 19.6875 C 7.28125 17.691406 7 14.234375 7 13.8125 C 7 13.625 7.019531 13.4375 7.03125 13.25 C 7.375 12.671875 9.199219 10 14 10 L 14 8 C 11.449219 8 9.503906 8.734375 8.09375 9.625 C 9.613281 6.878906 12.566406 5 16 5 Z M 16 11 C 16 11 14.132813 11.003906 12.21875 11.5625 C 11.261719 11.839844 10.257813 12.269531 9.4375 12.96875 C 8.617188 13.667969 8 14.722656 8 16 C 8 17.40625 8.96875 18.347656 9.78125 18.6875 C 10.59375 19.027344 11.34375 19 11.34375 19 L 11.4375 19 L 11.53125 18.96875 L 16 18 L 20.46875 18.96875 L 20.5625 19 L 20.65625 19 C 20.65625 19 21.40625 19.027344 22.21875 18.6875 C 23.03125 18.347656 24 17.40625 24 16 C 24 14.722656 23.382813 13.667969 22.5625 12.96875 C 21.742188 12.269531 20.738281 11.839844 19.78125 11.5625 C 17.867188 11.003906 16 11 16 11 Z M 16 13 C 16 13 17.632813 13.039063 19.21875 13.5 C 20.011719 13.730469 20.757813 14.050781 21.25 14.46875 C 21.742188 14.886719 22 15.316406 22 16 C 22 16.648438 21.789063 16.695313 21.4375 16.84375 C 21.097656 16.984375 20.75 17 20.71875 17 L 20.6875 17 L 16.21875 16.03125 L 16 15.96875 L 15.78125 16.03125 L 11.3125 17 C 11.3125 17 11.28125 17 11.28125 17 C 11.25 17 10.902344 16.984375 10.5625 16.84375 C 10.210938 16.695313 10 16.648438 10 16 C 10 15.316406 10.257813 14.886719 10.75 14.46875 C 11.242188 14.050781 11.988281 13.730469 12.78125 13.5 C 14.367188 13.039063 16 13 16 13 Z M 13 14 C 12.449219 14 12 14.449219 12 15 C 12 15.550781 12.449219 16 13 16 C 13.550781 16 14 15.550781 14 15 C 14 14.449219 13.550781 14 13 14 Z M 19 14 C 18.449219 14 18 14.449219 18 15 C 18 15.550781 18.449219 16 19 16 C 19.550781 16 20 15.550781 20 15 C 20 14.449219 19.550781 14 19 14 Z "></path>
</g>
</svg>
