<?xml version="1.0" encoding="UTF-8"?>
<svg xmlns="http://www.w3.org/2000/svg" xmlns:xlink="http://www.w3.org/1999/xlink" viewBox="0 0 32 32" version="1.1">
<g>
<path d="M 16 5 C 12.125 5 8.875 7.199219 7.21875 10.40625 C 6.453125 10.542969 5.6875 10.6875 5.6875 10.6875 L 5.09375 14 C 5.09375 14 5.28125 14.136719 5.59375 14.34375 C 4.035156 15.613281 3 17.21875 3 19 C 3 20.609375 3.746094 22.085938 4.9375 23.25 C 6.066406 24.351563 7.628906 25.183594 9.40625 25.8125 C 10.996094 27.976563 13.691406 29 16 29 C 18.308594 29 21.003906 27.976563 22.59375 25.8125 C 24.371094 25.183594 25.933594 24.351563 27.0625 23.25 C 28.253906 22.085938 29 20.609375 29 19 C 29 17.148438 27.96875 15.574219 26.5 14.34375 C 26.796875 14.144531 27 14 27 14 L 26.9375 13.75 C 27.304688 13.59375 27.730469 13.351563 28.15625 12.96875 C 29.117188 12.105469 30 10.515625 30 8 L 28 8 C 28 10.082031 27.382813 10.984375 26.84375 11.46875 C 26.785156 11.519531 26.742188 11.550781 26.6875 11.59375 C 26.707031 11.496094 26.730469 11.460938 26.75 11.34375 C 26.886719 10.5 27 9.140625 27 7 L 25 7 C 25 8.671875 24.90625 9.71875 24.8125 10.46875 C 23.164063 7.238281 19.890625 5 16 5 Z M 16 7 C 18.597656 7 20.859375 8.203125 22.3125 10.09375 C 21.851563 10.027344 21.40625 10 21 10 C 19 10 18.101563 11 16 11 C 13.898438 11 13 10 11 10 C 10.621094 10 10.160156 10.054688 9.71875 10.09375 C 11.171875 8.210938 13.40625 7 16 7 Z M 11.09375 11.90625 C 12.570313 11.90625 13.972656 12.785156 14.53125 13.1875 C 13.960938 13.316406 13.394531 13.519531 12.875 13.78125 C 12.773438 13.394531 12.417969 13.09375 12 13.09375 C 11.503906 13.09375 11.09375 13.503906 11.09375 14 C 11.09375 14.269531 11.214844 14.523438 11.40625 14.6875 C 9.90625 14.886719 8.09375 14 8.09375 14 C 8.09375 14 9.195313 11.90625 11.09375 11.90625 Z M 20.8125 11.90625 C 22.710938 11.90625 23.8125 14 23.8125 14 C 23.8125 14 22.09375 14.886719 20.59375 14.6875 C 20.785156 14.523438 20.90625 14.269531 20.90625 14 C 20.90625 13.503906 20.496094 13.09375 20 13.09375 C 19.582031 13.09375 19.226563 13.394531 19.125 13.78125 C 18.578125 13.507813 17.976563 13.3125 17.375 13.1875 C 17.933594 12.785156 19.335938 11.90625 20.8125 11.90625 Z M 16 15 C 18.074219 15 19.960938 16.320313 21.125 18.46875 L 22.875 17.53125 C 22.472656 16.789063 21.964844 16.128906 21.40625 15.53125 C 21.886719 15.859375 22.1875 16.09375 22.1875 16.09375 C 23.027344 16.019531 23.894531 15.726563 24.65625 15.375 C 26.140625 16.429688 27 17.710938 27 19 C 27 19.992188 26.5625 20.925781 25.65625 21.8125 C 24.75 22.699219 23.375 23.5 21.6875 24.0625 L 21.34375 24.15625 L 21.15625 24.46875 C 20.105469 26.085938 17.78125 27 16 27 C 14.21875 27 11.894531 26.085938 10.84375 24.46875 L 10.65625 24.15625 L 10.3125 24.0625 C 8.625 23.5 7.25 22.699219 6.34375 21.8125 C 5.4375 20.925781 5 19.992188 5 19 C 5 17.757813 5.816406 16.371094 7.4375 15.3125 C 8.210938 15.617188 9.15625 15.84375 10.21875 15.9375 C 9.8125 16.429688 9.4375 16.957031 9.125 17.53125 L 10.875 18.46875 C 12.039063 16.320313 13.925781 15 16 15 Z M 19.28125 19.28125 C 18.632813 19.929688 18.019531 20.316406 16.9375 20.59375 C 15.855469 20.871094 14.316406 21 12 21 L 12 23 C 14.386719 23 16.070313 22.878906 17.4375 22.53125 C 18.804688 22.183594 19.867188 21.570313 20.71875 20.71875 Z "></path>
</g>
</svg>
