<?xml version="1.0" encoding="UTF-8"?>
<svg xmlns="http://www.w3.org/2000/svg" xmlns:xlink="http://www.w3.org/1999/xlink" viewBox="0 0 32 32" version="1.1">
<g>
<path d="M 16 3 C 14.355469 3 13 4.355469 13 6 C 13 7.644531 14.355469 9 16 9 C 17.644531 9 19 7.644531 19 6 C 19 4.355469 17.644531 3 16 3 Z M 16 5 C 16.5625 5 17 5.4375 17 6 C 17 6.5625 16.5625 7 16 7 C 15.4375 7 15 6.5625 15 6 C 15 5.4375 15.4375 5 16 5 Z M 22.21875 5.375 L 18.375 10 L 12.5 10 L 12.1875 10.40625 L 9 14.65625 L 9 19 L 11 19 L 11 15.34375 L 13 12.65625 L 13 20 L 12 28.875 L 14 29.125 L 14.90625 21 L 17.09375 21 L 18 29.125 L 20 28.875 L 19 20 L 19 12.65625 L 21 15.34375 L 21 19 L 23 19 L 23 14.65625 L 22.8125 14.40625 L 20.1875 10.9375 L 23.78125 6.625 Z "></path>
</g>
</svg>
