<?xml version="1.0" encoding="UTF-8"?>
<svg xmlns="http://www.w3.org/2000/svg" xmlns:xlink="http://www.w3.org/1999/xlink" viewBox="0 0 32 32" version="1.1">
<g>
<path d="M 6 6 C 4.355469 6 3 7.355469 3 9 L 3 23 C 3 24.644531 4.355469 26 6 26 L 26 26 C 27.644531 26 29 24.644531 29 23 L 29 9 C 29 7.355469 27.644531 6 26 6 Z M 6 8 L 10 8 L 10 15 C 10 18.300781 12.699219 21 16 21 C 19.300781 21 22 18.300781 22 15 L 22 8 L 26 8 C 26.566406 8 27 8.433594 27 9 L 27 23 C 27 23.566406 26.566406 24 26 24 L 6 24 C 5.433594 24 5 23.566406 5 23 L 5 9 C 5 8.433594 5.433594 8 6 8 Z M 12 8 L 20 8 L 20 15 C 20 17.21875 18.21875 19 16 19 C 13.78125 19 12 17.21875 12 15 Z "></path>
</g>
</svg>
