<?xml version="1.0" encoding="UTF-8"?>
<svg xmlns="http://www.w3.org/2000/svg" xmlns:xlink="http://www.w3.org/1999/xlink" viewBox="0 0 32 32" version="1.1">
<g>
<path d="M 6 3 L 6 10 L 8 10 L 8 5 L 24 5 L 24 10 L 24.9375 10 L 24.0625 12.6875 L 22.0625 18.6875 L 22 18.84375 L 22 20 L 24 20 L 24 19.125 L 24.03125 19 L 25.96875 19 L 26 19.125 L 26 20 L 28 20 L 28 18.84375 L 27.9375 18.6875 L 25.9375 12.6875 L 25.0625 10 L 26 10 L 26 3 Z M 3 12 L 3 20 L 5 20 L 5 17 L 6 18.34375 L 6 20 L 8 20 L 8 12 L 6 12 L 6 15 L 5 13.65625 L 5 12 Z M 9 12 L 9 20 L 11 20 L 11 15.34375 L 11.1875 15.59375 L 12 16.65625 L 12.8125 15.59375 L 13 15.34375 L 13 20 L 15 20 L 15 12 L 13 12 L 12.6875 12.40625 L 12 13.3125 L 11.3125 12.40625 L 11 12 Z M 16 12 L 16 20 L 21 20 L 21 18 L 18 18 L 18 17 L 20 17 L 20 15 L 18 15 L 18 14 L 21 14 L 21 12 Z M 25 16.125 L 25.28125 17 L 24.71875 17 Z M 6 22 L 6 29 L 26 29 L 26 22 L 24 22 L 24 27 L 8 27 L 8 22 Z "></path>
</g>
</svg>
