<?xml version="1.0" encoding="UTF-8"?>
<svg xmlns="http://www.w3.org/2000/svg" xmlns:xlink="http://www.w3.org/1999/xlink" viewBox="0 0 32 32" version="1.1">
<g>
<path d="M 15.507813 2.09375 L 14.09375 3.507813 L 16.617188 6.03125 C 16.410156 6.019531 16.210938 6 16 6 C 13.609375 6 11.417969 6.867188 9.695313 8.28125 L 3.707031 2.292969 L 2.292969 3.707031 L 28.292969 29.707031 L 29.707031 28.292969 L 23.71875 22.304688 C 25.136719 20.582031 26 18.390625 26 16 C 26 14.5 25.699219 13.101563 25.097656 11.902344 L 23.597656 13.402344 C 23.898438 14.199219 24 15.101563 24 16 C 24 17.839844 23.359375 19.535156 22.300781 20.890625 L 11.109375 9.695313 C 12.464844 8.640625 14.160156 8 16 8 C 16.1875 8 16.371094 8.015625 16.558594 8.03125 L 14.09375 10.492188 L 15.507813 11.90625 L 20.414063 7 Z M 7.160156 11.347656 C 6.421875 12.738281 6 14.324219 6 16 C 6 17.5 6.300781 18.898438 6.898438 20.097656 L 8.398438 18.597656 C 8.199219 17.800781 8 16.898438 8 16 C 8 14.878906 8.234375 13.8125 8.65625 12.84375 Z M 16.199219 20.386719 L 11.585938 25 L 16.492188 29.90625 L 17.90625 28.492188 L 15.378906 25.96875 C 15.585938 25.980469 15.792969 26 16 26 C 17.675781 26 19.261719 25.578125 20.652344 24.839844 L 19.15625 23.34375 C 18.1875 23.765625 17.121094 24 16 24 C 15.8125 24 15.628906 23.988281 15.441406 23.972656 L 17.613281 21.800781 Z "></path>
</g>
</svg>
