<?xml version="1.0" encoding="UTF-8"?>
<svg xmlns="http://www.w3.org/2000/svg" xmlns:xlink="http://www.w3.org/1999/xlink" viewBox="0 0 32 32" version="1.1">
<g>
<path d="M 3.71875 2.28125 L 2.28125 3.71875 L 28.28125 29.71875 L 29.71875 28.28125 L 20.4375 19 L 21.1875 19 C 23.296875 19 25.167969 17.671875 25.875 15.6875 L 27.28125 11.75 L 20.875 9.71875 L 18.8125 8.34375 C 18.484375 8.125 18.085938 8 17.6875 8 L 15.3125 8 C 14.734375 6.683594 13.378906 5 11 5 L 10 5 L 10 8.5625 Z M 12 7.1875 C 13.222656 7.726563 13.605469 9.179688 13.625 9.25 L 13.8125 10 L 17.6875 10 L 19.875 11.46875 L 24.71875 13.03125 L 24 15 C 23.574219 16.191406 22.453125 17 21.1875 17 L 18.4375 17 L 11.875 10.4375 L 12 10.125 Z M 18 12 C 17.449219 12 17 12.449219 17 13 C 17 13.550781 17.449219 14 18 14 C 18.550781 14 19 13.550781 19 13 C 19 12.449219 18.550781 12 18 12 Z M 8.625 12.8125 L 5.78125 19.28125 L 15.5625 27.84375 L 17.1875 21.375 L 15.5625 19.71875 L 14.4375 24.15625 L 8.21875 18.71875 L 10.15625 14.3125 Z "></path>
</g>
</svg>
