<?xml version="1.0" encoding="UTF-8"?>
<svg xmlns="http://www.w3.org/2000/svg" xmlns:xlink="http://www.w3.org/1999/xlink" viewBox="0 0 32 32" version="1.1">
<g>
<path d="M 3.71875 2.28125 L 2.28125 3.71875 L 28.28125 29.71875 L 29.71875 28.28125 L 20.3125 18.875 C 23.101563 17.347656 25 14.398438 25 11 C 25 8.882813 24.671875 7.113281 24 5.59375 L 23.75 5 L 8.25 5 L 8 5.59375 C 7.902344 5.816406 7.800781 6.046875 7.71875 6.28125 Z M 9.59375 7 L 22.40625 7 C 22.710938 7.878906 22.902344 8.875 22.96875 10 L 11.4375 10 L 9.34375 7.90625 C 9.417969 7.589844 9.492188 7.289063 9.59375 7 Z M 7 11.1875 C 7.09375 15.730469 10.566406 19.445313 15 19.9375 L 15 26 L 10 26 L 10 28 L 22 28 L 22 26 L 17 26 L 17 21.1875 L 13.28125 17.4375 C 11.609375 16.726563 10.273438 15.390625 9.5625 13.71875 Z M 13.4375 12 L 22.9375 12 C 22.59375 14.421875 20.976563 16.414063 18.8125 17.375 Z "></path>
</g>
</svg>
