<?xml version="1.0" encoding="UTF-8"?>
<svg xmlns="http://www.w3.org/2000/svg" xmlns:xlink="http://www.w3.org/1999/xlink" viewBox="0 0 32 32" version="1.1">
<g>
<path d="M 3.71875 2.28125 L 2.28125 3.71875 L 28.28125 29.71875 L 29.71875 28.28125 L 24.21875 22.78125 C 25.796875 20.789063 27 18.296875 27 15.65625 C 27 11.992188 23.859375 9 20 9 C 19.003906 9 18.019531 9.210938 17.125 9.59375 C 17.121094 9.574219 17.128906 9.554688 17.125 9.53125 C 17.636719 6.863281 19.5 5.875 19.5 5.875 L 18.5 4.125 C 18.5 4.125 17.089844 4.972656 16.0625 6.78125 C 15.738281 6.285156 15.308594 5.796875 14.78125 5.375 C 12.667969 3.6875 9.90625 4 9.90625 4 L 8.875 4.09375 L 9 5.125 C 9 5.125 9.246094 7.410156 10.875 9.09375 C 10.78125 9.109375 10.6875 9.136719 10.59375 9.15625 Z M 11.34375 6.09375 C 12.035156 6.199219 12.890625 6.425781 13.53125 6.9375 C 14.183594 7.457031 14.621094 8.21875 14.875 8.875 C 14.179688 8.773438 13.308594 8.519531 12.65625 8 C 12.011719 7.484375 11.597656 6.746094 11.34375 6.09375 Z M 20 11 C 22.757813 11 25 13.09375 25 15.65625 C 25 17.785156 24.039063 19.777344 22.8125 21.375 L 12.5 11.0625 C 13.550781 11.164063 14.546875 11.546875 15.34375 12.21875 L 16 12.75 L 16.65625 12.21875 C 17.582031 11.4375 18.761719 11 20 11 Z M 6.90625 11.09375 C 5.730469 12.285156 5 13.898438 5 15.65625 C 5 22.71875 11.25 27 14 27 C 14.527344 27 15.054688 26.914063 15.5625 26.75 C 15.855469 26.65625 16.144531 26.65625 16.4375 26.75 C 16.945313 26.914063 17.472656 27 18 27 C 18.902344 27 20.125 26.46875 21.375 25.5625 L 19.9375 24.15625 C 19.144531 24.699219 18.441406 25 18 25 C 17.679688 25 17.367188 24.941406 17.0625 24.84375 C 16.714844 24.730469 16.355469 24.6875 16 24.6875 C 15.644531 24.6875 15.28125 24.730469 14.9375 24.84375 C 14.628906 24.941406 14.320313 25 14 25 C 12.3125 25 7 21.589844 7 15.65625 C 7 14.449219 7.5 13.359375 8.3125 12.53125 Z "></path>
</g>
</svg>
