<?xml version="1.0" encoding="UTF-8"?>
<svg xmlns="http://www.w3.org/2000/svg" xmlns:xlink="http://www.w3.org/1999/xlink" viewBox="0 0 32 32" version="1.1">
<g>
<path d="M 3.71875 2.28125 L 2.28125 3.71875 L 28.28125 29.71875 L 29.71875 28.28125 L 24.84375 23.40625 C 26.195313 21.257813 27 18.722656 27 16 C 27 12.269531 25.511719 8.886719 23.125 6.375 L 21.71875 7.78125 C 23.742188 9.929688 25 12.820313 25 16 C 25 18.171875 24.421875 20.210938 23.40625 21.96875 L 21.9375 20.5 C 22.625 19.148438 23 17.617188 23 16 C 23 13.375 21.972656 10.972656 20.3125 9.1875 L 18.90625 10.625 C 20.207031 12.046875 21 13.925781 21 16 C 21 17.054688 20.78125 18.050781 20.40625 18.96875 L 17 15.5625 L 17 4.59375 L 11.5 10.0625 Z M 15 9.40625 L 15 13.5625 L 12.9375 11.5 Z M 6 11 L 6 21 L 10.59375 21 L 17 27.40625 L 17 20.8125 L 15 18.8125 L 15 22.59375 L 11.40625 19 L 8 19 L 8 13 L 9.1875 13 L 7.1875 11 Z "></path>
</g>
</svg>
