<?xml version="1.0" encoding="UTF-8"?>
<svg xmlns="http://www.w3.org/2000/svg" xmlns:xlink="http://www.w3.org/1999/xlink" viewBox="0 0 32 32" version="1.1">
<g>
<path d="M 3.71875 2.28125 L 2.28125 3.71875 L 28.28125 29.71875 L 29.71875 28.28125 L 27.4375 26 L 29 26 L 29 8 L 22 8 L 20.5 6 L 11.5 6 L 10 8 L 9.4375 8 Z M 3 8 L 3 26 L 21.8125 26 L 19.8125 24 L 5 24 L 5 10 L 5.8125 10 L 3.8125 8 Z M 12.5 8 L 19.5 8 L 21 10 L 27 10 L 27 24 L 25.4375 24 L 21.28125 19.84375 C 21.738281 19 22 18.027344 22 17 C 22 13.691406 19.308594 11 16 11 C 14.972656 11 14 11.261719 13.15625 11.71875 L 11.1875 9.75 Z M 7.21875 11.40625 C 7.085938 11.574219 7 11.769531 7 12 C 7 12.550781 7.449219 13 8 13 C 8.230469 13 8.425781 12.914063 8.59375 12.78125 Z M 16 13 C 18.207031 13 20 14.792969 20 17 C 20 17.464844 19.898438 17.898438 19.75 18.3125 L 14.6875 13.25 C 15.101563 13.101563 15.535156 13 16 13 Z M 10.46875 14.65625 C 10.160156 15.378906 10 16.167969 10 17 C 10 20.308594 12.691406 23 16 23 C 16.832031 23 17.621094 22.839844 18.34375 22.53125 L 16.75 20.9375 C 16.507813 20.984375 16.257813 21 16 21 C 13.792969 21 12 19.207031 12 17 C 12 16.742188 12.015625 16.492188 12.0625 16.25 Z "></path>
</g>
</svg>
