<?xml version="1.0" encoding="UTF-8"?>
<svg xmlns="http://www.w3.org/2000/svg" xmlns:xlink="http://www.w3.org/1999/xlink" viewBox="0 0 32 32" version="1.1">
<g>
<path d="M 3.71875 2.28125 L 2.28125 3.71875 L 28.28125 29.71875 L 29.71875 28.28125 L 27.40625 25.96875 C 28.863281 25.765625 30 24.511719 30 23 L 30 9 C 30 7.347656 28.652344 6 27 6 L 7.4375 6 Z M 2.8125 6.96875 C 2.320313 7.503906 2 8.21875 2 9 L 2 23 C 2 24.652344 3.347656 26 5 26 L 21.8125 26 L 19.8125 24 L 5 24 C 4.449219 24 4 23.550781 4 23 L 4 13 L 8.8125 13 L 6.8125 11 L 4 11 L 4 9 C 4 8.769531 4.085938 8.574219 4.21875 8.40625 Z M 9.4375 8 L 27 8 C 27.550781 8 28 8.449219 28 9 L 28 11 L 12.4375 11 Z M 14.4375 13 L 28 13 L 28 23 C 28 23.550781 27.550781 24 27 24 L 25.4375 24 Z "></path>
</g>
</svg>
