<?xml version="1.0" encoding="UTF-8"?>
<svg xmlns="http://www.w3.org/2000/svg" xmlns:xlink="http://www.w3.org/1999/xlink" viewBox="0 0 32 32" version="1.1">
<g>
<path d="M 3.71875 2.28125 L 2.28125 3.71875 L 28.28125 29.71875 L 29.71875 28.28125 L 25.9375 24.5 C 26.757813 23.785156 27.257813 23.191406 27.3125 23.125 L 25.78125 21.84375 C 25.769531 21.859375 25.28125 22.394531 24.5 23.0625 L 23.96875 22.53125 C 24.621094 21.714844 24.992188 21.042969 25.03125 20.96875 L 23.25 20.03125 C 23.242188 20.042969 22.980469 20.507813 22.53125 21.09375 L 19.75 18.28125 C 20.113281 18.324219 20.480469 18.34375 20.875 18.34375 C 21.871094 18.34375 22.96875 18.191406 24.15625 17.8125 L 23.5625 15.90625 C 20.257813 16.964844 17.894531 15.886719 16.625 14.96875 C 24.976563 14.574219 28 11.167969 28 7.96875 C 28 6.394531 26.597656 5 25 5 L 25 7 C 25.503906 7 26 7.484375 26 7.96875 C 26 10.292969 23.117188 13 14.96875 13 L 14.84375 13 C 14.714844 13 14.429688 12.855469 14.09375 12.65625 L 11 9.5625 C 10.679688 9.035156 10.535156 8.632813 10.53125 8.46875 L 10.65625 8.3125 C 11.792969 6.304688 14.835938 5 18.40625 5 L 24 5 L 24 3 L 18.40625 3 C 14.121094 3 10.511719 4.617188 8.96875 7.21875 C 8.925781 7.269531 8.886719 7.339844 8.84375 7.40625 Z M 22 6 C 21.449219 6 21 6.449219 21 7 C 21 7.550781 21.449219 8 22 8 C 22.550781 8 23 7.550781 23 7 C 23 6.449219 22.550781 6 22 6 Z M 6.625 10.8125 C 5.714844 12.359375 5.03125 14.363281 5.03125 16.71875 C 5.03125 19.652344 6.03125 22.363281 7.84375 24.34375 C 10.03125 26.734375 13.332031 28 17.40625 28 C 19.351563 28 21.101563 27.464844 22.5625 26.75 L 21.03125 25.25 C 20.21875 25.585938 19.328125 25.828125 18.375 25.9375 C 19.316406 25.808594 20.160156 25.519531 20.90625 25.125 L 19.40625 23.59375 C 18.804688 23.835938 18.140625 24 17.40625 24 C 15.074219 24 13 21.761719 13 20 C 13 19.066406 13.203125 18.296875 13.46875 17.65625 L 11.96875 16.15625 C 11.433594 17.136719 11 18.402344 11 20 C 11 22.546875 13.511719 25.597656 16.75 25.96875 C 13.527344 25.847656 11.019531 24.867188 9.3125 23 C 8.789063 22.429688 8.347656 21.769531 8 21.0625 C 8.515625 21.078125 9.101563 21.070313 9.75 21 L 9.53125 19.03125 C 8.496094 19.140625 7.75 19.085938 7.28125 19.03125 C 7.117188 18.308594 7.035156 17.558594 7.03125 16.78125 C 7.761719 16.910156 8.78125 17.015625 10 16.90625 L 9.8125 14.90625 C 8.625 15.015625 7.765625 14.925781 7.21875 14.8125 C 7.40625 13.875 7.722656 13.003906 8.09375 12.28125 Z "></path>
</g>
</svg>
