<?xml version="1.0" encoding="UTF-8"?>
<svg xmlns="http://www.w3.org/2000/svg" xmlns:xlink="http://www.w3.org/1999/xlink" viewBox="0 0 32 32" version="1.1">
<g>
<path d="M 3.71875 2.28125 L 2.28125 3.71875 L 28.28125 29.71875 L 29.71875 28.28125 L 18.90625 17.46875 C 19.140625 17.15625 19.402344 16.808594 19.5625 16.59375 C 19.992188 16.839844 20.46875 17 21 17 C 21.273438 17 21.496094 16.851563 21.75 16.78125 C 22.296875 17.480469 23.046875 18 24 18 C 25.367188 18 26.363281 16.980469 26.71875 15.71875 C 27.980469 15.363281 29 14.367188 29 13 C 29 12.4375 28.804688 11.949219 28.53125 11.5 C 28.804688 11.050781 29 10.5625 29 10 C 29 9.046875 28.480469 8.296875 27.78125 7.75 C 27.851563 7.496094 28 7.273438 28 7 C 28 5.355469 26.644531 4 25 4 C 24.726563 4 24.503906 4.148438 24.25 4.21875 C 23.703125 3.519531 22.953125 3 22 3 C 21.4375 3 20.949219 3.195313 20.5 3.46875 C 20.050781 3.195313 19.5625 3 19 3 C 17.632813 3 16.636719 4.019531 16.28125 5.28125 C 15.019531 5.636719 14 6.632813 14 8 C 14 8.953125 14.519531 9.703125 15.21875 10.25 C 15.148438 10.503906 15 10.726563 15 11 C 15 11.53125 15.160156 12.007813 15.40625 12.4375 C 15.191406 12.597656 14.84375 12.859375 14.53125 13.09375 Z M 19 5 C 19.300781 5 19.558594 5.125 19.75 5.34375 L 20.5 6.21875 L 21.25 5.34375 C 21.441406 5.125 21.699219 5 22 5 C 22.441406 5 22.800781 5.296875 22.9375 5.6875 L 23.375 6.90625 L 24.4375 6.15625 C 24.597656 6.046875 24.789063 6 25 6 C 25.566406 6 26 6.433594 26 7 C 26 7.210938 25.953125 7.402344 25.84375 7.5625 L 25.09375 8.625 L 26.3125 9.0625 C 26.703125 9.199219 27 9.558594 27 10 C 27 10.300781 26.875 10.558594 26.65625 10.75 L 25.78125 11.5 L 26.65625 12.25 C 26.875 12.441406 27 12.699219 27 13 C 27 13.566406 26.566406 14 26 14 L 25 14 L 25 15 C 25 15.566406 24.566406 16 24 16 C 23.558594 16 23.199219 15.703125 23.0625 15.3125 L 22.625 14.09375 L 21.5625 14.84375 C 21.402344 14.953125 21.210938 15 21 15 C 20.433594 15 20 14.566406 20 14 C 20 14.019531 20.015625 13.984375 20.03125 13.875 L 20.125 13.1875 L 19.53125 12.875 C 19.367188 12.78125 19.214844 12.628906 19.125 12.46875 L 18.8125 11.875 L 18.125 11.96875 C 18.015625 11.984375 17.980469 12 18 12 C 17.433594 12 17 11.566406 17 11 C 17 10.789063 17.046875 10.597656 17.15625 10.4375 L 17.90625 9.375 L 16.6875 8.9375 C 16.296875 8.800781 16 8.441406 16 8 C 16 7.433594 16.433594 7 17 7 L 18 7 L 18 6 C 18 5.433594 18.433594 5 19 5 Z M 16.96875 13.78125 C 17.265625 13.890625 17.578125 13.957031 17.90625 13.96875 C 17.949219 14.011719 17.988281 14.050781 18.03125 14.09375 C 18.042969 14.421875 18.109375 14.734375 18.21875 15.03125 C 17.980469 15.347656 17.71875 15.699219 17.46875 16.03125 L 15.96875 14.53125 C 16.300781 14.28125 16.652344 14.019531 16.96875 13.78125 Z M 11.34375 15.53125 C 8.339844 17.8125 4.988281 20.386719 4.375 21 C 2.550781 22.824219 2.550781 25.800781 4.375 27.625 C 5.289063 28.539063 6.488281 29 7.6875 29 C 8.886719 29 10.085938 28.539063 11 27.625 C 11.613281 27.011719 14.1875 23.660156 16.46875 20.65625 L 15.03125 19.25 C 12.511719 22.566406 10.097656 25.71875 9.59375 26.21875 C 8.546875 27.265625 6.828125 27.265625 5.78125 26.21875 C 4.734375 25.171875 4.734375 23.453125 5.78125 22.40625 C 6.28125 21.90625 9.433594 19.488281 12.75 16.96875 Z M 13.1875 17.40625 L 7.5 23.0625 L 8.9375 24.5 L 14.59375 18.8125 Z "></path>
</g>
</svg>
