<?xml version="1.0" encoding="UTF-8"?>
<svg xmlns="http://www.w3.org/2000/svg" xmlns:xlink="http://www.w3.org/1999/xlink" viewBox="0 0 32 32" version="1.1">
<g>
<path d="M 3.71875 2.28125 L 2.28125 3.71875 L 28.28125 29.71875 L 29.71875 28.28125 L 27.65625 26.21875 C 28.46875 25.667969 29 24.867188 29 24 L 27 24 C 27 24.183594 26.695313 24.519531 26.1875 24.75 L 12.71875 11.28125 L 15.96875 9.78125 C 16.410156 9.574219 16.910156 9.722656 17.1875 10.125 L 22.03125 17.125 L 23.6875 16 L 18.84375 8.96875 C 18.007813 7.757813 16.425781 7.347656 15.09375 7.96875 L 11.21875 9.78125 Z M 23.5 4 C 21.578125 4 20 5.578125 20 7.5 C 20 9.421875 21.578125 11 23.5 11 C 25.421875 11 27 9.421875 27 7.5 C 27 5.578125 25.421875 4 23.5 4 Z M 23.5 6 C 24.339844 6 25 6.660156 25 7.5 C 25 8.339844 24.339844 9 23.5 9 C 22.660156 9 22 8.339844 22 7.5 C 22 6.660156 22.660156 6 23.5 6 Z M 10.34375 14.5 L 11.0625 16.75 L 9.1875 20 L 3 20 L 3 22 L 9 22 L 9 24 C 9 24.042969 8.921875 24.3125 8.5625 24.5625 C 8.203125 24.8125 7.632813 25 7 25 C 6.363281 25 5.792969 24.808594 5.4375 24.5625 C 5.082031 24.316406 5 24.058594 5 24 L 3 24 C 3 24.941406 3.585938 25.683594 4.3125 26.1875 C 5.039063 26.691406 5.964844 27 7 27 C 8.039063 27 8.964844 26.691406 9.6875 26.1875 C 9.796875 26.113281 9.898438 26.023438 10 25.9375 C 10.105469 26.027344 10.199219 26.109375 10.3125 26.1875 C 11.039063 26.691406 11.964844 27 13 27 C 14.039063 27 14.964844 26.691406 15.6875 26.1875 C 15.789063 26.117188 15.871094 26.019531 15.96875 25.9375 C 16.710938 26.585938 17.800781 27 19 27 C 20.121094 27 21.140625 26.613281 21.875 26.03125 L 20.4375 24.625 C 20.089844 24.835938 19.605469 25 19 25 C 17.753906 25 17 24.304688 17 24 L 15 24 C 15 24.042969 14.921875 24.3125 14.5625 24.5625 C 14.203125 24.8125 13.632813 25 13 25 C 12.363281 25 11.792969 24.808594 11.4375 24.5625 C 11.082031 24.316406 11 24.058594 11 24 L 11 20.84375 L 13.09375 17.25 Z "></path>
</g>
</svg>
