<?xml version="1.0" encoding="UTF-8"?>
<svg xmlns="http://www.w3.org/2000/svg" xmlns:xlink="http://www.w3.org/1999/xlink" viewBox="0 0 32 32" version="1.1">
<g>
<path d="M 3.71875 2.28125 L 2.28125 3.71875 L 28.28125 29.71875 L 29.71875 28.28125 L 24.15625 22.71875 C 27.941406 17.84375 29.515625 9.578125 25.96875 6.03125 C 22.324219 2.386719 14.167969 4.011719 9.28125 7.84375 Z M 20.0625 5.96875 C 21.933594 5.96875 23.570313 6.445313 24.5625 7.4375 C 27.09375 9.972656 26.011719 16.914063 22.71875 21.28125 L 10.6875 9.25 C 13.40625 7.171875 17.046875 5.96875 20.0625 5.96875 Z M 6.5 10.6875 C 4.996094 12.71875 4.140625 14.972656 4.03125 17.28125 C 3.894531 20.175781 4.964844 22.902344 7.03125 24.96875 C 9 26.9375 11.550781 28 14.25 28 C 14.398438 28 14.539063 28.007813 14.6875 28 C 16.996094 27.902344 19.257813 27.03125 21.3125 25.5 L 19.875 24.0625 C 18.210938 25.246094 16.410156 25.921875 14.59375 26 C 12.300781 26.109375 10.113281 25.234375 8.4375 23.5625 C 6.773438 21.898438 5.921875 19.699219 6.03125 17.375 C 6.117188 15.558594 6.78125 13.769531 7.9375 12.125 Z "></path>
</g>
</svg>
