<?xml version="1.0" encoding="UTF-8"?>
<svg xmlns="http://www.w3.org/2000/svg" xmlns:xlink="http://www.w3.org/1999/xlink" viewBox="0 0 32 32" version="1.1">
<g>
<path d="M 3.71875 2.28125 L 2.28125 3.71875 L 28.28125 29.71875 L 29.71875 28.28125 L 27.71875 26.25 C 27.894531 25.871094 28 25.441406 28 25 C 28 23.722656 26.46875 21.386719 25.8125 20.4375 L 25 19.25 L 24.1875 20.4375 C 23.960938 20.765625 23.617188 21.28125 23.28125 21.84375 L 20.5625 19.125 L 23.875 15.8125 L 14.125 6.09375 L 11.3125 3.28125 L 9.90625 4.71875 L 11.75 6.5625 L 9.875 8.4375 Z M 13.1875 7.96875 L 21.03125 15.8125 L 19.15625 17.71875 L 11.28125 9.84375 Z M 7.0625 11.25 L 4.875 13.40625 C 3.691406 14.589844 3.691406 16.535156 4.875 17.71875 L 11.28125 24.125 C 11.875 24.71875 12.660156 25 13.4375 25 C 14.214844 25 15.003906 24.71875 15.59375 24.125 L 17.75 21.9375 L 16.34375 20.53125 L 14.15625 22.6875 C 13.753906 23.089844 13.09375 23.089844 12.6875 22.6875 L 6.3125 16.3125 C 5.90625 15.90625 5.90625 15.25 6.3125 14.84375 L 8.46875 12.65625 Z M 25 22.84375 C 25.332031 23.40625 25.601563 23.9375 25.78125 24.34375 L 24.75 23.3125 C 24.839844 23.152344 24.898438 23.011719 25 22.84375 Z "></path>
</g>
</svg>
