<?xml version="1.0" encoding="UTF-8"?>
<svg xmlns="http://www.w3.org/2000/svg" xmlns:xlink="http://www.w3.org/1999/xlink" viewBox="0 0 32 32" version="1.1">
<g>
<path d="M 3.71875 2.28125 L 2.28125 3.71875 L 28.28125 29.71875 L 29.71875 28.28125 L 24.6875 23.25 C 28.207031 20.695313 28.992188 16.21875 29 16.15625 L 29.03125 15.90625 L 28.9375 15.65625 C 28.84375 15.390625 26.632813 9.320313 20.5 9 C 19.144531 7.449219 15.828125 6 12 6 L 10.5 6 L 11.0625 7.375 C 11.367188 8.117188 11.738281 9.363281 11.84375 10.40625 Z M 13.40625 8.0625 C 16.339844 8.378906 18.613281 9.640625 19.15625 10.53125 L 19.4375 11 L 20 11 C 24.527344 11 26.53125 15.050781 26.96875 16.09375 C 26.777344 17.011719 25.910156 20.097656 23.25 21.8125 L 13.90625 12.46875 C 14.769531 12.070313 15.675781 11.777344 16.59375 11.65625 L 16.3125 9.6875 C 15.597656 9.78125 14.761719 9.964844 13.84375 10.3125 C 13.777344 9.542969 13.597656 8.75 13.40625 8.0625 Z M 3 12 L 3 13 C 3 14.59375 3.589844 16.234375 3.90625 17 C 3.585938 17.75 3 19.34375 3 21 L 3 22 L 4 22 C 6.191406 22 7.949219 21.019531 8.90625 20.34375 C 9.851563 21.292969 11.59375 22.796875 13.9375 23.84375 C 13.863281 24.488281 13.8125 25.414063 14.03125 26.25 L 14.21875 27 L 15 27 C 16.664063 27 18.628906 25.59375 19.375 25 C 19.832031 24.984375 20.242188 24.9375 20.65625 24.875 L 18.8125 23 L 18.625 23 L 18.34375 23.25 C 17.847656 23.675781 16.792969 24.449219 15.875 24.8125 C 15.878906 24.246094 15.945313 23.671875 16 23.4375 L 16.1875 22.59375 L 15.40625 22.3125 C 12.964844 21.382813 10.875 19.644531 9.75 18.34375 L 9.0625 17.5625 L 8.3125 18.28125 C 8.296875 18.296875 6.984375 19.496094 5.09375 19.875 C 5.328125 18.554688 5.898438 17.453125 5.90625 17.4375 L 6.125 17 L 5.90625 16.5625 C 5.898438 16.546875 5.363281 15.421875 5.125 14.125 C 7.03125 14.5 8.300781 15.707031 8.3125 15.71875 L 9.0625 16.46875 L 9.75 15.65625 C 10.023438 15.34375 10.3125 15.054688 10.59375 14.78125 L 9.1875 13.375 C 9.097656 13.464844 8.996094 13.53125 8.90625 13.625 C 7.957031 12.945313 6.214844 12 4 12 Z M 22.5 15 C 21.671875 15 21 15.671875 21 16.5 C 21 17.328125 21.671875 18 22.5 18 C 23.328125 18 24 17.328125 24 16.5 C 24 15.671875 23.328125 15 22.5 15 Z "></path>
</g>
</svg>
