<?xml version="1.0" encoding="UTF-8"?>
<svg xmlns="http://www.w3.org/2000/svg" xmlns:xlink="http://www.w3.org/1999/xlink" viewBox="0 0 32 32" version="1.1">
<g>
<path d="M 3.71875 2.28125 L 2.28125 3.71875 L 28.28125 29.71875 L 29.71875 28.28125 L 22.90625 21.46875 C 25.054688 20.214844 27 18.785156 27 16 C 27 12.691406 24.308594 10 21 10 C 19.492188 10 18.082031 10.558594 17 11.53125 L 17 10 C 17 8.332031 18.335938 7 20 7 C 20.757813 7 21.53125 7.375 21.53125 7.375 L 22.46875 5.625 C 22.46875 5.625 21.378906 5 20 5 C 17.253906 5 15 7.25 15 10 L 15 11.53125 C 14.03125 10.660156 12.800781 10.136719 11.46875 10.03125 Z M 15 4 L 15 6.53125 C 14.242188 5.824219 13.3125 5.296875 12.25 5.03125 L 11.75 6.96875 C 12.753906 7.21875 13.582031 7.804688 14.15625 8.59375 C 14.542969 6.980469 15.597656 5.625 17 4.8125 L 17 4 Z M 7.1875 11.375 C 5.859375 12.476563 5 14.140625 5 16 C 5 19.230469 7.640625 20.753906 10.1875 22.21875 C 12.132813 23.339844 14.15625 24.492188 15 26.40625 L 15 28 L 17 28 L 17 26.4375 L 17.03125 26.375 C 17.496094 25.21875 18.371094 24.335938 19.40625 23.59375 L 17.96875 22.1875 C 17.21875 22.753906 16.527344 23.371094 15.96875 24.15625 C 14.71875 22.503906 12.871094 21.433594 11.1875 20.46875 C 8.59375 18.976563 7 17.972656 7 16 C 7 14.691406 7.652344 13.542969 8.625 12.8125 Z M 21 12 C 23.207031 12 25 13.792969 25 16 C 25 17.800781 23.65625 18.78125 21.46875 20.03125 L 16.4375 15 L 17.0625 15 L 17.34375 14.40625 C 17.984375 12.945313 19.414063 12 21 12 Z "></path>
</g>
</svg>
