<?xml version="1.0" encoding="UTF-8"?>
<svg xmlns="http://www.w3.org/2000/svg" xmlns:xlink="http://www.w3.org/1999/xlink" viewBox="0 0 32 32" version="1.1">
<g>
<path d="M 3.71875 2.28125 L 2.28125 3.71875 L 28.28125 29.71875 L 29.71875 28.28125 L 22.15625 20.71875 L 27.3125 18.53125 L 26.90625 17.59375 C 26.839844 17.441406 25.289063 13.851563 21.71875 10.28125 C 18.148438 6.710938 14.558594 5.160156 14.40625 5.09375 L 13.46875 4.6875 L 11.28125 9.84375 Z M 14.5 7.375 C 15.726563 8.039063 18.019531 9.460938 20.28125 11.71875 C 22.539063 13.980469 23.960938 16.273438 24.625 17.5 L 23.21875 18.09375 C 22.527344 16.851563 21.304688 14.894531 19.3125 12.875 L 19.21875 12.78125 C 17.167969 10.730469 15.167969 9.484375 13.90625 8.78125 Z M 13.125 10.59375 C 14.269531 11.25 15.996094 12.371094 17.8125 14.1875 C 19.628906 16.003906 20.75 17.730469 21.40625 18.875 L 20.625 19.1875 L 12.8125 11.375 Z M 9.625 13.8125 L 4.8125 25.21875 L 6.78125 27.1875 L 18.1875 22.375 L 15.0625 19.25 C 14.429688 19.585938 14 20.234375 14 21 C 14 21.316406 14.085938 21.609375 14.21875 21.875 L 11.84375 22.875 C 11.605469 22.363281 11.101563 22 10.5 22 C 9.671875 22 9 22.671875 9 23.5 C 9 23.6875 9.03125 23.867188 9.09375 24.03125 L 7.21875 24.8125 L 7.1875 24.78125 L 9.78125 18.59375 C 10.121094 18.855469 10.542969 19 11 19 C 12.050781 19 12.886719 18.183594 12.96875 17.15625 Z "></path>
</g>
</svg>
