<?xml version="1.0" encoding="UTF-8"?>
<svg xmlns="http://www.w3.org/2000/svg" xmlns:xlink="http://www.w3.org/1999/xlink" viewBox="0 0 32 32" version="1.1">
<g>
<path d="M 3.71875 2.28125 L 2.28125 3.71875 L 28.28125 29.71875 L 29.71875 28.28125 L 19.1875 17.75 C 20.414063 17.976563 21.652344 18.125 22.84375 18.125 C 25.316406 18.125 27.664063 17.460938 29.71875 15.40625 L 28.28125 14 C 26.25 16.03125 23.761719 16.328125 21.03125 16 C 21.570313 15.984375 22 15.542969 22 15 C 22 14.449219 21.550781 14 21 14 C 20.449219 14 20 14.449219 20 15 C 20 15.53125 20.414063 15.964844 20.9375 16 C 19.609375 15.835938 18.222656 15.523438 16.8125 15.1875 C 16.476563 13.777344 16.164063 12.390625 16 11.0625 C 16.035156 11.585938 16.46875 12 17 12 C 17.550781 12 18 11.550781 18 11 C 18 10.449219 17.550781 10 17 10 C 16.457031 10 16.015625 10.429688 16 10.96875 C 15.671875 8.238281 15.96875 5.75 18 3.71875 L 16.59375 2.28125 C 13.542969 5.332031 13.542969 9.035156 14.25 12.8125 Z M 18 5 C 17.449219 5 17 5.449219 17 6 C 17 6.550781 17.449219 7 18 7 C 18.550781 7 19 6.550781 19 6 C 19 5.449219 18.550781 5 18 5 Z M 20 7 C 19.449219 7 19 7.449219 19 8 C 19 8.550781 19.449219 9 20 9 C 20.550781 9 21 8.550781 21 8 C 21 7.449219 20.550781 7 20 7 Z M 22 9 C 21.449219 9 21 9.449219 21 10 C 21 10.550781 21.449219 11 22 11 C 22.550781 11 23 10.550781 23 10 C 23 9.449219 22.550781 9 22 9 Z M 24 11 C 23.449219 11 23 11.449219 23 12 C 23 12.550781 23.449219 13 24 13 C 24.550781 13 25 12.550781 25 12 C 25 11.449219 24.550781 11 24 11 Z M 19 12 C 18.449219 12 18 12.449219 18 13 C 18 13.550781 18.449219 14 19 14 C 19.550781 14 20 13.550781 20 13 C 20 12.449219 19.550781 12 19 12 Z M 26 13 C 25.449219 13 25 13.449219 25 14 C 25 14.550781 25.449219 15 26 15 C 26.550781 15 27 14.550781 27 14 C 27 13.449219 26.550781 13 26 13 Z M 8.71875 13.90625 C 6.417969 13.980469 4.207031 14.667969 2.28125 16.59375 L 3.71875 18 C 5.734375 15.984375 8.21875 15.707031 10.9375 16.03125 C 10.417969 16.070313 10 16.472656 10 17 C 10 17.550781 10.449219 18 11 18 C 11.550781 18 12 17.550781 12 17 C 12 16.585938 11.734375 16.246094 11.375 16.09375 C 11.574219 16.121094 11.769531 16.121094 11.96875 16.15625 L 9.6875 13.90625 C 9.355469 13.894531 9.046875 13.894531 8.71875 13.90625 Z M 6 17 C 5.449219 17 5 17.449219 5 18 C 5 18.550781 5.449219 19 6 19 C 6.550781 19 7 18.550781 7 18 C 7 17.449219 6.550781 17 6 17 Z M 13 18 C 12.449219 18 12 18.449219 12 19 C 12 19.550781 12.449219 20 13 20 C 13.550781 20 14 19.550781 14 19 C 14 18.449219 13.550781 18 13 18 Z M 8 19 C 7.449219 19 7 19.449219 7 20 C 7 20.550781 7.449219 21 8 21 C 8.550781 21 9 20.550781 9 20 C 9 19.449219 8.550781 19 8 19 Z M 15 20 C 14.449219 20 14 20.449219 14 21 C 14 21.550781 14.449219 22 15 22 C 15.527344 22 15.929688 21.582031 15.96875 21.0625 C 16.292969 23.78125 16.015625 26.265625 14 28.28125 L 15.40625 29.71875 C 17.605469 27.519531 18.199219 24.976563 18.09375 22.3125 L 15.84375 20.03125 C 15.878906 20.230469 15.878906 20.425781 15.90625 20.625 C 15.753906 20.265625 15.414063 20 15 20 Z M 10 21 C 9.449219 21 9 21.449219 9 22 C 9 22.550781 9.449219 23 10 23 C 10.550781 23 11 22.550781 11 22 C 11 21.449219 10.550781 21 10 21 Z M 12 23 C 11.449219 23 11 23.449219 11 24 C 11 24.550781 11.449219 25 12 25 C 12.550781 25 13 24.550781 13 24 C 13 23.449219 12.550781 23 12 23 Z M 14 25 C 13.449219 25 13 25.449219 13 26 C 13 26.550781 13.449219 27 14 27 C 14.550781 27 15 26.550781 15 26 C 15 25.449219 14.550781 25 14 25 Z "></path>
</g>
</svg>
