<?xml version="1.0" encoding="UTF-8"?>
<svg xmlns="http://www.w3.org/2000/svg" xmlns:xlink="http://www.w3.org/1999/xlink" viewBox="0 0 32 32" version="1.1">
<g>
<path d="M 15 3 C 8.382813 3 3 8.382813 3 15 C 3 21.617188 8.382813 27 15 27 C 17.941406 27 20.628906 25.921875 22.71875 24.15625 L 27.28125 28.71875 L 28.71875 27.28125 L 24.15625 22.71875 C 25.921875 20.628906 27 17.941406 27 15 C 27 8.382813 21.617188 3 15 3 Z M 15 5 C 17.40625 5 19.621094 5.839844 21.34375 7.25 L 7.25 21.34375 C 5.839844 19.621094 5 17.40625 5 15 C 5 9.464844 9.464844 5 15 5 Z M 14 6 L 14 8 C 11.792969 8 10 9.792969 10 12 C 10 13.402344 10.71875 14.628906 11.8125 15.34375 L 13.3125 13.875 C 12.554688 13.589844 12 12.855469 12 12 C 12 10.898438 12.898438 10 14 10 L 17.1875 10 L 19 8.1875 L 19 8 L 16 8 L 16 6 Z M 22.75 8.65625 C 24.160156 10.378906 25 12.59375 25 15 C 25 20.535156 20.535156 25 15 25 C 12.59375 25 10.378906 24.160156 8.65625 22.75 Z M 18.1875 14.65625 L 16.6875 16.125 C 17.445313 16.410156 18 17.144531 18 18 C 18 19.101563 17.101563 20 16 20 L 12.8125 20 L 11 21.8125 L 11 22 L 14 22 L 14 24 L 16 24 L 16 22 C 18.207031 22 20 20.207031 20 18 C 20 16.597656 19.28125 15.371094 18.1875 14.65625 Z "></path>
</g>
</svg>
