<?xml version="1.0" encoding="UTF-8"?>
<svg xmlns="http://www.w3.org/2000/svg" xmlns:xlink="http://www.w3.org/1999/xlink" viewBox="0 0 32 32" version="1.1">
<g>
<path d="M 3.71875 2.28125 L 2.28125 3.71875 L 28.28125 29.71875 L 29.71875 28.28125 L 21.15625 19.71875 C 21.382813 19.429688 21.625 19.152344 21.90625 18.90625 C 23.804688 17.207031 25 14.695313 25 12.09375 C 25 6.792969 20.398438 2.488281 15 3.1875 C 12.386719 3.503906 10.058594 5.050781 8.59375 7.15625 Z M 15.96875 5.0625 C 19.824219 5.027344 23 8.15625 23 12.09375 C 23 14.09375 22.09375 16.007813 20.59375 17.40625 C 20.285156 17.675781 20.015625 17.988281 19.75 18.3125 L 9.96875 8.53125 C 11.066406 6.667969 12.972656 5.324219 15.1875 5.09375 C 15.449219 5.0625 15.710938 5.066406 15.96875 5.0625 Z M 7.09375 11 C 6.792969 14 7.886719 16.914063 10.1875 18.8125 C 11.289063 19.8125 12 21.1875 12 22.6875 L 12 28 L 14.28125 28 C 14.628906 28.597656 15.261719 29 16 29 C 16.738281 29 17.371094 28.597656 17.71875 28 L 20 28 L 20 24 L 18 22 L 14 22 C 13.800781 20.199219 12.898438 18.511719 11.5 17.3125 C 10.199219 16.210938 9.394531 14.699219 9.09375 13 Z M 14 24 L 18 24 L 18 26 L 14 26 Z "></path>
</g>
</svg>
