<?xml version="1.0" encoding="UTF-8"?>
<svg xmlns="http://www.w3.org/2000/svg" xmlns:xlink="http://www.w3.org/1999/xlink" viewBox="0 0 32 32" version="1.1">
<g>
<path d="M 3.71875 2.28125 L 2.28125 3.71875 L 28.28125 29.71875 L 29.71875 28.28125 L 25.78125 24.34375 L 26.59375 22.65625 L 26.96875 21.84375 L 26.21875 21.375 C 25.011719 20.601563 23 19.3125 23 16.53125 C 23 14.703125 23.777344 13.695313 24.5625 13.03125 C 25.347656 12.367188 26.09375 12.15625 26.09375 12.15625 L 26.96875 11.90625 L 26.78125 11 L 26.15625 7.8125 L 26.03125 7.03125 L 25.25 7 C 25.25 7 20.757813 6.699219 18.875 3.5 L 18.5625 3 L 13.4375 3 L 13.125 3.5 C 11.917969 5.550781 9.6875 6.398438 8.1875 6.75 Z M 14.46875 5 L 17.59375 5 C 19.894531 8.207031 23.300781 8.75 24.34375 8.84375 L 24.71875 10.6875 C 24.285156 10.863281 23.96875 10.894531 23.25 11.5 C 22.132813 12.445313 21 14.105469 21 16.53125 C 21 19.785156 23.050781 21.496094 24.4375 22.46875 L 24.28125 22.84375 L 9.8125 8.375 C 11.347656 7.828125 13.175781 6.824219 14.46875 5 Z M 5.46875 9.71875 L 5.03125 11.875 L 5.90625 12.15625 C 6.035156 12.195313 9 13.113281 9 16.53125 C 9 19.308594 6.910156 20.652344 5.78125 21.375 L 5.03125 21.84375 L 7.03125 26.03125 L 7.6875 26 C 9.183594 25.949219 13.460938 26.207031 15.3125 27.96875 L 16 28.625 L 16.6875 27.96875 C 17.875 26.839844 20.0625 26.335938 21.875 26.125 L 20.125 24.375 C 18.707031 24.652344 17.1875 25.136719 16 25.96875 C 13.585938 24.277344 9.804688 24.027344 8.28125 24 L 7.59375 22.5625 C 8.984375 21.582031 11 19.753906 11 16.53125 C 11 16.011719 10.9375 15.542969 10.84375 15.09375 Z "></path>
</g>
</svg>
