<?xml version="1.0" encoding="UTF-8"?>
<svg xmlns="http://www.w3.org/2000/svg" xmlns:xlink="http://www.w3.org/1999/xlink" viewBox="0 0 32 32" version="1.1">
<g>
<path d="M 3.71875 2.28125 L 2.28125 3.71875 L 28.28125 29.71875 L 29.71875 28.28125 L 25.90625 24.46875 L 26.125 24.25 L 25.75 23.09375 C 25.71875 22.992188 25.164063 21.238281 23.8125 19.25 C 25.929688 18.863281 27.550781 18.113281 28.125 17.71875 L 29 17.125 L 29 14.6875 L 27.9375 14.125 C 27.84375 14.074219 26.175781 13.230469 23.8125 12.78125 C 25.035156 11.007813 25.683594 9.339844 25.8125 8.65625 L 26 7.625 L 24.25 5.875 L 23.09375 6.25 C 22.992188 6.28125 21.238281 6.835938 19.25 8.1875 C 18.863281 6.070313 18.113281 4.449219 17.71875 3.875 L 17.125 3 L 14.6875 3 L 14.125 4.0625 C 14.074219 4.15625 13.230469 5.824219 12.78125 8.1875 C 11.007813 6.964844 9.339844 6.316406 8.65625 6.1875 L 7.625 6 L 7.53125 6.09375 Z M 15.90625 5 L 16.09375 5 C 16.472656 5.550781 17.5 8.09375 17.5 11 C 17.5 11.8125 17.316406 12.640625 17.0625 13.4375 C 17.449219 12.695313 17.894531 11.980469 18.46875 11.40625 C 20.8125 9.0625 23.71875 8.15625 23.71875 8.15625 L 23.84375 8.28125 C 23.722656 8.9375 22.648438 11.476563 20.59375 13.53125 C 20.019531 14.105469 19.304688 14.554688 18.5625 14.9375 C 19.359375 14.6875 20.183594 14.5 21 14.5 C 24.3125 14.5 27 15.90625 27 15.90625 L 27 16.09375 C 26.449219 16.472656 23.90625 17.5 21 17.5 C 20.1875 17.5 19.359375 17.316406 18.5625 17.0625 C 19.304688 17.449219 20.019531 17.894531 20.59375 18.46875 C 21.515625 19.390625 22.207031 20.398438 22.71875 21.28125 L 10.6875 9.25 C 11.585938 9.777344 12.613281 10.488281 13.53125 11.40625 C 14.097656 11.972656 14.554688 12.675781 14.9375 13.40625 C 14.691406 12.617188 14.5 11.804688 14.5 11 C 14.5 7.6875 15.90625 5 15.90625 5 Z M 7.59375 11.78125 C 7.777344 12.09375 7.960938 12.417969 8.1875 12.75 C 6.070313 13.136719 4.449219 13.886719 3.875 14.28125 L 3 14.875 L 3 17.3125 L 4.0625 17.875 C 4.15625 17.925781 5.824219 18.769531 8.1875 19.21875 C 6.964844 20.992188 6.316406 22.660156 6.1875 23.34375 L 6 24.375 L 7.75 26.125 L 8.90625 25.75 C 9.007813 25.71875 10.761719 25.164063 12.75 23.8125 C 13.136719 25.929688 13.886719 27.550781 14.28125 28.125 L 14.875 29 L 17.3125 29 L 17.875 27.9375 C 17.925781 27.84375 18.769531 26.175781 19.21875 23.8125 C 19.574219 24.054688 19.941406 24.269531 20.28125 24.46875 L 17.46875 21.6875 C 17.300781 24.679688 16.09375 27 16.09375 27 L 15.90625 27 C 15.527344 26.449219 14.5 23.90625 14.5 21 C 14.5 20.339844 14.632813 19.65625 14.8125 19 L 14.71875 18.9375 C 14.378906 19.546875 14.007813 20.117188 13.53125 20.59375 C 11.1875 22.9375 8.28125 23.84375 8.28125 23.84375 L 8.15625 23.71875 C 8.277344 23.0625 9.351563 20.523438 11.40625 18.46875 C 11.882813 17.992188 12.457031 17.625 13.0625 17.28125 L 13 17.1875 C 12.34375 17.367188 11.660156 17.5 11 17.5 C 7.6875 17.5 5 16.09375 5 16.09375 L 5 15.90625 C 5.507813 15.558594 7.726563 14.671875 10.34375 14.53125 Z "></path>
</g>
</svg>
