<?xml version="1.0" encoding="UTF-8"?>
<svg xmlns="http://www.w3.org/2000/svg" xmlns:xlink="http://www.w3.org/1999/xlink" viewBox="0 0 32 32" version="1.1">
<g>
<path d="M 3.71875 2.28125 L 2.28125 3.71875 L 28.28125 29.71875 L 29.71875 28.28125 L 23 21.5625 L 23 15.09375 C 23 14.195313 22.769531 13.332031 22.3125 12.5625 L 19.9375 8.5625 C 20.582031 8.109375 21 7.347656 21 6.5 C 21 5.121094 19.878906 4 18.5 4 L 13.5 4 C 12.121094 4 11 5.121094 11 6.5 C 11 7.347656 11.417969 8.109375 12.0625 8.5625 L 11.28125 9.84375 Z M 13.5 6 L 18.5 6 C 18.777344 6 19 6.226563 19 6.5 C 19 6.773438 18.777344 7 18.5 7 L 17.5 7.09375 L 17.5 8.375 L 20.59375 13.5625 C 20.867188 14.023438 21 14.554688 21 15.09375 L 21 19.5625 L 12.75 11.3125 L 14.34375 8.59375 L 14.5 8.28125 L 14.5 7 L 13.5 7 C 13.226563 7 13 6.773438 13 6.5 C 13 6.226563 13.222656 6 13.5 6 Z M 9.28125 13.46875 C 9.101563 13.988281 9 14.539063 9 15.09375 L 9 25 C 9 26.652344 10.347656 28 12 28 L 20 28 C 21.03125 28 21.929688 27.484375 22.46875 26.6875 L 20.96875 25.15625 C 20.886719 25.625 20.492188 26 20 26 L 12 26 C 11.449219 26 11 25.550781 11 25 L 11 15.1875 Z "></path>
</g>
</svg>
