<?xml version="1.0" encoding="UTF-8"?>
<svg xmlns="http://www.w3.org/2000/svg" xmlns:xlink="http://www.w3.org/1999/xlink" viewBox="0 0 32 32" version="1.1">
<g>
<path d="M 3.71875 2.28125 L 2.28125 3.71875 L 28.28125 29.71875 L 29.71875 28.28125 L 24 22.5625 L 24 6 C 24 4.898438 23.101563 4 22 4 L 10 4 C 8.898438 4 8 4.898438 8 6 L 8 6.5625 Z M 10 6 L 22 6 L 22 20.5625 L 10 8.5625 Z M 8 12.1875 L 8 26 C 8 27.101563 8.898438 28 10 28 L 22 28 C 22.507813 28 22.960938 27.8125 23.3125 27.5 L 21.8125 26 L 10 26 L 10 14.1875 Z M 14 23 L 14 25 L 18 25 L 18 23 Z "></path>
</g>
</svg>
