<?xml version="1.0"?>
<svg xmlns="http://www.w3.org/2000/svg" viewBox="0 0 32 32">
    <path d="M 3.7070312 2.2929688 L 2.2929688 3.7070312 L 11.560547 12.974609 L 12.994141 14.408203 L 14.261719 15.673828 L 15.685547 17.097656 L 28.292969 29.707031 L 29.707031 28.292969 L 17.082031 15.667969 C 17.965101 14.946226 18.899262 14.434736 19.482422 14.154297 L 21.058594 15.730469 L 21.207031 15.853516 C 22.152031 16.485516 23.334281 16.381187 23.988281 15.617188 L 27.337891 12.269531 C 28.136891 11.467531 28.136938 10.257078 27.335938 9.4550781 L 24.775391 6.8964844 C 23.933391 6.0624844 22.659641 5.814 21.681641 6.25 C 20.525057 6.6526972 16.655084 8.197801 12.984375 11.570312 L 3.7070312 2.2929688 z M 22.722656 8.0449219 C 22.976656 8.0449219 23.216234 8.1645 23.365234 8.3125 L 25.923828 10.855469 L 22.542969 14.236328 L 22.580078 14.216797 L 22.546875 14.261719 C 22.525875 14.265719 22.459813 14.262563 22.382812 14.226562 L 19.953125 11.798828 L 19.349609 12.027344 C 19.258205 12.061836 17.374616 12.793746 15.660156 14.246094 L 14.398438 12.984375 C 17.764869 9.9119209 21.289363 8.5031469 22.416016 8.1074219 C 22.517016 8.0634219 22.620656 8.0449219 22.722656 8.0449219 z M 10.263672 14.507812 C 8.6426719 16.587812 7.2905156 18.992844 6.2285156 21.714844 C 5.8725156 22.781844 6.0908594 23.885828 6.8808594 24.798828 L 9.4375 27.353516 C 9.8385 27.754516 10.342703 27.955078 10.845703 27.955078 C 11.348703 27.955078 11.851906 27.754516 12.253906 27.353516 L 15.628906 23.974609 C 16.431906 23.172609 16.431906 21.962156 15.628906 21.160156 L 14.070312 19.599609 C 14.187313 19.372609 14.34825 19.083437 14.53125 18.773438 L 13.076172 17.318359 C 12.366172 18.444359 11.969359 19.347203 11.943359 19.408203 L 11.675781 20.03125 L 14.214844 22.558594 L 10.853516 25.939453 L 8.3476562 23.4375 C 8.1556562 23.2135 7.960375 22.843531 8.109375 22.394531 C 9.054375 19.972531 10.266219 17.823359 11.699219 15.943359 L 10.263672 14.507812 z" font-weight="400" font-family="sans-serif" white-space="normal" overflow="visible"></path>
</svg>
