<?xml version="1.0" encoding="UTF-8"?>
<svg xmlns="http://www.w3.org/2000/svg" xmlns:xlink="http://www.w3.org/1999/xlink" viewBox="0 0 32 32" version="1.1">
<g>
<path d="M 3.71875 2.28125 L 2.28125 3.71875 L 28.28125 29.71875 L 29.71875 28.28125 L 22 20.5625 L 22 14 C 22 12.699219 21.15625 11.605469 20 11.1875 L 20 10 C 20 8.90625 19.09375 8 18 8 L 17.375 8 L 16.8125 4 L 15.1875 4 L 14.625 8 L 14 8 C 12.90625 8 12 8.90625 12 10 L 12 10.5625 Z M 14 10 L 18 10 L 18 11 L 14 11 Z M 14.4375 13 L 19 13 C 19.550781 13 20 13.449219 20 14 L 20 18.5625 Z M 10 14.1875 L 10 28 L 22 28 L 22 26.1875 L 20 24.1875 L 20 26 L 12 26 L 12 16.1875 Z "></path>
</g>
</svg>
