<?xml version="1.0" encoding="UTF-8"?>
<svg xmlns="http://www.w3.org/2000/svg" xmlns:xlink="http://www.w3.org/1999/xlink" viewBox="0 0 32 32" version="1.1">
<g>
<path d="M 3.71875 2.28125 L 2.28125 3.71875 L 28.28125 29.71875 L 29.71875 28.28125 L 23.5 22.0625 C 23.8125 21.101563 24 20.066406 24 19 C 24 16.960938 23.742188 15.3125 23.21875 14 L 24 14 L 24 13 C 24 9.898438 20.238281 8.347656 17.0625 8.0625 C 17.191406 7.023438 17.519531 6.25 17.84375 5.71875 C 18.261719 5.035156 18.59375 4.78125 18.59375 4.78125 L 17.40625 3.21875 C 17.40625 3.21875 16.738281 3.738281 16.15625 4.6875 C 15.679688 5.46875 15.214844 6.59375 15.0625 8.03125 C 13.589844 8.152344 12 8.550781 10.6875 9.25 Z M 16 10 C 17.988281 10 20.703125 10.703125 21.65625 12 L 13.4375 12 L 12.1875 10.75 C 13.359375 10.265625 14.804688 10 16 10 Z M 8.09375 12.28125 C 8.046875 12.511719 8 12.75 8 13 L 8 14 L 8.78125 14 C 8.257813 15.3125 8 16.960938 8 19 C 8 23.003906 10.402344 26.558594 13.78125 27.65625 C 14.203125 28.46875 15.054688 29 16 29 C 16.945313 29 17.796875 28.46875 18.21875 27.65625 C 19.429688 27.261719 20.511719 26.527344 21.40625 25.59375 L 20 24.1875 C 19.234375 24.992188 18.28125 25.585938 17.21875 25.84375 L 16.625 26 L 16.5 26.59375 C 16.449219 26.820313 16.230469 27 16 27 C 15.769531 27 15.550781 26.820313 15.5 26.59375 L 15.375 26 L 14.78125 25.84375 C 12.015625 25.171875 10 22.296875 10 19 C 10 17.269531 10.21875 15.871094 10.625 14.8125 Z M 15.4375 14 L 21 14 C 21.664063 15.109375 22 16.785156 22 19 C 22 19.484375 21.929688 19.945313 21.84375 20.40625 Z "></path>
</g>
</svg>
