<?xml version="1.0" encoding="UTF-8"?>
<svg xmlns="http://www.w3.org/2000/svg" xmlns:xlink="http://www.w3.org/1999/xlink" viewBox="0 0 32 32" version="1.1">
<g>
<path d="M 3.71875 2.28125 L 2.28125 3.71875 L 28.28125 29.71875 L 29.71875 28.28125 L 26 24.5625 L 26 12 L 24 12 C 24 7.589844 20.410156 4 16 4 C 13.144531 4 10.632813 5.523438 9.21875 7.78125 Z M 16 6 C 19.308594 6 22 8.691406 22 12 L 13.4375 12 L 10.6875 9.25 C 11.6875 7.324219 13.683594 6 16 6 Z M 6 12 L 6 25 C 6 26.652344 7.347656 28 9 28 L 23 28 C 23.246094 28 23.492188 27.960938 23.71875 27.90625 L 21.8125 26 L 9 26 C 8.449219 26 8 25.550781 8 25 L 8 14 L 9.8125 14 L 7.8125 12 Z M 16 14 L 17 14 C 18 14 18 15 18 15 C 18 15.335938 17.867188 15.800781 17.71875 16.28125 L 15.5625 14.125 C 15.695313 14.050781 15.855469 14 16 14 Z M 21 14 L 24 14 L 24 22.5625 L 20.9375 19.5 C 20.976563 19.34375 21 19.167969 21 19 C 21 17.996094 20 16.003906 20 15 C 20 15 20.019531 14 21 14 Z "></path>
</g>
</svg>
