<?xml version="1.0" encoding="UTF-8"?>
<svg xmlns="http://www.w3.org/2000/svg" xmlns:xlink="http://www.w3.org/1999/xlink" viewBox="0 0 32 32" version="1.1">
<g>
<path d="M 3.71875 2.28125 L 2.28125 3.71875 L 28.28125 29.71875 L 29.71875 28.28125 L 27.03125 25.59375 C 27.636719 24.710938 28 23.648438 28 22.5 C 28 19.554688 26.175781 18.371094 24.40625 17.21875 C 23.609375 16.699219 22.78125 16.167969 22.03125 15.4375 C 22.691406 13.378906 23 11.277344 23 9.5 C 23 6.46875 20.53125 4 17.5 4 C 14.554688 4 13.371094 5.824219 12.21875 7.59375 C 11.820313 8.207031 11.378906 8.835938 10.875 9.4375 Z M 17.5 6 C 19.429688 6 21 7.570313 21 9.5 C 21 11.246094 20.511719 14.601563 18.96875 17.53125 L 16.28125 14.84375 C 17.40625 13.234375 18.382813 11.402344 18.96875 9.28125 L 17.03125 8.71875 C 16.550781 10.464844 15.769531 12.035156 14.84375 13.40625 L 12.3125 10.875 C 12.949219 10.136719 13.429688 9.371094 13.875 8.6875 C 15.058594 6.871094 15.71875 6 17.5 6 Z M 7.90625 12.125 C 5.929688 13.699219 4 15.382813 4 18.5 C 4 22.085938 6.914063 25 10.5 25 C 11.058594 25 11.609375 24.972656 12.125 24.90625 C 15.484375 27.1875 19.664063 28 22.5 28 C 22.902344 28 23.308594 27.957031 23.6875 27.875 L 21.78125 25.96875 C 19.816406 25.863281 17.179688 25.335938 14.8125 24.15625 C 15.996094 23.664063 17.035156 22.980469 17.9375 22.15625 L 16.53125 20.75 C 15.027344 22.105469 13.070313 23 10.5 23 C 9.574219 23 8.714844 22.734375 8 22.25 C 9.355469 21.484375 11.578125 20.035156 13.71875 17.90625 L 12.28125 16.46875 C 10.0625 18.664063 7.730469 20.101563 6.59375 20.71875 C 6.21875 20.0625 6 19.308594 6 18.5 C 6 16.238281 7.46875 15.019531 9.34375 13.53125 Z M 21.25 17.4375 C 21.945313 18.019531 22.667969 18.457031 23.3125 18.875 C 25.128906 20.058594 26 20.71875 26 22.5 C 26 23.097656 25.832031 23.632813 25.5625 24.125 L 20.4375 19 C 20.734375 18.492188 21.007813 17.972656 21.25 17.4375 Z "></path>
</g>
</svg>
