<?xml version="1.0" encoding="UTF-8"?>
<svg xmlns="http://www.w3.org/2000/svg" xmlns:xlink="http://www.w3.org/1999/xlink" viewBox="0 0 32 32" version="1.1">
<g>
<path d="M 6 5 L 6 27 L 26 27 L 26 5 Z M 9.25 7 L 24 7 L 24 23.40625 L 19.1875 18.03125 C 19.6875 17.5 20 16.789063 20 16 L 20 13 C 20 11.347656 18.652344 10 17 10 L 12 10 L 12 10.0625 Z M 8 8.59375 L 22.75 25 L 8 25 Z M 14 12 L 17 12 C 17.550781 12 18 12.449219 18 13 L 18 16 C 18 16.203125 17.914063 16.375 17.8125 16.53125 L 14 12.28125 Z M 12 15.90625 L 12 22 L 14 22 L 14 19 L 14.78125 19 Z "></path>
</g>
</svg>
