<?xml version="1.0" encoding="UTF-8"?>
<svg xmlns="http://www.w3.org/2000/svg" xmlns:xlink="http://www.w3.org/1999/xlink" viewBox="0 0 32 32" version="1.1">
<g>
<path d="M 3.71875 2.28125 L 2.28125 3.71875 L 28.28125 29.71875 L 29.71875 28.28125 L 15.875 14.4375 L 17.46875 12.1875 L 18.28125 12.71875 L 19.875 15.09375 C 20.246094 15.652344 20.859375 16 21.53125 16 L 26 16 L 26 14 L 21.53125 14 L 19.71875 11.28125 L 15.34375 8.34375 C 14.480469 7.765625 13.324219 7.894531 12.625 8.65625 L 11.40625 9.96875 Z M 21.21875 4 C 19.539063 4 18.15625 5.382813 18.15625 7.0625 C 18.15625 8.742188 19.539063 10.125 21.21875 10.125 C 22.902344 10.125 24.3125 8.742188 24.3125 7.0625 C 24.3125 5.382813 22.902344 4 21.21875 4 Z M 21.21875 6 C 21.820313 6 22.3125 6.464844 22.3125 7.0625 C 22.3125 7.660156 21.820313 8.125 21.21875 8.125 C 20.621094 8.125 20.15625 7.664063 20.15625 7.0625 C 20.15625 6.464844 20.621094 6 21.21875 6 Z M 14.21875 10 L 15.8125 11.0625 L 14.4375 13 L 12.84375 11.40625 L 14.09375 10.03125 C 14.125 10 14.183594 9.976563 14.21875 10 Z M 13.6875 17.875 L 11.59375 20 L 7 20 L 7 22 L 11.59375 22 C 12.121094 22 12.628906 21.777344 13 21.40625 L 15.125 19.28125 Z M 17.21875 21.375 L 14.375 27 L 16.625 27 L 18.6875 22.875 Z "></path>
</g>
</svg>
