<?xml version="1.0" encoding="UTF-8"?>
<svg xmlns="http://www.w3.org/2000/svg" xmlns:xlink="http://www.w3.org/1999/xlink" viewBox="0 0 32 32" version="1.1">
<g>
<path d="M 3.71875 2.28125 L 2.28125 3.71875 L 28.28125 29.71875 L 29.71875 28.28125 L 23.28125 21.84375 C 24.332031 20.25 24.746094 18.59375 24.90625 17.71875 C 26.597656 16.976563 29 14.953125 29 11.0625 C 29 6.949219 26.902344 3.609375 26.8125 3.46875 L 26.34375 2.75 L 25.5625 3.09375 C 25.40625 3.160156 21.691406 4.808594 19.5625 7.4375 C 18.617188 8.605469 18.246094 10.082031 18.09375 11.03125 C 17.121094 11.121094 15.597656 11.472656 14.0625 12.625 Z M 25.5625 5.3125 C 26.117188 6.421875 27 8.609375 27 11.0625 C 27 15.035156 23.847656 15.992188 23.71875 16.03125 L 23.0625 16.21875 L 23 16.90625 C 23 16.929688 22.828125 18.644531 21.8125 20.375 L 20.1875 18.75 C 20.535156 17.722656 20.425781 16.6875 19.75 16.09375 C 19.128906 15.546875 18.210938 15.511719 17.3125 15.875 L 15.46875 14.03125 C 17.183594 12.859375 18.835938 12.988281 18.90625 13 L 19.96875 13.09375 L 20 12.03125 C 20 12.011719 20.078125 9.984375 21.125 8.6875 C 22.394531 7.121094 24.4375 5.90625 25.5625 5.3125 Z M 23.6875 9.34375 C 22.976563 9.460938 22.257813 10.082031 21.90625 11 C 21.441406 12.226563 21.792969 13.503906 22.6875 13.84375 C 23.582031 14.183594 24.691406 13.476563 25.15625 12.25 C 25.621094 11.023438 25.269531 9.746094 24.375 9.40625 C 24.152344 9.320313 23.925781 9.304688 23.6875 9.34375 Z M 11.375 15.59375 C 10.714844 16.644531 10.371094 17.5625 10.1875 18.15625 C 9.191406 18.421875 7.257813 19.113281 5.6875 20.6875 C 3.496094 22.878906 3.019531 26.710938 3 26.875 L 2.9375 27.5 L 3.4375 27.8125 C 3.613281 27.929688 5.28125 29 9 29 C 12.589844 29 14.726563 26.890625 15.5 25.96875 C 16.429688 25.890625 18.511719 25.597656 20.375 24.5625 L 18.875 23.09375 C 17.015625 23.949219 14.996094 24 14.96875 24 L 14.46875 24 L 14.15625 24.4375 C 14.140625 24.460938 12.433594 27 9 27 C 7.027344 27 5.75 26.652344 5.09375 26.40625 C 5.332031 25.207031 5.949219 23.238281 7.09375 22.09375 C 8.792969 20.394531 11.136719 20.003906 11.15625 20 L 11.84375 19.875 L 11.96875 19.1875 C 11.972656 19.171875 12.160156 18.242188 12.84375 17.03125 Z M 14.78125 18.96875 C 14.644531 19.792969 14.820313 20.578125 15.375 21.0625 C 15.867188 21.496094 16.570313 21.617188 17.28125 21.46875 Z M 10.53125 21.96875 C 10.046875 21.964844 9.488281 22.121094 9 22.46875 C 8.023438 23.164063 7.648438 24.320313 8.15625 25.03125 C 8.664063 25.742188 9.867188 25.757813 10.84375 25.0625 C 11.820313 24.367188 12.195313 23.210938 11.6875 22.5 C 11.433594 22.144531 11.015625 21.972656 10.53125 21.96875 Z "></path>
</g>
</svg>
