<?xml version="1.0" encoding="UTF-8"?>
<svg xmlns="http://www.w3.org/2000/svg" xmlns:xlink="http://www.w3.org/1999/xlink" viewBox="0 0 32 32" version="1.1">
<g>
<path d="M 3.71875 2.28125 L 2.28125 3.71875 L 28.28125 29.71875 L 29.71875 28.28125 L 20.15625 18.71875 C 20.925781 18.144531 21.707031 17.480469 22.4375 16.75 C 24.933594 14.253906 27.308594 10.503906 27.96875 8 L 28.15625 7.34375 L 26.625 6.21875 C 25.621094 4.847656 24.46875 4.492188 23.6875 4.4375 C 22.296875 4.339844 20.851563 5.089844 19.40625 6.65625 C 16.453125 9.859375 13.878906 9.832031 12.1875 9.8125 C 11.894531 9.808594 11.589844 9.816406 11.28125 9.84375 Z M 23.28125 6.4375 C 23.378906 6.425781 23.46875 6.433594 23.5625 6.4375 C 24.097656 6.476563 24.597656 6.828125 25.0625 7.5 L 25.15625 7.625 L 25.84375 8.125 C 25.121094 10.078125 23.242188 13.132813 21.03125 15.34375 C 20.304688 16.070313 19.496094 16.714844 18.71875 17.28125 L 13.25 11.8125 C 13.75 11.792969 14.285156 11.738281 14.875 11.625 L 15.3125 12.71875 L 17.1875 12.03125 L 16.8125 11.03125 C 17.269531 10.835938 17.734375 10.589844 18.21875 10.28125 L 18.875 11.1875 L 20.5 10.0625 L 19.8125 9.0625 C 20.164063 8.746094 20.515625 8.390625 20.875 8 C 21.746094 7.054688 22.585938 6.523438 23.28125 6.4375 Z M 9.21875 13.375 C 9.175781 14.230469 9.027344 15.097656 8.4375 15.6875 C 7.144531 16.980469 5.621094 18.050781 4.6875 18.34375 L 3.8125 18.59375 L 4.03125 19.5 C 4.367188 21.023438 5.394531 22.488281 6 23.09375 C 7.261719 24.355469 8.742188 25.085938 9.3125 25.34375 C 9.605469 25.664063 10.214844 26.285156 11.28125 26.90625 L 11.96875 27.28125 L 17.3125 22 L 16.71875 20.9375 C 16.726563 20.933594 16.742188 20.910156 16.75 20.90625 L 15.25 19.4375 C 15.035156 19.546875 14.914063 19.589844 14.90625 19.59375 L 13.9375 20.0625 L 14.8125 21.65625 L 11.65625 24.78125 C 10.992188 24.308594 10.71875 23.90625 10.71875 23.90625 L 10.53125 23.6875 L 10.28125 23.59375 C 10.265625 23.585938 8.675781 22.957031 7.40625 21.6875 C 7.066406 21.347656 6.574219 20.597656 6.25 19.84375 C 7.523438 19.191406 8.875 18.066406 9.84375 17.09375 C 10.4375 16.5 10.777344 15.816406 10.96875 15.125 Z "></path>
</g>
</svg>
