<?xml version="1.0" encoding="UTF-8"?>
<svg xmlns="http://www.w3.org/2000/svg" xmlns:xlink="http://www.w3.org/1999/xlink" viewBox="0 0 32 32" version="1.1">
<g>
<path d="M 3.71875 2.28125 L 2.28125 3.71875 L 28.28125 29.71875 L 29.71875 28.28125 L 18.09375 16.65625 L 23.375 12 L 28 12 L 28 4 L 16 4 L 16 12 L 20.375 12 L 16.6875 15.25 Z M 18 6 L 26 6 L 26 10 L 23.71875 10 C 23.371094 9.402344 22.738281 9 22 9 C 21.261719 9 20.628906 9.402344 20.28125 10 L 18 10 Z M 22 9 C 22.550781 9 23 8.550781 23 8 C 23 7.449219 22.550781 7 22 7 C 21.449219 7 21 7.449219 21 8 C 21 8.550781 21.449219 9 22 9 Z M 13.6875 17.875 L 5.34375 25.25 L 6.65625 26.75 L 15.125 19.28125 Z "></path>
</g>
</svg>
