<?xml version="1.0" encoding="UTF-8"?>
<svg xmlns="http://www.w3.org/2000/svg" xmlns:xlink="http://www.w3.org/1999/xlink" viewBox="0 0 32 32" version="1.1">
<g>
<path d="M 3.71875 2.28125 L 2.28125 3.71875 L 28.28125 29.71875 L 29.71875 28.28125 L 20.6875 19.25 C 21.445313 19.082031 22.222656 19 23 19 C 26.988281 19 30.3125 21.753906 30.34375 21.78125 L 31.65625 20.21875 C 31.5 20.085938 27.730469 17 23 17 C 21.628906 17 20.347656 17.289063 19.09375 17.65625 L 16.4375 15 L 17.4375 14.15625 L 19.4375 16.5 C 20.175781 16.308594 20.933594 16.144531 21.71875 16.0625 L 15.34375 8.71875 C 14.660156 7.925781 13.503906 7.796875 12.65625 8.40625 L 11.03125 9.59375 Z M 23.5 8 C 21.578125 8 20 9.578125 20 11.5 C 20 13.421875 21.578125 15 23.5 15 C 25.421875 15 27 13.421875 27 11.5 C 27 9.578125 25.421875 8 23.5 8 Z M 23.5 10 C 24.339844 10 25 10.660156 25 11.5 C 25 12.34375 24.339844 13 23.5 13 C 22.65625 13 22 12.34375 22 11.5 C 22 10.660156 22.65625 10 23.5 10 Z M 13.84375 10.03125 L 16.125 12.65625 L 15.03125 13.59375 L 12.46875 11.03125 Z M 12 16.15625 L 8.71875 18.9375 C 9.125 18.972656 9.558594 19 10 19 C 10.675781 19 11.324219 18.929688 11.96875 18.8125 L 13.40625 17.59375 Z M 1.6875 17.28125 L 0.3125 18.71875 C 0.453125 18.851563 3.832031 22 10 22 C 12.394531 22 14.476563 21.332031 16.46875 20.625 L 14.875 19.0625 C 13.320313 19.578125 11.726563 20 10 20 C 4.671875 20 1.714844 17.304688 1.6875 17.28125 Z "></path>
</g>
</svg>
