<?xml version="1.0" encoding="UTF-8"?>
<svg xmlns="http://www.w3.org/2000/svg" xmlns:xlink="http://www.w3.org/1999/xlink" viewBox="0 0 32 32" version="1.1">
<g>
<path d="M 3.71875 2.28125 L 2.28125 3.71875 L 28.28125 29.71875 L 29.71875 28.28125 L 23.96875 22.53125 C 23.992188 22.523438 24.007813 22.507813 24.03125 22.5 C 26.472656 21.59375 29 20.652344 29 15.9375 C 29 15.921875 28.960938 14.648438 28.28125 13.84375 C 28.582031 13.164063 28.589844 12.347656 28.15625 11.125 C 27.726563 9.921875 27.132813 9.042969 26.375 8.09375 C 25.917969 7.523438 25.234375 7.195313 24.46875 7.15625 C 24.402344 7.152344 24.34375 7.15625 24.28125 7.15625 C 24.273438 7.125 24.261719 7.09375 24.25 7.0625 C 24.230469 7 24.183594 6.9375 24.15625 6.875 C 24.132813 6.8125 24.121094 6.746094 24.09375 6.6875 C 24.0625 6.617188 24.039063 6.566406 24 6.5 C 23.996094 6.492188 23.972656 6.476563 23.96875 6.46875 C 23.664063 5.929688 23.195313 5.515625 22.625 5.28125 C 22.570313 5.253906 22.527344 5.210938 22.46875 5.1875 C 21.601563 4.808594 20.425781 4.570313 19.28125 4.3125 C 18.933594 4.234375 18.605469 4.140625 18.28125 4.0625 C 18.074219 4.011719 17.835938 3.996094 17.625 4 C 17.480469 4.003906 17.332031 4.035156 17.1875 4.0625 C 16.753906 4.121094 16.351563 4.277344 16 4.53125 C 15.648438 4.277344 15.246094 4.125 14.8125 4.0625 C 14.675781 4.035156 14.515625 4.003906 14.375 4 C 14.363281 4 14.355469 4 14.34375 4 C 14.132813 3.996094 13.925781 4.011719 13.71875 4.0625 C 13.394531 4.140625 13.066406 4.234375 12.71875 4.3125 C 11.574219 4.570313 10.398438 4.808594 9.53125 5.1875 C 9.472656 5.214844 9.429688 5.253906 9.375 5.28125 C 8.804688 5.515625 8.335938 5.929688 8.03125 6.46875 C 8.027344 6.476563 8.003906 6.492188 8 6.5 C 7.992188 6.511719 7.976563 6.519531 7.96875 6.53125 Z M 14.1875 6.03125 C 14.28125 6.007813 14.40625 6.019531 14.5 6.03125 C 14.546875 6.046875 14.601563 6.058594 14.65625 6.09375 C 14.828125 6.203125 14.945313 6.382813 15 6.5625 L 15 13.5625 L 9.78125 8.34375 L 9.71875 8.1875 C 9.625 7.992188 9.640625 7.765625 9.71875 7.5625 C 9.816406 7.375 9.980469 7.214844 10.21875 7.09375 C 11.78125 6.652344 13.144531 6.285156 14.1875 6.03125 Z M 17.5 6.03125 C 17.59375 6.019531 17.71875 6.007813 17.8125 6.03125 C 18.855469 6.28125 20.21875 6.652344 21.78125 7.09375 C 22.015625 7.214844 22.183594 7.375 22.28125 7.5625 C 22.359375 7.769531 22.359375 7.988281 22.25 8.21875 L 19.15625 15.5 L 21 16.28125 L 24 9.25 C 24.132813 9.167969 24.257813 9.148438 24.34375 9.15625 C 24.535156 9.167969 24.714844 9.222656 24.8125 9.34375 C 25.460938 10.160156 25.945313 10.871094 26.28125 11.8125 C 26.675781 12.929688 26.5625 13.050781 26.09375 13.53125 L 22.15625 17.4375 L 23.5625 18.84375 L 26.9375 15.5 C 26.976563 15.652344 26.996094 15.832031 27 15.9375 C 27 19.261719 25.625 19.777344 23.34375 20.625 C 23.042969 20.738281 22.722656 20.839844 22.40625 20.96875 L 16.46875 15.03125 L 17 15.03125 L 17 6.5625 C 17.054688 6.382813 17.171875 6.203125 17.34375 6.09375 C 17.398438 6.058594 17.453125 6.046875 17.5 6.03125 Z M 4.875 9.09375 C 4.453125 9.710938 4.125 10.371094 3.84375 11.15625 C 3.414063 12.375 3.414063 13.160156 3.71875 13.84375 C 3.039063 14.648438 3 15.921875 3 15.9375 C 3 20.652344 5.527344 21.59375 7.96875 22.5 C 8.3125 22.628906 8.652344 22.765625 9 22.90625 L 9 25 C 9 26.652344 10.347656 28 12 28 L 20 28 C 21.03125 28 21.929688 27.484375 22.46875 26.6875 L 20.96875 25.15625 C 20.886719 25.628906 20.492188 26 20 26 L 19.0625 26 C 19.082031 25.972656 19.105469 25.933594 19.125 25.90625 C 19.46875 25.421875 19.84375 24.941406 20.3125 24.5 L 18.875 23.09375 C 18.285156 23.660156 17.859375 24.246094 17.5 24.75 C 16.839844 25.671875 16.554688 26 16.0625 26 L 15.9375 26 C 15.445313 26 15.160156 25.671875 14.5 24.75 C 14.054688 24.128906 13.515625 23.355469 12.6875 22.6875 C 11.34375 21.601563 9.910156 21.089844 8.65625 20.625 C 6.375 19.777344 5 19.261719 5 15.9375 C 5.003906 15.828125 5.023438 15.652344 5.0625 15.5 L 8.4375 18.84375 L 9.84375 17.4375 L 5.9375 13.5625 C 5.457031 13.066406 5.324219 12.925781 5.71875 11.8125 C 5.886719 11.339844 6.101563 10.925781 6.34375 10.53125 Z M 11 23.96875 C 11.140625 24.066406 11.269531 24.140625 11.40625 24.25 C 12.023438 24.746094 12.464844 25.328125 12.875 25.90625 C 12.894531 25.933594 12.917969 25.972656 12.9375 26 L 12 26 C 11.449219 26 11 25.550781 11 25 Z "></path>
</g>
</svg>
