<?xml version="1.0" encoding="UTF-8"?>
<svg xmlns="http://www.w3.org/2000/svg" xmlns:xlink="http://www.w3.org/1999/xlink" viewBox="0 0 32 32" version="1.1">
<g>
<path d="M 3.71875 2.28125 L 2.28125 3.71875 L 28.28125 29.71875 L 29.71875 28.28125 L 21.34375 19.90625 C 24.058594 17.898438 24.925781 16.890625 25.4375 16.25 C 27.046875 14.1875 27.273438 11.523438 27.4375 9.5625 C 27.503906 8.742188 27.59375 7.890625 27.75 7.53125 C 28.21875 6.476563 28.027344 5.464844 27.25 4.6875 C 26.65625 4.09375 25.617188 3.589844 23.96875 4.53125 C 23.488281 4.804688 22.585938 4.816406 21.625 4.84375 C 19.84375 4.894531 17.625 4.957031 15.6875 6.5 L 15.59375 6.5625 C 14.984375 7.046875 14 7.925781 12.03125 10.59375 Z M 25.625 6 C 25.753906 5.996094 25.804688 6.054688 25.84375 6.09375 C 25.988281 6.238281 26.0625 6.363281 25.90625 6.71875 C 25.609375 7.382813 25.53125 8.257813 25.4375 9.375 C 25.289063 11.179688 25.101563 13.445313 23.8125 15.09375 C 23.40625 15.601563 22.597656 16.5 19.90625 18.46875 L 19.5 18.0625 C 19.65625 17.957031 19.765625 17.8125 19.75 17.65625 C 19.796875 17.289063 19.308594 17.125 19.125 17.125 C 19.039063 17.210938 18.910156 17.292969 18.78125 17.34375 L 18.1875 16.78125 C 19.042969 16.726563 19.671875 16.285156 19.625 15.875 C 19.578125 15.460938 18.828125 15.125 18 15.21875 C 17.589844 15.261719 17.269531 15.425781 17 15.59375 L 16.34375 14.90625 C 16.503906 14.644531 16.648438 14.359375 16.6875 14 C 16.78125 13.171875 16.445313 12.421875 16.03125 12.375 C 15.632813 12.332031 15.222656 12.964844 15.1875 13.75 L 14.59375 13.15625 C 14.644531 13.035156 14.699219 12.925781 14.78125 12.84375 C 14.78125 12.707031 14.617188 12.1875 14.25 12.1875 C 14.117188 12.1875 13.972656 12.296875 13.875 12.4375 L 13.46875 12.03125 C 15.410156 9.371094 16.324219 8.535156 16.84375 8.125 L 16.9375 8.0625 C 18.347656 6.9375 20.046875 6.890625 21.6875 6.84375 C 22.902344 6.808594 24.058594 6.769531 24.96875 6.25 C 25.304688 6.058594 25.496094 6.003906 25.625 6 Z M 22.3125 7.6875 C 22.050781 7.769531 21.765625 8.050781 21.59375 8.5 C 21.363281 9.238281 21.609375 9.707031 21.65625 9.9375 C 21.933594 9.753906 22.425781 9.460938 22.65625 8.90625 C 22.886719 8.351563 22.839844 7.824219 22.5625 7.6875 C 22.480469 7.664063 22.398438 7.660156 22.3125 7.6875 Z M 18.4375 7.90625 C 18.070313 7.90625 17.71875 8.652344 17.8125 9.25 C 18.410156 9.433594 18.59375 9.84375 18.59375 9.84375 C 18.59375 9.84375 18.601563 8.929688 18.96875 8.5625 C 18.96875 8.425781 18.804688 7.90625 18.4375 7.90625 Z M 20.25 8.125 C 19.882813 8.199219 19.527344 8.804688 19.40625 9.53125 C 19.222656 10.589844 19.707031 11.113281 19.84375 11.4375 C 20.121094 11.113281 20.769531 10.609375 20.90625 9.78125 C 21.042969 8.953125 20.820313 8.21875 20.40625 8.125 C 20.355469 8.113281 20.300781 8.113281 20.25 8.125 Z M 23.53125 9.15625 C 23.394531 9.179688 23.261719 9.222656 23.125 9.28125 C 22.574219 9.511719 22.277344 10.035156 22.09375 10.3125 C 22.324219 10.359375 22.792969 10.621094 23.53125 10.34375 C 24.128906 10.160156 24.511719 9.714844 24.375 9.4375 C 24.304688 9.195313 23.9375 9.085938 23.53125 9.15625 Z M 16.34375 9.9375 C 15.976563 9.9375 15.65625 10.683594 15.75 11.28125 C 16.347656 11.464844 16.53125 11.875 16.53125 11.875 C 16.53125 11.875 16.539063 10.929688 16.90625 10.5625 C 16.90625 10.425781 16.710938 9.9375 16.34375 9.9375 Z M 17.9375 10.3125 C 17.570313 10.425781 17.21875 11.054688 17.21875 11.78125 C 17.125 12.839844 17.675781 13.332031 17.8125 13.65625 C 18.042969 13.289063 18.65625 12.734375 18.75 11.90625 C 18.84375 11.078125 18.507813 10.359375 18.09375 10.3125 C 18.042969 10.308594 17.988281 10.296875 17.9375 10.3125 Z M 22.84375 11 C 22.65625 10.992188 22.457031 10.996094 22.25 11.03125 C 21.421875 11.167969 20.914063 11.816406 20.59375 12.09375 C 20.914063 12.230469 21.425781 12.746094 22.53125 12.5625 C 23.359375 12.46875 24 11.945313 23.90625 11.53125 C 23.835938 11.21875 23.40625 11.027344 22.84375 11 Z M 23.4375 12.96875 C 23.070313 13.335938 22.15625 13.34375 22.15625 13.34375 C 22.15625 13.34375 22.613281 13.558594 22.75 14.15625 C 23.394531 14.203125 24.09375 13.945313 24.09375 13.53125 C 24.140625 13.164063 23.621094 12.96875 23.4375 12.96875 Z M 20.125 13.1875 C 19.25 13.28125 18.742188 13.847656 18.375 14.125 C 18.699219 14.261719 19.175781 14.828125 20.28125 14.78125 C 21.15625 14.734375 21.796875 14.257813 21.75 13.84375 C 21.703125 13.429688 20.953125 13.09375 20.125 13.1875 Z M 9.71875 13.90625 C 9.042969 14.925781 8.214844 16.25 7.375 17.59375 C 7.207031 17.320313 7.125 17.15625 7.125 17.15625 L 6.59375 15.6875 L 5.46875 16.8125 C 4.855469 17.425781 4.617188 18.214844 4.53125 18.9375 C 4.445313 19.660156 4.507813 20.332031 4.5625 20.96875 C 4.617188 21.605469 4.664063 22.195313 4.625 22.625 C 4.585938 23.054688 4.464844 23.285156 4.28125 23.46875 L 5.71875 24.875 C 6.316406 24.277344 6.527344 23.515625 6.59375 22.8125 C 6.660156 22.109375 6.585938 21.4375 6.53125 20.8125 C 6.496094 20.398438 6.5 20.066406 6.5 19.71875 C 7.082031 20.492188 7.773438 21.398438 9.125 22.75 C 10.519531 24.148438 11.496094 24.902344 12.3125 25.5 C 11.96875 25.507813 11.621094 25.503906 11.1875 25.46875 C 10.5625 25.417969 9.910156 25.34375 9.21875 25.40625 C 8.527344 25.46875 7.746094 25.691406 7.15625 26.28125 L 8.5625 27.71875 C 8.726563 27.554688 8.976563 27.445313 9.40625 27.40625 C 9.835938 27.367188 10.390625 27.417969 11.03125 27.46875 C 12.3125 27.570313 14.015625 27.738281 15.25 26.5 L 16.34375 25.40625 L 14.90625 24.84375 C 14.90625 24.84375 14.714844 24.753906 14.40625 24.5625 C 15.726563 23.730469 17.023438 22.921875 18.03125 22.25 L 16.59375 20.8125 C 15.503906 21.53125 14.175781 22.367188 12.71875 23.28125 C 12.117188 22.777344 11.414063 22.164063 10.5625 21.3125 C 9.757813 20.503906 9.140625 19.839844 8.65625 19.28125 C 9.574219 17.800781 10.433594 16.445313 11.15625 15.34375 Z M 21.375 15 C 21.007813 15.367188 20.09375 15.375 20.09375 15.375 C 20.09375 15.375 20.550781 15.589844 20.6875 16.1875 C 21.332031 16.28125 22.046875 15.976563 22 15.5625 C 22.046875 15.195313 21.558594 15 21.375 15 Z M 11.5 16.71875 C 11.113281 16.855469 10.78125 17.460938 10.78125 18.1875 C 10.6875 19.246094 11.238281 19.738281 11.375 20.0625 C 11.605469 19.695313 12.21875 19.140625 12.3125 18.3125 C 12.40625 17.484375 12.070313 16.765625 11.65625 16.71875 C 11.597656 16.71875 11.554688 16.699219 11.5 16.71875 Z M 13.625 19.59375 C 12.75 19.6875 12.242188 20.253906 11.875 20.53125 C 12.195313 20.714844 12.722656 21.234375 13.78125 21.1875 C 14.65625 21.140625 15.296875 20.664063 15.25 20.25 C 15.203125 19.835938 14.453125 19.5 13.625 19.59375 Z "></path>
</g>
</svg>
