<?xml version="1.0"?>
<svg xmlns="http://www.w3.org/2000/svg" viewBox="0 0 32 32">
    <path d="M 3.7070312 2.2929688 L 2.2929688 3.7070312 L 7 8.4140625 L 7 8.4199219 L 9 10.419922 L 9 10.414062 L 13.585938 15 L 13.580078 15 L 14.785156 16.199219 L 23.785156 25.199219 L 24.960938 26.380859 C 24.961394 26.379032 24.96049 26.376832 24.960938 26.375 L 28.292969 29.707031 L 29.707031 28.292969 L 25 23.585938 L 25 11.400391 C 25 10.850391 24.810156 10.390234 24.410156 9.9902344 L 19.009766 4.5898438 C 18.609766 4.1898438 18.149609 4 17.599609 4 L 9 4 C 7.9708343 4 7.1973999 4.6618399 7.0351562 5.6210938 L 3.7070312 2.2929688 z M 9 6 L 17.589844 6.0097656 L 22.990234 11.410156 L 23 11.400391 L 23 21.585938 L 21 19.585938 L 21 15 L 16.414062 15 L 9 7.5859375 L 9 6 z M 7 11.240234 L 7 26 C 7 27.16 7.84 28 9 28 L 23 28 C 23.23 28 23.450391 27.970625 23.650391 27.890625 L 21.759766 26 L 9 26 L 9 13.240234 L 7 11.240234 z M 11 15.240234 L 11 24 L 19.759766 24 L 17.759766 22 L 13 22 L 13 17.240234 L 11 15.240234 z M 18.414062 17 L 19 17 L 19 17.585938 L 18.414062 17 z"></path>
</svg>
