<?xml version="1.0" encoding="UTF-8"?>
<svg xmlns="http://www.w3.org/2000/svg" xmlns:xlink="http://www.w3.org/1999/xlink" viewBox="0 0 32 32" version="1.1">
<g>
<path d="M 3.71875 2.28125 L 2.28125 3.71875 L 28.28125 29.71875 L 29.71875 28.28125 L 27.625 26.1875 C 27.863281 25.859375 28 25.4375 28 25 L 28 14 C 28 12.898438 27.101563 12 26 12 L 21.90625 12 C 21.960938 11.671875 22 11.335938 22 11 C 22 7.691406 19.308594 5 16 5 C 13.414063 5 11.21875 6.640625 10.375 8.9375 Z M 16 7 C 18.207031 7 20 8.792969 20 11 C 20 11.339844 19.929688 11.671875 19.84375 12 L 13.4375 12 L 12.03125 10.59375 C 12.234375 8.578125 13.929688 7 16 7 Z M 6 12 C 4.898438 12 4 12.898438 4 14 L 4 25 C 4 26.101563 4.898438 27 6 27 L 22.8125 27 L 16.6875 20.875 C 16.46875 20.957031 16.246094 21 16 21 C 14.898438 21 14 20.101563 14 19 C 14 18.753906 14.042969 18.53125 14.125 18.3125 L 12.65625 16.8125 C 12.246094 17.441406 12 18.195313 12 19 C 12 20.117188 12.476563 21.117188 13.21875 21.84375 C 12.152344 22.566406 11.359375 23.695313 11.09375 25 L 6 25 L 6 14 L 9.8125 14 L 7.8125 12 Z M 15.4375 14 L 26 14 L 26 24.5625 L 19.9375 18.5 C 19.710938 16.695313 18.304688 15.289063 16.5 15.0625 Z M 16 23 C 17.300781 23 18.398438 23.839844 18.8125 25 L 13.1875 25 C 13.601563 23.839844 14.699219 23 16 23 Z "></path>
</g>
</svg>
