<?xml version="1.0"?>
<svg xmlns="http://www.w3.org/2000/svg" viewBox="0 0 32 32">
    <path d="M 12.042969 2.0625 C 10.965625 2.0625 10.003361 2.5196046 9.3554688 3.2265625 C 8.707577 3.9335204 8.3292569 4.8330851 8.0742188 5.8105469 C 7.4305231 8.2780467 7.1581524 10.732231 7.0800781 14 L 7 14 C 7 14.344511 7.0245291 14.682968 7.0625 15.017578 C 7.0587944 15.353847 7.0451514 15.644626 7.0449219 16 L 7.0429688 16 L 7.0429688 16.0625 L 7.0449219 16.0625 C 7.0477419 20.434349 7.3028806 23.295157 8.0742188 26.251953 C 8.3292569 27.229415 8.7075769 28.12898 9.3554688 28.835938 C 10.003361 29.542895 10.965625 30 12.042969 30 L 16.042969 30 L 20 30 C 21.077343 30 22.037655 29.542895 22.685547 28.835938 C 23.333439 28.128979 23.711759 27.229415 23.966797 26.251953 C 24.738135 23.295157 24.995223 20.434349 24.998047 16.0625 L 25 16.0625 L 25 16 L 24.998047 16 C 24.997708 15.475779 24.980755 15.034321 24.972656 14.550781 C 24.983857 14.367594 25 14.185931 25 14 L 24.960938 14 C 24.882413 10.732237 24.610492 8.2780437 23.966797 5.8105469 C 23.711759 4.8330851 23.333439 3.9335204 22.685547 3.2265625 C 22.037655 2.5196046 21.077343 2.0625 20 2.0625 L 16.042969 2.0625 L 12.042969 2.0625 z M 12.042969 4.0625 L 16.042969 4.0625 L 20 4.0625 C 20.579657 4.0625 20.888079 4.2258329 21.210938 4.578125 C 21.533796 4.9304171 21.828241 5.530868 22.033203 6.3164062 C 22.664899 8.7385636 22.915627 11.124935 22.972656 14.556641 C 22.689568 18.170893 19.689288 21 16 21 C 12.430711 21 9.5076068 18.351295 9.0644531 14.90625 C 9.1091195 11.278915 9.3566741 8.8206001 10.009766 6.3164062 L 10.009766 6.3144531 C 10.214701 5.5299742 10.507517 4.9300934 10.830078 4.578125 C 11.152936 4.2258329 11.463312 4.0625 12.042969 4.0625 z M 11.679688 6 L 11.580078 6.9003906 C 11.410078 8.6103906 11.279687 10.180313 11.179688 11.570312 C 11.139688 12.090312 11.109844 12.590547 11.089844 13.060547 L 11.070312 13.429688 L 11.310547 13.730469 C 12.450547 15.170469 14.16 16 16 16 C 17.84 16 19.549453 15.170469 20.689453 13.730469 L 20.929688 13.429688 L 20.910156 13.060547 C 20.890156 12.590547 20.860313 12.090312 20.820312 11.570312 C 20.720312 10.180312 20.589922 8.6103906 20.419922 6.9003906 L 20.320312 6 L 11.679688 6 z M 14 17 C 13.448 17 13 17.448 13 18 C 13 18.552 13.448 19 14 19 L 18 19 C 18.552 19 19 18.552 19 18 C 19 17.448 18.552 17 18 17 L 14 17 z M 22.896484 19.769531 C 22.772094 22.052902 22.517669 23.890927 22.033203 25.748047 C 21.828241 26.533585 21.533796 27.134036 21.210938 27.486328 C 20.888079 27.83862 20.579657 28 20 28 L 16.042969 28 L 12.042969 28 C 11.463312 28 11.152936 27.83862 10.830078 27.486328 C 10.50722 27.134036 10.214727 26.533585 10.009766 25.748047 C 9.5289779 23.905028 9.2740522 22.079033 9.1484375 19.820312 C 10.801227 21.762545 13.258944 23 16 23 C 18.76537 23 21.243538 21.741607 22.896484 19.769531 z M 12 25 L 12 27 L 14 27 L 14 25 L 12 25 z M 15 25 L 15 27 L 17 27 L 17 25 L 15 25 z M 18 25 L 18 27 L 20 27 L 20 25 L 18 25 z"></path>
</svg>
