<?xml version="1.0" encoding="UTF-8"?>
<svg xmlns="http://www.w3.org/2000/svg" xmlns:xlink="http://www.w3.org/1999/xlink" viewBox="0 0 32 32" version="1.1">
<g>
<path d="M 16 2.875 L 3 9.375 L 3 22.625 L 16 29.125 L 29 22.625 L 29 9.375 Z M 16 5.125 L 25.75 10 L 16 14.875 L 6.25 10 Z M 15 8 C 14.449219 8 14 8.449219 14 9 C 14 9.550781 14.449219 10 15 10 C 15.550781 10 16 9.550781 16 9 C 16 8.449219 15.550781 8 15 8 Z M 12 9 C 11.449219 9 11 9.449219 11 10 C 11 10.550781 11.449219 11 12 11 C 12.550781 11 13 10.550781 13 10 C 13 9.449219 12.550781 9 12 9 Z M 20 9 C 19.449219 9 19 9.449219 19 10 C 19 10.550781 19.449219 11 20 11 C 20.550781 11 21 10.550781 21 10 C 21 9.449219 20.550781 9 20 9 Z M 15 11 C 14.449219 11 14 11.449219 14 12 C 14 12.550781 14.449219 13 15 13 C 15.550781 13 16 12.550781 16 12 C 16 11.449219 15.550781 11 15 11 Z M 5 11.625 L 16 17.125 L 16.4375 16.90625 L 27 11.65625 L 27 13.375 L 16 18.9375 L 5 13.375 Z M 5 15.625 L 15.5625 20.9375 L 16 21.15625 L 16.4375 20.9375 L 27 15.625 L 27 17.375 L 16 22.875 L 5 17.375 Z M 5 19.625 L 16 25.125 L 27 19.625 L 27 21.375 L 16 26.875 L 5 21.375 Z "></path>
</g>
</svg>
