<?xml version="1.0" encoding="UTF-8"?>
<svg xmlns="http://www.w3.org/2000/svg" xmlns:xlink="http://www.w3.org/1999/xlink" viewBox="0 0 32 32" version="1.1">
<g>
<path d="M 4 4 L 4 28 L 28 28 L 28 26 L 26 26 C 25.875 26 25.777344 25.976563 25.53125 25.65625 C 25.285156 25.335938 25.011719 24.742188 24.75 24 C 24.230469 22.511719 23.761719 20.425781 23.25 18.28125 C 22.738281 16.136719 22.179688 13.933594 21.28125 12.1875 C 20.832031 11.3125 20.296875 10.554688 19.59375 9.96875 C 18.890625 9.382813 17.984375 9 17 9 C 16.015625 9 15.109375 9.382813 14.40625 9.96875 C 13.703125 10.554688 13.167969 11.3125 12.71875 12.1875 C 11.820313 13.933594 11.261719 16.136719 10.75 18.28125 C 10.238281 20.425781 9.769531 22.511719 9.25 24 C 8.988281 24.742188 8.714844 25.335938 8.46875 25.65625 C 8.222656 25.976563 8.125 26 8 26 L 6 26 L 6 4 Z M 17 11 C 17.515625 11 17.902344 11.15625 18.3125 11.5 C 18.722656 11.84375 19.128906 12.40625 19.5 13.125 C 20.242188 14.566406 20.8125 16.613281 21.3125 18.71875 C 21.8125 20.824219 22.25 22.988281 22.84375 24.6875 C 23.011719 25.160156 23.171875 25.601563 23.375 26 L 10.625 26 C 10.828125 25.601563 10.988281 25.160156 11.15625 24.6875 C 11.75 22.988281 12.1875 20.824219 12.6875 18.71875 C 13.1875 16.613281 13.757813 14.566406 14.5 13.125 C 14.871094 12.40625 15.277344 11.84375 15.6875 11.5 C 16.097656 11.15625 16.484375 11 17 11 Z "></path>
</g>
</svg>
