<?xml version="1.0" encoding="UTF-8"?>
<svg xmlns="http://www.w3.org/2000/svg" xmlns:xlink="http://www.w3.org/1999/xlink" viewBox="0 0 32 32" version="1.1">
<g>
<path d="M 16.625 2.875 L 3.28125 16.21875 L 4.71875 17.625 L 17.21875 5.125 L 24.71875 7.28125 L 26.875 14.78125 L 14.375 27.28125 L 15.78125 28.71875 L 29.125 15.375 L 28.96875 14.8125 L 26.5 6.1875 L 26.34375 5.65625 L 25.8125 5.5 L 17.1875 3.03125 Z M 17.4375 9.4375 L 15 11.90625 L 14.28125 12.625 L 15 13.3125 L 18.6875 17 L 19.375 17.71875 L 20.09375 17 L 22.5625 14.5625 L 21.125 13.125 L 19.375 14.875 L 18.9375 14.4375 L 20.09375 13.3125 L 18.6875 11.90625 L 17.5625 13.0625 L 17.125 12.625 L 18.875 10.875 Z M 12.9375 14.125 L 11.53125 15.5625 L 13.4375 17.46875 L 11 16.65625 L 10.40625 16.46875 L 9.96875 16.90625 L 9.6875 17.21875 L 8.96875 17.9375 L 9.6875 18.625 L 14 22.9375 L 15.40625 21.53125 L 13.46875 19.59375 L 15.90625 20.40625 L 16.5 20.59375 L 16.9375 20.15625 L 17.25 19.875 L 17.9375 19.15625 L 17.25 18.4375 Z "></path>
</g>
</svg>
