<?xml version="1.0" encoding="UTF-8"?>
<svg xmlns="http://www.w3.org/2000/svg" xmlns:xlink="http://www.w3.org/1999/xlink" viewBox="0 0 32 32" version="1.1">
<g>
<path d="M 16 3 L 13 9 L 16 8 L 19 9 Z M 12.46875 5.59375 C 8.433594 6.96875 5.425781 10.605469 5.03125 15 L 3 15 L 3 17 L 5.0625 17 C 5.539063 22.269531 9.730469 26.460938 15 26.9375 L 15 29 L 17 29 L 17 26.9375 C 22.269531 26.460938 26.460938 22.269531 26.9375 17 L 29 17 L 29 15 L 26.96875 15 C 26.574219 10.605469 23.566406 6.96875 19.53125 5.59375 L 21 8.53125 C 23.152344 9.972656 24.636719 12.300781 24.9375 15 L 23 15 L 23 17 L 24.9375 17 C 24.46875 21.152344 21.152344 24.46875 17 24.9375 L 17 23 L 15 23 L 15 24.9375 C 10.847656 24.46875 7.53125 21.152344 7.0625 17 L 9 17 L 9 15 L 7.0625 15 C 7.363281 12.300781 8.847656 9.972656 11 8.53125 Z "></path>
</g>
</svg>
