<?xml version="1.0" encoding="UTF-8"?>
<svg xmlns="http://www.w3.org/2000/svg" xmlns:xlink="http://www.w3.org/1999/xlink" viewBox="0 0 32 32" version="1.1">
<g>
<path d="M 11 4 L 11 10 C 11 10.300781 10.292969 11.199219 9.59375 12 C 7.59375 12.199219 6 13.898438 6 16 C 6 18.199219 7.800781 20 10 20 C 11 20 11.304688 20.285156 11.90625 20.6875 C 12.605469 21.285156 13.5 22 16 22 C 18.5 22 19.394531 21.289063 20.09375 20.6875 C 20.695313 20.289063 21 20 22 20 C 24.199219 20 26 18.199219 26 16 C 26 13.898438 24.40625 12.199219 22.40625 12 C 21.707031 11.199219 21 10.300781 21 10 L 21 4 L 19 4 L 19 10 C 19 11.300781 20.613281 12.988281 21.3125 13.6875 L 21.59375 14 L 22 14 C 23.101563 14 24 14.898438 24 16 C 24 17.101563 23.101563 18 22 18 C 20.300781 18 19.507813 18.59375 18.90625 19.09375 C 18.304688 19.59375 17.792969 20 16.09375 20 L 15.90625 20 C 14.207031 20 13.695313 19.59375 13.09375 19.09375 C 12.492188 18.59375 11.699219 18 10 18 C 8.898438 18 8 17.101563 8 16 C 8 14.898438 8.898438 14 10 14 L 10.40625 14 L 10.6875 13.6875 C 11.324219 13.050781 12.695313 11.605469 12.949219 10.371094 C 12.976563 10.246094 13 10.121094 13 10 L 13 4 Z M 11 22 L 8 25 L 10 25 L 10 28 L 12 28 L 12 25 L 14 25 Z M 21 22 L 18 25 L 20 25 L 20 28 L 22 28 L 22 25 L 24 25 Z "></path>
</g>
</svg>
