<?xml version="1.0" encoding="UTF-8"?>
<svg xmlns="http://www.w3.org/2000/svg" xmlns:xlink="http://www.w3.org/1999/xlink" viewBox="0 0 32 32" version="1.1">
<g>
<path d="M 3 7 L 3 23 L 29 23 L 29 7 Z M 5 9 L 27 9 L 27 21 L 5 21 Z M 6 10 L 6 12 L 8 12 L 8 10 Z M 24 10 L 24 12 L 26 12 L 26 10 Z M 14.21875 11.78125 L 12.78125 13.21875 L 14.5625 15 L 12.78125 16.78125 L 14.21875 18.21875 L 16 16.4375 L 17.78125 18.21875 L 19.21875 16.78125 L 17.4375 15 L 19.21875 13.21875 L 17.78125 11.78125 L 16 13.5625 Z M 6 14 L 6 16 L 8 16 L 8 14 Z M 24 14 L 24 16 L 26 16 L 26 14 Z M 6 18 L 6 20 L 8 20 L 8 18 Z M 24 18 L 24 20 L 26 20 L 26 18 Z M 10 24 L 10 26 L 22 26 L 22 24 Z "></path>
</g>
</svg>
