<?xml version="1.0" encoding="UTF-8"?>
<svg xmlns="http://www.w3.org/2000/svg" xmlns:xlink="http://www.w3.org/1999/xlink" viewBox="0 0 32 32" version="1.1">
<g>
<path d="M 3.71875 2.28125 L 2.28125 3.71875 L 17.6875 19.09375 C 16.636719 20.449219 16 22.15625 16 24 C 16 24.695313 16.113281 25.355469 16.28125 26 C 16.1875 26.003906 16.097656 26 16 26 C 11.914063 26 8.507813 22.929688 8.0625 18.875 L 7.9375 17.96875 L 6.9375 18 C 6.410156 17.972656 6 17.535156 6 17 C 6 16.464844 6.410156 16.027344 6.9375 16 L 7.9375 16.03125 L 8.0625 15.125 C 8.148438 14.347656 8.324219 13.582031 8.625 12.875 L 7.125 11.375 C 6.679688 12.230469 6.371094 13.167969 6.1875 14.125 C 4.929688 14.484375 4 15.628906 4 17 C 4 18.351563 4.910156 19.503906 6.1875 19.875 C 7.070313 24.5625 11.152344 28 16 28 C 16.347656 28 16.691406 27.972656 17.03125 27.9375 C 18.40625 30.363281 21.019531 32 24 32 C 28.40625 32 32 28.40625 32 24 C 32 21.050781 30.386719 18.480469 28 17.09375 C 28 17.0625 28 17.03125 28 17 C 28 15.644531 26.992188 14.679688 25.75 14.3125 C 25.058594 10.371094 22.121094 7.199219 18.28125 6.28125 C 18.40625 6.125 18.554688 6 19 6 L 19 4 C 17.917969 4 17.050781 4.546875 16.59375 5.1875 C 16.566406 5.226563 16.558594 5.273438 16.53125 5.3125 C 15.796875 4.015625 14.222656 3 12 3 L 12 5 C 13.511719 5 14.304688 5.523438 14.6875 6.09375 C 12.8125 6.339844 11.085938 7.109375 9.6875 8.25 Z M 16 8 C 20.128906 8 23.496094 11.121094 23.9375 15.125 L 24.0625 16 C 24.042969 16 24.019531 16 24 16 C 22.851563 16 21.769531 16.246094 20.78125 16.6875 C 20.515625 16.269531 20.035156 16 19.5 16 C 18.929688 16 18.441406 16.3125 18.1875 16.78125 L 11.09375 9.6875 C 12.449219 8.625 14.136719 8 16 8 Z M 25 16 C 25.199219 16 25.378906 16.0625 25.53125 16.15625 C 25.289063 16.109375 25.058594 16.054688 24.8125 16.03125 Z M 11.875 16.125 C 11.351563 16.359375 11 16.890625 11 17.5 C 11 18.328125 11.671875 19 12.5 19 C 13.109375 19 13.640625 18.648438 13.875 18.125 Z M 24 18 C 27.324219 18 30 20.675781 30 24 C 30 27.324219 27.324219 30 24 30 C 20.675781 30 18 27.324219 18 24 C 18 20.675781 20.675781 18 24 18 Z M 21 20 L 23 24 L 21 28 L 23 28 L 24 26 L 25 28 L 27 28 L 25 24 L 27 20 L 25 20 L 24 22 L 23 20 Z "></path>
</g>
</svg>
