<?xml version="1.0"?>
<svg xmlns="http://www.w3.org/2000/svg" viewBox="0 0 32 32">
    <path d="M 24 3 C 22.233751 3 20.645082 3.776469 19.544922 5 L 7 5 C 5.3550302 5 4 6.3550302 4 8 L 4 26 C 4 27.64497 5.3550302 29 7 29 L 25 29 C 26.64497 29 28 27.64497 28 26 L 28 13.455078 C 29.223531 12.354918 30 10.766249 30 9 C 30 5.6981361 27.301864 3 24 3 z M 24 5 C 26.220984 5 28 6.7790164 28 9 C 28 11.220984 26.220984 13 24 13 C 21.779016 13 20 11.220984 20 9 C 20 6.7790164 21.779016 5 24 5 z M 7 7 L 18.351562 7 C 18.127935 7.6270868 18 8.298272 18 9 C 18 12.301864 20.698136 15 24 15 C 24.701728 15 25.372913 14.872065 26 14.648438 L 26 26 C 26 26.56503 25.56503 27 25 27 L 7 27 C 6.4349698 27 6 26.56503 6 26 L 6 8 C 6 7.4349698 6.4349698 7 7 7 z" font-weight="400" font-family="sans-serif" white-space="normal" overflow="visible"></path>
</svg>
