<?xml version="1.0" encoding="UTF-8"?>
<svg xmlns="http://www.w3.org/2000/svg" xmlns:xlink="http://www.w3.org/1999/xlink" viewBox="0 0 32 32" version="1.1">
<g>
<path d="M 0 7 L 0 25 L 32 25 L 32 7 Z M 2 9 L 30 9 L 30 23 L 2 23 Z M 4 12 L 4 20 L 6 20 L 6 17 L 7 18.34375 L 7 20 L 9 20 L 9 12 L 7 12 L 7 15 L 6 13.65625 L 6 12 Z M 12.5 12 C 11.132813 12 10 13.132813 10 14.5 L 10 17.5 C 10 18.867188 11.132813 20 12.5 20 C 13.867188 20 15 18.867188 15 17.5 L 15 14.5 C 15 13.132813 13.867188 12 12.5 12 Z M 16 12 L 16 17.5 C 16 18.867188 17.132813 20 18.5 20 C 19.867188 20 21 18.867188 21 17.5 L 21 12 L 19 12 L 19 17.5 C 19 17.785156 18.785156 18 18.5 18 C 18.214844 18 18 17.785156 18 17.5 L 18 12 Z M 22 12 L 22 20 L 24 20 L 24 17 L 25 18.34375 L 25 20 L 27 20 L 27 12 L 25 12 L 25 15 L 24 13.65625 L 24 12 Z M 12.5 14 C 12.785156 14 13 14.214844 13 14.5 L 13 17.5 C 13 17.785156 12.785156 18 12.5 18 C 12.214844 18 12 17.785156 12 17.5 L 12 14.5 C 12 14.214844 12.214844 14 12.5 14 Z "></path>
</g>
</svg>
