<?xml version="1.0" encoding="UTF-8"?>
<svg xmlns="http://www.w3.org/2000/svg" xmlns:xlink="http://www.w3.org/1999/xlink" viewBox="0 0 32 32" version="1.1">
<g>
<path d="M 8.5 7 C 4.945313 7 2 9.945313 2 13.5 C 2 16.03125 4.09375 17.90625 4.09375 17.90625 L 14 27.8125 L 17.90625 23.90625 L 21.28125 27.3125 L 22 28 L 22.71875 27.3125 L 28.46875 21.53125 C 28.46875 21.53125 28.5 21.5 28.5 21.5 C 28.558594 21.457031 30 20.332031 30 18.5 C 30 16.199219 28.210938 14.304688 25.96875 14.0625 C 25.996094 13.882813 26 13.691406 26 13.5 C 26 9.945313 23.054688 7 19.5 7 C 16.640625 7 14.816406 8.648438 14 9.46875 C 13.183594 8.648438 11.359375 7 8.5 7 Z M 8.5 9 C 10.878906 9 13.25 11.46875 13.25 11.46875 L 14 12.3125 L 14.75 11.46875 C 14.75 11.46875 17.121094 9 19.5 9 C 21.945313 9 24 11.054688 24 13.5 C 24 13.664063 23.921875 13.984375 23.8125 14.3125 C 23.011719 14.613281 22.421875 15.074219 22 15.46875 C 21.324219 14.835938 20.238281 14 18.5 14 C 16.039063 14 14 16.039063 14 18.5 C 14 20.332031 15.441406 21.457031 15.5 21.5 C 15.5 21.5 15.53125 21.53125 15.53125 21.53125 L 16.5 22.5 L 14 24.96875 L 5.59375 16.59375 L 5.5 16.5 C 5.5 16.5 4 14.769531 4 13.5 C 4 11.054688 6.054688 9 8.5 9 Z M 18.5 16 C 19.769531 16 21.25 17.46875 21.25 17.46875 L 22 18.3125 L 22.75 17.46875 C 22.75 17.46875 24.230469 16 25.5 16 C 26.839844 16 28 17.160156 28 18.5 C 28 19.035156 27.125 20.0625 27.125 20.0625 L 27.09375 20.0625 L 27.09375 20.09375 L 22 25.1875 L 16.90625 20.09375 L 16.90625 20.0625 L 16.875 20.0625 C 16.875 20.0625 16 19.035156 16 18.5 C 16 17.160156 17.160156 16 18.5 16 Z "></path>
</g>
</svg>
