<?xml version="1.0" encoding="UTF-8"?>
<svg xmlns="http://www.w3.org/2000/svg" xmlns:xlink="http://www.w3.org/1999/xlink" viewBox="0 0 32 32" version="1.1">
<g>
<path d="M 16 2 C 14.347656 2 13 3.347656 13 5 C 13 6.652344 14.347656 8 16 8 C 17.652344 8 19 6.652344 19 5 C 19 3.347656 17.652344 2 16 2 Z M 13.71875 10 L 13.5 10.15625 L 9.0625 12.8125 C 8.523438 12.304688 7.792969 12 7 12 C 5.355469 12 4 13.355469 4 15 C 4 16.644531 5.355469 18 7 18 C 8.644531 18 10 16.644531 10 15 C 10 14.847656 9.992188 14.707031 9.96875 14.5625 L 13 12.75 L 13 18.75 L 10.34375 24.03125 C 10.226563 24.015625 10.117188 24 10 24 C 8.355469 24 7 25.355469 7 27 C 7 28.644531 8.355469 30 10 30 C 11.644531 30 13 28.644531 13 27 C 13 26.191406 12.683594 25.449219 12.15625 24.90625 L 14.625 20 L 17.375 20 L 19.84375 24.90625 C 19.316406 25.449219 19 26.191406 19 27 C 19 28.644531 20.355469 30 22 30 C 23.644531 30 25 28.644531 25 27 C 25 25.355469 23.644531 24 22 24 C 21.882813 24 21.773438 24.015625 21.65625 24.03125 L 19 18.75 L 19 12.75 L 22.03125 14.5625 C 22.007813 14.707031 22 14.847656 22 15 C 22 16.644531 23.355469 18 25 18 C 26.644531 18 28 16.644531 28 15 C 28 13.355469 26.644531 12 25 12 C 24.207031 12 23.476563 12.304688 22.9375 12.8125 L 18.5 10.15625 L 18.28125 10 Z M 7 14 C 7.5625 14 8 14.4375 8 15 C 8 15.5625 7.5625 16 7 16 C 6.4375 16 6 15.5625 6 15 C 6 14.4375 6.4375 14 7 14 Z M 25 14 C 25.5625 14 26 14.4375 26 15 C 26 15.5625 25.5625 16 25 16 C 24.4375 16 24 15.5625 24 15 C 24 14.4375 24.4375 14 25 14 Z M 10 26 C 10.5625 26 11 26.4375 11 27 C 11 27.5625 10.5625 28 10 28 C 9.4375 28 9 27.5625 9 27 C 9 26.4375 9.4375 26 10 26 Z M 22 26 C 22.5625 26 23 26.4375 23 27 C 23 27.5625 22.5625 28 22 28 C 21.4375 28 21 27.5625 21 27 C 21 26.4375 21.4375 26 22 26 Z "></path>
</g>
</svg>
