<?xml version="1.0" encoding="UTF-8"?>
<svg xmlns="http://www.w3.org/2000/svg" xmlns:xlink="http://www.w3.org/1999/xlink" viewBox="0 0 32 32" version="1.1">
<g>
<path d="M 10.4375 5 L 10.15625 5.5 C 10.15625 5.5 7 10.71875 7 18 L 7 19 L 7.0625 19 C 7.570313 23.484375 11.382813 27 16 27 C 20.617188 27 24.429688 23.484375 24.9375 19 L 25 19 L 25 18 C 25 10.71875 21.84375 5.5 21.84375 5.5 L 21.5625 5 Z M 11.625 7 L 20.375 7 C 20.726563 7.625 22.652344 11.359375 22.90625 17 L 9.09375 17 C 9.347656 11.359375 11.273438 7.625 11.625 7 Z M 15 9 L 15 11 L 13 11 L 13 13 L 15 13 L 15 15 L 17 15 L 17 13 L 19 13 L 19 11 L 17 11 L 17 9 Z M 9.09375 19 L 22.90625 19 C 22.421875 22.398438 19.535156 25 16 25 C 12.464844 25 9.578125 22.398438 9.09375 19 Z "></path>
</g>
</svg>
