<?xml version="1.0" encoding="UTF-8"?>
<svg xmlns="http://www.w3.org/2000/svg" xmlns:xlink="http://www.w3.org/1999/xlink" viewBox="0 0 32 32" version="1.1">
<g>
<path d="M 10.4375 5 L 10.15625 5.5 C 10.15625 5.5 9.25 7.046875 8.40625 9.5625 C 6.578125 10.738281 2 14.339844 2 21 L 2 25 L 10.375 25 C 11.917969 26.242188 13.871094 27 16 27 C 18.128906 27 20.082031 26.242188 21.625 25 L 30 25 L 30 21 C 30 14.117188 25.207031 10.484375 23.5625 9.4375 C 22.730469 6.992188 21.84375 5.5 21.84375 5.5 L 21.5625 5 Z M 11.625 7 L 20.375 7 C 20.726563 7.625 22.652344 11.359375 22.90625 17 L 9.09375 17 C 9.347656 11.359375 11.273438 7.625 11.625 7 Z M 15 9 L 15 11 L 13 11 L 13 13 L 15 13 L 15 15 L 17 15 L 17 13 L 19 13 L 19 11 L 17 11 L 17 9 Z M 24.4375 12.65625 C 26.089844 14.234375 28 16.941406 28 21 L 28 23 L 23.5 23 C 24.28125 21.835938 24.773438 20.457031 24.9375 19 L 25 19 L 25 18 C 25 16.046875 24.769531 14.25 24.4375 12.65625 Z M 7.53125 12.78125 C 7.214844 14.34375 7 16.101563 7 18 L 7 19 L 7.0625 19 C 7.226563 20.457031 7.71875 21.835938 8.5 23 L 4 23 L 4 21 C 4 17.046875 5.867188 14.375 7.53125 12.78125 Z M 9.09375 19 L 22.90625 19 C 22.421875 22.398438 19.535156 25 16 25 C 12.464844 25 9.578125 22.398438 9.09375 19 Z "></path>
</g>
</svg>
