<?xml version="1.0" encoding="UTF-8"?>
<svg xmlns="http://www.w3.org/2000/svg" xmlns:xlink="http://www.w3.org/1999/xlink" viewBox="0 0 32 32" version="1.1">
<g>
<path d="M 25 4 C 25 5.457031 24.660156 6.117188 24.1875 6.65625 C 23.894531 6.992188 23.488281 7.265625 23.0625 7.59375 C 22.460938 6.953125 21.421875 5.964844 19.96875 5.15625 C 18.816406 4.515625 17.429688 4.023438 15.90625 4.09375 C 14.382813 4.164063 12.75 4.8125 11.28125 6.28125 L 10.90625 6.6875 L 11.03125 7.1875 C 11.03125 7.1875 11.082031 7.476563 11.15625 7.75 C 10.402344 8.308594 9.664063 8.929688 8.96875 9.625 C 4.410156 14.183594 2.667969 20.277344 5.03125 24.40625 C 5.03125 24.414063 5.015625 24.421875 5 24.5 C 4.953125 24.703125 4.832031 25.058594 4.6875 25.375 C 4.398438 26.003906 4.0625 26.5625 4.0625 26.5625 L 5.40625 27.96875 C 5.40625 27.96875 5.992188 27.597656 6.625 27.3125 C 6.941406 27.167969 7.289063 27.046875 7.5 27 C 7.605469 26.976563 7.664063 27 7.65625 27 C 11.785156 29.3125 17.835938 27.570313 22.375 23.03125 C 22.933594 22.472656 23.679688 21.667969 24.21875 20.8125 C 24.523438 20.898438 24.8125 20.96875 24.8125 20.96875 L 25.3125 21.09375 L 25.71875 20.71875 C 27.183594 19.253906 27.835938 17.617188 27.90625 16.09375 C 27.976563 14.570313 27.484375 13.1875 26.84375 12.03125 C 26.085938 10.664063 25.175781 9.679688 24.53125 9.0625 C 24.894531 8.773438 25.289063 8.425781 25.6875 7.96875 C 26.429688 7.117188 27 5.832031 27 4 Z M 16 6.09375 C 17.035156 6.042969 18.066406 6.355469 19 6.875 C 20.871094 7.914063 22.21875 9.625 22.21875 9.625 L 22.28125 9.71875 L 22.375 9.78125 C 22.375 9.78125 24.054688 11.128906 25.09375 13 C 25.613281 13.9375 25.953125 14.964844 25.90625 16 C 25.863281 16.890625 25.457031 17.824219 24.625 18.8125 C 24.332031 18.734375 24.054688 18.6875 23.03125 18.1875 C 21.648438 17.511719 19.753906 16.316406 17.71875 14.28125 C 15.683594 12.246094 14.488281 10.351563 13.8125 8.96875 C 13.3125 7.945313 13.265625 7.667969 13.1875 7.375 C 14.179688 6.539063 15.109375 6.136719 16 6.09375 Z M 11.9375 9.6875 C 11.964844 9.742188 11.972656 9.789063 12 9.84375 C 12.765625 11.402344 14.078125 13.515625 16.28125 15.71875 C 18.484375 17.921875 20.597656 19.234375 22.15625 20 C 22.210938 20.027344 22.257813 20.035156 22.3125 20.0625 C 21.917969 20.597656 21.363281 21.230469 20.96875 21.625 C 16.851563 25.742188 11.492188 26.949219 8.53125 25.21875 L 8.53125 25.25 C 7.964844 24.886719 7.445313 24.96875 7.03125 25.0625 C 6.988281 25.074219 6.949219 25.082031 6.90625 25.09375 C 6.921875 25.039063 6.957031 24.996094 6.96875 24.9375 C 7.058594 24.527344 7.140625 24.011719 6.78125 23.46875 C 5.050781 20.507813 6.257813 15.148438 10.375 11.03125 C 10.875 10.53125 11.402344 10.101563 11.9375 9.6875 Z "></path>
</g>
</svg>
