<?xml version="1.0"?>
<svg xmlns="http://www.w3.org/2000/svg" viewBox="0 0 32 32">
    <path d="M 19.005859 6.0039062 C 14.672859 6.0039062 11.287516 7.11125 8.2285156 8.65625 C 6.3165156 9.63425 5 10.857422 5 10.857422 C 5 10.857422 5.6094063 13.510297 8.4414062 17.404297 C 10.678406 20.261297 12.463563 21.661625 14.601562 23.265625 C 18.240562 25.875625 21.228516 26.998047 21.228516 26.998047 C 21.228516 26.998047 21.370937 27.103328 18.835938 25.236328 C 16.893937 23.710328 16.796875 23.529297 16.796875 23.529297 C 16.796875 23.529297 16.611078 22.932906 16.455078 22.378906 C 11.371078 18.792906 9.6582031 12.564453 9.6582031 12.564453 C 9.6582031 12.564453 15.125734 7.8845156 22.177734 8.1035156 L 22.460938 7.3164062 C 22.460938 7.3164062 23.522 7.1574687 26 7.2304688 C 22.446 5.8744687 19.005859 6.0039062 19.005859 6.0039062 z M 24.589844 9.3828125 C 17.561844 9.3218125 13.429688 14.201172 13.429688 14.201172 C 13.429688 14.201172 14.122828 17.465563 16.548828 20.226562 C 16.201828 17.313562 16.242188 15.146484 16.242188 15.146484 C 16.242188 15.146484 19.695844 11.4715 24.589844 11.5625 C 29.176844 11.5935 32 14.582031 32 14.582031 C 32 14.582031 30.177203 11.867953 27.283203 10.251953 C 27.283203 10.251953 27.562813 9.871375 27.882812 9.734375 C 27.883812 9.733375 26.376844 9.4128125 24.589844 9.3828125 z M 4.3125 15.951172 C 3.3365 16.603172 2.361 16.174859 0 17.255859 C 3.021 20.865859 5.540375 22.982734 9.484375 24.802734 L 10.882812 24.802734 C 10.882812 24.802734 13.309 25.408 16 26 C 8.336 22.73 4.3125 15.951172 4.3125 15.951172 z"></path>
</svg>
