<?xml version="1.0" encoding="UTF-8"?>
<svg xmlns="http://www.w3.org/2000/svg" xmlns:xlink="http://www.w3.org/1999/xlink" viewBox="0 0 32 32" version="1.1">
<g>
<path d="M 22 3 C 20.378906 3 19.027344 4.007813 18.40625 5.40625 C 17.941406 5.257813 17.519531 5 17 5 C 14.25 5 12 7.25 12 10 C 12 10.839844 12.257813 11.589844 12.625 12.28125 C 11.101563 12.847656 10 14.285156 10 16 C 10 16.796875 10.265625 17.558594 10.6875 18.25 C 9.707031 19.035156 9 20.148438 9 21.5 C 9 22.914063 9.875 24.136719 11.09375 24.6875 C 9.136719 26.097656 6.804688 27 4 27 L 4 29 C 7.902344 29 11.027344 27.46875 13.5 25.28125 C 14.113281 26.304688 15.234375 27 16.5 27 C 18.421875 27 20 25.421875 20 23.5 C 20 23.332031 19.921875 23.144531 19.90625 22.96875 C 19.941406 22.96875 19.964844 23 20 23 C 22.199219 23 24 21.199219 24 19 C 24 18.589844 23.867188 18.21875 23.75 17.84375 C 26.132813 17.464844 28 15.484375 28 13 C 28 11.175781 27 9.617188 25.53125 8.75 C 25.800781 8.214844 26 7.636719 26 7 C 26 4.800781 24.199219 3 22 3 Z M 22 5 C 23.117188 5 24 5.882813 24 7 C 24 7.570313 23.761719 8.070313 23.375 8.4375 L 23.8125 10.125 C 25.082031 10.480469 26 11.617188 26 13 C 26 14.667969 24.667969 16 23 16 C 22.789063 16 22.5625 15.984375 22.34375 15.9375 L 21.4375 17.59375 C 21.792969 17.957031 22 18.453125 22 19 C 22 20.117188 21.117188 21 20 21 C 19.699219 21 19.402344 20.917969 19.125 20.78125 L 17.75 22 C 17.914063 22.488281 18 23.074219 18 23.5 C 18 24.339844 17.339844 25 16.5 25 C 15.742188 25 15.144531 24.46875 15.03125 23.75 C 16.367188 22.265625 17.484375 20.605469 18.375 18.96875 C 21.042969 14.058594 21.96875 9.1875 21.96875 9.1875 L 20.03125 8.8125 C 20.03125 8.8125 19.121094 13.441406 16.625 18.03125 C 15.714844 19.703125 14.609375 21.335938 13.28125 22.75 C 13.046875 22.898438 12.789063 23 12.5 23 C 11.660156 23 11 22.339844 11 21.5 C 11 20.570313 11.785156 19.527344 12.28125 19.375 L 12.65625 17.65625 C 12.300781 17.355469 12 16.671875 12 16 C 12 14.882813 12.882813 14 14 14 C 14.042969 14 14.128906 14.007813 14.28125 14.03125 L 15.0625 12.28125 C 14.402344 11.722656 14 10.917969 14 10 C 14 8.332031 15.332031 7 17 7 C 17.554688 7 18.070313 7.160156 18.53125 7.4375 L 20.03125 6.71875 C 20.167969 5.742188 20.984375 5 22 5 Z "></path>
</g>
</svg>
