<?xml version="1.0" encoding="UTF-8"?>
<svg xmlns="http://www.w3.org/2000/svg" xmlns:xlink="http://www.w3.org/1999/xlink" viewBox="0 0 32 32" version="1.1">
<g>
<path d="M 16 4 C 12.148438 4 9 7.140625 9 11 C 9 14.484375 9.882813 16.855469 10 17.15625 C 10.003906 17.21875 10.082031 18.46875 9.71875 19.71875 C 9.53125 20.359375 9.226563 20.945313 8.8125 21.34375 C 8.398438 21.742188 7.898438 22 7 22 C 5.835938 22 5 21.269531 5 20 C 5 19.34375 5.335938 18.847656 5.84375 18.0625 C 6.351563 17.277344 7 16.226563 7 14.78125 C 7 13.28125 6.164063 12.1875 5.28125 11.65625 C 4.398438 11.125 3.550781 11 3 11 L 3 13 C 3.179688 13 3.8125 13.082031 4.25 13.34375 C 4.6875 13.605469 5 13.921875 5 14.78125 C 5 15.652344 4.648438 16.210938 4.15625 16.96875 C 3.664063 17.726563 3 18.671875 3 20 C 3 22.277344 4.851563 24 7 24 C 8.34375 24 9.460938 23.507813 10.21875 22.78125 C 10.976563 22.054688 11.40625 21.140625 11.65625 20.28125 C 12.160156 18.5625 12 16.90625 12 16.90625 L 11.96875 16.78125 L 11.9375 16.625 C 11.9375 16.625 11 14.332031 11 11 C 11 8.21875 13.226563 6 16 6 C 18.773438 6 21 8.21875 21 11 C 21 14.332031 20.0625 16.625 20.0625 16.625 L 20.03125 16.78125 L 20 16.90625 C 20 16.90625 19.839844 18.5625 20.34375 20.28125 C 20.59375 21.140625 21.023438 22.054688 21.78125 22.78125 C 22.539063 23.507813 23.65625 24 25 24 C 27.148438 24 29 22.277344 29 20 C 29 18.671875 28.335938 17.726563 27.84375 16.96875 C 27.351563 16.210938 27 15.652344 27 14.78125 C 27 13.921875 27.3125 13.605469 27.75 13.34375 C 28.1875 13.082031 28.820313 13 29 13 L 29 11 C 28.449219 11 27.601563 11.125 26.71875 11.65625 C 25.835938 12.1875 25 13.28125 25 14.78125 C 25 16.226563 25.648438 17.277344 26.15625 18.0625 C 26.664063 18.847656 27 19.34375 27 20 C 27 21.269531 26.164063 22 25 22 C 24.101563 22 23.601563 21.742188 23.1875 21.34375 C 22.773438 20.945313 22.46875 20.359375 22.28125 19.71875 C 21.917969 18.46875 21.996094 17.21875 22 17.15625 C 22.117188 16.855469 23 14.484375 23 11 C 23 7.140625 19.851563 4 16 4 Z M 14 11 C 13.449219 11 13 11.449219 13 12 C 13 12.550781 13.449219 13 14 13 C 14.550781 13 15 12.550781 15 12 C 15 11.449219 14.550781 11 14 11 Z M 18 11 C 17.449219 11 17 11.449219 17 12 C 17 12.550781 17.449219 13 18 13 C 18.550781 13 19 12.550781 19 12 C 19 11.449219 18.550781 11 18 11 Z M 13 17.46875 L 13 20.40625 C 13 23.726563 10.097656 26 7.15625 26 C 5.707031 26 3.9375 25.03125 3.9375 25.03125 L 2.9375 26.75 C 2.9375 26.75 4.910156 28 7.15625 28 C 11.136719 28 15 24.878906 15 20.40625 L 15 19.875 C 15.386719 19.929688 15.421875 20 16 20 C 16.578125 20 16.613281 19.929688 17 19.875 L 17 20.40625 C 17 24.878906 20.863281 28 24.84375 28 C 27.089844 28 29.0625 26.75 29.0625 26.75 L 28.0625 25.03125 C 28.0625 25.03125 26.292969 26 24.84375 26 C 21.902344 26 19 23.726563 19 20.40625 L 19 17.46875 L 17.75 17.8125 C 17.75 17.8125 17.046875 18 16 18 C 14.953125 18 14.25 17.8125 14.25 17.8125 Z "></path>
</g>
</svg>
