<?xml version="1.0" encoding="UTF-8"?>
<svg xmlns="http://www.w3.org/2000/svg" xmlns:xlink="http://www.w3.org/1999/xlink" viewBox="0 0 32 32" version="1.1">
<g>
<path d="M 3.71875 2.28125 L 2.28125 3.71875 L 13.3125 14.71875 L 17.28125 18.6875 L 28.28125 29.71875 L 29.71875 28.28125 L 27.28125 25.84375 C 32.417969 19.960938 32.199219 11.011719 26.59375 5.40625 L 25.1875 6.8125 C 30.03125 11.65625 30.261719 19.324219 25.875 24.4375 L 23.0625 21.625 C 25.878906 18.09375 25.640625 12.890625 22.375 9.625 L 20.9375 11.0625 C 23.433594 13.558594 23.640625 17.414063 21.59375 20.15625 L 18.71875 17.28125 L 18.71875 17.25 C 18.894531 16.871094 19 16.449219 19 16 C 19 14.347656 17.652344 13 16 13 C 15.550781 13 15.128906 13.105469 14.75 13.28125 L 14.71875 13.28125 Z M 3.5 7.71875 C 1.886719 10.152344 1 13.011719 1 16 C 1 20.007813 2.574219 23.761719 5.40625 26.59375 L 6.8125 25.1875 C 4.359375 22.734375 3 19.472656 3 16 C 3 13.550781 3.679688 11.21875 4.9375 9.1875 Z M 7.875 12.125 C 6.285156 15.46875 6.859375 19.609375 9.625 22.375 L 11.0625 20.9375 C 9.09375 18.96875 8.535156 16.121094 9.40625 13.65625 Z "></path>
</g>
</svg>
