<?xml version="1.0"?>
<svg xmlns="http://www.w3.org/2000/svg" viewBox="0 0 32 32">
    <path d="M 16 3 C 8.8321429 3 3 8.8321429 3 16 C 3 23.167857 8.8321429 29 16 29 C 23.167857 29 29 23.167857 29 16 C 29 8.8321429 23.167857 3 16 3 z M 16 5 C 22.086977 5 27 9.9130231 27 16 C 27 22.086977 22.086977 27 16 27 C 9.9130231 27 5 22.086977 5 16 C 5 9.9130231 9.9130231 5 16 5 z M 22.292969 9.2929688 L 15 16.585938 L 10.707031 12.292969 L 9.2929688 13.707031 L 15 19.414062 L 23.707031 10.707031 L 22.292969 9.2929688 z M 9 20 L 9 22 L 23 22 L 23 20 L 9 20 z" font-weight="400" font-family="sans-serif" white-space="normal" overflow="visible"></path>
</svg>
