<?xml version="1.0" encoding="UTF-8"?>
<svg xmlns="http://www.w3.org/2000/svg" xmlns:xlink="http://www.w3.org/1999/xlink" viewBox="0 0 32 32" version="1.1">
<g>
<path d="M 6 3 L 6 10 L 8 10 L 8 5 L 24 5 L 24 10 L 26 10 L 26 3 Z M 10.5 12 C 9.117188 12 8 13.117188 8 14.5 L 8 17.5 C 8 18.882813 9.117188 20 10.5 20 C 11.882813 20 13 18.882813 13 17.5 L 13 14.5 C 13 13.117188 11.882813 12 10.5 12 Z M 16.5 12 C 15.117188 12 14 13.117188 14 14.5 L 14 17.5 C 14 18.882813 15.117188 20 16.5 20 L 19 20 L 19 16 L 17 16 L 17 18 L 16.5 18 C 16.285156 18 16 17.714844 16 17.5 L 16 14.5 C 16 14.285156 16.285156 14 16.5 14 C 16.714844 14 17 14.285156 17 14.5 L 17 15 L 19 15 L 19 14.5 C 19 13.117188 17.882813 12 16.5 12 Z M 22.5 12 C 21.117188 12 20 13.117188 20 14.5 L 20 17.5 C 20 18.882813 21.117188 20 22.5 20 L 25 20 L 25 16 L 23 16 L 23 18 L 22.5 18 C 22.285156 18 22 17.714844 22 17.5 L 22 14.5 C 22 14.285156 22.285156 14 22.5 14 C 22.714844 14 23 14.285156 23 14.5 L 23 15 L 25 15 L 25 14.5 C 25 13.117188 23.882813 12 22.5 12 Z M 10.5 14 C 10.714844 14 11 14.285156 11 14.5 L 11 17.5 C 11 17.714844 10.714844 18 10.5 18 C 10.285156 18 10 17.714844 10 17.5 L 10 14.5 C 10 14.285156 10.285156 14 10.5 14 Z M 6 22 L 6 29 L 26 29 L 26 22 L 24 22 L 24 27 L 8 27 L 8 22 Z "></path>
</g>
</svg>
