<?xml version="1.0" encoding="UTF-8"?>
<svg xmlns="http://www.w3.org/2000/svg" xmlns:xlink="http://www.w3.org/1999/xlink" viewBox="0 0 32 32" version="1.1">
<g>
<path d="M 11 4 C 11 4 9.789063 3.992188 8.40625 4.65625 C 7.023438 5.320313 5.414063 6.71875 4.5625 9.28125 C 2.628906 15.078125 6.875 18.78125 6.875 18.78125 L 7 18.875 L 7 28 L 8 28 L 8 19.125 L 8.375 18.53125 L 10.78125 14.5625 L 17.03125 16.03125 L 15.65625 26 L 13 26 L 13 28 L 26 28 L 26 26 L 25.8125 26 L 26.40625 17.84375 C 27.144531 17.574219 27.746094 16.96875 27.9375 16.15625 C 28.242188 14.871094 27.441406 13.554688 26.15625 13.25 L 12 9.875 L 12 4 Z M 10 6.28125 L 10 10.71875 L 9.46875 12.9375 L 7.40625 16.25 C 6.546875 15.285156 5.261719 13.429688 6.4375 9.90625 C 7.128906 7.832031 8.269531 6.941406 9.25 6.46875 C 9.667969 6.265625 9.707031 6.34375 10 6.28125 Z M 11.75 11.90625 L 25.6875 15.1875 C 25.917969 15.242188 26.054688 15.453125 26 15.6875 C 25.945313 15.917969 25.734375 16.054688 25.5 16 L 11.5625 12.6875 Z M 19 16.5 L 19.125 16.53125 L 20.5 26 L 17.6875 26 Z M 21.21875 17.03125 L 24.4375 17.78125 L 23.8125 26 L 22.5 26 Z "></path>
</g>
</svg>
