<?xml version="1.0" encoding="UTF-8"?>
<svg xmlns="http://www.w3.org/2000/svg" xmlns:xlink="http://www.w3.org/1999/xlink" viewBox="0 0 32 32" version="1.1">
<g>
<path d="M 8 7 L 8 8 L 5.75 8 C 5.042969 8 4.554688 8.460938 4.25 8.90625 C 3.945313 9.351563 3.738281 9.859375 3.5625 10.46875 C 3.210938 11.683594 3 13.265625 3 15 C 3 16.734375 3.210938 18.316406 3.5625 19.53125 C 3.613281 19.699219 3.664063 19.84375 3.71875 20 L 3 20 L 3 22 L 29 22 L 29 20 L 28.28125 20 C 28.335938 19.84375 28.386719 19.699219 28.4375 19.53125 C 28.789063 18.316406 29 16.734375 29 15 C 29 13.265625 28.789063 11.683594 28.4375 10.46875 C 28.261719 9.859375 28.054688 9.351563 27.75 8.90625 C 27.445313 8.460938 26.957031 8 26.25 8 L 24 8 L 24 7 L 20 7 L 20 8 L 12 8 L 12 7 Z M 5.90625 10 L 26.09375 10 C 26.105469 10.011719 26.097656 9.992188 26.125 10.03125 C 26.238281 10.195313 26.394531 10.554688 26.53125 11.03125 C 26.808594 11.988281 27 13.421875 27 15 C 27 16.578125 26.808594 18.011719 26.53125 18.96875 C 26.394531 19.445313 26.238281 19.804688 26.125 19.96875 C 26.097656 20.007813 26.105469 19.988281 26.09375 20 L 5.90625 20 C 5.894531 19.988281 5.902344 20.007813 5.875 19.96875 C 5.761719 19.804688 5.605469 19.445313 5.46875 18.96875 C 5.191406 18.011719 5 16.578125 5 15 C 5 13.421875 5.191406 11.988281 5.46875 11.03125 C 5.605469 10.554688 5.761719 10.195313 5.875 10.03125 C 5.902344 9.992188 5.894531 10.011719 5.90625 10 Z M 16 12.40625 C 16 12.40625 14 14.894531 14 16 C 14 17.105469 14.894531 18 16 18 C 17.105469 18 18 17.105469 18 16 C 18 14.894531 16 12.40625 16 12.40625 Z M 4.28125 23 C 4.109375 23.296875 4 23.632813 4 24 C 4 25.105469 4.894531 26 6 26 C 7.105469 26 8 25.105469 8 24 C 8 23.632813 7.890625 23.296875 7.71875 23 Z M 8 24 C 8 25.105469 8.894531 26 10 26 C 11.105469 26 12 25.105469 12 24 C 12 23.632813 11.890625 23.296875 11.71875 23 L 8.28125 23 C 8.109375 23.296875 8 23.632813 8 24 Z M 20.28125 23 C 20.109375 23.296875 20 23.632813 20 24 C 20 25.105469 20.894531 26 22 26 C 23.105469 26 24 25.105469 24 24 C 24 23.632813 23.890625 23.296875 23.71875 23 Z M 24 24 C 24 25.105469 24.894531 26 26 26 C 27.105469 26 28 25.105469 28 24 C 28 23.632813 27.890625 23.296875 27.71875 23 L 24.28125 23 C 24.109375 23.296875 24 23.632813 24 24 Z "></path>
</g>
</svg>
