<?xml version="1.0" encoding="UTF-8"?>
<svg xmlns="http://www.w3.org/2000/svg" xmlns:xlink="http://www.w3.org/1999/xlink" viewBox="0 0 32 32" version="1.1">
<g>
<path d="M 15 4 L 15 6 L 13.125 6 L 13.03125 6.875 L 12.125 14 L 7 14 L 7 16 L 5 16 L 5 21 L 9 21 L 9 23 C 9 23.550781 9.449219 24 10 24 C 10.550781 24 11 23.550781 11 23 L 11 21 L 21 21 L 21 23 C 21 23.550781 21.449219 24 22 24 C 22.550781 24 23 23.550781 23 23 L 23 21 L 27 21 L 27 16 L 25 16 L 25 14 L 19.875 14 L 18.96875 6.875 L 18.875 6 L 17 6 L 17 4 Z M 14.90625 8 L 17.09375 8 L 17.84375 14 L 14.15625 14 Z M 9 16 L 23 16 L 23 18 L 25 18 L 25 19 L 7 19 L 7 18 L 9 18 Z M 0 24 C 0 24.941406 0.585938 25.683594 1.3125 26.1875 C 2.039063 26.691406 2.964844 27 4 27 C 5.039063 27 5.964844 26.691406 6.6875 26.1875 C 6.796875 26.113281 6.898438 26.023438 7 25.9375 C 7.105469 26.027344 7.199219 26.109375 7.3125 26.1875 C 8.039063 26.691406 8.964844 27 10 27 C 11.039063 27 11.964844 26.691406 12.6875 26.1875 C 12.796875 26.113281 12.898438 26.023438 13 25.9375 C 13.105469 26.027344 13.199219 26.109375 13.3125 26.1875 C 14.039063 26.691406 14.964844 27 16 27 C 17.039063 27 17.964844 26.691406 18.6875 26.1875 C 18.796875 26.113281 18.898438 26.023438 19 25.9375 C 19.105469 26.027344 19.199219 26.109375 19.3125 26.1875 C 20.039063 26.691406 20.964844 27 22 27 C 23.039063 27 23.964844 26.691406 24.6875 26.1875 C 24.796875 26.113281 24.898438 26.023438 25 25.9375 C 25.105469 26.027344 25.199219 26.109375 25.3125 26.1875 C 26.039063 26.691406 26.964844 27 28 27 C 29.039063 27 29.964844 26.691406 30.6875 26.1875 C 31.410156 25.683594 32 24.941406 32 24 L 30 24 C 30 24.042969 29.921875 24.3125 29.5625 24.5625 C 29.203125 24.8125 28.632813 25 28 25 C 27.363281 25 26.792969 24.808594 26.4375 24.5625 C 26.082031 24.316406 26 24.058594 26 24 L 24 24 C 24 24.042969 23.921875 24.3125 23.5625 24.5625 C 23.203125 24.8125 22.632813 25 22 25 C 21.363281 25 20.792969 24.808594 20.4375 24.5625 C 20.082031 24.316406 20 24.058594 20 24 L 18 24 C 18 24.042969 17.921875 24.3125 17.5625 24.5625 C 17.203125 24.8125 16.632813 25 16 25 C 15.363281 25 14.792969 24.808594 14.4375 24.5625 C 14.082031 24.316406 14 24.058594 14 24 L 12 24 C 12 24.042969 11.921875 24.3125 11.5625 24.5625 C 11.203125 24.8125 10.632813 25 10 25 C 9.363281 25 8.792969 24.808594 8.4375 24.5625 C 8.082031 24.316406 8 24.058594 8 24 L 6 24 C 6 24.042969 5.921875 24.3125 5.5625 24.5625 C 5.203125 24.8125 4.632813 25 4 25 C 3.363281 25 2.792969 24.808594 2.4375 24.5625 C 2.082031 24.316406 2 24.058594 2 24 Z "></path>
</g>
</svg>
