<?xml version="1.0" encoding="UTF-8"?>
<svg xmlns="http://www.w3.org/2000/svg" xmlns:xlink="http://www.w3.org/1999/xlink" viewBox="0 0 32 32" version="1.1">
<g>
<path d="M 14 2 C 13.308594 2 12.628906 2.25 12.09375 2.6875 C 11.164063 3.445313 10.808594 4.652344 11.09375 5.75 L 10.53125 5.4375 C 10.523438 5.433594 10.507813 5.441406 10.5 5.4375 C 10.039063 5.167969 9.535156 5 9 5 C 7.945313 5 6.980469 5.566406 6.4375 6.46875 C 5.59375 7.878906 6.058594 9.714844 7.46875 10.5625 L 7.5 10.59375 L 7.5625 10.625 L 10.59375 12 L 9.75 12 L 5.875 15.875 C 5.3125 16.4375 5 17.207031 5 18 C 5 18.792969 5.3125 19.5625 5.875 20.125 C 6.007813 20.257813 6.222656 20.238281 6.375 20.34375 C 6.035156 20.945313 5.933594 21.644531 6.3125 22.28125 L 6.28125 22.28125 L 6.3125 22.34375 L 8.59375 26.4375 L 8.75 26.71875 L 9.03125 26.84375 C 9.03125 26.84375 10.167969 27.378906 11.4375 27.90625 C 12.074219 28.167969 12.738281 28.417969 13.34375 28.625 C 13.949219 28.832031 14.414063 29 15 29 C 16.523438 29 17.359375 28.65625 17.90625 28.40625 C 18.453125 28.15625 18.710938 28 20 28 C 20.535156 28 21.910156 28.390625 23.0625 28.84375 C 23.636719 29.070313 24.179688 29.308594 24.59375 29.5 C 25.007813 29.691406 25.363281 29.875 25.3125 29.84375 L 25.5625 30 L 26.96875 30 L 26.96875 29 L 27 18 L 27 17.46875 L 26.5625 17.15625 L 24 15.4375 L 24 7 C 24 5.355469 22.644531 4 21 4 C 19.847656 4 18.847656 4.664063 18.34375 5.625 L 16.3125 3.09375 C 15.742188 2.394531 14.898438 2 14 2 Z M 14 4 C 14.308594 4 14.585938 4.136719 14.78125 4.375 L 18.09375 8.4375 L 18.125 8.53125 L 21.96875 16.5 L 22 16.5 L 22 16.53125 L 22.4375 16.84375 L 25 18.5625 L 24.96875 27.5 C 24.601563 27.335938 24.226563 27.144531 23.78125 26.96875 C 22.542969 26.480469 21.207031 26 20 26 C 18.476563 26 17.640625 26.34375 17.09375 26.59375 C 16.546875 26.84375 16.289063 27 15 27 C 15.042969 27 14.535156 26.902344 14 26.71875 C 13.464844 26.535156 12.828125 26.285156 12.21875 26.03125 C 11.15625 25.59375 10.421875 25.265625 10.1875 25.15625 L 8.03125 21.3125 L 8.03125 21.28125 L 8 21.25 L 8.46875 21.09375 C 9.34375 20.796875 10.3125 21.128906 10.8125 21.90625 L 10.875 22.03125 L 12.25 23.65625 L 12.53125 24 L 15.59375 24 L 15.90625 23.53125 L 17.84375 20.53125 L 18.21875 19.96875 L 17.8125 19.40625 L 15.6875 16.40625 L 15.375 16 L 11.59375 16 L 11.3125 16.28125 L 8.71875 18.6875 L 8.71875 18.71875 C 8.523438 18.914063 8.273438 19 8 19 C 7.726563 19 7.476563 18.914063 7.28125 18.71875 C 7.085938 18.523438 7 18.273438 7 18 C 7 17.726563 7.085938 17.476563 7.28125 17.28125 L 10.59375 14 L 16.59375 14 L 19.1875 17.59375 L 20 17 L 20.875 16.53125 L 20.8125 16.40625 L 16.96875 9.03125 L 16.8125 8.75 L 16.5625 8.625 L 15.71875 8.15625 L 13.21875 5.625 C 12.867188 5.191406 12.941406 4.574219 13.375 4.21875 C 13.550781 4.074219 13.773438 4 14 4 Z M 21 6 C 21.566406 6 22 6.433594 22 7 L 22 11.9375 L 20 7.75 L 20 7 C 20 6.433594 20.433594 6 21 6 Z M 9 7 C 9.179688 7 9.34375 7.0625 9.5 7.15625 L 9.5625 7.15625 L 15.3125 10.21875 L 16.25 12 L 14.4375 12 L 13.59375 11.15625 L 13.40625 11.09375 L 8.5 8.875 L 8.5 8.84375 C 8.019531 8.554688 7.867188 7.949219 8.15625 7.46875 C 8.332031 7.175781 8.65625 7 9 7 Z M 12.375 18 L 14.34375 18 L 15.78125 20.03125 L 14.53125 22 L 13.46875 22 L 12.46875 20.84375 L 12.40625 20.75 L 12.375 20.78125 C 11.972656 20.191406 11.398438 19.796875 10.78125 19.5 Z "></path>
</g>
</svg>
