<?xml version="1.0" encoding="UTF-8"?>
<svg xmlns="http://www.w3.org/2000/svg" xmlns:xlink="http://www.w3.org/1999/xlink" viewBox="0 0 32 32" version="1.1">
<g>
<path d="M 16 5 C 13.019531 5 10.390625 6.476563 8.75 8.71875 C 5.859375 10.097656 4.117188 13.078125 5.46875 16.59375 C 5.1875 16.996094 5 17.453125 5 18 C 5 19.257813 5.890625 20.152344 7 20.59375 L 7 21 C 7 24.300781 9.699219 27 13 27 L 13.90625 27 C 14.449219 27.574219 15.148438 28 16 28 C 16.851563 28 17.550781 27.574219 18.09375 27 L 19 27 C 22.300781 27 25 24.300781 25 21 L 25 20.59375 C 26.109375 20.152344 27 19.257813 27 18 C 27 17.453125 26.8125 16.996094 26.53125 16.59375 C 27.882813 13.078125 26.140625 10.097656 23.25 8.71875 C 21.609375 6.476563 18.980469 5 16 5 Z M 16 7 C 19.878906 7 23 10.121094 23 14 L 23 17 L 24 17 C 24.566406 17 25 17.433594 25 18 C 25 18.566406 24.566406 19 24 19 L 23 19 L 23 21 C 23 23.21875 21.21875 25 19 25 L 17.15625 25 L 16.84375 25.5 C 16.664063 25.804688 16.375 26 16 26 C 15.625 26 15.332031 25.804688 15.15625 25.5 L 14.84375 25 L 13 25 C 10.78125 25 9 23.21875 9 21 L 9 19 L 8 19 C 7.433594 19 7 18.566406 7 18 C 7 17.433594 7.433594 17 8 17 L 9 17 L 9 14 C 9 10.121094 12.121094 7 16 7 Z M 12 15 C 10.90625 15 10 15.90625 10 17 L 10 19 C 10 20.09375 10.90625 21 12 21 L 14 21 C 15.09375 21 16 20.09375 16 19 C 16 20.09375 16.90625 21 18 21 L 20 21 C 21.09375 21 22 20.09375 22 19 L 22 17 C 22 15.90625 21.09375 15 20 15 L 18 15 C 16.90625 15 16 15.90625 16 17 C 16 15.90625 15.09375 15 14 15 Z M 12 17 L 14 17 L 14 19 L 12 19 Z M 18 17 L 20 17 L 20 19 L 18 19 Z "></path>
</g>
</svg>
