<?xml version="1.0" encoding="UTF-8"?>
<svg xmlns="http://www.w3.org/2000/svg" xmlns:xlink="http://www.w3.org/1999/xlink" viewBox="0 0 32 32" version="1.1">
<g>
<path d="M 16 2 C 13.753906 2 11.875 3.515625 11.25 5.5625 C 9.121094 6.132813 7.507813 7.121094 6.375 8.46875 C 4.519531 10.679688 4 13.660156 4 16.8125 C 4 17.847656 4.324219 18.625 4.6875 19.125 C 4.800781 19.277344 4.914063 19.394531 5.03125 19.5 C 5.226563 20.503906 6.039063 21.210938 7 21.59375 L 7 22 C 7 25.300781 9.699219 28 13 28 L 13.90625 28 C 14.449219 28.574219 15.148438 29 16 29 C 16.851563 29 17.550781 28.574219 18.09375 28 L 19 28 C 22.300781 28 25 25.300781 25 22 L 25 21.59375 C 25.972656 21.207031 26.78125 20.488281 26.96875 19.46875 C 27.082031 19.363281 27.203125 19.273438 27.3125 19.125 C 27.675781 18.625 28 17.847656 28 16.8125 C 28 13.660156 27.480469 10.679688 25.625 8.46875 C 24.492188 7.121094 22.878906 6.132813 20.75 5.5625 C 20.125 3.515625 18.246094 2 16 2 Z M 16 4 C 16.953125 4 17.796875 4.441406 18.34375 5.125 C 17.609375 5.046875 16.832031 5 16 5 C 15.167969 5 14.390625 5.046875 13.65625 5.125 C 14.203125 4.441406 15.046875 4 16 4 Z M 16 7 C 20.3125 7 22.691406 8.082031 24.09375 9.75 C 25.496094 11.417969 26 13.882813 26 16.8125 C 26 16.875 26.003906 16.914063 26 16.96875 C 25.707031 16.730469 25.359375 16.550781 25 16.40625 L 25 15 C 25 14.058594 24.648438 13.179688 24 12.65625 C 23.351563 12.132813 22.570313 11.980469 21.75 11.90625 C 20.109375 11.757813 18.136719 12 16 12 C 13.867188 12 11.890625 11.734375 10.25 11.875 C 9.429688 11.945313 8.652344 12.09375 8 12.625 C 7.347656 13.15625 7 14.046875 7 15 L 7 16.40625 C 6.640625 16.550781 6.292969 16.730469 6 16.96875 C 5.996094 16.914063 6 16.875 6 16.8125 C 6 13.878906 6.507813 11.417969 7.90625 9.75 C 9.304688 8.082031 11.6875 7 16 7 Z M 11.5 13.84375 C 12.703125 13.863281 14.285156 14 16 14 C 18.28125 14 20.304688 13.761719 21.5625 13.875 C 22.191406 13.929688 22.589844 14.089844 22.75 14.21875 C 22.910156 14.347656 23 14.460938 23 15 L 23 18 L 24 18 C 24.566406 18 25 18.433594 25 19 C 25 19.566406 24.566406 20 24 20 L 23 20 L 23 22 C 23 24.21875 21.21875 26 19 26 L 17.15625 26 L 16.84375 26.5 C 16.664063 26.804688 16.375 27 16 27 C 15.625 27 15.332031 26.804688 15.15625 26.5 L 14.84375 26 L 13 26 C 10.78125 26 9 24.21875 9 22 L 9 20 L 8 20 C 7.433594 20 7 19.566406 7 19 C 7 18.433594 7.433594 18 8 18 L 9 18 L 9 15 C 9 14.441406 9.09375 14.316406 9.25 14.1875 C 9.40625 14.058594 9.808594 13.929688 10.4375 13.875 C 10.75 13.847656 11.097656 13.835938 11.5 13.84375 Z M 12 16 C 10.90625 16 10 16.90625 10 18 L 10 20 C 10 21.09375 10.90625 22 12 22 L 14 22 C 15.09375 22 16 21.09375 16 20 C 16 21.09375 16.90625 22 18 22 L 20 22 C 21.09375 22 22 21.09375 22 20 L 22 18 C 22 16.90625 21.09375 16 20 16 L 18 16 C 16.90625 16 16 16.90625 16 18 C 16 16.90625 15.09375 16 14 16 Z M 12 18 L 14 18 L 14 20 L 12 20 Z M 18 18 L 20 18 L 20 20 L 18 20 Z "></path>
</g>
</svg>
