<?xml version="1.0" encoding="UTF-8"?>
<svg xmlns="http://www.w3.org/2000/svg" xmlns:xlink="http://www.w3.org/1999/xlink" viewBox="0 0 32 32" version="1.1">
<g>
<path d="M 15 4 C 11.839844 4 9.5 5.90625 9.5 5.90625 L 9.53125 5.96875 C 5.757813 7.652344 3.097656 11.382813 3 15.75 C 2.695313 16.410156 0.636719 21.1875 3.3125 23.71875 C 4.285156 24.636719 5.328125 24.96875 6.3125 24.96875 C 6.703125 24.96875 7.078125 24.898438 7.4375 24.8125 C 9.269531 26.179688 11.542969 27 14 27 C 16.152344 27 18.148438 26.355469 19.84375 25.28125 L 23.28125 28.71875 L 24.71875 27.28125 L 21.46875 24.03125 C 21.539063 23.964844 21.617188 23.910156 21.6875 23.84375 L 22.40625 23.15625 L 21 21.71875 L 20.3125 22.4375 C 18.6875 24.03125 16.460938 25 14 25 C 9.015625 25 5 20.984375 5 16 C 5 11.015625 9.015625 7 14 7 C 14.179688 7 14.355469 7.019531 14.53125 7.03125 C 15.289063 7.972656 17.164063 9.808594 20.4375 10 C 20.203125 10.734375 20 11.710938 20 13 C 20 14.621094 20.859375 15.648438 21.59375 16.25 C 21.226563 16.738281 21 17.34375 21 18 C 21 19.613281 22.304688 20.949219 23.90625 21 C 24.601563 22.15625 25.734375 23.695313 27.4375 24.84375 L 28.5625 23.15625 C 27.402344 22.375 26.496094 21.273438 25.875 20.34375 C 26.5625 19.792969 27 18.941406 27 18 C 27 17.152344 26.636719 16.386719 26.0625 15.84375 C 26.125 15.566406 26.164063 15.273438 26.1875 15 C 29.75 14.863281 30 11 30 11 C 30 11 30.4375 7 28 7 C 25.359375 7 25.789063 10.695313 25.9375 11.625 C 24.714844 8.570313 22.554688 6.632813 20.4375 5.5 C 18.320313 4.367188 16.277344 4 15 4 Z M 10.84375 9 C 10.585938 9.019531 10.339844 9.132813 10.1875 9.3125 C 9.777344 9.792969 10.03125 10.667969 10.75 11.28125 C 11.46875 11.894531 12.402344 12.011719 12.8125 11.53125 C 13.222656 11.050781 12.96875 10.144531 12.25 9.53125 C 11.800781 9.148438 11.273438 8.96875 10.84375 9 Z M 17.28125 11.28125 L 14.28125 14.28125 L 15.71875 15.71875 L 16.21875 15.21875 C 16.621094 16.015625 17 17.019531 17 18 C 17 19.863281 14.59375 21.09375 14.59375 21.09375 L 15.40625 22.90625 C 15.40625 22.90625 19 21.386719 19 18 C 19 16.277344 18.332031 14.753906 17.71875 13.71875 L 18.71875 12.71875 Z M 6.84375 12.1875 C 6.585938 12.207031 6.339844 12.289063 6.1875 12.46875 C 5.777344 12.949219 6.03125 13.855469 6.75 14.46875 C 7.46875 15.082031 8.402344 15.167969 8.8125 14.6875 C 9.222656 14.207031 8.96875 13.332031 8.25 12.71875 C 7.800781 12.335938 7.273438 12.15625 6.84375 12.1875 Z M 11.375 15 C 10.953125 15.007813 10.371094 15.03125 9.78125 15.15625 C 9.191406 15.28125 8.5625 15.496094 8 15.9375 C 7.4375 16.378906 7 17.132813 7 18 C 7 18.882813 7.433594 19.667969 8 20.125 C 8.566406 20.582031 9.214844 20.789063 9.8125 20.90625 C 11.003906 21.140625 12.09375 21 12.09375 21 L 11.90625 19 C 11.90625 19 10.996094 19.09375 10.1875 18.9375 C 9.785156 18.859375 9.433594 18.710938 9.25 18.5625 C 9.066406 18.414063 9 18.335938 9 18 C 9 17.710938 9.0625 17.648438 9.25 17.5 C 9.4375 17.351563 9.808594 17.210938 10.21875 17.125 C 11.039063 16.953125 11.9375 17 11.9375 17 L 12.0625 15 C 12.0625 15 11.796875 14.992188 11.375 15 Z M 24 17 C 24.5625 17 25 17.4375 25 18 C 25 18.5625 24.5625 19 24 19 C 23.4375 19 23 18.5625 23 18 C 23 17.4375 23.4375 17 24 17 Z "></path>
</g>
</svg>
