<?xml version="1.0" encoding="UTF-8"?>
<svg xmlns="http://www.w3.org/2000/svg" xmlns:xlink="http://www.w3.org/1999/xlink" viewBox="0 0 32 32" version="1.1">
<g>
<path d="M 7 7 C 3.699219 7 1 9.699219 1 13 C 1 15.761719 2.886719 18.089844 5.4375 18.78125 C 5.164063 19.46875 5 20.21875 5 21 C 5 24.300781 7.699219 27 11 27 C 13.089844 27 14.925781 25.910156 16 24.28125 C 17.074219 25.910156 18.910156 27 21 27 C 24.300781 27 27 24.300781 27 21 C 27 20.21875 26.835938 19.46875 26.5625 18.78125 C 29.113281 18.089844 31 15.761719 31 13 C 31 9.699219 28.300781 7 25 7 C 23.214844 7 21.601563 7.785156 20.5 9.03125 C 19.398438 7.785156 17.785156 7 16 7 C 14.214844 7 12.601563 7.785156 11.5 9.03125 C 10.398438 7.785156 8.785156 7 7 7 Z M 7 9 C 8.449219 9 9.671875 9.765625 10.375 10.90625 C 10.132813 11.554688 10 12.265625 10 13 C 10 13.707031 10.117188 14.398438 10.34375 15.03125 C 8.855469 15.191406 7.523438 15.886719 6.5625 16.9375 C 4.554688 16.71875 3 15.070313 3 13 C 3 10.777344 4.777344 9 7 9 Z M 16 9 C 17.449219 9 18.671875 9.765625 19.375 10.90625 C 19.132813 11.554688 19 12.265625 19 13 C 19 13.734375 19.132813 14.445313 19.375 15.09375 C 19.347656 15.140625 19.34375 15.203125 19.3125 15.25 C 18.257813 15.5625 17.324219 16.148438 16.59375 16.9375 C 16.398438 16.964844 16.203125 17 16 17 C 15.796875 17 15.601563 16.964844 15.40625 16.9375 C 14.675781 16.148438 13.742188 15.5625 12.6875 15.25 C 12.65625 15.203125 12.652344 15.140625 12.625 15.09375 C 12.867188 14.445313 13 13.734375 13 13 C 13 12.265625 12.867188 11.554688 12.625 10.90625 C 13.328125 9.765625 14.550781 9 16 9 Z M 25 9 C 27.222656 9 29 10.777344 29 13 C 29 15.070313 27.445313 16.71875 25.4375 16.9375 C 24.476563 15.886719 23.144531 15.191406 21.65625 15.03125 C 21.882813 14.398438 22 13.707031 22 13 C 22 12.265625 21.867188 11.554688 21.625 10.90625 C 22.328125 9.765625 23.550781 9 25 9 Z M 11.4375 17.0625 C 11.488281 17.066406 11.542969 17.054688 11.59375 17.0625 C 12.324219 17.851563 13.257813 18.4375 14.3125 18.75 C 14.742188 19.386719 15 20.167969 15 21 C 15 23.222656 13.222656 25 11 25 C 8.777344 25 7 23.222656 7 21 C 7 20.257813 7.214844 19.5625 7.5625 18.96875 C 9.085938 18.828125 10.457031 18.132813 11.4375 17.0625 Z M 20.40625 17.0625 C 20.457031 17.054688 20.511719 17.066406 20.5625 17.0625 C 21.542969 18.132813 22.914063 18.828125 24.4375 18.96875 C 24.785156 19.5625 25 20.257813 25 21 C 25 23.222656 23.222656 25 21 25 C 18.777344 25 17 23.222656 17 21 C 17 20.167969 17.257813 19.386719 17.6875 18.75 C 18.742188 18.4375 19.675781 17.851563 20.40625 17.0625 Z "></path>
</g>
</svg>
