<?xml version="1.0" encoding="UTF-8"?>
<svg xmlns="http://www.w3.org/2000/svg" xmlns:xlink="http://www.w3.org/1999/xlink" viewBox="0 0 32 32" version="1.1">
<g>
<path d="M 16 3.625 L 15.3125 4.28125 C 15.3125 4.28125 14.265625 5.25 13.21875 6.53125 C 12.171875 7.8125 11 9.292969 11 11 C 11 12.132813 11.390625 13.160156 12.03125 14 L 10 14 L 10 16.40625 L 10.28125 16.71875 L 13.03125 19.46875 L 14 27.125 L 14.125 28 L 17.875 28 L 18 27.125 L 18.96875 19.46875 L 21.71875 16.71875 L 22 16.40625 L 22 14 L 19.96875 14 C 20.609375 13.160156 21 12.132813 21 11 C 21 9.292969 19.828125 7.8125 18.78125 6.53125 C 17.734375 5.25 16.6875 4.28125 16.6875 4.28125 Z M 16 6.46875 C 16.363281 6.835938 16.609375 7.066406 17.21875 7.8125 C 18.171875 8.980469 19 10.5 19 11 C 19 12.503906 17.902344 13.707031 16.46875 13.9375 C 17.347656 13.726563 18 12.941406 18 12 C 18 10.894531 16 9 16 9 C 16 9 14 10.894531 14 12 C 14 12.941406 14.652344 13.726563 15.53125 13.9375 C 14.097656 13.707031 13 12.503906 13 11 C 13 10.5 13.828125 8.980469 14.78125 7.8125 C 15.390625 7.066406 15.636719 6.835938 16 6.46875 Z M 12.4375 16 L 19.5625 16 L 17.5625 18 L 14.4375 18 Z M 15.125 20 L 16.875 20 L 16.125 26 L 15.875 26 Z "></path>
</g>
</svg>
