<?xml version="1.0" encoding="UTF-8"?>
<svg xmlns="http://www.w3.org/2000/svg" xmlns:xlink="http://www.w3.org/1999/xlink" viewBox="0 0 32 32" version="1.1">
<g>
<path d="M 5 8 L 5 19 C 5 22.324219 7.675781 25 11 25 C 13.09375 25 14.925781 23.929688 16 22.3125 C 17.074219 23.929688 18.90625 25 21 25 C 24.324219 25 27 22.324219 27 19 L 27 8 L 25 8 L 25 19 C 25 21.277344 23.277344 23 21 23 C 18.722656 23 17 21.277344 17 19 L 17 15 L 15 15 L 15 19 C 15 21.277344 13.277344 23 11 23 C 8.722656 23 7 21.277344 7 19 L 7 8 Z "></path>
</g>
</svg>
