<?xml version="1.0" encoding="UTF-8"?>
<svg xmlns="http://www.w3.org/2000/svg" xmlns:xlink="http://www.w3.org/1999/xlink" viewBox="0 0 32 32" version="1.1">
<g>
<path d="M 20 3 C 15.371094 3 11.519531 6.53125 11.03125 11.03125 C 6.527344 11.519531 3 15.367188 3 20 C 3 24.960938 7.035156 29 12 29 C 16.632813 29 20.480469 25.472656 20.96875 20.96875 C 25.46875 20.480469 29 16.628906 29 12 C 29 7.042969 24.957031 3 20 3 Z M 20 5 C 23.878906 5 27 8.121094 27 12 C 27 15.558594 24.367188 18.480469 20.9375 18.9375 C 20.816406 17.941406 20.542969 16.996094 20.125 16.125 L 18.59375 17.65625 C 18.855469 18.390625 19 19.175781 19 20 C 19 23.859375 15.859375 27 12 27 C 8.140625 27 5 23.859375 5 20 C 5 16.140625 8.140625 13 12 13 C 12.824219 13 13.609375 13.144531 14.34375 13.40625 L 15.875 11.875 C 15.003906 11.457031 14.058594 11.183594 13.0625 11.0625 C 13.519531 7.632813 16.441406 5 20 5 Z M 17 9 L 17 11 L 19.5625 11 L 11.28125 19.28125 L 12.71875 20.71875 L 21 12.4375 L 21 15 L 23 15 L 23 9 Z "></path>
</g>
</svg>
