<?xml version="1.0" encoding="UTF-8"?>
<svg xmlns="http://www.w3.org/2000/svg" xmlns:xlink="http://www.w3.org/1999/xlink" viewBox="0 0 32 32" version="1.1">
<g>
<path d="M 3 5 L 3 27 L 29 27 L 29 5 Z M 5 7 L 27 7 L 27 25 L 5 25 Z M 11.625 12 C 11.308594 12.238281 10.984375 12.457031 10.59375 12.65625 C 10.203125 12.855469 9.785156 13.027344 9.34375 13.15625 L 9.34375 14.5625 C 9.492188 14.542969 9.628906 14.539063 9.78125 14.5 C 9.933594 14.460938 10.105469 14.402344 10.25 14.34375 C 10.394531 14.285156 10.527344 14.230469 10.65625 14.15625 C 10.785156 14.082031 10.875 13.988281 10.96875 13.90625 L 10.96875 19.875 L 12.65625 19.875 L 12.65625 12 Z M 20.9375 12 C 20.621094 12.238281 20.265625 12.457031 19.875 12.65625 C 19.484375 12.855469 19.097656 13.027344 18.65625 13.15625 L 18.65625 14.5625 C 18.804688 14.542969 18.941406 14.539063 19.09375 14.5 C 19.246094 14.460938 19.386719 14.402344 19.53125 14.34375 C 19.675781 14.285156 19.808594 14.230469 19.9375 14.15625 C 20.066406 14.082031 20.1875 13.988281 20.28125 13.90625 L 20.28125 19.875 L 21.96875 19.875 L 21.96875 12 Z M 16.03125 14.3125 C 15.746094 14.3125 15.503906 14.398438 15.3125 14.5625 C 15.121094 14.726563 15.03125 14.929688 15.03125 15.1875 C 15.03125 15.4375 15.09375 15.640625 15.28125 15.8125 C 15.46875 15.984375 15.722656 16.0625 16 16.0625 C 16.300781 16.0625 16.53125 15.976563 16.71875 15.8125 C 16.90625 15.648438 17 15.449219 17 15.1875 C 17 14.933594 16.902344 14.726563 16.71875 14.5625 C 16.535156 14.394531 16.320313 14.3125 16.03125 14.3125 Z M 16.03125 18.21875 C 15.746094 18.21875 15.503906 18.304688 15.3125 18.46875 C 15.121094 18.632813 15.03125 18.867188 15.03125 19.125 C 15.03125 19.375 15.09375 19.578125 15.28125 19.75 C 15.46875 19.921875 15.722656 20 16 20 C 16.300781 20 16.53125 19.914063 16.71875 19.75 C 16.90625 19.582031 17 19.386719 17 19.125 C 17 18.871094 16.902344 18.636719 16.71875 18.46875 C 16.535156 18.304688 16.320313 18.21875 16.03125 18.21875 Z "></path>
</g>
</svg>
