<?xml version="1.0" encoding="UTF-8"?>
<svg xmlns="http://www.w3.org/2000/svg" xmlns:xlink="http://www.w3.org/1999/xlink" viewBox="0 0 32 32" version="1.1">
<g>
<path d="M 12 4 C 10.355469 4 9 5.355469 9 7 L 9 16.65625 L 6.90625 19.34375 C 5.628906 20.996094 5.714844 23.367188 7.09375 24.9375 L 9.46875 27.625 C 10.796875 29.136719 12.707031 30 14.71875 30 L 20 30 C 23.855469 30 27 26.855469 27 23 L 27 14 C 27 12.355469 25.644531 11 24 11 C 23.464844 11 22.96875 11.15625 22.53125 11.40625 C 21.996094 10.5625 21.0625 10 20 10 C 19.464844 10 18.96875 10.15625 18.53125 10.40625 C 17.996094 9.5625 17.0625 9 16 9 C 15.648438 9 15.316406 9.074219 15 9.1875 L 15 7 C 15 5.355469 13.644531 4 12 4 Z M 12 6 C 12.566406 6 13 6.433594 13 7 L 13 15 L 15 15 L 15 12 C 15 11.433594 15.433594 11 16 11 C 16.566406 11 17 11.433594 17 12 L 17 15 L 19 15 L 19 13 C 19 12.433594 19.433594 12 20 12 C 20.566406 12 21 12.433594 21 13 L 21 15 L 23 15 L 23 14 C 23 13.433594 23.433594 13 24 13 C 24.566406 13 25 13.433594 25 14 L 25 23 C 25 25.773438 22.773438 28 20 28 L 14.71875 28 C 13.28125 28 11.917969 27.394531 10.96875 26.3125 L 8.59375 23.59375 C 7.839844 22.734375 7.800781 21.5 8.5 20.59375 L 9 19.9375 L 9 21 L 11 21 L 11 7 C 11 6.433594 11.433594 6 12 6 Z "></path>
</g>
</svg>
