<?xml version="1.0" encoding="UTF-8"?>
<svg xmlns="http://www.w3.org/2000/svg" xmlns:xlink="http://www.w3.org/1999/xlink" viewBox="0 0 32 32" version="1.1">
<g>
<path d="M 3 5 L 3 27 L 29 27 L 29 5 Z M 5 7 L 27 7 L 27 25 L 5 25 Z M 10.15625 12.1875 C 9.839844 12.425781 9.484375 12.644531 9.09375 12.84375 C 8.703125 13.042969 8.285156 13.183594 7.84375 13.3125 L 7.84375 14.75 C 7.992188 14.730469 8.160156 14.695313 8.3125 14.65625 C 8.464844 14.617188 8.605469 14.589844 8.75 14.53125 C 8.894531 14.472656 9.027344 14.386719 9.15625 14.3125 C 9.285156 14.238281 9.40625 14.175781 9.5 14.09375 L 9.5 20.0625 L 11.1875 20.0625 L 11.1875 12.1875 Z M 17.21875 12.34375 L 17.21875 20.0625 L 18.875 20.0625 L 18.875 15.8125 C 18.875 15.253906 18.839844 14.835938 18.8125 14.5625 L 18.84375 14.5625 C 18.914063 14.707031 19.03125 14.9375 19.21875 15.21875 L 22.40625 20.0625 L 24.15625 20.0625 L 24.15625 12.34375 L 22.5 12.34375 L 22.5 16.59375 C 22.5 17.121094 22.535156 17.476563 22.5625 17.65625 L 22.53125 17.65625 C 22.414063 17.449219 22.296875 17.242188 22.15625 17.03125 L 19.09375 12.34375 Z M 14.53125 14.46875 C 14.246094 14.46875 14.003906 14.554688 13.8125 14.71875 C 13.621094 14.882813 13.53125 15.117188 13.53125 15.375 C 13.53125 15.625 13.625 15.828125 13.8125 16 C 14 16.171875 14.222656 16.25 14.5 16.25 C 14.800781 16.25 15.0625 16.164063 15.25 16 C 15.4375 15.835938 15.53125 15.636719 15.53125 15.375 C 15.53125 15.121094 15.433594 14.882813 15.25 14.71875 C 15.066406 14.550781 14.820313 14.46875 14.53125 14.46875 Z M 14.53125 18.40625 C 14.246094 18.40625 14.003906 18.492188 13.8125 18.65625 C 13.621094 18.820313 13.53125 19.023438 13.53125 19.28125 C 13.53125 19.53125 13.625 19.765625 13.8125 19.9375 C 14 20.109375 14.222656 20.1875 14.5 20.1875 C 14.800781 20.1875 15.0625 20.101563 15.25 19.9375 C 15.4375 19.769531 15.53125 19.542969 15.53125 19.28125 C 15.53125 19.027344 15.433594 18.824219 15.25 18.65625 C 15.066406 18.492188 14.820313 18.40625 14.53125 18.40625 Z "></path>
</g>
</svg>
