<?xml version="1.0" encoding="UTF-8"?>
<svg xmlns="http://www.w3.org/2000/svg" xmlns:xlink="http://www.w3.org/1999/xlink" viewBox="0 0 32 32" version="1.1">
<g>
<path d="M 12 3 C 12 4.5 10.710938 6.125 9.1875 8.15625 C 7.664063 10.1875 6 12.667969 6 16 C 6 20.425781 8.867188 24.179688 12.84375 25.5 C 12.617188 26.25 12 28 12 28 L 14 27 L 14 29 L 16 27 L 18 29 L 18 27 L 20 28 L 19.15625 25.5 C 23.132813 24.179688 26 20.425781 26 16 C 26 12.667969 24.335938 10.1875 22.8125 8.15625 C 21.289063 6.125 20 4.5 20 3 L 18 3 C 18 5.5 19.710938 7.375 21.1875 9.34375 C 22.664063 11.3125 24 13.332031 24 16 C 24 20.464844 20.464844 24 16 24 C 11.535156 24 8 20.464844 8 16 C 8 13.332031 9.335938 11.3125 10.8125 9.34375 C 12.289063 7.375 14 5.5 14 3 Z M 16.03125 6.03125 L 15.1875 7.15625 C 14.335938 8.292969 13.105469 9.648438 12.03125 11.125 C 10.957031 12.601563 10 14.21875 10 16 C 10 19.324219 12.675781 22 16 22 C 19.324219 22 22 19.324219 22 16 C 22 14.195313 21 12.578125 19.90625 11.09375 C 18.8125 9.609375 17.546875 8.242188 16.8125 7.1875 Z M 16 9.34375 C 16.753906 10.300781 17.539063 11.273438 18.28125 12.28125 C 19.285156 13.644531 20 15.003906 20 16 C 20 18.277344 18.277344 20 16 20 C 13.722656 20 12 18.277344 12 16 C 12 14.980469 12.648438 13.660156 13.625 12.3125 C 14.355469 11.304688 15.207031 10.316406 16 9.34375 Z M 16 12.59375 C 15.300781 13.492188 14 14.898438 14 16 C 14 17.101563 14.898438 18 16 18 C 17.101563 18 18 17.101563 18 16 C 18 14.898438 16.601563 13.394531 16 12.59375 Z "></path>
</g>
</svg>
