<?xml version="1.0"?>
<svg xmlns="http://www.w3.org/2000/svg" viewBox="0 0 32 32">
    <path d="M 5 4 L 5 5 L 5 8.8378906 L 3 14.837891 L 3 15 C 3 16.293509 3.8425715 17.395243 5 17.8125 L 5 28 L 27 28 L 27 17.8125 C 28.157429 17.395243 29 16.293509 29 15 L 29 14.837891 L 27 8.8378906 L 27 4 L 5 4 z M 7 6 L 9 6 L 9 8 L 7 8 L 7 6 z M 11 6 L 13 6 L 13 8 L 11 8 L 11 6 z M 15 6 L 25 6 L 25 8 L 15 8 L 15 6 z M 6.7207031 10 L 7 10 L 7 15 C 7 15.554545 6.5545455 16 6 16 C 5.4739757 16 5.0738702 15.586802 5.03125 15.072266 L 6.7207031 10 z M 9 10 L 11 10 L 11 15 C 11 15.554545 10.554545 16 10 16 C 9.4454545 16 9 15.554545 9 15 L 9 10 z M 13 10 L 15 10 L 15 15 C 15 15.554545 14.554545 16 14 16 C 13.445455 16 13 15.554545 13 15 L 13 10 z M 17 10 L 19 10 L 19 15 C 19 15.554545 18.554545 16 18 16 C 17.445455 16 17 15.554545 17 15 L 17 10 z M 21 10 L 23 10 L 23 15 C 23 15.554545 22.554545 16 22 16 C 21.445455 16 21 15.554545 21 15 L 21 10 z M 25 10 L 25.279297 10 L 26.96875 15.072266 C 26.92613 15.586802 26.526024 16 26 16 C 25.445455 16 25 15.554545 25 15 L 25 10 z M 24.005859 17.208984 C 24.295113 17.467803 24.628347 17.678518 25 17.8125 L 25 26 L 7 26 L 7 17.8125 C 7.373009 17.678029 7.7108317 17.47474 8 17.212891 C 8.5333048 17.695812 9.2311898 18 10 18 C 10.76881 18 11.466695 17.695812 12 17.212891 C 12.533305 17.695812 13.23119 18 14 18 C 14.76881 18 15.466695 17.695812 16 17.212891 C 16.533305 17.695812 17.23119 18 18 18 C 18.76881 18 19.466695 17.695812 20 17.212891 C 20.533305 17.695812 21.23119 18 22 18 C 22.771307 18 23.471945 17.694692 24.005859 17.208984 z"></path>
</svg>
