<?xml version="1.0" encoding="UTF-8"?>
<svg xmlns="http://www.w3.org/2000/svg" xmlns:xlink="http://www.w3.org/1999/xlink" viewBox="0 0 32 32" version="1.1">
<g>
<path d="M 16 3 C 9.953125 3 5 7.953125 5 14 L 5 15.53125 C 4.394531 16.179688 4 17.03125 4 18 C 4 19.59375 5.027344 20.808594 6.375 21.46875 C 7.511719 25.734375 11.355469 29 16 29 C 19.273438 29 22.164063 27.46875 23.96875 25 L 24 25 C 25.933594 25 27.535156 23.636719 27.90625 21.8125 C 28.101563 21.722656 28.28125 21.59375 28.4375 21.4375 C 28.816406 21.058594 29 20.523438 29 20 L 29 15 C 29 14.476563 28.816406 13.941406 28.4375 13.5625 C 28.058594 13.183594 27.523438 13 27 13 L 26.9375 13 C 26.429688 7.417969 21.710938 3 16 3 Z M 16 5 C 20.367188 5 24.003906 8.144531 24.8125 12.28125 C 24.632813 12.210938 24.449219 12.164063 24.28125 12.125 C 23.570313 11.957031 22.882813 11.910156 22.25 11.75 C 21.617188 11.589844 21.105469 11.363281 20.71875 10.875 C 20.332031 10.386719 20 9.554688 20 8 L 18 8 C 18 9.972656 17.433594 10.765625 16.59375 11.28125 C 15.753906 11.796875 14.417969 11.96875 12.96875 12 C 11.519531 12.03125 10.027344 11.917969 8.6875 12.1875 C 8.121094 12.300781 7.542969 12.480469 7.0625 12.84375 C 7.636719 8.433594 11.441406 5 16 5 Z M 18.9375 11.78125 C 19.011719 11.894531 19.074219 12.023438 19.15625 12.125 C 19.894531 13.054688 20.882813 13.472656 21.75 13.6875 C 22.617188 13.902344 23.429688 13.964844 23.84375 14.0625 C 23.972656 14.09375 23.96875 14.105469 24 14.125 L 24 22 L 25.75 22 C 25.429688 22.613281 24.808594 23 24 23 L 17.90625 23 C 17.703125 22.414063 17.15625 22 16.5 22 C 15.671875 22 15 22.671875 15 23.5 C 15 24.328125 15.671875 25 16.5 25 L 21.3125 25 C 19.921875 26.257813 18.066406 27 16 27 C 12.179688 27 8.988281 24.238281 8.1875 20.6875 L 8.0625 20.125 L 7.5 19.9375 C 6.570313 19.652344 6 18.972656 6 18 C 6 17.160156 6.667969 16.316406 7.25 16.15625 L 8 15.96875 L 8 15.1875 C 8 14.746094 8.089844 14.628906 8.21875 14.5 C 8.347656 14.371094 8.609375 14.246094 9.0625 14.15625 C 9.972656 13.972656 11.480469 14.03125 13.03125 14 C 14.582031 13.96875 16.246094 13.832031 17.65625 12.96875 C 18.140625 12.671875 18.582031 12.269531 18.9375 11.78125 Z M 26 15 L 27 15 L 27 20 L 26 20 Z M 12.5 16 C 11.671875 16 11 16.671875 11 17.5 C 11 18.328125 11.671875 19 12.5 19 C 13.328125 19 14 18.328125 14 17.5 C 14 16.671875 13.328125 16 12.5 16 Z M 19.5 16 C 18.671875 16 18 16.671875 18 17.5 C 18 18.328125 18.671875 19 19.5 19 C 20.328125 19 21 18.328125 21 17.5 C 21 16.671875 20.328125 16 19.5 16 Z "></path>
</g>
</svg>
