<?xml version="1.0" encoding="UTF-8"?>
<svg xmlns="http://www.w3.org/2000/svg" xmlns:xlink="http://www.w3.org/1999/xlink" viewBox="0 0 32 32" version="1.1">
<g>
<path d="M 12 3 C 10.355469 3 9 4.355469 9 6 L 9 16 L 7 16 L 7 18 L 25 18 L 25 16 L 23 16 L 23 6 C 23 4.355469 21.644531 3 20 3 Z M 12 5 L 13 5 L 13 16 L 11 16 L 11 6 C 11 5.433594 11.433594 5 12 5 Z M 15 5 L 20 5 C 20.566406 5 21 5.433594 21 6 L 21 16 L 15 16 Z M 3 9 L 3 25 L 15 25 L 15 27 L 10 27 L 10 29 L 22 29 L 22 27 L 17 27 L 17 25 L 29 25 L 29 9 L 24 9 L 24 11 L 27 11 L 27 23 L 5 23 L 5 11 L 8 11 L 8 9 Z "></path>
</g>
</svg>
