<?xml version="1.0"?>
<svg xmlns="http://www.w3.org/2000/svg" viewBox="0 0 32 32">
    <path d="M 4 4 L 4 5 L 4 28 L 28 28 L 28 4 L 4 4 z M 6 6 L 26 6 L 26 10 L 6 10 L 6 6 z M 7 7 L 7 9 L 9 9 L 9 7 L 7 7 z M 10 7 L 10 9 L 12 9 L 12 7 L 10 7 z M 13 7 L 13 9 L 15 9 L 15 7 L 13 7 z M 6 12 L 26 12 L 26 26 L 6 26 L 6 12 z M 15 14 L 15 15.039062 C 13.875437 15.22623 13 16.209879 13 17.382812 L 13 18.382812 L 13.285156 18.382812 C 13.477986 18.713614 13.752968 18.995171 14.107422 19.171875 L 16.998047 20.617188 C 16.997234 20.838456 16.838773 21 16.617188 21 L 15.382812 21 C 15.160661 21 15 20.83934 15 20.617188 L 15 20 L 13 20 L 13 20.617188 C 13 21.790121 13.875437 22.77377 15 22.960938 L 15 24 L 17 24 L 17 22.958984 C 17.717339 22.814483 18.244424 22.27419 18.583984 21.617188 L 19 21.617188 L 19 20.617188 C 19 19.861757 18.568804 19.166256 17.894531 18.828125 L 15.001953 17.380859 C 15.003573 17.160475 15.161794 17 15.382812 17 L 16.617188 17 C 16.83934 17 17 17.16066 17 17.382812 L 17 18 L 19 18 L 19 17.382812 C 19 16.209879 18.124563 15.226231 17 15.039062 L 17 14 L 15 14 z"></path>
</svg>
