<?xml version="1.0" encoding="UTF-8"?>
<svg xmlns="http://www.w3.org/2000/svg" xmlns:xlink="http://www.w3.org/1999/xlink" viewBox="0 0 32 32" version="1.1">
<g>
<path d="M 9 3 L 9 16 L 7 16 L 7 18 L 25 18 L 25 16 L 23 16 L 23 3 Z M 12.910156 5 L 19.089844 5 C 19.03125 5.160156 19 5.328125 19 5.5 C 19 6.328125 19.671875 7 20.5 7 C 20.671875 7 20.839844 6.96875 21 6.914063 L 21 16 L 20 16 C 20 13.800781 18.199219 12 16 12 C 13.800781 12 12 13.800781 12 16 L 11 16 L 11 6.914063 C 11.160156 6.96875 11.328125 7 11.5 7 C 12.328125 7 13 6.328125 13 5.5 C 13 5.328125 12.96875 5.160156 12.910156 5 Z M 16 7.5 C 15.171875 7.5 14.5 8.171875 14.5 9 C 14.5 9.828125 15.171875 10.5 16 10.5 C 16.828125 10.5 17.5 9.828125 17.5 9 C 17.5 8.171875 16.828125 7.5 16 7.5 Z M 3 9 L 3 25 L 15 25 L 15 27 L 10 27 L 10 29 L 22 29 L 22 27 L 17 27 L 17 25 L 29 25 L 29 9 L 24 9 L 24 11 L 27 11 L 27 23 L 5 23 L 5 11 L 8 11 L 8 9 Z M 16 14 C 17.117188 14 18 14.882813 18 16 L 14 16 C 14 14.882813 14.882813 14 16 14 Z "></path>
</g>
</svg>
