<?xml version="1.0" encoding="UTF-8"?>
<svg xmlns="http://www.w3.org/2000/svg" xmlns:xlink="http://www.w3.org/1999/xlink" viewBox="0 0 32 32" version="1.1">
<g>
<path d="M 16 4.875 L 15.53125 5.125 L 4.6875 11 L 0 11 L 0 27 L 32 27 L 32 11 L 27.3125 11 L 16.46875 5.125 Z M 16 7.125 L 23.125 11 L 8.875 11 Z M 2 13 L 30 13 L 30 25 L 2 25 Z M 7.5 15 C 6.132813 15 5 16.132813 5 17.5 L 5 20.5 C 5 21.867188 6.132813 23 7.5 23 C 8.867188 23 10 21.867188 10 20.5 L 10 17.5 C 10 16.132813 8.867188 15 7.5 15 Z M 11 15 L 11 23 L 13 23 L 13 21 C 14.644531 21 16 19.644531 16 18 C 16 16.355469 14.644531 15 13 15 Z M 17 15 L 17 23 L 21 23 L 21 21 L 19 21 L 19 20 L 21 20 L 21 18 L 19 18 L 19 17 L 21 17 L 21 15 Z M 22 15 L 22 23 L 24 23 L 24 20 L 25 21.34375 L 25 23 L 27 23 L 27 15 L 25 15 L 25 18 L 24 16.65625 L 24 15 Z M 7.5 17 C 7.785156 17 8 17.214844 8 17.5 L 8 20.5 C 8 20.785156 7.785156 21 7.5 21 C 7.214844 21 7 20.785156 7 20.5 L 7 17.5 C 7 17.214844 7.214844 17 7.5 17 Z M 13 17 C 13.566406 17 14 17.433594 14 18 C 14 18.566406 13.566406 19 13 19 Z "></path>
</g>
</svg>
