<?xml version="1.0" encoding="UTF-8"?>
<svg xmlns="http://www.w3.org/2000/svg" xmlns:xlink="http://www.w3.org/1999/xlink" viewBox="0 0 32 32" version="1.1">
<g>
<path d="M 6 3 L 6 29 L 26 29 L 26 3 Z M 9 5 L 23 5 L 23.40625 6.09375 C 23.605469 5.992188 23.800781 6 24 6 L 24 27 L 8 27 L 8 6 C 8 6 8.394531 5.992188 8.59375 6.09375 Z M 11.1875 5.40625 L 10 7 C 10.398438 7.300781 10.789063 7.695313 11.1875 8.09375 L 12.6875 6.8125 C 12.1875 6.3125 11.6875 5.804688 11.1875 5.40625 Z M 20.8125 5.5 C 20.3125 5.898438 19.8125 6.40625 19.3125 6.90625 L 20.8125 8.1875 C 21.210938 7.6875 21.601563 7.300781 22 7 Z M 14 8.40625 L 12.3125 9.59375 C 12.710938 9.992188 13.011719 10.492188 13.3125 11.09375 L 15.09375 10.09375 C 14.695313 9.492188 14.398438 8.90625 14 8.40625 Z M 18 8.40625 C 17.601563 8.90625 17.207031 9.492188 16.90625 10.09375 L 18.6875 11.09375 C 18.988281 10.492188 19.292969 10 19.59375 9.5 Z M 16 11.90625 L 14.09375 12.6875 C 14.292969 13.289063 14.488281 13.804688 14.6875 14.40625 L 16 14 L 17.40625 14.40625 C 17.507813 13.804688 17.707031 13.289063 17.90625 12.6875 Z M 15 16 L 15 18.1875 C 13.84375 18.605469 13 19.707031 13 21 C 13 22.644531 14.355469 24 16 24 C 17.644531 24 19 22.644531 19 21 C 19 19.707031 18.15625 18.605469 17 18.1875 L 17 16 Z M 16 20 C 16.5625 20 17 20.4375 17 21 C 17 21.5625 16.5625 22 16 22 C 15.4375 22 15 21.5625 15 21 C 15 20.4375 15.4375 20 16 20 Z "></path>
</g>
</svg>
