<?xml version="1.0" encoding="UTF-8"?>
<svg xmlns="http://www.w3.org/2000/svg" xmlns:xlink="http://www.w3.org/1999/xlink" viewBox="0 0 32 32" version="1.1">
<g>
<path d="M 2 7 L 2 25 L 30 25 L 30 7 Z M 4 9 L 28 9 L 28 23 L 4 23 Z M 11 11 C 8.25 11 6 13.25 6 16 C 6 18.75 8.25 21 11 21 C 13.75 21 16 18.75 16 16 C 16 13.25 13.75 11 11 11 Z M 23 11 C 20.25 11 18 13.25 18 16 C 18 18.75 20.25 21 23 21 C 24.195313 21 25.277344 20.558594 26.125 19.875 L 24.875 18.3125 C 24.347656 18.738281 23.707031 19 23 19 C 21.332031 19 20 17.667969 20 16 C 20 14.332031 21.332031 13 23 13 C 23.707031 13 24.347656 13.261719 24.875 13.6875 L 26.125 12.125 C 25.277344 11.441406 24.195313 11 23 11 Z M 11 13 C 12.667969 13 14 14.332031 14 16 C 14 17.667969 12.667969 19 11 19 C 9.332031 19 8 17.667969 8 16 C 8 14.332031 9.332031 13 11 13 Z "></path>
</g>
</svg>
