<?xml version="1.0" encoding="UTF-8"?>
<svg xmlns="http://www.w3.org/2000/svg" xmlns:xlink="http://www.w3.org/1999/xlink" viewBox="0 0 32 32" version="1.1">
<g>
<path d="M 16 4 C 9.382813 4 4 9.382813 4 16 C 4 22.617188 9.382813 28 16 28 C 22.617188 28 28 22.617188 28 16 C 28 9.382813 22.617188 4 16 4 Z M 16 6 C 21.535156 6 26 10.464844 26 16 C 26 21.535156 21.535156 26 16 26 C 10.464844 26 6 21.535156 6 16 C 6 10.464844 10.464844 6 16 6 Z M 12 11 C 10.355469 11 9 12.355469 9 14 L 9 18 C 9 19.644531 10.355469 21 12 21 C 13.644531 21 15 19.644531 15 18 L 15 14 C 15 12.355469 13.644531 11 12 11 Z M 19.84375 11 C 18.28125 11 17 12.28125 17 13.84375 C 17 14.921875 17.597656 15.921875 18.5625 16.40625 L 20.53125 17.375 C 20.824219 17.523438 21 17.832031 21 18.15625 C 21 18.640625 20.640625 19 20.15625 19 L 19.84375 19 C 19.359375 19 19 18.640625 19 18.15625 L 19 18 L 17 18 L 17 18.15625 C 17 19.71875 18.28125 21 19.84375 21 L 20.15625 21 C 21.71875 21 23 19.71875 23 18.15625 C 23 17.078125 22.402344 16.078125 21.4375 15.59375 L 19.46875 14.625 C 19.175781 14.480469 19 14.167969 19 13.84375 C 19 13.359375 19.359375 13 19.84375 13 L 20.15625 13 C 20.640625 13 21 13.359375 21 13.84375 L 21 14 L 23 14 L 23 13.84375 C 23 12.28125 21.71875 11 20.15625 11 Z M 12 13 C 12.566406 13 13 13.433594 13 14 L 13 18 C 13 18.566406 12.566406 19 12 19 C 11.433594 19 11 18.566406 11 18 L 11 14 C 11 13.433594 11.433594 13 12 13 Z "></path>
</g>
</svg>
