<?xml version="1.0" encoding="UTF-8"?>
<svg xmlns="http://www.w3.org/2000/svg" xmlns:xlink="http://www.w3.org/1999/xlink" viewBox="0 0 32 32" version="1.1">
<g>
<path d="M 18.96875 5 C 17.972656 5 17.179688 5.109375 16.4375 5.46875 C 15.695313 5.828125 15.105469 6.363281 14.375 7.09375 C 13.894531 7.574219 12.609375 9.015625 11.21875 10.59375 C 9.828125 12.171875 8.394531 13.828125 7.78125 14.53125 C 7.363281 15.011719 7.339844 15.730469 7.65625 16.25 C 6.113281 16.804688 5 18.273438 5 20 C 5 21.113281 5.476563 22.117188 6.21875 22.84375 C 4.886719 23.746094 4 25.28125 4 27 L 6 27 C 6 25.332031 7.332031 24 9 24 C 10.667969 24 12 25.332031 12 27 L 14 27 C 14 25.28125 13.113281 23.746094 11.78125 22.84375 C 12.523438 22.117188 13 21.113281 13 20 C 13 19.144531 12.714844 18.371094 12.25 17.71875 C 12.660156 17.539063 13.023438 17.285156 13.34375 16.9375 L 14 16.21875 L 14 19 C 14 20.351563 15.105469 21.457031 16.46875 21.46875 C 16.976563 21.472656 17.335938 21.425781 17.53125 21.40625 C 17.617188 21.484375 17.789063 21.609375 18 21.75 C 18.378906 22 18.976563 22.21875 19.6875 22.21875 C 20.425781 22.21875 21.003906 21.917969 21.34375 21.6875 C 21.46875 21.605469 21.535156 21.574219 21.59375 21.53125 C 21.6875 21.546875 21.777344 21.566406 22.03125 21.59375 C 22.375 21.628906 22.835938 21.644531 23.34375 21.4375 C 23.832031 21.238281 24.121094 20.957031 24.3125 20.78125 C 24.503906 20.605469 24.59375 20.585938 24.5625 20.59375 C 24.59375 20.585938 24.816406 20.566406 25.15625 20.5625 C 25.496094 20.558594 25.960938 20.53125 26.46875 20.28125 C 27.203125 19.917969 28 19.097656 28 17.90625 L 28 10.5 C 28 7.480469 25.519531 5 22.5 5 Z M 18.96875 7 L 22.5 7 C 24.4375 7 26 8.5625 26 10.5 L 26 17.90625 C 26 18.195313 25.785156 18.40625 25.59375 18.5 C 25.511719 18.542969 25.378906 18.5625 25.125 18.5625 C 24.871094 18.5625 24.507813 18.527344 24.03125 18.65625 C 23.492188 18.800781 23.179688 19.121094 22.96875 19.3125 C 22.757813 19.503906 22.632813 19.578125 22.59375 19.59375 C 22.578125 19.601563 22.457031 19.617188 22.25 19.59375 C 22.042969 19.570313 21.824219 19.5 21.4375 19.5 C 21.027344 19.5 20.757813 19.675781 20.59375 19.78125 C 20.429688 19.886719 20.34375 19.96875 20.25 20.03125 C 20.066406 20.15625 19.960938 20.21875 19.6875 20.21875 C 19.351563 20.21875 19.25 20.144531 19.125 20.0625 C 19 19.980469 18.957031 19.847656 18.5 19.59375 C 18.066406 19.351563 17.625 19.375 17.34375 19.40625 C 17.0625 19.4375 16.816406 19.472656 16.46875 19.46875 C 16.203125 19.464844 16 19.277344 16 19 L 16 11.09375 L 14.25 12.96875 L 11.875 15.59375 C 11.417969 16.089844 10.664063 16.15625 10.125 15.75 L 9.6875 15.40625 C 10.390625 14.601563 11.496094 13.324219 12.71875 11.9375 C 14.105469 10.363281 15.507813 8.804688 15.78125 8.53125 C 16.472656 7.839844 16.921875 7.472656 17.3125 7.28125 C 17.703125 7.089844 18.113281 7 18.96875 7 Z M 9 18 C 10.117188 18 11 18.882813 11 20 C 11 21.117188 10.117188 22 9 22 C 7.882813 22 7 21.117188 7 20 C 7 18.882813 7.882813 18 9 18 Z "></path>
</g>
</svg>
