<?xml version="1.0" encoding="UTF-8"?>
<svg xmlns="http://www.w3.org/2000/svg" xmlns:xlink="http://www.w3.org/1999/xlink" viewBox="0 0 32 32" version="1.1">
<g>
<path d="M 9 5 L 9 19 L 11 19 L 11 7 L 25 7 L 25 15 L 27 15 L 27 5 Z M 13 11 L 13 13 L 15 13 L 15 11 Z M 17 11 L 17 13 L 23 13 L 23 11 Z M 13 15 L 13 17 L 15 17 L 15 15 Z M 17 15 L 17 17 L 18.5 17 L 18.5 15 Z M 20 16 L 20 18 L 21 18 L 21 20 C 21 21.601563 21.800781 23.101563 23 24 C 21.800781 24.898438 21 26.398438 21 28 L 21 30 L 20 30 L 20 32 L 32 32 L 32 30 L 31 30 L 31 28 C 31 26.398438 30.199219 24.898438 29 24 C 30.199219 23.101563 31 21.601563 31 20 L 31 18 L 32 18 L 32 16 Z M 23 18 L 29 18 L 29 20 C 29 21.699219 27.699219 23 26 23 C 24.300781 23 23 21.699219 23 20 Z M 5 20 L 5 23 C 5 25.207031 6.792969 27 9 27 L 19.582031 27 C 19.695313 26.300781 19.925781 25.628906 20.253906 25 L 9 25 C 7.898438 25 7 24.101563 7 23 L 7 22 L 19.828125 22 C 19.617188 21.359375 19.5 20.683594 19.5 20 Z M 24 20 C 24 20 24 22 26 22 C 28 22 28 20 28 20 Z M 26 25 C 27.699219 25 29 26.300781 29 28 L 29 30 L 28 30 C 28 28.898438 27.101563 28 26 28 C 24.898438 28 24 28.898438 24 30 L 23 30 L 23 28 C 23 26.300781 24.300781 25 26 25 Z "></path>
</g>
</svg>
