<?xml version="1.0" encoding="UTF-8"?>
<svg xmlns="http://www.w3.org/2000/svg" xmlns:xlink="http://www.w3.org/1999/xlink" viewBox="0 0 32 32" version="1.1">
<g>
<path d="M 7 3 L 7 5 L 10.367188 5 C 9.660156 5.570313 9.042969 6.242188 8.53125 7 L 5 7 L 5 9 L 7.527344 9 C 7.300781 9.636719 7.136719 10.304688 7.058594 11 L 4 11 L 4 13 L 7.09375 13 C 7.191406 13.632813 7.386719 14.304688 7.632813 15 L 5 15 L 5 17 L 8.445313 17 C 8.738281 17.652344 9.078125 18.328125 9.421875 19 L 7 19 L 7 21 L 10.492188 21 C 10.707031 21.386719 10.917969 21.78125 11.136719 22.15625 C 13.15625 25.644531 15.175781 28.566406 15.175781 28.566406 L 16 29.761719 L 16.824219 28.566406 C 16.824219 28.566406 18.84375 25.644531 20.863281 22.15625 C 21.875 20.414063 22.890625 18.527344 23.667969 16.765625 C 24.441406 15.003906 25 13.40625 25 12 C 25 7.042969 20.957031 3 16 3 Z M 16 5 C 19.878906 5 23 8.121094 23 12 C 23 12.800781 22.558594 14.308594 21.832031 15.960938 C 21.109375 17.613281 20.125 19.449219 19.136719 21.15625 C 17.570313 23.855469 16.585938 25.261719 16 26.125 C 15.414063 25.261719 14.429688 23.855469 12.863281 21.15625 C 11.875 19.449219 10.890625 17.613281 10.167969 15.960938 C 9.441406 14.308594 9 12.800781 9 12 C 9 8.121094 12.121094 5 16 5 Z M 16 10 C 14.894531 10 14 10.894531 14 12 C 14 13.105469 14.894531 14 16 14 C 17.105469 14 18 13.105469 18 12 C 18 10.894531 17.105469 10 16 10 Z "></path>
</g>
</svg>
