<?xml version="1.0" encoding="UTF-8"?>
<svg xmlns="http://www.w3.org/2000/svg" xmlns:xlink="http://www.w3.org/1999/xlink" viewBox="0 0 32 32" version="1.1">
<g>
<path d="M 15 3 C 10.042969 3 6 7.042969 6 12 C 6 13.40625 6.558594 15.003906 7.335938 16.765625 C 8.109375 18.527344 9.125 20.414063 10.136719 22.15625 C 12.15625 25.644531 14.175781 28.566406 14.175781 28.566406 L 15 29.761719 L 15.824219 28.566406 C 15.824219 28.566406 17.84375 25.644531 19.863281 22.15625 C 20.875 20.414063 21.890625 18.527344 22.667969 16.765625 C 23.441406 15.003906 24 13.40625 24 12 C 24 7.042969 19.957031 3 15 3 Z M 15 5 C 18.878906 5 22 8.121094 22 12 C 22 12.800781 21.558594 14.308594 20.832031 15.960938 C 20.109375 17.613281 19.125 19.449219 18.136719 21.15625 C 16.570313 23.855469 15.585938 25.261719 15 26.125 C 14.414063 25.261719 13.429688 23.855469 11.863281 21.15625 C 10.875 19.449219 9.890625 17.613281 9.164063 15.960938 C 8.441406 14.308594 8 12.800781 8 12 C 8 8.121094 11.121094 5 15 5 Z M 15 7 L 11 10 L 11 15 L 14 15 L 14 12 L 16 12 L 16 15 L 19 15 L 19 10 Z "></path>
</g>
</svg>
