<?xml version="1.0" encoding="UTF-8"?>
<svg xmlns="http://www.w3.org/2000/svg" xmlns:xlink="http://www.w3.org/1999/xlink" viewBox="0 0 32 32" version="1.1">
<g>
<path d="M 16 3 C 11.042969 3 7 7.042969 7 12 C 7 13.40625 7.558594 15.003906 8.335938 16.765625 C 9.109375 18.527344 10.125 20.414063 11.136719 22.15625 C 13.15625 25.644531 15.175781 28.566406 15.175781 28.566406 L 16 29.761719 L 16.824219 28.566406 C 16.824219 28.566406 18.84375 25.644531 20.863281 22.15625 C 21.875 20.414063 22.890625 18.527344 23.667969 16.765625 C 24.441406 15.003906 25 13.40625 25 12 C 25 7.042969 20.957031 3 16 3 Z M 16 5 C 19.878906 5 23 8.121094 23 12 C 23 12.800781 22.558594 14.308594 21.832031 15.960938 C 21.109375 17.613281 20.125 19.449219 19.136719 21.15625 C 17.570313 23.855469 16.585938 25.261719 16 26.125 C 15.414063 25.261719 14.429688 23.855469 12.863281 21.15625 C 11.875 19.449219 10.890625 17.613281 10.167969 15.960938 C 9.441406 14.308594 9 12.800781 9 12 C 9 8.121094 12.121094 5 16 5 Z M 12 9 L 12 16 L 20 16 L 20 9 Z M 14.5 11 L 17.5 11 C 17.777344 11 18 11.222656 18 11.5 C 18 11.777344 17.777344 12 17.5 12 L 14.5 12 C 14.222656 12 14 11.777344 14 11.5 C 14 11.222656 14.222656 11 14.5 11 Z "></path>
</g>
</svg>
