<?xml version="1.0" encoding="UTF-8"?>
<svg xmlns="http://www.w3.org/2000/svg" xmlns:xlink="http://www.w3.org/1999/xlink" viewBox="0 0 32 32" version="1.1">
<g>
<path d="M 16.71875 1.0625 C 10.074219 2.921875 5 9.3125 5 16 C 5 22.0625 9.9375 27 16 27 C 16.324219 27 16.621094 26.90625 16.9375 26.875 C 16.558594 27.535156 16.132813 28.054688 15.75 28.375 C 15.121094 28.902344 14.71875 29.03125 14.71875 29.03125 L 15 29.96875 L 15.28125 30.9375 C 21.921875 29.078125 27 22.6875 27 16 C 27 9.9375 22.0625 5 16 5 C 15.675781 5 15.378906 5.09375 15.0625 5.125 C 15.441406 4.464844 15.867188 3.945313 16.25 3.625 C 16.878906 3.097656 17.28125 2.96875 17.28125 2.96875 L 17 2.03125 Z M 12.84375 5.28125 C 12.734375 5.558594 12.589844 5.75 12.5 6.0625 L 12 7.75 L 13.71875 7.3125 C 14.460938 7.117188 15.210938 7 16 7 C 20.984375 7 25 11.015625 25 16 C 25 20.058594 22.605469 24.125 19.15625 26.71875 C 19.265625 26.441406 19.410156 26.25 19.5 25.9375 L 20 24.25 L 18.28125 24.6875 C 17.539063 24.882813 16.789063 25 16 25 C 11.015625 25 7 20.984375 7 16 C 7 11.941406 9.394531 7.875 12.84375 5.28125 Z M 16 11 C 13.25 11 11 13.25 11 16 C 11 18.75 13.25 21 16 21 C 18.75 21 21 18.75 21 16 C 21 13.25 18.75 11 16 11 Z M 16 13 C 17.667969 13 19 14.332031 19 16 C 19 17.667969 17.667969 19 16 19 C 14.332031 19 13 17.667969 13 16 C 13 14.332031 14.332031 13 16 13 Z "></path>
</g>
</svg>
