<?xml version="1.0" encoding="UTF-8"?>
<svg xmlns="http://www.w3.org/2000/svg" xmlns:xlink="http://www.w3.org/1999/xlink" viewBox="0 0 32 32" version="1.1">
<g>
<path d="M 2 6 L 2 26 L 30 26 L 30 6 Z M 4 8 L 28 8 L 28 24 L 4 24 Z M 11.09375 11.625 C 10.75 11.886719 9.988281 12.472656 8.59375 12.90625 L 8.59375 14.4375 C 9.554688 14.332031 10.273438 13.808594 10.375 13.71875 L 10.375 20.21875 L 12.21875 20.21875 L 12.21875 11.625 Z M 21.25 11.625 C 20.90625 11.886719 20.226563 12.429688 18.75 12.90625 L 18.75 14.4375 C 19.847656 14.265625 20.429688 13.808594 20.53125 13.71875 L 20.53125 20.21875 L 22.375 20.21875 L 22.375 11.625 Z M 15.875 14.15625 C 15.054688 14.15625 14.78125 14.738281 14.78125 15.125 C 14.78125 15.828125 15.476563 16.09375 15.875 16.09375 C 16.609375 16.09375 16.96875 15.621094 16.96875 15.125 C 16.96875 14.761719 16.703125 14.15625 15.875 14.15625 Z M 15.875 18.4375 C 15.316406 18.4375 14.78125 18.75 14.78125 19.40625 C 14.78125 20.136719 15.488281 20.375 15.875 20.375 C 16.621094 20.375 16.96875 19.917969 16.96875 19.40625 C 16.96875 18.976563 16.613281 18.4375 15.875 18.4375 Z "></path>
</g>
</svg>
