<?xml version="1.0" encoding="UTF-8"?>
<svg xmlns="http://www.w3.org/2000/svg" xmlns:xlink="http://www.w3.org/1999/xlink" viewBox="0 0 32 32" version="1.1">
<g>
<path d="M 22.9375 10 L 19.9375 21.75 L 20.71875 21.90625 L 23.71875 10.15625 Z M 16.25 10.46875 C 15.371094 10.46875 14.628906 10.765625 14.0625 11.34375 C 13.496094 11.921875 13.21875 12.65625 13.21875 13.5625 C 13.21875 14.425781 13.527344 15.089844 14.09375 15.5625 C 14.496094 15.898438 15.230469 16.199219 16.34375 16.46875 C 17.355469 16.710938 18.0625 16.925781 18.40625 17.09375 C 18.753906 17.265625 18.996094 17.472656 19.15625 17.71875 C 19.316406 17.96875 19.375 18.234375 19.375 18.5625 C 19.375 19.144531 19.175781 19.65625 18.75 20.0625 C 18.324219 20.46875 17.769531 20.65625 17.09375 20.65625 C 16.265625 20.65625 15.539063 20.355469 14.875 19.71875 C 14.210938 19.082031 13.785156 18.195313 13.59375 17.09375 L 13.09375 17.09375 L 13.09375 21.09375 L 13.59375 21.09375 L 14.34375 20.125 C 15.113281 20.808594 16.023438 21.15625 17.0625 21.15625 C 18.03125 21.15625 18.828125 20.859375 19.4375 20.25 C 20.050781 19.640625 20.34375 18.863281 20.34375 17.9375 C 20.34375 17.417969 20.222656 16.949219 20 16.5625 C 19.777344 16.175781 19.453125 15.878906 19 15.625 C 18.546875 15.371094 17.746094 15.097656 16.625 14.84375 C 15.828125 14.667969 15.289063 14.5 15 14.34375 C 14.710938 14.1875 14.492188 13.996094 14.34375 13.75 C 14.199219 13.503906 14.125 13.203125 14.125 12.875 C 14.125 12.347656 14.335938 11.929688 14.71875 11.5625 C 15.101563 11.195313 15.589844 11 16.1875 11 C 16.90625 11 17.542969 11.253906 18.09375 11.78125 C 18.644531 12.308594 19.0625 13.164063 19.34375 14.3125 L 19.78125 14.3125 L 19.75 10.5625 L 19.25 10.5625 L 18.625 11.4375 C 18.214844 11.082031 17.816406 10.839844 17.4375 10.6875 C 17.054688 10.535156 16.675781 10.46875 16.25 10.46875 Z M 26.59375 11 C 26.136719 11 25.675781 11.0625 25.25 11.21875 C 24.679688 11.429688 24.222656 11.734375 23.90625 12.125 C 23.589844 12.519531 23.40625 12.984375 23.34375 13.5 C 23.289063 13.960938 23.363281 14.339844 23.5625 14.65625 C 23.765625 14.96875 24.03125 15.152344 24.34375 15.1875 C 24.613281 15.21875 24.835938 15.148438 25.03125 15 C 25.226563 14.847656 25.34375 14.664063 25.375 14.40625 C 25.433594 13.929688 25.191406 13.585938 24.6875 13.40625 C 24.488281 13.332031 24.367188 13.257813 24.3125 13.1875 C 24.253906 13.113281 24.234375 13 24.25 12.875 C 24.292969 12.503906 24.554688 12.183594 25.03125 11.90625 C 25.507813 11.628906 26.121094 11.546875 26.8125 11.625 C 27.429688 11.695313 27.882813 11.914063 28.1875 12.3125 C 28.492188 12.707031 28.601563 13.222656 28.53125 13.84375 C 28.484375 14.21875 28.339844 14.625 28.125 15.0625 C 27.90625 15.5 27.605469 15.957031 27.1875 16.40625 C 26.898438 16.722656 26.050781 17.464844 24.65625 18.65625 L 22.125 20.9375 L 22.09375 21.34375 L 28.9375 22.125 L 29.5625 19 L 29.03125 18.9375 C 28.714844 19.8125 28.46875 20.351563 28.28125 20.53125 C 28.09375 20.710938 27.820313 20.761719 27.4375 20.71875 C 24.886719 20.421875 23.726563 20.148438 24 19.875 C 24.269531 19.601563 24.691406 19.273438 25.25 18.90625 L 27.46875 17.46875 C 27.976563 17.136719 28.496094 16.710938 29 16.21875 C 29.292969 15.933594 29.511719 15.625 29.6875 15.28125 C 29.863281 14.9375 29.957031 14.597656 30 14.25 C 30.058594 13.742188 29.996094 13.269531 29.78125 12.8125 C 29.566406 12.351563 29.214844 11.949219 28.71875 11.625 C 28.222656 11.300781 27.648438 11.101563 27.03125 11.03125 C 26.875 11.011719 26.746094 11 26.59375 11 Z M 7.125 11.40625 C 6.257813 11.40625 5.429688 11.628906 4.625 12.125 C 3.824219 12.625 3.179688 13.308594 2.71875 14.1875 C 2.257813 15.066406 2.03125 16.066406 2.03125 17.15625 C 2.03125 18.261719 2.273438 19.277344 2.75 20.1875 C 3.226563 21.09375 3.839844 21.792969 4.625 22.28125 C 5.410156 22.765625 6.257813 23 7.15625 23 C 8.074219 23 8.960938 22.746094 9.78125 22.25 C 10.601563 21.75 11.21875 21.078125 11.6875 20.1875 C 12.15625 19.296875 12.40625 18.289063 12.40625 17.1875 C 12.40625 16.082031 12.15625 15.070313 11.6875 14.1875 C 11.222656 13.304688 10.605469 12.617188 9.78125 12.125 C 8.957031 11.632813 8.066406 11.40625 7.125 11.40625 Z M 7.25 11.96875 C 7.871094 11.96875 8.433594 12.140625 8.9375 12.5 C 9.441406 12.859375 9.824219 13.445313 10.09375 14.1875 C 10.367188 14.9375 10.5 15.953125 10.5 17.28125 C 10.5 18.5 10.351563 19.5 10.0625 20.25 C 9.773438 21.003906 9.394531 21.5625 8.90625 21.90625 C 8.417969 22.253906 7.832031 22.40625 7.1875 22.40625 C 6.265625 22.40625 5.5 22.042969 4.875 21.28125 C 4.25 20.519531 3.9375 19.144531 3.9375 17.15625 C 3.9375 15.328125 4.234375 13.996094 4.84375 13.1875 C 5.453125 12.378906 6.269531 11.96875 7.25 11.96875 Z "></path>
</g>
</svg>
