<?xml version="1.0" encoding="UTF-8"?>
<svg xmlns="http://www.w3.org/2000/svg" xmlns:xlink="http://www.w3.org/1999/xlink" viewBox="0 0 32 32" version="1.1">
<g>
<path d="M 13.3125 4 C 9.015625 4 3.65625 6.0625 3.65625 6.0625 L 4.34375 7.9375 C 4.34375 7.9375 4.636719 7.832031 4.78125 7.78125 C 5.691406 7.78125 6.089844 8.242188 6.4375 8.84375 C 6.523438 8.992188 6.597656 9.140625 6.65625 9.28125 C 5.710938 9.945313 5.21875 10.53125 5.21875 10.53125 L 4.8125 11.0625 L 5.125 11.65625 C 5.921875 13.074219 7.519531 14.476563 9.71875 15.28125 C 9.199219 17.277344 9 18.96875 9 18.96875 L 9 19.125 L 9.03125 19.28125 C 9.03125 19.28125 9.488281 21.628906 10.875 24.65625 C 10.648438 24.824219 10.359375 25 10 25 L 10 26 L 5 26 L 5 28 L 19.53125 28 L 19.8125 27.625 C 19.8125 27.625 21.183594 26 23 26 C 24.816406 26 26.21875 27.625 26.21875 27.625 L 27.78125 26.375 C 27.78125 26.375 26.742188 25.039063 24.96875 24.375 C 24.878906 24.171875 24.753906 23.859375 24.625 23.375 C 24.332031 22.28125 24 20.402344 24 17.3125 C 24 15.261719 23.75 13.8125 23.46875 12.875 C 23.292969 12.285156 23.101563 11.925781 22.96875 11.6875 C 22.792969 9.707031 21.929688 7.84375 20.4375 6.46875 C 18.761719 4.917969 16.332031 4 13.3125 4 Z M 13.3125 6 C 15.925781 6 17.832031 6.769531 19.09375 7.9375 C 20.355469 9.105469 21 10.691406 21 12.4375 C 21 12.6875 20.847656 13.140625 20.5625 13.46875 C 20.277344 13.796875 19.929688 14 19.5 14 C 19.300781 14 19.125 13.980469 18.9375 13.96875 C 19.429688 13.570313 19.71875 13.25 19.71875 13.25 L 18.28125 11.875 C 18.28125 11.875 16.121094 13.96875 13.71875 13.96875 C 10.652344 13.96875 8.589844 12.507813 7.53125 11.25 C 7.796875 11.003906 7.800781 10.886719 8.5625 10.46875 C 9.867188 9.753906 11.929688 9 15 9 L 15 7 C 12.117188 7 9.96875 7.605469 8.40625 8.3125 C 8.335938 8.160156 8.277344 8 8.1875 7.84375 C 8.015625 7.546875 7.78125 7.253906 7.5 6.96875 C 9.285156 6.488281 11.511719 6 13.3125 6 Z M 21.84375 15 C 21.929688 15.628906 22 16.386719 22 17.3125 C 22 20.539063 22.335938 22.601563 22.6875 23.90625 C 22.699219 23.953125 22.707031 23.984375 22.71875 24.03125 C 20.429688 24.140625 19.105469 25.488281 18.65625 26 L 15 26 L 15 25 C 14 25 13.378906 24.710938 13.03125 24.5 C 11.582031 21.558594 11.085938 19.316406 11.03125 19.0625 C 11.042969 18.960938 11.207031 17.523438 11.65625 15.78125 C 12.3125 15.894531 12.988281 15.96875 13.71875 15.96875 C 14.601563 15.96875 15.421875 15.792969 16.15625 15.53125 C 16.808594 15.714844 18.042969 16 19.5 16 C 20.457031 16 21.261719 15.570313 21.84375 15 Z "></path>
</g>
</svg>
