<?xml version="1.0"?>
<svg xmlns="http://www.w3.org/2000/svg" viewBox="0 0 32 32">
    <path d="M 30.199219 9.25 C 30.089219 9.25 30 9.3392188 30 9.4492188 L 30 18.068359 C 30 18.178359 30.089219 18.267578 30.199219 18.267578 L 31.800781 18.267578 C 31.910781 18.267578 32 18.178359 32 18.068359 L 32 9.4492188 C 32 9.3392188 31.910781 9.25 31.800781 9.25 L 30.199219 9.25 z M 4.6191406 12.25 C -0.25085938 12.242 0.00390625 17.361328 0.00390625 17.361328 C -0.03309375 19.385328 0.88295313 22.229 4.5019531 22.25 C 8.1239531 22.271 9.0020469 19.364328 8.9980469 17.361328 C 8.9980469 17.361328 9.2421406 12.257 4.6191406 12.25 z M 14.5 12.25 C 12.853 12.239 10.034953 12.736328 10.001953 15.361328 C 9.9809531 17.017328 11.113844 17.593687 11.714844 17.804688 C 12.813844 18.191688 15.987953 17.965047 16.001953 19.248047 C 16.019953 20.906047 11.734078 20.028219 10.830078 19.824219 C 10.732078 19.802219 10.638516 19.858125 10.603516 19.953125 L 10.066406 21.443359 C 10.029406 21.545359 10.073781 21.655313 10.175781 21.695312 C 10.602781 21.861313 11.774953 22.254047 13.251953 22.248047 C 16.000953 22.237047 17.997953 21.385016 18.001953 18.916016 C 18.005953 16.623016 15.962531 16.356047 15.144531 16.248047 C 14.345531 16.143047 12.015953 16.153766 12.001953 15.259766 C 11.988953 14.405766 13.532891 13.774109 16.712891 14.537109 C 16.812891 14.562109 16.919172 14.507203 16.951172 14.408203 L 17.4375 12.890625 C 17.4725 12.782625 17.413688 12.668672 17.304688 12.638672 C 16.872688 12.520672 15.775 12.259 14.5 12.25 z M 19.212891 12.25 C 19.102891 12.25 19.012719 12.331406 19.011719 12.441406 C 19.004719 13.076406 18.986672 15.265 19.013672 18.5 C 19.045672 22.375 22.469891 22.244 24.337891 22.25 C 26.032891 22.255 27 21.625 27 21.625 L 27 12.449219 C 27 12.339219 26.910781 12.25 26.800781 12.25 L 25.199219 12.25 C 25.089219 12.25 25 12.339219 25 12.449219 L 25 20.25 C 25 20.25 23.166 20.518 22 20.25 C 20.983 20.016 21 17.75 21 17.75 L 21 12.449219 C 21 12.339219 20.910781 12.25 20.800781 12.25 L 19.212891 12.25 z M 4.5 14.25 C 5.245 14.248 6.998 14.589 7 17.25 C 7.002 19.706 5.186 20.257 4.5 20.25 C 3.801 20.243 2.004 19.705 2 17.25 C 1.996 14.578 3.738 14.252 4.5 14.25 z M 30.199219 20.228516 C 30.089219 20.228516 30 20.317734 30 20.427734 L 30 22.050781 C 30 22.160781 30.089219 22.25 30.199219 22.25 L 31.800781 22.25 C 31.910781 22.25 32 22.160781 32 22.050781 L 32 20.427734 C 32 20.317734 31.910781 20.228516 31.800781 20.228516 L 30.199219 20.228516 z"></path>
</svg>
