<?xml version="1.0" encoding="UTF-8"?>
<svg xmlns="http://www.w3.org/2000/svg" xmlns:xlink="http://www.w3.org/1999/xlink" viewBox="0 0 32 32" version="1.1">
<g>
<path d="M 6 3 L 6 10 L 8 10 L 8 5 L 24 5 L 24 10 L 26 10 L 26 3 Z M 10.5 12 C 9.117188 12 8 13.117188 8 14.5 L 8 17.5 C 8 18.882813 9.117188 20 10.5 20 C 11.882813 20 13 18.882813 13 17.5 L 13 14.5 C 13 13.117188 11.882813 12 10.5 12 Z M 14 12 L 14 14 L 15 14 L 15 20 L 17 20 L 17 14 L 18 14 L 18 12 Z M 19 12 L 19 20 L 21 20 L 21 17 L 23 17 L 23 15 L 21 15 L 21 14 L 24 14 L 24 12 Z M 10.5 14 C 10.714844 14 11 14.285156 11 14.5 L 11 17.5 C 11 17.714844 10.714844 18 10.5 18 C 10.285156 18 10 17.714844 10 17.5 L 10 14.5 C 10 14.285156 10.285156 14 10.5 14 Z M 6 22 L 6 29 L 26 29 L 26 22 L 24 22 L 24 27 L 8 27 L 8 22 Z "></path>
</g>
</svg>
