<?xml version="1.0" encoding="UTF-8"?>
<svg xmlns="http://www.w3.org/2000/svg" xmlns:xlink="http://www.w3.org/1999/xlink" viewBox="0 0 32 32" version="1.1">
<g>
<path d="M 5 5 L 5 27 L 16.59375 27 C 17.785156 29.921875 20.660156 32 24 32 C 28.398438 32 32 28.398438 32 24 C 32 20.660156 29.921875 17.785156 27 16.59375 L 27 5 Z M 7 7 L 25 7 L 25 16.070313 C 24.671875 16.027344 24.339844 16 24 16 C 19.601563 16 16 19.601563 16 24 C 16 24.339844 16.027344 24.671875 16.070313 25 L 7 25 Z M 13.5 9 C 13.140625 8.996094 12.804688 9.183594 12.621094 9.496094 C 12.441406 9.808594 12.441406 10.191406 12.621094 10.503906 C 12.804688 10.816406 13.140625 11.003906 13.5 11 L 18.5 11 C 18.859375 11.003906 19.195313 10.816406 19.378906 10.503906 C 19.558594 10.191406 19.558594 9.808594 19.378906 9.496094 C 19.195313 9.183594 18.859375 8.996094 18.5 9 Z M 24 18 C 27.300781 18 30 20.699219 30 24 C 30 25.289063 29.582031 26.484375 28.878906 27.46875 L 20.53125 19.121094 C 21.515625 18.417969 22.710938 18 24 18 Z M 19.121094 20.53125 L 27.46875 28.878906 C 26.484375 29.582031 25.289063 30 24 30 C 20.699219 30 18 27.300781 18 24 C 18 22.710938 18.417969 21.515625 19.121094 20.53125 Z "></path>
</g>
</svg>
