<?xml version="1.0" encoding="UTF-8"?>
<svg xmlns="http://www.w3.org/2000/svg" xmlns:xlink="http://www.w3.org/1999/xlink" viewBox="0 0 32 32" version="1.1">
<g>
<path d="M 16 3.585938 L 11.292969 8.292969 L 12.707031 9.707031 L 15 7.414063 L 15 13 L 17 13 L 17 7.414063 L 19.292969 9.707031 L 20.707031 8.292969 Z M 7.140625 5 L 5 18.921875 L 5 27 L 27 27 L 27 18.921875 L 24.859375 5 L 21.25 5 L 21.25 7 L 23.140625 7 L 24.832031 18 L 18 18 L 18 19 C 18 20.117188 17.117188 21 16 21 C 14.882813 21 14 20.117188 14 19 L 14 18 L 7.164063 18 L 8.859375 7 L 10.832031 7 L 10.832031 5 Z M 7 20 L 12.203125 20 C 12.660156 21.707031 14.15625 23 16 23 C 17.84375 23 19.339844 21.707031 19.796875 20 L 25 20 L 25 25 L 7 25 Z "></path>
</g>
</svg>
