<?xml version="1.0" encoding="UTF-8"?>
<svg xmlns="http://www.w3.org/2000/svg" xmlns:xlink="http://www.w3.org/1999/xlink" viewBox="0 0 32 32" version="1.1">
<g>
<path d="M 7 3.96875 L 4 5.84375 L 4 8.21875 L 7 6.34375 L 16 12 L 16 26 L 4 26 L 4 28 L 18 28 L 18 23 L 26 23 L 26 18.84375 C 27.71875 18.398438 29 16.851563 29 15 C 29 12.800781 27.199219 11 25 11 C 22.800781 11 21 12.800781 21 15 C 21 16.851563 22.28125 18.398438 24 18.84375 L 24 21 L 18 21 L 18 13.15625 L 19.03125 11.53125 Z M 25 13 C 26.117188 13 27 13.882813 27 15 C 27 16.117188 26.117188 17 25 17 C 23.882813 17 23 16.117188 23 15 C 23 13.882813 23.882813 13 25 13 Z M 25 14 C 24.449219 14 24 14.449219 24 15 C 24 15.550781 24.449219 16 25 16 C 25.550781 16 26 15.550781 26 15 C 26 14.449219 25.550781 14 25 14 Z "></path>
</g>
</svg>
