<?xml version="1.0" encoding="UTF-8"?>
<svg xmlns="http://www.w3.org/2000/svg" xmlns:xlink="http://www.w3.org/1999/xlink" viewBox="0 0 32 32" version="1.1">
<g>
<path d="M 2 6 L 2 26 L 30 26 L 30 6 Z M 4 8 L 28 8 L 28 24 L 4 24 Z M 6 10 L 6 22 L 12 22 L 12 10 Z M 20 10 C 16.699219 10 14 12.699219 14 16 C 14 19.300781 16.699219 22 20 22 C 23.300781 22 26 19.300781 26 16 C 26 12.699219 23.300781 10 20 10 Z M 8 12 L 10 12 L 10 15 L 8 15 Z M 20 12 C 22.222656 12 24 13.777344 24 16 C 24 18.222656 22.222656 20 20 20 C 17.777344 20 16 18.222656 16 16 C 16 13.777344 17.777344 12 20 12 Z M 17 15 L 17 17 L 19 17 L 19 15 Z M 21 15 L 21 17 L 23 17 L 23 15 Z M 8 17 L 10 17 L 10 20 L 8 20 Z "></path>
</g>
</svg>
