<?xml version="1.0"?>
<svg xmlns="http://www.w3.org/2000/svg" viewBox="0 0 32 32">
    <path d="M 5.9550781 3 L 5.65625 3.3300781 C 5.65625 3.3300781 4.89433 4 4.4003906 4 L 4.4003906 6 C 5.0786382 6 5.556313 5.7241733 6 5.4707031 L 6 10 L 8 10 L 8 3 L 5.9550781 3 z M 11 6 L 11 8 L 28 8 L 28 6 L 11 6 z M 10 12 C 8.3545455 12 7 13.354545 7 15 L 7 16 C 7 17.645455 8.3545455 19 10 19 C 10.76881 19 11.466695 18.695812 12 18.212891 C 12.533353 18.695875 13.231416 19 14 19 L 14 17 C 13.43497 17 13 16.56503 13 16 L 13 15 L 13 12 L 11 12 L 11 12.1875 C 10.685079 12.07397 10.351946 12 10 12 z M 10 14 C 10.554545 14 11 14.445455 11 15 L 11 16 C 11 16.554545 10.554545 17 10 17 C 9.4454545 17 9 16.554545 9 16 L 9 15 C 9 14.445455 9.4454545 14 10 14 z M 16 15 L 16 17 L 28 17 L 28 15 L 16 15 z M 15 21 L 15 23 L 17 23 L 17 21 L 15 21 z M 15 24 L 15 28 L 17 28 L 17 24 L 15 24 z M 19 24 L 19 26 L 28 26 L 28 24 L 19 24 z"></path>
</svg>
