<?xml version="1.0" encoding="UTF-8"?>
<svg xmlns="http://www.w3.org/2000/svg" xmlns:xlink="http://www.w3.org/1999/xlink" viewBox="0 0 32 32" version="1.1">
<g>
<path d="M 8 10 L 8 12 L 9 12 L 9 15.621094 C 7.050781 15.972656 5.414063 16.40625 4 16.824219 L 4 11 L 2 11 L 2 17.4375 C 0.871094 17.828125 0.105469 18.128906 0.105469 18.128906 L 0.894531 19.96875 C 0.894531 19.96875 1.355469 19.792969 2 19.558594 L 2 22 L 4 22 L 4 18.90625 C 5.359375 18.492188 7.019531 18.03125 9 17.65625 L 9 19 L 11 19 L 11 17.316406 C 11.648438 17.226563 12.320313 17.160156 13 17.097656 L 13 22 L 19 22 L 19 17.097656 C 19.679688 17.160156 20.351563 17.226563 21 17.316406 L 21 19 L 23 19 L 23 17.65625 C 24.945313 18.027344 26.65625 18.472656 28 18.886719 L 28 22 L 30 22 L 30 19.546875 C 30.644531 19.78125 31.105469 19.96875 31.105469 19.96875 L 31.894531 18.128906 C 31.894531 18.128906 31.164063 17.828125 30 17.425781 L 30 11 L 28 11 L 28 16.796875 C 26.605469 16.382813 24.914063 15.964844 23 15.621094 L 23 12 L 24 12 L 24 10 Z M 11 12 L 21 12 L 21 15.296875 C 19.414063 15.085938 17.734375 14.949219 16 14.949219 C 14.265625 14.949219 12.585938 15.085938 11 15.296875 Z M 16 16.949219 C 16.335938 16.949219 16.667969 16.957031 17 16.96875 L 17 20 L 15 20 L 15 16.96875 C 15.332031 16.957031 15.664063 16.949219 16 16.949219 Z "></path>
</g>
</svg>
