<?xml version="1.0" encoding="UTF-8"?>
<svg xmlns="http://www.w3.org/2000/svg" xmlns:xlink="http://www.w3.org/1999/xlink" viewBox="0 0 32 32" version="1.1">
<g>
<path d="M 9.882813 3 C 7.683594 3 6 4.824219 6 7 L 6 10 C 6 10.488281 6.023438 11.070313 6.242188 11.667969 C 6.355469 11.964844 6.519531 12.28125 6.816406 12.546875 C 7.113281 12.816406 7.5625 13 8 13 L 10 13 L 10 16 L 12 16 L 12 13 L 19 13 L 19 18 L 7 18 C 4.800781 18 3 19.777344 3 22 L 3 25.453125 C 3 26.839844 4.136719 28 5.53125 28 L 6 28 L 6 29 L 8 29 L 8 28 L 24 28 L 24 29 L 26 29 L 26 28 L 26.46875 28 C 27.863281 28 29 26.839844 29 25.453125 L 29 7 C 29 4.757813 27.140625 3 24.941406 3 Z M 9.882813 5 L 11 5 L 11 8 L 13 8 L 13 5 L 16 5 L 16 8 L 18 8 L 18 5 L 21 5 L 21 8 L 23 8 L 23 5 L 24.941406 5 C 26.121094 5 27 5.824219 27 7 L 27 25.453125 C 27 25.773438 26.769531 26 26.46875 26 L 5.53125 26 C 5.230469 26 5 25.773438 5 25.453125 L 5 22 C 5 20.800781 5.820313 20 7 20 L 19 20 C 19.664063 20 20.039063 19.691406 20.363281 19.371094 C 20.6875 19.046875 21 18.664063 21 18 L 21 13 C 21 12.335938 20.6875 11.953125 20.363281 11.628906 C 20.039063 11.308594 19.664063 11 19 11 L 8.132813 11 C 8.125 10.984375 8.128906 11 8.121094 10.976563 C 8.050781 10.785156 8 10.367188 8 10 L 8 7 C 8 5.753906 8.703125 5 9.882813 5 Z "></path>
</g>
</svg>
