<?xml version="1.0" encoding="UTF-8"?>
<svg xmlns="http://www.w3.org/2000/svg" xmlns:xlink="http://www.w3.org/1999/xlink" viewBox="0 0 32 32" version="1.1">
<g>
<path d="M 16 3 C 8.832031 3 3 8.832031 3 16 C 3 23.167969 8.832031 29 16 29 C 23.167969 29 29 23.167969 29 16 C 29 8.832031 23.167969 3 16 3 Z M 16 5 C 18.476563 5 20.757813 5.8125 22.59375 7.1875 L 21.28125 8.71875 C 19.796875 7.636719 17.972656 7 16 7 C 14.027344 7 12.203125 7.636719 10.71875 8.71875 L 9.40625 7.1875 C 11.242188 5.8125 13.523438 5 16 5 Z M 7.9375 8.53125 L 9.25 10.0625 C 7.851563 11.648438 7 13.726563 7 16 C 7 18.148438 7.769531 20.109375 9.03125 21.65625 L 9.8125 20.96875 L 10.53125 20.375 C 10.527344 20.367188 10.535156 20.351563 10.53125 20.34375 L 13.84375 17.5 L 15 15.59375 L 15 19.1875 L 11.34375 22.3125 L 10.4375 23.0625 C 11.96875 24.265625 13.90625 25 16 25 C 18.09375 25 20.03125 24.265625 21.5625 23.0625 L 20.59375 22.25 L 20.53125 22.1875 L 20 21.75 L 17 19.1875 L 17 15.59375 L 18.15625 17.5 L 21.46875 20.375 L 22.21875 21.03125 L 22.96875 21.65625 C 24.230469 20.105469 25 18.148438 25 16 C 25 13.726563 24.148438 11.648438 22.75 10.0625 L 24.0625 8.53125 C 25.878906 10.492188 27 13.105469 27 16 C 27 22.085938 22.085938 27 16 27 C 9.914063 27 5 22.085938 5 16 C 5 13.105469 6.121094 10.492188 7.9375 8.53125 Z M 16 9 C 19.859375 9 23 12.140625 23 16 C 23 16.921875 22.796875 17.785156 22.46875 18.59375 L 19.6875 16.21875 L 16 10.0625 L 12.3125 16.21875 L 9.53125 18.59375 C 9.203125 17.785156 9 16.921875 9 16 C 9 12.140625 12.140625 9 16 9 Z M 16 20.9375 L 18.03125 22.6875 C 17.386719 22.882813 16.707031 23 16 23 C 15.292969 23 14.613281 22.882813 13.96875 22.6875 Z "></path>
</g>
</svg>
