<?xml version="1.0" encoding="UTF-8"?>
<svg xmlns="http://www.w3.org/2000/svg" xmlns:xlink="http://www.w3.org/1999/xlink" viewBox="0 0 32 32" version="1.1">
<g>
<path d="M 8.125 4 L 8 4.875 L 5.125 26 L 4 26 L 4 28 L 8 28 L 8 26 L 7.15625 26 L 9.875 6 L 15 6 L 15 14 L 17 14 L 17 6 L 22.125 6 L 24.84375 26 L 24 26 L 24 28 L 28 28 L 28 26 L 26.875 26 L 24 4.875 L 23.875 4 Z M 15 15 L 15 18 L 16 18 C 16.554688 18 17 18.445313 17 19 C 17 19.554688 16.554688 20 16 20 C 15.445313 20 15 19.554688 15 19 L 13 19 C 13 20.644531 14.355469 22 16 22 C 17.644531 22 19 20.644531 19 19 C 19 17.742188 18.109375 16.847656 17 16.40625 L 17 15 Z "></path>
</g>
</svg>
