<?xml version="1.0" encoding="UTF-8"?>
<svg xmlns="http://www.w3.org/2000/svg" xmlns:xlink="http://www.w3.org/1999/xlink" viewBox="0 0 32 32" version="1.1">
<g>
<path d="M 5 5 L 5 27 L 27 27 L 27 5 Z M 7 7 L 25 7 L 25 25 L 7 25 Z M 16 11 C 14.355469 11 13 12.355469 13 14 L 13 18 C 13 19.644531 14.355469 21 16 21 C 17.644531 21 19 19.644531 19 18 L 19 14 C 19 12.355469 17.644531 11 16 11 Z M 16 13 C 16.566406 13 17 13.433594 17 14 L 17 18 C 17 18.566406 16.566406 19 16 19 C 15.433594 19 15 18.566406 15 18 L 15 14 C 15 13.433594 15.433594 13 16 13 Z "></path>
</g>
</svg>
