<?xml version="1.0" encoding="UTF-8"?>
<svg xmlns="http://www.w3.org/2000/svg" xmlns:xlink="http://www.w3.org/1999/xlink" viewBox="0 0 32 32" version="1.1">
<g>
<path d="M 5 5 L 5 27 L 27 27 L 27 5 Z M 7 7 L 25 7 L 25 25 L 7 25 Z M 12.5 9 C 10.578125 9 9 10.578125 9 12.5 L 9 17.5 C 9 19.421875 10.578125 21 12.5 21 C 14.421875 21 16 19.421875 16 17.5 L 16 12.5 C 16 10.578125 14.421875 9 12.5 9 Z M 12.5 11 C 13.339844 11 14 11.660156 14 12.5 L 14 17.5 C 14 18.339844 13.339844 19 12.5 19 C 11.660156 19 11 18.339844 11 17.5 L 11 12.5 C 11 11.660156 11.660156 11 12.5 11 Z M 20.5 15 C 19.773438 15 19.09375 15.207031 18.625 15.6875 C 18.15625 16.167969 18 16.808594 18 17.375 L 20 17.375 C 20 17.132813 20.058594 17.101563 20.0625 17.09375 C 20.066406 17.085938 20.121094 17 20.5 17 C 20.9375 17 21 17.136719 21 17.5 C 21 17.785156 20.785156 18 20.5 18 L 20 18 L 20 20 L 20.5 20 C 20.785156 20 21 20.214844 21 20.5 C 21 20.863281 20.9375 21 20.5 21 C 20.121094 21 20.066406 20.914063 20.0625 20.90625 C 20.058594 20.898438 20 20.867188 20 20.625 L 18 20.625 C 18 21.191406 18.15625 21.832031 18.625 22.3125 C 19.09375 22.792969 19.773438 23 20.5 23 C 21.910156 23 23 21.792969 23 20.5 C 23 19.9375 22.789063 19.421875 22.46875 19 C 22.789063 18.578125 23 18.0625 23 17.5 C 23 16.207031 21.910156 15 20.5 15 Z "></path>
</g>
</svg>
