<?xml version="1.0" encoding="UTF-8"?>
<svg xmlns="http://www.w3.org/2000/svg" xmlns:xlink="http://www.w3.org/1999/xlink" viewBox="0 0 32 32" version="1.1">
<g>
<path d="M 6.90625 4 C 5.894531 4 5.015625 4.777344 4.90625 5.78125 L 4.09375 13.125 C 3.992188 14.050781 4.558594 14.960938 5.46875 15.25 C 6.488281 15.574219 8.351563 16 11 16 C 13.648438 16 15.511719 15.574219 16.53125 15.25 C 17.441406 14.960938 18.007813 14.050781 17.90625 13.125 L 17.34375 8 C 22.167969 8.179688 26 12.132813 26 17 C 26 19.773438 23.773438 22 21 22 L 11 22 L 11 24 L 21 24 C 21.699219 24 22.363281 23.910156 23 23.71875 C 21.410156 25.140625 19.308594 26 17 26 L 11 26 L 11 28 L 17 28 C 22.820313 28 27.597656 23.449219 27.96875 17.71875 C 27.992188 17.484375 28 17.242188 28 17 C 28 10.980469 23.128906 6.066406 17.125 6 L 17.09375 5.78125 C 16.984375 4.777344 16.105469 4 15.09375 4 Z M 6.90625 6 L 15.09375 6 L 15.3125 8 L 6.6875 8 Z M 6.46875 10 L 15.53125 10 L 15.90625 13.34375 C 15.058594 13.613281 13.414063 14 11 14 C 8.585938 14 6.941406 13.613281 6.09375 13.34375 Z M 5 22 L 5 24 L 10 24 L 10 22 Z M 5 26 L 5 28 L 10 28 L 10 26 Z "></path>
</g>
</svg>
