<?xml version="1.0" encoding="UTF-8"?>
<svg xmlns="http://www.w3.org/2000/svg" xmlns:xlink="http://www.w3.org/1999/xlink" viewBox="0 0 32 32" version="1.1">
<g>
<path d="M 24.5 2 C 21.472656 2 19 4.472656 19 7.5 C 19 7.886719 19.113281 8.21875 19.1875 8.5625 L 17.59375 10.15625 L 12.71875 5.28125 C 12.496094 5.0625 12.183594 4.957031 11.875 5 C 11.652344 5.023438 11.441406 5.125 11.28125 5.28125 L 9.28125 7.28125 C 8.933594 7.621094 8.882813 8.160156 9.15625 8.5625 L 12.25 13.1875 C 11.683594 13.066406 11.097656 13 10.5 13 C 5.816406 13 2 16.816406 2 21.5 C 2 26.183594 5.816406 30 10.5 30 C 15.183594 30 19 26.183594 19 21.5 C 19 20.902344 18.933594 20.316406 18.8125 19.75 L 23.4375 22.84375 C 23.839844 23.117188 24.378906 23.066406 24.71875 22.71875 L 26.71875 20.71875 C 26.914063 20.53125 27.023438 20.269531 27.023438 20 C 27.023438 19.730469 26.914063 19.46875 26.71875 19.28125 L 21.84375 14.40625 L 23.4375 12.8125 C 23.78125 12.886719 24.113281 13 24.5 13 C 27.527344 13 30 10.527344 30 7.5 C 30 4.472656 27.527344 2 24.5 2 Z M 24.5 4 C 26.445313 4 28 5.554688 28 7.5 C 28 9.445313 26.445313 11 24.5 11 C 24.132813 11 23.785156 10.9375 23.40625 10.8125 L 22.8125 10.59375 L 22.375 11.03125 L 20.4375 13 L 19 11.5625 L 20.96875 9.625 L 21.40625 9.1875 L 21.1875 8.59375 C 21.0625 8.214844 21 7.867188 21 7.5 C 21 5.554688 22.554688 4 24.5 4 Z M 12 7.4375 L 24.5625 20 L 23.875 20.6875 L 18.5625 17.15625 C 18.222656 16.925781 17.777344 16.925781 17.4375 17.15625 L 15.125 18.6875 L 13.3125 16.875 L 14.84375 14.5625 C 15.074219 14.222656 15.074219 13.777344 14.84375 13.4375 L 11.3125 8.125 Z M 10.5 15 C 11.019531 15 11.523438 15.070313 12 15.1875 L 11.15625 16.4375 C 10.882813 16.839844 10.933594 17.378906 11.28125 17.71875 L 14.28125 20.71875 C 14.621094 21.066406 15.160156 21.117188 15.5625 20.84375 L 16.8125 20 C 16.929688 20.476563 17 20.980469 17 21.5 C 17 25.101563 14.101563 28 10.5 28 C 6.898438 28 4 25.101563 4 21.5 C 4 17.898438 6.898438 15 10.5 15 Z "></path>
</g>
</svg>
