<?xml version="1.0" encoding="UTF-8"?>
<svg xmlns="http://www.w3.org/2000/svg" xmlns:xlink="http://www.w3.org/1999/xlink" viewBox="0 0 32 32" version="1.1">
<g>
<path d="M 15.40625 5 L 15.125 5.375 C 15.125 5.375 14.179688 6.570313 12.78125 7.75 C 11.382813 8.929688 9.558594 10 8 10 L 7 10 L 7 11.28125 L 7.0625 11.4375 C 7.0625 11.4375 7.640625 12.722656 9 13.46875 L 9 16 L 8.71875 16.25 C 8.71875 16.25 8.199219 16.703125 7.4375 17.15625 C 6.675781 17.609375 5.675781 18 5 18 L 4 18 L 4 19.28125 L 4.0625 19.4375 C 4.0625 19.4375 4.882813 21.382813 7 21.875 L 7 27 L 25 27 L 25 21.875 C 27.117188 21.382813 27.9375 19.4375 27.9375 19.4375 L 28 19.28125 L 28 18 L 27 18 C 26.324219 18 25.324219 17.609375 24.5625 17.15625 C 23.800781 16.703125 23.28125 16.25 23.28125 16.25 L 23 16 L 23 13.46875 C 24.359375 12.722656 24.9375 11.4375 24.9375 11.4375 L 25 11.28125 L 25 10 L 24 10 C 22.640625 10 20.757813 8.90625 19.3125 7.71875 C 17.867188 6.53125 16.875 5.34375 16.875 5.34375 L 16.5625 5 Z M 16.03125 7.3125 C 16.421875 7.746094 16.867188 8.300781 18.0625 9.28125 C 19.230469 10.242188 20.707031 11.054688 22.28125 11.53125 C 21.96875 11.753906 21.664063 12 21 12 L 11 12 C 10.351563 12 10.0625 11.746094 9.75 11.53125 C 11.398438 11.058594 12.9375 10.226563 14.09375 9.25 C 15.253906 8.269531 15.660156 7.753906 16.03125 7.3125 Z M 11 14 L 21 14 L 21 16 L 19 16 L 19 15 L 17 15 L 17 16 L 15 16 L 15 15 L 13 15 L 13 16 L 11 16 Z M 9.65625 18 L 22.34375 18 C 22.554688 18.167969 22.851563 18.421875 23.5625 18.84375 C 24 19.105469 24.507813 19.378906 25.0625 19.59375 C 24.761719 19.765625 24.554688 20 24 20 L 8 20 C 7.445313 20 7.238281 19.765625 6.9375 19.59375 C 7.492188 19.378906 8 19.105469 8.4375 18.84375 C 9.148438 18.421875 9.445313 18.167969 9.65625 18 Z M 9 22 L 23 22 L 23 25 L 18 25 L 18 23 L 14 23 L 14 25 L 9 25 Z "></path>
</g>
</svg>
