<?xml version="1.0" encoding="UTF-8"?>
<svg xmlns="http://www.w3.org/2000/svg" xmlns:xlink="http://www.w3.org/1999/xlink" viewBox="0 0 32 32" version="1.1">
<g>
<path d="M 6 5 L 6 27 L 17.4375 27 C 18.472656 29.902344 21.25 32 24.5 32 C 28.628906 32 32 28.628906 32 24.5 C 32 20.886719 29.410156 17.859375 26 17.15625 L 26 5 Z M 8 7 L 24 7 L 24 17.03125 C 20.105469 17.296875 17 20.542969 17 24.5 C 17 24.671875 17.019531 24.832031 17.03125 25 L 8 25 Z M 12 10 L 12 22 L 14 22 L 14 19 L 17 19 C 18.644531 19 20 17.644531 20 16 L 20 13 C 20 11.355469 18.644531 10 17 10 Z M 14 12 L 17 12 C 17.566406 12 18 12.433594 18 13 L 18 16 C 18 16.566406 17.566406 17 17 17 L 14 17 Z M 24.5 19 C 27.550781 19 30 21.449219 30 24.5 C 30 27.550781 27.550781 30 24.5 30 C 21.449219 30 19 27.550781 19 24.5 C 19 21.449219 21.449219 19 24.5 19 Z M 24 21 L 24 22 L 22 22 L 22 25 L 26 25 L 26 26 L 22 26 L 22 27 L 24 27 L 24 28 L 25 28 L 25 27 L 27 27 L 27 24 L 23 24 L 23 23 L 27 23 L 27 22 L 25 22 L 25 21 Z "></path>
</g>
</svg>
