<?xml version="1.0" encoding="UTF-8"?>
<svg xmlns="http://www.w3.org/2000/svg" xmlns:xlink="http://www.w3.org/1999/xlink" viewBox="0 0 32 32" version="1.1">
<g>
<path d="M 16 4 C 11.59375 4 8 7.59375 8 12 L 6 12 L 6 25 C 6 26.644531 7.355469 28 9 28 L 23 28 C 24.644531 28 26 26.644531 26 25 L 26 12 L 24 12 C 24 7.59375 20.40625 4 16 4 Z M 16 6 C 19.324219 6 22 8.675781 22 12 L 10 12 C 10 8.675781 12.675781 6 16 6 Z M 8 14 L 12 14 C 12.5 14 13 14.492188 13 15 L 13 16 C 13 16.550781 13.449219 17 14 17 C 14.550781 17 15 16.550781 15 16 L 15 15 C 15 14.492188 15.507813 14 16 14 L 17 14 C 18 14 18 15 18 15 C 18 16.003906 17 18.015625 17 19 C 17 20.105469 17.894531 21 19 21 C 20.105469 21 21 20.105469 21 19 C 21 17.996094 20 16.003906 20 15 C 20 15 20.019531 14 21 14 L 24 14 L 24 25 C 24 25.5625 23.5625 26 23 26 L 9 26 C 8.4375 26 8 25.5625 8 25 Z "></path>
</g>
</svg>
