<?xml version="1.0"?>
<svg xmlns="http://www.w3.org/2000/svg" viewBox="0 0 32 32">
    <path d="M 6 4 C 5.45 4 5 4.45 5 5 L 5 28 C 5 28.55 5.45 29 6 29 L 26 29 C 26.55 29 27 28.55 27 28 L 27 15.599609 L 25 17.519531 L 25 21.589844 L 22.919922 19.509766 L 21.480469 20.890625 L 22.589844 22 L 20.320312 22 L 19.039062 23.230469 C 18.979063 23.500469 18.889297 23.76 18.779297 24 L 25 24 L 25 27 L 7 27 L 7 24 L 10.230469 24 C 10.450469 23.35 10.71 22.66 11 22 L 7 22 L 7 18.619141 L 7.5507812 18.890625 C 7.8807813 19.050625 8.2607812 19.030078 8.5507812 18.830078 L 11.029297 17.179688 L 13.570312 18.710938 C 13.950313 18.520937 14.369062 18.409375 14.789062 18.359375 L 15.660156 17.630859 L 11.509766 15.140625 C 11.179766 14.940625 10.769219 14.949922 10.449219 15.169922 L 7.9296875 16.849609 L 7 16.380859 L 7 12.5 C 7 11.12 8.12 10 9.5 10 C 10.85 10 11.950234 11.059922 11.990234 12.419922 C 12.000234 12.829922 12.270391 13.200078 12.650391 13.330078 C 13.040391 13.470078 13.47 13.360781 13.75 13.050781 C 14.33 12.370781 15.13 12 16 12 C 17.04 12 17.990781 12.539453 18.550781 13.439453 C 18.740781 13.739453 19.069453 13.940156 19.439453 13.910156 C 19.799453 13.900156 20.119063 13.689141 20.289062 13.369141 C 20.709063 12.549141 21.510156 12.029766 22.410156 12.009766 L 24.339844 10.400391 C 23.769844 10.140391 23.15 10 22.5 10 C 21.3 10 20.179609 10.480781 19.349609 11.300781 C 18.449609 10.470781 17.26 10 16 10 C 15.15 10 14.319844 10.220859 13.589844 10.630859 C 12.889844 9.0708594 11.32 8 9.5 8 C 8.58 8 7.72 8.2797656 7 8.7597656 L 7 6 L 25 6 L 25 9.8398438 L 27 8.1699219 L 27 5 C 27 4.45 26.55 4 26 4 L 6 4 z M 29.40625 9.0019531 C 29.242375 8.9888281 29.073953 9.0406562 28.939453 9.1601562 L 15.511719 20.367188 C 14.968719 20.279187 14.392312 20.423125 13.945312 20.828125 C 13.143313 21.554125 12 25 12 25 C 12 25 15.680422 24.566844 16.482422 23.839844 C 16.931422 23.433844 17.147766 22.859109 17.134766 22.287109 L 29.775391 10.173828 C 30.045391 9.9338281 30.076703 9.5114219 29.845703 9.2324219 C 29.729703 9.0924219 29.570125 9.0150781 29.40625 9.0019531 z"></path>
</svg>
