<?xml version="1.0" encoding="UTF-8"?>
<svg xmlns="http://www.w3.org/2000/svg" xmlns:xlink="http://www.w3.org/1999/xlink" viewBox="0 0 32 32" version="1.1">
<g>
<path d="M 12 4 L 12 6 L 13 6 L 13 11.625 L 17 13.625 L 17 15 L 7 15 L 7 21 L 8 21 C 8.367188 21 8.449219 21.050781 8.46875 21.0625 C 8.46875 21.089844 8.480469 21.144531 8.46875 21.25 C 8.421875 21.742188 8 22.648438 8 23.71875 C 8 25.175781 8.5 27.21875 8.5 27.21875 L 8.6875 28 L 9.46875 28 C 10.085938 28 11.046875 28.03125 11.96875 27.78125 C 12.429688 27.65625 12.902344 27.449219 13.3125 27.0625 C 13.722656 26.675781 14 26.074219 14 25.4375 C 14 24.503906 13.585938 23.800781 13.34375 23.4375 C 13.101563 23.074219 13 23.011719 13 22.46875 C 13 21.714844 13.265625 21.269531 13.46875 21 L 15.0625 21 C 15.433594 23.878906 17.28125 25.71875 17.28125 25.71875 L 18.71875 24.28125 C 18.71875 24.28125 17.449219 22.984375 17.09375 21 L 25 21 L 25 22 L 27 22 L 27 14 L 25 14 L 25 15 L 19 15 L 19 13.625 L 23 11.625 L 23 6 L 24 6 L 24 4 Z M 15 6 L 21 6 L 21 10.375 L 18 11.875 L 15 10.375 Z M 4 16 L 4 20 L 6 20 L 6 16 Z M 9 17 L 25 17 L 25 19 L 12.59375 19 L 12.3125 19.28125 C 12.3125 19.28125 11 20.507813 11 22.46875 C 11 23.449219 11.398438 24.175781 11.65625 24.5625 C 11.914063 24.949219 12 24.988281 12 25.4375 C 12 25.585938 11.996094 25.570313 11.9375 25.625 C 11.878906 25.679688 11.703125 25.773438 11.4375 25.84375 C 11.136719 25.925781 10.710938 25.917969 10.3125 25.9375 C 10.183594 25.269531 10 24.386719 10 23.71875 C 10 23.40625 10.371094 22.457031 10.46875 21.4375 C 10.515625 20.925781 10.476563 20.25 10 19.71875 C 9.734375 19.421875 9.386719 19.234375 9 19.125 Z "></path>
</g>
</svg>
