<?xml version="1.0" encoding="UTF-8"?>
<svg xmlns="http://www.w3.org/2000/svg" xmlns:xlink="http://www.w3.org/1999/xlink" viewBox="0 0 32 32" version="1.1">
<g>
<path d="M 4 4 L 4 9 L 6 9 L 6 6 L 9 6 L 9 4 Z M 23 4 L 23 6 L 26 6 L 26 9 L 28 9 L 28 4 Z M 14 6 L 14 16 L 16 16 L 16 6 Z M 18 7 L 18 16 L 20 16 L 20 7 Z M 10 9 L 10 18 L 9.65625 18 L 7.8125 15.40625 L 6.1875 16.59375 L 7.1875 18 L 4 18 L 4 20 L 28 20 L 28 18 L 24 18 L 24 10 L 22 10 L 22 18 L 12 18 L 12 9 Z M 10.0625 22 L 11.1875 23.59375 L 11.25 23.53125 C 12.425781 25.027344 14.324219 26 16.53125 26 L 17.875 26 C 20.699219 26 22.902344 24.402344 23.6875 22 L 21.5 22 C 20.828125 23.226563 19.53125 24 17.875 24 L 16.53125 24 C 14.988281 24 13.417969 23.269531 12.59375 22 Z M 4 23 L 4 28 L 9 28 L 9 26 L 6 26 L 6 23 Z M 26 23 L 26 26 L 23 26 L 23 28 L 28 28 L 28 23 Z "></path>
</g>
</svg>
