<?xml version="1.0" encoding="UTF-8"?>
<svg xmlns="http://www.w3.org/2000/svg" xmlns:xlink="http://www.w3.org/1999/xlink" viewBox="0 0 32 32" version="1.1">
<g>
<path d="M 16 4.9375 C 13.871094 4.9375 11.878906 5.546875 10.15625 6.5625 C 9.996094 6.242188 9.777344 5.933594 9.53125 5.6875 C 8.476563 4.589844 7.054688 4.933594 6 6.03125 C 4.945313 7.128906 4.601563 8.496094 5.65625 9.59375 C 5.851563 9.789063 6.0625 9.953125 6.3125 10.09375 C 4.863281 12.109375 4 14.515625 4 16.96875 C 4 20.972656 6.507813 23.757813 10.03125 25 C 10.710938 25.238281 11.390625 25.761719 12.09375 26.375 C 12.105469 26.386719 12.113281 26.394531 12.125 26.40625 C 13.160156 27.375 14.539063 28 16.03125 28 C 17.5625 28 18.917969 27.320313 19.9375 26.40625 C 20.652344 25.777344 21.34375 25.242188 22.03125 25 C 22.042969 25 22.050781 25 22.0625 25 C 25.496094 23.757813 27.96875 20.972656 27.96875 16.96875 C 27.96875 14.515625 27.097656 12.109375 25.65625 10.09375 C 25.90625 9.953125 26.148438 9.789063 26.34375 9.59375 C 27.441406 8.539063 27.054688 7.085938 26 6.03125 C 24.945313 4.980469 23.492188 4.632813 22.4375 5.6875 C 22.191406 5.933594 22.003906 6.242188 21.84375 6.5625 C 20.125 5.546875 18.132813 4.9375 16 4.9375 Z M 16 6.9375 C 21.488281 6.9375 25.96875 12.019531 25.96875 16.96875 C 25.96875 20.199219 24.257813 22.082031 21.375 23.125 C 20.234375 23.523438 19.371094 24.25 18.625 24.90625 C 17.90625 25.550781 16.972656 26 16.03125 26 C 15.066406 26 14.167969 25.601563 13.46875 24.9375 C 13.457031 24.925781 13.449219 24.917969 13.4375 24.90625 C 12.691406 24.25 11.828125 23.523438 10.6875 23.125 C 7.710938 22.078125 6 20.195313 6 16.96875 C 6 12.019531 10.511719 6.9375 16 6.9375 Z M 12.4375 14 C 11.609375 14.023438 10.710938 14.289063 10.0625 14.9375 C 8.765625 16.234375 8.609375 18.183594 9.65625 19.28125 C 10.753906 20.378906 12.703125 20.171875 14 18.875 C 15.296875 17.578125 15.152344 15.261719 14.40625 14.5625 C 14.03125 14.214844 13.265625 13.976563 12.4375 14 Z M 19.53125 14 C 18.703125 13.976563 17.9375 14.214844 17.5625 14.5625 C 16.816406 15.261719 16.671875 17.578125 17.96875 18.875 C 19.265625 20.171875 21.214844 20.378906 22.3125 19.28125 C 23.359375 18.183594 23.203125 16.234375 21.90625 14.9375 C 21.257813 14.289063 20.359375 14.023438 19.53125 14 Z M 12.96875 15 C 13.519531 15 13.96875 15.449219 13.96875 16 C 13.96875 16.550781 13.519531 17 12.96875 17 C 12.417969 17 11.96875 16.550781 11.96875 16 C 11.96875 15.449219 12.417969 15 12.96875 15 Z M 19 15 C 19.550781 15 20 15.449219 20 16 C 20 16.550781 19.550781 17 19 17 C 18.449219 17 18 16.550781 18 16 C 18 15.449219 18.449219 15 19 15 Z M 16 21 C 14.898438 21 14 21.292969 14 21.84375 C 14 22.394531 14.898438 23.34375 16 23.34375 C 17.101563 23.34375 18 22.394531 18 21.84375 C 18 21.34375 17.101563 21 16 21 Z "></path>
</g>
</svg>
