<?xml version="1.0" encoding="UTF-8"?>
<svg xmlns="http://www.w3.org/2000/svg" xmlns:xlink="http://www.w3.org/1999/xlink" viewBox="0 0 32 32" version="1.1">
<g>
<path d="M 2 5.53125 L 2 26.5 L 3.375 25.9375 C 3.375 25.9375 8.066406 24 16 24 C 23.933594 24 28.625 25.9375 28.625 25.9375 L 30 26.5 L 30 5.53125 L 28.625 6.0625 C 28.625 6.0625 23.832031 8 16 8 C 8.167969 8 3.375 6.0625 3.375 6.0625 Z M 4 8.34375 C 4.992188 8.675781 6.957031 9.277344 10 9.65625 L 10 22.34375 C 6.9375 22.722656 4.988281 23.320313 4 23.65625 Z M 28 8.34375 L 28 23.65625 C 27.011719 23.320313 25.0625 22.722656 22 22.34375 L 22 9.65625 C 25.042969 9.277344 27.007813 8.675781 28 8.34375 Z M 12 9.84375 C 13.207031 9.9375 14.519531 10 16 10 C 17.480469 10 18.792969 9.9375 20 9.84375 L 20 22.15625 C 18.792969 22.0625 17.484375 22 16 22 C 14.515625 22 13.207031 22.0625 12 22.15625 Z "></path>
</g>
</svg>
