<?xml version="1.0" encoding="UTF-8"?>
<svg xmlns="http://www.w3.org/2000/svg" xmlns:xlink="http://www.w3.org/1999/xlink" viewBox="0 0 32 32" version="1.1">
<g>
<path d="M 7 4 L 7 21 L 9 21 L 9 6 L 24 6 L 24 25 C 24 25.566406 23.566406 26 23 26 C 22.433594 26 22 25.566406 22 25 L 22 22 L 4 22 L 4 25 C 4 26.644531 5.355469 28 7 28 L 23 28 C 24.644531 28 26 26.644531 26 25 L 26 4 Z M 6 24 L 20 24 L 20 25 C 20 25.351563 20.074219 25.683594 20.1875 26 L 7 26 C 6.433594 26 6 25.566406 6 25 Z "></path>
</g>
</svg>
