<?xml version="1.0" encoding="UTF-8"?>
<svg xmlns="http://www.w3.org/2000/svg" xmlns:xlink="http://www.w3.org/1999/xlink" viewBox="0 0 32 32" version="1.1">
<g>
<path d="M 8.59375 4 L 8.28125 4.28125 L 4.28125 8.28125 L 3.90625 8.6875 L 4.03125 9.25 L 6.03125 17.25 L 7.96875 16.75 L 6.3125 10.0625 C 9.605469 10.359375 13.25 11.738281 16.21875 14 C 18.667969 15.867188 20.640625 18.296875 21.6875 21.21875 L 17.3125 22 L 17.65625 23.96875 L 23.1875 23 L 23.5 22.9375 L 27.71875 18.71875 L 28.09375 18.3125 L 27.96875 17.78125 C 26.980469 13.285156 23.921875 9.84375 20.3125 7.53125 C 16.703125 5.21875 12.535156 4 9 4 Z M 9.375 6.0625 C 12.382813 6.140625 16.089844 7.195313 19.25 9.21875 C 22.378906 11.222656 24.878906 14.109375 25.84375 17.71875 L 23.40625 20.15625 C 22.175781 17.007813 20.027344 14.378906 17.4375 12.40625 C 14.386719 10.082031 10.757813 8.613281 7.28125 8.15625 Z M 13 15 C 11.355469 15 10 16.355469 10 18 C 10 19.644531 11.355469 21 13 21 C 14.644531 21 16 19.644531 16 18 C 16 16.355469 14.644531 15 13 15 Z M 13 17 C 13.5625 17 14 17.4375 14 18 C 14 18.5625 13.5625 19 13 19 C 12.4375 19 12 18.5625 12 18 C 12 17.4375 12.4375 17 13 17 Z M 8.28125 17.9375 L 6.375 18.5 L 7.375 21.90625 L 6.53125 23.15625 C 5.570313 24.605469 5.992188 26.609375 7.46875 27.53125 C 8.867188 28.40625 10.714844 28.011719 11.65625 26.65625 L 12.8125 25 L 16.34375 24.28125 L 15.9375 22.3125 L 12.375 23.03125 L 9.25 21.1875 Z M 8.84375 23.28125 L 10.78125 24.4375 L 10.03125 25.53125 C 9.6875 26.027344 9.042969 26.164063 8.53125 25.84375 C 7.988281 25.503906 7.832031 24.816406 8.1875 24.28125 Z "></path>
</g>
</svg>
