<?xml version="1.0" encoding="UTF-8"?>
<svg xmlns="http://www.w3.org/2000/svg" xmlns:xlink="http://www.w3.org/1999/xlink" viewBox="0 0 32 32" version="1.1">
<g>
<path d="M 16 3 C 14.148438 3 12.59375 4.285156 12.144531 6 L 6 6 L 6 12 L 3 12 L 3 20 L 6 20 L 6 26 L 12.144531 26 C 12.59375 27.714844 14.148438 29 16 29 C 17.851563 29 19.40625 27.714844 19.855469 26 L 26 26 L 26 20 L 29 20 L 29 12 L 26 12 L 26 6 L 19.855469 6 C 19.40625 4.285156 17.851563 3 16 3 Z M 16 5 C 17.117188 5 18 5.882813 18 7 C 18 8.117188 17.117188 9 16 9 C 14.882813 9 14 8.117188 14 7 C 14 5.882813 14.882813 5 16 5 Z M 8 8 L 12.144531 8 C 12.59375 9.714844 14.148438 11 16 11 C 17.851563 11 19.40625 9.714844 19.855469 8 L 24 8 L 24 12 L 21 12 L 21 20 L 24 20 L 24 24 L 19.855469 24 C 19.40625 22.285156 17.851563 21 16 21 C 14.148438 21 12.59375 22.285156 12.144531 24 L 8 24 L 8 20 L 11 20 L 11 12 L 8 12 Z M 5 14 L 9 14 L 9 18 L 5 18 Z M 23 14 L 27 14 L 27 18 L 23 18 Z M 16 23 C 17.117188 23 18 23.882813 18 25 C 18 26.117188 17.117188 27 16 27 C 14.882813 27 14 26.117188 14 25 C 14 23.882813 14.882813 23 16 23 Z "></path>
</g>
</svg>
