<?xml version="1.0" encoding="UTF-8"?>
<svg xmlns="http://www.w3.org/2000/svg" xmlns:xlink="http://www.w3.org/1999/xlink" viewBox="0 0 32 32" version="1.1">
<g>
<path d="M 12 6 C 8.699219 6 6 8.699219 6 12 C 6 13.945313 6.933594 15.683594 8.375 16.78125 C 5.214844 18.179688 3 21.332031 3 25 L 5 25 C 5 21.121094 8.121094 18 12 18 C 14.625 18 16.894531 19.4375 18.09375 21.5625 C 17.40625 22.539063 17 23.722656 17 25 L 19 25 C 19 22.78125 20.78125 21 23 21 C 25.21875 21 27 22.78125 27 25 L 29 25 C 29 22.746094 27.726563 20.773438 25.875 19.75 C 26.566406 19.03125 27 18.066406 27 17 C 27 14.800781 25.199219 13 23 13 C 20.800781 13 19 14.800781 19 17 C 19 18.066406 19.433594 19.03125 20.125 19.75 C 19.921875 19.863281 19.71875 19.992188 19.53125 20.125 C 18.582031 18.660156 17.234375 17.496094 15.625 16.78125 C 17.066406 15.683594 18 13.945313 18 12 C 18 8.699219 15.300781 6 12 6 Z M 12 8 C 14.222656 8 16 9.777344 16 12 C 16 14.222656 14.222656 16 12 16 C 9.777344 16 8 14.222656 8 12 C 8 9.777344 9.777344 8 12 8 Z M 23 15 C 24.117188 15 25 15.882813 25 17 C 25 18.117188 24.117188 19 23 19 C 21.882813 19 21 18.117188 21 17 C 21 15.882813 21.882813 15 23 15 Z "></path>
</g>
</svg>
