<?xml version="1.0" encoding="UTF-8"?>
<svg xmlns="http://www.w3.org/2000/svg" xmlns:xlink="http://www.w3.org/1999/xlink" viewBox="0 0 32 32" version="1.1">
<g>
<path d="M 8.96875 4 L 10.28125 5.625 C 10.28125 5.625 10.882813 6.378906 11.53125 7.40625 C 12.179688 8.433594 12.832031 9.773438 12.9375 10.625 L 13.0625 11.59375 L 14.03125 11.46875 C 14.03125 11.46875 14.226563 11.425781 14.5 11.34375 C 14.5625 13.019531 14.34375 14.25 14.34375 14.25 L 14.09375 15.40625 L 15.28125 15.4375 C 15.28125 15.4375 15.726563 15.433594 16.3125 15.375 C 15.878906 17.199219 15.34375 18.53125 15.34375 18.53125 L 14.84375 19.65625 L 16.0625 19.90625 C 16.0625 19.90625 16.367188 19.957031 16.8125 20 C 16.191406 21.601563 15.53125 22.8125 15.53125 22.8125 L 14.9375 23.8125 L 16 24.25 C 16 24.25 18.195313 25.15625 21 24.9375 L 21 28 L 23 28 L 23 24.59375 C 23.011719 24.589844 23.019531 24.597656 23.03125 24.59375 C 26.789063 23.515625 28 20.34375 28 20.34375 L 28.125 19.96875 L 27.96875 19.59375 C 27.96875 19.59375 27.582031 18.730469 27.03125 17.75 C 26.636719 17.046875 26.1875 16.3125 25.625 15.6875 C 25.976563 15.160156 26.253906 14.652344 26.40625 14.1875 L 26.5625 13.65625 L 26.21875 13.21875 C 26.039063 13.003906 24.832031 11.566406 22.71875 10.28125 C 22.929688 9.699219 23 9.3125 23 9.3125 L 23.09375 8.71875 L 22.65625 8.34375 C 22.65625 8.34375 20.804688 6.785156 18.0625 6.15625 C 18.078125 5.464844 18.0625 4.90625 18.0625 4.90625 L 17.96875 4 Z M 12.96875 6 L 16.0625 6 C 16.0625 6.21875 16.082031 6.226563 16.0625 6.5 C 16.011719 7.265625 15.773438 8.109375 15.625 8.28125 L 15.59375 8.28125 L 15.59375 8.3125 C 15.207031 8.785156 14.867188 8.984375 14.5625 9.15625 C 14.226563 8.136719 13.734375 7.160156 13.21875 6.34375 C 13.09375 6.140625 13.089844 6.179688 12.96875 6 Z M 17.84375 8.15625 C 19.332031 8.515625 20.304688 9.171875 20.8125 9.53125 C 20.621094 10.175781 20.183594 11.398438 18.75 12.46875 C 18.074219 12.972656 17.207031 13.195313 16.46875 13.3125 C 16.539063 12.523438 16.558594 11.476563 16.4375 10.25 C 16.667969 10.054688 16.90625 9.855469 17.125 9.59375 C 17.136719 9.582031 17.144531 9.574219 17.15625 9.5625 C 17.519531 9.132813 17.71875 8.640625 17.84375 8.15625 Z M 21.8125 12.09375 C 23.050781 12.847656 23.789063 13.519531 24.21875 14 C 24.015625 14.414063 23.777344 14.882813 23.28125 15.46875 C 22.628906 16.238281 21.777344 17.011719 20.84375 17.46875 C 19.714844 18.023438 18.484375 18.046875 17.5625 18 C 17.828125 17.296875 18.175781 16.507813 18.5 14.84375 C 18.992188 14.648438 19.503906 14.410156 19.96875 14.0625 C 20.777344 13.460938 21.371094 12.765625 21.8125 12.09375 Z M 24.34375 17.3125 C 24.652344 17.71875 25 18.21875 25.28125 18.71875 C 25.652344 19.378906 25.8125 19.703125 25.9375 19.96875 C 25.75 20.410156 25.027344 21.929688 22.5 22.65625 C 20.375 23.265625 18.722656 22.929688 17.75 22.65625 C 18.074219 22.046875 18.496094 21.351563 18.96875 20 C 19.839844 19.910156 20.800781 19.699219 21.71875 19.25 C 22.742188 18.746094 23.628906 18.054688 24.34375 17.3125 Z M 4 21 L 4 23 L 14 23 L 14 21 Z M 5 24 L 4 28 L 6.0625 28 L 7.0625 24 Z M 11 24 L 12 28 L 14.0625 28 L 13.0625 24 Z "></path>
</g>
</svg>
