<?xml version="1.0" encoding="UTF-8"?>
<svg xmlns="http://www.w3.org/2000/svg" xmlns:xlink="http://www.w3.org/1999/xlink" viewBox="0 0 32 32" version="1.1">
<g>
<path d="M 16 6 C 10.472656 6 6 10.472656 6 16 L 6 18.03125 L 5.71875 18.375 L 3.21875 21.375 L 3 21.625 L 3 26 L 29 26 L 29 21.625 L 28.78125 21.375 L 26.28125 18.375 L 26 18.03125 L 26 16 C 26 10.472656 21.527344 6 16 6 Z M 16 8 C 20.457031 8 24 11.542969 24 16 L 24 18 L 22 18 L 22 16 C 22 12.683594 19.316406 10 16 10 C 12.683594 10 10 12.683594 10 16 L 10 18 L 8 18 L 8 16 C 8 11.542969 11.542969 8 16 8 Z M 16 12 C 18.257813 12 20 13.742188 20 16 L 20 18 L 18 18 L 18 16 C 18 14.867188 17.132813 14 16 14 C 14.867188 14 14 14.867188 14 16 L 14 18 L 12 18 L 12 16 C 12 13.742188 13.742188 12 16 12 Z M 6.96875 20 L 25.03125 20 L 27 22.375 L 27 24 L 5 24 L 5 22.375 Z "></path>
</g>
</svg>
