<?xml version="1.0" encoding="UTF-8"?>
<svg xmlns="http://www.w3.org/2000/svg" xmlns:xlink="http://www.w3.org/1999/xlink" viewBox="0 0 32 32" version="1.1">
<g>
<path d="M 18.65625 4 C 18.160156 3.980469 17.703125 4.078125 17.34375 4.21875 C 16.378906 4.589844 16.066406 5 15 5 L 15 7 C 16.621094 7 17.574219 6.28125 18.0625 6.09375 C 18.304688 6 18.414063 5.964844 18.75 6.03125 C 19.085938 6.097656 19.652344 6.324219 20.46875 6.84375 L 21.53125 5.15625 C 20.59375 4.558594 19.855469 4.203125 19.15625 4.0625 C 18.980469 4.027344 18.820313 4.007813 18.65625 4 Z M 16 8 C 13.59375 8 11.5625 9.726563 11.09375 12 L 10 12 L 10 14 L 11 14 L 11 16 L 5 16 L 5 28 L 27 28 L 27 16 L 21 16 L 21 14 L 22 14 L 22 12 L 20.90625 12 C 20.4375 9.726563 18.40625 8 16 8 Z M 16 10 C 17.320313 10 18.4375 10.828125 18.84375 12 L 13.15625 12 C 13.5625 10.828125 14.679688 10 16 10 Z M 13 14 L 19 14 L 19 16 L 17 16 L 17 15 L 15 15 L 15 16 L 13 16 Z M 7 18 L 25 18 L 25 26 L 23 26 L 23 24 L 21 24 L 21 26 L 19 26 L 19 24 L 17 24 L 17 26 L 15 26 L 15 24 L 13 24 L 13 26 L 11 26 L 11 24 L 9 24 L 9 26 L 7 26 Z M 9 20 L 9 22 L 11 22 L 11 20 Z M 13 20 L 13 22 L 15 22 L 15 20 Z M 17 20 L 17 22 L 19 22 L 19 20 Z M 21 20 L 21 22 L 23 22 L 23 20 Z "></path>
</g>
</svg>
