<?xml version="1.0" encoding="UTF-8"?>
<svg xmlns="http://www.w3.org/2000/svg" xmlns:xlink="http://www.w3.org/1999/xlink" viewBox="0 0 32 32" version="1.1">
<g>
<path d="M 15 3 C 8.550781 3 3 7.484375 3 14 C 3 19.765625 8.027344 25 14 25 L 14 27.046875 C 12.199219 27.28125 11.1875 28.664063 11.1875 28.664063 L 12.8125 29.835938 C 12.8125 29.835938 13.425781 29 14.5 29 C 15.574219 29 16.1875 29.835938 16.1875 29.835938 L 17.8125 28.664063 C 17.8125 28.664063 17.167969 27.78125 16 27.300781 L 16 24.9375 C 17.007813 24.875 17.972656 24.746094 18.894531 24.503906 L 21.101563 27.375 L 21.273438 27.476563 C 23.078125 28.519531 25.371094 27.921875 26.5 26.199219 C 27.605469 25.796875 28.570313 25 28.953125 23.796875 L 29.269531 22.792969 L 22.3125 20.96875 C 21.9375 20.636719 14.503906 14.046875 14.476563 14.015625 L 14.46875 14.011719 L 14.460938 14 C 14.40625 13.949219 14.363281 13.890625 14.3125 13.835938 C 14.851563 13.949219 15.421875 14 16 14 C 17.101563 14 18.144531 13.671875 19 13.0625 L 19 16 C 20.777344 15.785156 22.234375 14.707031 22.773438 13.261719 C 22.78125 13.25 22.785156 13.238281 22.785156 13.226563 C 22.90625 12.808594 22.988281 12.375 23 11.933594 C 22.984375 11.003906 22.601563 10.164063 21.984375 9.492188 C 21.894531 7.242188 21.234375 5.558594 20.015625 4.492188 C 18.699219 3.34375 16.929688 3 15 3 Z M 15 5 C 16.6875 5 17.914063 5.316406 18.699219 6 C 19.222656 6.453125 19.621094 7.128906 19.832031 8.171875 C 19.566406 8.09375 19.289063 8.035156 19 8 L 19 9 C 19 10.019531 18.660156 10.722656 18.140625 11.21875 C 17.621094 11.710938 16.878906 12 16 12 C 15.015625 12 14.199219 11.804688 13.722656 11.492188 C 13.246094 11.179688 13.003906 10.835938 13.003906 10 L 11 10 L 11 11 C 11 12.765625 11.886719 14.304688 13.074219 15.441406 C 13.074219 15.441406 13.078125 15.445313 13.078125 15.449219 C 13.132813 15.496094 18.347656 20.125 20.027344 21.613281 C 19.457031 21.878906 18.828125 22 18 22 C 14.894531 22 12 19.109375 12 16 L 10 16 C 10 18.941406 11.738281 21.605469 14.214844 22.992188 C 14.136719 22.992188 14.074219 23 14 23 C 9.222656 23 5 18.570313 5 14 C 5 8.601563 9.449219 5 15 5 Z M 17 7 C 16.449219 7 16 7.449219 16 8 C 16 8.550781 16.449219 9 17 9 C 17.554688 9 18 8.550781 18 8 C 18 7.449219 17.554688 7 17 7 Z M 22.074219 22.972656 L 26.371094 24.097656 C 26.140625 24.269531 25.890625 24.417969 25.609375 24.480469 L 25.179688 24.574219 L 24.910156 25.035156 L 24.90625 25.035156 C 24.394531 25.925781 23.285156 26.210938 22.378906 25.757813 L 20.84375 23.761719 C 21.269531 23.542969 21.675781 23.277344 22.074219 22.972656 Z "></path>
</g>
</svg>
