<?xml version="1.0" encoding="UTF-8"?>
<svg xmlns="http://www.w3.org/2000/svg" xmlns:xlink="http://www.w3.org/1999/xlink" viewBox="0 0 32 32" version="1.1">
<g>
<path d="M 16 3 C 14.742188 3 13.859375 3.894531 13.417969 5 L 6 5 L 6 28 L 26 28 L 26 5 L 18.582031 5 C 18.140625 3.894531 17.257813 3 16 3 Z M 16 5 C 16.566406 5 17 5.433594 17 6 L 17 7 L 20 7 L 20 9 L 12 9 L 12 7 L 15 7 L 15 6 C 15 5.433594 15.433594 5 16 5 Z M 8 7 L 10 7 L 10 11 L 22 11 L 22 7 L 24 7 L 24 26 L 8 26 Z M 16 13 C 13.800781 13 12 14.800781 12 17 C 12 18.117188 12.46875 19.128906 13.214844 19.855469 C 11.878906 20.757813 11 22.28125 11 24 L 13 24 C 13 22.332031 14.332031 21 16 21 C 17.667969 21 19 22.332031 19 24 L 21 24 C 21 22.28125 20.121094 20.757813 18.785156 19.855469 C 19.53125 19.128906 20 18.117188 20 17 C 20 14.800781 18.199219 13 16 13 Z M 16 15 C 17.117188 15 18 15.882813 18 17 C 18 18.117188 17.117188 19 16 19 C 14.882813 19 14 18.117188 14 17 C 14 15.882813 14.882813 15 16 15 Z "></path>
</g>
</svg>
