<?xml version="1.0" encoding="UTF-8"?>
<svg xmlns="http://www.w3.org/2000/svg" xmlns:xlink="http://www.w3.org/1999/xlink" viewBox="0 0 32 32" version="1.1">
<g>
<path d="M 16.03125 3 C 12.191406 3 9.03125 6.066406 9.03125 9.84375 C 9.03125 11.734375 9.777344 13.886719 10.96875 15.6875 C 11.960938 17.1875 13.328125 18.484375 15 18.875 L 15 23.59375 C 14.644531 22.84375 14.273438 22.097656 14 21.53125 C 13.894531 21.308594 13.832031 21.144531 13.75 20.96875 C 13.835938 20.894531 13.917969 20.828125 14 20.75 L 14 19.5625 C 13.617188 19.414063 13.230469 19.257813 12.875 19.03125 C 12.582031 19.40625 12.242188 19.714844 11.78125 19.875 C 9.664063 20.625 6.1875 17.6875 5.25 15.03125 C 4.421875 12.675781 5.675781 10.078125 8.03125 9.25 C 8.046875 9.242188 8.046875 9.253906 8.0625 9.25 C 8.121094 8.496094 8.300781 7.773438 8.5625 7.09375 C 8.15625 7.15625 7.765625 7.238281 7.375 7.375 C 5.730469 7.953125 4.410156 9.144531 3.65625 10.71875 C 2.902344 12.289063 2.796875 14.042969 3.375 15.6875 C 4.394531 18.578125 7.808594 22 11.03125 22 C 11.347656 22 11.660156 21.945313 11.96875 21.875 C 12.054688 22.042969 12.117188 22.199219 12.21875 22.40625 C 12.554688 23.097656 12.984375 23.992188 13.40625 24.90625 C 13.828125 25.820313 14.226563 26.753906 14.53125 27.53125 C 14.835938 28.308594 15 29.050781 15 29 L 17 29.03125 C 17.058594 28.417969 18.195313 25.59375 20.375 20.65625 C 20.542969 20.277344 20.554688 20.199219 20.65625 19.96875 C 20.777344 19.980469 20.910156 20 21.03125 20 C 24.261719 20 27.660156 16.535156 28.65625 13.625 C 29.222656 11.976563 29.109375 10.222656 28.34375 8.65625 C 27.578125 7.09375 26.242188 5.910156 24.59375 5.34375 C 23.859375 5.09375 23.105469 4.980469 22.34375 5 C 22.859375 5.640625 23.242188 6.378906 23.53125 7.15625 C 23.664063 7.1875 23.808594 7.207031 23.9375 7.25 C 26.296875 8.058594 27.558594 10.640625 26.75 13 C 25.867188 15.570313 22.664063 18.390625 20.53125 17.9375 C 20.203125 18.257813 19.863281 18.554688 19.5 18.8125 C 19.28125 18.96875 19.042969 19.121094 18.8125 19.25 C 18.773438 19.273438 18.726563 19.292969 18.6875 19.3125 C 18.707031 19.324219 18.730469 19.332031 18.75 19.34375 C 18.683594 19.496094 18.617188 19.644531 18.53125 19.84375 C 17.925781 21.214844 17.433594 22.359375 17 23.375 L 17 18.875 C 18.707031 18.5 20.121094 17.203125 21.125 15.6875 C 22.316406 13.886719 23.03125 11.734375 23.03125 9.84375 C 23.03125 6.066406 19.871094 3 16.03125 3 Z M 16.03125 5 C 18.820313 5 21.03125 7.179688 21.03125 9.84375 C 21.03125 11.175781 20.417969 13.085938 19.4375 14.5625 C 18.457031 16.039063 17.191406 17 16.03125 17 C 14.871094 17 13.605469 16.039063 12.625 14.5625 C 11.644531 13.085938 11.03125 11.175781 11.03125 9.84375 C 11.03125 7.175781 13.242188 5 16.03125 5 Z "></path>
</g>
</svg>
