<?xml version="1.0" encoding="UTF-8"?>
<svg xmlns="http://www.w3.org/2000/svg" xmlns:xlink="http://www.w3.org/1999/xlink" viewBox="0 0 32 32" version="1.1">
<g>
<path d="M 16 4 C 14.90625 4 14 4.90625 14 6 C 14 6.578125 14.253906 7.101563 14.65625 7.46875 L 8.71875 19.96875 C 8.652344 20.117188 8.582031 20.261719 8.53125 20.40625 L 5.59375 26.5625 L 4.90625 28 L 27.09375 28 L 26.40625 26.5625 L 17.34375 7.46875 C 17.746094 7.101563 18 6.578125 18 6 C 18 4.90625 17.09375 4 16 4 Z M 16 9.34375 L 18.28125 14.125 C 17.863281 13.910156 17.4375 13.710938 17.0625 13.53125 C 16.132813 13.089844 15.394531 12.675781 15.09375 12.375 C 14.941406 12.222656 14.890625 12.144531 14.875 12.0625 C 14.859375 11.980469 14.867188 11.820313 15 11.53125 L 14.96875 11.53125 Z M 13.8125 13.9375 C 14.496094 14.546875 15.355469 14.902344 16.21875 15.3125 C 18.085938 16.203125 19.9375 17.140625 20.5625 19.03125 L 20.59375 19.03125 L 21.59375 21.15625 C 20.160156 20.394531 18.578125 19.773438 17.125 19.1875 C 15.570313 18.558594 14.152344 17.941406 13.375 17.375 C 12.984375 17.09375 12.785156 16.84375 12.71875 16.6875 C 12.652344 16.53125 12.628906 16.484375 12.75 16.21875 Z M 11.625 18.53125 C 11.808594 18.703125 12.011719 18.851563 12.21875 19 C 13.328125 19.804688 14.804688 20.394531 16.375 21.03125 C 17.945313 21.667969 19.597656 22.316406 20.9375 23.0625 C 22.277344 23.808594 23.242188 24.660156 23.625 25.5 L 23.65625 25.46875 L 23.90625 26 L 20 26 C 17.546875 23.992188 14.652344 23.25 12.65625 22.625 C 11.582031 22.289063 10.789063 21.960938 10.53125 21.71875 C 10.402344 21.597656 10.386719 21.5625 10.375 21.46875 C 10.367188 21.421875 10.355469 21.332031 10.375 21.21875 C 10.382813 21.171875 10.417969 21.09375 10.4375 21.03125 Z M 9.34375 23.34375 C 10.089844 23.949219 11.027344 24.238281 12.0625 24.5625 C 13.339844 24.964844 14.789063 25.367188 16.1875 26 L 8.09375 26 Z "></path>
</g>
</svg>
