<?xml version="1.0" encoding="UTF-8"?>
<svg xmlns="http://www.w3.org/2000/svg" xmlns:xlink="http://www.w3.org/1999/xlink" viewBox="0 0 32 32" version="1.1">
<g>
<path d="M 16 3 C 12.144531 3 9 6.144531 9 10 L 9 13 L 6 13 L 6 29 L 26 29 L 26 13 L 23 13 L 23 10 C 23 6.144531 19.855469 3 16 3 Z M 16 5 C 18.773438 5 21 7.226563 21 10 L 21 13 L 11 13 L 11 10 C 11 7.226563 13.226563 5 16 5 Z M 8 15 L 24 15 L 24 27 L 8 27 Z M 12 20 C 11.449219 20 11 20.449219 11 21 C 11 21.550781 11.449219 22 12 22 C 12.550781 22 13 21.550781 13 21 C 13 20.449219 12.550781 20 12 20 Z M 16 20 C 15.449219 20 15 20.449219 15 21 C 15 21.550781 15.449219 22 16 22 C 16.550781 22 17 21.550781 17 21 C 17 20.449219 16.550781 20 16 20 Z M 20 20 C 19.449219 20 19 20.449219 19 21 C 19 21.550781 19.449219 22 20 22 C 20.550781 22 21 21.550781 21 21 C 21 20.449219 20.550781 20 20 20 Z "></path>
</g>
</svg>
