<?xml version="1.0" encoding="UTF-8"?>
<svg xmlns="http://www.w3.org/2000/svg" xmlns:xlink="http://www.w3.org/1999/xlink" viewBox="0 0 32 32" version="1.1">
<g>
<path d="M 3 8 L 3 24 L 16 24 C 16 28.40625 19.59375 32 24 32 C 28.40625 32 32 28.40625 32 24 C 32 21.480469 30.828125 19.25 29 17.78125 L 29 8 Z M 5 10 L 27 10 L 27 16.59375 C 26.070313 16.210938 25.066406 16 24 16 C 24 14.894531 23.105469 14 22 14 C 20.894531 14 20 14.894531 20 16 C 20 16.339844 20.101563 16.65625 20.25 16.9375 C 18.300781 17.976563 16.851563 19.816406 16.28125 22 L 5 22 Z M 10 14 C 8.894531 14 8 14.894531 8 16 C 8 17.105469 8.894531 18 10 18 C 11.105469 18 12 17.105469 12 16 C 12 14.894531 11.105469 14 10 14 Z M 16 14 C 14.894531 14 14 14.894531 14 16 C 14 17.105469 14.894531 18 16 18 C 17.105469 18 18 17.105469 18 16 C 18 14.894531 17.105469 14 16 14 Z M 24 18 C 27.324219 18 30 20.675781 30 24 C 30 27.324219 27.324219 30 24 30 C 20.675781 30 18 27.324219 18 24 C 18 20.675781 20.675781 18 24 18 Z M 27.28125 21.28125 L 24 24.5625 L 21.71875 22.28125 L 20.28125 23.71875 L 23.28125 26.71875 L 24 27.40625 L 24.71875 26.71875 L 28.71875 22.71875 Z "></path>
</g>
</svg>
