<?xml version="1.0" encoding="UTF-8"?>
<svg xmlns="http://www.w3.org/2000/svg" xmlns:xlink="http://www.w3.org/1999/xlink" viewBox="0 0 32 32" version="1.1">
<g>
<path d="M 16 5 C 12.699219 5 10 7.699219 10 11 C 10 12.945313 10.933594 14.683594 12.375 15.78125 C 11.746094 16.058594 11.167969 16.40625 10.625 16.8125 L 7 14.21875 L 7 16.65625 L 9.125 18.1875 C 7.796875 19.757813 7 21.789063 7 24 L 7 27 L 9 27 L 9 24 C 9 22.214844 9.65625 20.578125 10.75 19.34375 L 21.40625 27 L 25 27 L 25 24 C 25 20.332031 22.785156 17.179688 19.625 15.78125 C 21.066406 14.683594 22 12.945313 22 11 C 22 7.699219 19.300781 5 16 5 Z M 16 7 C 18.222656 7 20 8.777344 20 11 C 20 13.222656 18.222656 15 16 15 C 13.777344 15 12 13.222656 12 11 C 12 8.777344 13.777344 7 16 7 Z M 16 17 C 19.878906 17 23 20.121094 23 24 L 23 25.6875 L 12.34375 18.03125 C 13.410156 17.378906 14.65625 17 16 17 Z "></path>
</g>
</svg>
