<?xml version="1.0" encoding="UTF-8"?>
<svg xmlns="http://www.w3.org/2000/svg" xmlns:xlink="http://www.w3.org/1999/xlink" viewBox="0 0 32 32" version="1.1">
<g>
<path d="M 15 3 C 13.742188 3 12.847656 3.890625 12.40625 5 L 5 5 L 5 28 L 13 28 L 13 30 L 27 30 L 27 14 L 25 14 L 25 5 L 17.59375 5 C 17.152344 3.890625 16.257813 3 15 3 Z M 15 5 C 15.554688 5 16 5.445313 16 6 L 16 7 L 19 7 L 19 9 L 11 9 L 11 7 L 14 7 L 14 6 C 14 5.445313 14.445313 5 15 5 Z M 7 7 L 9 7 L 9 11 L 21 11 L 21 7 L 23 7 L 23 14 L 13 14 L 13 26 L 7 26 Z M 15 16 L 25 16 L 25 28 L 15 28 Z M 20 18.40625 L 19 20.6875 L 16.5 20.90625 L 18.40625 22.59375 L 17.8125 25 L 20 23.8125 L 22.1875 25 L 21.59375 22.59375 L 23.5 20.90625 L 21 20.6875 Z "></path>
</g>
</svg>
