<?xml version="1.0"?>
<svg xmlns="http://www.w3.org/2000/svg" viewBox="0 0 32 32">
    <path d="M 16 6 C 13.926452 6 11.963343 6.4651252 10.191406 7.2773438 L 10.183594 7.2558594 C 10.183589 7.2558613 10.149101 7.2937093 10.144531 7.2988281 C 5.3442249 9.5207598 2 14.371483 2 20 L 2 26 L 16 26 L 30 26 L 30 25 L 30 20 C 30 12.27961 23.72039 6 16 6 z M 16.892578 8.0449219 C 18.276246 8.1465241 19.594187 8.4745488 20.806641 9.0039062 C 20.693554 9.1399764 20.553084 9.2924245 20.34375 9.4550781 C 19.776744 9.895645 18.884834 10.323712 17.25 10.080078 L 17.25 10.085938 C 16.874159 10.03872 16.492901 10.009933 16.105469 10.005859 C 16.466185 9.4535761 16.748239 8.7980596 16.892578 8.0449219 z M 14.832031 8.0585938 C 14.249285 9.8834862 12.3125 10.705078 12.3125 10.705078 L 12.316406 10.712891 C 12.193024 10.762062 12.070145 10.811341 11.949219 10.865234 C 11.999688 10.51815 12.018649 10.18746 12.005859 9.8847656 C 11.987156 9.442057 11.910162 9.0808016 11.822266 8.7597656 C 12.775628 8.406276 13.780957 8.1596866 14.832031 8.0585938 z M 9.9648438 9.6347656 C 9.9814118 9.7434251 10.002536 9.8438774 10.007812 9.96875 C 10.042613 10.792368 9.827806 11.970991 8.4238281 13.474609 L 8.4335938 13.484375 C 8.2600128 13.685611 8.096829 13.894704 7.9394531 14.109375 C 7.7482785 13.50826 7.4958126 13.004781 7.2128906 12.599609 C 7.1091275 12.451011 7.0010579 12.315665 6.890625 12.191406 C 7.7617526 11.17551 8.8012817 10.312553 9.9648438 9.6347656 z M 22.580078 9.9648438 C 23.80553 10.768739 24.867796 11.792486 25.724609 12.978516 C 25.716471 12.979534 25.711346 12.981432 25.703125 12.982422 C 24.854471 13.084647 23.658059 13.010202 22.191406 12.162109 L 22.191406 12.164062 C 21.828738 11.876801 21.44562 11.616446 21.044922 11.380859 C 21.234532 11.269929 21.413961 11.154689 21.570312 11.033203 C 22.032161 10.674345 22.361402 10.278292 22.580078 9.9648438 z M 16 12 C 20.430666 12 24 15.569334 24 20 L 24 24 L 16 24 L 8 24 L 8 20 C 8 18.028634 8.7081101 16.229693 9.8828125 14.837891 L 9.8847656 14.839844 C 9.8982636 14.825388 9.9085316 14.811327 9.921875 14.796875 C 11.387126 13.085535 13.561133 12 16 12 z M 5.6660156 13.912109 C 6.1157512 14.633506 6.5306371 15.882074 6.1601562 18.214844 L 6.1679688 18.216797 C 6.0891175 18.651815 6.041826 19.096431 6.0214844 19.548828 C 5.8813933 19.422776 5.7402299 19.304684 5.5996094 19.199219 C 5.0701279 18.802108 4.5517255 18.538059 4.1269531 18.353516 C 4.3467899 16.748259 4.8785569 15.248167 5.6660156 13.912109 z M 26.804688 14.796875 C 27.487923 16.216193 27.897814 17.788063 27.972656 19.453125 C 27.846723 19.405244 27.716101 19.351615 27.572266 19.273438 C 26.892666 18.904065 26.037419 18.149363 25.318359 16.371094 L 25.308594 16.375 C 25.118276 15.888598 24.891797 15.420748 24.630859 14.974609 C 25.104661 15.008871 25.554388 15.013415 25.941406 14.966797 C 26.260789 14.928325 26.547323 14.865785 26.804688 14.796875 z M 4 20.542969 C 4.1320896 20.623843 4.2638735 20.698393 4.4003906 20.800781 C 5.229724 21.422781 6 22.333333 6 24 L 4 24 L 4 20.542969 z M 26 20.613281 C 26.206741 20.765984 26.414003 20.918863 26.617188 21.029297 C 27.117743 21.301356 27.594931 21.439418 28 21.521484 L 28 24 L 26 24 L 26 20.613281 z" font-weight="400" font-family="sans-serif" white-space="normal" overflow="visible"></path>
</svg>
