<?xml version="1.0" encoding="UTF-8"?>
<svg xmlns="http://www.w3.org/2000/svg" xmlns:xlink="http://www.w3.org/1999/xlink" viewBox="0 0 32 32" version="1.1">
<g>
<path d="M 24.5625 4.09375 C 23.484375 4.175781 22.480469 4.804688 21.9375 5.78125 L 19.9375 9.34375 C 19.859375 9.347656 19.804688 9.332031 19.71875 9.34375 C 19.144531 9.414063 18.320313 9.738281 17.84375 10.53125 L 17.34375 11.375 L 18.21875 11.90625 L 18.4375 12.03125 L 14.90625 17.5 L 5.5 22.71875 L 5.46875 22.71875 C 4.832031 23.109375 4.347656 23.75 4.15625 24.53125 C 3.964844 25.3125 4.125 26.261719 4.71875 27.03125 C 5.28125 27.757813 6.125 28.113281 6.875 28.125 C 7.613281 28.132813 8.253906 27.867188 8.78125 27.53125 L 8.8125 27.53125 L 19.375 21.25 L 19.5625 21.15625 L 19.6875 20.96875 L 23.6875 15.125 L 23.96875 15.28125 L 24.875 15.8125 L 25.34375 14.875 C 25.90625 13.777344 25.636719 12.902344 25.3125 12.3125 L 27.1875 9.09375 C 27.644531 8.308594 27.867188 7.449219 27.75 6.59375 C 27.632813 5.738281 27.109375 4.871094 26.25 4.4375 C 25.851563 4.238281 25.445313 4.125 25.03125 4.09375 C 24.875 4.082031 24.714844 4.082031 24.5625 4.09375 Z M 24.875 6.125 C 25.035156 6.128906 25.199219 6.144531 25.34375 6.21875 C 25.621094 6.359375 25.738281 6.523438 25.78125 6.84375 C 25.824219 7.164063 25.730469 7.640625 25.46875 8.09375 L 23.3125 11.8125 L 22.96875 12.375 L 21.15625 11.3125 L 21.40625 10.84375 L 23.6875 6.75 C 23.828125 6.496094 24.097656 6.289063 24.40625 6.1875 C 24.5625 6.136719 24.714844 6.121094 24.875 6.125 Z M 20.15625 13.0625 L 21.9375 14.09375 L 18.1875 19.625 L 7.78125 25.8125 L 7.75 25.84375 C 7.5 26.007813 7.144531 26.128906 6.90625 26.125 C 6.667969 26.121094 6.523438 26.058594 6.3125 25.78125 C 6.046875 25.4375 6.039063 25.226563 6.09375 25 C 6.144531 24.789063 6.324219 24.589844 6.5 24.46875 C 6.511719 24.460938 6.519531 24.445313 6.53125 24.4375 L 15.15625 19.65625 L 15.5625 20.21875 L 17.1875 19.09375 L 16.6875 18.375 Z "></path>
</g>
</svg>
