<?xml version="1.0" encoding="UTF-8"?>
<svg xmlns="http://www.w3.org/2000/svg" xmlns:xlink="http://www.w3.org/1999/xlink" viewBox="0 0 32 32" version="1.1">
<g>
<path d="M 4 4 L 4 26 L 13.15625 26 C 13.066406 25.511719 13 25.011719 13 24.5 C 13 24.332031 13.023438 24.164063 13.03125 24 L 9 24 L 9 21 L 13.75 21 C 14.078125 20.273438 14.519531 19.601563 15.03125 19 L 13 19 L 13 16 L 28 16 L 28 4 Z M 6 6 L 11 6 L 11 9 L 6 9 Z M 13 6 L 19 6 L 19 9 L 13 9 Z M 21 6 L 26 6 L 26 9 L 21 9 Z M 6 11 L 7 11 L 7 14 L 6 14 Z M 9 11 L 15 11 L 15 14 L 9 14 Z M 17 11 L 23 11 L 23 14 L 17 14 Z M 25 11 L 26 11 L 26 14 L 25 14 Z M 6 16 L 11 16 L 11 19 L 6 19 Z M 21.5 17 C 20.984375 17 20.488281 17.054688 20 17.15625 C 19.890625 17.179688 19.792969 17.222656 19.6875 17.25 C 19.496094 17.296875 19.308594 17.34375 19.125 17.40625 C 19.085938 17.421875 19.039063 17.421875 19 17.4375 C 16.097656 18.472656 14 21.25 14 24.5 C 14 28.628906 17.371094 32 21.5 32 C 22.003906 32 22.492188 31.941406 22.96875 31.84375 C 23.464844 31.945313 23.972656 32 24.5 32 C 28.628906 32 32 28.628906 32 24.5 C 32 21.636719 30.371094 19.136719 28 17.875 C 27.808594 17.773438 27.605469 17.679688 27.40625 17.59375 C 27.28125 17.539063 27.160156 17.484375 27.03125 17.4375 C 26.929688 17.402344 26.824219 17.375 26.71875 17.34375 C 26.015625 17.125 25.273438 17 24.5 17 C 23.984375 17 23.488281 17.058594 23 17.15625 C 22.511719 17.054688 22.015625 17 21.5 17 Z M 21.5 19 C 24.550781 19 27 21.449219 27 24.5 C 27 27.550781 24.550781 30 21.5 30 C 18.449219 30 16 27.550781 16 24.5 C 16 21.449219 18.449219 19 21.5 19 Z M 27.3125 19.78125 C 28.921875 20.738281 30 22.480469 30 24.5 C 30 26.519531 28.921875 28.261719 27.3125 29.21875 C 28.359375 27.929688 29 26.28125 29 24.5 C 29 22.71875 28.359375 21.070313 27.3125 19.78125 Z M 6 21 L 7 21 L 7 24 L 6 24 Z M 19 21 L 19 23.6875 L 19.625 23.9375 L 21.875 24.8125 C 21.945313 24.898438 22 24.980469 22 25.09375 L 22 25.5 C 22 25.785156 21.785156 26 21.5 26 C 21.214844 26 21 25.785156 21 25.5 L 21 25 L 19 25 L 19 25.5 C 19 26.867188 20.132813 28 21.5 28 C 22.867188 28 24 26.867188 24 25.5 L 24 25.09375 C 24 24.394531 23.703125 23.722656 23.1875 23.25 L 23.0625 23.125 L 22.875 23.0625 L 22.71875 23 L 24 23 L 24 21 Z "></path>
</g>
</svg>
