<?xml version="1.0" encoding="UTF-8"?>
<svg xmlns="http://www.w3.org/2000/svg" xmlns:xlink="http://www.w3.org/1999/xlink" viewBox="0 0 32 32" version="1.1">
<g>
<path d="M 2 8 L 2 24 L 21.53125 24 C 21.007813 23.417969 20.621094 22.734375 20.359375 22 L 5.914063 22 C 5.96875 21.839844 6 21.671875 6 21.5 C 6 20.671875 5.328125 20 4.5 20 C 4.328125 20 4.160156 20.03125 4 20.089844 L 4 11.910156 C 4.160156 11.96875 4.328125 12 4.5 12 C 5.328125 12 6 11.328125 6 10.5 C 6 10.328125 5.96875 10.160156 5.914063 10 L 24.089844 10 C 24.03125 10.160156 24 10.328125 24 10.5 C 24 11.328125 24.671875 12 25.5 12 C 25.671875 12 25.839844 11.96875 26 11.910156 L 26 15 L 28 15 L 28 8 Z M 15 12 C 12.789063 12 11 13.789063 11 16 L 11 17 L 11.203125 17 C 11.652344 18.710938 13.144531 20 15 20 C 16.214844 20 17.273438 19.476563 18 18.648438 L 18 15 L 18.863281 15 C 18.429688 13.257813 16.894531 12 15 12 Z M 15 14 C 16.140625 14 17 14.859375 17 16 C 17 17.140625 16.140625 18 15 18 C 13.808594 18 13 17.191406 13 16 C 13 14.808594 13.808594 14 15 14 Z M 8 14.5 C 7.171875 14.5 6.5 15.171875 6.5 16 C 6.5 16.828125 7.171875 17.5 8 17.5 C 8.828125 17.5 9.5 16.828125 9.5 16 C 9.5 15.171875 8.828125 14.5 8 14.5 Z M 20 16 L 20 18 L 21 18 L 21 20 C 21 21.601563 21.800781 23.101563 23 24 C 21.800781 24.898438 21 26.398438 21 28 L 21 30 L 20 30 L 20 32 L 32 32 L 32 30 L 31 30 L 31 28 C 31 26.398438 30.199219 24.898438 29 24 C 30.199219 23.101563 31 21.601563 31 20 L 31 18 L 32 18 L 32 16 Z M 23 18 L 29 18 L 29 20 C 29 21.699219 27.699219 23 26 23 C 24.300781 23 23 21.699219 23 20 Z M 24 20 C 24 20 24 22 26 22 C 28 22 28 20 28 20 Z M 26 25 C 27.699219 25 29 26.300781 29 28 L 29 30 L 28 30 C 28 28.898438 27.101563 28 26 28 C 24.898438 28 24 28.898438 24 30 L 23 30 L 23 28 C 23 26.300781 24.300781 25 26 25 Z "></path>
</g>
</svg>
