<?xml version="1.0" encoding="UTF-8"?>
<svg xmlns="http://www.w3.org/2000/svg" xmlns:xlink="http://www.w3.org/1999/xlink" viewBox="0 0 32 32" version="1.1">
<g>
<path d="M 9 7 C 5.699219 7 3 9.699219 3 13 C 3 14.984375 3.976563 16.75 5.46875 17.84375 C 2.832031 19.152344 1 21.863281 1 25 L 3 25 C 3 21.675781 5.675781 19 9 19 C 12.324219 19 15 21.675781 15 25 L 16.0625 25 C 16.5625 28.933594 19.933594 32 24 32 C 28.40625 32 32 28.40625 32 24 C 32 20.875 30.1875 18.160156 27.5625 16.84375 C 28.445313 15.800781 29 14.46875 29 13 C 29 9.691406 26.308594 7 23 7 C 19.691406 7 17 9.691406 17 13 C 17 14.855469 17.859375 16.523438 19.1875 17.625 C 18.683594 18.003906 18.246094 18.421875 17.84375 18.90625 C 17.097656 19.539063 16.476563 20.292969 16 21.15625 C 15.210938 19.726563 13.996094 18.570313 12.53125 17.84375 C 14.023438 16.75 15 14.984375 15 13 C 15 9.699219 12.300781 7 9 7 Z M 9 9 C 11.222656 9 13 10.777344 13 13 C 13 15.222656 11.222656 17 9 17 C 6.777344 17 5 15.222656 5 13 C 5 10.777344 6.777344 9 9 9 Z M 23 9 C 25.207031 9 27 10.792969 27 13 C 27 14.28125 26.378906 15.390625 25.4375 16.125 C 24.964844 16.039063 24.496094 16 24 16 C 22.996094 16 22.042969 16.191406 21.15625 16.53125 C 19.875 15.863281 19 14.542969 19 13 C 19 10.792969 20.792969 9 23 9 Z M 24 18 C 27.324219 18 30 20.675781 30 24 C 30 27.324219 27.324219 30 24 30 C 20.675781 30 18 27.324219 18 24 C 18 20.675781 20.675781 18 24 18 Z M 22 20 L 21 25 L 24.5 25 C 24.773438 25 25 25.226563 25 25.5 C 25 25.773438 24.773438 26 24.5 26 L 21.03125 26 C 21.246094 27.238281 22.265625 28.09375 23.59375 28.09375 L 24.40625 28.09375 C 25.90625 27.992188 27 26.898438 27 25.5 C 27 24.300781 26.195313 23.300781 25.09375 23 L 23.40625 23 L 23.625 22 L 26 22 L 26 20 Z "></path>
</g>
</svg>
