<?xml version="1.0" encoding="UTF-8"?>
<svg xmlns="http://www.w3.org/2000/svg" xmlns:xlink="http://www.w3.org/1999/xlink" viewBox="0 0 32 32" version="1.1">
<g>
<path d="M 8 4 L 8 15 L 13 15 L 13 16 L 4 16 L 4 18 L 5 18 L 5 28 L 7 28 L 7 21 L 25 21 L 25 28 L 27 28 L 27 18 L 28 18 L 28 16 L 19 16 L 19 15 L 24 15 L 24 4 Z M 10 6 L 22 6 L 22 13 L 10 13 Z M 14 7 L 14 11.8125 L 15.09375 10.8125 L 15.6875 12 L 16.40625 11.59375 L 15.90625 10.5 L 17.3125 10.3125 Z M 15 15 L 17 15 L 17 16 L 15 16 Z M 7 18 L 25 18 L 25 19 L 7 19 Z "></path>
</g>
</svg>
