<?xml version="1.0" encoding="UTF-8"?>
<svg xmlns="http://www.w3.org/2000/svg" xmlns:xlink="http://www.w3.org/1999/xlink" viewBox="0 0 32 32" version="1.1">
<g>
<path d="M 17.03125 2.074219 L 15.21875 2.925781 C 15.21875 2.925781 15.394531 3.320313 15.421875 3.742188 C 15.441406 4.003906 15.441406 4.183594 15.34375 4.34375 C 14.710938 4.132813 13.960938 4 13 4 C 8.230469 4 4 8.941406 4 15 C 4 21.496094 8.125 24.722656 10.617188 25.921875 C 12.773438 26.953125 15.199219 27.546875 16.242188 28.398438 L 16.984375 29.003906 L 17.625 28.289063 C 18.472656 27.332031 19.414063 26.964844 21.542969 25.589844 C 23.527344 24.308594 25.148438 23.046875 26.28125 21.371094 C 27.414063 19.691406 28 17.636719 28 15 C 28 12.144531 27.03125 9.441406 25.4375 7.414063 C 23.839844 5.382813 21.558594 4 19 4 C 18.488281 4 17.945313 4.074219 17.390625 4.207031 C 17.417969 3.992188 17.433594 3.785156 17.421875 3.601563 C 17.355469 2.742188 17.03125 2.074219 17.03125 2.074219 Z M 13 6 C 13.460938 6 13.527344 6.125 13.835938 6.171875 C 13.621094 6.351563 13.378906 6.417969 13.171875 6.625 C 11.359375 8.421875 10 11.210938 10 15 C 10 18.566406 12.183594 21.574219 12.183594 21.574219 L 13.816406 20.425781 C 13.816406 20.425781 12 17.71875 12 15 C 12 11.679688 13.140625 9.472656 14.578125 8.046875 C 16.019531 6.617188 17.820313 6 19 6 C 20.839844 6 22.558594 6.992188 23.863281 8.648438 C 25.167969 10.308594 26 12.605469 26 15 C 26 17.351563 25.523438 18.921875 24.625 20.25 C 23.726563 21.574219 22.347656 22.691406 20.457031 23.910156 C 18.769531 25 17.722656 25.570313 16.746094 26.449219 C 15.101563 25.421875 13.078125 24.882813 11.484375 24.117188 C 9.433594 23.132813 6 20.667969 6 15 C 6 9.890625 9.6875 6 13 6 Z "></path>
</g>
</svg>
