<?xml version="1.0" encoding="UTF-8"?>
<svg xmlns="http://www.w3.org/2000/svg" xmlns:xlink="http://www.w3.org/1999/xlink" viewBox="0 0 32 32" version="1.1">
<g>
<path d="M 16 3.96875 C 15.105469 3.96875 14.316406 4.425781 13.75 4.96875 C 13.183594 5.511719 12.765625 6.167969 12.375 6.84375 C 11.597656 8.195313 10.921875 9.640625 10.28125 10.28125 C 9.628906 10.933594 8.160156 11.671875 6.78125 12.625 C 5.402344 13.578125 3.96875 14.953125 3.96875 17 C 3.96875 17.71875 3.898438 19.1875 4.6875 20.5625 C 5.421875 21.839844 6.980469 22.859375 9.4375 23 C 10.355469 24.347656 13.367188 28.03125 19 28.03125 C 25.6875 28.03125 28.03125 24.371094 28.03125 22 C 28.03125 20.234375 27.128906 18.914063 25.96875 18.21875 C 24.808594 17.523438 23.464844 17.269531 22.21875 17 C 21.40625 16.824219 20.898438 16.667969 20.5 16.53125 C 21.457031 14.886719 22.03125 13.011719 22.03125 11 C 22.03125 7.691406 20.542969 5.742188 19.03125 4.84375 C 17.519531 3.945313 16 3.96875 16 3.96875 Z M 16 6.03125 C 16 6.03125 16.980469 6.007813 17.96875 6.59375 C 18.957031 7.179688 19.96875 8.25 19.96875 11 C 19.96875 13.699219 18.660156 16.199219 16.71875 18.03125 C 14.777344 19.863281 12.226563 20.96875 10 20.96875 C 9.417969 20.96875 8.9375 20.917969 8.53125 20.84375 C 9.5625 20.265625 10.828125 19.496094 12.125 18.5 C 14.984375 16.308594 18.03125 13.097656 18.03125 9 L 15.96875 9 C 15.96875 12.050781 13.515625 14.851563 10.875 16.875 C 9.136719 18.207031 7.484375 19.125 6.5 19.625 C 6.488281 19.605469 6.480469 19.582031 6.46875 19.5625 C 6.035156 18.8125 6.03125 17.773438 6.03125 17 C 6.03125 15.863281 6.753906 15.128906 7.9375 14.3125 C 9.121094 13.496094 10.628906 12.808594 11.71875 11.71875 C 12.824219 10.613281 13.457031 9.054688 14.15625 7.84375 C 14.503906 7.238281 14.867188 6.746094 15.1875 6.4375 C 15.507813 6.128906 15.71875 6.03125 16 6.03125 Z M 19.25 18.28125 C 19.765625 18.488281 20.546875 18.730469 21.78125 19 C 23.035156 19.273438 24.191406 19.539063 24.90625 19.96875 C 25.621094 20.398438 25.96875 20.808594 25.96875 22 C 25.96875 23.042969 24.980469 25.96875 19 25.96875 C 15.273438 25.96875 12.996094 24.152344 11.84375 22.84375 C 13.042969 22.609375 14.226563 22.15625 15.34375 21.53125 C 15.582031 21.664063 15.859375 21.800781 16.1875 21.9375 C 17.535156 22.5 19.683594 23.03125 23 23.03125 L 23 20.96875 C 20.207031 20.96875 18.464844 20.582031 17.375 20.1875 C 17.636719 19.972656 17.878906 19.734375 18.125 19.5 C 18.527344 19.121094 18.894531 18.710938 19.25 18.28125 Z "></path>
</g>
</svg>
