<?xml version="1.0" encoding="UTF-8"?>
<svg xmlns="http://www.w3.org/2000/svg" xmlns:xlink="http://www.w3.org/1999/xlink" viewBox="0 0 32 32" version="1.1">
<g>
<path d="M 22 3 C 22 3 20.246094 3.003906 18.5 4.03125 C 17.558594 4.582031 16.636719 5.492188 15.96875 6.78125 C 14.632813 4.269531 12.46875 3.125 12.46875 3.125 L 11.53125 4.875 C 11.53125 4.875 14.574219 6.414063 14.96875 10.1875 C 14.300781 10.386719 13.714844 10.734375 13.28125 11.21875 C 12.636719 11.9375 12.253906 12.828125 12.03125 13.75 C 11.667969 15.242188 10.1875 16.574219 8.9375 18.21875 C 8.015625 19.429688 7.308594 20.839844 7.125 22.34375 C 6.941406 23.847656 7.304688 25.453125 8.4375 26.8125 C 10.320313 29.070313 13.289063 30 16 30 C 18.710938 30 21.679688 29.070313 23.5625 26.8125 C 24.695313 25.453125 25.058594 23.847656 24.875 22.34375 C 24.691406 20.839844 23.984375 19.429688 23.0625 18.21875 C 21.8125 16.574219 20.332031 15.242188 19.96875 13.75 C 19.761719 12.894531 19.410156 12.066406 18.84375 11.375 C 20.496094 10.601563 21.585938 9.226563 22.15625 7.90625 C 23.007813 5.9375 23 4 23 4 L 23 3 Z M 20.71875 5.28125 C 20.644531 5.882813 20.703125 6.195313 20.3125 7.09375 C 19.761719 8.367188 18.867188 9.488281 17.125 9.84375 C 17.40625 7.53125 18.421875 6.382813 19.5 5.75 C 19.945313 5.488281 20.332031 5.394531 20.71875 5.28125 Z M 16 12 C 16.550781 12 16.878906 12.183594 17.21875 12.5625 C 17.558594 12.941406 17.863281 13.5625 18.03125 14.25 C 18.601563 16.585938 20.417969 18.058594 21.46875 19.4375 C 22.226563 20.433594 22.746094 21.550781 22.875 22.59375 C 23.003906 23.636719 22.824219 24.582031 22.03125 25.53125 C 20.65625 27.183594 18.246094 28 16 28 C 13.753906 28 11.34375 27.183594 9.96875 25.53125 C 9.175781 24.582031 8.996094 23.636719 9.125 22.59375 C 9.253906 21.550781 9.773438 20.433594 10.53125 19.4375 C 11.582031 18.058594 13.398438 16.585938 13.96875 14.25 C 14.136719 13.5625 14.441406 12.941406 14.78125 12.5625 C 15.121094 12.183594 15.449219 12 16 12 Z "></path>
</g>
</svg>
