<?xml version="1.0" encoding="UTF-8"?>
<svg xmlns="http://www.w3.org/2000/svg" xmlns:xlink="http://www.w3.org/1999/xlink" viewBox="0 0 32 32" version="1.1">
<g>
<path d="M 28 4 C 24.949219 4 22.828125 4.53125 21.25 5.53125 C 19.671875 6.53125 18.734375 7.949219 17.875 9.4375 C 16.152344 12.410156 14.710938 15.847656 9.25 19.125 C 6.628906 20.695313 4.863281 22.746094 4.03125 25.40625 L 3.875 26 L 4.28125 26.40625 C 4.761719 26.886719 5.410156 27.171875 6.34375 27.46875 C 7.277344 27.765625 8.464844 28 9.875 28 C 15.039063 28 19.53125 25.328125 22.59375 21.78125 C 25.65625 18.234375 27.371094 13.800781 26.84375 9.9375 C 26.652344 8.53125 26.570313 7.527344 26.65625 6.96875 C 26.734375 6.460938 26.886719 6.324219 27.34375 6.0625 C 27.589844 6.054688 27.734375 6 28 6 Z M 24.84375 6.3125 C 24.808594 6.433594 24.707031 6.53125 24.6875 6.65625 C 24.527344 7.679688 24.679688 8.792969 24.875 10.21875 C 25.292969 13.269531 23.820313 17.277344 21.0625 20.46875 C 18.304688 23.660156 14.347656 26 9.875 26 C 8.679688 26 7.675781 25.796875 6.9375 25.5625 C 6.578125 25.449219 6.5625 25.394531 6.34375 25.28125 C 7.089844 23.480469 8.257813 22.023438 10.28125 20.8125 C 16.152344 17.289063 17.964844 13.25 19.59375 10.4375 C 20.40625 9.03125 21.140625 7.960938 22.3125 7.21875 C 22.953125 6.8125 23.800781 6.527344 24.84375 6.3125 Z M 22.84375 7.84375 C 22.628906 7.875 22.382813 7.980469 22.09375 8.25 C 21.324219 8.972656 21.628906 9.40625 22.09375 9.84375 C 22.558594 10.28125 23.285156 10.28125 23.75 9.84375 C 24.214844 9.40625 24.214844 8.6875 23.75 8.25 C 23.460938 7.976563 23.203125 7.789063 22.84375 7.84375 Z M 21.96875 11.34375 C 21.652344 11.398438 21.300781 11.566406 20.96875 11.875 C 20.085938 12.703125 20.300781 13.53125 20.96875 14.15625 C 21.636719 14.78125 22.738281 14.78125 23.40625 14.15625 C 24.074219 13.53125 24.074219 12.5 23.40625 11.875 C 22.988281 11.484375 22.496094 11.253906 21.96875 11.34375 Z M 19.65625 15.5625 C 18.132813 15.5625 17.90625 16.28125 17.90625 17.1875 C 17.90625 18.09375 18.597656 18.84375 19.65625 18.84375 C 20.71875 18.84375 21.40625 18.09375 21.40625 17.1875 C 21.40625 16.28125 21.179688 15.5625 19.65625 15.5625 Z M 16.40625 18.9375 C 15.980469 18.9375 15.542969 19.101563 15.21875 19.40625 C 14.570313 20.011719 14.570313 20.988281 15.21875 21.59375 C 15.867188 22.199219 16.472656 22.613281 17.5625 21.59375 C 18.652344 20.574219 18.203125 20.007813 17.5625 19.40625 C 17.242188 19.105469 16.832031 18.9375 16.40625 18.9375 Z M 12.84375 21.53125 C 12.574219 21.570313 12.265625 21.726563 11.90625 22.0625 C 10.953125 22.957031 11.328125 23.492188 11.90625 24.03125 C 12.484375 24.570313 13.421875 24.570313 14 24.03125 C 14.578125 23.492188 14.578125 22.601563 14 22.0625 C 13.640625 21.722656 13.289063 21.464844 12.84375 21.53125 Z M 8.78125 23.4375 C 8.566406 23.46875 8.320313 23.605469 8.03125 23.875 C 7.261719 24.597656 7.566406 25.03125 8.03125 25.46875 C 8.496094 25.90625 9.253906 25.90625 9.71875 25.46875 C 10.183594 25.03125 10.183594 24.3125 9.71875 23.875 C 9.429688 23.601563 9.140625 23.382813 8.78125 23.4375 Z "></path>
</g>
</svg>
