<?xml version="1.0" encoding="UTF-8"?>
<svg xmlns="http://www.w3.org/2000/svg" xmlns:xlink="http://www.w3.org/1999/xlink" viewBox="0 0 32 32" version="1.1">
<g>
<path d="M 4.28125 4.875 L 2.71875 6.125 C 2.71875 6.125 4.003906 8 6.15625 8 C 7.0625 8 7.792969 7.65625 8.34375 7.40625 C 8.894531 7.15625 9.265625 7 9.625 7 C 10.4375 7 10.96875 7.144531 11.3125 7.34375 C 11.335938 7.359375 11.351563 7.390625 11.375 7.40625 C 11.453125 7.457031 11.535156 7.507813 11.59375 7.5625 C 11.746094 7.703125 11.84375 7.863281 11.90625 8.03125 C 11.402344 8.082031 11 8.484375 11 9 C 11 9.460938 11.328125 9.820313 11.75 9.9375 C 11.714844 10.039063 11.695313 10.148438 11.65625 10.25 C 11.472656 10.722656 11.21875 11.296875 11.21875 12.0625 C 11.21875 13.199219 11.890625 14.082031 12.625 14.71875 C 13.359375 15.355469 14.199219 15.839844 15 16.4375 C 15.109375 16.554688 15.335938 16.777344 15.78125 17.0625 C 17.03125 18.132813 18 19.472656 18 22 C 18 23.050781 17.566406 24.480469 17.09375 25.59375 C 16.621094 26.707031 16.125 27.5 16.125 27.5 L 17.875 28.5 C 17.875 28.5 18.378906 27.609375 18.90625 26.375 C 19.433594 25.140625 20 23.5625 20 22 C 20 20.363281 19.59375 19.054688 19 17.96875 C 19.136719 17.976563 19.261719 18 19.40625 18 C 21.5 18 23 16.769531 24.0625 15.71875 C 24.59375 15.195313 25.046875 14.6875 25.40625 14.375 C 25.765625 14.0625 25.976563 14 26 14 C 26.65625 14 27.015625 14.332031 27.25 14.53125 L 27.53125 14.75 L 29 14.75 L 29 13.75 C 29 12.769531 28.933594 11.441406 28.28125 10.21875 C 27.628906 8.996094 26.246094 8 24.25 8 C 22.875 8 20.578125 7.976563 18.28125 7.65625 C 15.984375 7.335938 13.683594 6.691406 12.34375 5.65625 C 11.636719 5.238281 10.722656 5 9.625 5 C 8.734375 5 8.046875 5.34375 7.5 5.59375 C 6.953125 5.84375 6.546875 6 6.15625 6 C 5.363281 6 4.28125 4.875 4.28125 4.875 Z M 4.09375 8.46875 L 3.15625 10.25 C 3.15625 10.25 4.394531 10.734375 6.125 10.90625 C 6.273438 11.972656 6.609375 12.910156 7.125 13.625 C 7.785156 14.539063 8.589844 15.203125 9.3125 15.875 C 10.761719 17.222656 12 18.480469 12 22 L 14 22 C 14 17.953125 12.238281 15.847656 10.6875 14.40625 C 9.910156 13.683594 9.214844 13.078125 8.75 12.4375 C 8.285156 11.796875 8 11.148438 8 10.03125 L 8 9.03125 L 7 9.03125 C 5.085938 9.03125 4.09375 8.46875 4.09375 8.46875 Z M 14 8.71875 C 15.277344 9.164063 16.648438 9.4375 18 9.625 C 20.457031 9.96875 22.847656 10 24.25 10 C 25.675781 10 26.15625 10.457031 26.53125 11.15625 C 26.5625 11.21875 26.605469 11.273438 26.625 11.34375 C 24.527344 10.90625 22.164063 11.140625 19.96875 11.15625 C 18.582031 11.164063 17.269531 11.097656 16.21875 10.84375 C 15.203125 10.597656 14.464844 10.195313 13.9375 9.53125 C 13.976563 9.28125 13.992188 9.007813 14 8.71875 Z M 13.28125 11.6875 C 14.007813 12.242188 14.863281 12.597656 15.75 12.8125 C 17.089844 13.136719 18.527344 13.164063 19.96875 13.15625 C 21.289063 13.148438 22.597656 13.128906 23.8125 13.15625 C 23.421875 13.523438 23.039063 13.902344 22.65625 14.28125 C 21.695313 15.230469 20.71875 16 19.40625 16 C 18.226563 16 17.472656 15.726563 17 15.46875 C 16.933594 15.433594 16.925781 15.40625 16.875 15.375 C 16.648438 15.183594 16.410156 15.011719 16.1875 14.84375 C 15.292969 14.179688 14.445313 13.652344 13.90625 13.1875 C 13.367188 12.722656 13.21875 12.460938 13.21875 12.0625 C 13.21875 11.957031 13.242188 11.828125 13.28125 11.6875 Z "></path>
</g>
</svg>
