<?xml version="1.0" encoding="UTF-8"?>
<svg xmlns="http://www.w3.org/2000/svg" xmlns:xlink="http://www.w3.org/1999/xlink" viewBox="0 0 32 32" version="1.1">
<g>
<path d="M 6 4 L 6 9.46875 L 6.375 9.78125 C 6.375 9.78125 6.390625 9.792969 6.53125 9.96875 C 6.671875 10.144531 6.878906 10.4375 7.09375 10.90625 C 7.527344 11.839844 8 13.4375 8 16 C 8 18.5625 7.527344 20.160156 7.09375 21.09375 C 6.878906 21.5625 6.671875 21.855469 6.53125 22.03125 C 6.390625 22.207031 6.375 22.21875 6.375 22.21875 L 6 22.53125 L 6 28 L 26 28 L 26 22.53125 L 25.65625 22.25 C 25.65625 22.25 25.34375 22.019531 24.90625 21.0625 C 24.46875 20.105469 24 18.496094 24 16 C 24 13.503906 24.46875 11.894531 24.90625 10.9375 C 25.34375 9.980469 25.65625 9.75 25.65625 9.75 L 26 9.46875 L 26 4 Z M 8 6 L 12 6 L 12 24.875 L 13.5625 23.84375 L 19.5625 19.84375 L 20 19.53125 L 20 6 L 24 6 L 24 8.75 C 23.773438 9 23.503906 9.226563 23.09375 10.125 C 22.53125 11.355469 22 13.246094 22 16 C 22 18.753906 22.53125 20.644531 23.09375 21.875 C 23.503906 22.773438 23.773438 23 24 23.25 L 24 26 L 8 26 L 8 23.375 C 8.042969 23.324219 8.046875 23.339844 8.09375 23.28125 C 8.328125 22.984375 8.621094 22.546875 8.90625 21.9375 C 9.472656 20.714844 10 18.8125 10 16 C 10 13.1875 9.472656 11.285156 8.90625 10.0625 C 8.621094 9.453125 8.328125 9.015625 8.09375 8.71875 C 8.046875 8.660156 8.042969 8.675781 8 8.625 Z M 14 6 L 18 6 L 18 18.4375 L 14 21.125 Z M 16 12 C 15.449219 12 15 12.449219 15 13 C 15 13.550781 15.449219 14 16 14 C 16.550781 14 17 13.550781 17 13 C 17 12.449219 16.550781 12 16 12 Z "></path>
</g>
</svg>
