<?xml version="1.0"?>
<svg xmlns="http://www.w3.org/2000/svg" viewBox="0 0 32 32">
    <path d="M 5 8 C 3.3550302 8 2 9.3550302 2 11 L 2 21 C 2 22.64497 3.3550302 24 5 24 L 27 24 C 28.64497 24 30 22.64497 30 21 L 30 11 C 30 9.3550302 28.64497 8 27 8 L 5 8 z M 5 10 L 27 10 C 27.56503 10 28 10.43497 28 11 L 28 21 C 28 21.56503 27.56503 22 27 22 L 5 22 C 4.4349698 22 4 21.56503 4 21 L 4 11 C 4 10.43497 4.4349698 10 5 10 z M 19 12.585938 L 14 17.585938 L 10 13.585938 L 6.2929688 17.292969 L 7.7070312 18.707031 L 10 16.414062 L 14 20.414062 L 19 15.414062 L 20.292969 16.707031 L 21.707031 15.292969 L 19 12.585938 z M 26 15 C 25.449 15 25 15.449 25 16 C 25 16.551 25.449 17 26 17 C 26.551 17 27 16.551 27 16 C 27 15.449 26.551 15 26 15 z"></path>
</svg>
