<?xml version="1.0"?>
<svg xmlns="http://www.w3.org/2000/svg" viewBox="0 0 32 32">
    <path d="M 7 6 C 5.9069372 6 5 6.9069372 5 8 L 5 19.585938 L 2.7070312 21.878906 C 2.2540644 22.331873 2 22.947825 2 23.585938 C 2 24.90727 3.0927296 26 4.4140625 26 L 27.585938 26 C 28.90727 26 30 24.90727 30 23.585938 L 30 22.585938 L 29.585938 22.585938 C 29.470513 22.352377 29.480594 22.066531 29.292969 21.878906 L 27 19.585938 L 27 8 C 27 6.9069372 26.093063 6 25 6 L 7 6 z M 7 8 L 25 8 L 25 19 L 7 19 L 7 8 z M 21 9.5859375 L 16 14.585938 L 12 10.585938 L 8.2929688 14.292969 L 9.7070312 15.707031 L 12 13.414062 L 16 17.414062 L 21 12.414062 L 22.292969 13.707031 L 23.707031 12.292969 L 21 9.5859375 z M 6.4140625 21 L 25.585938 21 L 27.878906 23.292969 C 27.957939 23.372002 28 23.474049 28 23.585938 C 28 23.826605 27.826605 24 27.585938 24 L 4.4140625 24 C 4.1733954 24 4 23.826605 4 23.585938 C 4 23.474049 4.0420606 23.372002 4.1210938 23.292969 L 6.4140625 21 z" font-weight="400" font-family="sans-serif" white-space="normal" overflow="visible"></path>
</svg>
