<?xml version="1.0"?>
<svg xmlns="http://www.w3.org/2000/svg" viewBox="0 0 32 32">
    <path d="M 7 8 C 5.3550302 8 4 9.3550302 4 11 L 4 21 C 4 22.64497 5.3550302 24 7 24 L 25 24 C 26.64497 24 28 22.64497 28 21 L 28 11 C 28 9.3550302 26.64497 8 25 8 L 7 8 z M 7 10 L 25 10 C 25.56503 10 26 10.43497 26 11 L 26 21 C 26 21.56503 25.56503 22 25 22 L 7 22 C 6.4349698 22 6 21.56503 6 21 L 6 11 C 6 10.43497 6.4349698 10 7 10 z M 19 12.585938 L 14 17.585938 L 10 13.585938 L 7.2929688 16.292969 L 8.7070312 17.707031 L 10 16.414062 L 14 20.414062 L 19 15.414062 L 20.292969 16.707031 L 21.707031 15.292969 L 19 12.585938 z M 24 15 C 23.449 15 23 15.449 23 16 C 23 16.551 23.449 17 24 17 C 24.551 17 25 16.551 25 16 C 25 15.449 24.551 15 24 15 z"></path>
</svg>
