<?xml version="1.0" encoding="UTF-8"?>
<svg xmlns="http://www.w3.org/2000/svg" xmlns:xlink="http://www.w3.org/1999/xlink" viewBox="0 0 32 32" version="1.1">
<g>
<path d="M 16 5 C 12.144531 5 9 8.144531 9 12 C 9 14.410156 10.230469 16.550781 12.09375 17.8125 C 8.527344 19.34375 6 22.882813 6 27 L 8 27 C 8 24.109375 9.527344 21.59375 11.8125 20.1875 C 12.484375 21.835938 14.121094 23 16 23 C 17.878906 23 19.515625 21.835938 20.1875 20.1875 C 22.472656 21.59375 24 24.109375 24 27 L 26 27 C 26 22.914063 23.519531 19.394531 20 17.84375 C 21.097656 17.261719 22.144531 16.523438 23.09375 15.8125 C 25.160156 14.265625 26.71875 12.71875 26.71875 12.71875 L 27.40625 12 L 26.71875 11.3125 C 26.71875 11.3125 25.207031 9.738281 23.15625 8.1875 C 21.105469 6.636719 18.546875 5 16 5 Z M 16 7 C 17.574219 7 20.019531 8.363281 21.9375 9.8125 C 23.394531 10.914063 23.988281 11.53125 24.46875 12 C 23.976563 12.472656 23.371094 13.089844 21.90625 14.1875 C 19.96875 15.640625 17.496094 17 16 17 C 13.226563 17 11 14.773438 11 12 C 11 9.226563 13.226563 7 16 7 Z M 16 19 C 16.820313 19 17.601563 19.117188 18.34375 19.34375 C 17.996094 20.308594 17.089844 21 16 21 C 14.910156 21 14.003906 20.308594 13.65625 19.34375 C 14.398438 19.117188 15.179688 19 16 19 Z "></path>
</g>
</svg>
