<?xml version="1.0"?>
<svg xmlns="http://www.w3.org/2000/svg" viewBox="0 0 32 32">
    <path d="M 16 4 C 12.141 4 9 7.14 9 11 C 9 13.410539 10.22613 15.539256 12.085938 16.798828 C 8.5117651 18.32509 6 21.874438 6 26 L 8 26 C 8 21.589 11.589 18 16 18 L 16 16 C 13.243 16 11 13.757 11 11 C 11 8.243 13.243 6 16 6 C 18.757 6 21 8.243 21 11 C 21 12.641 20.19375 14.088 18.96875 15 L 21.736328 15 C 22.530328 13.865 23 12.487 23 11 C 23 7.14 19.859 4 16 4 z M 21 17 L 21 18 L 18 18 L 18 32 L 32 32 L 32 18 L 29 18 L 29 17 L 27 17 L 27 18 L 23 18 L 23 17 L 21 17 z M 20 20 L 21 20 L 21 21 L 23 21 L 23 20 L 27 20 L 27 21 L 29 21 L 29 20 L 30 20 L 30 22 L 20 22 L 20 20 z M 20 24 L 30 24 L 30 30 L 20 30 L 20 24 z M 26 26 L 26 28 L 28 28 L 28 26 L 26 26 z"></path>
</svg>
