<?xml version="1.0"?>
<svg xmlns="http://www.w3.org/2000/svg" viewBox="0 0 32 32">
    <path d="M 16 2.046875 L 3 9.5332031 L 4 11.265625 L 4 28 L 28 28 L 28 11.265625 L 29 9.5332031 L 16 2.046875 z M 16 4.3535156 L 26 10.113281 L 26 26 L 6 26 L 6 10.113281 L 16 4.3535156 z M 16 11 C 13.802706 11 12 12.802706 12 15 C 12 16.115952 12.467383 17.127539 13.212891 17.855469 C 11.880285 18.756135 11 20.280002 11 22 L 13 22 C 13 20.331516 14.331516 19 16 19 C 17.668484 19 19 20.331516 19 22 L 21 22 C 21 20.280002 20.119715 18.756135 18.787109 17.855469 C 19.532617 17.127539 20 16.115952 20 15 C 20 12.802706 18.197294 11 16 11 z M 16 13 C 17.116414 13 18 13.883586 18 15 C 18 16.116414 17.116414 17 16 17 C 14.883586 17 14 16.116414 14 15 C 14 13.883586 14.883586 13 16 13 z" font-weight="400" font-family="sans-serif" white-space="normal" overflow="visible"></path>
</svg>
