<?xml version="1.0" encoding="UTF-8"?>
<svg xmlns="http://www.w3.org/2000/svg" xmlns:xlink="http://www.w3.org/1999/xlink" viewBox="0 0 32 32" version="1.1">
<g>
<path d="M 14.453125 3 L 6 11.589844 L 6 26.285156 C 6 27.761719 7.207031 29 8.6875 29 L 23.3125 29 C 24.792969 29 26 27.765625 26 26.285156 L 26 5.714844 C 26 4.234375 24.792969 3 23.3125 3 Z M 8.292969 4.292969 L 4.292969 8.292969 L 5.707031 9.707031 L 9.707031 5.707031 Z M 15.292969 5 L 20.898438 5 L 18.960938 6.9375 L 13.386719 6.9375 Z M 23.636719 5.089844 C 23.851563 5.207031 24 5.429688 24 5.714844 L 24 26.285156 C 24 26.699219 23.695313 27 23.3125 27 L 8.6875 27 C 8.304688 27 8 26.699219 8 26.285156 L 8 12.410156 L 11.417969 8.9375 L 19.789063 8.9375 Z M 16 11.394531 L 15.21875 12.375 C 15.21875 12.375 14.4375 13.359375 13.652344 14.613281 C 12.867188 15.871094 12 17.328125 12 18.847656 C 12 21.109375 13.78125 23 16 23 C 18.21875 23 20 21.109375 20 18.847656 C 20 17.328125 19.132813 15.871094 18.347656 14.613281 C 17.5625 13.359375 16.78125 12.375 16.78125 12.375 Z M 16 14.742188 C 16.257813 15.101563 16.328125 15.152344 16.652344 15.671875 C 17.367188 16.820313 18 18.289063 18 18.847656 C 18 20.078125 17.082031 21 16 21 C 14.917969 21 14 20.078125 14 18.847656 C 14 18.289063 14.632813 16.820313 15.347656 15.671875 C 15.671875 15.152344 15.742188 15.101563 16 14.742188 Z "></path>
</g>
</svg>
