<?xml version="1.0" encoding="UTF-8"?>
<svg xmlns="http://www.w3.org/2000/svg" xmlns:xlink="http://www.w3.org/1999/xlink" viewBox="0 0 32 32" version="1.1">
<g>
<path d="M 13 3 L 13 5.542969 C 12.652344 5.796875 11.402344 6.683594 9.792969 8.292969 C 7.976563 10.109375 6 12.417969 6 15 L 6 15.1875 C 5.175781 15.496094 4.496094 16.15625 4.023438 16.949219 C 3.363281 18.046875 3 19.457031 3 21 C 3 22.542969 3.375 23.789063 4.109375 24.671875 C 4.367188 24.984375 4.679688 25.222656 5.007813 25.421875 C 5.011719 25.453125 5.003906 25.484375 5.007813 25.515625 C 5.039063 25.980469 5.09375 26.671875 5.195313 27.21875 C 5.414063 28.371094 6.34375 29.15625 7.414063 28.980469 C 7.78125 28.917969 7.859375 28.859375 8.15625 28.753906 C 8.453125 28.648438 8.824219 28.511719 9.21875 28.367188 C 10.003906 28.078125 10.886719 27.746094 11.402344 27.5625 C 11.640625 27.476563 11.894531 27.363281 12.148438 27.207031 C 12.402344 27.050781 12.679688 26.878906 12.894531 26.441406 L 12.921875 26.390625 L 14.054688 23.25 C 14.992188 23.128906 15.929688 23 17 23 C 18.132813 23 19.007813 23.125 19.933594 23.222656 L 21.078125 26.390625 L 21.101563 26.441406 C 21.316406 26.878906 21.597656 27.050781 21.847656 27.207031 C 22.101563 27.363281 22.355469 27.476563 22.59375 27.5625 C 23.113281 27.746094 23.996094 28.078125 24.78125 28.367188 C 25.175781 28.511719 25.542969 28.648438 25.84375 28.753906 C 26.140625 28.859375 26.21875 28.917969 26.582031 28.980469 C 27.652344 29.152344 28.585938 28.371094 28.800781 27.222656 L 28.800781 27.21875 C 28.90625 26.675781 28.960938 25.984375 28.996094 25.515625 C 29.035156 24.9375 28.816406 24.355469 28.390625 23.945313 L 28.390625 23.941406 C 27.917969 23.492188 26.957031 22.847656 25.109375 22.203125 C 23.265625 21.558594 20.601563 21 17 21 C 13.878906 21 11.230469 21.5625 9.28125 22.199219 C 8.308594 22.515625 7.507813 22.847656 6.90625 23.140625 C 6.488281 23.347656 6.210938 23.507813 5.953125 23.6875 C 5.847656 23.605469 5.742188 23.511719 5.648438 23.394531 C 5.296875 22.972656 5 22.21875 5 21 C 5 19.78125 5.308594 18.691406 5.734375 17.980469 C 5.824219 17.832031 5.910156 17.71875 6 17.609375 L 6 20 L 10.414063 20 L 11.414063 19 L 22.585938 19 L 23.585938 20 L 28 20 L 28 15 C 28 12.417969 26.023438 10.109375 24.207031 8.292969 C 22.597656 6.683594 21.347656 5.796875 21 5.542969 L 21 3 L 18 3 L 18 4 L 16 4 L 16 3 Z M 15 6 L 19 6 L 19 6.515625 L 19.417969 6.8125 C 19.417969 6.8125 21.109375 8.023438 22.792969 9.707031 C 24.476563 11.390625 26 13.582031 26 15 L 26 18 L 24.414063 18 L 23.414063 17 L 10.585938 17 L 9.585938 18 L 8 18 L 8 15 C 8 13.582031 9.523438 11.390625 11.207031 9.707031 C 12.890625 8.023438 14.582031 6.8125 14.582031 6.8125 L 15 6.515625 Z M 13 10 L 13 12 L 15 12 L 15 10 Z M 16 10 L 16 12 L 18 12 L 18 10 Z M 19 10 L 19 12 L 21 12 L 21 10 Z M 13 13 L 13 15 L 15 15 L 15 13 Z M 16 13 L 16 15 L 18 15 L 18 13 Z M 19 13 L 19 15 L 21 15 L 21 13 Z M 22.171875 23.527344 C 23.007813 23.703125 23.847656 23.882813 24.453125 24.09375 C 26.070313 24.65625 26.949219 25.335938 27 25.378906 C 26.96875 25.820313 26.902344 26.511719 26.839844 26.847656 C 26.828125 26.902344 26.8125 26.933594 26.796875 26.953125 C 26.707031 26.929688 26.609375 26.902344 26.503906 26.863281 C 26.226563 26.769531 25.863281 26.636719 25.472656 26.492188 C 24.695313 26.203125 23.820313 25.875 23.269531 25.675781 L 23.265625 25.675781 C 23.140625 25.632813 22.992188 25.5625 22.902344 25.503906 C 22.882813 25.492188 22.886719 25.5 22.878906 25.5 Z M 11.789063 23.640625 L 11.117188 25.5 C 11.113281 25.5 11.113281 25.492188 11.09375 25.503906 C 11.003906 25.5625 10.855469 25.632813 10.730469 25.675781 C 10.179688 25.875 9.304688 26.203125 8.523438 26.492188 C 8.136719 26.636719 7.773438 26.769531 7.492188 26.863281 C 7.390625 26.902344 7.292969 26.925781 7.203125 26.953125 C 7.1875 26.929688 7.171875 26.902344 7.164063 26.847656 L 7.160156 26.84375 C 7.097656 26.511719 7.03125 25.820313 7 25.378906 C 6.917969 25.460938 7.277344 25.1875 7.78125 24.9375 C 8.296875 24.6875 9.015625 24.386719 9.898438 24.097656 C 10.433594 23.925781 11.140625 23.789063 11.789063 23.640625 Z "></path>
</g>
</svg>
