<?xml version="1.0" encoding="UTF-8"?>
<svg xmlns="http://www.w3.org/2000/svg" xmlns:xlink="http://www.w3.org/1999/xlink" viewBox="0 0 32 32" version="1.1">
<g>
<path d="M 16 4 C 11.191406 4 8.320313 4.574219 6.507813 5.28125 C 5.605469 5.632813 4.964844 6.019531 4.511719 6.367188 C 4.058594 6.714844 3.757813 7.039063 3.710938 7.082031 L 3.707031 7.082031 C 3.296875 7.441406 3.160156 7.878906 3.082031 8.265625 C 3.003906 8.65625 2.992188 9.035156 3.003906 9.40625 C 3.027344 10.148438 3.148438 10.851563 3.21875 11.222656 C 3.4375 12.371094 4.371094 13.152344 5.4375 12.980469 C 5.664063 12.941406 5.878906 12.886719 6.242188 12.796875 C 6.609375 12.703125 7.066406 12.589844 7.523438 12.472656 C 8.4375 12.242188 9.410156 11.996094 9.597656 11.953125 C 10.476563 11.757813 10.894531 11.070313 11.125 10.375 L 11.125 10.371094 C 11.109375 10.425781 11.289063 9.972656 11.503906 9.492188 C 11.722656 9.007813 12 8.402344 12.273438 7.8125 C 12.65625 6.980469 12.839844 6.589844 13.027344 6.1875 C 13.996094 6.121094 14.757813 6 16 6 C 17.242188 6 18.003906 6.121094 18.976563 6.191406 C 19.164063 6.59375 19.34375 6.980469 19.726563 7.8125 C 20 8.402344 20.273438 9.007813 20.492188 9.492188 C 20.710938 9.976563 20.894531 10.4375 20.875 10.378906 L 20.875 10.375 C 21.105469 11.0625 21.515625 11.769531 22.421875 11.957031 C 22.5625 11.988281 23.542969 12.238281 24.453125 12.46875 C 24.910156 12.585938 25.363281 12.703125 25.734375 12.792969 C 26.109375 12.882813 26.328125 12.945313 26.574219 12.984375 L 26.578125 12.984375 C 27.636719 13.140625 28.558594 12.382813 28.78125 11.222656 C 28.851563 10.851563 28.972656 10.148438 28.996094 9.40625 C 29.007813 9.039063 28.996094 8.65625 28.917969 8.265625 C 28.839844 7.878906 28.699219 7.441406 28.289063 7.082031 C 28.238281 7.039063 27.9375 6.714844 27.484375 6.367188 C 27.035156 6.019531 26.394531 5.632813 25.488281 5.28125 C 23.675781 4.578125 20.804688 4 16 4 Z M 10.75 6.335938 C 10.613281 6.632813 10.605469 6.648438 10.453125 6.976563 C 10.183594 7.570313 9.902344 8.175781 9.679688 8.671875 C 9.460938 9.167969 9.324219 9.445313 9.226563 9.742188 L 9.226563 9.75 L 9.222656 9.75 C 9.136719 10.007813 8.953125 10.050781 9.15625 10.003906 C 8.832031 10.078125 7.945313 10.304688 7.03125 10.535156 C 6.578125 10.652344 6.125 10.765625 5.765625 10.851563 C 5.480469 10.921875 5.316406 10.957031 5.242188 10.976563 C 5.21875 10.957031 5.199219 10.917969 5.1875 10.847656 C 5.125 10.519531 5.019531 9.894531 5 9.34375 C 4.992188 9.070313 5.011719 8.816406 5.042969 8.664063 C 5.058594 8.585938 5.078125 8.546875 5.085938 8.535156 C 5.304688 8.332031 5.441406 8.171875 5.726563 7.953125 C 6.035156 7.71875 6.492188 7.433594 7.234375 7.144531 C 8.019531 6.839844 9.195313 6.554688 10.75 6.335938 Z M 21.25 6.335938 C 22.800781 6.554688 23.976563 6.839844 24.765625 7.148438 C 25.507813 7.433594 25.964844 7.71875 26.273438 7.957031 C 26.558594 8.175781 26.695313 8.332031 26.917969 8.535156 C 26.921875 8.546875 26.945313 8.589844 26.957031 8.664063 C 26.988281 8.820313 27.007813 9.074219 27 9.347656 C 26.980469 9.894531 26.875 10.523438 26.8125 10.847656 C 26.796875 10.925781 26.769531 10.957031 26.746094 10.972656 C 26.664063 10.957031 26.503906 10.921875 26.214844 10.851563 C 25.851563 10.761719 25.402344 10.648438 24.949219 10.53125 C 24.046875 10.300781 23.203125 10.078125 22.839844 10 C 23.027344 10.042969 22.859375 10.003906 22.777344 9.75 L 22.777344 9.746094 L 22.773438 9.742188 C 22.675781 9.445313 22.539063 9.167969 22.316406 8.671875 C 22.097656 8.175781 21.816406 7.570313 21.542969 6.976563 C 21.390625 6.648438 21.386719 6.632813 21.25 6.335938 Z M 12 11 L 12 13.542969 C 11.652344 13.796875 10.402344 14.683594 8.792969 16.292969 C 6.976563 18.109375 5 20.417969 5 23 L 5 28 L 9.414063 28 L 10.414063 27 L 21.585938 27 L 22.585938 28 L 27 28 L 27 23 C 27 20.417969 25.023438 18.109375 23.207031 16.292969 C 21.597656 14.683594 20.347656 13.796875 20 13.542969 L 20 11 L 17 11 L 17 12 L 15 12 L 15 11 Z M 5.117188 11.003906 C 5.121094 11.003906 5.117188 11.003906 5.121094 11.003906 C 5.121094 11.003906 5.113281 11.007813 5.113281 11.003906 Z M 14 14 L 18 14 L 18 14.515625 L 18.417969 14.8125 C 18.417969 14.8125 20.109375 16.023438 21.792969 17.707031 C 23.476563 19.390625 25 21.582031 25 23 L 25 26 L 23.414063 26 L 22.414063 25 L 9.585938 25 L 8.585938 26 L 7 26 L 7 23 C 7 21.582031 8.523438 19.390625 10.207031 17.707031 C 11.890625 16.023438 13.582031 14.8125 13.582031 14.8125 L 14 14.515625 Z M 12 18 L 12 20 L 14 20 L 14 18 Z M 15 18 L 15 20 L 17 20 L 17 18 Z M 18 18 L 18 20 L 20 20 L 20 18 Z M 12 21 L 12 23 L 14 23 L 14 21 Z M 15 21 L 15 23 L 17 23 L 17 21 Z M 18 21 L 18 23 L 20 23 L 20 21 Z "></path>
</g>
</svg>
