<?xml version="1.0"?>
<svg xmlns="http://www.w3.org/2000/svg" viewBox="0 0 32 32">
    <path d="M 10 4 C 8.898 4 8 4.898 8 6 L 8 26 C 8 27.102 8.898 28 10 28 L 22 28 C 23.102 28 24 27.102 24 26 L 24 24 L 22 24 L 22 26 L 10 26 L 10 6 L 22 6 L 22 8 L 24 8 L 24 6 C 24 4.898 23.102 4 22 4 L 10 4 z M 21.484375 9.6269531 L 19.632812 10.380859 L 20.228516 11.841797 C 19.670404 12.207795 19.184792 12.676129 18.810547 13.228516 L 17.326172 12.605469 L 16.550781 14.449219 L 18.044922 15.078125 C 17.985975 15.383718 17.953125 15.697336 17.953125 16.019531 C 17.953125 16.334638 17.986433 16.642012 18.042969 16.941406 L 16.630859 17.515625 L 17.384766 19.367188 L 18.800781 18.791016 C 19.148921 19.309505 19.592285 19.759195 20.103516 20.117188 L 19.472656 21.617188 L 21.316406 22.390625 L 21.941406 20.90625 C 22.269312 20.97477 22.605685 21.019531 22.953125 21.019531 C 23.287578 21.019531 23.613238 20.985277 23.929688 20.921875 L 24.517578 22.373047 L 26.371094 21.619141 L 25.769531 20.140625 C 26.268614 19.797646 26.699915 19.365131 27.046875 18.869141 L 28.484375 19.472656 L 29.257812 17.628906 L 27.847656 17.037109 C 27.916411 16.708204 27.953125 16.367936 27.953125 16.019531 L 27.953125 15.064453 L 29.373047 14.486328 L 28.619141 12.632812 L 27.021484 13.28125 C 26.676591 12.747013 26.235682 12.285553 25.724609 11.917969 L 26.339844 10.462891 L 24.496094 9.6855469 L 23.888672 11.121094 C 23.586152 11.060512 23.275794 11.019531 22.953125 11.019531 C 22.657231 11.019531 22.368157 11.049631 22.085938 11.099609 L 21.484375 9.6269531 z M 22.953125 13.019531 C 24.624701 13.019531 25.953125 14.347955 25.953125 16.019531 C 25.953125 17.686129 24.623495 19.019531 22.953125 19.019531 C 21.287735 19.019531 19.953125 17.684921 19.953125 16.019531 C 19.953125 14.349161 21.286527 13.019531 22.953125 13.019531 z M 14 23 L 14 25 L 18 25 L 18 23 L 14 23 z"></path>
</svg>
