<?xml version="1.0"?>
<svg xmlns="http://www.w3.org/2000/svg" viewBox="0 0 32 32">
    <path d="M 10 4 C 8.898 4 8 4.898 8 6 L 8 26 C 8 27.102 8.898 28 10 28 L 22 28 C 23.102 28 24 27.102 24 26 L 24 24 L 22 24 L 22 26 L 10 26 L 10 6 L 22 6 L 22 8 L 24 8 L 24 6 C 24 4.898 23.102 4 22 4 L 10 4 z M 22 10 L 22 11.074219 C 21.347039 11.207301 20.738598 11.467399 20.203125 11.828125 L 19.398438 11.072266 L 18.029297 12.53125 L 18.800781 13.255859 C 18.457049 13.779227 18.203231 14.367007 18.074219 15 L 17 15 L 17 17 L 18.085938 17 C 18.218152 17.641105 18.462849 18.243097 18.814453 18.771484 L 18.007812 19.578125 L 19.421875 20.992188 L 20.228516 20.185547 C 20.756903 20.537151 21.358895 20.781848 22 20.914062 L 22 22 L 24 22 L 24 20.925781 C 24.632993 20.796769 25.220773 20.542951 25.744141 20.199219 L 26.46875 20.970703 L 27.927734 19.601562 L 27.171875 18.796875 C 27.532601 18.261402 27.792699 17.652961 27.925781 17 L 29 17 L 29 15 L 27.824219 15 C 27.693735 14.381495 27.448805 13.807631 27.123047 13.291016 L 27.904297 12.509766 L 26.490234 11.095703 L 25.738281 11.847656 C 25.222085 11.48818 24.633952 11.233174 24 11.09375 L 24 10 L 22 10 z M 23 12.972656 C 24.687859 12.972656 26.027344 14.312141 26.027344 16 C 26.027344 17.687859 24.687859 19.027344 23 19.027344 C 21.312141 19.027344 19.972656 17.687859 19.972656 16 C 19.972656 14.312141 21.312141 12.972656 23 12.972656 z M 14 23 L 14 25 L 18 25 L 18 23 L 14 23 z"></path>
</svg>
