<?xml version="1.0"?>
<svg xmlns="http://www.w3.org/2000/svg" viewBox="0 0 32 32">
    <path d="M 10 4 C 8.898 4 8 4.898 8 6 L 8 10 L 10 10 L 10 6 L 22 6 L 22 26 L 10 26 L 10 20 L 8 20 L 8 26 C 8 27.102 8.898 28 10 28 L 22 28 C 23.102 28 24 27.102 24 26 L 24 6 C 24 4.898 23.102 4 22 4 L 10 4 z M 5.2070312 9.7929688 L 3.7929688 11.207031 L 7.5859375 15 L 3.7929688 18.792969 L 5.2070312 20.207031 L 9 16.414062 L 12.792969 20.207031 L 14.207031 18.792969 L 10.414062 15 L 14.207031 11.207031 L 12.792969 9.7929688 L 9 13.585938 L 5.2070312 9.7929688 z M 14 23 L 14 25 L 18 25 L 18 23 L 14 23 z" font-weight="400" font-family="sans-serif" white-space="normal" overflow="visible"></path>
</svg>
