<?xml version="1.0"?>
<svg xmlns="http://www.w3.org/2000/svg" viewBox="0 0 32 32">
    <path d="M 15 3 L 15 15 L 17 15 L 17 17.869141 L 21.302734 15 L 29 15 L 29 14 L 29 3 L 15 3 z M 17 5 L 27 5 L 27 13 L 20.697266 13 L 19 14.130859 L 19 13 L 17 13 L 17 5 z M 7.9394531 7.0585938 C 7.4237436 7.0585938 6.9090579 7.2482776 6.5332031 7.6269531 C 6.5321231 7.6280431 6.5303769 7.6278193 6.5292969 7.6289062 L 3.9316406 10.220703 L 3.9316406 10.222656 C 3.1478551 11.006442 2.8755756 12.141773 3.1777344 13.203125 L 3.1875 13.238281 L 3.2011719 13.273438 C 3.9286105 15.253859 5.6781386 19.288931 9.2441406 22.748047 C 12.764017 26.167445 16.63445 28.003853 18.65625 28.751953 C 19.758455 29.217157 21.041897 28.883049 21.802734 27.974609 L 21.744141 28.039062 L 24.345703 25.4375 C 25.100218 24.682986 25.100218 23.379514 24.345703 22.625 L 21.150391 19.328125 L 21.142578 19.320312 C 20.388266 18.57536 19.088297 18.57536 18.333984 19.320312 L 18.332031 19.322266 L 16.751953 20.904297 C 16.098845 20.577827 14.803924 19.884002 13.544922 18.625 C 12.284675 17.364753 11.591255 16.06797 11.265625 15.416016 L 12.847656 13.837891 L 12.849609 13.835938 C 13.142838 13.539025 13.228628 13.129866 13.291016 12.730469 L 14.605469 12.730469 L 12.835938 11.011719 L 9.3496094 7.6289062 C 8.9734821 7.2480538 8.4566429 7.0585938 7.9394531 7.0585938 z M 7.9394531 9.046875 L 11.392578 12.398438 L 11.425781 12.431641 L 8.8476562 15.003906 L 9.1191406 15.628906 C 9.1191406 15.628906 10.159594 18.067797 12.130859 20.039062 C 14.102125 22.010328 16.541016 23.050781 16.541016 23.050781 L 17.166016 23.322266 L 19.738281 20.742188 L 22.923828 24.03125 L 20.298828 26.65625 L 20.269531 26.689453 C 20.032974 26.971903 19.732974 27.041782 19.429688 26.912109 L 19.40625 26.902344 L 19.382812 26.894531 C 17.601244 26.238411 13.897776 24.482419 10.636719 21.314453 L 10.636719 21.3125 C 7.4205616 18.192808 5.7854043 14.480893 5.1054688 12.640625 C 5.0168187 12.305146 5.1324238 11.849998 5.3457031 11.636719 L 7.9394531 9.046875 z" font-weight="400" font-family="sans-serif" white-space="normal" overflow="visible"></path>
</svg>
