<?xml version="1.0" encoding="UTF-8"?>
<svg xmlns="http://www.w3.org/2000/svg" xmlns:xlink="http://www.w3.org/1999/xlink" viewBox="0 0 32 32" version="1.1">
<g>
<path d="M 12 4 C 11.125 4 10.320313 4.335938 9.78125 4.90625 C 9.242188 5.476563 9 6.230469 9 7 L 11 7 C 11 6.644531 11.109375 6.398438 11.25 6.25 C 11.390625 6.101563 11.574219 6 12 6 C 12.34375 6 12.671875 6.015625 13 6.03125 L 13 7 L 15 7 L 15 6.21875 C 17.421875 6.585938 19.269531 7.367188 20.5625 8.21875 C 21.457031 8.804688 22.105469 9.40625 22.5 9.9375 C 22.894531 10.46875 23 10.949219 23 11 C 23 12.1875 22.011719 13.757813 20.4375 14.96875 C 18.863281 16.179688 16.785156 17 15 17 C 13.105469 17 11.578125 16.484375 10.5625 15.65625 C 9.546875 14.828125 9 13.707031 9 12.25 C 9 11.667969 9.214844 11.066406 9.5625 10.65625 C 9.816406 10.355469 10.132813 10.121094 10.53125 10.03125 C 10.6875 10.015625 10.84375 10 11 10 L 15.65625 10 L 16.65625 12 L 18.34375 12 C 18.320313 12.125 18.308594 12.25 18.28125 12.375 C 18.160156 12.90625 18 13.414063 18 14 L 20 14 C 20 13.890625 20.089844 13.394531 20.21875 12.84375 C 20.347656 12.292969 20.5 11.660156 20.5 11 C 20.5 10.3125 20.335938 9.765625 20.1875 9.375 C 20.039063 8.984375 20 8.601563 20 9 L 18 9 C 18 9.644531 18.171875 9.773438 18.28125 10 L 17.90625 10 L 16.90625 8 L 11 8 C 9.175781 8 7.359375 8.78125 6.0625 10.3125 C 4.765625 11.84375 4 14.078125 4 16.9375 C 4 20.679688 4.507813 23.3125 5.03125 25.125 C 5.292969 26.03125 5.5625 26.746094 5.75 27.25 C 5.9375 27.753906 6 28.125 6 28 L 8 28 C 8 26.191406 8.375 24.667969 9.125 23.65625 C 9.875 22.644531 10.976563 22 13 22 C 13.550781 22 14 21.550781 14 21 C 14 20.449219 13.550781 20 13 20 C 10.515625 20 8.625 20.917969 7.5 22.4375 C 7.207031 22.835938 6.949219 23.265625 6.75 23.71875 C 6.355469 22.109375 6 19.945313 6 16.9375 C 6 14.992188 6.382813 13.511719 7 12.4375 C 7.050781 14.363281 7.910156 16.042969 9.3125 17.1875 C 10.757813 18.367188 12.738281 19 15 19 C 17.371094 19 19.769531 17.984375 21.65625 16.53125 C 21.855469 16.375 22.058594 16.226563 22.25 16.0625 C 22.355469 16.621094 22.488281 17.210938 22.71875 17.84375 C 23.070313 18.816406 23.609375 19.820313 24.46875 20.625 C 25.328125 21.429688 26.53125 22 28 22 L 28 20 C 27.007813 20 26.351563 19.695313 25.8125 19.1875 C 25.273438 18.679688 24.875 17.933594 24.59375 17.15625 C 24.046875 15.648438 24.003906 14.15625 24 14.0625 C 24.613281 13.121094 25 12.089844 25 11 C 25 10.210938 24.652344 9.5 24.09375 8.75 C 23.535156 8 22.726563 7.234375 21.65625 6.53125 C 19.515625 5.125 16.320313 4 12 4 Z M 13 11 L 13 12.9375 C 13 13.21875 12.832031 13.707031 12.625 14.09375 C 12.417969 14.480469 12.21875 14.71875 12.21875 14.71875 L 13.78125 15.96875 C 13.78125 15.96875 14.082031 15.570313 14.375 15.03125 C 14.667969 14.492188 15 13.800781 15 12.9375 L 15 11 Z M 16 21 C 15.449219 21 15 21.449219 15 22 C 15 22.550781 15.449219 23 16 23 C 16.550781 23 17 22.550781 17 22 C 17 21.449219 16.550781 21 16 21 Z M 27 22 C 26.449219 22 26 22.449219 26 23 C 26 23.550781 26.449219 24 27 24 C 27.550781 24 28 23.550781 28 23 C 28 22.449219 27.550781 22 27 22 Z M 18 23 C 17.449219 23 17 23.449219 17 24 C 17 24.550781 17.449219 25 18 25 C 18.550781 25 19 24.550781 19 24 C 19 23.449219 18.550781 23 18 23 Z M 20 25 C 19.449219 25 19 25.449219 19 26 C 19 26.550781 19.449219 27 20 27 C 20.550781 27 21 26.550781 21 26 C 21 25.449219 20.550781 25 20 25 Z M 26 25 C 25.449219 25 25 25.449219 25 26 C 25 26.550781 25.449219 27 26 27 C 26.550781 27 27 26.550781 27 26 C 27 25.449219 26.550781 25 26 25 Z M 23 26 C 22.449219 26 22 26.449219 22 27 C 22 27.550781 22.449219 28 23 28 C 23.550781 28 24 27.550781 24 27 C 24 26.449219 23.550781 26 23 26 Z "></path>
</g>
</svg>
