<?xml version="1.0" encoding="UTF-8"?>
<svg xmlns="http://www.w3.org/2000/svg" xmlns:xlink="http://www.w3.org/1999/xlink" viewBox="0 0 32 32" version="1.1">
<g>
<path d="M 23.625 3.9375 L 4.28125 23.28125 L 3.875 23.71875 L 4.03125 24.28125 C 4.03125 24.28125 4.148438 24.675781 4.34375 25.15625 C 4.539063 25.636719 4.78125 26.21875 5.28125 26.71875 C 5.78125 27.21875 6.363281 27.460938 6.84375 27.65625 C 7.324219 27.851563 7.71875 27.96875 7.71875 27.96875 L 8.28125 28.125 L 8.71875 27.71875 L 16.5 19.9375 L 16.90625 20.34375 C 16.917969 20.355469 16.925781 20.363281 16.9375 20.375 L 16.15625 21.15625 L 16.84375 21.84375 L 18.21875 20.46875 C 18.300781 20.40625 18.375 20.332031 18.4375 20.25 L 21.21875 17.46875 C 21.300781 17.40625 21.375 17.332031 21.4375 17.25 L 24.21875 14.46875 C 24.300781 14.40625 24.375 14.332031 24.4375 14.25 L 25.84375 12.875 L 25.125 12.15625 L 24.375 12.9375 C 24.363281 12.925781 24.355469 12.917969 24.34375 12.90625 L 23.9375 12.5 L 27.6875 8.71875 L 28.03125 8.375 L 28 7.90625 C 28 7.90625 27.855469 6.417969 26.71875 5.28125 C 25.585938 4.148438 24.125 4 24.125 4 Z M 24.25 6.1875 C 24.519531 6.257813 24.855469 6.292969 25.28125 6.71875 C 25.714844 7.152344 25.75 7.519531 25.8125 7.78125 L 22.5 11.09375 L 22.15625 10.75 C 21.949219 10.527344 21.648438 10.414063 21.34375 10.4375 C 21.3125 10.4375 21.28125 10.4375 21.25 10.4375 C 20.875 10.503906 20.574219 10.777344 20.46875 11.140625 C 20.363281 11.507813 20.472656 11.898438 20.75 12.15625 L 21.09375 12.5 L 19.5 14.09375 L 19.15625 13.75 C 18.949219 13.527344 18.648438 13.414063 18.34375 13.4375 C 18.3125 13.4375 18.28125 13.4375 18.25 13.4375 C 17.875 13.503906 17.574219 13.777344 17.46875 14.140625 C 17.363281 14.507813 17.472656 14.898438 17.75 15.15625 L 18.09375 15.5 L 16.5 17.09375 L 16.15625 16.75 C 15.949219 16.527344 15.648438 16.414063 15.34375 16.4375 C 15.3125 16.4375 15.28125 16.4375 15.25 16.4375 C 14.875 16.503906 14.574219 16.777344 14.46875 17.140625 C 14.363281 17.507813 14.472656 17.898438 14.75 18.15625 L 15.09375 18.5 L 12.21875 21.34375 L 10.6875 19.75 Z M 22.5 13.9375 L 22.90625 14.34375 C 22.917969 14.355469 22.925781 14.363281 22.9375 14.375 L 21.375 15.9375 C 21.363281 15.925781 21.355469 15.917969 21.34375 15.90625 L 20.9375 15.5 Z M 19.5 16.9375 L 19.90625 17.34375 C 19.917969 17.355469 19.925781 17.363281 19.9375 17.375 L 18.375 18.9375 C 18.363281 18.925781 18.355469 18.917969 18.34375 18.90625 L 17.9375 18.5 Z M 9.28125 21.15625 L 10.8125 22.75 L 7.71875 25.84375 C 7.671875 25.824219 7.675781 25.832031 7.625 25.8125 C 7.257813 25.664063 6.835938 25.398438 6.71875 25.28125 C 6.601563 25.164063 6.335938 24.742188 6.1875 24.375 C 6.167969 24.324219 6.175781 24.328125 6.15625 24.28125 Z "></path>
</g>
</svg>
