<?xml version="1.0" encoding="UTF-8"?>
<svg xmlns="http://www.w3.org/2000/svg" xmlns:xlink="http://www.w3.org/1999/xlink" viewBox="0 0 32 32" version="1.1">
<g>
<path d="M 22 5 C 20.355469 5 19 6.355469 19 8 C 19 9.644531 20.355469 11 22 11 C 23.644531 11 25 9.644531 25 8 C 25 6.355469 23.644531 5 22 5 Z M 13 7 C 11.355469 7 10 8.355469 10 10 C 10 11.644531 11.355469 13 13 13 C 14.644531 13 16 11.644531 16 10 C 16 8.355469 14.644531 7 13 7 Z M 22 7 C 22.5625 7 23 7.4375 23 8 C 23 8.5625 22.5625 9 22 9 C 21.4375 9 21 8.5625 21 8 C 21 7.4375 21.4375 7 22 7 Z M 13 9 C 13.5625 9 14 9.4375 14 10 C 14 10.5625 13.5625 11 13 11 C 12.4375 11 12 10.5625 12 10 C 12 9.4375 12.4375 9 13 9 Z M 22 12 C 20.355469 12 19 13.355469 19 15 L 19 19.03125 L 17.59375 18.4375 L 16.8125 20.28125 L 19 21.21875 L 19 27 L 21 27 L 21 15 C 21 14.472656 21.394531 14.082031 21.90625 14.03125 L 22.53125 17.1875 L 22.5625 17.375 L 22.65625 17.53125 L 25.15625 21.53125 L 26.84375 20.46875 L 24.4375 16.59375 L 23.71875 12.8125 L 23.5625 12 Z M 21 19 L 22.40625 22.28125 L 23 27 L 25 27 L 24.3125 22 L 23 19 Z M 10.0625 13 C 9.429688 13.007813 8.84375 13.34375 8.5 13.875 L 6.4375 17.03125 C 5.640625 18.265625 5.945313 19.914063 7.125 20.78125 L 9 22.15625 L 7.28125 27 L 9.40625 27 L 10.875 22.84375 C 11.171875 22.019531 10.894531 21.082031 10.1875 20.5625 L 8.3125 19.1875 C 7.980469 18.941406 7.902344 18.472656 8.125 18.125 L 10.0625 15.09375 L 12.09375 18.0625 L 15.71875 19.78125 L 16.59375 17.96875 L 13.4375 16.5 L 11.625 13.8125 C 11.269531 13.289063 10.707031 12.972656 10.0625 13 Z M 11.78125 23.0625 L 10.65625 27 L 12.65625 27 Z "></path>
</g>
</svg>
