<?xml version="1.0" encoding="UTF-8"?>
<svg xmlns="http://www.w3.org/2000/svg" xmlns:xlink="http://www.w3.org/1999/xlink" viewBox="0 0 32 32" version="1.1">
<g>
<path d="M 16 6.65625 C 12.5 6.65625 9.109375 8.226563 6.53125 10.09375 C 5.242188 11.027344 4.132813 12.0625 3.34375 13.03125 C 2.886719 13.589844 2.519531 14.113281 2.28125 14.65625 C 2.261719 14.664063 2.238281 14.675781 2.21875 14.6875 C 1.707031 15.035156 1 15.730469 1 16.8125 C 1 17.347656 1.121094 17.460938 1.25 17.75 C 1.378906 18.039063 1.550781 18.378906 1.75 18.75 C 2.144531 19.488281 2.671875 20.386719 3.1875 21.25 C 4.214844 22.972656 5.25 24.59375 5.25 24.59375 L 5.34375 24.75 L 5.53125 24.875 C 5.53125 24.875 6.34375 25.410156 8 25.875 C 9.65625 26.339844 12.238281 26.8125 16 26.8125 C 19.761719 26.8125 22.34375 26.339844 24 25.875 C 25.65625 25.410156 26.46875 24.875 26.46875 24.875 L 26.65625 24.75 L 26.75 24.59375 C 26.75 24.59375 27.785156 22.972656 28.8125 21.25 C 29.328125 20.386719 29.855469 19.488281 30.25 18.75 C 30.449219 18.378906 30.621094 18.039063 30.75 17.75 C 30.878906 17.460938 31 17.347656 31 16.8125 C 31 15.691406 30.25 15.003906 29.71875 14.65625 C 29.480469 14.113281 29.113281 13.589844 28.65625 13.03125 C 27.867188 12.0625 26.757813 11.027344 25.46875 10.09375 C 22.890625 8.226563 19.5 6.65625 16 6.65625 Z M 16 8.65625 C 18.878906 8.65625 21.984375 10.035156 24.3125 11.71875 C 25.476563 12.5625 26.441406 13.484375 27.09375 14.28125 C 27.746094 15.078125 28 15.800781 28 15.90625 C 28 16.417969 27.863281 16.761719 27.5625 17.03125 C 27.261719 17.300781 26.707031 17.539063 25.6875 17.53125 C 25.167969 17.527344 24.527344 17.445313 23.75 17.1875 L 23.125 16.96875 L 22.6875 17.46875 C 22.089844 18.128906 20.792969 18.609375 19.34375 18.59375 C 18.339844 18.582031 17.359375 18.386719 16.53125 17.875 L 16 17.5625 L 15.46875 17.875 C 14.640625 18.386719 13.660156 18.582031 12.65625 18.59375 C 11.203125 18.609375 9.910156 18.128906 9.3125 17.46875 L 8.875 16.96875 L 8.25 17.1875 C 7.472656 17.445313 6.832031 17.527344 6.3125 17.53125 C 5.292969 17.539063 4.738281 17.300781 4.4375 17.03125 C 4.136719 16.761719 4 16.417969 4 15.90625 C 4 15.800781 4.253906 15.078125 4.90625 14.28125 C 5.558594 13.484375 6.523438 12.5625 7.6875 11.71875 C 10.015625 10.035156 13.121094 8.65625 16 8.65625 Z M 11.53125 11.65625 C 11.53125 11.65625 10.25 12.390625 10.0625 12.8125 C 9.871094 13.234375 10.078125 13.746094 10.5 13.9375 C 10.921875 14.125 11.40625 13.921875 11.59375 13.5 C 11.78125 13.078125 11.53125 11.65625 11.53125 11.65625 Z M 20.46875 11.65625 C 20.46875 11.65625 20.21875 13.078125 20.40625 13.5 C 20.597656 13.921875 21.078125 14.125 21.5 13.9375 C 21.921875 13.746094 22.128906 13.234375 21.9375 12.8125 C 21.75 12.390625 20.46875 11.65625 20.46875 11.65625 Z M 16 12 C 16 12 15 13.449219 15 14 C 15 14.550781 15.449219 15 16 15 C 16.550781 15 17 14.550781 17 14 C 17 13.449219 16 12 16 12 Z M 8.40625 19.1875 C 9.554688 20.128906 11.058594 20.613281 12.6875 20.59375 C 13.757813 20.582031 14.914063 20.347656 16 19.8125 C 17.085938 20.347656 18.242188 20.582031 19.3125 20.59375 C 20.941406 20.613281 22.445313 20.128906 23.59375 19.1875 C 24.332031 19.390625 25.035156 19.527344 25.65625 19.53125 C 26.402344 19.539063 27.070313 19.421875 27.65625 19.21875 C 27.457031 19.5625 27.304688 19.867188 27.09375 20.21875 C 26.148438 21.804688 25.308594 23.089844 25.1875 23.28125 C 25.117188 23.328125 24.777344 23.59375 23.4375 23.96875 C 21.976563 24.378906 19.601563 24.8125 16 24.8125 C 12.398438 24.8125 10.023438 24.378906 8.5625 23.96875 C 7.222656 23.59375 6.882813 23.328125 6.8125 23.28125 C 6.691406 23.089844 5.851563 21.804688 4.90625 20.21875 C 4.695313 19.867188 4.542969 19.5625 4.34375 19.21875 C 4.929688 19.421875 5.597656 19.539063 6.34375 19.53125 C 6.964844 19.527344 7.667969 19.390625 8.40625 19.1875 Z "></path>
</g>
</svg>
