<?xml version="1.0"?>
<svg xmlns="http://www.w3.org/2000/svg" viewBox="0 0 32 32">
    <path d="M 6 3 L 6 29 L 17 29 L 17 27 L 8 27 L 8 5 L 18 5 L 18 11 L 24 11 L 24 16 L 26 16 L 26 9.5859375 L 19.414062 3 L 6 3 z M 20 6.4140625 L 22.585938 9 L 20 9 L 20 6.4140625 z M 16 12 C 12.691 12 10 14.691 10 18 C 10 21.309 12.691 24 16 24 C 17.093 24 18.116 23.7005 19 23.1875 L 19 20.617188 C 18.266 21.457187 17.201 22 16 22 C 13.794 22 12 20.206 12 18 C 12 15.794 13.794 14 16 14 L 16 18 L 19 18 L 19 16 L 21.650391 16 C 20.824391 13.673 18.607 12 16 12 z M 21 18 L 21 27 L 19 27 L 19 29 C 19 30.64497 20.35503 32 22 32 L 29 32 C 30.64497 32 32 30.64497 32 29 L 32 18 L 21 18 z M 23 20 L 30 20 L 30 29 C 30 29.56503 29.56503 30 29 30 C 28.43497 30 28 29.56503 28 29 L 28 28 L 28 27 L 23 27 L 23 20 z M 21 29 L 26 29 C 26 29.351843 26.07394 29.685108 26.1875 30 L 22 30 C 21.43497 30 21 29.56503 21 29 z" font-weight="400" font-family="sans-serif" white-space="normal" overflow="visible"></path>
</svg>
