<?xml version="1.0" encoding="UTF-8"?>
<svg xmlns="http://www.w3.org/2000/svg" xmlns:xlink="http://www.w3.org/1999/xlink" viewBox="0 0 32 32" version="1.1">
<g>
<path d="M 16 4 C 9.933594 4 5 8.933594 5 15 C 5 19.273438 7.464844 22.960938 11.03125 24.78125 C 11.0625 24.066406 11.230469 23.417969 11.53125 22.8125 C 8.828125 21.257813 7 18.335938 7 15 C 7 10.039063 11.039063 6 16 6 C 20.960938 6 25 10.039063 25 15 C 25 18.335938 23.171875 21.257813 20.46875 22.8125 C 20.769531 23.421875 20.941406 24.066406 20.96875 24.78125 C 24.535156 22.960938 27 19.273438 27 15 C 27 8.933594 22.066406 4 16 4 Z M 16 22 C 14.355469 22 13 23.355469 13 25 C 13 26.644531 14.355469 28 16 28 C 17.644531 28 19 26.644531 19 25 C 19 23.355469 17.644531 22 16 22 Z M 16 24 C 16.5625 24 17 24.4375 17 25 C 17 25.5625 16.5625 26 16 26 C 15.4375 26 15 25.5625 15 25 C 15 24.4375 15.4375 24 16 24 Z "></path>
</g>
</svg>
