<?xml version="1.0" encoding="UTF-8"?>
<svg xmlns="http://www.w3.org/2000/svg" xmlns:xlink="http://www.w3.org/1999/xlink" viewBox="0 0 32 32" version="1.1">
<g>
<path d="M 4.6875 6.21875 C 4.6875 6.21875 3 7.503906 3 9.5625 C 3 11.160156 3.746094 12.285156 4.3125 12.90625 C 4.109375 13.546875 4 14.25 4 15 C 4 17.425781 4.558594 19.132813 5.0625 20.59375 C 5.566406 22.054688 6 23.238281 6 25 L 8 25 C 8 22.894531 7.433594 21.375 6.9375 19.9375 C 6.441406 18.5 6 17.136719 6 15 C 6 12.757813 7.203125 11.382813 8.9375 10.40625 C 10.671875 9.429688 12.9375 9 14.53125 9 C 17.597656 9 19.828125 10.058594 21.125 10.90625 C 20.957031 11.140625 20.796875 11.390625 20.625 11.625 L 22.25 12.8125 C 22.898438 11.925781 23.386719 11.175781 23.90625 10.71875 C 24.425781 10.261719 24.9375 10 26 10 L 26 8 C 24.542969 8 23.414063 8.5 22.59375 9.21875 C 22.527344 9.277344 22.472656 9.34375 22.40625 9.40625 C 20.863281 8.367188 18.164063 7 14.53125 7 C 12.605469 7 10.082031 7.449219 7.9375 8.65625 C 6.933594 9.222656 6.015625 10.003906 5.3125 10.96875 C 5.132813 10.625 5 10.167969 5 9.5625 C 5 8.710938 5.96875 7.75 5.96875 7.75 Z M 24.5625 12.03125 L 23.34375 13.625 C 24.304688 14.367188 24.578125 15.023438 24.875 15.75 C 25.023438 16.113281 25.15625 16.5 25.40625 16.90625 C 25.496094 17.050781 25.710938 17.140625 25.84375 17.28125 L 25.28125 18.8125 C 25.109375 18.988281 23.128906 21 20.375 21 L 18.90625 21 L 19.4375 22.34375 C 19.4375 22.34375 20 24.03125 20 25 L 22 25 C 22 24.207031 21.828125 23.410156 21.65625 22.78125 C 24.796875 22.238281 26.875 20.09375 26.875 20.09375 L 27.03125 19.9375 L 27.09375 19.75 L 27.9375 17.34375 L 28.28125 16.40625 L 27.375 16.0625 C 27.242188 16.011719 27.222656 16 27.125 15.84375 C 27.027344 15.6875 26.878906 15.398438 26.71875 15 C 26.394531 14.207031 25.867188 13.039063 24.5625 12.03125 Z M 22.5 16 C 22.222656 16 22 16.222656 22 16.5 C 22 16.777344 22.222656 17 22.5 17 C 22.777344 17 23 16.777344 23 16.5 C 23 16.222656 22.777344 16 22.5 16 Z M 9 19.5625 L 9 21.46875 L 9.25 21.75 C 9.25 21.75 9.359375 21.867188 9.5625 22.375 C 9.765625 22.882813 10 23.714844 10 24.96875 L 12 24.96875 C 12 23.820313 11.773438 23.105469 11.5625 22.40625 C 12.34375 22.632813 13.167969 22.988281 14 23 C 14.886719 23.011719 15.265625 23.003906 15.625 23 C 15.65625 23.0625 15.648438 23.027344 15.6875 23.125 C 15.84375 23.511719 16 24.117188 16 25 L 18 25 C 18 23.855469 17.773438 22.980469 17.53125 22.375 C 17.289063 21.769531 16.96875 21.375 16.96875 21.375 L 16.6875 21 L 16.1875 21 C 16.1875 21 15.171875 21.019531 14 21 C 12.878906 20.984375 12.003906 20.671875 10.34375 20.0625 Z "></path>
</g>
</svg>
