<?xml version="1.0" encoding="UTF-8"?>
<svg xmlns="http://www.w3.org/2000/svg" xmlns:xlink="http://www.w3.org/1999/xlink" viewBox="0 0 32 32" version="1.1">
<g>
<path d="M 5.75 2.34375 L 5.125 3.53125 C 5.125 3.53125 4 5.5625 4 8 C 4 11.199219 6.03125 13.046875 7.25 13.875 C 6.328125 14.605469 4 16.789063 4 21 C 4 24.863281 6.230469 27.050781 8.34375 28.03125 C 10.207031 28.894531 11.808594 28.960938 12.21875 28.96875 C 12.402344 29.109375 12.5 29.210938 12.9375 29.40625 C 13.621094 29.710938 14.632813 30 16 30 C 17.367188 30 18.378906 29.710938 19.0625 29.40625 C 19.5 29.210938 19.597656 29.109375 19.78125 28.96875 C 20.191406 28.960938 21.792969 28.894531 23.65625 28.03125 C 25.769531 27.050781 28 24.863281 28 21 C 28 16.789063 25.671875 14.605469 24.75 13.875 C 25.96875 13.046875 28 11.199219 28 8 C 28 5.5625 26.875 3.53125 26.875 3.53125 L 26.25 2.34375 L 25.28125 3.28125 C 25.28125 3.28125 24.359375 4.222656 22.5625 5.09375 C 21.324219 5.695313 20.558594 6.613281 20.125 7.28125 C 19.003906 6.523438 17.632813 6 16 6 C 14.367188 6 12.996094 6.523438 11.875 7.28125 C 11.441406 6.613281 10.675781 5.695313 9.4375 5.09375 C 7.640625 4.222656 6.71875 3.28125 6.71875 3.28125 Z M 6.46875 5.5 C 6.996094 5.933594 7.238281 6.265625 8.5625 6.90625 C 9.480469 7.351563 10.078125 8.167969 10.34375 8.59375 C 9.917969 9.050781 9.558594 9.527344 9.25 10 C 8.738281 10.777344 8.382813 11.488281 8.125 12.09375 C 7.253906 11.476563 6 10.203125 6 8 C 6 7.042969 6.234375 6.167969 6.46875 5.5 Z M 25.53125 5.5 C 25.765625 6.167969 26 7.042969 26 8 C 26 10.203125 24.746094 11.476563 23.875 12.09375 C 23.617188 11.488281 23.261719 10.777344 22.75 10 C 22.441406 9.527344 22.082031 9.050781 21.65625 8.59375 C 21.921875 8.167969 22.519531 7.351563 23.4375 6.90625 C 24.761719 6.265625 25.003906 5.933594 25.53125 5.5 Z M 16 8 C 18.433594 8 19.996094 9.472656 21.0625 11.09375 C 22.128906 12.714844 22.5625 14.34375 22.5625 14.34375 L 22.65625 14.75 L 23 14.9375 C 23 14.9375 26 16.824219 26 21 C 26 24.148438 24.460938 25.453125 22.8125 26.21875 C 21.164063 26.984375 19.46875 27 19.46875 27 L 19.0625 27 L 18.78125 27.28125 C 18.78125 27.28125 18.6875 27.398438 18.25 27.59375 C 17.8125 27.789063 17.09375 28 16 28 C 14.90625 28 14.1875 27.789063 13.75 27.59375 C 13.3125 27.398438 13.21875 27.28125 13.21875 27.28125 L 12.9375 27 L 12.53125 27 C 12.53125 27 10.835938 26.984375 9.1875 26.21875 C 7.539063 25.453125 6 24.148438 6 21 C 6 16.824219 9 14.9375 9 14.9375 L 9.34375 14.75 L 9.4375 14.34375 C 9.4375 14.34375 9.871094 12.714844 10.9375 11.09375 C 12.003906 9.472656 13.566406 8 16 8 Z M 13 12 C 12.449219 12 12 12.449219 12 13 C 12 13.375 12.226563 13.671875 12.53125 13.84375 C 12.3125 13.960938 12.105469 14.078125 11.90625 14.21875 C 10.804688 14.988281 10 16.148438 10 17.5 C 10 18.875 10.8125 20.042969 11.9375 20.8125 L 13.0625 19.1875 C 12.332031 18.6875 12 18.085938 12 17.5 C 12 16.917969 12.320313 16.339844 13.03125 15.84375 C 13.742188 15.347656 14.808594 15 16 15 C 17.191406 15 18.257813 15.347656 18.96875 15.84375 C 19.679688 16.339844 20 16.917969 20 17.5 C 20 18.085938 19.667969 18.6875 18.9375 19.1875 L 20.0625 20.8125 C 21.1875 20.042969 22 18.875 22 17.5 C 22 16.148438 21.195313 14.988281 20.09375 14.21875 C 19.894531 14.078125 19.6875 13.960938 19.46875 13.84375 C 19.773438 13.671875 20 13.375 20 13 C 20 12.449219 19.550781 12 19 12 C 18.449219 12 18 12.449219 18 13 C 18 13.101563 18.035156 13.1875 18.0625 13.28125 C 17.414063 13.101563 16.726563 13 16 13 C 15.273438 13 14.585938 13.101563 13.9375 13.28125 C 13.964844 13.1875 14 13.101563 14 13 C 14 12.449219 13.550781 12 13 12 Z M 14.25 17 C 13.835938 17 13.5 17.449219 13.5 18 C 13.5 18.550781 13.835938 19 14.25 19 C 14.664063 19 15 18.550781 15 18 C 15 17.449219 14.664063 17 14.25 17 Z M 17.75 17 C 17.335938 17 17 17.449219 17 18 C 17 18.550781 17.335938 19 17.75 19 C 18.164063 19 18.5 18.550781 18.5 18 C 18.5 17.449219 18.164063 17 17.75 17 Z M 14.78125 21 C 13.339844 21 12.699219 22.925781 11 23 C 11 23 13.144531 26 16 26 C 18.855469 26 21 23 21 23 C 19.304688 22.925781 18.664063 21 17.21875 21 C 16.703125 21 16.289063 21.34375 16 21.34375 C 15.710938 21.34375 15.269531 21 14.78125 21 Z "></path>
</g>
</svg>
