<?xml version="1.0" encoding="UTF-8"?>
<svg xmlns="http://www.w3.org/2000/svg" xmlns:xlink="http://www.w3.org/1999/xlink" viewBox="0 0 32 32" version="1.1">
<g>
<path d="M 20.5625 4 C 18.65625 4 16.730469 4.738281 15.28125 6.1875 L 6.1875 15.28125 C 3.289063 18.179688 3.289063 22.914063 6.1875 25.8125 C 9.085938 28.710938 13.820313 28.710938 16.71875 25.8125 L 25.8125 16.71875 C 28.710938 13.820313 28.710938 9.085938 25.8125 6.1875 C 24.363281 4.738281 22.46875 4 20.5625 4 Z M 20.5625 6 C 21.953125 6 23.339844 6.527344 24.40625 7.59375 C 26.539063 9.726563 26.539063 13.144531 24.40625 15.28125 L 20.5625 19.125 L 12.875 11.4375 L 16.71875 7.59375 C 17.785156 6.527344 19.171875 6 20.5625 6 Z M 11.4375 12.875 L 19.125 20.5625 L 15.28125 24.40625 C 13.148438 26.539063 9.730469 26.539063 7.59375 24.40625 C 5.460938 22.273438 5.460938 18.855469 7.59375 16.71875 Z "></path>
</g>
</svg>
