<?xml version="1.0" encoding="UTF-8"?>
<svg xmlns="http://www.w3.org/2000/svg" xmlns:xlink="http://www.w3.org/1999/xlink" viewBox="0 0 32 32" version="1.1">
<g>
<path d="M 22 4 C 18.691406 4 16 6.691406 16 10 C 16 13.308594 18.691406 16 22 16 C 25.308594 16 28 13.308594 28 10 C 28 6.691406 25.308594 4 22 4 Z M 22 6 C 24.238281 6 26 7.761719 26 10 C 26 12.238281 24.238281 14 22 14 C 19.761719 14 18 12.238281 18 10 C 18 7.761719 19.761719 6 22 6 Z M 9 12 C 5.691406 12 3 14.691406 3 18 C 3 20.742188 4.851563 23.070313 7.375 23.78125 L 23.1875 27.875 L 23.1875 27.90625 C 23.445313 27.976563 23.722656 28 24 28 C 25.644531 28 27 26.644531 27 25 C 27 24.0625 26.558594 23.207031 25.875 22.65625 L 25.6875 22.5 L 12.375 13.03125 C 11.417969 12.386719 10.242188 12 9 12 Z M 9 14 C 9.839844 14 10.613281 14.257813 11.25 14.6875 L 24.5625 24.15625 L 24.71875 24.28125 C 24.898438 24.460938 25 24.714844 25 25 C 25 25.574219 24.574219 26 24 26 C 23.933594 26 23.875 25.976563 23.8125 25.96875 L 7.90625 21.84375 C 7.898438 21.839844 7.882813 21.847656 7.875 21.84375 C 6.207031 21.363281 5 19.84375 5 18 C 5 15.761719 6.761719 14 9 14 Z M 9 16 C 7.894531 16 7 16.894531 7 18 C 7 19.105469 7.894531 20 9 20 C 10.105469 20 11 19.105469 11 18 C 11 16.894531 10.105469 16 9 16 Z "></path>
</g>
</svg>
