<?xml version="1.0" encoding="UTF-8"?>
<svg xmlns="http://www.w3.org/2000/svg" xmlns:xlink="http://www.w3.org/1999/xlink" viewBox="0 0 32 32" version="1.1">
<g>
<path d="M 26 0 C 22.699219 0 20 2.699219 20 6 C 20 7.292969 20.421875 8.488281 21.125 9.46875 L 19.125 11.46875 L 17 9.34375 L 17 15 L 22.65625 15 L 20.53125 12.875 L 22.53125 10.875 C 23.511719 11.578125 24.707031 12 26 12 C 29.300781 12 32 9.300781 32 6 C 32 2.699219 29.300781 0 26 0 Z M 26 2 C 28.222656 2 30 3.777344 30 6 C 30 8.222656 28.222656 10 26 10 C 23.777344 10 22 8.222656 22 6 C 22 3.777344 23.777344 2 26 2 Z M 9.34375 17 L 11.46875 19.125 L 9.46875 21.125 C 8.488281 20.421875 7.292969 20 6 20 C 2.699219 20 0 22.699219 0 26 C 0 29.300781 2.699219 32 6 32 C 9.300781 32 12 29.300781 12 26 C 12 24.707031 11.578125 23.511719 10.875 22.53125 L 12.875 20.53125 L 15 22.65625 L 15 17 Z M 6 22 C 8.222656 22 10 23.777344 10 26 C 10 28.222656 8.222656 30 6 30 C 3.777344 30 2 28.222656 2 26 C 2 23.777344 3.777344 22 6 22 Z "></path>
</g>
</svg>
