<?xml version="1.0" encoding="UTF-8"?>
<svg xmlns="http://www.w3.org/2000/svg" xmlns:xlink="http://www.w3.org/1999/xlink" viewBox="0 0 32 32" version="1.1">
<g>
<path d="M 3 7 L 3 10 L 6 10 L 6 7 Z M 8 7 L 8 10 L 11 10 L 11 7 Z M 13 7 L 13 10 L 16 10 L 16 7 Z M 20 7 L 20 10 L 29 10 L 29 7 Z M 3 12 L 3 15 L 6 15 L 6 12 Z M 8 12 L 8 15 L 11 15 L 11 12 Z M 13 12 L 13 15 L 16 15 L 16 12 Z M 20 12 L 20 15 L 29 15 L 29 12 Z M 3 17 L 3 20 L 6 20 L 6 17 Z M 8 17 L 8 20 L 11 20 L 11 17 Z M 13 17 L 13 20 L 16 20 L 16 17 Z M 20 17 L 20 20 L 29 20 L 29 17 Z M 3 22 L 3 25 L 6 25 L 6 22 Z M 8 22 L 8 25 L 11 25 L 11 22 Z M 13 22 L 13 25 L 16 25 L 16 22 Z M 20 22 L 20 25 L 29 25 L 29 22 Z "></path>
</g>
</svg>
