<?xml version="1.0" encoding="UTF-8"?>
<svg xmlns="http://www.w3.org/2000/svg" xmlns:xlink="http://www.w3.org/1999/xlink" viewBox="0 0 32 32" version="1.1">
<g>
<path d="M 19.34375 3 L 19.03125 3.46875 C 19.03125 3.46875 18.53125 4.28125 18.03125 5.34375 C 17.660156 6.132813 17.269531 7.046875 17.09375 8 L 16 8 C 13.019531 8 9.925781 9.960938 7.4375 12.34375 C 4.949219 14.726563 3 17.488281 3 20 C 3 23.113281 4.316406 25.148438 5 26 C 5.207031 26.257813 5.375 26.441406 5.40625 26.46875 C 5.410156 26.472656 5.46875 26.5625 5.46875 26.5625 L 5.5 26.53125 C 5.558594 26.597656 6.035156 27.195313 7.0625 27.78125 C 8.148438 28.398438 9.800781 29 12 29 C 14.597656 29 17.394531 27.054688 19.75 24.5625 C 22.105469 22.070313 24 18.964844 24 16 L 24 14.90625 C 24.949219 14.71875 25.863281 14.296875 26.65625 13.90625 C 27.726563 13.378906 28.53125 12.84375 28.53125 12.84375 L 29 12.5625 L 29 11.28125 L 28.4375 11.03125 L 26.71875 10.1875 C 27.074219 9.394531 27.300781 8.53125 27.5 7.71875 C 27.84375 6.332031 28 5.125 28 5.125 L 26.875 4 C 26.875 4 25.695313 4.136719 24.3125 4.46875 C 23.488281 4.667969 22.597656 4.902344 21.78125 5.28125 L 20.90625 3.5625 L 20.625 3 Z M 19.90625 6.0625 L 21.78125 9.75 L 21.9375 10.0625 L 22.25 10.21875 L 25.90625 12 C 25.820313 12.042969 25.839844 12.050781 25.75 12.09375 C 24.90625 12.507813 23.980469 12.820313 23.34375 12.90625 L 19.09375 8.65625 C 19.175781 7.96875 19.453125 7.019531 19.84375 6.1875 C 19.875 6.117188 19.875 6.128906 19.90625 6.0625 Z M 25.71875 6.25 C 25.644531 6.65625 25.664063 6.71875 25.53125 7.25 C 25.359375 7.941406 25.09375 8.667969 24.84375 9.25 L 23.4375 8.5625 L 22.71875 7.125 C 23.320313 6.847656 24.066406 6.578125 24.78125 6.40625 C 25.28125 6.285156 25.332031 6.316406 25.71875 6.25 Z M 17 10 L 17.5625 10 L 19 11.4375 L 19 12 L 17 12 Z M 15 10.125 L 15 12 L 13 12 L 13 10.875 C 13.699219 10.535156 14.371094 10.261719 15 10.125 Z M 21 13.4375 L 22 14.4375 L 22 16 C 22 18.035156 20.414063 20.929688 18.28125 23.1875 C 16.148438 25.445313 13.445313 27 12 27 C 10.15625 27 8.882813 26.527344 8.0625 26.0625 C 8.035156 26.046875 8.027344 26.015625 8 26 L 9 26 L 9 22 L 13 22 L 13 18 L 17 18 L 17 14 L 21 14 Z M 9 14 L 11 14 L 11 16 L 9 16 Z M 13 14 L 15 14 L 15 16 L 13 16 Z M 7 15.875 L 7 16 L 6.90625 16 C 6.9375 15.960938 6.96875 15.914063 7 15.875 Z M 5.65625 18 L 7 18 L 7 20 L 5 20 C 5 19.507813 5.246094 18.808594 5.65625 18 Z M 9 18 L 11 18 L 11 20 L 9 20 Z M 5.25 22 L 7 22 L 7 24 L 6.03125 24 C 5.738281 23.503906 5.453125 22.847656 5.25 22 Z "></path>
</g>
</svg>
