<?xml version="1.0" encoding="UTF-8"?>
<svg xmlns="http://www.w3.org/2000/svg" xmlns:xlink="http://www.w3.org/1999/xlink" viewBox="0 0 32 32" version="1.1">
<g>
<path d="M 16 4 C 12.140625 4 9 7.195313 9 11.125 L 9 12 C 9 12.429688 8.96875 12.839844 8.929688 13.242188 C 8.074219 15.929688 4.726563 19.871094 3 21 C 3.9375 21 6.023438 20.878906 7.492188 20.296875 C 7.460938 22.042969 7.945313 23.65625 8.945313 24.984375 C 9.242188 25.378906 9.585938 25.726563 9.953125 26.046875 L 8 28 L 24 28 L 22.046875 26.046875 C 22.414063 25.726563 22.753906 25.378906 23.050781 24.984375 C 24.054688 23.65625 24.539063 22.042969 24.511719 20.296875 C 25.976563 20.878906 28.0625 21 29 21 C 27.273438 19.871094 23.925781 15.929688 23.074219 13.242188 C 23.03125 12.839844 23 12.429688 23 12 L 23 11.125 C 23 7.195313 19.859375 4 16 4 Z M 14 7 C 14.773438 7 15.46875 7.300781 16 7.78125 C 16.53125 7.300781 17.226563 7 18 7 C 19.65625 7 21 8.34375 21 10 L 21 12 C 21 14.179688 21.523438 15.96875 22.03125 17.703125 L 22.210938 18.328125 C 22.808594 20.40625 22.539063 22.34375 21.453125 23.78125 C 20.375 25.210938 18.597656 26 16.449219 26 L 15.550781 26 C 13.402344 26 11.625 25.210938 10.546875 23.78125 C 9.460938 22.339844 9.191406 20.40625 9.789063 18.328125 L 9.96875 17.703125 C 10.476563 15.96875 11 14.179688 11 12 L 11 10 C 11 8.34375 12.34375 7 14 7 Z M 14 9 C 13.449219 9 13 9.449219 13 10 C 13 10.550781 13.449219 11 14 11 C 14.550781 11 15 10.550781 15 10 C 15 9.449219 14.550781 9 14 9 Z M 18 9 C 17.449219 9 17 9.449219 17 10 C 17 10.550781 17.449219 11 18 11 C 18.550781 11 19 10.550781 19 10 C 19 9.449219 18.550781 9 18 9 Z M 16 12 L 14 13.5 L 16 15 L 18 13.5 Z "></path>
</g>
</svg>
