<?xml version="1.0" encoding="UTF-8"?>
<svg xmlns="http://www.w3.org/2000/svg" xmlns:xlink="http://www.w3.org/1999/xlink" viewBox="0 0 32 32" version="1.1">
<g>
<path d="M 10.90625 4.875 L 10.5 5.15625 L 5.5 8.15625 L 4.625 8.65625 L 5.125 9.5 C 5.125 9.5 6.628906 12.101563 6.9375 15 L 5 15 L 5 19.84375 L 5.21875 20.125 L 6.3125 21.40625 C 6.101563 21.890625 6 22.441406 6 23 C 6 25.195313 7.804688 27 10 27 C 11.851563 27 13.398438 25.71875 13.84375 24 L 18.15625 24 C 18.601563 25.71875 20.148438 27 22 27 C 24.195313 27 26 25.195313 26 23 C 26 22.476563 25.90625 21.960938 25.71875 21.5 L 26.78125 20.09375 L 27 19.8125 L 27 15 L 25.0625 15 C 25.371094 12.101563 26.875 9.5 26.875 9.5 L 27.375 8.65625 L 26.5 8.15625 L 21.5 5.15625 L 21.09375 4.875 L 20.625 5.0625 C 20.625 5.0625 18.160156 6 16 6 C 13.839844 6 11.375 5.0625 11.375 5.0625 Z M 10.65625 7.34375 C 10.78125 7.582031 10.910156 7.875 11.0625 8.25 C 11.519531 9.390625 12 11.121094 12 13.4375 L 14 13.4375 C 14 10.925781 13.523438 8.972656 13 7.625 C 13.847656 7.816406 14.871094 8 16 8 C 17.128906 8 18.152344 7.816406 19 7.625 C 18.476563 8.972656 18 10.925781 18 13.4375 L 20 13.4375 C 20 11.121094 20.480469 9.390625 20.9375 8.25 C 21.089844 7.875 21.21875 7.582031 21.34375 7.34375 L 24.71875 9.375 C 24.238281 10.269531 23.269531 12.289063 23.0625 15 L 8.9375 15 C 8.730469 12.289063 7.761719 10.269531 7.28125 9.375 Z M 7 17 L 25 17 L 25 19.15625 L 24.4375 19.875 C 23.757813 19.339844 22.925781 19 22 19 C 20.148438 19 18.601563 20.28125 18.15625 22 L 13.84375 22 C 13.398438 20.28125 11.851563 19 10 19 C 9.105469 19 8.292969 19.308594 7.625 19.8125 L 7 19.09375 Z M 10 21 C 11.113281 21 12 21.886719 12 23 C 12 24.113281 11.113281 25 10 25 C 8.886719 25 8 24.113281 8 23 C 8 21.886719 8.886719 21 10 21 Z M 22 21 C 23.113281 21 24 21.886719 24 23 C 24 24.113281 23.113281 25 22 25 C 20.886719 25 20 24.113281 20 23 C 20 21.886719 20.886719 21 22 21 Z "></path>
</g>
</svg>
