<?xml version="1.0" encoding="UTF-8"?>
<svg xmlns="http://www.w3.org/2000/svg" xmlns:xlink="http://www.w3.org/1999/xlink" viewBox="0 0 32 32" version="1.1">
<g>
<path d="M 2.316406 5 L 3.125 6.476563 L 16 30.089844 L 29.683594 5 Z M 5.683594 7 L 26.316406 7 L 23.613281 11.957031 L 8.386719 11.957031 Z M 9.476563 13.957031 L 11 13.957031 C 11 13.972656 11 13.984375 11 14 C 11 14.550781 11.449219 15 12 15 C 12.550781 15 13 14.550781 13 14 C 13 13.984375 13 13.972656 13 13.957031 L 15 13.957031 C 15 13.972656 15 13.984375 15 14 C 15 14.550781 15.449219 15 16 15 C 16.550781 15 17 14.550781 17 14 C 17 13.984375 17 13.972656 17 13.957031 L 19 13.957031 C 19 13.972656 19 13.984375 19 14 C 19 14.550781 19.449219 15 20 15 C 20.550781 15 21 14.550781 21 14 C 21 13.984375 21 13.972656 21 13.957031 L 22.519531 13.957031 L 19.640625 19.238281 L 12.359375 19.238281 Z M 14 16 C 13.449219 16 13 16.449219 13 17 C 13 17.550781 13.449219 18 14 18 C 14.550781 18 15 17.550781 15 17 C 15 16.449219 14.550781 16 14 16 Z M 18 16 C 17.449219 16 17 16.449219 17 17 C 17 17.550781 17.449219 18 18 18 C 18.550781 18 19 17.550781 19 17 C 19 16.449219 18.550781 16 18 16 Z "></path>
</g>
</svg>
