<?xml version="1.0" encoding="UTF-8"?>
<svg xmlns="http://www.w3.org/2000/svg" xmlns:xlink="http://www.w3.org/1999/xlink" viewBox="0 0 32 32" version="1.1">
<g>
<path d="M 4 4 L 4 6 L 5 6 L 5 10 C 5 12.746094 7.253906 15 10 15 L 15 15 L 15 16 L 17 16 L 17 15 L 22 15 L 22 18 C 22 18.03125 22 18.0625 22 18.09375 L 22 19 L 28 19 L 28 18.15625 C 28.003906 18.105469 28.003906 18.050781 28 18 L 28 14 C 28 11.253906 25.746094 9 23 9 L 17 9 L 17 8 L 15 8 L 15 9 L 11 9 L 11 6 L 12 6 L 12 4 Z M 7 6 L 9 6 L 9 10 C 9 10.550781 9.449219 11 10 11 L 15 11 L 15 13 L 10 13 C 8.34375 13 7 11.65625 7 10 Z M 17 11 L 23 11 C 24.65625 11 26 12.34375 26 14 L 26 17 L 24 17 L 24 14 C 24 13.449219 23.550781 13 23 13 L 17 13 Z M 25 19.25 L 24.1875 20.4375 C 24.1875 20.4375 23.648438 21.191406 23.125 22.09375 C 22.863281 22.546875 22.617188 23.019531 22.40625 23.5 C 22.195313 23.980469 22 24.421875 22 25 C 22 26.644531 23.355469 28 25 28 C 26.644531 28 28 26.644531 28 25 C 28 24.421875 27.804688 23.980469 27.59375 23.5 C 27.382813 23.019531 27.136719 22.546875 26.875 22.09375 C 26.351563 21.191406 25.8125 20.4375 25.8125 20.4375 Z M 25 22.875 C 25.066406 22.984375 25.058594 22.976563 25.125 23.09375 C 25.363281 23.503906 25.617188 23.941406 25.78125 24.3125 C 25.945313 24.683594 26 25.027344 26 25 C 26 25.554688 25.554688 26 25 26 C 24.445313 26 24 25.554688 24 25 C 24 25.027344 24.054688 24.683594 24.21875 24.3125 C 24.382813 23.941406 24.636719 23.503906 24.875 23.09375 C 24.941406 22.976563 24.933594 22.984375 25 22.875 Z "></path>
</g>
</svg>
