<?xml version="1.0" encoding="UTF-8"?>
<svg xmlns="http://www.w3.org/2000/svg" xmlns:xlink="http://www.w3.org/1999/xlink" viewBox="0 0 32 32" version="1.1">
<g>
<path d="M 24.75 3.96875 C 24.75 3.96875 23.484375 4.992188 22.3125 6.96875 C 21.238281 8.777344 20.203125 11.453125 20.03125 15 L 11.96875 15 C 11.796875 11.394531 10.726563 8.742188 9.625 6.96875 C 8.425781 5.035156 7.125 4.0625 7.125 4.0625 L 5.9375 5.6875 C 5.9375 5.6875 6.878906 6.34375 7.90625 8 C 8.839844 9.503906 9.796875 11.792969 9.96875 15 L 7 15 L 7 17 L 9.96875 17 C 9.796875 20.214844 8.84375 22.546875 7.90625 24.09375 C 6.875 25.796875 5.9375 26.5 5.9375 26.5 L 7.15625 28.09375 C 7.15625 28.09375 8.429688 27.097656 9.625 25.125 C 10.722656 23.316406 11.796875 20.613281 11.96875 17 L 20.03125 17 C 20.203125 20.550781 21.25 23.246094 22.3125 25.0625 C 23.472656 27.046875 24.6875 28.0625 24.6875 28.0625 L 25.96875 26.53125 C 25.96875 26.53125 25.039063 25.753906 24.03125 24.03125 C 23.117188 22.46875 22.195313 20.164063 22.03125 17 L 25 17 L 25 15 L 22.03125 15 C 22.199219 11.835938 23.140625 9.523438 24.0625 7.96875 C 25.078125 6.257813 26 5.53125 26 5.53125 Z "></path>
</g>
</svg>
