<?xml version="1.0" encoding="UTF-8"?>
<svg xmlns="http://www.w3.org/2000/svg" xmlns:xlink="http://www.w3.org/1999/xlink" viewBox="0 0 32 32" version="1.1">
<g>
<path d="M 9 4 L 9 14.375 L 10.3125 13.9375 C 10.3125 13.9375 11.183594 13.683594 12.375 13.4375 L 11.28125 18.4375 L 10.28125 18.21875 C 9.214844 17.984375 8.140625 18.683594 7.90625 19.75 L 7.03125 23.65625 C 6.796875 24.722656 7.496094 25.796875 8.5625 26.03125 L 9.65625 26.28125 C 10.324219 27.035156 11.179688 27.636719 12.25 27.875 C 13.320313 28.109375 14.359375 27.933594 15.28125 27.53125 L 16.375 27.78125 C 17.441406 28.015625 18.515625 27.316406 18.75 26.25 L 19.625 22.34375 C 19.859375 21.277344 19.160156 20.203125 18.09375 19.96875 L 17.125 19.75 L 18.59375 13.25 C 20.289063 13.527344 21.6875 13.9375 21.6875 13.9375 L 23 14.375 L 23 4 Z M 11 6 L 21 6 L 21 11.71875 C 19.832031 11.410156 18.101563 11 16 11 C 13.898438 11 12.167969 11.410156 11 11.71875 Z M 16 7 C 15.171875 7 14.5 7.671875 14.5 8.5 C 14.5 9.328125 15.171875 10 16 10 C 16.828125 10 17.5 9.328125 17.5 8.5 C 17.5 7.671875 16.828125 7 16 7 Z M 16 13 C 16.199219 13 16.394531 13.023438 16.59375 13.03125 L 15.0625 19.84375 L 14.9375 20.40625 L 15.34375 20.8125 C 15.496094 20.957031 15.644531 21.074219 15.75 21.21875 L 15.96875 21.53125 L 16.3125 21.625 L 17.6875 21.90625 L 16.8125 25.8125 L 15.46875 25.53125 L 15.09375 25.4375 L 14.78125 25.625 C 14.15625 25.96875 13.421875 26.101563 12.6875 25.9375 C 11.953125 25.773438 11.359375 25.355469 10.9375 24.78125 L 10.71875 24.46875 L 10.34375 24.375 L 9 24.09375 L 9.875 20.1875 L 11.21875 20.46875 L 11.5625 20.5625 L 11.90625 20.375 C 12.0625 20.289063 12.238281 20.222656 12.4375 20.15625 L 12.96875 19.96875 L 13.09375 19.4375 L 14.53125 13.09375 C 15.023438 13.042969 15.511719 13 16 13 Z M 13.375 21.5625 C 12.546875 21.5625 11.875 22.234375 11.875 23.0625 C 11.875 23.890625 12.546875 24.5625 13.375 24.5625 C 14.203125 24.5625 14.875 23.890625 14.875 23.0625 C 14.875 22.234375 14.203125 21.5625 13.375 21.5625 Z "></path>
</g>
</svg>
