<?xml version="1.0" encoding="UTF-8"?>
<svg xmlns="http://www.w3.org/2000/svg" xmlns:xlink="http://www.w3.org/1999/xlink" viewBox="0 0 32 32" version="1.1">
<g>
<path d="M 5 5 L 5 27 L 27 27 L 27 5 Z M 7 7 L 11 7 L 11 11 L 7 11 Z M 13 7 L 25 7 L 25 11 L 13 11 Z M 7 13 L 11 13 L 11 25 L 7 25 Z M 13 13 L 25 13 L 25 25 L 13 25 Z M 21 14 L 18 17 L 20 17 L 20 19 C 20 19.566406 19.566406 20 19 20 L 17 20 L 17 18 L 14 21 L 17 24 L 17 22 L 19 22 C 20.644531 22 22 20.644531 22 19 L 22 17 L 24 17 Z "></path>
</g>
</svg>
