<?xml version="1.0" encoding="UTF-8"?>
<svg xmlns="http://www.w3.org/2000/svg" xmlns:xlink="http://www.w3.org/1999/xlink" viewBox="0 0 32 32" version="1.1">
<g>
<path d="M 19.300781 2.007813 C 18.984375 1.976563 18.671875 2.035156 18.417969 2.117188 C 17.902344 2.289063 17.441406 2.601563 17.019531 3.023438 C 16.601563 3.441406 16.289063 3.90625 16.121094 4.417969 C 15.949219 4.929688 15.886719 5.65625 16.433594 6.203125 C 17.375 7.144531 17.453125 8.082031 17.5 9.296875 C 17.550781 10.480469 17.519531 11.992188 18.628906 13.1875 C 18.660156 13.21875 18.679688 13.253906 18.710938 13.28125 C 18.710938 13.28125 18.714844 13.28125 18.714844 13.28125 C 18.71875 13.289063 18.722656 13.292969 18.726563 13.296875 C 18.773438 13.339844 18.820313 13.382813 18.875 13.417969 C 19.742188 14.144531 20.953125 14.109375 22.046875 13.742188 C 23.210938 13.355469 24.410156 12.578125 25.492188 11.496094 C 26.574219 10.410156 27.351563 9.214844 27.738281 8.050781 C 28.113281 6.933594 28.144531 5.691406 27.371094 4.820313 C 27.351563 4.796875 27.335938 4.773438 27.3125 4.753906 C 27.300781 4.742188 27.292969 4.726563 27.28125 4.710938 C 27.273438 4.707031 27.265625 4.703125 27.261719 4.695313 C 27.257813 4.691406 27.253906 4.6875 27.25 4.683594 C 27.234375 4.671875 27.21875 4.664063 27.207031 4.648438 C 27.101563 4.554688 26.996094 4.46875 26.878906 4.398438 C 25.617188 3.472656 24.214844 3.527344 23.175781 3.53125 C 22.039063 3.53125 21.269531 3.539063 20.210938 2.445313 L 20.207031 2.445313 C 19.9375 2.164063 19.617188 2.039063 19.300781 2.007813 Z M 19 4.039063 C 19.910156 4.890625 20.886719 5.265625 21.78125 5.421875 C 21.34375 5.738281 20.914063 6.089844 20.5 6.5 C 20.066406 6.9375 19.695313 7.394531 19.363281 7.855469 C 19.207031 6.921875 18.851563 5.917969 18.035156 5.007813 C 18.089844 4.875 18.222656 4.648438 18.4375 4.4375 C 18.644531 4.226563 18.863281 4.097656 19 4.039063 Z M 25.46875 6 C 25.660156 6.011719 25.773438 6.058594 25.835938 6.109375 C 25.847656 6.121094 25.863281 6.128906 25.875 6.140625 C 25.984375 6.265625 26.09375 6.660156 25.84375 7.417969 C 25.582031 8.195313 24.96875 9.1875 24.078125 10.078125 C 23.1875 10.96875 22.195313 11.585938 21.417969 11.84375 C 20.644531 12.101563 20.242188 11.980469 20.125 11.871094 C 20.125 11.867188 20.125 11.863281 20.121094 11.859375 C 20.011719 11.742188 19.894531 11.34375 20.152344 10.578125 C 20.253906 10.269531 20.425781 9.921875 20.640625 9.5625 C 20.992188 9.828125 21.421875 10 21.894531 10 C 23.058594 10 24 9.058594 24 7.898438 C 24 7.421875 23.828125 6.992188 23.5625 6.640625 C 23.917969 6.429688 24.265625 6.253906 24.578125 6.152344 C 24.964844 6.023438 25.257813 5.988281 25.46875 6 Z M 16.527344 9.015625 L 9 18.140625 L 9 19.246094 L 12 24.996094 L 12 28 L 7 28 L 7 30 L 19 30 L 19 28 L 14 28 L 14 25.414063 L 16.984375 22.433594 L 15.191406 19.109375 L 17 16.851563 L 17 12.238281 C 16.675781 11.347656 16.617188 10.4375 16.574219 9.640625 C 16.558594 9.414063 16.542969 9.210938 16.527344 9.015625 Z M 15 14.011719 L 15 16.148438 L 13.519531 18 L 11.707031 18 Z M 11.648438 20 L 13.402344 20 L 14.515625 22.066406 L 13.34375 23.246094 Z "></path>
</g>
</svg>
