<?xml version="1.0" encoding="UTF-8"?>
<svg xmlns="http://www.w3.org/2000/svg" xmlns:xlink="http://www.w3.org/1999/xlink" viewBox="0 0 32 32" version="1.1">
<g>
<path d="M 19 2 C 15.699219 2 13 4.699219 13 8 C 13 9.445313 13.527344 10.769531 14.390625 11.808594 L 9 18.128906 L 9 19.246094 L 12 24.996094 L 12 28 L 7 28 L 7 30 L 19 30 L 19 28 L 14 28 L 14 25.414063 L 16.984375 22.433594 L 15.191406 19.109375 L 17 16.851563 L 17 13.648438 C 17.628906 13.871094 18.296875 14 19 14 C 22.300781 14 25 11.300781 25 8 C 25 4.699219 22.300781 2 19 2 Z M 19 4 C 21.222656 4 23 5.777344 23 8 C 23 10.222656 21.222656 12 19 12 C 16.777344 12 15 10.222656 15 8 C 15 5.777344 16.777344 4 19 4 Z M 19 6 C 17.894531 6 17 6.894531 17 8 C 17 9.105469 17.894531 10 19 10 C 20.105469 10 21 9.105469 21 8 C 21 6.894531 20.105469 6 19 6 Z M 15 14.171875 L 15 16.148438 L 13.519531 18 L 11.738281 18 Z M 11.652344 20 L 13.402344 20 L 14.515625 22.066406 L 13.34375 23.246094 Z "></path>
</g>
</svg>
