<?xml version="1.0" encoding="UTF-8"?>
<svg xmlns="http://www.w3.org/2000/svg" xmlns:xlink="http://www.w3.org/1999/xlink" viewBox="0 0 32 32" version="1.1">
<g>
<path d="M 21 4 L 21 6.15625 C 20.628906 6.253906 20.289063 6.371094 19.96875 6.5625 L 18.46875 5.0625 L 17.0625 6.46875 L 18.5625 7.96875 C 18.371094 8.289063 18.253906 8.628906 18.15625 9 L 16 9 L 16 11 L 18.15625 11 C 18.253906 11.371094 18.371094 11.710938 18.5625 12.03125 L 17.0625 13.53125 L 18.46875 14.9375 L 19.96875 13.4375 C 20.289063 13.628906 20.628906 13.746094 21 13.84375 L 21 16 L 23 16 L 23 13.84375 C 23.371094 13.746094 23.710938 13.628906 24.03125 13.4375 L 25.53125 14.9375 L 26.9375 13.53125 L 25.4375 12.03125 C 25.628906 11.710938 25.746094 11.371094 25.84375 11 L 28 11 L 28 9 L 25.84375 9 C 25.746094 8.628906 25.628906 8.289063 25.4375 7.96875 L 26.9375 6.46875 L 25.53125 5.0625 L 24.03125 6.5625 C 23.710938 6.371094 23.371094 6.253906 23 6.15625 L 23 4 Z M 22 8 C 23.117188 8 24 8.882813 24 10 C 24 11.117188 23.117188 12 22 12 C 20.882813 12 20 11.117188 20 10 C 20 8.882813 20.882813 8 22 8 Z M 9.53125 15.03125 C 8.035156 15.117188 6.367188 15.582031 4.53125 16.59375 L 3.84375 16.96875 L 4.03125 17.71875 C 4.03125 17.71875 4.882813 21.289063 6.90625 23.53125 C 8.003906 24.75 9.40625 25.078125 10.5 24.96875 C 11.59375 24.859375 12.339844 24.492188 12.84375 24.03125 L 11.46875 22.5625 C 11.511719 22.523438 10.882813 22.9375 10.28125 23 C 9.679688 23.0625 9.066406 22.953125 8.375 22.1875 C 7.222656 20.910156 6.550781 18.933594 6.25 18 C 9.066406 16.671875 11.132813 16.875 12.375 17.59375 C 13.589844 18.300781 14.085938 19.5 13.96875 20.4375 C 13.667969 20.199219 13.363281 19.976563 13.0625 19.78125 C 11.179688 18.546875 9.3125 17.96875 9.3125 17.96875 L 8.71875 19.90625 C 8.71875 19.90625 10.363281 20.382813 11.96875 21.4375 C 13.574219 22.492188 15 23.984375 15 26 L 15 28 L 17 28 L 17 27.6875 C 17 26.46875 18.246094 25.101563 19.71875 24.09375 C 21.191406 23.085938 22.6875 22.46875 22.6875 22.46875 L 21.9375 20.625 C 21.9375 20.625 21.082031 20.960938 20 21.5625 C 20.019531 20.933594 20.375 20.371094 21.125 20.03125 C 21.945313 19.660156 23.476563 19.8125 25.46875 20.75 C 25.117188 21.351563 24.785156 22.011719 23.84375 23.15625 C 23.285156 23.832031 22.773438 24.015625 22.375 24.03125 C 21.976563 24.046875 21.722656 23.761719 21.8125 23.90625 L 20.125 25 C 20.632813 25.792969 21.5 26.070313 22.46875 26.03125 C 23.4375 25.992188 24.53125 25.496094 25.40625 24.4375 C 26.875 22.65625 27.875 20.78125 27.875 20.78125 L 28.34375 19.9375 L 27.53125 19.4375 C 26.058594 18.550781 24.683594 18.058594 23.46875 17.875 C 22.253906 17.691406 21.167969 17.816406 20.28125 18.21875 C 18.507813 19.019531 17.648438 20.917969 18.125 22.65625 C 18.136719 22.703125 18.144531 22.703125 18.15625 22.75 C 17.640625 23.128906 17.121094 23.546875 16.65625 24.03125 C 16.40625 23.304688 16.042969 22.644531 15.59375 22.0625 C 15.632813 21.976563 15.699219 21.878906 15.71875 21.8125 C 15.789063 21.578125 15.820313 21.386719 15.84375 21.3125 C 16.4375 19.324219 15.445313 17.046875 13.375 15.84375 C 12.339844 15.242188 11.027344 14.945313 9.53125 15.03125 Z "></path>
</g>
</svg>
