<?xml version="1.0" encoding="UTF-8"?>
<svg xmlns="http://www.w3.org/2000/svg" xmlns:xlink="http://www.w3.org/1999/xlink" viewBox="0 0 32 32" version="1.1">
<g>
<path d="M 15 4 C 15 4 11.375 4.8125 10.59375 5.59375 C 9.8125 6.375 9.8125 7.625 10.59375 8.40625 C 11.375 9.1875 12.625 9.1875 13.40625 8.40625 C 14.1875 7.625 15 4 15 4 Z M 27 4 C 27 4 23.375 4.8125 22.59375 5.59375 C 21.8125 6.375 21.8125 7.625 22.59375 8.40625 C 23.375 9.1875 24.625 9.1875 25.40625 8.40625 C 26.1875 7.625 27 4 27 4 Z M 20 10 C 20 10 16.375 10.8125 15.59375 11.59375 C 14.8125 12.375 14.8125 13.625 15.59375 14.40625 C 16.375 15.1875 17.625 15.1875 18.40625 14.40625 C 19.1875 13.625 20 10 20 10 Z M 9.53125 15.03125 C 8.035156 15.117188 6.367188 15.582031 4.53125 16.59375 L 3.84375 16.96875 L 4.03125 17.71875 C 4.03125 17.71875 4.882813 21.289063 6.90625 23.53125 C 8.003906 24.75 9.40625 25.078125 10.5 24.96875 C 11.59375 24.859375 12.308594 24.492188 12.8125 24.03125 L 11.46875 22.5625 C 11.511719 22.523438 10.882813 22.9375 10.28125 23 C 9.679688 23.0625 9.066406 22.953125 8.375 22.1875 C 7.222656 20.910156 6.550781 18.933594 6.25 18 C 9.066406 16.671875 11.132813 16.875 12.375 17.59375 C 13.589844 18.300781 14.085938 19.5 13.96875 20.4375 C 13.667969 20.199219 13.363281 19.976563 13.0625 19.78125 C 11.179688 18.546875 9.3125 17.96875 9.3125 17.96875 L 8.71875 19.90625 C 8.71875 19.90625 10.363281 20.382813 11.96875 21.4375 C 13.574219 22.492188 15 23.984375 15 26 L 15 28 L 17 28 L 17 27.6875 C 17 26.46875 18.246094 25.101563 19.71875 24.09375 C 21.191406 23.085938 22.6875 22.46875 22.6875 22.46875 L 21.9375 20.625 C 21.9375 20.625 21.082031 20.960938 20 21.5625 C 20.019531 20.933594 20.375 20.371094 21.125 20.03125 C 21.945313 19.660156 23.476563 19.8125 25.46875 20.75 C 25.117188 21.351563 24.785156 22.011719 23.84375 23.15625 C 23.285156 23.832031 22.773438 24.015625 22.375 24.03125 C 21.976563 24.046875 21.722656 23.761719 21.8125 23.90625 L 20.125 25 C 20.632813 25.792969 21.46875 26.070313 22.4375 26.03125 C 23.40625 25.992188 24.53125 25.496094 25.40625 24.4375 C 26.875 22.65625 27.875 20.78125 27.875 20.78125 L 28.34375 19.9375 L 27.5 19.4375 C 26.027344 18.550781 24.683594 18.058594 23.46875 17.875 C 22.253906 17.691406 21.167969 17.816406 20.28125 18.21875 C 18.507813 19.019531 17.648438 20.917969 18.125 22.65625 C 18.136719 22.703125 18.144531 22.703125 18.15625 22.75 C 17.640625 23.128906 17.121094 23.546875 16.65625 24.03125 C 16.40625 23.304688 16.042969 22.644531 15.59375 22.0625 C 15.628906 21.964844 15.664063 21.886719 15.6875 21.8125 C 15.757813 21.578125 15.820313 21.386719 15.84375 21.3125 C 16.4375 19.324219 15.445313 17.046875 13.375 15.84375 C 12.339844 15.242188 11.027344 14.945313 9.53125 15.03125 Z "></path>
</g>
</svg>
