<?xml version="1.0" encoding="UTF-8"?>
<svg xmlns="http://www.w3.org/2000/svg" xmlns:xlink="http://www.w3.org/1999/xlink" viewBox="0 0 32 32" version="1.1">
<g>
<path d="M 15 4 C 13.355469 4 12 5.355469 12 7 L 12 8.5 L 10 10 L 9.96875 10.03125 C 8.773438 10.988281 8 12.390625 8 14 L 8 14.90625 L 8.5625 15.1875 C 8.765625 15.289063 9 15.679688 9 16 C 9 16.320313 8.765625 16.710938 8.5625 16.8125 L 8 17.09375 L 8 20.90625 L 8.5625 21.1875 C 8.765625 21.289063 9 21.679688 9 22 C 9 22.320313 8.765625 22.710938 8.5625 22.8125 L 8 23.09375 L 8 25 C 8 26.644531 9.355469 28 11 28 L 21 28 C 22.644531 28 24 26.644531 24 25 L 24 23.09375 L 23.4375 22.8125 C 23.234375 22.710938 23 22.320313 23 22 C 23 21.679688 23.234375 21.289063 23.4375 21.1875 L 24 20.90625 L 24 17.09375 L 23.4375 16.8125 C 23.234375 16.710938 23 16.320313 23 16 C 23 15.679688 23.234375 15.289063 23.4375 15.1875 L 24 14.90625 L 24 14 C 24 12.390625 23.226563 10.988281 22.03125 10.03125 L 22 10 L 20 8.5 L 20 7 C 20 5.355469 18.644531 4 17 4 Z M 15 6 L 17 6 C 17.554688 6 18 6.445313 18 7 L 18 8 L 14 8 L 14 7 C 14 6.445313 14.445313 6 15 6 Z M 13.34375 10 L 18.65625 10 L 20.78125 11.59375 C 21.289063 12 21.621094 12.46875 21.8125 13 L 16 13 L 16 15 L 21.21875 15 C 21.078125 15.308594 21 15.640625 21 16 C 21 16.816406 21.414063 17.515625 22 18.0625 L 22 19 L 16 19 L 16 21 L 21.21875 21 C 21.078125 21.308594 21 21.640625 21 22 C 21 22.816406 21.414063 23.515625 22 24.0625 L 22 25 C 22 25.554688 21.554688 26 21 26 L 11 26 C 10.445313 26 10 25.554688 10 25 L 10 24.0625 C 10.585938 23.515625 11 22.816406 11 22 C 11 21.183594 10.585938 20.484375 10 19.9375 L 10 18.0625 C 10.585938 17.515625 11 16.816406 11 16 C 11 15.183594 10.585938 14.484375 10 13.9375 C 10.019531 12.976563 10.433594 12.222656 11.21875 11.59375 Z "></path>
</g>
</svg>
