<?xml version="1.0"?>
<svg xmlns="http://www.w3.org/2000/svg" viewBox="0 0 32 32">
    <path d="M 6 3 L 6 29 L 18 29 L 18 27 L 8 27 L 8 5 L 18 5 L 18 11 L 24 11 L 24 17.142578 L 26 18.392578 L 26 9.5859375 L 19.414062 3 L 6 3 z M 20 6.4140625 L 22.585938 9 L 20 9 L 20 6.4140625 z M 12.570312 14.464844 L 9.2402344 18.349609 L 10.759766 19.650391 L 12.570312 17.535156 L 16 21.535156 L 18 19.203125 L 18 17 L 18 16.130859 L 16 18.464844 L 12.570312 14.464844 z M 20 17 L 20 32 L 32 24.5 L 20 17 z M 22 20.609375 L 28.230469 24.5 L 22 28.390625 L 22 20.609375 z" font-weight="400" font-family="sans-serif" white-space="normal" overflow="visible"></path>
</svg>
