<?xml version="1.0" encoding="UTF-8"?>
<svg xmlns="http://www.w3.org/2000/svg" xmlns:xlink="http://www.w3.org/1999/xlink" viewBox="0 0 32 32" version="1.1">
<g>
<path d="M 16 3 C 13.253906 3 11 5.253906 11 8 L 5 8 L 5 29 L 27 29 L 27 8 L 21 8 C 21 5.253906 18.746094 3 16 3 Z M 16 5 C 17.65625 5 19 6.34375 19 8 L 13 8 C 13 6.34375 14.34375 5 16 5 Z M 7 10 L 11 10 L 11 12 L 13 12 L 13 10 L 19 10 L 19 12 L 21 12 L 21 10 L 25 10 L 25 27 L 7 27 Z M 13 14.21875 L 13 23.78125 L 14.5 22.84375 L 19.5 19.84375 L 20.9375 19 L 19.5 18.15625 L 14.5 15.15625 Z M 15 17.75 L 17.09375 19 L 15 20.25 Z "></path>
</g>
</svg>
