<?xml version="1.0"?>
<svg xmlns="http://www.w3.org/2000/svg" viewBox="0 0 32 32">
    <path d="M 6 3 L 6 29 L 18 29 L 18 27 L 8 27 L 8 5 L 18 5 L 18 11 L 24 11 L 24 17.142578 L 26 18.392578 L 26 9.5859375 L 19.414062 3 L 6 3 z M 20 6.4140625 L 22.585938 9 L 20 9 L 20 6.4140625 z M 16 12 C 12.691 12 10 14.691 10 18 C 10 21.309 12.691 24 16 24 C 16.702 24 17.373 23.872391 18 23.650391 L 18 21.443359 C 17.409 21.787359 16.732 22 16 22 C 13.794 22 12 20.206 12 18 C 12 15.794 13.794 14 16 14 L 16 18 L 18 18 L 18 17 L 18 15 L 21.1875 15 C 20.1485 13.21 18.215 12 16 12 z M 20 17 L 20 32 L 32 24.5 L 20 17 z M 22 20.609375 L 28.230469 24.5 L 22 28.390625 L 22 20.609375 z" font-weight="400" font-family="sans-serif" white-space="normal" overflow="visible"></path>
</svg>
