<?xml version="1.0" encoding="UTF-8"?>
<svg xmlns="http://www.w3.org/2000/svg" xmlns:xlink="http://www.w3.org/1999/xlink" viewBox="0 0 32 32" version="1.1">
<g>
<path d="M 10 3.75 L 9.40625 4.1875 L 5.40625 7.1875 L 5 7.5 L 5 13 L 15 13 L 15 7.5 L 14.59375 7.1875 L 10.59375 4.1875 Z M 10 6.25 L 13 8.5 L 13 11 L 7 11 L 7 8.5 Z M 5 14 L 5 28 L 7 28 L 7 14 Z M 13 14 L 13 16 L 8 16 L 8 18 L 13 18 L 13 20 L 8 20 L 8 22 L 13 22 L 13 24 L 8 24 L 8 26 L 13 26 L 13 28 L 15 28 L 15 14 Z M 16 14 L 16 16 C 17.4375 16 17.96875 16.460938 18.5 17.375 C 19.03125 18.289063 19.359375 19.722656 19.75 21.25 C 20.140625 22.777344 20.605469 24.410156 21.6875 25.75 C 22.769531 27.089844 24.539063 28 27 28 L 27 26 C 24.984375 26 23.988281 25.410156 23.25 24.5 C 22.511719 23.589844 22.0625 22.222656 21.6875 20.75 C 21.3125 19.277344 21.027344 17.710938 20.25 16.375 C 19.472656 15.039063 18.015625 14 16 14 Z "></path>
</g>
</svg>
