<?xml version="1.0" encoding="UTF-8"?>
<svg xmlns="http://www.w3.org/2000/svg" xmlns:xlink="http://www.w3.org/1999/xlink" viewBox="0 0 32 32" version="1.1">
<g>
<path d="M 10.28125 2.84375 L 9.6875 3.0625 L 3.6875 5.0625 L 3 5.28125 L 3 11 L 6 11 L 6 22 L 18.5625 22 L 17.28125 23.28125 L 18.71875 24.71875 L 21.71875 21.71875 L 22.40625 21 L 21.71875 20.28125 L 18.71875 17.28125 L 17.28125 18.71875 L 18.5625 20 L 8 20 L 8 9 L 5 9 L 5 6.71875 L 9.84375 5.09375 C 10.011719 5.21875 10.011719 5.269531 10.28125 5.40625 C 10.898438 5.71875 11.824219 6 13 6 C 14.175781 6 15.101563 5.71875 15.71875 5.40625 C 15.988281 5.269531 15.988281 5.21875 16.15625 5.09375 L 21 6.71875 L 21 8.1875 L 21.03125 8.15625 L 21.46875 7.75 L 22.03125 7.90625 L 22.625 8.09375 L 23 8.21875 L 23 5.28125 L 22.3125 5.0625 L 16.3125 3.0625 L 15.71875 2.84375 L 15.28125 3.3125 C 15.28125 3.3125 15.1875 3.40625 14.8125 3.59375 C 14.4375 3.78125 13.847656 4 13 4 C 12.152344 4 11.5625 3.78125 11.1875 3.59375 C 10.8125 3.40625 10.71875 3.3125 10.71875 3.3125 Z M 16.28125 8.84375 L 15.6875 9.0625 L 9.6875 11.0625 L 9 11.28125 L 9 17 L 12 17 L 12 19 L 14 19 L 14 15 L 11 15 L 11 12.71875 L 15.84375 11.09375 C 16.011719 11.21875 16.011719 11.269531 16.28125 11.40625 C 16.898438 11.71875 17.824219 12 19 12 C 20.175781 12 21.101563 11.71875 21.71875 11.40625 C 21.988281 11.269531 21.988281 11.21875 22.15625 11.09375 L 27 12.71875 L 27 15 L 24 15 L 24 26 L 14.4375 26 L 15.71875 24.71875 L 14.28125 23.28125 L 11.28125 26.28125 L 10.59375 27 L 11.28125 27.71875 L 14.28125 30.71875 L 15.71875 29.28125 L 14.4375 28 L 26 28 L 26 17 L 29 17 L 29 11.28125 L 28.3125 11.0625 L 22.3125 9.0625 L 21.71875 8.84375 L 21.28125 9.3125 C 21.28125 9.3125 21.1875 9.40625 20.8125 9.59375 C 20.4375 9.78125 19.847656 10 19 10 C 18.152344 10 17.5625 9.78125 17.1875 9.59375 C 16.8125 9.40625 16.71875 9.3125 16.71875 9.3125 Z "></path>
</g>
</svg>
