<?xml version="1.0" encoding="UTF-8"?>
<svg xmlns="http://www.w3.org/2000/svg" xmlns:xlink="http://www.w3.org/1999/xlink" viewBox="0 0 32 32" version="1.1">
<g>
<path d="M 12.34375 3.8125 L 11.65625 4.0625 L 3.65625 7.0625 L 3 7.3125 L 3 14 L 7 14 L 7 28 L 25 28 L 25 14 L 29 14 L 29 7.3125 L 28.34375 7.0625 L 20.34375 4.0625 L 19.65625 3.8125 L 19.21875 4.375 C 19.21875 4.375 17.878906 6 16 6 C 14.121094 6 12.78125 4.375 12.78125 4.375 Z M 11.78125 6.15625 C 12.378906 6.796875 13.683594 8 16 8 C 18.316406 8 19.621094 6.796875 20.21875 6.15625 L 24 7.5625 L 24 11 L 26 11 L 26 8.3125 L 27 8.6875 L 27 12 L 23 12 L 23 26 L 9 26 L 9 12 L 5 12 L 5 8.6875 L 6 8.3125 L 6 11 L 8 11 L 8 7.5625 Z M 11.875 13 L 11.59375 13.40625 C 11.59375 13.40625 11.046875 14 10.5 14 L 10.5 16 C 11.15625 16 11.574219 15.722656 12 15.46875 L 12 21 L 14 21 L 14 13 Z M 18.5 13 C 17.132813 13 16 14.132813 16 15.5 L 16 18.5 C 16 19.867188 17.132813 21 18.5 21 C 19.867188 21 21 19.867188 21 18.5 L 21 15.5 C 21 14.132813 19.867188 13 18.5 13 Z M 18.5 15 C 18.785156 15 19 15.214844 19 15.5 L 19 18.5 C 19 18.785156 18.785156 19 18.5 19 C 18.214844 19 18 18.785156 18 18.5 L 18 15.5 C 18 15.214844 18.214844 15 18.5 15 Z "></path>
</g>
</svg>
