<?xml version="1.0" encoding="UTF-8"?>
<svg xmlns="http://www.w3.org/2000/svg" xmlns:xlink="http://www.w3.org/1999/xlink" viewBox="0 0 32 32" version="1.1">
<g>
<path d="M 24.96875 2.03125 C 24.417969 2.054688 22.242188 2.058594 20.375 3.65625 C 19.003906 4.832031 17.808594 6.816406 17.28125 10.03125 C 14.550781 10.125 11.113281 10.742188 8.125 12.625 C 4.871094 14.675781 2.226563 18.3125 2 23.96875 L 1.96875 25 L 6.96875 25 L 7 24.03125 C 7.164063 19.9375 8.90625 17.859375 11.125 16.59375 C 12.980469 15.535156 15.183594 15.136719 16.96875 15.03125 C 16.863281 16.746094 16.457031 18.921875 15.40625 20.78125 C 14.136719 23.027344 12.054688 24.835938 7.96875 25 L 7 25.03125 L 7 30.03125 L 8.03125 30 C 13.699219 29.773438 17.328125 27.019531 19.375 23.71875 C 21.265625 20.667969 21.882813 17.210938 21.96875 14.625 C 25.191406 13.988281 27.210938 12.609375 28.375 11.15625 C 29.957031 9.179688 30 7.09375 30 7.09375 L 29.96875 7.09375 C 30.066406 5.585938 29.636719 4.199219 28.71875 3.28125 L 28.6875 3.28125 L 28.65625 3.25 C 27.722656 2.417969 26.425781 1.964844 24.96875 2.03125 Z M 25.03125 4.03125 C 25.515625 4.007813 25.949219 4.085938 26.34375 4.21875 L 23.5625 7 C 23.542969 7 23.519531 7 23.5 7 C 22.671875 7 22 7.671875 22 8.5 C 22 9.328125 22.671875 10 23.5 10 C 24.328125 10 25 9.328125 25 8.5 C 25 8.480469 25 8.457031 25 8.4375 L 27.8125 5.625 C 27.957031 6.03125 28.039063 6.5 28 7.03125 L 28 7.09375 C 28 7.09375 27.996094 8.429688 26.8125 9.90625 C 25.722656 11.269531 23.492188 12.683594 19.0625 12.90625 C 19.25 8.417969 20.476563 6.195313 21.6875 5.15625 C 23.003906 4.03125 24.304688 4.0625 25.03125 4.03125 Z M 21 10 C 20.449219 10 20 10.449219 20 11 C 20 11.550781 20.449219 12 21 12 C 21.550781 12 22 11.550781 22 11 C 22 10.449219 21.550781 10 21 10 Z M 17 12.125 L 17 13.09375 C 14.988281 13.179688 12.492188 13.511719 10.15625 14.84375 C 7.660156 16.269531 5.609375 18.929688 5.15625 23 L 4.15625 23 C 4.613281 18.597656 6.605469 15.941406 9.1875 14.3125 C 11.65625 12.757813 14.574219 12.246094 17 12.125 Z M 18.90625 15 L 19.875 15 C 19.75 17.273438 19.242188 20.179688 17.6875 22.6875 C 16.054688 25.320313 13.394531 27.375 9 27.84375 L 9 26.84375 C 13.074219 26.382813 15.734375 24.292969 17.15625 21.78125 C 18.480469 19.4375 18.820313 16.953125 18.90625 15 Z "></path>
</g>
</svg>
