<?xml version="1.0" encoding="UTF-8"?>
<svg xmlns="http://www.w3.org/2000/svg" xmlns:xlink="http://www.w3.org/1999/xlink" viewBox="0 0 32 32" version="1.1">
<g>
<path d="M 19.28125 2 C 18.175781 2 17.121094 2.28125 16.3125 2.96875 C 15.503906 3.65625 15.035156 4.734375 15 5.96875 C 15 5.96875 14.917969 7.996094 14.625 10.21875 C 14.480469 11.332031 14.285156 12.492188 14.03125 13.4375 C 13.777344 14.382813 13.398438 15.101563 13.25 15.25 L 1.9375 26.5625 L 3.34375 27.96875 L 12.09375 19.21875 L 13 22.5625 C 11.816406 23.257813 11 24.535156 11 26 C 11 28.199219 12.800781 30 15 30 C 17.199219 30 19 28.199219 19 26 C 19 23.800781 17.199219 22 15 22 C 14.988281 22 14.980469 22 14.96875 22 L 13.75 17.5625 L 21.96875 9.375 C 26.492188 14.722656 27.8125 20.101563 28 21 L 30 21 C 30.09375 19.941406 30.996094 8.015625 24.75 2.625 L 24 2 L 19.65625 6.90625 L 20.34375 7.5625 C 20.445313 7.664063 20.523438 7.773438 20.625 7.875 L 16.34375 12.15625 C 16.441406 11.589844 16.519531 11.03125 16.59375 10.46875 C 16.902344 8.140625 17 6.03125 17 6.03125 C 17.023438 5.230469 17.269531 4.804688 17.625 4.5 C 17.980469 4.195313 18.519531 4 19.28125 4 Z M 24.15625 4.84375 C 26.570313 7.445313 27.546875 11.453125 27.90625 14.8125 C 26.757813 12.417969 25.007813 9.570313 22.40625 6.8125 Z M 15.5 24.0625 C 16.367188 24.28125 17 25.058594 17 26 C 17 27.117188 16.117188 28 15 28 C 13.882813 28 13 27.117188 13 26 C 13 25.449219 13.242188 24.984375 13.59375 24.625 L 14.03125 26.25 L 15.96875 25.75 Z "></path>
</g>
</svg>
