<?xml version="1.0" encoding="UTF-8"?>
<svg xmlns="http://www.w3.org/2000/svg" xmlns:xlink="http://www.w3.org/1999/xlink" viewBox="0 0 32 32" version="1.1">
<g>
<path d="M 5 5 L 5 27 L 27 27 L 27 5 Z M 7 7 L 25 7 L 25 25 L 7 25 Z M 12 14 C 10.894531 14 10 14.894531 10 16 C 10 17.105469 10.894531 18 12 18 C 13.105469 18 14 17.105469 14 16 C 14 14.894531 13.105469 14 12 14 Z M 20 14 C 18.894531 14 18 14.894531 18 16 C 18 17.105469 18.894531 18 20 18 C 21.105469 18 22 17.105469 22 16 C 22 14.894531 21.105469 14 20 14 Z "></path>
</g>
</svg>
