<?xml version="1.0" encoding="UTF-8"?>
<svg xmlns="http://www.w3.org/2000/svg" xmlns:xlink="http://www.w3.org/1999/xlink" viewBox="0 0 32 32" version="1.1">
<g>
<path d="M 5 5 L 5 27 L 27 27 L 27 5 Z M 7 7 L 25 7 L 25 25 L 7 25 Z M 12 10 L 12 11.28125 C 11.707031 11.109375 11.363281 11 11 11 C 9.894531 11 9 11.894531 9 13 C 9 14.105469 9.894531 15 11 15 C 11.363281 15 11.707031 14.890625 12 14.71875 L 12 16 L 14 16 L 14 10 Z M 18 10 L 18 16 L 20 16 L 20 14.71875 C 20.292969 14.890625 20.636719 15 21 15 C 22.105469 15 23 14.105469 23 13 C 23 11.894531 22.105469 11 21 11 C 20.636719 11 20.292969 11.109375 20 11.28125 L 20 10 Z M 16 18 C 14.894531 18 14 18.894531 14 20 L 14 22 L 18 22 L 18 20 C 18 18.894531 17.105469 18 16 18 Z "></path>
</g>
</svg>
