<?xml version="1.0" encoding="UTF-8"?>
<svg xmlns="http://www.w3.org/2000/svg" xmlns:xlink="http://www.w3.org/1999/xlink" viewBox="0 0 32 32" version="1.1">
<g>
<path d="M 9 4 L 9 5 L 5 5 L 5 27 L 27 27 L 27 5 L 23 5 L 23 4 L 21 4 L 21 5 L 11 5 L 11 4 Z M 7 7 L 9 7 L 9 8 L 11 8 L 11 7 L 21 7 L 21 8 L 23 8 L 23 7 L 25 7 L 25 9 L 7 9 Z M 7 11 L 25 11 L 25 25 L 7 25 Z M 14.875 14 L 14.59375 14.40625 C 14.59375 14.40625 14.046875 15 13.5 15 L 13.5 17 C 14.15625 17 14.574219 16.722656 15 16.46875 L 15 22 L 17 22 L 17 14 Z M 9 16 L 9 17 L 8 17 L 8 19 L 9 19 L 9 20 L 11 20 L 11 19 L 12 19 L 12 17 L 11 17 L 11 16 Z M 18 17 L 18 22 L 20 22 L 20 20.375 L 20.28125 20.6875 L 21 21.46875 L 21.71875 20.6875 L 22 20.375 L 22 22 L 24 22 L 24 17 L 22.4375 17 L 22.15625 17.3125 L 21 18.53125 L 19.875 17.3125 L 19.5625 17 Z "></path>
</g>
</svg>
