<?xml version="1.0" encoding="UTF-8"?>
<svg xmlns="http://www.w3.org/2000/svg" xmlns:xlink="http://www.w3.org/1999/xlink" viewBox="0 0 32 32" version="1.1">
<g>
<path d="M 6.03125 3.90625 L 6 4.96875 C 6 4.96875 5.839844 7.988281 7.34375 10.46875 C 6.851563 11.628906 6.503906 12.894531 6.3125 14.25 L 3.1875 16.59375 C 2.554688 17.070313 2.144531 17.773438 2.03125 18.5625 C 1.917969 19.351563 2.117188 20.179688 2.59375 20.8125 C 3.160156 21.570313 4.054688 22 5 22 C 5.382813 22 5.769531 21.917969 6.125 21.78125 C 6.058594 22.171875 6 22.578125 6 23 C 6 24.273438 6.300781 25.425781 6.875 26.34375 C 7.449219 27.261719 8.378906 28 9.5 28 C 10.15625 28 10.726563 27.734375 11.21875 27.34375 C 12.6875 27.832031 14.304688 28 16 28 C 17.691406 28 19.308594 27.828125 20.78125 27.34375 C 21.273438 27.734375 21.84375 28 22.5 28 C 23.621094 28 24.550781 27.261719 25.125 26.34375 C 25.699219 25.425781 26 24.273438 26 23 C 26 22.578125 25.941406 22.171875 25.875 21.78125 C 26.230469 21.917969 26.621094 22 27 22 C 27.945313 22 28.839844 21.566406 29.40625 20.8125 C 29.882813 20.175781 30.078125 19.347656 29.96875 18.5625 C 29.855469 17.777344 29.449219 17.070313 28.8125 16.59375 L 25.6875 14.25 C 25.496094 12.894531 25.148438 11.628906 24.65625 10.46875 C 26.160156 7.988281 26 4.96875 26 4.96875 L 25.96875 3.90625 L 24.90625 4 C 24.90625 4 24.03125 4.09375 22.9375 4.375 C 22.011719 4.613281 20.90625 5.046875 19.9375 5.71875 C 18.796875 5.285156 17.5 5 16 5 C 14.5 5 13.203125 5.285156 12.0625 5.71875 C 11.09375 5.046875 9.988281 4.613281 9.0625 4.375 C 7.96875 4.09375 7.09375 4 7.09375 4 Z M 8.09375 6.21875 C 8.3125 6.261719 8.296875 6.242188 8.5625 6.3125 C 9.5 6.554688 10.625 6.992188 11.28125 7.5625 L 11.75 7.96875 L 12.34375 7.71875 C 13.316406 7.273438 14.5 7 16 7 C 17.5 7 18.683594 7.273438 19.65625 7.71875 L 20.25 7.96875 L 20.71875 7.5625 C 21.375 6.992188 22.5 6.554688 23.4375 6.3125 C 23.703125 6.242188 23.6875 6.261719 23.90625 6.21875 C 23.816406 7.234375 23.585938 8.617188 22.78125 9.75 L 22.4375 10.25 L 22.71875 10.78125 C 23.292969 11.953125 23.65625 13.386719 23.84375 15 L 23.875 15.40625 L 24.21875 15.6875 L 27.59375 18.1875 C 27.8125 18.351563 27.960938 18.570313 28 18.84375 C 28.039063 19.117188 27.976563 19.375 27.8125 19.59375 C 27.628906 19.839844 27.308594 20 27 20 C 26.773438 20 26.585938 19.949219 26.40625 19.8125 L 25.5625 19.1875 L 25.46875 19.125 C 25.355469 19.019531 24.414063 18.171875 22.90625 18.03125 C 22.773438 18.007813 22.640625 18 22.5 18 C 21.378906 18 20.449219 18.738281 19.875 19.65625 C 19.300781 20.574219 19 21.726563 19 23 C 19 23.964844 19.164063 24.878906 19.5 25.65625 C 18.46875 25.898438 17.285156 26 16 26 C 14.714844 26 13.53125 25.898438 12.5 25.65625 C 12.835938 24.878906 13 23.964844 13 23 C 13 21.726563 12.699219 20.574219 12.125 19.65625 C 11.550781 18.738281 10.621094 18 9.5 18 C 7.75 18 6.652344 19.011719 6.53125 19.125 L 6.4375 19.1875 L 5.59375 19.8125 C 5.414063 19.949219 5.222656 20 5 20 C 4.691406 20 4.371094 19.835938 4.1875 19.59375 C 4.023438 19.371094 3.960938 19.113281 4 18.84375 C 4.039063 18.574219 4.1875 18.351563 4.40625 18.1875 L 7.78125 15.6875 L 8.125 15.40625 L 8.15625 15 C 8.34375 13.386719 8.707031 11.953125 9.28125 10.78125 L 9.5625 10.25 L 9.21875 9.75 C 8.414063 8.617188 8.183594 7.234375 8.09375 6.21875 Z M 12.5 11 C 11.671875 11 11 11.671875 11 12.5 C 11 13.328125 11.671875 14 12.5 14 C 13.328125 14 14 13.328125 14 12.5 C 14 11.671875 13.328125 11 12.5 11 Z M 19.5 11 C 18.671875 11 18 11.671875 18 12.5 C 18 13.328125 18.671875 14 19.5 14 C 20.328125 14 21 13.328125 21 12.5 C 21 11.671875 20.328125 11 19.5 11 Z M 16 15 C 14.894531 15 14 15.449219 14 16 C 14 16.550781 14.894531 17 16 17 C 17.105469 17 18 16.550781 18 16 C 18 15.449219 17.105469 15 16 15 Z M 9.5 20 C 9.757813 20 10.074219 20.15625 10.40625 20.6875 C 10.738281 21.21875 11 22.0625 11 23 C 11 23.9375 10.738281 24.78125 10.40625 25.3125 C 10.074219 25.84375 9.757813 26 9.5 26 C 9.242188 26 8.925781 25.84375 8.59375 25.3125 C 8.261719 24.78125 8 23.9375 8 23 C 8 22.0625 8.261719 21.21875 8.59375 20.6875 C 8.84375 20.289063 9.066406 20.101563 9.28125 20.03125 C 9.351563 20.023438 9.425781 20 9.5 20 Z M 22.5 20 C 22.757813 20 23.074219 20.15625 23.40625 20.6875 C 23.738281 21.21875 24 22.0625 24 23 C 24 23.9375 23.738281 24.78125 23.40625 25.3125 C 23.074219 25.84375 22.757813 26 22.5 26 C 22.242188 26 21.925781 25.84375 21.59375 25.3125 C 21.261719 24.78125 21 23.9375 21 23 C 21 22.0625 21.261719 21.21875 21.59375 20.6875 C 21.925781 20.15625 22.242188 20 22.5 20 Z "></path>
</g>
</svg>
