<?xml version="1.0" encoding="UTF-8"?>
<svg xmlns="http://www.w3.org/2000/svg" xmlns:xlink="http://www.w3.org/1999/xlink" viewBox="0 0 32 32" version="1.1">
<g>
<path d="M 6 3 L 6 8 L 6.09375 8 C 4.183594 10.125 3 12.921875 3 16 C 3 19.078125 4.183594 21.875 6.09375 24 L 6 24 L 6 29 L 8 29 L 8 25.71875 C 9.972656 27.140625 12.390625 28 15 28 C 17.609375 28 20.027344 27.140625 22 25.71875 L 22 29 L 24 29 L 24 24 L 23.90625 24 C 25.390625 22.347656 26.425781 20.285156 26.8125 18 L 29 18 L 29 14 L 26.8125 14 C 26.425781 11.714844 25.390625 9.652344 23.90625 8 L 24 8 L 24 3 L 22 3 L 22 6.28125 C 20.027344 4.859375 17.609375 4 15 4 C 12.390625 4 9.972656 4.859375 8 6.28125 L 8 3 Z M 15 6 C 20.535156 6 25 10.464844 25 16 C 25 21.535156 20.535156 26 15 26 C 9.464844 26 5 21.535156 5 16 C 5 10.464844 9.464844 6 15 6 Z M 13.875 12 L 13.59375 12.40625 C 13.59375 12.40625 13.046875 13 12.5 13 L 12.5 15 C 13.15625 15 13.574219 14.722656 14 14.46875 L 14 20 L 16 20 L 16 12 Z M 17 12 L 17 20 L 19 20 L 19 17.5 C 19 17.21875 19.21875 17 19.5 17 C 19.78125 17 20 17.21875 20 17.5 L 20 20 L 22 20 L 22 17.5 C 22 16.128906 20.871094 15 19.5 15 C 19.328125 15 19.160156 15.027344 19 15.0625 L 19 12 Z M 8 14 L 8 15 L 7 15 L 7 17 L 8 17 L 8 18 L 10 18 L 10 17 L 11 17 L 11 15 L 10 15 L 10 14 Z "></path>
</g>
</svg>
