<?xml version="1.0" encoding="UTF-8"?>
<svg xmlns="http://www.w3.org/2000/svg" xmlns:xlink="http://www.w3.org/1999/xlink" viewBox="0 0 32 32" version="1.1">
<g>
<path d="M 16 3 C 13.25 3 11 5.25 11 8 C 11 9.5625 11.742188 10.957031 12.875 11.875 C 11.148438 12.925781 10 14.824219 10 17 L 12 17 C 12 14.722656 13.722656 13 16 13 C 18.277344 13 20 14.722656 20 17 L 22 17 C 22 14.824219 20.851563 12.925781 19.125 11.875 C 20.257813 10.957031 21 9.5625 21 8 C 21 5.25 18.75 3 16 3 Z M 16 5 C 17.667969 5 19 6.332031 19 8 C 19 9.667969 17.667969 11 16 11 C 14.332031 11 13 9.667969 13 8 C 13 6.332031 14.332031 5 16 5 Z M 25 11 C 23.894531 11 23 11.894531 23 13 C 23 13.738281 23.402344 14.371094 24 14.71875 L 24 17 L 26 17 L 26 14.71875 C 26.597656 14.371094 27 13.738281 27 13 C 27 11.894531 26.105469 11 25 11 Z M 4 18 L 4 20 L 6.40625 20 L 8 24 L 10 24 L 10 28 L 12 28 L 12 24 L 20 24 L 20 28 L 22 28 L 22 24 L 24 24 L 25.59375 20 L 28 20 L 28 18 Z M 8.40625 20 L 23.59375 20 L 22.8125 22 L 9.1875 22 Z "></path>
</g>
</svg>
