<?xml version="1.0" encoding="UTF-8"?>
<svg xmlns="http://www.w3.org/2000/svg" xmlns:xlink="http://www.w3.org/1999/xlink" viewBox="0 0 32 32" version="1.1">
<g>
<path d="M 25 5 C 23.894531 5 23 5.894531 23 7 C 23 7.738281 23.402344 8.371094 24 8.71875 L 24 11 L 26 11 L 26 8.71875 C 26.597656 8.371094 27 7.738281 27 7 C 27 5.894531 26.105469 5 25 5 Z M 4 12 L 4 14 L 6.40625 14 L 8 18 L 10 18 L 10 27 L 12 27 L 12 18 L 20 18 L 20 27 L 22 27 L 22 18 L 24 18 L 25.59375 14 L 28 14 L 28 12 Z M 8.40625 14 L 23.59375 14 L 22.8125 16 L 9.1875 16 Z "></path>
</g>
</svg>
