<?xml version="1.0" encoding="UTF-8"?>
<svg xmlns="http://www.w3.org/2000/svg" xmlns:xlink="http://www.w3.org/1999/xlink" viewBox="0 0 32 32" version="1.1">
<g>
<path d="M 16 4 C 9.382813 4 4 9.382813 4 16 C 4 22.617188 9.382813 28 16 28 C 22.617188 28 28 22.617188 28 16 C 28 9.382813 22.617188 4 16 4 Z M 16 6 C 21.199219 6 25.441406 9.933594 25.9375 15 L 19.84375 15 C 19.398438 13.28125 17.851563 12 16 12 C 14.148438 12 12.601563 13.28125 12.15625 15 L 6.0625 15 C 6.558594 9.933594 10.800781 6 16 6 Z M 16 14 C 17.117188 14 18 14.882813 18 16 C 18 17.117188 17.117188 18 16 18 C 14.882813 18 14 17.117188 14 16 C 14 14.882813 14.882813 14 16 14 Z M 16 15 C 15.449219 15 15 15.449219 15 16 C 15 16.550781 15.449219 17 16 17 C 16.550781 17 17 16.550781 17 16 C 17 15.449219 16.550781 15 16 15 Z M 6.0625 17 L 12.15625 17 C 12.601563 18.71875 14.148438 20 16 20 C 17.851563 20 19.398438 18.71875 19.84375 17 L 25.9375 17 C 25.441406 22.066406 21.199219 26 16 26 C 10.800781 26 6.558594 22.066406 6.0625 17 Z "></path>
</g>
</svg>
