<?xml version="1.0" encoding="UTF-8"?>
<svg xmlns="http://www.w3.org/2000/svg" xmlns:xlink="http://www.w3.org/1999/xlink" viewBox="0 0 32 32" version="1.1">
<g>
<path d="M 7 5 L 7 15 L 24 15 L 24 5 Z M 9 7 L 22 7 L 22 13 L 9 13 Z M 5.75 16 L 5.5 16.125 C 5.5 16.125 4.761719 16.574219 4.15625 17.5 C 3.550781 18.425781 3 19.890625 3 22 C 3 24.109375 3.550781 25.574219 4.15625 26.5 C 4.761719 27.425781 5.5 27.875 5.5 27.875 L 5.75 28 L 26 28 L 26 25.8125 C 27.710938 25.359375 29 23.847656 29 22 C 29 20.152344 27.710938 18.640625 26 18.1875 L 26 16 Z M 6.375 18 L 24 18 L 24 20 L 25 20 C 26.117188 20 27 20.882813 27 22 C 27 23.117188 26.117188 24 25 24 L 24 24 L 24 26 L 6.375 26 C 6.300781 25.953125 6.167969 25.902344 5.84375 25.40625 C 5.449219 24.800781 5 23.765625 5 22 C 5 20.234375 5.449219 19.199219 5.84375 18.59375 C 6.167969 18.097656 6.300781 18.046875 6.375 18 Z M 9 19 L 9 21 L 7 21 L 7 23 L 9 23 L 9 25 L 11 25 L 11 23 L 13 23 L 13 21 L 11 21 L 11 19 Z M 25 21 C 24.449219 21 24 21.449219 24 22 C 24 22.550781 24.449219 23 25 23 C 25.550781 23 26 22.550781 26 22 C 26 21.449219 25.550781 21 25 21 Z "></path>
</g>
</svg>
