<?xml version="1.0" encoding="UTF-8"?>
<svg xmlns="http://www.w3.org/2000/svg" xmlns:xlink="http://www.w3.org/1999/xlink" viewBox="0 0 32 32" version="1.1">
<g>
<path d="M 16 5 C 13.230469 5 11.085938 7.007813 9.25 8.78125 C 8.332031 9.667969 7.464844 10.527344 6.71875 11.125 C 5.972656 11.722656 5.363281 12 5 12 C 3.375 12 2 13.332031 2 15 C 2 16.15625 2.671875 16.894531 3.21875 17.5625 C 3.519531 17.929688 3.789063 18.230469 4 18.4375 L 4 22.4375 L 4.3125 22.71875 C 4.3125 22.71875 8.777344 27 16 27 C 23.222656 27 27.6875 22.71875 27.6875 22.71875 L 28 22.4375 L 28 18.4375 C 28.210938 18.230469 28.480469 17.929688 28.78125 17.5625 C 29.328125 16.894531 30 16.15625 30 15 C 30 13.351563 28.640625 12 27 12 C 26.644531 12 26.027344 11.722656 25.28125 11.125 C 24.535156 10.527344 23.667969 9.667969 22.75 8.78125 C 20.910156 7.007813 18.769531 5 16 5 Z M 16 7 C 17.730469 7 19.585938 8.492188 21.375 10.21875 C 22.269531 11.082031 23.140625 11.972656 24.03125 12.6875 C 24.921875 13.402344 25.863281 14 27 14 C 27.554688 14 28 14.441406 28 15 C 28 14.949219 27.671875 15.726563 27.21875 16.28125 C 26.890625 16.679688 26.722656 16.84375 26.5625 17 L 5.4375 17 C 5.277344 16.84375 5.109375 16.679688 4.78125 16.28125 C 4.328125 15.726563 4 14.949219 4 15 C 4 14.457031 4.492188 14 5 14 C 6.140625 14 7.074219 13.402344 7.96875 12.6875 C 8.863281 11.972656 9.730469 11.082031 10.625 10.21875 C 12.410156 8.492188 14.269531 7 16 7 Z M 14 11 L 14 14 L 16 15 L 18 14 L 18 11 Z M 6 19 L 26 19 L 26 21 L 6 21 Z M 8.15625 23 L 23.84375 23 C 22.148438 23.957031 19.523438 25 16 25 C 12.476563 25 9.851563 23.957031 8.15625 23 Z "></path>
</g>
</svg>
