<?xml version="1.0" encoding="UTF-8"?>
<svg xmlns="http://www.w3.org/2000/svg" xmlns:xlink="http://www.w3.org/1999/xlink" viewBox="0 0 32 32" version="1.1">
<g>
<path d="M 16 4.90625 L 3.625 10.0625 L 3 10.34375 L 3 27 L 29 27 L 29 10.34375 L 28.375 10.0625 Z M 16 7.09375 L 27 11.6875 L 27 25 L 5 25 L 5 11.6875 Z M 16 11 C 15.203125 11.796875 12.910156 12.222656 12.15625 11.46875 L 11.21875 12.4375 C 11.21875 12.4375 11.78125 13.457031 11.78125 14.34375 C 11.78125 15.808594 11.21875 16.34375 11.21875 18.25 C 11.21875 21.753906 15.289063 22.46875 16 23 C 16.753906 22.46875 20.78125 21.753906 20.78125 18.25 C 20.78125 16.34375 20.21875 15.851563 20.21875 14.34375 C 20.222656 13.457031 20.78125 12.4375 20.78125 12.4375 L 19.84375 11.46875 C 19.089844 12.222656 16.796875 11.796875 16 11 Z M 16 13.5 L 16.9375 15.59375 L 19.28125 15.8125 L 17.53125 17.34375 L 18 19.65625 L 16 18.4375 L 14 19.59375 L 14.46875 17.34375 L 12.71875 15.8125 L 15.0625 15.59375 Z "></path>
</g>
</svg>
