<?xml version="1.0" encoding="UTF-8"?>
<svg xmlns="http://www.w3.org/2000/svg" xmlns:xlink="http://www.w3.org/1999/xlink" viewBox="0 0 32 32" version="1.1">
<g>
<path d="M 30 8.390625 L 30 7 L 17.828125 7 C 17.414063 5.835938 16.304688 5 15 5 L 5 5 C 3.347656 5 2 6.34375 2 8 L 2 24.050781 C 2 25.675781 3.324219 27 4.949219 27 L 15 27 C 15 27 15.003906 27 15.003906 27 L 29 27 L 30 26.925781 L 30 25.53125 L 27.613281 22.953125 L 29.992188 20 L 27.574219 17 L 29.992188 14 L 27.613281 11.046875 L 29.734375 8.753906 Z M 15.003906 25 L 5 25 C 4.449219 25 4 24.550781 4 24 C 4 23.449219 4.449219 23 5 23 L 15 23 C 15.550781 23 16 23.449219 16 24 C 16 24.550781 15.550781 24.996094 15.003906 25 Z M 5 7 L 15 7 C 15.550781 7 16 7.449219 16 8 L 16 21.183594 C 15.6875 21.070313 15.351563 21 15 21 L 5 21 C 4.648438 21 4.3125 21.070313 4 21.183594 L 4 8 C 4 7.449219 4.449219 7 5 7 Z M 27.425781 20 L 24.972656 23.046875 L 26.78125 25 L 17.816406 25 C 17.929688 24.683594 18 24.351563 18 24 L 18 9 L 26.78125 9 L 24.972656 10.953125 L 27.425781 14 L 25.007813 17 Z "></path>
</g>
</svg>
