<?xml version="1.0" encoding="UTF-8"?>
<svg xmlns="http://www.w3.org/2000/svg" xmlns:xlink="http://www.w3.org/1999/xlink" viewBox="0 0 32 32" version="1.1">
<g>
<path d="M 2 4 L 2 6 C 5.0625 6 6.605469 6.8125 7.367188 7.476563 C 5.050781 10.273438 5.429688 13.683594 7.570313 17.046875 L 12.46875 24.511719 L 14.453125 18.6875 L 21.003906 19.996094 L 19.691406 13.441406 L 25.574219 11.40625 L 18.054688 6.5625 C 16.265625 5.421875 14.457031 4.78125 12.738281 4.78125 C 11.351563 4.78125 10.023438 5.207031 8.804688 6.117188 C 7.734375 5.113281 5.738281 4 2 4 Z M 12.738281 6.78125 C 14.023438 6.78125 15.449219 7.273438 16.972656 8.242188 L 21.035156 10.859375 L 19.039063 11.550781 L 17.390625 12.125 L 17.734375 13.835938 L 18.453125 17.445313 L 14.84375 16.722656 L 13.125 16.378906 L 12.558594 18.042969 L 11.894531 19.988281 L 9.257813 15.972656 C 7.292969 12.886719 7.3125 10.308594 9.3125 8.304688 C 10.339844 7.28125 11.460938 6.78125 12.738281 6.78125 Z M 23 16 L 23 18 L 25 18 L 25 16 Z M 28 16 L 28 18 L 30 18 L 30 16 Z M 17 22 L 17 24 L 19 24 L 19 22 Z M 23 22 L 23 24 L 25 24 L 25 22 Z M 17 27 L 17 29 L 19 29 L 19 27 Z "></path>
</g>
</svg>
