<?xml version="1.0" encoding="UTF-8"?>
<svg xmlns="http://www.w3.org/2000/svg" xmlns:xlink="http://www.w3.org/1999/xlink" viewBox="0 0 32 32" version="1.1">
<g>
<path d="M 26 4 C 24.894531 4 24 4.894531 24 6 C 24 6.308594 24.0625 6.613281 24.1875 6.875 L 22.09375 10 C 22.0625 10 22.03125 10 22 10 C 21.324219 10 20.738281 10.332031 20.375 10.84375 L 11.8125 10.125 C 11.488281 9.453125 10.792969 9 10 9 C 8.894531 9 8 9.894531 8 11 C 8 12.105469 8.894531 13 10 13 C 10.242188 13 10.472656 12.953125 10.6875 12.875 L 19.96875 20.75 L 12.8125 20.15625 C 12.496094 19.472656 11.804688 19 11 19 C 9.894531 19 9 19.894531 9 21 C 9 21.171875 9.019531 21.339844 9.0625 21.5 L 6.5 24.0625 C 6.339844 24.019531 6.171875 24 6 24 C 4.894531 24 4 24.894531 4 26 C 4 27.105469 4.894531 28 6 28 C 7.105469 28 8 27.105469 8 26 C 8 25.828125 7.980469 25.660156 7.9375 25.5 L 10.5 22.9375 C 10.660156 22.980469 10.828125 23 11 23 C 11.691406 23 12.296875 22.65625 12.65625 22.125 L 21.1875 22.84375 C 21.503906 23.527344 22.195313 24 23 24 C 24.105469 24 25 23.105469 25 22 C 25 20.894531 24.105469 20 23 20 C 22.757813 20 22.527344 20.046875 22.3125 20.125 L 13.03125 12.25 L 20.1875 12.84375 C 20.503906 13.527344 21.195313 14 22 14 C 23.105469 14 24 13.105469 24 12 C 24 11.691406 23.9375 11.386719 23.8125 11.125 L 25.90625 8 C 25.9375 8 25.96875 8 26 8 C 27.105469 8 28 7.105469 28 6 C 28 4.894531 27.105469 4 26 4 Z "></path>
</g>
</svg>
