<?xml version="1.0" encoding="UTF-8"?>
<svg xmlns="http://www.w3.org/2000/svg" xmlns:xlink="http://www.w3.org/1999/xlink" viewBox="0 0 32 32" version="1.1">
<g>
<path d="M 17 3 C 16.394531 3.640625 16.03125 4.460938 15.8125 5.25 C 15.367188 4.691406 14.792969 4.199219 14 4 C 14.300781 4.78125 14.421875 5.441406 14.46875 6 C 13.90625 5.492188 13.105469 5.074219 12 5 C 12 5 12.660156 5.679688 12.90625 7 C 8.148438 7.0625 4 12.039063 4 18 C 4 24 8.203125 29 13 29 L 19 29 C 23.644531 29 28 24.019531 28 18 C 28 12.003906 23.683594 7.042969 19.0625 7 C 19.296875 5.53125 20 5 20 5 C 19.238281 5 18.617188 5.179688 18.125 5.46875 C 17.96875 4.628906 17.652344 3.730469 17 3 Z M 13 9 C 14.332031 9 15.09375 10.4375 15.09375 10.4375 L 16.90625 10.4375 C 16.90625 10.4375 17.667969 9 19 9 C 22.105469 9 26 12.976563 26 18 C 26 23.023438 22.105469 27 19 27 C 17.667969 27 16.90625 25.5625 16.90625 25.5625 L 15.09375 25.5625 C 15.09375 25.5625 14.332031 27 13 27 C 9.671875 27 6 23.046875 6 18 C 6 12.953125 9.671875 9 13 9 Z M 13 11 C 12.449219 11 12 11.449219 12 12 C 12 12.550781 12.449219 13 13 13 C 13.550781 13 14 12.550781 14 12 C 14 11.449219 13.550781 11 13 11 Z M 19 11 C 18.449219 11 18 11.449219 18 12 C 18 12.550781 18.449219 13 19 13 C 19.550781 13 20 12.550781 20 12 C 20 11.449219 19.550781 11 19 11 Z M 10 13 C 9.449219 13 9 13.449219 9 14 C 9 14.550781 9.449219 15 10 15 C 10.550781 15 11 14.550781 11 14 C 11 13.449219 10.550781 13 10 13 Z M 16 13 C 15.449219 13 15 13.449219 15 14 C 15 14.550781 15.449219 15 16 15 C 16.550781 15 17 14.550781 17 14 C 17 13.449219 16.550781 13 16 13 Z M 22 13 C 21.449219 13 21 13.449219 21 14 C 21 14.550781 21.449219 15 22 15 C 22.550781 15 23 14.550781 23 14 C 23 13.449219 22.550781 13 22 13 Z M 13 15 C 12.449219 15 12 15.449219 12 16 C 12 16.550781 12.449219 17 13 17 C 13.550781 17 14 16.550781 14 16 C 14 15.449219 13.550781 15 13 15 Z M 19 15 C 18.449219 15 18 15.449219 18 16 C 18 16.550781 18.449219 17 19 17 C 19.550781 17 20 16.550781 20 16 C 20 15.449219 19.550781 15 19 15 Z M 10 17 C 9.449219 17 9 17.449219 9 18 C 9 18.550781 9.449219 19 10 19 C 10.550781 19 11 18.550781 11 18 C 11 17.449219 10.550781 17 10 17 Z M 16 17 C 15.449219 17 15 17.449219 15 18 C 15 18.550781 15.449219 19 16 19 C 16.550781 19 17 18.550781 17 18 C 17 17.449219 16.550781 17 16 17 Z M 22 17 C 21.449219 17 21 17.449219 21 18 C 21 18.550781 21.449219 19 22 19 C 22.550781 19 23 18.550781 23 18 C 23 17.449219 22.550781 17 22 17 Z M 13 19 C 12.449219 19 12 19.449219 12 20 C 12 20.550781 12.449219 21 13 21 C 13.550781 21 14 20.550781 14 20 C 14 19.449219 13.550781 19 13 19 Z M 19 19 C 18.449219 19 18 19.449219 18 20 C 18 20.550781 18.449219 21 19 21 C 19.550781 21 20 20.550781 20 20 C 20 19.449219 19.550781 19 19 19 Z M 10 21 C 9.449219 21 9 21.449219 9 22 C 9 22.550781 9.449219 23 10 23 C 10.550781 23 11 22.550781 11 22 C 11 21.449219 10.550781 21 10 21 Z M 16 21 C 15.449219 21 15 21.449219 15 22 C 15 22.550781 15.449219 23 16 23 C 16.550781 23 17 22.550781 17 22 C 17 21.449219 16.550781 21 16 21 Z M 22 21 C 21.449219 21 21 21.449219 21 22 C 21 22.550781 21.449219 23 22 23 C 22.550781 23 23 22.550781 23 22 C 23 21.449219 22.550781 21 22 21 Z M 13 23 C 12.449219 23 12 23.449219 12 24 C 12 24.550781 12.449219 25 13 25 C 13.550781 25 14 24.550781 14 24 C 14 23.449219 13.550781 23 13 23 Z M 19 23 C 18.449219 23 18 23.449219 18 24 C 18 24.550781 18.449219 25 19 25 C 19.550781 25 20 24.550781 20 24 C 20 23.449219 19.550781 23 19 23 Z "></path>
</g>
</svg>
