<?xml version="1.0" encoding="UTF-8"?>
<svg xmlns="http://www.w3.org/2000/svg" xmlns:xlink="http://www.w3.org/1999/xlink" viewBox="0 0 32 32" version="1.1">
<g>
<path d="M 16 4 C 9.382813 4 4 9.382813 4 16 C 4 22.617188 9.382813 28 16 28 C 22.617188 28 28 22.617188 28 16 C 28 9.382813 22.617188 4 16 4 Z M 16 6 C 21.535156 6 26 10.464844 26 16 C 26 21.535156 21.535156 26 16 26 C 10.464844 26 6 21.535156 6 16 C 6 10.464844 10.464844 6 16 6 Z M 14 9 C 12.355469 9 11 10.355469 11 12 L 11 17 C 11 17.707031 11.261719 18.261719 11.5625 18.9375 C 11.863281 19.613281 12.242188 20.351563 12.625 21.03125 C 13.394531 22.386719 14.15625 23.5625 14.15625 23.5625 L 14.4375 24 L 14.96875 24 C 14.96875 24 15.457031 24.035156 16.03125 23.8125 C 16.320313 23.699219 16.710938 23.511719 16.9375 23.0625 C 17.152344 22.640625 17.070313 22.109375 16.90625 21.6875 L 16.9375 21.6875 L 16.375 20 L 20 20 C 21.644531 20 23 18.644531 23 17 L 23 16.84375 C 23 16.84375 22.855469 15.878906 22.65625 14.75 C 22.457031 13.621094 22.253906 12.414063 21.9375 11.625 C 21.707031 11.054688 21.445313 10.460938 21 9.9375 C 20.554688 9.414063 19.824219 9 19 9 Z M 14 11 L 19 11 C 19.277344 11 19.328125 11.046875 19.5 11.25 C 19.625 11.394531 19.765625 11.671875 19.90625 12 L 19 12 L 19 14 L 20.46875 14 C 20.539063 14.332031 20.597656 14.667969 20.65625 15 L 19 15 L 19 17 L 20.96875 17 C 20.96875 17.003906 20.96875 17.03125 20.96875 17.03125 C 20.945313 17.566406 20.539063 18 20 18 L 13.625 18 L 14.0625 19.3125 L 14.1875 19.65625 C 13.898438 19.128906 13.585938 18.59375 13.375 18.125 C 13.113281 17.542969 13 17 13 17 L 13 12 C 13 11.445313 13.445313 11 14 11 Z "></path>
</g>
</svg>
