<?xml version="1.0" encoding="UTF-8"?>
<svg xmlns="http://www.w3.org/2000/svg" xmlns:xlink="http://www.w3.org/1999/xlink" viewBox="0 0 32 32" version="1.1">
<g>
<path d="M 14 4 L 14 5.25 C 12.183594 5.523438 10.496094 6.328125 9.40625 7.8125 L 7.78125 9.9375 L 8.15625 10.5 L 11 15.25 L 11 26 L 9 26 L 9 28 L 27 28 L 27 26 L 25 26 L 25 5 L 22 5 L 22 4 Z M 16 6 L 20 6 L 20 7 L 23 7 L 23 13 L 18.59375 13 C 18.695313 12.898438 18.898438 12.8125 19 12.8125 C 19 12.414063 18.894531 11.992188 18.59375 11.59375 C 18.09375 11.09375 17.289063 11.007813 16.6875 11.40625 C 16.789063 11.707031 16.707031 12.113281 16.40625 12.3125 C 16.304688 12.414063 16.101563 12.5 16 12.5 C 16 12.667969 16.050781 12.832031 16.09375 13 L 16 13 C 14.738281 13 13.601563 13.5 12.71875 14.28125 L 10.1875 10.09375 L 11 9 C 11.90625 7.765625 13.414063 7 15 7 L 16 7 Z M 20.8125 8 C 20.613281 8.300781 20.300781 8.5 20 8.5 C 19.800781 8.5 19.699219 8.507813 19.5 8.40625 C 19.199219 8.707031 19 9.101563 19 9.5 C 19 10.199219 19.488281 10.800781 20.1875 11 C 20.386719 10.699219 20.699219 10.5 21 10.5 C 21.199219 10.5 21.300781 10.492188 21.5 10.59375 C 21.800781 10.394531 22 10 22 9.5 L 22 9.40625 C 21.699219 9.207031 21.5 8.898438 21.5 8.5 L 21.5 8.40625 C 21.300781 8.207031 21.113281 8.101563 20.8125 8 Z M 14.8125 9 C 14.613281 9.300781 14.300781 9.5 14 9.5 C 13.800781 9.5 13.699219 9.507813 13.5 9.40625 C 13.199219 9.707031 13 10.101563 13 10.5 C 13 11.199219 13.488281 11.800781 14.1875 12 C 14.386719 11.699219 14.699219 11.5 15 11.5 C 15.199219 11.5 15.300781 11.492188 15.5 11.59375 C 15.800781 11.292969 16 10.898438 16 10.5 L 16 10.40625 C 15.699219 10.207031 15.5 9.898438 15.5 9.5 L 15.5 9.40625 C 15.300781 9.207031 15.113281 9.101563 14.8125 9 Z M 7.8125 15 C 7.613281 15.300781 7.300781 15.5 7 15.5 C 6.800781 15.5 6.699219 15.507813 6.5 15.40625 C 6.199219 15.707031 6 16.101563 6 16.5 C 6 17.199219 6.488281 17.800781 7.1875 18 C 7.386719 17.699219 7.699219 17.5 8 17.5 C 8.199219 17.5 8.300781 17.492188 8.5 17.59375 C 8.800781 17.394531 9 17 9 16.5 L 9 16.40625 C 8.699219 16.207031 8.5 15.898438 8.5 15.5 L 8.5 15.40625 C 8.300781 15.207031 8.113281 15.101563 7.8125 15 Z M 16 15 L 23 15 L 23 26 L 13 26 L 13 18 C 13 16.34375 14.34375 15 16 15 Z M 6.6875 20.0625 C 6.351563 20.023438 5.988281 20.113281 5.6875 20.3125 C 5.789063 20.613281 5.707031 20.988281 5.40625 21.1875 C 5.304688 21.289063 5.101563 21.40625 5 21.40625 C 5 21.804688 5.105469 22.195313 5.40625 22.59375 L 5.5 22.6875 C 5.898438 22.585938 6.199219 22.707031 6.5 22.90625 C 6.800781 23.007813 7.113281 22.914063 7.3125 22.8125 C 7.210938 22.511719 7.292969 22.105469 7.59375 21.90625 C 7.695313 21.804688 7.898438 21.6875 8 21.6875 C 8 21.289063 7.894531 20.898438 7.59375 20.5 C 7.34375 20.25 7.023438 20.101563 6.6875 20.0625 Z M 18 22 C 17.449219 22 17 22.449219 17 23 C 17 23.550781 17.449219 24 18 24 C 18.550781 24 19 23.550781 19 23 C 19 22.449219 18.550781 22 18 22 Z "></path>
</g>
</svg>
