<?xml version="1.0" encoding="UTF-8"?>
<svg xmlns="http://www.w3.org/2000/svg" xmlns:xlink="http://www.w3.org/1999/xlink" viewBox="0 0 32 32" version="1.1">
<g>
<path d="M 6 3 L 6 29 L 26 29 L 26 13.4375 L 27.71875 11.71875 L 28 11.40625 L 28 3 Z M 8 5 L 22 5 L 22 11.40625 L 22.28125 11.71875 L 24 13.4375 L 24 27 L 8 27 Z M 24 5 L 26 5 L 26 10.5625 L 25 11.5625 L 24 10.5625 Z M 13 8 L 15 10.5 L 13 13 L 15 13 L 16 11.75 L 17 13 L 19 13 L 17 10.5 L 19 8 L 17 8 L 16 9.25 L 15 8 Z M 13 14 L 15 16.5 L 13 19 L 15 19 L 16 17.75 L 17 19 L 19 19 L 17 16.5 L 19 14 L 17 14 L 16 15.25 L 15 14 Z M 13 20 L 15 22.5 L 13 25 L 15 25 L 16 23.75 L 17 25 L 19 25 L 17 22.5 L 19 20 L 17 20 L 16 21.25 L 15 20 Z "></path>
</g>
</svg>
