<?xml version="1.0"?>
<svg xmlns="http://www.w3.org/2000/svg" viewBox="0 0 32 32">
    <path d="M 18 6 C 13.460365 6 7.9322711 8.1111501 3.4960938 12.005859 L -0.009765625 12.042969 L 0.009765625 14.041016 L 1.5605469 14.025391 C 0.54704907 15.436086 1.4802974e-16 17.139339 0 18.888672 L 0 23 L 4.1445312 23 C 4.5944085 24.715786 6.1496983 26 8 26 C 9.8503014 26 11.405591 24.715786 11.855469 23 L 21.144531 23 C 21.594409 24.715786 23.149699 26 25 26 C 26.850301 26 28.405591 24.715786 28.855469 23 L 29 23 C 30.333333 23 31.275274 22.18578 31.644531 21.447266 C 32.013788 20.708752 32 20 32 20 L 32 16 C 32 13.802666 30.197334 12 28 12 L 26 12 C 25.583333 12 25.117694 11.78358 24.556641 11.302734 C 23.995587 10.821889 23.39263 10.109362 22.767578 9.359375 C 22.142526 8.6093876 21.495592 7.8218818 20.744141 7.1777344 C 19.992689 6.533587 19.083194 6 18 6 z M 18 8 C 18.416306 8 18.882405 8.216413 19.443359 8.6972656 C 20.004314 9.1781182 20.605396 9.8906124 21.230469 10.640625 C 21.608743 11.094508 21.998956 11.558744 22.412109 12 L 15.480469 12 L 12.984375 8.8789062 C 14.757152 8.3068047 16.478205 8 18 8 z M 11.013672 9.6191406 L 12.917969 12 L 7 12 A 1.0001 1.0001 0 0 0 6.9863281 11.832031 C 8.2884517 10.94146 9.6518195 10.206442 11.013672 9.6191406 z M 5.328125 13.074219 C 5.5325084 13.395979 5.8009745 13.643651 6.0527344 13.769531 C 6.5412483 14.013788 7 14 7 14 L 26 14 L 28 14 C 29.116666 14 30 14.883334 30 16 L 30 20 C 30 20 29.98621 20.291248 29.855469 20.552734 C 29.724726 20.81422 29.666667 21 29 21 L 28.855469 21 C 28.405591 19.284214 26.850301 18 25 18 C 23.149699 18 21.594409 19.284214 21.144531 21 L 11.855469 21 C 11.405591 19.284214 9.8503014 18 8 18 C 6.1496983 18 4.5944085 19.284214 4.1445312 21 L 2 21 L 2 18.888672 C 2 17.201665 2.6558052 15.576196 3.84375 14.40625 C 4.3200062 13.937138 4.817445 13.494459 5.328125 13.074219 z M 8 20 C 9.1164141 20 10 20.883586 10 22 C 10 23.116414 9.1164141 24 8 24 C 6.8835859 24 6 23.116414 6 22 C 6 20.883586 6.8835859 20 8 20 z M 25 20 C 26.085528 20 26.943181 20.837639 26.990234 21.910156 A 1.0001 1.0001 0 0 0 26.990234 22.091797 C 26.94221 23.163368 26.084864 24 25 24 C 23.883586 24 23 23.116414 23 22 C 23 20.883586 23.883586 20 25 20 z"></path>
</svg>
