<?xml version="1.0"?>
<svg xmlns="http://www.w3.org/2000/svg" viewBox="0 0 32 32">
    <path d="M 19 6 C 15.889722 6 13.070845 6.7292485 10.542969 7.953125 L 10.539062 7.9472656 C 10.520501 7.9569288 10.501054 7.9706762 10.482422 7.9804688 C 8.3601408 9.0164253 6.4463833 10.402708 4.7402344 12.005859 L -0.0078125 12.042969 L 0.0078125 14.041016 L 2.796875 14.019531 C 1.8403908 15.109548 0.96394039 16.260669 0.16992188 17.443359 L 0 17.695312 L 0 23 L 4.1445312 23 C 4.5944085 24.715786 6.1496983 26 8 26 C 9.8503014 26 11.405591 24.715786 11.855469 23 L 21.144531 23 C 21.594409 24.715786 23.149699 26 25 26 C 26.850301 26 28.405591 24.715786 28.855469 23 L 29 23 C 30.333333 23 31.275274 22.18578 31.644531 21.447266 C 32.013788 20.708752 32 20 32 20 L 32 15 C 32 13.35503 30.64497 12 29 12 L 23.394531 12 C 23.094844 11.386397 22.69392 10.586227 22.255859 9.7734375 C 21.808924 8.9441805 21.330518 8.1111318 20.869141 7.4453125 C 20.638452 7.1124029 20.416307 6.8223262 20.166016 6.5722656 C 19.915724 6.3222051 19.666167 6 19 6 z M 18.789062 8.0332031 C 18.895962 8.1458956 19.048424 8.3297296 19.224609 8.5839844 C 19.606982 9.1357901 20.066076 9.9264603 20.494141 10.720703 C 20.744112 11.184507 20.933611 11.573758 21.148438 12 L 15.191406 12 L 13.589844 8.9003906 C 15.21156 8.3663648 16.942525 8.0561906 18.789062 8.0332031 z M 11.720703 9.6367188 L 12.941406 12 L 9 12 C 9 11.76637 9.1880224 11.376667 9.65625 10.9375 C 10.046392 10.571573 10.590106 10.219709 11.136719 9.9121094 C 11.328879 9.8155653 11.524939 9.7266878 11.720703 9.6367188 z M 7.0976562 12.599609 C 7.2802137 13.154349 7.6876643 13.586996 8.0527344 13.769531 C 8.5412483 14.013788 9 14 9 14 L 29 14 C 29.56503 14 30 14.43497 30 15 L 30 20 C 30 20 29.98621 20.291248 29.855469 20.552734 C 29.724726 20.81422 29.666667 21 29 21 L 28.855469 21 C 28.405591 19.284214 26.850301 18 25 18 C 23.149699 18 21.594409 19.284214 21.144531 21 L 11.855469 21 C 11.405591 19.284214 9.8503014 18 8 18 C 6.1496983 18 4.5944085 19.284214 4.1445312 21 L 2 21 L 2 18.34375 C 3.4512818 16.218098 5.1499094 14.242165 7.0976562 12.599609 z M 8 20 C 9.1164141 20 10 20.883586 10 22 C 10 23.116414 9.1164141 24 8 24 C 6.8835859 24 6 23.116414 6 22 C 6 20.883586 6.8835859 20 8 20 z M 25 20 C 26.116414 20 27 20.883586 27 22 C 27 23.116414 26.116414 24 25 24 C 23.883586 24 23 23.116414 23 22 C 23 20.883586 23.883586 20 25 20 z"></path>
</svg>
