<?xml version="1.0" encoding="UTF-8"?>
<svg xmlns="http://www.w3.org/2000/svg" xmlns:xlink="http://www.w3.org/1999/xlink" viewBox="0 0 32 32" version="1.1">
<g>
<path d="M 26.5625 2 C 25.691406 2 24.980469 2.34375 24.5625 2.8125 C 24.144531 3.28125 24 3.75 24 4.21875 C 24 5.230469 24.625 5.996094 25.25 6.40625 C 25.875 6.816406 26.480469 7 27.09375 7 C 27.574219 7 28.167969 6.933594 28.75 6.65625 C 29.332031 6.378906 30 5.714844 30 4.8125 C 30 3.933594 29.472656 3.21875 28.84375 2.75 C 28.214844 2.28125 27.425781 2 26.5625 2 Z M 16.96875 4 C 13.367188 4 10.796875 5.253906 9.125 6.71875 C 7.453125 8.183594 6.671875 9.78125 6.375 10.6875 L 5.9375 12 L 8.09375 12 L 8.34375 11.34375 C 8.34375 11.34375 9.894531 7 15 7 C 18.738281 7 20.601563 8.332031 21.65625 9.625 C 22.710938 10.917969 22.875 12.15625 22.875 12.15625 L 23 13 L 25 13 L 25 12 C 25 11.882813 25.03125 11.242188 24.9375 10.46875 C 24.84375 9.695313 24.644531 8.714844 24.15625 7.75 C 23.179688 5.820313 20.9375 4 16.96875 4 Z M 26.5625 4 C 26.972656 4 27.390625 4.144531 27.65625 4.34375 C 27.902344 4.527344 27.988281 4.707031 28 4.78125 C 27.992188 4.777344 27.972656 4.796875 27.875 4.84375 C 27.679688 4.9375 27.292969 5 27.09375 5 C 27.074219 5 26.644531 4.894531 26.375 4.71875 C 26.105469 4.542969 26 4.429688 26 4.21875 C 26.007813 4.191406 26.042969 4.179688 26.0625 4.15625 C 26.113281 4.101563 26.160156 4 26.5625 4 Z M 2 13.84375 L 2 16.90625 C 2 16.914063 2.6875 16.90625 2.6875 16.90625 C 2.675781 16.894531 2.71875 15.8125 2.71875 15.8125 L 3.3125 15.8125 C 3.5625 15.8125 4.21875 15.597656 4.21875 14.78125 C 4.21875 13.988281 3.425781 13.84375 3.28125 13.84375 Z M 11.0625 13.84375 L 9.875 16.9375 L 10.59375 16.9375 L 10.8125 16.28125 L 11.96875 16.28125 L 12.21875 16.9375 L 12.96875 16.9375 L 11.8125 13.84375 Z M 8.84375 14.125 L 8.84375 14.46875 C 8.84375 14.632813 8.726563 14.75 8.5625 14.75 L 8.40625 14.75 L 8.40625 15.375 L 8.78125 15.375 C 8.777344 15.371094 8.78125 15.640625 8.78125 16.28125 C 8.78125 16.921875 9.40625 16.96875 9.5 16.96875 C 9.59375 16.96875 9.625 16.96875 9.625 16.96875 L 9.84375 16.34375 C 9.84375 16.34375 9.78125 16.375 9.6875 16.375 C 9.554688 16.375 9.4375 16.28125 9.4375 16.15625 L 9.4375 15.375 L 9.875 15.375 L 9.875 14.75 L 9.4375 14.75 L 9.4375 14.125 Z M 20.28125 14.125 L 20.28125 14.46875 C 20.28125 14.632813 20.132813 14.75 19.96875 14.75 L 19.84375 14.75 L 19.84375 15.375 L 20.21875 15.375 C 20.214844 15.371094 20.21875 15.640625 20.21875 16.28125 C 20.21875 16.921875 20.789063 16.96875 20.9375 16.96875 C 21.160156 16.96875 21.3125 16.90625 21.3125 16.90625 L 21.3125 16.34375 C 21.3125 16.34375 21.1875 16.375 21.09375 16.375 C 20.960938 16.375 20.875 16.28125 20.875 16.15625 L 20.875 15.375 L 21.28125 15.375 L 21.28125 14.75 L 20.84375 14.75 L 20.84375 14.125 Z M 2.71875 14.4375 L 3.09375 14.4375 C 3.296875 14.4375 3.53125 14.570313 3.53125 14.8125 C 3.53125 15.023438 3.351563 15.21875 3.09375 15.21875 C 2.835938 15.21875 2.726563 15.210938 2.71875 15.21875 Z M 11.40625 14.625 L 11.78125 15.65625 L 11.03125 15.65625 Z M 5.40625 14.6875 C 4.773438 14.6875 4.28125 15.207031 4.28125 15.84375 C 4.28125 16.480469 4.773438 17 5.40625 17 C 6.039063 17 6.5625 16.480469 6.5625 15.84375 C 6.5625 15.207031 6.039063 14.6875 5.40625 14.6875 Z M 16.1875 14.6875 C 15.191406 14.6875 15.09375 15.644531 15.09375 15.84375 C 15.09375 16.3125 15.40625 17 16.21875 17 C 17.03125 17 17.21875 16.3125 17.21875 16.3125 L 16.6875 16.15625 C 16.6875 16.15625 16.597656 16.4375 16.21875 16.4375 C 15.839844 16.4375 15.71875 16 15.71875 16 L 17.25 16 C 17.25 15.503906 17.152344 14.6875 16.1875 14.6875 Z M 18.875 14.6875 C 18.472656 14.6875 18.21875 14.96875 18.21875 14.96875 L 18.21875 14.75 L 17.59375 14.75 L 17.59375 16.9375 L 18.21875 16.9375 L 18.21875 15.6875 C 18.21875 15.441406 18.402344 15.3125 18.59375 15.3125 C 18.761719 15.3125 18.96875 15.394531 18.96875 15.625 L 18.96875 16.9375 L 19.625 16.9375 L 19.625 15.4375 C 19.625 15.109375 19.277344 14.6875 18.875 14.6875 Z M 26.6875 14.6875 C 26.128906 14.6875 25.6875 15.207031 25.6875 15.84375 C 25.6875 16.480469 26.128906 17 26.6875 17 C 26.9375 17 27.167969 16.886719 27.34375 16.71875 L 27.34375 16.9375 L 28 16.9375 L 28 14.75 L 27.34375 14.75 L 27.34375 14.96875 C 27.167969 14.800781 26.9375 14.6875 26.6875 14.6875 Z M 8.09375 14.71875 C 7.722656 14.71875 7.53125 15.03125 7.53125 15.03125 L 7.53125 14.75 L 6.90625 14.75 L 6.90625 16.9375 L 7.5625 16.9375 C 7.558594 16.9375 7.5625 16.394531 7.5625 15.9375 C 7.5625 15.457031 7.933594 15.375 8.0625 15.375 C 8.191406 15.375 8.25 15.40625 8.25 15.40625 L 8.25 14.75 C 8.25 14.75 8.199219 14.71875 8.09375 14.71875 Z M 25.34375 14.71875 C 24.972656 14.71875 24.78125 15.03125 24.78125 15.03125 L 24.78125 14.75 L 24.15625 14.75 L 24.15625 16.9375 L 24.8125 16.9375 C 24.804688 16.9375 24.808594 16.394531 24.8125 15.9375 C 24.8125 15.457031 25.183594 15.375 25.3125 15.375 C 25.441406 15.375 25.5 15.40625 25.5 15.40625 L 25.5 14.75 C 25.5 14.75 25.449219 14.71875 25.34375 14.71875 Z M 12.6875 14.75 L 13.59375 16.9375 L 14.28125 16.9375 L 15.0625 14.75 L 14.375 14.75 L 13.90625 16.09375 L 13.40625 14.75 Z M 21.65625 14.75 L 21.65625 16.25 C 21.65625 16.578125 22.003906 17 22.40625 17 C 22.808594 17 23.03125 16.71875 23.03125 16.71875 L 23.03125 16.9375 L 23.6875 16.9375 L 23.6875 14.75 L 23.03125 14.75 L 23.03125 16 C 23.03125 16.246094 22.847656 16.375 22.65625 16.375 C 22.488281 16.375 22.3125 16.292969 22.3125 16.0625 L 22.3125 14.75 Z M 16.1875 15.21875 C 16.570313 15.21875 16.625 15.59375 16.625 15.59375 L 15.75 15.59375 C 15.75 15.507813 15.839844 15.21875 16.1875 15.21875 Z M 26.84375 15.28125 C 27.121094 15.28125 27.34375 15.53125 27.34375 15.84375 C 27.34375 16.15625 27.121094 16.40625 26.84375 16.40625 C 26.566406 16.40625 26.34375 16.15625 26.34375 15.84375 C 26.34375 15.53125 26.566406 15.28125 26.84375 15.28125 Z M 5.40625 15.3125 C 5.679688 15.3125 5.90625 15.542969 5.90625 15.84375 C 5.90625 16.144531 5.679688 16.375 5.40625 16.375 C 5.132813 16.375 4.9375 16.144531 4.9375 15.84375 C 4.9375 15.542969 5.132813 15.3125 5.40625 15.3125 Z M 13.375 18 C 12.597656 18 11.96875 18.671875 11.96875 19.5 C 11.96875 20.328125 12.597656 21 13.375 21 C 14.152344 21 14.78125 20.328125 14.78125 19.5 C 14.78125 18.671875 14.152344 18 13.375 18 Z M 8 18.03125 L 8.8125 20.9375 L 9.21875 20.9375 L 9.90625 18.59375 L 10.65625 20.9375 L 11.0625 20.9375 L 11.84375 18.03125 L 11.46875 18.03125 L 10.84375 20.3125 L 10.15625 18.03125 L 9.75 18.03125 L 9.03125 20.28125 L 8.40625 18.03125 Z M 17.625 18.03125 L 17.625 20.9375 L 19.34375 20.9375 L 19.34375 20.5625 L 18 20.5625 L 18 18.03125 Z M 15.25 18.0625 L 15.25 20.9375 L 15.625 20.9375 L 15.625 19.75 L 16.0625 19.75 L 16.6875 20.9375 L 17.15625 20.9375 L 16.5 19.75 C 16.5 19.75 17.15625 19.628906 17.15625 18.875 C 17.15625 18.246094 16.59375 18.0625 16.34375 18.0625 Z M 19.6875 18.0625 L 19.6875 20.9375 L 20.75 20.9375 C 21.027344 20.9375 22 20.707031 22 19.46875 C 22 18.230469 20.984375 18.0625 20.75 18.0625 Z M 13.375 18.375 C 13.9375 18.375 14.40625 18.875 14.40625 19.5 C 14.40625 20.125 13.9375 20.625 13.375 20.625 C 12.8125 20.625 12.375 20.125 12.375 19.5 C 12.375 18.875 12.8125 18.375 13.375 18.375 Z M 15.65625 18.40625 L 16.21875 18.40625 C 16.425781 18.40625 16.75 18.527344 16.75 18.875 C 16.75 19.222656 16.472656 19.40625 16.3125 19.40625 L 15.65625 19.40625 Z M 20.0625 18.40625 C 20.066406 18.402344 20.554688 18.40625 20.75 18.40625 C 20.945313 18.40625 21.59375 18.632813 21.59375 19.53125 C 21.59375 20.429688 20.886719 20.59375 20.6875 20.59375 L 20.0625 20.59375 Z M 5 20 L 5 21 C 5 21.117188 4.96875 21.757813 5.0625 22.53125 C 5.15625 23.304688 5.355469 24.285156 5.84375 25.25 C 6.820313 27.179688 9.0625 29 13.03125 29 C 16.632813 29 19.203125 27.746094 20.875 26.28125 C 22.546875 24.816406 23.328125 23.21875 23.625 22.3125 L 24.0625 21 L 21.90625 21 L 21.65625 21.65625 C 21.65625 21.65625 20.105469 26 15 26 C 11.269531 26 9.398438 24.667969 8.34375 23.375 C 7.289063 22.082031 7.125 20.84375 7.125 20.84375 L 7 20 Z "></path>
</g>
</svg>
