<?xml version="1.0" encoding="UTF-8"?>
<svg xmlns="http://www.w3.org/2000/svg" xmlns:xlink="http://www.w3.org/1999/xlink" viewBox="0 0 32 32" version="1.1">
<g>
<path d="M 23 4 L 23 5.59375 L 21.90625 4.5 L 20.5 5.90625 L 21.59375 7 L 20 7 L 20 9 L 21.59375 9 L 20.5 10.09375 L 21.90625 11.5 L 23 10.40625 L 23 12 L 25 12 L 25 10.40625 L 26.09375 11.5 L 27.5 10.09375 L 26.40625 9 L 28 9 L 28 7 L 26.40625 7 L 27.5 5.90625 L 26.09375 4.5 L 25 5.59375 L 25 4 Z M 24 6 C 25.101563 6 26 6.898438 26 8 C 26 9.101563 25.101563 10 24 10 C 22.898438 10 22 9.101563 22 8 C 22 6.898438 22.898438 6 24 6 Z M 13 10 C 9.699219 10 7 12.699219 7 16 C 7 17.984375 7.976563 19.75 9.46875 20.84375 C 6.824219 22.148438 5 24.84375 5 28 L 7 28 C 7 24.628906 9.628906 22 13 22 C 16.371094 22 19 24.628906 19 28 L 21 28 C 21 24.84375 19.175781 22.148438 16.53125 20.84375 C 18.023438 19.75 19 17.984375 19 16 C 19 12.699219 16.300781 10 13 10 Z M 13 12 C 15.222656 12 17 13.777344 17 16 C 17 18.222656 15.222656 20 13 20 C 10.777344 20 9 18.222656 9 16 C 9 13.777344 10.777344 12 13 12 Z "></path>
</g>
</svg>
