<?xml version="1.0" encoding="UTF-8"?>
<svg xmlns="http://www.w3.org/2000/svg" xmlns:xlink="http://www.w3.org/1999/xlink" viewBox="0 0 32 32" version="1.1">
<g>
<path d="M 5 5 L 5 18 L 9 18 L 9 24 C 9 25.644531 10.355469 27 12 27 L 18 27 C 19.644531 27 21 25.644531 21 24 L 21 18 L 25 18 L 25 5 L 23 5 L 23 16 L 7 16 L 7 5 Z M 26 5 L 26 16 L 28 16 L 28 5 Z M 10 7 L 10 9 L 12 9 L 12 7 Z M 14 7 L 14 9 L 16 9 L 16 7 Z M 18 7 L 18 9 L 20 9 L 20 7 Z M 10 11 L 10 13 L 12 13 L 12 11 Z M 14 11 L 14 13 L 16 13 L 16 11 Z M 18 11 L 18 13 L 20 13 L 20 11 Z M 11 18 L 15 18 L 15 25 L 12 25 C 11.433594 25 11 24.566406 11 24 Z M 17 18 L 19 18 L 19 24 C 19 24.566406 18.566406 25 18 25 L 17 25 Z "></path>
</g>
</svg>
