<?xml version="1.0" encoding="UTF-8"?>
<svg xmlns="http://www.w3.org/2000/svg" xmlns:xlink="http://www.w3.org/1999/xlink" viewBox="0 0 32 32" version="1.1">
<g>
<path d="M 1 6 L 1 26 L 31 26 L 31 6 Z M 3 8 L 29 8 L 29 24 L 3 24 Z M 22 10 C 20.355469 10 19 11.355469 19 13 C 19 14.644531 20.355469 16 22 16 C 23.644531 16 25 14.644531 25 13 C 25 11.355469 23.644531 10 22 10 Z M 5 12 L 5 20 L 7 20 L 7 12 Z M 8 12 L 8 20 L 9 20 L 9 12 Z M 10 12 L 10 20 L 13 20 L 13 12 Z M 14 12 L 14 20 L 16 20 L 16 12 Z M 22 12 C 22.5625 12 23 12.4375 23 13 C 23 13.5625 22.5625 14 22 14 C 21.4375 14 21 13.5625 21 13 C 21 12.4375 21.4375 12 22 12 Z M 19 17 L 19 19 L 27 19 L 27 17 Z M 19 20 L 19 22 L 24 22 L 24 20 Z "></path>
</g>
</svg>
