<?xml version="1.0" encoding="UTF-8"?>
<svg xmlns="http://www.w3.org/2000/svg" xmlns:xlink="http://www.w3.org/1999/xlink" viewBox="0 0 32 32" version="1.1">
<g>
<path d="M 1 6 L 1 26 L 31 26 L 31 6 Z M 3 8 L 29 8 L 29 24 L 3 24 Z M 15 9 L 15 11 L 17 11 L 17 9 Z M 22 10 L 22 15 L 27 15 L 27 10 Z M 15 12 L 15 14 L 17 14 L 17 12 Z M 24 12 L 25 12 L 25 13 L 24 13 Z M 15 15 L 15 17 L 17 17 L 17 15 Z M 19 17 L 19 19 L 27 19 L 27 17 Z M 15 18 L 15 20 L 17 20 L 17 18 Z M 19 20 L 19 22 L 27 22 L 27 20 Z M 15 21 L 15 23 L 17 23 L 17 21 Z "></path>
</g>
</svg>
