<?xml version="1.0" encoding="UTF-8"?>
<svg xmlns="http://www.w3.org/2000/svg" xmlns:xlink="http://www.w3.org/1999/xlink" viewBox="0 0 32 32" version="1.1">
<g>
<path d="M 12 3 L 12 4.761719 C 11.800781 5.003906 11.507813 5.285156 11.085938 6.242188 C 10.53125 7.5 10 9.394531 10 12 L 10 20 C 10 21.644531 10.445313 23.886719 12 25.375 L 12 29 L 14 29 L 14 24.5 L 13.597656 24.199219 C 12.535156 23.402344 12 21.371094 12 20 L 12 12 C 12 9.667969 12.46875 8.0625 12.914063 7.054688 C 13.359375 6.042969 13.71875 5.695313 13.71875 5.695313 L 14 5.40625 L 14 3 Z M 18 3 L 18.007813 4.4375 L 18.320313 4.734375 C 18.390625 4.800781 20 6.367188 20 10 C 20 12.601563 19.601563 14.9375 19.308594 16.640625 C 19.128906 17.6875 19 18.445313 19 19 C 19 19.792969 19.410156 20.625 19.882813 21.59375 C 20.40625 22.660156 21 23.871094 21 25 C 21 26.085938 20.824219 27.785156 19.910156 29 L 22.21875 29 C 22.722656 27.886719 23 26.546875 23 25 C 23 23.40625 22.269531 21.914063 21.679688 20.714844 C 21.359375 20.0625 21 19.328125 21 19 C 21 18.613281 21.128906 17.855469 21.28125 16.980469 C 21.585938 15.203125 22 12.769531 22 10 C 22 6.433594 20.644531 4.382813 20 3.609375 L 20 3 Z M 16 5 C 15.449219 5 15 5.449219 15 6 C 15 6.550781 15.449219 7 16 7 C 16.550781 7 17 6.550781 17 6 C 17 5.449219 16.550781 5 16 5 Z M 16 8 C 15.449219 8 15 8.449219 15 9 C 15 9.550781 15.449219 10 16 10 C 16.550781 10 17 9.550781 17 9 C 17 8.449219 16.550781 8 16 8 Z M 16 11 C 15.449219 11 15 11.449219 15 12 C 15 12.550781 15.449219 13 16 13 C 16.550781 13 17 12.550781 17 12 C 17 11.449219 16.550781 11 16 11 Z M 16 14 C 15.449219 14 15 14.449219 15 15 C 15 15.550781 15.449219 16 16 16 C 16.550781 16 17 15.550781 17 15 C 17 14.449219 16.550781 14 16 14 Z M 16 17 C 15.449219 17 15 17.449219 15 18 C 15 18.550781 15.449219 19 16 19 C 16.550781 19 17 18.550781 17 18 C 17 17.449219 16.550781 17 16 17 Z M 16 20 C 15.449219 20 15 20.449219 15 21 C 15 21.550781 15.449219 22 16 22 C 16.550781 22 17 21.550781 17 21 C 17 20.449219 16.550781 20 16 20 Z M 24 20 C 23.449219 20 23 20.449219 23 21 C 23 21.550781 23.449219 22 24 22 C 24.550781 22 25 21.550781 25 21 C 25 20.449219 24.550781 20 24 20 Z M 19 22 C 18.449219 22 18 22.449219 18 23 C 18 23.550781 18.449219 24 19 24 C 19.550781 24 20 23.550781 20 23 C 20 22.449219 19.550781 22 19 22 Z M 16 23 C 15.449219 23 15 23.449219 15 24 C 15 24.550781 15.449219 25 16 25 C 16.550781 25 17 24.550781 17 24 C 17 23.449219 16.550781 23 16 23 Z M 10 25 C 9.449219 25 9 25.449219 9 26 C 9 26.550781 9.449219 27 10 27 C 10.550781 27 11 26.550781 11 26 C 11 25.449219 10.550781 25 10 25 Z M 7 26 C 6.449219 26 6 26.449219 6 27 C 6 27.550781 6.449219 28 7 28 C 7.550781 28 8 27.550781 8 27 C 8 26.449219 7.550781 26 7 26 Z M 16 26 C 15.449219 26 15 26.449219 15 27 C 15 27.550781 15.449219 28 16 28 C 16.550781 28 17 27.550781 17 27 C 17 26.449219 16.550781 26 16 26 Z "></path>
</g>
</svg>
