<?xml version="1.0" encoding="UTF-8"?>
<svg xmlns="http://www.w3.org/2000/svg" xmlns:xlink="http://www.w3.org/1999/xlink" viewBox="0 0 32 32" version="1.1">
<g>
<path d="M 20.125 4.03125 C 18.824219 4.019531 17.578125 4.4375 16.5 5.09375 C 14.339844 6.40625 12.574219 8.582031 10.8125 10.53125 C 9.253906 12.257813 6.976563 13.800781 5.4375 15.84375 C 4.667969 16.863281 4.085938 18.0625 4 19.4375 C 3.914063 20.8125 4.347656 22.316406 5.34375 23.9375 C 7.148438 26.882813 10.511719 28.15625 13.96875 28 C 17.425781 27.84375 21.058594 26.300781 23.75 23.53125 C 26.175781 21.03125 27.714844 17.617188 27.96875 14.25 C 28.222656 10.882813 27.121094 7.472656 24.1875 5.4375 C 22.800781 4.476563 21.425781 4.042969 20.125 4.03125 Z M 20.09375 5.96875 C 20.96875 5.976563 21.894531 6.304688 23.03125 7.09375 C 25.3125 8.675781 26.183594 11.238281 25.96875 14.09375 C 25.753906 16.949219 24.390625 19.984375 22.3125 22.125 C 20 24.507813 16.796875 25.867188 13.875 26 C 10.953125 26.132813 8.394531 25.097656 7.03125 22.875 C 6.191406 21.503906 5.945313 20.457031 6 19.5625 C 6.054688 18.667969 6.414063 17.851563 7.03125 17.03125 C 8.265625 15.394531 10.523438 13.851563 12.3125 11.875 C 12.648438 11.503906 12.980469 11.121094 13.3125 10.75 C 13.492188 10.914063 13.738281 11 14 11 C 14.550781 11 15 10.550781 15 10 C 15 9.714844 14.878906 9.464844 14.6875 9.28125 C 15.660156 8.261719 16.613281 7.359375 17.5625 6.78125 C 18.417969 6.261719 19.21875 5.960938 20.09375 5.96875 Z M 23 12 C 22.449219 12 22 12.449219 22 13 C 22 13.550781 22.449219 14 23 14 C 23.550781 14 24 13.550781 24 13 C 24 12.449219 23.550781 12 23 12 Z M 20.5 14 C 20.222656 14 20 14.222656 20 14.5 C 20 14.777344 20.222656 15 20.5 15 C 20.777344 15 21 14.777344 21 14.5 C 21 14.222656 20.777344 14 20.5 14 Z M 10.5 18 C 10.222656 18 10 18.222656 10 18.5 C 10 18.777344 10.222656 19 10.5 19 C 10.777344 19 11 18.777344 11 18.5 C 11 18.222656 10.777344 18 10.5 18 Z M 8.5 20 C 8.222656 20 8 20.222656 8 20.5 C 8 20.777344 8.222656 21 8.5 21 C 8.777344 21 9 20.777344 9 20.5 C 9 20.222656 8.777344 20 8.5 20 Z M 11 21 C 10.449219 21 10 21.449219 10 22 C 10 22.550781 10.449219 23 11 23 C 11.550781 23 12 22.550781 12 22 C 12 21.449219 11.550781 21 11 21 Z M 20.5 21 C 20.222656 21 20 21.222656 20 21.5 C 20 21.777344 20.222656 22 20.5 22 C 20.777344 22 21 21.777344 21 21.5 C 21 21.222656 20.777344 21 20.5 21 Z "></path>
</g>
</svg>
