<?xml version="1.0" encoding="UTF-8"?>
<svg xmlns="http://www.w3.org/2000/svg" xmlns:xlink="http://www.w3.org/1999/xlink" viewBox="0 0 32 32" version="1.1">
<g>
<path d="M 16 4 C 15.359375 4 14.773438 4.066406 14.28125 4.21875 C 14.035156 4.296875 13.828125 4.402344 13.59375 4.5625 C 13.359375 4.722656 13 5.019531 13 5.59375 L 13 8.15625 C 11.03125 8.308594 9.285156 8.640625 7.9375 9.125 C 7.152344 9.40625 6.496094 9.746094 5.96875 10.1875 C 5.441406 10.628906 5 11.246094 5 12 L 5 21 C 5 21.867188 5.570313 22.539063 6.21875 23 C 6.398438 23.128906 6.605469 23.234375 6.8125 23.34375 L 5.96875 24.65625 L 7.625 25.75 L 8.71875 24.09375 C 10.421875 24.589844 12.601563 24.902344 15 24.96875 L 15 28 L 17 28 L 17 24.96875 C 19.398438 24.902344 21.578125 24.589844 23.28125 24.09375 L 24.375 25.75 L 26.03125 24.65625 L 25.1875 23.34375 C 25.394531 23.234375 25.601563 23.128906 25.78125 23 C 26.429688 22.539063 27 21.867188 27 21 L 27 12 C 27 11.246094 26.558594 10.628906 26.03125 10.1875 C 25.503906 9.746094 24.847656 9.40625 24.0625 9.125 C 22.714844 8.640625 20.96875 8.308594 19 8.15625 L 19 5.59375 C 19 5.019531 18.640625 4.722656 18.40625 4.5625 C 18.171875 4.402344 17.964844 4.296875 17.71875 4.21875 C 17.226563 4.066406 16.640625 4 16 4 Z M 16 6 C 16.40625 6 16.757813 6.0625 17 6.125 L 17 10.875 C 16.757813 10.9375 16.40625 11 16 11 C 15.59375 11 15.242188 10.9375 15 10.875 L 15 6.125 C 15.242188 6.0625 15.59375 6 16 6 Z M 13 10.1875 L 13 11.40625 C 13 11.980469 13.359375 12.277344 13.59375 12.4375 C 13.828125 12.597656 14.035156 12.703125 14.28125 12.78125 C 14.773438 12.933594 15.359375 13 16 13 C 16.640625 13 17.226563 12.933594 17.71875 12.78125 C 17.964844 12.703125 18.171875 12.597656 18.40625 12.4375 C 18.640625 12.277344 19 11.980469 19 11.40625 L 19 10.1875 C 20.769531 10.332031 22.300781 10.613281 23.375 11 C 24.015625 11.230469 24.496094 11.507813 24.75 11.71875 C 25.003906 11.929688 25 12.003906 25 12 C 25 11.984375 24.992188 12.113281 24.625 12.375 C 24.257813 12.636719 23.621094 12.9375 22.78125 13.1875 C 21.105469 13.683594 18.671875 14 16 14 C 13.328125 14 10.894531 13.683594 9.21875 13.1875 C 8.378906 12.9375 7.742188 12.636719 7.375 12.375 C 7.007813 12.113281 7 11.984375 7 12 C 7 12.003906 6.996094 11.929688 7.25 11.71875 C 7.503906 11.507813 7.984375 11.230469 8.625 11 C 9.699219 10.613281 11.230469 10.332031 13 10.1875 Z M 7 14.4375 C 7.492188 14.683594 8.03125 14.910156 8.65625 15.09375 C 10.605469 15.671875 13.171875 16 16 16 C 18.828125 16 21.394531 15.671875 23.34375 15.09375 C 23.96875 14.910156 24.507813 14.683594 25 14.4375 L 25 21 C 25 20.984375 24.992188 21.113281 24.625 21.375 C 24.496094 21.464844 24.289063 21.558594 24.09375 21.65625 L 21.84375 18.25 L 21.8125 18.25 C 21.632813 17.984375 21.34375 17.8125 21 17.8125 C 20.449219 17.8125 20 18.261719 20 18.8125 C 20 19.019531 20.078125 19.183594 20.1875 19.34375 L 20.15625 19.34375 L 22.125 22.34375 C 20.730469 22.679688 18.953125 22.910156 17 22.96875 L 17 19.8125 C 17 19.261719 16.550781 18.8125 16 18.8125 C 15.449219 18.8125 15 19.261719 15 19.8125 L 15 22.96875 C 13.046875 22.910156 11.269531 22.679688 9.875 22.34375 L 11.71875 19.53125 L 11.84375 19.34375 C 11.941406 19.1875 12 19.007813 12 18.8125 C 12 18.261719 11.550781 17.8125 11 17.8125 C 10.648438 17.8125 10.367188 18.007813 10.1875 18.28125 L 10.15625 18.25 L 7.90625 21.65625 C 7.710938 21.558594 7.503906 21.464844 7.375 21.375 C 7.007813 21.113281 7 20.984375 7 21 Z "></path>
</g>
</svg>
