<?xml version="1.0" encoding="UTF-8"?>
<svg xmlns="http://www.w3.org/2000/svg" xmlns:xlink="http://www.w3.org/1999/xlink" viewBox="0 0 32 32" version="1.1">
<g>
<path d="M 9.53125 4.03125 C 8.035156 4.117188 6.367188 4.582031 4.53125 5.59375 L 3.84375 5.96875 L 4.03125 6.71875 C 4.03125 6.71875 4.882813 10.289063 6.90625 12.53125 C 8.003906 13.75 9.40625 14.078125 10.5 13.96875 C 11.59375 13.859375 12.308594 13.492188 12.8125 13.03125 L 11.46875 11.5625 C 11.511719 11.523438 10.882813 11.9375 10.28125 12 C 9.679688 12.0625 9.066406 11.953125 8.375 11.1875 C 7.222656 9.910156 6.550781 7.933594 6.25 7 C 9.066406 5.671875 11.132813 5.875 12.375 6.59375 C 13.589844 7.300781 14.085938 8.5 13.96875 9.4375 C 13.667969 9.199219 13.363281 8.976563 13.0625 8.78125 C 11.179688 7.546875 9.3125 6.96875 9.3125 6.96875 L 8.71875 8.90625 C 8.71875 8.90625 10.363281 9.382813 11.96875 10.4375 C 13.574219 11.492188 15 12.984375 15 15 L 15 17 L 8 17 L 8 22 L 9.1875 22 L 10.28125 27.21875 L 10.4375 28 L 21.5625 28 L 21.71875 27.21875 L 22.8125 22 L 24 22 L 24 17 L 17 17 L 17 16.6875 C 17 15.46875 18.246094 14.101563 19.71875 13.09375 C 21.191406 12.085938 22.6875 11.46875 22.6875 11.46875 L 21.9375 9.625 C 21.9375 9.625 21.082031 9.960938 20 10.5625 C 20.019531 9.933594 20.375 9.371094 21.125 9.03125 C 21.945313 8.660156 23.476563 8.8125 25.46875 9.75 C 25.117188 10.351563 24.785156 11.011719 23.84375 12.15625 C 23.285156 12.832031 22.773438 13.015625 22.375 13.03125 C 21.976563 13.046875 21.722656 12.761719 21.8125 12.90625 L 20.125 14 C 20.632813 14.792969 21.46875 15.070313 22.4375 15.03125 C 23.40625 14.992188 24.53125 14.496094 25.40625 13.4375 C 26.875 11.65625 27.875 9.78125 27.875 9.78125 L 28.34375 8.9375 L 27.5 8.4375 C 26.027344 7.550781 24.683594 7.058594 23.46875 6.875 C 22.253906 6.691406 21.167969 6.816406 20.28125 7.21875 C 18.507813 8.019531 17.648438 9.917969 18.125 11.65625 C 18.136719 11.703125 18.144531 11.703125 18.15625 11.75 C 17.640625 12.128906 17.121094 12.546875 16.65625 13.03125 C 16.40625 12.304688 16.042969 11.644531 15.59375 11.0625 C 15.628906 10.964844 15.664063 10.886719 15.6875 10.8125 C 15.757813 10.578125 15.820313 10.386719 15.84375 10.3125 C 16.4375 8.324219 15.445313 6.046875 13.375 4.84375 C 12.339844 4.242188 11.027344 3.945313 9.53125 4.03125 Z M 10 19 L 22 19 L 22 20 L 10 20 Z M 11.21875 22 L 20.78125 22 L 19.9375 26 L 12.0625 26 Z "></path>
</g>
</svg>
