<?xml version="1.0" encoding="UTF-8"?>
<svg xmlns="http://www.w3.org/2000/svg" xmlns:xlink="http://www.w3.org/1999/xlink" viewBox="0 0 32 32" version="1.1">
<g>
<path d="M 16 4 C 14.484375 4 13.117188 4.300781 12.03125 4.84375 C 10.945313 5.386719 10 6.269531 10 7.5 C 10 7.679688 10.023438 7.835938 10.0625 8 L 10 8 L 10 10.09375 C 7.730469 10.5625 6 12.597656 6 15 L 6 23 C 6 25.746094 8.253906 28 11 28 L 21 28 C 23.746094 28 26 25.746094 26 23 L 26 15 C 26 12.597656 24.269531 10.5625 22 10.09375 L 22 8 L 21.9375 8 C 21.976563 7.835938 22 7.679688 22 7.5 C 22 6.269531 21.054688 5.386719 19.96875 4.84375 C 18.882813 4.300781 17.515625 4 16 4 Z M 16 6 C 17.246094 6 18.371094 6.261719 19.09375 6.625 C 19.816406 6.988281 20 7.351563 20 7.5 C 20 7.648438 19.816406 8.011719 19.09375 8.375 C 18.371094 8.738281 17.246094 9 16 9 C 14.753906 9 13.628906 8.738281 12.90625 8.375 C 12.183594 8.011719 12 7.648438 12 7.5 C 12 7.351563 12.183594 6.988281 12.90625 6.625 C 13.628906 6.261719 14.753906 6 16 6 Z M 14 7 C 13.449219 7 13 7.222656 13 7.5 C 13 7.777344 13.449219 8 14 8 C 14.550781 8 15 7.777344 15 7.5 C 15 7.222656 14.550781 7 14 7 Z M 18 7 C 17.449219 7 17 7.222656 17 7.5 C 17 7.777344 17.449219 8 18 8 C 18.550781 8 19 7.777344 19 7.5 C 19 7.222656 18.550781 7 18 7 Z M 12 10.125 C 12.011719 10.132813 12.019531 10.148438 12.03125 10.15625 C 13.117188 10.699219 14.484375 11 16 11 C 17.515625 11 18.882813 10.699219 19.96875 10.15625 C 19.980469 10.148438 19.988281 10.132813 20 10.125 L 20 11.5 C 20 11.648438 19.816406 12.011719 19.09375 12.375 C 18.371094 12.738281 17.246094 13 16 13 C 14.753906 13 13.628906 12.738281 12.90625 12.375 C 12.183594 12.011719 12 11.648438 12 11.5 Z M 10.09375 12.15625 C 10.363281 13.042969 11.152344 13.71875 12.03125 14.15625 C 13.117188 14.699219 14.484375 15 16 15 C 17.515625 15 18.882813 14.699219 19.96875 14.15625 C 20.847656 13.71875 21.636719 13.042969 21.90625 12.15625 C 23.113281 12.546875 24 13.667969 24 15 L 24 23 C 24 24.65625 22.65625 26 21 26 L 11 26 C 9.34375 26 8 24.65625 8 23 L 8 15 C 8 13.667969 8.886719 12.546875 10.09375 12.15625 Z "></path>
</g>
</svg>
