<?xml version="1.0" encoding="UTF-8"?>
<svg xmlns="http://www.w3.org/2000/svg" xmlns:xlink="http://www.w3.org/1999/xlink" viewBox="0 0 32 32" version="1.1">
<g>
<path d="M 6 3 L 6 29 L 26 29 L 26 3 Z M 8 5 L 24 5 L 24 27 L 8 27 Z M 13 11 L 13 13 L 17 13 C 18.191406 13 19 13.808594 19 15 C 19 16.191406 18.191406 17 17 17 C 15.808594 17 15 16.191406 15 15 L 13 15 L 13 22 L 15 22 L 15 18.40625 C 15.59375 18.757813 16.261719 19 17 19 C 19.210938 19 21 17.210938 21 15 C 21 12.789063 19.210938 11 17 11 Z "></path>
</g>
</svg>
