<?xml version="1.0" encoding="UTF-8"?>
<svg xmlns="http://www.w3.org/2000/svg" xmlns:xlink="http://www.w3.org/1999/xlink" viewBox="0 0 32 32" version="1.1">
<g>
<path d="M 6 3 L 6 10 L 8 10 L 8 5 L 24 5 L 24 10 L 26 10 L 26 3 Z M 8 12 L 8 20 L 10 20 L 10 18 C 11.644531 18 13 16.644531 13 15 C 13 13.355469 11.644531 12 10 12 Z M 14 12 L 14 20 L 16 20 L 16 18 C 17.644531 18 19 16.644531 19 15 C 19 13.355469 17.644531 12 16 12 Z M 20 12 L 20 14 L 21 14 L 21 20 L 23 20 L 23 14 L 24 14 L 24 12 Z M 10 14 C 10.554688 14 11 14.445313 11 15 C 11 15.554688 10.554688 16 10 16 Z M 16 14 C 16.554688 14 17 14.445313 17 15 C 17 15.554688 16.554688 16 16 16 Z M 6 22 L 6 29 L 26 29 L 26 22 L 24 22 L 24 27 L 8 27 L 8 22 Z "></path>
</g>
</svg>
