<?xml version="1.0" encoding="UTF-8"?>
<svg xmlns="http://www.w3.org/2000/svg" xmlns:xlink="http://www.w3.org/1999/xlink" viewBox="0 0 32 32" version="1.1">
<g>
<path d="M 16.71875 4 C 13.128906 4 10.722656 5.277344 9.28125 6.59375 C 7.839844 7.910156 7.3125 9.34375 7.3125 9.34375 L 7.25 9.5 C 6.988281 9.765625 4 12.859375 4 17 C 4 20.605469 5.660156 23.449219 8 25.28125 C 10.339844 27.113281 13.332031 28 16.15625 28 C 22.449219 28 26.71875 23.53125 26.71875 23.53125 L 25.28125 22.125 C 25.28125 22.125 23.898438 23.480469 21.6875 24.59375 C 21.828125 24.425781 21.976563 24.261719 22.09375 24.09375 C 23.078125 22.691406 23.46875 21.28125 23.46875 21.28125 L 21.5625 20.71875 C 21.5625 20.71875 21.210938 21.835938 20.4375 22.9375 C 19.664063 24.039063 18.601563 25 16.9375 25 C 15.226563 25 14.09375 24.132813 13.28125 23 C 12.46875 21.867188 12.09375 20.425781 12.09375 19.90625 C 12.09375 19.332031 12.160156 18.9375 12.28125 18.625 C 12.679688 19.839844 13.683594 21.191406 15.65625 21.96875 L 16.40625 20.125 C 14.71875 19.457031 14.292969 18.566406 14.125 17.78125 C 13.957031 16.996094 14.125 16.375 14.125 16.375 C 14.246094 16.230469 14.351563 16.09375 14.46875 15.9375 C 14.574219 16.277344 14.707031 16.667969 14.96875 17.0625 C 15.617188 18.039063 16.957031 19 19 19 L 19 17 C 17.523438 17 16.972656 16.460938 16.625 15.9375 C 16.570313 15.851563 16.539063 15.765625 16.5 15.6875 C 17.636719 15.460938 18.589844 15.09375 19.3125 14.5625 C 20.523438 13.671875 21.175781 12.515625 21.75 11.5 C 22.324219 10.484375 22.824219 9.59375 23.53125 9 C 24.238281 8.40625 25.175781 8 27 8 L 27 6 C 24.839844 6 23.292969 6.59375 22.21875 7.5 C 21.144531 8.40625 20.558594 9.515625 20 10.5 C 19.441406 11.484375 18.953125 12.328125 18.125 12.9375 C 17.296875 13.546875 16.101563 14 14 14 L 13.40625 14 L 13.125 14.5 C 12.722656 15.203125 12.097656 15.636719 11.40625 16.375 C 10.714844 17.113281 10.09375 18.261719 10.09375 19.90625 C 10.09375 21.09375 10.582031 22.691406 11.65625 24.1875 C 11.992188 24.65625 12.402344 25.101563 12.875 25.5 C 11.554688 25.113281 10.28125 24.519531 9.21875 23.6875 C 8.179688 22.875 7.316406 21.875 6.75 20.65625 C 7.371094 20.863281 8.109375 21 9 21 L 9 19 C 7.707031 19 6.988281 18.640625 6.5625 18.34375 C 6.136719 18.046875 6.0625 17.875 6.0625 17.875 C 6.039063 17.589844 6 17.300781 6 17 C 6 16.777344 6.007813 16.5625 6.03125 16.34375 C 6.714844 16.734375 7.691406 17 9 17 L 9 15 C 7.625 15 7.039063 14.664063 6.78125 14.4375 C 6.675781 14.347656 6.652344 14.269531 6.625 14.21875 C 7.058594 13.160156 7.613281 12.261719 8.0625 11.65625 C 8.609375 12.515625 9.511719 13.554688 11 14.5 L 12.0625 12.8125 C 10.742188 11.972656 10.039063 11.109375 9.65625 10.46875 C 9.394531 10.03125 9.382813 9.949219 9.34375 9.8125 C 9.414063 9.636719 9.632813 9.003906 10.625 8.09375 C 11.742188 7.070313 13.59375 6 16.71875 6 L 18.09375 6 C 18.039063 6.15625 18 6.328125 18 6.5 C 18 7.328125 18.671875 8 19.5 8 C 20.328125 8 21 7.328125 21 6.5 C 21 6.328125 20.960938 6.15625 20.90625 6 L 24.96875 6 L 24.96875 4 Z "></path>
</g>
</svg>
