<?xml version="1.0" encoding="UTF-8"?>
<svg xmlns="http://www.w3.org/2000/svg" xmlns:xlink="http://www.w3.org/1999/xlink" viewBox="0 0 32 32" version="1.1">
<g>
<path d="M 16 4 C 13.59375 4 11.394531 4.734375 9.75 5.96875 C 9.683594 6.015625 9.625 6.074219 9.5625 6.125 C 8.988281 6.332031 6.933594 7.164063 4.84375 9.3125 C 2.402344 11.820313 0 16.121094 0 23 L 2 23 C 2 16.578125 4.171875 12.886719 6.28125 10.71875 C 6.5625 10.429688 6.851563 10.171875 7.125 9.9375 C 7.058594 10.28125 7 10.636719 7 11 C 7 11.074219 7.027344 11.144531 7.03125 11.21875 C 6.582031 11.769531 5.886719 12.742188 5.1875 14.21875 C 4.078125 16.554688 3 20.101563 3 25 L 5 25 C 5 20.398438 6.007813 17.148438 7 15.0625 C 7.246094 14.539063 7.492188 14.09375 7.71875 13.71875 C 7.914063 14.078125 8.140625 14.425781 8.40625 14.75 L 7.125 20.6875 L 7.125 20.75 C 6.855469 22.367188 7.75 24.019531 9.375 24.5625 L 13 25.71875 L 13 28 L 19 28 L 19 25.71875 L 22.625 24.5625 C 24.25 24.019531 25.144531 22.367188 24.875 20.75 L 24.875 20.6875 L 23.5625 14.6875 C 23.824219 14.355469 24.019531 14 24.21875 13.625 C 24.464844 14.019531 24.726563 14.488281 25 15.0625 C 25.992188 17.148438 27 20.398438 27 25 L 29 25 C 29 20.101563 27.921875 16.554688 26.8125 14.21875 C 26.113281 12.742188 25.417969 11.769531 24.96875 11.21875 C 24.972656 11.175781 24.996094 11.136719 25 11.09375 C 25.035156 10.71875 25.019531 10.359375 24.96875 10 C 25.214844 10.21875 25.460938 10.453125 25.71875 10.71875 C 27.828125 12.886719 30 16.578125 30 23 L 32 23 C 32 16.121094 29.597656 11.820313 27.15625 9.3125 C 25.289063 7.390625 23.390625 6.503906 22.59375 6.1875 C 22.507813 6.117188 22.433594 6.035156 22.34375 5.96875 C 20.65625 4.734375 18.40625 4 16 4 Z M 16 6 C 18.328125 6 20 7.464844 20 9 C 20 10.535156 18.328125 12 16 12 C 13.671875 12 12 10.535156 12 9 C 12 7.464844 13.671875 6 16 6 Z M 21.9375 8.21875 C 22.714844 9.023438 23.085938 9.941406 23 10.90625 C 22.875 12.453125 22.09375 13.667969 20.84375 14.5625 C 19.59375 15.457031 17.863281 16 16 16 C 14.003906 16 12.191406 15.378906 10.9375 14.4375 C 9.683594 13.496094 9 12.285156 9 11 C 9 10.058594 9.371094 9.160156 10.0625 8.375 C 10.03125 8.582031 10 8.785156 10 9 C 10 11.882813 12.804688 14 16 14 C 19.195313 14 22 11.882813 22 9 C 22 8.730469 21.984375 8.472656 21.9375 8.21875 Z M 21.875 16.25 L 22.90625 21.0625 C 23.035156 21.835938 22.75 22.394531 22 22.65625 C 21.992188 22.660156 21.976563 22.652344 21.96875 22.65625 L 19 23.625 L 19 22.65625 L 17.3125 20.40625 L 17 20 L 15 20 L 14.6875 20.40625 L 13 22.65625 L 13 23.625 L 10.03125 22.65625 C 10.023438 22.652344 10.007813 22.660156 10 22.65625 C 9.25 22.394531 8.964844 21.835938 9.09375 21.0625 L 10.125 16.28125 C 10.238281 16.355469 10.351563 16.429688 10.46875 16.5 C 10.917969 17.636719 11.714844 19 13 19 C 14.03125 19 14.667969 18.433594 15.03125 17.96875 C 15.34375 17.996094 15.675781 18 16 18 C 16.324219 18 16.648438 17.964844 16.96875 17.9375 C 17.328125 18.402344 17.953125 19 19 19 C 20.292969 19 21.082031 17.609375 21.53125 16.46875 C 21.648438 16.398438 21.761719 16.328125 21.875 16.25 Z M 16 22 L 17 23.34375 L 17 26 L 15 26 L 15 23.34375 Z "></path>
</g>
</svg>
