<?xml version="1.0"?>
<svg xmlns="http://www.w3.org/2000/svg" viewBox="0 0 32 32">
    <path d="M 10 4 C 8.898 4 8 4.898 8 6 L 8 26 C 8 27.102 8.898 28 10 28 L 21 28 L 21 26 L 10 26 L 10 6 L 22 6 L 22 15 L 24 15 L 24 6 C 24 4.898 23.102 4 22 4 L 10 4 z M 25 16 L 25 18 C 23.3 18.3 22 19.7 22 21.5 C 22 23.5 23.5 25 25.5 25 L 26.5 25 C 27.3 25 28 25.7 28 26.5 C 28 27.3 27.3 28 26.5 28 L 23 28 L 23 30 L 25 30 L 25 32 L 27 32 L 27 30 C 28.7 29.7 30 28.3 30 26.5 C 30 24.5 28.5 23 26.5 23 L 25.5 23 C 24.7 23 24 22.3 24 21.5 C 24 20.7 24.7 20 25.5 20 L 29 20 L 29 18 L 27 18 L 27 16 L 25 16 z M 14 23 L 14 25 L 18 25 L 18 23 L 14 23 z"></path>
</svg>
