<?xml version="1.0" encoding="UTF-8"?>
<svg xmlns="http://www.w3.org/2000/svg" xmlns:xlink="http://www.w3.org/1999/xlink" viewBox="0 0 32 32" version="1.1">
<g>
<path d="M 16 4 C 11.042969 4 7 8.042969 7 13 C 7 16.910156 9.507813 20.230469 13 21.46875 L 13 23 L 5 23 L 5 25 L 15 25 L 15 21.9375 C 15.332031 21.976563 15.65625 22 16 22 C 16.34375 22 16.667969 21.976563 17 21.9375 L 17 25 L 27 25 L 27 23 L 19 23 L 19 21.46875 C 22.492188 20.230469 25 16.910156 25 13 C 25 8.042969 20.957031 4 16 4 Z M 16 6 C 19.878906 6 23 9.121094 23 13 C 23 16.878906 19.878906 20 16 20 C 12.121094 20 9 16.878906 9 13 C 9 9.121094 12.121094 6 16 6 Z M 19.28125 8.28125 L 16.5 11.0625 C 16.339844 11.019531 16.171875 11 16 11 C 14.894531 11 14 11.894531 14 13 C 14 14.105469 14.894531 15 16 15 C 17.105469 15 18 14.105469 18 13 C 18 12.828125 17.980469 12.660156 17.9375 12.5 L 20.71875 9.71875 Z M 5 26 L 5 28 L 27 28 L 27 26 Z "></path>
</g>
</svg>
