<?xml version="1.0" encoding="UTF-8"?>
<svg xmlns="http://www.w3.org/2000/svg" xmlns:xlink="http://www.w3.org/1999/xlink" viewBox="0 0 32 32" version="1.1">
<g>
<path d="M 9.09375 3 C 8.382813 3 7.847656 3.4375 7.46875 4 L 7 4 C 5.90625 4 5 4.90625 5 6 L 5 9 L 6 9 L 6 11.6875 C 5.941406 11.882813 5.941406 12.085938 6 12.28125 L 6 23.6875 C 5.941406 23.882813 5.941406 24.085938 6 24.28125 L 6 27 C 6 28.09375 6.90625 29 8 29 L 24 29 C 25.09375 29 26 28.09375 26 27 L 26 24.1875 C 26.027344 24.054688 26.027344 23.914063 26 23.78125 L 26 12.1875 C 26.027344 12.054688 26.027344 11.914063 26 11.78125 L 26 9 L 27 9 L 27 6 C 27 4.90625 26.09375 4 25 4 L 24.53125 4 C 24.152344 3.4375 23.617188 3 22.90625 3 Z M 9.03125 5 C 9.046875 4.992188 9.066406 5 9.09375 5 L 22.90625 5 C 22.957031 5 22.960938 5.015625 22.96875 5.0625 L 23 5.15625 L 23.03125 5.21875 L 23.0625 5.3125 L 23.28125 6 L 25 6 L 25 7 L 7 7 L 7 6 L 8.71875 6 L 8.9375 5.3125 L 8.96875 5.21875 L 9 5.15625 L 9 5.0625 C 9.003906 5.039063 9.015625 5.007813 9.03125 5 Z M 8 9 L 24 9 L 24 11 L 8 11 Z M 8 13 L 24 13 L 24 23 L 8 23 Z M 13 14 L 13 19 L 14 19 L 14 17 L 14.15625 17 L 16.40625 20.03125 L 15 22 L 16.15625 22 L 17 20.84375 L 17.84375 22 L 19 22 L 17.5625 20.03125 L 19 18 L 17.84375 18 L 16.96875 19.21875 L 15.3125 17 L 15.5 17 C 16.324219 17 17 16.324219 17 15.5 C 17 14.675781 16.324219 14 15.5 14 Z M 14 15 L 15.5 15 C 15.769531 15 16 15.230469 16 15.5 C 16 15.769531 15.769531 16 15.5 16 L 14 16 Z M 8 25 L 24 25 L 24 27 L 8 27 Z "></path>
</g>
</svg>
