<?xml version="1.0" encoding="UTF-8"?>
<svg xmlns="http://www.w3.org/2000/svg" xmlns:xlink="http://www.w3.org/1999/xlink" viewBox="0 0 32 32" version="1.1">
<g>
<path d="M 28 13 C 28 8.191406 23.855469 6 20 6 C 18.617188 6 17.199219 6.410156 16 7.132813 C 14.800781 6.410156 13.382813 6 12 6 C 8.148438 6 4 8.191406 4 13 C 4 16.558594 6.242188 19.6875 9.609375 21.460938 C 7.816406 22.703125 6.097656 23.675781 4.976563 24.226563 L 5.855469 26.023438 C 6.101563 25.902344 8.863281 24.53125 11.789063 22.367188 C 13.101563 22.773438 14.519531 23 16 23 C 17.464844 23 18.867188 22.78125 20.164063 22.378906 C 23.066406 24.574219 25.804688 25.976563 26.046875 26.101563 L 26.953125 24.316406 C 25.835938 23.75 24.121094 22.753906 22.339844 21.488281 C 25.734375 19.71875 28 16.574219 28 13 Z M 17 12 C 17 13.078125 16.625 14.164063 16.003906 15.222656 C 15.378906 14.15625 15 13.070313 15 12 C 15 11.097656 15.390625 10.300781 16 9.65625 C 16.609375 10.300781 17 11.097656 17 12 Z M 11.425781 20.113281 C 8.207031 18.78125 6 16.09375 6 13 C 6 8.140625 11.386719 8 12 8 C 12.785156 8 13.597656 8.183594 14.335938 8.511719 C 13.515625 9.464844 13 10.648438 13 12 C 13 13.730469 13.6875 15.410156 14.746094 16.96875 C 13.796875 18.089844 12.640625 19.152344 11.425781 20.113281 Z M 16 21 C 15.226563 21 14.476563 20.929688 13.753906 20.796875 C 14.546875 20.109375 15.308594 19.367188 16 18.585938 C 16.683594 19.363281 17.433594 20.105469 18.214844 20.792969 C 17.5 20.929688 16.757813 21 16 21 Z M 17.257813 16.972656 C 18.3125 15.421875 19 13.746094 19 12 C 19 10.648438 18.484375 9.464844 17.664063 8.511719 C 18.402344 8.183594 19.214844 8 20 8 C 20.613281 8 26 8.140625 26 13 C 26 16.046875 23.738281 18.761719 20.515625 20.105469 C 19.328125 19.144531 18.191406 18.082031 17.257813 16.972656 Z "></path>
</g>
</svg>
