<?xml version="1.0" encoding="UTF-8"?>
<svg xmlns="http://www.w3.org/2000/svg" xmlns:xlink="http://www.w3.org/1999/xlink" viewBox="0 0 32 32" version="1.1">
<g>
<path d="M 4 5 L 4 27 L 28 27 L 28 5 Z M 6 7 L 26 7 L 26 25 L 6 25 Z M 16 11 C 13.675781 11 11.523438 12.101563 9.9375 13.15625 C 8.351563 14.210938 7.28125 15.28125 7.28125 15.28125 L 6.59375 16 L 7.28125 16.71875 C 7.28125 16.71875 8.351563 17.789063 9.9375 18.84375 C 11.523438 19.898438 13.671875 21 16 21 C 18.328125 21 20.476563 19.898438 22.0625 18.84375 C 23.648438 17.789063 24.71875 16.71875 24.71875 16.71875 L 25.40625 16 L 24.71875 15.28125 C 24.71875 15.28125 23.648438 14.210938 22.0625 13.15625 C 20.476563 12.101563 18.324219 11 16 11 Z M 16 13 C 14.34375 13 13 14.34375 13 16 C 13 17.65625 14.34375 19 16 19 C 17.65625 19 19 17.65625 19 16 C 19 15.695313 18.929688 15.402344 18.84375 15.125 C 18.605469 15.636719 18.101563 16 17.5 16 C 16.671875 16 16 15.328125 16 14.5 C 16 13.898438 16.363281 13.394531 16.875 13.15625 C 16.738281 13.113281 16.582031 13.054688 16.4375 13.03125 C 17.976563 13.167969 19.644531 13.984375 20.9375 14.84375 C 21.808594 15.421875 21.972656 15.640625 22.375 16 C 21.972656 16.359375 21.808594 16.578125 20.9375 17.15625 C 19.519531 18.101563 17.660156 19 16 19 C 14.339844 19 12.480469 18.101563 11.0625 17.15625 C 10.191406 16.578125 10.027344 16.359375 9.625 16 C 10.027344 15.640625 10.191406 15.421875 11.0625 14.84375 C 12.480469 13.898438 14.34375 13 16 13 Z "></path>
</g>
</svg>
