<?xml version="1.0" encoding="UTF-8"?>
<svg xmlns="http://www.w3.org/2000/svg" xmlns:xlink="http://www.w3.org/1999/xlink" viewBox="0 0 32 32" version="1.1">
<g>
<path d="M 11.5 3 C 6.8125 3 3 6.8125 3 11.5 C 3 15.488281 5.765625 18.835938 9.476563 19.746094 L 11.234375 17.984375 C 7.773438 17.847656 5 14.996094 5 11.5 C 5 7.914063 7.914063 5 11.5 5 C 14.996094 5 17.84375 7.773438 17.984375 11.234375 L 19.746094 9.476563 C 18.832031 5.765625 15.488281 3 11.5 3 Z M 28 3 C 27.449219 3 27 3.449219 27 4 C 27 4.550781 27.449219 5 28 5 C 28.550781 5 29 4.550781 29 4 C 29 3.449219 28.550781 3 28 3 Z M 25 6 C 24.449219 6 24 6.449219 24 7 C 24 7.550781 24.449219 8 25 8 C 25.550781 8 26 7.550781 26 7 C 26 6.449219 25.550781 6 25 6 Z M 9.703125 8 L 9.3125 11.488281 L 10.484375 11.789063 C 10.484375 11.714844 10.8125 11.417969 11.4375 11.417969 C 11.667969 11.417969 12.609375 11.414063 12.609375 12.605469 C 12.609375 12.753906 12.597656 13.882813 11.578125 13.882813 C 10.796875 13.882813 10.554688 13.273438 10.554688 12.976563 L 9.164063 12.976563 C 9.085938 13.648438 9.707031 15 11.582031 15 C 13.222656 15 14 13.863281 14 12.671875 C 14 12.300781 13.9375 10.371094 11.828125 10.371094 C 11.203125 10.371094 10.804688 10.605469 10.726563 10.605469 L 10.875 9.117188 L 13.78125 9.117188 L 13.78125 8 Z M 22 9 C 21.449219 9 21 9.449219 21 10 C 21 10.550781 21.449219 11 22 11 C 22.550781 11 23 10.550781 23 10 C 23 9.449219 22.550781 9 22 9 Z M 19 12 C 18.449219 12 18 12.449219 18 13 C 18 13.550781 18.449219 14 19 14 C 19.550781 14 20 13.550781 20 13 C 20 12.449219 19.550781 12 19 12 Z M 22.757813 12.3125 L 21.042969 14.027344 C 24.375 14.304688 27 17.097656 27 20.5 C 27 24.085938 24.085938 27 20.5 27 C 17.097656 27 14.304688 24.375 14.027344 21.046875 L 12.3125 22.757813 C 13.304688 26.351563 16.597656 29 20.5 29 C 25.1875 29 29 25.1875 29 20.5 C 29 16.597656 26.351563 13.304688 22.757813 12.3125 Z M 16 15 C 15.449219 15 15 15.449219 15 16 C 15 16.550781 15.449219 17 16 17 C 16.550781 17 17 16.550781 17 16 C 17 15.449219 16.550781 15 16 15 Z M 21.359375 17 C 21.109375 17.144531 20.023438 17.75 18.5 18.140625 L 18.5 19.171875 C 19.621094 18.945313 20.199219 18.765625 20.476563 18.609375 L 20.476563 24 L 22 24 L 22 17 Z M 13 18 C 12.449219 18 12 18.449219 12 19 C 12 19.550781 12.449219 20 13 20 C 13.550781 20 14 19.550781 14 19 C 14 18.449219 13.550781 18 13 18 Z M 10 21 C 9.449219 21 9 21.449219 9 22 C 9 22.550781 9.449219 23 10 23 C 10.550781 23 11 22.550781 11 22 C 11 21.449219 10.550781 21 10 21 Z M 7 24 C 6.449219 24 6 24.449219 6 25 C 6 25.550781 6.449219 26 7 26 C 7.550781 26 8 25.550781 8 25 C 8 24.449219 7.550781 24 7 24 Z M 4 27 C 3.449219 27 3 27.449219 3 28 C 3 28.550781 3.449219 29 4 29 C 4.550781 29 5 28.550781 5 28 C 5 27.449219 4.550781 27 4 27 Z "></path>
</g>
</svg>
