<?xml version="1.0" encoding="UTF-8"?>
<svg xmlns="http://www.w3.org/2000/svg" xmlns:xlink="http://www.w3.org/1999/xlink" viewBox="0 0 32 32" version="1.1">
<g>
<path d="M 16 5 L 15.6875 5.28125 L 4.28125 16.8125 L 3.59375 17.5 L 4.28125 18.21875 L 13.78125 27.71875 L 14.5 28.40625 L 15.1875 27.71875 L 26.71875 16.3125 L 27 16 L 27 5 Z M 16.84375 7 L 25 7 L 25 15.15625 L 14.5 25.59375 L 6.40625 17.5 Z M 22 9 C 21.449219 9 21 9.449219 21 10 C 21 10.550781 21.449219 11 22 11 C 22.550781 11 23 10.550781 23 10 C 23 9.449219 22.550781 9 22 9 Z M 17.65625 12 C 16.882813 12.03125 16.128906 12.339844 15.53125 12.9375 C 15.351563 13.117188 15.226563 13.335938 15.09375 13.53125 L 14.875 13.3125 L 13.46875 14.75 L 14.09375 15.375 C 14.058594 15.445313 14.039063 15.53125 14 15.59375 C 13.628906 16.222656 13.324219 16.570313 12.5625 16.65625 L 11.78125 15.875 L 10.375 17.28125 L 15.3125 22.21875 L 16 21.5 L 17.125 20.375 L 15.71875 18.96875 L 15.3125 19.375 L 14.09375 18.1875 C 14.71875 17.835938 15.21875 17.347656 15.5625 16.84375 L 16.5625 17.84375 L 17.96875 16.4375 L 16.5625 15 C 16.710938 14.710938 16.835938 14.476563 16.9375 14.375 C 17.558594 13.753906 18.640625 13.914063 19 14.75 L 20.8125 13.96875 C 20.363281 12.921875 19.449219 12.253906 18.4375 12.0625 C 18.183594 12.015625 17.914063 11.988281 17.65625 12 Z "></path>
</g>
</svg>
