<?xml version="1.0" encoding="UTF-8"?>
<svg xmlns="http://www.w3.org/2000/svg" xmlns:xlink="http://www.w3.org/1999/xlink" viewBox="0 0 32 32" version="1.1">
<g>
<path d="M 16 5 L 15.6875 5.28125 L 4.28125 16.8125 L 3.59375 17.5 L 4.28125 18.21875 L 13.78125 27.71875 L 14.5 28.40625 L 15.1875 27.71875 L 26.71875 16.3125 L 27 16 L 27 5 Z M 16.84375 7 L 25 7 L 25 15.15625 L 14.5 25.59375 L 6.40625 17.5 Z M 22 9 C 21.449219 9 21 9.449219 21 10 C 21 10.550781 21.449219 11 22 11 C 22.550781 11 23 10.550781 23 10 C 23 9.449219 22.550781 9 22 9 Z M 13.90625 11.9375 L 13.21875 12.625 L 13.84375 13.25 C 13.730469 13.347656 13.609375 13.421875 13.5 13.53125 C 13.351563 13.679688 13.222656 13.835938 13.09375 14 L 12.46875 13.375 L 11.75 14.09375 L 12.53125 14.875 C 11.664063 16.558594 11.761719 18.574219 13.09375 19.90625 C 13.917969 20.730469 15.050781 21.089844 16.15625 21.03125 L 16.0625 19.03125 C 15.445313 19.0625 14.890625 18.890625 14.5 18.5 L 14.5 18.46875 C 14.011719 17.964844 13.851563 17.175781 14.0625 16.375 L 15.625 17.9375 L 16.3125 17.25 L 14.5 15.4375 C 14.617188 15.261719 14.746094 15.097656 14.90625 14.9375 C 15.011719 14.832031 15.105469 14.742188 15.21875 14.65625 L 17.0625 16.5 L 17.78125 15.78125 L 16.15625 14.15625 C 17.039063 13.847656 17.921875 13.984375 18.46875 14.53125 C 18.859375 14.921875 19.03125 15.441406 19 16.0625 L 21 16.1875 C 21.058594 15.082031 20.695313 13.949219 19.875 13.125 C 19.019531 12.269531 17.875 11.910156 16.71875 12 C 16.011719 12.054688 15.304688 12.316406 14.65625 12.6875 Z "></path>
</g>
</svg>
