<?xml version="1.0" encoding="UTF-8"?>
<svg xmlns="http://www.w3.org/2000/svg" xmlns:xlink="http://www.w3.org/1999/xlink" viewBox="0 0 32 32" version="1.1">
<g>
<path d="M 9 4 L 9 9 L 7 9 C 5.355469 9 4 10.355469 4 12 L 4 24 L 9 24 L 9 28 L 23 28 L 23 24 L 28 24 L 28 12 C 28 10.355469 26.644531 9 25 9 L 23 9 L 23 4 Z M 11 6 L 21 6 L 21 9 L 11 9 Z M 7 11 L 25 11 C 25.566406 11 26 11.433594 26 12 L 26 22 L 23 22 L 23 21 L 9 21 L 9 22 L 6 22 L 6 12 C 6 11.433594 6.433594 11 7 11 Z M 15 12 L 15 13.1875 C 14.902344 13.222656 14.8125 13.265625 14.71875 13.3125 L 13.875 12.46875 L 12.46875 13.875 L 13.28125 14.6875 C 13.230469 14.789063 13.226563 14.890625 13.1875 15 L 12 15 L 12 17 L 13.1875 17 C 13.226563 17.109375 13.230469 17.210938 13.28125 17.3125 L 12.46875 18.125 L 13.875 19.53125 L 14.71875 18.6875 C 14.8125 18.734375 14.902344 18.777344 15 18.8125 L 15 20 L 17 20 L 17 18.8125 C 17.097656 18.777344 17.1875 18.734375 17.28125 18.6875 L 18.125 19.53125 L 19.53125 18.125 L 18.71875 17.3125 C 18.769531 17.210938 18.773438 17.109375 18.8125 17 L 20 17 L 20 15 L 18.8125 15 C 18.773438 14.890625 18.769531 14.789063 18.71875 14.6875 L 19.53125 13.875 L 18.125 12.46875 L 17.28125 13.3125 C 17.1875 13.265625 17.097656 13.222656 17 13.1875 L 17 12 Z M 16 15 C 16.5625 15 17 15.4375 17 16 C 17 16.5625 16.5625 17 16 17 C 15.4375 17 15 16.5625 15 16 C 15 15.4375 15.4375 15 16 15 Z M 11 23 L 21 23 L 21 26 L 11 26 Z "></path>
</g>
</svg>
