<?xml version="1.0" encoding="UTF-8"?>
<svg xmlns="http://www.w3.org/2000/svg" xmlns:xlink="http://www.w3.org/1999/xlink" viewBox="0 0 32 32" version="1.1">
<g>
<path d="M 9 4 L 9 9 L 7 9 C 5.355469 9 4 10.355469 4 12 L 4 24 L 9 24 L 9 28 L 23 28 L 23 24 L 28 24 L 28 12 C 28 10.355469 26.644531 9 25 9 L 23 9 L 23 4 Z M 11 6 L 21 6 L 21 9 L 11 9 Z M 7 11 L 25 11 C 25.566406 11 26 11.433594 26 12 L 26 22 L 23 22 L 23 21 L 9 21 L 9 22 L 6 22 L 6 12 C 6 11.433594 6.433594 11 7 11 Z M 15 12 L 15 17 L 17 17 L 17 12 Z M 15 18 L 15 20 L 17 20 L 17 18 Z M 11 23 L 21 23 L 21 26 L 11 26 Z "></path>
</g>
</svg>
