<?xml version="1.0" encoding="UTF-8"?>
<svg xmlns="http://www.w3.org/2000/svg" xmlns:xlink="http://www.w3.org/1999/xlink" viewBox="0 0 32 32" version="1.1">
<g>
<path d="M 5 5 L 5 11 L 7 11 L 7 7 L 11 7 L 11 5 Z M 21 5 L 21 7 L 25 7 L 25 11 L 27 11 L 27 5 Z M 15.25 10 L 15 10.65625 L 12.0625 18.65625 L 12 18.8125 L 12 22 L 14 22 L 14 20 L 18 20 L 18 22 L 20 22 L 20 18.8125 L 19.9375 18.65625 L 17 10.65625 L 16.75 10 Z M 16 13.71875 L 17.5625 18 L 14.4375 18 Z M 5 21 L 5 27 L 11 27 L 11 25 L 7 25 L 7 21 Z M 25 21 L 25 25 L 21 25 L 21 27 L 27 27 L 27 21 Z "></path>
</g>
</svg>
