<?xml version="1.0" encoding="UTF-8"?>
<svg xmlns="http://www.w3.org/2000/svg" xmlns:xlink="http://www.w3.org/1999/xlink" viewBox="0 0 32 32" version="1.1">
<g>
<path d="M 16 4 C 9.382813 4 4 9.382813 4 16 C 4 22.617188 9.382813 28 16 28 C 22.617188 28 28 22.617188 28 16 C 28 9.382813 22.617188 4 16 4 Z M 16 6 C 21.535156 6 26 10.464844 26 16 C 26 21.535156 21.535156 26 16 26 C 10.464844 26 6 21.535156 6 16 C 6 10.464844 10.464844 6 16 6 Z M 16 9 L 16 15 L 18 15 L 18 9 Z M 13 10 L 13 16 L 15 16 L 15 10 Z M 19 10 L 19 19 C 19 19.023438 18.996094 19.417969 18.625 19.90625 C 18.535156 20.027344 18.425781 20.160156 18.28125 20.28125 C 17.820313 20.664063 17.019531 21 15.5 21 C 13.578125 21 12.867188 20.257813 12.4375 19.5 C 12.007813 18.742188 12 18 12 18 L 12 12 L 10 12 L 10 18 C 10 18 10.015625 19.257813 10.71875 20.5 C 11.421875 21.742188 12.976563 23 15.5 23 C 17.460938 23 18.800781 22.402344 19.65625 21.65625 L 19.71875 21.71875 L 24.71875 16.71875 L 23.28125 15.28125 L 21 17.5625 L 21 10 Z "></path>
</g>
</svg>
