<?xml version="1.0" encoding="UTF-8"?>
<svg xmlns="http://www.w3.org/2000/svg" xmlns:xlink="http://www.w3.org/1999/xlink" viewBox="0 0 32 32" version="1.1">
<g>
<path d="M 16 9.875 L 15.53125 10.125 L 2.53125 17.125 L 2 17.40625 L 2 18.65625 L 2.4375 18.96875 C 2.4375 18.96875 3.652344 19.75 5.90625 20.5 C 8.160156 21.25 11.519531 22 16 22 C 20.480469 22 23.839844 21.25 26.09375 20.5 C 28.347656 19.75 29.5625 18.96875 29.5625 18.96875 L 30 18.65625 L 30 17.40625 L 29.46875 17.125 L 16.46875 10.125 Z M 16 12.125 L 26.90625 18 C 26.417969 18.242188 26.464844 18.292969 25.46875 18.625 C 23.40625 19.3125 20.261719 20 16 20 C 11.738281 20 8.59375 19.3125 6.53125 18.625 C 5.535156 18.292969 5.582031 18.242188 5.09375 18 Z "></path>
</g>
</svg>
