<?xml version="1.0" encoding="UTF-8"?>
<svg xmlns="http://www.w3.org/2000/svg" xmlns:xlink="http://www.w3.org/1999/xlink" viewBox="0 0 32 32" version="1.1">
<g>
<path d="M 16 3 C 12.15625 3 9 6.15625 9 10 L 9 13 L 6 13 L 6 29 L 26 29 L 26 13 L 23 13 L 23 10 C 23 6.15625 19.84375 3 16 3 Z M 16 5 C 18.753906 5 21 7.246094 21 10 L 21 13 L 11 13 L 11 10 C 11 7.246094 13.246094 5 16 5 Z M 8 15 L 24 15 L 24 27 L 8 27 Z M 16 16 C 13.25 16 11 18.25 11 21 C 11 23.75 13.25 26 16 26 C 18.75 26 21 23.75 21 21 C 21 18.25 18.75 16 16 16 Z M 16 18 C 17.667969 18 19 19.332031 19 21 C 19 22.667969 17.667969 24 16 24 C 14.332031 24 13 22.667969 13 21 C 13 19.332031 14.332031 18 16 18 Z M 16 19 C 14.898438 19 14 19.898438 14 21 C 14 22.101563 14.898438 23 16 23 C 17.101563 23 18 22.101563 18 21 C 18 20.800781 18.007813 20.605469 17.90625 20.40625 C 17.707031 20.804688 17.398438 21 17 21 C 16.398438 21 16 20.601563 16 20 C 16 19.601563 16.195313 19.292969 16.59375 19.09375 C 16.394531 18.992188 16.199219 19 16 19 Z "></path>
</g>
</svg>
