<?xml version="1.0" encoding="UTF-8"?>
<svg xmlns="http://www.w3.org/2000/svg" xmlns:xlink="http://www.w3.org/1999/xlink" viewBox="0 0 32 32" version="1.1">
<g>
<path d="M 9 3 L 9 6 L 11 6 L 11 3 Z M 13 3 L 13 6 L 15 6 L 15 3 Z M 17 3 L 17 6 L 19 6 L 19 3 Z M 21 3 L 21 6 L 23 6 L 23 3 Z M 7 7 L 7 25 L 25 25 L 25 7 Z M 3 9 L 3 11 L 6 11 L 6 9 Z M 9 9 L 23 9 L 23 23 L 9 23 Z M 26 9 L 26 11 L 29 11 L 29 9 Z M 12.5 11 C 11.671875 11 11 11.671875 11 12.5 C 11 13.328125 11.671875 14 12.5 14 C 13.328125 14 14 13.328125 14 12.5 C 14 11.671875 13.328125 11 12.5 11 Z M 3 13 L 3 15 L 6 15 L 6 13 Z M 26 13 L 26 15 L 29 15 L 29 13 Z M 3 17 L 3 19 L 6 19 L 6 17 Z M 26 17 L 26 19 L 29 19 L 29 17 Z M 19.5 18 C 18.671875 18 18 18.671875 18 19.5 C 18 20.328125 18.671875 21 19.5 21 C 20.328125 21 21 20.328125 21 19.5 C 21 18.671875 20.328125 18 19.5 18 Z M 3 21 L 3 23 L 6 23 L 6 21 Z M 26 21 L 26 23 L 29 23 L 29 21 Z M 9 26 L 9 29 L 11 29 L 11 26 Z M 13 26 L 13 29 L 15 29 L 15 26 Z M 17 26 L 17 29 L 19 29 L 19 26 Z M 21 26 L 21 29 L 23 29 L 23 26 Z "></path>
</g>
</svg>
