<?xml version="1.0" encoding="UTF-8"?>
<svg xmlns="http://www.w3.org/2000/svg" xmlns:xlink="http://www.w3.org/1999/xlink" viewBox="0 0 32 32" version="1.1">
<g>
<path d="M 16 4 C 14.800781 4 13.601563 4.199219 12.5 4.5 L 14.3125 6.1875 C 14.914063 6.085938 15.398438 6 16 6 C 18.824219 6 21.320313 7.183594 23.125 9 L 20 9 L 20 11 L 26 11 L 26 5 L 24 5 L 24 7.0625 C 21.875 5.15625 19.097656 4 16 4 Z M 5 6 L 5 8 L 7.125 8 C 5.21875 10.117188 4 12.890625 4 16 C 4 17.101563 4.207031 18.1875 4.40625 19.1875 L 6.09375 17.5 C 5.992188 17 6 16.5 6 16 C 6 13.183594 7.179688 10.71875 9 8.875 L 9 12 L 11 12 L 11 6 Z M 27.5 12.8125 L 25.90625 14.59375 C 26.007813 15.09375 26 15.5 26 16 C 26 18.8125 24.84375 21.304688 23 23.125 L 23 20 L 21 20 L 21 26 L 27 26 L 27 24 L 24.96875 24 C 26.882813 21.867188 28 19.074219 28 16 C 28 14.898438 27.800781 13.8125 27.5 12.8125 Z M 6 21 L 6 27 L 8 27 L 8 24.875 C 10.125 26.804688 12.90625 28 16 28 C 17 28 18.007813 27.894531 18.90625 27.59375 L 17 26 L 16 26 C 13.175781 26 10.679688 24.816406 8.875 23 L 12 23 L 12 21 Z "></path>
</g>
</svg>
