<?xml version="1.0" encoding="UTF-8"?>
<svg xmlns="http://www.w3.org/2000/svg" xmlns:xlink="http://www.w3.org/1999/xlink" viewBox="0 0 32 32" version="1.1">
<g>
<path d="M 0 7 L 0 25 L 32 25 L 32 7 Z M 2 9 L 30 9 L 30 23 L 2 23 Z M 4 12 L 4 20 L 6 20 L 6 18 C 7.644531 18 9 16.644531 9 15 C 9 13.355469 7.644531 12 6 12 Z M 10 12 L 10 20 L 12 20 L 12 17 L 13 20 L 15 20 L 13.875 16.59375 C 14.558594 16.144531 15 15.371094 15 14.5 C 15 13.132813 13.867188 12 12.5 12 Z M 18.5 12 C 17.132813 12 16 13.132813 16 14.5 L 16 17.5 C 16 18.867188 17.132813 20 18.5 20 C 19.867188 20 21 18.867188 21 17.5 L 21 14.5 C 21 13.132813 19.867188 12 18.5 12 Z M 22 12 L 22 20 L 24 20 L 24 17 L 25 18.34375 L 25 20 L 27 20 L 27 12 L 25 12 L 25 15 L 24 13.65625 L 24 12 Z M 6 14 C 6.566406 14 7 14.433594 7 15 C 7 15.566406 6.566406 16 6 16 Z M 12 14 L 12.5 14 C 12.785156 14 13 14.214844 13 14.5 C 13 14.785156 12.785156 15 12.5 15 L 12 15 Z M 18.5 14 C 18.785156 14 19 14.214844 19 14.5 L 19 17.5 C 19 17.785156 18.785156 18 18.5 18 C 18.214844 18 18 17.785156 18 17.5 L 18 14.5 C 18 14.214844 18.214844 14 18.5 14 Z "></path>
</g>
</svg>
