<?xml version="1.0" encoding="UTF-8"?>
<svg xmlns="http://www.w3.org/2000/svg" xmlns:xlink="http://www.w3.org/1999/xlink" viewBox="0 0 32 32" version="1.1">
<g>
<path d="M 24.4375 6 L 11.875 6.9375 C 10.820313 7.015625 10 7.910156 10 8.96875 C 10 10.082031 10.917969 11 12.03125 11 L 14 11 L 14 12.125 L 7.4375 12.9375 L 5.9375 11.09375 C 5.367188 10.394531 4.496094 10 3.59375 10 L 0.625 10 L 3.0625 17.3125 L 3.15625 17.625 L 3.4375 17.8125 C 3.4375 17.8125 9.414063 22 19 22 C 22.839844 22 25.746094 21.164063 27.75 20.03125 C 28.316406 19.710938 28.816406 19.386719 29.25 19.03125 L 29 22 L 31 22 L 30.625 17.4375 C 30.867188 16.980469 31 16.503906 31 16 C 31 15.523438 30.835938 15.117188 30.59375 14.78125 L 31 10 L 29 10 L 29.3125 13.71875 C 28.789063 13.402344 28.214844 13.125 27.59375 12.90625 C 26.382813 12.476563 25.082031 12.183594 24 12.0625 L 24 11 L 24.5 11 C 25.867188 11 27 9.867188 27 8.5 C 27 7.132813 25.867188 6 24.5 6 Z M 24.5 8 C 24.785156 8 25 8.214844 25 8.5 C 25 8.785156 24.785156 9 24.5 9 L 12.03125 9 C 12 9 12 9 12 8.96875 C 12 8.941406 12.003906 8.941406 12.03125 8.9375 Z M 16 11 L 22 11 L 22 12.875 C 22.003906 12.875 22.015625 12.867188 22 12.90625 C 21.964844 12.980469 21.890625 13.097656 21.71875 13.25 C 21.371094 13.554688 20.558594 14 18.6875 14 C 17.335938 14 16.695313 13.613281 16.34375 13.28125 C 16.09375 13.046875 16.027344 12.898438 16 12.8125 Z M 3.375 12 L 3.59375 12 C 3.894531 12 4.183594 12.140625 4.375 12.375 L 6.21875 14.625 L 6.5625 15.0625 L 7.125 15 L 14.5625 14.0625 C 14.710938 14.332031 14.675781 14.414063 15 14.71875 C 15.710938 15.386719 16.910156 16 18.6875 16 C 20.886719 16 22.242188 15.445313 23.03125 14.75 C 23.285156 14.527344 23.390625 14.3125 23.53125 14.09375 C 24.414063 14.160156 25.707031 14.355469 26.90625 14.78125 C 27.601563 15.027344 28.21875 15.320313 28.59375 15.59375 C 28.96875 15.867188 29 16.039063 29 16 C 29 16.183594 28.429688 17.351563 26.78125 18.28125 C 25.132813 19.210938 22.546875 20 19 20 C 10.28125 20 5.152344 16.546875 4.8125 16.3125 Z M 23 22 C 21.894531 22 21 22.894531 21 24 C 21 25.105469 21.894531 26 23 26 C 24.105469 26 25 25.105469 25 24 C 25 22.894531 24.105469 22 23 22 Z "></path>
</g>
</svg>
