<?xml version="1.0" encoding="UTF-8"?>
<svg xmlns="http://www.w3.org/2000/svg" xmlns:xlink="http://www.w3.org/1999/xlink" viewBox="0 0 32 32" version="1.1">
<g>
<path d="M 4 5 L 4 27 L 17 27 L 17 25 L 6 25 L 6 11 L 26 11 L 26 17 L 28 17 L 28 5 Z M 6 7 L 26 7 L 26 9 L 6 9 Z M 9 14 L 9 16 L 11 16 L 11 14 Z M 13 14 L 13 16 L 23 16 L 23 14 Z M 9 18 L 9 20 L 11 20 L 11 18 Z M 13 18 L 13 20 L 19 20 L 19 18 Z M 21 18 L 21 27 L 19 27 L 19 29 C 19 30.644531 20.355469 32 22 32 L 29 32 C 30.644531 32 32 30.644531 32 29 L 32 18 Z M 23 20 L 30 20 L 30 29 C 30 29.566406 29.566406 30 29 30 C 28.433594 30 28 29.566406 28 29 L 28 27 L 23 27 Z M 21 29 L 26 29 C 26 29.351563 26.074219 29.683594 26.1875 30 L 22 30 C 21.433594 30 21 29.566406 21 29 Z "></path>
</g>
</svg>
