<?xml version="1.0" encoding="UTF-8"?>
<svg xmlns="http://www.w3.org/2000/svg" xmlns:xlink="http://www.w3.org/1999/xlink" viewBox="0 0 32 32" version="1.1">
<g>
<path d="M 16 4 C 9.382813 4 4 9.382813 4 16 C 4 22.617188 9.382813 28 16 28 C 22.617188 28 28 22.617188 28 16 C 28 9.382813 22.617188 4 16 4 Z M 16 6 C 21.535156 6 26 10.464844 26 16 C 26 21.535156 21.535156 26 16 26 C 10.464844 26 6 21.535156 6 16 C 6 10.464844 10.464844 6 16 6 Z M 16 10 C 13.804688 10 12 11.804688 12 14 L 12 21 L 14 21 L 14 14 C 14 12.894531 14.894531 12 16 12 C 17.105469 12 18 12.894531 18 14 L 18 21 L 20 21 L 20 14 C 20 11.804688 18.195313 10 16 10 Z M 7 14 L 8 18 L 9.25 17.4375 L 11 20 L 10 16 L 8.5 16.59375 Z M 25 14 L 23.5 16.59375 L 22 16 L 21 20 L 22.75 17.4375 L 24 18 Z "></path>
</g>
</svg>
