<?xml version="1.0" encoding="UTF-8"?>
<svg xmlns="http://www.w3.org/2000/svg" xmlns:xlink="http://www.w3.org/1999/xlink" viewBox="0 0 32 32" version="1.1">
<g>
<path d="M 13 20 L 11 20 L 11 12 L 13 12 C 14.652344 12 16 13.347656 16 15 C 16 16.652344 14.652344 18 13 18 Z M 13 14 L 13 16 C 13.550781 16 14 15.550781 14 15 C 14 14.449219 13.550781 14 13 14 Z "></path>
<path d="M 19.5 20 C 17.957031 20 17 19.089844 17 17.617188 L 19 17.617188 C 19 17.917969 19 18 19.5 18 C 19.933594 18 20 17.6875 20 17.5 C 20 17.226563 19.773438 17 19.5 17 C 18.121094 17 17 15.878906 17 14.5 C 17 13.121094 18.121094 12 19.5 12 C 21.125 12 22 13.238281 22 14.40625 L 20 14.40625 C 20 14.285156 19.949219 14 19.5 14 C 19.226563 14 19 14.226563 19 14.5 C 19 14.773438 19.226563 15 19.5 15 C 20.878906 15 22 16.121094 22 17.5 C 22 18.925781 20.925781 20 19.5 20 Z "></path>
<path d="M 26 29 L 6 29 L 6 3 L 26 3 Z M 8 27 L 24 27 L 24 5 L 8 5 Z "></path>
</g>
</svg>
