<?xml version="1.0" encoding="UTF-8"?>
<svg xmlns="http://www.w3.org/2000/svg" xmlns:xlink="http://www.w3.org/1999/xlink" viewBox="0 0 32 32" version="1.1">
<g>
<path d="M 5 5 L 5 7 C 5.746094 7 6.148438 7.164063 6.4375 7.375 C 6.726563 7.585938 6.953125 7.890625 7.125 8.375 C 7.472656 9.34375 7.53125 10.941406 7.71875 12.625 C 7.90625 14.308594 8.253906 16.152344 9.5 17.625 C 10.605469 18.933594 12.398438 19.792969 15 19.96875 L 15 25 L 13 25 L 13 27 L 19 27 L 19 25 L 17 25 L 17 19.96875 C 19.605469 19.792969 21.414063 18.929688 22.53125 17.625 C 23.789063 16.15625 24.144531 14.3125 24.34375 12.625 C 24.542969 10.9375 24.59375 9.347656 24.9375 8.375 C 25.109375 7.886719 25.316406 7.582031 25.59375 7.375 C 25.871094 7.167969 26.28125 7 27 7 L 27 5 C 25.96875 5 25.082031 5.246094 24.40625 5.75 C 23.730469 6.253906 23.320313 6.957031 23.0625 7.6875 C 22.546875 9.152344 22.527344 10.8125 22.34375 12.375 C 22.160156 13.9375 21.828125 15.34375 21 16.3125 C 20.277344 17.15625 19.128906 17.8125 17 17.96875 L 17 7 L 18 7 L 18 5 L 14 5 L 14 7 L 15 7 L 15 17.96875 C 12.875 17.8125 11.742188 17.152344 11.03125 16.3125 C 10.214844 15.347656 9.894531 13.941406 9.71875 12.375 C 9.542969 10.808594 9.527344 9.15625 9 7.6875 C 8.738281 6.953125 8.3125 6.25 7.625 5.75 C 6.9375 5.25 6.046875 5 5 5 Z "></path>
</g>
</svg>
