<?xml version="1.0"?>
<svg xmlns="http://www.w3.org/2000/svg" viewBox="0 0 32 32">
    <path d="M 4 7 A 1.0001 1.0001 0 0 0 3 8 L 3 10 L 1 10 L 1 12 L 3 12 L 3 20 L 1 20 L 1 22 L 3 22 L 3 24 A 1.0001 1.0001 0 0 0 4 25 L 28 25 A 1.0001 1.0001 0 0 0 29 24 L 29 22 L 31 22 L 31 20 L 29 20 L 29 12 L 31 12 L 31 10 L 29 10 L 29 8 A 1.0001 1.0001 0 0 0 28 7 L 4 7 z M 5 9 L 27 9 L 27 23 L 5 23 L 5 9 z M 6.8828125 11 C 6.4128125 11 6 11.388031 6 11.832031 L 6 21 L 7.765625 21 L 7.765625 17 L 9.2363281 17 C 9.7063281 17 10.118188 16.611969 10.117188 16.167969 L 10.117188 11.832031 C 10.117188 11.388031 9.705375 11 9.234375 11 L 6.8828125 11 z M 10.705078 11 L 10.705078 20.167969 C 10.705078 20.611969 11.116891 21 11.587891 21 L 14.529297 21 C 15.000297 21 15.412109 20.611969 15.412109 20.167969 L 15.412109 11 L 13.646484 11 L 13.646484 19.332031 L 12.470703 19.332031 L 12.470703 11 L 10.705078 11 z M 17.474609 11 C 16.987609 11 16.587891 11.374031 16.587891 11.832031 L 16.587891 14.888672 L 16 14.888672 L 16 16.556641 L 16.589844 16.556641 L 16.589844 20.171875 C 16.589844 20.628875 16.985703 21 17.470703 21 L 19.820312 21 C 20.307312 21 20.705078 20.625969 20.705078 20.167969 L 20.705078 17.017578 C 20.705078 16.479578 20.281 16.050391 19.75 16.025391 L 19.75 15.994141 C 20.28 15.969141 20.705078 15.539906 20.705078 15.003906 L 20.705078 11.830078 C 20.705078 11.373078 20.307266 11 19.822266 11 L 17.474609 11 z M 22.177734 11.001953 C 21.707734 11.001953 21.294922 11.389984 21.294922 11.833984 L 21.294922 20.167969 C 21.294922 20.611969 21.706734 21 22.177734 21 L 25.117188 21 C 25.587187 21 26 20.611016 26 20.166016 L 26 15.832031 C 26 15.388031 25.588188 15 25.117188 15 L 23.705078 15 L 23.705078 16.667969 L 24.234375 16.667969 L 24.234375 19.333984 L 23.058594 19.333984 L 23.058594 12.667969 L 24.234375 12.667969 L 24.234375 13.777344 L 26 13.777344 L 26 11.832031 C 26 11.388031 25.587188 11.000953 25.117188 11.001953 L 22.177734 11.001953 z M 7.765625 12.667969 L 8.4121094 12.667969 L 8.4121094 15.333984 L 7.765625 15.333984 L 7.765625 12.667969 z M 18.353516 12.667969 L 19 12.667969 L 19 14.888672 L 18.353516 14.888672 L 18.353516 12.667969 z M 18.353516 16.556641 L 19 16.556641 L 19 19.333984 L 18.353516 19.333984 L 18.353516 16.556641 z" font-weight="400" font-family="sans-serif" white-space="normal" overflow="visible"></path>
</svg>
