<?xml version="1.0" encoding="UTF-8"?>
<svg xmlns="http://www.w3.org/2000/svg" xmlns:xlink="http://www.w3.org/1999/xlink" viewBox="0 0 32 32" version="1.1">
<g>
<path d="M 16 4 C 9.382813 4 4 9.382813 4 16 C 4 22.617188 9.382813 28 16 28 C 22.617188 28 28 22.617188 28 16 C 28 9.382813 22.617188 4 16 4 Z M 16 6 C 21.535156 6 26 10.464844 26 16 C 26 21.535156 21.535156 26 16 26 C 10.464844 26 6 21.535156 6 16 C 6 10.464844 10.464844 6 16 6 Z M 15.5 8 C 14.671875 8 14 8.671875 14 9.5 C 14 10.328125 14.671875 11 15.5 11 C 16.328125 11 17 10.328125 17 9.5 C 17 8.671875 16.328125 8 15.5 8 Z M 15.84375 11.90625 L 15.4375 12.15625 L 12.8125 13.90625 L 10.3125 13.0625 L 9.6875 14.9375 L 13.15625 16.09375 L 13.5625 15.84375 L 15.3125 14.65625 L 15.71875 16.625 L 13.4375 18.15625 L 13.125 18.375 L 12.03125 22.75 L 13.96875 23.25 L 14.875 19.625 L 16.15625 18.78125 L 17.03125 23.1875 L 18.96875 22.8125 L 17.3125 14.46875 L 18.21875 14.78125 L 19.0625 17.3125 L 20.9375 16.6875 L 19.78125 13.21875 Z "></path>
</g>
</svg>
