<?xml version="1.0" encoding="UTF-8"?>
<svg xmlns="http://www.w3.org/2000/svg" xmlns:xlink="http://www.w3.org/1999/xlink" viewBox="0 0 32 32" version="1.1">
<g>
<path d="M 18.5 4 C 15.46875 4 13 6.46875 13 9.5 C 13 10.605469 13.324219 11.664063 13.9375 12.5625 C 14.667969 12.304688 15.417969 12.136719 16.15625 12.0625 C 15.550781 11.511719 15.183594 10.785156 15.0625 10 L 18.5 10 C 19.328125 10 20 9.328125 20 8.5 C 20 7.671875 19.328125 7 18.5 7 C 17.84375 7 17.296875 7.414063 17.09375 8 L 15.34375 8 C 15.90625 6.8125 17.101563 6 18.5 6 C 19.542969 6 20.429688 6.304688 21.03125 6.8125 C 21.632813 7.320313 22 8.003906 22 9 C 22 11 20.5 11.875 20.5 11.875 L 19.65625 12.375 L 20.125 13.21875 C 20.125 13.21875 21 14.71875 21 17.71875 C 21 19.675781 20.277344 20.835938 19.03125 21.6875 C 17.785156 22.539063 15.925781 23 13.71875 23 C 11.902344 23 9.882813 22.5625 8.28125 22.09375 C 9.765625 17.523438 13.25 15 17 15 L 17 13 C 12.34375 13 8.136719 16.234375 6.40625 21.46875 C 5.816406 21.257813 5.40625 21.09375 5.40625 21.09375 L 4.59375 22.90625 C 4.59375 22.90625 9.355469 25 13.71875 25 C 13.738281 25 13.761719 25 13.78125 25 C 13.53125 25.6875 13.15625 26.3125 13.15625 26.3125 L 13 26.59375 L 13 28 L 19 28 L 19 26 L 15.5 26 C 15.644531 25.644531 15.808594 25.261719 15.90625 24.84375 C 17.503906 24.628906 18.957031 24.164063 20.15625 23.34375 C 21.886719 22.164063 23 20.214844 23 17.71875 C 23 15.195313 22.472656 13.753906 22.15625 13 C 22.539063 12.683594 23.046875 12.183594 23.4375 11.4375 C 25.65625 10.574219 27 10 27 10 C 27 10 26.472656 5.664063 22.0625 5.0625 C 21.074219 4.335938 19.824219 4 18.5 4 Z "></path>
</g>
</svg>
