<?xml version="1.0" encoding="UTF-8"?>
<svg xmlns="http://www.w3.org/2000/svg" xmlns:xlink="http://www.w3.org/1999/xlink" viewBox="0 0 32 32" version="1.1">
<g>
<path d="M 18.125 3.3125 L 15.28125 6.3125 L 14.625 7 L 15.28125 7.6875 L 18.125 10.6875 L 19.5625 9.3125 L 18.3125 8 L 19 8 C 20.667969 8 22 9.332031 22 11 L 22 22.1875 C 20.84375 22.605469 20 23.707031 20 25 C 20 26.644531 21.355469 28 23 28 C 24.644531 28 26 26.644531 26 25 C 26 23.707031 25.15625 22.605469 24 22.1875 L 24 11 C 24 8.25 21.75 6 19 6 L 18.3125 6 L 19.5625 4.6875 Z M 9 4 C 7.355469 4 6 5.355469 6 7 C 6 8.292969 6.84375 9.394531 8 9.8125 L 8 22.1875 C 6.84375 22.605469 6 23.707031 6 25 C 6 26.644531 7.355469 28 9 28 C 10.644531 28 12 26.644531 12 25 C 12 23.707031 11.15625 22.605469 10 22.1875 L 10 9.8125 C 11.15625 9.394531 12 8.292969 12 7 C 12 5.355469 10.644531 4 9 4 Z M 9 6 C 9.5625 6 10 6.4375 10 7 C 10 7.5625 9.5625 8 9 8 C 8.4375 8 8 7.5625 8 7 C 8 6.4375 8.4375 6 9 6 Z M 9 24 C 9.5625 24 10 24.4375 10 25 C 10 25.5625 9.5625 26 9 26 C 8.4375 26 8 25.5625 8 25 C 8 24.4375 8.4375 24 9 24 Z M 23 24 C 23.5625 24 24 24.4375 24 25 C 24 25.5625 23.5625 26 23 26 C 22.4375 26 22 25.5625 22 25 C 22 24.4375 22.4375 24 23 24 Z "></path>
</g>
</svg>
