<?xml version="1.0" encoding="UTF-8"?>
<svg xmlns="http://www.w3.org/2000/svg" xmlns:xlink="http://www.w3.org/1999/xlink" viewBox="0 0 32 32" version="1.1">
<g>
<path d="M 19 3 C 17.523438 3 16.355469 3.464844 15.625 4.25 C 14.894531 5.035156 14.660156 6.046875 14.59375 6.9375 C 14.542969 7.613281 14.632813 8.230469 14.71875 8.78125 C 11.28125 8.269531 8.476563 8.828125 6.46875 10.25 C 4.171875 11.875 3 14.535156 3 17.40625 C 3 21.410156 4.214844 24.433594 6.53125 26.34375 C 8.816406 28.226563 12.023438 28.980469 15.84375 29 C 15.898438 29.003906 15.945313 29 16 29 C 16.242188 29 16.496094 28.988281 16.75 28.96875 C 20.308594 28.875 23.300781 28.128906 25.46875 26.34375 C 27.785156 24.433594 29 21.410156 29 17.40625 C 29 14.535156 27.824219 11.859375 25.53125 10.21875 C 23.808594 8.988281 21.511719 8.367188 18.71875 8.53125 C 18.078125 8.570313 17.40625 8.6875 16.71875 8.8125 C 16.613281 8.316406 16.519531 7.671875 16.5625 7.0625 C 16.605469 6.453125 16.78125 5.964844 17.09375 5.625 C 17.40625 5.285156 17.914063 5 19 5 Z M 15.90625 11 L 16.1875 11.0625 C 16.410156 11.1875 16.613281 11.367188 16.8125 11.65625 C 17.117188 12.097656 17.378906 12.765625 17.5625 13.5625 C 17.933594 15.15625 18 17.230469 18 19 C 18 20.886719 17.851563 23.097656 17.4375 24.71875 C 17.230469 25.53125 16.960938 26.1875 16.6875 26.5625 C 16.496094 26.828125 16.371094 26.957031 16.21875 27 C 16.207031 27 16.199219 27 16.1875 27 C 16.125 27 16.0625 27 16 27 C 15.96875 27 15.933594 27.003906 15.90625 27 C 15.863281 27 15.824219 27 15.78125 27 C 15.628906 26.957031 15.503906 26.828125 15.3125 26.5625 C 15.039063 26.1875 14.769531 25.53125 14.5625 24.71875 C 14.148438 23.097656 14 20.886719 14 19 C 14 17.230469 14.066406 15.15625 14.4375 13.5625 C 14.621094 12.765625 14.882813 12.097656 15.1875 11.65625 C 15.414063 11.324219 15.636719 11.121094 15.90625 11 Z M 13.25 11.03125 C 12.910156 11.667969 12.675781 12.375 12.5 13.125 C 12.058594 15.023438 12 17.183594 12 19 C 12 20.988281 12.140625 23.304688 12.625 25.21875 C 12.71875 25.582031 12.8125 25.921875 12.9375 26.25 C 12.398438 25.972656 11.878906 25.621094 11.40625 25.15625 C 10.050781 23.824219 9 21.632813 9 18 C 9 14.125 10.082031 12.503906 11.375 11.6875 C 11.929688 11.335938 12.582031 11.144531 13.25 11.03125 Z M 18.75 11.03125 C 19.417969 11.144531 20.070313 11.335938 20.625 11.6875 C 21.917969 12.503906 23 14.125 23 18 C 23 21.632813 21.949219 23.824219 20.59375 25.15625 C 20.121094 25.621094 19.601563 25.972656 19.0625 26.25 C 19.1875 25.921875 19.28125 25.582031 19.375 25.21875 C 19.859375 23.304688 20 20.988281 20 19 C 20 17.183594 19.941406 15.023438 19.5 13.125 C 19.324219 12.375 19.089844 11.667969 18.75 11.03125 Z M 22.96875 11.09375 C 23.492188 11.300781 23.960938 11.546875 24.375 11.84375 C 26.105469 13.082031 27 15.058594 27 17.40625 C 27 21.015625 25.992188 23.296875 24.1875 24.78125 C 23.765625 25.128906 23.277344 25.421875 22.75 25.6875 C 24.097656 23.925781 25 21.410156 25 18 C 25 14.738281 24.207031 12.511719 22.96875 11.09375 Z M 8.96875 11.15625 C 7.765625 12.574219 7 14.792969 7 18 C 7 21.410156 7.902344 23.925781 9.25 25.6875 C 8.722656 25.421875 8.234375 25.128906 7.8125 24.78125 C 6.007813 23.296875 5 21.015625 5 17.40625 C 5 15.058594 5.898438 13.097656 7.625 11.875 C 8.023438 11.59375 8.472656 11.355469 8.96875 11.15625 Z "></path>
</g>
</svg>
