<?xml version="1.0" encoding="UTF-8"?>
<svg xmlns="http://www.w3.org/2000/svg" xmlns:xlink="http://www.w3.org/1999/xlink" viewBox="0 0 32 32" version="1.1">
<g>
<path d="M 13.5 4 C 12.671875 4 12 4.671875 12 5.5 C 12 6.691406 12.226563 7.644531 12.59375 8.40625 C 13.285156 8.242188 14 8.125 14.71875 8.0625 C 14.488281 7.761719 14.289063 7.363281 14.15625 6.84375 C 14.660156 6.601563 15 6.09375 15 5.5 C 15 4.671875 14.328125 4 13.5 4 Z M 18.5 4 C 17.671875 4 17 4.671875 17 5.5 C 17 6.09375 17.339844 6.601563 17.84375 6.84375 C 17.636719 7.707031 17.253906 8.1875 16.875 8.5 C 16.332031 8.949219 15.84375 9 15.84375 9 C 10.347656 9.054688 3.59375 12.09375 3.59375 12.09375 L 4.40625 13.90625 C 4.40625 13.90625 5.21875 13.5625 6.4375 13.125 C 5.367188 15.332031 4 18.992188 4 23.34375 C 4 24.648438 4.355469 25.800781 5.09375 26.65625 C 5.832031 27.511719 6.945313 28 8.15625 28 L 23.84375 28 C 25.054688 28 26.167969 27.511719 26.90625 26.65625 C 27.644531 25.800781 28 24.648438 28 23.34375 C 28 18.992188 26.632813 15.332031 25.5625 13.125 C 26.78125 13.5625 27.59375 13.90625 27.59375 13.90625 L 28.40625 12.09375 C 28.40625 12.09375 23.652344 9.972656 18.875 9.25 C 19.511719 8.398438 20 7.160156 20 5.5 C 20 4.671875 19.328125 4 18.5 4 Z M 16 11 C 18.117188 11 20.621094 11.578125 22.78125 12.21875 C 23.144531 12.769531 26 17.28125 26 23.34375 C 26 24.292969 25.757813 24.964844 25.40625 25.375 C 25.054688 25.785156 24.574219 26 23.84375 26 L 8.15625 26 C 7.425781 26 6.945313 25.785156 6.59375 25.375 C 6.242188 24.964844 6 24.292969 6 23.34375 C 6 17.28125 8.855469 12.769531 9.21875 12.21875 C 11.378906 11.578125 13.882813 11 16 11 Z "></path>
</g>
</svg>
