<?xml version="1.0" encoding="UTF-8"?>
<svg xmlns="http://www.w3.org/2000/svg" xmlns:xlink="http://www.w3.org/1999/xlink" viewBox="0 0 32 32" version="1.1">
<g>
<path d="M 14.5 4 C 13.671875 4 13 4.671875 13 5.5 C 13 6.328125 13.671875 7 14.5 7 C 15.328125 7 16 6.328125 16 5.5 C 16 4.671875 15.328125 4 14.5 4 Z M 16 5.5 C 16 6.328125 16.671875 7 17.5 7 C 18.328125 7 19 6.328125 19 5.5 C 19 4.671875 18.328125 4 17.5 4 C 16.671875 4 16 4.671875 16 5.5 Z M 17.5 7 L 8.90625 7 C 6.753906 7 4.96875 8.707031 4.96875 10.84375 L 4.96875 10.875 L 5 15.65625 C 4.925781 15.730469 4.859375 15.796875 4.78125 15.875 C 3.523438 17.148438 2 18.769531 2 21.28125 C 2 22.214844 2.460938 23.054688 3.15625 23.8125 C 3.851563 24.570313 4.824219 25.292969 6.03125 25.90625 C 8.441406 27.132813 11.828125 28 16 28 C 20.171875 28 23.558594 27.136719 25.96875 25.90625 C 27.175781 25.292969 28.148438 24.570313 28.84375 23.8125 C 29.539063 23.054688 30 22.214844 30 21.28125 C 30 18.769531 28.476563 17.148438 27.21875 15.875 C 27.140625 15.796875 27.074219 15.730469 27 15.65625 L 26.96875 10.84375 C 26.96875 8.707031 25.15625 7 23 7 Z M 8.90625 9 L 23 9 C 24.109375 9 24.96875 9.824219 24.96875 10.84375 L 24.96875 11.78125 C 24.917969 11.398438 24.792969 11.007813 24.53125 10.6875 C 24.183594 10.261719 23.585938 10 23 10 L 9 10 C 8.414063 10 7.816406 10.292969 7.46875 10.71875 C 7.121094 11.144531 7 11.65625 7 12.15625 L 7 12.1875 C 7 12.308594 6.980469 12.417969 6.96875 12.53125 L 6.96875 10.84375 C 6.96875 9.824219 7.796875 9 8.90625 9 Z M 9.03125 12 L 22.96875 12 C 22.972656 12.007813 23 12.042969 23 12.15625 L 23 12.1875 C 23 14.539063 24.539063 16.027344 25.78125 17.28125 C 27.023438 18.535156 28 19.554688 28 21.28125 C 28 21.492188 27.859375 21.941406 27.375 22.46875 C 26.890625 22.996094 26.101563 23.566406 25.0625 24.09375 C 24.179688 24.542969 23.109375 24.957031 21.875 25.28125 C 22.582031 24.351563 23 23.222656 23 22 C 23 20.257813 22.058594 19.023438 21.3125 18 C 20.566406 16.976563 20 16.164063 20 15 L 18 15 C 18 16.832031 18.933594 18.148438 19.6875 19.1875 C 20.441406 20.226563 21 20.980469 21 22 C 21 24.113281 18.863281 26 16 26 C 13.136719 26 11 24.113281 11 22 C 11 20.980469 11.558594 20.226563 12.3125 19.1875 C 13.066406 18.148438 14 16.832031 14 15 L 12 15 C 12 16.164063 11.433594 16.976563 10.6875 18 C 9.941406 19.023438 9 20.257813 9 22 C 9 23.222656 9.417969 24.351563 10.125 25.28125 C 8.890625 24.957031 7.820313 24.542969 6.9375 24.09375 C 5.898438 23.566406 5.109375 22.996094 4.625 22.46875 C 4.140625 21.941406 4 21.492188 4 21.28125 C 4 19.554688 4.976563 18.535156 6.21875 17.28125 C 7.460938 16.027344 9 14.535156 9 12.1875 L 9 12.15625 C 9 12.042969 9.027344 12.007813 9.03125 12 Z "></path>
</g>
</svg>
