<?xml version="1.0" encoding="UTF-8"?>
<svg xmlns="http://www.w3.org/2000/svg" xmlns:xlink="http://www.w3.org/1999/xlink" viewBox="0 0 32 32" version="1.1">
<g>
<path d="M 17.5 4 C 16.671875 4 16 4.671875 16 5.5 C 16 6.328125 16.671875 7 17.5 7 C 18.328125 7 19 6.328125 19 5.5 C 19 4.671875 18.328125 4 17.5 4 Z M 17.5 7 L 8.90625 7 C 6.753906 7 4.96875 8.707031 4.96875 10.84375 L 4.96875 12.65625 C 3.480469 14.351563 2 17.203125 2 21.28125 C 2 22.214844 2.460938 23.054688 3.15625 23.8125 C 3.851563 24.570313 4.824219 25.292969 6.03125 25.90625 C 8.441406 27.132813 11.828125 28 16 28 C 20.171875 28 23.558594 27.132813 25.96875 25.90625 C 27.175781 25.292969 28.148438 24.570313 28.84375 23.8125 C 29.539063 23.054688 30 22.214844 30 21.28125 C 30 17.324219 28.433594 14.480469 26.96875 12.78125 L 26.96875 10.84375 C 26.96875 8.707031 25.15625 7 23 7 Z M 8.90625 9 L 23 9 C 24.109375 9 24.96875 9.824219 24.96875 10.84375 L 24.96875 11.78125 C 24.917969 11.398438 24.792969 11.007813 24.53125 10.6875 C 24.183594 10.261719 23.585938 10 23 10 L 9 10 C 8.414063 10 7.816406 10.261719 7.46875 10.6875 C 7.121094 11.113281 7 11.65625 7 12.15625 L 7 12.1875 C 7 12.265625 6.972656 12.332031 6.96875 12.40625 L 6.96875 10.84375 C 6.96875 9.824219 7.796875 9 8.90625 9 Z M 9.03125 12 L 22.96875 12 C 22.972656 12.007813 23 12.042969 23 12.15625 L 23 12.1875 C 23 13.070313 23.222656 13.820313 23.5625 14.5 C 23.21875 15.175781 23 15.933594 23 16.8125 L 23 16.84375 C 23 16.957031 22.972656 16.992188 22.96875 17 L 9.03125 17 C 9.027344 16.992188 9 16.957031 9 16.84375 L 9 16.8125 C 9 15.9375 8.777344 15.179688 8.4375 14.5 C 8.777344 13.820313 9 13.070313 9 12.1875 L 9 12.15625 C 9 12.042969 9.027344 12.007813 9.03125 12 Z M 4.96875 16.375 L 4.96875 18.15625 C 4.96875 20.292969 6.753906 22 8.90625 22 L 23 22 C 25.15625 22 26.96875 20.292969 26.96875 18.15625 L 26.96875 16.46875 C 27.554688 17.753906 28 19.355469 28 21.28125 C 28 21.492188 27.859375 21.941406 27.375 22.46875 C 26.890625 22.996094 26.101563 23.566406 25.0625 24.09375 C 22.988281 25.152344 19.886719 26 16 26 C 12.113281 26 9.011719 25.152344 6.9375 24.09375 C 5.898438 23.566406 5.109375 22.996094 4.625 22.46875 C 4.140625 21.941406 4 21.492188 4 21.28125 C 4 19.277344 4.40625 17.660156 4.96875 16.375 Z M 14.5 22 C 13.671875 22 13 22.671875 13 23.5 C 13 24.328125 13.671875 25 14.5 25 C 15.328125 25 16 24.328125 16 23.5 C 16 22.671875 15.328125 22 14.5 22 Z M 6.96875 16.59375 C 6.972656 16.667969 7 16.734375 7 16.8125 L 7 16.84375 C 7 17.34375 7.121094 17.886719 7.46875 18.3125 C 7.816406 18.738281 8.414063 19 9 19 L 23 19 C 23.585938 19 24.183594 18.738281 24.53125 18.3125 C 24.792969 17.992188 24.917969 17.601563 24.96875 17.21875 L 24.96875 18.15625 C 24.96875 19.175781 24.109375 20 23 20 L 8.90625 20 C 7.796875 20 6.96875 19.175781 6.96875 18.15625 Z "></path>
</g>
</svg>
