<?xml version="1.0" encoding="UTF-8"?>
<svg xmlns="http://www.w3.org/2000/svg" xmlns:xlink="http://www.w3.org/1999/xlink" viewBox="0 0 32 32" version="1.1">
<g>
<path d="M 25.78125 4 C 25.144531 4.070313 24.476563 4.398438 23.9375 4.9375 C 23.1875 5.6875 22.890625 6.675781 23.0625 7.5 L 21 9.5625 C 21 9.542969 21 9.523438 21 9.5 C 21 8.121094 20.105469 7 19 7 C 17.894531 7 17 8.121094 17 9.5 C 17 10.707031 17.683594 11.703125 18.59375 11.9375 L 16 14.5625 C 16 14.542969 16 14.523438 16 14.5 C 16 13.121094 15.105469 12 14 12 C 12.894531 12 12 13.121094 12 14.5 C 12 15.707031 12.683594 16.703125 13.59375 16.9375 L 10 20.5625 C 10 20.542969 10 20.523438 10 20.5 C 10 19.121094 9.105469 18 8 18 C 6.894531 18 6 19.121094 6 20.5 C 6 21.707031 6.683594 22.703125 7.59375 22.9375 L 4.28125 26.28125 L 5.71875 27.71875 L 11.0625 22.40625 C 11.296875 23.316406 12.292969 24 13.5 24 C 14.878906 24 16 23.105469 16 22 C 16 20.894531 14.878906 20 13.5 20 C 13.476563 20 13.457031 20 13.4375 20 L 16.0625 17.40625 C 16.296875 18.316406 17.292969 19 18.5 19 C 19.878906 19 21 18.105469 21 17 C 21 15.894531 19.878906 15 18.5 15 C 18.476563 15 18.457031 15 18.4375 15 L 21.0625 12.40625 C 21.296875 13.316406 22.292969 14 23.5 14 C 24.878906 14 26 13.105469 26 12 C 26 10.894531 24.878906 10 23.5 10 C 23.476563 10 23.457031 10 23.4375 10 L 24.5 8.9375 C 25.324219 9.109375 26.3125 8.8125 27.0625 8.0625 C 28.140625 6.984375 28.300781 5.425781 27.4375 4.5625 C 27.007813 4.132813 26.417969 3.929688 25.78125 4 Z "></path>
</g>
</svg>
