<?xml version="1.0" encoding="UTF-8"?>
<svg xmlns="http://www.w3.org/2000/svg" xmlns:xlink="http://www.w3.org/1999/xlink" viewBox="0 0 32 32" version="1.1">
<g>
<path d="M 8.9375 5 C 6.773438 5 5 6.773438 5 8.9375 L 5 23.0625 C 5 25.226563 6.773438 27 8.9375 27 L 23.0625 27 C 25.226563 27 27 25.226563 27 23.0625 L 27 8.9375 C 27 6.773438 25.226563 5 23.0625 5 Z M 8.9375 7 L 23.0625 7 C 24.144531 7 25 7.855469 25 8.9375 L 25 23.0625 C 25 24.144531 24.144531 25 23.0625 25 L 8.9375 25 C 7.855469 25 7 24.144531 7 23.0625 L 7 8.9375 C 7 7.855469 7.855469 7 8.9375 7 Z M 10.5 12 C 9.132813 12 8 13.132813 8 14.5 L 8 17.5 C 8 18.867188 9.132813 20 10.5 20 L 11.5 20 L 12 21 L 14 21 L 13 19 L 13 14.5 C 13 13.132813 11.867188 12 10.5 12 Z M 14 12 L 14 17.5 C 14 18.867188 15.132813 20 16.5 20 C 17.867188 20 19 18.867188 19 17.5 L 19 12 L 17 12 L 17 17.5 C 17 17.785156 16.785156 18 16.5 18 C 16.214844 18 16 17.785156 16 17.5 L 16 12 Z M 20 12 L 20 20 L 24 20 L 24 18 L 22 18 L 22 17 L 23 17 L 23 15 L 22 15 L 22 14 L 24 14 L 24 12 Z M 10.5 14 C 10.785156 14 11 14.214844 11 14.5 L 11 17 L 10 17 L 10.5 18 C 10.214844 18 10 17.785156 10 17.5 L 10 14.5 C 10 14.214844 10.214844 14 10.5 14 Z "></path>
</g>
</svg>
