<?xml version="1.0" encoding="UTF-8"?>
<svg xmlns="http://www.w3.org/2000/svg" xmlns:xlink="http://www.w3.org/1999/xlink" viewBox="0 0 32 32" version="1.1">
<g>
<path d="M 16 2 C 13.996094 2 12.050781 2.640625 10.554688 3.777344 C 9.058594 4.914063 8 6.601563 8 8.570313 L 8 16 C 7.996094 16.234375 8.078125 16.464844 8.226563 16.648438 C 8.25 16.671875 8.269531 16.699219 8.296875 16.71875 C 8.316406 16.746094 8.34375 16.765625 8.367188 16.789063 C 8.394531 16.808594 8.421875 16.828125 8.445313 16.847656 C 8.449219 16.847656 8.449219 16.847656 8.449219 16.847656 C 8.476563 16.867188 8.503906 16.882813 8.53125 16.898438 C 8.535156 16.898438 8.535156 16.898438 8.535156 16.898438 C 8.742188 17.007813 8.984375 17.039063 9.214844 16.988281 C 9.28125 16.976563 9.34375 16.953125 9.40625 16.925781 C 9.433594 16.914063 9.464844 16.902344 9.492188 16.886719 C 9.492188 16.882813 9.492188 16.882813 9.492188 16.882813 C 9.523438 16.867188 9.550781 16.847656 9.578125 16.828125 C 9.582031 16.824219 9.589844 16.820313 9.59375 16.816406 C 9.59375 16.816406 9.59375 16.816406 9.59375 16.8125 C 10.132813 18.027344 11 19.0625 12.089844 19.796875 C 8.515625 21.324219 6 24.875 6 29 L 8 29 C 8 26.101563 9.535156 23.578125 11.832031 22.171875 C 12.378906 23.523438 13.558594 24.546875 15 24.878906 L 15 29 L 17 29 L 17 24.878906 C 18.441406 24.546875 19.621094 23.523438 20.167969 22.171875 C 22.464844 23.578125 24 26.101563 24 29 L 26 29 C 26 24.875 23.484375 21.324219 19.910156 19.796875 C 20.996094 19.0625 21.867188 18.027344 22.402344 16.8125 C 22.414063 16.824219 22.425781 16.832031 22.4375 16.839844 C 22.46875 16.859375 22.5 16.878906 22.53125 16.898438 C 22.558594 16.910156 22.585938 16.925781 22.613281 16.9375 C 22.742188 16.988281 22.878906 17.015625 23.015625 17.015625 C 23.046875 17.011719 23.074219 17.011719 23.105469 17.007813 C 23.136719 17.003906 23.167969 17 23.203125 16.992188 C 23.207031 16.992188 23.210938 16.992188 23.214844 16.988281 C 23.273438 16.976563 23.335938 16.957031 23.390625 16.933594 C 23.394531 16.933594 23.394531 16.933594 23.394531 16.933594 C 23.398438 16.933594 23.398438 16.929688 23.402344 16.929688 C 23.460938 16.902344 23.515625 16.871094 23.566406 16.835938 C 23.570313 16.835938 23.574219 16.832031 23.578125 16.828125 C 23.65625 16.773438 23.726563 16.707031 23.785156 16.632813 C 23.789063 16.628906 23.789063 16.625 23.792969 16.625 C 23.8125 16.601563 23.828125 16.574219 23.84375 16.550781 C 23.847656 16.546875 23.847656 16.542969 23.847656 16.542969 C 23.882813 16.488281 23.910156 16.429688 23.933594 16.375 C 23.933594 16.371094 23.933594 16.371094 23.933594 16.371094 C 23.933594 16.367188 23.9375 16.367188 23.9375 16.363281 C 23.949219 16.335938 23.957031 16.304688 23.964844 16.277344 C 23.964844 16.273438 23.964844 16.269531 23.96875 16.265625 C 23.976563 16.238281 23.980469 16.210938 23.984375 16.179688 C 23.988281 16.179688 23.988281 16.179688 23.984375 16.175781 C 23.988281 16.175781 23.988281 16.171875 23.988281 16.171875 C 23.992188 16.140625 23.996094 16.109375 24 16.078125 C 24 16.078125 24 16.074219 24 16.070313 C 24 16.046875 24 16.023438 24 16 L 24 8.570313 C 24 6.601563 22.941406 4.914063 21.445313 3.777344 C 19.949219 2.640625 18.003906 2 16 2 Z M 16 4 C 17.570313 4 19.125 4.527344 20.234375 5.371094 C 21.347656 6.214844 22 7.308594 22 8.570313 L 22 14 L 21.625 14 C 21.4375 13.949219 21.257813 13.894531 21.050781 13.847656 C 19.644531 13.542969 17.847656 13.382813 16 13.382813 C 14.152344 13.382813 12.355469 13.542969 10.949219 13.847656 C 10.742188 13.894531 10.5625 13.949219 10.375 14 L 10 14 L 10 8.570313 C 10 7.308594 10.652344 6.214844 11.765625 5.371094 C 12.875 4.527344 14.429688 4 16 4 Z M 16 15.382813 C 17.726563 15.382813 19.429688 15.542969 20.625 15.804688 C 20.636719 15.808594 20.644531 15.808594 20.652344 15.8125 C 19.929688 17.679688 18.132813 19 16 19 C 13.867188 19 12.070313 17.679688 11.347656 15.8125 C 11.355469 15.808594 11.363281 15.808594 11.375 15.804688 C 12.570313 15.542969 14.273438 15.382813 16 15.382813 Z M 16 21 C 16.816406 21 17.601563 21.125 18.34375 21.347656 C 18 22.316406 17.09375 23 16 23 C 14.90625 23 14 22.316406 13.65625 21.347656 C 14.398438 21.125 15.183594 21 16 21 Z "></path>
</g>
</svg>
