<?xml version="1.0" encoding="UTF-8"?>
<svg xmlns="http://www.w3.org/2000/svg" xmlns:xlink="http://www.w3.org/1999/xlink" viewBox="0 0 32 32" version="1.1">
<g>
<path d="M 15 4 L 15 6 L 13 6 L 13 8 L 15 8 L 15 9.1875 C 14.011719 9.554688 13.25 10.433594 13.0625 11.5 C 12.277344 11.164063 11.40625 11 10.5 11 C 6.921875 11 4 13.921875 4 17.5 C 4 19.792969 5.199219 21.8125 7 22.96875 L 7 27 L 25 27 L 25 22.96875 C 26.800781 21.8125 28 19.792969 28 17.5 C 28 13.921875 25.078125 11 21.5 11 C 20.59375 11 19.722656 11.164063 18.9375 11.5 C 18.75 10.433594 17.988281 9.554688 17 9.1875 L 17 8 L 19 8 L 19 6 L 17 6 L 17 4 Z M 16 11 C 16.5625 11 17 11.4375 17 12 C 17 12.5625 16.5625 13 16 13 C 15.4375 13 15 12.5625 15 12 C 15 11.4375 15.4375 11 16 11 Z M 10.5 13 C 12.996094 13 15 15.003906 15 17.5 L 15 22 L 10.5 22 C 8.003906 22 6 19.996094 6 17.5 C 6 15.003906 8.003906 13 10.5 13 Z M 21.5 13 C 23.996094 13 26 15.003906 26 17.5 C 26 19.996094 23.996094 22 21.5 22 L 17 22 L 17 17.5 C 17 15.003906 19.003906 13 21.5 13 Z M 9 24 L 23 24 L 23 25 L 9 25 Z "></path>
</g>
</svg>
