<?xml version="1.0" encoding="UTF-8"?>
<svg xmlns="http://www.w3.org/2000/svg" xmlns:xlink="http://www.w3.org/1999/xlink" viewBox="0 0 32 32" version="1.1">
<g>
<path d="M 11.5 6 C 5.984375 6 1.5 10.484375 1.5 16 C 1.5 21.515625 5.984375 26 11.5 26 C 13.328125 26 15.023438 25.484375 16.5 24.625 C 17.976563 25.484375 19.675781 26 21.5 26 C 27.011719 26 31.5 21.511719 31.5 16 C 31.5 10.488281 27.011719 6 21.5 6 C 19.675781 6 17.976563 6.515625 16.5 7.375 C 15.023438 6.515625 13.328125 6 11.5 6 Z M 21.5 8 C 25.929688 8 29.5 11.570313 29.5 16 C 29.5 20.429688 25.929688 24 21.5 24 C 20.351563 24 19.265625 23.746094 18.28125 23.3125 C 20.25 21.484375 21.5 18.890625 21.5 16 C 21.5 13.109375 20.25 10.515625 18.28125 8.6875 C 19.265625 8.253906 20.351563 8 21.5 8 Z "></path>
</g>
</svg>
