<?xml version="1.0" encoding="UTF-8"?>
<svg xmlns="http://www.w3.org/2000/svg" xmlns:xlink="http://www.w3.org/1999/xlink" viewBox="0 0 32 32" version="1.1">
<g>
<path d="M 11 6 C 5.488281 6 1 10.488281 1 16 C 1 21.511719 5.488281 26 11 26 C 12.824219 26 14.523438 25.484375 16 24.625 C 17.476563 25.484375 19.171875 26 21 26 C 26.515625 26 31 21.515625 31 16 C 31 10.484375 26.515625 6 21 6 C 19.171875 6 17.476563 6.515625 16 7.375 C 14.523438 6.515625 12.824219 6 11 6 Z M 11 8 C 12.148438 8 13.234375 8.253906 14.21875 8.6875 C 12.25 10.515625 11 13.109375 11 16 C 11 18.890625 12.25 21.484375 14.21875 23.3125 C 13.234375 23.746094 12.148438 24 11 24 C 6.570313 24 3 20.429688 3 16 C 3 11.570313 6.570313 8 11 8 Z "></path>
</g>
</svg>
