<?xml version="1.0" encoding="UTF-8"?>
<svg xmlns="http://www.w3.org/2000/svg" xmlns:xlink="http://www.w3.org/1999/xlink" viewBox="0 0 32 32" version="1.1">
<g>
<path d="M 11 6 C 5.488281 6 1 10.488281 1 16 C 1 21.511719 5.488281 26 11 26 C 12.824219 26 14.523438 25.484375 16 24.625 C 17.476563 25.484375 19.175781 26 21 26 C 26.511719 26 31 21.511719 31 16 C 31 10.488281 26.511719 6 21 6 C 19.175781 6 17.476563 6.515625 16 7.375 C 14.523438 6.515625 12.824219 6 11 6 Z M 16 9.75 C 17.828125 11.214844 19 13.46875 19 16 C 19 18.53125 17.828125 20.785156 16 22.25 C 14.171875 20.785156 13 18.53125 13 16 C 13 13.46875 14.171875 11.214844 16 9.75 Z "></path>
</g>
</svg>
