<?xml version="1.0" encoding="UTF-8"?>
<svg xmlns="http://www.w3.org/2000/svg" xmlns:xlink="http://www.w3.org/1999/xlink" viewBox="0 0 32 32" version="1.1">
<g>
<path d="M 12.4375 3.625 L 12.0625 4.65625 L 4.0625 26.5625 L 3.84375 27.15625 L 4.84375 28.15625 L 5.4375 27.9375 L 27.34375 19.9375 L 28.375 19.5625 L 27.90625 18.5625 C 27.90625 18.5625 25.640625 13.828125 21.90625 10.09375 C 18.171875 6.359375 13.4375 4.09375 13.4375 4.09375 Z M 13.53125 6.46875 C 14.71875 7.09375 17.699219 8.703125 20.5 11.5 C 23.296875 14.300781 24.90625 17.28125 25.53125 18.46875 L 23.96875 19.03125 C 23.34375 17.84375 21.921875 15.546875 19.1875 12.8125 C 16.453125 10.078125 14.15625 8.65625 12.96875 8.03125 Z M 12.28125 9.9375 C 13.335938 10.519531 15.246094 11.746094 17.75 14.25 C 20.253906 16.753906 21.480469 18.664063 22.0625 19.71875 L 6.625 25.375 Z M 13.71875 13.28125 L 12.28125 14.71875 L 17.28125 19.71875 L 18.71875 18.28125 Z M 11.65625 17.25 L 10.25 18.65625 L 13.34375 21.75 L 14.75 20.34375 Z "></path>
</g>
</svg>
