<?xml version="1.0" encoding="UTF-8"?>
<svg xmlns="http://www.w3.org/2000/svg" xmlns:xlink="http://www.w3.org/1999/xlink" viewBox="0 0 32 32" version="1.1">
<g>
<path d="M 28 4.46875 L 26.59375 5.09375 L 19.96875 7.9375 L 12.34375 5.0625 L 11.96875 4.9375 L 11.59375 5.09375 L 4.59375 8.09375 L 4 8.34375 L 4 27.53125 L 5.40625 26.90625 L 12.03125 24.0625 L 19.65625 26.9375 L 20.03125 27.0625 L 20.40625 26.90625 L 27.40625 23.90625 L 28 23.65625 Z M 12.03125 7.0625 L 19.65625 9.9375 L 20.03125 10.0625 L 20.40625 9.90625 L 26 7.5 L 26 22.34375 L 19.96875 24.9375 L 12.34375 22.0625 L 11.96875 21.9375 L 11.59375 22.09375 L 6 24.5 L 6 9.65625 Z M 15.8125 11 C 14.273438 11 13 12.273438 13 13.8125 L 13 14 L 15 14 L 15 13.8125 C 15 13.355469 15.355469 13 15.8125 13 L 16.1875 13 C 16.644531 13 17 13.355469 17 13.8125 L 17 13.875 C 17 14.183594 16.835938 14.457031 16.5625 14.59375 C 15.613281 15.070313 15 16.0625 15 17.125 L 15 18 L 17 18 L 17 17.125 C 17 16.816406 17.164063 16.542969 17.4375 16.40625 C 18.386719 15.929688 19 14.9375 19 13.875 L 19 13.8125 C 19 12.273438 17.726563 11 16.1875 11 Z M 15 19 L 15 21 L 17 21 L 17 19 Z "></path>
</g>
</svg>
