<?xml version="1.0" encoding="UTF-8"?>
<svg xmlns="http://www.w3.org/2000/svg" xmlns:xlink="http://www.w3.org/1999/xlink" viewBox="0 0 32 32" version="1.1">
<g>
<path d="M 16 4 C 13.75 4 12.234375 4.886719 10.875 5.625 C 9.515625 6.363281 8.28125 7 6 7 L 5 7 L 5 8 C 5 15.71875 7.609375 20.742188 10.25 23.78125 C 12.890625 26.820313 15.625 27.9375 15.625 27.9375 L 16 28.0625 L 16.375 27.9375 C 16.375 27.9375 19.109375 26.84375 21.75 23.8125 C 24.390625 20.78125 27 15.746094 27 8 L 27 7 L 26 7 C 23.730469 7 22.484375 6.363281 21.125 5.625 C 19.765625 4.886719 18.25 4 16 4 Z M 16 6 C 17.75 6 18.753906 6.613281 20.15625 7.375 C 21.339844 8.019531 22.910156 8.636719 24.9375 8.84375 C 24.746094 15.609375 22.507813 19.910156 20.25 22.5 C 18.203125 24.847656 16.484375 25.628906 16 25.84375 C 15.511719 25.625 13.796875 24.824219 11.75 22.46875 C 9.492188 19.871094 7.253906 15.578125 7.0625 8.84375 C 9.097656 8.636719 10.660156 8.019531 11.84375 7.375 C 13.246094 6.613281 14.25 6 16 6 Z M 16 10 C 13.800781 10 12 11.800781 12 14 L 14 14 C 14 12.882813 14.882813 12 16 12 C 17.117188 12 18 12.882813 18 14 C 18 15.117188 17.117188 16 16 16 L 15 16 L 15 19 L 17 19 L 17 17.8125 C 18.710938 17.359375 20 15.847656 20 14 C 20 11.800781 18.199219 10 16 10 Z M 15 20 L 15 22 L 17 22 L 17 20 Z "></path>
</g>
</svg>
