<?xml version="1.0" encoding="UTF-8"?>
<svg xmlns="http://www.w3.org/2000/svg" xmlns:xlink="http://www.w3.org/1999/xlink" viewBox="0 0 32 32" version="1.1">
<g>
<path d="M 12.011719 5 C 8.148438 5 5.011719 6.644531 5.011719 8.667969 L 5.011719 13.902344 C 5.011719 13.9375 5 13.96875 5 14.003906 C 5 14.050781 5.007813 14.089844 5.011719 14.136719 L 5.011719 18.894531 C 5.011719 18.929688 5 18.964844 5 19 C 5 19.042969 5.007813 19.085938 5.011719 19.128906 L 5.011719 23.332031 C 5.011719 25.355469 8.148438 27 12.011719 27 C 15.875 27 19.011719 25.355469 19.011719 23.332031 L 19.011719 8.667969 C 19.011719 6.644531 15.875 5 12.011719 5 Z M 21.5625 6.265625 C 19.9375 6.4375 20.003906 10.910156 20 11.5 C 19.992188 12.644531 20.007813 13.675781 20.125 14.8125 C 20.167969 15.203125 20.257813 15.582031 20.339844 15.964844 L 22.332031 15.160156 L 23.117188 16.78125 L 21.390625 19.171875 C 21.707031 20.226563 22.203125 21.210938 22.746094 22.152344 C 23.109375 22.785156 25.457031 25.234375 26.734375 25 C 28.21875 24.726563 28.554688 21.527344 28.5 20.25 C 28.324219 16.074219 27.4375 12.652344 24.890625 9.0625 C 24.207031 8.101563 22.535156 6.292969 21.5625 6.265625 Z M 12.011719 6.832031 C 14.6875 6.832031 17 8.070313 17 9 L 17 9.050781 C 16.945313 9.570313 15.914063 11.003906 12.011719 11 C 7.996094 10.992188 7.011719 9.488281 7.011719 9 L 7 9.003906 L 7 9 C 7 8.097656 9.335938 6.832031 12.011719 6.832031 Z M 12 8 C 10.894531 8 10 8.445313 10 9 C 10 9.554688 10.894531 10 12 10 C 13.105469 10 14 9.554688 14 9 C 14 8.445313 13.105469 8 12 8 Z M 22.144531 8.78125 C 23.054688 8.429688 28.089844 16.238281 26.5 23.070313 C 26.5 23.070313 24.617188 22.085938 23.5 19.5 C 24.023438 18.460938 25.4375 16.984375 25.4375 16.984375 L 23.324219 12.609375 L 21.9375 13.167969 C 21.9375 13.167969 21.144531 9.742188 22.140625 8.804688 C 22.140625 8.804688 22.144531 8.789063 22.144531 8.78125 Z M 7 11.730469 C 8.273438 12.449219 10.042969 13 12.011719 13 C 13.96875 13 15.730469 12.457031 17 11.742188 L 17 14.785156 C 15.726563 15.535156 13.957031 16.003906 11.988281 16.003906 C 10.03125 16.003906 8.269531 15.539063 7 14.796875 Z M 17 16.792969 L 17 19.777344 C 15.726563 20.527344 13.957031 21 11.988281 21 C 10.03125 21 8.269531 20.53125 7 19.792969 L 7 16.800781 C 8.269531 17.542969 10.035156 18.003906 11.996094 18.003906 C 13.957031 18.003906 15.730469 17.539063 17 16.792969 Z M 17 21.785156 L 17 23.332031 C 17 24.238281 14.6875 25.167969 12.011719 25.167969 C 9.335938 25.167969 7 24.136719 7 23.207031 L 7 21.796875 C 8.269531 22.539063 10.035156 23 11.996094 23 C 13.957031 23 15.730469 22.535156 17 21.785156 Z M 22.578125 23.070313 L 19.863281 23.148438 L 20.03125 23.644531 L 20.1875 24.105469 L 20.367188 24.640625 L 20.464844 24.921875 L 20.5625 25.199219 L 20.65625 25.472656 L 20.75 25.734375 L 20.835938 25.972656 L 20.917969 26.1875 L 20.984375 26.375 L 21.015625 26.453125 L 21.046875 26.519531 L 23.21875 24.355469 Z "></path>
</g>
</svg>
