<?xml version="1.0" encoding="UTF-8"?>
<svg xmlns="http://www.w3.org/2000/svg" xmlns:xlink="http://www.w3.org/1999/xlink" viewBox="0 0 32 32" version="1.1">
<g>
<path d="M 13.59375 4.0625 C 12.257813 4.0625 11 5.136719 11 6.5625 L 11 6.59375 C 11 7.875 12.015625 8.921875 13.25 9.0625 C 13.257813 9.0625 13.273438 9.0625 13.28125 9.0625 C 14.886719 9.234375 16 9.773438 16.6875 10.28125 C 16.941406 10.46875 17.109375 10.65625 17.25 10.8125 C 17.074219 11.316406 17 11.847656 17 12.375 C 17 12.636719 16.925781 12.757813 16.6875 12.96875 C 16.449219 13.179688 16.046875 13.398438 15.53125 13.5625 C 14.503906 13.886719 13.140625 14 12.375 14 C 7.664063 14 5 17.117188 5 19.9375 C 5 19.992188 4.996094 20.039063 5 20.09375 C 4.414063 20.296875 4 20.84375 4 21.5 C 4 22.328125 4.671875 23 5.5 23 C 5.75 23 5.980469 22.917969 6.1875 22.8125 C 6.210938 22.839844 6.226563 22.882813 6.25 22.90625 C 6.519531 23.207031 6.757813 23.453125 6.875 23.625 C 6.992188 23.796875 7 23.871094 7 24 C 7 24.195313 6.84375 24.539063 6.59375 25.03125 C 6.34375 25.523438 6 26.15625 6 27 L 6 28 L 19.84375 28 L 20 27.15625 C 20 27.15625 20.054688 26.730469 19.9375 26.28125 C 19.820313 25.832031 19.515625 25.253906 18.96875 24.75 C 18.5 24.316406 17.847656 23.953125 16.96875 23.65625 C 17.019531 23.613281 17.074219 23.578125 17.125 23.53125 C 17.632813 23.046875 18 22.3125 18 21.5 C 18 20.789063 17.691406 20.144531 17.28125 19.6875 C 16.871094 19.230469 16.386719 18.929688 15.875 18.6875 C 14.851563 18.203125 13.789063 18 13 18 L 13 20 C 13.371094 20 14.3125 20.175781 15 20.5 C 15.34375 20.664063 15.621094 20.851563 15.78125 21.03125 C 15.941406 21.210938 16 21.324219 16 21.5 C 16 21.765625 15.949219 21.875 15.75 22.0625 C 15.550781 22.25 15.195313 22.445313 14.75 22.59375 C 13.859375 22.890625 12.65625 23 12 23 L 12 25 C 15.054688 25 16.402344 25.535156 17.125 26 L 8.375 26 C 8.390625 25.972656 8.390625 25.96875 8.40625 25.9375 C 8.65625 25.449219 9 24.839844 9 24 C 9 23.410156 8.757813 22.878906 8.5 22.5 C 8.242188 22.121094 7.980469 21.820313 7.75 21.5625 C 7.285156 21.042969 7 20.722656 7 19.9375 C 7 18.394531 8.523438 16 12.375 16 C 13.300781 16 14.761719 15.902344 16.125 15.46875 C 16.804688 15.253906 17.476563 14.960938 18.03125 14.46875 C 18.585938 13.976563 19 13.226563 19 12.375 C 19 11.707031 19.378906 11.035156 19.5 10.96875 C 19.492188 10.375 19.265625 10.136719 19 9.78125 C 18.730469 9.417969 18.367188 9.019531 17.875 8.65625 C 16.894531 7.929688 15.433594 7.265625 13.46875 7.0625 C 13.175781 7.03125 13 6.851563 13 6.59375 L 13 6.5625 C 13 6.269531 13.214844 6.0625 13.59375 6.0625 C 17.105469 6.0625 19.46875 9.5625 19.46875 9.5625 L 19.78125 10 L 21.75 10 C 22.96875 10 24.003906 10.597656 24.78125 11.4375 C 25.429688 12.136719 25.789063 12.953125 25.90625 13.59375 C 25.472656 13.980469 24.214844 15 22.03125 15 C 21.296875 15 19.8125 14.46875 19.8125 14.46875 L 19.09375 16.34375 C 19.09375 16.34375 19.9375 16.722656 20.96875 16.90625 C 20.90625 17.699219 20.75 18.214844 20.5625 18.75 C 20.320313 19.4375 20 20.242188 20 21.40625 C 20 22.613281 20.773438 23.335938 21.375 23.96875 C 21.976563 24.601563 22.5625 25.0625 22.5625 25.0625 L 22.75 25.21875 L 23 25.25 C 23 25.25 23.183594 25.289063 23.4375 25.5 C 23.523438 25.570313 23.542969 25.882813 23.625 26 L 21 26 L 21 28 L 26 28 L 26 27 C 26 25.539063 25.375 24.515625 24.71875 23.96875 C 24.269531 23.597656 24.042969 23.574219 23.78125 23.5 C 23.78125 23.5 23.300781 23.105469 22.8125 22.59375 C 22.324219 22.082031 22 21.359375 22 21.40625 C 22 20.574219 22.179688 20.148438 22.4375 19.40625 C 22.648438 18.804688 22.855469 18.007813 22.9375 16.9375 C 25.890625 16.589844 27.71875 14.6875 27.71875 14.6875 L 28 14.40625 L 28 14 C 28 12.636719 27.328125 11.226563 26.25 10.0625 C 25.171875 8.898438 23.617188 8 21.75 8 L 20.75 8 C 20.253906 7.285156 17.890625 4.0625 13.59375 4.0625 Z M 23 11 C 22.449219 11 22 11.449219 22 12 C 22 12.550781 22.449219 13 23 13 C 23.550781 13 24 12.550781 24 12 C 24 11.449219 23.550781 11 23 11 Z "></path>
</g>
</svg>
