<?xml version="1.0" encoding="UTF-8"?>
<svg xmlns="http://www.w3.org/2000/svg" xmlns:xlink="http://www.w3.org/1999/xlink" viewBox="0 0 32 32" version="1.1">
<g>
<path d="M 16 4 C 13.800781 4 12 5.800781 12 8 C 12 9.035156 12.410156 9.972656 13.0625 10.6875 C 12.65625 10.886719 12.296875 11.132813 11.9375 11.40625 C 11.648438 9.484375 9.996094 8 8 8 C 5.800781 8 4 9.800781 4 12 C 4 13.066406 4.433594 14.03125 5.125 14.75 C 4.867188 14.890625 4.609375 15.042969 4.375 15.21875 C 2.933594 16.3125 2 18.054688 2 20 L 4 20 C 4 18.691406 4.628906 17.542969 5.59375 16.8125 C 6.265625 16.304688 7.089844 16 8 16 C 8.621094 16 9.203125 16.167969 9.75 16.4375 L 10.84375 16.96875 L 11.15625 15.78125 C 11.703125 13.617188 13.652344 12 16 12 C 18.34375 12 20.292969 13.589844 20.84375 15.75 L 21.15625 16.96875 L 22.25 16.40625 C 22.789063 16.140625 23.375 16 24 16 C 26.21875 16 28 17.78125 28 20 L 30 20 C 30 17.746094 28.726563 15.773438 26.875 14.75 C 27.566406 14.03125 28 13.066406 28 12 C 28 9.800781 26.199219 8 24 8 C 22.003906 8 20.351563 9.484375 20.0625 11.40625 C 19.703125 11.132813 19.34375 10.886719 18.9375 10.6875 C 19.589844 9.972656 20 9.035156 20 8 C 20 5.800781 18.199219 4 16 4 Z M 16 6 C 17.117188 6 18 6.882813 18 8 C 18 9.117188 17.117188 10 16 10 C 14.882813 10 14 9.117188 14 8 C 14 6.882813 14.882813 6 16 6 Z M 8 10 C 9.117188 10 10 10.882813 10 12 C 10 13.117188 9.117188 14 8 14 C 6.882813 14 6 13.117188 6 12 C 6 10.882813 6.882813 10 8 10 Z M 24 10 C 25.117188 10 26 10.882813 26 12 C 26 13.117188 25.117188 14 24 14 C 22.882813 14 22 13.117188 22 12 C 22 10.882813 22.882813 10 24 10 Z M 16 16 C 14.34375 16 13 17.34375 13 19 C 13 20.65625 14.34375 22 16 22 C 17.65625 22 19 20.65625 19 19 C 19 17.34375 17.65625 16 16 16 Z M 16 22 C 13.238281 22 11 24.238281 11 27 L 21 27 C 21 24.238281 18.761719 22 16 22 Z "></path>
</g>
</svg>
