<?xml version="1.0" encoding="UTF-8"?>
<svg xmlns="http://www.w3.org/2000/svg" xmlns:xlink="http://www.w3.org/1999/xlink" viewBox="0 0 32 32" version="1.1">
<g>
<path d="M 19.75 4.03125 C 19.011719 4.210938 18.234375 4.628906 17.40625 5.1875 C 16.820313 5.582031 16.21875 6.039063 15.71875 6.5625 C 15.019531 6.21875 14.171875 6.03125 13.21875 6.03125 C 10.410156 6.03125 8.179688 8.21875 6.59375 10.59375 C 5.007813 12.96875 4 15.539063 4 17.40625 C 4 19.054688 4.484375 20.5 5.4375 21.59375 L 5.4375 21.625 C 6.664063 23.082031 9.65625 25.84375 9.65625 25.84375 L 9.6875 25.8125 C 9.933594 26.105469 10.226563 26.363281 10.53125 26.59375 C 11.871094 27.601563 13.628906 28 15.5625 28 C 18.195313 28 20.113281 27.8125 21.53125 27.25 C 22.242188 26.96875 22.832031 26.59375 23.25 26.03125 C 23.667969 25.46875 23.875 24.765625 23.875 24.0625 C 23.875 22.839844 23.511719 21.8125 23.09375 20.78125 C 22.675781 19.75 22.183594 18.664063 21.8125 17.21875 L 21.8125 17.1875 C 21.4375 15.863281 21.6875 14.410156 21.5 12.96875 C 21.417969 12.335938 21.195313 11.660156 20.6875 11.125 C 22.105469 9.410156 23.8125 8.402344 25.28125 7.96875 L 24.71875 6.03125 C 22.890625 6.570313 20.894531 7.773438 19.25 9.71875 C 18.5625 9.046875 18.039063 8.53125 17.3125 7.8125 C 17.660156 7.46875 18.09375 7.140625 18.53125 6.84375 C 19.214844 6.382813 19.960938 6.039063 20.25 5.96875 Z M 13.21875 8.03125 C 14.226563 8.03125 14.855469 8.289063 15.21875 8.59375 C 15.601563 8.976563 16.132813 9.464844 16.875 10.1875 C 14.554688 10.589844 12.628906 12.632813 11.15625 14.8125 C 9.519531 17.238281 8.417969 19.894531 8.40625 21.875 C 7.804688 21.285156 7.246094 20.714844 6.9375 20.34375 L 6.9375 20.3125 C 6.335938 19.628906 6 18.714844 6 17.40625 C 6 16.40625 6.847656 13.816406 8.25 11.71875 C 9.652344 9.621094 11.523438 8.03125 13.21875 8.03125 Z M 17.71875 12.125 C 18.628906 12.125 19.019531 12.300781 19.1875 12.4375 C 19.355469 12.574219 19.4375 12.78125 19.5 13.25 C 19.621094 14.183594 19.394531 15.882813 19.90625 17.71875 C 19.914063 17.722656 19.902344 17.742188 19.90625 17.75 C 20.320313 19.34375 20.824219 20.558594 21.21875 21.53125 C 21.617188 22.511719 21.875 23.242188 21.875 24.0625 C 21.875 24.4375 21.796875 24.621094 21.65625 24.8125 C 21.515625 25.003906 21.25 25.21875 20.78125 25.40625 C 19.839844 25.78125 18.09375 26 15.5625 26 C 13.902344 26 12.597656 25.636719 11.75 25 C 10.902344 24.363281 10.40625 23.484375 10.40625 21.90625 C 10.40625 20.828125 11.339844 18.089844 12.8125 15.90625 C 14.285156 13.722656 16.257813 12.125 17.71875 12.125 Z M 16.9375 17.53125 C 16.257813 18.796875 16.789063 20.050781 17.09375 20.96875 C 17.246094 21.425781 17.375 21.832031 17.40625 22.0625 C 17.417969 22.15625 17.433594 22.171875 17.4375 22.1875 C 17.351563 22.261719 17.25 22.292969 17.0625 22.3125 C 16.847656 22.335938 16.53125 22.304688 16.15625 22.25 C 15.78125 22.195313 15.375 22.109375 14.90625 22.09375 C 14.4375 22.078125 13.859375 22.117188 13.34375 22.46875 L 14.46875 24.125 C 14.476563 24.117188 14.558594 24.085938 14.8125 24.09375 C 15.066406 24.101563 15.457031 24.15625 15.875 24.21875 C 16.292969 24.28125 16.753906 24.335938 17.28125 24.28125 C 17.808594 24.226563 18.410156 24.027344 18.875 23.5625 C 19.390625 23.046875 19.449219 22.308594 19.375 21.78125 C 19.300781 21.253906 19.117188 20.792969 18.96875 20.34375 C 18.671875 19.445313 18.578125 18.734375 18.71875 18.46875 Z "></path>
</g>
</svg>
