<?xml version="1.0" encoding="UTF-8"?>
<svg xmlns="http://www.w3.org/2000/svg" xmlns:xlink="http://www.w3.org/1999/xlink" viewBox="0 0 32 32" version="1.1">
<g>
<path d="M 16 4 C 15.066406 4 14.285156 4.636719 14.0625 5.5 L 10.375 6.5625 C 10.015625 6.21875 9.535156 6 9 6 C 7.894531 6 7 6.894531 7 8 C 7 8.480469 7.1875 8.90625 7.46875 9.25 L 5.6875 14.03125 C 4.730469 14.179688 4 15 4 16 C 4 17.105469 4.894531 18 6 18 C 6.316406 18 6.609375 17.910156 6.875 17.78125 L 10 19.875 C 9.996094 19.917969 10 19.957031 10 20 C 10 21.105469 10.894531 22 12 22 C 12.042969 22 12.082031 22.003906 12.125 22 L 14.21875 25.125 C 14.089844 25.390625 14 25.683594 14 26 C 14 27.105469 14.894531 28 16 28 C 17 28 17.820313 27.269531 17.96875 26.3125 L 22.75 24.53125 C 23.09375 24.8125 23.519531 25 24 25 C 25.105469 25 26 24.105469 26 23 C 26 22.429688 25.753906 21.925781 25.375 21.5625 L 26.53125 16.9375 C 27.378906 16.707031 28 15.921875 28 15 C 28 14.066406 27.363281 13.285156 26.5 13.0625 L 25.4375 9.375 C 25.78125 9.015625 26 8.535156 26 8 C 26 6.894531 25.105469 6 24 6 C 23.429688 6 22.925781 6.246094 22.5625 6.625 L 17.9375 5.46875 C 17.707031 4.621094 16.921875 4 16 4 Z M 17.4375 7.375 L 22.0625 8.53125 C 22.25 9.21875 22.808594 9.757813 23.5 9.9375 L 24.5625 13.625 C 24.21875 13.984375 24 14.464844 24 15 C 24 15.570313 24.246094 16.074219 24.625 16.4375 L 23.4375 21.09375 C 22.707031 21.308594 22.152344 21.921875 22.03125 22.6875 L 17.25 24.46875 C 16.90625 24.1875 16.480469 24 16 24 C 15.96875 24 15.9375 24 15.90625 24 L 13.8125 20.875 C 13.9375 20.613281 14 20.308594 14 20 C 14 18.894531 13.105469 18 12 18 C 11.691406 18 11.386719 18.0625 11.125 18.1875 L 8 16.09375 C 8 16.0625 8 16.03125 8 16 C 8 15.519531 7.8125 15.09375 7.53125 14.75 L 9.3125 9.96875 C 10.101563 9.84375 10.742188 9.265625 10.9375 8.5 L 14.625 7.4375 C 14.984375 7.78125 15.464844 8 16 8 C 16.570313 8 17.074219 7.753906 17.4375 7.375 Z "></path>
</g>
</svg>
