<?xml version="1.0" encoding="UTF-8"?>
<svg xmlns="http://www.w3.org/2000/svg" xmlns:xlink="http://www.w3.org/1999/xlink" viewBox="0 0 32 32" version="1.1">
<g>
<path d="M 16 3 C 8.832031 3 3 8.832031 3 16 C 3 23.167969 8.832031 29 16 29 C 23.167969 29 29 23.167969 29 16 C 29 8.832031 23.167969 3 16 3 Z M 16 5 C 18.679688 5 21.125 5.945313 23.03125 7.53125 L 20.875 9.6875 C 19.523438 8.644531 17.832031 8 16 8 C 15.304688 8 14.644531 8.113281 14 8.28125 C 13.707031 8.109375 13.363281 8 13 8 C 11.980469 8 11.15625 8.765625 11.03125 9.75 C 9.183594 11.21875 8 13.464844 8 16 C 8 17.738281 8.582031 19.339844 9.53125 20.65625 C 9.207031 21.011719 9 21.480469 9 22 C 9 23.105469 9.894531 24 11 24 C 11.640625 24 12.195313 23.6875 12.5625 23.21875 C 13.605469 23.71875 14.769531 24 16 24 C 17.738281 24 19.339844 23.417969 20.65625 22.46875 C 21.011719 22.792969 21.480469 23 22 23 C 23.105469 23 24 22.105469 24 21 C 24 20.359375 23.6875 19.804688 23.21875 19.4375 C 23.71875 18.394531 24 17.230469 24 16 C 24 14.167969 23.355469 12.476563 22.3125 11.125 L 24.46875 8.96875 C 26.054688 10.875 27 13.320313 27 16 C 27 22.085938 22.085938 27 16 27 C 9.914063 27 5 22.085938 5 16 C 5 9.914063 9.914063 5 16 5 Z M 16 10 C 17.289063 10 18.492188 10.40625 19.46875 11.09375 L 17.25 13.3125 C 16.863281 13.132813 16.449219 13 16 13 C 14.355469 13 13 14.355469 13 16 C 13 17.644531 14.355469 19 16 19 C 17.644531 19 19 17.644531 19 16 C 19 15.550781 18.867188 15.136719 18.6875 14.75 L 20.90625 12.53125 C 21.59375 13.507813 22 14.710938 22 16 C 22 17.191406 21.65625 18.320313 21.0625 19.25 C 20.613281 19.492188 20.253906 19.882813 20.09375 20.375 C 19.023438 21.378906 17.589844 22 16 22 C 14.808594 22 13.679688 21.65625 12.75 21.0625 C 12.507813 20.613281 12.117188 20.253906 11.625 20.09375 C 10.621094 19.023438 10 17.589844 10 16 C 10 14.28125 10.726563 12.746094 11.875 11.65625 C 12.195313 11.871094 12.585938 12 13 12 C 14.074219 12 14.949219 11.15625 15 10.09375 C 15.324219 10.039063 15.660156 10 16 10 Z M 16 15 C 16.5625 15 17 15.4375 17 16 C 17 16.5625 16.5625 17 16 17 C 15.4375 17 15 16.5625 15 16 C 15 15.4375 15.4375 15 16 15 Z "></path>
</g>
</svg>
