<?xml version="1.0" encoding="UTF-8"?>
<svg xmlns="http://www.w3.org/2000/svg" xmlns:xlink="http://www.w3.org/1999/xlink" viewBox="0 0 32 32" version="1.1">
<g>
<path d="M 20.75 4 C 19.894531 4 19.023438 4.285156 18.25 4.875 C 17.476563 5.464844 16.84375 6.429688 16.84375 7.625 C 16.84375 8.128906 17.132813 8.582031 17.3125 8.8125 C 17.164063 8.980469 16.980469 9.167969 16.78125 9.46875 C 16.546875 9.828125 16.28125 10.304688 16.28125 10.90625 C 16.28125 11.507813 16.59375 12.15625 17.09375 12.65625 L 18.5 11.25 C 18.273438 11.023438 18.28125 10.949219 18.28125 10.90625 C 18.28125 10.863281 18.320313 10.738281 18.4375 10.5625 C 18.554688 10.386719 18.746094 10.195313 18.9375 9.96875 C 19.035156 9.855469 19.113281 9.742188 19.21875 9.5625 C 19.324219 9.382813 19.488281 9.089844 19.375 8.625 C 19.25 8.109375 18.945313 7.734375 18.84375 7.625 C 18.84375 7.09375 19.046875 6.765625 19.4375 6.46875 C 19.828125 6.171875 20.394531 6 20.75 6 C 22.011719 6 22.660156 6.621094 22.90625 7.40625 C 23.152344 8.191406 22.96875 9.195313 21.9375 10.0625 C 17.554688 13.742188 13.375 17.21875 13.375 17.21875 L 14.65625 18.78125 C 14.65625 18.78125 18.089844 15.875 21.21875 13.25 L 21.25 13.28125 C 22.78125 11.910156 23.757813 11.808594 24.25 11.96875 C 24.742188 12.128906 25 12.617188 25 13.0625 C 25 13.527344 24.917969 13.644531 24.78125 13.75 C 24.644531 13.855469 24.265625 14 23.53125 14 C 22.734375 14 22.109375 14.476563 21.75 14.90625 C 21.390625 15.335938 21.171875 15.757813 21 16 C 20.929688 16.097656 20.925781 16.132813 20.90625 16.15625 C 20.824219 16.109375 20.648438 15.992188 20.34375 15.6875 L 18.90625 17.09375 C 19.589844 17.777344 20.234375 18.230469 21.03125 18.1875 C 21.828125 18.144531 22.335938 17.558594 22.625 17.15625 C 22.914063 16.753906 23.113281 16.390625 23.28125 16.1875 C 23.449219 15.984375 23.449219 16 23.53125 16 C 24.503906 16 25.363281 15.839844 26.03125 15.3125 C 26.699219 14.785156 27 13.910156 27 13.0625 C 27 11.808594 26.222656 10.539063 24.84375 10.09375 C 24.722656 10.054688 24.597656 10.023438 24.46875 10 C 25.003906 8.960938 25.132813 7.835938 24.8125 6.8125 C 24.316406 5.226563 22.757813 4 20.75 4 Z M 9.90625 15 C 8.488281 15.023438 7.296875 15.652344 6.5625 16.4375 C 5.640625 17.425781 5.226563 18.519531 5.09375 19.5625 C 4.960938 20.605469 5.085938 21.585938 5.1875 22.46875 C 5.289063 23.351563 5.335938 24.132813 5.21875 24.84375 C 5.101563 25.554688 4.847656 26.214844 4.125 26.9375 L 5.53125 28.34375 C 5.785156 28.089844 5.992188 27.828125 6.1875 27.5625 C 6.785156 26.964844 7.335938 26.785156 8 26.71875 C 8.664063 26.652344 9.449219 26.757813 10.3125 26.90625 C 11.175781 27.054688 12.121094 27.21875 13.125 27.15625 C 14.128906 27.09375 15.210938 26.753906 16.125 25.90625 C 17.535156 24.597656 17.960938 22.105469 16.71875 19.71875 L 15.75 20.25 C 15.71875 20.257813 15.6875 20.269531 15.65625 20.28125 L 15.625 20.28125 C 15.605469 20.289063 15.582031 20.300781 15.5625 20.3125 C 15.484375 20.335938 15.414063 20.367188 15.34375 20.40625 C 15.207031 20.496094 15.074219 20.589844 14.9375 20.65625 C 14.5 20.875 14.0625 20.964844 13.65625 20.9375 C 13.125 20.902344 12.617188 20.675781 12.09375 20.09375 C 11.566406 19.507813 11.355469 19.019531 11.3125 18.5 C 11.285156 18.148438 11.335938 17.761719 11.46875 17.34375 L 11.53125 17.21875 C 11.542969 17.191406 11.550781 17.15625 11.5625 17.125 L 12.28125 15.53125 C 11.675781 15.253906 11.09375 15.089844 10.53125 15.03125 C 10.320313 15.007813 10.109375 14.996094 9.90625 15 Z M 9.5 17 C 9.355469 17.535156 9.265625 18.09375 9.3125 18.65625 C 9.390625 19.625 9.828125 20.585938 10.59375 21.4375 C 11.417969 22.355469 12.453125 22.867188 13.5 22.9375 C 14.164063 22.980469 14.796875 22.832031 15.40625 22.59375 C 15.390625 23.449219 15.085938 24.125 14.75 24.4375 C 14.179688 24.96875 13.667969 25.144531 13 25.1875 C 12.332031 25.230469 11.53125 25.089844 10.65625 24.9375 C 9.78125 24.785156 8.800781 24.617188 7.78125 24.71875 C 7.605469 24.734375 7.425781 24.777344 7.25 24.8125 C 7.34375 23.898438 7.246094 23.039063 7.15625 22.25 C 7.054688 21.351563 6.972656 20.523438 7.0625 19.8125 C 7.152344 19.101563 7.382813 18.476563 8.03125 17.78125 C 8.359375 17.433594 8.851563 17.101563 9.5 17 Z "></path>
</g>
</svg>
