<?xml version="1.0" encoding="UTF-8"?>
<svg xmlns="http://www.w3.org/2000/svg" xmlns:xlink="http://www.w3.org/1999/xlink" viewBox="0 0 32 32" version="1.1">
<g>
<path d="M 10.5 3 C 9.671875 3 9 3.671875 9 4.5 C 9 5.328125 9.671875 6 10.5 6 C 10.695313 6 10.890625 5.945313 11.0625 5.875 L 19.875 10 L 8 10 C 6.355469 10 5 11.355469 5 13 L 5 27 L 27 27 L 27 13 C 27 11.707031 26.15625 10.605469 25 10.1875 L 11.9375 4.0625 C 11.753906 3.441406 11.179688 3 10.5 3 Z M 8 12 L 24 12 C 24.566406 12 25 12.433594 25 13 L 25 25 L 7 25 L 7 13 C 7 12.433594 7.433594 12 8 12 Z M 19.5 14 C 17.027344 14 15 16.027344 15 18.5 C 15 20.972656 17.027344 23 19.5 23 C 21.972656 23 24 20.972656 24 18.5 C 24 16.027344 21.972656 14 19.5 14 Z M 10.5 15 C 9.671875 15 9 15.671875 9 16.5 C 9 17.328125 9.671875 18 10.5 18 C 11.328125 18 12 17.328125 12 16.5 C 12 15.671875 11.328125 15 10.5 15 Z M 19.5 16 C 20.328125 16 21.046875 16.390625 21.5 17 L 17.5 17 C 17.953125 16.390625 18.671875 16 19.5 16 Z M 17.0625 18 L 21.9375 18 C 21.96875 18.164063 22 18.324219 22 18.5 C 22 18.675781 21.96875 18.835938 21.9375 19 L 17.0625 19 C 17.03125 18.835938 17 18.675781 17 18.5 C 17 18.324219 17.03125 18.164063 17.0625 18 Z M 10.5 19 C 9.671875 19 9 19.671875 9 20.5 C 9 21.328125 9.671875 22 10.5 22 C 11.328125 22 12 21.328125 12 20.5 C 12 19.671875 11.328125 19 10.5 19 Z M 17.5 20 L 21.5 20 C 21.046875 20.609375 20.328125 21 19.5 21 C 18.671875 21 17.953125 20.609375 17.5 20 Z "></path>
</g>
</svg>
