<?xml version="1.0" encoding="UTF-8"?>
<svg xmlns="http://www.w3.org/2000/svg" xmlns:xlink="http://www.w3.org/1999/xlink" viewBox="0 0 32 32" version="1.1">
<g>
<path d="M 4 6 C 2.355469 6 1 7.355469 1 9 L 1 22 L 2.1875 22 C 2.074219 22.316406 2 22.648438 2 23 C 2 24.644531 3.355469 26 5 26 C 6.644531 26 8 24.644531 8 23 C 8 22.648438 7.925781 22.316406 7.8125 22 L 8.1875 22 C 8.074219 22.316406 8 22.648438 8 23 C 8 24.644531 9.355469 26 11 26 C 12.644531 26 14 24.644531 14 23 C 14 22.648438 13.925781 22.316406 13.8125 22 L 18.1875 22 C 18.074219 22.316406 18 22.648438 18 23 C 18 24.644531 19.355469 26 21 26 C 22.644531 26 24 24.644531 24 23 C 24 22.648438 23.925781 22.316406 23.8125 22 L 24.1875 22 C 24.074219 22.316406 24 22.648438 24 23 C 24 24.644531 25.355469 26 27 26 C 28.644531 26 30 24.644531 30 23 C 30 22.648438 29.925781 22.316406 29.8125 22 L 31 22 L 31 9 C 31 7.355469 29.644531 6 28 6 Z M 4 8 L 8 8 L 8 13 L 3 13 L 3 9 C 3 8.433594 3.433594 8 4 8 Z M 10 8 L 15 8 L 15 13 L 10 13 Z M 17 8 L 22 8 L 22 13 L 17 13 Z M 24 8 L 28 8 C 28.566406 8 29 8.433594 29 9 L 29 13 L 24 13 Z M 3 15 L 29 15 L 29 20 L 3 20 Z M 5 22 C 5.5625 22 6 22.4375 6 23 C 6 23.5625 5.5625 24 5 24 C 4.4375 24 4 23.5625 4 23 C 4 22.4375 4.4375 22 5 22 Z M 11 22 C 11.5625 22 12 22.4375 12 23 C 12 23.5625 11.5625 24 11 24 C 10.4375 24 10 23.5625 10 23 C 10 22.4375 10.4375 22 11 22 Z M 21 22 C 21.5625 22 22 22.4375 22 23 C 22 23.5625 21.5625 24 21 24 C 20.4375 24 20 23.5625 20 23 C 20 22.4375 20.4375 22 21 22 Z M 27 22 C 27.5625 22 28 22.4375 28 23 C 28 23.5625 27.5625 24 27 24 C 26.4375 24 26 23.5625 26 23 C 26 22.4375 26.4375 22 27 22 Z "></path>
</g>
</svg>
