<?xml version="1.0" encoding="UTF-8"?>
<svg xmlns="http://www.w3.org/2000/svg" xmlns:xlink="http://www.w3.org/1999/xlink" viewBox="0 0 32 32" version="1.1">
<g>
<path d="M 16 3 L 5 6 L 5 8 L 16 5 L 27 8 L 27 6 Z M 14 7 C 12.742188 7 11.847656 7.890625 11.40625 9 L 11 9 C 8.25 9 6 11.25 6 14 L 6 23 C 6 25.15625 7.15625 27.066406 8.875 28.125 L 7 30 L 9.34375 30 L 10.53125 28.8125 C 11 28.929688 11.496094 29 12 29 L 20 29 C 20.503906 29 21 28.929688 21.46875 28.8125 L 22.65625 30 L 25 30 L 23.125 28.125 C 24.84375 27.066406 26 25.15625 26 23 L 26 14 C 26 11.25 23.75 9 21 9 L 20.59375 9 C 20.152344 7.890625 19.257813 7 18 7 Z M 14 9 L 18 9 C 18.566406 9 19 9.433594 19 10 L 19 11 L 21 11 C 22.320313 11 23.4375 11.828125 23.84375 13 L 8.15625 13 C 8.5625 11.828125 9.679688 11 11 11 L 13 11 L 13 10 C 13 9.433594 13.433594 9 14 9 Z M 8 15 L 24 15 L 24 19 L 8 19 Z M 8 21 L 24 21 L 24 23 C 24 25.21875 22.21875 27 20 27 L 12 27 C 9.78125 27 8 25.21875 8 23 Z M 16 22 C 14.894531 22 14 22.894531 14 24 C 14 25.105469 14.894531 26 16 26 C 17.105469 26 18 25.105469 18 24 C 18 22.894531 17.105469 22 16 22 Z "></path>
</g>
</svg>
