<?xml version="1.0"?>
<svg xmlns="http://www.w3.org/2000/svg" viewBox="0 0 32 32">
    <path d="M 8 6 L 8 8 L 3 8 L 3 10 L 8 10 L 8 12 L 3 12 L 3 14 L 8 14 L 8 16 L 3 16 L 3 18 L 8 18 L 8 20 L 2 20 L 2 19 L 0 19 L 0 23 L 2 23 L 2 22 L 5.7871094 22 C 5.3041301 22.533349 5 23.231397 5 24 C 5 25.64501 6.3549904 27 8 27 C 9.6450096 27 11 25.64501 11 24 C 11 23.231397 10.69587 22.533349 10.212891 22 L 21.787109 22 C 21.30413 22.533349 21 23.231397 21 24 C 21 25.64501 22.35499 27 24 27 C 25.64501 27 27 25.64501 27 24 C 27 23.231397 26.69587 22.533349 26.212891 22 L 30 22 L 30 23 L 32 23 L 32 19 L 30 19 L 30 20 L 24 20 L 24 6 L 22 6 L 22 8 L 18 8 L 18 10 L 22 10 L 22 12 L 18 12 L 18 14 L 22 14 L 22 16 L 18 16 L 18 18 L 22 18 L 22 20 L 17 20 L 17 6 L 15 6 L 15 8 L 11 8 L 11 10 L 15 10 L 15 12 L 11 12 L 11 14 L 15 14 L 15 16 L 11 16 L 11 18 L 15 18 L 15 20 L 10 20 L 10 6 L 8 6 z M 25 8 L 25 10 L 29 10 L 29 8 L 25 8 z M 25 12 L 25 14 L 29 14 L 29 12 L 25 12 z M 25 16 L 25 18 L 29 18 L 29 16 L 25 16 z M 8 23 C 8.5641294 23 9 23.435871 9 24 C 9 24.564129 8.5641294 25 8 25 C 7.4358706 25 7 24.564129 7 24 C 7 23.435871 7.4358706 23 8 23 z M 24 23 C 24.564129 23 25 23.435871 25 24 C 25 24.564129 24.564129 25 24 25 C 23.435871 25 23 24.564129 23 24 C 23 23.435871 23.435871 23 24 23 z"></path>
</svg>
