<?xml version="1.0"?>
<svg xmlns="http://www.w3.org/2000/svg" viewBox="0 0 32 32">
    <path d="M 10.007812 4.8554688 L 8.3164062 5.0214844 C 4.7776553 5.3686035 2 8.3541712 2 11.978516 C 2 14.207412 3.0497795 16.200102 4.6796875 17.484375 C 4.2475384 18.223771 4 19.083604 4 20 C 4 22.757 6.243 25 9 25 L 10.169922 25 C 10.348922 24.371 10.657297 23.684 11.029297 23 L 9 23 C 7.346 23 6 21.654 6 20 C 6 18.346 7.346 17 9 17 L 10 17 L 10 16 C 10 14.897 10.897156 13.999141 11.910156 13.994141 L 12.910156 14.046875 L 13.080078 13.207031 C 13.454078 11.348031 15.103 10 17 10 C 18.605 10 20.048687 10.955594 20.679688 12.433594 L 20.96875 13.111328 L 21.865234 13.015625 C 21.909234 13.008625 21.954 13 22 13 C 23.654 13 25.000906 14.346641 25.003906 15.931641 L 24.960938 16.908203 L 25.738281 17.107422 C 27.069281 17.446422 28 18.636 28 20 C 28 21.654 26.654 23 25 23 L 24 23 C 24 23.732 23.787359 24.409 23.443359 25 L 25 25 C 27.757 25 30 22.757 30 20 C 30 17.981 28.785797 16.191016 26.966797 15.416016 C 26.683797 12.998016 24.667266 11.100906 22.197266 11.003906 C 21.135266 9.1579062 19.166 8 17 8 C 14.559646 8 12.41058 9.4951896 11.488281 11.675781 C 10.03143 11.080678 9 9.6769936 9 8 C 9 7.4356431 9.1198113 6.9028118 9.3320312 6.4140625 L 10.007812 4.8554688 z M 7.1210938 7.4140625 C 7.0999083 7.6169782 7 7.7916268 7 8 C 7 10.011103 8.0085246 11.779011 9.5371094 12.863281 C 8.8371131 13.414183 8.3187951 14.185496 8.1074219 15.080078 C 7.3362891 15.219563 6.6363639 15.549649 6.03125 16 C 4.8010666 15.089067 4 13.634737 4 11.978516 C 4 9.8814889 5.3014898 8.1583803 7.1210938 7.4140625 z M 20 19 C 20 19 18 21.895 18 23 C 18 24.105 18.895 25 20 25 C 20.138125 25 20.272119 24.985615 20.402344 24.958984 C 21.313916 24.772568 22 23.966875 22 23 C 22 21.895 20 19 20 19 z M 14 22 C 14 22 13.704743 22.447476 13.361328 23 L 13.351562 23 C 13.294101 23.092786 13.231814 23.206757 13.171875 23.306641 C 13.087128 23.44752 13.021447 23.560517 12.935547 23.710938 C 12.762755 24.013707 12.611576 24.30948 12.464844 24.615234 C 12.405844 24.737707 12.337237 24.859139 12.287109 24.976562 C 12.283898 24.984089 12.27856 24.9925 12.275391 25 L 12.277344 25 C 12.113278 25.388417 12 25.744812 12 26 C 12 27.105 12.895 28 14 28 C 15.105 28 16 27.105 16 26 C 16 25.744812 15.886722 25.388417 15.722656 25 L 15.724609 25 C 15.72144 24.9925 15.716102 24.984089 15.712891 24.976562 C 15.662763 24.859139 15.594156 24.737707 15.535156 24.615234 C 15.388303 24.30948 15.237271 24.013707 15.064453 23.710938 C 14.978553 23.560517 14.912872 23.44752 14.828125 23.306641 C 14.768256 23.206757 14.705742 23.092786 14.648438 23 L 14.638672 23 C 14.295257 22.447476 14 22 14 22 z"></path>
</svg>
