<?xml version="1.0"?>
<svg xmlns="http://www.w3.org/2000/svg" viewBox="0 0 32 32">
    <path d="M 16 2.9296875 L 15.191406 4.0351562 C 15.191406 4.0351562 13.170307 6.8027974 11.144531 10.136719 C 10.131643 11.803679 9.1159899 13.614343 8.3398438 15.320312 C 7.5636975 17.026283 7 18.593704 7 20 C 7 24.958516 11.041484 29 16 29 C 20.958516 29 25 24.958516 25 20 C 25 18.593704 24.436302 17.026283 23.660156 15.320312 C 22.88401 13.614343 21.868357 11.803679 20.855469 10.136719 C 18.829693 6.8027974 16.808594 4.0351562 16.808594 4.0351562 L 16 2.9296875 z M 16 6.4335938 C 16.577811 7.2433821 17.574003 8.5910852 19.144531 11.175781 C 20.131643 12.800321 21.11599 14.557407 21.839844 16.148438 C 22.563698 17.739467 23 19.197296 23 20 C 23 23.877484 19.877484 27 16 27 C 12.122516 27 9 23.877484 9 20 C 9 19.197296 9.4363027 17.739467 10.160156 16.148438 C 10.88401 14.557406 11.868357 12.800321 12.855469 11.175781 C 14.425997 8.5910853 15.422189 7.2433821 16 6.4335938 z M 13.5 18 C 11.5 18 11 20 11 20 C 11 22.761 13.239 25 16 25 C 18.761 25 21 22.761 21 20 C 21 20 20.125 21 19 21 C 16.5 21 15.5 18 13.5 18 z" font-weight="400" font-family="sans-serif" white-space="normal" overflow="visible"></path>
</svg>
