<?xml version="1.0" encoding="UTF-8"?>
<svg xmlns="http://www.w3.org/2000/svg" xmlns:xlink="http://www.w3.org/1999/xlink" viewBox="0 0 32 32" version="1.1">
<g>
<path d="M 18.46875 2.90625 L 17.8125 3 C 13.445313 3.648438 9.96875 7.445313 9.96875 12 C 9.96875 16.976563 13.992188 21 18.96875 21 C 21.824219 21 24.15625 19.734375 25.78125 17.65625 L 26.25 17.0625 L 25.8125 16.46875 L 25.78125 16.4375 L 25.3125 15.75 L 24.5625 16.09375 C 23.707031 16.484375 23.210938 16.59375 22.1875 16.59375 C 18.578125 16.59375 15.6875 13.671875 15.6875 10.0625 C 15.6875 7.945313 16.929688 6.054688 18.59375 4.84375 L 19.34375 4.28125 L 18.84375 3.5 L 18.8125 3.46875 Z M 24 4.875 L 23.125 6.6875 L 22.4375 8.0625 L 20.875 8.3125 L 18.875 8.59375 L 20.3125 10.03125 L 21.4375 11.125 L 21.1875 12.65625 L 20.84375 14.65625 L 22.625 13.71875 L 24 13 L 25.40625 13.71875 L 27.1875 14.65625 L 26.84375 12.65625 L 26.59375 11.125 L 27.71875 10.03125 L 29.15625 8.59375 L 27.15625 8.3125 L 25.59375 8.0625 Z M 14.46875 6.84375 C 14.011719 7.835938 13.6875 8.894531 13.6875 10.0625 C 13.6875 14.507813 17.148438 18.066406 21.5 18.4375 C 20.742188 18.75 19.9375 19 18.96875 19 C 15.058594 19 11.96875 15.910156 11.96875 12 C 11.96875 9.929688 12.996094 8.148438 14.46875 6.84375 Z M 24 9.375 L 24.03125 9.4375 L 24.28125 9.90625 L 24.78125 10 L 24.875 10 L 24.8125 10.0625 L 24.4375 10.40625 L 24.53125 10.9375 L 24.53125 11 L 24.46875 10.96875 L 24 10.71875 L 23.5625 10.96875 L 23.5 11 L 23.5 10.9375 L 23.59375 10.40625 L 23.21875 10.0625 L 23.15625 10 L 23.21875 10 L 23.75 9.90625 L 23.96875 9.4375 Z M 10.40625 20.0625 C 9.378906 20.066406 8.59375 20.3125 8.59375 20.3125 L 8.5625 20.3125 L 8.53125 20.34375 L 3.8125 22.15625 L 2.875 22.5 L 3.21875 23.40625 L 4.53125 27.09375 L 4.875 28.0625 L 5.84375 27.71875 L 9.8125 26.1875 L 16.53125 29.875 L 16.9375 30.09375 L 17.375 29.9375 L 29.25 25 L 28.5 23.15625 L 17.03125 27.875 L 10.375 24.21875 L 9.96875 23.96875 L 9.53125 24.15625 L 6.0625 25.46875 L 5.4375 23.6875 L 9.21875 22.21875 C 9.21875 22.21875 9.703125 22.0625 10.40625 22.0625 C 11.109375 22.0625 11.921875 22.210938 12.625 22.84375 C 13.65625 23.738281 14.449219 24.378906 15.53125 24.71875 C 16.613281 25.058594 17.824219 25.101563 19.875 25.09375 L 19.875 23.09375 C 17.863281 23.101563 16.8125 23.027344 16.125 22.8125 C 15.445313 22.597656 14.953125 22.195313 13.96875 21.34375 C 13.960938 21.335938 13.945313 21.351563 13.9375 21.34375 C 12.78125 20.3125 11.425781 20.058594 10.40625 20.0625 Z "></path>
</g>
</svg>
