<?xml version="1.0" encoding="UTF-8"?>
<svg xmlns="http://www.w3.org/2000/svg" xmlns:xlink="http://www.w3.org/1999/xlink" viewBox="0 0 32 32" version="1.1">
<g>
<path d="M 14.8125 3.9375 L 14.4375 4.15625 L 11.4375 6.15625 L 11.03125 6.4375 L 11 6.9375 C 10.214844 18.238281 3.40625 23.1875 3.40625 23.1875 L 1.9375 24.28125 L 3.65625 24.9375 L 16.5625 29.90625 L 17.0625 30.15625 L 17.53125 29.84375 L 28.53125 22.84375 L 29 22.5625 L 29 7.21875 L 28.21875 7.03125 Z M 15.21875 6.0625 L 25.59375 8.46875 L 24.8125 8.9375 L 14.5 6.5625 Z M 12.875 8.21875 L 23.90625 10.78125 C 23.308594 16.902344 21.46875 21.21875 19.75 24.03125 C 18.476563 26.113281 17.351563 27.300781 16.78125 27.84375 L 5.84375 23.625 C 7.933594 21.527344 11.972656 16.484375 12.875 8.21875 Z M 27 9.9375 L 27 21.46875 L 21.59375 24.90625 C 23.453125 21.804688 25.359375 17.074219 25.9375 10.59375 Z "></path>
</g>
</svg>
