<?xml version="1.0" encoding="UTF-8"?>
<svg xmlns="http://www.w3.org/2000/svg" xmlns:xlink="http://www.w3.org/1999/xlink" viewBox="0 0 32 32" version="1.1">
<g>
<path d="M 18 20 L 18 19 L 16.050781 13 L 15.949219 13 L 14 19 L 14 20 "></path>
<path d="M 14.390625 18 L 17.609375 18 "></path>
<path d="M 8 16 L 9.5 16 C 10.328125 16 11 15.328125 11 14.5 C 11 13.671875 10.328125 13 9.5 13 L 8 13 L 8 20 "></path>
<path d="M 10.6875 16.019531 L 8.6875 16.019531 L 10 20 L 12 20 Z "></path>
<path d="M 21 16 L 22.5 16 C 23.328125 16 24 15.328125 24 14.5 C 24 13.671875 23.328125 13 22.5 13 L 21 13 L 21 20 "></path>
<path d="M 23.6875 16.019531 L 21.6875 16.019531 L 23 20 L 25 20 Z "></path>
<path d="M 25 22 L 25 28 L 7 28 L 7 22 "></path>
<path d="M 7 10 L 7 4 L 25 4 L 25 10 "></path>
</g>
</svg>
