<?xml version="1.0" encoding="UTF-8"?>
<svg xmlns="http://www.w3.org/2000/svg" xmlns:xlink="http://www.w3.org/1999/xlink" viewBox="0 0 32 32" version="1.1">
<g>
<path d="M 17.5 4.125 C 16.054688 4.957031 15 6.742188 15 9 L 17 9 C 17 7.371094 17.777344 6.292969 18.5 5.875 Z M 9 6 C 9 7.027344 9.398438 8.1875 9.90625 9.125 C 10.257813 9.046875 10.625 9 11 9 C 11.898438 9 12.746094 9.246094 13.5 9.6875 C 13.664063 9.59375 13.859375 9.515625 14.03125 9.4375 C 14.03125 7.558594 10.21875 7.445313 9 6 Z M 22 6.25 C 20.878906 7.371094 19.429688 8.121094 18 8.5 C 18.429688 8.71875 18.964844 9.003906 19.46875 9.25 C 19.960938 9.089844 20.464844 9 21 9 C 21.171875 9 21.332031 9.046875 21.5 9.0625 C 21.507813 9.042969 21.523438 9.019531 21.53125 9 C 21.820313 8.261719 22 7.320313 22 6.25 Z M 8 10 C 5.800781 10 4 11.800781 4 14 C 4 15.246094 4.597656 16.359375 5.5 17.09375 C 5.1875 17.664063 5 18.304688 5 19 C 5 20.480469 5.824219 21.777344 7.03125 22.46875 C 7.007813 22.644531 7 22.816406 7 23 C 7 25.199219 8.800781 27 11 27 C 11.691406 27 12.339844 26.816406 12.90625 26.5 C 13.640625 27.402344 14.753906 28 16 28 C 17.246094 28 18.359375 27.402344 19.09375 26.5 C 19.660156 26.816406 20.308594 27 21 27 C 23.199219 27 25 25.199219 25 23 C 25 22.816406 24.992188 22.644531 24.96875 22.46875 C 26.175781 21.777344 27 20.480469 27 19 C 27 18.304688 26.8125 17.664063 26.5 17.09375 C 27.402344 16.359375 28 15.246094 28 14 C 28 11.800781 26.199219 10 24 10 C 23.488281 10 23.003906 10.136719 22.5625 10.3125 C 22.085938 10.109375 21.550781 10 21 10 C 20.046875 10 19.160156 10.347656 18.46875 10.90625 C 17.78125 10.355469 16.941406 10 16 10 C 15.058594 10 14.21875 10.355469 13.53125 10.90625 C 12.839844 10.347656 11.953125 10 11 10 C 10.460938 10 9.9375 10.117188 9.46875 10.3125 C 9.023438 10.128906 8.519531 10 8 10 Z M 11 12 C 11.503906 12 11.9375 12.195313 12.28125 12.5 C 12.09375 12.960938 12 13.476563 12 14 C 12 14.523438 12.09375 15.039063 12.28125 15.5 C 11.9375 15.804688 11.503906 16 11 16 C 9.882813 16 9 15.117188 9 14 C 9 12.882813 9.882813 12 11 12 Z M 16 12 C 17.117188 12 18 12.882813 18 14 C 18 15.117188 17.117188 16 16 16 C 14.882813 16 14 15.117188 14 14 C 14 12.882813 14.882813 12 16 12 Z M 21 12 C 22.117188 12 23 12.882813 23 14 C 23 15.117188 22.117188 16 21 16 C 20.496094 16 20.0625 15.804688 19.71875 15.5 C 19.90625 15.039063 20 14.523438 20 14 C 20 13.476563 19.90625 12.960938 19.71875 12.5 C 20.0625 12.195313 20.496094 12 21 12 Z M 7.53125 12.0625 C 7.203125 12.640625 7 13.292969 7 14 C 7 14.707031 7.203125 15.359375 7.53125 15.9375 C 6.648438 15.726563 6 14.953125 6 14 C 6 13.046875 6.648438 12.273438 7.53125 12.0625 Z M 24.46875 12.0625 C 25.351563 12.273438 26 13.046875 26 14 C 26 14.953125 25.351563 15.726563 24.46875 15.9375 C 24.796875 15.359375 25 14.707031 25 14 C 25 13.292969 24.796875 12.640625 24.46875 12.0625 Z M 13.53125 17.09375 C 13.835938 17.335938 14.132813 17.570313 14.5 17.71875 C 14.800781 18.066406 15 18.5 15 19 C 15 20.117188 14.117188 21 13 21 C 11.882813 21 11 20.117188 11 19 C 11 18.617188 11.097656 18.269531 11.28125 17.96875 C 12.128906 17.90625 12.90625 17.59375 13.53125 17.09375 Z M 18.46875 17.09375 C 19.089844 17.59375 19.878906 17.910156 20.71875 17.96875 C 20.902344 18.269531 21 18.617188 21 19 C 21 20.117188 20.117188 21 19 21 C 17.882813 21 17 20.117188 17 19 C 17 18.5 17.199219 18.066406 17.5 17.71875 C 17.867188 17.570313 18.164063 17.335938 18.46875 17.09375 Z M 22.78125 17.75 C 23.167969 17.886719 23.566406 18 24 18 C 24.230469 18 24.464844 17.976563 24.6875 17.9375 C 24.878906 18.246094 25 18.605469 25 19 C 25 20.117188 24.117188 21 23 21 C 22.824219 21 22.664063 20.953125 22.5 20.90625 C 22.8125 20.335938 23 19.691406 23 19 C 23 18.566406 22.910156 18.148438 22.78125 17.75 Z M 9.21875 17.78125 C 9.09375 18.171875 9 18.574219 9 19 C 9 19.691406 9.1875 20.335938 9.5 20.90625 C 9.335938 20.953125 9.175781 21 9 21 C 7.882813 21 7 20.117188 7 19 C 7 18.605469 7.121094 18.246094 7.3125 17.9375 C 7.535156 17.976563 7.769531 18 8 18 C 8.429688 18 8.839844 17.910156 9.21875 17.78125 Z M 16 21.59375 C 16.410156 22.066406 16.910156 22.445313 17.5 22.6875 C 17.8125 23.039063 18 23.492188 18 24 C 18 25.117188 17.117188 26 16 26 C 14.882813 26 14 25.117188 14 24 C 14 23.492188 14.1875 23.039063 14.5 22.6875 C 15.089844 22.445313 15.589844 22.066406 16 21.59375 Z M 11 22.4375 C 11.371094 22.65625 11.753906 22.816406 12.1875 22.90625 C 12.082031 23.257813 12 23.613281 12 24 C 12 24.234375 12.054688 24.464844 12.09375 24.6875 C 11.785156 24.890625 11.402344 25 11 25 C 9.882813 25 9 24.117188 9 23 C 9.738281 23 10.414063 22.785156 11 22.4375 Z M 21 22.4375 C 21.585938 22.785156 22.261719 23 23 23 C 23 24.117188 22.117188 25 21 25 C 20.597656 25 20.214844 24.890625 19.90625 24.6875 C 19.945313 24.464844 20 24.234375 20 24 C 20 23.613281 19.917969 23.257813 19.8125 22.90625 C 20.234375 22.8125 20.632813 22.652344 21 22.4375 Z "></path>
</g>
</svg>
