<?xml version="1.0" encoding="UTF-8"?>
<svg xmlns="http://www.w3.org/2000/svg" xmlns:xlink="http://www.w3.org/1999/xlink" viewBox="0 0 32 32" version="1.1">
<g>
<path d="M 20.5 3 C 15.816406 3 12 6.816406 12 11.5 C 12 12.472656 12.167969 13.410156 12.46875 14.28125 L 12.375 14.625 C 12.375 14.625 11.605469 17.050781 10.375 18.28125 C 9.738281 18.917969 8.488281 19.632813 7.28125 20.25 C 6.074219 20.867188 4.960938 21.289063 4.1875 22.0625 C 2.609375 23.640625 2.609375 26.234375 4.1875 27.8125 C 5.761719 29.386719 8.359375 29.390625 9.9375 27.8125 C 10.710938 27.039063 11.136719 25.925781 11.75 24.71875 C 12.363281 23.511719 13.046875 22.265625 13.6875 21.625 C 14.910156 20.402344 17.375 19.625 17.375 19.625 L 17.71875 19.53125 C 18.589844 19.832031 19.527344 20 20.5 20 C 23.160156 20 25.535156 18.765625 27.09375 16.84375 C 28.28125 15.382813 29 13.523438 29 11.5 C 29 10.257813 28.730469 9.066406 28.25 8 C 28.722656 7.46875 29 6.757813 29 6 C 29 4.355469 27.644531 3 26 3 C 25.242188 3 24.53125 3.277344 24 3.75 C 22.933594 3.273438 21.742188 3 20.5 3 Z M 20.5 5 C 21.414063 5 22.273438 5.191406 23.0625 5.53125 C 23.035156 5.6875 23 5.835938 23 6 C 23 7.644531 24.355469 9 26 9 C 26.164063 9 26.3125 8.964844 26.46875 8.9375 C 26.804688 9.722656 27 10.589844 27 11.5 C 27 12.988281 26.523438 14.34375 25.6875 15.4375 L 25.65625 15.40625 C 25.667969 15.394531 25.648438 15.382813 25.65625 15.375 C 25.601563 15.390625 25.488281 15.414063 25.3125 15.40625 C 24.960938 15.390625 24.453125 15.292969 23.84375 15.0625 C 22.625 14.601563 21.09375 13.65625 19.71875 12.28125 C 18.339844 10.902344 17.378906 9.398438 16.90625 8.1875 C 16.671875 7.582031 16.582031 7.03125 16.5625 6.6875 C 16.542969 6.34375 16.640625 6.265625 16.53125 6.375 C 17.632813 5.515625 18.988281 5 20.5 5 Z M 26 5 C 26.5625 5 27 5.4375 27 6 C 27 6.5625 26.5625 7 26 7 C 25.4375 7 25 6.5625 25 6 C 25 5.871094 25.019531 5.738281 25.0625 5.625 C 25.070313 5.601563 25.082031 5.585938 25.09375 5.5625 C 25.105469 5.53125 25.117188 5.5 25.125 5.46875 C 25.296875 5.179688 25.628906 5 26 5 Z M 14.875 8.28125 C 14.9375 8.484375 14.980469 8.691406 15.0625 8.90625 C 15.648438 10.414063 16.707031 12.144531 18.28125 13.71875 C 19.859375 15.296875 21.605469 16.363281 23.125 16.9375 C 23.339844 17.019531 23.542969 17.066406 23.75 17.125 C 22.792969 17.679688 21.691406 18 20.5 18 C 17.875 18 15.621094 16.449219 14.59375 14.21875 C 14.210938 13.390625 14 12.476563 14 11.5 C 14 10.316406 14.328125 9.234375 14.875 8.28125 Z M 13.75 16.65625 C 14.210938 17.257813 14.742188 17.789063 15.34375 18.25 C 14.414063 18.648438 13.226563 19.273438 12.28125 20.21875 C 11.292969 21.207031 10.597656 22.574219 9.96875 23.8125 C 9.339844 25.050781 8.679688 26.226563 8.5 26.40625 C 7.6875 27.21875 6.40625 27.21875 5.59375 26.40625 C 4.78125 25.59375 4.78125 24.3125 5.59375 23.5 C 5.773438 23.320313 6.949219 22.664063 8.1875 22.03125 C 9.425781 21.398438 10.796875 20.703125 11.78125 19.71875 C 12.726563 18.773438 13.34375 17.585938 13.75 16.65625 Z "></path>
</g>
</svg>
