<?xml version="1.0" encoding="UTF-8"?>
<svg xmlns="http://www.w3.org/2000/svg" xmlns:xlink="http://www.w3.org/1999/xlink" viewBox="0 0 32 32" version="1.1">
<g>
<path d="M 15.40625 9 C 13.597656 9 11.902344 9.554688 10.46875 10.4375 L 6.375 13 L 2 13 L 2 15 L 6.9375 15 L 7.1875 14.84375 L 11.53125 12.15625 C 12.695313 11.4375 14.015625 11 15.40625 11 L 21 11 L 21 21 L 19 21 L 19 12 L 17 12 L 17 21 L 15.40625 21 C 14.015625 21 12.695313 20.5625 11.53125 19.84375 L 7.1875 17.15625 L 7 17.03125 L 7 16 L 5 16 L 5 17 L 2 17 L 2 19 L 6.375 19 L 10.46875 21.5625 C 11.902344 22.445313 13.597656 23 15.40625 23 L 23 23 L 23 20 L 28 20 L 28 17 L 30 17 L 30 15 L 28 15 L 28 12 L 23 12 L 23 9 Z M 23 14 L 26 14 L 26 18 L 23 18 Z "></path>
</g>
</svg>
