<?xml version="1.0"?>
<svg xmlns="http://www.w3.org/2000/svg" viewBox="0 0 32 32">
    <path d="M 16 2.9902344 L 11.380859 6 L 9 6 L 9 7.5488281 L 3 11.457031 L 3 29 L 29 29 L 29 11.457031 L 23 7.5507812 L 23 6 L 20.517578 6 L 20.548828 5.953125 L 16 2.9902344 z M 16 5.3769531 L 16.957031 6 L 15.044922 6 L 16 5.3769531 z M 11 8 L 21 8 L 21 15.34375 L 16 18.582031 L 11 15.34375 L 11 8 z M 9 9.9375 L 9 14.046875 L 5.8359375 11.998047 L 9 9.9375 z M 23 9.9375 L 26.164062 11.998047 L 23 14.046875 L 23 9.9375 z M 13 10 L 13 12 L 19 12 L 19 10 L 13 10 z M 5 13.839844 L 16 20.964844 L 27 13.839844 L 27 27 L 5 27 L 5 13.839844 z M 13 14 L 13 16 L 19 16 L 19 14 L 13 14 z" font-weight="400" font-family="sans-serif" white-space="normal" overflow="visible"></path>
</svg>
