<?xml version="1.0" encoding="UTF-8"?>
<svg xmlns="http://www.w3.org/2000/svg" xmlns:xlink="http://www.w3.org/1999/xlink" viewBox="0 0 32 32" version="1.1">
<g>
<path d="M 16 4 C 12.699219 4 10 6.699219 10 10 C 10 11.9375 10.941406 13.652344 12.375 14.75 C 10.765625 15.453125 9.433594 16.644531 8.46875 18.125 C 7.621094 18.414063 6.980469 19.246094 7.125 20.21875 L 7.09375 20.21875 L 7.34375 22.09375 C 6.015625 22.402344 5 23.585938 5 25 C 5 26.644531 6.355469 28 8 28 L 24 28 C 25.644531 28 27 26.644531 27 25 C 27 23.539063 25.921875 22.320313 24.53125 22.0625 L 24.78125 20.25 C 24.78125 20.238281 24.78125 20.230469 24.78125 20.21875 C 24.917969 19.304688 24.363281 18.523438 23.59375 18.1875 C 22.628906 16.71875 21.265625 15.511719 19.625 14.78125 C 21.066406 13.683594 22 11.945313 22 10 C 22 6.699219 19.300781 4 16 4 Z M 16 6 C 18.222656 6 20 7.777344 20 10 C 20 12.222656 18.222656 14 16 14 C 13.777344 14 12 12.222656 12 10 C 12 7.777344 13.777344 6 16 6 Z M 16 16 C 17.890625 16 19.609375 16.78125 20.875 18 L 11.0625 18 C 12.332031 16.738281 14.066406 16 16 16 Z M 9.09375 20 L 22.8125 20 L 22 25.96875 L 22 26 L 9.90625 26 C 9.917969 26 9.90625 25.972656 9.90625 25.96875 Z M 21 21 C 20.449219 21 20 21.449219 20 22 C 20 22.550781 20.449219 23 21 23 C 21.550781 23 22 22.550781 22 22 C 22 21.449219 21.550781 21 21 21 Z M 24.28125 24.0625 C 24.691406 24.1875 25 24.546875 25 25 C 25 25.554688 24.554688 26 24 26 Z M 7.625 24.09375 L 7.875 25.96875 C 7.386719 25.902344 7 25.507813 7 25 C 7 24.585938 7.265625 24.246094 7.625 24.09375 Z "></path>
</g>
</svg>
