<?xml version="1.0" encoding="UTF-8"?>
<svg xmlns="http://www.w3.org/2000/svg" xmlns:xlink="http://www.w3.org/1999/xlink" viewBox="0 0 32 32" version="1.1">
<g>
<path d="M 16 4 L 16 12 L 20.4375 12 C 20.457031 12.03125 20.445313 12.03125 20.46875 12.0625 C 20.722656 12.421875 21.144531 13 22 13 C 22.855469 13 23.277344 12.421875 23.53125 12.0625 C 23.554688 12.03125 23.542969 12.03125 23.5625 12 L 28 12 L 28 4 L 23 4 C 22.558594 4 22.25 4.179688 22 4.375 C 21.992188 4.371094 21.976563 4.378906 21.96875 4.375 C 21.75 4.203125 21.445313 4 21 4 Z M 10 6 C 7.800781 6 6 7.800781 6 10 C 6 10.355469 6.066406 10.703125 6.15625 11.03125 C 4.9375 11.199219 4 12.234375 4 13.5 L 4 28 L 9 28 L 9 26 L 23 26 L 23 28 L 28 28 L 28 18 C 28 16.355469 26.644531 15 25 15 L 13.625 15 L 12.625 12.96875 C 13.453125 12.234375 14 11.183594 14 10 C 14 7.800781 12.199219 6 10 6 Z M 18 6 L 20.8125 6 C 20.839844 6.03125 20.839844 6.046875 20.875 6.09375 C 20.941406 6.183594 20.960938 6.214844 21 6.28125 L 21 10 L 18 10 Z M 23.15625 6 L 26 6 L 26 10 L 23 10 L 23 6.25 C 23.027344 6.1875 23.035156 6.148438 23.09375 6.0625 C 23.125 6.015625 23.140625 6.007813 23.15625 6 Z M 10 8 C 11.117188 8 12 8.882813 12 10 C 12 11.117188 11.117188 12 10 12 C 8.882813 12 8 11.117188 8 10 C 8 8.882813 8.882813 8 10 8 Z M 6.5 13 C 6.714844 13 7 13.285156 7 13.5 L 7 22 L 26 22 L 26 26 L 25 26 L 25 24 L 7 24 L 7 26 L 6 26 L 6 13.5 C 6 13.285156 6.285156 13 6.5 13 Z M 9 13.84375 C 9.320313 13.925781 9.65625 14 10 14 C 10.273438 14 10.554688 13.960938 10.8125 13.90625 L 12 16.25 L 12 20 L 9 20 Z M 14 17 L 25 17 C 25.554688 17 26 17.445313 26 18 L 26 20 L 14 20 Z "></path>
</g>
</svg>
