<?xml version="1.0" encoding="UTF-8"?>
<svg xmlns="http://www.w3.org/2000/svg" xmlns:xlink="http://www.w3.org/1999/xlink" viewBox="0 0 32 32" version="1.1">
<g>
<path d="M 15 3 L 15 4.148438 C 14.238281 4.335938 13.574219 4.71875 13.113281 5.234375 C 11.234375 5.375 10 6.324219 10 7.703125 C 10 8.269531 10.273438 8.6875 10.644531 9 C 12.226563 8.101563 14.050781 7.582031 16 7.582031 C 17.949219 7.582031 19.773438 8.101563 21.355469 9 C 21.726563 8.6875 22 8.269531 22 7.703125 C 22 6.324219 20.765625 5.375 18.886719 5.234375 C 18.425781 4.71875 17.761719 4.335938 17 4.148438 L 17 3 Z M 16 9 C 10.476563 9 6 13.476563 6 19 C 6 24.523438 10.476563 29 16 29 C 21.523438 29 26 24.523438 26 19 C 26 13.476563 21.523438 9 16 9 Z M 16 10.5 C 20.6875 10.5 24.5 14.3125 24.5 19 C 24.5 23.6875 20.6875 27.5 16 27.5 C 11.3125 27.5 7.5 23.6875 7.5 19 C 7.5 14.3125 11.3125 10.5 16 10.5 Z M 19.605469 12.996094 C 19.523438 13.042969 16 14.808594 16 14.808594 C 16 14.808594 12.417969 13.019531 12.390625 13 C 10.359375 14.226563 9 16.453125 9 19 C 9 20.679688 9.589844 22.21875 10.578125 23.421875 L 11.648438 22.351563 C 10.929688 21.421875 10.5 20.261719 10.5 19 C 10.5 17.335938 11.226563 15.804688 12.484375 14.769531 C 12.828125 14.949219 13.332031 15.191406 14.035156 15.535156 C 12.828125 16.222656 12 17.507813 12 19 C 12 20.863281 13.277344 22.410156 15 22.859375 L 15 24 L 16 24 L 16 23 C 17.359375 23 18.558594 22.316406 19.28125 21.28125 L 18.1875 20.1875 C 17.761719 20.964844 16.945313 21.5 16 21.5 L 16 21 L 17 21 L 17 20 L 16 20 L 16 19 L 17 19 L 17 18 L 15 18 L 15 21.285156 C 14.117188 20.898438 13.5 20.023438 13.5 19 C 13.5 17.621094 14.621094 16.5 16 16.5 C 16.945313 16.5 17.761719 17.035156 18.1875 17.8125 L 19.28125 16.71875 C 18.941406 16.230469 18.488281 15.824219 17.96875 15.527344 C 18.644531 15.191406 19.035156 14.996094 19.511719 14.765625 C 20.769531 15.800781 21.5 17.332031 21.5 19 C 21.5 20.261719 21.070313 21.421875 20.351563 22.351563 L 21.421875 23.421875 C 22.410156 22.21875 23 20.679688 23 19 C 23 16.453125 21.636719 14.21875 19.605469 12.996094 Z "></path>
</g>
</svg>
