<?xml version="1.0" encoding="UTF-8"?>
<svg xmlns="http://www.w3.org/2000/svg" xmlns:xlink="http://www.w3.org/1999/xlink" viewBox="0 0 32 32" version="1.1">
<g>
<path d="M 25.398438 17.601563 C 25.699219 16.5 26 14.898438 26 12.601563 L 26 11.601563 L 25 11.601563 C 23.199219 11.601563 21.800781 12.199219 20.800781 12.800781 C 20.5 10.800781 19.5 7.398438 16.800781 4 L 16 3 L 15.199219 4 C 12.5 7.398438 11.5 10.800781 11.199219 12.800781 C 10.199219 12.199219 8.699219 11.601563 7 11.601563 L 6 11.601563 L 6 12.601563 C 6 14.898438 6.300781 16.5 6.601563 17.601563 L 3 17.601563 L 3 18.601563 C 3 20.5 4.398438 22.300781 5 23 L 5 27.601563 L 27 27.601563 L 27 23.101563 C 27.800781 22.5 29 21.199219 29 18.601563 L 29 17.601563 Z M 9.601563 19.601563 L 8.898438 18.199219 C 8.898438 18.101563 8.101563 16.601563 8 13.699219 C 10 14 11.300781 15.300781 11.300781 15.300781 L 13 17 L 13 14.601563 C 13 14.601563 13 10.601563 16 6.300781 C 18.898438 10.5 19 14.601563 19 14.601563 L 19 17 L 20.699219 15.300781 C 20.699219 15.300781 22 14.101563 24 13.699219 C 23.800781 16.699219 23.101563 18.199219 23.101563 18.199219 L 22.398438 19.601563 L 26.898438 19.601563 C 26.601563 20.800781 25.898438 21.398438 25.601563 21.601563 L 17 21.601563 L 19 19.601563 L 16 16.601563 L 13 19.601563 L 15 21.601563 L 6.398438 21.601563 C 6 21.101563 5.5 20.398438 5.199219 19.601563 Z M 25 25.601563 L 7 25.601563 L 7 23.601563 L 25 23.601563 Z "></path>
</g>
</svg>
