<?xml version="1.0"?>
<svg xmlns="http://www.w3.org/2000/svg" viewBox="0 0 32 32">
    <path d="M 6 4 C 3.8026661 4 2 5.8026661 2 8 L 2 8.2714844 L 6.8632812 16.583984 C 6.3181198 17.554047 6 18.691506 6 19.957031 L 6 23 C 6 24.399177 6.9838114 25.58009 8.2890625 25.904297 L 7.0273438 28 L 9.3613281 28 L 10.564453 26 L 21.082031 26 L 21.082031 28 L 23.082031 28 L 23.082031 25.8125 C 24.239352 25.395132 25.082031 24.293127 25.082031 23 L 25.082031 19.492188 L 28.824219 21.958984 L 29.925781 20.291016 L 24.994141 17.041016 C 24.560066 14.725462 22.518429 12.957031 20.082031 12.957031 L 14 12.957031 C 13.361293 12.957031 12.73804 13.016573 12.134766 13.123047 L 10 9.4785156 L 10 8 C 10 5.8026661 8.1973339 4 6 4 z M 6 6 C 7.1166661 6 8 6.8833339 8 8 L 8 10.021484 L 10.158203 13.701172 C 9.5300627 13.970301 8.9457535 14.309595 8.4238281 14.728516 C 8.3486901 14.788825 8.2812798 14.858307 8.2089844 14.921875 L 4.0664062 7.8398438 C 4.1587103 6.813194 4.9464886 6 6 6 z M 14 14.957031 L 20.082031 14.957031 C 21.750515 14.957031 23.082031 16.288547 23.082031 17.957031 L 23.082031 23 C 23.082031 23.56503 22.647061 24 22.082031 24 L 9 24 C 8.4349698 24 8 23.56503 8 23 L 8 19.957031 C 8 18.29425 8.6264779 17.13128 9.6757812 16.289062 C 10.725085 15.446845 12.250997 14.957031 14 14.957031 z" font-weight="400" font-family="sans-serif" white-space="normal" overflow="visible"></path>
</svg>
