<?xml version="1.0" encoding="UTF-8"?>
<svg xmlns="http://www.w3.org/2000/svg" xmlns:xlink="http://www.w3.org/1999/xlink" viewBox="0 0 32 32" version="1.1">
<g>
<path d="M 5 6 C 4.171875 6 3.5 6.671875 3.5 7.5 C 3.5 8.328125 4.171875 9 5 9 C 5.828125 9 6.5 8.328125 6.5 7.5 C 6.5 6.671875 5.828125 6 5 6 Z M 27 6 C 26.171875 6 25.5 6.671875 25.5 7.5 C 25.5 8.328125 26.171875 9 27 9 C 27.828125 9 28.5 8.328125 28.5 7.5 C 28.5 6.671875 27.828125 6 27 6 Z M 3 10 L 3 12 L 4 12 L 4 24 L 3 24 L 3 26 L 7 26 L 7 24 L 6 24 L 6 12 L 7 12 L 7 10 Z M 25 10 L 25 12 L 26 12 L 26 24 L 25 24 L 25 26 L 29 26 L 29 24 L 28 24 L 28 12 L 29 12 L 29 10 Z M 8 10.125 L 8 12.59375 C 9.5 13.554688 12.363281 15 16 15 C 19.636719 15 22.5 13.554688 24 12.59375 L 24 10.125 L 23.84375 10.25 C 23.8125 10.277344 20.53125 13 16 13 C 11.46875 13 8.1875 10.277344 8.15625 10.25 Z M 12.375 18 L 8.375 26 L 23.625 26 L 19.625 18 Z M 13.625 20 L 18.375 20 L 20.375 24 L 11.625 24 Z "></path>
</g>
</svg>
