<?xml version="1.0" encoding="UTF-8"?>
<svg xmlns="http://www.w3.org/2000/svg" xmlns:xlink="http://www.w3.org/1999/xlink" viewBox="0 0 32 32" version="1.1">
<g>
<path d="M 10.78125 4 L 10.59375 4.09375 L 3.59375 7.09375 L 3 7.34375 L 3 14 L 7 14 L 7 28 L 25 28 L 25 14 L 29 14 L 29 7.34375 L 28.40625 7.09375 L 21.40625 4.09375 L 21.21875 4 Z M 13.4375 6 L 18.5625 6 L 16 8.5625 Z M 9.25 6.84375 L 7.3125 12 L 5 12 L 5 8.65625 Z M 22.75 6.84375 L 27 8.65625 L 27 12 L 24.6875 12 Z M 11 7.8125 L 11 26 L 9 26 L 9 13.1875 Z M 21 7.8125 L 23 13.1875 L 23 26 L 21 26 Z M 13 8.4375 L 15 10.4375 L 15 26 L 13 26 Z M 19 8.4375 L 19 26 L 17 26 L 17 10.4375 Z "></path>
</g>
</svg>
