<?xml version="1.0" encoding="UTF-8"?>
<svg xmlns="http://www.w3.org/2000/svg" xmlns:xlink="http://www.w3.org/1999/xlink" viewBox="0 0 32 32" version="1.1">
<g>
<path d="M 24 0 C 21.949219 0 19.902344 0.785156 18.34375 2.34375 C 15.230469 5.460938 15.226563 10.539063 18.34375 13.65625 C 21.460938 16.769531 26.539063 16.773438 29.65625 13.65625 C 31.007813 12.304688 31.789063 10.582031 31.96875 8.8125 L 29.96875 8.59375 C 29.835938 9.921875 29.269531 11.230469 28.25 12.25 C 25.898438 14.601563 22.101563 14.601563 19.75 12.25 C 17.398438 9.898438 17.398438 6.101563 19.75 3.75 C 22.101563 1.398438 25.898438 1.398438 28.25 3.75 C 28.332031 3.832031 28.394531 3.914063 28.46875 4 L 26 4 L 26 6 L 32 6 L 32 0 L 30 0 L 30 2.71875 C 29.886719 2.589844 29.777344 2.464844 29.65625 2.34375 C 28.097656 0.785156 26.050781 0 24 0 Z M 4 9 L 4 27 L 6 27 L 6 9 Z M 8 9 L 8 27 L 14 27 L 14 9 Z M 16 13.96875 L 16 27 L 18 27 L 18 16 C 17.242188 15.429688 16.570313 14.726563 16 13.96875 Z M 20 17.15625 L 20 27 L 24 27 L 24 18 C 22.578125 18 21.226563 17.691406 20 17.15625 Z M 28 17.15625 C 27.363281 17.433594 26.695313 17.671875 26 17.8125 L 26 27 L 28 27 Z "></path>
</g>
</svg>
