<?xml version="1.0" encoding="UTF-8"?>
<svg xmlns="http://www.w3.org/2000/svg" xmlns:xlink="http://www.w3.org/1999/xlink" viewBox="0 0 32 32" version="1.1">
<g>
<path d="M 16 4 C 12.683594 4 9.703125 5.351563 7.53125 7.53125 L 5.65625 5.65625 L 5 12 L 11 11 L 8.9375 8.9375 C 10.746094 7.125 13.230469 6 16 6 C 21.535156 6 26 10.464844 26 16 C 26 21.535156 21.535156 26 16 26 L 15 26 L 15 28 L 17 28 L 17 27.9375 C 23.144531 27.421875 28 22.277344 28 16 C 28 9.382813 22.617188 4 16 4 Z M 15 10 L 15 11.1875 C 13.84375 11.609375 13 12.714844 13 14 C 13 14.832031 13.460938 15.542969 13.96875 15.96875 C 14.476563 16.394531 15.0625 16.652344 15.5625 16.90625 C 16.0625 17.160156 16.507813 17.394531 16.75 17.59375 C 16.992188 17.792969 17 17.847656 17 18 C 17 18.523438 16.546875 19 16 19 C 15.433594 19 15 18.566406 15 18 L 13 18 C 13 19.292969 13.84375 20.394531 15 20.8125 L 15 22 L 17 22 L 17 20.8125 C 18.160156 20.390625 19 19.28125 19 18 C 19 17.167969 18.507813 16.484375 18 16.0625 C 17.492188 15.640625 16.9375 15.375 16.4375 15.125 C 15.9375 14.875 15.523438 14.640625 15.28125 14.4375 C 15.039063 14.234375 15 14.167969 15 14 C 15 13.460938 15.445313 13 16 13 C 16.566406 13 17 13.433594 17 14 L 19 14 C 19 12.707031 18.15625 11.605469 17 11.1875 L 17 10 Z M 5 15 C 4.449219 15 4 15.449219 4 16 C 4 16.550781 4.449219 17 5 17 C 5.550781 17 6 16.550781 6 16 C 6 15.449219 5.550781 15 5 15 Z M 5.84375 19.21875 C 5.714844 19.21875 5.597656 19.226563 5.46875 19.28125 C 4.957031 19.492188 4.695313 20.082031 4.90625 20.59375 C 5.117188 21.105469 5.707031 21.335938 6.21875 21.125 C 6.730469 20.914063 6.960938 20.324219 6.75 19.8125 C 6.589844 19.429688 6.234375 19.222656 5.84375 19.21875 Z M 8.21875 22.78125 C 7.960938 22.78125 7.695313 22.867188 7.5 23.0625 C 7.109375 23.453125 7.109375 24.109375 7.5 24.5 C 7.890625 24.890625 8.546875 24.890625 8.9375 24.5 C 9.328125 24.109375 9.328125 23.453125 8.9375 23.0625 C 8.742188 22.867188 8.476563 22.78125 8.21875 22.78125 Z M 11.78125 25.15625 C 11.390625 25.160156 11.035156 25.398438 10.875 25.78125 C 10.664063 26.292969 10.894531 26.882813 11.40625 27.09375 C 11.917969 27.304688 12.507813 27.042969 12.71875 26.53125 C 12.929688 26.019531 12.699219 25.460938 12.1875 25.25 C 12.058594 25.195313 11.910156 25.15625 11.78125 25.15625 Z "></path>
</g>
</svg>
