<?xml version="1.0" encoding="UTF-8"?>
<svg xmlns="http://www.w3.org/2000/svg" xmlns:xlink="http://www.w3.org/1999/xlink" viewBox="0 0 32 32" version="1.1">
<g>
<path d="M 7.3125 5 L 4.25 12.15625 L 14.96875 16.75 L 16.375 13.46875 L 21.15625 14.65625 L 23.5625 5 L 21.5 5 L 19.71875 12.21875 L 17.1875 11.59375 L 20.03125 5 L 17.125 5 C 17.351563 5.433594 17.414063 5.894531 17.25 6.28125 C 16.871094 7.164063 15.433594 7.4375 14.125 6.875 C 13.183594 6.46875 12.535156 5.714844 12.375 5 L 10.375 5 C 10.527344 6.488281 11.625 7.949219 13.34375 8.6875 C 14.058594 8.992188 14.800781 9.15625 15.5 9.15625 C 15.695313 9.15625 15.875 9.148438 16.0625 9.125 L 14.46875 12.84375 C 13.757813 12.636719 12.996094 12.953125 12.625 13.59375 L 8.15625 11.65625 C 8.363281 10.945313 8.046875 10.183594 7.40625 9.8125 L 9.5 5 Z M 11.28125 9.78125 C 10.96875 9.78125 10.664063 9.941406 10.53125 10.25 C 10.355469 10.660156 10.527344 11.136719 10.9375 11.3125 C 11.347656 11.488281 11.824219 11.316406 12 10.90625 C 12.175781 10.496094 12.003906 10.019531 11.59375 9.84375 C 11.492188 9.800781 11.386719 9.78125 11.28125 9.78125 Z M 20.53125 16 C 18.890625 16 17.144531 16.742188 15.65625 17.5 C 14.914063 17.878906 14.238281 18.28125 13.71875 18.625 C 13.617188 18.691406 13.554688 18.75 13.46875 18.8125 L 13.46875 18.78125 L 13.1875 19 L 13.1875 19.03125 C 13.160156 19.050781 13.121094 19.074219 13.09375 19.09375 L 13.0625 19.09375 L 7.59375 18.1875 C 6.105469 17.941406 4.632813 18.820313 4.15625 20.25 C 3.65625 21.746094 4.398438 23.425781 5.84375 24.0625 C 7.367188 24.734375 9.753906 25.691406 11.90625 26.5 C 12.984375 26.90625 13.992188 27.265625 14.8125 27.53125 C 15.222656 27.664063 15.597656 27.761719 15.90625 27.84375 C 16.214844 27.925781 16.410156 28 16.75 28 C 17.460938 28 17.960938 27.714844 18.53125 27.40625 C 19.101563 27.097656 19.691406 26.71875 20.28125 26.34375 C 20.871094 25.96875 21.460938 25.597656 21.9375 25.34375 C 22.414063 25.089844 22.839844 25 22.8125 25 C 23.902344 25 25.125 25.46875 25.125 25.46875 L 25.90625 23.625 C 25.90625 23.625 24.449219 23 22.8125 23 C 22.105469 23 21.582031 23.285156 21 23.59375 C 20.417969 23.902344 19.808594 24.28125 19.21875 24.65625 C 18.628906 25.03125 18.035156 25.402344 17.5625 25.65625 C 17.089844 25.910156 16.6875 26 16.75 26 C 16.851563 26 16.652344 25.96875 16.40625 25.90625 C 16.160156 25.84375 15.824219 25.75 15.4375 25.625 C 14.664063 25.375 13.652344 25.023438 12.59375 24.625 C 10.476563 23.828125 8.121094 22.863281 6.65625 22.21875 C 6.136719 21.992188 5.882813 21.445313 6.0625 20.90625 C 6.230469 20.398438 6.71875 20.066406 7.25 20.15625 L 12.0625 20.96875 C 11.984375 21.613281 12.101563 22.277344 12.5 22.84375 C 13.207031 23.847656 14.5 24.25 15.65625 23.84375 L 15.71875 23.8125 L 15.75 23.8125 L 20.1875 21.6875 L 19.34375 19.875 L 15 21.96875 C 14.988281 21.972656 14.980469 21.964844 14.96875 21.96875 C 14.65625 22.0625 14.316406 21.957031 14.125 21.6875 C 13.976563 21.472656 13.953125 21.222656 14.03125 21 L 14.1875 20.78125 C 14.164063 20.804688 14.164063 20.800781 14.21875 20.71875 C 14.246094 20.691406 14.273438 20.6875 14.3125 20.65625 C 14.433594 20.5625 14.621094 20.429688 14.84375 20.28125 C 15.289063 19.984375 15.890625 19.625 16.5625 19.28125 C 17.910156 18.59375 19.5625 18 20.53125 18 C 22.921875 18 27.21875 19.625 27.21875 19.625 L 27.96875 17.75 C 27.96875 17.75 23.726563 16 20.53125 16 Z "></path>
</g>
</svg>
