<?xml version="1.0" encoding="UTF-8"?>
<svg xmlns="http://www.w3.org/2000/svg" xmlns:xlink="http://www.w3.org/1999/xlink" viewBox="0 0 32 32" version="1.1">
<g>
<path d="M 3 5 L 3 23 L 8 23 L 8 28.078125 L 14.351563 23 L 16.066406 23 C 16.027344 23.328125 16 23.660156 16 24 C 16 28.40625 19.59375 32 24 32 C 28.40625 32 32 28.40625 32 24 C 32 21.484375 30.824219 19.234375 29 17.765625 L 29 5 Z M 5 7 L 27 7 L 27 16.589844 C 26.074219 16.210938 25.058594 16 24 16 C 20.652344 16 17.78125 18.074219 16.589844 21 L 13.648438 21 L 10 23.917969 L 10 21 L 5 21 Z M 24 18 C 27.324219 18 30 20.675781 30 24 C 30 27.324219 27.324219 30 24 30 C 20.675781 30 18 27.324219 18 24 C 18 20.675781 20.675781 18 24 18 Z M 21.707031 20.292969 L 20.292969 21.707031 L 22.585938 24 L 20.292969 26.292969 L 21.707031 27.707031 L 24 25.414063 L 26.292969 27.707031 L 27.707031 26.292969 L 25.414063 24 L 27.707031 21.707031 L 26.292969 20.292969 L 24 22.585938 Z "></path>
</g>
</svg>
