<?xml version="1.0" encoding="UTF-8"?>
<svg xmlns="http://www.w3.org/2000/svg" xmlns:xlink="http://www.w3.org/1999/xlink" viewBox="0 0 32 32" version="1.1">
<g>
<path d="M 16.875 4.0625 L 16 4.53125 L 11.625 6.96875 L 10.75 7.4375 L 11.21875 8.3125 L 13.65625 12.6875 L 14.125 13.5625 L 15 13.09375 L 19.375 10.65625 L 20 10.3125 L 20 12 L 27 12 L 27 5 L 20 5 L 20 9.71875 L 19.78125 9.3125 L 17.375 4.9375 Z M 16.09375 6.78125 L 17.53125 9.40625 L 14.90625 10.84375 L 13.46875 8.21875 Z M 22 7 L 25 7 L 25 10 L 22 10 Z M 5 10 L 5 27 L 22 27 L 22 20 L 17 20 L 17 15 L 12 15 L 12 10 Z M 22 20 L 24.65625 20.96875 L 25.59375 21.28125 L 25.9375 20.34375 L 27.625 15.65625 L 27.96875 14.71875 L 22.34375 12.65625 L 21.40625 12.34375 L 19 18.90625 L 19.9375 19.25 Z M 7 12 L 10 12 L 10 15 L 7 15 Z M 22.59375 14.90625 L 25.40625 15.90625 L 24.40625 18.71875 L 21.5625 17.71875 Z M 7 17 L 10 17 L 10 20 L 7 20 Z M 12 17 L 15 17 L 15 20 L 12 20 Z M 7 22 L 10 22 L 10 25 L 7 25 Z M 12 22 L 15 22 L 15 25 L 12 25 Z M 17 22 L 20 22 L 20 25 L 17 25 Z "></path>
</g>
</svg>
