<?xml version="1.0" encoding="UTF-8"?>
<svg xmlns="http://www.w3.org/2000/svg" xmlns:xlink="http://www.w3.org/1999/xlink" viewBox="0 0 32 32" version="1.1">
<g>
<path d="M 4 3 C 4 5.257813 4.957031 7.175781 6.71875 8.34375 C 7.855469 9.097656 9.28125 9.574219 10.96875 9.8125 C 10.523438 10.171875 10.140625 10.554688 9.78125 11 L 2.96875 11 L 3 12.03125 C 3 12.03125 3.019531 13.285156 3.8125 14.53125 C 4.503906 15.621094 5.871094 16.6875 8.03125 16.9375 C 8.1875 19.457031 8.953125 22.164063 10.15625 24.40625 C 11.507813 26.925781 13.472656 29 16 29 C 18.53125 29 20.492188 26.902344 21.84375 24.375 C 23.042969 22.132813 23.808594 19.421875 23.96875 16.9375 C 26.128906 16.6875 27.496094 15.621094 28.1875 14.53125 C 28.980469 13.285156 29 12.03125 29 12.03125 L 29.03125 11 L 22.21875 11 C 21.859375 10.554688 21.476563 10.171875 21.03125 9.8125 C 22.71875 9.574219 24.144531 9.097656 25.28125 8.34375 C 27.042969 7.175781 28 5.257813 28 3 L 26 3 C 26 4.742188 25.414063 5.824219 24.15625 6.65625 C 23.574219 7.042969 22.800781 7.367188 21.875 7.59375 C 22.054688 7.355469 22.25 7.125 22.375 6.875 C 23.203125 5.203125 23 3.40625 23 3 L 21 3 C 21 3.761719 21.109375 4.964844 20.59375 6 C 20.078125 7.035156 19.070313 8 16 8 C 12.929688 8 11.921875 7.035156 11.40625 6 C 10.890625 4.964844 11 3.761719 11 3 L 9 3 C 9 3.40625 8.796875 5.203125 9.625 6.875 C 9.75 7.125 9.945313 7.355469 10.125 7.59375 C 9.199219 7.367188 8.425781 7.042969 7.84375 6.65625 C 6.585938 5.824219 6 4.742188 6 3 Z M 16 10 C 19.324219 10 22 12.675781 22 16 C 22 18.3125 21.246094 21.195313 20.0625 23.40625 C 18.878906 25.617188 17.332031 27 16 27 C 14.660156 27 13.117188 25.636719 11.9375 23.4375 C 10.757813 21.238281 10 18.359375 10 16 C 10 12.675781 12.675781 10 16 10 Z M 5.34375 13 L 8.59375 13 C 8.34375 13.613281 8.152344 14.257813 8.0625 14.9375 C 6.570313 14.746094 5.902344 14.101563 5.5 13.46875 C 5.351563 13.234375 5.417969 13.210938 5.34375 13 Z M 23.40625 13 L 26.65625 13 C 26.582031 13.210938 26.648438 13.234375 26.5 13.46875 C 26.097656 14.101563 25.429688 14.746094 23.9375 14.9375 C 23.847656 14.257813 23.65625 13.613281 23.40625 13 Z M 12 17 C 11.449219 17 11 17.449219 11 18 C 11 18.550781 11.449219 19 12 19 C 12.550781 19 13 18.550781 13 18 C 13 17.449219 12.550781 17 12 17 Z M 20 17 C 19.449219 17 19 17.449219 19 18 C 19 18.550781 19.449219 19 20 19 C 20.550781 19 21 18.550781 21 18 C 21 17.449219 20.550781 17 20 17 Z M 16 23 C 14.894531 23 14 23.449219 14 24 C 14 24.550781 14.894531 26 16 26 C 17.105469 26 18 24.550781 18 24 C 18 23.449219 17.105469 23 16 23 Z "></path>
</g>
</svg>
