<?xml version="1.0" encoding="UTF-8"?>
<svg xmlns="http://www.w3.org/2000/svg" xmlns:xlink="http://www.w3.org/1999/xlink" viewBox="0 0 32 32" version="1.1">
<g>
<path d="M 21 3 C 19.671875 3 18.546875 3.890625 18.15625 5.09375 C 17.957031 5.035156 17.753906 5 17.5 5 C 16.132813 5 15 6.132813 15 7.5 C 15 8.199219 15.308594 8.824219 15.78125 9.28125 C 15.242188 9.527344 14.785156 9.910156 14.46875 10.40625 C 14.03125 10.15625 13.535156 10 13 10 C 11.9375 10 11.003906 10.5625 10.46875 11.40625 C 10.03125 11.15625 9.535156 11 9 11 C 7.355469 11 6 12.355469 6 14 L 6 23 C 6 26.855469 9.144531 30 13 30 L 18.28125 30 C 20.292969 30 22.203125 29.136719 23.53125 27.625 L 25.90625 24.9375 C 27.285156 23.367188 27.371094 20.996094 26.09375 19.34375 L 24 16.65625 L 24 9.9375 C 24.152344 9.972656 24.308594 10 24.5 10 C 25.867188 10 27 8.867188 27 7.5 C 27 6.132813 25.867188 5 24.5 5 C 24.246094 5 24.042969 5.035156 23.84375 5.09375 C 23.453125 3.890625 22.328125 3 21 3 Z M 21 5 C 21.511719 5 21.894531 5.359375 21.96875 5.84375 C 21.445313 6.097656 21.257813 6.234375 21 6.375 C 20.742188 6.234375 20.554688 6.097656 20.03125 5.84375 C 20.105469 5.359375 20.488281 5 21 5 Z M 17.5 7 C 17.40625 7 17.707031 7.03125 18.03125 7.15625 C 18.253906 7.242188 18.523438 7.382813 18.78125 7.5 C 18.523438 7.617188 18.253906 7.757813 18.03125 7.84375 C 17.707031 7.96875 17.40625 8 17.5 8 C 17.214844 8 17 7.785156 17 7.5 C 17 7.214844 17.214844 7 17.5 7 Z M 24.5 7 C 24.785156 7 25 7.214844 25 7.5 C 25 7.785156 24.785156 8 24.5 8 C 24.59375 8 24.292969 7.96875 23.96875 7.84375 C 23.746094 7.757813 23.476563 7.617188 23.21875 7.5 C 23.476563 7.382813 23.746094 7.242188 23.96875 7.15625 C 24.292969 7.03125 24.59375 7 24.5 7 Z M 21 8.625 C 21.265625 8.769531 21.460938 8.894531 22 9.15625 L 22 21 L 24 21 L 24 19.9375 L 24.5 20.59375 C 25.199219 21.5 25.160156 22.734375 24.40625 23.59375 L 22.03125 26.3125 C 21.082031 27.394531 19.71875 28 18.28125 28 L 13 28 C 10.226563 28 8 25.773438 8 23 L 8 14 C 8 13.433594 8.433594 13 9 13 C 9.566406 13 10 13.433594 10 14 L 10 15 L 12 15 L 12 13 C 12 12.433594 12.433594 12 13 12 C 13.566406 12 14 12.433594 14 13 L 14 15 L 16 15 L 16 12 C 16 11.433594 16.433594 11 17 11 C 17.566406 11 18 11.433594 18 12 L 18 15 L 20 15 L 20 9.15625 C 20.539063 8.894531 20.734375 8.769531 21 8.625 Z "></path>
</g>
</svg>
