<?xml version="1.0" encoding="UTF-8"?>
<svg xmlns="http://www.w3.org/2000/svg" xmlns:xlink="http://www.w3.org/1999/xlink" viewBox="0 0 32 32" version="1.1">
<g>
<path d="M 21 4 C 19.207031 4 17.425781 4.699219 16.0625 6.0625 L 17.46875 7.46875 C 19.429688 5.507813 22.570313 5.507813 24.53125 7.46875 C 26.492188 9.429688 26.492188 12.570313 24.53125 14.53125 L 25.9375 15.9375 C 28.664063 13.210938 28.664063 8.789063 25.9375 6.0625 C 24.574219 4.699219 22.792969 4 21 4 Z M 14.9375 7 L 14.21875 7.71875 L 5.15625 16.75 C 3.601563 18.304688 3.601563 20.851563 5.15625 22.40625 L 9.59375 26.8125 C 11.148438 28.367188 13.695313 28.367188 15.25 26.8125 L 25 17.0625 L 24.28125 16.375 L 15.625 7.71875 Z M 21 8 C 20.230469 8 19.457031 8.292969 18.875 8.875 L 20.28125 10.28125 C 20.679688 9.882813 21.320313 9.882813 21.71875 10.28125 L 21.75 10.34375 C 22.097656 10.742188 22.101563 11.335938 21.71875 11.71875 L 23.125 13.125 C 24.289063 11.960938 24.289063 10.039063 23.125 8.875 C 22.542969 8.292969 21.769531 8 21 8 Z M 14.9375 9.84375 L 22.15625 17.0625 L 13.8125 25.40625 C 13.023438 26.195313 11.789063 26.195313 11 25.40625 L 6.59375 21 C 5.804688 20.210938 5.804688 18.976563 6.59375 18.1875 Z M 16 14 C 14.894531 14 14 14.894531 14 16 C 14 17.105469 14.894531 18 16 18 C 17.105469 18 18 17.105469 18 16 C 18 14.894531 17.105469 14 16 14 Z M 11 17 C 10.449219 17 10 17.449219 10 18 C 10 18.550781 10.449219 19 11 19 C 11.550781 19 12 18.550781 12 18 C 12 17.449219 11.550781 17 11 17 Z M 14 20 C 13.449219 20 13 20.449219 13 21 C 13 21.550781 13.449219 22 14 22 C 14.550781 22 15 21.550781 15 21 C 15 20.449219 14.550781 20 14 20 Z "></path>
</g>
</svg>
