<?xml version="1.0" encoding="UTF-8"?>
<svg xmlns="http://www.w3.org/2000/svg" xmlns:xlink="http://www.w3.org/1999/xlink" viewBox="0 0 32 32" version="1.1">
<g>
<path d="M 3 6 L 3 22 L 15.066406 22 C 15.5625 25.9375 18.933594 29 23 29 C 27.40625 29 31 25.40625 31 21 C 31 18.980469 30.242188 17.136719 29 15.730469 L 29 11 L 27 11 L 27 6 Z M 5 8 L 25 8 L 25 13.265625 C 24.359375 13.097656 23.691406 13 23 13 C 18.933594 13 15.5625 16.0625 15.066406 20 L 5 20 Z M 23 15 C 26.324219 15 29 17.675781 29 21 C 29 24.324219 26.324219 27 23 27 C 19.675781 27 17 24.324219 17 21 C 17 17.675781 19.675781 15 23 15 Z M 20.707031 17.292969 L 19.292969 18.707031 L 21.585938 21 L 19.292969 23.292969 L 20.707031 24.707031 L 23 22.414063 L 25.292969 24.707031 L 26.707031 23.292969 L 24.414063 21 L 26.707031 18.707031 L 25.292969 17.292969 L 23 19.585938 Z "></path>
</g>
</svg>
