<?xml version="1.0" encoding="UTF-8"?>
<svg xmlns="http://www.w3.org/2000/svg" xmlns:xlink="http://www.w3.org/1999/xlink" viewBox="0 0 32 32" version="1.1">
<g>
<path d="M 20 3 C 15.054688 3 11 7.054688 11 12 C 11 12.519531 11.082031 12.972656 11.15625 13.433594 L 3 21.585938 L 3 29 L 10 29 L 10 26 L 13 26 L 13 23 L 16 23 L 16 20.015625 C 16.28125 20.15625 16.574219 20.28125 16.871094 20.398438 C 16.320313 21.484375 16 22.703125 16 24 C 16 28.40625 19.59375 32 24 32 C 28.40625 32 32 28.40625 32 24 C 32 20.875 30.1875 18.164063 27.5625 16.847656 C 28.464844 15.445313 29 13.78125 29 12 C 29 7.054688 24.945313 3 20 3 Z M 20 5 C 23.855469 5 27 8.144531 27 12 C 27 13.558594 26.484375 14.996094 25.613281 16.160156 C 25.09375 16.054688 24.550781 16 24 16 C 21.628906 16 19.5 17.046875 18.03125 18.691406 C 17.511719 18.542969 17.007813 18.355469 16.578125 18.121094 L 16.355469 18 L 14 18 L 14 21 L 11 21 L 11 24 L 8 24 L 8 27 L 5 27 L 5 22.414063 L 13.269531 14.140625 L 13.1875 13.636719 C 13.085938 13.035156 13 12.488281 13 12 C 13 8.144531 16.144531 5 20 5 Z M 22 8 C 20.894531 8 20 8.894531 20 10 C 20 11.105469 20.894531 12 22 12 C 23.105469 12 24 11.105469 24 10 C 24 8.894531 23.105469 8 22 8 Z M 24 18 C 27.324219 18 30 20.675781 30 24 C 30 27.324219 27.324219 30 24 30 C 20.675781 30 18 27.324219 18 24 C 18 20.675781 20.675781 18 24 18 Z M 21.707031 20.292969 L 20.292969 21.707031 L 22.585938 24 L 20.292969 26.292969 L 21.707031 27.707031 L 24 25.414063 L 26.292969 27.707031 L 27.707031 26.292969 L 25.414063 24 L 27.707031 21.707031 L 26.292969 20.292969 L 24 22.585938 Z "></path>
</g>
</svg>
