<?xml version="1.0" encoding="UTF-8"?>
<svg xmlns="http://www.w3.org/2000/svg" xmlns:xlink="http://www.w3.org/1999/xlink" viewBox="0 0 32 32" version="1.1">
<g>
<path d="M 17 4 L 17 6 C 18.464844 6 19.5625 6.289063 20.25 6.625 C 20.59375 6.792969 20.855469 6.980469 20.96875 7.09375 C 20.992188 7.117188 20.992188 7.109375 21 7.125 L 21 24.875 C 20.992188 24.890625 20.992188 24.882813 20.96875 24.90625 C 20.855469 25.019531 20.59375 25.207031 20.25 25.375 C 19.5625 25.710938 18.464844 26 17 26 L 17 28 C 18.734375 28 20.113281 27.648438 21.125 27.15625 C 21.464844 26.992188 21.742188 26.789063 22 26.59375 C 22.257813 26.789063 22.535156 26.992188 22.875 27.15625 C 23.886719 27.648438 25.265625 28 27 28 L 27 26 C 25.535156 26 24.4375 25.710938 23.75 25.375 C 23.40625 25.207031 23.144531 25.019531 23.03125 24.90625 C 23.007813 24.882813 23.007813 24.890625 23 24.875 L 23 7.125 C 23.007813 7.109375 23.007813 7.117188 23.03125 7.09375 C 23.144531 6.980469 23.40625 6.792969 23.75 6.625 C 24.4375 6.289063 25.535156 6 27 6 L 27 4 C 25.265625 4 23.886719 4.351563 22.875 4.84375 C 22.535156 5.007813 22.257813 5.210938 22 5.40625 C 21.742188 5.210938 21.464844 5.007813 21.125 4.84375 C 20.113281 4.351563 18.734375 4 17 4 Z M 1 10 L 1 22 L 19 22 L 19 20 L 3 20 L 3 12 L 19 12 L 19 10 Z M 25 10 L 25 12 L 29 12 L 29 20 L 25 20 L 25 22 L 31 22 L 31 10 Z M 5 14 L 5 18 L 13 18 L 13 14 Z "></path>
</g>
</svg>
