<?xml version="1.0" encoding="UTF-8"?>
<svg xmlns="http://www.w3.org/2000/svg" xmlns:xlink="http://www.w3.org/1999/xlink" viewBox="0 0 32 32" version="1.1">
<g>
<path d="M 3 7 L 3 16.1875 L 5 14.1875 L 5 9.875 L 15.4375 16.84375 L 16 17.1875 L 16.5625 16.84375 L 27 9.875 L 27 23 L 19.65625 23 C 19.875 23.648438 20 24.328125 20 25 L 29 25 L 29 7 Z M 7.3125 9 L 24.6875 9 L 16 14.78125 Z M 4.71875 17.28125 L 0 22 L 4.71875 26.71875 L 6.125 25.28125 L 2.84375 22 L 6.125 18.71875 Z M 9.71875 17.28125 L 5 22 L 9.71875 26.71875 L 11.125 25.28125 L 8.84375 23 L 13.96875 23 C 15.085938 23 16 23.914063 16 25.03125 L 16 32 L 18 32 L 18 25.03125 C 18 22.824219 16.175781 21 13.96875 21 L 8.84375 21 L 11.125 18.71875 Z "></path>
</g>
</svg>
