<?xml version="1.0" encoding="UTF-8"?>
<svg xmlns="http://www.w3.org/2000/svg" xmlns:xlink="http://www.w3.org/1999/xlink" viewBox="0 0 32 32" version="1.1">
<g>
<path d="M 4 5 L 4 25 L 8 25 L 8 30.078125 L 14.351563 25 L 28 25 L 28 5 Z M 6 7 L 26 7 L 26 23 L 13.648438 23 L 10 25.917969 L 10 23 L 6 23 Z M 11 9 L 10 10 L 11 12 L 12.5 12.5 L 13.761719 13.761719 L 14.765625 12.765625 L 13.5 11.5 L 13 10 Z M 19 9 C 17.34375 9 16 10.34375 16 12 C 16 12.289063 16.054688 12.5625 16.128906 12.828125 L 10.4375 18.4375 C 9.851563 19.027344 9.851563 19.976563 10.4375 20.5625 C 11.027344 21.148438 11.976563 21.148438 12.5625 20.5625 L 18.1875 14.875 C 18.445313 14.945313 18.714844 15 19 15 C 20.65625 15 22 13.65625 22 12 C 22 11.539063 21.886719 11.105469 21.699219 10.714844 L 19.585938 12.828125 L 18.171875 11.414063 L 20.285156 9.300781 C 19.894531 9.113281 19.460938 9 19 9 Z M 18.515625 15.96875 L 16.710938 17.789063 L 19.4375 20.5625 C 20.027344 21.148438 20.976563 21.148438 21.5625 20.5625 C 22.148438 19.972656 22.148438 19.023438 21.5625 18.4375 L 19.066406 15.992188 C 19.042969 15.992188 19.023438 16 19 16 C 18.839844 16 18.679688 15.988281 18.515625 15.96875 Z "></path>
</g>
</svg>
