<?xml version="1.0" encoding="UTF-8"?>
<svg xmlns="http://www.w3.org/2000/svg" xmlns:xlink="http://www.w3.org/1999/xlink" viewBox="0 0 32 32" version="1.1">
<g>
<path d="M 3 4 L 3 19 L 29 19 L 29 4 Z M 7 6 L 25 6 C 25 7.105469 25.894531 8 27 8 L 27 15 C 25.894531 15 25 15.894531 25 17 L 7 17 C 7 15.894531 6.105469 15 5 15 L 5 8 C 6.105469 8 7 7.105469 7 6 Z M 16 7 C 13.789063 7 12 9.015625 12 11.5 C 12 13.984375 13.789063 16 16 16 C 18.210938 16 20 13.984375 20 11.5 C 20 9.015625 18.210938 7 16 7 Z M 16 9 C 17.101563 9 18 10.121094 18 11.5 C 18 12.878906 17.101563 14 16 14 C 14.898438 14 14 12.878906 14 11.5 C 14 10.121094 14.898438 9 16 9 Z M 8.5 10 C 7.671875 10 7 10.671875 7 11.5 C 7 12.328125 7.671875 13 8.5 13 C 9.328125 13 10 12.328125 10 11.5 C 10 10.671875 9.328125 10 8.5 10 Z M 23.5 10 C 22.671875 10 22 10.671875 22 11.5 C 22 12.328125 22.671875 13 23.5 13 C 24.328125 13 25 12.328125 25 11.5 C 25 10.671875 24.328125 10 23.5 10 Z M 15 21 L 15 24 L 11 24 L 16 29 L 21 24 L 17 24 L 17 21 Z "></path>
</g>
</svg>
