<?xml version="1.0" encoding="UTF-8"?>
<svg xmlns="http://www.w3.org/2000/svg" xmlns:xlink="http://www.w3.org/1999/xlink" viewBox="0 0 32 32" version="1.1">
<g>
<path d="M 1 6 L 1 17 L 31 17 L 31 6 Z M 3 8 L 5.5625 8 L 3 10.5625 Z M 8.4375 8 L 11.5625 8 L 4.5625 15 L 3 15 L 3 13.4375 Z M 14.4375 8 L 17.5625 8 L 10.5625 15 L 7.4375 15 Z M 20.4375 8 L 23.5625 8 L 16.5625 15 L 13.4375 15 Z M 26.4375 8 L 29 8 L 29 8.5625 L 22.5625 15 L 19.4375 15 Z M 29 11.4375 L 29 15 L 25.4375 15 Z M 4 18 L 4 26 L 6 26 L 6 18 Z M 26 18 L 26 26 L 28 26 L 28 18 Z "></path>
</g>
</svg>
