<?xml version="1.0" encoding="UTF-8"?>
<svg xmlns="http://www.w3.org/2000/svg" xmlns:xlink="http://www.w3.org/1999/xlink" viewBox="0 0 32 32" version="1.1">
<g>
<path d="M 5 6 C 3.355469 6 2 7.355469 2 9 L 2 23 C 2 24.644531 3.355469 26 5 26 L 27 26 C 28.644531 26 30 24.644531 30 23 L 30 9 C 30 7.355469 28.644531 6 27 6 Z M 5 8 L 27 8 C 27.566406 8 28 8.433594 28 9 L 28 23 C 28 23.566406 27.566406 24 27 24 L 5 24 C 4.433594 24 4 23.566406 4 23 L 4 9 C 4 8.433594 4.433594 8 5 8 Z M 19.875 9.09375 C 19.054688 9.164063 18.222656 9.527344 17.59375 10.15625 C 16.597656 11.152344 16.222656 12.648438 16.71875 13.84375 L 16 14.5625 L 11.71875 10.28125 L 11 9.59375 L 10.28125 10.28125 C 8.792969 11.769531 8.792969 14.230469 10.28125 15.71875 L 12.5625 18 L 9.28125 21.28125 L 10.71875 22.71875 L 14 19.4375 L 14.28125 19.71875 L 15 20.40625 L 15.71875 19.71875 L 17 18.4375 L 21.28125 22.71875 L 22.71875 21.28125 L 17.4375 16 L 18.125 15.28125 C 19.324219 15.796875 20.839844 15.410156 21.84375 14.40625 C 23.101563 13.148438 23.367188 11.117188 22.125 9.875 C 21.503906 9.253906 20.695313 9.023438 19.875 9.09375 Z M 19.96875 11.09375 C 20.277344 11.058594 20.558594 11.152344 20.71875 11.3125 C 21.039063 11.632813 21.0625 12.375 20.4375 13 C 19.8125 13.625 19.039063 13.632813 18.71875 13.3125 C 18.398438 12.992188 18.40625 12.21875 19.03125 11.59375 C 19.34375 11.28125 19.660156 11.128906 19.96875 11.09375 Z M 11.28125 12.71875 L 15.5625 17 L 15 17.5625 L 11.71875 14.28125 C 11.277344 13.839844 11.183594 13.28125 11.28125 12.71875 Z "></path>
</g>
</svg>
