<?xml version="1.0" encoding="UTF-8"?>
<svg xmlns="http://www.w3.org/2000/svg" xmlns:xlink="http://www.w3.org/1999/xlink" viewBox="0 0 32 32" version="1.1">
<g>
<path d="M 16 4.90625 L 3.625 10.0625 L 3 10.34375 L 3 27 L 29 27 L 29 10.34375 L 28.375 10.0625 Z M 16 7.09375 L 27 11.6875 L 27 25 L 5 25 L 5 11.6875 Z M 19.875 10.09375 C 19.054688 10.164063 18.222656 10.527344 17.59375 11.15625 C 16.597656 12.152344 16.222656 13.648438 16.71875 14.84375 L 16 15.5625 L 11.71875 11.28125 L 11 10.59375 L 10.28125 11.28125 C 8.792969 12.769531 8.792969 15.230469 10.28125 16.71875 L 12.5625 19 L 9.28125 22.28125 L 10.71875 23.71875 L 14 20.4375 L 14.28125 20.71875 L 15 21.40625 L 15.71875 20.71875 L 17 19.4375 L 21.28125 23.71875 L 22.71875 22.28125 L 17.4375 17 L 18.125 16.28125 C 19.324219 16.796875 20.839844 16.410156 21.84375 15.40625 C 23.101563 14.148438 23.367188 12.117188 22.125 10.875 C 21.503906 10.253906 20.695313 10.023438 19.875 10.09375 Z M 19.96875 12.09375 C 20.277344 12.058594 20.558594 12.152344 20.71875 12.3125 C 21.039063 12.632813 21.0625 13.375 20.4375 14 C 19.8125 14.625 19.039063 14.632813 18.71875 14.3125 C 18.398438 13.992188 18.40625 13.21875 19.03125 12.59375 C 19.34375 12.28125 19.660156 12.128906 19.96875 12.09375 Z M 11.28125 13.71875 L 15.5625 18 L 15 18.5625 L 11.71875 15.28125 C 11.277344 14.839844 11.183594 14.28125 11.28125 13.71875 Z "></path>
</g>
</svg>
