<?xml version="1.0" encoding="UTF-8"?>
<svg xmlns="http://www.w3.org/2000/svg" xmlns:xlink="http://www.w3.org/1999/xlink" viewBox="0 0 32 32" version="1.1">
<g>
<path d="M 7 5 L 7 12 C 7 13.644531 8.355469 15 10 15 L 10 27 L 12 27 L 12 15 C 13.644531 15 15 13.644531 15 12 L 15 5 L 13 5 L 13 12 C 13 12.566406 12.566406 13 12 13 L 12 5 L 10 5 L 10 13 C 9.433594 13 9 12.566406 9 12 L 9 5 Z M 19 5 L 19 27 L 21 27 L 21 19.625 L 25 17.625 L 25 10 C 25 7.25 22.75 5 20 5 Z M 21 7.40625 C 22.113281 7.84375 23 8.722656 23 10 L 23 16.375 L 21 17.375 Z "></path>
</g>
</svg>
