<?xml version="1.0" encoding="UTF-8"?>
<svg xmlns="http://www.w3.org/2000/svg" xmlns:xlink="http://www.w3.org/1999/xlink" viewBox="0 0 32 32" version="1.1">
<g>
<path d="M 16 4 C 13.75 4 12.234375 4.886719 10.875 5.625 C 9.515625 6.363281 8.28125 7 6 7 L 5 7 L 5 8 C 5 15.71875 7.609375 20.742188 10.25 23.78125 C 12.890625 26.820313 15.625 27.9375 15.625 27.9375 L 16 28.0625 L 16.375 27.9375 C 16.375 27.9375 19.109375 26.84375 21.75 23.8125 C 24.390625 20.78125 27 15.746094 27 8 L 27 7 L 26 7 C 23.730469 7 22.484375 6.363281 21.125 5.625 C 19.765625 4.886719 18.25 4 16 4 Z M 16 6 C 17.75 6 18.753906 6.613281 20.15625 7.375 C 21.339844 8.019531 22.910156 8.636719 24.9375 8.84375 C 24.746094 15.609375 22.507813 19.910156 20.25 22.5 C 18.203125 24.847656 16.484375 25.628906 16 25.84375 C 15.511719 25.625 13.796875 24.824219 11.75 22.46875 C 9.492188 19.871094 7.253906 15.578125 7.0625 8.84375 C 9.097656 8.636719 10.660156 8.019531 11.84375 7.375 C 13.246094 6.613281 14.25 6 16 6 Z M 16 10 C 13.25 10 11 12.25 11 15 C 11 17.75 13.25 20 16 20 C 18.75 20 21 17.75 21 15 C 21 12.25 18.75 10 16 10 Z M 16 12 C 16.457031 12 16.894531 12.101563 17.28125 12.28125 L 13.28125 16.28125 C 13.101563 15.894531 13 15.457031 13 15 C 13 13.332031 14.332031 12 16 12 Z M 18.71875 13.71875 C 18.898438 14.105469 19 14.542969 19 15 C 19 16.667969 17.667969 18 16 18 C 15.542969 18 15.105469 17.898438 14.71875 17.71875 Z "></path>
</g>
</svg>
