<?xml version="1.0" encoding="UTF-8"?>
<svg xmlns="http://www.w3.org/2000/svg" xmlns:xlink="http://www.w3.org/1999/xlink" viewBox="0 0 32 32" version="1.1">
<g>
<path d="M 16 3 C 15.171875 3 14.5 3.671875 14.5 4.5 C 14.5 4.925781 14.683594 5.332031 15 5.617188 L 15 7.078125 C 12.089844 7.453125 9.761719 9.414063 9.238281 12 L 8 12 L 8 14 L 6.617188 14 C 6.332031 13.683594 5.925781 13.5 5.5 13.5 C 4.671875 13.5 4 14.171875 4 15 C 4 15.828125 4.671875 16.5 5.5 16.5 C 5.925781 16.5 6.332031 16.316406 6.617188 16 L 8 16 L 8 18 L 9.164063 18 C 9.480469 19.597656 10.574219 20.871094 12 21.753906 L 12 22.523438 L 5 25.324219 L 5 29 L 27 29 L 27 25.324219 L 20 22.523438 L 20 21.753906 C 21.425781 20.871094 22.519531 19.597656 22.839844 18 L 24 18 L 24 16 L 25.386719 16 C 25.667969 16.316406 26.074219 16.5 26.5 16.5 C 27.328125 16.5 28 15.828125 28 15 C 28 14.171875 27.328125 13.5 26.5 13.5 C 26.074219 13.5 25.667969 13.683594 25.386719 14 L 24 14 L 24 12 L 22.761719 12 C 22.238281 9.414063 19.910156 7.453125 17 7.078125 L 17 5.617188 C 17.316406 5.332031 17.5 4.925781 17.5 4.5 C 17.5 3.671875 16.828125 3 16 3 Z M 16 9 C 18.863281 9 21 10.886719 21 13 L 21 14 L 22 14 L 22 16 L 21 16 L 21 17 C 21 18.414063 20.078125 19.695313 18.5625 20.425781 L 18 20.699219 L 18 23.875 L 18.628906 24.128906 L 25 26.675781 L 25 27 L 7 27 L 7 26.675781 L 14 23.875 L 14 20.699219 L 13.4375 20.425781 C 11.921875 19.695313 11 18.414063 11 17 L 11 16 L 10 16 L 10 14 L 11 14 L 11 13 C 11 10.886719 13.136719 9 16 9 Z M 13 14 L 13 16 L 15 16 L 15 14 Z M 17 14 L 17 16 L 19 16 L 19 14 Z "></path>
</g>
</svg>
