<?xml version="1.0" encoding="UTF-8"?>
<svg xmlns="http://www.w3.org/2000/svg" xmlns:xlink="http://www.w3.org/1999/xlink" viewBox="0 0 32 32" version="1.1">
<g>
<path d="M 20.40625 3.1875 L 15.03125 7.21875 L 11.65625 4.25 L 10.34375 5.75 L 12.90625 8 L 4 8 L 4 26 L 6 26 L 6 27 L 8 27 L 8 26 L 24 26 L 24 27 L 26 27 L 26 26 L 28 26 L 28 8 L 17.34375 8 L 21.59375 4.8125 Z M 6 10 L 26 10 L 26 24 L 6 24 Z M 7 11 L 7 23 L 22 23 L 22 11 Z M 9 13 L 20 13 L 20 21 L 9 21 Z M 24 13 C 23.449219 13 23 13.449219 23 14 C 23 14.550781 23.449219 15 24 15 C 24.550781 15 25 14.550781 25 14 C 25 13.449219 24.550781 13 24 13 Z M 24 16 C 23.449219 16 23 16.449219 23 17 C 23 17.550781 23.449219 18 24 18 C 24.550781 18 25 17.550781 25 17 C 25 16.449219 24.550781 16 24 16 Z M 24 19 C 23.449219 19 23 19.449219 23 20 C 23 20.550781 23.449219 21 24 21 C 24.550781 21 25 20.550781 25 20 C 25 19.449219 24.550781 19 24 19 Z "></path>
</g>
</svg>
