<?xml version="1.0" encoding="UTF-8"?>
<svg xmlns="http://www.w3.org/2000/svg" xmlns:xlink="http://www.w3.org/1999/xlink" viewBox="0 0 32 32" version="1.1">
<g>
<path d="M 8.28125 5.28125 L 2.28125 11.28125 L 1.59375 12 L 2.28125 12.71875 L 8.28125 18.71875 L 9.71875 17.28125 L 5.4375 13 L 23 13 C 25.753906 13 28 15.246094 28 18 C 28 20.753906 25.753906 23 23 23 L 20 23 L 20 25 L 23 25 C 26.84375 25 30 21.84375 30 18 C 30 14.15625 26.84375 11 23 11 L 5.4375 11 L 9.71875 6.71875 Z M 8 23 L 8 25 L 10 25 L 10 23 Z M 12 23 L 12 25 L 14 25 L 14 23 Z M 16 23 L 16 25 L 18 25 L 18 23 Z "></path>
</g>
</svg>
