<?xml version="1.0" encoding="UTF-8"?>
<svg xmlns="http://www.w3.org/2000/svg" xmlns:xlink="http://www.w3.org/1999/xlink" viewBox="0 0 32 32" version="1.1">
<g>
<path d="M 16.59375 5 C 15.992188 5 15.289063 5.105469 14.6875 5.40625 C 11.085938 6.804688 9 7.605469 8.5 7.90625 C 6.398438 8.90625 5.199219 10.613281 5 12.8125 L 4 24.5 L 4 27 L 15 27 L 15 24.1875 L 13.5 15.59375 L 16.5 14.3125 L 17 16.40625 L 17 24 C 17 25.644531 18.355469 27 20 27 L 24 27 C 25.644531 27 27 25.644531 27 24 L 27 16 L 23.6875 16 L 23.5 15.3125 L 22.75 12.78125 C 23.144531 12.910156 23.566406 13 24 13 C 26.199219 13 28 11.199219 28 9 C 28 6.800781 26.199219 5 24 5 C 22.558594 5 21.296875 5.785156 20.59375 6.9375 C 19.628906 5.773438 18.160156 5 16.59375 5 Z M 16.59375 7 C 17.894531 7 19.195313 7.886719 19.59375 9.1875 L 21.59375 16 L 19 16 L 17.90625 11.6875 L 11.3125 14.5 L 13 24.59375 L 13 25 L 10.5 25 L 9.09375 16.8125 L 8.5 25 L 6 25 L 6 24.59375 L 7 13 C 7.101563 11.300781 8.011719 10.289063 9.3125 9.6875 C 9.914063 9.386719 13.007813 8.1875 15.40625 7.1875 C 15.804688 7.085938 16.195313 7 16.59375 7 Z M 24 7 C 25.117188 7 26 7.882813 26 9 C 26 10.117188 25.117188 11 24 11 C 22.882813 11 22 10.117188 22 9 C 22 7.882813 22.882813 7 24 7 Z M 19 18 L 25 18 L 25 24 C 25 24.554688 24.554688 25 24 25 L 20 25 C 19.445313 25 19 24.554688 19 24 Z "></path>
</g>
</svg>
