<?xml version="1.0" encoding="UTF-8"?>
<svg xmlns="http://www.w3.org/2000/svg" xmlns:xlink="http://www.w3.org/1999/xlink" viewBox="0 0 32 32" version="1.1">
<g>
<path d="M 14 3 C 10.144531 3 7 6.144531 7 10 C 7 12.410156 8.230469 14.550781 10.09375 15.8125 C 6.527344 17.339844 4 20.878906 4 25 L 6 25 C 6 20.589844 9.589844 17 14 17 C 17.929688 17 21.207031 19.851563 21.875 23.59375 L 23.53125 21.9375 C 22.640625 19.171875 20.554688 16.945313 17.90625 15.8125 C 19.769531 14.550781 21 12.410156 21 10 C 21 6.144531 17.855469 3 14 3 Z M 14 5 C 16.773438 5 19 7.226563 19 10 C 19 12.773438 16.773438 15 14 15 C 11.226563 15 9 12.773438 9 10 C 9 7.226563 11.226563 5 14 5 Z M 27.28125 20.28125 L 21 26.5625 L 17.71875 23.28125 L 16.28125 24.71875 L 20.28125 28.71875 L 21 29.40625 L 21.71875 28.71875 L 28.71875 21.71875 Z "></path>
</g>
</svg>
