<?xml version="1.0" encoding="UTF-8"?>
<svg xmlns="http://www.w3.org/2000/svg" xmlns:xlink="http://www.w3.org/1999/xlink" viewBox="0 0 32 32" version="1.1">
<g>
<path d="M 14 3 C 10.144531 3 7 6.144531 7 10 C 7 12.410156 8.230469 14.550781 10.09375 15.8125 C 6.527344 17.339844 4 20.878906 4 25 L 6 25 C 6 20.589844 9.589844 17 14 17 C 17.929688 17 21.207031 19.851563 21.875 23.59375 L 23.53125 21.9375 C 22.652344 19.203125 20.605469 16.988281 18 15.84375 C 19.097656 15.261719 20.144531 14.523438 21.09375 13.8125 C 23.160156 12.265625 24.71875 10.71875 24.71875 10.71875 L 25.40625 10 L 24.71875 9.3125 C 24.71875 9.3125 23.207031 7.738281 21.15625 6.1875 C 19.105469 4.636719 16.546875 3 14 3 Z M 14 5 C 15.574219 5 18.019531 6.363281 19.9375 7.8125 C 21.394531 8.914063 21.988281 9.53125 22.46875 10 C 21.976563 10.472656 21.371094 11.089844 19.90625 12.1875 C 17.96875 13.640625 15.496094 15 14 15 C 11.226563 15 9 12.773438 9 10 C 9 7.226563 11.226563 5 14 5 Z M 27.28125 20.28125 L 21 26.5625 L 17.71875 23.28125 L 16.28125 24.71875 L 20.28125 28.71875 L 21 29.40625 L 21.71875 28.71875 L 28.71875 21.71875 Z "></path>
</g>
</svg>
