<?xml version="1.0" encoding="UTF-8"?>
<svg xmlns="http://www.w3.org/2000/svg" xmlns:xlink="http://www.w3.org/1999/xlink" viewBox="0 0 32 32" version="1.1">
<g>
<path d="M 14 4 C 8.542969 4 4 8.542969 4 14 C 4 19.457031 8.542969 24 14 24 L 14 22 C 9.65625 22 6 18.34375 6 14 C 6 9.65625 9.65625 6 14 6 C 18.34375 6 22 9.65625 22 14 L 24 14 C 24 8.542969 19.457031 4 14 4 Z M 14 8 C 10.675781 8 8 10.675781 8 14 C 8 17.324219 10.675781 20 14 20 L 14 18 C 11.722656 18 10 16.277344 10 14 C 10 11.722656 11.722656 10 14 10 C 16.277344 10 18 11.722656 18 14 L 20 14 C 20 10.675781 17.324219 8 14 8 Z M 14 12 C 12.894531 12 12 12.894531 12 14 C 12 15.105469 12.894531 16 14 16 C 15.105469 16 16 15.105469 16 14 C 16 12.894531 15.105469 12 14 12 Z M 19.59375 16 L 19.28125 16.28125 L 16.28125 19.28125 L 16 19.59375 L 16 28 L 28 28 L 28 16 Z M 20.4375 18 L 26 18 L 26 26 L 18 26 L 18 20.4375 Z M 21 21 L 21 23 L 23 23 L 23 21 Z "></path>
</g>
</svg>
