<?xml version="1.0" encoding="UTF-8"?>
<svg xmlns="http://www.w3.org/2000/svg" xmlns:xlink="http://www.w3.org/1999/xlink" viewBox="0 0 32 32" version="1.1">
<g>
<path d="M 10.65625 2.71875 L 10.15625 3.4375 C 9.632813 4.222656 9.191406 5.191406 9.0625 6.375 C 8.484375 6.160156 7.785156 6 7 6 C 6.105469 6 5.277344 6.320313 4.625 6.59375 C 3.972656 6.867188 3.5 7.125 3.5 7.125 L 4.5 8.875 C 4.5 8.875 4.871094 8.632813 5.40625 8.40625 C 5.941406 8.179688 6.636719 8 7 8 C 8.253906 8 9.40625 8.8125 9.40625 8.8125 L 9.4375 8.78125 C 9.484375 8.902344 9.515625 9.035156 9.5625 9.15625 C 9.824219 9.839844 10.09375 10.40625 10.09375 10.40625 L 11.90625 9.59375 C 11.90625 9.59375 11.675781 9.054688 11.4375 8.4375 C 11.199219 7.820313 11 6.984375 11 7 C 11 6.371094 11.316406 5.964844 11.53125 5.5 C 11.558594 5.523438 11.597656 5.539063 11.625 5.5625 C 11.914063 5.816406 12 6.046875 12 6.03125 C 12.03125 6.785156 12 9 12 9 L 12 9.71875 L 12.6875 9.9375 C 13.390625 10.171875 13.699219 10.769531 13.875 11.5 C 14.050781 12.230469 14 12.9375 14 12.9375 L 13.96875 13.34375 L 14.25 13.6875 C 14.25 13.6875 15.566406 15.128906 17.625 15.9375 L 17.9375 16.0625 L 18.28125 15.96875 C 18.867188 15.804688 19.691406 15.324219 20.5625 14.65625 C 20.675781 15.007813 20.820313 15.257813 20.875 15.625 C 20.988281 16.386719 21 17 21 17 L 21 18 L 22 18 C 24.605469 18 26.128906 16.324219 26.9375 14.71875 C 26.945313 14.8125 27 14.847656 27 14.9375 C 27 19.5 23.5625 21.09375 23.5625 21.09375 L 23 21.375 L 23 22.53125 L 23.375 22.84375 C 23.375 22.84375 23.359375 22.820313 23.46875 23.03125 C 23.578125 23.242188 23.71875 23.597656 23.71875 24.25 C 23.71875 24.652344 23.550781 25 23.375 25.25 C 22.917969 25.082031 22.292969 24.90625 21.59375 24.90625 C 21.191406 24.90625 20.785156 24.777344 20.5 24.5 C 20.214844 24.222656 20 23.78125 20 23 L 18 23 C 18 24.199219 18.421875 25.199219 19.09375 25.875 C 18.761719 25.945313 18.390625 26 18 26 C 16.957031 26 15.332031 25.550781 14.09375 24.6875 C 12.855469 23.824219 12 22.652344 12 21 L 10 21 C 10 21.945313 10.203125 22.800781 10.5625 23.5625 C 10.546875 23.570313 10.546875 23.554688 10.53125 23.5625 C 9.957031 23.792969 9.210938 24 9 24 C 8.777344 24 8.039063 23.792969 7.46875 23.5625 C 7.789063 22.773438 8 21.898438 8 21 L 8 16 L 6 16 L 6 21 C 6 22.078125 5.355469 23.46875 4.65625 24.53125 C 3.957031 25.59375 3.28125 26.3125 3.28125 26.3125 L 4.71875 27.6875 C 4.71875 27.6875 5.542969 26.847656 6.34375 25.625 C 6.398438 25.539063 6.445313 25.433594 6.5 25.34375 C 6.578125 25.378906 6.632813 25.402344 6.71875 25.4375 C 7.382813 25.707031 8.152344 26 9 26 C 9.84375 26 10.617188 25.707031 11.28125 25.4375 C 11.453125 25.367188 11.574219 25.316406 11.71875 25.25 C 12.101563 25.664063 12.523438 26.035156 12.96875 26.34375 C 14.582031 27.472656 16.449219 28 18 28 C 19.789063 28 21.183594 27.304688 21.8125 26.9375 C 22.496094 27.003906 23.15625 27.3125 23.15625 27.3125 L 23.71875 27.65625 L 24.25 27.25 C 24.25 27.25 25.71875 26.132813 25.71875 24.25 C 25.71875 23.351563 25.515625 22.703125 25.28125 22.21875 C 26.398438 21.492188 29 19.515625 29 14.9375 C 29 12.816406 27.96875 10.59375 27.96875 10.59375 L 27.71875 10 L 26.03125 10 L 26 10.96875 C 26 10.96875 25.914063 12.296875 25.34375 13.59375 C 24.890625 14.625 24.117188 15.386719 22.90625 15.71875 C 22.886719 15.535156 22.90625 15.550781 22.875 15.34375 C 22.738281 14.425781 22.492188 13.285156 21.78125 12.375 L 21.0625 11.4375 L 20.25 12.3125 C 19.433594 13.214844 18.578125 13.667969 18.0625 13.875 C 16.902344 13.335938 16.15625 12.714844 15.9375 12.5 C 15.945313 12.164063 16 11.8125 15.8125 11.03125 C 15.601563 10.160156 14.988281 9.21875 14 8.5625 C 14.007813 8.097656 14.03125 6.773438 14 5.96875 C 13.964844 5.105469 13.464844 4.5 12.96875 4.0625 C 12.472656 3.625 11.886719 3.316406 11.40625 3.09375 Z M 16 17 C 15.449219 17 15 17.449219 15 18 C 15 18.550781 15.449219 19 16 19 C 16.550781 19 17 18.550781 17 18 C 17 17.449219 16.550781 17 16 17 Z "></path>
</g>
</svg>
