<?xml version="1.0" encoding="UTF-8"?>
<svg xmlns="http://www.w3.org/2000/svg" xmlns:xlink="http://www.w3.org/1999/xlink" viewBox="0 0 32 32" version="1.1">
<g>
<path d="M 7 3 L 7 4 C 7 4 6.988281 4.921875 7 5.4375 C 7.320313 18.886719 12.074219 25.738281 14.1875 28.09375 C 14.484375 28.425781 14.867188 28.804688 15.46875 28.9375 C 16.070313 29.070313 16.632813 28.945313 17.3125 28.71875 L 17.34375 28.71875 L 17.40625 28.6875 C 18.339844 28.289063 20.046875 27.691406 21.5625 27.15625 C 22.320313 26.886719 23.03125 26.636719 23.59375 26.4375 C 24.15625 26.238281 24.488281 26.117188 24.75 26 C 25.277344 25.765625 25.828125 25.339844 25.96875 24.65625 C 26.109375 23.972656 25.800781 23.394531 25.40625 22.9375 C 23.757813 21.023438 20.3125 15.664063 20 5.40625 C 19.988281 5 20 4 20 4 L 20 3 Z M 9 5 L 18 5 C 18 5.207031 17.996094 5.300781 18 5.46875 C 18.320313 16.113281 21.882813 21.898438 23.84375 24.1875 C 23.765625 24.21875 23.414063 24.351563 22.90625 24.53125 C 22.351563 24.726563 21.636719 24.980469 20.875 25.25 C 19.382813 25.777344 17.742188 26.371094 16.6875 26.8125 C 16.667969 26.820313 16.675781 26.804688 16.65625 26.8125 C 16.640625 26.820313 16.609375 26.835938 16.59375 26.84375 C 16.175781 26.964844 15.902344 27 15.90625 27 C 15.910156 27 15.890625 27.011719 15.65625 26.75 C 13.828125 24.710938 9.3125 18.402344 9 5.40625 C 8.996094 5.285156 9 5.175781 9 5 Z M 12 7 L 11 7.03125 C 11.308594 16.46875 14.894531 22.574219 16.46875 24.8125 C 16.996094 24.617188 17.671875 24.359375 18.40625 24.09375 C 17.199219 22.496094 13.324219 16.625 13 7 Z M 15 7 L 14 7.03125 C 14.265625 14.933594 17.03125 19.691406 18.875 22.84375 C 19.054688 23.152344 19.214844 23.4375 19.375 23.71875 C 20.046875 23.476563 20.734375 23.238281 21.3125 23.03125 C 21.101563 22.65625 20.871094 22.265625 20.625 21.84375 C 18.785156 18.691406 16.253906 14.375 16 7 Z "></path>
</g>
</svg>
