<?xml version="1.0" encoding="UTF-8"?>
<svg xmlns="http://www.w3.org/2000/svg" xmlns:xlink="http://www.w3.org/1999/xlink" viewBox="0 0 32 32" version="1.1">
<g>
<path d="M 4 5 L 4 27 L 28 27 L 28 5 Z M 6 7 L 17 7 L 17 25 L 6 25 Z M 19 7 L 26 7 L 26 25 L 19 25 Z M 21 9 C 20.449219 9 20 9.449219 20 10 C 20 10.550781 20.449219 11 21 11 C 21.550781 11 22 10.550781 22 10 C 22 9.449219 21.550781 9 21 9 Z M 24 9 C 23.449219 9 23 9.449219 23 10 C 23 10.550781 23.449219 11 24 11 C 24.550781 11 25 10.550781 25 10 C 25 9.449219 24.550781 9 24 9 Z M 20 12 L 20 14 L 25 14 L 25 12 Z "></path>
</g>
</svg>
