<?xml version="1.0" encoding="UTF-8"?>
<svg xmlns="http://www.w3.org/2000/svg" xmlns:xlink="http://www.w3.org/1999/xlink" viewBox="0 0 32 32" version="1.1">
<g>
<path d="M 16 3 C 14.8125 3 13.785156 3.457031 13.0625 4.15625 C 12.339844 4.855469 11.898438 5.746094 11.59375 6.65625 C 10.984375 8.472656 10.949219 10.394531 11.03125 11.5 C 11.238281 14.308594 12.03125 17.25 12.03125 17.25 L 12.25 18 L 20.6875 18 L 20.9375 17.375 C 20.9375 17.375 21.953125 15.019531 22 12.6875 C 22.039063 10.679688 21.640625 8.394531 20.71875 6.5 C 19.796875 4.605469 18.195313 3 16 3 Z M 16 5 C 17.230469 5 18.167969 5.855469 18.90625 7.375 C 19.644531 8.894531 20.03125 10.960938 20 12.65625 C 19.972656 13.984375 19.558594 15.316406 19.3125 16 L 13.84375 16 C 13.683594 15.371094 13.191406 13.550781 13.03125 11.375 C 12.96875 10.527344 13.027344 8.726563 13.5 7.3125 C 13.738281 6.605469 14.066406 5.984375 14.46875 5.59375 C 14.871094 5.203125 15.296875 5 16 5 Z M 12.4375 21 L 12.25 21.75 C 12.023438 22.597656 11.996094 23.355469 12 24 C 12.019531 26.785156 13.738281 29 16 29 C 18.042969 29 19.496094 27.824219 20.1875 26.40625 C 20.878906 24.988281 21.011719 23.378906 21 22 L 21 21 Z M 14.09375 23 L 18.84375 23 C 18.773438 23.902344 18.734375 24.863281 18.40625 25.53125 C 17.949219 26.464844 17.378906 27 16 27 C 15.070313 27 14.015625 26.023438 14 24 C 13.996094 23.664063 14.058594 23.328125 14.09375 23 Z "></path>
</g>
</svg>
