<?xml version="1.0" encoding="UTF-8"?>
<svg xmlns="http://www.w3.org/2000/svg" xmlns:xlink="http://www.w3.org/1999/xlink" viewBox="0 0 32 32" version="1.1">
<g>
<path d="M 16 5 C 10.253906 5 5.308594 7.40625 3.15625 10.8125 C 2.417969 11.871094 2 12.957031 2 14 C 2 14.125 2.023438 14.253906 2.03125 14.375 C 2.027344 14.457031 2 14.542969 2 14.625 C 2 17.902344 4.300781 20.6875 8.375 22.4375 C 8.128906 21.667969 8 20.851563 8 20 C 8 19.582031 8.03125 19.179688 8.09375 18.78125 C 5.957031 18.269531 4.191406 16.859375 4.03125 14.375 C 4.066406 13.710938 4.210938 13.050781 4.5 12.4375 C 5.929688 9.996094 10.273438 7 16 7 C 21.726563 7 26.070313 9.996094 27.5 12.4375 C 27.785156 13.042969 27.933594 13.683594 27.96875 14.34375 C 27.796875 16.195313 26.238281 18.046875 23.875 18.71875 C 23.941406 19.136719 24 19.5625 24 20 C 24 20.851563 23.871094 21.667969 23.625 22.4375 C 27.699219 20.6875 30 17.902344 30 14.625 C 30 14.535156 29.972656 14.433594 29.96875 14.34375 C 29.976563 14.226563 30 14.113281 30 14 C 30 12.957031 29.582031 11.871094 28.84375 10.8125 C 26.691406 7.40625 21.746094 5 16 5 Z M 16 13 C 12.144531 13 9 16.144531 9 20 C 9 23.855469 12.144531 27 16 27 C 19.855469 27 23 23.855469 23 20 C 23 16.144531 19.855469 13 16 13 Z M 16 15 C 16.867188 15 17.667969 15.242188 18.375 15.625 L 16.78125 18 L 15.21875 18 L 13.625 15.625 C 14.332031 15.242188 15.132813 15 16 15 Z M 12.0625 16.90625 L 13.5 19.03125 L 12.96875 20 L 11 20 C 11 18.832031 11.398438 17.753906 12.0625 16.90625 Z M 19.9375 16.90625 C 20.601563 17.753906 21 18.832031 21 20 L 19.03125 20 L 18.5 19.03125 Z M 15.25 20 L 16.75 20 L 17.34375 21.0625 L 16.75 22 L 15.25 22 L 14.65625 21.0625 Z M 11.4375 22 L 12.90625 22 L 13.625 23.21875 L 13.0625 24.0625 C 12.34375 23.542969 11.796875 22.820313 11.4375 22 Z M 19.09375 22 L 20.5625 22 C 20.203125 22.820313 19.65625 23.542969 18.9375 24.0625 L 18.375 23.21875 Z M 15.5625 24 L 16.4375 24 L 17.03125 24.90625 C 16.695313 24.976563 16.355469 25 16 25 C 15.644531 25 15.304688 24.976563 14.96875 24.90625 Z "></path>
</g>
</svg>
