<?xml version="1.0" encoding="UTF-8"?>
<svg xmlns="http://www.w3.org/2000/svg" xmlns:xlink="http://www.w3.org/1999/xlink" viewBox="0 0 32 32" version="1.1">
<g>
<path d="M 9.96875 2.71875 L 8.03125 3.28125 C 8.03125 3.28125 8.289063 4.132813 8.84375 5.40625 C 8.164063 5.914063 7.558594 6.488281 7 7.125 C 6.054688 5.128906 5.625 3.8125 5.625 3.8125 L 3.71875 4.375 C 3.71875 4.375 4.300781 6.296875 5.65625 8.96875 C 4.617188 10.746094 4 12.800781 4 15 C 4 17.949219 5.070313 20.65625 6.84375 22.75 L 2.0625 27.53125 L 3.46875 28.9375 L 8.25 24.15625 C 10.34375 25.929688 13.050781 27 16 27 C 18.25 27 20.355469 26.363281 22.15625 25.28125 C 23.578125 25.929688 25.097656 26.503906 26.71875 26.96875 L 27.28125 25.03125 C 26.128906 24.703125 25.066406 24.300781 24.03125 23.875 C 24.679688 23.285156 25.273438 22.65625 25.78125 21.9375 C 26.71875 22.316406 27.691406 22.671875 28.71875 22.96875 L 29.28125 21.03125 C 28.421875 20.78125 27.605469 20.492188 26.8125 20.1875 C 27.570313 18.613281 28 16.859375 28 15 C 28 8.382813 22.617188 3 16 3 C 14.03125 3 12.171875 3.46875 10.53125 4.3125 C 10.117188 3.320313 9.96875 2.71875 9.96875 2.71875 Z M 16 5 C 21.535156 5 26 9.464844 26 15 C 26 15.433594 25.960938 15.863281 25.90625 16.28125 C 20.304688 13.578125 16.675781 9.578125 14.40625 6.15625 C 13.710938 6.28125 13.035156 6.476563 12.40625 6.75 C 14.847656 10.585938 18.964844 15.226563 25.46875 18.25 C 24.640625 20.664063 22.910156 22.632813 20.6875 23.8125 C 14.320313 20.527344 10.230469 15.554688 7.75 11.4375 C 7.394531 12.257813 7.160156 13.136719 7.0625 14.0625 C 9.507813 17.707031 13.085938 21.734375 18.21875 24.75 C 17.507813 24.910156 16.761719 25 16 25 C 10.464844 25 6 20.535156 6 15 C 6 9.464844 10.464844 5 16 5 Z M 12.46875 10.25 C 12.320313 10.261719 12.175781 10.296875 12.03125 10.375 C 11.5 10.660156 11.3125 11.253906 11.59375 11.78125 C 11.765625 12.105469 12.078125 12.292969 12.40625 12.28125 C 12.40625 12.28125 12.402344 12.308594 12.40625 12.3125 C 11.835938 12.632813 11.359375 12.601563 11.15625 12.21875 C 11.039063 12 11.066406 11.777344 11.21875 11.625 L 10.90625 11.03125 C 10.484375 11.355469 10.375 11.941406 10.65625 12.46875 C 11.042969 13.191406 11.855469 13.339844 12.78125 12.84375 C 13.160156 12.640625 13.4375 12.375 13.59375 12.09375 C 13.816406 11.726563 13.808594 11.304688 13.59375 10.90625 C 13.34375 10.441406 12.910156 10.210938 12.46875 10.25 Z M 12.5625 10.875 C 12.78125 10.855469 13.011719 10.972656 13.125 11.1875 C 13.277344 11.472656 13.15625 11.785156 12.875 11.9375 C 12.597656 12.085938 12.28125 12.007813 12.125 11.71875 C 11.96875 11.429688 12.058594 11.089844 12.34375 10.9375 C 12.414063 10.902344 12.488281 10.882813 12.5625 10.875 Z M 14.375 12.78125 C 14.085938 12.746094 13.78125 12.820313 13.53125 13.03125 C 13.066406 13.417969 13.023438 14.039063 13.40625 14.5 C 13.640625 14.78125 13.929688 14.890625 14.25 14.8125 L 14.28125 14.8125 C 14.28125 14.8125 14.277344 14.839844 14.28125 14.84375 C 13.785156 15.273438 13.308594 15.363281 13.03125 15.03125 C 12.875 14.839844 12.847656 14.585938 12.96875 14.40625 L 12.5625 13.90625 C 12.21875 14.308594 12.242188 14.882813 12.625 15.34375 C 13.152344 15.976563 13.945313 15.953125 14.75 15.28125 C 15.078125 15.007813 15.308594 14.714844 15.40625 14.40625 C 15.550781 14.003906 15.445313 13.597656 15.15625 13.25 C 14.929688 12.976563 14.664063 12.816406 14.375 12.78125 Z M 14.375 13.375 C 14.519531 13.390625 14.648438 13.46875 14.75 13.59375 C 14.957031 13.84375 14.933594 14.203125 14.6875 14.40625 C 14.445313 14.609375 14.117188 14.566406 13.90625 14.3125 C 13.695313 14.058594 13.722656 13.738281 13.96875 13.53125 C 14.089844 13.429688 14.230469 13.359375 14.375 13.375 Z M 16.28125 14.9375 C 15.992188 14.953125 15.710938 15.09375 15.5 15.34375 C 15.113281 15.804688 15.167969 16.429688 15.625 16.8125 C 15.90625 17.046875 16.230469 17.105469 16.53125 16.96875 C 16.53125 16.96875 16.558594 16.964844 16.5625 16.96875 C 16.152344 17.480469 15.703125 17.652344 15.375 17.375 C 15.1875 17.21875 15.101563 16.980469 15.1875 16.78125 L 14.6875 16.375 C 14.421875 16.832031 14.542969 17.398438 15 17.78125 C 15.628906 18.304688 16.421875 18.144531 17.09375 17.34375 C 17.367188 17.015625 17.523438 16.664063 17.5625 16.34375 C 17.632813 15.921875 17.503906 15.539063 17.15625 15.25 C 16.886719 15.023438 16.570313 14.921875 16.28125 14.9375 Z M 16.375 15.53125 C 16.519531 15.519531 16.6875 15.554688 16.8125 15.65625 C 17.058594 15.863281 17.078125 16.226563 16.875 16.46875 C 16.671875 16.710938 16.347656 16.742188 16.09375 16.53125 C 15.839844 16.320313 15.792969 15.964844 16 15.71875 C 16.101563 15.597656 16.230469 15.542969 16.375 15.53125 Z M 19.9375 17.25 C 19.472656 17.195313 19.035156 17.40625 18.8125 17.84375 C 18.539063 18.378906 18.71875 18.976563 19.25 19.25 C 19.574219 19.417969 19.921875 19.386719 20.1875 19.1875 C 20.1875 19.1875 20.214844 19.214844 20.21875 19.21875 C 19.933594 19.808594 19.511719 20.042969 19.125 19.84375 C 18.90625 19.730469 18.804688 19.523438 18.84375 19.3125 L 18.25 19.03125 C 18.089844 19.539063 18.34375 20.070313 18.875 20.34375 C 19.605469 20.71875 20.335938 20.371094 20.8125 19.4375 C 21.007813 19.054688 21.09375 18.695313 21.0625 18.375 C 21.039063 17.945313 20.808594 17.613281 20.40625 17.40625 C 20.25 17.324219 20.09375 17.269531 19.9375 17.25 Z M 19.9375 17.8125 C 20.011719 17.820313 20.085938 17.839844 20.15625 17.875 C 20.445313 18.023438 20.550781 18.371094 20.40625 18.65625 C 20.261719 18.9375 19.949219 19.027344 19.65625 18.875 C 19.363281 18.722656 19.257813 18.414063 19.40625 18.125 C 19.515625 17.914063 19.714844 17.792969 19.9375 17.8125 Z M 17.03125 18.46875 C 16.9375 18.488281 16.871094 18.53125 16.8125 18.625 C 16.691406 18.808594 16.710938 19.027344 16.90625 19.15625 C 17.101563 19.285156 17.316406 19.246094 17.4375 19.0625 C 17.558594 18.878906 17.507813 18.660156 17.3125 18.53125 C 17.214844 18.46875 17.125 18.449219 17.03125 18.46875 Z "></path>
</g>
</svg>
