<?xml version="1.0" encoding="UTF-8"?>
<svg xmlns="http://www.w3.org/2000/svg" xmlns:xlink="http://www.w3.org/1999/xlink" viewBox="0 0 32 32" version="1.1">
<g>
<path d="M 16 4 C 12.28125 4 9.148438 6.746094 9 10.25 C 7.433594 10.773438 5.855469 11.519531 4.5625 12.625 C 3.113281 13.863281 2.074219 15.648438 2.03125 17.875 L 2 17.875 C 2 17.875 2 17.902344 2 17.90625 C 2 17.90625 2 17.964844 2 17.96875 C 2 17.980469 2 17.988281 2 18 C 1.996094 18.054688 1.992188 18.078125 2 18.21875 C 1.984375 18.746094 2.027344 20.601563 3.40625 22.5625 C 5.015625 24.851563 8.417969 27 15 27 L 17 27 C 23.582031 27 26.984375 24.851563 28.59375 22.5625 C 29.972656 20.601563 30.015625 18.746094 30 18.21875 C 30.007813 18.078125 30.003906 18.054688 30 18 C 30 18 30 17.96875 30 17.96875 C 30 17.964844 30 17.90625 30 17.90625 C 30 17.902344 30 17.875 30 17.875 L 29.96875 17.875 C 29.925781 15.648438 28.886719 13.863281 27.4375 12.625 C 26.144531 11.519531 24.566406 10.773438 23 10.25 C 22.851563 6.746094 19.71875 4 16 4 Z M 16 6 C 18.492188 6 20.476563 7.59375 20.90625 9.65625 C 20.054688 9.464844 19.292969 9.347656 18.59375 9.25 C 18.429688 9.011719 18.21875 8.789063 18 8.625 C 17.441406 8.207031 16.753906 8 16 8 C 15.246094 8 14.558594 8.207031 14 8.625 C 13.78125 8.789063 13.570313 9.011719 13.40625 9.25 C 12.707031 9.347656 11.945313 9.464844 11.09375 9.65625 C 11.523438 7.59375 13.507813 6 16 6 Z M 16 10 C 16.351563 10 16.644531 10.125 16.8125 10.25 C 16.980469 10.375 17 10.445313 17 10.5 C 17 10.554688 16.980469 10.625 16.8125 10.75 C 16.644531 10.875 16.351563 11 16 11 C 15.648438 11 15.355469 10.875 15.1875 10.75 C 15.019531 10.625 15 10.554688 15 10.5 C 15 10.445313 15.019531 10.375 15.1875 10.25 C 15.355469 10.125 15.648438 10 16 10 Z M 13.1875 11.3125 C 13.367188 11.734375 13.652344 12.113281 14 12.375 C 14.558594 12.792969 15.246094 13 16 13 C 16.753906 13 17.441406 12.792969 18 12.375 C 18.347656 12.113281 18.632813 11.734375 18.8125 11.3125 C 19.429688 11.414063 20.078125 11.574219 20.78125 11.75 C 20.1875 13.609375 18.320313 15 16 15 C 13.679688 15 11.8125 13.609375 11.21875 11.75 C 11.921875 11.574219 12.570313 11.414063 13.1875 11.3125 Z M 9.28125 12.28125 C 10.128906 15.015625 12.847656 17 16 17 C 19.152344 17 21.871094 15.015625 22.71875 12.28125 C 24.003906 12.742188 25.230469 13.367188 26.15625 14.15625 C 27.308594 15.140625 28 16.304688 28 18 L 28 18.09375 C 28 18.09375 27.996094 18.199219 28 18.28125 C 28.003906 18.609375 27.925781 19.394531 27.0625 20.3125 C 25.914063 21.539063 23.214844 23 17 23 L 15 23 C 8.785156 23 6.085938 21.539063 4.9375 20.3125 C 4.132813 19.453125 4.011719 18.734375 4 18.375 C 4 18.316406 4 18.324219 4 18.28125 C 4 18.171875 4 18.125 4 18.125 C 4 18.121094 4 18.09375 4 18.09375 L 4 18 C 4 16.300781 4.722656 15.109375 5.875 14.125 C 6.800781 13.335938 8.003906 12.734375 9.28125 12.28125 Z "></path>
</g>
</svg>
