<?xml version="1.0" encoding="UTF-8"?>
<svg xmlns="http://www.w3.org/2000/svg" xmlns:xlink="http://www.w3.org/1999/xlink" viewBox="0 0 32 32" version="1.1">
<g>
<path d="M 12.585938 2 L 8.519531 6.066406 L 10.484375 7.703125 C 6.726563 9.6875 4.167969 13.632813 4.167969 18.167969 C 4.167969 24.691406 9.476563 30 16 30 C 22.523438 30 27.832031 24.691406 27.832031 18.167969 C 27.832031 13.632813 25.277344 9.6875 21.519531 7.703125 L 23.480469 6.066406 L 19.414063 2 Z M 13.667969 4 L 18.332031 4 L 17.667969 5 L 14.332031 5 Z M 12.761719 7 L 19.238281 7 L 16 9.699219 Z M 12.167969 9.109375 L 16 12.300781 L 16.640625 11.765625 L 19.828125 9.109375 C 23.355469 10.601563 25.832031 14.085938 25.832031 18.167969 C 25.832031 23.609375 21.441406 28 16 28 C 10.558594 28 6.167969 23.609375 6.167969 18.167969 C 6.167969 14.089844 8.644531 10.601563 12.167969 9.109375 Z "></path>
</g>
</svg>
