<?xml version="1.0" encoding="UTF-8"?>
<svg xmlns="http://www.w3.org/2000/svg" xmlns:xlink="http://www.w3.org/1999/xlink" viewBox="0 0 32 32" version="1.1">
<g>
<path d="M 8 6 C 6.355469 6 5 7.355469 5 9 C 5 9.765625 5.300781 10.46875 5.78125 11 L 3 11 L 3 19 L 5 19 L 5 27 L 7 27 L 7 24 L 25 24 L 25 27 L 27 27 L 27 19 L 29 19 L 29 11 L 26.21875 11 C 26.699219 10.46875 27 9.765625 27 9 C 27 7.355469 25.644531 6 24 6 C 22.355469 6 21 7.355469 21 9 C 21 9.765625 21.300781 10.46875 21.78125 11 L 10.21875 11 C 10.699219 10.46875 11 9.765625 11 9 C 11 7.355469 9.644531 6 8 6 Z M 8 8 C 8.5625 8 9 8.4375 9 9 C 9 9.5625 8.5625 10 8 10 C 7.4375 10 7 9.5625 7 9 C 7 8.4375 7.4375 8 8 8 Z M 24 8 C 24.5625 8 25 8.4375 25 9 C 25 9.5625 24.5625 10 24 10 C 23.4375 10 23 9.5625 23 9 C 23 8.4375 23.4375 8 24 8 Z M 5 13 L 6.84375 13 L 5 15.75 Z M 9.34375 13 L 12.84375 13 L 10.15625 17 L 6.65625 17 Z M 15.34375 13 L 18.84375 13 L 16.15625 17 L 12.65625 17 Z M 21.34375 13 L 24.84375 13 L 22.15625 17 L 18.65625 17 Z M 27 13.5 L 27 17 L 24.65625 17 Z M 7 19 L 25 19 L 25 22 L 7 22 Z "></path>
</g>
</svg>
