<?xml version="1.0" encoding="UTF-8"?>
<svg xmlns="http://www.w3.org/2000/svg" xmlns:xlink="http://www.w3.org/1999/xlink" viewBox="0 0 32 32" version="1.1">
<g>
<path d="M 16 4 C 13.789063 4 12 5.789063 12 8 C 12 9.195313 12.515625 10.265625 13.34375 11 L 3 11 L 3 19 L 5 19 L 5 27 L 7 27 L 7 24 L 25 24 L 25 27 L 27 27 L 27 19 L 29 19 L 29 11 L 18.65625 11 C 19.484375 10.265625 20 9.195313 20 8 C 20 5.789063 18.210938 4 16 4 Z M 14 7 L 18 7 L 18 9 L 14 9 Z M 5 13 L 6.84375 13 L 5 15.75 Z M 9.34375 13 L 12.84375 13 L 10.15625 17 L 6.65625 17 Z M 15.34375 13 L 18.84375 13 L 16.15625 17 L 12.65625 17 Z M 21.34375 13 L 24.84375 13 L 22.15625 17 L 18.65625 17 Z M 27 13.5 L 27 17 L 24.65625 17 Z M 7 19 L 25 19 L 25 22 L 7 22 Z "></path>
</g>
</svg>
