<?xml version="1.0" encoding="UTF-8"?>
<svg xmlns="http://www.w3.org/2000/svg" xmlns:xlink="http://www.w3.org/1999/xlink" viewBox="0 0 32 32" version="1.1">
<g>
<path d="M 11 2 L 11 7 L 8.4375 7 L 8.15625 7.5 L 5.15625 12.5 L 5 12.71875 L 5 18.0625 C 3.867188 18.296875 3 19.300781 3 20.5 L 3 21 L 5 21 L 5 20.5 C 5 20.214844 5.214844 20 5.5 20 C 5.785156 20 6 20.214844 6 20.5 L 6 21 L 8 21 L 8 20.5 C 8 19.691406 7.601563 18.988281 7 18.53125 L 7 13.25 L 9 9.90625 L 9 20 L 12 20 L 12 28 L 11 28 L 11 30 L 21 30 L 21 28 L 20 28 L 20 20 L 23 20 L 23 9.90625 L 25 13.25 L 25 18.53125 C 24.398438 18.988281 24 19.691406 24 20.5 L 24 21 L 26 21 L 26 20.5 C 26 20.214844 26.214844 20 26.5 20 C 26.785156 20 27 20.214844 27 20.5 L 27 21 L 29 21 L 29 20.5 C 29 19.300781 28.132813 18.296875 27 18.0625 L 27 12.71875 L 26.84375 12.5 L 23.84375 7.5 L 23.5625 7 L 21 7 L 21 2 Z M 13 4 L 19 4 L 19 7 L 13 7 Z M 14.5 5 C 14.222656 5 14 5.222656 14 5.5 C 14 5.777344 14.222656 6 14.5 6 C 14.777344 6 15 5.777344 15 5.5 C 15 5.222656 14.777344 5 14.5 5 Z M 17.5 5 C 17.222656 5 17 5.222656 17 5.5 C 17 5.777344 17.222656 6 17.5 6 C 17.777344 6 18 5.777344 18 5.5 C 18 5.222656 17.777344 5 17.5 5 Z M 11 9 L 21 9 L 21 18 L 11 18 Z M 18 11 L 18 15 L 20 15 L 20 11 Z M 12 12 L 12 15 L 14 15 L 14 12 Z M 15 13 L 15 15 L 17 15 L 17 13 Z M 14 20 L 15 20 L 15 28 L 14 28 Z M 17 20 L 18 20 L 18 28 L 17 28 Z "></path>
</g>
</svg>
