<?xml version="1.0" encoding="UTF-8"?>
<svg xmlns="http://www.w3.org/2000/svg" xmlns:xlink="http://www.w3.org/1999/xlink" viewBox="0 0 32 32" version="1.1">
<g>
<path d="M 10 2 L 10 10 L 15 10 L 15 11 L 7.90625 11 L 7.90625 11.0625 C 7.773438 11.039063 7.640625 11 7.5 11 C 6.132813 11 5 12.132813 5 13.5 C 5 14.199219 5.308594 14.824219 5.78125 15.28125 L 4.3125 19.03125 C 3.03125 19.132813 2 20.195313 2 21.5 L 2 22 L 4 22 L 4 21.5 C 4 21.214844 4.214844 21 4.5 21 C 4.785156 21 5 21.214844 5 21.5 L 5 22 L 7 22 L 7 21.5 C 7 20.800781 6.691406 20.175781 6.21875 19.71875 L 7.6875 16 C 7.914063 15.980469 8.136719 15.921875 8.34375 15.84375 L 9 23.09375 L 9.09375 24 L 12 24 L 12 30 L 20 30 L 20 24 L 22.90625 24 L 23 23.09375 L 23.65625 15.84375 C 23.863281 15.917969 24.085938 15.949219 24.3125 15.96875 L 25.78125 19.71875 C 25.308594 20.175781 25 20.800781 25 21.5 L 25 22 L 27 22 L 27 21.5 C 27 21.214844 27.214844 21 27.5 21 C 27.785156 21 28 21.214844 28 21.5 L 28 22 L 30 22 L 30 21.5 C 30 20.195313 28.96875 19.132813 27.6875 19.03125 L 26.21875 15.28125 C 26.691406 14.824219 27 14.199219 27 13.5 C 27 12.132813 25.867188 11 24.5 11 C 24.359375 11 24.226563 11.039063 24.09375 11.0625 L 24.09375 11 L 17 11 L 17 10 L 22 10 L 22 2 Z M 12 4 L 20 4 L 20 8 L 12 8 Z M 14 5 C 13.449219 5 13 5.449219 13 6 C 13 6.550781 13.449219 7 14 7 C 14.550781 7 15 6.550781 15 6 C 15 5.449219 14.550781 5 14 5 Z M 18 5 C 17.449219 5 17 5.449219 17 6 C 17 6.550781 17.449219 7 18 7 C 18.550781 7 19 6.550781 19 6 C 19 5.449219 18.550781 5 18 5 Z M 7.5 13 C 7.789063 13 8 13.210938 8 13.5 C 8 13.789063 7.789063 14 7.5 14 C 7.210938 14 7 13.789063 7 13.5 C 7 13.210938 7.210938 13 7.5 13 Z M 10.09375 13 L 21.90625 13 L 21.09375 22 L 10.90625 22 Z M 24.5 13 C 24.789063 13 25 13.210938 25 13.5 C 25 13.789063 24.789063 14 24.5 14 C 24.210938 14 24 13.789063 24 13.5 C 24 13.210938 24.210938 13 24.5 13 Z M 14 24 L 18 24 L 18 25 L 17 25 L 17 27 L 18 27 L 18 28 L 14 28 L 14 27 L 15 27 L 15 25 L 14 25 Z "></path>
</g>
</svg>
