<?xml version="1.0" encoding="UTF-8"?>
<svg xmlns="http://www.w3.org/2000/svg" xmlns:xlink="http://www.w3.org/1999/xlink" viewBox="0 0 32 32" version="1.1">
<g>
<path d="M 20.59375 3 C 19.316406 3 18.410156 3.753906 17.875 4.0625 C 16.738281 4.722656 16.152344 5 15 5 C 14.703125 5 14.410156 4.996094 14.09375 4.96875 C 13.492188 4.910156 12.277344 4.6875 11.34375 4.6875 C 10.933594 4.6875 10.539063 4.71875 10.125 4.78125 C 8.820313 4.976563 7.9375 5.769531 7.4375 6.5 C 6.9375 7.230469 6.644531 7.871094 6.1875 8.28125 C 5.949219 8.496094 5.628906 8.6875 5.28125 9 C 4.933594 9.3125 4.566406 9.78125 4.40625 10.40625 C 4.085938 11.664063 4.554688 12.789063 4.625 13.40625 C 4.726563 14.273438 4.769531 14.828125 4.5625 15.25 C 4.335938 15.714844 3.585938 16.292969 3.1875 17.46875 C 2.675781 18.988281 3.265625 20.257813 3.46875 21.21875 C 3.640625 22.039063 3.457031 22.417969 3.3125 23.5 C 3.175781 24.519531 3.398438 25.5 4 26.21875 C 4.601563 26.9375 5.46875 27.34375 6.46875 27.53125 C 6.546875 27.546875 6.640625 27.546875 6.71875 27.5625 C 7.007813 27.667969 7.296875 27.738281 7.59375 27.75 C 7.796875 27.785156 7.984375 27.816406 8.1875 27.84375 C 8.199219 27.84375 8.207031 27.84375 8.21875 27.84375 C 8.59375 27.894531 8.894531 27.863281 9.09375 27.875 C 9.296875 27.886719 9.351563 27.933594 9.3125 27.90625 C 9.308594 27.902344 9.238281 27.804688 9.40625 28.125 C 9.488281 28.285156 9.683594 28.535156 9.96875 28.71875 C 10.253906 28.902344 10.566406 28.988281 10.875 29 C 10.996094 29.007813 11.105469 29 11.21875 29 C 13.5 29 15.296875 28.25 17.15625 27.875 C 17.679688 27.769531 18.347656 27.683594 19 27.53125 C 20.15625 27.257813 21.40625 27.171875 22.75 26.9375 C 24.03125 26.714844 25.195313 26.148438 25.90625 24.9375 C 26.070313 24.660156 26.394531 24.429688 26.90625 24.09375 C 27.417969 23.757813 28.15625 23.253906 28.5 22.34375 C 28.914063 21.242188 28.863281 20.128906 28.75 19.125 C 28.75 19.113281 28.75 19.105469 28.75 19.09375 C 28.617188 17.992188 28.214844 17.335938 27.8125 16.5625 C 27.761719 16.46875 27.753906 16.488281 27.75 16.46875 C 27.78125 16.429688 28 16.1875 28.3125 15.71875 C 28.726563 15.09375 29.214844 14.257813 28.9375 13.15625 C 28.824219 12.699219 28.648438 12.144531 28.28125 11.625 C 28.097656 11.367188 27.953125 11.253906 27.875 11.1875 C 27.886719 11.214844 27.859375 11.230469 27.90625 11.0625 C 27.964844 10.839844 28.117188 10.523438 28.09375 10 L 28.09375 9.96875 C 28.058594 9.277344 27.714844 8.65625 27.28125 8.28125 C 26.847656 7.90625 26.398438 7.722656 26 7.5625 C 25.574219 7.390625 25.453125 7.273438 25.4375 7.25 C 25.421875 7.226563 25.367188 7.160156 25.40625 6.78125 C 25.539063 5.535156 24.832031 4.464844 24 4 C 23.40625 3.667969 22.8125 3.535156 22.25 3.40625 C 21.929688 3.203125 21.5625 3.066406 21.15625 3 L 21.15625 3.09375 C 20.960938 3.042969 20.777344 3 20.59375 3 Z M 20.59375 5 C 20.6875 5 20.746094 5.027344 20.8125 5.0625 L 20.90625 5.09375 L 21.03125 5.125 C 21.128906 5.152344 21.214844 5.160156 21.3125 5.1875 C 21.367188 5.230469 21.417969 5.277344 21.46875 5.34375 C 21.621094 5.546875 21.742188 5.875 21.8125 6.28125 C 21.949219 7.089844 21.859375 8.09375 21.8125 8.65625 C 21.785156 8.984375 21.507813 9.535156 21.59375 10.4375 C 21.671875 11.222656 21.871094 11.660156 21.875 11.96875 C 21.878906 12.496094 21.765625 12.953125 21.65625 13.5625 C 21.546875 14.171875 21.488281 14.945313 21.78125 15.8125 C 21.972656 16.378906 22.027344 16.800781 22 16.9375 C 21.972656 17.074219 21.972656 17.140625 21.4375 17.375 C 21.121094 17.511719 20.515625 17.53125 19.78125 17.96875 C 19.4375 18.171875 19.242188 18.3125 19.125 18.375 C 19.007813 18.4375 18.945313 18.472656 18.65625 18.53125 C 18.015625 18.660156 17.332031 18.871094 16.75 19.34375 C 16.167969 19.816406 15.742188 20.636719 15.75 21.53125 C 15.753906 21.96875 15.8125 22.257813 15.8125 22.3125 C 15.8125 22.300781 15.808594 22.300781 15.75 22.375 C 15.515625 22.675781 15.054688 22.980469 15 23.03125 C 14.894531 22.953125 14.703125 22.804688 14.34375 22.6875 C 13.492188 22.410156 12.738281 22.742188 12.25 23.03125 L 12.0625 23.15625 L 11.9375 23.34375 C 11.691406 23.710938 10.617188 24.640625 9.5625 25.1875 C 9.035156 25.460938 8.515625 25.648438 8.09375 25.71875 C 7.996094 25.734375 7.925781 25.714844 7.84375 25.71875 C 7.515625 25.660156 7.191406 25.625 6.84375 25.5625 C 6.136719 25.429688 5.734375 25.179688 5.53125 24.9375 C 5.328125 24.695313 5.230469 24.382813 5.3125 23.75 C 5.433594 22.847656 5.664063 22.046875 5.40625 20.8125 C 5.148438 19.589844 4.851563 18.816406 5.09375 18.09375 C 5.253906 17.613281 5.875 17.148438 6.375 16.125 C 6.914063 15.023438 6.6875 13.972656 6.59375 13.1875 C 6.480469 12.214844 6.246094 11.285156 6.34375 10.90625 C 6.394531 10.707031 6.441406 10.632813 6.625 10.46875 C 6.808594 10.304688 7.152344 10.117188 7.53125 9.78125 C 8.363281 9.039063 8.730469 8.1875 9.09375 7.65625 C 9.457031 7.125 9.664063 6.859375 10.40625 6.75 C 10.691406 6.707031 11.003906 6.6875 11.34375 6.6875 C 11.9375 6.6875 13.152344 6.867188 13.90625 6.9375 C 14.273438 6.972656 14.632813 7 15 7 C 16.539063 7 17.65625 6.488281 18.875 5.78125 C 19.554688 5.386719 20.28125 5 20.59375 5 Z M 23.84375 8.4375 C 24.199219 8.929688 24.691406 9.210938 25.25 9.4375 C 25.621094 9.585938 25.871094 9.699219 25.96875 9.78125 C 26.066406 9.863281 26.082031 9.859375 26.09375 10.09375 C 26.09375 10.0625 26.050781 10.257813 25.96875 10.5625 C 25.886719 10.867188 25.753906 11.324219 25.96875 11.90625 C 26.109375 12.285156 26.359375 12.53125 26.5 12.65625 C 26.640625 12.78125 26.6875 12.824219 26.65625 12.78125 C 26.734375 12.890625 26.929688 13.34375 27 13.625 C 27 13.625 26.84375 14.285156 26.65625 14.59375 C 26.652344 14.601563 26.660156 14.617188 26.65625 14.625 C 26.488281 14.867188 26.242188 15.050781 25.96875 15.53125 C 25.828125 15.777344 25.703125 16.140625 25.71875 16.5 C 25.734375 16.859375 25.863281 17.183594 26.03125 17.5 C 26.480469 18.359375 26.660156 18.546875 26.75 19.34375 C 26.851563 20.234375 26.855469 20.996094 26.625 21.625 C 26.515625 21.914063 26.277344 22.101563 25.8125 22.40625 C 25.347656 22.710938 24.660156 23.101563 24.1875 23.90625 C 23.742188 24.664063 23.445313 24.789063 22.40625 24.96875 C 21.207031 25.179688 19.902344 25.238281 18.53125 25.5625 C 18.023438 25.683594 17.371094 25.78125 16.75 25.90625 C 14.660156 26.328125 13.039063 27 11.21875 27 C 11.152344 27 11.09375 27.003906 11.03125 27 C 10.996094 26.921875 10.964844 26.824219 10.90625 26.71875 C 11.910156 26.140625 12.765625 25.457031 13.34375 24.71875 C 13.554688 24.605469 13.667969 24.578125 13.71875 24.59375 C 13.691406 24.585938 13.753906 24.605469 13.96875 24.75 C 14.183594 24.894531 14.65625 25.117188 15.15625 25.0625 C 16.328125 24.9375 16.902344 24.152344 17.3125 23.625 C 17.621094 23.226563 17.8125 22.695313 17.8125 22.3125 C 17.8125 21.929688 17.753906 21.734375 17.75 21.5 C 17.746094 21.160156 17.800781 21.070313 18 20.90625 C 18.199219 20.742188 18.585938 20.589844 19.03125 20.5 C 19.453125 20.414063 19.820313 20.273438 20.09375 20.125 C 20.367188 19.976563 20.542969 19.847656 20.8125 19.6875 C 21.011719 19.570313 21.527344 19.53125 22.25 19.21875 C 23.15625 18.824219 23.820313 18.082031 23.96875 17.28125 C 24.117188 16.480469 23.871094 15.828125 23.65625 15.1875 C 23.492188 14.695313 23.539063 14.382813 23.625 13.90625 C 23.710938 13.429688 23.878906 12.804688 23.875 11.96875 C 23.871094 11.125 23.628906 10.597656 23.59375 10.25 C 23.5625 9.9375 23.746094 9.59375 23.8125 8.8125 C 23.820313 8.738281 23.835938 8.546875 23.84375 8.4375 Z M 17.8125 9 C 17.136719 9.019531 16.074219 9.859375 15.75 10.09375 C 15.351563 10.386719 14.742188 10.265625 14.40625 10.625 C 14.199219 10.847656 13.992188 11.441406 14 11.75 C 14.019531 12.375 14.425781 12.894531 14.5 13.5 C 14.609375 14.335938 14.0625 15.933594 15.34375 16 C 15.976563 16.03125 16.296875 15.570313 16.6875 15.15625 C 17.070313 14.746094 17.582031 14.371094 18.0625 14.09375 C 18.339844 13.933594 18.878906 13.839844 18.875 13.40625 C 18.875 13.160156 18.542969 12.984375 18.5625 12.6875 C 18.582031 12.378906 18.894531 12.113281 18.96875 11.8125 C 19.082031 11.371094 18.824219 11.359375 18.53125 11.09375 C 17.90625 10.523438 18.589844 9.96875 18.3125 9.3125 C 18.214844 9.085938 18.039063 8.992188 17.8125 9 Z M 10.3125 15 C 9.925781 15.027344 9.597656 15.921875 9.5 16.15625 C 9.394531 16.40625 9.054688 16.519531 9 16.78125 C 8.96875 16.941406 9.0625 17.300781 9.15625 17.4375 C 9.347656 17.710938 9.6875 17.8125 9.90625 18.0625 C 10.203125 18.402344 10.402344 19.257813 11.03125 18.90625 C 11.339844 18.730469 11.375 18.429688 11.4375 18.125 C 11.496094 17.828125 11.636719 17.515625 11.78125 17.25 C 11.867188 17.097656 12.097656 16.910156 11.96875 16.71875 C 11.894531 16.609375 11.671875 16.605469 11.59375 16.46875 C 11.507813 16.324219 11.585938 16.125 11.53125 15.96875 C 11.453125 15.738281 11.34375 15.8125 11.125 15.78125 C 10.660156 15.714844 10.792969 15.273438 10.46875 15.0625 C 10.410156 15.027344 10.367188 14.996094 10.3125 15 Z "></path>
</g>
</svg>
