<?xml version="1.0" encoding="UTF-8"?>
<svg xmlns="http://www.w3.org/2000/svg" xmlns:xlink="http://www.w3.org/1999/xlink" viewBox="0 0 32 32" version="1.1">
<g>
<path d="M 8 5 C 6.355469 5 5 6.355469 5 8 L 5 24 C 5 25.644531 6.355469 27 8 27 L 24 27 C 25.644531 27 27 25.644531 27 24 L 27 8 C 27 6.355469 25.644531 5 24 5 Z M 8 7 L 24 7 C 24.566406 7 25 7.433594 25 8 L 25 24 C 25 24.566406 24.566406 25 24 25 L 8 25 C 7.433594 25 7 24.566406 7 24 L 7 8 C 7 7.433594 7.433594 7 8 7 Z M 11.65625 10 L 10 18 L 11.90625 18 L 12.46875 15 L 14 15 C 15.0625 15 15.21875 15.699219 15.03125 17.21875 C 14.96875 17.730469 15.09375 18 15.09375 18 L 16.34375 18 L 17.46875 19.1875 L 16.1875 22 L 18.96875 20.34375 L 21.03125 21.9375 L 20.625 19.3125 L 23 17.625 L 20.375 17.625 L 19.9375 15 L 18.375 17.625 L 17.0625 17.625 C 16.984375 17.316406 16.914063 16.832031 17 16 C 17.121094 14.785156 16.65625 14.25 16.65625 14.25 C 16.65625 14.25 17.878906 13.824219 18 12.15625 C 18.132813 10.339844 17.0625 10 15.4375 10 Z M 13.28125 11.46875 L 15.25 11.46875 C 15.839844 11.46875 16.347656 11.777344 16.1875 12.5625 C 16.027344 13.335938 15.378906 13.71875 14.78125 13.71875 C 14.105469 13.71875 12.78125 13.695313 12.78125 13.71875 Z "></path>
</g>
</svg>
