<?xml version="1.0" encoding="UTF-8"?>
<svg xmlns="http://www.w3.org/2000/svg" xmlns:xlink="http://www.w3.org/1999/xlink" viewBox="0 0 32 32" version="1.1">
<g>
<path d="M 15.0625 3.15625 L 13.9375 4.84375 C 14.355469 5.121094 14.671875 5.511719 14.84375 5.96875 C 12.226563 6.765625 10 8.070313 10 10 C 10 12.121094 12.433594 12.648438 15 13.03125 L 15 16.34375 C 12.929688 16.828125 11 17.527344 11 19.5 C 11 21.554688 12.960938 22.378906 15 22.90625 L 15 24.84375 C 14.34375 24.914063 13.660156 24.984375 12.96875 25 L 13.03125 27 C 13.628906 26.988281 14.296875 26.9375 15 26.875 L 15 28 L 17 28 L 17 23.375 C 17.714844 23.535156 18.492188 23.738281 18.875 23.9375 C 18.695313 24.070313 18.394531 24.191406 18 24.3125 L 18 26.40625 C 19.683594 25.960938 21 25.183594 21 23.875 C 21 22.234375 19.0625 21.800781 17 21.34375 L 17 18.9375 C 16.039063 19.136719 15.359375 19.316406 15 19.40625 L 15 20.8125 C 13.921875 20.492188 13 20.101563 13 19.5 C 13 19.007813 13.933594 18.652344 15 18.375 C 15.027344 18.367188 15.097656 18.351563 15.125 18.34375 C 15.484375 18.257813 16.042969 18.136719 16.6875 18 C 16.789063 17.980469 16.894531 17.960938 17 17.9375 C 19.410156 17.4375 22 16.804688 22 14.5 C 22 12.601563 20.132813 11.878906 18 11.46875 L 18 13.53125 C 19.082031 13.761719 20 14.0625 20 14.5 C 20 15.160156 18.4375 15.566406 17 15.875 L 17 8.46875 C 16.175781 8.640625 15.496094 8.875 15 9.0625 L 15 11.03125 C 13.648438 10.816406 12 10.464844 12 10 C 12 8.9375 15.4375 7.484375 19.15625 7.09375 C 19.460938 7.632813 20.171875 8 21 8 C 22.105469 8 23 7.328125 23 6.5 C 23 5.671875 22.105469 5 21 5 C 20.863281 5 20.722656 5.011719 20.59375 5.03125 C 19.699219 5.054688 18.664063 5.125 17.5625 5.3125 C 17.707031 5.132813 17.867188 4.976563 18.0625 4.84375 L 16.9375 3.15625 C 16.574219 3.398438 16.269531 3.703125 16 4.03125 C 15.730469 3.703125 15.425781 3.398438 15.0625 3.15625 Z "></path>
</g>
</svg>
