<?xml version="1.0" encoding="UTF-8"?>
<svg xmlns="http://www.w3.org/2000/svg" xmlns:xlink="http://www.w3.org/1999/xlink" viewBox="0 0 32 32" version="1.1">
<g>
<path d="M 14.96875 4.5 L 13.03125 4.90625 L 14.125 10.0625 C 14.75 12.972656 16.828125 15.359375 19.625 16.375 L 23.375 17.75 C 24.960938 18.328125 26 19.816406 26 21.5 L 26 22 L 7 22 L 7 10 C 7 9.433594 7.433594 9 8 9 L 12.625 9 L 12.1875 7 L 8 7 C 6.355469 7 5 8.355469 5 10 L 5 23.78125 C 4.390625 24.332031 4 25.121094 4 26 C 4 27.644531 5.355469 29 7 29 C 8.644531 29 10 27.644531 10 26 C 10 25.234375 9.699219 24.53125 9.21875 24 L 10.78125 24 C 10.300781 24.53125 10 25.234375 10 26 C 10 27.644531 11.355469 29 13 29 C 14.644531 29 16 27.644531 16 26 C 16 25.234375 15.699219 24.53125 15.21875 24 L 16.78125 24 C 16.300781 24.53125 16 25.234375 16 26 C 16 27.644531 17.355469 29 19 29 C 20.644531 29 22 27.644531 22 26 C 22 25.234375 21.699219 24.53125 21.21875 24 L 22.78125 24 C 22.300781 24.53125 22 25.234375 22 26 C 22 27.644531 23.355469 29 25 29 C 26.644531 29 28 27.644531 28 26 C 28 25.234375 27.699219 24.53125 27.21875 24 L 28 24 L 28 21.5 C 28 18.980469 26.429688 16.738281 24.0625 15.875 L 20.3125 14.5 C 18.160156 13.71875 16.574219 11.894531 16.09375 9.65625 Z M 13 11 C 12.449219 11 12 11.449219 12 12 C 12 12.550781 12.449219 13 13 13 C 13.550781 13 14 12.550781 14 12 C 14 11.449219 13.550781 11 13 11 Z M 16 15 C 15.449219 15 15 15.449219 15 16 C 15 16.550781 15.449219 17 16 17 C 16.550781 17 17 16.550781 17 16 C 17 15.449219 16.550781 15 16 15 Z M 20 17 C 19.449219 17 19 17.449219 19 18 C 19 18.550781 19.449219 19 20 19 C 20.550781 19 21 18.550781 21 18 C 21 17.449219 20.550781 17 20 17 Z M 7 25 C 7.5625 25 8 25.4375 8 26 C 8 26.5625 7.5625 27 7 27 C 6.4375 27 6 26.5625 6 26 C 6 25.4375 6.4375 25 7 25 Z M 13 25 C 13.5625 25 14 25.4375 14 26 C 14 26.5625 13.5625 27 13 27 C 12.4375 27 12 26.5625 12 26 C 12 25.4375 12.4375 25 13 25 Z M 19 25 C 19.5625 25 20 25.4375 20 26 C 20 26.5625 19.5625 27 19 27 C 18.4375 27 18 26.5625 18 26 C 18 25.4375 18.4375 25 19 25 Z M 25 25 C 25.5625 25 26 25.4375 26 26 C 26 26.5625 25.5625 27 25 27 C 24.4375 27 24 26.5625 24 26 C 24 25.4375 24.4375 25 25 25 Z "></path>
</g>
</svg>
