<?xml version="1.0" encoding="UTF-8"?>
<svg xmlns="http://www.w3.org/2000/svg" xmlns:xlink="http://www.w3.org/1999/xlink" viewBox="0 0 32 32" version="1.1">
<g>
<path d="M 16 4.9375 L 15.625 5.0625 L 5 9.3125 L 5 27 L 27 27 L 27 9.3125 L 16.375 5.0625 Z M 16 7.09375 L 25 10.6875 L 25 25 L 7 25 L 7 10.6875 Z M 9 14 L 9 18 L 23 18 L 23 14 Z M 21 15 C 21.550781 15 22 15.449219 22 16 C 22 16.550781 21.550781 17 21 17 C 20.449219 17 20 16.550781 20 16 C 20 15.449219 20.449219 15 21 15 Z M 9 19 L 9 23 L 23 23 L 23 19 Z M 21 20 C 21.550781 20 22 20.449219 22 21 C 22 21.550781 21.550781 22 21 22 C 20.449219 22 20 21.550781 20 21 C 20 20.449219 20.449219 20 21 20 Z "></path>
</g>
</svg>
