<?xml version="1.0" encoding="UTF-8"?>
<svg xmlns="http://www.w3.org/2000/svg" xmlns:xlink="http://www.w3.org/1999/xlink" viewBox="0 0 32 32" version="1.1">
<g>
<path d="M 20.78125 5 C 19.191406 5 17.613281 5.605469 16.40625 6.8125 L 14.1875 9.03125 L 15.59375 10.4375 L 17.8125 8.21875 C 19.464844 6.566406 22.128906 6.566406 23.78125 8.21875 C 25.433594 9.871094 25.433594 12.535156 23.78125 14.1875 L 21.5625 16.40625 L 22.96875 17.8125 L 25.1875 15.59375 C 27.605469 13.175781 27.605469 9.230469 25.1875 6.8125 C 23.980469 5.605469 22.371094 5 20.78125 5 Z M 20.40625 8.5 C 19.613281 8.5 18.847656 8.808594 18.25 9.40625 L 16.40625 11.25 L 17.8125 12.65625 L 19.65625 10.8125 C 20.085938 10.382813 20.753906 10.378906 21.1875 10.8125 C 21.617188 11.242188 21.621094 11.910156 21.1875 12.34375 L 19.34375 14.1875 L 20.75 15.59375 L 22.59375 13.75 C 23.789063 12.554688 23.789063 10.601563 22.59375 9.40625 C 21.996094 8.808594 21.199219 8.5 20.40625 8.5 Z M 12.71875 9.28125 L 11.28125 10.71875 L 21.28125 20.71875 L 22.46875 21.875 C 24.09375 23.5 25 25.703125 25 28 L 27 28 C 27 25.175781 25.875 22.46875 23.875 20.46875 L 22.71875 19.28125 Z M 10.71875 11.28125 L 9.28125 12.71875 L 19.28125 22.71875 L 20.71875 21.28125 Z M 9.03125 14.1875 L 6.8125 16.40625 C 4.394531 18.824219 4.394531 22.769531 6.8125 25.1875 C 9.230469 27.605469 13.175781 27.605469 15.59375 25.1875 L 17.8125 22.96875 L 16.40625 21.5625 L 14.1875 23.78125 C 12.535156 25.433594 9.871094 25.433594 8.21875 23.78125 C 6.566406 22.128906 6.566406 19.464844 8.21875 17.8125 L 10.4375 15.59375 Z M 11.25 16.40625 L 9.40625 18.25 C 8.210938 19.445313 8.210938 21.398438 9.40625 22.59375 C 10.601563 23.789063 12.554688 23.789063 13.75 22.59375 L 15.59375 20.75 L 14.1875 19.34375 L 12.34375 21.1875 C 11.914063 21.617188 11.246094 21.621094 10.8125 21.1875 C 10.378906 20.753906 10.378906 20.089844 10.8125 19.65625 L 12.65625 17.8125 Z "></path>
</g>
</svg>
