<?xml version="1.0" encoding="UTF-8"?>
<svg xmlns="http://www.w3.org/2000/svg" xmlns:xlink="http://www.w3.org/1999/xlink" viewBox="0 0 32 32" version="1.1">
<g>
<path d="M 18.21875 2.28125 L 16.78125 3.71875 L 19.0625 6 L 16 6 C 13.253906 6 11 8.253906 11 11 L 11 17 L 13 17 L 13 11 C 13 9.34375 14.34375 8 16 8 L 19.0625 8 L 16.78125 10.28125 L 18.21875 11.71875 L 22.21875 7.71875 L 22.90625 7 L 22.21875 6.28125 Z M 5 10 C 3.898438 10 3 10.898438 3 12 L 3 26 C 3 27.101563 3.898438 28 5 28 L 27 28 C 28.101563 28 29 27.101563 29 26 L 29 12 C 29 10.898438 28.101563 10 27 10 L 22 10 L 20 12 L 27 12 L 27 26 L 5 26 L 5 12 L 10 12 L 10 10 Z "></path>
</g>
</svg>
