<?xml version="1.0"?>
<svg xmlns="http://www.w3.org/2000/svg" viewBox="0 0 32 32">
    <path d="M 3.7070312 2.2929688 L 2.2929688 3.7070312 L 6.1113281 7.5253906 C 6.1104168 7.5264501 6.110286 7.5282371 6.109375 7.5292969 L 7.5292969 8.9492188 C 7.5301926 8.9481273 7.5303539 8.9464035 7.53125 8.9453125 L 23.042969 24.457031 C 23.041559 24.458215 23.040473 24.459754 23.039062 24.460938 L 24.449219 25.869141 C 24.450277 25.868235 24.452067 25.868094 24.453125 25.867188 L 28.292969 29.707031 L 29.707031 28.292969 L 25.855469 24.441406 C 27.804925 22.170341 29 19.228079 29 16 C 29 8.8545455 23.145455 3 16 3 C 12.82358 3 9.8598135 4.1453886 7.5410156 6.1269531 L 3.7070312 2.2929688 z M 6.109375 7.5292969 L 6 7.4199219 L 6 7.6699219 C 6.03 7.6199219 6.069375 7.5692969 6.109375 7.5292969 z M 16 5 C 22.054545 5 27 9.9454545 27 16 C 27 18.678921 26.034582 21.119897 24.445312 23.03125 L 8.9472656 7.5332031 C 10.87418 5.9128726 13.317205 5 16 5 z M 4 8.2402344 L 4 12 L 7.7597656 12 L 4 8.2402344 z M 3 16 L 3 17 L 5 17 L 5 16 L 3 16 z M 5.34375 18.599609 L 3.4238281 19.154297 L 3.6660156 19.998047 L 3.6777344 20.033203 L 3.6894531 20.068359 L 3.9960938 20.894531 L 4.0078125 20.927734 L 4.0234375 20.960938 L 4.0703125 21.0625 L 5.890625 20.234375 L 5.8554688 20.15625 L 5.5722656 19.386719 L 5.5664062 19.373047 L 5.34375 18.599609 z M 6.6835938 21.767578 L 5 22.847656 L 5.3457031 23.384766 L 5.3632812 23.414062 L 5.3847656 23.443359 L 5.90625 24.140625 L 5.9277344 24.167969 L 5.9492188 24.195312 L 6.1875 24.470703 L 7.7011719 23.164062 L 7.4824219 22.908203 L 7 22.261719 L 6.9882812 22.246094 L 6.6835938 21.767578 z M 8.9199219 24.388672 L 7.6054688 25.896484 L 7.8847656 26.140625 L 7.9121094 26.164062 L 7.9394531 26.185547 L 8.6328125 26.708984 L 8.6621094 26.730469 L 8.6933594 26.75 L 9.2226562 27.091797 L 10.308594 25.412109 L 9.8203125 25.097656 L 9.1679688 24.605469 L 8.9199219 24.388672 z M 21.359375 25.599609 C 19.779375 26.489609 17.95 27 16 27 L 15 27 L 15 29 L 16 29 C 18.5 29 20.830312 28.290547 22.820312 27.060547 L 21.359375 25.599609 z M 11.837891 26.203125 L 11.011719 28.025391 L 11.111328 28.070312 L 11.146484 28.085938 L 11.181641 28.099609 L 12.005859 28.400391 L 12.042969 28.414062 L 12.080078 28.423828 L 12.929688 28.662109 L 13.470703 26.736328 L 12.662109 26.509766 L 11.902344 26.232422 L 11.837891 26.203125 z"></path>
</svg>
