<?xml version="1.0" encoding="UTF-8"?>
<svg xmlns="http://www.w3.org/2000/svg" xmlns:xlink="http://www.w3.org/1999/xlink" viewBox="0 0 32 32" version="1.1">
<g>
<path d="M 16 3 L 16 5 L 17 5 L 17 3 Z M 19.15625 3.4375 L 18.59375 5.34375 L 19.375 5.5625 L 19.4375 5.59375 L 20.125 5.84375 L 20.1875 5.875 L 20.21875 5.875 L 21.0625 4.0625 L 20.96875 4.03125 L 20.9375 4 L 20.90625 4 L 20.0625 3.6875 L 20.03125 3.6875 L 20 3.65625 Z M 4 4 L 4 6 L 7.65625 6 C 4.796875 8.386719 3 11.941406 3 16 C 3 23.144531 8.855469 29 16 29 C 23.144531 29 29 23.144531 29 16 L 29 15 L 27 15 L 27 16 C 27 22.054688 22.054688 27 16 27 C 9.945313 27 5 22.054688 5 16 C 5 12.0625 6.96875 8.761719 10 6.78125 L 10 12 L 12 12 L 12 4 Z M 22.84375 5 L 21.78125 6.6875 L 22.25 7 L 22.3125 7.03125 L 22.875 7.46875 L 22.9375 7.5 L 23.15625 7.6875 L 24.46875 6.1875 L 24.1875 5.9375 L 24.15625 5.9375 L 24.125 5.90625 L 23.4375 5.375 L 23.40625 5.375 L 23.375 5.34375 Z M 25.90625 7.59375 L 24.375 8.90625 L 24.59375 9.15625 L 24.625 9.1875 L 25.0625 9.78125 L 25.125 9.84375 L 25.40625 10.3125 L 27.09375 9.21875 L 26.75 8.6875 L 26.71875 8.65625 L 26.71875 8.625 L 26.1875 7.9375 L 26.125 7.875 Z M 28.03125 11 L 26.21875 11.84375 L 26.21875 11.875 L 26.25 11.9375 L 26.5 12.625 L 26.53125 12.6875 L 26.75 13.46875 L 28.65625 12.9375 L 28.4375 12.09375 L 28.40625 12.03125 L 28.40625 12 L 28.09375 11.1875 L 28.09375 11.15625 L 28.0625 11.125 Z "></path>
</g>
</svg>
