<?xml version="1.0" encoding="UTF-8"?>
<svg xmlns="http://www.w3.org/2000/svg" xmlns:xlink="http://www.w3.org/1999/xlink" viewBox="0 0 32 32" version="1.1">
<g>
<path d="M 6 3 L 6 9 L 8 9 L 8 23 L 6 23 L 6 29 L 9 29 L 9 28 L 11.300781 28 L 14.300781 26 L 19.699219 26 L 22 27.535156 L 22 29 L 24 29 L 24 27.535156 L 27 25.535156 L 27 17 L 28 17 L 28 15 L 27 15 L 27 6.464844 L 24 4.464844 L 24 3 L 22 3 L 22 4.464844 L 19.699219 6 L 14.300781 6 L 11.300781 4 L 9 4 L 9 3 Z M 10 6 L 10.699219 6 L 13 7.535156 L 13 24.464844 L 10.699219 26 L 10 26 Z M 23 6.203125 L 25 7.535156 L 25 24.464844 L 23 25.796875 L 21 24.464844 L 21 7.535156 Z M 15 8 L 19 8 L 19 24 L 15 24 Z "></path>
</g>
</svg>
