<?xml version="1.0" encoding="UTF-8"?>
<svg xmlns="http://www.w3.org/2000/svg" xmlns:xlink="http://www.w3.org/1999/xlink" viewBox="0 0 32 32" version="1.1">
<g>
<path d="M 11.5 6 L 11.1875 6.40625 L 10 8 L 3 8 L 3 26 L 29 26 L 29 8 L 22 8 L 20.8125 6.40625 L 20.5 6 Z M 12.5 8 L 19.5 8 L 20.6875 9.59375 L 21 10 L 27 10 L 27 24 L 5 24 L 5 10 L 11 10 L 11.3125 9.59375 Z M 15.9375 10.90625 C 14.398438 10.90625 12.871094 11.503906 11.6875 12.6875 C 9.320313 15.054688 9.320313 18.851563 11.6875 21.21875 C 14.054688 23.585938 17.851563 23.585938 20.21875 21.21875 C 20.8125 20.625 21.300781 19.914063 21.5625 19.125 L 19.65625 18.46875 C 19.519531 18.878906 19.1875 19.375 18.78125 19.78125 C 17.148438 21.414063 14.726563 21.414063 13.09375 19.78125 C 11.460938 18.148438 11.460938 15.726563 13.09375 14.09375 C 14.726563 12.460938 17.148438 12.460938 18.78125 14.09375 C 18.972656 14.285156 19.132813 14.511719 19.28125 14.71875 L 18 16 L 22 16 L 22 12 L 20.71875 13.28125 C 20.554688 13.078125 20.390625 12.859375 20.21875 12.6875 C 19.035156 11.503906 17.476563 10.90625 15.9375 10.90625 Z "></path>
</g>
</svg>
