<?xml version="1.0" encoding="UTF-8"?>
<svg xmlns="http://www.w3.org/2000/svg" xmlns:xlink="http://www.w3.org/1999/xlink" viewBox="0 0 32 32" version="1.1">
<g>
<path d="M 15.90625 2.96875 C 15.863281 2.976563 15.820313 2.988281 15.78125 3 C 15.75 3.007813 15.71875 3.019531 15.6875 3.03125 C 14.136719 3.070313 12.652344 3.371094 11.28125 3.90625 C 11.113281 3.925781 10.949219 3.992188 10.8125 4.09375 C 9.4375 4.691406 8.203125 5.550781 7.125 6.5625 C 6.867188 6.664063 6.664063 6.867188 6.5625 7.125 C 5.589844 8.15625 4.785156 9.351563 4.1875 10.65625 C 4.183594 10.667969 4.160156 10.675781 4.15625 10.6875 C 4.144531 10.699219 4.136719 10.707031 4.125 10.71875 C 3.9375 10.910156 3.835938 11.171875 3.84375 11.4375 C 3.84375 11.449219 3.84375 11.457031 3.84375 11.46875 C 3.367188 12.734375 3.085938 14.082031 3.03125 15.5 C 2.855469 15.808594 2.855469 16.191406 3.03125 16.5 C 3.089844 17.976563 3.394531 19.40625 3.90625 20.71875 C 3.925781 20.914063 4.003906 21.097656 4.125 21.25 C 4.710938 22.570313 5.5 23.765625 6.46875 24.8125 C 6.558594 25.164063 6.835938 25.441406 7.1875 25.53125 C 8.234375 26.5 9.429688 27.289063 10.75 27.875 C 10.894531 27.992188 11.066406 28.066406 11.25 28.09375 C 12.65625 28.644531 14.1875 28.972656 15.78125 29 C 15.792969 29 15.800781 29 15.8125 29 C 15.875 29 15.9375 29 16 29 C 16.074219 29 16.144531 29 16.21875 29 C 16.25 28.992188 16.28125 28.980469 16.3125 28.96875 C 17.859375 28.929688 19.351563 28.628906 20.71875 28.09375 C 20.839844 28.074219 20.957031 28.03125 21.0625 27.96875 C 21.105469 27.949219 21.144531 27.925781 21.1875 27.90625 C 21.207031 27.898438 21.230469 27.886719 21.25 27.875 C 22.570313 27.289063 23.765625 26.5 24.8125 25.53125 C 25.164063 25.441406 25.441406 25.164063 25.53125 24.8125 C 26.492188 23.777344 27.257813 22.585938 27.84375 21.28125 C 27.855469 21.269531 27.863281 21.261719 27.875 21.25 C 27.878906 21.238281 27.902344 21.230469 27.90625 21.21875 C 27.929688 21.167969 27.953125 21.117188 27.96875 21.0625 C 27.972656 21.050781 27.996094 21.042969 28 21.03125 C 28.046875 20.933594 28.078125 20.828125 28.09375 20.71875 C 28.644531 19.3125 28.976563 17.78125 29 16.1875 C 29.007813 16.125 29.007813 16.0625 29 16 C 29 15.957031 29 15.917969 29 15.875 C 28.996094 15.8125 28.984375 15.75 28.96875 15.6875 C 28.933594 14.265625 28.707031 12.902344 28.25 11.625 C 28.375 11.167969 28.167969 10.6875 27.75 10.46875 C 27.148438 9.199219 26.335938 8.035156 25.375 7.03125 C 25.277344 6.84375 25.125 6.691406 24.9375 6.59375 C 23.855469 5.5625 22.601563 4.738281 21.21875 4.125 C 21.207031 4.113281 21.199219 4.105469 21.1875 4.09375 C 21.175781 4.089844 21.167969 4.066406 21.15625 4.0625 C 21.023438 3.976563 20.875 3.921875 20.71875 3.90625 C 19.316406 3.355469 17.804688 3.027344 16.21875 3 C 16.207031 3 16.199219 3 16.1875 3 C 16.097656 2.976563 16 2.964844 15.90625 2.96875 Z M 14.875 5.0625 C 14.917969 5.058594 14.957031 5.066406 15 5.0625 L 15 6.71875 C 14.992188 6.824219 15.003906 6.929688 15.03125 7.03125 C 14.492188 7.089844 13.976563 7.191406 13.46875 7.34375 C 13.453125 7.246094 13.421875 7.152344 13.375 7.0625 L 12.75 5.5 C 13.429688 5.292969 14.144531 5.136719 14.875 5.0625 Z M 17 5.0625 C 17.78125 5.132813 18.523438 5.308594 19.25 5.53125 L 18.625 7.0625 C 18.578125 7.152344 18.546875 7.246094 18.53125 7.34375 C 18.023438 7.191406 17.507813 7.089844 16.96875 7.03125 C 16.996094 6.929688 17.007813 6.824219 17 6.71875 Z M 10.875 6.28125 L 11.53125 7.8125 C 11.566406 7.925781 11.617188 8.03125 11.6875 8.125 C 11.226563 8.378906 10.78125 8.671875 10.375 9 C 10.316406 8.90625 10.242188 8.820313 10.15625 8.75 L 8.96875 7.5625 C 9.558594 7.070313 10.191406 6.640625 10.875 6.28125 Z M 21.125 6.28125 C 21.8125 6.640625 22.441406 7.074219 23.03125 7.5625 L 21.84375 8.75 C 21.757813 8.820313 21.683594 8.90625 21.625 9 C 21.21875 8.671875 20.773438 8.378906 20.3125 8.125 C 20.382813 8.03125 20.433594 7.925781 20.46875 7.8125 Z M 7.5625 8.96875 L 8.75 10.15625 C 8.820313 10.242188 8.90625 10.316406 9 10.375 C 8.667969 10.789063 8.382813 11.21875 8.125 11.6875 C 8.03125 11.617188 7.925781 11.566406 7.8125 11.53125 L 6.25 10.875 C 6.609375 10.191406 7.070313 9.558594 7.5625 8.96875 Z M 24.4375 8.96875 C 24.925781 9.550781 25.359375 10.199219 25.71875 10.875 L 24.1875 11.53125 C 24.074219 11.566406 23.96875 11.617188 23.875 11.6875 C 23.617188 11.21875 23.332031 10.789063 23 10.375 C 23.09375 10.316406 23.179688 10.242188 23.25 10.15625 Z M 16 9 C 19.878906 9 23 12.121094 23 16 C 23 19.878906 19.878906 23 16 23 C 12.121094 23 9 19.878906 9 16 C 9 12.121094 12.121094 9 16 9 Z M 13.71875 12.28125 L 12.28125 13.71875 L 14.5625 16 L 12.28125 18.28125 L 13.71875 19.71875 L 16 17.4375 L 18.28125 19.71875 L 19.71875 18.28125 L 17.4375 16 L 19.71875 13.71875 L 18.28125 12.28125 L 16 14.5625 Z M 5.5 12.75 L 7.0625 13.375 C 7.152344 13.421875 7.246094 13.453125 7.34375 13.46875 C 7.195313 13.976563 7.121094 14.519531 7.0625 15.0625 C 6.953125 15.023438 6.835938 15 6.71875 15 L 5.0625 15 C 5.132813 14.222656 5.277344 13.472656 5.5 12.75 Z M 26.5 12.75 C 26.722656 13.472656 26.867188 14.21875 26.9375 15 L 25.28125 15 C 25.25 15 25.21875 15 25.1875 15 C 25.15625 15 25.125 15 25.09375 15 C 25.039063 15.007813 24.988281 15.015625 24.9375 15.03125 C 24.878906 14.5 24.804688 13.96875 24.65625 13.46875 C 24.753906 13.453125 24.847656 13.421875 24.9375 13.375 Z M 6.90625 16.96875 C 6.949219 16.972656 6.988281 16.972656 7.03125 16.96875 C 7.089844 17.5 7.230469 18.03125 7.375 18.53125 C 7.355469 18.53125 7.332031 18.53125 7.3125 18.53125 C 7.226563 18.550781 7.140625 18.582031 7.0625 18.625 L 5.5 19.25 C 5.277344 18.53125 5.132813 17.773438 5.0625 17 L 6.71875 17 C 6.78125 16.996094 6.84375 16.984375 6.90625 16.96875 Z M 24.96875 16.96875 C 25.070313 16.996094 25.175781 17.007813 25.28125 17 L 26.9375 17 C 26.867188 17.773438 26.722656 18.53125 26.5 19.25 L 24.9375 18.625 C 24.839844 18.578125 24.734375 18.546875 24.625 18.53125 C 24.769531 18.03125 24.910156 17.5 24.96875 16.96875 Z M 8.09375 20.28125 C 8.355469 20.765625 8.65625 21.230469 9 21.65625 C 8.90625 21.707031 8.824219 21.769531 8.75 21.84375 L 7.53125 23.0625 C 7.035156 22.46875 6.613281 21.8125 6.25 21.125 L 7.8125 20.46875 C 7.917969 20.421875 8.011719 20.359375 8.09375 20.28125 Z M 23.90625 20.3125 C 23.992188 20.378906 24.085938 20.433594 24.1875 20.46875 L 25.75 21.125 C 25.386719 21.8125 24.964844 22.46875 24.46875 23.0625 L 23.25 21.84375 C 23.175781 21.769531 23.09375 21.707031 23 21.65625 C 23.339844 21.238281 23.644531 20.789063 23.90625 20.3125 Z M 21.65625 22.96875 C 21.703125 23.074219 21.765625 23.167969 21.84375 23.25 L 23.0625 24.46875 C 22.46875 24.964844 21.8125 25.386719 21.125 25.75 L 20.46875 24.1875 C 20.421875 24.082031 20.359375 23.988281 20.28125 23.90625 C 20.769531 23.640625 21.226563 23.316406 21.65625 22.96875 Z M 10.34375 23 C 10.761719 23.339844 11.210938 23.644531 11.6875 23.90625 C 11.621094 23.992188 11.566406 24.085938 11.53125 24.1875 L 10.875 25.75 C 10.1875 25.386719 9.53125 24.964844 8.9375 24.46875 L 10.15625 23.25 C 10.230469 23.175781 10.292969 23.09375 10.34375 23 Z M 13.4375 24.625 C 13.945313 24.773438 14.492188 24.910156 15.03125 24.96875 C 15.003906 25.070313 14.992188 25.175781 15 25.28125 L 15 26.9375 C 14.226563 26.867188 13.46875 26.722656 12.75 26.5 L 13.375 24.9375 C 13.414063 24.835938 13.433594 24.730469 13.4375 24.625 Z M 18.5625 24.625 C 18.566406 24.730469 18.585938 24.835938 18.625 24.9375 L 19.25 26.5 C 18.53125 26.722656 17.773438 26.867188 17 26.9375 L 17 25.28125 C 17.007813 25.175781 16.996094 25.070313 16.96875 24.96875 C 17.507813 24.910156 18.054688 24.773438 18.5625 24.625 Z "></path>
</g>
</svg>
