<?xml version="1.0" encoding="UTF-8"?>
<svg xmlns="http://www.w3.org/2000/svg" xmlns:xlink="http://www.w3.org/1999/xlink" viewBox="0 0 32 32" version="1.1">
<g>
<path d="M 16 3.9375 L 15.625 4.0625 C 15.625 4.0625 10.734375 6 6 6 L 5 6 L 5 16 C 5 19.96875 7.789063 22.941406 10.40625 24.90625 C 13.023438 26.871094 15.625 27.9375 15.625 27.9375 L 16 28.0625 L 16.375 27.9375 C 16.375 27.9375 18.976563 26.871094 21.59375 24.90625 C 24.210938 22.941406 27 19.96875 27 16 L 27 6 L 26 6 C 21.265625 6 16.375 4.0625 16.375 4.0625 Z M 16 6.0625 C 16.507813 6.261719 20.421875 7.683594 25 7.90625 L 25 11 L 7 11 L 7 7.90625 C 11.578125 7.683594 15.492188 6.261719 16 6.0625 Z M 7 13 L 25 13 L 25 16 C 25 19.015625 22.789063 21.523438 20.40625 23.3125 C 18.328125 24.875 16.496094 25.664063 16 25.875 C 15.503906 25.664063 13.671875 24.875 11.59375 23.3125 C 9.210938 21.523438 7 19.015625 7 16 Z "></path>
</g>
</svg>
