<?xml version="1.0" encoding="UTF-8"?>
<svg xmlns="http://www.w3.org/2000/svg" xmlns:xlink="http://www.w3.org/1999/xlink" viewBox="0 0 32 32" version="1.1">
<g>
<path d="M 2 6 L 2 26 L 30 26 L 30 6 Z M 6.4375 8 L 10.5625 8 L 8.5 9.3125 Z M 15 8 L 17 8 L 17 15 L 28 15 L 28 17 L 17 17 L 17 24 L 15 24 L 15 17 L 4 17 L 4 15 L 15 15 Z M 19 8 L 28 8 L 28 13 L 19 13 Z M 4 8.8125 L 6.65625 10.5 L 4 12.1875 Z M 13 8.8125 L 13 12.1875 L 10.34375 10.5 Z M 8.5 11.6875 L 10.5625 13 L 6.4375 13 Z M 4 19 L 13 19 L 13 24 L 4 24 Z M 19 19 L 28 19 L 28 24 L 19 24 Z "></path>
</g>
</svg>
