<?xml version="1.0" encoding="UTF-8"?>
<svg xmlns="http://www.w3.org/2000/svg" xmlns:xlink="http://www.w3.org/1999/xlink" viewBox="0 0 32 32" version="1.1">
<g>
<path d="M 16 4 C 9.394531 4 4 9.394531 4 16 C 4 22.605469 9.394531 28 16 28 C 22.605469 28 28 22.605469 28 16 C 28 9.394531 22.605469 4 16 4 Z M 16 8 C 20.441406 8 24 11.558594 24 16 C 24 20.441406 20.441406 24 16 24 C 11.558594 24 8 20.441406 8 16 C 8 11.558594 11.558594 8 16 8 Z M 16 13 C 14.34375 13 13 14.34375 13 16 C 13 17.65625 14.34375 19 16 19 C 17.65625 19 19 17.65625 19 16 C 19 14.34375 17.65625 13 16 13 Z "></path>
</g>
</svg>
