<?xml version="1.0" encoding="UTF-8"?>
<svg xmlns="http://www.w3.org/2000/svg" xmlns:xlink="http://www.w3.org/1999/xlink" viewBox="0 0 32 32" version="1.1">
<g>
<path d="M 27.292969 3.292969 L 26.304688 4.28125 C 25.554688 5.003906 24.453125 5.367188 23.390625 5.71875 C 22.273438 6.085938 21.117188 6.46875 20.292969 7.292969 C 19.171875 8.414063 18.960938 9.671875 18.957031 10.457031 L 16.402344 11.988281 L 12.707031 8.292969 L 11.292969 9.707031 L 13.585938 12 L 11.585938 14 L 12.601563 15.015625 L 11.011719 16.597656 L 10 15.585938 L 6.585938 19 L 7.757813 20.171875 C 7.351563 20.875 6.753906 21.835938 6.292969 22.292969 C 5.691406 22.894531 4.886719 23.007813 4.890625 23.007813 L 4.539063 23.046875 L 2.585938 25 L 7 29.414063 L 8.9375 27.472656 L 8.988281 27.152344 C 9.027344 26.898438 9.234375 26.144531 9.679688 25.734375 C 10.113281 25.332031 11.109375 24.695313 11.839844 24.257813 L 15 27.414063 L 18.414063 24 L 15.402344 20.988281 L 16.992188 19.40625 L 21.292969 23.707031 L 22.707031 22.292969 L 19.414063 19 L 21.414063 17 L 19.996094 15.582031 L 21.53125 13.042969 C 22.320313 13.039063 23.585938 12.828125 24.707031 11.707031 C 25.519531 10.894531 25.878906 9.78125 26.21875 8.703125 C 26.5625 7.632813 26.914063 6.527344 27.71875 5.695313 L 28.707031 4.707031 Z M 8.320313 24.265625 C 7.546875 24.980469 7.210938 25.976563 7.082031 26.503906 L 7 26.585938 L 5.414063 25 L 5.488281 24.925781 C 6 24.804688 6.921875 24.492188 7.707031 23.707031 C 8.558594 22.855469 9.523438 21.128906 9.8125 20.601563 L 15.621094 14.792969 L 19.585938 12.414063 L 17.207031 16.378906 L 11.386719 22.199219 C 10.878906 22.492188 9.105469 23.539063 8.320313 24.265625 Z M 15.585938 24 L 15 24.585938 L 13.394531 22.980469 L 13.980469 22.394531 Z M 24.3125 8.097656 C 24.019531 9.023438 23.761719 9.820313 23.292969 10.292969 C 22.605469 10.980469 21.839844 11.054688 21.460938 11.046875 L 20.953125 10.539063 C 20.941406 10.15625 21.019531 9.394531 21.707031 8.707031 C 22.195313 8.21875 23.078125 7.929688 24.019531 7.617188 C 24.183594 7.5625 24.355469 7.507813 24.527344 7.449219 C 24.449219 7.667969 24.382813 7.886719 24.3125 8.097656 Z "></path>
</g>
</svg>
