<?xml version="1.0" encoding="UTF-8"?>
<svg xmlns="http://www.w3.org/2000/svg" xmlns:xlink="http://www.w3.org/1999/xlink" viewBox="0 0 32 32" version="1.1">
<g>
<path d="M 6 8 C 4.191406 8 2.777344 9.648438 3.03125 11.4375 L 4.46875 21.4375 C 4.679688 22.910156 5.953125 24 7.4375 24 L 24.5625 24 C 26.046875 24 27.320313 22.910156 27.53125 21.4375 L 28.96875 11.4375 C 29.226563 9.648438 27.808594 8 26 8 Z M 6 10 L 26 10 C 26.628906 10 27.089844 10.535156 27 11.15625 L 25.5625 21.15625 C 25.492188 21.65625 25.070313 22 24.5625 22 L 7.4375 22 C 6.929688 22 6.507813 21.65625 6.4375 21.15625 L 5 11.15625 C 4.910156 10.535156 5.371094 10 6 10 Z M 8 13 C 7.449219 13 7 13.449219 7 14 C 7 14.550781 7.449219 15 8 15 C 8.550781 15 9 14.550781 9 14 C 9 13.449219 8.550781 13 8 13 Z M 12 13 C 11.449219 13 11 13.449219 11 14 C 11 14.550781 11.449219 15 12 15 C 12.550781 15 13 14.550781 13 14 C 13 13.449219 12.550781 13 12 13 Z M 16 13 C 15.449219 13 15 13.449219 15 14 C 15 14.550781 15.449219 15 16 15 C 16.550781 15 17 14.550781 17 14 C 17 13.449219 16.550781 13 16 13 Z M 20 13 C 19.449219 13 19 13.449219 19 14 C 19 14.550781 19.449219 15 20 15 C 20.550781 15 21 14.550781 21 14 C 21 13.449219 20.550781 13 20 13 Z M 24 13 C 23.449219 13 23 13.449219 23 14 C 23 14.550781 23.449219 15 24 15 C 24.550781 15 25 14.550781 25 14 C 25 13.449219 24.550781 13 24 13 Z M 10 17 C 9.449219 17 9 17.449219 9 18 C 9 18.550781 9.449219 19 10 19 C 10.550781 19 11 18.550781 11 18 C 11 17.449219 10.550781 17 10 17 Z M 14 17 C 13.449219 17 13 17.449219 13 18 C 13 18.550781 13.449219 19 14 19 C 14.550781 19 15 18.550781 15 18 C 15 17.449219 14.550781 17 14 17 Z M 18 17 C 17.449219 17 17 17.449219 17 18 C 17 18.550781 17.449219 19 18 19 C 18.550781 19 19 18.550781 19 18 C 19 17.449219 18.550781 17 18 17 Z M 22 17 C 21.449219 17 21 17.449219 21 18 C 21 18.550781 21.449219 19 22 19 C 22.550781 19 23 18.550781 23 18 C 23 17.449219 22.550781 17 22 17 Z "></path>
</g>
</svg>
