<?xml version="1.0" encoding="UTF-8"?>
<svg xmlns="http://www.w3.org/2000/svg" xmlns:xlink="http://www.w3.org/1999/xlink" viewBox="0 0 32 32" version="1.1">
<g>
<path d="M 28.269531 9.035156 C 27.699219 8.378906 26.871094 8 26.003906 8 L 6.007813 8 C 5.136719 8 4.308594 8.378906 3.738281 9.035156 C 3.167969 9.691406 2.910156 10.5625 3.035156 11.425781 L 4.464844 21.425781 C 4.675781 22.894531 5.949219 24 7.4375 24 L 24.574219 24 C 26.058594 24 27.335938 22.894531 27.546875 21.425781 L 28.976563 11.425781 C 29.097656 10.5625 28.839844 9.691406 28.269531 9.035156 Z M 8 15 C 7.449219 15 7 14.550781 7 14 C 7 13.449219 7.449219 13 8 13 C 8.550781 13 9 13.449219 9 14 C 9 14.550781 8.550781 15 8 15 Z M 10 19 C 9.449219 19 9 18.550781 9 18 C 9 17.449219 9.449219 17 10 17 C 10.550781 17 11 17.449219 11 18 C 11 18.550781 10.550781 19 10 19 Z M 12 15 C 11.449219 15 11 14.550781 11 14 C 11 13.449219 11.449219 13 12 13 C 12.550781 13 13 13.449219 13 14 C 13 14.550781 12.550781 15 12 15 Z M 14 19 C 13.449219 19 13 18.550781 13 18 C 13 17.449219 13.449219 17 14 17 C 14.550781 17 15 17.449219 15 18 C 15 18.550781 14.550781 19 14 19 Z M 16 15 C 15.449219 15 15 14.550781 15 14 C 15 13.449219 15.449219 13 16 13 C 16.550781 13 17 13.449219 17 14 C 17 14.550781 16.550781 15 16 15 Z M 18 19 C 17.449219 19 17 18.550781 17 18 C 17 17.449219 17.449219 17 18 17 C 18.550781 17 19 17.449219 19 18 C 19 18.550781 18.550781 19 18 19 Z M 20 15 C 19.449219 15 19 14.550781 19 14 C 19 13.449219 19.449219 13 20 13 C 20.550781 13 21 13.449219 21 14 C 21 14.550781 20.550781 15 20 15 Z M 22 19 C 21.449219 19 21 18.550781 21 18 C 21 17.449219 21.449219 17 22 17 C 22.550781 17 23 17.449219 23 18 C 23 18.550781 22.550781 19 22 19 Z M 24 15 C 23.449219 15 23 14.550781 23 14 C 23 13.449219 23.449219 13 24 13 C 24.550781 13 25 13.449219 25 14 C 25 14.550781 24.550781 15 24 15 Z "></path>
</g>
</svg>
