<?xml version="1.0" encoding="UTF-8"?>
<svg xmlns="http://www.w3.org/2000/svg" xmlns:xlink="http://www.w3.org/1999/xlink" viewBox="0 0 32 32" version="1.1">
<g>
<path d="M 23 3 C 21.71875 3 20.441406 3.496094 19.46875 4.46875 C 18.699219 5.238281 18.179688 6.238281 17.6875 7.25 L 15.71875 5.28125 L 15.40625 5 L 10.59375 5 L 10.28125 5.28125 L 3.28125 12.28125 L 2.59375 13 L 3.28125 13.71875 L 18.28125 28.71875 L 19 29.40625 L 19.71875 28.71875 L 26.71875 21.71875 L 27 21.40625 L 27 16.59375 L 26.71875 16.28125 L 23.71875 13.28125 C 24.726563 12.820313 25.726563 12.332031 26.53125 11.53125 C 28.476563 9.585938 28.476563 6.414063 26.53125 4.46875 C 25.558594 3.496094 24.28125 3 23 3 Z M 23 5 C 23.765625 5 24.535156 5.285156 25.125 5.875 C 26.304688 7.054688 26.304688 8.945313 25.125 10.125 C 24.550781 10.699219 23.453125 11.199219 22.21875 11.78125 L 19.15625 8.71875 C 19.75 7.519531 20.332031 6.417969 20.875 5.875 C 21.464844 5.285156 22.234375 5 23 5 Z M 13.4375 7 L 14.5625 7 L 25 17.4375 L 25 18.5625 Z M 11 7.4375 L 24.5625 21 L 19 26.5625 L 5.4375 13 Z M 11 10 C 10.738281 10 10.472656 10.097656 10.28125 10.28125 C 10.101563 10.472656 10 10.738281 10 11 C 10 11.261719 10.101563 11.527344 10.28125 11.71875 C 10.472656 11.898438 10.738281 12 11 12 C 11.261719 12 11.527344 11.898438 11.71875 11.71875 C 11.898438 11.527344 12 11.261719 12 11 C 12 10.738281 11.898438 10.472656 11.71875 10.28125 C 11.535156 10.097656 11.261719 10 11 10 Z M 13.5 12.5 C 13.242188 12.5 12.976563 12.585938 12.78125 12.78125 C 12.390625 13.171875 12.390625 13.828125 12.78125 14.21875 C 12.980469 14.410156 13.238281 14.5 13.5 14.5 C 13.761719 14.5 14.019531 14.410156 14.21875 14.21875 C 14.609375 13.828125 14.609375 13.171875 14.21875 12.78125 C 14.023438 12.585938 13.757813 12.5 13.5 12.5 Z M 10 13 C 9.738281 13 9.472656 13.097656 9.28125 13.28125 C 9.101563 13.472656 9 13.738281 9 14 C 9 14.261719 9.101563 14.527344 9.28125 14.71875 C 9.472656 14.898438 9.738281 15 10 15 C 10.261719 15 10.527344 14.898438 10.71875 14.71875 C 10.898438 14.527344 11 14.261719 11 14 C 11 13.738281 10.898438 13.472656 10.71875 13.28125 C 10.527344 13.097656 10.261719 13 10 13 Z M 16 15 C 15.742188 15 15.476563 15.085938 15.28125 15.28125 C 14.890625 15.671875 14.890625 16.328125 15.28125 16.71875 C 15.480469 16.910156 15.738281 17 16 17 C 16.261719 17 16.519531 16.910156 16.71875 16.71875 C 17.109375 16.328125 17.109375 15.671875 16.71875 15.28125 C 16.523438 15.085938 16.257813 15 16 15 Z M 12.65625 15.65625 C 12.402344 15.65625 12.164063 15.773438 11.96875 15.96875 C 11.578125 16.359375 11.578125 16.984375 11.96875 17.375 C 12.160156 17.574219 12.394531 17.65625 12.65625 17.65625 C 12.90625 17.65625 13.183594 17.574219 13.375 17.375 C 13.773438 16.984375 13.773438 16.359375 13.375 15.96875 C 13.179688 15.773438 12.910156 15.65625 12.65625 15.65625 Z M 18.5 17.5 C 18.242188 17.5 17.976563 17.585938 17.78125 17.78125 C 17.390625 18.171875 17.390625 18.820313 17.78125 19.21875 C 17.980469 19.40625 18.238281 19.5 18.5 19.5 C 18.75 19.5 19.019531 19.40625 19.21875 19.21875 C 19.609375 18.820313 19.609375 18.171875 19.21875 17.78125 C 19.019531 17.585938 18.757813 17.5 18.5 17.5 Z M 15.34375 18.34375 C 15.089844 18.34375 14.820313 18.433594 14.625 18.625 C 14.234375 19.023438 14.234375 19.640625 14.625 20.03125 C 14.816406 20.21875 15.09375 20.34375 15.34375 20.34375 C 15.605469 20.34375 15.839844 20.21875 16.03125 20.03125 C 16.421875 19.640625 16.421875 19.023438 16.03125 18.625 C 15.835938 18.433594 15.597656 18.34375 15.34375 18.34375 Z M 21 20 C 20.738281 20 20.464844 20.097656 20.28125 20.28125 C 20.101563 20.46875 20 20.738281 20 21 C 20 21.261719 20.101563 21.527344 20.28125 21.71875 C 20.46875 21.898438 20.738281 22 21 22 C 21.261719 22 21.527344 21.898438 21.71875 21.71875 C 21.898438 21.527344 22 21.261719 22 21 C 22 20.738281 21.898438 20.46875 21.71875 20.28125 C 21.527344 20.097656 21.261719 20 21 20 Z M 18 21 C 17.738281 21 17.464844 21.097656 17.28125 21.28125 C 17.101563 21.46875 17 21.738281 17 22 C 17 22.261719 17.101563 22.527344 17.28125 22.71875 C 17.46875 22.898438 17.738281 23 18 23 C 18.261719 23 18.527344 22.898438 18.71875 22.71875 C 18.898438 22.527344 19 22.261719 19 22 C 19 21.738281 18.898438 21.46875 18.71875 21.28125 C 18.527344 21.097656 18.261719 21 18 21 Z "></path>
</g>
</svg>
