<?xml version="1.0" encoding="UTF-8"?>
<svg xmlns="http://www.w3.org/2000/svg" xmlns:xlink="http://www.w3.org/1999/xlink" viewBox="0 0 32 32" version="1.1">
<g>
<path d="M 6 6.007813 L 6 26 L 26.007813 26 L 26.007813 6.007813 Z M 8 8.007813 L 12 8.007813 L 12 12.003906 L 8 12.003906 Z M 14 8.007813 L 18.003906 8.007813 L 18.003906 12.003906 L 14 12.003906 Z M 20.003906 8.007813 L 24.007813 8.007813 L 24.007813 12.003906 L 20.003906 12.003906 Z M 8 14.003906 L 12 14.003906 L 12 18.003906 L 8 18.003906 Z M 14 14.003906 L 18.003906 14.003906 L 18.003906 18.003906 L 14 18.003906 Z M 20.003906 14.003906 L 24.007813 14.003906 L 24.007813 18.003906 L 20.003906 18.003906 Z M 8 20.003906 L 12 20.003906 L 12 24 L 8 24 Z M 14 20.003906 L 18.003906 20.003906 L 18.003906 24 L 14 24 Z M 20.003906 20.003906 L 24.007813 20.003906 L 24.007813 24 L 20.003906 24 Z "></path>
</g>
</svg>
