<?xml version="1.0" encoding="UTF-8"?>
<svg xmlns="http://www.w3.org/2000/svg" xmlns:xlink="http://www.w3.org/1999/xlink" viewBox="0 0 32 32" version="1.1">
<g>
<path d="M 15.59375 4 L 15.28125 4.28125 L 10.34375 9.25 L 9.25 10.34375 L 4.28125 15.28125 L 4 15.59375 L 4 25.90625 L 4.90625 26 L 26.90625 28 L 28.09375 28.09375 L 28 26.90625 L 26 4.90625 L 25.90625 4 Z M 17.625 6 L 22.5625 6 L 19.28125 9.28125 Z M 15.71875 6.71875 L 17.3125 9.84375 L 12.96875 9.46875 Z M 24.21875 7.21875 L 25.5 21.75 L 20.21875 11.21875 Z M 11.34375 11.34375 L 16.75 11.8125 L 11.8125 16.75 Z M 18.71875 12.71875 L 24.75 24.75 L 12.71875 18.71875 Z M 9.46875 12.96875 L 9.84375 17.3125 L 6.71875 15.71875 Z M 6 17.625 L 9.28125 19.28125 L 6 22.5625 Z M 11.21875 20.21875 L 21.78125 25.5 L 7.21875 24.21875 Z "></path>
</g>
</svg>
