<?xml version="1.0" encoding="UTF-8"?>
<svg xmlns="http://www.w3.org/2000/svg" xmlns:xlink="http://www.w3.org/1999/xlink" viewBox="0 0 32 32" version="1.1">
<g>
<path d="M 15 4 C 13.355469 4 12 5.355469 12 7 L 6 7 L 6 8 C 6 9.628906 5.980469 11.332031 6.78125 12.78125 C 6.449219 13.121094 6.039063 13.582031 5.65625 14.21875 C 4.8125 15.613281 4 17.804688 4 21 C 4 24.414063 6.148438 26.351563 8.125 27.1875 C 10.101563 28.023438 12 28 12 28 L 20 28 C 20 28 21.898438 28.023438 23.875 27.1875 C 25.851563 26.351563 28 24.417969 28 21 C 28 17.804688 27.1875 15.613281 26.34375 14.21875 C 25.964844 13.589844 25.582031 13.121094 25.25 12.78125 C 26.03125 11.351563 26 9.667969 26 8 L 26 7 L 20 7 C 20 5.355469 18.644531 4 17 4 Z M 15 6 L 17 6 C 17.554688 6 18 6.445313 18 7 L 14 7 C 14 6.445313 14.445313 6 15 6 Z M 8.0625 9 L 23.9375 9 C 23.898438 10.453125 23.78125 11.621094 23.125 12.34375 C 22.730469 12.777344 22.070313 13.167969 21 13.46875 L 21 12 L 19 12 L 19 13.84375 C 18.152344 13.941406 17.175781 14 16 14 C 14.828125 14 13.847656 13.941406 13 13.84375 L 13 12 L 11 12 L 11 13.46875 C 9.929688 13.164063 9.269531 12.753906 8.875 12.3125 C 8.21875 11.578125 8.101563 10.414063 8.0625 9 Z M 8.0625 14.28125 C 8.800781 14.847656 9.765625 15.277344 11 15.5625 L 11 17 L 13 17 L 13 15.875 C 13.894531 15.964844 14.875 16 16 16 C 17.117188 16 18.109375 15.960938 19 15.875 L 19 17 L 21 17 L 21 15.5625 C 22.253906 15.28125 23.226563 14.851563 23.96875 14.28125 C 24.167969 14.5 24.390625 14.808594 24.65625 15.25 C 25.042969 15.890625 25.425781 16.796875 25.6875 18 L 22 18 L 22 25.71875 C 20.90625 25.996094 20 26 20 26 L 12 26 C 12 26 11.09375 25.996094 10 25.71875 L 10 18 L 6.3125 18 C 6.574219 16.796875 6.957031 15.890625 7.34375 15.25 C 7.617188 14.800781 7.863281 14.5 8.0625 14.28125 Z M 6.03125 20 L 8 20 L 8 24.90625 C 6.867188 24.222656 6 23.125 6 21 C 6 20.652344 6.011719 20.316406 6.03125 20 Z M 24 20 L 25.96875 20 C 25.988281 20.316406 26 20.652344 26 21 C 26 23.125 25.132813 24.222656 24 24.90625 Z "></path>
</g>
</svg>
