<?xml version="1.0" encoding="UTF-8"?>
<svg xmlns="http://www.w3.org/2000/svg" xmlns:xlink="http://www.w3.org/1999/xlink" viewBox="0 0 32 32" version="1.1">
<g>
<path d="M 21.4375 4 C 17.699219 4 12.890625 5.546875 9.21875 9.21875 C 6.359375 12.078125 4.808594 15.65625 4.25 18.84375 C 3.691406 22.03125 3.980469 24.855469 5.5625 26.4375 C 6.695313 27.570313 8.453125 28 10.53125 28 C 14.269531 28 19.105469 26.457031 22.78125 22.78125 C 25.636719 19.925781 27.191406 16.375 27.75 13.1875 C 28.308594 10 28.027344 7.152344 26.4375 5.5625 C 25.304688 4.429688 23.515625 4 21.4375 4 Z M 21.4375 6 C 22.53125 6 23.425781 6.210938 24.09375 6.46875 L 21 9.59375 L 22.40625 11 L 25.53125 7.90625 C 25.925781 9.007813 26.136719 10.808594 25.78125 12.84375 C 25.289063 15.652344 23.898438 18.851563 21.375 21.375 C 18.132813 24.617188 13.707031 26 10.53125 26 C 9.441406 26 8.5625 25.785156 7.90625 25.53125 L 11 22.40625 L 9.59375 21 L 6.46875 24.09375 C 6.074219 23 5.863281 21.222656 6.21875 19.1875 C 6.710938 16.375 8.101563 13.148438 10.625 10.625 C 13.867188 7.378906 18.261719 6 21.4375 6 Z M 17.21875 10.78125 L 15.78125 12.21875 L 17.0625 13.5 L 16 14.5625 L 14.71875 13.28125 L 13.28125 14.71875 L 14.5625 16 L 13.5 17.0625 L 12.21875 15.78125 L 10.78125 17.21875 L 12.0625 18.5 L 10.78125 19.78125 L 12.21875 21.21875 L 13.5 19.9375 L 14.78125 21.21875 L 16.21875 19.78125 L 14.9375 18.5 L 16 17.4375 L 17.28125 18.71875 L 18.71875 17.28125 L 17.4375 16 L 18.5 14.9375 L 19.78125 16.21875 L 21.21875 14.78125 L 19.9375 13.5 L 21.21875 12.21875 L 19.78125 10.78125 L 18.5 12.0625 Z "></path>
</g>
</svg>
