<?xml version="1.0" encoding="UTF-8"?>
<svg xmlns="http://www.w3.org/2000/svg" xmlns:xlink="http://www.w3.org/1999/xlink" viewBox="0 0 32 32" version="1.1">
<g>
<path d="M 15 4 C 14.449219 4 14 4.449219 14 5 C 14 5.550781 14.449219 6 15 6 C 15.011719 6 15.019531 6 15.03125 6 C 19.390625 6 21.464844 7.90625 22.46875 8.75 L 22.75 9 L 23.125 9 C 23.832031 9 24.503906 9.214844 25.03125 9.78125 C 25.105469 9.859375 25.152344 9.964844 25.21875 10.0625 C 25.144531 10.042969 25.082031 10 25 10 C 24.449219 10 24 10.449219 24 11 C 24 11.550781 24.449219 12 25 12 C 25.339844 12 25.632813 11.820313 25.8125 11.5625 C 25.871094 11.867188 25.914063 12.195313 25.9375 12.5625 C 25.898438 12.582031 25.894531 12.574219 25.84375 12.59375 C 25.378906 12.773438 24.488281 13 23 13 L 22 13 C 22 15.492188 21.105469 16.648438 20.25 17.3125 C 20.164063 17.378906 20.082031 17.414063 20 17.46875 C 19.882813 14.726563 17.5625 13.1875 17.5625 13.1875 L 16.4375 14.8125 C 16.4375 14.8125 18 15.972656 18 17.6875 C 18 19.460938 16.125 20.9375 16.125 20.9375 L 17.28125 22.5625 C 17.28125 22.5625 17.308594 22.53125 17.3125 22.53125 C 17.738281 22.566406 18.761719 23.085938 19.5625 23.9375 C 20.132813 24.542969 20.519531 25.265625 20.75 26 L 20 26 C 19.589844 26 19.421875 25.914063 19.21875 25.75 C 19.015625 25.585938 18.789063 25.292969 18.5 24.90625 C 17.921875 24.128906 16.890625 23 15.09375 23 C 14.898438 23 14.5 22.914063 14.28125 22.78125 C 14.0625 22.648438 14 22.59375 14 22.3125 C 14 22.453125 14.082031 22.195313 14.375 21.625 C 14.667969 21.054688 15 20.195313 15 19 L 14 19 C 13.660156 19 12.460938 18.726563 11.5625 18.09375 C 10.664063 17.460938 10 16.589844 10 15.25 C 10 13.507813 10.625 12.585938 11.59375 11.9375 C 12.5625 11.289063 13.964844 11 15.4375 11 C 17.203125 11 19.21875 11.90625 19.21875 11.90625 L 19.90625 12.25 L 20.40625 11.65625 L 21.78125 10.03125 L 20.21875 8.71875 L 19.3125 9.8125 C 18.554688 9.496094 17.199219 9 15.4375 9 C 13.707031 9 11.925781 9.308594 10.46875 10.28125 C 9.046875 11.234375 8.046875 12.890625 8 15.09375 C 7.84375 15.039063 7.671875 15 7.5 15 C 6.671875 15 6 15.671875 6 16.5 C 6 17.328125 6.671875 18 7.5 18 C 7.914063 18 8.292969 17.832031 8.5625 17.5625 C 9.015625 18.480469 9.675781 19.207031 10.40625 19.71875 C 11.140625 20.234375 11.894531 20.578125 12.59375 20.78125 C 12.378906 21.160156 12 21.523438 12 22.3125 C 12 23.296875 12.613281 24.109375 13.25 24.5 C 13.886719 24.890625 14.535156 25 15.09375 25 C 16.199219 25 16.367188 25.371094 16.90625 26.09375 C 17.175781 26.457031 17.476563 26.914063 17.96875 27.3125 C 18.460938 27.710938 19.183594 28 20 28 L 23 28 L 23 27 C 23 25.269531 22.125 23.722656 21.03125 22.5625 C 20.378906 21.867188 19.652344 21.300781 18.875 20.9375 C 19.09375 20.632813 19.289063 20.289063 19.46875 19.90625 C 19.972656 19.753906 20.710938 19.460938 21.46875 18.875 C 22.441406 18.117188 23.378906 16.859375 23.78125 14.96875 C 25.03125 14.90625 25.945313 14.707031 26.5625 14.46875 C 26.933594 14.324219 27.179688 14.164063 27.375 14.03125 C 27.570313 13.898438 27.75 13.71875 27.75 13.71875 L 28 13.4375 L 28 13.0625 C 28 10.984375 27.445313 9.453125 26.5 8.4375 C 25.667969 7.542969 24.570313 7.179688 23.53125 7.09375 C 22.484375 6.214844 19.800781 4 15.03125 4 C 15.019531 4 15.011719 4 15 4 Z M 4 8 L 4 10 L 8.46875 10 C 9.34375 9.097656 10.5 8.421875 11.875 8 Z M 4 12 L 4 14 L 6.59375 14 C 6.695313 13.28125 6.859375 12.613281 7.125 12 Z "></path>
</g>
</svg>
