<?xml version="1.0" encoding="UTF-8"?>
<svg xmlns="http://www.w3.org/2000/svg" xmlns:xlink="http://www.w3.org/1999/xlink" viewBox="0 0 32 32" version="1.1">
<g>
<path d="M 16 4 C 9.382813 4 4 9.382813 4 16 C 4 22.617188 9.382813 28 16 28 C 22.617188 28 28 22.617188 28 16 C 28 9.382813 22.617188 4 16 4 Z M 13 6.4375 L 13 9 L 19 9 L 19 6.4375 C 23.058594 7.710938 26 11.511719 26 16 C 26 18.253906 25.25 20.332031 24 22 L 20 22 L 20 25.1875 C 18.78125 25.714844 17.417969 26 16 26 C 14.582031 26 13.21875 25.714844 12 25.1875 L 12 22 L 8 22 C 6.75 20.332031 6 18.253906 6 16 C 6 11.511719 8.941406 7.710938 13 6.4375 Z M 12.5 11 C 11.671875 11 11 11.671875 11 12.5 C 11 13.328125 11.671875 14 12.5 14 C 13.328125 14 14 13.328125 14 12.5 C 14 11.671875 13.328125 11 12.5 11 Z M 19.5 11 C 18.671875 11 18 11.671875 18 12.5 C 18 13.328125 18.671875 14 19.5 14 C 20.328125 14 21 13.328125 21 12.5 C 21 11.671875 20.328125 11 19.5 11 Z M 10.5 15 C 9.671875 15 9 15.671875 9 16.5 C 9 17.328125 9.671875 18 10.5 18 C 11.328125 18 12 17.328125 12 16.5 C 12 15.671875 11.328125 15 10.5 15 Z M 21.5 15 C 20.671875 15 20 15.671875 20 16.5 C 20 17.328125 20.671875 18 21.5 18 C 22.328125 18 23 17.328125 23 16.5 C 23 15.671875 22.328125 15 21.5 15 Z "></path>
</g>
</svg>
