<?xml version="1.0" encoding="UTF-8"?>
<svg xmlns="http://www.w3.org/2000/svg" xmlns:xlink="http://www.w3.org/1999/xlink" viewBox="0 0 32 32" version="1.1">
<g>
<path d="M 16 7 C 13.359375 7 11.066406 8.238281 9.421875 10.050781 C 9.28125 10.035156 9.15625 10 9 10 C 6.800781 10 5 11.800781 5 14 C 5 14.007813 5 14.007813 5 14.015625 C 3.269531 15.070313 2 16.832031 2 19 C 2 22.300781 4.699219 25 8 25 L 24 25 C 27.300781 25 30 22.300781 30 19 C 30 15.84375 27.511719 13.304688 24.40625 13.082031 C 23.179688 9.566406 19.921875 7 16 7 Z M 16 9 C 19.277344 9 22.003906 11.242188 22.777344 14.269531 L 22.980469 15.074219 L 23.800781 15.023438 C 24.011719 15.011719 24.070313 15 24 15 C 26.21875 15 28 16.78125 28 19 C 28 21.21875 26.21875 23 24 23 L 8 23 C 5.78125 23 4 21.21875 4 19 C 4 17.339844 5.003906 15.929688 6.433594 15.320313 L 7.128906 15.023438 L 7.03125 14.269531 C 7.011719 14.109375 7 14.023438 7 14 C 7 12.882813 7.882813 12 9 12 C 9.140625 12 9.289063 12.019531 9.460938 12.0625 L 10.089844 12.207031 L 10.484375 11.703125 C 11.765625 10.058594 13.75 9 16 9 Z M 13 14 C 12.449219 14 12 14.449219 12 15 C 12 15.550781 12.449219 16 13 16 C 13.550781 16 14 15.550781 14 15 C 14 14.449219 13.550781 14 13 14 Z M 19 14 C 18.449219 14 18 14.449219 18 15 C 18 15.550781 18.449219 16 19 16 C 19.550781 16 20 15.550781 20 15 C 20 14.449219 19.550781 14 19 14 Z M 16 18 C 13.792969 18 12.34375 19.246094 12.34375 19.246094 C 12.0625 19.472656 11.929688 19.839844 11.996094 20.199219 C 12.058594 20.554688 12.316406 20.851563 12.660156 20.964844 C 13.003906 21.082031 13.386719 21 13.65625 20.753906 C 13.65625 20.753906 14.515625 20 16 20 C 17.484375 20 18.34375 20.753906 18.34375 20.753906 C 18.613281 21 18.996094 21.082031 19.339844 20.964844 C 19.683594 20.851563 19.941406 20.554688 20.003906 20.199219 C 20.070313 19.839844 19.9375 19.472656 19.65625 19.246094 C 19.65625 19.246094 18.207031 18 16 18 Z "></path>
</g>
</svg>
