<?xml version="1.0" encoding="UTF-8"?>
<svg xmlns="http://www.w3.org/2000/svg" xmlns:xlink="http://www.w3.org/1999/xlink" viewBox="0 0 32 32" version="1.1">
<g>
<path d="M 4 6 L 4 26 L 6 26 L 6 27 L 10 27 L 10 26 L 22 26 L 22 27 L 26 27 L 26 26 L 28 26 L 28 21 L 29 21 L 29 18 L 28 18 L 28 14 L 29 14 L 29 11 L 28 11 L 28 6 Z M 6 8 L 26 8 L 26 24 L 6 24 Z M 19 11 C 16.25 11 14 13.25 14 16 C 14 18.75 16.25 21 19 21 C 21.75 21 24 18.75 24 16 C 24 13.25 21.75 11 19 11 Z M 9 12 C 8.449219 12 8 12.449219 8 13 L 8 19 C 8 19.550781 8.449219 20 9 20 C 9.550781 20 10 19.550781 10 19 L 10 13 C 10 12.449219 9.550781 12 9 12 Z M 19 13 C 20.667969 13 22 14.332031 22 16 C 22 17.667969 20.667969 19 19 19 C 17.332031 19 16 17.667969 16 16 C 16 14.332031 17.332031 13 19 13 Z M 19 15 C 18.449219 15 18 15.449219 18 16 C 18 16.550781 18.449219 17 19 17 C 19.550781 17 20 16.550781 20 16 C 20 15.449219 19.550781 15 19 15 Z "></path>
</g>
</svg>
