<?xml version="1.0" encoding="UTF-8"?>
<svg xmlns="http://www.w3.org/2000/svg" xmlns:xlink="http://www.w3.org/1999/xlink" viewBox="0 0 32 32" version="1.1">
<g>
<path d="M 16 4 L 16 6 L 14.6875 6 L 14.4375 6.15625 L 11.4375 8.15625 L 11 8.46875 L 11 11 L 23 11 L 23 8.46875 L 22.5625 8.15625 L 19.5625 6.15625 L 19.3125 6 L 18 6 L 18 4 Z M 15.3125 8 L 18.6875 8 L 20.1875 9 L 13.8125 9 Z M 11 13 C 10.449219 13 10 13.449219 10 14 C 10 14.550781 10.449219 15 11 15 C 11.550781 15 12 14.550781 12 14 C 12 13.449219 11.550781 13 11 13 Z M 15 13 C 14.449219 13 14 13.449219 14 14 C 14 14.550781 14.449219 15 15 15 C 15.550781 15 16 14.550781 16 14 C 16 13.449219 15.550781 13 15 13 Z M 19 13 C 18.449219 13 18 13.449219 18 14 C 18 14.550781 18.449219 15 19 15 C 19.550781 15 20 14.550781 20 14 C 20 13.449219 19.550781 13 19 13 Z M 23 13 C 22.449219 13 22 13.449219 22 14 C 22 14.550781 22.449219 15 23 15 C 23.550781 15 24 14.550781 24 14 C 24 13.449219 23.550781 13 23 13 Z M 10 17 C 9.449219 17 9 17.449219 9 18 C 9 18.550781 9.449219 19 10 19 C 10.550781 19 11 18.550781 11 18 C 11 17.449219 10.550781 17 10 17 Z M 17 17 C 14.800781 17 13 18.800781 13 21 C 13 22.113281 13.476563 23.117188 14.21875 23.84375 C 12.886719 24.746094 12 26.28125 12 28 L 14 28 C 14 26.332031 15.332031 25 17 25 C 18.667969 25 20 26.332031 20 28 L 22 28 C 22 26.28125 21.113281 24.746094 19.78125 23.84375 C 20.523438 23.117188 21 22.113281 21 21 C 21 18.800781 19.199219 17 17 17 Z M 24 17 C 23.449219 17 23 17.449219 23 18 C 23 18.550781 23.449219 19 24 19 C 24.550781 19 25 18.550781 25 18 C 25 17.449219 24.550781 17 24 17 Z M 17 19 C 18.117188 19 19 19.882813 19 21 C 19 22.117188 18.117188 23 17 23 C 15.882813 23 15 22.117188 15 21 C 15 19.882813 15.882813 19 17 19 Z M 9 21 C 8.449219 21 8 21.449219 8 22 C 8 22.550781 8.449219 23 9 23 C 9.550781 23 10 22.550781 10 22 C 10 21.449219 9.550781 21 9 21 Z M 25 21 C 24.449219 21 24 21.449219 24 22 C 24 22.550781 24.449219 23 25 23 C 25.550781 23 26 22.550781 26 22 C 26 21.449219 25.550781 21 25 21 Z M 8 25 C 7.449219 25 7 25.449219 7 26 C 7 26.550781 7.449219 27 8 27 C 8.550781 27 9 26.550781 9 26 C 9 25.449219 8.550781 25 8 25 Z M 26 25 C 25.449219 25 25 25.449219 25 26 C 25 26.550781 25.449219 27 26 27 C 26.550781 27 27 26.550781 27 26 C 27 25.449219 26.550781 25 26 25 Z "></path>
</g>
</svg>
