<?xml version="1.0" encoding="UTF-8"?>
<svg xmlns="http://www.w3.org/2000/svg" xmlns:xlink="http://www.w3.org/1999/xlink" viewBox="0 0 32 32" version="1.1">
<g>
<path d="M 16 3.78125 L 16 6 L 4 6 L 4 13 L 6 13 L 6 8 L 16 8 L 16 24 L 6 24 L 6 19 L 4 19 L 4 26 L 6 26 L 6 27 L 10 27 L 10 26 L 16 26 L 16 28.21875 L 17.1875 27.96875 L 22.03125 27 L 26 27 L 26 26.21875 L 27.1875 25.96875 L 28 25.8125 L 28 21 L 29 21 L 29 18 L 28 18 L 28 14 L 29 14 L 29 11 L 28 11 L 28 6.1875 L 27.1875 6.03125 L 17.1875 4.03125 Z M 18 6.21875 L 26 7.8125 L 26 24.1875 L 18 25.78125 Z M 22.5 11 C 21.933594 11 21.457031 11.320313 21.15625 11.65625 C 20.855469 11.992188 20.664063 12.371094 20.5 12.8125 C 20.167969 13.691406 20 14.792969 20 16 C 20 17.207031 20.167969 18.308594 20.5 19.1875 C 20.664063 19.628906 20.855469 20.007813 21.15625 20.34375 C 21.457031 20.679688 21.933594 21 22.5 21 C 23.066406 21 23.542969 20.679688 23.84375 20.34375 C 24.144531 20.007813 24.335938 19.628906 24.5 19.1875 C 24.832031 18.308594 25 17.207031 25 16 C 25 14.792969 24.832031 13.691406 24.5 12.8125 C 24.335938 12.371094 24.144531 11.992188 23.84375 11.65625 C 23.542969 11.320313 23.066406 11 22.5 11 Z M 10.1875 11.28125 L 8.78125 12.71875 L 11.0625 15 L 4 15 L 4 17 L 11.0625 17 L 8.78125 19.28125 L 10.1875 20.71875 L 14.90625 16 Z M 22.5 13.28125 C 22.546875 13.367188 22.578125 13.40625 22.625 13.53125 C 22.835938 14.097656 23 14.996094 23 16 C 23 17.003906 22.835938 17.902344 22.625 18.46875 C 22.578125 18.59375 22.546875 18.632813 22.5 18.71875 C 22.453125 18.632813 22.421875 18.59375 22.375 18.46875 C 22.164063 17.902344 22 17.003906 22 16 C 22 14.996094 22.164063 14.097656 22.375 13.53125 C 22.421875 13.40625 22.453125 13.367188 22.5 13.28125 Z "></path>
</g>
</svg>
