<?xml version="1.0" encoding="UTF-8"?>
<svg xmlns="http://www.w3.org/2000/svg" xmlns:xlink="http://www.w3.org/1999/xlink" viewBox="0 0 32 32" version="1.1">
<g>
<path d="M 12 4 C 11.449219 4 11 4.449219 11 5 C 11 5.550781 11.449219 6 12 6 C 12.550781 6 13 5.550781 13 5 C 13 4.449219 12.550781 4 12 4 Z M 12 6 L 9 28 L 15 28 L 14.1875 22 L 17.8125 22 L 17 28 L 23 28 L 20 6 L 17.875 21.5625 L 16 15 L 14.125 21.5625 Z M 16 15 C 16.550781 15 17 14.550781 17 14 C 17 13.449219 16.550781 13 16 13 C 15.449219 13 15 13.449219 15 14 C 15 14.550781 15.449219 15 16 15 Z M 20 6 C 20.550781 6 21 5.550781 21 5 C 21 4.449219 20.550781 4 20 4 C 19.449219 4 19 4.449219 19 5 C 19 5.550781 19.449219 6 20 6 Z M 8 7 C 7.449219 7 7 7.449219 7 8 C 7 8.550781 7.449219 9 8 9 C 8.550781 9 9 8.550781 9 8 C 9 7.449219 8.550781 7 8 7 Z M 8 9 L 5 28 L 6.96875 28 L 7.03125 27.71875 L 8.84375 14.34375 Z M 24 7 C 23.449219 7 23 7.449219 23 8 C 23 8.550781 23.449219 9 24 9 C 24.550781 9 25 8.550781 25 8 C 25 7.449219 24.550781 7 24 7 Z M 24 9 L 23.15625 14.34375 L 24.96875 27.71875 L 25.03125 28 L 27 28 Z "></path>
</g>
</svg>
