<?xml version="1.0" encoding="UTF-8"?>
<svg xmlns="http://www.w3.org/2000/svg" xmlns:xlink="http://www.w3.org/1999/xlink" viewBox="0 0 32 32" version="1.1">
<g>
<path d="M 14 4 L 14 6 L 18 6 L 18 4 Z M 6 6 L 6 8 L 9 8 L 9 6 Z M 11 7 L 11 8.40625 L 11.125 8.625 C 11.078125 8.539063 11.15625 8.730469 11.21875 8.96875 C 11.222656 8.976563 11.214844 8.992188 11.21875 9 L 5 9 L 5 10.40625 L 5.125 10.625 C 5.199219 10.765625 5.660156 11.988281 5.8125 13.1875 C 5.964844 14.386719 5.808594 15.566406 5.25 16.1875 L 5 16.46875 L 5 18 L 1 18 L 1 19 C 1 22.164063 2.113281 24.21875 3.28125 25.40625 C 3.507813 25.636719 3.742188 25.828125 3.96875 26 C 3.347656 25.992188 2.789063 25.808594 2.4375 25.5625 C 2.078125 25.3125 2 25.042969 2 25 L 0 25 C 0 25.941406 0.589844 26.683594 1.3125 27.1875 C 2.035156 27.691406 2.960938 28 4 28 C 5.035156 28 5.960938 27.691406 6.6875 27.1875 C 6.800781 27.109375 6.894531 27.027344 7 26.9375 C 7.101563 27.023438 7.203125 27.113281 7.3125 27.1875 C 8.035156 27.691406 8.960938 28 10 28 C 11.035156 28 11.960938 27.691406 12.6875 27.1875 C 12.800781 27.109375 12.894531 27.027344 13 26.9375 C 13.101563 27.023438 13.203125 27.113281 13.3125 27.1875 C 14.035156 27.691406 14.960938 28 16 28 C 17.035156 28 17.960938 27.691406 18.6875 27.1875 C 18.800781 27.109375 18.894531 27.027344 19 26.9375 C 19.101563 27.023438 19.203125 27.113281 19.3125 27.1875 C 20.035156 27.691406 20.960938 28 22 28 C 23.035156 28 23.960938 27.691406 24.6875 27.1875 C 24.800781 27.109375 24.894531 27.027344 25 26.9375 C 25.101563 27.023438 25.203125 27.113281 25.3125 27.1875 C 26.035156 27.691406 26.960938 28 28 28 C 29.035156 28 29.960938 27.691406 30.6875 27.1875 C 31.414063 26.683594 32 25.941406 32 25 L 30 25 C 30 25.058594 29.917969 25.316406 29.5625 25.5625 C 29.207031 25.808594 28.636719 26 28 26 C 27.96875 26 27.9375 26 27.90625 26 C 28.8125 25.195313 29.457031 24.074219 29.9375 22.9375 C 30.65625 21.230469 31 19.398438 31 18 L 31 16.6875 L 29.71875 17.03125 L 22.71875 19.03125 L 22.46875 19.125 L 22.28125 19.28125 L 21.5625 20 L 9.4375 20 L 7.71875 18.28125 L 7.40625 18 L 6.15625 18 L 11.28125 17.15625 C 11.273438 17.167969 11.257813 17.179688 11.25 17.1875 L 11 17.46875 L 11 19.125 L 12.125 19 L 18 18.25 L 18 19.1875 L 19.15625 19 L 25.15625 18 L 25.46875 17.9375 L 25.71875 17.71875 C 27.148438 16.289063 27.128906 14.332031 26.8125 12.9375 C 26.496094 11.542969 25.875 10.5 25.875 10.5 L 25.5625 10 L 22.625 10 C 22.324219 8.640625 21.9375 7.625 21.9375 7.625 L 21.6875 7 Z M 13.25 9 L 20.21875 9 C 20.304688 9.238281 20.433594 9.550781 20.5625 10 L 18 10 L 18 11.40625 L 18.125 11.625 C 18.199219 11.765625 18.660156 12.988281 18.8125 14.1875 C 18.902344 14.890625 18.859375 15.574219 18.71875 16.15625 L 13.5625 16.78125 C 13.644531 16.445313 13.738281 16.109375 13.78125 15.75 C 13.90625 14.707031 13.871094 13.585938 13.78125 12.5 C 13.691406 11.414063 13.535156 10.359375 13.375 9.53125 C 13.335938 9.324219 13.289063 9.179688 13.25 9 Z M 7.25 11 L 11.625 11 C 11.703125 11.527344 11.765625 12.082031 11.8125 12.65625 C 11.878906 13.460938 11.867188 14.269531 11.8125 15 L 7.59375 15.71875 C 7.839844 14.78125 7.890625 13.816406 7.78125 12.9375 C 7.667969 12.050781 7.453125 11.605469 7.25 11 Z M 20.25 12 L 24.3125 12 C 24.460938 12.292969 24.699219 12.605469 24.875 13.375 C 25.09375 14.339844 24.996094 15.292969 24.375 16.0625 L 20.59375 16.71875 C 20.839844 15.78125 20.890625 14.816406 20.78125 13.9375 C 20.667969 13.050781 20.453125 12.605469 20.25 12 Z M 28.6875 19.4375 C 28.550781 20.339844 28.488281 21.21875 28.09375 22.15625 C 27.519531 23.523438 26.671875 24.601563 25.78125 25 L 24 25 C 24 25.058594 23.917969 25.316406 23.5625 25.5625 C 23.207031 25.808594 22.636719 26 22 26 C 21.367188 26 20.796875 25.8125 20.4375 25.5625 C 20.078125 25.3125 20 25.042969 20 25 L 18 25 C 18 25.058594 17.917969 25.316406 17.5625 25.5625 C 17.207031 25.808594 16.636719 26 16 26 C 15.367188 26 14.796875 25.8125 14.4375 25.5625 C 14.078125 25.3125 14 25.042969 14 25 L 12 25 C 12 25.058594 11.917969 25.316406 11.5625 25.5625 C 11.207031 25.808594 10.636719 26 10 26 C 9.367188 26 8.796875 25.8125 8.4375 25.5625 C 8.078125 25.3125 8 25.042969 8 25 L 6.1875 25 C 6.0625 24.964844 5.46875 24.761719 4.71875 24 C 4.019531 23.289063 3.371094 21.964844 3.15625 20 L 6.59375 20 L 8.59375 22 L 22.40625 22 L 22.71875 21.71875 L 23.53125 20.90625 Z "></path>
</g>
</svg>
