<?xml version="1.0" encoding="UTF-8"?>
<svg xmlns="http://www.w3.org/2000/svg" xmlns:xlink="http://www.w3.org/1999/xlink" viewBox="0 0 32 32" version="1.1">
<g>
<path d="M 9 4 L 9 6 L 13 6 L 13 4 Z M 9.9375 7 L 9 7.0625 L 9 8.40625 L 9.125 8.625 C 9.078125 8.539063 9.15625 8.730469 9.21875 8.96875 C 9.28125 9.207031 9.363281 9.527344 9.4375 9.90625 C 9.585938 10.660156 9.730469 11.65625 9.8125 12.65625 C 9.894531 13.65625 9.882813 14.691406 9.78125 15.53125 C 9.679688 16.371094 9.441406 16.972656 9.25 17.1875 L 9 17.46875 L 9 19.125 L 10.125 19 L 18.125 18 L 19 17.875 L 19 19.1875 L 20.15625 19 L 26.15625 18 L 27 17.84375 L 27 17 C 27 14.238281 25.253906 12.234375 23.625 10.96875 C 21.996094 9.703125 20.375 9.0625 20.375 9.0625 L 19 8.53125 L 19 10.40625 L 19.125 10.625 C 19.121094 10.613281 19.292969 11.09375 19.4375 11.65625 C 19.582031 12.21875 19.734375 12.953125 19.8125 13.6875 C 19.96875 15.15625 19.75 16.628906 19.25 17.1875 L 19 17.46875 L 19 17 C 19 11.929688 16.746094 9.230469 14.46875 8.03125 C 12.191406 6.832031 9.9375 7 9.9375 7 Z M 11.28125 9.09375 C 11.917969 9.1875 12.714844 9.351563 13.53125 9.78125 C 15.125 10.621094 16.671875 12.320313 16.90625 16.125 L 11.5625 16.78125 C 11.644531 16.445313 11.738281 16.109375 11.78125 15.75 C 11.90625 14.707031 11.871094 13.585938 11.78125 12.5 C 11.691406 11.414063 11.535156 10.359375 11.375 9.53125 C 11.339844 9.359375 11.316406 9.246094 11.28125 9.09375 Z M 21.53125 12.03125 C 21.914063 12.257813 21.953125 12.203125 22.375 12.53125 C 23.527344 13.425781 24.441406 14.699219 24.75 16.1875 L 21.5625 16.71875 C 21.84375 15.65625 21.894531 14.527344 21.78125 13.46875 C 21.726563 12.941406 21.625 12.496094 21.53125 12.03125 Z M 5 20 L 5 21 C 5 22.824219 5.351563 24.210938 5.875 25.25 C 5.808594 25.34375 5.722656 25.453125 5.5625 25.5625 C 5.207031 25.808594 4.636719 26 4 26 C 3.367188 26 2.796875 25.8125 2.4375 25.5625 C 2.078125 25.3125 2 25.042969 2 25 L 0 25 C 0 25.941406 0.589844 26.683594 1.3125 27.1875 C 2.035156 27.691406 2.960938 28 4 28 C 5.035156 28 5.960938 27.691406 6.6875 27.1875 C 6.800781 27.109375 6.894531 27.027344 7 26.9375 C 7.101563 27.023438 7.203125 27.113281 7.3125 27.1875 C 8.035156 27.691406 8.960938 28 10 28 C 11.035156 28 11.960938 27.691406 12.6875 27.1875 C 12.800781 27.109375 12.894531 27.027344 13 26.9375 C 13.101563 27.023438 13.203125 27.113281 13.3125 27.1875 C 14.035156 27.691406 14.960938 28 16 28 C 17.035156 28 17.960938 27.691406 18.6875 27.1875 C 18.800781 27.109375 18.894531 27.027344 19 26.9375 C 19.101563 27.023438 19.203125 27.113281 19.3125 27.1875 C 20.035156 27.691406 20.960938 28 22 28 C 23.035156 28 23.960938 27.691406 24.6875 27.1875 C 24.800781 27.109375 24.894531 27.027344 25 26.9375 C 25.101563 27.023438 25.203125 27.113281 25.3125 27.1875 C 26.035156 27.691406 26.960938 28 28 28 C 29.035156 28 29.960938 27.691406 30.6875 27.1875 C 31.414063 26.683594 32 25.941406 32 25 L 30 25 C 30 25.058594 29.917969 25.316406 29.5625 25.5625 C 29.207031 25.808594 28.636719 26 28 26 C 27.367188 26 26.796875 25.8125 26.4375 25.5625 C 26.363281 25.507813 26.300781 25.457031 26.25 25.40625 C 27.269531 24.105469 28 22.539063 28 21 L 28 20 Z M 7.15625 22 L 25.75 22 C 25.519531 22.75 25.148438 23.5625 24.5625 24.28125 C 23.703125 25.339844 22.582031 26 22 26 C 21.367188 26 20.796875 25.8125 20.4375 25.5625 C 20.078125 25.3125 20 25.042969 20 25 L 18 25 C 18 25.058594 17.917969 25.316406 17.5625 25.5625 C 17.207031 25.808594 16.636719 26 16 26 C 15.367188 26 14.796875 25.8125 14.4375 25.5625 C 14.078125 25.3125 14 25.042969 14 25 L 12 25 C 12 25.058594 11.917969 25.316406 11.5625 25.5625 C 11.207031 25.808594 10.636719 26 10 26 C 9.957031 26 9.917969 26 9.875 26 C 9.792969 26 9.265625 25.988281 8.59375 25.5 C 7.984375 25.054688 7.367188 23.96875 7.15625 22 Z "></path>
</g>
</svg>
