<?xml version="1.0" encoding="UTF-8"?>
<svg xmlns="http://www.w3.org/2000/svg" xmlns:xlink="http://www.w3.org/1999/xlink" viewBox="0 0 32 32" version="1.1">
<g>
<path d="M 16 3 C 14.894531 3 14 3.894531 14 5 C 14 5.714844 14.382813 6.371094 15 6.726563 L 15 9 L 17 9 L 17 6.730469 C 17.617188 6.375 18 5.714844 18 5 C 18 3.894531 17.105469 3 16 3 Z M 5 7 C 3.894531 7 3 7.894531 3 9 C 3 10.105469 3.894531 11 5 11 C 5.246094 11 5.492188 10.953125 5.726563 10.859375 L 8 12.28125 L 8 9.925781 L 6.976563 9.289063 C 6.992188 9.191406 7 9.097656 7 9 C 7 7.894531 6.105469 7 5 7 Z M 27 7 C 25.894531 7 25 7.894531 25 9 C 25 9.097656 25.007813 9.191406 25.023438 9.289063 L 24 9.925781 L 24 12.28125 L 26.273438 10.863281 C 26.273438 10.863281 26.273438 10.863281 26.277344 10.863281 C 26.507813 10.953125 26.753906 11 27 11 C 28.105469 11 29 10.105469 29 9 C 29 7.894531 28.105469 7 27 7 Z M 9 10 L 9 22 L 23 22 L 23 10 Z M 11 12 L 21 12 L 21 20 L 11 20 Z M 14 13 C 13.640625 12.996094 13.304688 13.183594 13.121094 13.496094 C 12.941406 13.808594 12.941406 14.191406 13.121094 14.503906 C 13.304688 14.816406 13.640625 15.003906 14 15 L 18 15 C 18.359375 15.003906 18.695313 14.816406 18.878906 14.503906 C 19.058594 14.191406 19.058594 13.808594 18.878906 13.496094 C 18.695313 13.183594 18.359375 12.996094 18 13 Z M 8 19.921875 L 5.921875 21.222656 C 5.636719 21.078125 5.320313 21 5 21 C 3.894531 21 3 21.894531 3 23 C 3 24.105469 3.894531 25 5 25 C 6.105469 25 7 24.105469 7 23 C 7 22.96875 7 22.9375 6.996094 22.90625 L 8 22.28125 Z M 24 19.921875 L 24 22.28125 L 25.003906 22.90625 C 25 22.9375 25 22.96875 25 23 C 25 24.105469 25.894531 25 27 25 C 28.105469 25 29 24.105469 29 23 C 29 21.894531 28.105469 21 27 21 C 26.679688 21 26.367188 21.078125 26.082031 21.222656 Z M 15 23 L 15 25.269531 C 14.382813 25.628906 14 26.285156 14 27 C 14 28.105469 14.894531 29 16 29 C 17.105469 29 18 28.105469 18 27 C 18 26.285156 17.617188 25.625 17 25.269531 L 17 23 Z "></path>
</g>
</svg>
