<?xml version="1.0" encoding="UTF-8"?>
<svg xmlns="http://www.w3.org/2000/svg" xmlns:xlink="http://www.w3.org/1999/xlink" viewBox="0 0 32 32" version="1.1">
<g>
<path d="M 21.5 5 C 19.859375 5 18.355469 5.28125 17.1875 5.8125 C 16.601563 6.078125 16.089844 6.410156 15.6875 6.84375 C 15.285156 7.277344 15 7.859375 15 8.5 L 15 12.90625 C 14.9375 12.875 14.878906 12.84375 14.8125 12.8125 C 13.644531 12.28125 12.140625 12 10.5 12 C 8.859375 12 7.355469 12.28125 6.1875 12.8125 C 5.601563 13.078125 5.089844 13.410156 4.6875 13.84375 C 4.285156 14.277344 4 14.859375 4 15.5 L 4 23.5 C 4 24.148438 4.3125 24.722656 4.71875 25.15625 C 5.125 25.589844 5.632813 25.921875 6.21875 26.1875 C 7.390625 26.714844 8.878906 27 10.5 27 C 12.121094 27 13.609375 26.714844 14.78125 26.1875 C 15.367188 25.921875 15.875 25.589844 16.28125 25.15625 C 16.6875 24.722656 17 24.148438 17 23.5 L 17 23.0625 C 17.078125 23.101563 17.136719 23.152344 17.21875 23.1875 C 18.390625 23.714844 19.878906 24 21.5 24 C 23.121094 24 24.609375 23.714844 25.78125 23.1875 C 26.367188 22.921875 26.875 22.589844 27.28125 22.15625 C 27.6875 21.722656 28 21.148438 28 20.5 L 28 8.5 C 28 7.859375 27.714844 7.277344 27.3125 6.84375 C 26.910156 6.410156 26.398438 6.078125 25.8125 5.8125 C 24.644531 5.28125 23.140625 5 21.5 5 Z M 21.5 7 C 22.894531 7 24.148438 7.28125 24.96875 7.65625 C 25.378906 7.84375 25.6875 8.050781 25.84375 8.21875 C 26 8.386719 26 8.453125 26 8.5 C 26 8.546875 26 8.613281 25.84375 8.78125 C 25.6875 8.949219 25.378906 9.15625 24.96875 9.34375 C 24.148438 9.71875 22.894531 10 21.5 10 C 20.105469 10 18.851563 9.71875 18.03125 9.34375 C 17.621094 9.15625 17.3125 8.949219 17.15625 8.78125 C 17 8.613281 17 8.546875 17 8.5 C 17 8.453125 17 8.386719 17.15625 8.21875 C 17.3125 8.050781 17.621094 7.84375 18.03125 7.65625 C 18.851563 7.28125 20.105469 7 21.5 7 Z M 17 11.09375 C 17.0625 11.125 17.121094 11.15625 17.1875 11.1875 C 18.355469 11.71875 19.859375 12 21.5 12 C 23.140625 12 24.644531 11.71875 25.8125 11.1875 C 25.878906 11.15625 25.9375 11.125 26 11.09375 L 26 12.5 C 26 12.550781 26 12.644531 25.84375 12.8125 C 25.6875 12.980469 25.382813 13.1875 24.96875 13.375 C 24.140625 13.746094 22.878906 14 21.5 14 C 20.121094 14 18.859375 13.746094 18.03125 13.375 C 17.617188 13.1875 17.3125 12.980469 17.15625 12.8125 C 17 12.644531 17 12.550781 17 12.5 Z M 10.5 14 C 11.894531 14 13.148438 14.28125 13.96875 14.65625 C 14.378906 14.84375 14.6875 15.050781 14.84375 15.21875 C 15 15.386719 15 15.453125 15 15.5 C 15 15.546875 15 15.613281 14.84375 15.78125 C 14.6875 15.949219 14.378906 16.15625 13.96875 16.34375 C 13.148438 16.71875 11.894531 17 10.5 17 C 9.105469 17 7.851563 16.71875 7.03125 16.34375 C 6.621094 16.15625 6.3125 15.949219 6.15625 15.78125 C 6 15.613281 6 15.546875 6 15.5 C 6 15.453125 6 15.386719 6.15625 15.21875 C 6.3125 15.050781 6.621094 14.84375 7.03125 14.65625 C 7.851563 14.28125 9.105469 14 10.5 14 Z M 17 15.0625 C 17.078125 15.101563 17.136719 15.152344 17.21875 15.1875 C 18.390625 15.714844 19.878906 16 21.5 16 C 23.121094 16 24.609375 15.714844 25.78125 15.1875 C 25.863281 15.152344 25.921875 15.101563 26 15.0625 L 26 16.5 C 26 16.550781 26 16.644531 25.84375 16.8125 C 25.6875 16.980469 25.382813 17.1875 24.96875 17.375 C 24.140625 17.746094 22.878906 18 21.5 18 C 20.121094 18 18.859375 17.746094 18.03125 17.375 C 17.617188 17.1875 17.3125 16.980469 17.15625 16.8125 C 17 16.644531 17 16.550781 17 16.5 Z M 6 18.09375 C 6.0625 18.125 6.121094 18.15625 6.1875 18.1875 C 7.355469 18.71875 8.859375 19 10.5 19 C 12.140625 19 13.644531 18.71875 14.8125 18.1875 C 14.878906 18.15625 14.9375 18.125 15 18.09375 L 15 19.5 C 15 19.550781 15 19.644531 14.84375 19.8125 C 14.6875 19.980469 14.382813 20.1875 13.96875 20.375 C 13.140625 20.746094 11.878906 21 10.5 21 C 9.121094 21 7.859375 20.746094 7.03125 20.375 C 6.617188 20.1875 6.3125 19.980469 6.15625 19.8125 C 6 19.644531 6 19.550781 6 19.5 Z M 17 19.0625 C 17.078125 19.101563 17.136719 19.152344 17.21875 19.1875 C 18.390625 19.714844 19.878906 20 21.5 20 C 23.121094 20 24.609375 19.714844 25.78125 19.1875 C 25.863281 19.152344 25.921875 19.101563 26 19.0625 L 26 20.5 C 26 20.550781 26 20.644531 25.84375 20.8125 C 25.6875 20.980469 25.382813 21.1875 24.96875 21.375 C 24.140625 21.746094 22.878906 22 21.5 22 C 20.121094 22 18.859375 21.746094 18.03125 21.375 C 17.617188 21.1875 17.3125 20.980469 17.15625 20.8125 C 17 20.644531 17 20.550781 17 20.5 Z M 6 22.0625 C 6.078125 22.101563 6.136719 22.152344 6.21875 22.1875 C 7.390625 22.714844 8.878906 23 10.5 23 C 12.121094 23 13.609375 22.714844 14.78125 22.1875 C 14.863281 22.152344 14.921875 22.101563 15 22.0625 L 15 23.5 C 15 23.550781 15 23.644531 14.84375 23.8125 C 14.6875 23.980469 14.382813 24.1875 13.96875 24.375 C 13.140625 24.746094 11.878906 25 10.5 25 C 9.121094 25 7.859375 24.746094 7.03125 24.375 C 6.617188 24.1875 6.3125 23.980469 6.15625 23.8125 C 6 23.644531 6 23.550781 6 23.5 Z "></path>
</g>
</svg>
