<?xml version="1.0" encoding="UTF-8"?>
<svg xmlns="http://www.w3.org/2000/svg" xmlns:xlink="http://www.w3.org/1999/xlink" viewBox="0 0 32 32" version="1.1">
<g>
<path d="M 23.964844 0 C 23.597656 0.0117188 23.269531 0.226563 23.105469 0.554688 L 22.105469 2.554688 C 21.988281 2.789063 21.96875 3.066406 22.050781 3.316406 L 22.910156 5.898438 L 21.175781 9.015625 C 20.429688 8.800781 19.699219 8.835938 19.027344 9.007813 C 18.3125 9.195313 17.664063 9.53125 17.125 9.867188 C 16.289063 10.378906 15.957031 10.734375 15.707031 10.96875 C 15.636719 10.960938 15.601563 10.957031 15.515625 10.945313 C 15.101563 10.886719 14.507813 10.804688 13.84375 10.746094 C 12.585938 10.632813 11.109375 10.542969 9.835938 11 L 4.339844 11 L 1.117188 18.515625 C 1.039063 18.664063 0.996094 18.832031 1 19 L 1 25 L 3 25 L 3 30 L 29 30 L 29 25 L 31 25 L 31 19 C 31.003906 18.828125 30.960938 18.660156 30.878906 18.511719 L 27.660156 11 L 23.445313 11 C 23.246094 10.707031 23.046875 10.417969 22.832031 10.164063 L 24.6875 6.828125 L 27.316406 5.949219 C 27.566406 5.863281 27.777344 5.683594 27.894531 5.445313 L 28.894531 3.445313 C 29.140625 2.953125 28.941406 2.351563 28.449219 2.105469 L 24.449219 0.105469 C 24.296875 0.03125 24.128906 -0.0078125 23.964844 0 Z M 24.449219 2.34375 L 26.65625 3.445313 L 26.292969 4.179688 L 24.632813 4.734375 L 24.078125 3.078125 Z M 20.125 10.875 C 20.132813 10.875 20.136719 10.878906 20.144531 10.875 L 18.125 14.515625 L 19.875 15.484375 L 21.765625 12.085938 C 21.808594 12.152344 21.855469 12.203125 21.902344 12.273438 C 22.429688 13.078125 22.96875 14.144531 23.4375 15.191406 C 24.078125 16.621094 24.273438 17.257813 24.535156 18 L 7.492188 18 C 7.71875 17.40625 7.796875 17.125 8.226563 16.207031 C 8.597656 15.410156 9.023438 14.59375 9.4375 13.96875 C 9.855469 13.34375 10.316406 12.953125 10.386719 12.921875 C 10.972656 12.675781 12.445313 12.628906 13.667969 12.738281 C 14.277344 12.792969 14.832031 12.867188 15.234375 12.925781 C 15.4375 12.953125 15.601563 12.976563 15.734375 12.992188 C 15.800781 13 15.851563 13.007813 15.957031 13.011719 C 16.011719 13.011719 16.042969 13.042969 16.304688 12.957031 C 16.335938 12.949219 16.375 12.933594 16.421875 12.914063 C 16.464844 12.894531 16.574219 12.824219 16.578125 12.824219 C 16.578125 12.824219 16.652344 12.753906 16.710938 12.699219 L 16.710938 12.703125 C 16.710938 12.703125 17.320313 12.09375 18.171875 11.566406 C 18.8125 11.175781 19.527344 10.898438 20.125 10.875 Z M 5.660156 13 L 7.695313 13 C 7.222656 13.730469 6.789063 14.558594 6.414063 15.363281 C 5.613281 17.074219 5.054688 18.671875 5.054688 18.671875 L 4.59375 20 L 27.386719 20 L 26.949219 18.6875 C 26.949219 18.6875 26.253906 16.585938 25.265625 14.375 C 25.058594 13.914063 24.832031 13.453125 24.601563 13 L 26.339844 13 L 29 19.207031 L 29 23 L 3 23 L 3 19.207031 Z M 5 25 L 27 25 L 27 28 L 5 28 Z "></path>
</g>
</svg>
