<?xml version="1.0" encoding="UTF-8"?>
<svg xmlns="http://www.w3.org/2000/svg" xmlns:xlink="http://www.w3.org/1999/xlink" viewBox="0 0 32 32" version="1.1">
<g>
<path d="M 16 3 C 7.707031 3 6.09375 8.515625 6.03125 8.75 L 6 12.1875 C 4.730469 12.632813 4 13.910156 4 15.15625 C 4 15.777344 4.171875 16.269531 4.40625 16.6875 C 3.542969 17.332031 3 18.367188 3 19.5 C 3 20.550781 3.464844 21.535156 4.25 22.1875 C 4.078125 22.605469 4 23.046875 4 23.5 C 4 25.429688 5.570313 27 7.5 27 C 7.769531 27 8.023438 26.96875 8.28125 26.90625 C 8.824219 28.136719 10.070313 29 11.5 29 C 12.304688 29 13.050781 28.734375 13.65625 28.25 C 15 29.230469 17 29.230469 18.34375 28.25 C 18.949219 28.734375 19.695313 29 20.5 29 C 21.929688 29 23.175781 28.136719 23.71875 26.90625 C 23.976563 26.96875 24.230469 27 24.5 27 C 26.429688 27 28 25.429688 28 23.5 C 28 23.046875 27.921875 22.605469 27.75 22.1875 C 28.535156 21.535156 29 20.550781 29 19.5 C 29 18.367188 28.457031 17.332031 27.59375 16.6875 C 27.828125 16.269531 28 15.777344 28 15.15625 C 28 14.621094 27.847656 14.074219 27.59375 13.59375 C 28.605469 13.042969 29.3125 11.980469 29.3125 10.75 C 29.3125 8.957031 27.855469 7.5 26.0625 7.5 C 26.003906 7.5 25.933594 7.527344 25.875 7.53125 L 25.84375 7.4375 C 25.722656 7.253906 22.765625 3 16 3 Z M 16 5 C 20.300781 5 22.714844 6.972656 23.6875 8 L 8.65625 8 C 9.578125 6.738281 11.628906 5 16 5 Z M 26.0625 9.5 C 26.75 9.5 27.3125 10.0625 27.3125 10.75 C 27.3125 11.4375 26.75 12 26.0625 12 C 25.375 12 24.8125 11.4375 24.8125 10.75 C 24.8125 10.0625 25.375 9.5 26.0625 9.5 Z M 8 10 L 22.90625 10 C 22.847656 10.242188 22.8125 10.492188 22.8125 10.75 C 22.8125 11.191406 22.902344 11.613281 23.0625 12 L 8 12 Z M 7 14 L 25 14 C 25.820313 14 26 14.839844 26 15.15625 C 26 15.792969 25.40625 16.25 25.40625 16.25 L 25.21875 16.375 L 25.125 16.59375 C 25.113281 16.617188 23.847656 19 22 19 C 20.070313 19 18.949219 17.496094 18.90625 17.4375 L 18.53125 17 L 17 17 L 17 18 C 17 18.550781 16.550781 19 16 19 C 15.449219 19 15 18.550781 15 18 L 14.90625 17 L 13.40625 17 L 13.09375 17.40625 C 13.046875 17.46875 11.929688 19 10 19 C 8.152344 19 6.917969 16.613281 6.90625 16.59375 L 6.78125 16.375 L 6.59375 16.25 C 6.585938 16.246094 6 15.785156 6 15.15625 C 6 14.839844 6.179688 14 7 14 Z M 20 14 C 19.449219 14 19 14.449219 19 15 C 19 15.550781 19.449219 16 20 16 C 20.550781 16 21 15.550781 21 15 C 21 14.449219 20.550781 14 20 14 Z M 12 14 C 11.449219 14 11 14.449219 11 15 C 11 15.550781 11.449219 16 12 16 C 12.550781 16 13 15.550781 13 15 C 13 14.449219 12.550781 14 12 14 Z M 5.625 18.3125 C 6.351563 19.347656 7.839844 21 10 21 C 11.558594 21 12.761719 20.371094 13.5625 19.75 C 14.105469 20.507813 14.996094 21 16 21 C 17.003906 21 17.894531 20.507813 18.4375 19.75 C 19.238281 20.371094 20.441406 21 22 21 C 24.160156 21 25.648438 19.347656 26.375 18.3125 C 26.742188 18.589844 27 19.019531 27 19.5 C 27 20.121094 26.589844 20.691406 26 20.90625 L 25.625 22.5 C 25.800781 22.699219 26 23.039063 26 23.5 C 26 24.328125 25.328125 25 24.5 25 C 24.097656 25 23.78125 24.828125 23.59375 24.6875 L 22 25.5 C 21.996094 26.324219 21.324219 27 20.5 27 C 19.980469 27 19.496094 26.730469 19.21875 26.28125 L 17.59375 26.1875 C 16.824219 27.203125 15.175781 27.203125 14.40625 26.1875 L 12.78125 26.28125 C 12.503906 26.730469 12.019531 27 11.5 27 C 10.675781 27 10.003906 26.324219 10 25.5 L 8.40625 24.6875 C 8.21875 24.828125 7.902344 25 7.5 25 C 6.671875 25 6 24.328125 6 23.5 C 6 23.039063 6.195313 22.699219 6.375 22.5 L 6 20.90625 C 5.410156 20.691406 5 20.121094 5 19.5 C 5 19.019531 5.257813 18.589844 5.625 18.3125 Z M 13 22 L 13 24 L 19 24 L 19 22 Z "></path>
</g>
</svg>
