<?xml version="1.0" encoding="UTF-8"?>
<svg xmlns="http://www.w3.org/2000/svg" xmlns:xlink="http://www.w3.org/1999/xlink" viewBox="0 0 32 32" version="1.1">
<g>
<path d="M 1 9 L 1 23 L 16.390625 23 L 31.558594 9 Z M 3 11 L 26.441406 11 L 15.609375 21 L 3 21 Z M 6.199219 13 C 4.5 13 4 14.050781 4 14.699219 C 4 15.347656 4.351563 16.101563 5.300781 16.402344 C 6.300781 16.699219 7.050781 16.75 7.050781 17.25 C 7.050781 17.75 5.351563 17.851563 4.398438 17.25 L 4 18.550781 C 4 18.550781 4.550781 19 6.199219 19 C 7.089844 19 7.785156 18.75 8.242188 18.386719 L 8 19 L 9.75 19 L 10.050781 18.097656 C 10.402344 18.25 10.800781 18.347656 11.25 18.347656 C 11.699219 18.347656 12.097656 18.25 12.449219 18.097656 L 12.75 19 L 15.5 19 L 15.5 17.5 L 16.25 17.5 C 17.5 17.5 18.5 16.5 18.5 15.25 C 18.5 14 17.5 13 16.25 13 L 14 13 L 14 17.75 L 12.097656 13 L 10.347656 13 L 8.804688 16.941406 C 8.605469 16.066406 7.675781 15.734375 7.101563 15.597656 C 5.601563 15.199219 5.5 15 5.5 14.699219 C 5.5 13.949219 7.5 14.300781 8 14.5 C 8.148438 14.101563 8.449219 13.347656 8.449219 13.347656 C 8.449219 13.347656 7.898438 13 6.199219 13 Z M 15.5 14.5 L 16.25 14.5 C 16.648438 14.5 17 14.851563 17 15.25 C 17 15.648438 16.648438 16 16.25 16 L 15.5 16 Z M 11.25 14.699219 L 12 16.847656 C 11.800781 17 11.550781 17.050781 11.25 17.050781 C 10.949219 17.050781 10.699219 17 10.5 16.847656 Z "></path>
</g>
</svg>
