<?xml version="1.0" encoding="UTF-8"?>
<svg xmlns="http://www.w3.org/2000/svg" xmlns:xlink="http://www.w3.org/1999/xlink" viewBox="0 0 32 32" version="1.1">
<g>
<path d="M 20.59375 5 C 18.921875 4.886719 16.941406 5.832031 15 7.5625 C 15.226563 7.695313 15.425781 7.824219 15.625 8 C 16.277344 7.972656 16.96875 7.988281 17.625 8.03125 C 18.636719 7.347656 19.542969 7 20.28125 7 C 20.601563 7 20.886719 7.078125 21.125 7.21875 C 21.921875 7.683594 22.289063 8.980469 22.125 10.78125 C 20.351563 10.277344 18.269531 10 16 10 C 15.574219 10 15.164063 10.011719 14.75 10.03125 C 14.410156 9.414063 13.753906 9 13 9 C 12.066406 9 11.285156 9.636719 11.0625 10.5 C 6.832031 11.40625 4 13.472656 4 16 C 4 17.839844 5.492188 19.417969 7.9375 20.5 C 7.566406 23.324219 8.175781 25.558594 9.84375 26.53125 C 10.398438 26.855469 11.023438 27 11.6875 27 C 13.738281 27 16.191406 25.5 18.46875 22.9375 C 18.636719 22.984375 18.816406 23 19 23 C 20.105469 23 21 22.105469 21 21 C 21 20.625 20.898438 20.269531 20.71875 19.96875 C 20.90625 19.675781 21.101563 19.402344 21.28125 19.09375 C 22.394531 17.183594 23.183594 15.28125 23.65625 13.53125 C 25.117188 14.257813 26 15.152344 26 16 C 26 16.617188 25.539063 17.257813 24.71875 17.84375 C 24.335938 18.683594 23.914063 19.53125 23.4375 20.34375 C 23.328125 20.53125 23.207031 20.722656 23.09375 20.90625 C 26.101563 19.835938 28 18.070313 28 16 C 28 14.164063 26.5 12.582031 24.0625 11.5 C 24.429688 8.683594 23.824219 6.441406 22.15625 5.46875 C 21.679688 5.191406 21.152344 5.039063 20.59375 5 Z M 16 12 C 18.179688 12 20.148438 12.328125 21.75 12.8125 C 21.34375 14.40625 20.65625 16.191406 19.5625 18.0625 C 19.375 18.386719 19.164063 18.695313 18.96875 19 C 17.878906 19.015625 17 19.90625 17 21 C 17 21.183594 17.015625 21.363281 17.0625 21.53125 C 14.617188 24.308594 12.121094 25.539063 10.875 24.8125 C 10.074219 24.34375 9.703125 23.003906 9.875 21.1875 C 10.859375 21.46875 11.910156 21.675781 13.0625 21.8125 L 13.25 21.6875 C 13.863281 21.238281 14.476563 20.65625 15.09375 19.96875 C 13.265625 19.894531 11.632813 19.605469 10.25 19.1875 C 10.589844 17.855469 11.125 16.382813 11.9375 14.84375 C 11.695313 14.777344 11.480469 14.707031 11.25 14.59375 C 10.628906 14.757813 10.050781 14.941406 9.5625 15.15625 C 9.039063 16.292969 8.632813 17.40625 8.34375 18.46875 C 6.875 17.742188 6 16.847656 6 16 C 6 14.636719 8.257813 13.183594 11.65625 12.46875 C 12.011719 12.792969 12.480469 13 13 13 C 13.714844 13 14.332031 12.625 14.6875 12.0625 C 15.125 12.035156 15.542969 12 16 12 Z "></path>
</g>
</svg>
