<?xml version="1.0" encoding="UTF-8"?>
<svg xmlns="http://www.w3.org/2000/svg" xmlns:xlink="http://www.w3.org/1999/xlink" viewBox="0 0 32 32" version="1.1">
<g>
<path d="M 9 4 L 9 5 L 5 5 L 5 27 L 27 27 L 27 5 L 23 5 L 23 4 L 21 4 L 21 5 L 11 5 L 11 4 Z M 7 7 L 9 7 L 9 8 L 11 8 L 11 7 L 21 7 L 21 8 L 23 8 L 23 7 L 25 7 L 25 9 L 7 9 Z M 7 11 L 25 11 L 25 25 L 7 25 Z M 12.5 14 C 11.132813 14 10 15.132813 10 16.5 C 10 17.867188 11.132813 19 12.5 19 C 12.785156 19 13 19.214844 13 19.5 C 13 19.863281 12.9375 20 12.5 20 C 12.121094 20 12.066406 19.914063 12.0625 19.90625 C 12.058594 19.898438 12 19.867188 12 19.625 L 10 19.625 C 10 20.191406 10.15625 20.832031 10.625 21.3125 C 11.09375 21.792969 11.773438 22 12.5 22 C 13.910156 22 15 20.792969 15 19.5 C 15 18.132813 13.867188 17 12.5 17 C 12.214844 17 12 16.785156 12 16.5 C 12 16.214844 12.214844 16 12.5 16 C 12.769531 16 12.84375 16.058594 12.90625 16.125 C 12.96875 16.191406 13 16.320313 13 16.40625 L 15 16.40625 C 15 15.839844 14.804688 15.253906 14.375 14.78125 C 13.945313 14.308594 13.257813 14 12.5 14 Z M 18.21875 14 L 18 14.6875 L 16.0625 20.6875 L 16 20.84375 L 16 22 L 18 22 L 18 21.125 L 18.03125 21 L 19.96875 21 L 20 21.125 L 20 22 L 22 22 L 22 20.84375 L 21.9375 20.6875 L 20 14.6875 L 19.78125 14 Z M 19 18.0625 L 19.3125 19 L 18.6875 19 Z "></path>
</g>
</svg>
