<?xml version="1.0" encoding="UTF-8"?>
<svg xmlns="http://www.w3.org/2000/svg" xmlns:xlink="http://www.w3.org/1999/xlink" viewBox="0 0 32 32" version="1.1">
<g>
<path d="M 15.09375 4 C 13.59375 4 12.3125 5.210938 12.3125 6.8125 C 12.3125 8.3125 13.492188 9.59375 15.09375 9.59375 C 16.695313 9.59375 17.90625 8.414063 17.90625 6.8125 C 17.804688 5.210938 16.59375 4 15.09375 4 Z M 15.09375 6 C 15.492188 6 15.90625 6.3125 15.90625 6.8125 C 15.90625 7.3125 15.59375 7.59375 15.09375 7.59375 C 14.695313 7.59375 14.3125 7.3125 14.3125 6.8125 C 14.3125 6.3125 14.695313 6 15.09375 6 Z M 8.59375 7.1875 C 7.292969 7.1875 6.3125 8.199219 6.3125 9.5 C 6.3125 10.800781 7.292969 11.8125 8.59375 11.8125 C 9.894531 11.8125 10.90625 10.800781 10.90625 9.5 C 10.90625 8.199219 9.894531 7.1875 8.59375 7.1875 Z M 22.5 7.1875 C 20.699219 7.1875 19.3125 8.605469 19.3125 10.40625 C 19.3125 12.207031 20.699219 13.59375 22.5 13.59375 C 24.300781 13.59375 25.6875 12.207031 25.6875 10.40625 C 25.6875 8.605469 24.199219 7.1875 22.5 7.1875 Z M 8.59375 9.1875 C 8.792969 9.1875 8.90625 9.300781 8.90625 9.5 C 8.90625 9.699219 8.792969 9.8125 8.59375 9.8125 C 8.394531 9.8125 8.3125 9.699219 8.3125 9.5 C 8.3125 9.398438 8.394531 9.1875 8.59375 9.1875 Z M 22.5 9.1875 C 23.199219 9.1875 23.6875 9.804688 23.6875 10.40625 C 23.6875 11.007813 23.101563 11.59375 22.5 11.59375 C 21.898438 11.59375 21.3125 11.007813 21.3125 10.40625 C 21.3125 9.804688 21.800781 9.1875 22.5 9.1875 Z M 5.8125 14.1875 C 4.820313 14.1875 4 15.007813 4 16 C 4 16.992188 4.820313 17.8125 5.8125 17.8125 C 6.804688 17.8125 7.59375 16.992188 7.59375 16 C 7.59375 15.007813 6.804688 14.1875 5.8125 14.1875 Z M 24.3125 16 C 22.3125 16 20.59375 17.6875 20.59375 19.6875 C 20.59375 21.6875 22.3125 23.40625 24.3125 23.40625 C 26.3125 23.40625 28 21.6875 28 19.6875 C 28 17.6875 26.3125 16 24.3125 16 Z M 24.3125 18 C 25.210938 18 26 18.789063 26 19.6875 C 26 20.585938 25.210938 21.40625 24.3125 21.40625 C 23.414063 21.40625 22.59375 20.585938 22.59375 19.6875 C 22.59375 18.789063 23.414063 18 24.3125 18 Z M 7.6875 22 C 6.914063 22 6.3125 22.632813 6.3125 23.40625 C 6.3125 24.179688 6.914063 24.8125 7.6875 24.8125 C 8.460938 24.8125 9.09375 24.179688 9.09375 23.40625 C 9.09375 22.632813 8.460938 22 7.6875 22 Z M 14.1875 26.1875 C 13.691406 26.1875 13.3125 26.597656 13.3125 27.09375 C 13.3125 27.589844 13.691406 28 14.1875 28 C 14.683594 28 15.09375 27.589844 15.09375 27.09375 C 15.09375 26.597656 14.683594 26.1875 14.1875 26.1875 Z "></path>
</g>
</svg>
