<?xml version="1.0" encoding="UTF-8"?>
<svg xmlns="http://www.w3.org/2000/svg" xmlns:xlink="http://www.w3.org/1999/xlink" viewBox="0 0 32 32" version="1.1">
<g>
<path d="M 4.996094 8 C 2.746094 8 1.339844 8.9375 0.667969 9.945313 C -0.00390625 10.953125 0 12 0 12 L 0 13 L 1 13 C 1 13 1.308594 12.992188 1.929688 13.199219 C 2.554688 13.40625 3.40625 13.824219 4.289063 14.707031 C 5.363281 15.785156 6.144531 20.804688 10.738281 22.457031 C 10.289063 22.824219 10 23.375 10 24 L 21 24 C 21 23.335938 20.675781 22.757813 20.179688 22.390625 C 21.027344 22.046875 21.773438 21.5625 22.421875 20.984375 C 27.519531 20.820313 30.605469 17.863281 31.613281 14.8125 C 32.132813 13.242188 32.148438 11.648438 31.589844 10.328125 C 31.027344 9.007813 29.742188 8 28.128906 8 C 25.972656 8 24.738281 9.535156 24.300781 10.203125 C 24.082031 10.304688 23.566406 10.519531 22.425781 10.734375 C 20.980469 11.011719 18.796875 11.179688 15.917969 10.703125 C 12.203125 10.082031 8.445313 8 4.996094 8 Z M 4.996094 10 C 7.542969 10 11.421875 11.976563 15.589844 12.671875 C 18.707031 13.195313 21.136719 13.019531 22.800781 12.703125 C 23.453125 12.578125 23.414063 12.523438 23.835938 12.382813 C 23.683594 14.414063 23.277344 16.429688 22.375 17.949219 C 21.261719 19.816406 19.664063 21 16.984375 21 L 13.988281 21 C 7.566406 21 8.410156 16 5.703125 13.292969 C 4.585938 12.175781 3.441406 11.59375 2.5625 11.300781 C 2.398438 11.246094 2.414063 11.28125 2.265625 11.246094 C 2.308594 11.152344 2.265625 11.152344 2.332031 11.054688 C 2.660156 10.5625 3.246094 10 4.996094 10 Z M 28.128906 10 C 29 10 29.429688 10.367188 29.746094 11.109375 C 30.0625 11.851563 30.105469 13.007813 29.714844 14.1875 C 29.070313 16.136719 27.371094 18.144531 24.191406 18.785156 C 25.449219 16.578125 25.941406 13.882813 25.972656 11.300781 C 26.207031 10.945313 26.929688 10 28.128906 10 Z "></path>
</g>
</svg>
