<?xml version="1.0" encoding="UTF-8"?>
<svg xmlns="http://www.w3.org/2000/svg" xmlns:xlink="http://www.w3.org/1999/xlink" viewBox="0 0 32 32" version="1.1">
<g>
<path d="M 12 2 L 11.433594 4.265625 C 10.6875 3.976563 9.867188 3.917969 9.070313 4.109375 C 8.035156 4.355469 7.15625 4.992188 6.59375 5.90625 C 6.328125 6.335938 4 10.28125 4 15.53125 C 4 21.796875 6.347656 25.707031 6.617188 26.128906 C 7.351563 27.300781 8.617188 28 10.003906 28 C 10.496094 28 10.976563 27.898438 11.433594 27.722656 L 12 30 L 13 29 L 14 29 L 14 28 L 15 27 L 13.085938 26.519531 C 13.472656 26.050781 13.761719 25.5 13.902344 24.886719 C 14.136719 23.84375 13.953125 22.773438 13.398438 21.890625 C 13.382813 21.867188 12 19.441406 12 15.53125 C 12 12.519531 13.410156 10.09375 13.417969 10.078125 C 14.316406 8.59375 14.121094 6.753906 13.082031 5.476563 L 15 5 L 14 4 L 14 3 L 13 3 Z M 25 2 L 24.433594 4.265625 C 23.6875 3.976563 22.871094 3.914063 22.074219 4.109375 C 21.035156 4.355469 20.15625 4.992188 19.59375 5.90625 C 19.328125 6.335938 17 10.28125 17 15.53125 C 17 21.796875 19.347656 25.707031 19.613281 26.132813 C 20.351563 27.304688 21.617188 28 23.003906 28 C 23.496094 28 23.976563 27.898438 24.433594 27.722656 L 25 30 L 26 29 L 27 29 L 27 28 L 28 27 L 26.085938 26.519531 C 26.472656 26.046875 26.761719 25.5 26.902344 24.886719 C 27.136719 23.84375 26.953125 22.773438 26.398438 21.890625 C 26.386719 21.867188 25 19.4375 25 15.53125 C 25 12.519531 26.410156 10.09375 26.417969 10.078125 C 27.316406 8.59375 27.121094 6.757813 26.082031 5.480469 L 28 5 L 27 4 L 27 3 L 26 3 Z M 10.003906 6 C 10.367188 6 10.730469 6.101563 11.046875 6.296875 C 11.980469 6.871094 12.277344 8.101563 11.707031 9.042969 C 11.691406 9.070313 10 11.921875 10 15.53125 C 10 20.085938 11.6875 22.925781 11.691406 22.9375 C 11.976563 23.386719 12.070313 23.921875 11.953125 24.441406 C 11.832031 24.964844 11.515625 25.410156 11.066406 25.691406 C 10.15625 26.265625 8.875 25.964844 8.304688 25.066406 C 8.070313 24.691406 6 21.234375 6 15.53125 C 6 10.828125 8.0625 7.332031 8.296875 6.949219 C 8.578125 6.496094 9.015625 6.175781 9.539063 6.054688 C 9.691406 6.015625 9.847656 6 10.003906 6 Z M 23.003906 6 C 23.371094 6 23.730469 6.097656 24.046875 6.296875 C 24.980469 6.871094 25.277344 8.101563 24.707031 9.042969 C 24.6875 9.070313 23 11.921875 23 15.53125 C 23 20.085938 24.679688 22.914063 24.691406 22.9375 C 24.976563 23.386719 25.070313 23.921875 24.953125 24.441406 C 24.832031 24.964844 24.515625 25.410156 24.066406 25.691406 C 23.15625 26.265625 21.875 25.964844 21.308594 25.066406 C 21.070313 24.691406 19 21.234375 19 15.53125 C 19 10.828125 21.0625 7.332031 21.296875 6.949219 C 21.578125 6.496094 22.015625 6.175781 22.535156 6.054688 C 22.691406 6.015625 22.847656 6 23.003906 6 Z "></path>
</g>
</svg>
