<?xml version="1.0" encoding="UTF-8"?>
<svg xmlns="http://www.w3.org/2000/svg" xmlns:xlink="http://www.w3.org/1999/xlink" viewBox="0 0 32 32" version="1.1">
<g>
<path d="M 16.5 3 C 14.8125 3 13.394531 4.035156 12.625 5.5 C 11.136719 5.933594 9.777344 6.660156 8.59375 7.59375 C 8.582031 7.582031 8.503906 7.507813 8.5 7.5 L 7.96875 6.875 L 7.28125 7.28125 C 6.117188 7.914063 5.167969 9.035156 4.75 10.34375 L 4.53125 10.9375 L 5 11.375 C 5 11.375 5.308594 11.65625 5.34375 11.6875 C 4.539063 13.300781 4 15.078125 4 17 C 4 23.617188 9.382813 29 16 29 C 18.585938 29 20.976563 28.175781 22.9375 26.78125 L 23.75 26.21875 L 23.1875 25.40625 C 23.1875 25.40625 22 23.679688 22 21 C 22 18.707031 23.351563 16.285156 24.78125 14.46875 C 25.003906 14.1875 25.222656 13.9375 25.4375 13.6875 C 25.800781 14.726563 26 15.835938 26 17 C 26 19.132813 25.324219 21.097656 24.1875 22.71875 L 25.84375 23.875 C 27.207031 21.929688 28 19.550781 28 17 C 28 15.25 27.613281 13.597656 26.9375 12.09375 C 27.285156 11.769531 27.625 11.46875 27.625 11.46875 L 28 11.1875 L 28 10.71875 C 28 9.980469 27.683594 9.496094 27.28125 8.9375 C 26.878906 8.378906 26.332031 7.808594 25.625 7.40625 L 25 7.0625 L 24.4375 7.5625 C 24.324219 7.667969 24.117188 7.878906 23.96875 8.03125 C 22.96875 7.140625 21.820313 6.425781 20.5625 5.90625 C 19.855469 4.226563 18.339844 3 16.5 3 Z M 16.5 5 C 17.816406 5 19 6.265625 19 8 C 19 9.734375 17.816406 11 16.5 11 C 15.183594 11 14 9.734375 14 8 C 14 6.265625 15.183594 5 16.5 5 Z M 12.03125 7.8125 C 12.027344 7.875 12 7.9375 12 8 C 12 8.996094 12.28125 9.921875 12.75 10.71875 C 12.382813 10.507813 12.007813 10.300781 11.65625 10.0625 C 11.09375 9.679688 10.585938 9.28125 10.125 8.90625 C 10.71875 8.472656 11.347656 8.109375 12.03125 7.8125 Z M 20.96875 8.34375 C 21.511719 8.652344 22.027344 9.003906 22.5 9.40625 C 22.226563 9.632813 21.925781 9.863281 21.59375 10.09375 C 21.140625 10.40625 20.628906 10.703125 20.09375 10.96875 C 20.601563 10.210938 20.90625 9.320313 20.96875 8.34375 Z M 7.78125 9.5625 C 7.964844 9.726563 8.074219 9.832031 8.3125 10.03125 C 8.925781 10.542969 9.683594 11.140625 10.53125 11.71875 C 12.230469 12.875 14.132813 14 16 14 C 18.75 14 21.039063 12.882813 22.71875 11.71875 C 24.035156 10.804688 24.667969 10.125 25.15625 9.625 C 25.332031 9.789063 25.527344 9.914063 25.65625 10.09375 C 25.804688 10.304688 25.796875 10.347656 25.84375 10.46875 C 25.453125 10.804688 24.535156 11.574219 23.21875 13.25 C 21.648438 15.246094 20 17.957031 20 21 C 20 23.21875 20.605469 24.632813 21.0625 25.53125 C 19.566406 26.421875 17.871094 27 16 27 C 14.683594 27 13.433594 26.710938 12.28125 26.25 C 12.195313 25.855469 12 25.136719 12 24.0625 C 12 22.449219 12.320313 21.082031 12.625 19.90625 C 12.929688 18.730469 13.324219 17.730469 12.9375 16.59375 L 12.875 16.40625 C 12.5625 15.859375 12.132813 15.460938 11.5 14.8125 C 10.867188 14.164063 10.070313 13.414063 9.3125 12.6875 C 8.121094 11.546875 7.433594 10.898438 7 10.5 C 7.210938 10.128906 7.46875 9.851563 7.78125 9.5625 Z M 6.875 13.125 C 7.335938 13.554688 7.394531 13.605469 7.9375 14.125 C 8.683594 14.839844 9.457031 15.566406 10.0625 16.1875 C 10.625 16.765625 11.019531 17.265625 11.0625 17.3125 C 11.109375 17.507813 10.988281 18.246094 10.6875 19.40625 C 10.378906 20.597656 10 22.171875 10 24.0625 C 10 24.464844 10.058594 24.472656 10.09375 24.84375 C 7.671875 23.019531 6 20.273438 6 17 C 6 15.605469 6.363281 14.328125 6.875 13.125 Z "></path>
</g>
</svg>
