<?xml version="1.0" encoding="UTF-8"?>
<svg xmlns="http://www.w3.org/2000/svg" xmlns:xlink="http://www.w3.org/1999/xlink" viewBox="0 0 32 32" version="1.1">
<g>
<path d="M 0 6 L 0 25 L 13 25 C 14.117188 25 15 25.882813 15 27 L 17 27 C 17 25.882813 17.882813 25 19 25 L 32 25 L 32 6 L 19 6 C 17.800781 6 16.734375 6.558594 16 7.40625 C 15.265625 6.558594 14.199219 6 13 6 Z M 2 8 L 13 8 C 14.117188 8 15 8.882813 15 10 L 17 10 C 17 8.882813 17.882813 8 19 8 L 30 8 L 30 23 L 19 23 C 17.800781 23 16.734375 23.558594 16 24.40625 C 15.265625 23.558594 14.199219 23 13 23 L 2 23 Z M 4 11 L 4 13 L 8 13 L 8 11 Z M 10 11 L 10 13 L 12 13 L 12 11 Z M 20 11 L 20 13 L 24 13 L 24 11 Z M 26 11 L 26 13 L 28 13 L 28 11 Z M 4 15 L 4 17 L 8 17 L 8 15 Z M 20 15 L 20 17 L 24 17 L 24 15 Z M 4 19 L 4 21 L 8 21 L 8 19 Z M 10 19 L 10 21 L 12 21 L 12 19 Z "></path>
</g>
</svg>
