<?xml version="1.0" encoding="UTF-8"?>
<svg xmlns="http://www.w3.org/2000/svg" xmlns:xlink="http://www.w3.org/1999/xlink" viewBox="0 0 32 32" version="1.1">
<g>
<path d="M 28 1.0625 L 27.25 1.59375 L 9.1875 14.625 L 8.40625 15.1875 L 7.5625 15.8125 L 2.5 19.375 L 2.46875 19.375 L 2.46875 19.40625 C 2.46875 19.40625 1.808594 19.875 1.375 20.71875 C 0.941406 21.5625 0.785156 22.953125 1.6875 24.21875 C 2.539063 25.414063 4.050781 27.539063 5.46875 29.53125 C 6.371094 30.796875 7.753906 31.121094 8.6875 30.96875 C 9.621094 30.816406 10.25 30.3125 10.25 30.3125 L 10.28125 30.3125 L 13.59375 27.8125 L 14 27.5 L 14 24 L 15 24 L 15 22 L 17 22 L 17 20 L 19 20 L 19 18 L 21 18 L 21 16 L 23 16 L 23 14 L 25 14 L 25 12 L 27 12 L 27 10 L 29 10 L 29 8 L 31 8 L 31 4.625 L 30.78125 4.34375 L 28.625 1.78125 Z M 27.65625 3.78125 L 29 5.40625 L 29 6 L 27 6 L 27 8 L 25 8 L 25 10 L 23 10 L 23 12 L 21 12 L 21 14 L 19 14 L 19 16 L 17 16 L 17 18 L 15 18 L 15 20 L 13.46875 20 L 11.4375 17.46875 L 10.4375 16.1875 Z M 8.8125 17.34375 L 12 21.34375 L 12 26.5 L 9.09375 28.6875 L 9.0625 28.6875 C 9.039063 28.703125 8.730469 28.90625 8.34375 28.96875 C 7.941406 29.035156 7.609375 29.101563 7.09375 28.375 C 5.675781 26.378906 4.195313 24.261719 3.34375 23.0625 C 2.828125 22.335938 2.964844 22 3.15625 21.625 C 3.339844 21.273438 3.59375 21.054688 3.625 21.03125 C 3.625 21.03125 3.65625 21 3.65625 21 Z M 6.8125 21.40625 L 5.1875 22.59375 L 8.1875 26.59375 L 9.8125 25.40625 Z "></path>
</g>
</svg>
