<?xml version="1.0" encoding="UTF-8"?>
<svg xmlns="http://www.w3.org/2000/svg" xmlns:xlink="http://www.w3.org/1999/xlink" viewBox="0 0 32 32" version="1.1">
<g>
<path d="M 17.1875 3.15625 C 17.1875 3.15625 16.664063 4.492188 17.25 5.875 C 17.609375 6.71875 18.308594 7.289063 19 7.53125 C 19.691406 7.773438 20.339844 7.789063 20.90625 7.78125 C 21.472656 7.773438 21.960938 7.761719 22.21875 7.8125 C 22.476563 7.863281 22.414063 7.808594 22.46875 7.9375 C 22.589844 8.226563 22.59375 8.265625 22.28125 8.75 C 21.96875 9.234375 21.308594 9.929688 20.5 10.90625 C 20.417969 11.003906 20.109375 11.394531 20 11.53125 C 19.851563 11.445313 19.683594 11.40625 19.5 11.40625 C 18.949219 11.40625 18.5 11.855469 18.5 12.40625 C 18.5 12.683594 18.601563 12.914063 18.78125 13.09375 C 18.621094 13.300781 18.457031 13.492188 18.28125 13.71875 C 18.109375 13.578125 17.894531 13.5 17.65625 13.5 C 17.105469 13.5 16.65625 13.949219 16.65625 14.5 C 16.65625 14.835938 16.835938 15.101563 17.09375 15.28125 C 16.898438 15.535156 16.792969 15.648438 16.59375 15.90625 C 16.414063 15.742188 16.167969 15.65625 15.90625 15.65625 C 15.355469 15.65625 14.90625 16.105469 14.90625 16.65625 C 14.90625 17.003906 15.105469 17.289063 15.375 17.46875 C 14.746094 18.277344 14.089844 19.117188 13.625 19.71875 C 13.304688 20.132813 13.0625 20.472656 12.875 20.71875 C 12.6875 20.964844 12.609375 21.015625 12.53125 21.125 C 12.449219 21.234375 12.363281 21.359375 12.3125 21.625 C 12.261719 21.890625 12.382813 22.476563 12.78125 22.71875 C 13.179688 22.960938 13.472656 22.871094 13.65625 22.8125 C 13.839844 22.753906 13.984375 22.683594 14.09375 22.59375 L 14.09375 22.5625 C 14.078125 22.578125 14.113281 22.554688 14.1875 22.5 C 14.277344 22.433594 14.414063 22.328125 14.5625 22.21875 C 14.859375 21.996094 15.25 21.707031 15.65625 21.40625 C 16.46875 20.804688 17.40625 20.117188 17.59375 20 C 19.117188 19.023438 20.15625 19.21875 20.15625 19.21875 L 20.75 19.28125 L 20.96875 22.09375 L 20.875 22.0625 C 20.875 22.0625 20.277344 21.777344 19.5 21.71875 C 18.722656 21.660156 17.59375 21.886719 16.875 22.875 C 16.734375 23.070313 16.085938 23.832031 15.375 24.6875 C 14.097656 26.226563 11.816406 26.4375 10.28125 25.15625 C 8.648438 23.792969 8.558594 21.378906 10.0625 19.875 L 20.65625 9.21875 C 20.65625 9.21875 19.3125 9.507813 18.4375 8.75 L 8.625 18.4375 C 6.316406 20.753906 6.488281 24.589844 9 26.6875 C 11.367188 28.664063 14.9375 28.34375 16.90625 25.96875 C 17.617188 25.113281 18.191406 24.414063 18.46875 24.03125 C 18.71875 23.6875 18.96875 23.660156 19.34375 23.6875 C 19.703125 23.714844 19.976563 23.863281 20 23.875 C 20 23.875 20.03125 23.875 20.03125 23.875 L 21.25 24.8125 L 21.5625 25.0625 L 21.96875 25.03125 L 22.25 25 L 23.25 24.90625 L 23.15625 23.90625 L 22.53125 16.6875 L 22.4375 15.6875 L 21.40625 15.78125 L 21.15625 15.8125 L 20.6875 15.875 L 20.4375 16.25 L 19.75 17.25 C 19.269531 17.261719 18.546875 17.484375 17.53125 17.90625 C 17.550781 17.878906 17.574219 17.871094 17.59375 17.84375 C 19.386719 15.535156 21.355469 13.003906 22.03125 12.1875 C 22.796875 11.261719 23.484375 10.589844 23.96875 9.84375 C 24.453125 9.097656 24.699219 8.070313 24.3125 7.15625 C 23.988281 6.390625 23.222656 5.960938 22.59375 5.84375 C 21.964844 5.726563 21.390625 5.773438 20.875 5.78125 C 20.359375 5.789063 19.925781 5.75 19.65625 5.65625 C 19.386719 5.5625 19.253906 5.476563 19.09375 5.09375 C 18.914063 4.667969 19.09375 3.75 19.09375 3.75 Z "></path>
</g>
</svg>
