<?xml version="1.0" encoding="UTF-8"?>
<svg xmlns="http://www.w3.org/2000/svg" xmlns:xlink="http://www.w3.org/1999/xlink" viewBox="0 0 32 32" version="1.1">
<g>
<path d="M 10.4375 5.09375 L 9.5625 6.90625 L 25.34375 14.78125 C 26.363281 15.289063 27 16.332031 27 17.46875 L 27 18 L 6 18 C 4.355469 18 3 19.355469 3 21 L 3 26 L 29 26 L 29 17.46875 C 29 15.578125 27.941406 13.847656 26.25 13 Z M 6 15 L 6 17 L 23 17 L 23 15 Z M 6 20 L 27 20 L 27 24 L 5 24 L 5 21 C 5 20.433594 5.433594 20 6 20 Z M 8 21 C 7.449219 21 7 21.449219 7 22 C 7 22.550781 7.449219 23 8 23 C 8.550781 23 9 22.550781 9 22 C 9 21.449219 8.550781 21 8 21 Z "></path>
</g>
</svg>
