<?xml version="1.0" encoding="UTF-8"?>
<svg xmlns="http://www.w3.org/2000/svg" xmlns:xlink="http://www.w3.org/1999/xlink" viewBox="0 0 32 32" version="1.1">
<g>
<path d="M 18 2 C 12.921875 2 10.082031 2.75 8.4375 3.625 C 7.617188 4.0625 7.097656 4.535156 6.78125 4.9375 C 6.675781 5.074219 6.632813 5.214844 6.5625 5.34375 L 6.53125 5.3125 L 6.46875 5.46875 C 6.375 5.664063 6.3125 5.8125 6.3125 5.8125 L 6.3125 5.84375 C 6.3125 5.84375 6.316406 5.933594 6.3125 5.96875 L 6.0625 6.65625 C 6.0625 6.65625 5 9.550781 5 12 C 5 13.109375 5.753906 13.878906 6.71875 14.625 C 7.597656 15.304688 8.773438 15.9375 10.21875 16.53125 C 10.03125 16.636719 9.851563 16.742188 9.65625 16.875 C 8.007813 17.992188 6.152344 20.101563 5.1875 23.75 L 4.9375 24.59375 L 5.75 24.9375 C 6.988281 25.453125 8.363281 25.761719 9.15625 25.9375 C 9.078125 26.59375 9.0625 27 9.0625 27 L 9.0625 27.625 L 9.59375 27.90625 C 9.59375 27.90625 12.671875 29.4375 16.90625 29.875 L 18 30 L 18 28.90625 C 18 22.839844 20.984375 19.480469 21.5 18.9375 C 22.3125 18.984375 23.140625 19 24 19 L 24.5 19 L 24.8125 18.59375 C 26.703125 16.0625 27.90625 13.40625 27.90625 13.40625 L 28.625 11.84375 L 26.90625 12 C 26.90625 12 26.765625 11.996094 26.71875 12 C 27.355469 10.984375 28 9.582031 28 8 C 28 8 27.945313 6.335938 26.59375 4.84375 C 25.242188 3.351563 22.664063 2 18 2 Z M 18 4 C 22.292969 4 24.214844 5.148438 25.125 6.15625 C 26.035156 7.164063 26 8 26 8 C 26 9.628906 24.746094 11.34375 24.21875 12 C 23.503906 11.972656 22.734375 11.945313 21.8125 11.84375 C 22.453125 11.101563 23 10.15625 23 9 C 23 8.164063 22.515625 7.445313 21.96875 7.03125 C 21.421875 6.617188 20.828125 6.421875 20.25 6.28125 C 19.09375 5.996094 18 6 18 6 C 14.21875 6 11.402344 6.644531 9.375 7.53125 C 9.0625 7.320313 8.773438 7.074219 8.46875 6.84375 C 8.375 6.710938 8.339844 6.601563 8.3125 6.5 C 8.257813 6.296875 8.28125 6.25 8.28125 6.25 C 8.277344 6.257813 8.253906 6.300781 8.34375 6.1875 C 8.476563 6.019531 8.765625 5.730469 9.375 5.40625 C 10.59375 4.757813 13.125 4 18 4 Z M 18 8 C 18 8 18.90625 8.011719 19.75 8.21875 C 20.171875 8.324219 20.578125 8.472656 20.78125 8.625 C 20.984375 8.777344 21 8.820313 21 9 C 21 9.640625 20.136719 10.777344 19.34375 11.46875 C 16.925781 11.019531 14.195313 10.21875 11.5625 8.84375 C 13.179688 8.347656 15.289063 8 18 8 Z M 7.53125 8.71875 C 7.660156 8.820313 7.785156 8.910156 7.9375 9 L 8 8.90625 C 14.40625 13.398438 21.867188 14.0625 25.21875 14.0625 C 24.828125 14.824219 24.4375 15.539063 23.46875 16.9375 C 18.523438 16.871094 14.296875 16.011719 11.375 14.875 C 9.855469 14.285156 8.683594 13.640625 7.9375 13.0625 C 7.191406 12.484375 7 11.960938 7 12 C 7 10.921875 7.265625 9.695313 7.53125 8.71875 Z M 13.03125 17.53125 C 13.148438 17.566406 13.257813 17.59375 13.375 17.625 C 11.105469 19.632813 10.046875 22.054688 9.53125 23.9375 C 8.992188 23.78125 8.394531 23.617188 7.5 23.34375 C 8.382813 20.835938 9.652344 19.296875 10.78125 18.53125 C 12.066406 17.660156 13.03125 17.5625 13.03125 17.5625 Z M 15.9375 18.21875 C 16.972656 18.425781 18.066406 18.589844 19.21875 18.71875 C 18.089844 20.390625 16.457031 23.464844 16.15625 27.6875 C 13.570313 27.28125 11.878906 26.6875 11.1875 26.375 C 11.210938 25.484375 11.429688 21.152344 15.9375 18.21875 Z "></path>
</g>
</svg>
