<?xml version="1.0" encoding="UTF-8"?>
<svg xmlns="http://www.w3.org/2000/svg" xmlns:xlink="http://www.w3.org/1999/xlink" viewBox="0 0 32 32" version="1.1">
<g>
<path d="M 4 4 L 4 28 L 28 28 L 28 26 L 6 26 L 6 4 Z M 26 4 C 25.449219 4 25 4.449219 25 5 C 25 5.550781 25.449219 6 26 6 C 26.550781 6 27 5.550781 27 5 C 27 4.449219 26.550781 4 26 4 Z M 21 5.5 C 20.449219 5.5 20 5.949219 20 6.5 C 20 7.050781 20.449219 7.5 21 7.5 C 21.550781 7.5 22 7.050781 22 6.5 C 22 5.949219 21.550781 5.5 21 5.5 Z M 18 10 C 17.449219 10 17 10.449219 17 11 C 17 11.550781 17.449219 12 18 12 C 18.550781 12 19 11.550781 19 11 C 19 10.449219 18.550781 10 18 10 Z M 25 10 C 24.449219 10 24 10.449219 24 11 C 24 11.550781 24.449219 12 25 12 C 25.550781 12 26 11.550781 26 11 C 26 10.449219 25.550781 10 25 10 Z M 13 13 C 12.449219 13 12 13.449219 12 14 C 12 14.550781 12.449219 15 13 15 C 13.550781 15 14 14.550781 14 14 C 14 13.449219 13.550781 13 13 13 Z M 23 15 C 22.449219 15 22 15.449219 22 16 C 22 16.550781 22.449219 17 23 17 C 23.550781 17 24 16.550781 24 16 C 24 15.449219 23.550781 15 23 15 Z M 18 16 C 17.449219 16 17 16.449219 17 17 C 17 17.550781 17.449219 18 18 18 C 18.550781 18 19 17.550781 19 17 C 19 16.449219 18.550781 16 18 16 Z M 14 18 C 13.449219 18 13 18.449219 13 19 C 13 19.550781 13.449219 20 14 20 C 14.550781 20 15 19.550781 15 19 C 15 18.449219 14.550781 18 14 18 Z M 9 19 C 8.449219 19 8 19.449219 8 20 C 8 20.550781 8.449219 21 9 21 C 9.550781 21 10 20.550781 10 20 C 10 19.449219 9.550781 19 9 19 Z M 14 22 C 13.449219 22 13 22.449219 13 23 C 13 23.550781 13.449219 24 14 24 C 14.550781 24 15 23.550781 15 23 C 15 22.449219 14.550781 22 14 22 Z "></path>
</g>
</svg>
