<?xml version="1.0"?>
<svg xmlns="http://www.w3.org/2000/svg" viewBox="0 0 32 32">
    <path d="M 16.007812 3.8027344 L 9.0820312 8.2851562 L 10.167969 9.9648438 L 11 9.4257812 L 11 13.769531 L 3.1191406 18.386719 L 4.1308594 20.113281 L 5 19.603516 L 5 28 L 15 28 L 15 24 L 17 24 L 17 28 L 27 28 L 27 19.486328 L 27.876953 19.992188 L 28.873047 18.257812 L 21 13.724609 L 21 9.5351562 L 21.820312 10.082031 L 22.929688 8.4179688 L 16.007812 3.8027344 z M 15.992188 6.1972656 L 19 8.2011719 L 19 12.574219 L 15.996094 10.84375 L 13 12.599609 L 13 8.1328125 L 15.992188 6.1972656 z M 15 8 L 15 10 L 17 10 L 17 8 L 15 8 z M 16.003906 13.15625 L 25 18.335938 L 25 26 L 19 26 L 19 22 L 13 22 L 13 26 L 7 26 L 7 18.431641 L 16.003906 13.15625 z M 9 18 L 9 20 L 11 20 L 11 18 L 9 18 z M 13 18 L 13 20 L 15 20 L 15 18 L 13 18 z M 17 18 L 17 20 L 19 20 L 19 18 L 17 18 z M 21 18 L 21 20 L 23 20 L 23 18 L 21 18 z M 9 22 L 9 24 L 11 24 L 11 22 L 9 22 z M 21 22 L 21 24 L 23 24 L 23 22 L 21 22 z"></path>
</svg>
