<?xml version="1.0" encoding="UTF-8"?>
<svg xmlns="http://www.w3.org/2000/svg" xmlns:xlink="http://www.w3.org/1999/xlink" viewBox="0 0 32 32" version="1.1">
<g>
<path d="M 16 4 C 9.382813 4 4 9.382813 4 16 C 4 22.617188 9.382813 28 16 28 C 22.617188 28 28 22.617188 28 16 C 28 9.382813 22.617188 4 16 4 Z M 16 6 C 21.535156 6 26 10.464844 26 16 C 26 21.535156 21.535156 26 16 26 C 10.464844 26 6 21.535156 6 16 C 6 10.464844 10.464844 6 16 6 Z M 20.5 10 C 19.671875 10 19 10.671875 19 11.5 C 19 12.328125 19.671875 13 20.5 13 C 21.328125 13 22 12.328125 22 11.5 C 22 10.671875 21.328125 10 20.5 10 Z M 13.5 11 C 12.671875 11 12 11.671875 12 12.5 C 12 13.328125 12.671875 14 13.5 14 C 14.328125 14 15 13.328125 15 12.5 C 15 11.671875 14.328125 11 13.5 11 Z M 18.875 13.3125 C 18.671875 13.332031 18.464844 13.378906 18.28125 13.46875 L 17.09375 14.03125 C 16.707031 14.21875 16.414063 14.539063 16.25 14.9375 L 15.6875 16.25 L 15.21875 16.125 C 15.148438 16.105469 15.09375 16.070313 15.0625 16 L 14.75 15.28125 C 14.53125 14.785156 14.085938 14.414063 13.5625 14.28125 L 12.5625 14.03125 C 12.167969 13.933594 11.773438 13.980469 11.40625 14.15625 L 10.4375 14.625 C 10.066406 14.804688 9.792969 15.09375 9.625 15.46875 L 8.96875 16.875 L 10.34375 17.5 L 10.96875 16.09375 C 10.992188 16.039063 11.039063 15.996094 11.09375 15.96875 L 11.84375 15.59375 L 11.4375 16.875 C 11.277344 17.410156 11.371094 17.988281 11.65625 18.46875 L 13.75 22 L 15.46875 22 L 12.8125 17.5 L 13.34375 15.8125 C 13.355469 15.828125 13.367188 15.855469 13.375 15.875 L 13.6875 16.59375 C 13.898438 17.074219 14.308594 17.453125 14.8125 17.59375 L 15.90625 17.875 L 16.5625 18.0625 L 16.8125 17.4375 L 17.625 15.5 C 17.648438 15.445313 17.695313 15.402344 17.75 15.375 L 18.9375 14.8125 C 18.972656 14.796875 19.019531 14.785156 19.0625 14.78125 L 18.4375 16.875 C 18.277344 17.410156 18.371094 17.988281 18.65625 18.46875 L 20.75 22 L 22.46875 22 L 19.8125 17.5 L 20.53125 15.15625 C 20.558594 15.175781 20.578125 15.214844 20.59375 15.25 L 21.0625 16.34375 C 21.226563 16.71875 21.539063 17.039063 21.90625 17.21875 L 23.15625 17.84375 L 23.8125 16.5 L 22.5625 15.875 C 22.507813 15.847656 22.460938 15.804688 22.4375 15.75 L 21.96875 14.65625 C 21.75 14.160156 21.304688 13.789063 20.78125 13.65625 L 19.46875 13.34375 C 19.273438 13.296875 19.078125 13.292969 18.875 13.3125 Z M 11 18.84375 L 10.75 19.5 L 9.1875 22 L 10.96875 22 L 11.9375 20.4375 Z M 18 18.84375 L 17.75 19.5 L 16.1875 22 L 17.96875 22 L 18.9375 20.4375 Z "></path>
</g>
</svg>
