<?xml version="1.0" encoding="UTF-8"?>
<svg xmlns="http://www.w3.org/2000/svg" xmlns:xlink="http://www.w3.org/1999/xlink" viewBox="0 0 32 32" version="1.1">
<g>
<path d="M 5 5 L 5 7 L 27 7 L 27 5 Z M 7.96875 8 L 13.875 11.15625 L 6.53125 15.125 C 6.046875 15.386719 5.863281 15.984375 6.125 16.46875 C 6.386719 16.953125 6.984375 17.136719 7.46875 16.875 L 23.9375 8 L 19.71875 8 L 15.96875 10.03125 L 12.1875 8 Z M 19.09375 11.6875 L 16.96875 12.84375 L 21.84375 15.4375 L 23.96875 14.28125 Z M 24.90625 15 C 24.777344 15.011719 24.652344 15.058594 24.53125 15.125 L 16.03125 19.71875 L 10.15625 16.5625 L 8.03125 17.71875 L 13.90625 20.84375 L 8.0625 24 L 12.28125 24 L 25.46875 16.875 C 25.953125 16.613281 26.136719 16.015625 25.875 15.53125 C 25.679688 15.167969 25.292969 14.964844 24.90625 15 Z M 19.15625 21.375 L 17.03125 22.5 L 19.8125 24 L 24.03125 24 Z M 5 25 L 5 27 L 27 27 L 27 25 Z "></path>
</g>
</svg>
