<?xml version="1.0" encoding="UTF-8"?>
<svg xmlns="http://www.w3.org/2000/svg" xmlns:xlink="http://www.w3.org/1999/xlink" viewBox="0 0 32 32" version="1.1">
<g>
<path d="M 11.65625 3 C 10.828125 3 10.4375 3.4375 9.96875 3.875 C 9.5 4.3125 9.050781 4.855469 8.625 5.46875 C 8.496094 5.652344 8.371094 5.839844 8.25 6.03125 C 8.066406 5.578125 7.863281 5.15625 7.65625 4.8125 C 6.976563 3.671875 6.21875 3.0625 6.21875 3.0625 L 4.96875 4.625 C 4.96875 4.625 5.417969 4.972656 5.9375 5.84375 C 6.457031 6.714844 7 8.054688 7 10 L 7 23 L 9 23 L 9 10 C 9 9.816406 8.976563 9.644531 8.96875 9.46875 L 9 9.46875 C 9 9 9.535156 7.628906 10.25 6.59375 C 10.609375 6.074219 10.992188 5.609375 11.3125 5.3125 C 11.429688 5.203125 11.539063 5.140625 11.625 5.09375 C 11.703125 5.140625 11.804688 5.203125 11.90625 5.3125 C 12.199219 5.632813 12.550781 6.140625 12.875 6.6875 C 13.199219 7.234375 13.480469 7.855469 13.6875 8.375 C 13.894531 8.894531 14 9.359375 14 9.46875 L 14 23 L 16 23 L 16 9.46875 C 16 8.941406 16.488281 7.59375 17.125 6.5625 C 17.445313 6.046875 17.777344 5.570313 18.0625 5.28125 C 18.152344 5.1875 18.238281 5.136719 18.3125 5.09375 C 18.402344 5.144531 18.523438 5.210938 18.65625 5.34375 C 18.980469 5.671875 19.355469 6.199219 19.71875 6.75 C 20.082031 7.300781 20.425781 7.886719 20.65625 8.40625 C 20.886719 8.925781 21 9.398438 21 9.46875 L 21 19.71875 C 21 22.136719 22.402344 24.351563 23.71875 26 C 24.011719 26.367188 24.316406 26.691406 24.59375 27 L 22 27 L 22 29 L 28 29 L 28 23 L 26 23 L 26 25.59375 C 25.765625 25.332031 25.523438 25.054688 25.28125 24.75 C 24.097656 23.265625 23 21.300781 23 19.71875 L 23 9.46875 C 23 8.804688 22.789063 8.238281 22.5 7.59375 C 22.210938 6.949219 21.824219 6.257813 21.40625 5.625 C 20.988281 4.992188 20.523438 4.40625 20.0625 3.9375 C 19.601563 3.46875 19.234375 3 18.34375 3 C 17.515625 3 17.097656 3.429688 16.65625 3.875 C 16.214844 4.320313 15.789063 4.882813 15.40625 5.5 C 15.242188 5.769531 15.085938 6.03125 14.9375 6.3125 C 14.824219 6.105469 14.714844 5.890625 14.59375 5.6875 C 14.21875 5.050781 13.808594 4.445313 13.375 3.96875 C 12.941406 3.492188 12.546875 3 11.65625 3 Z "></path>
</g>
</svg>
