<?xml version="1.0" encoding="UTF-8"?>
<svg xmlns="http://www.w3.org/2000/svg" xmlns:xlink="http://www.w3.org/1999/xlink" viewBox="0 0 32 32" version="1.1">
<g>
<path d="M 15 2 C 13.617188 2 12.46875 2.96875 12.125 4.25 C 11.773438 4.105469 11.402344 4 11 4 C 9.355469 4 8 5.355469 8 7 L 8 16.6875 C 7.199219 17.210938 6.332031 18.1875 6.0625 19.71875 C 5.851563 20.914063 6.082031 21.964844 6.25 22.53125 C 6.25 22.542969 6.25 22.550781 6.25 22.5625 L 7.03125 25.0625 C 7.933594 27.996094 10.652344 30 13.71875 30 L 19 30 C 22.855469 30 26 26.855469 26 23 L 26 15 C 26.007813 14.9375 26.007813 14.875 26 14.8125 L 26 13 C 26 11.355469 24.644531 10 23 10 C 22.648438 10 22.316406 10.074219 22 10.1875 L 22 7 C 22 5.355469 20.644531 4 19 4 C 18.597656 4 18.226563 4.105469 17.875 4.25 C 17.53125 2.96875 16.382813 2 15 2 Z M 15 4 C 15.566406 4 16 4.433594 16 5 L 16 14 L 18 14 L 18 7 C 18 6.433594 18.433594 6 19 6 C 19.566406 6 20 6.433594 20 7 L 20 16 C 20 17.644531 21.355469 19 23 19 C 23.351563 19 23.683594 18.925781 24 18.8125 L 24 23 C 24 25.773438 21.773438 28 19 28 L 13.71875 28 C 11.519531 28 9.585938 26.570313 8.9375 24.46875 L 8.1875 21.96875 C 8.105469 21.699219 7.941406 20.753906 8.0625 20.0625 C 8.25 18.988281 8.71875 18.574219 9.15625 18.3125 C 9.59375 18.050781 9.90625 18.03125 9.90625 18.03125 C 9.925781 18.03125 9.949219 18.03125 9.96875 18.03125 L 16.40625 17.1875 C 16.4375 17.179688 16.46875 17.167969 16.5 17.15625 C 17.027344 17.03125 17.53125 17.347656 17.65625 17.875 C 17.734375 18.199219 17.691406 18.363281 17.59375 18.53125 C 17.496094 18.699219 17.289063 18.90625 16.84375 19.0625 L 12 20.3125 C 11.703125 20.390625 11.460938 20.601563 11.339844 20.878906 C 11.21875 21.160156 11.230469 21.480469 11.375 21.75 L 12.28125 23.40625 C 12.546875 23.890625 13.15625 24.066406 13.640625 23.796875 C 14.125 23.53125 14.300781 22.921875 14.03125 22.4375 L 13.75 21.9375 L 17.4375 20.96875 C 17.46875 20.960938 17.5 20.949219 17.53125 20.9375 C 18.304688 20.667969 18.925781 20.207031 19.3125 19.5625 C 19.699219 18.917969 19.800781 18.136719 19.625 17.40625 C 19.257813 15.863281 17.703125 14.941406 16.15625 15.25 L 16.15625 15.1875 L 10 16 L 10 7 C 10 6.433594 10.433594 6 11 6 C 11.566406 6 12 6.433594 12 7 L 12 14 L 14 14 L 14 5 C 14 4.433594 14.433594 4 15 4 Z M 23 12 C 23.566406 12 24 12.433594 24 13 L 24 14.8125 C 23.992188 14.875 23.992188 14.9375 24 15 L 24 16 C 24 16.566406 23.566406 17 23 17 C 22.433594 17 22 16.566406 22 16 L 22 13 C 22 12.433594 22.433594 12 23 12 Z "></path>
</g>
</svg>
