<?xml version="1.0" encoding="UTF-8"?>
<svg xmlns="http://www.w3.org/2000/svg" xmlns:xlink="http://www.w3.org/1999/xlink" viewBox="0 0 32 32" version="1.1">
<g>
<path d="M 21 2.59375 L 20.28125 3.28125 L 19.0625 4.53125 C 17.910156 5.683594 17.910156 7.566406 19.0625 8.71875 L 19.40625 9.0625 L 17 11.46875 L 17 14.28125 L 20.8125 10.46875 L 21.53125 11.1875 L 17 15.71875 L 17 18.53125 L 22.9375 12.59375 L 23.28125 12.9375 C 24.433594 14.089844 26.316406 14.089844 27.46875 12.9375 L 28.71875 11.71875 L 29.40625 11 L 28.71875 10.28125 L 21.71875 3.28125 Z M 21 5.4375 L 26.5625 11 L 26.0625 11.53125 C 25.671875 11.921875 25.078125 11.921875 24.6875 11.53125 L 20.46875 7.3125 C 20.078125 6.921875 20.078125 6.328125 20.46875 5.9375 Z M 16 12.46875 L 14 14.46875 L 14 21.53125 L 16 19.53125 Z M 13 15.46875 L 11 17.46875 L 11 24.53125 L 13 22.53125 Z M 10 18.46875 L 7.375 21.09375 C 7.34375 21.128906 7.3125 21.167969 7.25 21.21875 C 7.070313 21.375 6.789063 21.59375 6.5625 21.96875 L 6.125 22.71875 C 5.839844 23.191406 5.601563 23.617188 5.375 24.03125 C 4.972656 24.78125 4.78125 25.25 4.78125 25.25 L 3 29 L 6.75 27.21875 C 6.75 27.21875 7.21875 27.03125 8.03125 26.59375 C 8.390625 26.398438 8.824219 26.152344 9.28125 25.875 L 10 25.4375 L 10 22.71875 L 9.625 23.0625 C 9.46875 23.199219 9.390625 23.304688 9.28125 23.4375 C 9.183594 23.550781 9.101563 23.675781 9.03125 23.71875 L 8.25 24.15625 C 7.90625 24.363281 7.597656 24.5625 7.3125 24.71875 C 7.476563 24.417969 7.636719 24.09375 7.84375 23.75 L 8.28125 23 C 8.335938 22.910156 8.421875 22.839844 8.5625 22.71875 C 8.679688 22.617188 8.796875 22.496094 8.84375 22.4375 L 10 21.28125 Z "></path>
</g>
</svg>
