<?xml version="1.0" encoding="UTF-8"?>
<svg xmlns="http://www.w3.org/2000/svg" xmlns:xlink="http://www.w3.org/1999/xlink" viewBox="0 0 32 32" version="1.1">
<g>
<path d="M 26.5625 5.09375 L 22.15625 7.3125 L 20.1875 14.25 L 12.40625 17.15625 L 6.25 24.34375 L 7.75 25.65625 L 13.59375 18.84375 L 21.8125 15.75 L 23.84375 8.6875 L 27.4375 6.90625 Z M 17.96875 8.21875 L 12.53125 10.1875 C 12.511719 10.195313 12.488281 10.210938 12.46875 10.21875 C 11.601563 10.609375 11 11.488281 11 12.5 C 11 13.878906 12.121094 15 13.5 15 C 13.746094 15 13.992188 14.941406 14.21875 14.875 L 19.65625 12.9375 Z M 16.71875 10.8125 L 17.09375 11.75 L 13.6875 12.96875 C 13.628906 12.992188 13.566406 13 13.5 13 C 13.222656 13 13 12.777344 13 12.5 C 13 12.296875 13.109375 12.140625 13.28125 12.0625 C 13.292969 12.058594 13.332031 12.035156 13.34375 12.03125 Z M 8 13 C 6.355469 13 5 14.355469 5 16 C 5 17.644531 6.355469 19 8 19 C 9.644531 19 11 17.644531 11 16 C 11 14.355469 9.644531 13 8 13 Z M 8 15 C 8.5625 15 9 15.4375 9 16 C 9 16.5625 8.5625 17 8 17 C 7.4375 17 7 16.5625 7 16 C 7 15.4375 7.4375 15 8 15 Z "></path>
</g>
</svg>
