<?xml version="1.0" encoding="UTF-8"?>
<svg xmlns="http://www.w3.org/2000/svg" xmlns:xlink="http://www.w3.org/1999/xlink" viewBox="0 0 32 32" version="1.1">
<g>
<path d="M 16 3 C 14.707031 3 13.605469 3.84375 13.1875 5 L 12.4375 5 L 11.71875 4.28125 L 11.40625 4 L 9 4 L 9 8 L 11.40625 8 L 11.71875 7.71875 L 12.4375 7 L 13.1875 7 C 13.359375 7.464844 13.636719 7.890625 14 8.21875 L 14 9.34375 C 11.679688 10.175781 10 12.40625 10 15 L 10 29 L 22 29 L 22 15 C 22 12.40625 20.320313 10.175781 18 9.34375 L 18 8.21875 C 18.363281 7.890625 18.640625 7.464844 18.8125 7 L 20 7 L 20 5 L 18.8125 5 C 18.394531 3.84375 17.292969 3 16 3 Z M 16 5 C 16.554688 5 17 5.445313 17 6 C 17 6.554688 16.554688 7 16 7 C 15.445313 7 15 6.554688 15 6 C 15 5.445313 15.445313 5 16 5 Z M 16 11 C 18.203125 11 20 12.796875 20 15 L 20 23 L 12 23 L 12 15 C 12 12.796875 13.796875 11 16 11 Z M 12 25 L 20 25 L 20 27 L 12 27 Z "></path>
</g>
</svg>
