<?xml version="1.0" encoding="UTF-8"?>
<svg xmlns="http://www.w3.org/2000/svg" xmlns:xlink="http://www.w3.org/1999/xlink" viewBox="0 0 32 32" version="1.1">
<g>
<path d="M 20 3 C 15.042969 3 11 7.042969 11 12 C 11 12.34375 11.023438 12.667969 11.0625 13 L 11 13 C 11 13.722656 10.367188 15.195313 9.65625 16.34375 C 8.945313 17.492188 8.21875 18.375 8.21875 18.375 L 7.65625 19.0625 L 8.28125 19.71875 L 8.5625 20 L 5.28125 23.28125 L 4.59375 24 L 5.28125 24.71875 L 5.5625 25 L 3.28125 27.28125 L 4.71875 28.71875 L 7 26.4375 L 7.28125 26.71875 L 8 27.40625 L 8.71875 26.71875 L 12 23.4375 L 12.28125 23.71875 L 12.90625 24.3125 L 13.59375 23.78125 C 13.59375 23.78125 14.558594 23.0625 15.75 22.34375 C 16.941406 21.625 18.453125 21 19 21 L 19 20.9375 C 19.332031 20.976563 19.65625 21 20 21 C 24.957031 21 29 16.957031 29 12 C 29 7.042969 24.957031 3 20 3 Z M 20 5 C 23.878906 5 27 8.121094 27 12 C 27 15.878906 23.878906 19 20 19 C 16.121094 19 13 15.878906 13 12 C 13 8.121094 16.121094 5 20 5 Z M 19.96875 6 C 19.410156 6 18.96875 6.449219 18.96875 7 C 18.96875 7.558594 19.417969 8 19.96875 8 C 20.519531 8 20.96875 7.550781 20.96875 7 C 20.96875 6.441406 20.519531 6 19.96875 6 Z M 23.5 7.4375 C 23.242188 7.4375 23.003906 7.554688 22.8125 7.75 C 22.421875 8.140625 22.421875 8.765625 22.8125 9.15625 C 23.011719 9.347656 23.25 9.4375 23.5 9.4375 C 23.761719 9.4375 24.019531 9.355469 24.21875 9.15625 C 24.597656 8.765625 24.609375 8.128906 24.21875 7.75 C 24.023438 7.554688 23.757813 7.4375 23.5 7.4375 Z M 16.4375 7.46875 C 16.179688 7.46875 15.949219 7.585938 15.75 7.78125 C 15.359375 8.171875 15.359375 8.796875 15.75 9.1875 C 15.9375 9.386719 16.1875 9.46875 16.4375 9.46875 C 16.699219 9.46875 16.964844 9.386719 17.15625 9.1875 C 17.546875 8.796875 17.546875 8.148438 17.15625 7.75 C 16.960938 7.558594 16.695313 7.46875 16.4375 7.46875 Z M 15 11 C 14.4375 11 14 11.449219 14 12 C 14 12.550781 14.449219 13 15 13 C 15.550781 13 16 12.550781 16 12 C 16 11.441406 15.550781 11 15 11 Z M 20 11 C 19.449219 11 19 11.449219 19 12 C 19 12.550781 19.449219 13 20 13 L 25 13 L 25 11 Z M 23.5625 14.5 C 23.308594 14.503906 23.039063 14.613281 22.84375 14.8125 C 22.453125 15.203125 22.453125 15.828125 22.84375 16.21875 C 23.042969 16.410156 23.3125 16.5 23.5625 16.5 C 23.824219 16.5 24.082031 16.417969 24.28125 16.21875 C 24.660156 15.820313 24.648438 15.171875 24.25 14.78125 C 24.054688 14.589844 23.816406 14.496094 23.5625 14.5 Z M 20.03125 16 C 19.472656 16 19.050781 16.449219 19.0625 17 C 19.0625 17.550781 19.511719 18 20.0625 18 C 20.621094 17.988281 21.0625 17.550781 21.0625 17 C 21.050781 16.449219 20.582031 15.988281 20.03125 16 Z M 12.03125 16.1875 C 12.890625 17.8125 14.246094 19.121094 15.875 19.96875 C 15.476563 20.1875 15.09375 20.429688 14.71875 20.65625 C 13.84375 21.183594 13.550781 21.433594 13.15625 21.71875 L 10.3125 18.875 C 10.605469 18.492188 10.824219 18.246094 11.34375 17.40625 C 11.578125 17.027344 11.808594 16.609375 12.03125 16.1875 Z M 10 21.4375 L 10.5625 22 L 8 24.5625 L 7.4375 24 Z "></path>
</g>
</svg>
