<?xml version="1.0" encoding="UTF-8"?>
<svg xmlns="http://www.w3.org/2000/svg" xmlns:xlink="http://www.w3.org/1999/xlink" viewBox="0 0 32 32" version="1.1">
<g>
<path d="M 16 5 C 12.679688 5 7.96875 5.496094 6.28125 5.875 C 4.921875 6.179688 3.863281 7.269531 3.65625 8.625 L 3.65625 8.65625 L 3.03125 13.21875 C 2.726563 15.234375 4.414063 17 6.46875 17 L 12.40625 17 C 12.441406 17 12.914063 17.242188 13.5 17.75 C 14.085938 18.257813 14.832031 19 16 19 C 17.167969 19 17.941406 18.257813 18.53125 17.75 C 19.121094 17.242188 19.570313 17 19.5625 17 L 25.53125 17 C 27.585938 17 29.273438 15.230469 28.96875 13.21875 L 28.34375 8.65625 L 28.34375 8.625 C 28.136719 7.269531 27.078125 6.179688 25.71875 5.875 C 24.03125 5.496094 19.320313 5 16 5 Z M 16 7 C 19.101563 7 24.070313 7.570313 25.28125 7.84375 C 25.871094 7.976563 26.289063 8.398438 26.375 8.90625 L 26.375 8.9375 L 26.96875 13.5 L 27 13.5 C 27.117188 14.273438 26.476563 15 25.53125 15 L 20 15 C 19.796875 15 19.722656 14.953125 19.53125 14.78125 C 19.339844 14.609375 19.109375 14.3125 18.84375 13.9375 C 18.578125 13.5625 18.285156 13.109375 17.84375 12.71875 C 17.402344 12.328125 16.738281 12 16 12 C 15.261719 12 14.597656 12.328125 14.15625 12.71875 C 13.714844 13.109375 13.417969 13.5625 13.15625 13.9375 C 12.894531 14.3125 12.660156 14.609375 12.46875 14.78125 C 12.277344 14.953125 12.207031 15 12 15 L 6.46875 15 C 5.527344 15 4.882813 14.277344 5 13.5 L 5.03125 13.5 L 5.625 8.9375 L 5.625 8.90625 C 5.710938 8.398438 6.128906 7.976563 6.71875 7.84375 C 7.933594 7.570313 12.898438 7 16 7 Z M 16 14 C 16.214844 14 16.308594 14.046875 16.5 14.21875 C 16.691406 14.390625 16.925781 14.6875 17.1875 15.0625 C 17.347656 15.289063 17.542969 15.527344 17.75 15.78125 C 17.5625 15.945313 17.386719 16.105469 17.21875 16.25 C 16.648438 16.742188 16.1875 17 16 17 C 15.8125 17 15.378906 16.742188 14.8125 16.25 C 14.648438 16.105469 14.476563 15.945313 14.28125 15.78125 C 14.484375 15.535156 14.65625 15.285156 14.8125 15.0625 C 15.074219 14.6875 15.308594 14.390625 15.5 14.21875 C 15.691406 14.046875 15.785156 14 16 14 Z M 16 20 C 13.800781 20 12 21.800781 12 24 C 12 26.199219 13.800781 28 16 28 C 18.199219 28 20 26.199219 20 24 C 20 21.800781 18.199219 20 16 20 Z M 16 22 C 17.117188 22 18 22.882813 18 24 C 18 25.117188 17.117188 26 16 26 C 14.882813 26 14 25.117188 14 24 C 14 22.882813 14.882813 22 16 22 Z M 16 23 C 15.449219 23 15 23.449219 15 24 C 15 24.550781 15.449219 25 16 25 C 16.550781 25 17 24.550781 17 24 C 17 23.449219 16.550781 23 16 23 Z M 21 23 L 21 25 L 23 25 C 24.25 25 24.945313 25.257813 25.34375 25.65625 C 25.742188 26.054688 26 26.75 26 28 L 28 28 C 28 26.460938 27.652344 25.152344 26.75 24.25 C 25.847656 23.347656 24.539063 23 23 23 Z "></path>
</g>
</svg>
