<?xml version="1.0" encoding="UTF-8"?>
<svg xmlns="http://www.w3.org/2000/svg" xmlns:xlink="http://www.w3.org/1999/xlink" viewBox="0 0 32 32" version="1.1">
<g>
<path d="M 4 7 L 4 23 L 28 23 L 28 7 Z M 6 9 L 26 9 L 26 21 L 6 21 Z M 13.09375 11 C 10.894531 11 9.09375 12.800781 9.09375 15 C 9.09375 16 9.398438 16.894531 10 17.59375 C 9.800781 17.292969 9.8125 17.007813 9.8125 16.90625 C 9.8125 16.605469 9.90625 16.3125 9.90625 16.3125 L 11.59375 16.3125 C 11.59375 16.3125 11.5 17.3125 12.5 17.3125 C 13.199219 17.3125 13.8125 17.105469 13.8125 16.40625 C 13.8125 15.40625 10.59375 16 10.59375 14 C 10.59375 12.101563 12.09375 11.59375 14.09375 11.59375 C 14.792969 11.59375 15.289063 11.800781 15.6875 12 C 14.988281 11.398438 14.09375 11 13.09375 11 Z M 17.1875 11.90625 L 16.9375 14.25 C 16.867188 13.527344 16.53125 12.917969 16.09375 12.40625 C 16.195313 12.605469 16.3125 12.800781 16.3125 13 C 16.3125 13.300781 16.1875 13.59375 16.1875 13.59375 L 14.40625 13.59375 C 14.40625 13.195313 14.195313 12.6875 13.59375 12.6875 C 13.195313 12.6875 12.5 12.894531 12.5 13.59375 C 12.5 14.695313 15.8125 14.105469 15.8125 15.90625 C 15.8125 17.007813 14.789063 18.59375 12.1875 18.59375 C 11.386719 18.59375 10.898438 18.511719 10.5 18.3125 C 11.199219 18.8125 12.007813 19.09375 12.90625 19.09375 C 14.671875 19.09375 16.160156 17.9375 16.6875 16.34375 L 16.5 18 L 19.59375 18 C 21.492188 18 23 16.8125 23 14.3125 C 23 12.011719 20.40625 11.90625 20.40625 11.90625 Z M 18.8125 13.09375 L 19.6875 13.09375 C 19.6875 13.09375 21.3125 13.1875 21.3125 14.6875 C 21.3125 16.585938 19.3125 16.90625 19.3125 16.90625 L 18.3125 16.90625 Z M 10 24 L 10 26 L 22 26 L 22 24 Z "></path>
</g>
</svg>
