<?xml version="1.0" encoding="UTF-8"?>
<svg xmlns="http://www.w3.org/2000/svg" xmlns:xlink="http://www.w3.org/1999/xlink" viewBox="0 0 32 32" version="1.1">
<g>
<path d="M 18.59375 2.96875 L 17.9375 3 C 17.9375 3 16.0625 3.085938 14.125 3.96875 C 12.1875 4.851563 10.0625 6.761719 10.0625 9.96875 C 10.0625 10.863281 10.269531 11.648438 10.46875 12.375 C 10.25 12.265625 10.078125 12.28125 9.875 12.15625 C 9.144531 11.699219 8.625 11.25 8.625 11.25 L 7.75 10.5 L 7.125 11.4375 C 7.125 11.4375 6 13.230469 6 16 C 6 18.777344 7.15625 20.5625 7.15625 20.5625 L 7.78125 21.46875 L 8.625 20.78125 C 8.625 20.78125 9.214844 20.308594 9.96875 19.84375 C 10.375 19.59375 10.664063 19.53125 11.0625 19.375 C 11.132813 21.628906 11.6875 23.894531 12.84375 25.6875 C 14.074219 27.597656 16.042969 29 18.46875 29 C 21.746094 29 24 26.894531 24 24.5 C 24 23.128906 22.859375 22 21.5 22 C 20.132813 22 19 23.132813 19 24.5 L 19 25 L 21 25 L 21 24.5 C 21 24.214844 21.214844 24 21.5 24 C 21.796875 24 22 24.195313 22 24.5 C 22 25.632813 20.9375 27 18.46875 27 C 16.792969 27 15.503906 26.101563 14.53125 24.59375 C 13.558594 23.085938 13 20.984375 13 18.9375 L 13 17 L 12 17 C 10.804688 17 9.777344 17.621094 8.90625 18.15625 C 8.621094 18.332031 8.628906 18.34375 8.40625 18.5 C 8.203125 17.921875 8 17.097656 8 16 C 8 14.914063 8.210938 14.109375 8.40625 13.53125 C 8.605469 13.671875 8.597656 13.6875 8.84375 13.84375 C 9.710938 14.382813 10.765625 15 12 15 L 13.09375 15 L 13 13.90625 L 13 13.8125 L 12.96875 13.625 L 12.90625 13.46875 C 12.90625 13.46875 12.0625 11.570313 12.0625 9.96875 C 12.0625 7.59375 13.402344 6.480469 14.9375 5.78125 C 16.195313 5.207031 17.074219 5.199219 17.5 5.15625 L 18.03125 6.125 C 18.03125 6.136719 18.03125 6.144531 18.03125 6.15625 L 18.0625 6.1875 C 18.289063 7.476563 19.140625 8.429688 19.90625 9 C 20.375 9.351563 20.507813 9.34375 20.84375 9.5 C 20.378906 9.734375 19.699219 10 18.71875 10 C 17.863281 10 17.046875 9.875 16.5625 9.65625 C 16.078125 9.4375 16 9.328125 16 9 L 14 9 C 14 11.921875 15.542969 13.585938 16.84375 14.6875 C 17.492188 15.238281 18.070313 15.683594 18.4375 16.125 C 18.804688 16.566406 19 16.945313 19 17.59375 C 19 18.289063 18.425781 19.378906 17.59375 20.3125 C 16.761719 21.246094 15.6875 22.050781 15.125 22.34375 L 16.0625 24.09375 C 16.960938 23.625 18.09375 22.746094 19.09375 21.625 C 20.09375 20.503906 21 19.15625 21 17.59375 C 21 16.476563 20.570313 15.5625 20 14.875 C 19.429688 14.1875 18.757813 13.664063 18.15625 13.15625 C 17.578125 12.667969 17.070313 12.214844 16.6875 11.625 C 17.355469 11.792969 18.007813 12 18.71875 12 C 20.988281 12 22.59375 10.8125 22.59375 10.8125 L 23 10.5 L 23 8.28125 L 22.3125 8.0625 C 22.3125 8.0625 21.703125 7.832031 21.09375 7.375 C 20.65625 7.046875 20.300781 6.648438 20.125 6.15625 L 21.40625 5.4375 L 20.46875 3.6875 L 19.3125 4.3125 L 18.875 3.53125 Z M 17.5 7 C 17.222656 7 17 7.222656 17 7.5 C 17 7.777344 17.222656 8 17.5 8 C 17.777344 8 18 7.777344 18 7.5 C 18 7.222656 17.777344 7 17.5 7 Z "></path>
</g>
</svg>
