<?xml version="1.0"?>
<svg xmlns="http://www.w3.org/2000/svg" viewBox="0 0 32 32">
    <path d="M 19 3 C 13.488997 3 9 7.4889971 9 13 C 9 15.396508 9.8510142 17.597385 11.263672 19.322266 L 3.2929688 27.292969 L 4.7070312 28.707031 L 12.677734 20.736328 C 14.402615 22.148986 16.603492 23 19 23 C 24.511003 23 29 18.511003 29 13 C 29 7.4889971 24.511003 3 19 3 z M 19 5 C 23.430123 5 27 8.5698774 27 13 C 27 17.430123 23.430123 21 19 21 C 14.569877 21 11 17.430123 11 13 C 11 8.5698774 14.569877 5 19 5 z M 15 12 A 1 1 0 0 0 14 13 A 1 1 0 0 0 15 14 A 1 1 0 0 0 16 13 A 1 1 0 0 0 15 12 z M 19 12 A 1 1 0 0 0 18 13 A 1 1 0 0 0 19 14 A 1 1 0 0 0 20 13 A 1 1 0 0 0 19 12 z M 23 12 A 1 1 0 0 0 22 13 A 1 1 0 0 0 23 14 A 1 1 0 0 0 24 13 A 1 1 0 0 0 23 12 z" font-weight="400" font-family="sans-serif" white-space="normal" overflow="visible"></path>
</svg>
