<?xml version="1.0"?>
<svg xmlns="http://www.w3.org/2000/svg" viewBox="0 0 32 32">
    <path d="M 6 3 L 6 8 L 5 8 L 5 10 L 8 10 L 8 8 L 8 5 L 24 5 L 24 16.4375 C 24.633 16.2125 25.303 16.071391 26 16.025391 L 26 3 L 6 3 z M 16 9 C 13.802706 9 12 10.802706 12 13 C 12 14.116489 12.468707 15.127464 13.214844 15.855469 C 11.882042 16.756969 11 18.282542 11 20 L 13 20 C 13 18.345455 14.345455 17 16 17 C 17.654545 17 19 18.345455 19 20 L 21 20 C 21 18.282542 20.117958 16.756969 18.785156 15.855469 C 19.531293 15.127464 20 14.116489 20 13 C 20 10.802706 18.197294 9 16 9 z M 6 11 L 6 13 L 5 13 L 5 15 L 8 15 L 8 13 L 8 11 L 6 11 z M 16 11 C 17.116414 11 18 11.883586 18 13 C 18 14.116414 17.116414 15 16 15 C 14.883586 15 14 14.116414 14 13 C 14 11.883586 14.883586 11 16 11 z M 6 16 L 6 18 L 5 18 L 5 20 L 8 20 L 8 18 L 8 16 L 6 16 z M 26.5 18 C 23.5 18 21 20.5 21 23.5 C 21 24.7 21.4 25.699609 22 26.599609 L 18.300781 30.300781 L 19.699219 31.699219 L 23.400391 28 C 24.300391 28.6 25.4 29 26.5 29 C 29.5 29 32 26.5 32 23.5 C 32 20.5 29.5 18 26.5 18 z M 26.5 20 C 28.4 20 30 21.6 30 23.5 C 30 25.4 28.4 27 26.5 27 C 24.6 27 23 25.4 23 23.5 C 23 21.6 24.6 20 26.5 20 z M 6 22 L 6 27 L 19.871094 27 C 19.542094 26.379 19.295391 25.708 19.150391 25 L 8 25 L 8 22 L 6 22 z"></path>
</svg>
