<?xml version="1.0" encoding="UTF-8"?>
<svg xmlns="http://www.w3.org/2000/svg" xmlns:xlink="http://www.w3.org/1999/xlink" viewBox="0 0 32 32" version="1.1">
<g>
<path d="M 16 3.96875 L 15.46875 4.3125 L 3.96875 11.53125 L 5 13.15625 L 5 28 L 27 28 L 27 13.15625 L 28.03125 11.53125 L 16.53125 4.3125 Z M 16 6.34375 L 25 12 L 25 26 L 7 26 L 7 12 Z M 16 12 C 15.449219 12 15 12.449219 15 13 C 15 13.046875 15.023438 13.082031 15.03125 13.125 C 13.292969 13.558594 12 15.132813 12 17 L 12 20 L 11 20 L 11 22 L 15 22 C 15 22.550781 15.449219 23 16 23 C 16.550781 23 17 22.550781 17 22 L 21 22 L 21 20 L 20 20 L 20 17 C 20 15.132813 18.707031 13.558594 16.96875 13.125 C 16.976563 13.082031 17 13.046875 17 13 C 17 12.449219 16.550781 12 16 12 Z M 16 15 C 17.117188 15 18 15.882813 18 17 L 18 20 L 14 20 L 14 17 C 14 15.882813 14.882813 15 16 15 Z "></path>
</g>
</svg>
