<?xml version="1.0" encoding="UTF-8"?>
<svg xmlns="http://www.w3.org/2000/svg" xmlns:xlink="http://www.w3.org/1999/xlink" viewBox="0 0 32 32" version="1.1">
<g>
<path d="M 16 4 C 13.851563 4 12.445313 4.761719 11.09375 5.5 C 9.683594 6.269531 8.363281 7 6 7 L 5 7 L 5 8 C 5 10.992188 5.382813 13.574219 6 15.78125 L 6 14.5 C 6 13.324219 6.476563 12.273438 7.21875 11.46875 C 7.125 10.671875 7.027344 9.847656 7 8.96875 C 9.273438 8.78125 10.75 7.96875 12.0625 7.25 C 13.296875 6.578125 14.363281 6 16 6 C 17.640625 6 18.699219 6.574219 19.9375 7.25 C 21.25 7.964844 22.738281 8.78125 25 8.96875 C 24.917969 11.714844 24.476563 14.023438 23.84375 16 L 25.9375 16 C 26.589844 13.742188 27 11.101563 27 8 L 27 7 L 26 7 C 23.652344 7 22.316406 6.269531 20.90625 5.5 C 19.550781 4.761719 18.148438 4 16 4 Z M 10.5 12 C 9.132813 12 8 13.132813 8 14.5 C 8 15.867188 9.132813 17 10.5 17 C 10.785156 17 11 17.214844 11 17.5 C 11 17.863281 10.9375 18 10.5 18 C 10.121094 18 10.066406 17.914063 10.0625 17.90625 C 10.058594 17.898438 10 17.867188 10 17.625 L 8 17.625 C 8 18.191406 8.15625 18.832031 8.625 19.3125 C 9.09375 19.792969 9.773438 20 10.5 20 C 11.910156 20 13 18.792969 13 17.5 C 13 16.132813 11.867188 15 10.5 15 C 10.214844 15 10 14.785156 10 14.5 C 10 14.214844 10.214844 14 10.5 14 C 10.769531 14 10.84375 14.058594 10.90625 14.125 C 10.96875 14.191406 11 14.320313 11 14.40625 L 13 14.40625 C 13 13.839844 12.804688 13.253906 12.375 12.78125 C 11.945313 12.308594 11.257813 12 10.5 12 Z M 16.5 12 C 15.132813 12 14 13.132813 14 14.5 C 14 15.867188 15.132813 17 16.5 17 C 16.785156 17 17 17.214844 17 17.5 C 17 17.863281 16.9375 18 16.5 18 C 16.121094 18 16.066406 17.914063 16.0625 17.90625 C 16.058594 17.898438 16 17.867188 16 17.625 L 14 17.625 C 14 18.191406 14.15625 18.832031 14.625 19.3125 C 15.09375 19.792969 15.773438 20 16.5 20 C 17.910156 20 19 18.792969 19 17.5 C 19 16.132813 17.867188 15 16.5 15 C 16.214844 15 16 14.785156 16 14.5 C 16 14.214844 16.214844 14 16.5 14 C 16.769531 14 16.84375 14.058594 16.90625 14.125 C 16.96875 14.191406 17 14.320313 17 14.40625 L 19 14.40625 C 19 13.839844 18.804688 13.253906 18.375 12.78125 C 17.945313 12.308594 17.257813 12 16.5 12 Z M 20 12 L 20 20 L 24 20 L 24 18 L 22 18 L 22 12 Z M 8.625 21.65625 C 11.601563 26.253906 15.363281 27.832031 15.625 27.9375 L 16 28.0625 L 16.375 27.9375 C 16.628906 27.835938 20.214844 26.339844 23.15625 22 L 20.6875 22 C 18.796875 24.34375 16.8125 25.503906 16 25.90625 C 15.179688 25.496094 13.1875 24.328125 11.28125 21.9375 C 11.027344 21.980469 10.769531 22 10.5 22 C 9.808594 22 9.1875 21.882813 8.625 21.65625 Z "></path>
</g>
</svg>
