<?xml version="1.0" encoding="UTF-8"?>
<svg xmlns="http://www.w3.org/2000/svg" xmlns:xlink="http://www.w3.org/1999/xlink" viewBox="0 0 32 32" version="1.1">
<g>
<path d="M 24 6 C 22.355469 6 21 7.355469 21 9 C 21 10.136719 21.652344 11.117188 22.59375 11.625 C 22.496094 11.8125 22.398438 12 22.34375 12.1875 C 22.082031 13.113281 22.144531 14.011719 22.28125 14.65625 L 24.25 14.25 C 24.175781 13.902344 24.152344 13.210938 24.28125 12.75 C 24.410156 12.289063 24.46875 12.097656 24.9375 12.03125 L 24.96875 12.03125 C 25.523438 11.953125 25.953125 12.238281 26.46875 12.96875 C 26.816406 13.464844 27.003906 14.234375 27.21875 14.9375 L 18.59375 16.5 C 18.070313 15.605469 17.101563 15 16 15 C 14.519531 15 13.292969 16.109375 13.0625 17.53125 L 4.9375 19.09375 C 4.835938 17.640625 4.902344 16.574219 5.125 16.03125 C 5.40625 15.347656 5.710938 15.226563 6.09375 15.15625 C 6.292969 15.121094 6.53125 15.199219 6.875 15.59375 C 7.21875 15.988281 7.53125 16.632813 7.625 17.09375 L 9.59375 16.6875 C 9.421875 15.851563 9.019531 14.988281 8.40625 14.28125 C 8.339844 14.203125 8.261719 14.136719 8.1875 14.0625 C 8.695313 13.523438 9 12.792969 9 12 C 9 10.355469 7.644531 9 6 9 C 4.355469 9 3 10.355469 3 12 C 3 12.863281 3.378906 13.636719 3.96875 14.1875 C 3.699219 14.480469 3.453125 14.832031 3.28125 15.25 C 2.789063 16.453125 2.667969 18.085938 3 20.4375 L 3.15625 21.5 L 4.1875 21.28125 L 7.375 20.65625 L 7.15625 22.5625 L 9.125 22.8125 L 9.46875 20.28125 L 13.40625 19.5 C 13.761719 20.097656 14.335938 20.570313 15 20.8125 L 15 23 L 13 23 L 13 25 L 19 25 L 19 23 L 17 23 L 17 20.8125 C 18.011719 20.445313 18.792969 19.550781 18.96875 18.46875 L 23.28125 17.6875 L 24.6875 20.09375 L 26.40625 19.09375 L 25.34375 17.3125 L 28.75 16.6875 L 29.71875 16.5 L 29.5625 15.53125 C 29.339844 14.246094 28.882813 12.890625 28.125 11.8125 C 27.738281 11.261719 27.222656 10.765625 26.625 10.4375 C 26.859375 10.007813 27 9.519531 27 9 C 27 7.355469 25.644531 6 24 6 Z M 24 8 C 24.5625 8 25 8.4375 25 9 C 25 9.5625 24.5625 10 24 10 C 23.4375 10 23 9.5625 23 9 C 23 8.4375 23.4375 8 24 8 Z M 6 11 C 6.5625 11 7 11.4375 7 12 C 7 12.5625 6.5625 13 6 13 C 5.4375 13 5 12.5625 5 12 C 5 11.4375 5.4375 11 6 11 Z M 16 17 C 16.5625 17 17 17.4375 17 18 C 17 18.5625 16.5625 19 16 19 C 15.4375 19 15 18.5625 15 18 C 15 17.4375 15.4375 17 16 17 Z "></path>
</g>
</svg>
