<?xml version="1.0" encoding="UTF-8"?>
<svg xmlns="http://www.w3.org/2000/svg" xmlns:xlink="http://www.w3.org/1999/xlink" viewBox="0 0 32 32" version="1.1">
<g>
<path d="M 10.8125 4 C 10.75 4.015625 10.683594 4.035156 10.625 4.0625 L 8.125 5.0625 L 8.875 6.9375 L 11.125 6.03125 L 15 6.8125 L 15 11 L 17 11 L 17 6.8125 L 20.875 6.03125 L 23.125 6.9375 L 23.875 5.0625 L 21.375 4.0625 C 21.195313 4 21 3.988281 20.8125 4.03125 L 16 5 L 11.1875 4.03125 C 11.097656 4.007813 11 3.996094 10.90625 4 C 10.875 4 10.84375 4 10.8125 4 Z M 15 12 L 15 24 L 12 24 L 12 26 L 20 26 L 20 24 L 17 24 L 17 12 Z M 9.5 19 C 8.671875 19 8 19.671875 8 20.5 L 8 26.5 C 8 27.328125 8.671875 28 9.5 28 C 10.328125 28 11 27.328125 11 26.5 L 11 20.5 C 11 19.671875 10.328125 19 9.5 19 Z M 22.5 19 C 21.671875 19 21 19.671875 21 20.5 L 21 26.5 C 21 27.328125 21.671875 28 22.5 28 C 23.328125 28 24 27.328125 24 26.5 L 24 20.5 C 24 19.671875 23.328125 19 22.5 19 Z "></path>
</g>
</svg>
