<?xml version="1.0" encoding="UTF-8"?>
<svg xmlns="http://www.w3.org/2000/svg" xmlns:xlink="http://www.w3.org/1999/xlink" viewBox="0 0 32 32" version="1.1">
<g>
<path d="M 16 5 C 12.675781 5 10 7.675781 10 11 C 10 11.351563 10.039063 11.683594 10.09375 12 L 6 12 C 5.476563 12 4.941406 12.183594 4.5625 12.5625 C 4.183594 12.941406 4 13.476563 4 14 L 4 25 C 4 25.523438 4.183594 26.058594 4.5625 26.4375 C 4.941406 26.816406 5.476563 27 6 27 L 26 27 C 26.523438 27 27.058594 26.816406 27.4375 26.4375 C 27.816406 26.058594 28 25.523438 28 25 L 28 14 C 28 13.476563 27.816406 12.941406 27.4375 12.5625 C 27.058594 12.183594 26.523438 12 26 12 L 21.9375 12 C 21.984375 11.664063 22 11.328125 22 11 C 22 7.675781 19.324219 5 16 5 Z M 16 7 C 18.277344 7 20 8.722656 20 11 C 20 11.363281 19.972656 11.695313 19.90625 12 L 12.15625 12 C 12.070313 11.648438 12 11.308594 12 11 C 12 8.722656 13.722656 7 16 7 Z M 6 14 L 26 14 L 26 25 L 20.90625 25 C 20.636719 23.703125 19.847656 22.566406 18.78125 21.84375 C 19.523438 21.117188 20 20.113281 20 19 C 20 16.800781 18.199219 15 16 15 C 13.800781 15 12 16.800781 12 19 C 12 20.113281 12.476563 21.117188 13.21875 21.84375 C 12.152344 22.566406 11.363281 23.703125 11.09375 25 L 6 25 Z M 16 17 C 17.117188 17 18 17.882813 18 19 C 18 20.117188 17.117188 21 16 21 C 14.882813 21 14 20.117188 14 19 C 14 17.882813 14.882813 17 16 17 Z M 16 23 C 17.300781 23 18.394531 23.84375 18.8125 25 L 13.1875 25 C 13.605469 23.84375 14.699219 23 16 23 Z "></path>
</g>
</svg>
