<?xml version="1.0" encoding="UTF-8"?>
<svg xmlns="http://www.w3.org/2000/svg" xmlns:xlink="http://www.w3.org/1999/xlink" viewBox="0 0 32 32" version="1.1">
<g>
<path d="M 4 5 L 4 7 L 6.125 7 L 8 21.125 L 8.125 22 L 27 22 L 27 8 L 9.28125 8 L 9.53125 10 L 25 10 L 25 20 L 9.875 20 L 8 5.875 L 7.875 5 Z M 22 22 C 20.355469 22 19 23.355469 19 25 C 19 26.644531 20.355469 28 22 28 C 23.644531 28 25 26.644531 25 25 C 25 23.355469 23.644531 22 22 22 Z M 13 22 C 11.355469 22 10 23.355469 10 25 C 10 26.644531 11.355469 28 13 28 C 14.644531 28 16 26.644531 16 25 C 16 23.355469 14.644531 22 13 22 Z M 14.8125 12 C 14.261719 12.050781 13.855469 12.542969 13.90625 13.09375 C 13.957031 13.644531 14.449219 14.050781 15 14 L 20 14 C 20.359375 14.003906 20.695313 13.816406 20.878906 13.503906 C 21.058594 13.191406 21.058594 12.808594 20.878906 12.496094 C 20.695313 12.183594 20.359375 11.996094 20 12 L 15 12 C 14.96875 12 14.9375 12 14.90625 12 C 14.875 12 14.84375 12 14.8125 12 Z M 13 24 C 13.5625 24 14 24.4375 14 25 C 14 25.5625 13.5625 26 13 26 C 12.4375 26 12 25.5625 12 25 C 12 24.4375 12.4375 24 13 24 Z M 22 24 C 22.5625 24 23 24.4375 23 25 C 23 25.5625 22.5625 26 22 26 C 21.4375 26 21 25.5625 21 25 C 21 24.4375 21.4375 24 22 24 Z "></path>
</g>
</svg>
