<?xml version="1.0" encoding="UTF-8"?>
<svg xmlns="http://www.w3.org/2000/svg" xmlns:xlink="http://www.w3.org/1999/xlink" viewBox="0 0 32 32" version="1.1">
<g>
<path d="M 16 4 L 15.46875 4.34375 L 4.46875 11.15625 L 4 11.4375 L 4 15 L 5 15 L 5 28 L 27 28 L 27 15 L 28 15 L 28 11.4375 L 27.53125 11.15625 L 16.53125 4.34375 Z M 16 6.375 L 26 12.5625 L 26 13 L 25 13 L 25 26 L 7 26 L 7 13 L 6 13 L 6 12.5625 Z M 15 12 L 15 13 C 13.355469 13 12 14.355469 12 16 C 12 17.644531 13.355469 19 15 19 L 17 19 C 17.566406 19 18 19.433594 18 20 C 18 20.566406 17.566406 21 17 21 L 15 21 C 14.433594 21 14 20.566406 14 20 L 12 20 C 12 21.644531 13.355469 23 15 23 L 15 24 L 17 24 L 17 23 C 18.644531 23 20 21.644531 20 20 C 20 18.355469 18.644531 17 17 17 L 15 17 C 14.433594 17 14 16.566406 14 16 C 14 15.433594 14.433594 15 15 15 L 17 15 C 17.566406 15 18 15.433594 18 16 L 20 16 C 20 14.355469 18.644531 13 17 13 L 17 12 Z "></path>
</g>
</svg>
