<?xml version="1.0" encoding="UTF-8"?>
<svg xmlns="http://www.w3.org/2000/svg" xmlns:xlink="http://www.w3.org/1999/xlink" viewBox="0 0 32 32" version="1.1">
<g>
<path d="M 8 4 L 8 16 L 24 16 L 24 4 Z M 10 6 L 22 6 L 22 14 L 10 14 Z M 13.8125 7 C 13.261719 7.050781 12.855469 7.542969 12.90625 8.09375 C 12.957031 8.644531 13.449219 9.050781 14 9 L 18 9 C 18.359375 9.003906 18.695313 8.816406 18.878906 8.503906 C 19.058594 8.191406 19.058594 7.808594 18.878906 7.496094 C 18.695313 7.183594 18.359375 6.996094 18 7 L 14 7 C 13.96875 7 13.9375 7 13.90625 7 C 13.875 7 13.84375 7 13.8125 7 Z M 10.5 17.96875 C 9.472656 17.972656 8.6875 18.25 8.6875 18.25 L 8.65625 18.25 L 3.90625 20.0625 L 3 20.40625 L 3.34375 21.34375 L 4.65625 25.03125 L 5 26 L 5.9375 25.625 L 9.9375 24.09375 L 16.625 27.78125 L 17.0625 28.03125 L 17.5 27.84375 L 29.375 22.9375 L 28.625 21.0625 L 17.1875 25.8125 L 10.46875 22.125 L 10.0625 21.90625 L 9.65625 22.0625 L 6.1875 23.375 L 5.5625 21.59375 L 9.34375 20.125 C 9.34375 20.125 9.375 20.125 9.375 20.125 C 9.398438 20.117188 9.84375 19.96875 10.53125 19.96875 C 11.234375 19.96875 12.046875 20.117188 12.75 20.75 L 12.75 20.78125 C 13.78125 21.675781 14.574219 22.285156 15.65625 22.625 C 16.738281 22.964844 17.949219 23.007813 20 23 L 20 21 C 17.988281 21.007813 16.9375 20.933594 16.25 20.71875 C 15.574219 20.507813 15.0625 20.121094 14.09375 19.28125 C 14.082031 19.269531 14.074219 19.261719 14.0625 19.25 C 12.910156 18.230469 11.515625 17.964844 10.5 17.96875 Z "></path>
</g>
</svg>
