<?xml version="1.0" encoding="UTF-8"?>
<svg xmlns="http://www.w3.org/2000/svg" xmlns:xlink="http://www.w3.org/1999/xlink" viewBox="0 0 32 32" version="1.1">
<g>
<path d="M 5 3 L 5 29 L 27 29 L 27 25.828125 L 25.828125 27 L 7 27 L 7 5 L 25 5 L 25 14.171875 L 27 16.171875 L 27 3 Z M 16 7 C 14.355469 7 13 8.355469 13 10 L 9 10 L 9 22 L 15 22 L 15 20 L 11 20 L 11 18 L 19.171875 18 L 23 14.171875 L 23 10 L 19 10 C 19 8.355469 17.644531 7 16 7 Z M 16 9 C 16.566406 9 17 9.433594 17 10 L 15 10 C 15 9.433594 15.433594 9 16 9 Z M 11 12 L 21 12 L 21 16 L 11 16 Z M 16 13 C 15.449219 13 15 13.449219 15 14 C 15 14.550781 15.449219 15 16 15 C 16.550781 15 17 14.550781 17 14 C 17 13.449219 16.550781 13 16 13 Z M 24 16 L 22.585938 17.414063 L 25.171875 20 L 17 20 L 17 22 L 25.171875 22 L 22.585938 24.585938 L 24 26 L 29 21 Z "></path>
</g>
</svg>
