<?xml version="1.0" encoding="UTF-8"?>
<svg xmlns="http://www.w3.org/2000/svg" xmlns:xlink="http://www.w3.org/1999/xlink" viewBox="0 0 32 32" version="1.1">
<g>
<path d="M 16 4 L 2 11.53125 L 2 13.84375 L 16 6.28125 L 30 13.8125 L 30 11.53125 Z M 16 8 L 2 15.53125 L 2 17.84375 L 16 10.28125 L 30 17.8125 L 30 15.53125 Z M 16 11.875 L 15.53125 12.125 L 2.53125 19.125 L 2 19.40625 L 2 20.65625 L 2.4375 20.96875 C 2.4375 20.96875 3.652344 21.75 5.90625 22.5 C 8.160156 23.25 11.519531 24 16 24 C 20.480469 24 23.839844 23.25 26.09375 22.5 C 28.347656 21.75 29.5625 20.96875 29.5625 20.96875 L 30 20.65625 L 30 19.40625 L 29.46875 19.125 L 16.46875 12.125 Z M 16 14.125 L 26.90625 20 C 26.417969 20.242188 26.464844 20.292969 25.46875 20.625 C 23.40625 21.3125 20.261719 22 16 22 C 11.738281 22 8.59375 21.3125 6.53125 20.625 C 5.535156 20.292969 5.582031 20.242188 5.09375 20 Z M 2 22.46875 L 2 24.65625 L 2.4375 24.96875 C 2.621094 25.09375 7.050781 28 16 28 C 24.949219 28 29.378906 25.09375 29.5625 24.96875 L 30 24.65625 L 30 22.5 L 28.4375 23.28125 C 28.398438 23.308594 24.277344 26 16 26 C 7.722656 26 3.601563 23.335938 3.5625 23.3125 Z "></path>
</g>
</svg>
