<?xml version="1.0" encoding="UTF-8"?>
<svg xmlns="http://www.w3.org/2000/svg" xmlns:xlink="http://www.w3.org/1999/xlink" viewBox="0 0 32 32" version="1.1">
<g>
<path d="M 15 4 C 13.597656 4 12.292969 4.738281 11.570313 5.941406 L 11.59375 5.898438 L 9.554688 8.953125 L 5.023438 10.03125 L 5.019531 10.03125 C 3.839844 10.324219 3 11.398438 3 12.617188 L 3 15 C 3 16.09375 3.90625 17 5 17 L 6.1875 17 C 6.605469 18.15625 7.707031 19 9 19 C 10.292969 19 11.394531 18.15625 11.8125 17 L 20.1875 17 C 20.605469 18.15625 21.707031 19 23 19 C 24.292969 19 25.394531 18.15625 25.8125 17 L 27 17 C 28.09375 17 29 16.09375 29 15 L 29 11.96875 C 29 10.75 28.160156 9.675781 26.980469 9.382813 L 27.050781 9.402344 L 25.886719 9.019531 L 24.453125 5.984375 L 24.429688 5.945313 C 23.707031 4.738281 22.402344 4 21 4 Z M 15 6 L 17 6 L 17 9 L 11.925781 9 L 13.269531 6.992188 L 13.28125 6.96875 C 13.644531 6.367188 14.296875 6 15 6 Z M 19 6 L 21 6 C 21.699219 6 22.339844 6.363281 22.703125 6.960938 L 23.667969 9 L 19 9 Z M 9.582031 11 L 25.511719 11 L 26.457031 11.3125 L 26.496094 11.324219 C 26.796875 11.398438 27 11.65625 27 11.96875 L 27 15 L 25.8125 15 C 25.394531 13.84375 24.292969 13 23 13 C 21.707031 13 20.605469 13.84375 20.1875 15 L 11.8125 15 C 11.394531 13.84375 10.292969 13 9 13 C 7.707031 13 6.605469 13.84375 6.1875 15 L 5 15 L 5 12.617188 C 5 12.304688 5.203125 12.046875 5.507813 11.96875 Z M 9 15 C 9.5625 15 10 15.4375 10 16 C 10 16.5625 9.5625 17 9 17 C 8.4375 17 8 16.5625 8 16 C 8 15.4375 8.4375 15 9 15 Z M 23 15 C 23.5625 15 24 15.4375 24 16 C 24 16.5625 23.5625 17 23 17 C 22.4375 17 22 16.5625 22 16 C 22 15.4375 22.4375 15 23 15 Z M 13 18 L 13 20 L 15 20 L 15 26 L 5.5 26 L 5.5 28 L 26.5 28 L 26.5 26 L 17 26 L 17 20 L 19 20 L 19 18 Z "></path>
</g>
</svg>
