<?xml version="1.0" encoding="UTF-8"?>
<svg xmlns="http://www.w3.org/2000/svg" xmlns:xlink="http://www.w3.org/1999/xlink" viewBox="0 0 32 32" version="1.1">
<g>
<path d="M 7 8 C 4.789063 8 3 9.789063 3 12 C 3 14.210938 4.789063 16 7 16 L 9 16 C 10.191406 16 11 16.808594 11 18 L 11 19 C 11 20.191406 10.191406 21 9 21 L 5 21 L 5 19 L 3 19 L 3 23 L 9 23 C 11.210938 23 13 21.210938 13 19 L 13 18 C 13 15.789063 11.210938 14 9 14 L 7 14 C 5.808594 14 5 13.191406 5 12 C 5 10.808594 5.808594 10 7 10 L 10 10 L 10 11 L 12 11 L 12 8 Z M 15 8 L 15 23 L 17 23 L 17 10.875 L 21.15625 17.53125 L 22 18.875 L 22.84375 17.53125 L 27 10.875 L 27 23 L 29 23 L 29 8 L 26.4375 8 L 26.15625 8.46875 L 22 15.125 L 17.84375 8.46875 L 17.5625 8 Z "></path>
</g>
</svg>
