<?xml version="1.0" encoding="UTF-8"?>
<svg xmlns="http://www.w3.org/2000/svg" xmlns:xlink="http://www.w3.org/1999/xlink" viewBox="0 0 32 32" version="1.1">
<g>
<path d="M 19 2 L 19 6 L 11 6 L 11 4 L 9 4 L 9 6 L 6 6 C 4.347656 6 3 7.347656 3 9 C 3 10.476563 3.910156 15.597656 4.015625 16.175781 L 4.164063 17 L 6 17 L 6 18 L 8 18 L 8 17 L 10.71875 17 L 10.949219 16.316406 C 11.113281 15.828125 11.9375 14 13 14 L 15 14 C 15.550781 14 16 14.449219 16 15 L 16 19 C 16 19.550781 15.550781 20 15 20 L 5 20 C 3.347656 20 2 21.347656 2 23 L 2 26 C 2 27.652344 3.347656 29 5 29 L 5 30 L 9 30 L 9 29 L 21 29 L 21 30 L 25 30 L 25 29 C 26.652344 29 28 27.652344 28 26 L 28 14 L 30 14 L 30 9 L 27.859375 9 C 27.492188 7.601563 26.398438 6.507813 25 6.140625 L 25 4 L 23 4 L 23 6 L 21 6 L 21 2 Z M 6 8 L 7 8 L 7 12 L 9 12 L 9 8 L 24 8 C 25.101563 8 26 8.898438 26 10 L 26 26 C 26 26.550781 25.550781 27 25 27 L 5 27 C 4.449219 27 4 26.550781 4 26 L 4 23 C 4 22.449219 4.449219 22 5 22 L 15 22 C 16.652344 22 18 20.652344 18 19 L 18 15 C 18 13.347656 16.652344 12 15 12 L 13 12 C 10.984375 12 9.820313 13.917969 9.328125 15 L 5.839844 15 C 5.519531 13.136719 5 9.9375 5 9 C 5 8.449219 5.449219 8 6 8 Z M 22 10 C 20.894531 10 20 10.894531 20 12 C 20 13.105469 20.894531 14 22 14 C 23.105469 14 24 13.105469 24 12 C 24 10.894531 23.105469 10 22 10 Z M 22 17 C 20.347656 17 19 18.347656 19 20 C 19 21.652344 20.347656 23 22 23 C 23.652344 23 25 21.652344 25 20 C 25 18.347656 23.652344 17 22 17 Z M 22 19 C 22.550781 19 23 19.449219 23 20 C 23 20.550781 22.550781 21 22 21 C 21.449219 21 21 20.550781 21 20 C 21 19.449219 21.449219 19 22 19 Z "></path>
</g>
</svg>
