<?xml version="1.0" encoding="UTF-8"?>
<svg xmlns="http://www.w3.org/2000/svg" xmlns:xlink="http://www.w3.org/1999/xlink" viewBox="0 0 32 32" version="1.1">
<g>
<path d="M 11.058594 3 C 10.925781 2.996094 10.792969 3.011719 10.664063 3.058594 C 10.144531 3.242188 9.871094 3.816406 10.058594 4.335938 L 14.613281 17.136719 L 16.769531 19.160156 C 16.652344 19.1875 16.527344 19.207031 16.410156 19.25 C 15.652344 19.511719 15.042969 20.054688 14.695313 20.777344 C 14.347656 21.5 14.300781 22.3125 14.566406 23.070313 L 16.214844 27.789063 C 16.644531 29.027344 17.808594 29.800781 19.050781 29.800781 C 19.375 29.800781 19.707031 29.746094 20.03125 29.636719 L 20.035156 29.636719 C 20.792969 29.371094 21.398438 28.828125 21.75 28.105469 C 22.097656 27.382813 22.144531 26.570313 21.878906 25.8125 L 20.230469 21.09375 C 20.222656 21.074219 20.210938 21.054688 20.203125 21.035156 L 19.488281 18.972656 L 16.335938 16.011719 L 11.941406 3.664063 C 11.800781 3.273438 11.445313 3.023438 11.058594 3 Z M 4.164063 8.015625 C 3.78125 7.949219 3.378906 8.113281 3.15625 8.460938 C 2.859375 8.929688 2.996094 9.546875 3.460938 9.84375 L 12.125 15.355469 L 11.0625 12.308594 L 4.539063 8.15625 C 4.421875 8.082031 4.292969 8.035156 4.164063 8.015625 Z M 26.152344 14.976563 C 25.917969 14.980469 25.683594 15.007813 25.449219 15.058594 C 24.320313 15.308594 23.453125 16.078125 23.015625 17.058594 L 20.339844 15 L 17.699219 15 L 18.394531 17 L 19.660156 17 L 22.855469 19.457031 C 23.296875 20.960938 24.671875 21.976563 26.203125 21.976563 C 26.449219 21.976563 26.703125 21.949219 26.953125 21.894531 C 27.867188 21.691406 28.648438 21.148438 29.152344 20.359375 C 29.652344 19.574219 29.820313 18.636719 29.621094 17.722656 C 29.253906 16.074219 27.777344 14.953125 26.152344 14.976563 Z M 26.203125 16.976563 C 26.890625 16.976563 27.511719 17.453125 27.664063 18.15625 C 27.75 18.546875 27.679688 18.945313 27.464844 19.28125 C 27.25 19.621094 26.917969 19.855469 26.527344 19.941406 C 25.714844 20.117188 24.914063 19.609375 24.734375 18.800781 C 24.558594 17.992188 25.070313 17.191406 25.878906 17.011719 C 25.984375 16.988281 26.09375 16.976563 26.203125 16.976563 Z M 17.398438 21.078125 C 17.546875 21.078125 17.695313 21.113281 17.828125 21.183594 C 18.066406 21.292969 18.242188 21.492188 18.332031 21.734375 L 19.023438 23.734375 C 19.03125 23.75 19.042969 23.765625 19.046875 23.78125 L 19.988281 26.472656 C 20.078125 26.726563 20.0625 26.996094 19.945313 27.234375 C 19.828125 27.476563 19.625 27.65625 19.375 27.746094 C 18.851563 27.929688 18.28125 27.652344 18.101563 27.132813 L 16.453125 22.410156 C 16.363281 22.15625 16.378906 21.886719 16.496094 21.644531 C 16.613281 21.40625 16.816406 21.226563 17.066406 21.140625 C 17.175781 21.101563 17.289063 21.078125 17.398438 21.078125 Z "></path>
</g>
</svg>
