<?xml version="1.0" encoding="UTF-8"?>
<svg xmlns="http://www.w3.org/2000/svg" xmlns:xlink="http://www.w3.org/1999/xlink" viewBox="0 0 32 32" version="1.1">
<g>
<path d="M 11 2.25 L 10.1875 3.4375 C 10.1875 3.4375 9.648438 4.191406 9.125 5.09375 C 8.863281 5.546875 8.617188 6.019531 8.40625 6.5 C 8.195313 6.980469 8 7.421875 8 8 C 8 9.644531 9.355469 11 11 11 C 12.644531 11 14 9.644531 14 8 C 14 7.421875 13.804688 6.980469 13.59375 6.5 C 13.382813 6.019531 13.136719 5.546875 12.875 5.09375 C 12.351563 4.191406 11.8125 3.4375 11.8125 3.4375 Z M 11 11 L 8 11 L 8 21 L 7 21 L 7 22 C 7 23.851563 8.28125 25.398438 10 25.84375 L 10 28 L 8 28 L 8 30 L 14 30 L 14 28 L 12 28 L 12 25.84375 C 13.71875 25.398438 15 23.851563 15 22 L 15 21 L 14 21 L 14 11 Z M 21 2.25 L 20.1875 3.4375 C 20.1875 3.4375 19.648438 4.191406 19.125 5.09375 C 18.863281 5.546875 18.617188 6.019531 18.40625 6.5 C 18.195313 6.980469 18 7.421875 18 8 C 18 9.644531 19.355469 11 21 11 C 22.644531 11 24 9.644531 24 8 C 24 7.421875 23.804688 6.980469 23.59375 6.5 C 23.382813 6.019531 23.136719 5.546875 22.875 5.09375 C 22.351563 4.191406 21.8125 3.4375 21.8125 3.4375 Z M 21 11 L 18 11 L 18 21 L 17 21 L 17 22 C 17 23.851563 18.28125 25.398438 20 25.84375 L 20 28 L 18 28 L 18 30 L 24 30 L 24 28 L 22 28 L 22 25.84375 C 23.71875 25.398438 25 23.851563 25 22 L 25 21 L 24 21 L 24 11 Z M 11 5.875 C 11.066406 5.984375 11.058594 5.976563 11.125 6.09375 C 11.363281 6.503906 11.617188 6.941406 11.78125 7.3125 C 11.945313 7.683594 12 8.027344 12 8 C 12 8.554688 11.554688 9 11 9 C 10.445313 9 10 8.554688 10 8 C 10 8.027344 10.054688 7.683594 10.21875 7.3125 C 10.382813 6.941406 10.636719 6.503906 10.875 6.09375 C 10.941406 5.976563 10.933594 5.984375 11 5.875 Z M 21 5.875 C 21.066406 5.984375 21.058594 5.976563 21.125 6.09375 C 21.363281 6.503906 21.617188 6.941406 21.78125 7.3125 C 21.945313 7.683594 22 8.027344 22 8 C 22 8.554688 21.554688 9 21 9 C 20.445313 9 20 8.554688 20 8 C 20 8.027344 20.054688 7.683594 20.21875 7.3125 C 20.382813 6.941406 20.636719 6.503906 20.875 6.09375 C 20.941406 5.976563 20.933594 5.984375 21 5.875 Z M 10 13 L 12 13 L 12 21 L 10 21 Z M 20 13 L 22 13 L 22 21 L 20 21 Z M 9.4375 23 L 12.5625 23 C 12.210938 23.558594 11.71875 24 11 24 C 10.28125 24 9.789063 23.558594 9.4375 23 Z M 19.4375 23 L 22.5625 23 C 22.210938 23.558594 21.71875 24 21 24 C 20.28125 24 19.789063 23.558594 19.4375 23 Z "></path>
</g>
</svg>
