<?xml version="1.0" encoding="UTF-8"?>
<svg xmlns="http://www.w3.org/2000/svg" xmlns:xlink="http://www.w3.org/1999/xlink" viewBox="0 0 32 32" version="1.1">
<g>
<path d="M 10 4 C 8.054688 4 6.4375 5.15625 6.4375 5.15625 L 7.5625 6.84375 C 7.5625 6.84375 8.945313 6 10 6 C 10.769531 6 11.546875 6.382813 12 6.625 L 12 10 L 13 10 L 13 11 L 8 11 L 8 28 L 24 28 L 24 11 L 19 11 L 19 10 L 20 10 L 20 5 L 13.3125 5 C 12.808594 4.691406 11.519531 4 10 4 Z M 14 7 L 18 7 L 18 8 L 14 8 Z M 15 10 L 17 10 L 17 11 L 15 11 Z M 10 13 L 22 13 L 22 16 L 20.8125 16 C 20.394531 14.84375 19.292969 14 18 14 C 16.707031 14 15.605469 14.84375 15.1875 16 L 10 16 Z M 18 16 C 18.5625 16 19 16.4375 19 17 C 19 17.5625 18.5625 18 18 18 C 17.4375 18 17 17.5625 17 17 C 17 16.4375 17.4375 16 18 16 Z M 10 18 L 15.1875 18 C 15.605469 19.15625 16.707031 20 18 20 C 19.292969 20 20.394531 19.15625 20.8125 18 L 22 18 L 22 26 L 10 26 Z M 14 21 C 13.449219 21 13 21.449219 13 22 C 13 22.550781 13.449219 23 14 23 C 14.550781 23 15 22.550781 15 22 C 15 21.449219 14.550781 21 14 21 Z "></path>
</g>
</svg>
