<?xml version="1.0" encoding="UTF-8"?>
<svg xmlns="http://www.w3.org/2000/svg" xmlns:xlink="http://www.w3.org/1999/xlink" viewBox="0 0 32 32" version="1.1">
<g>
<path d="M 6 5 L 6 6.46875 L 6.0625 6.625 C 6.082031 6.675781 8.0625 11.886719 8.0625 15.3125 L 8.0625 16.125 L 8.90625 16.28125 C 9.707031 16.421875 10.410156 16.707031 11 17.03125 L 8.09375 17.34375 L 8.09375 18.25 C 8.09375 19.382813 7.621094 20.792969 7.3125 21.71875 C 7.089844 22.398438 7 22.703125 7 23 L 9 23.09375 C 9.019531 22.988281 9.125 22.625 9.21875 22.34375 C 9.492188 21.507813 9.882813 20.335938 10.03125 19.15625 L 15.625 18.53125 L 14.34375 17.09375 C 14.269531 17.007813 12.628906 15.222656 10.03125 14.5 C 9.855469 11.871094 8.910156 8.753906 8.34375 7.09375 C 14.808594 8.085938 23 15.785156 23 23 L 25 23 C 25 14.066406 14.527344 5 7 5 Z M 6 25 C 6 25.304688 5.246094 26 4 26 L 4 28 C 5.1875 28 6.261719 27.578125 7 26.9375 C 7.738281 27.578125 8.8125 28 10 28 C 11.1875 28 12.261719 27.578125 13 26.9375 C 13.738281 27.578125 14.8125 28 16 28 C 17.1875 28 18.261719 27.578125 19 26.9375 C 19.738281 27.578125 20.8125 28 22 28 C 23.1875 28 24.261719 27.578125 25 26.9375 C 25.738281 27.578125 26.8125 28 28 28 L 28 26 C 26.777344 26 26 25.296875 26 25 L 24 25 C 24 25.304688 23.242188 26 22 26 C 20.777344 26 20 25.296875 20 25 L 18 25 C 18 25.304688 17.242188 26 16 26 C 14.777344 26 14 25.296875 14 25 L 12 25 C 12 25.304688 11.246094 26 10 26 C 8.777344 26 8 25.296875 8 25 Z "></path>
</g>
</svg>
