<?xml version="1.0" encoding="UTF-8"?>
<svg xmlns="http://www.w3.org/2000/svg" xmlns:xlink="http://www.w3.org/1999/xlink" viewBox="0 0 32 32" version="1.1">
<g>
<path d="M 21 3 C 18.800781 3 17 4.800781 17 7 C 17 8.117188 17.46875 9.128906 18.214844 9.855469 C 16.878906 10.757813 16 12.28125 16 14 L 18 14 C 18 12.332031 19.332031 11 21 11 C 22.667969 11 24 12.332031 24 14 L 26 14 C 26 13.101563 25.738281 12.265625 25.316406 11.53125 C 25.796875 11.203125 26.371094 11 27 11 C 28.667969 11 30 12.332031 30 14 L 32 14 C 32 12.28125 31.121094 10.757813 29.785156 9.855469 C 30.53125 9.128906 31 8.117188 31 7 C 31 4.800781 29.199219 3 27 3 C 25.804688 3 24.734375 3.546875 24 4.390625 C 23.265625 3.546875 22.195313 3 21 3 Z M 21 5 C 22.117188 5 23 5.882813 23 7 C 23 8.117188 22.117188 9 21 9 C 19.882813 9 19 8.117188 19 7 C 19 5.882813 19.882813 5 21 5 Z M 27 5 C 28.117188 5 29 5.882813 29 7 C 29 8.117188 28.117188 9 27 9 C 25.882813 9 25 8.117188 25 7 C 25 5.882813 25.882813 5 27 5 Z M 8 7 C 5.242188 7 3 9.242188 3 12 L 3 25 L 15 25 L 15 29 L 17 29 L 17 25 L 27 25 L 27 16 L 25 16 L 25 23 L 13 23 L 13 12 C 13 10.871094 12.605469 9.839844 11.96875 9 L 15.265625 9 C 15.28125 8.972656 15.304688 8.945313 15.324219 8.921875 C 15.117188 8.316406 15 7.671875 15 7 Z M 8 9 C 9.667969 9 11 10.332031 11 12 L 11 23 L 5 23 L 5 12 C 5 10.347656 6.347656 9 8 9 Z M 6 13 L 6 15 L 10 15 L 10 13 Z "></path>
</g>
</svg>
