<?xml version="1.0" encoding="UTF-8"?>
<svg xmlns="http://www.w3.org/2000/svg" xmlns:xlink="http://www.w3.org/1999/xlink" viewBox="0 0 32 32" version="1.1">
<g>
<path d="M 4 5 L 4 6.554688 C 2.875 7.136719 2 8.152344 2 9.5 C 2 10.917969 2.953125 11.992188 4.179688 12.535156 C 4.542969 15.4375 5.804688 18.398438 7.785156 20.734375 C 9.878906 23.203125 12.75 25 16 25 C 19.25 25 22.121094 23.203125 24.214844 20.734375 C 26.195313 18.398438 27.457031 15.4375 27.820313 12.535156 C 29.046875 11.992188 30 10.917969 30 9.5 C 30 8.152344 29.125 7.136719 28 6.554688 L 28 5 L 26 5 L 26 7.867188 L 26.800781 8.03125 C 27.484375 8.167969 28 8.765625 28 9.5 C 28 10.246094 27.46875 10.84375 26.769531 10.96875 L 26.019531 11.109375 L 25.953125 11.867188 C 25.734375 14.4375 24.511719 17.292969 22.6875 19.441406 C 20.867188 21.589844 18.503906 23 16 23 C 13.496094 23 11.132813 21.589844 9.3125 19.441406 C 7.488281 17.292969 6.265625 14.4375 6.046875 11.867188 L 5.976563 11.109375 L 5.226563 10.96875 C 4.53125 10.84375 4 10.246094 4 9.5 C 4 8.765625 4.515625 8.167969 5.199219 8.03125 L 6 7.867188 L 6 5 Z M 11.5 6 C 10.671875 6 10 6.671875 10 7.5 C 10 8.328125 10.671875 9 11.5 9 C 12.328125 9 13 8.328125 13 7.5 C 13 6.671875 12.328125 6 11.5 6 Z M 20.5 6 C 19.671875 6 19 6.671875 19 7.5 C 19 8.328125 19.671875 9 20.5 9 C 21.328125 9 22 8.328125 22 7.5 C 22 6.671875 21.328125 6 20.5 6 Z M 16 13.964844 C 14.480469 13.925781 12.371094 14.257813 11.5 14.765625 L 12.5 16.496094 C 12.824219 16.308594 14.394531 15.964844 15.984375 15.964844 L 16 15.964844 C 17.527344 15.96875 19.125 16.292969 19.515625 16.503906 L 20.484375 14.753906 C 19.589844 14.261719 17.503906 13.964844 16 13.964844 Z "></path>
</g>
</svg>
