<?xml version="1.0" encoding="UTF-8"?>
<svg xmlns="http://www.w3.org/2000/svg" xmlns:xlink="http://www.w3.org/1999/xlink" viewBox="0 0 32 32" version="1.1">
<g>
<path d="M 16 3 C 15.03125 3 14.1875 3.425781 13.5 4 C 12.152344 4 11.144531 4.875 10.5625 6 C 10.539063 6 10.523438 6 10.5 6 C 8.726563 6 7.308594 7.371094 7.09375 9.09375 C 6.464844 9.722656 6 10.535156 6 11.5 C 6 11.671875 6.015625 11.839844 6.03125 12 C 4.738281 12.976563 4 14.410156 4 16 C 4 17.101563 4.378906 18.148438 5.03125 19 L 8 19 L 7.96875 18.84375 L 7.53125 18.59375 C 6.582031 18.058594 6 17.066406 6 16 C 6 15.152344 6.339844 14.554688 6.75 14.09375 C 7.484375 15.269531 8.5 15.875 8.5 15.875 L 9.5 14.125 C 9.5 14.125 8 13.28125 8 11.5 C 8 11.007813 8.222656 10.59375 8.59375 10.3125 L 9 10 L 9 9.5 C 9 8.660156 9.660156 8 10.5 8 C 10.601563 8 10.691406 8.003906 10.8125 8.03125 L 11.84375 8.25 L 12.03125 7.25 C 12.15625 6.546875 12.753906 6 13.5 6 C 13.460938 6 13.507813 6.015625 13.65625 6.03125 L 14.15625 6.0625 L 14.5 5.6875 C 14.875 5.261719 15.402344 5 16 5 C 16.597656 5 17.125 5.261719 17.5 5.6875 L 17.84375 6.0625 L 18.34375 6.03125 C 18.492188 6.015625 18.539063 6 18.5 6 C 19.246094 6 19.84375 6.546875 19.96875 7.25 L 20.15625 8.25 L 21.1875 8.03125 C 21.308594 8.003906 21.398438 8 21.5 8 C 22.339844 8 23 8.660156 23 9.5 L 23 10 L 23.40625 10.3125 C 23.777344 10.59375 24 11.007813 24 11.5 C 24 13.28125 22.5 14.125 22.5 14.125 L 23.5 15.875 C 23.5 15.875 24.515625 15.269531 25.25 14.09375 C 25.660156 14.554688 26 15.152344 26 16 C 26 17.066406 25.417969 18.058594 24.46875 18.59375 L 24.03125 18.84375 L 24 19 L 26.96875 19 C 27.621094 18.148438 28 17.101563 28 16 C 28 14.410156 27.261719 12.976563 25.96875 12 C 25.984375 11.839844 26 11.671875 26 11.5 C 26 10.535156 25.535156 9.722656 24.90625 9.09375 C 24.691406 7.371094 23.273438 6 21.5 6 C 21.476563 6 21.460938 6 21.4375 6 C 20.855469 4.875 19.847656 4 18.5 4 C 17.8125 3.425781 16.96875 3 16 3 Z M 11 14 C 11 17.023438 13 17.71875 13 17.71875 C 13 17.71875 14.132813 20 16 20 C 17.867188 20 19 17.71875 19 17.71875 C 19 17.71875 21 17.023438 21 14 L 19 14 C 19 14.550781 18.550781 15 18 15 C 17.449219 15 17 14.550781 17 14 L 15 14 C 15 14.550781 14.550781 15 14 15 C 13.449219 15 13 14.550781 13 14 Z M 4 21 L 4 23 L 7.40625 23 C 7.558594 23.433594 7.621094 23.820313 8.25 24.625 C 9.074219 25.679688 10.492188 26.734375 12.53125 26.9375 C 13.21875 28.15625 14.511719 29 16 29 C 17.488281 29 18.78125 28.15625 19.46875 26.9375 C 21.507813 26.734375 22.925781 25.679688 23.75 24.625 C 24.378906 23.820313 24.441406 23.433594 24.59375 23 L 28 23 L 28 21 L 23.21875 21 L 23.03125 21.75 C 23.03125 21.75 22.835938 22.546875 22.1875 23.375 C 21.707031 23.992188 21.039063 24.609375 20 24.875 C 20 24.875 19.96875 24.875 19.96875 24.875 C 19.898438 22.734375 18.15625 21 16 21 C 13.84375 21 12.101563 22.734375 12.03125 24.875 C 12.019531 24.871094 12.011719 24.878906 12 24.875 C 10.960938 24.609375 10.292969 23.992188 9.8125 23.375 C 9.164063 22.546875 8.96875 21.75 8.96875 21.75 L 8.78125 21 Z M 16 23 C 17.117188 23 18 23.882813 18 25 C 18 26.117188 17.117188 27 16 27 C 14.882813 27 14 26.117188 14 25 C 14 23.882813 14.882813 23 16 23 Z "></path>
</g>
</svg>
