<?xml version="1.0" encoding="UTF-8"?>
<svg xmlns="http://www.w3.org/2000/svg" xmlns:xlink="http://www.w3.org/1999/xlink" viewBox="0 0 32 32" version="1.1">
<g>
<path d="M 10.613281 4 C 9.164063 4 7.828125 4.351563 6.792969 5.039063 C 5.757813 5.726563 5 6.828125 5 8.109375 L 5 22.109375 C 5 23.996094 6.03125 25.359375 7.210938 26.078125 C 8.394531 26.792969 9.675781 27 10.613281 27 L 27 27 L 27 7.109375 L 15.941406 7.109375 C 15.660156 6.28125 15.179688 5.53125 14.4375 5.039063 C 13.402344 4.351563 12.066406 4 10.613281 4 Z M 10.613281 6 C 11.730469 6 12.707031 6.292969 13.332031 6.707031 C 13.960938 7.121094 14.230469 7.578125 14.230469 8.109375 L 14.230469 18.933594 C 14.109375 18.863281 14.023438 18.726563 13.902344 18.667969 C 12.734375 18.117188 11.488281 18 10.613281 18 C 9.3125 18 8.039063 18.351563 7 18.988281 L 7 8.109375 C 7 7.578125 7.269531 7.121094 7.898438 6.707031 C 8.523438 6.292969 9.5 6 10.613281 6 Z M 16.230469 9.109375 L 25 9.109375 L 25 25 L 10.613281 25 C 10.015625 25 8.992188 24.816406 8.25 24.367188 C 7.507813 23.917969 7 23.335938 7 22.109375 C 7 21.625 7.304688 21.144531 7.976563 20.71875 C 8.652344 20.289063 9.648438 20 10.613281 20 C 11.277344 20 12.308594 20.128906 13.046875 20.476563 C 13.78125 20.824219 14.207031 21.207031 14.230469 22.140625 L 16.230469 22.109375 Z "></path>
</g>
</svg>
