<?xml version="1.0" encoding="UTF-8"?>
<svg xmlns="http://www.w3.org/2000/svg" xmlns:xlink="http://www.w3.org/1999/xlink" viewBox="0 0 32 32" version="1.1">
<g>
<path d="M 14 6 C 12.839844 6 11.820313 6.488281 10.96875 7.15625 C 10.65625 7.085938 10.359375 7 10 7 C 7.25 7 5 9.25 5 12 C 5 12.082031 5.027344 12.117188 5.03125 12.1875 C 3.863281 13.097656 3 14.40625 3 16 C 3 17.886719 4.0625 19.585938 5.65625 20.46875 C 6.058594 21.230469 6.617188 21.726563 7 22 L 7 27 L 9 27 L 9 19 L 7.03125 19 L 6.78125 18.875 C 5.796875 18.429688 5 17.222656 5 16 C 5 14.875 5.609375 13.921875 6.53125 13.40625 L 7.125 13.0625 L 7.03125 12.40625 C 7.003906 12.207031 7 12.070313 7 12 C 7 10.332031 8.332031 9 10 9 C 10.277344 9 10.566406 9.0625 10.875 9.15625 L 11.4375 9.3125 L 11.875 8.90625 C 12.421875 8.351563 13.160156 8 14 8 C 14.945313 8 15.753906 8.433594 16.3125 9.125 L 16.84375 9.78125 L 17.59375 9.375 C 18.035156 9.132813 18.492188 9 19 9 C 20.125 9 21.074219 9.613281 21.59375 10.53125 L 21.84375 10.96875 L 22.34375 11.03125 C 23.519531 11.171875 24.453125 11.976563 24.8125 13.0625 C 23.804688 12.867188 22.71875 13.15625 21.9375 13.9375 C 20.691406 15.183594 20.691406 17.222656 21.9375 18.46875 C 22.082031 18.613281 22.265625 18.742188 22.46875 18.875 C 21.945313 19.824219 20.84375 20 20.84375 20 L 20 20.125 L 20 27 L 22 27 L 22 21.71875 C 22.726563 21.472656 23.691406 20.972656 24.3125 19.65625 C 25.703125 20.054688 27.183594 20.128906 27.65625 19.65625 C 28.34375 18.96875 27.875 16.160156 26.9375 14.59375 C 26.964844 14.394531 27 14.203125 27 14 C 27 11.589844 25.246094 9.648438 22.96875 9.1875 C 22.066406 7.921875 20.671875 7 19 7 C 18.386719 7 17.871094 7.238281 17.34375 7.4375 C 16.457031 6.597656 15.324219 6 14 6 Z M 20 12 C 19.429688 12 18 13.234375 18 14.65625 C 18 15.582031 18.449219 16 19 16 C 19.550781 16 20 15.328125 20 14.5 Z M 24 15 C 24.550781 15 25 15.449219 25 16 C 25 16.550781 24.550781 17 24 17 C 23.449219 17 23 16.550781 23 16 C 23 15.449219 23.449219 15 24 15 Z M 17 19 L 17 20.1875 C 16.46875 20.6875 15.785156 21 15 21 C 14.292969 21 13.652344 20.738281 13.125 20.3125 L 12.375 19.71875 L 11.75 20.4375 C 11.457031 20.765625 10.71875 21.03125 10.71875 21.03125 L 10 21.25 L 10 27 L 12 27 L 12 22.6875 C 12.171875 22.605469 12.367188 22.382813 12.5625 22.25 C 13.289063 22.675781 14.089844 23 15 23 C 15.710938 23 16.390625 22.867188 17 22.59375 L 17 27 L 19 27 L 19 19 Z "></path>
</g>
</svg>
