<?xml version="1.0" encoding="UTF-8"?>
<svg xmlns="http://www.w3.org/2000/svg" xmlns:xlink="http://www.w3.org/1999/xlink" viewBox="0 0 32 32" version="1.1">
<g>
<path d="M 16 4 C 15.171875 4 14.5 4.671875 14.5 5.5 C 14.5 5.769531 14.5625 6.03125 14.6875 6.25 L 12.53125 10 L 8.1875 10 C 7.925781 9.554688 7.460938 9.25 6.90625 9.25 C 6.078125 9.25 5.40625 9.921875 5.40625 10.75 C 5.40625 11.578125 6.078125 12.25 6.90625 12.25 L 9.09375 16 L 6.90625 19.75 C 6.078125 19.75 5.40625 20.421875 5.40625 21.25 C 5.40625 22.078125 6.078125 22.75 6.90625 22.75 C 7.460938 22.75 7.925781 22.445313 8.1875 22 L 12.53125 22 L 14.6875 25.75 C 14.5625 25.96875 14.5 26.230469 14.5 26.5 C 14.5 27.328125 15.171875 28 16 28 C 16.828125 28 17.5 27.328125 17.5 26.5 C 17.5 26.230469 17.4375 25.96875 17.3125 25.75 L 19.46875 22 L 23.8125 22 C 24.074219 22.445313 24.539063 22.75 25.09375 22.75 C 25.921875 22.75 26.59375 22.078125 26.59375 21.25 C 26.59375 20.421875 25.921875 19.75 25.09375 19.75 L 22.90625 16 L 25.09375 12.25 C 25.921875 12.25 26.59375 11.578125 26.59375 10.75 C 26.59375 9.921875 25.921875 9.25 25.09375 9.25 C 24.539063 9.25 24.074219 9.554688 23.8125 10 L 19.46875 10 L 17.3125 6.25 C 17.4375 6.03125 17.5 5.769531 17.5 5.5 C 17.5 4.671875 16.828125 4 16 4 Z M 16 8 L 18.03125 11.5 L 18.3125 12 L 22.90625 12 L 20.90625 15.5 L 20.625 16 L 20.90625 16.5 L 22.90625 20 L 18.3125 20 L 18.03125 20.5 L 16 24 L 13.96875 20.5 L 13.6875 20 L 9.09375 20 L 11.09375 16.5 L 11.375 16 L 11.09375 15.5 L 9.09375 12 L 13.6875 12 L 13.96875 11.5 Z M 16 12 C 13.796875 12 12 13.796875 12 16 C 12 18.203125 13.796875 20 16 20 C 18.203125 20 20 18.203125 20 16 C 20 13.796875 18.203125 12 16 12 Z M 16 14 C 17.15625 14 18 14.84375 18 16 C 18 17.15625 17.15625 18 16 18 C 14.84375 18 14 17.15625 14 16 C 14 14.84375 14.84375 14 16 14 Z "></path>
</g>
</svg>
