<?xml version="1.0" encoding="UTF-8"?>
<svg xmlns="http://www.w3.org/2000/svg" xmlns:xlink="http://www.w3.org/1999/xlink" viewBox="0 0 32 32" version="1.1">
<g>
<path d="M 5.375 6 L 3 10.75 L 3 26 L 7.125 26 L 7.625 25 L 24.375 25 L 24.875 26 L 29 26 L 29 10.75 L 26.625 6 L 23.875 6 L 23.375 7 L 8.625 7 L 8.125 6 Z M 6.625 8 L 6.875 8 L 7.375 9 L 24.625 9 L 25.125 8 L 25.375 8 L 26.375 10 L 24.875 10 L 24.375 11 L 7.625 11 L 7.125 10 L 5.625 10 Z M 5 12 L 5.875 12 L 6.375 13 L 25.625 13 L 26.125 12 L 27 12 L 27 24 L 26.125 24 L 25.625 23 L 6.375 23 L 5.875 24 L 5 24 Z M 9 14 L 9 22 L 11 22 L 11 14 Z M 13 14 L 13 22 L 15 22 L 15 14 Z M 17 14 L 17 22 L 19 22 L 19 14 Z M 21 14 L 21 22 L 23 22 L 23 14 Z "></path>
</g>
</svg>
