<?xml version="1.0" encoding="UTF-8"?>
<svg xmlns="http://www.w3.org/2000/svg" xmlns:xlink="http://www.w3.org/1999/xlink" viewBox="0 0 32 32" version="1.1">
<g>
<path d="M 0 6 L 0 25 L 4.15625 25 C 4.601563 26.71875 6.148438 28 8 28 C 9.851563 28 11.398438 26.71875 11.84375 25 L 21.15625 25 C 21.601563 26.71875 23.148438 28 25 28 C 26.851563 28 28.398438 26.71875 28.84375 25 L 32 25 L 32 16.84375 L 31.9375 16.6875 L 29.9375 10.6875 L 29.71875 10 L 21 10 L 21 6 Z M 2 8 L 19 8 L 19 23 L 11.84375 23 C 11.398438 21.28125 9.851563 20 8 20 C 6.148438 20 4.601563 21.28125 4.15625 23 L 2 23 Z M 15.28125 10.28125 L 10 15.5625 L 6.71875 12.28125 L 5.28125 13.71875 L 9.28125 17.71875 L 10 18.40625 L 10.71875 17.71875 L 16.71875 11.71875 Z M 21 12 L 28.28125 12 L 30 17.125 L 30 23 L 28.84375 23 C 28.398438 21.28125 26.851563 20 25 20 C 23.148438 20 21.601563 21.28125 21.15625 23 L 21 23 Z M 8 22 C 9.117188 22 10 22.882813 10 24 C 10 25.117188 9.117188 26 8 26 C 6.882813 26 6 25.117188 6 24 C 6 22.882813 6.882813 22 8 22 Z M 25 22 C 26.117188 22 27 22.882813 27 24 C 27 25.117188 26.117188 26 25 26 C 23.882813 26 23 25.117188 23 24 C 23 22.882813 23.882813 22 25 22 Z "></path>
</g>
</svg>
