<?xml version="1.0" encoding="UTF-8"?>
<svg xmlns="http://www.w3.org/2000/svg" xmlns:xlink="http://www.w3.org/1999/xlink" viewBox="0 0 32 32" version="1.1">
<g>
<path d="M 16 3 C 14.238281 3 12.707031 3.996094 12.5625 4.09375 C 12.554688 4.097656 12.46875 4.15625 12.46875 4.15625 L 8.5625 6.09375 L 8.53125 6.125 L 8 6.375 L 8 6.4375 C 7.773438 6.574219 7.519531 6.726563 7.21875 6.9375 C 6.519531 7.433594 5.703125 8.085938 5.15625 8.96875 C 4.917969 9.351563 4.886719 9.601563 4.8125 9.96875 C 4.738281 10.335938 4.65625 10.765625 4.59375 11.25 C 4.46875 12.214844 4.371094 13.394531 4.28125 14.53125 C 4.101563 16.808594 4 18.9375 4 18.9375 L 4 26 L 8 26 L 8 29 L 24 29 L 24 26 L 28 26 L 28 18.9375 C 28 18.9375 27.898438 16.808594 27.71875 14.53125 C 27.628906 13.394531 27.53125 12.214844 27.40625 11.25 C 27.34375 10.765625 27.261719 10.335938 27.1875 9.96875 C 27.113281 9.601563 27.082031 9.351563 26.84375 8.96875 C 26.296875 8.085938 25.480469 7.433594 24.78125 6.9375 C 24.480469 6.726563 24.226563 6.574219 24 6.4375 L 24 6.375 L 23.4375 6.09375 L 19.53125 4.15625 L 19.4375 4.09375 C 19.292969 3.996094 17.761719 3 16 3 Z M 16 5 C 16.835938 5 18.300781 5.757813 18.40625 5.8125 L 16 9 L 20 12 L 20 6.625 L 22 7.625 L 22 27 L 10 27 L 10 7.625 L 12 6.625 L 12 12 L 16 9 L 13.59375 5.8125 C 13.699219 5.757813 15.164063 5 16 5 Z M 8 8.875 L 8 24 L 6 24 L 6 19 C 6.003906 18.941406 6.109375 16.894531 6.28125 14.6875 C 6.367188 13.570313 6.476563 12.40625 6.59375 11.5 C 6.652344 11.046875 6.722656 10.660156 6.78125 10.375 C 6.8125 10.234375 6.855469 10.101563 6.875 10.03125 C 6.882813 10.019531 6.871094 10.003906 6.875 10 C 6.878906 9.988281 6.875 9.96875 6.875 9.96875 C 7.09375 9.636719 7.546875 9.238281 8 8.875 Z M 24 8.875 C 24.460938 9.246094 24.90625 9.667969 25.125 10 C 25.136719 10.050781 25.183594 10.199219 25.21875 10.375 C 25.277344 10.660156 25.347656 11.046875 25.40625 11.5 C 25.523438 12.40625 25.632813 13.570313 25.71875 14.6875 C 25.890625 16.894531 25.996094 18.941406 26 19 C 26 19 26 19.0625 26 19.0625 L 26 24 L 24 24 Z M 16 11 C 15.449219 11 15 11.449219 15 12 C 15 12.550781 15.449219 13 16 13 C 16.550781 13 17 12.550781 17 12 C 17 11.449219 16.550781 11 16 11 Z M 16 15 C 15.449219 15 15 15.449219 15 16 C 15 16.550781 15.449219 17 16 17 C 16.550781 17 17 16.550781 17 16 C 17 15.449219 16.550781 15 16 15 Z M 16 19 C 15.449219 19 15 19.449219 15 20 C 15 20.550781 15.449219 21 16 21 C 16.550781 21 17 20.550781 17 20 C 17 19.449219 16.550781 19 16 19 Z M 16 23 C 15.449219 23 15 23.449219 15 24 C 15 24.550781 15.449219 25 16 25 C 16.550781 25 17 24.550781 17 24 C 17 23.449219 16.550781 23 16 23 Z "></path>
</g>
</svg>
