<?xml version="1.0" encoding="UTF-8"?>
<svg xmlns="http://www.w3.org/2000/svg" xmlns:xlink="http://www.w3.org/1999/xlink" viewBox="0 0 32 32" version="1.1">
<g>
<path d="M 16 4 C 14.058594 4 12.25 4.449219 10.625 5.1875 L 11.21875 6.5 L 14.4375 14.78125 C 14.171875 15.121094 14 15.539063 14 16 C 14 16.164063 14.027344 16.316406 14.0625 16.46875 L 8.25 22.25 C 8.027344 21.972656 7.816406 21.675781 7.625 21.375 L 5.9375 22.4375 C 8.039063 25.746094 11.792969 28 16 28 C 22.59375 28 28 22.59375 28 16 C 28 9.40625 22.59375 4 16 4 Z M 16 6 C 21.171875 6 25.4375 9.957031 25.9375 15 L 17.71875 15 C 17.421875 14.488281 16.917969 14.125 16.3125 14.03125 L 14.78125 10.125 C 15.171875 10.046875 15.585938 10 16 10 C 16.953125 10 17.859375 10.230469 18.65625 10.625 L 19.53125 8.8125 C 18.464844 8.285156 17.265625 8 16 8 C 15.332031 8 14.6875 8.097656 14.0625 8.25 L 13.3125 6.34375 C 14.171875 6.121094 15.058594 6 16 6 Z M 8.6875 8.53125 C 8.550781 10.878906 6.484375 9.085938 5.65625 11.15625 C 6.070313 13.226563 8.5625 14.875 8.5625 14.875 C 8.5625 14.875 5.039063 13.820313 4.625 11.75 C 1.398438 10.234375 0 13.21875 0 13.21875 C 0 13.21875 3.027344 12.242188 4.5625 16.6875 C 5.652344 19.839844 8.863281 19.226563 10.21875 17.9375 C 11.578125 16.648438 11.179688 14.460938 9.9375 13.21875 C 10.214844 12.113281 10.621094 10.742188 8.6875 8.53125 Z M 17.71875 17 L 21.90625 17 C 21.433594 19.847656 18.984375 22 16 22 L 16 24 C 20.066406 24 23.4375 20.933594 23.9375 17 L 25.9375 17 C 25.4375 22.042969 21.171875 26 16 26 C 13.609375 26 11.410156 25.089844 9.6875 23.65625 L 15.4375 17.90625 C 15.617188 17.960938 15.804688 18 16 18 C 16.738281 18 17.371094 17.597656 17.71875 17 Z "></path>
</g>
</svg>
