<?xml version="1.0" encoding="UTF-8"?>
<svg xmlns="http://www.w3.org/2000/svg" xmlns:xlink="http://www.w3.org/1999/xlink" viewBox="0 0 32 32" version="1.1">
<g>
<path d="M 16 6 C 12.5625 6 9.203125 6.628906 6.625 7.6875 C 5.335938 8.21875 4.234375 8.847656 3.40625 9.625 C 2.578125 10.402344 2 11.390625 2 12.5 C 2 12.667969 2.003906 12.835938 2.03125 13 L 2 13 L 2 21 L 2.03125 21 C 2.175781 21.90625 2.703125 22.714844 3.40625 23.375 C 4.234375 24.152344 5.335938 24.78125 6.625 25.3125 C 9.203125 26.371094 12.5625 27 16 27 C 19.4375 27 22.796875 26.371094 25.375 25.3125 C 26.664063 24.78125 27.765625 24.152344 28.59375 23.375 C 29.296875 22.714844 29.824219 21.90625 29.96875 21 L 30 21 L 30 13 L 29.96875 13 C 29.996094 12.835938 30 12.667969 30 12.5 C 30 11.390625 29.421875 10.402344 28.59375 9.625 C 27.765625 8.847656 26.664063 8.21875 25.375 7.6875 C 22.796875 6.628906 19.4375 6 16 6 Z M 16 8 C 19.191406 8 22.328125 8.601563 24.59375 9.53125 C 25.726563 9.996094 26.648438 10.558594 27.21875 11.09375 C 27.789063 11.628906 28 12.089844 28 12.5 C 28 12.910156 27.789063 13.371094 27.21875 13.90625 C 26.648438 14.441406 25.726563 15.003906 24.59375 15.46875 C 22.328125 16.398438 19.191406 17 16 17 C 12.808594 17 9.671875 16.398438 7.40625 15.46875 C 6.273438 15.003906 5.351563 14.441406 4.78125 13.90625 C 4.210938 13.371094 4 12.910156 4 12.5 C 4 12.089844 4.210938 11.628906 4.78125 11.09375 C 5.351563 10.558594 6.273438 9.996094 7.40625 9.53125 C 9.671875 8.601563 12.808594 8 16 8 Z M 16 10 C 10.644531 10 6.558594 11.695313 6.03125 12.5 C 6.558594 13.304688 10.644531 15 16 15 C 21.355469 15 25.441406 13.304688 25.96875 12.5 C 25.441406 11.695313 21.355469 10 16 10 Z M 4 15.875 C 4.734375 16.429688 5.625 16.902344 6.625 17.3125 C 9.203125 18.371094 12.5625 19 16 19 C 19.4375 19 22.796875 18.371094 25.375 17.3125 C 26.375 16.902344 27.265625 16.429688 28 15.875 L 28 20.5 C 28 20.910156 27.789063 21.371094 27.21875 21.90625 C 26.648438 22.441406 25.726563 23.003906 24.59375 23.46875 C 22.328125 24.398438 19.191406 25 16 25 C 12.808594 25 9.671875 24.398438 7.40625 23.46875 C 6.273438 23.003906 5.351563 22.441406 4.78125 21.90625 C 4.210938 21.371094 4 20.910156 4 20.5 Z M 12 20 L 12 21 L 10 21 L 10 23 L 12 23 L 12 24 L 20 24 L 20 23 L 22 23 L 22 21 L 20 21 L 20 20 Z M 16 21 C 16.550781 21 17 21.449219 17 22 C 17 22.550781 16.550781 23 16 23 C 15.449219 23 15 22.550781 15 22 C 15 21.449219 15.449219 21 16 21 Z "></path>
</g>
</svg>
