<?xml version="1.0" encoding="UTF-8"?>
<svg xmlns="http://www.w3.org/2000/svg" xmlns:xlink="http://www.w3.org/1999/xlink" viewBox="0 0 32 32" version="1.1">
<g>
<path d="M 19.34375 1.96875 L 17.9375 3.40625 L 23.125 8.59375 L 22.5625 9.1875 L 17.34375 3.96875 L 15.9375 5.40625 L 21.125 10.59375 L 20.5625 11.1875 L 15.34375 5.96875 L 13.9375 7.40625 L 19.125 12.59375 L 18.5625 13.1875 L 13.34375 7.96875 L 11.9375 9.40625 L 17.125 14.59375 L 16.5625 15.1875 L 11.34375 9.96875 L 9.9375 11.40625 L 15.125 16.59375 L 6.65625 25.09375 L 5.96875 25.78125 L 6.65625 26.5 L 9.5 29.3125 L 10.1875 30.03125 L 29.21875 11 L 29.9375 10.3125 L 29.21875 9.59375 L 26.40625 6.75 L 25.6875 6.0625 L 24.96875 6.75 L 24.5625 7.1875 Z M 25.6875 8.875 L 27.09375 10.3125 L 10.1875 27.1875 L 8.78125 25.78125 Z "></path>
</g>
</svg>
