<?xml version="1.0" encoding="UTF-8"?>
<svg xmlns="http://www.w3.org/2000/svg" xmlns:xlink="http://www.w3.org/1999/xlink" viewBox="0 0 32 32" version="1.1">
<g>
<path d="M 25.6875 6.066406 L 24.5625 7.195313 L 19.351563 1.984375 L 17.9375 3.398438 L 23.148438 8.609375 L 22.5625 9.195313 L 17.351563 3.984375 L 15.9375 5.398438 L 21.148438 10.609375 L 20.5625 11.195313 L 15.351563 5.984375 L 13.9375 7.398438 L 19.148438 12.609375 L 18.5625 13.195313 L 13.351563 7.984375 L 11.9375 9.398438 L 17.148438 14.609375 L 16.5625 15.195313 L 11.351563 9.984375 L 9.9375 11.398438 L 15.148438 16.609375 L 14.5625 17.195313 L 9.351563 11.984375 L 7.9375 13.398438 L 13.148438 18.609375 L 12.5625 19.195313 L 7.351563 13.984375 L 5.9375 15.398438 L 11.148438 20.609375 L 10.5625 21.195313 L 5.351563 15.984375 L 3.9375 17.398438 L 9.148438 22.609375 L 8.5625 23.195313 L 3.351563 17.984375 L 1.9375 19.398438 L 7.148438 24.609375 L 5.960938 25.796875 L 10.199219 30.039063 L 29.929688 10.3125 Z M 8.789063 25.796875 L 25.6875 8.898438 L 27.101563 10.3125 L 10.203125 27.210938 Z "></path>
</g>
</svg>
