<?xml version="1.0" encoding="UTF-8"?>
<svg xmlns="http://www.w3.org/2000/svg" xmlns:xlink="http://www.w3.org/1999/xlink" viewBox="0 0 32 32" version="1.1">
<g>
<path d="M 4 4 L 4 7 C 4.535156 7 4.902344 7.1875 5.34375 7.625 C 5.785156 8.0625 6.234375 8.761719 6.65625 9.6875 C 7.5 11.535156 8.25 14.175781 9.1875 16.84375 C 10.125 19.511719 11.261719 22.238281 13.09375 24.375 C 14.925781 26.511719 17.527344 28 21 28 C 23.40625 28 25.089844 27.277344 26.125 26.5 C 26.996094 25.847656 27.382813 25.21875 27.5 25 C 27.507813 24.984375 27.527344 24.945313 27.53125 24.9375 C 27.558594 24.898438 27.570313 24.855469 27.59375 24.8125 C 28.0625 24.042969 28.066406 23.074219 27.8125 22.1875 C 27.507813 21.117188 26.855469 20.042969 25.90625 19.09375 C 24.957031 18.144531 23.882813 17.492188 22.8125 17.1875 C 22.390625 17.066406 21.960938 17.046875 21.53125 17.0625 L 21.53125 17 C 21.28125 17 21.050781 17.054688 20.84375 17.125 C 20.726563 17.164063 20.605469 17.195313 20.5 17.25 C 20.222656 17.367188 19.976563 17.523438 19.75 17.75 C 19.746094 17.753906 19.753906 17.777344 19.75 17.78125 C 19.714844 17.820313 19.660156 17.835938 19.625 17.875 C 19.257813 18.191406 18.933594 18.519531 18.65625 18.71875 C 18.347656 18.941406 18.167969 19.015625 17.9375 19 C 17.707031 18.984375 17.3125 18.863281 16.6875 18.28125 C 15.425781 17.109375 13.898438 13.585938 12.0625 10.375 C 11.144531 8.769531 10.113281 7.222656 8.8125 6.03125 C 7.511719 4.839844 5.898438 4 4 4 Z M 8.1875 8.25 C 8.960938 9.132813 9.675781 10.207031 10.34375 11.375 C 12.082031 14.414063 13.332031 17.878906 15.3125 19.71875 C 16.144531 20.492188 16.984375 20.917969 17.8125 20.96875 C 18.320313 21 18.761719 20.867188 19.15625 20.6875 C 19.167969 20.730469 19.175781 20.769531 19.1875 20.8125 C 19.492188 21.882813 20.144531 22.957031 21.09375 23.90625 C 21.851563 24.664063 22.679688 25.242188 23.53125 25.59375 C 22.878906 25.828125 22.058594 26 21 26 C 18.074219 26 16.171875 24.863281 14.625 23.0625 C 13.078125 21.261719 11.96875 18.738281 11.0625 16.15625 C 10.15625 13.574219 9.453125 10.964844 8.5 8.875 C 8.402344 8.65625 8.292969 8.457031 8.1875 8.25 Z M 21.4375 19.03125 C 21.460938 19.027344 21.476563 19.035156 21.5 19.03125 C 21.679688 19.011719 21.921875 19.03125 22.25 19.125 C 22.902344 19.3125 23.761719 19.761719 24.5 20.5 C 25.238281 21.238281 25.6875 22.097656 25.875 22.75 C 26.0625 23.402344 25.96875 23.71875 25.84375 23.84375 C 25.71875 23.96875 25.402344 24.0625 24.75 23.875 C 24.097656 23.6875 23.238281 23.238281 22.5 22.5 C 21.761719 21.761719 21.3125 20.902344 21.125 20.25 C 20.984375 19.761719 20.988281 19.457031 21.0625 19.28125 C 21.195313 19.175781 21.300781 19.105469 21.375 19.0625 C 21.394531 19.058594 21.414063 19.035156 21.4375 19.03125 Z "></path>
</g>
</svg>
