<?xml version="1.0" encoding="UTF-8"?>
<svg xmlns="http://www.w3.org/2000/svg" xmlns:xlink="http://www.w3.org/1999/xlink" viewBox="0 0 32 32" version="1.1">
<g>
<path d="M 2 5 L 2 27 L 30 27 L 30 5 Z M 4 7 L 28 7 L 28 25 L 4 25 Z M 5 8 L 5 10 L 7 10 L 7 8 Z M 9 8 L 9 10 L 11 10 L 11 8 Z M 13 8 L 13 10 L 15 10 L 15 8 Z M 17 8 L 17 10 L 19 10 L 19 8 Z M 21 8 L 21 10 L 23 10 L 23 8 Z M 25 8 L 25 10 L 27 10 L 27 8 Z M 9.84375 12 L 9.71875 12.84375 L 9.21875 15.84375 L 9.03125 17 L 11.5 17 C 11.714844 17 12 17.285156 12 17.5 C 12 17.714844 11.714844 18 11.5 18 L 9 18 L 9 20 L 11.5 20 C 12.882813 20 14 18.882813 14 17.5 C 14 16.117188 12.882813 15 11.5 15 L 11.375 15 L 11.5625 14 L 14 14 L 14 12 Z M 16 14 L 16 20 L 18 20 L 18 16 L 19 16 L 19 20 L 21 20 L 21 16 L 22 16 L 22 20 L 24 20 L 24 16 C 24 15.476563 23.816406 14.941406 23.4375 14.5625 C 23.058594 14.183594 22.523438 14 22 14 L 21 14 C 20.65625 14 20.308594 14.085938 20 14.25 C 19.691406 14.085938 19.34375 14 19 14 Z M 5 22 L 5 24 L 7 24 L 7 22 Z M 9 22 L 9 24 L 11 24 L 11 22 Z M 13 22 L 13 24 L 15 24 L 15 22 Z M 17 22 L 17 24 L 19 24 L 19 22 Z M 21 22 L 21 24 L 23 24 L 23 22 Z M 25 22 L 25 24 L 27 24 L 27 22 Z "></path>
</g>
</svg>
