<?xml version="1.0" encoding="UTF-8"?>
<svg xmlns="http://www.w3.org/2000/svg" xmlns:xlink="http://www.w3.org/1999/xlink" viewBox="0 0 32 32" version="1.1">
<g>
<path d="M 5 5 L 5 27 L 27 27 L 27 5 Z M 7 7 L 25 7 L 25 8 L 7 8 Z M 7 10 L 10.90625 10 C 10.507813 11.957031 8.957031 13.507813 7 13.90625 Z M 12.90625 10 L 19.09375 10 C 19.535156 13.054688 21.945313 15.464844 25 15.90625 L 25 25 L 17 25 L 17 18 L 18 18 L 18 16 L 14 16 L 14 18 L 15 18 L 15 25 L 7 25 L 7 15.90625 C 10.054688 15.464844 12.464844 13.054688 12.90625 10 Z M 21.09375 10 L 25 10 L 25 13.90625 C 23.042969 13.507813 21.492188 11.957031 21.09375 10 Z "></path>
</g>
</svg>
