<?xml version="1.0" encoding="UTF-8"?>
<svg xmlns="http://www.w3.org/2000/svg" xmlns:xlink="http://www.w3.org/1999/xlink" viewBox="0 0 32 32" version="1.1">
<g>
<path d="M 4 5 L 4 6.5625 C 2.882813 7.148438 2 8.160156 2 9.5 C 2 10.929688 2.886719 12.148438 4.125 12.6875 C 5.101563 22.558594 9.296875 28 16 28 C 22.773438 28 26.765625 22.855469 27.875 12.71875 C 29.121094 12.183594 30 10.933594 30 9.5 C 30 8.160156 29.117188 7.148438 28 6.5625 L 28 5 L 26 5 L 26 7.875 L 26.8125 8.03125 C 27.496094 8.171875 28 8.765625 28 9.5 C 28 10.246094 27.480469 10.839844 26.78125 10.96875 C 24.628906 11.105469 23.078125 14.035156 21.5625 16.875 C 20.988281 17.949219 20.125 19.546875 19.6875 19.90625 C 19.179688 19.847656 18.664063 19.429688 18.15625 19.03125 C 17.511719 18.523438 16.84375 18 16 18 C 15.15625 18 14.488281 18.523438 13.84375 19.03125 C 13.335938 19.429688 12.820313 19.847656 12.3125 19.90625 C 11.875 19.546875 11.011719 17.953125 10.4375 16.875 C 8.921875 14.039063 7.359375 11.105469 5.21875 10.96875 C 4.519531 10.839844 4 10.246094 4 9.5 C 4 8.765625 4.503906 8.171875 5.1875 8.03125 L 6 7.875 L 6 5 Z M 11.5 6 C 10.671875 6 10 6.671875 10 7.5 C 10 8.328125 10.671875 9 11.5 9 C 12.328125 9 13 8.328125 13 7.5 C 13 6.671875 12.328125 6 11.5 6 Z M 20.5 6 C 19.671875 6 19 6.671875 19 7.5 C 19 8.328125 19.671875 9 20.5 9 C 21.328125 9 22 8.328125 22 7.5 C 22 6.671875 21.328125 6 20.5 6 Z M 16 13.96875 C 15.164063 13.96875 14.289063 14.054688 13.5 14.1875 C 12.710938 14.320313 12.074219 14.417969 11.5 14.75 L 12.5 16.5 C 12.539063 16.476563 13.136719 16.269531 13.8125 16.15625 C 14.488281 16.042969 15.304688 15.96875 16 15.96875 C 16.707031 15.96875 17.511719 16.042969 18.1875 16.15625 C 18.863281 16.269531 19.472656 16.46875 19.53125 16.5 L 20.46875 14.75 C 19.910156 14.441406 19.316406 14.320313 18.53125 14.1875 C 17.746094 14.054688 16.847656 13.96875 16 13.96875 Z "></path>
</g>
</svg>
