<?xml version="1.0" encoding="UTF-8"?>
<svg xmlns="http://www.w3.org/2000/svg" xmlns:xlink="http://www.w3.org/1999/xlink" viewBox="0 0 32 32" version="1.1">
<g>
<path d="M 4 5 L 4 27 L 10.46875 27 L 12.25 25.21875 C 12.292969 25.175781 12.363281 25.101563 12.46875 25 L 6 25 L 6 11 L 26 11 L 26 21.375 C 26.710938 21.667969 27.382813 22.011719 28 22.375 L 28 5 Z M 6 7 L 26 7 L 26 9 L 6 9 Z M 22 22 C 19.675781 22 17.523438 23.101563 15.9375 24.15625 C 14.351563 25.210938 13.28125 26.28125 13.28125 26.28125 L 12.59375 27 L 13.28125 27.71875 C 13.28125 27.71875 14.351563 28.789063 15.9375 29.84375 C 17.523438 30.898438 19.671875 32 22 32 C 24.328125 32 26.476563 30.898438 28.0625 29.84375 C 29.648438 28.789063 30.71875 27.71875 30.71875 27.71875 L 31.40625 27 L 30.71875 26.28125 C 30.71875 26.28125 29.648438 25.210938 28.0625 24.15625 C 26.476563 23.101563 24.324219 22 22 22 Z M 22 24 C 20.34375 24 19 25.34375 19 27 C 19 28.65625 20.34375 30 22 30 C 23.65625 30 25 28.65625 25 27 C 25 26.695313 24.929688 26.402344 24.84375 26.125 C 24.605469 26.636719 24.101563 27 23.5 27 C 22.671875 27 22 26.328125 22 25.5 C 22 24.898438 22.363281 24.394531 22.875 24.15625 C 22.738281 24.113281 22.582031 24.054688 22.4375 24.03125 C 23.976563 24.167969 25.644531 24.984375 26.9375 25.84375 C 27.808594 26.421875 27.972656 26.640625 28.375 27 C 27.972656 27.359375 27.808594 27.578125 26.9375 28.15625 C 25.519531 29.101563 23.660156 30 22 30 C 20.339844 30 18.480469 29.101563 17.0625 28.15625 C 16.191406 27.578125 16.027344 27.359375 15.625 27 C 16.027344 26.640625 16.191406 26.421875 17.0625 25.84375 C 18.480469 24.898438 20.34375 24 22 24 Z "></path>
</g>
</svg>
