<?xml version="1.0" encoding="UTF-8"?>
<svg xmlns="http://www.w3.org/2000/svg" xmlns:xlink="http://www.w3.org/1999/xlink" viewBox="0 0 32 32" version="1.1">
<g>
<path d="M 3 3 L 3 19 L 6.0625 19 C 4.390625 20.234375 3.28125 21.28125 3.28125 21.28125 L 2.59375 22 L 3.28125 22.71875 C 3.28125 22.71875 4.851563 24.289063 7.1875 25.84375 C 9.523438 27.398438 12.675781 29 16 29 C 19.324219 29 22.476563 27.398438 24.8125 25.84375 C 27.148438 24.289063 28.71875 22.71875 28.71875 22.71875 L 29.40625 22 L 28.71875 21.28125 C 28.71875 21.28125 27.609375 20.234375 25.9375 19 L 29 19 L 29 3 Z M 5 5 L 27 5 L 27 17 L 22.875 17 C 20.855469 15.894531 18.492188 15 16 15 C 13.507813 15 11.144531 15.894531 9.125 17 L 5 17 Z M 10 9 C 8.894531 9 8 9.894531 8 11 C 8 12.105469 8.894531 13 10 13 C 11.105469 13 12 12.105469 12 11 C 12 9.894531 11.105469 9 10 9 Z M 16 9 C 14.894531 9 14 9.894531 14 11 C 14 12.105469 14.894531 13 16 13 C 17.105469 13 18 12.105469 18 11 C 18 9.894531 17.105469 9 16 9 Z M 22 9 C 20.894531 9 20 9.894531 20 11 C 20 12.105469 20.894531 13 22 13 C 23.105469 13 24 12.105469 24 11 C 24 9.894531 23.105469 9 22 9 Z M 16 17 C 18.652344 17 21.519531 18.398438 23.6875 19.84375 C 25.3125 20.925781 25.867188 21.527344 26.375 22 C 25.867188 22.472656 25.308594 23.074219 23.6875 24.15625 C 21.519531 25.601563 18.65625 27 16 27 C 13.34375 27 10.480469 25.601563 8.3125 24.15625 C 6.691406 23.074219 6.132813 22.472656 5.625 22 C 6.132813 21.527344 6.6875 20.925781 8.3125 19.84375 C 10.480469 18.398438 13.347656 17 16 17 Z M 16 18 C 13.789063 18 12 19.789063 12 22 C 12 24.210938 13.789063 26 16 26 C 18.210938 26 20 24.210938 20 22 C 20 21.59375 19.925781 21.210938 19.8125 20.84375 C 19.496094 21.527344 18.804688 22 18 22 C 16.894531 22 16 21.105469 16 20 C 16 19.195313 16.472656 18.503906 17.15625 18.1875 C 16.789063 18.074219 16.40625 18 16 18 Z "></path>
</g>
</svg>
