<?xml version="1.0" encoding="UTF-8"?>
<svg xmlns="http://www.w3.org/2000/svg" xmlns:xlink="http://www.w3.org/1999/xlink" viewBox="0 0 32 32" version="1.1">
<g>
<path d="M 7 4 L 7 14.875 C 7 15.183594 6.835938 15.457031 6.5625 15.59375 C 5.613281 16.070313 5 17.0625 5 18.125 L 5 24 C 5 25.09375 5.90625 26 7 26 L 7.375 26 C 7.957031 27.035156 9.402344 29 12 29 C 13.445313 29 14.632813 28.550781 15.53125 27.875 C 16.429688 27.199219 17.039063 26.34375 17.5625 25.5625 C 18.085938 24.78125 18.535156 24.042969 18.9375 23.59375 C 19.339844 23.144531 19.582031 23 20 23 C 20.148438 23 20.46875 23.085938 20.5625 23.15625 C 21.414063 23.8125 22.542969 24.144531 23.71875 23.9375 C 25.355469 23.648438 26.652344 22.355469 26.9375 20.71875 C 27.371094 18.238281 25.433594 16 23 16 L 15.5 16 C 15.1875 15.589844 15 15.117188 15 14.59375 L 15 11 C 15 7.144531 11.855469 4 8 4 Z M 9 6.21875 C 11.265625 6.695313 13 8.585938 13 11 L 13 14.59375 C 13 15.585938 13.394531 16.507813 14 17.28125 L 14 24 L 7 24 L 7 18.125 C 7 17.816406 7.164063 17.542969 7.4375 17.40625 C 8.386719 16.929688 9 15.9375 9 14.875 Z M 16 18 L 23 18 C 24.238281 18 25.199219 19.0625 24.96875 20.375 C 24.832031 21.148438 24.152344 21.832031 23.375 21.96875 C 22.753906 22.078125 22.207031 21.925781 21.78125 21.59375 C 21.195313 21.140625 20.5625 21 20 21 C 18.917969 21 18.039063 21.605469 17.4375 22.28125 C 16.859375 22.925781 16.425781 23.652344 15.96875 24.34375 C 15.988281 24.234375 16 24.117188 16 24 Z M 23 19 C 22.449219 19 22 19.449219 22 20 C 22 20.550781 22.449219 21 23 21 C 23.550781 21 24 20.550781 24 20 C 24 19.449219 23.550781 19 23 19 Z M 9 21 C 8.449219 21 8 21.449219 8 22 C 8 22.550781 8.449219 23 9 23 C 9.550781 23 10 22.550781 10 22 C 10 21.449219 9.550781 21 9 21 Z M 14.75 25.875 C 14.609375 26.011719 14.460938 26.136719 14.3125 26.25 C 13.710938 26.699219 13.042969 27 12 27 C 11.066406 27 10.375 26.519531 9.875 26 L 14 26 C 14.257813 26 14.519531 25.96875 14.75 25.875 Z "></path>
</g>
</svg>
