<?xml version="1.0" encoding="UTF-8"?>
<svg xmlns="http://www.w3.org/2000/svg" xmlns:xlink="http://www.w3.org/1999/xlink" viewBox="0 0 32 32" version="1.1">
<g>
<path d="M 24 3 C 21.976563 3 20.21875 4.203125 19.4375 5.9375 L 19.15625 6.59375 L 19.65625 7.0625 L 24.9375 12.34375 L 25.40625 12.84375 L 26.0625 12.5625 C 27.796875 11.78125 29 10.023438 29 8 C 29 5.25 26.75 3 24 3 Z M 24 5 C 25.667969 5 27 6.332031 27 8 C 27 8.988281 26.449219 9.769531 25.71875 10.3125 L 21.6875 6.28125 C 22.230469 5.550781 23.011719 5 24 5 Z M 18.21875 7.0625 L 3.09375 13.3125 L 3 13.875 C 2.980469 14.023438 2.628906 17.394531 5.03125 20.375 C 5.097656 21.257813 5.421875 23.507813 7.0625 25.15625 C 8.207031 26.304688 9.722656 26.921875 11.59375 27 C 13.53125 28.789063 16.210938 29.03125 17.4375 29.03125 C 17.816406 29.03125 18.054688 29.003906 18.09375 29 L 18.6875 28.9375 L 24.9375 13.78125 L 23.40625 12.25 L 21.75 16.3125 L 20.78125 15.34375 L 23.15625 11.96875 L 21.71875 10.5625 L 19.34375 13.90625 L 18.09375 12.65625 L 21.4375 10.28125 L 20 8.84375 L 16.65625 11.21875 L 15.6875 10.25 L 19.75 8.59375 Z M 13.65625 11.09375 L 14.96875 12.40625 L 6.21875 18.625 C 5.195313 17.09375 4.988281 15.503906 4.96875 14.6875 Z M 16.40625 13.84375 L 18.15625 15.59375 L 11.5 24.96875 C 7.851563 24.714844 7.160156 21.746094 7.03125 20.5 Z M 19.59375 17.03125 L 20.90625 18.34375 L 17.3125 27.03125 C 16.417969 27.015625 14.6875 26.832031 13.34375 25.84375 Z "></path>
</g>
</svg>
