<?xml version="1.0" encoding="UTF-8"?>
<svg xmlns="http://www.w3.org/2000/svg" xmlns:xlink="http://www.w3.org/1999/xlink" viewBox="0 0 32 32" version="1.1">
<g>
<path d="M 17.21875 2.03125 L 16.65625 3.9375 C 20.546875 5.417969 22.59375 6.972656 23.6875 8.5625 C 24.78125 10.152344 25 11.867188 25 14 C 25 17.878906 21.878906 21 18 21 C 16.109375 21 14.539063 20.101563 13.21875 18.78125 L 12.5 18.09375 L 11.78125 18.78125 L 10.8125 19.75 L 10.03125 19 L 9.3125 18.28125 L 2 25.59375 L 6.40625 30 L 7.125 29.3125 L 13.0625 23.375 C 14.472656 24.617188 16.25 25.71875 19.09375 25.71875 C 25.109375 25.71875 30 20.828125 30 14.8125 C 30 11.804688 28.785156 9.066406 26.8125 7.09375 C 23.128906 3.410156 17.714844 2.164063 17.40625 2.09375 C 17.402344 2.09375 17.347656 2.0625 17.34375 2.0625 C 17.339844 2.0625 17.21875 2.03125 17.21875 2.03125 Z M 26.4375 10.03125 C 27.347656 11.425781 28 13.015625 28 14.8125 C 28 19.746094 24.027344 23.71875 19.09375 23.71875 C 17.082031 23.71875 15.886719 23.082031 14.84375 22.25 C 15.808594 22.671875 16.851563 23 18 23 C 22.957031 23 27 18.957031 27 14 C 27 12.648438 26.804688 11.324219 26.4375 10.03125 Z M 9.3125 21.09375 L 10.90625 22.6875 L 6.40625 27.1875 L 4.8125 25.59375 Z "></path>
</g>
</svg>
