<?xml version="1.0" encoding="UTF-8"?>
<svg xmlns="http://www.w3.org/2000/svg" xmlns:xlink="http://www.w3.org/1999/xlink" viewBox="0 0 32 32" version="1.1">
<g>
<path d="M 7 3 L 7 29 L 25 29 L 25 3 Z M 9 5 L 23 5 L 23 27 L 9 27 Z M 11 8 L 11 10 L 13 10 L 13 8 Z M 15 8 L 15 10 L 21 10 L 21 8 Z M 12 11 C 11.449219 11 11 11.449219 11 12 C 11 12.550781 11.449219 13 12 13 C 12.550781 13 13 12.550781 13 12 C 13 11.449219 12.550781 11 12 11 Z M 15 11 L 15 13 L 21 13 L 21 11 Z M 11 16 L 11 18 L 13 18 L 13 16 Z M 15 16 L 15 18 L 21 18 L 21 16 Z M 12 19 C 11.449219 19 11 19.449219 11 20 C 11 20.550781 11.449219 21 12 21 C 12.550781 21 13 20.550781 13 20 C 13 19.449219 12.550781 19 12 19 Z M 15 19 L 15 21 L 21 21 L 21 19 Z M 11 22 L 11 24 L 13 24 L 13 22 Z M 15 22 L 15 24 L 21 24 L 21 22 Z "></path>
</g>
</svg>
