<?xml version="1.0" encoding="UTF-8"?>
<svg xmlns="http://www.w3.org/2000/svg" xmlns:xlink="http://www.w3.org/1999/xlink" viewBox="0 0 32 32" version="1.1">
<g>
<path d="M 4 5 L 4 6.5625 C 2.882813 7.148438 2 8.160156 2 9.5 C 2 10.894531 2.839844 12.097656 4.03125 12.65625 C 3.898438 17.898438 5.871094 21.265625 6.9375 22.6875 C 8.449219 24.699219 10.402344 26 11.9375 26 L 12.9375 26 L 12.9375 24.4375 C 13.914063 24.785156 14.929688 25 16 25 C 17.035156 25 18.046875 24.804688 19 24.46875 L 19 26 L 20 26 C 21.535156 26 23.488281 24.699219 25 22.6875 C 26.066406 21.269531 28.03125 17.914063 27.90625 12.6875 C 29.132813 12.140625 30 10.917969 30 9.5 C 30 8.160156 29.117188 7.148438 28 6.5625 L 28 5 L 26 5 L 26 7 L 25 7 C 25 7.109375 24.863281 18 20 18 L 19 18 L 19 22.3125 C 18.039063 22.75 17.042969 23 16 23 C 14.941406 23 13.914063 22.734375 12.9375 22.28125 L 12.9375 18 L 11.9375 18 C 7.074219 18 6.9375 7.109375 6.9375 7 L 6 7 L 6 5 Z M 11.5 6 C 10.671875 6 10 6.671875 10 7.5 C 10 8.328125 10.671875 9 11.5 9 C 12.328125 9 13 8.328125 13 7.5 C 13 6.671875 12.328125 6 11.5 6 Z M 20.5 6 C 19.671875 6 19 6.671875 19 7.5 C 19 8.328125 19.671875 9 20.5 9 C 21.328125 9 22 8.328125 22 7.5 C 22 6.671875 21.328125 6 20.5 6 Z M 27.34375 8.25 C 27.742188 8.515625 28 8.972656 28 9.5 C 28 9.820313 27.882813 10.105469 27.71875 10.34375 C 27.628906 9.675781 27.507813 8.96875 27.34375 8.25 Z M 4.59375 8.3125 C 4.445313 8.976563 4.304688 9.628906 4.21875 10.25 C 4.089844 10.03125 4 9.78125 4 9.5 C 4 9.007813 4.238281 8.585938 4.59375 8.3125 Z M 16 13.96875 C 15.164063 13.96875 14.289063 14.054688 13.5 14.1875 C 12.710938 14.320313 12.074219 14.417969 11.5 14.75 L 12.5 16.5 C 12.539063 16.476563 13.136719 16.269531 13.8125 16.15625 C 14.488281 16.042969 15.304688 15.96875 16 15.96875 C 16.707031 15.96875 17.511719 16.042969 18.1875 16.15625 C 18.863281 16.269531 19.472656 16.46875 19.53125 16.5 L 20.46875 14.75 C 19.910156 14.441406 19.316406 14.320313 18.53125 14.1875 C 17.746094 14.054688 16.847656 13.96875 16 13.96875 Z "></path>
</g>
</svg>
