<?xml version="1.0" encoding="UTF-8"?>
<svg xmlns="http://www.w3.org/2000/svg" xmlns:xlink="http://www.w3.org/1999/xlink" viewBox="0 0 32 32" version="1.1">
<g>
<path d="M 21 3 C 20.207031 3 16.304688 3.167969 12.34375 4.03125 C 10.363281 4.460938 8.40625 5.066406 6.84375 5.96875 C 5.28125 6.871094 4 8.210938 4 10 C 4 11.578125 4.652344 12.859375 5.5625 13.71875 C 6.472656 14.578125 7.578125 15.0625 8.625 15.46875 C 9.671875 15.875 10.679688 16.195313 11.3125 16.5 C 11.628906 16.652344 11.851563 16.816406 11.9375 16.90625 C 12.023438 16.996094 12 16.953125 12 17 C 12 17.160156 11.855469 17.417969 11.3125 17.8125 C 10.769531 18.207031 9.9375 18.628906 9.0625 19.0625 C 8.1875 19.496094 7.269531 19.925781 6.5 20.5 C 5.730469 21.074219 5 21.902344 5 23 C 5 23.976563 5.507813 24.804688 6.125 25.40625 C 6.742188 26.007813 7.492188 26.457031 8.25 26.8125 C 9.761719 27.519531 11.308594 27.863281 11.78125 27.96875 L 12.21875 26.03125 C 11.792969 25.9375 10.355469 25.589844 9.09375 25 C 8.464844 24.703125 7.867188 24.328125 7.5 23.96875 C 7.132813 23.609375 7 23.324219 7 23 C 7 22.796875 7.144531 22.527344 7.6875 22.125 C 8.230469 21.722656 9.0625 21.304688 9.9375 20.875 C 10.8125 20.445313 11.730469 19.996094 12.5 19.4375 C 13.269531 18.878906 14 18.089844 14 17 C 14 16.421875 13.726563 15.867188 13.375 15.5 C 13.023438 15.132813 12.621094 14.894531 12.1875 14.6875 C 11.320313 14.273438 10.328125 13.996094 9.375 13.625 C 8.421875 13.253906 7.527344 12.808594 6.9375 12.25 C 6.347656 11.691406 6 11.074219 6 10 C 6 9.140625 6.59375 8.410156 7.84375 7.6875 C 9.09375 6.964844 10.882813 6.40625 12.75 6 C 16.488281 5.1875 20.59375 5 21 5 Z M 26 12.03125 C 25.234375 12.03125 24.484375 12.328125 23.90625 12.90625 L 14 22.78125 L 13.78125 23 L 13.71875 23.3125 L 13.03125 26.8125 L 12.71875 28.28125 L 14.1875 27.96875 L 17.6875 27.28125 L 18 27.21875 L 18.21875 27 L 28.09375 17.09375 C 29.246094 15.941406 29.246094 14.058594 28.09375 12.90625 C 27.515625 12.328125 26.765625 12.03125 26 12.03125 Z M 26 13.96875 C 26.234375 13.96875 26.464844 14.089844 26.6875 14.3125 C 27.132813 14.757813 27.132813 15.242188 26.6875 15.6875 L 17 25.375 L 15.28125 25.71875 L 15.625 24 L 25.3125 14.3125 C 25.535156 14.089844 25.765625 13.96875 26 13.96875 Z "></path>
</g>
</svg>
