<?xml version="1.0" encoding="UTF-8"?>
<svg xmlns="http://www.w3.org/2000/svg" xmlns:xlink="http://www.w3.org/1999/xlink" viewBox="0 0 32 32" version="1.1">
<g>
<path d="M 30 3.0625 L 28.21875 5.375 C 28.21875 5.375 26.742188 7.292969 24.40625 9.21875 C 22.070313 11.144531 18.894531 13 15.71875 13 L 12.09375 13 C 11.109375 11.503906 9.417969 10.5 7.5 10.5 C 4.472656 10.5 2 12.972656 2 16 C 2 19.027344 4.472656 21.5 7.5 21.5 C 9.417969 21.5 11.109375 20.496094 12.09375 19 L 15.71875 19 C 18.847656 19 22.027344 20.855469 24.375 22.78125 C 26.722656 24.707031 28.21875 26.625 28.21875 26.625 L 30 28.90625 Z M 28 8.40625 L 28 23.59375 C 27.28125 22.792969 27.070313 22.402344 25.625 21.21875 C 23.09375 19.144531 19.609375 17 15.71875 17 L 12.90625 17 C 12.96875 16.671875 13 16.34375 13 16 C 13 15.65625 12.96875 15.328125 12.90625 15 L 15.71875 15 C 19.644531 15 23.132813 12.855469 25.65625 10.78125 C 27.09375 9.597656 27.285156 9.207031 28 8.40625 Z M 7.5 12.5 C 9.445313 12.5 11 14.054688 11 16 C 11 17.945313 9.445313 19.5 7.5 19.5 C 5.554688 19.5 4 17.945313 4 16 C 4 14.054688 5.554688 12.5 7.5 12.5 Z "></path>
</g>
</svg>
