<?xml version="1.0" encoding="UTF-8"?>
<svg xmlns="http://www.w3.org/2000/svg" xmlns:xlink="http://www.w3.org/1999/xlink" viewBox="0 0 32 32" version="1.1">
<g>
<path d="M 4 10 L 4 11.5625 C 2.882813 12.148438 2 13.160156 2 14.5 C 2 15.9375 2.96875 17.027344 4.21875 17.5625 C 5.003906 23.425781 9.929688 28 16 28 C 22.070313 28 26.996094 23.425781 27.78125 17.5625 C 29.03125 17.027344 30 15.9375 30 14.5 C 30 13.160156 29.117188 12.148438 28 11.5625 L 28 10 L 26 10 L 26 12.875 L 26.8125 13.03125 C 27.496094 13.171875 28 13.765625 28 14.5 C 28 15.246094 27.480469 15.839844 26.78125 15.96875 L 26.03125 16.09375 L 25.96875 16.875 C 25.527344 21.996094 21.242188 26 16 26 C 10.757813 26 6.472656 21.996094 6.03125 16.875 L 5.96875 16.09375 L 5.21875 15.96875 C 4.519531 15.839844 4 15.246094 4 14.5 C 4 13.761719 4.503906 13.171875 5.1875 13.03125 L 6 12.875 L 6 10 Z M 11.5 12 C 10.671875 12 10 12.671875 10 13.5 C 10 14.328125 10.671875 15 11.5 15 C 12.328125 15 13 14.328125 13 13.5 C 13 12.671875 12.328125 12 11.5 12 Z M 20.5 12 C 19.671875 12 19 12.671875 19 13.5 C 19 14.328125 19.671875 15 20.5 15 C 21.328125 15 22 14.328125 22 13.5 C 22 12.671875 21.328125 12 20.5 12 Z M 11.40625 16.90625 L 10.59375 18.75 L 11.90625 19.3125 L 14.4375 18.21875 Z M 20.59375 16.90625 L 10.59375 21.25 L 11.40625 23.09375 L 21.40625 18.75 Z M 20.25 20.75 L 17.75 21.84375 L 20.59375 23.09375 L 21.40625 21.25 Z "></path>
</g>
</svg>
