<?xml version="1.0"?>
<svg xmlns="http://www.w3.org/2000/svg" viewBox="0 0 32 32">
    <path d="M 20 2 L 16 6 L 14 6 L 14 10 L 16 10 L 20 14 L 20 2 z M 23.703125 4.2890625 L 22.296875 5.7109375 L 24.607422 8 L 22.296875 10.289062 L 23.703125 11.710938 L 26.027344 9.4082031 L 28.351562 11.710938 L 29.759766 10.289062 L 27.449219 8 L 29.759766 5.7109375 L 28.351562 4.2890625 L 26.027344 6.5917969 L 23.703125 4.2890625 z M 6.9394531 7.0585938 C 6.4237436 7.0585938 5.9090579 7.2482776 5.5332031 7.6269531 C 5.5321231 7.6280431 5.5303769 7.6278193 5.5292969 7.6289062 L 2.9316406 10.220703 L 2.9316406 10.222656 C 2.1478551 11.006442 1.8755756 12.141773 2.1777344 13.203125 L 2.1875 13.238281 L 2.2011719 13.273438 C 2.9286105 15.253859 4.6781386 19.288931 8.2441406 22.748047 C 11.764017 26.167445 15.63445 28.003853 17.65625 28.751953 C 18.758455 29.217157 20.041897 28.883049 20.802734 27.974609 L 20.744141 28.039062 L 23.345703 25.4375 C 24.100218 24.682986 24.100218 23.379514 23.345703 22.625 L 20.150391 19.328125 L 20.142578 19.320312 C 19.388266 18.57536 18.088297 18.57536 17.333984 19.320312 L 17.332031 19.322266 L 15.751953 20.904297 C 15.098845 20.577827 13.803924 19.884002 12.544922 18.625 C 11.284675 17.364753 10.591255 16.06797 10.265625 15.416016 L 11.847656 13.837891 L 11.849609 13.835938 C 12.142838 13.539025 12.228628 13.129866 12.291016 12.730469 L 13.605469 12.730469 L 11.835938 11.011719 L 8.3496094 7.6289062 C 7.9734821 7.2480538 7.4566429 7.0585938 6.9394531 7.0585938 z M 6.9394531 9.046875 L 10.392578 12.398438 L 10.425781 12.431641 L 7.8476562 15.003906 L 8.1191406 15.628906 C 8.1191406 15.628906 9.159594 18.067797 11.130859 20.039062 C 13.102125 22.010328 15.541016 23.050781 15.541016 23.050781 L 16.166016 23.322266 L 18.738281 20.742188 L 21.923828 24.03125 L 19.298828 26.65625 L 19.269531 26.689453 C 19.032974 26.971903 18.732974 27.041782 18.429688 26.912109 L 18.40625 26.902344 L 18.382812 26.894531 C 16.601244 26.238411 12.897776 24.482419 9.6367188 21.314453 L 9.6367188 21.3125 C 6.4205519 18.192733 4.7854044 14.480893 4.1054688 12.640625 C 4.0168187 12.305146 4.1324238 11.849998 4.3457031 11.636719 L 6.9394531 9.046875 z" font-weight="400" font-family="sans-serif" white-space="normal" overflow="visible"></path>
</svg>
