<?xml version="1.0" encoding="UTF-8"?>
<svg xmlns="http://www.w3.org/2000/svg" xmlns:xlink="http://www.w3.org/1999/xlink" viewBox="0 0 32 32" version="1.1">
<g>
<path d="M 8 7 C 6.355469 7 5 8.355469 5 10 L 5 22 C 5 23.644531 6.355469 25 8 25 L 24 25 C 25.644531 25 27 23.644531 27 22 L 27 10 C 27 8.355469 25.644531 7 24 7 Z M 8 9 L 24 9 C 24.554688 9 25 9.445313 25 10 L 25 13 L 21 13 C 21 12.445313 21.445313 12 22 12 L 22 10 C 20.355469 10 19 11.355469 19 13 L 19 18.375 C 17.835938 18.945313 17 20.121094 17 21.5 C 17 22.046875 17.148438 22.539063 17.375 23 L 14.625 23 C 14.851563 22.539063 15 22.046875 15 21.5 C 15 20.121094 14.164063 18.945313 13 18.375 L 13 13 C 13 11.355469 11.644531 10 10 10 L 10 12 C 10.554688 12 11 12.445313 11 13 L 7 13 L 7 10 C 7 9.445313 7.445313 9 8 9 Z M 7 15 L 11 15 L 11 18 L 7 18 Z M 21 15 L 25 15 L 25 18 L 21 18 Z M 7 20 L 11.5 20 C 12.375 20 13 20.625 13 21.5 C 13 22.375 12.375 23 11.5 23 L 8 23 C 7.445313 23 7 22.554688 7 22 Z M 20.5 20 L 25 20 L 25 22 C 25 22.554688 24.554688 23 24 23 L 20.5 23 C 19.625 23 19 22.375 19 21.5 C 19 20.625 19.625 20 20.5 20 Z "></path>
</g>
</svg>
