<?xml version="1.0" encoding="UTF-8"?>
<svg xmlns="http://www.w3.org/2000/svg" xmlns:xlink="http://www.w3.org/1999/xlink" viewBox="0 0 32 32" version="1.1">
<g>
<path d="M 5 5 L 5 27 L 7 27 L 7 17 L 16.28125 17 C 16.960938 19.019531 17.628906 21.027344 18.40625 22.625 C 18.839844 23.515625 19.289063 24.296875 19.84375 24.90625 C 20.398438 25.515625 21.125 26 22 26 C 23.375 26 24.480469 25.171875 25.15625 24.15625 C 25.832031 23.140625 26.203125 21.914063 26.46875 20.71875 C 26.816406 19.144531 26.929688 17.871094 26.96875 17 L 27 17 L 27 15 L 17.6875 15 C 17.011719 12.980469 16.328125 10.976563 15.5625 9.375 C 15.136719 8.484375 14.671875 7.703125 14.125 7.09375 C 13.578125 6.484375 12.871094 6 12 6 C 10.636719 6 9.546875 6.832031 8.875 7.84375 C 8.203125 8.855469 7.832031 10.089844 7.5625 11.28125 C 7.207031 12.855469 7.109375 14.125 7.0625 15 L 7 15 L 7 5 Z M 12 8 C 12.105469 8 12.320313 8.0625 12.65625 8.4375 C 12.992188 8.8125 13.367188 9.453125 13.75 10.25 C 14.359375 11.527344 14.988281 13.226563 15.59375 15 L 9.03125 15 C 9.078125 14.179688 9.199219 13.046875 9.5 11.71875 C 9.738281 10.660156 10.113281 9.644531 10.5625 8.96875 C 11.011719 8.292969 11.402344 8 12 8 Z M 18.34375 17 L 24.96875 17 C 24.929688 17.820313 24.824219 18.953125 24.53125 20.28125 C 24.296875 21.335938 23.917969 22.359375 23.46875 23.03125 C 23.019531 23.703125 22.628906 24 22 24 C 21.875 24 21.652344 23.9375 21.3125 23.5625 C 20.972656 23.1875 20.574219 22.546875 20.1875 21.75 C 19.570313 20.476563 18.949219 18.773438 18.34375 17 Z "></path>
</g>
</svg>
