<?xml version="1.0" encoding="UTF-8"?>
<svg xmlns="http://www.w3.org/2000/svg" xmlns:xlink="http://www.w3.org/1999/xlink" viewBox="0 0 32 32" version="1.1">
<g>
<path d="M 4 6 L 4 8 L 26 8 L 26 24 L 12 24 L 12 26 L 30 26 L 30 24 L 28 24 L 28 6 Z M 8 9 C 5.800781 9 4 10.800781 4 13 C 4 15.199219 5.800781 17 8 17 C 10.195313 17 12 15.199219 12 13 C 12 10.800781 10.195313 9 8 9 Z M 18 10 L 18 13.09375 C 17.84375 13.039063 17.671875 13 17.5 13 C 16.671875 13 16 13.671875 16 14.5 C 16 15.328125 16.671875 16 17.5 16 C 18.328125 16 19 15.328125 19 14.5 L 19 12 C 20.136719 12 21 12.875 21 12.875 L 21 11 C 21 11 20.082031 10 18 10 Z M 8 11 C 9.113281 11 10 11.882813 10 13 C 10 14.121094 9.113281 15 8 15 C 6.878906 15 6 14.121094 6 13 C 6 11.882813 6.878906 11 8 11 Z M 4 18 L 4 26 L 6 26 L 6 20 L 9 20 L 9 26 L 11 26 L 11 20.65625 L 13.0625 21.75 C 13.648438 22.058594 14.355469 22.058594 14.9375 21.75 L 18.46875 19.875 L 17.53125 18.125 L 14 19.96875 L 10.90625 18.34375 C 10.476563 18.117188 9.988281 18 9.5 18 Z "></path>
</g>
</svg>
