<?xml version="1.0" encoding="UTF-8"?>
<svg xmlns="http://www.w3.org/2000/svg" xmlns:xlink="http://www.w3.org/1999/xlink" viewBox="0 0 32 32" version="1.1">
<g>
<path d="M 24.40625 3.03125 C 24.011719 3.0625 23.609375 3.175781 23.28125 3.34375 C 22.625 3.683594 22.140625 4.183594 21.65625 4.75 C 20.6875 5.878906 19.78125 7.277344 18.625 8.4375 C 17.148438 9.921875 7.035156 20.054688 6.21875 20.875 C 5.222656 21.875 4.136719 22.78125 3.46875 23.96875 C 3.132813 24.5625 2.914063 25.277344 3.03125 26.03125 C 3.148438 26.785156 3.566406 27.5 4.21875 28.15625 C 6.507813 30.457031 10.371094 30.671875 12.6875 28.34375 C 13.75 27.277344 24.480469 16.496094 26.5625 14.40625 C 28.824219 12.136719 29.289063 9.523438 28.8125 7.4375 C 28.335938 5.351563 27.121094 3.753906 25.59375 3.1875 C 25.203125 3.042969 24.800781 3 24.40625 3.03125 Z M 24.5625 5 C 24.664063 4.996094 24.753906 5.007813 24.90625 5.0625 C 25.441406 5.261719 26.535156 6.390625 26.875 7.875 C 27.214844 9.359375 26.964844 11.152344 25.125 13 C 23.046875 15.089844 12.308594 25.875 11.25 26.9375 C 9.773438 28.417969 7.167969 28.296875 5.625 26.75 C 5.171875 26.292969 5.035156 25.980469 5 25.75 C 4.964844 25.519531 5.03125 25.304688 5.21875 24.96875 C 5.59375 24.300781 6.59375 23.378906 7.65625 22.3125 C 8.476563 21.488281 18.554688 11.324219 20.03125 9.84375 C 21.378906 8.488281 22.371094 6.984375 23.1875 6.03125 C 23.597656 5.554688 23.957031 5.230469 24.21875 5.09375 C 24.351563 5.027344 24.460938 5.003906 24.5625 5 Z M 23 10 C 22.445313 10 22 10.445313 22 11 C 22 11.554688 22.445313 12 23 12 C 23.554688 12 24 11.554688 24 11 C 24 10.445313 23.554688 10 23 10 Z M 20 13 C 19.445313 13 19 13.445313 19 14 C 19 14.554688 19.445313 15 20 15 C 20.554688 15 21 14.554688 21 14 C 21 13.445313 20.554688 13 20 13 Z M 13 20 C 12.445313 20 12 20.445313 12 21 C 12 21.554688 12.445313 22 13 22 C 13.554688 22 14 21.554688 14 21 C 14 20.445313 13.554688 20 13 20 Z M 10 23 C 9.445313 23 9 23.445313 9 24 C 9 24.554688 9.445313 25 10 25 C 10.554688 25 11 24.554688 11 24 C 11 23.445313 10.554688 23 10 23 Z "></path>
</g>
</svg>
