<?xml version="1.0" encoding="UTF-8"?>
<svg xmlns="http://www.w3.org/2000/svg" xmlns:xlink="http://www.w3.org/1999/xlink" viewBox="0 0 32 32" version="1.1">
<g>
<path d="M 23 3 C 21.460938 3 19.917969 3.582031 18.75 4.75 L 4.75 18.75 C 3.582031 19.917969 3 21.457031 3 23 C 3 24.542969 3.582031 26.082031 4.75 27.25 C 5.917969 28.417969 7.464844 29 9 29 C 10.535156 29 12.082031 28.417969 13.25 27.25 L 27.25 13.25 C 29.585938 10.914063 29.585938 7.085938 27.25 4.75 C 26.082031 3.582031 24.539063 3 23 3 Z M 23 5 C 23.558594 5 24.109375 5.140625 24.625 5.375 L 23 7 L 25 9 L 26.625 7.375 C 27.085938 8.402344 27.078125 9.59375 26.625 10.625 L 25 9 L 23 11 L 24.8125 12.8125 L 22.8125 14.8125 L 21 13 L 19 15 L 20.8125 16.8125 L 18.8125 18.8125 L 17 17 L 15 19 L 16.8125 20.8125 L 14.8125 22.8125 L 13 21 L 11 23 L 12.8125 24.8125 L 11.8125 25.84375 C 11.460938 26.195313 11.078125 26.46875 10.65625 26.65625 L 9 25 L 7.34375 26.65625 C 6.921875 26.46875 6.539063 26.195313 6.1875 25.84375 C 5.824219 25.480469 5.570313 25.066406 5.375 24.625 L 7 23 L 5.375 21.375 C 5.570313 20.941406 5.828125 20.546875 6.1875 20.1875 L 7.1875 19.1875 L 9 21 L 11 19 L 9.1875 17.1875 L 11.1875 15.1875 L 13 17 L 15 15 L 13.1875 13.1875 L 15.1875 11.1875 L 17 13 L 19 11 L 17.1875 9.1875 L 19.1875 7.1875 L 21 9 L 23 7 L 21.375 5.375 C 21.890625 5.140625 22.441406 5 23 5 Z M 21 9 L 19 11 L 21 13 L 23 11 Z M 17 13 L 15 15 L 17 17 L 19 15 Z M 13 17 L 11 19 L 13 21 L 15 19 Z M 9 21 L 7 23 L 9 25 L 11 23 Z "></path>
</g>
</svg>
