<?xml version="1.0" encoding="UTF-8"?>
<svg xmlns="http://www.w3.org/2000/svg" xmlns:xlink="http://www.w3.org/1999/xlink" viewBox="0 0 32 32" version="1.1">
<g>
<path d="M 13.8125 4 C 8.277344 4 4 9.492188 4 16 C 4 22.507813 8.277344 28 13.8125 28 L 18.9375 28 C 18.957031 28 18.980469 28 19 28 C 19.011719 28 19.019531 28 19.03125 28 C 21.597656 27.988281 23.886719 26.550781 25.46875 24.375 C 27.058594 22.1875 28 19.234375 28 16 C 28 12.765625 27.058594 9.8125 25.46875 7.625 C 23.902344 5.472656 21.65625 4.046875 19.125 4 C 19.082031 4 19.042969 4 19 4 C 18.980469 4 18.957031 4 18.9375 4 Z M 13.8125 6 L 14 6 C 13.460938 6.476563 12.96875 7.019531 12.53125 7.625 C 10.941406 9.8125 10 12.765625 10 16 C 10 19.234375 10.941406 22.1875 12.53125 24.375 C 12.96875 24.980469 13.460938 25.523438 14 26 L 13.8125 26 C 9.628906 26 6 21.644531 6 16 C 6 10.355469 9.628906 6 13.8125 6 Z M 18.9375 6 C 18.957031 6 18.980469 6 19 6 C 19.011719 6 19.019531 6 19.03125 6 C 20.855469 6.011719 22.546875 7.027344 23.84375 8.8125 C 25.148438 10.609375 26 13.160156 26 16 C 26 18.839844 25.148438 21.390625 23.84375 23.1875 C 22.558594 24.953125 20.894531 25.964844 19.09375 26 C 19.0625 26 19.03125 26 19 26 C 18.980469 26 18.957031 26 18.9375 26 C 17.125 25.976563 15.445313 24.960938 14.15625 23.1875 C 12.851563 21.390625 12 18.839844 12 16 C 12 13.160156 12.851563 10.609375 14.15625 8.8125 C 15.445313 7.039063 17.125 6.023438 18.9375 6 Z M 19 11 C 17.8125 11 16.78125 11.644531 16.09375 12.5625 C 15.40625 13.480469 15 14.691406 15 16 C 15 17.308594 15.40625 18.519531 16.09375 19.4375 C 16.78125 20.355469 17.8125 21 19 21 C 20.1875 21 21.21875 20.355469 21.90625 19.4375 C 22.59375 18.519531 23 17.308594 23 16 C 23 14.691406 22.59375 13.480469 21.90625 12.5625 C 21.21875 11.644531 20.1875 11 19 11 Z M 19 13 C 19.46875 13 19.917969 13.253906 20.3125 13.78125 C 20.707031 14.308594 21 15.097656 21 16 C 21 16.902344 20.707031 17.691406 20.3125 18.21875 C 19.917969 18.746094 19.46875 19 19 19 C 18.695313 19 18.40625 18.878906 18.125 18.65625 C 18.691406 17.996094 19 17.085938 19 16.125 C 19 15.082031 18.632813 14.136719 17.96875 13.46875 C 18.292969 13.15625 18.636719 13 19 13 Z "></path>
</g>
</svg>
