<?xml version="1.0" encoding="UTF-8"?>
<svg xmlns="http://www.w3.org/2000/svg" xmlns:xlink="http://www.w3.org/1999/xlink" viewBox="0 0 32 32" version="1.1">
<g>
<path d="M 22 4 C 20.355469 4 19 5.355469 19 7 C 19 8.644531 20.355469 10 22 10 C 23.644531 10 25 8.644531 25 7 C 25 5.355469 23.644531 4 22 4 Z M 22 6 C 22.5625 6 23 6.4375 23 7 C 23 7.5625 22.5625 8 22 8 C 21.4375 8 21 7.5625 21 7 C 21 6.4375 21.4375 6 22 6 Z M 13.96875 8 C 13.621094 8 13.273438 8.078125 12.96875 8.25 L 9.09375 10.46875 L 10.0625 12.21875 L 13.96875 10 L 16.65625 10 L 13.84375 12.3125 C 12.730469 13.222656 12.746094 14.996094 13.875 15.875 L 13.90625 15.90625 L 17 18.46875 L 17 23 L 19 23 L 19 18.46875 C 19 17.875 18.738281 17.316406 18.28125 16.9375 L 15.15625 14.34375 L 15.125 14.3125 L 15.125 14.28125 C 14.960938 14.160156 14.9375 14.003906 15.09375 13.875 L 18.3125 11.25 C 18.9375 10.738281 19.109375 9.878906 18.875 9.21875 C 18.640625 8.558594 17.933594 8 17.125 8 Z M 19.1875 12 L 16.78125 14 L 23 14 L 23 12 Z M 12.65625 16.5625 L 11.40625 18 L 7 18 L 7 20 L 11.40625 20 C 11.984375 20 12.527344 19.75 12.90625 19.3125 L 14.1875 17.875 Z M 7.3125 23.0625 L 6.6875 24.9375 L 9.6875 25.9375 L 9.84375 26 L 20.15625 26 L 20.3125 25.9375 L 23.3125 24.9375 L 22.6875 23.0625 L 19.875 24 L 10.125 24 Z M 19 26 C 18.449219 26 18 26.449219 18 27 C 18 27.550781 18.449219 28 19 28 C 19.550781 28 20 27.550781 20 27 C 20 26.449219 19.550781 26 19 26 Z M 11 26 C 10.449219 26 10 26.449219 10 27 C 10 27.550781 10.449219 28 11 28 C 11.550781 28 12 27.550781 12 27 C 12 26.449219 11.550781 26 11 26 Z "></path>
</g>
</svg>
