<?xml version="1.0" encoding="UTF-8"?>
<svg xmlns="http://www.w3.org/2000/svg" xmlns:xlink="http://www.w3.org/1999/xlink" viewBox="0 0 32 32" version="1.1">
<g>
<path d="M 24.40625 3.03125 C 24.011719 3.0625 23.609375 3.175781 23.28125 3.34375 C 22.625 3.683594 22.140625 4.183594 21.65625 4.75 C 20.6875 5.878906 19.78125 7.277344 18.625 8.4375 C 17.148438 9.921875 7.035156 20.054688 6.21875 20.875 C 5.222656 21.875 4.136719 22.78125 3.46875 23.96875 C 3.132813 24.5625 2.914063 25.277344 3.03125 26.03125 C 3.148438 26.785156 3.566406 27.5 4.21875 28.15625 C 6.339844 30.285156 9.816406 30.621094 12.15625 28.8125 C 12.375 29.011719 12.535156 29.167969 12.8125 29.40625 C 12.847656 29.441406 12.898438 29.464844 12.9375 29.5 C 12.976563 29.53125 12.996094 29.566406 13.03125 29.59375 C 13.070313 29.625 13.117188 29.660156 13.15625 29.6875 C 13.1875 29.707031 13.21875 29.730469 13.25 29.75 C 13.546875 29.921875 13.882813 30 14.21875 30 C 15.558594 30 16.511719 29.015625 16.875 27.78125 C 16.992188 27.382813 17.035156 26.980469 16.96875 26.59375 C 16.96875 26.582031 16.96875 26.574219 16.96875 26.5625 C 16.929688 26.359375 16.855469 26.160156 16.75 25.96875 C 16.664063 25.816406 16.566406 25.6875 16.4375 25.5625 C 16.328125 25.449219 16.128906 25.273438 15.9375 25.09375 C 18.320313 22.699219 20.4375 20.578125 23.15625 17.84375 C 23.375 18.042969 23.539063 18.175781 23.8125 18.40625 C 23.847656 18.441406 23.898438 18.464844 23.9375 18.5 C 23.976563 18.53125 23.996094 18.566406 24.03125 18.59375 C 24.070313 18.625 24.117188 18.660156 24.15625 18.6875 C 24.1875 18.707031 24.21875 18.730469 24.25 18.75 C 24.453125 18.867188 24.675781 18.929688 24.90625 18.96875 C 25.007813 18.988281 25.113281 19 25.21875 19 C 26.558594 19 27.511719 18.015625 27.875 16.78125 C 27.992188 16.382813 28.035156 15.980469 27.96875 15.59375 C 27.96875 15.582031 27.96875 15.574219 27.96875 15.5625 C 27.929688 15.359375 27.855469 15.160156 27.75 14.96875 C 27.664063 14.816406 27.566406 14.6875 27.4375 14.5625 C 27.3125 14.433594 27.097656 14.238281 26.875 14.03125 C 28.839844 11.847656 29.261719 9.414063 28.8125 7.4375 C 28.335938 5.351563 27.121094 3.753906 25.59375 3.1875 C 25.203125 3.042969 24.800781 3 24.40625 3.03125 Z M 24.5625 5 C 24.664063 4.996094 24.753906 5.007813 24.90625 5.0625 C 25.441406 5.261719 26.535156 6.390625 26.875 7.875 C 27.214844 9.359375 26.964844 11.152344 25.125 13 C 23.046875 15.089844 12.308594 25.875 11.25 26.9375 C 9.773438 28.417969 7.167969 28.296875 5.625 26.75 C 5.171875 26.292969 5.035156 25.980469 5 25.75 C 4.964844 25.519531 5.03125 25.304688 5.21875 24.96875 C 5.59375 24.300781 6.59375 23.378906 7.65625 22.3125 C 8.476563 21.488281 18.554688 11.324219 20.03125 9.84375 C 21.378906 8.488281 22.371094 6.984375 23.1875 6.03125 C 23.597656 5.554688 23.957031 5.230469 24.21875 5.09375 C 24.351563 5.027344 24.460938 5.003906 24.5625 5 Z M 23 10 C 22.445313 10 22 10.445313 22 11 C 22 11.554688 22.445313 12 23 12 C 23.554688 12 24 11.554688 24 11 C 24 10.445313 23.554688 10 23 10 Z M 20 13 C 19.445313 13 19 13.445313 19 14 C 19 14.554688 19.445313 15 20 15 C 20.554688 15 21 14.554688 21 14 C 21 13.445313 20.554688 13 20 13 Z M 25.96875 16.125 C 25.964844 16.171875 25.988281 16.148438 25.96875 16.21875 C 25.863281 16.574219 25.515625 16.785156 25.34375 16.875 C 25.347656 16.828125 25.324219 16.851563 25.34375 16.78125 C 25.449219 16.425781 25.796875 16.214844 25.96875 16.125 Z M 13 20 C 12.445313 20 12 20.445313 12 21 C 12 21.554688 12.445313 22 13 22 C 13.554688 22 14 21.554688 14 21 C 14 20.445313 13.554688 20 13 20 Z M 10 23 C 9.445313 23 9 23.445313 9 24 C 9 24.554688 9.445313 25 10 25 C 10.554688 25 11 24.554688 11 24 C 11 23.445313 10.554688 23 10 23 Z M 14.96875 27.125 C 14.964844 27.171875 14.988281 27.148438 14.96875 27.21875 C 14.863281 27.574219 14.515625 27.785156 14.34375 27.875 C 14.347656 27.828125 14.324219 27.851563 14.34375 27.78125 C 14.449219 27.425781 14.796875 27.214844 14.96875 27.125 Z "></path>
</g>
</svg>
