<?xml version="1.0" encoding="UTF-8"?>
<svg xmlns="http://www.w3.org/2000/svg" xmlns:xlink="http://www.w3.org/1999/xlink" viewBox="0 0 32 32" version="1.1">
<g>
<path d="M 16.9375 5 C 16.9375 5.003906 16.914063 5.320313 16.875 5.5625 C 16.835938 5.804688 16.8125 6 16.8125 6 L 16.78125 6.03125 L 16.78125 6.0625 C 16.683594 6.746094 16.363281 7.386719 15.875 7.875 L 7.875 15.875 C 7.386719 16.363281 6.746094 16.683594 6.0625 16.78125 L 6.03125 16.78125 L 6 16.8125 C 6 16.8125 5.828125 16.835938 5.59375 16.875 C 5.359375 16.914063 5.035156 16.9375 5 16.9375 L 5 18.9375 C 5.339844 18.9375 5.632813 18.890625 5.90625 18.84375 C 6.148438 18.804688 6.296875 18.757813 6.34375 18.75 L 6.34375 18.78125 C 6.367188 18.777344 6.382813 18.753906 6.40625 18.75 C 7.367188 18.601563 8.265625 18.191406 9 17.5625 C 9.03125 18.363281 9.691406 19 10.5 19 C 11.328125 19 12 18.328125 12 17.5 C 12 16.703125 11.378906 16.046875 10.59375 16 L 16 10.59375 C 16.046875 11.378906 16.703125 12 17.5 12 C 18.328125 12 19 11.328125 19 10.5 C 19 9.691406 18.363281 9.03125 17.5625 9 C 18.191406 8.265625 18.601563 7.367188 18.75 6.40625 C 18.753906 6.382813 18.777344 6.367188 18.78125 6.34375 L 18.75 6.34375 C 18.757813 6.296875 18.804688 6.148438 18.84375 5.90625 C 18.890625 5.628906 18.9375 5.339844 18.9375 5 Z M 24.8125 10 L 24.5625 10.65625 C 21.792969 18.074219 17.953125 21.828125 14.1875 23.8125 C 10.421875 25.796875 6.667969 26 4 26 L 4 28 L 28 28 L 28 10 Z M 26 12.28125 L 26 26 L 14.15625 26 C 14.480469 25.851563 14.800781 25.765625 15.125 25.59375 C 19.140625 23.480469 23.117188 19.40625 26 12.28125 Z "></path>
</g>
</svg>
