<?xml version="1.0" encoding="UTF-8"?>
<svg xmlns="http://www.w3.org/2000/svg" xmlns:xlink="http://www.w3.org/1999/xlink" viewBox="0 0 32 32" version="1.1">
<g>
<path d="M 15 5 L 15 6 L 10 6 L 10 8 L 15 8 L 15 9 L 8 9 L 8 11 L 15 11 L 15 12 L 9 12 L 9 14 L 15 14 L 15 15 L 10 15 L 10 17 L 15 17 L 15 19.78125 C 14.835938 19.722656 14.675781 19.671875 14.5 19.59375 C 13.949219 19.351563 13.332031 19 12.5 19 C 10.578125 19 9 20.578125 9 22.5 C 9 24.3125 10.417969 25.804688 12.1875 25.96875 C 12.308594 26.109375 12.542969 26.378906 12.84375 26.6875 C 13.441406 27.300781 14.488281 28 16 28 C 17.511719 28 18.558594 27.300781 19.15625 26.6875 C 19.457031 26.378906 19.691406 26.109375 19.8125 25.96875 C 21.582031 25.804688 23 24.3125 23 22.5 C 23 20.578125 21.421875 19 19.5 19 C 18.667969 19 18.050781 19.351563 17.5 19.59375 C 17.324219 19.671875 17.164063 19.722656 17 19.78125 L 17 5 Z M 18 6 L 18 8 L 22 8 L 22 6 Z M 18 9 L 18 11 L 24 11 L 24 9 Z M 18 12 L 18 14 L 23 14 L 23 12 Z M 18 15 L 18 17 L 22 17 L 22 15 Z M 12.5 21 C 12.667969 21 13.09375 21.148438 13.6875 21.40625 C 14.28125 21.664063 15.054688 22 16 22 C 16.945313 22 17.71875 21.664063 18.3125 21.40625 C 18.90625 21.148438 19.332031 21 19.5 21 C 20.339844 21 21 21.660156 21 22.5 C 21 23.339844 20.339844 24 19.5 24 C 18.800781 24 18.484375 24.421875 18.28125 24.65625 C 18.078125 24.890625 17.9375 25.121094 17.75 25.3125 C 17.375 25.699219 16.976563 26 16 26 C 15.023438 26 14.625 25.699219 14.25 25.3125 C 14.0625 25.121094 13.921875 24.890625 13.71875 24.65625 C 13.515625 24.421875 13.199219 24 12.5 24 C 11.660156 24 11 23.339844 11 22.5 C 11 21.660156 11.660156 21 12.5 21 Z "></path>
</g>
</svg>
