<?xml version="1.0"?>
<svg xmlns="http://www.w3.org/2000/svg" viewBox="0 0 32 32">
    <path d="M 11 3 C 10.448 3 10 3.448 10 4 L 10 5 L 22 5 L 22 4 C 22 3.448 21.552 3 21 3 L 11 3 z M 10 6 L 10 12.980469 C 10 13.735894 10.430297 14.428977 11.103516 14.767578 L 11.113281 14.773438 L 20 19 L 20 21 L 19.998047 21.001953 L 16 24.646484 L 12.001953 21.001953 L 12 21 L 12 18 L 10 18 L 10 21 C 10 21.565686 10.239552 22.108032 10.664062 22.488281 L 15 26.441406 L 15 28 A 1.0001 1.0001 0 1 0 17 28 L 17 26.441406 L 21.335938 22.488281 C 21.760449 22.108032 22 21.565686 22 21 L 22 19 C 22 18.23058 21.554572 17.525999 20.861328 17.195312 L 20.859375 17.193359 L 12 12.980469 L 12 8 L 20 8 L 20 12 L 22 12 L 22 6 L 10 6 z"></path>
</svg>
