<?xml version="1.0" encoding="UTF-8"?>
<svg xmlns="http://www.w3.org/2000/svg" xmlns:xlink="http://www.w3.org/1999/xlink" viewBox="0 0 32 32" version="1.1">
<g>
<path d="M 16 2 C 9.96875 2 4.96875 6.519531 4.96875 13.3125 C 4.96875 17.867188 5.570313 22.261719 7.84375 25.03125 C 6.703125 26.738281 6.03125 28.71875 6.03125 28.71875 L 5.65625 30 L 26.34375 30 L 25.96875 28.71875 C 25.96875 28.71875 25.296875 26.738281 24.15625 25.03125 C 26.429688 22.261719 27.03125 17.867188 27.03125 13.3125 C 27.03125 6.519531 22.03125 2 16 2 Z M 16 4 C 21.066406 4 25.03125 7.46875 25.03125 13.3125 C 25.03125 18.027344 24.257813 22.378906 22.3125 24.28125 L 21.65625 24.90625 L 22.21875 25.625 C 22.773438 26.3125 23.238281 27.230469 23.5625 28 L 8.4375 28 C 8.761719 27.230469 9.226563 26.3125 9.78125 25.625 L 10.34375 24.90625 L 9.6875 24.28125 C 7.742188 22.378906 6.96875 18.027344 6.96875 13.3125 C 6.96875 7.46875 10.933594 4 16 4 Z M 11 14 C 9.894531 14 9 14.671875 9 15.5 C 9 16.328125 9.894531 17 11 17 C 12.535156 17 15 15.5 15 15.5 C 15 15.5 12.554688 14 11 14 Z M 21 14 C 19.445313 14 17 15.5 17 15.5 C 17 15.5 19.464844 17 21 17 C 22.105469 17 23 16.328125 23 15.5 C 23 14.671875 22.105469 14 21 14 Z M 16 20 C 14.34375 20 13 21.183594 13 22.1875 C 13 23.191406 14.34375 24 16 24 C 17.65625 24 19 23.191406 19 22.1875 C 19 21.183594 17.65625 20 16 20 Z "></path>
</g>
</svg>
