<?xml version="1.0" encoding="UTF-8"?>
<svg xmlns="http://www.w3.org/2000/svg" xmlns:xlink="http://www.w3.org/1999/xlink" viewBox="0 0 32 32" version="1.1">
<g>
<path d="M 20 4 C 18.644531 4 17.527344 4.890625 17.15625 6.125 C 18.234375 7.003906 18.910156 8.328125 18.96875 9.8125 C 19.289063 9.925781 19.640625 10 20 10 C 21.65625 10 23 8.65625 23 7 C 23 5.34375 21.65625 4 20 4 Z M 20.03125 5.3125 L 20.4375 5.3125 L 20.4375 8.46875 L 19.75 8.46875 L 19.75 6.15625 C 19.75 6.15625 19.4375 6.34375 19.09375 6.34375 L 19.09375 5.78125 C 19.492188 5.710938 19.859375 5.496094 20.03125 5.3125 Z M 14 6 C 11.789063 6 10 7.789063 10 10 C 10 12.210938 11.789063 14 14 14 C 16.210938 14 18 12.210938 18 10 C 18 7.789063 16.210938 6 14 6 Z M 12.90625 7.46875 L 15.4375 7.46875 L 15.4375 8.3125 L 13.71875 8.3125 L 13.65625 9.28125 C 13.828125 9.269531 13.96875 9.25 14.09375 9.25 C 15.398438 9.25 15.65625 10.25 15.65625 10.6875 C 15.65625 11.378906 15.285156 12.34375 13.8125 12.34375 C 13.351563 12.34375 12.96875 12.261719 12.65625 12.125 L 12.65625 11.21875 C 12.984375 11.417969 13.316406 11.53125 13.6875 11.53125 C 14.375 11.53125 14.59375 11.007813 14.59375 10.78125 C 14.59375 10.304688 14.265625 10.0625 13.59375 10.0625 C 13.347656 10.0625 13.042969 10.085938 12.71875 10.125 Z M 26.5 15 C 26.003906 15 25.832031 15.175781 25.625 15.28125 C 25.417969 15.386719 25.203125 15.488281 24.96875 15.59375 C 24.503906 15.804688 23.914063 16 23 16 L 4 16 L 4 21 L 23 21 C 24.574219 21 25.84375 20.398438 26.6875 19.59375 C 27.53125 18.789063 28 17.84375 28 16.875 C 28 16.542969 27.960938 16.203125 27.78125 15.84375 C 27.601563 15.484375 27.121094 15 26.5 15 Z M 25.6875 17.4375 C 25.578125 17.691406 25.585938 17.894531 25.3125 18.15625 C 24.820313 18.625 24.082031 19 23 19 L 17 19 L 17 18 L 23 18 C 24.167969 18 25.050781 17.714844 25.6875 17.4375 Z M 6 18 L 13 18 L 13 19 L 6 19 Z M 26.5 22 C 26.003906 22 25.832031 22.175781 25.625 22.28125 C 25.417969 22.386719 25.203125 22.488281 24.96875 22.59375 C 24.503906 22.804688 23.914063 23 23 23 L 4 23 L 4 28 L 23 28 C 24.574219 28 25.84375 27.398438 26.6875 26.59375 C 27.53125 25.789063 28 24.84375 28 23.875 C 28 23.542969 27.960938 23.203125 27.78125 22.84375 C 27.601563 22.484375 27.121094 22 26.5 22 Z M 25.6875 24.4375 C 25.578125 24.691406 25.585938 24.894531 25.3125 25.15625 C 24.820313 25.625 24.082031 26 23 26 L 17 26 L 17 25 L 23 25 C 24.167969 25 25.050781 24.714844 25.6875 24.4375 Z M 6 25 L 13 25 L 13 26 L 6 26 Z "></path>
</g>
</svg>
