<?xml version="1.0" encoding="UTF-8"?>
<svg xmlns="http://www.w3.org/2000/svg" xmlns:xlink="http://www.w3.org/1999/xlink" viewBox="0 0 32 32" version="1.1">
<g>
<path d="M 7 4 L 7 7.78125 C 6.71875 8.371094 3 16.289063 3 27 L 3 28 L 29 28 L 29 27 C 29 16.175781 25.28125 8.363281 25 7.78125 L 25 4 Z M 9 6 L 23 6 L 23 7 L 9 7 Z M 8.65625 9 L 10.90625 9 C 10.527344 10.859375 9.097656 12.328125 7.28125 12.8125 C 7.929688 10.726563 8.410156 9.550781 8.65625 9 Z M 12.90625 9 L 19.09375 9 C 19.550781 12.160156 22.109375 14.65625 25.3125 14.96875 C 26.085938 17.929688 26.800781 21.675781 26.90625 26 L 5.09375 26 C 5.199219 21.707031 5.910156 17.941406 6.6875 14.96875 C 9.890625 14.65625 12.449219 12.160156 12.90625 9 Z M 21.09375 9 L 23.34375 9 C 23.589844 9.546875 24.066406 10.71875 24.71875 12.8125 C 22.902344 12.328125 21.472656 10.859375 21.09375 9 Z "></path>
</g>
</svg>
