<?xml version="1.0" encoding="UTF-8"?>
<svg xmlns="http://www.w3.org/2000/svg" xmlns:xlink="http://www.w3.org/1999/xlink" viewBox="0 0 32 32" version="1.1">
<g>
<path d="M 17.5 8 C 14.957031 8 12.753906 9.464844 11.6875 11.59375 C 11.035156 11.226563 10.300781 11 9.5 11 C 7.015625 11 5 13.015625 5 15.5 C 5 15.6875 5.039063 15.851563 5.0625 16.03125 C 3.34375 16.253906 2 17.71875 2 19.5 C 2 21.433594 3.566406 23 5.5 23 L 8.28125 23 C 8.113281 22.527344 8 22.027344 8 21.5 C 8 19.566406 9.25 17.863281 11.03125 17.25 C 11.398438 14.289063 13.941406 12 17 12 C 18.816406 12 20.492188 12.796875 21.625 14.1875 C 22.074219 14.054688 22.535156 14 23 14 C 23.335938 14 23.652344 14.03125 23.96875 14.09375 C 23.761719 10.691406 20.957031 8 17.5 8 Z M 17 13 C 14.238281 13 12 15.238281 12 18 C 12 18.015625 12 18.046875 12 18.0625 C 10.304688 18.304688 9 19.738281 9 21.5 C 9 23.433594 10.566406 25 12.5 25 L 27 25 C 28.65625 25 30 23.65625 30 22 C 30 20.34375 28.65625 19 27 19 C 27 16.789063 25.210938 15 23 15 C 22.371094 15 21.777344 15.148438 21.25 15.40625 C 20.371094 13.964844 18.8125 13 17 13 Z "></path>
</g>
</svg>
