<?xml version="1.0" encoding="UTF-8"?>
<svg xmlns="http://www.w3.org/2000/svg" xmlns:xlink="http://www.w3.org/1999/xlink" viewBox="0 0 32 32" version="1.1">
<g>
<path d="M 5 10 C 3.355469 10 2 11.355469 2 13 L 0 13 L 0 15 L 2.03125 15 C 2.148438 17.230469 2.667969 19.285156 3.71875 20.90625 C 4.925781 22.765625 6.910156 24 9.40625 24 L 9.4375 24 C 12.003906 24 14.296875 22.445313 15.25 20.0625 L 15.5625 19.3125 C 15.636719 19.128906 15.800781 19 16 19 C 16.199219 19 16.363281 19.128906 16.4375 19.3125 L 16.75 20.0625 C 17.703125 22.445313 19.996094 24 22.5625 24 C 25.097656 24 27.113281 22.769531 28.3125 20.90625 C 29.355469 19.285156 29.855469 17.226563 29.96875 15 L 32 15 L 32 13 L 30 13 C 30 11.355469 28.644531 10 27 10 Z M 5 12 L 27 12 C 27.566406 12 28 12.433594 28 13 L 28 14 C 28 16.347656 27.523438 18.414063 26.625 19.8125 C 25.726563 21.210938 24.496094 22 22.5625 22 C 20.808594 22 19.246094 20.941406 18.59375 19.3125 L 18.3125 18.5625 C 17.9375 17.625 17.011719 17 16 17 C 14.988281 17 14.0625 17.625 13.6875 18.5625 L 13.40625 19.3125 C 12.757813 20.941406 11.191406 22 9.4375 22 L 9.40625 22 C 7.527344 22 6.316406 21.214844 5.40625 19.8125 C 4.496094 18.410156 4 16.339844 4 14 L 4 13 C 4 12.433594 4.433594 12 5 12 Z "></path>
</g>
</svg>
