<?xml version="1.0"?>
<svg xmlns="http://www.w3.org/2000/svg" viewBox="0 0 32 32">
    <path d="M 13 0 L 9.0527344 9.2460938 L 9.0507812 9.2460938 C 9.0157812 9.3220938 8.9831719 9.3976562 8.9511719 9.4726562 L 6.9121094 13.976562 L 13 27 L 13 21.888672 L 12.984375 21.283203 C 12.984375 21.283203 11.901 21.001953 12 18.001953 L 12.957031 18.001953 L 13.457031 19 L 13.957031 18.001953 L 14.314453 18.001953 C 14.543838 18.731649 14.860554 19.336754 15.173828 19.796875 C 15.455394 20.210425 15.720689 20.53184 15.873047 20.746094 C 15.933262 20.83077 15.951526 20.872724 15.96875 20.908203 C 15.948688 20.956395 15.9187 21.028218 15.855469 21.123047 C 15.718551 21.3284 15.490234 21.599 15.240234 21.890625 C 14.990234 22.18225 14.718551 22.494478 14.480469 22.851562 C 14.242386 23.208647 14 23.623698 14 24.207031 C 14 24.804063 14.284387 25.202545 14.523438 25.509766 C 14.762488 25.816986 15.01352 26.07218 15.238281 26.335938 C 15.687804 26.863452 16 27.333333 16 28 L 14 28 L 16.167969 32 L 18 28 C 18 26.666667 17.312196 25.685049 16.761719 25.039062 C 16.48648 24.71607 16.237512 24.455967 16.101562 24.28125 C 16.054958 24.221356 16.046067 24.199579 16.03125 24.171875 C 16.051396 24.124045 16.081786 24.055035 16.144531 23.960938 C 16.281449 23.755584 16.509766 23.483031 16.759766 23.191406 C 17.009766 22.899781 17.281449 22.589506 17.519531 22.232422 C 17.757614 21.875338 18 21.458333 18 20.875 C 18 20.275298 17.724595 19.899028 17.501953 19.585938 C 17.279311 19.272846 17.044606 18.9927 16.826172 18.671875 C 16.686952 18.467396 16.559905 18.242352 16.441406 18.001953 L 17.957031 18.001953 L 18.457031 19 L 18.957031 18.001953 L 20 18.001953 C 20.099 21.001953 18.927734 21.283203 18.927734 21.283203 L 18.912109 21.888672 L 19 27 L 25 13.976562 L 22.962891 9.4726562 C 22.930891 9.3976562 22.896328 9.3220938 22.861328 9.2460938 L 22.859375 9.2460938 L 18.912109 0 L 18.912109 3 L 20.740234 9 L 18.912109 9 L 20.783203 10.869141 C 21.314203 11.400141 21.520906 12.200344 21.253906 12.902344 C 21.055906 13.422344 20.752063 13.79 20.539062 14 L 20 14 L 19 12 L 18 14 L 16.916016 14 C 16.808377 13.301534 16.612372 12.715499 16.427734 12.253906 C 16.160659 11.586218 16 11.166667 16 11 C 16 10.75 16.04793 10.669072 16.208984 10.492188 C 16.370034 10.315302 16.674293 10.099668 17.050781 9.8515625 C 17.427269 9.6034571 17.876143 9.3219017 18.277344 8.8730469 C 18.678545 8.424192 19 7.7558793 19 7 C 19 6.2649791 18.549922 5.4895457 17.974609 5.2226562 C 17.60347 5.0504834 17.29448 5.0182653 17.013672 5.0097656 C 17.007969 5.0067957 17.005884 5.0029441 17 5 L 16.574219 5 L 16.5 5 L 15.5 3 L 14.5 5 C 14.5 5 13 5.719 13 8 C 14 7 15 7 15 7 C 15 7 15.011481 6.994236 15.011719 6.9941406 L 15.011719 7 C 15.011719 7 15.796585 6.99118 16.550781 7 C 16.827609 7.00365 16.917273 7.0205477 16.988281 7.0273438 C 16.982981 7.2645757 16.938211 7.369777 16.785156 7.5410156 C 16.623857 7.7214733 16.322731 7.9354961 15.949219 8.1816406 C 15.575705 8.427785 15.129966 8.7055577 14.728516 9.1464844 C 14.327065 9.5874111 14 10.25 14 11 C 14 11.833333 14.339341 12.413782 14.572266 12.996094 C 14.699579 13.314378 14.811673 13.639113 14.890625 14 L 14 14 L 13 12 L 12 14 L 11.373047 14 C 11.160047 13.79 10.856203 13.422344 10.658203 12.902344 C 10.391203 12.200344 10.599859 11.400141 11.130859 10.869141 L 13 9 L 11.171875 9 L 13 3 L 13 0 z"></path>
</svg>
