<?xml version="1.0" encoding="UTF-8"?>
<svg xmlns="http://www.w3.org/2000/svg" xmlns:xlink="http://www.w3.org/1999/xlink" viewBox="0 0 32 32" version="1.1">
<g>
<path d="M 3 6 L 3 16 C 3 18.75 5.25 21 8 21 L 10 21 L 10 24 L 4 24 L 4 26 L 22 26 C 24.25 26 26.066406 25.121094 27.25 23.789063 C 28.429688 22.457031 29 20.722656 29 19 C 29 16.25 26.75 14 24 14 L 15.890625 14 C 13.917969 9.328125 9.378906 6 4 6 Z M 5 8.15625 C 9.335938 8.5625 12.957031 11.375 14.359375 15.332031 L 14.59375 16 L 24 16 C 25.667969 16 27 17.332031 27 19 L 8 19 C 6.332031 19 5 17.667969 5 16 Z M 7 10 C 6.449219 10 6 10.449219 6 11 C 6 11.550781 6.449219 12 7 12 C 7.550781 12 8 11.550781 8 11 C 8 10.449219 7.550781 10 7 10 Z M 10 12 C 9.449219 12 9 12.449219 9 13 C 9 13.550781 9.449219 14 10 14 C 10.550781 14 11 13.550781 11 13 C 11 12.449219 10.550781 12 10 12 Z M 12 15 C 11.449219 15 11 15.449219 11 16 C 11 16.550781 11.449219 17 12 17 C 12.550781 17 13 16.550781 13 16 C 13 15.449219 12.550781 15 12 15 Z M 12 21 L 18 21 L 18 24 L 12 24 Z M 20 21 L 26.621094 21 C 26.410156 21.535156 26.128906 22.039063 25.75 22.460938 C 24.933594 23.378906 23.75 24 22 24 L 20 24 Z "></path>
</g>
</svg>
