<?xml version="1.0" encoding="UTF-8"?>
<svg xmlns="http://www.w3.org/2000/svg" xmlns:xlink="http://www.w3.org/1999/xlink" viewBox="0 0 32 32" version="1.1">
<g>
<path d="M 22.25 4 C 20.257813 4 18.9375 5.3125 18.9375 5.3125 L 18.90625 5.34375 L 15.0625 9.21875 L 5.625 18.65625 L 5.65625 18.6875 C 4.601563 19.78125 3.96875 21.300781 3.96875 22.96875 C 3.96875 24.300781 4.371094 25.535156 5.1875 26.46875 C 6.003906 27.402344 7.238281 28 8.625 28 C 9.867188 28 10.984375 27.609375 11.78125 26.84375 C 12.578125 26.078125 13 24.992188 13 23.78125 C 13 22.820313 12.765625 21.90625 12.21875 21.1875 C 11.671875 20.46875 10.769531 20 9.78125 20 C 8.960938 20 8.210938 20.332031 7.71875 20.90625 C 7.226563 21.480469 7 22.238281 7 23 L 7 23.09375 C 7 23.09375 7.035156 23.511719 7.28125 23.96875 C 7.527344 24.425781 8.179688 25 9 25 L 9 23.03125 C 8.996094 23.027344 9.003906 23.003906 9 23 C 8.996094 22.992188 9.003906 22.976563 9 22.96875 C 9.007813 22.609375 9.105469 22.351563 9.21875 22.21875 C 9.339844 22.078125 9.460938 22 9.78125 22 C 10.222656 22 10.421875 22.109375 10.625 22.375 C 10.828125 22.640625 11 23.144531 11 23.78125 C 11 24.554688 10.777344 25.050781 10.40625 25.40625 C 10.035156 25.761719 9.464844 26 8.625 26 C 7.777344 26 7.179688 25.683594 6.71875 25.15625 C 6.257813 24.628906 5.96875 23.871094 5.96875 22.96875 C 5.96875 21.761719 6.332031 20.734375 7 20.03125 L 7.03125 20.0625 L 7.46875 19.625 C 8.042969 19.214844 8.773438 19 9.625 19 C 11.371094 19 12.347656 19.496094 13 20.3125 C 13.652344 21.128906 14 22.394531 14 24 L 14 29 L 16 29 L 16 28.96875 L 27.8125 11.5625 L 27.96875 11.375 L 28 11.15625 C 28 11.15625 28.257813 9.457031 27.6875 7.6875 C 27.402344 6.804688 26.898438 5.867188 26 5.15625 C 25.101563 4.445313 23.832031 4 22.25 4 Z M 22.25 6 C 23.476563 6 24.230469 6.304688 24.75 6.71875 C 25.269531 7.132813 25.582031 7.695313 25.78125 8.3125 C 26.160156 9.484375 26.015625 10.597656 26 10.71875 L 24.75 12.5625 C 24.527344 11.632813 24.140625 10.78125 23.5625 10.0625 C 22.582031 8.839844 21.019531 8.128906 19.0625 8.03125 L 20.3125 6.75 L 20.34375 6.75 C 20.375 6.722656 21.179688 6 22.25 6 Z M 18.625 10 C 20.371094 10 21.347656 10.496094 22 11.3125 C 22.652344 12.128906 23 13.394531 23 15 L 23 15.125 L 19.96875 19.5625 C 19.910156 17.851563 19.53125 16.269531 18.5625 15.0625 C 17.582031 13.839844 16.019531 13.128906 14.0625 13.03125 L 16.3125 10.75 L 16.34375 10.78125 C 16.9375 10.296875 17.6875 10 18.625 10 Z M 13.625 15 C 15.371094 15 16.347656 15.496094 17 16.3125 C 17.652344 17.128906 18 18.394531 18 20 L 18 22.46875 L 16 25.40625 L 16 24 C 16 22.117188 15.617188 20.375 14.5625 19.0625 C 13.582031 17.839844 12.019531 17.128906 10.0625 17.03125 L 11.3125 15.75 L 11.34375 15.78125 C 11.9375 15.296875 12.6875 15 13.625 15 Z "></path>
</g>
</svg>
