<?xml version="1.0" encoding="UTF-8"?>
<svg xmlns="http://www.w3.org/2000/svg" xmlns:xlink="http://www.w3.org/1999/xlink" viewBox="0 0 32 32" version="1.1">
<g>
<path d="M 16 3 C 13.972656 3 12.136719 3.265625 10.6875 3.84375 C 9.960938 4.132813 9.304688 4.511719 8.8125 5.03125 C 8.320313 5.550781 8 6.246094 8 7 L 8 16 C 8 16.738281 8.214844 17.671875 8.5 18.90625 C 8.785156 20.140625 9.15625 21.582031 9.53125 22.96875 C 10.285156 25.742188 11.03125 28.28125 11.03125 28.28125 L 11.25 29 L 20.75 29 L 20.96875 28.28125 C 20.96875 28.28125 21.714844 25.742188 22.46875 22.96875 C 22.84375 21.582031 23.214844 20.140625 23.5 18.90625 C 23.785156 17.671875 24 16.738281 24 16 L 24 7 C 24 6.246094 23.679688 5.550781 23.1875 5.03125 C 22.695313 4.511719 22.039063 4.132813 21.3125 3.84375 C 19.863281 3.265625 18.027344 3 16 3 Z M 16 5 C 17.847656 5 19.511719 5.257813 20.59375 5.6875 C 21.132813 5.902344 21.503906 6.179688 21.71875 6.40625 C 21.933594 6.632813 22 6.777344 22 7 L 22 12.03125 C 21 12.050781 20.058594 12.058594 19.1875 12.125 C 18.789063 11.796875 18.332031 11.539063 17.84375 11.34375 C 18.542969 10.792969 19 9.949219 19 9 C 19 7.355469 17.644531 6 16 6 C 14.355469 6 13 7.355469 13 9 C 13 9.957031 13.449219 10.824219 14.15625 11.375 C 13.085938 11.804688 12.214844 12.597656 11.65625 13.59375 C 10.992188 13.828125 10.460938 14.058594 10 14.28125 L 10 7 C 10 6.777344 10.066406 6.632813 10.28125 6.40625 C 10.496094 6.179688 10.867188 5.902344 11.40625 5.6875 C 12.488281 5.257813 14.152344 5 16 5 Z M 16 8 C 16.5625 8 17 8.4375 17 9 C 17 9.5625 16.5625 10 16 10 C 15.4375 10 15 9.5625 15 9 C 15 8.4375 15.4375 8 16 8 Z M 21 14.03125 C 20.15625 15.128906 18.992188 16.546875 17.875 17.5 C 16.3125 16.230469 14.625 15.546875 13.125 15.21875 C 14.910156 14.683594 17.441406 14.171875 21 14.03125 Z M 21.96875 16.1875 C 21.9375 16.535156 21.808594 17.402344 21.5625 18.46875 C 21.285156 19.664063 20.90625 21.09375 20.53125 22.46875 C 19.886719 24.835938 19.414063 26.441406 19.25 27 L 12.75 27 C 12.585938 26.441406 12.113281 24.835938 11.46875 22.46875 C 11.09375 21.09375 10.714844 19.664063 10.4375 18.46875 C 10.300781 17.871094 10.199219 17.316406 10.125 16.875 C 11.65625 16.808594 14.785156 17.035156 17.28125 19.53125 L 17.90625 20.125 L 18.59375 19.625 C 19.851563 18.722656 21.035156 17.382813 21.96875 16.1875 Z "></path>
</g>
</svg>
