<?xml version="1.0" encoding="UTF-8"?>
<svg xmlns="http://www.w3.org/2000/svg" xmlns:xlink="http://www.w3.org/1999/xlink" viewBox="0 0 32 32" version="1.1">
<g>
<path d="M 16 4 C 9.382813 4 4 9.382813 4 16 C 4 22.617188 9.382813 28 16 28 C 22.617188 28 28 22.617188 28 16 C 28 9.382813 22.617188 4 16 4 Z M 16 6 C 21.535156 6 26 10.464844 26 16 C 26 21.535156 21.535156 26 16 26 C 10.464844 26 6 21.535156 6 16 C 6 10.464844 10.464844 6 16 6 Z M 9.59375 13.21875 L 8.40625 14.78125 C 8.40625 14.78125 9.914063 16 12 16 C 14.085938 16 15.59375 14.78125 15.59375 14.78125 L 14.40625 13.21875 C 14.40625 13.21875 13.296875 14 12 14 C 10.703125 14 9.59375 13.21875 9.59375 13.21875 Z M 17.59375 13.21875 L 16.40625 14.78125 C 16.40625 14.78125 17.914063 16 20 16 C 22.085938 16 23.59375 14.78125 23.59375 14.78125 L 22.40625 13.21875 C 22.40625 13.21875 21.296875 14 20 14 C 18.703125 14 17.59375 13.21875 17.59375 13.21875 Z M 13 20 L 13 22 L 19 22 L 19 20 Z "></path>
</g>
</svg>
