<?xml version="1.0" encoding="UTF-8"?>
<svg xmlns="http://www.w3.org/2000/svg" xmlns:xlink="http://www.w3.org/1999/xlink" viewBox="0 0 32 32" version="1.1">
<g>
<path d="M 22 4 L 22 6 L 25.3125 6 L 22.40625 8.1875 L 22 8.5 L 22 11 L 28 11 L 28 9 L 24.6875 9 L 27.59375 6.8125 L 28 6.5 L 28 4 Z M 15 6 L 15 8 L 17.03125 8 L 15.25 10.0625 L 15 10.34375 L 15 12 L 20 12 L 20 10 L 17.90625 10 L 19.75 7.84375 L 20 7.5625 L 20 6 Z M 6.5 11 C 5.117188 11 4 12.117188 4 13.5 L 4 28 L 9 28 L 9 26 L 23 26 L 23 28 L 28 28 L 28 17 C 28 15.355469 26.644531 14 25 14 L 13 14 L 13 14.5625 C 12.40625 14.214844 11.734375 14 11 14 C 10.265625 14 9.59375 14.214844 9 14.5625 L 9 13.5 C 9 12.117188 7.882813 11 6.5 11 Z M 6.5 13 C 6.714844 13 7 13.285156 7 13.5 L 7 22 L 26 22 L 26 26 L 25 26 L 25 24 L 7 24 L 7 26 L 6 26 L 6 13.5 C 6 13.285156 6.285156 13 6.5 13 Z M 11 16 C 12.117188 16 13 16.882813 13 18 C 13 19.117188 12.117188 20 11 20 C 9.882813 20 9 19.117188 9 18 C 9 16.882813 9.882813 16 11 16 Z M 15 16 L 25 16 C 25.554688 16 26 16.445313 26 17 L 26 20 L 15 20 Z "></path>
</g>
</svg>
