<?xml version="1.0" encoding="UTF-8"?>
<svg xmlns="http://www.w3.org/2000/svg" xmlns:xlink="http://www.w3.org/1999/xlink" viewBox="0 0 32 32" version="1.1">
<g>
<path d="M 16 0 C 13.242188 0 11 2.242188 11 5 L 11 7 C 11 9.046875 12.238281 10.789063 14 11.5625 L 14 9.21875 C 13.390625 8.667969 13 7.882813 13 7 L 13 5 C 13 3.347656 14.347656 2 16 2 C 17.652344 2 19 3.347656 19 5 L 19 7 C 19 7.882813 18.609375 8.667969 18 9.21875 L 18 11.5625 C 19.761719 10.789063 21 9.046875 21 7 L 21 5 C 21 2.242188 18.757813 0 16 0 Z M 15 8 L 15 16 L 17 16 L 17 8 Z M 14 12.4375 C 12.238281 13.210938 11 14.953125 11 17 L 11 19 C 11 21.046875 12.238281 22.789063 14 23.5625 L 14 21.21875 C 13.390625 20.667969 13 19.882813 13 19 L 13 17 C 13 16.117188 13.390625 15.332031 14 14.78125 Z M 18 12.4375 L 18 14.78125 C 18.609375 15.332031 19 16.117188 19 17 L 19 19 C 19 19.882813 18.609375 20.667969 18 21.21875 L 18 23.5625 C 19.761719 22.789063 21 21.046875 21 19 L 21 17 C 21 14.953125 19.761719 13.210938 18 12.4375 Z M 15 20 L 15 27.84375 L 12.75 25.34375 L 11.25 26.65625 L 16 32 L 20.75 26.65625 L 19.25 25.34375 L 17 27.84375 L 17 20 Z "></path>
</g>
</svg>
