<?xml version="1.0" encoding="UTF-8"?>
<svg xmlns="http://www.w3.org/2000/svg" xmlns:xlink="http://www.w3.org/1999/xlink" viewBox="0 0 32 32" version="1.1">
<g>
<path d="M 17.5 4 C 15.578125 4 14 5.578125 14 7.5 C 14 9.421875 15.578125 11 17.5 11 C 19.421875 11 21 9.421875 21 7.5 C 21 5.578125 19.421875 4 17.5 4 Z M 17.5 6 C 18.339844 6 19 6.660156 19 7.5 C 19 8.339844 18.339844 9 17.5 9 C 16.660156 9 16 8.339844 16 7.5 C 16 6.660156 16.660156 6 17.5 6 Z M 10.28125 9.96875 C 9.695313 10.007813 9.140625 10.324219 8.78125 10.8125 L 6 14.59375 L 7.625 15.78125 L 10.40625 11.96875 L 13 12.625 L 11.6875 18.125 C 11.382813 19.386719 12 20.695313 13.15625 21.28125 L 17.0625 23.25 L 19.125 26 L 6.96875 26 L 6.96875 28 L 25.5625 28 L 25.5625 26 L 21.625 26 L 18.65625 22.0625 C 18.472656 21.8125 18.25 21.609375 17.96875 21.46875 L 14.0625 19.5 C 13.722656 19.328125 13.566406 18.964844 13.65625 18.59375 L 14.90625 13.34375 L 16.5625 14.21875 L 15.8125 17.78125 L 15.5625 19 L 20.34375 19 L 23.28125 22.96875 L 24.875 21.78125 L 21.9375 17.8125 C 21.5625 17.300781 20.976563 17 20.34375 17 L 18.03125 17 L 18.46875 15 L 21.90625 15 C 22.28125 15 22.652344 14.886719 22.96875 14.6875 L 26.875 12.25 L 25.8125 10.53125 L 21.90625 13 L 18.4375 13 L 14.6875 11.03125 L 14.59375 10.96875 L 14.46875 10.9375 L 10.875 10.03125 C 10.679688 9.980469 10.476563 9.957031 10.28125 9.96875 Z "></path>
</g>
</svg>
