<?xml version="1.0" encoding="UTF-8"?>
<svg xmlns="http://www.w3.org/2000/svg" xmlns:xlink="http://www.w3.org/1999/xlink" viewBox="0 0 32 32" version="1.1">
<g>
<path d="M 13.5 4 C 9.941406 4 7.761719 5.09375 6.53125 6.28125 C 5.300781 7.46875 5.03125 8.8125 5.03125 8.8125 L 5 8.90625 L 5 28 L 22 28 L 22 8.90625 L 21.96875 8.8125 C 21.96875 8.8125 21.699219 7.46875 20.46875 6.28125 C 19.238281 5.09375 17.058594 4 13.5 4 Z M 13.5 6 C 16.660156 6 18.222656 6.90625 19.0625 7.71875 C 19.871094 8.5 19.992188 9.074219 20 9.125 L 20 26 L 7 26 L 7 9.125 C 7.007813 9.074219 7.128906 8.5 7.9375 7.71875 C 8.777344 6.90625 10.339844 6 13.5 6 Z M 26.5 6 C 25.671875 6 25 6.671875 25 7.5 C 25 7.742188 25.054688 7.984375 25.15625 8.1875 L 23.0625 13.65625 L 23 13.8125 L 23 21 L 26 21 L 26 18 L 25 18 L 25 14.1875 L 27.03125 8.90625 C 27.601563 8.695313 28 8.144531 28 7.5 C 28 6.671875 27.328125 6 26.5 6 Z M 8 10 L 8 18 L 19 18 L 19 10 Z M 10 12 L 11 12 L 11 16 L 10 16 Z M 13 12 L 14 12 L 14 16 L 13 16 Z M 16 12 L 17 12 L 17 16 L 16 16 Z M 10 21 L 9 24 L 18 24 L 17 21 Z "></path>
</g>
</svg>
