<?xml version="1.0" encoding="UTF-8"?>
<svg xmlns="http://www.w3.org/2000/svg" xmlns:xlink="http://www.w3.org/1999/xlink" viewBox="0 0 32 32" version="1.1">
<g>
<path d="M 9.5 5 L 9.1875 5.40625 L 8 7 L 3 7 L 3 26 L 29 26 L 29 7 L 27 7 L 27 6 L 21 6 L 21 7 L 20 7 L 18.8125 5.40625 L 18.5 5 Z M 10.5 7 L 17.5 7 L 18.6875 8.59375 L 19 9 L 27 9 L 27 24 L 5 24 L 5 9 L 9 9 L 9.3125 8.59375 Z M 12 8 L 12 10 L 16 10 L 16 8 Z M 7 12 L 7 22 L 21 22 L 21 12 Z M 24 13 C 23.449219 13 23 13.449219 23 14 C 23 14.550781 23.449219 15 24 15 C 24.550781 15 25 14.550781 25 14 C 25 13.449219 24.550781 13 24 13 Z M 9 14 L 19 14 L 19 20 L 9 20 Z M 24 16 C 23.449219 16 23 16.449219 23 17 C 23 17.550781 23.449219 18 24 18 C 24.550781 18 25 17.550781 25 17 C 25 16.449219 24.550781 16 24 16 Z M 24 19 C 23.449219 19 23 19.449219 23 20 C 23 20.550781 23.449219 21 24 21 C 24.550781 21 25 20.550781 25 20 C 25 19.449219 24.550781 19 24 19 Z "></path>
</g>
</svg>
