<?xml version="1.0" encoding="UTF-8"?>
<svg xmlns="http://www.w3.org/2000/svg" xmlns:xlink="http://www.w3.org/1999/xlink" viewBox="0 0 32 32" version="1.1">
<g>
<path d="M 11.5 4 C 10.671875 4 10 4.671875 10 5.5 C 10 7.207031 10.230469 8.433594 10.46875 9.25 C 10.535156 9.472656 10.589844 9.609375 10.65625 9.78125 C 9.664063 10.507813 9 11.671875 9 13 C 9 18.429688 7.980469 21.75 6.75 23.625 C 5.519531 25.5 4.136719 26 3 26 L 3 28 L 7.625 28 C 10.53125 28 12.605469 27.363281 14 26.25 C 15.394531 25.136719 16 23.546875 16 22.03125 C 16 19.839844 15.285156 17.714844 14.8125 16.53125 C 16.101563 15.863281 17 14.539063 17 13 C 17 11.699219 16.347656 10.542969 15.375 9.8125 C 15.617188 9.355469 15.804688 8.753906 15.90625 7.9375 C 16.542969 7.761719 17 7.191406 17 6.5 C 17 5.671875 16.328125 5 15.5 5 C 14.671875 5 14 5.671875 14 6.5 C 14 8 13.71875 8.683594 13.5625 8.9375 C 13.503906 9.035156 13.507813 9.050781 13.5 9.0625 C 13.335938 9.042969 13.167969 9 13 9 C 12.832031 9 12.664063 9.042969 12.5 9.0625 C 12.457031 8.953125 12.433594 8.882813 12.375 8.6875 C 12.253906 8.277344 12.132813 7.671875 12.0625 6.875 C 12.613281 6.652344 13 6.132813 13 5.5 C 13 4.671875 12.328125 4 11.5 4 Z M 20.28125 6.75 L 19.90625 7.84375 C 19.90625 7.84375 19.03125 10.269531 19.03125 12.1875 L 19.03125 12.65625 L 19.40625 12.96875 C 20.039063 13.460938 20.339844 14.335938 20.25 15.03125 C 20.160156 15.726563 19.867188 16.207031 18.84375 16.375 L 18 16.53125 L 18 17.375 C 18 18.667969 18.710938 19.855469 19.75 20.6875 C 20.789063 21.519531 22.214844 21.984375 23.75 21.71875 L 23.40625 19.75 C 22.492188 19.910156 21.644531 19.640625 21 19.125 C 20.515625 18.738281 20.378906 18.25 20.25 17.8125 C 21.316406 17.238281 22.113281 16.347656 22.25 15.28125 C 22.40625 14.09375 21.898438 12.933594 21.0625 12 C 21.105469 11.222656 21.316406 10.578125 21.53125 9.8125 C 22.160156 10.171875 22.683594 10.390625 23.8125 11.3125 C 25.503906 12.691406 27 14.542969 27 16.15625 C 27 17.234375 26.695313 17.988281 26.375 18.5 C 25.757813 15.738281 24.90625 13.96875 24.90625 13.96875 L 23.09375 14.84375 C 23.09375 14.84375 25 18.742188 25 24 L 27 24 C 27 22.929688 26.929688 21.917969 26.8125 20.96875 C 26.914063 20.890625 29 19.261719 29 16.15625 C 29 13.441406 26.941406 11.316406 25.0625 9.78125 C 23.183594 8.246094 21.3125 7.28125 21.3125 7.28125 Z M 13.625 9.03125 L 13.625 9.0625 C 13.59375 9.058594 13.5625 9.066406 13.53125 9.0625 C 13.574219 9.046875 13.625 9.03125 13.625 9.03125 Z M 13 11 C 14.117188 11 15 11.882813 15 13 C 15 14.117188 14.117188 15 13 15 C 12.769531 15 12.546875 14.976563 12.34375 14.90625 L 11.6875 16.78125 C 12.039063 16.902344 12.421875 16.949219 12.8125 16.96875 C 13.207031 17.949219 14 20.136719 14 22.03125 C 14 23.066406 13.664063 23.957031 12.75 24.6875 C 11.835938 25.417969 10.242188 26 7.625 26 L 7.40625 26 C 7.769531 25.628906 8.117188 25.210938 8.4375 24.71875 C 9.976563 22.371094 11 18.671875 11 13 C 11 11.851563 11.875 11 13 11 Z "></path>
</g>
</svg>
