<?xml version="1.0" encoding="UTF-8"?>
<svg xmlns="http://www.w3.org/2000/svg" xmlns:xlink="http://www.w3.org/1999/xlink" viewBox="0 0 32 32" version="1.1">
<g>
<path d="M 5.28125 5 L 5.0625 5.6875 L 3.0625 11.6875 L 3 11.84375 L 3 12 C 3 12.878906 3.390625 13.667969 4 14.21875 L 4 27 L 28 27 L 28 14.21875 C 28.609375 13.667969 29 12.878906 29 12 L 29 11.84375 L 28.9375 11.6875 L 26.9375 5.6875 L 26.71875 5 Z M 6.71875 7 L 25.28125 7 L 26.96875 12.0625 C 26.933594 12.589844 26.539063 13 26 13 C 25.4375 13 25 12.5625 25 12 L 23 12 C 23 12.5625 22.5625 13 22 13 C 21.4375 13 21 12.5625 21 12 L 19 12 C 19 12.5625 18.5625 13 18 13 C 17.4375 13 17 12.5625 17 12 L 15 12 C 15 12.5625 14.5625 13 14 13 C 13.4375 13 13 12.5625 13 12 L 11 12 C 11 12.5625 10.5625 13 10 13 C 9.4375 13 9 12.5625 9 12 L 7 12 C 7 12.5625 6.5625 13 6 13 C 5.460938 13 5.066406 12.589844 5.03125 12.0625 Z M 8 14.21875 C 8.53125 14.699219 9.234375 15 10 15 C 10.765625 15 11.46875 14.699219 12 14.21875 C 12.53125 14.699219 13.234375 15 14 15 C 14.351563 15 14.683594 14.925781 15 14.8125 L 15 25 L 6 25 L 6 15 C 6.765625 15 7.46875 14.699219 8 14.21875 Z M 20 14.21875 C 20.53125 14.699219 21.234375 15 22 15 C 22.765625 15 23.46875 14.699219 24 14.21875 C 24.53125 14.699219 25.234375 15 26 15 L 26 25 L 17 25 L 17 14.8125 C 17.316406 14.925781 17.648438 15 18 15 C 18.765625 15 19.46875 14.699219 20 14.21875 Z M 14 18 C 13.171875 18 12.5 18.671875 12.5 19.5 C 12.5 20.328125 13.171875 21 14 21 Z M 18 18 L 18 21 C 18.828125 21 19.5 20.328125 19.5 19.5 C 19.5 18.671875 18.828125 18 18 18 Z "></path>
</g>
</svg>
