<?xml version="1.0" encoding="UTF-8"?>
<svg xmlns="http://www.w3.org/2000/svg" xmlns:xlink="http://www.w3.org/1999/xlink" viewBox="0 0 32 32" version="1.1">
<g>
<path d="M 20.09375 1.96875 L 15.0625 7 L 15.90625 7.84375 L 13.3125 10.4375 L 13.25 10.71875 L 13.1875 10.96875 L 13.09375 11.21875 C 12.855469 12.097656 11.757813 14.992188 10.875 15.875 C 10.320313 16.429688 9.820313 16.679688 8.96875 17.09375 C 7.90625 17.609375 6.410156 18.339844 4.875 19.875 C 3.21875 21.53125 2.214844 22.949219 1.15625 26.03125 C 0.898438 26.785156 0.964844 27.597656 1.3125 28.3125 C 1.660156 29.027344 2.277344 29.585938 3.03125 29.84375 C 3.34375 29.953125 3.667969 30 4 30 C 5.277344 30 6.429688 29.179688 6.84375 27.96875 C 7.675781 25.550781 8.042969 25.207031 9.125 24.125 C 9.96875 23.28125 10.640625 22.964844 11.59375 22.5 C 12.589844 22.015625 13.855469 21.394531 15.125 20.125 C 17.144531 18.105469 18.207031 15.03125 18.65625 13.59375 L 20.15625 12.09375 C 22.625 14.5625 23.09375 17 23.09375 17 L 23.28125 18 L 24.28125 17.8125 C 24.28125 17.8125 26.417969 17.332031 28.40625 15.34375 C 30.363281 13.386719 30.84375 11.53125 30.84375 11.53125 L 31.0625 10.59375 L 30.15625 10.34375 C 30.15625 10.34375 27.773438 9.648438 25.15625 7.03125 L 24.96875 6.875 L 25.46875 6.375 L 26.1875 5.6875 L 25.46875 4.96875 L 23.21875 2.6875 L 22.5 2 L 21.78125 2.71875 C 21.78125 2.71875 21.542969 2.957031 21.3125 3.1875 C 21.265625 3.140625 20.8125 2.6875 20.8125 2.6875 Z M 20.09375 4.8125 C 20.519531 5.238281 21.398438 6.148438 23.71875 8.46875 C 25.84375 10.59375 27.558594 11.398438 28.5625 11.8125 C 28.304688 12.328125 27.859375 13.046875 26.96875 13.9375 C 26.058594 14.847656 25.273438 15.277344 24.6875 15.53125 C 24.339844 14.460938 23.636719 12.730469 21.59375 10.6875 L 17.90625 7 Z M 17.3125 9.25 L 18.75 10.6875 L 17.0625 12.34375 L 16.90625 12.53125 L 16.84375 12.75 C 16.464844 13.972656 15.277344 17.160156 13.71875 18.71875 L 13.59375 18.8125 C 12.613281 19.753906 11.667969 20.226563 10.71875 20.6875 C 9.765625 21.152344 8.773438 21.664063 7.71875 22.71875 L 7.625 22.8125 C 6.5625 23.886719 5.828125 24.8125 4.96875 27.3125 C 4.828125 27.71875 4.429688 28 4 28 C 3.890625 28 3.792969 27.972656 3.6875 27.9375 C 3.429688 27.847656 3.214844 27.683594 3.09375 27.4375 C 2.972656 27.1875 2.972656 26.949219 3.0625 26.6875 C 4.066406 23.769531 4.71875 22.84375 6.28125 21.28125 C 7.59375 19.96875 8.78125 19.421875 9.84375 18.90625 C 10.695313 18.492188 11.488281 18.074219 12.28125 17.28125 C 13.882813 15.679688 14.730469 12.867188 15.03125 11.75 L 15.09375 11.46875 Z "></path>
</g>
</svg>
