<?xml version="1.0" encoding="UTF-8"?>
<svg xmlns="http://www.w3.org/2000/svg" xmlns:xlink="http://www.w3.org/1999/xlink" viewBox="0 0 32 32" version="1.1">
<g>
<path d="M 5 5 L 5 27 L 27 27 L 27 5 Z M 7 7 L 12 7 L 12 12 L 7 12 Z M 14 7 L 18 7 L 18 12 L 14 12 Z M 20 7 L 25 7 L 25 12 L 20 12 Z M 9.5 8 C 8.671875 8 8 8.671875 8 9.5 C 8 10.328125 8.671875 11 9.5 11 C 10.328125 11 11 10.328125 11 9.5 C 11 8.671875 10.328125 8 9.5 8 Z M 16 8 C 15.449219 8 15 8.671875 15 9.5 C 15 10.328125 15.449219 11 16 11 C 16.550781 11 17 10.328125 17 9.5 C 17 8.671875 16.550781 8 16 8 Z M 22.5 8 L 21 11 L 24 11 Z M 7 14 L 12 14 L 12 18 L 7 18 Z M 14 14 L 18 14 L 18 18 L 14 18 Z M 20 14 L 25 14 L 25 18 L 20 18 Z M 9 15 C 8.449219 15 8 15.449219 8 16 C 8 16.550781 8.449219 17 9 17 L 10 17 C 10.550781 17 11 16.550781 11 16 C 11 15.449219 10.550781 15 10 15 Z M 15 15 L 15 17 L 17 17 L 17 15 Z M 22.5 15 C 21.671875 15 21 15.449219 21 16 C 21 16.550781 21.671875 17 22.5 17 C 23.328125 17 24 16.550781 24 16 C 24 15.449219 23.328125 15 22.5 15 Z M 7 20 L 12 20 L 12 25 L 7 25 Z M 14 20 L 18 20 L 18 25 L 14 25 Z M 20 20 L 25 20 L 25 25 L 20 25 Z M 8 21 L 8 24 L 11 24 L 11 21 Z M 16 21 C 15.449219 21 15 21.449219 15 22 L 15 23 C 15 23.550781 15.449219 24 16 24 C 16.550781 24 17 23.550781 17 23 L 17 22 C 17 21.449219 16.550781 21 16 21 Z M 22.5 21 C 21.671875 21 21 21.671875 21 22.5 C 21 23.328125 21.671875 24 22.5 24 C 23.328125 24 24 23.328125 24 22.5 C 24 21.671875 23.328125 21 22.5 21 Z "></path>
</g>
</svg>
