<?xml version="1.0" encoding="UTF-8"?>
<svg xmlns="http://www.w3.org/2000/svg" xmlns:xlink="http://www.w3.org/1999/xlink" viewBox="0 0 32 32" version="1.1">
<g>
<path d="M 23 4.53125 L 23 19.5625 C 22.410156 19.222656 21.730469 19 21 19 C 18.789063 19 17 20.789063 17 23 C 17 25.210938 18.789063 27 21 27 C 23.210938 27 25 25.210938 25 23 L 25 7.5 L 28.625 8.9375 L 29.375 7.0625 L 24.375 5.0625 Z M 8 5 L 8 6.1875 C 7.902344 6.222656 7.8125 6.265625 7.71875 6.3125 L 6.875 5.46875 L 5.46875 6.875 L 6.3125 7.71875 C 6.269531 7.8125 6.222656 7.902344 6.1875 8 L 5 8 L 5 10 L 6.1875 10 C 6.222656 10.097656 6.269531 10.1875 6.3125 10.28125 L 5.46875 11.125 L 6.875 12.53125 L 7.71875 11.6875 C 7.8125 11.734375 7.902344 11.777344 8 11.8125 L 8 13 L 10 13 L 10 11.8125 C 10.097656 11.777344 10.1875 11.730469 10.28125 11.6875 L 11.125 12.53125 L 12.53125 11.125 L 11.6875 10.28125 C 11.730469 10.1875 11.777344 10.097656 11.8125 10 L 13 10 L 13 8 L 11.8125 8 C 11.777344 7.902344 11.730469 7.8125 11.6875 7.71875 L 12.53125 6.875 L 11.125 5.46875 L 10.28125 6.3125 C 10.1875 6.265625 10.097656 6.222656 10 6.1875 L 10 5 Z M 13.5 5 L 15 6.5 L 15 7 L 21 7 L 21 5 Z M 9 8 C 9.550781 8 10 8.449219 10 9 C 10 9.550781 9.550781 10 9 10 C 8.449219 10 8 9.550781 8 9 C 8 8.449219 8.449219 8 9 8 Z M 15 10 L 15 11.5 L 14.5 12 L 21 12 L 21 10 Z M 5 15 L 5 17 L 21 17 L 21 15 Z M 5 20 L 5 22 L 15.09375 22 C 15.214844 21.28125 15.460938 20.609375 15.8125 20 Z M 5 25 L 5 27 L 16.53125 27 C 16.011719 26.421875 15.609375 25.746094 15.34375 25 Z "></path>
</g>
</svg>
