<?xml version="1.0"?>
<svg xmlns="http://www.w3.org/2000/svg" viewBox="0 0 32 32">
    <path d="M 10 4 C 8.3550302 4 7 5.3550302 7 7 L 7 25 C 7 26.64497 8.3550302 28 10 28 L 15 28 L 15 26 L 10 26 C 9.4349698 26 9 25.56503 9 25 L 9 7 C 9 6.4349698 9.4349698 6 10 6 L 20 6 C 20.56503 6 21 6.4349698 21 7 L 21 13 L 23 13 L 23 7 C 23 5.3550302 21.64497 4 20 4 L 10 4 z M 13 7 L 13 9 L 17 9 L 17 7 L 13 7 z M 21.894531 15.552734 L 20.105469 16.447266 L 20.824219 17.882812 C 20.174706 18.142904 19.572367 18.529178 19.050781 19.050781 C 18.528948 19.572634 18.147637 20.17644 17.888672 20.826172 L 16.447266 20.105469 L 15.552734 21.894531 L 17.492188 22.863281 C 17.481631 23.431943 17.538517 24.009033 17.677734 24.582031 L 15.90625 25.171875 L 16.539062 27.070312 L 18.410156 26.447266 C 18.608999 26.806689 18.839896 27.153096 19.099609 27.486328 L 17.636719 28.949219 L 19.050781 30.363281 L 20.513672 28.900391 C 20.775034 29.104103 21.044152 29.292585 21.322266 29.458984 L 20.898438 31.582031 L 22.859375 31.974609 L 23.199219 30.271484 C 23.199219 30.271484 23.201172 30.271484 23.201172 30.271484 C 25.269819 30.843132 27.444198 30.456245 28.951172 28.949219 C 30.458146 27.442192 30.845088 25.267562 30.273438 23.199219 L 31.974609 22.859375 L 31.582031 20.898438 L 29.460938 21.322266 C 29.294407 21.043961 29.104296 20.775208 28.900391 20.513672 L 30.363281 19.050781 L 28.949219 17.636719 L 27.488281 19.097656 C 27.154795 18.837785 26.806988 18.605209 26.447266 18.40625 L 27.070312 16.539062 L 25.171875 15.90625 L 24.580078 17.679688 C 24.030885 17.546322 23.477406 17.471809 22.931641 17.476562 C 22.907156 17.476776 22.883823 17.483877 22.859375 17.484375 L 21.894531 15.552734 z M 23.066406 19.482422 C 23.223219 19.485919 23.381212 19.497071 23.541016 19.515625 C 23.685993 20.714144 23.359553 21.812318 22.585938 22.585938 C 21.812662 23.359213 20.714694 23.684682 19.517578 23.541016 C 19.379822 22.355438 19.697739 21.231975 20.464844 20.464844 C 21.0251 19.904568 21.775802 19.579126 22.601562 19.498047 C 22.753961 19.483083 22.909593 19.478925 23.066406 19.482422 z M 25.558594 20.214844 C 26.001118 20.47076 26.432126 20.77589 26.828125 21.171875 C 28.524359 22.86805 28.908434 25.130248 28.115234 26.701172 L 24.634766 23.220703 C 25.229131 22.330774 25.528502 21.287598 25.558594 20.214844 z M 23.220703 24.634766 L 26.701172 28.115234 C 25.12992 28.907333 22.867282 28.523473 21.171875 26.828125 C 20.77612 26.432384 20.472656 26.000818 20.216797 25.558594 C 21.289081 25.528113 22.331174 25.229008 23.220703 24.634766 z"></path>
</svg>
