<?xml version="1.0"?>
<svg xmlns="http://www.w3.org/2000/svg" viewBox="0 0 32 32">
    <path d="M 9 3 C 7.3550302 3 6 4.3550302 6 6 L 6 26 C 6 27.64497 7.3550302 29 9 29 L 19 29 C 20.64497 29 22 27.64497 22 26 L 22 11 L 20 11 L 20 26 C 20 26.56503 19.56503 27 19 27 L 9 27 C 8.4349698 27 8 26.56503 8 26 L 8 6 C 8 5.4349698 8.4349698 5 9 5 L 16 5 L 16 3 L 9 3 z M 18 3 L 18 4 L 18 5 L 15 9 L 18 9 L 29 9 L 29 3 L 18 3 z M 20 5 L 27 5 L 27 7 L 20 7 L 20 5 z M 14 10 C 11.802706 10 10 11.802706 10 14 C 10 15.459463 10.804431 16.731012 11.982422 17.429688 C 10.225578 18.204065 9 19.95261 9 22 L 11 22 C 11 20.343 12.343 19 14 19 C 15.657 19 17 20.343 17 22 L 19 22 C 19 19.95261 17.774422 18.204065 16.017578 17.429688 C 17.195569 16.731012 18 15.459463 18 14 C 18 11.802706 16.197294 10 14 10 z M 14 12 C 15.116414 12 16 12.883586 16 14 C 16 15.116414 15.116414 16 14 16 C 12.883586 16 12 15.116414 12 14 C 12 12.883586 12.883586 12 14 12 z M 14 24 C 13.449 24 13 24.449 13 25 C 13 25.551 13.449 26 14 26 C 14.551 26 15 25.551 15 25 C 15 24.449 14.551 24 14 24 z"></path>
</svg>
