<?xml version="1.0"?>
<svg xmlns="http://www.w3.org/2000/svg" viewBox="0 0 32 32">
    <path d="M 8 3 C 6.3550302 3 5 4.3550302 5 6 L 5 26 C 5 27.64497 6.3550302 29 8 29 L 18 29 C 19.64497 29 21 27.64497 21 26 L 21 11 L 19 11 L 19 26 C 19 26.56503 18.56503 27 18 27 L 8 27 C 7.4349698 27 7 26.56503 7 26 L 7 6 C 7 5.4349698 7.4349698 5 8 5 L 15 5 L 15 3 L 8 3 z M 17 3 L 17 4 L 17 5.25 L 14 9 L 18 9 L 28 9 L 28 3 L 17 3 z M 19 5 L 26 5 L 26 7 L 19 7 L 19 5 z M 13 10 C 10.802706 10 9 11.802706 9 14 L 9 18 L 10.021484 18 C 8.7996773 18.910502 8 20.354725 8 22 L 10 22 C 10 20.343 11.343 19 13 19 C 14.657 19 16 20.343 16 22 L 18 22 C 18 20.354725 17.200323 18.910502 15.978516 18 L 17 18 L 17 14 C 17 11.802706 15.197294 10 13 10 z M 13 12 C 14.116414 12 15 12.883586 15 14 C 15 15.116414 14.116414 16 13 16 C 11.883586 16 11 15.116414 11 14 C 11 12.883586 11.883586 12 13 12 z M 13 24 C 12.449 24 12 24.449 12 25 C 12 25.551 12.449 26 13 26 C 13.551 26 14 25.551 14 25 C 14 24.449 13.551 24 13 24 z"></path>
</svg>
