<?xml version="1.0"?>
<svg xmlns="http://www.w3.org/2000/svg" viewBox="0 0 32 32">
    <path d="M 11 4 C 9.3550302 4 8 5.3550302 8 7 L 8 25 C 8 26.64497 9.3550302 28 11 28 L 21 28 C 22.64497 28 24 26.64497 24 25 L 24 7 C 24 5.3550302 22.64497 4 21 4 L 11 4 z M 11 6 L 21 6 C 21.56503 6 22 6.4349698 22 7 L 22 25 C 22 25.56503 21.56503 26 21 26 L 11 26 C 10.43497 26 10 25.56503 10 25 L 10 7 C 10 6.4349698 10.43497 6 11 6 z M 12.707031 10.292969 L 11.292969 11.707031 L 14.585938 15 L 11.292969 18.292969 L 12.707031 19.707031 L 16 16.414062 L 19.292969 19.707031 L 20.707031 18.292969 L 17.414062 15 L 20.707031 11.707031 L 19.292969 10.292969 L 16 13.585938 L 12.707031 10.292969 z M 14 23 L 14 25 L 18 25 L 18 23 L 14 23 z" font-weight="400" font-family="sans-serif" white-space="normal" overflow="visible"></path>
</svg>
