<?xml version="1.0"?>
<svg xmlns="http://www.w3.org/2000/svg" viewBox="0 0 32 32">
    <path d="M 20 0 L 20 1 L 20 6 L 17 10 L 20 10 L 32 10 L 32 0 L 20 0 z M 22 2 L 30 2 L 30 8 L 22 8 L 22 2 z M 11 5 C 9.3550302 5 8 6.3550302 8 8 L 8 26 C 8 27.64497 9.3550302 29 11 29 L 21 29 C 22.64497 29 24 27.64497 24 26 L 24 12 L 22 12 L 22 26 C 22 26.56503 21.56503 27 21 27 L 11 27 C 10.43497 27 10 26.56503 10 26 L 10 8 C 10 7.4349698 10.43497 7 11 7 L 18 7 L 18 5 L 11 5 z M 16 11 C 13.802706 11 12 12.802706 12 15 C 12 16.459463 12.804431 17.731012 13.982422 18.429688 C 12.225578 19.204065 11 20.95261 11 23 L 13 23 C 13 21.343 14.343 20 16 20 C 17.657 20 19 21.343 19 23 L 21 23 C 21 20.95261 19.774422 19.204065 18.017578 18.429688 C 19.195569 17.731012 20 16.459463 20 15 C 20 12.802706 18.197294 11 16 11 z M 16 13 C 17.116414 13 18 13.883586 18 15 C 18 16.116414 17.116414 17 16 17 C 14.883586 17 14 16.116414 14 15 C 14 13.883586 14.883586 13 16 13 z M 16 24 C 15.449 24 15 24.449 15 25 C 15 25.551 15.449 26 16 26 C 16.551 26 17 25.551 17 25 C 17 24.449 16.551 24 16 24 z"></path>
</svg>
