<?xml version="1.0"?>
<svg xmlns="http://www.w3.org/2000/svg" viewBox="0 0 32 32">
    <path d="M 10 3 C 8.3550302 3 7 4.3550302 7 6 L 7 26 C 7 27.64497 8.3550302 29 10 29 L 17 29 L 17 27 L 10 27 C 9.4349698 27 9 26.56503 9 26 L 9 6 C 9 5.4349698 9.4349698 5 10 5 L 18 5 C 18.56503 5 19 5.4349698 19 6 L 19 9 L 21 9 L 21 6 C 21 4.3550302 19.64497 3 18 3 L 10 3 z M 14 6 A 1 1 0 0 0 13 7 A 1 1 0 0 0 14 8 A 1 1 0 0 0 15 7 A 1 1 0 0 0 14 6 z M 19.894531 10.552734 L 18.105469 11.447266 L 18.826172 12.888672 C 18.176812 13.148582 17.572321 13.529223 17.050781 14.050781 C 16.529242 14.572339 16.148559 15.176803 15.888672 15.826172 L 14.447266 15.105469 L 13.552734 16.894531 L 15.482422 17.859375 C 15.470924 18.429027 15.538276 19.008039 15.677734 19.582031 L 13.90625 20.171875 L 14.539062 22.070312 L 16.410156 21.447266 C 16.60881 21.8064 16.840184 22.153334 17.099609 22.486328 L 15.636719 23.949219 L 17.050781 25.363281 L 18.513672 23.900391 C 18.775229 24.10429 19.043929 24.29441 19.322266 24.460938 L 18.898438 26.582031 L 20.859375 26.974609 L 21.199219 25.271484 C 21.199219 25.271484 21.201172 25.271484 21.201172 25.271484 C 23.269819 25.843132 25.444198 25.456245 26.951172 23.949219 C 28.458146 22.442192 28.845157 20.267846 28.273438 18.199219 L 29.974609 17.859375 L 29.582031 15.898438 L 27.462891 16.322266 C 27.296023 16.043183 27.104823 15.775893 26.900391 15.513672 L 28.363281 14.050781 L 26.949219 12.636719 L 25.488281 14.097656 C 25.155068 13.83802 24.806656 13.608936 24.447266 13.410156 L 25.070312 11.539062 L 23.171875 10.90625 L 22.582031 12.677734 C 22.008039 12.538297 21.429022 12.468952 20.859375 12.480469 L 19.894531 10.552734 z M 20.601562 14.498047 C 20.906359 14.46812 21.221408 14.478517 21.541016 14.515625 C 21.685993 15.714144 21.359554 16.812318 20.585938 17.585938 C 19.812662 18.359213 18.714694 18.684682 17.517578 18.541016 C 17.379883 17.355513 17.697783 16.231931 18.464844 15.464844 C 19.0251 14.904568 19.775801 14.579126 20.601562 14.498047 z M 23.558594 15.216797 C 24.000985 15.47268 24.434191 15.776001 24.830078 16.171875 C 26.526132 17.86787 26.908499 20.130114 26.115234 21.701172 L 22.628906 18.214844 C 23.224609 17.3263 23.528212 16.288114 23.558594 15.216797 z M 21.214844 19.628906 L 24.701172 23.115234 C 23.130167 23.908091 20.867682 23.523873 19.171875 21.828125 C 18.77612 21.432384 18.472656 21.000818 18.216797 20.558594 C 19.288065 20.528142 20.326303 20.224741 21.214844 19.628906 z"></path>
</svg>
