<?xml version="1.0" encoding="UTF-8"?>
<svg xmlns="http://www.w3.org/2000/svg" xmlns:xlink="http://www.w3.org/1999/xlink" viewBox="0 0 32 32" version="1.1">
<g>
<path d="M 15 6 C 11.699219 6 9 8.699219 9 12 C 9 12.167969 9.046875 12.308594 9.0625 12.46875 C 7.277344 13.234375 6 14.945313 6 17 C 6 17.507813 6.234375 17.917969 6.375 18.375 C 4.433594 19.058594 3 20.828125 3 23 C 3 24.488281 3.648438 25.835938 4.6875 26.75 L 6.03125 25.25 C 5.40625 24.699219 5 23.902344 5 23 C 5 21.441406 6.171875 20.191406 7.6875 20.03125 L 9.25 19.875 L 8.4375 18.53125 C 8.160156 18.070313 8 17.554688 8 17 C 8 15.558594 9.003906 14.359375 10.34375 14.0625 L 11.3125 13.875 L 11.09375 12.875 C 11.027344 12.578125 11 12.292969 11 12 C 11 9.78125 12.78125 8 15 8 C 16.949219 8 18.539063 9.390625 18.90625 11.21875 L 19.09375 12.03125 L 19.9375 12 C 20.128906 11.996094 20.140625 12 20 12 C 21.667969 12 23 13.332031 23 15 L 23 16 L 24 16 C 25.667969 16 27 17.332031 27 19 C 27 19.707031 26.738281 20.347656 26.3125 20.875 L 25.8125 21.5 L 26.3125 22.125 C 26.738281 22.652344 27 23.292969 27 24 C 27 24.550781 26.847656 25.058594 26.59375 25.5 L 28.34375 26.5 C 28.769531 25.765625 29 24.90625 29 24 C 29 23.0625 28.664063 22.242188 28.21875 21.5 C 28.664063 20.757813 29 19.9375 29 19 C 29 16.539063 27.160156 14.59375 24.8125 14.1875 C 24.441406 12.039063 22.773438 10.398438 20.59375 10.125 C 19.792969 7.75 17.632813 6 15 6 Z M 14 12 L 14 21 L 11 18 L 12 23 L 8 23 L 12 26 L 20.9375 26 L 24 24 L 21 24 L 23 20 L 19 21 L 20 15 L 17 19 Z "></path>
</g>
</svg>
