<?xml version="1.0" encoding="UTF-8"?>
<svg xmlns="http://www.w3.org/2000/svg" xmlns:xlink="http://www.w3.org/1999/xlink" viewBox="0 0 32 32" version="1.1">
<g>
<path d="M 23.4375 3.15625 L 11.4375 11.15625 L 12.5625 12.84375 L 19.40625 8.28125 C 19.785156 8.34375 20.175781 8.390625 20.53125 8.46875 L 23.1875 7.125 C 22.746094 6.964844 22.269531 6.816406 21.78125 6.6875 L 24.5625 4.84375 Z M 16 6 C 9.160156 6 4 8.578125 4 12 L 4 21 C 4 21.988281 4.445313 22.894531 5.125 23.625 C 5.804688 24.355469 6.730469 24.945313 7.8125 25.4375 C 9.976563 26.421875 12.839844 27 16 27 C 19.160156 27 22.023438 26.421875 24.1875 25.4375 C 25.269531 24.945313 26.195313 24.355469 26.875 23.625 C 27.554688 22.894531 28 21.988281 28 21 L 28 12 C 28 10.988281 27.53125 10.066406 26.71875 9.25 L 29.4375 7.90625 L 28.5625 6.09375 L 14.5625 13.09375 L 15.4375 14.90625 L 24.8125 10.21875 C 25.574219 10.785156 26 11.40625 26 12 C 26 13.886719 21.722656 16 16 16 C 10.277344 16 6 13.886719 6 12 C 6 10.433594 8.941406 8.726563 13.21875 8.1875 L 16.46875 6 C 16.308594 5.996094 16.160156 6 16 6 Z M 6 15.40625 C 7.015625 16.171875 8.378906 16.800781 10 17.25 L 10 24.15625 C 9.5 24 9.042969 23.816406 8.625 23.625 C 7.71875 23.210938 7.027344 22.714844 6.59375 22.25 C 6.160156 21.785156 6 21.394531 6 21 Z M 26 15.40625 L 26 21 C 26 21.394531 25.839844 21.785156 25.40625 22.25 C 24.972656 22.714844 24.28125 23.210938 23.375 23.625 C 22.957031 23.816406 22.5 24 22 24.15625 L 22 17.25 C 23.621094 16.800781 24.984375 16.171875 26 15.40625 Z M 12 17.6875 C 13.242188 17.894531 14.582031 18 16 18 C 17.417969 18 18.757813 17.894531 20 17.6875 L 20 24.625 C 18.769531 24.855469 17.421875 25 16 25 C 14.578125 25 13.230469 24.855469 12 24.625 Z "></path>
</g>
</svg>
