<?xml version="1.0" encoding="UTF-8"?>
<svg xmlns="http://www.w3.org/2000/svg" xmlns:xlink="http://www.w3.org/1999/xlink" viewBox="0 0 32 32" version="1.1">
<g>
<path d="M 6 3 C 5.253906 3 4.519531 3.074219 3.8125 3.21875 L 4.210938 5.179688 C 4.785156 5.0625 5.386719 5 6 5 C 9.835938 5 12.019531 6.035156 13.296875 7.363281 C 14.570313 8.691406 15 10.414063 15 12 L 15 12.300781 L 17.953125 16.730469 C 18.066406 16.894531 18.007813 17.0625 17.8125 17.125 L 15 18.019531 L 15 21 C 15 21.65625 14.636719 22.441406 14.042969 23.035156 C 13.445313 23.632813 12.664063 24 12 24 L 10 24 L 10 28 L 12 28 L 12 26 C 13.335938 26 14.554688 25.359375 15.457031 24.449219 C 16.363281 23.539063 17 22.328125 17 21 L 17 19.480469 L 18.421875 19.03125 C 19.832031 18.582031 20.4375 16.847656 19.617188 15.617188 L 16.9375 11.601563 C 16.867188 9.738281 16.339844 7.648438 14.734375 5.976563 C 13.019531 4.191406 10.207031 3 6 3 Z M 12 13 C 11.449219 13 11 13.449219 11 14 C 11 14.550781 11.449219 15 12 15 C 12.550781 15 13 14.550781 13 14 C 13 13.449219 12.550781 13 12 13 Z M 27 17 C 26.449219 17 26 17.449219 26 18 C 26 18.550781 26.449219 19 27 19 C 27.550781 19 28 18.550781 28 18 C 28 17.449219 27.550781 17 27 17 Z M 24 19 C 23.449219 19 23 19.449219 23 20 C 23 20.550781 23.449219 21 24 21 C 24.550781 21 25 20.550781 25 20 C 25 19.449219 24.550781 19 24 19 Z M 21 21 C 20.449219 21 20 21.449219 20 22 C 20 22.550781 20.449219 23 21 23 C 21.550781 23 22 22.550781 22 22 C 22 21.449219 21.550781 21 21 21 Z M 27 21 C 26.449219 21 26 21.449219 26 22 C 26 22.550781 26.449219 23 27 23 C 27.550781 23 28 22.550781 28 22 C 28 21.449219 27.550781 21 27 21 Z M 24 23 C 23.449219 23 23 23.449219 23 24 C 23 24.550781 23.449219 25 24 25 C 24.550781 25 25 24.550781 25 24 C 25 23.449219 24.550781 23 24 23 Z M 27 25 C 26.449219 25 26 25.449219 26 26 C 26 26.550781 26.449219 27 27 27 C 27.550781 27 28 26.550781 28 26 C 28 25.449219 27.550781 25 27 25 Z "></path>
</g>
</svg>
