<?xml version="1.0" encoding="UTF-8"?>
<svg xmlns="http://www.w3.org/2000/svg" xmlns:xlink="http://www.w3.org/1999/xlink" viewBox="0 0 32 32" version="1.1">
<g>
<path d="M 9.28125 4.03125 C 8.511719 4.03125 7.738281 4.324219 7.15625 4.90625 C 6.71875 5.34375 6.453125 5.898438 6.34375 6.46875 C 6.238281 6.457031 6.136719 6.4375 6.03125 6.4375 C 5.261719 6.4375 4.488281 6.730469 3.90625 7.3125 C 2.839844 8.378906 2.769531 10.078125 3.65625 11.25 C 3.203125 11.457031 2.785156 11.78125 2.46875 12.21875 C 1.574219 13.464844 1.816406 15.128906 2.84375 16.15625 L 2.875 16.1875 L 14.3125 27.3125 C 16.570313 29.546875 20.25 29.5625 22.5 27.3125 L 22.71875 27.0625 L 23.78125 26 C 24.917969 24.863281 26.253906 23.566406 26.71875 21.75 L 28.875 13.90625 L 28.84375 13.90625 C 29.34375 12.355469 28.488281 10.671875 26.9375 10.15625 C 26.628906 10.050781 26.324219 10 26 10 C 24.714844 10 23.5625 10.84375 23.15625 12.0625 L 22.0625 15.5625 L 19.46875 12.96875 L 11.5625 5.09375 L 11.40625 4.90625 C 10.824219 4.324219 10.050781 4.03125 9.28125 4.03125 Z M 15.3125 4.0625 L 14.6875 5.9375 C 17.917969 7.03125 20.15625 10.53125 20.15625 10.53125 L 21.84375 9.46875 C 21.84375 9.46875 19.453125 5.46875 15.3125 4.0625 Z M 9.25 6 C 9.5 6 9.769531 6.113281 9.96875 6.3125 L 23 19.34375 L 23.5 17.75 L 25.0625 12.6875 C 25.203125 12.269531 25.566406 12 26 12 C 26.109375 12 26.210938 12.027344 26.3125 12.0625 C 26.84375 12.238281 27.113281 12.78125 26.9375 13.3125 L 26.9375 13.375 L 24.78125 21.25 C 24.496094 22.351563 23.492188 23.472656 22.375 24.59375 L 21.0625 25.875 C 19.570313 27.367188 17.210938 27.367188 15.71875 25.875 L 15.6875 25.875 L 4.28125 14.75 C 3.898438 14.367188 3.824219 13.777344 4.09375 13.40625 C 4.492188 12.855469 5.15625 12.8125 5.59375 13.25 L 10.96875 18.625 L 12.40625 17.21875 L 7.03125 11.84375 C 7 11.8125 6.96875 11.78125 6.9375 11.75 L 5.3125 10.15625 C 4.914063 9.757813 4.914063 9.148438 5.3125 8.75 C 5.710938 8.351563 6.351563 8.351563 6.75 8.75 L 13.8125 15.8125 L 15.21875 14.40625 L 8.5625 7.75 C 8.164063 7.351563 8.164063 6.710938 8.5625 6.3125 C 8.761719 6.113281 9 6 9.25 6 Z M 4.4375 20.65625 L 2.65625 21.5625 L 3.125 22.46875 C 3.125 22.46875 4.988281 26.210938 8.5625 27.90625 L 9.46875 28.34375 L 10.34375 26.53125 L 9.4375 26.09375 C 6.679688 24.789063 4.875 21.53125 4.875 21.53125 Z "></path>
</g>
</svg>
