<?xml version="1.0" encoding="UTF-8"?>
<svg xmlns="http://www.w3.org/2000/svg" xmlns:xlink="http://www.w3.org/1999/xlink" viewBox="0 0 32 32" version="1.1">
<g>
<path d="M 13 4 L 13 5 L 9 5 L 9 7 L 13 7 L 13 9 L 15 9 L 15 6 L 17 6 L 17 9 L 19 9 L 19 4 Z M 12 10 L 12 12 C 10.355469 12 9 13.355469 9 15 L 9 28 L 23 28 L 23 15 C 23 13.355469 21.644531 12 20 12 L 20 10 Z M 14 12 L 18 12 L 18 14 L 20 14 C 20.566406 14 21 14.433594 21 15 L 21 26 L 11 26 L 11 15 C 11 14.433594 11.433594 14 12 14 L 14 14 Z "></path>
</g>
</svg>
