<?xml version="1.0" encoding="UTF-8"?>
<svg xmlns="http://www.w3.org/2000/svg" xmlns:xlink="http://www.w3.org/1999/xlink" viewBox="0 0 32 32" version="1.1">
<g>
<path d="M 13 5 C 10.800781 5 9 6.800781 9 9 C 9 9.433594 9.089844 9.855469 9.21875 10.25 C 6.222656 11.050781 4 13.792969 4 17 L 4 19 C 4 22.84375 7.15625 26 11 26 L 21 26 C 24.84375 26 28 22.84375 28 19 L 28 17 C 28 14.597656 26.78125 12.425781 24.875 11.1875 C 24.515625 9.9375 23.359375 9 22 9 C 21.121094 9 20.332031 9.390625 19.78125 10 L 16.84375 10 C 16.925781 9.679688 17 9.34375 17 9 C 17 6.800781 15.199219 5 13 5 Z M 13 7 C 14.117188 7 15 7.882813 15 9 C 15 10.117188 14.117188 11 13 11 C 11.882813 11 11 10.117188 11 9 C 11 7.882813 11.882813 7 13 7 Z M 22 11 C 22.5625 11 23 11.4375 23 12 C 23 12.5625 22.5625 13 22 13 C 21.4375 13 21 12.5625 21 12 C 21 11.4375 21.4375 11 22 11 Z M 15.59375 12 L 19 12 C 19 13.644531 20.355469 15 22 15 C 23.085938 15 24.035156 14.40625 24.5625 13.53125 C 25.429688 14.425781 26 15.660156 26 17 L 26 19 C 26 21.753906 23.753906 24 21 24 L 11 24 C 8.246094 24 6 21.753906 6 19 L 6 17 C 6 14.476563 7.964844 12.316406 10.4375 12.03125 C 11.136719 12.625 12.019531 13 13 13 C 13.996094 13 14.890625 12.609375 15.59375 12 Z M 16 14 C 14.355469 14 13 15.355469 13 17 C 13 18.644531 14.355469 20 16 20 C 17.644531 20 19 18.644531 19 17 C 19 15.355469 17.644531 14 16 14 Z M 16 16 C 16.5625 16 17 16.4375 17 17 C 17 17.5625 16.5625 18 16 18 C 15.4375 18 15 17.5625 15 17 C 15 16.4375 15.4375 16 16 16 Z "></path>
</g>
</svg>
