<?xml version="1.0" encoding="UTF-8"?>
<svg xmlns="http://www.w3.org/2000/svg" xmlns:xlink="http://www.w3.org/1999/xlink" viewBox="0 0 32 32" version="1.1">
<g>
<path d="M 7 3 L 7 21 L 9.34375 21 C 9.128906 22.128906 9 23.179688 9 24 C 9 25.523438 9.566406 26.816406 10.5 27.6875 C 11.433594 28.558594 12.683594 29 14 29 L 21.03125 29 C 22.421875 29 23.554688 27.996094 23.875 26.65625 L 23.9375 26.6875 L 26.5625 19.40625 L 26.59375 19.3125 L 26.59375 19.25 C 26.886719 17.636719 26.378906 15.972656 25.21875 14.8125 L 22 11.5625 L 22 3 Z M 9 5 L 20 5 L 20 19 L 17 19 L 17 14.9375 C 17 14.9375 17.027344 14.109375 16.75 13.1875 C 16.613281 12.726563 16.414063 12.21875 16 11.78125 C 15.585938 11.34375 14.917969 11 14.1875 11 C 13.351563 11 12.566406 11.34375 12.03125 11.90625 C 11.511719 12.453125 11.226563 13.140625 11.0625 13.90625 L 11.03125 13.90625 C 11.03125 13.90625 11.03125 13.96875 11.03125 13.96875 C 11.015625 14.019531 10.527344 15.785156 10.03125 17.90625 C 9.945313 18.265625 9.863281 18.632813 9.78125 19 L 9 19 Z M 14.1875 13 C 14.402344 13 14.429688 13.046875 14.53125 13.15625 C 14.632813 13.265625 14.761719 13.480469 14.84375 13.75 C 15.003906 14.292969 15 14.90625 15 14.90625 L 15 23 L 17 23 L 17 21 L 22 21 L 22 14.4375 L 23.8125 16.21875 C 24.492188 16.898438 24.808594 17.863281 24.65625 18.8125 L 22.0625 26.03125 L 22.03125 26.09375 L 22.03125 26.1875 C 21.945313 26.667969 21.523438 27 21.03125 27 L 14 27 C 13.109375 27 12.359375 26.730469 11.84375 26.25 C 11.328125 25.769531 11 25.0625 11 24 C 11 22.964844 11.472656 20.453125 11.96875 18.34375 C 12.464844 16.234375 12.96875 14.4375 12.96875 14.4375 L 12.96875 14.375 C 13.078125 13.832031 13.285156 13.476563 13.46875 13.28125 C 13.652344 13.085938 13.820313 13 14.1875 13 Z "></path>
</g>
</svg>
