<?xml version="1.0" encoding="UTF-8"?>
<svg xmlns="http://www.w3.org/2000/svg" xmlns:xlink="http://www.w3.org/1999/xlink" viewBox="0 0 32 32" version="1.1">
<g>
<path d="M 14 3 C 12.90625 3 12 3.90625 12 5 L 12 7.6875 C 12 8.976563 11.507813 9.507813 10.75 10.40625 C 9.992188 11.304688 9 12.558594 9 14.59375 C 9 15.640625 9.25 17.917969 9.5 20.0625 C 9.722656 21.960938 9.890625 23.28125 9.9375 23.65625 C 9.832031 23.761719 9.808594 23.761719 9.6875 23.90625 C 9.359375 24.296875 8.886719 24.824219 9 25.71875 C 9 25.726563 9 25.742188 9 25.75 C 9.082031 26.355469 9.375 26.960938 9.875 27.375 C 10.378906 27.796875 11.082031 28 11.8125 28 C 12.515625 28 13.355469 27.875 14.1875 27.75 C 15.019531 27.625 15.886719 27.5 16 27.5 C 16.113281 27.5 16.980469 27.625 17.8125 27.75 C 18.644531 27.875 19.484375 28 20.1875 28 C 20.917969 28 21.621094 27.796875 22.125 27.375 C 22.605469 26.976563 22.875 26.394531 22.96875 25.8125 L 23 25.71875 C 23.109375 24.832031 22.625 24.238281 22.28125 23.84375 C 22.167969 23.714844 22.164063 23.71875 22.0625 23.625 C 22.113281 23.230469 22.28125 21.945313 22.5 20.0625 C 22.75 17.917969 23 15.640625 23 14.59375 C 23 12.558594 22.007813 11.320313 21.25 10.4375 C 20.492188 9.554688 20 9.035156 20 7.6875 L 20 5 C 20 3.90625 19.09375 3 18 3 Z M 14 5 L 18 5 L 18 7 L 14 7 Z M 13.84375 9 L 18.15625 9 C 18.46875 10.21875 19.1875 11.0625 19.75 11.71875 C 20.382813 12.457031 20.84375 12.96875 20.96875 14 L 11.03125 14 C 11.15625 12.964844 11.621094 12.433594 12.25 11.6875 C 12.804688 11.03125 13.523438 10.1875 13.84375 9 Z M 11.09375 16 L 20.90625 16 C 20.832031 16.863281 20.722656 17.847656 20.59375 19 L 11.40625 19 C 11.277344 17.847656 11.167969 16.863281 11.09375 16 Z M 11.65625 21 L 20.34375 21 C 20.183594 22.320313 20 23.875 20 23.875 L 19.9375 24.46875 L 20.40625 24.8125 C 20.40625 24.8125 20.601563 24.949219 20.78125 25.15625 C 20.914063 25.308594 20.980469 25.472656 21 25.5 C 20.976563 25.664063 20.933594 25.769531 20.84375 25.84375 C 20.75 25.921875 20.554688 26 20.1875 26 C 19.789063 26 18.914063 25.875 18.09375 25.75 C 17.273438 25.625 16.589844 25.5 16 25.5 C 15.410156 25.5 14.726563 25.625 13.90625 25.75 C 13.085938 25.875 12.210938 26 11.8125 26 C 11.445313 26 11.25 25.921875 11.15625 25.84375 C 11.082031 25.78125 11.054688 25.683594 11.03125 25.5625 C 11.050781 25.566406 11.074219 25.359375 11.21875 25.1875 C 11.410156 24.957031 11.625 24.78125 11.625 24.78125 L 12.0625 24.4375 L 12 23.875 C 12 23.875 11.816406 22.320313 11.65625 21 Z "></path>
</g>
</svg>
