<?xml version="1.0" encoding="UTF-8"?>
<svg xmlns="http://www.w3.org/2000/svg" xmlns:xlink="http://www.w3.org/1999/xlink" viewBox="0 0 32 32" version="1.1">
<g>
<path d="M 8 5 C 6.355469 5 5 6.355469 5 8 L 5 24 C 5 25.644531 6.355469 27 8 27 L 24 27 C 25.644531 27 27 25.644531 27 24 L 27 8 C 27 6.355469 25.644531 5 24 5 Z M 8 7 L 24 7 C 24.566406 7 25 7.433594 25 8 L 25 24 C 25 24.566406 24.566406 25 24 25 L 8 25 C 7.433594 25 7 24.566406 7 24 L 7 8 C 7 7.433594 7.433594 7 8 7 Z M 11.5 8 C 9.578125 8 8 9.578125 8 11.5 C 8 12.882813 8.824219 14.078125 10 14.644531 L 10 17.355469 C 8.824219 17.921875 8 19.117188 8 20.5 C 8 22.421875 9.578125 24 11.5 24 C 12.882813 24 14.078125 23.175781 14.644531 22 L 17.355469 22 C 17.921875 23.175781 19.117188 24 20.5 24 C 22.421875 24 24 22.421875 24 20.5 C 24 19.117188 23.175781 17.921875 22 17.355469 L 22 14.644531 C 23.175781 14.078125 24 12.882813 24 11.5 C 24 9.578125 22.421875 8 20.5 8 C 19.117188 8 17.921875 8.824219 17.355469 10 L 14.644531 10 C 14.078125 8.824219 12.882813 8 11.5 8 Z M 11.5 10 C 12.339844 10 13 10.660156 13 11.5 C 13 12.339844 12.339844 13 11.5 13 C 10.660156 13 10 12.339844 10 11.5 C 10 10.660156 10.660156 10 11.5 10 Z M 20.5 10 C 21.339844 10 22 10.660156 22 11.5 C 22 12.339844 21.339844 13 20.5 13 C 19.660156 13 19 12.339844 19 11.5 C 19 10.660156 19.660156 10 20.5 10 Z M 14.949219 12 L 17.050781 12 C 17.273438 13.519531 18.480469 14.726563 20 14.949219 L 20 17.050781 C 18.480469 17.273438 17.273438 18.480469 17.050781 20 L 14.949219 20 C 14.726563 18.480469 13.519531 17.273438 12 17.050781 L 12 14.949219 C 13.519531 14.726563 14.726563 13.519531 14.949219 12 Z M 11.5 19 C 12.339844 19 13 19.660156 13 20.5 C 13 21.339844 12.339844 22 11.5 22 C 10.660156 22 10 21.339844 10 20.5 C 10 19.660156 10.660156 19 11.5 19 Z M 20.5 19 C 21.339844 19 22 19.660156 22 20.5 C 22 21.339844 21.339844 22 20.5 22 C 19.660156 22 19 21.339844 19 20.5 C 19 19.660156 19.660156 19 20.5 19 Z "></path>
</g>
</svg>
