<?xml version="1.0" encoding="UTF-8"?>
<svg xmlns="http://www.w3.org/2000/svg" xmlns:xlink="http://www.w3.org/1999/xlink" viewBox="0 0 32 32" version="1.1">
<g>
<path d="M 16 4 C 9.382813 4 4 9.382813 4 16 C 4 16.671875 4.074219 17.339844 4.1875 18 L 6.21875 18 C 6.082031 17.339844 6 16.671875 6 16 C 6 10.484375 10.484375 6 16 6 C 21.515625 6 26 10.484375 26 16 C 26 16.671875 25.917969 17.339844 25.78125 18 L 27.8125 18 C 27.925781 17.339844 28 16.671875 28 16 C 28 9.382813 22.617188 4 16 4 Z M 16 8 C 11.59375 8 8 11.59375 8 16 L 10 16 C 10 12.675781 12.675781 10 16 10 Z M 16 13 C 14.347656 13 13 14.347656 13 16 C 13 16.769531 13.300781 17.46875 13.78125 18 L 18.21875 18 C 18.699219 17.46875 19 16.769531 19 16 C 19 14.347656 17.652344 13 16 13 Z M 16 15 C 16.550781 15 17 15.449219 17 16 C 17 16.550781 16.550781 17 16 17 C 15.449219 17 15 16.550781 15 16 C 15 15.449219 15.449219 15 16 15 Z M 4 19 L 4 27 L 28 27 L 28 19 Z M 6 21 L 26 21 L 26 25 L 6 25 Z "></path>
</g>
</svg>
