<?xml version="1.0" encoding="UTF-8"?>
<svg xmlns="http://www.w3.org/2000/svg" xmlns:xlink="http://www.w3.org/1999/xlink" viewBox="0 0 32 32" version="1.1">
<g>
<path d="M 28.28125 2.28125 L 26 4.5625 L 25.375 3.90625 L 24.6875 3.1875 L 15.0625 12.8125 L 13.4375 11.15625 L 12.71875 10.4375 L 12 11.15625 L 10.53125 12.65625 L 9.8125 13.34375 L 10.53125 14.0625 C 10.96875 14.5 10.96875 15.1875 10.53125 15.625 L 9.8125 16.3125 L 4.375 21.75 C 3.011719 23.113281 2.804688 25.21875 3.75 26.8125 L 2.28125 28.28125 L 3.71875 29.71875 L 5.1875 28.25 C 6.78125 29.195313 8.886719 28.988281 10.25 27.625 L 16.375 21.46875 C 16.8125 21.03125 17.5 21.03125 17.9375 21.46875 L 18.65625 22.1875 L 19.34375 21.46875 L 20.84375 20 L 21.5625 19.28125 L 20.84375 18.5625 L 19.1875 16.9375 L 28.8125 7.3125 L 28.09375 6.625 L 27.4375 6 L 29.71875 3.71875 Z M 24.6875 6.03125 L 25.96875 7.3125 L 17.78125 15.5 L 16.5 14.21875 Z M 12.71875 13.28125 L 18.71875 19.28125 L 18.34375 19.65625 C 17.203125 19.152344 15.894531 19.136719 14.96875 20.0625 L 8.84375 26.1875 C 7.996094 27.035156 6.660156 27.035156 5.8125 26.1875 C 4.964844 25.339844 4.964844 24.003906 5.8125 23.15625 L 11.9375 17.03125 C 12.863281 16.105469 12.847656 14.796875 12.34375 13.65625 Z "></path>
</g>
</svg>
