<?xml version="1.0" encoding="UTF-8"?>
<svg xmlns="http://www.w3.org/2000/svg" xmlns:xlink="http://www.w3.org/1999/xlink" viewBox="0 0 32 32" version="1.1">
<g>
<path d="M 16 6 C 14.457031 6 13.15625 7.003906 12.3125 8.375 C 11.554688 9.601563 11.117188 11.179688 11.03125 12.90625 C 4.855469 12.714844 1.40625 12.25 1.40625 12.25 L -0.0625 12.0625 L 0.3125 13.5 L 1.84375 19.25 L 2.03125 20 L 29.96875 20 L 30.15625 19.25 L 31.65625 13.5 L 31.96875 12.25 L 30.6875 12.25 C 30.6875 12.25 30.539063 12.25 30.53125 12.25 C 30.523438 12.25 30.519531 12.277344 30.5 12.28125 C 30.460938 12.285156 30.390625 12.269531 30.3125 12.28125 C 30.152344 12.300781 29.910156 12.339844 29.59375 12.375 C 28.960938 12.445313 28.019531 12.53125 26.78125 12.625 C 25.277344 12.738281 23.300781 12.835938 20.96875 12.90625 C 20.882813 11.179688 20.445313 9.601563 19.6875 8.375 C 18.84375 7.003906 17.542969 6 16 6 Z M 16 8 C 16.664063 8 17.363281 8.453125 17.96875 9.4375 C 18.507813 10.308594 18.886719 11.5625 18.96875 12.96875 C 18.027344 12.984375 17.042969 13 16 13 C 14.957031 13 13.972656 12.984375 13.03125 12.96875 C 13.113281 11.5625 13.492188 10.308594 14.03125 9.4375 C 14.636719 8.453125 15.335938 8 16 8 Z M 2.625 14.40625 C 4.253906 14.59375 8.359375 15 16 15 C 20.714844 15 24.414063 14.8125 26.9375 14.625 C 27.992188 14.546875 28.710938 14.472656 29.34375 14.40625 L 28.75 16.75 L 28 16 L 26 18 L 24 16 L 22 18 L 20 16 L 18 18 L 16 16 L 14 18 L 12 16 L 10 18 L 8 16 L 6 18 L 4 16 L 3.25 16.75 Z M 14.5 22 C 13.671875 22 11 22.9375 11 26 C 12.15625 24.84375 13.671875 25 14.5 25 C 15.328125 25 16 24.328125 16 23.5 C 16 22.671875 15.328125 22 14.5 22 Z M 16 23.5 C 16 24.328125 16.671875 25 17.5 25 C 18.328125 25 19.84375 24.84375 21 26 C 21 22.9375 18.328125 22 17.5 22 C 16.671875 22 16 22.671875 16 23.5 Z "></path>
</g>
</svg>
