<?xml version="1.0" encoding="UTF-8"?>
<svg xmlns="http://www.w3.org/2000/svg" xmlns:xlink="http://www.w3.org/1999/xlink" viewBox="0 0 32 32" version="1.1">
<g>
<path d="M 26.5 3 C 25.859375 3 25.203125 3.234375 24.71875 3.71875 L 23.46875 5 L 21 5 L 19.59375 8.84375 L 15.40625 13.0625 C 15.359375 13.167969 14.472656 15.277344 13.0625 16.6875 C 11.644531 18.105469 9.636719 18.90625 9.5625 18.9375 L 9.53125 18.9375 L 4.21875 24.21875 L 3.71875 24.71875 C 3.246094 25.191406 3 25.832031 3 26.5 C 3 27.167969 3.246094 27.808594 3.71875 28.28125 C 4.191406 28.753906 4.832031 29 5.5 29 C 6.167969 29 6.808594 28.753906 7.28125 28.28125 L 7.78125 27.78125 L 13.15625 22.375 L 13.125 22.34375 C 13.269531 22.015625 14.0625 20.25 15.4375 18.875 C 16.953125 17.359375 18.96875 16.5625 18.96875 16.5625 L 23.125 12.40625 L 27 11 L 27 8.53125 L 28.28125 7.28125 C 29.25 6.3125 29.25 4.6875 28.28125 3.71875 C 27.796875 3.234375 27.140625 3 26.5 3 Z M 26.5 5 C 26.621094 5 26.742188 5.054688 26.84375 5.15625 C 27.046875 5.359375 27.046875 5.640625 26.84375 5.84375 L 25.84375 6.84375 L 25.15625 6.15625 L 26.15625 5.15625 C 26.257813 5.054688 26.378906 5 26.5 5 Z M 20.4375 10.875 L 21.125 11.5625 L 17.5625 15.125 L 16.84375 14.4375 Z M 10.9375 20.375 L 11.65625 21.0625 L 8.40625 24.28125 L 7.71875 23.59375 Z "></path>
</g>
</svg>
