<?xml version="1.0" encoding="UTF-8"?>
<svg xmlns="http://www.w3.org/2000/svg" xmlns:xlink="http://www.w3.org/1999/xlink" viewBox="0 0 32 32" version="1.1">
<g>
<path d="M 11 5 L 11 27 L 13 27 L 13 5 Z M 22 5 L 22 7 L 26 7 L 26 10 L 24 10 L 24 12 L 26 12 L 26 15 L 22 15 L 22 17 L 26 17 L 26 21 L 24 21 L 24 23 L 26 23 L 26 25 L 22 25 L 22 27 L 28 27 L 28 5 Z M 5 7 L 5 25 L 7 25 L 7 7 Z M 8 11 L 8 21 L 10 21 L 10 11 Z M 14 11 L 14 21 L 16 21 L 16 11 Z M 17 14 L 17 18 L 19 18 L 19 14 Z "></path>
</g>
</svg>
