<?xml version="1.0" encoding="UTF-8"?>
<svg xmlns="http://www.w3.org/2000/svg" xmlns:xlink="http://www.w3.org/1999/xlink" viewBox="0 0 32 32" version="1.1">
<g>
<path d="M 7.203125 4 C 5.980469 4.015625 4.984375 5.046875 5 6.265625 L 5 25.75 C 5 26.136719 5.097656 26.523438 5.289063 26.859375 C 5.890625 27.925781 7.269531 28.316406 8.335938 27.707031 L 25.972656 17.765625 C 25.976563 17.765625 25.976563 17.761719 25.980469 17.761719 C 26.296875 17.582031 26.558594 17.316406 26.734375 17 C 27.28125 16.039063 26.941406 14.785156 25.980469 14.234375 C 25.976563 14.234375 25.976563 14.234375 25.972656 14.234375 L 8.335938 4.289063 C 7.988281 4.09375 7.597656 3.996094 7.210938 4 C 7.207031 4 7.207031 4 7.203125 4 Z M 7.234375 6 C 7.277344 6 7.316406 6.011719 7.347656 6.03125 C 7.347656 6.03125 7.351563 6.03125 7.351563 6.03125 L 24.984375 15.972656 C 25.007813 15.984375 25.011719 15.988281 24.996094 16.015625 C 24.992188 16.023438 24.988281 16.023438 24.984375 16.027344 L 10 24.472656 L 10 21.191406 L 15 18.347656 L 15 16.046875 L 10 18.890625 L 10 13.246094 C 10 13.109375 10.105469 13.003906 10.230469 13 C 10.277344 13.007813 10.316406 13.011719 10.351563 13.03125 L 15 15.652344 L 15 13.359375 L 11.332031 11.289063 C 10.992188 11.09375 10.621094 11.023438 10.203125 11 C 8.972656 11.015625 7.984375 12.03125 8 13.253906 L 8 20.03125 L 7 20.601563 L 7 6.257813 C 7 6.253906 7 6.246094 7 6.242188 C 7 6.097656 7.09375 6 7.234375 6 Z M 17.230469 13 C 16.542969 13.011719 15.992188 13.566406 16 14.230469 L 16 17.761719 C 15.996094 17.996094 16.0625 18.226563 16.1875 18.421875 C 16.421875 18.796875 16.832031 19 17.25 19 C 17.445313 19 17.644531 18.957031 17.824219 18.859375 L 21.355469 17.050781 C 21.359375 17.050781 21.359375 17.050781 21.363281 17.046875 C 21.550781 16.945313 21.710938 16.800781 21.816406 16.625 C 21.992188 16.347656 22.046875 16.007813 21.957031 15.695313 C 21.875 15.378906 21.65625 15.105469 21.355469 14.949219 L 17.832031 13.144531 C 17.644531 13.046875 17.433594 13 17.230469 13 Z M 8 22.332031 L 8 25.605469 L 7.351563 25.96875 C 7.351563 25.96875 7.347656 25.96875 7.347656 25.96875 C 7.226563 26.039063 7.101563 26.003906 7.03125 25.878906 C 7.011719 25.84375 7 25.800781 7 25.761719 C 7 25.757813 7 25.757813 7 25.753906 L 7 22.902344 Z "></path>
</g>
</svg>
