<?xml version="1.0" encoding="UTF-8"?>
<svg xmlns="http://www.w3.org/2000/svg" xmlns:xlink="http://www.w3.org/1999/xlink" viewBox="0 0 32 32" version="1.1">
<g>
<path d="M 5 6 L 5 22 L 15 22 L 15 25 L 12.5 25 L 16 28.5 L 19.5 25 L 17 25 L 17 22 L 27 22 L 27 6 L 25 6 L 25 20 L 7 20 L 7 6 Z M 16 9 C 14.167969 9 12.523438 9.847656 11.3125 10.65625 C 10.101563 11.464844 9.28125 12.28125 9.28125 12.28125 L 8.59375 13 L 9.28125 13.71875 C 9.28125 13.71875 10.101563 14.535156 11.3125 15.34375 C 12.523438 16.152344 14.167969 17 16 17 C 17.832031 17 19.476563 16.152344 20.6875 15.34375 C 21.898438 14.535156 22.71875 13.71875 22.71875 13.71875 L 23.40625 13 L 22.71875 12.28125 C 22.71875 12.28125 21.898438 11.464844 20.6875 10.65625 C 19.476563 9.847656 17.832031 9 16 9 Z M 16 11 C 17.167969 11 18.523438 11.652344 19.5625 12.34375 C 20.054688 12.671875 20.078125 12.746094 20.375 13 C 20.078125 13.253906 20.054688 13.328125 19.5625 13.65625 C 18.523438 14.347656 17.167969 15 16 15 C 14.832031 15 13.476563 14.347656 12.4375 13.65625 C 11.945313 13.328125 11.921875 13.253906 11.625 13 C 11.921875 12.746094 11.945313 12.671875 12.4375 12.34375 C 13.476563 11.652344 14.832031 11 16 11 Z M 16 11.5 C 15.171875 11.5 14.5 12.171875 14.5 13 C 14.5 13.828125 15.171875 14.5 16 14.5 C 16.828125 14.5 17.5 13.828125 17.5 13 C 17.5 12.171875 16.828125 11.5 16 11.5 Z "></path>
</g>
</svg>
