<?xml version="1.0" encoding="UTF-8"?>
<svg xmlns="http://www.w3.org/2000/svg" xmlns:xlink="http://www.w3.org/1999/xlink" viewBox="0 0 32 32" version="1.1">
<g>
<path d="M 1.546875 16.261719 C 1.476563 16.261719 1.421875 16.316406 1.410156 16.390625 L 1.097656 19.265625 L 1.410156 22.074219 C 1.421875 22.152344 1.476563 22.207031 1.546875 22.207031 C 1.613281 22.207031 1.667969 22.152344 1.679688 22.078125 L 2.035156 19.265625 L 1.679688 16.390625 C 1.667969 16.316406 1.613281 16.261719 1.546875 16.261719 Z "></path>
<path d="M 0.363281 17.363281 C 0.296875 17.363281 0.242188 17.414063 0.234375 17.488281 L 0 19.265625 L 0.234375 21.011719 C 0.242188 21.085938 0.296875 21.136719 0.363281 21.136719 C 0.425781 21.136719 0.480469 21.085938 0.488281 21.015625 L 0.765625 19.265625 L 0.488281 17.488281 C 0.480469 17.414063 0.425781 17.363281 0.363281 17.363281 Z "></path>
<path d="M 2.804688 15.699219 C 2.71875 15.699219 2.652344 15.765625 2.644531 15.855469 C 2.644531 15.855469 2.34375 19.265625 2.34375 19.265625 L 2.644531 22.550781 C 2.652344 22.640625 2.71875 22.707031 2.804688 22.707031 C 2.886719 22.707031 2.953125 22.640625 2.964844 22.550781 L 3.300781 19.265625 L 2.964844 15.855469 C 2.953125 15.765625 2.886719 15.699219 2.804688 15.699219 Z "></path>
<path d="M 4.070313 15.578125 C 3.972656 15.578125 3.890625 15.65625 3.882813 15.765625 L 3.601563 19.265625 L 3.882813 22.65625 C 3.890625 22.761719 3.972656 22.839844 4.070313 22.839844 C 4.167969 22.839844 4.25 22.761719 4.257813 22.65625 L 4.578125 19.265625 L 4.257813 15.761719 C 4.25 15.65625 4.167969 15.578125 4.070313 15.578125 Z "></path>
<path d="M 5.5625 16.015625 C 5.554688 15.894531 5.460938 15.804688 5.347656 15.804688 C 5.234375 15.804688 5.140625 15.894531 5.132813 16.015625 L 4.867188 19.265625 L 5.132813 22.683594 C 5.140625 22.804688 5.234375 22.894531 5.347656 22.894531 C 5.460938 22.894531 5.554688 22.804688 5.5625 22.683594 L 5.863281 19.265625 Z "></path>
<path d="M 6.636719 13.742188 C 6.507813 13.742188 6.398438 13.847656 6.394531 13.980469 L 6.144531 19.269531 L 6.394531 22.683594 C 6.402344 22.816406 6.507813 22.925781 6.636719 22.925781 C 6.765625 22.925781 6.871094 22.816406 6.878906 22.683594 L 7.160156 19.269531 L 6.878906 13.980469 C 6.871094 13.847656 6.765625 13.742188 6.636719 13.742188 Z "></path>
<path d="M 7.914063 12.523438 C 7.769531 12.523438 7.648438 12.640625 7.644531 12.789063 C 7.644531 12.789063 7.410156 19.285156 7.410156 19.285156 L 7.644531 22.683594 C 7.648438 22.832031 7.769531 22.949219 7.914063 22.949219 C 8.058594 22.949219 8.175781 22.832031 8.183594 22.683594 L 8.449219 19.289063 L 8.183594 12.789063 C 8.175781 12.640625 8.058594 12.523438 7.914063 12.523438 Z "></path>
<path d="M 9.242188 11.9375 C 9.082031 11.9375 8.953125 12.066406 8.945313 12.230469 L 8.726563 19.269531 L 8.945313 22.632813 C 8.953125 22.796875 9.082031 22.925781 9.242188 22.925781 C 9.402344 22.925781 9.53125 22.796875 9.539063 22.628906 L 9.539063 22.632813 L 9.785156 19.269531 L 9.539063 12.230469 C 9.53125 12.066406 9.402344 11.9375 9.242188 11.9375 Z "></path>
<path d="M 10.886719 11.992188 C 10.878906 11.8125 10.738281 11.671875 10.5625 11.671875 C 10.386719 11.671875 10.242188 11.8125 10.238281 11.992188 L 10.035156 19.269531 L 10.238281 22.609375 C 10.242188 22.789063 10.386719 22.929688 10.5625 22.929688 C 10.738281 22.929688 10.878906 22.789063 10.886719 22.609375 L 11.113281 19.269531 Z "></path>
<path d="M 11.890625 11.832031 C 11.699219 11.832031 11.542969 11.984375 11.539063 12.179688 L 11.351563 19.269531 L 11.539063 22.578125 C 11.542969 22.773438 11.699219 22.925781 11.890625 22.925781 C 12.082031 22.925781 12.234375 22.773438 12.242188 22.578125 L 12.449219 19.269531 L 12.242188 12.179688 C 12.238281 11.984375 12.082031 11.832031 11.890625 11.832031 Z "></path>
<path d="M 13.230469 12.0625 C 13.023438 12.0625 12.855469 12.226563 12.851563 12.4375 L 12.683594 19.269531 L 12.851563 22.558594 C 12.855469 22.765625 13.019531 22.933594 13.230469 22.933594 C 13.4375 22.933594 13.605469 22.765625 13.609375 22.554688 L 13.609375 22.558594 L 13.800781 19.269531 L 13.609375 12.4375 C 13.605469 12.226563 13.4375 12.0625 13.230469 12.0625 Z "></path>
<path d="M 14.804688 10.808594 C 14.738281 10.761719 14.664063 10.738281 14.582031 10.738281 C 14.5 10.738281 14.425781 10.761719 14.363281 10.804688 C 14.25 10.875 14.175781 11 14.175781 11.144531 L 14.175781 11.21875 L 14.023438 19.269531 C 14.023438 19.273438 14.175781 22.539063 14.175781 22.539063 C 14.175781 22.542969 14.175781 22.546875 14.175781 22.550781 C 14.179688 22.644531 14.214844 22.726563 14.269531 22.792969 C 14.347656 22.882813 14.457031 22.941406 14.582031 22.941406 C 14.691406 22.941406 14.792969 22.894531 14.867188 22.820313 C 14.9375 22.746094 14.984375 22.648438 14.988281 22.535156 L 15.003906 22.210938 L 15.160156 19.269531 L 14.988281 11.140625 C 14.984375 11.003906 14.910156 10.878906 14.804688 10.808594 Z "></path>
<path d="M 14.984375 22.539063 L 14.984375 22.535156 L 14.984375 22.539063 L 14.984375 22.535156 L 14.988281 22.535156 L 14.984375 22.535156 Z "></path>
<path d="M 16.144531 10.035156 C 16.078125 9.996094 16.003906 9.972656 15.925781 9.972656 C 15.820313 9.972656 15.726563 10.011719 15.652344 10.074219 C 15.554688 10.152344 15.492188 10.273438 15.492188 10.40625 L 15.492188 10.449219 L 15.3125 19.273438 L 15.402344 20.902344 L 15.492188 22.492188 C 15.496094 22.726563 15.6875 22.921875 15.925781 22.921875 C 16.160156 22.921875 16.355469 22.726563 16.359375 22.488281 L 16.359375 22.492188 L 16.550781 19.273438 L 16.359375 10.40625 C 16.355469 10.25 16.269531 10.113281 16.144531 10.035156 Z "></path>
<path d="M 28.0625 15.074219 C 27.523438 15.074219 27.011719 15.183594 26.542969 15.382813 C 26.230469 11.835938 23.253906 9.050781 19.625 9.050781 C 18.738281 9.050781 17.871094 9.226563 17.109375 9.523438 C 16.8125 9.636719 16.730469 9.753906 16.730469 9.984375 L 16.730469 22.476563 C 16.730469 22.71875 16.917969 22.90625 17.152344 22.929688 C 17.164063 22.929688 28.0625 22.929688 28.0625 22.929688 C 30.238281 22.929688 32 21.1875 32 19.011719 C 32 16.839844 30.238281 15.074219 28.0625 15.074219 Z "></path>
</g>
</svg>
