<?xml version="1.0" encoding="UTF-8"?>
<svg xmlns="http://www.w3.org/2000/svg" xmlns:xlink="http://www.w3.org/1999/xlink" viewBox="0 0 32 32" version="1.1">
<g>
<path d="M 7 4 C 5.355469 4 4 5.355469 4 7 L 4 16 C 4 16.550781 4.449219 17 5 17 L 7.21875 17 L 7.6875 15 L 6 15 L 6 7 C 6 6.433594 6.433594 6 7 6 L 25 6 C 25.566406 6 26 6.433594 26 7 L 26 15 L 24.3125 15 L 24.78125 17 L 27 17 C 27.550781 17 28 16.550781 28 16 L 28 7 C 28 5.355469 26.644531 4 25 4 Z M 16 9 C 12.203125 9 9.96875 11.75 9.96875 11.75 L 9.9375 11.78125 L 9.90625 11.84375 C 9.90625 11.84375 9.40625 12.625 8.9375 14 C 8.46875 15.375 8 17.398438 8 20 L 8.03125 20 C 8.019531 20.164063 8 20.332031 8 20.5 C 8 24.671875 11.632813 28 16 28 C 20.367188 28 24 24.671875 24 20.5 C 24 20.332031 23.980469 20.164063 23.96875 20 L 24 20 C 24 17.398438 23.53125 15.375 23.0625 14 C 22.59375 12.625 22.09375 11.84375 22.09375 11.84375 L 22.0625 11.78125 L 22.03125 11.75 C 22.03125 11.75 19.796875 9 16 9 Z M 16 11 C 18.753906 11 20.316406 12.828125 20.40625 12.9375 C 20.40625 12.9375 20.78125 13.46875 21.1875 14.65625 C 21.207031 14.710938 21.230469 14.785156 21.25 14.84375 C 19.835938 13.6875 18 13 16 13 C 14 13 12.164063 13.6875 10.75 14.84375 C 10.769531 14.785156 10.792969 14.710938 10.8125 14.65625 C 11.21875 13.46875 11.59375 12.9375 11.59375 12.9375 C 11.683594 12.828125 13.246094 11 16 11 Z M 14 15.3125 L 14 16 L 18 16 L 18 15.3125 C 19.839844 15.902344 21.253906 17.289063 21.78125 19 L 21 19 L 21 22 L 21.78125 22 C 21.253906 23.710938 19.839844 25.097656 18 25.6875 L 18 25 L 14 25 L 14 25.6875 C 12.160156 25.097656 10.746094 23.710938 10.21875 22 L 11 22 L 11 19 L 10.21875 19 C 10.746094 17.289063 12.160156 15.902344 14 15.3125 Z "></path>
</g>
</svg>
