<?xml version="1.0" encoding="UTF-8"?>
<svg xmlns="http://www.w3.org/2000/svg" xmlns:xlink="http://www.w3.org/1999/xlink" viewBox="0 0 32 32" version="1.1">
<g>
<path d="M 16.21875 3.28125 L 2.875 16.625 L 3.03125 17.1875 L 5.5 25.8125 L 5.65625 26.34375 L 6.1875 26.5 L 14.8125 28.96875 L 15.375 29.125 L 28.71875 15.78125 L 27.28125 14.375 L 14.78125 26.875 L 7.28125 24.71875 L 5.125 17.21875 L 17.625 4.71875 Z M 19.40625 7.53125 L 18 8.9375 L 18.46875 9.40625 L 19.65625 12 L 18.21875 11.3125 L 17.59375 11.03125 L 17.09375 11.5 L 16.53125 12.0625 L 16.8125 12.71875 L 17.5 14.15625 L 14.96875 13 L 14.46875 12.5 L 13.03125 13.90625 L 13.65625 14.5 L 13.78125 14.65625 L 13.9375 14.71875 L 19.03125 17.03125 L 19.65625 17.3125 L 20.125 16.8125 L 20.21875 16.75 L 20.71875 16.25 L 20.40625 15.625 L 19.75 14.25 L 21.125 14.90625 L 21.78125 15.1875 L 22.25 14.6875 L 22.34375 14.625 L 22.8125 14.125 L 22.53125 13.5 L 20.21875 8.4375 L 20.15625 8.28125 Z M 12.4375 15.375 C 11.898438 15.375 11.34375 15.59375 10.9375 16 L 10 16.96875 C 9.1875 17.78125 9.1875 19.125 10 19.9375 C 10.558594 20.496094 11.371094 20.6875 12.125 20.4375 L 14.625 19.59375 C 14.660156 19.582031 14.691406 19.597656 14.71875 19.625 C 14.765625 19.671875 14.765625 19.734375 14.71875 19.78125 L 13.75 20.71875 C 13.703125 20.765625 13.671875 20.765625 13.625 20.71875 L 13.15625 20.25 L 11.71875 21.65625 L 12.21875 22.15625 C 13.03125 22.96875 14.375 22.96875 15.1875 22.15625 L 16.125 21.1875 C 16.9375 20.375 16.9375 19.03125 16.125 18.21875 C 15.5625 17.65625 14.753906 17.464844 14 17.71875 L 11.5 18.53125 C 11.460938 18.542969 11.433594 18.527344 11.40625 18.5 C 11.359375 18.453125 11.359375 18.421875 11.40625 18.375 L 12.375 17.40625 C 12.421875 17.359375 12.453125 17.359375 12.5 17.40625 L 13 17.90625 L 14.40625 16.46875 L 13.90625 16 C 13.5 15.59375 12.976563 15.375 12.4375 15.375 Z "></path>
</g>
</svg>
