<?xml version="1.0" encoding="UTF-8"?>
<svg xmlns="http://www.w3.org/2000/svg" xmlns:xlink="http://www.w3.org/1999/xlink" viewBox="0 0 32 32" version="1.1">
<g>
<path d="M 15 3 L 15 5.0625 C 9.730469 5.539063 5.539063 9.730469 5.0625 15 L 3 15 L 3 17 L 5.03125 17 C 5.425781 21.394531 8.433594 25.03125 12.46875 26.40625 L 11 23.46875 C 8.847656 22.027344 7.363281 19.699219 7.0625 17 L 9 17 L 9 15 L 7.0625 15 C 7.53125 10.847656 10.847656 7.53125 15 7.0625 L 15 9 L 17 9 L 17 7.0625 C 21.152344 7.53125 24.46875 10.847656 24.9375 15 L 23 15 L 23 17 L 24.9375 17 C 24.636719 19.699219 23.152344 22.027344 21 23.46875 L 19.53125 26.40625 C 23.566406 25.03125 26.574219 21.394531 26.96875 17 L 29 17 L 29 15 L 26.9375 15 C 26.460938 9.730469 22.269531 5.539063 17 5.0625 L 17 3 Z M 13 23 L 16 29 L 19 23 L 16 24 Z "></path>
</g>
</svg>
