<?xml version="1.0" encoding="UTF-8"?>
<svg xmlns="http://www.w3.org/2000/svg" xmlns:xlink="http://www.w3.org/1999/xlink" viewBox="0 0 32 32" version="1.1">
<g>
<path d="M 6 5 L 6 22.59375 L 6.5 22.875 L 15.5 27.875 L 16 28.15625 L 16.5 27.875 L 25.5 22.875 L 26 22.59375 L 26 5 L 24 5 L 24 21.40625 L 16 25.84375 L 8 21.40625 L 8 5 Z M 15.25 10 C 14.027344 10 13 11.027344 13 12.25 C 13 13.09375 13.492188 13.871094 14.25 14.25 L 16.875 15.5625 C 16.957031 15.605469 17 15.660156 17 15.75 C 17 15.894531 16.894531 16 16.75 16 L 15.25 16 C 15.105469 16 15 15.894531 15 15.75 L 15 15 L 13 15 L 13 15.75 C 13 16.972656 14.027344 18 15.25 18 L 16.75 18 C 17.972656 18 19 16.972656 19 15.75 C 19 14.90625 18.535156 14.128906 17.78125 13.75 L 17.75 13.75 L 15.125 12.4375 C 15.042969 12.398438 15 12.339844 15 12.25 C 15 12.105469 15.105469 12 15.25 12 L 16.75 12 C 16.894531 12 17 12.105469 17 12.25 L 17 13 L 19 13 L 19 12.25 C 19 11.027344 17.972656 10 16.75 10 Z "></path>
</g>
</svg>
