<?xml version="1.0" encoding="UTF-8"?>
<svg xmlns="http://www.w3.org/2000/svg" xmlns:xlink="http://www.w3.org/1999/xlink" viewBox="0 0 32 32" version="1.1">
<g>
<path d="M 20.375 4.625 L 18.53125 5.375 L 24.71875 20.375 L 20.3125 25.9375 L 13.25 25.125 L 7.03125 10.125 L 5.1875 10.90625 L 11.625 26.4375 L 11.84375 27 L 12.4375 27.0625 L 20.625 28 L 21.1875 28.0625 L 21.53125 27.625 L 26.65625 21.15625 L 27.03125 20.6875 L 26.8125 20.15625 Z M 15.5 9.21875 C 15.183594 9.230469 14.894531 9.328125 14.6875 9.40625 C 12.796875 10.183594 14.21875 12.109375 13.15625 12.59375 C 12.726563 12.789063 12.53125 12.488281 12.46875 12.34375 C 12.230469 11.789063 13.03125 11.59375 13.03125 11.59375 L 12.46875 10.25 L 12.28125 10.3125 C 10.679688 10.933594 11.460938 12.386719 11.5625 12.71875 C 12.296875 14.480469 13.371094 14.171875 13.9375 13.9375 C 15.871094 13.148438 14.472656 11.035156 15.5 10.625 C 15.617188 10.578125 16.003906 10.507813 16.15625 10.875 C 16.347656 11.335938 15.59375 11.558594 15.59375 11.5625 L 16.15625 12.875 C 16.730469 12.628906 17.773438 12.113281 17.0625 10.46875 C 16.617188 9.4375 16.027344 9.199219 15.5 9.21875 Z M 17.40625 13.78125 C 17.089844 13.792969 16.800781 13.890625 16.59375 13.96875 C 14.703125 14.746094 16.125 16.671875 15.0625 17.15625 C 14.632813 17.351563 14.4375 17.050781 14.375 16.90625 C 14.136719 16.351563 14.9375 16.15625 14.9375 16.15625 L 14.375 14.8125 L 14.1875 14.875 C 12.585938 15.496094 13.335938 16.949219 13.4375 17.28125 C 14.171875 19.042969 15.277344 18.734375 15.84375 18.5 C 17.777344 17.710938 16.378906 15.628906 17.40625 15.21875 C 17.523438 15.171875 17.878906 15.070313 18.03125 15.4375 C 18.222656 15.898438 17.5 16.121094 17.5 16.125 L 18.03125 17.4375 C 18.605469 17.191406 19.679688 16.675781 18.96875 15.03125 C 18.523438 14 17.933594 13.761719 17.40625 13.78125 Z M 20.0625 17.96875 L 14.71875 20.1875 L 16.0625 23.40625 L 17.1875 22.9375 L 16.4375 21.09375 L 17.5 20.65625 L 18.1875 22.3125 L 19.28125 21.875 L 18.59375 20.21875 L 19.5 19.84375 L 20.21875 21.625 L 21.375 21.125 Z "></path>
</g>
</svg>
