<?xml version="1.0" encoding="UTF-8"?>
<svg xmlns="http://www.w3.org/2000/svg" xmlns:xlink="http://www.w3.org/1999/xlink" viewBox="0 0 32 32" version="1.1">
<g>
<path d="M 15.78125 3.28125 L 14.375 4.71875 L 26.875 17.21875 L 24.71875 24.71875 L 17.21875 26.875 L 4.71875 14.375 L 3.28125 15.78125 L 16.625 29.125 L 17.1875 28.96875 L 25.8125 26.5 L 26.34375 26.34375 L 26.5 25.8125 L 28.96875 17.1875 L 29.125 16.625 Z M 13.875 9.625 C 13.335938 9.625 12.8125 9.8125 12.40625 10.21875 C 11.847656 10.777344 11.65625 11.621094 11.90625 12.375 L 12.71875 14.84375 C 12.730469 14.878906 12.714844 14.910156 12.6875 14.9375 C 12.640625 14.984375 12.609375 14.984375 12.5625 14.9375 L 11.59375 14 C 11.546875 13.953125 11.546875 13.890625 11.59375 13.84375 L 12.09375 13.375 L 10.65625 11.96875 L 10.1875 12.4375 C 9.375 13.25 9.375 14.59375 10.1875 15.40625 L 11.15625 16.375 C 11.96875 17.1875 13.3125 17.1875 14.125 16.375 C 14.6875 15.8125 14.878906 14.972656 14.625 14.21875 L 13.78125 11.75 C 13.769531 11.710938 13.785156 11.652344 13.8125 11.625 C 13.859375 11.578125 13.921875 11.578125 13.96875 11.625 L 14.90625 12.59375 C 14.953125 12.640625 14.953125 12.703125 14.90625 12.75 L 14.4375 13.21875 L 15.84375 14.625 L 16.34375 14.15625 C 17.15625 13.34375 17.15625 12 16.34375 11.1875 L 15.375 10.21875 C 14.96875 9.8125 14.414063 9.625 13.875 9.625 Z M 18.96875 13.8125 L 14.5625 18.21875 L 13.875 18.9375 L 17.03125 22.09375 L 18.4375 20.6875 L 16.6875 18.9375 L 17.125 18.5 L 18.25 19.625 L 19.6875 18.21875 L 18.53125 17.09375 L 18.96875 16.65625 L 20.71875 18.40625 L 22.125 17 L 19.6875 14.53125 Z "></path>
</g>
</svg>
