<?xml version="1.0" encoding="UTF-8"?>
<svg xmlns="http://www.w3.org/2000/svg" xmlns:xlink="http://www.w3.org/1999/xlink" viewBox="0 0 32 32" version="1.1">
<g>
<path d="M 16 4 C 9.9375 4 5 8.9375 5 15 C 5 18.410156 6.554688 21.449219 9 23.46875 L 9 25 L 7 25 L 7 28 L 25 28 L 25 25 L 23 25 L 23 23.46875 C 25.445313 21.449219 27 18.410156 27 15 C 27 8.9375 22.0625 4 16 4 Z M 16 6 C 20.980469 6 25 10.019531 25 15 C 25 17.265625 24.160156 19.332031 22.78125 20.90625 C 22.339844 19.796875 21.257813 19 20 19 C 19.800781 19 19.65625 19.117188 19.46875 19.15625 C 18.914063 17.960938 17.898438 17 16.5 17 C 16.324219 17 16.167969 17.007813 16 17.03125 L 16 12.59375 L 15.71875 12.28125 L 14 10.5625 L 14 9 L 12 9 L 12 10.5625 L 10.28125 12.28125 L 10 12.59375 L 10 18 C 9.175781 18 8.417969 18.332031 7.875 18.875 C 7.308594 17.703125 7 16.394531 7 15 C 7 10.019531 11.019531 6 16 6 Z M 15 7 L 15 9 L 17 9 L 17 7 Z M 18 9 L 18 11 L 20 11 L 20 9 Z M 21 11 L 21 13 L 23 13 L 23 11 Z M 13 12.4375 L 14 13.4375 L 14 18.375 C 13.988281 18.46875 13.988281 18.5625 14 18.65625 L 14 22 L 12 22 L 12 13.4375 Z M 18 13 L 18 15 L 20 15 L 20 13 Z M 21 15 L 21 17 L 23 17 L 23 15 Z M 16.5 19 C 17.292969 19 17.902344 19.597656 17.96875 20.375 L 19.5 21.15625 C 19.664063 21.058594 19.820313 21 20 21 C 20.566406 21 21 21.433594 21 22 L 16 22 L 16 19.09375 C 16.152344 19.039063 16.328125 19 16.5 19 Z M 10 20 L 10 21.65625 C 9.667969 21.355469 9.316406 21.066406 9.03125 20.71875 C 9.148438 20.296875 9.53125 20 10 20 Z "></path>
</g>
</svg>
