<?xml version="1.0" encoding="UTF-8"?>
<svg xmlns="http://www.w3.org/2000/svg" xmlns:xlink="http://www.w3.org/1999/xlink" viewBox="0 0 32 32" version="1.1">
<g>
<path d="M 26.863281 3.460938 L 26.402344 2.738281 L 25.617188 3.085938 C 25.460938 3.152344 21.765625 4.800781 19.636719 7.429688 C 18.691406 8.597656 18.3125 10.074219 18.160156 11.019531 C 16.992188 11.128906 14.988281 11.601563 13.179688 13.410156 C 12.992188 13.597656 12.824219 13.785156 12.660156 13.96875 L 12.679688 13.988281 C 12.203125 14.503906 11.800781 15.050781 11.460938 15.597656 L 11.441406 15.582031 C 10.78125 16.632813 10.417969 17.566406 10.234375 18.15625 C 9.238281 18.421875 7.308594 19.105469 5.734375 20.675781 C 3.542969 22.867188 3.085938 26.726563 3.066406 26.886719 L 3 27.488281 L 3.5 27.828125 C 3.675781 27.945313 5.332031 29 9.054688 29 C 12.640625 29 14.800781 26.894531 15.574219 25.972656 C 15.742188 25.957031 15.960938 25.933594 16.199219 25.902344 C 17.703125 25.734375 18.949219 25.339844 19.988281 24.796875 C 20.136719 24.726563 20.285156 24.65625 20.433594 24.574219 L 20.429688 24.566406 C 21.039063 24.199219 21.566406 23.785156 22.027344 23.339844 L 22.058594 23.371094 C 22.082031 23.347656 22.109375 23.332031 22.132813 23.308594 C 24.101563 21.339844 24.757813 18.886719 24.964844 17.730469 C 26.65625 16.988281 29.0625 14.949219 29.0625 11.058594 C 29.0625 6.945313 26.953125 3.601563 26.863281 3.460938 Z M 23.792969 16.039063 L 23.121094 16.226563 L 23.0625 16.917969 C 23.0625 16.941406 22.914063 18.535156 21.984375 20.207031 C 21.96875 20.234375 21.953125 20.261719 21.9375 20.289063 C 21.886719 20.378906 21.832031 20.464844 21.777344 20.554688 C 21.152344 21.523438 20.214844 22.472656 18.839844 23.132813 C 17.726563 23.625 16.574219 23.839844 15.835938 23.929688 C 15.570313 23.957031 15.316406 23.992188 15.03125 24 L 14.519531 24.011719 L 14.230469 24.445313 C 14.214844 24.472656 12.488281 27 9.054688 27 C 7.082031 27 5.824219 26.664063 5.167969 26.417969 C 5.40625 25.21875 6.007813 23.234375 7.148438 22.089844 C 8.851563 20.390625 11.183594 19.992188 11.203125 19.988281 L 11.902344 19.871094 L 12.023438 19.226563 L 12.035156 19.230469 C 12.09375 18.988281 13.503906 13.328125 19.058594 13.003906 L 20.03125 13.105469 L 20.0625 12.027344 C 20.0625 12.007813 20.144531 9.980469 21.191406 8.6875 C 22.460938 7.121094 24.484375 5.914063 25.609375 5.320313 C 26.164063 6.429688 27.0625 8.605469 27.0625 11.058594 C 27.0625 15.03125 23.921875 16 23.792969 16.039063 Z M 15.816406 16.992188 C 15.796875 17.015625 15.78125 17.042969 15.757813 17.066406 C 15.140625 17.777344 14.847656 18.984375 14.847656 18.984375 C 14.710938 19.808594 14.894531 20.585938 15.449219 21.070313 C 15.941406 21.503906 16.628906 21.625 17.339844 21.476563 C 17.339844 21.476563 18.382813 21.195313 19.15625 20.464844 C 19.253906 20.371094 19.355469 20.285156 19.445313 20.183594 C 20.652344 18.8125 20.816406 16.984375 19.816406 16.101563 C 18.8125 15.222656 17.023438 15.617188 15.816406 16.992188 Z M 21.972656 11.007813 C 22.4375 9.785156 23.539063 9.066406 24.4375 9.40625 C 25.332031 9.75 25.679688 11.019531 25.214844 12.242188 C 24.746094 13.46875 23.644531 14.183594 22.746094 13.84375 C 21.851563 13.503906 21.503906 12.234375 21.972656 11.007813 Z M 8.222656 25.019531 C 7.714844 24.308594 8.09375 23.167969 9.066406 22.472656 C 10.042969 21.777344 11.246094 21.789063 11.753906 22.503906 C 12.261719 23.214844 11.882813 24.355469 10.90625 25.050781 C 9.933594 25.746094 8.730469 25.734375 8.222656 25.019531 Z "></path>
</g>
</svg>
