<?xml version="1.0" encoding="UTF-8"?>
<svg xmlns="http://www.w3.org/2000/svg" xmlns:xlink="http://www.w3.org/1999/xlink" viewBox="0 0 32 32" version="1.1">
<g>
<path d="M 16 2.96875 L 15.125 4.5 C 15.125 4.5 14.359375 5.863281 13.59375 7.4375 C 13.210938 8.226563 12.828125 9.066406 12.53125 9.84375 C 12.234375 10.621094 12 11.285156 12 12 C 12 13.851563 13.28125 15.398438 15 15.84375 L 15 18 L 11.84375 18 L 11.6875 18.0625 L 5.6875 20.0625 L 5 20.28125 L 5 29 L 27 29 L 27 20.28125 L 26.3125 20.0625 L 20.3125 18.0625 L 20.15625 18 L 17 18 L 17 15.84375 C 18.71875 15.398438 20 13.851563 20 12 C 20 11.285156 19.765625 10.621094 19.46875 9.84375 C 19.171875 9.066406 18.789063 8.226563 18.40625 7.4375 C 17.640625 5.863281 16.875 4.5 16.875 4.5 Z M 16 7.1875 C 16.246094 7.65625 16.300781 7.707031 16.59375 8.3125 C 16.960938 9.066406 17.328125 9.871094 17.59375 10.5625 C 17.859375 11.253906 18 11.886719 18 12 C 18 12.773438 17.566406 13.417969 16.9375 13.75 C 16.785156 12.964844 16 11 16 11 C 16 11 15.214844 12.964844 15.0625 13.75 C 14.433594 13.417969 14 12.773438 14 12 C 14 11.886719 14.140625 11.253906 14.40625 10.5625 C 14.671875 9.871094 15.039063 9.066406 15.40625 8.3125 C 15.699219 7.707031 15.753906 7.65625 16 7.1875 Z M 12.125 20 L 19.875 20 L 25 21.71875 L 25 27 L 17 27 L 17 22 L 15 22 L 15 27 L 7 27 L 7 21.71875 Z "></path>
</g>
</svg>
