<?xml version="1.0" encoding="UTF-8"?>
<svg xmlns="http://www.w3.org/2000/svg" xmlns:xlink="http://www.w3.org/1999/xlink" viewBox="0 0 32 32" version="1.1">
<g>
<path d="M 15.59375 3 L 15.3125 3.25 C 15.3125 3.25 12 6.097656 12 11 L 12 16 L 10 16 L 10 18 L 6 18 L 6 8 L 4 8 L 4 15 L 3 15 L 3 26 L 6 26 L 6 24.4375 L 10 25.875 L 10 29 L 12 29 L 12 26.59375 L 13 26.96875 L 13 29 L 15 29 L 15 27.6875 L 15.65625 27.9375 L 16 28.0625 L 16.34375 27.9375 L 17 27.6875 L 17 29 L 19 29 L 19 26.96875 L 20 26.59375 L 20 29 L 22 29 L 22 25.875 L 26 24.4375 L 26 26 L 29 26 L 29 15 L 28 15 L 28 8 L 26 8 L 26 18 L 22 18 L 22 16 L 20 16 L 20 11 C 20 6.097656 16.6875 3.25 16.6875 3.25 L 16.40625 3 Z M 16 5.53125 C 16.726563 6.324219 18 7.949219 18 11 L 18 16 L 17 16 L 17 12 L 15 12 L 15 16 L 14 16 L 14 11 C 14 7.945313 15.273438 6.324219 16 5.53125 Z M 12 18 L 20 18 L 20 22 L 22 22 L 22 20 L 26 20 L 26 22.3125 L 16 25.9375 L 6 22.3125 L 6 20 L 10 20 L 10 22 L 12 22 Z M 13 19 C 13 20.65625 14.34375 22 16 22 C 17.65625 22 19 20.65625 19 19 L 17 19 C 17 19.550781 16.550781 20 16 20 C 15.449219 20 15 19.550781 15 19 Z "></path>
</g>
</svg>
