<?xml version="1.0" encoding="UTF-8"?>
<svg xmlns="http://www.w3.org/2000/svg" xmlns:xlink="http://www.w3.org/1999/xlink" viewBox="0 0 32 32" version="1.1">
<g>
<path d="M 16 4 L 15.4375 4.375 C 15.011719 4.667969 5 11.609375 5 18 C 5 21.308594 7.691406 24 11 24 C 11.980469 24 12.898438 23.734375 13.71875 23.3125 L 11.375 28 L 20.625 28 L 18.28125 23.3125 C 19.101563 23.734375 20.019531 24 21 24 C 24.308594 24 27 21.308594 27 18 C 27 11.480469 16.988281 4.660156 16.5625 4.375 Z M 16 6.4375 C 18.953125 8.558594 25 13.761719 25 18 C 25 20.207031 23.207031 22 21 22 C 18.792969 22 17 20.207031 17 18 L 15 18 C 15 20.207031 13.207031 22 11 22 C 8.792969 22 7 20.207031 7 18 C 7 13.851563 13.042969 8.589844 16 6.4375 Z M 16 23.25 L 17.375 26 L 14.625 26 Z "></path>
</g>
</svg>
