<?xml version="1.0" encoding="UTF-8"?>
<svg xmlns="http://www.w3.org/2000/svg" xmlns:xlink="http://www.w3.org/1999/xlink" viewBox="0 0 32 32" version="1.1">
<g>
<path d="M 5.625 5 C 3.953125 5 2.441406 5.976563 1.75 7.5 L 1.28125 8.5 C 1.054688 8.996094 0.992188 9.5 1.03125 10 L 1 10 L 1 23 C 1 25.199219 2.800781 27 5 27 L 27 27 C 29.199219 27 31 25.199219 31 23 L 31 10 L 30.96875 10 C 31.007813 9.5 30.945313 8.996094 30.71875 8.5 L 30.25 7.5 C 29.558594 5.976563 28.046875 5 26.375 5 Z M 5.625 7 L 26.375 7 C 27.269531 7 28.066406 7.53125 28.4375 8.34375 L 28.90625 9.34375 C 29.277344 10.160156 28.710938 11 27.8125 11 L 4.1875 11 C 3.289063 11 2.722656 10.160156 3.09375 9.34375 L 3.5625 8.34375 C 3.933594 7.53125 4.730469 7 5.625 7 Z M 20 8 L 20 10 L 25 10 C 25.550781 10 26 9.550781 26 9 C 26 8.449219 25.550781 8 25 8 Z M 3 12.75 C 3.367188 12.902344 3.761719 13 4.1875 13 L 27.8125 13 C 28.238281 13 28.632813 12.902344 29 12.75 L 29 23 C 29 24.117188 28.117188 25 27 25 L 5 25 C 3.882813 25 3 24.117188 3 23 Z M 6.5 15 C 5.132813 15 4 16.132813 4 17.5 C 4 18.867188 5.132813 20 6.5 20 C 6.785156 20 7 20.214844 7 20.5 C 7 20.863281 6.9375 21 6.5 21 C 6.121094 21 6.066406 20.914063 6.0625 20.90625 C 6.058594 20.898438 6 20.867188 6 20.625 L 4 20.625 C 4 21.191406 4.15625 21.832031 4.625 22.3125 C 5.09375 22.792969 5.773438 23 6.5 23 C 7.910156 23 9 21.792969 9 20.5 C 9 19.132813 7.867188 18 6.5 18 C 6.214844 18 6 17.785156 6 17.5 C 6 17.214844 6.214844 17 6.5 17 C 6.769531 17 6.84375 17.058594 6.90625 17.125 C 6.96875 17.191406 7 17.320313 7 17.40625 L 9 17.40625 C 9 16.839844 8.804688 16.253906 8.375 15.78125 C 7.945313 15.308594 7.257813 15 6.5 15 Z M 10 15 L 10 23 L 12 23 L 12 21 C 13.644531 21 15 19.644531 15 18 C 15 16.355469 13.644531 15 12 15 Z M 17.21875 15 L 17 15.6875 L 15.0625 21.6875 L 15 21.84375 L 15 23 L 17 23 L 17 22.125 L 17.03125 22 L 18.96875 22 L 19 22.125 L 19 23 L 21 23 L 21 21.84375 L 20.9375 21.6875 L 19 15.6875 L 18.78125 15 Z M 22 15 L 22 23 L 24 23 L 24 18.34375 L 24.1875 18.59375 L 25 19.65625 L 25.8125 18.59375 L 26 18.34375 L 26 23 L 28 23 L 28 15 L 26 15 L 25.6875 15.40625 L 25 16.3125 L 24.3125 15.40625 L 24 15 Z M 12 17 C 12.566406 17 13 17.433594 13 18 C 13 18.566406 12.566406 19 12 19 Z M 18 19.0625 L 18.3125 20 L 17.6875 20 Z "></path>
</g>
</svg>
