<?xml version="1.0" encoding="UTF-8"?>
<svg xmlns="http://www.w3.org/2000/svg" xmlns:xlink="http://www.w3.org/1999/xlink" viewBox="0 0 32 32" version="1.1">
<g>
<path d="M 24.875 4 C 24.070313 4 23.234375 4.296875 22.625 4.90625 L 22.21875 5.34375 C 22.09375 5.328125 21.96875 5.3125 21.84375 5.3125 C 21.175781 5.3125 20.503906 5.558594 20 6.0625 C 19.574219 6.488281 19.347656 7.03125 19.28125 7.59375 C 18.710938 7.652344 18.152344 7.878906 17.71875 8.3125 C 17.332031 8.699219 17.089844 9.183594 17 9.6875 C 16.957031 9.6875 16.914063 9.683594 16.875 9.6875 C 16.417969 9.726563 15.980469 9.878906 15.59375 10.15625 L 12.09375 12.625 L 10.5 11.03125 L 9.78125 11.71875 L 6 15.5 L 5.3125 16.21875 L 6 16.9375 L 7.5625 18.5 L 5.28125 20.78125 L 6 21.46875 L 7.46875 22.9375 L 7.46875 24.53125 L 9.0625 24.53125 L 9.8125 25.3125 L 9.78125 25.34375 C 8.910156 26.214844 7.527344 26.214844 6.65625 25.34375 C 6.027344 24.714844 5.847656 23.808594 6.125 23.03125 L 4.25 22.375 C 3.71875 23.863281 4.035156 25.597656 5.21875 26.78125 C 6.855469 28.417969 9.550781 28.417969 11.1875 26.78125 L 11.3125 26.65625 L 11.9375 26 L 13.5 24.4375 L 15.09375 26 L 15.78125 26.71875 L 20.28125 22.21875 L 21 21.53125 L 19.375 19.90625 L 21.84375 16.40625 C 22.144531 15.984375 22.292969 15.492188 22.3125 15 C 22.816406 14.910156 23.300781 14.667969 23.6875 14.28125 C 24.121094 13.847656 24.34375 13.292969 24.40625 12.71875 C 24.96875 12.652344 25.511719 12.425781 25.9375 12 C 26.535156 11.402344 26.769531 10.570313 26.65625 9.78125 L 27.09375 9.375 L 27.09375 9.34375 C 28.289063 8.125 28.304688 6.117188 27.09375 4.90625 C 26.484375 4.296875 25.679688 4 24.875 4 Z M 24.875 6 C 25.160156 6 25.429688 6.117188 25.65625 6.34375 C 26.109375 6.796875 26.109375 7.484375 25.65625 7.9375 L 25.625 8 L 25.5625 7.9375 L 24.15625 9.375 L 24.53125 9.75 C 24.777344 9.996094 24.777344 10.347656 24.53125 10.59375 C 24.285156 10.839844 23.933594 10.839844 23.6875 10.59375 L 23.65625 10.5625 L 23.28125 10.21875 L 21.875 11.625 L 22.25 12 C 22.496094 12.246094 22.496094 12.628906 22.25 12.875 C 22.027344 13.097656 21.707031 13.117188 21.46875 12.9375 L 21.03125 12.5 L 19.625 13.90625 L 20 14.28125 L 20.15625 14.46875 C 20.371094 14.683594 20.394531 14.972656 20.21875 15.21875 L 17.90625 18.4375 L 13.5625 14.09375 L 16.78125 11.78125 C 17.027344 11.605469 17.347656 11.628906 17.5625 11.84375 C 17.609375 11.898438 17.667969 11.949219 17.71875 12 L 18.09375 12.375 L 19.5 10.96875 L 19.125 10.59375 C 18.878906 10.347656 18.878906 9.996094 19.125 9.75 C 19.371094 9.503906 19.753906 9.503906 20 9.75 L 20.375 10.125 L 21.78125 8.71875 L 21.40625 8.3125 C 21.160156 8.066406 21.160156 7.714844 21.40625 7.46875 C 21.652344 7.222656 22.003906 7.222656 22.25 7.46875 L 22.625 7.84375 L 24.0625 6.4375 L 24 6.375 L 24.0625 6.34375 C 24.289063 6.117188 24.589844 6 24.875 6 Z M 10.5 13.875 L 18.15625 21.53125 L 15.78125 23.875 L 8.125 16.21875 Z M 9 19.90625 L 10.5625 21.46875 L 12.09375 23.03125 L 11.25 23.875 L 8.125 20.78125 Z "></path>
</g>
</svg>
