<?xml version="1.0" encoding="UTF-8"?>
<svg xmlns="http://www.w3.org/2000/svg" xmlns:xlink="http://www.w3.org/1999/xlink" viewBox="0 0 32 32" version="1.1">
<g>
<path d="M 16 3 C 11.253906 3 7.515625 6.988281 6.375 11.3125 C 6.140625 12.078125 6 12.828125 6 13.5 C 6 13.601563 5.996094 13.710938 6 13.8125 C 6 13.878906 6 13.933594 6 14 C 6 21.09375 10.105469 29 16 29 C 21.894531 29 26 21.09375 26 14 C 26 13.925781 26 13.855469 26 13.78125 C 26 13.691406 26 13.589844 26 13.5 C 26 12.445313 25.75 11.421875 25.34375 10.4375 C 23.949219 6.472656 20.417969 3 16 3 Z M 11.46875 6.71875 C 11.152344 7.34375 10.917969 8.074219 10.8125 8.90625 C 10.3125 13.105469 12.492188 13.8125 13.09375 13.8125 C 13.695313 13.8125 14.414063 12.707031 14.3125 10.90625 C 14.3125 10.90625 15.085938 11.601563 15.1875 14.5 C 15.1875 15.101563 14.3125 15.09375 14.3125 15.09375 C 14.3125 15.09375 15.09375 15.1875 15.09375 15.6875 C 15.09375 17.1875 14.6875 18.90625 14.6875 18.90625 C 14.6875 18.90625 13.800781 18.085938 13.5 17.6875 C 13.101563 17.1875 12.203125 17.625 11.6875 18.3125 C 9.703125 20.96875 12.890625 25.195313 13.96875 26.5 C 10.664063 24.90625 8 19.667969 8 14 C 8 11.34375 9.347656 8.484375 11.46875 6.71875 Z M 20.78125 6.9375 C 22.765625 8.714844 24 11.441406 24 14 C 24 19.519531 21.496094 24.640625 18.3125 26.375 C 19.488281 24.855469 22.183594 20.882813 20.40625 18.40625 C 19.902344 17.707031 19.09375 17.3125 18.59375 17.8125 L 17.40625 19 C 17.40625 19 17 17.210938 17 15.8125 C 17 15.394531 17.542969 15.253906 17.75 15.21875 C 17.496094 15.214844 17 15.117188 17 14.59375 C 17.101563 11.695313 17.90625 11 17.90625 11 C 17.804688 12.800781 18.492188 13.90625 19.09375 13.90625 C 19.695313 13.90625 21.90625 13.101563 21.40625 9 C 21.308594 8.214844 21.078125 7.539063 20.78125 6.9375 Z M 8.75 13.40625 C 8.199219 13.714844 8.78125 16.6875 10.8125 16.6875 C 12.710938 16.585938 13.394531 15.988281 13.59375 15.1875 C 13.59375 15.1875 10.511719 15.085938 9.3125 13.6875 C 9.070313 13.40625 8.878906 13.335938 8.75 13.40625 Z M 23.125 13.40625 C 23.015625 13.425781 22.851563 13.5 22.6875 13.6875 C 21.488281 15.085938 18.40625 15.1875 18.40625 15.1875 C 18.605469 15.988281 19.289063 16.585938 21.1875 16.6875 C 23.375 16.6875 23.90625 13.261719 23.125 13.40625 Z "></path>
</g>
</svg>
