<?xml version="1.0"?>
<svg xmlns="http://www.w3.org/2000/svg" viewBox="0 0 32 32">
    <path d="M 10 4 C 8.898 4 8 4.898 8 6 L 8 26 C 8 27.102 8.898 28 10 28 L 22 28 C 23.102 28 24 27.102 24 26 L 24 23 L 22 21 L 22 26 L 10 26 L 10 6 L 22 6 L 22 11 L 24 9 L 24 6 C 24 4.898 23.102 4 22 4 L 10 4 z M 26.359375 9.640625 L 24.949219 11.050781 C 26.219219 12.320781 27 14.07 27 16 C 27 17.93 26.219219 19.679219 24.949219 20.949219 L 26.359375 22.359375 C 27.989375 20.729375 29 18.48 29 16 C 29 13.52 27.989375 11.270625 26.359375 9.640625 z M 20 10 L 16 14 L 14 14 L 14 18 L 16 18 L 20 22 L 20 10 z M 23.539062 12.460938 L 22.119141 13.880859 C 22.659141 14.420859 23 15.18 23 16 C 23 16.82 22.659141 17.579141 22.119141 18.119141 L 23.539062 19.539062 C 24.439063 18.629062 25 17.38 25 16 C 25 14.62 24.439062 13.370937 23.539062 12.460938 z M 14 23 L 14 25 L 18 25 L 18 23 L 14 23 z" font-weight="400" font-family="sans-serif" white-space="normal" overflow="visible"></path>
</svg>
