<?xml version="1.0" encoding="UTF-8"?>
<svg xmlns="http://www.w3.org/2000/svg" xmlns:xlink="http://www.w3.org/1999/xlink" viewBox="0 0 32 32" version="1.1">
<g>
<path d="M 15 7 C 12.308594 7 9.265625 7.132813 6.796875 7.671875 C 5.558594 7.941406 4.460938 8.300781 3.578125 8.878906 C 2.835938 9.367188 2.226563 10.109375 2.054688 11 L 2 11 L 2 14 C 2 14.757813 2.300781 15.457031 2.765625 15.917969 C 2.878906 16.03125 3 16.132813 3.125 16.21875 L 5.210938 25 L 12.949219 25 L 12.613281 26 L 13 26 L 13 27 L 20 27 L 20 25 L 23.78125 25 L 25.886719 16.589844 L 30 13.5 L 30 11.875 L 29.347656 9.273438 C 29.015625 7.941406 27.808594 7 26.4375 7 Z M 16.820313 9 L 22.179688 9 L 22.78125 12 L 16.21875 12 Z M 24.21875 9 L 26.4375 9 C 26.902344 9 27.296875 9.308594 27.40625 9.757813 L 27.96875 12 L 24.820313 12 Z M 14.78125 9.003906 L 14.179688 12 L 8 12 C 7.339844 12 6.121094 11.964844 5.164063 11.785156 C 4.6875 11.695313 4.277344 11.558594 4.082031 11.449219 C 4.019531 11.410156 4.023438 11.417969 4.007813 11.417969 C 4.03125 11.109375 4.183594 10.875 4.675781 10.550781 C 5.214844 10.195313 6.121094 9.863281 7.21875 9.625 C 9.359375 9.160156 12.214844 9.011719 14.78125 9.003906 Z M 4 13.558594 C 4.261719 13.636719 4.523438 13.699219 4.796875 13.75 C 5.996094 13.976563 7.28125 14 8 14 L 26 14 L 24.667969 15 L 7 15 C 6.410156 15 5.5 15.007813 4.847656 14.832031 C 4.523438 14.742188 4.289063 14.613281 4.171875 14.5 C 4.058594 14.386719 4 14.304688 4 14 Z M 5.351563 16.941406 C 6.039063 17.015625 6.652344 17 7 17 L 23.71875 17 L 22.21875 23 L 19.390625 23 L 17.71875 18 L 15.28125 18 L 13.613281 23 L 6.789063 23 L 6.316406 21 L 11 21 L 11 19 L 5.839844 19 Z M 16.5 20.660156 L 17.945313 25 L 15.054688 25 Z "></path>
</g>
</svg>
