<?xml version="1.0" encoding="UTF-8"?>
<svg xmlns="http://www.w3.org/2000/svg" xmlns:xlink="http://www.w3.org/1999/xlink" viewBox="0 0 32 32" version="1.1">
<g>
<path d="M 16 3.90625 L 3.625 9.0625 L 3 9.34375 L 3 26 L 29 26 L 29 9.34375 L 28.375 9.0625 Z M 16 6.09375 L 27 10.6875 L 27 24 L 5 24 L 5 10.6875 Z M 20.84375 13 C 17.117188 13 16.679688 17.355469 14.6875 18 C 13.082031 18.515625 12.417969 17.832031 10.8125 18.28125 C 9.207031 18.730469 8 20.96875 8 20.96875 C 8 20.96875 9.488281 19.476563 11.03125 19.15625 C 12.058594 18.964844 13.277344 19.566406 14.5625 19.375 C 15.847656 19.117188 16.476563 18.515625 17.3125 17.9375 C 18.148438 17.359375 18.917969 18 20.78125 18 C 22.773438 18 24 17.042969 24 15.4375 C 24 14.152344 22.835938 13 20.84375 13 Z "></path>
</g>
</svg>
