<?xml version="1.0" encoding="UTF-8"?>
<svg xmlns="http://www.w3.org/2000/svg" xmlns:xlink="http://www.w3.org/1999/xlink" viewBox="0 0 32 32" version="1.1">
<g>
<path d="M 12.097656 3 C 12.097656 3.503906 11.902344 3.90625 11.804688 4.308594 C 11.707031 4.8125 11.609375 5.21875 11.511719 5.722656 C 11.21875 6.828125 10.925781 8.039063 11.023438 9.550781 C 11.902344 9.753906 13.078125 9.550781 13.859375 9.449219 C 14.347656 9.75 14.542969 10.253906 15.03125 10.558594 C 14.933594 9.953125 15.324219 9.851563 15.617188 9.753906 C 15.519531 9.953125 15.226563 10.15625 15.324219 10.660156 C 15.519531 10.761719 15.519531 10.457031 15.714844 10.355469 C 15.910156 10.558594 16.203125 10.558594 16.398438 10.355469 C 16.59375 10.355469 16.496094 10.660156 16.691406 10.660156 C 16.886719 10.355469 16.59375 9.953125 16.496094 9.753906 C 16.789063 9.953125 17.179688 10.054688 17.082031 10.558594 C 17.375 10.355469 17.765625 9.851563 18.15625 9.550781 C 19.035156 9.753906 20.109375 9.851563 21.089844 9.753906 C 21.089844 7.234375 20.402344 5.21875 19.816406 3.203125 C 20.011719 3.203125 20.011719 3.402344 20.011719 3.503906 C 20.597656 4.8125 21.183594 6.425781 21.574219 8.039063 C 21.675781 8.242188 21.769531 8.644531 21.867188 8.945313 C 21.96875 9.246094 22.0625 9.753906 22.0625 9.851563 C 21.964844 10.15625 21.476563 10.355469 21.28125 10.660156 C 20.988281 10.257813 20.011719 10.355469 19.035156 10.355469 C 18.742188 10.355469 18.449219 10.257813 18.253906 10.355469 C 17.863281 10.457031 17.765625 10.960938 17.570313 11.265625 C 18.058594 11.265625 18.449219 10.761719 18.9375 10.761719 C 19.230469 10.761719 19.621094 10.960938 20.011719 11.0625 C 21.085938 11.363281 22.257813 11.566406 23.234375 11.867188 C 23.335938 8.441406 22.453125 5.722656 21.28125 3.402344 C 22.453125 5.015625 23.136719 6.828125 23.722656 9.046875 C 23.820313 9.246094 23.820313 9.550781 23.917969 9.953125 C 24.015625 10.457031 24.015625 11.160156 24.308594 11.566406 C 24.015625 11.96875 23.527344 12.269531 23.234375 12.574219 C 22.257813 11.96875 20.304688 11.0625 18.644531 11.261719 C 18.253906 11.261719 17.863281 11.464844 17.667969 11.765625 C 18.15625 11.96875 18.546875 11.96875 19.132813 11.96875 C 19.328125 11.96875 19.523438 11.867188 19.621094 11.96875 C 19.71875 11.96875 20.011719 12.269531 20.207031 12.472656 C 21.378906 13.683594 22.453125 14.589844 23.820313 15.496094 C 24.210938 15.796875 24.503906 16.101563 24.992188 15.699219 C 25.089844 19.730469 24.015625 22.652344 22.746094 25.371094 C 22.550781 25.675781 22.550781 26.078125 22.257813 26.277344 C 23.234375 23.960938 23.917969 21.238281 23.917969 18.015625 C 23.917969 17.714844 24.015625 17.210938 23.917969 17.007813 C 23.820313 16.605469 23.234375 16.101563 22.84375 15.796875 C 21.769531 14.789063 20.988281 14.085938 19.816406 13.179688 C 19.621094 12.976563 19.425781 12.773438 19.230469 12.675781 C 19.035156 12.574219 18.742188 12.574219 18.449219 12.574219 C 18.15625 12.574219 17.863281 12.472656 17.664063 12.472656 C 18.152344 12.976563 18.839844 13.582031 19.425781 14.085938 C 19.523438 14.183594 19.617188 14.085938 19.816406 14.085938 C 20.011719 18.71875 19.621094 23.355469 18.351563 26.78125 C 18.058594 27.589844 17.664063 28.394531 17.179688 29 C 18.9375 25.773438 19.035156 20.230469 18.644531 15.292969 C 19.035156 14.992188 18.839844 14.6875 18.546875 14.285156 C 18.152344 13.882813 17.566406 13.175781 17.078125 12.976563 C 17.078125 13.179688 17.078125 13.378906 17.179688 13.582031 C 17.277344 13.78125 17.472656 13.984375 17.472656 14.085938 C 17.570313 14.488281 17.371094 15.292969 17.277344 15.695313 C 16.984375 17.109375 16.492188 18.71875 16.007813 19.828125 C 15.8125 19.828125 15.90625 19.527344 15.8125 19.425781 C 15.617188 19.425781 15.714844 19.726563 15.617188 19.828125 C 15.03125 18.820313 14.539063 17.210938 14.347656 15.695313 C 14.246094 15.191406 14.152344 14.488281 14.152344 14.085938 C 14.25 13.683594 14.640625 13.378906 14.542969 12.976563 C 14.152344 13.078125 13.859375 13.480469 13.566406 13.78125 C 13.273438 14.085938 12.980469 14.488281 12.78125 14.789063 C 12.78125 14.992188 12.976563 14.992188 12.976563 15.191406 C 12.683594 20.132813 12.683594 25.675781 14.539063 28.898438 C 14.347656 28.898438 14.246094 28.597656 14.148438 28.496094 C 12.683594 25.773438 12.292969 21.441406 12.097656 17.007813 C 12.097656 16 12 15.09375 12.097656 14.085938 C 12.097656 13.882813 12.292969 14.1875 12.488281 14.085938 C 13.171875 13.582031 13.757813 12.976563 14.34375 12.472656 C 13.855469 12.574219 13.269531 12.574219 12.78125 12.675781 C 12.390625 12.878906 11.902344 13.28125 11.511719 13.683594 C 10.339844 14.691406 9.070313 15.800781 8.09375 16.90625 C 7.898438 20.636719 8.679688 23.660156 9.753906 26.28125 C 8.191406 23.457031 6.824219 20.234375 7.019531 15.800781 C 7.605469 16.304688 8.386719 15.496094 8.875 15.09375 C 10.046875 14.1875 11.414063 12.976563 12.292969 11.96875 C 12.976563 12.070313 13.757813 11.96875 14.347656 11.867188 C 13.660156 10.960938 11.804688 11.363281 10.730469 11.769531 C 9.949219 11.96875 9.265625 12.273438 8.875 12.675781 C 8.386719 12.371094 8.09375 11.96875 7.703125 11.667969 C 7.996094 10.960938 8.09375 9.652344 8.289063 8.84375 C 8.875 6.730469 9.65625 4.914063 10.730469 3.203125 C 10.730469 3.503906 10.535156 3.808594 10.339844 4.109375 C 9.460938 6.125 8.875 8.746094 8.875 11.667969 C 9.851563 11.464844 10.925781 11.164063 12.097656 10.859375 C 12.488281 10.761719 12.882813 10.558594 13.074219 10.558594 C 13.5625 10.558594 13.953125 11.0625 14.445313 11.0625 C 14.347656 10.660156 14.054688 10.359375 13.859375 10.15625 C 12.980469 10.15625 12.003906 10.054688 11.21875 10.15625 C 11.21875 10.15625 11.121094 10.257813 11.023438 10.257813 L 10.828125 10.460938 C 10.636719 10.460938 10.144531 9.855469 10.046875 9.753906 C 10.4375 7.234375 11.316406 5.117188 12.097656 3 Z "></path>
</g>
</svg>
