<?xml version="1.0" encoding="UTF-8"?>
<svg xmlns="http://www.w3.org/2000/svg" xmlns:xlink="http://www.w3.org/1999/xlink" viewBox="0 0 32 32" version="1.1">
<g>
<path d="M 16 3 C 12.050781 3 7.964844 5.882813 7.15625 10.375 L 7.09375 10.40625 C 7.09375 10.40625 7.152344 10.488281 7.15625 10.5 C 7.074219 10.984375 7 11.480469 7 12 C 7 15.511719 7.789063 19.585938 9.25 22.90625 C 9.980469 24.566406 10.894531 26.054688 12 27.15625 C 13.105469 28.257813 14.464844 29 16 29 C 17.519531 29 18.871094 28.257813 19.96875 27.15625 C 21.066406 26.054688 21.984375 24.597656 22.71875 22.9375 C 24.191406 19.621094 25 15.515625 25 12 C 25 11.480469 24.921875 10.980469 24.84375 10.5 C 24.847656 10.488281 24.90625 10.40625 24.90625 10.40625 L 24.84375 10.375 C 24.042969 5.847656 19.949219 3 16 3 Z M 16 5 C 18.824219 5 21.882813 6.933594 22.75 10.15625 C 22.558594 10.449219 22.28125 10.851563 21.84375 11.375 C 20.859375 12.554688 19.195313 14.238281 16.4375 16.1875 L 16 16.5 L 15.5625 16.1875 C 12.804688 14.238281 11.140625 12.554688 10.15625 11.375 C 9.71875 10.851563 9.441406 10.449219 9.25 10.15625 C 10.121094 6.953125 13.183594 5 16 5 Z M 9.03125 13.09375 C 10.023438 14.191406 11.511719 15.570313 13.53125 17.09375 C 12.886719 17.789063 11.722656 18.929688 10.21875 19.75 C 9.554688 17.601563 9.140625 15.234375 9.03125 13.09375 Z M 22.96875 13.09375 C 22.855469 15.234375 22.453125 17.597656 21.78125 19.75 C 21.78125 19.753906 21.75 19.746094 21.75 19.75 C 20.257813 18.929688 19.109375 17.785156 18.46875 17.09375 C 20.488281 15.570313 21.976563 14.191406 22.96875 13.09375 Z M 16 17.34375 L 16.21875 17.625 C 16.21875 17.625 18.261719 20.214844 21.0625 21.65625 C 20.996094 21.8125 20.941406 21.972656 20.875 22.125 C 20.207031 23.628906 19.410156 24.898438 18.5625 25.75 C 17.714844 26.601563 16.871094 27 16 27 C 15.101563 27 14.257813 26.597656 13.40625 25.75 C 12.554688 24.902344 11.753906 23.625 11.09375 22.125 C 11.027344 21.972656 10.96875 21.8125 10.90625 21.65625 C 13.71875 20.214844 15.78125 17.625 15.78125 17.625 Z "></path>
</g>
</svg>
