<?xml version="1.0" encoding="UTF-8"?>
<svg xmlns="http://www.w3.org/2000/svg" xmlns:xlink="http://www.w3.org/1999/xlink" viewBox="0 0 32 32" version="1.1">
<g>
<path d="M 14.042969 15.242188 C 11.800781 15.746094 5.886719 17.265625 5.171875 18.074219 C 4.457031 18.984375 5.988281 25.15625 9.25 28.898438 C 7.925781 23.738281 6.394531 19.894531 7.109375 19.085938 C 7.414063 18.78125 8.433594 18.175781 9.65625 17.566406 L 9.554688 17.667969 C 8.84375 18.476563 9.351563 24.953125 12.511719 28.292969 C 11.085938 23.636719 10.472656 18.984375 11.1875 18.277344 C 11.390625 17.972656 12.207031 17.667969 13.125 17.363281 C 12.921875 18.277344 12.71875 19.285156 12.71875 20.300781 C 12.71875 23.941406 14.757813 26.875 15.980469 26.875 C 17.203125 26.875 19.242188 23.941406 19.242188 20.300781 C 19.242188 19.1875 19.140625 18.277344 18.835938 17.363281 C 19.753906 17.667969 20.570313 17.972656 20.773438 18.277344 C 21.488281 19.085938 20.875 23.636719 19.550781 28.394531 C 22.710938 25.054688 23.21875 18.578125 22.507813 17.769531 L 22.402344 17.667969 C 23.628906 18.277344 24.648438 18.882813 24.953125 19.1875 C 25.671875 20.097656 24.140625 23.839844 22.8125 29 C 25.976563 25.257813 27.605469 19.085938 26.789063 18.175781 C 26.078125 17.367188 20.265625 15.847656 17.917969 15.34375 C 17.917969 15.242188 17.816406 15.242188 17.816406 15.140625 C 20.058594 15.847656 23.730469 16.253906 24.953125 15.242188 C 26.894531 13.519531 24.445313 5.730469 22.914063 4.214844 C 23.117188 5.832031 25.566406 14.53125 21.996094 14.632813 C 21.691406 14.632813 21.386719 14.632813 20.976563 14.632813 C 22.507813 10.992188 21.386719 6.742188 18.324219 3 C 19.449219 4.820313 21.28125 12.410156 19.449219 14.027344 C 18.9375 14.53125 17.917969 14.128906 16.492188 13.925781 C 17.410156 13.519531 18.121094 12.40625 18.121094 11.09375 C 18.121094 9.472656 17.101563 8.058594 15.878906 8.058594 C 14.65625 8.058594 13.636719 9.371094 13.636719 11.09375 C 13.636719 12.40625 14.351563 13.519531 15.269531 13.925781 C 13.839844 14.027344 12.820313 14.433594 12.3125 14.027344 C 10.476563 12.40625 12.3125 4.820313 13.433594 3 C 10.578125 6.640625 9.457031 10.890625 10.988281 14.53125 C 10.679688 14.53125 10.273438 14.53125 9.96875 14.53125 C 6.398438 14.433594 8.84375 5.730469 9.050781 4.113281 C 7.519531 5.628906 5.070313 13.421875 7.007813 15.140625 C 8.128906 16.152344 11.800781 15.746094 14.144531 15.039063 C 14.144531 15.140625 14.042969 15.242188 14.042969 15.242188 "></path>
</g>
</svg>
