<?xml version="1.0" encoding="UTF-8"?>
<svg xmlns="http://www.w3.org/2000/svg" xmlns:xlink="http://www.w3.org/1999/xlink" viewBox="0 0 32 32" version="1.1">
<g>
<path d="M 16.03125 4.75 C 15.339844 4.75 14.78125 5.308594 14.78125 6 C 14.78125 6.691406 15.339844 7.25 16.03125 7.25 C 16.722656 7.25 17.28125 6.691406 17.28125 6 C 17.28125 5.308594 16.722656 4.75 16.03125 4.75 Z M 23.09375 7.4375 C 22.265625 7.4375 21.59375 8.109375 21.59375 8.9375 C 21.59375 9.765625 22.265625 10.4375 23.09375 10.4375 C 23.921875 10.4375 24.59375 9.765625 24.59375 8.9375 C 24.59375 8.109375 23.921875 7.4375 23.09375 7.4375 Z M 8.9375 7.90625 C 8.386719 7.90625 7.9375 8.355469 7.9375 8.90625 C 7.9375 9.457031 8.386719 9.90625 8.9375 9.90625 C 9.488281 9.90625 9.9375 9.457031 9.9375 8.90625 C 9.9375 8.355469 9.488281 7.90625 8.9375 7.90625 Z M 6 12.96875 C 4.34375 12.96875 3 14.3125 3 15.96875 C 3 17.625 4.34375 18.96875 6 18.96875 C 7.65625 18.96875 9 17.625 9 15.96875 C 9 14.3125 7.65625 12.96875 6 12.96875 Z M 26 14.28125 C 25.035156 14.28125 24.25 15.066406 24.25 16.03125 C 24.25 16.996094 25.035156 17.78125 26 17.78125 C 26.964844 17.78125 27.75 16.996094 27.75 16.03125 C 27.75 15.066406 26.964844 14.28125 26 14.28125 Z M 8.90625 20.5625 C 7.527344 20.5625 6.40625 21.683594 6.40625 23.0625 C 6.40625 24.441406 7.527344 25.5625 8.90625 25.5625 C 10.285156 25.5625 11.40625 24.441406 11.40625 23.0625 C 11.40625 21.683594 10.285156 20.5625 8.90625 20.5625 Z M 23.0625 21.09375 C 21.957031 21.09375 21.0625 21.988281 21.0625 23.09375 C 21.0625 24.199219 21.957031 25.09375 23.0625 25.09375 C 24.167969 25.09375 25.0625 24.199219 25.0625 23.09375 C 25.0625 21.988281 24.167969 21.09375 23.0625 21.09375 Z M 15.96875 23.75 C 14.726563 23.75 13.71875 24.757813 13.71875 26 C 13.71875 27.242188 14.726563 28.25 15.96875 28.25 C 17.210938 28.25 18.21875 27.242188 18.21875 26 C 18.21875 24.757813 17.210938 23.75 15.96875 23.75 Z "></path>
</g>
</svg>
