<?xml version="1.0" encoding="UTF-8"?>
<svg xmlns="http://www.w3.org/2000/svg" xmlns:xlink="http://www.w3.org/1999/xlink" viewBox="0 0 32 32" version="1.1">
<g>
<path d="M 16.03125 3.75 C 14.789063 3.75 13.78125 4.757813 13.78125 6 C 13.78125 7.242188 14.789063 8.25 16.03125 8.25 C 17.273438 8.25 18.28125 7.242188 18.28125 6 C 18.28125 4.757813 17.273438 3.75 16.03125 3.75 Z M 23.09375 6.4375 C 21.714844 6.4375 20.59375 7.558594 20.59375 8.9375 C 20.59375 10.316406 21.714844 11.4375 23.09375 11.4375 C 24.472656 11.4375 25.59375 10.316406 25.59375 8.9375 C 25.59375 7.558594 24.472656 6.4375 23.09375 6.4375 Z M 8.9375 6.90625 C 7.832031 6.90625 6.9375 7.800781 6.9375 8.90625 C 6.9375 10.011719 7.832031 10.90625 8.9375 10.90625 C 10.042969 10.90625 10.9375 10.011719 10.9375 8.90625 C 10.9375 7.800781 10.042969 6.90625 8.9375 6.90625 Z M 26 13.03125 C 24.34375 13.03125 23 14.375 23 16.03125 C 23 17.6875 24.34375 19.03125 26 19.03125 C 27.65625 19.03125 29 17.6875 29 16.03125 C 29 14.375 27.65625 13.03125 26 13.03125 Z M 6 14.21875 C 5.035156 14.21875 4.25 15.003906 4.25 15.96875 C 4.25 16.933594 5.035156 17.71875 6 17.71875 C 6.964844 17.71875 7.75 16.933594 7.75 15.96875 C 7.75 15.003906 6.964844 14.21875 6 14.21875 Z M 8.90625 21.5625 C 8.078125 21.5625 7.40625 22.234375 7.40625 23.0625 C 7.40625 23.890625 8.078125 24.5625 8.90625 24.5625 C 9.734375 24.5625 10.40625 23.890625 10.40625 23.0625 C 10.40625 22.234375 9.734375 21.5625 8.90625 21.5625 Z M 23.0625 22.09375 C 22.511719 22.09375 22.0625 22.542969 22.0625 23.09375 C 22.0625 23.644531 22.511719 24.09375 23.0625 24.09375 C 23.613281 24.09375 24.0625 23.644531 24.0625 23.09375 C 24.0625 22.542969 23.613281 22.09375 23.0625 22.09375 Z M 15.96875 24.75 C 15.277344 24.75 14.71875 25.308594 14.71875 26 C 14.71875 26.691406 15.277344 27.25 15.96875 27.25 C 16.660156 27.25 17.21875 26.691406 17.21875 26 C 17.21875 25.308594 16.660156 24.75 15.96875 24.75 Z "></path>
</g>
</svg>
