<?xml version="1.0" encoding="UTF-8"?>
<svg xmlns="http://www.w3.org/2000/svg" xmlns:xlink="http://www.w3.org/1999/xlink" viewBox="0 0 32 32" version="1.1">
<g>
<path d="M 16.03125 4.5 C 15.203125 4.5 14.53125 5.171875 14.53125 6 C 14.53125 6.828125 15.203125 7.5 16.03125 7.5 C 16.859375 7.5 17.53125 6.828125 17.53125 6 C 17.53125 5.171875 16.859375 4.5 16.03125 4.5 Z M 23.09375 7.1875 C 22.128906 7.1875 21.34375 7.972656 21.34375 8.9375 C 21.34375 9.902344 22.128906 10.6875 23.09375 10.6875 C 24.058594 10.6875 24.84375 9.902344 24.84375 8.9375 C 24.84375 7.972656 24.058594 7.1875 23.09375 7.1875 Z M 8.9375 7.65625 C 8.246094 7.65625 7.6875 8.214844 7.6875 8.90625 C 7.6875 9.597656 8.246094 10.15625 8.9375 10.15625 C 9.628906 10.15625 10.1875 9.597656 10.1875 8.90625 C 10.1875 8.214844 9.628906 7.65625 8.9375 7.65625 Z M 26 14.03125 C 24.894531 14.03125 24 14.925781 24 16.03125 C 24 17.136719 24.894531 18.03125 26 18.03125 C 27.105469 18.03125 28 17.136719 28 16.03125 C 28 14.925781 27.105469 14.03125 26 14.03125 Z M 6 14.96875 C 5.449219 14.96875 5 15.417969 5 15.96875 C 5 16.519531 5.449219 16.96875 6 16.96875 C 6.550781 16.96875 7 16.519531 7 15.96875 C 7 15.417969 6.550781 14.96875 6 14.96875 Z M 8.90625 20.0625 C 7.25 20.0625 5.90625 21.40625 5.90625 23.0625 C 5.90625 24.71875 7.25 26.0625 8.90625 26.0625 C 10.5625 26.0625 11.90625 24.71875 11.90625 23.0625 C 11.90625 21.40625 10.5625 20.0625 8.90625 20.0625 Z M 23.0625 20.84375 C 21.820313 20.84375 20.8125 21.851563 20.8125 23.09375 C 20.8125 24.335938 21.820313 25.34375 23.0625 25.34375 C 24.304688 25.34375 25.3125 24.335938 25.3125 23.09375 C 25.3125 21.851563 24.304688 20.84375 23.0625 20.84375 Z M 15.96875 23.5 C 14.589844 23.5 13.46875 24.621094 13.46875 26 C 13.46875 27.378906 14.589844 28.5 15.96875 28.5 C 17.347656 28.5 18.46875 27.378906 18.46875 26 C 18.46875 24.621094 17.347656 23.5 15.96875 23.5 Z "></path>
</g>
</svg>
