<?xml version="1.0" encoding="UTF-8"?>
<svg xmlns="http://www.w3.org/2000/svg" xmlns:xlink="http://www.w3.org/1999/xlink" viewBox="0 0 32 32" version="1.1">
<g>
<path d="M 16 3.5 C 14.621094 3.5 13.5 4.621094 13.5 6 C 13.5 7.378906 14.621094 8.5 16 8.5 C 17.378906 8.5 18.5 7.378906 18.5 6 C 18.5 4.621094 17.378906 3.5 16 3.5 Z M 23.09375 5.9375 C 21.4375 5.9375 20.09375 7.28125 20.09375 8.9375 C 20.09375 10.59375 21.4375 11.9375 23.09375 11.9375 C 24.75 11.9375 26.09375 10.59375 26.09375 8.9375 C 26.09375 7.28125 24.75 5.9375 23.09375 5.9375 Z M 8.9375 6.65625 C 7.695313 6.65625 6.6875 7.664063 6.6875 8.90625 C 6.6875 10.148438 7.695313 11.15625 8.9375 11.15625 C 10.179688 11.15625 11.1875 10.148438 11.1875 8.90625 C 11.1875 7.664063 10.179688 6.65625 8.9375 6.65625 Z M 6 14 C 4.894531 14 4 14.894531 4 16 C 4 17.105469 4.894531 18 6 18 C 7.105469 18 8 17.105469 8 16 C 8 14.894531 7.105469 14 6 14 Z M 26 15 C 25.449219 15 25 15.449219 25 16 C 25 16.550781 25.449219 17 26 17 C 26.550781 17 27 16.550781 27 16 C 27 15.449219 26.550781 15 26 15 Z M 8.90625 21.3125 C 7.941406 21.3125 7.15625 22.097656 7.15625 23.0625 C 7.15625 24.027344 7.941406 24.8125 8.90625 24.8125 C 9.871094 24.8125 10.65625 24.027344 10.65625 23.0625 C 10.65625 22.097656 9.871094 21.3125 8.90625 21.3125 Z M 22.8125 21.84375 C 22.242188 21.960938 21.8125 22.488281 21.8125 23.09375 C 21.8125 23.785156 22.371094 24.34375 23.0625 24.34375 C 23.753906 24.34375 24.3125 23.785156 24.3125 23.09375 C 24.3125 22.402344 23.753906 21.84375 23.0625 21.84375 C 22.976563 21.84375 22.894531 21.828125 22.8125 21.84375 Z M 16 24.5 C 15.171875 24.5 14.5 25.171875 14.5 26 C 14.5 26.828125 15.171875 27.5 16 27.5 C 16.828125 27.5 17.5 26.828125 17.5 26 C 17.5 25.171875 16.828125 24.5 16 24.5 Z "></path>
</g>
</svg>
