<?xml version="1.0" encoding="UTF-8"?>
<svg xmlns="http://www.w3.org/2000/svg" xmlns:xlink="http://www.w3.org/1999/xlink" viewBox="0 0 32 32" version="1.1">
<g>
<path d="M 16 5 C 15.449219 5 15 5.449219 15 6 C 15 6.550781 15.449219 7 16 7 C 16.550781 7 17 6.550781 17 6 C 17 5.449219 16.550781 5 16 5 Z M 8.90625 5.9375 C 7.25 5.9375 5.90625 7.28125 5.90625 8.9375 C 5.90625 10.59375 7.25 11.9375 8.90625 11.9375 C 10.5625 11.9375 11.90625 10.59375 11.90625 8.9375 C 11.90625 7.28125 10.5625 5.9375 8.90625 5.9375 Z M 23.0625 7.65625 C 22.371094 7.65625 21.8125 8.214844 21.8125 8.90625 C 21.8125 9.597656 22.371094 10.15625 23.0625 10.15625 C 23.753906 10.15625 24.3125 9.597656 24.3125 8.90625 C 24.3125 8.214844 23.753906 7.65625 23.0625 7.65625 Z M 6 13.5 C 4.621094 13.5 3.5 14.621094 3.5 16 C 3.5 17.378906 4.621094 18.5 6 18.5 C 7.378906 18.5 8.5 17.378906 8.5 16 C 8.5 14.621094 7.378906 13.5 6 13.5 Z M 26 14.5 C 25.171875 14.5 24.5 15.171875 24.5 16 C 24.5 16.828125 25.171875 17.5 26 17.5 C 26.828125 17.5 27.5 16.828125 27.5 16 C 27.5 15.171875 26.828125 14.5 26 14.5 Z M 8.9375 20.84375 C 7.695313 20.84375 6.6875 21.851563 6.6875 23.09375 C 6.6875 24.335938 7.695313 25.34375 8.9375 25.34375 C 10.179688 25.34375 11.1875 24.335938 11.1875 23.09375 C 11.1875 21.851563 10.179688 20.84375 8.9375 20.84375 Z M 23.09375 21.3125 C 22.128906 21.3125 21.34375 22.097656 21.34375 23.0625 C 21.34375 24.027344 22.128906 24.8125 23.09375 24.8125 C 24.058594 24.8125 24.84375 24.027344 24.84375 23.0625 C 24.84375 22.097656 24.058594 21.3125 23.09375 21.3125 Z M 16 24 C 14.894531 24 14 24.894531 14 26 C 14 27.105469 14.894531 28 16 28 C 17.105469 28 18 27.105469 18 26 C 18 24.894531 17.105469 24 16 24 Z "></path>
</g>
</svg>
