<?xml version="1.0" encoding="UTF-8"?>
<svg xmlns="http://www.w3.org/2000/svg" xmlns:xlink="http://www.w3.org/1999/xlink" viewBox="0 0 32 32" version="1.1">
<g>
<path d="M 18.1875 3 C 18.1875 3 17.523438 3.972656 16.65625 4.1875 C 15.953125 4.363281 9.84375 5.40625 9.84375 5.40625 C 9.292969 5.5 8.910156 6.035156 9 6.59375 C 9.089844 7.152344 9.632813 7.625 10.1875 7.53125 L 20.59375 5.4375 C 20.59375 5.4375 21.21875 5.269531 21.21875 4.71875 C 21.21875 3.65625 18.1875 3 18.1875 3 Z M 21.875 6.5625 L 9.8125 8.9375 C 9.28125 9.027344 8.914063 9.523438 9 10.0625 C 9.085938 10.601563 9.59375 11.058594 10.125 10.96875 L 21.875 8.65625 L 22.1875 8.59375 C 22.71875 8.503906 23.085938 7.914063 23 7.375 C 22.914063 6.835938 22.40625 6.472656 21.875 6.5625 Z M 21.875 10.0625 L 9.8125 12.4375 C 9.28125 12.527344 8.914063 13.023438 9 13.5625 C 9.085938 14.101563 9.59375 14.527344 10.125 14.4375 L 21.875 12.15625 L 22.1875 12.09375 C 22.71875 12.003906 23.085938 11.414063 23 10.875 C 22.914063 10.335938 22.40625 9.972656 21.875 10.0625 Z M 21.875 13.5625 L 9.8125 15.90625 C 9.28125 15.996094 8.914063 16.523438 9 17.0625 C 9.085938 17.601563 9.59375 18.027344 10.125 17.9375 L 13 17.375 L 13 20 L 10 20 L 10 21 C 10 23.40625 11.726563 25.4375 14 25.90625 L 14 27 L 15 28 L 17 28 L 18 27 L 18 25.90625 C 20.273438 25.4375 22 23.40625 22 21 L 22 20 L 19 20 L 19 17.21875 L 17 17.59375 L 17 20 L 15 20 L 15 17 L 21.875 15.65625 L 22.1875 15.59375 C 22.71875 15.503906 23.085938 14.914063 23 14.375 C 22.914063 13.835938 22.40625 13.472656 21.875 13.5625 Z M 12.40625 22 L 19.59375 22 C 19.15625 23.113281 18.277344 24 17 24 L 15 24 C 13.722656 24 12.84375 23.113281 12.40625 22 Z "></path>
</g>
</svg>
