<?xml version="1.0"?>
<svg xmlns="http://www.w3.org/2000/svg" viewBox="0 0 32 32">
    <path d="M 4 4 L 4 28 L 14.025391 28 C 13.582391 27.416 13.253563 26.743 13.101562 26 L 7.9121094 26 A 1.5 1.5 0 0 0 8 25.5 A 1.5 1.5 0 0 0 6.5 24 A 1.5 1.5 0 0 0 6 24.087891 L 6 7.9121094 A 1.5 1.5 0 0 0 6.5 8 A 1.5 1.5 0 0 0 8 6.5 A 1.5 1.5 0 0 0 7.9121094 6 L 14.087891 6 A 1.5 1.5 0 0 0 14 6.5 A 1.5 1.5 0 0 0 15.5 8 A 1.5 1.5 0 0 0 16 7.9121094 L 16 9.4238281 C 16.614 9.1538281 17.288 9 18 9 L 18 4 L 4 4 z M 11 9 A 1 1 0 0 0 10 10 A 1 1 0 0 0 11 11 A 1 1 0 0 0 12 10 A 1 1 0 0 0 11 9 z M 18 11 C 16.35503 11 15 12.35503 15 14 L 15 25 C 15 26.64497 16.35503 28 18 28 L 25 28 C 26.64497 28 28 26.64497 28 25 L 28 14 C 28 12.35503 26.64497 11 25 11 L 18 11 z M 11 13 C 9.346 13 8 14.346 8 16 C 8 17.654 9.346 19 11 19 C 11.771 19 12.468 18.699703 13 18.220703 L 13 13.78125 C 12.468 13.30025 11.771 13 11 13 z M 18 13 L 25 13 C 25.56503 13 26 13.43497 26 14 L 26 25 C 26 25.56503 25.56503 26 25 26 L 24 26 L 24 14 L 22 14 L 22 26 L 18 26 C 17.43497 26 17 25.56503 17 25 L 17 14 C 17 13.43497 17.43497 13 18 13 z M 11 15 C 11.552 15 12 15.449 12 16 C 12 16.551 11.552 17 11 17 C 10.448 17 10 16.551 10 16 C 10 15.449 10.448 15 11 15 z M 11 21 A 1 1 0 0 0 10 22 A 1 1 0 0 0 11 23 A 1 1 0 0 0 12 22 A 1 1 0 0 0 11 21 z"></path>
</svg>
