<?xml version="1.0" encoding="UTF-8"?>
<svg xmlns="http://www.w3.org/2000/svg" xmlns:xlink="http://www.w3.org/1999/xlink" viewBox="0 0 32 32" version="1.1">
<g>
<path d="M 30 5.4375 L 19.3125 9.875 C 17.441406 10.730469 15.976563 10.5 15.96875 10.5 C 15.515625 10.390625 15.054688 10.320313 14.59375 10.25 C 13.363281 10.066406 12.148438 10.015625 11.15625 10.0625 C 10.660156 10.085938 10.222656 10.125 9.84375 10.1875 C 9.464844 10.25 9.167969 10.300781 8.8125 10.5 C 8.25 10.804688 7.71875 11.28125 7.125 11.9375 C 6.753906 12.347656 6.363281 12.828125 6 13.34375 L 5.6875 13.625 C 3.960938 15.039063 2 16.621094 2 19.625 C 2 22.628906 5.761719 28 13.21875 28 C 20.632813 28 24 22.296875 24 17 C 24 15.972656 24.386719 14.746094 25.125 14.46875 C 26.03125 14.074219 27.6875 13.398438 29.5 12.65625 L 30 12.4375 L 30 10.28125 L 28.71875 10.78125 C 26.890625 11.53125 25.242188 12.214844 24.375 12.59375 C 22.632813 13.25 22 15.382813 22 17 C 22 21.480469 19.292969 26 13.21875 26 C 6.847656 26 4 21.378906 4 19.625 C 4 19.421875 4.039063 19.246094 4.0625 19.0625 C 4.101563 19.578125 4.199219 20.089844 4.40625 20.59375 C 4.707031 21.332031 5.300781 21.878906 6 22.1875 C 6.699219 22.496094 7.488281 22.628906 8.34375 22.625 C 10.050781 22.617188 12.050781 22.128906 14.125 21.28125 C 16.226563 20.421875 17.972656 19.257813 19.15625 18.03125 C 20.339844 16.804688 21.128906 15.417969 20.65625 14 C 20.382813 13.1875 19.851563 12.546875 19.21875 12.03125 C 19.507813 11.933594 19.789063 11.828125 20.09375 11.6875 L 30 7.59375 Z M 11.25 12.0625 C 12.113281 12.023438 13.199219 12.058594 14.28125 12.21875 C 15.363281 12.378906 16.445313 12.671875 17.25 13.09375 C 18.054688 13.515625 18.570313 14.03125 18.78125 14.65625 C 18.851563 14.863281 18.65625 15.683594 17.71875 16.65625 C 16.78125 17.628906 15.246094 18.671875 13.375 19.4375 C 11.476563 20.214844 9.660156 20.617188 8.34375 20.625 C 7.683594 20.628906 7.148438 20.523438 6.8125 20.375 C 6.476563 20.226563 6.339844 20.066406 6.25 19.84375 C 5.746094 18.613281 6.21875 16.898438 7.125 15.34375 C 7.578125 14.566406 8.125 13.832031 8.625 13.28125 C 9.125 12.730469 9.621094 12.335938 9.78125 12.25 C 9.695313 12.296875 9.882813 12.203125 10.15625 12.15625 C 10.429688 12.109375 10.816406 12.082031 11.25 12.0625 Z M 9.5 15 C 9.222656 15 9 15.222656 9 15.5 C 9 15.777344 9.222656 16 9.5 16 C 9.777344 16 10 15.777344 10 15.5 C 10 15.222656 9.777344 15 9.5 15 Z M 8.5 17 C 8.222656 17 8 17.222656 8 17.5 C 8 17.777344 8.222656 18 8.5 18 C 8.777344 18 9 17.777344 9 17.5 C 9 17.222656 8.777344 17 8.5 17 Z M 10.5 17 C 10.222656 17 10 17.222656 10 17.5 C 10 17.777344 10.222656 18 10.5 18 C 10.777344 18 11 17.777344 11 17.5 C 11 17.222656 10.777344 17 10.5 17 Z "></path>
</g>
</svg>
