<?xml version="1.0"?>
<svg xmlns="http://www.w3.org/2000/svg" viewBox="0 0 32 32">
    <path d="M 25 3 L 25 4 C 25 5.7222222 25.608503 6.9544198 26.117188 7.9082031 C 26.625872 8.8619865 27 9.5166667 27 10.5 C 27 11.340812 26.340812 12 25.5 12 C 24.659188 12 24 11.340812 24 10.5 L 24 10 L 25 10 L 22 7 L 22 10 L 22 10.5 C 22 12.421188 23.578812 14 25.5 14 C 27.421188 14 29 12.421188 29 10.5 C 29 8.9833333 28.374128 7.8880135 27.882812 6.9667969 C 27.391497 6.0455802 27 5.2777778 27 4 L 27 3 L 25 3 z M 15.15625 11.740234 L 8.796875 15.554688 L 9.3144531 17.105469 C 8.64095 17.517514 8.0699935 17.896603 7.6210938 18.248047 C 6.8392289 17.622301 5.7449565 17 4 17 L 3 17 L 3 25 L 4 25 C 5.6764221 25 6.7490066 24.419836 7.5351562 23.820312 C 8.1612423 24.396909 8.9615746 25.064867 10 25.771484 L 10 28.191406 L 11 28.191406 C 11.471977 28.191406 11.802794 28.063617 12.222656 27.896484 C 12.532093 27.773308 12.878309 27.58672 13.220703 27.402344 C 14.10809 27.716331 15.022443 28 16 28 C 19.166667 28 21.36235 27.198215 22.763672 26.357422 C 24.164994 25.516629 24.832031 24.554687 24.832031 24.554688 L 25.287109 23.873047 L 24.707031 23.292969 C 24.707031 23.292969 24.525139 23.109975 24.332031 22.820312 C 24.138924 22.530652 24 22.166667 24 22 C 24 21.833333 24.138924 21.469349 24.332031 21.179688 C 24.525139 20.890026 24.707031 20.707031 24.707031 20.707031 L 25.21875 20.195312 L 24.892578 19.548828 C 24.892578 19.548828 22.933651 16.053242 18.064453 15.236328 C 17.000984 13.694813 15.708984 12.294922 15.708984 12.294922 L 15.15625 11.740234 z M 14.769531 14.302734 C 15.157964 14.714574 15.865654 15.413651 16.634766 16.630859 L 16.888672 17.033203 L 17.361328 17.089844 C 21.100111 17.541276 22.347942 19.355297 22.730469 19.992188 C 22.699799 20.035307 22.698749 20.024142 22.667969 20.070312 C 22.361076 20.530656 22 21.166667 22 22 C 22 22.811404 22.349079 23.421664 22.650391 23.878906 C 22.460243 24.092534 22.43752 24.221863 21.736328 24.642578 C 20.63765 25.301785 18.833333 26 16 26 C 15.181717 26 14.314005 25.785717 13.447266 25.435547 L 12.990234 25.25 L 12.566406 25.498047 C 12.35978 25.618976 12.19092 25.687465 12 25.78125 L 12 24.740234 L 11.53125 24.445312 C 10.106944 23.554416 8.910791 22.489418 8.2675781 21.863281 L 7.5273438 21.142578 L 6.8320312 21.904297 C 6.5386698 22.22596 5.9001695 22.586108 5 22.796875 L 5 19.207031 C 5.9244134 19.424374 6.5703358 19.800368 6.8554688 20.123047 L 7.5019531 20.855469 L 8.25 20.224609 C 8.800633 19.75926 9.7577502 19.030612 10.970703 18.384766 L 11.716797 17.988281 L 11.203125 16.445312 L 14.769531 14.302734 z M 18.5 19 C 17.669 19 17 19.67 17 20.5 C 17 21.328 17.669 22 18.5 22 C 19.329 22 20 21.328 20 20.5 C 20 20.368 19.977312 20.243094 19.945312 20.121094 C 19.817312 20.213094 19.67 20.277344 19.5 20.277344 C 19.069 20.277344 18.722656 19.93 18.722656 19.5 C 18.722656 19.33 18.786906 19.182688 18.878906 19.054688 C 18.756906 19.022687 18.632 19 18.5 19 z" font-weight="400" font-family="sans-serif" white-space="normal" overflow="visible"></path>
</svg>
