<?xml version="1.0" encoding="UTF-8"?>
<svg xmlns="http://www.w3.org/2000/svg" xmlns:xlink="http://www.w3.org/1999/xlink" viewBox="0 0 32 32" version="1.1">
<g>
<path d="M 19 4 C 17.355469 4 16 5.355469 16 7 C 16 8.644531 17.355469 10 19 10 C 20.644531 10 22 8.644531 22 7 C 22 5.355469 20.644531 4 19 4 Z M 19 6 C 19.5625 6 20 6.4375 20 7 C 20 7.5625 19.5625 8 19 8 C 18.4375 8 18 7.5625 18 7 C 18 6.4375 18.4375 6 19 6 Z M 13.78125 9.3125 L 13.40625 9.46875 L 9.625 11.09375 L 9.375 11.1875 L 9.1875 11.40625 L 6.1875 15.40625 L 7.8125 16.59375 L 10.65625 12.78125 L 13.46875 11.625 L 10.90625 18.5 L 11.40625 22.6875 L 7.90625 28 L 10.3125 28 L 13.5 23.1875 L 13.03125 19.6875 L 17.5 19.96875 L 21.21875 24.625 L 22.78125 23.375 L 18.78125 18.375 L 18.5 18.03125 L 18.0625 18 L 16.40625 17.875 L 18.53125 13.71875 L 20.46875 15.78125 L 20.78125 16.125 L 21.21875 16.09375 L 25.03125 16 L 24.96875 14 L 21.625 14.09375 L 19.03125 11.3125 L 18.875 11.125 L 18.625 11.0625 L 14.125 9.46875 Z M 15.34375 12 L 16.90625 12.5625 L 14.25 17.75 L 13.28125 17.6875 Z "></path>
</g>
</svg>
