<?xml version="1.0" encoding="UTF-8"?>
<svg xmlns="http://www.w3.org/2000/svg" xmlns:xlink="http://www.w3.org/1999/xlink" viewBox="0 0 32 32" version="1.1">
<g>
<path d="M 0 5 L 0 27 L 2 27 L 2 5 Z M 30 5 L 30 27 L 32 27 L 32 5 Z M 3 6 L 3 8 L 5 8 L 5 10 L 3 10 L 3 12 L 5 12 L 5 14 L 3 14 L 3 16 L 5 16 L 5 18 L 3 18 L 3 20 L 29 20 L 29 18 L 27 18 L 27 16 L 29 16 L 29 14 L 27 14 L 27 12 L 29 12 L 29 10 L 27 10 L 27 8 L 29 8 L 29 6 Z M 7 8 L 9 8 L 9 10 L 7 10 Z M 11 8 L 13 8 L 13 10 L 11 10 Z M 15 8 L 17 8 L 17 10 L 15 10 Z M 19 8 L 21 8 L 21 10 L 19 10 Z M 23 8 L 25 8 L 25 10 L 23 10 Z M 7 12 L 9 12 L 9 14 L 7 14 Z M 11 12 L 13 12 L 13 14 L 11 14 Z M 15 12 L 17 12 L 17 14 L 15 14 Z M 19 12 L 21 12 L 21 14 L 19 14 Z M 23 12 L 25 12 L 25 14 L 23 14 Z M 7 16 L 9 16 L 9 18 L 7 18 Z M 11 16 L 13 16 L 13 18 L 11 18 Z M 15 16 L 17 16 L 17 18 L 15 18 Z M 19 16 L 21 16 L 21 18 L 19 18 Z M 23 16 L 25 16 L 25 18 L 23 18 Z "></path>
</g>
</svg>
