<?xml version="1.0" encoding="UTF-8"?>
<svg xmlns="http://www.w3.org/2000/svg" xmlns:xlink="http://www.w3.org/1999/xlink" viewBox="0 0 32 32" version="1.1">
<g>
<path d="M 25.34375 1 L 27.46875 3.125 L 25.46875 5.125 C 24.488281 4.421875 23.292969 4 22 4 C 18.699219 4 16 6.699219 16 10 C 16 13.300781 18.699219 16 22 16 C 25.300781 16 28 13.300781 28 10 C 28 8.707031 27.578125 7.511719 26.875 6.53125 L 28.875 4.53125 L 31 6.65625 L 31 1 Z M 22 6 C 24.222656 6 26 7.777344 26 10 C 26 12.222656 24.222656 14 22 14 C 19.777344 14 18 12.222656 18 10 C 18 7.777344 19.777344 6 22 6 Z M 10 16 C 6.699219 16 4 18.699219 4 22 C 4 23.292969 4.421875 24.488281 5.125 25.46875 L 3.125 27.46875 L 1 25.34375 L 1 31 L 6.65625 31 L 4.53125 28.875 L 6.53125 26.875 C 7.511719 27.578125 8.707031 28 10 28 C 13.300781 28 16 25.300781 16 22 C 16 18.699219 13.300781 16 10 16 Z M 10 18 C 12.222656 18 14 19.777344 14 22 C 14 24.222656 12.222656 26 10 26 C 7.777344 26 6 24.222656 6 22 C 6 19.777344 7.777344 18 10 18 Z "></path>
</g>
</svg>
