<?xml version="1.0" encoding="UTF-8"?>
<svg xmlns="http://www.w3.org/2000/svg" xmlns:xlink="http://www.w3.org/1999/xlink" viewBox="0 0 32 32" version="1.1">
<g>
<path d="M 27.246094 9.476563 C 26.015625 7.355469 23.550781 6.355469 21.242188 6.898438 C 20.554688 4.632813 18.453125 3 16 3 C 13.546875 3 11.445313 4.632813 10.757813 6.898438 C 8.453125 6.355469 5.984375 7.355469 4.753906 9.480469 C 3.511719 11.621094 3.882813 14.269531 5.519531 16 C 3.882813 17.730469 3.511719 20.378906 4.753906 22.519531 C 5.988281 24.644531 8.453125 25.644531 10.757813 25.101563 C 11.445313 27.367188 13.546875 29 16 29 C 18.453125 29 20.554688 27.367188 21.242188 25.101563 C 23.550781 25.644531 26.015625 24.644531 27.246094 22.523438 C 28.488281 20.378906 28.117188 17.730469 26.480469 16 C 28.117188 14.269531 28.488281 11.621094 27.246094 9.476563 Z M 24.382813 16.839844 C 25.949219 17.855469 26.445313 19.910156 25.515625 21.515625 C 24.59375 23.105469 22.578125 23.703125 20.921875 22.871094 L 19.566406 22.1875 L 19.476563 23.707031 C 19.363281 25.554688 17.839844 27 16 27 C 14.160156 27 12.636719 25.554688 12.523438 23.703125 L 12.433594 22.1875 L 11.078125 22.871094 C 9.421875 23.703125 7.40625 23.109375 6.484375 21.519531 C 5.554688 19.910156 6.050781 17.855469 7.617188 16.839844 L 8.914063 16 L 7.617188 15.160156 C 6.050781 14.144531 5.554688 12.089844 6.484375 10.480469 C 7.40625 8.890625 9.425781 8.296875 11.078125 9.128906 L 12.433594 9.8125 L 12.523438 8.292969 C 12.636719 6.445313 14.160156 5 16 5 C 17.839844 5 19.363281 6.445313 19.476563 8.292969 L 19.566406 9.8125 L 20.921875 9.128906 C 22.578125 8.296875 24.59375 8.890625 25.515625 10.480469 C 26.449219 12.089844 25.949219 14.144531 24.382813 15.160156 L 23.085938 16 Z M 17 12 C 17 12.550781 16 16 16 16 C 16 16 15 12.550781 15 12 C 15 11.449219 15.449219 11 16 11 C 16.550781 11 17 11.449219 17 12 Z M 15 20 C 15 19.449219 16 16 16 16 C 16 16 17 19.449219 17 20 C 17 20.550781 16.550781 21 16 21 C 15.449219 21 15 20.550781 15 20 Z M 16 16 C 16 16 12.507813 15.164063 12.027344 14.894531 C 11.546875 14.621094 11.378906 14.007813 11.652344 13.527344 C 11.925781 13.050781 12.535156 12.882813 13.015625 13.152344 C 13.496094 13.425781 16 16 16 16 Z M 16 16 C 16 16 19.492188 16.835938 19.972656 17.105469 C 20.453125 17.378906 20.621094 17.992188 20.347656 18.472656 C 20.074219 18.949219 19.464844 19.117188 18.984375 18.847656 C 18.503906 18.574219 16 16 16 16 Z M 19.972656 14.894531 C 19.492188 15.164063 16 16 16 16 C 16 16 18.503906 13.425781 18.984375 13.152344 C 19.464844 12.882813 20.074219 13.050781 20.347656 13.527344 C 20.621094 14.007813 20.453125 14.621094 19.972656 14.894531 Z M 12.027344 17.105469 C 12.507813 16.835938 16 16 16 16 C 16 16 13.496094 18.574219 13.015625 18.847656 C 12.535156 19.117188 11.925781 18.949219 11.652344 18.472656 C 11.378906 17.992188 11.546875 17.378906 12.027344 17.105469 Z "></path>
</g>
</svg>
