<?xml version="1.0" encoding="UTF-8"?>
<svg xmlns="http://www.w3.org/2000/svg" xmlns:xlink="http://www.w3.org/1999/xlink" viewBox="0 0 32 32" version="1.1">
<g>
<path d="M 25 20 L 21 20 L 21 12 L 23 12 L 23 18 L 25 18 Z "></path>
<path d="M 10.5 20 C 8.957031 20 8 19.089844 8 17.617188 L 10 17.617188 C 10 17.917969 10 18 10.5 18 C 10.933594 18 11 17.6875 11 17.5 C 11 17.226563 10.777344 17 10.5 17 C 9.121094 17 8 15.878906 8 14.5 C 8 13.121094 9.121094 12 10.5 12 C 12.125 12 13 13.238281 13 14.40625 L 11 14.40625 C 11 14.285156 10.949219 14 10.5 14 C 10.222656 14 10 14.226563 10 14.5 C 10 14.773438 10.222656 15 10.5 15 C 11.878906 15 13 16.121094 13 17.5 C 13 18.925781 11.925781 20 10.5 20 Z "></path>
<path d="M 19 20 L 16.5 20 C 15.121094 20 14 18.878906 14 17.5 L 14 14.5 C 14 13.121094 15.121094 12 16.5 12 C 17.878906 12 19 13.121094 19 14.5 Z M 16.5 14 C 16.222656 14 16 14.226563 16 14.5 L 16 17.5 C 16 17.773438 16.222656 18 16.5 18 L 17 18 L 17 14.5 C 17 14.226563 16.777344 14 16.5 14 Z "></path>
<path d="M 32 25 L 0 25 L 0 7 L 32 7 Z M 2 23 L 30 23 L 30 9 L 2 9 Z "></path>
<path d="M 18 17 L 16 17 L 18 21 L 20 21 Z "></path>
</g>
</svg>
