<?xml version="1.0" encoding="UTF-8"?>
<svg xmlns="http://www.w3.org/2000/svg" xmlns:xlink="http://www.w3.org/1999/xlink" viewBox="0 0 32 32" version="1.1">
<g>
<path d="M 15.5 4 C 13.578125 4 12 5.578125 12 7.5 C 12 9.421875 13.578125 11 15.5 11 C 17.421875 11 19 9.421875 19 7.5 C 19 5.578125 17.421875 4 15.5 4 Z M 15.5 6 C 16.339844 6 17 6.660156 17 7.5 C 17 8.339844 16.339844 9 15.5 9 C 14.660156 9 14 8.339844 14 7.5 C 14 6.660156 14.660156 6 15.5 6 Z M 13.375 12 C 12.902344 12 12.425781 12.1875 12.0625 12.5 C 11.109375 13.320313 8.355469 15.839844 8.03125 19.375 C 7.953125 20.265625 8.675781 21 9.53125 21 L 16.1875 21 L 13.96875 27.25 L 15.875 27.90625 L 18.0625 21.65625 C 18.511719 20.382813 17.535156 19 16.1875 19 L 10.1875 19 C 10.675781 16.695313 12.644531 14.628906 13.375 14 L 17.78125 14.96875 L 18 15.03125 L 18.1875 14.96875 L 23.1875 13.96875 L 22.8125 12.03125 L 18.03125 13 L 13.5625 12.03125 L 13.46875 12 Z "></path>
</g>
</svg>
