<?xml version="1.0" encoding="UTF-8"?>
<svg xmlns="http://www.w3.org/2000/svg" xmlns:xlink="http://www.w3.org/1999/xlink" viewBox="0 0 32 32" version="1.1">
<g>
<path d="M 19.585938 4 L 19.292969 4.292969 C 18.4375 5.148438 17.980469 6.457031 18 8 L 18 11 C 18 11.109375 17.996094 11.21875 17.988281 11.328125 C 17.796875 7.625 15.074219 4.539063 11.503906 4.066406 C 9.359375 3.777344 7.191406 4.4375 5.566406 5.859375 C 3.9375 7.289063 3 9.347656 3 11.5 L 3 14.027344 L 4.671875 12.519531 C 4.933594 12.285156 5.375 12.003906 5.984375 12 C 7.09375 12 8 12.898438 8 14 C 8 15.152344 7.28125 15.746094 6.109375 16.625 C 5.625 16.992188 5.117188 17.371094 4.722656 17.800781 C 4.285156 18.238281 3.496094 19.191406 3.15625 20.625 C 3.0625 21.027344 3.011719 21.433594 3 21.84375 C 2.960938 23.402344 3.5625 24.902344 4.695313 26.066406 C 6.574219 27.996094 9.660156 28.578125 11.984375 27.289063 C 12.789063 28.113281 14.097656 29 16 29 L 24 29 L 24 28 C 24 26.59375 23.382813 25.25 22.34375 24.308594 C 22.773438 23.425781 23 22.472656 23 21.5 L 23 21 L 28 21 L 28 20 C 28 17.585938 26.277344 15.566406 24 15.101563 L 24 14 L 29 14 L 29 13 C 29 9.984375 26.765625 7.480469 23.859375 7.0625 C 23.324219 5.261719 21.347656 4 20 4 Z M 10.644531 6 C 10.84375 6.007813 11.042969 6.023438 11.242188 6.046875 C 13.953125 6.410156 16 8.855469 16 11.746094 L 16 15.019531 C 15.972656 15.023438 15.941406 15.023438 15.910156 15.027344 C 12.542969 15.328125 10 18.113281 10 21.5 L 10 22 L 12 22 L 12 21.5 C 12 19.152344 13.757813 17.230469 16.089844 17.019531 C 16.226563 17.007813 16.363281 17 16.5 17 L 17.472656 17 L 17.769531 16.660156 C 17.863281 16.558594 20 14.113281 20 11 L 20 7.949219 C 19.988281 7.214844 20.136719 6.566406 20.410156 6.09375 C 21.089844 6.363281 22 7.160156 22 8 L 22 9 L 23 9 C 24.859375 9 26.429688 10.277344 26.875 12 L 24 12 C 22.898438 12 22 12.898438 22 14 L 22 17 L 23 17 C 24.304688 17 25.414063 17.835938 25.828125 19 L 21 19 L 21 21.5 C 21 22.382813 20.726563 23.25 20.203125 24.015625 L 19.609375 24.890625 L 20.519531 25.4375 C 21.140625 25.804688 21.59375 26.359375 21.824219 27 L 16 27 C 14.386719 27 13.417969 25.988281 12.984375 25.382813 L 12.375 24.53125 L 11.554688 25.179688 C 9.925781 26.464844 7.542969 26.121094 6.132813 24.671875 C 5.375 23.898438 4.976563 22.910156 5 21.894531 C 5.007813 21.621094 5.042969 21.351563 5.105469 21.089844 C 5.339844 20.097656 5.90625 19.449219 6.164063 19.1875 C 6.464844 18.859375 6.875 18.554688 7.3125 18.226563 C 8.507813 17.328125 10 16.210938 10 14 C 10 11.792969 8.199219 10 5.980469 10 C 5.710938 10 5.449219 10.03125 5.1875 10.085938 C 5.46875 9.046875 6.054688 8.09375 6.882813 7.367188 C 7.945313 6.4375 9.261719 5.964844 10.644531 6 Z "></path>
</g>
</svg>
