<?xml version="1.0" encoding="UTF-8"?>
<svg xmlns="http://www.w3.org/2000/svg" xmlns:xlink="http://www.w3.org/1999/xlink" viewBox="0 0 32 32" version="1.1">
<g>
<path d="M 3 5 L 3 21 L 6.59375 21 L 6.5 22 L 7.5 22.09375 L 9.78125 22.34375 L 9.625 23.21875 L 9.4375 24.1875 L 10.40625 24.375 L 26.125 27.375 L 27.09375 27.5625 L 27.28125 26.59375 L 29.96875 12.78125 L 30.1875 11.8125 L 29.1875 11.625 L 25.8125 10.96875 L 26 9 L 26.09375 8.03125 L 25.125 7.90625 L 21 7.40625 L 21 5 Z M 5 7 L 19 7 L 19 19 L 5 19 Z M 12 9 C 10.355469 9 9 10.355469 9 12 C 9 12.671875 9.214844 13.308594 9.59375 13.8125 C 8.625 14.542969 8 15.691406 8 17 L 10 17 C 10 15.808594 10.808594 15 12 15 C 13.191406 15 14 15.808594 14 17 L 16 17 C 16 15.691406 15.375 14.542969 14.40625 13.8125 C 14.785156 13.308594 15 12.671875 15 12 C 15 10.355469 13.644531 9 12 9 Z M 21 9.40625 L 23.90625 9.78125 L 22.6875 21.6875 L 16.28125 21 L 21 21 Z M 12 11 C 12.5625 11 13 11.4375 13 12 C 13 12.5625 12.5625 13 12 13 C 11.4375 13 11 12.5625 11 12 C 11 11.4375 11.4375 11 12 11 Z M 25.59375 12.96875 L 27.84375 13.40625 L 25.5 25.21875 L 11.78125 22.59375 L 11.78125 22.53125 L 23.5 23.78125 L 24.5 23.90625 L 24.59375 22.90625 Z "></path>
</g>
</svg>
