<?xml version="1.0" encoding="UTF-8"?>
<svg xmlns="http://www.w3.org/2000/svg" xmlns:xlink="http://www.w3.org/1999/xlink" viewBox="0 0 32 32" version="1.1">
<g>
<path d="M 8 4 L 8 6 L 26 6 L 26 21 L 28 21 L 28 4 Z M 4 8 L 4 25 L 10.5 25 L 14 29.667969 L 17.5 25 L 24 25 L 24 8 Z M 6 10 L 22 10 L 22 23 L 16.5 23 L 14 26.332031 L 11.5 23 L 6 23 Z M 11.984375 11.984375 C 11.433594 11.996094 10.992188 12.449219 11 13 L 11 15.832031 C 10.980469 15.941406 10.980469 16.050781 11 16.15625 L 11 18 C 11 19.644531 12.355469 21 14 21 L 16 21 C 16.359375 21.003906 16.695313 20.816406 16.878906 20.503906 C 17.058594 20.191406 17.058594 19.808594 16.878906 19.496094 C 16.695313 19.183594 16.359375 18.996094 16 19 L 14 19 C 13.433594 19 13 18.566406 13 18 L 13 17 L 16 17 C 16.359375 17.003906 16.695313 16.816406 16.878906 16.503906 C 17.058594 16.191406 17.058594 15.808594 16.878906 15.496094 C 16.695313 15.183594 16.359375 14.996094 16 15 L 13 15 L 13 13 C 13.003906 12.730469 12.898438 12.46875 12.707031 12.277344 C 12.515625 12.085938 12.253906 11.980469 11.984375 11.984375 Z "></path>
</g>
</svg>
