<?xml version="1.0"?>
<svg xmlns="http://www.w3.org/2000/svg" viewBox="0 0 32 32">
    <path d="M 16 3 C 9.3845336 3 4 8.3845336 4 15 C 4 21.615466 9.3845336 27 16 27 C 17.391785 27 18.700469 26.700871 19.941406 26.263672 L 22 30.994141 L 22.923828 28.921875 C 22.923828 28.921875 23.926461 26.670049 24.933594 24.410156 C 25.43716 23.28021 25.941672 22.147114 26.322266 21.292969 C 26.512563 20.865896 26.672428 20.508926 26.785156 20.255859 C 26.896804 20.005216 26.932983 19.925612 26.96875 19.84375 L 26.970703 19.839844 C 27.624666 18.362038 28 16.725441 28 15 C 28 8.3845336 22.615466 3 16 3 z M 16 5 C 21.534534 5 26 9.4654664 26 15 C 26 16.437036 25.689547 17.794026 25.140625 19.033203 L 25.138672 19.037109 L 25.136719 19.039062 C 25.165059 18.974152 25.069699 19.19043 24.957031 19.443359 C 24.844365 19.696289 24.686375 20.053432 24.496094 20.480469 C 24.115531 21.334543 23.61098 22.465775 23.107422 23.595703 C 22.563393 24.816443 22.405727 25.171054 22.021484 26.033203 L 21.007812 23.707031 L 20.085938 24.121094 C 18.833521 24.682585 17.457024 25 16 25 C 10.465466 25 6 20.534534 6 15 C 6 9.4654664 10.465466 5 16 5 z M 14.884766 10 L 11.25 19 L 13.396484 19 L 14.154297 17 L 17.845703 17 L 18.587891 19 L 20.748047 19 L 17.212891 10 L 14.884766 10 z M 16.005859 12.123047 L 17.191406 15.25 L 14.822266 15.25 L 16.005859 12.123047 z" font-weight="400" font-family="sans-serif" white-space="normal" overflow="visible"></path>
</svg>
