<?xml version="1.0"?>
<svg xmlns="http://www.w3.org/2000/svg" viewBox="0 0 32 32">
    <path d="M 4 5 L 4 6 L 4 19 L 28 19 L 28 5 L 4 5 z M 7.9121094 7 L 24.087891 7 A 1.5 1.5 0 0 0 24 7.5 A 1.5 1.5 0 0 0 25.5 9 A 1.5 1.5 0 0 0 26 8.9121094 L 26 15.087891 A 1.5 1.5 0 0 0 25.5 15 A 1.5 1.5 0 0 0 24 16.5 A 1.5 1.5 0 0 0 24.087891 17 L 7.9121094 17 A 1.5 1.5 0 0 0 8 16.5 A 1.5 1.5 0 0 0 6.5 15 A 1.5 1.5 0 0 0 6 15.087891 L 6 8.9121094 A 1.5 1.5 0 0 0 6.5 9 A 1.5 1.5 0 0 0 8 7.5 A 1.5 1.5 0 0 0 7.9121094 7 z M 16 9 C 14.35499 9 13 10.35499 13 12 C 13 13.64501 14.35499 15 16 15 C 17.64501 15 19 13.64501 19 12 C 19 10.35499 17.64501 9 16 9 z M 10 11 A 1 1 0 0 0 9 12 A 1 1 0 0 0 10 13 A 1 1 0 0 0 11 12 A 1 1 0 0 0 10 11 z M 16 11 C 16.564129 11 17 11.435871 17 12 C 17 12.564129 16.564129 13 16 13 C 15.435871 13 15 12.564129 15 12 C 15 11.435871 15.435871 11 16 11 z M 22 11 A 1 1 0 0 0 21 12 A 1 1 0 0 0 22 13 A 1 1 0 0 0 23 12 A 1 1 0 0 0 22 11 z M 4 21 L 4 23 L 28 23 L 28 21 L 4 21 z M 4 25 L 4 27 L 28 27 L 28 25 L 4 25 z"></path>
</svg>
