<?xml version="1.0" encoding="UTF-8"?>
<svg xmlns="http://www.w3.org/2000/svg" xmlns:xlink="http://www.w3.org/1999/xlink" viewBox="0 0 32 32" version="1.1">
<g>
<path d="M 23 3 C 21.804688 3 20.898438 3.28125 20.28125 3.59375 C 19.675781 3.902344 19.328125 4.296875 19.3125 4.3125 L 19.28125 4.3125 L 8.28125 15.28125 L 8 15.59375 L 8 22 L 14.40625 22 L 14.71875 21.71875 L 22.5 13.9375 C 22.996094 13.898438 23.851563 13.800781 24.9375 13.25 C 26.421875 12.5 28 10.8125 28 8 C 28 6.738281 27.390625 5.550781 26.5 4.625 C 25.609375 3.699219 24.386719 3 23 3 Z M 23 5 C 23.683594 5 24.46875 5.382813 25.0625 6 C 25.65625 6.617188 26 7.445313 26 8 C 26 8.535156 25.945313 8.988281 25.84375 9.375 L 21.65625 5.21875 C 22 5.097656 22.414063 5 23 5 Z M 20 6.4375 L 24.65625 11.09375 C 24.464844 11.234375 24.269531 11.363281 24.0625 11.46875 C 23.046875 11.980469 22 12 22 12 L 21.59375 12 L 21.28125 12.28125 L 13.5625 20 L 10 20 L 10 16.4375 Z M 19.28125 9.28125 L 11.28125 17.28125 L 12.71875 18.71875 L 20.71875 10.71875 Z M 7 18.59375 L 3.90625 21.65625 L 5.375 29.03125 L 11.40625 23 L 8.59375 23 L 6.625 24.96875 L 6.09375 22.34375 L 7 21.40625 Z "></path>
</g>
</svg>
