<?xml version="1.0" encoding="UTF-8"?>
<svg xmlns="http://www.w3.org/2000/svg" xmlns:xlink="http://www.w3.org/1999/xlink" viewBox="0 0 32 32" version="1.1">
<g>
<path d="M 25.96875 9 L 15.53125 9.6875 C 8.800781 10.199219 5.398438 11.761719 3.65625 13.40625 C 2.785156 14.230469 2.351563 15.09375 2.15625 15.75 C 1.980469 16.339844 2.023438 16.746094 2.03125 16.84375 L 2 16.84375 L 2 23 L 30 23 L 30 21 L 11 21 L 11 19 L 28 19 L 28 15.65625 L 29.09375 15.5625 L 30.09375 15.46875 L 30 14.4375 L 29.71875 12 C 29.71875 11.988281 29.71875 11.980469 29.71875 11.96875 C 29.53125 10.15625 27.835938 8.867188 26 9 C 25.988281 9 25.980469 9 25.96875 9 Z M 26.125 11 C 26.988281 10.929688 27.6875 11.511719 27.75 12.1875 L 27.90625 13.65625 L 9.34375 15.34375 C 8.9375 15.136719 8.484375 15 8 15 L 5 15 C 4.96875 15 4.9375 15 4.90625 15 C 4.949219 14.957031 4.984375 14.917969 5.03125 14.875 C 6.28125 13.695313 9.183594 12.179688 15.65625 11.6875 Z M 26 15.84375 L 26 17 L 13.28125 17 Z M 5 17 L 8 17 C 8.554688 17 9 17.445313 9 18 L 9 21 L 4 21 L 4 18 C 4 17.445313 4.445313 17 5 17 Z "></path>
</g>
</svg>
