<?xml version="1.0" encoding="UTF-8"?>
<svg xmlns="http://www.w3.org/2000/svg" xmlns:xlink="http://www.w3.org/1999/xlink" viewBox="0 0 32 32" version="1.1">
<g>
<path d="M 15.375 3 C 14.578125 3.007813 13.84375 3.664063 13.65625 4.46875 C 13.640625 4.519531 13.632813 4.570313 13.625 4.625 C 13.625 4.625 13.25 8.613281 12.4375 10.53125 C 12.277344 10.910156 12.273438 10.851563 12.21875 10.875 C 12.164063 10.898438 11.855469 10.953125 11.3125 11 C 8.148438 11.285156 5.703125 11.433594 4.84375 11.5 C 4.003906 11.566406 3.332031 12.132813 3.09375 12.84375 C 2.855469 13.554688 3.140625 14.523438 3.875 15 C 3.875 15 5.699219 16.183594 9.46875 18.40625 C 9.773438 18.585938 9.878906 18.742188 9.9375 18.90625 C 9.996094 19.070313 10.023438 19.304688 9.875 19.71875 C 9.492188 20.796875 7.390625 26.328125 7.375 26.375 C 7.375 26.375 7.375 26.40625 7.375 26.40625 C 7.066406 27.238281 7.390625 28.160156 8 28.625 C 8.558594 29.050781 9.453125 29.0625 10.125 28.625 L 10.15625 28.65625 C 10.15625 28.65625 10.328125 28.539063 10.34375 28.53125 C 10.628906 28.367188 13.296875 26.816406 15.6875 24.375 C 16.058594 23.996094 16.191406 24.03125 16.15625 24.03125 C 16.121094 24.03125 16.199219 24.007813 16.40625 24.21875 C 18.84375 26.742188 21.429688 28.390625 21.65625 28.53125 C 21.667969 28.539063 21.675781 28.554688 21.6875 28.5625 C 21.695313 28.566406 21.8125 28.625 21.8125 28.625 L 21.84375 28.59375 C 22.515625 29.058594 23.429688 29.058594 24 28.625 C 24.570313 28.191406 24.84375 27.347656 24.625 26.5625 L 24.65625 26.5625 L 24.625 26.40625 C 24.625 26.40625 24.625 26.375 24.625 26.375 C 24.5625 26.074219 23.453125 20.605469 23.21875 19.625 C 23.105469 19.144531 23.027344 18.839844 23.03125 18.71875 C 23.035156 18.597656 22.984375 18.589844 23.28125 18.34375 C 23.613281 18.066406 24.914063 17.164063 26.03125 16.40625 C 27.132813 15.660156 28.089844 15.023438 28.125 15 C 28.125 15 28.15625 14.96875 28.15625 14.96875 C 28.828125 14.507813 29.117188 13.5625 28.875 12.875 C 28.628906 12.175781 28.054688 11.671875 27.3125 11.5 C 26.636719 11.34375 25.480469 11.285156 24.21875 11.1875 C 22.957031 11.089844 21.691406 10.992188 21.15625 10.96875 C 20.59375 10.945313 20.199219 10.738281 20 10.25 C 18.429688 6.398438 17.257813 4.351563 17.21875 4.28125 C 17.203125 4.246094 17.171875 4.222656 17.15625 4.1875 C 16.800781 3.488281 16.132813 2.992188 15.375 3 Z M 15.5625 5.4375 C 15.65625 5.601563 16.667969 7.351563 18.15625 11 C 18.667969 12.257813 19.914063 12.917969 21.09375 12.96875 C 21.574219 12.988281 22.824219 13.058594 24.0625 13.15625 C 25.289063 13.25 26.59375 13.421875 26.8125 13.46875 C 26.628906 13.589844 25.917969 14.0625 24.90625 14.75 C 23.777344 15.515625 22.570313 16.335938 22 16.8125 C 21.390625 17.320313 21.046875 18.035156 21.03125 18.65625 C 21.015625 19.277344 21.191406 19.722656 21.28125 20.09375 C 21.441406 20.769531 22.613281 26.59375 22.65625 26.8125 C 22.378906 26.636719 20.046875 25.125 17.84375 22.84375 C 17.484375 22.472656 16.941406 22.0625 16.21875 22.03125 C 15.496094 22 14.832031 22.371094 14.25 22.96875 C 12.105469 25.160156 9.664063 26.613281 9.375 26.78125 C 9.554688 26.308594 11.34375 21.546875 11.75 20.40625 C 12.007813 19.683594 12.078125 18.921875 11.84375 18.25 C 11.609375 17.578125 11.101563 17.042969 10.5 16.6875 C 6.910156 14.570313 5.328125 13.5625 5.1875 13.46875 C 6.019531 13.40625 8.386719 13.28125 11.5 13 C 12.011719 12.953125 12.476563 12.964844 13.03125 12.71875 C 13.585938 12.472656 14.015625 11.9375 14.28125 11.3125 C 15.210938 9.117188 15.492188 6.3125 15.5625 5.4375 Z M 17 13 C 16.449219 13 16 13.449219 16 14 C 16 14.550781 16.449219 15 17 15 C 17.550781 15 18 14.550781 18 14 C 18 13.449219 17.550781 13 17 13 Z M 19.5 16 C 19.222656 16 19 16.222656 19 16.5 C 19 16.777344 19.222656 17 19.5 17 C 19.777344 17 20 16.777344 20 16.5 C 20 16.222656 19.777344 16 19.5 16 Z M 15 18 C 14.449219 18 14 18.449219 14 19 C 14 19.550781 14.449219 20 15 20 C 15.550781 20 16 19.550781 16 19 C 16 18.449219 15.550781 18 15 18 Z "></path>
</g>
</svg>
