<?xml version="1.0" encoding="UTF-8"?>
<svg xmlns="http://www.w3.org/2000/svg" xmlns:xlink="http://www.w3.org/1999/xlink" viewBox="0 0 32 32" version="1.1">
<g>
<path d="M 16 4 C 14.355469 4 13 5.355469 13 7 C 13 7.988281 13.472656 8.890625 14.21875 9.4375 C 12.910156 10.097656 12 11.445313 12 13 L 12 16.40625 L 12.28125 16.71875 L 13 17.4375 L 13 21 L 11 21 L 11 26 L 9 26 L 9 28 L 23 28 L 23 26 L 21 26 L 21 21 L 19 21 L 19 17.4375 L 19.71875 16.71875 L 20 16.40625 L 20 13 C 20 11.445313 19.089844 10.097656 17.78125 9.4375 C 18.527344 8.890625 19 7.988281 19 7 C 19 5.355469 17.644531 4 16 4 Z M 16 6 C 16.5625 6 17 6.4375 17 7 C 17 7.5625 16.5625 8 16 8 C 15.4375 8 15 7.5625 15 7 C 15 6.4375 15.4375 6 16 6 Z M 16 11 C 17.117188 11 18 11.882813 18 13 L 18 15.5625 L 17.28125 16.28125 L 17 16.59375 L 17 21 L 15 21 L 15 16.59375 L 14.71875 16.28125 L 14 15.5625 L 14 13 C 14 11.882813 14.882813 11 16 11 Z M 13 23 L 19 23 L 19 26 L 13 26 Z "></path>
</g>
</svg>
