<?xml version="1.0" encoding="UTF-8"?>
<svg xmlns="http://www.w3.org/2000/svg" xmlns:xlink="http://www.w3.org/1999/xlink" viewBox="0 0 32 32" version="1.1">
<g>
<path d="M 10 3 L 9.125 4.5 L 5.125 11.5 L 5 11.75 L 5 24.46875 C 5 26.40625 6.59375 28 8.53125 28 L 11.46875 28 C 13.40625 28 15 26.40625 15 24.46875 L 15 11.75 L 14.875 11.5 L 10.875 4.5 Z M 17 4 L 17 28 L 27 28 L 27 4 Z M 19 6 L 25 6 L 25 9 L 22 9 L 22 11 L 25 11 L 25 15 L 22 15 L 22 17 L 25 17 L 25 21 L 22 21 L 22 23 L 25 23 L 25 26 L 19 26 Z M 9.4375 8 L 10.5625 8 L 12.28125 11 L 7.71875 11 Z M 7 13 L 9 13 L 9 22 L 7 22 Z M 11 13 L 13 13 L 13 22 L 11 22 Z M 7 24 L 13 24 L 13 24.46875 C 13 25.328125 12.328125 26 11.46875 26 L 8.53125 26 C 7.671875 26 7 25.328125 7 24.46875 Z "></path>
</g>
</svg>
