<?xml version="1.0" encoding="UTF-8"?>
<svg xmlns="http://www.w3.org/2000/svg" xmlns:xlink="http://www.w3.org/1999/xlink" viewBox="0 0 32 32" version="1.1">
<g>
<path d="M 7.5 3.96875 L 6.625 5.5 C 6.625 5.5 6.234375 6.195313 5.84375 7 C 5.648438 7.402344 5.46875 7.839844 5.3125 8.25 C 5.15625 8.660156 5 8.992188 5 9.5 C 5 9.671875 5.027344 9.839844 5.0625 10 L 4 10 L 4 12 L 6.59375 12 C 6.605469 12.082031 6.613281 12.125 6.625 12.21875 C 6.703125 12.875 6.832031 13.75 6.9375 14.625 C 7.148438 16.375 7.34375 18.125 7.34375 18.125 C 7.359375 18.222656 7.390625 18.316406 7.4375 18.40625 C 7.445313 18.425781 7.457031 18.449219 7.46875 18.46875 C 7.480469 18.480469 7.488281 18.488281 7.5 18.5 C 7.527344 18.554688 8.042969 19.585938 8.78125 20.71875 C 9.160156 21.300781 9.605469 21.90625 10.0625 22.4375 C 10.28125 22.691406 10.488281 22.945313 10.71875 23.15625 C 10.085938 24.4375 9.464844 25.484375 9.0625 25.875 C 8.988281 25.414063 9.144531 24.488281 9.46875 23.34375 C 8.914063 22.753906 8.414063 22.039063 8 21.25 C 7.238281 23.394531 6.644531 25.957031 7.4375 27.1875 C 7.78125 27.722656 8.332031 28 9 28 C 9.234375 28 9.472656 27.910156 9.71875 27.78125 C 10.148438 28.546875 10.671875 29.34375 11.15625 30 L 13.6875 30 C 13.019531 29.179688 11.792969 27.539063 11.21875 26.34375 C 11.746094 25.601563 12.28125 24.578125 12.84375 23.34375 C 12.878906 23.292969 12.910156 23.242188 12.9375 23.1875 C 12.953125 23.15625 12.953125 23.125 12.96875 23.09375 C 12.980469 23.054688 12.992188 23.011719 13 22.96875 C 13.015625 22.933594 13.046875 22.910156 13.0625 22.875 C 13.367188 22.949219 13.675781 23 14 23 L 19.875 23 C 19.875 23 20.441406 23.0625 21 23.375 C 21.558594 23.6875 22 24.070313 22 25 C 21.996094 25.09375 22.007813 25.191406 22.03125 25.28125 L 19.0625 30 L 21.4375 30 L 24.3125 25.40625 L 25.65625 26.3125 L 23.4375 30 L 25.78125 30 L 28.34375 25.6875 L 23.6875 22.59375 L 23.40625 23.03125 C 23.015625 22.414063 22.503906 21.941406 22 21.65625 C 21.058594 21.125 20.125 21 20.125 21 C 20.082031 20.996094 20.042969 20.996094 20 21 L 14 21 C 13.414063 21 12.027344 20.191406 10.96875 19.25 C 10.015625 18.402344 9.453125 17.726563 9.3125 17.5625 C 9.28125 17.292969 9.097656 15.96875 8.90625 14.375 C 8.800781 13.511719 8.703125 12.652344 8.625 12 L 11 12 L 11 10 L 9.9375 10 C 9.972656 9.839844 10 9.671875 10 9.5 C 10 8.992188 9.84375 8.660156 9.6875 8.25 C 9.53125 7.839844 9.351563 7.402344 9.15625 7 C 8.765625 6.195313 8.375 5.5 8.375 5.5 Z M 16.5 21 C 17.703125 21 18.539063 20.175781 19.09375 19.3125 C 19.480469 18.710938 19.765625 18.046875 19.90625 17.375 C 21.472656 17.179688 23.46875 16.949219 23.46875 16.8125 C 23.46875 16.671875 21.558594 16.417969 19.96875 16.21875 C 19.949219 16.003906 19.929688 15.796875 19.875 15.59375 C 21.125 14.664063 22.609375 13.5 22.5625 13.40625 C 22.519531 13.273438 20.832031 13.953125 19.40625 14.5625 C 19.273438 14.363281 19.109375 14.167969 18.9375 14 C 19.535156 12.597656 20.191406 10.980469 20.0625 10.9375 C 19.941406 10.855469 18.9375 12.179688 18.03125 13.375 C 17.765625 13.242188 17.484375 13.125 17.1875 13.0625 C 17.003906 11.601563 16.777344 10 16.65625 10 C 16.535156 10 16.308594 11.578125 16.125 13.03125 C 15.808594 13.066406 15.503906 13.136719 15.21875 13.25 C 14.34375 12.085938 13.371094 10.867188 13.25 10.90625 C 13.125 10.949219 13.734375 12.4375 14.3125 13.78125 C 14.070313 13.976563 13.839844 14.214844 13.65625 14.46875 C 12.304688 13.890625 10.832031 13.28125 10.75 13.40625 C 10.707031 13.535156 12 14.519531 13.1875 15.40625 C 13.097656 15.675781 13.054688 15.957031 13.03125 16.25 C 12.234375 16.34375 11.394531 16.445313 10.8125 16.5625 C 10.261719 16.664063 10.292969 16.960938 10.84375 17.0625 C 11.472656 17.171875 12.3125 17.253906 13.09375 17.34375 C 13.230469 18.023438 13.515625 18.703125 13.90625 19.3125 C 14.460938 20.175781 15.296875 21 16.5 21 Z M 7.5 8.21875 C 7.617188 8.476563 7.757813 8.746094 7.84375 8.96875 C 7.96875 9.292969 8 9.59375 8 9.5 C 8 9.714844 7.867188 9.894531 7.6875 9.96875 C 7.582031 9.953125 7.480469 9.953125 7.375 9.96875 C 7.160156 9.910156 7 9.738281 7 9.5 C 7 9.59375 7.03125 9.292969 7.15625 8.96875 C 7.242188 8.746094 7.382813 8.476563 7.5 8.21875 Z M 16.5 15 C 17.339844 15 18 15.660156 18 16.5 C 18 16.921875 17.785156 17.675781 17.4375 18.21875 C 17.089844 18.761719 16.679688 19 16.5 19 C 16.320313 19 15.910156 18.761719 15.5625 18.21875 C 15.214844 17.675781 15 16.921875 15 16.5 C 15 15.660156 15.660156 15 16.5 15 Z "></path>
</g>
</svg>
