<?xml version="1.0" encoding="UTF-8"?>
<svg xmlns="http://www.w3.org/2000/svg" xmlns:xlink="http://www.w3.org/1999/xlink" viewBox="0 0 32 32" version="1.1">
<g>
<path d="M 20 3 C 16.496094 3 13.453125 5 11.96875 7.9375 C 10.238281 8.804688 8.839844 10.234375 7.96875 11.96875 C 5.027344 13.453125 3 16.492188 3 20 C 3 24.957031 7.042969 29 12 29 C 15.507813 29 18.546875 26.972656 20.03125 24.03125 C 21.753906 23.160156 23.160156 21.757813 24.03125 20.03125 C 26.976563 18.550781 29 15.507813 29 12 C 29 7.042969 24.957031 3 20 3 Z M 20 5 C 23.878906 5 27 8.121094 27 12 C 27 13.933594 26.199219 15.671875 24.9375 16.9375 C 24.96875 16.625 25 16.320313 25 16 C 25 11.042969 20.957031 7 16 7 C 15.683594 7 15.371094 7.03125 15.0625 7.0625 C 16.328125 5.800781 18.066406 5 20 5 Z M 16 9 C 19.878906 9 23 12.121094 23 16 C 23 17.917969 22.210938 19.644531 20.96875 20.90625 C 21 20.605469 21 20.308594 21 20 C 21 15.042969 16.957031 11 12 11 C 11.691406 11 11.394531 11 11.09375 11.03125 C 12.359375 9.78125 14.074219 9 16 9 Z M 12 13 C 15.878906 13 19 16.121094 19 20 C 19 23.878906 15.878906 27 12 27 C 8.121094 27 5 23.878906 5 20 C 5 16.121094 8.121094 13 12 13 Z "></path>
</g>
</svg>
