<?xml version="1.0" encoding="UTF-8"?>
<svg xmlns="http://www.w3.org/2000/svg" xmlns:xlink="http://www.w3.org/1999/xlink" viewBox="0 0 32 32" version="1.1">
<g>
<path d="M 10 4 C 8.355469 4 7 5.355469 7 7 L 7 16.515625 C 6.414063 17.144531 6 17.992188 6 19 C 6 19.355469 6.054688 19.6875 6.148438 20 L 3 20 C 3 20 5.660156 28 16 28 C 26.339844 28 29 20 29 20 L 25.855469 20 C 25.945313 19.6875 26 19.355469 26 19 C 26 17.992188 25.585938 17.144531 25 16.515625 L 25 7 C 25 5.355469 23.644531 4 22 4 Z M 10 6 L 22 6 C 22.566406 6 23 6.433594 23 7 L 23 15.316406 C 22.320313 15.101563 21.628906 15 21 15 C 19.535156 15 18.257813 15.8125 17.5625 17 L 14.4375 17 C 13.742188 15.8125 12.464844 15 11 15 C 10.371094 15 9.679688 15.101563 9 15.316406 L 9 7 C 9 6.433594 9.433594 6 10 6 Z M 11 17 C 12.117188 17 13 17.882813 13 19 C 13 20.117188 12.117188 21 11 21 C 9.882813 21 9 20.117188 9 19 C 9 17.882813 9.882813 17 11 17 Z M 21 17 C 22.117188 17 23 17.882813 23 19 C 23 20.117188 22.117188 21 21 21 C 19.882813 21 19 20.117188 19 19 C 19 18.859375 19.015625 18.726563 19.042969 18.59375 C 19.226563 17.675781 20.023438 17 21 17 Z M 15.996094 19 L 16.003906 19 C 16.578125 19 17.058594 19.441406 17.121094 20 L 17.144531 20 C 17.59375 21.714844 19.148438 23 21 23 C 22 23 23.140625 22.769531 24.140625 22.164063 C 24.222656 22.113281 24.300781 22.054688 24.378906 22 L 25.5 22 C 23.933594 23.851563 21.03125 26 16 26 C 10.957031 26 8.054688 23.851563 6.492188 22 L 7.621094 22 C 7.699219 22.054688 7.777344 22.113281 7.859375 22.164063 C 8.859375 22.769531 10 23 11 23 C 12.851563 23 14.40625 21.714844 14.855469 20 L 14.875 20 C 14.9375 19.441406 15.421875 19 15.996094 19 Z "></path>
</g>
</svg>
