<?xml version="1.0" encoding="UTF-8"?>
<svg xmlns="http://www.w3.org/2000/svg" xmlns:xlink="http://www.w3.org/1999/xlink" viewBox="0 0 32 32" version="1.1">
<g>
<path d="M 16.34375 4 C 15.035156 4 13.898438 4.445313 13.03125 5.15625 C 12.164063 5.867188 11.550781 6.820313 11.09375 7.84375 C 10.1875 9.871094 9.828125 12.242188 9.5 14.125 C 8.949219 16.386719 7.757813 17.738281 6.5625 19 C 5.964844 19.628906 5.363281 20.222656 4.875 20.90625 C 4.386719 21.589844 4 22.425781 4 23.375 C 4 24.804688 4.988281 26.003906 6.375 26.78125 C 7.761719 27.558594 9.625 28 11.8125 28 C 15.5 28 19.433594 26.777344 22.53125 24.8125 C 25.628906 22.847656 28 20.074219 28 16.875 C 28 14.792969 26.542969 12.589844 23.65625 10.90625 C 23.28125 8.253906 22.367188 6.390625 21.03125 5.34375 C 19.59375 4.214844 17.867188 4 16.34375 4 Z M 16.34375 6 C 17.660156 6 18.855469 6.210938 19.78125 6.9375 C 20.707031 7.664063 21.507813 8.960938 21.78125 11.625 L 21.84375 12.15625 L 22.3125 12.40625 C 25.074219 13.890625 26 15.667969 26 16.875 C 26 19.046875 24.230469 21.375 21.46875 23.125 C 18.707031 24.875 15.042969 26 11.8125 26 C 9.90625 26 8.375 25.589844 7.375 25.03125 C 6.375 24.472656 6 23.855469 6 23.375 C 6 22.9375 6.152344 22.546875 6.5 22.0625 C 6.847656 21.578125 7.378906 21.027344 8 20.375 C 9.238281 19.070313 10.769531 17.339844 11.4375 14.59375 L 11.46875 14.5625 L 11.46875 14.53125 C 11.804688 12.613281 12.1875 10.332031 12.9375 8.65625 C 13.3125 7.820313 13.769531 7.132813 14.3125 6.6875 C 14.855469 6.242188 15.453125 6 16.34375 6 Z M 16.65625 9 C 16.082031 8.976563 15.492188 9.421875 15.1875 10.125 C 14.78125 11.179688 15.070313 12.34375 15.78125 12.8125 C 16.492188 13.28125 17.40625 12.8125 17.8125 11.875 C 18.21875 10.820313 17.929688 9.65625 17.21875 9.1875 C 17.042969 9.070313 16.847656 9.007813 16.65625 9 Z M 19.78125 14.90625 L 12.21875 17.71875 L 12.9375 19.59375 L 20.46875 16.78125 Z M 22 18.15625 L 11.625 22 L 12.3125 23.875 L 22.6875 20.03125 Z "></path>
</g>
</svg>
