<?xml version="1.0" encoding="UTF-8"?>
<svg xmlns="http://www.w3.org/2000/svg" xmlns:xlink="http://www.w3.org/1999/xlink" viewBox="0 0 32 32" version="1.1">
<g>
<path d="M 15 4 L 15 11 L 17 11 L 17 4 Z M 7.34375 8 L 7.09375 8.59375 L 4.09375 15.59375 L 4 15.78125 L 4 25 L 28 25 L 28 15.78125 L 27.90625 15.59375 L 24.90625 8.59375 L 24.65625 8 L 18 8 L 18 10 C 18.738281 10 19.261719 10.242188 19.59375 10.5 C 19.898438 10.738281 19.988281 10.972656 20 10.96875 C 19.992188 10.976563 19.964844 11.007813 19.90625 11.0625 C 19.789063 11.175781 19.554688 11.351563 19.1875 11.5 C 18.453125 11.796875 17.292969 12 16 12 C 14.707031 12 13.546875 11.796875 12.8125 11.5 C 12.445313 11.351563 12.210938 11.175781 12.09375 11.0625 C 12.042969 11.015625 12.011719 11.011719 12 11 C 12 10.972656 11.992188 10.960938 12 10.96875 C 12.011719 10.972656 12.101563 10.738281 12.40625 10.5 C 12.738281 10.242188 13.261719 10 14 10 L 14 8 Z M 8.65625 10 L 10.28125 10 C 10.125 10.308594 10 10.632813 10 11 C 10 11.609375 10.304688 12.136719 10.6875 12.5 C 11.070313 12.863281 11.53125 13.128906 12.0625 13.34375 C 13.128906 13.773438 14.492188 14 16 14 C 17.507813 14 18.871094 13.773438 19.9375 13.34375 C 20.46875 13.128906 20.929688 12.863281 21.3125 12.5 C 21.695313 12.136719 22 11.609375 22 11 C 22 10.632813 21.875 10.308594 21.71875 10 L 23.34375 10 L 25.5 15 L 6.5 15 Z M 6 17 L 26 17 L 26 23 L 6 23 Z M 9 26 L 9 28 L 23 28 L 23 26 Z "></path>
</g>
</svg>
