<?xml version="1.0" encoding="UTF-8"?>
<svg xmlns="http://www.w3.org/2000/svg" xmlns:xlink="http://www.w3.org/1999/xlink" viewBox="0 0 32 32" version="1.1">
<g>
<path d="M 13 4 C 11.539063 4 10.320313 5.078125 10.0625 6.46875 C 8.578125 6.71875 7.289063 7.0625 6.28125 7.5 C 5.683594 7.757813 5.164063 8.050781 4.75 8.4375 C 4.335938 8.824219 4 9.359375 4 10 L 4 14 C 4 14.785156 4.457031 15.378906 5.03125 15.8125 C 5.070313 16.179688 5.253906 17.777344 5.46875 19.8125 C 5.585938 20.941406 5.714844 22.105469 5.8125 23 C 5.863281 23.449219 5.902344 23.832031 5.9375 24.125 C 5.972656 24.417969 5.992188 24.550781 6.03125 24.75 C 6.183594 25.5 6.691406 25.976563 7.28125 26.34375 C 7.871094 26.710938 8.609375 26.976563 9.46875 27.21875 C 11.1875 27.699219 13.4375 28 16 28 C 18.558594 28 20.835938 27.730469 22.5625 27.25 C 23.425781 27.007813 24.15625 26.714844 24.75 26.34375 C 25.34375 25.972656 25.878906 25.460938 26 24.6875 C 26.042969 24.417969 26.089844 23.894531 26.1875 23 C 26.285156 22.105469 26.410156 20.941406 26.53125 19.8125 C 26.746094 17.777344 26.929688 16.179688 26.96875 15.8125 C 27.542969 15.378906 28 14.785156 28 14 L 28 10 C 28 9.089844 27.382813 8.449219 26.6875 8 C 25.992188 7.550781 25.089844 7.195313 24.03125 6.90625 C 21.917969 6.328125 19.109375 6 16 6 C 15.9375 6 15.875 6 15.8125 6 C 15.394531 4.84375 14.292969 4 13 4 Z M 13 6 C 13.5625 6 14 6.4375 14 7 C 14 7.5625 13.5625 8 13 8 C 12.4375 8 12 7.5625 12 7 C 12 6.4375 12.4375 6 13 6 Z M 15.8125 8 C 15.875 8 15.9375 8 16 8 C 18.964844 8 21.632813 8.335938 23.5 8.84375 C 24.433594 9.097656 25.175781 9.417969 25.59375 9.6875 C 25.863281 9.863281 25.96875 9.964844 26 10 C 25.996094 10.003906 26.007813 10.023438 26 10.03125 C 25.957031 10.082031 25.824219 10.164063 25.59375 10.3125 C 25.175781 10.582031 24.433594 10.902344 23.5 11.15625 C 21.632813 11.664063 18.964844 12 16 12 C 13.035156 12 10.367188 11.664063 8.5 11.15625 C 7.566406 10.902344 6.824219 10.582031 6.40625 10.3125 C 6.136719 10.136719 6.03125 10.035156 6 10 C 5.996094 9.996094 6.003906 9.96875 6 9.96875 C 6.015625 9.945313 6.054688 9.941406 6.125 9.875 C 6.285156 9.726563 6.597656 9.511719 7.0625 9.3125 C 7.84375 8.972656 9 8.667969 10.375 8.4375 C 10.886719 9.367188 11.875 10 13 10 C 14.292969 10 15.394531 9.15625 15.8125 8 Z M 6 12.375 C 6.570313 12.652344 7.230469 12.890625 7.96875 13.09375 C 10.082031 13.671875 12.890625 14 16 14 C 19.109375 14 21.917969 13.671875 24.03125 13.09375 C 24.769531 12.890625 25.429688 12.652344 26 12.375 L 26 13.96875 C 25.984375 13.980469 25.90625 14.109375 25.59375 14.3125 C 25.175781 14.582031 24.433594 14.902344 23.5 15.15625 C 23.042969 15.28125 22.546875 15.398438 22 15.5 L 22 15 L 20 15 L 20 15.78125 C 19.066406 15.886719 18.054688 15.941406 17 15.96875 L 17 15 L 15 15 L 15 15.96875 C 13.945313 15.941406 12.933594 15.886719 12 15.78125 L 12 15 L 10 15 L 10 15.5 C 9.453125 15.398438 8.957031 15.28125 8.5 15.15625 C 7.566406 14.902344 6.824219 14.582031 6.40625 14.3125 C 6.136719 14.136719 6.03125 14.035156 6 14 Z M 7.1875 16.8125 C 7.449219 16.898438 7.6875 17.015625 7.96875 17.09375 C 8.582031 17.261719 9.28125 17.375 10 17.5 L 10 19 L 12 19 L 12 17.78125 C 12.953125 17.878906 13.949219 17.945313 15 17.96875 L 15 19 L 17 19 L 17 17.96875 C 18.050781 17.945313 19.046875 17.878906 20 17.78125 L 20 19 L 22 19 L 22 17.5 C 22.71875 17.375 23.417969 17.261719 24.03125 17.09375 C 24.3125 17.015625 24.550781 16.898438 24.8125 16.8125 C 24.722656 17.65625 24.683594 18.207031 24.53125 19.625 C 24.410156 20.753906 24.285156 21.890625 24.1875 22.78125 C 24.09375 23.65625 24 24.359375 24 24.375 C 23.984375 24.382813 23.910156 24.496094 23.65625 24.65625 C 23.316406 24.871094 22.769531 25.105469 22.03125 25.3125 C 20.550781 25.722656 18.410156 26 16 26 C 13.589844 26 11.472656 25.726563 10 25.3125 C 9.265625 25.105469 8.6875 24.871094 8.34375 24.65625 C 8 24.441406 7.953125 24.257813 7.96875 24.34375 C 7.984375 24.417969 7.941406 24.15625 7.90625 23.875 C 7.871094 23.59375 7.832031 23.226563 7.78125 22.78125 C 7.683594 21.890625 7.585938 20.75 7.46875 19.625 C 7.320313 18.207031 7.277344 17.65625 7.1875 16.8125 Z "></path>
</g>
</svg>
