<?xml version="1.0" encoding="UTF-8"?>
<svg xmlns="http://www.w3.org/2000/svg" xmlns:xlink="http://www.w3.org/1999/xlink" viewBox="0 0 32 32" version="1.1">
<g>
<path d="M 15.09375 3 C 10.589844 3.449219 7 7.292969 7 12 L 7 14 L 6.90625 14 C 6.304688 14 5.90625 14.492188 5.90625 15.09375 L 6.3125 19.09375 C 6.414063 19.59375 6.8125 20 7.3125 20 L 7.40625 20 C 7.894531 21.816406 8.65625 23.03125 8.65625 23.03125 C 8.65625 23.03125 9.558594 24.488281 10.875 25.9375 C 12.191406 27.386719 13.890625 29 16 29 C 18.101563 29 19.777344 27.390625 21.09375 25.96875 C 22.378906 24.582031 23.238281 23.285156 23.28125 23.21875 C 23.28125 23.21875 23.296875 23.171875 23.3125 23.15625 C 23.34375 23.113281 23.785156 22.554688 24.1875 21.5625 C 24.359375 21.132813 24.515625 20.589844 24.65625 20 C 25.125 19.96875 25.5 19.570313 25.59375 19.09375 L 26 15.09375 C 26.101563 14.492188 25.601563 14 25 14 L 25 12 C 25 7.308594 21.503906 3.449219 16.90625 3 Z M 20.25 6.375 C 21.941406 7.648438 23 9.667969 23 12 L 23 14.46875 L 22.1875 16 L 21.9375 16 C 21.730469 15.125 21.078125 14.410156 20.25 14.09375 C 20.714844 14.101563 21.75 14.1875 21.75 14.1875 L 21.84375 13.1875 C 21.84375 13.1875 20.753906 13.09375 20.1875 13.09375 C 18.765625 13.09375 17.585938 13.214844 16.5625 14.125 L 17.21875 14.875 C 17.003906 15.132813 16.859375 15.457031 16.75 15.78125 C 16.5 15.710938 16.25 15.6875 16 15.6875 C 15.75 15.6875 15.492188 15.707031 15.25 15.78125 C 15.140625 15.457031 14.996094 15.132813 14.78125 14.875 L 15.4375 14.125 C 14.414063 13.214844 13.234375 13.09375 11.8125 13.09375 C 11.246094 13.09375 10.15625 13.1875 10.15625 13.1875 L 10.25 14.1875 C 10.25 14.1875 11.199219 14.105469 11.6875 14.09375 C 10.890625 14.421875 10.292969 15.140625 10.09375 16 L 9.8125 16 L 9 14.46875 L 9 12 C 9 9.734375 10.058594 7.75 11.6875 6.46875 C 12.488281 6.234375 13.691406 7.8125 16.09375 7.8125 C 18.257813 7.8125 19.449219 6.523438 20.25 6.375 Z M 12.6875 14.90625 C 13.632813 14.90625 14.40625 15.648438 14.40625 16.59375 C 14.40625 17.539063 13.632813 18.3125 12.6875 18.3125 C 11.742188 18.3125 11 17.539063 11 16.59375 C 11 15.648438 11.742188 14.90625 12.6875 14.90625 Z M 19.3125 14.90625 C 20.257813 14.90625 21 15.648438 21 16.59375 C 21 17.539063 20.257813 18.3125 19.3125 18.3125 C 18.367188 18.3125 17.59375 17.539063 17.59375 16.59375 C 17.59375 15.648438 18.367188 14.90625 19.3125 14.90625 Z M 12.3125 15.40625 C 11.914063 15.507813 11.707031 15.792969 11.90625 16.09375 C 11.90625 16.492188 12.3125 16.90625 12.8125 16.90625 C 13.3125 16.90625 13.6875 16.492188 13.6875 16.09375 C 13.6875 15.792969 13.394531 15.507813 13.09375 15.40625 C 13.09375 15.507813 13.1875 15.585938 13.1875 15.6875 C 13.1875 15.886719 12.988281 16.09375 12.6875 16.09375 C 12.386719 16.09375 12.1875 15.886719 12.1875 15.6875 C 12.1875 15.585938 12.210938 15.507813 12.3125 15.40625 Z M 18.90625 15.40625 C 18.605469 15.507813 18.3125 15.792969 18.3125 16.09375 C 18.3125 16.492188 18.6875 16.90625 19.1875 16.90625 C 19.6875 16.90625 20.09375 16.492188 20.09375 16.09375 C 20.292969 15.792969 20.085938 15.507813 19.6875 15.40625 C 19.789063 15.507813 19.8125 15.585938 19.8125 15.6875 C 19.8125 15.886719 19.613281 16.09375 19.3125 16.09375 C 19.011719 16.09375 18.8125 15.886719 18.8125 15.6875 C 18.8125 15.585938 18.90625 15.507813 18.90625 15.40625 Z M 9 16.625 L 9.0625 16.75 C 9.152344 16.90625 9.320313 17 9.5 17 L 10.0625 17 C 10.261719 18.289063 11.34375 19.3125 12.6875 19.3125 C 14.097656 19.3125 15.257813 18.195313 15.375 16.8125 C 15.554688 16.734375 15.765625 16.6875 16 16.6875 C 16.207031 16.6875 16.410156 16.742188 16.625 16.8125 C 16.742188 18.195313 17.902344 19.3125 19.3125 19.3125 C 20.65625 19.3125 21.738281 18.289063 21.9375 17 L 22.5 17 C 22.679688 17 22.847656 16.90625 22.9375 16.75 L 23 16.625 L 23 17.09375 C 23 18.753906 22.644531 19.992188 22.3125 20.8125 C 21.980469 21.632813 21.71875 21.96875 21.71875 21.96875 L 21.6875 22.03125 L 21.65625 22.0625 C 21.65625 22.0625 21.042969 23.019531 20.125 24.09375 L 19.5 22.1875 L 17.3125 21.5 C 17.3125 21.5 16.898438 22.3125 16 22.3125 C 15.101563 22.3125 14.6875 21.5 14.6875 21.5 L 12.5 22.1875 L 11.90625 24 C 10.988281 22.914063 10.34375 21.96875 10.34375 21.96875 C 10.34375 21.96875 9 19.761719 9 17.09375 Z M 13.5 23.3125 L 16 23.6875 L 18.3125 23.3125 L 19.25 25.03125 C 18.761719 25.507813 18.230469 25.941406 17.71875 26.28125 C 17.398438 25.9375 18.164063 24.976563 18 24.8125 C 17.800781 24.613281 16.5 25 16 25 C 15.5 25 14.199219 24.613281 14 24.8125 C 13.835938 24.976563 14.683594 25.941406 14.3125 26.28125 C 13.816406 25.9375 13.292969 25.480469 12.8125 25 Z "></path>
</g>
</svg>
