<?xml version="1.0" encoding="UTF-8"?>
<svg xmlns="http://www.w3.org/2000/svg" xmlns:xlink="http://www.w3.org/1999/xlink" viewBox="0 0 32 32" version="1.1">
<g>
<path d="M 16 6 C 12.5625 6 9.441406 6.613281 7.09375 7.6875 C 5.921875 8.226563 4.949219 8.894531 4.21875 9.6875 C 3.488281 10.480469 3 11.445313 3 12.5 L 3 20.125 L 3.03125 20.25 C 3.03125 20.25 3.179688 20.746094 3.53125 21.3125 C 3.882813 21.878906 4.472656 22.609375 5.40625 23.3125 C 7.277344 24.714844 10.503906 26 16 26 C 21.496094 26 24.722656 24.714844 26.59375 23.3125 C 27.527344 22.609375 28.117188 21.878906 28.46875 21.3125 C 28.820313 20.746094 28.96875 20.25 28.96875 20.25 L 29 20.125 L 29 12.5 C 29 11.445313 28.511719 10.480469 27.78125 9.6875 C 27.050781 8.894531 26.078125 8.226563 24.90625 7.6875 C 22.558594 6.613281 19.4375 6 16 6 Z M 16 8 C 19.191406 8 22.066406 8.617188 24.0625 9.53125 C 25.0625 9.988281 25.828125 10.507813 26.3125 11.03125 C 26.796875 11.554688 27 12.035156 27 12.5 C 27 12.964844 26.796875 13.445313 26.3125 13.96875 C 25.828125 14.492188 25.0625 15.011719 24.0625 15.46875 C 22.066406 16.382813 19.191406 17 16 17 C 12.808594 17 9.933594 16.382813 7.9375 15.46875 C 6.9375 15.011719 6.171875 14.492188 5.6875 13.96875 C 5.203125 13.445313 5 12.964844 5 12.5 C 5 12.035156 5.203125 11.554688 5.6875 11.03125 C 6.171875 10.507813 6.9375 9.988281 7.9375 9.53125 C 9.933594 8.617188 12.808594 8 16 8 Z M 16 9 C 13.707031 9 11.617188 9.285156 10.03125 9.78125 C 9.238281 10.027344 8.574219 10.316406 8.03125 10.71875 C 7.488281 11.121094 7 11.722656 7 12.5 C 7 13.277344 7.488281 13.878906 8.03125 14.28125 C 8.574219 14.683594 9.238281 14.972656 10.03125 15.21875 C 11.617188 15.714844 13.707031 16 16 16 C 18.292969 16 20.382813 15.714844 21.96875 15.21875 C 22.761719 14.972656 23.425781 14.683594 23.96875 14.28125 C 24.511719 13.878906 25 13.277344 25 12.5 C 25 11.722656 24.511719 11.121094 23.96875 10.71875 C 23.425781 10.316406 22.761719 10.027344 21.96875 9.78125 C 20.382813 9.285156 18.292969 9 16 9 Z M 16 11 C 18.125 11 20.035156 11.277344 21.34375 11.6875 C 22 11.890625 22.515625 12.148438 22.78125 12.34375 C 22.894531 12.425781 22.941406 12.46875 22.96875 12.5 C 22.941406 12.53125 22.894531 12.574219 22.78125 12.65625 C 22.515625 12.851563 22 13.109375 21.34375 13.3125 C 20.035156 13.722656 18.125 14 16 14 C 13.875 14 11.964844 13.722656 10.65625 13.3125 C 10 13.109375 9.484375 12.851563 9.21875 12.65625 C 9.105469 12.574219 9.058594 12.53125 9.03125 12.5 C 9.058594 12.46875 9.105469 12.425781 9.21875 12.34375 C 9.484375 12.148438 10 11.890625 10.65625 11.6875 C 11.964844 11.277344 13.875 11 16 11 Z M 5 16.03125 C 5.597656 16.515625 6.296875 16.945313 7.09375 17.3125 C 8.972656 18.175781 11.359375 18.714844 14 18.90625 L 14 23.9375 C 10.082031 23.671875 7.855469 22.632813 6.59375 21.6875 C 5.863281 21.140625 5.449219 20.621094 5.21875 20.25 C 5.015625 19.925781 5.007813 19.84375 5 19.8125 Z M 27 16.03125 L 27 19.8125 C 26.992188 19.84375 26.984375 19.925781 26.78125 20.25 C 26.550781 20.621094 26.136719 21.140625 25.40625 21.6875 C 24.144531 22.632813 21.917969 23.671875 18 23.9375 L 18 18.90625 C 20.640625 18.714844 23.027344 18.175781 24.90625 17.3125 C 25.703125 16.945313 26.402344 16.515625 27 16.03125 Z "></path>
</g>
</svg>
