<?xml version="1.0" encoding="UTF-8"?>
<svg xmlns="http://www.w3.org/2000/svg" xmlns:xlink="http://www.w3.org/1999/xlink" viewBox="0 0 32 32" version="1.1">
<g>
<path d="M 17 4 C 10.980469 4 6 8.980469 6 15 C 6 17.542969 6.089844 19.613281 5.90625 21.40625 C 5.722656 23.199219 5.300781 24.714844 4.1875 26.34375 L 4 26.59375 L 4 28.46875 L 5.375 27.9375 C 7.917969 26.945313 9.613281 24.949219 10.625 22.625 C 10.824219 22.164063 10.878906 21.644531 11.03125 21.15625 C 11.152344 23.773438 13.347656 26 16 26 C 17.691406 26 20.5 25.410156 23.09375 23.75 C 25.6875 22.089844 28 19.21875 28 15 C 28 8.980469 23.019531 4 17 4 Z M 17 6 C 21.914063 6 26 10.085938 26 15 C 26 18.515625 24.226563 20.65625 22.03125 22.0625 C 19.835938 23.46875 17.160156 24 16 24 C 14.476563 24 13 22.476563 13 20.9375 C 13 19.398438 14.445313 18 16 18 C 17.359375 18 18.238281 18.71875 18.84375 20 L 19.28125 20.9375 L 20.1875 20.46875 C 20.1875 20.46875 24 18.707031 24 15 C 24 11.128906 20.871094 8 17 8 C 13.128906 8 10 11.128906 10 15 C 10 17.441406 9.636719 19.878906 8.78125 21.84375 C 8.425781 22.660156 7.929688 23.335938 7.40625 23.96875 C 7.621094 23.195313 7.824219 22.421875 7.90625 21.625 C 8.113281 19.609375 8 17.488281 8 15 C 8 10.085938 12.085938 6 17 6 Z M 17 10 C 19.808594 10 22 12.191406 22 15 C 22 16.753906 20.628906 17.78125 19.90625 18.25 C 18.984375 16.992188 17.722656 16 16 16 C 14.167969 16 12.589844 17.082031 11.71875 18.59375 C 11.898438 17.410156 12 16.203125 12 15 C 12 12.191406 14.191406 10 17 10 Z "></path>
</g>
</svg>
