<?xml version="1.0" encoding="UTF-8"?>
<svg xmlns="http://www.w3.org/2000/svg" xmlns:xlink="http://www.w3.org/1999/xlink" viewBox="0 0 32 32" version="1.1">
<g>
<path d="M 10 3 L 10 5 L 12 5 L 12 3 Z M 20 3 L 20 5 L 22 5 L 22 3 Z M 10 7 L 10 9 L 12 9 L 12 7 Z M 20 7 L 20 9 L 22 9 L 22 7 Z M 27.15625 7.4375 L 23.75 12.53125 L 19.625 9.21875 L 18.75 8.53125 L 18.15625 9.46875 L 13.71875 16.59375 L 8.5625 13.15625 L 7.78125 12.65625 L 7.21875 13.375 L 3.21875 18.375 L 4.78125 19.625 L 8.1875 15.34375 L 13.4375 18.84375 L 14.3125 19.40625 L 14.84375 18.53125 L 19.25 11.46875 L 23.375 14.78125 L 24.21875 15.46875 L 24.84375 14.5625 L 28.84375 8.5625 Z M 10 11 L 10 13 L 12 13 L 12 11 Z M 20 15 L 20 17 L 22 17 L 22 15 Z M 10 19 L 10 21 L 12 21 L 12 19 Z M 20 19 L 20 21 L 22 21 L 22 19 Z M 10 23 L 10 25 L 12 25 L 12 23 Z M 20 23 L 20 25 L 22 25 L 22 23 Z M 3 27 L 3 29 L 29 29 L 29 27 Z "></path>
</g>
</svg>
