<?xml version="1.0" encoding="UTF-8"?>
<svg xmlns="http://www.w3.org/2000/svg" xmlns:xlink="http://www.w3.org/1999/xlink" viewBox="0 0 32 32" version="1.1">
<g>
<path d="M 14 5 C 12.351563 5 11.085938 5.792969 10.28125 6.625 C 9.878906 7.039063 9.585938 7.460938 9.375 7.84375 C 9.164063 8.226563 9 8.414063 9 9 C 9 9.632813 9.246094 9.855469 9.5 10.15625 C 9.753906 10.457031 10.082031 10.761719 10.5 11.03125 C 10.519531 11.042969 10.542969 11.050781 10.5625 11.0625 C 10.042969 11.300781 9.585938 11.5625 9.1875 11.84375 C 8.46875 12.351563 7.953125 12.914063 7.59375 13.4375 C 7.234375 13.960938 7 14.394531 7 15 C 7 16.007813 7.695313 16.964844 9.09375 17.71875 C 9.292969 17.828125 9.515625 17.933594 9.75 18.03125 C 9.457031 18.113281 9.160156 18.1875 8.875 18.28125 C 7.671875 18.667969 6.558594 19.113281 5.6875 19.65625 C 4.816406 20.199219 4 20.882813 4 22 C 4 23.453125 5.054688 24.539063 6.25 25.1875 C 7.445313 25.835938 8.878906 26.207031 10.3125 26.46875 C 13.175781 26.996094 16 27 16 27 C 16 27 18.824219 26.96875 21.6875 26.4375 C 23.117188 26.171875 24.558594 25.800781 25.75 25.15625 C 26.941406 24.511719 28 23.445313 28 22 C 28 21.429688 27.714844 20.996094 27.40625 20.65625 C 27.097656 20.316406 26.742188 20.042969 26.3125 19.78125 C 25.453125 19.257813 24.355469 18.777344 23.15625 18.375 C 22.832031 18.265625 22.492188 18.164063 22.15625 18.0625 C 22.421875 17.953125 22.679688 17.839844 22.90625 17.71875 C 24.304688 16.96875 25 16.003906 25 15 C 25 14.398438 24.765625 13.964844 24.40625 13.4375 C 24.046875 12.910156 23.53125 12.351563 22.8125 11.84375 C 21.691406 11.050781 20.078125 10.386719 17.9375 10.125 C 18.222656 9.792969 18.457031 9.460938 18.625 9.15625 C 18.835938 8.773438 19 8.566406 19 8 C 19 7.480469 18.796875 7.191406 18.5625 6.875 C 18.328125 6.558594 18.039063 6.246094 17.625 5.96875 C 16.800781 5.414063 15.578125 5 14 5 Z M 14 7 C 15.222656 7 16.027344 7.304688 16.5 7.625 C 16.738281 7.785156 16.890625 7.957031 16.96875 8.0625 C 16.960938 8.058594 16.960938 8.03125 16.875 8.1875 C 16.75 8.414063 16.546875 8.726563 16.28125 9 C 15.75 9.546875 15.019531 10 14 10 C 12.941406 10 12.125 9.6875 11.59375 9.34375 C 11.34375 9.183594 11.167969 9.023438 11.0625 8.90625 C 11.078125 8.84375 11.0625 8.925781 11.125 8.8125 C 11.25 8.585938 11.453125 8.304688 11.71875 8.03125 C 12.25 7.480469 12.984375 7 14 7 Z M 16 12 C 18.808594 12 20.585938 12.714844 21.65625 13.46875 C 22.191406 13.847656 22.539063 14.253906 22.75 14.5625 C 22.890625 14.769531 22.972656 14.941406 23 15 C 23 14.914063 22.945313 15.445313 21.96875 15.96875 C 20.992188 16.492188 19.144531 17 16 17 C 12.859375 17 11.007813 16.464844 10.03125 15.9375 C 9.101563 15.4375 9.007813 14.976563 9 15.03125 C 8.992188 15.039063 9 15.039063 9 15 C 9.027344 14.933594 9.113281 14.761719 9.25 14.5625 C 9.460938 14.253906 9.808594 13.847656 10.34375 13.46875 C 11.414063 12.710938 13.195313 12 16 12 Z M 16 19 C 17.558594 19 20.285156 19.535156 22.5 20.28125 C 23.609375 20.65625 24.597656 21.074219 25.25 21.46875 C 25.574219 21.667969 25.824219 21.875 25.9375 22 C 25.992188 22.0625 26 22.09375 26 22.09375 C 25.964844 22.5625 25.628906 22.964844 24.8125 23.40625 C 23.941406 23.878906 22.632813 24.222656 21.3125 24.46875 C 18.675781 24.957031 16 25 16 25 C 16 25 13.324219 24.984375 10.6875 24.5 C 9.371094 24.257813 8.054688 23.878906 7.1875 23.40625 C 6.320313 22.933594 6 22.527344 6 22 C 6 22.085938 6.113281 21.742188 6.75 21.34375 C 7.386719 20.945313 8.363281 20.542969 9.46875 20.1875 C 11.675781 19.476563 14.414063 19 16 19 Z "></path>
</g>
</svg>
