<?xml version="1.0"?>
<svg xmlns="http://www.w3.org/2000/svg" viewBox="0 0 32 32">
    <path d="M 6 3 L 6 29 L 17 29 L 17 27 L 8 27 L 8 5 L 18 5 L 18 11 L 24 11 L 24 17 L 26 17 L 26 9.5859375 L 19.414062 3 L 6 3 z M 20 6.4140625 L 22.585938 9 L 20 9 L 20 6.4140625 z M 16 12 C 12.698136 12 10 14.698136 10 18 C 10 21.301864 12.698136 24 16 24 C 17.092177 24 18.115733 23.700169 19 23.185547 L 19 32 L 32 32 L 32 19 L 21.908203 19 C 21.963603 18.673752 22 18.341479 22 18 C 22 14.698136 19.301864 12 16 12 z M 16 14 L 16 18 L 20 18 C 20 20.220984 18.220984 22 16 22 C 13.779016 22 12 20.220984 12 18 C 12 15.779016 13.779016 14 16 14 z M 21.185547 21 L 30 21 L 30 30 L 21 30 L 21 21.304688 C 21.065802 21.205624 21.125583 21.103036 21.185547 21 z" font-weight="400" font-family="sans-serif" white-space="normal" overflow="visible"></path>
</svg>
