<?xml version="1.0" encoding="UTF-8"?>
<svg xmlns="http://www.w3.org/2000/svg" xmlns:xlink="http://www.w3.org/1999/xlink" viewBox="0 0 32 32" version="1.1">
<g>
<path d="M 16 5 C 13.800781 5 12 6.800781 12 9 C 12 11.199219 13.800781 13 16 13 C 17.851563 13 19.398438 11.71875 19.84375 10 L 25 10 L 25 16 L 27 16 L 27 8 L 19.84375 8 C 19.398438 6.28125 17.851563 5 16 5 Z M 16 7 C 17.117188 7 18 7.882813 18 9 C 18 10.117188 17.117188 11 16 11 C 14.882813 11 14 10.117188 14 9 C 14 7.882813 14.882813 7 16 7 Z M 10 15 L 9.78125 16 L 7.71875 16 L 7.21875 18 L 9.3125 18 L 8.84375 20 L 6.71875 20 L 6.21875 22 L 8.375 22 L 7.90625 24 L 5.71875 24 L 5.21875 26 L 7.4375 26 L 7.21875 27 L 9.21875 27 L 12 15 Z M 18.90625 15 L 19.125 16 L 12.78125 16 L 12.3125 18 L 19.625 18 L 20.0625 20 L 11.84375 20 L 11.375 22 L 20.5625 22 L 21 24 L 10.90625 24 L 10.4375 26 L 21.5 26 L 21.71875 27 L 23.71875 27 L 20.90625 15 Z M 22.15625 16 L 22.625 18 L 24.71875 18 L 24.21875 16 Z M 23.09375 20 L 23.53125 22 L 25.71875 22 L 25.21875 20 Z M 24 24 L 24.46875 26 L 26.71875 26 L 26.21875 24 Z "></path>
</g>
</svg>
