<?xml version="1.0" encoding="UTF-8"?>
<svg xmlns="http://www.w3.org/2000/svg" xmlns:xlink="http://www.w3.org/1999/xlink" viewBox="0 0 32 32" version="1.1">
<g>
<path d="M 14.5625 2.40625 L 13.96875 3.53125 C 13.96875 3.53125 13.28125 4.84375 13.28125 6.84375 C 13.28125 8.058594 13.839844 9.140625 14.53125 10.09375 C 15.222656 11.046875 16.082031 11.921875 16.90625 12.84375 C 17.089844 13.050781 17.261719 13.261719 17.4375 13.46875 C 17.761719 14.234375 17.84375 14.792969 17.8125 15.15625 C 17.777344 15.550781 17.667969 15.773438 17.375 16.03125 C 16.792969 16.546875 15.40625 16.992188 13.78125 17.375 C 12.15625 17.757813 10.324219 18.140625 8.78125 19.03125 C 7.238281 19.921875 6 21.515625 6 23.78125 C 6 25.886719 7.0625 28.375 7.0625 28.375 L 7.3125 29 L 8.6875 29 L 8.84375 28.9375 C 8.84375 28.9375 10.59375 28.269531 12.34375 27 C 14.09375 25.730469 16 23.75 16 21 L 14 21 C 14 22.796875 12.65625 24.316406 11.15625 25.40625 C 9.9375 26.292969 9.136719 26.574219 8.71875 26.75 C 8.464844 26.007813 8 24.804688 8 23.78125 C 8 22.15625 8.644531 21.40625 9.78125 20.75 C 10.917969 20.09375 12.570313 19.703125 14.21875 19.3125 C 15.867188 18.921875 17.53125 18.585938 18.71875 17.53125 C 19.027344 17.257813 19.308594 16.917969 19.5 16.53125 C 19.824219 17.296875 20 18.121094 20 19 C 20 21.390625 18.480469 23.394531 16.84375 24.84375 C 15.207031 26.292969 13.5625 27.09375 13.5625 27.09375 L 14.4375 28.90625 C 14.4375 28.90625 16.292969 27.992188 18.15625 26.34375 C 20.019531 24.695313 22 22.222656 22 19 C 22 16.300781 20.636719 14.234375 19.1875 12.5 C 19.171875 12.484375 19.171875 12.453125 19.15625 12.4375 L 19.125 12.4375 C 18.871094 12.136719 18.625 11.8125 18.375 11.53125 C 17.519531 10.574219 16.726563 9.691406 16.15625 8.90625 C 15.585938 8.121094 15.28125 7.445313 15.28125 6.84375 C 15.28125 5.847656 15.460938 5.714844 15.59375 5.34375 C 15.910156 5.4375 16.160156 5.5625 16.5625 5.5625 C 17.285156 5.5625 17.84375 6.121094 17.84375 6.84375 C 17.84375 7.171875 17.558594 7.636719 17.15625 8.03125 L 18.53125 9.46875 C 18.914063 9.09375 19.433594 8.539063 19.6875 7.78125 C 21.324219 7.464844 25.957031 6.480469 28 5 L 19.28125 5 C 18.691406 4.125 17.691406 3.5625 16.5625 3.5625 C 15.84375 3.5625 15.53125 3.25 15.53125 3.25 Z "></path>
</g>
</svg>
