<?xml version="1.0" encoding="UTF-8"?>
<svg xmlns="http://www.w3.org/2000/svg" xmlns:xlink="http://www.w3.org/1999/xlink" viewBox="0 0 32 32" version="1.1">
<g>
<path d="M 19.84375 4.46875 C 19.140625 4.46875 18.300781 4.675781 17.53125 4.84375 C 16.761719 5.011719 16.125 5.1875 16.125 5.1875 L 14.75 5.53125 L 15.5625 6.71875 C 15.5625 6.71875 16.203125 7.691406 16.8125 8.90625 L 18.625 8 C 18.285156 7.320313 18.175781 7.21875 17.90625 6.78125 C 17.9375 6.773438 17.9375 6.789063 17.96875 6.78125 C 18.695313 6.621094 19.605469 6.46875 19.84375 6.46875 C 20.71875 6.46875 21.40625 7.15625 21.40625 8.03125 C 21.40625 8.488281 20.867188 9.109375 20.09375 9.59375 C 19.320313 10.078125 18.53125 10.375 18.53125 10.375 L 17.75 10.625 L 17.84375 11.4375 C 18.007813 12.769531 18.121094 14.953125 17.4375 17.15625 C 14.574219 17.632813 11.949219 16.804688 9.71875 15.15625 C 7.488281 13.507813 5.675781 11.019531 4.59375 8.34375 L 4.34375 7.71875 L 2.78125 7.71875 L 2.5 8.21875 C 2.5 8.21875 1 10.945313 1 15.28125 C 1 19.589844 4.449219 22.59375 8.15625 22.59375 L 8.15625 20.59375 C 5.515625 20.59375 3 18.539063 3 15.28125 C 3 13.253906 3.332031 11.75 3.65625 10.71875 C 4.871094 13.050781 6.445313 15.207031 8.53125 16.75 C 10.789063 18.417969 13.515625 19.441406 16.46875 19.28125 C 16.421875 19.363281 16.394531 19.453125 16.34375 19.53125 C 14.472656 22.410156 10.558594 25 2 25 L 2 27 C 10.972656 27 15.71875 24.132813 18 20.625 C 20.078125 17.433594 20.042969 14.0625 19.84375 11.9375 C 20.210938 11.792969 20.492188 11.730469 21.15625 11.3125 C 22.023438 10.765625 23.070313 9.90625 23.34375 8.65625 C 24.652344 8.378906 26.632813 7.898438 28.40625 7.25 C 27.96875 7.792969 27.644531 8.421875 27.40625 9.125 C 26.988281 10.359375 26.699219 11.753906 26.3125 13.15625 C 26.054688 14.09375 25.753906 14.992188 25.375 15.84375 C 24.917969 15.324219 24.246094 15 23.5 15 C 22.121094 15 21 16.121094 21 17.5 C 21 18.363281 21.429688 19.113281 22.09375 19.5625 C 21.945313 19.640625 21.816406 19.742188 21.65625 19.8125 L 20.59375 20.3125 L 21.21875 21.28125 C 21.21875 21.28125 22.871094 24 25.84375 24 C 26.925781 24 27.988281 23.589844 28.71875 22.78125 C 29.449219 21.972656 29.898438 20.867188 30.21875 19.4375 C 30.859375 16.582031 31 12.324219 31 6 L 22.75 6 C 22.105469 5.074219 21.050781 4.46875 19.84375 4.46875 Z M 28.90625 11.28125 C 28.8125 14.585938 28.621094 17.335938 28.25 19 C 27.972656 20.246094 27.621094 21.027344 27.25 21.4375 C 26.878906 21.847656 26.507813 22 25.84375 22 C 24.855469 22 24.125 21.453125 23.59375 20.9375 C 26.308594 19.1875 27.535156 16.289063 28.25 13.6875 C 28.5 12.78125 28.703125 12.066406 28.90625 11.28125 Z "></path>
</g>
</svg>
