<?xml version="1.0" encoding="UTF-8"?>
<svg xmlns="http://www.w3.org/2000/svg" xmlns:xlink="http://www.w3.org/1999/xlink" viewBox="0 0 32 32" version="1.1">
<g>
<path d="M 16 2 C 14.742188 2 13.847656 2.890625 13.40625 4 L 5 4 L 5 29 L 27 29 L 27 4 L 18.59375 4 C 18.152344 2.890625 17.257813 2 16 2 Z M 16 4 C 16.566406 4 17 4.433594 17 5 L 17 6 L 20 6 L 20 8 L 12 8 L 12 6 L 15 6 L 15 5 C 15 4.433594 15.433594 4 16 4 Z M 7 6 L 10 6 L 10 10 L 22 10 L 22 6 L 25 6 L 25 27 L 7 27 Z M 20 11 L 18 13 L 19 13 L 19 14 L 21 14 L 21 13 L 22 13 Z M 10.40625 13 L 9 14.4375 L 10.09375 15.5 L 9 16.59375 L 10.40625 18 L 11.5 16.90625 L 12.59375 18 L 14 16.5625 L 12.90625 15.5 L 14 14.40625 L 12.59375 13 L 11.5 14.09375 Z M 20 15 C 19.449219 15 19 15.449219 19 16 C 19 16.550781 19.449219 17 20 17 C 20.550781 17 21 16.550781 21 16 C 21 15.449219 20.550781 15 20 15 Z M 17.78125 16.8125 L 11.90625 21.6875 L 13.1875 23.21875 L 19.0625 18.34375 Z M 19.40625 20 L 18 21.4375 L 19.09375 22.5 L 18 23.59375 L 19.4375 25 L 20.5 23.9375 L 21.59375 25 L 23 23.5625 L 21.9375 22.5 L 23 21.40625 L 21.59375 20 L 20.5 21.09375 Z M 11 23 C 10.449219 23 10 23.449219 10 24 C 10 24.550781 10.449219 25 11 25 C 11.550781 25 12 24.550781 12 24 C 12 23.449219 11.550781 23 11 23 Z "></path>
</g>
</svg>
