<?xml version="1.0" encoding="UTF-8"?>
<svg xmlns="http://www.w3.org/2000/svg" xmlns:xlink="http://www.w3.org/1999/xlink" viewBox="0 0 32 32" version="1.1">
<g>
<path d="M 3 9 L 3 11 L 5 11 L 5 21 L 3 21 L 3 23 L 29 23 L 29 21 L 27 21 L 27 11 L 29 11 L 29 9 Z M 7 11 L 25 11 L 25 21 L 7 21 Z M 16 13 C 14.34375 13 13 14.34375 13 16 C 13 17.65625 14.34375 19 16 19 L 19 19 L 20 18 L 24 18 L 24 14 L 20 14 L 19 13 Z M 10 14 C 8.894531 14 8 14.894531 8 16 C 8 17.105469 8.894531 18 10 18 C 11.105469 18 12 17.105469 12 16 C 12 14.894531 11.105469 14 10 14 Z "></path>
</g>
</svg>
