<?xml version="1.0" encoding="UTF-8"?>
<svg xmlns="http://www.w3.org/2000/svg" xmlns:xlink="http://www.w3.org/1999/xlink" viewBox="0 0 32 32" version="1.1">
<g>
<path d="M 16 4.03125 L 15.46875 4.34375 L 3.96875 11.5625 L 5 13.1875 L 5 16 L 7 16 L 7 12 L 16 6.40625 L 25 12.03125 L 25 16 L 27 16 L 27 13.1875 L 28.03125 11.5625 L 16.53125 4.34375 Z M 5 18 L 5 22 L 7 22 L 7 18 Z M 25 18 L 25 22 L 27 22 L 27 18 Z M 5 24 L 5 28 L 9 28 L 9 26 L 7 26 L 7 24 Z M 25 24 L 25 26 L 23 26 L 23 28 L 27 28 L 27 24 Z M 11 26 L 11 28 L 15 28 L 15 26 Z M 17 26 L 17 28 L 21 28 L 21 26 Z "></path>
</g>
</svg>
