<?xml version="1.0" encoding="UTF-8"?>
<svg xmlns="http://www.w3.org/2000/svg" xmlns:xlink="http://www.w3.org/1999/xlink" viewBox="0 0 32 32" version="1.1">
<g>
<path d="M 4 5 L 4 6.34375 C 2.804688 6.914063 2 8.128906 2 9.5 C 2 10.925781 2.859375 12.179688 4.125 12.71875 C 4.949219 18.664063 9.851563 25 16 25 C 22.148438 25 27.050781 18.664063 27.875 12.71875 C 29.144531 12.179688 30 10.925781 30 9.5 C 30 8.128906 29.195313 6.914063 28 6.34375 L 28 5 L 26 5 L 26 7.875 L 26.8125 8.03125 C 27.507813 8.171875 28 8.789063 28 9.5 C 28 10.222656 27.492188 10.839844 26.78125 10.96875 L 26.03125 11.09375 L 25.96875 11.875 C 25.902344 12.625 25.746094 13.367188 25.53125 14.125 C 25.222656 14.296875 25 14.621094 25 15 C 25 15.148438 25.035156 15.28125 25.09375 15.40625 C 24.871094 15.972656 24.605469 16.527344 24.3125 17.0625 C 24.210938 17.027344 24.113281 17 24 17 C 23.449219 17 23 17.449219 23 18 C 23 18.273438 23.105469 18.507813 23.28125 18.6875 C 22.933594 19.160156 22.554688 19.617188 22.15625 20.03125 C 22.101563 20.023438 22.058594 20 22 20 C 21.449219 20 21 20.449219 21 21 C 21 21.027344 21.027344 21.035156 21.03125 21.0625 C 19.546875 22.242188 17.816406 23 16 23 C 14.183594 23 12.453125 22.242188 10.96875 21.0625 C 10.972656 21.035156 11 21.027344 11 21 C 11 20.449219 10.550781 20 10 20 C 9.941406 20 9.898438 20.023438 9.84375 20.03125 C 9.445313 19.617188 9.066406 19.160156 8.71875 18.6875 C 8.894531 18.507813 9 18.273438 9 18 C 9 17.449219 8.550781 17 8 17 C 7.886719 17 7.789063 17.027344 7.6875 17.0625 C 7.394531 16.527344 7.128906 15.972656 6.90625 15.40625 C 6.964844 15.28125 7 15.148438 7 15 C 7 14.621094 6.777344 14.296875 6.46875 14.125 C 6.253906 13.367188 6.097656 12.625 6.03125 11.875 L 5.96875 11.09375 L 5.21875 10.96875 C 4.507813 10.839844 4 10.222656 4 9.5 C 4 8.789063 4.492188 8.171875 5.1875 8.03125 L 6 7.875 L 6 5 Z M 11.5 6 C 10.671875 6 10 6.671875 10 7.5 C 10 8.328125 10.671875 9 11.5 9 C 12.328125 9 13 8.328125 13 7.5 C 13 6.671875 12.328125 6 11.5 6 Z M 20.5 6 C 19.671875 6 19 6.671875 19 7.5 C 19 8.328125 19.671875 9 20.5 9 C 21.328125 9 22 8.328125 22 7.5 C 22 6.671875 21.328125 6 20.5 6 Z M 8 11 C 7.449219 11 7 11.449219 7 12 C 7 12.550781 7.449219 13 8 13 C 8.550781 13 9 12.550781 9 12 C 9 11.449219 8.550781 11 8 11 Z M 12 11 C 11.449219 11 11 11.449219 11 12 C 11 12.550781 11.449219 13 12 13 C 12.550781 13 13 12.550781 13 12 C 13 11.449219 12.550781 11 12 11 Z M 16 11 C 15.449219 11 15 11.449219 15 12 C 15 12.550781 15.449219 13 16 13 C 16.550781 13 17 12.550781 17 12 C 17 11.449219 16.550781 11 16 11 Z M 20 11 C 19.449219 11 19 11.449219 19 12 C 19 12.550781 19.449219 13 20 13 C 20.550781 13 21 12.550781 21 12 C 21 11.449219 20.550781 11 20 11 Z M 24 11 C 23.449219 11 23 11.449219 23 12 C 23 12.550781 23.449219 13 24 13 C 24.550781 13 25 12.550781 25 12 C 25 11.449219 24.550781 11 24 11 Z M 16 13.96875 C 14.480469 13.929688 12.371094 14.246094 11.5 14.75 L 12.5 16.5 C 12.824219 16.3125 14.378906 15.96875 15.96875 15.96875 L 16 15.96875 C 17.527344 15.972656 19.140625 16.285156 19.53125 16.5 L 20.46875 14.75 C 19.574219 14.257813 17.503906 13.972656 16 13.96875 Z M 10 14 C 9.449219 14 9 14.449219 9 15 C 9 15.550781 9.449219 16 10 16 C 10.550781 16 11 15.550781 11 15 C 11 14.449219 10.550781 14 10 14 Z M 22 14 C 21.449219 14 21 14.449219 21 15 C 21 15.550781 21.449219 16 22 16 C 22.550781 16 23 15.550781 23 15 C 23 14.449219 22.550781 14 22 14 Z M 12 17 C 11.449219 17 11 17.449219 11 18 C 11 18.550781 11.449219 19 12 19 C 12.550781 19 13 18.550781 13 18 C 13 17.449219 12.550781 17 12 17 Z M 16 17 C 15.449219 17 15 17.449219 15 18 C 15 18.550781 15.449219 19 16 19 C 16.550781 19 17 18.550781 17 18 C 17 17.449219 16.550781 17 16 17 Z M 20 17 C 19.449219 17 19 17.449219 19 18 C 19 18.550781 19.449219 19 20 19 C 20.550781 19 21 18.550781 21 18 C 21 17.449219 20.550781 17 20 17 Z M 14 20 C 13.449219 20 13 20.449219 13 21 C 13 21.550781 13.449219 22 14 22 C 14.550781 22 15 21.550781 15 21 C 15 20.449219 14.550781 20 14 20 Z M 18 20 C 17.449219 20 17 20.449219 17 21 C 17 21.550781 17.449219 22 18 22 C 18.550781 22 19 21.550781 19 21 C 19 20.449219 18.550781 20 18 20 Z "></path>
</g>
</svg>
