<?xml version="1.0" encoding="UTF-8"?>
<svg xmlns="http://www.w3.org/2000/svg" xmlns:xlink="http://www.w3.org/1999/xlink" viewBox="0 0 32 32" version="1.1">
<g>
<path d="M 16 3 L 3 7 L 6.105469 7.953125 L 9 8.84375 L 9 11.203125 C 8.351563 11.445313 7.769531 11.886719 7.289063 12.453125 C 6.574219 13.300781 6.003906 14.421875 5.523438 15.765625 C 4.5625 18.449219 4 22.039063 4 26 L 4 27 L 12.898438 27 C 13.804688 27.617188 14.847656 28 16 28 C 17.15625 28 18.195313 27.617188 19.105469 27 L 28 27 L 28 26 C 28 22.039063 27.4375 18.449219 26.476563 15.765625 C 25.996094 14.421875 25.425781 13.300781 24.710938 12.453125 C 24.230469 11.886719 23.648438 11.445313 23 11.203125 L 23 8.84375 L 29 7 Z M 16 5.09375 L 22.203125 7 L 16 8.90625 L 9.796875 7 Z M 11 9.460938 L 16 11 L 16.296875 10.910156 L 21 9.460938 L 21 11.78125 C 20.988281 11.796875 21 11.800781 20.953125 11.832031 C 20.796875 11.964844 20.472656 12.15625 20.027344 12.335938 C 19.132813 12.691406 17.746094 13 16 13 C 14.253906 13 12.867188 12.691406 11.972656 12.335938 C 11.527344 12.15625 11.203125 11.964844 11.046875 11.832031 C 11 11.800781 11.011719 11.796875 11 11.78125 Z M 9.503906 13.144531 C 9.59375 13.230469 9.6875 13.3125 9.78125 13.386719 C 10.167969 13.699219 10.644531 13.960938 11.234375 14.191406 C 11.324219 14.230469 11.429688 14.257813 11.527344 14.292969 C 10.832031 14.59375 10.183594 14.96875 9.65625 15.507813 C 9.042969 16.132813 8.625 17.015625 8.625 18 C 8.625 20.175781 9.316406 22.566406 10.550781 24.503906 C 10.660156 24.675781 10.78125 24.835938 10.898438 25 L 6.070313 25 C 6.164063 21.652344 6.636719 18.59375 7.40625 16.4375 C 7.832031 15.246094 8.335938 14.316406 8.820313 13.746094 C 9.074219 13.445313 9.300781 13.257813 9.503906 13.144531 Z M 22.496094 13.144531 C 22.699219 13.257813 22.925781 13.445313 23.183594 13.746094 C 23.664063 14.316406 24.167969 15.246094 24.59375 16.4375 C 25.363281 18.59375 25.835938 21.652344 25.925781 25 L 21.105469 25 C 21.222656 24.839844 21.339844 24.679688 21.445313 24.511719 C 22.679688 22.574219 23.375 20.183594 23.375 18 L 21.375 18 C 21.375 19.742188 20.769531 21.855469 19.761719 23.4375 C 18.75 25.015625 17.441406 26 16 26 C 14.5625 26 13.25 25.011719 12.238281 23.425781 C 11.230469 21.84375 10.625 19.734375 10.625 18 C 10.625 17.523438 10.765625 17.230469 11.085938 16.90625 C 11.40625 16.582031 11.929688 16.265625 12.59375 16.007813 C 13.917969 15.492188 15.722656 15.207031 17.203125 14.953125 L 17.203125 14.949219 C 18.636719 14.84375 19.839844 14.5625 20.765625 14.191406 C 21.355469 13.960938 21.832031 13.699219 22.21875 13.386719 C 22.3125 13.3125 22.40625 13.230469 22.496094 13.144531 Z M 13 18 C 12.449219 18 12 18.449219 12 19 C 12 19.550781 12.449219 20 13 20 C 13.550781 20 14 19.550781 14 19 C 14 18.449219 13.550781 18 13 18 Z M 19 18 C 18.449219 18 18 18.449219 18 19 C 18 19.550781 18.449219 20 19 20 C 19.550781 20 20 19.550781 20 19 C 20 18.449219 19.550781 18 19 18 Z "></path>
</g>
</svg>
