<?xml version="1.0" encoding="UTF-8"?>
<svg xmlns="http://www.w3.org/2000/svg" xmlns:xlink="http://www.w3.org/1999/xlink" viewBox="0 0 32 32" version="1.1">
<g>
<path d="M 11.5 4 C 9.578125 4 8 5.578125 8 7.5 C 8 9.421875 9.578125 11 11.5 11 C 13.421875 11 15 9.421875 15 7.5 C 15 5.578125 13.421875 4 11.5 4 Z M 11.5 6 C 12.339844 6 13 6.660156 13 7.5 C 13 8.339844 12.339844 9 11.5 9 C 10.660156 9 10 8.339844 10 7.5 C 10 6.660156 10.660156 6 11.5 6 Z M 22 7 C 20.355469 7 19 8.355469 19 10 C 19 11.644531 20.355469 13 22 13 C 23.644531 13 25 11.644531 25 10 C 25 8.355469 23.644531 7 22 7 Z M 22 9 C 22.5625 9 23 9.4375 23 10 C 23 10.5625 22.5625 11 22 11 C 21.4375 11 21 10.5625 21 10 C 21 9.4375 21.4375 9 22 9 Z M 7.4375 11.03125 C 6.53125 11.019531 5.671875 11.628906 5.4375 12.53125 L 4.375 16.65625 C 4.109375 17.683594 4.703125 18.75 5.71875 19.0625 L 7.53125 19.625 C 7.589844 19.898438 7.707031 20.144531 7.875 20.375 L 13.40625 28 L 18.1875 28 L 19.75 25.84375 L 19.90625 25.25 L 18.40625 23.03125 L 17.90625 24.96875 L 15.78125 27.90625 L 9.5 19.1875 L 10.6875 13.75 L 11.125 13.84375 L 11.90625 16.5 C 12.082031 17.101563 12.535156 17.589844 13.125 17.8125 L 15.28125 18.625 C 15.039063 19.621094 15.617188 20.640625 16.59375 20.96875 L 19.21875 21.875 L 23.6875 28 L 26.15625 28 L 20.5 20.1875 L 21.5 15.6875 L 22.125 15.84375 L 22.90625 18.5 C 23.082031 19.101563 23.535156 19.589844 24.125 19.8125 L 27.65625 21.15625 L 28.34375 19.28125 L 24.8125 17.96875 L 24.8125 17.9375 L 24.0625 15.28125 C 23.863281 14.589844 23.292969 14.074219 22.59375 13.90625 L 18.78125 13 C 17.734375 12.75 16.648438 13.394531 16.375 14.4375 L 15.78125 16.6875 L 13.8125 15.9375 L 13.0625 13.3125 C 12.859375 12.613281 12.277344 12.0625 11.5625 11.90625 L 7.8125 11.0625 C 7.683594 11.035156 7.566406 11.03125 7.4375 11.03125 Z M 7.375 13.03125 L 8.71875 13.3125 L 7.78125 17.625 L 6.3125 17.15625 C 6.304688 17.152344 6.277344 17.167969 6.28125 17.15625 Z M 18.3125 14.9375 L 19.53125 15.21875 L 18.59375 19.5625 L 17.21875 19.09375 Z M 7.40625 22.03125 L 6.90625 23.96875 L 4 28 L 6.46875 28 L 8.75 24.84375 L 8.90625 24.25 Z "></path>
</g>
</svg>
