<?xml version="1.0" encoding="UTF-8"?>
<svg xmlns="http://www.w3.org/2000/svg" xmlns:xlink="http://www.w3.org/1999/xlink" viewBox="0 0 32 32" version="1.1">
<g>
<path d="M 5 3 L 5 29 L 27 29 L 27 25.828125 L 25.828125 27 L 7 27 L 7 5 L 25 5 L 25 14.171875 L 27 16.171875 L 27 3 Z M 12 8 C 10.894531 8 10 8.894531 10 10 C 10 10.519531 10.203125 11.015625 10.5625 11.390625 C 9.640625 11.902344 9 12.878906 9 14 L 11 14 C 11 13.433594 11.433594 13 12 13 C 12.566406 13 13 13.433594 13 14 L 15 14 C 15 12.878906 14.363281 11.902344 13.4375 11.390625 C 13.800781 11.015625 14 10.519531 14 10 C 14 8.894531 13.105469 8 12 8 Z M 17 8 L 17 10 L 23 10 L 23 8 Z M 17 12 L 17 14 L 23 14 L 23 12 Z M 24 16 L 22.585938 17.414063 L 25.171875 20 L 17 20 L 17 22 L 25.171875 22 L 22.585938 24.585938 L 24 26 L 29 21 Z M 9 18 L 9 20 L 15 20 L 15 18 Z M 9 22 L 9 24 L 15 24 L 15 22 Z "></path>
</g>
</svg>
