<?xml version="1.0" encoding="UTF-8"?>
<svg xmlns="http://www.w3.org/2000/svg" xmlns:xlink="http://www.w3.org/1999/xlink" viewBox="0 0 32 32" version="1.1">
<g>
<path d="M 15 4 L 15 6.21875 L 14.25 6.03125 C 14.117188 5.992188 13.980469 5.984375 13.84375 6 C 13.359375 6.058594 12.992188 6.457031 12.96875 6.945313 C 12.945313 7.429688 13.273438 7.863281 13.75 7.96875 L 17.75 8.96875 C 18.285156 9.105469 18.832031 8.785156 18.96875 8.25 C 19.105469 7.714844 18.785156 7.167969 18.25 7.03125 L 17 6.71875 L 17 4 Z M 13.84375 9.5 C 13.359375 9.558594 12.992188 9.957031 12.96875 10.445313 C 12.945313 10.929688 13.273438 11.363281 13.75 11.46875 L 17.75 12.46875 C 18.285156 12.605469 18.832031 12.285156 18.96875 11.75 C 19.105469 11.214844 18.785156 10.667969 18.25 10.53125 L 14.25 9.53125 C 14.117188 9.492188 13.980469 9.484375 13.84375 9.5 Z M 13.84375 13 C 13.359375 13.058594 12.992188 13.457031 12.96875 13.945313 C 12.945313 14.429688 13.273438 14.863281 13.75 14.96875 L 14.15625 15.0625 C 13.730469 15.457031 13.25 15.914063 12.75 16.46875 C 11.433594 17.933594 10 19.832031 10 22 C 10 23.945313 10.859375 25.5 12.03125 26.5 C 13.203125 27.5 14.644531 28 16 28 C 17.347656 28 18.796875 27.527344 19.96875 26.53125 C 21.140625 25.535156 22 23.964844 22 22 C 22 19.804688 20.570313 17.894531 19.25 16.4375 C 19.035156 16.199219 18.835938 15.992188 18.625 15.78125 C 18.921875 15.542969 19.058594 15.160156 18.976563 14.789063 C 18.898438 14.417969 18.617188 14.125 18.25 14.03125 L 14.25 13.03125 C 14.117188 12.992188 13.980469 12.984375 13.84375 13 Z M 16.03125 16.125 C 16.429688 16.449219 16.875 16.816406 17.75 17.78125 C 18.929688 19.085938 20 20.777344 20 22 C 20 23.410156 19.460938 24.339844 18.6875 25 C 17.914063 25.660156 16.859375 26 16 26 C 15.148438 26 14.089844 25.664063 13.3125 25 C 12.535156 24.335938 12 23.386719 12 22 C 12 20.832031 13.066406 19.128906 14.25 17.8125 C 15.136719 16.824219 15.640625 16.449219 16.03125 16.125 Z "></path>
</g>
</svg>
