<?xml version="1.0" encoding="UTF-8"?>
<svg xmlns="http://www.w3.org/2000/svg" xmlns:xlink="http://www.w3.org/1999/xlink" viewBox="0 0 32 32" version="1.1">
<g>
<path d="M 14 3.71875 L 13.375 4.21875 L 4.375 11.21875 L 4 11.5 L 4 13.125 L 4.84375 13.25 L 9.84375 14 L 13 14 L 13 22 L 15 22 L 15 14 L 18.15625 14 L 23.15625 13.1875 L 24 13.0625 L 24 11.5 L 23.625 11.21875 L 14.625 4.21875 Z M 14 7.84375 L 15.5625 12 L 12.4375 12 Z M 11.8125 7.9375 L 10.3125 12 L 10.15625 12 L 7.1875 11.5625 Z M 16.1875 7.96875 L 20.78125 11.53125 L 17.84375 12 L 17.6875 12 Z M 26.53125 17.125 L 15.75 23 L 4 23 L 4 25 L 6 25 L 6 28 L 8 28 L 8 25 L 24 25 L 24 28 L 26 28 L 26 25 L 28 25 L 28 23 L 25.78125 23 L 25.0625 20.1875 L 27.46875 18.875 Z M 23.25 21.15625 L 23.71875 23 L 19.90625 23 Z "></path>
</g>
</svg>
