<?xml version="1.0" encoding="UTF-8"?>
<svg xmlns="http://www.w3.org/2000/svg" xmlns:xlink="http://www.w3.org/1999/xlink" viewBox="0 0 32 32" version="1.1">
<g>
<path d="M 9 4 L 9 5 L 5 5 L 5 27 L 27 27 L 27 5 L 23 5 L 23 4 L 21 4 L 21 5 L 11 5 L 11 4 Z M 7 7 L 9 7 L 9 8 L 11 8 L 11 7 L 21 7 L 21 8 L 23 8 L 23 7 L 25 7 L 25 9 L 7 9 Z M 7 11 L 25 11 L 25 25 L 7 25 Z M 13.5 14 C 12.132813 14 11 15.132813 11 16.5 C 11 17.867188 12.132813 19 13.5 19 C 13.785156 19 14 19.214844 14 19.5 C 14 19.863281 13.9375 20 13.5 20 C 13.121094 20 13.066406 19.914063 13.0625 19.90625 C 13.058594 19.898438 13 19.867188 13 19.625 L 11 19.625 C 11 20.191406 11.15625 20.832031 11.625 21.3125 C 12.09375 21.792969 12.773438 22 13.5 22 C 14.910156 22 16 20.792969 16 19.5 C 16 18.132813 14.867188 17 13.5 17 C 13.214844 17 13 16.785156 13 16.5 C 13 16.214844 13.214844 16 13.5 16 C 13.769531 16 13.84375 16.058594 13.90625 16.125 C 13.96875 16.191406 14 16.320313 14 16.40625 L 16 16.40625 C 16 15.839844 15.804688 15.253906 15.375 14.78125 C 14.945313 14.308594 14.257813 14 13.5 14 Z M 17 14 L 17 19.5 C 17 20.867188 18.132813 22 19.5 22 C 20.867188 22 22 20.867188 22 19.5 L 22 14 L 20 14 L 20 19.5 C 20 19.785156 19.785156 20 19.5 20 C 19.214844 20 19 19.785156 19 19.5 L 19 14 Z "></path>
</g>
</svg>
