<?xml version="1.0" encoding="UTF-8"?>
<svg xmlns="http://www.w3.org/2000/svg" xmlns:xlink="http://www.w3.org/1999/xlink" viewBox="0 0 32 32" version="1.1">
<g>
<path d="M 15 5 L 15 9 L 12 9 L 16 13 L 20 9 L 17 9 L 17 5 Z M 15 15 L 15 19.09375 C 13.816406 19.265625 12.726563 19.722656 11.8125 20.40625 L 8.9375 17.5 L 7.5 18.9375 L 10.40625 21.8125 C 9.722656 22.726563 9.265625 23.816406 9.09375 25 L 5 25 L 5 27 L 27 27 L 27 25 L 22.90625 25 C 22.734375 23.816406 22.277344 22.726563 21.59375 21.8125 L 24.5 18.9375 L 23.0625 17.5 L 20.1875 20.40625 C 19.273438 19.722656 18.183594 19.265625 17 19.09375 L 17 15 Z M 16 21 C 18.425781 21 20.441406 22.714844 20.90625 25 L 11.09375 25 C 11.558594 22.714844 13.574219 21 16 21 Z "></path>
</g>
</svg>
