<?xml version="1.0" encoding="UTF-8"?>
<svg xmlns="http://www.w3.org/2000/svg" xmlns:xlink="http://www.w3.org/1999/xlink" viewBox="0 0 32 32" version="1.1">
<g>
<path d="M 17.21875 5.875 L 16.8125 6.3125 C 16.445313 6.695313 15.640625 7.375 14.59375 7.78125 C 13.5625 8.179688 12.285156 8.355469 10.71875 7.71875 C 10.695313 7.707031 10.679688 7.699219 10.65625 7.6875 C 8.929688 6.878906 7.261719 6.820313 5.96875 7.4375 C 4.730469 8.027344 3.960938 9.203125 3.625 10.53125 L 3.59375 10.53125 L 3.09375 11.6875 L 2.84375 12.21875 L 3.1875 12.6875 C 3.1875 12.6875 4.195313 14.050781 6.15625 15.46875 C 4.882813 16.140625 4 17.46875 4 19 C 4 20.113281 4.476563 21.117188 5.21875 21.84375 C 3.886719 22.746094 3 24.28125 3 26 L 5 26 C 5 24.332031 6.332031 23 8 23 C 9.667969 23 11 24.332031 11 26 L 13 26 C 13 24.28125 12.113281 22.746094 10.78125 21.84375 C 11.523438 21.117188 12 20.113281 12 19 C 12 18.734375 11.957031 18.46875 11.90625 18.21875 C 14.375 19.03125 16.09375 19.3125 16.09375 19.3125 L 16.34375 19.34375 L 16.59375 19.28125 L 18.625 18.5625 L 19.5 18.84375 L 19.4375 19.25 L 19.28125 20.15625 L 20.15625 20.40625 L 25.59375 21.875 L 26.59375 22.15625 L 26.8125 21.125 L 27.3125 18.78125 C 27.570313 18.421875 29.773438 15.273438 28.75 11.75 L 28.625 11.3125 L 28.21875 11.125 C 26.46875 10.3125 24.777344 10.882813 23.59375 11 C 23.003906 11.058594 22.578125 11.050781 22.1875 10.875 C 21.796875 10.699219 21.363281 10.347656 20.90625 9.5 C 20.472656 8.699219 20.285156 8.101563 19.875 7.46875 C 19.464844 6.835938 18.746094 6.296875 17.78125 6.03125 Z M 17.625 8.21875 C 17.804688 8.3125 18.066406 8.378906 18.1875 8.5625 C 18.371094 8.847656 18.644531 9.421875 19.0625 10.21875 L 16.96875 12.28125 L 18.40625 13.71875 L 20.21875 11.90625 C 20.566406 12.25 20.945313 12.507813 21.34375 12.6875 C 22.1875 13.070313 23.058594 13.074219 23.8125 13 C 25.074219 12.875 26.042969 12.707031 26.875 12.875 C 27.195313 15.234375 25.5625 17.875 25.5625 17.875 L 25.4375 18.03125 L 25.375 18.21875 L 25.09375 19.65625 L 21.5625 18.71875 L 21.625 18.34375 L 21.78125 17.5 L 20.9375 17.21875 L 18.90625 16.59375 L 18.59375 16.46875 L 18.28125 16.59375 L 16.1875 17.28125 C 15.839844 17.21875 13.363281 16.773438 10 15.375 C 6.996094 14.054688 5.609375 12.429688 5.1875 11.90625 L 5.4375 11.34375 L 5.46875 11.25 L 5.5 11.125 C 5.691406 10.199219 6.160156 9.542969 6.84375 9.21875 C 7.527344 8.894531 8.484375 8.847656 9.84375 9.5 L 9.875 9.53125 L 9.90625 9.53125 C 11.984375 10.402344 13.878906 10.210938 15.3125 9.65625 C 16.347656 9.253906 17.066406 8.703125 17.625 8.21875 Z M 8 17 C 9.117188 17 10 17.882813 10 19 C 10 20.117188 9.117188 21 8 21 C 6.882813 21 6 20.117188 6 19 C 6 17.882813 6.882813 17 8 17 Z "></path>
</g>
</svg>
