<?xml version="1.0" encoding="UTF-8"?>
<svg xmlns="http://www.w3.org/2000/svg" xmlns:xlink="http://www.w3.org/1999/xlink" viewBox="0 0 32 32" version="1.1">
<g>
<path d="M 22 4 C 20.355469 4 19 5.355469 19 7 C 19 8.644531 20.355469 10 22 10 C 23.644531 10 25 8.644531 25 7 C 25 5.355469 23.644531 4 22 4 Z M 11.53125 5.15625 L 9.875 6.28125 L 12.1875 9.6875 C 12.460938 10.089844 12.871094 10.378906 13.34375 10.5 L 15.53125 11.0625 L 12.34375 14.15625 C 11.621094 14.859375 11.484375 15.976563 12 16.84375 L 13.34375 19.15625 L 12.40625 20.21875 L 9.71875 23.21875 C 10.394531 23.367188 11.15625 23.503906 12 23.65625 L 13.90625 21.5625 L 15.34375 19.9375 L 15.8125 19.40625 L 15.46875 18.78125 L 13.71875 15.84375 C 13.671875 15.761719 13.683594 15.660156 13.75 15.59375 L 17.75 11.6875 L 18.6875 12.46875 L 16.125 15.15625 C 15.398438 15.910156 15.382813 17.136719 16.09375 17.90625 L 17.625 19.59375 L 17.53125 20.9375 L 17.25 24.4375 C 17.886719 24.507813 18.5625 24.5625 19.25 24.625 L 19.53125 21.09375 L 19.65625 19.28125 L 19.6875 18.875 L 19.40625 18.53125 L 17.5625 16.5625 L 20.25 13.75 L 24.625 17.40625 L 25.90625 15.84375 L 18.71875 9.90625 L 18.5625 9.75 L 18.34375 9.71875 L 13.84375 8.5625 Z M 22 6 C 22.5625 6 23 6.4375 23 7 C 23 7.5625 22.5625 8 22 8 C 21.4375 8 21 7.5625 21 7 C 21 6.4375 21.4375 6 22 6 Z M 5.34375 23.0625 L 4.65625 24.9375 C 4.65625 24.9375 5.53125 25.246094 7.09375 25.65625 C 6.960938 25.71875 6.832031 25.765625 6.6875 25.8125 C 6.105469 25.996094 5.460938 26 5 26 L 5 28 C 5.488281 28 6.347656 28.011719 7.28125 27.71875 C 8.03125 27.484375 8.859375 27.003906 9.46875 26.21875 C 13.375 27.058594 19.570313 28 28 28 L 28 26 C 13.097656 26 5.34375 23.0625 5.34375 23.0625 Z "></path>
</g>
</svg>
