<?xml version="1.0" encoding="UTF-8"?>
<svg xmlns="http://www.w3.org/2000/svg" xmlns:xlink="http://www.w3.org/1999/xlink" viewBox="0 0 32 32" version="1.1">
<g>
<path d="M 9.5 8 C 7.578125 8 6 9.578125 6 11.5 C 6 12.570313 6.515625 13.511719 7.28125 14.15625 L 7.25 14.1875 L 13.1875 19 L 7.5 19 C 5.578125 19 4 20.578125 4 22.5 C 4 24.421875 5.578125 26 7.5 26 C 9.421875 26 11 24.421875 11 22.5 C 11 21.953125 10.851563 21.460938 10.625 21 L 24 21 C 26.199219 21 28 19.199219 28 17 L 28 16 L 22.3125 16 L 25.71875 12.59375 L 26.40625 11.875 L 25.71875 11.1875 C 24.941406 10.410156 23.902344 10 22.875 10 C 21.847656 10 20.839844 10.410156 20.0625 11.1875 L 15.21875 16 L 12.6875 16 L 11 14.625 C 12.164063 14.054688 13 12.875 13 11.5 C 13 9.578125 11.421875 8 9.5 8 Z M 9.5 10 C 10.339844 10 11 10.660156 11 11.5 C 11 12.339844 10.339844 13 9.5 13 C 9.210938 13 8.945313 12.917969 8.71875 12.78125 C 8.648438 12.738281 8.59375 12.679688 8.53125 12.625 C 8.214844 12.351563 8 11.960938 8 11.5 C 8 10.660156 8.660156 10 9.5 10 Z M 22.8125 12.09375 C 22.972656 12.097656 23.121094 12.121094 23.28125 12.15625 L 19.46875 16 L 18.03125 16 L 21.46875 12.59375 C 21.847656 12.214844 22.332031 12.078125 22.8125 12.09375 Z M 15.125 18 L 25.5625 18 C 25.210938 18.558594 24.71875 19 24 19 L 16.34375 19 Z M 7.5 21 C 8.339844 21 9 21.660156 9 22.5 C 9 23.339844 8.339844 24 7.5 24 C 6.660156 24 6 23.339844 6 22.5 C 6 21.660156 6.660156 21 7.5 21 Z "></path>
</g>
</svg>
