<?xml version="1.0" encoding="UTF-8"?>
<svg xmlns="http://www.w3.org/2000/svg" xmlns:xlink="http://www.w3.org/1999/xlink" viewBox="0 0 32 32" version="1.1">
<g>
<path d="M 16 4 C 11.667969 4 8.910156 4.957031 7.21875 6.375 C 5.585938 7.742188 5.039063 9.492188 5 10.84375 C 4.84375 11.328125 4 14.097656 4 18.09375 C 4 22.480469 5.03125 27.21875 5.03125 27.21875 L 5.1875 28 L 26.8125 28 L 26.96875 27.21875 C 26.96875 27.21875 28 22.457031 28 18.09375 C 28 14.121094 27.15625 11.355469 27 10.875 C 26.96875 9.507813 26.425781 7.746094 24.78125 6.375 C 23.085938 4.960938 20.328125 4 16 4 Z M 16 6 C 20.035156 6 22.285156 6.894531 23.5 7.90625 C 24.300781 8.574219 24.664063 9.316406 24.84375 10 L 7.15625 10 C 7.332031 9.316406 7.699219 8.578125 8.5 7.90625 C 9.714844 6.886719 11.964844 6 16 6 Z M 6.78125 12 L 25.25 12 C 25.480469 12.78125 26 14.792969 26 18.09375 C 26 21.578125 25.359375 24.976563 25.15625 26 L 6.84375 26 C 6.640625 24.980469 6 21.597656 6 18.09375 C 6 14.746094 6.554688 12.753906 6.78125 12 Z M 16 13 C 12.699219 13 10 15.699219 10 19 C 10 22.300781 12.699219 25 16 25 C 19.300781 25 22 22.300781 22 19 C 22 15.699219 19.300781 13 16 13 Z M 16 15 C 18.222656 15 20 16.777344 20 19 C 20 21.222656 18.222656 23 16 23 C 13.777344 23 12 21.222656 12 19 C 12 16.777344 13.777344 15 16 15 Z M 15 16 L 15 18 L 13 18 L 13 20 L 15 20 L 15 22 L 17 22 L 17 20 L 19 20 L 19 18 L 17 18 L 17 16 Z "></path>
</g>
</svg>
