<?xml version="1.0" encoding="UTF-8"?>
<svg xmlns="http://www.w3.org/2000/svg" xmlns:xlink="http://www.w3.org/1999/xlink" viewBox="0 0 32 32" version="1.1">
<g>
<path d="M 16 2 C 14.742188 2 13.847656 2.890625 13.40625 4 L 5 4 L 5 29 L 27 29 L 27 4 L 18.59375 4 C 18.152344 2.890625 17.257813 2 16 2 Z M 16 4 C 16.554688 4 17 4.445313 17 5 L 17 6 L 20 6 L 20 8 L 12 8 L 12 6 L 15 6 L 15 5 C 15 4.445313 15.445313 4 16 4 Z M 7 6 L 10 6 L 10 10 L 22 10 L 22 6 L 25 6 L 25 27 L 7 27 Z M 9 12 L 9 17 L 14 17 L 14 12 Z M 16 13 L 16 15 L 23 15 L 23 13 Z M 11 14 L 12 14 L 12 15 L 11 15 Z M 9 19 L 9 24 L 14 24 L 14 19 Z M 16 20 L 16 22 L 23 22 L 23 20 Z "></path>
</g>
</svg>
