<?xml version="1.0" encoding="UTF-8"?>
<svg xmlns="http://www.w3.org/2000/svg" xmlns:xlink="http://www.w3.org/1999/xlink" viewBox="0 0 32 32" version="1.1">
<g>
<path d="M 28.0625 4.96875 L 16.5 11.25 C 16.492188 11.246094 16.476563 11.253906 16.46875 11.25 C 16.210938 11.09375 15.929688 10.9375 15.625 10.8125 C 14.371094 10.289063 12.769531 10 11 10 C 9.230469 10 7.628906 10.289063 6.375 10.8125 C 5.75 11.074219 5.214844 11.386719 4.78125 11.8125 C 4.347656 12.238281 4 12.832031 4 13.5 L 4 18.03125 L 1.90625 19.15625 L 2.84375 20.90625 L 4 20.3125 L 4 22.4375 L 2.0625 23.09375 L 2.6875 25 L 4.3125 24.46875 C 4.488281 24.78125 4.746094 25.109375 5.125 25.4375 C 6.125 26.308594 7.875 27 11 27 C 14.125 27 15.875 26.308594 16.875 25.4375 C 17.375 25.003906 17.691406 24.539063 17.84375 24.15625 C 17.996094 23.773438 18 23.40625 18 23.40625 L 18 19.90625 L 29.9375 15.9375 L 29.3125 14.0625 L 18 17.8125 L 18 13.5 C 18 13.246094 17.929688 13.007813 17.84375 12.78125 L 29.03125 6.71875 Z M 11 12 C 12.542969 12 13.925781 12.273438 14.84375 12.65625 C 15.304688 12.847656 15.636719 13.078125 15.8125 13.25 C 15.988281 13.421875 16 13.480469 16 13.5 C 16 13.519531 15.988281 13.578125 15.8125 13.75 C 15.636719 13.921875 15.304688 14.152344 14.84375 14.34375 C 13.925781 14.726563 12.542969 15 11 15 C 9.457031 15 8.074219 14.726563 7.15625 14.34375 C 6.695313 14.152344 6.363281 13.921875 6.1875 13.75 C 6.011719 13.578125 6 13.519531 6 13.5 C 6 13.480469 6.011719 13.421875 6.1875 13.25 C 6.363281 13.078125 6.695313 12.847656 7.15625 12.65625 C 8.074219 12.273438 9.457031 12 11 12 Z M 11 13 C 9.894531 13 9 13.222656 9 13.5 C 9 13.777344 9.894531 14 11 14 C 12.105469 14 13 13.777344 13 13.5 C 13 13.222656 12.105469 13 11 13 Z M 6 16 C 6.125 16.0625 6.242188 16.132813 6.375 16.1875 C 7.628906 16.710938 9.230469 17 11 17 C 12.769531 17 14.371094 16.710938 15.625 16.1875 C 15.757813 16.132813 15.875 16.0625 16 16 L 16 18.46875 L 6 21.78125 Z M 16 20.5625 L 16 23.34375 C 16 23.34375 16 23.378906 16 23.375 C 16 23.371094 15.996094 23.339844 15.96875 23.40625 C 15.925781 23.515625 15.847656 23.714844 15.59375 23.9375 C 15.085938 24.378906 13.832031 25 11 25 C 8.167969 25 6.914063 24.378906 6.40625 23.9375 C 6.351563 23.890625 6.320313 23.855469 6.28125 23.8125 Z "></path>
</g>
</svg>
