<?xml version="1.0" encoding="UTF-8"?>
<svg xmlns="http://www.w3.org/2000/svg" xmlns:xlink="http://www.w3.org/1999/xlink" viewBox="0 0 32 32" version="1.1">
<g>
<path d="M 13.640625 3.546875 L 13.4375 4.84375 C 13.238281 6.117188 12.675781 6.953125 12.074219 7.972656 C 11.472656 8.992188 10.851563 10.261719 11.03125 11.953125 C 11.136719 12.914063 11.570313 13.714844 12.179688 14.21875 C 12.789063 14.71875 13.515625 14.921875 14.1875 14.980469 C 14.703125 15.027344 15.183594 14.976563 15.628906 14.890625 C 15.484375 15.433594 15.308594 16.003906 15.0625 16.648438 L 16.9375 17.351563 C 17.269531 16.460938 17.5 15.648438 17.667969 14.875 C 18.359375 14.949219 19.199219 14.695313 19.898438 14.050781 C 21.929688 12.179688 21.761719 7.234375 14.839844 4.085938 Z M 14.976563 6.527344 C 15.675781 6.914063 16.246094 7.308594 16.726563 7.695313 L 15.078125 8.382813 C 15.714844 9.917969 16.078125 11.167969 16.003906 12.683594 C 15.945313 12.707031 15.761719 12.820313 15.53125 12.878906 C 15.195313 12.96875 14.753906 13.023438 14.363281 12.988281 C 13.972656 12.953125 13.65625 12.839844 13.449219 12.671875 C 13.238281 12.5 13.078125 12.28125 13.019531 11.746094 C 12.898438 10.589844 13.242188 9.933594 13.796875 8.984375 C 14.179688 8.335938 14.617188 7.496094 14.976563 6.527344 Z M 17.0625 7.976563 C 19.539063 10.195313 18.910156 12.246094 18.542969 12.582031 C 18.210938 12.886719 18.070313 12.898438 17.941406 12.886719 C 18.035156 11.101563 17.679688 9.550781 17.0625 7.976563 Z M 6 9 C 4.355469 9 3 10.355469 3 12 L 3 20.757813 C 3 21.820313 3.421875 22.835938 4.171875 23.585938 L 7 26.414063 L 7 29 L 9 29 L 9 25.585938 L 5.585938 22.171875 C 5.210938 21.796875 5 21.289063 5 20.757813 L 5 12 C 5 11.433594 5.433594 11 6 11 C 6.566406 11 7 11.433594 7 12 L 7 15.847656 C 6.171875 16.257813 5.585938 17.105469 5.585938 18.085938 C 5.585938 18.765625 5.867188 19.390625 6.304688 19.839844 L 6.308594 19.84375 L 6.3125 19.84375 C 6.316406 19.847656 6.316406 19.851563 6.320313 19.855469 C 6.328125 19.859375 6.335938 19.871094 6.351563 19.886719 C 6.375 19.910156 6.414063 19.945313 6.460938 19.996094 C 6.550781 20.089844 6.6875 20.21875 6.847656 20.378906 C 7.167969 20.703125 7.597656 21.128906 8.023438 21.558594 C 8.878906 22.410156 9.734375 23.265625 9.734375 23.265625 L 11.144531 21.855469 C 11.144531 21.855469 10.292969 20.996094 9.4375 20.140625 C 9.011719 19.714844 8.582031 19.289063 8.261719 18.96875 C 8.101563 18.804688 7.96875 18.671875 7.875 18.578125 C 7.863281 18.566406 7.855469 18.5625 7.84375 18.550781 L 7.765625 18.46875 C 7.753906 18.457031 7.746094 18.449219 7.738281 18.441406 C 7.734375 18.441406 7.734375 18.441406 7.734375 18.4375 C 7.640625 18.34375 7.585938 18.226563 7.585938 18.085938 C 7.585938 17.800781 7.800781 17.585938 8.085938 17.585938 C 8.234375 17.585938 8.351563 17.644531 8.453125 17.75 L 8.464844 17.765625 L 11.839844 21.15625 C 12.582031 21.90625 13 22.917969 13 23.976563 L 13 29 L 15 29 L 15 23.976563 C 15 22.390625 14.375 20.871094 13.253906 19.746094 L 9.921875 16.398438 C 9.671875 16.125 9.355469 15.914063 9 15.769531 L 9 12 C 9 10.355469 7.644531 9 6 9 Z M 26 9 C 24.355469 9 23 10.355469 23 12 L 23 15.769531 C 22.644531 15.914063 22.328125 16.125 22.078125 16.398438 L 18.746094 19.746094 C 17.625 20.871094 17 22.390625 17 23.976563 L 17 29 L 19 29 L 19 23.976563 C 19 22.917969 19.417969 21.90625 20.160156 21.15625 L 23.535156 17.765625 L 23.546875 17.75 C 23.648438 17.644531 23.765625 17.585938 23.910156 17.585938 C 24.199219 17.585938 24.410156 17.800781 24.410156 18.085938 C 24.410156 18.226563 24.359375 18.34375 24.265625 18.4375 C 24.265625 18.441406 24.265625 18.441406 24.261719 18.441406 C 24.253906 18.449219 24.246094 18.457031 24.234375 18.46875 L 24.15625 18.550781 C 24.144531 18.5625 24.136719 18.566406 24.125 18.578125 C 24.03125 18.671875 23.898438 18.804688 23.738281 18.96875 C 23.417969 19.289063 22.988281 19.714844 22.5625 20.140625 C 21.707031 20.996094 20.855469 21.855469 20.855469 21.855469 L 22.265625 23.265625 C 22.265625 23.265625 23.121094 22.410156 23.976563 21.558594 C 24.402344 21.128906 24.832031 20.703125 25.152344 20.378906 C 25.3125 20.21875 25.449219 20.089844 25.542969 19.996094 C 25.585938 19.945313 25.625 19.910156 25.652344 19.886719 C 25.664063 19.871094 25.671875 19.859375 25.679688 19.855469 L 25.6875 19.84375 L 25.691406 19.84375 C 26.132813 19.394531 26.410156 18.765625 26.410156 18.085938 C 26.410156 17.105469 25.828125 16.257813 25 15.847656 L 25 12 C 25 11.433594 25.433594 11 26 11 C 26.566406 11 27 11.433594 27 12 L 27 20.757813 C 27 21.289063 26.789063 21.796875 26.414063 22.171875 L 23 25.585938 L 23 29 L 25 29 L 25 26.414063 L 27.828125 23.585938 C 28.578125 22.835938 29 21.820313 29 20.757813 L 29 12 C 29 10.355469 27.644531 9 26 9 Z "></path>
</g>
</svg>
