<?xml version="1.0" encoding="UTF-8"?>
<svg xmlns="http://www.w3.org/2000/svg" xmlns:xlink="http://www.w3.org/1999/xlink" viewBox="0 0 32 32" version="1.1">
<g>
<path d="M 11.984375 6.984375 C 11.9375 6.988281 11.886719 6.992188 11.839844 7 L 4 7 C 3.503906 7 2.945313 7.121094 2.53125 7.53125 C 2.121094 7.945313 2 8.503906 2 9 L 2 13.832031 C 1.980469 13.941406 1.980469 14.050781 2 14.15625 L 2 21 C 2 21.496094 2.121094 22.054688 2.53125 22.46875 C 2.945313 22.878906 3.503906 23 4 23 L 5.144531 23 C 5.59375 24.714844 7.148438 26 9 26 C 10.851563 26 12.40625 24.714844 12.855469 23 L 19.144531 23 C 19.59375 24.714844 21.148438 26 23 26 C 24.851563 26 26.40625 24.714844 26.855469 23 L 30 23 L 30 17.484375 C 30 15.785156 28.765625 14.320313 27.089844 14.035156 L 27.171875 14.050781 L 23.605469 13.125 L 20.484375 8.757813 L 20.515625 8.804688 C 19.734375 7.558594 18.339844 7 17 7 L 12.15625 7 C 12.097656 6.992188 12.042969 6.984375 11.984375 6.984375 Z M 4 9 L 11 9 L 11 13 L 4 13 Z M 13 9 L 17 9 C 17.808594 9 18.460938 9.292969 18.824219 9.867188 L 18.839844 9.894531 L 21.058594 13 L 13 13 Z M 4 15 L 11.832031 15 C 11.941406 15.019531 12.050781 15.019531 12.15625 15 L 22.871094 15 L 26.710938 16 L 26.75 16.003906 C 27.3125 16.101563 27.742188 16.492188 27.917969 17 L 27 17 L 27 19 L 28 19 L 28 21 L 26.855469 21 C 26.40625 19.285156 24.851563 18 23 18 C 21.148438 18 19.59375 19.285156 19.144531 21 L 12.855469 21 C 12.40625 19.285156 10.851563 18 9 18 C 7.148438 18 5.59375 19.285156 5.144531 21 L 4 21 L 4 19 L 5 19 L 5 17 L 4 17 Z M 9 20 C 10.117188 20 11 20.882813 11 22 C 11 23.117188 10.117188 24 9 24 C 7.914063 24 7.058594 23.164063 7.007813 22.089844 C 7.015625 22.03125 7.015625 21.96875 7.007813 21.90625 C 7.058594 20.835938 7.914063 20 9 20 Z M 23 20 C 24.085938 20 24.941406 20.835938 24.988281 21.910156 C 24.984375 21.96875 24.984375 22.03125 24.988281 22.09375 C 24.941406 23.164063 24.085938 24 23 24 C 21.882813 24 21 23.117188 21 22 C 21 20.882813 21.882813 20 23 20 Z M 9 21 C 8.449219 21 8 21.449219 8 22 C 8 22.550781 8.449219 23 9 23 C 9.550781 23 10 22.550781 10 22 C 10 21.449219 9.550781 21 9 21 Z M 23 21 C 22.449219 21 22 21.449219 22 22 C 22 22.550781 22.449219 23 23 23 C 23.550781 23 24 22.550781 24 22 C 24 21.449219 23.550781 21 23 21 Z "></path>
</g>
</svg>
