<?xml version="1.0"?>
<svg xmlns="http://www.w3.org/2000/svg" viewBox="0 0 32 32">
    <path d="M 6 4.5859375 L 0.29296875 10.292969 L 1.7070312 11.707031 L 5 8.4140625 L 5 20 C 5 23.301625 7.6983746 26 11 26 C 14.301625 26 17 23.301625 17 20 L 17 12 C 17 9.7796254 18.779625 8 21 8 C 23.220375 8 25 9.7796254 25 12 L 25 23.585938 L 21.707031 20.292969 L 20.292969 21.707031 L 26 27.414062 L 31.707031 21.707031 L 30.292969 20.292969 L 27 23.585938 L 27 12 C 27 8.6983746 24.301625 6 21 6 C 17.698375 6 15 8.6983746 15 12 L 15 20 C 15 22.220375 13.220375 24 11 24 C 8.7796254 24 7 22.220375 7 20 L 7 8.4140625 L 10.292969 11.707031 L 11.707031 10.292969 L 6 4.5859375 z" font-weight="400" font-family="sans-serif" white-space="normal" overflow="visible"></path>
</svg>
