<?xml version="1.0" encoding="UTF-8"?>
<svg xmlns="http://www.w3.org/2000/svg" xmlns:xlink="http://www.w3.org/1999/xlink" viewBox="0 0 32 32" version="1.1">
<g>
<path d="M 18.125 5 C 14.820313 5 10.960938 5.546875 7.96875 8.5625 C 4.976563 11.578125 3 16.867188 3 26 L 3 27 L 12.65625 27 C 13.644531 27.625 14.757813 28 16 28 C 17.238281 28 18.355469 27.617188 19.34375 27 L 29 27 L 29 26 C 29 17.875 27.429688 13.15625 25.375 10.40625 C 23.566406 7.984375 21.484375 7.3125 19.9375 7.15625 L 19 5.5 L 18.71875 5 Z M 17.5625 7.0625 L 18.375 8.5 L 18.65625 9 L 19.25 9 C 20.261719 9 22.097656 9.339844 23.78125 11.59375 C 25.382813 13.738281 26.800781 17.832031 26.9375 25 L 21.5625 25 C 21.671875 24.859375 21.773438 24.707031 21.875 24.5625 C 23.234375 22.625 24 20.207031 24 18 L 22 18 C 22 19.722656 21.355469 21.828125 20.25 23.40625 C 19.144531 24.984375 17.664063 26 16 26 C 14.335938 26 12.855469 24.988281 11.75 23.40625 C 10.644531 21.824219 10 19.710938 10 18 C 10 16.796875 10.335938 16.410156 11.03125 16.03125 C 11.726563 15.652344 12.882813 15.445313 14.125 15.28125 C 15.367188 15.117188 16.703125 14.996094 17.875 14.4375 C 19.046875 13.878906 20 12.660156 20 11 L 18 11 C 18 12.042969 17.703125 12.289063 17 12.625 C 16.296875 12.960938 15.132813 13.144531 13.875 13.3125 C 12.617188 13.480469 11.273438 13.636719 10.09375 14.28125 C 8.914063 14.925781 8 16.234375 8 18 C 8 20.199219 8.769531 22.589844 10.125 24.53125 C 10.234375 24.6875 10.347656 24.847656 10.46875 25 L 5.0625 25 C 5.214844 16.863281 7.007813 12.351563 9.375 9.96875 C 11.695313 7.628906 14.648438 7.121094 17.5625 7.0625 Z M 11.5625 16.15625 L 10.4375 17.84375 L 12.03125 18.90625 C 12.027344 18.941406 12 18.964844 12 19 C 12 19.550781 12.449219 20 13 20 C 13.550781 20 14 19.550781 14 19 L 14.5625 18.15625 Z M 20.4375 16.15625 L 17.4375 18.15625 L 18 19 C 18 19.550781 18.449219 20 19 20 C 19.550781 20 20 19.550781 20 19 C 20 18.964844 19.972656 18.941406 19.96875 18.90625 L 21.5625 17.84375 Z M 14.5 21 C 13.675781 21 13 21.675781 13 22.5 L 13 23.5 C 13 23.78125 13.21875 24 13.5 24 L 18.46875 24 C 18.753906 24 19 23.78125 19 23.5 L 19 22.4375 C 19 21.644531 18.355469 21 17.5625 21 Z "></path>
</g>
</svg>
