<?xml version="1.0" encoding="UTF-8"?>
<svg xmlns="http://www.w3.org/2000/svg" xmlns:xlink="http://www.w3.org/1999/xlink" viewBox="0 0 32 32" version="1.1">
<g>
<path d="M 18 5 C 14.335938 5 11.554688 5.863281 9.6875 7.625 C 7.820313 9.386719 7 11.957031 7 15 L 7 15.90625 C 6.425781 16.449219 6 17.148438 6 18 C 6 19.257813 6.890625 20.15625 8 20.59375 C 8.371094 21.761719 8.773438 22.988281 9.21875 24.03125 C 9.707031 25.171875 10.144531 26.078125 10.75 26.71875 C 13.621094 29.753906 18.378906 29.753906 21.25 26.71875 C 21.855469 26.078125 22.261719 25.171875 22.75 24.03125 C 23.195313 22.988281 23.628906 21.761719 24 20.59375 C 25.109375 20.15625 26 19.257813 26 18 C 26 17.152344 25.570313 16.453125 25 15.90625 L 25 15 C 25 12.175781 24.355469 10.164063 23.21875 8.84375 C 22.253906 7.722656 20.964844 7.265625 19.6875 7.125 L 18.625 5 Z M 17.40625 7.0625 L 18.09375 8.4375 C 18.425781 9.105469 18.558594 9.578125 18.5625 9.78125 C 18.566406 9.984375 18.574219 9.902344 18.53125 9.9375 C 18.445313 10.011719 17.601563 10.226563 16.5625 10.28125 C 15.523438 10.335938 14.296875 10.308594 13.15625 10.75 C 12.015625 11.191406 11.011719 12.378906 11 14 L 13 14 C 13.007813 13.015625 13.238281 12.871094 13.875 12.625 C 14.511719 12.378906 15.613281 12.304688 16.6875 12.25 C 17.761719 12.195313 18.871094 12.261719 19.8125 11.46875 C 20.28125 11.074219 20.582031 10.390625 20.5625 9.71875 C 20.558594 9.570313 20.523438 9.429688 20.5 9.28125 C 20.933594 9.464844 21.335938 9.746094 21.6875 10.15625 C 22.414063 11 23 12.480469 23 15 L 23 16.84375 L 23.5 17.125 C 23.804688 17.300781 24 17.621094 24 18 C 24 18.535156 23.617188 18.957031 23.09375 19 L 22.40625 19.03125 L 22.21875 19.6875 C 21.847656 20.890625 21.386719 22.160156 20.9375 23.21875 C 20.488281 24.277344 19.972656 25.175781 19.8125 25.34375 C 17.683594 27.59375 14.316406 27.59375 12.1875 25.34375 C 12.027344 25.175781 11.511719 24.277344 11.0625 23.21875 C 10.613281 22.160156 10.152344 20.890625 9.78125 19.6875 L 9.59375 19.03125 L 8.90625 19 C 8.382813 18.957031 8 18.535156 8 18 C 8 17.625 8.191406 17.300781 8.5 17.125 L 9 16.84375 L 9 15 C 9 12.304688 9.683594 10.363281 11.0625 9.0625 C 12.34375 7.851563 14.433594 7.164063 17.40625 7.0625 Z M 11.5625 15.15625 L 10.4375 16.84375 L 12.03125 17.90625 C 12.027344 17.941406 12 17.964844 12 18 C 12 18.550781 12.449219 19 13 19 C 13.550781 19 14 18.550781 14 18 L 14.5625 17.15625 Z M 20.4375 15.15625 L 17.4375 17.15625 L 18 18 C 18 18.550781 18.449219 19 19 19 C 19.550781 19 20 18.550781 20 18 C 20 17.964844 19.972656 17.941406 19.96875 17.90625 L 21.5625 16.84375 Z M 14.5 21 C 13.675781 21 13 21.675781 13 22.5 L 13 23.46875 C 13 23.753906 13.21875 24 13.5 24 L 18.46875 24 C 18.753906 24 19 23.78125 19 23.5 L 19 22.4375 C 19 21.644531 18.355469 21 17.5625 21 Z "></path>
</g>
</svg>
