<?xml version="1.0" encoding="UTF-8"?>
<svg xmlns="http://www.w3.org/2000/svg" xmlns:xlink="http://www.w3.org/1999/xlink" viewBox="0 0 32 32" version="1.1">
<g>
<path d="M 17.25 3.03125 C 16.9375 3.0625 16.628906 3.171875 16.34375 3.4375 L 16.3125 3.4375 L 16.3125 3.46875 L 5.3125 14.5 L 4.59375 15.21875 L 5.3125 15.90625 L 15.09375 25.71875 L 15.8125 26.40625 L 16.53125 25.71875 L 27.53125 14.6875 C 27.542969 14.675781 27.550781 14.667969 27.5625 14.65625 C 28.101563 14.125 28.074219 13.414063 27.9375 12.875 C 27.796875 12.324219 27.523438 11.761719 27.15625 11.15625 C 26.425781 9.945313 25.296875 8.554688 23.875 7.15625 C 22.476563 5.757813 21.058594 4.636719 19.84375 3.90625 C 19.238281 3.542969 18.703125 3.269531 18.15625 3.125 C 17.882813 3.050781 17.5625 3 17.25 3.03125 Z M 17.5625 5.0625 C 17.585938 5.066406 17.578125 5.050781 17.625 5.0625 C 17.875 5.128906 18.308594 5.320313 18.8125 5.625 C 19.824219 6.234375 21.167969 7.261719 22.46875 8.5625 C 23.792969 9.863281 24.832031 11.1875 25.4375 12.1875 C 25.738281 12.6875 25.941406 13.113281 26 13.34375 C 26.003906 13.359375 25.996094 13.363281 26 13.375 L 24.625 14.78125 C 23.417969 14.691406 21.660156 15.5625 20.125 17.0625 C 18.589844 18.5625 17.742188 20.34375 17.84375 21.5625 L 15.8125 23.5625 L 7.4375 15.1875 L 9.46875 13.15625 C 10.675781 13.246094 12.433594 12.40625 13.96875 10.90625 C 15.519531 9.394531 16.367188 7.59375 16.25 6.375 Z M 13 15 L 13 18 L 16 18 Z M 6.5 20 C 5.671875 20 5 20.671875 5 21.5 C 5 22.328125 5.671875 23 6.5 23 C 7.328125 23 8 22.328125 8 21.5 C 8 20.671875 7.328125 20 6.5 20 Z M 8.5 25 C 7.671875 25 7 25.671875 7 26.5 C 7 27.328125 7.671875 28 8.5 28 C 9.328125 28 10 27.328125 10 26.5 C 10 25.671875 9.328125 25 8.5 25 Z "></path>
</g>
</svg>
