<?xml version="1.0" encoding="UTF-8"?>
<svg xmlns="http://www.w3.org/2000/svg" xmlns:xlink="http://www.w3.org/1999/xlink" viewBox="0 0 32 32" version="1.1">
<g>
<path d="M 16 3 C 8.820313 3 3 8.820313 3 16 C 3 22.878906 8.34375 28.492188 15.105469 28.953125 C 15.398438 29.019531 15.695313 29.0625 16 29.0625 C 16.304688 29.0625 16.601563 29.019531 16.894531 28.953125 C 23.65625 28.492188 29 22.878906 29 16 C 29 8.820313 23.179688 3 16 3 Z M 15.5 4.167969 L 15.5 7 L 12.078125 7 C 13.023438 5.421875 14.210938 4.382813 15.5 4.167969 Z M 16.5 4.167969 C 17.789063 4.382813 18.976563 5.421875 19.921875 7 L 16.5 7 Z M 12.839844 4.4375 C 12.105469 5.085938 11.445313 5.953125 10.882813 7 L 8.089844 7 C 9.441406 5.8125 11.054688 4.925781 12.839844 4.4375 Z M 19.160156 4.4375 C 20.941406 4.925781 22.558594 5.8125 23.910156 7 L 21.117188 7 C 20.554688 5.953125 19.894531 5.085938 19.160156 4.4375 Z M 7.078125 8 L 10.40625 8 C 10.011719 8.90625 9.679688 9.910156 9.429688 11 L 5.105469 11 C 5.613281 9.898438 6.28125 8.890625 7.078125 8 Z M 11.546875 8 L 15.5 8 L 15.5 11 L 10.488281 11 C 10.761719 9.902344 11.121094 8.890625 11.546875 8 Z M 16.5 8 L 20.453125 8 C 20.878906 8.890625 21.234375 9.902344 21.511719 11 L 16.5 11 Z M 21.59375 8 L 24.921875 8 C 25.71875 8.890625 26.386719 9.898438 26.894531 11 L 22.566406 11 C 22.320313 9.910156 21.988281 8.90625 21.59375 8 Z M 4.699219 12 L 27.300781 12 C 27.746094 13.253906 28 14.597656 28 16 C 28 17.402344 27.746094 18.746094 27.300781 20 L 4.699219 20 C 4.253906 18.746094 4 17.402344 4 16 C 4 14.597656 4.253906 13.253906 4.699219 12 Z M 8.4375 13.402344 C 8.101563 13.417969 7.804688 13.503906 7.523438 13.671875 C 7.070313 13.941406 6.835938 14.367188 6.828125 14.9375 C 6.824219 15.503906 7.136719 15.828125 7.515625 16.15625 C 7.59375 16.230469 7.679688 16.300781 7.765625 16.367188 C 7.953125 16.515625 8.125 16.65625 8.265625 16.835938 C 8.472656 17.101563 8.535156 17.425781 8.429688 17.703125 C 8.335938 17.953125 8.128906 18.128906 7.859375 18.1875 C 7.585938 18.246094 7.277344 18.21875 7.074219 18.113281 C 6.914063 18.035156 6.78125 17.867188 6.652344 17.707031 C 6.597656 17.644531 6.550781 17.578125 6.496094 17.519531 L 6.398438 17.417969 L 6.359375 17.550781 C 6.261719 17.867188 6.203125 18.085938 6.296875 18.238281 C 6.378906 18.382813 6.566406 18.445313 6.910156 18.515625 C 7.160156 18.570313 7.417969 18.597656 7.671875 18.597656 C 7.800781 18.597656 7.925781 18.59375 8.046875 18.578125 C 8.714844 18.503906 9.238281 18.023438 9.375 17.355469 C 9.511719 16.71875 9.292969 16.199219 8.710938 15.761719 C 8.636719 15.707031 8.558594 15.652344 8.484375 15.59375 C 8.300781 15.464844 8.117188 15.328125 7.953125 15.175781 C 7.773438 15.007813 7.671875 14.789063 7.675781 14.550781 C 7.675781 14.328125 7.769531 14.121094 7.933594 13.96875 C 8.101563 13.816406 8.328125 13.75 8.570313 13.78125 C 8.890625 13.828125 9.191406 14.039063 9.375 14.347656 L 9.445313 14.46875 L 9.535156 14.3125 C 9.609375 14.191406 9.730469 13.984375 9.664063 13.800781 C 9.621094 13.695313 9.527344 13.613281 9.382813 13.5625 C 9.027344 13.445313 8.71875 13.390625 8.4375 13.402344 Z M 15.613281 13.519531 C 15.359375 13.519531 15.261719 13.722656 15.164063 13.984375 C 15.117188 14.101563 14.371094 15.703125 13.984375 16.515625 C 13.9375 16.605469 13.902344 16.671875 13.875 16.71875 C 13.796875 15.832031 13.714844 14.921875 13.625 14.023438 L 13.621094 13.96875 C 13.605469 13.816406 13.585938 13.558594 13.378906 13.558594 C 13.183594 13.558594 13.066406 13.78125 13.015625 13.875 C 12.761719 14.367188 12.515625 14.859375 12.269531 15.355469 C 12.082031 15.726563 11.894531 16.105469 11.703125 16.476563 C 11.660156 16.5625 11.582031 16.679688 11.527344 16.738281 L 11.285156 13.558594 L 10.226563 13.558594 L 10.238281 13.644531 C 10.253906 13.78125 10.273438 13.910156 10.289063 14.035156 C 10.316406 14.246094 10.347656 14.445313 10.363281 14.644531 L 10.449219 15.527344 C 10.527344 16.363281 10.605469 17.199219 10.691406 18.03125 C 10.710938 18.214844 10.769531 18.515625 10.953125 18.515625 C 11.183594 18.515625 11.296875 18.308594 11.375 18.160156 C 11.628906 17.671875 11.882813 17.167969 12.125 16.679688 C 12.277344 16.367188 12.4375 16.050781 12.59375 15.734375 L 12.609375 15.707031 C 12.683594 15.554688 12.730469 15.480469 12.761719 15.441406 C 12.765625 15.460938 12.769531 15.480469 12.769531 15.511719 L 12.839844 16.261719 C 12.890625 16.859375 12.945313 17.480469 12.988281 18.089844 C 13.003906 18.285156 13.0625 18.417969 13.160156 18.484375 C 13.207031 18.511719 13.257813 18.527344 13.316406 18.527344 C 13.367188 18.527344 13.421875 18.511719 13.480469 18.492188 C 13.613281 18.441406 13.6875 18.289063 13.761719 18.140625 L 14.265625 17.09375 C 14.71875 16.15625 15.171875 15.214844 15.621094 14.277344 L 15.707031 14.097656 C 15.773438 13.960938 15.839844 13.816406 15.914063 13.671875 L 15.957031 13.585938 L 15.859375 13.5625 C 15.777344 13.539063 15.699219 13.523438 15.625 13.519531 Z M 21.925781 13.519531 C 21.5 13.519531 21.089844 13.523438 20.6875 13.53125 C 20.300781 13.535156 19.921875 13.539063 19.542969 13.539063 C 19.402344 13.539063 19.289063 13.691406 19.265625 13.796875 C 18.867188 15.328125 18.476563 16.855469 18.078125 18.421875 L 18.054688 18.519531 L 18.398438 18.519531 C 18.5625 18.519531 18.738281 18.519531 18.910156 18.5 C 19.03125 18.488281 19.15625 18.355469 19.183594 18.246094 C 19.246094 17.996094 19.324219 17.652344 19.402344 17.3125 C 19.472656 17 19.542969 16.683594 19.601563 16.453125 C 19.640625 16.289063 19.742188 16.167969 19.90625 16.09375 C 20.277344 15.914063 20.875 16.015625 21.003906 16.074219 L 21.09375 16.109375 L 21.171875 15.777344 C 21.195313 15.667969 21.222656 15.558594 21.242188 15.46875 L 21.265625 15.363281 L 21.160156 15.371094 C 21.003906 15.378906 20.855469 15.386719 20.707031 15.394531 C 20.507813 15.410156 20.316406 15.421875 20.121094 15.429688 C 20.070313 15.433594 19.949219 15.433594 19.921875 15.398438 C 19.914063 15.386719 19.894531 15.351563 19.925781 15.234375 C 19.976563 15.0625 20.007813 14.9375 20.035156 14.824219 C 20.082031 14.632813 20.117188 14.484375 20.21875 14.21875 C 20.269531 14.082031 20.464844 13.921875 20.613281 13.890625 C 21.070313 13.804688 21.425781 13.945313 21.699219 14.3125 L 21.800781 14.453125 L 21.84375 14.285156 C 21.871094 14.167969 21.898438 14.0625 21.921875 13.957031 C 21.949219 13.847656 21.976563 13.738281 22.003906 13.617188 L 22.03125 13.519531 Z M 22.75 13.519531 C 22.269531 13.523438 22.226563 13.601563 22.175781 14.101563 L 22.160156 14.261719 L 22.296875 14.175781 C 22.566406 14.015625 23.03125 14.023438 23.3125 14.136719 C 23.113281 14.867188 22.929688 15.546875 22.75 16.222656 C 22.558594 16.933594 22.367188 17.640625 22.160156 18.402344 L 22.136719 18.5 L 23.234375 18.5 L 23.25 18.4375 C 23.261719 18.355469 23.269531 18.277344 23.277344 18.203125 C 23.289063 18.097656 23.296875 18 23.320313 17.910156 C 23.539063 17.058594 23.792969 16.089844 24.03125 15.171875 L 24.296875 14.15625 C 24.59375 13.957031 25.355469 14.0625 25.46875 14.152344 L 25.566406 14.226563 L 25.75 13.519531 L 25.386719 13.519531 C 24.800781 13.519531 23.433594 13.515625 22.75 13.519531 Z M 16.855469 13.539063 L 16.839844 13.597656 C 16.605469 14.476563 16.375 15.347656 16.148438 16.207031 C 15.953125 16.949219 15.757813 17.683594 15.5625 18.421875 L 15.535156 18.519531 L 15.640625 18.519531 C 15.71875 18.519531 15.800781 18.523438 15.882813 18.527344 C 15.96875 18.527344 16.058594 18.53125 16.144531 18.53125 C 16.234375 18.53125 16.324219 18.53125 16.414063 18.519531 C 16.527344 18.511719 16.675781 18.382813 16.703125 18.265625 C 16.800781 17.886719 16.890625 17.503906 16.980469 17.121094 C 17.0625 16.773438 17.144531 16.425781 17.230469 16.078125 C 17.414063 15.351563 17.625 14.554688 17.871094 13.640625 L 17.894531 13.539063 Z M 5.105469 21 L 9.382813 21 C 9.621094 22.085938 9.9375 23.089844 10.320313 24 L 7.078125 24 C 6.28125 23.109375 5.613281 22.101563 5.105469 21 Z M 10.441406 21 L 15.5 21 L 15.5 24 L 11.453125 24 C 11.042969 23.105469 10.703125 22.09375 10.441406 21 Z M 16.5 21 L 21.558594 21 C 21.296875 22.09375 20.953125 23.105469 20.546875 24 L 16.5 24 Z M 22.613281 21 L 26.894531 21 C 26.386719 22.101563 25.71875 23.109375 24.921875 24 L 21.679688 24 C 22.058594 23.089844 22.378906 22.085938 22.613281 21 Z M 8.089844 25 L 10.78125 25 C 11.292969 25.992188 11.890625 26.835938 12.558594 27.488281 C 10.882813 26.988281 9.371094 26.125 8.089844 25 Z M 11.96875 25 L 15.5 25 L 15.5 27.972656 C 15.421875 27.972656 15.34375 27.96875 15.265625 27.964844 C 14.019531 27.65625 12.878906 26.585938 11.96875 25 Z M 16.5 25 L 20.03125 25 C 19.121094 26.585938 17.980469 27.65625 16.734375 27.964844 C 16.65625 27.96875 16.578125 27.96875 16.5 27.972656 Z M 21.21875 25 L 23.910156 25 C 22.632813 26.125 21.117188 26.988281 19.445313 27.488281 C 20.109375 26.835938 20.707031 25.992188 21.21875 25 Z "></path>
</g>
</svg>
