<?xml version="1.0" encoding="UTF-8"?>
<svg xmlns="http://www.w3.org/2000/svg" xmlns:xlink="http://www.w3.org/1999/xlink" viewBox="0 0 32 32" version="1.1">
<g>
<path d="M 14.5 4 C 12.578125 4 11 5.578125 11 7.5 C 11 9.421875 12.578125 11 14.5 11 C 16.421875 11 18 9.421875 18 7.5 C 18 5.578125 16.421875 4 14.5 4 Z M 21 4.78125 L 19.03125 5.0625 L 19.6875 9.6875 L 16.46875 11.28125 L 12.09375 11.6875 L 11.8125 11.71875 L 11.59375 11.875 L 8.375 14.21875 L 7.96875 14.53125 L 7.96875 19.90625 L 9.96875 19.90625 L 9.96875 15.5625 L 12.09375 14 C 12.015625 18.203125 11.5625 20.335938 11.09375 22 C 10.582031 23.820313 10 25.25 10 28 L 12 28 C 12 25.519531 12.488281 24.460938 13.03125 22.53125 C 13.546875 20.699219 14.074219 18.199219 14.125 13.53125 L 16.0625 13.34375 C 16.3125 15.960938 17.277344 17.742188 18.15625 19.1875 C 19.175781 20.867188 20 22.027344 20 24 L 22 24 C 22 21.4375 20.824219 19.765625 19.84375 18.15625 C 18.953125 16.691406 18.167969 15.214844 18.03125 12.75 L 21.21875 11.125 L 21.875 10.8125 L 21.78125 10.09375 Z M 14.5 6 C 15.339844 6 16 6.660156 16 7.5 C 16 8.339844 15.339844 9 14.5 9 C 13.660156 9 13 8.339844 13 7.5 C 13 6.660156 13.660156 6 14.5 6 Z M 15 20 C 15 21.34375 15.285156 22.445313 15.53125 23.5 C 15.777344 24.554688 16 25.578125 16 27 L 18 27 C 18 25.359375 17.722656 24.105469 17.46875 23.03125 C 17.214844 21.957031 17 21.070313 17 20 Z "></path>
</g>
</svg>
