<?xml version="1.0" encoding="UTF-8"?>
<svg xmlns="http://www.w3.org/2000/svg" xmlns:xlink="http://www.w3.org/1999/xlink" viewBox="0 0 32 32" version="1.1">
<g>
<path d="M 16 4 C 10.519531 4 5.726563 6.730469 3.4375 10.75 C 3.429688 10.761719 3.414063 10.769531 3.40625 10.78125 C 2.519531 12.351563 2 14.121094 2 16 C 2 22.714844 8.363281 28 16 28 C 23.636719 28 30 22.714844 30 16 C 30 14.121094 29.480469 12.351563 28.59375 10.78125 C 28.585938 10.769531 28.570313 10.761719 28.5625 10.75 C 26.273438 6.730469 21.480469 4 16 4 Z M 14.75 6.0625 C 14.832031 6.054688 14.917969 6.066406 15 6.0625 L 15 8.0625 C 13.253906 8.238281 11.664063 8.847656 10.4375 9.8125 C 10.15625 10.035156 9.898438 10.304688 9.65625 10.5625 C 9.027344 10.027344 8.226563 9.667969 7.40625 9.46875 C 7.285156 9.4375 7.15625 9.429688 7.03125 9.40625 C 8.960938 7.585938 11.652344 6.328125 14.75 6.0625 Z M 17 6.0625 C 20.199219 6.28125 22.988281 7.535156 24.96875 9.40625 C 24.84375 9.429688 24.714844 9.4375 24.59375 9.46875 C 23.773438 9.667969 22.972656 10.027344 22.34375 10.5625 C 22.101563 10.304688 21.84375 10.035156 21.5625 9.8125 C 20.335938 8.847656 18.746094 8.238281 17 8.0625 Z M 16 10 C 17.71875 10 19.269531 10.5625 20.34375 11.40625 C 21.417969 12.25 22 13.324219 22 14.5 C 22 15.675781 21.417969 16.75 20.34375 17.59375 C 19.269531 18.4375 17.71875 19 16 19 C 14.28125 19 12.730469 18.4375 11.65625 17.59375 C 10.582031 16.75 10 15.675781 10 14.5 C 10 13.324219 10.582031 12.25 11.65625 11.40625 C 12.730469 10.5625 14.28125 10 16 10 Z M 6.3125 11.3125 C 6.507813 11.316406 6.71875 11.351563 6.9375 11.40625 C 7.546875 11.554688 8.109375 11.933594 8.46875 12.28125 C 8.164063 12.96875 8 13.71875 8 14.5 C 8 16.03125 8.671875 17.410156 9.71875 18.5 C 9.253906 18.769531 8.800781 19.113281 8.375 19.53125 C 7.652344 20.242188 7.003906 21.203125 6.71875 22.3125 C 5.019531 20.578125 4 18.378906 4 16 C 4 14.523438 4.390625 13.117188 5.09375 11.84375 C 5.113281 11.816406 5.136719 11.804688 5.15625 11.78125 C 5.316406 11.566406 5.5 11.449219 5.78125 11.375 C 5.9375 11.335938 6.117188 11.308594 6.3125 11.3125 Z M 25.6875 11.3125 C 25.882813 11.308594 26.0625 11.335938 26.21875 11.375 C 26.53125 11.457031 26.734375 11.570313 26.90625 11.84375 C 27.609375 13.117188 28 14.523438 28 16 C 28 18.378906 26.980469 20.578125 25.28125 22.3125 C 24.996094 21.203125 24.347656 20.242188 23.625 19.53125 C 23.199219 19.113281 22.746094 18.769531 22.28125 18.5 C 23.328125 17.410156 24 16.03125 24 14.5 C 24 13.71875 23.835938 12.96875 23.53125 12.28125 C 23.890625 11.933594 24.453125 11.554688 25.0625 11.40625 C 25.28125 11.351563 25.492188 11.316406 25.6875 11.3125 Z M 11.53125 19.9375 C 12.816406 20.636719 14.355469 21 16 21 C 17.632813 21 19.15625 20.628906 20.4375 19.9375 C 20.503906 19.945313 20.675781 19.933594 20.90625 20.03125 C 21.289063 20.191406 21.789063 20.511719 22.21875 20.9375 C 23.003906 21.710938 23.554688 22.742188 23.40625 23.875 C 21.378906 25.203125 18.8125 26 16 26 C 13.1875 26 10.621094 25.203125 8.59375 23.875 C 8.445313 22.742188 8.996094 21.710938 9.78125 20.9375 C 10.210938 20.511719 10.710938 20.191406 11.09375 20.03125 C 11.285156 19.949219 11.449219 19.945313 11.53125 19.9375 Z "></path>
</g>
</svg>
