<?xml version="1.0" encoding="UTF-8"?>
<svg xmlns="http://www.w3.org/2000/svg" xmlns:xlink="http://www.w3.org/1999/xlink" viewBox="0 0 32 32" version="1.1">
<g>
<path d="M 8 4 C 6.355469 4 5 5.355469 5 7 L 5 28 L 7 28 L 7 7 C 7 6.433594 7.433594 6 8 6 L 10.09375 6 C 10.242188 6.433594 10.566406 6.757813 11 6.90625 L 11 22 L 10.3125 22.75 C 10.3125 22.75 12.679688 25 16 25 C 19.320313 25 21.6875 22.75 21.6875 22.75 L 21 22 L 21 6.90625 C 21.433594 6.757813 21.757813 6.433594 21.90625 6 L 24 6 C 24.566406 6 25 6.433594 25 7 L 25 28 L 27 28 L 27 7 C 27 5.355469 25.644531 4 24 4 Z M 12.90625 6 L 19.09375 6 C 19.242188 6.433594 19.566406 6.757813 20 6.90625 L 20 21.53125 C 19.386719 21.996094 17.855469 23 16 23 C 14.144531 23 12.613281 21.996094 12 21.53125 L 12 6.90625 C 12.433594 6.757813 12.757813 6.433594 12.90625 6 Z "></path>
</g>
</svg>
