<?xml version="1.0" encoding="UTF-8"?>
<svg xmlns="http://www.w3.org/2000/svg" xmlns:xlink="http://www.w3.org/1999/xlink" viewBox="0 0 32 32" version="1.1">
<g>
<path d="M 16 3.75 L 13.75 6 L 7 6 L 7 11 L 15 11 L 15 25 L 8 25 L 8 27 L 24 27 L 24 25 L 17 25 L 17 11 L 25 11 L 25 6 L 18.25 6 Z M 16 6.59375 L 17.40625 8 L 23 8 L 23 9 L 9 9 L 9 8 L 14.59375 8 Z M 7.1875 12 L 5.6875 16.03125 C 4.730469 16.179688 4 17 4 18 C 4 19.105469 4.894531 20 6 20 C 7.105469 20 8 19.105469 8 18 C 8 17.519531 7.8125 17.09375 7.53125 16.75 L 9.3125 12 Z M 11.59375 12 L 10.375 18.09375 C 9.574219 18.355469 9 19.113281 9 20 C 9 21.105469 9.894531 22 11 22 C 12.105469 22 13 21.105469 13 20 C 13 19.398438 12.730469 18.867188 12.3125 18.5 L 13.625 12 Z M 18.375 12 L 19.6875 18.5 C 19.269531 18.867188 19 19.398438 19 20 C 19 21.105469 19.894531 22 21 22 C 22.105469 22 23 21.105469 23 20 C 23 19.113281 22.425781 18.355469 21.625 18.09375 L 20.40625 12 Z M 22.6875 12 L 24.46875 16.75 C 24.1875 17.09375 24 17.519531 24 18 C 24 19.105469 24.894531 20 26 20 C 27.105469 20 28 19.105469 28 18 C 28 17 27.269531 16.179688 26.3125 16.03125 L 24.8125 12 Z "></path>
</g>
</svg>
