<?xml version="1.0" encoding="UTF-8"?>
<svg xmlns="http://www.w3.org/2000/svg" xmlns:xlink="http://www.w3.org/1999/xlink" viewBox="0 0 32 32" version="1.1">
<g>
<path d="M 16 5 L 12 9 L 15 9 L 15 13.09375 C 12.164063 13.570313 10 16.035156 10 19 C 10 22.300781 12.699219 25 16 25 C 19.300781 25 22 22.300781 22 19 C 22 16.035156 19.835938 13.570313 17 13.09375 L 17 9 L 20 9 Z M 16 15 C 18.222656 15 20 16.777344 20 19 C 20 21.222656 18.222656 23 16 23 C 13.777344 23 12 21.222656 12 19 C 12 16.777344 13.777344 15 16 15 Z "></path>
</g>
</svg>
