<?xml version="1.0" encoding="UTF-8"?>
<svg xmlns="http://www.w3.org/2000/svg" xmlns:xlink="http://www.w3.org/1999/xlink" viewBox="0 0 32 32" version="1.1">
<g>
<path d="M 19 10 C 16.035156 10 13.570313 12.164063 13.09375 15 L 9 15 L 9 12 L 5 16 L 9 20 L 9 17 L 13.09375 17 C 13.570313 19.835938 16.035156 22 19 22 C 22.300781 22 25 19.300781 25 16 C 25 12.699219 22.300781 10 19 10 Z M 19 12 C 21.222656 12 23 13.777344 23 16 C 23 18.222656 21.222656 20 19 20 C 16.777344 20 15 18.222656 15 16 C 15 13.777344 16.777344 12 19 12 Z "></path>
</g>
</svg>
