<?xml version="1.0" encoding="UTF-8"?>
<svg xmlns="http://www.w3.org/2000/svg" xmlns:xlink="http://www.w3.org/1999/xlink" viewBox="0 0 32 32" version="1.1">
<g>
<path d="M 13 10 C 9.699219 10 7 12.699219 7 16 C 7 19.300781 9.699219 22 13 22 C 15.964844 22 18.429688 19.835938 18.90625 17 L 23 17 L 23 20 L 27 16 L 23 12 L 23 15 L 18.90625 15 C 18.429688 12.164063 15.964844 10 13 10 Z M 13 12 C 15.222656 12 17 13.777344 17 16 C 17 18.222656 15.222656 20 13 20 C 10.777344 20 9 18.222656 9 16 C 9 13.777344 10.777344 12 13 12 Z "></path>
</g>
</svg>
