<?xml version="1.0" encoding="UTF-8"?>
<svg xmlns="http://www.w3.org/2000/svg" xmlns:xlink="http://www.w3.org/1999/xlink" viewBox="0 0 32 32" version="1.1">
<g>
<path d="M 15.96875 4 C 13.234375 4 11 6.234375 11 8.96875 L 11 7 L 9 7 L 9 5 L 4.03125 5 L 4 5.96875 C 4 5.96875 3.988281 6.703125 4.0625 7.5625 C 4.132813 8.410156 4.214844 9.394531 4.78125 10.25 L 4.8125 10.28125 C 5.132813 10.753906 5.582031 11.191406 6.25 11.84375 C 6.917969 12.496094 7.742188 13.242188 8.53125 13.96875 C 9.796875 15.132813 10.574219 15.804688 11 16.1875 L 10.96875 22.53125 L 7.90625 19.46875 C 8.15625 19.300781 8.375 19.105469 8.53125 18.875 C 9 18.1875 9 17.484375 9 17 L 7 17 C 7 17.390625 6.9375 17.6875 6.875 17.78125 C 6.828125 17.847656 6.769531 17.925781 6.46875 17.96875 C 6.464844 17.964844 6.441406 17.972656 6.4375 17.96875 C 5.882813 17.300781 5.949219 16.910156 6.09375 16.53125 C 6.261719 16.09375 6.625 15.78125 6.625 15.78125 L 5.375 14.21875 C 5.375 14.21875 4.636719 14.800781 4.25 15.8125 C 3.863281 16.824219 3.964844 18.402344 5.28125 19.71875 L 11.28125 25.71875 C 11.984375 27.628906 13.828125 29 15.96875 29 L 16 29 C 18.734375 29 20.96875 26.765625 20.96875 24.03125 L 20.96875 17.3125 L 21.1875 17.59375 L 21.21875 17.625 C 22.429688 19.097656 23.867188 19.703125 24.96875 19.875 C 26.070313 20.046875 26.9375 19.8125 26.9375 19.8125 L 28.03125 19.5 L 27.5625 18.4375 L 25.90625 14.59375 L 25.875 14.5 L 25.8125 14.40625 L 20.6875 7.34375 C 20.007813 5.40625 18.195313 4 16.03125 4 Z M 15.96875 6 L 16.03125 6 C 17.675781 6 19 7.328125 19 8.96875 L 18.96875 24.03125 C 18.96875 25.675781 17.640625 27 16 27 L 15.96875 27 C 14.328125 27 12.96875 25.671875 12.96875 24.03125 L 13 8.96875 C 13 7.328125 14.328125 6 15.96875 6 Z M 6.03125 7 L 7 7 L 7 9 L 9 9 L 9 11 L 11 11 L 11 13.5 C 10.519531 13.0625 10.449219 13.027344 9.875 12.5 C 9.09375 11.78125 8.296875 11.03125 7.65625 10.40625 C 7.015625 9.78125 6.46875 9.203125 6.4375 9.15625 C 6.316406 8.976563 6.09375 8.109375 6.03125 7.375 C 6.015625 7.171875 6.039063 7.175781 6.03125 7 Z M 21 11.1875 L 24.15625 15.5625 L 24.1875 15.59375 L 25.15625 17.875 C 24.484375 17.75 23.65625 17.417969 22.8125 16.40625 C 22.800781 16.390625 22.792969 16.390625 22.78125 16.375 L 21 14 Z M 15 21 L 15 22 L 14 22 L 14 24 L 15 24 L 15 25 L 17 25 L 17 24 L 18 24 L 18 22 L 17 22 L 17 21 Z "></path>
</g>
</svg>
