<?xml version="1.0" encoding="UTF-8"?>
<svg xmlns="http://www.w3.org/2000/svg" xmlns:xlink="http://www.w3.org/1999/xlink" viewBox="0 0 32 32" version="1.1">
<g>
<path d="M 11.5 6 L 11.1875 6.40625 L 10 8 L 3 8 L 3 26 L 29 26 L 29 8 L 22 8 L 20.8125 6.40625 L 20.5 6 Z M 12.5 8 L 19.5 8 L 20.6875 9.59375 L 21 10 L 27 10 L 27 24 L 5 24 L 5 10 L 11 10 L 11.3125 9.59375 Z M 16 11 C 13 11 10.59375 13.199219 10.09375 16 L 12.09375 16 C 12.492188 14.300781 14.101563 13 16 13 C 17.304688 13 18.542969 13.664063 19.28125 14.71875 L 18 16 L 22 16 L 22 12 L 20.71875 13.28125 C 19.605469 11.867188 17.890625 11 16 11 Z M 10 18 L 10 22 L 11.28125 20.71875 C 12.394531 22.132813 14.109375 23 16 23 C 19 23 21.40625 20.800781 21.90625 18 L 19.90625 18 C 19.507813 19.699219 17.898438 21 16 21 C 14.695313 21 13.457031 20.335938 12.71875 19.28125 L 14 18 Z "></path>
</g>
</svg>
