<?xml version="1.0" encoding="UTF-8"?>
<svg xmlns="http://www.w3.org/2000/svg" xmlns:xlink="http://www.w3.org/1999/xlink" viewBox="0 0 32 32" version="1.1">
<g>
<path d="M 23 3 C 21.460938 3 19.917969 3.582031 18.75 4.75 C 18.253906 5.246094 17.871094 5.8125 17.59375 6.40625 C 17.308594 6.355469 17.007813 6.3125 16.71875 6.3125 C 15.4375 6.3125 14.160156 6.808594 13.1875 7.78125 L 11.71875 9.21875 L 11.03125 9.9375 L 22.0625 20.96875 L 22.78125 20.28125 L 24.21875 18.8125 C 25.410156 17.621094 25.863281 15.957031 25.59375 14.40625 C 26.1875 14.128906 26.753906 13.746094 27.25 13.25 C 29.585938 10.914063 29.585938 7.085938 27.25 4.75 C 26.082031 3.582031 24.539063 3 23 3 Z M 23 4.96875 C 24.019531 4.96875 25.058594 5.371094 25.84375 6.15625 C 27.414063 7.726563 27.414063 10.242188 25.84375 11.8125 C 25.550781 12.105469 25.203125 12.347656 24.84375 12.53125 C 24.660156 12.253906 24.460938 11.992188 24.21875 11.75 L 20.25 7.78125 C 20.007813 7.539063 19.746094 7.339844 19.46875 7.15625 C 19.652344 6.796875 19.894531 6.449219 20.1875 6.15625 C 20.972656 5.371094 21.980469 4.96875 23 4.96875 Z M 16.71875 8.28125 C 17.484375 8.28125 18.253906 8.597656 18.84375 9.1875 L 22.8125 13.15625 C 23.992188 14.335938 23.992188 16.226563 22.8125 17.40625 L 22.0625 18.15625 L 13.84375 9.9375 L 14.34375 9.40625 L 14.59375 9.1875 C 15.183594 8.597656 15.953125 8.28125 16.71875 8.28125 Z M 9.9375 11.03125 L 9.21875 11.71875 L 7.78125 13.1875 C 6.589844 14.378906 6.136719 16.042969 6.40625 17.59375 C 5.8125 17.871094 5.246094 18.253906 4.75 18.75 C 2.414063 21.085938 2.414063 24.914063 4.75 27.25 C 7.085938 29.585938 10.914063 29.585938 13.25 27.25 C 13.746094 26.753906 14.128906 26.1875 14.40625 25.59375 C 15.957031 25.863281 17.621094 25.410156 18.8125 24.21875 L 20.28125 22.78125 L 20.96875 22.0625 Z M 9.9375 13.84375 L 18.15625 22.0625 L 17.40625 22.8125 C 16.226563 23.992188 14.335938 23.992188 13.15625 22.8125 L 9.1875 18.84375 C 8.007813 17.664063 8.007813 15.773438 9.1875 14.59375 Z M 7.15625 19.46875 C 7.339844 19.746094 7.539063 20.007813 7.78125 20.25 L 11.75 24.21875 C 11.992188 24.460938 12.253906 24.660156 12.53125 24.84375 C 12.347656 25.203125 12.105469 25.550781 11.8125 25.84375 C 10.242188 27.414063 7.726563 27.414063 6.15625 25.84375 C 4.585938 24.273438 4.585938 21.757813 6.15625 20.1875 C 6.449219 19.894531 6.796875 19.652344 7.15625 19.46875 Z "></path>
</g>
</svg>
