<?xml version="1.0" encoding="UTF-8"?>
<svg xmlns="http://www.w3.org/2000/svg" xmlns:xlink="http://www.w3.org/1999/xlink" viewBox="0 0 32 32" version="1.1">
<g>
<path d="M 28.1875 3.8125 L 26.84375 4 L 21.5625 4.78125 L 21.15625 4.8125 L 20.90625 5.125 L 10.375 17.78125 L 8.875 16.28125 L 7.46875 17.71875 L 9.09375 19.34375 L 6.4375 22.46875 L 5.71875 21.75 L 4.28125 23.15625 L 8.84375 27.71875 L 10.25 26.28125 L 9.53125 25.5625 L 12.65625 22.90625 L 14.28125 24.53125 L 15.71875 23.125 L 14.21875 21.625 L 26.875 11.09375 L 27.1875 10.84375 L 27.21875 10.4375 L 28 5.15625 Z M 25.8125 6.1875 L 25.3125 9.78125 L 12.78125 20.1875 L 11.8125 19.21875 L 22.21875 6.6875 Z M 10.53125 20.75 L 11.25 21.46875 L 8.09375 24.125 L 7.875 23.90625 Z "></path>
</g>
</svg>
