<?xml version="1.0" encoding="UTF-8"?>
<svg xmlns="http://www.w3.org/2000/svg" xmlns:xlink="http://www.w3.org/1999/xlink" viewBox="0 0 32 32" version="1.1">
<g>
<path d="M 2 6 L 2 24 L 15 24 L 15 26 L 10 26 L 10 28 L 22 28 L 22 26 L 17 26 L 17 24 L 30 24 L 30 6 Z M 4 8 L 28 8 L 28 22 L 4 22 Z M 13.125 8.5 L 10.375 14 L 5 14 L 5 16 L 11.625 16 L 12.875 13.5 L 15.0625 19.34375 L 15.71875 21.0625 L 16.8125 19.59375 L 19.5 16 L 24 16 L 24 14 L 18.5 14 L 18.1875 14.40625 L 16.28125 16.9375 L 13.9375 10.65625 Z "></path>
</g>
</svg>
