<?xml version="1.0"?>
<svg xmlns="http://www.w3.org/2000/svg" viewBox="0 0 32 32">
    <path d="M 5 5 C 3.3550302 5 2 6.3550302 2 8 L 2 14 L 4 14 L 4 8 C 4 7.4349698 4.4349698 7 5 7 L 27 7 C 27.56503 7 28 7.4349698 28 8 L 28 24 C 28 24.56503 27.56503 25 27 25 L 17 25 L 17 27 L 27 27 C 28.64497 27 30 25.64497 30 24 L 30 8 C 30 6.3550302 28.64497 5 27 5 L 5 5 z M 16 11 L 16 14 L 18 14 L 18 11 L 16 11 z M 21.242188 12.34375 L 19.292969 14.292969 L 20.707031 15.707031 L 22.65625 13.757812 L 21.242188 12.34375 z M 12.828125 12.414062 L 11.414062 13.828125 L 13.292969 15.707031 L 14.707031 14.292969 L 12.828125 12.414062 z M 6.6113281 13.964844 L 3.0703125 17.503906 L 3.0664062 17.507812 C 3.0664062 17.507812 2.1939446 18.385775 1.8125 19.763672 C 1.4310554 21.141569 1.6363048 23.134352 3.4199219 24.917969 C 4.8147269 26.312773 6.1858647 26.855554 7.3183594 26.929688 L 7.3183594 26.986328 L 14 26.986328 L 14 24.986328 L 11.146484 24.986328 L 17.566406 18.566406 L 16.152344 17.152344 L 8.7480469 24.556641 C 8.7480469 24.556641 8.4536589 24.847511 7.828125 24.931641 C 7.2026078 25.015764 6.2469378 24.914907 4.8339844 23.501953 C 3.4746014 22.14257 3.508429 21.134228 3.7402344 20.296875 C 3.9720397 19.459522 4.4960938 18.908203 4.4960938 18.908203 L 8.0253906 15.378906 L 6.6113281 13.964844 z M 9.4394531 15.380859 L 6.6113281 18.207031 L 8.0253906 19.623047 L 10.853516 16.794922 L 9.4394531 15.380859 z M 12.267578 16.792969 L 8.7324219 20.330078 L 10.146484 21.744141 L 13.681641 18.208984 L 12.267578 16.792969 z M 21 17 L 21 19 L 24 19 L 24 17 L 21 17 z M 20.707031 20.292969 L 19.292969 21.707031 L 21.242188 23.65625 L 22.65625 22.242188 L 20.707031 20.292969 z" font-weight="400" font-family="sans-serif" white-space="normal" overflow="visible"></path>
</svg>
