<?xml version="1.0" encoding="UTF-8"?>
<svg xmlns="http://www.w3.org/2000/svg" xmlns:xlink="http://www.w3.org/1999/xlink" viewBox="0 0 32 32" version="1.1">
<g>
<path d="M 14.71875 4.09375 L 13.875 5.90625 L 20.6875 9 L 7 9 C 5.355469 9 4 10.355469 4 12 L 4 26 L 6 26 L 6 25 L 26 25 L 26 26 L 28 26 L 28 12 C 28 10.605469 27.019531 9.421875 25.71875 9.09375 Z M 7 11 L 25 11 C 25.554688 11 26 11.445313 26 12 L 26 23 L 6 23 L 6 12 C 6 11.445313 6.445313 11 7 11 Z M 8 13 L 8 15 L 16.5625 15 C 16.378906 15.3125 16.253906 15.644531 16.15625 16 L 8 16 L 8 18 L 16.15625 18 C 16.25 18.359375 16.378906 18.6875 16.5625 19 L 8 19 L 8 21 L 20 21 C 22.199219 21 24 19.199219 24 17 C 24 14.800781 22.199219 13 20 13 Z M 20 15 C 21.117188 15 22 15.882813 22 17 C 22 18.117188 21.117188 19 20 19 C 18.882813 19 18 18.117188 18 17 C 18 15.882813 18.882813 15 20 15 Z "></path>
</g>
</svg>
