<?xml version="1.0"?>
<svg xmlns="http://www.w3.org/2000/svg" viewBox="0 0 32 32">
    <path d="M 5 4 C 3.346 4 2 5.346 2 7 L 2 21 C 2 22.654 3.346 24 5 24 L 8.7578125 24 L 6.7578125 22 L 5 22 C 4.448 22 4 21.551 4 21 L 4 7 C 4 6.449 4.448 6 5 6 L 27 6 C 27.552 6 28 6.449 28 7 L 28 21 C 28 21.551 27.552 22 27 22 L 25.998047 22 L 25.998047 22.998047 C 25.995047 23.317047 25.96225 23.655 25.90625 24 L 27 24 C 28.654 24 30 22.654 30 21 L 30 7 C 30 5.346 28.654 4 27 4 L 5 4 z M 10 7 L 6 10 L 10 13 L 10 11 L 22 11 L 22 13 L 26 10 L 22 7 L 22 9 L 10 9 L 10 7 z M 12.998047 13 L 12.998047 22.583984 L 10.980469 20.566406 L 9.5664062 21.980469 L 14.291016 26.705078 L 14.330078 26.666016 C 15.183588 27.413813 16.537306 27.998047 18.509766 27.998047 C 21.032228 27.998047 22.586428 26.734265 23.291016 25.490234 C 23.995604 24.246204 23.998047 23.007812 23.998047 23.007812 L 23.998047 23.003906 L 23.998047 17.998047 L 21.998047 17.998047 L 21.998047 22.986328 C 21.998047 22.986328 21.978947 23.74989 21.550781 24.505859 C 21.122619 25.261829 20.432303 25.998047 18.509766 25.998047 C 16.511687 25.998047 15.763713 25.392399 15.380859 24.890625 C 14.998006 24.388851 14.998047 23.976565 14.998047 23.976562 L 14.998047 13 L 12.998047 13 z M 15.998047 13 L 15.998047 20.998047 L 17.998047 20.998047 L 17.998047 13 L 15.998047 13 z M 18.998047 16.998047 L 18.998047 20.998047 L 20.998047 20.998047 L 20.998047 16.998047 L 18.998047 16.998047 z"></path>
</svg>
