<?xml version="1.0" encoding="UTF-8"?>
<svg xmlns="http://www.w3.org/2000/svg" xmlns:xlink="http://www.w3.org/1999/xlink" viewBox="0 0 32 32" version="1.1">
<g>
<path d="M 16 6 C 15.007813 6 14.101563 6.265625 13.34375 6.78125 C 12.820313 7.15625 12.101563 7.40625 11.34375 7.40625 C 9.652344 7.40625 8.203125 8.234375 7.5625 9.40625 C 7.328125 9.828125 6.867188 10.15625 6.34375 10.25 C 4.363281 10.625 3.1875 11.953125 3.1875 13.5 C 3.1875 13.6875 3.191406 13.90625 3.25 14.09375 C 3.367188 14.703125 3.246094 15.3125 2.78125 15.78125 C 2.140625 16.484375 1.859375 17.390625 2.09375 18.375 C 2.25 18.910156 2.566406 19.4375 3 19.84375 C 3 19.898438 3 19.945313 3 20 L 3 23 C 3 24.644531 4.355469 26 6 26 L 26 26 C 27.644531 26 29 24.644531 29 23 L 29 20 C 29 19.945313 29 19.898438 29 19.84375 C 29.609375 19.257813 30 18.535156 30 17.71875 C 30 16.96875 29.710938 16.3125 29.1875 15.75 C 28.722656 15.28125 28.605469 14.671875 28.78125 14.0625 C 28.839844 13.921875 28.84375 13.6875 28.84375 13.5 C 28.84375 11.953125 27.675781 10.6875 25.8125 10.3125 C 25.171875 10.171875 24.699219 9.84375 24.40625 9.375 C 23.765625 8.203125 22.378906 7.40625 20.6875 7.40625 C 19.929688 7.40625 19.210938 7.15625 18.6875 6.78125 C 17.929688 6.265625 16.992188 6 16 6 Z M 16 9 C 22.085938 9 27 13.914063 27 20 L 27 23 C 27 23.566406 26.566406 24 26 24 L 6 24 C 5.433594 24 5 23.566406 5 23 L 5 20 C 5 13.914063 9.914063 9 16 9 Z M 10 17 C 9.449219 17 9 17.449219 9 18 C 9 18.550781 9.449219 19 10 19 C 10.550781 19 11 18.550781 11 18 C 11 17.449219 10.550781 17 10 17 Z M 8 20 C 7.449219 20 7 20.449219 7 21 C 7 21.550781 7.449219 22 8 22 C 8.550781 22 9 21.550781 9 21 C 9 20.449219 8.550781 20 8 20 Z M 12 20 C 11.449219 20 11 20.449219 11 21 C 11 21.550781 11.449219 22 12 22 C 12.550781 22 13 21.550781 13 21 C 13 20.449219 12.550781 20 12 20 Z "></path>
</g>
</svg>
