<?xml version="1.0" encoding="UTF-8"?>
<svg xmlns="http://www.w3.org/2000/svg" xmlns:xlink="http://www.w3.org/1999/xlink" viewBox="0 0 32 32" version="1.1">
<g>
<path d="M 3.78125 5 L 3.78125 6 C 3.78125 8.449219 4.933594 10.5 6.65625 11.875 C 8.117188 13.042969 9.972656 13.746094 11.9375 13.9375 C 11.820313 18.148438 11.390625 21.535156 11.15625 23 L 13.1875 23 C 13.484375 21.097656 14 17.082031 14 12 L 13 12 C 11.070313 12 9.226563 11.367188 7.90625 10.3125 C 6.960938 9.558594 6.40625 8.558594 6.09375 7.40625 C 6.238281 7.441406 6.179688 7.4375 6.34375 7.46875 C 7.675781 7.734375 9.785156 8 13 8 C 14.640625 8 15.03125 9.34375 15.03125 9.34375 L 15.25 10 L 16.71875 10 L 16.96875 9.34375 C 16.96875 9.34375 17.359375 8 19 8 C 23.101563 8 25.335938 7.625 26.75 7.3125 C 26.386719 8.464844 25.722656 9.496094 24.59375 10.28125 C 23.042969 11.363281 20.929688 12 19 12 L 18 12 C 18 17.082031 18.515625 21.097656 18.8125 23 L 20.84375 23 C 20.609375 21.554688 20.179688 18.195313 20.0625 13.9375 C 22.074219 13.757813 24.109375 13.082031 25.75 11.9375 C 27.683594 10.589844 29.125 8.515625 29.125 6 L 29.125 5 L 27.875 5 L 27.71875 5.0625 C 27.71875 5.0625 25.222656 6 19 6 C 17.582031 6 16.59375 6.648438 15.96875 7.3125 C 15.34375 6.65625 14.394531 6 13 6 C 9.890625 6 7.894531 5.765625 6.71875 5.53125 C 5.542969 5.296875 5.28125 5.125 5.28125 5.125 L 5.0625 5 Z M 6 25 C 6 25.058594 5.917969 25.316406 5.5625 25.5625 C 5.207031 25.808594 4.636719 26 4 26 L 4 28 C 5.035156 28 5.960938 27.691406 6.6875 27.1875 C 6.800781 27.109375 6.894531 27.027344 7 26.9375 C 7.101563 27.023438 7.203125 27.113281 7.3125 27.1875 C 8.035156 27.691406 8.960938 28 10 28 C 11.035156 28 11.960938 27.691406 12.6875 27.1875 C 12.800781 27.109375 12.894531 27.027344 13 26.9375 C 13.101563 27.023438 13.203125 27.113281 13.3125 27.1875 C 14.035156 27.691406 14.960938 28 16 28 C 17.035156 28 17.960938 27.691406 18.6875 27.1875 C 18.800781 27.109375 18.894531 27.027344 19 26.9375 C 19.101563 27.023438 19.203125 27.113281 19.3125 27.1875 C 20.035156 27.691406 20.960938 28 22 28 C 23.035156 28 23.960938 27.691406 24.6875 27.1875 C 24.800781 27.109375 24.894531 27.027344 25 26.9375 C 25.101563 27.023438 25.203125 27.113281 25.3125 27.1875 C 26.035156 27.691406 26.960938 28 28 28 L 28 26 C 27.367188 26 26.796875 25.8125 26.4375 25.5625 C 26.078125 25.3125 26 25.042969 26 25 L 24 25 C 24 25.058594 23.917969 25.316406 23.5625 25.5625 C 23.207031 25.808594 22.636719 26 22 26 C 21.367188 26 20.796875 25.8125 20.4375 25.5625 C 20.078125 25.3125 20 25.042969 20 25 L 18 25 C 18 25.058594 17.917969 25.316406 17.5625 25.5625 C 17.207031 25.808594 16.636719 26 16 26 C 15.367188 26 14.796875 25.8125 14.4375 25.5625 C 14.078125 25.3125 14 25.042969 14 25 L 12 25 C 12 25.058594 11.917969 25.316406 11.5625 25.5625 C 11.207031 25.808594 10.636719 26 10 26 C 9.367188 26 8.796875 25.8125 8.4375 25.5625 C 8.078125 25.3125 8 25.042969 8 25 Z "></path>
</g>
</svg>
