<?xml version="1.0" encoding="UTF-8"?>
<svg xmlns="http://www.w3.org/2000/svg" xmlns:xlink="http://www.w3.org/1999/xlink" viewBox="0 0 32 32" version="1.1">
<g>
<path d="M 13.3125 1 L 13.0625 1.65625 L 12.78125 2.40625 C 12.257813 2.539063 9.605469 3.21875 7.59375 4.09375 L 7 4.34375 L 7 5 C 6.949219 6.15625 7.089844 7.207031 7.28125 8.0625 C 7.351563 8.378906 7.417969 8.675781 7.5 8.9375 C 7.503906 8.945313 7.496094 8.960938 7.5 8.96875 C 7.796875 10.136719 8.183594 11.160156 8.5625 12.09375 C 9.324219 13.960938 10 15.421875 10 17 C 10 18.492188 9 19.59375 9 25 L 9 26 L 23 26 L 23 25 C 23 19.59375 22 18.492188 22 17 C 22 15.421875 22.675781 13.960938 23.4375 12.09375 C 24.191406 10.238281 24.988281 8 25 5.0625 C 25 5.050781 25 5.042969 25 5.03125 C 25 5.019531 25 5.011719 25 5 L 25 4.34375 L 24.40625 4.09375 C 22.394531 3.21875 19.742188 2.539063 19.21875 2.40625 L 18.9375 1.65625 L 18.6875 1 Z M 14.6875 3 L 17.3125 3 L 17.53125 3.59375 L 17.71875 4.0625 L 18.21875 4.21875 C 18.21875 4.21875 20.976563 4.96875 22.90625 5.6875 C 22.875 6.246094 22.828125 6.773438 22.75 7.28125 C 22.6875 7.613281 22.632813 7.960938 22.5625 8.21875 C 22.554688 8.261719 22.539063 8.304688 22.53125 8.34375 C 22.339844 9.027344 22.144531 9.457031 22.125 9.5 C 22.125 9.503906 22.09375 9.5625 22.09375 9.5625 C 22.054688 9.644531 21.847656 10 20.9375 10 L 18 10 C 17.234375 10 16.84375 9.4375 16.84375 9.4375 L 16.5625 9 L 15.4375 9 L 15.15625 9.4375 C 15.15625 9.4375 14.765625 10 14 10 L 11.0625 10 C 10.046875 10 9.875 9.5 9.875 9.5 C 9.875 9.5 9.742188 9.246094 9.59375 8.875 C 9.578125 8.839844 9.578125 8.789063 9.5625 8.75 C 9.324219 7.820313 9.152344 6.800781 9.09375 5.6875 C 11.023438 4.96875 13.78125 4.21875 13.78125 4.21875 L 14.28125 4.0625 L 14.46875 3.59375 Z M 16 11.3125 C 16.472656 11.65625 17.128906 12 18 12 L 20.9375 12 C 21.066406 12 21.191406 11.980469 21.3125 11.96875 C 20.652344 13.558594 20 15.125 20 17 C 20 18.996094 20.746094 20.097656 20.90625 24 L 11.09375 24 C 11.253906 20.097656 12 18.996094 12 17 C 12 15.125 11.347656 13.558594 10.6875 11.96875 C 10.808594 11.980469 10.933594 12 11.0625 12 L 14 12 C 14.871094 12 15.527344 11.660156 16 11.3125 Z M 15 27 L 15 31 L 17 31 L 17 27 Z "></path>
</g>
</svg>
