<?xml version="1.0" encoding="UTF-8"?>
<svg xmlns="http://www.w3.org/2000/svg" xmlns:xlink="http://www.w3.org/1999/xlink" viewBox="0 0 32 32" version="1.1">
<g>
<path d="M 14.09375 1 L 13.8125 1.5625 L 13.40625 2.4375 C 12.933594 2.570313 10.566406 3.234375 8.59375 4.09375 L 8 4.34375 L 8 5 C 8 5.367188 8.027344 5.714844 8.0625 6.0625 C 8.085938 6.289063 8.121094 6.53125 8.15625 6.75 C 8.199219 7.011719 8.257813 7.257813 8.3125 7.5 C 8.316406 7.519531 8.308594 7.542969 8.3125 7.5625 C 8.34375 7.6875 8.375 7.820313 8.40625 7.9375 C 8.476563 8.207031 8.570313 8.460938 8.65625 8.71875 C 8.789063 9.125 8.941406 9.527344 9.09375 9.90625 C 9.265625 10.332031 9.417969 10.738281 9.59375 11.125 C 10.359375 12.804688 11 14.171875 11 15 C 11 15.191406 10.933594 15.386719 10.6875 15.78125 C 10.441406 16.175781 10.035156 16.699219 9.625 17.4375 C 8.804688 18.910156 8 21.175781 8 25 L 8 26 L 24 26 L 24 25 C 24 21.175781 23.195313 18.910156 22.375 17.4375 C 21.964844 16.699219 21.558594 16.175781 21.3125 15.78125 C 21.066406 15.386719 21 15.191406 21 15 C 21 14.171875 21.640625 12.804688 22.40625 11.125 C 22.839844 10.175781 23.28125 9.117188 23.59375 7.9375 C 23.625 7.820313 23.65625 7.6875 23.6875 7.5625 C 23.691406 7.542969 23.683594 7.519531 23.6875 7.5 C 23.742188 7.257813 23.800781 7.011719 23.84375 6.75 C 23.863281 6.628906 23.890625 6.496094 23.90625 6.375 C 23.921875 6.269531 23.925781 6.171875 23.9375 6.0625 C 23.972656 5.714844 24 5.367188 24 5 L 24 4.34375 L 23.40625 4.09375 C 21.433594 3.234375 19.066406 2.570313 18.59375 2.4375 L 18.1875 1.5625 L 17.90625 1 Z M 15.375 3 L 16.625 3 L 16.9375 3.65625 L 17.125 4.0625 L 17.59375 4.1875 C 17.59375 4.1875 20.039063 4.9375 21.90625 5.65625 C 21.839844 6.492188 21.667969 7.292969 21.4375 8.0625 C 21.433594 8.070313 21.441406 8.085938 21.4375 8.09375 C 21.410156 8.179688 21.371094 8.257813 21.34375 8.34375 C 21.109375 9.007813 20.90625 9.46875 20.90625 9.46875 L 20.875 9.5 C 20.46875 10.394531 19.996094 10.714844 19.625 10.875 C 19.253906 11.035156 19.0625 11 19.0625 11 L 19 11 C 18.574219 11 18 10.453125 18 10 L 16 10 C 16 11.644531 17.332031 12.929688 18.9375 12.96875 C 18.941406 12.96875 18.933594 13 18.9375 13 C 18.9375 13 18.996094 13 19 13 C 19.027344 13 19.1875 13 19.4375 12.96875 C 19.199219 13.632813 19 14.296875 19 15 C 19 15.734375 19.308594 16.339844 19.625 16.84375 C 19.941406 17.347656 20.285156 17.796875 20.625 18.40625 C 21.222656 19.480469 21.769531 21.226563 21.90625 24 L 10.09375 24 C 10.230469 21.226563 10.777344 19.480469 11.375 18.40625 C 11.714844 17.796875 12.058594 17.347656 12.375 16.84375 C 12.691406 16.339844 13 15.734375 13 15 C 13 14.296875 12.800781 13.632813 12.5625 12.96875 C 12.8125 13 12.972656 13 13 13 C 13.003906 13 13.0625 13 13.0625 13 C 13.066406 13 13.058594 12.96875 13.0625 12.96875 C 14.667969 12.929688 16 11.644531 16 10 L 14 10 C 14 10.457031 13.425781 11 13 11 L 12.9375 11 C 12.9375 11 12.746094 11.035156 12.375 10.875 C 12.003906 10.714844 11.53125 10.394531 11.125 9.5 L 11.09375 9.46875 C 11.09375 9.46875 10.890625 9.007813 10.65625 8.34375 C 10.621094 8.242188 10.597656 8.175781 10.5625 8.0625 C 10.332031 7.292969 10.160156 6.492188 10.09375 5.65625 C 11.960938 4.9375 14.40625 4.1875 14.40625 4.1875 L 14.875 4.0625 L 15.0625 3.65625 Z M 15 27 L 15 31 L 17 31 L 17 27 Z "></path>
</g>
</svg>
