<?xml version="1.0" encoding="UTF-8"?>
<svg xmlns="http://www.w3.org/2000/svg" xmlns:xlink="http://www.w3.org/1999/xlink" viewBox="0 0 32 32" version="1.1">
<g>
<path d="M 15 4 L 15 5.5 C 14.5625 5.816406 13.800781 6.390625 12.84375 7.25 C 12.191406 7.835938 11.527344 8.5 11 9.1875 C 10.472656 9.875 10 10.582031 10 11.5 C 10 12.667969 10.292969 13.515625 10.65625 14.0625 C 10.765625 14.230469 10.875 14.382813 11 14.5 L 11 16 L 9.96875 16 C 9.976563 15.90625 10 15.816406 10 15.71875 C 10 15.046875 9.699219 14.65625 9.40625 14.28125 C 9.113281 13.90625 8.773438 13.554688 8.4375 13.25 C 7.765625 12.640625 7.09375 12.1875 7.09375 12.1875 L 6.53125 11.78125 L 5.96875 12.1875 C 5.96875 12.1875 5.28125 12.644531 4.59375 13.25 C 4.25 13.550781 3.890625 13.871094 3.59375 14.25 C 3.296875 14.628906 3 15.046875 3 15.71875 C 3 16.394531 3.191406 16.921875 3.4375 17.28125 C 3.652344 17.59375 3.921875 17.792969 4 17.84375 L 4 28 L 14 28 L 14 22 C 14 21.5625 14.433594 21.023438 15.0625 20.59375 C 15.519531 20.28125 15.78125 20.21875 16 20.125 C 16.222656 20.21875 16.476563 20.308594 16.9375 20.625 C 17.570313 21.058594 18 21.597656 18 22 L 18 28 L 28 28 L 28 17.875 L 28.0625 17.84375 C 28.0625 17.84375 28.378906 17.601563 28.59375 17.25 C 28.808594 16.898438 29 16.367188 29 15.71875 C 29 15.046875 28.699219 14.65625 28.40625 14.28125 C 28.113281 13.90625 27.773438 13.554688 27.4375 13.25 C 26.765625 12.640625 26.09375 12.1875 26.09375 12.1875 L 25.53125 11.78125 L 24.96875 12.1875 C 24.96875 12.1875 24.277344 12.644531 23.59375 13.25 C 23.25 13.550781 22.890625 13.871094 22.59375 14.25 C 22.296875 14.628906 22 15.046875 22 15.71875 C 22 15.820313 22.023438 15.90625 22.03125 16 L 21 16 L 21 14.4375 C 21.117188 14.3125 21.234375 14.167969 21.34375 14 C 21.695313 13.457031 22 12.632813 22 11.5 C 22 10.585938 21.527344 9.898438 21 9.21875 C 20.472656 8.539063 19.839844 7.871094 19.1875 7.28125 C 18.21875 6.398438 17.429688 5.816406 17 5.5 L 17 4 Z M 15.96875 7.28125 C 16.351563 7.566406 16.898438 7.949219 17.8125 8.78125 C 18.410156 9.324219 19.027344 9.90625 19.4375 10.4375 C 19.847656 10.96875 20 11.457031 20 11.5 C 20 12.285156 19.804688 12.710938 19.65625 12.9375 C 19.601563 13.019531 19.617188 12.972656 19.59375 13 L 12.375 13 C 12.363281 12.980469 12.394531 13.015625 12.34375 12.9375 C 12.207031 12.734375 12 12.332031 12 11.5 C 12 11.417969 12.152344 10.9375 12.5625 10.40625 C 12.972656 9.875 13.558594 9.289063 14.15625 8.75 C 15.058594 7.9375 15.578125 7.566406 15.96875 7.28125 Z M 6.5 14.28125 C 6.71875 14.449219 6.804688 14.488281 7.09375 14.75 C 7.378906 15.007813 7.640625 15.277344 7.8125 15.5 C 7.941406 15.667969 7.988281 15.832031 8 15.8125 C 7.988281 15.902344 7.957031 15.945313 7.9375 16 L 5.0625 16 C 5.039063 15.945313 5.007813 15.90625 5 15.78125 C 5.011719 15.796875 5.054688 15.667969 5.1875 15.5 C 5.363281 15.277344 5.648438 15.003906 5.9375 14.75 C 6.21875 14.5 6.28125 14.445313 6.5 14.28125 Z M 25.5 14.28125 C 25.71875 14.449219 25.804688 14.488281 26.09375 14.75 C 26.378906 15.007813 26.640625 15.277344 26.8125 15.5 C 26.941406 15.667969 26.988281 15.832031 27 15.8125 C 26.988281 15.902344 26.957031 15.945313 26.9375 16 L 24.0625 16 C 24.039063 15.945313 24.007813 15.90625 24 15.78125 C 24.011719 15.796875 24.054688 15.667969 24.1875 15.5 C 24.363281 15.277344 24.648438 15.003906 24.9375 14.75 C 25.21875 14.5 25.28125 14.445313 25.5 14.28125 Z M 13 15 L 19 15 L 19 18 L 26 18 L 26 26 L 24 26 L 24 25.59375 C 24 24.46875 23 24 23 24 C 23 24 22 24.511719 22 25.59375 L 22 26 L 20 26 L 20 22 C 20 20.527344 18.929688 19.566406 18.0625 18.96875 C 17.195313 18.371094 16.34375 18.0625 16.34375 18.0625 L 16 17.9375 L 15.65625 18.0625 C 15.65625 18.0625 14.808594 18.375 13.9375 18.96875 C 13.066406 19.5625 12 20.519531 12 22 L 12 26 L 10 26 L 10 25.59375 C 10 24.46875 9 24 9 24 C 9 24 8 24.511719 8 25.59375 L 8 26 L 6 26 L 6 18 L 13 18 Z M 9 19 C 9 19 8 19.511719 8 20.59375 L 8 22 L 10 22 L 10 20.59375 C 10 19.46875 9 19 9 19 Z M 23 19 C 23 19 22 19.511719 22 20.59375 L 22 22 L 24 22 L 24 20.59375 C 24 19.46875 23 19 23 19 Z "></path>
</g>
</svg>
