<?xml version="1.0" encoding="UTF-8"?>
<svg xmlns="http://www.w3.org/2000/svg" xmlns:xlink="http://www.w3.org/1999/xlink" viewBox="0 0 32 32" version="1.1">
<g>
<path d="M 17 5 L 17 12.40625 C 16.601563 11.9375 16.089844 11.371094 15.46875 10.78125 C 14.070313 9.457031 12.203125 8 10 8 C 6.699219 8 4 10.699219 4 14 C 4 15.984375 4.976563 17.75 6.46875 18.84375 C 3.832031 20.152344 2 22.863281 2 26 L 4 26 C 4 22.675781 6.675781 20 10 20 C 13.324219 20 16 22.675781 16 26 L 18 26 C 18 22.839844 16.140625 20.109375 13.46875 18.8125 C 14.191406 18.332031 14.855469 17.761719 15.4375 17.21875 C 16.5 16.222656 17.167969 15.425781 17.5 15 L 19 15 L 19 17.875 L 20.5625 16.84375 L 23.3125 15 L 30 15 L 30 5 Z M 19 7 L 28 7 L 28 13 L 22.6875 13 L 22.4375 13.15625 L 21 14.125 L 21 13 L 19 13 Z M 10 10 C 11.230469 10 12.851563 11.042969 14.09375 12.21875 C 15.023438 13.097656 15.359375 13.613281 15.65625 14 C 15.351563 14.386719 15.007813 14.898438 14.0625 15.78125 C 12.804688 16.960938 11.160156 18 10 18 C 7.78125 18 6 16.21875 6 14 C 6 11.78125 7.78125 10 10 10 Z "></path>
</g>
</svg>
