<?xml version="1.0" encoding="UTF-8"?>
<svg xmlns="http://www.w3.org/2000/svg" xmlns:xlink="http://www.w3.org/1999/xlink" viewBox="0 0 32 32" version="1.1">
<g>
<path d="M 11.59375 8 L 11.28125 8.28125 L 9.28125 10.28125 L 9 10.59375 L 9 14 L 5.6875 14 L 5.4375 14.15625 L 2.4375 16.15625 L 2 16.46875 L 2 19.3125 L 2.15625 19.5625 L 4.15625 22.53125 C 4.15625 22.53125 4.1875 22.5625 4.1875 22.5625 C 4.226563 22.625 5.773438 25 9 25 L 23 25 C 26.226563 25 27.773438 22.625 27.8125 22.5625 L 27.84375 22.5625 C 27.84375 22.5625 27.84375 22.53125 27.84375 22.53125 L 29.84375 19.5625 L 30 19.3125 L 30 16.46875 L 29.5625 16.15625 L 26.5625 14.15625 L 26.3125 14 L 21 14 L 21 12 L 30 12 L 30 10 L 20.4375 10 L 18.71875 8.28125 L 18.40625 8 Z M 12.4375 10 L 17.5625 10 L 19 11.4375 L 19 14 L 11 14 L 11 11.4375 Z M 6.3125 16 L 25.6875 16 L 27.15625 17 L 4.84375 17 Z M 4.21875 19 L 27.78125 19 L 26.15625 21.4375 L 26.15625 21.46875 C 26.15625 21.46875 25.3125 23 23 23 L 9 23 C 6.6875 23 5.84375 21.46875 5.84375 21.46875 L 5.84375 21.4375 Z M 8 20 C 7.449219 20 7 20.449219 7 21 C 7 21.550781 7.449219 22 8 22 C 8.550781 22 9 21.550781 9 21 C 9 20.449219 8.550781 20 8 20 Z M 12 20 C 11.449219 20 11 20.449219 11 21 C 11 21.550781 11.449219 22 12 22 C 12.550781 22 13 21.550781 13 21 C 13 20.449219 12.550781 20 12 20 Z M 16 20 C 15.449219 20 15 20.449219 15 21 C 15 21.550781 15.449219 22 16 22 C 16.550781 22 17 21.550781 17 21 C 17 20.449219 16.550781 20 16 20 Z M 20 20 C 19.449219 20 19 20.449219 19 21 C 19 21.550781 19.449219 22 20 22 C 20.550781 22 21 21.550781 21 21 C 21 20.449219 20.550781 20 20 20 Z M 24 20 C 23.449219 20 23 20.449219 23 21 C 23 21.550781 23.449219 22 24 22 C 24.550781 22 25 21.550781 25 21 C 25 20.449219 24.550781 20 24 20 Z "></path>
</g>
</svg>
