<?xml version="1.0" encoding="UTF-8"?>
<svg xmlns="http://www.w3.org/2000/svg" xmlns:xlink="http://www.w3.org/1999/xlink" viewBox="0 0 32 32" version="1.1">
<g>
<path d="M 16 10 C 13.277344 10 10.804688 11.101563 9 12.875 L 9 16.125 C 10.363281 13.660156 12.988281 12 16 12 C 19.011719 12 21.636719 13.660156 23 16.125 L 23 12.875 C 21.195313 11.101563 18.722656 10 16 10 Z M 16 14 C 12.699219 14 10 16.699219 10 20 C 10 23.300781 12.699219 26 16 26 C 19.300781 26 22 23.300781 22 20 C 22 16.699219 19.300781 14 16 14 Z M 16 16 C 18.222656 16 20 17.777344 20 20 C 20 22.222656 18.222656 24 16 24 C 13.777344 24 12 22.222656 12 20 C 12 17.777344 13.777344 16 16 16 Z "></path>
</g>
</svg>
