<?xml version="1.0" encoding="UTF-8"?>
<svg xmlns="http://www.w3.org/2000/svg" xmlns:xlink="http://www.w3.org/1999/xlink" viewBox="0 0 32 32" version="1.1">
<g>
<path d="M 28 4 L 26.125 4.4375 L 22.75 7.84375 C 21.691406 6.882813 20.335938 6.265625 18.96875 6.0625 C 17.320313 5.816406 15.578125 6.125 14.40625 7.34375 C 12.363281 9.464844 12.578125 13.105469 14.6875 15.65625 C 14.722656 15.699219 14.773438 15.738281 14.8125 15.78125 L 13.5625 17.03125 L 9.40625 12.625 L 8.5625 11.75 L 7.84375 12.71875 L 5.3125 16.21875 L 4.90625 16.78125 L 5.28125 17.375 L 8.4375 22.15625 L 4.4375 26.125 L 4 28 L 5.875 27.5625 L 9.5625 23.84375 L 12.09375 27.625 L 12.78125 28.6875 L 13.65625 27.78125 L 14.78125 26.5625 L 15.09375 26.21875 L 15.03125 25.71875 C 15.011719 25.59375 15 25.53125 15 25.5 C 15 24.660156 15.660156 24 16.5 24 C 16.421875 24 16.464844 24.019531 16.625 24.03125 L 17.09375 24.0625 L 17.4375 23.6875 L 17.96875 23.09375 L 18.625 22.40625 L 17.96875 21.71875 L 14.9375 18.46875 L 16.3125 17.09375 C 18.460938 18.449219 21.246094 18.542969 23.1875 16.9375 C 25.378906 15.121094 25.488281 11.894531 24.03125 9.40625 L 27.5625 5.875 Z M 17.8125 8 C 18.089844 7.992188 18.390625 8.019531 18.6875 8.0625 C 19.878906 8.242188 21.089844 8.878906 21.8125 9.75 C 23.34375 11.601563 23.371094 14.191406 21.90625 15.40625 C 20.441406 16.621094 17.71875 16.1875 16.21875 14.375 C 14.679688 12.515625 14.691406 9.945313 15.84375 8.75 C 16.273438 8.304688 16.980469 8.027344 17.8125 8 Z M 17.625 9 C 17.242188 9.046875 16.847656 9.265625 16.53125 9.59375 C 15.894531 10.25 15.8125 11.179688 16.34375 11.6875 C 16.875 12.195313 17.835938 12.0625 18.46875 11.40625 C 19.101563 10.75 19.1875 9.820313 18.65625 9.3125 C 18.390625 9.058594 18.007813 8.953125 17.625 9 Z M 8.78125 14.875 L 9.375 15.5 C 9.140625 15.765625 9 16.117188 9 16.5 C 9 17.328125 9.671875 18 10.5 18 C 10.84375 18 11.152344 17.878906 11.40625 17.6875 L 15.65625 22.1875 C 14.183594 22.574219 13.078125 23.832031 13.03125 25.40625 L 7.34375 16.84375 Z M 12 20 C 11.445313 20 11 20.449219 11 21 C 11 21.550781 11.449219 22 12 22 C 12.550781 22 13 21.550781 13 21 C 13 20.449219 12.550781 20 12 20 Z "></path>
</g>
</svg>
