<?xml version="1.0" encoding="UTF-8"?>
<svg xmlns="http://www.w3.org/2000/svg" xmlns:xlink="http://www.w3.org/1999/xlink" viewBox="0 0 32 32" version="1.1">
<g>
<path d="M 16 5 C 12.578125 5 9.464844 5.546875 7.09375 6.65625 C 4.722656 7.765625 3 9.601563 3 12 L 3 21 C 3 22.015625 3.511719 22.929688 4.25 23.65625 C 4.988281 24.382813 5.957031 24.980469 7.125 25.46875 C 9.464844 26.441406 12.574219 27 16 27 C 19.425781 27 22.535156 26.441406 24.875 25.46875 C 26.042969 24.980469 27.011719 24.382813 27.75 23.65625 C 28.488281 22.929688 29 22.015625 29 21 L 29 11 L 27 11 L 27 12 C 27 12.890625 26.546875 13.492188 25.59375 14.09375 C 24.640625 14.695313 23.246094 15.144531 21.8125 15.4375 C 18.945313 16.019531 16 16 16 16 C 12.800781 16 9.910156 15.460938 7.90625 14.625 C 6.902344 14.207031 6.132813 13.6875 5.65625 13.21875 C 5.179688 12.75 5 12.367188 5 12 C 5 10.523438 5.964844 9.359375 7.9375 8.4375 C 9.910156 7.515625 12.792969 7 16 7 C 19.207031 7 21.035156 7.515625 21.96875 8.0625 C 22.902344 8.609375 23 9.082031 23 9.40625 C 23 9.867188 22.898438 10.175781 22.65625 10.46875 C 22.414063 10.761719 22.003906 11.042969 21.40625 11.28125 C 20.210938 11.757813 18.289063 12 16 12 C 16 12 14.566406 11.996094 13.1875 11.71875 C 12.5 11.578125 11.835938 11.359375 11.4375 11.125 C 11.132813 10.945313 11.125 10.859375 11.09375 10.75 C 11.285156 10.636719 11.664063 10.496094 12.15625 10.375 C 13.167969 10.128906 14.613281 9.980469 16 10 L 16 8 C 14.46875 7.976563 12.914063 8.101563 11.65625 8.40625 C 11.027344 8.558594 10.484375 8.765625 10 9.0625 C 9.515625 9.359375 9 9.878906 9 10.625 C 9 11.636719 9.710938 12.414063 10.4375 12.84375 C 11.164063 13.273438 12 13.492188 12.8125 13.65625 C 14.433594 13.984375 16 14 16 14 C 18.417969 14 20.5 13.773438 22.125 13.125 C 22.9375 12.800781 23.664063 12.378906 24.1875 11.75 C 24.710938 11.121094 25 10.277344 25 9.40625 C 25 8.394531 24.410156 7.171875 23 6.34375 C 21.589844 5.515625 19.417969 5 16 5 Z M 5 15.28125 C 5.609375 15.734375 6.3125 16.128906 7.125 16.46875 C 9.464844 17.441406 12.574219 18 16 18 C 16 18 19.054688 18.042969 22.1875 17.40625 C 23.753906 17.089844 25.359375 16.597656 26.65625 15.78125 C 26.773438 15.707031 26.886719 15.613281 27 15.53125 L 27 21 C 27 21.367188 26.820313 21.75 26.34375 22.21875 C 26.023438 22.535156 25.570313 22.871094 25 23.1875 L 25 19 L 23 19 L 23 24 C 22.378906 24.1875 21.71875 24.355469 21 24.5 L 21 22 L 19 22 L 19 24.8125 C 18.351563 24.882813 17.691406 24.945313 17 24.96875 L 17 20 L 15 20 L 15 24.96875 C 14.3125 24.945313 13.648438 24.882813 13 24.8125 L 13 22 L 11 22 L 11 24.53125 C 10.269531 24.390625 9.621094 24.199219 9 24 L 9 19 L 7 19 L 7 23.1875 C 6.429688 22.871094 5.976563 22.535156 5.65625 22.21875 C 5.179688 21.75 5 21.367188 5 21 Z "></path>
</g>
</svg>
