<?xml version="1.0" encoding="UTF-8"?>
<svg xmlns="http://www.w3.org/2000/svg" xmlns:xlink="http://www.w3.org/1999/xlink" viewBox="0 0 32 32" version="1.1">
<g>
<path d="M 3 7 L 3 25 L 29 25 L 29 7 Z M 5 9 L 27 9 L 27 23 L 5 23 Z M 11 11 C 8.25 11 6 13.25 6 16 C 6 18.75 8.25 21 11 21 L 22 21 C 24.199219 21 26 19.199219 26 17 C 26 14.800781 24.199219 13 22 13 C 19.800781 13 18 14.800781 18 17 C 18 17.734375 18.214844 18.40625 18.5625 19 L 14.96875 19 C 15.609375 18.160156 16 17.132813 16 16 C 16 13.25 13.75 11 11 11 Z M 11 13 C 12.667969 13 14 14.332031 14 16 C 14 17.667969 12.667969 19 11 19 C 9.332031 19 8 17.667969 8 16 C 8 14.332031 9.332031 13 11 13 Z M 22 15 C 23.117188 15 24 15.882813 24 17 C 24 18.117188 23.117188 19 22 19 C 20.882813 19 20 18.117188 20 17 C 20 15.882813 20.882813 15 22 15 Z "></path>
</g>
</svg>
