<?xml version="1.0" encoding="UTF-8"?>
<svg xmlns="http://www.w3.org/2000/svg" xmlns:xlink="http://www.w3.org/1999/xlink" viewBox="0 0 32 32" version="1.1">
<g>
<path d="M 15 3 L 15 4.25 L 8.71875 6.03125 L 8 6.25 L 8 7 L 7 7 L 7 12 L 8 12 L 8 27 L 6 27 L 6 29 L 26 29 L 26 27 L 24 27 L 24 12 L 25 12 L 25 7 L 24 7 L 24 6.25 L 23.28125 6.03125 L 17 4.25 L 17 3 Z M 16 6.0625 L 19.34375 7 L 12.65625 7 Z M 9 9 L 23 9 L 23 10 L 9 10 Z M 10 12 L 22 12 L 22 27 L 10 27 Z M 12 13 L 12 16 L 15 16 L 15 13 Z M 17 13 L 17 16 L 20 16 L 20 13 Z M 12 17 L 12 20 L 15 20 L 15 17 Z M 17 17 L 17 20 L 20 20 L 20 17 Z "></path>
</g>
</svg>
