<?xml version="1.0" encoding="UTF-8"?>
<svg xmlns="http://www.w3.org/2000/svg" xmlns:xlink="http://www.w3.org/1999/xlink" viewBox="0 0 32 32" version="1.1">
<g>
<path d="M 9 4 L 11 7 L 12 7 L 12.40625 7.8125 C 12.304688 7.914063 12.101563 7.898438 12 8 L 9 8 L 8 7 L 6.1875 6.90625 L 4 5 L 6 8 L 7 8 L 9 10 L 9.40625 10 C 8.304688 10.800781 6.300781 12 4 12 L 4 14 C 8.300781 14 11.585938 10.789063 11.6875 10.6875 C 13.289063 9.085938 15 9 15 9 C 15.800781 9 16.601563 9.210938 17 9.3125 L 17 10 L 18 10 C 19.199219 10 20.398438 10.300781 21 10.5 L 21 11 L 16 11 C 14.300781 11 13 12.300781 13 14 C 13 15.300781 13.804688 16.3125 14.90625 16.8125 C 14.105469 17.8125 14 18.898438 14 19 L 14 26.09375 C 14.101563 27.09375 14.800781 29 17 29 L 17 27 C 16.199219 27 16 26.207031 16 25.90625 L 16 19 C 16 19 16.085938 17.5 18.1875 17 L 19 16.8125 L 19 19 L 21 19 L 21 16.40625 L 22 16.1875 L 22 18 L 24 18 L 24 14 L 23 14 C 21.300781 14 16.707031 14.800781 15.90625 15 C 15.507813 15 15 14.601563 15 14 C 15 13.699219 15.101563 13 16 13 L 23 13 C 24.199219 13 24.898438 11.992188 25 11.09375 L 25 11 C 25 9.699219 23.707031 9.101563 22.40625 9 C 21.40625 8.300781 19.59375 8.101563 18.59375 8 C 17.894531 7.199219 16.199219 7 15 7 L 14 7 L 13 6 L 11.1875 5.90625 Z M 27 8 L 27 8.3125 C 27 9.3125 27.007813 11.304688 26.40625 11.90625 C 26.304688 11.90625 26.199219 12 26 12 L 26 14 C 26.699219 14 27.414063 13.710938 27.8125 13.3125 C 29.011719 12.113281 29 9.914063 29 8.3125 L 29 8 Z M 7.40625 14.3125 C 7.007813 14.613281 5.398438 14.898438 4 15 L 4.09375 17 C 4.894531 17 7.710938 16.789063 8.8125 15.6875 Z M 7.40625 17.3125 C 7.007813 17.613281 5.398438 17.898438 4 18 L 4.09375 20 C 4.894531 20 7.710938 19.789063 8.8125 18.6875 Z M 7.40625 20.3125 C 7.007813 20.613281 5.398438 20.898438 4 21 L 4.09375 23 C 4.894531 23 7.710938 22.789063 8.8125 21.6875 Z M 7.40625 23.3125 C 7.007813 23.613281 5.398438 23.898438 4 24 L 4.09375 26 C 4.894531 26 7.710938 25.789063 8.8125 24.6875 Z M 7.40625 26.3125 C 7.007813 26.613281 5.398438 26.898438 4 27 L 4.09375 29 C 4.894531 29 7.710938 28.789063 8.8125 27.6875 Z "></path>
</g>
</svg>
