<?xml version="1.0" encoding="UTF-8"?>
<svg xmlns="http://www.w3.org/2000/svg" xmlns:xlink="http://www.w3.org/1999/xlink" viewBox="0 0 32 32" version="1.1">
<g>
<path d="M 5 4 L 5 6 C 6.882813 6 7.746094 6.421875 8.3125 6.96875 C 8.878906 7.515625 9.210938 8.34375 9.5625 9.34375 C 9.914063 10.34375 10.296875 11.515625 11.28125 12.46875 C 11.503906 12.683594 11.753906 12.890625 12.03125 13.0625 C 9.625 14.445313 8 17.035156 8 20 C 8 24.40625 11.59375 28 16 28 C 20.40625 28 24 24.40625 24 20 C 24 17.035156 22.375 14.445313 19.96875 13.0625 C 20.246094 12.890625 20.496094 12.683594 20.71875 12.46875 C 21.703125 11.515625 22.085938 10.34375 22.4375 9.34375 C 22.789063 8.34375 23.121094 7.515625 23.6875 6.96875 C 24.253906 6.421875 25.117188 6 27 6 L 27 4 C 24.789063 4 23.265625 4.578125 22.28125 5.53125 C 21.296875 6.484375 20.914063 7.65625 20.5625 8.65625 C 20.210938 9.65625 19.878906 10.484375 19.3125 11.03125 C 18.746094 11.578125 17.882813 12 16 12 C 14.117188 12 13.253906 11.578125 12.6875 11.03125 C 12.121094 10.484375 11.789063 9.65625 11.4375 8.65625 C 11.085938 7.65625 10.703125 6.484375 9.71875 5.53125 C 8.734375 4.578125 7.210938 4 5 4 Z M 16 14 C 19.324219 14 22 16.675781 22 20 C 22 23.324219 19.324219 26 16 26 C 12.675781 26 10 23.324219 10 20 C 10 16.675781 12.675781 14 16 14 Z "></path>
</g>
</svg>
