<?xml version="1.0" encoding="UTF-8"?>
<svg xmlns="http://www.w3.org/2000/svg" xmlns:xlink="http://www.w3.org/1999/xlink" viewBox="0 0 32 32" version="1.1">
<g>
<path d="M 11 3 L 11 7 L 13 7 L 13 3 Z M 15 4 L 15 7 L 17 7 L 17 4 Z M 5 8 L 5 9 C 5 16.054688 6.792969 23.621094 7.625 26.78125 C 7.972656 28.09375 9.175781 29 10.53125 29 L 18.46875 29 C 19.820313 29 21.03125 28.09375 21.375 26.78125 C 21.667969 25.671875 22.058594 23.984375 22.46875 22 L 25 22 C 26.644531 22 28 20.644531 28 19 L 28 16 C 28 14.355469 26.644531 13 25 13 L 23.8125 13 C 23.921875 11.667969 24 10.332031 24 9 L 24 8 Z M 7.09375 10 L 13 10 L 13 13 L 10 13 L 10 20 L 18 20 L 18 13 L 15 13 L 15 10 L 21.90625 10 C 21.746094 16.453125 20.207031 23.332031 19.4375 26.25 C 19.320313 26.691406 18.933594 27 18.46875 27 L 10.53125 27 C 10.070313 27 9.679688 26.695313 9.5625 26.25 C 8.792969 23.324219 7.253906 16.433594 7.09375 10 Z M 12 15 L 16 15 L 16 18 L 12 18 Z M 23.625 15 L 25 15 C 25.566406 15 26 15.433594 26 16 L 26 19 C 26 19.566406 25.566406 20 25 20 L 22.875 20 C 23.160156 18.441406 23.425781 16.75 23.625 15 Z "></path>
</g>
</svg>
