<?xml version="1.0" encoding="UTF-8"?>
<svg xmlns="http://www.w3.org/2000/svg" xmlns:xlink="http://www.w3.org/1999/xlink" viewBox="0 0 32 32" version="1.1">
<g>
<path d="M 2.90625 6 L 3 7.09375 C 3.589844 13.421875 5.039063 17.3125 6.40625 19.65625 C 7.089844 20.828125 7.773438 21.625 8.28125 22.125 C 8.308594 22.152344 8.320313 22.164063 8.34375 22.1875 C 7.941406 22.789063 7.417969 23.648438 7.0625 24.6875 L 6.59375 26 L 22.375 26 L 21.9375 24.6875 C 21.601563 23.660156 21.089844 22.789063 20.6875 22.1875 C 20.714844 22.164063 20.722656 22.152344 20.75 22.125 C 21.128906 21.757813 21.578125 21.222656 22.0625 20.5 C 22.070313 20.488281 22.085938 20.480469 22.09375 20.46875 C 22.101563 20.457031 22.117188 20.449219 22.125 20.4375 C 22.828125 19.296875 24.589844 18.804688 26.5625 18.25 C 27.570313 17.96875 28.597656 17.664063 29.46875 17.03125 C 30.339844 16.398438 31 15.320313 31 14 C 31 11.898438 29.363281 10 27.1875 10 C 26.65625 10 26.105469 10.089844 25.59375 10.28125 C 25.75 9.285156 25.898438 8.246094 26 7.09375 L 26.09375 6 Z M 5.1875 8 L 23.8125 8 C 23.199219 13.308594 21.984375 16.761719 20.875 18.65625 C 20.765625 18.839844 20.667969 18.996094 20.5625 19.15625 C 20.523438 19.21875 20.476563 19.285156 20.4375 19.34375 C 20.402344 19.402344 20.347656 19.441406 20.3125 19.5 C 19.9375 20.035156 19.601563 20.433594 19.34375 20.6875 C 19.179688 20.84375 19.0625 20.929688 18.96875 21 L 10.03125 21 C 9.96875 20.957031 9.925781 20.953125 9.65625 20.6875 C 9.277344 20.316406 8.753906 19.679688 8.15625 18.65625 C 7.050781 16.757813 5.824219 13.3125 5.1875 8 Z M 27.1875 12 C 28.132813 12 29 12.980469 29 14 C 29 14.769531 28.796875 15.054688 28.3125 15.40625 C 27.828125 15.757813 26.988281 16.074219 26.03125 16.34375 C 25.363281 16.53125 24.617188 16.699219 23.875 16.9375 C 24.164063 16.199219 24.429688 15.386719 24.6875 14.46875 L 24.71875 14.46875 C 25.027344 13.378906 25.40625 12.765625 25.78125 12.4375 C 26.15625 12.109375 26.574219 12 27.1875 12 Z M 19.3125 21 C 19.3125 21 19.417969 21.414063 19.53125 21.8125 L 19.3125 22 Z M 10.28125 23 L 18.75 23 C 18.902344 23.292969 19.105469 23.679688 19.3125 24 L 9.6875 24 C 9.929688 23.625 10.136719 23.261719 10.28125 23 Z "></path>
</g>
</svg>
