<?xml version="1.0" encoding="UTF-8"?>
<svg xmlns="http://www.w3.org/2000/svg" xmlns:xlink="http://www.w3.org/1999/xlink" viewBox="0 0 32 32" version="1.1">
<g>
<path d="M 4 6 L 4 21 L 2 21 L 2 22 C 2 24.222656 3.859375 26 6.0625 26 L 25.9375 26 C 28.140625 26 30 24.222656 30 22 L 30 21 L 28 21 L 28 6 Z M 6 8 L 26 8 L 26 21 L 6 21 Z M 14 11 L 14 17 L 15.59375 15.6875 L 16.5 17.90625 L 17.3125 17.5 L 16.3125 15.3125 L 18.40625 15.09375 Z M 4.40625 23 L 27.59375 23 C 27.238281 23.570313 26.691406 24 25.9375 24 L 6.0625 24 C 5.308594 24 4.761719 23.570313 4.40625 23 Z "></path>
</g>
</svg>
