<?xml version="1.0"?>
<svg xmlns="http://www.w3.org/2000/svg" viewBox="0 0 32 32">
    <path d="M 9 4 L 9 13 L 9 16 L 12 13 L 13 13 L 13 11 L 11 11 L 11 6 L 21 6 L 21 6.9375 L 23 6.9375 L 23 4 L 9 4 z M 4 8 L 4 28 L 15 28 L 15 18.0625 L 13 18.0625 L 13 26 L 6 26 L 6 10 L 7 10 L 7 8 L 4 8 z M 25 8 L 25 10 L 26 10 L 26 26 L 19 26 L 19 18 L 17 18 L 17 28 L 28 28 L 28 8 L 25 8 z M 15 9 L 15 10 L 15 16 L 20 16 L 23 19 L 23 16 L 23 9 L 15 9 z M 17 11 L 21 11 L 21 14 L 17 14 L 17 11 z M 8 22 L 8 24 L 11 24 L 11 22 L 8 22 z M 21 22 L 21 24 L 24 24 L 24 22 L 21 22 z"></path>
</svg>
