<?xml version="1.0" encoding="UTF-8"?>
<svg xmlns="http://www.w3.org/2000/svg" xmlns:xlink="http://www.w3.org/1999/xlink" viewBox="0 0 32 32" version="1.1">
<g>
<path d="M 10.5 3 C 9.601563 3 8.710938 3.351563 8.03125 4.03125 C 6.671875 5.390625 6.675781 7.609375 8.03125 8.96875 L 9 9.9375 C 9 9.957031 9 9.980469 9 10 C 9 10.988281 9.222656 11.925781 9.59375 12.78125 L 3.1875 17.59375 C 2.554688 18.070313 2.144531 18.773438 2.03125 19.5625 C 1.917969 20.351563 2.117188 21.179688 2.59375 21.8125 C 3.160156 22.570313 4.054688 23 5 23 C 5.382813 23 5.769531 22.917969 6.125 22.78125 C 6.058594 23.171875 6 23.578125 6 24 C 6 25.273438 6.300781 26.425781 6.875 27.34375 C 7.449219 28.261719 8.378906 29 9.5 29 C 10.15625 29 10.726563 28.734375 11.21875 28.34375 C 12.6875 28.832031 14.304688 29 16 29 C 17.691406 29 19.308594 28.828125 20.78125 28.34375 C 21.273438 28.734375 21.84375 29 22.5 29 C 23.621094 29 24.550781 28.261719 25.125 27.34375 C 25.699219 26.425781 26 25.273438 26 24 C 26 23.578125 25.941406 23.171875 25.875 22.78125 C 26.230469 22.917969 26.621094 23 27 23 C 27.945313 23 28.839844 22.566406 29.40625 21.8125 C 29.882813 21.175781 30.078125 20.347656 29.96875 19.5625 C 29.855469 18.777344 29.449219 18.070313 28.8125 17.59375 L 22.40625 12.78125 C 22.777344 11.925781 23 10.988281 23 10 C 23 9.980469 23 9.957031 23 9.9375 L 23.96875 8.96875 C 25.324219 7.609375 25.328125 5.390625 23.96875 4.03125 C 23.289063 3.351563 22.398438 3 21.5 3 C 20.710938 3 19.921875 3.285156 19.28125 3.8125 C 18.304688 3.292969 17.179688 3 16 3 C 14.820313 3 13.695313 3.292969 12.71875 3.8125 C 12.078125 3.285156 11.289063 3 10.5 3 Z M 10.5 5 C 10.683594 5 10.859375 5.027344 11.03125 5.09375 C 10.34375 5.792969 9.789063 6.628906 9.4375 7.5625 C 8.851563 6.976563 8.851563 6.023438 9.4375 5.4375 C 9.730469 5.144531 10.117188 5 10.5 5 Z M 16 5 C 18.773438 5 21 7.226563 21 10 C 21 10.792969 20.792969 11.523438 20.46875 12.1875 C 20.304688 9.859375 18.367188 8 16 8 C 13.632813 8 11.695313 9.859375 11.53125 12.1875 C 11.207031 11.523438 11 10.792969 11 10 C 11 7.226563 13.226563 5 16 5 Z M 21.5 5 C 21.882813 5 22.269531 5.144531 22.5625 5.4375 C 23.148438 6.023438 23.148438 6.976563 22.5625 7.5625 C 22.210938 6.628906 21.65625 5.792969 20.96875 5.09375 C 21.140625 5.027344 21.316406 5 21.5 5 Z M 16 10 C 17.390625 10 18.5 11.109375 18.5 12.5 C 18.5 13.890625 17.390625 15 16 15 C 14.609375 15 13.5 13.890625 13.5 12.5 C 13.5 11.109375 14.609375 10 16 10 Z M 16 11 C 15.449219 11 15 11.449219 15 12 C 15 12.550781 15.449219 13 16 13 C 16.550781 13 17 12.550781 17 12 C 17 11.449219 16.550781 11 16 11 Z M 10.65625 14.5 C 11.941406 16.019531 13.863281 17 16 17 C 18.136719 17 20.058594 16.019531 21.34375 14.5 L 27.59375 19.1875 C 27.8125 19.351563 27.960938 19.570313 28 19.84375 C 28.039063 20.117188 27.976563 20.375 27.8125 20.59375 C 27.628906 20.839844 27.308594 21 27 21 C 26.773438 21 26.585938 20.949219 26.40625 20.8125 L 25.5625 20.1875 L 25.46875 20.125 C 25.355469 20.019531 24.414063 19.171875 22.90625 19.03125 C 22.773438 19.007813 22.640625 19 22.5 19 C 21.378906 19 20.449219 19.738281 19.875 20.65625 C 19.300781 21.574219 19 22.726563 19 24 C 19 24.964844 19.164063 25.878906 19.5 26.65625 C 18.46875 26.898438 17.285156 27 16 27 C 14.714844 27 13.53125 26.898438 12.5 26.65625 C 12.835938 25.878906 13 24.964844 13 24 C 13 22.726563 12.699219 21.574219 12.125 20.65625 C 11.550781 19.738281 10.621094 19 9.5 19 C 7.75 19 6.652344 20.011719 6.53125 20.125 L 6.4375 20.1875 L 5.59375 20.8125 C 5.414063 20.949219 5.222656 21 5 21 C 4.691406 21 4.371094 20.835938 4.1875 20.59375 C 4.023438 20.371094 3.960938 20.113281 4 19.84375 C 4.039063 19.574219 4.1875 19.351563 4.40625 19.1875 Z M 9.5 21 C 9.757813 21 10.074219 21.15625 10.40625 21.6875 C 10.738281 22.21875 11 23.0625 11 24 C 11 24.9375 10.738281 25.78125 10.40625 26.3125 C 10.074219 26.84375 9.757813 27 9.5 27 C 9.242188 27 8.925781 26.84375 8.59375 26.3125 C 8.261719 25.78125 8 24.9375 8 24 C 8 23.0625 8.261719 22.21875 8.59375 21.6875 C 8.84375 21.289063 9.066406 21.101563 9.28125 21.03125 C 9.351563 21.023438 9.425781 21 9.5 21 Z M 22.5 21 C 22.757813 21 23.074219 21.15625 23.40625 21.6875 C 23.738281 22.21875 24 23.0625 24 24 C 24 24.9375 23.738281 25.78125 23.40625 26.3125 C 23.074219 26.84375 22.757813 27 22.5 27 C 22.242188 27 21.925781 26.84375 21.59375 26.3125 C 21.261719 25.78125 21 24.9375 21 24 C 21 23.0625 21.261719 22.21875 21.59375 21.6875 C 21.925781 21.15625 22.242188 21 22.5 21 Z "></path>
</g>
</svg>
