<?xml version="1.0" encoding="UTF-8"?>
<svg xmlns="http://www.w3.org/2000/svg" xmlns:xlink="http://www.w3.org/1999/xlink" viewBox="0 0 32 32" version="1.1">
<g>
<path d="M 25.1875 5.0625 L 24.21875 5.34375 L 12.6875 8.59375 L 11.71875 8.875 L 12.28125 10.8125 L 8.4375 11.875 L 7.46875 12.15625 L 8.03125 14.09375 L 6.09375 14.625 L 5.8125 13.65625 L 3.875 14.1875 L 4.96875 18.03125 L 6.90625 17.5 L 6.625 16.53125 L 8.5625 15.96875 L 8.84375 16.96875 L 9.09375 17.9375 L 10.0625 17.65625 L 13.90625 16.59375 L 14.125 17.4375 C 14.046875 17.578125 14 17.757813 14 18 C 14 18.738281 14.402344 19.371094 15 19.71875 L 15 27 L 17 27 L 17 19.71875 C 17.597656 19.371094 18 18.738281 18 18 C 18 17.792969 17.964844 17.628906 17.90625 17.5 L 26.9375 14.96875 L 27.90625 14.6875 L 27.625 13.71875 L 25.46875 6.03125 Z M 23.8125 7.53125 L 25.4375 13.3125 L 15.84375 16.03125 L 15.5625 15.0625 L 14.46875 11.21875 L 14.21875 10.25 Z M 12.8125 12.71875 L 13.34375 14.65625 L 10.5 15.46875 L 9.9375 13.53125 Z M 14 20.09375 L 10.5 25 L 12.9375 25 L 14 23.53125 Z M 18 20.09375 L 18 23.53125 L 19.0625 25 L 21.5 25 Z "></path>
</g>
</svg>
