<?xml version="1.0" encoding="UTF-8"?>
<svg xmlns="http://www.w3.org/2000/svg" xmlns:xlink="http://www.w3.org/1999/xlink" viewBox="0 0 32 32" version="1.1">
<g>
<path d="M 7.96875 3.96875 L 3.96875 6.5 L 3.96875 8.84375 L 7.96875 6.34375 L 16.96875 12 L 16.96875 26 L 3.96875 26 L 3.96875 28 L 18.96875 28 L 18.96875 13.15625 L 20 11.53125 Z M 24 11 L 24 21.28125 C 23.402344 21.628906 23 22.269531 23 23 C 23 24.09375 23.90625 25 25 25 C 26.09375 25 27 24.09375 27 23 C 27 22.269531 26.597656 21.628906 26 21.28125 L 26 20 L 28 20 L 28 18 L 26 18 L 26 17 L 28 17 L 28 15 L 26 15 L 26 14 L 28 14 L 28 12 L 26 12 L 26 11 Z M 8 16 L 8 21 L 13 21 L 13 16 Z "></path>
</g>
</svg>
