<?xml version="1.0" encoding="UTF-8"?>
<svg xmlns="http://www.w3.org/2000/svg" xmlns:xlink="http://www.w3.org/1999/xlink" viewBox="0 0 32 32" version="1.1">
<g>
<path d="M 16 3.96875 L 15.46875 4.3125 L 3.96875 11.53125 L 5 13.15625 L 5 28 L 27 28 L 27 13.15625 L 28.03125 11.53125 L 16.53125 4.3125 Z M 16 6.34375 L 25 12 L 25 26 L 7 26 L 7 12 Z M 15 10 L 15 20.28125 C 14.402344 20.628906 14 21.269531 14 22 C 14 23.09375 14.90625 24 16 24 C 17.09375 24 18 23.09375 18 22 C 18 21.269531 17.597656 20.628906 17 20.28125 L 17 19 L 19 19 L 19 17 L 17 17 L 17 16 L 19 16 L 19 14 L 17 14 L 17 13 L 19 13 L 19 11 L 17 11 L 17 10 Z "></path>
</g>
</svg>
