<?xml version="1.0" encoding="UTF-8"?>
<svg xmlns="http://www.w3.org/2000/svg" xmlns:xlink="http://www.w3.org/1999/xlink" viewBox="0 0 32 32" version="1.1">
<g>
<path d="M 16 2 C 14.355469 2 13 3.355469 13 5 L 13 13.03125 L 7.71875 16 L 3 16 L 3 18 L 8.25 18 L 8.5 17.875 L 13 15.34375 L 13 19 C 11.261719 20.050781 10 21.828125 10 24 C 10 27.300781 12.699219 30 16 30 C 19.300781 30 22 27.300781 22 24 C 22 21.828125 20.738281 20.050781 19 19 L 19 11.96875 L 24.28125 9 L 29 9 L 29 7 L 23.75 7 L 23.5 7.125 L 19 9.65625 L 19 5 C 19 3.355469 17.644531 2 16 2 Z M 16 4 C 16.554688 4 17 4.445313 17 5 L 17 10.78125 L 15 11.90625 L 15 5 C 15 4.445313 15.445313 4 16 4 Z "></path>
</g>
</svg>
