<?xml version="1.0" encoding="UTF-8"?>
<svg xmlns="http://www.w3.org/2000/svg" xmlns:xlink="http://www.w3.org/1999/xlink" viewBox="0 0 32 32" version="1.1">
<g>
<path d="M 6 3 L 6 23 L 12 23 L 12 29 L 20 29 L 20 23 L 26 23 L 26 3 Z M 8 5 L 12 5 L 12 9 L 8 9 Z M 14 5 L 18 5 L 18 9 L 14 9 Z M 20 5 L 24 5 L 24 9 L 20 9 Z M 8 11 L 12 11 L 12 15 L 8 15 Z M 14 11 L 18 11 L 18 15 L 14 15 Z M 20 11 L 24 11 L 24 15 L 20 15 Z M 8 17 L 12 17 L 12 21 L 8 21 Z M 14 17 L 18 17 L 18 21 L 14 21 Z M 20 17 L 24 17 L 24 21 L 20 21 Z M 14 23 L 18 23 L 18 27 L 14 27 Z "></path>
</g>
</svg>
