<?xml version="1.0" encoding="UTF-8"?>
<svg xmlns="http://www.w3.org/2000/svg" xmlns:xlink="http://www.w3.org/1999/xlink" viewBox="0 0 32 32" version="1.1">
<g>
<path d="M 21.21875 3.03125 C 20.613281 3.035156 20.011719 3.105469 19.4375 3.25 C 17.148438 3.828125 15.175781 5.292969 13.71875 6.75 L 13.59375 6.875 C 12.175781 8.320313 10.808594 10.238281 10.25 12.46875 C 10.097656 13.070313 10.027344 13.703125 10.03125 14.34375 L 10 14.34375 C 10 14.34375 9.71875 16.25 9.25 18.3125 C 9.015625 19.34375 8.726563 20.417969 8.4375 21.28125 C 8.148438 22.144531 7.753906 22.839844 7.6875 22.90625 L 9.09375 24.3125 C 9.160156 24.246094 9.855469 23.851563 10.71875 23.5625 C 11.582031 23.273438 12.65625 22.984375 13.6875 22.75 C 15.75 22.28125 17.65625 22 17.65625 22 L 17.65625 21.96875 C 18.296875 21.972656 18.929688 21.902344 19.53125 21.75 C 21.820313 21.175781 23.792969 19.738281 25.25 18.28125 C 26.707031 16.824219 28.171875 14.851563 28.75 12.5625 C 29.328125 10.273438 28.871094 7.621094 26.625 5.375 C 24.941406 3.691406 23.035156 3.023438 21.21875 3.03125 Z M 9 4 C 7.894531 4 7 4.894531 7 6 C 7 7.105469 7.894531 8 9 8 C 10.105469 8 11 7.105469 11 6 C 11 4.894531 10.105469 4 9 4 Z M 21.25 5 C 21.6875 4.984375 22.125 5.011719 22.5625 5.125 C 23.4375 5.351563 24.3125 5.875 25.21875 6.78125 C 27.035156 8.597656 27.253906 10.308594 26.8125 12.0625 C 26.371094 13.816406 25.128906 15.558594 23.84375 16.84375 C 22.558594 18.128906 20.820313 19.371094 19.0625 19.8125 C 17.304688 20.253906 15.589844 20.027344 13.78125 18.21875 C 11.972656 16.410156 11.746094 14.695313 12.1875 12.9375 C 12.628906 11.179688 13.875 9.4375 15.15625 8.15625 C 16.441406 6.871094 18.183594 5.628906 19.9375 5.1875 C 20.375 5.078125 20.8125 5.015625 21.25 5 Z M 11.28125 18.3125 C 11.585938 18.769531 11.910156 19.222656 12.34375 19.65625 C 12.777344 20.089844 13.230469 20.414063 13.6875 20.71875 C 13.527344 20.753906 13.414063 20.773438 13.25 20.8125 C 12.300781 21.027344 11.328125 21.28125 10.4375 21.5625 C 10.71875 20.671875 10.972656 19.699219 11.1875 18.75 C 11.226563 18.585938 11.246094 18.472656 11.28125 18.3125 Z M 6.78125 23.78125 L 3.28125 27.28125 L 4.71875 28.71875 L 8.21875 25.21875 Z "></path>
</g>
</svg>
