<?xml version="1.0" encoding="UTF-8"?>
<svg xmlns="http://www.w3.org/2000/svg" xmlns:xlink="http://www.w3.org/1999/xlink" viewBox="0 0 32 32" version="1.1">
<g>
<path d="M 10 7 C 5.042969 7 1 11.042969 1 16 C 1 20.957031 5.042969 25 10 25 C 10.683594 25 11.359375 24.925781 12 24.78125 C 12.644531 24.929688 13.3125 25 14 25 C 14.683594 25 15.359375 24.925781 16 24.78125 C 16.644531 24.929688 17.3125 25 18 25 C 18.621094 25 19.226563 24.933594 19.8125 24.8125 C 20.359375 24.917969 20.921875 25 21.5 25 C 26.464844 25 30.5 20.964844 30.5 16 C 30.5 11.035156 26.464844 7 21.5 7 C 20.921875 7 20.363281 7.082031 19.8125 7.1875 C 19.226563 7.066406 18.621094 7 18 7 C 17.3125 7 16.644531 7.070313 16 7.21875 C 15.359375 7.074219 14.683594 7 14 7 C 13.3125 7 12.644531 7.070313 12 7.21875 C 11.359375 7.074219 10.683594 7 10 7 Z M 20.8125 7.46875 C 21.046875 7.546875 21.273438 7.621094 21.5 7.71875 C 21.273438 7.621094 21.046875 7.546875 20.8125 7.46875 Z M 10 9 C 13.878906 9 17 12.121094 17 16 C 17 19.878906 13.878906 23 10 23 C 6.121094 23 3 19.878906 3 16 C 3 12.121094 6.121094 9 10 9 Z M 15.96875 9.28125 C 18.867188 10.136719 21 12.828125 21 16 C 21 19.171875 18.867188 21.863281 15.96875 22.71875 C 17.824219 21.070313 19 18.671875 19 16 C 19 13.328125 17.824219 10.929688 15.96875 9.28125 Z M 19.96875 9.28125 C 22.867188 10.136719 25 12.828125 25 16 C 25 19.171875 22.867188 21.863281 19.96875 22.71875 C 21.824219 21.070313 23 18.671875 23 16 C 23 13.328125 21.824219 10.929688 19.96875 9.28125 Z M 24.375 9.625 C 26.796875 10.726563 28.5 13.167969 28.5 16 C 28.5 18.832031 26.796875 21.273438 24.375 22.375 C 26.003906 20.746094 27 18.480469 27 16 C 27 13.519531 26.003906 11.253906 24.375 9.625 Z M 9 11 L 9 16.40625 L 9.28125 16.71875 L 12.28125 19.71875 L 13.71875 18.28125 L 11 15.5625 L 11 11 Z M 21.5 24.28125 C 21.273438 24.378906 21.046875 24.453125 20.8125 24.53125 C 21.046875 24.453125 21.273438 24.378906 21.5 24.28125 Z "></path>
</g>
</svg>
