<?xml version="1.0" encoding="UTF-8"?>
<svg xmlns="http://www.w3.org/2000/svg" xmlns:xlink="http://www.w3.org/1999/xlink" viewBox="0 0 32 32" version="1.1">
<g>
<path d="M 22 4 C 20.769531 4 19.484375 4.480469 18.53125 5.5 C 17.578125 6.519531 17 8.050781 17 10 L 19 10 C 19 8.4375 19.441406 7.476563 20 6.875 C 20.558594 6.273438 21.277344 6 22 6 C 22.082031 6 22.179688 6.003906 22.3125 6.03125 C 22.320313 6.03125 22.335938 6.03125 22.34375 6.03125 C 22.449219 6.054688 22.59375 6.109375 22.71875 6.15625 C 22.742188 6.164063 22.757813 6.179688 22.78125 6.1875 C 22.847656 6.226563 22.914063 6.261719 22.96875 6.3125 C 23.183594 6.503906 23.375 6.808594 23.5 7.28125 C 23.746094 8.226563 23.652344 9.726563 23.28125 11.25 C 22.910156 12.773438 22.28125 14.335938 21.59375 15.4375 C 21.25 15.988281 20.890625 16.425781 20.59375 16.6875 C 20.296875 16.949219 20.066406 17 20.03125 17 C 19.636719 17 19.296875 16.8125 18.8125 16.34375 C 18.328125 15.875 17.785156 15.144531 17.1875 14.375 C 15.992188 12.839844 14.386719 11 11.78125 11 C 9.894531 11 8.351563 11.910156 7.28125 13.21875 C 6.210938 14.527344 5.535156 16.195313 5.0625 17.9375 C 4.117188 21.421875 4 25.238281 4 27 L 6 27 C 6 25.324219 6.113281 21.625 6.96875 18.46875 C 7.398438 16.890625 8.019531 15.46875 8.8125 14.5 C 9.605469 13.53125 10.503906 13 11.78125 13 C 13.453125 13 14.484375 14.160156 15.625 15.625 C 16.195313 16.355469 16.730469 17.125 17.40625 17.78125 C 18.082031 18.4375 18.957031 19 20.03125 19 C 20.769531 19 21.394531 18.636719 21.90625 18.1875 C 22.417969 17.738281 22.863281 17.167969 23.28125 16.5 C 24.113281 15.164063 24.796875 13.476563 25.21875 11.75 C 25.269531 11.539063 25.300781 11.335938 25.34375 11.125 L 26 11.59375 L 26 12.40625 L 25.59375 12.65625 L 25.15625 12.9375 L 25.125 13.40625 C 25.070313 13.898438 24.890625 14.769531 24.625 15.5 L 24.40625 16.09375 L 24.84375 16.53125 L 25.59375 17.3125 C 25.554688 17.351563 25.515625 17.519531 25.34375 17.8125 C 25.285156 17.914063 25.277344 17.914063 25.21875 18 L 24.6875 17.90625 L 23.875 17.78125 L 23.5625 18.53125 C 23.386719 18.972656 22.742188 19.972656 22.3125 20.34375 L 21.8125 20.78125 L 22 21.375 L 22.09375 21.71875 C 21.910156 21.839844 21.761719 21.878906 21.5 21.96875 L 21.125 21.46875 L 20.78125 21 L 20.1875 21.0625 C 19.421875 21.15625 18.90625 21.0625 18.28125 20.71875 L 17.65625 20.34375 L 17.125 20.84375 L 16.71875 21.21875 C 16.371094 21.0625 16.097656 20.953125 15.9375 20.78125 L 16.15625 20.15625 L 16.34375 19.625 L 16 19.1875 C 15.46875 18.496094 14.371094 17 12.46875 17 C 11.476563 17 10.644531 17.546875 10.1875 18.21875 C 9.730469 18.890625 9.558594 19.671875 9.5 20.375 L 9.4375 21 L 9.96875 21.3125 L 11.28125 22.09375 C 11.289063 22.675781 11.222656 23.148438 11.09375 23.53125 L 10.15625 23.5625 L 9.375 23.625 L 9.21875 24.375 C 9.09375 25.050781 9 26.339844 9 27 L 11 27 C 11 26.765625 11.070313 26.085938 11.125 25.5 L 11.875 25.46875 L 12.4375 25.4375 L 12.71875 24.90625 C 12.71875 24.90625 13.609375 23.214844 13.25 21.3125 L 13.1875 20.875 L 12.78125 20.625 L 11.65625 19.96875 C 11.71875 19.75 11.75 19.480469 11.84375 19.34375 C 12.023438 19.082031 12.117188 19 12.46875 19 C 13.097656 19 13.601563 19.523438 14.0625 20.0625 L 13.875 20.625 L 13.71875 21.0625 L 13.9375 21.46875 C 13.9375 21.46875 14.847656 23.011719 16.71875 23.375 L 17.21875 23.46875 L 17.59375 23.15625 L 18.0625 22.71875 C 18.613281 22.921875 19.175781 23.03125 19.78125 23.03125 L 20.25 23.6875 L 20.5 24.0625 L 20.96875 24.09375 C 22.773438 24.273438 23.96875 22.90625 23.96875 22.90625 L 24.375 22.5 L 24.21875 21.9375 L 24.03125 21.28125 C 24.398438 20.871094 24.6875 20.449219 24.9375 20 L 25.5 20.09375 L 26.0625 20.21875 L 26.4375 19.75 C 26.4375 19.75 26.789063 19.363281 27.09375 18.84375 C 27.398438 18.324219 27.808594 17.710938 27.59375 16.75 L 27.53125 16.46875 L 27.34375 16.25 L 26.65625 15.53125 C 26.792969 15.042969 26.90625 14.59375 26.96875 14.1875 L 27.53125 13.84375 L 28 13.53125 L 28 10.5625 L 27.5625 10.25 L 26.8125 9.71875 C 26.679688 7.785156 26.070313 6.308594 25.15625 5.40625 C 24.726563 4.984375 24.269531 4.691406 23.8125 4.46875 C 23.640625 4.386719 23.480469 4.308594 23.3125 4.25 C 23.289063 4.242188 23.273438 4.226563 23.25 4.21875 C 23.089844 4.160156 22.921875 4.128906 22.75 4.09375 C 22.511719 4.046875 22.257813 4 22 4 Z "></path>
</g>
</svg>
