<?xml version="1.0" encoding="UTF-8"?>
<svg xmlns="http://www.w3.org/2000/svg" xmlns:xlink="http://www.w3.org/1999/xlink" viewBox="0 0 32 32" version="1.1">
<g>
<path d="M 11.375 4.03125 C 9.644531 4.085938 7.160156 4.734375 3.375 6.65625 L 4.28125 8.4375 C 8.433594 6.328125 10.789063 5.949219 11.9375 6.03125 C 12.511719 6.070313 12.789063 6.210938 12.9375 6.3125 C 12.976563 6.339844 12.976563 6.355469 13 6.375 L 13 9 L 10.90625 9 C 10.015625 9 9.175781 9.433594 8.65625 10.15625 L 6.625 13 L 4 13 L 4 15 L 5.1875 15 L 5.03125 15.21875 C 4.355469 16.164063 4 17.304688 4 18.46875 L 4 24 C 4 24.03125 4 24.0625 4 24.09375 L 4 26 C 4 26.550781 4.449219 27 5 27 L 8 27 L 8.5 25.5 C 8.859375 25.542969 9.230469 25.582031 9.625 25.625 L 9.71875 25.71875 L 9.78125 25.65625 C 11.605469 25.847656 13.710938 26 16 26 C 18.289063 26 20.394531 25.847656 22.21875 25.65625 L 22.28125 25.71875 L 22.375 25.625 C 22.769531 25.582031 23.140625 25.542969 23.5 25.5 L 24 27 L 27 27 C 27.550781 27 28 26.550781 28 26 L 28 24.125 C 28.003906 24.082031 28.003906 24.042969 28 24 L 28 18.46875 C 28 17.304688 27.644531 16.164063 26.96875 15.21875 L 26.8125 15 L 28 15 L 28 13 L 25.375 13 L 23.34375 10.15625 C 22.824219 9.433594 21.984375 9 21.09375 9 L 19 9 L 19 6.375 C 19.023438 6.355469 19.023438 6.339844 19.0625 6.3125 C 19.210938 6.210938 19.488281 6.070313 20.0625 6.03125 C 21.210938 5.949219 23.566406 6.328125 27.71875 8.4375 L 28.625 6.65625 C 24.300781 4.457031 21.6875 3.90625 19.9375 4.03125 C 19.0625 4.09375 18.394531 4.339844 17.9375 4.65625 C 17.480469 4.972656 17.191406 5.382813 17.15625 5.4375 L 17 5.6875 L 17 9 L 15 9 L 15 5.6875 L 14.84375 5.4375 C 14.808594 5.382813 14.519531 4.972656 14.0625 4.65625 C 13.605469 4.339844 12.9375 4.09375 12.0625 4.03125 C 11.84375 4.015625 11.621094 4.023438 11.375 4.03125 Z M 10.90625 11 L 21.09375 11 C 21.339844 11 21.574219 11.109375 21.71875 11.3125 L 22.9375 13 L 9.0625 13 L 10.28125 11.3125 C 10.425781 11.109375 10.660156 11 10.90625 11 Z M 7.65625 15 L 24.34375 15 L 25.0625 16 C 25.042969 16 25.019531 15.996094 25 16 C 21.8125 16.515625 22 17 22 17 C 22 17 22.339844 17.492188 22.9375 17.84375 C 23.28125 18.046875 23.710938 18.019531 24.03125 18 C 24.351563 17.980469 25.023438 17.925781 25.875 17.84375 C 25.90625 17.839844 25.910156 17.816406 25.9375 17.8125 C 25.976563 18.027344 26 18.25 26 18.46875 L 26 23.125 C 25.277344 23.238281 24.199219 23.378906 22.96875 23.53125 L 20.71875 21.28125 L 20.40625 21 L 11.59375 21 L 11.28125 21.28125 L 9.03125 23.53125 C 7.800781 23.378906 6.722656 23.238281 6 23.125 L 6 18.46875 C 6 18.25 6.023438 18.027344 6.0625 17.8125 C 6.089844 17.816406 6.09375 17.839844 6.125 17.84375 C 6.976563 17.925781 7.648438 17.980469 7.96875 18 C 8.289063 18.019531 8.71875 18.046875 9.0625 17.84375 C 9.660156 17.492188 10 17 10 17 C 10 17 10.1875 16.515625 7 16 C 6.980469 15.996094 6.957031 16 6.9375 16 Z M 11 17 L 11 19 L 21 19 L 21 17 Z M 12.4375 23 L 19.5625 23 L 20.375 23.8125 C 19.035156 23.921875 17.59375 24 16 24 C 14.40625 24 12.964844 23.921875 11.625 23.8125 Z "></path>
</g>
</svg>
