<?xml version="1.0" encoding="UTF-8"?>
<svg xmlns="http://www.w3.org/2000/svg" xmlns:xlink="http://www.w3.org/1999/xlink" viewBox="0 0 32 32" version="1.1">
<g>
<path d="M 15.859375 3 C 15.71875 3 15.582031 3.023438 15.457031 3.078125 C 10.238281 3.292969 6 7.40625 6 12.550781 C 6 13.871094 6.273438 15.136719 6.78125 16.285156 C 7.109375 17.023438 7.753906 18.039063 8.589844 19.296875 C 9.425781 20.558594 10.4375 22.007813 11.414063 23.382813 C 13.371094 26.136719 15.199219 28.59375 15.199219 28.59375 L 16 29.675781 L 16.800781 28.59375 C 16.800781 28.59375 18.628906 26.136719 20.585938 23.382813 C 21.5625 22.007813 22.574219 20.558594 23.410156 19.296875 C 24.246094 18.039063 24.890625 17.023438 25.21875 16.285156 C 25.726563 15.136719 26 13.871094 26 12.550781 C 26 7.363281 21.488281 3.28125 16.25 3.078125 C 16.125 3.023438 15.992188 3 15.859375 3 Z M 15.859375 5 C 20.226563 5 24 8.429688 24 12.550781 C 24 13.597656 23.785156 14.582031 23.390625 15.476563 C 23.207031 15.890625 22.5625 16.960938 21.746094 18.191406 C 20.925781 19.421875 19.925781 20.859375 18.953125 22.222656 C 17.429688 24.371094 16.550781 25.550781 16 26.296875 C 15.449219 25.550781 14.570313 24.371094 13.046875 22.222656 C 12.074219 20.859375 11.074219 19.421875 10.253906 18.191406 C 9.4375 16.960938 8.792969 15.890625 8.609375 15.476563 C 8.214844 14.582031 8 13.597656 8 12.550781 C 8 8.390625 11.488281 5 15.859375 5 Z M 19.660156 8 C 19.550781 8 19.449219 8.050781 19.386719 8.132813 L 16.894531 11.589844 L 15.566406 10.4375 L 15.5625 10.4375 C 15.507813 10.386719 15.429688 10.355469 15.34375 10.355469 C 15.203125 10.355469 15.089844 10.4375 15.046875 10.550781 L 15.042969 10.550781 L 12.019531 17.589844 C 12.007813 17.621094 12 17.660156 12 17.695313 C 12 17.863281 12.148438 18 12.328125 18 C 12.433594 18 12.519531 17.953125 12.582031 17.886719 L 12.585938 17.886719 L 15.660156 14.472656 L 17.128906 15.578125 L 17.136719 15.578125 C 17.191406 15.621094 17.257813 15.652344 17.335938 15.652344 C 17.476563 15.652344 17.589844 15.566406 17.636719 15.453125 L 17.640625 15.449219 L 19.984375 8.40625 C 19.996094 8.375 20 8.34375 20 8.3125 C 20 8.140625 19.847656 8 19.660156 8 Z "></path>
</g>
</svg>
