<?xml version="1.0" encoding="UTF-8"?>
<svg xmlns="http://www.w3.org/2000/svg" xmlns:xlink="http://www.w3.org/1999/xlink" viewBox="0 0 32 32" version="1.1">
<g>
<path d="M 21.21875 5.0625 C 20.984375 5.058594 20.742188 5.101563 20.5 5.1875 C 20.015625 5.359375 19.597656 5.71875 19.375 6.09375 C 19.152344 6.46875 19.085938 6.839844 19.0625 7.15625 C 19.035156 7.515625 19.085938 7.601563 19.125 7.8125 C 18.964844 8.246094 18.179688 9.167969 17.28125 9.53125 C 16.574219 9.820313 15.335938 10 12.59375 10 C 10.59375 10 7.957031 10.671875 5.78125 12.75 C 3.605469 14.828125 2 18.273438 2 23.5625 L 2 24 L 2.3125 24.28125 C 2.3125 24.28125 3.363281 25.273438 5.3125 26.1875 C 7.261719 27.101563 10.171875 28 14 28 C 18.519531 28 21.535156 26.679688 23.40625 25 C 25.277344 23.320313 26 21.394531 26 20 C 26 19.242188 25.839844 18.5625 25.59375 17.96875 C 25.492188 18.027344 25.371094 18.085938 25.25 18.15625 C 24.832031 18.390625 24.390625 18.777344 23.90625 19.21875 C 23.96875 19.460938 24 19.730469 24 20 C 24 20.621094 23.558594 22.183594 22.09375 23.5 C 20.628906 24.816406 18.136719 26 14 26 C 10.480469 26 7.871094 25.179688 6.15625 24.375 C 4.683594 23.683594 4.21875 23.230469 4.03125 23.0625 C 4.132813 18.503906 5.484375 15.785156 7.15625 14.1875 C 8.894531 12.527344 11.039063 12 12.59375 12 C 14.089844 12 15.9375 12.667969 17.625 13.40625 C 19.3125 14.144531 20.734375 15 22.21875 15 C 23.101563 15 23.914063 14.714844 24.625 14.34375 C 25.335938 13.972656 25.925781 13.542969 26.34375 13 L 26.53125 12.71875 L 26.5625 12.40625 C 26.5625 12.40625 26.574219 12.238281 26.625 12.125 C 26.675781 12.011719 26.53125 12.03125 26.75 12.03125 C 26.917969 12.03125 26.933594 12.0625 26.9375 12.0625 C 26.941406 12.0625 26.945313 12.085938 26.96875 12.15625 C 27.019531 12.296875 27.03125 12.53125 27.03125 12.53125 L 26.9375 13.25 L 27.625 13.53125 C 27.625 13.53125 28 13.742188 28 13.96875 C 27.964844 13.984375 27.898438 14 27.75 14 C 27.492188 14 27.089844 13.851563 26.375 13.9375 C 25.660156 14.023438 24.851563 14.324219 23.5 15.125 C 22.023438 15.960938 20.992188 17.253906 19.75 18.25 C 18.507813 19.246094 17.152344 20 15 20 C 13.066406 20 11.78125 17.96875 11.78125 17.96875 L 10.90625 18.46875 L 10.0625 19 C 10.0625 19 11.765625 22 15 22 C 17.652344 22 19.566406 20.964844 21 19.8125 C 22.433594 18.660156 23.484375 17.449219 24.5 16.875 C 25.742188 16.140625 26.347656 15.9375 26.625 15.90625 C 26.902344 15.875 27.101563 16 27.75 16 C 29.046875 16 30 15.007813 30 13.96875 C 30 12.867188 29.40625 12.335938 28.9375 12.03125 C 28.921875 11.820313 28.972656 11.78125 28.875 11.5 C 28.761719 11.175781 28.554688 10.792969 28.1875 10.5 C 27.820313 10.207031 27.289063 10.03125 26.75 10.03125 C 25.78125 10.03125 25.066406 10.722656 24.8125 11.28125 C 24.6875 11.550781 24.71875 11.617188 24.6875 11.8125 C 24.523438 12.007813 24.152344 12.320313 23.6875 12.5625 C 23.195313 12.820313 22.648438 13 22.21875 13 C 21.945313 13 21.191406 12.753906 20.3125 12.40625 C 20.472656 12.113281 20.613281 11.835938 20.78125 11.625 C 21.953125 10.140625 22.171875 10.921875 23.59375 10.34375 C 24.792969 9.855469 25.328125 8.585938 24.9375 7.625 C 24.507813 6.570313 23.699219 6.34375 23.15625 6.25 C 23.050781 6.066406 23.089844 6.003906 22.875 5.78125 C 22.535156 5.429688 21.917969 5.070313 21.21875 5.0625 Z M 21.34375 7.03125 C 21.367188 7.046875 21.375 7.089844 21.4375 7.15625 C 21.566406 7.289063 21.65625 7.46875 21.65625 7.46875 L 21.90625 8.09375 L 22.5625 8.125 C 22.5625 8.125 22.976563 8.164063 23.0625 8.375 C 23.039063 8.40625 22.992188 8.441406 22.84375 8.5 C 22.65625 8.574219 21.679688 8.511719 20.5625 9.1875 C 20.742188 8.886719 21 8.617188 21.09375 8.28125 L 21.1875 8 L 21.09375 7.75 C 21.09375 7.75 21.046875 7.488281 21.0625 7.28125 C 21.070313 7.175781 21.085938 7.109375 21.09375 7.09375 C 21.101563 7.078125 21.082031 7.089844 21.15625 7.0625 C 21.273438 7.019531 21.320313 7.015625 21.34375 7.03125 Z M 19 10.78125 C 18.8125 11.058594 18.628906 11.335938 18.46875 11.625 C 18.445313 11.613281 18.429688 11.605469 18.40625 11.59375 C 18.265625 11.53125 18.113281 11.46875 17.96875 11.40625 C 18 11.394531 18.035156 11.386719 18.0625 11.375 C 18.421875 11.226563 18.683594 10.984375 19 10.78125 Z "></path>
</g>
</svg>
