<?xml version="1.0"?>
<svg xmlns="http://www.w3.org/2000/svg" viewBox="0 0 32 32">
    <path d="M 0.080078125 9 C 0.32007812 9.487 0.640625 10.298266 0.640625 10.947266 L 0.640625 20.689453 C 0.640625 21.174453 0.305 21.707281 0 21.988281 L 3.515625 21.988281 C 4.225625 22.004281 4.8123437 21.824219 5.2773438 21.449219 C 6.0253437 20.864219 6.4003906 19.824984 6.4003906 18.333984 C 6.4003906 17.264984 6.1867656 16.449719 5.7597656 15.886719 C 5.5837656 15.652719 5.3627031 15.472656 5.0957031 15.347656 C 4.9657031 15.285656 4.6294688 15.198922 4.4804688 15.169922 C 4.5604688 15.169922 5.0487812 14.835188 5.3007812 14.492188 C 5.7057813 13.938187 5.9199219 13.172063 5.9199219 12.164062 C 5.9199219 11.617062 5.8381719 11.103391 5.7011719 10.650391 C 5.4791719 9.9333906 5.137875 9.4566563 4.671875 9.2226562 C 4.366875 9.0736562 3.8733594 9 3.1933594 9 L 0.080078125 9 z M 11.195312 9 L 11.035156 9.6015625 C 11.035156 9.6015625 11.275625 9.375 11.515625 9.375 L 11.675781 9.375 L 11.675781 11.550781 C 11.675781 11.850781 11.482547 11.949 11.435547 12 L 12.556641 12 C 12.488641 11.952 12.316406 11.850781 12.316406 11.550781 L 12.316406 9.3769531 L 12.476562 9.3769531 C 12.716562 9.3769531 12.955078 9.6015625 12.955078 9.6015625 L 12.796875 9 L 11.195312 9 z M 14 9 C 14 9 14.080078 9.2242187 14.080078 9.4492188 L 14.080078 11.550781 C 14.080078 11.850781 14 12 14 12 L 14.720703 12 C 14.720703 12 14.640625 11.850781 14.640625 11.550781 L 14.640625 10.425781 L 15.359375 10.425781 L 15.359375 11.550781 C 15.359375 11.850781 15.279297 12 15.279297 12 L 16 12 C 16 12 15.919922 11.850781 15.919922 11.550781 C 15.919922 11.025781 15.920922 9.4492188 15.919922 9.4492188 C 15.919922 9.2242188 15.998047 9 15.998047 9 L 15.279297 9 C 15.279297 9 15.359375 9.2242188 15.359375 9.4492188 L 15.359375 10.050781 L 14.640625 10.050781 L 14.640625 9.4492188 C 14.640625 9.2242188 14.720703 9 14.720703 9 L 14 9 z M 17 9 C 17 9 17.080078 9.2242187 17.080078 9.4492188 L 17.080078 11.550781 C 17.080078 11.850781 17 12 17 12 L 18.519531 12 L 18.599609 11.400391 C 18.599609 11.400391 18.372828 11.627203 18.298828 11.658203 C 18.242828 11.681203 17.828547 11.744141 17.810547 11.744141 C 17.760547 11.744141 17.729703 11.719875 17.720703 11.671875 C 17.717703 11.648875 17.720703 10.574219 17.720703 10.574219 L 17.960938 10.574219 C 18.200937 10.574219 18.359375 10.650391 18.359375 10.650391 L 18.359375 10.125 C 18.359375 10.125 18.200937 10.199219 17.960938 10.199219 L 17.720703 10.199219 L 17.720703 9.3007812 L 18.199219 9.3007812 C 18.359219 9.3007812 18.400453 9.3922188 18.439453 9.4492188 L 18.519531 9 L 17 9 z M 3.0390625 9.8125 C 3.4130625 9.7895 3.7250156 10.086625 3.9160156 10.640625 C 4.0760156 11.101625 4.1601562 11.617125 4.1601562 12.328125 C 4.1601562 12.921125 4.0293438 13.474609 3.7773438 13.849609 C 3.5633438 14.177609 3.3060625 14.357422 3.0390625 14.357422 C 2.8020625 14.357422 2.566 14.339094 2.375 14.246094 L 2.375 9.8730469 C 2.65 9.8340469 2.8790625 9.8275 3.0390625 9.8125 z M 30.019531 13.876953 C 29.061531 13.845953 28.387609 14.3245 28.099609 15.3125 C 28.042609 15.5065 28.010953 15.70525 28.001953 15.90625 C 27.992953 16.11025 28.009781 16.317297 28.050781 16.529297 C 28.171781 17.126297 28.526625 17.592687 29.015625 17.929688 C 29.698625 18.404688 30.213109 18.695703 30.537109 19.345703 C 30.615109 19.529703 30.662109 19.734125 30.662109 19.953125 C 30.662109 20.707125 30.267391 21.373047 29.525391 21.373047 C 29.523391 21.373047 29.478922 21.376953 29.419922 21.376953 C 28.690922 21.376953 28.228516 20.787953 28.228516 20.126953 C 28.228516 19.932953 28.318359 19.663563 28.318359 19.601562 C 28.318359 19.551562 28.300047 19.498047 28.248047 19.498047 C 28.160047 19.498047 28.016453 19.623047 27.939453 19.748047 C 27.818453 19.947047 27.748047 20.159453 27.748047 20.564453 C 27.748047 21.067453 28.006437 21.566516 28.398438 21.853516 C 28.798437 22.145516 29.232969 22.248047 29.667969 22.248047 C 30.431969 22.248047 31.016781 22.003672 31.425781 21.513672 C 31.808781 21.055672 32 20.423141 32 19.619141 C 32 18.761141 31.598922 18.057859 30.794922 17.505859 C 30.459922 17.291859 30.126828 17.073563 29.798828 16.851562 C 29.400828 16.508563 29.242187 16.249313 29.242188 15.820312 C 29.242188 15.460313 29.378266 15.181234 29.572266 14.990234 C 29.733266 14.829234 29.968453 14.752766 30.189453 14.759766 C 30.477453 14.774766 30.680063 14.839672 30.914062 15.013672 C 31.139063 15.181672 31.285156 15.367188 31.285156 15.367188 L 31.642578 14.123047 C 31.568578 14.230047 31.444422 14.298828 31.357422 14.298828 C 31.297422 14.298828 31.12475 14.260328 30.84375 14.111328 C 30.56275 13.962328 30.287531 13.884953 30.019531 13.876953 z M 12.160156 13.998047 C 12.353156 14.066047 12.441406 14.234047 12.441406 14.498047 C 12.441406 14.687047 12.398922 15.011656 12.294922 15.472656 C 12.175922 16.008656 12.0565 16.544078 11.9375 17.080078 L 11.626953 18.599609 C 11.337953 20.027609 11.147594 20.887641 11.058594 21.181641 C 10.940594 21.614641 10.780078 21.887 10.580078 22 L 11.28125 22 L 11.970703 22 C 12.185703 21.992 12.330297 21.992 12.404297 22 C 12.322297 21.922 12.240203 21.917375 12.283203 21.609375 C 12.292203 21.543375 12.39625 20.864 12.53125 20 L 13.765625 20 C 13.897625 20.941 14 21.691 14 21.75 C 14 21.917 13.830078 22 13.830078 22 L 16 22 C 15.681 21.841 15.439844 21.166531 14.964844 18.769531 C 14.964844 18.769531 14.534797 16.548141 14.341797 15.619141 C 14.245797 15.166141 14.240234 14.855016 14.240234 14.666016 C 14.240234 14.334016 14.341859 14.104047 14.630859 13.998047 L 13.996094 13.998047 L 13.384766 13.998047 L 12.728516 13.998047 L 12.160156 13.998047 z M 19.75 13.998047 C 19.922 14.332047 20.001953 14.833562 20.001953 15.351562 L 20.001953 20.517578 C 20.001953 21.166578 19.921719 21.667 19.761719 22 L 23.201172 22 C 23.201172 22 23.359406 20.746984 23.441406 20.333984 C 23.315406 20.468984 22.561797 21.167969 21.841797 21.167969 C 21.693797 21.167969 21.375 21.125 21.375 20.125 L 21.375 14.623047 C 21.375 14.290047 21.588 14.066047 21.625 13.998047 L 19.75 13.998047 z M 6.75 14 C 6.75 14 7 14.292 7 14.625 L 7 21.125 C 7 21.125 6.9900781 21.583 6.8300781 22 L 10.5 22 C 10.5 22 10.697188 20.824562 10.742188 20.476562 C 10.423188 20.809562 10.171328 21.018563 9.9863281 21.101562 C 9.8453281 21.161563 9.375 21.25 8.625 21.375 C 8.501 21.396 8.397 21.254 8.375 21.125 L 8.375 17.875 L 9.1757812 17.875 C 9.4957812 17.875 9.852 17.879 10 18 L 10 16.75 C 9.867 16.833 9.57 17 9.25 17 L 8.375 17 L 8.375 14.75 L 9.75 14.75 C 10.07 14.75 10.153 14.973 10.25 15.125 L 10.419922 14 L 6.75 14 z M 15.394531 14 C 15.394531 14 15.001953 15.768625 15.001953 15.890625 C 15.067953 15.719625 15.390719 15.203125 16.011719 15.203125 L 16.636719 15.203125 L 16.636719 23.625 C 16.636719 24.009 16.558672 24.484 16.013672 25 L 18.613281 25 C 18.068281 24.484 17.990234 24.009 17.990234 23.625 L 17.990234 15.203125 L 18.496094 15.203125 C 19.236094 15.203125 19.449953 15.654625 19.626953 15.890625 C 19.522953 15.467625 19.236328 14 19.236328 14 L 15.394531 14 z M 23.507812 14 C 23.507812 14 23.757812 14.292 23.757812 14.625 L 23.757812 21.125 C 23.757813 21.125 23.747891 21.583 23.587891 22 L 27.257812 22 C 27.257812 22 27.456953 20.824562 27.501953 20.476562 C 27.182953 20.809562 26.929141 21.018563 26.744141 21.101562 C 26.603141 21.161563 26.132812 21.25 25.382812 21.375 C 25.258813 21.396 25.154812 21.254 25.132812 21.125 L 25.132812 17.875 L 25.933594 17.875 C 26.253594 17.875 26.609813 17.879 26.757812 18 L 26.757812 16.75 C 26.624813 16.833 26.327813 17 26.007812 17 L 25.132812 17 L 25.132812 14.75 L 26.507812 14.75 C 26.827812 14.75 26.910812 14.973 27.007812 15.125 L 27.177734 14 L 23.507812 14 z M 3.0390625 15.494141 C 3.4740625 15.494141 3.8586875 15.821375 4.1796875 16.484375 C 4.4546875 17.062375 4.5605469 17.687859 4.5605469 18.255859 C 4.5605469 20.203859 4 21.126953 3.25 21.126953 C 2.93 21.126953 2.732375 21.111609 2.609375 20.974609 C 2.487375 20.837609 2.375 20.599234 2.375 20.240234 L 2.375 15.619141 C 2.772 15.518141 3.0240625 15.494141 3.0390625 15.494141 z M 13.173828 15.880859 C 13.173828 15.880859 13.417625 17.562 13.640625 19.125 L 12.667969 19.125 C 12.907969 17.577 13.173828 15.880859 13.173828 15.880859 z"></path>
</svg>
