<?xml version="1.0" encoding="UTF-8"?>
<svg xmlns="http://www.w3.org/2000/svg" xmlns:xlink="http://www.w3.org/1999/xlink" viewBox="0 0 32 32" version="1.1">
<g>
<path d="M 25 2 L 12 15 L 16 15 L 11 21 L 14 21 L 8 30 L 20 18 L 17 18 L 22 12 L 18 12 Z M 16 5 C 9.933594 5 5 9.933594 5 16 C 5 19.492188 6.644531 22.609375 9.1875 24.625 L 10.25 23 L 10.25 22.90625 C 8.269531 21.253906 7 18.773438 7 16 C 7 11.039063 11.035156 7 16 7 C 16.371094 7 16.734375 7.019531 17.09375 7.0625 L 18.8125 5.375 C 17.917969 5.140625 16.96875 5 16 5 Z M 23.34375 7.84375 L 22.1875 9.5 C 23.910156 11.140625 25 13.441406 25 16 C 25 20.960938 20.964844 25 16 25 C 15.945313 25 15.898438 25 15.84375 25 L 14.03125 26.8125 C 14.675781 26.929688 15.320313 27 16 27 C 22.066406 27 27 22.066406 27 16 C 27 12.761719 25.578125 9.859375 23.34375 7.84375 Z "></path>
</g>
</svg>
