<?xml version="1.0" encoding="UTF-8"?>
<svg xmlns="http://www.w3.org/2000/svg" xmlns:xlink="http://www.w3.org/1999/xlink" viewBox="0 0 32 32" version="1.1">
<g>
<path d="M 25.90625 17.476563 C 22.605469 17.113281 18.476563 12.523438 18.476563 12.523438 L 19.097656 12.523438 C 20.695313 13.472656 21.300781 14.382813 21.300781 14.382813 C 21.300781 14.382813 21.574219 13.660156 21.574219 13.144531 C 21.574219 13.144531 23.078125 13.21875 23.761719 15 C 24.125 14.226563 24.050781 13.5 24.050781 13.5 C 24.050781 13.5 25.40625 14.496094 25.621094 15.617188 C 26.019531 14.46875 25.90625 13.761719 25.90625 13.761719 C 27.082031 14.144531 27.476563 16.238281 27.476563 16.238281 C 27.476563 16.238281 27.765625 15.933594 27.765625 15 C 28.695313 15.800781 28.382813 16.855469 28.382813 16.855469 C 28.382813 16.855469 29.089844 16 29.003906 14.382813 C 28.914063 12.761719 26.527344 11.90625 26.527344 11.90625 L 24.285156 11.007813 C 23.886719 10.847656 23.726563 10.386719 23.910156 9.996094 C 23.992188 9.824219 24.050781 9.628906 24.050781 9.429688 C 24.050781 8.777344 20.265625 3.859375 14.144531 3.859375 C 14.144531 3.859375 18.476563 4.820313 18.476563 6.335938 C 18.476563 7.847656 17.238281 7.570313 17.238281 7.570313 C 17.238281 7.570313 9.875 7.246094 7.335938 2 C 7.335938 2 8.152344 6.488281 14.097656 8.445313 C 12.65625 8.695313 11.453125 9.109375 10.453125 9.632813 C 10.09375 9.519531 9.511719 9.429688 8.574219 9.429688 C 6.136719 9.429688 4.242188 11.285156 4.242188 11.285156 C 4.242188 11.285156 5.523438 10.667969 7.335938 10.667969 C 7.976563 10.667969 8.394531 10.746094 8.667969 10.84375 C 7.832031 11.5625 7.214844 12.359375 6.761719 13.144531 C 6.746094 13.144531 6.734375 13.144531 6.71875 13.144531 C 3.714844 13.144531 3.003906 16.238281 3.003906 16.238281 C 3.796875 15.015625 5.429688 14.972656 5.9375 14.992188 C 5.480469 16.40625 5.480469 17.476563 5.480469 17.476563 C 2.972656 18.425781 3.003906 21.808594 3.003906 21.808594 C 3.558594 19.796875 4.96875 19.398438 5.679688 19.332031 C 5.84375 20.105469 6.101563 20.804688 6.40625 21.449219 C 4.773438 22.945313 4.859375 25.523438 4.859375 25.523438 C 5.699219 23.273438 6.992188 23.066406 7.277344 23.050781 C 8.226563 24.640625 9 26.078125 9 28 L 23 28 C 23 20.320313 12.90625 22.335938 12.90625 16.855469 C 12.90625 16.855469 12.988281 14.265625 16.003906 13.144531 C 16.003906 13.144531 17.992188 19.332031 21.574219 19.332031 C 22.0625 19.332031 22.527344 18.921875 22.8125 18.714844 C 21.238281 18.714844 20.335938 18.09375 20.335938 18.09375 C 20.335938 18.09375 21.445313 17.785156 21.574219 17.476563 C 20.488281 17.527344 19.714844 16.855469 19.714844 16.855469 C 19.714844 16.855469 20.386719 16.804688 20.953125 16.238281 C 18.824219 16.164063 18.160156 14.289063 17.953125 13.234375 C 18.546875 13.796875 22.097656 17.105469 24.667969 18.09375 C 27.480469 19.179688 27.710938 19.410156 27.761719 19.953125 C 27.867188 18.921875 26.910156 18.402344 26.523438 18.09375 C 27.890625 18.09375 29 18.714844 29 18.714844 C 28.304688 17.914063 27.96875 17.703125 25.90625 17.476563 Z M 27.765625 13.761719 C 26.546875 13.761719 26.527344 12.523438 26.527344 12.523438 C 26.527344 12.523438 27.765625 12.652344 27.765625 13.761719 Z M 22.191406 10 L 21.332031 10 C 21.097656 10 20.773438 9.863281 20.605469 9.699219 L 19.71875 8.808594 C 19.71875 8.808594 21.933594 8.632813 22.191406 10 Z "></path>
</g>
</svg>
