<?xml version="1.0" encoding="UTF-8"?>
<svg xmlns="http://www.w3.org/2000/svg" xmlns:xlink="http://www.w3.org/1999/xlink" viewBox="0 0 32 32" version="1.1">
<g>
<path d="M 16 2 C 13.738281 2 12.039063 3.5 10.578125 4.90625 C 9.121094 6.3125 7.785156 7.683594 6.683594 8.050781 L 6 8.28125 L 6 9 C 6 13.824219 6.875 15.386719 7.960938 17.195313 C 6.820313 17.621094 6 18.714844 6 20 C 6 21.320313 6.859375 22.445313 8.046875 22.84375 C 8.46875 26.859375 11.875 30 16 30 C 20.125 30 23.53125 26.859375 23.953125 22.84375 C 25.140625 22.445313 26 21.320313 26 20 C 26 18.699219 25.160156 17.59375 24 17.179688 C 24.652344 15.34375 25.128906 14.375 25.476563 13.308594 C 25.835938 12.207031 26 11.050781 26 9 L 26 8.28125 L 25.316406 8.050781 C 24.214844 7.683594 22.878906 6.3125 21.421875 4.90625 C 19.960938 3.5 18.261719 2 16 2 Z M 15 4.179688 L 15 9 L 12 9 L 12 11 L 15 11 L 15 16 L 9.605469 16 C 8.648438 14.441406 8.105469 13.320313 8.046875 9.5 C 9.546875 8.738281 10.78125 7.492188 11.96875 6.34375 C 13.011719 5.339844 14.003906 4.523438 15 4.179688 Z M 17 4.179688 C 17.996094 4.523438 18.988281 5.339844 20.03125 6.34375 C 21.21875 7.488281 22.449219 8.730469 23.941406 9.496094 C 23.910156 10.945313 23.828125 11.914063 23.574219 12.691406 C 23.332031 13.441406 22.847656 14.5625 22.3125 16 L 17 16 L 17 11 L 20 11 L 20 9 L 17 9 Z M 10 18 L 22 18 L 22 19 L 23 19 C 23.550781 19 24 19.449219 24 20 C 24 20.550781 23.550781 21 23 21 L 22 21 L 22 22 C 22 25.308594 19.308594 28 16 28 C 12.691406 28 10 25.308594 10 22 L 10 21 L 9 21 C 8.449219 21 8 20.550781 8 20 C 8 19.449219 8.449219 19 9 19 L 10 19 Z M 13 19 C 12.449219 19 12 19.449219 12 20 C 12 20.550781 12.449219 21 13 21 C 13.550781 21 14 20.550781 14 20 C 14 19.449219 13.550781 19 13 19 Z M 19 19 C 18.449219 19 18 19.449219 18 20 C 18 20.550781 18.449219 21 19 21 C 19.550781 21 20 20.550781 20 20 C 20 19.449219 19.550781 19 19 19 Z "></path>
</g>
</svg>
