<?xml version="1.0" encoding="UTF-8"?>
<svg xmlns="http://www.w3.org/2000/svg" xmlns:xlink="http://www.w3.org/1999/xlink" viewBox="0 0 32 32" version="1.1">
<g>
<path d="M 16 3 C 11.042969 3 7 7.042969 7 12 L 7 13 C 6.316406 13 5.703125 13.324219 5.34375 13.84375 C 5.261719 13.769531 5.214844 13.675781 5.15625 13.5625 C 5.027344 13.300781 5 13 5 13 L 5 7 L 3 7 L 3 13 C 3 13 2.972656 13.699219 3.34375 14.4375 C 3.636719 15.023438 4.296875 15.664063 5.21875 15.90625 C 5.550781 16.554688 6.222656 17 7 17 C 7.054688 17 7.105469 17.003906 7.15625 17 C 7.496094 19.335938 8.378906 21.808594 9.59375 23.9375 C 11.164063 26.683594 13.308594 29 16 29 C 18.679688 29 20.835938 26.730469 22.40625 24 C 23.628906 21.875 24.507813 19.378906 24.84375 17 C 24.894531 17.003906 24.945313 17 25 17 C 25.777344 17 26.449219 16.554688 26.78125 15.90625 C 27.703125 15.664063 28.363281 15.023438 28.65625 14.4375 C 29.027344 13.699219 29 13 29 13 L 29 7 L 27 7 L 27 13 C 27 13 26.972656 13.300781 26.84375 13.5625 C 26.785156 13.675781 26.738281 13.769531 26.65625 13.84375 C 26.296875 13.324219 25.683594 13 25 13 L 25 12 C 25 7.042969 20.957031 3 16 3 Z M 16 5 C 19.285156 5 22.019531 7.242188 22.78125 10.28125 L 16.03125 11.96875 L 9.28125 10.03125 C 10.125 7.117188 12.804688 5 16 5 Z M 9 12.0625 L 15 13.75 L 15 14.5 L 11.90625 16.8125 L 9 15.375 C 8.996094 15.25 9 15.121094 9 15 Z M 23 12.28125 L 23 15 C 23 15.121094 23.003906 15.25 23 15.375 L 20.09375 16.8125 L 17 14.5 L 17 13.78125 Z M 10 14 C 10 14 10.15625 16 12 16 C 13.621094 16 14 15 14 15 Z M 22 14 L 18 15 C 18 15 18.378906 16 20 16 C 21.84375 16 22 14 22 14 Z M 16 16.25 L 19.40625 18.8125 L 19.90625 19.15625 L 20.4375 18.90625 L 22.65625 17.78125 C 22.273438 19.566406 21.59375 21.425781 20.6875 23 C 19.289063 25.429688 17.445313 27 16 27 C 14.566406 27 12.710938 25.417969 11.3125 22.96875 C 10.421875 21.410156 9.730469 19.558594 9.34375 17.8125 L 11.5625 18.90625 L 12.09375 19.15625 L 12.59375 18.8125 Z M 16 20 C 13.9375 20 12.40625 21.1875 12.40625 21.1875 L 13.59375 22.8125 C 13.59375 22.8125 14.738281 22 16 22 C 17.261719 22 18.40625 22.8125 18.40625 22.8125 L 19.59375 21.1875 C 19.59375 21.1875 18.0625 20 16 20 Z "></path>
</g>
</svg>
