<?xml version="1.0" encoding="UTF-8"?>
<svg xmlns="http://www.w3.org/2000/svg" xmlns:xlink="http://www.w3.org/1999/xlink" viewBox="0 0 32 32" version="1.1">
<g>
<path d="M 7 4 L 7 7 L 5 7 L 5 9 L 7 9 L 7 10 L 5 10 L 5 12 L 7 12 L 7 13 L 5 13 L 5 15 L 7 15 L 7 17 C 5.261719 18.050781 4 19.828125 4 22 C 4 25.300781 6.699219 28 10 28 C 13.300781 28 16 25.300781 16 22 C 16 19.828125 14.738281 18.050781 13 17 L 13 4 Z M 9 6 L 11 6 L 11 7 L 9 7 Z M 9 9 L 11 9 L 11 18.0625 L 11.59375 18.34375 C 13.003906 18.960938 14 20.351563 14 22 C 14 24.21875 12.21875 26 10 26 C 7.78125 26 6 24.21875 6 22 C 6 20.351563 6.996094 18.960938 8.40625 18.34375 L 9 18.0625 Z M 21.875 18.9375 L 21.875 20.78125 L 22.34375 20.78125 C 21.761719 21.152344 21.230469 21.648438 20.84375 22.21875 L 20.84375 21.9375 L 18.84375 21.9375 L 18.84375 23.8125 L 20.15625 23.8125 C 20.0625 24.195313 20 24.585938 20 25 C 20 25.414063 20.0625 25.804688 20.15625 26.1875 L 18.84375 26.1875 L 18.84375 28.0625 L 20.84375 28.0625 L 20.84375 27.78125 C 21.230469 28.351563 21.761719 28.847656 22.34375 29.21875 L 21.875 29.21875 L 21.875 31.0625 L 23.875 31.0625 L 23.875 29.875 C 24.238281 29.960938 24.609375 30 25 30 C 25.390625 30 25.761719 29.960938 26.125 29.875 L 26.125 31.0625 L 28.125 31.0625 L 28.125 29.21875 L 27.65625 29.21875 C 28.238281 28.847656 28.769531 28.351563 29.15625 27.78125 L 29.15625 28.0625 L 31.15625 28.0625 L 31.15625 26.1875 L 29.84375 26.1875 C 29.9375 25.804688 30 25.414063 30 25 C 30 24.585938 29.9375 24.195313 29.84375 23.8125 L 31.15625 23.8125 L 31.15625 21.9375 L 29.15625 21.9375 L 29.15625 22.21875 C 28.769531 21.648438 28.238281 21.152344 27.65625 20.78125 L 28.125 20.78125 L 28.125 18.9375 L 26.125 18.9375 L 26.125 20.125 C 25.761719 20.039063 25.390625 20 25 20 C 24.609375 20 24.238281 20.039063 23.875 20.125 L 23.875 18.9375 Z M 25 22 C 26.652344 22 28 23.347656 28 25 C 28 26.652344 26.652344 28 25 28 C 23.347656 28 22 26.652344 22 25 C 22 23.347656 23.347656 22 25 22 Z "></path>
</g>
</svg>
