<?xml version="1.0" encoding="UTF-8"?>
<svg xmlns="http://www.w3.org/2000/svg" xmlns:xlink="http://www.w3.org/1999/xlink" viewBox="0 0 32 32" version="1.1">
<g>
<path d="M 7.5 6.90625 C 5.535156 6.90625 3.90625 8.535156 3.90625 10.5 C 3.90625 12.464844 5.535156 14.09375 7.5 14.09375 C 9.464844 14.09375 11.09375 12.464844 11.09375 10.5 C 11.09375 8.535156 9.464844 6.90625 7.5 6.90625 Z M 7.5 9.09375 C 8.296875 9.09375 8.90625 9.703125 8.90625 10.5 C 8.90625 11.296875 8.296875 11.90625 7.5 11.90625 C 6.703125 11.90625 6.09375 11.296875 6.09375 10.5 C 6.09375 9.703125 6.703125 9.09375 7.5 9.09375 Z M 3.625 13.21875 L 2.375 14.78125 L 10.8125 21.34375 L 9 25 L 11 25 L 12.5 22 L 24.5 22 L 26 25 L 28 25 L 26.5 22 L 29 22 L 29 20 L 12.34375 20 Z M 10.09375 13.6875 L 8.875 15.28125 L 13.125 18.59375 L 13.125 18.5625 L 13.15625 18.5625 C 13.503906 18.824219 13.910156 19 14.34375 19 L 18.6875 19 C 19.082031 19 19.484375 18.875 19.8125 18.65625 L 22.15625 17.09375 L 27.6875 18.9375 L 28.3125 17.0625 L 22.78125 15.21875 C 22.199219 15.027344 21.542969 15.097656 21.03125 15.4375 L 18.6875 17 L 14.34375 17 Z "></path>
</g>
</svg>
