<?xml version="1.0" encoding="UTF-8"?>
<svg xmlns="http://www.w3.org/2000/svg" xmlns:xlink="http://www.w3.org/1999/xlink" viewBox="0 0 32 32" version="1.1">
<g>
<path d="M 27 4 L 27 15 L 29 17.5 L 29 4 Z M 10.5 15 L 10.1875 15.40625 L 7.5 19 L 5.5 19 C 4.132813 19 3 20.132813 3 21.5 C 3 22.867188 4.132813 24 5.5 24 C 6.074219 24 6.578125 23.898438 7 23.75 L 7 27 L 29 27 L 29 19.65625 L 25.8125 15.40625 L 25.5 15 Z M 11.5 17 L 24.5 17 L 26 19 L 10 19 Z M 5.5 21 L 7 21 L 7 21.375 C 7 21.375 6.992188 21.453125 6.78125 21.625 C 6.570313 21.796875 6.214844 22 5.5 22 C 5.214844 22 5 21.785156 5 21.5 C 5 21.214844 5.214844 21 5.5 21 Z M 9 21 L 27 21 L 27 25 L 9 25 Z M 14 22 C 13.449219 22 13 22.449219 13 23 C 13 23.550781 13.449219 24 14 24 C 14.550781 24 15 23.550781 15 23 C 15 22.449219 14.550781 22 14 22 Z M 18 22 C 17.449219 22 17 22.449219 17 23 C 17 23.550781 17.449219 24 18 24 C 18.550781 24 19 23.550781 19 23 C 19 22.449219 18.550781 22 18 22 Z M 22 22 C 21.449219 22 21 22.449219 21 23 C 21 23.550781 21.449219 24 22 24 C 22.550781 24 23 23.550781 23 23 C 23 22.449219 22.550781 22 22 22 Z "></path>
</g>
</svg>
