<?xml version="1.0" encoding="UTF-8"?>
<svg xmlns="http://www.w3.org/2000/svg" xmlns:xlink="http://www.w3.org/1999/xlink" viewBox="0 0 32 32" version="1.1">
<g>
<path d="M 17 4 L 17 7.21875 C 17.714844 7.375 18.382813 7.625 19 7.96875 L 19 6 L 26 6 L 26 10 L 21.34375 10 C 21.808594 10.582031 22.25 11.25 22.625 12 L 28 12 L 28 4 Z M 14 6 C 10.390625 6 6.746094 6.25 4.09375 9.0625 C 1.441406 11.875 0 16.902344 0 26 L 0 27 L 8.65625 27 C 9.644531 27.625 10.757813 28 12 28 C 13.238281 28 14.355469 27.617188 15.34375 27 L 24 27 L 24 26 C 24 17.894531 22.667969 13.433594 20.8125 10.90625 C 19.183594 8.6875 17.214844 8.230469 15.78125 8.125 L 14.875 6.5 L 14.59375 6 Z M 21 7 C 20.449219 7 20 7.449219 20 8 C 20 8.550781 20.449219 9 21 9 C 21.550781 9 22 8.550781 22 8 C 22 7.449219 21.550781 7 21 7 Z M 24 7 C 23.449219 7 23 7.449219 23 8 C 23 8.550781 23.449219 9 24 9 C 24.550781 9 25 8.550781 25 8 C 25 7.449219 24.550781 7 24 7 Z M 13.4375 8.0625 L 14.25 9.5 L 14.53125 10 L 15.125 10 C 16.265625 10 17.773438 10.121094 19.21875 12.09375 C 20.597656 13.972656 21.847656 17.839844 21.96875 25 L 17.5625 25 C 17.671875 24.859375 17.773438 24.707031 17.875 24.5625 C 19.234375 22.625 20 20.207031 20 18 L 18 18 C 18 19.722656 17.355469 21.828125 16.25 23.40625 C 15.144531 24.984375 13.664063 26 12 26 C 10.335938 26 8.855469 24.988281 7.75 23.40625 C 6.644531 21.824219 6 19.710938 6 18 C 6 17.554688 6.085938 17.332031 6.21875 17.15625 C 6.351563 16.980469 6.585938 16.828125 6.9375 16.6875 C 7.644531 16.410156 8.835938 16.292969 10.09375 16.1875 C 11.351563 16.082031 12.664063 15.980469 13.84375 15.4375 C 15.023438 14.894531 16 13.660156 16 12 L 14 12 C 14 13.042969 13.726563 13.304688 13.03125 13.625 C 12.335938 13.945313 11.148438 14.082031 9.90625 14.1875 C 8.664063 14.292969 7.355469 14.351563 6.1875 14.8125 C 5.601563 15.042969 5.039063 15.390625 4.625 15.9375 C 4.210938 16.484375 4 17.214844 4 18 C 4 20.199219 4.769531 22.589844 6.125 24.53125 C 6.234375 24.6875 6.347656 24.847656 6.46875 25 L 2.03125 25 C 2.152344 16.851563 3.582031 12.539063 5.5625 10.4375 C 7.507813 8.375 10.203125 8.097656 13.4375 8.0625 Z M 9 18 C 8.449219 18 8 18.449219 8 19 C 8 19.550781 8.449219 20 9 20 C 9.550781 20 10 19.550781 10 19 C 10 18.449219 9.550781 18 9 18 Z M 15 18 C 14.449219 18 14 18.449219 14 19 C 14 19.550781 14.449219 20 15 20 C 15.550781 20 16 19.550781 16 19 C 16 18.449219 15.550781 18 15 18 Z "></path>
</g>
</svg>
