<?xml version="1.0" encoding="UTF-8"?>
<svg xmlns="http://www.w3.org/2000/svg" xmlns:xlink="http://www.w3.org/1999/xlink" viewBox="0 0 32 32" version="1.1">
<g>
<path d="M 14 2.59375 L 3.59375 13 L 4.28125 13.71875 L 6.28125 15.71875 L 7 16.40625 L 8 15.40625 L 10.59375 18 L 5 23.59375 L 4.40625 23 L 3 24.40625 L 7.5625 28.96875 L 8.96875 27.5625 L 8.40625 27 L 14 21.40625 L 16.59375 24 L 15.59375 25 L 16.28125 25.71875 L 18.28125 27.71875 L 19 28.40625 L 29.40625 18 L 28.71875 17.28125 L 26.71875 15.28125 L 26 14.59375 L 25 15.59375 L 16.40625 7 L 17.40625 6 L 16.71875 5.28125 L 14.71875 3.28125 Z M 14 5.40625 L 14.59375 6 L 7 13.59375 L 6.40625 13 Z M 15 8.4375 L 23.5625 17 L 18 22.5625 L 14.6875 19.28125 L 12 16.59375 L 9.4375 14 Z M 18 13 L 14 14 L 16 16 L 14 17 L 19 17 L 17 15 L 20 15 Z M 26 17.40625 L 26.59375 18 L 19 25.59375 L 18.40625 25 Z M 12 19.4375 L 12.5625 20 L 7 25.5625 L 6.4375 25 Z "></path>
</g>
</svg>
