<?xml version="1.0" encoding="UTF-8"?>
<svg xmlns="http://www.w3.org/2000/svg" xmlns:xlink="http://www.w3.org/1999/xlink" viewBox="0 0 32 32" version="1.1">
<g>
<path d="M 17 4 C 15.355469 4 14 5.355469 14 7 L 16 7 C 16 6.445313 16.445313 6 17 6 C 17.554688 6 18 6.445313 18 7 C 18 7.554688 17.554688 8 17 8 L 16 8 L 16 10 L 17 10 C 17.554688 10 18 10.445313 18 11 C 18 11.554688 17.554688 12 17 12 C 16.445313 12 16 11.554688 16 11 L 14 11 C 14 12.644531 15.355469 14 17 14 C 18.644531 14 20 12.644531 20 11 C 20 10.234375 19.699219 9.53125 19.21875 9 C 19.699219 8.46875 20 7.765625 20 7 C 20 5.355469 18.644531 4 17 4 Z M 6.5 11 C 5.117188 11 4 12.117188 4 13.5 L 4 28 L 9 28 L 9 26 L 23 26 L 23 28 L 28 28 L 28 19 C 28 17.355469 26.644531 16 25 16 L 9 16 L 9 13.5 C 9 12.117188 7.882813 11 6.5 11 Z M 6.5 13 C 6.714844 13 7 13.285156 7 13.5 L 7 22 L 26 22 L 26 26 L 25 26 L 25 24 L 7 24 L 7 26 L 6 26 L 6 13.5 C 6 13.285156 6.285156 13 6.5 13 Z M 9 18 L 12 18 L 12 20 L 9 20 Z M 14 18 L 25 18 C 25.554688 18 26 18.445313 26 19 L 26 20 L 14 20 Z "></path>
</g>
</svg>
