<?xml version="1.0" encoding="UTF-8"?>
<svg xmlns="http://www.w3.org/2000/svg" xmlns:xlink="http://www.w3.org/1999/xlink" viewBox="0 0 32 32" version="1.1">
<g>
<path d="M 15 6 L 15 9 L 8 9 C 6.90625 9 6 9.90625 6 11 L 6 13 L 8 13 L 8 11 L 24 11 L 24 13 L 26 13 L 26 11 C 26 9.90625 25.09375 9 24 9 L 17 9 L 17 6 Z M 3 14 L 3 26 L 29 26 L 29 14 Z M 5 16 L 27 16 L 27 24 L 5 24 Z M 7 18 L 7 22 L 11 22 L 11 18 Z M 14 18 L 14 22 L 18 22 L 18 18 Z M 21 18 L 21 22 L 25 22 L 25 18 Z "></path>
</g>
</svg>
