<?xml version="1.0" encoding="UTF-8"?>
<svg xmlns="http://www.w3.org/2000/svg" xmlns:xlink="http://www.w3.org/1999/xlink" viewBox="0 0 32 32" version="1.1">
<g>
<path d="M 16 4 C 9.300781 4 4 9.894531 4 15.8125 C 4 18.378906 5.179688 20.480469 7 22.03125 L 7 23 C 7 24.644531 8.355469 26 10 26 L 11 26 C 11 27.644531 12.355469 29 14 29 L 18 29 C 19.644531 29 21 27.644531 21 26 L 22 26 C 23.644531 26 25 24.644531 25 23 L 25 22.03125 C 26.820313 20.480469 28 18.378906 28 15.8125 C 28 9.894531 22.699219 4 16 4 Z M 16 6 C 21.5 6 26 11.128906 26 15.8125 C 26 18.019531 25.089844 19.667969 23.40625 20.90625 L 23 21.1875 L 23 23 C 23 23.554688 22.554688 24 22 24 L 19 24 L 19 26 C 19 26.554688 18.554688 27 18 27 L 14 27 C 13.445313 27 13 26.554688 13 26 L 13 24 L 10 24 C 9.445313 24 9 23.554688 9 23 L 9 21.1875 L 8.59375 20.90625 C 6.910156 19.667969 6 18.019531 6 15.8125 C 6 11.128906 10.5 6 16 6 Z M 12 15 C 10.355469 15 9 16.355469 9 18 C 9 19.644531 10.355469 21 12 21 C 13.644531 21 15 19.644531 15 18 C 15 16.355469 13.644531 15 12 15 Z M 20 15 C 18.355469 15 17 16.355469 17 18 C 17 19.644531 18.355469 21 20 21 C 21.644531 21 23 19.644531 23 18 C 23 16.355469 21.644531 15 20 15 Z M 12 17 C 12.5625 17 13 17.4375 13 18 C 13 18.5625 12.5625 19 12 19 C 11.4375 19 11 18.5625 11 18 C 11 17.4375 11.4375 17 12 17 Z M 20 17 C 20.5625 17 21 17.4375 21 18 C 21 18.5625 20.5625 19 20 19 C 19.4375 19 19 18.5625 19 18 C 19 17.4375 19.4375 17 20 17 Z M 16 20.8125 C 15.398438 20.914063 14.40625 22.507813 14.40625 23.40625 C 14.40625 23.804688 14.800781 24 15 24 C 15.5 24 15.898438 23.492188 16 23.09375 C 16.101563 23.492188 16.398438 24 17 24 C 17.398438 24 17.59375 23.804688 17.59375 23.40625 C 17.59375 22.507813 16.601563 20.914063 16 20.8125 Z "></path>
</g>
</svg>
