<?xml version="1.0" encoding="UTF-8"?>
<svg xmlns="http://www.w3.org/2000/svg" xmlns:xlink="http://www.w3.org/1999/xlink" viewBox="0 0 32 32" version="1.1">
<g>
<path d="M 28 3 C 23.09375 3 19.613281 4.03125 17.1875 5.34375 L 17.15625 5.34375 L 16.53125 5.71875 C 16.5 5.738281 16.46875 5.761719 16.4375 5.78125 C 16.070313 6.011719 15.71875 6.230469 15.40625 6.46875 C 15.308594 6.542969 15.214844 6.613281 15.125 6.6875 C 15.113281 6.695313 15.105469 6.710938 15.09375 6.71875 C 15.058594 6.75 15.035156 6.78125 15 6.8125 C 14.695313 7.066406 14.40625 7.3125 14.15625 7.5625 C 14.117188 7.601563 14.070313 7.648438 14.03125 7.6875 C 13.886719 7.839844 13.75 8.007813 13.625 8.15625 C 13.488281 8.3125 13.332031 8.476563 13.21875 8.625 C 13.007813 8.902344 12.835938 9.167969 12.6875 9.40625 C 12.675781 9.421875 12.667969 9.453125 12.65625 9.46875 L 12.3125 10.0625 L 12.34375 10.09375 C 12.175781 10.4375 12.0625 10.6875 12.0625 10.6875 L 12 10.84375 L 12 14.5625 L 10.28125 16.28125 L 9.59375 17 L 10.28125 17.71875 L 14.28125 21.71875 L 15 22.40625 L 15.71875 21.71875 L 17.4375 20 L 22.1875 20 L 22.34375 19.9375 C 22.34375 19.9375 22.433594 19.886719 22.46875 19.875 L 22.5 19.90625 L 22.6875 19.78125 C 22.757813 19.746094 22.882813 19.671875 22.96875 19.625 C 23.125 19.535156 23.332031 19.421875 23.53125 19.28125 C 23.59375 19.238281 23.65625 19.175781 23.71875 19.125 C 23.8125 19.054688 23.933594 18.957031 24.03125 18.875 C 24.09375 18.820313 24.15625 18.746094 24.21875 18.6875 C 24.347656 18.574219 24.460938 18.476563 24.59375 18.34375 C 24.742188 18.191406 24.90625 18.023438 25.0625 17.84375 C 25.550781 17.289063 26.054688 16.609375 26.53125 15.75 L 26.8125 15.25 L 26.78125 15.21875 C 28.007813 12.792969 29 9.226563 29 4 L 29 3 Z M 26.9375 5.0625 C 26.824219 8.867188 26.15625 11.59375 25.34375 13.53125 C 24.808594 13.199219 24.167969 13 23.5 13 C 21.578125 13 20 14.578125 20 16.5 C 20 17.042969 20.125 17.539063 20.34375 18 L 17.4375 18 L 14 14.5625 L 14 11.65625 C 14.453125 11.875 14.964844 12 15.5 12 C 17.421875 12 19 10.421875 19 8.5 C 19 7.925781 18.84375 7.382813 18.59375 6.90625 C 20.519531 5.960938 23.199219 5.195313 26.9375 5.0625 Z M 16.78125 8.0625 C 16.839844 8.21875 17 8.320313 17 8.5 C 17 9.339844 16.339844 10 15.5 10 C 15.277344 10 15.15625 9.804688 14.96875 9.71875 C 15.375 9.199219 15.992188 8.65625 16.78125 8.0625 Z M 23.5 15 C 23.835938 15 24.035156 15.25 24.28125 15.4375 C 23.640625 16.390625 23.078125 17.035156 22.59375 17.40625 C 22.328125 17.136719 22 16.914063 22 16.5 C 22 15.660156 22.660156 15 23.5 15 Z M 13 16.4375 L 15.5625 19 L 15 19.5625 L 12.4375 17 Z M 9 18 C 9 18 5.597656 17.964844 3.28125 20.28125 L 2.59375 21 L 3.28125 21.71875 L 10.28125 28.71875 L 11 29.40625 L 11.71875 28.71875 C 14.09375 26.34375 14 23 14 23 L 14 22.59375 L 13.71875 22.28125 L 9.71875 18.28125 L 9.40625 18 Z M 8.625 20.0625 L 11.9375 23.375 C 11.914063 23.800781 11.757813 25.074219 10.875 26.4375 L 5.65625 21.21875 C 6.972656 20.421875 8.195313 20.097656 8.625 20.0625 Z "></path>
</g>
</svg>
