<?xml version="1.0" encoding="UTF-8"?>
<svg xmlns="http://www.w3.org/2000/svg" xmlns:xlink="http://www.w3.org/1999/xlink" viewBox="0 0 32 32" version="1.1">
<g>
<path d="M 5 5 L 5 11 L 11 11 L 11 5 Z M 13 5 L 13 11 L 19 11 L 19 5 Z M 21 5 L 21 11 L 27 11 L 27 5 Z M 7 7 L 9 7 L 9 9 L 7 9 Z M 15 7 L 17 7 L 17 9 L 15 9 Z M 23 7 L 25 7 L 25 9 L 23 9 Z M 5 13 L 5 19 L 11 19 L 11 13 Z M 13 13 L 13 19 L 19 19 L 19 13 Z M 21 13 L 21 19 L 27 19 L 27 13 Z M 7 15 L 9 15 L 9 17 L 7 17 Z M 15 15 L 17 15 L 17 17 L 15 17 Z M 23 15 L 25 15 L 25 17 L 23 17 Z M 5 21 L 5 27 L 11 27 L 11 21 Z M 13 21 L 13 27 L 19 27 L 19 21 Z M 21 21 L 21 27 L 27 27 L 27 21 Z M 7 23 L 9 23 L 9 25 L 7 25 Z M 15 23 L 17 23 L 17 25 L 15 25 Z M 23 23 L 25 23 L 25 25 L 23 25 Z "></path>
</g>
</svg>
