<?xml version="1.0" encoding="UTF-8"?>
<svg xmlns="http://www.w3.org/2000/svg" xmlns:xlink="http://www.w3.org/1999/xlink" viewBox="0 0 32 32" version="1.1">
<g>
<path d="M 13 2 L 11.402344 3.199219 C 11.339844 3.246094 10.011719 4.277344 9.21875 6.257813 C 7.753906 6.945313 3 9.652344 3 16 C 3 23.457031 9.539063 26.886719 9.539063 26.886719 L 11 27.648438 L 11 25.539063 L 10.765625 25.261719 C 10.765625 25.261719 9.75 24.019531 8.949219 22.289063 L 18.171875 25.277344 C 17.449219 25.949219 16.613281 26.535156 15.613281 26.953125 L 15 27.207031 L 15 29 L 16 29 C 28.71875 29 29 17.132813 29 17 C 29 9.46875 23.53125 4 16 4 C 14.878906 4 13.808594 4.253906 13 4.519531 Z M 16 6 C 22.375 6 27 10.625 27 16.988281 C 26.996094 17.34375 26.820313 24.605469 19.765625 26.53125 C 23.179688 23.15625 24 18.117188 24 17 L 24 14.691406 L 22.316406 16.269531 C 22.226563 16.355469 22.085938 16.464844 21.914063 16.589844 C 21.96875 16.125 22 15.597656 22 15 C 22 12.199219 20.300781 11.636719 20.113281 11.582031 L 15.074219 10.101563 C 14.675781 10.003906 14.296875 9.976563 13.921875 10 C 13.4375 10.039063 12.953125 10.1875 12.402344 10.457031 C 11.765625 10.769531 11.183594 11.140625 10.574219 11.578125 L 10.453125 11.367188 C 9.289063 9.390625 10.589844 7.839844 10.734375 7.679688 L 10.878906 7.519531 L 10.949219 7.316406 C 10.964844 7.265625 10.980469 7.21875 11 7.171875 L 11 7.648438 L 12.464844 6.886719 C 12.480469 6.878906 14.210938 6 16 6 Z M 11.6875 9 C 11.042969 9 11 9.65625 11 9.65625 C 11 9.65625 11.042969 10 11.332031 10 C 11.621094 10 11.953125 9.679688 11.996094 9.3125 C 12.023438 9.09375 11.863281 9 11.6875 9 Z M 8.007813 9.320313 C 7.9375 10.148438 8.058594 11.066406 8.53125 12.019531 C 8.375 12.671875 8.171875 13.289063 8.109375 13.484375 C 6.839844 14.769531 6.207031 16.277344 6.054688 17.742188 C 5.9375 18.828125 6.105469 19.859375 6.359375 20.839844 C 5.605469 19.523438 5 17.996094 5 16 C 5 12.550781 6.570313 10.503906 8.007813 9.320313 Z M 14.078125 11.996094 C 14.242188 11.980469 14.410156 12 14.554688 12.03125 L 19.496094 13.484375 C 19.640625 13.550781 19.878906 13.871094 19.960938 14.542969 L 12.40625 17.503906 L 10.339844 14.242188 L 10.5 14.125 C 11.597656 13.289063 12.394531 12.6875 13.28125 12.253906 C 13.605469 12.09375 13.851563 12.015625 14.078125 11.996094 Z M 8.882813 15.679688 L 11.59375 19.96875 L 15.597656 18.402344 L 18.65625 23.328125 L 8.164063 19.933594 C 8.03125 19.269531 7.972656 18.601563 8.039063 17.953125 C 8.125 17.167969 8.378906 16.410156 8.882813 15.679688 Z M 19.871094 16.722656 C 19.683594 17.867188 19.347656 18.242188 19.34375 18.246094 L 19.734375 18.699219 L 20.507813 19.859375 C 20.613281 19.796875 21.070313 19.527344 21.621094 19.183594 C 21.371094 20.117188 20.980469 21.226563 20.390625 22.332031 L 17.492188 17.65625 Z "></path>
</g>
</svg>
