<?xml version="1.0" encoding="UTF-8"?>
<svg xmlns="http://www.w3.org/2000/svg" xmlns:xlink="http://www.w3.org/1999/xlink" viewBox="0 0 32 32" version="1.1">
<g>
<path d="M 9 4 L 9 5 L 5 5 L 5 27 L 27 27 L 27 5 L 23 5 L 23 4 L 21 4 L 21 5 L 11 5 L 11 4 Z M 7 7 L 9 7 L 9 8 L 11 8 L 11 7 L 21 7 L 21 8 L 23 8 L 23 7 L 25 7 L 25 9 L 7 9 Z M 7 11 L 25 11 L 25 25 L 7 25 Z M 11 14 L 11 16 L 12 16 L 12 22 L 14 22 L 14 16 L 15 16 L 15 14 Z M 16 14 L 16 22 L 18 22 L 18 19 L 19 19 L 19 22 L 21 22 L 21 14 L 19 14 L 19 17 L 18 17 L 18 14 Z "></path>
</g>
</svg>
