<?xml version="1.0" encoding="UTF-8"?>
<svg xmlns="http://www.w3.org/2000/svg" xmlns:xlink="http://www.w3.org/1999/xlink" viewBox="0 0 32 32" version="1.1">
<g>
<path d="M 9.5 4 C 7.578125 4 6 5.578125 6 7.5 C 6 9.421875 7.578125 11 9.5 11 C 11.421875 11 13 9.421875 13 7.5 C 13 5.578125 11.421875 4 9.5 4 Z M 24.5 4 C 22.578125 4 21 5.578125 21 7.5 C 21 9.421875 22.578125 11 24.5 11 C 26.421875 11 28 9.421875 28 7.5 C 28 5.578125 26.421875 4 24.5 4 Z M 9.5 6 C 10.339844 6 11 6.660156 11 7.5 C 11 8.339844 10.339844 9 9.5 9 C 8.660156 9 8 8.339844 8 7.5 C 8 6.660156 8.660156 6 9.5 6 Z M 24.5 6 C 25.339844 6 26 6.660156 26 7.5 C 26 8.339844 25.339844 9 24.5 9 C 23.660156 9 23 8.339844 23 7.5 C 23 6.660156 23.660156 6 24.5 6 Z M 16 10 L 16 14.25 L 14.34375 15.46875 L 13.71875 14.21875 C 13.042969 12.867188 11.667969 12 10.15625 12 L 9 12 C 6.800781 12 5 13.800781 5 16 L 5 19 L 4 19 L 4 28 L 6 28 L 6 21 L 15 21 L 15 28 L 17 28 L 17 20.5 L 20.59375 17.8125 L 20.78125 17.65625 L 20.90625 17.4375 L 22.03125 15.15625 L 22.0625 15.09375 C 22.402344 14.414063 23.085938 14 23.84375 14 L 25 14 C 26.117188 14 27 14.882813 27 16 L 27 20.03125 L 25.5625 20.75 L 25 21 L 25 28 L 27 28 L 27 22.25 L 29 21.25 L 29 16 C 29 13.800781 27.199219 12 25 12 L 23.84375 12 C 22.332031 12 20.957031 12.867188 20.28125 14.21875 L 19.21875 16.34375 L 15.65625 19 L 7 19 L 7 16 C 7 14.882813 7.882813 14 9 14 L 10.15625 14 C 10.914063 14 11.597656 14.414063 11.9375 15.09375 L 13.09375 17.4375 L 13.65625 18.53125 L 14.59375 17.8125 L 18.34375 15 L 19 15 L 19 10 Z M 22 21 L 22 28 L 24 28 L 24 21 Z "></path>
</g>
</svg>
