<?xml version="1.0" encoding="UTF-8"?>
<svg xmlns="http://www.w3.org/2000/svg" xmlns:xlink="http://www.w3.org/1999/xlink" viewBox="0 0 32 32" version="1.1">
<g>
<path d="M 4 5 L 4 27 L 16 27 L 16 5 Z M 6 7 L 14 7 L 14 15 L 6 15 Z M 18 7 L 18 9 L 28 9 L 28 7 Z M 10 9 L 7 13 L 13 13 Z M 18 11 L 18 13 L 25 13 L 25 11 Z M 6 17 L 14 17 L 14 25 L 6 25 Z M 18 18 L 18 20 L 28 20 L 28 18 Z M 10 19 C 8.894531 19 8 19.894531 8 21 C 8 22.105469 8.894531 23 10 23 C 11.105469 23 12 22.105469 12 21 C 12 19.894531 11.105469 19 10 19 Z M 18 22 L 18 24 L 25 24 L 25 22 Z "></path>
</g>
</svg>
