<?xml version="1.0" encoding="UTF-8"?>
<svg xmlns="http://www.w3.org/2000/svg" xmlns:xlink="http://www.w3.org/1999/xlink" viewBox="0 0 32 32" version="1.1">
<g>
<path d="M 28 2.46875 L 26.59375 3.09375 L 19.96875 5.9375 L 12.34375 3.0625 L 11.96875 2.9375 L 11.59375 3.09375 L 4.59375 6.09375 L 4 6.34375 L 4 25.53125 L 12 22.1875 L 12 20 L 6 22.46875 L 6 7.65625 L 12.03125 5.0625 L 19.65625 7.9375 L 20.03125 8.0625 L 20.40625 7.90625 L 26 5.5 L 26 18 L 28 18 Z M 11 8 L 11 10 L 13 10 L 13 8 Z M 19 9 L 19 11 L 21 11 L 21 9 Z M 11 12 L 11 14 L 13 14 L 13 12 Z M 19 13 L 19 15 L 21 15 L 21 13 Z M 11 16 L 11 18 L 13 18 L 13 16 Z M 19 17 L 19 19 L 21 19 L 21 17 Z M 21.875 21 L 21.59375 21.40625 C 21.59375 21.40625 21.046875 22 20.5 22 L 20.5 24 C 21.15625 24 21.574219 23.722656 22 23.46875 L 22 29 L 24 29 L 24 21 Z M 27.5 21 C 26.132813 21 25 22.132813 25 23.5 L 25 26.5 C 25 27.867188 26.132813 29 27.5 29 C 28.867188 29 30 27.867188 30 26.5 L 30 23.5 C 30 22.132813 28.867188 21 27.5 21 Z M 27.5 23 C 27.785156 23 28 23.214844 28 23.5 L 28 26.5 C 28 26.785156 27.785156 27 27.5 27 C 27.214844 27 27 26.785156 27 26.5 L 27 23.5 C 27 23.214844 27.214844 23 27.5 23 Z M 16 24 L 16 25 L 15 25 L 15 27 L 16 27 L 16 28 L 18 28 L 18 27 L 19 27 L 19 25 L 18 25 L 18 24 Z "></path>
</g>
</svg>
