<?xml version="1.0" encoding="UTF-8"?>
<svg xmlns="http://www.w3.org/2000/svg" xmlns:xlink="http://www.w3.org/1999/xlink" viewBox="0 0 32 32" version="1.1">
<g>
<path d="M 28 3.46875 L 26.59375 4.09375 L 19.96875 6.9375 L 12.34375 4.0625 L 11.96875 3.9375 L 11.59375 4.09375 L 4.59375 7.09375 L 4 7.34375 L 4 26.53125 L 12 23.09375 L 12 20.9375 L 11.96875 20.9375 L 6 23.46875 L 6 8.65625 L 12.03125 6.0625 L 19.65625 8.9375 L 20.03125 9.0625 L 20.40625 8.90625 L 26 6.5 L 26 19 L 28 19 Z M 11 9 L 11 11 L 13 11 L 13 9 Z M 19 10 L 19 12 L 21 12 L 21 10 Z M 11 13 L 11 15 L 13 15 L 13 13 Z M 19 14 L 19 16 L 21 16 L 21 14 Z M 11 17 L 11 19 L 13 19 L 13 17 Z M 19 18 L 19 20 L 21 20 L 21 18 Z M 21.84375 22 L 21.5625 22.4375 C 21.5625 22.4375 21.109375 23 20.5625 23 L 20.5625 25 C 21.191406 25 21.589844 24.710938 22 24.46875 L 22 30 L 24 30 L 24 22 Z M 27.5 22 C 26.132813 22 25 23.132813 25 24.5 L 25 25 L 27 25 L 27 24.5 C 27 24.214844 27.214844 24 27.5 24 C 27.785156 24 28 24.214844 28 24.5 L 28 25.34375 C 28 25.484375 27.945313 25.625 27.84375 25.71875 L 25.3125 28 L 25 28.3125 L 25 30 L 30 30 L 30 28 L 28.3125 28 L 29.1875 27.1875 C 29.703125 26.714844 30 26.042969 30 25.34375 L 30 24.5 C 30 23.132813 28.867188 22 27.5 22 Z M 16 26 L 16 28 L 20 28 L 20 26 Z "></path>
</g>
</svg>
