<?xml version="1.0" encoding="UTF-8"?>
<svg xmlns="http://www.w3.org/2000/svg" xmlns:xlink="http://www.w3.org/1999/xlink" viewBox="0 0 32 32" version="1.1">
<g>
<path d="M 28 3.46875 L 26.59375 4.09375 L 19.96875 6.9375 L 12.34375 4.0625 L 11.96875 3.9375 L 11.59375 4.09375 L 4.59375 7.09375 L 4 7.34375 L 4 26.53125 L 12.03125 23.0625 L 11.96875 20.9375 L 6 23.46875 L 6 8.65625 L 12.03125 6.0625 L 19.65625 8.9375 L 20.03125 9.0625 L 20.40625 8.90625 L 26 6.5 L 26 19 L 28 19 Z M 11 9 L 11 11 L 13 11 L 13 9 Z M 19 10 L 19 12 L 21 12 L 21 10 Z M 11 13 L 11 15 L 13 15 L 13 13 Z M 19 14 L 19 16 L 21 16 L 21 14 Z M 11 17 L 11 19 L 13 19 L 13 17 Z M 19 18 L 19 20 L 21 20 L 21 18 Z M 24.875 22 L 24.59375 22.40625 C 24.59375 22.40625 24.046875 23 23.5 23 L 23.5 25 C 24.15625 25 24.574219 24.722656 25 24.46875 L 25 30 L 27 30 L 27 22 Z M 18 26 L 18 28 L 22 28 L 22 26 Z "></path>
</g>
</svg>
