<?xml version="1.0"?>
<svg xmlns="http://www.w3.org/2000/svg" viewBox="0 0 32 32">
    <path d="M 16 4 C 9.383 4 4 9.383 4 16 C 4 22.617 9.383 28 16 28 C 16.663 28 17.309359 27.932125 17.943359 27.828125 L 19.541016 26.230469 C 19.433016 25.969469 19.346484 25.705453 19.271484 25.439453 C 18.244484 25.796453 17.147 26 16 26 C 10.486 26 6 21.514 6 16 C 6 10.486 10.486 6 16 6 C 21.514 6 26 10.486 26 16 C 26 16.009 25.998047 16.017391 25.998047 16.025391 C 26.164047 16.014391 26.331 16 26.5 16 C 27.011 16 27.510188 16.052391 27.992188 16.150391 C 27.993187 16.100391 28 16.051 28 16 C 28 9.383 22.617 4 16 4 z M 15 8 L 15 17 L 22 17 L 22 15 L 17 15 L 17 8 L 15 8 z M 26.5 18 C 23.5 18 21 20.5 21 23.5 C 21 24.7 21.4 25.699609 22 26.599609 L 18.300781 30.300781 L 19.699219 31.699219 L 23.400391 28 C 24.300391 28.6 25.4 29 26.5 29 C 29.5 29 32 26.5 32 23.5 C 32 20.5 29.5 18 26.5 18 z M 26.5 20 C 28.4 20 30 21.6 30 23.5 C 30 25.4 28.4 27 26.5 27 C 24.6 27 23 25.4 23 23.5 C 23 21.6 24.6 20 26.5 20 z" font-weight="400" font-family="sans-serif" white-space="normal" overflow="visible"></path>
</svg>
