<?xml version="1.0" encoding="UTF-8"?>
<svg xmlns="http://www.w3.org/2000/svg" xmlns:xlink="http://www.w3.org/1999/xlink" viewBox="0 0 32 32" version="1.1">
<g>
<path d="M 28 2.46875 L 26.59375 3.09375 L 19.96875 5.9375 L 12.34375 3.0625 L 11.96875 2.9375 L 11.59375 3.09375 L 4.59375 6.09375 L 4 6.34375 L 4 25.53125 L 12 22.09375 L 12 19.9375 L 11.96875 19.9375 L 6 22.46875 L 6 7.65625 L 12.03125 5.0625 L 19.65625 7.9375 L 20.03125 8.0625 L 20.40625 7.90625 L 26 5.5 L 26 18 L 28 18 Z M 11 8 L 11 10 L 13 10 L 13 8 Z M 19 9 L 19 11 L 21 11 L 21 9 Z M 11 12 L 11 14 L 13 14 L 13 12 Z M 19 13 L 19 15 L 21 15 L 21 13 Z M 11 16 L 11 18 L 13 18 L 13 16 Z M 19 17 L 19 19 L 21 19 L 21 17 Z M 24.875 21 L 24.59375 21.40625 C 24.59375 21.40625 24.046875 22 23.5 22 L 23.5 24 C 24.15625 24 24.574219 23.722656 25 23.46875 L 25 29 L 27 29 L 27 21 Z M 19 24 L 19 25 L 18 25 L 18 27 L 19 27 L 19 28 L 21 28 L 21 27 L 22 27 L 22 25 L 21 25 L 21 24 Z "></path>
</g>
</svg>
