<?xml version="1.0"?>
<svg xmlns="http://www.w3.org/2000/svg" viewBox="0 0 32 32">
    <path d="M 3 4 L 3 24 L 11.841797 24 C 11.562797 23.364 11.343172 22.696 11.201172 22 L 9 22 L 9 21 L 7 21 L 7 22 L 5 22 L 5 6 L 7 6 L 7 7 L 9 7 L 9 6 L 21 6 L 21 7 L 23 7 L 23 6 L 25 6 L 25 10.841797 C 25.21 10.933797 25.414187 11.034672 25.617188 11.138672 L 27 9.7578125 L 27 4 L 3 4 z M 7 9 L 7 11 L 9 11 L 9 9 L 7 9 z M 19 9 L 19 11 L 20 11 L 20 12.068359 C 16.06339 12.563724 13 15.932696 13 20 C 13 24.406433 16.593567 28 21 28 C 25.406433 28 29 24.406433 29 20 C 29 18.155979 28.365427 16.459031 27.310547 15.103516 L 28.707031 13.707031 L 27.292969 12.292969 L 25.896484 13.689453 C 24.790679 12.828901 23.454734 12.25511 22 12.070312 L 22 11 L 23 11 L 23 9 L 19 9 z M 7 13 L 7 15 L 9 15 L 9 13 L 7 13 z M 21 14 C 24.325553 14 27 16.674447 27 20 C 27 23.325553 24.325553 26 21 26 C 17.674447 26 15 23.325553 15 20 C 15 16.674447 17.674447 14 21 14 z M 20 16 L 20 20.585938 L 18.292969 22.292969 L 19.707031 23.707031 L 22 21.414062 L 22 16 L 20 16 z M 7 17 L 7 19 L 9 19 L 9 17 L 7 17 z"></path>
</svg>
