<?xml version="1.0" encoding="UTF-8"?>
<svg xmlns="http://www.w3.org/2000/svg" xmlns:xlink="http://www.w3.org/1999/xlink" viewBox="0 0 32 32" version="1.1">
<g>
<path d="M 28 3.46875 L 26.59375 4.09375 L 19.96875 6.9375 L 12.34375 4.0625 L 11.96875 3.9375 L 11.59375 4.09375 L 4.59375 7.09375 L 4 7.34375 L 4 26.53125 L 12 23.09375 L 12 20.9375 L 11.96875 20.9375 L 6 23.46875 L 6 8.65625 L 12.03125 6.0625 L 19.65625 8.9375 L 20.03125 9.0625 L 20.40625 8.90625 L 26 6.5 L 26 19 L 28 19 Z M 11 9 L 11 11 L 13 11 L 13 9 Z M 19 10 L 19 12 L 21 12 L 21 10 Z M 11 13 L 11 15 L 13 15 L 13 13 Z M 19 14 L 19 16 L 21 16 L 21 14 Z M 11 17 L 11 19 L 13 19 L 13 17 Z M 19 18 L 19 20 L 21 20 L 21 18 Z M 25.5 22 C 24.773438 22 24.09375 22.207031 23.625 22.6875 C 23.15625 23.167969 23 23.808594 23 24.375 L 25 24.375 C 25 24.132813 25.058594 24.101563 25.0625 24.09375 C 25.066406 24.085938 25.121094 24 25.5 24 C 25.9375 24 26 24.136719 26 24.5 C 26 24.785156 25.785156 25 25.5 25 L 25 25 L 25 27 L 25.5 27 C 25.785156 27 26 27.214844 26 27.5 C 26 27.863281 25.9375 28 25.5 28 C 25.121094 28 25.066406 27.914063 25.0625 27.90625 C 25.058594 27.898438 25 27.867188 25 27.625 L 23 27.625 C 23 28.191406 23.15625 28.832031 23.625 29.3125 C 24.09375 29.792969 24.773438 30 25.5 30 C 26.910156 30 28 28.792969 28 27.5 C 28 26.9375 27.789063 26.421875 27.46875 26 C 27.789063 25.578125 28 25.0625 28 24.5 C 28 23.207031 26.910156 22 25.5 22 Z M 18 26 L 18 28 L 22 28 L 22 26 Z "></path>
</g>
</svg>
