<?xml version="1.0" encoding="UTF-8"?>
<svg xmlns="http://www.w3.org/2000/svg" xmlns:xlink="http://www.w3.org/1999/xlink" viewBox="0 0 32 32" version="1.1">
<g>
<path d="M 16 7 C 12.839844 7 9.976563 7.578125 7.8125 8.5625 C 6.730469 9.054688 5.804688 9.644531 5.125 10.375 C 4.683594 10.847656 4.375 11.40625 4.1875 12 L 3 12 L 3 15 L 4.34375 15 C 4.789063 16.476563 5.667969 18.125 7 19.6875 C 7.515625 20.292969 8.121094 20.875 8.78125 21.40625 L 7 25 L 9 25 L 10.28125 22.4375 C 11.636719 23.230469 13.21875 23.78125 15 23.9375 L 15 27 L 17 27 L 17 23.9375 C 18.78125 23.78125 20.363281 23.230469 21.71875 22.4375 L 23 25 L 25 25 L 23.21875 21.40625 C 23.878906 20.875 24.484375 20.292969 25 19.6875 C 26.332031 18.125 27.210938 16.476563 27.65625 15 L 29 15 L 29 12 L 27.8125 12 C 27.625 11.40625 27.316406 10.847656 26.875 10.375 C 26.195313 9.644531 25.269531 9.054688 24.1875 8.5625 C 22.023438 7.578125 19.160156 7 16 7 Z M 16 9 C 18.914063 9 21.558594 9.550781 23.375 10.375 C 24.28125 10.789063 24.972656 11.285156 25.40625 11.75 C 25.839844 12.214844 26 12.605469 26 13 C 26 13.097656 25.992188 13.183594 25.96875 13.28125 C 25.902344 13.578125 25.730469 13.902344 25.40625 14.25 C 24.972656 14.714844 24.28125 15.210938 23.375 15.625 C 21.558594 16.449219 18.914063 17 16 17 C 13.085938 17 10.441406 16.449219 8.625 15.625 C 7.71875 15.210938 7.027344 14.714844 6.59375 14.25 C 6.269531 13.902344 6.097656 13.578125 6.03125 13.28125 C 6.007813 13.183594 6 13.097656 6 13 C 6 12.605469 6.160156 12.214844 6.59375 11.75 C 7.027344 11.285156 7.71875 10.789063 8.625 10.375 C 10.441406 9.550781 13.085938 9 16 9 Z M 7.8125 17.4375 C 9.742188 18.316406 12.242188 18.859375 15 18.96875 L 15 20 L 17 20 L 17 18.96875 C 19.757813 18.859375 22.257813 18.316406 24.1875 17.4375 C 23.96875 17.757813 23.730469 18.070313 23.46875 18.375 C 21.773438 20.363281 19.324219 22 16 22 C 12.675781 22 10.226563 20.363281 8.53125 18.375 C 8.269531 18.070313 8.03125 17.757813 7.8125 17.4375 Z "></path>
</g>
</svg>
