<?xml version="1.0" encoding="UTF-8"?>
<svg xmlns="http://www.w3.org/2000/svg" xmlns:xlink="http://www.w3.org/1999/xlink" viewBox="0 0 32 32" version="1.1">
<g>
<path d="M 16 3 C 13.914063 3 12.019531 3.480469 10.5625 4.3125 C 9.105469 5.144531 8 6.421875 8 8 C 8 8.914063 8.375 9.71875 8.96875 10.40625 C 8.546875 10.632813 8.160156 10.886719 7.84375 11.1875 C 7.359375 11.648438 7 12.277344 7 13 L 7 25 C 7 25.773438 7.429688 26.425781 7.96875 26.90625 C 8.507813 27.386719 9.199219 27.761719 10 28.0625 C 11.605469 28.664063 13.691406 29 16 29 C 18.308594 29 20.394531 28.664063 22 28.0625 C 22.800781 27.761719 23.492188 27.386719 24.03125 26.90625 C 24.570313 26.425781 25 25.773438 25 25 L 25 13 C 25 12.277344 24.640625 11.648438 24.15625 11.1875 C 23.839844 10.886719 23.453125 10.632813 23.03125 10.40625 C 23.625 9.71875 24 8.914063 24 8 C 24 6.421875 22.894531 5.144531 21.4375 4.3125 C 19.980469 3.480469 18.085938 3 16 3 Z M 16 5 C 17.777344 5 19.390625 5.417969 20.46875 6.03125 C 21.546875 6.644531 22 7.367188 22 8 C 22 8.652344 21.425781 9.382813 20.28125 10 L 11.71875 10 C 10.574219 9.382813 10 8.652344 10 8 C 10 7.367188 10.453125 6.644531 11.53125 6.03125 C 12.609375 5.417969 14.222656 5 16 5 Z M 10.34375 12 L 21.65625 12 C 22.144531 12.21875 22.542969 12.429688 22.75 12.625 C 22.972656 12.839844 23 12.953125 23 13 C 23 13.054688 22.988281 13.167969 22.71875 13.40625 C 22.449219 13.644531 21.957031 13.945313 21.3125 14.1875 C 20.019531 14.671875 18.109375 15 16 15 C 13.890625 15 11.980469 14.671875 10.6875 14.1875 C 10.042969 13.945313 9.550781 13.644531 9.28125 13.40625 C 9.011719 13.167969 9 13.054688 9 13 C 9 12.953125 9.027344 12.839844 9.25 12.625 C 9.457031 12.429688 9.855469 12.21875 10.34375 12 Z M 9 15.625 C 9.308594 15.789063 9.644531 15.929688 10 16.0625 C 11.605469 16.664063 13.691406 17 16 17 C 18.308594 17 20.394531 16.664063 22 16.0625 C 22.355469 15.929688 22.691406 15.789063 23 15.625 L 23 16.3125 C 22.660156 16.605469 22.136719 16.90625 21.46875 17.15625 C 20.097656 17.667969 18.160156 18 16 18 C 13.839844 18 11.902344 17.667969 10.53125 17.15625 C 9.863281 16.90625 9.339844 16.605469 9 16.3125 Z M 9 17.53125 C 9.339844 17.742188 9.71875 17.929688 10.15625 18.09375 C 11.683594 18.664063 13.742188 19 16 19 C 18.257813 19 20.316406 18.664063 21.84375 18.09375 C 22.28125 17.929688 22.660156 17.742188 23 17.53125 L 23 23.3125 C 22.660156 23.605469 22.136719 23.90625 21.46875 24.15625 C 20.097656 24.667969 18.160156 25 16 25 C 13.839844 25 11.902344 24.667969 10.53125 24.15625 C 9.863281 23.90625 9.339844 23.605469 9 23.3125 Z M 9 24.53125 C 9.339844 24.742188 9.71875 24.929688 10.15625 25.09375 C 11.683594 25.664063 13.742188 26 16 26 C 18.257813 26 20.316406 25.664063 21.84375 25.09375 C 22.28125 24.929688 22.660156 24.742188 23 24.53125 L 23 25 C 23 25.054688 22.988281 25.167969 22.71875 25.40625 C 22.449219 25.644531 21.957031 25.945313 21.3125 26.1875 C 20.019531 26.671875 18.109375 27 16 27 C 13.890625 27 11.980469 26.671875 10.6875 26.1875 C 10.042969 25.945313 9.550781 25.644531 9.28125 25.40625 C 9.011719 25.167969 9 25.054688 9 25 Z "></path>
</g>
</svg>
