<?xml version="1.0" encoding="UTF-8"?>
<svg xmlns="http://www.w3.org/2000/svg" xmlns:xlink="http://www.w3.org/1999/xlink" viewBox="0 0 32 32" version="1.1">
<g>
<path d="M 17.296875 4.003906 C 17.160156 3.996094 17.019531 4.003906 16.878906 4.023438 L 11.585938 4.832031 C 10.464844 5.003906 9.679688 6.074219 9.851563 7.191406 L 11.046875 15 L 10 15 L 10 17 L 11.347656 17 L 12.761719 26.242188 C 12.933594 27.363281 14.003906 28.148438 15.121094 27.976563 L 20.414063 27.167969 C 21.535156 26.996094 22.320313 25.925781 22.148438 24.808594 L 20.953125 17 L 22 17 L 22 15 L 20.652344 15 L 19.238281 5.757813 C 19.089844 4.777344 18.25 4.054688 17.296875 4.003906 Z M 17.179688 6 C 17.230469 5.992188 17.253906 6.007813 17.261719 6.058594 L 17.261719 6.0625 L 17.582031 8.179688 C 17.558594 8.179688 17.535156 8.183594 17.515625 8.1875 C 16.929688 8.273438 16.527344 8.820313 16.617188 9.40625 C 16.660156 9.6875 16.8125 9.941406 17.042969 10.109375 C 17.269531 10.277344 17.558594 10.347656 17.839844 10.304688 C 17.859375 10.300781 17.882813 10.296875 17.90625 10.292969 L 18.230469 12.410156 C 18.207031 12.414063 18.183594 12.417969 18.160156 12.421875 C 17.574219 12.507813 17.175781 13.054688 17.265625 13.640625 C 17.351563 14.226563 17.898438 14.625 18.484375 14.535156 C 18.507813 14.535156 18.53125 14.527344 18.550781 14.523438 L 18.875 16.644531 C 18.851563 16.644531 18.828125 16.648438 18.808594 16.652344 C 18.222656 16.742188 17.820313 17.289063 17.910156 17.875 C 18 18.457031 18.546875 18.859375 19.128906 18.769531 C 19.15625 18.765625 19.179688 18.761719 19.203125 18.753906 L 19.527344 20.878906 C 19.5 20.878906 19.476563 20.882813 19.453125 20.886719 C 18.871094 20.976563 18.46875 21.523438 18.558594 22.109375 C 18.648438 22.691406 19.195313 23.09375 19.78125 23.003906 C 19.800781 23 19.824219 22.996094 19.847656 22.988281 L 20.171875 25.109375 C 20.179688 25.160156 20.164063 25.183594 20.113281 25.1875 L 20.109375 25.191406 L 14.820313 26 C 14.769531 26.007813 14.746094 25.992188 14.738281 25.941406 L 14.738281 25.9375 L 14.417969 23.816406 C 14.441406 23.816406 14.464844 23.8125 14.488281 23.8125 C 15.074219 23.722656 15.472656 23.175781 15.386719 22.589844 C 15.296875 22.003906 14.75 21.605469 14.164063 21.691406 C 14.140625 21.699219 14.117188 21.703125 14.09375 21.707031 L 13.769531 19.585938 C 13.792969 19.585938 13.816406 19.582031 13.839844 19.578125 C 14.425781 19.488281 14.824219 18.941406 14.734375 18.359375 C 14.648438 17.773438 14.101563 17.371094 13.515625 17.460938 C 13.492188 17.464844 13.46875 17.46875 13.445313 17.472656 L 13.121094 15.355469 C 13.144531 15.351563 13.167969 15.347656 13.191406 15.34375 C 13.777344 15.257813 14.179688 14.710938 14.089844 14.125 C 14 13.539063 13.453125 13.140625 12.871094 13.230469 C 12.84375 13.230469 12.820313 13.238281 12.796875 13.242188 L 12.472656 11.121094 C 12.5 11.117188 12.523438 11.113281 12.546875 11.109375 C 13.132813 11.023438 13.53125 10.476563 13.441406 9.890625 C 13.355469 9.304688 12.808594 8.90625 12.222656 8.992188 C 12.199219 8.996094 12.175781 9.003906 12.152344 9.007813 L 11.828125 6.890625 C 11.820313 6.839844 11.835938 6.816406 11.886719 6.8125 L 11.890625 6.808594 Z M 2 15 L 2 17 L 4 17 L 4 15 Z M 6 15 L 6 17 L 8 17 L 8 15 Z M 24 15 L 24 17 L 26 17 L 26 15 Z M 28 15 L 28 17 L 30 17 L 30 15 Z "></path>
</g>
</svg>
