<?xml version="1.0" encoding="UTF-8"?>
<svg xmlns="http://www.w3.org/2000/svg" xmlns:xlink="http://www.w3.org/1999/xlink" viewBox="0 0 32 32" version="1.1">
<g>
<path d="M 12 4 C 11.011719 4 10.105469 4.445313 9.375 5.125 C 8.644531 5.804688 8.054688 6.730469 7.5625 7.8125 C 6.578125 9.976563 6 12.839844 6 16 C 6 19.160156 6.578125 22.023438 7.5625 24.1875 C 8.054688 25.269531 8.644531 26.195313 9.375 26.875 C 10.105469 27.554688 11.011719 28 12 28 L 20 28 C 20.988281 28 21.894531 27.554688 22.625 26.875 C 23.355469 26.195313 23.945313 25.269531 24.4375 24.1875 C 25.421875 22.023438 26 19.160156 26 16 C 26 12.839844 25.421875 9.976563 24.4375 7.8125 C 23.945313 6.730469 23.355469 5.804688 22.625 5.125 C 21.894531 4.445313 20.988281 4 20 4 Z M 12 6 L 14 6 L 14 7 L 15.96875 7 C 15.824219 7.257813 15.691406 7.527344 15.5625 7.8125 C 15.390625 8.1875 15.238281 8.585938 15.09375 9 L 13 9 L 13 11 L 14.53125 11 C 14.386719 11.640625 14.273438 12.304688 14.1875 13 L 12 13 L 12 15 L 14.03125 15 C 14.019531 15.335938 14 15.660156 14 16 C 14 16.339844 14.019531 16.664063 14.03125 17 L 12 17 L 12 19 L 14.1875 19 C 14.320313 20.066406 14.519531 21.066406 14.78125 22 L 13 22 L 13 24 L 15.5 24 C 15.527344 24.058594 15.535156 24.128906 15.5625 24.1875 C 15.871094 24.867188 16.226563 25.464844 16.625 26 L 12 26 L 12 24 L 9.6875 24 C 9.574219 23.800781 9.476563 23.601563 9.375 23.375 C 9.183594 22.957031 9 22.5 8.84375 22 L 11 22 L 11 20 L 8.375 20 C 8.199219 19.058594 8.078125 18.0625 8.03125 17 L 10 17 L 10 15 L 8.03125 15 C 8.0625 14.296875 8.128906 13.652344 8.21875 13 L 11 13 L 11 11 L 8.59375 11 C 8.773438 10.277344 8.976563 9.589844 9.21875 9 L 12 9 L 12 7 L 10.375 7 C 10.503906 6.847656 10.625 6.710938 10.75 6.59375 C 11.214844 6.160156 11.605469 6 12 6 Z M 20 6 C 20.394531 6 20.785156 6.160156 21.25 6.59375 C 21.714844 7.027344 22.210938 7.71875 22.625 8.625 C 23.449219 10.441406 24 13.085938 24 16 C 24 18.914063 23.449219 21.558594 22.625 23.375 C 22.210938 24.28125 21.714844 24.972656 21.25 25.40625 C 20.785156 25.839844 20.394531 26 20 26 C 19.605469 26 19.214844 25.839844 18.75 25.40625 C 18.285156 24.972656 17.789063 24.28125 17.375 23.375 C 16.550781 21.558594 16 18.914063 16 16 C 16 13.085938 16.550781 10.441406 17.375 8.625 C 17.789063 7.71875 18.285156 7.027344 18.75 6.59375 C 19.214844 6.160156 19.605469 6 20 6 Z M 20 8 C 19.25 8 18.738281 8.503906 18.40625 9 C 18.074219 9.496094 17.824219 10.082031 17.625 10.78125 C 17.226563 12.175781 17 13.988281 17 16 C 17 18.011719 17.226563 19.824219 17.625 21.21875 C 17.824219 21.917969 18.074219 22.503906 18.40625 23 C 18.738281 23.496094 19.25 24 20 24 C 20.75 24 21.261719 23.496094 21.59375 23 C 21.925781 22.503906 22.175781 21.917969 22.375 21.21875 C 22.773438 19.824219 23 18.011719 23 16 C 23 13.988281 22.773438 12.175781 22.375 10.78125 C 22.175781 10.082031 21.925781 9.496094 21.59375 9 C 21.261719 8.503906 20.75 8 20 8 Z M 20 10.28125 C 20.136719 10.515625 20.296875 10.816406 20.4375 11.3125 C 20.761719 12.449219 21 14.144531 21 16 C 21 17.855469 20.761719 19.550781 20.4375 20.6875 C 20.296875 21.183594 20.136719 21.484375 20 21.71875 C 19.863281 21.484375 19.703125 21.183594 19.5625 20.6875 C 19.238281 19.550781 19 17.855469 19 16 C 19 14.144531 19.238281 12.449219 19.5625 11.3125 C 19.703125 10.816406 19.863281 10.515625 20 10.28125 Z "></path>
</g>
</svg>
