<?xml version="1.0" encoding="UTF-8"?>
<svg xmlns="http://www.w3.org/2000/svg" xmlns:xlink="http://www.w3.org/1999/xlink" viewBox="0 0 32 32" version="1.1">
<g>
<path d="M 12.90625 3 C 12.472656 3 12.097656 3.117188 11.6875 3.5 C 11.277344 3.882813 11 4.550781 11 5.3125 C 11 5.695313 11.0625 6.074219 11.34375 6.4375 C 11.625 6.800781 12.128906 7 12.5 7 C 13.003906 7 13.285156 6.757813 13.53125 6.53125 C 13.652344 6.671875 13.757813 6.859375 13.84375 7.09375 C 12.734375 7.210938 11.976563 7.449219 11.4375 7.84375 C 11.058594 8.121094 10.800781 8.472656 10.6875 8.8125 C 10.574219 9.152344 10.59375 9.480469 10.59375 9.5 C 10.59375 10.824219 10.917969 12.253906 11.34375 13.40625 C 11.558594 13.984375 11.8125 14.488281 12.09375 14.90625 C 12.234375 15.117188 12.371094 15.289063 12.59375 15.46875 C 12.804688 15.636719 13.160156 15.820313 13.59375 15.78125 C 13.59375 15.796875 13.589844 15.824219 13.59375 15.84375 C 13.503906 15.882813 13.34375 15.945313 12.875 16 C 12.324219 16.070313 11.929688 16.574219 12 17.125 C 12.070313 17.675781 12.574219 18.070313 13.125 18 C 13.855469 17.914063 14.378906 17.773438 14.84375 17.46875 C 15.308594 17.164063 15.597656 16.585938 15.625 16.15625 C 15.636719 15.964844 15.613281 15.824219 15.59375 15.6875 C 15.902344 15.699219 16.1875 15.722656 16.4375 15.75 C 16.40625 15.84375 16.363281 15.921875 16.34375 16.0625 C 16.285156 16.480469 16.535156 17.195313 17 17.5 C 17.464844 17.804688 17.96875 17.917969 18.6875 18 C 19.238281 18.0625 19.738281 17.660156 19.796875 17.109375 C 19.859375 16.558594 19.457031 16.058594 18.90625 16 C 18.660156 15.972656 18.636719 15.960938 18.5625 15.9375 C 18.914063 15.828125 19.195313 15.597656 19.40625 15.375 C 19.765625 14.996094 20.023438 14.515625 20.28125 13.9375 C 20.785156 12.800781 21.167969 11.230469 21.28125 9.40625 C 21.28125 9.378906 21.3125 9.371094 21.3125 9.34375 L 21.28125 9.34375 C 21.335938 8.621094 20.960938 7.921875 20.53125 7.625 C 20.308594 7.472656 20.109375 7.421875 19.9375 7.375 C 19.816406 7.34375 19.726563 7.351563 19.625 7.34375 C 19.625 7.34375 19.625 7.3125 19.625 7.3125 C 19.574219 7.304688 19.550781 7.320313 19.5 7.3125 C 19.078125 7.265625 18.691406 7.226563 18.28125 7.1875 C 18.355469 7.070313 18.441406 6.949219 18.53125 6.84375 C 18.648438 6.710938 18.765625 6.625 18.875 6.53125 C 19.109375 6.597656 19.464844 6.472656 19.8125 6.40625 L 19.8125 6.5 C 19.878906 6.5 19.898438 6.390625 19.96875 6.375 C 20.097656 6.335938 20.1875 6.417969 20.3125 6.34375 L 20.21875 6.21875 C 20.496094 6.066406 20.828125 5.949219 20.90625 5.75 C 21.035156 5.429688 21 5.238281 21 5.1875 C 21 4.335938 20.550781 3.984375 20.1875 3.65625 C 20.007813 3.492188 19.824219 3.367188 19.625 3.25 C 19.425781 3.132813 19.277344 3 18.8125 3 C 18.558594 3 18.246094 3.066406 18 3.25 C 17.753906 3.433594 17.597656 3.695313 17.53125 3.90625 C 17.398438 4.324219 17.453125 4.621094 17.5 4.875 C 17.515625 4.960938 17.511719 4.953125 17.53125 5.03125 C 17.363281 5.175781 17.214844 5.320313 17.03125 5.53125 C 16.707031 5.90625 16.382813 6.425781 16.1875 7.03125 C 16.082031 7.027344 15.964844 7.035156 15.875 7.03125 C 15.710938 6.222656 15.382813 5.589844 15 5.15625 C 14.78125 4.910156 14.542969 4.761719 14.34375 4.625 C 14.332031 4.476563 14.359375 4.398438 14.3125 4.21875 C 14.257813 4.003906 14.164063 3.730469 13.9375 3.46875 C 13.710938 3.207031 13.296875 3 12.90625 3 Z M 15.40625 9 C 15.886719 9 17.675781 9.09375 19.3125 9.28125 C 19.214844 10.90625 18.851563 12.261719 18.46875 13.125 C 18.273438 13.5625 18.054688 13.875 17.9375 14 C 17.402344 13.886719 15.902344 13.617188 13.78125 13.8125 C 13.765625 13.792969 13.769531 13.808594 13.75 13.78125 C 13.609375 13.574219 13.394531 13.191406 13.21875 12.71875 C 12.871094 11.773438 12.59375 10.476563 12.59375 9.5 C 12.59375 9.371094 12.605469 9.4375 12.59375 9.46875 C 12.582031 9.5 12.542969 9.496094 12.625 9.4375 C 12.789063 9.316406 13.558594 9 15.40625 9 Z M 3.84375 19 L 4 20.125 L 4.71875 25.4375 L 4.71875 25.5 C 5 26.914063 6.222656 28 7.6875 28 L 24.3125 28 C 25.769531 28 27.027344 26.902344 27.1875 25.4375 C 27.1875 25.425781 27.1875 25.417969 27.1875 25.40625 L 28 20.15625 L 28.15625 19 Z M 8.0625 21 L 24.875 21 C 24.792969 21.066406 24.71875 21.121094 24.625 21.1875 C 23.378906 22.054688 21.09375 23 17 23 C 16.683594 23 16.394531 22.980469 16.09375 22.96875 C 16.597656 22.917969 17 22.515625 17 22 C 17 21.449219 16.550781 21 16 21 C 15.449219 21 15 21.449219 15 22 C 15 22.515625 15.402344 22.917969 15.90625 22.96875 C 12.40625 22.816406 9.917969 21.96875 8.28125 21.125 C 8.195313 21.082031 8.144531 21.042969 8.0625 21 Z M 6.3125 22.25 C 6.632813 22.453125 6.945313 22.667969 7.34375 22.875 C 9.414063 23.941406 12.59375 25 17 25 C 21.246094 25 23.917969 24.023438 25.5625 22.9375 L 25.21875 25.15625 L 25.21875 25.1875 C 25.167969 25.707031 24.847656 26 24.3125 26 L 7.6875 26 C 7.152344 26 6.804688 25.679688 6.6875 25.09375 Z "></path>
</g>
</svg>
