<?xml version="1.0" encoding="UTF-8"?>
<svg xmlns="http://www.w3.org/2000/svg" xmlns:xlink="http://www.w3.org/1999/xlink" viewBox="0 0 32 32" version="1.1">
<g>
<path d="M 10.28125 5.78125 L 8 8.0625 L 6.71875 6.78125 L 5.28125 8.21875 L 7.28125 10.21875 L 8 10.90625 L 8.71875 10.21875 L 11.71875 7.21875 Z M 14 7 L 14 9 L 27 9 L 27 7 Z M 10.28125 12.78125 L 8 15.0625 L 6.71875 13.78125 L 5.28125 15.21875 L 7.28125 17.21875 L 8 17.90625 L 8.71875 17.21875 L 11.71875 14.21875 Z M 14 15 L 14 17 L 27 17 L 27 15 Z M 10.28125 20.78125 L 8 23.0625 L 6.71875 21.78125 L 5.28125 23.21875 L 7.28125 25.21875 L 8 25.90625 L 8.71875 25.21875 L 11.71875 22.21875 Z M 14 23 L 14 25 L 27 25 L 27 23 Z "></path>
</g>
</svg>
