<?xml version="1.0" encoding="UTF-8"?>
<svg xmlns="http://www.w3.org/2000/svg" xmlns:xlink="http://www.w3.org/1999/xlink" viewBox="0 0 32 32" version="1.1">
<g>
<path d="M 2 7 L 2 25 L 30 25 L 30 7 Z M 4 9 L 22 9 L 22 15 L 20 15 L 20 16 C 20 16.554688 19.554688 17 19 17 L 18 17 L 18 15 L 16 15 L 16 17 L 14 17 L 14 15 L 12 15 L 12 17 L 10 17 L 10 15 L 8 15 L 8 17 L 7 17 C 6.445313 17 6 16.554688 6 16 L 6 15 L 4 15 Z M 24 9 L 28 9 L 28 23 L 24 23 Z M 26 11 C 25.449219 11 25 11.449219 25 12 C 25 12.550781 25.449219 13 26 13 C 26.550781 13 27 12.550781 27 12 C 27 11.449219 26.550781 11 26 11 Z M 26 14 C 25.449219 14 25 14.449219 25 15 C 25 15.550781 25.449219 16 26 16 C 26.550781 16 27 15.550781 27 15 C 27 14.449219 26.550781 14 26 14 Z M 4 17 L 4.40625 17 C 4.847656 18.109375 5.742188 19 7 19 L 19 19 C 20.257813 19 21.152344 18.109375 21.59375 17 L 22 17 L 22 23 L 4 23 Z "></path>
</g>
</svg>
