<?xml version="1.0" encoding="UTF-8"?>
<svg xmlns="http://www.w3.org/2000/svg" xmlns:xlink="http://www.w3.org/1999/xlink" viewBox="0 0 32 32" version="1.1">
<g>
<path d="M 12 4.84375 L 11.5 5.15625 L 6.5 8.15625 L 6 8.4375 L 6 25 L 4 25 L 4 27 L 20 27 L 20 25 L 18 25 L 18 19.53125 L 19 18.90625 L 19 16.53125 L 18 17.1875 L 18 8.4375 L 17.5 8.15625 L 12.5 5.15625 Z M 12 7.15625 L 16 9.53125 L 16 25 L 8 25 L 8 9.53125 Z M 9 11 L 9 20 L 15 20 L 15 11 Z M 27.46875 11.15625 L 26 12.09375 L 26 14.46875 L 28.53125 12.84375 Z M 25 12.71875 L 23 14 L 23 16.375 L 25 15.09375 Z M 11 13 L 13 13 L 13 18 L 11 18 Z M 22 14.625 L 20 15.90625 L 20 18.28125 L 22 17 Z "></path>
</g>
</svg>
