<?xml version="1.0" encoding="UTF-8"?>
<svg xmlns="http://www.w3.org/2000/svg" xmlns:xlink="http://www.w3.org/1999/xlink" viewBox="0 0 32 32" version="1.1">
<g>
<path d="M 9.59375 5 L 9.28125 5.28125 L 5.28125 9.28125 L 5 9.59375 L 5 13 C 3.894531 13 3 13.894531 3 15 C 3 16.105469 3.894531 17 5 17 L 5 27 L 27 27 L 27 17 C 28.105469 17 29 16.105469 29 15 C 29 13.894531 28.105469 13 27 13 L 27 9.59375 L 26.71875 9.28125 L 22.71875 5.28125 L 22.40625 5 Z M 10.4375 7 L 21.5625 7 L 25 10.4375 L 25 25 L 7 25 L 7 10.4375 Z M 16 11 C 13.25 11 11 13.25 11 16 C 11 18.75 13.25 21 16 21 C 18.75 21 21 18.75 21 16 C 21 13.25 18.75 11 16 11 Z M 16 13 C 17.667969 13 19 14.332031 19 16 C 19 17.667969 17.667969 19 16 19 C 14.332031 19 13 17.667969 13 16 C 13 14.332031 14.332031 13 16 13 Z "></path>
</g>
</svg>
