<?xml version="1.0" encoding="UTF-8"?>
<svg xmlns="http://www.w3.org/2000/svg" xmlns:xlink="http://www.w3.org/1999/xlink" viewBox="0 0 32 32" version="1.1">
<g>
<path d="M 16 3 C 14.023438 3 12.289063 3.757813 11.777344 4 L 8.320313 4 L 8.070313 4.628906 C 8.070313 4.628906 6 9.667969 6 14 L 6 20 L 5 20 L 5 22 L 6 22 L 6 24 L 26 24 L 26 16 L 27 16 L 27 14 L 26 14 C 26 8.734375 23.894531 4.554688 23.894531 4.554688 L 23.617188 4 L 20.222656 4 C 19.710938 3.757813 17.976563 3 16 3 Z M 16 5 C 17.132813 5 18.324219 5.402344 19 5.667969 L 19 17 L 13 17 L 13 5.667969 C 13.675781 5.402344 14.867188 5 16 5 Z M 9.722656 6 L 11 6 L 11 19 L 21 19 L 21 6 L 22.3125 6 C 22.644531 6.71875 24 9.789063 24 14 L 24 22 L 8 22 L 8 14 C 8 10.726563 9.394531 6.882813 9.722656 6 Z M 16 10 C 14.894531 10 14 10.894531 14 12 C 14 13.105469 14.894531 14 16 14 C 17.105469 14 18 13.105469 18 12 C 18 10.894531 17.105469 10 16 10 Z M 10 26 L 10 28 L 22 28 L 22 26 Z "></path>
</g>
</svg>
