<?xml version="1.0" encoding="UTF-8"?>
<svg xmlns="http://www.w3.org/2000/svg" xmlns:xlink="http://www.w3.org/1999/xlink" viewBox="0 0 32 32" version="1.1">
<g>
<path d="M 10 4 C 9.476563 4 8.941406 4.183594 8.5625 4.5625 C 8.183594 4.941406 8 5.476563 8 6 L 8 26 C 8 26.523438 8.183594 27.058594 8.5625 27.4375 C 8.941406 27.816406 9.476563 28 10 28 L 22 28 C 22.523438 28 23.058594 27.816406 23.4375 27.4375 C 23.816406 27.058594 24 26.523438 24 26 L 24 6 C 24 5.476563 23.816406 4.941406 23.4375 4.5625 C 23.058594 4.183594 22.523438 4 22 4 Z M 10 6 L 22 6 L 22 26 L 10 26 Z M 16 7 C 15.449219 7 15 7.449219 15 8 C 15 8.550781 15.449219 9 16 9 C 16.550781 9 17 8.550781 17 8 C 17 7.449219 16.550781 7 16 7 Z M 14 23 L 14 25 L 18 25 L 18 23 Z "></path>
</g>
</svg>
