<?xml version="1.0" encoding="UTF-8"?>
<svg xmlns="http://www.w3.org/2000/svg" xmlns:xlink="http://www.w3.org/1999/xlink" viewBox="0 0 32 32" version="1.1">
<g>
<path d="M 16 3 C 12.144531 3 9 6.144531 9 10 C 9 12.410156 10.230469 14.550781 12.09375 15.8125 C 8.527344 17.34375 6 20.882813 6 25 L 8 25 C 8 20.570313 11.570313 17 16 17 C 20.429688 17 24 20.570313 24 25 L 26 25 C 26 20.914063 23.519531 17.394531 20 15.84375 C 21.097656 15.261719 22.144531 14.523438 23.09375 13.8125 C 25.160156 12.265625 26.71875 10.71875 26.71875 10.71875 L 27.40625 10 L 26.71875 9.3125 C 26.71875 9.3125 25.207031 7.738281 23.15625 6.1875 C 21.105469 4.636719 18.546875 3 16 3 Z M 16 5 C 17.574219 5 20.019531 6.363281 21.9375 7.8125 C 23.394531 8.914063 23.988281 9.53125 24.46875 10 C 23.976563 10.472656 23.371094 11.089844 21.90625 12.1875 C 19.96875 13.640625 17.496094 15 16 15 C 13.226563 15 11 12.773438 11 10 C 11 7.226563 13.226563 5 16 5 Z M 13.875 20 L 13.375 21 L 11 21 L 11 29 L 21 29 L 21 21 L 18.625 21 L 18.125 20 Z M 15.125 22 L 16.875 22 L 17.375 23 L 19 23 L 19 27 L 13 27 L 13 23 L 14.625 23 Z M 16 24 C 15.449219 24 15 24.449219 15 25 C 15 25.550781 15.449219 26 16 26 C 16.550781 26 17 25.550781 17 25 C 17 24.449219 16.550781 24 16 24 Z "></path>
</g>
</svg>
