<?xml version="1.0" encoding="UTF-8"?>
<svg xmlns="http://www.w3.org/2000/svg" xmlns:xlink="http://www.w3.org/1999/xlink" viewBox="0 0 32 32" version="1.1">
<g>
<path d="M 16 3 C 12.144531 3 9 6.144531 9 10 C 9 12.410156 10.230469 14.550781 12.09375 15.8125 C 8.527344 17.34375 6 20.882813 6 25 L 8 25 C 8 20.570313 11.570313 17 16 17 C 20.429688 17 24 20.570313 24 25 L 26 25 C 26 20.882813 23.472656 17.34375 19.90625 15.8125 C 21.769531 14.550781 23 12.410156 23 10 C 23 6.144531 19.855469 3 16 3 Z M 16 5 C 18.773438 5 21 7.226563 21 10 C 21 12.773438 18.773438 15 16 15 C 13.226563 15 11 12.773438 11 10 C 11 7.226563 13.226563 5 16 5 Z M 13.875 20 L 13.375 21 L 11 21 L 11 29 L 21 29 L 21 21 L 18.625 21 L 18.125 20 Z M 15.125 22 L 16.875 22 L 17.375 23 L 19 23 L 19 27 L 13 27 L 13 23 L 14.625 23 Z M 16 24 C 15.449219 24 15 24.449219 15 25 C 15 25.550781 15.449219 26 16 26 C 16.550781 26 17 25.550781 17 25 C 17 24.449219 16.550781 24 16 24 Z "></path>
</g>
</svg>
