<?xml version="1.0" encoding="UTF-8"?>
<svg xmlns="http://www.w3.org/2000/svg" xmlns:xlink="http://www.w3.org/1999/xlink" viewBox="0 0 32 32" version="1.1">
<g>
<path d="M 18.929688 1.726563 L 17.96875 4.523438 L 16.113281 3.878906 L 8.996094 24.59375 C 5.46875 25.214844 3.5625 26.097656 3.5625 26.097656 L 3 26.375 L 3 30 L 29 30 L 29 26.375 L 28.4375 26.097656 C 28.4375 26.097656 26.03125 24.964844 21.5625 24.363281 L 27.269531 7.765625 L 25.417969 7.117188 L 26.378906 4.320313 Z M 20.167969 4.273438 L 23.839844 5.554688 L 23.527344 6.460938 L 19.855469 5.183594 Z M 17.355469 6.429688 L 18.257813 6.742188 L 19.207031 7.074219 L 22.875 8.351563 L 23.816406 8.679688 L 24.730469 9 L 19.523438 24.15625 C 18.429688 24.066406 17.277344 24 16 24 C 14.214844 24 12.640625 24.113281 11.21875 24.277344 Z M 18.214844 9.492188 C 17.824219 9.519531 17.472656 9.773438 17.335938 10.164063 L 16.683594 12.054688 L 18.570313 12.707031 L 19.222656 10.816406 C 19.40625 10.296875 19.128906 9.726563 18.609375 9.546875 C 18.476563 9.5 18.34375 9.484375 18.214844 9.492188 Z M 21.546875 10.648438 C 21.15625 10.675781 20.804688 10.925781 20.671875 11.316406 L 20.015625 13.207031 L 21.90625 13.863281 L 22.558594 11.972656 C 22.738281 11.449219 22.464844 10.882813 21.941406 10.703125 C 21.8125 10.65625 21.675781 10.640625 21.546875 10.648438 Z M 16.742188 13.746094 C 16.351563 13.773438 16 14.027344 15.863281 14.417969 L 15.210938 16.308594 L 17.097656 16.964844 L 17.753906 15.074219 C 17.933594 14.550781 17.660156 13.980469 17.136719 13.800781 C 17.007813 13.753906 16.871094 13.738281 16.742188 13.746094 Z M 20.078125 14.902344 C 19.6875 14.925781 19.332031 15.179688 19.199219 15.570313 L 18.542969 17.460938 L 20.433594 18.113281 L 21.089844 16.222656 C 21.269531 15.703125 20.992188 15.132813 20.46875 14.953125 C 20.339844 14.90625 20.207031 14.890625 20.078125 14.902344 Z M 15.269531 18 C 14.878906 18.023438 14.527344 18.277344 14.390625 18.671875 L 13.738281 20.5625 L 15.628906 21.214844 L 16.28125 19.324219 C 16.460938 18.804688 16.1875 18.234375 15.664063 18.050781 C 15.535156 18.007813 15.398438 17.988281 15.269531 18 Z M 18.605469 19.152344 C 18.214844 19.179688 17.863281 19.433594 17.726563 19.824219 L 17.074219 21.714844 L 18.964844 22.367188 L 19.613281 20.480469 C 19.796875 19.957031 19.519531 19.386719 19 19.203125 C 18.867188 19.160156 18.734375 19.144531 18.605469 19.152344 Z M 16 26 C 22.941406 26 26.320313 27.414063 27 27.714844 L 27 28 L 5 28 L 5 27.714844 C 5.679688 27.414063 9.058594 26 16 26 Z "></path>
</g>
</svg>
