<?xml version="1.0" encoding="UTF-8"?>
<svg xmlns="http://www.w3.org/2000/svg" xmlns:xlink="http://www.w3.org/1999/xlink" viewBox="0 0 32 32" version="1.1">
<g>
<path d="M 9 4 C 7.355469 4 6 5.355469 6 7 L 4 7 L 4 9 L 6 9 L 6 23 L 22 23 L 22 9 L 28 9 L 28 7 L 26 7 C 26 5.355469 24.644531 4 23 4 Z M 9 6 L 20.40625 6 C 20.269531 6.339844 20 6.613281 20 7 L 20 17 L 8 17 L 8 7 C 8 6.445313 8.445313 6 9 6 Z M 23 6 C 23.554688 6 24 6.445313 24 7 L 22 7 C 22 6.445313 22.445313 6 23 6 Z M 24 10 L 24 26 L 12 26 L 12 24 L 10 24 L 10 28 L 26 28 L 26 10 Z M 8 19 L 20 19 L 20 21 L 8 21 Z "></path>
</g>
</svg>
