<?xml version="1.0" encoding="UTF-8"?>
<svg xmlns="http://www.w3.org/2000/svg" xmlns:xlink="http://www.w3.org/1999/xlink" viewBox="0 0 32 32" version="1.1">
<g>
<path d="M 13.234375 3 C 12.101563 3 11.058594 3.644531 10.550781 4.65625 L 9.0625 7.632813 L 7.316406 7.050781 L 6.683594 8.949219 L 8.160156 9.441406 L 8 9.765625 L 8 16 C 8 16.550781 8.449219 17 9 17 L 11 17 L 11.667969 15 L 20.332031 15 L 21 17 L 23 17 C 23.550781 17 24 16.550781 24 16 L 24 9.765625 L 23.839844 9.441406 L 25.316406 8.949219 L 24.683594 7.050781 L 22.9375 7.632813 L 21.449219 4.65625 C 20.941406 3.644531 19.898438 3 18.765625 3 Z M 13.234375 5 L 18.765625 5 C 19.144531 5 19.488281 5.210938 19.65625 5.554688 L 20.382813 7 L 11.617188 7 L 12.34375 5.554688 C 12.511719 5.210938 12.855469 5 13.234375 5 Z M 10.617188 9 L 21.382813 9 L 21.882813 10 L 19 10 L 19 12 L 22 12 L 22 13 L 10 13 L 10 12 L 13 12 L 13 10 L 10.117188 10 Z M 8.882813 18 C 10.710938 18.980469 12 20.039063 12 21 C 12 21.703125 11.257813 22.027344 9.683594 22.550781 C 8.128906 23.070313 6 23.777344 6 26 C 6 27.101563 6.625 28.105469 7.601563 29 L 11.113281 29 C 9.289063 28.019531 8 26.960938 8 26 C 8 25.296875 8.742188 24.972656 10.316406 24.449219 C 11.871094 23.929688 14 23.222656 14 21 C 14 19.898438 13.375 18.894531 12.402344 18 Z M 20.886719 18 C 22.710938 18.980469 24 20.039063 24 21 C 24 21.703125 23.257813 22.027344 21.683594 22.550781 C 20.128906 23.070313 18 23.777344 18 26 C 18 27.101563 18.625 28.105469 19.597656 29 L 23.113281 29 C 21.289063 28.019531 20 26.960938 20 26 C 20 25.296875 20.742188 24.972656 22.316406 24.449219 C 23.871094 23.929688 26 23.222656 26 21 C 26 19.898438 25.375 18.894531 24.402344 18 Z "></path>
</g>
</svg>
