<?xml version="1.0" encoding="UTF-8"?>
<svg xmlns="http://www.w3.org/2000/svg" xmlns:xlink="http://www.w3.org/1999/xlink" viewBox="0 0 32 32" version="1.1">
<g>
<path d="M 15.8125 5 C 15.488281 5.066406 15.222656 5.289063 15.09375 5.59375 L 13.625 9 L 6 9 C 5.96875 9 5.9375 9 5.90625 9 C 5.875 9 5.84375 9 5.8125 9 C 5.488281 9.066406 5.222656 9.289063 5.09375 9.59375 L 2.09375 16.59375 C 2.035156 16.722656 2.003906 16.859375 2 17 L 2 22 C 2 22.03125 2 22.0625 2 22.09375 L 2 23 C 2 23.550781 2.449219 24 3 24 L 6 24 L 6.34375 23 L 8 23 L 8 26 C 8 26.03125 8 26.0625 8 26.09375 L 8 27 C 8 27.550781 8.449219 28 9 28 L 12 28 L 12.34375 27 L 21.65625 27 L 22 28 L 25 28 C 25.550781 28 26 27.550781 26 27 L 26 26.15625 C 26.003906 26.105469 26.003906 26.050781 26 26 L 26 21 C 25.996094 20.859375 25.964844 20.722656 25.90625 20.59375 L 25.21875 19 L 25.65625 19 L 26 20 L 29 20 C 29.550781 20 30 19.550781 30 19 L 30 18.15625 C 30.003906 18.105469 30.003906 18.050781 30 18 L 30 13 C 29.996094 12.859375 29.964844 12.722656 29.90625 12.59375 L 26.90625 5.59375 C 26.746094 5.234375 26.390625 5.003906 26 5 L 16 5 C 15.96875 5 15.9375 5 15.90625 5 C 15.875 5 15.84375 5 15.8125 5 Z M 16.65625 7 L 25.34375 7 L 26.625 10 L 17.09375 10 L 16.9375 9.625 C 16.785156 9.242188 16.410156 8.996094 16 9 L 15.78125 9 Z M 6.65625 11 L 15.3125 11 L 16.15625 13 L 12 13 C 11.96875 13 11.9375 13 11.90625 13 C 11.875 13 11.84375 13 11.8125 13 C 11.488281 13.066406 11.222656 13.289063 11.09375 13.59375 L 10.90625 14 L 5.375 14 Z M 17.90625 12 L 27.5 12 L 28 13.1875 L 28 17 L 24.375 17 L 22.90625 13.59375 C 22.746094 13.234375 22.390625 13.003906 22 13 L 18.34375 13 Z M 25.5 13 C 24.671875 13 24 13.671875 24 14.5 C 24 15.328125 24.671875 16 25.5 16 C 26.328125 16 27 15.328125 27 14.5 C 27 13.671875 26.328125 13 25.5 13 Z M 12.65625 15 L 21.34375 15 L 22.625 18 L 11.375 18 Z M 4.5 16 L 10.0625 16 L 8.09375 20.59375 C 8.035156 20.722656 8.003906 20.859375 8 21 L 4 21 L 4 17.1875 Z M 6.5 17 C 5.671875 17 5 17.671875 5 18.5 C 5 19.328125 5.671875 20 6.5 20 C 7.328125 20 8 19.328125 8 18.5 C 8 17.671875 7.328125 17 6.5 17 Z M 10.5 20 L 23.5 20 L 24 21.1875 L 24 25 L 10 25 L 10 21.1875 Z M 12.5 21 C 11.671875 21 11 21.671875 11 22.5 C 11 23.328125 11.671875 24 12.5 24 C 13.328125 24 14 23.328125 14 22.5 C 14 21.671875 13.328125 21 12.5 21 Z M 21.5 21 C 20.671875 21 20 21.671875 20 22.5 C 20 23.328125 20.671875 24 21.5 24 C 22.328125 24 23 23.328125 23 22.5 C 23 21.671875 22.328125 21 21.5 21 Z "></path>
</g>
</svg>
