<?xml version="1.0" encoding="UTF-8"?>
<svg xmlns="http://www.w3.org/2000/svg" xmlns:xlink="http://www.w3.org/1999/xlink" viewBox="0 0 32 32" version="1.1">
<g>
<path d="M 9.5 4 C 7.578125 4 6 5.578125 6 7.5 C 6 9.421875 7.578125 11 9.5 11 C 11.421875 11 13 9.421875 13 7.5 C 13 5.578125 11.421875 4 9.5 4 Z M 9.5 6 C 10.339844 6 11 6.660156 11 7.5 C 11 8.339844 10.339844 9 9.5 9 C 8.660156 9 8 8.339844 8 7.5 C 8 6.660156 8.660156 6 9.5 6 Z M 17 7 L 17 8 L 15 8 L 15 10 L 25 10 L 25 20 L 14 20 L 14 22 L 16.5 22 L 14 27 L 16 27 L 18 23 L 20 27 L 22 27 L 19.5 22 L 27 22 L 27 8 L 19 8 L 19 7 Z M 9 12 C 6.800781 12 5 13.800781 5 16 L 5 21.25 L 7 22.25 L 7 28 L 9 28 L 9 21 L 8.4375 20.75 L 7 20.03125 L 7 16 C 7 14.882813 7.882813 14 9 14 L 10.75 14 C 11.28125 14 11.78125 14.21875 12.15625 14.59375 L 14.28125 16.71875 L 14.59375 17 L 19 17 L 19 15 L 15.4375 15 L 13.59375 13.1875 C 13.585938 13.179688 13.570313 13.195313 13.5625 13.1875 C 12.816406 12.449219 11.800781 12 10.75 12 Z M 10 21 L 10 28 L 12 28 L 12 21 Z "></path>
</g>
</svg>
