<?xml version="1.0" encoding="UTF-8"?>
<svg xmlns="http://www.w3.org/2000/svg" xmlns:xlink="http://www.w3.org/1999/xlink" viewBox="0 0 32 32" version="1.1">
<g>
<path d="M 4 7 L 4 8 C 4 8.566406 3.566406 9 3 9 L 2 9 L 2 23 L 3 23 C 3.566406 23 4 23.433594 4 24 L 4 25 L 28 25 L 28 24 C 28 23.433594 28.433594 23 29 23 L 30 23 L 30 9 L 29 9 C 28.433594 9 28 8.566406 28 8 L 28 7 Z M 5.59375 9 L 21 9 L 21 11 L 23 11 L 23 9 L 26.40625 9 C 26.710938 9.769531 27.230469 10.289063 28 10.59375 L 28 21.40625 C 27.230469 21.710938 26.710938 22.230469 26.40625 23 L 23 23 L 23 21 L 21 21 L 21 23 L 5.59375 23 C 5.289063 22.230469 4.769531 21.710938 4 21.40625 L 4 10.59375 C 4.769531 10.289063 5.289063 9.769531 5.59375 9 Z M 21 13 L 21 15 L 23 15 L 23 13 Z M 21 17 L 21 19 L 23 19 L 23 17 Z "></path>
</g>
</svg>
