<?xml version="1.0" encoding="UTF-8"?>
<svg xmlns="http://www.w3.org/2000/svg" xmlns:xlink="http://www.w3.org/1999/xlink" viewBox="0 0 32 32" version="1.1">
<g>
<path d="M 7 6 C 5.355469 6 4 7.355469 4 9 L 4 25 L 10.15625 25 C 10.601563 26.71875 12.148438 28 14 28 C 15.851563 28 17.398438 26.71875 17.84375 25 L 28 25 L 28 23 L 24 23 L 24 14 C 24 9.59375 20.40625 6 16 6 Z M 7 8 L 16 8 C 19.324219 8 22 10.675781 22 14 L 22 23 L 17.84375 23 C 17.398438 21.28125 15.851563 20 14 20 C 12.148438 20 10.601563 21.28125 10.15625 23 L 6 23 L 6 9 C 6 8.433594 6.433594 8 7 8 Z M 8 10 L 8 16 L 20 16 L 20 14 C 20 11.800781 18.199219 10 16 10 Z M 10 12 L 16 12 C 17.117188 12 18 12.882813 18 14 L 10 14 Z M 14 22 C 15.117188 22 16 22.882813 16 24 C 16 25.117188 15.117188 26 14 26 C 12.882813 26 12 25.117188 12 24 C 12 22.882813 12.882813 22 14 22 Z "></path>
</g>
</svg>
