<?xml version="1.0" encoding="UTF-8"?>
<svg xmlns="http://www.w3.org/2000/svg" xmlns:xlink="http://www.w3.org/1999/xlink" viewBox="0 0 32 32" version="1.1">
<g>
<path d="M 11 1 L 11 3 L 13.4375 3 L 15 5.3125 L 15 6 L 5.3125 6 C 4.113281 6 3.035156 6.714844 2.5625 7.8125 L 0.40625 12.84375 C 0.140625 13.464844 0 14.136719 0 14.8125 L 0 21 C 0 22.292969 0.84375 23.394531 2 23.8125 C 1.992188 23.875 1.96875 23.9375 1.96875 24 C 1.96875 25.105469 2.863281 26 3.96875 26 C 5.074219 26 5.96875 25.105469 5.96875 24 C 5.96875 25.105469 6.863281 26 7.96875 26 C 9.074219 26 9.96875 25.105469 9.96875 24 L 21.96875 24 C 21.96875 25.105469 22.863281 26 23.96875 26 C 25.074219 26 25.96875 25.105469 25.96875 24 C 25.96875 25.105469 26.863281 26 27.96875 26 C 29.074219 26 29.96875 25.105469 29.96875 24 C 29.96875 23.9375 29.941406 23.875 29.9375 23.8125 C 31.121094 23.410156 32 22.3125 32 21 L 32 14.8125 C 32 14.136719 31.863281 13.464844 31.59375 12.84375 L 29.5 7.9375 L 29.4375 7.8125 C 28.964844 6.710938 27.886719 6 26.6875 6 L 17 6 L 17 4.6875 L 16.84375 4.4375 L 15.875 3 L 18 3 L 18 1 Z M 5.3125 8 L 10 8 L 10 13 L 2.53125 13 L 4.40625 8.59375 C 4.566406 8.222656 4.910156 8 5.3125 8 Z M 12 8 L 20 8 L 20 13 L 12 13 Z M 22 8 L 26.6875 8 C 27.089844 8 27.433594 8.222656 27.59375 8.59375 L 29.46875 13 L 22 13 Z M 2 15 L 30 15 L 30 17 L 27 17 L 27 19 L 30 19 L 30 21 C 30 21.566406 29.566406 22 29 22 L 3 22 C 2.433594 22 2 21.566406 2 21 Z "></path>
</g>
</svg>
