<?xml version="1.0" encoding="UTF-8"?>
<svg xmlns="http://www.w3.org/2000/svg" xmlns:xlink="http://www.w3.org/1999/xlink" viewBox="0 0 32 32" version="1.1">
<g>
<path d="M 13 8 L 13 10 L 0 10 L 0 12 L 13 12 L 13 15 L 0 15 L 0 17 L 13 17 L 13 20 L 0 20 L 0 22 L 13 22 L 13 24 L 28.40625 24 L 28.71875 23.71875 L 31.71875 20.71875 L 32 20.40625 L 32 11.59375 L 31.71875 11.28125 L 28.71875 8.28125 L 28.40625 8 Z M 15 10 L 22 10 L 22 22 L 15 22 Z M 24 10 L 27.5625 10 L 30 12.4375 L 30 19.5625 L 27.5625 22 L 24 22 Z M 27 15 C 26.449219 15 26 15.449219 26 16 C 26 16.550781 26.449219 17 27 17 C 27.550781 17 28 16.550781 28 16 C 28 15.449219 27.550781 15 27 15 Z "></path>
</g>
</svg>
