<?xml version="1.0" encoding="UTF-8"?>
<svg xmlns="http://www.w3.org/2000/svg" xmlns:xlink="http://www.w3.org/1999/xlink" viewBox="0 0 32 32" version="1.1">
<g>
<path d="M 16 3 L 11.714844 9 L 4 9 L 4 11 L 6 11 L 6 13 L 8 13 L 8 11 L 11 11 L 11 21 L 6 29 L 16 27 L 26 29 L 21 21 C 21 20.992188 21 20.984375 21 20.972656 L 21 11 L 24 11 L 24 13 L 26 13 L 26 11 L 28 11 L 28 9 L 20.285156 9 Z M 16 6.441406 L 17.828125 9 L 14.171875 9 Z M 13.28125 11 L 18.71875 11 L 16 14.398438 Z M 13 13.851563 L 14.71875 16 L 13 18.148438 Z M 19 13.851563 L 19 18.148438 L 17.28125 16 Z M 16 17.601563 L 18.71875 21 L 16 24.398438 L 13.28125 21 Z M 19.796875 22.851563 L 21.847656 26.128906 L 17.820313 25.324219 Z M 12.203125 22.855469 L 14.175781 25.324219 L 10.152344 26.128906 Z "></path>
</g>
</svg>
