<?xml version="1.0" encoding="UTF-8"?>
<svg xmlns="http://www.w3.org/2000/svg" xmlns:xlink="http://www.w3.org/1999/xlink" viewBox="0 0 32 32" version="1.1">
<g>
<path d="M 28 4.46875 L 26.59375 5.09375 L 19.96875 7.9375 L 12.34375 5.0625 L 11.96875 4.9375 L 11.59375 5.09375 L 4.59375 8.09375 L 4 8.34375 L 4 27.53125 L 5.40625 26.90625 L 12.03125 24.0625 L 19.65625 26.9375 L 20.03125 27.0625 L 20.40625 26.90625 L 27.40625 23.90625 L 28 23.65625 Z M 12.03125 7.0625 L 19.65625 9.9375 L 20.03125 10.0625 L 20.40625 9.90625 L 26 7.5 L 26 22.34375 L 19.96875 24.9375 L 12.34375 22.0625 L 11.96875 21.9375 L 11.59375 22.09375 L 6 24.5 L 6 9.65625 Z M 21 11 C 20.449219 11 20 11.449219 20 12 C 20 12.550781 20.449219 13 21 13 C 21.550781 13 22 12.550781 22 12 C 22 11.449219 21.550781 11 21 11 Z M 9.71875 13.28125 L 8.28125 14.71875 L 10.5625 17 L 8.28125 19.28125 L 9.71875 20.71875 L 12 18.4375 L 14.28125 20.71875 L 15.71875 19.28125 L 13.4375 17 L 15.71875 14.71875 L 14.28125 13.28125 L 12 15.5625 Z M 23 14 C 22.449219 14 22 14.449219 22 15 C 22 15.550781 22.449219 16 23 16 C 23.550781 16 24 15.550781 24 15 C 24 14.449219 23.550781 14 23 14 Z M 17 16 C 16.449219 16 16 16.449219 16 17 C 16 17.550781 16.449219 18 17 18 C 17.550781 18 18 17.550781 18 17 C 18 16.449219 17.550781 16 17 16 Z M 23 17 C 22.449219 17 22 17.449219 22 18 C 22 18.550781 22.449219 19 23 19 C 23.550781 19 24 18.550781 24 18 C 24 17.449219 23.550781 17 23 17 Z M 20 18 C 19.449219 18 19 18.449219 19 19 C 19 19.550781 19.449219 20 20 20 C 20.550781 20 21 19.550781 21 19 C 21 18.449219 20.550781 18 20 18 Z "></path>
</g>
</svg>
