<?xml version="1.0" encoding="UTF-8"?>
<svg xmlns="http://www.w3.org/2000/svg" xmlns:xlink="http://www.w3.org/1999/xlink" viewBox="0 0 32 32" version="1.1">
<g>
<path d="M 9 5 C 7.363281 5 6.265625 6.074219 5.71875 7 C 5.171875 7.925781 5.03125 8.8125 5.03125 8.8125 L 4.96875 9.15625 L 5.09375 9.4375 L 6.875 13 L 5 16.75 L 5 27 L 27 27 L 27 16.75 L 25.125 13 L 26.90625 9.4375 L 27.03125 9.15625 L 26.96875 8.8125 C 26.96875 8.8125 26.828125 7.925781 26.28125 7 C 25.734375 6.074219 24.636719 5 23 5 Z M 9 7 L 23 7 C 23.820313 7 24.222656 7.425781 24.5625 8 L 7.4375 8 C 7.777344 7.425781 8.179688 7 9 7 Z M 7.625 10 L 13 10 C 11.519531 10 10.222656 10.804688 9.53125 12 C 9.234375 12.011719 8.960938 12.054688 8.6875 12.125 Z M 18.625 10 L 24.375 10 L 23.28125 12.1875 C 22.90625 12.066406 22.480469 12 22.03125 12 C 21.902344 12 21.785156 12.019531 21.65625 12.03125 C 21.054688 11.496094 20.289063 11.132813 19.46875 11.03125 C 19.25 10.644531 18.957031 10.292969 18.625 10 Z M 16 11 C 17.105469 11 18 11.894531 18 13 C 18 13.101563 17.984375 13.183594 17.96875 13.28125 C 18.269531 13.097656 18.621094 13 19 13 C 19.871094 13 20.601563 13.5625 20.875 14.34375 C 21.195313 14.125 21.617188 14 22.03125 14 C 23.519531 14 23.90625 15.316406 24 16 L 7.625 16 L 8.375 14.5 C 8.714844 14.1875 9.167969 14 9.71875 14 C 10.332031 14 10.660156 14.230469 11.09375 14.59375 C 11.035156 14.40625 11 14.207031 11 14 C 11 12.894531 11.894531 12 13 12 C 13.414063 12 13.804688 12.125 14.125 12.34375 C 14.398438 11.5625 15.128906 11 16 11 Z M 7 18 L 14 18 L 14 20 C 14 21.101563 14.898438 22 16 22 C 17.101563 22 18 21.101563 18 20 L 18 18 L 25 18 L 25 22.84375 C 24.039063 23.296875 23.285156 24.050781 22.8125 25 L 9.1875 25 C 8.714844 24.050781 7.960938 23.296875 7 22.84375 Z M 16 18 C 16.550781 18 17 18.449219 17 19 C 17 19.550781 16.550781 20 16 20 C 15.449219 20 15 19.550781 15 19 C 15 18.449219 15.449219 18 16 18 Z "></path>
</g>
</svg>
