<?xml version="1.0" encoding="UTF-8"?>
<svg xmlns="http://www.w3.org/2000/svg" xmlns:xlink="http://www.w3.org/1999/xlink" viewBox="0 0 32 32" version="1.1">
<g>
<path d="M 16.5 4 C 14.027344 4 12 6.027344 12 8.5 C 12 10.972656 14.027344 13 16.5 13 C 18.972656 13 21 10.972656 21 8.5 C 21 6.027344 18.972656 4 16.5 4 Z M 16.5 6 C 17.890625 6 19 7.109375 19 8.5 C 19 9.890625 17.890625 11 16.5 11 C 15.109375 11 14 9.890625 14 8.5 C 14 7.109375 15.109375 6 16.5 6 Z M 12.25 14 C 11.15625 14 10.148438 14.597656 9.625 15.5625 C 9.0625 16.597656 8.179688 18.21875 7.4375 19.6875 C 7.066406 20.421875 6.722656 21.121094 6.46875 21.6875 C 6.34375 21.972656 6.238281 22.242188 6.15625 22.46875 C 6.074219 22.695313 6 22.800781 6 23.1875 C 6 24.703125 6.527344 25.984375 7.4375 26.8125 C 8.347656 27.640625 9.570313 28 10.8125 28 L 16.40625 28 C 17.355469 28 18.261719 27.628906 18.9375 27 L 22.09375 27 C 23.90625 27 25.265625 25.308594 24.96875 23.53125 L 24.96875 23.4375 L 23.09375 16.25 C 22.753906 14.929688 21.550781 14 20.1875 14 Z M 12.25 16 L 13.84375 16 L 13 21.84375 L 12.84375 23 L 16.5 23 C 17.421875 23 18.066406 23.742188 18 24.71875 C 17.945313 25.445313 17.246094 26 16.40625 26 L 10.8125 26 C 9.953125 26 9.246094 25.769531 8.78125 25.34375 C 8.328125 24.933594 8.019531 24.300781 8 23.28125 C 8 23.289063 8 23.253906 8 23.25 C 8 23.226563 8 23.210938 8 23.1875 C 8.003906 23.160156 8.019531 23.15625 8.03125 23.125 C 8.085938 22.976563 8.199219 22.757813 8.3125 22.5 C 8.539063 21.988281 8.855469 21.3125 9.21875 20.59375 C 9.945313 19.160156 10.820313 17.558594 11.375 16.53125 C 11.550781 16.207031 11.878906 16 12.25 16 Z M 15.875 16 L 20.1875 16 C 20.648438 16 21.039063 16.304688 21.15625 16.75 L 23 23.875 C 23.105469 24.496094 22.683594 25 22.09375 25 L 19.96875 25 C 19.972656 24.957031 19.996094 24.921875 20 24.875 C 20.136719 22.851563 18.578125 21 16.5 21 L 15.15625 21 Z "></path>
</g>
</svg>
