<?xml version="1.0" encoding="UTF-8"?>
<svg xmlns="http://www.w3.org/2000/svg" xmlns:xlink="http://www.w3.org/1999/xlink" viewBox="0 0 32 32" version="1.1">
<g>
<path d="M 3 6 L 3 8 L 4 8 L 4 14 L 6 14 L 6 8 L 7 8 L 7 6 Z M 8 6 L 8 14 L 10 14 L 10 11 L 11 14 L 13 14 L 11.875 10.59375 C 12.558594 10.144531 13 9.371094 13 8.5 C 13 7.132813 11.867188 6 10.5 6 Z M 14 6 L 14 14 L 16 14 L 16 6 Z M 19.21875 6 L 19 6.6875 L 17.0625 12.6875 L 17 12.84375 L 17 14 L 19 14 L 19 13.125 L 19.03125 13 L 20.96875 13 L 21 13.125 L 21 14 L 23 14 L 23 12.84375 L 22.9375 12.6875 L 21 6.6875 L 20.78125 6 Z M 24 6 L 24 14 L 28 14 L 28 12 L 26 12 L 26 6 Z M 10 8 L 10.5 8 C 10.785156 8 11 8.214844 11 8.5 C 11 8.785156 10.785156 9 10.5 9 L 10 9 Z M 20 10.0625 L 20.3125 11 L 19.6875 11 Z M 5 16 L 5 26 L 7 26 L 7 18 L 15 18 L 15 22.5625 L 13.71875 21.28125 L 12.28125 22.71875 L 15.28125 25.71875 L 16 26.40625 L 16.71875 25.71875 L 19.71875 22.71875 L 18.28125 21.28125 L 17 22.5625 L 17 18 L 25 18 L 25 26 L 27 26 L 27 16 Z "></path>
</g>
</svg>
