<?xml version="1.0" encoding="UTF-8"?>
<svg xmlns="http://www.w3.org/2000/svg" xmlns:xlink="http://www.w3.org/1999/xlink" viewBox="0 0 32 32" version="1.1">
<g>
<path d="M 16 4 L 16 6 C 18.085938 5.992188 19.71875 6.074219 20.8125 6.21875 C 21.359375 6.292969 21.777344 6.382813 22 6.46875 C 22.046875 6.484375 22.035156 6.488281 22.0625 6.5 C 22.039063 6.519531 22.035156 6.511719 21.96875 6.5625 C 21.734375 6.75 21.082031 7 20 7 L 18.71875 7 L 19.28125 9.25 C 15.257813 10.152344 12.328125 11.878906 10.21875 13.8125 L 8.9375 12 L 11 12 L 11 10 L 4 10 L 4 13 L 6 13 L 6 12 L 6.46875 12 L 8.8125 15.28125 C 8.332031 15.839844 7.898438 16.386719 7.53125 16.9375 C 7.277344 17.316406 7.019531 17.695313 6.8125 18.0625 C 6.546875 18.019531 6.277344 18 6 18 C 3.25 18 1 20.25 1 23 C 1 25.75 3.25 28 6 28 C 8.75 28 11 25.75 11 23 C 11 21.257813 10.082031 19.707031 8.71875 18.8125 C 8.871094 18.554688 9.011719 18.296875 9.1875 18.03125 C 10.96875 15.371094 14.101563 12.449219 19.75 11.1875 L 20.09375 12.5625 C 17.125 13.734375 15 16.625 15 20 C 15 24.40625 18.59375 28 23 28 C 27.40625 28 31 24.40625 31 20 C 31 15.59375 27.40625 12 23 12 C 22.679688 12 22.371094 12.027344 22.0625 12.0625 L 21.25 8.84375 C 22.019531 8.710938 22.691406 8.519531 23.1875 8.125 C 23.9375 7.53125 24.289063 6.445313 23.90625 5.59375 C 23.644531 5.015625 23.179688 4.769531 22.71875 4.59375 C 22.257813 4.417969 21.726563 4.304688 21.09375 4.21875 C 19.824219 4.050781 18.128906 3.992188 16 4 Z M 23 14 C 26.324219 14 29 16.675781 29 20 C 29 23.324219 26.324219 26 23 26 C 19.675781 26 17 23.324219 17 20 C 17 17.53125 18.472656 15.421875 20.59375 14.5 L 22.03125 20.25 L 23.96875 19.75 L 22.53125 14.03125 C 22.683594 14.019531 22.84375 14 23 14 Z M 5.875 20 C 5.183594 21.65625 5 22.84375 5 22.84375 L 7 23.15625 C 7 23.15625 7.171875 22.097656 7.8125 20.59375 C 8.539063 21.140625 9 22.011719 9 23 C 9 24.667969 7.667969 26 6 26 C 4.332031 26 3 24.667969 3 23 C 3 21.375 4.265625 20.066406 5.875 20 Z "></path>
</g>
</svg>
