<?xml version="1.0" encoding="UTF-8"?>
<svg xmlns="http://www.w3.org/2000/svg" xmlns:xlink="http://www.w3.org/1999/xlink" viewBox="0 0 32 32" version="1.1">
<g>
<path d="M 8 4 L 8 10 L 6 10 C 6 10 5.304688 9.976563 4.5625 10.34375 C 3.820313 10.710938 3 11.65625 3 13 C 3 14.507813 3.886719 15.8125 4.6875 16.875 C 5.257813 17.628906 5.722656 18.113281 6 18.40625 L 6 19 L 5 19 L 5 21 L 24 21 L 24 19 L 23 19 L 23 11 L 23.03125 12 C 23.03125 12 23.316406 12.007813 23.5625 12.125 C 23.808594 12.242188 24 12.285156 24 13 C 24 15.578125 24.800781 18.257813 25.5625 20.5 C 25.941406 21.621094 26.320313 22.632813 26.59375 23.4375 C 26.867188 24.242188 27 24.914063 27 25 C 27 25.703125 26.8125 25.753906 26.5625 25.875 C 26.3125 25.996094 26.03125 26 26.03125 26 L 23 26 L 23 22 L 21 22 L 21 26 L 8 26 L 8 22 L 6 22 L 6 28 L 25.96875 28 C 25.96875 28 26 28 26 28 C 26.027344 28 26.703125 28.011719 27.4375 27.65625 C 28.1875 27.292969 29 26.351563 29 25 C 29 24.289063 28.757813 23.632813 28.46875 22.78125 C 28.179688 21.929688 27.808594 20.929688 27.4375 19.84375 C 26.699219 17.667969 26 15.15625 26 13 C 26 11.640625 25.191406 10.675781 24.4375 10.3125 C 23.710938 9.964844 23.046875 9.996094 23 10 C 23 10 22.96875 10 22.96875 10 L 21 10 L 21 4 Z M 10 6 L 19 6 L 19 10 L 10 10 Z M 11 7 L 11 9 L 15 9 L 15 7 Z M 17 7 C 16.449219 7 16 7.449219 16 8 C 16 8.550781 16.449219 9 17 9 C 17.550781 9 18 8.550781 18 8 C 18 7.449219 17.550781 7 17 7 Z M 5.8125 12 C 5.921875 11.984375 6 12 6 12 L 6 15.1875 C 5.441406 14.347656 5 13.441406 5 13 C 5 12.316406 5.179688 12.25 5.4375 12.125 C 5.566406 12.0625 5.703125 12.015625 5.8125 12 Z M 8 12 L 21 12 L 21 19 L 8 19 Z M 10 13 L 10 17 L 12 17 L 12 13 Z M 13 13 L 13 17 L 15 17 L 15 13 Z M 18 13 C 16.90625 13 16 13.90625 16 15 C 16 16.09375 16.90625 17 18 17 C 19.09375 17 20 16.09375 20 15 C 20 13.90625 19.09375 13 18 13 Z "></path>
</g>
</svg>
