<?xml version="1.0" encoding="UTF-8"?>
<svg xmlns="http://www.w3.org/2000/svg" xmlns:xlink="http://www.w3.org/1999/xlink" viewBox="0 0 32 32" version="1.1">
<g>
<path d="M 17 4 C 14.25 4 12 6.253906 12 9 C 12 10.441406 12.730469 11.714844 13.84375 12.46875 C 14.515625 12.921875 15.320313 13.1875 16.1875 13.1875 C 16.433594 13.1875 16.671875 13.171875 16.90625 13.125 C 17.285156 13.046875 17.636719 12.90625 17.96875 12.71875 C 18.230469 12.570313 18.472656 12.390625 18.6875 12.1875 C 19.015625 11.878906 19.285156 11.53125 19.46875 11.125 C 19.648438 10.726563 19.75 10.296875 19.75 9.84375 C 19.75 9.625 19.730469 9.417969 19.6875 9.21875 C 19.648438 9.035156 19.601563 8.851563 19.53125 8.6875 C 19.527344 8.675781 19.507813 8.667969 19.5 8.65625 C 19.46875 8.585938 19.441406 8.535156 19.40625 8.46875 C 19.355469 8.375 19.3125 8.273438 19.25 8.1875 C 19.152344 8.050781 19.027344 7.898438 18.90625 7.78125 C 18.894531 7.769531 18.886719 7.761719 18.875 7.75 C 18.753906 7.636719 18.632813 7.558594 18.5 7.46875 C 18.488281 7.460938 18.480469 7.445313 18.46875 7.4375 C 18.332031 7.351563 18.179688 7.28125 18.03125 7.21875 C 17.910156 7.167969 17.785156 7.125 17.65625 7.09375 C 17.613281 7.082031 17.574219 7.070313 17.53125 7.0625 C 17.519531 7.058594 17.511719 7.0625 17.5 7.0625 C 17.332031 7.03125 17.164063 7 17 7 L 17 9 C 17.066406 9 17.136719 9.03125 17.21875 9.0625 C 17.394531 9.125 17.585938 9.242188 17.6875 9.46875 C 17.738281 9.574219 17.75 9.695313 17.75 9.84375 C 17.75 9.90625 17.738281 9.960938 17.71875 10.03125 C 17.714844 10.042969 17.722656 10.050781 17.71875 10.0625 C 17.605469 10.40625 17.253906 10.847656 16.8125 11.0625 C 16.621094 11.15625 16.410156 11.1875 16.1875 11.1875 C 15.582031 11.1875 15.046875 10.945313 14.65625 10.5625 C 14.558594 10.464844 14.453125 10.335938 14.375 10.21875 C 14.21875 9.984375 14.089844 9.722656 14.03125 9.4375 C 14.003906 9.292969 14 9.152344 14 9 C 14 8.792969 14.023438 8.601563 14.0625 8.40625 C 14.140625 8.015625 14.285156 7.632813 14.5 7.3125 C 15.035156 6.515625 15.957031 6 17 6 C 17.554688 6 18.082031 6.109375 18.5625 6.3125 C 18.800781 6.414063 19.007813 6.542969 19.21875 6.6875 C 19.226563 6.691406 19.242188 6.683594 19.25 6.6875 C 19.667969 6.972656 20.03125 7.332031 20.3125 7.75 C 20.742188 8.386719 21 9.167969 21 10 C 21 10.183594 20.988281 10.355469 20.96875 10.53125 C 20.953125 10.707031 20.9375 10.863281 20.90625 11.03125 C 20.871094 11.210938 20.804688 11.386719 20.75 11.5625 C 20.707031 11.707031 20.679688 11.863281 20.625 12 C 20.617188 12.019531 20.601563 12.042969 20.59375 12.0625 C 20.589844 12.070313 20.597656 12.085938 20.59375 12.09375 C 20.464844 12.398438 20.277344 12.664063 20.09375 12.9375 C 19.980469 13.105469 19.851563 13.253906 19.71875 13.40625 C 19.664063 13.464844 19.617188 13.539063 19.5625 13.59375 C 18.671875 14.484375 17.4375 15 16 15 C 13.125 15 12.875 14 10 14 C 9.804688 14 9.605469 14.011719 9.40625 14.03125 C 9.367188 14.035156 9.320313 14.058594 9.28125 14.0625 C 9.160156 14.078125 9.058594 14.070313 8.9375 14.09375 C 8.839844 14.113281 8.722656 14.132813 8.625 14.15625 C 8.5625 14.171875 8.5 14.203125 8.4375 14.21875 C 8.328125 14.25 8.234375 14.277344 8.125 14.3125 L 8.09375 14.3125 C 5.714844 15.109375 4 17.359375 4 20 C 4 22.753906 6.242188 25 9 25 C 11.3125 25 13.1875 23.128906 13.1875 20.8125 C 13.1875 18.917969 11.628906 17.25 9.84375 17.25 C 8.085938 17.25 7 18.675781 7 20 L 9 20 C 9 19.734375 9.246094 19.25 9.84375 19.25 C 10.457031 19.25 11.1875 19.949219 11.1875 20.8125 C 11.1875 22.023438 10.210938 23 9 23 C 7.347656 23 6 21.652344 6 20 C 6 17.796875 7.796875 16 10 16 C 10.332031 16 10.628906 16.039063 10.9375 16.09375 C 11.03125 16.113281 11.128906 16.132813 11.21875 16.15625 C 11.359375 16.1875 11.492188 16.238281 11.625 16.28125 C 12.496094 16.589844 13.160156 17.125 13.65625 17.71875 C 15.429688 19.785156 14.535156 24.179688 19.71875 26.53125 C 22.730469 27.894531 26.292969 26.414063 27.59375 23.375 C 28.679688 20.84375 27.503906 17.894531 24.96875 16.8125 C 22.839844 15.902344 20.378906 16.871094 19.46875 19 C 18.722656 20.742188 19.484375 22.890625 21.125 23.59375 C 22.738281 24.285156 24.320313 23.40625 24.84375 22.1875 L 23 21.40625 C 22.894531 21.648438 22.484375 21.984375 21.9375 21.75 C 21.375 21.507813 20.941406 20.605469 21.28125 19.8125 C 21.757813 18.699219 23.074219 18.179688 24.1875 18.65625 C 25.707031 19.304688 26.398438 21.042969 25.75 22.5625 C 24.882813 24.589844 22.527344 25.554688 20.5 24.6875 C 17.875 23.566406 16.78125 20.453125 18.25 18.0625 C 19.597656 16.257813 21.875 14.914063 22.6875 12.15625 C 22.8125 11.730469 22.921875 11.277344 22.96875 10.78125 C 22.96875 10.769531 22.96875 10.761719 22.96875 10.75 C 22.992188 10.507813 23 10.25 23 10 C 23 6.699219 20.300781 4 17 4 Z "></path>
</g>
</svg>
