<?xml version="1.0" encoding="UTF-8"?>
<svg xmlns="http://www.w3.org/2000/svg" xmlns:xlink="http://www.w3.org/1999/xlink" viewBox="0 0 32 32" version="1.1">
<g>
<path d="M 17.5 3.09375 L 16.78125 3.78125 L 16.28125 4.3125 C 15.882813 4.710938 15.894531 5.011719 15.875 5.25 C 15.855469 5.488281 15.859375 5.691406 15.875 5.9375 C 15.902344 6.425781 15.992188 7.003906 16.03125 7.5625 C 16.070313 8.121094 16.078125 8.675781 16.03125 9.09375 C 15.984375 9.511719 15.851563 9.742188 15.84375 9.75 L 15.125 10.4375 L 6.125 19.46875 C 4.636719 20.957031 4.636719 23.386719 6.125 24.875 C 7.613281 26.363281 10.042969 26.363281 11.53125 24.875 L 19.875 16.53125 C 20.597656 15.808594 21.746094 15.808594 22.46875 16.53125 C 23.191406 17.253906 23.191406 18.402344 22.46875 19.125 L 21.5 20.0625 L 19.71875 18.28125 L 18.28125 19.71875 L 20.0625 21.5 L 17.8125 23.78125 L 19.21875 25.1875 L 23.875 20.53125 C 25.363281 19.042969 25.363281 16.613281 23.875 15.125 C 22.386719 13.636719 19.957031 13.636719 18.46875 15.125 L 18.34375 15.21875 L 16.5 17.0625 L 14.71875 15.28125 L 13.28125 16.71875 L 15.0625 18.5 L 12.5 21.0625 L 10.71875 19.28125 L 9.28125 20.71875 L 11.0625 22.5 L 10.125 23.46875 C 9.402344 24.191406 8.253906 24.191406 7.53125 23.46875 C 6.808594 22.746094 6.808594 21.597656 7.53125 20.875 L 17.25 11.15625 C 17.496094 10.910156 18.414063 10.816406 19.46875 10.9375 C 19.996094 11 20.507813 11.078125 21 11.125 C 21.246094 11.148438 21.488281 11.148438 21.75 11.125 C 22.011719 11.101563 22.347656 11.058594 22.6875 10.71875 L 23.21875 10.21875 L 23.90625 9.5 L 23.21875 8.78125 L 18.21875 3.78125 Z M 17.90625 6.34375 L 20.625 9.0625 C 20.324219 9.023438 20.058594 8.980469 19.6875 8.9375 C 19.171875 8.878906 18.585938 8.839844 18 8.875 C 18.023438 8.382813 18.035156 7.875 18 7.40625 C 17.96875 6.992188 17.933594 6.679688 17.90625 6.34375 Z M 16.375 23.9375 L 14.9375 25.375 L 17.625 28.0625 L 19.0625 26.625 Z "></path>
</g>
</svg>
