<?xml version="1.0" encoding="UTF-8"?>
<svg xmlns="http://www.w3.org/2000/svg" xmlns:xlink="http://www.w3.org/1999/xlink" viewBox="0 0 32 32" version="1.1">
<g>
<path d="M 27.5 9 L 27.21875 9.375 L 23.65625 14 L 19 14 L 19 12 L 17 12 L 17 14 L 16 14 L 16 12 L 14 12 L 14 14 L 13 14 L 13 12 L 11 12 L 11 14.09375 C 8.726563 14.5625 7 16.59375 7 19 C 7 21.40625 8.726563 23.4375 11 23.90625 L 11 25 L 13 25 L 13 24 L 14 24 L 14 25 L 16 25 L 16 24 L 17 24 L 17 25 L 19 25 L 19 23.96875 C 20.679688 23.71875 22 22.246094 22 20.5 C 22 19.953125 21.851563 19.460938 21.625 19 L 23.65625 19 L 27.21875 23.625 L 27.5 24 L 30 24 L 30 9 Z M 28 11.65625 L 28 21.34375 L 24.9375 17.375 L 24.65625 17 L 12 17 C 10.898438 17 10 17.898438 10 19 L 18.5 19 C 19.339844 19 20 19.660156 20 20.5 C 20 21.164063 19.589844 21.707031 19 21.90625 L 19 20 L 17 20 L 17 22 L 16 22 L 16 20 L 14 20 L 14 22 L 13 22 L 13 20 L 11 20 L 11 21.84375 C 9.828125 21.4375 9 20.320313 9 19 C 9 17.332031 10.332031 16 12 16 L 24.65625 16 L 24.9375 15.625 Z M 2 15 L 2 19 L 4 19 L 4 18 L 6.09375 18 C 6.214844 17.28125 6.460938 16.609375 6.8125 16 L 4 16 L 4 15 Z "></path>
</g>
</svg>
