<?xml version="1.0" encoding="UTF-8"?>
<svg xmlns="http://www.w3.org/2000/svg" xmlns:xlink="http://www.w3.org/1999/xlink" viewBox="0 0 32 32" version="1.1">
<g>
<path d="M 14.5 4 C 12.019531 4 10 6.019531 10 8.5 C 10 12.480469 16.75 16.289063 17.519531 16.710938 L 18 16.972656 L 18.480469 16.710938 C 19.25 16.289063 26 12.480469 26 8.5 C 26 6.019531 23.980469 4 21.5 4 C 20.089844 4 18.824219 4.652344 18 5.675781 C 17.175781 4.652344 15.910156 4 14.5 4 Z M 14.5 6 C 15.878906 6 17 7.121094 17 8.5 L 19 8.5 C 19 7.121094 20.121094 6 21.5 6 C 22.878906 6 24 7.121094 24 8.5 C 24 10.484375 20.503906 13.21875 18 14.683594 C 15.496094 13.21875 12 10.484375 12 8.5 C 12 7.121094 13.121094 6 14.5 6 Z M 10.515625 18 C 9.484375 18.003906 8.699219 18.265625 8.699219 18.265625 L 8.679688 18.273438 L 3.007813 20.449219 L 4.992188 26.019531 L 9.921875 24.128906 L 17.058594 28.058594 L 29.382813 22.953125 L 28.617188 21.109375 L 17.179688 25.84375 L 10.078125 21.933594 L 6.1875 23.421875 L 5.546875 21.617188 L 9.34375 20.160156 C 9.351563 20.15625 9.820313 20 10.515625 20 C 11.21875 20 12.039063 20.15625 12.738281 20.789063 L 12.75 20.796875 L 12.753906 20.800781 C 13.785156 21.695313 14.5625 22.320313 15.644531 22.660156 C 16.726563 23 17.953125 23.039063 20.003906 23.03125 L 19.996094 21.03125 C 17.984375 21.039063 16.933594 20.96875 16.246094 20.75 C 15.558594 20.539063 15.070313 20.160156 14.078125 19.300781 L 14.066406 19.292969 C 12.910156 18.253906 11.535156 17.996094 10.515625 18 Z "></path>
</g>
</svg>
