<?xml version="1.0" encoding="UTF-8"?>
<svg xmlns="http://www.w3.org/2000/svg" xmlns:xlink="http://www.w3.org/1999/xlink" viewBox="0 0 32 32" version="1.1">
<g>
<path d="M 12 5 L 12 7.15625 L 12.375 7.4375 C 12.375 7.4375 13.285156 8.214844 14.21875 9.34375 C 15.152344 10.472656 16 11.9375 16 13 L 16 16 L 14.71875 16 C 14.09375 14.261719 12.445313 13 10.5 13 C 8.027344 13 6 15.027344 6 17.5 L 6 21 C 6 24.300781 8.699219 27 12 27 L 15 27 C 18.300781 27 21 24.300781 21 21 L 21 13 C 21 11.953125 21.847656 10.472656 22.78125 9.34375 C 23.714844 8.214844 24.65625 7.4375 24.65625 7.4375 L 25 7.15625 L 25 5 Z M 14.71875 7 L 22.28125 7 C 21.882813 7.382813 21.75 7.449219 21.21875 8.09375 C 20.152344 9.378906 19 11.058594 19 13 L 19 21 C 19 22.613281 18.054688 23.992188 16.6875 24.625 C 17.472656 23.609375 18 22.375 18 21 L 18 13 C 18 11.054688 16.847656 9.347656 15.78125 8.0625 C 15.257813 7.429688 15.117188 7.378906 14.71875 7 Z M 10.5 15 C 11.308594 15 11.949219 15.414063 12.40625 16 L 12 16 C 10.355469 16 9 17.355469 9 19 L 9 21 C 9 22.644531 10.355469 24 12 24 C 13.644531 24 15 22.644531 15 21 L 15 18 L 16 18 L 16 21 C 16 23.21875 14.21875 25 12 25 C 9.78125 25 8 23.21875 8 21 L 8 17.5 C 8 16.109375 9.109375 15 10.5 15 Z M 24 15 L 24 16 L 22 16 L 22 18 L 24 18 L 24 19 L 26 19 L 26 15 Z M 12 18 L 13 18 L 13 21 C 13 21.566406 12.566406 22 12 22 C 11.433594 22 11 21.566406 11 21 L 11 19 C 11 18.433594 11.433594 18 12 18 Z "></path>
</g>
</svg>
