<?xml version="1.0" encoding="UTF-8"?>
<svg xmlns="http://www.w3.org/2000/svg" xmlns:xlink="http://www.w3.org/1999/xlink" viewBox="0 0 32 32" version="1.1">
<g>
<path d="M 22.90625 2.9375 C 21.804688 2.933594 20.9375 3 20.9375 3 L 20.875 3 C 20.875 3 17.960938 3.40625 15.03125 4.9375 C 13.613281 5.679688 12.160156 6.738281 11.03125 8.15625 C 10.445313 8.367188 6.699219 9.796875 4.1875 13.4375 L 3.75 14.0625 L 4.25 14.65625 C 5.308594 15.898438 6.867188 16.894531 8.1875 17.65625 C 8.808594 18.015625 9.351563 18.285156 9.78125 18.5 C 10.96875 21.613281 13.339844 23.386719 15.65625 24.21875 C 18.257813 25.152344 20.382813 25.0625 21.3125 25 C 21.679688 26.460938 22.546875 27.574219 23.5 28.125 C 24.683594 28.808594 25.84375 29 25.84375 29 L 27 29.15625 L 27 28 C 27 26.125 26.75 24.78125 26.46875 23.875 C 26.296875 23.324219 26.191406 23.238281 26.0625 23 C 26.191406 22.761719 26.296875 22.675781 26.46875 22.125 C 26.75 21.21875 27 19.875 27 18 L 27 16.84375 L 25.84375 17 C 25.84375 17 24.683594 17.191406 23.5 17.875 C 22.609375 18.390625 21.828125 19.417969 21.40625 20.71875 C 20.941406 20.617188 20.441406 20.601563 19.5 20.0625 C 18.617188 19.558594 17.789063 18.863281 17.34375 17.8125 C 18.253906 18.058594 19.0625 18 19.0625 18 L 18.9375 16 C 18.9375 16 18.316406 16.035156 17.78125 15.875 C 17.511719 15.792969 17.304688 15.652344 17.1875 15.53125 C 17.128906 15.472656 17.09375 15.421875 17.0625 15.34375 C 17.058594 15.335938 17.066406 15.320313 17.0625 15.3125 C 17.253906 14.160156 17.914063 13.425781 18.625 12.875 C 19.4375 12.246094 20.160156 12.019531 20.21875 12 L 21.15625 12 C 21.15625 12 22.820313 11.730469 24.5 10.75 C 26.179688 9.769531 28 7.898438 28 5 C 28 4.46875 27.667969 3.996094 27.34375 3.75 C 27.019531 3.503906 26.695313 3.382813 26.34375 3.28125 C 25.640625 3.082031 24.851563 3.007813 24.0625 2.96875 C 23.667969 2.949219 23.273438 2.9375 22.90625 2.9375 Z M 22.03125 4.96875 C 22.554688 4.953125 23.242188 4.933594 23.9375 4.96875 C 24.648438 5.003906 25.359375 5.097656 25.78125 5.21875 C 25.863281 5.242188 25.851563 5.257813 25.90625 5.28125 C 25.78125 7.160156 24.746094 8.273438 23.5 9 C 22.179688 9.769531 20.84375 10 20.84375 10 L 19.84375 10 L 19.71875 10.03125 C 19.71875 10.03125 19.585938 10.085938 19.5625 10.09375 C 19.199219 9.679688 19.054688 9.34375 19 8.90625 C 18.933594 8.402344 19 7.761719 19 7 L 17 7 C 17 7.613281 16.925781 8.332031 17.03125 9.15625 C 17.109375 9.765625 17.296875 10.433594 17.71875 11.0625 C 17.601563 11.140625 17.492188 11.191406 17.375 11.28125 C 16.398438 12.035156 15.386719 13.277344 15.09375 15 L 15 15 C 15 15.140625 15.011719 15.273438 15.03125 15.40625 C 15.011719 15.601563 15 15.792969 15 16 C 15 18.953125 16.8125 20.816406 18.5 21.78125 C 20.1875 22.746094 21.84375 23 21.84375 23 C 21.792969 23.003906 19.054688 23.289063 16.34375 22.3125 C 14.234375 21.554688 12.195313 20.183594 11.375 17.15625 L 11.40625 17.09375 C 11.40625 17.09375 11.347656 17.066406 11.34375 17.0625 C 11.117188 16.183594 11 15.179688 11 14 C 11 10.179688 13.398438 8.03125 15.96875 6.6875 C 18.492188 5.367188 20.96875 5.011719 21.0625 5 C 21.0625 5 21.125 5 21.125 5 C 21.15625 4.996094 21.507813 4.984375 22.03125 4.96875 Z M 21 6 C 20.449219 6 20 6.449219 20 7 C 20 7.550781 20.449219 8 21 8 C 21.550781 8 22 7.550781 22 7 C 22 6.449219 21.550781 6 21 6 Z M 9.40625 11.28125 C 9.160156 12.113281 9 13.011719 9 14 C 9 14.675781 9.046875 15.304688 9.125 15.90625 C 8.164063 15.34375 7.214844 14.585938 6.4375 13.875 C 7.378906 12.746094 8.453125 11.910156 9.40625 11.28125 Z M 24.8125 19.5 C 24.722656 20.21875 24.65625 21.125 24.53125 21.53125 C 24.3125 22.234375 24.1875 22.4375 24.1875 22.4375 L 23.78125 23 L 24.1875 23.5625 C 24.1875 23.5625 24.3125 23.765625 24.53125 24.46875 C 24.65625 24.875 24.722656 25.78125 24.8125 26.5 C 24.664063 26.433594 24.652344 26.492188 24.5 26.40625 C 23.683594 25.933594 23 25.292969 23 24 L 23 22 C 23 20.707031 23.683594 20.066406 24.5 19.59375 C 24.652344 19.507813 24.664063 19.566406 24.8125 19.5 Z "></path>
</g>
</svg>
