<?xml version="1.0" encoding="UTF-8"?>
<svg xmlns="http://www.w3.org/2000/svg" xmlns:xlink="http://www.w3.org/1999/xlink" viewBox="0 0 32 32" version="1.1">
<g>
<path d="M 16 5 C 9.9375 5 5 9.9375 5 16 L 5 27 L 7.53125 27 L 7.84375 26.5625 L 13.84375 17.5625 L 14 17.3125 L 14 14 C 14 12.882813 14.882813 12 16 12 C 17.117188 12 18 12.882813 18 14 L 18 17.3125 L 18.15625 17.5625 L 24.15625 26.5625 L 24.46875 27 L 27 27 L 27 16 C 27 9.9375 22.0625 5 16 5 Z M 16 7 C 20.984375 7 25 11.015625 25 16 L 25 24.1875 L 20 16.6875 L 20 14 C 20 11.800781 18.199219 10 16 10 C 13.800781 10 12 11.800781 12 14 L 12 16.6875 L 7 24.1875 L 7 16 C 7 11.015625 11.015625 7 16 7 Z M 15 17 L 15 19 L 17 19 L 17 17 Z M 15 20 L 15 22.5 L 17 22.5 L 17 20 Z M 15 24 L 15 27 L 17 27 L 17 24 Z "></path>
</g>
</svg>
