<?xml version="1.0" encoding="UTF-8"?>
<svg xmlns="http://www.w3.org/2000/svg" xmlns:xlink="http://www.w3.org/1999/xlink" viewBox="0 0 32 32" version="1.1">
<g>
<path d="M 26 5 L 26 14 L 28 14 L 28 5 Z M 13.5 6 C 8.265625 6 4 10.265625 4 15.5 C 4 18.109375 5.070313 20.46875 6.78125 22.1875 L 6.0625 24.15625 L 6 24.3125 L 6 28 L 21 28 L 21 24.3125 L 20.9375 24.15625 L 20.21875 22.1875 C 21.929688 20.46875 23 18.109375 23 15.5 C 23 14.636719 22.871094 13.800781 22.65625 13 L 25 13 L 25 11 L 13.5 11 C 10.472656 11 8 13.472656 8 16.5 C 8 19.527344 10.472656 22 13.5 22 C 16.527344 22 19 19.527344 19 16.5 C 19 15.175781 18.535156 13.953125 17.75 13 L 20.5625 13 C 20.839844 13.78125 21 14.621094 21 15.5 C 21 19.652344 17.652344 23 13.5 23 C 9.347656 23 6 19.652344 6 15.5 C 6 11.347656 9.347656 8 13.5 8 L 25 8 L 25 6 Z M 13.5 13 C 13.953125 13 14.386719 13.097656 14.78125 13.25 L 13.78125 15.03125 C 13.691406 15.015625 13.59375 15 13.5 15 C 13.40625 15 13.308594 15.015625 13.21875 15.03125 L 12.21875 13.25 C 12.613281 13.097656 13.046875 13 13.5 13 Z M 11.34375 13.75 L 12.34375 15.53125 C 12.226563 15.667969 12.152344 15.828125 12.09375 16 L 10.03125 16 C 10.160156 15.082031 10.648438 14.292969 11.34375 13.75 Z M 15.65625 13.75 C 16.351563 14.292969 16.839844 15.082031 16.96875 16 L 14.90625 16 C 14.847656 15.828125 14.773438 15.667969 14.65625 15.53125 Z M 10.03125 17 L 12.09375 17 C 12.152344 17.171875 12.226563 17.332031 12.34375 17.46875 L 11.34375 19.25 C 10.648438 18.707031 10.160156 17.917969 10.03125 17 Z M 14.90625 17 L 16.96875 17 C 16.839844 17.917969 16.351563 18.707031 15.65625 19.25 L 14.65625 17.46875 C 14.773438 17.332031 14.847656 17.171875 14.90625 17 Z M 13.21875 17.96875 C 13.308594 17.984375 13.40625 18 13.5 18 C 13.59375 18 13.691406 17.984375 13.78125 17.96875 L 14.78125 19.75 C 14.386719 19.902344 13.953125 20 13.5 20 C 13.046875 20 12.613281 19.902344 12.21875 19.75 Z M 8.40625 23.5 C 9.878906 24.441406 11.628906 25 13.5 25 C 15.371094 25 17.121094 24.441406 18.59375 23.5 L 19 24.65625 L 19 26 L 8 26 L 8 24.65625 Z "></path>
</g>
</svg>
