<?xml version="1.0" encoding="UTF-8"?>
<svg xmlns="http://www.w3.org/2000/svg" xmlns:xlink="http://www.w3.org/1999/xlink" viewBox="0 0 32 32" version="1.1">
<g>
<path d="M 7 5 C 5.894531 5 5 5.894531 5 7 C 5 8.0625 5.828125 8.933594 6.875 9 L 12.375 20 C 10.621094 21.0625 9.398438 22.890625 9.09375 25 L 8 25 L 8 27 L 24 27 L 24 25 L 22.90625 25 C 22.601563 22.890625 21.378906 21.0625 19.625 20 L 25.125 9 C 26.171875 8.933594 27 8.0625 27 7 C 27 5.894531 26.105469 5 25 5 C 23.894531 5 23 5.894531 23 7 C 23 7.398438 23.109375 7.78125 23.3125 8.09375 L 17.75 19.25 C 17.1875 19.101563 16.609375 19 16 19 C 15.390625 19 14.8125 19.101563 14.25 19.25 L 8.6875 8.09375 C 8.890625 7.78125 9 7.398438 9 7 C 9 5.894531 8.105469 5 7 5 Z M 16 21 C 18.425781 21 20.441406 22.714844 20.90625 25 L 11.09375 25 C 11.558594 22.714844 13.574219 21 16 21 Z "></path>
</g>
</svg>
