<?xml version="1.0" encoding="UTF-8"?>
<svg xmlns="http://www.w3.org/2000/svg" xmlns:xlink="http://www.w3.org/1999/xlink" viewBox="0 0 32 32" version="1.1">
<g>
<path d="M 4 7 L 4 23 L 28 23 L 28 7 Z M 6 9 L 26 9 L 26 21 L 6 21 Z M 15 10 L 15 15 L 17 15 L 17 10 Z M 14 10.4375 C 12.238281 11.210938 11 12.953125 11 15 C 11 17.757813 13.242188 20 16 20 C 18.757813 20 21 17.757813 21 15 C 21 12.953125 19.761719 11.210938 18 10.4375 L 18 12.78125 C 18.609375 13.332031 19 14.117188 19 15 C 19 16.652344 17.652344 18 16 18 C 14.347656 18 13 16.652344 13 15 C 13 14.117188 13.390625 13.332031 14 12.78125 Z M 10 24 L 10 26 L 22 26 L 22 24 Z "></path>
</g>
</svg>
