<?xml version="1.0" encoding="UTF-8"?>
<svg xmlns="http://www.w3.org/2000/svg" xmlns:xlink="http://www.w3.org/1999/xlink" viewBox="0 0 32 32" version="1.1">
<g>
<path d="M 25.375 4 C 23.34375 4 20.941406 4.96875 18.34375 6.40625 C 15.746094 7.84375 13.003906 9.78125 10.5625 11.875 C 6.515625 15.34375 4.648438 17.507813 3.875 18.3125 C 2.90625 19.324219 2.636719 20.902344 3.53125 22.03125 C 4.382813 23.105469 6.058594 23.417969 7.125 22.375 C 10.78125 18.792969 15.199219 15.519531 18.53125 13.5625 C 16.523438 16.417969 13.46875 19.886719 8.8125 23.65625 C 7.652344 24.59375 7.746094 26.3125 8.71875 27.28125 C 9.738281 28.300781 11.351563 28.1875 12.46875 27.34375 C 13.414063 26.625 15.613281 24.972656 19.59375 21.46875 C 21.847656 19.484375 24.167969 16.828125 25.9375 14.28125 C 27.707031 11.734375 29 9.453125 29 7.5 C 29 5.632813 27.503906 4.117188 25.65625 4.03125 C 25.625 4.019531 25.59375 4.007813 25.5625 4 C 25.550781 4 25.542969 4 25.53125 4 C 25.480469 3.996094 25.425781 3.996094 25.375 4 Z M 25.46875 6 C 25.480469 6 25.488281 6 25.5 6 C 26.339844 6 27 6.660156 27 7.5 C 27 8.324219 25.957031 10.746094 24.28125 13.15625 C 22.605469 15.566406 20.375 18.125 18.28125 19.96875 C 14.339844 23.4375 12.207031 25.023438 11.25 25.75 C 10.84375 26.058594 10.308594 25.996094 10.15625 25.84375 C 9.957031 25.644531 9.933594 25.320313 10.0625 25.21875 C 16.207031 20.242188 19.722656 15.695313 21.71875 12.3125 C 22.714844 10.621094 23.335938 9.222656 23.71875 8.21875 C 23.910156 7.71875 24.035156 7.316406 24.125 7.03125 C 24.160156 6.917969 24.195313 6.820313 24.21875 6.75 C 24.472656 6.316406 24.921875 6.011719 25.46875 6 Z M 22.0625 6.84375 C 21.996094 7.050781 21.949219 7.226563 21.84375 7.5 C 21.570313 8.207031 21.164063 9.15625 20.5625 10.28125 C 16.820313 11.816406 10.714844 16.042969 5.71875 20.9375 C 5.601563 21.054688 5.269531 21.003906 5.09375 20.78125 C 4.960938 20.613281 4.960938 20.054688 5.3125 19.6875 C 6.195313 18.765625 7.90625 16.804688 11.875 13.40625 C 14.21875 11.398438 16.863281 9.511719 19.3125 8.15625 C 20.285156 7.617188 21.191406 7.191406 22.0625 6.84375 Z "></path>
</g>
</svg>
