<?xml version="1.0" encoding="UTF-8"?>
<svg xmlns="http://www.w3.org/2000/svg" xmlns:xlink="http://www.w3.org/1999/xlink" viewBox="0 0 32 32" version="1.1">
<g>
<path d="M 15.675781 11 C 15.675781 11 14 11.757813 14 13.644531 L 14 18 L 13 18 L 13 14.5 C 13 14.226563 12.773438 14 12.5 14 L 10.5 14 C 10.324219 14 10.171875 14.097656 10.082031 14.238281 L 10.066406 14.230469 L 8.914063 17.171875 L 8.011719 16.015625 C 8.140625 15.507813 8.21875 14.953125 8.21875 14.75 C 8.21875 14.335938 7.898438 14 7.5 14 C 7.101563 14 6.78125 14.335938 6.78125 14.75 C 6.78125 14.949219 6.859375 15.46875 6.976563 15.960938 L 6.015625 17.191406 L 4.984375 14.425781 C 4.972656 14.355469 4.949219 14.296875 4.914063 14.238281 L 4.914063 14.230469 L 4.910156 14.230469 C 4.820313 14.09375 4.671875 14 4.5 14 L 3 14 L 3 13 L 1 15 L 2.023438 15 L 2 18 C 2 18.59375 2.5 19 3 19 C 4.328125 19 4.128906 18 3.617188 18 C 3.402344 18.09375 3 17.894531 3 17.621094 L 3 15 L 3.929688 15 L 5.515625 18.75 C 5.667969 19.070313 6.042969 19.082031 6.335938 18.769531 L 7.476563 17 L 8.617188 18.769531 C 8.910156 19.082031 9.28125 19.070313 9.433594 18.75 L 11.0625 15 L 12 15 L 12 18 L 11.5 18 C 11.226563 18 11 18.226563 11 18.5 C 11 18.773438 11.226563 19 11.5 19 L 18.5 19 C 18.773438 19 19 18.773438 19 18.5 C 19 18.226563 18.773438 18 18.5 18 L 18 18 L 18 14.5 C 18 14.226563 17.773438 14 17.5 14 L 16.5 14 C 16.226563 14 16 14.226563 16 14.5 C 16 14.773438 16.226563 15 16.5 15 L 17 15 L 17 18 L 15 18 L 15 13.644531 C 15 12.371094 15.675781 11 15.675781 11 Z M 23.324219 11 C 23.324219 11 24 12.371094 24 13.644531 L 24 18.5 C 24 18.773438 24.226563 19 24.5 19 L 24.984375 19 C 25.257813 19 25.484375 18.773438 25.484375 18.5 C 25.484375 18.230469 25.265625 18.015625 25 18.003906 L 25 15.140625 C 25.144531 15.0625 25.292969 15 25.453125 15 C 26.234375 15 25.980469 17.191406 26.09375 17.929688 C 26.230469 18.816406 26.921875 19 27.207031 19 L 27.585938 19 C 27.835938 19 28.058594 18.707031 27.984375 18.394531 C 27.910156 18.085938 27.714844 18 27.390625 18 C 26.992188 18 27 16.90625 27 15.46875 C 27 14.5 26.222656 14 25.5 14 C 25.3125 14 25.148438 14.03125 25 14.074219 L 25 13.644531 C 25 11.757813 23.324219 11 23.324219 11 Z M 12.5 12 C 12.222656 12 12 12.222656 12 12.5 C 12 12.777344 12.222656 13 12.5 13 C 12.777344 13 13 12.777344 13 12.5 C 13 12.222656 12.777344 12 12.5 12 Z M 17.5 12 C 17.222656 12 17 12.222656 17 12.5 C 17 12.777344 17.222656 13 17.5 13 C 17.777344 13 18 12.777344 18 12.5 C 18 12.222656 17.777344 12 17.5 12 Z M 22.5 13 C 22.15625 13 22.011719 13.261719 22.011719 13.53125 C 22.011719 13.703125 22.027344 13.914063 22.136719 14.257813 C 21.859375 14.15625 21.375 14.015625 21.035156 14.015625 C 19.914063 14.015625 19 14.667969 19 15.46875 C 19 15.925781 19.300781 16.332031 19.765625 16.597656 C 19.652344 16.667969 19.542969 16.769531 19.542969 16.902344 C 19.542969 17.191406 19.765625 17.359375 20.0625 17.375 C 20.835938 17.429688 22.65625 17.511719 22.65625 18.671875 C 22.65625 19.570313 21.894531 20 21.328125 20 C 20.460938 20 20.125 19.773438 20 19.296875 C 19.929688 19.011719 20.058594 18.671875 20.371094 18.671875 C 20.515625 18.671875 20.75 18.847656 20.75 19.253906 C 20.988281 19.253906 21.136719 18.902344 21.136719 18.671875 C 21.136719 18.285156 20.613281 18.089844 20.167969 18.089844 C 19.242188 18.089844 19 18.730469 19 19.253906 C 19 20.613281 20.53125 21 21.328125 21 C 23.367188 21 23.65625 19.195313 23.65625 18.671875 C 23.65625 17.4375 22.855469 17.027344 22.164063 16.683594 C 22.710938 16.421875 23 15.976563 23 15.46875 C 23 15.144531 22.917969 14.84375 22.660156 14.605469 C 22.828125 14.34375 22.988281 14 22.988281 13.722656 C 22.988281 13.277344 22.820313 13 22.5 13 Z M 30 13 L 28 15 L 29.019531 15 L 29 18 C 29 18.59375 29.5 19 30 19 C 31.328125 19 31.109375 18 30.617188 18 C 30.382813 18 30 17.894531 30 17.621094 L 30 15 L 30.5 15 C 30.773438 15 31 14.773438 31 14.5 C 31 14.226563 30.773438 14 30.5 14 L 30 14 Z M 21.007813 14.597656 C 21.554688 14.597656 22 14.988281 22 15.46875 C 22 15.953125 21.554688 16.34375 21.007813 16.34375 C 20.460938 16.34375 20.015625 15.953125 20.015625 15.46875 C 20.015625 14.988281 20.460938 14.597656 21.007813 14.597656 Z "></path>
</g>
</svg>
