<?xml version="1.0" encoding="UTF-8"?>
<svg xmlns="http://www.w3.org/2000/svg" xmlns:xlink="http://www.w3.org/1999/xlink" viewBox="0 0 32 32" version="1.1">
<g>
<path d="M 25.5 14 C 24.902344 14 24.339844 14.121094 23.816406 14.335938 C 23.933594 13.878906 24 13.429688 24 13 C 24 9.691406 21.308594 7 18 7 C 15.914063 7 14.074219 8.066406 13 9.6875 C 11.925781 8.066406 10.085938 7 8 7 C 4.691406 7 2 9.691406 2 13 C 2 18.417969 11.417969 24.125 12.492188 24.757813 L 12.949219 25.027344 L 13.429688 24.800781 C 13.464844 24.78125 14.34375 24.363281 15.574219 23.503906 C 15.824219 23.328125 16.097656 23.128906 16.371094 22.925781 C 18.398438 24.953125 21.054688 26.453125 21.519531 26.710938 L 22 26.972656 L 22.480469 26.710938 C 23.25 26.289063 30 22.480469 30 18.5 C 30 16.019531 27.980469 14 25.5 14 Z M 13.03125 22.746094 C 10.125 20.945313 4 16.433594 4 13 C 4 10.792969 5.792969 9 8 9 C 10.207031 9 12 10.792969 12 13 L 14 13 C 14 10.792969 15.792969 9 18 9 C 20.207031 9 22 10.792969 22 13 C 22 13.484375 21.871094 14.019531 21.617188 14.597656 C 21.550781 14.742188 21.457031 14.898438 21.378906 15.046875 C 20.597656 14.394531 19.59375 14 18.5 14 C 16.019531 14 14 16.019531 14 18.5 C 14 19.496094 14.421875 20.480469 15.066406 21.402344 C 14.847656 21.558594 14.628906 21.722656 14.425781 21.863281 C 13.851563 22.265625 13.363281 22.5625 13.03125 22.746094 Z M 22 24.683594 C 19.496094 23.21875 16 20.484375 16 18.5 C 16 17.121094 17.121094 16 18.5 16 C 19.878906 16 21 17.121094 21 18.5 L 23 18.5 C 23 17.121094 24.121094 16 25.5 16 C 26.878906 16 28 17.121094 28 18.5 C 28 20.484375 24.503906 23.21875 22 24.683594 Z "></path>
</g>
</svg>
