<?xml version="1.0" encoding="UTF-8"?>
<svg xmlns="http://www.w3.org/2000/svg" xmlns:xlink="http://www.w3.org/1999/xlink" viewBox="0 0 32 32" version="1.1">
<g>
<path d="M 17 4 C 15.355469 4 14 5.355469 14 7 L 14 8 L 16 8 L 16 7 C 16 6.445313 16.445313 6 17 6 C 17.554688 6 18 6.445313 18 7 L 18 7.5 C 18 8.03125 17.765625 8.457031 17.125 8.8125 L 17.09375 8.84375 L 17.0625 8.84375 C 15.730469 9.664063 14.992188 10.175781 14.5 10.875 C 14.007813 11.574219 14 12.351563 14 13 L 14 14 L 20 14 L 20 12 L 16.1875 12 C 16.355469 11.769531 16.875 11.316406 18.09375 10.5625 C 18.105469 10.554688 18.113281 10.539063 18.125 10.53125 C 19.261719 9.882813 20 8.753906 20 7.5 L 20 7 C 20 5.355469 18.644531 4 17 4 Z M 6.5 11 C 5.117188 11 4 12.117188 4 13.5 L 4 28 L 9 28 L 9 26 L 23 26 L 23 28 L 28 28 L 28 19 C 28 17.355469 26.644531 16 25 16 L 9 16 L 9 13.5 C 9 12.117188 7.882813 11 6.5 11 Z M 6.5 13 C 6.714844 13 7 13.285156 7 13.5 L 7 22 L 26 22 L 26 26 L 25 26 L 25 24 L 7 24 L 7 26 L 6 26 L 6 13.5 C 6 13.285156 6.285156 13 6.5 13 Z M 9 18 L 12 18 L 12 20 L 9 20 Z M 14 18 L 25 18 C 25.554688 18 26 18.445313 26 19 L 26 20 L 14 20 Z "></path>
</g>
</svg>
