<?xml version="1.0" encoding="UTF-8"?>
<svg xmlns="http://www.w3.org/2000/svg" xmlns:xlink="http://www.w3.org/1999/xlink" viewBox="0 0 32 32" version="1.1">
<g>
<path d="M 12.53125 3.03125 C 10.457031 2.957031 8.457031 3.632813 8.3125 3.6875 L 7.90625 3.9375 L 7.71875 4.125 C 7.449219 4.476563 5.074219 7.640625 5.46875 10.34375 C 5.515625 10.660156 5.601563 10.96875 5.71875 11.25 C 5.652344 11.289063 5.59375 11.296875 5.53125 11.34375 C 3.417969 12.839844 3.050781 17.539063 3 18.46875 L 3 18.65625 L 3.15625 19.1875 L 3.25 19.3125 C 3.796875 20.039063 6.65625 23.660156 9.25 23.75 C 9.277344 23.753906 9.316406 23.75 9.34375 23.75 C 9.359375 23.828125 9.351563 23.921875 9.375 24 C 10.164063 26.6875 15.070313 28.714844 15.625 28.9375 L 15.8125 29 L 16.1875 29 L 16.375 28.9375 C 16.929688 28.726563 21.800781 26.800781 22.625 24.09375 C 22.660156 23.980469 22.667969 23.863281 22.6875 23.75 C 22.707031 23.75 22.730469 23.75 22.75 23.75 C 25.34375 23.660156 28.203125 20.039063 28.75 19.3125 L 28.84375 19.1875 L 29 18.65625 L 29 18.46875 C 28.949219 17.539063 28.582031 12.839844 26.46875 11.34375 C 26.40625 11.296875 26.347656 11.289063 26.28125 11.25 C 26.398438 10.96875 26.484375 10.660156 26.53125 10.34375 C 26.925781 7.640625 24.550781 4.476563 24.28125 4.125 L 23.90625 3.8125 L 23.6875 3.6875 C 23.453125 3.601563 18.539063 1.890625 16 4.28125 C 15.046875 3.382813 13.777344 3.074219 12.53125 3.03125 Z M 11.96875 5 C 13.167969 4.957031 14.402344 5.195313 15 6.1875 L 15 6.21875 C 13.910156 6.589844 12.101563 7.363281 11.4375 8.6875 C 10.011719 8.84375 8.773438 10.214844 8.09375 11.09375 L 8 11.0625 C 7.6875 10.804688 7.5 10.476563 7.4375 10.0625 C 7.21875 8.574219 8.539063 6.398438 9.1875 5.5 C 9.613281 5.367188 10.769531 5.042969 11.96875 5 Z M 20.03125 5.03125 C 21.230469 5.074219 22.386719 5.371094 22.8125 5.5 C 23.460938 6.398438 24.78125 8.574219 24.5625 10.0625 C 24.5 10.476563 24.3125 10.804688 24 11.0625 L 23.90625 11.09375 C 23.226563 10.214844 21.988281 8.84375 20.5625 8.6875 C 19.898438 7.363281 18.089844 6.589844 17 6.21875 L 17 6.1875 C 17.597656 5.203125 18.832031 4.988281 20.03125 5.03125 Z M 16 8 C 17.15625 8.347656 18.382813 8.976563 18.71875 9.5 L 17.21875 11.3125 L 17.25 11.3125 C 17.105469 11.484375 17 11.695313 17 11.9375 C 17 12.488281 17.449219 12.9375 18 12.9375 C 18.308594 12.9375 18.566406 12.816406 18.75 12.59375 L 18.78125 12.59375 L 20.34375 10.6875 C 20.9375 10.753906 21.980469 11.746094 22.65625 12.75 C 22.679688 13.914063 22.441406 15.199219 22.0625 15.65625 L 20.34375 15 L 20.34375 15.03125 C 20.238281 14.992188 20.121094 14.9375 20 14.9375 C 19.449219 14.9375 19 15.386719 19 15.9375 C 19 16.371094 19.273438 16.734375 19.65625 16.875 L 21.46875 17.5625 C 21.550781 18.121094 20.992188 19.398438 20.15625 20.53125 C 18.890625 20.992188 17.523438 21.152344 17 20.9375 L 17 18.9375 C 17 18.386719 16.550781 17.9375 16 17.9375 C 15.449219 17.9375 15 18.386719 15 18.9375 L 15 20.9375 C 14.476563 21.152344 13.105469 20.992188 11.84375 20.53125 C 11.085938 19.5 10.441406 18.148438 10.53125 17.5625 L 12.34375 16.90625 L 12.34375 16.875 C 12.726563 16.734375 13 16.367188 13 15.9375 C 13 15.386719 12.550781 14.9375 12 14.9375 C 11.878906 14.9375 11.761719 14.992188 11.65625 15.03125 L 11.65625 15 L 9.9375 15.65625 C 9.5625 15.199219 9.324219 13.886719 9.34375 12.71875 C 9.941406 11.832031 11.027344 10.757813 11.65625 10.6875 L 13.21875 12.59375 L 13.25 12.59375 C 13.433594 12.816406 13.691406 12.9375 14 12.9375 C 14.550781 12.9375 15 12.488281 15 11.9375 C 15 11.695313 14.894531 11.484375 14.75 11.3125 L 14.78125 11.3125 L 13.28125 9.5 C 13.617188 8.976563 14.84375 8.347656 16 8 Z M 6.90625 12.875 C 6.984375 12.855469 7.0625 12.851563 7.15625 12.875 L 7.34375 12.9375 C 7.34375 14.085938 7.535156 16.074219 8.59375 17.125 C 8.316406 18.59375 9.292969 20.355469 9.96875 21.34375 L 9.84375 21.53125 C 9.6875 21.707031 9.53125 21.746094 9.3125 21.75 C 8.152344 21.710938 6.1875 19.785156 5.03125 18.3125 C 5.175781 16.402344 5.746094 13.632813 6.6875 12.96875 C 6.757813 12.917969 6.828125 12.894531 6.90625 12.875 Z M 25.09375 12.875 C 25.179688 12.890625 25.242188 12.917969 25.3125 12.96875 C 26.253906 13.632813 26.824219 16.402344 26.96875 18.3125 C 25.8125 19.785156 23.847656 21.710938 22.6875 21.75 C 22.453125 21.75 22.285156 21.707031 22.15625 21.5625 L 22.03125 21.34375 C 22.707031 20.355469 23.683594 18.59375 23.40625 17.125 C 24.46875 16.074219 24.65625 14.085938 24.65625 12.9375 L 24.71875 12.90625 L 24.75 12.90625 C 24.878906 12.867188 25.007813 12.859375 25.09375 12.875 Z M 16 13.9375 C 15.449219 13.9375 15 14.386719 15 14.9375 C 15 15.488281 15.449219 15.9375 16 15.9375 C 16.550781 15.9375 17 15.488281 17 14.9375 C 17 14.386719 16.550781 13.9375 16 13.9375 Z M 11.59375 22.5625 C 12.730469 22.929688 14.6875 23.355469 16 22.65625 C 17.3125 23.355469 19.269531 22.925781 20.40625 22.5625 L 20.5625 22.75 C 20.804688 23.089844 20.777344 23.339844 20.71875 23.53125 C 20.355469 24.722656 17.851563 26.175781 16 26.9375 C 14.144531 26.136719 11.660156 24.625 11.3125 23.4375 C 11.238281 23.191406 11.265625 22.996094 11.4375 22.75 Z "></path>
</g>
</svg>
