<?xml version="1.0" encoding="UTF-8"?>
<svg xmlns="http://www.w3.org/2000/svg" xmlns:xlink="http://www.w3.org/1999/xlink" viewBox="0 0 32 32" version="1.1">
<g>
<path d="M 5.707031 5.292969 L 4.292969 6.707031 L 20.585938 23 L 20.558594 23 L 22.550781 25 L 22.585938 25 L 27.292969 29.707031 L 28.707031 28.292969 L 25.273438 24.859375 C 27.972656 24.273438 30 21.871094 30 19 C 30 15.855469 27.566406 13.265625 24.484375 13.019531 C 23.230469 9.4375 19.851563 7 16 7 C 13.683594 7 11.511719 7.878906 9.851563 9.4375 Z M 16 9 C 19.199219 9 21.988281 11.167969 22.777344 14.269531 L 22.976563 15.070313 L 23.796875 15.023438 C 23.863281 15.019531 23.925781 15.011719 24.019531 15 C 26.21875 15.011719 28 16.800781 28 19 C 28 21.207031 26.207031 23 24 23 L 23.414063 23 L 11.273438 10.859375 C 12.558594 9.671875 14.222656 9 16 9 Z M 6.058594 11.296875 C 5.449219 11.96875 5.054688 12.835938 5.007813 13.800781 C 3.160156 14.863281 2 16.835938 2 19 C 2 22.308594 4.691406 25 8 25 L 19.726563 25 L 17.734375 23 L 8 23 C 5.792969 23 4 21.207031 4 19 C 4 17.394531 4.957031 15.949219 6.433594 15.316406 L 7.125 14.9375 L 7.019531 14.183594 C 7.011719 14.125 7 14.0625 7 14 C 7 13.511719 7.183594 13.066406 7.476563 12.71875 Z "></path>
</g>
</svg>
