<?xml version="1.0" encoding="UTF-8"?>
<svg xmlns="http://www.w3.org/2000/svg" xmlns:xlink="http://www.w3.org/1999/xlink" viewBox="0 0 32 32" version="1.1">
<g>
<path d="M 12 4 C 9.25 4 7 6.25 7 9 L 7 14 L 6 14 L 6 13 L 4 13 L 4 14 L 3 14 L 3 16 L 4 16 L 4 22.28125 C 3.402344 22.628906 3 23.261719 3 24 C 3 25.105469 3.894531 26 5 26 C 6.105469 26 7 25.105469 7 24 C 7 23.261719 6.597656 22.628906 6 22.28125 L 6 16 L 7 16 L 7 17 L 8 17 C 7.8125 17.386719 7.566406 17.75 7.46875 18.21875 C 7.316406 18.953125 7.226563 19.808594 7.15625 20.71875 C 7.015625 22.539063 7 24.554688 7 26 L 7 27 L 13.65625 27 C 14.644531 27.625 15.757813 28 17 28 C 18.238281 28 19.355469 27.617188 20.34375 27 L 27 27 L 27 26 C 27 23.886719 27.027344 22.007813 26.90625 20.40625 C 26.808594 19.078125 26.585938 17.945313 26.09375 17 L 27 17 L 27 9 C 27 6.25 24.75 4 22 4 Z M 12 6 L 22 6 C 23.667969 6 25 7.332031 25 9 L 25 11.78125 C 24.710938 11.203125 24.367188 10.722656 23.96875 10.34375 C 22.929688 9.355469 21.730469 9.125 20.75 9.0625 L 19.875 7.5 L 19.59375 7 L 19 7 C 16.554688 7 13.875 7.246094 11.6875 8.6875 C 10.578125 9.417969 9.648438 10.476563 9 11.875 L 9 9 C 9 7.332031 10.332031 6 12 6 Z M 18.4375 9.0625 L 19.25 10.5 L 19.53125 11 L 20.125 11 C 20.972656 11 21.84375 11.097656 22.5625 11.78125 C 23.28125 12.464844 24 13.898438 24 17 L 24 17.3125 L 24.1875 17.59375 C 24.265625 17.699219 24.335938 17.835938 24.40625 18 L 23 18 C 23 19.722656 22.355469 21.828125 21.25 23.40625 C 20.144531 24.984375 18.664063 26 17 26 C 15.335938 26 13.855469 24.988281 12.75 23.40625 C 11.644531 21.824219 11 19.710938 11 18 C 11 17.554688 11.085938 17.332031 11.21875 17.15625 C 11.351563 16.980469 11.585938 16.828125 11.9375 16.6875 C 12.644531 16.410156 13.835938 16.292969 15.09375 16.1875 C 16.351563 16.082031 17.664063 15.980469 18.84375 15.4375 C 20.023438 14.894531 21 13.660156 21 12 L 19 12 C 19 13.042969 18.726563 13.304688 18.03125 13.625 C 17.335938 13.945313 16.148438 14.082031 14.90625 14.1875 C 13.664063 14.292969 12.355469 14.351563 11.1875 14.8125 C 10.796875 14.96875 10.429688 15.183594 10.09375 15.46875 C 10.375 12.738281 11.398438 11.253906 12.78125 10.34375 C 14.269531 9.363281 16.335938 9.109375 18.4375 9.0625 Z M 19.5 17 C 18.671875 17 18 17.671875 18 18.5 C 18 19.328125 18.671875 20 19.5 20 C 20.328125 20 21 19.328125 21 18.5 C 21 17.671875 20.328125 17 19.5 17 Z M 14 18 C 13.449219 18 13 18.449219 13 19 C 13 19.550781 13.449219 20 14 20 C 14.550781 20 15 19.550781 15 19 C 15 18.449219 14.550781 18 14 18 Z M 24.8125 19.84375 C 24.839844 20.074219 24.886719 20.308594 24.90625 20.5625 C 24.996094 21.757813 24.96875 23.347656 24.96875 25 L 22.5625 25 C 22.671875 24.859375 22.773438 24.707031 22.875 24.5625 C 23.863281 23.152344 24.515625 21.492188 24.8125 19.84375 Z M 9.21875 20.09375 C 9.535156 21.652344 10.1875 23.191406 11.125 24.53125 C 11.234375 24.6875 11.347656 24.847656 11.46875 25 L 9.03125 25 C 9.039063 23.699219 9.050781 22.230469 9.15625 20.84375 C 9.175781 20.578125 9.191406 20.339844 9.21875 20.09375 Z "></path>
</g>
</svg>
