<?xml version="1.0" encoding="UTF-8"?>
<svg xmlns="http://www.w3.org/2000/svg" xmlns:xlink="http://www.w3.org/1999/xlink" viewBox="0 0 32 32" version="1.1">
<g>
<path d="M 16 5.53125 C 15.320313 5.53125 14.652344 5.855469 14.28125 6.5 L 4.4375 23.5 C 3.691406 24.792969 4.695313 26.5 6.1875 26.5 L 25.8125 26.5 C 27.304688 26.5 28.308594 24.792969 27.5625 23.5 L 17.71875 6.5 C 17.347656 5.855469 16.679688 5.53125 16 5.53125 Z M 16 7.5 L 25.8125 24.5 L 6.1875 24.5 Z M 16.96875 12.5 C 16.398438 12.617188 15.96875 13.144531 15.96875 13.75 C 15.96875 14.441406 16.527344 15 17.21875 15 C 17.910156 15 18.46875 14.441406 18.46875 13.75 C 18.46875 13.058594 17.910156 12.5 17.21875 12.5 C 17.132813 12.5 17.050781 12.484375 16.96875 12.5 Z M 13.4375 15 C 13.113281 15 12.8125 15.140625 12.625 15.40625 L 11.625 16.84375 L 11.28125 17.28125 L 11.78125 17.5625 L 19 21.5 C 18.351563 21.546875 17.9375 23 17.9375 23 L 21.96875 23 C 21.96875 23 20.699219 20 20.1875 20 C 19.949219 20 19.835938 20.375 19.6875 20.75 L 17.65625 19.65625 L 17.25 16.6875 C 17.183594 16.203125 16.871094 15.785156 16.4375 15.5625 L 15.65625 15.15625 C 15.445313 15.046875 15.207031 15 14.96875 15 Z M 13.4375 16 L 14.25 16 L 13.4375 17.34375 L 12.75 16.96875 Z M 15.34375 16.125 L 15.96875 16.46875 L 14.96875 18.15625 L 14.3125 17.8125 Z M 16.375 17.75 L 16.5625 19.03125 L 15.84375 18.625 Z M 12.8125 18.8125 L 12 23 L 13.03125 23 L 13.75 19.3125 Z M 15.25 20.15625 L 15.46875 20.46875 L 15.46875 23 L 16.46875 23 L 16.46875 20.8125 Z "></path>
</g>
</svg>
