<?xml version="1.0" encoding="UTF-8"?>
<svg xmlns="http://www.w3.org/2000/svg" xmlns:xlink="http://www.w3.org/1999/xlink" viewBox="0 0 32 32" version="1.1">
<g>
<path d="M 13 4 C 10.25 4 8 6.25 8 9 L 8 14 L 7 14 L 7 13 L 5 13 L 5 14 L 4 14 L 4 16 L 5 16 L 5 22.28125 C 4.402344 22.628906 4 23.261719 4 24 C 4 25.105469 4.894531 26 6 26 C 7.105469 26 8 25.105469 8 24 C 8 23.261719 7.597656 22.628906 7 22.28125 L 7 16 L 8 16 L 8 17 L 8.90625 17 C 8.382813 17.53125 8 18.195313 8 19 C 8 20.265625 8.882813 21.1875 10 21.625 C 10.429688 22.898438 11.117188 24.347656 12.3125 25.59375 C 13.609375 26.949219 15.527344 28 18 28 C 20.472656 28 22.390625 26.949219 23.6875 25.59375 C 24.882813 24.347656 25.570313 22.898438 26 21.625 C 27.117188 21.1875 28 20.265625 28 19 C 28 18.199219 27.617188 17.53125 27.09375 17 L 28 17 L 28 9 C 28 6.25 25.75 4 23 4 Z M 13 6 L 23 6 C 24.667969 6 26 7.332031 26 9 L 26 11.46875 C 25.714844 10.890625 25.367188 10.347656 24.9375 9.84375 C 23.464844 8.121094 21.117188 7 18 7 C 14.886719 7 12.535156 8.125 11.0625 9.84375 C 10.632813 10.34375 10.285156 10.894531 10 11.46875 L 10 9 C 10 7.332031 11.332031 6 13 6 Z M 18 9 C 20.65625 9 22.320313 9.882813 23.40625 11.15625 C 24.492188 12.429688 25 14.175781 25 16 L 25 17.84375 L 25.5 18.125 C 25.804688 18.300781 26 18.621094 26 19 C 26 19.535156 25.617188 19.957031 25.09375 20 L 24.40625 20.03125 L 24.21875 20.6875 C 23.871094 21.816406 23.210938 23.179688 22.21875 24.21875 C 21.226563 25.257813 19.9375 26 18 26 C 16.0625 26 14.773438 25.257813 13.78125 24.21875 C 12.789063 23.179688 12.128906 21.816406 11.78125 20.6875 L 11.59375 20.03125 L 10.90625 20 C 10.382813 19.957031 10 19.535156 10 19 C 10 18.625 10.191406 18.300781 10.5 18.125 L 11 17.84375 L 11 16 C 11 14.15625 11.507813 12.390625 12.59375 11.125 C 13.679688 9.859375 15.339844 9 18 9 Z M 20.5 17 C 19.671875 17 19 17.671875 19 18.5 C 19 19.328125 19.671875 20 20.5 20 C 21.328125 20 22 19.328125 22 18.5 C 22 17.671875 21.328125 17 20.5 17 Z M 15 18 C 14.449219 18 14 18.449219 14 19 C 14 19.550781 14.449219 20 15 20 C 15.550781 20 16 19.550781 16 19 C 16 18.449219 15.550781 18 15 18 Z "></path>
</g>
</svg>
