<?xml version="1.0" encoding="UTF-8"?>
<svg xmlns="http://www.w3.org/2000/svg" xmlns:xlink="http://www.w3.org/1999/xlink" viewBox="0 0 32 32" version="1.1">
<g>
<path d="M 20.46875 4 C 17.828125 4 16.648438 5.429688 16.1875 6.0625 C 11.324219 6.207031 8.160156 8.5 6.375 10.96875 C 5.453125 12.242188 4.863281 13.519531 4.5 14.59375 C 4.136719 15.667969 4 16.425781 4 17 L 6 17 C 6 16.96875 6.097656 16.164063 6.40625 15.25 C 6.714844 14.335938 7.222656 13.199219 8 12.125 C 9.554688 9.976563 12.09375 8 16.625 8 L 17.21875 8 L 17.5 7.46875 C 17.5 7.46875 17.960938 6.570313 19.28125 6.1875 C 19.140625 6.8125 19 7.074219 19 8 L 19 8.40625 L 19.28125 8.71875 C 19.28125 8.71875 21.136719 10.546875 21.53125 10.9375 C 22.039063 11.445313 21.964844 11.800781 22.21875 12.84375 C 22.472656 13.886719 23.066406 15.304688 24.78125 16.96875 L 25 17.15625 L 25.28125 17.21875 C 25.480469 17.257813 25.640625 17.375 25.78125 17.59375 C 25.921875 17.8125 26 18.128906 26 18.375 L 26 19.53125 C 25.734375 19.734375 25.25 20 24.34375 20 C 23.777344 20 23.519531 19.738281 23.28125 19.40625 C 23.042969 19.074219 22.96875 18.75 22.96875 18.75 L 22.71875 17.78125 L 21.75 18.03125 C 21.75 18.03125 20.949219 18.226563 20.0625 18.125 C 19.175781 18.023438 18.390625 17.753906 17.9375 16.625 L 17.46875 15.46875 L 16.4375 16.15625 C 15.4375 16.828125 14.765625 17.617188 14.40625 18.46875 C 14.046875 19.320313 14 20.175781 14 21.03125 C 14 22.351563 14.289063 23.246094 14.53125 24.15625 C 14.773438 25.066406 15 26.078125 15 28 L 17 28 C 17 25.910156 16.726563 24.605469 16.46875 23.625 C 16.210938 22.644531 16 22.070313 16 21.03125 C 16 20.269531 16.054688 19.714844 16.25 19.25 C 16.359375 18.996094 16.726563 18.726563 16.96875 18.46875 C 17.820313 19.417969 18.882813 20.015625 19.84375 20.125 C 20.695313 20.222656 20.976563 20.109375 21.40625 20.03125 C 21.507813 20.261719 21.457031 20.316406 21.65625 20.59375 C 22.132813 21.261719 23.058594 22 24.34375 22 C 26.433594 22 27.71875 20.6875 27.71875 20.6875 L 28 20.40625 L 28 18.375 C 28 17.730469 27.808594 17.074219 27.4375 16.5 C 27.160156 16.070313 26.644531 15.832031 26.125 15.59375 L 26.1875 15.53125 C 24.6875 14.078125 24.355469 13.199219 24.15625 12.375 C 23.957031 11.550781 23.90625 10.496094 22.9375 9.53125 C 22.925781 9.519531 22.886719 9.480469 22.875 9.46875 L 27.25 4.9375 L 26.78125 4.375 L 21.5 8.0625 C 21.347656 7.90625 21.15625 7.71875 21.0625 7.625 C 21.148438 6.527344 21.4375 5.28125 21.4375 5.28125 L 21.8125 4 Z M 20.90625 12.46875 C 20.503906 12.46875 20.15625 12.816406 20.15625 13.21875 C 20.15625 13.621094 20.503906 13.9375 20.90625 13.9375 C 21.308594 13.9375 21.625 13.621094 21.625 13.21875 C 21.625 12.816406 21.308594 12.46875 20.90625 12.46875 Z "></path>
</g>
</svg>
