<?xml version="1.0" encoding="UTF-8"?>
<svg xmlns="http://www.w3.org/2000/svg" xmlns:xlink="http://www.w3.org/1999/xlink" viewBox="0 0 32 32" version="1.1">
<g>
<path d="M 16 4 C 9.382813 4 4 9.382813 4 16 C 4 22.617188 9.382813 28 16 28 C 21.886719 28 26.769531 23.722656 27.78125 18.125 C 27.90625 17.429688 28 16.730469 28 16 C 28 9.382813 22.617188 4 16 4 Z M 16 6 C 16.136719 6 16.269531 6.027344 16.40625 6.03125 L 16.46875 7.78125 C 16.46875 7.78125 16 7.851563 15.46875 7.71875 C 14.9375 7.585938 14.75 7.4375 14.75 7.4375 C 14.75 7.4375 15.007813 6.9375 15.40625 6.40625 C 15.523438 6.234375 15.625 6.140625 15.71875 6.03125 C 15.8125 6.027344 15.90625 6 16 6 Z M 15.3125 6.03125 C 15.191406 6.179688 15.074219 6.355469 15 6.53125 C 14.800781 6.996094 14.46875 7.375 14.46875 7.375 C 14.46875 7.375 14.078125 7.195313 13.8125 7.0625 C 13.546875 6.863281 13.40625 6.71875 13.40625 6.71875 C 13.40625 6.71875 13.644531 6.457031 14.09375 6.1875 C 14.105469 6.183594 14.113281 6.160156 14.125 6.15625 C 14.511719 6.082031 14.914063 6.058594 15.3125 6.03125 Z M 16.71875 6.03125 C 17.035156 6.054688 17.351563 6.074219 17.65625 6.125 C 17.65625 6.125 17.65625 6.15625 17.65625 6.15625 C 17.71875 6.242188 17.78125 6.351563 17.84375 6.46875 C 18.109375 7 18.375 7.59375 18.375 7.59375 C 18.375 7.59375 17.992188 7.78125 17.59375 7.78125 C 17.195313 7.847656 16.71875 7.78125 16.71875 7.78125 Z M 18.03125 6.1875 C 18.597656 6.300781 19.132813 6.480469 19.65625 6.6875 C 19.804688 6.816406 19.90625 6.90625 19.90625 6.90625 C 19.90625 6.90625 19.703125 7.050781 19.4375 7.25 C 19.171875 7.449219 18.78125 7.53125 18.78125 7.53125 C 18.78125 7.53125 18.511719 6.925781 18.3125 6.59375 C 18.246094 6.484375 18.140625 6.324219 18.03125 6.1875 Z M 13.5 6.3125 C 13.429688 6.363281 13.28125 6.46875 13.28125 6.46875 C 13.28125 6.46875 13.261719 6.4375 13.21875 6.40625 C 13.316406 6.378906 13.402344 6.335938 13.5 6.3125 Z M 13 6.4375 L 13.03125 6.4375 L 13.09375 6.53125 C 13.09375 6.53125 12.703125 6.792969 12.4375 7.125 C 12.105469 7.457031 11.96875 7.71875 11.96875 7.71875 L 12.15625 7.90625 C 12.15625 7.90625 12.359375 7.578125 12.625 7.3125 C 12.890625 7.046875 13.21875 6.78125 13.21875 6.78125 C 13.21875 6.78125 13.613281 7.179688 13.8125 7.3125 C 14.078125 7.445313 14.40625 7.59375 14.40625 7.59375 C 14.40625 7.59375 14.414063 7.769531 14.28125 7.96875 C 14.214844 8.167969 14.0625 8.5 14.0625 8.5 L 14.28125 8.65625 C 14.28125 8.65625 14.398438 8.195313 14.53125 8.0625 C 14.597656 7.863281 14.6875 7.71875 14.6875 7.71875 C 14.6875 7.71875 15.191406 7.929688 15.65625 8.0625 C 16.121094 8.128906 16.46875 8.125 16.46875 8.125 L 16.46875 9.96875 L 15.8125 9.96875 L 15.8125 10.3125 L 16.53125 10.3125 L 16.53125 12.625 L 15.9375 12.625 L 15.9375 12.875 L 16.53125 12.875 L 16.53125 13.75 L 16.78125 13.75 L 16.78125 12.875 L 18.125 12.875 C 18.320313 12.863281 18.273438 12.855469 18.4375 12.84375 C 18.035156 13.15625 17.789063 13.46875 17.625 13.625 L 17.625 13.65625 C 17.472656 13.8125 17.46875 13.835938 17.375 13.96875 C 17.214844 13.984375 17.058594 14 17.0625 14 C 17.066406 14 16.890625 13.980469 16.625 14 C 16.359375 14.019531 15.929688 14.132813 15.625 14.4375 C 15.375 14.6875 15.417969 14.898438 15.375 15.125 L 15.125 15.28125 L 14.6875 15.5 L 14.625 16 C 14.535156 16.046875 14.449219 16.019531 14.375 16.09375 C 14.136719 16.332031 14.089844 16.585938 14.0625 16.71875 C 14.019531 16.933594 14.003906 16.945313 14 16.96875 C 14.011719 16.957031 14.015625 17.019531 13.9375 17.125 C 13.785156 17.335938 13.5 17.761719 13.5 18.34375 C 13.5 18.898438 13.722656 19.171875 13.90625 19.40625 C 13.988281 19.511719 14.066406 19.601563 14.15625 19.6875 C 14.011719 19.675781 13.855469 19.65625 13.71875 19.65625 C 13.207031 19.65625 12.785156 19.777344 12.5 19.875 C 12.285156 19.949219 12.109375 19.988281 12.15625 20 C 11.582031 19.984375 11.222656 19.871094 11 19.78125 L 11 17.25 C 11.027344 17.175781 11.0625 17.140625 11.125 17.03125 C 11.359375 17.078125 11.59375 17.15625 12.15625 17.15625 C 12.765625 17.15625 13.335938 16.957031 13.6875 16.625 C 14.039063 16.292969 14.175781 15.980469 14.21875 15.90625 L 14.21875 15.875 C 14.308594 15.808594 14.53125 15.5625 14.6875 15.3125 L 14.71875 15.34375 C 14.753906 15.292969 14.722656 15.296875 14.75 15.25 C 14.769531 15.210938 14.796875 15.199219 14.8125 15.15625 L 14.78125 15.125 C 14.925781 14.789063 14.96875 14.5 14.96875 14.3125 C 15.328125 13.910156 15.8125 13.242188 15.8125 12.125 C 15.8125 10.832031 15.070313 9.804688 14.21875 9.09375 C 13.367188 8.382813 12.371094 7.917969 11.4375 7.78125 C 11.019531 7.71875 10.644531 7.746094 10.28125 7.8125 C 11.105469 7.238281 12.019531 6.746094 13 6.4375 Z M 20.03125 7.0625 C 20.03125 7.0625 20.574219 7.597656 20.90625 8.0625 C 21.304688 8.527344 21.5625 8.96875 21.5625 8.96875 C 21.5625 8.96875 21.097656 9.171875 20.5 9.4375 C 19.96875 9.703125 19.25 9.78125 19.25 9.78125 C 19.25 9.78125 19.320313 9.375 19.1875 8.84375 C 19.121094 8.3125 18.78125 7.84375 18.78125 7.84375 C 18.78125 7.84375 19.234375 7.636719 19.5 7.4375 C 19.832031 7.238281 20.03125 7.0625 20.03125 7.0625 Z M 20.8125 7.25 C 21.429688 7.589844 22 7.980469 22.53125 8.4375 C 22.273438 8.613281 21.96875 8.78125 21.96875 8.78125 C 21.96875 8.78125 21.578125 8.242188 21.3125 7.84375 C 21.125 7.621094 20.996094 7.476563 20.8125 7.25 Z M 18.53125 7.96875 C 18.53125 7.96875 18.644531 8.183594 18.84375 8.84375 C 18.976563 9.441406 19.0625 9.90625 19.0625 9.90625 C 19.0625 9.90625 18.507813 10.027344 17.84375 10.09375 C 17.117188 10.160156 16.71875 10.03125 16.71875 10.03125 L 16.71875 8.125 C 16.71875 8.125 17.128906 8.191406 17.59375 8.125 C 18.058594 8.125 18.53125 7.96875 18.53125 7.96875 Z M 22.75 8.625 C 23.460938 9.273438 24.0625 10.015625 24.5625 10.84375 C 24.445313 10.929688 24.347656 11.027344 24.21875 11.09375 C 23.753906 11.292969 22.96875 11.625 22.96875 11.625 C 22.96875 11.625 22.703125 10.683594 22.4375 10.21875 C 22.171875 9.753906 21.96875 9.1875 21.96875 9.1875 C 21.96875 9.1875 22.230469 9.046875 22.5625 8.78125 C 22.667969 8.695313 22.664063 8.691406 22.75 8.625 Z M 21.6875 9.25 C 21.6875 9.25 22.015625 9.714844 22.28125 10.375 C 22.546875 11.035156 22.75 11.6875 22.75 11.6875 L 22.34375 11.875 L 22.4375 12.09375 L 22.875 11.96875 L 23.03125 12.21875 L 23.21875 12.15625 L 23.09375 11.875 C 23.09375 11.875 23.6875 11.703125 24.21875 11.4375 C 24.519531 11.269531 24.542969 11.234375 24.71875 11.125 C 25.171875 11.9375 25.539063 12.816406 25.75 13.75 C 25.050781 13.078125 24.140625 12.511719 23.03125 12.21875 C 22.839844 12.167969 22.640625 12.128906 22.4375 12.09375 C 22.078125 12.035156 21.707031 12 21.3125 12 C 20.675781 12 20.140625 12.085938 19.6875 12.21875 C 19.671875 11.925781 19.628906 11.539063 19.5625 11.21875 C 19.496094 10.554688 19.375 10.03125 19.375 10.03125 C 19.375 10.03125 19.898438 9.984375 20.5625 9.71875 C 21.160156 9.453125 21.6875 9.25 21.6875 9.25 Z M 10.84375 9.75 C 10.941406 9.746094 11.054688 9.734375 11.15625 9.75 C 11.589844 9.8125 12.378906 10.15625 12.9375 10.625 C 13.496094 11.09375 13.8125 11.628906 13.8125 12.125 C 13.8125 12.742188 13.3125 13.21875 13.3125 13.21875 L 12.90625 13.5625 L 12.9375 14.09375 C 12.9375 14.09375 12.96875 14.203125 12.96875 14.3125 C 12.972656 14.308594 12.996094 14.316406 13 14.3125 C 12.972656 14.34375 12.957031 14.390625 12.9375 14.40625 C 12.9375 14.410156 12.902344 14.4375 12.90625 14.4375 C 12.789063 14.53125 12.636719 14.644531 12.5 14.875 C 12.363281 15.101563 12.34375 15.152344 12.34375 15.15625 C 12.332031 15.152344 12.28125 15.15625 12.15625 15.15625 C 11.933594 15.15625 11.554688 15 10.84375 15 C 10.34375 15 9.984375 15.265625 9.78125 15.46875 C 9.578125 15.671875 9.476563 15.851563 9.375 16.03125 C 9.171875 16.394531 9.0625 16.75 9.0625 16.75 L 9 16.90625 L 9 20.78125 L 9.28125 21.09375 C 9.28125 21.09375 9.636719 21.414063 10.125 21.625 C 10.613281 21.835938 11.324219 22 12.28125 22 C 12.832031 22 12.960938 21.847656 13.15625 21.78125 C 13.351563 21.714844 13.519531 21.65625 13.71875 21.65625 C 13.921875 21.65625 14.164063 21.703125 14.375 21.75 C 14.320313 21.902344 14.339844 21.992188 14.09375 22.21875 C 13.894531 22.402344 13.609375 22.601563 13.1875 22.75 C 13.183594 22.75 13.160156 22.75 13.15625 22.75 C 12.738281 22.894531 12.195313 23 11.46875 23 C 9.921875 23 8.601563 22.402344 8.125 22.15625 C 6.960938 20.667969 6.226563 18.839844 6.0625 16.84375 C 6.46875 16.652344 6.976563 16.40625 7.40625 16.15625 C 7.804688 15.925781 8.09375 15.625 8.375 15.25 C 8.65625 14.875 8.9375 14.457031 8.9375 13.8125 C 8.9375 13.523438 8.902344 13.34375 8.875 13.09375 C 8.847656 12.84375 8.8125 12.546875 8.8125 12.25 C 8.8125 11.65625 8.929688 11.101563 9.21875 10.71875 C 9.566406 10.28125 10.148438 9.789063 10.84375 9.75 Z M 19.25 10.25 C 19.25 10.25 19.308594 10.621094 19.375 11.21875 C 19.425781 11.636719 19.449219 12.054688 19.46875 12.28125 C 19.203125 12.375 18.957031 12.492188 18.75 12.625 C 18.738281 12.632813 18.730469 12.648438 18.71875 12.65625 C 18.597656 12.667969 18.539063 12.675781 18.375 12.6875 C 17.515625 12.753906 16.78125 12.6875 16.78125 12.6875 L 16.78125 10.3125 C 16.78125 10.3125 17.472656 10.375 17.9375 10.375 C 18.402344 10.375 19.25 10.25 19.25 10.25 Z M 6.8125 12 C 6.808594 12.082031 6.8125 12.171875 6.8125 12.25 C 6.8125 12.660156 6.84375 13.027344 6.875 13.3125 C 6.90625 13.597656 6.9375 13.871094 6.9375 13.8125 C 6.917969 13.851563 6.867188 13.949219 6.78125 14.0625 C 6.648438 14.238281 6.445313 14.414063 6.40625 14.4375 C 6.34375 14.476563 6.214844 14.546875 6.125 14.59375 C 6.25 13.6875 6.460938 12.8125 6.8125 12 Z M 21.3125 14 C 23.011719 14 24.039063 14.738281 24.75 15.65625 C 25.460938 16.574219 25.78125 17.746094 25.78125 18.125 C 24.8125 22.636719 20.808594 26 16 26 C 14.433594 26 12.941406 25.636719 11.625 25 C 12.34375 24.988281 12.976563 24.878906 13.53125 24.71875 C 14.078125 24.667969 14.644531 24.527344 15.21875 24.3125 C 15.574219 24.179688 15.90625 24.027344 16.21875 23.8125 C 16.53125 23.597656 17 23.304688 17 22.5625 C 17 22.636719 17.117188 22.042969 17.21875 21.46875 C 17.320313 20.894531 17.453125 20.042969 16.78125 19.34375 C 16.472656 19.023438 16.15625 18.820313 15.84375 18.53125 C 15.726563 18.421875 15.636719 18.332031 15.5625 18.25 C 15.640625 18.160156 15.746094 17.878906 15.84375 17.59375 C 15.882813 17.578125 16 17.53125 16 17.53125 L 16.46875 17.28125 L 16.53125 16.78125 L 16.53125 16.75 L 16.71875 16.65625 L 17.40625 16.28125 L 17.3125 15.96875 C 17.636719 15.945313 18 15.90625 18 15.90625 L 18.5 15.875 L 18.75 15.4375 C 18.75 15.4375 18.972656 15.121094 19.03125 15.0625 C 19.417969 14.691406 19.566406 14.46875 19.8125 14.3125 C 20.058594 14.15625 20.425781 14 21.3125 14 Z "></path>
</g>
</svg>
