<?xml version="1.0" encoding="UTF-8"?>
<svg xmlns="http://www.w3.org/2000/svg" xmlns:xlink="http://www.w3.org/1999/xlink" viewBox="0 0 32 32" version="1.1">
<g>
<path d="M 9.28125 4 C 8.378906 4 7.546875 4.574219 7.25 5.4375 L 3.09375 17.6875 C 2.796875 18.558594 3.164063 19.511719 3.90625 20.03125 L 14.75 27.625 C 15.496094 28.144531 16.503906 28.144531 17.25 27.625 L 28.09375 20.03125 C 28.835938 19.511719 29.203125 18.558594 28.90625 17.6875 L 24.75 5.4375 C 24.457031 4.570313 23.621094 4 22.71875 4 Z M 9.28125 6 L 22.71875 6 C 22.796875 6 22.835938 6.035156 22.84375 6.0625 L 27 18.3125 C 27.007813 18.339844 27.019531 18.371094 26.96875 18.40625 L 16.09375 25.96875 C 16.042969 26.003906 15.957031 26.003906 15.90625 25.96875 L 5.03125 18.40625 C 4.980469 18.371094 4.992188 18.339844 5 18.3125 L 9.15625 6.0625 C 9.167969 6.035156 9.203125 6 9.28125 6 Z M 13.25 9 C 13.070313 9 12.9375 9.136719 12.90625 9.3125 L 12 15.28125 C 11.96875 15.464844 12.09375 15.640625 12.28125 15.6875 L 14.1875 16.15625 C 14.339844 16.195313 14.507813 16.132813 14.59375 16 C 14.78125 15.703125 15.070313 15.21875 15.8125 15.21875 C 16.882813 15.21875 17.5625 16.011719 17.5625 16.78125 C 17.5625 17.550781 16.847656 18.34375 15.90625 18.34375 C 15.21875 18.34375 14.796875 17.941406 14.625 17.71875 C 14.558594 17.628906 14.457031 17.59375 14.34375 17.59375 L 11.90625 17.59375 C 11.65625 17.59375 11.488281 17.832031 11.5625 18.0625 C 11.867188 18.996094 12.867188 21 16 21 C 18.085938 21 20.53125 19.46875 20.53125 16.59375 C 20.53125 13.71875 18.09375 12.9375 16.53125 12.9375 C 16.144531 12.9375 15.746094 12.988281 15.5 13.0625 C 15.238281 13.140625 14.96875 12.953125 15 12.6875 L 15.25 11.65625 C 15.265625 11.53125 15.371094 11.4375 15.5 11.4375 L 19.65625 11.4375 C 19.859375 11.4375 20.03125 11.292969 20.03125 11.09375 L 20.03125 9.375 C 20.03125 9.175781 19.859375 9 19.65625 9 Z "></path>
</g>
</svg>
