<?xml version="1.0" encoding="UTF-8"?>
<svg xmlns="http://www.w3.org/2000/svg" xmlns:xlink="http://www.w3.org/1999/xlink" viewBox="0 0 32 32" version="1.1">
<g>
<path d="M 5 4 L 5 18.6875 C 5 18.6875 5.046875 21.015625 6.46875 23.34375 C 7.890625 25.671875 10.808594 28 16 28 C 21.191406 28 24.109375 25.671875 25.53125 23.34375 C 26.953125 21.015625 27 18.6875 27 18.6875 L 27 4 L 18 4 L 18 17 C 18 17 17.976563 17.550781 17.71875 18.0625 C 17.460938 18.574219 17.15625 19 16 19 C 14.84375 19 14.539063 18.574219 14.28125 18.0625 C 14.023438 17.550781 14 17 14 17 L 14 4 Z M 7 6 L 12 6 L 12 17 C 12 17 12.003906 17.949219 12.5 18.9375 C 12.996094 19.925781 14.171875 21 16 21 C 17.828125 21 19.003906 19.925781 19.5 18.9375 C 19.996094 17.949219 20 17 20 17 L 20 6 L 25 6 L 25 18.65625 C 25 18.65625 24.9375 20.472656 23.8125 22.3125 C 22.6875 24.152344 20.625 26 16 26 C 11.375 26 9.3125 24.152344 8.1875 22.3125 C 7.0625 20.472656 7 18.65625 7 18.65625 Z "></path>
</g>
</svg>
