<?xml version="1.0" encoding="UTF-8"?>
<svg xmlns="http://www.w3.org/2000/svg" xmlns:xlink="http://www.w3.org/1999/xlink" viewBox="0 0 32 32" version="1.1">
<g>
<path d="M 16 2 C 14.742188 2 13.859375 2.894531 13.417969 4 L 5 4 L 5 29 L 27 29 L 27 4 L 18.582031 4 C 18.140625 2.894531 17.257813 2 16 2 Z M 16 4 C 16.566406 4 17 4.433594 17 5 L 17 6 L 20 6 L 20 8 L 12 8 L 12 6 L 15 6 L 15 5 C 15 4.433594 15.433594 4 16 4 Z M 7 6 L 10 6 L 10 10 L 22 10 L 22 6 L 25 6 L 25 27 L 7 27 Z M 19 13 L 19 17 L 23 17 L 23 13 Z M 9 14 L 9 16 L 16 16 L 16 14 Z M 19 20 L 19 24 L 23 24 L 23 20 Z M 9 21 L 9 23 L 16 23 L 16 21 Z "></path>
</g>
</svg>
