<?xml version="1.0" encoding="UTF-8"?>
<svg xmlns="http://www.w3.org/2000/svg" xmlns:xlink="http://www.w3.org/1999/xlink" viewBox="0 0 32 32" version="1.1">
<g>
<path d="M 16 3 C 14.171875 3 12.535156 3.984375 11.667969 5.539063 C 9.953125 5.058594 8.101563 5.515625 6.808594 6.808594 C 5.515625 8.101563 5.054688 9.953125 5.539063 11.667969 C 3.984375 12.539063 3 14.171875 3 16 C 3 17.828125 3.984375 19.460938 5.539063 20.332031 C 5.054688 22.046875 5.515625 23.898438 6.808594 25.191406 C 8.101563 26.484375 9.949219 26.941406 11.667969 26.464844 C 12.535156 28.015625 14.171875 29 16 29 C 17.828125 29 19.464844 28.015625 20.332031 26.464844 C 22.050781 26.941406 23.898438 26.484375 25.191406 25.191406 C 26.484375 23.898438 26.945313 22.046875 26.464844 20.332031 C 28.015625 19.460938 29 17.828125 29 16 C 29 14.171875 28.015625 12.539063 26.464844 11.667969 C 26.945313 9.953125 26.484375 8.101563 25.191406 6.808594 C 23.898438 5.515625 22.050781 5.058594 20.332031 5.539063 C 19.464844 3.984375 17.828125 3 16 3 Z M 16 5 C 17.3125 5 18.457031 5.851563 18.847656 7.117188 L 19.203125 8.265625 L 20.269531 7.703125 C 21.441406 7.089844 22.851563 7.296875 23.78125 8.222656 C 24.707031 9.148438 24.914063 10.558594 24.296875 11.734375 L 23.734375 12.796875 L 24.886719 13.152344 C 26.148438 13.546875 27 14.691406 27 16 C 27 17.308594 26.148438 18.453125 24.882813 18.847656 L 23.734375 19.203125 L 24.296875 20.265625 C 24.914063 21.441406 24.703125 22.851563 23.777344 23.777344 C 22.847656 24.703125 21.4375 24.910156 20.265625 24.296875 L 19.203125 23.734375 L 18.847656 24.886719 C 18.453125 26.148438 17.3125 27 16 27 C 14.6875 27 13.546875 26.148438 13.152344 24.886719 L 12.796875 23.734375 L 11.730469 24.296875 C 10.558594 24.910156 9.148438 24.703125 8.21875 23.777344 C 7.292969 22.851563 7.085938 21.441406 7.703125 20.265625 L 8.265625 19.203125 L 7.117188 18.847656 C 5.851563 18.453125 5 17.308594 5 16 C 5 14.691406 5.851563 13.546875 7.117188 13.152344 L 8.265625 12.796875 L 7.703125 11.734375 C 7.085938 10.558594 7.296875 9.148438 8.222656 8.222656 C 9.148438 7.296875 10.5625 7.085938 11.734375 7.703125 L 12.796875 8.265625 L 13.152344 7.117188 C 13.546875 5.851563 14.6875 5 16 5 Z M 15.828125 10.003906 C 14.949219 10.042969 14.109375 10.363281 13.429688 10.9375 C 12.523438 11.699219 12 12.816406 12 14 L 14 14 C 14 13.40625 14.261719 12.847656 14.714844 12.46875 C 15.175781 12.078125 15.761719 11.925781 16.371094 12.03125 C 17.15625 12.167969 17.828125 12.84375 17.96875 13.628906 C 18.164063 14.75 17.453125 15.617188 16.648438 15.890625 C 15.664063 16.230469 15 17.148438 15 18.171875 L 15 19 L 17 19 L 17 18.171875 C 17 18 17.117188 17.847656 17.296875 17.785156 C 19.171875 17.140625 20.28125 15.25 19.9375 13.28125 C 19.65625 11.671875 18.328125 10.34375 16.71875 10.0625 C 16.421875 10.011719 16.125 9.992188 15.828125 10.003906 Z M 15 20 L 15 22 L 17 22 L 17 20 Z "></path>
</g>
</svg>
