<?xml version="1.0" encoding="UTF-8"?>
<svg xmlns="http://www.w3.org/2000/svg" xmlns:xlink="http://www.w3.org/1999/xlink" viewBox="0 0 32 32" version="1.1">
<g>
<path d="M 15.996094 5 L 3.585938 17.511719 L 14.488281 28.410156 L 16.300781 26.613281 C 16.679688 27.746094 17.304688 28.804688 18.199219 29.699219 C 19.699219 31.199219 21.800781 32 23.902344 32 C 26 32 28 31.199219 29.597656 29.699219 L 30 29.300781 L 30 32 L 32 32 L 32 26 L 25.902344 26 L 25.902344 28 L 28.300781 28 L 28.097656 28.199219 C 25.800781 30.5 21.898438 30.5 19.597656 28.199219 C 17.300781 25.898438 17.300781 22 19.597656 19.699219 C 21.898438 17.398438 25.800781 17.398438 28.097656 19.699219 C 29.097656 20.699219 29.699219 22 29.800781 23.300781 L 31.800781 23.199219 C 31.699219 21.398438 30.898438 19.699219 29.5 18.402344 C 28.625 17.523438 27.585938 16.902344 26.480469 16.523438 L 27 16.003906 L 27 5 Z M 16.828125 7 L 25 7 L 25 15.171875 L 24.078125 16.085938 C 21.953125 16.027344 19.808594 16.792969 18.199219 18.402344 C 16.609375 19.992188 15.839844 22.109375 15.882813 24.214844 L 14.496094 25.589844 L 6.414063 17.503906 Z M 22 9 C 21.449219 9 21 9.449219 21 10 C 21 10.550781 21.449219 11 22 11 C 22.550781 11 23 10.550781 23 10 C 23 9.449219 22.550781 9 22 9 Z "></path>
</g>
</svg>
