<?xml version="1.0" encoding="UTF-8"?>
<svg xmlns="http://www.w3.org/2000/svg" xmlns:xlink="http://www.w3.org/1999/xlink" viewBox="0 0 32 32" version="1.1">
<g>
<path d="M 13 3 C 11.90625 3 11 3.90625 11 5 C 11 6.09375 11.90625 7 13 7 C 14.09375 7 15 6.09375 15 5 C 15 3.90625 14.09375 3 13 3 Z M 7.03125 4 C 5.800781 4 4.726563 4.566406 4.03125 5.40625 C 3.335938 6.246094 3 7.335938 3 8.46875 C 3 9.746094 3.75 10.75 4.5625 11.28125 C 5.375 11.8125 6.21875 12 6.9375 12 C 7.820313 12 8.816406 11.707031 9.625 11 C 10.433594 10.292969 11 9.152344 11 7.71875 C 11 6.140625 10.066406 5.019531 9.15625 4.53125 C 8.246094 4.042969 7.421875 4 7.03125 4 Z M 7.03125 6 C 7.105469 6 7.769531 6.070313 8.21875 6.3125 C 8.667969 6.554688 9 6.808594 9 7.71875 C 9 8.65625 8.679688 9.152344 8.28125 9.5 C 7.882813 9.847656 7.347656 10 6.9375 10 C 6.683594 10 6.070313 9.867188 5.65625 9.59375 C 5.242188 9.320313 5 9.035156 5 8.46875 C 5 7.757813 5.234375 7.121094 5.59375 6.6875 C 5.953125 6.253906 6.378906 6 7.03125 6 Z M 19.4375 7 C 13.414063 7 8 12.285156 8 19.25 C 8 22.394531 10.019531 24.875 12.40625 26.5 C 14.792969 28.125 17.566406 29 19.71875 29 C 21.976563 29 24.277344 27.699219 26.03125 25.625 C 27.785156 23.550781 29 20.644531 29 17.28125 C 29 13.960938 27.113281 11.367188 25.0625 9.65625 C 24.035156 8.800781 22.972656 8.167969 22 7.71875 C 21.027344 7.269531 20.210938 7 19.4375 7 Z M 19.4375 9 C 19.609375 9 20.34375 9.15625 21.15625 9.53125 C 21.96875 9.90625 22.902344 10.488281 23.78125 11.21875 C 25.539063 12.683594 27 14.71875 27 17.28125 C 27 20.15625 25.957031 22.621094 24.5 24.34375 C 23.042969 26.066406 21.171875 27 19.71875 27 C 18.164063 27 15.582031 26.238281 13.53125 24.84375 C 11.480469 23.449219 10 21.53125 10 19.25 C 10 13.320313 14.59375 9 19.4375 9 Z M 13 14 L 13 19.75 C 13 21.546875 14.453125 23 16.25 23 L 24 23 L 24 14 L 21 14 L 21 19.25 C 21 19.664063 20.664063 20 20.25 20 L 16.75 20 C 16.335938 20 16 19.664063 16 19.25 L 16 14 Z "></path>
</g>
</svg>
