<?xml version="1.0" encoding="UTF-8"?>
<svg xmlns="http://www.w3.org/2000/svg" xmlns:xlink="http://www.w3.org/1999/xlink" viewBox="0 0 32 32" version="1.1">
<g>
<path d="M 4 5 L 4 11 L 6.0625 11 L 7 26.0625 L 7.0625 27 L 24.9375 27 L 25 26.0625 L 25.9375 11 L 28 11 L 28 5 L 18 5 L 18 7 L 26 7 L 26 9 L 18 9 L 18 11 L 23.9375 11 L 23.0625 25 L 8.9375 25 L 8.0625 11 L 11 11 L 11 21 L 21 21 L 21 13 L 17 13 L 17 5 Z M 6 7 L 11 7 L 11 9 L 6 9 Z M 13 7 L 15 7 L 15 15 L 19 15 L 19 19 L 13 19 Z "></path>
</g>
</svg>
