<?xml version="1.0" encoding="UTF-8"?>
<svg xmlns="http://www.w3.org/2000/svg" xmlns:xlink="http://www.w3.org/1999/xlink" viewBox="0 0 32 32" version="1.1">
<g>
<path d="M 13.15625 3 C 10.789063 3 9.191406 3.6875 8.375 5.03125 C 6.132813 5.183594 3 6.136719 3 9 L 3.03125 10 L 4.78125 10 L 4.96875 9.375 C 5.125 9.238281 5.609375 9 6 9 C 6.054688 9 6.566406 9.035156 7.65625 10.15625 C 8.144531 10.65625 8.589844 11.078125 9 11.40625 C 8.777344 11.421875 8.59375 11.421875 8.4375 11.40625 C 7.796875 11.335938 6.066406 10.886719 5.75 10.6875 L 5.03125 10.09375 L 4.40625 10.78125 C 4.226563 10.972656 4 11.324219 4 12 C 4 13.539063 6.375 15.15625 9.28125 15.625 C 11.398438 15.964844 12.75 16.992188 13 17.1875 L 13 19 C 13 19.261719 12.828125 19.625 12.59375 20.125 C 11.957031 21.476563 11 23.511719 11 28 L 11 29 L 12 29 C 13.1875 29 14.242188 28.261719 14.9375 27.59375 C 15.335938 28.042969 15.863281 28.523438 16.53125 28.875 L 17.34375 29.3125 L 17.84375 28.53125 C 18.230469 27.929688 18.484375 27.292969 18.65625 26.71875 C 19.066406 26.90625 19.542969 27.03125 20.0625 27 L 20.8125 26.9375 L 20.96875 26.21875 C 21.125 25.5 21.15625 24.488281 21.125 23.625 C 21.703125 23.828125 22.355469 24 23 24 L 24 24 L 24 23 C 24 22.242188 23.867188 21.488281 23.6875 20.8125 C 24.121094 20.925781 24.566406 21 25 21 L 26 21 L 26 20 C 26 18.902344 25.648438 17.675781 25.34375 16.78125 C 28.351563 16.070313 28.886719 14.570313 28.96875 14.25 L 29.28125 12.9375 L 27.9375 13 C 27.933594 12.996094 26.984375 13.019531 26.1875 12.4375 C 24.976563 11.554688 24.320313 10.464844 23.5625 9.1875 C 23.011719 8.261719 22.460938 7.320313 21.625 6.34375 C 19.820313 4.226563 16.714844 3 13.15625 3 Z M 13.15625 5 C 16.128906 5 18.667969 5.953125 20.09375 7.625 C 20.820313 8.472656 21.335938 9.367188 21.84375 10.21875 C 22.640625 11.558594 23.457031 12.9375 25 14.0625 C 25.269531 14.257813 25.542969 14.410156 25.8125 14.53125 C 25.347656 14.714844 24.730469 14.882813 23.875 15 L 22.625 15.1875 L 23.125 16.53125 C 23.273438 16.914063 23.636719 17.847656 23.84375 18.78125 C 23.273438 18.59375 22.777344 18.335938 22.625 18.21875 L 19.96875 16.15625 L 21.0625 19.3125 C 21.097656 19.417969 21.152344 19.578125 21.21875 19.75 C 21.402344 20.226563 21.667969 20.949219 21.84375 21.75 C 21.273438 21.550781 20.765625 21.296875 20.53125 21.15625 L 18.78125 20.09375 L 19 22.09375 C 19.050781 22.578125 19.144531 23.726563 19.125 24.6875 C 18.96875 24.570313 18.828125 24.433594 18.75 24.34375 L 17.21875 22.5625 L 17 24.90625 C 17 24.917969 16.921875 25.648438 16.625 26.46875 C 16.152344 25.992188 15.878906 25.503906 15.875 25.5 L 15.09375 24.15625 L 14.1875 25.40625 C 13.96875 25.710938 13.519531 26.207031 13.03125 26.5625 C 13.203125 23.507813 13.917969 22.007813 14.40625 20.96875 C 14.726563 20.292969 15 19.707031 15 19 L 15 16.3125 C 15.195313 16.050781 15.429688 15.785156 15.65625 15.53125 C 16.316406 14.792969 17 14.03125 17 13 C 17 11.640625 15.867188 10.941406 14.96875 10.375 C 14.503906 10.082031 14.03125 9.769531 13.84375 9.46875 C 13.164063 8.367188 12.070313 6.546875 11.71875 5.90625 L 11.53125 5.65625 C 11.394531 5.519531 11.226563 5.433594 11.03125 5.34375 C 11.566406 5.125 12.269531 5 13.15625 5 Z M 13.6875 5.28125 L 12.3125 6.71875 C 12.363281 6.769531 13.003906 7.359375 14.0625 7.9375 C 13.953125 8.324219 14.304688 8.785156 14.84375 8.9375 C 15.277344 9.058594 15.667969 8.929688 15.875 8.6875 C 16.511719 8.867188 17.207031 9 17.96875 9 L 18 9 L 18 7 L 17.96875 7 C 15.488281 7 13.703125 5.300781 13.6875 5.28125 Z M 9 7 C 9.386719 7 9.855469 7.0625 10.09375 7.125 C 10.574219 7.96875 11.582031 9.597656 12.15625 10.53125 C 12.585938 11.226563 13.277344 11.667969 13.90625 12.0625 C 14.386719 12.367188 15 12.746094 15 13 C 15 13.269531 14.527344 13.773438 14.15625 14.1875 C 13.921875 14.449219 13.675781 14.75 13.4375 15.0625 C 12.625 14.570313 11.324219 13.933594 9.59375 13.65625 C 9.191406 13.589844 8.8125 13.511719 8.46875 13.40625 C 9.574219 13.460938 11.070313 13.078125 11.25 13.03125 L 12 12.84375 L 12 10.96875 L 11.46875 10.6875 C 11.457031 10.679688 10.355469 10.074219 9.0625 8.75 C 8.351563 8.019531 7.707031 7.523438 7.09375 7.25 C 8.042969 7.019531 8.960938 7 9 7 Z "></path>
</g>
</svg>
