<?xml version="1.0" encoding="UTF-8"?>
<svg xmlns="http://www.w3.org/2000/svg" xmlns:xlink="http://www.w3.org/1999/xlink" viewBox="0 0 32 32" version="1.1">
<g>
<path d="M 16 2 C 15.449219 2 15 2.449219 15 3 C 15 3.550781 15.449219 4 16 4 C 16.550781 4 17 3.550781 17 3 C 17 2.449219 16.550781 2 16 2 Z M 16 4 C 15.449219 4 15 4.449219 15 5 L 15 6.15625 C 13.28125 6.601563 12 8.148438 12 10 L 11 10 L 11 12 L 21 12 L 21 10 L 20 10 C 20 8.148438 18.71875 6.601563 17 6.15625 L 17 5 C 17 4.449219 16.550781 4 16 4 Z M 16 8 C 17.117188 8 18 8.882813 18 10 L 14 10 C 14 8.882813 14.882813 8 16 8 Z M 12 13 L 12 18 L 8 18 L 8 20 L 24 20 L 24 18 L 20 18 L 20 13 L 18 13 L 18 18 L 17 18 L 17 13 L 15 13 L 15 18 L 14 18 L 14 13 Z M 9 21 L 9 28 L 7 28 L 7 30 L 25 30 L 25 28 L 23 28 L 23 21 L 21 21 L 21 28 L 20 28 L 20 21 L 18 21 L 18 28 L 17 28 L 17 21 L 15 21 L 15 28 L 14 28 L 14 21 L 12 21 L 12 28 L 11 28 L 11 21 Z "></path>
</g>
</svg>
