<svg xmlns="http://www.w3.org/2000/svg" viewBox="0 0 32 32">
    <path d="M 15 4 L 15 6.03125 C 12.228857 6.2325795 10 8.5561021 10 11.375 C 10 13.958823 11.864056 16.162671 14.40625 16.625 L 15 16.75 L 15 24 L 14.375 24 C 12.506196 24 11 22.493804 11 20.625 L 11 19 L 9 19 L 9 20.625 C 9 23.574196 11.425804 26 14.375 26 L 15 26 L 15 28 L 17 28 L 17 26 L 17.625 26 C 20.573421 26 23 23.574196 23 20.625 C 23 18.041177 21.13678 15.837258 18.59375 15.375 L 17 15.0625 L 17 8.03125 C 18.689633 8.2175681 20 9.6335279 20 11.375 L 20 13 L 22 13 L 22 11.375 C 22 8.5561021 19.770529 6.2325795 17 6.03125 L 17 4 L 15 4 z M 15 8.03125 L 15 14.6875 L 14.75 14.65625 C 13.146194 14.364579 12 13.005177 12 11.375 C 12 9.6335279 13.309521 8.2175681 15 8.03125 z M 17 17.125 L 18.25 17.34375 C 19.85497 17.635492 21 18.994823 21 20.625 C 21 22.493804 19.492579 24 17.625 24 L 17 24 L 17 17.125 z" color="#000" overflow="visible" font-family="Bitstream Vera Sans"></path>
</svg>
