<?xml version="1.0" encoding="UTF-8"?>
<svg xmlns="http://www.w3.org/2000/svg" xmlns:xlink="http://www.w3.org/1999/xlink" viewBox="0 0 32 32" version="1.1">
<g>
<path d="M 27.21875 8.5625 C 27.21875 8.5625 18.199219 8.625 11.96875 8.625 C 5.171875 8.625 3.125 13.59375 3.125 13.59375 L 1.0625 13.59375 L 0 18.34375 L 2.4375 18.34375 C 2.4375 18.34375 2.246094 23.4375 10.0625 23.4375 L 23.90625 23.4375 L 24.40625 21.21875 L 27.59375 21.21875 C 31.035156 21.21875 31.65625 18.710938 31.65625 17.5625 C 31.65625 16.257813 30.96875 15.71875 30.96875 15.71875 C 30.96875 15.71875 32 15.152344 32 13.40625 C 32 10.640625 28.8125 10.78125 28.8125 10.78125 L 26.71875 10.78125 Z M 18.875 11.21875 C 22.769531 11.21875 22.46875 14.21875 22.46875 14.21875 L 19.84375 14.21875 C 19.84375 13.382813 19.3125 13.25 18.6875 13.25 C 18.058594 13.25 17.625 13.519531 17.625 14 C 17.625 15.171875 22.03125 14.363281 22.03125 17.625 C 22.03125 19.03125 20.9375 20.8125 17.875 20.8125 C 15.785156 20.8125 13.984375 19.796875 14.0625 17.5 L 16.75 17.5 C 16.75 17.960938 16.828125 18.8125 18.03125 18.8125 C 18.527344 18.8125 19.34375 18.605469 19.34375 17.90625 C 19.34375 16.605469 14.96875 17.273438 14.96875 14.25 C 14.96875 12.601563 16.460938 11.21875 18.875 11.21875 Z M 6.59375 11.375 L 9.40625 11.375 L 8.40625 16.34375 C 8.40625 16.34375 7.695313 18.5 9.3125 18.5 C 10.824219 18.5 11 16.5 11 16.5 L 12.09375 11.375 L 14.875 11.375 L 13.71875 16.84375 C 13.71875 16.84375 13.632813 20.78125 9.09375 20.78125 C 5.234375 20.78125 5.261719 17.945313 5.3125 17.65625 C 5.363281 17.371094 6.59375 11.375 6.59375 11.375 Z M 23.90625 11.4375 L 28.78125 11.4375 C 29.609375 11.4375 31.3125 11.617188 31.3125 13.375 C 31.3125 15.355469 29.6875 15.65625 29.6875 15.65625 C 29.6875 15.65625 30.96875 15.960938 30.96875 17.53125 C 30.96875 20.511719 27.875 20.5625 27.5625 20.5625 L 21.96875 20.5625 Z M 26.0625 13.59375 L 25.8125 14.96875 L 27.53125 14.96875 C 27.667969 14.96875 28.375 14.839844 28.375 14.1875 C 28.375 13.53125 27.6875 13.59375 27.6875 13.59375 Z M 25.4375 16.65625 L 25.09375 18.375 L 26.96875 18.375 C 27.144531 18.375 28.09375 18.238281 28.09375 17.40625 C 28.09375 16.578125 27.0625 16.65625 27.0625 16.65625 Z "></path>
</g>
</svg>
