<?xml version="1.0" encoding="UTF-8"?>
<svg xmlns="http://www.w3.org/2000/svg" xmlns:xlink="http://www.w3.org/1999/xlink" viewBox="0 0 32 32" version="1.1">
<g>
<path d="M 3 10 L 3 15.5 L 3.40625 15.78125 L 5.625 17.46875 L 5.6875 21 L 5.6875 22 L 26.3125 22 L 26.3125 21 L 26.375 17.46875 L 28.59375 15.78125 L 29 15.5 L 29 10 Z M 5 12 L 27 12 L 27 14.53125 L 24.375 16.5 L 24.375 17 L 24.3125 20 L 7.6875 20 L 7.625 17 L 7.625 16.5 L 5 14.53125 Z M 7 14 L 7 16 L 9 16 L 9 17 L 11 17 L 11 16 L 12 16 L 12 17 L 14 17 L 14 16 L 15 16 L 15 17 L 17 17 L 17 16 L 18 16 L 18 17 L 20 17 L 20 16 L 21 16 L 21 17 L 23 17 L 23 16 L 25 16 L 25 14 Z "></path>
</g>
</svg>
