<?xml version="1.0" encoding="UTF-8"?>
<svg xmlns="http://www.w3.org/2000/svg" xmlns:xlink="http://www.w3.org/1999/xlink" viewBox="0 0 32 32" version="1.1">
<g>
<path d="M 3 10 L 3 18 L 6.03125 18 L 7.78125 21.46875 L 8.0625 22 L 23.9375 22 L 24.21875 21.46875 L 25.96875 18 L 29 18 L 29 10 Z M 5 12 L 27 12 L 27 16 L 25 16 L 25 14 L 7 14 L 7 16 L 5 16 Z M 7.25 16 L 9 16 L 9 17 L 11 17 L 11 16 L 12 16 L 12 17 L 14 17 L 14 16 L 15 16 L 15 17 L 17 17 L 17 16 L 18 16 L 18 17 L 20 17 L 20 16 L 21 16 L 21 17 L 23 17 L 23 16 L 24.75 16 L 24.46875 16.53125 L 22.71875 20 L 9.28125 20 L 7.53125 16.53125 Z "></path>
</g>
</svg>
