<?xml version="1.0" encoding="UTF-8"?>
<svg xmlns="http://www.w3.org/2000/svg" xmlns:xlink="http://www.w3.org/1999/xlink" viewBox="0 0 32 32" version="1.1">
<g>
<path d="M 9 5 L 9 14 L 8 14 C 6.355469 14 5 15.355469 5 17 L 5 27 L 7 27 L 7 17 C 7 16.433594 7.433594 16 8 16 L 24 16 C 24.566406 16 25 16.433594 25 17 L 25 27 L 27 27 L 27 17 C 27 15.355469 25.644531 14 24 14 L 23 14 L 23 5 Z M 11 7 L 21 7 L 21 14 L 11 14 Z M 13 9 L 13 11 L 15 11 L 15 9 Z M 17 9 L 17 11 L 19 11 L 19 9 Z "></path>
</g>
</svg>
