<?xml version="1.0" encoding="UTF-8"?>
<svg xmlns="http://www.w3.org/2000/svg" xmlns:xlink="http://www.w3.org/1999/xlink" viewBox="0 0 32 32" version="1.1">
<g>
<path d="M 6 10 C 4.355469 10 3 11.355469 3 13 L 3 19 C 3 20.644531 4.355469 22 6 22 L 26 22 C 27.644531 22 29 20.644531 29 19 L 29 13 C 29 11.355469 27.644531 10 26 10 Z M 6 12 L 26 12 C 26.566406 12 27 12.433594 27 13 L 27 19 C 27 19.566406 26.566406 20 26 20 L 6 20 C 5.433594 20 5 19.566406 5 19 L 5 13 C 5 12.433594 5.433594 12 6 12 Z M 7 13 L 7 15 L 9 15 L 9 16 L 11 16 L 11 15 L 12 15 L 12 16 L 14 16 L 14 15 L 15 15 L 15 16 L 17 16 L 17 15 L 18 15 L 18 16 L 20 16 L 20 15 L 21 15 L 21 16 L 23 16 L 23 15 L 25 15 L 25 13 Z "></path>
</g>
</svg>
