<?xml version="1.0" encoding="UTF-8"?>
<svg xmlns="http://www.w3.org/2000/svg" xmlns:xlink="http://www.w3.org/1999/xlink" viewBox="0 0 32 32" version="1.1">
<g>
<path d="M 7 10 C 3.703125 10 1 12.703125 1 16 L 1 17 L 1.203125 17 C 1.699219 19.804688 4.058594 22 7 22 L 25 22 C 27.941406 22 30.300781 19.804688 30.796875 17 L 31 17 L 31 16 C 31 12.703125 28.296875 10 25 10 Z M 7 12 L 25 12 C 27.203125 12 29 13.796875 29 16 C 29 18.203125 27.203125 20 25 20 L 7 20 C 4.796875 20 3 18.203125 3 16 C 3 13.796875 4.796875 12 7 12 Z M 6 14 L 6 15 L 5 15 L 5 17 L 6 17 L 6 18 L 8 18 L 8 17 L 9 17 L 9 18 L 11 18 L 11 17 L 12 17 L 12 18 L 14 18 L 14 17 L 15 17 L 15 18 L 17 18 L 17 17 L 18 17 L 18 18 L 20 18 L 20 17 L 21 17 L 21 18 L 23 18 L 23 17 L 24 17 L 24 18 L 26 18 L 26 17 L 27 17 L 27 15 L 26 15 L 26 14 L 24 14 L 24 15 L 23 15 L 23 14 L 21 14 L 21 15 L 20 15 L 20 14 L 18 14 L 18 15 L 17 15 L 17 14 L 15 14 L 15 15 L 14 15 L 14 14 L 12 14 L 12 15 L 11 15 L 11 14 L 9 14 L 9 15 L 8 15 L 8 14 Z "></path>
</g>
</svg>
