<?xml version="1.0" encoding="UTF-8"?>
<svg xmlns="http://www.w3.org/2000/svg" xmlns:xlink="http://www.w3.org/1999/xlink" viewBox="0 0 32 32" version="1.1">
<g>
<path d="M 8.5 5 L 8.1875 5.40625 L 5 9.65625 L 5 13.15625 L 5.0625 13.3125 L 5.96875 16.0625 L 5.03125 20.8125 L 5 20.90625 L 5 27 L 11.15625 27 L 17.96875 26.03125 L 21.75 26.96875 L 21.875 27 L 27 27 L 27 20.90625 L 26.96875 20.8125 L 26.09375 16.375 L 26.96875 13.28125 L 27 13.125 L 27 9.65625 L 23.8125 5.40625 L 23.5 5 Z M 9.5 7 L 14.375 7 L 13.375 9 L 8 9 Z M 16.625 7 L 22.5 7 L 24 9 L 15.625 9 Z M 7 11 L 25 11 L 25 12.8125 L 23.03125 19.71875 L 24.84375 20.25 L 25 21 L 25 25 L 22.125 25 L 14.25 23.03125 L 13.84375 24.5625 L 10.84375 25 L 7 25 L 7 21 L 7.96875 16.1875 L 8.03125 15.9375 L 7.9375 15.6875 L 7 12.875 Z M 12.8125 13 C 12.261719 13.050781 11.855469 13.542969 11.90625 14.09375 C 11.957031 14.644531 12.449219 15.050781 13 15 L 19 15 C 19.359375 15.003906 19.695313 14.816406 19.878906 14.503906 C 20.058594 14.191406 20.058594 13.808594 19.878906 13.496094 C 19.695313 13.183594 19.359375 12.996094 19 13 L 13 13 C 12.96875 13 12.9375 13 12.90625 13 C 12.875 13 12.84375 13 12.8125 13 Z "></path>
</g>
</svg>
