<?xml version="1.0" encoding="UTF-8"?>
<svg xmlns="http://www.w3.org/2000/svg" xmlns:xlink="http://www.w3.org/1999/xlink" viewBox="0 0 32 32" version="1.1">
<g>
<path d="M 16 4 C 13.800781 4 12 5.800781 12 8 C 12 9.082031 12.449219 10.058594 13.15625 10.78125 C 11.984375 11.492188 11.105469 12.652344 10.71875 14 L 8 14 L 8 17 L 10 17 L 10 16 L 22 16 L 22 17 L 24 17 L 24 14 L 21.28125 14 C 20.894531 12.652344 20.015625 11.492188 18.84375 10.78125 C 19.550781 10.058594 20 9.082031 20 8 C 20 5.800781 18.199219 4 16 4 Z M 16 6 C 17.117188 6 18 6.882813 18 8 C 18 9.117188 17.117188 10 16 10 C 14.882813 10 14 9.117188 14 8 C 14 6.882813 14.882813 6 16 6 Z M 16 12 C 17.40625 12 18.597656 12.8125 19.15625 14 L 12.84375 14 C 13.402344 12.8125 14.59375 12 16 12 Z M 5 18 L 5 21 L 4 21 L 4 23 L 5 23 L 5 25 C 5 26.644531 6.355469 28 8 28 L 24 28 C 25.644531 28 27 26.644531 27 25 L 27 23 L 28 23 L 28 21 L 27 21 L 27 18 Z M 7 20 L 25 20 L 25 25 C 25 25.5625 24.5625 26 24 26 L 8 26 C 7.4375 26 7 25.5625 7 25 Z "></path>
</g>
</svg>
