<?xml version="1.0" encoding="UTF-8"?>
<svg xmlns="http://www.w3.org/2000/svg" xmlns:xlink="http://www.w3.org/1999/xlink" viewBox="0 0 32 32" version="1.1">
<g>
<path d="M 5 4 L 5 26 L 12.5625 26 L 15.28125 28.71875 L 16 29.40625 L 16.71875 28.71875 L 19.4375 26 L 27 26 L 27 4 Z M 7 6 L 25 6 L 25 24 L 18.59375 24 L 18.28125 24.28125 L 16 26.5625 L 13.71875 24.28125 L 13.40625 24 L 7 24 Z M 16 9 C 13.800781 9 12 10.800781 12 13 C 12 14.066406 12.433594 15.03125 13.125 15.75 C 11.273438 16.773438 10 18.746094 10 21 L 12 21 C 12 18.78125 13.78125 17 16 17 C 18.21875 17 20 18.78125 20 21 L 22 21 C 22 18.746094 20.726563 16.773438 18.875 15.75 C 19.566406 15.03125 20 14.066406 20 13 C 20 10.800781 18.199219 9 16 9 Z M 16 11 C 17.117188 11 18 11.882813 18 13 C 18 14.117188 17.117188 15 16 15 C 14.882813 15 14 14.117188 14 13 C 14 11.882813 14.882813 11 16 11 Z "></path>
</g>
</svg>
