<?xml version="1.0" encoding="UTF-8"?>
<svg xmlns="http://www.w3.org/2000/svg" xmlns:xlink="http://www.w3.org/1999/xlink" viewBox="0 0 32 32" version="1.1">
<g>
<path d="M 9 7 C 5.699219 7 3 9.699219 3 13 C 3 14.984375 3.976563 16.75 5.46875 17.84375 C 2.832031 19.152344 1 21.863281 1 25 L 3 25 C 3 21.675781 5.675781 19 9 19 C 12.324219 19 15 21.675781 15 25 L 17 25 C 17 21.898438 15.214844 19.203125 12.625 17.875 C 13.464844 17.40625 14.269531 16.859375 15 16.3125 C 16.730469 15.015625 18.03125 13.71875 18.03125 13.71875 L 18.75 13 L 18.0625 12.3125 C 18.0625 12.3125 16.78125 10.988281 15.0625 9.6875 C 13.34375 8.386719 11.203125 7 9 7 Z M 9 9 C 10.230469 9 12.257813 10.113281 13.84375 11.3125 C 14.96875 12.164063 15.371094 12.578125 15.8125 13 C 15.359375 13.425781 14.945313 13.835938 13.8125 14.6875 C 12.207031 15.890625 10.160156 17 9 17 C 6.78125 17 5 15.21875 5 13 C 5 10.78125 6.78125 9 9 9 Z M 19 11 L 19 13 L 31 13 L 31 11 Z M 19 15 L 19 17 L 31 17 L 31 15 Z M 19 19 L 19 21 L 31 21 L 31 19 Z "></path>
</g>
</svg>
