<?xml version="1.0" encoding="UTF-8"?>
<svg xmlns="http://www.w3.org/2000/svg" xmlns:xlink="http://www.w3.org/1999/xlink" viewBox="0 0 32 32" version="1.1">
<g>
<path d="M 8 5 C 4.699219 5 2 7.699219 2 11 C 2 13.171875 3.261719 14.949219 5 16 L 5 24.40625 L 5.28125 24.71875 L 7.28125 26.71875 L 8 27.40625 L 8.71875 26.71875 L 10.71875 24.71875 L 11 24.40625 L 11 16 C 12.738281 14.949219 14 13.171875 14 11 C 14 7.699219 11.300781 5 8 5 Z M 8 7 C 10.21875 7 12 8.78125 12 11 C 12 12.648438 11.003906 14.039063 9.59375 14.65625 L 9 14.9375 L 9 17 L 8 17 L 8 19 L 9 19 L 9 20 L 8 20 L 8 22 L 9 22 L 9 23.5625 L 8 24.5625 L 7 23.5625 L 7 14.9375 L 6.40625 14.65625 C 4.996094 14.039063 4 12.648438 4 11 C 4 8.78125 5.78125 7 8 7 Z M 8 9 C 6.894531 9 6 9.894531 6 11 L 10 11 C 10 9.894531 9.105469 9 8 9 Z M 16 9 L 16 15 L 30 15 L 30 9 Z M 18 11 L 28 11 L 28 13 L 18 13 Z M 16 16 L 16 22 L 30 22 L 30 16 Z M 18 18 L 28 18 L 28 20 L 18 20 Z "></path>
</g>
</svg>
