<?xml version="1.0" encoding="UTF-8"?>
<svg xmlns="http://www.w3.org/2000/svg" xmlns:xlink="http://www.w3.org/1999/xlink" viewBox="0 0 32 32" version="1.1">
<g>
<path d="M 16 5 C 12.144531 5 9 8.144531 9 12 C 9 14.410156 10.230469 16.550781 12.09375 17.8125 C 8.527344 19.339844 6 22.878906 6 27 L 8 27 C 8 22.589844 11.589844 19 16 19 C 18.335938 19 20.503906 20.019531 22 21.71875 C 22.371094 21.152344 22.839844 20.660156 23.375 20.25 C 22.433594 19.222656 21.292969 18.398438 20.03125 17.84375 C 21.121094 17.261719 22.152344 16.519531 23.09375 15.8125 C 25.160156 14.265625 26.71875 12.71875 26.71875 12.71875 L 27.40625 12 L 26.71875 11.3125 C 26.71875 11.3125 25.207031 9.738281 23.15625 8.1875 C 21.105469 6.636719 18.546875 5 16 5 Z M 16 7 C 17.574219 7 20.019531 8.363281 21.9375 9.8125 C 23.394531 10.914063 23.988281 11.53125 24.46875 12 C 23.976563 12.472656 23.371094 13.089844 21.90625 14.1875 C 19.96875 15.640625 17.496094 17 16 17 C 13.226563 17 11 14.773438 11 12 C 11 9.226563 13.226563 7 16 7 Z M 27 20 C 24.253906 20 22 22.253906 22 25 L 22 32 L 24 32 L 24 25 C 24 23.34375 25.34375 22 27 22 C 28.65625 22 30 23.34375 30 25 L 30 32 L 32 32 L 32 25 C 32 22.253906 29.746094 20 27 20 Z M 27 23 C 27 23.144531 25 28 25 28 L 27 28 L 27 32 L 29 27 L 27 27 Z "></path>
</g>
</svg>
