<?xml version="1.0" encoding="UTF-8"?>
<svg xmlns="http://www.w3.org/2000/svg" xmlns:xlink="http://www.w3.org/1999/xlink" viewBox="0 0 32 32" version="1.1">
<g>
<path d="M 9 7 C 5.699219 7 3 9.699219 3 13 C 3 14.984375 3.976563 16.75 5.46875 17.84375 C 2.832031 19.152344 1 21.863281 1 25 L 3 25 C 3 21.675781 5.675781 19 9 19 C 12.324219 19 15 21.675781 15 25 L 17 25 C 17 21.863281 15.167969 19.152344 12.53125 17.84375 C 14.023438 16.75 15 14.984375 15 13 C 15 9.699219 12.300781 7 9 7 Z M 9 9 C 11.222656 9 13 10.777344 13 13 C 13 15.222656 11.222656 17 9 17 C 6.777344 17 5 15.222656 5 13 C 5 10.777344 6.777344 9 9 9 Z M 19 11 L 19 13 L 31 13 L 31 11 Z M 19 15 L 19 17 L 31 17 L 31 15 Z M 19 19 L 19 21 L 31 21 L 31 19 Z "></path>
</g>
</svg>
