<?xml version="1.0" encoding="UTF-8"?>
<svg xmlns="http://www.w3.org/2000/svg" xmlns:xlink="http://www.w3.org/1999/xlink" viewBox="0 0 32 32" version="1.1">
<g>
<path d="M 7 4 C 4.6875 4 3 6.058594 3 8.4375 C 3 10.449219 3.847656 12.359375 4.03125 12.75 C 4.148438 13.460938 4.753906 14 5.5 14 C 6.328125 14 7 13.328125 7 12.5 C 7 11.671875 6.328125 11 5.5 11 C 5.25 10.246094 5 9.304688 5 8.4375 C 5 6.914063 5.8125 6 7 6 C 7.628906 6 8.195313 6.324219 8.90625 6.8125 C 8.929688 6.828125 8.945313 6.859375 8.96875 6.875 C 8.957031 6.859375 9.121094 7.121094 9.25 7.46875 C 9.378906 7.816406 9.507813 8.25 9.625 8.71875 C 9.855469 9.65625 10 10.726563 10 11.21875 C 10 12.808594 10.605469 14.074219 11.125 15.03125 C 11.644531 15.988281 12 16.675781 12 17 C 12 17.296875 11.828125 17.667969 11.5625 18.3125 C 11.296875 18.957031 11 19.84375 11 21 C 11 23.3125 12 25.148438 12 28 L 14 28 C 14 24.714844 13 22.636719 13 21 C 13 20.179688 13.203125 19.632813 13.4375 19.0625 C 13.671875 18.492188 14 17.867188 14 17 C 14 15.800781 13.355469 14.941406 12.875 14.0625 C 12.394531 13.183594 12 12.3125 12 11.21875 C 12 10.378906 11.820313 9.300781 11.5625 8.25 C 11.539063 8.160156 11.492188 8.089844 11.46875 8 C 11.542969 8.003906 11.613281 8 11.6875 8 C 12.570313 8 13.308594 7.683594 14.03125 7.4375 C 14.753906 7.191406 15.4375 7 16 7 C 16.5625 7 17.246094 7.191406 17.96875 7.4375 C 18.691406 7.683594 19.429688 8 20.3125 8 C 20.386719 8 20.457031 8.003906 20.53125 8 C 20.507813 8.089844 20.460938 8.160156 20.4375 8.25 C 20.179688 9.300781 20 10.378906 20 11.21875 C 20 12.3125 19.605469 13.183594 19.125 14.0625 C 18.644531 14.941406 18 15.800781 18 17 C 18 17.867188 18.328125 18.492188 18.5625 19.0625 C 18.796875 19.632813 19 20.179688 19 21 C 19 22.636719 18 24.714844 18 28 L 20 28 C 20 25.148438 21 23.3125 21 21 C 21 19.84375 20.703125 18.957031 20.4375 18.3125 C 20.171875 17.667969 20 17.296875 20 17 C 20 16.675781 20.355469 15.988281 20.875 15.03125 C 21.394531 14.074219 22 12.808594 22 11.21875 C 22 10.726563 22.144531 9.65625 22.375 8.71875 C 22.492188 8.25 22.621094 7.816406 22.75 7.46875 C 22.878906 7.121094 23.042969 6.859375 23.03125 6.875 C 23.054688 6.859375 23.070313 6.828125 23.09375 6.8125 C 23.804688 6.324219 24.371094 6 25 6 C 26.1875 6 27 6.914063 27 8.4375 C 27 9.304688 26.75 10.246094 26.5 11 C 25.671875 11 25 11.671875 25 12.5 C 25 13.328125 25.671875 14 26.5 14 C 27.246094 14 27.851563 13.460938 27.96875 12.75 C 28.152344 12.359375 29 10.449219 29 8.4375 C 29 6.058594 27.3125 4 25 4 C 23.6875 4 22.707031 4.675781 21.96875 5.1875 C 21.230469 5.699219 20.710938 6 20.3125 6 C 19.980469 6 19.371094 5.816406 18.625 5.5625 C 17.878906 5.308594 16.992188 5 16 5 C 15.007813 5 14.121094 5.308594 13.375 5.5625 C 12.628906 5.816406 12.019531 6 11.6875 6 C 11.289063 6 10.769531 5.699219 10.03125 5.1875 C 9.292969 4.675781 8.3125 4 7 4 Z "></path>
</g>
</svg>
