<?xml version="1.0" encoding="UTF-8"?>
<svg xmlns="http://www.w3.org/2000/svg" xmlns:xlink="http://www.w3.org/1999/xlink" viewBox="0 0 32 32" version="1.1">
<g>
<path d="M 16 4 C 13.101563 4 10.449219 5.039063 8.375 6.75 C 7.78125 7.238281 7.238281 7.78125 6.75 8.375 C 5.039063 10.449219 4 13.101563 4 16 C 4 18.898438 5.039063 21.550781 6.75 23.625 C 7.238281 24.21875 7.78125 24.761719 8.375 25.25 C 10.449219 26.960938 13.101563 28 16 28 C 16.414063 28 16.816406 27.976563 17.21875 27.9375 C 19.636719 27.691406 21.847656 26.71875 23.625 25.25 C 24.21875 24.761719 24.761719 24.21875 25.25 23.625 C 26.960938 21.550781 28 18.898438 28 16 C 28 15.585938 27.980469 15.183594 27.9375 14.78125 C 27.691406 12.359375 26.71875 10.152344 25.25 8.375 C 24.761719 7.78125 24.21875 7.238281 23.625 6.75 C 21.550781 5.039063 18.898438 4 16 4 Z M 20.34375 9.53125 C 20.515625 9.539063 20.738281 9.65625 20.90625 10.0625 C 21.238281 10.871094 23.59375 15.90625 23.59375 15.90625 C 23.59375 15.90625 24.195313 17.40625 25.34375 17.40625 C 25.574219 17.40625 25.75 17.347656 25.90625 17.3125 C 25.792969 18.1875 25.574219 19.023438 25.25 19.8125 C 24.957031 19.875 24.585938 19.9375 24.09375 19.9375 C 22.457031 19.9375 21.53125 18.6875 21.53125 18.6875 C 21.53125 18.6875 20.765625 21.84375 17.03125 21.84375 C 16.316406 21.84375 15.1875 21.5625 15.1875 21.5625 L 17.125 25.9375 C 16.757813 25.976563 16.378906 26 16 26 C 14.792969 26 13.632813 25.796875 12.5625 25.40625 L 7.71875 12.71875 C 7.71875 12.71875 7.335938 12.109375 7.90625 11.96875 C 8.476563 11.828125 10.71875 11.34375 10.71875 11.34375 C 10.71875 11.34375 11.417969 10.957031 11.65625 11.625 C 11.894531 12.292969 13.84375 17.25 13.84375 17.25 C 13.84375 17.25 14.742188 19.375 17.21875 19.375 C 19.695313 19.375 20.289063 17.140625 20.1875 16.875 C 19.582031 15.292969 17.625 10.71875 17.625 10.71875 C 17.625 10.71875 17.3125 10.144531 18.03125 10 C 18.738281 9.859375 20.03125 9.625 20.03125 9.625 C 20.03125 9.625 20.171875 9.523438 20.34375 9.53125 Z "></path>
</g>
</svg>
