<?xml version="1.0" encoding="UTF-8"?>
<svg xmlns="http://www.w3.org/2000/svg" xmlns:xlink="http://www.w3.org/1999/xlink" viewBox="0 0 32 32" version="1.1">
<g>
<path d="M 11.4375 4.1875 C 11.4375 4.1875 6 7.960938 6 16 C 6 24.039063 11.4375 27.8125 11.4375 27.8125 L 12.5625 26.1875 C 12.5625 26.1875 8 23.160156 8 16 C 8 8.839844 12.5625 5.8125 12.5625 5.8125 Z M 20.5625 4.1875 L 19.4375 5.8125 C 19.4375 5.8125 24 8.839844 24 16 C 24 23.160156 19.4375 26.1875 19.4375 26.1875 L 20.5625 27.8125 C 20.5625 27.8125 26 24.039063 26 16 C 26 7.960938 20.5625 4.1875 20.5625 4.1875 Z M 16 7.84375 L 15.53125 8.125 C 15.53125 8.125 11 10.644531 11 16 C 11 21.355469 15.53125 23.875 15.53125 23.875 L 16 24.15625 L 16.46875 23.875 C 16.46875 23.875 21 21.355469 21 16 C 21 10.644531 16.46875 8.125 16.46875 8.125 Z M 16 10.28125 C 16.710938 10.734375 19 12.335938 19 16 C 19 17.894531 18.40625 19.238281 17.71875 20.15625 C 17.890625 19.542969 18 18.835938 18 18 C 18 14.5 16 13 16 13 C 16 13 14 14.5 14 18 C 14 18.835938 14.109375 19.542969 14.28125 20.15625 C 13.59375 19.238281 13 17.894531 13 16 C 13 12.335938 15.289063 10.734375 16 10.28125 Z "></path>
</g>
</svg>
