<?xml version="1.0" encoding="UTF-8"?>
<svg xmlns="http://www.w3.org/2000/svg" xmlns:xlink="http://www.w3.org/1999/xlink" viewBox="0 0 32 32" version="1.1">
<g>
<path d="M 10 4 L 10 7.09375 L 10.03125 7.1875 L 10.34375 8.90625 C 10.074219 9.597656 10 10.320313 10 11 C 10 12.996094 10.976563 14.753906 12.46875 15.84375 C 9.824219 17.148438 8 19.84375 8 23 L 8 28 L 24 28 L 24 23 C 24 19.84375 22.175781 17.148438 19.53125 15.84375 C 21.023438 14.753906 22 12.996094 22 11 C 22 10.214844 21.8125 9.527344 21.625 8.9375 L 21.96875 7.1875 L 22 7.09375 L 22 4 Z M 12 6 L 20 6 L 20 7 L 19.78125 8 L 12.21875 8 L 12 7 Z M 12.09375 10 L 19.84375 10 C 19.929688 10.351563 20 10.691406 20 11 C 20 13.277344 18.277344 15 16 15 C 13.722656 15 12 13.277344 12 11 C 12 10.636719 12.027344 10.304688 12.09375 10 Z M 15 17.09375 L 15 19.5625 L 13.15625 17.71875 C 13.722656 17.417969 14.335938 17.199219 15 17.09375 Z M 17 17.09375 C 17.664063 17.199219 18.277344 17.417969 18.84375 17.71875 L 17 19.5625 Z M 11.53125 18.96875 L 15.28125 22.71875 L 16 23.40625 L 16.71875 22.71875 L 20.46875 18.96875 C 21.421875 20.027344 22 21.429688 22 23 L 22 26 L 10 26 L 10 23 C 10 21.429688 10.578125 20.027344 11.53125 18.96875 Z M 18 22 L 18 24 L 21 24 L 21 22 Z "></path>
</g>
</svg>
