<?xml version="1.0" encoding="UTF-8"?>
<svg xmlns="http://www.w3.org/2000/svg" xmlns:xlink="http://www.w3.org/1999/xlink" viewBox="0 0 32 32" version="1.1">
<g>
<path d="M 19 4 L 19 8 C 19 9.113281 19.476563 10.117188 20.21875 10.84375 C 18.886719 11.746094 18 13.28125 18 15 L 18 20.625 L 20 21.625 L 20 28 L 26 28 L 26 21.625 L 28 20.625 L 28 15 C 28 13.28125 27.113281 11.746094 25.78125 10.84375 C 26.523438 10.117188 27 9.113281 27 8 L 27 4 Z M 21 6 L 25 6 L 25 8 C 25 9.117188 24.117188 10 23 10 C 21.882813 10 21 9.117188 21 8 Z M 4 8 L 4 10 L 10.5 10 C 10.945313 10 11.339844 10.292969 11.46875 10.71875 L 12.75 15 L 4 15 L 4 17 L 13.34375 17 L 14 19.1875 L 14 25 L 4 25 L 4 27 L 11.65625 27 L 12 28 L 15 28 C 15.550781 28 16 27.550781 16 27 L 16 26.15625 C 16.003906 26.105469 16.003906 26.050781 16 26 L 16 19 C 16.003906 18.90625 15.992188 18.808594 15.96875 18.71875 L 15.34375 16.59375 L 17.3125 15.9375 L 16.6875 14.0625 L 14.75 14.71875 L 13.375 10.125 C 12.996094 8.859375 11.820313 8 10.5 8 Z M 21.5625 12.375 L 23 16 L 24.4375 12.375 C 25.371094 12.882813 26 13.855469 26 15 L 26 19.375 L 24 20.375 L 24 26 L 22 26 L 22 20.375 L 20 19.375 L 20 15 C 20 13.855469 20.628906 12.882813 21.5625 12.375 Z M 11.5 18 C 10.671875 18 10 18.671875 10 19.5 C 10 20.328125 10.671875 21 11.5 21 C 12.328125 21 13 20.328125 13 19.5 C 13 18.671875 12.328125 18 11.5 18 Z M 4 21 L 4 23 L 6.65625 23 L 7.09375 24 L 9.25 24 L 8 21 Z "></path>
</g>
</svg>
