<?xml version="1.0" encoding="UTF-8"?>
<svg xmlns="http://www.w3.org/2000/svg" xmlns:xlink="http://www.w3.org/1999/xlink" viewBox="0 0 32 32" version="1.1">
<g>
<path d="M 5 5 C 3.355469 5 2 6.355469 2 8 L 2 25 L 5.03125 25 C 5.28125 26.679688 6.753906 28 8.5 28 C 10.246094 28 11.71875 26.679688 11.96875 25 L 21.03125 25 C 21.28125 26.679688 22.753906 28 24.5 28 C 26.246094 28 27.71875 26.679688 27.96875 25 L 31 25 L 31 14.5625 C 31 14 30.828125 13.445313 30.53125 12.96875 L 26.4375 6.40625 C 25.890625 5.53125 24.9375 5 23.90625 5 Z M 5 7 L 19 7 L 19 15 L 29 15 L 29 17 L 26 17 L 26 19 L 29 19 L 29 23 L 27.625 23 C 27.054688 21.835938 25.875 21 24.5 21 C 23.125 21 21.945313 21.835938 21.375 23 L 11.625 23 C 11.054688 21.835938 9.875 21 8.5 21 C 7.125 21 5.945313 21.835938 5.375 23 L 4 23 L 4 8 C 4 7.4375 4.4375 7 5 7 Z M 21 7 L 23.90625 7 C 24.253906 7 24.566406 7.175781 24.75 7.46875 L 28.1875 13 L 21 13 Z M 8.5 23 C 9.339844 23 10 23.660156 10 24.5 C 10 25.339844 9.339844 26 8.5 26 C 7.660156 26 7 25.339844 7 24.5 C 7 23.660156 7.660156 23 8.5 23 Z M 24.5 23 C 25.339844 23 26 23.660156 26 24.5 C 26 25.339844 25.339844 26 24.5 26 C 23.660156 26 23 25.339844 23 24.5 C 23 23.660156 23.660156 23 24.5 23 Z "></path>
</g>
</svg>
