<?xml version="1.0" encoding="UTF-8"?>
<svg xmlns="http://www.w3.org/2000/svg" xmlns:xlink="http://www.w3.org/1999/xlink" viewBox="0 0 32 32" version="1.1">
<g>
<path d="M 4 5 L 4 6.5625 C 2.882813 7.148438 2 8.160156 2 9.5 C 2 10.925781 2.953125 12.019531 4.1875 12.5625 C 4.582031 15.65625 6.011719 18.828125 8.21875 21.21875 C 9.113281 27.113281 12.585938 28 16 28 C 19.410156 28 22.890625 27.113281 23.78125 21.21875 C 25.984375 18.828125 27.386719 15.65625 27.78125 12.5625 C 29.027344 12.027344 30 10.9375 30 9.5 C 30 8.160156 29.117188 7.148438 28 6.5625 L 28 5 L 26 5 L 26 7.875 L 26.8125 8.03125 C 27.496094 8.171875 28 8.765625 28 9.5 C 28 10.246094 27.480469 10.839844 26.78125 10.96875 L 26.03125 11.09375 L 25.96875 11.875 C 25.804688 13.769531 25.09375 15.820313 24 17.625 L 24 17 C 24 14.90625 18.347656 12 17.34375 12 C 16.875 12 16.410156 12.117188 16 12.3125 C 15.589844 12.117188 15.125 12 14.65625 12 C 13.652344 12 8 14.90625 8 17 L 8 17.59375 C 6.914063 15.792969 6.195313 13.761719 6.03125 11.875 L 5.96875 11.09375 L 5.21875 10.96875 C 4.519531 10.839844 4 10.246094 4 9.5 C 4 8.765625 4.503906 8.171875 5.1875 8.03125 L 6 7.875 L 6 5 Z M 11.5 6 C 10.671875 6 10 6.671875 10 7.5 C 10 8.328125 10.671875 9 11.5 9 C 12.328125 9 13 8.328125 13 7.5 C 13 6.671875 12.328125 6 11.5 6 Z M 20.5 6 C 19.671875 6 19 6.671875 19 7.5 C 19 8.328125 19.671875 9 20.5 9 C 21.328125 9 22 8.328125 22 7.5 C 22 6.671875 21.328125 6 20.5 6 Z M 16 15 C 19.097656 15 21.078125 16.496094 21.90625 17.28125 C 21.207031 17.675781 20.742188 18.390625 20.375 18.96875 C 20.117188 19.375 19.722656 20 19.5 20 C 19.273438 20 19.234375 19.964844 19.15625 19.75 C 19.03125 19.390625 19.03125 18.839844 19.03125 18.375 L 19.03125 17.59375 L 18.28125 17.40625 C 18.03125 17.339844 16.75 17 16 17 C 15.25 17 13.96875 17.339844 13.71875 17.40625 L 12.96875 17.65625 L 12.96875 18.40625 C 12.96875 18.757813 12.976563 19.300781 12.84375 19.6875 C 12.738281 19.996094 12.652344 20 12.5 20 C 12.277344 20 11.882813 19.375 11.625 18.96875 C 11.257813 18.390625 10.792969 17.675781 10.09375 17.28125 C 10.921875 16.492188 12.902344 15 16 15 Z "></path>
</g>
</svg>
