<?xml version="1.0" encoding="UTF-8"?>
<svg xmlns="http://www.w3.org/2000/svg" xmlns:xlink="http://www.w3.org/1999/xlink" viewBox="0 0 32 32" version="1.1">
<g>
<path d="M 9.375 4 C 8.128906 4 7 4.769531 6.5625 5.9375 L 4.40625 11.75 L 2.3125 11.0625 L 1.6875 12.9375 L 4 13.71875 L 4 27 C 4 27.550781 4.449219 28 5 28 L 8 28 L 8.34375 27 L 23.65625 27 L 24 28 L 27 28 C 27.550781 28 28 27.550781 28 27 L 28 13.71875 L 30.3125 12.9375 L 29.6875 11.0625 L 27.59375 11.75 L 25.4375 5.9375 C 25 4.769531 23.871094 4 22.625 4 Z M 9.375 6 L 22.625 6 C 23.046875 6 23.414063 6.261719 23.5625 6.65625 L 25.5625 12 L 6.4375 12 L 8.4375 6.65625 C 8.585938 6.261719 8.953125 6 9.375 6 Z M 11 7 C 9.894531 7 9 7.894531 9 9 C 9 10.105469 9.894531 11 11 11 C 12.105469 11 13 10.105469 13 9 C 13 7.894531 12.105469 7 11 7 Z M 16 7 C 15.171875 7 14.5 7.671875 14.5 8.5 C 14.5 9.328125 15.171875 10 16 10 C 16.828125 10 17.5 9.328125 17.5 8.5 C 17.5 7.671875 16.828125 7 16 7 Z M 21 7 C 19.894531 7 19 7.894531 19 9 C 19 10.105469 19.894531 11 21 11 C 22.105469 11 23 10.105469 23 9 C 23 7.894531 22.105469 7 21 7 Z M 6 14 L 26 14 L 26 17 L 22 17 L 22 19 L 26 19 L 26 25 L 6 25 L 6 19 L 10 19 L 10 17 L 6 17 Z M 12 21 L 10.75 24 L 12.90625 24 L 13.34375 23 L 18.65625 23 L 19.09375 24 L 21.25 24 L 20 21 Z "></path>
</g>
</svg>
