<?xml version="1.0" encoding="UTF-8"?>
<svg xmlns="http://www.w3.org/2000/svg" xmlns:xlink="http://www.w3.org/1999/xlink" viewBox="0 0 32 32" version="1.1">
<g>
<path d="M 4 5 L 4 27 L 28 27 L 28 5 Z M 6 7 L 26 7 L 26 9 L 6 9 Z M 6 11 L 26 11 L 26 25 L 6 25 Z M 10 14 C 10 14 9 15.066406 9 18 C 9 20.933594 10 22 10 22 L 11.75 22 C 11.75 22 10.75 20.367188 10.75 18 C 10.75 15.632813 11.75 14 11.75 14 Z M 13 14 L 15 18 L 13 22 L 15 22 L 16 20 L 17 22 L 19 22 L 17 18 L 19 14 L 17 14 L 16 16 L 15 14 Z M 20.25 14 C 20.25 14 21.25 15.632813 21.25 18 C 21.25 20.367188 20.25 22 20.25 22 L 22 22 C 22 22 23 20.933594 23 18 C 23 15.066406 22 14 22 14 Z "></path>
</g>
</svg>
