<?xml version="1.0" encoding="UTF-8"?>
<svg xmlns="http://www.w3.org/2000/svg" xmlns:xlink="http://www.w3.org/1999/xlink" viewBox="0 0 32 32" version="1.1">
<g>
<path d="M 0 7 L 0 25 L 32 25 L 32 7 Z M 2 9 L 30 9 L 30 23 L 2 23 Z M 10 12 L 10 13.15625 L 10.03125 13.3125 L 11.9375 19.3125 L 12.15625 20 L 13.84375 20 L 14.0625 19.3125 L 15.96875 13.3125 L 16 13.15625 L 16 12 L 14 12 L 14 12.78125 L 13 16 L 12 12.78125 L 12 12 Z M 17 12 L 17 20 L 19.5 20 C 20.882813 20 22 18.882813 22 17.5 C 22 16.917969 21.738281 16.425781 21.40625 16 C 21.738281 15.574219 22 15.082031 22 14.5 C 22 13.117188 20.882813 12 19.5 12 Z M 19 14 L 19.5 14 C 19.714844 14 20 14.285156 20 14.5 C 20 14.714844 19.714844 15 19.5 15 L 19 15 Z M 19 17 L 19.5 17 C 19.714844 17 20 17.285156 20 17.5 C 20 17.714844 19.714844 18 19.5 18 L 19 18 Z "></path>
</g>
</svg>
