<?xml version="1.0" encoding="UTF-8"?>
<svg xmlns="http://www.w3.org/2000/svg" xmlns:xlink="http://www.w3.org/1999/xlink" viewBox="0 0 32 32" version="1.1">
<g>
<path d="M 0 7 L 0 25 L 32 25 L 32 7 Z M 2 9 L 30 9 L 30 23 L 2 23 Z M 7 12 L 7 13.15625 L 7.03125 13.3125 L 8.9375 19.3125 L 9.15625 20 L 10.84375 20 L 11.0625 19.3125 L 12.96875 13.3125 L 13 13.15625 L 13 12 L 11 12 L 11 12.78125 L 10 16 L 9 12.78125 L 9 12 Z M 14 12 L 14 20 L 16.5 20 C 17.882813 20 19 18.882813 19 17.5 C 19 16.917969 18.738281 16.425781 18.40625 16 C 18.738281 15.574219 19 15.082031 19 14.5 C 19 13.117188 17.882813 12 16.5 12 Z M 22.5 12 C 21.117188 12 20 13.117188 20 14.5 C 20 15.882813 21.117188 17 22.5 17 C 22.714844 17 23 17.285156 23 17.5 C 23 17.800781 22.882813 18 22.5 18 C 22.132813 18 22.074219 17.921875 22.0625 17.90625 C 22.050781 17.890625 22 17.828125 22 17.59375 L 20 17.59375 C 20 18.160156 20.164063 18.796875 20.625 19.28125 C 21.085938 19.765625 21.769531 20 22.5 20 C 23.917969 20 25 18.800781 25 17.5 C 25 16.117188 23.882813 15 22.5 15 C 22.285156 15 22 14.714844 22 14.5 C 22 14.285156 22.285156 14 22.5 14 C 22.765625 14 22.847656 14.0625 22.90625 14.125 C 22.964844 14.1875 23 14.292969 23 14.40625 L 25 14.40625 C 25 13.816406 24.785156 13.214844 24.34375 12.75 C 23.902344 12.285156 23.234375 12 22.5 12 Z M 16 14 L 16.5 14 C 16.714844 14 17 14.285156 17 14.5 C 17 14.714844 16.714844 15 16.5 15 L 16 15 Z M 16 17 L 16.5 17 C 16.714844 17 17 17.285156 17 17.5 C 17 17.714844 16.714844 18 16.5 18 L 16 18 Z "></path>
</g>
</svg>
