<?xml version="1.0" encoding="UTF-8"?>
<svg xmlns="http://www.w3.org/2000/svg" xmlns:xlink="http://www.w3.org/1999/xlink" viewBox="0 0 32 32" version="1.1">
<g>
<path d="M 8 5 C 6.355469 5 5 6.355469 5 8 L 5 24 C 5 25.644531 6.355469 27 8 27 L 24 27 C 25.644531 27 27 25.644531 27 24 L 27 8 C 27 6.355469 25.644531 5 24 5 Z M 8 7 L 24 7 C 24.566406 7 25 7.433594 25 8 L 25 24 C 25 24.566406 24.566406 25 24 25 L 8 25 C 7.433594 25 7 24.566406 7 24 L 7 8 C 7 7.433594 7.433594 7 8 7 Z M 9 9 L 9 18.625 C 9 18.625 9.035156 23 13.375 23 L 23 23 L 23 20 L 14 20 C 14 20 11 20.0625 11 17 L 11 9 Z M 13 9 L 16.6875 18 L 19.3125 18 L 23 9 L 20.8125 9 L 18 15.621094 L 15.1875 9 Z "></path>
</g>
</svg>
