<?xml version="1.0" encoding="UTF-8"?>
<svg xmlns="http://www.w3.org/2000/svg" xmlns:xlink="http://www.w3.org/1999/xlink" viewBox="0 0 32 32" version="1.1">
<g>
<path d="M 11 4 C 11 5.011719 11 6.046875 11.1875 7.125 C 10.941406 7.261719 10.660156 7.457031 10.375 7.71875 C 9.683594 8.351563 9 9.484375 9 11.03125 C 9 12.46875 9.457031 13.675781 10.1875 14.5625 C 10.917969 15.449219 11.886719 16.019531 12.84375 16.4375 C 14.761719 17.273438 16.871094 17.613281 17.46875 17.90625 L 17.6875 18 L 18.6875 18 L 19 17.59375 C 19 17.59375 21 14.75 21 10.59375 C 21 8.308594 20.308594 6.808594 19.375 5.96875 C 18.441406 5.128906 17.390625 5 16.84375 5 C 15.648438 5 14.816406 5.617188 14.125 5.90625 L 14.875 7.75 C 15.773438 7.375 16.488281 7 16.84375 7 C 17.050781 7 17.582031 7.066406 18.03125 7.46875 C 18.480469 7.871094 19 8.6875 19 10.59375 C 19 13.527344 18.007813 15.257813 17.625 15.875 C 16.390625 15.429688 14.949219 15.171875 13.625 14.59375 C 12.84375 14.253906 12.203125 13.832031 11.75 13.28125 C 11.296875 12.730469 11 12.066406 11 11.03125 C 11 10.042969 11.378906 9.53125 11.75 9.1875 C 11.773438 9.167969 11.789063 9.175781 11.8125 9.15625 C 12.359375 10.308594 13.261719 11.464844 14.6875 12.59375 L 15.90625 11.03125 C 14.328125 9.78125 13.683594 8.710938 13.34375 7.625 C 13.003906 6.539063 13 5.371094 13 4 Z M 22.46875 11.71875 C 22.441406 12.453125 22.382813 13.160156 22.3125 13.78125 C 24.628906 14.414063 26 15.304688 26 16 C 26 17.195313 22.011719 19 16 19 C 9.988281 19 6 17.195313 6 16 C 6 15.460938 6.828125 14.785156 8.28125 14.21875 C 7.976563 13.660156 7.75 13.023438 7.625 12.3125 C 5.453125 13.152344 4 14.394531 4 16 C 4 18.78125 4.980469 21.097656 6 22.75 C 7.019531 24.402344 8.15625 25.46875 8.28125 25.59375 C 9.4375 26.75 11.9375 28 16 28 C 20.054688 28 22.472656 26.726563 23.6875 25.625 C 23.980469 25.363281 24.988281 24.402344 26 22.75 C 27.011719 21.097656 28 18.777344 28 16 C 28 13.960938 25.664063 12.515625 22.46875 11.71875 Z M 6.53125 19.1875 C 8.84375 20.386719 12.429688 21 16 21 C 19.585938 21 23.1875 20.394531 25.5 19.1875 C 25.1875 20.140625 24.75 20.972656 24.3125 21.6875 C 23.433594 23.117188 22.460938 24.050781 22.34375 24.15625 C 21.539063 24.886719 19.644531 26 16 26 C 12.363281 26 10.273438 24.773438 9.6875 24.1875 C 9.445313 23.945313 8.601563 23.121094 7.71875 21.6875 C 7.28125 20.980469 6.847656 20.128906 6.53125 19.1875 Z "></path>
</g>
</svg>
