<?xml version="1.0" encoding="UTF-8"?>
<svg xmlns="http://www.w3.org/2000/svg" xmlns:xlink="http://www.w3.org/1999/xlink" viewBox="0 0 32 32" version="1.1">
<g>
<path d="M 11 3 L 11 6.28125 L 8.6875 7.0625 C 8.621094 7.078125 8.46875 7.109375 8.1875 7.21875 L 8 7.28125 L 8 7.3125 C 7.144531 7.679688 5.796875 8.472656 5.09375 10.09375 C 4.859375 10.632813 4.773438 11.164063 4.65625 11.9375 C 4.539063 12.710938 4.441406 13.648438 4.34375 14.53125 C 4.148438 16.292969 4 17.90625 4 17.90625 L 4 29 L 10 29 L 10 27 L 22 27 L 22 29 L 28 29 L 28 17.90625 C 28 17.90625 27.851563 16.292969 27.65625 14.53125 C 27.558594 13.648438 27.460938 12.710938 27.34375 11.9375 C 27.226563 11.164063 27.144531 10.636719 26.90625 10.09375 C 26.210938 8.503906 24.832031 7.660156 24 7.28125 L 23.71875 7.1875 C 23.460938 7.082031 23.3125 7.03125 23.3125 7.03125 L 23.3125 7.0625 L 21 6.28125 L 21 3 Z M 13.71875 5 L 18.28125 5 L 16 8.96875 Z M 12.96875 7.71875 L 15.125 11.5 L 16 13 L 16.875 11.5 L 19.03125 7.71875 L 19.6875 7.9375 L 22 8.71875 L 22 25 L 10 25 L 10 8.71875 L 12.3125 7.9375 Z M 8 9.59375 L 8 27 L 6 27 L 6 18 C 6.007813 17.914063 6.125 16.433594 6.3125 14.75 C 6.410156 13.882813 6.546875 12.976563 6.65625 12.25 C 6.765625 11.523438 6.917969 10.878906 6.90625 10.90625 C 7.164063 10.316406 7.59375 9.894531 8 9.59375 Z M 24 9.6875 C 24.4375 10 24.867188 10.394531 25.09375 10.90625 C 25.078125 10.875 25.234375 11.523438 25.34375 12.25 C 25.453125 12.976563 25.589844 13.882813 25.6875 14.75 C 25.875 16.433594 25.992188 17.914063 26 18 C 26 18.003906 26 18.09375 26 18.09375 L 26 27 L 24 27 Z M 16.96875 14 C 16.96875 14 16.203125 14.597656 15.8125 15.78125 C 15.457031 16.855469 15.40625 18.433594 16.28125 20.5625 C 15.027344 19.257813 14.890625 17.078125 14.9375 16.1875 C 14.84375 16.1875 14.371094 16.003906 13.75 16.53125 C 12.316406 17.726563 12.632813 21.324219 17.75 23 C 17.414063 21.996094 19.480469 19.847656 18.90625 17.5 C 18.578125 16.042969 17.441406 15.902344 16.75 16.09375 C 17.054688 15.171875 17.53125 14.8125 17.53125 14.8125 Z "></path>
</g>
</svg>
