<?xml version="1.0" encoding="UTF-8"?>
<svg xmlns="http://www.w3.org/2000/svg" xmlns:xlink="http://www.w3.org/1999/xlink" viewBox="0 0 32 32" version="1.1">
<g>
<path d="M 16 3 C 10.777344 3 7.65625 6.3125 7.65625 6.3125 L 7.09375 6.90625 L 7.53125 7.5625 C 7.53125 7.5625 11.082031 13 17 13 C 18.441406 13 19.570313 12.726563 20.34375 12.4375 C 21.007813 12.191406 21.390625 11.949219 21.5 11.875 C 22.136719 12.664063 22.671875 13.683594 23.03125 15 L 24.96875 14.5 C 23.847656 10.394531 20.992188 8.410156 18.53125 7.59375 C 16.070313 6.777344 13.90625 7 13.90625 7 L 14.09375 9 C 14.09375 9 15.882813 8.832031 17.90625 9.5 C 18.566406 9.71875 19.234375 10.023438 19.875 10.4375 C 19.785156 10.476563 19.746094 10.515625 19.625 10.5625 C 19.054688 10.773438 18.183594 11 17 11 C 13.035156 11 10.609375 8.109375 9.84375 7.125 C 10.648438 6.425781 12.523438 5 16 5 C 18.742188 5 19.871094 5.84375 20.4375 6.59375 C 21.003906 7.34375 21 8.03125 21 8.03125 L 23 7.96875 C 23 7.96875 22.980469 6.65625 22.03125 5.40625 C 21.082031 4.15625 19.191406 3 16 3 Z M 15.375 15 L 15.0625 15.46875 C 15.0625 15.46875 13.453125 18 10 18 C 8.179688 18 7.148438 17.542969 6.5625 17.15625 C 5.976563 16.769531 5.875 16.53125 5.875 16.53125 L 5.625 16 L 3 16 L 3 29 L 30 29 L 30 25.0625 C 30 25.0625 30.042969 24.695313 30 24.15625 L 30 24 L 29.96875 24 C 29.917969 23.476563 29.8125 22.835938 29.5625 22.15625 C 29.289063 21.410156 28.851563 20.613281 28.09375 20 C 27.335938 19.386719 26.277344 19 25 19 C 21.875 19 19.863281 18.082031 18.59375 17.1875 C 17.324219 16.292969 16.875 15.5 16.875 15.5 L 16.5625 15 Z M 15.875 17.4375 C 16.25 17.851563 16.742188 18.320313 17.4375 18.8125 C 19.007813 19.917969 21.472656 21 25 21 C 25.894531 21 26.445313 21.238281 26.84375 21.5625 C 27.242188 21.886719 27.503906 22.339844 27.6875 22.84375 C 27.890625 23.402344 27.851563 23.59375 27.875 24 L 5 24 L 5 18.375 C 5.203125 18.585938 5.152344 18.632813 5.46875 18.84375 C 6.390625 19.457031 7.84375 20 10 20 C 13.304688 20 15.003906 18.421875 15.875 17.4375 Z M 5 26 L 28 26 L 28 27 L 5 27 Z "></path>
</g>
</svg>
