<?xml version="1.0" encoding="UTF-8"?>
<svg xmlns="http://www.w3.org/2000/svg" xmlns:xlink="http://www.w3.org/1999/xlink" viewBox="0 0 32 32" version="1.1">
<g>
<path d="M 18.5 4 C 17.132813 4 16 5.132813 16 6.5 C 16 7.332031 16.492188 7.949219 17.125 8.40625 L 14.6875 12.53125 C 14.230469 13.304688 14 14.195313 14 15.09375 L 14 15.3125 C 13.253906 15.082031 12.464844 15.03125 11.65625 15.15625 C 11.007813 13.300781 9.625 12.21875 9.625 12.21875 L 8.375 13.78125 C 8.375 13.78125 8.972656 14.253906 9.4375 15.03125 C 9.167969 15.027344 8.886719 15.046875 8.625 15.09375 C 7.753906 15.253906 6.941406 15.648438 6.25 16.21875 C 4.871094 17.359375 4 19.230469 4 21.5 C 4 25.128906 7.191406 28 11 28 C 12.375 28 13.65625 27.621094 14.75 26.96875 C 15.296875 27.59375 16.109375 28 17 28 L 25 28 C 26.644531 28 28 26.644531 28 25 L 28 15.09375 C 28 14.195313 27.769531 13.304688 27.3125 12.53125 L 24.875 8.40625 C 25.507813 7.949219 26 7.332031 26 6.5 C 26 5.132813 24.867188 4 23.5 4 Z M 18.5 6 L 23.5 6 C 23.785156 6 24 6.214844 24 6.5 C 24 6.785156 23.785156 7 23.5 7 L 22.5 7 L 22.5 8.375 L 22.625 8.625 L 25.59375 13.5625 C 25.867188 14.027344 26 14.554688 26 15.09375 L 26 25 C 26 25.566406 25.566406 26 25 26 L 17 26 C 16.734375 26 16.492188 25.890625 16.3125 25.71875 C 17.355469 24.589844 18 23.117188 18 21.5 C 18 19.40625 17.226563 17.660156 16 16.5 L 16 15.09375 C 16 14.554688 16.132813 14.027344 16.40625 13.5625 L 19.375 8.625 L 19.5 8.375 L 19.5 7 L 18.5 7 C 18.214844 7 18 6.785156 18 6.5 C 18 6.214844 18.214844 6 18.5 6 Z M 9.375 17 C 9.792969 16.976563 10.238281 17.039063 10.6875 17.1875 L 11 17.3125 L 11.3125 17.1875 C 12.488281 16.785156 13.589844 17.046875 14.46875 17.78125 C 15.347656 18.515625 16 19.765625 16 21.5 C 16 23.949219 13.820313 26 11 26 C 8.179688 26 6 23.949219 6 21.5 C 6 19.726563 6.628906 18.46875 7.5 17.75 C 7.933594 17.390625 8.433594 17.160156 8.96875 17.0625 C 9.101563 17.039063 9.234375 17.007813 9.375 17 Z "></path>
</g>
</svg>
