<?xml version="1.0" encoding="UTF-8"?>
<svg xmlns="http://www.w3.org/2000/svg" xmlns:xlink="http://www.w3.org/1999/xlink" viewBox="0 0 32 32" version="1.1">
<g>
<path d="M 5 3 L 5 29 L 27 29 L 27 3 Z M 7 5 L 25 5 L 25 27 L 7 27 Z M 9 7 L 9 19 L 19 19 L 19 7 Z M 11 9 L 13 9 L 13 12 L 11 12 Z M 15 9 L 17 9 L 17 12 L 15 12 Z M 21 9 L 21 11 L 23 11 L 23 9 Z M 21 13 L 21 15 L 23 15 L 23 13 Z M 11 14 L 13 14 L 13 17 L 11 17 Z M 15 14 L 17 14 L 17 17 L 15 17 Z M 21 17 L 21 19 L 23 19 L 23 17 Z M 9 21 L 9 25 L 19 25 L 19 21 Z "></path>
</g>
</svg>
