<?xml version="1.0" encoding="UTF-8"?>
<svg xmlns="http://www.w3.org/2000/svg" xmlns:xlink="http://www.w3.org/1999/xlink" viewBox="0 0 32 32" version="1.1">
<g>
<path d="M 16 3 C 15.078125 3 14.183594 3.167969 13.34375 3.4375 C 13.167969 3.496094 12.984375 3.527344 12.8125 3.59375 C 11.367188 4.070313 10.097656 4.910156 9.125 6.15625 C 9.105469 6.179688 9.082031 6.195313 9.0625 6.21875 C 7.15625 8.300781 6 11.148438 6 14 C 6 17.621094 7.042969 21.273438 8.78125 24.09375 C 10.519531 26.914063 13.035156 29 16 29 C 18.96875 29 21.480469 26.890625 23.21875 24.0625 C 24.957031 21.234375 26 17.601563 26 14 C 26 11.148438 24.84375 8.300781 22.9375 6.21875 C 22.917969 6.199219 22.894531 6.175781 22.875 6.15625 C 21.902344 4.910156 20.632813 4.070313 19.1875 3.59375 C 19.015625 3.527344 18.832031 3.496094 18.65625 3.4375 C 17.816406 3.167969 16.921875 3 16 3 Z M 22 9.09375 C 22 9.09375 22.5 9.300781 23 10 C 23.699219 11.199219 23.695313 13.195313 23.09375 15.09375 L 22.6875 16.8125 L 22.59375 17.5 C 22.59375 17.5 21.988281 17.601563 21.6875 18 C 21.386719 18.300781 21.90625 19.09375 21.90625 19.09375 C 21.90625 19.09375 21.304688 18.8125 20.90625 18.8125 C 20.507813 19.011719 20.289063 19.40625 19.6875 19.90625 C 19.085938 19.507813 18.394531 18.59375 18.09375 18.09375 C 17.695313 17.492188 16.8125 17 16.8125 17 C 16.914063 16.5 16.90625 13.90625 16.90625 13.90625 C 16.90625 13.90625 17.8125 16.105469 18.8125 15.90625 C 19.511719 15.707031 20.011719 15.007813 20.3125 13.90625 C 20.914063 12.007813 20.5 11 20.5 11 L 21.09375 11.3125 C 21.394531 11.511719 22.105469 11.511719 22.40625 10.8125 C 22.707031 10.113281 22 9.09375 22 9.09375 Z M 10 9.1875 C 10 9.1875 9.292969 10.105469 9.59375 10.90625 C 9.792969 11.605469 10.605469 11.605469 10.90625 11.40625 C 11.105469 11.207031 11.5 11 11.5 11 C 11.5 11 11.09375 11.988281 11.59375 13.6875 C 11.894531 14.886719 12.492188 15.585938 13.09375 15.6875 C 13.992188 15.886719 15 13.6875 15 13.6875 C 15 13.6875 15.09375 16.3125 15.09375 16.8125 C 15.09375 16.8125 14.210938 17.304688 13.8125 17.90625 C 13.511719 18.40625 12.789063 19.386719 12.1875 19.6875 C 11.585938 19.289063 11.398438 18.792969 11 18.59375 C 10.601563 18.59375 10 18.90625 10 18.90625 C 10 18.90625 10.613281 18.304688 10.3125 17.90625 C 10.011719 17.507813 9.40625 17.40625 9.40625 17.40625 L 9.3125 16.6875 L 8.8125 15.09375 C 8.3125 13.292969 8.199219 11.292969 9 10.09375 C 9.398438 9.394531 10 9.1875 10 9.1875 Z M 14.8125 20.34375 C 14.84375 20.328125 14.925781 20.40625 15 20.40625 C 15.199219 22.105469 15.5 23.59375 15.5 23.59375 C 15.5 23.59375 15.984375 22.347656 16 20.40625 C 16.109375 22.347656 16.5 23.59375 16.5 23.59375 C 16.5 23.59375 16.898438 22.105469 17 20.40625 L 17.1875 20.40625 C 17.289063 21.804688 17.59375 22.90625 17.59375 22.90625 C 17.59375 22.90625 17.988281 21.59375 18.1875 20.59375 C 18.289063 20.59375 18.304688 20.585938 18.40625 20.6875 C 18.507813 22.488281 18.6875 23.3125 18.6875 23.3125 C 18.6875 23.3125 19.101563 22.300781 19.5 21 C 19.601563 21 19.6875 21.09375 19.6875 21.09375 C 19.585938 22.695313 19.8125 23.6875 19.8125 23.6875 C 19.8125 23.6875 20.300781 22.398438 20.5 21.5 L 20.59375 21.59375 L 20.59375 23 C 20.59375 23 20.898438 22.292969 21 22.09375 C 21.199219 22.695313 19.988281 24.40625 19.6875 24.90625 C 19.617188 25.113281 19.386719 25.449219 19.0625 25.8125 C 19.035156 25.839844 19.027344 25.878906 19 25.90625 C 18.980469 25.917969 18.957031 25.925781 18.9375 25.9375 C 18.816406 26.027344 18.6875 26.109375 18.5625 26.1875 C 18.507813 25.871094 18.3125 25.40625 18.3125 25.40625 C 18.3125 25.40625 18.140625 26.03125 18.0625 26.46875 C 17.945313 26.527344 17.835938 26.574219 17.71875 26.625 C 17.589844 26.179688 17.40625 25.6875 17.40625 25.6875 C 17.40625 25.6875 17.214844 26.375 17.1875 26.8125 C 17.117188 26.832031 17.039063 26.859375 16.96875 26.875 C 16.914063 26.089844 16.59375 25.09375 16.59375 25.09375 C 16.59375 25.09375 16.121094 26.386719 16.03125 27 C 16.019531 27 16.011719 27 16 27 C 15.925781 26.386719 15.5 25.09375 15.5 25.09375 C 15.5 25.09375 15.175781 26.117188 15.125 26.90625 C 15.042969 26.890625 14.957031 26.867188 14.875 26.84375 C 14.832031 26.417969 14.6875 25.6875 14.6875 25.6875 C 14.6875 25.6875 14.5 26.203125 14.375 26.65625 C 14.261719 26.609375 14.144531 26.585938 14.03125 26.53125 C 13.960938 26.101563 13.8125 25.40625 13.8125 25.40625 C 13.8125 25.40625 13.574219 25.902344 13.53125 26.21875 C 13.441406 26.164063 13.339844 26.121094 13.25 26.0625 C 12.796875 25.621094 12.492188 25.160156 12.40625 24.90625 C 12.007813 24.40625 10.800781 22.695313 11 22.09375 C 11.101563 22.394531 11.40625 23 11.40625 23 L 11.40625 21.59375 L 11.5 21.5 C 11.699219 22.398438 12.1875 23.6875 12.1875 23.6875 C 12.1875 23.6875 12.414063 22.695313 12.3125 21.09375 C 12.414063 21.09375 12.5 21 12.5 21 C 12.898438 22.300781 13.3125 23.3125 13.3125 23.3125 C 13.3125 23.3125 13.492188 22.488281 13.59375 20.6875 C 13.695313 20.6875 13.710938 20.695313 13.8125 20.59375 C 14.011719 21.695313 14.40625 22.90625 14.40625 22.90625 C 14.40625 22.90625 14.710938 21.804688 14.8125 20.40625 C 14.8125 20.382813 14.800781 20.347656 14.8125 20.34375 Z "></path>
</g>
</svg>
