<?xml version="1.0" encoding="UTF-8"?>
<svg xmlns="http://www.w3.org/2000/svg" xmlns:xlink="http://www.w3.org/1999/xlink" viewBox="0 0 32 32" version="1.1">
<g>
<path d="M 0 7 L 0 25 L 32 25 L 32 7 Z M 2 9 L 30 9 L 30 23 L 2 23 Z M 4 12 L 4 13.15625 L 4.0625 13.3125 L 6 19.3125 L 6.21875 20 L 7.78125 20 L 8 19.3125 L 9.9375 13.3125 L 10 13.15625 L 10 12 L 8 12 L 8 12.875 L 7 15.9375 L 6 12.875 L 6 12 Z M 11 12 L 11 20 L 16 20 L 16 18 L 13 18 L 13 17 L 15 17 L 15 15 L 13 15 L 13 14 L 16 14 L 16 12 Z M 17 12 L 17 20 L 19 20 L 19 17 L 20 20 L 22 20 L 20.875 16.59375 C 21.558594 16.144531 22 15.371094 22 14.5 C 22 13.132813 20.867188 12 19.5 12 Z M 23 12 L 23 20 L 25.5 20 C 26.867188 20 28 18.867188 28 17.5 C 28 16.910156 27.691406 16.429688 27.34375 16 C 27.691406 15.570313 28 15.089844 28 14.5 C 28 13.132813 26.867188 12 25.5 12 Z M 19 14 L 19.5 14 C 19.785156 14 20 14.214844 20 14.5 C 20 14.785156 19.785156 15 19.5 15 L 19 15 Z M 25 14 L 25.5 14 C 25.785156 14 26 14.214844 26 14.5 C 26 14.785156 25.785156 15 25.5 15 L 25 15 Z M 25 17 L 25.5 17 C 25.785156 17 26 17.214844 26 17.5 C 26 17.785156 25.785156 18 25.5 18 L 25 18 Z "></path>
</g>
</svg>
