<?xml version="1.0" encoding="UTF-8"?>
<svg xmlns="http://www.w3.org/2000/svg" xmlns:xlink="http://www.w3.org/1999/xlink" viewBox="0 0 32 32" version="1.1">
<g>
<path d="M 2 8.515625 L 2 23.484375 L 30 23.484375 L 30 8.515625 Z M 8.898438 22.402344 L 6.425781 22.402344 L 3.019531 9.863281 L 5.640625 9.863281 L 8.300781 20.441406 C 8.300781 20.441406 10.289063 10.617188 10.289063 10.347656 C 10.289063 10.066406 10.019531 9.863281 10.019531 9.863281 C 10.003906 9.863281 11.160156 9.863281 11.160156 9.863281 L 8.757813 21.753906 Z M 19.691406 22.402344 L 17.578125 22.402344 L 17.582031 17.992188 L 16.054688 18.53125 L 14.492188 18.53125 L 14.492188 22.402344 L 12.390625 22.402344 L 12.390625 18.535156 L 11.871094 18.535156 L 12.390625 17.628906 L 12.390625 9.863281 L 14.492188 9.863281 L 14.492188 17.5625 L 17.578125 17.566406 L 17.578125 9.863281 L 19.691406 9.863281 Z M 22.988281 13.273438 C 23.253906 13.597656 23.675781 13.941406 24.242188 14.296875 L 25.800781 15.277344 C 26.785156 15.898438 27.492188 16.480469 27.902344 17.003906 C 28.3125 17.550781 28.519531 18.199219 28.519531 18.9375 C 28.519531 19.929688 28.222656 20.859375 27.488281 21.523438 C 26.765625 22.183594 25.761719 22.402344 24.636719 22.402344 C 24.636719 22.402344 20.882813 22.410156 20.804688 22.402344 L 20.496094 21.566406 C 20.496094 21.566406 25.5 21.835938 26.0625 21.015625 C 26.4375 20.476563 26.425781 20.140625 26.425781 19.523438 C 26.425781 18.96875 26.234375 18.496094 25.84375 18.085938 C 25.582031 17.820313 25.015625 17.40625 24.15625 16.859375 L 22.644531 15.894531 C 22.175781 15.59375 21.800781 15.285156 21.519531 14.976563 C 20.996094 14.375 20.730469 13.703125 20.730469 12.976563 C 20.730469 12.027344 21.042969 11.222656 21.664063 10.585938 C 22.320313 9.914063 23.273438 9.859375 24.191406 9.859375 C 24.332031 9.859375 28.804688 9.859375 28.804688 9.859375 L 28.464844 10.707031 C 28.464844 10.707031 24.238281 10.625 23.339844 11.164063 C 22.984375 11.378906 22.609375 11.699219 22.609375 12.171875 C 22.609375 12.609375 22.730469 12.96875 22.988281 13.273438 Z "></path>
</g>
</svg>
