<?xml version="1.0" encoding="UTF-8"?>
<svg xmlns="http://www.w3.org/2000/svg" xmlns:xlink="http://www.w3.org/1999/xlink" viewBox="0 0 32 32" version="1.1">
<g>
<path d="M 16 3 C 15.035156 3 14.164063 3.167969 13.4375 3.53125 C 12.710938 3.894531 12 4.546875 12 5.5 C 12 6.453125 12.710938 7.105469 13.4375 7.46875 C 14.164063 7.832031 15.035156 8 16 8 C 16.964844 8 17.835938 7.832031 18.5625 7.46875 C 19.289063 7.105469 20 6.453125 20 5.5 C 20 4.546875 19.289063 3.894531 18.5625 3.53125 C 17.835938 3.167969 16.964844 3 16 3 Z M 7 5 C 5.851563 5 4.871094 5.566406 4.28125 6.3125 C 3.691406 7.058594 3.398438 7.941406 3.21875 8.78125 C 2.867188 10.429688 2.996094 11.941406 3 12 C 3 12.023438 3 12.039063 3 12.0625 C 3.011719 15.394531 3.824219 17.566406 4.5625 19.84375 C 5.304688 22.136719 6 24.609375 6 29 L 8 29 C 8 24.390625 7.195313 21.566406 6.4375 19.21875 C 5.679688 16.871094 5 15.0625 5 12 L 5 11.9375 C 5 11.9375 4.90625 10.539063 5.1875 9.21875 C 5.328125 8.558594 5.578125 7.941406 5.875 7.5625 C 6.171875 7.183594 6.433594 7 7 7 C 8.332031 7 9.320313 7.757813 10.03125 8.625 C 10.445313 9.128906 10.679688 9.566406 10.84375 9.90625 L 7.15625 15.4375 L 6.8125 15.96875 L 7.15625 16.5 L 10.28125 21.71875 C 10.160156 22.101563 10.035156 22.492188 10 22.90625 C 9.828125 24.917969 10.6875 28.035156 10.96875 29 L 13 29 C 12.6875 27.992188 11.859375 24.730469 12 23.09375 C 12.011719 22.945313 12.0625 22.800781 12.09375 22.65625 L 16 25 L 19.90625 22.65625 C 19.9375 22.800781 19.988281 22.945313 20 23.09375 C 20.140625 24.730469 19.3125 27.992188 19 29 L 21.03125 29 C 21.3125 28.035156 22.171875 24.917969 22 22.90625 C 21.964844 22.492188 21.839844 22.101563 21.71875 21.71875 L 24.84375 16.5 L 25.1875 15.96875 L 24.84375 15.4375 L 21.15625 9.90625 C 21.320313 9.566406 21.554688 9.128906 21.96875 8.625 C 22.679688 7.757813 23.667969 7 25 7 C 25.566406 7 25.828125 7.183594 26.125 7.5625 C 26.421875 7.941406 26.671875 8.558594 26.8125 9.21875 C 27.09375 10.539063 27 11.9375 27 11.9375 L 27 12 C 27 15.0625 26.320313 16.871094 25.5625 19.21875 C 24.804688 21.566406 24 24.390625 24 29 L 26 29 C 26 24.609375 26.695313 22.136719 27.4375 19.84375 C 28.175781 17.566406 28.988281 15.394531 29 12.0625 C 29 12.050781 29 12.042969 29 12.03125 C 29 12.03125 29 12 29 12 C 29.003906 11.941406 29.132813 10.429688 28.78125 8.78125 C 28.601563 7.941406 28.308594 7.058594 27.71875 6.3125 C 27.128906 5.566406 26.148438 5 25 5 C 22.894531 5 21.367188 6.242188 20.4375 7.375 C 19.765625 8.195313 19.617188 8.609375 19.4375 9 L 18 9 L 18 11 L 19.4375 11 L 22.8125 16.0625 L 20.65625 19.625 C 20.402344 19.257813 20.183594 18.941406 20 18.71875 L 20 12 L 16 16 L 18.875 16 L 17.90625 19.34375 L 18.28125 19.71875 C 18.292969 19.730469 19.269531 20.710938 19.75 22 L 12.25 22 C 12.730469 20.710938 13.707031 19.730469 13.71875 19.71875 L 14.09375 19.34375 L 13.125 16 L 16 16 L 12 12 L 12 18.71875 C 11.816406 18.941406 11.597656 19.257813 11.34375 19.625 L 9.1875 16.0625 L 12.5625 11 L 14 11 L 14 9 L 12.5625 9 C 12.382813 8.609375 12.234375 8.195313 11.5625 7.375 C 10.632813 6.242188 9.105469 5 7 5 Z M 16 5 C 16.691406 5 17.328125 5.164063 17.6875 5.34375 C 17.84375 5.421875 17.898438 5.464844 17.9375 5.5 C 17.898438 5.535156 17.84375 5.578125 17.6875 5.65625 C 17.328125 5.835938 16.691406 6 16 6 C 15.308594 6 14.671875 5.835938 14.3125 5.65625 C 14.15625 5.578125 14.101563 5.535156 14.0625 5.5 C 14.101563 5.464844 14.15625 5.421875 14.3125 5.34375 C 14.671875 5.164063 15.308594 5 16 5 Z "></path>
</g>
</svg>
