<?xml version="1.0" encoding="UTF-8"?>
<svg xmlns="http://www.w3.org/2000/svg" xmlns:xlink="http://www.w3.org/1999/xlink" viewBox="0 0 32 32" version="1.1">
<g>
<path d="M 0 8 L 0 24 L 2 24 L 2 25 L 6 25 L 6 24 L 26 24 L 26 25 L 30 25 L 30 24 L 32 24 L 32 8 Z M 2 10 L 30 10 L 30 22 L 2 22 Z M 23 11 C 20.25 11 18 13.25 18 16 C 18 18.75 20.25 21 23 21 C 25.75 21 28 18.75 28 16 C 28 13.25 25.75 11 23 11 Z M 4 13 L 4 15 L 6 15 L 6 13 Z M 8 13 L 8 15 L 10 15 L 10 13 Z M 12 13 L 12 15 L 14 15 L 14 13 Z M 23 13 C 24.667969 13 26 14.332031 26 16 C 26 17.667969 24.667969 19 23 19 C 21.332031 19 20 17.667969 20 16 C 20 14.332031 21.332031 13 23 13 Z M 4 17 L 4 19 L 6 19 L 6 17 Z M 8 17 L 8 19 L 10 19 L 10 17 Z M 12 17 L 12 19 L 14 19 L 14 17 Z "></path>
</g>
</svg>
