<?xml version="1.0" encoding="UTF-8"?>
<svg xmlns="http://www.w3.org/2000/svg" xmlns:xlink="http://www.w3.org/1999/xlink" viewBox="0 0 32 32" version="1.1">
<g>
<path d="M 3 3 L 3 25 L 7.25 25 L 7.25 24.46875 C 7.421875 23.9375 7.675781 23.4375 8 23 L 5 23 L 5 21 L 7 21 L 7 19 L 5 19 L 5 9 L 7 9 L 7 7 L 5 7 L 5 5 L 27 5 L 27 7 L 25 7 L 25 9 L 27 9 L 27 19 L 25 19 L 25 21 L 27 21 L 27 23 L 24 23 C 24.324219 23.4375 24.578125 23.9375 24.75 24.46875 L 24.75 25 L 29 25 L 29 3 Z M 9 7 L 9 9 L 11 9 L 11 7 Z M 13 7 L 13 9 L 15 9 L 15 7 Z M 17 7 L 17 9 L 19 9 L 19 7 Z M 21 7 L 21 9 L 23 9 L 23 7 Z M 10 13 L 10 16 L 14.59375 21 L 12.6875 23 L 12 23 C 10.300781 23 9 24.300781 9 26 C 9 27.699219 10.300781 29 12 29 C 13.699219 29 15 27.699219 15 26 C 15 25.300781 14.804688 24.710938 14.40625 24.3125 L 16 22.59375 L 17.5 24.3125 C 17.199219 24.8125 17 25.398438 17 26 C 17 27.699219 18.300781 29 20 29 C 21.699219 29 23 27.699219 23 26 C 23 24.300781 21.699219 23 20 23 C 19.699219 23 19.511719 22.992188 19.3125 23.09375 L 17.40625 21 L 22 16 L 22 13 L 16 19.5 Z M 9 19 L 9 21 L 11 21 L 11 19 Z M 21 19 L 21 21 L 23 21 L 23 19 Z M 12 25 C 12.601563 25 13 25.398438 13 26 C 13 26.601563 12.601563 27 12 27 C 11.398438 27 11 26.601563 11 26 C 11 25.398438 11.398438 25 12 25 Z M 20 25 C 20.601563 25 21 25.398438 21 26 C 21 26.601563 20.601563 27 20 27 C 19.398438 27 19 26.601563 19 26 C 19 25.398438 19.398438 25 20 25 Z "></path>
</g>
</svg>
