<?xml version="1.0" encoding="UTF-8"?>
<svg xmlns="http://www.w3.org/2000/svg" xmlns:xlink="http://www.w3.org/1999/xlink" viewBox="0 0 32 32" version="1.1">
<g>
<path d="M 3 5 L 3 23 L 8 23 L 8 28.09375 L 9.625 26.78125 L 14.34375 23 L 29 23 L 29 5 Z M 5 7 L 27 7 L 27 21 L 13.65625 21 L 13.375 21.21875 L 10 23.90625 L 10 21 L 5 21 Z M 10 11 L 10 17 L 18 17 L 18 15.1875 L 20.375 16.8125 L 20.625 17 L 22 17 L 22 11 L 20.625 11 L 20.375 11.1875 L 18 12.8125 L 18 11 Z M 12 13 L 16 13 L 16 15 L 12 15 Z M 20 13.84375 L 20 14.15625 L 19.75 14 Z "></path>
</g>
</svg>
