<?xml version="1.0" encoding="UTF-8"?>
<svg xmlns="http://www.w3.org/2000/svg" xmlns:xlink="http://www.w3.org/1999/xlink" viewBox="0 0 32 32" version="1.1">
<g>
<path d="M 24.410156 4.101563 C 24.15625 4.191406 22.152344 5.507813 20.222656 7.890625 C 17.835938 10.835938 17.050781 14.4375 15.746094 15.746094 C 14.4375 17.050781 10.835938 17.835938 7.890625 20.222656 C 5.507813 22.152344 4.191406 24.15625 4.101563 24.410156 C 4.007813 24.660156 3.839844 25.019531 4.371094 25.550781 C 5.398438 26.578125 13.136719 29.828125 16.34375 26.617188 C 20.039063 22.925781 15.429688 18.707031 17.070313 17.066406 C 18.707031 15.429688 22.925781 20.035156 26.617188 16.34375 C 29.828125 13.136719 26.578125 5.394531 25.554688 4.371094 C 25.019531 3.839844 24.660156 4.007813 24.410156 4.101563 Z M 15.292969 25.515625 C 13.386719 27.421875 9.886719 25.632813 8.945313 24.695313 C 8.40625 24.15625 7.234375 22.625 9.152344 21.054688 C 11.066406 19.484375 13.496094 18.578125 14.921875 20.003906 C 15.582031 20.660156 17.195313 23.609375 15.292969 25.515625 Z M 25.515625 15.292969 C 23.609375 17.195313 20.660156 15.582031 20.003906 14.921875 C 18.574219 13.496094 19.484375 11.066406 21.054688 9.152344 C 22.625 7.234375 24.152344 8.40625 24.691406 8.945313 C 25.632813 9.882813 27.421875 13.386719 25.515625 15.292969 Z "></path>
</g>
</svg>
