<?xml version="1.0" encoding="UTF-8"?>
<svg xmlns="http://www.w3.org/2000/svg" xmlns:xlink="http://www.w3.org/1999/xlink" viewBox="0 0 32 32" version="1.1">
<g>
<path d="M 27.90625 3.0625 C 27.90625 3.0625 26.222656 3.710938 25.84375 4.09375 C 25.527344 4.410156 25.402344 4.835938 25.4375 5.25 L 24.59375 4.4375 L 23.53125 5.5 L 24.40625 6.40625 L 23.6875 7.09375 L 22.8125 6.21875 L 21.75 7.28125 L 22.5625 8.09375 L 20.75 9.78125 L 20.46875 9.5 C 19.472656 8.503906 18.15625 8 16.84375 8 C 15.53125 8 14.246094 8.503906 13.25 9.5 L 11.75 10.96875 L 11.21875 11.5 L 11.59375 12.15625 C 11.992188 12.902344 11.96875 13.625 11.15625 14.4375 C 10.640625 14.953125 10.15625 15.109375 9.6875 15.09375 C 9.21875 15.078125 8.71875 14.875 8.28125 14.4375 L 7.59375 13.71875 L 4.8125 16.5 C 2.421875 18.890625 2.421875 22.796875 4.8125 25.1875 L 6.8125 27.1875 C 9.203125 29.578125 13.109375 29.578125 15.5 27.1875 L 18.28125 24.40625 L 17.5625 23.71875 C 17.125 23.28125 16.921875 22.78125 16.90625 22.3125 C 16.890625 21.84375 17.046875 21.359375 17.5625 20.84375 C 18.375 20.03125 19.097656 20.007813 19.84375 20.40625 L 20.5 20.78125 L 21.03125 20.25 L 22.5 18.75 C 24.488281 16.761719 24.488281 13.519531 22.5 11.53125 L 22.21875 11.25 L 23.90625 9.4375 L 24.6875 10.21875 L 25.75 9.15625 L 24.90625 8.3125 L 25.59375 7.59375 L 26.4375 8.4375 L 27.5 7.375 L 26.6875 6.5625 C 27.121094 6.617188 27.574219 6.488281 27.90625 6.15625 C 28.285156 5.777344 28.9375 4.09375 28.9375 4.09375 Z M 16.84375 10 C 17.636719 10 18.449219 10.292969 19.0625 10.90625 L 19.28125 11.125 L 14.375 15.625 L 16.34375 17.625 L 20.875 12.71875 L 21.09375 12.9375 C 22.316406 14.160156 22.316406 16.121094 21.09375 17.34375 L 19.9375 18.5 C 18.664063 18.167969 17.253906 18.339844 16.15625 19.4375 C 15.308594 20.285156 14.875 21.339844 14.90625 22.375 C 14.925781 23.074219 15.191406 23.722656 15.5625 24.3125 L 14.0625 25.78125 C 12.4375 27.40625 9.84375 27.40625 8.21875 25.78125 L 8.15625 25.71875 L 11.84375 21.3125 L 10.6875 20.15625 L 6.28125 23.84375 L 6.21875 23.78125 C 4.59375 22.15625 4.59375 19.5625 6.21875 17.9375 L 6.28125 17.875 L 7.6875 16.4375 C 8.277344 16.808594 8.925781 17.074219 9.625 17.09375 C 10.660156 17.125 11.714844 16.691406 12.5625 15.84375 C 13.660156 14.746094 13.832031 13.335938 13.5 12.0625 L 14.65625 10.90625 C 15.269531 10.292969 16.050781 10 16.84375 10 Z "></path>
</g>
</svg>
