<?xml version="1.0" encoding="UTF-8"?>
<svg xmlns="http://www.w3.org/2000/svg" xmlns:xlink="http://www.w3.org/1999/xlink" viewBox="0 0 32 32" version="1.1">
<g>
<path d="M 2 9 L 2 9.53125 L 2.03125 9.6875 L 6.03125 23.28125 L 6.25 24 L 8.75 24 L 8.96875 23.28125 L 12.96875 9.6875 L 13 9.53125 L 13 9 L 11 9 L 11 9.21875 L 7.5 21.125 L 4 9.21875 L 4 9 Z M 15 9 L 15 24 L 17 24 L 17 9 Z M 20 9 L 20 24 L 22 24 L 22 18 L 25.5 18 C 27.960938 18 30 15.960938 30 13.5 C 30 11.039063 27.960938 9 25.5 9 Z M 22 11 L 25.5 11 C 26.839844 11 28 12.160156 28 13.5 C 28 14.839844 26.839844 16 25.5 16 L 22 16 Z "></path>
</g>
</svg>
