<?xml version="1.0" encoding="UTF-8"?>
<svg xmlns="http://www.w3.org/2000/svg" xmlns:xlink="http://www.w3.org/1999/xlink" viewBox="0 0 32 32" version="1.1">
<g>
<path d="M 10.65625 3 C 9.828125 3 9.4375 3.4375 8.96875 3.875 C 8.5 4.3125 8.050781 4.855469 7.625 5.46875 C 7.496094 5.652344 7.371094 5.839844 7.25 6.03125 C 7.066406 5.578125 6.863281 5.15625 6.65625 4.8125 C 5.976563 3.671875 5.21875 3.0625 5.21875 3.0625 L 3.96875 4.625 C 3.96875 4.625 4.417969 4.972656 4.9375 5.84375 C 5.457031 6.714844 6 8.054688 6 10 L 6 23 L 8 23 L 8 10 C 8 9.816406 7.976563 9.644531 7.96875 9.46875 L 8 9.46875 C 8 9 8.535156 7.628906 9.25 6.59375 C 9.609375 6.074219 9.992188 5.609375 10.3125 5.3125 C 10.429688 5.203125 10.539063 5.140625 10.625 5.09375 C 10.703125 5.140625 10.804688 5.203125 10.90625 5.3125 C 11.199219 5.632813 11.550781 6.140625 11.875 6.6875 C 12.199219 7.234375 12.480469 7.855469 12.6875 8.375 C 12.894531 8.894531 13 9.359375 13 9.46875 L 13 23 L 15 23 L 15 9.46875 C 15 8.941406 15.488281 7.59375 16.125 6.5625 C 16.445313 6.046875 16.777344 5.570313 17.0625 5.28125 C 17.152344 5.1875 17.238281 5.136719 17.3125 5.09375 C 17.402344 5.144531 17.523438 5.210938 17.65625 5.34375 C 17.980469 5.671875 18.355469 6.199219 18.71875 6.75 C 19.082031 7.300781 19.425781 7.886719 19.65625 8.40625 C 19.886719 8.925781 20 9.398438 20 9.46875 L 20 19.71875 C 20 21.589844 20.855469 23.265625 21.9375 24.65625 C 20.808594 25.472656 19.261719 26 17 26 L 17 28 C 19.6875 28 21.761719 27.257813 23.28125 26.125 C 23.359375 26.203125 23.421875 26.300781 23.5 26.375 C 25.183594 28.019531 26.84375 29.0625 26.84375 29.0625 L 27.90625 27.375 C 27.90625 27.375 26.382813 26.445313 24.875 24.96875 C 24.816406 24.914063 24.773438 24.839844 24.71875 24.78125 C 24.890625 24.574219 25.039063 24.34375 25.1875 24.125 C 26.652344 21.929688 27 19.335938 27 17.34375 C 27 15.445313 26.53125 13.917969 25.875 12.84375 C 25.21875 11.769531 24.445313 11 23.3125 11 C 22.660156 11 22.296875 11.304688 22 11.65625 L 22 9.46875 C 22 8.804688 21.789063 8.238281 21.5 7.59375 C 21.210938 6.949219 20.824219 6.257813 20.40625 5.625 C 19.988281 4.992188 19.523438 4.40625 19.0625 3.9375 C 18.601563 3.46875 18.234375 3 17.34375 3 C 16.515625 3 16.097656 3.429688 15.65625 3.875 C 15.214844 4.320313 14.789063 4.882813 14.40625 5.5 C 14.242188 5.769531 14.085938 6.03125 13.9375 6.3125 C 13.824219 6.105469 13.714844 5.890625 13.59375 5.6875 C 13.21875 5.050781 12.808594 4.445313 12.375 3.96875 C 11.941406 3.492188 11.546875 3 10.65625 3 Z M 23.40625 13.09375 C 23.367188 13.128906 23.761719 13.257813 24.15625 13.90625 C 24.597656 14.628906 25 15.777344 25 17.34375 C 25 19.085938 24.632813 21.332031 23.5 23.03125 C 23.460938 23.09375 23.417969 23.160156 23.375 23.21875 C 22.570313 22.09375 22 20.863281 22 19.71875 L 22 17 C 22 16.402344 22.300781 15.207031 22.71875 14.28125 C 22.925781 13.820313 23.160156 13.390625 23.34375 13.15625 C 23.375 13.113281 23.378906 13.117188 23.40625 13.09375 Z "></path>
</g>
</svg>
