<?xml version="1.0"?>
<svg xmlns="http://www.w3.org/2000/svg" viewBox="0 0 32 32">
    <path d="M 4 4 L 4 24 L 12 24 L 12 22 L 10 22 L 10 21 L 8 21 L 8 22 L 6 22 L 6 6 L 8 6 L 8 7 L 10 7 L 10 6 L 22 6 L 22 7 L 24 7 L 24 6 L 26 6 L 26 20.757812 L 28 22.757812 L 28 4 L 4 4 z M 8 9 L 8 11 L 10 11 L 10 9 L 8 9 z M 22 9 L 22 11 L 24 11 L 24 9 L 22 9 z M 18 11.085938 L 16.085938 13 L 14 13 L 14 15.085938 L 12.085938 17 L 14 18.914062 L 14 21 L 16.085938 21 L 18 22.914062 L 19.914062 21 L 20.585938 21 L 26.542969 26.957031 L 27.957031 25.542969 L 22 19.585938 L 22 18.914062 L 23.914062 17 L 22 15.085938 L 22 13 L 19.914062 13 L 18 11.085938 z M 8 13 L 8 15 L 10 15 L 10 13 L 8 13 z M 18 13.914062 L 19.085938 15 L 20 15 L 20 15.914062 L 21.085938 17 L 20 18.085938 L 20 18.5 L 20 19 L 19.085938 19 L 18 20.085938 L 16.914062 19 L 16 19 L 16 18.085938 L 14.914062 17 L 16 15.914062 L 16 15 L 16.914062 15 L 18 13.914062 z M 8 17 L 8 19 L 10 19 L 10 17 L 8 17 z M 18 24 L 18 25 L 17 25 L 17 27 L 18 27 L 18 28 L 20 28 L 20 27 L 21 27 L 21 25 L 20 25 L 20 24 L 18 24 z M 12 26 L 12 27 L 11 27 L 11 29 L 12 29 L 12 30 L 14 30 L 14 29 L 15 29 L 15 27 L 14 27 L 14 26 L 12 26 z"></path>
</svg>
