<?xml version="1.0" encoding="UTF-8"?>
<svg xmlns="http://www.w3.org/2000/svg" xmlns:xlink="http://www.w3.org/1999/xlink" viewBox="0 0 32 32" version="1.1">
<g>
<path d="M 15.21875 3 L 15 3.6875 L 10.1875 19 L 7.25 19 L 5.03125 26.71875 L 5 29 L 27 29 L 27 27 L 24.75 19 L 21.8125 19 L 16.96875 3.6875 L 16.75 3 Z M 14.90625 10.78125 C 15.238281 10.910156 15.621094 11 16 11 C 16.378906 11 16.761719 10.910156 17.09375 10.78125 L 18.25 14.46875 C 17.695313 14.757813 16.972656 15 16 15 C 15.03125 15 14.304688 14.761719 13.75 14.46875 Z M 12.25 19.21875 C 13.007813 19.558594 14.253906 20 16 20 C 17.746094 20 18.992188 19.558594 19.75 19.21875 L 20.84375 22.65625 C 20.726563 22.773438 20.726563 22.851563 20.21875 23.125 C 19.433594 23.546875 18.121094 24 16 24 C 13.878906 24 12.566406 23.546875 11.78125 23.125 C 11.273438 22.851563 11.273438 22.773438 11.15625 22.65625 Z "></path>
</g>
</svg>
