<?xml version="1.0" encoding="UTF-8"?>
<svg xmlns="http://www.w3.org/2000/svg" xmlns:xlink="http://www.w3.org/1999/xlink" viewBox="0 0 32 32" version="1.1">
<g>
<path d="M 14.5 10 C 12.234375 10 10.714844 11.765625 10.199219 12.757813 L 7.515625 18.445313 L 3.8125 10.769531 C 3.40625 10.046875 2.492188 9.789063 1.773438 10.1875 C 1.046875 10.589844 0.785156 11.503906 1.1875 12.230469 L 6.1875 22.230469 C 6.453125 22.703125 6.949219 22.996094 7.492188 23 C 8.015625 23.003906 8.53125 22.714844 8.804688 22.246094 L 12.828125 14.191406 C 12.835938 14.179688 13.496094 13 14.5 13 C 15.714844 13 15.964844 13.992188 16 14.5 L 16 21.5 C 16 21.808594 16.09375 22.097656 16.253906 22.339844 C 16.308594 22.417969 16.371094 22.492188 16.4375 22.5625 C 16.644531 22.765625 16.90625 22.910156 17.199219 22.96875 C 17.292969 22.988281 17.398438 23 17.5 23 C 17.601563 23 17.707031 22.988281 17.800781 22.96875 C 18.191406 22.890625 18.527344 22.65625 18.746094 22.339844 C 18.796875 22.257813 18.84375 22.171875 18.882813 22.082031 C 18.957031 21.90625 19 21.707031 19 21.5 L 19 14.5 C 19 13.671875 19.671875 13 20.5 13 C 21.328125 13 22 13.671875 22 14.5 L 22 21.5 C 22 22.328125 22.671875 23 23.5 23 C 23.601563 23 23.707031 22.988281 23.800781 22.96875 C 24.191406 22.890625 24.527344 22.65625 24.746094 22.339844 C 24.796875 22.257813 24.84375 22.171875 24.882813 22.082031 C 24.957031 21.90625 25 21.707031 25 21.5 L 25 14.5 C 25 13.671875 25.671875 13 26.5 13 C 27.328125 13 28 13.671875 28 14.5 L 28 21.5 C 28 22.328125 28.671875 23 29.5 23 C 30.328125 23 31 22.328125 31 21.5 L 31 14.5 C 31 12.019531 28.980469 10 26.5 10 C 25.34375 10 24.296875 10.453125 23.5 11.171875 C 22.703125 10.453125 21.65625 10 20.5 10 C 19.347656 10 18.308594 10.445313 17.515625 11.160156 C 16.804688 10.484375 15.828125 10 14.5 10 Z "></path>
</g>
</svg>
