<?xml version="1.0" encoding="UTF-8"?>
<svg xmlns="http://www.w3.org/2000/svg" xmlns:xlink="http://www.w3.org/1999/xlink" viewBox="0 0 32 32" version="1.1">
<g>
<path d="M 3 3 L 3 5 C 6.808594 5 8.835938 6.582031 10.0625 8.1875 C 11.289063 9.792969 11.59375 11.375 11.59375 11.375 L 11.625 11.5 L 11.6875 11.625 C 11.6875 11.625 14.042969 16.378906 14.375 17.03125 C 14.445313 17.167969 14.445313 17.28125 14.4375 17.3125 C 14.429688 17.34375 14.484375 17.320313 14.40625 17.34375 C 13.839844 17.503906 12.75 17.78125 12.75 17.78125 L 12 17.96875 L 12 21 C 12 21.65625 11.625 22.433594 11.03125 23.03125 C 10.4375 23.628906 9.664063 24 9 24 L 7 24 L 7 29 L 9 29 L 9 26 C 10.335938 26 11.5625 25.347656 12.46875 24.4375 C 13.375 23.527344 14 22.328125 14 21 L 14 19.5 C 14.371094 19.402344 14.625 19.347656 14.96875 19.25 C 15.652344 19.054688 16.195313 18.480469 16.375 17.875 C 16.554688 17.269531 16.4375 16.640625 16.15625 16.09375 C 15.867188 15.527344 13.5 10.71875 13.5 10.71875 L 13.46875 10.71875 C 13.382813 10.34375 13.007813 8.734375 11.65625 6.96875 C 10.136719 4.984375 7.390625 3 3 3 Z M 24.875 11.4375 L 24.03125 14.75 L 21.84375 23.4375 L 20.9375 20.6875 L 20.71875 20 L 18 20 L 18 22 L 19.28125 22 L 21.0625 27.3125 L 22.125 30.5625 L 22.96875 27.25 L 25.15625 18.5625 L 26.0625 21.3125 L 26.28125 22 L 29 22 L 29 20 L 27.71875 20 L 25.9375 14.6875 Z M 9 13 C 8.449219 13 8 13.449219 8 14 C 8 14.550781 8.449219 15 9 15 C 9.550781 15 10 14.550781 10 14 C 10 13.449219 9.550781 13 9 13 Z "></path>
</g>
</svg>
