<?xml version="1.0" encoding="UTF-8"?>
<svg xmlns="http://www.w3.org/2000/svg" xmlns:xlink="http://www.w3.org/1999/xlink" viewBox="0 0 32 32" version="1.1">
<g>
<path d="M 27.40625 4.8125 L 25.6875 5.90625 C 26.488281 7.804688 27 9.800781 27 12 C 27 14.199219 26.488281 16.195313 25.6875 18.09375 L 27.40625 19.1875 C 28.40625 16.988281 29 14.601563 29 12 C 29 9.398438 28.40625 7.011719 27.40625 4.8125 Z M 11 6.5 C 7.699219 6.5 5 9.199219 5 12.5 C 5 14.484375 5.976563 16.25 7.46875 17.34375 C 4.824219 18.648438 3 21.34375 3 24.5 L 5 24.5 C 5 21.128906 7.628906 18.5 11 18.5 C 14.371094 18.5 17 21.128906 17 24.5 L 19 24.5 C 19 21.34375 17.175781 18.648438 14.53125 17.34375 C 16.023438 16.25 17 14.484375 17 12.5 C 17 9.199219 14.300781 6.5 11 6.5 Z M 24 7 L 22.3125 8.09375 C 22.710938 9.292969 23 10.601563 23 12 C 23 13.398438 22.710938 14.707031 22.3125 15.90625 L 24 17 C 24.601563 15.5 25 13.800781 25 12 C 25 10.199219 24.601563 8.5 24 7 Z M 11 8.5 C 13.222656 8.5 15 10.277344 15 12.5 C 15 14.722656 13.222656 16.5 11 16.5 C 8.777344 16.5 7 14.722656 7 12.5 C 7 10.277344 8.777344 8.5 11 8.5 Z M 20.59375 9.3125 L 18.8125 10.5 C 18.914063 11 19 11.5 19 12 C 19 12.5 18.914063 13 18.8125 13.5 L 20.59375 14.6875 C 20.894531 13.789063 21 12.898438 21 12 C 21 11.101563 20.894531 10.113281 20.59375 9.3125 Z "></path>
</g>
</svg>
