<?xml version="1.0" encoding="UTF-8"?>
<svg xmlns="http://www.w3.org/2000/svg" xmlns:xlink="http://www.w3.org/1999/xlink" viewBox="0 0 32 32" version="1.1">
<g>
<path d="M 6.21875 6 L 3 18.875 L 3 26 L 29 26 L 29 18.875 L 25.78125 6 Z M 7.78125 8 L 24.21875 8 L 26.71875 18 L 5.28125 18 Z M 16 11 C 14.113281 11 12.511719 11.335938 11.4375 11.65625 C 10.585938 11.910156 10 12.703125 10 13.59375 L 10 15 C 10 15.277344 10.222656 15.5 10.5 15.5 L 12.5 15.5 C 12.777344 15.5 13 15.277344 13 15 L 13 13.34375 C 13 13.34375 13.988281 12.78125 16 12.78125 C 18.011719 12.78125 19 13.34375 19 13.34375 L 19 15 C 19 15.277344 19.222656 15.5 19.5 15.5 L 21.5 15.5 C 21.777344 15.5 22 15.277344 22 15 L 22 13.59375 C 22 12.703125 21.414063 11.910156 20.5625 11.65625 C 19.488281 11.335938 17.886719 11 16 11 Z M 5 20 L 27 20 L 27 24 L 5 24 Z M 8 21 C 7.449219 21 7 21.449219 7 22 C 7 22.550781 7.449219 23 8 23 C 8.550781 23 9 22.550781 9 22 C 9 21.449219 8.550781 21 8 21 Z M 11 21 C 10.449219 21 10 21.449219 10 22 C 10 22.550781 10.449219 23 11 23 C 11.550781 23 12 22.550781 12 22 C 12 21.449219 11.550781 21 11 21 Z M 14 21 C 13.449219 21 13 21.449219 13 22 C 13 22.550781 13.449219 23 14 23 C 14.550781 23 15 22.550781 15 22 C 15 21.449219 14.550781 21 14 21 Z M 24 21 C 23.449219 21 23 21.449219 23 22 C 23 22.550781 23.449219 23 24 23 C 24.550781 23 25 22.550781 25 22 C 25 21.449219 24.550781 21 24 21 Z "></path>
</g>
</svg>
