<?xml version="1.0" encoding="UTF-8"?>
<svg xmlns="http://www.w3.org/2000/svg" xmlns:xlink="http://www.w3.org/1999/xlink" viewBox="0 0 32 32" version="1.1">
<g>
<path d="M 17 2 C 15.617188 2 14.46875 2.96875 14.125 4.25 C 13.773438 4.105469 13.402344 4 13 4 C 11.355469 4 10 5.355469 10 7 L 10 17.75 L 9.125 16.875 C 7.960938 15.710938 6.039063 15.710938 4.875 16.875 C 3.710938 18.039063 3.710938 19.960938 4.875 21.125 L 11.65625 27.90625 C 12.832031 29.078125 14.457031 30 16.375 30 L 21 30 C 24.855469 30 28 26.855469 28 23 L 28 11 C 28 9.355469 26.644531 8 25 8 C 24.648438 8 24.316406 8.074219 24 8.1875 L 24 7 C 24 5.355469 22.644531 4 21 4 C 20.597656 4 20.226563 4.105469 19.875 4.25 C 19.53125 2.96875 18.382813 2 17 2 Z M 17 4 C 17.566406 4 18 4.433594 18 5 L 18 15 L 20 15 L 20 7 C 20 6.433594 20.433594 6 21 6 C 21.566406 6 22 6.433594 22 7 L 22 15 L 24 15 L 24 11 C 24 10.433594 24.433594 10 25 10 C 25.566406 10 26 10.433594 26 11 L 26 23 C 26 25.773438 23.773438 28 21 28 L 16.375 28 C 15.101563 28 14.007813 27.378906 13.09375 26.46875 L 6.28125 19.71875 C 5.882813 19.320313 5.882813 18.679688 6.28125 18.28125 L 6.34375 18.25 C 6.742188 17.902344 7.335938 17.898438 7.71875 18.28125 L 10.28125 20.875 L 12 22.59375 L 12 7 C 12 6.433594 12.433594 6 13 6 C 13.566406 6 14 6.433594 14 7 L 14 15 L 16 15 L 16 5 C 16 4.433594 16.433594 4 17 4 Z M 17 18 C 15.894531 18 15 18.894531 15 20 C 15 21.945313 19 25 19 25 C 19 25 23 22.171875 23 20 C 23 18.894531 22.105469 18 21 18 C 19.894531 18 19 18.894531 19 20 C 19 18.894531 18.105469 18 17 18 Z "></path>
</g>
</svg>
