<?xml version="1.0" encoding="UTF-8"?>
<svg xmlns="http://www.w3.org/2000/svg" xmlns:xlink="http://www.w3.org/1999/xlink" viewBox="0 0 32 32" version="1.1">
<g>
<path d="M 5 5 L 5 6.34375 L 5.09375 6.5625 L 8 12.28125 L 8 24 C 8 25.644531 9.355469 27 11 27 L 20 27 C 21.644531 27 23 25.644531 23 24 L 23 7 L 24 7 C 24.566406 7 25 7.433594 25 8 L 25 16 L 27 16 L 27 8 C 27 6.355469 25.644531 5 24 5 Z M 7.59375 7 L 21 7 L 21 9 L 17 9 L 17 11 L 21 11 L 21 13 L 19 13 L 19 15 L 21 15 L 21 17 L 17 17 L 17 19 L 21 19 L 21 21 L 19 21 L 19 23 L 21 23 L 21 24 C 21 24.566406 20.566406 25 20 25 L 11 25 C 10.433594 25 10 24.566406 10 24 L 10 11.75 L 9.90625 11.53125 Z "></path>
</g>
</svg>
