<?xml version="1.0" encoding="UTF-8"?>
<svg xmlns="http://www.w3.org/2000/svg" xmlns:xlink="http://www.w3.org/1999/xlink" viewBox="0 0 32 32" version="1.1">
<g>
<path d="M 9 4 C 7.355469 4 6 5.355469 6 7 C 6 8.644531 7.355469 10 9 10 C 10.644531 10 12 8.644531 12 7 C 12 5.355469 10.644531 4 9 4 Z M 22 4 C 19.25 4 17 6.25 17 9 C 17 11.75 19.25 14 22 14 C 24.75 14 27 11.75 27 9 C 27 6.25 24.75 4 22 4 Z M 9 6 C 9.5625 6 10 6.4375 10 7 C 10 7.5625 9.5625 8 9 8 C 8.4375 8 8 7.5625 8 7 C 8 6.4375 8.4375 6 9 6 Z M 22 6 C 23.667969 6 25 7.332031 25 9 C 25 10.667969 23.667969 12 22 12 C 20.332031 12 19 10.667969 19 9 C 19 7.332031 20.332031 6 22 6 Z M 21 7 L 21 9.40625 L 21.28125 9.71875 L 22.5625 10.96875 L 23.96875 9.5625 L 23 8.5625 L 23 7 Z M 6.96875 10.78125 L 5.03125 11.21875 L 7.03125 20.21875 C 7.03125 20.21875 7.3125 21.421875 8.1875 22.59375 C 9.0625 23.765625 10.648438 25 13 25 L 17 25 L 17 23 L 13 23 C 11.308594 23 10.398438 22.234375 9.78125 21.40625 C 9.164063 20.578125 8.96875 19.78125 8.96875 19.78125 Z M 10.96875 10.78125 L 9.03125 11.21875 L 10.59375 18.3125 C 10.941406 19.871094 12.339844 21 13.9375 21 L 16.96875 21 C 17.660156 21 18.25 21.476563 18.375 22.15625 L 19 28.09375 L 21 27.90625 L 20.34375 21.875 L 20.34375 21.8125 C 20.050781 20.191406 18.617188 19 16.96875 19 L 13.9375 19 C 13.265625 19 12.707031 18.53125 12.5625 17.875 Z "></path>
</g>
</svg>
