<?xml version="1.0" encoding="UTF-8"?>
<svg xmlns="http://www.w3.org/2000/svg" xmlns:xlink="http://www.w3.org/1999/xlink" viewBox="0 0 32 32" version="1.1">
<g>
<path d="M 14 3 C 12.355469 3 11 4.355469 11 6 C 11 7.644531 12.355469 9 14 9 C 15.644531 9 17 7.644531 17 6 C 17 4.355469 15.644531 3 14 3 Z M 14 5 C 14.5625 5 15 5.4375 15 6 C 15 6.5625 14.5625 7 14 7 C 13.4375 7 13 6.5625 13 6 C 13 5.4375 13.4375 5 14 5 Z M 10.53125 9 C 10.292969 9.007813 10.070313 9.066406 9.84375 9.15625 L 7.78125 9.96875 C 7.28125 10.164063 6.898438 10.539063 6.6875 11.03125 L 5.40625 14.03125 L 7.21875 14.8125 L 8.53125 11.8125 L 10.59375 11.03125 L 10.84375 11.125 L 9.4375 14.625 C 9.042969 15.628906 9.535156 16.804688 10.53125 17.21875 L 14 18.65625 L 14 23 L 16 23 L 16 18.65625 C 16 17.851563 15.523438 17.121094 14.78125 16.8125 L 11.3125 15.375 L 12.71875 11.78125 L 12.96875 11.875 L 13.9375 13.65625 C 14.378906 14.472656 15.324219 14.875 16.21875 14.625 L 18.9375 13.875 L 18.40625 11.9375 L 15.6875 12.71875 L 14.71875 10.9375 C 14.484375 10.503906 14.089844 10.167969 13.625 10 L 11.25 9.125 C 11.023438 9.042969 10.769531 8.992188 10.53125 9 Z M 23 15 L 23 18 L 20 18 L 20 21 L 17 21 L 17 24 L 14 24 L 14 28 L 16 28 L 16 26 L 19 26 L 19 23 L 22 23 L 22 20 L 25 20 L 25 17 L 27 17 L 27 15 Z M 9 18.0625 L 8.15625 19.96875 L 5.03125 22.34375 L 6.21875 23.9375 L 9.375 21.5625 C 9.636719 21.363281 9.832031 21.085938 9.96875 20.78125 L 10.84375 18.90625 Z "></path>
</g>
</svg>
