<?xml version="1.0" encoding="UTF-8"?>
<svg xmlns="http://www.w3.org/2000/svg" xmlns:xlink="http://www.w3.org/1999/xlink" viewBox="0 0 32 32" version="1.1">
<g>
<path d="M 9 3 L 9 8.09375 C 8.457031 8.367188 8 8.695313 7.65625 9.125 C 7.222656 9.667969 7 10.335938 7 11 C 7 11.871094 7.15625 14.535156 7.34375 17.625 C 7.53125 20.714844 7.742188 24.132813 7.875 26.1875 C 7.976563 27.753906 9.304688 29 10.875 29 L 21.125 29 C 22.695313 29 24.023438 27.753906 24.125 26.1875 C 24.257813 24.128906 24.46875 20.71875 24.65625 17.625 C 24.84375 14.53125 25 11.851563 25 11 C 25 10.183594 24.640625 9.421875 24 8.8125 L 24 8.03125 C 24 7.585938 23.703125 7.171875 23.28125 7.03125 L 20.375 6.0625 C 19.703125 5.839844 19 6.355469 19 7.0625 L 19 7.15625 C 18.105469 7.070313 17.136719 7 16 7 C 13.929688 7 12.3125 7.121094 11 7.40625 L 11 3 Z M 16 9 C 18.835938 9 20.757813 9.316406 21.8125 9.75 C 22.867188 10.183594 23 10.496094 23 11 C 23 11.566406 22.84375 14.410156 22.65625 17.5 C 22.46875 20.589844 22.257813 24.003906 22.125 26.0625 C 22.089844 26.597656 21.660156 27 21.125 27 L 10.875 27 C 10.339844 27 9.910156 26.597656 9.875 26.0625 C 9.742188 24.011719 9.53125 20.617188 9.34375 17.53125 C 9.15625 14.445313 9 11.59375 9 11 C 9 10.726563 9.0625 10.570313 9.21875 10.375 C 9.375 10.179688 9.660156 9.933594 10.1875 9.71875 C 11.242188 9.292969 13.15625 9 16 9 Z M 12 12 L 12 14 L 20 14 L 20 12 Z M 12 15 L 12 17 L 20 17 L 20 15 Z M 12 18 L 12 20 L 20 20 L 20 18 Z "></path>
</g>
</svg>
