<?xml version="1.0" encoding="UTF-8"?>
<svg xmlns="http://www.w3.org/2000/svg" xmlns:xlink="http://www.w3.org/1999/xlink" viewBox="0 0 32 32" version="1.1">
<g>
<path d="M 11.6875 4 C 10.109375 4 8.78125 5.238281 8.6875 6.8125 L 7.625 24.59375 C 7.273438 24.652344 7 24.945313 7 25.3125 L 7 28 L 10 28 L 10 25.3125 C 10 25.039063 9.847656 24.816406 9.625 24.6875 L 9.96875 19 L 20.03125 19 L 20.15625 21.46875 C 20.710938 21.179688 21.335938 21 22 21 C 22.046875 21 22.078125 20.996094 22.125 21 L 21.96875 18.21875 C 21.980469 18.136719 21.980469 18.050781 21.96875 17.96875 L 21.3125 6.84375 C 21.222656 5.265625 19.894531 4 18.3125 4 Z M 11.6875 6 L 18.3125 6 C 18.851563 6 19.28125 6.398438 19.3125 6.9375 L 19.46875 9.5 C 18.679688 9.648438 16.652344 10 15 10 C 13.347656 10 11.320313 9.648438 10.53125 9.5 L 10.6875 6.9375 C 10.71875 6.398438 11.148438 6 11.6875 6 Z M 10.40625 11.5 C 11.382813 11.683594 13.191406 12 15 12 C 16.808594 12 18.617188 11.683594 19.59375 11.5 L 19.90625 17 L 10.09375 17 Z M 22 22 C 20.355469 22 19 23.355469 19 25 C 19 26.644531 20.355469 28 22 28 C 23.644531 28 25 26.644531 25 25 C 25 23.355469 23.644531 22 22 22 Z M 22 24 C 22.5625 24 23 24.4375 23 25 C 23 25.5625 22.5625 26 22 26 C 21.4375 26 21 25.5625 21 25 C 21 24.4375 21.4375 24 22 24 Z "></path>
</g>
</svg>
