<?xml version="1.0" encoding="UTF-8"?>
<svg xmlns="http://www.w3.org/2000/svg" xmlns:xlink="http://www.w3.org/1999/xlink" viewBox="0 0 32 32" version="1.1">
<g>
<path d="M 5 5 L 5 27 L 27 27 L 27 5 Z M 7 7 L 25 7 L 25 25 L 7 25 Z M 16 9 C 12.144531 9 9 12.144531 9 16 C 9 19.855469 12.144531 23 16 23 C 19.855469 23 23 19.855469 23 16 C 23 12.144531 19.855469 9 16 9 Z M 16 11 C 18.773438 11 21 13.226563 21 16 C 21 18.773438 18.773438 21 16 21 C 13.226563 21 11 18.773438 11 16 C 11 13.226563 13.226563 11 16 11 Z M 14 15 C 13.449219 15 13 15.449219 13 16 C 13 16.550781 13.449219 17 14 17 C 14.550781 17 15 16.550781 15 16 C 15 15.449219 14.550781 15 14 15 Z M 18 15 C 17.449219 15 17 15.449219 17 16 C 17 16.550781 17.449219 17 18 17 C 18.550781 17 19 16.550781 19 16 C 19 15.449219 18.550781 15 18 15 Z "></path>
</g>
</svg>
