<?xml version="1.0" encoding="UTF-8"?>
<svg xmlns="http://www.w3.org/2000/svg" xmlns:xlink="http://www.w3.org/1999/xlink" viewBox="0 0 32 32" version="1.1">
<g>
<path d="M 13 3 C 11.746094 3 10.609375 3.574219 9.78125 4.4375 C 8.953125 5.300781 8.390625 6.417969 8.03125 7.71875 L 4.3125 20.96875 L 4.40625 21 C 4.179688 21.628906 4 22.296875 4 23 C 4 24.554688 4.425781 26.050781 5.4375 27.1875 C 6.449219 28.324219 8.015625 29 10 29 C 10.632813 29 11.695313 28.875 12.78125 28.34375 C 13.867188 27.8125 15 26.671875 15 25 L 15 24.9375 C 15 24.9375 14.964844 23.925781 14.28125 22.9375 C 13.597656 21.949219 12.183594 21 10 21 C 9.488281 21 9.097656 21.1875 8.71875 21.5 C 8.339844 21.8125 8 22.34375 8 23 C 8 23.46875 8.167969 23.917969 8.5 24.3125 C 8.832031 24.707031 9.382813 25 10 25 L 10 23.03125 C 9.96875 23.058594 10 23.011719 10 23 C 11.664063 23 12.269531 23.550781 12.625 24.0625 C 12.96875 24.5625 13 25.007813 13 25.03125 C 13 25.03125 13 25.0625 13 25.0625 C 12.976563 25.878906 12.5625 26.242188 11.90625 26.5625 C 11.230469 26.894531 10.3125 27 10 27 C 8.433594 27 7.507813 26.550781 6.90625 25.875 C 6.304688 25.199219 6 24.207031 6 23 C 6 20.78125 7.78125 19 10 19 C 13.382813 19 15.226563 20.972656 17.21875 23.59375 L 17.1875 23.59375 C 17.1875 23.59375 20.230469 28 25 28 L 25.875 28 L 26 27.125 L 27.875 12.125 L 28 11 L 26.875 11 C 23.007813 11 20.75 8.34375 20.75 8.34375 C 19.800781 7.082031 19.089844 5.792969 17.96875 4.75 C 16.832031 3.691406 15.238281 3 13 3 Z M 13 5 C 14.859375 5 15.761719 5.445313 16.59375 6.21875 C 17.425781 6.992188 18.160156 8.199219 19.21875 9.59375 L 19.21875 9.625 L 19.25 9.65625 C 19.25 9.65625 21.695313 12.324219 25.75 12.8125 L 24.125 25.8125 C 21.097656 25.28125 18.8125 22.40625 18.8125 22.40625 L 18.78125 22.40625 C 16.710938 19.679688 14.203125 17 10 17 C 9.023438 17 8.128906 17.300781 7.3125 17.71875 L 9.96875 8.28125 C 10.261719 7.222656 10.726563 6.359375 11.25 5.8125 C 11.773438 5.265625 12.3125 5 13 5 Z "></path>
</g>
</svg>
