<?xml version="1.0" encoding="UTF-8"?>
<svg xmlns="http://www.w3.org/2000/svg" xmlns:xlink="http://www.w3.org/1999/xlink" viewBox="0 0 32 32" version="1.1">
<g>
<path d="M 5 5 L 5 27 L 12 27 L 12 25 L 7 25 L 7 7 L 25 7 L 25 25 L 20 25 L 20 27 L 27 27 L 27 5 Z M 16 9 C 12.15625 9 9 12.15625 9 16 C 9 18.78125 10.679688 21.101563 13 22.28125 L 13 29 L 15 29 L 15 21.03125 L 14.375 20.78125 C 12.433594 20.023438 11 18.164063 11 16 C 11 13.246094 13.246094 11 16 11 C 18.753906 11 21 13.246094 21 16 C 21 18.28125 19.5625 20.085938 17.65625 20.75 L 17 21 L 17 29 L 19 29 L 19 22.3125 C 21.332031 21.199219 23 18.84375 23 16 C 23 12.15625 19.84375 9 16 9 Z "></path>
</g>
</svg>
