<?xml version="1.0"?>
<svg xmlns="http://www.w3.org/2000/svg" viewBox="0 0 32 32">
    <path d="M 2.609375 4 L 3.0507812 5.3203125 C 3.9907813 8.1303125 4 14.93 4 15 L 4 18 C 4 18.06 3.9907813 23.869688 3.0507812 26.679688 L 2.609375 28 L 11.390625 28 L 10.949219 26.679688 C 10.699219 25.939688 10.520859 25 10.380859 24 L 8.3691406 24 C 8.4591406 24.69 8.5692188 25.37 8.6992188 26 L 5.3007812 26 C 5.9907813 22.77 6 18.22 6 18 L 6 15 C 6 14.81 5.9907031 11.930547 5.7207031 9.0605469 L 4.7890625 8 L 5.609375 8 C 5.519375 7.3 5.4190625 6.62 5.2890625 6 L 8.7109375 6 C 8.5809375 6.62 8.480625 7.3 8.390625 8 L 10.400391 8 C 10.540391 6.97 10.719219 6.0203125 10.949219 5.3203125 L 11.390625 4 L 2.609375 4 z M 11.609375 4 L 12.050781 5.3203125 C 12.280781 6.0203125 12.459609 6.97 12.599609 8 L 14.609375 8 C 14.519375 7.3 14.419063 6.62 14.289062 6 L 17.710938 6 C 17.580938 6.62 17.480625 7.3 17.390625 8 L 19.400391 8 C 19.540391 6.97 19.719219 6.0203125 19.949219 5.3203125 L 20.390625 4 L 11.609375 4 z M 20.609375 4 L 21.050781 5.3203125 C 21.280781 6.0203125 21.459609 6.97 21.599609 8 L 23.609375 8 C 23.519375 7.3 23.419062 6.62 23.289062 6 L 26.710938 6 C 26.580938 6.62 26.480625 7.3 26.390625 8 L 27.210938 8 L 26.279297 9.0605469 C 26.009297 11.930547 26 14.81 26 15 L 26 18 C 26 18.22 26.009219 22.77 26.699219 26 L 23.300781 26 C 23.430781 25.37 23.540859 24.69 23.630859 24 L 21.619141 24 C 21.479141 25 21.300781 25.939688 21.050781 26.679688 L 20.609375 28 L 29.390625 28 L 28.949219 26.679688 C 28.009219 23.869688 28 18.06 28 18 L 28 15 C 28 14.93 28.009219 8.1303125 28.949219 5.3203125 L 29.390625 4 L 20.609375 4 z M 7 9 L 7.734375 9.8359375 C 8.203375 10.374937 8.5387031 10.975891 8.7207031 11.587891 L 10.708984 20.53125 C 10.825984 20.95125 10.762078 21.875781 10.580078 22.300781 L 10.285156 23 L 14.826172 23 L 14.972656 23 L 14.826172 22.480469 C 14.826172 22.480469 14.738172 22.143359 14.826172 21.443359 C 14.914172 20.738359 16 17.814453 16 17.814453 C 16 17.814453 17.085828 20.737359 17.173828 21.443359 C 17.261828 22.143359 17.173828 22.480469 17.173828 22.480469 L 17.027344 23 L 21.714844 23 L 21.421875 22.300781 C 21.239875 21.875781 21.175969 20.95125 21.292969 20.53125 L 23.269531 11.619141 C 23.463531 10.976141 23.797578 10.375937 24.267578 9.8359375 L 25 9 L 19.585938 9 C 19.720938 9.135 19.885891 9.3475312 19.962891 9.5195312 C 19.985891 9.5665313 19.997766 9.6122969 20.009766 9.6542969 C 20.167766 10.198297 20.097891 11.11675 19.962891 11.59375 L 18.347656 16.777344 L 16 10.556641 L 13.652344 16.777344 L 12.039062 11.59375 C 11.904063 11.12175 11.834328 10.219922 11.986328 9.6699219 C 12.004328 9.6129219 12.021063 9.5655312 12.039062 9.5195312 C 12.115063 9.3425313 12.273063 9.14 12.414062 9 L 7 9 z M 12.619141 24 C 12.479141 25 12.300781 25.939688 12.050781 26.679688 L 11.609375 28 L 20.390625 28 L 19.949219 26.679688 C 19.699219 25.939688 19.520859 25 19.380859 24 L 17.369141 24 C 17.459141 24.69 17.569219 25.37 17.699219 26 L 14.300781 26 C 14.430781 25.37 14.540859 24.69 14.630859 24 L 12.619141 24 z"></path>
</svg>
