<?xml version="1.0" encoding="UTF-8"?>
<svg xmlns="http://www.w3.org/2000/svg" xmlns:xlink="http://www.w3.org/1999/xlink" viewBox="0 0 32 32" version="1.1">
<g>
<path d="M 16 4.90625 L 3.625 10.0625 L 3 10.34375 L 3 27 L 29 27 L 29 10.34375 L 28.375 10.0625 Z M 15 7.5 L 15 16 L 5 16 L 5 11.6875 L 8 10.4375 L 8 12 L 12 12 L 12 10 L 9.03125 10 Z M 17 7.5 L 22.96875 10 L 20 10 L 20 12 L 24 12 L 24 10.4375 L 27 11.6875 L 27 16 L 17 16 Z M 5 18 L 15 18 L 15 25 L 5 25 Z M 17 18 L 27 18 L 27 25 L 17 25 Z M 8 19 L 8 21 L 12 21 L 12 19 Z M 20 19 L 20 21 L 24 21 L 24 19 Z "></path>
</g>
</svg>
