<?xml version="1.0" encoding="UTF-8"?>
<svg xmlns="http://www.w3.org/2000/svg" xmlns:xlink="http://www.w3.org/1999/xlink" viewBox="0 0 32 32" version="1.1">
<g>
<path d="M 2 6 L 2 26 L 30 26 L 30 6 Z M 4 8 L 28 8 L 28 24 L 4 24 Z M 16 10 C 15.601563 10 15.210938 10.132813 14.875 10.375 L 14.28125 10.78125 L 13.53125 10.90625 L 13.53125 10.9375 C 12.714844 11.070313 12.039063 11.710938 11.90625 12.53125 L 11.78125 13.28125 L 11.375 13.875 C 10.890625 14.546875 10.890625 15.453125 11.375 16.125 L 11.78125 16.71875 L 11.90625 17.46875 L 11.9375 17.46875 C 12.003906 17.878906 12.191406 18.242188 12.46875 18.53125 L 10 21 L 12 21 L 12 23 L 15.1875 19.8125 C 15.699219 20.046875 16.300781 20.046875 16.8125 19.8125 L 20 23 L 20 21 L 22 21 L 19.53125 18.53125 C 19.820313 18.246094 20.027344 17.878906 20.09375 17.46875 L 20.21875 16.71875 L 20.625 16.125 C 21.109375 15.453125 21.109375 14.546875 20.625 13.875 L 20.21875 13.28125 L 20.09375 12.53125 C 19.960938 11.714844 19.289063 11.039063 18.46875 10.90625 L 17.71875 10.78125 L 17.125 10.375 C 16.789063 10.132813 16.398438 10 16 10 Z M 16 12.03125 L 16.75 12.5625 L 16.9375 12.6875 L 17.1875 12.75 L 18.09375 12.90625 L 18.25 13.8125 L 18.3125 14.0625 L 18.4375 14.25 L 18.96875 15 L 18.4375 15.75 L 18.3125 15.9375 L 18.25 16.1875 L 18.09375 17.09375 L 17.1875 17.25 L 16.9375 17.3125 L 16.75 17.4375 L 16 17.96875 L 15.25 17.4375 L 15.0625 17.3125 L 14.8125 17.25 L 13.90625 17.09375 L 13.75 16.1875 L 13.6875 15.9375 L 13.5625 15.75 L 13.03125 15 L 13.5625 14.25 L 13.6875 14.0625 L 13.75 13.8125 L 13.90625 12.90625 L 14.8125 12.75 L 15.0625 12.6875 L 15.25 12.5625 Z "></path>
</g>
</svg>
