<?xml version="1.0" encoding="UTF-8"?>
<svg xmlns="http://www.w3.org/2000/svg" xmlns:xlink="http://www.w3.org/1999/xlink" viewBox="0 0 32 32" version="1.1">
<g>
<path d="M 6 4 L 6 28 L 26 28 L 26 4 Z M 8 6 L 24 6 L 24 26 L 8 26 Z M 18 8 C 17.449219 8 17 8.449219 17 9 C 17 9.550781 17.449219 10 18 10 C 18.550781 10 19 9.550781 19 9 C 19 8.449219 18.550781 8 18 8 Z M 21 8 C 20.449219 8 20 8.449219 20 9 C 20 9.550781 20.449219 10 21 10 C 21.550781 10 22 9.550781 22 9 C 22 8.449219 21.550781 8 21 8 Z M 16 12 C 12.699219 12 10 14.699219 10 18 C 10 21.300781 12.699219 24 16 24 C 19.300781 24 22 21.300781 22 18 C 22 14.699219 19.300781 12 16 12 Z M 16 14 C 18.082031 14 19.734375 15.570313 19.9375 17.59375 C 19.554688 17.867188 19.203125 17.898438 18.71875 17.84375 C 18.089844 17.773438 17.28125 17.46875 16.40625 17.09375 C 15.53125 16.71875 14.589844 16.273438 13.53125 16.15625 C 13.175781 16.117188 12.816406 16.15625 12.4375 16.21875 C 13.089844 14.90625 14.421875 14 16 14 Z M 12.84375 18.125 C 12.976563 18.117188 13.125 18.140625 13.28125 18.15625 C 13.910156 18.226563 14.71875 18.53125 15.59375 18.90625 C 16.46875 19.28125 17.410156 19.726563 18.46875 19.84375 C 18.824219 19.882813 19.183594 19.84375 19.5625 19.78125 C 18.910156 21.09375 17.578125 22 16 22 C 13.917969 22 12.265625 20.429688 12.0625 18.40625 C 12.320313 18.222656 12.566406 18.136719 12.84375 18.125 Z "></path>
</g>
</svg>
