<?xml version="1.0" encoding="UTF-8"?>
<svg xmlns="http://www.w3.org/2000/svg" xmlns:xlink="http://www.w3.org/1999/xlink" viewBox="0 0 32 32" version="1.1">
<g>
<path d="M 22 3.25 L 21.1875 4.4375 C 21.1875 4.4375 20.648438 5.191406 20.125 6.09375 C 19.863281 6.542969 19.617188 7.019531 19.40625 7.5 C 19.195313 7.980469 19 8.421875 19 9 C 19 10.644531 20.355469 12 22 12 C 23.644531 12 25 10.644531 25 9 C 25 8.421875 24.804688 7.980469 24.59375 7.5 C 24.382813 7.019531 24.136719 6.542969 23.875 6.09375 C 23.351563 5.191406 22.8125 4.4375 22.8125 4.4375 Z M 22 6.875 C 22.066406 6.984375 22.058594 6.976563 22.125 7.09375 C 22.363281 7.503906 22.617188 7.941406 22.78125 8.3125 C 22.945313 8.683594 23 9.027344 23 9 C 23 9.566406 22.566406 10 22 10 C 21.433594 10 21 9.566406 21 9 C 21 9.027344 21.054688 8.683594 21.21875 8.3125 C 21.382813 7.941406 21.636719 7.503906 21.875 7.09375 C 21.941406 6.976563 21.933594 6.984375 22 6.875 Z M 13.21875 8 C 12.503906 8 11.789063 8.273438 11.25 8.8125 L 5.0625 15 L 5.1875 15.15625 C 4.503906 16.046875 4 17.105469 4 18.3125 L 4 22 C 4 24.75 6.25 27 9 27 L 21.5 27 C 22.867188 27 24 25.867188 24 24.5 C 24 24.328125 23.972656 24.160156 23.9375 24 L 24.5 24 C 25.867188 24 27 22.867188 27 21.5 C 27 21.183594 26.953125 20.875 26.84375 20.59375 C 27.539063 20.148438 28 19.378906 28 18.5 C 28 17.621094 27.539063 16.851563 26.84375 16.40625 C 26.953125 16.125 27 15.816406 27 15.5 C 27 14.132813 25.867188 13 24.5 13 L 14.9375 13 L 15.1875 12.75 C 16.265625 11.671875 16.265625 9.890625 15.1875 8.8125 C 14.648438 8.273438 13.933594 8 13.21875 8 Z M 13.25 10 C 13.445313 10 13.625 10.0625 13.78125 10.21875 C 14.09375 10.53125 14.09375 11 13.78125 11.3125 L 10.09375 15 L 24.5 15 C 24.785156 15 25 15.214844 25 15.5 C 25 15.785156 24.785156 16 24.5 16 L 16 16 L 16 18 L 25.5 18 C 25.785156 18 26 18.214844 26 18.5 C 26 18.785156 25.785156 19 25.5 19 L 16 19 L 16 21 L 24.5 21 C 24.785156 21 25 21.214844 25 21.5 C 25 21.785156 24.785156 22 24.5 22 L 16 22 L 16 24 L 21.5 24 C 21.785156 24 22 24.214844 22 24.5 C 22 24.785156 21.785156 25 21.5 25 L 9 25 C 7.332031 25 6 23.667969 6 22 L 6 18.3125 C 6 17.359375 6.414063 16.515625 7.0625 15.90625 L 7.6875 15.3125 L 7.65625 15.25 L 12.6875 10.21875 C 12.84375 10.0625 13.054688 10 13.25 10 Z "></path>
</g>
</svg>
