<?xml version="1.0" encoding="UTF-8"?>
<svg xmlns="http://www.w3.org/2000/svg" xmlns:xlink="http://www.w3.org/1999/xlink" viewBox="0 0 32 32" version="1.1">
<g>
<path d="M 9 3 L 9 5 C 10.128906 5 11.972656 5.722656 13.5625 6.90625 C 14.769531 7.804688 15.839844 8.933594 16.5 10.125 C 16.210938 10.203125 15.945313 10.347656 15.6875 10.5 C 14.828125 9.136719 13.625 8.109375 12.375 7.40625 C 10.628906 6.425781 8.828125 6 7.4375 6 C 6.679688 6 5.914063 6.332031 5.5 6.90625 C 5.085938 7.480469 5 8.121094 5 8.75 C 5 9.484375 5.214844 10.292969 5.625 11.21875 C 6.035156 12.144531 6.65625 13.132813 7.5 14 C 8.324219 14.847656 9.425781 15.558594 10.71875 15.90625 C 10.652344 15.984375 10.59375 16.074219 10.53125 16.15625 C 9.570313 17.4375 9 19.140625 9 21 C 9 22.757813 9.484375 24.238281 10.375 25.375 C 11.265625 26.511719 12.519531 27.289063 13.9375 27.8125 C 16.773438 28.859375 20.351563 29 24 29 L 24 27 C 22.085938 27 21.292969 26.1875 20.71875 24.96875 C 20.144531 23.75 20 22.09375 20 20.84375 C 20 20.179688 19.914063 19.574219 19.78125 19 C 19.78125 19 19.78125 18.96875 19.78125 18.96875 C 20.597656 18.898438 21.398438 18.601563 22 18 C 22.828125 17.171875 23.0625 16.039063 22.90625 14.90625 C 23.835938 15.011719 24.84375 15 26 15 L 27 15 L 27 14 C 27 11.554688 26.222656 8.765625 23.71875 7.46875 C 23.226563 7.222656 22.695313 7.085938 22.1875 7.03125 C 21.679688 6.976563 21.191406 7.011719 20.71875 7.15625 C 19.773438 7.445313 18.980469 8.136719 18.5 9.0625 C 18.441406 9.171875 18.421875 9.292969 18.375 9.40625 C 17.550781 7.78125 16.222656 6.378906 14.75 5.28125 C 12.902344 3.90625 10.851563 3 9 3 Z M 23.9375 4.03125 L 19.78125 5.03125 L 20.21875 6.96875 L 24.40625 5.96875 Z M 7.4375 8 C 8.378906 8 9.980469 8.355469 11.40625 9.15625 C 12.582031 9.820313 13.644531 10.761719 14.28125 12.03125 C 14.277344 12.039063 14.285156 12.054688 14.28125 12.0625 C 14.039063 12.636719 13.980469 13.28125 14.03125 13.90625 C 11.671875 14.625 10.128906 13.851563 8.9375 12.625 C 8.292969 11.960938 7.796875 11.140625 7.46875 10.40625 C 7.140625 9.671875 7 8.980469 7 8.75 C 7 8.335938 7.097656 8.097656 7.125 8.0625 C 7.152344 8.027344 7.105469 8 7.4375 8 Z M 21.625 9 C 21.890625 8.980469 22.199219 9.027344 22.53125 9.15625 C 22.457031 9.203125 22.40625 9.242188 22.34375 9.3125 C 21.78125 9.867188 21.953125 10.914063 22.5625 11.46875 C 23.078125 11.9375 24.03125 12.132813 24.59375 11.90625 C 24.675781 12.246094 24.769531 12.605469 24.8125 12.96875 C 23.28125 12.949219 22.144531 12.882813 21.21875 12.34375 C 20.59375 11.980469 20.261719 11.574219 20.125 11.21875 C 19.988281 10.863281 20.011719 10.515625 20.28125 10 C 20.546875 9.488281 20.902344 9.1875 21.3125 9.0625 C 21.414063 9.03125 21.511719 9.007813 21.625 9 Z M 17.3125 12 C 17.632813 11.972656 18.011719 12.050781 18.40625 12.1875 C 18.773438 12.960938 19.402344 13.585938 20.21875 14.0625 C 20.371094 14.152344 20.535156 14.207031 20.6875 14.28125 C 21.148438 15.28125 21.054688 16.132813 20.59375 16.59375 C 20.269531 16.917969 19.769531 17.0625 19.125 16.96875 C 18.480469 16.875 17.722656 16.535156 17.09375 15.90625 C 16.464844 15.277344 16.125 14.519531 16.03125 13.875 C 15.9375 13.230469 16.082031 12.730469 16.40625 12.40625 C 16.628906 12.183594 16.933594 12.035156 17.3125 12 Z M 14.5 16 C 14.5625 16 14.625 16.023438 14.6875 16.03125 C 14.949219 16.484375 15.292969 16.917969 15.6875 17.3125 C 16.25 17.875 16.894531 18.304688 17.5625 18.59375 C 17.730469 19.003906 17.867188 19.425781 17.9375 19.875 C 15.742188 19.417969 13.660156 17.683594 12.65625 16.75 C 13.210938 16.246094 13.839844 16 14.5 16 Z M 11.5 18.5 C 12.753906 19.703125 15.132813 21.570313 18.03125 21.9375 C 18.050781 22.265625 18.082031 22.613281 18.125 22.96875 C 15.179688 22.824219 13.402344 21.984375 12.34375 21.1875 C 11.652344 20.667969 11.285156 20.230469 11.09375 19.9375 C 11.175781 19.414063 11.316406 18.945313 11.5 18.5 Z M 11.28125 22.875 C 12.738281 23.933594 15.066406 24.890625 18.5625 24.96875 C 18.660156 25.261719 18.773438 25.558594 18.90625 25.84375 C 19.070313 26.191406 19.292969 26.527344 19.53125 26.84375 C 17.664063 26.699219 15.964844 26.433594 14.625 25.9375 C 13.445313 25.5 12.570313 24.925781 11.96875 24.15625 C 11.679688 23.789063 11.445313 23.363281 11.28125 22.875 Z "></path>
</g>
</svg>
