<?xml version="1.0" encoding="UTF-8"?>
<svg xmlns="http://www.w3.org/2000/svg" xmlns:xlink="http://www.w3.org/1999/xlink" viewBox="0 0 32 32" version="1.1">
<g>
<path d="M 23.5 5 C 21.578125 5 20 6.578125 20 8.5 C 20 10.421875 21.578125 12 23.5 12 C 25.421875 12 27 10.421875 27 8.5 C 27 6.578125 25.421875 5 23.5 5 Z M 23.5 7 C 24.339844 7 25 7.660156 25 8.5 C 25 9.339844 24.339844 10 23.5 10 C 22.660156 10 22 9.339844 22 8.5 C 22 7.660156 22.660156 7 23.5 7 Z M 16.40625 9.90625 C 15.929688 9.9375 15.457031 10.078125 15.03125 10.34375 L 10.1875 13.40625 L 9.90625 13.5625 L 9.78125 13.875 L 8.1875 17.78125 L 5.28125 14.6875 L 3.84375 16.0625 L 6.71875 19.125 C 7.6875 20.160156 9.488281 19.839844 10.03125 18.53125 L 11.53125 14.90625 L 16.09375 12.0625 C 16.476563 11.824219 16.945313 11.855469 17.28125 12.15625 L 18.28125 13.0625 L 19.8125 16.40625 L 19.96875 16.78125 L 20.34375 16.90625 L 24.53125 18.65625 L 25.28125 16.8125 L 21.46875 15.21875 L 20.03125 12.03125 L 19.9375 11.84375 L 19.78125 11.6875 L 18.625 10.65625 C 18.128906 10.210938 17.507813 9.960938 16.875 9.90625 C 16.714844 9.894531 16.566406 9.894531 16.40625 9.90625 Z M 17.5625 13.53125 L 16.625 14.03125 L 12.40625 16.1875 L 11.71875 16.5625 L 11.875 17.3125 L 12.8125 21.46875 L 8.21875 25.4375 L 9.5 26.96875 L 14.125 23 C 14.683594 22.519531 14.941406 21.75 14.78125 21.03125 L 14 17.625 L 16.5625 16.3125 L 17.40625 18.25 L 17.5 18.5 L 17.71875 18.65625 L 21.6875 21.78125 L 22.90625 20.1875 L 19.15625 17.28125 L 18 14.53125 Z M 12 25 L 12 27 L 16 27 L 16 25 Z "></path>
</g>
</svg>
