<?xml version="1.0" encoding="UTF-8"?>
<svg xmlns="http://www.w3.org/2000/svg" xmlns:xlink="http://www.w3.org/1999/xlink" viewBox="0 0 32 32" version="1.1">
<g>
<path d="M 13 3 L 13 4 L 12 4 L 12 6 L 18.5 6 C 18.78125 6 19 6.21875 19 6.5 C 19 6.78125 18.78125 7 18.5 7 L 12 7 L 12 9 L 13 9 L 13 10.25 C 12.433594 10.328125 11.820313 10.34375 10.59375 10.90625 C 8.90625 11.679688 7 13.304688 7 16 C 7 22.519531 11.15625 28.5625 11.15625 28.5625 L 11.46875 29 L 20.53125 29 L 20.84375 28.5625 C 20.84375 28.5625 25 22.519531 25 16 C 25 13.273438 23.097656 11.640625 21.40625 10.875 C 20.1875 10.324219 19.574219 10.324219 19 10.25 L 19 8.9375 C 20.132813 8.703125 21 7.699219 21 6.5 C 21 5.300781 20.132813 4.296875 19 4.0625 L 19 3 Z M 15 9 L 17 9 L 17 11.9375 L 17.9375 12 C 17.9375 12 19.285156 12.097656 20.59375 12.6875 C 21.902344 13.277344 23 14.144531 23 16 C 23 21.296875 19.820313 26.351563 19.40625 27 L 12.59375 27 C 12.179688 26.351563 9 21.296875 9 16 C 9 14.191406 10.09375 13.320313 11.40625 12.71875 C 12.71875 12.117188 14.09375 12 14.09375 12 L 15 11.90625 Z "></path>
</g>
</svg>
