<?xml version="1.0" encoding="UTF-8"?>
<svg xmlns="http://www.w3.org/2000/svg" xmlns:xlink="http://www.w3.org/1999/xlink" viewBox="0 0 32 32" version="1.1">
<g>
<path d="M 16 3.90625 L 15.59375 4.09375 L 8.59375 7.09375 L 8 7.34375 L 8 16 L 9.65625 16 L 6.25 28 L 8.3125 28 L 11.75 16 L 20.25 16 L 23.6875 28 L 25.75 28 L 22.34375 16 L 24 16 L 24 7.34375 L 23.40625 7.09375 L 16.40625 4.09375 Z M 16 6.09375 L 22 8.65625 L 22 14 L 10 14 L 10 8.65625 Z M 12.5625 18.625 L 12.09375 20.21875 L 14.46875 21.6875 L 11.09375 23.78125 L 10.4375 26.0625 L 16 22.625 L 21.5625 26.0625 L 20.90625 23.78125 L 17.53125 21.6875 L 19.90625 20.21875 L 19.4375 18.625 L 16 20.75 Z "></path>
</g>
</svg>
