<?xml version="1.0" encoding="UTF-8"?>
<svg xmlns="http://www.w3.org/2000/svg" xmlns:xlink="http://www.w3.org/1999/xlink" viewBox="0 0 32 32" version="1.1">
<g>
<path d="M 26.53125 3 C 26.335938 2.996094 26.128906 3.015625 25.9375 3.09375 C 25.167969 3.402344 23 6 23 6 C 23 6 26.292969 6.214844 27.0625 5.90625 C 27.832031 5.597656 28.214844 4.707031 27.90625 3.9375 C 27.675781 3.359375 27.117188 3.011719 26.53125 3 Z M 14.96875 6.03125 L 13.125 6.78125 L 13.75 8.34375 L 6.65625 11.0625 C 6.085938 11.261719 5.5 11.515625 4.96875 11.96875 C 4.4375 12.421875 4 13.15625 4 14 C 4 15.644531 5.355469 17 7 17 L 25 17 C 25.566406 17 26 17.433594 26 18 C 26 18.566406 25.566406 19 25 19 L 7 19 C 5.355469 19 4 20.355469 4 22 C 4 23.644531 5.355469 25 7 25 L 25 25 C 25.566406 25 26 25.433594 26 26 C 26 26.566406 25.566406 27 25 27 L 4 27 L 4 29 L 25 29 C 26.644531 29 28 27.644531 28 26 C 28 24.355469 26.644531 23 25 23 L 7 23 C 6.433594 23 6 22.566406 6 22 C 6 21.433594 6.433594 21 7 21 L 25 21 C 26.644531 21 28 19.644531 28 18 C 28 16.355469 26.644531 15 25 15 L 7 15 C 6.433594 15 6 14.566406 6 14 C 6 13.738281 6.039063 13.648438 6.25 13.46875 C 6.460938 13.289063 6.882813 13.097656 7.34375 12.9375 L 14.5 10.1875 L 15.125 11.78125 L 16.96875 11.03125 L 16.34375 9.46875 L 20.34375 7.9375 L 19.65625 6.0625 L 15.59375 7.625 Z "></path>
</g>
</svg>
