<?xml version="1.0" encoding="UTF-8"?>
<svg xmlns="http://www.w3.org/2000/svg" xmlns:xlink="http://www.w3.org/1999/xlink" viewBox="0 0 32 32" version="1.1">
<g>
<path d="M 23.3125 5.0625 L 22.6875 6.9375 C 22.6875 6.9375 23.550781 7.242188 24.40625 7.875 C 25.261719 8.507813 26 9.359375 26 10.625 C 26 11.550781 25.394531 12.359375 24.4375 13 C 23.878906 13.375 23.226563 13.644531 22.625 13.8125 C 22.859375 13.039063 23 12.199219 23 11.28125 C 23 10.125 22.539063 9.136719 21.875 8.40625 C 21.210938 7.675781 20.363281 7.1875 19.5 6.84375 C 17.871094 6.191406 16.226563 6.046875 15.21875 6.03125 C 15.203125 6.03125 15.171875 6 15.15625 6 C 15.117188 6 15.039063 6 15 6 C 14.003906 6 12.417969 6.179688 10.9375 6.84375 C 9.457031 7.507813 8 8.847656 8 10.875 C 8 12.109375 8.503906 13.152344 9.21875 13.875 C 9.933594 14.597656 10.816406 15.042969 11.65625 15.34375 C 8.769531 16.363281 5.8125 17.03125 5.8125 17.03125 L 4.90625 17.1875 L 5 18.125 C 5 18.125 5.121094 19.273438 5.78125 20.46875 C 6.441406 21.664063 7.835938 23 9.96875 23 C 12.660156 23 13.835938 21.472656 14.25 20.875 C 15.550781 20.449219 17.597656 19.734375 19.4375 18.3125 C 20.234375 17.695313 20.988281 16.917969 21.59375 16 C 22.832031 15.976563 24.265625 15.503906 25.53125 14.65625 C 26.828125 13.785156 28 12.417969 28 10.625 C 28 8.558594 26.738281 7.09375 25.59375 6.25 C 24.449219 5.40625 23.3125 5.0625 23.3125 5.0625 Z M 14.90625 8.03125 C 14.96875 8.042969 15.738281 8.144531 16.53125 8.5625 C 17.355469 8.996094 18 9.546875 18 10.625 C 18 11.390625 17.46875 12.207031 16.375 13.03125 C 15.925781 13.371094 15.203125 13.597656 14.625 13.90625 C 14.296875 13.886719 13.460938 13.867188 12.34375 13.46875 C 11.683594 13.234375 11.066406 12.917969 10.65625 12.5 C 10.246094 12.082031 10 11.601563 10 10.875 C 10 9.757813 10.6875 9.179688 11.78125 8.6875 C 12.84375 8.210938 14.179688 8.042969 14.90625 8.03125 Z M 19.5 9.15625 C 19.820313 9.347656 20.191406 9.515625 20.40625 9.75 C 20.789063 10.167969 21 10.605469 21 11.28125 C 21 13.839844 19.804688 15.492188 18.21875 16.71875 C 16.632813 17.945313 14.667969 18.664063 13.4375 19.0625 L 13.03125 19.1875 L 12.84375 19.5625 C 12.84375 19.5625 12.25 21 9.96875 21 C 8.59375 21 7.976563 20.335938 7.53125 19.53125 C 7.296875 19.105469 7.328125 18.96875 7.25 18.65625 C 8.070313 18.484375 10.027344 18.132813 12.84375 17.0625 C 13.574219 16.785156 14.199219 16.34375 14.90625 16 C 14.90625 16 14.96875 16 14.96875 16 L 14.96875 15.96875 C 15.859375 15.535156 16.824219 15.183594 17.5625 14.625 C 18.90625 13.609375 20 12.285156 20 10.625 C 20 10.027344 19.710938 9.625 19.5 9.15625 Z M 21 20 C 21 20.296875 20.222656 21 19 21 C 18.667969 21 18.382813 20.953125 18.125 20.875 C 17.460938 21.226563 16.707031 21.5625 15.90625 21.875 C 16.644531 22.558594 17.769531 23 19 23 C 20.1875 23 21.261719 22.578125 22 21.9375 C 22.105469 22.027344 22.199219 22.109375 22.3125 22.1875 C 23.039063 22.691406 23.964844 23 25 23 C 26.039063 23 26.964844 22.691406 27.6875 22.1875 C 28.410156 21.683594 29 20.941406 29 20 L 27 20 C 27 20.042969 26.921875 20.3125 26.5625 20.5625 C 26.203125 20.8125 25.632813 21 25 21 C 24.363281 21 23.792969 20.808594 23.4375 20.5625 C 23.082031 20.316406 23 20.058594 23 20 Z M 3 25 C 3 25.941406 3.585938 26.683594 4.3125 27.1875 C 5.039063 27.691406 5.964844 28 7 28 C 8.039063 28 8.964844 27.691406 9.6875 27.1875 C 9.796875 27.113281 9.898438 27.023438 10 26.9375 C 10.105469 27.027344 10.199219 27.109375 10.3125 27.1875 C 11.039063 27.691406 11.964844 28 13 28 C 14.039063 28 14.964844 27.691406 15.6875 27.1875 C 15.796875 27.113281 15.898438 27.023438 16 26.9375 C 16.105469 27.027344 16.199219 27.109375 16.3125 27.1875 C 17.039063 27.691406 17.964844 28 19 28 C 20.039063 28 20.964844 27.691406 21.6875 27.1875 C 21.796875 27.113281 21.898438 27.023438 22 26.9375 C 22.105469 27.027344 22.199219 27.109375 22.3125 27.1875 C 23.039063 27.691406 23.964844 28 25 28 C 26.039063 28 26.964844 27.691406 27.6875 27.1875 C 28.410156 26.683594 29 25.941406 29 25 L 27 25 C 27 25.042969 26.921875 25.3125 26.5625 25.5625 C 26.203125 25.8125 25.632813 26 25 26 C 24.363281 26 23.792969 25.808594 23.4375 25.5625 C 23.082031 25.316406 23 25.058594 23 25 L 21 25 C 21 25.042969 20.921875 25.3125 20.5625 25.5625 C 20.203125 25.8125 19.632813 26 19 26 C 18.363281 26 17.792969 25.808594 17.4375 25.5625 C 17.082031 25.316406 17 25.058594 17 25 L 15 25 C 15 25.042969 14.921875 25.3125 14.5625 25.5625 C 14.203125 25.8125 13.632813 26 13 26 C 12.363281 26 11.792969 25.808594 11.4375 25.5625 C 11.082031 25.316406 11 25.058594 11 25 L 9 25 C 9 25.042969 8.921875 25.3125 8.5625 25.5625 C 8.203125 25.8125 7.632813 26 7 26 C 6.363281 26 5.792969 25.808594 5.4375 25.5625 C 5.082031 25.316406 5 25.058594 5 25 Z "></path>
</g>
</svg>
