<?xml version="1.0" encoding="UTF-8"?>
<svg xmlns="http://www.w3.org/2000/svg" xmlns:xlink="http://www.w3.org/1999/xlink" viewBox="0 0 32 32" version="1.1">
<g>
<path d="M 13.5 4 C 11.578125 4 10 5.578125 10 7.5 C 10 9.421875 11.578125 11 13.5 11 C 14.875 11 16.054688 10.164063 16.625 9 L 22 9 L 23 8 L 23 7 L 22 6 L 20 6 L 19 7 L 18 6 L 16.625 6 C 16.054688 4.835938 14.875 4 13.5 4 Z M 13.5 6 C 13.675781 6 13.84375 6.039063 14 6.09375 L 14 8.90625 C 13.84375 8.960938 13.675781 9 13.5 9 C 12.660156 9 12 8.339844 12 7.5 C 12 6.660156 12.660156 6 13.5 6 Z M 14 14 L 14 16 L 15.53125 16 L 17 16.6875 L 17 18.4375 C 16.316406 18.636719 15.007813 18.933594 13.21875 18.96875 L 11.4375 18.09375 L 11.25 18 L 6 18 L 6 22.6875 C 6 24.144531 6.871094 25.210938 7.6875 25.9375 C 7.484375 25.976563 7.257813 26 7.03125 26 C 5.691406 26 4.625 25.21875 4.625 25.21875 L 3.375 26.78125 C 3.375 26.78125 4.917969 28 7.03125 28 C 8.492188 28 9.421875 27.515625 10 27.15625 C 10.582031 27.511719 11.558594 28 13.03125 28 C 14.492188 28 15.421875 27.515625 16 27.15625 C 16.582031 27.511719 17.558594 28 19.03125 28 C 20.492188 28 21.421875 27.515625 22 27.15625 C 22.582031 27.511719 23.558594 28 25.03125 28 C 27.144531 28 28.625 26.78125 28.625 26.78125 L 27.375 25.21875 C 27.375 25.21875 26.371094 26 25.03125 26 C 24.875 26 24.710938 25.988281 24.5625 25.96875 C 25.410156 25.164063 26.351563 23.976563 26.9375 22.34375 L 27.0625 22.03125 L 26.96875 21.75 C 25.996094 18.132813 22.679688 15.070313 18.15625 15 L 16.1875 14.09375 L 16 14 Z M 19 17.15625 C 22.027344 17.546875 24.136719 19.53125 24.90625 21.96875 C 23.800781 22.410156 21.960938 23 19.71875 23 L 8.0625 23 C 8.039063 22.898438 8 22.789063 8 22.6875 L 8 20 L 10.75 20 L 12.75 21 L 13 21 C 15.886719 21 18.34375 20.125 18.34375 20.125 L 19 19.90625 Z "></path>
</g>
</svg>
