<?xml version="1.0" encoding="UTF-8"?>
<svg xmlns="http://www.w3.org/2000/svg" xmlns:xlink="http://www.w3.org/1999/xlink" viewBox="0 0 32 32" version="1.1">
<g>
<path d="M 23.0625 4.0625 L 4.0625 23.0625 L 4.09375 23.09375 L 4.03125 23.125 C 4.421875 23.515625 4.8125 23.875 5.21875 24.21875 L 5.5 24.5 L 5.53125 24.46875 C 8.292969 26.707031 11.339844 27.859375 14.3125 27.9375 C 17.835938 28.027344 21.25 26.625 23.9375 23.9375 C 29.363281 18.511719 29.371094 9.34375 23.0625 4.0625 Z M 22.5625 7.4375 C 26.074219 11.652344 25.832031 17.917969 21.875 21.875 C 17.917969 25.832031 11.652344 26.074219 7.4375 22.5625 Z M 22.03125 12.34375 C 21.902344 12.324219 21.757813 12.34375 21.625 12.375 C 21.089844 12.503906 19.125 14 19.125 14 C 19.125 14 21.558594 14.441406 22.09375 14.3125 C 22.628906 14.179688 22.972656 13.628906 22.84375 13.09375 C 22.746094 12.691406 22.414063 12.40625 22.03125 12.34375 Z M 21.40625 15.6875 C 20.492188 15.753906 19.125 16 19.125 16 C 19.125 16 21.089844 17.496094 21.625 17.625 C 22.160156 17.753906 22.714844 17.441406 22.84375 16.90625 C 22.972656 16.371094 22.628906 15.816406 22.09375 15.6875 C 21.960938 15.65625 21.710938 15.664063 21.40625 15.6875 Z M 18 18 C 18 18 18.890625 20.328125 19.28125 20.71875 C 19.671875 21.109375 20.328125 21.109375 20.71875 20.71875 C 21.109375 20.328125 21.109375 19.671875 20.71875 19.28125 C 20.328125 18.890625 18 18 18 18 Z M 13.65625 19.03125 C 13.65625 19.03125 11.988281 20.882813 11.8125 21.40625 C 11.636719 21.929688 11.914063 22.480469 12.4375 22.65625 C 12.960938 22.832031 13.542969 22.554688 13.71875 22.03125 C 13.894531 21.507813 13.65625 19.03125 13.65625 19.03125 Z M 16 19.125 C 16 19.125 15.558594 21.558594 15.6875 22.09375 C 15.820313 22.628906 16.371094 22.976563 16.90625 22.84375 C 17.441406 22.710938 17.753906 22.160156 17.625 21.625 C 17.496094 21.089844 16 19.125 16 19.125 Z "></path>
</g>
</svg>
