<?xml version="1.0" encoding="UTF-8"?>
<svg xmlns="http://www.w3.org/2000/svg" xmlns:xlink="http://www.w3.org/1999/xlink" viewBox="0 0 32 32" version="1.1">
<g>
<path d="M 16 4 C 9.382813 4 4 9.382813 4 16 C 4 22.617188 9.382813 28 16 28 C 22.617188 28 28 22.617188 28 16 C 28 9.382813 22.617188 4 16 4 Z M 16 6 C 21.535156 6 26 10.464844 26 16 C 26 21.535156 21.535156 26 16 26 C 15.609375 26 15.222656 25.949219 14.84375 25.90625 C 13.367188 24.34375 11 21.074219 11 16 C 11 10.925781 13.367188 7.65625 14.84375 6.09375 C 15.222656 6.050781 15.609375 6 16 6 Z "></path>
</g>
</svg>
