<?xml version="1.0" encoding="UTF-8"?>
<svg xmlns="http://www.w3.org/2000/svg" xmlns:xlink="http://www.w3.org/1999/xlink" viewBox="0 0 32 32" version="1.1">
<g>
<path d="M 28 4.46875 L 26.59375 5.09375 L 19.96875 7.9375 L 12.34375 5.0625 L 11.96875 4.9375 L 11.59375 5.09375 L 4.59375 8.09375 L 4 8.34375 L 4 27.53125 L 5.40625 26.90625 L 12.03125 24.0625 L 19.65625 26.9375 L 20.03125 27.0625 L 20.40625 26.90625 L 27.40625 23.90625 L 28 23.65625 Z M 12.03125 7.0625 L 19.65625 9.9375 L 20.03125 10.0625 L 20.40625 9.90625 L 26 7.5 L 26 22.34375 L 19.96875 24.9375 L 12.34375 22.0625 L 11.96875 21.9375 L 11.59375 22.09375 L 6 24.5 L 6 9.65625 Z M 12 10 C 10.894531 10 10 10.894531 10 12 C 10 13.105469 10.894531 14 12 14 C 13.105469 14 14 13.105469 14 12 C 14 10.894531 13.105469 10 12 10 Z M 9 14 C 8.449219 14 8 14.449219 8 15 C 8 15.550781 8.449219 16 9 16 C 9.550781 16 10 15.550781 10 15 C 10 14.449219 9.550781 14 9 14 Z M 16 14 C 15.449219 14 15 14.449219 15 15 C 15 15.550781 15.449219 16 16 16 C 16.550781 16 17 15.550781 17 15 C 17 14.449219 16.550781 14 16 14 Z M 23 14 C 22.449219 14 22 14.449219 22 15 C 22 15.550781 22.449219 16 23 16 C 23.550781 16 24 15.550781 24 15 C 24 14.449219 23.550781 14 23 14 Z M 9 17 C 8.449219 17 8 17.449219 8 18 C 8 18.550781 8.449219 19 9 19 C 9.550781 19 10 18.550781 10 18 C 10 17.449219 9.550781 17 9 17 Z M 17 17 C 16.449219 17 16 17.449219 16 18 C 16 18.550781 16.449219 19 17 19 C 17.550781 19 18 18.550781 18 18 C 18 17.449219 17.550781 17 17 17 Z M 23 17 C 22.449219 17 22 17.449219 22 18 C 22 18.550781 22.449219 19 23 19 C 23.550781 19 24 18.550781 24 18 C 24 17.449219 23.550781 17 23 17 Z M 20 19 C 18.894531 19 18 19.894531 18 21 C 18 22.105469 18.894531 23 20 23 C 21.105469 23 22 22.105469 22 21 C 22 19.894531 21.105469 19 20 19 Z "></path>
</g>
</svg>
