<?xml version="1.0" encoding="UTF-8"?>
<svg xmlns="http://www.w3.org/2000/svg" xmlns:xlink="http://www.w3.org/1999/xlink" viewBox="0 0 32 32" version="1.1">
<g>
<path d="M 16 4 C 13.75 4 12.234375 4.886719 10.875 5.625 C 9.515625 6.363281 8.28125 7 6 7 L 5 7 L 5 8 C 5 15.71875 7.609375 20.742188 10.25 23.78125 C 12.890625 26.820313 15.625 27.9375 15.625 27.9375 L 16 28.0625 L 16.375 27.9375 C 16.375 27.9375 19.109375 26.84375 21.75 23.8125 C 24.390625 20.78125 27 15.746094 27 8 L 27 7 L 26 7 C 23.730469 7 22.484375 6.363281 21.125 5.625 C 19.765625 4.886719 18.25 4 16 4 Z M 16 6 C 17.75 6 18.753906 6.613281 20.15625 7.375 C 21.339844 8.019531 22.910156 8.636719 24.9375 8.84375 C 24.746094 15.609375 22.507813 19.910156 20.25 22.5 C 18.203125 24.847656 16.484375 25.628906 16 25.84375 C 15.511719 25.625 13.796875 24.824219 11.75 22.46875 C 9.492188 19.871094 7.253906 15.578125 7.0625 8.84375 C 9.097656 8.636719 10.660156 8.019531 11.84375 7.375 C 13.246094 6.613281 14.25 6 16 6 Z M 16 9 C 12.699219 9 10 11.699219 10 15 C 10 18.300781 12.699219 21 16 21 C 19.300781 21 22 18.300781 22 15 C 22 11.699219 19.300781 9 16 9 Z M 15.8125 11.03125 C 16.042969 11.386719 15.746094 12.078125 15.65625 12.40625 C 15.523438 12.890625 15.496094 13.566406 15.03125 13.875 C 14.6875 14.101563 14.851563 13.644531 14.59375 13.5 C 14.28125 13.328125 13.726563 13.816406 13.8125 14.15625 C 13.855469 14.328125 14.28125 14.476563 14.4375 14.46875 C 14.777344 14.453125 15.101563 14.128906 15.3125 14.5 C 15.792969 15.351563 14.71875 16.234375 14.84375 17.09375 C 14.859375 17.210938 15.191406 18.34375 15.28125 18.90625 C 14.5625 18.777344 13.902344 18.488281 13.375 18.03125 C 13.265625 17.886719 13.171875 17.730469 13.09375 17.59375 C 12.945313 17.34375 12.898438 17.351563 12.6875 17.21875 C 12.675781 17.210938 12.667969 17.195313 12.65625 17.1875 C 12.296875 16.636719 12.078125 15.980469 12.03125 15.28125 C 12.121094 15.097656 12.277344 14.929688 12.4375 14.78125 C 12.585938 14.644531 12.648438 14.605469 12.84375 14.5625 C 13.03125 14.519531 13.285156 14.585938 13.40625 14.375 C 13.519531 14.179688 13.398438 14.035156 13.25 13.9375 C 13.007813 13.777344 12.375 13.851563 12.28125 13.5 C 12.328125 13.378906 12.410156 13.269531 12.46875 13.15625 C 12.503906 13.128906 12.53125 13.097656 12.5625 13.0625 C 12.636719 12.972656 12.644531 12.914063 12.625 12.84375 C 13.300781 11.777344 14.464844 11.09375 15.8125 11.03125 Z M 17.71875 11.40625 C 19.066406 12.046875 20 13.398438 20 15 C 20 16.386719 19.3125 17.597656 18.25 18.3125 C 18.390625 18.160156 18.511719 18.007813 18.59375 17.8125 C 18.742188 17.453125 18.71875 16.996094 18.625 16.625 C 18.558594 16.367188 18.523438 16.226563 18.3125 16.0625 C 18.179688 15.957031 17.945313 15.890625 17.875 15.71875 C 17.703125 15.285156 18.140625 14.867188 18.46875 14.65625 C 18.726563 14.488281 19.617188 14.082031 18.96875 13.84375 C 18.445313 13.652344 17.949219 14.125 17.46875 13.6875 C 17.117188 13.371094 17.242188 12.8125 17.375 12.40625 C 17.476563 12.09375 17.546875 11.699219 17.71875 11.40625 Z "></path>
</g>
</svg>
