<?xml version="1.0" encoding="UTF-8"?>
<svg xmlns="http://www.w3.org/2000/svg" xmlns:xlink="http://www.w3.org/1999/xlink" viewBox="0 0 32 32" version="1.1">
<g>
<path d="M 3 5 L 3 27 L 29 27 L 29 5 Z M 5 7 L 27 7 L 27 25 L 5 25 Z M 16 10 C 13.25 10 11 12.25 11 15 C 11 16.476563 11.660156 17.800781 12.6875 18.71875 C 10.527344 19.714844 8.859375 21.652344 8.25 24 L 10.34375 24 C 11.167969 21.671875 13.394531 20 16 20 C 18.605469 20 20.832031 21.671875 21.65625 24 L 23.75 24 C 23.140625 21.652344 21.472656 19.714844 19.3125 18.71875 C 20.339844 17.800781 21 16.476563 21 15 C 21 12.25 18.75 10 16 10 Z M 16 12 C 17.667969 12 19 13.332031 19 15 C 19 16.667969 17.667969 18 16 18 C 14.332031 18 13 16.667969 13 15 C 13 13.332031 14.332031 12 16 12 Z "></path>
</g>
</svg>
