<?xml version="1.0" encoding="UTF-8"?>
<svg xmlns="http://www.w3.org/2000/svg" xmlns:xlink="http://www.w3.org/1999/xlink" viewBox="0 0 32 32" version="1.1">
<g>
<path d="M 3 5 L 3 27 L 29 27 L 29 5 Z M 5 7 L 27 7 L 27 25 L 5 25 Z M 16 10 C 13.25 10 11 12.25 11 15 C 11 16.476563 11.660156 17.800781 12.6875 18.71875 C 10.527344 19.714844 8.859375 21.652344 8.25 24 L 10.34375 24 C 11.167969 21.671875 13.394531 20 16 20 C 18.605469 20 20.832031 21.671875 21.65625 24 L 23.75 24 C 23.148438 21.675781 21.503906 19.753906 19.375 18.75 C 19.882813 18.445313 20.398438 18.136719 20.875 17.8125 C 22.398438 16.78125 23.65625 15.78125 23.65625 15.78125 L 24.5625 15 L 23.65625 14.21875 C 23.65625 14.21875 22.398438 13.21875 20.875 12.1875 C 20.113281 11.671875 19.292969 11.125 18.46875 10.71875 C 17.644531 10.3125 16.855469 10 16 10 Z M 16 12 C 16.25 12 16.898438 12.1875 17.59375 12.53125 C 18.289063 12.875 19.066406 13.328125 19.78125 13.8125 C 20.636719 14.394531 20.839844 14.628906 21.3125 15 C 20.839844 15.371094 20.636719 15.605469 19.78125 16.1875 C 19.066406 16.671875 18.289063 17.125 17.59375 17.46875 C 16.898438 17.8125 16.25 18 16 18 C 14.332031 18 13 16.667969 13 15 C 13 13.332031 14.332031 12 16 12 Z "></path>
</g>
</svg>
