<?xml version="1.0" encoding="UTF-8"?>
<svg xmlns="http://www.w3.org/2000/svg" xmlns:xlink="http://www.w3.org/1999/xlink" viewBox="0 0 32 32" version="1.1">
<g>
<path d="M 16 4 C 9.382813 4 4 9.382813 4 16 C 4 20.175781 6.132813 23.847656 9.375 26 L 9 26 L 9 28 L 23 28 L 23 26 L 22.625 26 C 25.867188 23.847656 28 20.175781 28 16 C 28 9.382813 22.617188 4 16 4 Z M 16 6 C 21.535156 6 26 10.464844 26 16 C 26 21.535156 21.535156 26 16 26 C 10.464844 26 6 21.535156 6 16 C 6 10.464844 10.464844 6 16 6 Z M 16 10 C 12.699219 10 10 12.699219 10 16 C 10 19.300781 12.699219 22 16 22 C 19.300781 22 22 19.300781 22 16 C 22 12.699219 19.300781 10 16 10 Z M 16 12 C 18.222656 12 20 13.777344 20 16 C 20 18.222656 18.222656 20 16 20 C 13.777344 20 12 18.222656 12 16 C 12 13.777344 13.777344 12 16 12 Z M 16 14 C 14.894531 14 14 14.894531 14 16 C 14 17.105469 14.894531 18 16 18 C 17.105469 18 18 17.105469 18 16 C 18 15.796875 17.960938 15.589844 17.90625 15.40625 C 17.746094 15.75 17.402344 16 17 16 C 16.449219 16 16 15.550781 16 15 C 16 14.597656 16.25 14.253906 16.59375 14.09375 C 16.410156 14.039063 16.203125 14 16 14 Z "></path>
</g>
</svg>
