<?xml version="1.0" encoding="UTF-8"?>
<svg xmlns="http://www.w3.org/2000/svg" xmlns:xlink="http://www.w3.org/1999/xlink" viewBox="0 0 32 32" version="1.1">
<g>
<path d="M 10 4 L 10 8 L 12 8 L 12 4 Z M 15 4 L 15 8 L 17 8 L 17 4 Z M 20 4 L 20 8 L 22 8 L 22 4 Z M 6 9 L 6 10 C 6 13.246094 7.5625 16.140625 9.96875 17.96875 L 6.9375 27.25 L 8.84375 27.84375 L 10.40625 23 L 21.46875 23 L 21.71875 23.78125 C 21.285156 24.230469 21 24.832031 21 25.5 C 21 26.867188 22.132813 28 23.5 28 C 24.867188 28 26 26.867188 26 25.5 C 26 24.152344 24.902344 23.035156 23.5625 23 L 22.03125 17.9375 C 24.429688 16.109375 26 13.238281 26 10 L 26 9 Z M 8.1875 11 L 23.8125 11 C 23.304688 14.933594 20.078125 18 16 18 C 11.921875 18 8.695313 14.933594 8.1875 11 Z M 11.71875 19 C 13.023438 19.625 14.460938 20 16 20 C 17.527344 20 18.953125 19.644531 20.25 19.03125 L 20.84375 21 L 11.0625 21 Z M 23.5 25 C 23.789063 25 24 25.210938 24 25.5 C 24 25.789063 23.789063 26 23.5 26 C 23.210938 26 23 25.789063 23 25.5 C 23 25.210938 23.210938 25 23.5 25 Z "></path>
</g>
</svg>
