<?xml version="1.0"?>
<svg xmlns="http://www.w3.org/2000/svg" viewBox="0 0 32 32">
    <path d="M 16 3 C 11.98632 3 8.4117929 4.8303083 6.0273438 7.6894531 L 6.0136719 7.6777344 C 5.7540254 7.9889811 5.5114091 8.3152465 5.28125 8.6503906 C 5.2794038 8.6530772 5.2772349 8.6555151 5.2753906 8.6582031 C 3.8425163 10.748015 3 13.278783 3 16 C 3 23.167516 8.8324839 29 16 29 C 16.80295 29 17.587408 28.919307 18.351562 28.779297 C 18.354194 28.778815 18.356744 28.777827 18.359375 28.777344 C 18.793363 28.697549 19.222462 28.604304 19.640625 28.482422 L 19.634766 28.458984 C 21.237437 27.988644 22.717238 27.232184 24 26.226562 L 21.457031 23.382812 L 18.544922 26.003906 L 13.300781 20.181641 L 14.654297 18.962891 L 11.119141 15.037109 L 12.550781 13.748047 L 8.9941406 9.8007812 L 14.625 4.5976562 L 16.560547 6.6503906 L 19.505859 4 L 21.060547 5.7265625 L 22.283203 4.6269531 C 20.420203 3.5959531 18.281 3 16 3 z M 23.859375 6.1289062 L 22.597656 7.265625 L 23.734375 8.5292969 L 24.996094 7.3925781 L 23.859375 6.1289062 z M 19.527344 6.4453125 L 17.423828 8.3398438 L 19.318359 10.445312 L 21.421875 8.5507812 L 19.527344 6.4453125 z M 14.498047 7.3378906 L 11.65625 9.8964844 L 14.214844 12.738281 L 17.056641 10.179688 L 14.498047 7.3378906 z M 6.6621094 10.199219 L 9.7246094 13.599609 L 8.2949219 14.888672 L 9.6328125 16.373047 L 11.828125 18.8125 L 10.474609 20.03125 L 16.726562 26.974609 C 16.486458 26.990233 16.244397 27 16 27 C 9.9135161 27 5 22.086484 5 16 C 5 13.864138 5.6128089 11.882965 6.6621094 10.199219 z M 25.832031 10.777344 L 24.570312 11.914062 L 25.707031 13.175781 L 26.96875 12.039062 L 25.832031 10.777344 z M 21.683594 11.167969 L 19.580078 13.0625 L 21.474609 15.167969 L 23.578125 13.273438 L 21.683594 11.167969 z M 16.714844 12.636719 L 13.873047 15.195312 L 16.431641 18.037109 L 19.273438 15.478516 L 16.714844 12.636719 z M 27.802734 15.376953 L 26.539062 16.513672 L 27.675781 17.775391 L 28.939453 16.638672 L 27.802734 15.376953 z M 23.667969 16.097656 L 21.5625 17.992188 L 23.457031 20.097656 L 25.5625 18.203125 L 23.667969 16.097656 z M 18.919922 17.982422 L 16.078125 20.541016 L 18.636719 23.382812 L 21.478516 20.824219 L 18.919922 17.982422 z M 25.722656 20.804688 L 23.617188 22.699219 L 25.511719 24.804688 L 27.617188 22.910156 L 25.722656 20.804688 z"></path>
</svg>
