<?xml version="1.0" encoding="UTF-8"?>
<svg xmlns="http://www.w3.org/2000/svg" xmlns:xlink="http://www.w3.org/1999/xlink" viewBox="0 0 32 32" version="1.1">
<g>
<path d="M 9 4 L 9 5 L 5 5 L 5 27 L 27 27 L 27 5 L 23 5 L 23 4 L 21 4 L 21 5 L 11 5 L 11 4 Z M 7 7 L 9 7 L 9 8 L 11 8 L 11 7 L 21 7 L 21 8 L 23 8 L 23 7 L 25 7 L 25 9 L 7 9 Z M 7 11 L 25 11 L 25 25 L 7 25 Z M 13.5 14 C 12.117188 14 11 15.117188 11 16.5 C 11 19.003906 16 22 16 22 C 16 22 21 19.003906 21 16.5 C 21 15.117188 19.882813 14 18.5 14 C 17.117188 14 16 15.117188 16 16.5 C 16 15.117188 14.882813 14 13.5 14 Z "></path>
</g>
</svg>
