<?xml version="1.0" encoding="UTF-8"?>
<svg xmlns="http://www.w3.org/2000/svg" xmlns:xlink="http://www.w3.org/1999/xlink" viewBox="0 0 32 32" version="1.1">
<g>
<path d="M 29 18 C 29 15.757813 27.242188 14 25 14 L 17.816406 14 C 19.488281 12.808594 22 10.664063 22 8.5 C 22 6.570313 20.429688 5 18.5 5 C 17.519531 5 16.636719 5.402344 16 6.054688 C 15.363281 5.402344 14.480469 5 13.5 5 C 11.570313 5 10 6.570313 10 8.5 C 10 10.664063 12.511719 12.808594 14.183594 14 L 7 14 C 4.757813 14 3 15.757813 3 18 C 3 19.03125 3.382813 19.945313 4 20.648438 L 4 27 L 28 27 L 28 20.648438 C 28.617188 19.945313 29 19.03125 29 18 Z M 12 8.5 C 12 7.671875 12.671875 7 13.5 7 C 14.328125 7 15 7.671875 15 8.5 L 17 8.5 C 17 7.671875 17.671875 7 18.5 7 C 19.328125 7 20 7.671875 20 8.5 C 20 9.714844 17.808594 11.636719 16 12.820313 C 14.191406 11.636719 12 9.714844 12 8.5 Z M 7 16 L 25 16 C 26.140625 16 27 16.859375 27 18 C 27 19.140625 26.140625 20 25 20 C 23.859375 20 23 19.140625 23 18 L 21 18 C 21 19.140625 20.140625 20 19 20 C 17.859375 20 17 19.140625 17 18 L 15 18 C 15 19.140625 14.140625 20 13 20 C 11.859375 20 11 19.140625 11 18 L 9 18 C 9 19.140625 8.140625 20 7 20 C 5.859375 20 5 19.140625 5 18 C 5 16.859375 5.859375 16 7 16 Z M 6 25 L 6 21.863281 C 6.320313 21.945313 6.652344 22 7 22 C 8.214844 22 9.273438 21.476563 10 20.648438 C 10.726563 21.476563 11.785156 22 13 22 C 14.214844 22 15.273438 21.476563 16 20.648438 C 16.726563 21.476563 17.785156 22 19 22 C 20.214844 22 21.273438 21.476563 22 20.648438 C 22.726563 21.476563 23.785156 22 25 22 C 25.347656 22 25.679688 21.945313 26 21.863281 L 26 25 Z "></path>
</g>
</svg>
