<?xml version="1.0" encoding="UTF-8"?>
<svg xmlns="http://www.w3.org/2000/svg" xmlns:xlink="http://www.w3.org/1999/xlink" viewBox="0 0 32 32" version="1.1">
<g>
<path d="M 9 4 L 9 5 L 5 5 L 5 27 L 27 27 L 27 5 L 23 5 L 23 4 L 21 4 L 21 5 L 11 5 L 11 4 Z M 7 7 L 9 7 L 9 8 L 11 8 L 11 7 L 21 7 L 21 8 L 23 8 L 23 7 L 25 7 L 25 9 L 7 9 Z M 7 11 L 25 11 L 25 25 L 7 25 Z M 8 14 L 8 15.15625 L 8.0625 15.3125 L 10 21.3125 L 10.21875 22 L 11.78125 22 L 12 21.3125 L 12.5 19.71875 L 13 21.3125 L 13.21875 22 L 14.78125 22 L 15 21.3125 L 16.9375 15.3125 L 17 15.15625 L 17 14 L 15 14 L 15 14.875 L 14.03125 17.84375 L 13.5 16.1875 L 13.28125 15.5 L 11.71875 15.5 L 11.5 16.1875 L 10.96875 17.84375 L 10 14.875 L 10 14 Z M 18 14 L 18 22 L 23 22 L 23 20 L 20 20 L 20 19 L 22 19 L 22 17 L 20 17 L 20 16 L 23 16 L 23 14 Z "></path>
</g>
</svg>
