<?xml version="1.0" encoding="UTF-8"?>
<svg xmlns="http://www.w3.org/2000/svg" xmlns:xlink="http://www.w3.org/1999/xlink" viewBox="0 0 32 32" version="1.1">
<g>
<path d="M 6.21875 5.28125 L 5.3125 5.6875 L 2.71875 6.875 L 1.8125 7.28125 L 2.21875 8.1875 L 4.71875 13.6875 L 5.125 14.59375 L 6.03125 14.1875 L 8.625 13 L 9.5625 12.59375 L 9.125 11.6875 L 8.25 9.75 C 8.425781 9.648438 8.851563 9.410156 9.6875 9.09375 C 9.835938 9.894531 10.078125 11.019531 10.625 12.375 C 10.972656 13.242188 11.421875 14.132813 12.03125 14.90625 L 13.125 22.59375 L 6.53125 26.125 L 7.46875 27.875 L 18.5 21.96875 L 21 22 L 21 28 L 23 28 L 23 20 L 22 20 L 19.3125 19.96875 L 19.5 15.4375 C 20.363281 14.546875 20.941406 13.449219 21.375 12.375 C 21.941406 10.96875 22.167969 9.820313 22.3125 9.03125 C 22.9375 9.238281 23.429688 9.429688 23.8125 9.59375 L 22.875 11.6875 L 22.46875 12.59375 L 23.375 13 L 25.96875 14.15625 L 26.875 14.59375 L 27.28125 13.65625 L 29.78125 8.1875 L 30.1875 7.28125 L 29.28125 6.84375 L 26.6875 5.6875 L 25.78125 5.28125 L 25.375 6.1875 L 24.65625 7.78125 C 23.175781 7.148438 19.984375 6 16 6 C 11.46875 6 8.417969 7.390625 7.4375 7.90625 L 6.65625 6.1875 Z M 26.78125 7.90625 L 27.5625 8.25 L 25.875 11.9375 L 25.125 11.59375 Z M 5.25 7.9375 L 6.90625 11.59375 L 6.125 11.9375 L 4.46875 8.28125 Z M 16 8 C 17.640625 8 19.105469 8.214844 20.375 8.5 C 20.273438 9.136719 20.082031 10.265625 19.53125 11.625 C 19.15625 12.550781 18.65625 13.453125 18.0625 14.0625 C 17.46875 14.671875 16.84375 15 16 15 C 15.15625 15 14.53125 14.671875 13.9375 14.0625 C 13.34375 13.453125 12.84375 12.550781 12.46875 11.625 C 11.929688 10.289063 11.730469 9.183594 11.625 8.53125 C 12.820313 8.246094 14.28125 8 16 8 Z M 16 8 C 14.355469 8 13 9.355469 13 11 C 13 12.644531 14.355469 14 16 14 C 17.644531 14 19 12.644531 19 11 C 19 9.355469 17.644531 8 16 8 Z M 16 10 C 16.5625 10 17 10.4375 17 11 C 17 11.5625 16.5625 12 16 12 C 15.4375 12 15 11.5625 15 11 C 15 10.4375 15.4375 10 16 10 Z M 14.28125 16.65625 C 14.808594 16.871094 15.378906 17 16 17 C 16.515625 17 16.988281 16.902344 17.4375 16.75 L 17.3125 20.34375 L 14.96875 21.59375 Z "></path>
</g>
</svg>
