<?xml version="1.0"?>
<svg xmlns="http://www.w3.org/2000/svg" viewBox="0 0 32 32">
    <path d="M 7 8 L 7 16 L 9 16 L 9 8 L 7 8 z M 23 8 L 23 16 L 25 16 L 25 8 L 23 8 z M 4 9 L 4 18.585938 L 1.7070312 16.292969 L 0.29296875 17.707031 L 5.2929688 22.707031 L 5.3242188 22.675781 C 6.1725689 23.425839 7.4971391 24 9.5097656 24 C 10.949766 24 12.029844 23.630078 12.839844 23.080078 C 12.329844 22.650078 11.800547 22.170391 11.310547 21.650391 C 10.850547 21.860391 10.259766 22 9.5097656 22 C 6.2097656 22 6.01 20.17 6 20 L 6 9 L 4 9 z M 10 9 L 10 14.599609 C 10.51 13.989609 11.2 13.51 12 13.25 L 12 9 L 10 9 z M 20 9 L 20 13.25 C 20.8 13.51 21.49 13.989609 22 14.599609 L 22 9 L 20 9 z M 26 9 L 26 19.960938 C 25.99 20.170938 25.790234 22 22.490234 22 C 21.780234 22 21.209766 21.879687 20.759766 21.679688 C 20.259766 22.209688 19.720938 22.699141 19.210938 23.119141 C 20.010938 23.649141 21.090234 24 22.490234 24 C 24.502374 24 25.82545 23.425682 26.673828 22.673828 L 26.707031 22.707031 L 31.707031 17.707031 L 30.292969 16.292969 L 28 18.585938 L 28 9 L 26 9 z M 13 11 L 13 13.029297 C 13.16 13.009297 13.33 13 13.5 13 C 14.02 13 14.53 13.09 15 13.25 L 15 11 L 13 11 z M 17 11 L 17 13.25 C 17.47 13.09 17.98 13 18.5 13 C 18.67 13 18.84 13.009297 19 13.029297 L 19 11 L 17 11 z M 13.5 15 C 12.119 15 11 16.022156 11 17.285156 C 11 19.509156 16 23 16 23 C 16 23 21 19.768156 21 17.285156 C 21 16.022156 19.881 15 18.5 15 C 17.119 15 16 16.022156 16 17.285156 C 16 16.022156 14.881 15 13.5 15 z"></path>
</svg>
