<?xml version="1.0" encoding="UTF-8"?>
<svg xmlns="http://www.w3.org/2000/svg" xmlns:xlink="http://www.w3.org/1999/xlink" viewBox="0 0 32 32" version="1.1">
<g>
<path d="M 4 3 L 4 29 L 24 29 L 24 8 L 25 8 L 25 12 L 29 12 L 29 10 L 27 10 L 27 6 L 24 6 L 24 3 L 22 3 L 22 6 L 6 6 L 6 3 Z M 6 8 L 13 8 L 13 11 L 15 11 L 15 8 L 22 8 L 22 22 L 17.1875 22 L 18 17.15625 L 18.1875 16 L 18 16 C 18 13.800781 16.199219 12 14 12 C 11.800781 12 10 13.800781 10 16 L 9.8125 16 L 10 17.15625 L 10.8125 22 L 6 22 Z M 14 14 C 15.117188 14 16 14.882813 16 16 L 12 16 C 12 14.882813 12.882813 14 14 14 Z M 12.1875 18 L 15.8125 18 L 15.125 22 L 12.875 22 Z M 6 24 L 22 24 L 22 27 L 6 27 Z "></path>
</g>
</svg>
