<?xml version="1.0" encoding="UTF-8"?>
<svg xmlns="http://www.w3.org/2000/svg" xmlns:xlink="http://www.w3.org/1999/xlink" viewBox="0 0 32 32" version="1.1">
<g>
<path d="M 29 16 C 29 8.832031 23.167969 3 16 3 C 8.832031 3 3 8.832031 3 16 C 3 18.902344 3.988281 21.738281 5.773438 24.019531 C 5.316406 25.515625 5 27.195313 5 29 L 7 29 C 7 23.246094 10.730469 18.6875 10.769531 18.640625 L 11.480469 17.785156 L 9.234375 16.289063 C 10.023438 16.089844 10.976563 15.9375 11.933594 15.996094 L 12.394531 16.027344 L 12.71875 15.695313 C 13.535156 14.855469 14.644531 14.027344 15 14 C 15.457031 14 15.980469 14.414063 16.199219 14.621094 L 16.488281 14.914063 C 17.890625 13.535156 19.574219 12.265625 20.351563 11.964844 C 19.464844 13.066406 18 15.160156 18 17 C 18 18.195313 18.484375 18.890625 18.886719 19.261719 C 18.914063 19.285156 18.945313 19.296875 18.972656 19.320313 C 17.324219 20.480469 16 21.550781 16 23 C 16 24.347656 16.605469 25.53125 17.140625 26.574219 C 17.582031 27.441406 18 28.261719 18 29 L 20 29 C 20 28.789063 19.964844 28.59375 19.9375 28.390625 C 25.320313 26.695313 29 21.742188 29 16 Z M 6.628906 21.742188 C 5.578125 20.023438 5 18.03125 5 16 C 5 15.957031 5.007813 15.914063 5.007813 15.871094 L 8.570313 18.246094 C 8.046875 19 7.304688 20.21875 6.628906 21.742188 Z M 19.328125 26.488281 C 19.195313 26.210938 19.058594 25.9375 18.921875 25.667969 C 18.445313 24.738281 18 23.863281 18 23 C 18 22.429688 19.621094 21.304688 20.691406 20.558594 C 22.363281 19.394531 24.261719 18.074219 24.929688 16.363281 L 23.066406 15.636719 C 22.753906 16.441406 21.84375 17.246094 20.828125 18 C 20.683594 17.992188 20.414063 17.953125 20.234375 17.785156 C 20.078125 17.636719 20 17.371094 20 17 C 20 16.203125 20.578125 15.09375 21.242188 14.121094 L 23 15 C 23 15 22.773438 13.707031 22.046875 13.050781 C 22.1875 12.878906 22.324219 12.722656 22.453125 12.585938 L 22.941406 12.054688 L 22.59375 11.425781 C 22.535156 11.316406 22.261719 10.855469 21.871094 10.457031 C 21.90625 10.355469 21.9375 10.253906 21.9375 10.140625 C 21.9375 9.5625 21.472656 9.09375 20.90625 9.09375 C 20.371094 9.09375 19.945313 9.511719 19.894531 10.039063 C 18.941406 10.316406 17.757813 11.078125 16.339844 12.324219 C 15.945313 12.140625 15.492188 12 15 12 C 13.835938 12 12.402344 13.210938 11.601563 13.984375 C 9.015625 13.964844 6.683594 15.046875 6.578125 15.09375 L 5.007813 15.824219 C 5.101563 9.839844 9.992188 5 16 5 C 22.066406 5 27 9.933594 27 16 C 27 20.859375 23.886719 25.054688 19.328125 26.488281 Z "></path>
</g>
</svg>
