<?xml version="1.0" encoding="UTF-8"?>
<svg xmlns="http://www.w3.org/2000/svg" xmlns:xlink="http://www.w3.org/1999/xlink" viewBox="0 0 32 32" version="1.1">
<g>
<path d="M 15 3 L 15 5.03125 C 10.605469 5.425781 6.96875 8.433594 5.59375 12.46875 L 8.53125 11 C 9.972656 8.847656 12.300781 7.363281 15 7.0625 L 15 9 L 17 9 L 17 7.0625 C 21.152344 7.53125 24.46875 10.847656 24.9375 15 L 23 15 L 23 17 L 24.9375 17 C 24.46875 21.152344 21.152344 24.46875 17 24.9375 L 17 23 L 15 23 L 15 24.9375 C 12.300781 24.636719 9.972656 23.152344 8.53125 21 L 5.59375 19.53125 C 6.96875 23.566406 10.605469 26.574219 15 26.96875 L 15 29 L 17 29 L 17 26.9375 C 22.269531 26.460938 26.460938 22.269531 26.9375 17 L 29 17 L 29 15 L 26.9375 15 C 26.460938 9.730469 22.269531 5.539063 17 5.0625 L 17 3 Z M 9 13 L 3 16 L 9 19 L 8 16 Z "></path>
</g>
</svg>
