<?xml version="1.0" encoding="UTF-8"?>
<svg xmlns="http://www.w3.org/2000/svg" xmlns:xlink="http://www.w3.org/1999/xlink" viewBox="0 0 32 32" version="1.1">
<g>
<path d="M 21.09375 5.1875 L 5.5625 11.625 L 5 11.84375 L 4.9375 12.4375 L 4 20.625 L 3.9375 21.1875 L 4.375 21.53125 L 10.84375 26.65625 L 11.3125 27.03125 L 11.84375 26.8125 L 27.375 20.375 L 26.625 18.53125 L 11.625 24.71875 L 6.0625 20.3125 L 6.875 13.25 L 21.875 7.03125 Z M 25.28125 9.375 L 23.9375 9.90625 L 25.09375 13.75 L 23.03125 10.3125 L 21.75 10.8125 L 22.78125 14.71875 L 20.84375 11.21875 L 19.5 11.78125 L 22.59375 16.71875 L 24.125 16.09375 L 23.09375 12.3125 L 23.125 12.3125 L 25.0625 15.6875 L 26.59375 15.0625 Z M 17.90625 12.5 C 17.621094 12.492188 17.285156 12.570313 16.875 12.75 C 15.222656 13.464844 15.605469 14.570313 15.8125 15.125 C 16.589844 17.015625 18.515625 15.59375 19 16.65625 C 19.195313 17.085938 18.894531 17.28125 18.75 17.34375 C 18.195313 17.582031 18 16.78125 18 16.78125 L 16.65625 17.34375 L 16.71875 17.53125 C 17.339844 19.132813 18.792969 18.351563 19.125 18.25 C 20.886719 17.515625 20.578125 16.441406 20.34375 15.875 C 19.554688 13.941406 17.441406 15.339844 17.03125 14.3125 C 16.984375 14.195313 16.914063 13.808594 17.28125 13.65625 C 17.742188 13.464844 17.96875 14.21875 17.96875 14.21875 L 19.28125 13.65625 C 19.097656 13.226563 18.757813 12.527344 17.90625 12.5 Z M 14.34375 13.90625 L 13 14.4375 L 14.15625 18.28125 L 12.09375 14.84375 L 10.8125 15.34375 L 11.84375 19.25 L 9.90625 15.75 L 8.5625 16.3125 L 11.65625 21.25 L 13.1875 20.625 L 12.15625 16.84375 L 12.1875 16.84375 L 14.125 20.21875 L 15.65625 19.59375 Z "></path>
</g>
</svg>
