<?xml version="1.0" encoding="UTF-8"?>
<svg xmlns="http://www.w3.org/2000/svg" xmlns:xlink="http://www.w3.org/1999/xlink" viewBox="0 0 32 32" version="1.1">
<g>
<path d="M 7.40625 6 L 7.125 6.5 L 2.125 15.5 L 1.84375 16 L 2.125 16.5 L 7.125 25.5 L 7.40625 26 L 29 26 L 29 24 L 8.59375 24 L 4.15625 16 L 8.59375 8 L 29 8 L 29 6 Z M 13 12 L 13 13.15625 L 13.0625 13.3125 L 15 19.3125 L 15.21875 20 L 16.78125 20 L 17 19.3125 L 17.5 17.71875 L 18 19.3125 L 18.21875 20 L 19.78125 20 L 20 19.3125 L 21.9375 13.3125 L 22 13.15625 L 22 12 L 20 12 L 20 12.875 L 19.03125 15.84375 L 18.5 14.1875 L 18.28125 13.5 L 16.71875 13.5 L 16.5 14.1875 L 15.96875 15.84375 L 15 12.875 L 15 12 Z "></path>
</g>
</svg>
