<?xml version="1.0" encoding="UTF-8"?>
<svg xmlns="http://www.w3.org/2000/svg" xmlns:xlink="http://www.w3.org/1999/xlink" viewBox="0 0 32 32" version="1.1">
<g>
<path d="M 18 3.25 L 17.1875 4.4375 C 17.1875 4.4375 16.398438 5.542969 15.625 6.875 C 15.238281 7.542969 14.867188 8.273438 14.5625 8.96875 C 14.257813 9.664063 14 10.285156 14 11 C 14 13.199219 15.800781 15 18 15 C 20.199219 15 22 13.199219 22 11 C 22 10.285156 21.742188 9.664063 21.4375 8.96875 C 21.132813 8.273438 20.761719 7.542969 20.375 6.875 C 19.601563 5.542969 18.8125 4.4375 18.8125 4.4375 Z M 18 6.875 C 18.257813 7.273438 18.308594 7.332031 18.625 7.875 C 18.988281 8.5 19.367188 9.195313 19.625 9.78125 C 19.882813 10.367188 20 10.886719 20 11 C 20 12.117188 19.117188 13 18 13 C 16.882813 13 16 12.117188 16 11 C 16 10.886719 16.117188 10.367188 16.375 9.78125 C 16.632813 9.195313 17.011719 8.5 17.375 7.875 C 17.691406 7.332031 17.742188 7.273438 18 6.875 Z M 9 11.25 L 8.1875 12.4375 C 8.1875 12.4375 7.398438 13.542969 6.625 14.875 C 6.238281 15.542969 5.867188 16.273438 5.5625 16.96875 C 5.257813 17.664063 5 18.285156 5 19 C 5 21.199219 6.800781 23 9 23 C 11.199219 23 13 21.199219 13 19 C 13 18.285156 12.742188 17.664063 12.4375 16.96875 C 12.132813 16.273438 11.761719 15.542969 11.375 14.875 C 10.601563 13.542969 9.8125 12.4375 9.8125 12.4375 Z M 9 14.875 C 9.257813 15.273438 9.308594 15.332031 9.625 15.875 C 9.988281 16.5 10.367188 17.195313 10.625 17.78125 C 10.882813 18.367188 11 18.886719 11 19 C 11 20.117188 10.117188 21 9 21 C 7.882813 21 7 20.117188 7 19 C 7 18.886719 7.117188 18.367188 7.375 17.78125 C 7.632813 17.195313 8.011719 16.5 8.375 15.875 C 8.691406 15.332031 8.742188 15.273438 9 14.875 Z M 23 15.25 L 22.1875 16.4375 C 22.1875 16.4375 21.398438 17.542969 20.625 18.875 C 20.238281 19.542969 19.867188 20.273438 19.5625 20.96875 C 19.257813 21.664063 19 22.285156 19 23 C 19 25.199219 20.800781 27 23 27 C 25.199219 27 27 25.199219 27 23 C 27 22.285156 26.742188 21.664063 26.4375 20.96875 C 26.132813 20.273438 25.761719 19.542969 25.375 18.875 C 24.601563 17.542969 23.8125 16.4375 23.8125 16.4375 Z M 23 18.875 C 23.257813 19.273438 23.308594 19.332031 23.625 19.875 C 23.988281 20.5 24.367188 21.195313 24.625 21.78125 C 24.882813 22.367188 25 22.886719 25 23 C 25 24.117188 24.117188 25 23 25 C 21.882813 25 21 24.117188 21 23 C 21 22.886719 21.117188 22.367188 21.375 21.78125 C 21.632813 21.195313 22.011719 20.5 22.375 19.875 C 22.691406 19.332031 22.742188 19.273438 23 18.875 Z "></path>
</g>
</svg>
