<?xml version="1.0" encoding="UTF-8"?>
<svg xmlns="http://www.w3.org/2000/svg" xmlns:xlink="http://www.w3.org/1999/xlink" viewBox="0 0 32 32" version="1.1">
<g>
<path d="M 12 5 L 12 7 L 10 7 L 10 10.84375 L 8.875 11 L 8 11.125 L 8 12.9375 L 8.125 13.15625 L 9 14.8125 L 9 18.625 L 16 22.125 L 23 18.625 L 23 14.8125 L 23.875 13.15625 L 24 12.9375 L 24 11.125 L 23.125 11 L 22 10.84375 L 22 7 L 20 7 L 20 5 Z M 14 7 L 18 7 L 18 9 L 20 9 L 20 10.5625 L 16.125 10.03125 L 16 10 L 15.875 10.03125 L 12 10.5625 L 12 9 L 14 9 Z M 4 12 L 4 27 L 28 27 L 28 12 L 26 12 L 26 20.9375 L 24.375 19.625 L 22.40625 20.59375 L 26 23.46875 L 26 25 L 6 25 L 6 23.46875 L 9.59375 20.59375 L 7.625 19.625 L 6 20.9375 L 6 12 Z M 16 12.03125 L 21.78125 12.84375 L 21.125 14.125 L 21 14.34375 L 21 17.375 L 16 19.875 L 11 17.375 L 11 14.34375 L 10.875 14.125 L 10.21875 12.84375 Z "></path>
</g>
</svg>
