<?xml version="1.0" encoding="UTF-8"?>
<svg xmlns="http://www.w3.org/2000/svg" xmlns:xlink="http://www.w3.org/1999/xlink" viewBox="0 0 32 32" version="1.1">
<g>
<path d="M 27.625 4 C 26.953125 4.046875 25.527344 4.230469 24.78125 4.96875 C 23.632813 6.183594 24.019531 7.554688 24.25 7.78125 C 24.480469 7.933594 25.871094 8.402344 27.09375 7.1875 C 28.011719 6.203125 28 4 28 4 C 28 4 27.847656 3.984375 27.625 4 Z M 22.84375 5 C 21.875 5.074219 20.417969 5.96875 20.09375 7.25 C 19.691406 8.832031 20.664063 9.894531 20.90625 9.96875 C 21.148438 10.042969 22.078125 9.46875 22.5625 8.1875 C 23.210938 6.453125 22.925781 4.925781 22.84375 5 Z M 18.71875 7.8125 C 18.71875 7.8125 17 8.769531 17 10.6875 C 17 12.605469 17.738281 13.03125 18.21875 13.03125 C 18.699219 13.03125 19.59375 12.113281 19.59375 10.75 C 19.59375 8.765625 18.71875 7.8125 18.71875 7.8125 Z M 26.0625 9 C 25.46875 8.996094 24.679688 9.113281 23.8125 9.4375 C 22.53125 9.921875 21.957031 10.851563 22.03125 11.09375 C 22.105469 11.335938 23.167969 12.3125 24.75 11.90625 C 26.03125 11.582031 26.925781 10.125 27 9.15625 C 27.039063 9.117188 26.65625 9.003906 26.0625 9 Z M 15.71875 10.8125 C 15.71875 10.8125 14 11.769531 14 13.6875 C 14 15.601563 14.738281 16.03125 15.21875 16.03125 C 15.269531 16.03125 15.347656 15.988281 15.40625 15.96875 C 15.546875 15.914063 15.722656 15.808594 15.875 15.65625 C 16.253906 15.273438 16.59375 14.601563 16.59375 13.75 C 16.59375 11.765625 15.71875 10.8125 15.71875 10.8125 Z M 21.25 12.40625 C 19.886719 12.40625 18.96875 13.300781 18.96875 13.78125 C 18.96875 14.261719 19.394531 15 21.3125 15 C 23.230469 15 24.1875 13.28125 24.1875 13.28125 C 24.1875 13.28125 23.234375 12.40625 21.25 12.40625 Z M 12.71875 13.8125 C 12.71875 13.8125 11 14.769531 11 16.6875 C 11 18.601563 11.738281 19.03125 12.21875 19.03125 C 12.699219 19.03125 13.59375 18.113281 13.59375 16.75 C 13.59375 14.765625 12.71875 13.8125 12.71875 13.8125 Z M 18.25 15.40625 C 17.226563 15.40625 16.441406 15.890625 16.125 16.34375 C 16.019531 16.496094 15.96875 16.660156 15.96875 16.78125 C 15.96875 16.960938 16.042969 17.171875 16.21875 17.375 C 16.277344 17.441406 16.320313 17.5 16.40625 17.5625 C 16.746094 17.816406 17.335938 18 18.3125 18 C 20.230469 18 21.1875 16.28125 21.1875 16.28125 C 21.1875 16.28125 21.121094 16.207031 21 16.125 C 20.886719 16.046875 20.695313 15.949219 20.46875 15.84375 C 20.460938 15.839844 20.445313 15.847656 20.4375 15.84375 C 20.316406 15.789063 20.183594 15.738281 20.03125 15.6875 C 19.574219 15.535156 18.996094 15.40625 18.25 15.40625 Z M 9.71875 16.8125 C 9.71875 16.8125 8 17.769531 8 19.6875 C 8 21.605469 8.738281 22.03125 9.21875 22.03125 C 9.699219 22.03125 10.59375 21.113281 10.59375 19.75 C 10.59375 17.765625 9.71875 16.8125 9.71875 16.8125 Z M 15.25 18.40625 C 13.886719 18.40625 12.96875 19.300781 12.96875 19.78125 C 12.96875 20.261719 13.394531 21 15.3125 21 C 17.230469 21 18.1875 19.28125 18.1875 19.28125 C 18.1875 19.28125 17.234375 18.40625 15.25 18.40625 Z M 12.25 21.40625 C 10.886719 21.40625 9.96875 22.300781 9.96875 22.78125 C 9.96875 23.261719 10.394531 24 12.3125 24 C 14.230469 24 15.1875 22.28125 15.1875 22.28125 C 15.1875 22.28125 14.234375 21.40625 12.25 21.40625 Z M 7.5 23.09375 L 4 26.59375 L 5.40625 28 L 8.90625 24.5 C 8.617188 24.144531 8.503906 23.78125 8.46875 23.53125 C 8.21875 23.496094 7.855469 23.382813 7.5 23.09375 Z "></path>
</g>
</svg>
