<?xml version="1.0" encoding="UTF-8"?>
<svg xmlns="http://www.w3.org/2000/svg" xmlns:xlink="http://www.w3.org/1999/xlink" viewBox="0 0 32 32" version="1.1">
<g>
<path d="M 16 4 C 9.382813 4 4 9.382813 4 16 C 4 22.617188 9.382813 28 16 28 C 22.617188 28 28 22.617188 28 16 C 28 9.382813 22.617188 4 16 4 Z M 16 6 C 21.535156 6 26 10.464844 26 16 C 26 21.535156 21.535156 26 16 26 C 10.464844 26 6 21.535156 6 16 C 6 10.464844 10.464844 6 16 6 Z M 15.90625 7.96875 C 15.863281 7.976563 15.820313 7.988281 15.78125 8 C 15.769531 8 15.761719 8 15.75 8 C 13.035156 8.085938 10.664063 9.539063 9.28125 11.6875 C 9.101563 11.839844 8.976563 12.050781 8.9375 12.28125 C 8.347656 13.394531 8 14.65625 8 16 C 8 17.378906 8.351563 18.679688 8.96875 19.8125 C 8.980469 19.824219 8.988281 19.832031 9 19.84375 C 9.003906 19.851563 8.996094 19.867188 9 19.875 C 9.042969 19.988281 9.105469 20.09375 9.1875 20.1875 C 10.5625 22.414063 13 23.921875 15.78125 24 C 15.792969 24 15.800781 24 15.8125 24 C 15.875 24 15.9375 24 16 24 C 16.074219 24 16.144531 24.003906 16.21875 24 C 16.230469 24 16.238281 24 16.25 24 C 19.003906 23.914063 21.40625 22.417969 22.78125 20.21875 C 22.898438 20.097656 22.984375 19.945313 23.03125 19.78125 C 23.640625 18.652344 24 17.367188 24 16 C 24 14.734375 23.714844 13.535156 23.1875 12.46875 C 23.191406 12.109375 23 11.773438 22.6875 11.59375 C 22.675781 11.59375 22.667969 11.59375 22.65625 11.59375 C 21.292969 9.539063 19.015625 8.164063 16.40625 8.03125 C 16.386719 8.019531 16.363281 8.007813 16.34375 8 C 16.300781 8 16.261719 8 16.21875 8 C 16.117188 7.972656 16.011719 7.960938 15.90625 7.96875 Z M 15 10.09375 L 15 11 C 14.996094 11.359375 15.183594 11.695313 15.496094 11.878906 C 15.808594 12.058594 16.191406 12.058594 16.503906 11.878906 C 16.816406 11.695313 17.003906 11.359375 17 11 L 17 10.09375 C 18.460938 10.335938 19.726563 11.097656 20.625 12.1875 L 19.84375 12.625 C 19.359375 12.902344 19.191406 13.515625 19.46875 14 C 19.746094 14.484375 20.359375 14.652344 20.84375 14.375 L 21.625 13.9375 C 21.859375 14.582031 22 15.273438 22 16 C 22 16.726563 21.859375 17.417969 21.625 18.0625 L 20.84375 17.625 C 20.636719 17.503906 20.394531 17.457031 20.15625 17.5 C 19.730469 17.566406 19.390625 17.898438 19.320313 18.324219 C 19.25 18.75 19.460938 19.175781 19.84375 19.375 L 20.625 19.8125 C 19.726563 20.902344 18.460938 21.664063 17 21.90625 L 17 21 C 17.011719 20.710938 16.894531 20.433594 16.6875 20.238281 C 16.476563 20.039063 16.191406 19.941406 15.90625 19.96875 C 15.863281 19.976563 15.820313 19.988281 15.78125 20 C 15.316406 20.105469 14.988281 20.523438 15 21 L 15 21.90625 C 13.539063 21.664063 12.273438 20.902344 11.375 19.8125 L 12.15625 19.375 C 12.625 19.175781 12.871094 18.660156 12.726563 18.171875 C 12.582031 17.683594 12.09375 17.378906 11.59375 17.46875 C 11.5625 17.476563 11.53125 17.488281 11.5 17.5 C 11.378906 17.519531 11.261719 17.5625 11.15625 17.625 L 10.375 18.0625 C 10.140625 17.417969 10 16.726563 10 16 C 10 15.273438 10.140625 14.582031 10.375 13.9375 L 11.15625 14.375 C 11.640625 14.652344 12.253906 14.484375 12.53125 14 C 12.808594 13.515625 12.640625 12.902344 12.15625 12.625 L 11.375 12.1875 C 12.273438 11.097656 13.539063 10.335938 15 10.09375 Z M 16 13 C 14.355469 13 13 14.355469 13 16 C 13 17.644531 14.355469 19 16 19 C 17.644531 19 19 17.644531 19 16 C 19 14.355469 17.644531 13 16 13 Z M 16 15 C 16.5625 15 17 15.4375 17 16 C 17 16.5625 16.5625 17 16 17 C 15.4375 17 15 16.5625 15 16 C 15 15.4375 15.4375 15 16 15 Z "></path>
</g>
</svg>
