<?xml version="1.0" encoding="UTF-8"?>
<svg xmlns="http://www.w3.org/2000/svg" xmlns:xlink="http://www.w3.org/1999/xlink" viewBox="0 0 32 32" version="1.1">
<g>
<path d="M 20.5 3 C 18.882813 3 17.632813 3.992188 16.84375 5.28125 C 16.554688 5.1875 16.320313 5 16 5 C 14.355469 5 13 6.355469 13 8 L 10.75 8 L 11.03125 9.21875 L 12.28125 14.84375 L 5.71875 8.28125 C 5.527344 8.09375 5.265625 7.992188 5 8 L 0 8 L 0 10 L 4.5625 10 L 13.03125 18.46875 C 13.070313 18.933594 13.191406 19.984375 13.5625 21.28125 C 13.796875 22.09375 14.113281 22.941406 14.625 23.65625 C 15.136719 24.371094 15.96875 25 17 25 C 18.800781 25 20.347656 23.808594 21.59375 22.75 C 22.128906 22.296875 22.570313 21.867188 22.9375 21.5 L 23.8125 22.625 C 23.308594 23.292969 23 24.105469 23 25 C 23 27.199219 24.800781 29 27 29 C 29.199219 29 31 27.199219 31 25 C 31 22.800781 29.199219 21 27 21 C 26.425781 21 25.871094 21.121094 25.375 21.34375 L 24.21875 19.9375 L 30.84375 9.53125 L 31.8125 8 L 28.9375 8 C 28.960938 7.839844 29 7.667969 29 7.5 C 29 5.578125 27.421875 4 25.5 4 C 24.816406 4 24.222656 4.253906 23.6875 4.59375 C 22.867188 3.691406 21.8125 3 20.5 3 Z M 20.5 5 C 21.472656 5 22.296875 5.535156 22.71875 6.34375 L 24.34375 6.53125 C 24.628906 6.195313 25.039063 6 25.5 6 C 26.339844 6 27 6.660156 27 7.5 C 27 7.6875 26.878906 7.835938 26.8125 8 L 15 8 C 15 7.433594 15.433594 7 16 7 C 16.222656 7 16.417969 7.085938 16.59375 7.21875 L 18.15625 6.71875 C 18.488281 5.722656 19.390625 5 20.5 5 Z M 13.25 10 L 28.1875 10 L 22.53125 18.875 L 14.84375 17.15625 Z M 15.1875 19.28125 L 21.0625 20.59375 C 20.835938 20.808594 20.578125 21.023438 20.3125 21.25 C 19.199219 22.191406 17.761719 23 17 23 C 16.75 23 16.542969 22.878906 16.25 22.46875 C 15.957031 22.058594 15.695313 21.40625 15.5 20.71875 C 15.355469 20.210938 15.261719 19.726563 15.1875 19.28125 Z M 27 23 C 28.117188 23 29 23.882813 29 25 C 29 26.117188 28.117188 27 27 27 C 25.882813 27 25 26.117188 25 25 C 25 24.746094 25.039063 24.503906 25.125 24.28125 L 26.21875 25.625 L 27.78125 24.375 L 26.6875 23.03125 C 26.789063 23.015625 26.890625 23 27 23 Z "></path>
</g>
</svg>
