<?xml version="1.0" encoding="UTF-8"?>
<svg xmlns="http://www.w3.org/2000/svg" xmlns:xlink="http://www.w3.org/1999/xlink" viewBox="0 0 32 32" version="1.1">
<g>
<path d="M 24.21875 4.375 L 20.21875 9.375 L 21.78125 10.625 L 25.78125 5.625 Z M 18.03125 5.75 L 17.03125 9.75 L 18.96875 10.25 L 19.96875 6.25 Z M 5 12 C 3.90625 12 3 12.90625 3 14 L 3 18.5 C 3 19.867188 4.132813 21 5.5 21 C 6.578125 21 7.339844 20.214844 7.6875 19.25 L 11.15625 20.3125 C 11.582031 24.015625 14.648438 27 18.5 27 C 22.171875 27 25.234375 24.332031 25.875 20.84375 C 26.066406 20.929688 26.277344 21 26.5 21 C 27.328125 21 28 20.328125 28 19.5 C 28 18.671875 27.328125 18 26.5 18 C 26.277344 18 26.066406 18.070313 25.875 18.15625 C 25.199219 14.601563 21.910156 12 18.21875 12 L 17 12 L 17 14 L 18.21875 14 C 21.265625 14 23.910156 16.351563 24 19.34375 C 24.09375 22.476563 21.605469 25 18.5 25 C 15.460938 25 13 22.496094 13 19.5 L 13 18.75 L 12.28125 18.53125 L 8 17.25 L 8 16 L 6 16 L 6 18.5 C 6 18.785156 5.785156 19 5.5 19 C 5.214844 19 5 18.785156 5 18.5 L 5 14 L 14 14 L 14 17 L 16 17 L 16 12 Z "></path>
</g>
</svg>
