<?xml version="1.0" encoding="UTF-8"?>
<svg xmlns="http://www.w3.org/2000/svg" xmlns:xlink="http://www.w3.org/1999/xlink" viewBox="0 0 32 32" version="1.1">
<g>
<path d="M 24 3 L 24 4 L 17.40625 4 C 16.117188 4 15.003906 4.921875 14.75 6.1875 L 14.71875 6.25 L 14.71875 6.28125 L 14.0625 14 L 13.5 14 C 12.128906 14 11 15.128906 11 16.5 C 11 16.84375 11.058594 17.171875 11.1875 17.46875 C 7.613281 18.660156 5 22.039063 5 26 L 5 29 L 27 29 L 27 26 C 27 22.039063 24.386719 18.660156 20.8125 17.46875 C 20.941406 17.171875 21 16.84375 21 16.5 C 21 15.128906 19.871094 14 18.5 14 L 17.90625 14 L 17.03125 6.125 C 17.140625 6.054688 17.257813 6 17.40625 6 L 24 6 L 24 7 L 26 7 L 26 3 Z M 13.5 16 L 18.5 16 C 18.78125 16 19 16.21875 19 16.5 C 19 16.78125 18.78125 17 18.5 17 L 13.5 17 C 13.21875 17 13 16.78125 13 16.5 C 13 16.21875 13.21875 16 13.5 16 Z M 14 19 L 18 19 C 21.855469 19 25 22.144531 25 26 L 25 27 L 7 27 L 7 26 C 7 22.144531 10.144531 19 14 19 Z M 16 21 C 14.894531 21 14 21.894531 14 23 C 14 24.105469 14.894531 25 16 25 C 17.105469 25 18 24.105469 18 23 C 18 21.894531 17.105469 21 16 21 Z "></path>
</g>
</svg>
