<?xml version="1.0"?>
<svg xmlns="http://www.w3.org/2000/svg" viewBox="0 0 32 32">
    <path d="M 15 3 L 15 6.4921875 L 9 10.859375 L 9 9 L 7 9 L 7 11 L 2 11 L 2 13 L 3 13 L 3 25 L 29 25 L 29 13 L 30 13 L 30 11 L 25 11 L 25 9 L 23 9 L 23 10.859375 L 17 6.4921875 L 17 5 L 18 5 L 18 3 L 15 3 z M 16 8.2363281 L 21 11.876953 L 21 12 L 11 12 L 11 11.876953 L 16 8.2363281 z M 5 13 L 9 13 L 9 14 L 9 23 L 5 23 L 5 21 L 7 21 L 7 19 L 5 19 L 5 17 L 7 17 L 7 15 L 5 15 L 5 13 z M 23 13 L 27 13 L 27 15 L 25 15 L 25 17 L 27 17 L 27 19 L 25 19 L 25 21 L 27 21 L 27 23 L 23 23 L 23 13 z M 11 14 L 13 14 L 13 23 L 11 23 L 11 14 z M 15 14 L 17 14 L 17 23 L 15 23 L 15 14 z M 19 14 L 21 14 L 21 23 L 19 23 L 19 14 z"></path>
</svg>
