<?xml version="1.0" encoding="UTF-8"?>
<svg xmlns="http://www.w3.org/2000/svg" xmlns:xlink="http://www.w3.org/1999/xlink" viewBox="0 0 32 32" version="1.1">
<g>
<path d="M 24 4 C 21.800781 4 20 5.800781 20 8 L 20 9 L 22 9 L 22 8 C 22 6.882813 22.882813 6 24 6 C 25.128906 6 26 6.847656 26 8 C 26 9.027344 25.585938 9.339844 24.9375 9.78125 C 24.613281 10.003906 24.25 10.21875 23.875 10.5 C 23.5 10.78125 23 11.273438 23 12 L 23 13 L 25 13 L 25 12.125 C 25.011719 12.117188 25.003906 12.136719 25.0625 12.09375 C 25.25 11.953125 25.636719 11.730469 26.0625 11.4375 C 26.914063 10.851563 28 9.746094 28 8 C 28 5.785156 26.1875 4 24 4 Z M 13 9 C 9.699219 9 7 11.699219 7 15 C 7 16.945313 7.933594 18.683594 9.375 19.78125 C 6.214844 21.179688 4 24.332031 4 28 L 6 28 C 6 24.121094 9.121094 21 13 21 C 16.878906 21 20 24.121094 20 28 L 22 28 C 22 24.355469 19.8125 21.226563 16.6875 19.8125 C 17.472656 19.347656 18.207031 18.808594 18.875 18.28125 C 20.527344 16.980469 21.71875 15.6875 21.71875 15.6875 L 22.375 15 L 21.75 14.3125 C 21.75 14.3125 20.546875 13.023438 18.90625 11.71875 C 17.265625 10.414063 15.203125 9 13 9 Z M 13 11 C 14.230469 11 16.15625 12.085938 17.65625 13.28125 C 18.726563 14.132813 19.09375 14.582031 19.5 15 C 19.082031 15.421875 18.703125 15.867188 17.625 16.71875 C 16.109375 17.917969 14.160156 19 13 19 C 10.78125 19 9 17.21875 9 15 C 9 12.78125 10.78125 11 13 11 Z M 24 14.5 C 23.171875 14.5 22.5 15.171875 22.5 16 C 22.5 16.828125 23.171875 17.5 24 17.5 C 24.828125 17.5 25.5 16.828125 25.5 16 C 25.5 15.171875 24.828125 14.5 24 14.5 Z "></path>
</g>
</svg>
