<?xml version="1.0"?>
<svg xmlns="http://www.w3.org/2000/svg" viewBox="0 0 32 32">
    <path d="M 16 6.5 C 10.984 6.5 6.4407812 8.565625 3.1757812 11.890625 L 4.5898438 13.304688 C 7.4918437 10.343687 11.535 8.5 16 8.5 C 20.465 8.5 24.508156 10.343687 27.410156 13.304688 L 28.824219 11.890625 C 25.559219 8.565625 21.016 6.5 16 6.5 z M 16 11.5 C 12.359 11.5 9.0699375 13.007781 6.7109375 15.425781 L 8.1210938 16.839844 C 10.121094 14.780844 12.914 13.5 16 13.5 C 17.682 13.5 19.272219 13.892266 20.699219 14.572266 C 21.628219 14.246266 22.617437 14.053578 23.648438 14.017578 C 21.501437 12.442578 18.864 11.5 16 11.5 z M 24 16 C 19.6 16 16 19.6 16 24 C 16 28.4 19.6 32 24 32 C 28.4 32 32 28.4 32 24 C 32 19.6 28.4 16 24 16 z M 16 16.5 C 13.738 16.5 11.699187 17.444938 10.242188 18.960938 L 11.65625 20.371094 C 12.67425 19.303094 14.078484 18.611531 15.646484 18.519531 C 16.109484 17.815531 16.662203 17.178281 17.283203 16.613281 C 16.864203 16.545281 16.438 16.5 16 16.5 z M 24 18 C 27.3 18 30 20.7 30 24 C 30 27.3 27.3 30 24 30 C 20.7 30 18 27.3 18 24 C 18 20.7 20.7 18 24 18 z M 21.699219 20.300781 L 20.300781 21.699219 L 22.599609 24 L 20.300781 26.300781 L 21.699219 27.699219 L 24 25.400391 L 26.300781 27.699219 L 27.699219 26.300781 L 25.400391 24 L 27.699219 21.699219 L 26.300781 20.300781 L 24 22.599609 L 21.699219 20.300781 z M 14.181641 22.132812 C 14.038641 22.243813 13.90225 22.362094 13.78125 22.496094 L 14.080078 22.794922 C 14.107078 22.571922 14.140641 22.350812 14.181641 22.132812 z"></path>
</svg>
