<?xml version="1.0"?>
<svg xmlns="http://www.w3.org/2000/svg" viewBox="0 0 32 32">
    <path d="M 16 6.8925781 C 10.984 6.8925781 6.4407813 8.9582031 3.1757812 12.283203 L 4.5898438 13.697266 C 7.4918437 10.735266 11.535 8.8925781 16 8.8925781 C 20.465 8.8925781 24.508156 10.735266 27.410156 13.697266 L 28.824219 12.283203 C 25.559219 8.9572031 21.016 6.8925781 16 6.8925781 z M 16.001953 11.892578 C 12.360953 11.892578 9.0718906 13.400359 6.7128906 15.818359 L 8.1210938 17.232422 C 10.121094 15.173422 12.915953 13.892578 16.001953 13.892578 C 17.929953 13.891578 19.742312 14.393484 21.320312 15.271484 C 21.931313 14.794484 22.637297 14.434656 23.404297 14.222656 C 21.303297 12.756656 18.753953 11.892578 16.001953 11.892578 z M 25 16 C 22.8 16 21 17.8 21 20 L 21 22 L 18 22 L 18 32 L 32 32 L 32 22 L 23 22 L 23 20 C 23 18.9 23.9 18 25 18 C 26.1 18 27 18.9 27 20 L 29 20 C 29 17.8 27.2 16 25 16 z M 16 16.892578 C 13.738 16.892578 11.699187 17.837516 10.242188 19.353516 L 11.65625 20.763672 C 12.75025 19.615672 14.289 18.892578 16 18.892578 C 17.101 18.893578 18.128672 19.195844 19.013672 19.714844 C 19.047672 19.002844 19.200891 18.320359 19.462891 17.693359 C 18.413891 17.185359 17.243 16.892578 16 16.892578 z M 16 21.892578 C 15.117 21.892578 14.32825 22.283672 13.78125 22.888672 L 16 25.107422 L 16 21.892578 z M 20 24 L 30 24 L 30 30 L 20 30 L 20 24 z"></path>
</svg>
