<?xml version="1.0"?>
<svg xmlns="http://www.w3.org/2000/svg" viewBox="0 0 32 32">
    <path d="M 3.7070312 2.2929688 L 2.2929688 3.7070312 L 11.355469 12.769531 L 12.927734 14.341797 L 15.503906 16.917969 L 17.742188 19.15625 L 28.292969 29.707031 L 29.707031 28.292969 L 21.261719 19.847656 L 21.757812 19.353516 C 20.946325 18.509168 19.950381 17.851263 18.839844 17.425781 L 15.332031 13.917969 C 15.553301 13.903954 15.77508 13.892578 16 13.892578 C 19.086 13.892578 21.878906 15.173422 23.878906 17.232422 L 25.289062 15.818359 C 22.930063 13.399359 19.641 11.892578 16 11.892578 C 15.160368 11.892578 14.341947 11.978151 13.548828 12.134766 L 11.109375 9.6953125 C 12.652918 9.189511 14.289037 8.8925781 16 8.8925781 C 20.465 8.8925781 24.508156 10.736266 27.410156 13.697266 L 28.824219 12.283203 C 25.559219 8.9582031 21.016 6.8925781 16 6.8925781 C 13.716285 6.8925781 11.533899 7.3262165 9.5234375 8.109375 L 3.7070312 2.2929688 z M 5.8203125 10.0625 C 4.8693125 10.7185 3.9827812 11.461203 3.1757812 12.283203 L 4.5898438 13.697266 C 5.3968438 12.873266 6.3005313 12.147719 7.2695312 11.511719 L 5.8203125 10.0625 z M 9.4453125 13.6875 C 8.4423125 14.2785 7.5189375 14.990359 6.7109375 15.818359 L 8.1210938 17.232422 C 8.9310938 16.398422 9.8751094 15.699297 10.912109 15.154297 L 9.4453125 13.6875 z M 13.177734 17.419922 C 12.060734 17.844922 11.058188 18.505516 10.242188 19.353516 L 11.65625 20.763672 C 12.48225 19.897672 13.562344 19.273531 14.777344 19.019531 L 13.177734 17.419922 z M 16 21.892578 C 15.117 21.892578 14.32825 22.283672 13.78125 22.888672 L 16 25.107422 L 18.21875 22.888672 C 17.67175 22.283672 16.883 21.892578 16 21.892578 z" font-weight="400" font-family="sans-serif" white-space="normal" overflow="visible"></path>
</svg>
