<?xml version="1.0" encoding="UTF-8"?>
<svg xmlns="http://www.w3.org/2000/svg" xmlns:xlink="http://www.w3.org/1999/xlink" viewBox="0 0 32 32" version="1.1">
<g>
<path d="M 16 6 C 13.175781 6 10.679688 7.183594 8.875 9 L 7 9 C 4.253906 9 2 11.253906 2 14 L 2 18 C 2 20.746094 4.253906 23 7 23 L 8.875 23 C 10.679688 24.816406 13.175781 26 16 26 C 18.824219 26 21.320313 24.816406 23.125 23 L 25 23 C 27.746094 23 30 20.746094 30 18 L 30 14 C 30 11.253906 27.746094 9 25 9 L 23.125 9 C 21.320313 7.183594 18.824219 6 16 6 Z M 20 11 L 25 11 C 26.65625 11 28 12.34375 28 14 L 28 18 C 28 19.65625 26.65625 21 25 21 L 14 21 C 15.699219 21 17 19.699219 17 18 L 17 14 C 17 12.300781 18.300781 11 20 11 Z M 13.40625 12.59375 C 13.90625 12.59375 14.3125 13.007813 14.3125 13.40625 C 14.3125 13.804688 13.90625 14.1875 13.40625 14.1875 C 12.90625 14.1875 12.5 13.804688 12.5 13.40625 C 12.5 13.007813 12.90625 12.59375 13.40625 12.59375 Z M 25.59375 12.59375 C 25.097656 12.59375 24.6875 12.964844 24.6875 13.40625 C 24.6875 13.847656 25.097656 14.1875 25.59375 14.1875 C 26.089844 14.1875 26.5 13.847656 26.5 13.40625 C 26.5 12.964844 26.089844 12.59375 25.59375 12.59375 Z M 5 12.90625 L 6.59375 12.90625 L 7.09375 16.5 L 7.6875 12.90625 L 9.1875 12.90625 L 9.8125 16.5 L 10.3125 12.90625 L 11.90625 12.90625 L 10.59375 19.09375 L 9.09375 19.09375 L 8.5 15.3125 L 7.90625 19.09375 L 6.40625 19.09375 Z M 19 12.90625 L 19 19.09375 L 20.59375 19.09375 L 20.59375 17.1875 L 23.59375 17.1875 L 23.59375 15.8125 L 20.59375 15.8125 L 20.59375 14.40625 L 23.90625 14.40625 L 23.90625 12.90625 Z M 12.59375 14.59375 L 14.09375 14.59375 L 14.09375 19.09375 L 12.59375 19.09375 Z M 24.8125 14.59375 L 24.8125 19.09375 L 26.3125 19.09375 L 26.3125 14.59375 Z "></path>
</g>
</svg>
