<?xml version="1.0" encoding="UTF-8"?>
<svg xmlns="http://www.w3.org/2000/svg" xmlns:xlink="http://www.w3.org/1999/xlink" viewBox="0 0 32 32" version="1.1">
<g>
<path d="M 16 3 C 15.230469 3 14.457031 3.292969 13.875 3.875 L 13.75 4.03125 L 4.03125 13.75 L 3.875 13.875 C 2.710938 15.039063 2.710938 16.960938 3.875 18.125 L 13.875 28.125 C 15.039063 29.289063 16.960938 29.289063 18.125 28.125 L 28.125 18.125 C 29.289063 16.960938 29.289063 15.039063 28.125 13.875 L 18.125 3.875 C 17.542969 3.292969 16.769531 3 16 3 Z M 16 5 C 16.253906 5 16.519531 5.082031 16.71875 5.28125 L 26.71875 15.28125 C 27.117188 15.679688 27.117188 16.320313 26.71875 16.71875 L 16.71875 26.71875 C 16.320313 27.117188 15.679688 27.117188 15.28125 26.71875 L 5.28125 16.71875 C 4.882813 16.320313 4.882813 15.679688 5.28125 15.28125 L 15.28125 5.28125 C 15.480469 5.082031 15.746094 5 16 5 Z M 14 7.5 C 13.800781 7.5 13.605469 10.792969 13.90625 11.09375 C 14.207031 11.394531 15.90625 13.40625 15.90625 13.40625 L 16.1875 14.34375 C 16.105469 14.378906 16.046875 14.429688 16 14.40625 C 15.800781 14.304688 15.09375 13.707031 14.59375 13.40625 C 14.09375 13.105469 12.886719 13.007813 12.6875 13.40625 C 12.488281 13.707031 12.988281 14.699219 13.6875 15 C 14.386719 15.300781 14.8125 15.09375 14.8125 15.09375 C 14.8125 15.09375 12.988281 18.613281 10.6875 18.8125 L 14.6875 23 C 16.6875 22 17 18.8125 17 18.8125 C 17 18.8125 17.695313 19.492188 19.59375 19.09375 C 20.09375 18.992188 20.585938 19.59375 21.1875 19.09375 C 21.6875 18.59375 22 18.699219 22 18.5 C 22 18.398438 22.210938 17.699219 21.8125 17.5 C 20.613281 16.800781 19 14.613281 18 14.3125 C 17.8125 14.242188 17.65625 14.183594 17.5 14.15625 L 17 12.6875 C 17 12.6875 17.699219 10.292969 17.5 10.09375 C 17.300781 9.894531 16.699219 12.507813 16.5 12.40625 C 16.300781 12.207031 16.011719 12.011719 15.8125 11.8125 C 15.613281 11.613281 15.886719 8.195313 15.6875 8.09375 C 15.488281 7.992188 15.09375 11.40625 15.09375 11.40625 L 14.40625 10.6875 C 14.007813 10.289063 14.199219 7.5 14 7.5 Z "></path>
</g>
</svg>
