<?xml version="1.0" encoding="UTF-8"?>
<svg xmlns="http://www.w3.org/2000/svg" xmlns:xlink="http://www.w3.org/1999/xlink" viewBox="0 0 32 32" version="1.1">
<g>
<path d="M 15 4 L 15 7 L 17 7 L 17 4 Z M 8.625 7.21875 L 7.375 8.78125 L 9.625 10.59375 L 10.875 9.03125 Z M 23.375 7.21875 L 21.125 9.03125 L 22.375 10.59375 L 24.625 8.78125 Z M 13.1875 9 L 13.03125 9.8125 L 12.03125 14.8125 L 11.78125 16 L 20.21875 16 L 19.96875 14.8125 L 18.96875 9.8125 L 18.8125 9 Z M 14.8125 11 L 16 11 L 16 14 L 14.21875 14 Z M 6 14 L 6 16 L 9 16 L 9 14 Z M 23 14 L 23 16 L 26 16 L 26 14 Z M 4 17 L 4 19 L 28 19 L 28 17 Z M 6 20 L 6 21.15625 L 6.0625 21.3125 L 8 27.3125 L 8.21875 28 L 9.78125 28 L 10 27.3125 L 10.5 25.71875 L 11 27.3125 L 11.21875 28 L 12.78125 28 L 13 27.3125 L 14.9375 21.3125 L 15 21.15625 L 15 20 L 13 20 L 13 20.875 L 12.03125 23.84375 L 11.5 22.1875 L 11.28125 21.5 L 9.71875 21.5 L 9.5 22.1875 L 8.96875 23.84375 L 8 20.875 L 8 20 Z M 16 20 L 16 28 L 18 28 L 18 20 Z M 20 20 L 20 28 L 22 28 L 22 24.4375 L 24 26.4375 L 24 28 L 26 28 L 26 20 L 24 20 L 24 23.5625 L 22 21.5625 L 22 20 Z "></path>
</g>
</svg>
