<?xml version="1.0" encoding="UTF-8"?>
<svg xmlns="http://www.w3.org/2000/svg" xmlns:xlink="http://www.w3.org/1999/xlink" viewBox="0 0 32 32" version="1.1">
<g>
<path d="M 2 5 L 2 23 L 15 23 L 15 25 L 10 25 L 10 27 L 22 27 L 22 25 L 17 25 L 17 23 L 30 23 L 30 5 Z M 4 7 L 28 7 L 28 21 L 4 21 Z M 20 9.84375 L 15.59375 10.46875 L 15.59375 14 L 20 14 Z M 14.59375 10.75 L 11 11.25 L 11 14 L 14.59375 14 Z M 11 15 L 11 17.75 L 14.59375 18.25 L 14.59375 15 Z M 15.59375 15 L 15.59375 18.53125 L 20 19.15625 L 20 15 Z "></path>
</g>
</svg>
