<?xml version="1.0" encoding="UTF-8"?>
<svg xmlns="http://www.w3.org/2000/svg" xmlns:xlink="http://www.w3.org/1999/xlink" viewBox="0 0 32 32" version="1.1">
<g>
<path d="M 7 5 C 6.042969 5 5.242188 5.574219 4.75 6.3125 C 4.257813 7.050781 4 7.992188 4 9 C 4 10.007813 4.257813 10.949219 4.75 11.6875 C 5.242188 12.425781 6.042969 13 7 13 C 7.957031 13 8.757813 12.425781 9.25 11.6875 C 9.574219 11.199219 9.792969 10.625 9.90625 10 L 12.15625 10 C 12.601563 11.71875 14.148438 13 16 13 C 17.851563 13 19.398438 11.71875 19.84375 10 L 22.09375 10 C 22.207031 10.625 22.425781 11.199219 22.75 11.6875 C 23.242188 12.425781 24.042969 13 25 13 C 25.957031 13 26.757813 12.425781 27.25 11.6875 C 27.742188 10.949219 28 10.007813 28 9 C 28 7.992188 27.742188 7.050781 27.25 6.3125 C 26.757813 5.574219 25.957031 5 25 5 C 24.042969 5 23.242188 5.574219 22.75 6.3125 C 22.425781 6.800781 22.207031 7.375 22.09375 8 L 19.84375 8 C 19.398438 6.28125 17.851563 5 16 5 C 14.148438 5 12.601563 6.28125 12.15625 8 L 9.90625 8 C 9.792969 7.375 9.574219 6.800781 9.25 6.3125 C 8.757813 5.574219 7.957031 5 7 5 Z M 7 7 C 7.148438 7 7.363281 7.089844 7.59375 7.4375 C 7.824219 7.785156 8 8.351563 8 9 C 8 9.648438 7.824219 10.214844 7.59375 10.5625 C 7.363281 10.910156 7.148438 11 7 11 C 6.851563 11 6.636719 10.910156 6.40625 10.5625 C 6.175781 10.214844 6 9.648438 6 9 C 6 8.351563 6.175781 7.785156 6.40625 7.4375 C 6.636719 7.089844 6.851563 7 7 7 Z M 16 7 C 17.117188 7 18 7.882813 18 9 C 18 10.117188 17.117188 11 16 11 C 14.882813 11 14 10.117188 14 9 C 14 7.882813 14.882813 7 16 7 Z M 25 7 C 25.148438 7 25.363281 7.089844 25.59375 7.4375 C 25.824219 7.785156 26 8.351563 26 9 C 26 9.648438 25.824219 10.214844 25.59375 10.5625 C 25.363281 10.910156 25.148438 11 25 11 C 24.851563 11 24.636719 10.910156 24.40625 10.5625 C 24.175781 10.214844 24 9.648438 24 9 C 24 8.351563 24.175781 7.785156 24.40625 7.4375 C 24.636719 7.089844 24.851563 7 25 7 Z M 15 14 L 15 17 L 7 17 L 7 27 L 25 27 L 25 17 L 17 17 L 17 14 Z M 9 19 L 23 19 L 23 25 L 9 25 Z "></path>
</g>
</svg>
