<?xml version="1.0" encoding="UTF-8"?>
<svg xmlns="http://www.w3.org/2000/svg" xmlns:xlink="http://www.w3.org/1999/xlink" viewBox="0 0 32 32" version="1.1">
<g>
<path d="M 8 3 L 3.96875 7.03125 L 9.96875 13.03125 L 10.0625 12.40625 L 10.09375 12.0625 L 10.34375 11.8125 L 10.96875 11.21875 L 9.59375 9.84375 L 10.8125 8.625 L 12.1875 10 L 13.59375 8.59375 Z M 24 3 L 18.40625 8.59375 L 19.8125 10 L 21.1875 8.625 L 22.40625 9.84375 L 21.03125 11.21875 L 21.65625 11.8125 L 21.90625 12.0625 L 21.9375 12.40625 L 22.03125 13.03125 L 28.03125 7.03125 Z M 8 5.8125 L 9.40625 7.21875 L 8.1875 8.4375 L 6.78125 7.03125 Z M 24 5.8125 L 25.21875 7.03125 L 23.8125 8.4375 L 22.59375 7.21875 Z M 16 7.59375 L 15.28125 8.28125 L 11.28125 12.28125 L 11.0625 12.53125 L 11 12.875 L 9 27.875 L 8.84375 29 L 23.15625 29 L 23 27.875 L 21 12.875 L 20.9375 12.53125 L 20.71875 12.28125 L 16.71875 8.28125 Z M 16 10.4375 L 17.5625 12 L 14.4375 12 Z M 12.875 14 L 19.125 14 L 20.84375 27 L 19 27 L 19 25 C 19 23.355469 17.644531 22 16 22 C 14.355469 22 13 23.355469 13 25 L 13 27 L 11.15625 27 Z M 15.53125 16 L 15.53125 17.625 L 16.625 17.625 L 16.625 16 Z M 9.53125 16.46875 L 3 23 L 7.03125 27.03125 L 8.28125 25.78125 Z M 22.46875 16.46875 L 23.71875 25.78125 L 24.96875 27.03125 L 29 23 Z M 7.21875 21.625 L 8.40625 22.8125 L 7.03125 24.21875 L 5.8125 23 Z M 24.78125 21.625 L 26.1875 23 L 24.96875 24.21875 L 23.59375 22.8125 Z M 16 24 C 16.566406 24 17 24.433594 17 25 L 17 27 L 15 27 L 15 25 C 15 24.433594 15.433594 24 16 24 Z "></path>
</g>
</svg>
