<?xml version="1.0" encoding="UTF-8"?>
<svg xmlns="http://www.w3.org/2000/svg" xmlns:xlink="http://www.w3.org/1999/xlink" viewBox="0 0 32 32" version="1.1">
<g>
<path d="M 12.90625 5 C 11.59375 5 10.171875 5.328125 8.59375 5.9375 L 8.125 6.09375 L 8 6.59375 L 6.21875 12.71875 L 5.71875 14.5 L 7.46875 13.96875 C 8.632813 13.609375 9.605469 13.4375 10.46875 13.4375 L 10.53125 13.4375 C 11.992188 13.445313 13.105469 13.890625 14.125 14.46875 L 15.25 15.09375 L 15.59375 13.875 L 17.46875 7.40625 L 17.6875 6.65625 L 17.03125 6.25 C 15.972656 5.597656 14.640625 5 12.90625 5 Z M 12.90625 7 C 13.875 7 14.617188 7.273438 15.3125 7.625 L 13.96875 12.21875 C 12.980469 11.796875 11.898438 11.445313 10.5625 11.4375 L 10.46875 11.4375 C 9.890625 11.4375 9.214844 11.640625 8.59375 11.75 L 9.78125 7.6875 C 10.960938 7.277344 12.046875 7 12.90625 7 Z M 18.96875 7.625 L 18.59375 8.84375 L 16.71875 15.375 L 16.5 16.125 L 17.15625 16.5 C 18.253906 17.167969 19.632813 17.78125 21.34375 17.78125 C 22.535156 17.78125 23.957031 17.730469 25.5625 17.0625 L 26 16.875 L 26.125 16.40625 L 27.96875 10 L 28.4375 8.28125 L 26.75 8.75 C 25.5625 9.070313 24.816406 9 23.75 9 C 22.109375 9 20.964844 8.753906 20.0625 8.25 Z M 20.25 10.4375 C 21.289063 10.792969 22.417969 11 23.75 11 C 24.261719 11 25 10.882813 25.625 10.84375 L 24.375 15.25 C 23.300781 15.621094 22.347656 15.78125 21.34375 15.78125 C 20.367188 15.78125 19.609375 15.496094 18.875 15.125 Z M 10 15.40625 C 8.636719 15.40625 7.386719 15.796875 5.8125 16.40625 L 5.34375 16.59375 L 5.21875 17.0625 L 3.375 23.25 L 2.84375 25.03125 L 4.625 24.5 C 5.671875 24.191406 7.042969 24 7.90625 24 C 9.484375 24 10.074219 24.296875 11.15625 24.90625 L 12.25 25.53125 L 12.59375 24.3125 L 14.5 17.75 L 14.71875 17 L 14.0625 16.625 C 12.894531 15.914063 11.585938 15.40625 10 15.40625 Z M 10 17.40625 C 10.917969 17.40625 11.644531 17.636719 12.375 18 L 11 22.65625 C 10.152344 22.289063 9.210938 22 7.90625 22 C 7.261719 22 6.480469 22.214844 5.71875 22.34375 L 6.96875 18.1875 C 8.179688 17.742188 9.144531 17.40625 10 17.40625 Z M 16 17.90625 L 15.65625 19.125 L 13.78125 25.59375 L 13.5625 26.34375 L 14.1875 26.71875 C 15.242188 27.375 16.609375 28 18.34375 28 C 19.566406 28 20.914063 27.839844 22.53125 27.21875 L 23 27.0625 L 23.125 26.5625 L 24.96875 20.40625 L 25.46875 18.71875 L 23.75 19.15625 C 22.675781 19.421875 21.730469 19.53125 20.875 19.53125 C 19.261719 19.53125 18.117188 19.101563 17.09375 18.53125 Z M 17.25 20.75 C 18.277344 21.183594 19.417969 21.53125 20.875 21.53125 C 21.410156 21.53125 22.023438 21.390625 22.59375 21.3125 L 21.375 25.4375 C 20.242188 25.8125 19.28125 26 18.34375 26 C 17.355469 26 16.609375 25.707031 15.90625 25.34375 Z "></path>
</g>
</svg>
