<?xml version="1.0"?>
<svg xmlns="http://www.w3.org/2000/svg" viewBox="0 0 32 32">
    <path d="M 23.5 4 C 21.578848 4 20 5.578848 20 7.5 C 20 7.6806215 20.027803 7.8538013 20.054688 8.0273438 C 19.871039 8.0137707 19.68701 8 19.5 8 C 15.36961 8 12 11.36961 12 15.5 C 12 19.462462 15.102975 22.715891 19.001953 22.974609 C 19.001909 22.983171 19 22.991429 19 23 C 19 25.749579 21.250421 28 24 28 C 26.749579 28 29 25.749579 29 23 C 29 21.092748 27.905325 19.445934 26.324219 18.603516 C 26.357573 18.530223 26.394732 18.4592 26.425781 18.384766 C 26.796804 17.496043 27 16.519183 27 15.5 C 27 13.613669 26.291871 11.890791 25.134766 10.570312 C 26.235901 9.978093 27 8.8285385 27 7.5 C 27 5.578848 25.421152 4 23.5 4 z M 23.5 6 C 24.340272 6 25 6.6597282 25 7.5 C 25 8.3402718 24.340272 9 23.5 9 C 23.379558 9 23.263956 8.9827291 23.152344 8.9570312 C 22.956329 8.8470382 22.753162 8.7486337 22.546875 8.65625 C 22.214056 8.3831449 22 7.973158 22 7.5 C 22 6.6597282 22.659728 6 23.5 6 z M 19.5 10 C 20.221918 10 20.90886 10.140549 21.539062 10.390625 C 21.778125 10.553896 22.042612 10.676726 22.318359 10.777344 C 23.925455 11.734774 25 13.483855 25 15.5 C 25 16.252817 24.851103 16.965957 24.580078 17.615234 L 24.578125 17.615234 C 24.519103 17.756725 24.436803 17.883114 24.367188 18.017578 C 24.245598 18.008618 24.123772 18 24 18 C 21.962955 18 20.204712 19.237843 19.427734 20.996094 C 16.412166 20.9573 14 18.525201 14 15.5 C 14 12.45039 16.45039 10 19.5 10 z M 7 12 C 4.8027056 12 3 13.802706 3 16 C 3 18.197294 4.8027056 20 7 20 C 9.1972944 20 11 18.197294 11 16 C 11 13.802706 9.1972944 12 7 12 z M 7 14 C 8.1164141 14 9 14.883586 9 16 C 9 17.116414 8.1164141 18 7 18 C 5.8835859 18 5 17.116414 5 16 C 5 14.883586 5.8835859 14 7 14 z M 24 20 C 25.668699 20 27 21.331301 27 23 C 27 24.668699 25.668699 26 24 26 C 22.331301 26 21 24.668699 21 23 C 21 21.331301 22.331301 20 24 20 z" font-weight="400" font-family="sans-serif" white-space="normal" overflow="visible"></path>
</svg>
