<?xml version="1.0" encoding="UTF-8"?>
<svg xmlns="http://www.w3.org/2000/svg" xmlns:xlink="http://www.w3.org/1999/xlink" viewBox="0 0 32 32" version="1.1">
<g>
<path d="M 10 4 C 8.90625 4 8 4.90625 8 6 L 8 26 C 8 27.09375 8.90625 28 10 28 L 22 28 C 23.09375 28 24 27.09375 24 26 L 24 6 C 24 4.90625 23.09375 4 22 4 Z M 10 6 L 22 6 L 22 26 L 10 26 Z M 16 7 C 15.449219 7 15 7.449219 15 8 C 15 8.550781 15.449219 9 16 9 C 16.550781 9 17 8.550781 17 8 C 17 7.449219 16.550781 7 16 7 Z M 15 12 C 14.578125 12 14.113281 12.097656 13.5625 12.3125 L 12.90625 14.5625 C 13.359375 14.421875 13.765625 14.34375 14.125 14.34375 L 14.15625 14.34375 C 14.765625 14.347656 15.25 14.550781 15.65625 14.78125 L 16.34375 12.40625 C 15.984375 12.183594 15.554688 12 15 12 Z M 17.28125 12.84375 L 16.59375 15.21875 C 16.964844 15.445313 17.390625 15.65625 17.9375 15.65625 C 18.363281 15.65625 18.816406 15.625 19.34375 15.40625 L 20 13.0625 C 19.511719 13.195313 19.183594 13.15625 18.8125 13.15625 C 18.175781 13.15625 17.683594 13.070313 17.28125 12.84375 Z M 14.09375 15.375 C 13.664063 15.375 13.21875 15.5 12.65625 15.71875 L 12 18 C 12.425781 17.875 12.945313 17.78125 13.3125 17.78125 C 13.945313 17.78125 14.277344 17.957031 14.6875 18.1875 L 15.375 15.78125 C 14.980469 15.542969 14.601563 15.375 14.09375 15.375 Z M 16.28125 16.21875 L 15.59375 18.59375 C 15.953125 18.816406 16.351563 19 16.90625 19 C 17.328125 19 17.765625 18.960938 18.3125 18.75 L 19 16.46875 C 18.585938 16.570313 18.191406 16.625 17.84375 16.625 C 17.183594 16.625 16.691406 16.449219 16.28125 16.21875 Z M 14 23 L 14 25 L 18 25 L 18 23 Z "></path>
</g>
</svg>
