<?xml version="1.0" encoding="UTF-8"?>
<svg xmlns="http://www.w3.org/2000/svg" xmlns:xlink="http://www.w3.org/1999/xlink" viewBox="0 0 32 32" version="1.1">
<g>
<path d="M 16 7 C 11.042969 7 7 11.042969 7 16 C 7 20.957031 11.042969 25 16 25 C 20.957031 25 25 20.957031 25 16 C 25 11.042969 20.957031 7 16 7 Z M 16 9 C 19.878906 9 23 12.121094 23 16 C 23 19.878906 19.878906 23 16 23 C 12.121094 23 9 19.878906 9 16 C 9 12.121094 12.121094 9 16 9 Z M 16 12 C 13.800781 12 12 13.800781 12 16 C 12 18.199219 13.800781 20 16 20 C 18.199219 20 20 18.199219 20 16 C 20 13.800781 18.199219 12 16 12 Z M 16 14 C 17.117188 14 18 14.882813 18 16 C 18 17.117188 17.117188 18 16 18 C 14.882813 18 14 17.117188 14 16 C 14 14.882813 14.882813 14 16 14 Z "></path>
</g>
</svg>
