<?xml version="1.0" encoding="UTF-8"?>
<svg xmlns="http://www.w3.org/2000/svg" xmlns:xlink="http://www.w3.org/1999/xlink" viewBox="0 0 32 32" version="1.1">
<g>
<path d="M 13.90625 5 L 13.8125 5.90625 L 12.78125 15.4375 L 5 21.1875 L 4.3125 21.71875 L 4.71875 22.46875 L 5.8125 24.46875 L 6.25 25.28125 L 7.09375 24.90625 L 15 21.4375 L 15 26 L 12 26 L 12 28 L 20 28 L 20 26 L 17 26 L 17 21.4375 L 24.90625 24.90625 L 25.75 25.28125 L 26.1875 24.46875 L 27.28125 22.46875 L 27.6875 21.71875 L 27 21.1875 L 19.21875 15.4375 L 18.09375 5.875 L 18 5 Z M 15.6875 7 L 16.1875 7 L 17.3125 16.125 L 17.34375 16.5625 L 17.71875 16.8125 L 25.125 22.28125 L 24.875 22.71875 L 16.40625 19 L 16 18.8125 L 15.59375 19 L 7.125 22.71875 L 6.875 22.28125 L 14.28125 16.8125 L 14.65625 16.53125 L 14.6875 16.09375 Z M 16 16.1875 C 15.390625 16.1875 14.90625 16.703125 14.90625 17.3125 C 14.90625 17.921875 15.390625 18.40625 16 18.40625 C 16.609375 18.40625 17.09375 17.921875 17.09375 17.3125 C 17.09375 16.703125 16.609375 16.1875 16 16.1875 Z "></path>
</g>
</svg>
