<?xml version="1.0" encoding="UTF-8"?>
<svg xmlns="http://www.w3.org/2000/svg" xmlns:xlink="http://www.w3.org/1999/xlink" viewBox="0 0 32 32" version="1.1">
<g>
<path d="M 9.65625 5 L 9.46875 5.75 C 9.46875 5.75 9 7.460938 9 9.4375 C 9 14.222656 12.484375 16.230469 13.15625 16.59375 L 14.96875 21.34375 L 15.21875 22 L 16.78125 22 L 17.03125 21.34375 L 18.84375 16.59375 C 19.515625 16.230469 23 14.222656 23 9.4375 C 23 7.460938 22.53125 5.75 22.53125 5.75 L 22.34375 5 Z M 11.28125 7 L 20.71875 7 C 20.8125 7.425781 20.933594 8.019531 20.96875 9 L 12 9 C 12 10.488281 12.34375 11 12.34375 11 L 20.8125 11 C 20.109375 13.953125 17.5625 15.09375 17.5625 15.09375 L 17.21875 15.28125 L 17.0625 15.65625 L 16 18.4375 L 14.9375 15.65625 L 14.78125 15.28125 L 14.4375 15.09375 C 14.4375 15.09375 11 13.546875 11 9.4375 C 11 8.164063 11.175781 7.488281 11.28125 7 Z M 12.125 18.15625 L 4.65625 21 L 4 21.25 L 4 22.75 L 4.59375 23.03125 L 15.59375 27.90625 L 16 28.09375 L 16.40625 27.90625 L 27.40625 23.03125 L 28 22.75 L 28 21.25 L 27.34375 21 L 19.875 18.15625 L 19.15625 20.03125 L 24.5625 22.09375 L 16 25.90625 L 7.4375 22.09375 L 12.84375 20.03125 Z "></path>
</g>
</svg>
