<?xml version="1.0" encoding="UTF-8"?>
<svg xmlns="http://www.w3.org/2000/svg" xmlns:xlink="http://www.w3.org/1999/xlink" viewBox="0 0 32 32" version="1.1">
<g>
<path d="M 6.769531 3.355469 L 5.355469 4.769531 L 7.550781 6.964844 L 8.964844 5.550781 Z M 25.292969 3.355469 L 22.941406 5.703125 L 24.359375 7.117188 L 26.707031 4.769531 Z M 18.003906 5 C 14.449219 4.988281 11.667969 5.835938 9.773438 7.578125 C 7.882813 9.316406 7 11.871094 7 14.894531 L 7 15.652344 C 6.394531 16.25 6 17.011719 6 17.863281 C 6 19.21875 6.953125 20.179688 8.148438 20.625 C 8.816406 22.820313 9.179688 24.367188 10.671875 26.382813 L 10.691406 26.410156 L 10.714844 26.4375 C 12.148438 28.113281 14.066406 29 16 29 C 17.933594 29 19.851563 28.113281 21.285156 26.4375 L 21.308594 26.410156 L 21.328125 26.382813 C 22.816406 24.367188 23.183594 22.820313 23.847656 20.625 C 25.046875 20.179688 26 19.214844 26 17.863281 C 26 17.011719 25.605469 16.25 25 15.652344 L 25 14.894531 C 25 12.128906 24.488281 10.160156 23.394531 8.832031 C 22.457031 7.6875 21.097656 7.242188 19.675781 7.117188 L 18.621094 5 Z M 17.421875 7.074219 L 18.019531 8.273438 C 18.023438 8.320313 18.03125 8.390625 18.03125 8.414063 C 18.023438 9.304688 17.851563 9.429688 17.453125 9.636719 C 17.058594 9.84375 16.28125 9.957031 15.390625 10.058594 C 14.503906 10.160156 13.496094 10.246094 12.574219 10.808594 C 11.652344 11.371094 11 12.515625 11 14 L 13 14 C 13 12.984375 13.222656 12.753906 13.613281 12.515625 C 14.003906 12.28125 14.75 12.144531 15.613281 12.046875 C 16.480469 11.949219 17.460938 11.890625 18.386719 11.40625 C 19.160156 11 19.78125 10.160156 19.96875 9.078125 C 20.769531 9.207031 21.375 9.519531 21.855469 10.105469 C 22.511719 10.902344 23 12.382813 23 14.894531 L 23 16.578125 L 23.503906 16.871094 C 23.695313 16.976563 24 17.496094 24 17.863281 C 24 18.277344 23.34375 18.96875 22.921875 19.003906 L 22.246094 19.058594 L 22.046875 19.703125 C 21.277344 22.167969 21.089844 23.320313 19.742188 25.15625 C 18.652344 26.417969 17.320313 27 16 27 C 14.679688 27 13.34375 26.417969 12.253906 25.15625 C 10.90625 23.320313 10.722656 22.167969 9.953125 19.703125 L 9.753906 19.058594 L 9.078125 19.003906 C 8.65625 18.96875 8 18.273438 8 17.863281 C 8 17.496094 8.304688 16.976563 8.496094 16.871094 L 9 16.578125 L 9 14.894531 C 9 12.25 9.71875 10.34375 11.128906 9.046875 C 12.441406 7.84375 14.542969 7.164063 17.421875 7.074219 Z M 3.316406 8.050781 L 2.683594 9.949219 L 5.519531 10.894531 L 6.152344 8.996094 Z M 28.746094 8.050781 L 25.90625 9 L 26.535156 10.894531 L 29.378906 9.949219 Z M 2 13 L 2 15 L 5 15 L 5 13 Z M 27 13 L 27 15 L 30 15 L 30 13 Z M 13 17 C 12.449219 17 12 17.449219 12 18 C 12 18.550781 12.449219 19 13 19 C 13.550781 19 14 18.550781 14 18 C 14 17.449219 13.550781 17 13 17 Z M 19 17 C 18.449219 17 18 17.449219 18 18 C 18 18.550781 18.449219 19 19 19 C 19.550781 19 20 18.550781 20 18 C 20 17.449219 19.550781 17 19 17 Z M 14 22 C 14 23.105469 14.894531 24 16 24 C 17.105469 24 18 23.105469 18 22 Z "></path>
</g>
</svg>
