<?xml version="1.0" encoding="UTF-8"?>
<svg xmlns="http://www.w3.org/2000/svg" xmlns:xlink="http://www.w3.org/1999/xlink" viewBox="0 0 32 32" version="1.1">
<g>
<path d="M 3 4 L 3 10 L 4 10 L 4 28 L 29 28 L 29 23 C 29.03125 20.566406 28.621094 18.734375 27.375 17.53125 C 26.128906 16.328125 24.3125 16 22 16 C 19.785156 16 18.996094 15.066406 18.5 14.0625 C 18.003906 13.058594 18 12.03125 18 12.03125 L 18 10 L 19 10 L 19 4 Z M 5 6 L 17 6 L 17 8 L 5 8 Z M 6 10 L 16 10 L 16 12 C 16 12.046875 15.964844 13.46875 16.6875 14.9375 C 17.421875 16.433594 19.128906 18 22 18 C 24.105469 18 25.335938 18.359375 26 19 C 26.664063 19.640625 27.03125 20.808594 27 23 L 12.9375 23 C 12.480469 19.398438 9.601563 16.519531 6 16.0625 Z M 13 11 C 12.449219 11 12 11.449219 12 12 C 12 12.550781 12.449219 13 13 13 C 13.550781 13 14 12.550781 14 12 C 14 11.449219 13.550781 11 13 11 Z M 14 14 C 13.449219 14 13 14.449219 13 15 C 13 15.550781 13.449219 16 14 16 C 14.550781 16 15 15.550781 15 15 C 15 14.449219 14.550781 14 14 14 Z M 16 17 C 15.449219 17 15 17.449219 15 18 C 15 18.550781 15.449219 19 16 19 C 16.550781 19 17 18.550781 17 18 C 17 17.449219 16.550781 17 16 17 Z M 6 18.09375 C 8.523438 18.511719 10.488281 20.476563 10.90625 23 L 6 23 Z M 6 25 L 27 25 L 27 26 L 6 26 Z "></path>
</g>
</svg>
