<?xml version="1.0" encoding="UTF-8"?>
<svg xmlns="http://www.w3.org/2000/svg" xmlns:xlink="http://www.w3.org/1999/xlink" viewBox="0 0 32 32" version="1.1">
<g>
<path d="M 15.28125 4 L 15.0625 4.65625 L 10.15625 18.59375 C 8.546875 18.941406 7.164063 19.425781 6.09375 20.0625 C 4.929688 20.757813 4 21.726563 4 23 C 4 23.925781 4.527344 24.714844 5.21875 25.3125 C 5.910156 25.910156 6.804688 26.390625 7.875 26.78125 C 10.019531 27.5625 12.863281 28 16 28 C 19.136719 28 21.980469 27.5625 24.125 26.78125 C 25.195313 26.390625 26.089844 25.910156 26.78125 25.3125 C 27.472656 24.714844 28 23.925781 28 23 C 28 21.71875 27.082031 20.761719 25.90625 20.0625 C 24.855469 19.4375 23.480469 18.945313 21.90625 18.59375 L 18.1875 7.40625 L 20.40625 5.8125 L 22.9375 4 Z M 16.15625 7.5625 L 20.75 21.34375 C 19.929688 21.613281 18.488281 22 16 22 C 13.546875 22 12.117188 21.613281 11.28125 21.34375 Z M 22.65625 20.875 C 23.550781 21.148438 24.320313 21.453125 24.875 21.78125 C 25.75 22.300781 26 22.75 26 23 C 26 23.179688 25.890625 23.453125 25.46875 23.8125 C 25.046875 24.171875 24.355469 24.539063 23.4375 24.875 C 21.601563 25.542969 18.9375 26 16 26 C 13.0625 26 10.398438 25.542969 8.5625 24.875 C 7.644531 24.539063 6.953125 24.171875 6.53125 23.8125 C 6.109375 23.453125 6 23.179688 6 23 C 6 22.75 6.261719 22.296875 7.125 21.78125 C 7.675781 21.453125 8.449219 21.171875 9.34375 20.90625 L 9.0625 21.65625 L 8.75 22.5625 L 9.59375 22.90625 C 9.59375 22.90625 12.144531 24 16 24 C 19.855469 24 22.40625 22.90625 22.40625 22.90625 L 23.25 22.5625 L 22.9375 21.6875 Z "></path>
</g>
</svg>
