<?xml version="1.0" encoding="UTF-8"?>
<svg xmlns="http://www.w3.org/2000/svg" xmlns:xlink="http://www.w3.org/1999/xlink" viewBox="0 0 32 32" version="1.1">
<g>
<path d="M 16 4 L 12.46875 8 L 14.96875 8 L 14.96875 13 L 16.96875 13 L 16.96875 8 L 19.46875 8 Z M 4 12 L 4 28 L 28 28 L 28 12 L 26 12 L 26 26 L 6 26 L 6 12 Z M 16 14 C 13.238281 14 11 16.238281 11 19 C 11 21.761719 13.238281 24 16 24 C 18.761719 24 21 21.761719 21 19 C 21 16.238281 18.761719 14 16 14 Z M 14.90625 16.46875 L 17.4375 16.46875 L 17.4375 17.3125 L 15.71875 17.3125 L 15.65625 18.28125 C 15.828125 18.269531 15.96875 18.25 16.09375 18.25 C 17.398438 18.25 17.65625 19.25 17.65625 19.6875 C 17.65625 20.378906 17.285156 21.34375 15.8125 21.34375 C 15.351563 21.34375 14.96875 21.261719 14.65625 21.125 L 14.65625 20.21875 C 14.984375 20.417969 15.316406 20.53125 15.6875 20.53125 C 16.375 20.53125 16.59375 20.007813 16.59375 19.78125 C 16.59375 19.304688 16.265625 19.0625 15.59375 19.0625 C 15.347656 19.0625 15.042969 19.085938 14.71875 19.125 Z "></path>
</g>
</svg>
