<?xml version="1.0" encoding="UTF-8"?>
<svg xmlns="http://www.w3.org/2000/svg" xmlns:xlink="http://www.w3.org/1999/xlink" viewBox="0 0 32 32" version="1.1">
<g>
<path d="M 1.53125 8 L 1.125 8.84375 C 1.125 8.84375 0 10.835938 0 13 L 0 14 L 1 14 C 6.699219 14 9.867188 16.3125 11.71875 18.625 C 13.570313 20.9375 14.03125 23.1875 14.03125 23.1875 L 14.1875 24 L 17.8125 24 L 17.96875 23.1875 C 17.96875 23.1875 18.441406 20.933594 20.28125 18.625 C 22.121094 16.316406 25.253906 14 31 14 L 32 14 L 32 13 C 32 10.835938 30.875 8.84375 30.875 8.84375 L 30.46875 8 L 29.625 8.375 C 29.625 8.375 28.726563 8.742188 26.53125 9.15625 C 24.335938 9.570313 20.902344 10 16 10 C 11.046875 10 7.617188 9.570313 5.4375 9.15625 C 3.257813 8.742188 2.40625 8.375 2.40625 8.375 Z M 2.59375 10.46875 C 3.0625 10.632813 3.414063 10.8125 5.0625 11.125 C 7.375 11.566406 10.933594 12 16 12 C 21.015625 12 24.582031 11.5625 26.90625 11.125 C 28.582031 10.808594 28.941406 10.632813 29.40625 10.46875 C 29.589844 10.917969 29.679688 11.425781 29.8125 12.125 C 24.261719 12.460938 20.6875 14.871094 18.6875 17.375 C 17.046875 19.429688 16.519531 21.128906 16.28125 22 L 15.71875 22 C 15.472656 21.132813 14.898438 19.429688 13.25 17.375 C 11.242188 14.875 7.699219 12.460938 2.1875 12.125 C 2.320313 11.425781 2.410156 10.917969 2.59375 10.46875 Z "></path>
</g>
</svg>
