<?xml version="1.0" encoding="UTF-8"?>
<svg xmlns="http://www.w3.org/2000/svg" xmlns:xlink="http://www.w3.org/1999/xlink" viewBox="0 0 32 32" version="1.1">
<g>
<path d="M 3.28125 5 L 3.0625 5.6875 C 3.0625 5.6875 2 8.882813 2 15 L 2 15.09375 L 3 26.09375 L 3.09375 27 L 7 27 L 7 17.28125 C 8.417969 18.238281 9.601563 19.625 10.75 21.125 C 11.785156 22.476563 12.757813 23.875 13.875 25 C 14.992188 26.125 16.351563 27 18 27 L 30 27 L 30 26 C 30 23.796875 29.117188 22.257813 28.21875 21.34375 C 27.320313 20.429688 26.34375 20.0625 26.34375 20.0625 L 26.3125 20.0625 L 26.28125 20.03125 C 26.28125 20.03125 24.71875 19.617188 21.625 17.21875 C 20.414063 16.28125 18.796875 13.324219 17.71875 10.6875 C 16.640625 8.050781 15.96875 5.71875 15.96875 5.71875 L 15.75 5 Z M 4.78125 7 L 14.28125 7 C 14.445313 7.542969 14.90625 9.101563 15.875 11.46875 C 17 14.214844 18.402344 17.253906 20.375 18.78125 L 20.4375 18.84375 C 23.589844 21.265625 25.570313 21.910156 25.65625 21.9375 C 25.660156 21.9375 25.71875 21.96875 25.71875 21.96875 C 25.769531 21.988281 26.210938 22.167969 26.78125 22.75 C 27.234375 23.210938 27.613281 23.980469 27.8125 25 L 18 25 C 17.054688 25 16.246094 24.5 15.3125 23.5625 C 14.378906 22.625 13.410156 21.300781 12.34375 19.90625 C 10.394531 17.359375 7.859375 14.660156 4.0625 14.1875 C 4.148438 9.910156 4.582031 7.707031 4.78125 7 Z M 4.125 16.1875 C 4.417969 16.234375 4.726563 16.261719 5 16.34375 L 5 25 L 4.90625 25 Z "></path>
</g>
</svg>
