<?xml version="1.0" encoding="UTF-8"?>
<svg xmlns="http://www.w3.org/2000/svg" xmlns:xlink="http://www.w3.org/1999/xlink" viewBox="0 0 32 32" version="1.1">
<g>
<path d="M 2.25 8 C 1.039063 8 0 8.972656 0 10.199219 L 0 14 L 8 14 L 8 15 L 7 15 L 7 17 L 8 17 L 8 20 L 7 20 L 7 22 L 8 22 L 8 24 L 13 24 L 13 22 L 25 22 L 25 24 L 30 24 L 30 22 L 31 22 L 31 20 L 30 20 L 30 17 L 31 17 L 31 15 L 30 15 L 30 14 L 32 14 L 32 10.199219 C 32 8.972656 30.960938 8 29.75 8 L 8.25 8 C 7.792969 8 7.359375 8.140625 7 8.375 C 6.640625 8.140625 6.207031 8 5.75 8 Z M 2.25 10 L 5.75 10 C 5.921875 10 6 10.097656 6 10.199219 L 6 12 L 2 12 L 2 10.199219 C 2 10.097656 2.078125 10 2.25 10 Z M 8.25 10 L 29.75 10 C 29.921875 10 30 10.097656 30 10.199219 L 30 12 L 8 12 L 8 10.199219 C 8 10.097656 8.078125 10 8.25 10 Z M 10 14 L 11 14 L 11 22 L 10 22 Z M 13 14 L 25 14 L 25 17 L 13 17 Z M 27 14 L 28 14 L 28 22 L 27 22 Z M 13 19 L 25 19 L 25 20 L 13 20 Z "></path>
</g>
</svg>
