<?xml version="1.0" encoding="UTF-8"?>
<svg xmlns="http://www.w3.org/2000/svg" xmlns:xlink="http://www.w3.org/1999/xlink" viewBox="0 0 32 32" version="1.1">
<g>
<path d="M 14 2 C 12.367188 2 8.234375 3.078125 7.21875 6.40625 C 6.207031 6.042969 5.195313 6.007813 5.03125 6 L 3.3125 5.9375 L 4.125 7.46875 C 4.140625 7.496094 5.449219 10.035156 5.9375 13.65625 C 4.691406 15.085938 4 17.007813 4 19 C 4 21.820313 6.332031 24.117188 7 24.71875 L 7 24.75 L 7.09375 24.8125 C 7.128906 24.84375 7.179688 24.867188 7.1875 24.875 L 7.21875 24.90625 C 8.375 25.878906 11.105469 26.683594 11.125 26.6875 L 11.40625 26.75 C 13.136719 29.480469 17.703125 29.980469 17.90625 30 L 18.96875 30.09375 L 19 28.75 C 19.082031 26.632813 19.453125 24.964844 19.75 23.9375 C 20.523438 23.886719 21.597656 23.785156 22.34375 23.25 C 26.414063 20.753906 27.90625 15.445313 27.96875 15.21875 L 28.78125 12.25 L 26.375 14.15625 C 26.34375 14.183594 23.71875 16.261719 20.21875 17.25 C 20.121094 16.550781 19.863281 15.804688 19.5 15.0625 C 18.59375 13.203125 17.226563 12 16 12 C 15.71875 12 15.4375 12.074219 15.1875 12.1875 C 14.964844 12.289063 14.785156 12.425781 14.625 12.59375 C 15.667969 13.128906 16.683594 14.003906 17.5 15.15625 C 18.066406 15.957031 18.472656 16.777344 18.71875 17.59375 C 18.386719 17.648438 18.058594 17.6875 17.71875 17.71875 C 17.496094 17.054688 17.148438 16.371094 16.6875 15.71875 C 15.507813 14.058594 13.855469 13 12.46875 13 C 11.976563 13 11.511719 13.128906 11.125 13.375 C 10.269531 13.917969 9.871094 14.957031 10.03125 16.21875 C 10.109375 16.839844 10.332031 17.5 10.65625 18.15625 C 9.195313 18.496094 8.308594 19.34375 7.78125 20.09375 C 7.425781 20.601563 7.167969 21.167969 7 21.71875 C 6.472656 20.957031 6 20 6 19 C 6 17.382813 6.648438 15.789063 7.71875 14.71875 L 8.0625 14.375 L 8 14 L 10 14 C 10 13.167969 10.65625 13.015625 11.03125 13 L 10.96875 11 C 9.796875 11.023438 8.070313 11.8125 8 13.875 C 7.742188 11.570313 7.144531 9.652344 6.65625 8.34375 C 6.910156 8.441406 7.132813 8.570313 7.28125 8.71875 L 9 10.40625 L 9 8 C 9 5.949219 10.714844 4.90625 12.15625 4.40625 C 12.042969 4.890625 12 5.410156 12 6 L 12 9.5625 L 13.84375 6.53125 C 14.289063 5.800781 15.628906 5 17 5 C 17.953125 5 18.78125 5.367188 19.4375 5.8125 C 18.90625 5.835938 18.316406 5.894531 17.75 6.03125 L 14.84375 6.71875 L 17.59375 7.90625 C 18.996094 8.511719 19.597656 9.773438 19.84375 10.875 C 18.441406 9.980469 16.363281 9 14 9 L 14 11 C 17.398438 11 20.285156 13.691406 20.3125 13.71875 L 21.78125 15.125 L 22 13.09375 C 22.015625 12.929688 22.273438 9.992188 20.625 7.8125 C 21.296875 7.863281 21.769531 7.964844 21.78125 7.96875 L 24.125 8.5 L 22.84375 6.46875 C 22.753906 6.324219 20.652344 3 17 3 C 16.332031 3 15.683594 3.117188 15.09375 3.3125 L 16.40625 2 Z M 12.46875 15 C 13.074219 15 14.191406 15.679688 15.0625 16.90625 C 15.90625 18.089844 16.070313 19.082031 15.96875 19.59375 C 15.9375 19.761719 15.867188 19.882813 15.78125 19.9375 C 15.683594 20 15.554688 20 15.375 19.96875 C 15.4375 19.949219 15.484375 19.945313 15.53125 19.90625 C 15.898438 19.605469 15.652344 18.742188 15 18 C 14.347656 17.257813 13.550781 16.882813 13.1875 17.1875 C 12.90625 17.421875 12.964844 17.980469 13.3125 18.5625 C 13.1875 18.417969 13.054688 18.289063 12.9375 18.125 C 12.421875 17.398438 12.117188 16.625 12.03125 15.96875 C 11.972656 15.519531 12.046875 15.171875 12.21875 15.0625 C 12.28125 15.023438 12.359375 15 12.46875 15 Z M 24.84375 17.5 C 24.082031 18.921875 22.9375 20.558594 21.28125 21.5625 L 21.1875 21.625 C 20.828125 21.898438 19.789063 21.945313 19.34375 21.96875 C 19.15625 21.980469 18.988281 21.988281 18.875 22 L 18.25 22.09375 L 18.0625 22.6875 C 17.550781 24.191406 17.199219 25.996094 17.0625 27.84375 C 15.648438 27.535156 13.625 26.804688 12.96875 25.46875 L 12.78125 25.09375 L 11.6875 24.75 C 11.03125 24.5625 9.519531 24.042969 8.71875 23.53125 C 8.699219 23.058594 8.835938 21.996094 9.46875 21.15625 C 10.03125 20.414063 10.851563 20.019531 11.90625 20 C 13.011719 21.226563 14.367188 22 15.53125 22 C 16.023438 22 16.484375 21.871094 16.875 21.625 C 17.433594 21.269531 17.796875 20.714844 17.9375 20 C 17.953125 19.910156 17.957031 19.8125 17.96875 19.71875 C 20.667969 19.464844 23.09375 18.445313 24.84375 17.5 Z M 13.6875 18 C 13.867188 18 14.0625 18.121094 14.21875 18.34375 C 14.425781 18.640625 14.46875 19.003906 14.28125 19.125 C 14.09375 19.25 13.769531 19.109375 13.5625 18.8125 C 13.355469 18.515625 13.34375 18.152344 13.53125 18.03125 C 13.578125 18 13.628906 18 13.6875 18 Z M 12.34375 21.90625 C 12.019531 21.933594 11.652344 22.023438 11.28125 22.3125 C 10.832031 22.660156 10.84375 23.34375 10.84375 23.34375 C 10.84375 23.34375 11.539063 23.070313 11.90625 22.9375 C 12.429688 22.9375 13.230469 24.230469 14.09375 25.21875 C 14.925781 26.167969 16.625 26.8125 16.625 26.8125 C 16.605469 24.632813 17.28125 23 17.28125 23 C 17.28125 23 16.96875 23.03125 15.59375 23.03125 C 14.21875 23.03125 12.5625 22.753906 12.5625 22.5625 L 13.28125 22.03125 C 13.28125 22.03125 12.882813 21.863281 12.34375 21.90625 Z M 14.03125 23.46875 C 14.464844 23.523438 14.8125 23.96875 14.8125 23.96875 C 14.8125 23.96875 14.902344 23.636719 15.15625 23.6875 C 15.703125 23.796875 15.59375 25.40625 15.59375 25.40625 C 15.59375 25.40625 14.886719 25.285156 14.3125 24.53125 C 14.128906 24.289063 14.070313 24.195313 13.9375 24 C 13.875 23.90625 13.78125 23.4375 14.03125 23.46875 Z "></path>
</g>
</svg>
