<?xml version="1.0" encoding="UTF-8"?>
<svg xmlns="http://www.w3.org/2000/svg" xmlns:xlink="http://www.w3.org/1999/xlink" viewBox="0 0 32 32" version="1.1">
<g>
<path d="M 7.4375 3 L 7.15625 3.46875 C 7.15625 3.46875 4 8.679688 4 16 C 4 23.320313 7.15625 28.53125 7.15625 28.53125 L 7.4375 29 L 24.5625 29 L 24.84375 28.53125 C 24.84375 28.53125 28 23.320313 28 16 C 28 8.679688 24.84375 3.46875 24.84375 3.46875 L 24.5625 3 Z M 8.625 5 L 9.8125 5 C 9.695313 5.710938 9.546875 6.695313 9.40625 8 L 7.3125 8 C 7.878906 6.363281 8.457031 5.292969 8.625 5 Z M 11.8125 5 L 15 5 L 15 8 L 11.4375 8 C 11.585938 6.644531 11.703125 5.632813 11.8125 5 Z M 17 5 L 20.1875 5 C 20.296875 5.632813 20.414063 6.644531 20.5625 8 L 17 8 Z M 22.1875 5 L 23.375 5 C 23.542969 5.292969 24.121094 6.363281 24.6875 8 L 22.59375 8 C 22.453125 6.695313 22.304688 5.710938 22.1875 5 Z M 6.75 10 L 9.21875 10 C 9.085938 11.710938 9 13.707031 9 16 C 9 18.292969 9.085938 20.289063 9.21875 22 L 6.75 22 C 6.339844 20.339844 6 18.320313 6 16 C 6 13.679688 6.339844 11.660156 6.75 10 Z M 11.25 10 L 15 10 L 15 22 L 11.25 22 C 11.113281 20.292969 11 18.304688 11 16 C 11 13.695313 11.113281 11.707031 11.25 10 Z M 17 10 L 20.75 10 C 20.886719 11.707031 21 13.695313 21 16 C 21 18.304688 20.886719 20.292969 20.75 22 L 17 22 Z M 22.78125 10 L 25.25 10 C 25.660156 11.660156 26 13.679688 26 16 C 26 18.320313 25.660156 20.339844 25.25 22 L 22.78125 22 C 22.914063 20.289063 23 18.292969 23 16 C 23 13.707031 22.914063 11.710938 22.78125 10 Z M 7.3125 24 L 9.40625 24 C 9.546875 25.304688 9.695313 26.289063 9.8125 27 L 8.625 27 C 8.457031 26.707031 7.878906 25.636719 7.3125 24 Z M 11.4375 24 L 15 24 L 15 27 L 11.8125 27 C 11.703125 26.367188 11.585938 25.355469 11.4375 24 Z M 17 24 L 20.5625 24 C 20.414063 25.355469 20.296875 26.367188 20.1875 27 L 17 27 Z M 22.59375 24 L 24.6875 24 C 24.121094 25.636719 23.542969 26.707031 23.375 27 L 22.1875 27 C 22.304688 26.289063 22.453125 25.304688 22.59375 24 Z "></path>
</g>
</svg>
