<?xml version="1.0" encoding="UTF-8"?>
<svg xmlns="http://www.w3.org/2000/svg" xmlns:xlink="http://www.w3.org/1999/xlink" viewBox="0 0 32 32" version="1.1">
<g>
<path d="M 28 17 C 28 15.6875 27.148438 14.566406 25.972656 14.160156 C 25.574219 8.203125 20.941406 6.210938 19 5.632813 L 19 4 L 13 4 L 13 5.636719 C 11.066406 6.226563 6.429688 8.246094 6.027344 14.160156 C 4.851563 14.566406 4 15.6875 4 17 L 4 20 L 6.402344 20 C 6.214844 20.65625 6.082031 21.371094 6.027344 22.160156 C 4.851563 22.566406 4 23.6875 4 25 L 4 28 L 28 28 L 28 25 C 28 23.6875 27.148438 22.566406 25.972656 22.160156 C 25.921875 21.371094 25.789063 20.65625 25.601563 20 L 28 20 Z M 26 25 L 26 26 L 6 26 L 6 25 C 6 24.449219 6.449219 24 7 24 L 10 24 L 10 22 L 8.058594 22 C 8.472656 17.964844 11.34375 16.335938 13 15.730469 L 13 18 L 15 18 L 15 14 L 17 14 L 17 18 L 19 18 L 19 15.722656 C 20.65625 16.316406 23.53125 17.929688 23.941406 22 L 22 22 L 22 24 L 25 24 C 25.550781 24 26 24.449219 26 25 Z M 26 18 L 24.761719 18 C 23.152344 15.195313 20.390625 14.046875 19 13.632813 L 19 12 L 13 12 L 13 13.636719 C 11.617188 14.058594 8.863281 15.21875 7.253906 18 L 6 18 L 6 17 C 6 16.449219 6.449219 16 7 16 L 8 16 L 8 15 C 8 10.222656 11.210938 8.386719 13 7.730469 L 13 10 L 15 10 L 15 6 L 17 6 L 17 10 L 19 10 L 19 7.722656 C 20.785156 8.359375 24 10.179688 24 15 L 24 16 L 25 16 C 25.550781 16 26 16.449219 26 17 Z "></path>
</g>
</svg>
