<?xml version="1.0" encoding="UTF-8"?>
<svg xmlns="http://www.w3.org/2000/svg" xmlns:xlink="http://www.w3.org/1999/xlink" viewBox="0 0 32 32" version="1.1">
<g>
<path d="M 16 3 C 12.699219 3 10 5.699219 10 9 L 12 9 C 12 6.78125 13.78125 5 16 5 C 18.21875 5 20 6.78125 20 9 L 22 9 C 22 5.699219 19.300781 3 16 3 Z M 16 9 C 14.898438 9 14 9.898438 14 11 C 14 12.101563 14.898438 13 16 13 C 17.101563 13 18 12.101563 18 11 C 18 9.898438 17.101563 9 16 9 Z M 10 10 C 10 10.207031 10.011719 10.425781 10.03125 10.625 C 10.136719 13.328125 10.878906 15.152344 11.59375 16.5625 C 12.363281 18.082031 13 19.078125 13 20.6875 C 13 21.921875 12.496094 22.375 11.75 23.1875 C 11.003906 24 10 25.164063 10 27 L 10 28 L 23 28 L 23 27 C 23 26.042969 22.734375 25.269531 22.375 24.6875 C 22.015625 24.105469 21.609375 23.710938 21.28125 23.28125 C 20.660156 22.46875 20.0625 21.425781 20 18.5 C 20.9375 16.800781 21.875 14.519531 21.96875 10.625 C 21.988281 10.425781 22 10.207031 22 10 L 20 10 C 20 12.21875 18.21875 14 16 14 C 13.78125 14 12 12.21875 12 10 Z M 19.40625 14.9375 C 19.0625 16.085938 18.589844 16.964844 18.125 17.78125 C 17.160156 19.472656 16 21.101563 16 24 L 18 24 C 18 23.023438 18.140625 22.289063 18.375 21.625 C 18.707031 22.960938 19.226563 23.855469 19.71875 24.5 C 20.140625 25.050781 20.484375 25.425781 20.6875 25.75 C 20.726563 25.816406 20.714844 25.933594 20.75 26 L 12.25 26 C 12.457031 25.503906 12.777344 25.078125 13.25 24.5625 C 14.003906 23.742188 15 22.566406 15 20.6875 C 15 18.546875 14.136719 17.09375 13.40625 15.65625 C 13.351563 15.542969 13.304688 15.425781 13.25 15.3125 C 14.078125 15.746094 15.003906 16 16 16 C 17.261719 16 18.4375 15.609375 19.40625 14.9375 Z "></path>
</g>
</svg>
