<?xml version="1.0" encoding="UTF-8"?>
<svg xmlns="http://www.w3.org/2000/svg" xmlns:xlink="http://www.w3.org/1999/xlink" viewBox="0 0 32 32" version="1.1">
<g>
<path d="M 18 3 L 14 7 L 9 4 L 8 8 L 3 8 L 5.03125 12 L 7.273438 12 L 6.257813 10 L 9.5625 10 L 9.9375 8.484375 L 10.285156 7.101563 L 12.96875 8.714844 L 14.3125 9.515625 L 17.6875 6.140625 L 18.335938 7.109375 L 19.078125 8.226563 L 20.390625 7.960938 L 23 7.4375 L 23 11 L 26.140625 11 L 25.777344 12 L 27.90625 12 L 29 9 L 25 9 L 25 5 L 20 6 Z M 15.984375 13 C 14.90625 13 14.0625 13.308594 13.457031 13.921875 C 12.855469 14.539063 12.550781 15.402344 12.550781 16.503906 C 12.550781 17.296875 12.703125 17.953125 13.011719 18.480469 C 13.316406 19.007813 13.714844 19.390625 14.203125 19.636719 C 14.695313 19.878906 15.316406 20 16.066406 20 C 16.804688 20 17.417969 19.859375 17.914063 19.578125 C 18.40625 19.296875 18.785156 18.902344 19.046875 18.394531 C 19.308594 17.886719 19.4375 17.238281 19.4375 16.449219 C 19.4375 15.359375 19.140625 14.511719 18.542969 13.90625 C 17.941406 13.300781 17.089844 13 15.984375 13 Z M 3 13.113281 L 4.476563 19.886719 L 6.492188 19.886719 L 7.65625 15.625 L 8.820313 19.886719 L 10.832031 19.886719 L 12.296875 13.113281 L 10.359375 13.113281 L 9.65625 16.902344 L 8.625 13.113281 L 6.679688 13.113281 L 5.652344 16.90625 L 4.953125 13.113281 Z M 19.703125 13.113281 L 21.183594 19.886719 L 23.195313 19.886719 L 24.355469 15.625 L 25.519531 19.886719 L 27.535156 19.886719 L 29 13.113281 L 27.0625 13.113281 L 26.359375 16.902344 L 25.328125 13.113281 L 23.382813 13.113281 L 22.355469 16.90625 L 21.652344 13.113281 Z M 15.980469 14.582031 C 16.410156 14.582031 16.753906 14.730469 17.003906 15.023438 C 17.257813 15.320313 17.386719 15.78125 17.386719 16.421875 C 17.386719 17.175781 17.265625 17.699219 17.023438 17.996094 C 16.78125 18.289063 16.4375 18.433594 16 18.433594 C 15.566406 18.433594 15.230469 18.285156 14.980469 17.984375 C 14.730469 17.6875 14.605469 17.199219 14.605469 16.515625 C 14.605469 15.824219 14.730469 15.328125 14.980469 15.03125 C 15.230469 14.730469 15.566406 14.582031 15.980469 14.582031 Z M 5 21 L 4 24 L 8 24 L 8 28 L 13 26 L 15 29 L 18 26 L 23 28 L 24 25 L 28 25 L 27 21 L 24.9375 21 L 25.4375 23 L 22.558594 23 L 22.105469 24.367188 L 21.773438 25.355469 L 18.742188 24.140625 L 17.515625 23.652344 L 16.585938 24.585938 L 15.3125 25.859375 L 14.664063 24.890625 L 13.765625 23.539063 L 12.257813 24.140625 L 10 25.046875 L 10 22 L 6.773438 22 L 7.109375 21 Z "></path>
</g>
</svg>
