<?xml version="1.0" encoding="UTF-8"?>
<svg xmlns="http://www.w3.org/2000/svg" xmlns:xlink="http://www.w3.org/1999/xlink" viewBox="0 0 32 32" version="1.1">
<g>
<path d="M 12.5 5 C 10.578125 5 9 6.578125 9 8.5 C 9 9.160156 9.207031 9.75 9.53125 10.28125 C 8.097656 10.09375 6.65625 10.8125 5.96875 12.15625 L 4.5 15.0625 C 3.945313 16.148438 3.855469 17.367188 4.21875 18.53125 L 5.15625 21.53125 L 2.5 27 L 4.71875 27 L 7.03125 22.21875 C 7.195313 21.875 7.238281 21.488281 7.125 21.125 L 6.125 17.9375 C 5.917969 17.277344 5.964844 16.585938 6.28125 15.96875 L 7.75 13.0625 C 8.089844 12.398438 8.863281 12.105469 9.5625 12.34375 L 7.125 17.96875 L 9.84375 21.75 L 10.96875 27 L 13.03125 27 L 11.75 21.21875 C 11.707031 21.019531 11.652344 20.828125 11.53125 20.65625 L 9.40625 17.75 L 10.96875 14.125 L 11.875 16.125 C 12.117188 16.664063 12.660156 17 13.25 17 L 17.09375 17 L 17.09375 15 L 13.5625 15 L 12.1875 11.96875 C 12.292969 11.980469 12.390625 12 12.5 12 C 14.421875 12 16 10.421875 16 8.5 C 16 6.578125 14.421875 5 12.5 5 Z M 12.5 7 C 13.339844 7 14 7.660156 14 8.5 C 14 9.339844 13.339844 10 12.5 10 C 11.660156 10 11 9.339844 11 8.5 C 11 7.660156 11.660156 7 12.5 7 Z M 20.5 7 C 18.578125 7 17 8.578125 17 10.5 C 17 12.421875 18.578125 14 20.5 14 C 20.6875 14 20.851563 13.964844 21.03125 13.9375 L 20.5 14.5625 L 19.46875 18 L 16.1875 20.0625 L 17.21875 21.75 L 20.6875 19.59375 C 21 19.398438 21.238281 19.101563 21.34375 18.75 L 21.8125 17.1875 L 23.09375 18.8125 L 20.78125 22.09375 L 19.84375 27 L 21.875 27 L 22.65625 22.90625 L 25.59375 18.71875 L 22.6875 15.09375 L 23.59375 14.0625 L 23.75 14.0625 L 26.46875 16.84375 C 27 17.390625 27.136719 18.21875 26.8125 18.90625 L 25.25 22.21875 C 25.039063 22.664063 25.066406 23.195313 25.3125 23.625 L 27.25 27 L 29.5625 27 L 27.1875 22.84375 L 28.625 19.78125 C 29.308594 18.339844 29.023438 16.578125 27.90625 15.4375 L 25.1875 12.65625 C 24.78125 12.242188 24.203125 12.027344 23.625 12.03125 C 23.859375 11.5625 24 11.054688 24 10.5 C 24 8.578125 22.421875 7 20.5 7 Z M 20.5 9 C 21.339844 9 22 9.660156 22 10.5 C 22 11.339844 21.339844 12 20.5 12 C 19.660156 12 19 11.339844 19 10.5 C 19 9.660156 19.660156 9 20.5 9 Z "></path>
</g>
</svg>
