<?xml version="1.0" encoding="UTF-8"?>
<svg xmlns="http://www.w3.org/2000/svg" xmlns:xlink="http://www.w3.org/1999/xlink" viewBox="0 0 32 32" version="1.1">
<g>
<path d="M 0 7 L 0 25 L 32 25 L 32 7 Z M 2 9 L 30 9 L 30 23 L 2 23 Z M 5 12 L 5 13.15625 L 5.03125 13.3125 L 6.9375 19.3125 L 7.15625 20 L 8.84375 20 L 9.0625 19.28125 L 9.5 17.78125 L 9.9375 19.28125 L 10.15625 20 L 11.84375 20 L 12.0625 19.3125 L 13.96875 13.3125 L 14 13.15625 L 14 12 L 12 12 L 12 12.78125 L 11.03125 15.84375 L 10.5625 14.21875 L 10.34375 13.5 L 8.65625 13.5 L 8.4375 14.21875 L 7.96875 15.84375 L 7 12.78125 L 7 12 Z M 17.5 12 C 16.117188 12 15 13.117188 15 14.5 C 15 15.882813 16.117188 17 17.5 17 C 17.714844 17 18 17.285156 18 17.5 C 18 17.800781 17.882813 18 17.5 18 C 17.132813 18 17.074219 17.921875 17.0625 17.90625 C 17.050781 17.890625 17 17.828125 17 17.59375 L 15 17.59375 C 15 18.160156 15.164063 18.796875 15.625 19.28125 C 16.085938 19.765625 16.769531 20 17.5 20 C 18.917969 20 20 18.800781 20 17.5 C 20 16.117188 18.882813 15 17.5 15 C 17.285156 15 17 14.714844 17 14.5 C 17 14.285156 17.285156 14 17.5 14 C 17.765625 14 17.847656 14.0625 17.90625 14.125 C 17.964844 14.1875 18 14.292969 18 14.40625 L 20 14.40625 C 20 13.816406 19.785156 13.214844 19.34375 12.75 C 18.902344 12.285156 18.234375 12 17.5 12 Z M 21 12 L 21 20 L 23 20 L 23 17 L 24 17 L 24 20 L 26 20 L 26 12 L 24 12 L 24 15 L 23 15 L 23 12 Z "></path>
</g>
</svg>
