<?xml version="1.0" encoding="UTF-8"?>
<svg xmlns="http://www.w3.org/2000/svg" xmlns:xlink="http://www.w3.org/1999/xlink" viewBox="0 0 32 32" version="1.1">
<g>
<path d="M 5 5 L 5 27 L 27 27 L 27 5 Z M 7 7 L 25 7 L 25 25 L 7 25 Z M 14.71875 8.28125 L 13.28125 9.71875 L 14.5625 11 L 13.28125 12.28125 L 14.71875 13.71875 L 16 12.4375 L 17.28125 13.71875 L 18.71875 12.28125 L 17.4375 11 L 18.71875 9.71875 L 17.28125 8.28125 L 16 9.5625 Z M 13.21875 14.9375 L 11.03125 17.46875 C 10.375 18.222656 10 19.1875 10 20.1875 L 10 20.5 C 10 21.867188 11.132813 23 12.5 23 L 13.5 23 C 14.867188 23 16 21.867188 16 20.5 C 16 19.132813 14.867188 18 13.5 18 L 13.21875 18 L 14.71875 16.25 Z M 20 15 L 20 18 L 19 18 L 19 15.03125 L 17 15.03125 L 17 20 L 20 20 L 20 23 L 22 23 L 22 15 Z M 12.0625 20 L 13.5 20 C 13.785156 20 14 20.214844 14 20.5 C 14 20.785156 13.785156 21 13.5 21 L 12.5 21 C 12.214844 21 12 20.785156 12 20.5 L 12 20.1875 C 12 20.121094 12.054688 20.066406 12.0625 20 Z "></path>
</g>
</svg>
