<?xml version="1.0" encoding="UTF-8"?>
<svg xmlns="http://www.w3.org/2000/svg" xmlns:xlink="http://www.w3.org/1999/xlink" viewBox="0 0 32 32" version="1.1">
<g>
<path d="M 16 4 C 9.355469 4 4 9.355469 4 16 C 4 22.644531 9.355469 28 16 28 C 22.644531 28 28 22.644531 28 16 C 28 9.355469 22.644531 4 16 4 Z M 16 7 C 17.941406 7 19.746094 7.605469 21.21875 8.65625 L 16 13.875 L 10.78125 8.65625 C 12.253906 7.605469 14.058594 7 16 7 Z M 8.65625 10.78125 L 13.875 16 L 8.65625 21.21875 C 7.605469 19.746094 7 17.941406 7 16 C 7 14.058594 7.605469 12.253906 8.65625 10.78125 Z M 23.34375 10.78125 C 24.394531 12.253906 25 14.058594 25 16 C 25 17.941406 24.394531 19.746094 23.34375 21.21875 L 18.125 16 Z M 16 18.125 L 21.21875 23.34375 C 19.746094 24.394531 17.941406 25 16 25 C 14.058594 25 12.253906 24.394531 10.78125 23.34375 Z "></path>
</g>
</svg>
