<?xml version="1.0" encoding="UTF-8"?>
<svg xmlns="http://www.w3.org/2000/svg" xmlns:xlink="http://www.w3.org/1999/xlink" viewBox="0 0 32 32" version="1.1">
<g>
<path d="M 21.375 7 C 11.441406 7 6.742188 10.5 5.125 12.125 C 4.535156 12.714844 4.167969 13.511719 4.09375 14.34375 L 3.5 21.15625 C 3.410156 22.1875 3.785156 23.195313 4.5 23.9375 C 5.148438 24.613281 6.03125 25 6.96875 25 L 22.46875 25 C 23.957031 25 25.273438 24.039063 25.75 22.625 C 27.101563 18.632813 27.777344 16.429688 28.125 15.1875 C 28.296875 14.566406 28.386719 14.183594 28.4375 13.90625 C 28.488281 13.628906 28.5 13.410156 28.5 13.34375 C 28.5 12.460938 28.046875 11.867188 27.53125 11.21875 C 27.015625 10.570313 26.367188 9.914063 25.65625 9.3125 C 24.945313 8.710938 24.175781 8.164063 23.46875 7.75 C 22.761719 7.335938 22.167969 7 21.375 7 Z M 21.375 9 C 21.328125 9 21.890625 9.128906 22.46875 9.46875 C 23.046875 9.808594 23.710938 10.308594 24.34375 10.84375 C 24.976563 11.378906 25.570313 11.96875 25.96875 12.46875 C 26.367188 12.96875 26.5 13.433594 26.5 13.34375 C 26.5 13.410156 26.503906 13.382813 26.46875 13.5625 C 26.433594 13.742188 26.351563 14.070313 26.1875 14.65625 C 25.859375 15.832031 25.1875 17.992188 23.84375 21.96875 C 23.632813 22.59375 23.09375 23 22.46875 23 L 6.96875 23 C 6.566406 23 6.226563 22.859375 5.9375 22.5625 C 5.628906 22.238281 5.460938 21.777344 5.5 21.3125 L 6.09375 14.5 C 6.125 14.125 6.285156 13.78125 6.53125 13.53125 C 7.808594 12.246094 11.90625 9 21.375 9 Z M 10 13 L 10 21 L 15 21 L 15 19 L 12 19 L 12 13 Z M 16 13 L 16 21 L 19.5 21 C 20.867188 21 22 19.867188 22 18.5 C 22 17.558594 21.371094 16.894531 20.59375 16.46875 C 20.746094 16.144531 21 15.878906 21 15.5 C 21 14.132813 19.867188 13 18.5 13 Z M 18 15 L 18.5 15 C 18.785156 15 19 15.214844 19 15.5 C 19 15.785156 18.785156 16 18.5 16 L 18 16 Z M 18 18 L 19.5 18 C 19.785156 18 20 18.214844 20 18.5 C 20 18.785156 19.785156 19 19.5 19 L 18 19 Z "></path>
</g>
</svg>
