<?xml version="1.0" encoding="UTF-8"?>
<svg xmlns="http://www.w3.org/2000/svg" xmlns:xlink="http://www.w3.org/1999/xlink" viewBox="0 0 32 32" version="1.1">
<g>
<path d="M 8.28125 6 C 7.40625 6 6.632813 6.570313 6.375 7.40625 C 6.308594 7.621094 5 11.710938 5 14.46875 C 5 16.074219 5.675781 18.703125 7.15625 21.1875 C 8.636719 23.671875 11.054688 26 14.46875 26 L 26 26 C 26.691406 26 27.324219 25.652344 27.6875 25.0625 C 28.050781 24.480469 28.074219 23.738281 27.78125 23.125 C 27.78125 23.121094 27.78125 23.097656 27.78125 23.09375 C 27.726563 22.984375 27.632813 22.757813 27.40625 22.25 C 27.171875 21.726563 26.839844 21.015625 26.53125 20.1875 C 25.910156 18.527344 25.3125 16.417969 25.3125 14.96875 C 25.3125 13.28125 25.507813 11.648438 25.6875 10.4375 C 25.777344 9.832031 25.871094 9.347656 25.9375 9 C 25.972656 8.824219 25.980469 8.6875 26 8.59375 C 26.011719 8.546875 26.027344 8.492188 26.03125 8.46875 L 26.03125 8.4375 C 26.167969 7.847656 26.035156 7.226563 25.65625 6.75 C 25.277344 6.273438 24.703125 6 24.09375 6 Z M 8.28125 8 L 24.09375 8 C 24.089844 8.019531 24.066406 8.042969 24.0625 8.0625 C 24.054688 8.089844 24.074219 8.136719 24.0625 8.1875 C 24.039063 8.289063 24.003906 8.4375 23.96875 8.625 C 23.898438 9 23.78125 9.515625 23.6875 10.15625 C 23.5 11.4375 23.3125 13.140625 23.3125 14.96875 C 23.3125 16.917969 23.996094 19.113281 24.65625 20.875 C 24.984375 21.753906 25.3125 22.539063 25.5625 23.09375 C 25.8125 23.648438 26.039063 24.078125 26 24 L 14.46875 24 C 11.953125 24 10.152344 22.332031 8.875 20.1875 C 7.597656 18.042969 7 15.402344 7 14.46875 C 7 12.414063 8.238281 8.140625 8.28125 8 Z M 11 12 L 11 20 L 16 20 L 16 18 L 13 18 L 13 12 Z M 15 12 L 15 14 L 17 14 L 17 20 L 19 20 L 19 14 L 21 14 L 21 12 Z "></path>
</g>
</svg>
