<?xml version="1.0" encoding="UTF-8"?>
<svg xmlns="http://www.w3.org/2000/svg" xmlns:xlink="http://www.w3.org/1999/xlink" viewBox="0 0 32 32" version="1.1">
<g>
<path d="M 16 4 C 9.382813 4 4 9.382813 4 16 C 4 22.617188 9.382813 28 16 28 C 22.617188 28 28 22.617188 28 16 C 28 9.382813 22.617188 4 16 4 Z M 16 6 C 21.535156 6 26 10.464844 26 16 C 26 21.535156 21.535156 26 16 26 C 10.464844 26 6 21.535156 6 16 C 6 10.464844 10.464844 6 16 6 Z M 13 11 L 13 21 L 15 21 L 15 17 L 15.34375 17 L 18 21 L 20 21 L 17.3125 16.96875 C 18.808594 16.804688 20 15.535156 20 14 C 20 12.355469 18.644531 11 17 11 Z M 15 13 L 17 13 C 17.566406 13 18 13.433594 18 14 C 18 14.566406 17.566406 15 17 15 L 15 15 Z "></path>
</g>
</svg>
