<?xml version="1.0" encoding="UTF-8"?>
<svg xmlns="http://www.w3.org/2000/svg" xmlns:xlink="http://www.w3.org/1999/xlink" viewBox="0 0 32 32" version="1.1">
<g>
<path d="M 7.90625 6 C 7.296875 6 6.722656 6.273438 6.34375 6.75 C 5.964844 7.226563 5.832031 7.84375 5.96875 8.4375 L 5.96875 8.46875 C 5.972656 8.492188 5.988281 8.546875 6 8.59375 C 6.019531 8.6875 6.027344 8.824219 6.0625 9 C 6.128906 9.347656 6.222656 9.832031 6.3125 10.4375 C 6.492188 11.648438 6.6875 13.28125 6.6875 14.96875 C 6.6875 16.417969 6.089844 18.527344 5.46875 20.1875 C 5.160156 21.015625 4.828125 21.726563 4.59375 22.25 C 4.367188 22.757813 4.273438 22.984375 4.21875 23.09375 C 4.21875 23.097656 4.21875 23.121094 4.21875 23.125 C 3.925781 23.738281 3.949219 24.480469 4.3125 25.0625 C 4.675781 25.652344 5.308594 26 6 26 L 17.53125 26 C 20.945313 26 23.363281 23.671875 24.84375 21.1875 C 26.324219 18.703125 27 16.074219 27 14.46875 C 27 13.089844 26.675781 11.433594 26.34375 10.03125 C 26.011719 8.628906 25.644531 7.503906 25.625 7.4375 L 25.625 7.40625 C 25.367188 6.570313 24.59375 6 23.71875 6 Z M 7.90625 8 L 23.71875 8 C 23.75 8.109375 24.058594 9.164063 24.375 10.5 C 24.691406 11.835938 25 13.441406 25 14.46875 C 25 15.402344 24.402344 18.042969 23.125 20.1875 C 21.847656 22.332031 20.046875 24 17.53125 24 L 6 24 C 5.960938 24.078125 6.1875 23.648438 6.4375 23.09375 C 6.6875 22.539063 7.015625 21.753906 7.34375 20.875 C 8.003906 19.113281 8.6875 16.917969 8.6875 14.96875 C 8.6875 13.140625 8.5 11.4375 8.3125 10.15625 C 8.21875 9.515625 8.101563 9 8.03125 8.625 C 7.996094 8.4375 7.960938 8.289063 7.9375 8.1875 C 7.925781 8.136719 7.945313 8.089844 7.9375 8.0625 C 7.933594 8.042969 7.910156 8.019531 7.90625 8 Z M 11 12 L 11 20 L 13 20 L 13 17 L 13.25 17 L 15 20 L 17 20 L 15.1875 16.875 C 16.222656 16.570313 17 15.628906 17 14.5 C 17 13.132813 15.867188 12 14.5 12 Z M 17 12 L 17 14 L 19 14 L 19 20 L 21 20 L 21 14 L 23 14 L 23 12 Z M 13 14 L 14.5 14 C 14.785156 14 15 14.214844 15 14.5 C 15 14.785156 14.785156 15 14.5 15 L 13 15 Z "></path>
</g>
</svg>
