<?xml version="1.0" encoding="UTF-8"?>
<svg xmlns="http://www.w3.org/2000/svg" xmlns:xlink="http://www.w3.org/1999/xlink" viewBox="0 0 32 32" version="1.1">
<g>
<path d="M 16 4 C 9.382813 4 4 9.382813 4 16 C 4 22.617188 9.382813 28 16 28 C 22.617188 28 28 22.617188 28 16 C 28 9.382813 22.617188 4 16 4 Z M 16 6 C 21.535156 6 26 10.464844 26 16 C 26 21.535156 21.535156 26 16 26 C 10.464844 26 6 21.535156 6 16 C 6 10.464844 10.464844 6 16 6 Z M 13 11 L 13 21 L 18 21 C 19.644531 21 21 19.644531 21 18 C 21 16.875 20.269531 16.074219 19.34375 15.5625 C 19.660156 15.089844 20 14.605469 20 14 C 20 12.355469 18.644531 11 17 11 Z M 15 13 L 17 13 C 17.566406 13 18 13.433594 18 14 C 18 14.566406 17.566406 15 17 15 L 15 15 Z M 15 17 L 18 17 C 18.566406 17 19 17.433594 19 18 C 19 18.566406 18.566406 19 18 19 L 15 19 Z "></path>
</g>
</svg>
