<?xml version="1.0" encoding="UTF-8"?>
<svg xmlns="http://www.w3.org/2000/svg" xmlns:xlink="http://www.w3.org/1999/xlink" viewBox="0 0 32 32" version="1.1">
<g>
<path d="M 16 4 C 9.382813 4 4 9.382813 4 16 C 4 22.617188 9.382813 28 16 28 C 22.617188 28 28 22.617188 28 16 C 28 9.382813 22.617188 4 16 4 Z M 16 6 C 21.535156 6 26 10.464844 26 16 C 26 21.535156 21.535156 26 16 26 C 10.464844 26 6 21.535156 6 16 C 6 10.464844 10.464844 6 16 6 Z M 15.25 11 L 15 11.65625 L 12.0625 19.65625 L 12 19.8125 L 12 21 L 14 21 L 14 20.1875 L 14.4375 19 L 17.5625 19 L 18 20.1875 L 18 21 L 20 21 L 20 19.8125 L 19.9375 19.65625 L 17 11.65625 L 16.75 11 Z M 16 14.71875 L 16.84375 17 L 15.15625 17 Z "></path>
</g>
</svg>
