<?xml version="1.0" encoding="UTF-8"?>
<svg xmlns="http://www.w3.org/2000/svg" xmlns:xlink="http://www.w3.org/1999/xlink" viewBox="0 0 32 32" version="1.1">
<g>
<path d="M 5 5 L 5 27 L 27 27 L 27 5 Z M 7 7 L 25 7 L 25 25 L 7 25 Z M 8 8 L 8 24 L 24 24 L 24 8 Z M 10 10 L 22 10 L 22 22 L 10 22 Z M 15.9375 12 C 15.242188 12.007813 14.566406 12.378906 14.21875 13.125 L 14.03125 13.5 L 13.625 13.59375 C 12.03125 13.855469 11.421875 15.863281 12.59375 17 L 12.90625 17.28125 L 12.84375 17.6875 C 12.59375 19.316406 14.269531 20.539063 15.6875 19.75 L 16.0625 19.5625 L 16.40625 19.75 C 17.84375 20.496094 19.515625 19.214844 19.21875 17.59375 L 19.125 17.1875 L 19.4375 16.90625 C 20.578125 15.738281 19.910156 13.714844 18.3125 13.5 L 17.90625 13.46875 L 17.71875 13.09375 C 17.351563 12.359375 16.632813 11.992188 15.9375 12 Z M 16 15 C 16.550781 15 17 15.449219 17 16 C 16.996094 16.554688 16.550781 17 16 17 C 15.449219 17 15 16.554688 15 16 C 15 15.449219 15.445313 14.996094 16 15 Z "></path>
</g>
</svg>
