<?xml version="1.0" encoding="UTF-8"?>
<svg xmlns="http://www.w3.org/2000/svg" xmlns:xlink="http://www.w3.org/1999/xlink" viewBox="0 0 32 32" version="1.1">
<g>
<path d="M 0 7 L 0 25 L 32 25 L 32 7 Z M 2 9 L 30 9 L 30 23 L 2 23 Z M 7 12 L 9 16 L 7 20 L 9 20 L 10 18 L 11 20 L 13 20 L 11 16 L 13 12 L 11 12 L 10 14 L 9 12 Z M 14 12 L 14 20 L 16 20 L 16 15.332031 L 17 16.667969 L 18 15.332031 L 18 20 L 20 20 L 20 12 L 18 12 L 17 13.332031 L 16 12 Z M 22 12 L 22 20 L 26 20 L 26 18 L 24 18 L 24 12 Z "></path>
</g>
</svg>
