<?xml version="1.0" encoding="UTF-8"?>
<svg xmlns="http://www.w3.org/2000/svg" xmlns:xlink="http://www.w3.org/1999/xlink" viewBox="0 0 32 32" version="1.1">
<g>
<path d="M 6 3 L 6 10 L 8 10 L 8 5 L 24 5 L 24 10 L 26 10 L 26 3 Z M 7 12 L 9 16 L 7 20 L 9 20 L 10 18 L 11 20 L 13 20 L 11 16 L 13 12 L 11 12 L 10 14 L 9 12 Z M 14 12 L 14 20 L 16 20 L 16 15.332031 L 17 16.667969 L 18 15.332031 L 18 20 L 20 20 L 20 12 L 18 12 L 17 13.332031 L 16 12 Z M 22 12 L 22 20 L 26 20 L 26 18 L 24 18 L 24 12 Z M 6 22 L 6 29 L 26 29 L 26 22 L 24 22 L 24 27 L 8 27 L 8 22 Z "></path>
</g>
</svg>
