<?xml version="1.0" encoding="UTF-8"?>
<svg xmlns="http://www.w3.org/2000/svg" xmlns:xlink="http://www.w3.org/1999/xlink" viewBox="0 0 32 32" version="1.1">
<g>
<path d="M 27.5625 4 L 20.5 11.0625 C 20.339844 11.019531 20.171875 11 20 11 C 18.894531 11 18 11.894531 18 13 C 18 14.105469 18.894531 15 20 15 C 21.105469 15 22 14.105469 22 13 C 22 12.828125 21.980469 12.660156 21.9375 12.5 L 29 5.4375 Z M 5 6 C 3.90625 6 3 6.90625 3 8 L 3 24 C 3 25.09375 3.90625 26 5 26 L 9 26 C 9.746094 26 10.40625 25.585938 10.75 24.96875 C 10.832031 24.980469 10.914063 25 11 25 L 15 25 C 15.730469 25 16.371094 24.597656 16.71875 24 L 21 24 C 21.738281 24 22.371094 23.597656 22.71875 23 L 27 23 C 28.105469 23 29 22.105469 29 21 L 29 10.4375 C 29 9.652344 28.347656 9 27.5625 9 L 25.5625 11 L 27 11 L 27 21 L 23 21 L 23 14.03125 L 22.65625 14.375 C 22.371094 14.917969 21.917969 15.371094 21.375 15.65625 L 21 16.03125 L 21 22 L 17 22 L 17 10 L 19.40625 10 L 21.40625 8 L 16.71875 8 C 16.371094 7.402344 15.730469 7 15 7 L 11 7 C 10.914063 7 10.832031 7.019531 10.75 7.03125 C 10.40625 6.414063 9.746094 6 9 6 Z M 5 8 L 9 8 L 9 24 L 5 24 Z M 11 9 L 15 9 L 15 23 L 11 23 Z M 7 12 C 6.449219 12 6 12.449219 6 13 C 6 13.550781 6.449219 14 7 14 C 7.550781 14 8 13.550781 8 13 C 8 12.449219 7.550781 12 7 12 Z M 13 12 C 12.449219 12 12 12.449219 12 13 C 12 13.550781 12.449219 14 13 14 C 13.550781 14 14 13.550781 14 13 C 14 12.449219 13.550781 12 13 12 Z M 25 12 C 24.449219 12 24 12.449219 24 13 C 24 13.550781 24.449219 14 25 14 C 25.550781 14 26 13.550781 26 13 C 26 12.449219 25.550781 12 25 12 Z M 7 18 C 6.449219 18 6 18.449219 6 19 C 6 19.550781 6.449219 20 7 20 C 7.550781 20 8 19.550781 8 19 C 8 18.449219 7.550781 18 7 18 Z M 13 18 C 12.449219 18 12 18.449219 12 19 C 12 19.550781 12.449219 20 13 20 C 13.550781 20 14 19.550781 14 19 C 14 18.449219 13.550781 18 13 18 Z M 19 18 C 18.449219 18 18 18.449219 18 19 C 18 19.550781 18.449219 20 19 20 C 19.550781 20 20 19.550781 20 19 C 20 18.449219 19.550781 18 19 18 Z M 25 18 C 24.449219 18 24 18.449219 24 19 C 24 19.550781 24.449219 20 25 20 C 25.550781 20 26 19.550781 26 19 C 26 18.449219 25.550781 18 25 18 Z "></path>
</g>
</svg>
