<?xml version="1.0" encoding="UTF-8"?>
<svg xmlns="http://www.w3.org/2000/svg" xmlns:xlink="http://www.w3.org/1999/xlink" viewBox="0 0 32 32" version="1.1">
<g>
<path d="M 27.28125 3 C 26.972656 3.050781 26.65625 3.3125 26.40625 3.5 C 26.007813 3.800781 22.90625 6.40625 22.90625 6.40625 C 21.90625 6.40625 21.085938 7.011719 20.6875 7.8125 C 20.023438 8.476563 19.429688 11.277344 18.6875 12.25 L 18.0625 11.625 L 17.34375 12.25 L 10.34375 18.25 L 9.53125 18.9375 L 10.15625 19.5625 L 3 26.1875 L 3 29 L 11.46875 20.90625 L 13.0625 22.5 L 6.25 29 L 9.0625 29 L 14.46875 23.90625 L 15.0625 24.46875 L 15.75 23.65625 L 21.75 16.65625 L 22.375 15.9375 L 21.71875 15.28125 C 22.496094 14.710938 24.164063 14.679688 26.3125 12.71875 C 27.710938 11.417969 27.386719 10.804688 27.1875 10.40625 C 26.988281 10.007813 26.8125 10 26.8125 10 C 26.8125 10 27.113281 9.40625 26.8125 8.90625 C 26.511719 8.40625 26.09375 8.5 26.09375 8.5 C 26.09375 8.5 26.394531 8 26.09375 7.5 C 25.792969 6.898438 25.09375 7 25.09375 7 C 25.292969 6.800781 27.199219 4.800781 27.5 4.5 C 27.699219 4.199219 28.3125 3.71875 27.8125 3.21875 C 27.664063 3.03125 27.464844 2.96875 27.28125 3 Z M 17.9375 14.375 L 19.625 16.0625 L 14.96875 21.53125 L 12.46875 19.03125 Z "></path>
</g>
</svg>
