<?xml version="1.0" encoding="UTF-8"?>
<svg xmlns="http://www.w3.org/2000/svg" xmlns:xlink="http://www.w3.org/1999/xlink" viewBox="0 0 32 32" version="1.1">
<g>
<path d="M 7 2 C 7 2 6.773438 2.046875 6.40625 2.21875 C 6.039063 2.390625 5.519531 2.679688 4.96875 3.15625 C 3.726563 4.210938 2.691406 6.148438 2.96875 7.8125 C 3.195313 9.171875 4.273438 10.167969 5.5 10.6875 C 5.855469 10.839844 6.175781 10.933594 6.5 11 L 3.09375 11 L 3 11.875 C 3 11.875 2.835938 13.121094 3.40625 14.40625 C 3.898438 15.519531 5.082031 16.652344 7.03125 16.9375 C 7.011719 17.285156 7 17.632813 7 18 L 7 18.65625 L 7.59375 18.90625 C 7.644531 18.925781 7.957031 19.179688 8.25 19.625 C 8.542969 20.070313 8.859375 20.699219 9.125 21.40625 C 9.652344 22.824219 10 24.578125 10 26 L 10 26.125 L 10.03125 26.21875 C 10.03125 26.21875 10.273438 27.253906 11.15625 28.1875 C 12.039063 29.121094 13.601563 30 16 30 C 18.398438 30 19.960938 29.121094 20.84375 28.1875 C 21.726563 27.253906 21.96875 26.21875 21.96875 26.21875 L 22 26.125 L 22 26 C 22 24.578125 22.347656 22.824219 22.875 21.40625 C 23.140625 20.699219 23.457031 20.070313 23.75 19.625 C 24.042969 19.179688 24.355469 18.925781 24.40625 18.90625 L 25 18.65625 L 25 18 C 25 17.632813 24.988281 17.285156 24.96875 16.9375 C 26.917969 16.652344 28.101563 15.519531 28.59375 14.40625 C 29.164063 13.121094 29 11.875 29 11.875 L 28.90625 11 L 25.5 11 C 25.824219 10.933594 26.144531 10.839844 26.5 10.6875 C 27.726563 10.167969 28.804688 9.171875 29.03125 7.8125 C 29.308594 6.148438 28.273438 4.210938 27.03125 3.15625 C 26.480469 2.679688 25.960938 2.390625 25.59375 2.21875 C 25.226563 2.046875 25 2 25 2 C 25 2 25.191406 2.128906 25.46875 2.40625 C 25.746094 2.679688 26.125 3.097656 26.4375 3.65625 C 26.878906 4.441406 27.652344 6.734375 26.625 7.40625 C 26.433594 7.53125 25.582031 8 25 8 C 23.136719 8 21.28125 7.367188 19.84375 6.78125 C 19.832031 6.773438 19.824219 6.757813 19.8125 6.75 C 17.933594 5.40625 16.21875 5.03125 16.21875 5.03125 L 16 4.96875 L 15.78125 5.03125 C 15.78125 5.03125 14.050781 5.417969 12.15625 6.78125 C 10.71875 7.367188 8.863281 8 7 8 C 6.417969 8 5.566406 7.53125 5.375 7.40625 C 4.347656 6.734375 5.121094 4.441406 5.5625 3.65625 C 5.875 3.097656 6.253906 2.679688 6.53125 2.40625 C 6.808594 2.128906 7 2 7 2 Z M 16 7.0625 C 16.304688 7.144531 17.710938 7.527344 19.34375 8.9375 C 21.117188 10.46875 22.882813 13.085938 22.96875 17.6875 C 22.667969 17.957031 22.332031 18.167969 22.09375 18.53125 C 21.6875 19.152344 21.335938 19.871094 21.03125 20.6875 C 20.789063 21.339844 20.570313 22.035156 20.40625 22.75 C 20.253906 22.640625 20.089844 22.542969 19.9375 22.46875 C 18.945313 21.980469 18 22 18 22 L 18 24 C 18 24 18.554688 24 19.0625 24.25 C 19.546875 24.488281 19.964844 24.800781 20 25.875 C 19.972656 25.984375 19.863281 26.332031 19.40625 26.8125 C 19.300781 26.925781 19.144531 27.042969 19 27.15625 L 19 26 L 17 26 L 17 27.9375 C 16.699219 27.976563 16.371094 28 16 28 C 15.628906 28 15.300781 27.976563 15 27.9375 L 15 26 L 13 26 L 13 27.15625 C 12.855469 27.042969 12.699219 26.925781 12.59375 26.8125 C 12.136719 26.332031 12.027344 25.984375 12 25.875 C 12.035156 24.800781 12.453125 24.488281 12.9375 24.25 C 13.445313 24 14 24 14 24 L 14 22 C 14 22 13.054688 21.980469 12.0625 22.46875 C 11.910156 22.542969 11.746094 22.640625 11.59375 22.75 C 11.429688 22.035156 11.210938 21.339844 10.96875 20.6875 C 10.664063 19.871094 10.3125 19.152344 9.90625 18.53125 C 9.667969 18.167969 9.332031 17.957031 9.03125 17.6875 C 9.117188 13.085938 10.882813 10.46875 12.65625 8.9375 C 14.289063 7.527344 15.695313 7.144531 16 7.0625 Z M 5.15625 13 L 7.75 13 C 7.554688 13.605469 7.402344 14.273438 7.28125 14.96875 C 5.941406 14.8125 5.523438 14.210938 5.25 13.59375 C 5.121094 13.304688 5.1875 13.25 5.15625 13 Z M 24.25 13 L 26.84375 13 C 26.8125 13.25 26.878906 13.304688 26.75 13.59375 C 26.476563 14.210938 26.058594 14.8125 24.71875 14.96875 C 24.597656 14.273438 24.445313 13.605469 24.25 13 Z M 10 16 C 10.75 18.667969 12 19 12 19 C 12 19 13.457031 19.125 14 18 C 13.375 16.582031 10 16 10 16 Z M 22 16 C 22 16 18.625 16.582031 18 18 C 18.542969 19.125 20 19 20 19 C 20 19 21.25 18.667969 22 16 Z "></path>
</g>
</svg>
