<?xml version="1.0" encoding="UTF-8"?>
<svg xmlns="http://www.w3.org/2000/svg" xmlns:xlink="http://www.w3.org/1999/xlink" viewBox="0 0 32 32" version="1.1">
<g>
<path d="M 16 2 L 14.3125 7.0625 C 13.835938 7.101563 13.296875 7.160156 12.71875 7.25 C 12.1875 6.085938 10.722656 3.863281 7 3 C 8.613281 4.570313 9.429688 6.746094 9.78125 8 C 9.726563 8.019531 9.675781 8.042969 9.625 8.0625 C 8.769531 8.414063 8.21875 9.136719 7.75 10 L 3 10 L 6 13 L 3 13 L 5 16 L 3 16 L 5.28125 19.03125 C 5.089844 20.5 5 21.875 5 23 L 5 24 L 6 24 C 7.816406 24 8.890625 25.257813 9.0625 25.46875 C 9.109375 25.945313 9.25 26.703125 9.90625 27.59375 C 10.835938 28.859375 12.71875 30 16 30 C 19.222656 30 21.121094 28.851563 22.0625 27.59375 C 22.726563 26.707031 22.878906 25.972656 22.9375 25.5 C 23.089844 25.3125 24.167969 24 26 24 L 27 24 L 27 23 C 27 21.875 26.910156 20.5 26.71875 19.03125 L 29 16 L 27 16 L 29 13 L 26 13 L 29 10 L 24.25 10 C 23.78125 9.136719 23.230469 8.414063 22.375 8.0625 C 22.324219 8.042969 22.269531 8.019531 22.21875 8 C 22.570313 6.746094 23.386719 4.570313 25 3 C 21.277344 3.863281 19.8125 6.085938 19.28125 7.25 C 18.679688 7.15625 18.175781 7.097656 17.6875 7.0625 Z M 16 9 C 16 9 19.503906 9.066406 21.625 9.9375 C 21.796875 10.007813 22.308594 10.507813 22.75 11.4375 C 23.191406 12.367188 23.601563 13.652344 23.9375 15.03125 C 24.546875 17.519531 24.839844 20.210938 24.90625 22.21875 C 24.164063 22.375 23.539063 22.660156 23 22.96875 L 23 22 L 21 22 L 21 25 C 21 25 20.996094 25.664063 20.4375 26.40625 C 19.878906 27.148438 18.777344 28 16 28 C 13.15625 28 12.039063 27.140625 11.5 26.40625 C 10.960938 25.671875 11 25.03125 11 25.03125 L 11 22 L 9 22 L 9 22.96875 C 8.460938 22.660156 7.835938 22.375 7.09375 22.21875 C 7.160156 20.210938 7.453125 17.519531 8.0625 15.03125 C 8.398438 13.652344 8.808594 12.367188 9.25 11.4375 C 9.691406 10.507813 10.203125 10.007813 10.375 9.9375 C 12.496094 9.066406 16 9 16 9 Z M 12.5 16 C 11.671875 16 11 16.671875 11 17.5 C 11 18.328125 11.671875 19 12.5 19 C 13.328125 19 14 18.328125 14 17.5 C 14 16.671875 13.328125 16 12.5 16 Z M 19.5 16 C 18.671875 16 18 16.671875 18 17.5 C 18 18.328125 18.671875 19 19.5 19 C 20.328125 19 21 18.328125 21 17.5 C 21 16.671875 20.328125 16 19.5 16 Z M 13 23 C 12.449219 23 12 23.449219 12 24 C 12 24.550781 12.449219 25 13 25 C 14 25 15 23 15 23 Z M 17 23 C 17 23 17.078125 23.125 17.1875 23.3125 C 17.515625 23.875 18.25 25 19 25 C 19.550781 25 20 24.550781 20 24 C 20 23.449219 19.550781 23 19 23 Z "></path>
</g>
</svg>
