<?xml version="1.0" encoding="UTF-8"?>
<svg xmlns="http://www.w3.org/2000/svg" xmlns:xlink="http://www.w3.org/1999/xlink" viewBox="0 0 32 32" version="1.1">
<g>
<path d="M 8.875 3.09375 L 8.8125 3.125 L 8.53125 3.15625 L 8.28125 3.1875 L 7.875 3.28125 C 7.289063 3.410156 6.855469 3.621094 6.40625 3.84375 C 4.621094 4.765625 3.40625 6.363281 2.71875 8.0625 C 2.375 8.917969 2.164063 9.824219 2.09375 10.71875 C 2.058594 11.183594 2.058594 11.582031 2.09375 12.09375 C 2.160156 12.488281 2.175781 12.820313 2.28125 13.25 C 2.453125 14.09375 2.726563 14.800781 3.03125 15.46875 C 3.34375 16.125 3.691406 16.71875 4.0625 17.21875 C 4.421875 17.726563 4.8125 18.140625 5.15625 18.5 C 5.507813 18.851563 5.816406 19.121094 6.09375 19.34375 C 6.644531 19.789063 7 20 7 20 C 7 20 6.695313 19.71875 6.25 19.1875 C 5.804688 18.660156 5.238281 17.863281 4.75 16.8125 C 4.503906 16.289063 4.285156 15.691406 4.125 15.0625 C 3.976563 14.441406 3.875 13.765625 3.875 13.125 C 3.851563 12.816406 3.894531 12.371094 3.90625 12 C 3.941406 11.8125 3.976563 11.558594 4.03125 11.3125 L 4.125 11.46875 C 4.683594 12.5 5.683594 13.3125 6.75 13.9375 C 7.230469 14.21875 7.726563 14.441406 8.21875 14.625 C 8.09375 15.367188 8 16.152344 8 17 L 8 17.53125 L 8.4375 17.8125 C 9.679688 18.65625 10.71875 20.96875 11.28125 23.09375 C 11.84375 25.21875 12 27.09375 12 27.09375 L 12.03125 27.40625 L 12.25 27.65625 C 12.25 27.65625 12.632813 28.058594 13.25 28.375 C 13.867188 28.691406 14.78125 29 16 29 C 17.21875 29 18.132813 28.691406 18.75 28.375 C 19.367188 28.058594 19.75 27.65625 19.75 27.65625 L 19.96875 27.40625 L 20 27.09375 C 20 27.09375 20.15625 25.21875 20.71875 23.09375 C 21.28125 20.96875 22.320313 18.65625 23.5625 17.8125 L 24 17.53125 L 24 17 C 24 16.152344 23.90625 15.367188 23.78125 14.625 C 24.273438 14.441406 24.769531 14.21875 25.25 13.9375 C 26.316406 13.3125 27.316406 12.5 27.875 11.46875 L 27.96875 11.3125 C 28.023438 11.558594 28.058594 11.8125 28.09375 12 C 28.105469 12.371094 28.148438 12.816406 28.125 13.125 C 28.125 13.769531 28.023438 14.441406 27.875 15.0625 C 27.714844 15.691406 27.496094 16.289063 27.25 16.8125 C 26.761719 17.863281 26.195313 18.660156 25.75 19.1875 C 25.304688 19.71875 25 20 25 20 C 25 20 25.355469 19.789063 25.90625 19.34375 C 26.183594 19.121094 26.492188 18.851563 26.84375 18.5 C 27.1875 18.140625 27.582031 17.726563 27.9375 17.21875 C 28.308594 16.71875 28.65625 16.125 28.96875 15.46875 C 29.273438 14.800781 29.550781 14.09375 29.71875 13.25 C 29.824219 12.820313 29.839844 12.488281 29.90625 12.09375 C 29.941406 11.582031 29.941406 11.183594 29.90625 10.71875 C 29.835938 9.824219 29.625 8.917969 29.28125 8.0625 C 28.59375 6.363281 27.378906 4.765625 25.59375 3.84375 C 25.144531 3.621094 24.710938 3.410156 24.125 3.28125 L 23.71875 3.1875 L 23.46875 3.15625 L 23.1875 3.125 L 23.125 3.09375 L 22.75 3.09375 C 21.828125 3.046875 20.910156 3.199219 20.125 3.46875 C 18.53125 4.007813 17.46875 4.90625 16.8125 5.5625 C 16.625 5.746094 16.535156 5.875 16.40625 6.03125 C 16.269531 6.015625 16.136719 6 16 6 C 15.863281 6 15.730469 6.015625 15.59375 6.03125 C 15.464844 5.875 15.375 5.746094 15.1875 5.5625 C 14.53125 4.90625 13.46875 4.007813 11.875 3.46875 C 11.089844 3.199219 10.171875 3.046875 9.25 3.09375 Z M 8.40625 6.875 L 8.78125 6.875 L 9.0625 6.90625 L 9.125 6.9375 C 9.574219 7.011719 9.9375 7.148438 10.25 7.34375 C 10.699219 7.621094 11 7.960938 11.25 8.28125 C 10.710938 8.589844 8.101563 10 5 10 L 4.53125 10 C 4.664063 9.726563 4.773438 9.4375 4.9375 9.1875 C 5.671875 8.054688 6.761719 7.210938 7.75 6.96875 C 7.988281 6.910156 8.28125 6.859375 8.40625 6.875 Z M 23.21875 6.875 L 23.59375 6.875 C 23.71875 6.859375 24.011719 6.910156 24.25 6.96875 C 25.238281 7.210938 26.296875 8.054688 27.03125 9.1875 C 27.195313 9.4375 27.335938 9.726563 27.46875 10 L 27 10 C 24.621094 10 21.515625 8.59375 20.78125 8.25 C 21.027344 7.941406 21.320313 7.640625 21.75 7.375 C 22.0625 7.175781 22.425781 7.011719 22.875 6.9375 L 22.9375 6.90625 C 22.929688 6.90625 22.875 6.902344 23 6.90625 Z M 16 8 C 16.167969 8 16.738281 8.113281 17.375 8.4375 C 18.011719 8.761719 18.753906 9.285156 19.4375 10 C 20.75 11.375 21.84375 13.53125 21.9375 16.65625 C 20.242188 18.136719 19.335938 20.5 18.78125 22.59375 C 18.234375 24.667969 18.128906 26.117188 18.09375 26.46875 C 18.042969 26.511719 18.054688 26.515625 17.84375 26.625 C 17.492188 26.808594 16.90625 27 16 27 C 15.09375 27 14.507813 26.808594 14.15625 26.625 C 13.945313 26.515625 13.957031 26.511719 13.90625 26.46875 C 13.871094 26.117188 13.765625 24.667969 13.21875 22.59375 C 12.664063 20.5 11.757813 18.136719 10.0625 16.65625 C 10.15625 13.53125 11.25 11.375 12.5625 10 C 13.246094 9.285156 13.988281 8.761719 14.625 8.4375 C 15.261719 8.113281 15.832031 8 16 8 Z M 22.65625 11.125 C 23.320313 11.339844 24.03125 11.570313 24.78125 11.71875 C 24.5625 11.882813 24.492188 12.046875 24.25 12.1875 C 23.929688 12.375 23.601563 12.527344 23.28125 12.65625 C 23.09375 12.117188 22.898438 11.59375 22.65625 11.125 Z M 9.3125 11.21875 C 9.089844 11.664063 8.894531 12.152344 8.71875 12.65625 C 8.398438 12.527344 8.070313 12.375 7.75 12.1875 C 7.523438 12.054688 7.457031 11.902344 7.25 11.75 C 8 11.617188 8.683594 11.417969 9.3125 11.21875 Z M 13 16 C 12.449219 16 12 16.449219 12 17 C 12 17.550781 12.449219 18 13 18 C 13.550781 18 14 17.550781 14 17 C 14 16.449219 13.550781 16 13 16 Z M 19 16 C 18.449219 16 18 16.449219 18 17 C 18 17.550781 18.449219 18 19 18 C 19.550781 18 20 17.550781 20 17 C 20 16.449219 19.550781 16 19 16 Z M 15.9375 23 C 15.9375 23 15.496094 23.003906 15.03125 23.25 C 14.566406 23.496094 14 24.175781 14 25 L 18 25 C 18 24.175781 17.433594 23.496094 16.96875 23.25 C 16.503906 23.003906 16.0625 23 16.0625 23 Z "></path>
</g>
</svg>
