<?xml version="1.0" encoding="UTF-8"?>
<svg xmlns="http://www.w3.org/2000/svg" xmlns:xlink="http://www.w3.org/1999/xlink" viewBox="0 0 32 32" version="1.1">
<g>
<path d="M 5 5 L 5 27 L 27 27 L 27 5 Z M 7 7 L 25 7 L 25 9 L 7 9 Z M 7 11 L 12 11 L 12 13 L 7 13 Z M 14 11 L 18 11 L 18 13 L 14 13 Z M 20 11 L 25 11 L 25 13 L 20 13 Z M 7 15 L 12 15 L 12 17 L 7 17 Z M 14 15 L 18 15 L 18 17 L 14 17 Z M 20 15 L 25 15 L 25 17 L 20 17 Z M 7 19 L 12 19 L 12 21 L 7 21 Z M 14 19 L 18 19 L 18 21 L 14 21 Z M 20 19 L 25 19 L 25 21 L 20 21 Z M 7 23 L 12 23 L 12 25 L 7 25 Z M 14 23 L 18 23 L 18 25 L 14 25 Z M 20 23 L 25 23 L 25 25 L 20 25 Z "></path>
</g>
</svg>
