<?xml version="1.0" encoding="UTF-8"?>
<svg xmlns="http://www.w3.org/2000/svg" xmlns:xlink="http://www.w3.org/1999/xlink" viewBox="0 0 32 32" version="1.1">
<g>
<path d="M 14.03125 2.0625 L 13.3125 3.25 C 12.976563 3.796875 12.734375 4.441406 12.53125 5.03125 C 10.367188 3.238281 8.253906 3.015625 8.09375 3 L 6.875 2.875 L 7 4.09375 C 7.390625 8.007813 9.210938 12.363281 11.40625 14.84375 C 9.171875 16.605469 8.324219 19.523438 8.09375 20.5 L 5 24 C 5 24 8.132813 30 16 30 L 17 30 C 17 28.371094 17.292969 27.261719 17.875 26.6875 C 18.601563 25.96875 19.917969 25.980469 21.3125 26 L 22 26 C 24.53125 26 25.59375 23.746094 25.90625 22 C 25.90625 22 27 22 27 21 L 26.96875 20.625 C 25.851563 15.355469 21.421875 13.503906 18.0625 13.09375 C 18.101563 11.148438 17.835938 6.585938 14.90625 3.125 Z M 9.21875 5.375 C 11 6.09375 14.039063 8.167969 15 14.15625 L 15.15625 15.0625 L 16.0625 15 C 16.355469 14.980469 22.828125 14.632813 24.71875 20 L 24.03125 20 L 24 20.96875 C 24 21 23.882813 24 22 24 L 21.34375 24 C 19.683594 23.980469 17.789063 23.945313 16.46875 25.25 C 15.800781 25.90625 15.402344 26.792969 15.1875 27.96875 C 10.890625 27.71875 8.554688 25.539063 7.5 24.1875 L 9.9375 21.5 L 9.96875 21.1875 C 9.976563 21.148438 10.75 17.222656 13.4375 15.90625 L 14.8125 15.21875 L 13.65625 14.21875 C 11.933594 12.773438 9.949219 9.238281 9.21875 5.375 Z M 14.34375 6.125 C 14.75 6.890625 15.015625 7.683594 15.25 8.46875 C 14.90625 7.824219 14.511719 7.25 14.125 6.75 C 14.210938 6.515625 14.273438 6.359375 14.34375 6.125 Z M 19 17 C 18.449219 17 18 17.449219 18 18 C 18 18.550781 18.449219 19 19 19 C 19.550781 19 20 18.550781 20 18 C 20 17.449219 19.550781 17 19 17 Z "></path>
</g>
</svg>
