<?xml version="1.0" encoding="UTF-8"?>
<svg xmlns="http://www.w3.org/2000/svg" xmlns:xlink="http://www.w3.org/1999/xlink" viewBox="0 0 32 32" version="1.1">
<g>
<path d="M 14 18 C 14 18.550781 13.550781 19 13 19 C 12.449219 19 12 18.550781 12 18 C 12 17.449219 12.449219 17 13 17 C 13.550781 17 14 17.449219 14 18 Z M 19 17 C 18.449219 17 18 17.449219 18 18 C 18 18.550781 18.449219 19 19 19 C 19.550781 19 20 18.550781 20 18 C 20 17.449219 19.550781 17 19 17 Z M 25 16.5 C 25 18.574219 23.816406 20.457031 21.988281 21.386719 C 21.820313 24.234375 19.769531 27 16 27 C 12.230469 27 10.179688 24.234375 10.011719 21.386719 C 8.183594 20.457031 7 18.578125 7 16.5 C 7 13.46875 9.46875 11 12.5 11 C 13.789063 11 15.019531 11.457031 16 12.277344 C 16.980469 11.457031 18.210938 11 19.5 11 C 22.53125 11 25 13.46875 25 16.5 Z M 23 16.5 C 23 14.570313 21.429688 13 19.5 13 C 18.449219 13 17.457031 13.484375 16.78125 14.328125 L 16 15.304688 L 15.21875 14.328125 C 14.542969 13.484375 13.550781 13 12.5 13 C 10.570313 13 9 14.570313 9 16.5 C 9 17.976563 9.949219 19.300781 11.359375 19.789063 L 12.085938 20.042969 L 12.027344 20.808594 C 12.023438 20.875 12.015625 20.941406 12.003906 21.003906 C 12 22.925781 13.253906 25 16 25 C 18.746094 25 20 22.925781 20 21 C 19.984375 20.941406 19.976563 20.878906 19.972656 20.808594 L 19.914063 20.042969 L 20.640625 19.789063 C 22.050781 19.300781 23 17.976563 23 16.5 Z M 30 18.5 C 30 20.40625 28.464844 21.964844 26.5625 22 C 25.238281 26.6875 20.9375 30 16 30 C 11.0625 30 6.761719 26.6875 5.4375 22 C 3.535156 21.964844 2 20.40625 2 18.5 C 2 17.121094 2.8125 15.894531 4.019531 15.328125 C 4.195313 11.324219 5.996094 5.539063 14.785156 5.046875 C 14.550781 4.519531 14.058594 4 13 4 L 13 2 C 14.40625 2 15.382813 2.550781 16.019531 3.300781 C 16.636719 2.5625 17.589844 2 19 2 L 19 4 C 18.007813 4 17.515625 4.523438 17.261719 5.050781 C 26.042969 5.5625 27.820313 11.371094 27.984375 15.332031 C 29.1875 15.898438 30 17.125 30 18.5 Z M 28 18.5 C 28 17.789063 27.496094 17.171875 26.800781 17.03125 L 25.996094 16.867188 L 26.003906 15.9375 C 26 10.027344 22.636719 7 16 7 C 9.363281 7 6 10.027344 6 16 L 6 16.820313 L 5.199219 17.03125 C 4.503906 17.171875 4 17.789063 4 18.5 C 4 19.328125 4.671875 20 5.5 20 C 5.621094 20 5.753906 19.976563 5.914063 19.929688 L 6.972656 19.613281 L 7.179688 20.699219 C 7.992188 24.929688 11.699219 28 16 28 C 20.300781 28 24.007813 24.929688 24.816406 20.699219 L 25.027344 19.613281 L 26.085938 19.929688 C 26.246094 19.976563 26.378906 20 26.5 20 C 27.328125 20 28 19.328125 28 18.5 Z "></path>
</g>
</svg>
