<?xml version="1.0" encoding="UTF-8"?>
<svg xmlns="http://www.w3.org/2000/svg" xmlns:xlink="http://www.w3.org/1999/xlink" viewBox="0 0 32 32" version="1.1">
<g>
<path d="M 17.125 1.96875 L 15.8125 2.65625 C 15.8125 2.65625 11.511719 5.136719 11.125 10.34375 C 6.390625 12.890625 2.28125 17.3125 2.28125 17.3125 L 2 17.59375 L 2 18 C 2 18 1.964844 20.925781 3.3125 23.90625 C 4.660156 26.886719 7.613281 30 13 30 L 14.03125 30 L 14 28.96875 C 14 28.96875 13.957031 27.660156 14.28125 26.21875 C 14.605469 24.777344 15.265625 23.375 16.375 22.90625 L 16.375 22.9375 C 19.269531 21.742188 23.34375 24.5625 23.34375 24.5625 L 24 25.03125 L 24.59375 24.53125 C 24.59375 24.53125 25.878906 23.472656 27.15625 22.34375 C 27.792969 21.777344 28.40625 21.1875 28.90625 20.6875 C 29.15625 20.4375 29.386719 20.21875 29.5625 20 C 29.652344 19.890625 29.734375 19.789063 29.8125 19.65625 C 29.890625 19.523438 30 19.398438 30 19 C 30 18.535156 29.839844 18.414063 29.75 18.28125 C 29.660156 18.148438 29.570313 18.046875 29.46875 17.9375 C 29.265625 17.71875 29.011719 17.480469 28.71875 17.21875 C 28.128906 16.699219 27.382813 16.09375 26.625 15.5 C 25.207031 14.386719 23.957031 13.472656 23.78125 13.34375 L 22.90625 11.5625 L 22.71875 11.21875 L 22.375 11.0625 L 20.125 10.15625 L 20.78125 4.5 L 20.96875 3.0625 L 19.5625 3.40625 C 19.5625 3.40625 18.492188 3.65625 17.375 4.40625 L 17.28125 3.4375 Z M 15.5 5.46875 L 16 10.09375 L 16.0625 10.71875 L 16.625 10.9375 L 21.28125 12.8125 L 22.09375 14.4375 L 22.21875 14.65625 L 22.40625 14.8125 C 22.40625 14.8125 23.890625 15.898438 25.375 17.0625 C 25.691406 17.308594 25.949219 17.507813 26.25 17.75 L 25 19 L 26.34375 20.34375 C 26.152344 20.515625 26.011719 20.667969 25.8125 20.84375 C 24.828125 21.714844 24.214844 22.222656 23.84375 22.53125 C 22.898438 21.847656 19.429688 19.488281 15.625 21.0625 L 15.625 21.09375 C 13.570313 21.960938 12.730469 24.058594 12.34375 25.78125 C 12.09375 26.890625 12.140625 27.285156 12.125 27.875 C 8.144531 27.566406 6.214844 25.429688 5.15625 23.09375 C 4.148438 20.871094 4.046875 18.875 4.03125 18.375 C 4.496094 17.890625 8.308594 14.023438 12.46875 11.90625 L 13 11.625 L 13 11 C 13 7.929688 14.386719 6.394531 15.5 5.46875 Z M 18.59375 6.125 L 18.1875 9.375 L 17.9375 9.28125 L 17.65625 6.8125 C 17.933594 6.535156 18.273438 6.328125 18.59375 6.125 Z M 20 14 C 19.449219 14 19 14.449219 19 15 C 19 15.550781 19.449219 16 20 16 C 20.550781 16 21 15.550781 21 15 C 21 14.449219 20.550781 14 20 14 Z "></path>
</g>
</svg>
