<?xml version="1.0" encoding="UTF-8"?>
<svg xmlns="http://www.w3.org/2000/svg" xmlns:xlink="http://www.w3.org/1999/xlink" viewBox="0 0 32 32" version="1.1">
<g>
<path d="M 6.90625 3 C 5.929688 3 5.058594 3.503906 4.3125 4.34375 C 3.566406 5.183594 3 6.4375 3 7.9375 C 3 10.234375 4.117188 11.515625 4.75 12.15625 C 4.203125 13.046875 2 16.824219 2 23 L 2 23.59375 L 2.5 23.875 C 2.5 23.875 5.792969 25.75 10.1875 25.96875 C 10.382813 26.542969 10.714844 27.046875 11.125 27.40625 C 11.601563 27.828125 12.144531 28.101563 12.6875 28.3125 L 12.6875 28.34375 C 12.707031 28.351563 12.730469 28.335938 12.75 28.34375 C 12.894531 28.398438 13.042969 28.453125 13.1875 28.5 C 14.597656 28.953125 15.96875 29 15.96875 29 L 16.03125 29 C 16.03125 29 17.402344 28.953125 18.8125 28.5 C 18.957031 28.453125 19.105469 28.398438 19.25 28.34375 C 19.269531 28.335938 19.292969 28.351563 19.3125 28.34375 L 19.3125 28.3125 C 19.855469 28.101563 20.398438 27.828125 20.875 27.40625 C 21.285156 27.046875 21.617188 26.542969 21.8125 25.96875 C 26.207031 25.75 29.5 23.875 29.5 23.875 L 30 23.59375 L 30 23 C 30 16.824219 27.796875 13.046875 27.25 12.15625 C 27.882813 11.515625 29 10.234375 29 7.9375 C 29 6.4375 28.433594 5.183594 27.6875 4.34375 C 26.941406 3.503906 26.070313 3 25.09375 3 L 24.53125 3 L 24.21875 3.46875 C 23.875 4.035156 23.210938 4.6875 22.625 5.21875 C 21.382813 4.359375 20.101563 4 19.09375 4 C 17.527344 4 16.53125 4.5625 16 4.90625 C 15.46875 4.5625 14.472656 4 12.90625 4 C 11.898438 4 10.617188 4.359375 9.375 5.21875 C 8.789063 4.6875 8.125 4.035156 7.78125 3.46875 L 7.46875 3 Z M 6.625 5.15625 C 7.027344 5.667969 7.457031 6.125 7.875 6.53125 C 7.039063 7.449219 6.289063 8.660156 5.6875 10.1875 C 5.332031 9.628906 5 8.863281 5 7.9375 C 5 6.921875 5.371094 6.179688 5.8125 5.6875 C 6.144531 5.316406 6.398438 5.234375 6.625 5.15625 Z M 25.375 5.15625 C 25.601563 5.234375 25.855469 5.316406 26.1875 5.6875 C 26.628906 6.179688 27 6.921875 27 7.9375 C 27 8.863281 26.667969 9.628906 26.3125 10.1875 C 25.710938 8.660156 24.960938 7.449219 24.125 6.53125 C 24.542969 6.125 24.972656 5.667969 25.375 5.15625 Z M 12.90625 6 C 14.230469 6 15.3125 6.78125 15.3125 6.78125 L 15.5625 7 L 16.4375 7 L 16.6875 6.78125 C 16.6875 6.78125 17.769531 6 19.09375 6 C 20.230469 6 23.300781 7.109375 24.78125 11.78125 L 24.75 11.8125 L 25.25 12.5625 C 25.25 12.5625 25.8125 13.402344 26.40625 14.875 C 25.574219 15.382813 24.320313 16 23 16 L 23 18 C 24.601563 18 26.042969 17.441406 27.0625 16.875 C 27.222656 17.425781 27.371094 18.015625 27.5 18.65625 C 27.230469 18.792969 26.984375 18.9375 26.625 19.09375 C 25.523438 19.566406 24.09375 20 23 20 L 23 22 C 24.589844 22 26.175781 21.433594 27.40625 20.90625 C 27.570313 20.835938 27.664063 20.789063 27.8125 20.71875 C 27.871094 21.253906 27.917969 21.796875 27.9375 22.375 C 27.285156 22.710938 25.101563 23.703125 21.875 23.90625 C 21.726563 21.03125 21.171875 18.660156 20.5 17.0625 C 20.332031 16.667969 20.164063 16.316406 20 16 C 21.941406 16 22 13 22 13 L 17 15 L 17.71875 16 C 17.96875 16.378906 18.285156 16.964844 18.65625 17.84375 C 19.328125 19.445313 20 21.839844 20 25 C 20 25.398438 19.875 25.632813 19.5625 25.90625 C 19.390625 26.058594 19.148438 26.1875 18.875 26.3125 C 18.867188 26.316406 18.851563 26.308594 18.84375 26.3125 C 18.542969 26.21875 18.128906 25.945313 17.78125 25.5625 C 17.316406 25.050781 17.03125 24.53125 17.03125 24.53125 L 16.75 24 L 15.25 24 L 14.96875 24.53125 C 14.96875 24.53125 14.683594 25.050781 14.21875 25.5625 C 13.871094 25.945313 13.457031 26.21875 13.15625 26.3125 C 13.148438 26.308594 13.132813 26.316406 13.125 26.3125 C 12.851563 26.1875 12.609375 26.058594 12.4375 25.90625 C 12.125 25.632813 12 25.398438 12 25 C 12 21.839844 12.671875 19.445313 13.34375 17.84375 C 13.714844 16.964844 14.03125 16.378906 14.28125 16 L 15 15 L 10 13 C 10 13 10.058594 16 12 16 C 11.835938 16.316406 11.667969 16.667969 11.5 17.0625 C 10.828125 18.660156 10.273438 21.03125 10.125 23.90625 C 6.898438 23.703125 4.714844 22.710938 4.0625 22.375 C 4.082031 21.796875 4.128906 21.253906 4.1875 20.71875 C 4.335938 20.789063 4.429688 20.835938 4.59375 20.90625 C 5.824219 21.433594 7.410156 22 9 22 L 9 20 C 7.90625 20 6.476563 19.566406 5.375 19.09375 C 5.015625 18.9375 4.769531 18.792969 4.5 18.65625 C 4.628906 18.015625 4.777344 17.425781 4.9375 16.875 C 5.957031 17.441406 7.398438 18 9 18 L 9 16 C 7.679688 16 6.425781 15.382813 5.59375 14.875 C 6.1875 13.402344 6.75 12.5625 6.75 12.5625 L 7.25 11.8125 L 7.21875 11.8125 C 8.695313 7.113281 11.769531 6 12.90625 6 Z M 12 8 L 12 10 C 13.648438 10 15.25 11.65625 15.25 11.65625 L 16.75 11.65625 C 16.75 11.65625 18.351563 10 20 10 L 20 8 C 17.980469 8 16.726563 8.972656 16 9.65625 C 15.273438 8.972656 14.019531 8 12 8 Z M 16 20 C 14.894531 20 13 20.449219 13 21 C 13 21.550781 16 23 16 23 C 16 23 19 21.550781 19 21 C 19 20.449219 17.105469 20 16 20 Z M 16 26.5 C 16.144531 26.695313 16.117188 26.722656 16.3125 26.9375 C 16.320313 26.949219 16.335938 26.957031 16.34375 26.96875 C 16.246094 26.976563 16.042969 27 16.03125 27 C 16.03125 27 15.96875 27 15.96875 27 C 15.957031 27 15.753906 26.976563 15.65625 26.96875 C 15.664063 26.957031 15.679688 26.949219 15.6875 26.9375 C 15.882813 26.722656 15.855469 26.695313 16 26.5 Z "></path>
</g>
</svg>
