<?xml version="1.0" encoding="UTF-8"?>
<svg xmlns="http://www.w3.org/2000/svg" xmlns:xlink="http://www.w3.org/1999/xlink" viewBox="0 0 32 32" version="1.1">
<g>
<path d="M 10.59375 2.96875 L 9.9375 3 C 8.226563 3.097656 5 4.480469 5 9 C 5 11.035156 6.089844 12.398438 7.1875 13.1875 C 6.1875 14.207031 5 16.015625 5 19 C 5 19.359375 5.054688 19.695313 5.125 20 L 3 20 L 3 22 L 10 22 C 10.019531 22.320313 10.0625 22.714844 10.125 23.125 L 3.84375 24 L 4.15625 26 L 10.625 25.0625 C 10.917969 25.875 11.335938 26.671875 11.96875 27.34375 C 12.996094 28.4375 14.34375 29 16 29 C 17.65625 29 19.003906 28.4375 20.03125 27.34375 C 20.664063 26.671875 21.082031 25.875 21.375 25.0625 L 27.84375 26 L 28.15625 24 L 21.875 23.125 C 21.9375 22.714844 21.984375 22.320313 22 22 L 29 22 L 29 20 L 26.875 20 C 26.945313 19.695313 27 19.359375 27 19 C 27 16.015625 25.8125 14.207031 24.8125 13.1875 C 25.910156 12.398438 27 11.035156 27 9 C 27 4.480469 23.773438 3.097656 22.0625 3 L 21.40625 2.96875 L 19.71875 6.34375 C 19.484375 6.238281 19.246094 6.148438 19 6.09375 C 17.726563 5.8125 16.640625 6.339844 16 6.78125 C 15.359375 6.339844 14.285156 5.8125 13 6.09375 C 12.753906 6.148438 12.515625 6.238281 12.28125 6.34375 Z M 9.4375 5.125 L 10.6875 7.59375 C 9.851563 8.523438 9.09375 9.875 8.4375 11.625 C 7.785156 11.195313 7 10.386719 7 9 C 7 6.257813 8.535156 5.394531 9.4375 5.125 Z M 22.5625 5.125 C 23.46875 5.398438 25 6.261719 25 9 C 25 10.386719 24.210938 11.195313 23.5625 11.625 C 22.90625 9.875 22.152344 8.523438 21.3125 7.59375 Z M 13.78125 8.03125 C 14.570313 8.046875 15.1875 8.6875 15.1875 8.6875 L 15.46875 9 L 16.53125 9 L 16.8125 8.6875 C 16.820313 8.679688 17.613281 7.855469 18.5625 8.0625 C 19.28125 8.21875 20.699219 9.113281 22.0625 13.3125 L 22.1875 13.71875 L 22.5625 13.90625 C 22.585938 13.917969 25 15.144531 25 19 C 25 19.386719 24.886719 19.738281 24.78125 20 L 19.9375 20 L 20 21.0625 C 20.003906 21.09375 20.183594 24.316406 18.59375 26 C 17.949219 26.679688 17.09375 27 16 27 C 14.90625 27 14.050781 26.679688 13.40625 26 C 11.816406 24.316406 11.996094 21.09375 12 21.0625 L 12.0625 20 L 7.21875 20 C 7.113281 19.738281 7 19.386719 7 19 C 7 15.207031 9.347656 13.953125 9.4375 13.90625 L 9.8125 13.71875 L 9.9375 13.3125 C 11.292969 9.128906 12.722656 8.226563 13.4375 8.0625 C 13.554688 8.035156 13.667969 8.027344 13.78125 8.03125 Z M 13 15 C 12.449219 15 12 15.449219 12 16 C 12 16.550781 12.449219 17 13 17 C 13.550781 17 14 16.550781 14 16 C 14 15.449219 13.550781 15 13 15 Z M 19 15 C 18.449219 15 18 15.449219 18 16 C 18 16.550781 18.449219 17 19 17 C 19.550781 17 20 16.550781 20 16 C 20 15.449219 19.550781 15 19 15 Z M 16 24 C 14.894531 24 14 24.449219 14 25 C 14 25.550781 14.894531 26 16 26 C 17.105469 26 18 25.550781 18 25 C 18 24.449219 17.105469 24 16 24 Z "></path>
</g>
</svg>
