<?xml version="1.0" encoding="UTF-8"?>
<svg xmlns="http://www.w3.org/2000/svg" xmlns:xlink="http://www.w3.org/1999/xlink" viewBox="0 0 32 32" version="1.1">
<g>
<path d="M 6 2 L 5.40625 2.875 C 5.40625 2.875 4 5.003906 4 8 C 4 11.160156 6.101563 12.941406 7.0625 13.59375 C 4.222656 16.703125 4 19.378906 4 22 C 4 23.847656 5.25 25.765625 7.3125 27.3125 C 9.375 28.859375 12.324219 30 16 30 C 19.617188 30 22.582031 28.859375 24.65625 27.3125 C 26.730469 25.765625 28 23.863281 28 22 C 28 19.378906 27.777344 16.703125 24.9375 13.59375 C 25.898438 12.941406 28 11.160156 28 8 C 28 5.003906 26.59375 2.875 26.59375 2.875 L 26 2 L 25.15625 2.625 L 20.4375 6.15625 C 18.203125 5.023438 16 5 16 5 C 16 5 13.796875 5.023438 11.5625 6.15625 L 6.84375 2.625 Z M 6.59375 4.96875 L 9.8125 7.375 C 8.769531 8.316406 7.875 9.617188 7.40625 11.34375 C 6.738281 10.703125 6 9.625 6 8 C 6 6.675781 6.296875 5.675781 6.59375 4.96875 Z M 25.40625 4.96875 C 25.703125 5.675781 26 6.675781 26 8 C 26 9.625 25.261719 10.703125 24.59375 11.34375 C 24.125 9.617188 23.230469 8.316406 22.1875 7.375 Z M 16 7 C 16 7 17.796875 7.039063 19.5625 7.9375 C 21.328125 8.835938 23 10.402344 23 14 L 23 14.40625 L 23.28125 14.6875 C 26.054688 17.578125 26 19.328125 26 22 C 26 22.824219 25.191406 24.433594 23.46875 25.71875 C 21.746094 27.003906 19.195313 28 16 28 C 12.738281 28 10.203125 27 8.5 25.71875 C 6.796875 24.4375 6 22.839844 6 22 C 6 19.328125 5.945313 17.578125 8.71875 14.6875 L 9 14.40625 L 9 14 C 9 10.402344 10.671875 8.835938 12.4375 7.9375 C 14.203125 7.039063 16 7 16 7 Z M 13 14 C 12.449219 14 12 14.449219 12 15 C 12 15.550781 12.449219 16 13 16 C 13.550781 16 14 15.550781 14 15 C 14 14.449219 13.550781 14 13 14 Z M 19 14 C 18.449219 14 18 14.449219 18 15 C 18 15.550781 18.449219 16 19 16 C 19.550781 16 20 15.550781 20 15 C 20 14.449219 19.550781 14 19 14 Z M 16 17 C 12.804688 17 10 19.117188 10 22 C 10 24.882813 12.804688 27 16 27 C 19.195313 27 22 24.882813 22 22 C 22 19.117188 19.195313 17 16 17 Z M 16 19 C 18.328125 19 20 20.464844 20 22 C 20 23.535156 18.328125 25 16 25 C 13.671875 25 12 23.535156 12 22 C 12 20.464844 13.671875 19 16 19 Z M 14 21 C 13.449219 21 13 21.449219 13 22 C 13 22.550781 13.449219 23 14 23 C 14.550781 23 15 22.550781 15 22 C 15 21.449219 14.550781 21 14 21 Z M 18 21 C 17.449219 21 17 21.449219 17 22 C 17 22.550781 17.449219 23 18 23 C 18.550781 23 19 22.550781 19 22 C 19 21.449219 18.550781 21 18 21 Z "></path>
</g>
</svg>
