<?xml version="1.0"?>
<svg xmlns="http://www.w3.org/2000/svg" viewBox="0 0 32 32">
    <path d="M 4 4 L 4 6 L 6 6 L 6 25 C 6 26.64497 7.3550302 28 9 28 L 23 28 C 24.64497 28 26 26.64497 26 25 L 26 6 L 28 6 L 28 4 L 4 4 z M 8 6 L 24 6 L 24 25 C 24 25.56503 23.56503 26 23 26 L 9 26 C 8.4349698 26 8 25.56503 8 25 L 8 6 z M 16.607422 10 C 16.607422 10 16.306894 10.558395 16.130859 11.207031 C 16.027791 11.171039 15.931136 11.118896 15.824219 11.091797 C 14.713117 10.810176 13.518754 11.27148 12.574219 12.214844 C 11.515236 13.272014 10.69006 14.840066 10.267578 16.451172 C 9.8450962 18.062277 9.7651795 19.848754 10.960938 21.042969 C 12.156733 22.237222 13.94178 22.154514 15.552734 21.730469 C 17.163689 21.306423 18.732813 20.480221 19.791016 19.423828 C 20.727389 18.489219 21.186193 17.298196 20.908203 16.1875 C 20.881637 16.081357 20.830257 15.985288 20.794922 15.882812 C 21.442741 15.71999 22 15.435547 22 15.435547 C 22 15.435547 21.125065 13.805397 20.113281 13.5 C 20.752966 12.668065 21 11 21 11 C 21 11 19.365202 11.205287 18.5 11.886719 C 18.197665 10.883824 16.607422 10 16.607422 10 z M 15.037109 12.986328 C 15.130982 12.987229 15.226119 13.004405 15.332031 13.03125 C 15.75568 13.138629 16.489188 13.644922 17.425781 14.580078 C 18.359965 15.512829 18.86199 16.247274 18.96875 16.673828 C 19.07551 17.100383 19.03258 17.355375 18.376953 18.009766 C 17.681156 18.704373 16.316468 19.462171 15.044922 19.796875 C 13.773376 20.131579 12.72725 19.982653 12.373047 19.628906 C 12.018804 19.275121 11.869857 18.229879 12.203125 16.958984 C 12.536393 15.68809 13.292311 14.323689 13.986328 13.630859 C 14.486927 13.130882 14.755492 12.983625 15.037109 12.986328 z" font-weight="400" font-family="sans-serif" white-space="normal" overflow="visible"></path>
</svg>
