<?xml version="1.0"?>
<svg xmlns="http://www.w3.org/2000/svg" viewBox="0 0 32 32">
    <path d="M 3 6 L 3 10 L 5 10 L 5 8 L 27 8 L 27 10 L 29 10 L 29 6 L 3 6 z M 3 12 L 3 17.5 C 3 18.879 4.122 20 5.5 20 C 6.878 20 8 18.879 8 17.5 L 8 12 L 6 12 L 6 17.5 C 6 17.775 5.776 18 5.5 18 C 5.224 18 5 17.775 5 17.5 L 5 12 L 3 12 z M 16 12 L 16 20 L 18 20 L 18 14.861328 L 19.5 16.462891 L 21 14.861328 L 21 20 L 23 20 L 23 12 L 20.941406 12 L 19.5 13.537109 L 18.058594 12 L 16 12 z M 24 12 L 24 20 L 29 20 L 29 18 L 26 18 L 26 17 L 28 17 L 28 15 L 26 15 L 26 14 L 29 14 L 29 12 L 24 12 z M 11 13 L 11 15 L 9 15 L 9 17 L 11 17 L 11 19 L 13 19 L 13 17 L 15 17 L 15 15 L 13 15 L 13 13 L 11 13 z M 3 22 L 3 26 L 29 26 L 29 22 L 27 22 L 27 24 L 5 24 L 5 22 L 3 22 z"></path>
</svg>
