<?xml version="1.0" encoding="UTF-8"?>
<svg xmlns="http://www.w3.org/2000/svg" xmlns:xlink="http://www.w3.org/1999/xlink" viewBox="0 0 32 32" version="1.1">
<g>
<path d="M 2 8 L 2 25 L 23 25 L 23 23 L 30 23 L 30 10 L 23 10 L 23 8 Z M 4 10 L 21 10 L 21 23 L 4 23 Z M 14.5 12 C 12.019531 12 10 14.019531 10 16.5 C 10 18.980469 12.019531 21 14.5 21 C 16.980469 21 19 18.980469 19 16.5 C 19 14.019531 16.980469 12 14.5 12 Z M 23 12 L 28 12 L 28 21 L 23 21 L 23 19 L 26 19 L 26 17 L 23 17 L 23 16 L 26 16 L 26 14 L 23 14 Z M 14.5 14 C 15.878906 14 17 15.121094 17 16.5 C 17 17.878906 15.878906 19 14.5 19 C 13.121094 19 12 17.878906 12 16.5 C 12 15.121094 13.121094 14 14.5 14 Z M 7.5 15 C 6.671875 15 6 15.671875 6 16.5 C 6 17.328125 6.671875 18 7.5 18 C 8.328125 18 9 17.328125 9 16.5 C 9 15.671875 8.328125 15 7.5 15 Z M 14.5 16 C 14.222656 16 14 16.222656 14 16.5 C 14 16.777344 14.222656 17 14.5 17 C 14.777344 17 15 16.777344 15 16.5 C 15 16.222656 14.777344 16 14.5 16 Z "></path>
</g>
</svg>
