<?xml version="1.0" encoding="UTF-8"?>
<svg xmlns="http://www.w3.org/2000/svg" xmlns:xlink="http://www.w3.org/1999/xlink" viewBox="0 0 32 32" version="1.1">
<g>
<path d="M 3 5 L 3 22 L 2 22 L 2 24 L 5 24 L 5 5 Z M 18 11 C 11.824219 11 7.75 12.03125 7.75 12.03125 L 7 12.21875 L 7 19 L 6 19 L 6 21 L 7 21 L 7 24 L 29 24 L 29 12.21875 L 28.25 12.03125 C 28.25 12.03125 24.175781 11 18 11 Z M 18 13 C 23.105469 13 26.101563 13.640625 27 13.84375 L 27 22 L 9 22 L 9 13.84375 C 9.898438 13.640625 12.894531 13 18 13 Z M 11 15 L 11 17 L 13 17 L 13 15 Z M 14 15 L 14 17 L 16 17 L 16 15 Z M 17 15 L 17 17 L 19 17 L 19 15 Z M 20 15 L 20 17 L 22 17 L 22 15 Z M 23 15 L 23 17 L 25 17 L 25 15 Z "></path>
</g>
</svg>
