<?xml version="1.0" encoding="UTF-8"?>
<svg xmlns="http://www.w3.org/2000/svg" xmlns:xlink="http://www.w3.org/1999/xlink" viewBox="0 0 32 32" version="1.1">
<g>
<path d="M 16 3.902344 L 4 9.355469 L 4 28 L 28 28 L 28 9.355469 Z M 16 6.097656 L 26 10.644531 L 26 26 L 6 26 L 6 10.644531 Z M 8 14 L 8 16 L 10.53125 16 L 8 20.222656 L 8 22 L 13 22 L 13 20 L 10.46875 20 L 13 15.777344 L 13 14 Z M 15 14 L 15 22 L 17 22 L 17 14 Z M 19 14 L 19 22 L 21 22 L 21 19 L 21.5 19 C 22.480469 19 23.175781 18.332031 23.582031 17.5 L 24 17.5 L 24 16.5 C 24 15.132813 22.867188 14 21.5 14 Z M 21 16 L 21.5 16 C 21.785156 16 22 16.214844 22 16.5 C 22 16.785156 21.785156 17 21.5 17 L 21 17 Z "></path>
</g>
</svg>
