<?xml version="1.0" encoding="UTF-8"?>
<svg xmlns="http://www.w3.org/2000/svg" xmlns:xlink="http://www.w3.org/1999/xlink" viewBox="0 0 32 32" version="1.1">
<g>
<path d="M 4 4 L 4 5.6875 L 28 9.34375 L 28 7.625 L 18.9375 6.25 C 18.960938 6.164063 19 6.09375 19 6 C 19 5.449219 18.550781 5 18 5 C 17.457031 5 17.015625 5.429688 17 5.96875 L 14.78125 5.625 C 14.917969 5.453125 15 5.238281 15 5 C 15 4.449219 14.550781 4 14 4 C 13.449219 4 13 4.449219 13 5 C 13 5.136719 13.042969 5.253906 13.09375 5.375 Z M 14 8.15625 L 14 8.90625 C 14 9.460938 14.421875 9.917969 14.96875 10 L 15 10 L 15 15.5 L 14.34375 17 L 12.15625 17 C 11.667969 17 11.207031 17.179688 10.84375 17.5 L 9.84375 18.375 C 8.980469 19.132813 8.960938 20.507813 9.78125 21.3125 L 12.40625 23.875 C 13.671875 25.113281 15.625 25.355469 17.15625 24.46875 L 17.21875 24.4375 L 17.25 24.40625 L 20.4375 22.03125 L 25.65625 23.9375 L 26.34375 22.0625 L 20.8125 20.03125 L 20.65625 20 L 20.5 20 C 20.066406 19.996094 19.628906 20.113281 19.28125 20.375 L 16.15625 22.75 C 16.105469 22.78125 16.054688 22.789063 16 22.8125 L 16 19.5 C 16 19.5 15.644531 19.941406 15 20 L 15 23 C 14.566406 22.953125 14.144531 22.761719 13.8125 22.4375 L 11.1875 19.875 L 12.15625 19 L 14.34375 19 C 15.136719 19 15.871094 18.539063 16.1875 17.8125 L 17.46875 14.84375 L 16 14.1875 L 16 10.125 C 16.558594 10.070313 17 9.589844 17 9 L 17 8.625 Z M 7 13 C 5.355469 13 4 14.355469 4 16 C 4 17.644531 5.355469 19 7 19 C 8.644531 19 10 17.644531 10 16 C 10 14.355469 8.644531 13 7 13 Z M 7 15 C 7.5625 15 8 15.4375 8 16 C 8 16.5625 7.5625 17 7 17 C 6.4375 17 6 16.5625 6 16 C 6 15.4375 6.4375 15 7 15 Z M 20.15625 23.40625 L 18.09375 24.96875 L 19.3125 25.28125 L 23.5625 28 L 24.65625 26.3125 Z "></path>
</g>
</svg>
