<?xml version="1.0" encoding="UTF-8"?>
<svg xmlns="http://www.w3.org/2000/svg" xmlns:xlink="http://www.w3.org/1999/xlink" viewBox="0 0 32 32" version="1.1">
<g>
<path d="M 17 3 C 10.382813 3 5 8.382813 5 15 C 5 17.949219 6.070313 20.65625 7.84375 22.75 L 3.0625 27.53125 L 4.46875 28.9375 L 9.25 24.15625 C 11.34375 25.929688 14.050781 27 17 27 C 23.617188 27 29 21.617188 29 15 C 29 8.382813 23.617188 3 17 3 Z M 17 5 C 22.199219 5 26.441406 8.933594 26.9375 14 L 26 14 L 26 15 L 25 15 L 25 14 L 24 14 L 24 15 L 23 15 L 23 14 L 22 14 L 22 15 L 21 15 L 21 14 L 20 14 L 20 16 L 21 16 L 21 17 L 22 17 L 22 16 L 23 16 L 23 17 L 24 17 L 24 16 L 25 16 L 25 17 L 26 17 L 26 16 L 26.9375 16 C 26.441406 21.066406 22.199219 25 17 25 C 13.832031 25 11.019531 23.539063 9.1875 21.25 L 9.78125 21.53125 C 9.910156 21.261719 10.0625 21.03125 10.21875 20.78125 L 8.53125 19.6875 C 8.46875 19.785156 8.402344 19.898438 8.34375 20 C 7.496094 18.53125 7 16.820313 7 15 C 7 13.382813 7.386719 11.847656 8.0625 10.5 C 8.199219 10.769531 8.371094 11.054688 8.53125 11.3125 L 10.21875 10.21875 C 10.0625 9.96875 9.910156 9.738281 9.78125 9.46875 L 8.25 10.1875 C 9.945313 7.089844 13.210938 5 17 5 Z M 10.71875 10.96875 L 9.15625 12.1875 C 9.386719 12.476563 9.644531 12.769531 9.90625 13.03125 L 11.3125 11.625 C 11.105469 11.414063 10.902344 11.199219 10.71875 10.96875 Z M 11.96875 12.21875 L 10.71875 13.78125 C 11.003906 14.011719 11.3125 14.238281 11.625 14.4375 L 12.6875 12.75 C 12.4375 12.589844 12.199219 12.40625 11.96875 12.21875 Z M 13.46875 13.1875 L 12.59375 14.96875 C 12.921875 15.132813 13.242188 15.277344 13.59375 15.40625 L 14.28125 13.53125 C 14 13.429688 13.734375 13.320313 13.46875 13.1875 Z M 15 14 L 15 17 L 19 17 L 19 14 Z M 13.59375 15.59375 C 13.242188 15.722656 12.921875 15.871094 12.59375 16.03125 L 13.46875 17.8125 C 13.734375 17.679688 14 17.570313 14.28125 17.46875 Z M 11.625 16.5625 C 11.3125 16.761719 11.003906 16.988281 10.71875 17.21875 L 11.96875 18.78125 C 12.199219 18.59375 12.4375 18.410156 12.6875 18.25 Z M 9.90625 17.96875 C 9.644531 18.230469 9.386719 18.523438 9.15625 18.8125 L 10.71875 20.03125 C 10.902344 19.800781 11.101563 19.585938 11.3125 19.375 Z M 16 18 L 16 23 L 18 23 L 18 18 Z "></path>
</g>
</svg>
