<?xml version="1.0" encoding="UTF-8"?>
<svg xmlns="http://www.w3.org/2000/svg" xmlns:xlink="http://www.w3.org/1999/xlink" viewBox="0 0 32 32" version="1.1">
<g>
<path d="M 15 3 C 14.226563 3 13.488281 3.105469 12.78125 3.3125 C 10.832031 3.726563 9.257813 4.558594 8.09375 5.78125 C 5.898438 8.082031 5.996094 10.925781 6 11 L 6 15.71875 C 5.425781 16.195313 5 16.929688 5 18 C 5 20.066406 6.15625 21.515625 8.03125 21.875 C 8.414063 26.179688 11.523438 29 16 29 C 18.148438 29 19.976563 28.339844 21.34375 27.1875 C 21.15625 28.589844 21 29.761719 21 30 C 21 30.550781 21.449219 31 22 31 C 22.550781 31 23 30.550781 23 30 C 23 29.644531 22.664063 28.234375 22.375 26.125 C 23.261719 24.980469 23.820313 23.542969 23.96875 21.875 C 25.84375 21.515625 27 20.066406 27 18 C 27 16.929688 26.574219 16.195313 26 15.71875 L 26 11.03125 C 26.007813 10.910156 26.101563 8.082031 23.90625 5.78125 C 22.742188 4.558594 21.167969 3.726563 19.21875 3.3125 C 18.507813 3.105469 17.773438 3 17 3 Z M 16 5 C 17.003906 5 17.925781 5.078125 18.75 5.25 C 19.859375 5.589844 20.828125 6.265625 21.5625 7.125 C 21.230469 7.058594 20.871094 7 20.5 7 C 19.617188 7 18.886719 7.320313 18.3125 7.90625 C 17.875 6.84375 17.15625 6 16 6 C 14.824219 6 14.121094 6.765625 13.6875 7.6875 C 13.121094 7.222656 12.472656 7.023438 12 7 C 11.347656 7 10.761719 7.128906 10.25 7.34375 C 11.003906 6.371094 12.046875 5.617188 13.25 5.25 C 14.074219 5.082031 14.992188 5 16 5 Z M 16 8 C 16.371094 8 16.980469 9.824219 17 12 L 19 12 C 19 11.5 19.0625 9 20.5 9 C 21.246094 9 21.816406 9.210938 22.21875 9.625 C 22.925781 10.351563 22.992188 11.539063 23 11.875 L 23 16.96875 L 24 17 C 24.460938 17.011719 25 17.195313 25 18 C 25 19.296875 24.328125 19.9375 23 19.9375 L 22 19.9375 L 22 20 C 22 20 21.679688 20.964844 21.15625 21 C 20.683594 21.03125 19.722656 20.972656 19.28125 21.21875 C 18.679688 21.554688 19.179688 22.996094 18.84375 23.59375 C 18.476563 24.246094 18.304688 23.949219 17.78125 24.125 C 17.554688 24.199219 16.957031 24.484375 17 25.5625 C 16.925781 26.117188 16.855469 26.8125 15.59375 26.96875 C 12.191406 26.792969 10 24.464844 10 20.9375 L 10 19.9375 L 9 19.9375 C 7.671875 19.9375 7 19.296875 7 18 C 7 17.195313 7.550781 17.011719 8 17 L 9 17 L 9 12.09375 C 9.09375 11.644531 9.757813 9.003906 11.9375 9 C 12.117188 9.019531 13 9.207031 13 11 L 15 11 C 15.011719 9.804688 15.414063 8 16 8 Z M 19.5 15 C 18.121094 15 17 15.894531 17 17 C 17 18.105469 18.121094 19 19.5 19 C 20.878906 19 22 18.105469 22 17 C 22 15.894531 20.878906 15 19.5 15 Z M 12.5 16 C 11.253906 16 10 16.449219 10 17 C 10 18.105469 11.117188 19 12.5 19 C 13.882813 19 15 18.105469 15 17 C 15 16.445313 13.753906 16 12.5 16 Z M 16 19 C 15.449219 19 15 19.894531 15 21 C 15 22.105469 15.449219 21 16 21 C 16.550781 21 17 22.105469 17 21 C 17 19.894531 16.550781 19 16 19 Z "></path>
</g>
</svg>
