<?xml version="1.0" encoding="UTF-8"?>
<svg xmlns="http://www.w3.org/2000/svg" xmlns:xlink="http://www.w3.org/1999/xlink" viewBox="0 0 32 32" version="1.1">
<g>
<path d="M 19 3 C 13.488281 3 9 7.488281 9 13 C 9 15.398438 9.851563 17.597656 11.265625 19.324219 L 3.292969 27.292969 L 4.707031 28.707031 L 12.675781 20.734375 C 14.402344 22.148438 16.601563 23 19 23 C 24.511719 23 29 18.511719 29 13 C 29 7.488281 24.511719 3 19 3 Z M 19 5 C 23.429688 5 27 8.570313 27 13 C 27 17.429688 23.429688 21 19 21 C 14.570313 21 11 17.429688 11 13 C 11 8.570313 14.570313 5 19 5 Z M 14 8 L 14 12 L 15.292969 10.707031 L 17.585938 13 L 15.292969 15.292969 L 14 14 L 14 18 L 18 18 L 16.707031 16.707031 L 19 14.414063 L 21.292969 16.707031 L 20 18 L 24 18 L 24 14 L 22.707031 15.292969 L 20.414063 13 L 22.707031 10.707031 L 24 12 L 24 8 L 20 8 L 21.292969 9.292969 L 19 11.585938 L 16.707031 9.292969 L 18 8 Z "></path>
</g>
</svg>
