<svg viewBox="0 0 40 40" xmlns="http://www.w3.org/2000/svg"><path d="M7 37.5c-.827 0-1.5-.673-1.5-1.5v-9c0-.432.185-.831.519-1.124l.431-.376-.431-.376A1.481 1.481 0 015.5 24v-8c0-.432.185-.831.519-1.124l.431-.376-.431-.376A1.481 1.481 0 015.5 13V4c0-.827.673-1.5 1.5-1.5h26c.827 0 1.5.673 1.5 1.5v9c0 .432-.185.831-.519 1.124l-.431.376.431.376c.334.293.519.692.519 1.124v8c0 .432-.185.831-.519 1.124l-.431.376.431.376c.334.293.519.692.519 1.124v9c0 .827-.673 1.5-1.5 1.5H7z" fill="#dcd5f2"></path><path d="M33 3c.551 0 1 .449 1 1v9a.99.99 0 01-.348.747l-.861.753.861.753A.99.99 0 0134 16v8a.99.99 0 01-.348.747l-.861.753.861.753A.99.99 0 0134 27v9c0 .551-.449 1-1 1H7c-.551 0-1-.449-1-1v-9a.99.99 0 01.348-.747l.861-.753-.861-.753A.99.99 0 016 24v-8a.99.99 0 01.348-.747l.861-.753-.861-.753A.99.99 0 016 13V4c0-.551.449-1 1-1h26m0-1H7a2 2 0 00-2 2v9c0 .601.27 1.133.69 1.5-.42.367-.69.899-.69 1.5v8c0 .601.27 1.133.69 1.5-.42.367-.69.899-.69 1.5v9a2 2 0 002 2h26a2 2 0 002-2v-9c0-.601-.27-1.133-.69-1.5.42-.367.69-.899.69-1.5v-8c0-.601-.27-1.133-.69-1.5.42-.367.69-.899.69-1.5V4a2 2 0 00-2-2z" fill="#8b75a1"></path><path d="M14.365 18.521h-.026l-1.43.741-.286-1.339 1.937-1.001h1.495v8.45h-1.69v-6.851zM18.226 25.372v-1.144l.832-1.079c1.092-1.391 1.989-2.548 1.989-3.757 0-.689-.377-1.157-1.079-1.157-.533 0-.962.234-1.261.429l-.312-1.313c.39-.26 1.118-.533 1.885-.533 1.846 0 2.444 1.235 2.444 2.444 0 1.586-.988 2.86-1.963 3.991l-.507.598v.026h2.587v1.495h-4.615zM27.885 25.268c-.169.078-.598.182-1.079.182-1.612 0-2.665-1.118-2.665-3.185 0-1.963 1.157-3.328 2.912-3.328.403 0 .767.091.936.169l-.221 1.339a1.79 1.79 0 00-.637-.117c-.819 0-1.3.78-1.3 1.885 0 1.144.481 1.846 1.274 1.846.247 0 .455-.039.637-.13l.143 1.339z" fill="#7c6394"></path></svg>