<svg viewBox="0 0 40 40" xmlns="http://www.w3.org/2000/svg"><path d="M20 37.5c-9.649 0-17.5-7.851-17.5-17.5S10.351 2.5 20 2.5 37.5 10.351 37.5 20 29.649 37.5 20 37.5z" fill="#e1ebf2"></path><path d="M20 3c9.374 0 17 7.626 17 17s-7.626 17-17 17S3 29.374 3 20 10.626 3 20 3m0-1C10.059 2 2 10.059 2 20s8.059 18 18 18 18-8.059 18-18S29.941 2 20 2z" fill="#a3b7cc"></path><g><path d="M20 37.5c-2.891 0-5.752-.729-8.307-2.112L20.5 20.134V2.507c9.419.266 17 8.011 17 17.493 0 9.649-7.851 17.5-17.5 17.5z" fill="#8bb7f0"></path><path d="M21 3.029c8.91.52 16 7.933 16 16.971 0 9.374-7.626 17-17 17-2.637 0-5.248-.625-7.613-1.814L20.866 20.5l.134-.232V3.029M20 2v18l-8.993 15.577A17.895 17.895 0 0020 38c9.941 0 18-8.059 18-18S29.941 2 20 2z" fill="#4e7ab5"></path></g></svg>