<svg viewBox="0 0 40 40" xmlns="http://www.w3.org/2000/svg"><path d="M20 37.5c-9.649 0-17.5-7.851-17.5-17.5S10.351 2.5 20 2.5 37.5 10.351 37.5 20 29.649 37.5 20 37.5z" fill="#e1ebf2"></path><path d="M20 3c9.374 0 17 7.626 17 17s-7.626 17-17 17c-9.374 0-17-7.626-17-17S10.626 3 20 3m0-1C10.059 2 2 10.059 2 20s8.059 18 18 18 18-8.059 18-18S29.941 2 20 2z" fill="#a3b7cc"></path><g><path d="M20 37.5c-9.482 0-17.228-7.581-17.493-17H20.5V2.507c9.419.266 17 8.011 17 17.493 0 9.649-7.851 17.5-17.5 17.5z" fill="#8bb7f0"></path><path d="M21 3.029c8.91.52 16 7.933 16 16.971 0 9.374-7.626 17-17 17-9.038 0-16.451-7.09-16.971-16H21V3.029M20 2v18H2c0 9.941 8.059 18 18 18s18-8.059 18-18S29.941 2 20 2z" fill="#4e7ab5"></path></g></svg>