<svg viewBox="0 0 40 40" xmlns="http://www.w3.org/2000/svg"><path d="M20 37.5c-9.649 0-17.5-7.851-17.5-17.5S10.351 2.5 20 2.5 37.5 10.351 37.5 20 29.649 37.5 20 37.5z" fill="#e1ebf2"></path><path d="M20 3c9.374 0 17 7.626 17 17s-7.626 17-17 17S3 29.374 3 20 10.626 3 20 3m0-1C10.059 2 2 10.059 2 20s8.059 18 18 18 18-8.059 18-18S29.941 2 20 2z" fill="#a3b7cc"></path><g><path d="M20.5 2.507c2.719.079 5.398.801 7.807 2.105L20.5 18.134V2.507z" fill="#8bb7f0"></path><path d="M21 3.03a16.98 16.98 0 016.613 1.784L21 16.268V3.03M20 2v18l8.993-15.577A17.895 17.895 0 0020 2z" fill="#4e7ab5"></path></g></svg>