<svg viewBox="0 0 40 40" xmlns="http://www.w3.org/2000/svg"><path fill="#ffeea3" d="M2.5 2.5h35v35h-35z"></path><path d="M37 3v34H3V3h34m1-1H2v36h36V2z" fill="#ba9b48"></path><path d="M11 19.36v-2.07a4.71 4.71 0 003 1.06 3.5 3.5 0 002.17-.62A2 2 0 0017 16q0-2.32-3.55-2.32h-1.06V12h1q3.15 0 3.15-2.19 0-2-2.45-2a4 4 0 00-2.58 1v-2A6.6 6.6 0 0114.79 6a4.39 4.39 0 012.91.91 2.91 2.91 0 011.1 2.34 3.33 3.33 0 01-2.74 3.46 3.59 3.59 0 012.33 1 3.07 3.07 0 01.85 2.29 3.64 3.64 0 01-1.38 3 5.56 5.56 0 01-3.63 1.13 6.19 6.19 0 01-3.23-.77zM30.13 19.86h-8.56v-1.05a4 4 0 01.18-1.21 4.89 4.89 0 01.48-1.06 6 6 0 01.71-.94q.41-.44.87-.86t1-.8l1-.77q.44-.37.8-.73a4.85 4.85 0 00.62-.74 3.34 3.34 0 00.4-.8 2.86 2.86 0 00.14-.92 2.48 2.48 0 00-.25-.98 1.83 1.83 0 00-.47-.68 2 2 0 00-.71-.41 2.79 2.79 0 00-.89-.14 4.12 4.12 0 00-1.7.39 5.84 5.84 0 00-1.66 1.17V7.25a7 7 0 01.85-.55 5.74 5.74 0 01.88-.39 5.47 5.47 0 011-.23A7.18 7.18 0 0125.85 6a5.43 5.43 0 011.67.24 3.57 3.57 0 011.29.76 3.13 3.13 0 01.82 1.17 4.21 4.21 0 01.29 1.62 5 5 0 01-.2 1.49 4.81 4.81 0 01-.58 1.23 6.39 6.39 0 01-.91 1.08q-.53.51-1.19 1.06l-1.1.87q-.55.42-1 .83a4.63 4.63 0 00-.71.81 1.45 1.45 0 00-.27.81h6.15z" fill="#f75252"></path><path d="M13.26 32.72v1.11H12V22.5h1.23v5A2.9 2.9 0 0115.9 26a2.8 2.8 0 012.3 1 4.25 4.25 0 01.8 2.77 4.74 4.74 0 01-.93 3.07A3.11 3.11 0 0115.55 34a2.52 2.52 0 01-2.29-1.28zm0-3.09v1.07a2.27 2.27 0 00.62 1.61 2.2 2.2 0 003.31-.19 3.9 3.9 0 00.63-2.37 3.09 3.09 0 00-.59-2 2 2 0 00-1.6-.72 2.17 2.17 0 00-1.72.74 2.73 2.73 0 00-.68 1.86zM21.62 24.23a.78.78 0 01-.56-.22.76.76 0 01-.23-.57.78.78 0 01.79-.8.79.79 0 01.57.23.8.8 0 010 1.13.79.79 0 01-.57.23zm.6 9.59H21v-7.65h1.23zM28.25 33.75a2.36 2.36 0 01-1.15.25q-2 0-2-2.24v-4.54h-1.32v-1h1.32V24.3l1.23-.4v2.26h1.93v1h-1.94v4.31a1.79 1.79 0 00.26 1.1 1 1 0 00.87.33 1.29 1.29 0 00.8-.25z" fill="#36404d"></path></svg>