<svg viewBox="0 0 40 40" xmlns="http://www.w3.org/2000/svg"><path d="M20 37.5c-9.649 0-17.5-7.851-17.5-17.5S10.351 2.5 20 2.5 37.5 10.351 37.5 20 29.649 37.5 20 37.5z" fill="#e1ebf2"></path><path d="M20 3c9.374 0 17 7.626 17 17s-7.626 17-17 17S3 29.374 3 20 10.626 3 20 3m0-1C10.059 2 2 10.059 2 20s8.059 18 18 18 18-8.059 18-18S29.941 2 20 2z" fill="#a3b7cc"></path><g><path d="M20 37.5c-9.649 0-17.5-7.851-17.5-17.5 0-6.205 3.356-12.006 8.759-15.139l.434-.251L19.5 18.134V2.5h.5c9.649 0 17.5 7.851 17.5 17.5S29.649 37.5 20 37.5z" fill="#8bb7f0"></path><path d="M20 3c9.374 0 17 7.626 17 17s-7.626 17-17 17S3 29.374 3 20c0-6.28 3.432-11.762 8.51-14.706L20 20V3m0-1h-1v14.268L12.376 4.794l-.501-.868-.867.502C5.452 7.65 2 13.616 2 20c0 9.925 8.075 18 18 18s18-8.075 18-18S29.925 2 20 2z" fill="#4e7ab5"></path></g></svg>