<svg viewBox="0 0 40 40" xmlns="http://www.w3.org/2000/svg"><path fill="#bae0bd" d="M1.5 38.5V11.406L20 7.511l18.5 3.895V38.5z"></path><path d="M20 8.022l18 3.789V38H2V11.811l18-3.789M20 7L1 11v28h38V11L20 7z" fill="#5e9c76"></path><path fill="#94cf9a" d="M2 34h36v4H2z"></path><path fill="#5e9c76" d="M20 0l.975 1.975 2.179.317-1.577 1.537L21.95 6 20 4.975 18.05 6l.373-2.171-1.577-1.537 2.179-.317zM28 2l.812 1.646 1.817.264-1.315 1.281L29.625 7 28 6.146 26.375 7l.311-1.809-1.315-1.281 1.817-.264zM12 2l-.812 1.646-1.817.264 1.315 1.281L10.375 7 12 6.146 13.625 7l-.311-1.809 1.315-1.281-1.817-.264z"></path><path fill="#f2fff4" d="M16.5 24.5h7v14h-7z"></path><path d="M23 25v13h-6V25h6m1-1h-8v15h8V24z" fill="#5e9c76"></path><path fill="#f2fff4" d="M27.5 24.5h7v5h-7z"></path><path d="M34 25v4h-6v-4h6m1-1h-8v6h8v-6z" fill="#5e9c76"></path><path fill="#f2fff4" d="M27.5 15.5h7v5h-7z"></path><path d="M34 16v4h-6v-4h6m1-1h-8v6h8v-6z" fill="#5e9c76"></path><g><path fill="#f2fff4" d="M5.5 24.5h7v5h-7z"></path><path d="M12 25v4H6v-4h6m1-1H5v6h8v-6z" fill="#5e9c76"></path></g><g><path fill="#f2fff4" d="M5.5 15.5h7v5h-7z"></path><path d="M12 16v4H6v-4h6m1-1H5v6h8v-6z" fill="#5e9c76"></path></g><g><path fill="#f2fff4" d="M16.5 15.5h7v5h-7z"></path><path d="M23 16v4h-6v-4h6m1-1h-8v6h8v-6z" fill="#5e9c76"></path></g></svg>