<svg viewBox="0 0 40 40" xmlns="http://www.w3.org/2000/svg"><path fill="#8bb7f0" d="M6.5 37.5v-35h18.293l8.707 8.707V37.5z"></path><path d="M24.586 3L33 11.414V37H7V3h17.586M25 2H6v36h28V11l-9-9z" fill="#4e7ab5"></path><path fill="#fff" d="M24.5 11.5v-9h.293l8.707 8.707v.293z"></path><path d="M25 3.414L32.586 11H25V3.414M25 2h-1v10h10v-1l-9-9z" fill="#4e7ab5"></path><path d="M11.676 24.926a2.67 2.67 0 001.261.325c.832 0 1.287-.507 1.287-1.222 0-.936-.728-1.326-1.573-1.339h-.234v-1.248h.169c.624-.013 1.417-.273 1.417-1.092 0-.611-.377-.975-.975-.975-.39 0-.754.13-1.066.338l-.234-1.287c.351-.221 1.04-.442 1.742-.442 1.482 0 2.236.962 2.236 2.041 0 .845-.468 1.547-1.222 1.898v.026c.819.273 1.443 1.014 1.443 2.145 0 1.287-.988 2.548-2.834 2.548-.676 0-1.287-.169-1.651-.377l.234-1.339zM17.747 17.776h3.809v1.482H19.45v2.249h1.976v1.417H19.45v3.614h-1.703v-8.762zM23.168 17.906a10.176 10.176 0 011.859-.169c.936 0 1.781.143 2.34.65.533.481.702 1.066.702 1.82 0 .936-.468 1.781-1.352 2.184v.026c.598.247.897.793 1.066 1.742.169.975.403 2.054.559 2.379h-1.781c-.117-.247-.312-1.131-.442-2.106-.156-1.079-.429-1.391-.988-1.391h-.26v3.497h-1.703v-8.632zm1.703 3.823h.312c.741 0 1.157-.598 1.157-1.365 0-.754-.299-1.274-1.053-1.3-.156 0-.325.013-.416.052v2.613z" fill="#fff"></path></svg>