<svg viewBox="0 0 40 40" xmlns="http://www.w3.org/2000/svg"><path fill="#8bb7f0" d="M1.5 9.5h36v21h-36z"></path><path d="M37 10v20H2V10h35m1-1H1v22h37V9z" fill="#4e7ab5"></path><path d="M37 6v3H2V6h35m1-1H1v5h37V5z" fill="#4e7ab5"></path><path fill="#4e7ab5" d="M5 5h1v5H5zM9 5h1v5H9zM13 5h1v5h-1zM17 5h1v5h-1zM21 5h1v5h-1zM25 5h1v5h-1zM29 5h1v5h-1zM33 5h1v5h-1zM37 31v3H2v-3h35m1-1H1v5h37v-5z"></path><path fill="#4e7ab5" d="M5 30h1v5H5zM9 30h1v5H9zM13 30h1v5h-1zM17 30h1v5h-1zM21 30h1v5h-1zM25 30h1v5h-1zM29 30h1v5h-1zM33 30h1v5h-1z"></path><path d="M17.727 19.846v-.027c-.967-.363-1.45-.951-1.45-1.764 0-.597.259-1.089.778-1.475.519-.387 1.189-.58 2.01-.58.837 0 1.505.181 2.004.542s.749.828.749 1.4c0 .845-.534 1.467-1.603 1.866v.022c.574.155 1.019.409 1.335.763s.474.753.474 1.195c0 .683-.276 1.223-.828 1.618-.553.396-1.324.594-2.314.594-.857 0-1.547-.193-2.072-.58-.525-.387-.787-.898-.787-1.535.001-.924.568-1.604 1.704-2.039zm1.244.648c-.79.284-1.185.719-1.185 1.305 0 .281.121.512.362.696.242.183.535.275.881.275.373 0 .674-.09.902-.27s.342-.417.342-.712c0-.59-.434-1.021-1.302-1.294zm1.096-2.406a.782.782 0 00-.274-.628c-.183-.156-.425-.235-.728-.235-.295 0-.539.082-.734.245a.786.786 0 00-.292.628c0 .482.338.847 1.014 1.095.676-.255 1.014-.623 1.014-1.105zM25.954 24C23.985 24 23 22.707 23 20.121c0-1.341.266-2.364.799-3.067S25.104 16 26.115 16C28.038 16 29 17.314 29 19.943c0 1.309-.263 2.312-.788 3.01S26.935 24 25.954 24zm.081-6.7c-.788 0-1.183.926-1.183 2.778 0 1.744.387 2.616 1.16 2.616.754 0 1.131-.899 1.131-2.697s-.37-2.697-1.108-2.697zM15 22.293h-.951v1.7h-1.593v-1.7H9v-1.12L12.329 16h1.72v5.039H15v1.254zm-2.522-4.532h-.033a6.806 6.806 0 01-.299.624l-1.698 2.653h2.007v-2.514c.001-.222.009-.476.023-.763z" fill="#36404d"></path></svg>