<svg viewBox="0 0 40 40" xmlns="http://www.w3.org/2000/svg"><path fill="#4e7ab5" d="M33 3l-.812 1.646-1.817.264 1.315 1.281L31.375 8 33 7.146 34.625 8l-.311-1.809 1.315-1.281-1.817-.264zM7 3l-.812 1.646-1.817.264 1.315 1.281L5.375 8 7 7.146 8.625 8l-.311-1.809L9.629 4.91l-1.817-.264z"></path><path fill="#dbf2ff" d="M1.5 38.5V11.406L20 7.511l18.5 3.895V38.5z"></path><path d="M20 8.022l18 3.789V38H2V11.811l18-3.789M20 7L1 11v28h38V11L20 7z" fill="#7496c4"></path><path fill="#b5ddf5" d="M2 34h36v4H2z"></path><path fill="#4e7ab5" d="M15 0l.975 1.975 2.179.317-1.577 1.537L16.95 6 15 4.975 13.05 6l.373-2.171-1.577-1.537 2.179-.317zM25 0l.975 1.975 2.179.317-1.577 1.537L26.95 6 25 4.975 23.05 6l.373-2.171-1.577-1.537 2.179-.317z"></path><path fill="#fff" d="M16.5 24.5h7v14h-7z"></path><path d="M23 25v13h-6V25h6m1-1h-8v15h8V24z" fill="#7496c4"></path><path fill="#fff" d="M27.5 24.5h7v5h-7z"></path><path d="M34 25v4h-6v-4h6m1-1h-8v6h8v-6z" fill="#7496c4"></path><path fill="#fff" d="M27.5 15.5h7v5h-7z"></path><path d="M34 16v4h-6v-4h6m1-1h-8v6h8v-6z" fill="#7496c4"></path><g><path fill="#fff" d="M5.5 24.5h7v5h-7z"></path><path d="M12 25v4H6v-4h6m1-1H5v6h8v-6z" fill="#7496c4"></path></g><g><path fill="#fff" d="M5.5 15.5h7v5h-7z"></path><path d="M12 16v4H6v-4h6m1-1H5v6h8v-6z" fill="#7496c4"></path></g><g><path fill="#fff" d="M16.5 15.5h7v5h-7z"></path><path d="M23 16v4h-6v-4h6m1-1h-8v6h8v-6z" fill="#7496c4"></path></g></svg>