<svg viewBox="0 0 40 40" xmlns="http://www.w3.org/2000/svg"><path fill="#8bb7f0" d="M1.5 9.5h36v21h-36z"></path><path d="M37 10v20H2V10h35m1-1H1v22h37V9z" fill="#4e7ab5"></path><path d="M19 22.293h-.951v1.7h-1.593v-1.7H13v-1.12L16.329 16h1.72v5.039H19v1.254zm-2.522-4.532h-.033a6.806 6.806 0 01-.299.624l-1.698 2.653h2.007v-2.514c.001-.222.009-.476.023-.763z" fill="#36404d"></path><path d="M37 6v3H2V6h35m1-1H1v5h37V5z" fill="#4e7ab5"></path><path fill="#4e7ab5" d="M5 5h1v5H5zM9 5h1v5H9zM13 5h1v5h-1zM17 5h1v5h-1zM21 5h1v5h-1zM25 5h1v5h-1zM29 5h1v5h-1zM33 5h1v5h-1zM37 31v3H2v-3h35m1-1H1v5h37v-5z"></path><path fill="#4e7ab5" d="M5 30h1v5H5zM9 30h1v5H9zM13 30h1v5h-1zM17 30h1v5h-1zM21 30h1v5h-1zM25 30h1v5h-1zM29 30h1v5h-1zM33 30h1v5h-1z"></path><g><path d="M26 24h-2.054l-2.104-3.476a3.516 3.516 0 01-.191-.441h-.025V24H20v-8h1.626v3.782h.025c.04-.104.107-.253.201-.446L23.846 16h1.938l-2.517 3.816L26 24z" fill="#36404d"></path></g></svg>