<svg viewBox="0 0 40 40" xmlns="http://www.w3.org/2000/svg"><path d="M20 37.5c-9.649 0-17.5-7.851-17.5-17.5S10.351 2.5 20 2.5 37.5 10.35 37.5 20 29.649 37.5 20 37.5z" fill="#e1ebf2"></path><path d="M20 3c9.374 0 17 7.626 17 17s-7.626 17-17 17S3 29.374 3 20 10.626 3 20 3m0-1C10.059 2 2 10.059 2 20s8.059 18 18 18 18-8.059 18-18S29.941 2 20 2z" fill="#a3b7cc"></path><g><path d="M20.5 2.507c5.859.169 11.294 3.313 14.387 8.321L20.5 19.134V2.507z" fill="#8bb7f0"></path><path d="M21 3.03c5.324.318 10.234 3.158 13.184 7.626L21 18.268V3.03M20 2v18l15.577-8.993C32.464 5.628 26.662 2 20 2z" fill="#4e7ab5"></path></g></svg>