<svg viewBox="0 0 40 40" xmlns="http://www.w3.org/2000/svg"><path fill="#ffeea3" d="M2.5 2.5h35v35h-35z"></path><path d="M37 3v34H3V3h34m1-1H2v36h36V2z" fill="#ba9b48"></path><path d="M19.18 15.5a5 5 0 01-.34 1.88 4.4 4.4 0 01-.94 1.46 4.19 4.19 0 01-1.43 1 4.66 4.66 0 01-1.79.34 4.44 4.44 0 01-1.89-.4 4 4 0 01-1.49-1.19 5.73 5.73 0 01-1-2 9.79 9.79 0 01-.3-2.74 11.43 11.43 0 01.45-3.37A7.39 7.39 0 0111.7 8a5.33 5.33 0 011.86-1.51 5.24 5.24 0 012.3-.49 8.63 8.63 0 011.41.1 3.91 3.91 0 011 .29v2a6.56 6.56 0 00-1-.42A4.28 4.28 0 0016 7.79a3.38 3.38 0 00-1.48.32 3.27 3.27 0 00-1.17.95 4.68 4.68 0 00-.77 1.54 7.47 7.47 0 00-.29 2.12h.06a3.08 3.08 0 011.19-1.07 3.75 3.75 0 011.76-.39 4.28 4.28 0 011.62.29 3.39 3.39 0 011.23.84 3.77 3.77 0 01.79 1.33 5.3 5.3 0 01.24 1.78zm-2.23.18a3.94 3.94 0 00-.14-1.08 2.32 2.32 0 00-.42-.83 1.89 1.89 0 00-.71-.54 2.41 2.41 0 00-1-.19 2.33 2.33 0 00-1 .2 2.21 2.21 0 00-1.17 1.3 2.67 2.67 0 00-.15.88 3.81 3.81 0 00.14 1 3.05 3.05 0 00.42.93 2.37 2.37 0 00.73.69 2 2 0 001.05.27 2.21 2.21 0 001-.2 2 2 0 00.7-.55 2.51 2.51 0 00.43-.83 3.53 3.53 0 00.12-1.04zM28.75 6.23v8.83h2v1.84h-2v3h-2.14v-3h-6.19V15q.84-.94 1.72-2t1.7-2.25q.82-1.15 1.51-2.3a21.07 21.07 0 001.17-2.21zm-2.14 8.83V9.32a31.69 31.69 0 01-2.05 3.26q-1 1.39-1.9 2.48z" fill="#f75252"></path><path d="M13.26 32.72v1.11H12V22.5h1.23v5A2.9 2.9 0 0115.9 26a2.8 2.8 0 012.3 1 4.25 4.25 0 01.8 2.77 4.74 4.74 0 01-.93 3.07A3.11 3.11 0 0115.55 34a2.52 2.52 0 01-2.29-1.28zm0-3.09v1.07a2.27 2.27 0 00.62 1.61 2.2 2.2 0 003.31-.19 3.9 3.9 0 00.63-2.37 3.09 3.09 0 00-.59-2 2 2 0 00-1.6-.72 2.17 2.17 0 00-1.72.74 2.73 2.73 0 00-.68 1.86zM21.62 24.23a.78.78 0 01-.56-.22.76.76 0 01-.23-.57.78.78 0 01.79-.8.79.79 0 01.57.23.8.8 0 010 1.13.79.79 0 01-.57.23zm.6 9.59H21v-7.65h1.23zM28.25 33.75a2.36 2.36 0 01-1.15.25q-2 0-2-2.24v-4.54h-1.32v-1h1.32V24.3l1.23-.4v2.26h1.93v1h-1.94v4.31a1.79 1.79 0 00.26 1.1 1 1 0 00.87.33 1.29 1.29 0 00.8-.25z" fill="#36404d"></path></svg>