<svg viewBox="0 0 40 40" xmlns="http://www.w3.org/2000/svg"><path fill="#ffc49c" d="M6.5 37.5v-35h18.293l8.707 8.707V37.5z"></path><path d="M24.586 3L33 11.414V37H7V3h17.586M25 2H6v36h28V11l-9-9z" fill="#a16a4a"></path><path fill="#fff" d="M24.5 11.5v-9h.293l8.707 8.707v.293z"></path><path d="M25 3.414L32.586 11H25V3.414M25 2h-1v10h10v-1l-9-9zM19.723 18.088v1.118l-2.652 7.332h-1.664l2.587-6.929v-.026h-2.873v-1.495h4.602zM20.711 25.473l1.56-2.834c.208-.351.468-.78.598-1.027v-.039h-1.963v-1.391h3.809v1.157l-1.521 2.73c-.208.377-.455.78-.598 1.04v.039h2.184v1.391h-4.069v-1.066z" fill="#a16a4a"></path></svg>