<svg viewBox="0 0 40 40" xmlns="http://www.w3.org/2000/svg"><path d="M20 37.5c-9.649 0-17.5-7.851-17.5-17.5S10.351 2.5 20 2.5 37.5 10.351 37.5 20 29.649 37.5 20 37.5z" fill="#e1ebf2"></path><path d="M20 3c9.374 0 17 7.626 17 17s-7.626 17-17 17S3 29.374 3 20 10.626 3 20 3m0-1C10.059 2 2 10.059 2 20s8.059 18 18 18 18-8.059 18-18S29.941 2 20 2z" fill="#a3b7cc"></path><g><path d="M20.5 19.5V2.507c9.253.261 16.732 7.74 16.993 16.993H20.5z" fill="#8bb7f0"></path><path d="M21 3.029c8.579.5 15.471 7.392 15.971 15.971H21V3.029M20 2v18h18c0-9.941-8.059-18-18-18z" fill="#4e7ab5"></path></g></svg>