<svg viewBox="0 0 40 40" xmlns="http://www.w3.org/2000/svg"><path fill="#ffeea3" d="M6.5 37.5v-35h18.293l8.707 8.707V37.5z"></path><path d="M24.586 3L33 11.414V37H7V3h17.586M25 2H6v36h28V11l-9-9z" fill="#ba9b48"></path><path fill="#fff" d="M24.5 11.5v-9h.293l8.707 8.707v.293z"></path><path d="M25 3.414L32.586 11H25V3.414M25 2h-1v10h10v-1l-9-9z" fill="#ba9b48"></path><path d="M13.229 24.537l-.39 2.002h-1.651l1.898-8.762h2.041l1.703 8.762h-1.65l-.377-2.002h-1.574zm1.417-1.327l-.286-1.833c-.091-.533-.208-1.417-.286-1.989h-.039c-.091.585-.221 1.482-.312 1.989l-.325 1.833h1.248zM19.509 24.537l-.39 2.002h-1.651l1.898-8.762h2.041l1.703 8.762h-1.651l-.377-2.002h-1.573zm1.417-1.327l-.286-1.833c-.091-.533-.208-1.417-.286-1.989h-.039c-.091.585-.221 1.482-.312 1.989l-.325 1.833h1.248zM28.388 26.409c-.247.117-.728.208-1.313.208-2.249 0-3.315-1.833-3.315-4.329 0-3.302 1.833-4.589 3.536-4.589.598 0 1.014.117 1.183.234l-.286 1.43a1.714 1.714 0 00-.793-.169c-.962 0-1.833.832-1.833 3.003 0 2.093.793 2.912 1.833 2.912.286 0 .611-.065.819-.13l.169 1.43z" fill="#9e8236"></path></svg>