<svg viewBox="0 0 40 40" xmlns="http://www.w3.org/2000/svg"><path d="M1.5 5c0-1.733 1.767-3.5 3.5-3.5h30c1.733 0 3.5 1.767 3.5 3.5v26c0 1.733-1.767 3.5-3.5 3.5H6.819L1.5 38.933V5z" fill="#8bb7f0"></path><path d="M35 2c1.458 0 3 1.542 3 3v26c0 1.458-1.542 3-3 3H6.638l-.278.232L2 37.865V5c0-1.458 1.542-3 3-3h30m0-1H5C3 1 1 3 1 5v35l6-5h28c2 0 4-2 4-4V5c0-2-2-4-4-4z" fill="#4e7ab5"></path><circle cx="20" cy="8.955" r="1.696" fill="#fff"></circle><path fill="#fff" d="M21 25V13h-4v2h2v10h-2v2h6v-2z"></path></svg>