<svg viewBox="0 0 40 40" xmlns="http://www.w3.org/2000/svg"><circle cx="34.5" cy="4.5" r="1.5" fill="#36404d"></circle><path fill="#36404d" d="M36 18V8h-4v1h1v9h-1v1h5v-1z"></path><path d="M1.511 38.5c.263-6.11 5.316-11 11.489-11h8c6.173 0 11.227 4.89 11.489 11H1.511z" fill="#8bb7f0"></path><path d="M21 28c5.729 0 10.448 4.401 10.955 10H2.045C2.552 32.401 7.271 28 13 28h8m0-1h-8C6.373 27 1 32.373 1 39h32c0-6.627-5.373-12-12-12z" fill="#4e7ab5"></path><path d="M17 30.5c-3.219 0-4.309-2.102-4.5-2.537V22.5h9v5.464c-.188.43-1.278 2.536-4.5 2.536z" fill="#deb974"></path><path d="M21 23v4.854c-.241.489-1.262 2.146-4 2.146-2.73 0-3.756-1.657-4-2.147V23h8m1-1H12v6.062S13.066 31 17 31s5-2.938 5-2.938V22z" fill="#967a44"></path><path d="M24.143 19.214c-1.3 0-2.357-1.057-2.357-2.356s1.058-2.357 2.357-2.357c1.963 0 2.357.537 2.357 1.404 0 1.413-1.165 3.309-2.357 3.309zm-14.286 0c-1.192 0-2.357-1.896-2.357-3.31 0-.867.394-1.404 2.357-1.404 1.3 0 2.357 1.058 2.357 2.357s-1.057 2.357-2.357 2.357z" fill="#deb974"></path><path d="M24.143 15C26 15 26 15.481 26 15.905c0 1.234-1.041 2.81-1.857 2.81a1.859 1.859 0 01-1.857-1.857A1.86 1.86 0 0124.143 15M9.857 15c1.024 0 1.857.833 1.857 1.857a1.859 1.859 0 01-1.857 1.857C9.041 18.714 8 17.139 8 15.905 8 15.481 8 15 9.857 15m14.286-1a2.857 2.857 0 100 5.714c1.578 0 2.857-2.232 2.857-3.81C27 14.327 25.721 14 24.143 14zM9.857 14C8.279 14 7 14.327 7 15.905s1.279 3.81 2.857 3.81a2.857 2.857 0 100-5.715z" fill="#967a44"></path><g><path d="M17 26.5a2.457 2.457 0 01-1.641-.631l-.09-.079-.117-.029A7.487 7.487 0 019.5 18.5V9.201a3.316 3.316 0 013.312-3.312h8.375a3.315 3.315 0 013.312 3.312V18.5a7.487 7.487 0 01-5.652 7.261l-.117.029-.09.079A2.453 2.453 0 0117 26.5z" fill="#f5ce85"></path><path d="M21.187 6.389A2.816 2.816 0 0124 9.202V18.5a6.988 6.988 0 01-5.275 6.776l-.233.059-.181.159c-.263.231-.703.506-1.311.506s-1.048-.275-1.311-.506l-.181-.159-.233-.059A6.988 6.988 0 0110 18.5V9.202a2.816 2.816 0 012.813-2.813h8.374m0-1h-8.375A3.813 3.813 0 009 9.202V18.5c0 3.737 2.566 6.866 6.029 7.745.528.464 1.213.755 1.971.755s1.443-.291 1.971-.755C22.434 25.366 25 22.237 25 18.5V9.202a3.813 3.813 0 00-3.813-3.813z" fill="#967a44"></path></g><g><path d="M24.5 17.5V14c0-3.635-3.034-5.582-3.163-5.663l-.398-.25-.275.384c-.084.118-2.119 2.886-6.514 2.886-1.15 0-4.65 0-4.65 3.644v2.5h-.179c-.435-.982-1.821-4.333-1.821-7.189 0-5.271 3.617-8.812 9-8.812 3.839 0 4.992 2.585 5.04 2.695l.13.303.33.002c1.671 0 4.5 1.161 4.5 5.515 0 2.621-1.407 6.394-1.838 7.485H24.5z" fill="#a6714e"></path><path d="M16.5 2c3.483 0 4.538 2.297 4.577 2.385l.257.615H22c1.845 0 4 1.313 4 5.015 0 1.536-.507 3.498-1 5.043V14c0-3.909-3.258-5.999-3.397-6.087l-.801-.503-.547.772c-.019.027-1.941 2.674-6.105 2.674C10.733 10.857 9 12.251 9 15v.314c-.491-1.422-1-3.305-1-5.003C8 5.34 11.416 2 16.5 2m0-1C10.681 1 7 4.981 7 10.311 7 13.842 9 18 9 18h1v-3c0-2.668 2.024-3.143 4.15-3.143 4.73 0 6.922-3.097 6.922-3.097S24 10.599 24 14v4h1s2-4.768 2-7.985C27 5.498 24.123 4 22 4c0 0-1.253-3-5.5-3z" fill="#7a4f34"></path></g></svg>