<svg viewBox="0 0 40 40" xmlns="http://www.w3.org/2000/svg"><path d="M20 38.5C9.799 38.5 1.5 30.201 1.5 20S9.799 1.5 20 1.5 38.5 9.799 38.5 20 30.201 38.5 20 38.5z" fill="#8bb7f0"></path><path d="M20 2c9.925 0 18 8.075 18 18s-8.075 18-18 18S2 29.925 2 20 10.075 2 20 2m0-1C9.507 1 1 9.507 1 20s8.507 19 19 19 19-8.507 19-19S30.493 1 20 1z" fill="#4e7ab5"></path><path d="M20 5c8.271 0 15 6.729 15 15s-6.729 15-15 15S5 28.271 5 20 11.729 5 20 5m0-1C11.163 4 4 11.163 4 20s7.163 16 16 16 16-7.163 16-16S28.837 4 20 4z" fill="#c2e8ff"></path><circle cx="20" cy="10.5" r="2.5" fill="#fff"></circle><path fill="#fff" d="M17 15h6v9h-6z"></path><path fill="none" stroke="#fff" stroke-width="2" stroke-miterlimit="10" d="M11 14l7.643 2h2.714L29 14"></path><path fill="#fff" d="M23 23h-2l1 8h2zM17 23h2l-1 8h-2z"></path></svg>