<svg viewBox="0 0 40 40" xmlns="http://www.w3.org/2000/svg"><path fill="#8bb7f0" d="M2.5 2.5h35v35h-35z"></path><path d="M37 3v34H3V3h34m1-1H2v36h36V2z" fill="#4e7ab5"></path><circle cx="19.5" cy="8.5" r="2.5" fill="#fff"></circle><path d="M19 13v7a2 2 0 002 2h3.336a1 1 0 01.922.612L27.522 28H31M19 17h6" fill="none" stroke="#fff" stroke-width="2" stroke-miterlimit="10"></path><g><path d="M24.146 27.709A6.502 6.502 0 0118.5 31a6.508 6.508 0 01-6.5-6.5 6.511 6.511 0 014-5.999v-2.125c-3.471 1.07-6 4.307-6 8.124 0 4.687 3.813 8.5 8.5 8.5a8.486 8.486 0 006.564-3.106l-.918-2.185z" fill="#fff"></path></g></svg>