<svg viewBox="0 0 40 40" xmlns="http://www.w3.org/2000/svg"><path fill="none" stroke="#788b9c" stroke-miterlimit="10" d="M4 35l5-15 5 15M26 35l5-15 5 15M9 20L20 5l11 15"></path><circle cx="20" cy="5" r="3.5" fill="#8bb7f0"></circle><path d="M20 2c1.654 0 3 1.346 3 3s-1.346 3-3 3-3-1.346-3-3 1.346-3 3-3m0-1a4 4 0 100 8 4 4 0 000-8z" fill="#4e7ab5"></path><circle cx="36" cy="35" r="3.5" fill="#8bb7f0"></circle><path d="M36 32c1.654 0 3 1.346 3 3s-1.346 3-3 3-3-1.346-3-3 1.346-3 3-3m0-1a4 4 0 100 8 4 4 0 000-8z" fill="#4e7ab5"></path><circle cx="26" cy="35" r="3.5" fill="#8bb7f0"></circle><path d="M26 32c1.654 0 3 1.346 3 3s-1.346 3-3 3-3-1.346-3-3 1.346-3 3-3m0-1a4 4 0 100 8 4 4 0 000-8z" fill="#4e7ab5"></path><circle cx="31" cy="20" r="3.5" fill="#8bb7f0"></circle><path d="M31 17c1.654 0 3 1.346 3 3s-1.346 3-3 3-3-1.346-3-3 1.346-3 3-3m0-1a4 4 0 100 8 4 4 0 000-8z" fill="#4e7ab5"></path><g><circle cx="9" cy="20" r="3.5" fill="#8bb7f0"></circle><path d="M9 17c1.654 0 3 1.346 3 3s-1.346 3-3 3-3-1.346-3-3 1.346-3 3-3m0-1a4 4 0 100 8 4 4 0 000-8z" fill="#4e7ab5"></path></g><g><circle cx="14" cy="35" r="3.5" fill="#8bb7f0"></circle><path d="M14 32c1.654 0 3 1.346 3 3s-1.346 3-3 3-3-1.346-3-3 1.346-3 3-3m0-1a4 4 0 100 8 4 4 0 000-8z" fill="#4e7ab5"></path></g><g><circle cx="4" cy="35" r="3.5" fill="#8bb7f0"></circle><path d="M4 32c1.654 0 3 1.346 3 3s-1.346 3-3 3-3-1.346-3-3 1.346-3 3-3m0-1a4 4 0 100 8 4 4 0 000-8z" fill="#4e7ab5"></path></g></svg>