<svg viewBox="0 0 40 40" xmlns="http://www.w3.org/2000/svg"><path d="M16.254 6.678l1.271-1.271c1.159-1.221 2.634-1.907 4.45-1.907 1.64 0 3.119.638 4.247 1.657a6.285 6.285 0 012.109-.386c3.245 0 5.892 2.441 6.278 5.581a6.357 6.357 0 013.892 5.859c0 1.164-.336 2.24-.882 3.178.546.938.882 2.014.882 3.178a6.336 6.336 0 01-1.902 4.534l-1.276 1.186" fill="none" stroke="#f75252" stroke-miterlimit="10"></path><path d="M9.354 32.646c-.029-.028-2.599-2.61-2.769-6.583-.12-2.802 12.968-9.123 21.393-12.516l1.726.862 1.643 1.643c-.724.993-2.975 3.988-5.699 6.712-2.978 2.978-6.184 4.482-6.75 4.735h-2.103L14.5 29.793v1.957l-3.453 2.59-1.693-1.694z" fill="#839cb2"></path><path d="M27.958 14.097l1.449.724 1.282 1.282c-.903 1.216-2.956 3.869-5.396 6.309-2.781 2.781-5.768 4.25-6.505 4.588h-2.202l-.293.293-2 2-.293.293V31.5l-2.906 2.18-1.391-1.391c-.025-.024-2.457-2.485-2.619-6.247-.009-.204.206-2.142 10.327-7.187 4.547-2.267 9.165-4.192 10.547-4.758M28 13S5.903 21.852 6.085 26.085C6.266 30.317 9 33 9 33l2 2 4-3v-2l2-2h2s3.619-1.501 7-4.881C29.381 19.738 32 16 32 16l-2.001-2.001L28 13z" fill="#66798f"></path><path d="M9.105 32.382c-.673-.757-2.52-3.125-2.52-6.297v-.207L1.707 21l5.094-5.094-.372-.354c-.01-.01-1.017-.981-.883-2.098.078-.658.542-1.27 1.38-1.821l3.721 3.721c.18.149 1.526 1.146 5.353 1.146s5.173-.997 5.314-1.111l.058-.046.042-.062c.528-.773 2.2-2.781 3.587-2.781 2.875 0 4.105 1.176 4.459 1.606-.185.604-1.063 2.792-4.813 6.541-2.669 2.669-4.673 3.661-6.44 4.537-.877.434-1.705.844-2.497 1.41-.295.211-.966.906-1.687 1.662-.169.178-.305.32-.376.392-2.419 2.417-3.185 3.015-4.542 3.734z" fill="#ffc49c"></path><path d="M6.871 12.286l3.421 3.421.038.038.041.033C10.527 15.903 12.002 17 16 17s5.473-1.097 5.628-1.222l.115-.093.083-.122C22.398 14.727 23.926 13 25 13c2.287 0 3.428.786 3.887 1.224-.312.794-1.347 2.822-4.595 6.069-2.611 2.611-4.576 3.584-6.309 4.442-.895.443-1.741.862-2.565 1.451-.302.216-.829.75-1.757 1.723a42.76 42.76 0 01-.368.383c-2.149 2.149-2.962 2.83-4.07 3.455-.751-.928-2.138-3.001-2.138-5.663v-.414l-.293-.293L2.414 21l4.378-4.378.729-.729-.751-.706c-.008-.008-.827-.82-.728-1.67.048-.423.327-.836.829-1.231M7 11c-3.807 2.197-.915 4.915-.915 4.915L1 21l5.085 5.085C6.085 30.216 9 33 9 33c1.69-.866 2.458-1.458 5-4 .29-.29 1.625-1.732 2-2 2.293-1.639 4.924-1.924 9-6 4.688-4.688 5-7 5-7s-1.186-2-5-2c-1.96 0-4 3-4 3s-1.239 1-5 1-5-1-5-1l-4-4z" fill="#a16a4a"></path><circle cx="8.5" cy="17.5" r="1" fill="#4b6477"></circle><path d="M8.5 17a.5.5 0 110 1 .5.5 0 010-1m0-1a1.5 1.5 0 10.001 3.001A1.5 1.5 0 008.5 16z" fill="#36404d"></path><path fill="none" stroke="#704e34" stroke-linecap="round" stroke-miterlimit="10" d="M11.169 14.644L8.5 17.5"></path><circle cx="16.5" cy="18.5" r="1" fill="#4b6477"></circle><path d="M16.5 18a.5.5 0 110 1 .5.5 0 010-1m0-1a1.5 1.5 0 10.001 3.001A1.5 1.5 0 0016.5 17z" fill="#36404d"></path><path d="M16.5 19a.5.5 0 01-.5-.5v-2.542a.5.5 0 011 0V18.5a.5.5 0 01-.5.5z" fill="#704e34"></path><circle cx="20.5" cy="17.5" r="1" fill="#4b6477"></circle><path d="M20.5 17a.5.5 0 110 1 .5.5 0 010-1m0-1a1.5 1.5 0 10.001 3.001A1.5 1.5 0 0020.5 16z" fill="#36404d"></path><path fill="none" stroke="#704e34" stroke-linecap="round" stroke-miterlimit="10" d="M19.392 15.518L20.5 17.5"></path><g><circle cx="12.5" cy="18.5" r="1" fill="#4b6477"></circle><path d="M12.5 18a.5.5 0 110 1 .5.5 0 010-1m0-1a1.5 1.5 0 10.001 3.001A1.5 1.5 0 0012.5 17z" fill="#36404d"></path></g><path fill="none" stroke="#704e34" stroke-linecap="round" stroke-miterlimit="10" d="M13.712 15.915L12.5 18.5"></path><path d="M13.661 27.91l.116-.121c-2.381-2.264-4.37-2.285-6.744-2.169l.051.051v.414c0 2.662 1.387 4.735 2.138 5.663 1.108-.625 1.922-1.306 4.07-3.455.071-.07.204-.21.369-.383zM28.887 14.226l.001-.002C28.428 13.786 27.287 13 25 13c-.961 0-2.28 1.378-2.958 2.268.178.687.913 2.59 2.746 4.51 2.282-2.362 3.351-4.021 3.83-4.971.106-.234.191-.421.269-.581z" fill="#d19d79"></path></svg>