<svg viewBox="0 0 40 40" xmlns="http://www.w3.org/2000/svg"><path d="M5 13.5c-.827 0-1.5-.673-1.5-1.5V9c0-.827.673-1.5 1.5-1.5h3c.827 0 1.5.673 1.5 1.5v3c0 .827-.673 1.5-1.5 1.5H5z" fill="#bae0bd"></path><path d="M8 8c.551 0 1 .449 1 1v3c0 .551-.449 1-1 1H5c-.551 0-1-.449-1-1V9c0-.551.449-1 1-1h3m0-1H5a2 2 0 00-2 2v3a2 2 0 002 2h3a2 2 0 002-2V9a2 2 0 00-2-2z" fill="#5e9c76"></path><path d="M14 13.5c-.827 0-1.5-.673-1.5-1.5V9c0-.827.673-1.5 1.5-1.5h3c.827 0 1.5.673 1.5 1.5v3c0 .827-.673 1.5-1.5 1.5h-3z" fill="#bae0bd"></path><path d="M17 8c.551 0 1 .449 1 1v3c0 .551-.449 1-1 1h-3c-.551 0-1-.449-1-1V9c0-.551.449-1 1-1h3m0-1h-3a2 2 0 00-2 2v3a2 2 0 002 2h3a2 2 0 002-2V9a2 2 0 00-2-2z" fill="#5e9c76"></path><path d="M23 13.5c-.827 0-1.5-.673-1.5-1.5V9c0-.827.673-1.5 1.5-1.5h3c.827 0 1.5.673 1.5 1.5v3c0 .827-.673 1.5-1.5 1.5h-3z" fill="#bae0bd"></path><path d="M26 8c.551 0 1 .449 1 1v3c0 .551-.449 1-1 1h-3c-.551 0-1-.449-1-1V9c0-.551.449-1 1-1h3m0-1h-3a2 2 0 00-2 2v3a2 2 0 002 2h3a2 2 0 002-2V9a2 2 0 00-2-2z" fill="#5e9c76"></path><path d="M32 13.5c-.827 0-1.5-.673-1.5-1.5V9c0-.827.673-1.5 1.5-1.5h3c.827 0 1.5.673 1.5 1.5v3c0 .827-.673 1.5-1.5 1.5h-3z" fill="#bae0bd"></path><path d="M35 8c.551 0 1 .449 1 1v3c0 .551-.449 1-1 1h-3c-.551 0-1-.449-1-1V9c0-.551.449-1 1-1h3m0-1h-3a2 2 0 00-2 2v3a2 2 0 002 2h3a2 2 0 002-2V9a2 2 0 00-2-2z" fill="#5e9c76"></path><path d="M5 22.5c-.827 0-1.5-.673-1.5-1.5v-3c0-.827.673-1.5 1.5-1.5h3c.827 0 1.5.673 1.5 1.5v3c0 .827-.673 1.5-1.5 1.5H5z" fill="#bae0bd"></path><path d="M8 17c.551 0 1 .449 1 1v3c0 .551-.449 1-1 1H5c-.551 0-1-.449-1-1v-3c0-.551.449-1 1-1h3m0-1H5a2 2 0 00-2 2v3a2 2 0 002 2h3a2 2 0 002-2v-3a2 2 0 00-2-2z" fill="#5e9c76"></path><path d="M14 22.5c-.827 0-1.5-.673-1.5-1.5v-3c0-.827.673-1.5 1.5-1.5h3c.827 0 1.5.673 1.5 1.5v3c0 .827-.673 1.5-1.5 1.5h-3z" fill="#bae0bd"></path><path d="M17 17c.551 0 1 .449 1 1v3c0 .551-.449 1-1 1h-3c-.551 0-1-.449-1-1v-3c0-.551.449-1 1-1h3m0-1h-3a2 2 0 00-2 2v3a2 2 0 002 2h3a2 2 0 002-2v-3a2 2 0 00-2-2z" fill="#5e9c76"></path><g><path d="M23 22.5c-.827 0-1.5-.673-1.5-1.5v-3c0-.827.673-1.5 1.5-1.5h3c.827 0 1.5.673 1.5 1.5v3c0 .827-.673 1.5-1.5 1.5h-3z" fill="#bae0bd"></path><path d="M26 17c.551 0 1 .449 1 1v3c0 .551-.449 1-1 1h-3c-.551 0-1-.449-1-1v-3c0-.551.449-1 1-1h3m0-1h-3a2 2 0 00-2 2v3a2 2 0 002 2h3a2 2 0 002-2v-3a2 2 0 00-2-2z" fill="#5e9c76"></path></g><g><path d="M32 22.5c-.827 0-1.5-.673-1.5-1.5v-3c0-.827.673-1.5 1.5-1.5h3c.827 0 1.5.673 1.5 1.5v3c0 .827-.673 1.5-1.5 1.5h-3z" fill="#bae0bd"></path><path d="M35 17c.551 0 1 .449 1 1v3c0 .551-.449 1-1 1h-3c-.551 0-1-.449-1-1v-3c0-.551.449-1 1-1h3m0-1h-3a2 2 0 00-2 2v3a2 2 0 002 2h3a2 2 0 002-2v-3a2 2 0 00-2-2z" fill="#5e9c76"></path></g><g><path d="M5 31.5c-.827 0-1.5-.673-1.5-1.5v-3c0-.827.673-1.5 1.5-1.5h3c.827 0 1.5.673 1.5 1.5v3c0 .827-.673 1.5-1.5 1.5H5z" fill="#bae0bd"></path><path d="M8 26c.551 0 1 .449 1 1v3c0 .551-.449 1-1 1H5c-.551 0-1-.449-1-1v-3c0-.551.449-1 1-1h3m0-1H5a2 2 0 00-2 2v3a2 2 0 002 2h3a2 2 0 002-2v-3a2 2 0 00-2-2z" fill="#5e9c76"></path></g><g><path d="M14 31.5c-.827 0-1.5-.673-1.5-1.5v-3c0-.827.673-1.5 1.5-1.5h3c.827 0 1.5.673 1.5 1.5v3c0 .827-.673 1.5-1.5 1.5h-3z" fill="#bae0bd"></path><path d="M17 26c.551 0 1 .449 1 1v3c0 .551-.449 1-1 1h-3c-.551 0-1-.449-1-1v-3c0-.551.449-1 1-1h3m0-1h-3a2 2 0 00-2 2v3a2 2 0 002 2h3a2 2 0 002-2v-3a2 2 0 00-2-2z" fill="#5e9c76"></path></g><g><path d="M23 31.5c-.827 0-1.5-.673-1.5-1.5v-3c0-.827.673-1.5 1.5-1.5h3c.827 0 1.5.673 1.5 1.5v3c0 .827-.673 1.5-1.5 1.5h-3z" fill="#bae0bd"></path><path d="M26 26c.551 0 1 .449 1 1v3c0 .551-.449 1-1 1h-3c-.551 0-1-.449-1-1v-3c0-.551.449-1 1-1h3m0-1h-3a2 2 0 00-2 2v3a2 2 0 002 2h3a2 2 0 002-2v-3a2 2 0 00-2-2z" fill="#5e9c76"></path></g><g><path d="M32 31.5c-.827 0-1.5-.673-1.5-1.5v-3c0-.827.673-1.5 1.5-1.5h3c.827 0 1.5.673 1.5 1.5v3c0 .827-.673 1.5-1.5 1.5h-3z" fill="#bae0bd"></path><path d="M35 26c.551 0 1 .449 1 1v3c0 .551-.449 1-1 1h-3c-.551 0-1-.449-1-1v-3c0-.551.449-1 1-1h3m0-1h-3a2 2 0 00-2 2v3a2 2 0 002 2h3a2 2 0 002-2v-3a2 2 0 00-2-2z" fill="#5e9c76"></path></g></svg>