<svg viewBox="0 0 40 40" xmlns="http://www.w3.org/2000/svg"><path d="M30.656 23.206c-.462-.977-1.244-1.525-2.096-1.776-.283-.137-.685-.117-1.125-.044.902-1.325 1.014-3.398-.159-4.571a3.394 3.394 0 00-2.461-.99c1.012-1.334.925-3.25-.291-4.465-1.567-1.567-3.379-.965-4.712.025a3.397 3.397 0 00-.992-2.39 3.419 3.419 0 00-4.821 0L13 10H4c-1.65 0-3 1.35-3 3v12.256c0 .251.032.483.084.701.055 1.687.751 3.183 2.081 4.513l7.249 6.538a6.795 6.795 0 005.046 1.993 6.795 6.795 0 004.596-1.993l.773-.773.015.015 9.037-9.038c1.051-1.051 1.411-2.662.775-4.006z" fill="#ffeea3"></path><path fill="#f5c276" d="M6 11v6l6-6z"></path><path d="M13.656 4.912l1.364-1.364c1.242-1.31 2.825-2.045 4.772-2.045 1.759 0 3.346.684 4.555 1.778a6.741 6.741 0 012.262-.414c3.481 0 6.32 2.618 6.734 5.987a6.819 6.819 0 014.174 6.285c0 1.248-.36 2.402-.946 3.409.586 1.006.946 2.161.946 3.409a6.797 6.797 0 01-2.04 4.863l-1.369 1.273" fill="none" stroke="#f75252" stroke-miterlimit="10"></path><path fill="#ba9b48" d="M14 10.413V8.994L13 10l-7 7v1.414l7.709-7.709z"></path><path d="M30.656 23.206c-.462-.977-1.244-1.525-2.096-1.776a1.23 1.23 0 00-.537-.101c-.182 0-.381.023-.588.057.902-1.325 1.014-3.398-.159-4.571a3.392 3.392 0 00-2.409-.99h-.051c1.012-1.333.925-3.25-.291-4.465-.691-.691-1.43-.96-2.154-.96-.918 0-1.813.432-2.557.986A3.397 3.397 0 0016.41 8c-.873 0-1.747.331-2.41.994L13 10H4c-1.65 0-3 1.35-3 3v12.256c0 .251.032.483.084.701.055 1.687.751 3.183 2.081 4.513l7.249 6.538a6.797 6.797 0 005.046 1.993 6.795 6.795 0 004.596-1.993l.773-.773.015.015 9.037-9.038c1.051-1.051 1.411-2.662.775-4.006zm-1.482 3.299l-8.33 8.331-.015-.015-.707.707-.773.773a5.799 5.799 0 01-4.113 1.704 5.78 5.78 0 01-4.114-1.704l-.018-.018-.019-.017-7.229-6.521c-1.145-1.152-1.725-2.402-1.771-3.821l-.005-.101-.023-.098A1.94 1.94 0 012 25.256V13c0-1.103.897-2 2-2h9.416l.293-.295.998-1.004C15.159 9.249 15.764 9 16.41 9a2.39 2.39 0 012.403 2.39s-.094.922-.782 1.609l-2.03 2.063.707.707 3.24-3.24.461-.343c.484-.36 1.217-.788 1.961-.788.525 0 .998.218 1.447.667.841.841.927 2.196.201 3.153l-.36.489-3.46 3.46.707.707 2.424-2.424c.894-.685 1.536-.627 1.536-.627.648 0 1.253.248 1.702.697.814.814.678 2.364.04 3.302l-.751 1.103-1.419 1.419.707.707 1.193-1.193c.503-.45 1.26-.486 1.26-.486.177-.029.316-.044.425-.044.06 0 .096.005.105.005.002 0 .003 0 .002-.001l.069.033.079.023c.683.201 1.179.62 1.474 1.245.442.931.209 2.085-.577 2.872z" fill="#ba9b48"></path></svg>