<svg viewBox="0 0 40 40" xmlns="http://www.w3.org/2000/svg"><path d="M6 36.5A2.503 2.503 0 013.5 34V6c0-1.378 1.122-2.5 2.5-2.5h28c1.378 0 2.5 1.122 2.5 2.5v28c0 1.378-1.122 2.5-2.5 2.5H6z" fill="#c2e8ff"></path><path d="M34 4c1.103 0 2 .897 2 2v28c0 1.103-.897 2-2 2H6c-1.103 0-2-.897-2-2V6c0-1.103.897-2 2-2h28m0-1H6a3 3 0 00-3 3v28a3 3 0 003 3h28a3 3 0 003-3V6a3 3 0 00-3-3z" fill="#7496c4"></path><path d="M9 11.5c-.827 0-1.5-.673-1.5-1.5V9c0-.827.673-1.5 1.5-1.5h22c.827 0 1.5.673 1.5 1.5v1c0 .827-.673 1.5-1.5 1.5H9z" fill="#bae0bd"></path><path d="M31 8c.551 0 1 .449 1 1v1c0 .551-.449 1-1 1H9c-.551 0-1-.449-1-1V9c0-.551.449-1 1-1h22m0-1H9a2 2 0 00-2 2v1a2 2 0 002 2h22a2 2 0 002-2V9a2 2 0 00-2-2z" fill="#5e9c76"></path><path d="M9 18.5c-.827 0-1.5-.673-1.5-1.5v-1c0-.827.673-1.5 1.5-1.5h22c.827 0 1.5.673 1.5 1.5v1c0 .827-.673 1.5-1.5 1.5H9z" fill="#bae0bd"></path><path d="M31 15c.551 0 1 .449 1 1v1c0 .551-.449 1-1 1H9c-.551 0-1-.449-1-1v-1c0-.551.449-1 1-1h22m0-1H9a2 2 0 00-2 2v1a2 2 0 002 2h22a2 2 0 002-2v-1a2 2 0 00-2-2z" fill="#5e9c76"></path><g><path d="M9 25.5c-.827 0-1.5-.673-1.5-1.5v-1c0-.827.673-1.5 1.5-1.5h22c.827 0 1.5.673 1.5 1.5v1c0 .827-.673 1.5-1.5 1.5H9z" fill="#bae0bd"></path><path d="M31 22c.551 0 1 .449 1 1v1c0 .551-.449 1-1 1H9c-.551 0-1-.449-1-1v-1c0-.551.449-1 1-1h22m0-1H9a2 2 0 00-2 2v1a2 2 0 002 2h22a2 2 0 002-2v-1a2 2 0 00-2-2z" fill="#5e9c76"></path></g><g><path d="M9 32.5c-.827 0-1.5-.673-1.5-1.5v-1c0-.827.673-1.5 1.5-1.5h22c.827 0 1.5.673 1.5 1.5v1c0 .827-.673 1.5-1.5 1.5H9z" fill="#bae0bd"></path><path d="M31 29c.551 0 1 .449 1 1v1c0 .551-.449 1-1 1H9c-.551 0-1-.449-1-1v-1c0-.551.449-1 1-1h22m0-1H9a2 2 0 00-2 2v1a2 2 0 002 2h22a2 2 0 002-2v-1a2 2 0 00-2-2z" fill="#5e9c76"></path></g></svg>