<svg viewBox="0 0 40 40" xmlns="http://www.w3.org/2000/svg"><path d="M1.517 26.5c.258-3.903 3.516-7 7.483-7h6c3.968 0 7.226 3.097 7.483 7H1.517z" fill="#8bb7f0"></path><path d="M15 20c3.52 0 6.442 2.612 6.929 6H2.071C2.558 22.612 5.48 20 9 20h6m0-1H9a8 8 0 00-8 8h22a8 8 0 00-8-8z" fill="#4e7ab5"></path><path d="M12 21.745c-2.668 0-3.381-1.462-3.5-1.765V16.5h7v3.48c-.12.308-.833 1.765-3.5 1.765z" fill="#deb974"></path><path d="M15 17v2.873c-.167.34-.852 1.373-3 1.373-2.166 0-2.844-1.049-3-1.368V17h6m1-1H8v4.064s.628 2.181 4 2.181 4-2.181 4-2.181V16z" fill="#967a44"></path><path d="M12 18.5c-.399 0-.78-.182-1.044-.498l-.105-.126-.159-.039A5.486 5.486 0 016.5 12.5V7.243a2.362 2.362 0 012.359-2.359h6.281a2.362 2.362 0 012.359 2.359V12.5a5.486 5.486 0 01-4.191 5.337l-.159.039-.105.126A1.363 1.363 0 0112 18.5z" fill="#f5ce85"></path><path d="M15.141 5.384c1.025 0 1.859.834 1.859 1.86V12.5a4.983 4.983 0 01-3.81 4.85l-.32.078-.211.253c-.098.12-.316.319-.659.319s-.561-.199-.66-.318l-.211-.253-.32-.078A4.985 4.985 0 017 12.5V7.243c0-1.025.834-1.86 1.859-1.86h6.282m0-.999H8.859A2.859 2.859 0 006 7.243V12.5a5.997 5.997 0 004.572 5.822c.342.411.851.678 1.428.678s1.086-.267 1.428-.678A5.997 5.997 0 0018 12.5V7.243a2.859 2.859 0 00-2.859-2.859z" fill="#967a44"></path><path d="M18.154 18.73c-1.377 0-2.799-1.02-3.483-1.588.688-.646 1.829-2.093 1.829-4.565v-1.64c0-1.808-.946-3.521-.986-3.594l-.33-.591-.469.49c-.015.016-1.553 1.595-4.52 2.27C8.437 9.911 7.5 11.5 7.5 12.494c0 2.521 1.024 3.942 1.635 4.566-.595.58-1.897 1.67-3.288 1.67-1.26 0-2.388-.614-3.009-1.033.707-.588 1.806-1.767 1.806-3.412 0-.69-.031-1.218-.065-1.778A33.192 33.192 0 014.5 10.23c0-5.731 3.579-8.73 7.115-8.73 2.851 0 3.766 1.99 3.774 2.01l.132.298h.325c3.02 0 3.653 3.074 3.653 5.653 0 1.044-.083 1.926-.162 2.779-.075.797-.146 1.55-.146 2.375 0 1.4 1.041 2.198 1.951 2.571-.567.618-1.642 1.544-2.988 1.544z" fill="#a6714e"></path><path d="M11.616 2c2.477 0 3.288 1.653 3.316 1.712l.264.595h.651C17.939 4.308 19 6.042 19 9.461c0 1.02-.082 1.89-.16 2.732-.076.809-.147 1.572-.147 2.421 0 1.319.763 2.182 1.603 2.698-.535.461-1.283.917-2.142.917-.947 0-2.002-.598-2.745-1.142.727-.836 1.591-2.297 1.591-4.51v-1.64c0-1.936-1.007-3.76-1.05-3.837l-.66-1.169-.935.966c-.014.015-1.469 1.491-4.27 2.128C8.072 9.482 7 11.334 7 12.495c0 2.256.786 3.709 1.439 4.526-.618.534-1.596 1.21-2.593 1.21-.828 0-1.605-.306-2.184-.619.708-.726 1.481-1.856 1.481-3.326 0-.709-.032-1.243-.066-1.809A33.244 33.244 0 015 10.231C5 4.827 8.328 2 11.616 2m0-1C7.921 1 4 4.146 4 10.231c0 1.887.143 2.601.143 4.055 0 2.12-2.143 3.407-2.143 3.407s1.734 1.538 3.846 1.538c2.149 0 4.009-2.201 4.009-2.201S8 15.783 8 12.495c0-.71.748-2.141 2.306-2.495 3.17-.721 4.771-2.411 4.771-2.411S16 9.239 16 10.937v1.64c0 3.226-2.101 4.549-2.101 4.549s2.121 2.104 4.255 2.104c2.312 0 3.846-2.308 3.846-2.308s-2.308-.412-2.308-2.308c0-1.685.308-3.117.308-5.154 0-4.431-1.784-6.154-4.154-6.154 0 .002-1.021-2.306-4.23-2.306z" fill="#7a4f34"></path><path d="M9.517 32.5c.258-3.903 3.516-7 7.483-7h6c3.968 0 7.226 3.097 7.483 7H9.517z" fill="#c2e8ff"></path><path d="M23 26c3.52 0 6.442 2.612 6.929 6H10.071c.487-3.388 3.408-6 6.929-6h6m0-1h-6a8 8 0 00-8 8h22a8 8 0 00-8-8z" fill="#7496c4"></path><path d="M20 27.745c-2.668 0-3.381-1.462-3.5-1.765V22.5h7v3.48c-.12.308-.833 1.765-3.5 1.765z" fill="#ffdea3"></path><path d="M23 23v2.873c-.167.34-.852 1.373-3 1.373-2.166 0-2.844-1.049-3-1.368V23h6m1-1h-8v4.064s.628 2.181 4 2.181 4-2.181 4-2.181V22z" fill="#967a44"></path><g><path d="M20 24.5c-.399 0-.78-.182-1.044-.498l-.105-.126-.159-.039a5.484 5.484 0 01-4.191-5.337v-5.257a2.362 2.362 0 012.359-2.359h6.281a2.362 2.362 0 012.359 2.359V18.5a5.486 5.486 0 01-4.191 5.337l-.159.039-.105.126A1.367 1.367 0 0120 24.5z" fill="#ffdea3"></path><path d="M23.141 11.384c1.025 0 1.859.834 1.859 1.86V18.5a4.983 4.983 0 01-3.81 4.85l-.32.078-.211.253c-.098.12-.316.319-.659.319s-.561-.199-.66-.318l-.211-.253-.32-.078A4.985 4.985 0 0115 18.5v-5.257c0-1.025.834-1.86 1.859-1.86h6.282m0-.999H16.86a2.86 2.86 0 00-2.859 2.86V18.5a5.997 5.997 0 004.572 5.822c.341.411.85.678 1.427.678s1.086-.267 1.428-.678A5.997 5.997 0 0026 18.5v-5.257a2.859 2.859 0 00-2.859-2.859z" fill="#967a44"></path></g><g><path d="M26.154 24.73c-1.377 0-2.799-1.02-3.483-1.588.688-.646 1.829-2.093 1.829-4.565v-1.64c0-1.808-.946-3.521-.986-3.594l-.33-.591-.469.49c-.015.016-1.553 1.595-4.52 2.27-1.758.399-2.695 1.988-2.695 2.982 0 2.521 1.024 3.942 1.635 4.566-.595.58-1.897 1.67-3.288 1.67-1.26 0-2.388-.614-3.009-1.033.707-.588 1.806-1.767 1.806-3.412 0-.69-.031-1.218-.065-1.778a33.192 33.192 0 01-.079-2.277c0-5.731 3.579-8.73 7.115-8.73 2.851 0 3.766 1.99 3.774 2.01l.132.298h.325c3.02 0 3.653 3.074 3.653 5.653 0 1.044-.083 1.926-.162 2.779-.075.797-.146 1.55-.146 2.375 0 1.4 1.041 2.198 1.951 2.571-.567.618-1.642 1.544-2.988 1.544z" fill="#f5ce85"></path><path d="M19.616 8c2.477 0 3.288 1.653 3.316 1.712l.263.595h.651c2.093 0 3.154 1.734 3.154 5.154 0 1.02-.082 1.89-.16 2.732-.076.809-.147 1.572-.147 2.421 0 1.319.763 2.182 1.604 2.698-.535.461-1.283.917-2.142.917-.947 0-2.002-.598-2.745-1.142.726-.836 1.59-2.297 1.59-4.51v-1.64c0-1.936-1.007-3.76-1.05-3.837l-.66-1.169-.935.966c-.014.015-1.469 1.491-4.27 2.128-2.013.457-3.085 2.309-3.085 3.47 0 2.258.787 3.711 1.44 4.528-.66.565-1.644 1.208-2.594 1.208-.828 0-1.605-.306-2.184-.619.708-.726 1.481-1.856 1.481-3.326 0-.709-.032-1.243-.066-1.809A33.244 33.244 0 0113 16.231C13 10.827 16.328 8 19.616 8m0-1C15.921 7 12 10.146 12 16.231c0 1.887.143 2.601.143 4.055 0 2.12-2.143 3.407-2.143 3.407s1.734 1.538 3.846 1.538c2.149 0 4.009-2.201 4.009-2.201S16 21.783 16 18.495c0-.71.748-2.141 2.306-2.495 3.17-.721 4.771-2.411 4.771-2.411s.923 1.65.923 3.348v1.64c0 3.226-2.101 4.549-2.101 4.549s2.121 2.104 4.255 2.104c2.312 0 3.846-2.308 3.846-2.308s-2.308-.412-2.308-2.308c0-1.685.308-3.117.308-5.154 0-4.431-1.784-6.154-4.154-6.154 0 .002-1.021-2.306-4.23-2.306z" fill="#967a44"></path></g><g><path d="M31 39.5c-4.687 0-8.5-3.813-8.5-8.5s3.813-8.5 8.5-8.5 8.5 3.813 8.5 8.5-3.813 8.5-8.5 8.5z" fill="#bae0bd"></path><path d="M31 23c4.411 0 8 3.589 8 8s-3.589 8-8 8-8-3.589-8-8 3.589-8 8-8m0-1c-4.971 0-9 4.029-9 9s4.029 9 9 9 9-4.029 9-9-4.029-9-9-9z" fill="#5e9c76"></path></g><path fill="none" stroke="#fff" stroke-width="2" stroke-miterlimit="10" d="M31 36V26M26 31h10"></path></svg>