<svg viewBox="0 0 40 40" xmlns="http://www.w3.org/2000/svg"><path fill="#fff" d="M6.5 37.5v-35h18.293l8.707 8.707V37.5z"></path><path d="M24.586 3L33 11.414V37H7V3h17.586M25 2H6v36h28V11l-9-9z" fill="#788b9c"></path><path d="M23.189 38H34V20.941c-.327-.097-.66-.179-1-.245V37H22.39c.245.351.514.682.799 1z" fill="#c5d4de"></path><path fill="#fff" d="M24.5 11.5v-9h.293l8.707 8.707v.293z"></path><path d="M25 3.414L32.586 11H25V3.414M25 2h-1v10h10v-1l-9-9zM15 16h13v1H15zM15 19h9v1h-9zM15 22h13v1H15zM15 28h13v1H15zM15 25h9v1h-9z" fill="#788b9c"></path><g fill="#bcc9d6"><path d="M28 23v-1h-2.388c-.495.297-.966.628-1.404 1H28zM28 29v-1h-7.059c-.097.327-.179.66-.245 1H28zM24 26v-1h-1.61c-.225.322-.437.653-.625 1H24z"></path></g><circle cx="31" cy="31" r="8.5" fill="#bae0bd"></circle><path d="M31 23c4.411 0 8 3.589 8 8s-3.589 8-8 8-8-3.589-8-8 3.589-8 8-8m0-1c-4.971 0-9 4.029-9 9s4.029 9 9 9 9-4.029 9-9-4.029-9-9-9z" fill="#5e9c76"></path><path fill="none" stroke="#fff" stroke-width="2" stroke-miterlimit="10" d="M31 36V26M26 31h10"></path><circle cx="12.5" cy="16.5" r=".75" fill="#c74343"></circle><circle cx="12.5" cy="19.5" r=".75" fill="#c74343"></circle><g><circle cx="12.5" cy="22.5" r=".75" fill="#c74343"></circle></g><g><circle cx="12.5" cy="25.5" r=".75" fill="#c74343"></circle></g><g><circle cx="12.5" cy="28.5" r=".75" fill="#c74343"></circle></g></svg>