<svg viewBox="0 0 40 40" xmlns="http://www.w3.org/2000/svg"><path d="M2.5 35.5v-33h35V35a.5.5 0 01-.5.5H2.5z" fill="#fff"></path><path d="M37 3v32H3V3h34m1-1H2v34h35a1 1 0 001-1V2z" fill="#788b9c"></path><path fill="#788b9c" d="M2 2h36v6H2z"></path><path fill="none" stroke="#8bb7f0" stroke-miterlimit="10" d="M13 15.5h18M9 15.5h1M13 19.5h18M9 19.5h1M13 23.5h18M9 23.5h1M13 27.5h18M9 27.5h1"></path><g fill="#c2e8ff"><path d="M22.514 24H31v-1h-7.535c-.335.316-.657.645-.951 1zM20.425 28H31v-1H20.761c-.127.326-.24.659-.336 1z"></path></g><path d="M21.21 36H38V23.292c-.402-.402-.656-.905-1-1.081V35H20.761c.134.342.283.676.449 1z" fill="#c8d1db"></path><circle cx="31" cy="31" r="8.5" fill="#bae0bd"></circle><path d="M31 23c4.411 0 8 3.589 8 8s-3.589 8-8 8-8-3.589-8-8 3.589-8 8-8m0-1c-4.971 0-9 4.029-9 9s4.029 9 9 9 9-4.029 9-9-4.029-9-9-9z" fill="#5e9c76"></path><path fill="none" stroke="#fff" stroke-width="2" stroke-miterlimit="10" d="M31 36V26M26 31h10"></path></svg>