<svg viewBox="0 0 40 40" xmlns="http://www.w3.org/2000/svg"><path d="M17.519 38.475c-.591 0-1.147-.23-1.566-.648L2.148 24.022a2.218 2.218 0 010-3.132L20.54 2.524A3.476 3.476 0 0123.013 1.5H35c1.93 0 3.5 1.57 3.5 3.5v12.008c0 .937-.365 1.816-1.028 2.478l-18.387 18.34a2.2 2.2 0 01-1.566.649zM33.143 4.857c-1.103 0-2 .897-2 2s.897 2 2 2 2-.897 2-2-.897-2-2-2z" fill="#f5ce85"></path><path d="M35 2c1.654 0 3 1.346 3 3v12.008a2.98 2.98 0 01-.881 2.124L18.731 37.473a1.702 1.702 0 01-1.212.502c-.458 0-.888-.178-1.212-.502L2.502 23.669a1.717 1.717 0 010-2.424L20.893 2.877A2.982 2.982 0 0123.013 2H35m-1.857 7.357c1.379 0 2.5-1.122 2.5-2.5s-1.121-2.5-2.5-2.5c-1.378 0-2.5 1.122-2.5 2.5s1.121 2.5 2.5 2.5M35 1H23.013c-1.06 0-2.077.421-2.827 1.17L1.795 20.537a2.715 2.715 0 000 3.839L15.599 38.18c.53.53 1.225.795 1.919.795.695 0 1.389-.265 1.919-.795l18.387-18.34A3.997 3.997 0 0039 17.008V5a4 4 0 00-4-4zm-1.857 7.357a1.5 1.5 0 11.001-3.001 1.5 1.5 0 01-.001 3.001z" fill="#967a44"></path><circle cx="31" cy="31" r="8.5" fill="#bae0bd"></circle><path d="M31 23c4.411 0 8 3.589 8 8s-3.589 8-8 8-8-3.589-8-8 3.589-8 8-8m0-1c-4.971 0-9 4.029-9 9s4.029 9 9 9 9-4.029 9-9-4.029-9-9-9z" fill="#5e9c76"></path><path fill="none" stroke="#fff" stroke-width="2" stroke-miterlimit="10" d="M31 36V26M26 31h10"></path></svg>