<svg viewBox="0 0 40 40" xmlns="http://www.w3.org/2000/svg"><path fill="#ffeea3" d="M20 32.004L8.3 38.112l2.193-13.015-9.425-9.24 13.056-1.935L20 2.102l5.876 11.82 13.056 1.935-9.425 9.24L31.7 38.112z"></path><path d="M20 3.225l5.311 10.685.232.468.516.077 11.803 1.749-8.521 8.353-.373.365.087.515 1.984 11.766-10.577-5.522L20 31.44l-.463.242L8.96 37.204l1.984-11.766.087-.515-.373-.365-8.521-8.353 11.803-1.749.516-.077.232-.468L20 3.225m0-2.246l-6.207 12.486L0 15.51l9.957 9.761-2.318 13.75L20 32.568l12.361 6.453-2.318-13.75L40 15.51l-13.793-2.044L20 .979z" fill="#ba9b48"></path><path fill="none" stroke="#5e9c76" stroke-width="2" stroke-miterlimit="10" d="M14 22h12M20 16v12"></path></svg>