<svg viewBox="0 0 40 40" xmlns="http://www.w3.org/2000/svg"><path d="M1.5 35.5v-31h37v29.978c0 .563-.458 1.022-1.022 1.022H1.5z" fill="#fff"></path><path d="M38 5v29.478a.522.522 0 01-.522.522H2V5h36m1-1H1v32h36.478c.841 0 1.522-.681 1.522-1.522V4z" fill="#788b9c"></path><path fill="#b5deff" d="M6 9h28v17.875H6z"></path><path fill="#d9f6ff" d="M6 19h28v8H6z"></path><path fill="#7aadf0" d="M6 27h28v4H6z"></path><ellipse cx="14.75" cy="18.143" rx="3.5" ry="3.143" fill="#d9f6ff"/><ellipse cx="11.25" cy="18.143" rx="2.625" ry="2.357" fill="#d9f6ff"/><ellipse cx="20" cy="19.714" rx="3.5" ry="3.143" fill="#d9f6ff"/><ellipse cx="25.25" cy="18.143" rx="3.5" ry="3.143" fill="#d9f6ff"/><ellipse cx="32.25" cy="18.143" rx="1.75" ry="1.571" fill="#d9f6ff"/><ellipse cx="7.75" cy="18.143" rx="1.75" ry="1.571" fill="#d9f6ff"/><ellipse cx="28.75" cy="18.143" rx="2.625" ry="2.357" fill="#d9f6ff"/><path fill="#4a6d9c" d="M6 27h28v-1.616L25.25 20z"></path><path fill="#5d84b8" d="M27 27H6v-4l8.75-4z"></path><circle cx="31" cy="31" r="8.5" fill="#bae0bd"></circle><path d="M31 23c4.411 0 8 3.589 8 8s-3.589 8-8 8-8-3.589-8-8 3.589-8 8-8m0-1c-4.971 0-9 4.029-9 9s4.029 9 9 9 9-4.029 9-9-4.029-9-9-9z" fill="#5e9c76"></path><path fill="none" stroke="#fff" stroke-width="2" stroke-miterlimit="10" d="M31 36V26M26 31h10"></path></svg>