<svg viewBox="0 0 40 40" xmlns="http://www.w3.org/2000/svg"><path d="M10.325 33.788a2.931 2.931 0 00.536-1.697 2.93 2.93 0 00-.865-2.087 2.931 2.931 0 00-2.086-.864c-.616 0-1.204.188-1.697.536L1.72 25.182 25.182 1.719l4.494 4.493a2.931 2.931 0 00-.536 1.697c0 .789.307 1.529.865 2.087a2.931 2.931 0 002.086.864c.616 0 1.204-.188 1.697-.536l4.493 4.494-23.463 23.463-4.493-4.493z" fill="#f5ce85"></path><path d="M25.182 2.439l3.85 3.85a3.442 3.442 0 00-.401 1.62c0 .924.36 1.793 1.013 2.447a3.438 3.438 0 002.447 1.013c.574 0 1.127-.139 1.62-.401l3.85 3.85-22.743 22.743-3.85-3.85a3.442 3.442 0 00.401-1.62c0-.924-.36-1.793-1.013-2.447a3.434 3.434 0 00-2.447-1.013c-.574 0-1.127.139-1.62.401l-3.85-3.85L25.182 2.439m0-1.439L1 25.182l5.182 5.182c.477-.477 1.102-.715 1.727-.715s1.25.238 1.727.715a2.443 2.443 0 010 3.455L14.818 39 39 14.818l-5.182-5.182a2.434 2.434 0 01-1.727.715 2.443 2.443 0 01-1.727-4.17L25.182 1z" fill="#967a44"></path><circle cx="31" cy="31" r="8.5" fill="#bae0bd"></circle><path d="M31 23c4.411 0 8 3.589 8 8s-3.589 8-8 8-8-3.589-8-8 3.589-8 8-8m0-1c-4.971 0-9 4.029-9 9s4.029 9 9 9 9-4.029 9-9-4.029-9-9-9z" fill="#5e9c76"></path><path fill="none" stroke="#fff" stroke-width="2" stroke-miterlimit="10" d="M31 36V26M26 31h10"></path></svg>