<svg viewBox="0 0 40 40" xmlns="http://www.w3.org/2000/svg"><path d="M1.5 35.5v-31h10.293l3 3H38.5V34c0 .827-.673 1.5-1.5 1.5H1.5z" fill="#dbb065"></path><path d="M11.586 5l2.707 2.707.293.293H38v26c0 .551-.449 1-1 1H2V5h9.586M12 4H1v32h36a2 2 0 002-2V7H15l-3-3z" fill="#967a44"></path><path d="M1.5 35.5v-26h10.651l3-2H38.5V34c0 .827-.673 1.5-1.5 1.5H1.5z" fill="#f5ce85"></path><path d="M38 8v26c0 .551-.449 1-1 1H2V10h10.303l.252-.168L15.303 8H38m1-1H15l-3 2H1v27h36a2 2 0 002-2V7z" fill="#967a44"></path><circle cx="31" cy="31" r="8.5" fill="#bae0bd"></circle><path d="M31 23c4.411 0 8 3.589 8 8s-3.589 8-8 8-8-3.589-8-8 3.589-8 8-8m0-1c-4.971 0-9 4.029-9 9s4.029 9 9 9 9-4.029 9-9-4.029-9-9-9z" fill="#5e9c76"></path><path fill="none" stroke="#fff" stroke-width="2" stroke-miterlimit="10" d="M31 36V26M26 31h10"></path></svg>