<svg viewBox="0 0 40 40" xmlns="http://www.w3.org/2000/svg"><path d="M1.512 36.5c.268-5.559 4.982-10 10.738-10h7.5c5.756 0 10.47 4.441 10.738 10H1.512z" fill="#8bb7f0"></path><path d="M19.75 27c5.306 0 9.683 3.954 10.199 9H2.051c.516-5.046 4.893-9 10.199-9h7.5m0-1h-7.5C6.037 26 1 30.925 1 37h30c0-6.075-5.037-11-11.25-11z" fill="#4e7ab5"></path><path d="M16 29.5c-3.076 0-4.296-2.625-4.5-3.122v-5.469h9v5.469c-.204.497-1.424 3.122-4.5 3.122z" fill="#deb974"></path><path d="M20 21.41v4.865c-.263.59-1.393 2.725-4 2.725-2.611 0-3.741-2.141-4-2.725V21.41h8m1-1H11v6.062s1.267 3.529 5 3.529 5-3.529 5-3.529V20.41z" fill="#967a44"></path><path d="M16 25.5a2.457 2.457 0 01-1.641-.631l-.09-.079-.117-.029A7.487 7.487 0 018.5 17.5V8.201a3.316 3.316 0 013.312-3.312h8.375A3.316 3.316 0 0123.5 8.201V17.5a7.487 7.487 0 01-5.652 7.261l-.117.029-.09.079A2.457 2.457 0 0116 25.5z" fill="#f5ce85"></path><path d="M20.187 5.389A2.816 2.816 0 0123 8.202V17.5a6.988 6.988 0 01-5.275 6.776l-.233.059-.181.159c-.263.231-.703.506-1.311.506s-1.048-.275-1.311-.506l-.181-.159-.233-.059A6.988 6.988 0 019 17.5V8.202a2.816 2.816 0 012.813-2.813h8.374m0-1h-8.375A3.813 3.813 0 008 8.202V17.5c0 3.737 2.566 6.866 6.029 7.745.528.464 1.213.755 1.971.755s1.443-.291 1.971-.755C21.434 24.366 24 21.237 24 17.5V8.202a3.813 3.813 0 00-3.813-3.813z" fill="#967a44"></path><path d="M24 25.5c-1.767 0-3.411-.911-4.27-1.484 1.045-.658 2.77-2.223 2.77-5.373v-4.724c0-2.41-2.086-4.223-2.175-4.299l-.43-.368-.312.473c-.021.032-2.135 3.156-6.651 3.78-2.358.325-3.432 2.109-3.432 3.629v1.509c0 3.193 1.708 4.734 2.757 5.381C11.398 24.597 9.764 25.5 8 25.5c-1.786 0-3.378-.935-4.16-1.484.882-.695 2.445-2.24 2.445-4.444 0-.928-.176-1.909-.362-2.948C5.715 15.463 5.5 14.263 5.5 13c0-8.488 5.387-11.5 10-11.5 3.802 0 5.031 2.676 5.043 2.702l.131.298H21c3.495 0 5.5 2.733 5.5 7.5 0 1.342-.268 2.836-.528 4.281-.243 1.353-.472 2.631-.472 3.719 0 1.845 1.459 2.852 2.642 3.281-.708.811-2.214 2.219-4.142 2.219z" fill="#a6714e"></path><path d="M15.5 2c3.427 0 4.543 2.315 4.586 2.405l.263.595H21c3.224 0 5 2.486 5 7 0 1.298-.264 2.769-.52 4.193C25.233 17.569 25 18.868 25 20c0 1.764 1.141 2.855 2.289 3.45C26.545 24.165 25.38 25 24 25c-1.274 0-2.497-.524-3.357-1.01C21.732 23.107 23 21.472 23 18.643v-4.724c0-2.638-2.254-4.596-2.35-4.678l-.864-.739-.623.951c-.019.03-1.985 2.961-6.3 3.557C10.209 13.376 9 15.404 9 17.133v1.509c0 2.86 1.252 4.486 2.339 5.359C10.485 24.484 9.273 25 8 25c-1.313 0-2.525-.556-3.331-1.041.942-.88 2.117-2.379 2.117-4.388 0-.972-.18-1.975-.37-3.036C6.211 15.396 6 14.218 6 13c0-8.119 5.118-11 9.5-11m0-1C10.212 1 5 4.694 5 13c0 2.454.786 4.682.786 6.571C5.786 22.327 3 24 3 24s2.254 2 5 2c2.794 0 5.211-2.056 5.211-2.056S10 22.918 10 18.643v-1.509c0-1.354.942-2.849 3-3.134 4.816-.665 7-4 7-4s2 1.711 2 3.919v4.724c0 4.194-3.214 5.302-3.214 5.302S21.225 26 24 26c3.005 0 5-3 5-3s-3-.535-3-3c0-2.19 1-5.352 1-8 0-5.761-2.766-8-6-8 0 0-1.328-3-5.5-3z" fill="#7a4f34"></path><g><path d="M31 39.5c-4.687 0-8.5-3.813-8.5-8.5s3.813-8.5 8.5-8.5 8.5 3.813 8.5 8.5-3.813 8.5-8.5 8.5z" fill="#bae0bd"></path><path d="M31 23c4.411 0 8 3.589 8 8s-3.589 8-8 8-8-3.589-8-8 3.589-8 8-8m0-1a9 9 0 00-9 9c0 4.971 4.029 9 9 9s9-4.029 9-9a9 9 0 00-9-9z" fill="#5e9c76"></path></g><path fill="none" stroke="#fff" stroke-width="2" stroke-miterlimit="10" d="M31 36V26M26 31h10"></path></svg>