<svg viewBox="0 0 40 40" xmlns="http://www.w3.org/2000/svg"><path d="M20 38.5C9.799 38.5 1.5 30.201 1.5 20S9.799 1.5 20 1.5 38.5 9.799 38.5 20 30.201 38.5 20 38.5z" fill="#b0c1d4"></path><path d="M20 2c9.925 0 18 8.075 18 18s-8.075 18-18 18S2 29.925 2 20 10.075 2 20 2m0-1C9.507 1 1 9.507 1 20s8.507 19 19 19 19-8.507 19-19S30.493 1 20 1z" fill="#66798f"></path><path d="M29.108 28.399h-3.552l-1.755-4.967h-7.674l-1.687 4.967h-3.538l7.307-19.512h3.647l7.252 19.512zm-6.164-7.606l-2.708-7.783c-.082-.254-.168-.662-.258-1.225h-.054a8.133 8.133 0 01-.272 1.225l-2.68 7.783h5.972z" fill="#fff"></path></svg>