<svg viewBox="0 0 40 40" xmlns="http://www.w3.org/2000/svg"><path d="M33.5 15.5v-9H37a.5.5 0 01.5.5v8a.5.5 0 01-.5.5h-3.5z" fill="#bae0bd"></path><path d="M37 7v8h-3V7h3m0-1h-4v10h4a1 1 0 001-1V7a1 1 0 00-1-1z" fill="#5e9c76"></path><path d="M33.5 24.5v-9H37a.5.5 0 01.5.5v8a.5.5 0 01-.5.5h-3.5z" fill="#8bb7f0"></path><path d="M37 16v8h-3v-8h3m0-1h-4v10h4a1 1 0 001-1v-8a1 1 0 00-1-1z" fill="#4e7ab5"></path><path d="M33.5 33.5v-9H37a.5.5 0 01.5.5v8a.5.5 0 01-.5.5h-3.5z" fill="#dcd5f2"></path><path d="M37 25v8h-3v-8h3m0-1h-4v10h4a1 1 0 001-1v-8a1 1 0 00-1-1z" fill="#8b75a1"></path><g><path d="M5.5 37.5v-35H34a.5.5 0 01.5.5v34a.5.5 0 01-.5.5H5.5z" fill="#ffc49c"></path><path d="M34 3v34H6V3h28m0-1H5v36h29a1 1 0 001-1V3a1 1 0 00-1-1z" fill="#a16a4a"></path></g><g><path d="M8 38H4a1 1 0 01-1-1V3a1 1 0 011-1h4v36z" fill="#a16a4a"></path></g><g><path d="M22.631 23.301h-.049c-.466 1.392-1.379 2.087-2.738 2.087-.867 0-1.567-.325-2.097-.976-.531-.65-.796-1.526-.796-2.626 0-1.456.364-2.667 1.092-3.631s1.688-1.447 2.879-1.447c.453 0 .858.125 1.214.374s.586.549.689.898h.029c.019-.181.068-.553.146-1.117h1.612a627.22 627.22 0 00-.456 5.223c0 1.282.333 1.922 1 1.922.608 0 1.113-.358 1.515-1.073.401-.715.602-1.642.602-2.782 0-1.683-.542-3.057-1.626-4.121-1.084-1.065-2.587-1.597-4.51-1.597-1.845 0-3.372.644-4.583 1.932-1.21 1.288-1.816 2.9-1.816 4.835 0 1.909.583 3.45 1.748 4.621 1.165 1.171 2.734 1.757 4.709 1.757 1.553 0 2.883-.266 3.99-.796v1.495c-1.133.482-2.548.721-4.243.721-2.382 0-4.301-.712-5.757-2.136C13.728 25.44 13 23.576 13 21.272c0-2.369.77-4.333 2.311-5.893 1.54-1.56 3.508-2.34 5.903-2.34 2.246 0 4.105.654 5.578 1.961S29 18.013 29 20.117c0 1.54-.4 2.804-1.199 3.791-.8.987-1.775 1.481-2.927 1.481-1.489-.001-2.237-.696-2.243-2.088zm-1.544-5.214c-.712 0-1.286.35-1.723 1.049-.437.699-.655 1.569-.655 2.612 0 .699.147 1.251.442 1.655s.688.607 1.18.607c.712 0 1.275-.367 1.689-1.102.414-.734.621-1.707.621-2.917 0-1.269-.518-1.904-1.554-1.904z" fill="#a16a4a"></path></g></svg>