<svg viewBox="0 0 40 40" xmlns="http://www.w3.org/2000/svg"><path d="M4.511 38.5c.263-6.11 5.315-11 11.489-11h8c6.174 0 11.227 4.89 11.489 11H4.511z" fill="#c2e8ff"></path><path d="M24 28c5.729 0 10.448 4.401 10.955 10H5.045C5.552 32.401 10.271 28 16 28h8m0-1h-8C9.373 27 4 32.373 4 39h32c0-6.627-5.373-12-12-12z" fill="#7496c4"></path><path d="M24.401 33.508c-.353 0-.686-.125-.962-.362L20 30.198l-3.439 2.949a1.463 1.463 0 01-.962.361c-.656 0-1.403-.47-1.493-1.34l-.458-4.414A11.34 11.34 0 0116 27.5h8c.767 0 1.556.085 2.353.254l-.458 4.414c-.09.871-.837 1.34-1.494 1.34z" fill="#c2e8ff"></path><path d="M24 28c.59 0 1.195.053 1.808.159l-.41 3.958c-.06.579-.558.892-.996.892a.968.968 0 01-.636-.241l-3.115-2.67-.651-.559-.651.558-3.115 2.67a.963.963 0 01-.636.241c-.438 0-.936-.313-.996-.892l-.41-3.958A10.719 10.719 0 0116 28h8m0-1h-8c-1 0-1.966.136-2.895.366l.503 4.853c.113 1.091 1.031 1.789 1.99 1.789.446 0 .9-.151 1.287-.482L20 30.856l3.115 2.67c.387.332.841.482 1.287.482.959 0 1.877-.698 1.99-1.789l.503-4.853A12.015 12.015 0 0024 27z" fill="#7496c4"></path><path fill="#deb974" d="M15.5 27.819V22.5h9v5.319L20 31.364z"></path><path d="M24 23v4.577l-4 3.151-4-3.151V23h8m1-1H15v6.062L20 32l5-3.938V22z" fill="#967a44"></path><path fill="#4e7ab5" d="M22.601 29.619L20 30.305l-2.599-.682L19 33l-2 6h6l-2-6z"></path><g><path d="M20 25.5a2.464 2.464 0 01-1.642-.63l-.091-.08-.116-.03A7.486 7.486 0 0112.5 17.5V8.202a3.316 3.316 0 013.312-3.313h8.375a3.316 3.316 0 013.312 3.313V17.5a7.486 7.486 0 01-5.651 7.26l-.116.03-.091.08A2.458 2.458 0 0120 25.5z" fill="#f5ce85"></path><path d="M24.188 5.389A2.816 2.816 0 0127 8.202V17.5a6.988 6.988 0 01-5.275 6.776l-.233.059-.181.159c-.262.231-.703.506-1.311.506s-1.048-.275-1.311-.506l-.181-.159-.233-.059A6.988 6.988 0 0113 17.5V8.202a2.816 2.816 0 012.813-2.813h8.375m0-1h-8.375A3.813 3.813 0 0012 8.202V17.5c0 3.737 2.566 6.866 6.029 7.745.528.464 1.213.755 1.971.755s1.443-.291 1.971-.755C25.435 24.366 28 21.237 28 17.5V8.202a3.813 3.813 0 00-3.812-3.813z" fill="#967a44"></path></g><g><path d="M28 25.5c-1.76 0-3.407-.912-4.269-1.485 1.046-.659 2.769-2.223 2.769-5.373v-4.724c0-2.41-2.086-4.223-2.175-4.298l-.43-.368-.313.473c-.021.031-2.135 3.156-6.65 3.78-2.357.325-3.432 2.109-3.432 3.628v1.509c0 3.193 1.707 4.735 2.757 5.38-.858.574-2.493 1.478-4.257 1.478-1.793 0-3.382-.935-4.16-1.483.881-.695 2.445-2.24 2.445-4.445 0-.928-.176-1.909-.362-2.948C9.715 15.462 9.5 14.262 9.5 13c0-8.488 5.387-11.5 10-11.5 3.803 0 5.031 2.675 5.043 2.703l.132.297H25c3.495 0 5.5 2.733 5.5 7.5 0 1.342-.269 2.836-.527 4.281-.243 1.353-.473 2.632-.473 3.719 0 1.844 1.459 2.852 2.643 3.281-.708.811-2.215 2.219-4.143 2.219z" fill="#a6714e"></path><path d="M19.5 2c3.427 0 4.544 2.315 4.586 2.405l.263.595H25c3.224 0 5 2.486 5 7 0 1.298-.264 2.769-.52 4.193C29.234 17.569 29 18.868 29 20c0 1.765 1.143 2.857 2.292 3.452C30.551 24.167 29.389 25 28 25c-1.274 0-2.497-.524-3.357-1.01C25.732 23.107 27 21.472 27 18.643v-4.724c0-2.638-2.254-4.596-2.35-4.678l-.858-.728-.626.936c-.081.121-2.03 2.971-6.303 3.561-2.654.366-3.863 2.394-3.863 4.123v1.509c0 2.863 1.254 4.489 2.342 5.361-.851.483-2.06.997-3.342.997-1.313 0-2.525-.556-3.331-1.041.942-.88 2.117-2.379 2.117-4.388 0-.972-.18-1.975-.37-3.036C10.211 15.396 10 14.218 10 13c0-8.119 5.118-11 9.5-11m0-1C14.212 1 9 4.694 9 13c0 2.454.786 4.682.786 6.571C9.786 22.327 7 24 7 24s2.254 2 5 2c2.794 0 5.211-2.056 5.211-2.056S14 22.918 14 18.643v-1.509c0-1.354.942-2.849 3-3.134 4.816-.665 7-4 7-4s2 1.711 2 3.919v4.724c0 4.194-3.214 5.302-3.214 5.302S25.226 26 28 26c3.005 0 5-3 5-3s-3-.535-3-3c0-2.19 1-5.352 1-8 0-5.761-2.766-8-6-8 0 0-1.328-3-5.5-3z" fill="#7a4f34"></path></g></svg>