<svg viewBox="0 0 40 40" xmlns="http://www.w3.org/2000/svg"><path fill="#8bb7f0" d="M29.5 23.5h-13v-7h13v-4.377L38.252 20 29.5 27.877z"></path><path d="M30 13.245L37.505 20 30 26.755V23H17v-6h13v-3.755M29 11v5H16v8h13v5l10-9-10-9z" fill="#4e7ab5"></path><path fill="#8bb7f0" d="M6.5 16.5h2v7h-2z"></path><path d="M8 17v6H7v-6h1m1-1H6v8h3v-8z" fill="#4e7ab5"></path><g><path fill="#8bb7f0" d="M11.5 16.5h2v7h-2z"></path><path d="M13 17v6h-1v-6h1m1-1h-3v8h3v-8z" fill="#4e7ab5"></path></g><g><path fill="#8bb7f0" d="M1.5 16.5h2v7h-2z"></path><path d="M3 17v6H2v-6h1m1-1H1v8h3v-8z" fill="#4e7ab5"></path></g></svg>