<svg viewBox="0 0 40 40" xmlns="http://www.w3.org/2000/svg"><path d="M12.316 29.5v-5.786h4.214l.952 4.76a.856.856 0 01-.839 1.026h-4.327z" fill="#f78f8f"></path><path d="M16.121 24.214l.872 4.359a.35.35 0 01-.074.296.354.354 0 01-.277.131h-3.826v-4.786h3.305m.82-1h-5.124V30h4.826c.856 0 1.499-.784 1.331-1.623l-1.033-5.163z" fill="#c74343"></path><path d="M33.5 20.5v-5H36c1.378 0 2.5 1.122 2.5 2.5s-1.122 2.5-2.5 2.5h-2.5z" fill="#8bb7f0"></path><path d="M36 16c1.103 0 2 .897 2 2s-.897 2-2 2h-2v-4h2m0-1h-3v6h3a3 3 0 100-6z" fill="#4e7ab5"></path><path d="M12.115 37.5a2.222 2.222 0 01-2.205-2.077c-.361-5.438-1.483-9.417-3.338-11.852h7.217c.053 5.397.974 7.059 1.79 8.53.319.575.62 1.118.835 1.861a2.2 2.2 0 01-1.431 2.701l-2.164.721c-.23.077-.467.116-.704.116z" fill="#8bb7f0"></path><path d="M13.296 24.071c.105 5.134 1.026 6.796 1.845 8.273.318.573.592 1.069.792 1.758a1.7 1.7 0 01-1.109 2.087l-2.163.721c-.179.06-.363.09-.546.09a1.72 1.72 0 01-1.706-1.61c-.331-4.98-1.3-8.773-2.887-11.319h5.774m.99-1H5.475c2.762 2.762 3.65 8.079 3.936 12.385A2.717 2.717 0 0012.115 38c.284 0 .574-.045.862-.141l2.163-.721a2.704 2.704 0 001.753-3.314c-.801-2.761-2.607-2.784-2.607-10.753z" fill="#4e7ab5"></path><g><path d="M34.248 32.5c-3.859-5.014-9.914-8-16.248-8h-3.5v-13H18c6.334 0 12.389-2.986 16.248-8H35.5v29h-1.252z" fill="#c2e8ff"></path><path d="M35 4v28h-.508C30.533 26.982 24.406 24 18 24h-3V12h3c6.406 0 12.533-2.982 16.492-8H35m1-1h-2a20 20 0 01-16 8h-4v14h4a20 20 0 0116 8h2V3z" fill="#7496c4"></path></g><g><path d="M8 24.5c-3.584 0-6.5-2.916-6.5-6.5s2.916-6.5 6.5-6.5h7.5v13H8z" fill="#8bb7f0"></path><path d="M15 12v12H8c-3.308 0-6-2.692-6-6s2.692-6 6-6h7m1-1H8a7 7 0 100 14h8V11z" fill="#4e7ab5"></path></g></svg>