<svg viewBox="0 0 40 40" xmlns="http://www.w3.org/2000/svg"><path fill="#5e9c76" d="M.5 5.5h39v29H.5z"></path><path d="M39 6v28H1V6h38m1-1H0v30h40V5z" fill="#37774e"></path><path fill="#fff" d="M20.342 14.245l1.023-5.704-.344 5.785 1.691-5.543-1.026 5.704 2.334-5.304-1.693 5.542 2.945-4.99-2.336 5.303 3.515-4.607-2.948 4.989 4.035-4.159-3.517 4.606 4.499-3.653-4.037 4.157 4.899-3.094-4.5 3.65 5.23-2.493-4.9 3.092 5.488-1.857-5.231 2.492 5.669-1.195-5.488 1.854 5.77-.515-5.669 1.192 5.791.171-5.771.513 5.73.854-5.791-.172 5.589 1.526-5.73-.857 5.37 2.177-5.589-1.529 5.075 2.797-5.369-2.179 4.708 3.378-5.073-2.799 4.276 3.91-4.707-3.379 3.783 4.389-4.274-3.912 3.238 4.805-3.782-4.39 2.647 5.155-3.236-4.807 2.019 5.432-2.645-5.156 1.363 5.632-2.017-5.432.687 5.754-1.36-5.633.001 5.795L20 25.785l-.684 5.755.001-5.795-1.359 5.633.686-5.754-2.016 5.432 1.362-5.632-2.645 5.156 2.019-5.432-3.236 4.807 2.647-5.155-3.781 4.391 3.237-4.806-4.274 3.912 3.783-4.389-4.706 3.38 4.275-3.911-5.073 2.799 4.708-3.378-5.368 2.18 5.074-2.797-5.589 1.528 5.37-2.177-5.73.857 5.589-1.526-5.791.173 5.73-.855-5.771-.513 5.791-.171-5.669-1.192 5.77.516-5.489-1.855 5.67 1.195L9.3 15.67l5.488 1.857-4.9-3.093 5.23 2.493-4.5-3.65 4.899 3.095-4.037-4.158 4.498 3.653-3.516-4.606 4.035 4.159-2.948-4.989 3.515 4.607-2.337-5.303 2.946 4.99-1.694-5.542 2.335 5.304-1.026-5.704 1.691 5.543-.345-5.785 1.024 5.704L20 8.46z"></path><path d="M20.931 28.5c-.372 0-.711-.14-1.009-.416-.202-.187-.289-.426-.345-.584l-.896-2.488c-.133-.372-.299-.834-.225-1.337.032-.215.104-.405.168-.572.037-.098.075-.194.1-.295.095-.387-.073-.681-.355-1.128-.245-.388-.522-.828-.513-1.393.003-.181.049-.339.086-.465l.015-.048a.806.806 0 01-.142.013h-.106l-.19-.062c-.229-.101-.334-.292-.391-.394h-.024c-.138 0-.235.038-.339.078l-.126.048a3.418 3.418 0 01-1.166.221c-.989 0-1.841-.505-2.533-1.5-.167-.241-.397-.572-.435-.984-.022-.245.027-.459.07-.647.02-.086.041-.172.048-.259.009-.104-.001-.208-.01-.313a3.364 3.364 0 01-.015-.389c.031-.859.592-1.477 1.138-1.967.242-.217.414-.439.581-.653.398-.512.809-1.042 1.928-1.174l3.011-.355-.02.582c-.004.14-.018.279-.041.417l.042.023c.3.159.61.324.868.379l.076.018.029-.045a.8.8 0 01.612-.345l.106-.005c.313 0 .575.127.785.229.117.057.228.111.317.128a.594.594 0 00.111.009c.1 0 .201-.015.302-.028l.13-.016c.096-.011.194-.018.291-.018.278 0 .508.058.706.177a.976.976 0 01.453.667.809.809 0 01-.124.591c.088.177.174.354.258.529.364.758.708 1.474 1.251 2.006.129.125.234.226.321.356.04.06.074.124.107.188l.003.005c.28-.004.542-.048.736-.08a3.22 3.22 0 01.367-.046h.399l.112.395c.02.084.033.168.04.253.081.982-.672 1.796-1.246 2.323-.535.492-1.142 1.049-1.134 1.639.002.177.061.376.122.586.036.125.072.249.101.375.137.61.028 1.139-.307 1.491-.173.182-.381.291-.564.388-.099.052-.264.139-.291.185-.003.021.011.108.02.166.023.147.051.331.007.538-.058.268-.214.462-.328.605a8.76 8.76 0 00-.212.277c-.599.792-1.602 2.121-2.73 2.121z" fill="#bae0bd"></path><path d="M18.738 12a2.747 2.747 0 01-.115.702c.421.2.921.524 1.379.622.219.047.32.084.38.084.089 0 .088-.081.249-.328.049-.075.145-.11.237-.119a.603.603 0 01.06-.003c.352 0 .655.28 1.007.349a1.1 1.1 0 00.207.019c.163 0 .327-.029.489-.047.077-.009.156-.015.234-.015a.85.85 0 01.446.105c.197.12.301.402.154.576a.155.155 0 01-.091.059.15.15 0 01-.021.002c-.126 0-.16-.211-.281-.276.667 1.089 1.053 2.446 1.985 3.361.09.088.186.173.255.277.076.114.118.249.212.349.05.054.168.073.317.073.386 0 .975-.131 1.101-.131.015 0 .023.002.024.006.014.061.024.122.029.182.059.725-.52 1.395-1.085 1.914-.612.562-1.306 1.2-1.296 2.013.004.364.155.71.235 1.065.08.356.075.767-.181 1.035-.291.305-.856.377-.971.776-.069.24.069.497.016.741-.032.15-.132.276-.229.397-.44.546-1.53 2.212-2.553 2.212a.965.965 0 01-.669-.282c-.111-.103-.165-.248-.215-.387l-.895-2.488c-.127-.354-.256-.724-.201-1.094.043-.283.19-.542.258-.821.269-1.1-.868-1.692-.853-2.633.003-.205.105-.398.128-.602.023-.204-.084-.454-.297-.471l-.024-.001c-.118 0-.237.066-.349.066a.229.229 0 01-.092-.018c-.115-.051-.147-.189-.223-.286-.093-.118-.251-.168-.408-.168a.773.773 0 00-.096.006c-.184.024-.354.104-.528.167a2.89 2.89 0 01-.995.191c-.871 0-1.566-.485-2.122-1.286-.159-.229-.323-.471-.348-.744-.025-.275.094-.543.118-.817.021-.242-.032-.485-.023-.727.024-.668.491-1.18.973-1.614.867-.779.899-1.544 2.233-1.702.812-.098 1.624-.193 2.435-.289m1.037-1.129l-1.155.136-2.434.287c-1.327.157-1.847.826-2.265 1.363-.16.206-.311.401-.52.588-.587.528-1.266 1.268-1.303 2.321-.005.149.004.297.016.446.006.077.017.154.01.23-.006.064-.023.128-.038.191-.046.203-.109.48-.08.803.049.544.334.953.522 1.225.985 1.418 2.144 1.715 2.943 1.715a3.9 3.9 0 001.338-.252l.1-.038c.099.109.231.217.409.295l.04.017a1.017 1.017 0 00-.003.078c-.011.715.322 1.244.589 1.669.265.42.335.568.292.743-.02.081-.052.159-.082.237a3.153 3.153 0 00-.194.673c-.094.628.104 1.179.249 1.581l.431 1.199.464 1.289c.069.192.184.512.476.782.39.361.856.551 1.351.551 1.377 0 2.474-1.453 3.129-2.321.078-.103.146-.194.203-.264.129-.16.345-.429.428-.814.046-.214.038-.405.021-.558.194-.103.455-.243.679-.478.455-.477.609-1.168.434-1.946a7.411 7.411 0 00-.109-.407c-.052-.176-.1-.343-.102-.45-.005-.367.537-.865.973-1.265.651-.597 1.504-1.531 1.406-2.733a2.358 2.358 0 00-.051-.327l-.18-.773-.818-.006c-.126 0-.248.02-.449.052-.109.018-.249.04-.38.057-.109-.152-.226-.265-.314-.35l-.041-.04c-.48-.471-.806-1.149-1.151-1.867l-.151-.313a1.33 1.33 0 00.06-.67 1.48 1.48 0 00-.687-1.013 1.831 1.831 0 00-.964-.25c-.117 0-.235.008-.349.022l-.138.017c-.079.01-.158.024-.237.024a1.108 1.108 0 01-.21-.088c-.243-.118-.575-.28-1.004-.28-.051 0-.102.002-.154.007a1.351 1.351 0 00-.761.315 3.838 3.838 0 01-.283-.132l.006-.117.038-1.161z" fill="#37774e"></path><path d="M25.494 26.479c-.309 0-.566-.182-.706-.499-.27-.611-.117-1.938.273-2.365.14-.154.301-.28.462-.402.188-.143.336-.255.412-.406l.24-.481.462.275c.268.159.445.433.487.75a1.12 1.12 0 01-.085.592l-.614 1.77c-.052.149-.139.396-.375.565a.952.952 0 01-.556.201z" fill="#bae0bd"></path><path d="M26.382 23.03c.143.085.226.23.247.386a.61.61 0 01-.047.325l-.629 1.808c-.042.12-.089.247-.194.323a.473.473 0 01-.265.107c-.533 0-.356-1.707-.064-2.028.307-.337.745-.504.952-.921m-.414-1.411l-.481.965c-.023.046-.163.152-.266.23a3.756 3.756 0 00-.53.463c-.517.568-.709 2.115-.36 2.904.22.499.655.797 1.164.797.291 0 .577-.099.849-.296.365-.263.493-.63.554-.806l.619-1.779c.104-.258.14-.537.104-.812a1.517 1.517 0 00-.726-1.115l-.927-.551z" fill="#37774e"></path><path fill="#ffeea3" d="M20.988 6.345l.464.988 1.036.158-.75.769.177 1.085-.927-.512-.927.512.177-1.085-.75-.769 1.037-.158zM24.784 7.322l.464.987 1.036.158-.75.769.177 1.086-.927-.513-.927.513.177-1.086-.75-.769 1.037-.158zM28.092 9.491l.464.987 1.036.159-.75.768.177 1.086-.927-.513-.927.513.177-1.086-.75-.768 1.037-.159zM30.587 12.582l.463.987 1.037.159-.75.768.177 1.086-.927-.513-.927.513.177-1.086-.75-.768 1.036-.159zM31.888 16.27l.464.987 1.036.158-.75.769.177 1.086-.927-.513-.927.513.177-1.086-.75-.769 1.037-.158zM31.888 20.283l.464.987 1.036.158-.75.769.177 1.086-.927-.513-.927.513.177-1.086-.75-.769 1.037-.158zM30.597 23.991l.463.987 1.037.159-.75.768.177 1.086-.927-.513-.927.513.177-1.086-.75-.768 1.036-.159zM28.18 27.116l.463.987 1.037.159-.75.768.177 1.086-.927-.513-.927.513.177-1.086-.75-.768 1.036-.159zM24.888 29.366l.464.987 1.036.159-.75.768.177 1.086-.927-.513-.927.513.177-1.086-.75-.768 1.037-.159zM21.055 30.283l.463.987 1.037.158-.75.769.177 1.086-.927-.513-.927.513.177-1.086-.75-.769 1.036-.158zM17.138 30.033l.464.987 1.036.158-.75.769.177 1.086-.927-.513-.927.513.177-1.086-.75-.769 1.037-.158zM13.513 28.491l.464.987 1.036.159-.75.768.177 1.086-.927-.513-.927.513.177-1.086-.75-.768 1.037-.159zM10.597 25.824l.463.988 1.037.158-.75.769.177 1.085-.927-.512-.927.512.177-1.085-.75-.769 1.036-.158zM8.68 22.408l.463.987 1.037.158-.75.769.177 1.086-.927-.513-.927.513.177-1.086-.75-.769 1.036-.158zM8.013 18.449l.464.988 1.036.158-.75.769.177 1.085-.927-.512-.927.512.177-1.085-.75-.769 1.037-.158zM8.597 14.491l.463.987 1.037.159-.75.768.177 1.086-.927-.513-.927.513.177-1.086-.75-.768 1.036-.159zM10.513 10.949l.464.988 1.036.158-.75.769.177 1.085-.927-.512-.927.512.177-1.085-.75-.769 1.037-.158zM13.43 8.241l.463.987 1.037.159-.75.768.177 1.086-.927-.513-.927.513.177-1.086-.75-.768 1.036-.159zM16.972 6.658l.463.987 1.037.158-.75.769.177 1.086-.927-.513-.927.513.177-1.086-.75-.769 1.036-.158z"></path></svg>