<svg viewBox="0 0 40 40" xmlns="http://www.w3.org/2000/svg"><path fill="#ffc685" d="M6.5 37.5v-35h18.293l8.707 8.707V37.5z"></path><path d="M24.586 3L33 11.414V37H7V3h17.586M25 2H6v36h28V11l-9-9z" fill="#a16a4a"></path><path fill="#fff" d="M24.5 11.5v-9h.293l8.707 8.707v.293z"></path><path d="M25 3.414L32.586 11H25V3.414M25 2h-1v10h10v-1l-9-9zM17.22 24.537l-.39 2.002h-1.651l1.898-8.762h2.041l1.703 8.762H19.17l-.377-2.002H17.22zm1.417-1.327l-.286-1.833c-.091-.533-.208-1.417-.285-1.989h-.039c-.092.585-.222 1.482-.312 1.989l-.325 1.833h1.247zM23.812 17.776v8.762h-1.703v-8.762h1.703z" fill="#a16a4a"></path></svg>