<svg viewBox="0 0 40 40" xmlns="http://www.w3.org/2000/svg"><path d="M5.304 24.5c-.83 0-1.603-.41-2.069-1.096L1.5 20.846v-3.489h37v3.489l-1.735 2.558a2.496 2.496 0 01-2.069 1.096H5.304z" fill="#8bb7f0"></path><path d="M38 17.857v2.836l-1.649 2.43a1.998 1.998 0 01-1.655.877H5.304a1.998 1.998 0 01-1.655-.877L2 20.693v-2.836h36m1-1H1V21l1.822 2.684A3 3 0 005.304 25h29.392a3 3 0 002.482-1.316L39 21v-4.143z" fill="#4e7ab5"></path><path d="M1.5 20.5V4c0-1.378 1.122-2.5 2.5-2.5h32c1.378 0 2.5 1.122 2.5 2.5v16.5h-37z" fill="#dbf2ff"></path><path d="M36 2c1.103 0 2 .897 2 2v16H2V4c0-1.103.897-2 2-2h32m0-1H4a3 3 0 00-3 3v17h38V4a3 3 0 00-3-3z" fill="#7496c4"></path><path fill="none" stroke="#7496c4" stroke-miterlimit="10" d="M30.5 6v9M26.603 8.25l7.794 4.5M26.603 12.75l7.794-4.5"></path><path fill="#8bb7f0" d="M7.5 23h25v2h-25z"></path><circle cx="20" cy="27" r="1" fill="#4e7ab5"></circle><circle cx="20" cy="24" r="1" fill="#4e7ab5"></circle><path d="M21 21a1 1 0 01-2 0h2z" fill="#4e7ab5"></path><circle cx="20" cy="30" r="1" fill="#4e7ab5"></circle><circle cx="20" cy="33" r="1" fill="#4e7ab5"></circle><circle cx="20" cy="36" r="1" fill="#4e7ab5"></circle><circle cx="20" cy="39" r="1" fill="#4e7ab5"></circle><circle cx="28" cy="27" r="1" fill="#4e7ab5"></circle><circle cx="27" cy="24" r="1" fill="#4e7ab5"></circle><path d="M28 21a1 1 0 01-2 0h2z" fill="#4e7ab5"></path><circle cx="29" cy="30" r="1" fill="#4e7ab5"></circle><circle cx="31" cy="33" r="1" fill="#4e7ab5"></circle><circle cx="33" cy="36" r="1" fill="#4e7ab5"></circle><circle cx="36" cy="39" r="1" fill="#4e7ab5"></circle><circle cx="12" cy="27" r="1" fill="#4e7ab5"></circle><circle cx="13" cy="24" r="1" fill="#4e7ab5"></circle><path d="M12 21a1 1 0 002 0h-2z" fill="#4e7ab5"></path><circle cx="11" cy="30" r="1" fill="#4e7ab5"></circle><circle cx="9" cy="33" r="1" fill="#4e7ab5"></circle><circle cx="7" cy="36" r="1" fill="#4e7ab5"></circle><circle cx="4" cy="39" r="1" fill="#4e7ab5"></circle></svg>