<svg viewBox="0 0 40 40" xmlns="http://www.w3.org/2000/svg"><path d="M8.554 13.5c-3.078.6-4.848 3-7.554 3M8.554 19.5c-3.078.6-4.848 3-7.554 3M8.554 25.5c-3.078.6-4.848 3-7.554 3" fill="none" stroke="#4e7ab5" stroke-miterlimit="10"></path><path fill="#dbf2ff" d="M7.5 2.5h25v35h-25z"></path><path d="M32 3v34H8V3h24m1-1H7v36h26V2z" fill="#7496c4"></path><path fill="#dbf2ff" d="M30 10h3v20h-3z"></path><path d="M13 13.5c2.61 0 6.128 3 8.667 3s5.993-3 8.667-3 6.078 3 8.667 3M13 19.5c2.61 0 6.128 3 8.667 3s5.993-3 8.667-3 6.078 3 8.667 3M13 25.5c2.61 0 6.128 3 8.667 3s5.993-3 8.667-3 6.078 3 8.667 3" fill="none" stroke="#4e7ab5" stroke-miterlimit="10"></path></svg>