<svg viewBox="0 0 40 40" xmlns="http://www.w3.org/2000/svg"><path fill="#7496c4" d="M14 13h12v1H14z"></path><path d="M17.605 18.5l1.364-7.085c.077-.532.518-.915 1.031-.915s.954.383 1.027.891l1.368 7.109h-4.79z" fill="#c2e8ff"></path><path d="M20 11c.266 0 .494.198.54.509L21.789 18H18.21l1.257-6.539A.542.542 0 0120 11m0-1c-.765 0-1.414.563-1.522 1.32L17 19h6l-1.478-7.68A1.538 1.538 0 0020 10z" fill="#7496c4"></path><path fill="#c2e8ff" d="M17.058 25.5L.5 21.604V19.5h39v2.104l-16.558 3.9z"></path><path d="M39 20v1.208l-16.116 3.796L17.116 25 1 21.208V20h38m1-1H0v3l17 4 6 .005L40 22v-3z" fill="#7496c4"></path><path d="M20 29.5c-2.962 0-5.5-3.391-5.5-6.167 0-2.665 2.467-4.833 5.5-4.833s5.5 2.168 5.5 4.833c0 2.776-2.538 6.167-5.5 6.167z" fill="#8bb7f0"></path><path d="M20 19c2.757 0 5 1.944 5 4.333C25 25.831 22.646 29 20 29s-5-3.169-5-5.667C15 20.944 17.243 19 20 19m0-1c-3.314 0-6 2.388-6 5.333C14 26.279 16.686 30 20 30s6-3.721 6-6.667C26 20.388 23.314 18 20 18z" fill="#4e7ab5"></path><circle cx="32.5" cy="25.5" r="3" fill="#8bb7f0"></circle><path d="M32.5 23c1.379 0 2.5 1.122 2.5 2.5S33.879 28 32.5 28 30 26.878 30 25.5s1.121-2.5 2.5-2.5m0-1a3.5 3.5 0 100 7 3.5 3.5 0 000-7z" fill="#4e7ab5"></path><g><circle cx="20" cy="26" r="1.25" fill="#4e7ab5"></circle></g><g><circle cx="7.5" cy="25.5" r="3" fill="#8bb7f0"></circle><path d="M7.5 23c1.379 0 2.5 1.122 2.5 2.5S8.879 28 7.5 28 5 26.878 5 25.5 6.121 23 7.5 23m0-1a3.5 3.5 0 100 7 3.5 3.5 0 000-7z" fill="#4e7ab5"></path></g><path fill="#4e7ab5" d="M23 23h-6l1-1h4z"></path></svg>