<svg viewBox="0 0 40 40" xmlns="http://www.w3.org/2000/svg"><path fill="#8bb7f0" d="M1.809 29.5L4.5 24.118v-8.236L1.809 10.5h1.957L8.5 16.181v7.638L3.766 29.5z"></path><path d="M3.532 11L8 16.362v7.276L3.532 29h-.914l2.276-4.553.106-.211V15.764l-.106-.211L2.618 11h.914M4 10H1l3 6v8l-3 6h3l5-6v-8l-5-6z" fill="#4e7ab5"></path><path fill="#8bb7f0" d="M12.663 37.5L16.5 24.07v-8.14L12.663 2.5h3.047l7.79 13.633v7.734L15.71 37.5z"></path><path d="M15.42 3L23 16.266v7.469L15.42 37h-2.094l3.636-12.725.038-.135V15.86l-.038-.135L13.326 3h2.094M16 2h-4l4 14v8l-4 14h4l8-14v-8L16 2z" fill="#4e7ab5"></path><g><path d="M4.5 23.5v-7H35c1.93 0 3.5 1.57 3.5 3.5s-1.57 3.5-3.5 3.5H4.5z" fill="#c2e8ff"></path><path d="M35 17c1.654 0 3 1.346 3 3s-1.346 3-3 3H5v-6h30m0-1H4v8h31a4 4 0 000-8z" fill="#7496c4"></path></g><path fill="none" stroke="#36404d" stroke-miterlimit="10" d="M3 3l34 34"></path></svg>