<svg viewBox="0 0 40 40" xmlns="http://www.w3.org/2000/svg"><path fill="#8bb7f0" d="M24.118 35.5h-8.236L10.5 38.191v-1.957l5.681-4.734h7.638l5.681 4.734v1.957z"></path><path d="M23.638 32L29 36.468v.914l-4.553-2.276-.211-.106H15.764l-.211.106L11 37.382v-.914L16.362 32h7.276M24 31h-8l-6 5v3l6-3h8l6 3v-3l-6-5z" fill="#4e7ab5"></path><path fill="#8bb7f0" d="M24.07 23.5h-8.14L2.5 27.337V24.29l13.633-7.79h7.734L37.5 24.29v3.047z"></path><path d="M23.734 17L37 24.58v2.094l-12.725-3.636L24.14 23H15.86l-.135.038L3 26.674V24.58L16.266 17h7.468M24 16h-8L2 24v4l14-4h8l14 4v-4l-14-8z" fill="#4e7ab5"></path><g><path d="M16.5 35.5V5c0-1.93 1.57-3.5 3.5-3.5s3.5 1.57 3.5 3.5v30.5h-7z" fill="#c2e8ff"></path><path d="M20 2c1.654 0 3 1.346 3 3v30h-6V5c0-1.654 1.346-3 3-3m0-1a4 4 0 00-4 4v31h8V5a4 4 0 00-4-4z" fill="#7496c4"></path></g></svg>