<svg viewBox="0 0 40 40" xmlns="http://www.w3.org/2000/svg"><path d="M20 38.5c-7.995 0-14.5-6.505-14.5-14.5v-8C5.5 8.005 12.005 1.5 20 1.5S34.5 8.005 34.5 16v8c0 7.995-6.505 14.5-14.5 14.5z" fill="#fff"></path><path d="M20 2c7.72 0 14 6.28 14 14v8c0 7.72-6.28 14-14 14S6 31.72 6 24v-8C6 8.28 12.28 2 20 2m0-1C11.716 1 5 7.716 5 16v8c0 8.284 6.716 15 15 15 8.284 0 15-6.716 15-15v-8c0-8.284-6.716-15-15-15z" fill="#788b9c"></path><path d="M20 34.5c-5.79 0-10.5-4.71-10.5-10.5v-8c0-5.79 4.71-10.5 10.5-10.5S30.5 10.21 30.5 16v8c0 5.79-4.71 10.5-10.5 10.5z" fill="#8bb7f0"></path><path d="M20 6c5.514 0 10 4.486 10 10v8c0 5.514-4.486 10-10 10s-10-4.486-10-10v-8c0-5.514 4.486-10 10-10m0-1C13.925 5 9 9.925 9 16v8c0 6.075 4.925 11 11 11s11-4.925 11-11v-8c0-6.075-4.925-11-11-11z" fill="#4e7ab5"></path><path d="M9.512 15.5c.261-5.559 4.866-10 10.488-10s10.227 4.441 10.488 10H9.512z" fill="#f2faff"></path><path d="M20 6c5.176 0 9.447 3.954 9.95 9h-19.9c.503-5.046 4.774-9 9.95-9m0-1C13.925 5 9 9.925 9 16h22c0-6.075-4.925-11-11-11z" fill="#788b9c"></path><circle cx="18.5" cy="24.5" r="2.5" fill="#fff"></circle><circle cx="23" cy="23" r="4" fill="#fff"></circle><path fill="#fff" d="M18.375 22.909H28V27h-9.625z"></path><g><path d="M27.5 20a3.5 3.5 0 00-3.5 3.5 3.49 3.49 0 003 3.45V27h2.539A9.954 9.954 0 0030 24v-2.919A3.445 3.445 0 0027.5 20z" fill="#fff"></path></g><path fill="#788b9c" d="M17 12h6v1h-6z"></path></svg>