<svg viewBox="0 0 40 40" xmlns="http://www.w3.org/2000/svg"><path d="M20 38.5c-7.995 0-14.5-6.505-14.5-14.5v-8C5.5 8.005 12.005 1.5 20 1.5S34.5 8.005 34.5 16v8c0 7.995-6.505 14.5-14.5 14.5z" fill="#fff"></path><path d="M20 2c7.72 0 14 6.28 14 14v8c0 7.72-6.28 14-14 14S6 31.72 6 24v-8C6 8.28 12.28 2 20 2m0-1C11.716 1 5 7.716 5 16v8c0 8.284 6.716 15 15 15 8.284 0 15-6.716 15-15v-8c0-8.284-6.716-15-15-15z" fill="#788b9c"></path><path d="M20 34.5c-5.79 0-10.5-4.71-10.5-10.5v-8c0-5.79 4.71-10.5 10.5-10.5S30.5 10.21 30.5 16v8c0 5.79-4.71 10.5-10.5 10.5z" fill="#f2faff"></path><path d="M20 6c5.514 0 10 4.486 10 10v8c0 5.514-4.486 10-10 10s-10-4.486-10-10v-8c0-5.514 4.486-10 10-10m0-1C13.925 5 9 9.925 9 16v8c0 6.075 4.925 11 11 11s11-4.925 11-11v-8c0-6.075-4.925-11-11-11z" fill="#788b9c"></path><path fill="#788b9c" d="M17 29h6v1h-6z"></path></svg>