<svg viewBox="0 0 40 40" xmlns="http://www.w3.org/2000/svg"><path d="M33.904 4.435S28.52 4.64 28.52 11M6.026 4.435s5.49.152 5.49 6.512" fill="none" stroke="#8b75a1" stroke-miterlimit="10"></path><path d="M20 37.5c-10.332 0-16.5-4.689-16.5-12.542C3.5 15.821 11.364 7.5 20 7.5s16.5 8.321 16.5 17.458C36.5 32.811 30.332 37.5 20 37.5z" fill="#dcd5f2"></path><path d="M20 8c9.157 0 16 8.953 16 16.957C36 32.498 30.019 37 20 37S4 32.498 4 24.957C4 16.953 10.843 8 20 8m0-1C10.665 7 3 15.979 3 24.957 3 33.936 10.665 38 20 38s17-4.064 17-13.043C37 15.979 29.335 7 20 7z" fill="#8b75a1"></path><circle cx="4.5" cy="4.5" r="2" fill="#dcd5f2"></circle><path d="M4.5 3C5.327 3 6 3.673 6 4.5S5.327 6 4.5 6 3 5.327 3 4.5 3.673 3 4.5 3m0-1a2.5 2.5 0 100 5 2.5 2.5 0 000-5z" fill="#8b75a1"></path><path d="M20 29.5c-4.767 0-8.5-3.733-8.5-8.5s3.733-8.5 8.5-8.5 8.5 3.733 8.5 8.5-3.733 8.5-8.5 8.5z" fill="#fff"></path><path d="M20 13c4.5 0 8 3.5 8 8s-3.5 8-8 8-8-3.5-8-8 3.5-8 8-8m0-1c-5.047 0-9 3.953-9 9s3.953 9 9 9 9-3.953 9-9-3.953-9-9-9z" fill="#8b75a1"></path><path d="M20 24.5c-1.93 0-3.5-1.57-3.5-3.5s1.57-3.5 3.5-3.5 3.5 1.57 3.5 3.5-1.57 3.5-3.5 3.5z" fill="#839cb2"></path><path d="M20 18c1.654 0 3 1.346 3 3s-1.346 3-3 3-3-1.346-3-3 1.346-3 3-3m0-1a4 4 0 100 8 4 4 0 000-8z" fill="#66798f"></path><circle cx="22" cy="19" r="2" fill="#fff"></circle><g><circle cx="35.5" cy="4.5" r="2" fill="#dcd5f2"></circle><path d="M35.5 3c.827 0 1.5.673 1.5 1.5S36.327 6 35.5 6 34 5.327 34 4.5 34.673 3 35.5 3m0-1a2.5 2.5 0 100 5 2.5 2.5 0 000-5z" fill="#8b75a1"></path></g><path d="M20 34c-4.068 0-6.341-1.258-6.363-1.271l.486-.874C14.145 31.867 16.285 33 20 33c3.646 0 5.772-1.226 5.861-1.278l.507.862C26.122 32.729 23.849 34 20 34z" fill="#8b75a1"></path></svg>