<svg viewBox="0 0 40 40" xmlns="http://www.w3.org/2000/svg"><path d="M22.79 18.732c.23.76.334 2.152-.024 2.261-.359.109-1.044-1.108-1.275-1.868-.23-.76.082-.776.441-.885.359-.108.628-.268.858.492zM17.79 21.732c.23.76.334 2.152-.024 2.261-.359.109-1.044-1.108-1.275-1.868-.23-.76.082-.776.441-.885.359-.108.628-.268.858.492zM29.603 11.851c.314.681.577 1.976.237 2.133-.34.157-1.155-.883-1.469-1.564s-.009-.743.332-.901c.34-.156.586-.348.9.332zM30.864 22.04c-.482-.574-1.076-1.755-.789-1.996s1.347.549 1.828 1.123.203.715-.084.956c-.286.242-.474.491-.955-.083zM34.864 20.04c-.482-.574-1.076-1.755-.789-1.996.287-.241 1.347.549 1.828 1.123s.203.715-.084.956c-.286.242-.474.491-.955-.083zM20.864 25.04c-.482-.574-1.076-1.755-.789-1.996s1.347.549 1.828 1.123.203.715-.084.956c-.286.242-.474.491-.955-.083zM33.603 8.851c.314.681.577 1.976.237 2.133-.34.157-1.155-.883-1.469-1.564s-.009-.743.332-.901.586-.348.9.332zM26.437 15.951c.446.966.819 2.804.337 3.027s-1.639-1.254-2.085-2.219c-.446-.966-.012-1.055.471-1.278s.831-.496 1.277.47zM26.973 23.974c-.599-.879-1.271-2.63-.831-2.93.439-.3 1.824.966 2.423 1.845s.186 1.039-.253 1.338c-.441.3-.74.626-1.339-.253z" fill="#788b9c"></path><path d="M12.541 38.5c-6.085 0-11.036-5.56-11.036-12.393 0-2.509.665-4.92 1.921-6.974a.491.491 0 00.074-.261V17c0-2.481 2.019-4.5 4.5-4.5.979 0 1.912.313 2.697.907a.498.498 0 00.364.097c5.441-.697 10.746-5.605 15.292-10.15C28.207 1.5 29.13 1.5 29.871 1.5H30c2.691 0 4.5 1.407 4.5 3.5 0 1.656-1.261 3.793-2.997 5.083-.239.176-.491.34-.744.479-.093.055-.186.103-.29.157-.828.433-2.214 1.157-3.9 4.028-1.479 2.518-4.277 3.975-7.239 5.517l-.561.293c-.867.453-1.833 1.57-2.855 2.752-.769.89-1.565 1.81-2.211 2.289l-.267.196c-1.227.903-2.286 1.683-3.445 1.706a.5.5 0 00-.075.992c.415.071.841.107 1.265.107 2.239 0 3.968-.996 4.536-1.323l.117-.066c.588-.32 5.177-2.492 8.203-2.712 4.038-.294 5.27-.623 9.15-3.438a4.92 4.92 0 00.253-.199c.065-.054.13-.107.196-.155.99-.734 2.31-1.207 3.365-1.207.51 0 .894.133 1.141.395.394.418.36 1.065.36 1.072-.001 1.867-.59 2.957-2.251 4.197-.396.289-1.582.784-2.956 1.356-2.292.956-5.432 2.265-8.121 3.911-2.261 1.383-4.042 3.483-4.998 4.612-.231.272-.409.484-.53.605-1.983 1.835-4.511 2.853-7.105 2.853z" fill="#bae0bd"></path><path d="M29.872 2H30c2.393 0 4 1.206 4 3 0 1.486-1.202 3.498-2.792 4.679a6.519 6.519 0 01-.715.459c-.075.044-.16.088-.255.137-.818.427-2.342 1.223-4.101 4.218-1.406 2.394-4.142 3.819-7.039 5.327l-.562.293c-.951.497-1.947 1.649-3.001 2.868-.752.869-1.529 1.768-2.127 2.211l-.272.2c-1.156.853-2.155 1.589-3.155 1.608a1 1 0 00-.15 1.985c.443.076.897.115 1.35.115 2.372 0 4.188-1.046 4.785-1.389l.107-.061c.575-.313 5.059-2.439 8-2.653 4.09-.298 5.448-.66 9.407-3.532.095-.069.187-.143.277-.217.057-.047.114-.094.179-.142C34.967 20.342 36.218 20 37 20c.364 0 .625.079.774.234.238.249.229.693.229.693A.89.89 0 0038 21c0 1.67-.517 2.619-2.041 3.757-.352.257-1.57.765-2.859 1.302-2.307.962-5.467 2.28-8.188 3.945-2.328 1.425-4.143 3.565-5.118 4.714-.22.259-.389.462-.473.548C17.416 37.029 15.008 38 12.541 38c-5.81 0-10.536-5.335-10.536-11.893 0-2.417.639-4.738 1.848-6.713.096-.157.147-.338.147-.522V17c0-2.206 1.794-4 4-4 .87 0 1.698.279 2.396.806a.997.997 0 00.73.194c5.597-.716 10.977-5.688 15.581-10.292C28.414 2 29.222 2 29.872 2m0-1c-.853 0-1.919.047-3.872 2-4.813 4.813-9.896 9.354-15.001 10.008A4.956 4.956 0 008 12a5 5 0 00-5 5v1.872c-1.261 2.06-1.995 4.553-1.995 7.235C1.005 33.232 6.176 39 12.541 39c2.796 0 5.451-1.141 7.459-3 .616-.622 2.675-3.455 5.434-5.143 4.374-2.677 9.975-4.461 11.115-5.293C38.367 24.207 39 22.958 39 21c0 0 .146-2-2-2-1.059 0-2.506.448-3.659 1.303-.149.109-.292.24-.448.353C29.031 23.458 27.828 23.721 24 24c-3.149.229-7.792 2.438-8.406 2.772-.381.207-2.111 1.328-4.413 1.328-.379 0-.774-.03-1.181-.1 1.411-.027 2.629-.996 4-2 1.52-1.126 3.566-4.25 5-5 3.244-1.696 6.354-3.196 8-6 1.847-3.146 3.308-3.593 4-4 .271-.149.543-.326.801-.516C33.592 9.154 35 6.891 35 5c0-2.375-2.063-4-5-4h-.128z" fill="#5e9c76"></path><path d="M9.895 15.668c.713.713-2.419 4.035-3.227 3.227a2.282 2.282 0 013.227-3.227z" fill="#5e9c76"></path><path d="M7.891 18.665c.604-.399 1.26-1.07 1.679-1.69C8.734 16.46 7.76 16 7 16c.498.451.762 1.671.891 2.665z" fill="#36404d"></path><circle cx="30" cy="4" r="1" fill="#36404d"></circle><path d="M30 5h2c0-1.1-.9-2-2-2v2z" fill="#36404d"></path></svg>