<svg viewBox="0 0 40 40" xmlns="http://www.w3.org/2000/svg"><path fill="none" stroke="#4e7ab5" stroke-miterlimit="10" d="M11.333 28.667l12.667-12 12.667 12"></path><path fill="#4e7ab5" d="M12 17h-1v16h1V17zM37 17h-1v16h1V17z"></path><path d="M8.5 17.5V16c0-1.93 1.57-3.5 3.5-3.5h24c1.93 0 3.5 1.57 3.5 3.5v1.5h-31z" fill="#dbf2ff"></path><path d="M36 13c1.654 0 3 1.346 3 3v1H9v-1c0-1.654 1.346-3 3-3h24m0-1H12a4 4 0 00-4 4v2h32v-2a4 4 0 00-4-4z" fill="#66798f"></path><path d="M.5 17.5V16c0-1.93 1.57-3.5 3.5-3.5h1c1.93 0 3.5 1.57 3.5 3.5v1.5h-8z" fill="#dbf2ff"></path><path d="M5 13c1.654 0 3 1.346 3 3v1H1v-1c0-1.654 1.346-3 3-3h1m0-1H4a4 4 0 00-4 4v2h9v-2a4 4 0 00-4-4z" fill="#66798f"></path><path fill="#4e7ab5" d="M33 25H15l1-1h16z"></path></svg>