<svg viewBox="0 0 40 40" xmlns="http://www.w3.org/2000/svg"><path d="M19.143 31.714v-.77L27.172 8.71c.067-.186.227-.205.292-.205s.226.02.292.205l3.028 8.387.746-2.124a.646.646 0 01.626-.444c.11 0 .48.032.625.441L38.5 31.086v.628H19.143z" fill="#b6c9d6"></path><path d="M27.464 9.373l2.374 6.574.954 2.642.93-2.651.281-.8c.012-.033.038-.11.155-.11.116 0 .143.076.154.109L38 31.172v.042H19.643v-.182l7.821-21.659m0-1.368a.797.797 0 00-.763.535l-8.059 22.317v1.357H39V31l-5.745-16.196a1.144 1.144 0 00-1.097-.775c-.458 0-.916.26-1.098.779l-.281.8-2.552-7.067a.798.798 0 00-.763-.536z" fill="#788b9c"></path><path d="M1.5 32.5v-2.91l8.762-23.782a.457.457 0 01.438-.304c.08 0 .278.022.399.23l2.489 4.267 3.393-8.293c.075-.185.238-.204.304-.204s.229.02.305.204l2.388 5.837 1.028-2.791a.364.364 0 01.351-.245c.061 0 .267.018.35.245l8.649 23.477V29h-1.468l.12.598-.005.759H19.55l.01 2.143H1.5z" fill="#e1ebf2"></path><path d="M17.286 2.284l1.743 4.26.974 2.382.89-2.415.465-1.261 8.5 23.071v.179h-.359l-1.297.002.298 1.133v.222h-9.453l.005 1.005.006 1.138H2v-2.321L10.705 6.05l1.941 3.327 1.022 1.751.768-1.877 2.85-6.967m0-1.28a.817.817 0 00-.767.515L13.51 8.874l-1.978-3.391a.95.95 0 00-.831-.479.956.956 0 00-.908.631L1 29.5V33h19.062l-.01-2.143H29.5v-1.349l-.002-.008h1.359v-1.331a.143.143 0 00-.009-.05L22.177 4.582a.859.859 0 00-.82-.571.86.86 0 00-.82.571l-.583 1.584-1.901-4.647a.815.815 0 00-.767-.515z" fill="#788b9c"></path><path d="M20.481 11.052l-.999 2.822-2.41-3.233-1.881 4.174-1.587-2.234-1.176 2.469-1.94-3.88-.999 2.469-1.097-1.307 2.314-6.281 1.941 3.327 1.022 1.751.768-1.877 2.851-6.968 1.743 4.26.974 2.382.89-2.415.465-1.261 1.764 4.787-1.346 1.896-1.297-.881z" fill="#fff"></path><path d="M1.5 35.786v-5.31c1.992-.18 5.629-1.312 9.787-2.607C16.355 26.29 22.102 24.5 25 24.5c4.802 0 12.243 5.741 13.5 6.74v4.546h-37z" fill="#bae0bd"></path><path d="M25 25c4.441 0 11.344 5.185 13 6.482v3.803H2V30.92c2.119-.295 5.552-1.364 9.435-2.574C16.47 26.778 22.177 25 25 25m0-1c-5.473 0-20.141 6-24 6v6.286h38V31s-8.527-7-14-7z" fill="#5e9c76"></path><path d="M39 32c-1.399-.848-4-2.686-4-2.686V37h4v-5zM5 30.293s-1.684.508-4 .564V35h4v-4.707z" fill="#bae0bd"></path><g><path d="M1.5 38.5v-4.022c1.275-.11 2.856-.605 4.651-1.167C8.861 32.462 11.932 31.5 15 31.5c4.918 0 20.789 3.328 23.5 3.904V38.5h-37z" fill="#9bcc9f"></path><path d="M15 32c4.67 0 19.416 3.053 23 3.81V38H2v-3.077c1.236-.175 2.682-.628 4.301-1.135C8.976 32.95 12.008 32 15 32m0-1c-5.473 0-11 3-14 3v5h38v-4s-18.527-4-24-4z" fill="#5e9c76"></path></g><g><path d="M39 36a254.943 254.943 0 01-4.071-.797V38H39v-2z" fill="#9bcc9f"></path></g><g><path d="M5.071 34.219S2.587 35 1 35v3h4.071v-3.781z" fill="#9bcc9f"></path></g></svg>