<svg viewBox="0 0 40 40" xmlns="http://www.w3.org/2000/svg"><rect x="2.5" y="2.5" width="35" height="35" rx="3.5" ry="3.5" fill="#b0c1d4"/><path d="M34 3a3 3 0 013 3v28a3 3 0 01-3 3H6a3 3 0 01-3-3V6a3 3 0 013-3h28m0-1H6a4 4 0 00-4 4v28a4 4 0 004 4h28a4 4 0 004-4V6a4 4 0 00-4-4z" fill="#66798f"></path><rect x="3" y="3" width="34" height="31" rx="3" ry="3" fill="#d8e2ed"/><path d="M13.32 22.71H12.1l-1-2.58h-4l-.9 2.58H5l3.59-9.19h1.12zm-2.57-3.54l-1.47-3.92a3.69 3.69 0 01-.14-.61 3.37 3.37 0 01-.15.61L7.5 19.17zM15.62 22.71h-1.07V13h1.07zM20.9 22.65a2.1 2.1 0 01-1 .2q-1.76 0-1.76-1.92V17H17v-.9h1.15v-1.6l1.07-.34v1.94h1.68v.9h-1.69v3.7a1.51 1.51 0 00.23.94.92.92 0 00.76.28 1.14 1.14 0 00.7-.22zM29.48 22.08a6.37 6.37 0 01-3.14.78 4.33 4.33 0 01-3.24-1.26 4.6 4.6 0 01-1.24-3.36 4.69 4.69 0 014.86-4.87 6 6 0 012.57.49V15a5 5 0 00-2.69-.7 3.4 3.4 0 00-2.6 1.11 3.84 3.84 0 00-1 2.75 3.85 3.85 0 00.93 2.74 3.31 3.31 0 002.54 1 4 4 0 001.9-.43v-2.58h-2.04v-1h3.15zM35 17.22a1.33 1.33 0 00-.81-.21 1.37 1.37 0 00-1.15.63 2.89 2.89 0 00-.46 1.73v3.34h-1.07v-6.56h1.07v1.35a2.28 2.28 0 01.7-1.08 1.61 1.61 0 011.08-.42 1.79 1.79 0 01.64.09z" fill="#36404d"></path></svg>