<svg viewBox="0 0 40 40" xmlns="http://www.w3.org/2000/svg"><path fill="#66798f" d="M27 21v-3l-2 .789 2.049-1.578L29 15v2.526L31 19h-3z"></path><path d="M24.536 34.5c2.964 0 5.115-.908 5.846-1.2M10 20s2.698-1.023 6.059-2.046" fill="none" stroke="#66798f" stroke-miterlimit="10"></path><path fill="#66798f" d="M7 19h2.729L11 17l.729 3L13 22l-2.479-1L9 23v-2.269zM34 34h-2.729L30 36l-.729-3L28 31l2.479 1L32 30v2.269z"></path><path d="M22.121 16.054c-.719 0-1.617-.293-1.811-.446-1.12-.66-2.81-3.46-2.81-5.608 0-3.415 2.365-5.286 4.092-6.651.684-.541 1.275-1.008 1.611-1.496C24.62 3.2 26.5 5.613 26.5 8c0 2.194-.959 3.226-1.975 4.319-.879.946-1.788 1.924-2.02 3.612a.544.544 0 00-.003.114c-.006-.007-.021-.01-.043-.01-.058.001-.17.019-.338.019z" fill="#e1ebf2"></path><path d="M23.237 2.595C24.489 3.898 26 5.994 26 8c0 1.997-.853 2.916-1.842 3.979-.837.901-1.78 1.915-2.098 3.574-.557-.015-1.278-.234-1.441-.338a.894.894 0 00-.115-.078C19.658 14.642 18 12.011 18 10c0-3.173 2.163-4.884 3.902-6.259.51-.404.974-.771 1.335-1.146M23 1c0 1.69-6 3.344-6 9 0 2.313 1.781 5.288 3 6 .32.252 1.354.554 2.121.554.532 0 .935-.145.879-.554.469-3.406 4-3.656 4-8 0-2.99-2.656-5.875-4-7z" fill="#66798f"></path><path d="M24.67 38.5l-8.321-.997c-.476-.094-.849-.493-.849-.943V17c0-.827.673-1.5 1.5-1.5h8c.827 0 1.5.673 1.5 1.5v2.882l-.947 1.895A.491.491 0 0025.5 22v15.56c0 .221-.05.94-.69.94h-.14z" fill="#e1ebf2"></path><path d="M25 16c.551 0 1 .449 1 1v2.764l-.894 1.789A.993.993 0 0025 22v15.56c0 .132-.019.44-.19.44h-.081l-8.277-.988c-.224-.053-.452-.224-.452-.452V17c0-.551.449-1 1-1h8m0-1h-8c-1.1 0-2 .9-2 2v19.56c0 .72.57 1.3 1.29 1.44l8.38 1h.14c.72 0 1.19-.57 1.19-1.44V22l1-2v-3c0-1.1-.9-2-2-2z" fill="#66798f"></path><path d="M26.154 17.83c2.442.743 5.346 1.902 5.346 3.527 0 6.723-22 2.391-22 8.821 0 2.292 2.658 3.812 5.66 4.321" fill="none" stroke="#66798f" stroke-miterlimit="10"></path><path fill="#66798f" d="M22.733 28.263L21 27l-1.467 2 .267-3-.8-2.526 1.867 1.421L22 23l-.267 2.684zM14 29h-2l-1 2-.833-2.432L8 27h2.458l1.042-2 .667 2.432zM33 25h-2l-1 2-.833-2.432L27 23h2l1.042-2 .77 2.391z"></path></svg>