<svg viewBox="0 0 40 40" xmlns="http://www.w3.org/2000/svg"><circle cx="19.465" cy="4.5" r="3" fill="#ffeea3"></circle><path d="M19.465 2c1.379 0 2.5 1.122 2.5 2.5S20.844 7 19.465 7s-2.5-1.122-2.5-2.5 1.121-2.5 2.5-2.5m0-1a3.5 3.5 0 100 7 3.5 3.5 0 000-7z" fill="#ba9b48"></path><path d="M15 26.5c-.827 0-1.5-.673-1.5-1.5v-2.833h3V25c0 .827-.673 1.5-1.5 1.5z" fill="#ffeea3"></path><path d="M16 22.667V25c0 .551-.449 1-1 1s-1-.449-1-1v-2.333h2m1-1h-4V25a2 2 0 104 0v-3.333z" fill="#ba9b48"></path><g><path d="M24 26.5c-.827 0-1.5-.673-1.5-1.5v-2.833h3V25c0 .827-.673 1.5-1.5 1.5z" fill="#ffeea3"></path><path d="M25 22.667V25c0 .551-.449 1-1 1s-1-.449-1-1v-2.333h2m1-1h-4V25a2 2 0 104 0v-3.333z" fill="#ba9b48"></path></g><g><path d="M17 38.5c-.827 0-1.5-.673-1.5-1.5V24.691l-2-1V15c0-3.033 2.467-5.5 5.499-5.5H20c3.032 0 5.5 2.467 5.5 5.5v8.691l-2 1V30.5h-3v-5h-2v11.458c0 .865-.659 1.542-1.5 1.542z" fill="#8bb7f0"></path><path d="M20 10c2.757 0 5 2.243 5 5v8.382l-1.447.724-.553.276V30h-2v-5h-3v11.958c0 .584-.439 1.042-1 1.042-.551 0-1-.449-1-1V24.382l-.553-.276L14 23.382V15c0-2.757 2.243-5 5-5h1m0-1h-1a6 6 0 00-6 6v9.071l.133-.005L15 25v12a2 2 0 002 2c1.105 0 2-.895 2-2.042V26h1v5h4v-6l2-1v-9a6 6 0 00-6-6z" fill="#4e7ab5"></path></g></svg>