<svg viewBox="0 0 40 40" xmlns="http://www.w3.org/2000/svg"><path d="M20 2c2.206 0 4 1.794 4 4s-1.794 4-4 4-4-1.794-4-4 1.794-4 4-4m0-1a5 5 0 10.001 10.001A5 5 0 0020 1z" fill="#ba9b48"></path><path d="M17.477 35.351l-.191-.022C6.489 34.051 4.606 25.086 4.505 19.5h1.009c.21 3.837 2.835 10.62 11.706 11.802l.533.071.895-14.873H14.5a1.001 1.001 0 010-2h4.269l.309-5.114a.922.922 0 011.845-.007l.309 5.121H25.5a1.001 1.001 0 010 2h-4.148l.896 14.873.533-.071c8.871-1.183 11.496-7.965 11.706-11.802h1.009c-.102 5.586-1.984 14.551-12.78 15.828l-.191.022L20 38.24l-2.523-2.889z" fill="#ffeea3"></path><path d="M20 9c.227 0 .413.177.424.416l.28 4.644.056.94h4.74a.5.5 0 010 1h-4.68l.064 1.06.831 13.807.065 1.073 1.066-.142c8.842-1.179 11.7-7.744 12.102-11.798h.033c-.205 5.437-2.226 13.637-12.326 14.832l-.382.045-.253.29L20 37.48l-2.02-2.313-.253-.29-.382-.045C7.245 33.637 5.224 25.437 5.019 20h.033c.402 4.054 3.261 10.619 12.103 11.798l1.066.142.065-1.073.831-13.807.063-1.06H14.5a.5.5 0 010-1h4.74l.057-.94.28-4.657A.422.422 0 0120 9m0-1c-.76 0-1.386.597-1.422 1.356L18.298 14H14.5a1.5 1.5 0 000 3h3.617l-.831 13.807C8.356 29.616 6 22.635 6 19H4c0 7.481 2.877 15.6 13.227 16.825L20 39l2.773-3.175C33.123 34.6 36 26.481 36 19h-2c0 3.635-2.356 10.616-11.286 11.807L21.883 17H25.5a1.5 1.5 0 000-3h-3.798l-.28-4.644A1.424 1.424 0 0020 8z" fill="#ba9b48"></path><path d="M1.522 21.486c.258-2.924 2.64-5.15 3.479-5.85.84.692 3.22 2.898 3.476 5.849-2.025-.118-3.185-.89-3.196-.898l-.294-.199-.285.211c-.01.006-1.093.773-3.18.887z" fill="#f5ce85"></path><path d="M5.006 16.295c.875.78 2.469 2.456 2.89 4.631-1.479-.203-2.329-.75-2.334-.753l-.582-.382-.566.399c-.009.007-.793.547-2.308.741.426-2.151 2.025-3.846 2.9-4.636M5 15s-4 2.882-4 7c2.65 0 4-1 4-1s1.471 1 4 1c0-4.161-4-7-4-7z" fill="#967a44"></path><g><path d="M38.478 21.486c-2.087-.114-3.171-.881-3.183-.889l-.281-.204-.293.193c-.013.008-1.19.78-3.198.899.255-2.958 2.635-5.158 3.475-5.849.839.698 3.222 2.925 3.48 5.85z" fill="#f5ce85"></path><path d="M34.996 16.297c.875.791 2.472 2.485 2.897 4.634-1.515-.194-2.297-.733-2.298-.735l-.568-.411-.583.383c-.01.007-.86.554-2.339.757.423-2.163 2.017-3.845 2.891-4.628M35 15s-4 2.839-4 7c2.529 0 4-1 4-1s1.35 1 4 1c0-4.118-4-7-4-7z" fill="#967a44"></path></g></svg>