<svg viewBox="0 0 40 40" xmlns="http://www.w3.org/2000/svg"><path d="M11.3 16.249C9.475 15.18 4.5 11.991 4.5 9V2.137l.011-.019.001-.125a.497.497 0 01.134-.347A.498.498 0 015 1.5c.676.031 1.559.512 2.271 1.228.867.867 1.204 1.752 1.229 2.247A.501.501 0 018 5.5h-.003C7.33 5.5 6.5 6.021 6.5 7v2c0 1.3 1.805 2.911 5.838 5.201L11.3 16.249z" fill="#8bb7f0"></path><path d="M5.014 2.001c.44.027 1.195.369 1.905 1.08C7.737 3.901 7.983 4.673 8 5l-.044-.002h-.023C7.123 4.998 6 5.694 6 7v2c0 1.05.697 2.511 5.677 5.398l-.582 1.149C8.107 13.737 5 11.124 5 9V2.231l.011-.024.003-.206M5 1a1 1 0 00-.709.295.993.993 0 00-.28.693C4.009 1.994 4 1.991 4 2v7c0 3.611 6.258 7.247 7.508 7.944L13 14c-2.553-1.425-6-3.564-6-5V7c0-.713.63-1.001.933-1.001h.021L8 6a1.001 1.001 0 00.999-1.051c-.031-.611-.408-1.608-1.373-2.575-.809-.811-1.798-1.337-2.58-1.373L5 1z" fill="#7496c4"></path><path d="M5 2c.018.344.287 1.123 1.082 1.919C6.8 4.64 7.568 4.98 8 5c-.018-.344-.287-1.123-1.082-1.919C6.199 2.36 5.432 2.02 5 2z"></path><path d="M27.662 14.201C31.695 11.911 33.5 10.3 33.5 9V7c0-.979-.832-1.501-1.434-1.501h-.008c-.196 0-.32-.052-.413-.146a.506.506 0 01-.146-.379c.025-.494.362-1.379 1.228-2.246.714-.716 1.597-1.197 2.25-1.228h.002c.155 0 .281.052.375.147a.493.493 0 01.134.347l.001.125.011.018V9c0 2.991-4.975 6.18-6.8 7.249l-1.038-2.048z" fill="#8bb7f0"></path><path d="M34.989 2.001v.001l.003.226.008.017V9c0 2.124-3.107 4.737-6.095 6.547l-.582-1.149C33.303 11.511 34 10.05 34 9V7c0-1.306-1.123-2.001-1.933-2.001h-.043L32 5c.017-.327.263-1.099 1.081-1.919.713-.714 1.471-1.056 1.908-1.08M35 1l-.046.001c-.782.036-1.771.562-2.58 1.373-.964.967-1.341 1.964-1.372 2.575A1 1 0 0032 6l.046-.001h.021C32.37 5.998 33 6.287 33 7v2c0 1.436-3.447 3.575-6 5l1.492 2.944C29.742 16.247 36 12.611 36 9V2c0-.009-.009-.006-.011-.012a.991.991 0 00-.28-.694A1.003 1.003 0 0035 1z" fill="#7496c4"></path><path d="M35 2c-.018.344-.287 1.123-1.082 1.919C33.2 4.64 32.432 4.98 32 5c.018-.344.287-1.123 1.082-1.919C33.801 2.36 34.568 2.02 35 2z"></path><path d="M19.288 33.626c-2.467 0-4.771-.577-7.045-1.763C8.577 30.378 6.5 26.061 6.5 20c0-7.206 4.637-14.5 13.5-14.5 8.942 0 13.267 7.525 13.5 14.517.186 5.57-2.236 10.492-5.89 11.971-3.374 1.129-5.95 1.638-8.322 1.638z" fill="#c2e8ff"></path><path d="M20 6c8.61 0 12.775 7.274 13.001 14.033.179 5.35-2.102 10.064-5.55 11.479-3.335 1.116-5.854 1.613-8.163 1.613-2.384 0-4.612-.558-6.813-1.706l-.043-.022-.045-.018C8.963 29.994 7 25.847 7 20c0-6.957 4.465-14 13-14m0-1C10.7 5 6 12.724 6 20c0 5.885 1.975 10.673 6.012 12.307 2.463 1.285 4.839 1.819 7.276 1.819 2.697 0 5.468-.656 8.51-1.675C31.856 30.809 34.184 25.507 34 20c-.243-7.285-4.737-15-14-15z" fill="#8bb7f0"></path><path d="M20 38.5c-2.498 0-8.487-3.551-8.487-12.339l-.002-.643c-.015-2.9-.039-7.629 2.328-10.588.824 1.883 3.269 6.57 7.161 6.57h.5V21c0-2.94 3.218-5.489 4.364-6.304 2.42 3.73 2.623 7.407 2.623 11.465 0 8.545-6.149 12.339-8.487 12.339z" fill="#8bb7f0"></path><path d="M25.727 15.419c2.081 3.467 2.261 6.931 2.261 10.741C27.988 34.359 22.2 38 20 38c-2.273 0-7.988-3.522-7.988-11.839l-.002-.646c-.013-2.615-.034-6.756 1.74-9.596C14.864 18.166 17.305 22 21 22h1v-1c0-2.406 2.425-4.585 3.727-5.581M26 14s-5 3.121-5 7c-4.471 0-7-7-7-7-3.244 3.244-2.988 9.042-2.988 12.161C11.012 35.212 17.285 39 20 39c2.696 0 8.988-4.066 8.988-12.84 0-4.035-.176-8.097-2.988-12.16z" fill="#4e7ab5"></path><path d="M24.072 25.429c-2.087 0-2.714-1.357-2.714-1.357l5.429-1.357c-.001-.001-.628 2.714-2.715 2.714z" fill="#c74343"></path><path d="M16.918 32.966l-.749-1.131c.06-.04 1.494-.977 3.832-.977s3.772.938 3.832.977l-.753 1.129c-.008-.005-1.176-.749-3.079-.749s-3.072.743-3.083.751z" fill="#4e7ab5"></path><path d="M25.429 24.071c0-.359-.146-.682-.374-.924l-2.268.567c-.032.116-.072.231-.072.357a1.358 1.358 0 002.714 0z" fill="#212121"></path><path d="M13.215 22.714l5.429 1.357s-.627 1.357-2.714 1.357-2.715-2.714-2.715-2.714z" fill="#c74343"></path><path d="M14.572 24.071c0-.359.146-.682.374-.924l2.268.567c.032.116.072.231.072.357a1.358 1.358 0 01-2.714 0z" fill="#212121"></path></svg>