<svg viewBox="0 0 40 40" xmlns="http://www.w3.org/2000/svg"><path d="M4 34.5A2.503 2.503 0 011.5 32V8c0-1.378 1.122-2.5 2.5-2.5h32c1.378 0 2.5 1.122 2.5 2.5v24c0 1.378-1.122 2.5-2.5 2.5H4z" fill="#b0c1d4"></path><path d="M36 6c1.103 0 2 .897 2 2v24c0 1.103-.897 2-2 2H4c-1.103 0-2-.897-2-2V8c0-1.103.897-2 2-2h32m0-1H4a3 3 0 00-3 3v24a3 3 0 003 3h32a3 3 0 003-3V8a3 3 0 00-3-3z" fill="#66798f"></path><path d="M4 32.5a.5.5 0 01-.5-.5V8a.5.5 0 01.5-.5h30a.5.5 0 01.5.5v24a.5.5 0 01-.5.5H4z" fill="#f2faff"></path><path d="M34 8v24H4V8h30m0-1H4a1 1 0 00-1 1v24a1 1 0 001 1h30a1 1 0 001-1V8a1 1 0 00-1-1z" fill="#788b9c"></path><path fill="none" stroke="#66798f" stroke-miterlimit="10" d="M36.5 22.714v-5.428"></path><path fill="#bae0bd" stroke="#5e9c76" stroke-width=".5" stroke-linecap="round" stroke-miterlimit="10" d="M20.5 14.5l1-2M17.5 14.5l-1-2"></path><path fill="none" stroke="#5e9c76" stroke-linecap="round" stroke-miterlimit="10" d="M16.5 26.5v-4.071M21.5 26.5v-4.071"></path><path d="M15.5 23.5V17c0-1.93 1.57-3.5 3.5-3.5s3.5 1.57 3.5 3.5v6.5h-7z" fill="#bae0bd"></path><path d="M19 14c1.654 0 3 1.346 3 3v6h-6v-6c0-1.654 1.346-3 3-3m0-1a4 4 0 00-4 4v7h8v-7a4 4 0 00-4-4z" fill="#5e9c76"></path><path fill="none" stroke="#5e9c76" stroke-linecap="round" stroke-miterlimit="10" d="M24.5 21v-4M13.5 21v-4M15.607 16.5h6.786"></path><g><circle cx="20" cy="15" r=".5" fill="#5e9c76"></circle></g><g><circle cx="18" cy="15" r=".5" fill="#5e9c76"></circle></g></svg>