<svg viewBox="0 0 40 40" xmlns="http://www.w3.org/2000/svg"><path d="M11.507 37.5c-1.107 0-2.007-.9-2.007-2.007V4.507c0-1.107.9-2.007 2.007-2.007h16.985c1.108 0 2.008.9 2.008 2.007v30.985c0 1.107-.9 2.007-2.007 2.007H11.507z" fill="#b0c1d4"></path><path d="M28.493 3C29.324 3 30 3.676 30 4.507v30.986c0 .831-.676 1.507-1.507 1.507H11.507A1.509 1.509 0 0110 35.493V4.507C10 3.676 10.676 3 11.507 3h16.986m0-1H11.507A2.506 2.506 0 009 4.507v30.986A2.506 2.506 0 0011.507 38h16.986A2.506 2.506 0 0031 35.493V4.507A2.506 2.506 0 0028.493 2z" fill="#66798f"></path><path fill="#f2faff" d="M9.5 5.5h21v28h-21z"></path><path d="M30 6v27H10V6h20m1-1H9v29h22V5z" fill="#66798f"></path><path fill="none" stroke="#66798f" stroke-miterlimit="10" d="M17.5 35.5h5"></path><path fill="#bae0bd" stroke="#5e9c76" stroke-width=".5" stroke-linecap="round" stroke-miterlimit="10" d="M21.5 14.5l1-2M18.5 14.5l-1-2"></path><path fill="none" stroke="#5e9c76" stroke-linecap="round" stroke-miterlimit="10" d="M17.5 26.5v-4.071M22.5 26.5v-4.071"></path><path d="M16.5 23.5V17c0-1.93 1.57-3.5 3.5-3.5s3.5 1.57 3.5 3.5v6.5h-7z" fill="#bae0bd"></path><path d="M20 14c1.654 0 3 1.346 3 3v6h-6v-6c0-1.654 1.346-3 3-3m0-1a4 4 0 00-4 4v7h8v-7a4 4 0 00-4-4z" fill="#5e9c76"></path><path fill="none" stroke="#5e9c76" stroke-linecap="round" stroke-miterlimit="10" d="M25.5 21v-4M14.5 21v-4M16.607 16.5h6.786"></path><g><circle cx="21" cy="15" r=".5" fill="#5e9c76"></circle></g><g><circle cx="19" cy="15" r=".5" fill="#5e9c76"></circle></g></svg>