<svg viewBox="0 0 40 40" xmlns="http://www.w3.org/2000/svg"><path d="M19.991 38.5c-10.103 0-18.222-7.915-18.485-18.019-.265-10.197 7.816-18.71 18.013-18.975.163-.004.327-.006.49-.006 10.103 0 18.222 7.915 18.485 18.019.265 10.197-7.815 18.709-18.013 18.975-.163.004-.327.006-.49.006z" fill="#ffeea3"></path><path d="M20.011 1v1c9.828 0 17.727 7.701 17.983 17.532.258 9.922-7.604 18.204-17.526 18.462-.159.004-.319.006-.477.006-9.829 0-17.729-7.701-17.984-17.532C1.748 10.546 9.61 2.264 19.532 2.006c.159-.004.319-.006.477-.006l.002-1m-.002 0c-.167 0-.336.002-.503.007C9.016 1.279.734 10.004 1.007 20.494 1.275 30.816 9.726 39 19.991 39c.167 0 .336-.002.503-.007 10.49-.273 18.772-8.998 18.499-19.487C38.725 9.184 30.274.999 20.009 1z" fill="#c29653"></path><path d="M30.179 26.429S26.786 30.5 20 30.5 9.821 26.429 9.821 26.429" fill="none" stroke="#c29653" stroke-miterlimit="10"></path><path d="M27 20.5c-1.93 0-3.5-1.57-3.5-3.5s1.57-3.5 3.5-3.5 3.5 1.57 3.5 3.5-1.57 3.5-3.5 3.5z" fill="#fff"></path><path d="M27 14c1.654 0 3 1.346 3 3s-1.346 3-3 3-3-1.346-3-3 1.346-3 3-3m0-1a4 4 0 100 8 4 4 0 000-8z" fill="#c29653"></path><circle cx="27" cy="17" r="1.25" fill="#36404d"></circle><path d="M13 20.5c-1.93 0-3.5-1.57-3.5-3.5s1.57-3.5 3.5-3.5 3.5 1.57 3.5 3.5-1.57 3.5-3.5 3.5z" fill="#fff"></path><path d="M13 14c1.654 0 3 1.346 3 3s-1.346 3-3 3-3-1.346-3-3 1.346-3 3-3m0-1a4 4 0 100 8 4 4 0 000-8zM20.637 1.004c.077.003-.06.008-.289.012 3.308.059 6.413.968 9.11 2.523 2.202.277 3.91.625 5.065.962C32.049 5.225 27.127 6 20 6 12.869 6 7.945 5.224 5.472 4.5c1.168-.342 2.886-.695 5.123-.974a18.784 18.784 0 018.518-2.496c-.276 0-.291-.006.392-.024.167-.004.335-.006.5-.006H20C10.059 1 2 2.567 2 4.5S10.059 8 20 8s18-1.567 18-3.5c0-1.891-7.718-3.43-17.363-3.496z" fill="#c29653"></path><circle cx="13" cy="17" r="1.25" fill="#36404d"></circle></svg>