<svg viewBox="0 0 40 40" xmlns="http://www.w3.org/2000/svg"><path d="M20 38.5C9.799 38.5 1.5 30.201 1.5 20S9.799 1.5 20 1.5 38.5 9.799 38.5 20 30.201 38.5 20 38.5z" fill="#ffeea3"></path><path d="M20 2c9.925 0 18 8.075 18 18s-8.075 18-18 18S2 29.925 2 20 10.075 2 20 2m0-1C9.507 1 1 9.507 1 20s8.507 19 19 19 19-8.507 19-19S30.493 1 20 1z" fill="#c29653"></path><path d="M12.929 20.5c-2.811 0-4.525-3.944-5.163-5.748l8.707 2.612c-.063.521-.275 1.503-.988 2.219-.605.609-1.465.917-2.556.917z" fill="#f78f8f"></path><path d="M8.591 15.521l7.332 2.2c-.19.913-.834 2.279-2.994 2.279-1.991 0-3.5-2.484-4.338-4.479M7 14s1.877 7 5.929 7C17.043 21 17 17 17 17L7 14z" fill="#c74343"></path><path d="M15 30.5s11.679.886 15-2.435c-.875-2.482-2.23-3.488-3.708-3.524-3.779-.09-7.185 6.001-11.292 5.959" fill="#fff"></path><path d="M15 30.5s12.625.5 15-2.435c-.875-2.482-2.23-3.488-3.708-3.524-3.779-.09-7.185 6.001-11.292 5.959-1.553-.016-3.483-.71-5.282-2.946" fill="none" stroke="#c29653" stroke-miterlimit="10"></path><path d="M11 16.5a1.5 1.5 0 003 0c0-.147-.028-.286-.067-.42l-2.398-.719c-.325.275-.535.68-.535 1.139z" fill="#36404d"></path><path d="M27.071 20.5c-1.095 0-1.957-.311-2.563-.922-.714-.722-.923-1.695-.984-2.213l8.708-2.612c-.637 1.803-2.355 5.747-5.161 5.747z" fill="#f78f8f"></path><path d="M31.409 15.521C30.571 17.516 29.062 20 27.071 20c-2.162 0-2.806-1.368-2.995-2.279l7.333-2.2M33 14l-10 3s-.043 4 4.071 4C31.123 21 33 14 33 14z" fill="#c74343"></path><path d="M29 16.5a1.5 1.5 0 01-3 0c0-.147.028-.286.067-.42l2.398-.719c.325.275.535.68.535 1.139z" fill="#36404d"></path><g fill="#c5d4de"><path d="M25 25.272V29.5c.343-.056.678-.116 1-.183v-4.251a3.799 3.799 0 00-1 .206zM22 29.85v-2.702a70.86 70.86 0 00-.822.665l-.178.145v1.962c.333-.02.666-.043 1-.07z"></path></g></svg>