<svg viewBox="0 0 40 40" xmlns="http://www.w3.org/2000/svg"><path fill="none" stroke="#4e7ab5" stroke-miterlimit="10" d="M12.554 32.5h13.571M19.5 4.5v27"></path><circle cx="19.5" cy="4.5" r="2" fill="#8bb7f0"></circle><path d="M19.5 3c.827 0 1.5.673 1.5 1.5S20.327 6 19.5 6 18 5.327 18 4.5 18.673 3 19.5 3m0-1a2.5 2.5 0 100 5 2.5 2.5 0 000-5z" fill="#4e7ab5"></path><path fill="none" stroke="#4e7ab5" stroke-miterlimit="10" d="M27.5 11.5H11.214"></path><path fill="none" stroke="#4e7ab5" stroke-linecap="square" stroke-linejoin="round" stroke-miterlimit="10" d="M11.5 11.5v9"></path><path fill="none" stroke="#4e7ab5" stroke-miterlimit="10" d="M11.179 20.679l-8.143 5.428M27.5 11.5v8.875M27.5 20.5h9M12.5 31.893V38M26.5 31.893V38"></path><circle cx="19.5" cy="11.5" r="2" fill="#8bb7f0"></circle><path d="M19.5 10c.827 0 1.5.673 1.5 1.5s-.673 1.5-1.5 1.5-1.5-.673-1.5-1.5.673-1.5 1.5-1.5m0-1a2.5 2.5 0 100 5 2.5 2.5 0 000-5z" fill="#4e7ab5"></path><circle cx="19.5" cy="18.5" r="2" fill="#8bb7f0"></circle><path d="M19.5 17c.827 0 1.5.673 1.5 1.5s-.673 1.5-1.5 1.5-1.5-.673-1.5-1.5.673-1.5 1.5-1.5m0-1a2.5 2.5 0 100 5 2.5 2.5 0 000-5z" fill="#4e7ab5"></path><circle cx="19.5" cy="25.5" r="2" fill="#8bb7f0"></circle><path d="M19.5 24c.827 0 1.5.673 1.5 1.5s-.673 1.5-1.5 1.5-1.5-.673-1.5-1.5.673-1.5 1.5-1.5m0-1a2.5 2.5 0 100 5 2.5 2.5 0 000-5z" fill="#4e7ab5"></path><circle cx="19.5" cy="32.5" r="2" fill="#8bb7f0"></circle><path d="M19.5 31c.827 0 1.5.673 1.5 1.5s-.673 1.5-1.5 1.5-1.5-.673-1.5-1.5.673-1.5 1.5-1.5m0-1a2.5 2.5 0 100 5 2.5 2.5 0 000-5z" fill="#4e7ab5"></path><circle cx="12.5" cy="32.5" r="2" fill="#8bb7f0"></circle><path d="M12.5 31c.827 0 1.5.673 1.5 1.5s-.673 1.5-1.5 1.5-1.5-.673-1.5-1.5.673-1.5 1.5-1.5m0-1a2.5 2.5 0 100 5 2.5 2.5 0 000-5z" fill="#4e7ab5"></path><circle cx="26.375" cy="32.5" r="2" fill="#8bb7f0"></circle><path d="M26.375 31c.827 0 1.5.673 1.5 1.5s-.673 1.5-1.5 1.5-1.5-.673-1.5-1.5.673-1.5 1.5-1.5m0-1a2.5 2.5 0 100 5 2.5 2.5 0 000-5z" fill="#4e7ab5"></path><g><circle cx="27.5" cy="11.5" r="2" fill="#8bb7f0"></circle><path d="M27.5 10c.827 0 1.5.673 1.5 1.5s-.673 1.5-1.5 1.5-1.5-.673-1.5-1.5.673-1.5 1.5-1.5m0-1a2.5 2.5 0 100 5 2.5 2.5 0 000-5z" fill="#4e7ab5"></path></g><g><circle cx="11.5" cy="11.5" r="2" fill="#8bb7f0"></circle><path d="M11.5 10c.827 0 1.5.673 1.5 1.5s-.673 1.5-1.5 1.5-1.5-.673-1.5-1.5.673-1.5 1.5-1.5m0-1a2.5 2.5 0 100 5 2.5 2.5 0 000-5z" fill="#4e7ab5"></path></g><g><circle cx="11.5" cy="20.5" r="2" fill="#8bb7f0"></circle><path d="M11.5 19c.827 0 1.5.673 1.5 1.5s-.673 1.5-1.5 1.5-1.5-.673-1.5-1.5.673-1.5 1.5-1.5m0-1a2.5 2.5 0 100 5 2.5 2.5 0 000-5z" fill="#4e7ab5"></path></g><g><circle cx="3.5" cy="25.5" r="2" fill="#8bb7f0"></circle><path d="M3.5 24c.827 0 1.5.673 1.5 1.5S4.327 27 3.5 27 2 26.327 2 25.5 2.673 24 3.5 24m0-1a2.5 2.5 0 100 5 2.5 2.5 0 000-5z" fill="#4e7ab5"></path></g><g><circle cx="27.5" cy="20.5" r="2" fill="#8bb7f0"></circle><path d="M27.5 19c.827 0 1.5.673 1.5 1.5s-.673 1.5-1.5 1.5-1.5-.673-1.5-1.5.673-1.5 1.5-1.5m0-1a2.5 2.5 0 100 5 2.5 2.5 0 000-5z" fill="#4e7ab5"></path></g><g><circle cx="36.5" cy="20.5" r="2" fill="#8bb7f0"></circle><path d="M36.5 19c.827 0 1.5.673 1.5 1.5s-.673 1.5-1.5 1.5-1.5-.673-1.5-1.5.673-1.5 1.5-1.5m0-1a2.5 2.5 0 100 5 2.5 2.5 0 000-5z" fill="#4e7ab5"></path></g></svg>