<svg viewBox="0 0 40 40" xmlns="http://www.w3.org/2000/svg"><path fill="#e1ebf2" d="M5.5 38.5v-34h17.293l8.707 8.707V38.5z"></path><path d="M22.586 5L31 13.414V38H6V5h16.586M23 4H5v35h27V13l-9-9z" fill="#788b9c"></path><path fill="#fff" d="M8.5 35.5v-34h17.293l8.707 8.707V35.5z"></path><path d="M25.586 2L34 10.414V35H9V2h16.586M26 1H8v35h27V10l-9-9z" fill="#788b9c"></path><path fill="#fff" d="M25.5 10.5v-9h.293l8.707 8.707v.293z"></path><path d="M26 2.414L33.586 10H26V2.414M26 1h-1v10h10v-1l-9-9z" fill="#788b9c"></path><circle cx="21.5" cy="27.5" r="1.5" fill="#5e9c76"></circle><path fill="#5e9c76" d="M20 13h3v11h-3z"></path></svg>