<svg viewBox="0 0 40 40" xmlns="http://www.w3.org/2000/svg"><path fill="none" stroke="#7a4f34" stroke-linecap="round" stroke-miterlimit="10" d="M12.5 2.5v6h5M6.5 36.5l-.009-13L20 20M6.5 3.5v10L20 18M1.5 24.5l4-6h11"></path><path d="M18 1v7s-.641 2-3 2c0-2.794 1.364-8.115 3-9z" fill="#7a4f34"></path><path fill="none" stroke="#7a4f34" stroke-linecap="round" stroke-miterlimit="10" d="M27.5 2.5v6h-5M33.5 36.5l.009-13L20 20M33.5 3.5v10L20 18M38.5 24.5l-4-6h-11"></path><path d="M22 1v7s.641 2 3 2c0-2.794-1.364-8.115-3-9z" fill="#7a4f34"></path><path d="M20 13.5c-2.053 0-4.5-.629-4.5-3.625 0-2.87 2.077-6.375 4.5-6.375s4.5 3.505 4.5 6.375c0 2.996-2.447 3.625-4.5 3.625z" fill="#a6714e"></path><path d="M20 4c2.06 0 4 3.31 4 5.875C24 10.648 24 13 20 13s-4-2.352-4-3.125C16 7.31 17.94 4 20 4m0-1c-2.761 0-5 3.837-5 6.875S17.239 14 20 14s5-1.087 5-4.125S22.761 3 20 3z" fill="#7a4f34"></path><path d="M20 25.5c-3.047 0-5.5-3.666-5.5-6.7 0-3.99 4.21-4.3 5.5-4.3s5.5.31 5.5 4.3c0 3.034-2.453 6.7-5.5 6.7z" fill="#a6714e"></path><path d="M20 15c1.503 0 5 .37 5 3.8 0 2.791-2.307 6.2-5 6.2s-5-3.409-5-6.2c0-3.43 3.497-3.8 5-3.8m0-1c-3.314 0-6 1.486-6 4.8s2.686 7.2 6 7.2 6-3.886 6-7.2-2.686-4.8-6-4.8z" fill="#7a4f34"></path><g><path d="M20 39.5c-3.462 0-6.5-3.583-6.5-7.667 0-4.641 4.072-5.333 6.5-5.333s6.5.693 6.5 5.333c0 4.084-3.038 7.667-6.5 7.667z" fill="#a6714e"></path><path d="M20 27c2.737 0 6 .839 6 4.833C26 35.651 23.196 39 20 39s-6-3.349-6-7.167C14 27.839 17.263 27 20 27m0-1c-3.866 0-7 1.645-7 5.833S16.134 40 20 40s7-3.979 7-8.167S23.866 26 20 26z" fill="#7a4f34"></path></g></svg>