<svg viewBox="0 0 40 40" xmlns="http://www.w3.org/2000/svg"><path fill="#735f63" d="M2.5 2.5h35v11h-35z"></path><path d="M37 3v10H3V3h34m1-1H2v12h36V2z" fill="#4d3e40"></path><path fill="#877477" d="M3 3h8.5v8H3zM20 3h8.5v8H20z"></path><path fill="#f78f8f" d="M2.5 37.5V10.252l9-6.631L20 9.884l8.5-6.263 9 6.631V37.5z"></path><path d="M28.5 4.242l8.5 6.263V37H3V10.505l8.5-6.263 7.907 5.826.593.437.593-.437L28.5 4.242M28.5 3L20 9.263 11.5 3 2 10v28h36V10l-9.5-7z" fill="#c74343"></path><path fill="#ffeea3" d="M31 12h2v2h-2zM24 12h2v2h-2zM31 16h2v2h-2zM24 16h2v2h-2zM31 20h2v2h-2zM24 20h2v2h-2zM31 24h2v2h-2zM24 24h2v2h-2zM31 28h2v2h-2zM24 28h2v2h-2zM31 32h2v2h-2zM24 32h2v2h-2zM14 12h2v2h-2zM7 12h2v2H7zM14 16h2v2h-2zM7 16h2v2H7zM14 20h2v2h-2zM7 20h2v2H7zM14 24h2v2h-2zM7 24h2v2H7zM14 28h2v2h-2zM7 28h2v2H7zM14 32h2v2h-2zM7 32h2v2H7z"></path></svg>