<svg viewBox="0 0 40 40" xmlns="http://www.w3.org/2000/svg"><path d="M3 33.5c-.827 0-1.5-.673-1.5-1.5V8c0-.827.673-1.5 1.5-1.5h34c.827 0 1.5.673 1.5 1.5v24c0 .827-.673 1.5-1.5 1.5H3z" fill="#c2e8ff"></path><path d="M37 7c.551 0 1 .449 1 1v24c0 .551-.449 1-1 1H3c-.551 0-1-.449-1-1V8c0-.551.449-1 1-1h34m0-1H3a2 2 0 00-2 2v24a2 2 0 002 2h34a2 2 0 002-2V8a2 2 0 00-2-2z" fill="#7496c4"></path><path d="M19 15.192A10.149 10.149 0 0121.024 15c1.153 0 2.133.163 2.768.768.591.517.857 1.344.857 2.186 0 1.079-.324 1.846-.841 2.393-.62.665-1.61.96-2.423.96-.132 0-.251 0-.384-.015V25h-2v-9.808zm2 4.535c.103.015.207.015.325.015.975 0 1.404-.695 1.404-1.625 0-.872-.355-1.551-1.256-1.551-.176 0-.354.029-.473.074v3.087zM26 15h2v10h-2V15zM15.952 25H18l-2.113-10h-2.532L11 25h2.048l.436-2h2.047l.421 2zm-1.42-8.161h.048c.097.653.242 1.662.355 2.27L15.256 21h-1.475l.365-1.89c.112-.579.273-1.603.386-2.271z" fill="#7496c4"></path></svg>