<svg viewBox="0 0 40 40" xmlns="http://www.w3.org/2000/svg"><path d="M4.77 37.5a2.273 2.273 0 01-2.27-2.269V4.769A2.273 2.273 0 014.77 2.5h30.46a2.273 2.273 0 012.27 2.269v30.462a2.273 2.273 0 01-2.27 2.269H4.77z" fill="#8bb7f0"></path><path d="M35.231 3C36.206 3 37 3.794 37 4.769v30.462c0 .975-.794 1.769-1.769 1.769H4.769A1.772 1.772 0 013 35.231V4.769C3 3.794 3.794 3 4.769 3h30.462m0-1H4.769A2.77 2.77 0 002 4.769v30.462A2.77 2.77 0 004.769 38h30.462A2.77 2.77 0 0038 35.231V4.769A2.77 2.77 0 0035.231 2z" fill="#4e7ab5"></path><path d="M20 7c7.168 0 13 5.832 13 13s-5.832 13-13 13S7 27.168 7 20 12.832 7 20 7m0-1C12.28 6 6 12.28 6 20s6.28 14 14 14 14-6.28 14-14S27.72 6 20 6z" fill="#fff"></path><path fill="#fff" d="M12.005 23.929l4.29-7.499 2.109 1.216-4.291 7.499zM18.934 10.054a.452.452 0 01.594.155c.907 1.414 4.155 6.455 6.03 10.074l-1.845.98c-1.973-3.628-4.316-9.063-4.984-10.634a.452.452 0 01.205-.575zM26.679 22.858l-.992-2.331-1.843.981 1.377 2.127zM26.773 23.215l2.037 3.081a1.098 1.098 0 11-1.931 1.026l-1.415-3.411 1.309-.696zM11.179 27.984l2.776-2.569-2.107-1.217-.841 3.686zM16.439 16.18l1.093-1.896L19.64 15.5l-1.093 1.895zM19.82 15.189l-.004.008-2.107-1.217.004-.008a1.217 1.217 0 011.663-.446c.58.337.78 1.082.444 1.663z"></path><g fill="#fff"><path d="M26.108 20.362L26.806 22H29v-3.01h-3.624c.206.375.406.744.588 1.096.022.042.121.219.144.276zM23.683 22l-.168-.26a4.422 4.422 0 01-.146-.273 67.444 67.444 0 01-1.272-2.476h-3.939L16.422 22h7.261zM12.622 22l1.737-3.01H11V22z"></path></g></svg>