<svg viewBox="0 0 40 40" xmlns="http://www.w3.org/2000/svg"><path d="M19.999 38.458c-1.707-.743-15.364-7.474-15.498-32.091L20 1.524l15.499 4.843c-.134 24.552-13.792 31.341-15.5 32.091z" fill="#c2e8ff"></path><path d="M20 2.048l14.996 4.686c-.258 23.19-12.752 30.119-15 31.177C17.735 36.869 5.26 30.057 5.004 6.734L20 2.048M20 1L4 6c0 27.141 16 33 16 33s16-5.932 16-33L20 1z" fill="#7496c4"></path><path fill="#fff" d="M11.5 11.5h17v13h-17z"></path><path d="M28 12v12H12V12h16m1-1H11v14h18V11z" fill="#788b9c"></path><path fill="#788b9c" d="M11 11h18v3H11z"></path><path fill="#ffeea3" d="M26 12h1v1h-1zM24 12h1v1h-1z"></path></svg>