<svg viewBox="0 0 40 40" xmlns="http://www.w3.org/2000/svg"><path d="M19.476 9.483c-1.186-.068-4.192-.407-5.873-2.086-1.683-1.683-2.02-4.673-2.087-5.873 1.213.083 4.252.453 5.88 2.08 1.627 1.626 1.997 4.666 2.08 5.879z" fill="#bae0bd"></path><path d="M12.06 2.073c1.357.146 3.682.583 4.983 1.884 1.301 1.301 1.737 3.625 1.884 4.982-1.335-.133-3.628-.555-4.969-1.896-1.345-1.344-1.766-3.631-1.898-4.97M11 1s-.057 4.443 2.25 6.75C15.448 9.948 19.584 10 19.971 10H20s-.022-4.522-2.25-6.75C15.522 1.022 11 1 11 1z" fill="#5e9c76"></path><path d="M22.5.5s-4.171 3.636-2.481 10.29" fill="none" stroke="#7a4f34" stroke-linecap="round" stroke-miterlimit="10"></path><path d="M22.769 38.5c-1.005 0-1.801-.277-2.435-.848L20 37.351l-.334.301c-.633.57-1.429.848-2.435.848C12.318 38.5 2.5 30.596 2.5 20.217 2.5 11.868 7.821 7.5 13.077 7.5c2.701 0 4.962.989 6.541 2.86l.382.453.382-.453c1.578-1.871 3.84-2.86 6.541-2.86 5.256 0 10.577 4.368 10.577 12.717 0 10.379-9.818 18.283-14.731 18.283z" fill="#f78f8f"></path><path d="M26.923 8C31.931 8 37 12.197 37 20.217 37 30.312 27.516 38 22.769 38c-.888 0-1.556-.228-2.1-.719L20 36.678l-.67.604c-.544.49-1.211.719-2.1.719C12.484 38 3 30.312 3 20.217 3 12.197 8.069 8 13.077 8c2.549 0 4.678.928 6.159 2.682l.764.906.764-.906C22.245 8.928 24.375 8 26.923 8m0-1c-2.714 0-5.164.952-6.923 3.037C18.241 7.952 15.791 7 13.077 7 7.724 7 2 11.381 2 20.217 2 30.723 11.878 39 17.231 39c1.14 0 2.044-.322 2.769-.976.725.654 1.629.976 2.769.976C28.122 39 38 30.675 38 20.217 38 11.381 32.276 7 26.923 7z" fill="#c74343"></path><path d="M26.923 8C23.828 8 21.608 9.256 20 11.564v25.111c.938.944 1.559 1.325 2.769 1.325C27.516 38 37 30.312 37 20.217 37 12.197 31.931 8 26.923 8z" fill="#fff7d1"></path><path d="M25 21.34c0 1.139-1 2.68-1 2.68s-1-1.44-1-2.68c0-.74.448-1.34 1-1.34s1 .6 1 1.34z" fill="#a6714e"></path></svg>