<svg viewBox="0 0 40 40" xmlns="http://www.w3.org/2000/svg"><path d="M12.712 7.5c.578-.592.887-1.627 1.403-3.354.119-.4.25-.839.399-1.32C14.828 1.81 16.11 1.5 20 1.5s5.172.31 5.486 1.325c.148.481.28.92.399 1.32.516 1.727.825 2.762 1.403 3.354H12.712z" fill="#b0c1d4"></path><path d="M20 2c3.937 0 4.818.357 5.008.973.148.479.278.916.397 1.314.347 1.161.612 2.048.945 2.713h-12.7c.333-.665.598-1.552.945-2.713.119-.398.249-.835.397-1.314C15.182 2.357 16.063 2 20 2m0-1c-4.015 0-5.542.312-5.964 1.678C13.144 5.567 12.879 6.95 12 7.416V8h16v-.584c-.879-.466-1.144-1.85-2.036-4.738C25.542 1.312 24.015 1 20 1z" fill="#66798f"></path><path d="M20 38.5c-3.89 0-5.172-.31-5.486-1.325-.148-.481-.28-.92-.399-1.32-.516-1.727-.825-2.762-1.403-3.354h14.576c-.578.592-.887 1.627-1.403 3.354-.119.4-.25.839-.399 1.32C25.172 38.19 23.89 38.5 20 38.5z" fill="#b0c1d4"></path><path d="M26.35 33c-.333.665-.598 1.552-.945 2.713-.119.398-.249.835-.397 1.314-.19.616-1.071.973-5.008.973s-4.818-.357-5.008-.973c-.148-.479-.278-.916-.397-1.314-.347-1.161-.611-2.048-.945-2.713h12.7M28 32H12v.584c.879.466 1.144 1.85 2.036 4.738C14.458 38.688 15.985 39 20 39s5.542-.312 5.964-1.678c.892-2.889 1.157-4.272 2.036-4.738V32z" fill="#66798f"></path><path d="M14 32.5A4.505 4.505 0 019.5 28V12c0-2.481 2.019-4.5 4.5-4.5h12c2.481 0 4.5 2.019 4.5 4.5v16c0 2.481-2.019 4.5-4.5 4.5H14z" fill="#f2faff"></path><path d="M26 8c2.206 0 4 1.794 4 4v16c0 2.206-1.794 4-4 4H14c-2.206 0-4-1.794-4-4V12c0-2.206 1.794-4 4-4h12m0-1H14a5 5 0 00-5 5v16a5 5 0 005 5h12a5 5 0 005-5V12a5 5 0 00-5-5z" fill="#788b9c"></path><path d="M26 31H14a3 3 0 01-3-3V12a3 3 0 013-3h12a3 3 0 013 3v16a3 3 0 01-3 3z" fill="#424e5c"></path><path d="M30 18h.882c.617 0 1.118-.501 1.118-1.118v-2.764c0-.617-.501-1.118-1.118-1.118H30v5z" fill="#788b9c"></path><circle cx="20" cy="20" r="3" fill="#fff"></circle><circle cx="24.5" cy="12.5" r="1.5" fill="#fff"></circle><circle cx="25" cy="17" r="2" fill="#f78f8f"></circle><circle cx="15" cy="24" r="2" fill="#ffeea3"></circle><circle cx="26" cy="22" r="2" fill="#c2e8ff"></circle><circle cx="23.5" cy="25.5" r="1.5" fill="#bae0bd"></circle><circle cx="17" cy="12" r="1" fill="#bae0bd"></circle><circle cx="14.5" cy="19.5" r="1.5" fill="#bae0bd"></circle><circle cx="15.5" cy="15.5" r="1.5" fill="#f78f8f"></circle><circle cx="20.321" cy="14.536" r="2" fill="#8bb7f0"></circle><circle cx="19.5" cy="26.5" r="1.5" fill="#ffeea3"></circle></svg>