<svg viewBox="0 0 40 40" xmlns="http://www.w3.org/2000/svg"><path d="M8.545 37.5A6.052 6.052 0 012.5 31.455V8.545A6.052 6.052 0 018.545 2.5h22.909a6.052 6.052 0 016.045 6.045v22.909a6.052 6.052 0 01-6.045 6.045H8.545z" fill="#b0c1d4"></path><path d="M31.455 3A5.552 5.552 0 0137 8.545v22.909A5.552 5.552 0 0131.455 37H8.545A5.552 5.552 0 013 31.455V8.545A5.552 5.552 0 018.545 3h22.91m0-1H8.545C4.945 2 2 4.945 2 8.545v22.909C2 35.055 4.945 38 8.545 38h22.909c3.6 0 6.545-2.945 6.545-6.545V8.545C38 4.945 35.055 2 31.455 2z" fill="#66798f"></path><path d="M12.78 15.592c.397-.477 1.032-.794 1.588-.874a2.322 2.322 0 01-.477 1.668c-.397.477-.953.794-1.588.794-.159-.555.08-1.111.477-1.588zm3.415 8.022c-.477.635-1.112 1.509-1.827 1.509-.715 0-.874-.477-1.747-.397-.953 0-1.112.477-1.827.397-.794 0-1.35-.715-1.747-1.43-1.191-1.827-1.35-4.051-.556-5.242.556-.794 1.35-1.271 2.144-1.271s1.35.477 1.986.477c.635 0 1.032-.477 1.986-.477.715 0 1.43.397 1.986 1.032-1.747.953-1.43 3.415.318 4.13-.319.557-.478.795-.716 1.272z" fill="#2d3540"></path><g fill="#2d3540"><path d="M21.04 15.354v1.827h2.065v1.112H21.04v4.289c0 .953.238 1.509 1.112 1.509.397 0 .635 0 .794-.079l.079 1.112c-.238.079-.715.159-1.271.159a2.217 2.217 0 01-1.588-.635c-.397-.477-.556-1.112-.556-2.065v-4.289h-1.191V17.18h1.191v-1.43l1.43-.396zM26.043 17.18l1.588 4.448c.238.715.477 1.35.635 2.065h.079c.159-.635.397-1.271.635-2.065l1.509-4.448H32l-3.097 7.942h-1.35l-3.018-7.942h1.508z"></path></g></svg>