<svg viewBox="0 0 40 40" xmlns="http://www.w3.org/2000/svg"><path d="M12.712 7.5c.578-.592.887-1.627 1.403-3.354.119-.4.25-.839.399-1.32C14.828 1.81 16.11 1.5 20 1.5s5.172.31 5.486 1.325c.148.481.28.92.399 1.32.516 1.727.825 2.762 1.403 3.354H12.712z" fill="#b0c1d4"></path><path d="M20 2c3.937 0 4.818.357 5.008.973.148.479.278.916.397 1.314.347 1.161.612 2.048.945 2.713h-12.7c.333-.665.598-1.552.945-2.713.119-.398.249-.835.397-1.314C15.182 2.357 16.063 2 20 2m0-1c-4.015 0-5.542.312-5.964 1.678C13.144 5.567 12.879 6.95 12 7.416V8h16v-.584c-.879-.466-1.144-1.85-2.036-4.738C25.542 1.312 24.015 1 20 1z" fill="#66798f"></path><path d="M20 38.5c-3.89 0-5.172-.31-5.486-1.325-.148-.481-.28-.92-.399-1.32-.516-1.727-.825-2.762-1.403-3.354h14.576c-.578.592-.887 1.627-1.403 3.354-.119.4-.25.839-.399 1.32C25.172 38.19 23.89 38.5 20 38.5z" fill="#b0c1d4"></path><path d="M26.35 33c-.333.665-.598 1.552-.945 2.713-.119.398-.249.835-.397 1.314-.19.616-1.071.973-5.008.973s-4.818-.357-5.008-.973c-.148-.479-.278-.916-.397-1.314-.347-1.161-.611-2.048-.945-2.713h12.7M28 32H12v.584c.879.466 1.144 1.85 2.036 4.738C14.458 38.688 15.985 39 20 39s5.542-.312 5.964-1.678c.892-2.889 1.157-4.272 2.036-4.738V32z" fill="#66798f"></path><path d="M14 32.5A4.505 4.505 0 019.5 28V12c0-2.481 2.019-4.5 4.5-4.5h12c2.481 0 4.5 2.019 4.5 4.5v16c0 2.481-2.019 4.5-4.5 4.5H14z" fill="#f2faff"></path><path d="M26 8c2.206 0 4 1.794 4 4v16c0 2.206-1.794 4-4 4H14c-2.206 0-4-1.794-4-4V12c0-2.206 1.794-4 4-4h12m0-1H14a5 5 0 00-5 5v16a5 5 0 005 5h12a5 5 0 005-5V12a5 5 0 00-5-5z" fill="#788b9c"></path><path d="M26 31H14a3 3 0 01-3-3V12a3 3 0 013-3h12a3 3 0 013 3v16a3 3 0 01-3 3z" fill="#424e5c"></path><path d="M30 18h.882c.617 0 1.118-.501 1.118-1.118v-2.764c0-.617-.501-1.118-1.118-1.118H30v5z" fill="#788b9c"></path><g><path d="M20 13H19.977h-.047-.024-.015-.015-.008-.016-.001l-.023.001a8.74 8.74 0 00-.327.015l.07.998c.141-.009.285-.014.429-.014v-1zm-1.973.282a.372.372 0 00-.026.008H18l-.014.004-.002.001-.004.001-.003.001-.006.002-.003.001-.003.001-.005.001-.003.001-.004.001-.003.001-.006.002h-.001l-.007.002h-.001l-.007.002-.007.002h-.001l-.007.002-.007.002h-.001l-.007.002-.015.005-.156.051a.019.019 0 01-.007.002h-.001a.049.049 0 00-.007.003l-.006.002-.002.001-.006.002-.002.001-.006.002-.003.001-.004.001-.005.002-.003.001-.003.001-.003.001-.013.005h-.001c-.035.013-.071.025-.106.039l.35.937c.133-.05.269-.095.406-.135l-.278-.959zm-1.813.829a6.774 6.774 0 00-.316.216l-.012.009-.001.001-.006.004a.018.018 0 00-.005.004l-.002.001-.005.003-.002.002-.004.003-.002.002-.003.002-.005.003-.002.002-.003.002-.002.002-.006.004-.001.001-.004.003-.001.001-.012.009-.016.012.6.8c.114-.086.232-.167.352-.245l-.542-.841zm-1.506 1.306l-.008.009-.001.001-.003.004-.001.002a.022.022 0 00-.004.005l-.002.003-.002.002-.003.004-.001.002-.004.005-.001.001-.009.011-.001.001a3.794 3.794 0 00-.114.138.106.106 0 01-.01.012l-.009.012-.001.001-.004.006v.001l-.004.005-.001.002-.004.005-.001.001-.004.004-.002.002-.003.004-.002.002-.003.004-.002.002-.003.004-.002.003-.003.003-.001.002-.003.004-.003.004-.002.003-.002.003-.002.002-.004.005-.001.001-.003.004-.001.002-.005.006-.001.001-.003.004-.001.001a.03.03 0 00-.005.007v.001l-.003.004-.001.001a.106.106 0 01-.009.011l-.001.001-.009.012-.001.001-.006.007-.003.003-.001.002-.004.006-.002.002-.002.003-.002.003-.002.003-.003.005-.002.002-.003.003-.002.002-.004.005-.001.001-.004.005-.001.001.8.6a6.23 6.23 0 01.269-.334l-.754-.66zm-1.078 1.677a.049.049 0 01-.003.007l-.001.001a.017.017 0 00-.002.005l-.001.001-.006.014a6.786 6.786 0 00-.178.433l.937.349c.05-.134.105-.266.164-.395l-.91-.415zm-.56 1.912l-.016.118v.001l-.001.009v.011l-.001.006v.001l-.001.006v.002l-.001.006v.001l-.001.007v.001l-.001.007a8.26 8.26 0 00-.03.32l.998.07c.01-.144.025-.286.045-.426l-.991-.14zm.991 1.852l-.99.142v.001l.001.006v.002l.001.005v.001l.002.015v.001c.012.083.026.165.041.247l.001.007v.001l.001.007.001.006v.002l.001.005v.003l.001.005.001.003.001.004.001.003.001.006.001.004v.002l.001.004.002.011.029.14.977-.212a6.375 6.375 0 01-.074-.421zm.481 1.638l-.909.416.048.103.001.001.002.004.004.008.001.002.002.004.001.003.002.005.002.003.001.003.002.003.002.004.002.004.001.003.002.004.001.002a.022.022 0 00.003.005l.001.002.002.004.001.001.003.006.001.002.002.005.001.001.003.006.001.001.003.005.001.001.003.006v.001a.022.022 0 00.003.005l.001.001.003.006.001.001a.022.022 0 00.003.005l.001.001.003.007v.001l.003.006v.001a.049.049 0 00.003.007l.003.006.001.002.003.006.003.006.001.002.003.006v.001l.003.006.001.002.002.004.001.003.002.005.001.003.002.003.002.004.002.003.002.003.001.002.006.012.001.001.064.12.877-.481a4.954 4.954 0 01-.192-.378zm.926 1.436l-.755.656.028.032.001.001.003.003.003.004.002.002.003.004.001.001.01.011c.093.105.19.207.289.307l.707-.708a5.75 5.75 0 01-.292-.313zm1.292 1.119l-.541.841c.059.038.119.075.179.111l.006.003.001.001.006.004.002.001.004.003.001.001.006.004.003.002.003.002.003.002.002.001.006.004.001.001.005.003c.063.037.128.074.192.109h.001l.004.002.002.001.003.002.479-.878a7.148 7.148 0 01-.368-.22zm1.553.709l-.281.96.089.025h.001l.007.002.007.002.002.001.005.001.002.001.006.002.003.001.003.001.003.001.003.001.006.002.002.001.004.001h.001a.03.03 0 00.009.002h.001l.005.001.015.004.015.004.052.013.015.004h.001l.015.004h.001l.005.001a.036.036 0 00.01.002h.001l.005.001h.001l.014.004h.001l.015.004h.002l.005.001h.001l.008.002.002.001.004.001h.001l.008.002h.001l.005.001h.001l.009.002h.001l.004.001.002.001.004.001.003.001.006.001.002.001.004.001.002.001.007.002h.001l.005.001h.001l.008.002h.002l.004.001h.002l.014.003h.001l.016.003.019.004.211-.978a4.906 4.906 0 01-.41-.102zm2.122.225c-.142.01-.285.015-.43.015l.001 1 .129-.001H20.234l.023-.001.155-.007.015-.001H20.477l.028-.002-.07-1.003zm1.668-.364c-.133.05-.268.095-.406.135l.282.959.007-.002h.001l.007-.002h.001l.006-.002.002-.001.005-.002.002-.001.005-.002.003-.001.004-.001.004-.001.005-.001.003-.001.003-.001.003-.001.005-.002.004-.001.003-.001.004-.001.003-.001.006-.002.003-.001.004-.001.003-.001.006-.002.003-.001.004-.001h.002l.008-.002.002-.001.004-.001.002-.001a.019.019 0 01.007-.002l.002-.001.004-.001.002-.001.013-.004.002-.001.004-.001.003-.001.006-.002.003-.001.004-.001.003-.001.006-.002.003-.001.003-.001.004-.001.004-.001.004-.001.003-.001.004-.001.004-.001.005-.002.003-.001.004-.001.002-.001.006-.002.003-.001.004-.001.003-.001.006-.002h.001l.005-.002.002-.001.006-.002h.001l.005-.002.002-.001.006-.002h.001l.006-.002.002-.001.005-.002h.001l.007-.002.002-.001.005-.002h.001l.006-.002.002-.001.005-.002.002-.001.007-.002.002-.001.005-.002.002-.001.006-.002.002-.001.005-.002.003-.001.004-.002.004-.001.004-.001.003-.001.004-.001.004-.001.004-.001.003-.001.003-.001.005-.002.003-.001.004-.001.002-.001.014-.005.062-.023-.355-.935zM23.6 24.8a5.387 5.387 0 01-.352.245l.542.84.056-.037.001-.001a.008.008 0 01.004-.002l.003-.002.004-.002.004-.003.002-.001.005-.003.001-.001.006-.004.001-.001.012-.008c.041-.027.082-.055.122-.084l.012-.009h.001a.083.083 0 01.012-.008l.002-.001.004-.003.002-.001.004-.003.003-.002.003-.002a.018.018 0 00.005-.004l.002-.001.004-.003.001-.001.135-.099-.601-.799zm1.208-1.21a5.774 5.774 0 01-.269.334l.756.654c.051-.059.101-.119.15-.18a.106.106 0 01.01-.012l.005-.006.005-.006.001-.001.004-.005v-.001l.004-.006.001-.001a.018.018 0 01.004-.005l.001-.001.004-.005.001-.002.003-.004.001-.001.004-.005.002-.002.003-.003.002-.002a.018.018 0 01.004-.005l.002-.002.002-.003.002-.002.003-.003.003-.004.001-.002.003-.003.001-.001.005-.007.001-.001.082-.108-.801-.599zm.818-1.5a6.21 6.21 0 01-.163.396l.91.415a.2.2 0 01.01-.021l.003-.006v-.001l.003-.006.001-.001.002-.005.001-.002.003-.006.001-.002.002-.004.001-.003.001-.003.003-.006.001-.002.002-.004v-.001c.056-.128.109-.257.158-.388l-.939-.35zm.359-1.669c-.01.144-.025.286-.045.426l.99.14c.023-.164.041-.33.052-.497l-.997-.069zm.854-1.919l-.977.213c.03.139.056.279.076.421l.99-.142-.009-.059v-.001l-.001-.005v-.003l-.001-.004-.001-.006v-.003l-.001-.005v-.002l-.001-.007v-.001l-.001-.006v-.001l-.002-.015a6.375 6.375 0 00-.057-.307l-.003-.015-.003-.015v-.001l-.001-.007v-.001l-.002-.007-.001-.007v-.001c-.003-.003-.004-.008-.005-.013zm-.699-1.866l-.877.481c.069.125.133.252.193.382l.909-.417a.592.592 0 00-.012-.025l-.002-.005a.03.03 0 00-.004-.008l-.001-.002-.002-.003-.002-.003-.002-.004-.002-.004-.001-.003-.002-.005v-.001l-.003-.006-.001-.002-.006-.013v-.001a6.533 6.533 0 00-.118-.237l-.007-.013-.001-.001-.003-.006-.003-.006-.001-.001-.003-.005-.001-.001-.003-.006-.001-.002-.002-.004-.001-.002-.003-.005-.002-.003-.001-.003-.002-.003-.004-.008-.001-.001-.007-.013a.506.506 0 00-.021-.041zm-1.198-1.594l-.706.708c.101.101.199.205.293.313l.754-.656a7.326 7.326 0 00-.341-.365zm-1.597-1.193l-.479.878c.126.068.249.141.369.218l.54-.842-.055-.035-.001-.001-.005-.003-.003-.002-.003-.002-.003-.002-.002-.001-.005-.003-.002-.001-.005-.003-.001-.001-.006-.004h-.001l-.006-.004-.013-.008a8.727 8.727 0 00-.208-.123l-.111-.061zm-1.868-.693l-.21.978c.14.03.279.065.415.105l.28-.96a9.203 9.203 0 00-.157-.044l-.015-.004h-.001a.074.074 0 01-.014-.004h-.001l-.006-.002h-.001l-.007-.002h-.002l-.005-.001h-.002l-.007-.002h-.002l-.005-.001h-.002l-.007-.002-.002-.001-.004-.001-.003-.001-.004-.001-.004-.001-.005-.001-.003-.001-.003-.001-.004-.001-.005-.001-.003-.001-.003-.001-.003-.001-.004-.001-.005-.001-.003-.001-.004-.001-.003-.001-.007-.002-.002-.001-.004-.001-.002-.001-.008-.002h-.001l-.005-.001-.002-.001-.009-.002-.004-.001h-.002l-.014-.003h-.002l-.004-.001h-.001l-.008-.002h-.002l-.004-.001-.003-.001-.006-.001-.003-.001-.004-.001-.003-.001-.004-.001-.005-.001-.004-.001-.003-.001-.004-.001-.004-.001-.005-.001-.003-.001-.003-.001-.004-.001-.004-.001-.004-.001-.003-.001-.004-.001-.003-.001-.006-.001-.002-.001-.005-.001h-.002l-.006-.001h-.002l-.005-.001-.001.001z" fill="#66798f"></path></g><g><circle cx="20" cy="20" r="1" fill="#f2faff"></circle></g><path fill="none" stroke="#f2faff" stroke-width=".5" stroke-linecap="round" stroke-miterlimit="10" d="M23.318 16.682L20 20l2.323 2.323"></path></svg>