<svg viewBox="0 0 40 40" xmlns="http://www.w3.org/2000/svg"><path fill="#bae0bd" d="M2.5 2.5h35v35h-35z"></path><path d="M37 3v34H3V3h34m1-1H2v36h36V2z" fill="#5e9c76"></path><path d="M25.806 18c-3.806 0-7.794-4-11.611-4-1.91 0-3.644.344-5.194.988v2c1.549-.644 3.284-.988 5.193-.988 3.806 0 7.794 4 11.611 4 1.91 0 3.644-.344 5.194-.988v-2c-1.549.644-3.284.988-5.193.988zM25.806 24c-3.806 0-7.794-4-11.611-4-1.91 0-3.644.344-5.194.988v2c1.549-.644 3.284-.988 5.193-.988 3.806 0 7.794 4 11.611 4 1.91 0 3.644-.344 5.194-.988v-2c-1.549.644-3.284.988-5.193.988z" fill="#5e9c76"></path><g><path fill="#5e9c76" d="M14.237 9H11.87l13.895 22h2.365z"></path></g></svg>