<svg viewBox="0 0 40 40" xmlns="http://www.w3.org/2000/svg"><path fill="#bae0bd" d="M15.608 36.388h-5.069l-2.535-4.392-4.392-2.535v-5.07L1.077 20l2.535-4.391v-5.07l4.392-2.535 2.535-4.392h5.069L20 1.077l4.392 2.535h5.069l2.535 4.392 4.392 2.535v5.07L38.923 20l-2.535 4.391v5.07l-4.392 2.535-2.535 4.392h-5.069L20 38.923z"></path><path d="M20 1.655l4.025 2.324.232.134H29.173l2.324 4.025.133.232.232.134 4.025 2.324V15.744l.134.232L38.345 20l-2.324 4.025-.134.232V29.173l-4.025 2.324-.232.133-.134.232-2.324 4.025H24.256l-.232.134L20 38.345l-4.025-2.324-.232-.134H10.827l-2.324-4.025-.133-.232-.232-.134-4.025-2.324V24.256l-.134-.232L1.655 20l2.324-4.025.134-.232V10.827l4.025-2.324.232-.133.134-.232 2.324-4.025H15.744l.232-.134L20 1.655M20 .5l-4.525 2.612H10.25L7.637 7.637 3.113 10.25v5.225L.5 20l2.613 4.525v5.225l4.525 2.612 2.613 4.525h5.225L20 39.5l4.525-2.612h5.225l2.613-4.525 4.525-2.612v-5.225L39.5 20l-2.613-4.525V10.25l-4.525-2.613-2.612-4.525h-5.225L20 .5z" fill="#5e9c76"></path><path fill="none" stroke="#fff" stroke-width="3" stroke-miterlimit="10" d="M11.179 20.052l5.846 5.846 13.154-13.153"></path></svg>