<svg viewBox="0 0 40 40" xmlns="http://www.w3.org/2000/svg"><path d="M16.5 38.5c-6.617 0-12-6.729-12-15s5.383-15 12-15 12 6.729 12 15-5.383 15-12 15z" fill="#ffeea3"></path><path d="M16.5 9C22.841 9 28 15.505 28 23.5S22.841 38 16.5 38 5 31.495 5 23.5 10.159 9 16.5 9m0-1C9.596 8 4 14.94 4 23.5S9.596 39 16.5 39 29 32.06 29 23.5 23.404 8 16.5 8z" fill="#ba9b48"></path><path d="M13.5 1.5s4.963 1.295 5.5 8" fill="none" stroke="#967a44" stroke-linecap="round" stroke-linejoin="round" stroke-miterlimit="10"></path><path d="M19.501 8.499c.008-1.109.221-3.999 2.11-5.889C23.494.727 26.325.505 27.499.5c-.018 1.117-.249 4.037-2.105 5.894-1.876 1.875-4.846 2.091-5.893 2.105z" fill="#bae0bd"></path><path d="M26.981 1.016c-.078 1.262-.438 3.521-1.941 5.024-1.499 1.499-3.782 1.859-5.024 1.939.07-1.251.421-3.486 1.95-5.014 1.518-1.52 3.73-1.878 5.015-1.949M27.539 0c-1.148 0-4.229.205-6.281 2.257-2.565 2.565-2.245 6.734-2.245 6.734s.133.009.367.009c1.08 0 4.298-.184 6.367-2.253C28.264 4.23 27.992.013 27.992.013S27.825 0 27.539 0z" fill="#5e9c76"></path><path d="M23.5 38.5c-6.617 0-12-6.729-12-15s5.383-15 12-15 12 6.729 12 15-5.383 15-12 15z" fill="#ffeea3"></path><path d="M23.5 9C29.841 9 35 15.505 35 23.5S29.841 38 23.5 38 12 31.495 12 23.5 17.159 9 23.5 9m0-1C16.596 8 11 14.94 11 23.5S16.596 39 23.5 39 36 32.06 36 23.5 30.404 8 23.5 8z" fill="#ba9b48"></path><path d="M18 13h-5.769C10.85 15.763 10 19.444 10 23.5c0 3.584.665 6.874 1.77 9.5H18V13z" fill="#ffeea3"></path><circle cx="28.5" cy="33.5" r=".5" fill="#967a44"></circle><circle cx="31.5" cy="29.5" r=".5" fill="#967a44"></circle><circle cx="32.5" cy="24.5" r=".5" fill="#967a44"></circle><circle cx="32.5" cy="20.5" r=".5" fill="#967a44"></circle><circle cx="28.5" cy="28.5" r=".5" fill="#967a44"></circle><circle cx="29.5" cy="24.5" r=".5" fill="#967a44"></circle><circle cx="26.5" cy="31.5" r=".5" fill="#967a44"></circle><circle cx="24.5" cy="35.5" r=".5" fill="#967a44"></circle></svg>