<svg viewBox="0 0 40 40" xmlns="http://www.w3.org/2000/svg"><path d="M11.906 37.5a4.935 4.935 0 01-2.928-.952C4.226 33.016 1.5 27.609 1.5 21.714c0-10.201 8.299-18.5 18.5-18.5.706 0 1.424.04 2.133.12 8.381.936 15.205 7.688 16.226 16.055.818 6.702-1.912 13.107-7.301 17.132a4.988 4.988 0 01-2.967.979H11.906z" fill="#dbf2ff"></path><path d="M20 3.714c.687 0 1.386.039 2.077.116 8.153.911 14.791 7.48 15.784 15.619.796 6.522-1.86 12.754-7.104 16.671a4.472 4.472 0 01-2.666.88H11.906a4.43 4.43 0 01-2.63-.854C4.652 32.709 2 27.449 2 21.714c0-9.925 8.075-18 18-18m0-1c-10.494 0-19 8.506-19 19 0 6.247 3.025 11.775 7.68 15.235A5.408 5.408 0 0011.906 38H28.09a5.463 5.463 0 003.266-1.078c5.219-3.898 8.376-10.399 7.498-17.593-1.05-8.604-8.052-15.53-16.666-16.492A19.798 19.798 0 0020 2.714z" fill="#4e7ab5"></path><path d="M11.906 37.5a4.935 4.935 0 01-2.928-.952C4.226 33.016 1.5 27.609 1.5 21.714c0-3.24.849-6.419 2.458-9.214h32.079a18.025 18.025 0 012.322 6.889c.818 6.702-1.912 13.107-7.301 17.132a4.988 4.988 0 01-2.967.979H11.906z" fill="#8bb7f0"></path><path d="M35.746 13a17.51 17.51 0 012.116 6.45c.796 6.522-1.86 12.754-7.104 16.671a4.483 4.483 0 01-2.667.879H11.906a4.43 4.43 0 01-2.63-.854C4.652 32.709 2 27.449 2 21.714c0-3.055.776-6.056 2.249-8.714h31.497m.576-1H3.671A18.907 18.907 0 001 21.714c0 6.247 3.024 11.775 7.68 15.235A5.408 5.408 0 0011.906 38H28.09a5.463 5.463 0 003.266-1.078c5.219-3.898 8.376-10.399 7.498-17.593A18.635 18.635 0 0036.322 12z" fill="#4e7ab5"></path><path d="M11 5.5c-.827 0-1.5-.673-1.5-1.5s.673-1.5 1.5-1.5h18c.827 0 1.5.673 1.5 1.5s-.673 1.5-1.5 1.5H11z" fill="#dbf2ff"></path><path d="M29 3c.551 0 1 .449 1 1s-.449 1-1 1H11c-.551 0-1-.449-1-1s.449-1 1-1h18m0-1H11a2 2 0 100 4h18a2 2 0 100-4z" fill="#4e7ab5"></path><circle cx="31.5" cy="20.5" r="1.5" fill="#dbf2ff"></circle><path d="M16.5 29.419c-1.146-.475-2.249-1.075-3.108-1.689A7.813 7.813 0 0110 28.5h-.738l1.2-3-1.2-3H10c1.531 0 2.648.361 3.377.718 1.829-1.345 4.956-2.718 7.837-2.718 4.688 0 7.127 4.574 7.229 4.769l.109.209-.093.217c-.083.196-2.105 4.804-7.246 4.804-.465 0-.977-.046-1.523-.137-1.198.848-2.537 1.116-2.596 1.128l-.594.117v-2.188z" fill="#ffc49c"></path><path d="M21.214 21C25.653 21 28 25.5 28 25.5S26.083 30 21.214 30a9.04 9.04 0 01-1.647-.167C18.407 30.726 17 31 17 31v-1.918c-1.384-.542-2.661-1.252-3.559-1.938A7.308 7.308 0 0110 28l1-2.5-1-2.5c1.667 0 2.788.448 3.427.808C15.152 22.449 18.315 21 21.214 21m0-1c-2.891 0-5.934 1.272-7.892 2.642C12.546 22.305 11.443 22 10 22H8.523l.549 1.371.851 2.129-.851 2.129L8.523 29H10c1.38 0 2.517-.335 3.341-.696A16.676 16.676 0 0016 29.75v2.464l1.191-.232a8.075 8.075 0 002.617-1.094c.5.074.971.112 1.406.112 5.467 0 7.617-4.9 7.706-5.108l.185-.435-.219-.419C28.779 24.832 26.202 20 21.214 20z" fill="#a16a4a"></path><circle cx="23" cy="25" r="2" fill="#fff"></circle><circle cx="23" cy="25" r="1" fill="#2d3540"></circle><path d="M24.511 13A2.482 2.482 0 0024 14.5a2.5 2.5 0 105 0c0-.565-.195-1.081-.511-1.5h-3.978z" fill="#dbf2ff"></path></svg>