<svg viewBox="0 0 40 40" xmlns="http://www.w3.org/2000/svg"><path d="M11.476 38.5c-.187-2.037-1.401-5.43-2.68-9.005C7.25 25.179 5.5 20.287 5.5 17.5c0-3.222 1.618-4.86 3.332-6.595 1.627-1.648 3.308-3.349 3.474-6.405h15.39c.166 3.056 1.846 4.757 3.474 6.405 1.712 1.735 3.33 3.373 3.33 6.595 0 2.787-1.75 7.679-3.295 11.995-1.279 3.575-2.494 6.968-2.68 9.005H11.476z" fill="#ffc49c"></path><path d="M27.235 5c.32 2.958 2.042 4.7 3.578 6.256C32.523 12.988 34 14.483 34 17.5c0 2.701-1.735 7.549-3.266 11.826-1.25 3.492-2.354 6.578-2.654 8.674H11.92c-.3-2.096-1.404-5.182-2.654-8.674C7.735 25.049 6 20.201 6 17.5c0-3.017 1.477-4.512 3.187-6.244C10.724 9.7 12.445 7.958 12.765 5h14.47m.947-1H11.818C11.818 10.422 5 10.734 5 17.5c0 5.361 6 17.487 6 21.5h18c0-4.013 6-16.139 6-21.5 0-6.766-6.818-7.078-6.818-13.5z" fill="#a16a4a"></path><path d="M13 4.5c-.827 0-1.5-.673-1.5-1.5s.673-1.5 1.5-1.5h14c.827 0 1.5.673 1.5 1.5s-.673 1.5-1.5 1.5H13z" fill="#ffc49c"></path><path d="M27 2c.551 0 1 .449 1 1s-.449 1-1 1H13c-.551 0-1-.449-1-1s.449-1 1-1h14m0-1H13a2 2 0 100 4h14a2 2 0 100-4z" fill="#a16a4a"></path><circle cx="20" cy="20" r="5.5" fill="none" stroke="#ffeea3" stroke-miterlimit="10"></circle><path d="M20 10h9.62a18.723 18.723 0 01-.819-1H20v1zM20 10h-9.62c.256-.294.549-.642.819-1H20v1z" fill="#ffeea3"></path><path fill="none" stroke="#a16a4a" stroke-linecap="round" stroke-linejoin="round" stroke-miterlimit="10" d="M10 10l7 6-2 6 5 2v7"></path><path d="M31 20c0-2.478 1.152-4.582 2.591-4.929a6.477 6.477 0 00-.424-.945C31.337 14.686 30 17.065 30 20c0 2.347.856 4.336 2.135 5.326.119-.354.238-.707.352-1.056C31.608 23.387 31 21.794 31 20zM9 20c0-2.478-1.152-4.582-2.591-4.929.12-.333.26-.649.424-.945C8.663 14.686 10 17.065 10 20c0 2.347-.856 4.336-2.135 5.326-.119-.354-.238-.707-.352-1.056C8.392 23.387 9 21.794 9 20z" fill="#ffeea3"></path></svg>