<svg viewBox="0 0 40 40" xmlns="http://www.w3.org/2000/svg"><circle cx="16.5" cy="7.5" r="3" fill="#ffeea3"></circle><path d="M16.5 5C17.879 5 19 6.122 19 7.5S17.879 10 16.5 10 14 8.878 14 7.5 15.121 5 16.5 5m0-1a3.5 3.5 0 100 7 3.5 3.5 0 000-7z" fill="#ba9b48"></path><path d="M21.961 38.5a1.545 1.545 0 01-1.5-1.215l-1.326-7.199-1.769-5.586h-.796l-.15.425-.914 6L15.5 37c0 .841-.659 1.5-1.5 1.5s-1.5-.659-1.5-1.5V21.5h8v1.554l2.966 13.59c.086.399.011.81-.213 1.154a1.526 1.526 0 01-1.292.702z" fill="#dcd5f2"></path><path d="M20 22v1.108l.023.105 2.954 13.533A1.036 1.036 0 0121.961 38c-.483 0-.908-.345-1.005-.791l-1.33-7.213-.011-.062-.019-.06-1.643-5.177-.221-.697h-1.677l-.129.849-.914 6-.012.075V37c0 .57-.43 1-1 1s-1-.43-1-1V22h7m1-1h-9v16c0 1.12.88 2 2 2s2-.88 2-2v-6l.914-6H17l1.643 5.177 1.33 7.213a2.037 2.037 0 002.417 1.564 2.036 2.036 0 001.564-2.417L21 23v-2z" fill="#8b75a1"></path><path d="M22.833 15.5v-3H31c.827 0 1.5.673 1.5 1.5s-.673 1.5-1.5 1.5h-8.167z" fill="#ffeea3"></path><path d="M31 13c.551 0 1 .449 1 1s-.449 1-1 1h-7.667v-2H31m0-1h-8.667v4H31c1.1 0 2-.9 2-2s-.9-2-2-2z" fill="#ba9b48"></path><path fill="#8bb7f0" d="M12.5 22.5v-10h11v3h-3v7z"></path><path d="M23 13v2h-3v7h-7v-9h10m1-1H12v11h9v-7h3v-4z" fill="#4e7ab5"></path><path fill="none" stroke="#546e7a" d="M26 3L15 14l11 11"></path><g><path d="M8 15.5c-.827 0-1.5-.673-1.5-1.5s.673-1.5 1.5-1.5h7c.827 0 1.5.673 1.5 1.5s-.673 1.5-1.5 1.5H8z" fill="#ffeea3"></path><path d="M15 13c.551 0 1 .449 1 1s-.449 1-1 1H8c-.551 0-1-.449-1-1s.449-1 1-1h7m0-1H8c-1.1 0-2 .9-2 2s.9 2 2 2h7c1.1 0 2-.9 2-2s-.9-2-2-2z" fill="#ba9b48"></path></g><path d="M25 27c0-2.949 3-3 3-3 2.771 0 6-2.077 6-4 0-3.223-2-3.908-2-6s2-2.777 2-6c0-1.923-3.229-4-6-4 0 0-3-.229-3-3" fill="none" stroke="#7496c4" stroke-width="2"></path></svg>