<svg viewBox="0 0 40 40" xmlns="http://www.w3.org/2000/svg"><path fill="none" stroke="#546e7a" d="M6 32L32 6"></path><path d="M38 20c0-7.788-5.686-12.54-6.187-13.04A2.764 2.764 0 0131 5c0-1.529 1.317-3 2.846-3 .753 0 1.435.3 1.935.788M20 38c-7.788 0-12.54-5.686-13.04-6.187A2.764 2.764 0 005 31c-1.529 0-3 1.471-3 3 0 .753.3 1.282.788 1.781" fill="none" stroke="#7496c4" stroke-width="2"></path><path d="M20 38c6.837 0 5.979-4.439 9.692-8.308C33.134 26.106 38 27.01 38 20" fill="none" stroke="#546e7a" stroke-width="2"></path></svg>