<svg viewBox="0 0 40 40" xmlns="http://www.w3.org/2000/svg"><path fill="#ffeea3" d="M6.5 2.5h27v35h-27z"></path><path d="M33 3v34H7V3h26m1-1H6v36h28V2z" fill="#ba9b48"></path><path d="M20 30.5c-1.93 0-3.5-1.57-3.5-3.5 0-.55.354-2.491.973-5.325a1.487 1.487 0 011.465-1.175h2.125c.712 0 1.313.483 1.465 1.175.618 2.834.972 4.775.972 5.325 0 1.93-1.57 3.5-3.5 3.5z" fill="#fffae0"></path><path d="M21.063 21a.99.99 0 01.976.782C22.931 25.874 23 26.81 23 27c0 1.654-1.346 3-3 3s-3-1.346-3-3c0-.19.069-1.126.961-5.218a.99.99 0 01.976-.782h2.126m0-1h-2.125c-.941 0-1.753.65-1.953 1.569C16.589 23.381 16 26.216 16 27a4 4 0 008 0c0-.784-.589-3.619-.984-5.431A1.993 1.993 0 0021.063 20z" fill="#ba9b48"></path><circle cx="20" cy="27" r="1.5" fill="#ba9b48"></circle><path fill="#ba9b48" d="M22.5 19H20l-1-1h3.5z"></path><circle cx="22.5" cy="18.5" r=".5" fill="#ba9b48"></circle><path fill="#ba9b48" d="M17.5 20H20l1-1h-3.5z"></path><circle cx="17.5" cy="19.5" r=".5" fill="#ba9b48"></circle><path fill="#ba9b48" d="M22.5 17H20l-1-1h3.5z"></path><circle cx="22.5" cy="16.5" r=".5" fill="#ba9b48"></circle><path fill="#ba9b48" d="M17.5 18H20l1-1h-3.5z"></path><circle cx="17.5" cy="17.5" r=".5" fill="#ba9b48"></circle><path fill="#ba9b48" d="M22.5 15H20l-1-1h3.5z"></path><circle cx="22.5" cy="14.5" r=".5" fill="#ba9b48"></circle><path fill="#ba9b48" d="M17.5 16H20l1-1h-3.5z"></path><circle cx="17.5" cy="15.5" r=".5" fill="#ba9b48"></circle><path fill="#ba9b48" d="M22.5 13H20l-1-1h3.5z"></path><circle cx="22.5" cy="12.5" r=".5" fill="#ba9b48"></circle><path fill="#ba9b48" d="M17.5 14H20l1-1h-3.5z"></path><circle cx="17.5" cy="13.5" r=".5" fill="#ba9b48"></circle><path fill="#ba9b48" d="M22.5 11H20l-1-1h3.5z"></path><circle cx="22.5" cy="10.5" r=".5" fill="#ba9b48"></circle><path fill="#ba9b48" d="M17.5 12H20l1-1h-3.5z"></path><circle cx="17.5" cy="11.5" r=".5" fill="#ba9b48"></circle><path fill="#ba9b48" d="M22.5 9H20l-1-1h3.5z"></path><circle cx="22.5" cy="8.5" r=".5" fill="#ba9b48"></circle><path fill="#ba9b48" d="M17.5 10H20l1-1h-3.5z"></path><circle cx="17.5" cy="9.5" r=".5" fill="#ba9b48"></circle><path fill="#ba9b48" d="M22.5 7H20l-1-1h3.5z"></path><circle cx="22.5" cy="6.5" r=".5" fill="#ba9b48"></circle><path fill="#ba9b48" d="M17.5 8H20l1-1h-3.5z"></path><circle cx="17.5" cy="7.5" r=".5" fill="#ba9b48"></circle><path fill="#ba9b48" d="M22.5 5H20l-1-1h3.5z"></path><circle cx="22.5" cy="4.5" r=".5" fill="#ba9b48"></circle><path fill="#ba9b48" d="M17.5 6H20l1-1h-3.5z"></path><circle cx="17.5" cy="5.5" r=".5" fill="#ba9b48"></circle><g><path fill="#ba9b48" d="M17.5 4H20l1-1h-3.5z"></path></g><g><circle cx="17.5" cy="3.5" r=".5" fill="#ba9b48"></circle></g></svg>