<svg viewBox="0 0 40 40" xmlns="http://www.w3.org/2000/svg"><path fill="#dbb065" d="M1.5 35.5v-31h10.293l3 3H38.5v28z"></path><path d="M11.586 5l2.707 2.707.293.293H38v27H2V5h9.586M12 4H1v32h38V7H15l-3-3z" fill="#967a44"></path><path fill="#f5ce85" d="M1.5 35.5v-26h10.651l3-2H38.5v28z"></path><path d="M38 8v27H2V10h10.303l.252-.168L15.303 8H38m1-1H15l-3 2H1v27h38V7z" fill="#967a44"></path><path d="M20 31.5c-1.93 0-3.5-1.57-3.5-3.5 0-.548.354-2.489.973-5.325a1.487 1.487 0 011.465-1.175h2.125c.711 0 1.314.483 1.465 1.175.618 2.836.972 4.777.972 5.325 0 1.93-1.57 3.5-3.5 3.5z" fill="#fffae0"></path><path d="M21.063 22a.99.99 0 01.976.782C22.931 26.874 23 27.81 23 28c0 1.654-1.346 3-3 3s-3-1.346-3-3c0-.19.069-1.126.961-5.218a.99.99 0 01.976-.782h2.126m0-1h-2.125c-.941 0-1.753.65-1.953 1.569C16.589 24.381 16 27.216 16 28a4 4 0 008 0c0-.784-.589-3.619-.984-5.431A1.993 1.993 0 0021.063 21z" fill="#967a44"></path><circle cx="20" cy="28" r="1.5" fill="#967a44"></circle><path fill="#967a44" d="M22.5 20H20l-1-1h3.5z"></path><circle cx="22.5" cy="19.5" r=".5" fill="#967a44"></circle><path fill="#967a44" d="M17.5 21H20l1-1h-3.5z"></path><circle cx="17.5" cy="20.5" r=".5" fill="#967a44"></circle><path fill="#967a44" d="M22.5 18H20l-1-1h3.5z"></path><circle cx="22.5" cy="17.5" r=".5" fill="#967a44"></circle><path fill="#967a44" d="M17.5 19H20l1-1h-3.5z"></path><circle cx="17.5" cy="18.5" r=".5" fill="#967a44"></circle><path fill="#967a44" d="M22.5 16H20l-1-1h3.5z"></path><circle cx="22.5" cy="15.5" r=".5" fill="#967a44"></circle><path fill="#967a44" d="M17.5 17H20l1-1h-3.5z"></path><circle cx="17.5" cy="16.5" r=".5" fill="#967a44"></circle><path fill="#967a44" d="M22.5 14H20l-1-1h3.5z"></path><circle cx="22.5" cy="13.5" r=".5" fill="#967a44"></circle><path fill="#967a44" d="M17.5 15H20l1-1h-3.5z"></path><circle cx="17.5" cy="14.5" r=".5" fill="#967a44"></circle><path fill="#967a44" d="M22.5 12H20l-1-1h3.5z"></path><circle cx="22.5" cy="11.5" r=".5" fill="#967a44"></circle><path fill="#967a44" d="M17.5 13H20l1-1h-3.5z"></path><circle cx="17.5" cy="12.5" r=".5" fill="#967a44"></circle><path fill="#967a44" d="M22.5 10H20l-1-1h3.5z"></path><circle cx="22.5" cy="9.5" r=".5" fill="#967a44"></circle><path fill="#967a44" d="M17.5 11H20l1-1h-3.5z"></path><g><circle cx="17.5" cy="10.5" r=".5" fill="#967a44"></circle></g><g><path fill="#967a44" d="M17.5 9H20l1-1h-3.5z"></path></g><g><circle cx="17.5" cy="8.5" r=".5" fill="#967a44"></circle></g></svg>