<svg viewBox="0 0 40 40" xmlns="http://www.w3.org/2000/svg"><path fill="none" stroke="#967a44" stroke-miterlimit="10" d="M29.5 13.214V6M6.5 14.214V6M18.5 11.214V3"></path><path d="M1.5 37.5V16.241C2.54 15.452 8.329 11.5 20 11.5c11.707 0 17.466 3.95 18.5 4.74V37.5h-37z" fill="#f5ce85"></path><path d="M20 12c10.93 0 16.61 3.501 18 4.494V37H2V16.49C3.382 15.493 9.008 12 20 12m0-1C6.72 11 1 16 1 16v22h38V16s-5.72-5-19-5z" fill="#967a44"></path><path d="M14.5 37.5V33c0-3.033 2.467-5.5 5.5-5.5s5.5 2.467 5.5 5.5v4.5h-11z" fill="#a6714e"></path><path d="M20 28c2.757 0 5 2.243 5 5v4H15v-4c0-2.757 2.243-5 5-5m0-1a6 6 0 00-6 6v5h12v-5a6 6 0 00-6-6z" fill="#7a4f34"></path><path fill="#a6714e" d="M5.5 27.5h4v6h-4z"></path><path d="M9 28v5H6v-5h3m1-1H5v7h5v-7z" fill="#7a4f34"></path><path fill="#a6714e" d="M30.5 27.5h4v6h-4z"></path><path d="M34 28v5h-3v-5h3m1-1h-5v7h5v-7z" fill="#7a4f34"></path><g><path d="M13.5 23.5v-6.678a46.273 46.273 0 014-.286V23.5h-4z" fill="#a6714e"></path><path d="M17 17.053V23h-3v-5.731a45.294 45.294 0 013-.216m1-1.03a46.655 46.655 0 00-5 .356V24h5v-7.977z" fill="#7a4f34"></path><path d="M5.5 23.5v-4.834a31.734 31.734 0 014-1.17V23.5h-4z" fill="#a6714e"></path><path d="M9 18.126V23H6v-3.984a30.888 30.888 0 013-.89m1-1.25c-1.974.41-3.633.919-5 1.443V24h5v-7.124z" fill="#7a4f34"></path><g><path d="M30.5 23.5v-6.005c1.417.319 2.758.712 4 1.17V23.5h-4z" fill="#a6714e"></path><path d="M31 18.126c1.049.256 2.053.554 3 .89V23h-3v-4.874m-1-1.25V24h5v-5.681a32.339 32.339 0 00-5-1.443z" fill="#7a4f34"></path></g><g><path d="M22.5 23.5v-6.964c1.386.041 2.728.137 4 .286V23.5h-4z" fill="#a6714e"></path><path d="M23 17.053c1.031.041 2.035.113 3 .215V23h-3v-5.947m-1-1.03V24h5v-7.621a46.655 46.655 0 00-5-.356z" fill="#7a4f34"></path></g></g><g><path d="M20.315 6.67c-.547 0-1.156-.038-1.815-.112V3.5h.415c.899.31 1.708.46 2.473.46 1.382 0 2.334-.508 3.098-.917C25.055 2.74 25.504 2.5 26 2.5c.989 0 1.872.431 2.518.874-1.971.007-2.849.812-3.698 1.591-.914.839-1.859 1.705-4.505 1.705z" fill="#f78f8f"></path><path d="M26 3c.282 0 .556.041.816.109-1.067.324-1.728.931-2.335 1.487-.92.844-1.715 1.573-4.167 1.573-.404 0-.844-.021-1.315-.064v-2.05c.855.273 1.639.406 2.388.406 1.508 0 2.52-.541 3.334-.976C25.229 3.214 25.629 3 26 3m0-1c-1.407 0-2.36 1.461-4.612 1.461-.667 0-1.447-.129-2.388-.461h-1v4c.885.118 1.649.17 2.315.17 5.279 0 4.342-3.296 8.229-3.296.423 0 .903.039 1.456.126 0 0-1.709-2-4-2z" fill="#c74343"></path></g><g><path d="M29.5 6.5h.398c.355.144.709.214 1.08.214.79 0 1.48-.324 2.148-.638C33.757 5.78 34.354 5.5 35 5.5c1.085 0 2.04.609 2.693 1.175a8.895 8.895 0 00-.527-.017c-1.769 0-2.383.638-2.977 1.255-.682.709-1.451 1.507-4.689 1.582V6.5z" fill="#bae0bd"></path><path d="M35 6c.39 0 .765.095 1.112.243-1.214.214-1.776.797-2.283 1.324-.607.631-1.233 1.28-3.829 1.41V7.066c.321.098.648.148.978.148.901 0 1.676-.364 2.36-.685C33.918 6.257 34.465 6 35 6m0-1c-1.488 0-2.64 1.214-4.022 1.214-.312 0-.636-.062-.978-.214h-1v4c6.733 0 4.501-2.841 8.166-2.841.493 0 1.092.051 1.834.168C39 7.327 37.291 5 35 5z" fill="#5e9c76"></path></g><g><path d="M6.5 6.5h.398c.355.144.709.214 1.08.214.79 0 1.48-.324 2.148-.638C10.757 5.78 11.354 5.5 12 5.5c1.085 0 2.04.609 2.693 1.175a8.895 8.895 0 00-.527-.017c-1.769 0-2.383.638-2.977 1.255-.682.709-1.451 1.507-4.689 1.582V6.5z" fill="#8bb7f0"></path><path d="M12 6c.39 0 .765.095 1.112.243-1.214.214-1.776.797-2.283 1.324-.607.63-1.233 1.28-3.829 1.41V7.066c.321.098.648.148.978.148.901 0 1.676-.364 2.36-.685C10.918 6.257 11.465 6 12 6m0-1c-1.488 0-2.64 1.214-4.022 1.214-.312 0-.636-.062-.978-.214H6v4c6.733 0 4.501-2.841 8.166-2.841.493 0 1.092.051 1.834.168C16 7.327 14.291 5 12 5z" fill="#4e7ab5"></path></g></svg>