<svg viewBox="0 0 40 40" xmlns="http://www.w3.org/2000/svg"><path d="M7.625 30.867L3.669 15.043c-.381-1.525-.101-3.15.77-4.458s2.26-2.196 3.812-2.435l5.853-.901.117-.226C15.346 4.85 17.561 3.5 20 3.5s4.654 1.35 5.779 3.524l.117.226 5.853.901c1.553.239 2.942 1.126 3.812 2.435s1.15 2.934.77 4.458l-3.956 15.824H7.625z" fill="#d6aa70"></path><path d="M20 4a5.99 5.99 0 015.335 3.254l.234.451.502.077 5.602.862a5.043 5.043 0 013.472 2.218 5.043 5.043 0 01.7 4.06l-3.861 15.445H8.016L4.154 14.922a5.047 5.047 0 01.7-4.06 5.046 5.046 0 013.472-2.218l5.602-.862.502-.077.234-.451A5.993 5.993 0 0120 4m0-1a7.002 7.002 0 00-6.223 3.794l-5.603.862a6.1 6.1 0 00-4.99 7.509l4.051 16.203h25.531l4.051-16.203a6.1 6.1 0 00-4.99-7.509l-5.602-.862A7.007 7.007 0 0020 3z" fill="#8c6a3f"></path><g fill="#edc898"><path d="M9 30.367h2V8.233l-2 .308zM25 30.367h2V7.925l-.929-.143-.502-.077-.234-.451A6.002 6.002 0 0025 6.702v23.665zM15 6.702a6.002 6.002 0 00-.335.552l-.234.451-.502.077-.929.143v22.442h2V6.702zM33 9.06v17.246l2-8v-7.62a5.003 5.003 0 00-2-1.626zM31 8.541l-2-.308v22.134h2zM21 30.367h2V4.81a5.959 5.959 0 00-2-.718v26.275zM5 18.305l2 8V9.06a5.011 5.011 0 00-2 1.626v7.619zM17 30.367h2V4.092a5.959 5.959 0 00-2 .718v25.557z"></path></g><path fill="#f5ce85" d="M32.5 29h4v7.5h-4z"></path><path d="M36 29.5V36h-3v-6.5h3m1-1h-5V37h5v-8.5z" fill="#967a44"></path><path fill="#f5ce85" d="M3.5 29h4v7.5h-4z"></path><path d="M7 29.5V36H4v-6.5h3m1-1H3V37h5v-8.5z" fill="#967a44"></path><path d="M3.5 33.5v-10c0-1.654 1.346-3 3-3s3 1.346 3 3v1.247l.69-.284c.048-.02 4.826-1.962 9.81-1.962 4.991 0 9.762 1.943 9.81 1.962l.69.285V23.5c0-1.654 1.346-3 3-3s3 1.346 3 3v10h-33z" fill="#d6aa70"></path><path d="M33.5 21c1.379 0 2.5 1.122 2.5 2.5V33H4v-9.5C4 22.122 5.121 21 6.5 21S9 22.122 9 23.5v.5l.001 1.492 1.38-.567C10.427 24.906 15.122 23 20 23s9.572 1.906 9.619 1.925l1.381.567V23.5c0-1.378 1.121-2.5 2.5-2.5m0-1a3.5 3.5 0 00-3.5 3.5v.5s-4.852-2-10-2-10 2-10 2v-.5a3.5 3.5 0 10-7 0V34h34V23.5a3.5 3.5 0 00-3.5-3.5z" fill="#8c6a3f"></path><circle cx="26" cy="15" r="1" fill="#704e34"></circle><circle cx="14" cy="15" r="1" fill="#704e34"></circle><g fill="#edc898"><path d="M9 33h2v-8.307c-.382.137-.61.228-.619.232l-1.38.567L9 33zM19 23.027c-.681.034-1.351.103-2 .192V33h2v-9.973zM27 24.061a32.147 32.147 0 00-2-.492V33h2v-8.939zM15 23.568c-.731.155-1.404.325-2 .492V33h2v-9.432zM5 21.513V33h2V21.051a2.471 2.471 0 00-2 .462zM33 21.051V33h2V21.513a2.471 2.471 0 00-2-.462zM31 25.492l-1.381-.567c-.01-.004-.237-.095-.619-.232V33h2v-7.508zM21 33h2v-9.781a23.287 23.287 0 00-2-.192V33z"></path></g></svg>