<svg viewBox="0 0 40 40" xmlns="http://www.w3.org/2000/svg"><path fill="#8bb7f0" d="M20 33.492L9.504 35.4l.136-20.329h20.72l.136 20.329z"></path><path d="M29.864 15.571l.128 19.229-9.813-1.784-.179-.032-.179.033-9.813 1.783.128-19.229h19.728m.993-1H9.143L9 36l11-2 11 2-.143-21.429z" fill="#4e7ab5"></path><path d="M23.526 28.27c2.709-1.6 4.288-2.578 4.833-3.125a3.897 3.897 0 000-5.505 3.868 3.868 0 00-2.753-1.14c-1.04 0-2.017.405-2.752 1.14-.507.506-1.466 1.692-2.854 3.529-1.388-1.836-2.345-3.02-2.848-3.522a3.869 3.869 0 00-2.752-1.141c-1.04 0-2.018.405-2.753 1.141a3.897 3.897 0 000 5.505c.544.544 2.059 1.484 4.827 3.118l-.915 10.056L4.75 34.723l2.808-4.679-.094-.231c-.036-.087-3.516-8.814-.994-15.639 1.927-5.214 7.23-8 10.739-9.844 1.182-.621 2.154-1.132 2.823-1.626.665.493 1.627 1.003 2.797 1.623 3.486 1.847 8.754 4.637 10.703 9.85 2.585 6.914-.957 15.545-.993 15.632l-.097.233 2.809 4.682-10.81 3.604-.915-10.058z" fill="#b5ddf5"></path><path d="M20.031 3.314c.667.449 1.537.91 2.564 1.453 3.419 1.811 8.586 4.548 10.469 9.582 2.513 6.722-.951 15.18-.986 15.264l-.195.467.26.433 2.359 3.931-9.62 3.207-.828-9.113c2.991-1.77 4.148-2.528 4.66-3.04a4.364 4.364 0 001.287-3.106 4.362 4.362 0 00-1.287-3.106A4.368 4.368 0 0025.607 18a4.362 4.362 0 00-3.106 1.287c-.471.471-1.311 1.497-2.501 3.055-1.19-1.558-2.027-2.582-2.495-3.05a4.364 4.364 0 00-3.106-1.287 4.362 4.362 0 00-3.106 1.287 4.397 4.397 0 000 6.212c.508.508 1.664 1.264 4.654 3.034l-.828 9.113-9.62-3.207 2.359-3.931.257-.428-.188-.463c-.035-.085-3.447-8.624-.988-15.277C8.799 9.313 14 6.58 17.441 4.772c1.038-.545 1.917-1.007 2.59-1.458m0-1.251C17.764 4.066 8.73 6.614 6 14c-2.621 7.094 1 16 1 16l-3 5 12 4 1-11c-2.809-1.656-4.48-2.681-5-3.202A3.393 3.393 0 1116.798 20c.479.479 1.478 1.703 3.202 4 1.724-2.297 2.729-3.528 3.208-4.006.663-.663 1.531-.994 2.399-.994s1.737.331 2.399.994a3.393 3.393 0 010 4.798c-.52.52-2.197 1.552-5.006 3.208l1 11 12-4-3-5s3.687-8.813 1-16C31.242 6.624 22.299 4.066 20.031 2.063z" fill="#7496c4"></path><path d="M17.441 4.772C14 6.58 8.799 9.313 6.938 14.347c-2.458 6.652.954 15.191.988 15.276l.188.463-.257.428-2.359 3.931 9.62 3.207.828-9.113c-2.99-1.77-4.146-2.526-4.654-3.034a4.397 4.397 0 010-6.212c.83-.83 1.933-1.287 3.106-1.287s2.276.457 3.106 1.287c.468.468 1.305 1.491 2.495 3.05V3.333c-.668.445-1.535.901-2.558 1.439z" fill="#dbf2ff"></path><circle cx="15" cy="15" r=".5" fill="#dbf2ff"></circle><path d="M15 14a1 1 0 100 2 1 1 0 000-2z" fill="#7496c4"></path><circle cx="12" cy="15" r=".5" fill="#dbf2ff"></circle><path d="M12 14a1 1 0 100 2 1 1 0 000-2z" fill="#7496c4"></path><circle cx="9" cy="15" r=".5" fill="#dbf2ff"></circle><path d="M9 14a1 1 0 100 2 1 1 0 000-2z" fill="#7496c4"></path><g><path d="M20 23.167c-1.358-1.801-2.338-3.013-2.847-3.521a3.64 3.64 0 00-.309-.278C17.586 15.037 19.243 7.049 20 3.444c1.131 5.391 2.504 12.1 3.156 15.924a3.625 3.625 0 00-.3.269c-.514.513-1.497 1.729-2.856 3.53z" fill="#e8d47b"></path><path d="M20 5.89c1.226 5.904 2.135 10.521 2.615 13.284a3.782 3.782 0 00-.112.108c-.486.486-1.326 1.512-2.503 3.057-1.176-1.544-2.013-2.567-2.493-3.047a4.46 4.46 0 00-.122-.117c.62-3.561 1.799-9.351 2.615-13.285M20 1l-.27 1.3c-.72 3.41-2.66 12.7-3.43 17.29.18.12.34.25.5.41.48.48 1.48 1.7 3.2 4 1.72-2.3 2.73-3.53 3.21-4.01.15-.15.32-.29.49-.4-.77-4.61-2.73-13.97-3.44-17.34C20.1 1.46 20 1 20 1z" fill="#ba9b48"></path></g><g><circle cx="25" cy="15" r=".5" fill="#dbf2ff"></circle><path d="M25 14a1 1 0 100 2 1 1 0 000-2z" fill="#7496c4"></path></g><g><circle cx="28" cy="15" r=".5" fill="#dbf2ff"></circle><path d="M28 14a1 1 0 100 2 1 1 0 000-2z" fill="#7496c4"></path></g><g><circle cx="31" cy="15" r=".5" fill="#dbf2ff"></circle><path d="M31 14a1 1 0 100 2 1 1 0 000-2z" fill="#7496c4"></path></g><path d="M20 5.891c-.817 3.933-1.995 9.723-2.615 13.285.041.038.082.077.122.117.48.48 1.317 1.503 2.493 3.047V5.891z" fill="#ffeea3"></path></svg>