<svg viewBox="0 0 40 40" xmlns="http://www.w3.org/2000/svg"><path d="M13.5 31.5v-.84l-.317-.125c-1.311-.516-3.788-2.354-5.241-5.3C7.111 23.547 3.631 17 2.681 15.216c.581-.268 1.676-.689 2.82-.689 1.339 0 2.373.583 3.071 1.733.337.481 1.242 1.676 1.994 2.668.457.604.857 1.132 1.03 1.368l.903 1.231V7c0-1.378 1.122-2.5 2.5-2.5.607 0 1.198.232 1.665.654l.836.755V4c0-1.378 1.122-2.5 2.5-2.5 1.034 0 1.974.661 2.337 1.646l.283.764.554-.599A2.466 2.466 0 0125 2.5c1.378 0 2.5 1.122 2.5 2.5v1.909l.835-.755A2.486 2.486 0 0130 5.5c1.378 0 2.5 1.122 2.5 2.5v19c0 2.003-.792 3.5-1.5 3.5h-.5v1h-17z" fill="#dbf2ff"></path><path d="M20 2c.826 0 1.577.53 1.868 1.319l.565 1.529 1.107-1.197C23.929 3.231 24.447 3 25 3c1.103 0 2 .897 2 2v3.034l1.67-1.509A1.991 1.991 0 0130 6c1.103 0 2 .897 2 2v19c0 1.936-.751 3-1 3h-1v1H14v-.681l-.633-.25c-1.191-.469-3.595-2.257-4.975-5.056-.783-1.589-3.803-7.279-5.011-9.55.563-.215 1.335-.437 2.121-.437 1.169 0 2.034.488 2.644 1.493l.018.029.019.028c.326.463 1.202 1.619 1.975 2.639.46.607.863 1.14 1.037 1.376L13 23.055V7c0-1.103.897-2 2-2 .483 0 .955.187 1.33.525L18 7.034V4c0-1.103.897-2 2-2m0-1c-1.65 0-3 1.35-3 3v.783A2.977 2.977 0 0015 4c-1.65 0-3 1.35-3 3v13c-.456-.622-2.487-3.272-3-4-.924-1.521-2.25-1.973-3.499-1.973C3.669 14.027 2 15 2 15s4.525 8.49 5.494 10.456C9.007 28.525 11.6 30.449 13 31v1h18v-1c1.105 0 2-1.791 2-4V8c0-1.65-1.35-3-3-3-.77 0-1.467.302-2 .783V5c0-1.65-1.35-3-3-3-.867 0-1.645.379-2.194.972C22.383 1.827 21.288 1 20 1z" fill="#7496c4"></path><circle cx="30" cy="19" r=".5" fill="#dbf2ff"></circle><path d="M30 18a1 1 0 100 2 1 1 0 000-2z" fill="#7496c4"></path><circle cx="25" cy="19" r=".5" fill="#dbf2ff"></circle><path d="M25 18a1 1 0 100 2 1 1 0 000-2z" fill="#7496c4"></path><circle cx="20" cy="19" r=".5" fill="#dbf2ff"></circle><path d="M20 18a1 1 0 100 2 1 1 0 000-2z" fill="#7496c4"></path><circle cx="15" cy="19" r=".5" fill="#dbf2ff"></circle><path d="M15 18a1 1 0 100 2 1 1 0 000-2zM18 5h-1v14h1V5zM28 6h-1v13h1V6zM23 3h-1v16h1V3z" fill="#7496c4"></path><path d="M22 38.355c-3.524-2.762-8.674-3.562-10.858-3.783.787-.786 2.358-2.366 2.358-2.366V31.5h17v.701l.14.146c.293.305 1.374 1.426 2.183 2.229-2.203.226-7.318 1.032-10.823 3.779z" fill="#b5ddf5"></path><path d="M30 32v.403l.279.29c.413.43.952.987 1.47 1.513-2.491.349-6.65 1.248-9.749 3.523-3.112-2.285-7.293-3.182-9.781-3.527l1.49-1.496.291-.293V32h16m1-1H13v1s-2.856 2.872-3 3a.337.337 0 01.102-.007c.924 0 7.863.603 11.898 4.007 4.035-3.404 10.974-4.007 11.898-4.007.061 0 .095.003.102.007-.38-.275-3-3-3-3v-1zM11.4 20.88c-.32.08-.59.15-.8.21-1.1.3-2.03.95-2.62 1.84-.1.15-.21.36-.33.62-.18-.33-.36-.69-.56-1.08l.06-.09c.73-1.1 1.88-1.9 3.18-2.26.12-.03.26-.07.42-.11.2.25.35.46.44.58l.21.29zM5.121 18.746l.478.904.011-.007.056-.05c.86-.767 1.749-1.324 2.643-1.656.235-.087.471-.161.71-.23a86.477 86.477 0 01-.633-.851c-.142.047-.283.092-.425.144-1.058.392-2.001 1.017-2.84 1.746zM13.199 10.184a9.283 9.283 0 013.674 0l.127.026V9.193A10.25 10.25 0 0015.036 9c-.697 0-1.378.071-2.036.204v1.02l.199-.04zM18.199 9.184a9.283 9.283 0 013.674 0L22 9.21V8.193A10.25 10.25 0 0020.036 8c-.697 0-1.378.071-2.036.204v1.02l.199-.04zM23.199 10.184a9.283 9.283 0 013.674 0l.127.026V9.193A10.25 10.25 0 0025.036 9c-.697 0-1.378.071-2.036.204v1.02l.199-.04zM28.199 11.184a9.283 9.283 0 013.674 0l.127.026v-1.017A10.25 10.25 0 0030.036 10c-.697 0-1.378.071-2.036.204v1.02l.199-.04zM13 13.445v1.075l.291-.113.035-.014.034-.016c.524-.25 1.063-.377 1.604-.377s1.081.127 1.605.377l.037.017.038.014.356.137v-1.07A4.699 4.699 0 0014.964 13c-.704 0-1.363.169-1.964.445zM18 12.445v1.075l.291-.113.035-.014.034-.016c.524-.25 1.063-.377 1.604-.377s1.081.127 1.605.377l.037.017.038.014.356.137v-1.07A4.699 4.699 0 0019.964 12c-.704 0-1.363.169-1.964.445zM23 13.445v1.075l.291-.113.035-.014.034-.016c.524-.25 1.063-.377 1.604-.377s1.081.127 1.605.377l.037.017.038.014.356.137v-1.07A4.699 4.699 0 0024.964 13c-.704 0-1.363.169-1.964.445zM28 14.445v1.075l.291-.113.035-.014.034-.016c.524-.25 1.063-.377 1.604-.377s1.081.127 1.605.377l.037.017.038.014.356.137v-1.07A4.699 4.699 0 0029.964 14c-.704 0-1.363.169-1.964.445z" fill="#7496c4"></path></svg>