<svg viewBox="0 0 40 40" xmlns="http://www.w3.org/2000/svg"><path d="M4.182 38.5C2.5 37.056 1.5 35.013 1.5 33c0-4.607 3.893-8.5 8.5-8.5h5.926c6.012 1.816 15.147 4.618 15.861 4.953 4.682 2.193 6.509 6.129 6.696 9.047H4.182z" fill="#dbf2ff"></path><path d="M15.852 25c5.753 1.738 14.991 4.571 15.723 4.906 3.964 1.857 5.972 5.236 6.356 8.094H4.37C2.88 36.659 2 34.813 2 33c0-4.336 3.664-8 8-8h5.852M16 24h-6c-4.872 0-9 4.128-9 9 0 2.373 1.25 4.563 3 6h35c0-3.594-2.323-7.809-7-10-1.011-.474-16-5-16-5z" fill="#7496c4"></path><path d="M12 35.5A4.505 4.505 0 017.5 31v-.095l-.035-.088c-.666-1.687-4.534-3.515-5.871-4.104.295-1.299.982-5.715.907-18.491 1.093-.953 8.068-6.526 21.78-6.716C21.686 8.679 20.5 15.554 20.5 19c0 2.618 1.151 4.274 1.781 4.985-1.349 1.264-5.393 5.17-5.77 6.909l-.011.052V31c0 2.481-2.019 4.5-4.5 4.5z" fill="#b5ddf5"></path><path d="M23.567 2.02C21.121 9.002 20 15.622 20 19c0 2.384.909 4.031 1.6 4.938-1.804 1.706-5.198 5.104-5.577 6.85l-.023.105V31c0 2.206-1.794 4-4 4s-4-1.794-4-4v-.19l-.07-.177c-.679-1.721-3.972-3.407-5.762-4.215.338-1.761.895-6.434.834-17.967 1.449-1.204 8.069-6.08 20.565-6.431M25 1C9.167 1 2 8 2 8c.106 16.15-1 19-1 19s5.295 2.212 6 4a5 5 0 0010 0c.406-1.872 6-7 6-7s-2-1.664-2-5c0-3.356 1.186-10.466 4-18z" fill="#7496c4"></path><circle cx="12" cy="25" r=".5" fill="#dbf2ff"></circle><path d="M12 24a1 1 0 100 2 1 1 0 000-2z" fill="#7496c4"></path><circle cx="12" cy="21" r=".5" fill="#dbf2ff"></circle><path d="M12 20a1 1 0 100 2 1 1 0 000-2z" fill="#7496c4"></path><circle cx="12" cy="17" r=".5" fill="#dbf2ff"></circle><path d="M12 16a1 1 0 100 2 1 1 0 000-2z" fill="#7496c4"></path><circle cx="12" cy="13" r=".5" fill="#dbf2ff"></circle><path d="M12 12a1 1 0 100 2 1 1 0 000-2z" fill="#7496c4"></path><g><circle cx="12" cy="9" r=".5" fill="#dbf2ff"></circle><path d="M12 8a1 1 0 100 2 1 1 0 000-2z" fill="#7496c4"></path></g><g><circle cx="12" cy="31" r="1.5" fill="#dbf2ff"></circle><path d="M12 30c.551 0 1 .449 1 1s-.449 1-1 1-1-.449-1-1 .449-1 1-1m0-1a2 2 0 10-.001 3.999A2 2 0 0012 29z" fill="#7496c4"></path></g><g><path fill="#dbf2ff" d="M1.5 14.5v-3h4.293l1.5 1.5-1.5 1.5z"></path><path d="M5.586 12l1 1-1 1H2v-2h3.586M6 11H1v4h5l2-2-2-2z" fill="#7496c4"></path></g><g><path fill="#dbf2ff" d="M1.5 22.5v-3h4.293l1.5 1.5-1.5 1.5z"></path><path d="M5.586 20l1 1-1 1H2v-2h3.586M6 19H1v4h5l2-2-2-2z" fill="#7496c4"></path></g><path d="M27.773 27.617c-.351-.106-.713-.213-1.081-.322C23.791 30.344 22 34.459 22 39h1c0-4.451 1.83-8.48 4.773-11.383zM33.205 29.668a13.48 13.48 0 00-1-.554A11.98 11.98 0 0027 39h1c0-3.937 2.086-7.388 5.205-9.332z" fill="#7496c4"></path></svg>