<svg viewBox="0 0 40 40" xmlns="http://www.w3.org/2000/svg"><path d="M13 2l.012-.005c.007-.012.006-.015-.012.005z" fill="#8bb7f0"></path><path d="M13.015 1.985A.085.085 0 0013 2l.012-.005c.003-.006.005-.01.003-.01z" fill="#4e7ab5"></path><path d="M10.697 11.397c-.52-.166-.802-.421-.937-.822-.216-.645-.309-2.723 3.5-8.064l.078-.109C13.859 2.204 15.989 1.5 20 1.5s6.141.704 6.662.902l.078.109c3.809 5.342 3.717 7.419 3.5 8.064-.134.4-.417.656-.889.804L20 15.385l-9.303-3.988z" fill="#8bb7f0"></path><path d="M20 2c3.616 0 5.679.59 6.345.82 3.765 5.285 3.57 7.151 3.421 7.597-.06.179-.17.362-.565.486l-.048.015-.046.02L20 14.841l-9.106-3.903-.046-.02-.048-.015c-.395-.124-.505-.307-.565-.486-.15-.446-.344-2.312 3.421-7.597C14.321 2.59 16.384 2 20 2m0-1c-4.662 0-6.865.941-6.988.995-.157.277-6.538 8.599-2.512 9.862l9.5 4.071 9.5-4.071c4.026-1.263-2.355-9.585-2.512-9.862C26.865 1.941 24.662 1 20 1z" fill="#4e7ab5"></path><path d="M26.988 1.995A.087.087 0 0127 2c-.018-.02-.019-.017-.012-.005z" fill="#8bb7f0"></path><path d="M26.985 1.985c-.001 0 0 .004.004.009A.156.156 0 0027 2a.085.085 0 00-.015-.015z" fill="#4e7ab5"></path><path d="M7.501 20.948c-1.039-.749-3.019-1.891-5.907-2.366.324-1.551 1.387-6.232 2.817-8.297.339-.49.742-.728 1.231-.728 1.033 0 2.257 1.028 2.817 1.598l-.95 4.748-.008 5.045z" fill="#8bb7f0"></path><path d="M5.642 10.057c.707 0 1.654.678 2.274 1.264l-.897 4.483-.019.097v4.12c-1.093-.664-2.702-1.421-4.809-1.839.407-1.857 1.381-5.807 2.631-7.613.315-.454.604-.512.82-.512m0-1c-.588 0-1.164.253-1.642.943-1.8 2.6-3 9-3 9 4.6.6 7 3 7 3v-6l1-5S7.273 9.057 5.642 9.057z" fill="#4e7ab5"></path><path d="M32.5 16l-.959-4.845c.561-.569 1.788-1.599 2.817-1.599.489 0 .892.238 1.231.728 1.431 2.066 2.493 6.746 2.817 8.297-2.887.475-4.866 1.617-5.906 2.365V16z" fill="#8bb7f0"></path><path d="M34.358 10.057c.217 0 .506.058.82.512 1.25 1.806 2.224 5.756 2.631 7.613-2.107.418-3.716 1.176-4.809 1.839v-4.12l-.019-.097-.897-4.483c.621-.586 1.567-1.264 2.274-1.264m0-1C32.727 9.057 31 11 31 11l1 5v6s2.4-2.4 7-3c0 0-1.2-6.4-3-9-.478-.69-1.054-.943-1.642-.943z" fill="#4e7ab5"></path><g><path d="M20 38.5c-7.305 0-11.959-2.716-13.292-3.61l2.915-3.886-.219-.299C8.692 29.733 7.5 27.31 7.5 22v-5c0-4.837-3.326-6.695-4.749-7.269C3.578 8.509 6.111 5.5 11 5.5h.268l.938-1.408c-.015 1.641.453 3.808 2.656 5.167l4.091 3.277 2.3-.041 3.051-4.069c1.356-.456 2.328-1.238 2.891-2.327.364-.704.505-1.44.537-2.1l1 1.5H29c4.889 0 7.422 3.009 8.249 4.231-1.423.575-4.749 2.433-4.749 7.27v5c0 5.31-1.192 7.733-1.903 8.705l-.219.299 2.915 3.886c-1.334.894-5.988 3.61-13.293 3.61z" fill="#b5ddf5"></path><path d="M28.025 5.34l.143.215.297.445H29c4.069 0 6.422 2.196 7.465 3.509C34.466 10.487 32 12.786 32 17v5c0 5.361-1.264 7.667-1.807 8.41l-.437.598.444.592 2.37 3.159C30.864 35.805 26.508 38 20 38c-6.509 0-10.865-2.195-12.57-3.24L9.8 31.6l.444-.593-.437-.597C9.264 29.667 8 27.36 8 22v-5c0-4.214-2.466-6.513-4.465-7.491C4.579 8.195 6.932 6 11 6h.535l.286-.43c.282 1.498 1.055 3.029 2.724 4.08l3.954 3.164.282.225.361-.006L21.018 13l.489-.009.293-.391 2.813-3.751c1.405-.505 2.423-1.352 3.026-2.519.17-.327.295-.66.386-.99M27 2s1.496 4.6-3 6l-3 4-1.875.033-4-3.2C11.504 6.6 13 2 13 2l-2 3c-6.4 0-9 5-9 5s5 1.2 5 7v5c0 5.573 1.319 8.068 2 9l-3 4s5 4 14 4 14-4 14-4l-3-4c.681-.932 2-3.427 2-9v-5c0-5.8 5-7 5-7s-2.6-5-9-5l-2-3z" fill="#7496c4"></path></g><g><path d="M22.5 15.418a7.953 7.953 0 003.576-1.799L32.5 17.29V22c0 4.602-.896 7.035-1.597 8.235l-.329.469c-.018.027-2.082 2.651-8.074 2.791V15.418z" fill="#dbf2ff"></path><path d="M26.13 14.226L32 17.58V22c0 4.391-.848 6.733-1.453 7.844l-.379.568c-.018.024-1.867 2.304-7.168 2.563V15.813a8.559 8.559 0 003.13-1.587M26 13s-1.5 1.625-4 2v19c6.414 0 8.79-2.719 8.99-3.019L31 31c.681-.932 2-3.427 2-9v-5l-7-4z" fill="#7496c4"></path></g><g><path d="M17.5 33.494c-5.993-.14-8.056-2.764-8.075-2.791l-.372-.545C8.359 28.933 7.5 26.506 7.5 22v-4.71l6.424-3.671a7.953 7.953 0 003.576 1.799v18.076z" fill="#dbf2ff"></path><path d="M13.87 14.226A8.559 8.559 0 0017 15.813v17.163c-5.301-.26-7.149-2.538-7.158-2.549l-.35-.514C8.884 28.831 8 26.484 8 22v-4.42l5.87-3.354M14 13l-7 4v5c0 5.573 1.319 8.068 2 9l.01-.019c.2.3 2.576 3.019 8.99 3.019V15c-2.5-.375-4-2-4-2z" fill="#7496c4"></path></g><path fill="#b5ddf5" d="M18 12h4v2h-4z"></path><g><path d="M20.5 12.118l1.823-3.646c1.584-.267 3.737-2.41 4.834-5.334l1.303 1.955c-.312 1.128-2.074 6.413-7.96 7.338v-.313z" fill="#dbf2ff"></path><path d="M27.255 4.185l.66.99c-.407 1.318-2.036 5.457-6.684 6.599l1.431-2.862c1.645-.425 3.47-2.334 4.593-4.727M27 2c-.938 3.438-3.469 6-5 6l-2 4v1c7.375-.781 9-8 9-8l-2-3z" fill="#7496c4"></path></g><g><path d="M19.5 12.43c-5.886-.925-7.649-6.21-7.96-7.338l1.303-1.955c1.097 2.925 3.25 5.067 4.834 5.334l1.823 3.646v.313z" fill="#dbf2ff"></path><path d="M12.745 4.185c1.122 2.393 2.948 4.302 4.592 4.727l1.431 2.862c-4.649-1.142-6.278-5.284-6.684-6.598l.661-.991M13 2l-2 3s1.625 7.219 9 8v-1l-2-4c-1.531 0-4.062-2.562-5-6z" fill="#7496c4"></path></g></svg>