<svg viewBox="0 0 40 40" xmlns="http://www.w3.org/2000/svg"><path d="M24.635 24.465s1.805 1.235 1.9 1.33c.095.095 0 .285 0 .285h-1.221s1.221.665 1.425.76c.271.095.271.285.271.475h-1.235s2.47.95 2.755 1.045c0 0 1.045.285 1.14.38.095.095.38.38.38.475 0 .081-1.724.014-2.606-.136.869.244 2.538.719 2.796.801.421.095.57.19.76.285.19.095.475.475.475.475l-.095.095s-3.42-.285-4.75-.475c1.14.285 4.275.801 4.845.896.57.095 1.045.285 1.14.38l.38.38s-.597.054-1.656.054c-.516 0-1.14.014-1.859-.054a53.985 53.985 0 01-6.311-.896c-4.655-2.796-.814-6.216.774-7.383.353-.258 1.371.434 1.371.434l.176.204v.285l-.855-.095z" fill="#8bb7f0"></path><path d="M37.568 15.535s.57-.19.665-.19c.095 0 .76-1.425.76-1.52 0-.19-.76-.475-1.52-.475-.285.095-.95.285-.95.285s.475-.95.38-1.14c-.095-.095-1.235-.38-1.52-.19-.19.095-.855.475-.76.38.095-.38.095-.855.095-.855s-.285-.095-.57-.095-.57.095-.57.095-3.687 2.857-3.705 2.85l-.095.095-.19-.19c-.19.285-1.235.855-1.615.95-.237.059-1.514.045-2.925.187-.847.086-1.742.228-2.49.478l-.38-.95h-.38l.19-1.425s0-.095-.19-.095c-.095 0-.665.57-.665.57l.95-2.09s0-.285-.19-.285c-.285 0-1.235.95-1.235.95l1.045-1.615s.095-.855-.285-.665c-.19.095-1.045.76-1.045.76l2.565-3.325s.19-.665-.19-.57c-.285 0-2.28 1.9-2.28 1.9l2.755-3.04s.285-.76 0-.665c-.665.19-3.515 2.47-3.515 2.47s4.14-3.795 4.235-3.985c.095-.475.095-1.14-.19-1.14a.846.846 0 00-.281.091c-.113.05-.262.13-.435.226-1.711.998-3.275 2.076-4.781 3.362-1.813 1.548-4.214 3.654-5.054 5.641-.033.078-.072.162-.095.239a2.269 2.269 0 00-.107.633c0 .297.408.538.969.808 1.235.593 3.078 1.577 3.078 3.34v.57c-.237.059-.49.137-.75.231C14.48 18.799 12 20.005 12 22c0 .76.19 1.14.475 1.33 0 1.235 1.52 1.995 1.995 1.995 0 0-.38-.475-.38-1.14 0-.665 2.768-1.335 2.768-1.335L19 23s.518-.15.518 1.655a4.47 4.47 0 01-.676 2.364c-.404.641-.808 1.235-.806 1.951a.468.468 0 00.106.273.37.37 0 00.112.107c1.122.608 1.721.899 2.887 1.229 1.194.338 2.364.523 3.557.76 1.707.34 2.97.425 4.706.576 2.185.19 3.515 0 3.515 0l-.38-.38c-.095-.095-.57-.285-1.14-.38-.475-.095-3.615-.611-4.755-.896 1.33.19 4.75.475 4.75.475l.095-.095s-.285-.38-.475-.475c-.19-.095-.38-.285-.76-.285-.297-.074-2.449-.728-3.101-.919.723.179 2.911.344 2.911.254 0-.095-.285-.38-.38-.475-.095-.095-.855-.285-1.14-.38-.285-.095-2.755-1.045-2.755-1.045s1.14.095 1.235 0c0-.19 0-.38-.285-.475-.19-.095-1.425-.76-1.425-.76h1.235s.095-.19 0-.285c-.475-.38-1.995-1.33-1.995-1.33l.855.095v-.285l-.179-.194.092-.008-.864-.841.19-.19s-.095-.894-.095-.95c1.71-.38 3.325-1.805 4.94-2.66.475-.285 1.71-.57 1.71-.57l-.095-.38c1.045.095 4.94.38 5.035.38.095 0 .95-.665.95-.76 0-.095-.57-.57-.57-.57s1.045-.095 1.14-.095c.095 0 .95-.855.95-1.045 0-.286-1.045-.856-1.045-.856z" fill="#8bb7f0"></path><path d="M20.019 38.5c-10.201 0-18.5-8.299-18.5-18.5 0-9.135 6.745-16.793 15.537-18.251C11.1 5.028 7.264 11.355 7.264 18.29c0 10.438 8.492 18.93 18.93 18.93.182 0 .364-.002.546-.007a18.22 18.22 0 01-6.721 1.287z" fill="#c2e8ff"></path><path d="M14.32 2.947C9.651 6.555 6.763 12.194 6.763 18.29c0 9.921 7.474 18.128 17.086 19.289-1.256.28-2.535.421-3.831.421-9.925 0-18-8.075-18-18 0-7.884 5.164-14.637 12.302-17.053M19.923 1C9.473 1.095 1.018 9.55 1.018 20s8.55 19 19 19c3.42 0 6.65-.95 9.5-2.565-1.045.19-2.185.285-3.325.285-10.165 0-18.43-8.265-18.43-18.43 0-7.98 5.035-14.725 12.16-17.29z" fill="#7496c4"></path><path d="M26.193 36.72c1.14 0 2.28-.095 3.325-.285l-.57.285a18.153 18.153 0 01-6.08 1.045c-10.26 0-17.799-8.968-17.799-17.765 0-9.025 5.639-17.29 14.189-18.905.19 0 .38-.095.665-.095-7.125 2.565-11.849 9.094-11.849 17.074 0 10.165 7.954 18.646 18.119 18.646z" fill="#7496c4"></path><path d="M14.755 23.425c.76-.475 2.103-.575 2.103-.575S17.1 23 19 23s5.553-.91 5.553-.91c1.71-.38 3.325-1.805 4.94-2.66.475-.285 1.71-.57 1.71-.57l-.095-.38h.285l1.356-2.339s-4.528 2.119-9.716 3.099c-8.287 1.566-8.278 4.185-8.278 4.185zM22 16l-.012-2.175s0-.095-.19-.095c-.095 0-.665.57-.665.57l.95-2.09s0-.285-.19-.285c-.285 0-1.235.95-1.235.95l1.045-1.615s.095-.855-.285-.665c-.19.095-1.045.76-1.045.76l2.565-3.325s.19-.665-.19-.57c-.285 0-2.28 1.9-2.28 1.9l2.755-3.04s.285-.76 0-.665c-.665.19-3.515 2.47-3.515 2.47s4.14-3.795 4.235-3.985c.095-.475.095-1.14-.19-1.14-.475 0-3.732 2.072-6.677 4.732l-.598 1.058S15.16 15.715 22 16zM26.535 25.795c.095.095 0 .285 0 .285h-1.221s1.221.665 1.425.76c.271.095.271.285.271.475h-1.235s2.47.95 2.755 1.045c0 0 1.045.285 1.14.38.095.095.38.38.38.475 0 .081-1.724.014-2.606-.136.869.244 2.538.719 2.796.801.421.095.57.19.76.285.19.095.475.475.475.475l-.095.095s-3.42-.285-4.75-.475c1.14.285 4.275.801 4.845.896.57.095 1.045.285 1.14.38l.38.38s-.597.054-1.656.054c-.516 0-1.14.014-1.859-.054a53.985 53.985 0 01-6.311-.896c-4.424-2.606-.814-6.216.774-7.383.353-.258 1.371.434 1.371.434l.176.204v.285l-.855-.095s1.805 1.235 1.9 1.33z" fill="#4e7ab5"></path><path d="M37.568 15.535s.57-.19.665-.19.76-1.425.76-1.52c0-.19-.76-.475-1.52-.475-.285.095-.95.285-.95.285s.475-.95.38-1.14c-.095-.095-1.235-.38-1.52-.19-.19.095-.855.475-.76.38.095-.38.095-.855.095-.855s-.285-.095-.57-.095-.57.095-.57.095l-3.8 2.945 3.135 1.045-1.805 2.66c1.045.095 4.94.38 5.035.38s.95-.665.95-.76c0-.095-.57-.57-.57-.57s1.045-.095 1.14-.095c.095 0 .95-.855.95-1.045 0-.285-1.045-.855-1.045-.855zM23.867 30.161c-.841-.159-1.643-.314-2.455-.544-.953-.269-1.485-.507-2.328-.955.089-.296.292-.617.532-.996l.072-.114c.543-.862.83-1.864.83-2.896 0-2.197-.81-2.658-1.489-2.658l-.03.001-2.071-.145-.155-.011-.151.036c-1.845.447-2.727.938-3.147 1.367v-.45l-.41-.274c-.02-.048-.065-.194-.065-.522 0-1.033 1.292-2.069 3.639-2.919.224-.081.443-.149.652-.201l.757-.189V17.34c0-2.49-2.554-3.717-3.645-4.241a6.521 6.521 0 01-.357-.183l.018-.064c.01-.029.024-.059.037-.089l.023-.053c.734-1.737 3.042-3.779 4.482-5.013a5.496 5.496 0 01-.302-1.056l-.048.039c-1.813 1.548-4.214 3.654-5.054 5.641-.033.078-.072.162-.095.239a2.256 2.256 0 00-.107.632c0 .297.408.538.969.808 1.235.593 3.078 1.577 3.078 3.34v.57c-.237.059-.49.137-.75.231C14.48 18.799 12 20.005 12 22c0 .76.19 1.14.475 1.33 0 1.235 1.52 1.995 1.995 1.995 0 0-.38-.475-.38-1.14 0-.665 2.768-1.335 2.768-1.335L19 23s.011-.003.029-.003c.109 0 .489.11.489 1.658a4.47 4.47 0 01-.676 2.364c-.404.641-.807 1.235-.806 1.951a.468.468 0 00.106.273.37.37 0 00.112.107c1.122.608 1.721.899 2.887 1.229 1.027.29 2.037.469 3.059.665a5.365 5.365 0 01-.333-1.083z" fill="#4e7ab5"></path><path d="M37.568 15.535s.57-.19.665-.19.76-1.425.76-1.52c0-.19-.76-.475-1.52-.475-.285.095-.95.285-.95.285s.475-.95.38-1.14c-.072-.072-.747-.254-1.192-.254-.141 0-.259.018-.328.064-.169.085-.715.395-.766.395-.006 0-.005-.005.005-.015.095-.38.095-.855.095-.855s-.285-.095-.57-.095-.57.095-.57.095-3.677 2.85-3.705 2.85l-.095.095-.19-.19c-.19.285-1.235.855-1.615.95-.237.059-1.514.045-2.925.188-.847.086-1.742.228-2.49.478l-.38-.95-.005-.036a4.653 4.653 0 01-1.068-.369c.029.17.058.351.08.53l.016.128.048.119.38.95.35.875.895-.298c.575-.192 1.34-.337 2.274-.431.772-.078 1.51-.108 2.049-.129.606-.024.826-.035 1.018-.083.258-.064.793-.297 1.284-.594l.278.278.707-.707.095-.095-.008-.008c.466-.32 1.326-.983 3.095-2.354l.023.055.259.619h.668c.279 0 .437-.082.93-.349l-.933 1.87 2.184-.625s.484-.139.817-.242l.049.004-.058.115c-.099.03-.216.067-.354.113l-2.174.725 2.01 1.101.098.055-.754.066-2.404.219 1.255 1.046a343.254 343.254 0 01-4.084-.314l-1.402-.127.199.796c-.355.112-.726.251-.99.404-.581.309-1.154.681-1.707 1.041-.988.641-2.009 1.305-2.961 1.516l-.783.174v.802c0 .046 0 .088.051.58l-.569.569.704.686 1.669.635v-.285l-.178-.196.092-.008-.864-.841.19-.19s-.095-.894-.095-.95c1.71-.38 3.325-1.805 4.94-2.66.475-.285 1.71-.57 1.71-.57l-.095-.38c1.045.095 4.94.38 5.035.38.095 0 .95-.665.95-.76 0-.095-.57-.57-.57-.57s1.045-.095 1.14-.095c.095 0 .95-.855.95-1.045 0-.286-1.045-.856-1.045-.856z" fill="#4e7ab5"></path><circle cx="13.5" cy="21.5" r=".5" fill="#36404d"></circle></svg>