<svg viewBox="0 0 40 40" fill="#9b59b6" xmlns="http://www.w3.org/2000/svg"><path d="M20.207 38.5a18.524 18.524 0 01-13.798-6.178c-3.557-3.98-5.183-9.121-4.579-14.474.936-8.305 7.622-15.112 15.898-16.187a19.348 19.348 0 012.48-.161 18.477 18.477 0 0117.555 12.646c.341 1.023 1.021 3.589-.033 5.316-.545.894-1.51 1.453-2.87 1.664-.512.08-1.457.199-2.553.33a6.788 6.788 0 00-4.673 2.746 6.77 6.77 0 00-1.153 5.286l.215 1.077a6.608 6.608 0 01-1.37 5.501 6.612 6.612 0 01-5.119 2.434zM19 27.5c-1.93 0-3.5 1.57-3.5 3.5s1.57 3.5 3.5 3.5 3.5-1.57 3.5-3.5-1.57-3.5-3.5-3.5z" fill="#f5c276"></path><path d="M20.208 2a17.978 17.978 0 0117.08 12.304c.249.747.985 3.306.015 4.897-.471.773-1.295 1.24-2.519 1.43-.456.071-1.309.181-2.536.328a7.288 7.288 0 00-5.019 2.949 7.271 7.271 0 00-1.239 5.677l.215 1.077a6.114 6.114 0 01-1.267 5.087A6.111 6.111 0 0120.206 38a18.03 18.03 0 01-13.427-6.011c-3.46-3.872-5.042-8.875-4.455-14.086.913-8.079 7.417-14.701 15.468-15.746A18.894 18.894 0 0120.208 2M19 35c2.206 0 4-1.794 4-4s-1.794-4-4-4-4 1.794-4 4 1.794 4 4 4m1.208-34c-.837 0-1.686.054-2.545.166C9.13 2.273 2.296 9.24 1.332 17.791.038 29.273 8.987 39 20.208 39c4.495-.011 7.861-4.126 6.979-8.534l-.215-1.077c-.716-3.578 1.773-7.003 5.396-7.437a91.964 91.964 0 002.57-.332c5.014-.777 3.93-5.743 3.3-7.632C35.721 6.441 28.599 1 20.208 1zM19 34a3 3 0 110-6 3 3 0 010 6z" fill="#c29653"></path><circle cx="9.5" cy="24.5" r="3" fill="#f78f8f"></circle><path d="M9.5 22c1.378 0 2.5 1.121 2.5 2.5S10.878 27 9.5 27 7 25.878 7 24.5 8.122 22 9.5 22m0-1a3.5 3.5 0 100 7 3.5 3.5 0 000-7z" fill="#c74343"></path><circle cx="9.5" cy="14.5" r="3" fill="#ffeea3"></circle><path d="M9.5 12c1.378 0 2.5 1.121 2.5 2.5S10.878 17 9.5 17 7 15.879 7 14.5 8.122 12 9.5 12m0-1a3.5 3.5 0 100 7 3.5 3.5 0 000-7z" fill="#ba9b48"></path><circle cx="17.5" cy="8.5" r="3" fill="#bae0bd"></circle><path d="M17.5 6C18.878 6 20 7.122 20 8.5S18.878 11 17.5 11 15 9.878 15 8.5 16.122 6 17.5 6m0-1a3.5 3.5 0 100 7 3.5 3.5 0 000-7z" fill="#5e9c76"></path><g><circle cx="27.5" cy="10.5" r="3" fill="#8bb7f0"></circle><path d="M27.5 8c1.378 0 2.5 1.122 2.5 2.5S28.878 13 27.5 13 25 11.878 25 10.5 26.122 8 27.5 8m0-1a3.5 3.5 0 100 7 3.5 3.5 0 000-7z" fill="#4e7ab5"></path></g><g><circle cx="31" cy="31" r="8.5" fill="#bae0bd"></circle><path d="M31 23c4.411 0 8 3.589 8 8s-3.589 8-8 8-8-3.589-8-8 3.589-8 8-8m0-1c-4.971 0-9 4.029-9 9s4.029 9 9 9 9-4.029 9-9-4.029-9-9-9z" fill="#5e9c76"></path></g><path d="M29.727 28.865c0-.488.437-.909 1.337-.909 1.019 0 1.752.289 2.322.634v-1.646c-.424-.236-1.063-.374-1.921-.415v-1.11h-.89v1.134c-.744.073-1.342.335-1.793.784a2.217 2.217 0 00-.677 1.631c0 2.522 4.233 2.6 4.233 3.982 0 .492-.616.872-1.304.872-1.407 0-2.528-.596-2.764-.787v1.689c.711.37 1.48.557 2.305.561v1.287h.89V35.25c.801-.089 1.416-.34 1.848-.753.43-.413.646-.957.646-1.631-.001-2.693-4.232-2.487-4.232-4.001z" fill="#5e9c76"></path></svg>