<svg viewBox="0 0 40 40" xmlns="http://www.w3.org/2000/svg"><path d="M19 38.5c-5.86 0-9.5-5.009-9.5-13.071 0-2.633 1.301-5.265 2.161-7.006.67-1.357 1.04-2.104.792-2.635a39.661 39.661 0 00-.44-.863c-.241-.464-.644-1.24-.695-1.378l-.252-.837c-.949-3.554-.456-7.184.021-8.859.552-1.939 1.519-2.075 2.453-2.207l.321-.048a10 10 0 01.735-.096h9.348c-.003 0 1.291.052 2.674.755.904.459 1.917.974 1.883 1.722-.051 1.029-.578 3.596-.713 4.134a.778.778 0 01-.069.18c-.267.732-.794 1.075-1.259 1.378-.425.277-.828.539-.911 1.017-.053.308.046.622.303.96.335.41.799.925 1.323 1.506 1.537 1.705 4.108 4.559 4.108 5.805-.212 1.6-2.212 4.028-2.819 4.138.008-.037-.022-.152-.022-.381 0-3.79-1.903-8.214-7.265-8.214-4.541 0-8.676 5.856-8.676 12.286 0 3.369 1.765 8.714 6.5 8.714 1.573 0 2.444-.463 4.354-1.478l.134-.071c.176.024.281.109.348.279.198.496-.045 1.424-.48 1.84l-.089.084-.089.263c-.291.88-.688 2.083-4.179 2.083z" fill="#f78f8f"></path><path d="M23.921 2a6.76 6.76 0 012.479.705c.645.328 1.62.823 1.601 1.245-.049.981-.57 3.528-.699 4.041a.326.326 0 01-.029.075l-.028.056-.021.059c-.185.515-.599.785-1.037 1.07-.45.293-1.01.658-1.13 1.35-.077.446.056.899.42 1.376.335.41.795.92 1.328 1.511 1.269 1.408 3.887 4.313 3.977 5.413-.171 1.045-1.137 2.488-1.854 3.234C28.722 17.996 26.302 14 21.176 14 16.374 14 12 20.094 12 26.786 12 30.348 13.9 36 19 36c1.642 0 2.601-.481 4.406-1.439.023.312-.126.891-.395 1.147l-.178.169-.079.232-.051.152C22.435 37.076 22.13 38 19 38c-5.551 0-9-4.817-9-12.571 0-2.516 1.219-4.983 2.109-6.784.739-1.496 1.147-2.32.798-3.064-.06-.129-.244-.486-.453-.888-.207-.4-.542-1.044-.648-1.273l-.001-.008-.017-.06-.342-1.17c-.993-4.182.071-8.018.121-8.194.463-1.626 1.16-1.724 2.042-1.848.116-.016.229-.032.33-.05.183-.03.578-.085.654-.09h9.328m.022-1h-9.35c-.134 0-.662.078-.817.104-.98.167-2.459.109-3.171 2.611-.413 1.451-1.172 5.748.222 9.947l.001-.028c.008.026.008.05.016.077.078.232 1.01 1.974 1.156 2.289.388.83-3 5.015-3 9.429C9 34.469 13.383 39 19 39c4.047 0 4.373-1.606 4.701-2.568.848-.808 1.138-2.984-.324-2.988C21.285 34.554 20.511 35 19 35c-4.754 0-6-5.738-6-8.214C13 20.42 17.051 15 21.176 15c5.56 0 6.765 5 6.765 7.714 0 .626.189.885.482.885.98 0 3.131-2.882 3.36-4.642 0-1.859-4.119-5.886-5.533-7.614-.899-1.183 1.276-1.046 1.915-2.825a1.34 1.34 0 00.108-.285c.138-.549.674-3.16.727-4.233.049-1.073-1.147-1.678-2.156-2.191C25.333 1.042 23.943 1 23.943 1z" fill="#c74343"></path><path d="M23.62 4.323c-.958 1.577-.64 2.057.068 2.698.849.77 1.637 1.243 2.174 1.657.215.164.469.256.72.298.276-.207.515-.442.642-.795l.021-.059.028-.056a.326.326 0 00.029-.075c.129-.513.651-3.059.699-4.041.019-.422-.956-.917-1.601-1.245a6.06 6.06 0 00-.431-.198c-.044-.019-.087-.034-.131-.051-.097-.038-.193-.076-.286-.108l-.137-.044a7.14 7.14 0 00-.721-.192 6.38 6.38 0 00-.203-.039l-.089-.015a3.474 3.474 0 00-.165-.024l-.069-.009a4.527 4.527 0 00-.111-.012l-.056-.006H24c.018.633.097 1.53-.38 2.316zM13.94 2.09c-.102.017-.214.033-.33.05-.882.124-1.579.222-2.042 1.848-.049.171-1.051 3.805-.192 7.851 1.05-.334 3.065-.292 4.355-1.165.749-.506.787-2.074.877-2.935.204-1.981.314-3.936.392-4.739.022-.231.047-.703 0-1h-2.406c-.077.005-.472.06-.654.09z" fill="#ffc7c7"></path><path d="M21.595 38.222c-.88-.721-.974-2.092-1.031-2.93-.012-.173-.022-.324-.037-.445a9.256 9.256 0 00-.01-.484c-.05-1.342-.003-2.327 1.057-2.777 1.986-1.014 1.966-2.267 1.951-3.182-.011-.67-.018-1.113.576-1.523 1.555-1.154 1.486-2.048 1.424-2.837-.051-.652-.095-1.216.747-2.172.179-.229.677-.567 1.499-1.028.218-.123.318-.178.384-.354.297-.812 1.219-.959 2.927-.959l.354.001c.213 1.226.057 2.55-.511 4.438-2.305 7.665-4.784 13.031-9.33 14.252z" fill="#839cb2"></path><path d="M30.999 20.029c.101 1.038-.074 2.202-.552 3.795-2.635 8.761-5.11 12.722-8.712 13.838-.551-.632-.625-1.718-.671-2.404-.011-.155-.02-.293-.032-.409a15.46 15.46 0 00-.014-.505c-.051-1.374.043-1.997.752-2.298l.033-.014.032-.016c2.232-1.141 2.207-2.633 2.191-3.62-.012-.707.016-.867.388-1.124 1.629-1.209 1.691-2.235 1.611-3.267-.047-.605-.078-1.005.623-1.803l.028-.034.01-.012c.061-.073.311-.305 1.329-.876.237-.133.483-.271.612-.622.169-.463.771-.623 2.372-.629m.083-1c-1.575 0-2.954.082-3.394 1.283-.009.024-1.41.737-1.791 1.228-2.053 2.334.447 3.053-2.08 4.928-1.85 1.277.558 3.125-2.439 4.657-1.691.718-1.347 2.593-1.347 3.781.094.781 0 2.906 1.459 3.858 4.756-1.122 7.365-6.175 9.914-14.652.68-2.264.77-3.699.439-5.081l-.761-.002z" fill="#66798f"></path><path d="M26 6a1.001 1.001 0 010-2 1.001 1.001 0 010 2M13.42 7.996c-.546-.066-.425-1.208-.367-1.825.058-.616.41-1.234.954-1.166.545.066 1.08.398.98 1.006-.182 1.155-1.022 2.053-1.567 1.985" fill="#c74343"></path></svg>