<svg viewBox="0 0 40 40" xmlns="http://www.w3.org/2000/svg"><path fill="#4e7ab5" d="M34 32V1h-3v31h-5l6.5 7 6.5-7z"></path><path fill="#bae0bd" d="M1.5 33.5h21v5h-21z"></path><path d="M22 34v4H2v-4h20m1-1H1v6h22v-6z" fill="#5e9c76"></path><path fill="#bae0bd" d="M1.5 25.5h17v5h-17z"></path><path d="M18 26v4H2v-4h16m1-1H1v6h18v-6z" fill="#5e9c76"></path><path fill="#bae0bd" d="M1.5 17.5h13v5h-13z"></path><path d="M14 18v4H2v-4h12m1-1H1v6h14v-6z" fill="#5e9c76"></path><g><path fill="#bae0bd" d="M1.5 9.5h9v5h-9z"></path><path d="M10 10v4H2v-4h8m1-1H1v6h10V9z" fill="#5e9c76"></path></g><g><path fill="#bae0bd" d="M1.5 1.5h5v5h-5z"></path><path d="M6 2v4H2V2h4m1-1H1v6h6V1z" fill="#5e9c76"></path></g></svg>