<svg viewBox="0 0 40 40" xmlns="http://www.w3.org/2000/svg"><path d="M4.893 36.471c.79-1.355 1.714-3.006 2.561-4.578l.198-.369-.328-.26C3.568 28.296 1.5 24.295 1.5 20 1.5 11.453 9.799 4.5 20 4.5S38.5 11.453 38.5 20 30.201 35.5 20 35.5c-2.174 0-4.339-.332-6.437-.985l-.162-.051-.16.06c-2.945 1.094-5.986 1.798-8.348 1.947z" fill="#8bb7f0"></path><path d="M20 5c9.925 0 18 6.729 18 15s-8.075 15-18 15c-2.123 0-4.239-.324-6.287-.962l-.326-.102-.32.119c-2.521.936-5.108 1.583-7.26 1.831a169.857 169.857 0 002.086-3.756l.398-.739-.658-.52C4 28.001 2 24.14 2 20c0-8.271 8.075-15 18-15m0-1C9.507 4 1 11.163 1 20c0 4.601 2.32 8.737 6.013 11.656A149.574 149.574 0 014 37c2.597 0 6.172-.803 9.415-2.007A22.113 22.113 0 0020 36c10.493 0 19-7.163 19-16S30.493 4 20 4z" fill="#4e7ab5"></path><circle cx="19" cy="27.5" r="1.5" fill="#fff"></circle><path d="M16 17v-.5c0-1.972 1.599-3.5 3.571-3.5h0C21.544 13 23 14.528 23 16.5v0c0 3.314-4 3.525-4 7.5" fill="none" stroke="#fff" stroke-width="2" stroke-miterlimit="10"></path></svg>