<svg viewBox="0 0 40 40" xmlns="http://www.w3.org/2000/svg"><path d="M4 33.5c-.827 0-1.5-.673-1.5-1.5V8c0-.827.673-1.5 1.5-1.5h32c.827 0 1.5.673 1.5 1.5v24c0 .827-.673 1.5-1.5 1.5H4z" fill="#bae0bd"></path><path d="M36 7c.551 0 1 .449 1 1v24c0 .551-.449 1-1 1H4c-.551 0-1-.449-1-1V8c0-.551.449-1 1-1h32m0-1H4a2 2 0 00-2 2v24a2 2 0 002 2h32a2 2 0 002-2V8a2 2 0 00-2-2z" fill="#5e9c76"></path><path d="M13.139 22.617l-.39 2.002h-1.651l1.898-8.762h2.041l1.703 8.762h-1.651l-.377-2.002h-1.573zm1.417-1.326l-.286-1.833c-.091-.533-.208-1.417-.286-1.989h-.039c-.091.585-.221 1.482-.312 1.989l-.325 1.833h1.248zM17.832 22.877c.351.195.962.338 1.443.338.793 0 1.196-.416 1.196-.988 0-.637-.39-.949-1.131-1.43-1.196-.728-1.651-1.651-1.651-2.444 0-1.404.936-2.574 2.756-2.574.585 0 1.131.156 1.378.312l-.273 1.469a2.074 2.074 0 00-1.105-.299c-.729 0-1.079.442-1.079.91 0 .52.26.793 1.196 1.365 1.17.702 1.586 1.586 1.586 2.509 0 1.599-1.183 2.652-2.886 2.652-.702 0-1.378-.182-1.677-.351l.247-1.469zM23.474 15.987a8.91 8.91 0 011.781-.169c1.014 0 1.82.143 2.379.676.52.455.754 1.183.754 1.924 0 .949-.286 1.625-.741 2.106-.546.585-1.417.845-2.132.845-.117 0-.221 0-.338-.013v3.263h-1.703v-8.632zm1.703 3.991c.091.013.182.013.286.013.858 0 1.235-.611 1.235-1.43 0-.767-.312-1.365-1.105-1.365a1.27 1.27 0 00-.416.065v2.717z" fill="#44825d"></path></svg>