<svg viewBox="0 0 40 40" xmlns="http://www.w3.org/2000/svg"><path fill="#704e34" d="M2 34l1-1 6 6-1 1z"></path><path fill="#704e34" d="M9 29H8v11l1-1z"></path><path d="M19.309 34.5a.17.17 0 01-.158-.112l-3.089-8.751 1.854-.562 1.224 3.465 4.859-4.834.292.292-5.002 4.965 1.631 4.622 1.358-.474.034-.001c.096 0 .157.035.182.103a.169.169 0 01-.103.213l-3.025 1.064-.057.01z" fill="#b08159"></path><path d="M17.604 25.692l.801 2.269.527 1.492 1.352 3.83.112.316-.882.31-2.804-7.946.894-.271M24 23l-4.653 4.628-1.119-3.17-2.812.851 3.263 9.246a.67.67 0 00.852.407l3.027-1.064a.668.668 0 00.407-.851.668.668 0 00-.851-.407l-.888.309-1.36-3.854L25 24l-1-1z" fill="#704e34"></path><path d="M32.5 27.497c-5.735-.083-10.001-1.6-13.032-4.631l-2.296-2.296 3.031-2.763 2.329 2.329c2.217 2.216 5.393 3.29 9.968 3.361v4z" fill="#b08159"></path><path d="M20.187 18.497l1.992 1.992c2.233 2.232 5.37 3.353 9.822 3.496v3.001c-5.343-.16-9.333-1.628-12.178-4.474l-1.926-1.926 2.29-2.089m.032-1.382l-3.771 3.438 2.667 2.667C22.331 26.436 26.874 28 33 28v-5c-4.704 0-7.918-1.023-10.115-3.219l-2.666-2.666zM36.441 2.881l-1.559-1.559a1.103 1.103 0 00-1.559 0 1.045 1.045 0 00-.323.779c.012.229 0 2.366 0 3.881l3.441-3.101z" fill="#704e34"></path><path fill="#b08159" d="M2.707 34L13.39 23.317l1.293 1.293L4 35.293z"></path><path d="M13.39 24.025l.586.586L4 34.586 3.414 34l9.976-9.975m0-1.415L2 34l2 2 11.39-11.39-2-2zM26.824 10.176L37 0l1.5 1.5-10.176 10.175z" fill="#704e34"></path><path d="M17.468 15.013c.092 0 .187.042.261.116l1.177 1.177-7.242 7.215-1.651-1.651c-.39-.39-.431-.984-.091-1.323.489-.489 4.719-3.554 7.269-5.371l.068-.048.059-.059a.2.2 0 01.15-.056m0-1c-.315 0-.624.115-.857.348 0 0-6.665 4.748-7.396 5.479-.731.731-.69 1.956.091 2.738l2.357 2.357c.423-.423 8.659-8.627 8.659-8.627l-1.886-1.886a1.373 1.373 0 00-.968-.409z" fill="#704e34"></path><g><path fill="#b08159" d="M20.54 16.166l4.626-4.625 1.793 1.793-4.626 4.626z"></path><path d="M25.167 12.248l1.086 1.086-3.919 3.919-1.086-1.086 3.919-3.919m0-1.415l-5.333 5.333 2.5 2.5 5.333-5.333-2.5-2.5z" fill="#704e34"></path></g><g><path d="M12.219 28.309a.825.825 0 01-.589-.244l-1.886-1.886a.835.835 0 010-1.179l10.785-10.785 4.007 4.007-8.451 8.45a1.83 1.83 0 00-.895-.231c-.489 0-.95.19-1.296.537l-1.087 1.087a.825.825 0 01-.588.244z" fill="#d6aa70"></path><path d="M20.529 14.923l3.064 3.064.236.236-7.853 7.853a2.346 2.346 0 00-.785-.135c-.623 0-1.209.243-1.65.683l-1.087 1.087a.332.332 0 01-.472 0l-1.886-1.886a.333.333 0 010-.471l10.433-10.431m0-1.415L9.391 24.647a1.333 1.333 0 000 1.886l1.886 1.886a1.331 1.331 0 001.886 0l1.087-1.087a1.331 1.331 0 011.886 0l9.109-9.109-.945-.943-3.771-3.772z" fill="#8c6a3f"></path></g><g><path fill="#d6aa70" d="M23.258 11.551l5.682-3.904 1.961 1.961-3.967 5.619z"></path><path d="M28.881 8.295l1.368 1.368-3.382 4.79-2.831-2.831 4.845-3.327M29 7l-6.521 4.479L27 16l4.552-6.448L29 7z" fill="#8c6a3f"></path></g></svg>