<svg viewBox="0 0 40 40" xmlns="http://www.w3.org/2000/svg"><path d="M10.374 34.5c-.487-1.178-2.086-1.899-2.285-1.985l-.095-.041h-.103c-.052 0-.371.003-.715.069l-1.669-4.61c.125-1.163 1.26-3.162 1.743-3.926l3.866-3.441 2.922.974 1.946-.973 2.183 1.247c.338.683 1.037 2.205 1.223 3.092l-.942 2.106 1.005 2.011-1.821 4.554-3.694.923h-3.564z" fill="#dcd5f2"></path><path d="M11.233 21.132l2.451.817.393.131.37-.185 1.521-.761 1.817 1.038c.38.779.891 1.95 1.079 2.683l-.777 1.737-.193.432.212.423.799 1.598-1.643 4.108-3.385.847h-3.192c-.651-1.139-2.067-1.801-2.398-1.944l-.19-.082h-.206a4.53 4.53 0 00-.383.018L6.02 27.877c.152-.953 1.023-2.597 1.616-3.543l3.597-3.202M16 20l-2 1-3-1-4.134 3.68S5.093 26.436 5 28l1.866 5.158c.373-.184 1.025-.184 1.025-.184S9.814 33.804 10 35h4l4-1 2-5-1-2 .909-2.032c-.186-1.196-1.364-3.514-1.364-3.514L16 20z" fill="#8b75a1"></path><circle cx="19.5" cy="5.5" r=".5" fill="#f75252"></circle><circle cx="21.5" cy="3.5" r=".5" fill="#f75252"></circle><circle cx="23.5" cy="1.5" r=".5" fill="#f75252"></circle><circle cx="30.5" cy="24.5" r=".5" fill="#f75252"></circle><circle cx="32.5" cy="22.5" r=".5" fill="#f75252"></circle><circle cx="34.5" cy="20.5" r=".5" fill="#f75252"></circle><circle cx="34.5" cy="12.5" r=".5" fill="#f75252"></circle><circle cx="27.5" cy="5.5" r=".5" fill="#f75252"></circle><circle cx="29.5" cy="3.5" r=".5" fill="#f75252"></circle><circle cx="34.5" cy="5.5" r=".5" fill="#f75252"></circle><circle cx="36.5" cy="3.5" r=".5" fill="#f75252"></circle><circle cx="38.5" cy="1.5" r=".5" fill="#f75252"></circle><path d="M10.382 25A2.613 2.613 0 008 26.544c.328-.148.69-.235 1.073-.235a2.618 2.618 0 012.618 2.618c0 .384-.087.745-.235 1.073A2.613 2.613 0 0013 27.618 2.618 2.618 0 0010.382 25zM15.475 29.525c.366.422.434.981.269 1.475.26-.047.515-.137.729-.323a1.526 1.526 0 00-1.997-2.305c-.215.186-.34.425-.423.676.513-.092 1.056.055 1.422.477z" fill="#a99ed8"></path><path d="M12.098 39a11.029 11.029 0 01-7.848-3.25C2.154 33.654.999 30.867.999 27.903s1.155-5.751 3.251-7.847L17 7.293l.707.707-12.75 12.763c-1.907 1.907-2.958 4.442-2.958 7.14s1.051 5.233 2.958 7.14S9.4 38 12.098 38c2.696 0 5.232-1.05 7.141-2.958l8.757-8.757.707.707-8.757 8.757A11.029 11.029 0 0112.098 39z" fill="#f75252"></path><path fill="#f75252" d="M25.293 7l.707.707-9.287 9.288-.708-.707zM32.287 14l.707.707-9.287 9.287-.707-.707zM32.293 7l.707.708L20.708 20 20 19.292z"></path></svg>