<svg viewBox="0 0 40 40" xmlns="http://www.w3.org/2000/svg"><path d="M2.357 24.5a.846.846 0 01-.857-.833v-5.333c0-.459.385-.833.857-.833h35.285c.473 0 .857.374.857.833v5.333a.847.847 0 01-.857.833H2.357z" fill="#8bb7f0"></path><path d="M37.643 18c.197 0 .357.15.357.333v5.333c0 .184-.16.334-.357.334H2.357C2.16 24 2 23.85 2 23.667v-5.333c0-.184.16-.334.357-.334h35.286m0-1H2.357C1.608 17 1 17.597 1 18.333v5.333C1 24.403 1.608 25 2.357 25h35.286c.749 0 1.357-.597 1.357-1.333v-5.333c0-.737-.608-1.334-1.357-1.334z" fill="#4e7ab5"></path><path d="M20 38.5c-8.045 0-14.219-3.099-15.5-3.793V18.244C4.5 7.759 10.294 1.5 20 1.5s15.5 6.175 15.5 16.519v16.688c-1.281.694-7.455 3.793-15.5 3.793z" fill="#c2e8ff"></path><path d="M20 2c9.393 0 15 5.988 15 16.019v16.388C33.324 35.281 27.502 38 20 38c-7.48 0-13.319-2.721-15-3.594V18.244C5 8.072 10.607 2 20 2m0-1C8.742 1 4 9.072 4 18.244V35s6.729 4 16 4 16-4 16-4V18.019C36 8.846 31.258 1 20 1z" fill="#7496c4"></path><path d="M20 38.5c-8.045 0-14.219-3.099-15.5-3.793v-2.866C6.521 32.879 12.38 35.5 20 35.5s13.479-2.621 15.5-3.659v2.866c-1.281.694-7.455 3.793-15.5 3.793z" fill="#8bb7f0"></path><path d="M35 32.644v1.763C33.324 35.281 27.502 38 20 38c-7.48 0-13.319-2.721-15-3.594v-1.762C7.538 33.847 13.051 36 20 36s12.462-2.153 15-3.356M36 31s-6.729 4-16 4-16-4-16-4v4s6.729 4 16 4 16-4 16-4v-4z" fill="#4e7ab5"></path><path d="M20 30.5c-7.594 0-12.5-2.942-12.5-7.495v-5.042C7.5 14.059 10.773 9.5 20 9.5s12.5 4.559 12.5 8.463v5.042c0 4.553-4.906 7.495-12.5 7.495z" fill="#dcd5f2"></path><path d="M20 10c8.857 0 12 4.29 12 7.963v5.042C32 27.254 27.29 30 20 30S8 27.254 8 23.005v-5.042C8 14.113 11.152 10 20 10m0-1c-9.683 0-13 4.859-13 8.963v5.042C7 27.746 11.951 31 20 31s13-3.254 13-7.995v-5.042C33 13.921 29.683 9 20 9z" fill="#8b75a1"></path><path d="M11 22v-4.024C11 16.233 13.906 14 19.5 14h.5v-1h-.5c-7.012 0-9.5 2.68-9.5 4.976V22h1z" fill="#fff"></path><g><path d="M30 24.5c.479 0 .95-.128 1.363-.353l-.015.06c-.234.182-.735.293-1.348.293z" fill="#839cb2"></path><path d="M32 22.857c-.371.686-1.175 1.143-2 1.143h-5v1h5c.442 0 1.383-.054 1.796-.53A5.35 5.35 0 0032 23.005v-.148z" fill="#66798f"></path></g><g><circle cx="25.5" cy="24.5" r="1" fill="#839cb2"></circle><path d="M25.5 24a.5.5 0 110 1 .5.5 0 010-1m0-1a1.5 1.5 0 10.001 3.001A1.5 1.5 0 0025.5 23z" fill="#66798f"></path></g></svg>