<svg viewBox="0 0 40 40" xmlns="http://www.w3.org/2000/svg"><path d="M12 25.5A2.503 2.503 0 019.5 23V11c0-1.378 1.122-2.5 2.5-2.5h16c1.378 0 2.5 1.122 2.5 2.5v12c0 1.378-1.122 2.5-2.5 2.5H12z" fill="#8bb7f0"></path><path d="M28 9c1.103 0 2 .897 2 2v12c0 1.103-.897 2-2 2H12c-1.103 0-2-.897-2-2V11c0-1.103.897-2 2-2h16m0-1H12a3 3 0 00-3 3v12a3 3 0 003 3h16a3 3 0 003-3V11a3 3 0 00-3-3z" fill="#4e7ab5"></path><path d="M7 29.5a.5.5 0 01-.5-.5V18.643c0-2.718 2.288-4.929 5.1-4.929h16.8c2.812 0 5.1 2.211 5.1 4.929V29a.5.5 0 01-.5.5H7z" fill="#8bb7f0"></path><path d="M28.4 14.214c2.536 0 4.6 1.987 4.6 4.429V29H7V18.643c0-2.442 2.064-4.429 4.6-4.429h16.8m0-1H11.6c-3.093 0-5.6 2.43-5.6 5.429V29a1 1 0 001 1h26a1 1 0 001-1V18.643c0-2.998-2.507-5.429-5.6-5.429z" fill="#4e7ab5"></path><path d="M23 38.5c-2.404 0-2.498-2.139-2.5-2.229l-1 .015c-.002.224-.092 2.214-2.5 2.214h-4c-1.229 0-2.5-.935-2.5-2.5V13.5h19V36c0 1.544-1.298 2.5-2.5 2.5h-4z" fill="#c2e8ff"></path><path d="M29 14v22c0 1.235-1.038 2-2 2h-4c-1.773 0-1.98-1.343-2-1.745l-2 .031c0 .286-.096 1.714-2 1.714h-4c-.97 0-2-.701-2-2V14h18m1-1H10v23c0 1.818 1.454 3 3 3h4c3 0 3-2.714 3-2.714S20.083 39 23 39h4c1.546 0 3-1.236 3-3V13z" fill="#7496c4"></path><path d="M15.225 27.5a.726.726 0 01-.725-.725v-7.551c0-.399.325-.725.725-.725h9.551c.399 0 .725.325.725.725v7.551a.726.726 0 01-.725.725h-9.551z" fill="#8bb7f0"></path><path d="M24.775 19c.124 0 .225.101.225.225v7.551a.225.225 0 01-.225.224h-9.551a.225.225 0 01-.224-.225v-7.551c0-.123.101-.224.225-.224h9.55m0-1h-9.551c-.676 0-1.224.548-1.224 1.225v7.551c0 .676.548 1.224 1.225 1.224h9.551c.676 0 1.224-.548 1.224-1.225v-7.551c0-.676-.548-1.224-1.225-1.224z" fill="#fff"></path><path fill="#c2e8ff" d="M19.5 31.5h1v4h-1z"></path><path d="M20 32v3-3m1-1h-2v5h2v-5z" fill="#7496c4"></path><path d="M13 38.5c-.78 0-1.389-.217-1.809-.645-.473-.483-.623-1.142-.67-1.526.687-.261 2.425-.829 4.479-.829 2.049 0 3.783.566 4.474.827-.053.39-.212 1.054-.693 1.538-.42.421-1.019.635-1.781.635h-4z" fill="#8bb7f0"></path><path d="M15 36c1.651 0 3.09.383 3.898.653-.079.281-.219.603-.468.855-.327.331-.795.492-1.43.492h-4c-.647 0-1.12-.16-1.447-.491-.249-.252-.386-.574-.461-.853.806-.27 2.251-.656 3.908-.656m0-1c-2.8 0-5 1-5 1s-.083 3 3 3h4c3.042 0 3-3 3-3s-2.2-1-5-1z" fill="#4e7ab5"></path><path d="M23 38.5c-.762 0-1.361-.214-1.78-.636-.481-.484-.641-1.148-.693-1.538.69-.26 2.424-.826 4.473-.826s3.783.566 4.474.827c-.053.39-.212 1.054-.693 1.538-.42.421-1.019.635-1.781.635h-4z" fill="#8bb7f0"></path><path d="M25 36c1.661 0 3.109.388 3.914.658-.164.606-.628 1.342-1.915 1.342H23c-1.287 0-1.751-.738-1.914-1.342.805-.27 2.252-.658 3.914-.658m0-1c-2.8 0-5 1-5 1s-.042 3 3 3h3.999C30.042 39 30 36 30 36s-2.2-1-5-1z" fill="#4e7ab5"></path><path d="M20 15.5c-3.74 0-6.66-1.36-7.5-1.797V8.39c0-4.314 2.804-6.89 7.5-6.89s7.5 2.54 7.5 6.793v5.41c-.84.437-3.76 1.797-7.5 1.797z" fill="#c2e8ff"></path><path d="M20 2c4.449 0 7 2.294 7 6.293v5.102C25.948 13.904 23.303 15 20 15c-3.304 0-5.95-1.096-7-1.606V8.39C13 6.469 13.682 2 20 2m0-1c-5.629 0-8 3.44-8 7.39V14s3.365 2 8 2 8-2 8-2V8.293C28 4.343 25.629 1 20 1z" fill="#7496c4"></path><path d="M20 12.5c-2.733 0-4.5-1.087-4.5-2.771V7.667C15.5 6.136 16.682 4.5 20 4.5c3.321 0 4.5 1.706 4.5 3.167V9.73c0 1.683-1.767 2.77-4.5 2.77z" fill="#dcd5f2"></path><path d="M20 5c2.949 0 4 1.378 4 2.667V9.73c0 1.379-1.57 2.27-4 2.27s-4-.891-4-2.271V7.667C16 6.378 17.051 5 20 5m0-1c-3.724 0-5 1.988-5 3.667V9.73c0 1.939 1.904 3.27 5 3.27s5-1.331 5-3.271V7.667C25 6.013 23.724 4 20 4z" fill="#8b75a1"></path><path fill="#f75252" d="M6 26h4v1H6z"></path><path fill="#c74343" d="M6 26h1v1H6z"></path><path fill="#f75252" d="M6 23h4v1H6z"></path><path fill="#c74343" d="M6 23h1v1H6z"></path><path fill="#f75252" d="M30 26h4v1h-4z"></path><path fill="#c74343" d="M33 26h1v1h-1z"></path><path fill="#f75252" d="M30 23h4v1h-4z"></path><path fill="#c74343" d="M33 23h1v1h-1z"></path><path d="M18 9V7.667c0-.323.701-.667 2-.667V6c-1.878 0-3 .623-3 1.667V9h1z" fill="#fff"></path></svg>