<svg viewBox="0 0 40 40" xmlns="http://www.w3.org/2000/svg"><path fill="#FFEEA3" d="M17 35.1l-4.3 2.6-1.3-5.1-5 1 1-5.2-5.2-1L5 23.1.8 20l4.1-3-2.6-4.3 5.1-1.3-1-5 5.2 1 1-5.2L16.9 5 20 .8l3 4.1 4.3-2.6 1.3 5.1 5-1-1 5.2 5.2 1-2.8 4.3 4.2 3.1-4.1 3 2.6 4.3-5.1 1.3 1 5-5.2-1-1 5.2-4.3-2.8-3.1 4.2z"></path><path fill="#BA9B48" d="M20 1.7l2.3 3.1.5.7.8-.5L27 3l1 4 .2.9.9-.2L33 7l-.8 4-.2 1 1 .2 4 .8-2.2 3.2-.5.8.8.6 3.3 2.5-3.1 2.3-.7.5.5.8 2 3.4-4 1-.9.2.2.9.6 3.8-4-.8-1-.2-.2 1-.8 4-3.2-2.2-.8-.5-.6.8-2.4 3.2-2.3-3.1-.5-.7-.8.5-3.4 2-1-4-.2-.9-.9.2L7 33l.8-4 .2-1-1-.2-4-.8 2.2-3.2.5-.8-.8-.6L1.7 20l3.1-2.3.7-.5-.5-.8L3 13l4-1 .9-.2-.2-.9L7 7l4 .8 1 .2.2-1 .8-4 3.2 2.2.8.5.6-.8L20 1.7M20 0l-3.3 4.3-4.5-3-1.1 5.5-5.4-1.1L6.8 11l-5.2 1.3 2.7 4.5L0 20l4.3 3.3-3 4.5 5.5 1.1-1.1 5.5 5.3-1.1 1.3 5.2 4.5-2.7L20 40l3.3-4.3 4.5 3 1.1-5.5 5.5 1.1-1.2-5.3 5.2-1.3-2.7-4.5L40 20l-4.3-3.3 3-4.5-5.5-1.1 1.1-5.5L29 6.8l-1.3-5.2-4.5 2.7L20 0z"></path><circle fill="#F5CE85" cx="20" cy="20" r="11"></circle><path fill="#FFF7D1" d="M1.5 12.3l2.7 4.6L0 20l4.3 3.3-3 4.4 5.5 1.1-1.1 5.5 5.3-1.1 1.3 5.3 4.6-2.7L20 40l3.3-4.3 4.4 3 1.1-5.5 5.5 1.1-1.1-5.3 5.3-1.3-2.7-4.6L40 20l-4.3-3.3 3-4.4-3.9-.8h-30z"></path><path fill="#FAE7C2" d="M20.2 31c6.1 0 11-4.9 11-11 0-3.4-1.6-6.5-4-8.5h-14c-2.5 2-4 5.1-4 8.5 0 6.1 5 11 11 11z"></path><path fill="#DDCDA4" d="M33.2 29l5.3-1.3-2.7-4.6L40 20l-4.3-3.3 3-4.4-3.9-.8h-2.7l-.1.5 1 .2 4 .8-2.2 3.2-.5.8.8.5 3.2 2.5-3.1 2.3-.7.6.4.8 2 3.3-3.9 1-.9.3.1.9.8 3.8-4-.8-1-.2-.2 1-.8 4-3.2-2.2-.8-.5-.5.8-2.5 3.2-2.3-3.1-.6-.7-.8.4-3.3 2-1-3.9-.3-.9-.9.1L7 33l.8-4 .2-1-1-.2-4-.8 2.2-3.2.5-.8-.8-.5L1.7 20l3.1-2.3.7-.6-.4-.8-2-3.3L7 12l.9-.3v-.2H4.8l-3.3.8 2.7 4.6L0 20l4.3 3.3-3 4.4 5.5 1.1-1.1 5.5 4.2-.9 1.1-.2 1.3 5.3 4.6-2.7L20 40l3.3-4.3 4.4 3 1.1-5.5 5.5 1.1z"></path><path fill="#36404D" d="M1 11h38v1H1zM15.6 15.1V25H14v-8c-.3.2-.6.4-.9.5-.3.1-.7.3-1.1.4v-1.3c.3-.1.5-.2.8-.3.2-.1.5-.2.7-.3.2-.1.5-.2.7-.4.2-.1.5-.3.7-.5h.7zM17.3 22.1c0-.3 0-.5.1-.8.1-.3.2-.5.3-.7.1-.2.3-.4.5-.6.2-.2.5-.3.7-.4-.4-.2-.8-.5-1-.9-.2-.4-.4-.8-.4-1.2 0-.4.1-.7.2-1 .1-.3.3-.6.6-.8.3-.2.6-.4.9-.5.4-.1.7-.2 1.1-.2.4 0 .8.1 1.2.2.4.1.7.3.9.5.3.2.5.5.6.8s.2.6.2 1-.1.9-.4 1.2c-.2.4-.6.7-1 .9.3.1.5.2.7.4.2.2.4.4.5.6.1.2.3.5.3.7.1.3.1.5.1.8 0 .4-.1.8-.2 1.2s-.4.7-.7.9c-.3.2-.6.4-1 .6-.1.1-.5.2-1 .2s-.9-.1-1.3-.2-.7-.3-1-.6c-.3-.2-.5-.6-.7-.9-.1-.3-.2-.7-.2-1.2zm1.5-.1c0 .3 0 .5.1.7l.3.6c.1.2.3.3.5.4.2.1.4.1.7.1.2 0 .5 0 .7-.1.2-.1.4-.2.5-.4.1-.2.3-.3.4-.6s.1-.5.1-.7c0-.2 0-.5-.1-.7l-.3-.6c-.1-.2-.3-.3-.5-.4-.2-.1-.4-.1-.7-.1-.2 0-.5 0-.7.1-.2.1-.4.2-.5.4-.1.2-.3.3-.4.6s-.1.4-.1.7zm.3-4.4c0 .2 0 .4.1.6.1.2.2.3.3.5.1.1.3.2.4.3.2.1.3.1.5.1s.4 0 .5-.1c.2-.1.3-.2.4-.3.1-.1.2-.3.3-.5.1-.2.1-.4.1-.6 0-.2 0-.4-.1-.6-.1-.2-.2-.3-.3-.5-.1-.1-.3-.2-.4-.3-.2-.1-.3-.1-.5-.1s-.4 0-.6.1c-.2.1-.3.2-.4.3-.1.1-.2.3-.3.5.1.3 0 .4 0 .6zM27 18.9c-.5 0-1-.2-1.3-.6-.4-.4-.6-.8-.6-1.4 0-.5.2-1 .5-1.3s.8-.5 1.3-.5 1 .2 1.4.5c.4.4.6.8.6 1.3s-.2 1-.6 1.4c-.3.4-.8.6-1.3.6zm0-2.9c-.3 0-.5.1-.7.3-.2.2-.3.4-.3.7 0 .3.1.5.3.7.2.2.4.3.7.3.3 0 .5-.1.7-.3.2-.2.3-.4.3-.7 0-.3-.1-.5-.3-.7-.2-.2-.4-.3-.7-.3z"></path></svg>