<svg viewBox="0 0 40 40" xmlns="http://www.w3.org/2000/svg"><path d="M1.5 32.5V4.826C1.5 3.543 2.6 2.5 3.95 2.5h32.1c1.351 0 2.45 1.043 2.45 2.326V32.5h-37z" fill="#e1ebf2"></path><path d="M36.05 3C37.125 3 38 3.819 38 4.826V32H2V4.826C2 3.819 2.875 3 3.95 3h32.1m0-1H3.95C2.321 2 1 3.266 1 4.826V33h38V4.826C39 3.266 37.678 2 36.05 2z" fill="#788b9c"></path><path fill="#b0c1d4" d="M4.5 6.5h31v17h-31z"></path><path d="M35 7v16H5V7h30m1-1H4v18h32V6z" fill="#66798f"></path><path fill="#66798f" d="M32 15h3v2h-3zM32 19h3v2h-3zM32 11h3v2h-3zM5 15h3v2H5zM5 19h3v2H5zM5 11h3v2H5z"></path><path fill="#8bb7f0" d="M9.5 6.5h21v17h-21z"></path><path d="M30 7v16H10V7h20m1-1H9v18h22V6z" fill="#4e7ab5"></path><path fill="#36404d" d="M4 26h20v3H4zM26 26h10v3H26z"></path><path fill="#bae0bd" d="M6.5 26.5h15v11h-15z"></path><path d="M21 27v10H7V27h14m1-1H6v12h16V26z" fill="#5e9c76"></path><path fill="#fff" d="M14 15h5v1h-5zM14 11h12v1H14z"></path><circle cx="14" cy="34" r="1.5" fill="#fff"></circle><path d="M14 33c.551 0 1 .449 1 1s-.449 1-1 1-1-.449-1-1 .449-1 1-1m0-1a2 2 0 10-.001 3.999A2 2 0 0014 32z" fill="#5e9c76"></path><path d="M7 26v2h2.537a5.977 5.977 0 01-1.188-2H7zM21 26h-1.349a5.977 5.977 0 01-1.188 2H21v-2z" fill="#93bc9d"></path><path d="M14 29c1.116 0 2.136-.38 2.969-1h-5.938c.833.62 1.853 1 2.969 1z" fill="#fff"></path><g><path d="M11.031 28h5.938a5.02 5.02 0 001.607-2H9.424a5.011 5.011 0 001.607 2z" fill="#93bc9d"></path></g><path d="M14 29a4.952 4.952 0 01-2.969-1H9.537a5.978 5.978 0 008.926 0h-1.494c-.833.62-1.853 1-2.969 1zM18.576 26a5.02 5.02 0 01-1.607 2h1.494a5.977 5.977 0 001.188-2h-1.075zM9.424 26H8.349c.264.746.67 1.423 1.188 2h1.494a5.011 5.011 0 01-1.607-2z" fill="#5e9c76"></path></svg>