<svg viewBox="0 0 40 40" xmlns="http://www.w3.org/2000/svg"><path fill="#7496c4" d="M38 3h1v33h-1z"></path><path fill="#7496c4" d="M32 35h7v1h-7zM32 19h7v1h-7z"></path><path fill="#c74343" d="M32 3h7v1h-7z"></path><path fill="#7496c4" d="M35 31h4v1h-4zM35 27h4v1h-4zM35 23h4v1h-4zM35 15h4v1h-4z"></path><path fill="#c74343" d="M35 11h4v1h-4z"></path><path fill="#c74343" d="M38 3h1v9h-1z"></path><path fill="#c74343" d="M35 7h4v1h-4z"></path><path fill="#4e7ab5" d="M18 31l4 5 4-5zM9 31l4 5 4-5zM0 31l4 5 4-5z"></path><path d="M29 3c0 6.86-.479 8.43-4.2 15.4C22.044 23.563 22 26.129 22 31M20 3c0 6.86-.479 8.43-4.2 15.4C13.044 23.563 13 26.129 13 31M11 3c0 6.86-.479 8.43-4.2 15.4C4.044 23.563 4 26.129 4 31" fill="none" stroke="#4e7ab5" stroke-width="2" stroke-miterlimit="10"></path></svg>