<svg viewBox="0 0 40 40" xmlns="http://www.w3.org/2000/svg"><path fill="#c2e8ff" d="M6.5 37.5v-35h18.293l8.707 8.707V37.5z"></path><path d="M24.586 3L33 11.414V37H7V3h17.586M25 2H6v36h28V11l-9-9z" fill="#7496c4"></path><path fill="#fff" d="M24.5 11.5v-9h.293l8.707 8.707v.293z"></path><path d="M25 3.414L32.586 11H25V3.414M25 2h-1v10h10v-1l-9-9z" fill="#7496c4"></path><path d="M20.5 26v-9.5c2.639 0 4 1 4 1v2s-1.849-1-3.5-1" fill="#8bb7f0" stroke="#4e7ab5" stroke-miterlimit="10"></path><g><circle cx="18" cy="26" r="2.5" fill="#8bb7f0"></circle><path d="M18 24c1.103 0 2 .897 2 2s-.897 2-2 2-2-.897-2-2 .897-2 2-2m0-1a3 3 0 100 6 3 3 0 000-6z" fill="#4e7ab5"></path></g></svg>