<svg viewBox="0 0 40 40" xmlns="http://www.w3.org/2000/svg"><path fill="#839cb2" d="M2.5 2.5h35v35h-35z"></path><path d="M37 3v34H3V3h34m1-1H2v36h36V2z" fill="#66798f"></path><path fill="#c74343" d="M10 3h20v16H10z"></path><path d="M16 27.5c-1.93 0-3.5-1.57-3.5-3.5s1.57-3.5 3.5-3.5 3.5 1.57 3.5 3.5-1.57 3.5-3.5 3.5z" fill="#f5ce85"></path><path d="M16 21a3 3 0 110 6 3 3 0 010-6m0-1c-2.206 0-4 1.794-4 4s1.794 4 4 4 4-1.794 4-4-1.794-4-4-4z" fill="#66798f"></path><path d="M8 27.5c-1.93 0-3.5-1.57-3.5-3.5s1.57-3.5 3.5-3.5 3.5 1.57 3.5 3.5-1.57 3.5-3.5 3.5z" fill="#f5ce85"></path><path d="M8 21a3 3 0 110 6 3 3 0 010-6m0-1c-2.206 0-4 1.794-4 4s1.794 4 4 4 4-1.794 4-4-1.794-4-4-4z" fill="#66798f"></path><path d="M32 27.5c-1.93 0-3.5-1.57-3.5-3.5s1.57-3.5 3.5-3.5 3.5 1.57 3.5 3.5-1.57 3.5-3.5 3.5z" fill="#f5ce85"></path><path d="M32 21a3 3 0 110 6 3 3 0 010-6m0-1c-2.206 0-4 1.794-4 4s1.794 4 4 4 4-1.794 4-4-1.794-4-4-4z" fill="#66798f"></path><path d="M24 27.5c-1.93 0-3.5-1.57-3.5-3.5s1.57-3.5 3.5-3.5 3.5 1.57 3.5 3.5-1.57 3.5-3.5 3.5z" fill="#f5ce85"></path><path d="M24 21a3 3 0 110 6 3 3 0 010-6m0-1c-2.206 0-4 1.794-4 4s1.794 4 4 4 4-1.794 4-4-1.794-4-4-4z" fill="#66798f"></path><path d="M20 35.5c-1.93 0-3.5-1.57-3.5-3.5s1.57-3.5 3.5-3.5 3.5 1.57 3.5 3.5-1.57 3.5-3.5 3.5z" fill="#f5ce85"></path><path d="M20 29a3 3 0 110 6 3 3 0 010-6m0-1c-2.206 0-4 1.794-4 4s1.794 4 4 4 4-1.794 4-4-1.794-4-4-4z" fill="#66798f"></path><path d="M12 35.5c-1.93 0-3.5-1.57-3.5-3.5s1.57-3.5 3.5-3.5 3.5 1.57 3.5 3.5-1.57 3.5-3.5 3.5z" fill="#f5ce85"></path><path d="M12 29a3 3 0 110 6 3 3 0 010-6m0-1c-2.206 0-4 1.794-4 4s1.794 4 4 4 4-1.794 4-4-1.794-4-4-4z" fill="#66798f"></path><g><path d="M28 35.5c-1.93 0-3.5-1.57-3.5-3.5s1.57-3.5 3.5-3.5 3.5 1.57 3.5 3.5-1.57 3.5-3.5 3.5z" fill="#f5ce85"></path><path d="M28 29a3 3 0 110 6 3 3 0 010-6m0-1c-2.206 0-4 1.794-4 4s1.794 4 4 4 4-1.794 4-4-1.794-4-4-4z" fill="#66798f"></path></g><path d="M38 2H2v17h11s5.011-4.537 7-16c1.989 11.463 7 16 7 16h11V2z" fill="#f7a3a3"></path><path fill="#c74343" d="M2 2v17h1V3h34v16h1V2z"></path><path d="M10.994 6c0 3.756-4.999 9.177-7.994 11.871v1.324C5.624 16.943 11.994 10.647 11.994 6h-1zM9.005 19c3.36-3.281 7.942-10.423 8.033-15.992l-1-.017C15.942 8.872 10.517 16.5 7.514 19h1.491zM29.006 6c0 3.756 4.999 9.177 7.994 11.871v1.324C34.376 16.943 28.006 10.647 28.006 6h1zM30.995 19c-3.36-3.281-7.942-10.423-8.033-15.992l1-.017C24.058 8.872 29.483 16.5 32.486 19h-1.491z" fill="#c74343"></path></svg>