<svg viewBox="0 0 40 40" xmlns="http://www.w3.org/2000/svg"><path fill="#c2e8ff" d="M8.5 2.5h27v31h-27z"></path><path d="M35 3v30H9V3h26m1-1H8v32h28V2z" fill="#7496c4"></path><path d="M5.5 35V5c0-1.378 1.122-2.5 2.5-2.5h.5V35h-3z" fill="#8bb7f0"></path><path d="M8 3v31.5H6V5c0-1.103.897-2 2-2m1-1H8a3 3 0 00-3 3v30.5h4V2z" fill="#7496c4"></path><path fill="#dbf2ff" d="M9 3h1v30H9z"></path><path d="M9 3H8a2 2 0 00-2 2v30.231h3V3zM17 20.5c-.827 0-1.5-.673-1.5-1.5v-2c0-.827.673-1.5 1.5-1.5h1.5v5H17z" fill="#8bb7f0"></path><path d="M18 16v4h-1c-.551 0-1-.449-1-1v-2c0-.551.449-1 1-1h1m1-1h-2a2 2 0 00-2 2v2a2 2 0 002 2h2v-6z" fill="#4e7ab5"></path><path fill="#8bb7f0" d="M18.5 20.793v-5.586l3-3v11.586z"></path><path d="M21 13.414v9.172l-2-2v-5.172l2-2M22 11l-4 4v6l4 4V11z" fill="#4e7ab5"></path><path d="M25.798 23a5.978 5.978 0 000-10M24.149 20.5a2.99 2.99 0 000-5" fill="none" stroke="#4e7ab5" stroke-linecap="round" stroke-miterlimit="10"></path><g><path d="M7.5 37.5c-1.103 0-2-.897-2-2s.897-2 2-2h28v.34c-.179.272-.5.87-.5 1.66s.321 1.388.5 1.66v.34h-28z" fill="#fff"></path><path d="M34.839 34a3.533 3.533 0 00-.339 1.5c0 .616.165 1.13.339 1.5H7.5c-.827 0-1.5-.673-1.5-1.5S6.673 34 7.5 34h27.339M36 33H7.5a2.5 2.5 0 100 5H36v-1s-.5-.597-.5-1.5.5-1.5.5-1.5v-1z" fill="#7496c4"></path></g></svg>