<svg viewBox="0 0 40 40" xmlns="http://www.w3.org/2000/svg"><path d="M19.999 38.458c-1.707-.743-15.364-7.474-15.498-32.091L20 1.524l15.499 4.843c-.134 24.552-13.792 31.341-15.5 32.091z" fill="#c2e8ff"></path><path d="M20 2.048l14.996 4.686c-.258 23.19-12.752 30.119-15 31.177C17.735 36.869 5.26 30.057 5.004 6.734L20 2.048M20 1L4 6c0 27.141 16 33 16 33s16-5.932 16-33L20 1z" fill="#7496c4"></path><path fill="#4c96d8" d="M22.151 27.5h-4.302L15.5 29.066v-.899l2.75-3.667h3.5l2.75 3.667v.899z"></path><path d="M21.5 25l2.197 2.93-1.143-.762-.251-.168h-4.606l-.252.168-1.143.762L18.5 25h3m.5-1h-4l-3 4v2l3-2h4l3 2v-2l-3-4z" fill="#4e7ab5"></path><g><path fill="#4c96d8" d="M9.5 19.294l8.629-4.794h3.742l8.629 4.794v1.147l-8.445-.938L18 19.5l-8.5.941z"></path><path d="M21.741 15L30 19.588v.294l-7.89-.877-.055-.005H17.945l-.055.006-7.89.877v-.294L18.259 15h3.482M22 14h-4l-9 5v2l9-1h4l9 1v-2l-9-5z" fill="#4e7ab5"></path></g><g><path d="M18.5 27.5V9c0-.827.673-1.5 1.5-1.5s1.5.673 1.5 1.5v18.5h-3z" fill="#8bb7f0"></path><path d="M20 8c.551 0 1 .449 1 1v18h-2V9c0-.551.449-1 1-1m0-1a2 2 0 00-2 2v19h4V9a2 2 0 00-2-2z" fill="#4e7ab5"></path></g></svg>