<svg viewBox="0 0 40 40" xmlns="http://www.w3.org/2000/svg"><path fill="#8bb7f0" d="M2.5 2.5h35v35h-35z"></path><path d="M37 3v34H3V3h34m1-1H2v36h36V2z" fill="#4e7ab5"></path><g><path d="M17.554 32.5l-.429-3.45-.291-.103a9.46 9.46 0 01-2.916-1.653l-.239-.2-3.184 1.424-2.498-4.188 2.788-2.011-.068-.319a9.54 9.54 0 01-.025-3.9l.063-.309-2.763-2.084 2.501-4.193 3.148 1.429.241-.204a9.457 9.457 0 012.97-1.693l.293-.104.41-3.443h4.887l.39 3.435.296.104c1.1.384 2.1.951 2.974 1.685l.241.203 3.117-1.413 2.502 4.195-2.718 2.069.063.308a9.602 9.602 0 010 3.833l-.063.306 2.719 2.095-2.499 4.188-3.075-1.477-.248.21a9.468 9.468 0 01-3.016 1.723l-.297.104-.385 3.433h-4.889zm2.448-17c-2.481 0-4.5 2.019-4.5 4.5s2.019 4.5 4.5 4.5 4.5-2.019 4.5-4.5-2.019-4.5-4.5-4.5z" fill="#c2e8ff"></path><path d="M21.997 8l.304 2.679.071.624.593.207c1.041.363 1.989.9 2.818 1.596l.482.405.574-.26 2.423-1.098 2.045 3.428-2.113 1.608-.5.381.126.616a9.1 9.1 0 010 3.632l-.125.612.495.381 2.12 1.634-2.037 3.415-2.373-1.14-.585-.281-.495.42a8.941 8.941 0 01-2.857 1.631l-.594.207-.071.625L21.996 32h-4.001l-.336-2.705-.076-.613-.582-.206a8.958 8.958 0 01-2.762-1.566l-.479-.4-.57.255-2.493 1.115-2.035-3.411 2.152-1.552.53-.382-.137-.638a9.082 9.082 0 01-.204-1.895c0-.604.061-1.21.181-1.801l.125-.618-.503-.38-2.153-1.624 2.042-3.424 2.453 1.114.575.261.483-.407a8.947 8.947 0 012.813-1.603l.587-.207.074-.618L18 8h3.997m-1.995 17c2.757 0 5-2.243 5-5s-2.243-5-5-5-5 2.243-5 5 2.243 5 5 5M22.89 7h-5.778l-.425 3.575a9.984 9.984 0 00-3.126 1.782l-3.267-1.484-2.96 4.962L10.203 18a10.057 10.057 0 00-.201 2c0 .722.081 1.425.226 2.104l-2.895 2.089 2.96 4.962 3.305-1.478a9.97 9.97 0 003.069 1.741L17.112 33h5.778l.402-3.565a9.973 9.973 0 003.175-1.813l3.195 1.534 2.96-4.962-2.824-2.175a10.082 10.082 0 00.001-4.034l2.823-2.149-2.96-4.962-3.237 1.467a9.98 9.98 0 00-3.131-1.774L22.89 7zm-2.888 17a4 4 0 110-8 4 4 0 010 8z" fill="#4e7ab5"></path></g></svg>