<svg viewBox="0 0 40 40" xmlns="http://www.w3.org/2000/svg"><path fill="#66798f" d="M12 30h16v1H12z"></path><path d="M31.5 34.5c-2.206 0-4-1.794-4-4s1.794-4 4-4 4 1.794 4 4-1.794 4-4 4z" fill="#c8d1db"></path><path d="M31.5 27c1.93 0 3.5 1.57 3.5 3.5S33.43 34 31.5 34 28 32.43 28 30.5s1.57-3.5 3.5-3.5m0-1a4.5 4.5 0 100 9 4.5 4.5 0 000-9z" fill="#66798f"></path><circle cx="31.5" cy="30.5" r="1.5" fill="#66798f"></circle><circle cx="20.5" cy="30.5" r="1.5" fill="#66798f"></circle><path d="M9.5 34.5c-2.206 0-4-1.794-4-4s1.794-4 4-4 4 1.794 4 4-1.794 4-4 4z" fill="#c8d1db"></path><path d="M9.5 27c1.93 0 3.5 1.57 3.5 3.5S11.43 34 9.5 34 6 32.43 6 30.5 7.57 27 9.5 27m0-1a4.5 4.5 0 100 9 4.5 4.5 0 000-9z" fill="#66798f"></path><circle cx="9.5" cy="30.5" r="1.5" fill="#66798f"></circle><path d="M36.389 23.5c.075-.338.111-.669.111-1 0-2.757-2.243-5-5-5s-5 2.243-5 5c0 .331.037.662.111 1H14.389c.075-.338.111-.669.111-1 0-2.757-2.243-5-5-5s-5 2.243-5 5c0 .331.037.662.111 1H4C2.07 23.5.5 21.93.5 20v-5.246c0-.999.677-1.864 1.646-2.103L6.072 11.5h23.854l7.99 2.428a2.178 2.178 0 011.584 2.087v5.318a2.17 2.17 0 01-2.167 2.167h-.944z" fill="#f78f8f"></path><path d="M29.851 12l7.937 2.412A1.673 1.673 0 0139 16.015v5.318A1.67 1.67 0 0137.333 23h-.358c.017-.167.025-.333.025-.5 0-3.033-2.467-5.5-5.5-5.5S26 19.467 26 22.5c0 .167.008.333.025.5h-11.05c.017-.167.025-.333.025-.5 0-3.033-2.467-5.5-5.5-5.5A5.506 5.506 0 004 22.5c0 .167.008.333.025.5H4c-1.654 0-3-1.346-3-3v-5.245c0-.768.521-1.434 1.309-1.629L6.144 12h23.707M30 11H6l-3.973 1.166A2.666 2.666 0 000 14.755V20a4 4 0 004 4h1.276A4.445 4.445 0 015 22.5a4.5 4.5 0 019 0c0 .529-.108 1.029-.276 1.5h13.551A4.469 4.469 0 0127 22.5a4.5 4.5 0 019 0c0 .529-.108 1.029-.276 1.5h1.609A2.667 2.667 0 0040 21.333v-5.318c0-1.192-.791-2.24-1.938-2.565L30 11z" fill="#c74343"></path><g><path d="M21.992 6a4.37 4.37 0 013.087 1.292L28.843 11H6.851l1.967-2.804.023-.032.02-.034A4.351 4.351 0 0112.592 6h9.4m0-1h-9.4A5.334 5.334 0 008 7.621l-2.604 3.712L3 12h30l-2.394-.667-4.825-4.753A5.335 5.335 0 0021.992 5z" fill="#c74343"></path></g><path fill="none" stroke="#c74343" stroke-miterlimit="10" d="M16.5 12V5.333"></path></svg>