<svg viewBox="0 0 40 40" xmlns="http://www.w3.org/2000/svg"><path d="M26.636 16.786l3.894-3.894-.25-.345A12.739 12.739 0 0020 7.286c-5.25 0-9.969 3.257-11.853 8.143H2.08C4.146 7.321 11.582 1.5 20 1.5c5.564 0 10.783 2.487 14.319 6.823l.35.429L38.5 4.921v11.864H26.636z" fill="#8bb7f0"></path><path d="M20 2c5.414 0 10.492 2.42 13.932 6.639l.699.858.783-.783L38 6.128v10.157H27.843l2.738-2.738.603-.603-.5-.691A13.24 13.24 0 0020 6.786c-5.341 0-10.153 3.244-12.191 8.143H2.736C4.959 7.367 12.027 2 20 2m0-1C10.906 1 3.314 7.394 1.448 15.929h7.047C10.174 11.188 14.684 7.786 20 7.786c4.067 0 7.658 1.995 9.874 5.054l-4.446 4.446H39V3.714l-4.293 4.293C31.226 3.738 25.94 1 20 1z" fill="#4e7ab5"></path><g><path d="M20 38.5c-5.564 0-10.783-2.487-14.319-6.823l-.35-.429L1.5 35.079V23.214h11.864L9.47 27.108l.25.345a12.74 12.74 0 0010.279 5.261c5.25 0 9.969-3.257 11.853-8.143h6.067C35.854 32.679 28.418 38.5 20 38.5z" fill="#8bb7f0"></path><path d="M12.157 23.714l-2.738 2.738-.603.603.5.691A13.239 13.239 0 0020 33.214c5.341 0 10.153-3.244 12.191-8.143h5.073C35.041 32.633 27.973 38 20 38c-5.414 0-10.492-2.42-13.932-6.639l-.699-.858-.783.783L2 33.872V23.714h10.157m2.414-1H1v13.571l4.293-4.293C8.774 36.262 14.06 39 20 39c9.094 0 16.686-6.394 18.552-14.929h-7.047c-1.679 4.741-6.188 8.143-11.504 8.143-4.067 0-7.658-1.995-9.874-5.054l4.444-4.446z" fill="#4e7ab5"></path></g></svg>