<svg viewBox="0 0 40 40" xmlns="http://www.w3.org/2000/svg"><path d="M20.5 38.5c-3.171 0-6.239-.929-8.872-2.688l-.477-.318L9.688 38.5H5.8l2.662-5.465-.209-.249A16.008 16.008 0 014.5 22.5c0-8.822 7.178-16 16-16 .1 0 .197.007.295.014l.576.025L24.313.5H28.5v8.16l.242.146C33.6 11.736 36.5 16.855 36.5 22.5c0 8.822-7.178 16-16 16zm-8.452-4.845l.345.246a13.9 13.9 0 008.107 2.6c7.72 0 14-6.28 14-14a13.95 13.95 0 00-5.185-10.871l-.815-.662v13.711l-4-3.2V8.095L16.021 25.5H24.5v-1.459L28.2 27l-3.7 2.959V28.5h-9.94l-2.512 5.155zM19.56 8.547C12.237 9.035 6.5 15.164 6.5 22.5c0 2.823.839 5.546 2.426 7.875l.485.712L20.42 8.49l-.86.057z" fill="#f78f8f"></path><path d="M28 1v7.942l.483.292C33.19 12.073 36 17.032 36 22.5 36 31.047 29.047 38 20.5 38c-3.072 0-6.044-.9-8.594-2.604l-.953-.636-.502 1.03L9.375 38H6.6l2.17-4.454.285-.584-.418-.497A15.502 15.502 0 015 22.5C5 13.953 11.953 7 20.5 7c.088 0 .174.007.26.013.089.006.179.012.269.015l.648.022.284-.583L24.625 1H28M15.221 26H25v-.919L27.399 27 25 28.919V28H14.247l-.274.562-2.189 4.493-.371.761.69.491A14.391 14.391 0 0020.5 37C28.495 37 35 30.495 35 22.5c0-4.385-1.957-8.488-5.37-11.259L28 9.918v13.721l-3-2.4V5.927l-1.899 3.898-7.18 14.737-.7 1.438m-5.737 6.08l.755-1.549L20.492 9.484l.755-1.55-1.721.115C11.942 8.553 6 14.902 6 22.5c0 2.924.869 5.744 2.513 8.156l.971 1.424M29 0h-5l-2.937 6.028C20.875 6.022 20.69 6 20.5 6 11.387 6 4 13.387 4 22.5c0 4.042 1.458 7.739 3.87 10.608L5 39h5l1.35-2.772A16.419 16.419 0 0020.5 39C29.613 39 37 31.613 37 22.5c0-5.999-3.212-11.235-8-14.123V0zM9.339 30.093A13.434 13.434 0 017 22.5c0-7.15 5.562-12.986 12.593-13.454L9.339 30.093zM16.82 25L24 10.263v11.456l5 4V12.018c3.049 2.475 5 6.249 5 10.482C34 29.956 27.956 36 20.5 36c-2.917 0-5.61-.934-7.817-2.507L14.872 29H24v2l5-4-5-4v2h-7.18z" fill="#c74343"></path><g><path fill="#f78f8f" d="M25.776 31.5l2.724-2.179V31.5z"></path><path d="M28 30.361V31h-.798l.798-.639m1-2.08l-4.375 3.5-.274.219H29v-3.719z" fill="#c74343"></path></g></svg>