<svg viewBox="0 0 40 40" xmlns="http://www.w3.org/2000/svg"><path fill="#8bb7f0" d="M22.5 23.731L33.265 20 22.5 16.268v-5.219l17 5.895v6.112l-17 5.895z"></path><path d="M23 11.752L39 17.3v5.4l-16 5.548v-4.161l9.066-3.143L34.792 20l-2.726-.945L23 15.913v-4.161m-1-1.405v6.278L31.739 20 22 23.376v6.278l18-6.242v-6.823l-18-6.242z" fill="#4e7ab5"></path><g><path fill="#8bb7f0" d="M.5 23.056v-6.112l17-5.895v5.219L6.735 20 17.5 23.731v5.22z"></path><path d="M17 11.752v4.161l-9.066 3.143L5.208 20l2.726.945L17 24.087v4.161L1 22.7v-5.4l16-5.548m1-1.405L0 16.588v6.823l18 6.242v-6.278L8.261 20 18 16.624v-6.277z" fill="#4e7ab5"></path></g></svg>