<svg viewBox="0 0 40 40" xmlns="http://www.w3.org/2000/svg"><path d="M7.5 38.5V38c.035-.279 3.896-33.5 13-33.5s12.965 33.221 13.003 33.556l-.001.444H7.5z" fill="#bae0bd"></path><path d="M20.5 5c7.158 0 11.43 23.71 12.494 33H8.006C9.069 28.71 13.339 5 20.5 5m0-1C10.842 4 7 38 7 38v1h27v-1S30.158 4 20.5 4z" fill="#5e9c76"></path><path fill="#66798f" d="M1 1h1v38H1z"></path><path fill="#66798f" d="M39 38v1H1v-1z"></path><circle cx="37" cy="20" r="1" fill="#66798f"></circle><circle cx="34" cy="20" r="1" fill="#66798f"></circle><circle cx="31" cy="20" r="1" fill="#66798f"></circle><circle cx="28" cy="20" r="1" fill="#66798f"></circle><circle cx="25" cy="20" r="1" fill="#66798f"></circle><circle cx="22" cy="20" r="1" fill="#66798f"></circle><circle cx="19" cy="20" r="1" fill="#66798f"></circle><circle cx="16" cy="20" r="1" fill="#66798f"></circle><circle cx="13" cy="20" r="1" fill="#66798f"></circle><circle cx="10" cy="20" r="1" fill="#66798f"></circle><circle cx="7" cy="20" r="1" fill="#66798f"></circle><circle cx="4" cy="20" r="1" fill="#66798f"></circle></svg>