<svg viewBox="0 0 40 40" xmlns="http://www.w3.org/2000/svg"><path d="M24.5.5s-2.152 1.819-1.593 5.049" fill="none" stroke="#7a4f34" stroke-linecap="round" stroke-miterlimit="10"></path><path d="M20 38.5c-7.696 0-13.5-5.159-13.5-12 0-13.914 9.695-25 13.5-25 1.453 0 1.864.417 2.34.9.508.516 1.084 1.1 2.66 1.1 3.278 0 4.5 4.586 4.5 7.478 0 3.486 1.028 5.673 2.022 7.787 1.017 2.164 1.978 4.208 1.978 7.649 0 6.89-5.804 12.086-13.5 12.086z" fill="#cee0a1"></path><path d="M20 2c1.243 0 1.538.299 1.984.751C22.504 3.278 23.215 4 25 4c2.914 0 4 4.28 4 6.977 0 3.598 1.052 5.836 2.069 8C32.062 21.089 33 23.084 33 26.414 33 33.019 27.411 38 20 38S7 33.056 7 26.5C7 13.128 16.439 2 20 2m0-1C15.58 1 6 12.833 6 26.5 6 33.466 11.911 39 20 39s14-5.62 14-12.586c0-7.045-4-8.628-4-15.436C30 7.494 28.513 3 25 3c-2.825 0-1.781-2-5-2z" fill="#5e9c76"></path><path d="M20 35c-6.207 0-9-3.957-9-8.821 0-13.345 10.02-20.751 10.956-15.457C23.013 16.705 29 17.144 29 26.179 29 31.043 26.207 35 20 35z" fill="#fff7d1"></path><g><path d="M20 31.5c-2.053 0-4.5-.78-4.5-4.496 0-3.427 3.434-7.504 4.5-7.504s4.5 4.077 4.5 7.504c0 3.716-2.447 4.496-4.5 4.496z" fill="#a6714e"></path><path d="M20 20.002c.9.181 4 3.801 4 7.001C24 29.693 22.692 31 20 31s-4-1.307-4-3.996c0-3.201 3.1-6.821 4-7.002M20 19c-1.5 0-5 4.429-5 8.004S17.125 32 20 32s5-1.421 5-4.996S21.5 19 20 19z" fill="#7a4f34"></path></g></svg>