<svg viewBox="0 0 40 40" xmlns="http://www.w3.org/2000/svg"><path d="M31.617 38.5c-1.9 0-5.117-1.072-5.117-5.09 0-.869.094-1.616.185-2.338.158-1.259.307-2.449-.135-3.864-.385-1.232-1.189-2.019-1.967-2.78-1.071-1.048-2.083-2.037-2.083-4.226 0-2.989 2.733-4.703 7.5-4.703s7.5 3.045 7.5 8.354c0 9.309-2.145 14.647-5.883 14.647z" fill="#f5ce85"></path><path d="M30 16c4.514 0 7 2.789 7 7.855C37 32.712 34.988 38 31.617 38 29.902 38 27 37.033 27 33.41c0-.837.092-1.568.181-2.275.165-1.315.321-2.556-.154-4.076-.423-1.352-1.311-2.221-2.094-2.988C23.895 23.057 23 22.181 23 20.202 23 17.532 25.551 16 30 16m0-1c-6.003 0-8 2.596-8 5.202 0 4.043 3.218 4.42 4.072 7.154.649 2.076-.072 3.607-.072 6.054 0 4.202 3.328 5.59 5.617 5.59C35.817 39 38 33.197 38 23.855 38 17.931 34.72 15 30 15z" fill="#967a44"></path><path d="M22.786 14.5c-.866 0-1.729-.733-2.1-1.783-.469-1.325-.028-2.724.982-3.118.167-.065.356-.1.546-.1.865 0 1.728.733 2.1 1.783.468 1.325.028 2.723-.983 3.117a1.491 1.491 0 01-.545.101z" fill="#f5ce85"></path><path d="M22.214 10c.646 0 1.331.61 1.629 1.449.373 1.055.056 2.193-.693 2.485a1.01 1.01 0 01-.364.066c-.647 0-1.332-.609-1.629-1.449-.373-1.055-.056-2.193.693-2.485a1.01 1.01 0 01.364-.066m0-1c-.243 0-.492.042-.727.134-1.258.49-1.832 2.168-1.273 3.75C20.669 14.17 21.729 15 22.786 15c.243 0 .492-.042.727-.134 1.258-.49 1.832-2.168 1.273-3.75C24.33 9.83 23.27 9 22.214 9z" fill="#967a44"></path><path d="M27.776 13.265c-.645-.001-1.189-.681-1.266-1.516-.049-.532.087-1.048.364-1.382.117-.141.315-.314.595-.34l.041-.004.101-.023c.523.002 1.056.694 1.135 1.544.042.459-.048.896-.256 1.231-.104.167-.333.453-.697.49h-.017z" fill="#f5ce85"></path><path d="M27.62 10.51c.239.061.572.469.628 1.08.044.473-.101.835-.251 1.015a.411.411 0 01-.231.158l-.027-.001h-.016c-.258 0-.654-.404-.715-1.061-.044-.473.101-.835.251-1.015.083-.099.169-.154.253-.162a.64.64 0 00.108-.014m-.06-1.008c-.038 0-.097.024-.136.027-.896.082-1.521 1.095-1.412 2.265.103 1.12.862 1.969 1.711 1.969l.072.002c.012 0 .024 0 .037-.002.895-.082 1.521-1.094 1.412-2.265-.104-1.121-.836-1.996-1.684-1.996z" fill="#967a44"></path><path d="M31.718 13.536a.548.548 0 01-.331-.232c-.2-.272-.279-.697-.21-1.136.113-.721.551-1.168.891-1.168-.012.007.025.016.062.021.13.02.247.099.347.235.2.272.278.696.21 1.135-.109.705-.547 1.141-.891 1.141l-.078.004z" fill="#f5ce85"></path><path d="M32.045 11.517c.077.066.216.365.149.798-.069.444-.298.682-.387.715-.079-.087-.2-.376-.136-.785.064-.41.266-.658.374-.728m.023-1.017c-.645 0-1.244.686-1.385 1.591-.151.97.283 1.837.978 1.942a.34.34 0 00.045.003l.09-.003c.645 0 1.244-.659 1.385-1.564.151-.97-.283-1.837-.978-1.942-.045-.007-.089-.027-.135-.027z" fill="#967a44"></path><path d="M35.028 14.666a.443.443 0 01-.231-.063.508.508 0 01-.219-.323c-.059-.246.004-.552.169-.82.244-.395.603-.572.851-.572.085 0 .161.021.232.063a.472.472 0 01.2.304c.062.259-.004.583-.179.866-.206.336-.522.545-.823.545z" fill="#f5ce85"></path><path d="M35.55 13.397a.73.73 0 01-.123.461c-.117.188-.262.286-.363.305-.017-.071-.015-.239.108-.439a.757.757 0 01.378-.327m.049-1.009c-.458 0-.964.305-1.276.809-.429.696-.325 1.507.217 1.834.149.09.315.135.489.135.458 0 .937-.278 1.249-.782.429-.696.352-1.534-.19-1.861a.938.938 0 00-.489-.135z" fill="#967a44"></path><path d="M37.608 16.5a.338.338 0 01-.173-.034.384.384 0 01-.157-.245c-.052-.221.006-.496.157-.735.177-.284.459-.467.717-.467.077 0 .136.012.175.035.094.058.136.165.155.245.052.221-.006.496-.156.735-.179.283-.46.466-.718.466z" fill="#f5ce85"></path><path d="M37.975 15.611a.68.68 0 01-.191.296.69.69 0 01.191-.296m.177-1.092c-.408 0-.856.246-1.141.701-.392.626-.315 1.38.163 1.672.13.08.281.108.435.108.408 0 .856-.246 1.141-.701.392-.626.315-1.38-.163-1.672a.823.823 0 00-.435-.108z" fill="#967a44"></path><g><path d="M8.383 30.5C4.645 30.5 2.5 25.162 2.5 15.854 2.5 10.545 5.233 7.5 10 7.5s7.5 1.714 7.5 4.703c0 2.188-1.012 3.178-2.083 4.226-.778.761-1.582 1.547-1.967 2.78-.442 1.416-.293 2.605-.135 3.864.091.722.185 1.469.185 2.338 0 4.017-3.216 5.089-5.117 5.089z" fill="#f5ce85"></path><path d="M10 8c4.449 0 7 1.532 7 4.202 0 1.978-.895 2.854-1.932 3.868-.784.767-1.672 1.636-2.094 2.988-.475 1.52-.319 2.762-.154 4.076.088.708.18 1.439.18 2.276C13 29.033 10.098 30 8.383 30 5.012 30 3 24.712 3 15.855 3 10.789 5.486 8 10 8m0-1c-4.72 0-8 2.931-8 8.855C2 25.197 4.183 31 8.383 31 10.672 31 14 29.612 14 25.41c0-2.447-.721-3.978-.072-6.053.854-2.734 4.072-3.112 4.072-7.155C18 9.596 16.003 7 10 7z" fill="#967a44"></path></g><g><path d="M17.214 6.5c-.19 0-.379-.035-.546-.1-1.011-.394-1.451-1.792-.983-3.118.372-1.049 1.235-1.783 2.1-1.783.19 0 .379.035.546.1 1.011.394 1.451 1.792.983 3.118-.371 1.05-1.234 1.783-2.1 1.783z" fill="#f5ce85"></path><path d="M17.786 2c.128 0 .254.023.364.066.749.292 1.066 1.43.693 2.485-.297.84-.982 1.449-1.629 1.449a1.01 1.01 0 01-.364-.066c-.749-.292-1.066-1.43-.693-2.485C16.454 2.61 17.139 2 17.786 2m0-1c-1.056 0-2.116.83-2.571 2.116-.559 1.582.015 3.26 1.273 3.75.234.092.484.134.726.134 1.056 0 2.117-.83 2.571-2.116.559-1.582-.015-3.26-1.273-3.75A1.993 1.993 0 0017.786 1z" fill="#967a44"></path></g><g><path d="M12.207 5.265c-.363-.035-.592-.322-.697-.49-.208-.334-.299-.772-.256-1.231.079-.85.611-1.542 1.186-1.542 0 .011.051.021.092.025.278.025.476.199.593.34.277.333.414.85.364 1.382-.077.835-.621 1.515-1.213 1.515l-.069.001z" fill="#f5ce85"></path><path d="M12.38 2.51c.038.007.074.012.105.015.088.008.174.062.257.162.15.181.295.542.251 1.016-.061.657-.457 1.061-.715 1.061l-.041.001a.413.413 0 01-.233-.159c-.15-.181-.295-.542-.251-1.015.056-.612.388-1.019.627-1.081m.06-1.008c-.848 0-1.579.875-1.684 1.996-.109 1.171.517 2.183 1.412 2.265l.037.002.072-.002c.849 0 1.607-.849 1.711-1.969.109-1.17-.516-2.183-1.412-2.265-.04-.003-.098-.027-.136-.027z" fill="#967a44"></path></g><g><path d="M8.274 5.535c-.414-.002-.852-.438-.962-1.142-.068-.439.01-.863.21-1.135.1-.137.217-.216.348-.235l.11-.024c.292.001.73.448.843 1.169.068.438-.01.863-.21 1.135a.547.547 0 01-.33.232h-.009z" fill="#f5ce85"></path><path d="M7.952 3.515c.106.066.312.315.377.73.066.422-.065.716-.125.787-.092-.027-.328-.265-.398-.717-.071-.454.086-.76.138-.799l.008-.001M7.932 2.5c-.046 0-.09.02-.136.027-.694.105-1.129.972-.978 1.942.141.905.74 1.564 1.385 1.564.031 0 .06.003.09.003a.34.34 0 00.045-.003c.694-.104 1.129-.972.978-1.942-.14-.905-.74-1.591-1.384-1.591z" fill="#967a44"></path></g><g><path d="M4.972 6.666c-.3 0-.616-.209-.824-.545-.175-.283-.242-.606-.179-.866a.475.475 0 01.201-.304.438.438 0 01.231-.063c.248 0 .606.177.851.572.165.268.228.574.169.82a.508.508 0 01-.219.323.428.428 0 01-.23.063z" fill="#f5ce85"></path><path d="M4.43 5.392c.09.019.266.12.397.331.124.201.126.368.109.44-.102-.02-.247-.117-.363-.304-.139-.225-.137-.419-.143-.467m-.029-1.004a.938.938 0 00-.489.135c-.542.327-.619 1.165-.19 1.861.312.504.791.782 1.249.782a.938.938 0 00.489-.135c.542-.327.647-1.138.217-1.834-.311-.504-.818-.809-1.276-.809z" fill="#967a44"></path></g><g><path d="M2.392 8.5c-.258 0-.539-.183-.717-.467-.15-.239-.209-.514-.156-.735.019-.08.061-.187.156-.245a.34.34 0 01.173-.034c.258 0 .54.183.717.467.15.239.209.514.157.735-.019.08-.061.186-.156.244a.333.333 0 01-.174.035z" fill="#f5ce85"></path><path d="M2.025 7.611a.656.656 0 01.19.297.656.656 0 01-.19-.297m-.177-1.092a.82.82 0 00-.435.108c-.477.291-.554 1.046-.162 1.672.285.455.732.701 1.141.701a.82.82 0 00.435-.108c.477-.292.554-1.046.162-1.672-.285-.455-.732-.701-1.141-.701z" fill="#967a44"></path></g></svg>