<svg viewBox="0 0 40 40" xmlns="http://www.w3.org/2000/svg"><path d="M23.831 38.5a2.315 2.315 0 01-1.648-.683 2.335 2.335 0 010-3.297l3.298-3.297-5.007-1.458c-.279-.608.596-3.133 1.978-5.694 1.134.156 3.36.59 4.074 1.304l4.304 3.806h-.004c-.012 0 .013.033.041.065a2.322 2.322 0 01-.049 3.233l-5.338 5.338a2.32 2.32 0 01-1.649.683z" fill="#f5ce85"></path><path d="M22.728 24.617c1.297.206 2.958.626 3.444 1.112l.022.022.023.02 4.202 3.715c.023.031.051.066.087.107a1.82 1.82 0 01-.043 2.532l-5.338 5.338c-.345.347-.805.537-1.294.537s-.949-.19-1.295-.536a1.832 1.832 0 010-2.589l2.7-2.7 1.195-1.195-1.622-.472-3.878-1.129c.014-.794.769-2.797 1.797-4.762m-.552-1.084s-3.093 5.575-2.002 6.666l4.355 1.268-2.7 2.7a2.83 2.83 0 104.004 4.004l5.338-5.338a2.825 2.825 0 00.07-3.918c-.03-.035-.046-.074-.08-.107l-4.281-3.785c-1.092-1.092-4.704-1.49-4.704-1.49z" fill="#967a44"></path><path d="M16.169 38.5a2.315 2.315 0 01-1.648-.683l-5.338-5.338a2.32 2.32 0 01-.056-3.226l.029-.031.058-.084 4.238-3.741c.734-.734 2.963-1.169 4.097-1.326 1.382 2.562 2.257 5.086 1.978 5.694l-5.007 1.458 3.298 3.297a2.335 2.335 0 010 3.297 2.32 2.32 0 01-1.649.683z" fill="#f5ce85"></path><path d="M17.272 24.617c1.012 1.939 1.776 3.969 1.796 4.761l-3.877 1.129-1.622.472 1.195 1.195 2.7 2.7a1.832 1.832 0 01-2.59 2.59l-5.338-5.338c-.695-.695-.713-1.807-.02-2.557.023-.027.045-.054.066-.083l4.201-3.714.023-.02.022-.022c.485-.486 2.146-.906 3.444-1.113m.552-1.084s-3.612.398-4.704 1.489l-4.281 3.785c-.033.033-.05.073-.08.107a2.824 2.824 0 00.07 3.918l5.338 5.338a2.82 2.82 0 002.002.83 2.83 2.83 0 002.002-4.833l-2.7-2.7 4.355-1.268c1.091-1.091-2.002-6.666-2.002-6.666z" fill="#967a44"></path><path d="M14.5 25.5v-8.938l-6.046 5.489a1.773 1.773 0 01-2.363-2.647l5.649-5.167a6.481 6.481 0 014.423-1.737h7.674c1.645 0 3.215.616 4.421 1.734l5.646 5.166a1.775 1.775 0 01-1.178 3.099c-.437 0-.856-.161-1.183-.452L25.5 16.562V25.5h-11z" fill="#f5ce85"></path><path d="M23.837 13c1.518 0 2.967.569 4.085 1.606l5.653 5.171a1.275 1.275 0 01-.85 2.223c-.313 0-.615-.115-.843-.32l-5.21-4.73L25 15.432V25H15v-9.568l-1.672 1.518-5.204 4.725a1.272 1.272 0 01-1.799-.099 1.278 1.278 0 01.108-1.806l5.65-5.168A5.98 5.98 0 0116.163 13H23.837m0-1H16.163a6.996 6.996 0 00-4.76 1.868l-5.645 5.164a2.273 2.273 0 103.032 3.389l5.21-4.73V26h12v-8.309l5.21 4.73c.434.388.975.579 1.515.579a2.274 2.274 0 001.517-3.969l-5.645-5.164A7.002 7.002 0 0023.837 12z" fill="#967a44"></path><g><circle cx="20" cy="6" r="4.5" fill="#f5ce85"></circle><path d="M20 2c2.206 0 4 1.794 4 4s-1.794 4-4 4-4-1.794-4-4 1.794-4 4-4m0-1a5 5 0 10.001 10.001A5 5 0 0020 1z" fill="#967a44"></path></g><g><path fill="#dbf2ff" d="M17.207 30.5l-4.563-4.563 1.856-2.786V21.5h11v1.651l1.856 2.786-4.563 4.563z"></path><path d="M25 22v1.303l.168.252 1.545 2.318L22.586 30h-5.172l-4.127-4.127 1.545-2.318.168-.252V22h10m1-1H14v2l-2 3 5 5h6l5-5-2-3v-2z" fill="#7496c4"></path></g></svg>