<svg viewBox="0 0 40 40" xmlns="http://www.w3.org/2000/svg"><path d="M15.066 38.5a2.584 2.584 0 01-1.839-.762L2.262 26.773a2.605 2.605 0 010-3.679L18.709 6.648a5.665 5.665 0 014.032-1.67c1.523 0 2.955.593 4.032 1.67l6.579 6.579a5.665 5.665 0 011.67 4.032 5.665 5.665 0 01-1.67 4.032L16.905 37.738a2.584 2.584 0 01-1.839.762z" fill="#c2e8ff"></path><path d="M22.741 5.478c1.39 0 2.696.541 3.679 1.524l6.579 6.579a5.209 5.209 0 010 7.357L16.552 37.385c-.397.396-.925.615-1.486.615s-1.089-.219-1.486-.615L2.615 26.42a2.105 2.105 0 010-2.972L19.062 7.001a5.173 5.173 0 013.679-1.523m0-1a6.185 6.185 0 00-4.386 1.817L1.908 22.741a3.102 3.102 0 000 4.386l10.965 10.965a3.094 3.094 0 002.193.908c.794 0 1.587-.303 2.193-.908l16.447-16.447a6.203 6.203 0 000-8.772l-6.579-6.579a6.182 6.182 0 00-4.386-1.816z" fill="#7496c4"></path><path d="M24.545 5.198l2.113-2.113c.418-.418.975-.648 1.566-.648s1.147.23 1.565.648l1.724 1.724 2.547-2.546c.491-.492 1.144-.763 1.839-.763s1.348.271 1.839.762a2.605 2.605 0 010 3.679l-2.546 2.547 1.724 1.724a2.217 2.217 0 010 3.131l-2.113 2.113L24.545 5.198z" fill="#ffc49c"></path><path d="M35.899 2c.561 0 1.089.219 1.486.615a2.105 2.105 0 010 2.972L35.192 7.78l-.707.707.707.707 1.37 1.37a1.717 1.717 0 010 2.424l-1.76 1.759-9.55-9.55 1.759-1.759c.324-.324.754-.502 1.212-.502s.888.178 1.212.502l1.37 1.37.707.707.707-.707 2.193-2.193A2.094 2.094 0 0135.899 2m0-1c-.794 0-1.587.303-2.193.908l-2.193 2.193-1.37-1.37c-.53-.53-1.225-.795-1.919-.795s-1.389.265-1.919.795l-2.467 2.467 10.965 10.965 2.467-2.467a2.715 2.715 0 000-3.839l-1.37-1.37 2.193-2.193A3.102 3.102 0 0035.899 1z" fill="#a16a4a"></path><path fill="none" stroke="#7496c4" stroke-miterlimit="10" d="M24.5 19.5l5 5"></path><path fill-rule="evenodd" clip-rule="evenodd" fill="#c2e8ff" d="M24.5 19.5l5 5"></path><path fill="none" stroke="#7496c4" stroke-miterlimit="10" d="M21.5 22.5l5 5"></path><path fill-rule="evenodd" clip-rule="evenodd" fill="#c2e8ff" d="M21.5 22.5l5 5"></path><g><path fill="none" stroke="#7496c4" stroke-miterlimit="10" d="M18.5 25.5l5 5"></path><path fill-rule="evenodd" clip-rule="evenodd" fill="#c2e8ff" d="M18.5 25.5l5 5"></path></g><g><path fill="none" stroke="#7496c4" stroke-miterlimit="10" d="M15.5 28.5l5 5"></path><path fill-rule="evenodd" clip-rule="evenodd" fill="#c2e8ff" d="M15.5 28.5l5 5"></path></g><g><path fill="none" stroke="#fff" stroke-linecap="round" stroke-miterlimit="10" d="M7.5 24.5l15-15"></path></g></svg>