<svg viewBox="0 0 40 40" xmlns="http://www.w3.org/2000/svg"><path d="M13.158 38.5C12.03 37.692 9.5 35.557 9.5 34c0-.34.146-.883.313-1.511.496-1.851 1.245-4.647-.011-7.926-.145-.379-.297-.703-.445-1.019-.419-.894-.783-1.667-.857-3.564l-.02-.48h-.89l-.166.401a5.067 5.067 0 00-.043.6c-.034.845-.102 2.522-.651 3.882L1.501 22.64c.031-4.033.584-5.638.886-6.511l.088-.261c.186-.567.154-1.2.101-2.249A48.42 48.42 0 012.5 11c0-4.374 3.107-6.5 9.5-6.5h.232l.15-.177C13.374 3.151 15.13 1.5 15.929 1.5h8.143c.798 0 2.555 1.651 3.547 2.823l.15.177H28c6.393 0 9.5 2.126 9.5 6.5a47.24 47.24 0 01-.077 2.619c-.053 1.049-.085 1.682.102 2.251l.087.259c.302.874.855 2.478.886 6.511l-5.229 1.743c-.549-1.359-.617-3.037-.651-3.882a5.303 5.303 0 00-.043-.6l-.08-.401h-.89l-.105.48c-.075 1.896-.438 2.669-.858 3.564-.148.316-.3.64-.445 1.019-1.255 3.278-.506 6.075-.011 7.926.168.628.314 1.171.314 1.511 0 1.557-2.53 3.692-3.658 4.5H13.158z" fill="#ffeea3"></path><path d="M24.071 2c.492.01 2.001 1.271 3.166 2.646l.3.354H28c6.056 0 9 1.963 9 6 0 1.094-.042 1.925-.076 2.593-.054 1.069-.09 1.776.124 2.428.026.082.057.171.092.271.283.82.795 2.305.854 5.989l-4.419 1.473c-.373-1.19-.428-2.549-.457-3.274-.013-.334-.021-.518-.053-.677L32.904 19H31.039l-.038.961c-.071 1.796-.398 2.491-.811 3.372-.15.32-.306.651-.459 1.052-1.313 3.43-.539 6.321-.027 8.234.152.569.296 1.107.296 1.381 0 1.112-1.864 2.937-3.319 4H13.319C11.863 36.939 10 35.117 10 34c0-.274.144-.812.297-1.382.512-1.913 1.287-4.804-.027-8.234-.153-.4-.309-.731-.459-1.052-.414-.881-.74-1.576-.811-3.372L8.961 19H7.096l-.161.803c-.032.159-.039.343-.053.677-.029.725-.084 2.084-.457 3.274l-4.419-1.473c.059-3.684.571-5.169.854-5.989l.09-.266c.216-.657.18-1.364.126-2.433A47.556 47.556 0 013 11c0-4.037 2.944-6 9-6h.464l.3-.354C13.928 3.271 15.437 2.01 15.929 2h8.142m0-1h-8.142C14.538 1 12 4 12 4 8.868 4 2 4.386 2 11c0 2.771.265 3.908 0 4.714-.261.809-1 2.45-1 7.286l6 2c.963-1.909.837-4.611.915-5H8c.105 2.664.775 3.277 1.336 4.742C10.984 29.047 9 32.516 9 34c0 2.238 4 5 4 5h14s4-2.762 4-5c0-1.484-1.984-4.953-.336-9.258.561-1.465 1.231-2.078 1.336-4.742h.085c.078.389-.048 3.091.915 5l6-2c0-4.836-.739-6.477-1-7.286-.265-.806 0-1.943 0-4.714 0-6.614-6.868-7-10-7 0 0-2.538-3-3.929-3z" fill="#ba9b48"></path><path d="M27 31.5c-1.237 0-5.5-8.23-5.5-14.5 0-1.57 2.508-7.125 5.113-9.928.755 5.903 3.405 11.072 4.891 12.208l.008.542-.012.158c-.075 1.896-.438 2.669-.858 3.564-.148.316-.3.64-.445 1.019a10.262 10.262 0 00-.676 4.126s-.014.15-.016.188C28.384 31.242 27.382 31.5 27 31.5z" fill="#f78f8f"></path><path d="M26.282 8.233c.871 5.129 3.105 9.792 4.724 11.274l.001.034.003.19-.009.23c-.071 1.796-.398 2.491-.811 3.372-.15.32-.306.651-.459 1.052a10.763 10.763 0 00-.711 4.271l-.005.069-.002.023c-.768 1.585-1.513 2.198-1.954 2.248C25.746 30.368 22 22.727 22 17c0-1.33 2.044-5.921 4.282-8.767M27 6c-2.94 2.535-6 9.09-6 11 0 5.994 4.155 15 6 15 .837 0 1.943-.725 3-3 .002-.106.015-.219.02-.328a9.815 9.815 0 01.644-3.93C31.225 23.277 31.895 22.664 32 20h.014c-.005-.389-.014-.777-.014-1-1.116-.445-4.404-6.219-5-13z" fill="#c74343"></path><g><path d="M13 31.5c-.382 0-1.384-.258-2.505-2.622l-.016-.233a10.179 10.179 0 00-.676-4.082 14.028 14.028 0 00-.445-1.018c-.42-.895-.784-1.668-.858-3.565l-.01-.244.006-.457c1.485-1.135 4.136-6.304 4.891-12.208C15.992 9.875 18.5 15.43 18.5 17c0 6.27-4.263 14.5-5.5 14.5z" fill="#f78f8f"></path><path d="M13.718 8.233C15.956 11.079 18 15.67 18 17c0 5.727-3.746 13.368-5.059 13.997-.441-.05-1.187-.663-1.954-2.248l-.002-.023-.005-.069a10.743 10.743 0 00-.711-4.271c-.153-.4-.309-.731-.459-1.052-.414-.881-.74-1.576-.811-3.372l-.01-.182.004-.238.001-.034c1.619-1.484 3.853-6.147 4.724-11.275M13 6c-.596 6.781-3.884 12.555-5 13 0 .223-.009.611-.014 1H8c.105 2.664.775 3.277 1.336 4.742a9.833 9.833 0 01.644 3.93c.005.109.018.222.02.328 1.057 2.275 2.163 3 3 3 1.845 0 6-9.006 6-15 0-1.91-3.06-8.465-6-11z" fill="#c74343"></path></g></svg>