<svg viewBox="0 0 40 40" xmlns="http://www.w3.org/2000/svg"><path d="M5 32.5c-1.93 0-3.5-1.57-3.5-3.5V11c0-1.93 1.57-3.5 3.5-3.5h30c1.93 0 3.5 1.57 3.5 3.5v18c0 1.93-1.57 3.5-3.5 3.5H5z" fill="#b0c1d4"></path><path d="M35 8c1.654 0 3 1.346 3 3v18c0 1.654-1.346 3-3 3H5c-1.654 0-3-1.346-3-3V11c0-1.654 1.346-3 3-3h30m0-1H5a4 4 0 00-4 4v18a4 4 0 004 4h30a4 4 0 004-4V11a4 4 0 00-4-4z" fill="#66798f"></path><path d="M35 30H5a3 3 0 01-3-3V11a3 3 0 013-3h30a3 3 0 013 3v16a3 3 0 01-3 3z" fill="#d8e2ed"></path><g><path fill="#36404d" d="M14.571 20.679h17.643v-2.715H14.571v-5.428l-6.785 6.785 6.785 6.786z"></path></g></svg>