<svg viewBox="0 0 40 40" xmlns="http://www.w3.org/2000/svg"><path d="M30 17.5c-.647 0-1.511-.243-2.347-.479-.91-.256-1.852-.521-2.653-.521s-1.743.265-2.653.521c-.836.236-1.7.479-2.347.479s-1.511-.243-2.347-.479c-.91-.256-1.852-.521-2.653-.521s-1.743.265-2.653.521c-.836.236-1.7.479-2.347.479s-1.511-.243-2.347-.479C6.743 16.765 5.801 16.5 5 16.5c-.802 0-1.745.264-2.656.519-.284.079-.567.159-.844.229V4.279c.363-.087.738-.192 1.114-.297C3.46 3.745 4.335 3.5 5 3.5c.663 0 1.537.246 2.382.484.901.254 1.833.516 2.618.516s1.717-.262 2.618-.516C13.463 3.746 14.337 3.5 15 3.5s1.537.246 2.382.484c.901.254 1.833.516 2.618.516s1.717-.262 2.618-.516C23.463 3.746 24.337 3.5 25 3.5s1.537.246 2.382.484c.901.254 1.833.516 2.618.516s1.717-.262 2.618-.516C33.463 3.746 34.337 3.5 35 3.5c.665 0 1.54.245 2.386.482.375.105.751.21 1.114.297v12.97c-.277-.071-.561-.15-.844-.229-.911-.256-1.854-.52-2.656-.52-.801 0-1.743.265-2.653.521-.836.236-1.7.479-2.347.479z" fill="#f78f8f"></path><path d="M35 4c.596 0 1.438.236 2.252.463.247.07.497.14.748.205v11.927l-.209-.058C36.847 16.273 35.871 16 35 16c-.87 0-1.845.275-2.788.54-.803.226-1.634.46-2.212.46s-1.409-.234-2.212-.46C26.845 16.275 25.87 16 25 16s-1.845.275-2.788.54c-.803.226-1.634.46-2.212.46s-1.409-.234-2.212-.46C16.845 16.275 15.87 16 15 16s-1.845.275-2.788.54c-.803.226-1.634.46-2.212.46s-1.409-.234-2.212-.46C6.845 16.275 5.87 16 5 16c-.871 0-1.847.273-2.791.537L2 16.595V4.668c.251-.066.501-.136.748-.205C3.562 4.236 4.404 4 5 4c.594 0 1.434.237 2.246.465C8.18 4.728 9.146 5 10 5s1.82-.272 2.754-.535C13.566 4.237 14.406 4 15 4s1.434.237 2.246.465C18.18 4.728 19.146 5 20 5s1.82-.272 2.754-.535C23.566 4.237 24.406 4 25 4s1.434.237 2.246.465C28.18 4.728 29.146 5 30 5s1.82-.272 2.754-.535C33.566 4.237 34.406 4 35 4m0-1c-1.458 0-3.562 1-5 1s-3.542-1-5-1-3.562 1-5 1-3.542-1-5-1-3.562 1-5 1-3.542-1-5-1c-1.148 0-2.692.614-4 .877v14C2.308 17.614 3.852 17 5 17c1.458 0 3.562 1 5 1s3.542-1 5-1 3.562 1 5 1 3.542-1 5-1 3.562 1 5 1 3.542-1 5-1c1.148 0 2.692.614 4 .877v-14C37.692 3.614 36.148 3 35 3z" fill="#c74343"></path><path d="M38.504 8.265C37.315 7.971 36.006 7.5 35 7.5c-1.458 0-3.562 1-5 1s-3.542-1-5-1-3.562 1-5 1-3.542-1-5-1-3.562 1-5 1-3.542-1-5-1c-1.003 0-2.308.468-3.494.762" fill="none" stroke="#c74343" stroke-miterlimit="10"></path><path d="M37.981 13.128c-.524 0-2.14-.628-3-.628-1.458 0-3.562 1-5 1s-3.542-1-5-1-3.562 1-5 1-3.542-1-5-1-3.562 1-5 1-3.542-1-5-1c-.855 0-2.239.623-2.962.623" fill="none" stroke="#ffd1d1" stroke-miterlimit="10"></path><path d="M30 36.5c-.647 0-1.511-.243-2.347-.479-.91-.256-1.852-.521-2.653-.521s-1.743.265-2.653.521c-.836.236-1.7.479-2.347.479s-1.511-.243-2.347-.479c-.91-.256-1.852-.521-2.653-.521s-1.743.265-2.653.521c-.836.236-1.7.479-2.347.479s-1.511-.243-2.347-.479C6.743 35.765 5.801 35.5 5 35.5c-.802 0-1.745.264-2.656.519-.284.079-.567.159-.844.229v-12.97c.363-.087.738-.192 1.114-.297C3.46 22.745 4.335 22.5 5 22.5c.663 0 1.537.246 2.382.484.901.254 1.833.516 2.618.516s1.717-.262 2.618-.516c.845-.238 1.719-.484 2.382-.484s1.537.246 2.382.484c.901.254 1.833.516 2.618.516s1.717-.262 2.618-.516c.845-.238 1.719-.484 2.382-.484s1.537.246 2.382.484c.901.254 1.833.516 2.618.516s1.717-.262 2.618-.516c.845-.238 1.719-.484 2.382-.484.665 0 1.54.245 2.386.482.375.105.751.21 1.114.297v12.97c-.277-.071-.561-.15-.844-.229-.911-.256-1.854-.52-2.656-.52-.801 0-1.743.265-2.653.521-.836.236-1.7.479-2.347.479z" fill="#f78f8f"></path><path d="M35 23c.596 0 1.438.236 2.252.463.247.069.498.139.748.205v11.927l-.209-.058C36.847 35.273 35.871 35 35 35c-.87 0-1.845.275-2.788.54-.803.226-1.634.46-2.212.46s-1.409-.234-2.212-.46C26.845 35.275 25.87 35 25 35s-1.845.275-2.788.54c-.803.226-1.634.46-2.212.46s-1.409-.234-2.212-.46C16.845 35.275 15.87 35 15 35s-1.845.275-2.788.54c-.803.226-1.634.46-2.212.46s-1.409-.234-2.212-.46C6.845 35.275 5.87 35 5 35c-.871 0-1.847.273-2.791.537L2 35.595V23.668c.251-.066.501-.136.748-.205C3.562 23.236 4.404 23 5 23c.594 0 1.434.237 2.246.465.934.263 1.9.535 2.754.535s1.82-.272 2.754-.535C13.566 23.237 14.406 23 15 23s1.434.237 2.246.465c.934.263 1.9.535 2.754.535s1.82-.272 2.754-.535C23.566 23.237 24.406 23 25 23s1.434.237 2.246.465c.934.263 1.9.535 2.754.535s1.82-.272 2.754-.535C33.566 23.237 34.406 23 35 23m0-1c-1.458 0-3.562 1-5 1s-3.542-1-5-1-3.562 1-5 1-3.542-1-5-1-3.562 1-5 1-3.542-1-5-1c-1.148 0-2.692.614-4 .877v14C2.308 36.614 3.852 36 5 36c1.458 0 3.562 1 5 1s3.542-1 5-1 3.562 1 5 1 3.542-1 5-1 3.562 1 5 1 3.542-1 5-1c1.148 0 2.692.614 4 .877v-14c-1.308-.263-2.852-.877-4-.877z" fill="#c74343"></path><path d="M38.504 27.265c-1.189-.294-2.498-.765-3.504-.765-1.458 0-3.562 1-5 1s-3.542-1-5-1-3.562 1-5 1-3.542-1-5-1-3.562 1-5 1-3.542-1-5-1c-1.003 0-2.308.468-3.494.762" fill="none" stroke="#c74343" stroke-miterlimit="10"></path><path d="M37.981 32.128c-.524 0-2.14-.628-3-.628-1.458 0-3.562 1-5 1s-3.542-1-5-1-3.562 1-5 1-3.542-1-5-1-3.562 1-5 1-3.542-1-5-1c-.855 0-2.239.623-2.962.623" fill="none" stroke="#ffd1d1" stroke-miterlimit="10"></path></svg>