<svg viewBox="0 0 40 40" xmlns="http://www.w3.org/2000/svg"><path d="M20 38.5c-5.519 0-10.385-6.875-12.761-13.688l-.107-.309-.325-.025C5.513 24.377 4.5 23.289 4.5 22c0-.845.425-1.626 1.137-2.091l.271-.177-.05-.32c-.19-1.2-.286-2.336-.286-3.376 0-7.976 6.489-14.464 14.465-14.464S34.5 8.06 34.5 16.036c0 1.058-.099 2.207-.293 3.417l-.05.312.26.179a2.485 2.485 0 01-1.166 4.528l-.316.032-.104.3C30.443 31.622 25.551 38.5 20 38.5z" fill="#ffeea3"></path><path d="M20.036 2.071C27.736 2.071 34 8.336 34 16.036c0 1.03-.096 2.153-.286 3.339l-.1.622.519.358a1.986 1.986 0 01-.932 3.62l-.633.064-.21.6C30.029 31.29 25.305 38 20 38c-5.273 0-9.971-6.706-12.288-13.353l-.215-.617-.652-.05A2.003 2.003 0 015 22c0-.675.34-1.3.911-1.673l.542-.354-.101-.639a21.255 21.255 0 01-.28-3.298c-.001-7.7 6.264-13.965 13.964-13.965m0-1c-8.265 0-14.964 6.7-14.964 14.964 0 1.086.102 2.249.292 3.454A2.997 2.997 0 004 22a2.991 2.991 0 002.767 2.977C9.266 32.142 14.266 39 20 39c5.744 0 10.787-6.847 13.302-14.03A2.99 2.99 0 0036 22a2.997 2.997 0 00-1.298-2.468c.194-1.217.298-2.395.298-3.496 0-8.265-6.7-14.965-14.964-14.965z" fill="#ba9b48"></path><path fill="none" stroke="#c74343" stroke-width="3" stroke-miterlimit="10" d="M12 20.5h16"></path></svg>