<svg viewBox="0 0 40 40" xmlns="http://www.w3.org/2000/svg"><path fill="#c5d4de" d="M29 1h1v20h-1zM26 2h1v19h-1zM23 4h1v17h-1zM20 7h1v12h-1zM32 2h1v18h-1zM35 5h1v12h-1z"></path><path fill="#c5d4de" d="M19 10h20v1H19zM21 7h17v1H21zM18 13h20v1H18zM19 16h17v1H19zM21 19h11v1H21zM23 4h12v1H23z"></path><path fill="none" stroke="#c74343" stroke-width="2" stroke-miterlimit="10" d="M9.126 30.855L21 19"></path><path d="M29.375 3c2.037 0 3.952.793 5.392 2.233 2.973 2.973 2.973 7.81 0 10.783l-2.75 2.75A7.576 7.576 0 0126.624 21a7.575 7.575 0 01-5.392-2.233c-2.973-2.973-2.973-7.81 0-10.783l2.75-2.75A7.576 7.576 0 0129.375 3m0-2a9.6 9.6 0 00-6.807 2.819l-2.75 2.75c-3.758 3.758-3.758 9.853 0 13.612A9.6 9.6 0 0026.624 23c2.462 0 4.927-.94 6.807-2.819l2.75-2.75c3.758-3.758 3.758-9.853 0-13.612A9.598 9.598 0 0029.375 1z" fill="#c74343"></path><path fill="none" stroke="#36404d" stroke-width="2" stroke-miterlimit="10" d="M3.698 36.283l6.785-6.785"></path><path d="M3.882 39L1 36.118l.79-.79a1.117 1.117 0 011.581 0l1.301 1.301a1.117 1.117 0 010 1.581l-.79.79z" fill="#36404d"></path></svg>