<svg viewBox="0 0 40 40" xmlns="http://www.w3.org/2000/svg"><path fill="#ffeea3" d="M34.5 36.5h2v2h-2z"></path><path d="M36 37v1h-1v-1h1m1-1h-3v3h3v-3z" fill="#ba9b48"></path><path fill="#ffeea3" d="M3.5 36.5h2v2h-2z"></path><path d="M5 37v1H4v-1h1m1-1H3v3h3v-3z" fill="#ba9b48"></path><path d="M27.703 10.5l-.075-.199c-.058-.15-.116-.296-.134-.372C27.5 6.294 24.276 3.5 20 3.5s-7.5 2.794-7.5 6.5h-.001c-.013 0-.076.142-.138.287l-.089.213H10.5l.002-.5c0-4.607 4.349-8.5 9.498-8.5s9.498 3.893 9.498 8.5l.002.5h-1.797z" fill-rule="evenodd" clip-rule="evenodd" fill="#f88f8f"></path><path d="M20 2c4.877 0 8.998 3.664 8.998 8h-.95a6.894 6.894 0 01-.049-.131C27.924 5.944 24.511 3 20 3c-4.504 0-7.914 2.935-7.998 6.852a7.55 7.55 0 01-.062.148h-.938c0-4.336 4.121-8 8.998-8m0-1c-5.262 0-9.998 4-9.998 9 0 .123-.005.878 0 1h2.631c-.007-.122.367-.877.367-1 0-3.5 3.032-6 7-6 3.967 0 7 2.5 7 6 0 .123.339.878.332 1h2.666c.005-.122 0-.877 0-1 0-5-4.736-9-9.998-9z" fill="#c74343"></path><path d="M9.015 11.5c.139-1.124 1.2-2 2.485-2s2.346.876 2.485 2h-4.97z" fill="#ffeea3"></path><path d="M11.5 10c.796 0 1.485.409 1.807 1H9.693c.322-.591 1.011-1 1.807-1m0-1c-1.657 0-3 1.231-3 2.75 0 .084.006.168.014.25h5.972c.008-.082.014-.166.014-.25 0-1.519-1.343-2.75-3-2.75z" fill="#ba9b48"></path><path d="M26.515 11.5c.139-1.124 1.2-2 2.485-2s2.346.876 2.485 2h-4.97z" fill="#ffeea3"></path><path d="M29 10c.796 0 1.485.409 1.807 1h-3.614c.322-.591 1.011-1 1.807-1m0-1c-1.657 0-3 1.231-3 2.75 0 .084.006.168.014.25h5.972c.008-.082.014-.166.014-.25C32 10.231 30.657 9 29 9z" fill="#ba9b48"></path><g><path d="M19.736 26.486c-8.349 0-16.244-2.317-18.144-2.916L4.45 11.5h31.1l2.855 12.063c-1.977.592-10.296 2.923-18.669 2.923z" fill="#c0b3df"></path><path d="M35.155 12l2.655 11.217c-2.558.739-10.288 2.769-18.074 2.769-7.738 0-15.092-2.011-17.549-2.756L4.845 12h30.31m.791-1H4.054L1 23.904s8.997 3.082 18.736 3.082S39 23.904 39 23.904L35.946 11z" fill="#8b75a1"></path></g><g><path fill="#c0b3df" d="M1.561 36.5l2.885-25h31.108l2.885 25z"></path><path d="M35.109 12l2.769 24H2.122l2.769-24h30.218M36 11H4L1 37h38l-3-26z" fill="#8b75a1"></path></g><path fill="#778b9d" d="M11 21h17v1H11z"></path><g><path d="M28 21c-1 0-1 1-1 1.5v5h2v-5c0-.5 0-1.5-1-1.5z" fill="#ffeea3"></path></g></svg>