<svg viewBox="0 0 40 40" xmlns="http://www.w3.org/2000/svg"><path fill="#d9b675" d="M1.5 13.5h37v13h-37z"></path><path d="M38 14v12H2V14h36m1-1H1v14h38V13z" fill="#ba9b48"></path><path d="M8.644 30.483c-2.767-3.792-4.112-7.229-4.112-10.5 0-3.619 1.435-7.333 4.046-10.483h22.909c2.543 2.758 4.04 6.671 4.014 10.513-.027 3.984-1.303 7.323-4.01 10.487l-22.847-.017z" fill="#d9b675"></path><path d="M31.265 10c2.37 2.657 3.76 6.366 3.735 10.01-.026 3.786-1.217 6.972-3.742 9.99l-22.359-.016c-2.602-3.622-3.868-6.897-3.868-10 0-3.434 1.34-6.963 3.783-9.984h22.451m.438-1H8.344c-2.5 2.946-4.312 6.819-4.312 10.984s2.128 7.986 4.359 11L31.719 31c2.594-2.969 4.25-6.422 4.281-10.984.028-4.026-1.547-8.125-4.297-11.016z" fill="#ba9b48"></path><path fill="#ba9b48" d="M31 27h2v1h-2zM7 27h2v1H7zM31 12h2v1h-2zM7 12h2v1H7zM9 16h23v2H9zM9 21h11v2H9z"></path><path fill="#b6c9d6" d="M0 40h2l7.753-7.998L8 30l-8 8z"></path><path d="M20 5c8.411 0 15 6.589 15 15s-6.589 15-15 15S5 28.411 5 20 11.589 5 20 5m0-1C11.006 4 4 11.006 4 20s7.006 16 16 16 16-7.006 16-16S28.994 4 20 4z" fill="#788b9c"></path><path fill="#788b9c" d="M3 40l7.354-7.646-.708-.708L1.484 40zM0 38.553l8.354-8.199-.708-.708L0 37z"></path><path fill="#ba9b48" d="M19 12h2v1h-2zM15 12h2v1h-2zM11 12h2v1h-2zM23 12h2v1h-2zM27 12h2v1h-2zM19 27h2v1h-2zM15 27h2v1h-2zM11 27h2v1h-2zM23 27h2v1h-2zM27 27h2v1h-2z"></path><g><path d="M20 6c7.85 0 14 6.15 14 14s-6.15 14-14 14S6 27.85 6 20 12.15 6 20 6m0-1C11.568 5 5 11.568 5 20s6.568 15 15 15 15-6.568 15-15S28.432 5 20 5z" fill="#fff"></path></g></svg>