<svg viewBox="0 0 40 40" xmlns="http://www.w3.org/2000/svg"><path fill="#ffeea3" d="M15.5 36.5h2v2h-2z"></path><path d="M17 37v1h-1v-1h1m1-1h-3v3h3v-3z" fill="#ba9b48"></path><path fill="#ffeea3" d="M25.5 36.5h2v2h-2z"></path><path d="M27 37v1h-1v-1h1m1-1h-3v3h3v-3z" fill="#ba9b48"></path><path d="M21.53 10.5h-1.643c-.275 0-.387-.225-.387-.5V3.5c0-1 0-2.5 1.25-2.5S22 2.5 22 3.5V10c0 .275-.195.5-.47.5z" fill="#f88f8f" stroke="#c74343" stroke-miterlimit="2"></path><path d="M18.265 11.5c.139-1.124 1.2-2 2.485-2s2.346.876 2.485 2h-4.97z" fill="#ffeea3"></path><path d="M20.75 10c.796 0 1.485.409 1.807 1h-3.614c.322-.591 1.011-1 1.807-1m0-1c-1.657 0-3 1.231-3 2.75 0 .084.006.168.014.25h5.972c.008-.082.014-.166.014-.25 0-1.519-1.343-2.75-3-2.75z" fill="#ba9b48"></path><path fill="#ffeea3" d="M13.5 25.5h2v4h-2z"></path><path d="M15 26v3h-1v-3h1m1-1h-3v5h3v-5z" fill="#ba9b48"></path><path fill="#c0b3df" d="M26.25 15.25L23 15h-7l-2 21h15z"></path><path d="M12.5 25.5l2-10c.404-2.482 1.035-4.244 4.5-4h4.5c1.271 0 2.814.742 3 2l3 23h-16l3-22 3 .5 4-.5 3 1M19.5 27V15M23.5 24.5V15" fill="none" stroke="#8b75a1" stroke-miterlimit="10"></path></svg>