<svg viewBox="0 0 40 40" xmlns="http://www.w3.org/2000/svg"><path d="M20.005 6.359c-1.162 0-1.971-.739-1.971-1.402 0-.689.807-1.457 1.966-1.457s1.966.768 1.966 1.457c0 .677-.788 1.402-1.961 1.402z" fill="#ffeea3"></path><path d="M20 4c.895 0 1.466.567 1.466.957 0 .377-.555.902-1.46.902-.898 0-1.471-.534-1.471-.902C18.534 4.567 19.105 4 20 4m0-1c-1.439 0-2.466.978-2.466 1.957 0 .963 1.032 1.902 2.471 1.902s2.46-.939 2.46-1.902C22.466 3.978 21.439 3 20 3z" fill="#ba9b48"></path><path d="M3 21s1-2.519 1-6-1-7-1-7 8.465-3 17-3 17 3 17 3-1 3.544-1 7 1 6 1 6-11.822 4.748-18.726 4.259S3 21 3 21z" fill="#c0b3df" stroke="#8b75a1" stroke-miterlimit="10"></path><path d="M30.5 20v-5.5s-4.336.712-10.5-1c-6.164 1.712-10.5 1-10.5 1V20" fill="#c0b3df" stroke="#8b75a1" stroke-miterlimit="10"></path><path fill="#c0b3df" stroke="#8b75a1" stroke-miterlimit="10" d="M33.5 25.5v-7h-27v7"></path><path d="M2 20l2 17h32l2-17s-9 2-18 2-18-2-18-2z" fill="#c0b3df" stroke="#8b75a1" stroke-miterlimit="10"></path><path d="M20 31.5c-.417 0-2.5-.072-2.5-1.5s2.088-1.5 2.506-1.5c.417 0 2.494.072 2.494 1.5s-2.083 1.5-2.5 1.5z" fill="#ffeea3"></path><path d="M20.006 29c.082 0 1.994.011 1.994 1s-1.918 1-2 1-2-.011-2-1 1.924-1 2.006-1m0-1c-1.37 0-3.006.5-3.006 2s1.636 2 3 2 3-.5 3-2-1.636-2-2.994-2z" fill="#ba9b48"></path><path fill="#8b75a1" stroke="#8b75a1" stroke-miterlimit="2" d="M19.5 19v-5.5"></path></svg>