<svg viewBox="0 0 40 40" xmlns="http://www.w3.org/2000/svg"><path d="M31 19h-3v-2a1 1 0 011-1h1a1 1 0 011 1v2zM12 19H9v-2a1 1 0 011-1h1a1 1 0 011 1v2zM23 16v6h-6v-6h6m0-1h-6a1 1 0 00-1 1v6a1 1 0 001 1h6a1 1 0 001-1v-6a1 1 0 00-1-1z" fill="#704e34"></path><path d="M14 11.5c-3.033 0-5.5-2.467-5.5-5.5S10.967.5 14 .5a5.52 5.52 0 014.758 2.75l.145.25h2.89L23 4.707 24.207 3.5h1.586L27 4.707 28.207 3.5h1.586L31.5 5.207v1.586L29.793 8.5h-10.89l-.145.25A5.52 5.52 0 0114 11.5zm-2-7c-.827 0-1.5.673-1.5 1.5s.673 1.5 1.5 1.5 1.5-.673 1.5-1.5-.673-1.5-1.5-1.5z" fill="#f5ce85"></path><path d="M14 1c1.774 0 3.432.958 4.325 2.501l.289.499h2.971l.707.707.708.707.707-.707.707-.707h1.172l.707.707.707.707.707-.707.707-.707h1.172L31 5.414v1.172L29.586 8H18.615l-.289.499A5.019 5.019 0 0114 11c-2.757 0-5-2.243-5-5s2.243-5 5-5m-2 7c1.103 0 2-.897 2-2s-.897-2-2-2-2 .897-2 2 .897 2 2 2m2-8a6 6 0 100 12 5.992 5.992 0 005.191-3H30l2-2V5l-2-2h-2l-1 1-1-1h-2l-1 1-1-1h-2.809A5.992 5.992 0 0014 0zm-2 7a1 1 0 110-2 1 1 0 010 2z" fill="#967a44"></path><path d="M6 38.5c-.827 0-1.5-.673-1.5-1.5V19c0-.827.673-1.5 1.5-1.5h28c.827 0 1.5.673 1.5 1.5v18c0 .827-.673 1.5-1.5 1.5H6z" fill="#ffc49c"></path><path d="M34 18c.551 0 1 .449 1 1v18c0 .551-.449 1-1 1H6c-.551 0-1-.449-1-1V19c0-.551.449-1 1-1h28m0-1H6a2 2 0 00-2 2v18a2 2 0 002 2h28a2 2 0 002-2V19a2 2 0 00-2-2z" fill="#a16a4a"></path><path fill="none" stroke="#a16a4a" stroke-miterlimit="10" d="M10.5 17.5v21M29.5 17.5v21"></path></svg>