<svg viewBox="0 0 40 40" xmlns="http://www.w3.org/2000/svg"><path fill="#dbf2ff" d="M8.5 1.5h23v35h-23z"></path><path d="M31 2v34H9V2h22m1-1H8v36h24V1z" fill="#788b9c"></path><path fill="#dbf2ff" d="M8 23.154h24V37H8z"></path><path fill="none" stroke="#a16a4a" stroke-miterlimit="10" d="M16.607 35.607V23.393M4.393 35.607S1.679 32.825 1.679 29.5s2.714-6.107 2.714-6.107M7.107 35.607S5.75 32.825 5.75 29.5s1.357-6.107 1.357-6.107M11.857 35.607s-.679-2.782-.679-6.107.679-6.107.679-6.107M23.393 35.607V23.393M35.607 35.607s2.714-2.782 2.714-6.107-2.714-6.107-2.714-6.107M32.893 35.607s1.357-2.782 1.357-6.107-1.357-6.107-1.357-6.107M28.143 35.607s.679-2.782.679-6.107-.679-6.107-.679-6.107"></path><path fill="#ffc49c" d="M4.5 35.5h31v3h-31z"></path><path d="M35 36v2H5v-2h30m1-1H4v4h32v-4z" fill="#a16a4a"></path><path d="M3.5 19.5h0a2 2 0 00-2 2v0a2 2 0 002 2h33a2 2 0 002-2v0a2 2 0 00-2-2h-.056" fill="none" stroke="#c74343" stroke-miterlimit="10"></path><g><path d="M36.5 20a.5.5 0 110 1 .5.5 0 010-1m0-1a1.5 1.5 0 10.001 3.001A1.5 1.5 0 0036.5 19z" fill="#c74343"></path></g><g><path d="M3.5 20a.5.5 0 110 1 .5.5 0 010-1m0-1a1.5 1.5 0 10.001 3.001A1.5 1.5 0 003.5 19z" fill="#c74343"></path></g></svg>