<svg viewBox="0 0 40 40" xmlns="http://www.w3.org/2000/svg"><path d="M27.197 35.5C25.905 34.294 23.5 31.846 23.5 26c0-1.563.212-2.602.436-3.702.265-1.296.564-2.764.564-5.298 0-1.986-.28-3.583-.552-5.128-.23-1.313-.448-2.553-.448-3.872 0-3.139 2.612-6.5 6.5-6.5 7.302 0 8.378 9.891 8.5 18.507-.002.1-.599 11.109-4.712 15.493h-6.591z" fill="#ffd7bd"></path><path d="M30 2c5.357 0 7.824 5.556 8 17.987-.003.106-.59 10.677-4.433 15.013h-6.172C26.07 33.745 24 31.443 24 26c0-1.512.197-2.48.426-3.601C24.695 21.08 25 19.585 25 17c0-2.03-.297-3.722-.559-5.215C24.214 10.495 24 9.276 24 8c0-2.898 2.411-6 6-6m0-1c-4.308 0-7 3.717-7 7 0 2.897 1 5.331 1 9 0 4.634-1 5.524-1 9 0 5.986 2.392 8.508 4 10h7c4.378-4.416 5.003-15.778 5-16-.129-9.165-1.429-19-9-19z" fill="#e0ac89"></path><path d="M38 19c-.096-4.152-.228-17-8-17-2.585 0-3 2.455-3 4 0 1.873 1 5.303 1 11 0 1.931-2.605 10 4 10 3.948 0 5.904-3.269 6-8z" fill="#b08159"></path><path d="M37.932 16.714a57.398 57.398 0 00-.089-1.584c-1.61 2.336-5.855 6.709-10.247 8.163.05.337.117.667.217.979 3.992-1.29 7.986-4.868 10.119-7.558z" fill="#ffd7bd"></path><path d="M37.239 23.26a9.24 9.24 0 00.318-.948c-4.556-1.644-8.312-6.149-9.634-7.895.029.533.047 1.094.058 1.677 1.811 2.183 5.223 5.714 9.258 7.166zM6.212 38.5C2.099 34.116 1.502 23.106 1.5 22.998 1.622 14.391 2.698 4.5 10 4.5c3.888 0 6.5 3.361 6.5 6.5 0 1.319-.218 2.559-.448 3.872-.272 1.545-.552 3.142-.552 5.128 0 2.534.299 4.002.564 5.298.224 1.1.436 2.139.436 3.702 0 5.846-2.405 8.294-3.697 9.5H6.212z" fill="#ffd7bd"></path><path d="M10 5c3.589 0 6 3.102 6 6 0 1.276-.214 2.495-.441 3.785C15.297 16.278 15 17.97 15 20c0 2.585.305 4.08.574 5.399C15.803 26.52 16 27.488 16 29c0 5.443-2.07 7.745-3.395 9H6.433C2.59 33.664 2.003 23.094 2 23.014 2.176 10.556 4.643 5 10 5m0-1c-7.571 0-8.871 9.835-9 19-.003.222.622 11.584 5 16h7c1.608-1.492 4-4.014 4-10 0-3.476-1-4.366-1-9 0-3.669 1-6.103 1-9 0-3.283-2.692-7-7-7z" fill="#e0ac89"></path><path d="M2 22c.096-4.152.228-17 8-17 2.585 0 3 2.455 3 4 0 1.873-1 5.303-1 11 0 1.931 2.605 10-4 10-3.948 0-5.904-3.269-6-8z" fill="#b08159"></path><path d="M2.068 19.714c.021-.497.05-1.027.089-1.584 1.61 2.336 5.855 6.709 10.247 8.163a6.19 6.19 0 01-.217.979c-3.992-1.29-7.986-4.868-10.119-7.558z" fill="#ffd7bd"></path><path d="M2.761 26.26a9.24 9.24 0 01-.318-.948c4.556-1.644 8.312-6.149 9.634-7.895a47.581 47.581 0 00-.058 1.677c-1.811 2.183-5.223 5.714-9.258 7.166z" fill="#ffd7bd"></path></svg>