<svg viewBox="0 0 40 40" xmlns="http://www.w3.org/2000/svg"><path d="M5.784 38.497c-.454 0-1.707-.371-2.456-.719l-.77-1.257c.179-.628.827-2.596 1.5-3.717 3.941-3.343 6.785-4.465 9.534-5.551 2.425-.958 4.716-1.862 7.454-4.193 4.647-3.957 5.505-8.248 5.966-10.553.067-.333.125-.625.186-.865.33-1.307 1.015-2.162 1.516-2.786.267-.333.485-.605.596-.878.298-.095.572-.208.822-.311.424-.175.791-.326 1.108-.326.237 0 .444.085.671.276.105.088.292.205.538.354 1.212.737 4.051 2.462 4.051 6.485 0 1.906-.606 8.646-8.401 15.33C18.671 37.872 8.934 38.5 6.174 38.5l-.39-.003z" fill="#ffeea3"></path><path d="M31.24 7.842c.056 0 .161 0 .35.159.151.126.339.241.6.399 1.237.752 3.81 2.316 3.81 6.057 0 1.852-.593 8.405-8.227 14.951C18.476 37.38 8.89 38 6.174 38l-.284-.002-.106-.001c-.299 0-1.365-.288-2.11-.612l-.583-.952c.232-.714.786-2.323 1.355-3.302 3.845-3.247 6.633-4.348 9.33-5.413 2.465-.973 4.793-1.893 7.594-4.277 4.78-4.07 5.66-8.471 6.133-10.836.065-.324.121-.606.18-.84.303-1.201.923-1.974 1.421-2.596.216-.27.418-.522.563-.783.236-.083.453-.173.655-.256.359-.148.699-.288.918-.288m0-1c-.709 0-1.427.501-2.354.738.034.624-1.586 1.615-2.173 3.94-.475 1.883-.792 6.733-5.991 11.16-5.742 4.889-9.494 3.363-17.049 9.795-.708 1.143-1.379 3.16-1.599 3.851a.55.55 0 00.057.456l.847 1.382c.758.381 2.221.833 2.806.833.062 0 .194.003.39.003 2.189 0 12.355-.348 22.25-8.833C35.047 24.489 37 18.363 37 14.457c0-5.037-4.132-6.69-4.767-7.223-.342-.286-.667-.392-.993-.392z" fill="#ba9b48"></path><path d="M27.773 29.408C18.476 37.38 8.89 38 6.174 38l-.284-.002-.106-.001c-.299 0-1.365-.288-2.11-.612l-.583-.952c4.326-.933 17.534-6.11 20.243-8.599 9.25-8.5 8.596-19.592 8.856-19.433 1.237.751 3.81 2.315 3.81 6.056 0 1.853-.593 8.406-8.227 14.951z" fill="#f2d75c"></path><path fill="none" stroke="#7a4f34" stroke-linecap="round" stroke-miterlimit="10" d="M2.481 36.388l.914 1.506"></path><g><path d="M31.488 12.89c-1.275-1.69-3.025-2.289-3.913-2.493.212-.552.677-1.195 1.01-1.655.42-.581.606-.85.606-1.137 0-2.154-1.262-4.287-1.901-5.23.547-.251 1.45-.624 2.33-.805.297 1.141 1.158 4.088 2.436 5.406.139.144.36.323.635.542.752.6 1.958 1.562 2.744 3.043-.943.255-2.722.899-3.947 2.329z" fill="#cee0a1"></path><path d="M29.263 2.169c.389 1.392 1.219 3.901 2.434 5.154.173.178.398.358.682.585.665.53 1.593 1.272 2.305 2.362-.918.315-2.156.884-3.171 1.866-1.055-1.174-2.315-1.765-3.225-2.058.217-.371.498-.76.703-1.043.437-.604.701-.969.701-1.43 0-1.952-.964-3.871-1.663-5.006.364-.15.794-.308 1.234-.43M29.995 1c-1.614.203-3.457 1.185-3.457 1.185s2.154 2.737 2.154 5.42c0 .37-1.628 1.995-1.725 3.191 0 0 2.911.281 4.499 2.957 1.501-2.323 4.688-2.844 4.688-2.844-1.035-2.459-3.162-3.687-3.739-4.282C30.926 5.091 29.995 1 29.995 1z" fill="#5e9c76"></path></g></svg>