<svg viewBox="0 0 40 40" xmlns="http://www.w3.org/2000/svg"><circle cx="32" cy="22" r="6.5" fill="#c2e8ff"></circle><path d="M32 16c3.308 0 6 2.692 6 6s-2.692 6-6 6-6-2.692-6-6 2.692-6 6-6m0-1a7 7 0 100 14 7 7 0 000-14z" fill="#7496c4"></path><path d="M34.333 22.667c-.747 0-.913-.679-1.091-2.121-.139-1.134-.314-2.546-1.617-2.546-1.205 0-1.466 1.154-1.658 1.997-.237 1.045-.408 1.503-1.057 1.503-.582 0-.76-.441-1.057-1.524-.194-.708-.408-1.49-.954-2.005A6.494 6.494 0 0132 15.5c1.709 0 3.323.662 4.531 1.838-.816.534-.963 1.835-1.086 2.929-.192 1.692-.389 2.4-1.112 2.4z" fill="#a6714e"></path><path d="M32 16c1.398 0 2.727.48 3.787 1.345-.602.764-.738 1.961-.84 2.866-.147 1.297-.282 1.956-.614 1.956-.267 0-.417-.243-.595-1.682-.138-1.116-.369-2.984-2.114-2.984-1.604 0-1.956 1.552-2.145 2.386C29.227 21 29.121 21 28.91 21c-.179 0-.288-.109-.574-1.156-.166-.607-.358-1.31-.776-1.879A5.994 5.994 0 0132 16m0-1a6.994 6.994 0 00-5.805 3.086c1.564.759.828 3.914 2.715 3.914 2.117 0 1.012-3.5 2.715-3.5 1.841 0 .322 4.667 2.708 4.667 2.538 0 .697-5.575 3.104-5.575A6.982 6.982 0 0032 15z" fill="#7a4f34"></path><circle cx="8" cy="22" r="6.5" fill="#ffc49c"></circle><path d="M8 16c3.308 0 6 2.692 6 6s-2.692 6-6 6-6-2.692-6-6 2.692-6 6-6m0-1a7 7 0 100 14 7 7 0 000-14z" fill="#a16a4a"></path><path d="M10.333 21.394c-.775 0-.916-.396-1.094-1.445C9.107 19.172 8.908 18 7.625 18c-1.158 0-1.449.815-1.641 1.355-.2.562-.311.872-1.074.872-.71 0-.831-.285-1.094-.909-.185-.437-.404-.957-.903-1.365A6.496 6.496 0 018 15.5c1.697 0 3.3.652 4.505 1.813-.785.45-.939 1.497-1.059 2.314-.184 1.256-.336 1.767-1.113 1.767z" fill="#a6714e"></path><path d="M8 16c1.379 0 2.69.467 3.743 1.309-.558.655-.699 1.616-.791 2.246-.196 1.339-.32 1.339-.618 1.339-.353 0-.426 0-.601-1.029-.131-.768-.403-2.365-2.108-2.365-1.51 0-1.917 1.139-2.112 1.687-.193.54-.193.54-.604.54-.371 0-.378 0-.634-.604-.144-.341-.332-.786-.682-1.197A6.002 6.002 0 018 16m0-1a6.99 6.99 0 00-5.804 3.086c1.564.759.827 2.641 2.714 2.641 2.117 0 1.012-2.227 2.715-2.227 1.841 0 .322 3.394 2.708 3.394 2.538 0 .697-4.303 3.104-4.303A6.984 6.984 0 008 15z" fill="#7a4f34"></path><path d="M23.5 3.5s-4-.575-4 7.333" fill="none" stroke="#a16a4a" stroke-linecap="round" stroke-miterlimit="10"></path><g><circle cx="20" cy="13" r="3.5" fill="#f78f8f"></circle><path d="M20 10c1.654 0 3 1.346 3 3s-1.346 3-3 3-3-1.346-3-3 1.346-3 3-3m0-1a4 4 0 100 8 4 4 0 000-8z" fill="#c74343"></path></g><g><circle cx="20" cy="22" r="7.5" fill="#bae0bd"></circle><path d="M20 15c3.86 0 7 3.14 7 7s-3.14 7-7 7-7-3.14-7-7 3.14-7 7-7m0-1a8 8 0 100 16 8 8 0 000-16z" fill="#5e9c76"></path></g><g><path d="M17.333 22.833c-.954 0-1.143-1.06-1.34-2.806-.143-1.265-.314-2.776-1.289-3.34A7.476 7.476 0 0120 14.5a7.494 7.494 0 015.927 2.904c-.646.575-.895 1.483-1.119 2.302-.342 1.248-.565 1.794-1.277 1.794-.793 0-.999-.541-1.279-1.774-.225-.992-.505-2.226-1.824-2.226-1.426 0-1.621 1.579-1.778 2.847-.216 1.754-.447 2.486-1.317 2.486z" fill="#a6714e"></path><path d="M20 15c2.031 0 3.94.877 5.262 2.383-.513.646-.741 1.478-.936 2.191-.339 1.239-.481 1.426-.794 1.426-.36 0-.501-.107-.791-1.384-.222-.979-.594-2.616-2.312-2.616-1.868 0-2.112 1.977-2.274 3.285-.215 1.739-.402 2.048-.821 2.048-.447 0-.636-.53-.844-2.362-.119-1.056-.279-2.469-1.025-3.305A6.972 6.972 0 0120 15m0-1a7.984 7.984 0 00-6.214 2.961c2.751 0 .647 6.372 3.548 6.372 2.727 0 .991-5.333 3.095-5.333 1.946 0 .684 4 3.103 4 2.156 0 1.315-3.606 3.102-4.473A7.993 7.993 0 0020 14z" fill="#7a4f34"></path></g><g><path d="M20 36.5C9.065 36.5.5 32.625.5 27.677c0-1.384.656-2.306 3.857-2.306 1.556 0 3.477.208 5.701.447 2.962.32 6.318.682 9.942.682 3.614 0 6.963-.355 9.918-.668 2.224-.235 4.144-.439 5.702-.439 3.22 0 3.88.913 3.88 2.284C39.5 35.64 25.863 36.5 20 36.5z" fill="#ffeea3"></path><path d="M4.357 25.871c1.529 0 3.438.206 5.647.444 2.974.321 6.345.685 9.996.685 3.641 0 7.004-.357 9.972-.671 2.209-.234 4.117-.436 5.649-.436C39 25.892 39 26.924 39 27.677 39 35.189 25.713 36 20 36 9.346 36 1 32.344 1 27.677c0-.762 0-1.806 3.357-1.806m0-1C1.63 24.871 0 25.496 0 27.677 0 33.093 8.954 37 20 37s20-2.601 20-9.323c0-2.165-1.639-2.784-4.38-2.784C31.955 24.892 26.32 26 20 26c-6.333 0-11.979-1.129-15.643-1.129z" fill="#ba9b48"></path></g></svg>