<svg viewBox="0 0 40 40" xmlns="http://www.w3.org/2000/svg"><path d="M15.797 37.497c-1.031-.034-5.973-.38-9.443-3.85-3.457-3.457-3.813-8.399-3.85-9.443l21.699-21.7c1.061.036 5.983.39 9.443 3.85 3.541 3.541 3.832 8.416 3.853 9.44L15.797 37.497z" fill="#ffeea3"></path><path d="M24.402 3.012c1.326.071 5.742.546 8.891 3.695 3.204 3.204 3.641 7.584 3.699 8.887L15.598 36.988c-1.326-.071-5.742-.546-8.891-3.695-3.135-3.135-3.619-7.566-3.694-8.892L24.402 3.012M24.018 2H24L2 24s-.067 5.933 4 10c3.937 3.937 9.622 4 9.982 4H16l22-22s.154-5.846-4-10c-3.937-3.937-9.622-4-9.982-4z" fill="#ba9b48"></path><circle cx="10" cy="30" r=".5" fill="#e8d47b"></circle><path d="M10 29a1 1 0 100 2 1 1 0 000-2z" fill="#ba9b48"></path><circle cx="30" cy="10" r=".5" fill="#e8d47b"></circle><path d="M30 9a1 1 0 100 2 1 1 0 000-2z" fill="#ba9b48"></path><circle cx="10" cy="24" r=".5" fill="#e8d47b"></circle><path d="M10 23a1 1 0 100 2 1 1 0 000-2z" fill="#ba9b48"></path><g><circle cx="16" cy="30" r=".5" fill="#e8d47b"></circle><path d="M16 29a1 1 0 100 2 1 1 0 000-2z" fill="#ba9b48"></path></g><g><circle cx="24" cy="10" r=".5" fill="#e8d47b"></circle><path d="M24 9a1 1 0 100 2 1 1 0 000-2z" fill="#ba9b48"></path></g><g><circle cx="30" cy="16" r=".5" fill="#e8d47b"></circle><path d="M30 15a1 1 0 100 2 1 1 0 000-2z" fill="#ba9b48"></path></g><g><path d="M20 27.506a.496.496 0 01-.354-.146l-7.007-7.007a.5.5 0 010-.707l7.007-7.007c.094-.094.219-.146.354-.146s.26.052.354.146l7.007 7.007a.5.5 0 010 .707l-7.007 7.007a.496.496 0 01-.354.146z" fill="#e8d47b"></path><path d="M20 12.993L27.007 20 20 27.007 12.993 20l7.004-7.005H20v-.002m0-.999a.995.995 0 00-.707.292l-7.007 7.007a1.003 1.003 0 000 1.414l7.007 7.007a.999.999 0 001.414 0l7.007-7.007a1.003 1.003 0 000-1.414l-7.007-7.007a.999.999 0 00-.707-.292z" fill="#ba9b48"></path></g></svg>