<svg viewBox="0 0 40 40" xmlns="http://www.w3.org/2000/svg"><path d="M25.989 25.989c-6.474 6.474-13.834 9.612-16.437 7.008l4.587 4.587c2.604 2.604 9.963-.534 16.437-7.008s9.612-13.834 7.008-16.437l-4.587-4.587c2.604 2.603-.534 9.963-7.008 16.437z" fill="#ffeea3" stroke="#ba9b48" stroke-miterlimit="2"></path><path d="M13.326 33.809c.56-3.448 3.417-8.259 7.821-12.663s9.215-7.261 12.663-7.821c.263-1.621.02-2.942-.812-3.775-2.604-2.604-9.963.534-16.437 7.008s-9.613 13.835-7.01 16.439c.833.833 2.154 1.076 3.775.812z" fill="#d9b675" stroke="#ba9b48" stroke-miterlimit="2"></path><path d="M18.853 18.853c-6.474 6.474-13.834 9.612-16.437 7.008L7.5 30.5c2.604 2.604 9.466-.585 15.94-7.06S33.104 10.104 30.5 7.5l-4.639-5.084c2.604 2.604-.534 9.963-7.008 16.437z" fill="#ffeea3" stroke="#ba9b48" stroke-miterlimit="2"></path><path d="M6.191 26.674c.56-3.448 3.417-8.259 7.821-12.663S23.227 6.75 26.675 6.19c.263-1.621.02-2.942-.812-3.775-2.605-2.603-9.965.535-16.439 7.009S-.188 23.258 2.416 25.861c.833.833 2.153 1.076 3.775.813z" fill="#d9b675" stroke="#ba9b48" stroke-miterlimit="2"></path><path d="M11.999 29.655c-.464 0-.934-.204-1.289-.558-.67-.67-.748-1.683-.174-2.257.248-.248.592-.384.969-.384.464 0 .934.203 1.288.558.333.333.53.757.556 1.194.024.415-.11.792-.381 1.063a1.354 1.354 0 01-.969.384z" fill="#f88f8f"></path><path d="M11.505 26.956c.332 0 .673.15.935.412.246.246.391.555.41.87.009.157-.009.454-.236.68a.856.856 0 01-.615.238c-.332 0-.673-.15-.935-.412-.467-.467-.547-1.177-.174-1.55a.85.85 0 01.615-.238m0-1c-.493 0-.967.175-1.322.53-.77.77-.692 2.098.174 2.964a2.342 2.342 0 001.642.705c.493 0 .967-.175 1.322-.53.77-.77.692-2.098-.174-2.964a2.342 2.342 0 00-1.642-.705z" fill="#ba9b48"></path><ellipse transform="rotate(-45.001 21.51 21.016)" cx="21.509" cy="21.015" rx="3.698" ry="1.972" fill="#f88f8f" stroke="#ba9b48" stroke-miterlimit="10"/><circle transform="rotate(-45.001 22.991 19.534)" cx="22.992" cy="19.533" fill="#fff" r=".494"></circle><circle transform="rotate(-45.001 12.122 27.438)" cx="12.122" cy="27.438" fill="#fff" r=".494"></circle><path d="M28.303 12.857c-.464 0-.934-.203-1.288-.558a1.854 1.854 0 01-.556-1.194c-.024-.415.11-.792.381-1.063.248-.248.592-.384.969-.384.464 0 .934.203 1.288.558.333.333.53.757.556 1.194.024.415-.11.792-.381 1.063a1.356 1.356 0 01-.969.384z" fill="#f88f8f"></path><path d="M27.809 10.158c.332 0 .673.15.935.412.467.467.547 1.177.174 1.55a.856.856 0 01-.615.238c-.332 0-.673-.15-.935-.412-.467-.467-.547-1.177-.174-1.55a.85.85 0 01.615-.238m0-1c-.493 0-.967.175-1.322.53-.77.77-.692 2.098.174 2.964a2.342 2.342 0 001.642.705c.493 0 .967-.175 1.322-.53.77-.77.692-2.098-.174-2.964a2.342 2.342 0 00-1.642-.705z" fill="#ba9b48"></path><circle transform="rotate(-45.001 28.426 10.146)" cx="28.426" cy="10.146" fill="#fff" r=".494"></circle><path d="M19.41 36.572c-.464 0-.934-.204-1.289-.558-.67-.67-.748-1.683-.174-2.257a1.35 1.35 0 01.968-.384c.464 0 .934.204 1.289.558.67.67.749 1.683.175 2.257a1.354 1.354 0 01-.969.384z" fill="#8bb8f0"></path><path d="M18.916 33.873c.332 0 .673.15.935.412.467.467.547 1.177.174 1.55a.856.856 0 01-.615.238c-.332 0-.673-.15-.935-.412-.467-.467-.547-1.177-.174-1.55a.85.85 0 01.615-.238m0-1c-.493 0-.967.175-1.322.53-.77.77-.692 2.098.174 2.964a2.342 2.342 0 001.642.705c.493 0 .967-.175 1.322-.53.77-.77.692-2.098-.174-2.964a2.342 2.342 0 00-1.642-.705z" fill="#ba9b48"></path><ellipse transform="rotate(-45.001 28.426 28.427)" cx="28.426" cy="28.426" rx="3.698" ry="1.972" fill="#8bb8f0" stroke="#ba9b48" stroke-miterlimit="10"/><circle transform="rotate(-45.001 30.402 26.45)" cx="30.402" cy="26.45" fill="#fff" r=".494"></circle><circle transform="rotate(-45.001 19.533 34.355)" cx="19.533" cy="34.355" fill="#fff" r=".494"></circle><g><path d="M35.224 20.77a1.85 1.85 0 01-1.291-.56 1.858 1.858 0 01-.557-1.197c-.025-.417.11-.794.382-1.065.248-.249.593-.385.971-.385.465 0 .936.204 1.292.56.333.333.531.758.557 1.197.024.416-.111.794-.383 1.065a1.36 1.36 0 01-.971.385z" fill="#8bb8f0"></path><path d="M34.729 18.063c.333 0 .675.151.938.413.247.247.393.556.411.873.009.157-.009.455-.237.683a.859.859 0 01-.618.238c-.333 0-.675-.151-.938-.413a1.353 1.353 0 01-.411-.873c-.009-.157.009-.455.237-.683a.859.859 0 01.618-.238m0-1a1.85 1.85 0 00-1.325.531c-.772.772-.694 2.101.175 2.969a2.346 2.346 0 001.645.706 1.85 1.85 0 001.325-.531c.772-.772.694-2.101-.175-2.97a2.349 2.349 0 00-1.645-.705z" fill="#ba9b48"></path></g><circle transform="rotate(-45.001 35.343 18.546)" cx="35.343" cy="18.545" fill="#fff" r=".494"></circle></svg>