<svg viewBox="0 0 40 40" xmlns="http://www.w3.org/2000/svg"><path fill="#bae0bd" d="M2.5 2.5h35v35h-35z"></path><path d="M37 3v34H3V3h34m1-1H2v36h36V2z" fill="#5e9c76"></path><path d="M17.224 15.463c0-1.038.931-1.934 2.846-1.934 2.169 0 3.729.614 4.943 1.35v-3.505c-.902-.502-2.264-.796-4.09-.883V8.129h-1.895v2.414c-1.584.156-2.856.712-3.816 1.668-.961.956-1.442 2.113-1.442 3.472 0 5.368 9.01 5.535 9.01 8.476 0 1.047-1.312 1.856-2.775 1.856-2.995 0-5.382-1.268-5.884-1.675v3.596c1.514.788 3.15 1.186 4.907 1.194v2.739h1.895v-2.817c1.705-.19 3.015-.724 3.934-1.603.916-.878 1.374-2.036 1.374-3.473 0-5.729-9.007-5.291-9.007-8.513z" fill="#45805b"></path></svg>