<svg viewBox="0 0 40 40" xmlns="http://www.w3.org/2000/svg"><path fill="none" stroke="#36404d" stroke-miterlimit="10" d="M11.893 20.214L13.25 17.5H18"></path><path d="M3.003 38.5c-.466 0-.896-.21-1.184-.577a1.49 1.49 0 01-.273-1.29l1.852-7.406-.802-5.594 4.139.848.115 4.595-2.402 8.337A1.511 1.511 0 013.003 38.5z" fill="#a1b1bd"></path><path d="M3.192 24.266l3.053.626.103 4.12-2.382 8.264a1.005 1.005 0 01-.963.724c-.311 0-.599-.141-.79-.386s-.258-.558-.182-.86l1.828-7.311.048-.19-.028-.194-.687-4.793M2 23.001l.889 6.2-1.828 7.311a2.002 2.002 0 003.866 1.04l2.424-8.412-.127-5.069L2 23.001z" fill="#788b9c"></path><path d="M9.618 38.5c-.727 0-1.363-.49-1.549-1.192l-2.564-9.684-.417-.194A4.48 4.48 0 012.5 23.38V14c0-1.93 1.57-3.5 3.5-3.5s3.5 1.57 3.5 3.5v4.5H15c.827 0 1.5.673 1.5 1.5s-.673 1.5-1.5 1.5H9.5V23l1.709 13.699a1.6 1.6 0 01-.39 1.259 1.6 1.6 0 01-1.201.542z" fill="#b6c9d6"></path><path d="M6 11c1.654 0 3 1.346 3 3v5h6c.551 0 1 .449 1 1s-.449 1-1 1H9v2.062l.008.062 1.705 13.637c.04.318-.055.626-.267.866S9.939 38 9.618 38c-.5 0-.938-.337-1.066-.82l-2.504-9.458-.12-.454-.426-.198-.206-.095A3.976 3.976 0 013 23.38V14c0-1.654 1.346-3 3-3m0-1a4 4 0 00-4 4v9.38a4.964 4.964 0 002.877 4.503l.206.095 2.504 9.458a2.102 2.102 0 004.117-.799L10 23v-1h5a2 2 0 100-4h-5v-4a4 4 0 00-4-4z" fill="#788b9c"></path><path d="M19.5 7.5V5c0-.827.673-1.5 1.5-1.5s1.5.673 1.5 1.5v2.5h-3z" fill="#f5ce85"></path><path d="M21 4c.551 0 1 .449 1 1v2h-2V5c0-.551.449-1 1-1m0-1a2 2 0 00-2 2v3h4V5a2 2 0 00-2-2z" fill="#967a44"></path><path d="M35.5 7.5V5c0-.827.673-1.5 1.5-1.5s1.5.673 1.5 1.5v2.5h-3z" fill="#f5ce85"></path><path d="M37 4c.551 0 1 .449 1 1v2h-2V5c0-.551.449-1 1-1m0-1a2 2 0 00-2 2v3h4V5a2 2 0 00-2-2z" fill="#967a44"></path><circle cx="29" cy="6" r="3.5" fill="#f5ce85"></circle><path d="M29 3c1.654 0 3 1.346 3 3s-1.346 3-3 3-3-1.346-3-3 1.346-3 3-3m0-1a4 4 0 100 8 4 4 0 000-8z" fill="#967a44"></path><circle cx="6" cy="5" r="3.5" fill="#f5ce85"></circle><path d="M6 2c1.654 0 3 1.346 3 3S7.654 8 6 8 3 6.654 3 5s1.346-3 3-3m0-1a4 4 0 100 8 4 4 0 000-8z" fill="#967a44"></path><path d="M23.5 20.5v-6H22a2.503 2.503 0 01-2.5-2.5V6.5h3v5h13v-5h3V12c0 1.378-1.121 2.5-2.5 2.5h-1.5v6h-11z" fill="#8bb7f0"></path><path d="M38 7v5c0 1.103-.897 2-2 2h-2v6H24v-6h-2c-1.103 0-2-.897-2-2V7h2v5h14V7h2m1-1h-4v5H23V6h-4v6a3 3 0 003 3h1v6h12v-6h1a3 3 0 003-3V6z" fill="#4e7ab5"></path><g><path fill="#b6c9d6" d="M7 21h3v2H7z"></path></g><path d="M6.5 16.071V19.5a2 2 0 002 2H12" fill="none" stroke="#788b9c" stroke-linecap="round" stroke-linejoin="round" stroke-miterlimit="10"></path><g><path fill="#fff" d="M29 19l-3-7h6z"></path></g><g><path fill="#4e7ab5" d="M27.75 12l.75 1-.613 3.402L29 19l1.113-2.597L29.5 13l.75-1L29 11z"></path></g><g><path fill="#f5ce85" d="M20.5 20.5h18v3h-18z"></path><path d="M38 21v2H21v-2h17m1-1H20v4h19v-4z" fill="#967a44"></path></g><g><path fill="#f5ce85" d="M21.5 23.5h17v15h-17z"></path><path d="M38 24v14H22V24h16m1-1H21v16h18V23z" fill="#967a44"></path></g></svg>