<svg viewBox="0 0 40 40" xmlns="http://www.w3.org/2000/svg"><path d="M4 32.5A2.503 2.503 0 011.5 30V10c0-1.378 1.121-2.5 2.5-2.5h32c1.379 0 2.5 1.122 2.5 2.5v20c0 1.378-1.121 2.5-2.5 2.5H4z" fill="#8bb7f0"></path><path d="M36 8c1.103 0 2 .897 2 2v20c0 1.103-.897 2-2 2H4c-1.103 0-2-.897-2-2V10c0-1.103.897-2 2-2h32m0-1H4a3 3 0 00-3 3v20a3 3 0 003 3h32a3 3 0 003-3V10a3 3 0 00-3-3z" fill="#4e7ab5"></path><path fill="#ffeea3" d="M5.5 13.5h7v5h-7z"></path><path d="M12 14v4H6v-4h6m1-1H5v6h8v-6z" fill="#ba9b48"></path><path fill="#ffeea3" d="M5 22h6v2H5zM13 22h6v2h-6zM21 22h6v2h-6zM29 22h6v2h-6z"></path><g><path fill="#e1ebf2" d="M18 11h17v5H18z"></path></g><path fill="#ffeea3" d="M5 26h18v2H5z"></path></svg>