<svg viewBox="0 0 40 40" xmlns="http://www.w3.org/2000/svg"><path fill="#bae0bd" d="M1.882 14.073l29.533-12.32 6.93 16.612-29.533 12.32z"></path><path d="M31.147 2.406l6.545 15.69-28.61 11.935-6.545-15.69 28.61-11.935m.538-1.308L1.229 13.804l7.315 17.535L39 18.634 31.685 1.098z" fill="#5e9c76"></path><path d="M20.117 22.22a5.986 5.986 0 01-5.54-3.691 6.007 6.007 0 015.535-8.312 5.986 5.986 0 015.54 3.691 6.008 6.008 0 01-5.535 8.312z" fill="#fff"></path><path d="M20.112 10.717a5.487 5.487 0 015.078 3.384 5.507 5.507 0 01-5.074 7.62 5.489 5.489 0 01-5.079-3.384 5.507 5.507 0 015.075-7.62m0-1a6.499 6.499 0 00-5.996 9.004 6.502 6.502 0 006.002 3.999 6.499 6.499 0 005.996-9.004 6.504 6.504 0 00-6.002-3.999z" fill="#5e9c76"></path><path d="M9.964 22.455a1.996 1.996 0 01-1.847-1.23c-.206-.493-.208-1.037-.005-1.531s.587-.88 1.08-1.085a1.995 1.995 0 012.616 1.075 2.002 2.002 0 01-1.844 2.771z" fill="#fff"></path><path d="M9.961 18.953c.608 0 1.151.362 1.385.923.154.37.155.777.003 1.148-.152.371-.44.66-.81.814a1.496 1.496 0 01-1.961-.807 1.493 1.493 0 01-.003-1.148c.152-.371.44-.66.81-.814.185-.077.379-.116.576-.116m0-1a2.501 2.501 0 00.002 5.001 2.501 2.501 0 00-.002-5.001z" fill="#5e9c76"></path><path d="M30.268 13.984a1.996 1.996 0 01-1.847-1.23 2.002 2.002 0 011.844-2.771c.811 0 1.535.483 1.847 1.23.206.493.208 1.037.005 1.531s-.587.88-1.08 1.085a1.971 1.971 0 01-.769.155z" fill="#fff"></path><path d="M30.266 10.483c.608 0 1.151.362 1.385.923.154.37.155.777.003 1.148-.152.371-.44.66-.81.814a1.496 1.496 0 01-1.961-.807 1.493 1.493 0 01-.003-1.148c.152-.371.44-.66.81-.814.184-.077.378-.116.576-.116m-.001-1a2.501 2.501 0 00.002 5.001 2.501 2.501 0 00-.002-5.001z" fill="#5e9c76"></path><g><path fill="#bae0bd" d="M6.5 20.5h32v18h-32z"></path><path d="M38 21v17H7V21h31m1-1H6v19h33V20z" fill="#5e9c76"></path></g><g><circle cx="22.5" cy="29.5" r="6" fill="#fff"></circle><path d="M22.5 24c3.033 0 5.5 2.467 5.5 5.5S25.533 35 22.5 35 17 32.533 17 29.5s2.467-5.5 5.5-5.5m0-1a6.5 6.5 0 100 13 6.5 6.5 0 000-13z" fill="#5e9c76"></path></g><g><circle cx="11.5" cy="29.5" r="2" fill="#fff"></circle><path d="M11.5 28c.827 0 1.5.673 1.5 1.5s-.673 1.5-1.5 1.5-1.5-.673-1.5-1.5.673-1.5 1.5-1.5m0-1a2.5 2.5 0 100 5 2.5 2.5 0 000-5z" fill="#5e9c76"></path></g><g><circle cx="33.5" cy="29.5" r="2" fill="#fff"></circle><path d="M33.5 28c.827 0 1.5.673 1.5 1.5s-.673 1.5-1.5 1.5-1.5-.673-1.5-1.5.673-1.5 1.5-1.5m0-1a2.5 2.5 0 100 5 2.5 2.5 0 000-5z" fill="#5e9c76"></path></g></svg>