<svg viewBox="0 0 40 40" xmlns="http://www.w3.org/2000/svg"><path fill="#8bb7f0" d="M2.5 2.5h35v35h-35z"></path><path d="M37 3v34H3V3h34m1-1H2v36h36V2z" fill="#4e7ab5"></path><path d="M26.455 28.296c-.93.563-2.508 1.127-4.311 1.127-2.565 0-4.875-1.013-6.368-2.901-.902-1.043-1.521-2.452-1.775-4.17h-1.803v-1.748h1.578v-.421c0-.368.028-.734.057-1.043h-1.634v-1.747h1.888c.338-1.748 1.099-3.185 2.113-4.283 1.522-1.663 3.578-2.621 6.086-2.621 1.691 0 3.099.423 4.029.874l-.704 2.592a7.312 7.312 0 00-3.155-.734c-1.409 0-2.649.508-3.579 1.551-.592.619-1.014 1.549-1.239 2.621h7.382v1.747H17.3c-.056.309-.056.648-.056 1.014v.45h7.776v1.748h-7.466c.197 1.183.619 2.113 1.211 2.733.958 1.043 2.311 1.522 3.776 1.522 1.38 0 2.677-.48 3.325-.817l.589 2.506z" fill="#fff"></path></svg>