<svg viewBox="0 0 40 40" xmlns="http://www.w3.org/2000/svg"><path d="M4 32.5A2.503 2.503 0 011.5 30V10c0-1.378 1.122-2.5 2.5-2.5h32c1.378 0 2.5 1.122 2.5 2.5v20c0 1.378-1.122 2.5-2.5 2.5H4z" fill="#8bb7f0"></path><path d="M36 8c1.103 0 2 .897 2 2v20c0 1.103-.897 2-2 2H4c-1.103 0-2-.897-2-2V10c0-1.103.897-2 2-2h32m0-1H4a3 3 0 00-3 3v20a3 3 0 003 3h32a3 3 0 003-3V10a3 3 0 00-3-3z" fill="#4e7ab5"></path><path fill="#ffeea3" d="M5.5 13.5h7v5h-7z"></path><path d="M12 14v4H6v-4h6m1-1H5v6h8v-6z" fill="#ba9b48"></path><path fill="#ffeea3" d="M5 22h6v2H5zM13 22h6v2h-6zM21 22h6v2h-6z"></path><path fill="#e1ebf2" d="M18 11h17v5H18z"></path><path fill="#ffeea3" d="M5 26h18v2H5z"></path><g><circle cx="31" cy="31" r="8.5" fill="#f78f8f"></circle><path d="M31 23c4.411 0 8 3.589 8 8s-3.589 8-8 8-8-3.589-8-8 3.589-8 8-8m0-1c-4.971 0-9 4.029-9 9s4.029 9 9 9 9-4.029 9-9-4.029-9-9-9z" fill="#c74343"></path></g><path d="M32 34h-2v2h2v-2zm1-3c.5-.6 1-1.2 1-2 0-2.2-1.8-3-3-3-2.2 0-3 1.8-3 3h2c0-.5.2-1 1-1 .5 0 1 .2 1 1 0 .1-.3.5-.5.7-.6.7-1.5 1.8-1.5 3.3h2c0-.8.5-1.4 1-2z" fill="#fff"></path></svg>