<svg viewBox="0 0 40 40" xmlns="http://www.w3.org/2000/svg"><path d="M8 24.5c-.827 0-1.5-.673-1.5-1.5V4c0-.827.673-1.5 1.5-1.5h29c.827 0 1.5.673 1.5 1.5v19c0 .827-.673 1.5-1.5 1.5H8z" fill="#f78f8f"></path><path d="M37 3c.551 0 1 .449 1 1v19c0 .551-.449 1-1 1H8c-.551 0-1-.449-1-1V4c0-.551.449-1 1-1h29m0-1H8a2 2 0 00-2 2v19a2 2 0 002 2h29a2 2 0 002-2V4a2 2 0 00-2-2z" fill="#c74343"></path><path fill="#fff" d="M9 12h27v2H9z"></path><path fill="#36404d" d="M6 6h33v4H6z"></path><path d="M3 37.5c-.827 0-1.5-.673-1.5-1.5V17c0-.827.673-1.5 1.5-1.5h29c.827 0 1.5.673 1.5 1.5v19c0 .827-.673 1.5-1.5 1.5H3z" fill="#8bb7f0"></path><path d="M32 16c.551 0 1 .449 1 1v19c0 .551-.449 1-1 1H3c-.551 0-1-.449-1-1V17c0-.551.449-1 1-1h29m0-1H3a2 2 0 00-2 2v19a2 2 0 002 2h29a2 2 0 002-2V17a2 2 0 00-2-2z" fill="#4e7ab5"></path><path fill="#ffeea3" d="M5.5 20.5h6v4h-6z"></path><path d="M11 21v3H6v-3h5m1-1H5v5h7v-5z" fill="#ba9b48"></path><path fill="#ffeea3" d="M5 28h4v2H5zM12 28h4v2h-4zM19 28h4v2h-4zM26 28h4v2h-4z"></path><g><path fill="#e1ebf2" d="M16 19h14v4H16z"></path></g><path fill="#ffeea3" d="M5 32h15v2H5z"></path></svg>