<svg viewBox="0 0 40 40" xmlns="http://www.w3.org/2000/svg"><path d="M12.5 38.5v-.289c0-.937.717-1.729 1.631-1.803 1.195-.097 4.369-.355 4.369-2.837 0-2.267-1.34-7.283-1.839-9.071h6.677c-.499 1.785-1.838 6.782-1.838 9.071 0 2.5 3.17 2.749 4.363 2.843.918.072 1.637.864 1.637 1.803v.283h-15z" fill="#c2e8ff"></path><path d="M22.681 25C22.095 27.155 21 31.459 21 33.571c0 2.963 3.631 3.247 4.824 3.341.588.046 1.062.507 1.158 1.088H13.017c.094-.582.567-1.046 1.155-1.093C15.366 36.81 19 36.515 19 33.571c0-2.093-1.096-6.412-1.683-8.571h5.364M24 24h-8s2 6.885 2 9.571c0 1.687-1.895 2.175-3.909 2.339-1.187.096-2.091 1.11-2.091 2.301V39h16v-.783c0-1.194-.908-2.209-2.098-2.302-2.013-.158-3.902-.641-3.902-2.344C22 30.857 24 24 24 24z" fill="#7496c4"></path><path d="M20 29.5c-9.904 0-13.5-6.213-13.5-10.389C6.5 15.119 8.908 4.467 9.597 1.5h20.806c.689 2.974 3.097 13.652 3.097 17.611C33.5 23.287 29.904 29.5 20 29.5z" fill="#c2e8ff"></path><path d="M30.005 2C30.788 5.407 33 15.362 33 19.111 33 23.086 29.538 29 20 29S7 23.086 7 19.111C7 15.345 9.211 5.403 9.994 2h20.011m.795-1H9.2C8.665 3.287 6 14.882 6 19.111 6 23.812 10.118 30 20 30s14-6.208 14-10.889C34 14.9 31.335 3.289 30.8 1z" fill="#7496c4"></path><g><path d="M20 29.5c-9.904 0-13.5-6.213-13.5-10.389 0-1.145.204-2.963.608-5.411H32.89c.404 2.452.609 4.271.609 5.411C33.5 23.287 29.904 29.5 20 29.5z" fill="#a6714e"></path><path d="M32.465 14.2c.355 2.213.535 3.863.535 4.911C33 23.086 29.538 29 20 29S7 23.086 7 19.111c0-1.052.179-2.702.534-4.911h24.931m.849-1H6.685C6.284 15.568 6 17.732 6 19.111 6 23.812 10.118 30 20 30s14-6.208 14-10.889c0-1.375-.285-3.54-.686-5.911z" fill="#7a4f34"></path></g><path d="M11.5 17.5l2-13" fill="none" stroke="#f7fcff" stroke-linecap="round" stroke-miterlimit="10"></path></svg>