<svg viewBox="0 0 40 40" xmlns="http://www.w3.org/2000/svg"><path d="M30 8v.042c.007.409-.086 1.472-1.111 2.515C27.795 11.672 25.364 13 20 13 7.32 13 5.199 2.151 5.01 1H4c0 .129 1.913 13 16 13 11.357 0 10.999-5.751 11-6h-1z" fill="#4e7ab5"></path><path d="M16.996 12.919C13.504 12.347 11 7.135 11 4h-1c0 4.348 3.501 10 8 10v-1c-.086 0-.31-.081-1.004-.081z" fill="#4e7ab5"></path><path d="M19 12.699C17.026 11.393 17 6.271 17 6h-1c.001.36-.071 8 4 8v-1l-1-.301z" fill="#4e7ab5"></path><path d="M21 38.5c-8.148 0-10.786-1.36-11.988-2.293 2.101-.663 3.68-1.229 5.338-2.849l.695-.68-.958-.17c-.821-.146-2.889-.641-4.118-1.389 3.168-1.494 5.295-3.672 5.391-3.771l.574-.594-.792-.233c-.663-.195-2.38-.803-3.378-1.526 1.839-1.715 3.218-4.329 4.688-7.681.597-1.127 1.659-1.715 3.144-1.715 1.077 0 2.095.313 2.58.488v6.498c.589 3.579 1.67 13.16-.287 15.471-.257.303-.539.444-.889.444z" fill="#8bb7f0"></path><path d="M19.596 16.099c.802 0 1.574.189 2.08.347v6.222l.014.082c.794 4.772 1.447 13.059-.183 14.983-.199.235-.362.267-.507.267-6.455 0-9.354-.847-10.836-1.642 1.689-.573 3.071-1.214 4.534-2.642l1.393-1.36-1.917-.34c-.829-.147-2.088-.471-3.097-.897 2.753-1.487 4.553-3.331 4.642-3.423l1.148-1.188-1.585-.466c-.501-.147-1.777-.591-2.724-1.13 1.67-1.755 2.968-4.245 4.336-7.36.529-.978 1.413-1.453 2.702-1.453m0-1c-1.329 0-2.767.435-3.601 2.015C14.287 21.003 12.874 23.461 11 25c1.124 1.154 4 2 4 2s-2.461 2.547-6 4c1.312 1.347 5 2 5 2-1.786 1.745-3.419 2.188-6 3 1.037.881 2.741 3 13 3 4.409 0 1.676-16.415 1.676-16.415v-6.84s-1.458-.646-3.08-.646z" fill="#4e7ab5"></path><path d="M21.257 38.5c-3.1-4.39-3.757-8.125-3.757-10.5 0-5.458 3.687-10.706 4.467-11.754h1.47c-.198 1.567-.649 5.895.104 7.885l.982 2.031c1.81 3.099 3.258 7.368 3.922 11.523-.731.25-2.817.794-7.188.815z" fill="#8bb7f0"></path><path d="M22.871 16.745c-.22 1.922-.518 5.659.202 7.562l.016.042.02.04.965 1.99.017.035.02.033c1.701 2.911 3.087 6.928 3.77 10.887-.912.251-2.856.629-6.364.663C18.62 33.808 18 30.263 18 28c0-5.02 3.234-9.888 4.22-11.255h.651m1.138-1h-2.29S17 21.672 17 28c0 3.05 1.009 6.849 4 11 6.141 0 8-1 8-1-.594-4.004-1.992-8.575-4.026-12.057l-.965-1.99c-.875-2.308 0-8.208 0-8.208z" fill="#4e7ab5"></path><path d="M30.984 28.516c-.306 0-.441-.065-.465-.088-1.211-1.079-2.202-1.874-3.761-2.815a24.812 24.812 0 00-.676-.333c-.773-.374-2.069-.998-2.476-1.356C21.674 22.389 20.5 21.291 20.5 18v-.5H20c-3.635 0-4.998-1.553-5.993-2.687a9.406 9.406 0 00-.693-.736c.99-.257 2.714-.557 5.365-.557l.828-.006c.665-.006 1.572-.014 2.27-.014.385 0 .705.002.88.009 2.242.088 3.981 3.078 4.916 4.685.218.375.402.689.55.905 2.078 3.061 4.45 5.495 7.25 7.439.081.051.112.093.123.151a.366.366 0 01-.072.275c-.325.326-2.064.898-2.9 1.173-.327.107-.598.197-.761.259-.204.07-.516.119-.774.119h-.005z" fill="#c2e8ff"></path><path d="M21.775 14c.377 0 .69.002.862.009 1.967.078 3.617 2.912 4.503 4.435.218.375.407.699.567.933 2.045 3.012 4.369 5.427 7.097 7.373-.63.318-1.899.735-2.438.913a19.38 19.38 0 00-.748.255 2.156 2.156 0 01-.633.098c-.095 0-.157-.008-.192-.015-1.193-1.06-2.2-1.864-3.777-2.817l-.03-.018-.031-.016c-.161-.083-.392-.194-.659-.323-.651-.314-2.005-.967-2.359-1.279l-.019-.017-.02-.016C22.216 22.181 21 21.216 21 18v-1h-1c-3.409 0-4.633-1.395-5.618-2.516a9.56 9.56 0 00-.097-.11c.995-.187 2.431-.353 4.393-.353l.832-.006c.664-.007 1.569-.015 2.265-.015m0-1c-1.103 0-2.728.02-3.096.02C13.821 13.02 12 14 12 14c1.776 0 2.032 4 8 4 0 3.591 1.413 4.82 3.278 6.299.594.522 2.544 1.393 3.222 1.741 1.441.87 2.39 1.605 3.661 2.736.169.173.485.239.823.239h.004c.339 0 .7-.065.954-.152.678-.261 3.291-.995 3.885-1.605.254-.348.254-.87-.17-1.132-2.883-2.002-5.172-4.439-7.122-7.312-.831-1.209-2.821-5.686-5.858-5.806-.18-.005-.508-.008-.902-.008z" fill="#7496c4"></path><g><path d="M26.424 20.323c-1.626-.582-2.384-1.89-2.711-2.708 1.072.32 2.386 1.282 2.711 2.708z" fill="#4b6477"></path><path d="M23 17s.604 3.316 4 4c0-2.536-2.557-4-4-4z" fill="#36404d"></path></g><path d="M12 14c6.287 0 9 3 9 3v1l-5-1s-1.294-3-4-3z" fill="#7496c4"></path></svg>