<svg viewBox="0 0 40 40" xmlns="http://www.w3.org/2000/svg"><path fill="none" stroke="#546e7a" stroke-width="2" d="M2.719 37.281L37.281 2.719"></path><path fill="#99c99e" d="M37.293 10L35 12.293 27.707 5 30 2.707z"></path><path d="M30 3.414L36.586 10 35 11.586 28.414 5 30 3.414M30 2l-3 3 8 8 3-3-8-8z" fill="#5e9c76"></path><path fill="#ffeea3" d="M38.294 15L34 19.293 20.708 6l4.293-4.293z"></path><path d="M25 2.414L37.586 15 34 18.586 21.414 6 25 2.414M25 1l-5 5 14 14 5-5L25 1z" fill="#ba9b48"></path><path fill="#8bb7f0" d="M22.5 3.5l14 14L34 20 20 6z"></path><path fill="#4e7ab5" d="M34 18.586L21.414 6 22.5 4.914l.707-.707L22.5 3.5 20 6l14 14 2.5-2.5-.707-.707z"></path><path fill="#99c99e" d="M12.293 35L10 37.295 2.707 30 5 27.707z"></path><path d="M5 28.414L11.586 35 10 36.586 3.414 30 5 28.414M5 27l-3 3 8 8 3-3-8-8z" fill="#5e9c76"></path><g><path fill="#ffeea3" d="M19.294 34L15 38.293 1.708 25l4.293-4.293z"></path><path d="M6 21.414L18.586 34 15 37.586 2.414 25 6 21.414M6 20l-5 5 14 14 5-5L6 20z" fill="#ba9b48"></path></g><path fill="#8bb7f0" d="M6 20l14 14-2.5 2.5-14-14z"></path><path fill="#4e7ab5" d="M18.586 34L6 21.414 4.914 22.5l-.707.707L3.5 22.5 6 20l14 14-2.5 2.5-.707-.707z"></path></svg>