<svg viewBox="0 0 40 40" xmlns="http://www.w3.org/2000/svg"><path fill="#f2faff" d="M14.5 13.5h11v19h-11z"></path><path d="M25 14v18H15V14h10m1-1H14v20h12V13z" fill="#b0c1d4"></path><path fill="#8bb7f0" d="M26 31v-4l-6 4z"></path><path fill="#f78f8f" d="M14 14v4.034L20.06 14z"></path><path fill="#8bb7f0" d="M26 13l-12 8v4.034l12-8z"></path><path d="M20 10.5c-2.481 0-4.5-2.019-4.5-4.5s2.019-4.5 4.5-4.5 4.5 2.019 4.5 4.5-2.019 4.5-4.5 4.5z" fill="#ffeea3"></path><path d="M20 2c2.206 0 4 1.794 4 4s-1.794 4-4 4-4-1.794-4-4 1.794-4 4-4m0-1a5 5 0 10.001 10.001A5 5 0 0020 1z" fill="#f5c276"></path><circle cx="20" cy="8" r="2" fill="#fff"></circle><path d="M17 37.5c-1.93 0-3.5-1.57-3.5-3.5v-1.1h13V34c0 1.93-1.57 3.5-3.5 3.5h-6z" fill="#839cb2"></path><path d="M26 33.4v.6c0 1.654-1.346 3-3 3h-6c-1.654 0-3-1.346-3-3v-.6h12m1-1H13V34a4 4 0 004 4h6a4 4 0 004-4v-1.6z" fill="#66798f"></path><circle cx="20" cy="39" r=".5" fill="#839cb2"></circle><path d="M20 38a1 1 0 100 2 1 1 0 000-2z" fill="#66798f"></path><path fill="#4e7ab5" d="M15 20.333L14 21v4.034l1-.666z"></path><path fill="#c74343" d="M15 14h-1v4.034l1-.665z"></path><path fill="#4e7ab5" d="M25 13.667v4.034l1-.667V13z"></path><path fill="#f78f8f" d="M26 20.034l-12 8v4.035l12-8z"></path><path fill="#c74343" d="M15 27.368l-1 .666v4.035l1-.667zM25 20.701v4.035l1-.667v-4.035z"></path><path fill="#4e7ab5" d="M25 27.667V31h1v-4z"></path><g><path d="M12.5 13.5V13c0-.827.673-1.5 1.5-1.5h12c.827 0 1.5.673 1.5 1.5v.5h-15z" fill="#839cb2"></path><path d="M26 12c.551 0 1 .449 1 1H13c0-.551.449-1 1-1h12m0-1H14a2 2 0 00-2 2v1h16v-1a2 2 0 00-2-2z" fill="#66798f"></path></g><g><path d="M14 33.5c-.827 0-1.5-.673-1.5-1.5v-.5h15v.5c0 .827-.673 1.5-1.5 1.5H14z" fill="#839cb2"></path><path d="M27 32c0 .551-.449 1-1 1H14c-.551 0-1-.449-1-1h14m1-1H12v1a2 2 0 002 2h12a2 2 0 002-2v-1z" fill="#66798f"></path></g></svg>