<svg viewBox="0 0 40 40" xmlns="http://www.w3.org/2000/svg"><path d="M18.606 19.5c-.607 0-1.061-.374-1.348-1.111-.207-.532-.718-.801-1.517-.801-.935 0-2.271.353-3.817.761-1.775.469-3.756.992-5.601 1.121l.021-.042c2.834-.729 5.397-1.751 7.666-2.657 1.891-.755 3.523-1.407 4.724-1.632l19.312-3.46c-2.322 2.528-12.453 5.987-18.969 7.744-.045.014-.224.077-.471.077z" fill="#dcd5f2"></path><path d="M36.161 12.525c-3.329 2.016-10.547 4.617-17.215 6.415l-.049.015-.026.008c-.001 0-.114.037-.266.037-.157 0-.573 0-.881-.793-.199-.51-.705-1.118-1.982-1.119-.502 0-1.097.091-1.766.235l.218-.087c1.867-.745 3.48-1.389 4.624-1.604l17.343-3.107M39 11l-20.357 3.648C15.926 15.157 11.346 17.662 6 19l-.499 1c3.712 0 8.2-1.912 10.241-1.912.545 0 .916.136 1.051.482.466 1.197 1.263 1.43 1.813 1.43.351 0 .601-.095.601-.095S38.178 14.79 39 11z" fill="#8b75a1"></path><path d="M5.501 12A3.504 3.504 0 019 15.5C9 17.43 7.43 19 5.501 19A3.504 3.504 0 012 15.5C2 13.57 3.57 12 5.501 12m0-1A4.506 4.506 0 001 15.5C1 17.981 3.019 20 5.501 20A4.505 4.505 0 0010 15.5c0-2.481-2.018-4.5-4.499-4.5zM15.501 27A3.504 3.504 0 0119 30.5c0 1.93-1.57 3.5-3.499 3.5A3.504 3.504 0 0112 30.5c0-1.93 1.57-3.5 3.501-3.5m0-1A4.506 4.506 0 0011 30.5c0 2.481 2.019 4.5 4.501 4.5A4.505 4.505 0 0020 30.5c0-2.481-2.018-4.5-4.499-4.5z" fill="#8b75a1"></path><path d="M11.65 29.361c.497-2.012 2.127-4.318 3.48-6.232 1.634-2.31 2.713-3.836 1.904-4.719-1.055-1.149-.252-1.956-.157-2.044 2.879-3.779 10.346-12.872 14.07-14.585L20.474 19.249c-.488.645-1.546 1.658-2.77 2.831-2.385 2.284-5.305 5.083-6.054 7.281z" fill="#dcd5f2"></path><path d="M29.432 3.339l-9.358 15.606c-.506.658-1.58 1.686-2.715 2.774-.651.623-1.321 1.266-1.973 1.916l.153-.217c1.773-2.508 2.945-4.165 1.864-5.345-.599-.653-.423-1.096-.185-1.339l.064-.059.052-.069c3.494-4.601 8.708-10.626 12.098-13.267M32 1c-4.071 0-15.462 15-15.462 15s-1.292 1.199.128 2.748C17.852 20.043 11 26.13 11 30.5l1-.5c.529-3.124 7.244-8.289 8.903-10.494L32 1z" fill="#8b75a1"></path><circle cx="19.5" cy="16.5" r=".5" fill="#8b75a1"></circle><path d="M13.289 38.494a3.373 3.373 0 01-.753-2.131c0-.925.371-1.764.971-2.376" fill="none" stroke="#8b75a1" stroke-linecap="round" stroke-miterlimit="10"></path></svg>