<svg viewBox="0 0 40 40" xmlns="http://www.w3.org/2000/svg"><path d="M2 38.5a.5.5 0 01-.5-.5V14a.5.5 0 01.5-.5h36a.5.5 0 01.5.5v24a.5.5 0 01-.5.5H2z" fill="#f78f8f"></path><path d="M38 14v24H2V14h36m0-1H2a1 1 0 00-1 1v24a1 1 0 001 1h36a1 1 0 001-1V14a1 1 0 00-1-1z" fill="#c74343"></path><path d="M37 15v22H3V15h34m1-1H2v24h36V14z" fill="#ffc2c2"></path><path fill="#66798f" d="M34 2h1v11h-1zM31 2h1v11h-1zM9 2h1v11H9zM27 2h2v11h-2zM5 2h2v11H5zM22 2h3v11h-3zM12 2h8v11h-8z"></path><path fill="#36404d" d="M34 15h1v17h-1zM31 15h1v17h-1zM9 15h1v17H9zM27 15h2v17h-2zM5 15h2v17H5zM22 15h3v17h-3z"></path><g><path fill="#36404d" d="M12 15h8v17h-8z"></path></g></svg>