<svg viewBox="0 0 40 40" xmlns="http://www.w3.org/2000/svg"><path d="M5.5 38.5c2.237 0 31.034-12.053 20.57-34.969" fill="none" stroke="#7a4f34" stroke-linecap="round" stroke-miterlimit="10"></path><path d="M27.348 9.421c-1.105 0-2.056-.865-2.482-2.257-.44-1.785.241-4.256.609-5.381 1.015.727 3.194 2.41 3.813 3.881.334.795.332 1.68-.008 2.428-.273.6-.736 1.045-1.271 1.222a2.112 2.112 0 01-.661.107z" fill="#f5ce85"></path><path d="M25.746 2.602c1.141.871 2.626 2.178 3.081 3.257.281.667.28 1.405-.003 2.026-.215.473-.57.821-.972.954a1.617 1.617 0 01-.504.082c-.87 0-1.633-.718-1.996-1.876-.315-1.321.033-3.152.394-4.443M25.22 1s-1.469 3.728-.832 6.311c.539 1.76 1.754 2.61 2.96 2.61.275 0 .551-.044.817-.132 1.464-.483 2.366-2.458 1.584-4.318C28.866 3.375 25.22 1 25.22 1z" fill="#967a44"></path><path d="M31.399 13.564c-.334 0-.642-.072-.912-.213a2.105 2.105 0 01-1.044-1.271c-.221-.732-.079-1.613.399-2.481.975-1.559 3.223-2.791 4.287-3.31.185 1.234.494 3.97-.131 5.439-.541 1.268-1.695 1.836-2.599 1.836z" fill="#f5ce85"></path><path d="M33.729 7.054c.169 1.426.265 3.404-.192 4.479-.45 1.058-1.398 1.532-2.137 1.532-.253 0-.482-.053-.681-.157a1.587 1.587 0 01-.797-.972c-.18-.596-.057-1.33.345-2.072.727-1.146 2.283-2.171 3.462-2.81m.784-1.494s-3.699 1.541-5.109 3.797c-1.091 1.981-.487 3.737.851 4.437.348.182.74.271 1.145.271 1.182 0 2.469-.757 3.057-2.14.89-2.094.056-6.365.056-6.365z" fill="#967a44"></path><path d="M25.874 14.489a3.05 3.05 0 01-2.043-.807c-1.183-1.072-2.05-3.686-2.399-4.884 1.147.025 3.736.2 5.301 1.225.775.572 1.273 1.312 1.38 2.07a2.1 2.1 0 01-.415 1.591c-.389.504-1.071.805-1.824.805z" fill="#f5ce85"></path><path d="M22.114 9.327c1.238.076 3.116.323 4.321 1.099.676.504 1.095 1.12 1.182 1.736.063.446-.047.866-.316 1.217-.294.382-.828.611-1.427.611a2.552 2.552 0 01-1.708-.678c-.865-.784-1.607-2.619-2.052-3.985m-1.011-1.033c-.208 0-.327.004-.327.004s1.033 4.227 2.719 5.754c.71.643 1.57.936 2.379.936.895 0 1.726-.359 2.22-1 .921-1.196.734-3.044-1.087-4.385-1.843-1.205-4.905-1.309-5.904-1.309z" fill="#967a44"></path><path d="M30.455 21.129c-.703 0-1.329-.26-1.717-.714a2.102 2.102 0 01-.497-1.567c.067-.762.526-1.527 1.293-2.156 1.488-1.086 4.03-1.394 5.209-1.479-.287 1.214-1.017 3.87-2.144 5.001-.588.59-1.349.915-2.144.915z" fill="#f5ce85"></path><path d="M34.089 15.775c-.372 1.386-1.018 3.256-1.844 4.086-.493.495-1.129.768-1.79.768-.556 0-1.044-.197-1.337-.539a1.585 1.585 0 01-.379-1.199c.055-.62.442-1.256 1.09-1.795 1.102-.792 2.928-1.166 4.26-1.321m1.282-1.095s-4.007.056-6.155 1.625c-1.749 1.433-1.841 3.288-.859 4.435.493.576 1.267.889 2.097.889.858 0 1.775-.335 2.499-1.063 1.605-1.611 2.418-5.886 2.418-5.886z" fill="#967a44"></path><path d="M25.12 20.266c-.795 0-1.557-.325-2.145-.915-1.126-1.132-1.856-3.786-2.144-5.001 1.182.087 3.73.399 5.231 1.496.745.611 1.204 1.376 1.271 2.138a2.104 2.104 0 01-.497 1.568c-.387.454-1.013.714-1.716.714z" fill="#f5ce85"></path><path d="M21.486 14.91c1.329.154 3.153.527 4.259 1.323.649.539 1.036 1.175 1.09 1.795.04.448-.091.863-.379 1.199-.293.343-.781.539-1.337.539-.661 0-1.297-.273-1.79-.768-.823-.828-1.47-2.7-1.843-4.088m-1.283-1.093s.813 4.275 2.418 5.887a3.537 3.537 0 002.499 1.063c.829 0 1.604-.313 2.097-.889.982-1.147.89-3.002-.859-4.435-2.148-1.571-6.155-1.626-6.155-1.626z" fill="#967a44"></path><path d="M27.373 27.728c-.987 0-1.857-.48-2.216-1.223a2.106 2.106 0 01-.082-1.643c.259-.719.898-1.343 1.799-1.755.648-.253 1.516-.387 2.552-.387 1.13 0 2.212.162 2.862.283-.586 1.102-1.969 3.483-3.346 4.291a3.109 3.109 0 01-1.569.434z" fill="#f5ce85"></path><path d="M29.426 23.22c.758 0 1.495.076 2.085.161-.714 1.246-1.815 2.891-2.822 3.481a2.605 2.605 0 01-1.316.365c-.785 0-1.494-.378-1.766-.94a1.585 1.585 0 01-.061-1.256c.211-.585.747-1.102 1.511-1.458.612-.234 1.409-.353 2.369-.353m0-1c-.946 0-1.932.108-2.76.433-2.056.941-2.617 2.711-1.96 4.07.443.916 1.499 1.504 2.667 1.504a3.6 3.6 0 001.822-.502c1.962-1.15 3.837-5.077 3.837-5.077s-1.724-.428-3.606-.428z" fill="#967a44"></path><g><path d="M22.478 25.751c-.989 0-1.945-.566-2.495-1.476-.826-1.367-.904-4.119-.895-5.367 1.127.366 3.528 1.274 4.726 2.696.578.771.842 1.623.727 2.379a2.106 2.106 0 01-.855 1.406c-.331.237-.749.362-1.208.362z" fill="#f5ce85"></path><path d="M19.591 19.61c1.256.467 2.941 1.264 3.823 2.296.502.677.727 1.387.633 2.003a1.59 1.59 0 01-.653 1.075c-.245.176-.562.269-.916.269-.639 0-1.517-.324-2.067-1.234-.604-1.002-.787-2.973-.82-4.409m-.986-1.369s-.226 4.346.95 6.293c.689 1.141 1.852 1.718 2.923 1.718.55 0 1.075-.152 1.5-.457 1.226-.881 1.578-2.705.22-4.512-1.714-2.036-5.593-3.042-5.593-3.042z" fill="#967a44"></path></g><g><path d="M23.497 33.437c-1.326 0-2.494-.863-2.657-1.965a2.104 2.104 0 01.413-1.593c.462-.609 1.257-1.013 2.241-1.138.075-.004.18-.008.285-.008 1.798 0 3.925 1.001 4.914 1.524-.889.876-2.918 2.737-4.474 3.096a3.24 3.24 0 01-.722.084z" fill="#f5ce85"></path><path d="M23.778 29.233c1.384 0 2.999.644 4.059 1.153-1.053.976-2.595 2.218-3.733 2.481-.202.047-.406.07-.608.07-1.195 0-2.053-.799-2.163-1.539a1.589 1.589 0 01.316-1.217c.376-.496 1.042-.829 1.878-.941.083-.005.167-.007.251-.007m-.001-1c-.117 0-.233.004-.347.012-2.243.284-3.307 1.806-3.085 3.3.194 1.306 1.536 2.392 3.152 2.392.271 0 .55-.031.833-.096 2.216-.512 5.177-3.701 5.177-3.701s-3.135-1.908-5.73-1.907z" fill="#967a44"></path></g><g><path d="M18.5 30.276c-.901 0-2.103-.605-2.611-1.933-.571-1.493-.161-4.214.07-5.44 1.044.559 3.248 1.878 4.174 3.49.433.861.542 1.747.294 2.47a2.107 2.107 0 01-1.091 1.231 1.914 1.914 0 01-.836.182z" fill="#f5ce85"></path><path d="M16.33 23.681c1.152.681 2.668 1.762 3.356 2.938.374.755.47 1.494.268 2.083a1.589 1.589 0 01-.833.942 1.432 1.432 0 01-.622.133c-.736 0-1.72-.504-2.143-1.611-.417-1.092-.248-3.066-.026-4.485m-.729-1.52s-.991 4.237-.179 6.361c.552 1.445 1.867 2.254 3.078 2.254a2.43 2.43 0 001.052-.23c1.363-.65 2.031-2.382 1.015-4.402-1.326-2.306-4.966-3.983-4.966-3.983z" fill="#967a44"></path></g><g><path d="M13.824 33.944c-.901 0-2.103-.605-2.611-1.933-.57-1.491-.16-4.213.071-5.44 1.044.559 3.247 1.878 4.173 3.49.433.861.542 1.748.294 2.471a2.108 2.108 0 01-1.09 1.231c-.252.12-.534.181-.837.181z" fill="#f5ce85"></path><path d="M11.654 27.351c1.154.682 2.671 1.765 3.356 2.936.374.756.47 1.494.268 2.083a1.589 1.589 0 01-.833.942 1.432 1.432 0 01-.622.132c-.736 0-1.72-.504-2.143-1.611-.416-1.091-.247-3.063-.026-4.482m-.728-1.522s-.991 4.237-.179 6.361c.552 1.445 1.867 2.254 3.078 2.254a2.43 2.43 0 001.052-.23c1.363-.65 2.032-2.382 1.015-4.402-1.327-2.306-4.966-3.983-4.966-3.983z" fill="#967a44"></path></g><g><path d="M19.447 38.5c-.763 0-1.381-.083-1.838-.248-.812-.292-1.461-.893-1.781-1.649-.257-.607-.271-1.249-.039-1.762.358-.791 1.137-1.263 2.083-1.263.518 0 1.065.136 1.626.405 1.614.886 2.971 3.058 3.549 4.09-.806.168-2.263.427-3.6.427z" fill="#f5ce85"></path><path d="M17.872 34.077c.435 0 .901.116 1.385.344 1.185.661 2.297 2.155 3.002 3.295-.79.141-1.835.284-2.812.284-.695 0-1.272-.075-1.669-.218-.681-.245-1.224-.745-1.49-1.374-.203-.479-.219-.975-.044-1.361.279-.616.872-.97 1.628-.97m-.001-1c-1.189 0-2.116.624-2.538 1.557-.635 1.404.208 3.406 2.106 4.088.564.203 1.271.278 2.008.278 2.061 0 4.349-.584 4.349-.584s-1.75-3.605-4.082-4.884c-.656-.314-1.279-.455-1.843-.455z" fill="#967a44"></path></g></svg>