<svg viewBox="0 0 40 40" xmlns="http://www.w3.org/2000/svg"><path fill="#f78f8f" d="M1.5 34.5V19.041l9-3.97v-4.743L20 5.789l9.5 4.539v4.744l9 3.969V34.5z"></path><path d="M20 6.343l9 4.301V15.398l.597.263L38 19.366V34H2V19.366l8.403-3.706.597-.263V10.643l9-4.3m0-1.109l-10 4.778v4.733l-9 3.969V35h38V18.714l-9-3.969v-4.733L20 5.234z" fill="#c74343"></path><path fill="#ffc49c" d="M27.5 34.5v-11h.562l3.438-.859V34.5z"></path><path d="M31 23.281V34h-3V24h.123l.119-.03L31 23.281M32 22l-4 1h-1v12h5V22z" fill="#a16a4a"></path><path fill="#ffc49c" d="M8.5 34.5V22.641l3.438.859h.562v11z"></path><path d="M9 23.281l2.757.689.119.03H12v10H9V23.281M8 22v13h5V23h-1l-4-1z" fill="#a16a4a"></path><path fill="#735f63" d="M17.833 10.835h4.333v3.889h-4.333z"></path><path d="M21.667 11.335v2.889h-3.333v-2.889h3.333m1-1h-5.333v4.889h5.333v-4.889z" fill="#4d3e40"></path><g><path fill="#735f63" d="M12.5 23.5h15v11h-15z"></path><path d="M27 24v10H13V24h14m1-1H12v12h16V23z" fill="#4d3e40"></path></g><path fill="#4d3e40" d="M11 15.713L0 20.575v-1.502l11-4.854zM29 15.713l11 4.862v-1.502l-11-4.854zM31 10.252L20 4.996 9 10.252v1.525L20 6.52l11 5.257z"></path></svg>