<svg viewBox="0 0 40 40" xmlns="http://www.w3.org/2000/svg"><path d="M20 38.5C9.799 38.5 1.5 30.201 1.5 20S9.799 1.5 20 1.5 38.5 9.799 38.5 20 30.201 38.5 20 38.5z" fill="#e0ac89"></path><path d="M20 2c9.925 0 18 8.075 18 18s-8.075 18-18 18S2 29.925 2 20 10.075 2 20 2m0-1C9.507 1 1 9.507 1 20s8.507 19 19 19 19-8.507 19-19S30.493 1 20 1z" fill="#a16a4a"></path><circle cx="20" cy="20" r="15" fill="#fff"></circle><path d="M20 25.5c-3.033 0-5.5-2.467-5.5-5.5s2.467-5.5 5.5-5.5 5.5 2.467 5.5 5.5-2.467 5.5-5.5 5.5z" fill="#e0ac89"></path><path d="M20 15c2.757 0 5 2.243 5 5s-2.243 5-5 5-5-2.243-5-5 2.243-5 5-5m0-1a6 6 0 100 12 6 6 0 000-12z" fill="#a16a4a"></path><circle cx="20" cy="7" r="1" fill="#c5d4de"></circle><circle cx="11" cy="11" r="1" fill="#c5d4de"></circle><circle cx="33" cy="20" r="1" fill="#c5d4de"></circle><circle cx="7" cy="20" r="1" fill="#c5d4de"></circle><circle cx="20" cy="20" r="2" fill="#36404d"></circle><path fill="none" stroke="#36404d" stroke-linecap="round" stroke-miterlimit="10" d="M28.5 11.5l-16 16"></path><g><path fill="#495766" d="M11.5 28.5v-2.162l3.603-1.441-1.441 3.603z"></path><path d="M14.205 25.795L13.323 28H12v-1.323l2.205-.882M16 24l-5 2v3h3l2-5z" fill="#36404d"></path></g></svg>