<svg viewBox="0 0 40 40" xmlns="http://www.w3.org/2000/svg"><path d="M5 15.5A2.503 2.503 0 012.5 13c0-1.055.676-1.999 1.683-2.35l.359-.125-.026-.398-.011-.093A2.504 2.504 0 017 7.5c.15 0 .295.02.438.045l.35.063.174-.31A3.5 3.5 0 0111 5.5c1.25 0 2.378.657 3.016 1.756l.149.257.308-.008a2.979 2.979 0 012.997 2.715l.03.321.305.105A2.496 2.496 0 0119.5 13c0 1.378-1.122 2.5-2.5 2.5H5z" fill="#c2e8ff"></path><path d="M11 6c1.07 0 2.036.563 2.583 1.507l.294.506.585-.008A.81.81 0 0014.548 8a2.48 2.48 0 012.423 2.267l.06.643.611.209A1.995 1.995 0 0119 13c0 1.103-.897 2-2 2H5c-1.103 0-2-.897-2-2 0-.842.541-1.597 1.347-1.878l.714-.249-.045-.755A2.125 2.125 0 005 9.967 2.003 2.003 0 017 8c.096 0 .205.012.351.038l.699.124.348-.619A2.999 2.999 0 0111 6m0-1c-1.498 0-2.789.834-3.474 2.053A3.035 3.035 0 007 7a3 3 0 00-3 3c0 .061.014.118.018.178A2.99 2.99 0 002 13a3 3 0 003 3h12a3 3 0 003-3 2.99 2.99 0 00-2.033-2.826C17.8 8.396 16.321 7 14.5 7c-.018 0-.034.005-.052.005C13.756 5.812 12.479 5 11 5z" fill="#7496c4"></path><path fill="#ffeea3" d="M28.124 14.665l-3.487.698.698-3.487L22.833 10l2.502-1.876-.698-3.487 3.487.698L30 2.833l1.876 2.502 3.487-.698-.698 3.487L37.167 10l-2.502 1.876.698 3.487-3.487-.698L30 17.167z"></path><path d="M30 3.667l1.287 1.716.378.504.618-.124 2.442-.488-.488 2.442-.124.618.504.378L36.333 10l-1.716 1.287-.504.378.124.618.488 2.442-2.442-.488-.618-.124-.378.504L30 16.333l-1.287-1.716-.378-.504-.618.124-2.442.488.488-2.442.124-.618-.504-.378L23.667 10l1.716-1.287.504-.378-.124-.618-.488-2.442 2.442.488.618.124.378-.504L30 3.667M30 2l-2.087 2.783L24 4l.783 3.913L22 10l2.783 2.087L24 16l3.913-.783L30 18l2.087-2.783L36 16l-.783-3.913L38 10l-2.783-2.087L36 4l-3.913.783L30 2z" fill="#ba9b48"></path><circle cx="30" cy="10" r="3" fill="#f5ce85"></circle><g><path fill="#ffc49c" d="M16.819 30.85l10.259-11.114-3.42 14.534z"></path><path d="M26.156 21.472l-2.84 12.068-5.679-2.839 8.519-9.229M28 18L16 31l8 4 4-17z" fill="#a16a4a"></path></g><g><circle cx="20" cy="33" r="4.5" fill="#ffc49c"></circle><path d="M20 29c2.206 0 4 1.794 4 4s-1.794 4-4 4-4-1.794-4-4 1.794-4 4-4m0-1a5 5 0 10.001 10.001A5 5 0 0020 28z" fill="#a16a4a"></path></g></svg>