<svg viewBox="0 0 40 40" xmlns="http://www.w3.org/2000/svg"><path fill="#b08159" d="M2.5 19.5h35v18h-35z"></path><path d="M37 20v17H3V20h34m1-1H2v19h36V19z" fill="#704e34"></path><path fill="#735f63" d="M2.5 37.5v-17h4v4h4v4h4v4h4v5z"></path><path d="M6 21v4h4v4h4v4h4v4H3V21h3m1-1H2v18h17v-6h-4v-4h-4v-4H7v-4z" fill="#4d3e40"></path><path fill="#dbf2ff" d="M2.5 2.5h35v18h-35z"></path><path d="M37 3v17H3V3h34m1-1H2v19h36V2z" fill="#7496c4"></path><path fill="#b5ddf5" d="M3 16h34v4H3z"></path><path fill="#dbf2ff" d="M3 2h34v2H3z"></path><g><path fill="#ffc49c" d="M15.5 6.5h9v14h-9z"></path><path d="M24 7v13h-8V7h8m1-1H15v15h10V6z" fill="#a16a4a"></path></g><circle cx="22" cy="13.5" r=".5" fill="#a16a4a"></circle></svg>