<svg viewBox="0 0 40 40" xmlns="http://www.w3.org/2000/svg"><path d="M3.454 35.321l6.433-6.432c.76-.759 1.182-1.354 1.67-2.043.177-.25.367-.518.59-.818l2.891-3.887 2.831-3.781 4.026 3.585-4.037 3.017-3.887 2.89a31.19 31.19 0 01-.886.635c-.671.47-1.25.875-1.987 1.614l-6.432 6.432-1.212-1.212z" fill="#e0ac89"></path><path d="M17.942 19.096l3.163 2.816-3.545 2.648-3.888 2.891c-.321.239-.606.438-.872.624-.691.484-1.288.901-2.055 1.671l-6.079 6.079-.505-.505 6.078-6.078c.791-.789 1.224-1.4 1.725-2.108.175-.247.363-.512.583-.809l2.889-3.884 2.506-3.345m-.148-1.471l-3.157 4.218-2.891 3.887c-.842 1.133-1.215 1.81-2.213 2.806l-6.786 6.786 1.919 1.919 6.786-6.786c.997-1 1.684-1.357 2.817-2.201l3.888-2.891 4.528-3.383-4.891-4.355z" fill="#a16a4a"></path><path d="M15.295 21.793l3.658-4.917a45.742 45.742 0 014.368-5.06L33.454 1.682c.121-.121.31-.182.56-.182.811 0 1.952.618 2.909 1.574 1.392 1.392 1.882 2.98 1.392 3.471L28.182 16.678a46.23 46.23 0 01-5.058 4.37l-4.919 3.656-2.91-2.911z" fill="#f78f8f"></path><path d="M34.013 2c.543 0 1.574.447 2.556 1.428.627.627 1.108 1.35 1.32 1.985.173.52.094.756.072.778L27.828 16.324a45.802 45.802 0 01-5.002 4.322l-4.573 3.399-2.299-2.299 3.401-4.571a45.186 45.186 0 014.32-5.004L33.806 2.036c.006-.006.066-.036.207-.036m0-1c-.374 0-.69.106-.913.328L22.968 11.463a46.057 46.057 0 00-4.416 5.115l-3.916 5.264 3.521 3.521 5.266-3.914a46.663 46.663 0 005.113-4.418L38.668 6.899c.77-.77.146-2.641-1.392-4.178C36.185 1.63 34.927 1 34.013 1z" fill="#c74343"></path><path d="M17 8.5c-1.93 0-3.5-1.57-3.5-3.5s1.57-3.5 3.5-3.5 3.5 1.57 3.5 3.5-1.571 3.5-3.5 3.5z" fill="#e1ebf2"></path><path d="M17 2c1.654 0 3 1.346 3 3s-1.346 3-3 3-3-1.346-3-3 1.346-3 3-3m0-1a4 4 0 100 8 4 4 0 000-8z" fill="#a3b7cc"></path><g><path fill="#e0ac89" d="M3.707 36.28l6.786-6.785"></path></g><path fill="none" stroke="#ffd4d4" stroke-miterlimit="10" d="M34 4L23 15"></path><g><path d="M1.707 35.397l.635-.634a.895.895 0 011.269-.001l1.627 1.627a.893.893 0 010 1.269l-.635.634-2.896-2.895z" fill="#e0ac89"></path><path d="M2.976 35c.062 0 .18.015.281.116l1.626 1.627a.396.396 0 01.001.562l-.281.281-2.189-2.189.281-.281A.396.396 0 012.976 35m0-1c-.358 0-.715.136-.988.409L1 35.397 4.603 39l.988-.988a1.397 1.397 0 000-1.976L3.965 34.41a1.392 1.392 0 00-.989-.41z" fill="#a16a4a"></path></g></svg>