<svg viewBox="0 0 40 40" xmlns="http://www.w3.org/2000/svg"><path fill="#f5ce85" d="M12.5 11.5h15v16h-15z"></path><path d="M27 12v15H13V12h14m1-1H12v17h16V11z" fill="#967a44"></path><path fill="#f5ce85" d="M7.5 38.5V23.369L20 19.523l12.5 3.846V38.5z"></path><path d="M20 20.046l12 3.692V38H8V23.739l12-3.693M20 19L7 23v16h26V23l-13-4z" fill="#967a44"></path><path fill="#cca660" d="M29.5 25L20 22.15 10.5 25z"></path><path d="M13 39h14v-5a7 7 0 10-14 0v5zM23 17h-6v-1a3 3 0 116 0v1zM28 17h-3v-1a3 3 0 013-3v4zM12 17h3v-1a3 3 0 00-3-3v4z" fill="#967a44"></path><path d="M12.5 11.5V9.889c0-2.878 5.182-6.809 7.5-8.297 2.318 1.489 7.5 5.421 7.5 8.297V11.5h-15z" fill="#bae0bd"></path><path d="M20 2.187c2.908 1.908 7 5.394 7 7.702V11H13V9.889c0-2.308 4.092-5.794 7-7.702M20 1s-8 4.962-8 8.889V12h16V9.889C28 5.962 20 1 20 1z" fill="#5e9c76"></path><path d="M23 11h-6c0-6.142 3.001-8.806 3.001-8.806S23 4.817 23 11z" fill="#94cf9a"></path><path fill="#f5ce85" d="M32.5 15.5h6v23h-6z"></path><path d="M38 16v22h-5V16h5m1-1h-7v24h7V15z" fill="#967a44"></path><path d="M32.5 15.5V15c0-2.306 2.25-3.937 3-4.416.75.479 3 2.109 3 4.416v.5h-6z" fill="#bae0bd"></path><path d="M35.5 11.185c.843.589 2.5 1.979 2.5 3.815h-5c0-1.836 1.657-3.226 2.5-3.815m0-1.185S32 11.907 32 15v1h7v-1c0-3.093-3.5-5-3.5-5z" fill="#5e9c76"></path><path d="M37 21h2v-3a1 1 0 00-2 0v3zM34 21h2v-3a1 1 0 00-2 0v3z" fill="#967a44"></path><g><path fill="#f5ce85" d="M1.5 15.5h6v23h-6z"></path><path d="M7 16v22H2V16h5m1-1H1v24h7V15z" fill="#967a44"></path></g><g><path d="M1.5 15.5V15c0-2.306 2.25-3.937 3-4.416.75.479 3 2.109 3 4.416v.5h-6z" fill="#bae0bd"></path><path d="M4.5 11.185C5.343 11.774 7 13.164 7 15H2c0-1.836 1.657-3.226 2.5-3.815M4.5 10S1 11.907 1 15v1h7v-1c0-3.093-3.5-5-3.5-5z" fill="#5e9c76"></path></g><path d="M3 21H1v-3a1 1 0 012 0v3zM6 21H4v-3a1 1 0 012 0v3z" fill="#967a44"></path></svg>