<svg viewBox="0 0 40 40" xmlns="http://www.w3.org/2000/svg"><path d="M19.519 37.5c-9.925 0-18-8.075-18-18s8.075-18 18-18 18 8.075 18 18-8.075 18-18 18z" fill="#f78f8f"></path><path d="M19.519 2c9.65 0 17.5 7.85 17.5 17.5S29.168 37 19.519 37s-17.5-7.85-17.5-17.5S9.869 2 19.519 2m0-1c-10.218 0-18.5 8.282-18.5 18.5S9.301 38 19.519 38s18.5-8.282 18.5-18.5S29.736 1 19.519 1z" fill="#c74343"></path><g fill="#c74343"><path d="M34.148 30.796c-3.685-2.413-6.129-6.571-6.129-11.296 0-4.724 2.444-8.883 6.129-11.296a18.588 18.588 0 00-.639-.787c-3.91 2.597-6.49 7.036-6.49 12.083s2.58 9.486 6.49 12.083c.221-.256.432-.52.639-.787zM5.529 7.417c-.221.256-.432.519-.639.787 3.685 2.413 6.129 6.571 6.129 11.296 0 4.724-2.444 8.883-6.129 11.296.207.268.418.531.639.787 3.91-2.597 6.49-7.036 6.49-12.083s-2.58-9.486-6.49-12.083z"></path></g><path d="M19.515 1c-.174 0-.343.025-.515.033v36.898c.161.031.323.065.487.067l.018.001c.167-.001.331-.037.495-.068v-36.9c-.163-.007-.322-.031-.485-.031z" fill="#c74343"></path><g><path d="M37.931 20h-36.9c-.007-.162-.031-.321-.031-.485 0-.174.025-.343.033-.515h36.898c.031.161.065.323.067.487l.001.018c0 .167-.036.331-.068.495z" fill="#f78f8f"></path><path d="M37.931 19H1.033c-.008.172-.033.341-.033.515 0 .164.024.323.031.485h36.9c.032-.164.068-.328.068-.495l-.001-.018c-.002-.164-.036-.326-.067-.487z" fill="#c74343"></path></g></svg>