<svg viewBox="0 0 40 40" xmlns="http://www.w3.org/2000/svg"><path fill="#ffc49c" d="M.5 6.5h38v27H.5z"></path><path d="M38 7v26H1V7h37m1-1H0v28h39V6z" fill="#b08159"></path><path fill="#ffc49c" d="M0 7h2v26H0z"></path><path d="M0 9v8h4c1.65 0 3 1.35 3 3s-1.35 3-3 3H0v8c6.075 0 11-4.925 11-11S6.075 9 0 9z" fill="#e0ac89"></path><path fill="#b08159" d="M19 6h1v28h-1z"></path><path d="M19.469 16a4 4 0 110 8 4 4 0 010-8m0-1c-2.757 0-5 2.243-5 5s2.243 5 5 5 5-2.243 5-5-2.243-5-5-5z" fill="#b08159"></path><path fill="#ffc49c" d="M37 7h2v26h-2z"></path><path fill="#b08159" d="M3 16h1v8H3z"></path><g fill="#b08159"><path d="M8 20c0-2.206-1.794-4-4-4H0v1h4c1.65 0 3 1.35 3 3s-1.35 3-3 3H0v1h4c2.206 0 4-1.794 4-4z"></path><path d="M0 9v1c5.514 0 10 4.486 10 10S5.514 30 0 30v1c6.075 0 11-4.925 11-11S6.075 9 0 9z"></path></g><path d="M39 9v8h-4c-1.65 0-3 1.35-3 3s1.35 3 3 3h4v8c-6.075 0-11-4.925-11-11S32.925 9 39 9z" fill="#e0ac89"></path><g fill="#b08159"><path d="M31 20c0-2.206 1.794-4 4-4h4v1h-4c-1.65 0-3 1.35-3 3s1.35 3 3 3h4v1h-4c-2.206 0-4-1.794-4-4z"></path><path d="M39 9v1c-5.514 0-10 4.486-10 10s4.486 10 10 10v1c-6.075 0-11-4.925-11-11S32.925 9 39 9z"></path></g><path fill="#b08159" d="M35 16h1v8h-1z"></path></svg>