<svg viewBox="0 0 40 40" xmlns="http://www.w3.org/2000/svg"><path d="M13.625 26.499C5.421 26.425 2.5 23.91 2.5 17c0-4.922 1.954-7.573 3.677-9.911C7.31 5.551 8.303 4.204 8.474 2.515 13.153 2.815 16.5 7.552 16.5 14c0 2.397-2.346 10.666-2.875 12.499z" fill="#a6714e"></path><path d="M8.898 3.059C13.064 3.616 16 8.046 16 14c0 2.005-1.822 8.765-2.749 11.993C5.606 25.855 3 23.52 3 17c0-4.757 1.902-7.338 3.58-9.614 1.027-1.394 2.007-2.724 2.318-4.327M8 2c0 4.292-6 6.335-6 15 0 7.958 4.083 10 12 10 0 0 3-10.209 3-13 0-7.385-4.154-12-9-12z" fill="#7a4f34"></path><ellipse cx="9.5" cy="15.75" rx="2.5" ry="3.75" fill="#7a4f34"/><path d="M26.375 26.499C25.846 24.666 23.5 16.397 23.5 14c0-6.448 3.347-11.185 8.026-11.485.17 1.688 1.164 3.036 2.297 4.574C35.546 9.427 37.5 12.078 37.5 17c0 6.91-2.921 9.425-11.125 9.499z" fill="#a6714e"></path><path d="M31.102 3.059c.311 1.603 1.291 2.933 2.318 4.326C35.098 9.662 37 12.243 37 17c0 6.52-2.607 8.855-10.251 8.993C25.822 22.765 24 16.005 24 14c0-5.954 2.936-10.384 7.102-10.941M32 2c-4.846 0-9 4.615-9 12 0 2.791 3 13 3 13 7.917 0 12-2.042 12-10 0-8.665-6-10.708-6-15z" fill="#7a4f34"></path><ellipse cx="30.5" cy="15.75" rx="2.5" ry="3.75" fill="#7a4f34"/><path d="M20 37.477C9.596 34.249 7.5 29.388 7.5 22.6c0-5.712 5.346-12.1 12.5-12.1s12.5 6.388 12.5 12.1c0 6.788-2.096 11.649-12.5 14.877z" fill="#d6aa70"></path><path d="M20 11c6.868 0 12 6.124 12 11.6 0 6.697-1.973 11.206-12 14.353C9.973 33.806 8 29.297 8 22.6 8 17.124 13.132 11 20 11m0-1c-7.18 0-13 6.414-13 12.6C7 29.862 9.437 34.763 20 38c10.562-3.237 13-8.138 13-15.4C33 16.414 27.18 10 20 10z" fill="#7a4f34"></path><path d="M20 32.5c-3.226 0-6.083-1.825-6.458-4.013 1.774-.089 2.587-.614 3.312-1.082.751-.486 1.401-.905 3.146-.905 1.795 0 2.546.459 3.341.945.764.468 1.552.949 3.118 1.04C26.084 30.674 23.227 32.5 20 32.5z" fill="#36404d"></path><path d="M20 27c1.654 0 2.315.404 3.08.872.682.417 1.436.878 2.743 1.054C25.159 30.644 22.722 32 20 32c-2.716 0-5.149-1.35-5.819-3.063 1.488-.172 2.253-.666 2.943-1.112C17.839 27.364 18.402 27 20 27m0-1c-3.824 0-3.019 2-7 2 0 2.676 3.176 5 7 5s7-2.324 7-5c-3.635 0-3.176-2-7-2z" fill="#7a4f34"></path><path d="M15.5 21.676c.577-1.939 2.373-3.176 4.5-3.176s3.923 1.237 4.5 3.177" fill="#d6aa70" stroke="#7a4f34" stroke-linecap="square" stroke-miterlimit="10"></path><path fill="#fff" d="M22 27h1v2h-1z"></path><circle cx="26" cy="22" r="2" fill="#36404d"></circle><path d="M21.5 24a.501.501 0 01-.5-.5v-2c0-.275.225-.5.5-.5s.5.225.5.5v2c0 .275-.225.5-.5.5z" fill="#7a4f34"></path><path fill="#fff" d="M17 27h1v2h-1z"></path><circle cx="14" cy="22" r="2" fill="#36404d"></circle><path d="M18.5 24c.275 0 .5-.225.5-.5v-2c0-.275-.225-.5-.5-.5s-.5.225-.5.5v2c0 .275.225.5.5.5z" fill="#7a4f34"></path><g><path d="M20 27c1.654 0 2.315.404 3.08.872.682.417 1.436.878 2.743 1.054C25.159 30.644 22.722 32 20 32c-2.716 0-5.149-1.35-5.819-3.063 1.488-.172 2.253-.666 2.943-1.112C17.839 27.364 18.402 27 20 27m0-1c-3.824 0-3.019 2-7 2 0 2.676 3.176 5 7 5s7-2.324 7-5c-3.635 0-3.176-2-7-2z" fill="#7a4f34"></path></g></svg>