<svg viewBox="0 0 40 40" xmlns="http://www.w3.org/2000/svg"><path d="M19.987 27.246c-2.294-5.177-10.194-5.778-13.726-5.778l-.319.002c.924-1.583 1.136-3.067.629-4.421-.634-1.694-2.278-2.834-3.75-3.548h9.799c.285.962 1.114 3.302 2.502 3.671.875.232 1.614.351 2.195.351 1.519 0 1.683-.858 1.683-1.228.029-.173.059-.366.087-.567l.281-.123s.256-.104.632-.104c.348 0 .474.061.475.062l.434.379c.006.119.009.237.009.354.075.508.392 1.228 1.742 1.228.55 0 1.248-.115 2.136-.351 1.455-.365 2.297-2.708 2.585-3.671h9.859c-1.495.731-3.187 1.905-3.817 3.638-.486 1.335-.275 2.786.625 4.324a27.97 27.97 0 00-.527-.005c-3.501-.001-11.324.601-13.534 5.787z" fill="#839cb2"></path><path d="M35.412 14c-1.052.742-2.004 1.717-2.46 2.967-.458 1.258-.367 2.595.269 3.992-3.518.034-10.547.693-13.242 5.196-2.719-4.409-9.604-5.126-13.214-5.183.661-1.443.754-2.816.274-4.099C6.587 15.664 5.67 14.72 4.652 14h7.596c.404 1.252 1.269 3.262 2.745 3.654.917.244 1.699.367 2.324.367 1.891 0 2.148-1.192 2.179-1.623.017-.105.033-.214.049-.327l.004-.001A1.37 1.37 0 0120 16c.103 0 .175.006.222.013l.193.169.001.112v.08l.013.079c.076.472.445 1.568 2.23 1.568.602 0 1.321-.117 2.251-.364 1.543-.387 2.439-2.455 2.838-3.657h7.664M40 13H27s-.833 3.311-2.333 3.688c-.676.18-1.408.334-2.008.334-.658 0-1.155-.186-1.242-.727 0-1.224-.333-2.635-.333-2.635l-.333 1.487s-.167-.146-.75-.146c-.5 0-.833.146-.833.146l-.333-1.487s-.167 1.6-.333 2.635c0 .542-.502.727-1.183.727-.621 0-1.391-.154-2.067-.334C13.833 16.311 13 13 13 13H0s9.839 2.296 5 9c0 0 .476-.032 1.261-.032 3.403 0 12.591.603 13.739 7.032 1.048-6.392 9.942-7.043 13.519-7.042.914 0 1.481.042 1.481.042-4.822-6.59 5-9 5-9z" fill="#66798f"></path></svg>