<svg viewBox="0 0 40 40" xmlns="http://www.w3.org/2000/svg"><path fill="#66798f" d="M19 2.482h1v9.5h-1z"></path><path d="M15 24.786a2.503 2.503 0 01-2.5-2.5V12c0-1.378 1.122-2.5 2.5-2.5h9c1.378 0 2.5 1.122 2.5 2.5v10.286c0 1.378-1.122 2.5-2.5 2.5h-9z" fill="#c8d1db"></path><path d="M24 10c1.103 0 2 .897 2 2v10.286c0 1.103-.897 2-2 2h-9c-1.103 0-2-.897-2-2V12c0-1.103.897-2 2-2h9m0-1h-9a3 3 0 00-3 3v10.286a3 3 0 003 3h9a3 3 0 003-3V12a3 3 0 00-3-3z" fill="#66798f"></path><path fill="#c8d1db" d="M1.706 13.879l2.173-2.172 6.01 6.01-2.172 2.172z"></path><path d="M3.879 12.414l5.303 5.303-1.465 1.465-5.303-5.303 1.465-1.465m0-1.414L1 13.879l6.718 6.718 2.879-2.879L3.879 11z" fill="#66798f"></path><path d="M5.5 25.357v-6.079L9.278 15.5H21c1.378 0 2.5 1.122 2.5 2.5v7.357h-18z" fill="#c8d1db"></path><path d="M21 16c1.103 0 2 .897 2 2v6.857H6v-5.372L9.486 16H21m0-1H9.071L5 19.071v6.786h19V18a3 3 0 00-3-3z" fill="#66798f"></path><path fill="#c8d1db" d="M28.11 19.718l6.011-6.01 2.172 2.171-6.01 6.01z"></path><path d="M34.121 14.414l1.465 1.465-5.303 5.303-1.465-1.465 5.303-5.303m0-1.414l-6.718 6.718 2.879 2.879L37 15.879 34.121 13z" fill="#66798f"></path><path d="M20.5 24.643V20c0-1.378 1.065-2.5 2.374-2.5h6.013l3.613 3.772v3.371h-12z" fill="#c8d1db"></path><path d="M28.673 18L32 21.473v2.67H21V20c0-1.103.841-2 1.874-2h5.799m.427-1h-6.226C21.287 17 20 18.343 20 20v5.143h13v-4.071L29.1 17z" fill="#66798f"></path><path d="M6.914 35.911c-.151-2.438-1.396-3.888-2.602-5.292C3 29.091 1.646 27.514 1.511 24.5h36.981c-.1 3.092-1.125 4.675-2.118 6.208-.896 1.383-1.82 2.81-1.934 5.203H6.914z" fill="#c8d1db"></path><path d="M37.967 25c-.181 2.609-1.074 3.986-2.012 5.436-.873 1.347-1.772 2.735-1.98 4.975H7.371c-.276-2.318-1.496-3.739-2.68-5.119C3.462 28.861 2.293 27.5 2.047 25h35.92M39 24H1c0 6.7 5.429 7.003 5.429 12.411h28.5C34.929 31.003 39 30.767 39 24z" fill="#66798f"></path><path fill="#66798f" d="M30 28h4v1h-4zM16 6h7v1h-7z"></path><circle cx="10.5" cy="20.5" r="1.5" fill="#66798f"></circle><circle cx="16.5" cy="20.5" r="1.5" fill="#66798f"></circle><circle cx="25.5" cy="21.5" r="1.5" fill="#66798f"></circle><g><path d="M18.5 4.5v-2c0-.551.449-1 1-1s1 .449 1 1v2h-2z" fill="#c8d1db"></path><path d="M19.5 2a.5.5 0 01.5.5V4h-1V2.5a.5.5 0 01.5-.5m0-1A1.5 1.5 0 0018 2.5V5h3V2.5A1.5 1.5 0 0019.5 1z" fill="#66798f"></path></g><g><path d="M6.914 35.911c-.12-1.979-.947-3.264-1.869-4.411h30.83c-.725 1.179-1.346 2.418-1.436 4.411H6.914z" fill="#f78f8f"></path><path d="M35.008 32a8.576 8.576 0 00-1.035 3.411H7.372c-.167-1.426-.686-2.489-1.324-3.411h28.96m1.772-1H3.98c1.249 1.492 2.448 2.821 2.448 5.411h28.5c.001-2.604.908-3.916 1.852-5.411z" fill="#c74343"></path></g><path d="M1 39h38v-5.123c-1.308-.263-2.852-.877-4-.877-1.458 0-3.562 1-5 1s-3.542-1-5-1-3.562 1-5 1-3.542-1-5-1-3.562 1-5 1-3.542-1-5-1c-1.148 0-2.692.614-4 .877V39z" fill="#8bb7f0"></path><g><path d="M35 33c-1.458 0-3.562 1-5 1s-3.542-1-5-1-3.562 1-5 1-3.542-1-5-1-3.562 1-5 1-3.542-1-5-1c-1.148 0-2.692.614-4 .877V34.9c.574-.103 1.17-.271 1.754-.435C3.566 34.237 4.406 34 5 34s1.434.237 2.246.465c.934.263 1.9.535 2.754.535s1.82-.272 2.754-.535C13.566 34.237 14.406 34 15 34s1.434.237 2.246.465c.934.263 1.9.535 2.754.535s1.82-.272 2.754-.535C23.566 34.237 24.406 34 25 34s1.434.237 2.246.465c.934.263 1.9.535 2.754.535s1.82-.272 2.754-.535C33.566 34.237 34.406 34 35 34s1.434.237 2.246.465c.584.165 1.18.332 1.754.435v-1.023c-1.308-.263-2.852-.877-4-.877z" fill="#4e7ab5"></path></g></svg>