<svg viewBox="0 0 40 40" xmlns="http://www.w3.org/2000/svg"><path fill="none" stroke="#967a44" stroke-linecap="square" stroke-miterlimit="10" d="M8.5 38.5h23M35.5 38.5h3M1.5 38.5h3"></path><path fill="none" stroke="#788b9c" stroke-linecap="square" stroke-miterlimit="10" d="M19.5 37.5v-36"></path><path d="M19.5 19.5c-2.223 0-4.34-.703-5.665-1.88l-.293-.26-.323.222c-.86.592-2.003.918-3.219.918-1.565 0-2.997-.542-3.832-1.452l-.307-.334-.362.274A2.475 2.475 0 014 17.5a2.504 2.504 0 01-2.499-2.426C1.872 13.942 5.954 2.5 19.5 2.5s17.628 11.442 17.999 12.574A2.504 2.504 0 0135 17.5a2.475 2.475 0 01-1.499-.512l-.362-.274-.307.334c-.835.91-2.267 1.452-3.832 1.452-1.216 0-2.359-.326-3.219-.918l-.323-.222-.293.26c-1.325 1.177-3.442 1.88-5.665 1.88z" fill="#8bb7f0"></path><path d="M19.5 3c12.904 0 16.994 10.677 17.495 12.144A2.003 2.003 0 0135 17c-.427 0-.841-.142-1.197-.411l-.725-.547-.614.669C31.733 17.506 30.406 18 29 18c-1.116 0-2.158-.295-2.936-.83l-.646-.444-.586.521C23.597 18.344 21.604 19 19.5 19s-4.097-.656-5.333-1.754l-.586-.521-.646.444c-.777.536-1.819.831-2.935.831-1.406 0-2.733-.494-3.464-1.29l-.614-.669-.725.547A1.97 1.97 0 014 17a2.003 2.003 0 01-1.995-1.856C2.508 13.67 6.6 3 19.5 3m0-1C5 2 1 15 1 15a3 3 0 003 3 2.98 2.98 0 001.8-.613C6.689 18.355 8.233 19 10 19c1.366 0 2.601-.385 3.503-1.006C14.871 19.21 17.044 20 19.5 20s4.629-.79 5.997-2.006C26.399 18.615 27.634 19 29 19c1.767 0 3.311-.645 4.2-1.613A2.98 2.98 0 0035 18a3 3 0 003-3S34 2 19.5 2z" fill="#4e7ab5"></path><path d="M33.078 16.041l-.615.669C31.733 17.506 30.406 18 29 18c-1.116 0-2.158-.295-2.936-.83l-.646-.444C25.418 16.725 26 8 19.5 3 31 5 33.078 16.041 33.078 16.041z" fill="#c2e8ff"></path><g><path d="M19.5 3c-6.5 5-5.918 13.725-5.918 13.725l-.646.444c-.778.536-1.82.831-2.936.831-1.406 0-2.733-.494-3.464-1.29l-.615-.669C5.922 16.041 8 5 19.5 3z" fill="#c2e8ff"></path></g></svg>