<svg viewBox="0 0 40 40" xmlns="http://www.w3.org/2000/svg"><path d="M15 39h24v-7.123c-1.308-.263-2.852-.877-4-.877-1.458 0-3.563 1-5 1-1.438 0-3.542-1-5-1s-3.563 1-5 1h-5v7z" fill="#8bb7f0"></path><path d="M35 31c-1.458 0-3.563 1-5 1-1.438 0-3.542-1-5-1s-3.563 1-5 1h-5v1h5c.854 0 1.82-.272 2.754-.535C23.566 32.237 24.406 32 25 32s1.434.237 2.246.465c.934.263 1.9.535 2.754.535s1.82-.272 2.754-.535C33.566 32.237 34.406 32 35 32s1.434.237 2.246.465c.584.165 1.18.332 1.754.435v-1.023c-1.308-.263-2.852-.877-4-.877z" fill="#4e7ab5"></path><path d="M2.983 31.5c4.242-2.524 14.712-10.268 16.467-26h1.995c-1.926 17.873-9.552 25.068-10.627 26H2.983z" fill="#a6714e"></path><path d="M20.886 6c-1.929 16.641-8.871 23.734-10.259 25H4.699c4.836-3.259 13.466-10.937 15.196-25h.991M22 5h-3C17 25 1 32 1 32h10s9-7 11-27z" fill="#7a4f34"></path><path d="M8.937 19.773c-1.706-3.613-1.875-7.001-.439-9.416 1.711-2.878 5.7-4.527 11.595-4.813-2.665 1.771-7.858 6.063-11.156 14.229z" fill="#bae0bd"></path><path d="M18.368 6.174c-2.728 2.115-6.635 5.995-9.436 12.328-1.197-3.052-1.214-5.853-.004-7.889 1.451-2.44 4.683-3.95 9.44-4.439M22 5C5.714 5 5.125 13.875 9 21 13.375 9.125 22 5 22 5z" fill="#5e9c76"></path><path d="M1.571 11.745C2.075 7.23 5.299 1.5 13 1.5c3.694 0 6.865 2.28 7.415 3.999l-1.839-.003c-6.758 0-10.722.29-17.005 6.249z" fill="#bae0bd"></path><path d="M13 2c3.132 0 5.612 1.684 6.571 2.998l-.995-.002c-6.313 0-10.433.274-16.264 5.397C3.253 6.379 6.416 2 13 2m0-1C4 1 1 8.469 1 13c6.674-6.674 10.563-7.004 17.576-7.004.768 0 1.573.004 2.424.004 0-2-3.653-5-8-5z" fill="#5e9c76"></path><path d="M28.736 21.4c-.346-3.529-1.676-11.974-6.605-15.849 4.482.269 7.385 1.6 8.64 3.965 2.009 3.787-.618 9.365-2.035 11.884z" fill="#bae0bd"></path><path d="M23.568 6.183c3.461.432 5.729 1.626 6.76 3.565 1.591 2.995.062 7.26-1.286 10.002-.523-3.743-1.898-9.867-5.474-13.567M20.354 5c7.464 3.817 8 18 8 18s12.187-18-8-18z" fill="#5e9c76"></path><g><path d="M35.48 13.766a237.072 237.072 0 01-2.058-2.122c-4.539-4.718-5.844-6.075-12.857-6.142.45-1.767 3.156-4.002 6.773-4.002 6.3 0 7.951 6.403 8.142 12.266z" fill="#bae0bd"></path><path d="M27.338 2c3.202 0 6.968 1.893 7.577 10.471-.4-.413-.776-.803-1.132-1.173-4.491-4.669-5.893-6.126-12.472-6.283C22.088 3.647 24.273 2 27.338 2m0-1C22.991 1 20 3.965 20 6c8.62 0 8.595 1.595 16 9 0-6-1.411-14-8.662-14z" fill="#5e9c76"></path></g><g><path d="M1.5 38.5v-7h12.658c5.044 0 9.366 5.032 10.863 7H1.5z" fill="#f5ce85"></path><path d="M14.158 32c4.241 0 7.998 3.79 9.828 6H2v-6h12.158m0-1H1v8h25s-5.263-8-11.842-8z" fill="#967a44"></path></g><g><path d="M24.75 39H1v-7h13c6 0 10.75 7 10.75 7z" fill="#f5ce85"></path></g></svg>