<svg viewBox="0 0 40 40" xmlns="http://www.w3.org/2000/svg"><path d="M20 38.5C9.799 38.5 1.5 30.201 1.5 20S9.799 1.5 20 1.5 38.5 9.799 38.5 20 30.201 38.5 20 38.5z" fill="#fff"></path><path d="M20 2c9.925 0 18 8.075 18 18s-8.075 18-18 18S2 29.925 2 20 10.075 2 20 2m0-1C9.507 1 1 9.507 1 20s8.507 19 19 19 19-8.507 19-19S30.493 1 20 1z" fill="#788b9c"></path><path d="M11.839 3.971c2.026 1.39 9.139 6.903 9.599 16.102h2.867s4.202-6.736 4.008-16.028a17.892 17.892 0 00-16.474-.074z" fill="#8bb7f0"></path><path d="M37.828 22.359c-6.291-3.581-13.604-2.763-13.604-2.763l-2.703.954c2.903 1.819 7.689 9.404 8.186 14.594a17.984 17.984 0 008.121-12.785z" fill="#f5ce85"></path><path d="M2.011 20.215c.078 6.562 3.666 12.267 8.974 15.349C21.369 29.192 22.737 21.5 22.737 21.5l.271-2.854c-4.515 1.577-13.267 3.322-20.997 1.569z" fill="#f78f8f"></path><g><circle cx="23" cy="20" r="2.5" fill="#fff"></circle><path d="M23 18c1.103 0 2 .897 2 2s-.897 2-2 2-2-.897-2-2 .897-2 2-2m0-1a3 3 0 100 6 3 3 0 000-6z" fill="#788b9c"></path></g></svg>