<svg viewBox="0 0 40 40" xmlns="http://www.w3.org/2000/svg"><path d="M16.5 11.371c-1.252-.588-2.876-3.009-3.01-3.454L13.5 6c0-1.311 1.491-3.773 2.12-4.392.346.642.88 2.805.88 4.725v5.038z" fill="#735f63"></path><path d="M15.462 2.609c.264.913.538 2.388.538 3.724v4.077c-.812-.742-1.734-1.989-2-2.569V6c0-.872.825-2.457 1.462-3.391M15.676 1C15.09 1 13 4.328 13 6v2c0 .363 2.333 4 4 4V6.333C17 4.124 16.261 1 15.676 1z" fill="#4d3e40"></path><path d="M6.5 18.451c-1.257-.23-2.701-1.212-3-1.563V16c0-1.338 1.487-4.486 2.145-5.342.346.696.855 2.802.855 4.675v3.118z" fill="#735f63"></path><path d="M5.517 11.807c.246.919.483 2.283.483 3.526v2.461c-.814-.29-1.65-.817-2-1.119V16c0-.937.851-2.965 1.517-4.193M5.676 10C5.09 10 3 14.328 3 16v1.024-.3V17c0 .363 2.333 2 4 2v-3.667C7 13.124 6.261 10 5.676 10z" fill="#4d3e40"></path><path d="M5.507 21.5c-1.454 0-3.007-.744-3.007-2.833 0-1.887 1.341-4.167 3.007-4.167 1.658 0 2.993 2.279 2.993 4.167 0 2.089-1.546 2.833-2.993 2.833z" fill="#d6aa70"></path><path d="M5.507 15C6.742 15 8 16.85 8 18.667 8 20.773 6.257 21 5.507 21 4.753 21 3 20.773 3 18.667 3 16.85 4.265 15 5.507 15m0-1C3.57 14 2 16.458 2 18.667 2 20.876 3.57 22 5.507 22S9 20.876 9 18.667 7.444 14 5.507 14z" fill="#7a4f34"></path><path d="M13.5 15.5c-1.654 0-3-1.626-3-3.625C10.5 8.479 12.603 5.5 15 5.5c.604 0 1.5 1.05 1.5 2.5v3.875c0 1.999-1.346 3.625-3 3.625z" fill="#d6aa70"></path><path d="M15 6c.257 0 1 .786 1 2v3.875C16 13.598 14.878 15 13.5 15S11 13.598 11 11.875C11 8.413 13.108 6 15 6m0-1c-2.603 0-5 3.036-5 6.875C10 14.153 11.567 16 13.5 16s3.5-1.847 3.5-4.125V8c0-1.632-1.031-3-2-3z" fill="#7a4f34"></path><path d="M36.882 25.485C36.206 25.324 35.5 23.887 35.5 22c0-1.284 1.49-3.058 2.092-3.439.345.574.908 2.802.908 4.773v1.197c-1.006.129-1.385.64-1.602.933a.383.383 0 00-.016.021z" fill="#735f63"></path><path d="M37.397 19.395c.282.883.603 2.493.603 3.938v.787a2.537 2.537 0 00-1.231.713C36.448 24.464 36 23.49 36 22c0-.787.788-1.959 1.397-2.605M37.676 18C37.09 18 35 20.328 35 22c0 2.209.898 4 2.007 4 .363 0 .327-1 1.993-1v-1.667C39 21.124 38.261 18 37.676 18z" fill="#4d3e40"></path><path d="M32.5 17.483c-1.282-.084-2.6-.459-3-.673V15c0-1.311 1.491-3.773 2.12-4.392.346.642.88 2.805.88 4.725v2.15z" fill="#735f63"></path><path d="M31.462 11.609c.264.913.538 2.388.538 3.724v1.598c-.793-.1-1.567-.291-2-.449V15c0-.872.825-2.457 1.462-3.391M31.676 10C31.09 10 29 13.328 29 15v2c0 .363 2.333 1 4 1v-2.667C33 13.124 32.261 10 31.676 10z" fill="#4d3e40"></path><g><path d="M25.5 8.483c-1.282-.084-2.6-.459-3-.673V6c0-1.311 1.491-3.773 2.12-4.392.346.642.88 2.805.88 4.725v2.15z" fill="#735f63"></path><path d="M24.462 2.609c.264.913.538 2.388.538 3.724v1.598c-.793-.1-1.567-.291-2-.449V6c0-.872.825-2.457 1.462-3.391M24.676 1C24.09 1 22 4.328 22 6v2c0 .363 2.333 1 4 1V6.333C26 4.124 25.261 1 24.676 1z" fill="#4d3e40"></path></g><g><path d="M28.695 22.5c-.25 0-.482-.036-.671-.104-.526-.19-.945-.595-1.211-1.172-.438-.952-.412-2.28.07-3.552.696-1.838 2.164-3.172 3.491-3.172.214 0 .42.036.615.107 1.367.5 1.944 3.264 1.142 5.476-.57 1.57-2.195 2.417-3.436 2.417z" fill="#d6aa70"></path><path d="M30.374 15c.155 0 .304.026.443.077 1.001.366 1.59 2.777.843 4.836C31.169 21.268 29.766 22 28.695 22c-.194 0-.367-.026-.501-.074-.403-.145-.715-.452-.926-.911-.384-.833-.353-2.017.083-3.166.615-1.624 1.915-2.849 3.023-2.849m0-1c-1.528 0-3.182 1.444-3.959 3.495-.913 2.41-.272 4.755 1.44 5.372.246.089.532.133.84.133 1.394 0 3.24-.911 3.905-2.746.879-2.423.268-5.491-1.44-6.116a2.252 2.252 0 00-.786-.138z" fill="#7a4f34"></path></g><g><path d="M34.695 29.5c-.25 0-.482-.036-.671-.104-.526-.19-.945-.595-1.211-1.172-.438-.952-.412-2.28.07-3.552.696-1.838 2.164-3.172 3.491-3.172.214 0 .42.036.615.107 1.367.5 1.944 3.264 1.142 5.476-.57 1.57-2.195 2.417-3.436 2.417z" fill="#d6aa70"></path><path d="M36.374 22c.155 0 .304.026.443.077 1.001.366 1.59 2.777.843 4.836C37.169 28.268 35.766 29 34.695 29c-.194 0-.367-.026-.501-.074-.403-.145-.715-.452-.926-.911-.384-.833-.353-2.017.083-3.166.615-1.624 1.915-2.849 3.023-2.849m0-1c-1.528 0-3.182 1.444-3.959 3.495-.913 2.41-.272 4.755 1.44 5.372.246.089.532.133.84.133 1.394 0 3.24-.911 3.905-2.746.879-2.423.268-5.491-1.44-6.116a2.252 2.252 0 00-.786-.138z" fill="#7a4f34"></path></g><g><path d="M29 37.5c-1.671 0-3.518-1.069-5.304-2.103C22.011 34.421 20.418 33.5 19 33.5c-2.101 0-3.151.74-4.167 1.455C13.755 35.714 12.64 36.5 10 36.5c-3.827 0-6.5-2.262-6.5-5.5 0-3.729 4.365-5.951 5.702-6.543 1.071-.474 1.763-1.473 2.496-2.531C12.863 20.242 14.069 18.5 17 18.5c2.64 0 3.717 1.323 5.348 3.324.881 1.082 1.88 2.308 3.325 3.554.353.304.708.606 1.063.907C29.701 28.8 32.5 31.174 32.5 34c0 3.402-3.142 3.5-3.5 3.5z" fill="#d6aa70"></path><path d="M17 19c2.402 0 3.365 1.182 4.961 3.14.894 1.098 1.908 2.342 3.386 3.617.354.305.711.608 1.067.91C29.287 29.104 32 31.406 32 34c0 2.855-2.499 3-3 3-1.537 0-3.325-1.035-5.054-2.036C22.201 33.954 20.552 33 19 33c-2.259 0-3.426.821-4.454 1.546C13.484 35.294 12.481 36 10 36c-3.589 0-6-2.009-6-5 0-3.427 4.137-5.524 5.405-6.086 1.2-.531 1.965-1.636 2.704-2.704C13.252 20.559 14.331 19 17 19m0-1c-5.075 0-5.458 4.875-8 6-2.501 1.107-6 3.475-6 7 0 3.326 2.622 6 7 6 5.276 0 4.863-3 9-3 2.722 0 6.583 4 10 4 1.308 0 4-.703 4-4 0-3.418-3.667-6.125-7-9-4.094-3.531-4.608-7-9-7z" fill="#7a4f34"></path></g><g><path d="M22.5 15.5c-1.654 0-3-1.626-3-3.625C19.5 8.479 21.603 5.5 24 5.5c.604 0 1.5 1.05 1.5 2.5v3.875c0 1.999-1.346 3.625-3 3.625z" fill="#d6aa70"></path><path d="M24 6c.257 0 1 .786 1 2v3.875C25 13.598 23.878 15 22.5 15S20 13.598 20 11.875C20 8.413 22.108 6 24 6m0-1c-2.603 0-5 3.036-5 6.875C19 14.153 20.567 16 22.5 16s3.5-1.847 3.5-4.125V8c0-1.632-1.031-3-2-3z" fill="#7a4f34"></path></g></svg>