<svg viewBox="0 0 40 40" xmlns="http://www.w3.org/2000/svg"><path d="M23.747 10.573l6.169-6.17c.591-.591 1.396-.903 2.327-.903 1.28 0 2.604.591 3.635 1.622.906.906 1.473 2.037 1.597 3.184.119 1.106-.193 2.093-.878 2.778l-6.169 6.17-6.681-6.681z" fill="#a6714e"></path><path d="M32.244 4c1.148 0 2.344.538 3.281 1.475 1.647 1.647 1.969 4.004.718 5.255l-5.816 5.816-5.974-5.974 5.816-5.816C30.895 4.131 31.688 4 32.244 4m0-1c-1.02 0-1.974.343-2.681 1.049l-6.523 6.523 7.388 7.388 6.523-6.523c1.643-1.643 1.322-4.629-.718-6.669C35.069 3.605 33.598 3 32.244 3z" fill="#7a4f34"></path><path d="M3.403 11.083c-1.445-1.445-1.123-4.12.719-5.961C5.152 4.091 6.477 3.5 7.757 3.5c.932 0 1.736.312 2.327.903l6.17 6.17-6.681 6.681-6.17-6.171z" fill="#a6714e"></path><path d="M7.757 4c.555 0 1.348.131 1.973.757l5.816 5.816-5.974 5.974-5.815-5.817c-1.251-1.251-.929-3.608.718-5.255C5.412 4.538 6.608 4 7.757 4m-.001-1c-1.354 0-2.825.605-3.988 1.768-2.04 2.04-2.362 5.026-.718 6.669l6.523 6.523 7.388-7.388-6.523-6.523C9.731 3.343 8.777 3 7.756 3z" fill="#7a4f34"></path><path d="M20 36.5c-10.941 0-17.965-6.752-18.5-7.59.029-8.886 4.294-15.548 7.874-19.578.938-1.05 2.044-2.164 2.812-2.832H17c1.618 0 2.417.666 2.68.884l.32.266.32-.266c.263-.218 1.062-.884 2.68-.884h4.815c.768.668 1.874 1.782 2.812 2.833 3.579 4.028 7.844 10.69 7.873 19.577-.535.838-7.559 7.59-18.5 7.59z" fill="#d6aa70"></path><path d="M27.626 7c.742.662 1.756 1.689 2.627 2.664 3.501 3.94 7.667 10.436 7.746 19.086C37.082 29.903 30.32 36 20 36S2.918 29.903 2.001 28.75C2.08 20.1 6.247 13.604 9.746 9.666c.872-.976 1.886-2.004 2.628-2.666H17c1.437 0 2.108.558 2.36.768l.64.533.64-.533C20.892 7.558 21.563 7 23 7h4.626M28 6h-5c-1.729 0-2.628.69-3 1-.372-.31-1.271-1-3-1h-5c-.787.665-1.982 1.86-3 3-3.678 4.139-8 10.866-8 20 0 .597 7.383 8 19 8s19-7.403 19-8c0-9.134-4.322-15.861-8-20-1.018-1.14-2.213-2.335-3-3z" fill="#7a4f34"></path><path d="M20 36.5c-1.559 0-3.113-.145-4.752-.444C11.836 34.933 9.5 31.689 9.5 28c0-2.944 2.453-6.5 5.5-6.5h10c3.047 0 5.5 3.556 5.5 6.5 0 3.689-2.336 6.933-5.813 8.073A26.47 26.47 0 0120 36.5z" fill="#f5ce85"></path><path d="M25 22c2.77 0 5 3.282 5 6 0 3.45-2.169 6.486-5.405 7.577-1.586.285-3.089.423-4.595.423s-3.009-.138-4.595-.423C12.169 34.486 10 31.45 10 28c0-2.718 2.23-6 5-6h10m0-1H15c-3.25 0-6 3.656-6 7 0 3.863 2.48 7.343 6.158 8.548 1.519.277 3.128.452 4.842.452s3.323-.175 4.842-.452C28.52 35.343 31 31.863 31 28c0-3.344-2.75-7-6-7z" fill="#7a4f34"></path><circle cx="26" cy="16" r="2" fill="#36404d"></circle><g><circle cx="14" cy="16" r="2" fill="#36404d"></circle></g><g><path d="M20 26.451c-2.611-1.214-4.542-3.021-5.299-4.937A3.43 3.43 0 0115 21.5h10c.097 0 .196.005.299.014-.757 1.916-2.688 3.723-5.299 4.937z" fill="#805f51"></path><path d="M24.511 22c-.84 1.488-2.461 2.9-4.511 3.897-2.05-.997-3.67-2.409-4.511-3.897h9.022M25 21H15a4.4 4.4 0 00-.96.116c.645 2.323 2.914 4.523 5.96 5.884 3.046-1.361 5.315-3.561 5.96-5.884A4.4 4.4 0 0025 21z" fill="#593f33"></path></g><path fill="#7a4f34" d="M22 33h-4l2-5z"></path><path fill="#7a4f34" d="M20 30l-4 3h8z"></path></svg>