<svg viewBox="0 0 40 40" xmlns="http://www.w3.org/2000/svg"><path fill="#f78f8f" d="M2.5 13.5h4v25h-4z"></path><path d="M6 14v24H3V14h3m1-1H2v26h5V13z" fill="#c74343"></path><path fill="#f78f8f" d="M14.5 18.5h4v20h-4z"></path><path d="M18 19v19h-3V19h3m1-1h-5v21h5V18z" fill="#c74343"></path><path fill="#f78f8f" d="M20.5 25.5h4v13h-4z"></path><path d="M24 26v12h-3V26h3m1-1h-5v14h5V25z" fill="#c74343"></path><path fill="#f78f8f" d="M26.5 22.5h4v16h-4z"></path><path d="M30 23v15h-3V23h3m1-1h-5v17h5V22z" fill="#c74343"></path><g><path fill="#f78f8f" d="M32.5 27.5h4v11h-4z"></path><path d="M36 28v10h-3V28h3m1-1h-5v12h5V27z" fill="#c74343"></path></g><g><path fill="#f78f8f" d="M8.5 21.5h4v17h-4z"></path><path d="M12 22v16H9V22h3m1-1H8v18h5V21z" fill="#c74343"></path></g><path fill="none" stroke="#c74343" stroke-miterlimit="10" d="M3 2l7 5 4-2 8 6 4-2 9 7"></path><g><path fill="#f78f8f" d="M32.207 17.5l4.293-4.293V17.5z"></path><path d="M36 14.414V17h-2.586L36 14.414M37 12l-6 6h6v-6z" fill="#c74343"></path></g></svg>