<svg viewBox="0 0 40 40" xmlns="http://www.w3.org/2000/svg"><path d="M28.444 5.19l2.654-2.963c.42-.468.974-.727 1.559-.727.699 0 1.346.364 1.771.999l1.472 2.19c.892 1.327.773 3.208-.274 4.378l-2.615 2.918-4.567-6.795z" fill="#805f51"></path><path d="M32.657 2c.53 0 1.025.283 1.357.777l1.472 2.19c.768 1.142.668 2.761-.233 3.766l-2.186 2.44-3.991-5.939 2.395-2.673c.325-.362.746-.561 1.186-.561m0-1c-.695 0-1.393.293-1.93.893l-2.914 3.253 5.142 7.651L35.998 9.4c1.204-1.344 1.339-3.471.318-4.991l-1.472-2.19C34.303 1.414 33.482 1 32.657 1z" fill="#593f33"></path><path d="M5.374 9.067C4.326 7.897 4.208 6.015 5.1 4.688l1.472-2.19c.425-.634 1.072-.998 1.771-.998.585 0 1.139.258 1.559.727l2.654 2.963-4.566 6.795-2.616-2.918z" fill="#805f51"></path><path d="M8.343 2c.441 0 .861.199 1.185.56l2.395 2.673-3.991 5.939-2.186-2.44c-.9-1.005-1-2.624-.233-3.766l1.472-2.19C7.318 2.283 7.812 2 8.343 2m0-1c-.825 0-1.646.414-2.187 1.22L4.684 4.41c-1.021 1.52-.886 3.647.318 4.99l3.044 3.397 5.142-7.651-2.914-3.253C9.736 1.293 9.038 1 8.343 1z" fill="#593f33"></path><path d="M20.5 38.5c-10.61 0-18.932-5.881-19-13.407L8.466 7.181C9.578 4.354 12.958 1.5 18 1.5c.856 0 1.522.267 2.157.864l.343.323.343-.322C21.478 1.767 22.144 1.5 23 1.5c5.042 0 8.422 2.854 9.535 5.683l6.965 17.91c-.068 7.526-8.39 13.407-19 13.407z" fill="#d6aa70"></path><path d="M23 2c4.807 0 8.019 2.695 9.068 5.362l6.93 17.821C38.864 32.385 30.787 38 20.5 38S2.136 32.385 2.002 25.183L8.931 7.366C9.981 4.695 13.193 2 18 2c.72 0 1.279.225 1.815.728l.685.645.685-.645C21.721 2.225 22.28 2 23 2m0-1c-1.063 0-1.84.379-2.5 1-.66-.621-1.438-1-2.5-1-4.938 0-8.71 2.721-10 6L1 25c0 7.973 8.73 14 19.5 14S40 32.973 40 25L33 7c-1.29-3.279-5.063-6-10-6z" fill="#7a4f34"></path><path d="M30.774 10.557c.437 1.077.221 2.148-.482 2.393-.704.245-1.628-.429-2.065-1.506-.437-1.077-.221-2.148.482-2.393.703-.246 1.628.429 2.065 1.506zM10.226 10.557c-.437 1.077-.221 2.148.482 2.393.704.245 1.628-.429 2.065-1.506s.221-2.148-.482-2.393c-.703-.246-1.628.429-2.065 1.506z" fill="#36404d"></path><path d="M20.5 38.5c-5.298 0-11-3.459-11-11.056 0-7.068 4.518-14.944 11-14.944s11 7.876 11 14.944c0 7.597-5.702 11.056-11 11.056z" fill="#f5ce85"></path><path d="M20.5 13C26.474 13 31 20.276 31 27.444 31 34.938 25.332 38 20.5 38S10 34.938 10 27.444C10 20.276 14.526 13 20.5 13m0-1C13.723 12 9 20.139 9 27.444 9 35.384 14.961 39 20.5 39S32 35.384 32 27.444C32 20.139 27.277 12 20.5 12z" fill="#7a4f34"></path><path fill="#788b9c" d="M20.484 21L20 22v11h1l-.016-10.949z"></path><g><path d="M20.5 32.5v-10h.119c.27.57.938 1 1.381 1h4c.062 0 .5.099.5.5l-.996 7.696a.946.946 0 01-.934.804H20.5z" fill="#fff"></path><path d="M21 23.66c.321.213.676.34 1 .34l3.954-.003c.011.002.026.009.036.011l-.981 7.611a.445.445 0 01-.439.381H21v-8.34M21 22h-1v11h4.57c.719 0 1.328-.529 1.43-1.24L27 24c0-.7-.659-1-1-1h-4c-.335 0-1-.516-1-1z" fill="#788b9c"></path></g><path fill="#788b9c" d="M20.516 21L21 22v11h-1l.016-10.949z"></path><g><path d="M16.43 32.5a.95.95 0 01-.935-.811l-.999-7.753c.004-.337.442-.436.504-.436h4c.442 0 1.111-.43 1.381-1h.119v10h-4.07z" fill="#fff"></path><path d="M20 23.66V32h-3.57a.443.443 0 01-.438-.368l-.983-7.625c.002-.002.002-.004-.001-.006V24H19c.324 0 .679-.127 1-.34M21 22h-1c0 .484-.665 1-1 1h-4c-.341 0-1 .3-1 1l1 7.76c.102.712.711 1.24 1.43 1.24H21V22z" fill="#788b9c"></path></g><g><path d="M27.711 15.553l-3.167-3.975A1.441 1.441 0 0023.389 11h-5.778c-.455 0-.883.214-1.156.578l-3.167 3.975c-.498.663-.18 1.431.354 2.069.085.099.358.378.358.378.578-.797 1.43-1.06 2.024-.837.678.255.885 1.369.464 2.489-.019.05-.044.095-.064.144.17.173.321.204.576.204h3v3h1v-3h3c.255 0 .406-.031.576-.204-.021-.049-.045-.093-.064-.144-.421-1.12-.213-2.234.464-2.489.594-.223 1.446.04 2.024.837 0 0 .273-.279.357-.378.534-.638.852-1.406.354-2.069z" fill="#36404d"></path></g><path d="M26 23h-3c-1.1 0-2-.9-2-2v-1h-1v1c0 1.1-.9 2-2 2h-3c-.55 0-1 .45-1 1h13c0-.55-.45-1-1-1z" fill="#7a4f34"></path></svg>