<svg viewBox="0 0 40 40" xmlns="http://www.w3.org/2000/svg"><path d="M1.5 24.5v-17c0-1.103.897-2 2-2s2 .897 2 2v1h29v-1c0-1.103.897-2 2-2s2 .897 2 2v17h-37z" fill="#b08159"></path><path d="M36.5 6c.827 0 1.5.673 1.5 1.5V24H2V7.5C2 6.673 2.673 6 3.5 6S5 6.673 5 7.5V9h30V7.5c0-.827.673-1.5 1.5-1.5m0-1A2.5 2.5 0 0034 7.5V8H6v-.5a2.5 2.5 0 10-5 0V25h38V7.5A2.5 2.5 0 0036.5 5z" fill="#704e34"></path><path d="M21.5 11.708c.738-.331 3.022-1.208 6.5-1.208 3.493 0 5.764.868 6.5 1.198v11.797l-13 .01V11.708z" fill="#dbf2ff"></path><path d="M28 11c3.006 0 5.087.666 6 1.03v10.965l-12 .009V12.039c.913-.367 2.994-1.039 6-1.039m0-1c-4.467 0-7 1.395-7 1.395v12.611l14-.011V11.384S32.467 10 28 10z" fill="#66798f"></path><g><path d="M5.5 11.708c.738-.331 3.022-1.208 6.5-1.208 3.493 0 5.764.868 6.5 1.198v11.797l-13 .01V11.708z" fill="#dbf2ff"></path><path d="M12 11c3.006 0 5.087.666 6 1.03v10.965l-12 .01V12.039C6.913 11.672 8.994 11 12 11m0-1c-4.467 0-7 1.395-7 1.395v12.611l14-.011V11.384S16.467 10 12 10z" fill="#66798f"></path></g><g><path fill="#b08159" d="M34.5 35.5v-3h-29v3h-4v-19h37v19z"></path><path d="M38 17v18h-3v-3H5v3H2V17h36m1-1H1v20h5v-3h28v3h5V16z" fill="#704e34"></path></g></svg>