<svg viewBox="0 0 40 40" xmlns="http://www.w3.org/2000/svg"><path d="M31.5.5c-2.427 0-5 1-5 1l1 5M35.5 2.5c-2.427 0-5 1-5 1l1 5" fill="none" stroke="#36404d" stroke-linecap="round" stroke-miterlimit="10"></path><path d="M30.5 15.5c-2.757 0-5-2.243-5-5s2.243-5 5-5c3.995 0 6 4.808 6 7.5 0 2.321-2.396 2.5-5.779 2.5H30.5z" fill="#ffeea3"></path><path d="M30.5 6c3.611 0 5.5 4.557 5.5 7 0 1.711-1.629 2-5.279 2H30.5c-2.481 0-4.5-2.019-4.5-4.5S28.019 6 30.5 6m0-1a5.5 5.5 0 100 11h.221C33.703 16 37 15.964 37 13c0-3.038-2.25-8-6.5-8z" fill="#805f51"></path><path d="M21.51 13.782c-2.415 0-6.22-1.199-8.156-3.135-3.077-3.078-3.57-7.679-2.522-8.727.2-.2.771-.414 1.776-.414 2.057 0 5.136.89 7.034 2.843C22.489 7.279 23.5 10.84 23.5 13c0 .576-1.028.782-1.99.782z" fill="#b6c9d6"></path><path d="M12.607 2.005c2.018 0 4.959.925 6.676 2.692 2.744 2.823 3.717 6.237 3.729 8.28-.061.079-.467.304-1.503.304-2.315 0-5.956-1.143-7.802-2.989-2.934-2.934-3.297-7.245-2.522-8.02.071-.069.483-.267 1.422-.267m0-1c-.982 0-1.759.191-2.129.56C9.205 2.839 9.78 7.78 13 11c2.05 2.05 5.947 3.281 8.509 3.281C22.972 14.281 24 13.88 24 13c0-1.917-.826-5.734-4-9-1.986-2.043-5.201-2.995-7.393-2.995z" fill="#788b9c"></path><path d="M15.676 15.46c-2.907 0-5.508-1-7.322-2.814C6.542 10.835 5.02 8.51 4.178 6.268c-.74-1.965-.83-3.621-.233-4.218.313-.312.948-.484 1.792-.484 2.213 0 5.835 1.18 8.939 3.815l1.292 1.089c2.903 2.438 5.905 4.959 5.971 6.463.012.274-.081.501-.293.713-.874.874-3.115 1.814-5.97 1.814z" fill="#fff"></path><path d="M5.737 2.066c2.053 0 5.624 1.157 8.615 3.696.433.368.867.732 1.295 1.092 2.689 2.258 5.736 4.818 5.792 6.101.005.113-.018.208-.147.338-.829.829-3.024 1.668-5.617 1.668-1.606 0-4.647-.347-6.969-2.668-3.912-3.912-5.334-8.964-4.408-9.89.164-.163.627-.337 1.439-.337m0-1c-.967 0-1.724.209-2.145.63C2.015 3.273 4.012 9.012 8 13c2.166 2.166 5.047 2.961 7.676 2.961 2.758 0 5.239-.875 6.324-1.961 1.878-1.878-2.583-5.25-7-9-3.076-2.612-6.832-3.934-9.263-3.934z" fill="#788b9c"></path><path d="M15 27.048c-1.667.129-3 2.744-3 5.976C12 36.256 13.25 39 15 39V27.048z" fill="#805f51"></path><path d="M24.458 29.311c-1.649 5.111-7.313 8.221-9.57 7.467C11.665 35.699 10 32.829 10 27.786c0-9.168 4.459-11.771 9.165-10.474 3.868 1.066 7.171 6.179 5.293 11.999z" fill="#805f51"></path><path d="M24.61 22.5c-1.496 0-3.039-.685-4.232-1.878-2.155-2.155-2.509-5.31-.787-7.031.714-.714 1.682-1.091 2.799-1.091 1.496 0 3.039.685 4.232 1.878 2.155 2.155 2.509 5.31.787 7.031-.714.714-1.681 1.091-2.799 1.091z" fill="#ffeea3"></path><path d="M22.39 13c1.364 0 2.778.631 3.879 1.732 1.96 1.96 2.314 4.797.787 6.324-.619.617-1.464.944-2.445.944-1.365 0-2.778-.631-3.879-1.732-1.96-1.96-2.314-4.797-.787-6.324.617-.617 1.463-.944 2.445-.944m-.001-1c-1.197 0-2.32.405-3.152 1.237-1.919 1.919-1.567 5.384.787 7.738C21.358 22.309 23.047 23 24.611 23c1.197 0 2.32-.405 3.152-1.237 1.919-1.919 1.567-5.384-.787-7.738C25.642 12.691 23.953 12 22.389 12z" fill="#805f51"></path><g><path d="M29.562 7.562c.873-.872 2.448-.712 3.518.358s1.23 2.645.358 3.517c-.872.872-2.447.712-3.517-.358-1.071-1.069-1.187-2.688-.359-3.517z" fill="#36404d"></path></g><g><path d="M23.983 25.617c-1.996-.374-3.962-1.425-5.568-3.031-1.326-1.326-2.246-2.868-2.752-4.427a4.664 4.664 0 00-1.795.893A13.122 13.122 0 0017 24c2.006 2.006 4.441 3.223 6.839 3.625a9.627 9.627 0 00.144-2.008z" fill="#ffeea3"></path></g><g><path d="M14.982 26.14a18.977 18.977 0 01-3.117-4.112c-.294.794-.515 1.701-.66 2.709a21.182 21.182 0 002.363 2.817c2.363 2.363 5.111 4.007 7.923 4.942a10.79 10.79 0 001.204-1.692c-2.781-.816-5.464-2.416-7.713-4.664z" fill="#ffeea3"></path></g><g><path d="M11.475 29.647c-.148-.148-.277-.305-.42-.455.106 1.438.372 2.565.742 3.447a27.978 27.978 0 004.566 3.168c.716-.143 1.547-.48 2.397-.996a26.2 26.2 0 01-7.285-5.164z" fill="#ffeea3"></path></g></svg>