<svg viewBox="0 0 40 40" xmlns="http://www.w3.org/2000/svg"><path d="M11 38.5c-.827 0-1.5-.673-1.5-1.5v-9.5h21V37c0 .827-.673 1.5-1.5 1.5H11z" fill="#dcd5f2"></path><path d="M30 28v9c0 .551-.449 1-1 1H11c-.551 0-1-.449-1-1v-9h20m1-1H9v10a2 2 0 002 2h18a2 2 0 002-2V27z" fill="#8b75a1"></path><path d="M9 36.5A2.503 2.503 0 016.5 34V11.157c0-1.74.837-3.396 2.238-4.428L11.764 4.5h16.473l3.025 2.229a5.523 5.523 0 012.238 4.428V34c0 1.378-1.121 2.5-2.5 2.5H9z" fill="#bae0bd"></path><path d="M28.072 5l2.894 2.132A5.02 5.02 0 0133 11.157V34c0 1.103-.897 2-2 2H9c-1.103 0-2-.897-2-2V11.157c0-1.582.761-3.087 2.035-4.025L11.929 5h16.143m.328-1H11.6L8.442 6.327A5.997 5.997 0 006 11.157V34a3 3 0 003 3h22a3 3 0 003-3V11.157a6 6 0 00-2.441-4.831L28.4 4z" fill="#5e9c76"></path><path d="M12 4.5c-.827 0-1.5-.673-1.5-1.5s.673-1.5 1.5-1.5h16c.827 0 1.5.673 1.5 1.5s-.673 1.5-1.5 1.5H12z" fill="#dcd5f2"></path><path d="M28 2c.551 0 1 .449 1 1s-.449 1-1 1H12c-.551 0-1-.449-1-1s.449-1 1-1h16m0-1H12a2 2 0 100 4h16a2 2 0 100-4z" fill="#8b75a1"></path><g><path fill="#9bcc9f" d="M7 15h26v14H7z"></path></g><g><path d="M20 31.5c-5.238 0-9.5-4.262-9.5-9.5s4.262-9.5 9.5-9.5 9.5 4.262 9.5 9.5-4.262 9.5-9.5 9.5z" fill="#ffeea3"></path><path d="M20 13c4.963 0 9 4.037 9 9s-4.037 9-9 9-9-4.037-9-9 4.037-9 9-9m0-1c-5.523 0-10 4.477-10 10s4.477 10 10 10 10-4.477 10-10-4.477-10-10-10z" fill="#5e9c76"></path></g><g><circle cx="20" cy="22" r="4" fill="#fff"></circle></g></svg>