<svg viewBox="0 0 40 40" xmlns="http://www.w3.org/2000/svg"><path d="M10 38.5c-1.93 0-3.5-1.57-3.5-3.5V8.5h24v6.017l.712-.333c.964-.451 1.876-.681 2.711-.683.919 0 1.75.369 2.479 1.098 1.544 1.545 1.441 6.114-.284 12.536a4.542 4.542 0 01-4.373 3.366H30.5V35c0 1.93-1.57 3.5-3.5 3.5H10zm23.933-23c-.951 0-2.046.514-3.254 1.527l-.179.15v11.332l.561-.069c2.202-.271 2.967-1.429 3.222-2.353 1.639-5.952 1.318-9.321.73-10.046-.48-.484-.827-.541-1.08-.541z" fill="#ffeea3"></path><path d="M30 9V15.302l1.424-.666c.898-.42 1.74-.634 2.508-.636.784 0 1.476.311 2.116.951 1.394 1.394 1.24 5.9-.413 12.053A4.04 4.04 0 0131.746 30H30v5c0 1.654-1.346 3-3 3H10c-1.654 0-3-1.346-3-3V9h23m0 20.074l1.122-.139c2.476-.306 3.347-1.646 3.642-2.716 1.593-5.783 1.447-9.493.637-10.494l-.033-.041-.038-.038c-.58-.579-1.075-.646-1.397-.646-1.072 0-2.276.553-3.576 1.644l-.357.3V29.074M31 8H6v27a4 4 0 004 4h17a4 4 0 004-4v-4h.746a5.028 5.028 0 004.855-3.736c1.132-4.213 2.406-10.768.154-13.02-.909-.91-1.884-1.244-2.823-1.244h-.01c-1.073.003-2.088.34-2.923.73V8H31zm0 19.943V17.41c.777-.652 1.895-1.41 2.933-1.41.118 0 .336 0 .691.355.351.433.896 3.356-.824 9.599-.192.698-.762 1.738-2.8 1.989z" fill="#ba9b48"></path><path d="M7 15v20h23V15H7zm10.5 9a1.5 1.5 0 11.001-3.001A1.5 1.5 0 0117.5 24zm5 4a1.5 1.5 0 11.001-3.001A1.5 1.5 0 0122.5 28zm-5 4a1.5 1.5 0 11.001-3.001A1.5 1.5 0 0117.5 32z" fill="#f5ce85"></path><path d="M11.5 31.5v-19" fill="none" stroke="#f7fcff" stroke-linecap="round" stroke-miterlimit="10"></path><g><path d="M21.5 17.5c-.181 0-.365-.024-.546-.072a1.967 1.967 0 01-1.372-1.347 1.992 1.992 0 01.285-1.726c.42-.588.633-1.186.633-1.777V12c0-1.93-1.57-3.5-3.5-3.5H8.5c-1.654 0-3-1.346-3-3s1.346-3 3-3c.672 0 1.316.231 1.863.668l.425.339.303-.452A3.5 3.5 0 0114 1.5c.791 0 1.547.273 2.186.79l.314.253.314-.253c.639-.517 1.395-.79 2.186-.79s1.547.273 2.186.79l.314.253.314-.253A3.449 3.449 0 0124 1.5c1.002 0 1.928.423 2.609 1.19l.251.284.341-.166c.423-.204.86-.308 1.299-.308 1.654 0 3 1.346 3 3s-1.346 3-3 3H26c-1.93 0-3.5 1.57-3.5 3.5v.608c0 .582.21 1.165.624 1.734.246.34.376.74.376 1.158 0 1.103-.897 2-2 2z" fill="#fff"></path><path d="M24 2c.857 0 1.651.363 2.235 1.022l.502.567.682-.33A2.466 2.466 0 0128.5 3C29.878 3 31 4.122 31 5.5 31 6.879 29.878 8 28.5 8H26c-2.206 0-4 1.794-4 4v.609c0 .689.242 1.371.718 2.027.185.254.282.553.282.864 0 .827-.673 1.5-1.5 1.5a1.475 1.475 0 01-1.436-1.054 1.498 1.498 0 01.211-1.3c.481-.675.725-1.371.725-2.068V12c0-2.206-1.794-4-4-4H8.5A2.502 2.502 0 016 5.5C6 4.122 7.121 3 8.5 3c.705 0 1.232.304 1.55.559l.85.68.606-.905A3 3 0 0114 2c.675 0 1.322.235 1.872.678l.628.508.628-.508C17.678 2.235 18.325 2 19 2s1.322.235 1.872.678l.628.508.628-.508A2.964 2.964 0 0124 2m0-1c-.951 0-1.813.346-2.5.901C20.813 1.346 19.951 1 19 1s-1.813.346-2.5.901A3.962 3.962 0 0014 1a3.994 3.994 0 00-3.325 1.778A3.468 3.468 0 008.5 2a3.5 3.5 0 100 7H17a3 3 0 013 3v.578c0 .544-.224 1.045-.54 1.487a2.488 2.488 0 00-.359 2.151c.23.818.905 1.482 1.727 1.696.228.06.453.088.672.088a2.5 2.5 0 002.5-2.5c0-.544-.176-1.043-.472-1.451-.31-.427-.528-.913-.528-1.44V12a3 3 0 013-3h2.5a3.5 3.5 0 100-7c-.546 0-1.056.136-1.517.359A3.975 3.975 0 0024 1z" fill="#788b9c"></path></g></svg>