<svg viewBox="0 0 40 40" xmlns="http://www.w3.org/2000/svg"><path d="M14 38.5a1.5 1.5 0 01-1.5-1.495V21c0-3.748 3.815-7.608 3.854-7.646l.146-.146V13c0-5.292.644-8.482.887-9.5h5.226c.243 1.018.887 4.207.887 9.5v.207l.146.146c.039.039 3.854 3.904 3.854 7.647v16.005A1.5 1.5 0 0126 38.5H14z" fill="#bae0bd"></path><path d="M22.214 4c.275 1.286.786 4.302.786 9v.414l.293.293C23.33 13.744 27 17.454 27 21V37.005A.999.999 0 0126 38H14a.995.995 0 01-1-.995V21c0-3.53 3.671-7.256 3.708-7.294l.292-.293V13c0-4.698.511-7.715.787-9h4.427M23 3h-6s-1 3.335-1 10c0 0-4 4.001-4 8v16.005c0 1.104.895 1.995 2 1.995h12c1.105 0 2-.891 2-1.995V21c0-4.001-4-8-4-8 0-6.667-1-10-1-10z" fill="#5e9c76"></path><path d="M23.293 13.707L23 13.414V13c0-.349-.008-.67-.013-1h-5.973c-.006.33-.014.651-.014 1v.413l-.292.293C16.671 13.744 13 17.47 13 21V37.005A.999.999 0 0014 38h12a.995.995 0 001-.995V21c0-3.546-3.67-7.256-3.707-7.293z" fill="#94cf9a"></path><path d="M17 4.5a.5.5 0 01-.5-.5V2.5c0-.551.449-1 1-1h5c.551 0 1 .449 1 1V4a.5.5 0 01-.5.5h-6z" fill="#f78f8f"></path><path d="M22.5 2a.5.5 0 01.5.5V4h-6V2.5a.5.5 0 01.5-.5h5m0-1h-5A1.5 1.5 0 0016 2.5V4a1 1 0 001 1h6a1 1 0 001-1V2.5A1.5 1.5 0 0022.5 1z" fill="#c74343"></path><g><path fill="#bae0bd" d="M12.5 25.5h15v5h-15z"></path><path d="M27 26v4H13v-4h14m1-1H12v6h16v-6z" fill="#5e9c76"></path></g><g><path d="M20 33.5c-1.93 0-3.5-1.57-3.5-3.5v-4c0-1.93 1.57-3.5 3.5-3.5s3.5 1.57 3.5 3.5v4c0 1.93-1.57 3.5-3.5 3.5z" fill="#ffeea3"></path><path d="M20 23a3 3 0 013 3v4a3 3 0 11-6 0v-4a3 3 0 013-3m0-1c-2.206 0-4 1.794-4 4v4c0 2.206 1.794 4 4 4s4-1.794 4-4v-4c0-2.206-1.794-4-4-4z" fill="#5e9c76"></path></g></svg>