<svg viewBox="0 0 40 40" xmlns="http://www.w3.org/2000/svg"><path d="M14.108 38.5c-.424 0-.816-.171-1.103-.483a1.486 1.486 0 01-.392-1.143c.124-1.502.328-3.32.509-4.924.211-1.876.378-3.359.378-3.95 0-.521-.395-1.931-1.152-4.587C11.213 19.436 9.5 13.426 9.5 10.5c0-3.759.681-7.748.913-9h19.174c.232 1.253.913 5.241.913 9 0 2.926-1.713 8.936-2.848 12.913C26.895 26.069 26.5 27.479 26.5 28c0 .591.167 2.074.378 3.951.181 1.604.385 3.422.509 4.924a1.49 1.49 0 01-.392 1.143 1.482 1.482 0 01-1.103.483H14.108z" fill="#ffeea3"></path><path d="M29.169 2c.274 1.554.831 5.124.831 8.5 0 2.856-1.702 8.825-2.828 12.775C26.359 26.125 26 27.41 26 28c0 .589.145 1.905.381 4.003.18 1.601.385 3.417.508 4.912A.998.998 0 0125.892 38H14.108a.986.986 0 01-.735-.322.99.99 0 01-.261-.763c.123-1.496.327-3.311.508-4.912.235-2.098.38-3.414.38-4.003 0-.59-.359-1.875-1.172-4.724C11.702 19.326 10 13.356 10 10.5c0-3.377.557-6.947.831-8.5h18.338M30 1H10s-1 4.883-1 9.5 4 16.147 4 17.5c0 1.068-.623 5.642-.886 8.834A2 2 0 0014.108 39h11.784a2 2 0 001.994-2.166C27.623 33.642 27 29.068 27 28c0-1.353 4-12.883 4-17.5C31 5.883 30 1 30 1z" fill="#ba9b48"></path><path d="M14 28c0 .589-.145 1.905-.381 4.003A226.671 226.671 0 0013.194 36s2.54-1 6.806-1 6.806 1 6.806 1c-.121-1.288-.28-2.708-.425-3.997C26.145 29.905 26 28.589 26 28c0-.59.359-1.875 1.172-4.724C28.298 19.326 30 13.356 30 10.5c0-.499-.015-1-.037-1.5H10.037c-.022.5-.037 1.002-.037 1.5 0 2.856 1.702 8.825 2.828 12.775C13.641 26.125 14 27.41 14 28zm10-13a1 1 0 110 2 1 1 0 010-2zm-4-4a1 1 0 110 2 1 1 0 010-2zm0 9a1 1 0 110 2 1 1 0 010-2z" fill="#f5ce85"></path><path d="M16.5 30.5c0-8.466-3-13.572-3-20 0-3.698 1-6 1-6" fill="none" stroke="#f7fcff" stroke-linecap="round" stroke-miterlimit="10"></path></svg>