<svg viewBox="0 0 40 40" xmlns="http://www.w3.org/2000/svg"><path d="M20 25.214c-.772 0-2.214-3.557-2.214-10.357C17.786 8.057 19.228 4.5 20 4.5s2.214 3.557 2.214 10.357c0 6.8-1.442 10.357-2.214 10.357z" fill="#b0c1d4"></path><path d="M20 5.065c.667.677 1.714 4.217 1.714 9.792S20.667 23.973 20 24.649c-.667-.677-1.714-4.217-1.714-9.792S19.333 5.742 20 5.065M20 4c-1.499 0-2.714 4.861-2.714 10.857S18.501 25.714 20 25.714s2.714-4.861 2.714-10.857S21.499 4 20 4z" fill="#66798f"></path><path d="M14.413 35.5c1.256-1.182 3.111-3.503 3.275-7h4.623c.164 3.497 2.02 5.818 3.275 7H14.413z" fill="#f5ce85"></path><path d="M21.845 29c.246 2.702 1.457 4.698 2.578 6h-8.845c1.121-1.302 2.332-3.298 2.578-6h3.689m.955-1h-5.6c0 5.333-4.2 8-4.2 8h14s-4.2-2.667-4.2-8z" fill="#967a44"></path><path d="M9.5 38.5V38c0-1.378 1.121-2.5 2.5-2.5h16c1.379 0 2.5 1.122 2.5 2.5v.5h-21z" fill="#ffeea3"></path><path d="M28 36c1.103 0 2 .897 2 2H10c0-1.103.897-2 2-2h16m0-1H12a3 3 0 00-3 3v1h22v-1a3 3 0 00-3-3z" fill="#ba9b48"></path><path d="M18 28.5c-.827 0-1.5-.673-1.5-1.5s.673-1.5 1.5-1.5h4c.827 0 1.5.673 1.5 1.5s-.673 1.5-1.5 1.5h-4z" fill="#ffeea3"></path><path d="M22 26c.551 0 1 .449 1 1s-.449 1-1 1h-4c-.551 0-1-.449-1-1s.449-1 1-1h4m0-1h-4a2 2 0 100 4h4a2 2 0 100-4z" fill="#ba9b48"></path><g><circle cx="20" cy="19" r="6.5" fill="#bae0bd"></circle><path d="M20 13c3.308 0 6 2.692 6 6s-2.692 6-6 6-6-2.692-6-6 2.692-6 6-6m0-1a7 7 0 100 14 7 7 0 000-14z" fill="#5e9c76"></path></g><g><circle cx="20" cy="19" r="3" fill="#fff"></circle></g><g><circle cx="20" cy="3" r="1.5" fill="#ffeea3"></circle><path d="M20 2c.551 0 1 .449 1 1s-.449 1-1 1-1-.449-1-1 .449-1 1-1m0-1a2 2 0 10-.001 3.999A2 2 0 0020 1z" fill="#ba9b48"></path></g></svg>