<svg viewBox="0 0 40 40" xmlns="http://www.w3.org/2000/svg"><path d="M7 35.5c-.827 0-1.5-.673-1.5-1.5v-7c0-.827.673-1.5 1.5-1.5h26c.827 0 1.5.673 1.5 1.5v7c0 .827-.673 1.5-1.5 1.5H7z" fill="#dcd5f2"></path><path d="M33 26c.551 0 1 .449 1 1v7c0 .551-.449 1-1 1H7c-.551 0-1-.449-1-1v-7c0-.551.449-1 1-1h26m0-1H7a2 2 0 00-2 2v7a2 2 0 002 2h26a2 2 0 002-2v-7a2 2 0 00-2-2z" fill="#8b75a1"></path><path d="M7 25.5c-.827 0-1.5-.673-1.5-1.5v-8c0-.827.673-1.5 1.5-1.5h26c.827 0 1.5.673 1.5 1.5v8c0 .827-.673 1.5-1.5 1.5H7z" fill="#dcd5f2"></path><path d="M33 15c.551 0 1 .449 1 1v8c0 .551-.449 1-1 1H7c-.551 0-1-.449-1-1v-8c0-.551.449-1 1-1h26m0-1H7a2 2 0 00-2 2v8a2 2 0 002 2h26a2 2 0 002-2v-8a2 2 0 00-2-2z" fill="#8b75a1"></path><path d="M7 14.5c-.827 0-1.5-.673-1.5-1.5V6c0-.827.673-1.5 1.5-1.5h26c.827 0 1.5.673 1.5 1.5v7c0 .827-.673 1.5-1.5 1.5H7z" fill="#dcd5f2"></path><path d="M33 5c.551 0 1 .449 1 1v7c0 .551-.449 1-1 1H7c-.551 0-1-.449-1-1V6c0-.551.449-1 1-1h26m0-1H7a2 2 0 00-2 2v7a2 2 0 002 2h26a2 2 0 002-2V6a2 2 0 00-2-2z" fill="#8b75a1"></path><path fill="#dcd5f2" d="M17.5 1.5h5v3h-5z"></path><path d="M22 2v2h-4V2h4m1-1h-6v4h6V1z" fill="#8b75a1"></path><g><path fill="none" stroke="#8b75a1" stroke-linecap="round" stroke-linejoin="round" stroke-miterlimit="10" d="M17 1.5h6"></path></g><g><path fill="none" stroke="#8b75a1" stroke-width="2" stroke-linecap="round" stroke-linejoin="round" stroke-miterlimit="10" d="M17 8h6"></path></g><g><path d="M7 38.5c-.827 0-1.5-.673-1.5-1.5s.673-1.5 1.5-1.5h26c.827 0 1.5.673 1.5 1.5s-.673 1.5-1.5 1.5H7z" fill="#dcd5f2"></path><path d="M33 36c.551 0 1 .449 1 1s-.449 1-1 1H7c-.551 0-1-.449-1-1s.449-1 1-1h26m0-1H7a2 2 0 100 4h26a2 2 0 100-4z" fill="#8b75a1"></path></g><g><path fill-rule="evenodd" clip-rule="evenodd" fill="#dcd5f2" d="M9 6h4v31H9z"></path></g></svg>