<svg viewBox="0 0 40 40" xmlns="http://www.w3.org/2000/svg"><path d="M20.035 38.5c-.84 0-1.523-1.18-1.855-1.883l-.116-.246-.27-.036a16.397 16.397 0 01-1.974-.391l-.267-.069-.201.188c-.782.729-1.481 1.115-2.022 1.115a.963.963 0 01-.377-.073c-.776-.321-.956-1.671-.994-2.447l-.013-.271-.234-.137a16.637 16.637 0 01-1.673-1.119l-.22-.167-.258.097c-.648.242-1.208.365-1.665.365-.426 0-.737-.104-.953-.32-.594-.593-.243-1.912.02-2.645l.092-.256-.165-.215a16.82 16.82 0 01-1.122-1.672l-.14-.237-.274-.009c-.771-.027-2.112-.188-2.432-.959-.322-.776.507-1.859 1.029-2.435l.183-.201-.069-.263a16.478 16.478 0 01-.395-1.973l-.037-.273-.251-.114c-.703-.32-1.882-.982-1.882-1.819 0-.839 1.18-1.522 1.883-1.855l.246-.116.035-.27c.087-.647.219-1.312.391-1.975l.069-.266-.188-.201c-.526-.565-1.362-1.627-1.042-2.4.321-.775 1.671-.955 2.447-.993l.271-.013.137-.234c.333-.571.71-1.133 1.12-1.673l.167-.22-.098-.258c-.27-.724-.636-2.025-.044-2.618.221-.22.543-.327.986-.327.457 0 1.016.117 1.658.347l.257.092.216-.165a16.248 16.248 0 011.671-1.122l.237-.139.01-.275c.032-.942.226-2.128.96-2.433a.985.985 0 01.382-.073c.547 0 1.256.381 2.052 1.103l.201.182.262-.069a16.53 16.53 0 011.974-.394l.273-.038.114-.251c.319-.702.981-1.881 1.818-1.881.84 0 1.523 1.18 1.855 1.883l.116.246.27.036c.655.088 1.319.219 1.974.391l.267.069.201-.188c.782-.729 1.481-1.115 2.022-1.115.136 0 .259.024.377.073.776.321.956 1.671.994 2.447l.013.271.234.137c.57.333 1.134.709 1.673 1.119l.22.167.258-.097c.648-.242 1.209-.365 1.665-.365.426 0 .738.104.953.32.594.594.243 1.912-.02 2.645l-.092.256.165.216a16.82 16.82 0 011.122 1.672l.14.237.274.009c.771.027 2.112.188 2.432.959.322.777-.507 1.858-1.029 2.435l-.183.201.069.263c.171.644.304 1.308.395 1.973l.037.273.251.114c.703.32 1.882.982 1.882 1.818 0 .839-1.18 1.523-1.883 1.855l-.246.116-.035.27a16.845 16.845 0 01-.391 1.975l-.069.266.188.201c.526.565 1.362 1.627 1.042 2.4-.321.775-1.671.955-2.447.993l-.271.013-.137.234c-.333.571-.71 1.133-1.12 1.673l-.167.22.098.258c.271.724.637 2.025.045 2.618-.221.22-.543.327-.986.327-.457 0-1.016-.117-1.658-.347l-.257-.092-.216.165c-.533.408-1.096.786-1.671 1.122l-.237.139-.01.275c-.032.942-.226 2.128-.96 2.433a.985.985 0 01-.382.073c-.547 0-1.256-.381-2.052-1.103l-.201-.182-.263.069c-.651.172-1.315.304-1.973.394l-.273.038-.114.251c-.32.702-.982 1.881-1.819 1.881z" fill="#bae0bd"></path><path d="M19.965 2c.4 0 .938.612 1.403 1.597l.232.492.54.071c.634.085 1.278.212 1.914.379l.533.139.403-.376c.948-.885 1.492-.981 1.682-.981.069 0 .129.011.186.035.369.153.632.923.685 2.01l.027.542.469.273c.551.321 1.096.686 1.622 1.086l.439.334.517-.193c.583-.218 1.097-.334 1.489-.334.283 0 .485.058.6.174.283.283.23 1.096-.137 2.122l-.183.512.33.432c.397.52.763 1.065 1.088 1.62l.278.475.55.019c1.075.037 1.836.287 1.987.651.153.37-.206 1.1-.938 1.907l-.365.402.138.525c.167.632.295 1.275.382 1.913l.074.547.502.229c.979.446 1.588.968 1.588 1.363 0 .4-.612.938-1.597 1.403l-.492.232-.071.54a15.867 15.867 0 01-.379 1.914l-.139.533.376.403c.735.787 1.097 1.503.946 1.867-.153.369-.923.632-2.01.685l-.542.027-.273.469a15.979 15.979 0 01-1.086 1.622l-.334.439.193.517c.378 1.009.439 1.809.16 2.089-.12.12-.333.181-.633.181-.394 0-.909-.11-1.49-.318l-.512-.183-.432.33c-.521.397-1.066.764-1.62 1.088l-.475.278-.019.55c-.037 1.075-.287 1.836-.651 1.987a.489.489 0 01-.191.035c-.193 0-.747-.095-1.716-.973l-.402-.365-.525.139c-.632.167-1.275.295-1.913.382l-.547.074-.229.502c-.445.979-.967 1.588-1.362 1.588-.4 0-.938-.612-1.403-1.597l-.232-.492-.54-.071a15.944 15.944 0 01-1.914-.379l-.533-.139-.403.376c-.948.885-1.492.981-1.682.981a.467.467 0 01-.186-.035c-.369-.153-.632-.923-.685-2.009l-.027-.542-.469-.273a15.979 15.979 0 01-1.622-1.086L9.9 32.4l-.517.193c-.583.218-1.097.334-1.489.334-.283 0-.485-.058-.6-.174-.283-.283-.23-1.096.137-2.122l.183-.512-.33-.432a16.093 16.093 0 01-1.089-1.62l-.278-.475-.55-.019c-1.075-.037-1.836-.287-1.987-.652-.153-.37.206-1.1.938-1.907l.365-.402-.139-.525a15.945 15.945 0 01-.382-1.913l-.074-.547-.502-.229C2.609 20.952 2 20.43 2 20.035c0-.4.612-.938 1.597-1.403l.492-.232.071-.54c.085-.633.212-1.277.379-1.914l.139-.533-.376-.403c-.735-.787-1.097-1.503-.946-1.867.153-.369.923-.632 2.01-.685l.542-.027.273-.469c.321-.551.686-1.096 1.086-1.622l.334-.439-.194-.516c-.378-1.009-.439-1.809-.16-2.089.12-.12.333-.181.633-.181.394 0 .909.11 1.49.318l.512.183.432-.33a16.083 16.083 0 011.62-1.088l.475-.278.019-.55c.037-1.075.287-1.837.651-1.988a.489.489 0 01.191-.035c.193 0 .747.095 1.716.973l.402.365.525-.139a15.945 15.945 0 011.913-.382l.547-.074.229-.502C19.048 2.609 19.57 2 19.965 2m0-1c-1.034 0-1.785 1.101-2.274 2.175-.692.094-1.37.231-2.033.406-.707-.641-1.578-1.233-2.388-1.233-.196 0-.388.035-.574.112-.954.395-1.227 1.699-1.268 2.877-.599.351-1.172.737-1.721 1.156-.591-.212-1.239-.377-1.827-.377-.522 0-.996.13-1.34.474-.731.731-.483 2.041-.069 3.146a17.03 17.03 0 00-1.154 1.724c-1.183.058-2.49.349-2.884 1.301-.395.955.334 2.07 1.139 2.932-.174.664-.31 1.341-.402 2.034C2.098 18.234 1 19.003 1 20.035c0 1.034 1.101 1.785 2.175 2.274.094.692.231 1.37.406 2.033-.797.878-1.516 2.008-1.121 2.961.395.954 1.698 1.227 2.877 1.268.351.599.737 1.172 1.156 1.722-.4 1.116-.633 2.437.097 3.167.338.338.799.467 1.307.467.591 0 1.245-.175 1.839-.397.55.418 1.124.804 1.724 1.154.058 1.183.349 2.49 1.301 2.884.184.076.375.111.568.111.808 0 1.668-.6 2.364-1.25.664.174 1.341.31 2.034.402.507 1.071 1.276 2.169 2.308 2.169 1.034 0 1.785-1.101 2.274-2.175.692-.094 1.37-.231 2.033-.406.707.641 1.578 1.233 2.388 1.233.196 0 .388-.035.574-.112.954-.395 1.227-1.699 1.268-2.877a17.006 17.006 0 001.721-1.156c.591.212 1.239.377 1.827.377.522 0 .996-.13 1.34-.474.731-.731.483-2.042.069-3.146a17.03 17.03 0 001.154-1.724c1.183-.058 2.49-.349 2.884-1.301.395-.955-.334-2.07-1.139-2.932.174-.664.31-1.341.402-2.034 1.072-.507 2.17-1.276 2.17-2.308 0-1.034-1.101-1.785-2.175-2.274a16.848 16.848 0 00-.406-2.033c.796-.878 1.516-2.008 1.121-2.962-.395-.954-1.699-1.227-2.877-1.268a17.006 17.006 0 00-1.156-1.721c.4-1.116.633-2.437-.097-3.167-.338-.338-.799-.467-1.307-.467-.591 0-1.245.175-1.839.397a17.03 17.03 0 00-1.724-1.154c-.058-1.183-.349-2.49-1.301-2.884a1.477 1.477 0 00-.568-.111c-.808 0-1.668.6-2.364 1.25a16.665 16.665 0 00-2.034-.402C21.766 2.098 20.997 1 19.965 1z" fill="#5e9c76"></path><circle cx="20" cy="20" r="14" fill="#d6f0d8"></circle><path d="M6 20c0 2.553.694 4.939 1.888 7h24.223a13.915 13.915 0 00.001-14H7.888A13.915 13.915 0 006 20z" fill="#f78f8f"></path><path d="M13.238 8.32h0c6.454-3.733 14.713-1.527 18.446 4.927h0c3.733 6.454 1.527 14.713-4.927 18.446h0M8.306 13.276c-2.321 4.04-2.496 9.167.004 13.49s7.032 6.728 11.691 6.731" fill="none" stroke="#fff" stroke-linecap="round" stroke-miterlimit="10"></path><path d="M13.559 16.827a1.783 1.783 0 00-.643-.457 2.322 2.322 0 00-.925-.169h-1.502a.21.21 0 00-.21.21v7.177c0 .116.094.21.21.21h1.401c.731 0 1.276-.193 1.622-.573.341-.375.514-.911.514-1.593v-.402c0-.407-.066-.742-.194-.997a1.287 1.287 0 00-.34-.423l.06-.05a1.332 1.332 0 00.425-.733c.033-.151.05-.333.05-.539v-.262c0-.254-.035-.503-.104-.74a1.782 1.782 0 00-.364-.659zm-1.062 2.152c-.094.137-.333.166-.518.166h-.253v-1.556h.213c.189 0 .437.029.548.164.099.123.149.322.149.593.001.285-.046.498-.139.633zm-.771 1.493h.244c.158 0 .286.019.373.055a.386.386 0 01.176.134.563.563 0 01.089.248c.019.122.028.27.028.442 0 .168-.007.324-.019.464a.74.74 0 01-.086.301.404.404 0 01-.179.167c-.087.045-.219.067-.393.067h-.234v-1.878zM18.849 16.202h-3.064a.21.21 0 00-.21.21v7.177c0 .116.094.21.21.21h3.064a.21.21 0 00.21-.21V22.56a.21.21 0 00-.21-.21h-1.826v-1.687h1.564a.21.21 0 00.21-.21v-.968a.21.21 0 00-.21-.21h-1.564v-1.687h1.826a.21.21 0 00.21-.21v-.968a.209.209 0 00-.21-.208zM23.978 16.202h-3.064a.21.21 0 00-.21.21v7.177c0 .116.094.21.21.21h3.064a.21.21 0 00.21-.21V22.56a.21.21 0 00-.21-.21h-1.826v-1.687h1.564a.21.21 0 00.21-.21v-.968a.21.21 0 00-.21-.21h-1.564v-1.687h1.826a.21.21 0 00.21-.21v-.968a.209.209 0 00-.21-.208zM29.711 23.521l-1.055-3.116c.291-.193.502-.437.629-.728.143-.324.215-.714.215-1.158 0-1.915-1.101-2.317-2.025-2.317h-1.653a.21.21 0 00-.21.21v7.177c0 .116.094.21.21.21h1.028a.21.21 0 00.21-.21v-2.854h.251l.911 2.917a.21.21 0 00.2.147h1.089a.211.211 0 00.2-.278zm-1.659-5.023c0 .17-.01.32-.028.448a.72.72 0 01-.089.271.342.342 0 01-.156.135.858.858 0 01-.344.055h-.375v-1.818h.324c.159 0 .285.018.374.055.075.031.13.075.171.138.047.07.078.16.094.267.019.129.029.279.029.449z" fill="#fff"></path><path d="M15.015 4.304c.47.584 1.1 1.054 1.971.905.871-.149 1.215-.653 1.536-1.455-.894-.286-2.647-.069-3.507.55zM24.985 35.696c-.47-.584-1.1-1.054-1.971-.905-.871.149-1.215.653-1.536 1.455.894.286 2.647.069 3.507-.55zM35.696 15.015c-.584.47-1.054 1.1-.905 1.971.149.871.653 1.215 1.455 1.536.286-.894.069-2.647-.55-3.507zM4.304 24.985c.584-.47 1.054-1.1.905-1.971-.149-.871-.653-1.215-1.455-1.536-.286.894-.069 2.647.55 3.507zM5.377 12.426c.745.081 1.523-.032 2.034-.754.51-.721.397-1.321.057-2.115-.835.43-1.921 1.824-2.091 2.869zM34.623 27.574c-.745-.081-1.523.032-2.034.754-.51.721-.397 1.321-.057 2.115.835-.43 1.921-1.824 2.091-2.869zM27.574 5.377c-.081.745.032 1.523.754 2.034.721.51 1.321.397 2.115.057-.43-.835-1.824-1.921-2.869-2.091zM12.426 34.623c.081-.745-.032-1.523-.754-2.034-.721-.51-1.321-.397-2.115-.057.43.835 1.824 1.921 2.869 2.091zM9.388 7.407c.658.36 1.42.553 2.167.082s.872-1.068.862-1.932c-.935.077-2.471.949-3.029 1.85zM30.612 32.593c-.658-.36-1.42-.553-2.167-.082s-.872 1.068-.862 1.932c.935-.077 2.471-.949 3.029-1.85zM32.593 9.388c-.36.658-.553 1.42-.082 2.167s1.068.872 1.932.862c-.077-.935-.949-2.471-1.85-3.029zM7.407 30.612c.36-.658.553-1.42.082-2.167s-1.068-.872-1.932-.862c.077.935.949 2.471 1.85 3.029zM3.591 18.599c.72-.21 1.395-.613 1.591-1.475.196-.862-.139-1.372-.757-1.976-.607.717-1.076 2.42-.834 3.451zM36.409 21.401c-.72.21-1.395.613-1.591 1.475-.196.862.139 1.372.757 1.976.607-.717 1.076-2.42.834-3.451zM21.401 3.591c.21.72.613 1.395 1.475 1.591.862.196 1.372-.139 1.976-.757-.717-.607-2.42-1.076-3.451-.834zM18.599 36.409c-.21-.72-.613-1.395-1.475-1.591-.862-.196-1.372.139-1.976.757.717.607 2.42 1.076 3.451.834z" fill="#5e9c76"></path></svg>