<svg viewBox="0 0 40 40" xmlns="http://www.w3.org/2000/svg"><path d="M19.5 18.5c0-2.22.34-11.47 4.12-15.32A5.28 5.28 0 0127.5 1.5 11.54 11.54 0 0136.34 6a5.16 5.16 0 01-3.24 1.53 3.11 3.11 0 01-1.82-.61L31 6.66l-.29.23A3.1 3.1 0 0129 7.5a3.44 3.44 0 01-2.57-1.71l-.28-.49-.45.33a17 17 0 00-6.12 12.87z" fill="#bae0bd"></path><path d="M27.5 2a11 11 0 018.15 3.9A4.28 4.28 0 0133.11 7a2.59 2.59 0 01-1.53-.52L31 6l-.59.47A2.59 2.59 0 0129 7c-1.28 0-2.13-1.44-2.13-1.45l-.55-1-.91.67a16.64 16.64 0 00-4.76 6.27c.54-3 1.53-6.13 3.33-8A4.74 4.74 0 0127.5 2m0-1C18.65 1 19 19 19 19h1.07A16.65 16.65 0 0126 6a3.91 3.91 0 003 2 3.58 3.58 0 002-.72 3.59 3.59 0 002.11.7A6 6 0 0037 6a12.06 12.06 0 00-9.5-5z" fill="#5e9c76"></path><path d="M20.42 19.5c-.15-8.36-3.89-12.61-4.05-12.79l-.46-.51-.34.6A3.44 3.44 0 0113 8.5a3.11 3.11 0 01-1.69-.61L11 7.65l-.31.22a3.11 3.11 0 01-1.82.61A5.14 5.14 0 015.65 7a11.57 11.57 0 018.85-4.5 4.6 4.6 0 013.64 1.63c3.38 3.87 2.63 13.24 2.41 15.36z" fill="#bae0bd"></path><path d="M14.5 3a4.12 4.12 0 013.27 1.46c1.89 2.16 2.43 6.18 2.51 9.57a18.07 18.07 0 00-3.53-7.67l-.92-1-.69 1.19S14.28 8 13 8a2.58 2.58 0 01-1.37-.5L11 7l-.62.43A2.59 2.59 0 018.89 8a4.28 4.28 0 01-2.54-1.1A10.91 10.91 0 0114.5 3m0-1A12.06 12.06 0 005 7a6 6 0 003.89 2A3.59 3.59 0 0011 8.28 3.58 3.58 0 0013 9a3.91 3.91 0 003-2s3.93 4.36 3.93 13H21s2.35-18-6.5-18z" fill="#5e9c76"></path><path d="M20 37.85c-1.42-2.55-4.16-4.84-7-7.26-4.2-3.48-8.5-7.08-8.5-11.45a8.63 8.63 0 0115.12-5.7l.38.43.38-.43a8.63 8.63 0 0115.12 5.7c0 4.41-4.3 8-8.47 11.46-2.89 2.4-5.63 4.69-7.03 7.25z" fill="#f78f8f"></path><path d="M26.86 11A8.15 8.15 0 0135 19.14c0 4.18-4.21 7.68-8.29 11.07-2.66 2.21-5.19 4.32-6.72 6.66-1.54-2.34-4.07-4.46-6.72-6.67C9.21 26.8 5 23.27 5 19.14a8.13 8.13 0 0114.25-5.37l.75.85.75-.85A8.14 8.14 0 0126.86 11m0-1A9.11 9.11 0 0020 13.11a9.13 9.13 0 00-16 6c0 8 13.26 13.2 16 19.86 2.65-6.66 16-11.77 16-19.86A9.14 9.14 0 0026.86 10z" fill="#c74343"></path></svg>