<svg viewBox="0 0 40 40" xmlns="http://www.w3.org/2000/svg"><path fill="#fff" d="M1.5 3.5h37v33h-37z"></path><path d="M38 4v32H2V4h36m1-1H1v34h38V3z" fill="#788b9c"></path><path fill="#788b9c" d="M1 3.071h38V9H1z"></path><circle cx="20" cy="23" r="7.714" fill="#fff"></circle><g><path d="M20 31.5c-4.687 0-8.5-3.813-8.5-8.5s3.813-8.5 8.5-8.5 8.5 3.813 8.5 8.5-3.813 8.5-8.5 8.5zm-3.853-3.233l.556.328A6.488 6.488 0 0020 29.5c3.584 0 6.5-2.916 6.5-6.5a6.5 6.5 0 00-.905-3.298l-.328-.555-9.12 9.12zM20 16.5a6.508 6.508 0 00-6.5 6.5 6.5 6.5 0 00.905 3.298l.328.555 9.119-9.12-.556-.328A6.481 6.481 0 0020 16.5z" fill="#f78f8f"></path><path d="M20 15c4.411 0 8 3.589 8 8s-3.589 8-8 8-8-3.589-8-8 3.589-8 8-8m-5.369 12.663l.912-.912 8.208-8.208.912-.912-1.111-.656A6.99 6.99 0 0020 16c-3.86 0-7 3.14-7 7a6.99 6.99 0 00.975 3.552l.656 1.111M20 30c3.86 0 7-3.14 7-7a6.99 6.99 0 00-.975-3.552l-.656-1.111-.912.912-8.208 8.208-.912.912 1.111.656A6.987 6.987 0 0020 30m0-16a9 9 0 00-9 9c0 4.971 4.029 9 9 9s9-4.029 9-9a9 9 0 00-9-9zm-5.164 12.043A5.958 5.958 0 0114 23a6 6 0 016-6c1.112 0 2.15.308 3.043.836l-8.207 8.207zM20 29a5.958 5.958 0 01-3.043-.836l8.208-8.208c.527.894.835 1.932.835 3.044a6 6 0 01-6 6z" fill="#c74343"></path></g></svg>