<svg viewBox="0 0 40 40" xmlns="http://www.w3.org/2000/svg"><path d="M34.5 38.5v-3h-29v3h-4v-24c0-1.103.897-2 2-2s2 .897 2 2v17h33v7h-4z" fill="#f5ce85"></path><path d="M3.5 13c.827 0 1.5.673 1.5 1.5V32h33v6h-3v-3H5v3H2V14.5c0-.827.673-1.5 1.5-1.5m0-1A2.5 2.5 0 001 14.5V39h5v-3h28v3h5v-8H6V14.5A2.5 2.5 0 003.5 12z" fill="#967a44"></path><path fill="#dbf2ff" d="M5.5 28.5h33v3h-33z"></path><path d="M38 29v2H6v-2h32m1-1H5v4h34v-4z" fill="#66798f"></path><path d="M14.5 31.5v-11H32c3.584 0 6.5 2.916 6.5 6.5v4.5h-24z" fill="#8bb7f0"></path><path d="M32 21c3.308 0 6 2.692 6 6v4H15V21h17m0-1H14v12h25v-5a7 7 0 00-7-7z" fill="#4e7ab5"></path><circle cx="10" cy="24" r="3.5" fill="#ffeea3"></circle><path d="M10 21c1.654 0 3 1.346 3 3s-1.346 3-3 3-3-1.346-3-3 1.346-3 3-3m0-1a4 4 0 100 8 4 4 0 000-8z" fill="#ba9b48"></path><path d="M22.333 9.5a3.528 3.528 0 01-2.1-.7l-3.066-2.3H13.5a1.001 1.001 0 010-2h3.667l3.066-2.3a3.528 3.528 0 012.1-.7H34.5c2.206 0 4 1.794 4 4s-1.794 4-4 4H22.333z" fill="#c2e8ff"></path><path d="M34.5 2C36.43 2 38 3.57 38 5.5S36.43 9 34.5 9H22.333a3.018 3.018 0 01-1.8-.6L17.6 6.2l-.267-.2H13.5a.5.5 0 010-1h3.833l.267-.2 2.933-2.2a3.018 3.018 0 011.8-.6H34.5m0-1H22.333c-.865 0-1.708.281-2.4.8L17 4h-3.5a1.5 1.5 0 000 3H17l2.933 2.2a4 4 0 002.4.8H34.5a4.5 4.5 0 000-9z" fill="#7496c4"></path><path fill="none" stroke="#7496c4" stroke-miterlimit="10" d="M22.5 7.536V3.464M26.5 7.536V3.464M30.5 7.536V3.464"></path><path fill="#f78f8f" stroke="#c74343" stroke-miterlimit="10" d="M17 5.5h18"></path></svg>