<svg viewBox="0 0 40 40" xmlns="http://www.w3.org/2000/svg"><path d="M12.536 38.5C6.451 38.5 1.5 33.549 1.5 27.464s4.951-11.036 11.036-11.036h.679c5.727 0 8.154-2.038 8.28-7.008l.05-.323A8.47 8.47 0 0130 1.47c4.687 0 8.5 3.813 8.5 8.5a8.471 8.471 0 01-7.627 8.456l-1.047.107.025.025c-4.115.43-6.279 3.252-6.279 8.228v.679C23.571 33.549 18.621 38.5 12.536 38.5zm-.036-19c-4.411 0-8 3.589-8 8s3.589 8 8 8 8-3.589 8-8-3.589-8-8-8zM30 4.47c-3.033 0-5.5 2.467-5.5 5.5s2.467 5.5 5.5 5.5 5.5-2.467 5.5-5.5-2.467-5.5-5.5-5.5z" fill="#f78f8f"></path><path d="M30 1.97c4.411 0 8 3.589 8 8a7.972 7.972 0 01-7.178 7.958l-2.094.213.078.078c-3.718.801-5.734 3.772-5.734 8.566v.679C23.071 33.274 18.345 38 12.536 38S2 33.274 2 27.464c0-5.809 4.726-10.536 10.536-10.536h.679c5.255 0 7.939-1.727 8.613-5.687l.001.001.001-.013c.08-.476.132-.984.155-1.525l.057-.556A7.972 7.972 0 0130 1.97m0 14c3.308 0 6-2.692 6-6s-2.692-6-6-6-6 2.692-6 6 2.692 6 6 6M12.5 36c4.687 0 8.5-3.813 8.5-8.5S17.187 19 12.5 19 4 22.813 4 27.5 7.813 36 12.5 36M30 .97a9 9 0 00-8.953 8.077L21 9c0 5.185-2.47 6.929-7.786 6.929h-.679C6.165 15.929 1 21.093 1 27.464S6.165 39 12.536 39s11.536-5.165 11.536-11.536v-.679C24.071 21.505 26.544 19 31 19l-.077-.077A9 9 0 0030 .97zm0 14a5 5 0 11.001-10.001A5 5 0 0130 14.97zM12.5 35a7.5 7.5 0 110-15 7.5 7.5 0 010 15z" fill="#c74343"></path><path d="M18.909 17.785l3.459 3.459c.732-1.715 1.846-3.052 3.295-3.956l-2.814-2.814c-.977 1.707-2.427 2.715-3.94 3.311z" fill="#c74343"></path></svg>