<svg viewBox="0 0 40 40" xmlns="http://www.w3.org/2000/svg"><path fill="#839cb2" d="M10.5 28.5h3v8h-3z"></path><path d="M13 29v7h-2v-7h2m1-1h-4v9h4v-9z" fill="#66798f"></path><path fill="#839cb2" d="M7 36h10v1H7z"></path><path fill="#66798f" d="M17 36H7v1h10v-1z"></path><path fill="#839cb2" d="M7 29h10v1H7z"></path><path fill="#66798f" d="M17 29H7v1h10v-1z"></path><path d="M5.5 29.5V29c0-1.378 1.121-2.5 2.5-2.5h5c1.379 0 2.5 1.122 2.5 2.5v.5h-10z" fill="#e1ebf2"></path><path d="M13 27c1.103 0 2 .897 2 2H6c0-1.103.897-2 2-2h5m0-1H8a3 3 0 00-3 3v1h11v-1a3 3 0 00-3-3z" fill="#a3b7cc"></path><path fill="#66798f" d="M16.281 29.282l13.333-13.334.719.719L16.999 30z"></path><path d="M18.237 27.672a2.505 2.505 0 010-3.536l10.898-10.898a2.488 2.488 0 011.769-.732c.667 0 1.295.26 1.768.732l.191.191L18.43 27.864l-.193-.192z" fill="#e1ebf2"></path><path d="M30.904 13.005c.457 0 .891.152 1.243.433L18.439 27.147a2.002 2.002 0 01.153-2.657L29.49 13.591c.377-.378.88-.586 1.414-.586m0-1c-.768 0-1.536.293-2.121.879L17.884 23.783a3 3 0 000 4.243l.545.545L33.57 13.43l-.545-.545a2.986 2.986 0 00-2.121-.88z" fill="#a3b7cc"></path><path d="M28 10.5c-1.93 0-3.5-1.57-3.5-3.5s1.57-3.5 3.5-3.5 3.5 1.57 3.5 3.5-1.57 3.5-3.5 3.5z" fill="#ffeea3"></path><path d="M28 4c1.654 0 3 1.346 3 3s-1.346 3-3 3-3-1.346-3-3 1.346-3 3-3m0-1a4 4 0 100 8 4 4 0 000-8z" fill="#ba9b48"></path><g><path d="M12.707 19l5.771-5.771a5.848 5.848 0 014.167-1.708h1.944l2.648 2.201-9.905 9.905L12.707 19z" fill="#99c99e"></path><path d="M23.924 12.021h.486l2.087 1.735-9.163 9.163L13.414 19l5.418-5.418a5.348 5.348 0 013.813-1.561h1.279m0-1h-1.278a6.353 6.353 0 00-4.52 1.854L12 19l5.333 5.333 10.646-10.646-3.208-2.667-.847.001z" fill="#5e9c76"></path></g><g><path d="M31.313 19.854c-.34 0-.673-.117-.938-.329l-6.143-3.603c-.979-.543-1.543-1.223-1.685-2.025-.144-.811.196-1.52.33-1.673.35-.438.993-.721 1.614-.721.414 0 .795.123 1.102.354l5.607 4.486 5.718-5.717c.283-.283.66-.439 1.061-.439s.777.156 1.061.439.439.66.439 1.061-.156.777-.439 1.061l-6.667 6.667a1.489 1.489 0 01-1.06.439z" fill="#ffeea3"></path><path d="M37.979 10.687c.267 0 .518.104.707.293.189.189.293.44.293.707a.993.993 0 01-.293.707l-6.667 6.667a.988.988 0 01-.706.292.991.991 0 01-.625-.219l-.058-.044-.063-.037-6.103-3.573c-.804-.446-1.279-.987-1.412-1.607-.144-.674.148-1.247.228-1.352.244-.304.742-.517 1.212-.517.309 0 .578.085.779.236l5.268 4.215.699.559.633-.633 5.401-5.401a.993.993 0 01.707-.293m0-1c-.512 0-1.023.195-1.414.586l-5.401 5.401-5.268-4.215a2.304 2.304 0 00-1.403-.455c-.791 0-1.566.36-1.992.892-.397.458-1.375 2.875 1.479 4.458l6.083 3.562c.367.294.81.438 1.25.438.514 0 1.026-.197 1.414-.586l6.667-6.667a2 2 0 00-1.415-3.414z" fill="#ba9b48"></path></g><g><path d="M36 15.5c-1.93 0-3.5-1.57-3.5-3.5s1.57-3.5 3.5-3.5 3.5 1.57 3.5 3.5-1.57 3.5-3.5 3.5z" fill="#f78f8f"></path><path d="M36 9c1.654 0 3 1.346 3 3s-1.346 3-3 3-3-1.346-3-3 1.346-3 3-3m0-1a4 4 0 100 8 4 4 0 000-8z" fill="#c74343"></path></g><g><circle cx="36" cy="12" r=".5" fill="#839cb2"></circle><path d="M36 11a1 1 0 100 2 1 1 0 000-2z" fill="#36404d"></path></g><g><path d="M4.999 36.5a1.506 1.506 0 01-1.435-1.069L.568 24.113a1.509 1.509 0 01.229-1.342A1.506 1.506 0 012 22.167L12.799 20.9l-.271 4.6H4.374l2.054 9.035a1.52 1.52 0 01-.106 1.175 1.492 1.492 0 01-1.323.79z" fill="#ffeea3"></path><path d="M12.265 21.466L12.057 25h-8.31l.278 1.222 1.915 8.424.008.033.01.033a.994.994 0 01-.077.761.993.993 0 01-.596.484.963.963 0 01-.286.043c-.437 0-.831-.293-.947-.682l-3.01-11.365A1.002 1.002 0 012 22.667h.059l.058-.007 10.148-1.194m1.068-1.133L2 21.667a1.997 1.997 0 00-1.915 2.574l3 11.333a1.999 1.999 0 002.49 1.341 1.998 1.998 0 001.341-2.49L5 26h8l.333-5.667z" fill="#ba9b48"></path></g><g><path d="M5.5 25.5v-3.743l3.982-.467 3.809-2.958L17.96 23l-.98.98c-.736.735-1.904 1.52-2.98 1.52H5.5z" fill="#839cb2"></path><path d="M13.25 18.997L17.252 23l-.626.626C15.792 24.461 14.761 25 14 25H6v-2.798l3.402-.399.277-.032.22-.171 3.351-2.603m.083-1.33L9.285 20.81 5 21.313V26h9c1.207 0 2.48-.813 3.333-1.667L18.667 23l-5.334-5.333z" fill="#66798f"></path></g></svg>