<svg viewBox="0 0 40 40" xmlns="http://www.w3.org/2000/svg"><path fill="#839cb2" d="M.5 15.5h3v18h-3z"></path><path d="M3 16v17H1V16h2m1-1H0v19h4V15z" fill="#66798f"></path><path fill="#839cb2" d="M0 33h5v1H0z"></path><path fill="#66798f" d="M5 33H0v1h5v-1z"></path><path d="M.5 14.312l5.552-2.655c.211-.105.427-.157.648-.157.942 0 1.8.911 1.8 1.91v.204l-8 3.585v-2.887z" fill="#e1ebf2"></path><path d="M6.7 12c.571 0 1.23.556 1.295 1.292L1 16.427v-1.8L6.283 12.1A.937.937 0 016.7 12m0-1c-.288 0-.581.064-.864.206L0 13.997v3.974l9-4.034v-.527C9 12.102 7.891 11 6.7 11z" fill="#a3b7cc"></path><path d="M11 13.5c-1.93 0-3.5-1.57-3.5-3.5S9.07 6.5 11 6.5s3.5 1.57 3.5 3.5-1.57 3.5-3.5 3.5z" fill="#ffeea3"></path><path d="M11 7c1.654 0 3 1.346 3 3s-1.346 3-3 3-3-1.346-3-3 1.346-3 3-3m0-1a4 4 0 100 8 4 4 0 000-8z" fill="#ba9b48"></path><path d="M30.977 33.5c-.74 0-1.377-.554-1.482-1.288l-.978-9.315c-.043-.307 0-.599.123-.863l4.949-10.647a1.509 1.509 0 011.363-.868 1.502 1.502 0 011.357 2.133l-4.757 10.233.909 8.883c.059.417-.042.812-.282 1.132a1.49 1.49 0 01-1.202.6z" fill="#ffeea3"></path><path d="M34.952 11.019a1.001 1.001 0 01.904 1.422L31.157 22.55l-.116.25.028.274.901 8.786a.993.993 0 01-.19.741.992.992 0 01-.803.399c-.493 0-.917-.369-.983-.822l-.984-9.37a1 1 0 01.083-.563l4.949-10.647c.164-.351.521-.579.91-.579m0-1c-.754 0-1.477.428-1.817 1.157l-4.949 10.647a2.001 2.001 0 00-.166 1.126l.98 9.334a2 2 0 003.959-.565l-.896-8.746 4.699-10.109a2 2 0 00-1.81-2.844z" fill="#ba9b48"></path><path fill="#c74343" d="M30 13l-2 9.019L34 22v-9z"></path><path d="M35.998 33.5a1.498 1.498 0 01-1.454-1.137l-1.996-9.317a1.533 1.533 0 01-.034-.593l1.333-9.332a1.509 1.509 0 011.697-1.273 1.495 1.495 0 011.273 1.696l-1.29 9.034 1.922 9.04c.102.406.042.81-.165 1.153a1.488 1.488 0 01-.922.683 1.447 1.447 0 01-.364.046z" fill="#ffeea3"></path><path d="M35.336 12.333a.992.992 0 01.798.4c.16.214.228.477.19.741l-1.278 8.946-.025.176.037.174 1.913 8.988a.994.994 0 01-.112.757.993.993 0 01-.859.486.99.99 0 01-.961-.725l-2.008-9.368a.981.981 0 01-.019-.382l1.333-9.333c.068-.491.495-.86.991-.86m0-1c-.975 0-1.839.718-1.982 1.717l-1.333 9.333c-.036.256-.023.517.04.768l2 9.333a1.998 1.998 0 103.878-.97l-1.905-8.953 1.278-8.946a2 2 0 00-1.976-2.282z" fill="#ba9b48"></path><g><path d="M20.207 13.5l-3.701-3.701A3.504 3.504 0 0120 6.5h16c1.93 0 3.5 1.57 3.5 3.5s-1.57 3.5-3.5 3.5H20.207z" fill="#8bb7f0"></path><path d="M36 7c1.654 0 3 1.346 3 3s-1.346 3-3 3H20.414l-3.389-3.389A3.005 3.005 0 0120 7h16m0-1H20c-2.2 0-4 1.8-4 4l4 4h16c2.2 0 4-1.8 4-4s-1.8-4-4-4z" fill="#4e7ab5"></path></g><g><path d="M32.5 21.5v-15H36c1.93 0 3.5 1.57 3.5 3.5 0 2.489-2.322 9.824-2.863 11.5H32.5z" fill="#f78f8f"></path><path d="M36 7c1.654 0 3 1.346 3 3 0 2.077-1.798 8.108-2.726 11H33V7h3m0-1h-4v16h5s3-9.083 3-12c0-2.2-1.8-4-4-4z" fill="#c74343"></path></g><path fill="none" stroke="#546e7a" stroke-width="2" d="M22 28l-8-8"></path><g><path fill="#f78f8f" d="M16.626 19.334l-3.293 3.293-1.959-1.96 3.293-3.292z"></path><path d="M14.667 18.081l1.252 1.252-2.586 2.586-1.252-1.252 2.586-2.586m0-1.414l-4 4 2.667 2.667 4-4-2.667-2.667z" fill="#c74343"></path></g><g><path fill="#f78f8f" d="M24.626 27.334l-3.292 3.293-1.96-1.96 3.293-3.292z"></path><path d="M22.667 26.081l1.252 1.252-2.586 2.586-1.252-1.252 2.586-2.586m0-1.414l-4 4 2.667 2.667 4-4-2.667-2.667z" fill="#c74343"></path></g><g><path d="M17.999 25.5a1.502 1.502 0 01-1.17-2.437l4.489-4.552-4.258-7.065c-.382-.465-.56-.943-.56-1.446 0-1.729.771-2.5 2.5-2.5.91 0 1.727.583 2.034 1.449l3.334 9.185a1.511 1.511 0 01-.197 1.554L19.2 24.905c-.315.39-.742.595-1.201.595z" fill="#ffeea3"></path><path d="M19 8c.698 0 1.326.448 1.565 1.123l3.334 9.181.01.027.011.026a.998.998 0 01-.116.99l-4.965 5.213-.03.031-.027.034a1.002 1.002 0 01-1.588-1.216l4.208-4.271.545-.553-.401-.665-4.058-6.732-.04-.067-.05-.06A1.638 1.638 0 0117 10c0-1.458.542-2 2-2m0-1c-1.473 0-3 .511-3 3 0 .652.243 1.241.632 1.705l4.058 6.732-4.251 4.314a2 2 0 103.123 2.498l5-5.249a2 2 0 00.277-2.037l-3.334-9.181A2.658 2.658 0 0019 7z" fill="#ba9b48"></path></g></svg>