<svg viewBox="0 0 40 40" xmlns="http://www.w3.org/2000/svg"><path fill="#839cb2" d="M25.5 31.5h3v7h-3z"></path><path d="M28 32v6h-2v-6h2m1-1h-4v8h4v-8z" fill="#66798f"></path><path fill="#839cb2" d="M23 38h8v1h-8z"></path><path fill="#66798f" d="M31 38h-8v1h8v-1z"></path><path fill="#839cb2" d="M4.5 31.5h3v7h-3z"></path><path d="M7 32v6H5v-6h2m1-1H4v8h4v-8z" fill="#66798f"></path><path fill="#839cb2" d="M2 38h8v1H2z"></path><path fill="#66798f" d="M10 38H2v1h8v-1z"></path><path d="M4 27.5C2.07 27.5.5 25.93.5 24s1.57-3.5 3.5-3.5 3.5 1.57 3.5 3.5-1.57 3.5-3.5 3.5z" fill="#ffeea3"></path><path d="M4 21c1.654 0 3 1.346 3 3s-1.346 3-3 3-3-1.346-3-3 1.346-3 3-3m0-1a4 4 0 100 8 4 4 0 000-8z" fill="#ba9b48"></path><path d="M.5 31.5V31c0-1.378 1.121-2.5 2.5-2.5h27.333a2.17 2.17 0 012.167 2.167v.833H.5z" fill="#e1ebf2"></path><path d="M30.333 29A1.67 1.67 0 0132 30.667V31H1c0-1.103.897-2 2-2h27.333m0-1H3a3 3 0 00-3 3v1h33v-1.333A2.667 2.667 0 0030.333 28z" fill="#a3b7cc"></path><g><path d="M12.5 27.5c-1.654 0-3-1.346-3-3s1.346-3 3-3h11c1.654 0 3 1.346 3 3s-1.346 3-3 3h-11z" fill="#f78f8f"></path><path d="M23.5 22c1.379 0 2.5 1.121 2.5 2.5S24.879 27 23.5 27h-11c-1.379 0-2.5-1.121-2.5-2.5s1.121-2.5 2.5-2.5h11m0-1h-11C10.575 21 9 22.575 9 24.5s1.575 3.5 3.5 3.5h11c1.925 0 3.5-1.575 3.5-3.5S25.425 21 23.5 21z" fill="#c74343"></path></g><g><path d="M11 26.5c-.827 0-1.5-.673-1.5-1.5V10c0-.827.673-1.5 1.5-1.5s1.5.673 1.5 1.5v15c0 .827-.673 1.5-1.5 1.5z" fill="#ffeea3"></path><path d="M11 9c.551 0 1 .449 1 1v15c0 .551-.449 1-1 1s-1-.449-1-1V10c0-.551.449-1 1-1m0-1c-1.1 0-2 .9-2 2v15c0 1.1.9 2 2 2s2-.9 2-2V10c0-1.1-.9-2-2-2z" fill="#ba9b48"></path></g><g><path d="M11 16.5c-4.136 0-7.5-3.364-7.5-7.5S6.865 1.5 11 1.5s7.5 3.364 7.5 7.5-3.364 7.5-7.5 7.5z" fill="#f78f8f"></path><path d="M11 2c3.86 0 7 3.14 7 7s-3.14 7-7 7-7-3.14-7-7 3.14-7 7-7m0-1a8 8 0 100 16 8 8 0 000-16z" fill="#c74343"></path></g><g><circle cx="11" cy="9" r="1.5" fill="#e1ebf2"></circle><path d="M11 8c.551 0 1 .449 1 1s-.449 1-1 1-1-.449-1-1 .449-1 1-1m0-1a2 2 0 10-.001 3.999A2 2 0 0011 7z" fill="#c74343"></path></g><g><path d="M38 38.375c-.827 0-1.5-.673-1.5-1.5V27.5H23.966l-.428-5.988c4.742.207 14.224 2.939 14.323 2.968 1.17.433 1.639.862 1.639 1.52v10.875c0 .827-.673 1.5-1.5 1.5z" fill="#ffeea3"></path><path d="M24.077 22.046c4.67.361 13.002 2.73 13.61 2.905C38.898 25.402 39 25.729 39 26v10.875c0 .551-.449 1-1 1s-1-.449-1-1V27H24.431l-.354-4.954M23 21l.5 7H36v8.875a2 2 0 004 0V26c0-1.105-.975-1.622-2-2 0 0-10.358-3-15-3z" fill="#ba9b48"></path></g><g><path d="M23.5 27.5v-5.991c2.504.085 5.599.772 8 1.324V27.5h-8z" fill="#dcd5f2"></path><path d="M24 22.034c2.224.142 4.85.707 7 1.198V27h-7v-4.966M23 21v7h9v-5.565C28.988 21.741 25.659 21 23 21z" fill="#8b75a1"></path></g></svg>