<svg viewBox="0 0 40 40" xmlns="http://www.w3.org/2000/svg"><rect x="2.5" y="2.5" width="35" height="33" rx="2.5" ry="2.5" fill="#b0c1d4"/><path d="M35 3a2 2 0 012 2v28a2 2 0 01-2 2H5a2 2 0 01-2-2V5a2 2 0 012-2h30m0-1H5a3 3 0 00-3 3v28a3 3 0 003 3h30a3 3 0 003-3V5a3 3 0 00-3-3z" fill="#66798f"></path><path d="M35 3H5a2 2 0 00-2 2v28a2 2 0 002 2V5h30v30a2 2 0 002-2V5a2 2 0 00-2-2z" fill="#95aabd"></path><path fill="none" stroke="#66798f" stroke-miterlimit="10" d="M13.5 2v34M2 13.5h36M2 24.5h12"></path><path d="M31.5 38.5a2 2 0 01-2-2.05l1-31.95h2l1 31.95a2 2 0 01-2 2.05z" fill="#f5ce85"></path><path d="M32 5l1 31.46a1.5 1.5 0 11-3 0L31 5h1m1-1h-3l-1 32.43a2.5 2.5 0 105 0L33 4z" fill="#967a44"></path><path d="M27.5 38.5a2 2 0 01-2-2.05l1-31.95h2l1 31.95a2 2 0 01-2 2.05z" fill="#f5ce85"></path><path d="M28 5l1 31.46a1.5 1.5 0 11-3 0L27 5h1m1-1h-3l-1 32.43a2.5 2.5 0 105 0L29 4z" fill="#967a44"></path></svg>