<svg viewBox="0 0 40 40" xmlns="http://www.w3.org/2000/svg"><path fill="#f78f8f" d="M19.707 25L25 19.707 37.793 32.5H32.5v5.293z"></path><path d="M25 20.414L36.586 32H32v4.586L20.414 25 25 20.414M25 19l-6 6 14 14v-6h6L25 19z" fill="#c74343"></path><path fill="#f78f8f" d="M7.5 32.5H2.207L15 19.707 20.293 25 7.5 37.793z"></path><path d="M15 20.414L19.586 25 8 36.586V32H3.414L15 20.414M15 19L1 33h6v6l14-14-6-6z" fill="#c74343"></path><path d="M20 30.5c-7.995 0-14.5-6.505-14.5-14.5S12.005 1.5 20 1.5 34.5 8.005 34.5 16 27.995 30.5 20 30.5z" fill="#ffeea3"></path><path d="M20 2c7.72 0 14 6.28 14 14s-6.28 14-14 14S6 23.72 6 16 12.28 2 20 2m0-1C11.716 1 5 7.716 5 16s6.716 15 15 15 15-6.716 15-15S28.284 1 20 1z" fill="#ba9b48"></path><circle cx="20" cy="16" r="11" fill="#f5ce85"></circle><path d="M21.364 10.545v10.909h-1.886v-8.402c-.342.244-1.061.525-2.447.876v-1.61a13.073 13.073 0 003.537-1.773h.796z" fill="#967a44"></path></svg>