<svg viewBox="0 0 40 40" xmlns="http://www.w3.org/2000/svg"><path d="M14.461 37.5C7.866 37.5 2.5 32.134 2.5 25.539V14.461C2.5 7.866 7.866 2.5 14.461 2.5H16c1.378 0 2.5 1.122 2.5 2.5S17.378 7.5 16 7.5h-1c-1.93 0-3.5 1.57-3.5 3.5s1.57 3.5 3.5 3.5h10c1.93 0 3.5-1.57 3.5-3.5S26.93 7.5 25 7.5h-1c-1.378 0-2.5-1.122-2.5-2.5s1.122-2.5 2.5-2.5h1.539C32.134 2.5 37.5 7.866 37.5 14.461v11.077c0 6.596-5.366 11.961-11.961 11.961H14.461z" fill="#fff"></path><path d="M25.538 3C31.858 3 37 8.142 37 14.462v11.077C37 31.858 31.858 37 25.538 37H14.462C8.142 37 3 31.858 3 25.538V14.462C3 8.142 8.142 3 14.462 3H16c1.103 0 2 .897 2 2s-.897 2-2 2h-1c-2.206 0-4 1.794-4 4s1.794 4 4 4h10c2.206 0 4-1.794 4-4s-1.794-4-4-4h-1c-1.103 0-2-.897-2-2s.897-2 2-2h1.538m0-1H24a3 3 0 100 6h1a3 3 0 110 6H15a3 3 0 110-6h1a3 3 0 100-6h-1.538C7.579 2 2 7.579 2 14.462v11.077C2 32.421 7.579 38 14.462 38h11.077C32.421 38 38 32.421 38 25.538V14.462C38 7.579 32.421 2 25.538 2z" fill="#788b9c"></path><path d="M20 26.104c-1.102-1.682-2.5-4.137-2.5-5.104 0-1.378 1.122-2.5 2.5-2.5s2.5 1.122 2.5 2.5c0 .967-1.398 3.422-2.5 5.104z" fill="#c2e8ff"></path><path d="M20 19c1.103 0 2 .897 2 2 0 .662-.933 2.474-2 4.179-1.067-1.704-2-3.516-2-4.179 0-1.103.897-2 2-2m0-1c-1.657 0-3 1.343-3 3s3 6 3 6 3-4.343 3-6-1.343-3-3-3z" fill="#7496c4"></path><path d="M20 33.5a2.503 2.503 0 01-2.5-2.5c0-.967 1.398-3.422 2.5-5.104 1.102 1.682 2.5 4.137 2.5 5.104 0 1.378-1.122 2.5-2.5 2.5z" fill="#c2e8ff"></path><path d="M20 26.821c1.067 1.704 2 3.516 2 4.179 0 1.103-.897 2-2 2s-2-.897-2-2c0-.662.933-2.474 2-4.179M20 25s-3 4.343-3 6a3 3 0 106 0c0-1.657-3-6-3-6z" fill="#7496c4"></path><path d="M15.673 31a2.51 2.51 0 01-2.168-1.25 2.503 2.503 0 01.915-3.415c.288-.166 1.134-.445 3.571-.445.804 0 1.566.032 2.097.061-.906 1.795-2.332 4.231-3.168 4.714-.38.219-.812.335-1.247.335z" fill="#c2e8ff"></path><path d="M17.99 26.39c.458 0 .902.01 1.296.025-.942 1.775-2.044 3.487-2.617 3.817a1.993 1.993 0 01-.997.268 2.007 2.007 0 01-1.735-1.001 1.99 1.99 0 01-.2-1.518c.138-.516.469-.947.932-1.214.11-.062.784-.377 3.321-.377m0-1c-1.478 0-3.114.104-3.82.512a3 3 0 001.503 5.599c.509 0 1.025-.13 1.497-.402 1.435-.828 3.696-5.598 3.696-5.598s-1.354-.111-2.876-.111z" fill="#7496c4"></path><g><path d="M22.009 26.11a39.36 39.36 0 01-2.097-.061c.906-1.795 2.332-4.231 3.168-4.714.38-.219.812-.335 1.247-.335a2.51 2.51 0 012.168 1.25 2.503 2.503 0 01-.915 3.415c-.288.166-1.134.445-3.571.445z" fill="#c2e8ff"></path><path d="M24.328 21.5c.714 0 1.378.383 1.735 1.001a1.99 1.99 0 01.2 1.518 1.984 1.984 0 01-.932 1.214c-.109.063-.783.378-3.321.378-.458 0-.902-.01-1.296-.025.942-1.775 2.044-3.487 2.617-3.817.303-.177.648-.269.997-.269m-.001-1.001c-.509 0-1.025.13-1.497.402-1.435.828-3.696 5.598-3.696 5.598s1.354.11 2.876.11c1.478 0 3.114-.104 3.82-.512a3 3 0 00-1.503-5.598z" fill="#7496c4"></path></g><g><path d="M24.327 31c-.436 0-.867-.116-1.247-.335-.837-.483-2.263-2.919-3.168-4.714a39.36 39.36 0 012.097-.061c2.437 0 3.284.279 3.571.445a2.503 2.503 0 01.915 3.415A2.51 2.51 0 0124.327 31z" fill="#c2e8ff"></path><path d="M22.01 26.39c2.538 0 3.211.315 3.32.378.463.267.794.698.932 1.214a1.99 1.99 0 01-.2 1.518 2.003 2.003 0 01-2.732.732c-.573-.331-1.674-2.043-2.617-3.817a36.83 36.83 0 011.297-.025m0-1c-1.521 0-2.876.11-2.876.11s2.261 4.77 3.696 5.598a2.998 2.998 0 004.098-1.099 3 3 0 00-1.098-4.098c-.707-.407-2.342-.511-3.82-.511z" fill="#7496c4"></path></g><g><path d="M17.991 26.11c-2.437 0-3.284-.279-3.571-.445a2.503 2.503 0 01-.915-3.415 2.501 2.501 0 013.415-.915c.837.483 2.263 2.919 3.168 4.714a39.36 39.36 0 01-2.097.061z" fill="#c2e8ff"></path><path d="M15.673 21.5c.348 0 .693.093.997.268.573.331 1.674 2.043 2.617 3.817-.394.014-.838.025-1.296.025-2.538 0-3.211-.315-3.32-.378a1.984 1.984 0 01-.932-1.214 1.99 1.99 0 01.2-1.518c.355-.617 1.02-1 1.734-1m0-1.001a3 3 0 00-1.503 5.599c.707.408 2.343.512 3.82.512 1.521 0 2.876-.11 2.876-.11s-2.261-4.77-3.696-5.598a2.985 2.985 0 00-1.497-.403z" fill="#7496c4"></path></g><g><circle cx="20" cy="26" r="2.5" fill="#ffc49c"></circle><path d="M20 24c1.103 0 2 .897 2 2s-.897 2-2 2-2-.897-2-2 .897-2 2-2m0-1a3 3 0 100 6 3 3 0 000-6z" fill="#a16a4a"></path></g></svg>