<svg viewBox="0 0 40 40" xmlns="http://www.w3.org/2000/svg"><path d="M31.5 20c3.033 0 5.5 2.467 5.5 5.5S34.533 31 31.5 31 26 28.533 26 25.5s2.467-5.5 5.5-5.5m0-2a7.5 7.5 0 100 15 7.5 7.5 0 000-15z" fill="#c8d1db"></path><path d="M31.5 19c3.584 0 6.5 2.916 6.5 6.5S35.084 32 31.5 32 25 29.084 25 25.5s2.916-6.5 6.5-6.5m0-1a7.5 7.5 0 100 15 7.5 7.5 0 000-15z" fill="#66798f"></path><path d="M8.5 20c3.033 0 5.5 2.467 5.5 5.5S11.533 31 8.5 31 3 28.533 3 25.5 5.467 20 8.5 20m0-2a7.5 7.5 0 100 15 7.5 7.5 0 000-15z" fill="#c8d1db"></path><path d="M8.5 19c3.584 0 6.5 2.916 6.5 6.5S12.084 32 8.5 32 2 29.084 2 25.5 4.916 19 8.5 19m0-1a7.5 7.5 0 100 15 7.5 7.5 0 000-15z" fill="#66798f"></path><path d="M27.281 7.5h3.75a1.5 1.5 0 011.5 1.5v0a1.5 1.5 0 01-1.5 1.5H30" fill="none" stroke="#66798f" stroke-miterlimit="10"></path><path fill="none" stroke="#c74343" stroke-linejoin="round" stroke-miterlimit="10" d="M31.5 25.5l-7-18H28"></path><path fill="none" stroke="#c74343" stroke-miterlimit="10" d="M26.427 12.5H13.731L8.5 25.5M12.536 8.804L18 25.5M8.5 25.5H18l9.228-10.986"></path><circle cx="8.5" cy="25.5" r="1" fill="#66798f"></circle><g><circle cx="31.5" cy="25.5" r="1" fill="#66798f"></circle></g><path d="M14.679 9.667L9 11V9a1 1 0 011-1h6c0 .795-.547 1.486-1.321 1.667z" fill="#66798f"></path></svg>