<svg viewBox="0 0 40 40" xmlns="http://www.w3.org/2000/svg"><path fill="#ffeea3" d="M16.5 35.5V3.934L20 1.601l3.5 2.333V35.5z"></path><path d="M20 2.202l3 2V35h-6V4.202l3-2M20 1l-4 2.667V36h8V3.667L20 1z" fill="#ba9b48"></path><path fill="none" stroke="#ba9b48" stroke-linecap="round" stroke-linejoin="round" stroke-miterlimit="10" d="M23.5 13.5l-7 5.25 7 5.25-7 5.25 7 5.25"></path><path d="M10.5 38.5V37c0-.827.673-1.5 1.5-1.5h16c.827 0 1.5.673 1.5 1.5v1.5h-19z" fill="#f78f8f"></path><path d="M28 36c.551 0 1 .449 1 1v1H11v-1c0-.551.449-1 1-1h16m0-1H12a2 2 0 00-2 2v2h20v-2a2 2 0 00-2-2z" fill="#c74343"></path><g><path d="M9.5 9.5V7c0-.827.673-1.5 1.5-1.5h18c.827 0 1.5.673 1.5 1.5v2.5h-21z" fill="#f78f8f"></path><path d="M29 6c.551 0 1 .449 1 1v2H10V7c0-.551.449-1 1-1h18m0-1H11a2 2 0 00-2 2v3h22V7a2 2 0 00-2-2z" fill="#c74343"></path></g><g><path fill="#f78f8f" d="M8.5 9.5h23v3h-23z"></path><path d="M31 10v2H9v-2h22m1-1H8v4h24V9z" fill="#c74343"></path></g></svg>