<svg viewBox="0 0 40 40" xmlns="http://www.w3.org/2000/svg"><path fill="none" stroke="#66798f" stroke-miterlimit="10" d="M39 16.5H1"></path><path d="M20 16.5c-8.075 0-13.5-2.499-13.5-4.833C6.5 8.952 9.699 1.5 20 1.5s13.5 7.452 13.5 10.167c0 2.334-5.425 4.833-13.5 4.833z" fill="#bae0bd"></path><path d="M20 2c9.919 0 13 7.086 13 9.667C33 13.476 28.054 16 20 16S7 13.476 7 11.667C7 9.086 10.081 2 20 2m0-1C9.431 1 6 8.721 6 11.667S12.268 17 20 17s14-2.388 14-5.333S30.569 1 20 1z" fill="#5e9c76"></path><path fill="none" stroke="#66798f" stroke-linecap="round" stroke-miterlimit="10" d="M27.237 30.357L32.5 38.5M12.763 30.357L7.5 38.5"></path><path d="M20 16.5c-8.075 0-13.5-2.585-13.5-5s5.425-5 13.5-5 13.5 2.585 13.5 5-5.425 5-13.5 5z" fill="#f5ce85"></path><path d="M20 7c7.44 0 13 2.376 13 4.5S27.44 16 20 16 7 13.624 7 11.5 12.56 7 20 7m0-1C12.268 6 6 8.462 6 11.5S12.268 17 20 17s14-2.462 14-5.5S27.732 6 20 6z" fill="#5e9c76"></path><g><path d="M11.015 8.35c-.003.038-.015.076-.015.114C11 10.417 15.029 12 20 12s9-1.583 9-3.536c0-.039-.012-.076-.015-.114C26.689 7.548 23.565 7 20 7s-6.689.548-8.985 1.35z" fill="#ebc278"></path></g><g><path d="M20 36.5c-11.775 0-13.3-16.857-13.478-20h26.956c-.178 3.143-1.703 20-13.478 20z" fill="#bae0bd"></path><path d="M32.968 17c-.303 5.274-2.9 19-12.968 19S7.335 22.274 7.032 17h25.936M34 16H6c0 3.608 1.894 21 14 21s14-17.392 14-21z" fill="#5e9c76"></path></g></svg>