<svg viewBox="0 0 40 40" xmlns="http://www.w3.org/2000/svg"><path d="M28 22.5c-5.79 0-10.5-4.71-10.5-10.5S22.21 1.5 28 1.5 38.5 6.21 38.5 12 33.79 22.5 28 22.5z" fill="#ffeea3"></path><path d="M28 2c5.514 0 10 4.486 10 10s-4.486 10-10 10-10-4.486-10-10S22.486 2 28 2m0-1c-6.075 0-11 4.925-11 11s4.925 11 11 11 11-4.925 11-11S34.075 1 28 1z" fill="#ba9b48"></path><circle cx="28" cy="12" r="8" fill="#f5ce85"></circle><path fill="#fff7d1" d="M25.4 8.198v1.746l2-.801V17h2V6z"></path><path d="M15 38.5C7.556 38.5 1.5 32.444 1.5 25S7.556 11.5 15 11.5 28.5 17.556 28.5 25 22.444 38.5 15 38.5z" fill="#ffeea3"></path><path d="M15 12c7.168 0 13 5.832 13 13s-5.832 13-13 13S2 32.168 2 25s5.832-13 13-13m0-1C7.268 11 1 17.268 1 25s6.268 14 14 14 14-6.268 14-14-6.268-14-14-14z" fill="#ba9b48"></path><g><circle cx="15" cy="25" r="11" fill="#f5ce85"></circle></g><g><path d="M11 27.968l2.514-.258c.072.563.285 1.01.638 1.339.353.33.761.494 1.221.494.527 0 1.118-.206 1.483-.63.365-.424.548-1.063.548-1.917 0-.801-.181-1.401-.543-1.802-.363-.4-.996-.707-1.577-.707-.725 0-1.357.418-1.932 1.052l-2.048-.294 1.293-6.79h6.441v2.182h-4.47l-.453 2.375c.563-.279 1.121-.518 1.707-.518 1.12 0 2.231.51 3.009 1.317S20 25.663 20 26.951a4.677 4.677 0 01-.943 2.874c-.856 1.151-2.19 1.72-3.711 1.72-1.215 0-2.206-.323-2.972-.97-.766-.646-1.224-1.515-1.374-2.607z" fill="#fff"></path></g></svg>