<svg viewBox="0 0 40 40" xmlns="http://www.w3.org/2000/svg"><path fill="#fff" d="M5.5 1.5h29v37h-29z"></path><path d="M34 2v36H6V2h28m1-1H5v38h30V1z" fill="#788b9c"></path><path fill="none" stroke="#788b9c" stroke-miterlimit="10" d="M26 34.5h5M18 34.5h5M13 14.435h18M13 18.435h18M13 22.435h18M13 26.5h18"></path><path fill="#788b9c" d="M9 14h1v1H9zM9 18h1v1H9zM9 22h1v1H9zM9 26h1v1H9z"></path><path fill="none" stroke="#e1ebf2" stroke-miterlimit="10" d="M6 10.5h28M6 30.5h28"></path><path fill="none" stroke="#788b9c" stroke-miterlimit="10" d="M10 6.5h20"></path></svg>