<svg viewBox="0 0 40 40" xmlns="http://www.w3.org/2000/svg"><path fill="#c74343" d="M8 3h24v1H8zM9 6h22v1H9zM11 9h18v1H11zM13 12h14v1H13zM16 15h8v1h-8z"></path><path fill="#ab3434" d="M9 36h23v1H9zM9 33h22v1H9zM11 30h18v1H11zM13 27h14v1H13zM16 24h8v1h-8z"></path><path d="M5.505 38.5c.202-9.638 6.269-14.658 13.57-19.759 6.86-4.793 12.139-9.128 12.347-17.241h3.073c-.205 9.58-6.312 14.624-13.661 19.759C14.023 26.018 8.782 30.328 8.577 38.5H5.505z" fill="#c74343"></path><path d="M33.978 2c-.407 9.018-6.328 13.888-13.43 18.849C13.753 25.596 8.494 29.913 8.096 38H6.022c.401-9.074 6.284-13.92 13.34-18.849C26.203 14.37 31.5 10.033 31.904 2h2.074M35 1h-4.071c0 8.439-5.595 12.758-12.14 17.331C12.007 23.069 5 28.439 5 39h4.071c0-8.439 5.504-12.758 12.049-17.331C27.902 16.931 35 11.561 35 1z" fill="#ab3434"></path><g><path d="M31.493 38.5c-.239-8.695-6.73-13.23-12.47-17.241C12.017 16.365 5.716 11.163 5.506 1.5h3c.206 8.159 5.455 12.476 12.276 17.241 7.377 5.153 13.506 10.21 13.712 19.759h-3.001z" fill="#f78f8f"></path><path d="M8.024 2c.4 8.075 5.667 12.397 12.471 17.151 7.129 4.98 13.073 9.862 13.482 18.849h-2.004c-.465-8.627-6.933-13.147-12.664-17.151C12.281 15.939 6.42 11.105 6.022 2h2.002M9 1H5c0 10.561 6.955 15.931 13.737 20.669C25.282 26.242 31 30.561 31 39h4c0-10.561-7.15-15.931-13.932-20.669C14.524 13.758 9 9.439 9 1z" fill="#c74343"></path></g></svg>