<svg viewBox="0 0 40 40" xmlns="http://www.w3.org/2000/svg"><path d="M21.5 30c.275 0 .5.225.5.5v5c0 .275-.225.5-.5.5a.501.501 0 01-.5-.5v-5c0-.275.225-.5.5-.5z" fill="#36404d"></path><path fill="none" stroke="#36404d" stroke-linecap="round" stroke-miterlimit="10" d="M23.5 36.5l-2-1-1 1"></path><path d="M26.5 30c.275 0 .5.225.5.5v5c0 .275-.225.5-.5.5a.501.501 0 01-.5-.5v-5c0-.275.225-.5.5-.5z" fill="#36404d"></path><path d="M22.5 32.5a13.936 13.936 0 01-9.637-3.862l-.144-.138h-9.43c.312-.164.617-.333.938-.51.316-.174.646-.356 1.008-.549l1.774-.941H2.686c4.944-3.264 9.224-6.59 13.731-10.094a740.478 740.478 0 013.888-3.009c3.294-2.529 3.663-3.541 4.223-5.074.112-.308.233-.64.392-1.016.057-.142.116-.272.178-.402l.07-.154.011-.014A5.98 5.98 0 0130.5 3.5c3.309 0 6 2.691 6 6 0 .371-.259 1.056-.487 1.661-.264.696-.513 1.355-.513 1.839 0 .33.117.697.278 1.205.287.902.722 2.265.722 4.295 0 8.112-5.888 14-14 14z" fill="#8bb7f0"></path><path d="M30.5 4C33.533 4 36 6.467 36 9.5c0 .279-.263.975-.455 1.484-.28.74-.545 1.44-.545 2.016 0 .408.133.827.302 1.357.278.872.698 2.19.698 4.143C36 26.322 30.322 32 22.5 32a13.435 13.435 0 01-9.292-3.725l-.29-.275H5.25l.218-.117L9.017 26H4.331c4.388-2.978 8.293-6.013 12.385-9.194 1.27-.987 2.561-1.99 3.893-3.013 3.257-2.5 3.744-3.536 4.387-5.297.11-.301.228-.626.392-1.015.048-.122.102-.24.166-.374l.036-.08.001-.003.029-.056A5.488 5.488 0 0130.5 4m0-1a6.495 6.495 0 00-5.766 3.506l-.005-.001c-.031.064-.055.122-.083.184-.067.139-.13.279-.187.423C23.529 9.319 23.85 10.045 20 13c-6.516 5.002-12.042 9.542-19 14h4c-1.445.767-2.374 1.37-4 2h11.519c2.601 2.473 6.109 4 9.981 4C31 33 37 26.813 37 18.5c0-3.147-1-4.735-1-5.5 0-.808 1-2.601 1-3.5A6.5 6.5 0 0030.5 3z" fill="#4e7ab5"></path><circle cx="30.5" cy="8.5" r="1.5" fill="#36404d"></circle><path d="M8.801 31.344c2.129-5.183 6.117-12.38 8.692-14.956a6.405 6.405 0 014.56-1.888c1.722 0 3.341.67 4.559 1.888s1.889 2.837 1.889 4.559-.671 3.341-1.889 4.559c-2.765 2.765-13.405 5.009-17.811 5.838z" fill="#8bb7f0"></path><path d="M22.053 15c1.589 0 3.082.619 4.205 1.742A5.91 5.91 0 0128 20.947a5.908 5.908 0 01-1.742 4.205c-2.099 2.099-9.661 4.165-16.632 5.525 2.16-4.988 5.868-11.582 8.222-13.935A5.908 5.908 0 0122.053 15m0-1a6.926 6.926 0 00-4.913 2.035C14.427 18.748 10.083 26.625 8 32c6.417-1.158 16.252-3.427 18.965-6.14A6.948 6.948 0 0022.053 14z" fill="#4e7ab5"></path><path d="M36 9a1 1 0 00-.941.66c-.038.106-.042.17-.127.254-.091.091-.183.109-.295.153A1 1 0 0035 12h4c0-1.329-1.9-3-3-3z" fill="#36404d"></path><path fill="none" stroke="#36404d" stroke-linecap="round" stroke-miterlimit="10" d="M28.5 36.5l-2-1-1 1"></path></svg>