<svg viewBox="0 0 40 40" xmlns="http://www.w3.org/2000/svg"><path d="M16.5 20.5V13a1.5 1.5 0 011.5-1.5h4a1.5 1.5 0 011.5 1.5v7.5z" fill="#ffb5d2"></path><path d="M22 12a1 1 0 011 1v7h-6v-7a1 1 0 011-1h4m0-1h-4a2 2 0 00-2 2v8h8v-8a2 2 0 00-2-2z" fill="#ea4c89"></path><path fill="#dbb065" d="M3.5 25.5h33v9h-33z"></path><path d="M36 26v8H4v-8h32m1-1H3v10h34V25z" fill="#967a44"></path><path d="M5 38.5A3.5 3.5 0 011.5 35v-.5h37v.5a3.5 3.5 0 01-3.5 3.5z" fill="#fff"></path><path d="M38 35a3 3 0 01-3 3H5a3 3 0 01-3-3h36m1-1H1v1a4 4 0 004 4h30a4 4 0 004-4v-1z" fill="#788b9c"></path><path d="M31.5 29.5a5.33 5.33 0 01-4.63-2.18l-.38-.65-.45.6c-1 1.33-3.42 2.23-6 2.23s-5-.9-6-2.23l-.45-.6-.38.65A5.33 5.33 0 018.5 29.5c-2.76 0-5-1.57-5-3.5v-1A4.5 4.5 0 018 20.5h24a4.5 4.5 0 014.5 4.5v1c0 1.93-2.24 3.5-5 3.5z" fill="#ffc49c"></path><path d="M32 21a4 4 0 014 4v1c0 1.63-2.06 3-4.5 3a4.9 4.9 0 01-4.2-1.94l-.76-1.3-.9 1.24c-.75 1-2.79 2-5.64 2s-4.88-1-5.64-2l-.9-1.21-.76 1.3A4.9 4.9 0 018.5 29C6.06 29 4 27.63 4 26v-1a4 4 0 014-4h24m0-1H8a5 5 0 00-5 5v1c0 2.21 2.46 4 5.5 4a5.82 5.82 0 005.06-2.43C14.63 29 17.11 30 20 30s5.37-1 6.44-2.43A5.82 5.82 0 0031.5 30c3 0 5.5-1.79 5.5-4v-1a5 5 0 00-5-5z" fill="#a16a4a"></path><path d="M20 10.5A3.5 3.5 0 0116.5 7c0-1.49 2.26-4.64 3.5-6.21 1.24 1.57 3.5 4.72 3.5 6.21a3.5 3.5 0 01-3.5 3.5z" fill="#ffeea3"></path><path d="M20 1.6c1.43 1.87 3 4.32 3 5.4a3 3 0 01-6 0c0-1.07 1.57-3.53 3-5.4M20 0s-4 4.79-4 7a4 4 0 008 0c0-2.21-4-7-4-7z" fill="#ba9b48"></path><path d="M21.5 8.5a1.5 1.5 0 01-3 0c0-.83 1.5-3 1.5-3s1.5 2.17 1.5 3z" fill="#c74343"></path></svg>