<svg viewBox="0 0 40 40" xmlns="http://www.w3.org/2000/svg"><path d="M17.5 21.5V13c0-.827.673-1.5 1.5-1.5h2c.827 0 1.5.673 1.5 1.5v8.5h-5z" fill="#8bb7f0"></path><path d="M21 12c.551 0 1 .449 1 1v8h-4v-8c0-.551.449-1 1-1h2m0-1h-2a2 2 0 00-2 2v9h6v-9a2 2 0 00-2-2z" fill="#4e7ab5"></path><path fill="#ffc49c" d="M4.5 25.5h31v9h-31z"></path><path d="M35 26v8H5v-8h30m1-1H4v10h32V25z" fill="#a16a4a"></path><path d="M5 38.5c-1.93 0-3.5-1.57-3.5-3.5v-.5h37v.5c0 1.93-1.57 3.5-3.5 3.5H5z" fill="#c2e8ff"></path><path d="M38 35c0 1.654-1.346 3-3 3H5c-1.654 0-3-1.346-3-3h36m1-1H1v1a4 4 0 004 4h30a4 4 0 004-4v-1z" fill="#7496c4"></path><path d="M20 9.5A2.503 2.503 0 0117.5 7c0-.963 1.398-3.419 2.5-5.103 1.102 1.684 2.5 4.14 2.5 5.103 0 1.378-1.122 2.5-2.5 2.5z" fill="#f78f8f"></path><path d="M20 2.823C21.067 4.528 22 6.34 22 7c0 1.103-.897 2-2 2s-2-.897-2-2c0-.659.933-2.471 2-4.177M20 1s-3 4.35-3 6 1.35 3 3 3 3-1.35 3-3-3-6-3-6z" fill="#c74343"></path><path d="M26.5 21.5V13c0-.827.673-1.5 1.5-1.5h2c.827 0 1.5.673 1.5 1.5v8.5h-5z" fill="#8bb7f0"></path><path d="M30 12c.551 0 1 .449 1 1v8h-4v-8c0-.551.449-1 1-1h2m0-1h-2a2 2 0 00-2 2v9h6v-9a2 2 0 00-2-2z" fill="#4e7ab5"></path><g><path d="M29 9.5A2.503 2.503 0 0126.5 7c0-.963 1.398-3.419 2.5-5.103 1.102 1.684 2.5 4.14 2.5 5.103 0 1.378-1.122 2.5-2.5 2.5z" fill="#f78f8f"></path><path d="M29 2.823C30.067 4.528 31 6.34 31 7c0 1.103-.897 2-2 2s-2-.897-2-2c0-.659.933-2.471 2-4.177M29 1s-3 4.35-3 6 1.35 3 3 3 3-1.35 3-3-3-6-3-6z" fill="#c74343"></path></g><g><path d="M8.5 21.5V13c0-.827.673-1.5 1.5-1.5h2c.827 0 1.5.673 1.5 1.5v8.5h-5z" fill="#8bb7f0"></path><path d="M12 12c.551 0 1 .449 1 1v8H9v-8c0-.551.449-1 1-1h2m0-1h-2a2 2 0 00-2 2v9h6v-9a2 2 0 00-2-2z" fill="#4e7ab5"></path></g><g><path d="M11 9.5A2.503 2.503 0 018.5 7c0-.963 1.398-3.419 2.5-5.103 1.102 1.684 2.5 4.14 2.5 5.103 0 1.378-1.122 2.5-2.5 2.5z" fill="#f78f8f"></path><path d="M11 2.823C12.067 4.528 13 6.34 13 7c0 1.103-.897 2-2 2s-2-.897-2-2c0-.659.933-2.471 2-4.177M11 1S8 5.35 8 7s1.35 3 3 3 3-1.35 3-3-3-6-3-6z" fill="#c74343"></path></g><g><path d="M30 29.5c-2.152 0-3.7-1.295-4.618-2.382L25 26.667l-.382.452C23.7 28.205 22.152 29.5 20 29.5s-3.7-1.295-4.618-2.382L15 26.667l-.382.452C13.7 28.205 12.152 29.5 10 29.5c-3.274 0-5.164-3.037-5.5-3.628V25c0-1.93 1.57-3.5 3.5-3.5h24c1.93 0 3.5 1.57 3.5 3.5v.872c-.336.591-2.226 3.628-5.5 3.628z" fill="#ffeea3"></path><path d="M32 22c1.654 0 3 1.346 3 3v.739c-.431.726-2.142 3.261-5 3.261-1.961 0-3.386-1.199-4.236-2.205L25 25.892l-.764.903C23.386 27.801 21.961 29 20 29s-3.386-1.199-4.236-2.205L15 25.892l-.764.903C13.386 27.801 11.961 29 10 29c-2.838 0-4.566-2.54-5-3.263V25c0-1.654 1.346-3 3-3h24m0-1H8a4 4 0 00-4 4v1s2.029 4 6 4c2.362 0 4.03-1.412 5-2.559.97 1.147 2.638 2.559 5 2.559s4.03-1.412 5-2.559C25.97 28.588 27.638 30 30 30c3.971 0 6-4 6-4v-1a4 4 0 00-4-4z" fill="#ba9b48"></path></g></svg>