<svg viewBox="0 0 40 40" xmlns="http://www.w3.org/2000/svg"><path d="M11.928 37.5A3.432 3.432 0 018.5 34.072V5.928A3.432 3.432 0 0111.928 2.5h16.145a3.432 3.432 0 013.428 3.428v28.145a3.432 3.432 0 01-3.428 3.428H11.928z" fill="#b0c1d4"></path><path d="M28.072 3A2.93 2.93 0 0131 5.928v28.144A2.93 2.93 0 0128.072 37H11.928A2.93 2.93 0 019 34.072V5.928A2.93 2.93 0 0111.928 3h16.144m0-1H11.928A3.928 3.928 0 008 5.928v28.144A3.928 3.928 0 0011.928 38h16.144A3.928 3.928 0 0032 34.072V5.928A3.928 3.928 0 0028.072 2z" fill="#66798f"></path><path fill="#c2e8ff" d="M8.5 6.5h23v16h-23z"></path><path d="M31 7v15H9V7h22m1-1H8v17h24V6z" fill="#66798f"></path><path d="M16.5 27h-1a.5.5 0 01-.5-.5v-1a.5.5 0 01.5-.5h1a.5.5 0 01.5.5v1a.5.5 0 01-.5.5zM20.5 27h-1a.5.5 0 01-.5-.5v-1a.5.5 0 01.5-.5h1a.5.5 0 01.5.5v1a.5.5 0 01-.5.5zM24.5 27h-1a.5.5 0 01-.5-.5v-1a.5.5 0 01.5-.5h1a.5.5 0 01.5.5v1a.5.5 0 01-.5.5zM28.5 27h-1a.5.5 0 01-.5-.5v-1a.5.5 0 01.5-.5h1a.5.5 0 01.5.5v1a.5.5 0 01-.5.5zM16.5 31h-1a.5.5 0 01-.5-.5v-1a.5.5 0 01.5-.5h1a.5.5 0 01.5.5v1a.5.5 0 01-.5.5zM20.5 31h-1a.5.5 0 01-.5-.5v-1a.5.5 0 01.5-.5h1a.5.5 0 01.5.5v1a.5.5 0 01-.5.5zM24.5 31h-1a.5.5 0 01-.5-.5v-1a.5.5 0 01.5-.5h1a.5.5 0 01.5.5v1a.5.5 0 01-.5.5zM28.5 31h-1a.5.5 0 01-.5-.5v-1a.5.5 0 01.5-.5h1a.5.5 0 01.5.5v1a.5.5 0 01-.5.5zM16.5 35h-1a.5.5 0 01-.5-.5v-1a.5.5 0 01.5-.5h1a.5.5 0 01.5.5v1a.5.5 0 01-.5.5zM12.5 27h-1a.5.5 0 01-.5-.5v-1a.5.5 0 01.5-.5h1a.5.5 0 01.5.5v1a.5.5 0 01-.5.5zM12.5 31h-1a.5.5 0 01-.5-.5v-1a.5.5 0 01.5-.5h1a.5.5 0 01.5.5v1a.5.5 0 01-.5.5zM12.5 35h-1a.5.5 0 01-.5-.5v-1a.5.5 0 01.5-.5h1a.5.5 0 01.5.5v1a.5.5 0 01-.5.5zM20.5 35h-1a.5.5 0 01-.5-.5v-1a.5.5 0 01.5-.5h1a.5.5 0 01.5.5v1a.5.5 0 01-.5.5zM24.5 35h-1a.5.5 0 01-.5-.5v-1a.5.5 0 01.5-.5h1a.5.5 0 01.5.5v1a.5.5 0 01-.5.5zM28.5 35h-1a.5.5 0 01-.5-.5v-1a.5.5 0 01.5-.5h1a.5.5 0 01.5.5v1a.5.5 0 01-.5.5z" fill="#f2faff"></path></svg>