<svg viewBox="0 0 40 40" xmlns="http://www.w3.org/2000/svg"><path d="M3.5 30.5v-2a1.001 1.001 0 000-2h-3v-13h3a1.001 1.001 0 000-2v-2h33v2a1.001 1.001 0 000 2h3v13h-3a1.001 1.001 0 000 2v2h-33z" fill="#dcd5f2"></path><path d="M36 10v1.086c-.582.206-1 .762-1 1.414 0 .827.673 1.5 1.5 1.5H39v12h-2.5c-.827 0-1.5.673-1.5 1.5 0 .652.418 1.208 1 1.414V30H4v-1.086c.582-.206 1-.762 1-1.414 0-.827-.673-1.5-1.5-1.5H1V14h2.5c.827 0 1.5-.673 1.5-1.5 0-.652-.418-1.208-1-1.414V10h32m1-1H3v3h.5c.275 0 .5.225.5.5s-.225.5-.5.5H0v14h3.5c.275 0 .5.225.5.5s-.225.5-.5.5H3v3h34v-3h-.5a.501.501 0 01-.5-.5c0-.275.225-.5.5-.5H40V13h-3.5a.501.501 0 01-.5-.5c0-.275.225-.5.5-.5h.5V9z" fill="#8b75a1"></path><g fill="#ebe6ff"><path d="M4 10v1.086c.582.206 1 .762 1 1.414 0 .827-.673 1.5-1.5 1.5H1v12h.292l17.333-16H4zM23.789 10L4.987 27.376c.004.042.013.082.013.124 0 .652-.418 1.208-1 1.414V30h1.832l21.641-20h-3.684z"></path></g><g fill="#8b75a1"><path d="M6.5 19.5h27v1h-27z"></path><path d="M34 19H6v2h28v-2z"></path></g><g fill="#8b75a1"><circle cx="20" cy="20" r="2"></circle><path d="M20 18.5c.827 0 1.5.673 1.5 1.5s-.673 1.5-1.5 1.5-1.5-.673-1.5-1.5.673-1.5 1.5-1.5m0-1a2.5 2.5 0 100 5 2.5 2.5 0 000-5z"></path></g><g fill="#8b75a1"><path d="M29.5 21.993c-.307-.12-1.128-.994-1.875-1.987.805-1.035 1.651-1.925 1.925-2.012.178.085 1.03.991 1.825 2.012-.747.993-1.568 1.867-1.875 1.987z"></path><path d="M29.5 18.644c.306.277.775.794 1.24 1.367-.464.59-.939 1.116-1.24 1.375-.301-.259-.776-.786-1.24-1.376.465-.573.934-1.09 1.24-1.366m0-1.144c-.625 0-2.5 2.5-2.5 2.5s1.797 2.5 2.5 2.5S32 20 32 20s-1.875-2.5-2.5-2.5z"></path></g><g fill="#8b75a1"><path d="M25 22.5a.501.501 0 01-.5-.5v-4c0-.275.225-.5.5-.5s.5.225.5.5v4c0 .275-.225.5-.5.5z"></path><path d="M25 17.5c-.275 0-.5.225-.5.5v4c0 .275.225.5.5.5s.5-.225.5-.5v-4c0-.275-.225-.5-.5-.5z"></path></g><g fill="#8b75a1"><path d="M34.5 22.5a.501.501 0 01-.5-.5v-4c0-.275.225-.5.5-.5s.5.225.5.5v4c0 .275-.225.5-.5.5z"></path><path d="M34.5 17.5c-.275 0-.5.225-.5.5v4c0 .275.225.5.5.5s.5-.225.5-.5v-4c0-.275-.225-.5-.5-.5z"></path></g><g fill="#8b75a1"><path d="M10.5 21.993c-.307-.12-1.128-.994-1.875-1.987.805-1.035 1.651-1.925 1.925-2.012.178.085 1.03.991 1.825 2.012-.747.993-1.568 1.867-1.875 1.987z"></path><path d="M10.5 18.644c.306.277.775.794 1.24 1.367-.464.59-.939 1.116-1.24 1.375-.301-.259-.776-.786-1.24-1.376.465-.573.934-1.09 1.24-1.366m0-1.144C9.875 17.5 8 20 8 20s1.797 2.5 2.5 2.5S13 20 13 20s-1.875-2.5-2.5-2.5z"></path></g><g fill="#8b75a1"><path d="M15 22.5c.275 0 .5-.225.5-.5v-4c0-.275-.225-.5-.5-.5s-.5.225-.5.5v4c0 .275.225.5.5.5z"></path><path d="M15 17.5c-.275 0-.5.225-.5.5v4c0 .275.225.5.5.5s.5-.225.5-.5v-4c0-.275-.225-.5-.5-.5z"></path></g><g fill="#8b75a1"><path d="M5.5 22.5c.275 0 .5-.225.5-.5v-4c0-.275-.225-.5-.5-.5s-.5.225-.5.5v4c0 .275.225.5.5.5z"></path><path d="M5.5 17.5c-.275 0-.5.225-.5.5v4c0 .275.225.5.5.5s.5-.225.5-.5v-4c0-.275-.225-.5-.5-.5z"></path></g></svg>