<svg viewBox="0 0 40 40" xmlns="http://www.w3.org/2000/svg"><path fill="none" stroke="#a16a4a" stroke-miterlimit="10" d="M4.5 15V1M35.5 15V1"></path><path fill="#dbf2ff" d="M6.5 1.5h27v37h-27z"></path><path d="M33 2v36H7V2h26m1-1H6v38h28V1z" fill="#4e7ab5"></path><path fill="#dbf2ff" d="M6 2h28v14H6z"></path><path fill="#ffc49c" d="M1.5 1.5h37v3h-37z"></path><path d="M38 2v2H2V2h36m1-1H1v4h38V1z" fill="#a16a4a"></path><path fill="#ffc49c" d="M1.5 6.5h37v3h-37z"></path><path d="M38 7v2H2V7h36m1-1H1v4h38V6z" fill="#a16a4a"></path><path fill="#ffc49c" d="M1.5 11.5h37v3h-37z"></path><path d="M38 12v2H2v-2h36m1-1H1v4h38v-4z" fill="#a16a4a"></path><circle cx="37.5" cy="31.5" r="1" fill="#ffc49c"></circle><path d="M37.5 31a.5.5 0 110 1 .5.5 0 010-1m0-1a1.5 1.5 0 10.001 3.001A1.5 1.5 0 0037.5 30z" fill="#a16a4a"></path><circle cx="37.5" cy="24.5" r=".5" fill="#a16a4a"></circle><circle cx="37.5" cy="22.5" r=".5" fill="#a16a4a"></circle><circle cx="37.5" cy="20.5" r=".5" fill="#a16a4a"></circle><g><circle cx="37.5" cy="28.5" r=".5" fill="#a16a4a"></circle></g><g><circle cx="37.5" cy="26.5" r=".5" fill="#a16a4a"></circle></g><g><circle cx="37.5" cy="18.5" r=".5" fill="#a16a4a"></circle></g><g><circle cx="37.5" cy="16.5" r=".5" fill="#a16a4a"></circle></g><g><path d="M19.36 33.5l-.741-2.224-.221-.084a4.51 4.51 0 01-1.216-.712l-.184-.148-2.309.473-.64-1.108 1.56-1.758-.037-.233c-.036-.233-.072-.464-.072-.706s.036-.473.073-.705l.037-.233-1.56-1.758.64-1.108 2.309.473.184-.148a4.51 4.51 0 011.216-.712l.221-.084.74-2.225h1.279l.741 2.224.221.084a4.51 4.51 0 011.216.712l.184.148 2.309-.473.64 1.108-1.56 1.758.037.233c.037.233.073.464.073.706s-.036.473-.073.705l-.037.233 1.56 1.758-.64 1.108-2.309-.473-.184.148a4.51 4.51 0 01-1.216.712l-.221.084-.74 2.225h-1.28zm.64-9c-1.379 0-2.5 1.122-2.5 2.5s1.121 2.5 2.5 2.5 2.5-1.122 2.5-2.5-1.121-2.5-2.5-2.5z" fill="#8bb7f0"></path><path d="M20.279 21l.553 1.658.15.449.442.169c.375.144.738.356 1.079.633l.367.298.463-.095 1.724-.353.279.484-1.163 1.311-.313.353.074.467c.036.229.066.435.066.626s-.03.397-.067.627l-.074.467.313.353 1.163 1.311-.279.484-1.724-.353-.463-.095-.367.298a4.003 4.003 0 01-1.079.633l-.442.169-.15.449L20.279 33h-.558l-.553-1.658-.15-.449-.442-.169a3.977 3.977 0 01-1.079-.633l-.367-.298-.463.095-1.724.353-.279-.484 1.163-1.311.313-.353-.074-.467C16.03 27.397 16 27.191 16 27s.03-.397.067-.627l.074-.467-.313-.353-1.163-1.311.279-.484 1.724.353.463.095.367-.298a4.003 4.003 0 011.079-.633l.442-.169.15-.449.552-1.657h.558M20 30c1.654 0 3-1.346 3-3s-1.346-3-3-3-3 1.346-3 3 1.346 3 3 3m1-10h-2l-.781 2.341c-.496.19-.945.461-1.351.79l-2.43-.497-1 1.732 1.641 1.851c-.041.257-.079.515-.079.783s.038.526.079.783l-1.641 1.851 1 1.732 2.43-.497c.406.329.855.6 1.351.79L19 34h2l.781-2.341c.496-.19.945-.461 1.351-.79l2.43.497 1-1.732-1.641-1.851c.041-.257.079-.515.079-.783s-.038-.526-.079-.783l1.641-1.851-1-1.732-2.43.497a4.966 4.966 0 00-1.351-.79L21 20zm-1 9a2 2 0 11-.001-3.999A2 2 0 0120 29z" fill="#4e7ab5"></path></g></svg>