<svg viewBox="0 0 40 40" xmlns="http://www.w3.org/2000/svg"><path d="M20 31.5c-9.218 0-17.002-9.688-18.377-11.5C2.999 18.188 10.79 8.5 20 8.5c9.218 0 17.002 9.688 18.377 11.5C37.001 21.812 29.21 31.5 20 31.5z" fill="#e1ebf2"></path><path d="M20 9c8.556 0 15.912 8.657 17.746 11.001C35.915 22.345 28.57 31 20 31c-8.556 0-15.912-8.657-17.746-11.001C4.085 17.655 11.43 9 20 9m0-1C9.507 8 1 20 1 20s8.507 12 19 12 19-12 19-12S30.493 8 20 8z" fill="#ba9b48"></path><circle cx="20" cy="20" r="8.5" fill="#c2e8ff"></circle><path d="M20 12c4.411 0 8 3.589 8 8s-3.589 8-8 8-8-3.589-8-8 3.589-8 8-8m0-1c-4.971 0-9 4.029-9 9s4.029 9 9 9 9-4.029 9-9-4.029-9-9-9z" fill="#7496c4"></path><g><circle cx="20" cy="20" r="4.5" fill="#8bb7f0"></circle><path d="M20 16c2.206 0 4 1.794 4 4s-1.794 4-4 4-4-1.794-4-4 1.794-4 4-4m0-1a5 5 0 10.001 10.001A5 5 0 0020 15z" fill="#4e7ab5"></path></g><path fill="none" stroke="#36404d" stroke-miterlimit="10" d="M3 3l34 34"></path></svg>