<svg viewBox="0 0 40 40" xmlns="http://www.w3.org/2000/svg"><path fill="none" stroke="#a16a4a" stroke-miterlimit="10" d="M4.5 15V1M35.5 15V1"></path><path fill="#dbf2ff" d="M6.5 1.5h27v37h-27z"></path><path d="M33 2v36H7V2h26m1-1H6v38h28V1z" fill="#4e7ab5"></path><path fill="#dbf2ff" d="M6 2h28v14H6z"></path><path fill="#ffc49c" d="M1.5 1.5h37v3h-37z"></path><path d="M38 2v2H2V2h36m1-1H1v4h38V1z" fill="#a16a4a"></path><path fill="#ffc49c" d="M1.5 6.5h37v3h-37z"></path><path d="M38 7v2H2V7h36m1-1H1v4h38V6z" fill="#a16a4a"></path><path fill="#ffc49c" d="M1.5 11.5h37v3h-37z"></path><path d="M38 12v2H2v-2h36m1-1H1v4h38v-4z" fill="#a16a4a"></path><circle cx="37.5" cy="31.5" r="1" fill="#ffc49c"></circle><path d="M37.5 31a.5.5 0 110 1 .5.5 0 010-1m0-1a1.5 1.5 0 10.001 3.001A1.5 1.5 0 0037.5 30z" fill="#a16a4a"></path><circle cx="37.5" cy="24.5" r=".5" fill="#a16a4a"></circle><circle cx="37.5" cy="22.5" r=".5" fill="#a16a4a"></circle><circle cx="37.5" cy="20.5" r=".5" fill="#a16a4a"></circle><g><circle cx="37.5" cy="28.5" r=".5" fill="#a16a4a"></circle></g><g><circle cx="37.5" cy="26.5" r=".5" fill="#a16a4a"></circle></g><g><circle cx="37.5" cy="18.5" r=".5" fill="#a16a4a"></circle></g><g><circle cx="37.5" cy="16.5" r=".5" fill="#a16a4a"></circle></g><g><path fill="#8bb7f0" d="M15.207 28.5H18.5v-8h3v8h3.293L20 33.293z"></path><path d="M21 21v8H23.586L20 32.586 16.414 29H19v-8h2m1-1h-4v8h-4l6 6 6-6h-4v-8z" fill="#4e7ab5"></path></g></svg>