<svg viewBox="0 0 40 40" xmlns="http://www.w3.org/2000/svg"><path fill="none" stroke="#8b75a1" stroke-miterlimit="10" d="M8 17.5h24"></path><path d="M18 26.5a4.505 4.505 0 01-4.5-4.5V6c0-2.481 2.019-4.5 4.5-4.5h4c2.481 0 4.5 2.019 4.5 4.5v15.79c-.493.492-1.022 1.091-1.58 1.723-1.018 1.152-2.165 2.453-3.053 2.987H18z" fill="#dcd5f2"></path><path d="M22 2c2.206 0 4 1.794 4 4v15.585a44.038 44.038 0 00-1.454 1.597c-.95 1.076-2.017 2.284-2.823 2.818H18c-2.206 0-4-1.794-4-4V6c0-2.206 1.794-4 4-4h4m0-1h-4a5 5 0 00-5 5v16a5 5 0 005 5h4c1.5-.817 3.5-3.552 5-5V6a5 5 0 00-5-5z" fill="#8b75a1"></path><path fill="#dcd5f2" d="M18.5 31.5h3v6h-3z"></path><path d="M21 32v5h-2v-5h2m1-1h-4v7h4v-7z" fill="#8b75a1"></path><path d="M11.5 38.5V38c0-1.378 1.121-2.5 2.5-2.5h11a3.507 3.507 0 013.465 3H11.5z" fill="#dcd5f2"></path><path d="M25 36c1.304 0 2.416.836 2.829 2H12c0-1.103.897-2 2-2h11m0-1H14a3 3 0 00-3 3v1h18a4 4 0 00-4-4z" fill="#8b75a1"></path><circle cx="20" cy="20" r="1" fill="#c74343"></circle><path fill="none" stroke="#8b75a1" stroke-miterlimit="10" d="M8.5 16v3M31.5 16v3"></path><circle cx="16.5" cy="2.5" r=".5" fill="#8b75a1"></circle><circle cx="18.5" cy="2.5" r=".5" fill="#8b75a1"></circle><circle cx="20.5" cy="2.5" r=".5" fill="#8b75a1"></circle><circle cx="22.5" cy="2.5" r=".5" fill="#8b75a1"></circle><circle cx="17.5" cy="4.5" r=".5" fill="#8b75a1"></circle><circle cx="19.5" cy="4.5" r=".5" fill="#8b75a1"></circle><circle cx="21.5" cy="4.5" r=".5" fill="#8b75a1"></circle><circle cx="23.5" cy="4.5" r=".5" fill="#8b75a1"></circle><circle cx="25.5" cy="4.5" r=".5" fill="#8b75a1"></circle><circle cx="15.5" cy="4.5" r=".5" fill="#8b75a1"></circle><circle cx="16.5" cy="6.5" r=".5" fill="#8b75a1"></circle><circle cx="18.5" cy="6.5" r=".5" fill="#8b75a1"></circle><circle cx="20.5" cy="6.5" r=".5" fill="#8b75a1"></circle><circle cx="22.5" cy="6.5" r=".5" fill="#8b75a1"></circle><circle cx="24.5" cy="6.5" r=".5" fill="#8b75a1"></circle><circle cx="14.5" cy="6.5" r=".5" fill="#8b75a1"></circle><circle cx="17.5" cy="8.5" r=".5" fill="#8b75a1"></circle><circle cx="19.5" cy="8.5" r=".5" fill="#8b75a1"></circle><circle cx="21.5" cy="8.5" r=".5" fill="#8b75a1"></circle><circle cx="23.5" cy="8.5" r=".5" fill="#8b75a1"></circle><circle cx="25.5" cy="8.5" r=".5" fill="#8b75a1"></circle><circle cx="15.5" cy="8.5" r=".5" fill="#8b75a1"></circle><circle cx="16.5" cy="10.5" r=".5" fill="#8b75a1"></circle><circle cx="18.5" cy="10.5" r=".5" fill="#8b75a1"></circle><circle cx="20.5" cy="10.5" r=".5" fill="#8b75a1"></circle><circle cx="22.5" cy="10.5" r=".5" fill="#8b75a1"></circle><circle cx="24.5" cy="10.5" r=".5" fill="#8b75a1"></circle><circle cx="14.5" cy="10.5" r=".5" fill="#8b75a1"></circle><circle cx="16.5" cy="14.5" r=".5" fill="#8b75a1"></circle><circle cx="18.5" cy="14.5" r=".5" fill="#8b75a1"></circle><circle cx="20.5" cy="14.5" r=".5" fill="#8b75a1"></circle><circle cx="22.5" cy="14.5" r=".5" fill="#8b75a1"></circle><circle cx="24.5" cy="14.5" r=".5" fill="#8b75a1"></circle><circle cx="14.5" cy="14.5" r=".5" fill="#8b75a1"></circle><circle cx="17.5" cy="12.5" r=".5" fill="#8b75a1"></circle><circle cx="19.5" cy="12.5" r=".5" fill="#8b75a1"></circle><circle cx="21.5" cy="12.5" r=".5" fill="#8b75a1"></circle><circle cx="23.5" cy="12.5" r=".5" fill="#8b75a1"></circle><circle cx="25.5" cy="12.5" r=".5" fill="#8b75a1"></circle><circle cx="15.5" cy="12.5" r=".5" fill="#8b75a1"></circle><path fill="none" stroke="#8b75a1" stroke-miterlimit="10" d="M13.214 16.5h13.572M22.061 31.276A9.522 9.522 0 0120 31.5h0a9.5 9.5 0 01-9.5-9.5v-4.5M29.5 17.5V22"></path><g><path d="M29.5 38.5c-4.963 0-9-4.038-9-9s4.037-9 9-9 9 4.038 9 9-4.037 9-9 9zm-4.212-3.382l.536.333a6.982 6.982 0 003.676 1.05c3.859 0 7-3.14 7-7a6.968 6.968 0 00-1.051-3.675l-.332-.537-9.829 9.829zM29.5 22.5c-3.859 0-7 3.14-7 7 0 1.295.363 2.566 1.051 3.675l.332.537 9.829-9.83-.536-.333A6.992 6.992 0 0029.5 22.5z" fill="#f78f8f"></path><path d="M29.5 21c4.687 0 8.5 3.813 8.5 8.5S34.187 38 29.5 38 21 34.187 21 29.5s3.813-8.5 8.5-8.5m-5.71 13.512l.893-.893 8.937-8.937.893-.893-1.074-.665A7.489 7.489 0 0029.5 22c-4.135 0-7.5 3.364-7.5 7.5a7.48 7.48 0 001.125 3.939l.665 1.073M29.5 37c4.135 0 7.5-3.364 7.5-7.5a7.48 7.48 0 00-1.125-3.939l-.665-1.074-.893.893-8.937 8.937-.893.893 1.074.665A7.48 7.48 0 0029.5 37m0-17a9.5 9.5 0 00-9.5 9.5c0 5.247 4.253 9.5 9.5 9.5s9.5-4.253 9.5-9.5a9.5 9.5 0 00-9.5-9.5zm-5.525 12.912A6.462 6.462 0 0123 29.5a6.5 6.5 0 016.5-6.5c1.253 0 2.42.361 3.412.975l-8.937 8.937zM29.5 36a6.462 6.462 0 01-3.412-.975l8.937-8.937c.614.992.975 2.159.975 3.412a6.5 6.5 0 01-6.5 6.5z" fill="#c74343"></path></g></svg>