<svg viewBox="0 0 40 40" xmlns="http://www.w3.org/2000/svg"><path d="M30.926 2.647c.038-.008.092-.065.093-.1.006-.512.004-1.023.004-1.547-.494.112-.959.212-1.421.325-.053.013-.128.09-.129.139-.01.485-.006.969-.006 1.492.516-.108.988-.205 1.459-.309zM30.873 37.342c-.297-.071-.596-.13-.896-.191-.163-.033-.327-.064-.51-.099 0 .513-.003.99.004 1.468.001.05.051.135.092.145.477.116.956.221 1.46.335 0-.523.003-1.029-.007-1.535 0-.044-.086-.11-.143-.123zM23.674 36.076V37.586l1.543.24v-.001-1.53l-1.543-.219zM21.307 4.122c.007-.459.004-.919.004-1.397l-1.574.169v1.467c.501-.048.987-.093 1.474-.145.036-.003.096-.06.096-.094zM18.851 35.568c-.354-.034-.709-.058-1.075-.087h-.001v1.456l1.565.13v-.958c0-.491 0-.494-.489-.541zM29.462 34.75a.292.292 0 00.051.126c.096.126.381.11.585.149.302.058.605.11.911.164V33.75c-.511-.085-1.008-.168-1.542-.255l-.001.392c0 .124 0 .244.002.363.003.161-.034.354-.006.5zM31.423 33.825V35.272l1.515.309v-.001-1.477l-1.515-.278c0-.001 0 0 0 0zM31.416 4.362l1.52-.32-.001-1.476c-.481.108-.953.213-1.423.324-.038.009-.092.062-.093.096-.006.453-.004.906-.003 1.376 0-.001 0 0 0 0zM19.737 34.01V35.306l1.561.15V34.144l-1.561-.134zM29.078 1.441c-.349.07-.684.137-1.019.207-.533.112-.533.112-.533.663v1.014l1.551-.291.001-1.593zM27.532 38.137c.001.043.051.116.09.124.48.103.963.198 1.457.297v-1.593l-1.551-.288c-.001.519-.003.99.004 1.46zM27.147 3.29c.011-.477.007-.954.007-1.457-.511.089-.995.173-1.477.264-.032.006-.074.074-.074.113-.005.469-.003.939-.003 1.436.495-.08.952-.15 1.405-.232.055-.011.141-.08.142-.124zM19.328 2.931l-1.551.133v1.451l1.551-.117V2.931zM21.701 37.321l1.547.202v-1.505l-1.547-.183v1.486zM23.248 2.475l-1.542.204v1.486l1.542-.184V2.475zM17.365 3.095l-1.552.086v1.451l1.552-.09V3.095zM15.799 36.697c.001.046.095.121.152.128.228.026.459.032.69.044l.727.036v-1.449l-1.576-.081c0 .46-.005.891.007 1.322zM11.877 36.714h1.552v-1.419h-1.552v1.419zM13.845 36.763h1.55v-1.421h-1.55v1.421zM13.429 3.288h-1.547v1.415h1.547V3.288zM11.452 3.282H9.901v1.419h1.551V3.282zM29.486 6.503l1.532-.255V4.806l-1.532.285v1.412zM31.426 6.178l1.51-.283V4.419l-1.51.311v1.448zM27.536 6.796l1.537-.228v-.001-1.408l-1.537.251v1.386zM29.071 33.431l-1.532-.226V34.591l1.532.249v-1.409zM27.539 36.326l1.537.282v-1.409l-1.537-.257v1.384zM29.079 3.393c-.48.088-.95.17-1.418.262-.049.009-.127.071-.128.11-.009.423-.006.846-.006 1.295l1.551-.26.001-1.407zM20.861 32.471c-.045-.004-.088-.014-.133-.017l-.997-.069v1.294l1.554.13c.014-.041.023-.055.023-.069l.004-.761c.001-.465 0-.465-.451-.508zM5.56 8.067l-1.548-.086v1.291c.522.029 1.032.055 1.548.083V8.067zM4.011 32.354v1.294l1.551-.107v-.001-1.285l-1.551.099c0-.001 0 0 0 0zM4.121 12.526c.474.007.948.004 1.435.004v-1.261H4c0 .373-.003.767.005 1.16.001.034.076.096.116.097zM5.559 12.884H4.012v1.28h1.547v-1.28zM4.013 32.023l1.551-.094v-1.285l-1.551.087v1.292zM5.564 16.118H4.016v1.28h1.548v-1.28zM4.017 23.866h1.549v-1.253H4.017v1.253zM4.011 25.489H5.56v-1.261H4.011v1.261zM11.882 7.885h1.552V6.639h-1.552v1.246zM11.455 6.636H9.901v1.255h1.554V6.636zM9.905 15.846h1.547v-1.247H9.905v1.247zM11.456 24.153H9.902v1.248h1.554v-1.248zM7.931 19.029h1.555v-1.256H7.931v1.256zM9.91 19.029h1.547v-1.247H9.91v1.247zM7.513 16.156H5.971v1.257h1.542v-1.257zM9.482 20.976H7.927v1.252h1.555v-1.252zM9.91 22.217h1.552v-1.246H9.91v1.246zM5.972 23.84h1.544v-1.249H5.972v1.249zM7.511 20.638v-1.261H5.976v1.261h1.535zM5.971 25.444h1.54v-1.243h-1.54v1.243zM5.971 33.519l1.539-.072v-1.279l-1.539.069v1.282zM7.936 30.2h1.551v-1.241H7.936V30.2zM7.505 8.128H5.97v1.265h1.535V8.128zM7.929 27.01h1.553v-1.244H7.929v1.244zM5.974 28.652h1.537v-1.251H5.974v1.251zM13.427 32.111h-1.551v1.252h1.551v-1.252zM9.907 33.361h1.551v-1.247H9.907v1.247zM5.97 30.267h1.54v-1.252H5.97v1.252zM9.486 11.392H7.934v1.254h1.552v-1.254zM7.508 9.736h-1.54v1.256h1.54V9.736zM5.977 14.544v1.269h1.528v-1.269H5.977zM7.928 23.813h1.561v-1.24H7.928v1.24zM9.486 8.199H7.934v1.256h1.552V8.199zM5.979 25.792v1.262H7.51v-1.262H5.979zM7.929 33.393h1.553v-1.241H7.929v1.241zM7.936 34.994h1.553v-1.248H7.936v1.248zM7.929 31.798H9.48v-1.244H7.929v1.244zM9.904 14.254h1.553v-1.251H9.904v1.251zM7.937 14.242H9.48v-1.258H7.937v1.258zM9.905 20.62h1.552v-1.245H9.905v1.245zM13.427 34.954v-1.248H11.88v1.248h1.547zM13.424 5.055h-1.55v1.231h1.55V5.055zM9.481 16.178H7.93v1.252h1.551v-1.252zM11.454 25.747H9.906v1.244h1.548v-1.244z" fill="#8bb7f0"></path><path d="M34.94 25.795c-.097-.962-.351-1.874-.838-2.72-.093-.161-.318-.296-.454-.358-.086-.039-.867-.061-1.142-.073l-1.078-.05c0-.533-.008-1.041.005-1.548.004-.158-.05-.233-.19-.274-.614-.182-1.224-.379-1.843-.544-.356-.095-.837-.159-1.21-.227v-.509c0-.588.001-.585.563-.781.975-.339 2.126-.666 2.953-1.313a5.936 5.936 0 001.98-2.742c.355-.998.386-2.036.311-3.08-.058-.801-.24-1.575-.617-2.291a3.415 3.415 0 00-1.259-1.342c-1.146-.696-2.483-.893-3.799-.82-.384.021-.769.047-1.159.071l-.021-.35-1.503.188V5.707l1.505-.224V3.766l-5.459.761v3.289l-3.416.154V6.657l1.446-.082V4.723l-5.887.325v3.161H9.904v1.619h1.526v1.252H9.907v1.594h1.964v5.121h1.5v1.239h-1.495v1.947h1.502v1.24h-1.522v5.111H9.907v3.221h1.515v1.238h2.423v3.175l3.967.175v-1.223l1.523.132v-2.034l2.361.18v3.273l5.462.761v-3.432l.907.064c1.002.07 2.126.071 3.107-.192 1.81-.485 3.04-1.561 3.535-3.408.307-1.138.35-2.298.233-3.467zM31.445 9.941l1.49-.219v1.494l-1.49.183V9.941zm-.006 3.73l1.49-.14v1.496l-1.49.099v-1.455zM15.832 9.69l1.536-.074v1.269l-1.536.069V9.69zm.933 4.919v1.217h-1.521v-1.217h1.521zm-2.886-4.861h1.514v1.233h-1.514V9.748zm-.836 4.494v-1.228h1.528v1.228h-1.528zm.388 15.954h-1.526v-1.231h1.526v1.231zm1.575-3.211h-1.533v-1.22h1.533v1.22zm.002-1.597h-1.532V24.17h1.532v1.218zm.048-6.008h1.518v1.237h-1.518V19.38zm2.318 13.973h-1.538v-1.218h1.538v1.218zm1.575-21.427c.13-.008 4.26-.214 4.757-.227 3.221-.082 3.134 1.304 3.157 2.313.042 1.851-.728 3.517-4.602 3.817-.131.01-3.269.141-3.314.141.002-2.021.002-4.024.002-6.044zm2.396 18.455l-1.519-.07V29.09h1.519v1.291zm3.919.28l-1.518-.118v-1.292l1.139.079.379.026v1.305zm2.12-4.026c-.093.353-.357 1.674-3.466 1.67-.761-.001-4.858-.179-4.969-.179v-6.045c.097 0 2.61.059 3.069.083 4.846.258 4.962 1.193 5.454 2.934.141.5.046 1.032-.088 1.537zm5.55 1.735l-1.489-.173v-1.461l1.489.143v1.491z" fill="#8bb7f0"></path></svg>