<svg viewBox="0 0 40 40" xmlns="http://www.w3.org/2000/svg"><path fill="#ffc49c" d="M20.5 4.5h19v10h-19z"></path><path d="M39 5v9H21V5h18m1-1H20v11h20V4z" fill="#a16a4a"></path><path fill="#ffc49c" d="M.5 4.5h20v10H.5z"></path><path d="M20 5v9H1V5h19m1-1H0v11h21V4z" fill="#a16a4a"></path><path fill="#ffc49c" d="M.5 14.5h39v10H.5z"></path><path d="M39 15v9H1v-9h38m1-1H0v11h40V14z" fill="#a16a4a"></path><g><path fill="#ffc49c" d="M11.5 14.5h18v10h-18z"></path><path d="M29 15v9H12v-9h17m1-1H11v11h19V14z" fill="#a16a4a"></path></g><g><path fill="#ffc49c" d="M20.5 24.5h19v10h-19z"></path><path d="M39 25v9H21v-9h18m1-1H20v11h20V24z" fill="#a16a4a"></path></g><g><path fill="#ffc49c" d="M.5 24.5h20v10H.5z"></path><path d="M20 25v9H1v-9h19m1-1H0v11h21V24z" fill="#a16a4a"></path></g></svg>