<svg viewBox="0 0 40 40" xmlns="http://www.w3.org/2000/svg"><path d="M3 38.5c-.827 0-1.5-.673-1.5-1.5v-7c0-.827.673-1.5 1.5-1.5h34c.827 0 1.5.673 1.5 1.5v7c0 .827-.673 1.5-1.5 1.5H3z" fill="#b0c1d4"></path><path d="M37 29c.551 0 1 .449 1 1v7c0 .551-.449 1-1 1H3c-.551 0-1-.449-1-1v-7c0-.551.449-1 1-1h34m0-1H3a2 2 0 00-2 2v7a2 2 0 002 2h34a2 2 0 002-2v-7a2 2 0 00-2-2z" fill="#66798f"></path><circle cx="7.5" cy="33.5" r="1" fill="#f78f8f"></circle><path d="M7.5 33a.5.5 0 110 1 .5.5 0 010-1m0-1a1.5 1.5 0 10.001 3.001A1.5 1.5 0 007.5 32z" fill="#c74343"></path><path fill="none" stroke="#2d3540" stroke-miterlimit="10" d="M13 33.5h21"></path><path d="M9.928 18.702s27.464 1.126 28.064-8.554c.45-7.879-19.06-7.129-19.06-7.129s-.15 0-.15.15c0 .075.075.15.15.15 5.403 0 14.182 2.176 13.882 6.903-.225 3.827-7.129 8.329-22.886 8.329-.075 0-.15.075-.15.15s.075.001.15.001" fill="#4e7ab5"></path><path d="M13.305 7.822c-1.876 0-3.677.3-4.202.375.525-.75 2.626-3.677 2.626-3.677v-.075l-.075-.075H5.801C4.15 6.696 3.175 8.197 2.199 10.073l-.075.225v.075c-.15.15-.15.3-.075.525.6.9 3.902 2.026 11.256 2.026 5.478 0 11.331-.9 11.331-2.551 0-1.576-5.778-2.551-11.331-2.551zm.075 3.376c-3.377 0-5.478-.525-5.478-.825 0-.375 2.101-.825 5.478-.825s5.478.45 5.478.825-2.101.825-5.478.825z" fill="#4e7ab5"></path></svg>