<svg viewBox="0 0 40 40" xmlns="http://www.w3.org/2000/svg"><path d="M12.5 16C5.596 16 0 17.343 0 19s5.596 3 12.5 3S25 20.657 25 19s-5.596-3-12.5-3zm0 4C9.462 20 7 19.552 7 19s2.462-1 5.5-1 5.5.448 5.5 1-2.462 1-5.5 1z" fill="#4e7ab5"></path><path d="M5 18l3.364-1.553c.879-1.373 2.636-4.28 2.636-4.28v-.083L10.917 12H4a219.45 219.45 0 00-3.857 6.544s.731.123.857.456c.174.261.49.578 1 .904L5 18zM20.512 11.002L20.5 11h-1c-.275 0-.5.225-.5.5s.225.5.5.5h.5c6.008 0 14 1.629 14 7 0 4.387-6.695 9-24 9h-.5c-.275 0-.5.225-.5.5s.225.5.5.5H14c9.604 0 26-1.557 26-10 0-6.916-13.191-7.947-19.488-7.998z" fill="#4e7ab5"></path></svg>