<svg viewBox="0 0 40 40" xmlns="http://www.w3.org/2000/svg"><path d="M20.001 38.5C12.831 38.5 5.5 36.302 5.5 20S12.831 1.5 20.001 1.5C27.171 1.5 34.5 3.698 34.5 20s-7.329 18.5-14.499 18.5z" fill="#8bb7f0"></path><path d="M20.002 2C26.924 2 34 4.139 34 20s-7.076 18-13.998 18C13.078 38 6 35.861 6 20S13.078 2 20.002 2m0-1C11.165 1 5 4.942 5 20s6.165 19 15.002 19S35 35.058 35 20 28.839 1 20.002 1z" fill="#4e7ab5"></path><path fill="none" stroke="#fff" stroke-width="2" stroke-miterlimit="10" d="M13 26l13-12-7-7v25l7-7-13-12"></path></svg>