<svg viewBox="0 0 40 40" xmlns="http://www.w3.org/2000/svg"><path fill="#8bb7f0" d="M2.5 1.5h26v32h-26z"></path><path d="M28 2v31H3V2h25m1-1H2v33h27V1z" fill="#4e7ab5"></path><path fill="#4e7ab5" d="M7 3h1v1H7zM7 5h1v1H7zM7 7h1v1H7zM7 9h1v1H7zM7 11h1v1H7zM7 13h1v1H7zM7 15h1v1H7zM7 17h1v1H7zM11 3h1v1h-1zM11 7h1v1h-1zM11 9h1v1h-1zM11 11h1v1h-1zM11 13h1v1h-1zM11 15h1v1h-1zM11 17h1v1h-1zM15 3h1v1h-1zM15 7h1v1h-1zM15 9h1v1h-1zM15 11h1v1h-1zM15 13h1v1h-1zM15 15h1v1h-1zM15 17h1v1h-1zM19 3h1v1h-1zM19 7h1v1h-1zM19 9h1v1h-1zM19 11h1v1h-1zM19 13h1v1h-1zM19 15h1v1h-1zM19 17h1v1h-1zM23 3h1v1h-1zM23 7h1v1h-1zM23 9h1v1h-1zM23 11h1v1h-1zM23 13h1v1h-1zM23 15h1v1h-1zM23 17h1v1h-1zM24 19h1v1h-1zM5 5h1v1H5zM13 5h1v1h-1zM11 5h1v1h-1zM9 5h1v1H9zM19 5h1v1h-1zM17 5h1v1h-1zM15 5h1v1h-1zM25 5h1v1h-1zM23 5h1v1h-1zM21 5h1v1h-1zM7 19h1v1H7zM7 21h1v1H7zM11 19h1v1h-1zM15 19h1v1h-1zM19 19h1v1h-1zM23 19h1v1h-1zM5 21h1v1H5zM13 21h1v1h-1zM11 21h1v1h-1zM9 21h1v1H9zM19 21h1v1h-1zM17 21h1v1h-1zM15 21h1v1h-1zM25 21h1v1h-1zM23 21h1v1h-1zM21 21h1v1h-1zM5 9h1v1H5zM13 9h1v1h-1zM9 9h1v1H9zM17 9h1v1h-1zM25 9h1v1h-1zM21 9h1v1h-1zM5 13h1v1H5zM13 13h1v1h-1zM9 13h1v1H9zM17 13h1v1h-1zM25 13h1v1h-1zM21 13h1v1h-1zM5 17h1v1H5zM13 17h1v1h-1zM9 17h1v1H9zM17 17h1v1h-1zM25 17h1v1h-1zM21 17h1v1h-1zM7 23h1v1H7zM7 25h1v1H7zM11 23h1v1h-1zM15 23h1v1h-1zM19 23h1v1h-1zM23 23h1v1h-1zM5 25h1v1H5zM13 25h1v1h-1zM11 25h1v1h-1zM9 25h1v1H9zM19 25h1v1h-1zM17 25h1v1h-1zM15 25h1v1h-1zM25 25h1v1h-1zM23 25h1v1h-1zM21 25h1v1h-1zM7 27h1v1H7zM7 29h1v1H7zM11 27h1v1h-1zM15 27h1v1h-1zM19 27h1v1h-1zM23 27h1v1h-1zM7 31h1v1H7zM11 31h1v1h-1zM15 31h1v1h-1zM19 31h1v1h-1zM23 31h1v1h-1zM5 29h1v1H5zM13 29h1v1h-1zM11 29h1v1h-1zM9 29h1v1H9zM19 29h1v1h-1zM17 29h1v1h-1zM15 29h1v1h-1zM25 29h1v1h-1zM23 29h1v1h-1zM21 29h1v1h-1z"></path><path fill="#ffc49c" d="M37.293 19L18.001 38.293 11.707 32 31 12.707z"></path><path d="M31 13.414L36.586 19 18 37.586 12.414 32 31 13.414M31 12L11 32l7 7 20-20-7-7z" fill="#967a44"></path><path fill="none" stroke="#967a44" stroke-miterlimit="10" d="M23 24l-2-2M22 28l-3-3M17 33l-3-3M18 29l-2-2M32 18l-3-3M28 19l-2-2M27 23l-3-3"></path></svg>