<svg viewBox="0 0 40 40" xmlns="http://www.w3.org/2000/svg"><path d="M10.521 25.5A10.355 10.355 0 019.5 21c0-6.255 4.968-19.5 10.5-19.5S30.5 14.745 30.5 21c0 1.568-.343 3.081-1.021 4.5H10.521z" fill="#ffeea3"></path><path d="M20 2c5.165 0 10 13.065 10 19a9.852 9.852 0 01-.842 4H10.842A9.852 9.852 0 0110 21c0-5.935 4.835-19 10-19m0-1C13.925 1 9 14.925 9 21c0 1.802.442 3.499 1.21 5h19.58A10.944 10.944 0 0031 21c0-6.075-4.925-20-11-20z" fill="#ba9b48"></path><path d="M23 12.879c.3 0 .581.117.819.355.429.429.436 1.134.014 1.571l-2.482 2.572-.277.287-.003.399L21.008 26H19v-8.414l-.293-.293-2.5-2.5A1.123 1.123 0 0117 12.879c.3 0 .581.117.793.328l1.5 1.5.707.707.707-.707 1.5-1.5c.212-.212.493-.328.793-.328m0-1c-.543 0-1.086.207-1.5.621L20 14l-1.5-1.5c-.414-.414-.957-.621-1.5-.621s-1.086.207-1.5.621a2.122 2.122 0 000 3L18 18v9h4l.071-8.929 2.482-2.572a2.122 2.122 0 00-.027-2.973L24.5 12.5a2.115 2.115 0 00-1.5-.621z" fill="#fff"></path><circle cx="20" cy="37" r="2" fill="#2d3540"></circle><path d="M18 37.5c-.827 0-1.5-.673-1.5-1.5v-4.589l-.295-.132c-2.771-1.242-5.059-3.802-6.098-6.778h19.786c-1.039 2.977-3.327 5.537-6.098 6.778l-.295.132V36c0 .827-.673 1.5-1.5 1.5h-4z" fill="#dcd5f2"></path><path d="M29.165 25c-1.084 2.563-3.134 4.729-5.574 5.822l-.591.265V36c0 .551-.449 1-1 1h-4c-.551 0-1-.449-1-1V31.087l-.591-.265c-2.44-1.093-4.489-3.259-5.574-5.822h18.33m1.41-1H9.425c.94 3.319 3.398 6.311 6.575 7.735V36a2 2 0 002 2h4a2 2 0 002-2v-4.265c3.177-1.424 5.635-4.416 6.575-7.735z" fill="#8b75a1"></path><path fill="none" stroke="#8b75a1" stroke-miterlimit="10" d="M19 35.5h5M16 35.5h2M19 33.5h5M16 33.5h2M19 31.5h5M16 31.5h2"></path></svg>