<svg viewBox="0 0 40 40" xmlns="http://www.w3.org/2000/svg"><path d="M11.065 39.5a.824.824 0 01-.588-.243l-4.71-4.706a.832.832 0 010-1.175l7.732-8.177V25c0-4.154 0-4.793 3.854-8.646L26 7.707l1.646 1.646c.511.511.788 1.066.802 1.607.015.572-.255 1.139-.802 1.686l-7 7c-3.161 3.159-3.396 4.417-3.823 6.699-.086.46-.181.966-.311 1.544-.019.105-1.347 7.857-4.858 11.367a.823.823 0 01-.589.244z" fill="#b08159"></path><path d="M26 8.414l1.293 1.293c.292.292.642.748.656 1.266.011.43-.21.874-.656 1.32l-7 7c-3.132 3.129-3.495 4.467-3.961 6.96-.085.455-.178.955-.308 1.527l-.006.028-.005.028c-.013.076-1.31 7.666-4.713 11.067a.33.33 0 01-.469 0l-4.709-4.706a.33.33 0 01-.097-.234c0-.051.013-.149.117-.254l7.586-8.022.272-.289V25c0-4.064 0-4.586 3.707-8.293L26 8.414M26 7l-9 9c-3.938 3.938-4 4.719-4 9l-7.586 8.022a1.33 1.33 0 000 1.882l4.709 4.706c.26.26.601.39.942.39s.682-.13.942-.39C15.677 35.943 17 28 17 28c.765-3.388.311-4.314 4-8l7-7c1.333-1.333 1.195-2.805 0-4l-2-2z" fill="#704e34"></path><path d="M19.202 16.469c-.4 0-.777-.156-1.061-.439l-.227-.238 10.44-10.438c.62-.645 2.402-2.636 2.024-3.832l.064-.081 3.147 3.147-.08.058a1.223 1.223 0 00-.382-.058c-.837 0-2.136.767-3.474 2.051l-9.393 9.392a1.484 1.484 0 01-1.058.438z" fill="#b6c9d6"></path><path d="M30.826 2.531l1.654 1.654c-1.243.346-2.591 1.537-3.186 2.109l-9.384 9.384a1.005 1.005 0 01-1.284.113L28.721 5.693c.638-.664 1.762-1.96 2.105-3.162M30.402.692l-.625.778c.501.501-.328 2.022-1.777 3.53L17.218 15.782l.571.602c.39.39.902.585 1.414.585.512 0 1.023-.195 1.414-.585L30 7c1.207-1.158 2.43-1.912 3.127-1.912.175 0 .317.047.417.148l.816-.584-3.958-3.96z" fill="#788b9c"></path><path d="M9.494 14.506c.094 2.2 2.618 2.382 3.506 1.494l.5-.5" fill="none" stroke="#b6c9d6" stroke-linecap="round" stroke-miterlimit="10"></path><path d="M13 16c1.357 2.208 3.106 1.58 4.023.662l.946-.935" fill="none" stroke="#b6c9d6" stroke-linecap="round" stroke-miterlimit="10"></path><path d="M21.625 22c.272 0 .659.063.955.361.703.71.519 1.838-.457 2.806-.527.522-1.206.833-1.818.833-.269 0-.651-.062-.944-.357-.629-.635-.416-1.923.464-2.813.515-.52 1.187-.83 1.8-.83m-.001-1c-.85 0-1.776.386-2.509 1.127-1.281 1.295-1.489 3.184-.464 4.219.437.441 1.024.654 1.654.654.85 0 1.778-.387 2.52-1.123 1.443-1.431 1.505-3.167.464-4.219-.437-.443-1.03-.658-1.665-.658z" fill="#596b7c"></path><path d="M24.109 17.516l-2.355 2.353s-2.005 2.147-2.243 2.426c-1.268 1.482-1.585 3.024-2.09 6.175" fill="none" stroke="#596b7c" stroke-linecap="round" stroke-miterlimit="10"></path><path d="M34.136 5.841L29.147.852a.5.5 0 010-.705l.002-.002a.5.5 0 01.705 0l4.989 4.989a.5.5 0 010 .705l-.002.002a.5.5 0 01-.705 0zM30.154 7.847l-2.995-2.995a.5.5 0 010-.705l.002-.002a.5.5 0 01.705 0l2.995 2.995a.5.5 0 010 .705l-.002.002a.5.5 0 01-.705 0z" fill="#596b7c"></path></svg>