<svg viewBox="0 0 40 40" xmlns="http://www.w3.org/2000/svg"><path d="M13.987 38.5c-.353 0-.685-.138-.935-.387L1.887 26.947a1.325 1.325 0 010-1.87l14.602-14.602c.228-.227.535-.361.866-.378l.449-.023.023-.45c.018-.331.152-.638.379-.866l6.871-6.871c.25-.25.582-.387.935-.387h.001c.353 0 .685.138.935.387l11.166 11.166a1.325 1.325 0 010 1.87l-6.872 6.872a1.313 1.313 0 01-.865.378l-.448.024-.024.449a1.32 1.32 0 01-.38.866L14.923 38.113c-.25.249-.582.387-.936.387z" fill="#fff"></path><path d="M26.012 2c.22 0 .426.086.581.241l11.166 11.166c.32.321.32.842 0 1.163l-6.871 6.871a.81.81 0 01-.538.233l-.9.047-.047.9a.808.808 0 01-.233.538l-14.601 14.6a.818.818 0 01-1.162 0L2.241 26.594a.823.823 0 010-1.163L16.842 10.83a.81.81 0 01.538-.233l.9-.047.047-.9a.808.808 0 01.233-.538l6.871-6.871A.814.814 0 0126.012 2m0-1c-.466 0-.933.178-1.288.534l-6.871 6.871a1.805 1.805 0 00-.524 1.193 1.806 1.806 0 00-1.193.525L1.534 24.724a1.823 1.823 0 000 2.577L12.7 38.467c.355.355.821.533 1.288.533.466 0 .933-.178 1.288-.534l14.601-14.601c.331-.331.502-.759.525-1.193a1.806 1.806 0 001.193-.525l6.871-6.871a1.823 1.823 0 000-2.577L27.301 1.534A1.816 1.816 0 0026.012 1z" fill="#788b9c"></path><path fill="none" stroke="#788b9c" stroke-miterlimit="10" d="M19.141 11.411l1.718 1.718M21.718 13.988l1.718 1.718M24.295 16.564l1.717 1.718M26.871 19.141l1.718 1.718"></path><path fill="none" stroke="#788b9c" stroke-linecap="round" stroke-miterlimit="10" d="M7.5 25.5l9-9M22.5 10.5l4-4M24.5 12.5l3-3M26.5 14.5l4-4M29.5 17.5l1-1M32.5 14.5l1-1M9.5 27.5l6-6M11.5 29.5l9-9M20.5 26.5l3-3M14.5 32.5l3-3"></path></svg>