<svg viewBox="0 0 40 40" xmlns="http://www.w3.org/2000/svg"><path fill="#f2faff" d="M13.5 8.5v-4h3v-3h7v3h3v4z"></path><path d="M23 2v3h3v3H14V5h3V2h6m1-1h-8v3h-3v5h14V4h-3V1z" fill="#788b9c"></path><path d="M15.186 18.536c-.198-.097-5.487-2.744-5.68-10.119L20 6.508l10.495 1.908c-.198 7.418-5.654 10.105-5.71 10.132L20 20.461l-4.814-1.925z" fill="#f78f8f"></path><path d="M20 7.016l9.977 1.814c-.362 6.575-4.968 9.045-5.385 9.255L20 19.923l-4.591-1.836c-.441-.224-5.024-2.71-5.386-9.256L20 7.016M20 6L9 8c0 8.123 6 11 6 11l5 2 5-2s6-2.862 6-11L20 6z" fill="#c74343"></path><path fill="#c74343" d="M22 11h3v1h-3zM15 11h3v1h-3z"></path><path d="M1 39h38V16.877c-1.308-.263-2.852-.877-4-.877-1.458 0-3.563 1-5 1-1.438 0-3.542-1-5-1s-3.563 1-5 1c-1.438 0-3.542-1-5-1s-3.563 1-5 1c-1.438 0-3.542-1-5-1-1.148 0-2.692.614-4 .877V39z" fill="#8bb7f0"></path><path d="M35 16c-1.458 0-3.563 1-5 1-1.438 0-3.542-1-5-1s-3.563 1-5 1c-1.438 0-3.542-1-5-1s-3.563 1-5 1c-1.438 0-3.542-1-5-1-1.148 0-2.692.614-4 .877V17.9c.574-.103 1.17-.271 1.754-.435C3.566 17.237 4.406 17 5 17s1.434.237 2.246.465c.934.263 1.9.535 2.754.535s1.82-.272 2.754-.535C13.566 17.237 14.406 17 15 17s1.434.237 2.246.465c.934.263 1.9.535 2.754.535s1.82-.272 2.754-.535C23.566 17.237 24.406 17 25 17s1.434.237 2.246.465c.934.263 1.9.535 2.754.535s1.82-.272 2.754-.535C33.566 17.237 34.406 17 35 17s1.434.237 2.246.465c.584.165 1.18.332 1.754.435v-1.023c-1.308-.263-2.852-.877-4-.877z" fill="#4e7ab5"></path><path fill="#fff" d="M21 32h-2v-9h2z"></path><path fill="#fff" d="M20 35l5-5H15z"></path></svg>