<svg viewBox="0 0 40 40" xmlns="http://www.w3.org/2000/svg"><path d="M22 38.5c-.827 0-1.5-.673-1.5-1.5V25.5h-2v11.458c0 .864-.659 1.542-1.5 1.542-.827 0-1.5-.673-1.5-1.5V26.5H15c-.827 0-1.5-.673-1.5-1.5v-9c0-3.033 2.467-5.5 5.5-5.5h1c3.033 0 5.5 2.467 5.5 5.5v9c0 .827-.673 1.5-1.5 1.5h-.5V37c0 .827-.673 1.5-1.5 1.5z" fill="#ffeea3"></path><path d="M20 11c2.757 0 5 2.243 5 5v9c0 .551-.449 1-1 1h-1v11c0 .551-.449 1-1 1s-1-.449-1-1V25h-3v11.958c0 .584-.439 1.042-1 1.042-.551 0-1-.449-1-1V26h-1c-.551 0-1-.449-1-1v-9c0-2.757 2.243-5 5-5h1m0-1h-1a6 6 0 00-6 6v9a2 2 0 002 2v10a2 2 0 002 2c1.105 0 2-.895 2-2.042V26h1v11c0 1.1.9 2 2 2s2-.9 2-2V27a2 2 0 002-2v-9a6 6 0 00-6-6z" fill="#ba9b48"></path><path fill="#b6c9d6" d="M3.5 9.5h32v19h-32z"></path><path d="M35 10v18H4V10h31m1-1H3v20h33V9z" fill="#788b9c"></path><g><circle cx="19.465" cy="4.5" r="3" fill="#ffeea3"></circle><path d="M19.465 2c1.379 0 2.5 1.121 2.5 2.5S20.843 7 19.465 7s-2.5-1.121-2.5-2.5 1.121-2.5 2.5-2.5m0-1a3.5 3.5 0 100 7 3.5 3.5 0 000-7z" fill="#ba9b48"></path></g><g><path d="M20 10h-1a6 6 0 00-6 6v8a2 2 0 002 2v2h4v-2h1l.001 2H24v-2a2 2 0 002-2v-8a6 6 0 00-6-6z" fill="#fff"></path></g></svg>