<svg viewBox="0 0 40 40" xmlns="http://www.w3.org/2000/svg"><path d="M5.5 37.5v-3.071l4-.617V6.188l-4-.617V2.5h16.604c3.896 0 6.918.714 8.983 2.122 2.031 1.386 3.019 3.288 3.019 5.813 0 5.943-4.3 7.44-5.161 7.681l-.366.102v.822l.438.07c2.213.275 6.521 3.399 6.521 8.146 0 3.168-1.098 5.608-3.356 7.459-2.257 1.849-5.401 2.786-9.348 2.786H5.5zm11-4.975h4.894c1.984 0 3.573-.478 4.723-1.419 1.18-.965 1.777-2.294 1.777-3.951 0-1.595-.593-2.868-1.761-3.783-1.132-.887-2.709-1.337-4.688-1.337H16.5v10.49zm0-15.515h4.065c1.787 0 3.226-.449 4.276-1.335 1.076-.907 1.621-2.163 1.621-3.733 0-2.038-1.114-4.467-6.425-4.467H16.5v9.535z" fill="#b0c1d4"></path><path d="M22.105 3c3.794 0 6.721.685 8.701 2.035 1.885 1.286 2.802 3.052 2.802 5.4 0 5.581-3.995 6.976-4.796 7.199l-.732.22V19.498l.877.109c2.064.256 6.082 3.188 6.082 7.649 0 3.009-1.038 5.322-3.173 7.072C29.699 36.101 26.661 37 22.834 37H6v-2.142l3.152-.486.848-.131V5.759l-.848-.131L6 5.142V3H22.105M16 17.51H20.565c1.908 0 3.456-.489 4.599-1.453 1.194-1.006 1.799-2.391 1.799-4.116 0-2.266-1.202-4.967-6.925-4.967H16V17.51m0 15.515h5.394c2.103 0 3.799-.515 5.04-1.532 1.301-1.065 1.96-2.525 1.96-4.338 0-1.756-.657-3.161-1.952-4.176-1.222-.958-2.904-1.444-4.997-1.444H16v11.49M22.105 2H5v4l4 .617v26.766L5 34v4h17.834c4.082 0 7.305-.966 9.665-2.899 2.359-1.933 3.539-4.549 3.539-7.846 0-4.979-4.398-8.324-6.959-8.642v-.016c2.042-.568 5.528-2.773 5.528-8.162 0-2.677-1.079-4.753-3.238-6.226C29.21 2.736 26.122 2 22.105 2zM17 16.51V7.974h3.038c3.95 0 5.925 1.323 5.925 3.967 0 1.422-.481 2.54-1.444 3.351-.963.812-2.28 1.218-3.954 1.218H17zm0 15.515v-9.49h4.444c1.875 0 3.334.411 4.381 1.231 1.046.82 1.569 1.95 1.569 3.389 0 1.506-.532 2.695-1.594 3.564-1.063.871-2.532 1.306-4.407 1.306H17z" fill="#66798f"></path></svg>