<svg viewBox="0 0 40 40" xmlns="http://www.w3.org/2000/svg"><path fill="#72b289" d="M.707 37L2 35.707 3.294 37 2 38.293z"></path><path d="M2 36.414l.586.586-.586.586L1.414 37 2 36.414M2 35l-2 2 2 2 2-2-2-2z" fill="#5e9c76"></path><path d="M27.256 15.548l-.049-.048H30.5V11c0-1.378-1.121-2.5-2.5-2.5h-4.5v3.293l-.049-.049-.897-3.591L29.5 1.207v3L34.793 9.5h3l-6.946 6.946-3.591-.898z" fill="#bae0bd"></path><path d="M29 2.414v2l.293.293 5 5 .293.293h2L31 15.586V11c0-1.654-1.346-3-3-3h-4.586L29 2.414M30 0l-8 8 1 4 4 4 4 1 8-8h-4l-5-5V0zm-3 15l-3-3V9h4a2 2 0 012 2v4h-3z" fill="#5e9c76"></path><path d="M7.416 38.473c-2.087 0-3.885-.649-5.063-1.826-2.797-2.796-2.292-9 1-12.293.099-.1 9.614-9.739 10.982-10.983.357-.325 1.959-.87 8.664-.87.226.08.851 1.021 1.281 1.97l.077.172.172.078c.949.43 1.89 1.054 1.974 1.311-.004 1.896-.004 7.762-.857 8.616l-11 11c-1.743 1.742-4.513 2.825-7.23 2.825z" fill="#bae0bd"></path><path d="M22.811 13c.251.25.704.992 1.014 1.676l.156.344.343.155c.684.31 1.427.763 1.676 1.014-.008 5.976-.393 7.713-.707 8.104l-11 11c-1.653 1.653-4.288 2.68-6.877 2.68-1.953 0-3.626-.596-4.709-1.68C1.464 35.05.875 32.999 1.09 30.666c.212-2.304 1.191-4.532 2.622-5.963.096-.097 9.602-9.727 10.956-10.958.219-.174 1.452-.734 8.143-.745M23 12c-2.688 0-7.969.063-9 1-1.395 1.268-11 11-11 11-3.306 3.306-4.109 9.891-1 13 1.356 1.356 3.336 1.972 5.416 1.972 2.762 0 5.698-1.087 7.584-2.972l11-11c1-1 1-6.5 1-9 0-.713-2.264-1.736-2.264-1.736S23.713 12 23 12z" fill="#5e9c76"></path><path d="M14.805 13.097c1.591-.597 6.113-.597 7.72-.597H23c.169 0 .634.044.978.081l2.441 2.441c.037.345.081.809.081.978 0 5.117-.289 7.313-.602 8.191L14.805 13.097z" fill="#72b289"></path><path d="M22.525 13H23c.111 0 .427.027.749.06l2.191 2.191c.033.321.06.638.06.749 0 4.024-.175 6.128-.367 7.219l-9.866-9.866c1.076-.197 3.087-.353 6.758-.353m0-1c-2.746 0-7.552.028-8.525 1l12 12c1-.969 1-6.688 1-9 0-.303-.103-1.207-.103-1.207l-2.69-2.69S23.303 12 23 12h-.475zM29 16l1-1 1-2 4-4h4l-8 8-4-1 .589-.785z" fill="#5e9c76"></path><path fill="#5e9c76" d="M23.783 9.511L24 9l2-1 4-4V0l-8 8 1 4 .785-.589z"></path><path d="M18.134 13.134l7.746 7.746c.034-.552.062-1.186.082-1.918l-5.919-5.919a56.08 56.08 0 00-1.909.091z" fill="#ffeea3"></path><path d="M2.707 36.293c.991.991 2.487 1.549 4.228 1.642l-5.868-5.868c.088 1.741.654 3.24 1.64 4.226z" fill="#ba9b48"></path><path fill="#5e9c76" d="M23.794 12.17l2.17-2.17L29 13.037l-2.169 2.17z"></path><path fill="#66798f" d="M5 27l1-1 6.5 6.5-1 1zM8 24l1-1 4.5 4.5-1 1z"></path></svg>