<svg viewBox="0 0 40 40" xmlns="http://www.w3.org/2000/svg"><path d="M21.521 13V6.077c0-2.128-1.746-3.536-3.696-3.536-2.783 0-4.345 4.524-2.477 4.286 2.139-.272-1.591-5.67-5.377-3.985-4.047 1.803-2.678 6.837-1.328 5.417 1.41-1.484-3.351-2.402-5.659-.118-3.149 3.115 1.227 8.301 1.848 6.286S.5 14.349.5 17.45c0 3.148 4.331 5.027 4.331 3.103 0-1.133-4.331-.215-4.331 3 0 1.638 1.393 2.957 3.104 2.957H6.78" fill="none" stroke="#4e7ab5" stroke-linejoin="round" stroke-miterlimit="10"></path><path d="M8.72 30.5c-.056-.007-2.22-.255-2.22-5s2.164-4.993 2.256-5.001l28.524.001c.056.007 2.22.255 2.22 5 0 4.615-2.046 4.976-2.244 5H8.72z" fill="#ffd7bd"></path><path d="M37.217 21c.633.111 1.783 1.18 1.783 4.5 0 3.35-1.17 4.408-1.765 4.5H8.783C8.15 29.889 7 28.82 7 25.5c0-3.35 1.17-4.408 1.765-4.5h28.452m.063-1H8.72S6 20.153 6 25.5 8.72 31 8.72 31h28.56S40 30.847 40 25.5 37.28 20 37.28 20z" fill="#a16a4a"></path><path d="M8.393 36.5c.032-.002-.893-.242-.893-3 0-2.786.943-3.002.953-3.004l29.154.004c-.032.002.893.242.893 3 0 2.595-.819 2.96-.939 3H8.393z" fill="#ffc49c"></path><path d="M37.433 31c.132.119.567.652.567 2.5 0 1.848-.435 2.381-.567 2.5H8.567C8.435 35.881 8 35.348 8 33.5c0-1.848.435-2.381.567-2.5h28.866m.176-1H8.391S7 30.097 7 33.5 8.391 37 8.391 37h29.217s1.391-.097 1.391-3.5c.001-3.403-1.39-3.5-1.39-3.5z" fill="#a16a4a"></path><path d="M8.393 20.5c.032-.002-.893-.242-.893-3 0-2.786.944-3.002.954-3.004l29.153.004c-.032.002.893.242.893 3 0 2.595-.818 2.96-.938 3H8.393z" fill="#ffc49c"></path><path d="M37.433 15c.132.119.567.652.567 2.5 0 1.848-.435 2.381-.567 2.5H8.567C8.435 19.881 8 19.348 8 17.5c0-1.848.435-2.381.567-2.5h28.866m.176-1H8.391S7 14.097 7 17.5 8.391 21 8.391 21h29.217s1.391-.097 1.391-3.5c.001-3.403-1.39-3.5-1.39-3.5z" fill="#a16a4a"></path><path fill="#839cb2" d="M13.5 12.5h19v11h-19z"></path><path d="M32 13v10H14V13h18m1-1H13v12h20V12z" fill="#66798f"></path><path d="M18 14h-2l-1 1v6l1 1h2l1-1v-6l-1-1zm0 7h-2v-6h2v6z" fill="#fff9de"></path><path d="M21 14h-2l-1 1v6l1 1h2l1-1v-6l-1-1zm0 7h-2v-6h2v6zM27 14h-2l-1 1v6l1 1h2l1-1v-6l-1-1zm0 7h-2v-6h2v6z" fill="#fff9de"></path><path d="M30 14h-2l-1 1v6l1 1h2l1-1v-6l-1-1zm0 7h-2v-6h2v6z" fill="#fff9de"></path></svg>