<svg viewBox="0 0 40 40" xmlns="http://www.w3.org/2000/svg"><path fill="#f78f8f" d="M3.5 1.5h8v26h-8z"></path><path d="M11 2v25H4V2h7m1-1H3v27h9V1z" fill="#c74343"></path><path fill="#8bb7f0" d="M12.5 5.5h7v22h-7z"></path><path d="M19 6v21h-6V6h6m1-1h-8v23h8V5z" fill="#4e7ab5"></path><path fill="none" stroke="#c74343" stroke-miterlimit="10" d="M5 6.5h5M5 20.5h5M5 23.5h5"></path><path fill="none" stroke="#4e7ab5" stroke-miterlimit="10" d="M14 10.5h4M14 20.5h4M14 23.5h4"></path><path fill="#bae0bd" d="M26.5 3.5h7v24h-7z"></path><path d="M33 4v23h-6V4h6m1-1h-8v25h8V3z" fill="#5e9c76"></path><path fill="none" stroke="#5e9c76" stroke-miterlimit="10" d="M28 8.5h4M28 20.5h4M28 23.5h4"></path><g><path d="M7 38.5c-.827 0-1.5-.673-1.5-1.5v-5.5h3V37c0 .827-.673 1.5-1.5 1.5z" fill="#deb974"></path><path d="M8 32v5c0 .551-.449 1-1 1s-1-.449-1-1v-5h2m1-1H5v6a2 2 0 104 0v-6z" fill="#967a44"></path></g><g><path d="M33 38.5c-.827 0-1.5-.673-1.5-1.5v-5.5h3V37c0 .827-.673 1.5-1.5 1.5z" fill="#deb974"></path><path d="M34 32v5c0 .551-.449 1-1 1s-1-.449-1-1v-5h2m1-1h-4v6a2 2 0 104 0v-6z" fill="#967a44"></path></g><g><path fill="#f5ce85" d="M1.5 27.5h37v4h-37z"></path><path d="M38 28v3H2v-3h36m1-1H1v5h38v-5z" fill="#967a44"></path></g></svg>