<svg viewBox="0 0 40 40" xmlns="http://www.w3.org/2000/svg"><path fill="#ffc49c" d="M9.5 2.5h24v27h-24z"></path><path d="M33 3v26H10V3h23m1-1H9v28h25V2z" fill="#a16a4a"></path><path d="M6.5 31V5c0-1.378 1.121-2.5 2.5-2.5h.5V31h-3z" fill="#ffc49c"></path><path d="M9 3v27.5H7V5c0-1.103.897-2 2-2m1-1H9a3 3 0 00-3 3v26.5h4V2z" fill="#a16a4a"></path><path fill="#ffd5b8" d="M10 3h1v26h-1z"></path><path d="M10 3H9a2 2 0 00-2 2v26.231h3V3z" fill="#db996c"></path><g><path d="M8.5 33.5c-1.103 0-2-.897-2-2s.897-2 2-2h25v.34c-.179.272-.5.87-.5 1.66s.321 1.388.5 1.66v.34h-25z" fill="#fff"></path><path d="M32.839 30a3.533 3.533 0 00-.339 1.5c0 .616.165 1.13.339 1.5H8.5c-.827 0-1.5-.673-1.5-1.5S7.673 30 8.5 30h24.339M34 29H8.5a2.5 2.5 0 100 5H34v-1s-.5-.597-.5-1.5.5-1.5.5-1.5v-1z" fill="#a16a4a"></path></g><g><path d="M8.5 37.5c-1.103 0-2-.897-2-2s.897-2 2-2h25v.34c-.179.272-.5.87-.5 1.66s.321 1.388.5 1.66v.34h-25z" fill="#fff"></path><path d="M32.839 34a3.533 3.533 0 00-.339 1.5c0 .616.165 1.13.339 1.5H8.5c-.827 0-1.5-.673-1.5-1.5S7.673 34 8.5 34h24.339M34 33H8.5a2.5 2.5 0 100 5H34v-1s-.5-.597-.5-1.5.5-1.5.5-1.5v-1z" fill="#a16a4a"></path></g></svg>