<svg viewBox="0 0 40 40" xmlns="http://www.w3.org/2000/svg"><path d="M19.5 37.5a2.973 2.973 0 01-2.699-1.715l-.136-.285H2c-.827 0-1.5-.673-1.5-1.5v-5.5h38V34c0 .827-.673 1.5-1.5 1.5H22.335l-.136.285A2.973 2.973 0 0119.5 37.5z" fill="#8bb7f0"></path><path d="M38 29v5c0 .551-.449 1-1 1H22.02l-.272.569C21.326 36.452 20.465 37 19.5 37s-1.826-.548-2.248-1.431L16.98 35H2c-.551 0-1-.449-1-1v-5h37m1-1H0v6a2 2 0 002 2h14.35c.563 1.179 1.756 2 3.15 2s2.587-.821 3.15-2H37a2 2 0 002-2v-6z" fill="#4e7ab5"></path><path d="M19.45 35.5a2.504 2.504 0 00-2.45-2H.5v-30H16c1.93 0 3.5 1.57 3.5 3.5v28.5h-.05z" fill="#fff"></path><path d="M16 4c1.654 0 3 1.346 3 3v26.766A2.987 2.987 0 0017 33H1V4h15m0-1H0v31h17a2 2 0 012 2h1V7a4 4 0 00-4-4z" fill="#788b9c"></path><g><path d="M19.5 35.5V7c0-1.93 1.57-3.5 3.5-3.5h15.5v30H22c-1.208 0-2.217.86-2.45 2h-.05z" fill="#e1ebf2"></path><path d="M38 4v29H22c-.768 0-1.469.29-2 .766V7c0-1.654 1.346-3 3-3h15m1-1H23a4 4 0 00-4 4v29h1a2 2 0 012-2h17V3z" fill="#788b9c"></path></g><g><path fill="#f78f8f" d="M26.052 3.5h7.069v21.428l-3.535-2.357-3.534 2.357z"></path><path d="M32.621 4v19.994l-2.48-1.653-.555-.37-.555.37-2.48 1.653V4h6.07m1-1h-8.069v22.862l4.034-2.69 4.034 2.69V3h.001z" fill="#c74343"></path></g></svg>