<svg viewBox="0 0 40 40" xmlns="http://www.w3.org/2000/svg"><path d="M2.73 38.5c-.393 0-.779-.144-.912-.277a1.08 1.08 0 01-.273-1.067L6.771 23.93l9.338 9.339-13.211 5.222a1.548 1.548 0 01-.168.009z" fill="#f78f8f"></path><path d="M6.957 24.823l8.26 8.262-12.435 4.914-.053.001c-.271 0-.509-.094-.557-.129a.582.582 0 01-.156-.541l4.941-12.507m-.37-1.785L1.065 37.015a1.583 1.583 0 00.399 1.562c.25.249.771.423 1.265.423.101 0 .201-.007.297-.023l13.975-5.523L6.587 23.038z" fill="#c74343"></path><path fill="#f2faff" d="M4.164 30.534l2.608-6.604 9.337 9.34-6.602 2.608z"></path><path d="M6.957 24.823l8.26 8.262-5.588 2.208-4.88-4.88 2.208-5.59m-.37-1.785l-3.009 7.618 5.808 5.808 7.616-3.01L6.587 23.038z" fill="#788b9c"></path><path fill="none" stroke="#c74343" stroke-miterlimit="10" d="M3 38.5h36"></path><g><path d="M17.143 34.5a2.216 2.216 0 01-1.578-.653l-9.411-9.411c-.422-.422-.654-.982-.654-1.578s.232-1.156.654-1.578L25.279 2.153a2.217 2.217 0 011.577-.653c.597 0 1.157.232 1.578.653l9.411 9.411c.87.87.87 2.286 0 3.156L18.72 33.847a2.217 2.217 0 01-1.577.653z" fill="#f2faff"></path><path d="M26.857 2c.462 0 .897.18 1.224.507l9.411 9.411c.327.327.507.762.507 1.224 0 .462-.18.897-.507 1.224L18.366 33.493a1.72 1.72 0 01-1.224.507c-.463 0-.897-.18-1.224-.507l-9.411-9.411A1.72 1.72 0 016 22.858c0-.462.18-.897.507-1.224L25.633 2.507A1.718 1.718 0 0126.857 2m0-1c-.699 0-1.398.267-1.931.8L5.799 20.926a2.731 2.731 0 000 3.863L15.21 34.2c.533.533 1.232.8 1.931.8s1.398-.267 1.931-.8l19.126-19.126a2.731 2.731 0 000-3.863L28.788 1.8a2.723 2.723 0 00-1.931-.8z" fill="#788b9c"></path></g><g><path fill="#f78f8f" d="M8.595 18.838l3.913-3.911 12.566 12.568-3.912 3.912z"></path><path d="M12.506 15.634l11.86 11.86-3.204 3.204-11.86-11.86 3.204-3.204m0-1.414l-4.619 4.619 13.274 13.274 4.619-4.619L12.506 14.22z" fill="#c74343"></path></g></svg>