<svg viewBox="0 0 40 40" xmlns="http://www.w3.org/2000/svg"><path d="M20 1.53h-5.1C8.171 1.53 3.464.92 3.464 6s3.525 6.127 3.525 13.054" fill="none" stroke="#66798f" stroke-miterlimit="10"></path><path d="M31.5 25.5c-2.206 0-4-1.794-4-4s1.794-4 4-4c2.841 0 4 .724 4 2.5 0 2.172-1.792 5.5-4 5.5z" fill="#e8d47b"></path><path d="M31.5 18c3.23 0 3.5.988 3.5 2 0 2.091-1.764 5-3.5 5-1.93 0-3.5-1.57-3.5-3.5s1.57-3.5 3.5-3.5m0-1a4.5 4.5 0 000 9c2.485 0 4.5-3.515 4.5-6s-2.015-3-4.5-3z" fill="#ba9b48"></path><path d="M19.916 38.5a5.936 5.936 0 01-4.775-2.435l-.08-.11-.125-.054A12.33 12.33 0 017.5 24.584V13.832C7.5 7.032 13.032 1.5 19.832 1.5h.336c6.8 0 12.332 5.532 12.332 12.332v10.752c0 4.917-2.918 9.359-7.436 11.316l-.125.054-.08.11a5.934 5.934 0 01-4.775 2.436h-.168z" fill="#ffeea3"></path><path d="M20.168 2C26.692 2 32 7.308 32 13.832v10.752c0 4.718-2.8 8.98-7.134 10.858l-.25.108-.16.22A5.437 5.437 0 0120.084 38h-.168a5.437 5.437 0 01-4.372-2.23l-.16-.22-.25-.108A11.83 11.83 0 018 24.584V13.832C8 7.308 13.308 2 19.832 2h.336m0-1h-.336C12.745 1 7 6.745 7 13.832v10.752c0 5.276 3.186 9.803 7.737 11.775a6.4 6.4 0 005.179 2.64h.168a6.4 6.4 0 005.179-2.64C29.814 34.388 33 29.86 33 24.584V13.832C33 6.745 27.255 1 20.168 1z" fill="#ba9b48"></path><circle cx="26.5" cy="21.5" r="1.5" fill="#36404d"></circle><circle cx="13.5" cy="21.5" r="1.5" fill="#36404d"></circle><path d="M11.572 33.891C9.903 32.55 5.5 28.32 5.5 21v-.265c-.001-2.226-.003-5.544.859-8.235H27a.5.5 0 01.5.5v3a.5.5 0 01-.5.5h-2a2.503 2.503 0 00-2.5 2.5v4.006c0 .824-.682 1.494-1.52 1.494-6.969 0-8.933 6.944-9.408 9.391zM12 17.5A2.503 2.503 0 009.5 20v3c0 1.219 1.023 2.33 2.146 2.33.208 0 .415-.037.612-.111l5.292-1.572c.95-.356.95-.961.949-1.602V19c0-.827-.673-1.5-1.5-1.5H12z" fill="#839cb2"></path><path d="M27 13v3h-2c-1.654 0-3 1.346-3 3v4.006c0 .548-.458.994-1.04.994-6.079 0-8.834 5.156-9.726 8.951A15.964 15.964 0 016 21v-.266c-.001-2.098-.003-5.181.73-7.734H27M11.646 25.83c.256 0 .508-.044.75-.13l5.296-1.575.034-.01.033-.012C19.001 23.636 19 22.716 19 22v-3c0-1.103-.897-2-2-2h-5c-1.654 0-3 1.346-3 3v3c0 1.507 1.237 2.83 2.646 2.83M27 12H6c-1.041 2.933-1 6.588-1 9 0 9.388 6.935 13.781 6.935 13.781S12.918 25 20.96 25h.019c1.109 0 2.02-.885 2.02-1.994L23 19a2 2 0 012-2h2c.55 0 1-.45 1-1v-3c0-.55-.45-1-1-1zM11.646 24.83C10.783 24.83 10 23.929 10 23v-3a2 2 0 012-2h5a1 1 0 011 1v3c0 .649.015.938-.592 1.167l-5.325 1.583c-.145.055-.292.08-.437.08z" fill="#66798f"></path><path d="M14.6 17h-4.2A1.4 1.4 0 019 15.6v-4.2a1.4 1.4 0 011.4-1.4h4.2a1.4 1.4 0 011.4 1.4v4.2a1.4 1.4 0 01-1.4 1.4z" fill="#36404d"></path><circle cx="12.5" cy="13.5" r="1.5" fill="#e1ebf2"></circle><circle cx="5.5" cy="23.5" r="1.5" fill="#f75252"></circle><path d="M5.5 21c-.17 0-.337.018-.498.05.001.353.027.687.047 1.026.143-.045.293-.076.451-.076a1.5 1.5 0 010 3c-.013 0-.025-.003-.037-.004.077.334.156.666.249.982A2.494 2.494 0 008 23.5C8 22.122 6.878 21 5.5 21z" fill="#66798f"></path></svg>