<svg viewBox="0 0 40 40" xmlns="http://www.w3.org/2000/svg"><path d="M30 33.5c-5.416 0-9.5-3.796-9.5-8.831h-1c0 5.034-4.084 8.831-9.5 8.831C4.762 33.5.5 29.238.5 24c0-5.673 2.933-8.953 5.521-11.847 1.727-1.932 3.236-3.62 3.453-5.653h21.053c.216 2.034 1.727 3.724 3.455 5.658C36.568 15.053 39.5 18.335 39.5 24c0 5.238-4.262 9.5-9.5 9.5z" fill="#ffeea3"></path><path d="M30.098 7c.393 2.003 1.914 3.704 3.51 5.491C36.135 15.32 39 18.526 39 24c0 4.963-4.037 9-9 9-5.131 0-9-3.581-9-8.33h-2c0 4.749-3.869 8.33-9 8.33-4.963 0-9-4.037-9-9 0-5.482 2.865-8.687 5.394-11.514C7.989 10.701 9.509 9.002 9.902 7h20.196M31 6H9c0 5-9 7.991-9 18 0 5.5 4.5 10 10 10s10-3.83 10-9.33c0 5.5 4.5 9.33 10 9.33s10-4.5 10-10c0-9.997-9-13-9-18z" fill="#ba9b48"></path><path d="M20 30.5c-.534 0-1.039-.05-1.506-.148.434-.862 1.006-2.296 1.006-5.352v-.057l-.013-.056c-.964-4.167-5.791-7.273-11.478-7.387l-.426-.004c-2.195 0-4.204.339-5.991 1.008 1.147-2.688 2.893-4.644 4.455-6.393a50.8 50.8 0 001.467-1.69C9.822 9.597 15.726 9.5 20 9.5c4.279 0 10.189.097 12.498.921.454.556.949 1.111 1.461 1.685 1.559 1.747 3.301 3.701 4.449 6.391-1.779-.665-3.786-1.001-5.984-1.001l-.434.004c-5.687.114-10.513 3.221-11.477 7.387l-.013.056V25c0 3.005.625 4.518 1 5.353a7.297 7.297 0 01-1.5.147z" fill="#f78f8f"></path><path d="M20 10c4.166 0 9.887.09 12.201.848.436.528.899 1.047 1.386 1.592 1.384 1.552 2.805 3.144 3.877 5.22-1.543-.442-3.23-.664-5.041-.664-.148 0-.295.002-.442.004-5.913.118-10.94 3.388-11.954 7.775l-.027.111V25c0 2.502.423 4.011.791 4.959a7.486 7.486 0 01-1.567.002c.388-.949.776-2.417.776-4.961v-.114l-.026-.111C18.96 20.388 13.932 17.118 8.02 17a20.964 20.964 0 00-.435-.004c-1.81 0-3.498.225-5.047.67 1.073-2.074 2.495-3.667 3.881-5.22.489-.548.954-1.068 1.391-1.598C10.124 10.09 15.839 10 20 10m0-1c-5.38 0-10.659.168-12.788 1-2.053 2.543-5.025 5.062-6.506 9.424 2.184-1.045 4.592-1.428 6.879-1.428.139 0 .277.001.415.004 5.107.102 10.027 2.79 11 7 0 3.684-.828 4.859-1.238 5.676.582.187 1.322.324 2.238.324.89 0 1.614-.13 2.189-.308C21.953 30 21 28.684 21 25c.973-4.21 5.893-6.898 11-7 .14-.003.281-.004.422-.004 2.285 0 4.69.376 6.872 1.42-1.481-4.362-4.441-6.873-6.494-9.416-2.129-.832-7.42-1-12.8-1z" fill="#c74343"></path><path d="M30.403 8a5.82 5.82 0 01-.305-1L30 6H10l-.098 1a5.824 5.824 0 01-.306 1h20.807z" fill="#ffeea3"></path></svg>