<svg viewBox="0 0 40 40" xmlns="http://www.w3.org/2000/svg"><path fill="#dcd5f2" d="M.5 7.5h39v24H.5z"></path><path d="M31.164 19.398c0-.481.449-.896 1.37-.896 1.044 0 1.795.285 2.38.625v-1.624c-.434-.233-1.09-.369-1.97-.409V16h-.912v1.119c-.763.072-1.375.33-1.838.773A2.145 2.145 0 0029.5 19.5c0 2.487 4.338 2.564 4.338 3.928 0 .485-.631.86-1.336.86-1.442 0-2.592-.588-2.833-.776v1.666a5.262 5.262 0 002.363.553V27h.912v-1.305c.821-.088 1.452-.336 1.894-.742.441-.407.662-.943.662-1.609.001-2.656-4.336-2.453-4.336-3.946z" fill="#5e9c76"></path><path fill="#b3add8" d="M.5 7.5h39v5H.5z"></path><path fill="#8b75a1" d="M.5 12h39v1H.5z"></path><path d="M40 32H0V7h40v25zM1 31h38V8H1v23z" fill="#8b75a1"></path><path fill="#c74343" d="M12 24h2v2h-2zM24.963 25.807c-.802 0-1.428-.328-1.877-.982-.449-.656-.674-1.603-.674-2.842 0-1.36.234-2.391.703-3.088.47-.699 1.146-1.048 2.03-1.048 1.694 0 2.541 1.315 2.541 3.948 0 1.303-.239 2.298-.717 2.983-.478.686-1.147 1.029-2.006 1.029zm.124-6.967c-.935 0-1.402 1.03-1.402 3.089 0 1.927.459 2.89 1.375 2.89.902 0 1.354-.979 1.354-2.938-.001-2.027-.443-3.041-1.327-3.041zM17.963 25.807c-.802 0-1.428-.328-1.877-.982-.449-.656-.674-1.603-.674-2.842 0-1.36.234-2.391.703-3.088.47-.699 1.146-1.048 2.03-1.048 1.694 0 2.541 1.315 2.541 3.948 0 1.303-.239 2.298-.717 2.983-.478.686-1.147 1.029-2.006 1.029zm.124-6.967c-.935 0-1.402 1.03-1.402 3.089 0 1.927.459 2.89 1.375 2.89.902 0 1.354-.979 1.354-2.938-.001-2.027-.443-3.041-1.327-3.041zM7.963 25.807c-.802 0-1.428-.328-1.877-.982-.449-.656-.674-1.603-.674-2.842 0-1.36.234-2.391.703-3.088.47-.699 1.146-1.048 2.03-1.048 1.694 0 2.541 1.315 2.541 3.948 0 1.303-.239 2.298-.717 2.983-.478.686-1.147 1.029-2.006 1.029zm.124-6.967c-.935 0-1.402 1.03-1.402 3.089 0 1.927.459 2.89 1.375 2.89.902 0 1.354-.979 1.354-2.938-.001-2.027-.443-3.041-1.327-3.041z"></path></svg>