<svg viewBox="0 0 40 40" xmlns="http://www.w3.org/2000/svg"><path d="M36.779 31.384c-1.74-.664-8.886-3.568-12.323-7.704L20.713 20l3.709-3.644c4.945-4.721 10.819-7.157 12.356-7.743.473.933 1.722 4.085 1.722 11.387 0 7.292-1.245 10.446-1.721 11.384zm-33.558 0C2.745 30.446 1.5 27.292 1.5 20c0-7.296 1.247-10.449 1.722-11.386 1.538.587 7.419 3.028 12.361 7.748L19.286 20l-3.708 3.644c-3.468 4.168-10.617 7.076-12.357 7.74z" fill="#ddd5f2"></path><path d="M3.478 9.251c1.976.794 7.253 3.169 11.749 7.462L18.573 20l-3.345 3.287-.036.035-.032.039c-3.126 3.761-9.441 6.499-11.682 7.387C2.955 29.506 2 26.364 2 20c0-6.366.956-9.507 1.478-10.749m33.044.001C37.045 10.494 38 13.635 38 20c0 6.375-.958 9.516-1.476 10.749-2.239-.888-8.556-3.626-11.683-7.388l-.032-.039-.036-.035L21.427 20l3.335-3.277c4.494-4.291 9.781-6.674 11.76-7.471M37 8s-7.064 2.4-12.929 8L20 20l4.071 4C28.119 28.869 37 32 37 32s2-2.667 2-12-2-12-2-12zM3 8s-2 2.667-2 12 2 12 2 12 8.881-3.13 12.929-8L20 20l-4.071-4C10.064 10.4 3 8 3 8z" fill="#8b75a1"></path><path d="M16.295 24.5c-.246-.505-.795-1.921-.795-4.5 0-2.577.548-3.992.795-4.5h7.416c.244.485.789 1.866.789 4.5 0 2.63-.544 4.011-.789 4.5h-7.416z" fill="#ddd5f2"></path><path d="M23.388 16c.243.598.612 1.86.612 4 0 2.146-.371 3.409-.61 4h-6.769c-.247-.617-.621-1.899-.621-4 0-2.106.376-3.389.619-4h6.769M24 15h-8s-1 1.448-1 5 1 5 1 5h8s1-1.365 1-5-1-5-1-5z" fill="#8b75a1"></path><path d="M14 19H8.378c-1.272 0-1.575-1.369-1.265-2.225.232-.856 1.351-.913 2.203-.601C10.166 16.485 14 19 14 19zM14 21H8.378c-1.272 0-1.575 1.369-1.265 2.225.232.856 1.351.913 2.203.601C10.166 23.515 14 21 14 21zM26 19h5.622c1.272 0 1.575-1.369 1.265-2.225-.232-.856-1.351-.913-2.203-.601C29.834 16.485 26 19 26 19zM26 21h5.622c1.272 0 1.575 1.369 1.265 2.225-.232.856-1.351.913-2.203.601C29.834 23.515 26 21 26 21z" fill-rule="evenodd" clip-rule="evenodd" fill="#ccc3e1"></path></svg>