<svg viewBox="0 0 40 40" xmlns="http://www.w3.org/2000/svg"><circle cx="29" cy="5" r="3.5" fill="#f5ce85"></circle><path d="M29 2c1.654 0 3 1.346 3 3s-1.346 3-3 3-3-1.346-3-3 1.346-3 3-3m0-1a4 4 0 100 8 4 4 0 000-8z" fill="#967a44"></path><path d="M12.766 38.5l-1.252-19.15a6.352 6.352 0 011.418-4.44l5.518-6.778C19.281 7.11 20.506 6.5 21.726 6.5c.791 0 1.556.257 2.211.744a3.933 3.933 0 011.577 2.69 3.858 3.858 0 01-.844 2.94l-7.17 9.06V38.5h-4.734z" fill="#8bb7f0"></path><path d="M21.725 7a3.15 3.15 0 011.913.645 3.433 3.433 0 011.379 2.351 3.372 3.372 0 01-.744 2.574l-7.058 8.918-.215.272V38h-3.767l-1.221-18.682a5.857 5.857 0 011.307-4.093l5.518-6.778C19.575 7.541 20.655 7 21.725 7m0-1c-1.379 0-2.735.676-3.663 1.816l-5.518 6.778a6.876 6.876 0 00-1.529 4.789L12.296 39H18V22.108l7.058-8.918c1.587-1.949 1.221-4.829-.823-6.348A4.176 4.176 0 0021.725 6z" fill="#4e7ab5"></path><path d="M21.76 6.5c-.651 0-1.568.276-1.86.485-.292.209-6.213 4.175-6.213 4.175a1.255 1.255 0 00-.633.792L10.6 18.839c-.317.792.158 1.742.95 2.058.158.079.317.079.554.079.633 0 1.267-.396 1.504-1.029l2.217-6.333 3.562-2.217" fill="#8bb7f0" stroke="#4e7ab5" stroke-linejoin="round" stroke-miterlimit="10"></path></svg>