<svg viewBox="0 0 40 40" xmlns="http://www.w3.org/2000/svg"><path d="M30.5 34.5c-2.685 0-3.603-.607-3.627-.902.002-.158-.08-.575-.283-1.584-.296-1.474-.742-3.702-.962-5.733-.328-2.974-.033-6.048.877-9.139.211-.636.777-2.488 1.188-3.833.239-.785.426-1.394.454-1.478.723-2.074.191-3.884-.235-5.339-.213-.725-.398-1.355-.411-1.908l.005-.02-.008-.103C27.5 2.846 28.846 1.5 30.5 1.5s3 1.346 3 3c-.001.531-.181 1.163-.389 1.894-.427 1.499-.957 3.363-.261 5.432.023.07.168.545.365 1.189a306.524 306.524 0 001.284 4.142c.905 3.074 1.2 6.148.872 9.122-.22 2.033-.666 4.26-.962 5.734-.203 1.009-.285 1.427-.285 1.626-.022.252-.94.86-3.62.86H30.5z" fill="#e1ebf2"></path><path d="M30.5 2a2.503 2.503 0 012.499 2.436l-.001.005-.001.072-.001.107c-.023.431-.19 1.017-.366 1.634-.446 1.565-1 3.514-.256 5.73.027.083.176.569.375 1.219.415 1.357 1.041 3.408 1.265 4.079.892 3.026 1.181 6.035.86 8.944-.217 2.009-.661 4.223-.955 5.688-.176.876-.257 1.288-.284 1.544-.212.172-1.081.538-3.106.541h-.059c-2.024-.003-2.893-.369-3.105-.541-.027-.256-.108-.669-.284-1.544-.294-1.465-.738-3.679-.955-5.691-.321-2.907-.032-5.915.85-8.909.22-.663.786-2.517 1.2-3.871.232-.759.412-1.35.445-1.448.775-2.225.219-4.121-.229-5.645-.194-.66-.363-1.238-.388-1.712l-.001-.125-.001-.071A2.501 2.501 0 0130.5 2m0-1A3.5 3.5 0 0027 4.5l.002.022H27c0 1.838 1.703 4.197.676 7.146-.076.217-1.306 4.295-1.65 5.332-.895 3.036-1.239 6.222-.895 9.334.344 3.184 1.244 6.861 1.244 7.306.069.815 1.576 1.36 4.12 1.36h.01c2.544 0 4.051-.545 4.12-1.36 0-.445.9-4.122 1.244-7.306.344-3.112 0-6.297-.895-9.334-.344-1.037-1.576-5.114-1.65-5.333-.98-2.917.676-5.448.676-7.145h-.002L34 4.5A3.5 3.5 0 0030.5 1z" fill="#a3b7cc"></path><path d="M15.536 38.464c-6.065 0-11-4.935-11-11s4.935-11 11-11 11 4.935 11 11-4.934 11-11 11z" fill="#99c99e"></path><path d="M15.536 16.964c5.79 0 10.5 4.71 10.5 10.5s-4.71 10.5-10.5 10.5-10.5-4.71-10.5-10.5 4.71-10.5 10.5-10.5m0-1c-6.363 0-11.5 5.136-11.5 11.5s5.137 11.5 11.5 11.5 11.5-5.136 11.5-11.5-5.137-11.5-11.5-11.5z" fill="#5e9c76"></path><path d="M15 19a2 2 0 11.001 3.999A2 2 0 0115 19M20.5 22a1.5 1.5 0 11-.001 3.001A1.5 1.5 0 0120.5 22M16.5 25a1.5 1.5 0 11-.001 3.001A1.5 1.5 0 0116.5 25" fill="#5e9c76"></path><g fill="#f75252"><path d="M27.798 8c.14.629.231 1.295.199 2h5.025c-.028-.7.058-1.369.192-2h-5.416zM34.039 14l-.612-2h-5.856c-.13.421-.361 1.18-.612 2h7.08z"></path></g></svg>