<svg viewBox="0 0 40 40" xmlns="http://www.w3.org/2000/svg"><circle cx="20" cy="6" r="4.5" fill="#f5ce85"></circle><path d="M20 2c2.206 0 4 1.794 4 4s-1.794 4-4 4-4-1.794-4-4 1.794-4 4-4m0-1a5 5 0 10.001 10.001A5 5 0 0020 1z" fill="#967a44"></path><path d="M13.036 27.5a1.538 1.538 0 01-1.536-1.536v-8.521l.016.005c.249.083.589.195.97.195h2.086v8.321a1.538 1.538 0 01-1.536 1.536z" fill="#f5ce85"></path><path d="M12 18.098c.15.027.312.045.485.045h1.587v7.821c0 .571-.465 1.036-1.036 1.036A1.037 1.037 0 0112 25.964v-7.866m-.75-1.228c-.158 0-.25.096-.25.401v8.694a2.035 2.035 0 104.072-.001v-8.821h-2.587c-.515 0-.969-.273-1.235-.273z" fill="#967a44"></path><path d="M27 27.5c-.827 0-1.5-.673-1.5-1.5v-7.5h3V26c0 .827-.673 1.5-1.5 1.5z" fill="#f5ce85"></path><path d="M28 19v7c0 .551-.449 1-1 1s-1-.449-1-1v-7h2m1-1h-4v8a2 2 0 104 0v-8z" fill="#967a44"></path><path d="M23.5 38.5c-1.103 0-2-.897-2-2v-10h4v10c0 1.103-.897 2-2 2z" fill="#f5ce85"></path><path d="M25 27v9.5c0 .827-.673 1.5-1.5 1.5s-1.5-.673-1.5-1.5V27h3m1-1h-5v10.5a2.5 2.5 0 105 0V26z" fill="#967a44"></path><g><path d="M16.5 38.5c-1.103 0-2-.897-2-2v-10h4v10c0 1.103-.897 2-2 2z" fill="#f5ce85"></path><path d="M18 27v9.5c0 .827-.673 1.5-1.5 1.5s-1.5-.673-1.5-1.5V27h3m1-1h-5v10.5a2.5 2.5 0 105 0V26z" fill="#967a44"></path></g><g><path d="M14.5 24.5v-6h-3V17c0-2.481 2.019-4.5 4.5-4.5h8c2.481 0 4.5 2.019 4.5 4.5v1.5h-3v6h-11z" fill="#c2e8ff"></path><path d="M24 13c2.206 0 4 1.794 4 4v1h-3v6H15v-6h-3v-1c0-2.206 1.794-4 4-4h8m0-1h-8a5 5 0 00-5 5v2h3v6h12v-6h3v-2a5 5 0 00-5-5z" fill="#7496c4"></path></g><g><path fill="#f78f8f" d="M21.207 29.5L20 28.293 18.793 29.5H14.5v-7h11v7z"></path><path d="M25 23v6h-3.586l-.707-.707-.707-.707-.707.707-.707.707H15v-6h10m1-1H14v8h5l1-1 1 1h5v-8z" fill="#c74343"></path></g></svg>