<svg viewBox="0 0 40 40" xmlns="http://www.w3.org/2000/svg"><path d="M19.5 4C28.047 4 35 10.953 35 19.5S28.047 35 19.5 35 4 28.047 4 19.5 10.953 4 19.5 4m0-1C10.387 3 3 10.387 3 19.5S10.387 36 19.5 36 36 28.613 36 19.5 28.613 3 19.5 3z" fill="#ba9b48"></path><circle cx="19.5" cy="35.5" r="3" fill="#ffeea3"></circle><path d="M19.5 33c1.379 0 2.5 1.121 2.5 2.5S20.879 38 19.5 38 17 36.879 17 35.5s1.121-2.5 2.5-2.5m0-1a3.5 3.5 0 100 7 3.5 3.5 0 000-7z" fill="#ba9b48"></path><circle cx="27.5" cy="5.5" r="3" fill="#f78f8f"></circle><path d="M27.5 3C28.879 3 30 4.122 30 5.5S28.879 8 27.5 8 25 6.878 25 5.5 26.121 3 27.5 3m0-1a3.5 3.5 0 100 7 3.5 3.5 0 000-7z" fill="#c74343"></path><circle cx="33.5" cy="27.5" r="3" fill="#f78f8f"></circle><path d="M33.5 25c1.378 0 2.5 1.122 2.5 2.5S34.878 30 33.5 30 31 28.878 31 27.5s1.122-2.5 2.5-2.5m0-1a3.5 3.5 0 100 7 3.5 3.5 0 000-7z" fill="#c74343"></path><circle cx="19.5" cy="3.5" r="3" fill="#ffeea3"></circle><path d="M19.5 1C20.879 1 22 2.122 22 3.5S20.879 6 19.5 6 17 4.878 17 3.5 18.121 1 19.5 1m0-1a3.5 3.5 0 100 7 3.5 3.5 0 000-7z" fill="#ba9b48"></path><circle cx="11.5" cy="5.5" r="3" fill="#ffeea3"></circle><path d="M11.5 3C12.879 3 14 4.122 14 5.5S12.879 8 11.5 8 9 6.878 9 5.5 10.121 3 11.5 3m0-1a3.5 3.5 0 100 7 3.5 3.5 0 000-7z" fill="#ba9b48"></path><circle cx="27.5" cy="33.5" r="3" fill="#ffeea3"></circle><path d="M27.5 31c1.379 0 2.5 1.121 2.5 2.5S28.879 36 27.5 36 25 34.879 25 33.5s1.121-2.5 2.5-2.5m0-1a3.5 3.5 0 100 7 3.5 3.5 0 000-7z" fill="#ba9b48"></path><g><circle cx="35.5" cy="19.5" r="3" fill="#ffeea3"></circle><path d="M35.5 17c1.378 0 2.5 1.122 2.5 2.5S36.878 22 35.5 22 33 20.878 33 19.5s1.122-2.5 2.5-2.5m0-1a3.5 3.5 0 100 7 3.5 3.5 0 000-7z" fill="#ba9b48"></path></g><g><circle cx="33.5" cy="11.5" r="3" fill="#ffeea3"></circle><path d="M33.5 9c1.378 0 2.5 1.122 2.5 2.5S34.878 14 33.5 14 31 12.878 31 11.5 32.122 9 33.5 9m0-1a3.5 3.5 0 100 7 3.5 3.5 0 000-7z" fill="#ba9b48"></path></g><g><circle cx="5.5" cy="27.5" r="3" fill="#ffeea3"></circle><path d="M5.5 25C6.879 25 8 26.122 8 27.5S6.879 30 5.5 30 3 28.878 3 27.5 4.121 25 5.5 25m0-1a3.5 3.5 0 100 7 3.5 3.5 0 000-7z" fill="#ba9b48"></path></g><g><circle cx="3.5" cy="19.5" r="3" fill="#ffeea3"></circle><path d="M3.5 17C4.879 17 6 18.122 6 19.5S4.879 22 3.5 22 1 20.878 1 19.5 2.121 17 3.5 17m0-1a3.5 3.5 0 100 7 3.5 3.5 0 000-7z" fill="#ba9b48"></path></g><g><circle cx="11.5" cy="33.5" r="3" fill="#f78f8f"></circle><path d="M11.5 31c1.379 0 2.5 1.121 2.5 2.5S12.879 36 11.5 36 9 34.879 9 33.5s1.121-2.5 2.5-2.5m0-1a3.5 3.5 0 100 7 3.5 3.5 0 000-7z" fill="#c74343"></path></g><g><circle cx="5.5" cy="11.5" r="3" fill="#f78f8f"></circle><path d="M5.5 9C6.879 9 8 10.122 8 11.5S6.879 14 5.5 14 3 12.878 3 11.5 4.121 9 5.5 9m0-1a3.5 3.5 0 100 7 3.5 3.5 0 000-7z" fill="#c74343"></path></g></svg>