<svg viewBox="0 0 40 40" xmlns="http://www.w3.org/2000/svg"><circle cx="13" cy="6" r="3.5" fill="#dcd5f2"></circle><path d="M13 3c1.654 0 3 1.346 3 3s-1.346 3-3 3-3-1.346-3-3 1.346-3 3-3m0-1a4 4 0 100 8 4 4 0 000-8z" fill="#8b75a1"></path><circle cx="27" cy="6" r="3.5" fill="#dcd5f2"></circle><path d="M27 3c1.654 0 3 1.346 3 3s-1.346 3-3 3-3-1.346-3-3 1.346-3 3-3m0-1a4 4 0 100 8 4 4 0 000-8z" fill="#8b75a1"></path><circle cx="13" cy="20" r="3.5" fill="#dcd5f2"></circle><path d="M13 17c1.654 0 3 1.346 3 3s-1.346 3-3 3-3-1.346-3-3 1.346-3 3-3m0-1a4 4 0 100 8 4 4 0 000-8z" fill="#8b75a1"></path><g><circle cx="27" cy="20" r="3.5" fill="#dcd5f2"></circle><path d="M27 17c1.654 0 3 1.346 3 3s-1.346 3-3 3-3-1.346-3-3 1.346-3 3-3m0-1a4 4 0 100 8 4 4 0 000-8z" fill="#8b75a1"></path></g><g><circle cx="13" cy="34" r="3.5" fill="#dcd5f2"></circle><path d="M13 31c1.654 0 3 1.346 3 3s-1.346 3-3 3-3-1.346-3-3 1.346-3 3-3m0-1a4 4 0 100 8 4 4 0 000-8z" fill="#8b75a1"></path></g><g><circle cx="27" cy="34" r="3.5" fill="#dcd5f2"></circle><path d="M27 31c1.654 0 3 1.346 3 3s-1.346 3-3 3-3-1.346-3-3 1.346-3 3-3m0-1a4 4 0 100 8 4 4 0 000-8z" fill="#8b75a1"></path></g></svg>