<svg viewBox="0 0 40 40" xmlns="http://www.w3.org/2000/svg"><path d="M8.43 37.5A6 6 0 014 36c-4-4-.1-14.41 8.7-23.21C19 6.52 26.36 2.5 31.57 2.5A6 6 0 0136 4c4 4 .1 14.41-8.7 23.21C21 33.48 13.64 37.5 8.43 37.5z" fill="#f5ce85"></path><path d="M31.57 3a5.48 5.48 0 014 1.4c1.72 1.72 1.85 5 .37 9.11A38.61 38.61 0 0126.9 26.9C20.77 33 13.52 37 8.43 37a5.48 5.48 0 01-4-1.4c-1.72-1.72-1.85-5-.37-9.11A38.61 38.61 0 0113.1 13.1C19.23 7 26.48 3 31.57 3m0-1c-5.19 0-12.64 3.85-19.18 10.39-9 9-12.9 19.71-8.7 23.92A6.47 6.47 0 008.43 38c5.19 0 12.64-3.85 19.18-10.39 9-9 12.9-19.71 8.7-23.92A6.47 6.47 0 0031.57 2z" fill="#967a44"></path><path d="M25.57 7.57a7.39 7.39 0 002 4.89 7.39 7.39 0 004.89 2 17.3 17.3 0 00-6.85-6.85zM19.42 12.5a8.71 8.71 0 002.31 5.77 8.71 8.71 0 005.77 2.31 20.39 20.39 0 00-8.07-8.07zM13.89 18a8.71 8.71 0 002.31 5.77 8.71 8.71 0 005.8 2.34A20.39 20.39 0 0013.89 18zM8.8 24a7.74 7.74 0 002 5.12 7.74 7.74 0 005.12 2 18.24 18.24 0 00-3.07-4.1A18.24 18.24 0 008.8 24z" fill="#b08159"></path></svg>