<svg viewBox="0 0 40 40" xmlns="http://www.w3.org/2000/svg"><path fill="#805f51" d="M15.071 13.714h9.857v8.5h-9.857z"></path><path d="M24.429 14.214v7.5h-8.857v-7.5h8.857m1-1H14.571v9.5h10.857v-9.5h.001z" fill="#593f33"></path><path d="M5.5 38.5V37c0-7.995 6.505-14.5 14.5-14.5S34.5 29.005 34.5 37v1.5h-29z" fill="#f78f8f"></path><path d="M20 23c7.72 0 14 6.28 14 14v1H6v-1c0-7.72 6.28-14 14-14m0-1c-8.284 0-15 6.716-15 15v2h30v-2c0-8.284-6.716-15-15-15z" fill="#c74343"></path><path d="M18.438 38.5l-1.942-14.566.004-3.434h7v3.744l.193.15c.348.271 8.393 6.682 3.054 14.105h-8.309z" fill="#f5ce85"></path><path d="M23 21v3.489l.386.3c.33.256 7.872 6.248 3.101 13.211h-7.611L17 23.934V21h6m1-1h-8v4l2 15h9c6-8-3-15-3-15v-4z" fill="#967a44"></path><path d="M20 27.5c-2.577 0-3.393-2.654-3.5-3.05V19.5h7v4.951c-.11.417-.907 3.049-3.5 3.049z" fill="#deb974"></path><path d="M23 20v4.383c-.138.478-.878 2.617-3 2.617-2.126 0-2.86-2.131-3-2.616V20h6m1-1h-8v5.513S16.799 28 20 28s4-3.487 4-3.487V19z" fill="#967a44"></path><g><path d="M20 22.214a4.934 4.934 0 01-4.929-4.929V6.114h9.857v11.171A4.933 4.933 0 0120 22.214z" fill="#f5ce85"></path><path d="M24.429 6.614v10.671c0 2.442-1.987 4.429-4.429 4.429s-4.429-1.987-4.429-4.429V6.614h8.858m1-1H14.571v11.671a5.429 5.429 0 1010.858 0V5.614z" fill="#967a44"></path></g><g><path d="M24.5 22.5V12c0-.131-.017-3.231-1.442-4.578l-.419-.396-.333.471C21.576 8.534 19.489 11.5 16 11.5h-.5v11h-.43l-6.569-1.877C8.604 4.165 15.457 1.573 19.554 1.5h2.068l1.08 2H23c5.42 0 8.432 6.076 8.499 17.123L24.93 22.5h-.43z" fill="#a6714e"></path><path d="M21.323 2l.797 1.475.284.525H23c6.692 0 7.911 9.845 7.995 16.247L25 21.96V12c0-.351-.045-3.473-1.599-4.941l-.839-.792-.665.942-.044.062C21.205 8.194 19.23 11 16 11h-1v10.96l-5.995-1.713C9.158 8.59 12.893 2.119 19.545 2h1.778m.597-1h-2.375C14.225 1.095 8 5 8 21l7 2h1V12c3.833 0 6.092-3.332 6.714-4.214C24 9 24 12 24 12v11h1l7-2c0-3.135 0-18-9-18l-1.08-2z" fill="#7a4f34"></path></g><g><path d="M15.274 38.5l5.573-3.981a5.444 5.444 0 013.182-1.019c.699 0 1.382.131 2.031.391a5.44 5.44 0 013.419 4.609H15.274z" fill="#8bb7f0"></path><path d="M24.029 34c.635 0 1.256.12 1.846.356a4.94 4.94 0 013.028 3.645H16.835l4.304-3.074a4.936 4.936 0 012.89-.927m0-1a5.976 5.976 0 00-3.472 1.112L13.714 39H30v-.028a5.973 5.973 0 00-3.754-5.545A5.976 5.976 0 0024.029 33z" fill="#4e7ab5"></path></g><g><circle cx="27" cy="32" r="3.5" fill="#ffdea3"></circle><path d="M27 29c1.654 0 3 1.346 3 3s-1.346 3-3 3-3-1.346-3-3 1.346-3 3-3m0-1a4 4 0 100 8 4 4 0 000-8z" fill="#967a44"></path></g></svg>