<svg viewBox="0 0 40 40" xmlns="http://www.w3.org/2000/svg"><path fill="#b0c1d4" d="M2.5 2.5h35v35h-35z"></path><path d="M37 3v34H3V3h34m1-1H2v36h36V2z" fill="#788b9c"></path><path fill="#b0c1d4" d="M23.5 2.5h14v7h-14z"></path><path d="M37 3v6H24V3h13m1-1H23v8h15V2z" fill="#788b9c"></path><path fill="#b0c1d4" d="M9.5 2.5h14v7h-14z"></path><path d="M23 3v6H10V3h13m1-1H9v8h15V2z" fill="#788b9c"></path><path fill="#b0c1d4" d="M2.5 9.5h14v7h-14z"></path><path d="M16 10v6H3v-6h13m1-1H2v8h15V9z" fill="#788b9c"></path><path fill="#b0c1d4" d="M16.5 9.5h14v7h-14z"></path><path d="M30 10v6H17v-6h13m1-1H16v8h15V9z" fill="#788b9c"></path><path fill="#b0c1d4" d="M23.5 16.5h14v7h-14z"></path><path d="M37 17v6H24v-6h13m1-1H23v8h15v-8z" fill="#788b9c"></path><g><path fill="#b0c1d4" d="M9.5 16.5h14v7h-14z"></path><path d="M23 17v6H10v-6h13m1-1H9v8h15v-8z" fill="#788b9c"></path></g><g><path fill="#b0c1d4" d="M16.5 23.5h14v7h-14z"></path><path d="M30 24v6H17v-6h13m1-1H16v8h15v-8z" fill="#788b9c"></path></g><g><path fill="#b0c1d4" d="M2.5 23.5h14v7h-14z"></path><path d="M16 24v6H3v-6h13m1-1H2v8h15v-8z" fill="#788b9c"></path></g><g><path fill="#b0c1d4" d="M23.5 30.5h14v7h-14z"></path><path d="M37 31v6H24v-6h13m1-1H23v8h15v-8z" fill="#788b9c"></path></g><g><path fill="#b0c1d4" d="M9.5 30.5h14v7h-14z"></path><path d="M23 31v6H10v-6h13m1-1H9v8h15v-8z" fill="#788b9c"></path></g></svg>