<svg viewBox="0 0 40 40" xmlns="http://www.w3.org/2000/svg"><path fill="#deb974" d="M2.5 30.658V7.38L20 2.519 37.5 7.38v23.278L20 37.463z"></path><path d="M20 3.038L37 7.76v22.556l-17 6.611-17-6.611V7.76l17-4.722M20 2L2 7v24l18 7 18-7V7L20 2z" fill="#967a44"></path><path fill="#bae0bd" d="M2.5 7.62v-.24L20 2.519 37.5 7.38v.24L20 12.481z"></path><path d="M20 3.038L36.064 7.5 20 11.962 3.936 7.5 20 3.038M20 2L2 7v1l18 5 18-5V7L20 2z" fill="#5e9c76"></path><path fill="#f78f8f" d="M20.5 12.38l17-4.722v23l-17 6.611z"></path><path d="M37 8.316v22l-16 6.222V12.76l16-4.444M38 7l-18 5v26l18-7V7z" fill="#c74343"></path><path d="M16.408 31.227l-2.739-.923-1.008-3.471-3.631-1.187-.78 2.82-2.413-.803 3.715-12.818 2.957.781 3.899 15.601zm-4.372-7.002l-1.176-5.15a9.083 9.083 0 01-.185-1.351l-.061-.017a6.224 6.224 0 01-.189 1.204l-1.161 4.457 2.772.857zM25.41 31.018V15.831l4.166-1.298c1.238-.386 2.178-.379 2.83.014.646.39.968 1.123.968 2.203 0 .782-.195 1.534-.588 2.256a5.186 5.186 0 01-1.519 1.761v.041c.776-.143 1.391.023 1.849.496.455.471.682 1.159.682 2.067 0 1.326-.35 2.512-1.053 3.564-.709 1.062-1.687 1.842-2.943 2.34l-4.392 1.743zm2.601-13.513v3.548l1.12-.387c.521-.18.929-.488 1.225-.923.296-.434.443-.941.443-1.523 0-1.082-.607-1.425-1.833-1.026l-.955.311zm0 6.053v3.945l1.378-.527a2.803 2.803 0 001.36-1.055 2.85 2.85 0 00.487-1.64c0-.587-.159-.99-.479-1.209-.321-.22-.771-.226-1.352-.016l-1.394.502zM19.52 10.459c-1.103-.149-2.278-.44-3.528-.872-1.629-.563-2.493-1.157-2.59-1.782s.55-1.189 1.942-1.692c1.482-.536 3.209-.789 5.18-.76 1.971.029 3.794.333 5.467.911 1.037.358 1.797.702 2.279 1.03l-2.01.727c-.34-.38-.965-.727-1.873-1.04-.997-.345-2.076-.524-3.235-.538s-2.207.149-3.141.487c-.896.324-1.321.682-1.276 1.074s.557.757 1.535 1.095c.933.322 1.985.546 3.157.67l-1.907.69z" fill="#fff"></path></svg>