<svg viewBox="0 0 40 40" xmlns="http://www.w3.org/2000/svg"><path fill="#f78f8f" d="M18.5 1.5h3v17h-3z"></path><path d="M21 2v16h-2V2h2m1-1h-4v18h4V1z" fill="#c74343"></path><path d="M1 15.5c5.429 0 14.949-7.475 17.35-14h3.3c2.401 6.525 11.921 14 17.35 14M25.5 19V7.514M29.5 19v-7.756M33.5 19v-5.118M37.5 19v-3.539M14.5 19V7.514M10.5 19v-7.756M6.5 19v-5.118M2.5 19v-3.539" fill="none" stroke="#c74343" stroke-miterlimit="10"></path><path d="M28.5 32.5V25a3.505 3.505 0 00-3-3.464V20.5h12v1.036a3.505 3.505 0 00-3 3.464v7.5h-6z" fill="#f78f8f"></path><path d="M37 21v.127A4.007 4.007 0 0034 25v7h-5v-7a4.007 4.007 0 00-3-3.873V21h11m1-1H25v2a3 3 0 013 3v8h7v-8a3 3 0 013-3v-2z" fill="#c74343"></path><path d="M5.5 32.5V25a3.505 3.505 0 00-3-3.464V20.5h12v1.036a3.505 3.505 0 00-3 3.464v7.5h-6z" fill="#f78f8f"></path><path d="M14 21v.127A4.007 4.007 0 0011 25v7H6v-7a4.007 4.007 0 00-3-3.873V21h11m1-1H2v2a3 3 0 013 3v8h7v-8a3 3 0 013-3v-2z" fill="#c74343"></path><path fill="#f78f8f" d="M1.5 18.5h37v3h-37z"></path><path d="M38 19v2H2v-2h36m1-1H1v4h38v-4z" fill="#c74343"></path><g><path fill="#f78f8f" d="M1 19h38v2H1z"></path></g><path d="M1 39h38v-7.123c-1.308-.263-2.852-.877-4-.877-1.458 0-3.563 1-5 1-1.438 0-3.542-1-5-1s-3.563 1-5 1c-1.438 0-3.542-1-5-1s-3.563 1-5 1c-1.438 0-3.542-1-5-1-1.148 0-2.692.614-4 .877V39z" fill="#8bb7f0"></path><g><path d="M35 31c-1.458 0-3.563 1-5 1-1.438 0-3.542-1-5-1s-3.563 1-5 1c-1.438 0-3.542-1-5-1s-3.563 1-5 1c-1.438 0-3.542-1-5-1-1.148 0-2.692.614-4 .877V32.9c.574-.103 1.17-.271 1.754-.435C3.566 32.237 4.406 32 5 32s1.434.237 2.246.465c.934.263 1.9.535 2.754.535s1.82-.272 2.754-.535C13.566 32.237 14.406 32 15 32s1.434.237 2.246.465c.934.263 1.9.535 2.754.535s1.82-.272 2.754-.535C23.566 32.237 24.406 32 25 32s1.434.237 2.246.465c.934.263 1.9.535 2.754.535s1.82-.272 2.754-.535C33.566 32.237 34.406 32 35 32s1.434.237 2.246.465c.584.165 1.18.332 1.754.435v-1.023c-1.308-.263-2.852-.877-4-.877z" fill="#4e7ab5"></path></g></svg>