<svg viewBox="0 0 40 40" xmlns="http://www.w3.org/2000/svg"><path d="M25 2c.551 0 1 .449 1 1v3H14V3c0-.551.449-1 1-1h10m0-1H15a2 2 0 00-2 2v4h14V3a2 2 0 00-2-2z" fill="#967a44"></path><path fill="#f5ce85" d="M1.5 15.5h37v20h-37z"></path><path d="M38 16v19H2V16h36m1-1H1v21h38V15z" fill="#967a44"></path><path d="M5 21.5c-1.93 0-3.5-1.57-3.5-3.5V4.5h37V18c0 1.93-1.57 3.5-3.5 3.5H5z" fill="#f5ce85"></path><path d="M38 5v13c0 1.654-1.346 3-3 3H5c-1.654 0-3-1.346-3-3V5h36m1-1H1v14a4 4 0 004 4h30a4 4 0 004-4V4z" fill="#967a44"></path><circle cx="20" cy="17" r="2" fill="#967a44"></circle><path d="M28 5h-3v-.5a1.5 1.5 0 013 0V5zM15 5h-3v-.5a1.5 1.5 0 013 0V5z" fill="#967a44"></path></svg>