<svg viewBox="0 0 40 40" xmlns="http://www.w3.org/2000/svg"><path fill="#ffeea3" d="M11.388 7.612L8.424 6.5l2.964-1.112L12.5 2.424l1.112 2.964L16.576 6.5l-2.964 1.112-1.112 2.964z"></path><path d="M12.5 3.848l.564 1.503.16.426.426.16 1.502.563-1.503.564-.426.16-.16.426-.563 1.502-.564-1.503-.16-.426-.426-.16L9.848 6.5l1.503-.564.426-.16.16-.426.563-1.502M12.5 1L11 5 7 6.5 11 8l1.5 4L14 8l4-1.5L14 5l-1.5-4z" fill="#f5c276"></path><path fill="#ffeea3" d="M5.396 15.604L3.581 15l1.815-.604L6 12.581l.604 1.815L8.419 15l-1.815.604L6 17.419z"></path><path d="M6 14.162l.051.154.158.474.474.158.155.052-.154.051-.474.158-.158.474-.052.155-.051-.154-.158-.474-.474-.158L5.162 15l.154-.051.474-.158.158-.474.052-.155M6 11l-1 3-3 1 3 1 1 3 1-3 3-1-3-1-1-3z" fill="#f5c276"></path><g><path d="M24.5 38.5c-7.72 0-14-6.28-14-14s6.28-14 14-14c.681 0 1.374.055 2.072.163C23.022 12.549 20.5 16.717 20.5 21c0 5.986 4.514 10.5 10.5 10.5 2.22 0 4.697-.868 6.674-2.284A13.918 13.918 0 0124.5 38.5z" fill="#ffeea3"></path><path d="M24.5 11c.191 0 .384.004.577.013C22.05 13.219 20 17.064 20 21c0 6.271 4.729 11 11 11 1.832 0 3.831-.564 5.605-1.528C34.383 35.021 29.756 38 24.5 38 17.056 38 11 31.944 11 24.5S17.056 11 24.5 11m0-1C16.492 10 10 16.492 10 24.5S16.492 39 24.5 39c6.876 0 12.621-4.791 14.112-11.213C36.747 29.596 33.803 31 31 31c-5.72 0-10-4.28-10-10 0-4.611 3.062-9.157 7.227-10.499A14.497 14.497 0 0024.5 10z" fill="#f5c276"></path></g><path d="M31 32c-6.271 0-11-4.729-11-11 0-3.924 2.039-7.756 5.051-9.965l-.033-.023-.06-.001C24.263 11.206 15 14.238 15 22.928 15 29.595 20.405 35 27.072 35c4.824 0 8.648-3.488 9.453-4.377.026-.051.055-.1.081-.151C34.831 31.436 32.832 32 31 32z" fill="#fff9de"></path></svg>