<svg viewBox="0 0 40 40" xmlns="http://www.w3.org/2000/svg"><path d="M20 38.5C9.799 38.5 1.5 30.201 1.5 20S9.799 1.5 20 1.5 38.5 9.799 38.5 20 30.201 38.5 20 38.5z" fill="#8bb7f0"></path><path d="M20 2c9.925 0 18 8.075 18 18s-8.075 18-18 18S2 29.925 2 20 10.075 2 20 2m0-1C9.507 1 1 9.507 1 20s8.507 19 19 19 19-8.507 19-19S30.493 1 20 1z" fill="#4e7ab5"></path><g><path d="M25.753 28H14.247v-2.173c1.696-.51 2.543-1.667 2.543-3.469v-2.074h-2.284v-2.16h2.284v-3.025c0-1.49.475-2.712 1.426-3.667S20.399 10 21.914 10c1.021 0 1.951.169 2.79.506v2.481a4.746 4.746 0 00-2.481-.704c-1.794 0-2.691 1.099-2.691 3.296v2.543h3.506v2.16h-3.506v1.704c0 1.77-.794 3.008-2.383 3.716h8.605V28z" fill="#fff"></path></g></svg>