<svg viewBox="0 0 40 40" xmlns="http://www.w3.org/2000/svg"><path d="M12.495 38.5c-.193-14.328-5.299-20.982-6.725-22.564l3.367-3.367c2.872 3.049 5.228 7.78 7.006 14.076l.829 2.933.836-16.745h4.383l.836 16.745.829-2.933c1.778-6.295 4.134-11.027 7.006-14.076l3.367 3.367c-1.426 1.582-6.531 8.236-6.725 22.564H12.495z" fill="#bae0bd"></path><path d="M30.879 13.293l2.669 2.669c-1.765 2.124-6.249 8.799-6.534 22.038H12.987c-.286-13.239-4.77-19.914-6.534-22.038l2.669-2.669c2.66 2.998 4.858 7.529 6.541 13.488l1.657 5.867.304-6.089.661-13.226h3.431l.661 13.226.304 6.089 1.657-5.867c1.682-5.959 3.88-10.49 6.541-13.488m-.022-1.436c-3.647 3.647-5.995 9.387-7.482 14.652l-.709-14.176h-5.333l-.709 14.176c-1.487-5.265-3.835-11.005-7.482-14.652l-4.071 4.071S11.909 22.352 12 38.999h16c.09-16.648 6.929-23.071 6.929-23.071l-4.072-4.071z" fill="#5e9c76"></path><g><path d="M21 22.5a6.496 6.496 0 01-5.402-2.886l-.18-.269-.319.054A6.487 6.487 0 0114 19.5a6.5 6.5 0 01-1.826-.265l-.232-.068-.197.14A6.459 6.459 0 018 20.5 6.508 6.508 0 011.5 14a6.468 6.468 0 014.088-6.032l.217-.087.072-.221A7.485 7.485 0 0113 2.5c.854 0 1.708.151 2.536.45l.26.094.218-.169A6.425 6.425 0 0120 1.5c1.48 0 2.877.489 4.039 1.414l.229.183.271-.111A6.45 6.45 0 0127 2.5a6.468 6.468 0 016.032 4.088l.086.217.222.073A7.482 7.482 0 0138.5 14c0 4.136-3.364 7.5-7.5 7.5a7.441 7.441 0 01-4.354-1.402l-.376-.269-.298.354A6.493 6.493 0 0121 22.5z" fill="#d8f0da"></path><path d="M20 2a5.93 5.93 0 013.728 1.305l.459.365.543-.222A5.965 5.965 0 0127 3a5.971 5.971 0 015.568 3.774l.173.433.443.146A6.983 6.983 0 0138 14c0 3.86-3.14 7-7 7a6.95 6.95 0 01-4.064-1.309l-.752-.538-.595.707a5.997 5.997 0 01-9.576-.524l-.361-.538-.638.109A5.96 5.96 0 0114 19c-.563 0-1.13-.082-1.686-.245l-.464-.136-.394.279A5.953 5.953 0 018 20c-3.308 0-6-2.692-6-6a5.971 5.971 0 013.774-5.568l.433-.173.146-.443A6.983 6.983 0 0113 3c.796 0 1.593.141 2.368.42l.518.187.435-.339A5.941 5.941 0 0120 2m0-1a6.97 6.97 0 00-4.294 1.479A7.983 7.983 0 0013 2a7.999 7.999 0 00-7.597 5.503A7 7 0 001 14a7 7 0 007 7 6.962 6.962 0 004.034-1.285A6.974 6.974 0 0014 20a7.1 7.1 0 001.183-.107A6.992 6.992 0 0021 23c2.149 0 4.07-.971 5.354-2.495A7.962 7.962 0 0031 22a7.999 7.999 0 002.497-15.597 6.99 6.99 0 00-9.146-3.881A6.967 6.967 0 0020 1z" fill="#5e9c76"></path></g></svg>