<svg viewBox="0 0 40 40" xmlns="http://www.w3.org/2000/svg"><path fill="#f78f8f" d="M12.726 8.334l2.87-.718.85 5.102-1.222.611z"></path><path d="M15.192 8.233l.701 4.203-.445.222-1.995-3.991 1.739-.434M16 7l-4 1 3 6 2-1-1-6z" fill="#c74343"></path><path fill="#f78f8f" d="M7.616 15.596l.718-2.87 4.995 2.498-.611 1.222z"></path><path d="M8.668 13.452l3.991 1.995-.222.445-4.203-.701.434-1.739M8 12l-1 4 6 1 1-2-6-3z" fill="#c74343"></path><path d="M8.555 38.5a7.011 7.011 0 01-4.995-2.06c-2.754-2.754-2.754-7.236 0-9.99l4.891-4.89a7.01 7.01 0 014.995-2.06c1.021 0 2.033.225 2.964.655l-2.384 2.383a4.104 4.104 0 00-.551-.038 4.03 4.03 0 00-2.874 1.181l-4.89 4.89a4.033 4.033 0 00-1.182 2.874A4.036 4.036 0 008.585 35.5a4.031 4.031 0 002.873-1.181l4.891-4.89a4.03 4.03 0 001.123-3.523l2.354-2.355a7.064 7.064 0 01-1.386 8l-4.891 4.89A7.009 7.009 0 018.555 38.5z" fill="#8bb7f0"></path><path d="M13.445 20c.705 0 1.405.115 2.073.338l-1.677 1.677a4.526 4.526 0 00-3.593 1.313l-4.89 4.89a4.526 4.526 0 00-1.328 3.227c0 1.225.471 2.371 1.328 3.227A4.528 4.528 0 008.585 36a4.526 4.526 0 003.227-1.328l4.89-4.89a4.53 4.53 0 001.3-3.7l1.645-1.645a6.56 6.56 0 01-1.56 6.759l-4.89 4.89A6.518 6.518 0 018.555 38a6.522 6.522 0 01-4.642-1.913A6.522 6.522 0 012 31.445c0-1.759.68-3.408 1.914-4.642l4.89-4.89A6.518 6.518 0 0113.445 20m0-1a7.54 7.54 0 00-5.349 2.206l-4.89 4.89c-2.942 2.942-2.942 7.756 0 10.697A7.538 7.538 0 008.555 39a7.54 7.54 0 005.349-2.206l4.89-4.89c2.48-2.48 2.861-6.288 1.158-9.186l-3.023 3.023a3.533 3.533 0 01-.934 3.334l-4.89 4.89A3.534 3.534 0 018.585 35a3.533 3.533 0 01-3.555-3.555c0-.958.367-1.853 1.035-2.52l4.89-4.89A3.533 3.533 0 0113.475 23c.246 0 .488.026.723.073l3.047-3.047a7.583 7.583 0 00-3.8-1.026z" fill="#4e7ab5"></path><g><path d="M26.555 20.404a7.069 7.069 0 01-2.938-.643l2.398-2.398a4.031 4.031 0 003.443-1.139l4.858-4.792A4.037 4.037 0 0035.5 8.555 4.031 4.031 0 0031.445 4.5a4.03 4.03 0 00-2.874 1.181l-4.858 4.792a4.036 4.036 0 00-1.129 3.507l-2.398 2.398a7.06 7.06 0 011.374-8.025l4.858-4.791c1.33-1.331 3.104-2.063 4.997-2.063s3.667.731 4.995 2.06a7.01 7.01 0 012.061 4.995 7.01 7.01 0 01-2.061 4.995l-4.858 4.791a7.01 7.01 0 01-4.997 2.064z" fill="#8bb7f0"></path><path d="M31.415 2c1.759 0 3.408.68 4.642 1.913a6.515 6.515 0 011.913 4.641c0 1.759-.68 3.408-1.909 4.637l-4.865 4.799a6.516 6.516 0 01-4.642 1.913 6.543 6.543 0 01-2.045-.329l1.688-1.688a4.526 4.526 0 003.61-1.306l4.865-4.799A4.526 4.526 0 0036 8.555a4.526 4.526 0 00-1.328-3.227A4.53 4.53 0 0031.445 4a4.522 4.522 0 00-3.222 1.323l-4.865 4.799a4.53 4.53 0 00-1.303 3.68l-1.692 1.692a6.552 6.552 0 011.546-6.782l4.865-4.799A6.52 6.52 0 0131.415 2m0-1a7.54 7.54 0 00-5.349 2.206L21.206 8c-2.487 2.487-2.863 6.308-1.145 9.209l3.064-3.064a3.533 3.533 0 01.939-3.317l4.86-4.794A3.54 3.54 0 0131.445 5 3.533 3.533 0 0135 8.555c0 .958-.367 1.853-1.035 2.52l-4.86 4.794a3.537 3.537 0 01-2.52 1.035c-.252 0-.499-.029-.74-.079l-3.066 3.066a7.584 7.584 0 003.776 1.012 7.54 7.54 0 005.349-2.206l4.86-4.794c2.942-2.942 2.942-7.756 0-10.697A7.54 7.54 0 0031.415 1z" fill="#4e7ab5"></path></g><g><path fill="#f78f8f" d="M26.656 24.762l.612-1.223 5.101.851-.718 2.869z"></path><path d="M27.549 24.093l4.203.701-.435 1.74-3.991-1.995.223-.446m-.564-1.108l-1 2 6 3 1-4-6-1z" fill="#c74343"></path></g><g><path fill="#f78f8f" d="M23.539 27.268l1.223-.612 2.498 4.995-2.87.718z"></path><path d="M24.538 27.327l1.995 3.991-1.74.435-.701-4.203.446-.223m.447-1.342l-2 1 1 6 4-1-3-6z" fill="#c74343"></path></g></svg>