<svg viewBox="0 0 40 40" xmlns="http://www.w3.org/2000/svg"><path d="M4.12 24.331c3.25-.421 11.458-2.169 15.807-9.265l15.701 8.762c-4.733 7.976-10.336 13.323-11.659 14.531L4.12 24.331z" fill="#f5ce85"></path><path d="M20.098 15.733l14.836 8.28c-4.346 7.186-9.34 12.144-11.007 13.704L5.443 24.653c3.768-.652 10.6-2.673 14.655-8.92m-.352-1.342C14.461 23.599 2.731 23.96 2.731 23.96l21.276 15.037s6.774-5.847 12.312-15.358l-16.573-9.248z" fill="#967a44"></path><path d="M19.765 15.382l.43-.771a3.544 3.544 0 013.091-1.814c.603 0 1.199.155 1.725.449l2.423 1.353 8.199-12.397a1.56 1.56 0 012.065-.503 1.57 1.57 0 01.656 2.021l-6.249 13.485 2.27 1.268a3.546 3.546 0 011.561 1.775l.083.208a3.521 3.521 0 01-.195 3.04l-.361.647-15.698-8.761z" fill="#8bb7f0"></path><path d="M36.939 2c.182 0 .356.045.516.135.482.269.678.873.446 1.374l-6.054 13.065-.39.842.81.452 1.866 1.041a3.05 3.05 0 011.34 1.524l.083.209a3.027 3.027 0 01-.168 2.611l-.118.211-14.826-8.274.186-.334a3.04 3.04 0 014.136-1.173l2.018 1.126.81.452.512-.774 7.943-12.01c.199-.299.531-.477.89-.477m0-1c-.672 0-1.327.328-1.722.925l-7.943 12.01-2.018-1.126a4.036 4.036 0 00-3.35-.269 4.042 4.042 0 00-2.147 1.827l-.674 1.207 16.572 9.248.605-1.084a4.038 4.038 0 00.223-3.47l-.083-.208a4.039 4.039 0 00-1.782-2.026l-1.866-1.041 6.054-13.065A2.062 2.062 0 0036.939 1z" fill="#4e7ab5"></path><path d="M11.122 29.226l1.962 1.276s1.766-1.472 6.378-6.525c-4.55 3.742-8.34 5.249-8.34 5.249zM18.284 34.23l1.557 1.15s2.028-2.041 4.672-5.355c-3.368 2.69-6.229 4.205-6.229 4.205z" fill="#967a44"></path><circle cx="4" cy="9" r="2.5" fill="#b0c1d4"></circle><path d="M4 7c1.103 0 2 .897 2 2s-.897 2-2 2-2-.897-2-2 .897-2 2-2m0-1a3 3 0 100 6 3 3 0 000-6z" fill="#66798f"></path><g><circle cx="9" cy="16" r="1.5" fill="#b0c1d4"></circle><path d="M9 15c.551 0 1 .449 1 1s-.449 1-1 1-1-.449-1-1 .449-1 1-1m0-1a2 2 0 10-.001 3.999A2 2 0 009 14z" fill="#66798f"></path></g><path d="M17.612 18.029s.77 1.993 3.175 2.076c.483 1.126 1.85 2.172 4.147 2.457.484 1.166 2.489 2.403 4.477 2.261.509.966 2.321 2.263 3.925 2.371" fill="none" stroke="#c74343" stroke-linecap="round" stroke-linejoin="round" stroke-miterlimit="10"></path></svg>