<svg viewBox="0 0 40 40" xmlns="http://www.w3.org/2000/svg"><path d="M1.61 38.39c.453-2.582 2.178-11.642 4.465-13.93 1.264-1.264 2.944-1.96 4.732-1.96s3.468.696 4.732 1.96a6.7 6.7 0 010 9.464C13.251 36.212 4.192 37.937 1.61 38.39z" fill="#f5ce85"></path><path d="M10.808 23c1.654 0 3.209.644 4.379 1.814a6.2 6.2 0 010 8.757c-1.864 1.864-9.045 3.49-12.962 4.205.714-3.916 2.34-11.097 4.205-12.962A6.148 6.148 0 0110.808 23m0-1a7.169 7.169 0 00-5.086 2.107C2.913 26.915 1 39 1 39s12.085-1.913 14.893-4.722a7.191 7.191 0 000-10.171A7.166 7.166 0 0010.808 22z" fill="#967a44"></path><path fill="#ffc49c" d="M25.422 9.235l7.188-7.52 5.675 5.675-7.52 7.188z"></path><path d="M32.618 2.43l4.951 4.952-6.796 6.496-4.651-4.651 6.496-6.797M32.602 1l-7.879 8.243 6.034 6.034L39 7.399 32.602 1z" fill="#a16a4a"></path><g><path fill="#dcd5f2" d="M12.694 22.636L25.64 8.72l5.64 5.64-13.917 12.946z"></path><path d="M25.652 9.44l4.907 4.907-13.184 12.264-3.986-3.987L25.652 9.44m-.026-1.441L12 22.649 17.35 28 32 14.373l-6.374-6.374z" fill="#8b75a1"></path></g></svg>