<svg viewBox="0 0 40 40" xmlns="http://www.w3.org/2000/svg"><circle cx="31.5" cy="18.5" r="3" fill="#e8d47b"></circle><path d="M31.5 16c1.379 0 2.5 1.122 2.5 2.5S32.879 21 31.5 21 29 19.878 29 18.5s1.121-2.5 2.5-2.5m0-1a3.5 3.5 0 100 7 3.5 3.5 0 000-7z" fill="#ba9b48"></path><circle cx="8.5" cy="18.5" r="3" fill="#e8d47b"></circle><path d="M8.5 16c1.379 0 2.5 1.122 2.5 2.5S9.879 21 8.5 21 6 19.878 6 18.5 7.121 16 8.5 16m0-1a3.5 3.5 0 100 7 3.5 3.5 0 000-7z" fill="#ba9b48"></path><path d="M12 12.5A3.463 3.463 0 018.5 9c0-1.688 1.188-2.839 3.634-3.518 1.304-.362 2.385-1.177 3.431-1.964C16.942 2.48 18.243 1.5 20 1.5s3.058.98 4.436 2.018c1.046.788 2.127 1.602 3.431 1.964C30.312 6.161 31.5 7.312 31.5 9c0 1.962-1.537 3.5-3.5 3.5H12z" fill="#8bb7f0"></path><path d="M20 2c1.589 0 2.825.931 4.134 1.917 1.083.816 2.203 1.659 3.598 2.047C31 6.871 31 8.473 31 9c0 1.71-1.29 3-3 3H12c-1.71 0-3-1.29-3-3 0-.527 0-2.129 3.268-3.036 1.395-.388 2.515-1.231 3.598-2.047C17.175 2.931 18.411 2 20 2m0-1c-3.338 0-5.139 3.205-8 4-2.167.602-4 1.751-4 4s1.751 4 4 4h16c2.249 0 4-1.751 4-4s-1.833-3.398-4-4c-2.861-.795-4.662-4-8-4z" fill="#4e7ab5"></path><path d="M8.5 29.5V18c0-6.449 5.052-11.5 11.5-11.5S31.5 11.551 31.5 18v11.5h-23z" fill="#ffeea3"></path><path d="M20 7c6.168 0 11 4.832 11 11v11H9V18c0-6.168 4.832-11 11-11m0-1C13.254 6 8 11.254 8 18v12h24V18c0-6.746-5.254-12-12-12z" fill="#ba9b48"></path><circle cx="24.5" cy="17.5" r="1.5" fill="#36404d"></circle><circle cx="15.5" cy="17.5" r="1.5" fill="#36404d"></circle><path d="M20 11.5c-2.888 0-5.509-1.25-7.169-2.539C14.881 7.37 17.404 6.5 20 6.5s5.119.87 7.169 2.461C25.509 10.25 22.888 11.5 20 11.5z" fill="#839cb2"></path><path d="M20 7c2.26 0 4.463.689 6.321 1.961C24.732 10.044 22.467 11 20 11s-4.732-.956-6.321-2.039A11.195 11.195 0 0120 7m0-1c-3.043 0-5.819 1.12-7.957 2.96C13.738 10.445 16.666 12 20 12s6.262-1.555 7.957-3.04A12.155 12.155 0 0020 6z" fill="#66798f"></path><path d="M16 13c-1.593 0-2.714 1.345-3 2h3c1.521 0 2.048 2.167 2.053 2.189l1.323-.305C19.345 16.752 18.603 13 16 13zM24 13c1.593 0 2.714 1.345 3 2l-2.929-.071c-1.521 0-2.048 2.167-2.053 2.189l-1.323-.305C20.726 16.681 21.397 13 24 13z" fill="#36404d"></path><g><path d="M20 18.5a.867.867 0 01-.545-.204c-.424-.332-.769-.98-1.102-1.607-.136-.255-.275-.518-.426-.77l.061.033c.51.27 1.037.548 2.013.548s1.503-.279 2.013-.548l.061-.032c-.15.252-.29.515-.426.77-.333.627-.678 1.275-1.088 1.596a.96.96 0 01-.127.092.95.95 0 01-.434.122z" fill="#e8d47b"></path><path d="M19.035 16.901c.278.061.595.099.965.099s.687-.038.965-.099c-.234.422-.478.806-.74 1.011-.015.012-.03.024-.062.041a.56.56 0 01-.079.032c-.049.013-.074.015-.084.015s-.035-.002-.05-.005l-.048-.016-.005-.001a.383.383 0 01-.074-.031.572.572 0 01-.074-.056c-.242-.189-.481-.569-.714-.99m5.036-1.972C21.81 14.929 21.805 16 20 16s-1.81-1.071-4.071-1.071c1.548 0 1.983 2.795 3.204 3.75a1.466 1.466 0 00.236.159c.074.039.152.071.233.096.026.008.051.018.078.024.103.025.209.042.32.042s.217-.017.32-.042c.027-.007.052-.016.078-.024.081-.025.159-.057.233-.096l.054-.029c.065-.038.125-.082.183-.13 1.221-.956 1.656-3.75 3.203-3.75z" fill="#ba9b48"></path></g><g><path d="M22 37.441l-2 1-2-1-2 1-2-1-1.901.951-2-2-1.875.938-.915-1.83H5.5v-1.809l-1.889-.944 1-3-1.768-.884 2-2-2.08-1.04C3.861 24.451 7.421 20.5 12 20.5h4.535c.244 1.694 1.705 3 3.465 3s3.221-1.306 3.465-3H28c4.965 0 8.272 3.951 9.263 5.31l-2.106 1.053 2 2-1.768.884 1 3-1.889.944V35.5h-1.809l-.915 1.829-1.875-.938-2 2-1.901-.95-2 1-2-1z" fill="#839cb2"></path><path d="M28 21c4.243 0 7.245 3.071 8.497 4.633l-.944.472-1.241.62.981.981 1.019 1.019-.759.38-.776.388.274.823.726 2.177-1.224.612-.553.277V35H32.382l-.276.553-.553 1.106-1.106-.553-.645-.322-.51.51-1.49 1.49-1.355-.678-.447-.224-.447.224-1.553.776-1.553-.776-.447-.224-.447.224-1.553.776-1.553-.776-.447-.224-.447.224-1.553.776-1.553-.776-.447-.224-.447.224-1.355.678-1.49-1.49-.51-.51-.645.322-1.106.553-.553-1.106L7.618 35H6V33.382l-.553-.276-1.224-.612.726-2.177.274-.823-.776-.388-.759-.38 1.019-1.019.981-.981-1.241-.62-.896-.448C4.917 24.077 8.082 21 12 21h4.127c.445 1.723 2.013 3 3.873 3s3.428-1.277 3.873-3H28m0-1h-5a3 3 0 11-6 0h-5c-5.85 0-10 6-10 6l2 1-2 2 2 1-1 3 2 1v2h2l1 2 2-1 2 2 2-1 2 1 2-1 2 1 2-1 2 1 2-1 2 1 2-2 2 1 1-2h2v-2l2-1-1-3 2-1-2-2 2-1s-3.686-6-10-6z" fill="#66798f"></path></g><g><path d="M9.5 30.643V27c0-1.309 1.191-2.5 2.5-2.5.6 0 1.67.373 2.803.767 1.66.578 3.542 1.233 5.197 1.233 1.663 0 3.562-.659 5.235-1.241 1.124-.39 2.185-.759 2.765-.759 1.285 0 2.5 1.215 2.5 2.5v3.643h-21z" fill="#fff"></path><path d="M28 25c1.009 0 2 .991 2 2v3.143H10V27c0-1.028.972-2 2-2 .515 0 1.594.376 2.638.739C16.336 26.33 18.26 27 20 27c1.748 0 3.688-.674 5.4-1.269C26.434 25.372 27.504 25 28 25m0-1c-1.551 0-5.238 2-8 2s-6.413-2-8-2-3 1.429-3 3v4.143h22V27c0-1.571-1.449-3-3-3z" fill="#66798f"></path></g><path d="M28 30c-2.207 0-3.773-1-8-1s-5.793 1-8 1c-.818 0-1.93-.874-3-1.714V31c0 1.571 1.27 3 3 3s5.035-1 8-1 6.27 1 8 1 3-1.429 3-3v-2.714c-1.07.84-2.182 1.714-3 1.714z" fill="#f7a3a3"></path><path d="M30 29.05V31c0 .962-.765 2-2 2-.66 0-1.7-.187-2.802-.384C23.591 32.327 21.77 32 20 32c-1.77 0-3.591.327-5.198.616C13.7 32.813 12.66 33 12 33c-1.235 0-2-1.038-2-2v-1.95a34.118 34.118 0 01-1-.764V31c0 1.571 1.27 3 3 3s5.035-1 8-1 6.27 1 8 1 3-1.429 3-3v-2.714c-.333.261-.669.523-1 .764z" fill="#c74343"></path></svg>