<svg viewBox="0 0 40 40" xmlns="http://www.w3.org/2000/svg"><path fill="#b08159" d="M34.027 32.5l-1.333-4h2.279l1.333 4z"></path><path d="M34.613 29l1 3h-1.225l-1-3h1.225m.72-1H32l1.667 5H37l-1.667-5z" fill="#704e34"></path><path fill="#b08159" d="M3.694 32.5l1.333-4h2.279l-1.333 4z"></path><path d="M6.613 29l-1 3H4.387l1-3h1.226M8 28H4.667L3 33h3.333L8 28z" fill="#704e34"></path><path fill="#f5ce85" d="M.5 10.5h39v18H.5z"></path><path d="M39 11v17H1V11h38m1-1H0v19h40V10z" fill="#967a44"></path><path fill="#b08159" d="M14.5 10.5h11v18h-11z"></path><path d="M25 11v17H15V11h10m1-1H14v19h12V10z" fill="#704e34"></path><path fill="#9c734f" d="M15 11h2v17h-2zM23 11h2v17h-2z"></path><circle cx="29" cy="19" r="1" fill="#704e34"></circle><circle cx="11" cy="19" r="1" fill="#704e34"></circle><path fill="none" stroke="#deb974" stroke-miterlimit="10" d="M15 16.5h10M15 22.5h10"></path></svg>