<svg viewBox="0 0 40 40" xmlns="http://www.w3.org/2000/svg"><path fill="none" stroke="#7a4f34" stroke-linecap="round" stroke-miterlimit="10" d="M9.5 24.5h-8M8.5 18.5c-3.027 0-6-4.081-6-9v-2M2.5 38.5v-1C2.5 32.959 8.188 29 15 29M27.5 2.5c0 2.271-3.337 4-7.5 4s-7.5-1.729-7.5-4M30.5 24.5h8M31.5 18.5c3.027 0 6-4.081 6-9v-2M37.5 38.5v-1c0-4.541-5.688-8.5-12.5-8.5"></path><path d="M20 36.5c-6.893 0-12.5-6.88-12.5-15.337 0-.604.013-1.313.104-1.999.121-1.121.344-1.963.664-2.519.394-.777.859-1.098 1.572-1.098.91 0 2.1.52 3.478 1.122C15.28 17.528 17.505 18.5 20 18.5c2.496 0 4.72-.972 6.682-1.83 1.378-.602 2.567-1.122 3.478-1.122.713 0 1.179.321 1.559 1.073.334.58.557 1.422.676 2.529.094.7.106 1.41.106 2.013C32.5 29.62 26.893 36.5 20 36.5z" fill="#bae0bd"></path><path d="M30.16 16.048c.438 0 .776.133 1.111.798l.013.026.014.025c.286.494.487 1.27.601 2.334.089.659.101 1.346.101 1.932C32 29.344 26.617 36 20 36S8 29.344 8 21.163c0-.586.012-1.274.104-1.96.111-1.037.312-1.813.598-2.306l.014-.025.013-.026c.335-.664.674-.798 1.111-.798.806 0 2.006.525 3.277 1.08C15.025 17.962 17.4 19 20 19c2.6 0 4.975-1.038 6.883-1.871 1.27-.556 2.471-1.081 3.277-1.081m0-.999C27.794 15.049 24.189 18 20 18c-4.188 0-7.794-2.951-10.16-2.951-.831 0-1.508.364-2.004 1.347-.348.602-.595 1.474-.727 2.701-.09.674-.109 1.366-.109 2.066C7 29.91 12.82 37 20 37s13-7.09 13-15.837c0-.7-.019-1.392-.11-2.066-.131-1.227-.378-2.099-.727-2.701-.495-.983-1.173-1.347-2.003-1.347z" fill="#7a4f34"></path><path d="M20 37c.336 0 .665-.031.995-.061L20 25l-.995 11.939c.33.03.659.061.995.061z" fill="#7a4f34"></path><ellipse cx="20" cy="9.5" rx="4.5" ry="6" fill="#a6714e"/><path d="M20 4c2.206 0 4 2.467 4 5.5S22.206 15 20 15s-4-2.467-4-5.5S17.794 4 20 4m0-1c-2.761 0-5 2.91-5 6.5s2.239 6.5 5 6.5 5-2.91 5-6.5S22.761 3 20 3z" fill="#7a4f34"></path><g><path d="M20 19.5c-5.238 0-9.5-2.691-9.5-6s4.262-6 9.5-6 9.5 2.691 9.5 6-4.262 6-9.5 6z" fill="#d6aa70"></path><path d="M20 8c4.879 0 9 2.519 9 5.5S24.879 19 20 19s-9-2.519-9-5.5S15.121 8 20 8m0-1c-5.523 0-10 2.91-10 6.5S14.477 20 20 20s10-2.91 10-6.5S25.523 7 20 7z" fill="#7a4f34"></path></g></svg>