<svg viewBox="0 0 40 40" xmlns="http://www.w3.org/2000/svg"><path fill="#e1ebf2" d="M12.5 1.5h15v6h-15z"></path><path d="M27 2v5H13V2h14m1-1H12v7h16V1z" fill="#788b9c"></path><path fill="#e1ebf2" d="M6.5 4.5h27v34h-27z"></path><path d="M33 5v33H7V5h26m1-1H6v35h28V4z" fill="#788b9c"></path><path fill="#788b9c" d="M17 32h6v7h-6z"></path><path fill="#8bb7f0" d="M17.5 26.5h5v2h-5z"></path><path d="M22 27v1h-4v-1h4m1-1h-6v3h6v-3z" fill="#4e7ab5"></path><path fill="#8bb7f0" d="M17.5 20.5h5v2h-5z"></path><path d="M22 21v1h-4v-1h4m1-1h-6v3h6v-3z" fill="#4e7ab5"></path><path fill="#8bb7f0" d="M17.5 14.5h5v2h-5z"></path><path d="M22 15v1h-4v-1h4m1-1h-6v3h6v-3z" fill="#4e7ab5"></path><path fill="#8bb7f0" d="M17.5 8.5h5v2h-5z"></path><path d="M22 9v1h-4V9h4m1-1h-6v3h6V8z" fill="#4e7ab5"></path><path fill="#8bb7f0" d="M25.5 26.5h5v2h-5z"></path><path d="M30 27v1h-4v-1h4m1-1h-6v3h6v-3z" fill="#4e7ab5"></path><path fill="#8bb7f0" d="M25.5 20.5h5v2h-5z"></path><path d="M30 21v1h-4v-1h4m1-1h-6v3h6v-3z" fill="#4e7ab5"></path><g><path fill="#8bb7f0" d="M25.5 14.5h5v2h-5z"></path><path d="M30 15v1h-4v-1h4m1-1h-6v3h6v-3z" fill="#4e7ab5"></path></g><g><path fill="#8bb7f0" d="M25.5 8.5h5v2h-5z"></path><path d="M30 9v1h-4V9h4m1-1h-6v3h6V8z" fill="#4e7ab5"></path></g><g><path fill="#8bb7f0" d="M9.5 26.5h5v2h-5z"></path><path d="M14 27v1h-4v-1h4m1-1H9v3h6v-3z" fill="#4e7ab5"></path></g><g><path fill="#8bb7f0" d="M25.5 32.5h5v2h-5z"></path><path d="M30 33v1h-4v-1h4m1-1h-6v3h6v-3z" fill="#4e7ab5"></path></g><g><path fill="#8bb7f0" d="M9.5 32.5h5v2h-5z"></path><path d="M14 33v1h-4v-1h4m1-1H9v3h6v-3z" fill="#4e7ab5"></path></g><g><path fill="#8bb7f0" d="M9.5 20.5h5v2h-5z"></path><path d="M14 21v1h-4v-1h4m1-1H9v3h6v-3z" fill="#4e7ab5"></path></g><g><path fill="#8bb7f0" d="M9.5 14.5h5v2h-5z"></path><path d="M14 15v1h-4v-1h4m1-1H9v3h6v-3z" fill="#4e7ab5"></path></g><g><path fill="#8bb7f0" d="M9.5 8.5h5v2h-5z"></path><path d="M14 9v1h-4V9h4m1-1H9v3h6V8z" fill="#4e7ab5"></path></g></svg>