<svg viewBox="0 0 40 40" xmlns="http://www.w3.org/2000/svg"><path fill="#b0c1d4" d="M32.5 1.5h1v9h-1z"></path><path d="M33 2v8-8m1-1h-2v10h2V1z" fill="#66798f"></path><path d="M5.682 21.894L23.871 9.449l.006.008.397-.274A8.93 8.93 0 0129.5 7.5c4.963 0 9 4.038 9 9a9.022 9.022 0 01-3.774 7.317l-.305.218-18.277 12.506L5.682 21.894z" fill="#c2e8ff"></path><path d="M29.5 8c4.687 0 8.5 3.813 8.5 8.5a8.522 8.522 0 01-3.565 6.911l-.217.158-17.952 12.283-9.88-13.834L23.731 10.15l.017.024.817-.585A8.441 8.441 0 0129.5 8m0-1a9.444 9.444 0 00-5.517 1.776l-.005-.007-19 13L16.021 37.23l19-13-.005-.007A9.475 9.475 0 0039 16.5 9.5 9.5 0 0029.5 7z" fill="#7496c4"></path><path fill="#dcd5f2" stroke="#7496c4" stroke-linecap="square" stroke-miterlimit="10" d="M17.269 30.789L38 16"></path><path d="M10.5 38.5c-4.963 0-9-4.038-9-9s4.037-9 9-9 9 4.038 9 9-4.037 9-9 9z" fill="#c2e8ff"></path><path d="M10.5 21c4.687 0 8.5 3.813 8.5 8.5S15.187 38 10.5 38 2 34.187 2 29.5 5.813 21 10.5 21m0-1A9.5 9.5 0 001 29.5c0 5.247 4.253 9.5 9.5 9.5s9.5-4.253 9.5-9.5a9.5 9.5 0 00-9.5-9.5z" fill="#7496c4"></path><path d="M10.5 38.5c-4.963 0-9-4.038-9-9s4.037-9 9-9 9 4.038 9 9-4.037 9-9 9z" fill="#c2e8ff"></path><path d="M10.5 21c4.687 0 8.5 3.813 8.5 8.5S15.187 38 10.5 38 2 34.187 2 29.5 5.813 21 10.5 21m0-1A9.5 9.5 0 001 29.5c0 5.247 4.253 9.5 9.5 9.5s9.5-4.253 9.5-9.5a9.5 9.5 0 00-9.5-9.5z" fill="#7496c4"></path><g><path d="M10.5 34.5c-2.757 0-5-2.243-5-5s2.243-5 5-5 5 2.243 5 5-2.243 5-5 5z" fill="#a59dd1"></path><path d="M10.5 25c2.481 0 4.5 2.019 4.5 4.5S12.981 34 10.5 34 6 31.981 6 29.5 8.019 25 10.5 25m0-1a5.5 5.5 0 100 11 5.5 5.5 0 100-11z" fill="#8b75a1"></path></g><path d="M11 27.5h-.5a2 2 0 00-2 2v.5" fill="none" stroke="#eeebff" stroke-miterlimit="10"></path><g><path fill="#b0c1d4" d="M28.5 1.5h9v1h-9z"></path><path fill="#66798f" d="M38 1H28v2h10V1z"></path></g></svg>