<svg viewBox="0 0 40 40" xmlns="http://www.w3.org/2000/svg"><path d="M20 37.5c-7.74 0-12.255-.978-13.5-1.291V16.205c4.15-4.281 2.77-8.613 2.155-10.003l6.141-3.509C15.426 3.819 17.217 6.5 20 6.5s4.574-2.681 5.204-3.808l6.104 3.488c-.666 1.275-1.922 4.967 2.192 9.999v20.029c-1.248.313-5.776 1.292-13.5 1.292z" fill="#b0bec5"></path><path d="M25.382 3.37l5.28 3.017c-.702 1.658-1.428 5.275 2.338 9.97v19.457C31.385 36.184 27.031 37 20 37s-11.386-.816-13-1.186V16.405c2.586-2.749 2.996-5.497 2.873-7.347a9.096 9.096 0 00-.583-2.644l5.328-3.044C15.458 4.716 17.285 7 20 7s4.542-2.284 5.382-3.63M25 2s-1.832 4-5 4-5-4-5-4L8 6s3 5-2 10v20.593S10.653 38 20 38s14-1.407 14-1.407V16c-5-6-2-10-2-10l-7-4z" fill="#788b9c"></path><path d="M12.8 33.5c-.204 0-.3-.095-.3-.3V18.8c0-.205.096-.3.3-.3h14.4c.204 0 .3.095.3.3v14.4c0 .205-.096.3-.3.3H12.8z" fill="#b0bec5"></path><path d="M27 19v14H13V19h14m.2-1H12.8c-.48 0-.8.32-.8.8v14.4c0 .48.32.8.8.8h14.4c.48 0 .8-.32.8-.8V18.8c0-.48-.32-.8-.8-.8z" fill="#788b9c"></path><path fill="#e1ebf2" d="M5.5 19.5h3v3h-3z"></path><path d="M8 20v2H6v-2h2m1-1H5v4h4v-4z" fill="#788b9c"></path><path fill="#e1ebf2" d="M5.5 29.5h3v3h-3z"></path><path d="M8 30v2H6v-2h2m1-1H5v4h4v-4z" fill="#788b9c"></path><path fill="#e1ebf2" d="M31.5 19.5h3v3h-3z"></path><path d="M34 20v2h-2v-2h2m1-1h-4v4h4v-4z" fill="#788b9c"></path><g><path fill="#e1ebf2" d="M31.5 29.5h3v3h-3z"></path><path d="M34 30v2h-2v-2h2m1-1h-4v4h4v-4z" fill="#788b9c"></path></g><g><path fill="#e1ebf2" d="M9.5 20.5h2v1h-2z"></path><path fill="#788b9c" d="M12 20H9v2h3v-2z"></path></g><g><path fill="#e1ebf2" d="M9.5 30.5h3v1h-3z"></path><path fill="#788b9c" d="M13 30H9v2h4v-2z"></path></g><g><path fill="#e1ebf2" d="M28.5 20.5h2v1h-2z"></path><path fill="#788b9c" d="M31 20h-3v2h3v-2z"></path></g><g><path fill="#e1ebf2" d="M27.5 30.5h3v1h-3z"></path><path fill="#788b9c" d="M31 30h-4v2h4v-2z"></path></g></svg>