<svg viewBox="0 0 40 40" xmlns="http://www.w3.org/2000/svg"><path fill="#36404d" d="M12 8h27v1H12z"></path><circle cx="4.5" cy="8.5" r="3" fill="#8bb7f0"></circle><path d="M4.5 6C5.879 6 7 7.121 7 8.5S5.879 11 4.5 11 2 9.879 2 8.5 3.121 6 4.5 6m0-1a3.5 3.5 0 100 7 3.5 3.5 0 000-7z" fill="#4e7ab5"></path><path fill="#36404d" d="M12 20h27v1H12z"></path><circle cx="4.5" cy="20.5" r="3" fill="#8bb7f0"></circle><path d="M4.5 18C5.879 18 7 19.121 7 20.5S5.879 23 4.5 23 2 21.879 2 20.5 3.121 18 4.5 18m0-1a3.5 3.5 0 100 7 3.5 3.5 0 000-7z" fill="#4e7ab5"></path><path fill="#36404d" d="M12 32h27v1H12z"></path><g><circle cx="4.5" cy="32.5" r="3" fill="#8bb7f0"></circle><path d="M4.5 30C5.879 30 7 31.121 7 32.5S5.879 35 4.5 35 2 33.879 2 32.5 3.121 30 4.5 30m0-1a3.5 3.5 0 100 7 3.5 3.5 0 000-7z" fill="#4e7ab5"></path></g></svg>