<svg viewBox="0 0 40 40" xmlns="http://www.w3.org/2000/svg"><path d="M6 15.5c-2.092 0-3.925-1.024-4.388-2.028 1.469-.137 2.396-.758 3.295-1.361C6.088 11.319 7.31 10.5 10 10.5c.886 0 1.512.213 1.632.555.108.309-.142.91-.945 1.555l-.187.15V13c0 1.125-2.076 2.5-4.5 2.5z" fill="#dbb065"></path><path d="M10 11c.799 0 1.121.179 1.157.207.006.071-.113.475-.783 1.014l-.374.3V13c0 .685-1.689 2-4 2-1.535 0-2.795-.58-3.469-1.17 1.102-.262 1.888-.789 2.655-1.303C6.356 11.741 7.462 11 10 11m0-1c-5.229 0-5.313 3-9 3 0 1.499 2.377 3 5 3s5-1.501 5-3c1.725-1.385 1.623-3-1-3z" fill="#967a44"></path><path d="M14.5 12.447c-6.604-.72-11-3.28-11-6.447 0-1.235.769-2.469 2.198-3.568A7.024 7.024 0 005.5 4c0 2.738 3.353 4.404 9 4.496v3.951z" fill="#805f51"></path><path d="M5.006 3.737A6.072 6.072 0 005 4c0 2.96 3.342 4.793 9 4.983v2.901C8.058 11.122 4 8.768 4 6c0-.759.347-1.527 1.006-2.263M7 1C4.568 2.328 3 4.058 3 6c0 3.658 5.053 6.361 12 7V8C9.753 8 6 6.623 6 4c0-.843.23-2.314 1-3z" fill="#593f33"></path><path d="M34 15.5c-2.424 0-4.5-1.375-4.5-2.5v-.24l-.187-.15c-.804-.646-1.054-1.246-.945-1.555.12-.342.746-.555 1.632-.555 2.69 0 3.912.819 5.093 1.611.899.603 1.826 1.225 3.295 1.361C37.925 14.476 36.092 15.5 34 15.5z" fill="#dbb065"></path><path d="M30 11c2.538 0 3.644.741 4.814 1.526.767.514 1.553 1.041 2.655 1.303C36.795 14.42 35.535 15 34 15c-2.311 0-4-1.315-4-2v-.479l-.374-.3c-.67-.538-.789-.942-.797-.979.05-.063.372-.242 1.171-.242m0-1c-2.623 0-2.725 1.615-1 3 0 1.499 2.377 3 5 3s5-1.501 5-3c-3.688 0-3.771-3-9-3z" fill="#967a44"></path><path d="M25.5 8.496c5.647-.092 9-1.758 9-4.496 0-.129-.01-.81-.198-1.568C35.731 3.531 36.5 4.765 36.5 6c0 3.167-4.396 5.728-11 6.447V8.496z" fill="#805f51"></path><path d="M34.994 3.737C35.653 4.473 36 5.241 36 6c0 2.768-4.058 5.122-10 5.884V8.983c5.658-.19 9-2.023 9-4.983 0-.058-.001-.148-.006-.263M33 1c.77.686 1 2.157 1 3 0 2.623-3.753 4-9 4v5c6.947-.639 12-3.342 12-7 0-1.942-1.568-3.672-4-5z" fill="#593f33"></path><path d="M20 34.5c-2.595 0-5.126-1.049-6.505-2.684-.06-2.015-.293-4.636-1.055-6.053-1.284-2.407-2.545-4.529-4.87-6.001C9.913 10.057 14.433 4.5 20 4.5s10.087 5.557 12.43 15.262c-2.325 1.473-3.586 3.594-4.871 6.003-.761 1.415-.994 4.037-1.054 6.051C25.126 33.451 22.595 34.5 20 34.5z" fill="#f5ce85"></path><path d="M20 5c5.253 0 9.555 5.287 11.86 14.538-2.234 1.522-3.479 3.622-4.741 5.989-.785 1.46-1.039 4.052-1.109 6.095C24.701 33.075 22.384 34 20 34s-4.701-.925-6.011-2.378c-.069-2.043-.323-4.635-1.107-6.092-1.263-2.369-2.508-4.469-4.742-5.992C10.445 10.287 14.747 5 20 5m0-1C13.825 4 9.266 10.296 7 20c2.511 1.466 3.806 3.761 5 6 .774 1.439.959 4.358 1 6 1.452 1.832 4.164 3 7 3s5.548-1.168 7-3c.041-1.642.226-4.561 1-6 1.194-2.239 2.489-4.534 5-6-2.266-9.704-6.825-16-13-16z" fill="#967a44"></path><path d="M24.465 21a3.5 3.5 0 003.5-3.5V17L22 19.983A3.488 3.488 0 0024.465 21zM15.535 21a3.5 3.5 0 01-3.5-3.5V17L18 19.983A3.488 3.488 0 0115.535 21z" fill="#c74343"></path><circle cx="22.5" cy="30.5" r="1.5" fill="#36404d"></circle><circle cx="17.5" cy="30.5" r="1.5" fill="#36404d"></circle><path d="M25 34.73c0 2.36-2.24 4.27-5 4.27s-5-1.91-5-4.27c0-1.22.6-2.31 1.55-3.08.67-.55 1.51-.94 2.44-1.1-.01.57-.34 1.05-.82 1.28-.05.02-.1.04-.15.07-1.21.56-2.02 1.62-2.02 2.83 0 1.8 1.79 3.27 4 3.27s4-1.47 4-3.27c0-1.21-.81-2.27-2.02-2.83-.05-.03-.1-.05-.15-.07-.48-.23-.81-.71-.82-1.28.93.16 1.77.55 2.44 1.1.95.77 1.55 1.86 1.55 3.08z" fill="#a16a4a"></path></svg>