<svg viewBox="0 0 40 40" xmlns="http://www.w3.org/2000/svg"><path d="M21.51 14.782c-2.415 0-6.22-1.199-8.156-3.135-3.077-3.078-3.57-7.679-2.522-8.727.2-.2.771-.414 1.776-.414 2.057 0 5.136.89 7.034 2.843C22.489 8.279 23.5 11.84 23.5 14c0 .576-1.028.782-1.99.782z" fill="#b6c9d6"></path><path d="M12.607 3.005c2.018 0 4.959.925 6.676 2.692 2.744 2.823 3.717 6.237 3.729 8.28-.061.079-.467.304-1.503.304-2.315 0-5.956-1.143-7.802-2.989-2.934-2.934-3.297-7.245-2.522-8.02.071-.069.483-.267 1.422-.267m0-1c-.982 0-1.759.191-2.129.56C9.205 3.839 9.78 8.78 13 12c2.05 2.05 5.947 3.281 8.509 3.281C22.972 15.281 24 14.88 24 14c0-1.917-.826-5.734-4-9-1.986-2.043-5.201-2.995-7.393-2.995z" fill="#788b9c"></path><path d="M17.808 16.548c-3.051 0-6.882-.33-9.454-2.902C6.542 11.835 5.02 9.51 4.177 7.268c-.738-1.965-.829-3.621-.232-4.218.298-.298.899-.462 1.694-.462 2.068 0 5.782 1.19 9.048 3.803 3.527 2.821 7.173 5.738 7.27 7.48.017.301-.083.547-.311.776-.243.243-.332.626-.434 1.069-.057.249-.164.713-.269.803a9.279 9.279 0 00-.489-.011c-.266 0-.557.007-.859.014-.562.013-1.162.026-1.787.026z" fill="#fff"></path><path d="M5.639 3.087c1.984 0 5.564 1.156 8.736 3.693 3.118 2.494 6.999 5.599 7.083 7.118.007.134-.018.247-.165.394-.345.345-.458.836-.567 1.311-.026.112-.062.269-.099.399-.33.004-.679.012-1.044.02-.559.013-1.155.026-1.776.026-2.954 0-6.658-.313-9.1-2.755C6.944 11.53 5.464 9.27 4.645 7.092c-.808-2.152-.65-3.385-.346-3.689.153-.152.585-.315 1.34-.316m0-1c-.919 0-1.638.2-2.047.609C2.015 4.273 4.012 10.012 8 14c2.688 2.688 6.576 3.048 9.807 3.048C18.99 17.048 20.085 17 21 17c.703 0 .634-1.634 1-2 1.878-1.878-2.313-5.25-7-9-3.186-2.549-6.958-3.913-9.361-3.913z" fill="#788b9c"></path><path d="M17.107 38.462C12.845 35.38 10.5 30.608 10.5 25c0-4.569 3.185-7.891 7.745-8.078l.435-.018.042-.434c.104-1.076.529-2.014 1.229-2.714.822-.822 1.941-1.257 3.237-1.257 1.779 0 3.622.823 5.056 2.257 2.562 2.562 3.011 6.282 1 8.293-.378.378-.561.426-1.047.554l-.771.216.037.411c.02.255.037.511.037.77 0 7.709-6.753 12.562-10.393 13.462z" fill="#ffeea3"></path><path d="M23.187 13c1.647 0 3.361.769 4.702 2.11 2.367 2.367 2.816 5.77 1 7.586-.282.282-.354.301-.82.424-.117.031-.245.064-.388.106l-.793.229.074.822c.026.281.038.511.038.723 0 7.283-6.242 11.918-9.789 12.918C13.202 34.928 11 30.359 11 25c0-4.287 2.987-7.403 7.265-7.579l.87-.036.084-.867c.093-.959.468-1.792 1.085-2.408.726-.726 1.723-1.11 2.883-1.11m0-1c-1.369 0-2.646.459-3.59 1.403-.811.811-1.261 1.869-1.373 3.019C13.428 16.619 10 20.155 10 25c0 6.5 3 11.188 7 14 4.125-.875 11-6.063 11-14 0-.275-.017-.545-.041-.813.767-.221 1.063-.209 1.638-.783 2.209-2.209 1.761-6.239-1-9C27.016 12.823 25.02 12 23.187 12z" fill="#805f51"></path><path d="M30.5 2.5c-2.427 0-5 1-5 1l1 5M34.5 4.5c-2.427 0-5 1-5 1l1 5" fill="none" stroke="#36404d" stroke-linecap="round" stroke-miterlimit="10"></path><path d="M29.958 17.5c-3.01 0-5.458-2.449-5.458-5.458s2.449-5.458 5.458-5.458c4.355 0 6.542 5.235 6.542 8.167 0 2.553-2.613 2.75-6.303 2.75h-.239z" fill="#ffeea3"></path><path d="M29.958 7.083c4.023 0 6.042 4.915 6.042 7.667 0 1.925-1.79 2.25-5.803 2.25h-.239A4.963 4.963 0 0125 12.042a4.964 4.964 0 014.958-4.959m0-1a5.959 5.959 0 000 11.917h.239C33.428 18 37 17.961 37 14.75c0-3.291-2.437-8.667-7.042-8.667z" fill="#805f51"></path><path d="M30.377 17H29.792a4.794 4.794 0 01-4.786-4.737c-1.025-.288-2.056-.337-3.001-.137 0 .028-.004.055-.004.083A7.79 7.79 0 0029.792 20h.313l.886-.003c.029-.977-.178-2.004-.614-2.997z" fill="#805f51"></path><path d="M29.953 22.999l-.128.001h-.533c-5.232 0-9.556-3.928-10.2-8.988a5.01 5.01 0 00-.868 2.41 9.59 9.59 0 00-1.634.209c1.547 5.014 5.98 8.761 11.36 9.301.021-.309.05-.614.05-.932 0-.275-.017-.545-.041-.813.767-.221 1.063-.209 1.638-.783.128-.129.245-.265.356-.405z" fill="#805f51"></path><path d="M26.227 31.674c.495-.881.901-1.834 1.203-2.848-6.311-.866-11.501-5.259-13.516-11.13a7.948 7.948 0 00-2.378 2.233 19.724 19.724 0 0014.691 11.745zM10.127 23.465A9.722 9.722 0 0010 25c0 1.429.153 2.766.421 4.019a26.153 26.153 0 0011.389 7.622 16.706 16.706 0 002.559-2.366c-6.063-1.559-11.167-5.525-14.242-10.81z" fill="#805f51"></path><g><path d="M28.675 8.675c1.047-1.047 2.937-.855 4.221.429s1.476 3.174.429 4.221c-1.047 1.047-2.937.855-4.221-.429-1.284-1.284-1.423-3.227-.429-4.221z" fill="#36404d"></path></g></svg>