<svg viewBox="0 0 40 40" xmlns="http://www.w3.org/2000/svg"><path fill="#b6c9d6" stroke="#788b9c" stroke-linejoin="round" stroke-miterlimit="10" d="M20.5 7v6.537"></path><path d="M6.5 19.5V13c0-1.378 1.121-2.5 2.5-2.5h8.672c.417 1.18 1.548 2 2.828 2s2.411-.82 2.828-2H32c1.379 0 2.5 1.122 2.5 2.5v6.5h-28z" fill="#f5ce85"></path><path d="M32 11c1.103 0 2 .897 2 2v6H7v-6c0-1.103.897-2 2-2h8.338c.569 1.195 1.792 2 3.162 2s2.593-.805 3.162-2H32m0-1h-9.05a2.5 2.5 0 01-4.9 0H9a3 3 0 00-3 3v7h29v-7a3 3 0 00-3-3z" fill="#967a44"></path><path fill="#b6c9d6" stroke="#788b9c" stroke-linecap="round" stroke-linejoin="round" stroke-miterlimit="10" d="M23.5 7.5h-6"></path><path d="M6.5 25.5c-2.206 0-4-1.794-4-4s1.794-4 4-4h28c2.206 0 4 1.794 4 4s-1.794 4-4 4h-28z" fill="#f78f8f"></path><path d="M34.5 18c1.93 0 3.5 1.57 3.5 3.5S36.43 25 34.5 25h-28C4.57 25 3 23.43 3 21.5S4.57 18 6.5 18h28m0-1h-28a4.5 4.5 0 000 9h28a4.5 4.5 0 000-9z" fill="#c74343"></path><path d="M1 34h38v-9.123c-1.308-.263-2.852-.877-4-.877-1.458 0-3.563 1-5 1-1.438 0-3.542-1-5-1s-3.563 1-5 1c-1.438 0-3.542-1-5-1s-3.563 1-5 1c-1.438 0-3.542-1-5-1-1.148 0-2.692.614-4 .877V34z" fill="#8bb7f0"></path><g><path d="M35 24c-1.458 0-3.563 1-5 1-1.438 0-3.542-1-5-1s-3.563 1-5 1c-1.438 0-3.542-1-5-1s-3.563 1-5 1c-1.438 0-3.542-1-5-1-1.148 0-2.692.614-4 .877V25.9c.574-.103 1.17-.271 1.754-.435C3.566 25.237 4.406 25 5 25s1.434.237 2.246.465c.934.263 1.9.535 2.754.535s1.82-.272 2.754-.535C13.566 25.237 14.406 25 15 25s1.434.237 2.246.465c.934.263 1.9.535 2.754.535s1.82-.272 2.754-.535C23.566 25.237 24.406 25 25 25s1.434.237 2.246.465c.934.263 1.9.535 2.754.535s1.82-.272 2.754-.535C33.566 25.237 34.406 25 35 25s1.434.237 2.246.465c.584.165 1.18.332 1.754.435v-1.023c-1.308-.263-2.852-.877-4-.877z" fill="#4e7ab5"></path></g></svg>