<svg viewBox="0 0 40 40" xmlns="http://www.w3.org/2000/svg"><path d="M15 23v4.83l-6.402 4.684A2.041 2.041 0 0010.043 36c.523 0 1.045-.199 1.444-.598l7-5.447c.383-.383.491-.682.598-1.444L20.447 23H15z" fill="#5e9c76"></path><circle cx="26.5" cy="8.5" r="3" fill="#ffeea3"></circle><path d="M26.5 6C27.878 6 29 7.121 29 8.5c0 1.378-1.122 2.5-2.5 2.5S24 9.878 24 8.5C24 7.121 25.122 6 26.5 6m0-1a3.5 3.5 0 100 7 3.5 3.5 0 000-7z" fill="#ba9b48"></path><path d="M26 17.5c-.238 0-.477-.056-.69-.163l-5.405-2.393a1.57 1.57 0 01-.214-.136l-3.786-4.028c-.254-.2-.412-.389-.519-.602l-2.723-5.446a1.546 1.546 0 01.69-2.07 1.54 1.54 0 01.688-.162c.589 0 1.119.327 1.382.853l2.538 5.076L21.4 12.25l5.502 2.25h4.352l5.296-.944a1.537 1.537 0 011.904 1.115c.1.399.038.814-.174 1.167a1.53 1.53 0 01-.949.702l-5.47.905a1.711 1.711 0 01-.414.054H26z" fill="#ffeea3"></path><path d="M14.041 3c.399 0 .757.221.935.576l2.507 5.016.061.121.091.101 3.318 3.685.153.17.212.087 5.305 2.17.18.074H31.342l.088-.016 5.208-.937.035-.006.035-.009a1.039 1.039 0 011.26.76c.068.27.026.55-.117.789a1.033 1.033 0 01-.608.466l-5.464.905-.04.007-.039.01c-.083.02-.169.031-.253.031H26a1.12 1.12 0 01-.509-.13l-5.339-2.362a1.053 1.053 0 01-.103-.059l-3.781-4.012-.059-.062-.068-.051a1.062 1.062 0 01-.308-.368L13.11 4.509A1.044 1.044 0 0114.041 3m0-1a2.044 2.044 0 00-1.825 2.956l2.723 5.447c.142.283.348.53.602.721l3.85 4.085c.098.073.202.138.312.193l5.384 2.383c.283.141.596.215.913.215h5.447c.167 0 .333-.021.495-.061l5.51-.913a2.042 2.042 0 001.486-2.477 2.042 2.042 0 00-2.477-1.486L31.253 14H27l-5.305-2.17-3.318-3.685-2.507-5.016A2.044 2.044 0 0014.041 2z" fill="#ba9b48"></path><path d="M12.042 38.5c-.412 0-.799-.161-1.09-.452-.292-.291-.452-.678-.452-1.09s.16-.799.452-1.09l6.548-4.784V26.5l-.195-.151C17.287 26.334 15.5 24.931 15.5 23c0-1.746.821-2.613.856-2.649l3.689-5.278 7.193 2.174-4.695 7.541-2.125 6.569c-.121.801-.208.976-.476 1.244l-6.768 5.41c-.332.328-.72.489-1.132.489z" fill="#99c99e"></path><path d="M20.248 15.656l6.221 1.88-4.318 6.935-.065.104-.038.117-2.106 6.511-.027.082-.012.086c-.085.602-.139.697-.278.839l-6.764 5.411-.043.035-.039.039a1.036 1.036 0 01-1.473-.001 1.029 1.029 0 01-.306-.737c0-.257.092-.499.261-.69l6.329-4.631.41-.3v-5.085l-.392-.3C17.592 25.938 16 24.672 16 23c0-1.519.689-2.273.707-2.293l.063-.063.051-.073 3.427-4.915m-.405-1.167L16 20s-1 1-1 3c0 2.212 2 3.745 2 3.745v4.085l-6.402 4.684A2.041 2.041 0 0012.043 39c.523 0 1.045-.199 1.444-.598l6.809-5.447c.383-.383.491-.682.598-1.444L23 25l5.008-8.043-8.165-2.468z" fill="#5e9c76"></path><g><path fill="#f78f8f" d="M16.693 19.881l3.326-4.763-2.364-2.482 2.167-2.133L21.4 12.25l5.502 2.25H30.5v3h-3.333l-4.306 6.786z"></path><path d="M19.801 11.226l1.152 1.275.153.169.211.086 5.305 2.17.181.074H30v2h-3.109l-.295.464-3.875 6.108-5.335-3.811 2.809-4.022.468-.67-.564-.592-1.743-1.829 1.445-1.422m.043-1.445l-2.891 2.844 2.422 2.542L16 20l7 5 4.441-7H31v-4h-4l-5.305-2.17-1.851-2.049z" fill="#c74343"></path></g><path d="M14.125 37.875C6.295 29.279 4.517 24.593 4.5 21c-.01-2.157.733-3.851 1.459-5.471 1.653-3.686 3.958-6.821-4.557-14.175" fill="none" stroke="#455a64"></path></svg>