<svg viewBox="0 0 40 40" xmlns="http://www.w3.org/2000/svg"><path d="M33 9.5a.5.5 0 01-.5-.5V8c0-4.674-3.098-5.803-4.84-6.068.245-.092.565-.2.982-.326.11-.034.219-.066.316-.106h2.012c2.09 0 4.529 1.702 4.529 6.5v1a.5.5 0 01-.5.5H33z" fill="#e1ebf2"></path><path d="M30.971 2C32.919 2 35 3.576 35 8v1h-2V8c0-3.254-1.499-5.115-3.36-6h1.331m0-1h-2.148c.365 0-2.84.661-2.322 1.357 0 0 .062-.004.173-.004C27.608 2.353 32 2.638 32 8v1a1 1 0 001 1h2a1 1 0 001-1V8c0-5-2.551-7-5.029-7z" fill="#788b9c"></path><path d="M33.5 27.5c-.552 0-1-.449-1-1 0-.243.093-.479.261-.665l.303-.335-.303-.335c-.168-.186-.261-.422-.261-.665s.093-.479.261-.665l.303-.335-.303-.335c-.168-.186-.261-.422-.261-.665s.093-.479.261-.665l.303-.335-.303-.335c-.168-.186-.261-.422-.261-.665s.093-.479.261-.665l.303-.335-.303-.335c-.168-.186-.261-.422-.261-.665s.093-.479.261-.665l.303-.335-.303-.335c-.168-.186-.261-.422-.261-.665s.093-.479.261-.665l.303-.335-.303-.335c-.168-.186-.261-.422-.261-.665s.093-.479.261-.665l.303-.335-.303-.335c-.168-.186-.261-.422-.261-.665s.093-.479.261-.665l.303-.335-.303-.335a.993.993 0 01-.261-.665c0-.551.448-1 1-1h1c.552 0 1 .449 1 1a.993.993 0 01-.261.665l-.302.335.303.335c.168.186.261.422.261.665s-.093.479-.261.665l-.303.335.303.335c.168.186.261.422.261.665s-.093.479-.261.665l-.303.335.303.335c.168.186.261.422.261.665s-.093.479-.261.665l-.303.335.303.335c.168.186.261.422.261.665s-.093.479-.261.665l-.303.335.303.335c.168.186.261.422.261.665s-.093.479-.261.665l-.303.335.303.335c.168.186.261.422.261.665s-.093.479-.261.665l-.303.335.303.335c.168.186.261.422.261.665s-.093.479-.261.665l-.303.335.303.335a.993.993 0 01.261.665c0 .551-.448 1-1 1H33.5z" fill="#dcd5f2"></path><path d="M34.5 10a.5.5 0 01.5.5.495.495 0 01-.132.331l-.603.669.603.669c.06.067.132.179.132.331s-.072.264-.132.331l-.603.669.603.669c.06.067.132.179.132.331s-.072.264-.132.331l-.603.669.603.669c.06.067.132.179.132.331s-.072.264-.132.331l-.603.669.603.669c.06.067.132.179.132.331s-.072.264-.132.331l-.603.669.603.669c.06.067.132.179.132.331s-.072.264-.132.331l-.603.669.603.669c.06.067.132.179.132.331s-.072.264-.132.331l-.603.669.603.669c.06.067.132.179.132.331s-.072.264-.132.331l-.603.669.603.669c.06.067.132.179.132.331a.5.5 0 01-.5.5h-1a.5.5 0 01-.5-.5c0-.152.072-.264.132-.331l.603-.669-.603-.669c-.06-.067-.132-.179-.132-.331s.072-.264.132-.331l.603-.669-.603-.669c-.06-.067-.132-.179-.132-.331s.072-.264.132-.331l.603-.669-.603-.669c-.06-.067-.132-.179-.132-.331s.072-.264.132-.331l.603-.669-.603-.669c-.06-.067-.132-.179-.132-.331s.072-.264.132-.331l.603-.669-.603-.669c-.06-.067-.132-.179-.132-.331s.072-.264.132-.331l.603-.669-.603-.669c-.06-.067-.132-.179-.132-.331s.072-.264.132-.331l.603-.669-.603-.669c-.06-.067-.132-.179-.132-.331s.072-.264.132-.331l.603-.669-.603-.669A.495.495 0 0133 10.5a.5.5 0 01.5-.5h1m0-1h-1a1.5 1.5 0 00-1.5 1.5c0 .386.15.734.389 1-.239.266-.389.614-.389 1s.15.734.389 1c-.239.266-.389.614-.389 1s.15.734.389 1c-.239.266-.389.614-.389 1s.15.734.389 1c-.239.266-.389.614-.389 1s.15.734.389 1c-.239.266-.389.614-.389 1s.15.734.389 1c-.239.266-.389.614-.389 1s.15.734.389 1c-.239.266-.389.614-.389 1s.15.734.389 1a1.49 1.49 0 00-.389 1 1.5 1.5 0 001.5 1.5h1a1.5 1.5 0 001.5-1.5c0-.386-.15-.734-.389-1 .239-.266.389-.614.389-1s-.15-.734-.389-1c.239-.266.389-.614.389-1s-.15-.734-.389-1c.239-.266.389-.614.389-1s-.15-.734-.389-1c.239-.266.389-.614.389-1s-.15-.734-.389-1c.239-.266.389-.614.389-1s-.15-.734-.389-1c.239-.266.389-.614.389-1s-.15-.734-.389-1c.239-.266.389-.614.389-1s-.15-.734-.389-1a1.49 1.49 0 00.389-1A1.5 1.5 0 0034.5 9z" fill="#8b75a1"></path><path d="M4.5 7c0-4.93 2.585-5.5 4.529-5.5h2.012c.098.04.206.072.316.106.205.062.386.119.547.172C10.252 1.942 7.5 2.972 7.5 8v19.609l-3 .75V7z" fill="#e1ebf2"></path><path d="M9.593 2C7.23 3.491 7 6.791 7 8v19.219l-2 .5V7c0-4.406 2.037-5 4.029-5h.564m1.585-1H9.03C6.551 1 4 2 4 7v22l4-1V8c0-5.044 2.856-5.749 4.452-5.749.619 0 1.048.106 1.048.106C14.018 1.661 10.813 1 11.178 1z" fill="#788b9c"></path><path d="M36.949 34.57a.824.824 0 01-.285-.051l-1.206-.439.434-5.404 2.039.679a.834.834 0 01.553.953l-.718 3.592a.836.836 0 01-.817.67z" fill="#b6c9d6"></path><path d="M36.339 29.352l1.434.478a.332.332 0 01.221.38l-.718 3.592a.333.333 0 01-.44.247l-.849-.309.352-4.388M35.444 28l-.516 6.419 1.564.57a1.33 1.33 0 001.762-.991l.718-3.592a1.332 1.332 0 00-.885-1.525L35.444 28z" fill="#788b9c"></path><g><path d="M3.051 34.57a.835.835 0 01-.816-.669l-.718-3.592a.833.833 0 01.553-.953l2.039-.68.434 5.404-1.207.44a.851.851 0 01-.285.05z" fill="#b6c9d6"></path><path d="M3.661 29.352l.353 4.388-.849.31a.328.328 0 01-.114.021.335.335 0 01-.326-.268l-.718-3.592a.331.331 0 01.221-.38l1.433-.479M4.556 28l-2.644.882a1.332 1.332 0 00-.885 1.525l.718 3.592a1.333 1.333 0 001.762.991l1.564-.57L4.556 28z" fill="#788b9c"></path></g><g><path d="M35.685 38.234C33.906 37.245 28.229 34.5 20 34.5c-8.23 0-13.907 2.692-15.684 3.661-.278-1.149-.816-3.834-.816-7.384 0-4.239.843-5.584 7.156-7.668 2.666-.88 3.844-1.476 3.844-6.384V9c0-4-1.659-6.329-3.177-7.511 1.04.008 2.785.397 4.337 1.474l.081.057.097.021c1.384.304 2.784.459 4.162.459 1.369 0 2.761-.153 4.137-.454l.096-.021.081-.056c1.562-1.081 3.317-1.471 4.363-1.479C27.159 2.671 25.5 5 25.5 9v7.806c0 4.908 1.179 5.504 3.844 6.383 6.313 2.084 7.156 3.429 7.156 7.668 0 3.543-.537 6.226-.815 7.377z" fill="#b6c9d6"></path><path d="M27.224 2.199C26.189 3.428 25 5.585 25 9v7.805c0 4.982 1.212 5.877 4.187 6.858C35.331 25.691 36 26.913 36 30.857c0 2.953-.378 5.296-.659 6.628C33.041 36.305 27.579 34 20 34c-7.582 0-13.045 2.262-15.341 3.418C4.379 36.092 4 33.75 4 30.777c0-3.944.669-5.166 6.813-7.193C13.788 22.602 15 21.707 15 16.726V9c0-3.414-1.188-5.57-2.222-6.8.838.215 1.77.599 2.598 1.173l.162.112.193.042A19.79 19.79 0 0020 4c1.405 0 2.832-.157 4.243-.465l.193-.042.162-.112a8.276 8.276 0 012.626-1.182M30.857.99h-2.148c-1.209 0-3.079.461-4.679 1.568A19.014 19.014 0 0120 3c-1.6 0-3.004-.216-4.055-.448-1.59-1.103-3.447-1.563-4.654-1.563H9.143C10.116.99 14 3.029 14 9v7.726c0 4.724-1.075 5.108-3.5 5.909-6.391 2.109-7.5 3.6-7.5 8.142 0 4.902 1 8.143 1 8.143S10.209 35 20 35s16 4 16 4 1-3.241 1-8.143c0-4.542-1.109-6.034-7.5-8.143-2.425-.8-3.5-1.185-3.5-5.909V9C26 3.029 29.884.99 30.857.99z" fill="#788b9c"></path></g><g><path d="M27.345 35.261c-2.603-.605-5.071-.912-7.345-.912l.5.5-1-.007.5-.493c-2.273 0-4.742.307-7.345.912a9.224 9.224 0 01-.298-2.312c0-4.663 3.429-8.457 7.643-8.457s7.643 3.794 7.643 8.457c0 .776-.101 1.551-.298 2.312z" fill="#c2e8ff"></path><path d="M20 24.992c3.939 0 7.143 3.57 7.143 7.957 0 .574-.058 1.148-.173 1.715-2.461-.541-4.802-.815-6.97-.815v.96-.96c-2.168 0-4.509.274-6.97.815a8.624 8.624 0 01-.173-1.715c0-4.388 3.204-7.957 7.143-7.957m0-1c-4.497 0-8.143 4.01-8.143 8.957 0 1.02.163 1.996.449 2.91 2.364-.579 5.014-1.01 7.694-1.01v-.007.007c2.68 0 5.329.431 7.694 1.01a9.72 9.72 0 00.449-2.91c0-4.947-3.646-8.957-8.143-8.957z" fill="#4e7ab5"></path></g></svg>