<svg viewBox="0 0 40 40" xmlns="http://www.w3.org/2000/svg"><path fill="#fff" d="M1.5 1.5h37v27h-37z"></path><path d="M38 2v26H2V2h36m1-1H1v28h38V1z" fill="#788b9c"></path><path fill="#788b9c" d="M4 4h32v22H4z"></path><circle cx="16" cy="8" r="3.5" fill="#dbf2ff"></circle><path d="M16 5c1.682 0 3 1.318 3 3s-1.318 3-3 3-3-1.318-3-3 1.318-3 3-3m0-1c-2.222 0-4 1.778-4 4s1.778 4 4 4 4-1.778 4-4-1.778-4-4-4z" fill="#7496c4"></path><g><path d="M23.746 38.509a1.891 1.891 0 01-1.662-.993 1.87 1.87 0 01-.141-1.448l1.649-6.12-4.997-4.833-2.958-6.129-3.983 7.682a1.607 1.607 0 01-2.159.696 1.62 1.62 0 01-.726-2.133l4.09-8.553a6.301 6.301 0 013.053-3.003l8.44-3.867 1.529-4.161a1.753 1.753 0 012.065-1.096c.48.121.875.427 1.112.862.236.435.278.933.117 1.401l-1.813 5.27a2.23 2.23 0 01-1.128 1.272l-4.541 2.202 2.797 6.049 5.826 3.892h-5.065l1.825 2.312c.496.61.666 1.418.458 2.167l-1.99 7.204a1.893 1.893 0 01-1.798 1.327z" fill="#dbf2ff"></path><path d="M27.523 4.999a1.253 1.253 0 011.098.653c.169.311.198.666.083 1.001l-1.813 5.27a1.729 1.729 0 01-.873.985l-4.099 1.987-.883.428.412.891 2.531 5.476.118.256.234.156L28.668 25H24.22l1.279 1.62 1.195 1.514c.389.478.523 1.119.359 1.713l-1.983 7.179c-.176.579-.72.983-1.325.983-.131 0-.263-.019-.391-.057a1.376 1.376 0 01-.83-.673 1.4 1.4 0 01-.094-1.098l1.568-5.819.153-.569-.424-.41-4.721-4.566-2.486-5.149-.869-1.799-.92 1.774-3.523 6.795a1.11 1.11 0 01-1.488.48 1.118 1.118 0 01-.501-1.471l4.091-8.553a5.797 5.797 0 012.81-2.764l8.252-3.781.378-.173.144-.391 1.458-3.967c.18-.49.65-.819 1.171-.819m0-1c-.924 0-1.779.573-2.109 1.476L23.956 9.44l-8.252 3.781a6.788 6.788 0 00-3.295 3.241l-4.091 8.553a2.112 2.112 0 003.78 1.883l3.523-6.795 2.563 5.309 4.849 4.689-1.568 5.819a2.386 2.386 0 001.608 2.991 2.385 2.385 0 002.954-1.596l1.99-7.203a2.908 2.908 0 00-.547-2.61L26.283 26h5.683l-7.08-4.729-2.531-5.476 4.099-1.987a2.716 2.716 0 001.383-1.56l1.813-5.27a2.251 2.251 0 00-2.127-2.979z" fill="#7496c4"></path></g></svg>