<svg viewBox="0 0 40 40" xmlns="http://www.w3.org/2000/svg"><path fill="#dbb065" d="M1.5 35.5v-31h10.293l3 3H38.5v28z"></path><path d="M11.586 5l2.707 2.707.293.293H38v27H2V5h9.586M12 4H1v32h38V7H15l-3-3z" fill="#967a44"></path><path fill="#f5ce85" d="M1.5 35.5v-26h10.651l3-2H38.5v28z"></path><path d="M38 8v27H2V10h10.303l.252-.168L15.303 8H38m1-1H15l-3 2H1v27h38V7z" fill="#967a44"></path><g><path d="M20 31.6a6.508 6.508 0 01-6.5-6.5c0-3.135 5.087-8.845 6.5-10.37 1.413 1.525 6.5 7.237 6.5 10.37 0 3.584-2.916 6.5-6.5 6.5z" fill="#f78f8f"></path><path d="M20 15.463c2.163 2.375 6 7.111 6 9.637 0 3.308-2.692 6-6 6s-6-2.692-6-6c0-2.523 3.837-7.26 6-9.637M20 14s-7 7.234-7 11.1a7 7 0 1014 0c0-3.866-7-11.1-7-11.1z" fill="#c74343"></path></g><g><path d="M23 28c0 1.864-1.343 3-3 3s-3-1.136-3-3c0-.7.423-2.043.952-2.978 0 0 .07 1.723 1.123 1.478C20.127 26.255 20 22 20 22s3 3 3 6z" fill="#fff9de"></path></g></svg>