<svg viewBox="0 0 40 40" xmlns="http://www.w3.org/2000/svg"><path d="M12.576 35.131c-.885 0-1.589-.307-2.215-.966C7.271 30.913 5.5 26.244 5.5 21.357c0-6.441 2.664-12.876 6.494-16.034-.222.662-.404 1.26-.479 1.554-.253.998-.083 2.006.454 2.695.33.424.949.928 2.031.928.93 0 1.709-.385 2.381-1.176 1.139-1.34 2.438-4.276 2.276-7.174 1.316 1.202 2.145 2.731 2.89 4.109 1.18 2.181 2.294 4.24 4.953 4.24.979 0 1.487-.496 1.741-.913.596-.979.432-2.579-.08-4.116 3.698 3.224 6.339 9.671 6.339 15.887 0 4.683-1.566 9.056-4.412 12.313-.727.833-1.538 1.204-2.631 1.204h-.001c-.972 0-2.055-.299-3.202-.615-1.356-.372-2.757-.759-4.254-.759-1.502 0-2.902.46-4.256.904-1.138.374-2.211.727-3.168.727zM20 22.214c-1.779 0-3.228 1.442-3.228 3.215S18.22 28.643 20 28.643s3.228-1.441 3.228-3.214-1.449-3.215-3.228-3.215z" fill="#f78f8f"></path><path d="M19.14 3.378c.798.96 1.389 2.051 1.967 3.12C22.305 8.711 23.543 11 26.5 11c.945 0 1.715-.409 2.168-1.153.454-.744.533-1.734.391-2.771C31.999 10.451 34 15.987 34 21.357c0 4.561-1.523 8.818-4.288 11.985-.624.714-1.319 1.033-2.255 1.033-.904 0-1.956-.29-3.069-.597C23.064 33.413 21.565 33 20 33c-1.582 0-3.086.494-4.412.93-1.098.361-2.135.701-3.011.701-.749 0-1.32-.25-1.852-.81C7.722 30.661 6 26.118 6 21.357c0-5.41 2.014-10.971 4.971-14.329-.195 1.056.023 2.105.604 2.852.562.722 1.424 1.12 2.425 1.12 1.071 0 2-.455 2.762-1.353 1.03-1.212 2.185-3.667 2.378-6.269M20 29.143c2.055 0 3.727-1.666 3.727-3.714S22.055 21.714 20 21.714s-3.727 1.666-3.727 3.714 1.672 3.715 3.727 3.715M18 1c.653 2.997-.708 6.479-2 8-.739.87-1.479 1-2 1-1.729 0-2.366-1.553-2-3 .116-.458.562-1.875 1-3-4.868 2.904-8 10.49-8 17.357 0 5.227 1.93 9.922 4.999 13.153.788.83 1.652 1.121 2.577 1.121C14.765 35.631 17.298 34 20 34c2.715 0 5.261 1.375 7.456 1.375 1.098 0 2.108-.344 3.009-1.375C33.263 30.795 35 26.315 35 21.357 35 14.517 31.841 6.918 27 4c1.354 2.625 1.812 6-.5 6-4.281 0-4.063-6.031-8.5-9zm2 27.143a2.72 2.72 0 01-2.727-2.714c0-1.499 1.221-2.714 2.727-2.714s2.727 1.215 2.727 2.714A2.72 2.72 0 0120 28.143z" fill="#c74343"></path><path d="M20 38.5c-7.444 0-13.5-6.056-13.5-13.5S12.556 11.5 20 11.5 33.5 17.556 33.5 25 27.444 38.5 20 38.5zm0-16.154c-1.464 0-2.654 1.19-2.654 2.654s1.19 2.654 2.654 2.654 2.654-1.19 2.654-2.654-1.19-2.654-2.654-2.654z" fill="#ffc49c"></path><path d="M20 12c7.168 0 13 5.832 13 13s-5.832 13-13 13S7 32.168 7 25s5.832-13 13-13m0 16.154c1.739 0 3.154-1.415 3.154-3.154S21.739 21.846 20 21.846 16.846 23.261 16.846 25s1.415 3.154 3.154 3.154M20 11c-7.732 0-14 6.268-14 14s6.268 14 14 14 14-6.268 14-14-6.268-14-14-14zm0 16.154a2.154 2.154 0 11-.001-4.307A2.154 2.154 0 0120 27.154z" fill="#a16a4a"></path><path d="M22.872 23.712l8.98-4.026a13.057 13.057 0 00-7.342-6.864l-3.418 9.229a3.161 3.161 0 011.78 1.661zM17.128 26.288l-8.98 4.026a13.057 13.057 0 007.342 6.864l3.418-9.229a3.168 3.168 0 01-1.78-1.661z" fill="#ffeea3"></path><path d="M21.838 22.448l5.748-7.983a12.94 12.94 0 00-3.076-1.641l-3.418 9.229c.267.099.518.23.746.395zM18.162 27.552l-5.748 7.984a12.94 12.94 0 003.076 1.641l3.418-9.229a3.155 3.155 0 01-.746-.396z" fill="#fff"></path><g><path d="M20 23c1.103 0 2 .897 2 2s-.897 2-2 2-2-.897-2-2 .897-2 2-2m0-2a4 4 0 100 8 4 4 0 000-8z" fill="#a16a4a"></path></g></svg>