<svg viewBox="0 0 40 40" xmlns="http://www.w3.org/2000/svg"><path d="M29 33.571h6a1 1 0 011 1V38a1 1 0 01-1 1h-6a1 1 0 01-1-1v-3.429a1 1 0 011-1zM5 33.571h6a1 1 0 011 1V38a1 1 0 01-1 1H5a1 1 0 01-1-1v-3.429a1 1 0 011-1z" fill="#66798f"></path><path d="M4.5 35.5V5c0-1.93 1.57-3.5 3.5-3.5h24c1.93 0 3.5 1.57 3.5 3.5v30.5h-31z" fill="#bae0bd"></path><path d="M32 2c1.654 0 3 1.346 3 3v30H5V5c0-1.654 1.346-3 3-3h24m0-1H8a4 4 0 00-4 4v31h32V5a4 4 0 00-4-4z" fill="#5e9c76"></path><path fill="#c2e8ff" d="M4.5 9.5h31v14h-31z"></path><path d="M35 10v13H5V10h30m1-1H4v15h32V9z" fill="#5e9c76"></path><path fill="#fff" d="M28 30h5v3h-5zM7 30h5v3H7z"></path><path d="M35.5 19.5v-6h2.17c.458 0 .83.373.83.83v4.34a.83.83 0 01-.83.83H35.5z" fill="#bae0bd"></path><path d="M37.67 14a.33.33 0 01.33.33v4.34a.33.33 0 01-.33.33H36v-5h1.67m0-1H35v7h2.67A1.33 1.33 0 0039 18.67v-4.34A1.33 1.33 0 0037.67 13z" fill="#5e9c76"></path><g><path d="M2.33 19.5a.831.831 0 01-.83-.83v-4.34a.83.83 0 01.83-.83H4.5v6H2.33z" fill="#bae0bd"></path><path d="M4 14v5H2.33a.33.33 0 01-.33-.33v-4.34a.33.33 0 01.33-.33H4m1-1H2.33A1.33 1.33 0 001 14.33v4.34c0 .735.595 1.33 1.33 1.33H5v-7z" fill="#5e9c76"></path></g><path fill="#ffeea3" d="M12 4h16v3H12z"></path></svg>