<svg viewBox="0 0 40 40" xmlns="http://www.w3.org/2000/svg"><path d="M25 3c1.103 0 2 .897 2 2v3H13V5c0-1.103.897-2 2-2h10m0-1H15a3 3 0 00-3 3v4h16V5a3 3 0 00-3-3z" fill="#66798f"></path><path d="M4 35.5A2.503 2.503 0 011.5 33V9c0-1.378 1.121-2.5 2.5-2.5h32c1.379 0 2.5 1.122 2.5 2.5v24c0 1.378-1.121 2.5-2.5 2.5H4z" fill="#b0c1d4"></path><path d="M36 7c1.103 0 2 .897 2 2v24c0 1.103-.897 2-2 2H4c-1.103 0-2-.897-2-2V9c0-1.103.897-2 2-2h32m0-1H4a3 3 0 00-3 3v24a3 3 0 003 3h32a3 3 0 003-3V9a3 3 0 00-3-3z" fill="#66798f"></path><path d="M29 7h-3v-.5a1.5 1.5 0 013 0V7zM14 7h-3v-.5a1.5 1.5 0 013 0V7zM32 35h3v2h-3zM5 35h3v2H5z" fill="#66798f"></path><path fill="#c1d1e0" d="M23 11h1v20h-1zM16 11h1v20h-1zM9 11h1v20H9zM30 11h1v20h-1z"></path></svg>