<svg viewBox="0 0 40 40" xmlns="http://www.w3.org/2000/svg"><path fill="#deb974" d="M14.5 31.5h11v3h-11z"></path><path d="M25 32v2H15v-2h10m1-1H14v4h12v-4z" fill="#967a44"></path><path d="M9.155 31.5l-2.53-7.229C8.138 23.629 13.638 21.5 20 21.5s11.862 2.129 13.375 2.771l-2.53 7.229H9.155z" fill="#f5ce85"></path><path d="M20 22c5.769 0 10.824 1.78 12.747 2.553L30.491 31H9.509l-2.257-6.447C9.176 23.78 14.231 22 20 22m0-1c-7.663 0-14 3-14 3l2.8 8h22.4l2.8-8s-6.337-3-14-3z" fill="#967a44"></path><path d="M20 23.5c-2.499 0-3.333-1.412-3.5-1.758v-4.165h7v4.166c-.164.339-.996 1.757-3.5 1.757z" fill="#deb974"></path><path d="M23 18.077v3.54c-.216.372-.988 1.383-3 1.383-2.023 0-2.792-1.022-3-1.38v-3.543h6m1-1h-8v4.769S16.799 24 20 24s4-2.154 4-2.154v-4.769z" fill="#967a44"></path><path d="M25.714 15.542c-.984 0-1.786-.728-1.786-1.623s.801-1.623 1.786-1.623c1.648 0 1.786.452 1.786.915 0 .997-.883 2.331-1.786 2.331zm-11.428 0c-.903 0-1.786-1.334-1.786-2.33 0-.463.138-.915 1.786-.915.984 0 1.786.728 1.786 1.623s-.802 1.622-1.786 1.622z" fill="#deb974"></path><path d="M25.714 12.796c1.286 0 1.286.24 1.286.415 0 .787-.733 1.83-1.286 1.83-.709 0-1.286-.504-1.286-1.122s.577-1.123 1.286-1.123m-11.428 0c.709 0 1.286.504 1.286 1.122s-.577 1.122-1.286 1.122c-.553 0-1.286-1.043-1.286-1.83 0-.174 0-.414 1.286-.414m11.428-1c-1.262 0-2.286.95-2.286 2.122s1.023 2.122 2.286 2.122c1.262 0 2.286-1.658 2.286-2.83s-1.023-1.414-2.286-1.414zm-11.428 0c-1.262 0-2.286.243-2.286 1.415s1.023 2.83 2.286 2.83c1.262 0 2.286-.95 2.286-2.122-.001-1.172-1.024-2.123-2.286-2.123z" fill="#967a44"></path><g><path d="M20 20.5c-.37 0-.73-.14-1.016-.395l-.103-.091-.134-.026a6.507 6.507 0 01-5.247-6.377V6.928a2.973 2.973 0 012.969-2.969h7.062A2.973 2.973 0 0126.5 6.928v6.684a6.508 6.508 0 01-5.247 6.377l-.134.026-.103.091A1.531 1.531 0 0120 20.5z" fill="#f5ce85"></path><path d="M23.531 4.458A2.473 2.473 0 0126 6.928v6.684a6.007 6.007 0 01-4.843 5.886l-.269.053-.205.182c-.137.121-.367.267-.683.267s-.546-.146-.683-.268l-.205-.182-.269-.053A6.006 6.006 0 0114 13.612V6.928a2.472 2.472 0 012.469-2.469h7.062m0-1.001H16.47A3.47 3.47 0 0013 6.928v6.684a7 7 0 005.651 6.867c.36.32.829.521 1.349.521s.989-.201 1.349-.521A7 7 0 0027 13.612V6.928a3.47 3.47 0 00-3.469-3.47z" fill="#967a44"></path></g><g><path d="M26.5 14.5v-2.389c0-3.072-2.65-5.182-2.763-5.27l-.341-.267-.313.299C23.067 6.888 21.306 8.5 17.6 8.5c-1.975 0-4.1 1.182-4.1 3.776V14.5h-.093c-.237-1.165-.907-4.579-.907-5.95 0-4.283 2.944-7.05 7.5-7.05 1.994 0 3.358 1.734 3.372 1.752l.15.194h.246c1.291 0 3.732.995 3.732 4.761 0 2.144-.654 5.225-.897 6.293H26.5z" fill="#deb974"></path><path d="M20 2c1.728 0 2.967 1.546 2.976 1.558l.3.388h.491c1.201 0 3.233.898 3.233 4.261 0 .731-.079 1.577-.191 2.414-.639-2.483-2.662-4.094-2.764-4.174l-.676-.516-.625.574C22.678 6.566 21.077 8 17.6 8c-1.796 0-3.704.88-4.361 2.779C13.1 9.876 13 9.051 13 8.55 13 4.571 15.748 2 20 2m0-1c-4.908 0-8 3.102-8 7.55 0 1.73 1 6.45 1 6.45h1v-2.724C14 10.029 15.81 9 17.6 9c3.983 0 5.829-1.765 5.829-1.765S26 9.247 26 12.111V15h1s1-4.084 1-6.793c0-3.851-2.444-5.261-4.233-5.261C23.767 2.946 22.263 1 20 1z" fill="#967a44"></path></g><g><path d="M10.5 38.5V36c0-.827.673-1.5 1.5-1.5h16c.827 0 1.5.673 1.5 1.5v2.5h-19z" fill="#f5ce85"></path><path d="M28 35c.551 0 1 .449 1 1v2H11v-2c0-.551.449-1 1-1h16m0-1H12a2 2 0 00-2 2v3h20v-3a2 2 0 00-2-2z" fill="#967a44"></path></g></svg>