<svg viewBox="0 0 40 40" xmlns="http://www.w3.org/2000/svg"><path d="M20 38.5C9.799 38.5 1.5 30.201 1.5 20S9.799 1.5 20 1.5 38.5 9.799 38.5 20 30.201 38.5 20 38.5z" fill="#b0c1d4"></path><path d="M20 2c9.925 0 18 8.075 18 18s-8.075 18-18 18S2 29.925 2 20 10.075 2 20 2m0-1C9.507 1 1 9.507 1 20s8.507 19 19 19 19-8.507 19-19S30.493 1 20 1z" fill="#66798f"></path><path d="M24 38a20.815 20.815 0 006-2.337V4.337A20.815 20.815 0 0024 2v36z" fill="#66798f"></path><path d="M20 38.5a18.3 18.3 0 01-7.5-1.606V28.55l-.199-.15C8.943 25.873 6.728 20.666 9.8 15.207a7.181 7.181 0 012.834-2.776c1.74-.95 3.533-1.431 5.331-1.431a9.667 9.667 0 019.514 7.936l.026.146 1.996 2.117v3.492l-2 1V29c0 1.378-1.122 2.5-2.5 2.5h-1.5v6.662A18.624 18.624 0 0120 38.5z" fill="#ffeea3"></path><path d="M17.964 11.5a9.165 9.165 0 019.022 7.526l.053.291.203.216L29 21.397v2.985l-1.447.724-.553.276V29c0 1.103-.897 2-2 2h-2v6.744a17.795 17.795 0 01-10-1.177V28.3l-.399-.3c-3.296-2.481-5.306-7.323-2.366-12.548a6.68 6.68 0 012.638-2.582c1.666-.909 3.378-1.37 5.091-1.37m0-1c-1.786 0-3.679.46-5.57 1.492a7.692 7.692 0 00-3.03 2.97C6.279 20.445 8.178 25.922 12 28.799v8.416A18.884 18.884 0 0020 39c1.373 0 2.709-.153 4-.43V32h1a3 3 0 003-3v-3l2-1v-4l-2.03-2.153c-.864-4.746-5.011-8.347-10.006-8.347z" fill="#ba9b48"></path><path fill="#ffeea3" d="M30 22.455l-1.357-1.436v3.541L30 23.876z"></path><g><path d="M12.258 31.365c-.502-1.354-1.381-2.514-2.303-3.731-1.699-2.24-3.455-4.558-3.455-8.621C6.5 13.118 11.184 8.5 17.163 8.5c4.657 0 7.686 2.984 8.325 3.676C25.276 13.71 22.376 15.5 20 15.5h-.5v6h-.241c-.428-.572-1.664-2-3.33-2-1.662 0-3.429 1.227-3.429 3.5 0 2.334 2.122 3.374 3 3.704v2.057l-3.242 2.604z" fill="#ffc49c"></path><path d="M17.162 9c4.116 0 6.909 2.449 7.777 3.326C24.53 13.49 22.114 15 20 15h-1v5.448C18.315 19.769 17.247 19 15.929 19 14.024 19 12 20.402 12 23c0 2.377 1.908 3.557 3 4.038v1.483l-2.537 2.038c-.536-1.15-1.307-2.167-2.11-3.227C8.705 25.157 7 22.908 7 19.013 7 13.398 11.464 9 17.162 9m0-1C10.962 8 6 12.812 6 19.013c0 6.893 4.969 9.112 6 13.201L16 29v-2.656s-3-.812-3-3.344c0-1.906 1.43-3 2.929-3C17.719 20 19 22 19 22h1v-6c2.739 0 6-2.103 6-4 0 0-3.281-4-8.838-4z" fill="#a16a4a"></path></g><circle cx="24.429" cy="21" r="1" fill="#36404d"></circle></svg>