<svg viewBox="0 0 40 40" xmlns="http://www.w3.org/2000/svg"><path d="M20 38.5C9.799 38.5 1.5 30.201 1.5 20S9.799 1.5 20 1.5 38.5 9.799 38.5 20 30.201 38.5 20 38.5z" fill="#ffeea3"></path><path d="M20 2c9.925 0 18 8.075 18 18s-8.075 18-18 18S2 29.925 2 20 10.075 2 20 2m0-1C9.507 1 1 9.507 1 20s8.507 19 19 19 19-8.507 19-19S30.493 1 20 1z" fill="#ba9b48"></path><circle cx="20" cy="20" r="14" fill="#f5ce85"></circle><g><path fill="#f78f8f" d="M17.5 28.5v-11h-3.293L20 11.707l5.793 5.793H22.5v11z"></path><path d="M20 12.414L24.586 17H22v11h-4V17H15.414L20 12.414M20 11l-7 7h4v11h6V18h4l-7-7z" fill="#c74343"></path></g></svg>