<svg viewBox="0 0 40 40" xmlns="http://www.w3.org/2000/svg"><path fill="#c2e8ff" d="M11.5 11.5V6.09l8-1.07v6.48h-8z"></path><path d="M19 5.59V11h-7V6.53l7-.94m1-1.14l-9 1.2V12h9V4.45z" fill="#7496c4"></path><path fill="#c2e8ff" d="M21.5 11.5V4.64l8-1.07v7.93h-8z"></path><path d="M29 4.14V11h-7V5.08l7-.94M30 3l-9 1.21V12h9V3z" fill="#7496c4"></path><path fill="#c2e8ff" d="M11.5 18.91V13.5h8v6.48l-8-1.07z"></path><path d="M19 14v5.41l-7-.94V14h7m1-1h-9v6.35l9 1.21V13z" fill="#7496c4"></path><path fill="#c2e8ff" d="M21.5 20.36V13.5h8v7.93l-8-1.07z"></path><path d="M29 14v6.86l-7-.94V14h7m1-1h-9v7.79L30 22v-9z" fill="#7496c4"></path><rect x="2.5" y="25.5" width="35" height="12" rx="1.5" ry="1.5" fill="#b0c1d4"/><path d="M36 26a1 1 0 011 1v9a1 1 0 01-1 1H4a1 1 0 01-1-1v-9a1 1 0 011-1h32m0-1H4a2 2 0 00-2 2v9a2 2 0 002 2h32a2 2 0 002-2v-9a2 2 0 00-2-2z" fill="#66798f"></path><path fill="#66798f" d="M16 30h18v3H16z"></path><circle cx="9.5" cy="31.5" r="2" fill="#99c99e"></circle><path d="M9.5 30A1.5 1.5 0 118 31.5 1.5 1.5 0 019.5 30m0-1a2.5 2.5 0 102.5 2.5A2.5 2.5 0 009.5 29z" fill="#5e9c76"></path></svg>