<svg viewBox="0 0 40 40" xmlns="http://www.w3.org/2000/svg"><path d="M20 34.5A14.5 14.5 0 1134.5 20 14.52 14.52 0 0120 34.5z" fill="#9bcc9f"></path><path d="M20 6A14 14 0 116 20 14 14 0 0120 6m0-1A15 15 0 005 20a15 15 0 0030 0A15 15 0 0020 5z" fill="#5e9c76"></path><path d="M32 21.5a6.51 6.51 0 01-6.5-6.5v-1l-.67.2a6.5 6.5 0 112.5-11.03l.28.25.32-.19A5 5 0 0135.28 9l-.11.36.32.2A6.5 6.5 0 0132 21.5z" fill="#9bcc9f"></path><path d="M23 2a6 6 0 014 1.54l.55.49.63-.38a4.5 4.5 0 016.62 5.16l-.22.73.64.41A6 6 0 1126 15v-.26l.06-1.4-1.35.4A6 6 0 1123 2m0-1a7 7 0 102 13.7v.3a7 7 0 1010.76-5.9 5.49 5.49 0 00-8.09-6.31A7 7 0 0023 1z" fill="#5e9c76"></path><path d="M23 38.5a6.5 6.5 0 111.87-12.72l.67.2v-1a6.5 6.5 0 1110 5.48l-.32.2.11.36a5 5 0 01-7.36 5.74l-.32-.19-.28.25A6.48 6.48 0 0123 38.5z" fill="#9bcc9f"></path><path d="M32 19a6 6 0 013.22 11.05l-.64.41.22.73a4.49 4.49 0 01-6.62 5.16l-.63-.35-.55.49a6 6 0 11-2.27-10.21l1.35.4-.08-1.42v-.14V25a6 6 0 016-6m0-1a7 7 0 00-7 7v.3a7 7 0 102.65 11.91 5.5 5.5 0 008.09-6.31A7 7 0 0032 18z" fill="#5e9c76"></path><path d="M16 38.5a6.48 6.48 0 01-4.33-1.66l-.28-.25-.32.19a5 5 0 01-6.85-6.85l.19-.32-.25-.28A6.5 6.5 0 1115.5 25v.5h.5a6.5 6.5 0 010 13z" fill="#9bcc9f"></path><path d="M9 19a6 6 0 016 6v1h1a6 6 0 11-4 10.46l-.55-.46-.63.38a4.49 4.49 0 01-6.17-6.17l.35-.66-.46-.55A6 6 0 019 19m0-1a7 7 0 00-5.21 11.67 5.49 5.49 0 007.54 7.54A7 7 0 1016 25a7 7 0 00-7-7z" fill="#5e9c76"></path><path d="M8 25.5A6.51 6.51 0 011.5 19a6.43 6.43 0 011.41-4l.18-.23-.09-.31a6.5 6.5 0 016-9H9.89l.15-.3a5 5 0 115.78 7.06l-.33.09v.34a6.48 6.48 0 01-1.4 3.35l-.18.23.11.27a6.5 6.5 0 01-6 9z" fill="#9bcc9f"></path><path d="M14.5 3a4.5 4.5 0 011.19 8.84L15 12l-.08.67a6 6 0 01-1.26 3l-.36.46.22.54A6 6 0 112 19a5.93 5.93 0 011.31-3.73l.36-.46-.22-.54A6 6 0 019 6h.51l.67.06.3-.6A4.48 4.48 0 0114.5 3m0-1a5.5 5.5 0 00-4.91 3H9a7 7 0 00-6.48 9.65 7 7 0 1012 1.7A7 7 0 0016 12.8 5.5 5.5 0 0014.5 2z" fill="#5e9c76"></path><path d="M20 34.5a14.53 14.53 0 01-8.84-3 11.49 11.49 0 0119.61-1.8A14.48 14.48 0 0120 34.5z" fill="#bae0bd"></path><path d="M21.5 25.5a11 11 0 018.62 4.16 14 14 0 01-18.32 1.67 11 11 0 019.7-5.83m0-1a12 12 0 00-11 7.13 15 15 0 0020.87-1.9 12 12 0 00-9.9-5.23z" fill="#5e9c76"></path><path d="M12.55 32.43a14.48 14.48 0 014.06-26.52 8.5 8.5 0 011.29 15.63l-.36.19.11.39a8.47 8.47 0 01-5.11 10.3z" fill="#bae0bd"></path><path d="M16.59 6.43a8 8 0 011.09 14.67l-.73.38.23.79a8 8 0 01-4.58 9.6 14 14 0 014-25.44m0-1A15 15 0 0012.5 33a9 9 0 005.64-11 9 9 0 00-1.51-16.61z" fill="#5e9c76"></path><path d="M29.72 30.75a10 10 0 01-6.22-9.25 9.94 9.94 0 01.13-1.5l.08-.51-.51-.07A10 10 0 0115 6.4a14.48 14.48 0 0114.72 24.35z" fill="#bae0bd"></path><path d="M20 6a14 14 0 019.61 24.16A9.54 9.54 0 0124 21.5a9.43 9.43 0 01.12-1.45l.15-1-1-.13A9.51 9.51 0 0115 9.5a9.4 9.4 0 01.4-2.71A13.88 13.88 0 0120 6m0-1a14.93 14.93 0 00-5.4 1 10.47 10.47 0 008.53 13.9 10.39 10.39 0 006.68 11.42A15 15 0 0020 5z" fill="#5e9c76"></path></svg>