<svg viewBox="0 0 40 40" xmlns="http://www.w3.org/2000/svg"><path d="M20.5 15.775s.999-1.7.999-4.736C21.499 7.892 20.5 6 20.5 6" fill="none" stroke="#66798f" stroke-miterlimit="10"></path><path d="M15.5 30.5V17c0-.827.673-1.5 1.5-1.5h8c.827 0 1.5.673 1.5 1.5v13.5h-11z" fill="#c8d1db"></path><path d="M25 16c.551 0 1 .449 1 1v13H16V17c0-.551.449-1 1-1h8m0-1h-8a2 2 0 00-2 2v14h12V17a2 2 0 00-2-2z" fill="#66798f"></path><path fill="none" stroke="#36404d" stroke-miterlimit="10" d="M1.5 10.5l36-9"></path><path d="M5.509 27.5c.156-4.309 2.246-8.863 2.801-10h24.384c.555 1.12 2.646 5.609 2.798 10H5.509z" fill="#c2e8ff"></path><path d="M32.381 18c.654 1.367 2.321 5.177 2.584 9H6.037c.268-3.76 1.934-7.614 2.587-9h23.757M33 17H8s-3 5.729-3 11h31c0-5.385-3-11-3-11z" fill="#7496c4"></path><circle cx="22" cy="4" r="1.5" fill="#c8d1db"></circle><path d="M22 3c.551 0 1 .449 1 1s-.449 1-1 1-1-.449-1-1 .449-1 1-1m0-1a2 2 0 10-.001 3.999A2 2 0 0022 2z" fill="#66798f"></path><g><circle cx="17" cy="5" r="1.5" fill="#c8d1db"></circle><path d="M17 4c.551 0 1 .449 1 1s-.449 1-1 1-1-.449-1-1 .449-1 1-1m0-1a2 2 0 10-.001 3.999A2 2 0 0017 3z" fill="#66798f"></path></g><path fill="#7496c4" d="M20 17.286h1v10.857h-1z"></path><g><path d="M8.31 38.5C7.733 37.319 5.5 32.45 5.5 28c0-.223.003-.363.009-.5h29.983c.005.137.008.272.008.5 0 4.551-2.23 9.339-2.807 10.5H8.31z" fill="#f78f8f"></path><path d="M35 28c0 4.14-1.908 8.513-2.619 10H8.623C7.912 36.493 6 32.064 6 28h29m.967-1H5.034c-.022.421-.034.544-.034 1 0 5.271 3 11 3 11h25s3-5.615 3-11c0-.458-.01-.556-.033-1z" fill="#c74343"></path></g></svg>