<svg viewBox="0 0 40 40" xmlns="http://www.w3.org/2000/svg"><path d="M27 39l5.117-5.152c2.51-2.51 2.51-6.455 0-8.966h0c-2.51-2.51-6.545-2.51-8.966 0l-5.303 5.234c-2.51 2.51-6.455 2.51-8.966 0h0c-2.51-2.51-2.51-6.545 0-8.966l5.648-5.821" fill="none" stroke="#36404d" stroke-width="2" stroke-miterlimit="10"></path><path d="M17.275 20.5c-1.783 0-3.478-.712-4.771-2.005a6.756 6.756 0 01-2.004-4.869 6.514 6.514 0 011.997-4.664l6.434-6.457A6.763 6.763 0 0123.739.5c1.804 0 3.482.71 4.725 1.999 1.315 1.316 2.027 3.045 2.011 4.875a6.514 6.514 0 01-1.997 4.664l-6.434 6.457c-1.292 1.293-2.986 2.005-4.769 2.005z" fill="#8bb7f0"></path><path d="M23.739 1c1.667 0 3.217.656 4.378 1.859a6.26 6.26 0 011.859 4.511 6.026 6.026 0 01-1.86 4.323l-6.424 6.449C20.492 19.34 18.924 20 17.275 20s-3.217-.66-4.416-1.859A6.26 6.26 0 0111 13.63a6.026 6.026 0 011.86-4.323l6.424-6.449A6.269 6.269 0 0123.739 1m0-1a7.288 7.288 0 00-5.162 2.152l-6.426 6.45c-2.869 2.767-2.869 7.377 0 10.246C13.586 20.283 15.431 21 17.275 21s3.689-.717 5.123-2.152l6.426-6.45c2.869-2.767 2.869-7.377 0-10.246A7.028 7.028 0 0023.739 0z" fill="#4e7ab5"></path><g><circle cx="23.5" cy="7.5" r="3" fill="#c2e8ff"></circle><path d="M23.5 5C24.879 5 26 6.122 26 7.5S24.879 10 23.5 10 21 8.878 21 7.5 22.121 5 23.5 5m0-1a3.5 3.5 0 100 7 3.5 3.5 0 000-7z" fill="#4e7ab5"></path></g></svg>