<svg viewBox="0 0 40 40" xmlns="http://www.w3.org/2000/svg"><path fill="#5e9c76" d="M3.772 14.566L1 15.929l2.813 1.683zM3.772 18.637L1 20l2.813 1.684zM7.379 12.73l.407-3.587-3.087 2.501zM4.476 11.382l-3.082-1.223L2.886 13.3zM36.228 21.351L39 22.714l-2.813 1.684zM36.228 25.423L39 26.786l-2.813 1.683zM32.621 19.515l-.407-3.586 3.087 2.501zM14.5 4.164l-3.28-.861 2.003 3.15zM13.725 8.949l-3.79 1.523 3.993 1.929zM13.664 15.76l-3.389 1.243 3.619 1.639z"></path><path d="M14.571 30.357a9.34 9.34 0 01-1.049-.065c-6.18-.709-10.665-5.855-10.665-12.238v-4.161C2.857 12.298 4.155 11 5.75 11s2.893 1.298 2.893 2.893v4.75c0 2.885.967 4.969 2.875 6.195 1.495.961 3.153 1.105 4.009 1.105l.145-.001c.553.855 1.489 2.669.985 3.641-.266.514-.968.774-2.086.774.001 0 .001 0 0 0z" fill="#bae0bd"></path><path d="M5.75 11.5a2.396 2.396 0 012.393 2.393v4.75c0 5.681 3.722 7.75 7.253 7.799.591.98 1.118 2.327.816 2.91-.166.321-.764.505-1.641.505-.298 0-.632-.021-.992-.062-5.923-.679-10.222-5.617-10.222-11.741v-4.161A2.396 2.396 0 015.75 11.5m0-1a3.393 3.393 0 00-3.393 3.393v4.161c0 6.759 4.726 12.003 11.108 12.735.407.047.775.069 1.106.069 5.204 0 1.357-5.429 1.357-5.429s-.149.014-.403.014c-1.459 0-6.383-.469-6.383-6.8v-4.75A3.391 3.391 0 005.75 10.5z" fill="#5e9c76"></path><path d="M5.665 12.557c0 6.464-.41 15.586 10.15 15.586" fill="none" stroke="#93cc97" stroke-linecap="round" stroke-miterlimit="10"></path><path d="M26.786 34.429c-1.236 0-2.231-.337-2.878-.974a2.706 2.706 0 01-.801-1.917c0-.756.36-1.538.964-1.538.225 0 .479.009.753.018.334.011.696.023 1.072.023 1.351 0 5.461 0 5.461-4.612v-4.75c0-1.595 1.298-2.893 2.893-2.893s2.893 1.298 2.893 2.893v3.393c0 7.154-5.202 10.357-10.357 10.357z" fill="#bae0bd"></path><path d="M34.25 18.286a2.396 2.396 0 012.393 2.393v3.393c0 6.809-4.951 9.857-9.857 9.857-1.102 0-1.975-.287-2.526-.83a2.205 2.205 0 01-.652-1.561c0-.584.249-1.038.464-1.038.22 0 .469.008.737.017.339.011.707.023 1.088.023 3.955 0 5.961-1.72 5.961-5.112v-4.75a2.394 2.394 0 012.392-2.392m0-1a3.393 3.393 0 00-3.393 3.393v4.75c0 3.68-2.727 4.112-4.961 4.112-.686 0-1.326-.041-1.825-.041-2.126 0-2.488 5.429 2.714 5.429s10.857-3.242 10.857-10.857v-3.393a3.391 3.391 0 00-3.392-3.393z" fill="#5e9c76"></path><path d="M34.165 19.343c0 6.464 1.11 12.872-8.85 12.872" fill="none" stroke="#93cc97" stroke-linecap="round" stroke-miterlimit="10"></path><path d="M15.174 38.5L12.655 9.51a7.392 7.392 0 011.911-5.621C15.959 2.371 17.939 1.5 20 1.5s4.041.871 5.434 2.39a7.388 7.388 0 011.911 5.621L24.826 38.5h-9.652z" fill="#bae0bd"></path><path d="M20 2c1.949 0 3.748.791 5.065 2.228a6.797 6.797 0 011.781 5.239L24.367 38h-8.734l-2.48-28.533a6.796 6.796 0 011.781-5.239A6.8 6.8 0 0120 2m0-1c-4.617 0-8.242 3.954-7.843 8.554L14.716 39h10.568l2.559-29.446C28.242 4.954 24.617 1 20 1z" fill="#5e9c76"></path><path fill="#5e9c76" d="M26.22 4.576l3.28-.862-2.002 3.151zM27.054 8.949l3.79 1.523-3.993 1.929zM26.939 15.76l3.389 1.243-3.619 1.639zM26.111 22.354l3.389 1.243-3.619 1.638zM35.524 18.167l3.082-1.222-1.492 3.141z"></path><g fill="#93cc97"><path d="M15.475 3.7L17.531 38H19l-.907-35.728A6.756 6.756 0 0015.475 3.7zM21.904 2.271L21 38h1.469L24.46 3.648a6.76 6.76 0 00-2.556-1.377z"></path></g></svg>