<svg viewBox="0 0 40 40" xmlns="http://www.w3.org/2000/svg"><path d="M9 38.5A2.503 2.503 0 016.5 36V4c0-1.378 1.121-2.5 2.5-2.5h22c1.379 0 2.5 1.122 2.5 2.5v32c0 1.378-1.121 2.5-2.5 2.5H9z" fill="#b0c1d4"></path><path d="M31 2c1.103 0 2 .897 2 2v32c0 1.103-.897 2-2 2H9c-1.103 0-2-.897-2-2V4c0-1.103.897-2 2-2h22m0-1H9a3 3 0 00-3 3v32a3 3 0 003 3h22a3 3 0 003-3V4a3 3 0 00-3-3z" fill="#66798f"></path><path d="M7 14V4a2 2 0 012-2h22a2 2 0 012 2v10H7z" fill="#d6dfeb"></path><path fill="#bae0bd" d="M10.5 5.5h19v5h-19z"></path><path d="M29 6v4H11V6h18m1-1H10v6h20V5z" fill="#5e9c76"></path><path fill="#fff" d="M15 17h3v3h-3zM10 17h3v3h-3zM20 17h3v3h-3z"></path><path fill="#ffeea3" d="M27 17h3v3h-3z"></path><path fill="#fff" d="M15 22h3v3h-3zM10 22h3v3h-3zM20 22h3v3h-3z"></path><path fill="#ffeea3" d="M27 22h3v3h-3z"></path><path fill="#fff" d="M15 27h3v3h-3zM10 27h3v3h-3zM20 27h3v3h-3z"></path><path fill="#ffeea3" d="M27 27h3v3h-3z"></path><path fill="#fff" d="M15 32h3v3h-3zM10 32h3v3h-3zM20 32h3v3h-3z"></path><path fill="#f78f8f" d="M27 32h3v3h-3z"></path><path fill="#5e9c76" d="M27 8h1v1h-1zM25 8h1v1h-1zM23 8h1v1h-1z"></path></svg>