<svg viewBox="0 0 40 40" xmlns="http://www.w3.org/2000/svg"><path fill="#fff" d="M2.5 2.5h35v35h-35z"></path><path d="M37 3v34H3V3h34m1-1H2v36h36V2z" fill="#788b9c"></path><path fill="#f78f8f" d="M2.5 2.5h35v5h-35z"></path><path d="M37 3v4H3V3h34m1-1H2v6h36V2z" fill="#c74343"></path><path fill="#e1ebf2" d="M3 34h34v3H3z"></path><path d="M18.514 27.634h-7.91v-.976c0-.398.056-.772.167-1.121s.261-.677.448-.984.407-.598.659-.87.521-.536.809-.791.58-.501.879-.738.592-.476.879-.716c.27-.229.516-.453.738-.672s.413-.447.571-.681.281-.482.369-.743.132-.543.132-.848c0-.334-.051-.625-.154-.875s-.246-.457-.431-.624-.403-.293-.655-.378-.527-.127-.826-.127c-.516 0-1.04.12-1.573.36s-1.046.601-1.538 1.081v-1.96c.258-.193.519-.362.782-.505s.536-.264.817-.36.577-.168.888-.215.642-.07.993-.07c.568 0 1.084.075 1.547.224s.858.369 1.187.659.582.652.76 1.085.268.932.268 1.494c0 .51-.063.968-.189 1.375s-.305.787-.536 1.138-.511.686-.839 1.002-.694.642-1.099.976c-.34.275-.678.543-1.015.804s-.64.516-.91.765-.488.498-.655.747-.25.5-.25.751v.044h5.687v1.749zM27.875 15.03v8.139h1.872v1.696h-1.872v2.769h-1.978v-2.769h-5.704v-1.714a47.507 47.507 0 003.15-3.959c.501-.706.965-1.414 1.393-2.123s.788-1.389 1.081-2.039h2.058zm-1.978 8.139v-5.291c-.639 1.148-1.27 2.15-1.894 3.006s-1.208 1.617-1.753 2.285h3.647z" fill="#36404d"></path></svg>