<svg viewBox="0 0 40 40" xmlns="http://www.w3.org/2000/svg"><path fill="#fff" d="M2.5 2.5h35v35h-35z"></path><path d="M37 3v34H3V3h34m1-1H2v36h36V2z" fill="#788b9c"></path><path fill="#f78f8f" d="M2.5 2.5h35v5h-35z"></path><path d="M37 3v4H3V3h34m1-1H2v6h36V2z" fill="#c74343"></path><path fill="#e1ebf2" d="M3 34h34v3H3z"></path><path d="M21.709 14.749v12.885H19.67V17.245c-.369.264-.766.488-1.191.672s-.91.347-1.455.488v-1.74c.34-.111.668-.229.984-.352s.628-.261.936-.413.618-.322.932-.51.637-.401.971-.642h.862z" fill="#36404d"></path></svg>