<svg viewBox="0 0 40 40" xmlns="http://www.w3.org/2000/svg"><path fill="#fff" d="M2.5 2.5h35v35h-35z"></path><path d="M37 3v34H3V3h34m1-1H2v36h36V2z" fill="#788b9c"></path><path fill="#f78f8f" d="M2.5 2.5h35v5h-35z"></path><path d="M37 3v4H3V3h34m1-1H2v6h36V2z" fill="#c74343"></path><path fill="#e1ebf2" d="M3 34h34v3H3z"></path><path d="M11.013 27.168v-1.916c.82.65 1.746.976 2.777.976.838 0 1.507-.19 2.009-.571.5-.381.751-.896.751-1.547 0-1.43-1.093-2.145-3.278-2.145h-.976V20.33h.932c1.939 0 2.909-.674 2.909-2.021 0-1.242-.756-1.863-2.268-1.863-.844 0-1.638.302-2.382.905V15.54c.855-.48 1.866-.721 3.032-.721 1.119 0 2.016.281 2.689.844s1.011 1.283 1.011 2.162c0 1.658-.844 2.725-2.531 3.199v.035c.908.088 1.626.406 2.153.954s.791 1.232.791 2.052c0 1.131-.425 2.043-1.274 2.738s-1.969 1.042-3.357 1.042c-1.248 0-2.244-.226-2.988-.677zM24.785 27.845c-1.312 0-2.336-.536-3.072-1.608-.734-1.072-1.103-2.622-1.103-4.649 0-2.227.384-3.911 1.151-5.054s1.875-1.714 3.322-1.714c2.771 0 4.157 2.153 4.157 6.46 0 2.133-.392 3.76-1.173 4.882-.782 1.122-1.876 1.683-3.282 1.683zm.202-11.4c-1.529 0-2.294 1.685-2.294 5.054 0 3.152.75 4.729 2.25 4.729 1.477 0 2.215-1.603 2.215-4.808 0-3.316-.723-4.975-2.171-4.975z" fill="#36404d"></path></svg>