<svg viewBox="0 0 40 40" xmlns="http://www.w3.org/2000/svg"><path fill="#fff" d="M2.5 2.5h35v35h-35z"></path><path d="M37 3v34H3V3h34m1-1H2v36h36V2z" fill="#788b9c"></path><path fill="#f78f8f" d="M2.5 2.5h35v5h-35z"></path><path d="M37 3v4H3V3h34m1-1H2v6h36V2z" fill="#c74343"></path><path fill="#e1ebf2" d="M3 34h34v3H3z"></path><path d="M24.135 16.05c-.527.967-1.025 1.923-1.494 2.87s-.894 1.897-1.274 2.852-.712 1.917-.993 2.887-.498 1.961-.65 2.975h-2.136c.141-.902.341-1.803.602-2.703s.567-1.799.918-2.698.746-1.803 1.182-2.711.901-1.825 1.393-2.751h-5.968v-1.74h8.42v1.019z" fill="#36404d"></path></svg>