<svg viewBox="0 0 40 40" xmlns="http://www.w3.org/2000/svg"><path d="M2.5 37.5v-35h35V35c0 1.378-1.121 2.5-2.5 2.5H2.5z" fill="#fff"></path><path d="M37 3v32c0 1.103-.897 2-2 2H3V3h34m1-1H2v36h33a3 3 0 003-3V2z" fill="#788b9c"></path><path fill="#f78f8f" d="M2.5 2.5h35v5h-35z"></path><path d="M37 3v4H3V3h34m1-1H2v6h36V2z" fill="#c74343"></path><path fill="#c5d4de" d="M13 14h2v2h-2zM21 14h2v2h-2zM25 14h2v2h-2zM29 14h2v2h-2zM9 18h2v2H9zM13 18h2v2h-2zM21 18h2v2h-2zM25 18h2v2h-2zM29 18h2v2h-2zM9 26h2v2H9zM13 26h2v2h-2zM21 26h2v2h-2zM17 14h2v2h-2zM17 18h2v2h-2zM9 22h2v2H9zM13 22h2v2h-2zM21 22h2v2h-2zM25 22h2v2h-2zM29 22h2v2h-2zM17 22h2v2h-2zM17 26h2v2h-2zM25 26h2v2h-2z"></path><path fill="#e1ebf2" d="M3 34h34v3H3z"></path><path d="M31 39.5c-4.687 0-8.5-3.813-8.5-8.5s3.813-8.5 8.5-8.5 8.5 3.813 8.5 8.5-3.813 8.5-8.5 8.5z" fill="#f78f8f"></path><path d="M31 23c4.411 0 8 3.589 8 8s-3.589 8-8 8-8-3.589-8-8 3.589-8 8-8m0-1c-4.971 0-9 4.029-9 9s4.029 9 9 9 9-4.029 9-9-4.029-9-9-9z" fill="#c74343"></path><path fill="none" stroke="#fff" stroke-width="2" stroke-miterlimit="10" d="M27.5 34.5l7-7M27.5 27.5l7 7"></path></svg>