<svg viewBox="0 0 40 40" xmlns="http://www.w3.org/2000/svg"><path fill="#fff" d="M2.5 2.5h35v35h-35z"></path><path d="M37 3v34H3V3h34m1-1H2v36h36V2z" fill="#788b9c"></path><path fill="#f78f8f" d="M2.5 2.5h35v5h-35z"></path><path d="M37 3v4H3V3h34m1-1H2v6h36V2z" fill="#c74343"></path><path fill="#e1ebf2" d="M3 34h34v3H3z"></path><path d="M23.699 27.634h-7.91v-.976c0-.398.057-.772.168-1.121s.26-.677.447-.984.408-.598.66-.87.521-.536.809-.791.58-.501.879-.738.592-.476.879-.716c.27-.229.516-.453.738-.672s.412-.447.57-.681.281-.482.369-.743.133-.543.133-.848c0-.334-.052-.625-.154-.875s-.246-.457-.431-.624-.403-.293-.655-.378-.527-.127-.826-.127c-.516 0-1.039.12-1.572.36s-1.047.601-1.539 1.081v-1.96c.258-.193.52-.362.783-.505s.535-.264.816-.36.578-.168.889-.215.641-.07.992-.07c.568 0 1.084.075 1.547.224s.859.369 1.188.659.581.652.76 1.085.268.932.268 1.494c0 .51-.062.968-.188 1.375s-.305.787-.536 1.138-.512.686-.84 1.002-.693.642-1.098.976c-.34.275-.679.543-1.016.804s-.641.516-.91.765-.487.498-.654.747-.25.5-.25.751v.044h5.686v1.749z" fill="#36404d"></path></svg>