<svg viewBox="0 0 40 40" xmlns="http://www.w3.org/2000/svg"><path fill="#fff" d="M2.5 2.5h35v35h-35z"></path><path d="M37 3v34H3V3h34m1-1H2v36h36V2z" fill="#788b9c"></path><path fill="#f78f8f" d="M2.5 2.5h35v5h-35z"></path><path d="M37 3v4H3V3h34m1-1H2v6h36V2z" fill="#c74343"></path><path fill="#e1ebf2" d="M3 34h34v3H3z"></path><path d="M18.703 27.634h-7.91v-.976c0-.398.056-.772.167-1.121s.261-.677.448-.984.407-.598.659-.87.521-.536.809-.791.58-.501.879-.738.592-.476.879-.716c.27-.229.516-.453.738-.672s.413-.447.571-.681.281-.482.369-.743.132-.543.132-.848c0-.334-.051-.625-.154-.875s-.246-.457-.431-.624-.403-.293-.655-.378-.527-.127-.826-.127c-.516 0-1.04.12-1.573.36s-1.046.601-1.538 1.081v-1.96c.258-.193.519-.362.782-.505s.536-.264.817-.36.577-.168.888-.215.642-.07.993-.07c.568 0 1.084.075 1.547.224s.858.369 1.187.659.582.652.76 1.085.268.932.268 1.494c0 .51-.063.968-.189 1.375s-.305.787-.536 1.138-.511.686-.839 1.002-.694.642-1.099.976c-.34.275-.678.543-1.015.804s-.64.516-.91.765-.488.498-.655.747-.25.5-.25.751v.044h5.687v1.749zM21.287 27.344v-1.96c.826.557 1.664.835 2.514.835.855 0 1.544-.218 2.065-.655s.782-1.018.782-1.745c0-.715-.265-1.271-.795-1.67s-1.291-.598-2.281-.598c-.34 0-1.028.035-2.065.105l.448-6.627h6.205v1.74h-4.509l-.211 3.155c.404-.023.771-.035 1.099-.035 1.336 0 2.369.343 3.098 1.028s1.094 1.623 1.094 2.812c0 1.248-.417 2.249-1.252 3.001s-1.982 1.129-3.441 1.129c-1.23.003-2.147-.17-2.751-.515z" fill="#36404d"></path></svg>