<svg viewBox="0 0 40 40" xmlns="http://www.w3.org/2000/svg"><path fill="#fff" d="M2.5 2.5h35v35h-35z"></path><path d="M37 3v34H3V3h34m1-1H2v36h36V2z" fill="#788b9c"></path><path fill="#f78f8f" d="M2.5 2.5h35v5h-35z"></path><path d="M37 3v4H3V3h34m1-1H2v6h36V2z" fill="#c74343"></path><path fill="#e1ebf2" d="M3 34h34v3H3z"></path><path d="M24.104 20.646c0 1.26-.136 2.344-.409 3.252s-.647 1.655-1.125 2.241-1.037 1.018-1.679 1.296-1.332.417-2.07.417c-.24 0-.482-.015-.725-.044a7.615 7.615 0 01-1.292-.268 3.988 3.988 0 01-.444-.163V25.54c.123.076.275.154.457.233s.379.149.593.211.437.111.668.149.456.057.672.057c.498 0 .951-.097 1.358-.29s.754-.48 1.042-.861.508-.854.664-1.419.233-1.22.233-1.964h-.035c-.105.188-.245.365-.417.532s-.371.313-.593.439-.47.227-.743.303-.564.114-.875.114c-.527 0-1.018-.092-1.472-.277s-.848-.447-1.182-.787-.596-.753-.787-1.239-.286-1.028-.286-1.626c0-.656.108-1.25.325-1.78s.516-.981.896-1.354.829-.659 1.345-.861 1.075-.303 1.679-.303c.568 0 1.106.107 1.613.321s.952.554 1.336 1.02.688 1.068.914 1.806.339 1.634.339 2.682zm-2.127-1.344c0-.422-.054-.806-.163-1.151s-.259-.642-.453-.888-.423-.437-.69-.571-.558-.202-.875-.202a1.977 1.977 0 00-1.472.659c-.19.211-.341.466-.453.765s-.167.63-.167.993c0 .398.054.75.163 1.055s.259.561.453.769.426.366.699.475.573.163.901.163c.293 0 .564-.054.813-.163s.466-.255.65-.439.33-.403.435-.655.159-.523.159-.81z" fill="#36404d"></path></svg>