<svg viewBox="0 0 40 40" xmlns="http://www.w3.org/2000/svg"><path fill="#fff" d="M2.5 2.5h35v35h-35z"></path><path d="M37 3v34H3V3h34m1-1H2v36h36V2z" fill="#788b9c"></path><path fill="#f78f8f" d="M2.5 2.5h35v5h-35z"></path><path d="M37 3v4H3V3h34m1-1H2v6h36V2z" fill="#c74343"></path><path fill="#e1ebf2" d="M3 34h34v3H3z"></path><path d="M18.703 27.634h-7.91v-.976c0-.398.056-.772.167-1.121s.261-.677.448-.984.407-.598.659-.87.521-.536.809-.791.58-.501.879-.738.592-.476.879-.716c.27-.229.516-.453.738-.672s.413-.447.571-.681.281-.482.369-.743.132-.543.132-.848c0-.334-.052-.625-.153-.875a1.704 1.704 0 00-.432-.624c-.184-.167-.402-.293-.654-.378s-.527-.127-.826-.127c-.516 0-1.04.12-1.573.36s-1.046.601-1.538 1.081v-1.96c.258-.193.519-.362.782-.505s.536-.264.817-.36.577-.168.888-.215.642-.07.993-.07c.568 0 1.084.075 1.547.224s.858.369 1.187.659.581.652.761 1.085c.178.434.268.932.268 1.494 0 .51-.062.968-.189 1.375a4.457 4.457 0 01-.535 1.138c-.232.352-.512.686-.84 1.002s-.694.642-1.099.976c-.34.275-.679.543-1.015.804-.338.261-.641.516-.91.765s-.488.498-.654.747c-.168.249-.251.5-.251.751v.044h5.687v1.749zM21.006 27.168v-1.916c.82.65 1.746.976 2.777.976.838 0 1.508-.19 2.008-.571.502-.381.752-.896.752-1.547 0-1.43-1.093-2.145-3.278-2.145h-.976V20.33h.932c1.939 0 2.909-.674 2.909-2.021 0-1.242-.756-1.863-2.268-1.863-.844 0-1.638.302-2.382.905V15.54c.855-.48 1.866-.721 3.032-.721 1.119 0 2.016.281 2.689.844s1.011 1.283 1.011 2.162c0 1.658-.844 2.725-2.531 3.199v.035c.908.088 1.626.406 2.153.954s.791 1.232.791 2.052c0 1.131-.425 2.043-1.274 2.738s-1.969 1.042-3.357 1.042c-1.248 0-2.244-.226-2.988-.677z" fill="#36404d"></path></svg>