<svg viewBox="0 0 40 40" xmlns="http://www.w3.org/2000/svg"><path fill="#fff" d="M2.5 2.5h35v35h-35z"></path><path d="M37 3v34H3V3h34m1-1H2v36h36V2z" fill="#788b9c"></path><path fill="#f78f8f" d="M2.5 2.5h35v5h-35z"></path><path d="M37 3v4H3V3h34m1-1H2v6h36V2z" fill="#c74343"></path><path fill="#e1ebf2" d="M3 34h34v3H3z"></path><path d="M15.728 24.118c0-.363.045-.715.136-1.055s.227-.653.409-.94.41-.545.686-.773.598-.413.967-.554c-.545-.305-.979-.696-1.301-1.173s-.483-1.006-.483-1.586c0-.463.095-.891.286-1.283s.454-.732.791-1.02.734-.511 1.191-.672.955-.242 1.494-.242c.545 0 1.047.082 1.507.246s.858.39 1.195.677.599.627.787 1.02.281.817.281 1.274c0 .58-.161 1.109-.483 1.586s-.75.869-1.283 1.173c.363.141.684.324.962.549s.511.482.699.769.328.601.422.94.141.694.141 1.063c0 .551-.103 1.055-.308 1.512s-.492.848-.861 1.173-.812.579-1.327.76-1.084.272-1.705.272c-.615 0-1.179-.091-1.692-.272s-.955-.435-1.327-.76-.662-.716-.87-1.173-.314-.96-.314-1.511zm1.986-.176c0 .357.053.68.158.967s.255.53.448.729.426.352.699.457.576.158.91.158c.322 0 .618-.054.888-.163s.502-.264.699-.466.35-.445.461-.729.167-.602.167-.954c0-.322-.053-.625-.158-.91s-.255-.532-.448-.743-.426-.378-.699-.501-.576-.185-.91-.185c-.316 0-.611.057-.883.171s-.507.275-.703.483-.35.456-.461.743-.168.604-.168.943zm.431-5.695a1.92 1.92 0 00.519 1.323 1.7 1.7 0 001.248.532c.246 0 .476-.048.69-.145s.401-.229.562-.396.289-.363.382-.589.141-.467.141-.725c0-.264-.045-.51-.136-.738s-.215-.425-.374-.589a1.742 1.742 0 00-1.265-.528c-.264 0-.504.048-.721.145s-.403.23-.558.4-.275.368-.36.593-.128.465-.128.717z" fill="#36404d"></path></svg>