<svg viewBox="0 0 40 40" xmlns="http://www.w3.org/2000/svg"><path fill="#fff" d="M2.5 2.5h35v35h-35z"></path><path d="M37 3v34H3V3h34m1-1H2v36h36V2z" fill="#788b9c"></path><path fill="#f78f8f" d="M2.5 2.5h35v5h-35z"></path><path d="M37 3v4H3V3h34m1-1H2v6h36V2z" fill="#c74343"></path><path fill="#e1ebf2" d="M3 34h34v3H3z"></path><path d="M16.713 14.749v12.885h-2.039V17.245c-.369.264-.767.488-1.191.672s-.91.347-1.455.488v-1.74c.34-.111.668-.229.984-.352s.629-.261.937-.413.618-.322.932-.51.638-.401.972-.642h.86zM19.631 27.168v-1.916c.82.65 1.746.976 2.777.976.838 0 1.507-.19 2.008-.571s.752-.896.752-1.547c0-1.43-1.094-2.145-3.279-2.145h-.975V20.33h.932c1.939 0 2.908-.674 2.908-2.021 0-1.242-.756-1.863-2.268-1.863-.844 0-1.637.302-2.381.905V15.54c.855-.48 1.865-.721 3.031-.721 1.119 0 2.016.281 2.689.844s1.012 1.283 1.012 2.162c0 1.658-.844 2.725-2.531 3.199v.035c.908.088 1.625.406 2.152.954s.791 1.232.791 2.052c0 1.131-.424 2.043-1.273 2.738s-1.969 1.042-3.357 1.042c-1.248 0-2.244-.226-2.988-.677z" fill="#36404d"></path></svg>