<svg viewBox="0 0 40 40" xmlns="http://www.w3.org/2000/svg"><path fill="#fff" d="M2.5 2.5h35v35h-35z"></path><path d="M37 3v34H3V3h34m1-1H2v36h36V2z" fill="#788b9c"></path><path fill="#f78f8f" d="M2.5 2.5h35v5h-35z"></path><path d="M37 3v4H3V3h34m1-1H2v6h36V2z" fill="#c74343"></path><path fill="#e1ebf2" d="M3 34h34v3H3z"></path><path d="M18.677 27.634h-7.91v-.976c0-.398.056-.772.167-1.121s.261-.677.448-.984.407-.598.659-.87.521-.536.809-.791.58-.501.879-.738.592-.476.879-.716c.27-.229.516-.453.738-.672s.413-.447.571-.681.281-.482.369-.743.132-.543.132-.848c0-.334-.051-.625-.154-.875s-.246-.457-.431-.624-.403-.293-.655-.378-.527-.127-.826-.127c-.516 0-1.04.12-1.573.36s-1.046.601-1.538 1.081v-1.96c.258-.193.519-.362.782-.505s.536-.264.817-.36.577-.168.888-.215.642-.07.993-.07c.568 0 1.084.075 1.547.224s.858.369 1.187.659.582.652.76 1.085.268.932.268 1.494c0 .51-.063.968-.189 1.375s-.305.787-.536 1.138-.511.686-.839 1.002-.694.642-1.099.976c-.34.275-.678.543-1.015.804s-.64.516-.91.765-.488.498-.655.747-.25.5-.25.751v.044h5.687v1.749zM29.259 23.582c0 .633-.104 1.21-.312 1.731s-.497.971-.866 1.349-.807.671-1.314.879-1.056.312-1.648.312c-.633 0-1.214-.123-1.745-.369s-.987-.612-1.371-1.099-.681-1.091-.892-1.815-.316-1.563-.316-2.518c0-1.166.139-2.2.417-3.103s.661-1.658 1.147-2.268 1.058-1.072 1.714-1.389 1.365-.475 2.127-.475c.475 0 .907.032 1.296.097s.702.152.936.264v1.837c-.299-.152-.618-.281-.958-.387s-.729-.158-1.169-.158c-.492 0-.946.1-1.362.299s-.775.491-1.077.875-.539.858-.712 1.424-.262 1.217-.268 1.956h.053c.27-.416.634-.744 1.094-.984s1-.36 1.622-.36c.551 0 1.047.089 1.49.268s.82.437 1.134.773.555.747.725 1.23.255 1.028.255 1.631zm-2.057.167c0-.363-.042-.694-.127-.993s-.214-.555-.387-.769-.39-.379-.65-.497-.567-.176-.918-.176-.661.063-.927.189-.492.292-.673.497-.318.439-.409.703-.136.533-.136.809c0 .299.042.605.127.918s.215.599.391.857.4.47.672.637.596.25.971.25c.334 0 .63-.062.888-.185s.473-.293.646-.51.305-.473.396-.769.136-.615.136-.961z" fill="#36404d"></path></svg>