<svg viewBox="0 0 40 40" xmlns="http://www.w3.org/2000/svg"><path fill="#fff" d="M2.5 2.5h35v35h-35z"></path><path d="M37 3v34H3V3h34m1-1H2v36h36V2z" fill="#788b9c"></path><path fill="#f78f8f" d="M2.5 2.5h35v5h-35z"></path><path d="M37 3v4H3V3h34m1-1H2v6h36V2z" fill="#c74343"></path><path fill="#e1ebf2" d="M3 34h34v3H3z"></path><path d="M18.703 27.634h-7.91v-.976c0-.398.056-.772.167-1.121s.261-.677.448-.984.407-.598.659-.87.521-.536.809-.791.58-.501.879-.738.592-.476.879-.716c.27-.229.516-.453.738-.672s.413-.447.571-.681.281-.482.369-.743.132-.543.132-.848c0-.334-.052-.625-.153-.875a1.704 1.704 0 00-.432-.624c-.184-.167-.402-.293-.654-.378s-.527-.127-.826-.127c-.516 0-1.04.12-1.573.36s-1.046.601-1.538 1.081v-1.96c.258-.193.519-.362.782-.505s.536-.264.817-.36.577-.168.888-.215.642-.07.993-.07c.568 0 1.084.075 1.547.224s.858.369 1.187.659.581.652.761 1.085c.178.434.268.932.268 1.494 0 .51-.062.968-.189 1.375a4.457 4.457 0 01-.535 1.138c-.232.352-.512.686-.84 1.002s-.694.642-1.099.976c-.34.275-.679.543-1.015.804-.338.261-.641.516-.91.765s-.488.498-.654.747c-.168.249-.251.5-.251.751v.044h5.687v1.749zM28.696 27.634h-7.91v-.976c0-.398.056-.772.167-1.121s.261-.677.448-.984.407-.598.659-.87.521-.536.809-.791.58-.501.879-.738.592-.476.879-.716c.27-.229.516-.453.738-.672s.413-.447.571-.681.281-.482.369-.743.132-.543.132-.848c0-.334-.051-.625-.154-.875a1.7 1.7 0 00-.43-.624c-.186-.167-.403-.293-.655-.378s-.527-.127-.826-.127c-.516 0-1.04.12-1.573.36s-1.046.601-1.538 1.081v-1.96c.258-.193.519-.362.782-.505s.536-.264.817-.36.577-.168.888-.215.642-.07.993-.07c.568 0 1.084.075 1.547.224s.858.369 1.187.659.582.652.76 1.085c.18.434.269.932.269 1.494 0 .51-.063.968-.188 1.375a4.463 4.463 0 01-.537 1.138c-.23.352-.511.686-.839 1.002s-.694.642-1.099.976c-.34.275-.678.543-1.016.804-.336.261-.64.516-.909.765s-.487.498-.655.747c-.166.249-.25.5-.25.751v.044h5.687v1.749z" fill="#36404d"></path></svg>