<svg viewBox="0 0 40 40" xmlns="http://www.w3.org/2000/svg"><path fill="#fff" d="M2.5 2.5h35v35h-35z"></path><path d="M37 3v34H3V3h34m1-1H2v36h36V2z" fill="#788b9c"></path><path fill="#f78f8f" d="M2.5 2.5h35v5h-35z"></path><path d="M37 3v4H3V3h34m1-1H2v6h36V2z" fill="#c74343"></path><path fill="#e1ebf2" d="M3 34h34v3H3z"></path><path d="M16.291 27.344v-1.96c.826.557 1.664.835 2.514.835.855 0 1.544-.218 2.065-.655s.782-1.018.782-1.745c0-.715-.265-1.271-.795-1.67s-1.291-.598-2.281-.598c-.34 0-1.028.035-2.065.105l.448-6.627h6.205v1.74h-4.509l-.211 3.155c.404-.023.771-.035 1.099-.035 1.336 0 2.369.343 3.098 1.028s1.094 1.623 1.094 2.812c0 1.248-.417 2.249-1.252 3.001s-1.982 1.129-3.441 1.129c-1.231.003-2.148-.17-2.751-.515z" fill="#36404d"></path></svg>