<svg viewBox="0 0 40 40" xmlns="http://www.w3.org/2000/svg"><path fill="#fff" d="M2.5 2.5h35v35h-35z"></path><path d="M37 3v34H3V3h34m1-1H2v36h36V2z" fill="#788b9c"></path><path fill="#f78f8f" d="M2.5 2.5h35v5h-35z"></path><path d="M37 3v4H3V3h34m1-1H2v6h36V2z" fill="#c74343"></path><path fill="#e1ebf2" d="M3 34h34v3H3z"></path><path d="M16.523 14.749v12.885h-2.039V17.245a6.432 6.432 0 01-1.191.672 9.766 9.766 0 01-1.454.488v-1.74c.34-.111.668-.229.984-.352a11.91 11.91 0 001.869-.923c.312-.188.637-.401.971-.642h.86zM26.499 15.03v8.139h1.872v1.696h-1.872v2.769h-1.978v-2.769h-5.704v-1.714a48.369 48.369 0 001.587-1.885 46.29 46.29 0 001.564-2.074c.5-.706.965-1.414 1.393-2.123s.788-1.389 1.081-2.039h2.057zm-1.978 8.139v-5.291a29.197 29.197 0 01-1.895 3.006 53.103 53.103 0 01-1.753 2.285h3.648z" fill="#36404d"></path></svg>