<svg viewBox="0 0 40 40" xmlns="http://www.w3.org/2000/svg"><path fill="#fff" d="M2.5 2.5h35v35h-35z"></path><path d="M37 3v34H3V3h34m1-1H2v36h36V2z" fill="#788b9c"></path><path fill="#f78f8f" d="M2.5 2.5h35v5h-35z"></path><path d="M37 3v4H3V3h34m1-1H2v6h36V2z" fill="#c74343"></path><path fill="#e1ebf2" d="M3 34h34v3H3z"></path><path d="M18.677 27.634h-7.91v-.976c0-.398.056-.772.167-1.121s.261-.677.448-.984.407-.598.659-.87.521-.536.809-.791.58-.501.879-.738.592-.476.879-.716c.27-.229.516-.453.738-.672s.413-.447.571-.681.281-.482.369-.743.132-.543.132-.848c0-.334-.051-.625-.154-.875a1.7 1.7 0 00-.43-.624c-.186-.167-.403-.293-.655-.378s-.527-.127-.826-.127c-.516 0-1.04.12-1.573.36s-1.046.601-1.538 1.081v-1.96c.258-.193.519-.362.782-.505s.536-.264.817-.36.577-.168.888-.215.642-.07.993-.07c.568 0 1.084.075 1.547.224s.858.369 1.187.659.582.652.76 1.085c.18.434.269.932.269 1.494 0 .51-.063.968-.188 1.375a4.463 4.463 0 01-.537 1.138c-.23.352-.511.686-.839 1.002s-.694.642-1.099.976c-.34.275-.678.543-1.016.804-.336.261-.64.516-.909.765s-.487.498-.655.747c-.166.249-.25.5-.25.751v.044h5.687v1.749zM29.101 20.646c0 1.26-.136 2.344-.409 3.252-.271.908-.646 1.655-1.125 2.241a4.419 4.419 0 01-1.678 1.296 5.156 5.156 0 01-2.07.417c-.24 0-.482-.015-.725-.044a7.638 7.638 0 01-1.293-.268 4.039 4.039 0 01-.443-.163V25.54c.123.076.275.154.457.233s.379.149.594.211c.213.062.436.111.668.149.23.038.455.057.672.057.498 0 .951-.097 1.357-.29.408-.193.755-.48 1.042-.861s.509-.854.663-1.419c.156-.565.233-1.22.233-1.964h-.035a2.33 2.33 0 01-.417.532c-.174.167-.371.313-.594.439s-.471.227-.742.303a3.246 3.246 0 01-.875.114 3.873 3.873 0 01-1.473-.277c-.453-.185-.848-.447-1.182-.787s-.596-.753-.787-1.239a4.453 4.453 0 01-.285-1.626c0-.656.108-1.25.325-1.78s.516-.981.896-1.354.829-.659 1.345-.861 1.075-.303 1.679-.303c.568 0 1.106.107 1.612.321a3.46 3.46 0 011.336 1.02c.385.466.689 1.068.914 1.806.227.74.34 1.634.34 2.682zm-2.127-1.344a3.81 3.81 0 00-.163-1.151c-.107-.346-.259-.642-.452-.888s-.423-.437-.69-.571a1.905 1.905 0 00-.874-.202 1.958 1.958 0 00-1.472.659c-.191.211-.342.466-.453.765s-.167.63-.167.993c0 .398.054.75.163 1.055.107.305.259.561.452.769s.427.366.698.475c.273.108.573.163.901.163.293 0 .563-.054.813-.163.248-.108.465-.255.65-.439a2.071 2.071 0 00.594-1.465z" fill="#36404d"></path></svg>