<svg viewBox="0 0 40 40" xmlns="http://www.w3.org/2000/svg"><path d="M21.5 38.5v-31H2.551a2.063 2.063 0 011.352-1.554L21.064 1.5H33.55c.232 1.14 1.242 2 2.45 2h1.45a2.504 2.504 0 01-2.45 2h-3.5v33h-10z" fill="#c2e8ff"></path><path d="M33.171 2A3.006 3.006 0 0036 4h.732c-.347.597-.993 1-1.732 1h-4v33h-9V7H3.293c.176-.255.428-.451.74-.569L21.127 2h12.044M34 1H21L3.736 5.475C2.647 5.859 2 6.847 2 8h19v31h11V6h3c1.65 0 3-1.35 3-3h-2c-1.1 0-2-.9-2-2z" fill="#7496c4"></path><path d="M23.664 24C20.732 24 17 26.4 17 29.333 17 30.8 18.2 32 19.666 32h2.666c1.466 0 2.666-1.2 2.666-2.667v-2.667C24.997 25.2 25.13 24 23.664 24z" fill="#36404d"></path><path fill="#e1ebf2" d="M24.5 1.5h4v37h-4z"></path><path d="M28 2v36h-3V2h3m1-1h-5v38h5V1z" fill="#788b9c"></path><g><path d="M28.5 31.5v-18h1v-4H35c1.208 0 2.217.86 2.45 2H35a2.503 2.503 0 00-2.5 2.5v17.5h-4z" fill="#8bb7f0"></path><path d="M35 10c.739 0 1.385.403 1.732 1H35c-1.654 0-3 1.346-3 3v17h-3V14h1v-4h5m0-1h-6v4h-1v19h5V14c0-1.1.9-2 2-2h3c0-1.65-1.35-3-3-3z" fill="#4e7ab5"></path></g><g><path d="M20.5 31.5V18.596L3.84 15.037c-.647-.195-1.137-.787-1.29-1.537H24.5v18h-4z" fill="#8bb7f0"></path><path d="M24 14v17h-3V18.191l-.791-.169-16.22-3.465A1.349 1.349 0 013.277 14H24m1-1H2c0 1.153.647 2.2 1.736 2.525L20 19v13h5V13z" fill="#4e7ab5"></path></g></svg>