<svg viewBox="0 0 40 40" xmlns="http://www.w3.org/2000/svg"><path d="M29.334 38.5c-.351 0-.697-.062-1.028-.185-3.526-1.306-10.331-4.386-16.283-10.338S2.991 15.22 1.685 11.694a3 3 0 01.703-3.154L7.06 3.868c.236-.238.552-.368.887-.368s.65.13.887.368l6.204 6.204c.237.237.368.552.368.887s-.13.65-.368.887l-3.958 3.958.127.308c.073.176 1.813 4.349 5.072 7.608s7.432 5 7.608 5.072l.308.127 3.958-3.958c.237-.237.552-.368.887-.368s.65.13.887.368l6.204 6.204c.237.237.368.552.368.887s-.13.65-.368.887l-4.672 4.672a2.98 2.98 0 01-2.125.889z" fill="#bae0bd"></path><path d="M7.947 4c.202 0 .391.079.534.221l6.204 6.204a.753.753 0 010 1.068l-3.723 3.723-.471.471.254.616c.074.18 1.852 4.442 5.181 7.771 3.329 3.329 7.592 5.107 7.771 5.181l.616.254.471-.471 3.723-3.723a.753.753 0 011.068 0l6.204 6.204a.755.755 0 010 1.068l-4.672 4.672a2.495 2.495 0 01-1.773.741c-.292 0-.579-.052-.855-.154-3.488-1.292-10.219-4.339-16.103-10.223-5.884-5.884-8.93-12.614-10.222-16.103a2.5 2.5 0 01.588-2.627l4.672-4.672A.749.749 0 017.947 4m0-1c-.449 0-.898.171-1.241.514L2.034 8.186a3.486 3.486 0 00-.818 3.682c1.273 3.436 4.389 10.398 10.453 16.463 6.065 6.065 13.027 9.18 16.463 10.453.393.146.799.216 1.202.216.914 0 1.808-.362 2.48-1.034l4.672-4.672a1.756 1.756 0 000-2.482l-6.204-6.204c-.343-.343-.792-.514-1.241-.514s-.898.171-1.241.514l-3.723 3.723s-4.219-1.737-7.445-4.963-4.963-7.445-4.963-7.445l3.723-3.723a1.756 1.756 0 000-2.482L9.188 3.514A1.749 1.749 0 007.947 3z" fill="#5e9c76"></path><g><path d="M30.5 18.5v-3H32c1.93 0 3.5-1.57 3.5-3.5S33.93 8.5 32 8.5h-5.5v3.413L20.768 7 26.5 2.087V5.5H32c3.584 0 6.5 2.916 6.5 6.5s-2.916 6.5-6.5 6.5h-1.5z" fill="#8bb7f0"></path><path d="M26 3.174V6h6c3.308 0 6 2.692 6 6s-2.692 6-6 6h-1v-2h1c2.206 0 4-1.794 4-4s-1.794-4-4-4h-6v2.826L21.537 7 26 3.174M27 1l-7 6 7 6V9h5a3 3 0 110 6h-2v4h2a7 7 0 100-14h-5V1z" fill="#4e7ab5"></path></g></svg>