<svg viewBox="0 0 40 40" xmlns="http://www.w3.org/2000/svg"><path d="M32.635 37.5a3.476 3.476 0 01-3.273-2.259C28.292 32.435 26.5 26.725 26.5 20s1.792-12.435 2.86-15.241A3.48 3.48 0 0132.635 2.5H37c.827 0 1.5.673 1.5 1.5v7c0 .827-.673 1.5-1.5 1.5h-6.354l-.118.333c-.046.13-1.128 3.227-1.128 7.167s1.082 7.037 1.128 7.167l.118.333H37c.827 0 1.5.673 1.5 1.5v7c0 .827-.673 1.5-1.5 1.5h-4.365z" fill="#bae0bd"></path><path d="M37 3c.551 0 1 .449 1 1v7c0 .551-.449 1-1 1H30.294l-.236.666C30.01 12.799 28.9 15.974 28.9 20s1.11 7.201 1.158 7.334l.236.666H37c.551 0 1 .449 1 1v7c0 .551-.449 1-1 1h-4.365a2.983 2.983 0 01-2.807-1.937C28.772 32.29 27 26.646 27 20c0-6.646 1.772-12.29 2.828-15.063A2.982 2.982 0 0132.635 3H37m0-1h-4.365a4 4 0 00-3.741 2.581C27.71 7.689 26 13.332 26 20s1.71 12.311 2.893 15.419A4.001 4.001 0 0032.635 38H37a2 2 0 002-2v-7a2 2 0 00-2-2h-6s-1.1-3.1-1.1-7 1.1-7 1.1-7h6a2 2 0 002-2V4a2 2 0 00-2-2z" fill="#5e9c76"></path><path d="M7.635 37.5a3.476 3.476 0 01-3.273-2.259C3.292 32.435 1.5 26.725 1.5 20S3.292 7.565 4.36 4.759A3.48 3.48 0 017.635 2.5H12c.827 0 1.5.673 1.5 1.5v7c0 .827-.673 1.5-1.5 1.5H5.646l-.118.333C5.482 12.963 4.4 16.06 4.4 20s1.082 7.037 1.128 7.167l.118.333H12c.827 0 1.5.673 1.5 1.5v7c0 .827-.673 1.5-1.5 1.5H7.635z" fill="#bae0bd"></path><path d="M12 3c.551 0 1 .449 1 1v7c0 .551-.449 1-1 1H5.294l-.236.666C5.01 12.799 3.9 15.974 3.9 20s1.11 7.201 1.158 7.334l.236.666H12c.551 0 1 .449 1 1v7c0 .551-.449 1-1 1H7.635a2.983 2.983 0 01-2.807-1.937C3.772 32.29 2 26.646 2 20 2 13.354 3.772 7.71 4.828 4.937A2.982 2.982 0 017.635 3H12m0-1H7.635a4.001 4.001 0 00-3.742 2.581C2.71 7.689 1 13.332 1 20s1.71 12.311 2.893 15.419A4.001 4.001 0 007.635 38H12a2 2 0 002-2v-7a2 2 0 00-2-2H6s-1.1-3.1-1.1-7S6 13 6 13h6a2 2 0 002-2V4a2 2 0 00-2-2z" fill="#5e9c76"></path><g><path fill="#8bb7f0" d="M18.5 21.5h-7v-3h7v-3.293L23.293 20 18.5 24.793z"></path><path d="M19 16.414L22.586 20 19 23.586V21h-7v-2h7V16.414M18 14v4h-7v4h7v4l6-6-6-6z" fill="#4e7ab5"></path></g></svg>