<svg viewBox="0 0 40 40" xmlns="http://www.w3.org/2000/svg"><rect x="2.5" y="2.5" width="35" height="35" rx="2.27" ry="2.27" fill="#bae0bd"/><path d="M35.23 3A1.77 1.77 0 0137 4.77v30.46A1.77 1.77 0 0135.23 37H4.77A1.77 1.77 0 013 35.23V4.77A1.77 1.77 0 014.77 3h30.46m0-1H4.77A2.77 2.77 0 002 4.77v30.46A2.77 2.77 0 004.77 38h30.46A2.77 2.77 0 0038 35.23V4.77A2.77 2.77 0 0035.23 2z" fill="#5e9c76"></path><path d="M14.55 25.63h-2.22l-3-3.71v3.71H7.54V14.19H9.3v7.25l2.84-3.54h2.1l-3.19 3.73zM20.91 25.27a4.32 4.32 0 01-2.2.54 3.72 3.72 0 01-2.78-1.07 3.81 3.81 0 01-1.06-2.79A4.19 4.19 0 0116 18.88a4.06 4.06 0 013-1.16 4.43 4.43 0 011.86.37v1.63a2.82 2.82 0 00-1.72-.6 2.39 2.39 0 00-1.82.75 2.74 2.74 0 00-.71 2 2.62 2.62 0 00.67 1.89 2.37 2.37 0 001.79.69 2.8 2.8 0 001.78-.67zM28.57 25.63h-1.7v-1.21a2.56 2.56 0 01-2.35 1.39 2.47 2.47 0 01-1.78-.62 2.16 2.16 0 01-.64-1.64q0-2.19 2.52-2.55l2.29-.32q0-1.65-1.57-1.65a3.73 3.73 0 00-2.49 1v-1.58a5.43 5.43 0 012.82-.72q2.93 0 2.93 2.88zm-1.69-3.79l-1.62.23a2.57 2.57 0 00-1.14.37 1.07 1.07 0 00-.38.94 1 1 0 00.35.8 1.36 1.36 0 00.94.31 1.73 1.73 0 001.32-.56 2 2 0 00.52-1.41zM32.46 25.63H30.7V14.19h1.76z" fill="#47825e"></path></svg>