<svg viewBox="0 0 40 40" xmlns="http://www.w3.org/2000/svg"><path fill="none" stroke="#66798f" stroke-width="2" stroke-miterlimit="10" d="M8 14l4-7h21M22 7v7"></path><path fill="#839cb2" d="M37.207 31.5l-5-5H28.5v-7h3.707l5-5H39.5v17z"></path><path d="M39 15v16h-1.586l-4.707-4.707-.293-.293H29v-6h3.414l.293-.293L37.414 15H39m1-1h-3l-5 5h-4v8h4l5 5h3V14z" fill="#66798f"></path><path d="M2 33.5c-.827 0-1.5-.673-1.5-1.5V14c0-.827.673-1.5 1.5-1.5h25c.827 0 1.5.673 1.5 1.5v18c0 .827-.673 1.5-1.5 1.5H2z" fill="#b0c1d4"></path><path d="M27 13c.551 0 1 .449 1 1v18c0 .551-.449 1-1 1H2c-.551 0-1-.449-1-1V14c0-.551.449-1 1-1h25m0-1H2c-1.1 0-2 .9-2 2v18c0 1.1.9 2 2 2h25c1.1 0 2-.9 2-2V14c0-1.1-.9-2-2-2z" fill="#66798f"></path><path fill="#c5d4de" d="M4.5 16.5h15v13h-15z"></path><path d="M19 17v12H5V17h14m1-1H4v14h16V16z" fill="#66798f"></path><path fill="#c2e8ff" d="M6.667 19h10.667v8H6.667z"></path><path fill="#c2e8ff" d="M6.5 18.5h11v9h-11z"></path><path d="M17 19v8H7v-8h10m1-1H6v10h12V18z" fill="#7496c4"></path><circle cx="14" cy="21" r="1" fill="#fff"></circle><path fill="#6e9ee0" d="M17 27l-4-4-3 3v1z"></path><path fill="#77a9ed" d="M14 27l-5-5-2 2v3z"></path><path d="M36 9h-5V5h5a2 2 0 110 4z" fill="#36404d"></path></svg>