<svg viewBox="0 0 40 40" xmlns="http://www.w3.org/2000/svg"><path d="M9.5 34.5v-8.951l-.728.372a4.949 4.949 0 01-2.272.55c-2.757 0-5-2.243-5-5s2.243-5 5-5c.794 0 1.559.185 2.272.551l.728.373V9.5h7.924l-.373-.728A4.938 4.938 0 0116.5 6.5c0-2.757 2.243-5 5-5s5 2.243 5 5c0 .795-.186 1.56-.551 2.272l-.373.728H34.5v7.111a4.587 4.587 0 00-1-.111c-2.757 0-5 2.243-5 5s2.243 5 5 5a4.65 4.65 0 001-.111V34.5h-25z" fill="#bae0bd"></path><path d="M21.5 2C23.981 2 26 4.019 26 6.5c0 .714-.167 1.402-.495 2.044L24.76 10H34v6.025a4.924 4.924 0 00-.5-.025c-3.033 0-5.5 2.467-5.5 5.5s2.467 5.5 5.5 5.5c.167 0 .333-.008.5-.025V34H10v-9.268l-1.456.745a4.442 4.442 0 01-2.044.495c-2.481 0-4.5-2.019-4.5-4.5s2.019-4.5 4.5-4.5c.714 0 1.402.167 2.044.495l1.456.745V10h8.24l-.745-1.456A4.454 4.454 0 0117 6.5C17 4.019 19.019 2 21.5 2m0-1A5.5 5.5 0 0016 6.5c0 .901.221 1.749.605 2.5H9v7.577a5.474 5.474 0 00-2.5-.605A5.5 5.5 0 109 26.367V35h26v-9.276a4.445 4.445 0 01-1.5.276 4.5 4.5 0 010-9c.529 0 1.029.108 1.5.276V9h-8.605A5.474 5.474 0 0027 6.5 5.5 5.5 0 0021.5 1z" fill="#5e9c76"></path><path d="M23.836 39.5a1.26 1.26 0 01-.895-.371 1.269 1.269 0 010-1.789l6.901-6.58 1.519 1.419-6.639 6.957a1.246 1.246 0 01-.886.364z" fill="#b6c9d6"></path><path d="M29.846 31.449l.804.752-6.274 6.575a.764.764 0 01-1.081 0 .762.762 0 01-.017-1.065l6.568-6.262m-.006-1.375l-7.252 6.914a1.765 1.765 0 002.496 2.495l6.987-7.322-2.231-2.087z" fill="#788b9c"></path><g><path d="M33 35.571c-3.584 0-6.5-2.916-6.5-6.5s2.916-6.5 6.5-6.5 6.5 2.916 6.5 6.5-2.916 6.5-6.5 6.5z" fill="#d1edff"></path><path d="M33 23.071c3.308 0 6 2.692 6 6s-2.692 6-6 6-6-2.692-6-6 2.692-6 6-6m0-1a7 7 0 100 14 7 7 0 000-14z" fill="#788b9c"></path></g></svg>