<svg viewBox="0 0 40 40" xmlns="http://www.w3.org/2000/svg"><path d="M3.001 34.5A1.503 1.503 0 011.5 33V11c0-.827.673-1.5 1.5-1.5h7.777l2.5-4h13.445l2.499 4h7.777c.827 0 1.501.673 1.501 1.5v18.536a3.505 3.505 0 00-3 3.464c0 .521.119 1.033.346 1.5H3.001z" fill="#dcd5f2"></path><path d="M26.446 6l2.206 3.53.293.47h8.054c.265 0 .516.105.706.295.19.19.295.44.295.705v18.127A4.007 4.007 0 0035 33c0 .34.044.675.13 1H3.001a.994.994 0 01-.706-.295A.992.992 0 012 33V11c0-.551.449-1 1-1h8.054l.294-.47L13.554 6h12.892M27 5H13l-2.5 4H3c-1.1 0-2 .9-2 2v22c0 1.1.901 2 2.001 2h33.778A2.978 2.978 0 0136 33a3 3 0 013-3V11c0-1.1-.901-2-2.001-2h-7.5L27 5z" fill="#8b75a1"></path><path fill="#fff9de" d="M30 13h5v3h-5z"></path><path d="M20 29.5c-4.687 0-8.5-3.813-8.5-8.5 0-4.687 3.813-8.5 8.5-8.5s8.5 3.813 8.5 8.5c0 4.687-3.813 8.5-8.5 8.5z" fill="#c2e8ff"></path><path d="M20 13c4.411 0 8 3.589 8 8s-3.589 8-8 8-8-3.589-8-8 3.589-8 8-8m0-1a9 9 0 100 18 9 9 0 000-18z" fill="#7496c4"></path><path d="M15.5 21a4.5 4.5 0 014.5-4.5" fill="none" stroke="#fff" stroke-miterlimit="10"></path><path fill="#8b75a1" d="M4 8h5v2H4z"></path><g><path d="M26.5 39.5v-4.391l-.667.236A2.478 2.478 0 0125 35.5a2.503 2.503 0 01-2.5-2.5c0-1.378 1.122-2.5 2.5-2.5.266 0 .539.051.833.155l.667.236V26.5h4.391l-.236-.667A2.478 2.478 0 0130.5 25c0-1.378 1.122-2.5 2.5-2.5s2.5 1.122 2.5 2.5c0 .266-.051.539-.155.833l-.236.667H39.5v4.052a2.503 2.503 0 00-3 2.448 2.503 2.503 0 003 2.448V39.5h-13z" fill="#bae0bd"></path><path d="M33 23c1.103 0 2 .897 2 2 0 .209-.041.427-.126.665L34.399 27H39v3c-1.654 0-3 1.346-3 3s1.346 3 3 3v3H27v-4.601l-1.335.475A1.965 1.965 0 0125 35c-1.103 0-2-.897-2-2s.897-2 2-2c.209 0 .427.041.665.126l1.335.475V27h4.601l-.475-1.335A1.965 1.965 0 0131 25c0-1.103.897-2 2-2m0-1a3 3 0 00-3 3c0 .353.072.686.184 1H26v4.184A2.962 2.962 0 0025 30a3 3 0 100 6c.353 0 .686-.072 1-.184V40h14v-5.277A1.987 1.987 0 0139 35a2 2 0 110-4c.366 0 .705.106 1 .277V26h-4.184c.112-.314.184-.647.184-1a3 3 0 00-3-3z" fill="#5e9c76"></path></g></svg>