<svg viewBox="0 0 40 40" xmlns="http://www.w3.org/2000/svg"><path d="M3 34.5c-.827 0-1.5-.673-1.5-1.5V11c0-.827.673-1.5 1.5-1.5h7.777l2.5-4h13.445l2.5 4H37c.827 0 1.5.673 1.5 1.5v21c0 .818-1.682 2.5-2.5 2.5H3z" fill="#dcd5f2"></path><path d="M26.446 6l2.206 3.53.293.47h8.054c.265 0 .516.105.706.295.19.19.295.44.295.705v20.999c-.015.565-1.436 1.986-2 2.001H3.001a.994.994 0 01-.706-.295A.992.992 0 012 33V11c0-.551.449-1 1-1h8.054l.294-.47L13.554 6h12.892M27 5H13l-2.5 4H3c-1.1 0-2 .9-2 2v22c0 1.1.901 2 2.001 2H36c1.1 0 3-1.9 3-3V11c0-1.1-.901-2-2.001-2h-7.5L27 5z" fill="#8b75a1"></path><path fill="#fff9de" d="M30 13h5v3h-5z"></path><path d="M20 29.5c-4.687 0-8.5-3.813-8.5-8.5 0-4.687 3.813-8.5 8.5-8.5 4.687 0 8.5 3.813 8.5 8.5 0 4.687-3.813 8.5-8.5 8.5z" fill="#c2e8ff"></path><path d="M20 13c4.411 0 8 3.589 8 8s-3.589 8-8 8-8-3.589-8-8 3.589-8 8-8m0-1a9 9 0 100 18 9 9 0 000-18z" fill="#7496c4"></path><path d="M15.5 21a4.5 4.5 0 014.5-4.5" fill="none" stroke="#fff" stroke-miterlimit="10"></path><path fill="#8b75a1" d="M4 8h5v2H4z"></path><g><path d="M23.765 39.5a1.26 1.26 0 01-.895-.371 1.269 1.269 0 010-1.789l6.901-6.58 1.519 1.419-6.639 6.957a1.246 1.246 0 01-.886.364z" fill="#b6c9d6"></path><path d="M29.775 31.449l.804.752-6.274 6.575a.764.764 0 01-1.081 0 .762.762 0 01-.017-1.065l6.568-6.262m-.006-1.375l-7.252 6.914a1.765 1.765 0 002.496 2.495L32 32.161l-2.231-2.087z" fill="#788b9c"></path></g><g><path d="M32.929 35.571c-3.584 0-6.5-2.916-6.5-6.5s2.916-6.5 6.5-6.5 6.5 2.916 6.5 6.5-2.916 6.5-6.5 6.5z" fill="#d1edff"></path><path d="M32.929 23.071c3.308 0 6 2.692 6 6s-2.692 6-6 6-6-2.692-6-6 2.692-6 6-6m0-1a7 7 0 100 14 7 7 0 000-14z" fill="#788b9c"></path></g></svg>