<svg viewBox="0 0 40 40" xmlns="http://www.w3.org/2000/svg"><path d="M14.5 1.5H7A5.5 5.5 0 001.5 7v0A5.5 5.5 0 007 12.5h3.5a4 4 0 014 4v7h11v-7a4 4 0 014-4H33A5.5 5.5 0 0038.5 7v0A5.5 5.5 0 0033 1.5h-7.5" fill="none" stroke="#8b75a1" stroke-linecap="square" stroke-miterlimit="10"></path><path fill="#dcd5f2" d="M18.5 9.5h3v13h-3z"></path><path d="M21 10v12h-2V10h2m1-1h-4v14h4V9z" fill="#8b75a1"></path><path d="M7.5 35.5v-9.068c0-2.43 1.56-4.542 3.882-5.257L20 18.523l8.618 2.652a5.472 5.472 0 013.882 5.257V35.5h-25z" fill="#f78f8f"></path><path d="M20 19.046l8.47 2.606A4.976 4.976 0 0132 26.431V35H8v-8.569a4.975 4.975 0 013.53-4.779L20 19.046M20 18l-8.765 2.697A5.999 5.999 0 007 26.431V36h26v-9.569a6.001 6.001 0 00-4.235-5.735L20 18z" fill="#c74343"></path><path d="M8 38.5c-.827 0-1.5-.673-1.5-1.5s.673-1.5 1.5-1.5h24c.827 0 1.5.673 1.5 1.5s-.673 1.5-1.5 1.5H8z" fill="#dcd5f2"></path><path d="M32 36c.551 0 1 .449 1 1s-.449 1-1 1H8c-.551 0-1-.449-1-1s.449-1 1-1h24m0-1H8a2 2 0 100 4h24a2 2 0 100-4z" fill="#8b75a1"></path><path d="M15.875 9.5a2.503 2.503 0 01-2.5-2.5V5.5h13V7c0 1.378-1.122 2.5-2.5 2.5h-8z" fill="#dcd5f2"></path><path d="M25.875 6v1c0 1.103-.897 2-2 2h-8c-1.103 0-2-.897-2-2V6h12m1-1h-14v2a3 3 0 003 3h8a3 3 0 003-3V5z" fill="#8b75a1"></path><circle cx="20" cy="21" r="3.5" fill="#dcd5f2"></circle><path d="M20 18c1.654 0 3 1.346 3 3s-1.346 3-3 3-3-1.346-3-3 1.346-3 3-3m0-1a4 4 0 100 8 4 4 0 000-8z" fill="#8b75a1"></path><g><circle cx="20" cy="6" r="1" fill="#8b75a1"></circle></g><g><circle cx="23.875" cy="6" r="1" fill="#8b75a1"></circle></g><g><circle cx="15.875" cy="6" r="1" fill="#8b75a1"></circle></g><g><circle cx="20" cy="21" r="1.5" fill="#baafde"></circle></g></svg>