<svg viewBox="0 0 40 40" xmlns="http://www.w3.org/2000/svg"><path d="M6.032 38.5c-.73 0-1.362-.502-1.503-1.195-.076-.377 0-.763.217-1.086.227-.339.578-.569.989-.647l27.932-5.368c.101-.02.202-.029.302-.029.73 0 1.362.502 1.503 1.195.077.377 0 .763-.217 1.086a1.523 1.523 0 01-.989.647L6.334 38.471a1.65 1.65 0 01-.302.029z" fill="#f5ce85"></path><path d="M33.968 30.675c.493 0 .919.334 1.013.794a.932.932 0 01-.142.708 1.025 1.025 0 01-.668.435L6.239 37.98c-.068.013-.138.02-.207.02-.493 0-.919-.334-1.013-.794a.932.932 0 01.142-.708c.152-.227.389-.382.668-.435l27.932-5.368a1.03 1.03 0 01.207-.02m0-1c-.131 0-.263.012-.396.038L5.64 35.08c-1.102.212-1.819 1.252-1.601 2.324C4.23 38.347 5.08 39 6.032 39c.131 0 .263-.012.396-.038l27.932-5.368c1.102-.212 1.819-1.252 1.601-2.324-.191-.942-1.041-1.595-1.993-1.595z" fill="#967a44"></path><path d="M33.946 38.5c-.101 0-.204-.009-.306-.029L6.757 33.045a1.549 1.549 0 01-1.008-.659 1.453 1.453 0 01-.22-1.101c.143-.703.784-1.212 1.524-1.212.101 0 .204.01.306.03l26.883 5.425c.421.081.777.314 1.008.659.219.328.297.719.22 1.101-.142.702-.783 1.212-1.524 1.212z" fill="#f5ce85"></path><path d="M7.054 30.573c.07 0 .142.007.203.019l26.897 5.428c.284.055.526.213.682.445.145.216.196.473.145.724-.096.47-.531.811-1.035.811-.07 0-.142-.007-.203-.019L6.846 32.554a1.054 1.054 0 01-.682-.445c-.145-.216-.196-.473-.145-.724.096-.47.531-.812 1.035-.812m0-1c-.962 0-1.821.66-2.015 1.613-.22 1.084.505 2.135 1.618 2.35l26.888 5.426c.135.026.269.038.401.038.962 0 1.821-.66 2.015-1.613.22-1.084-.505-2.135-1.618-2.35L7.455 29.612a2.12 2.12 0 00-.401-.039z" fill="#967a44"></path><g><path d="M20 32.5c-5.531 0-11.5-4.015-11.5-10.5 0-2.226.712-3.552 1.401-4.835 1.015-1.889 1.976-3.68-.031-7.608 1.582.216 2.354 1.018 3.047 1.737.599.62 1.164 1.206 2.083 1.206.673 0 1.273-.584 1.782-1.738 1.029-2.33 1.519-6.624.091-9.217 4.773.447 5.775 4.149 6.52 6.899.444 1.64.827 3.056 2.037 3.056.479 0 .916-.215 1.264-.622.662-.773.996-2.278.908-3.93 3.72 2.416 3.077 4.506 2.399 6.71-.247.801-.479 1.558-.5 2.33-.031 1.225.397 2.192.85 3.215.539 1.218 1.15 2.599 1.15 4.797-.001 4.088-4.398 8.5-11.501 8.5z" fill="#f78f8f"></path><path d="M17.695 2.17c3.684.752 4.523 3.85 5.215 6.404.476 1.762.927 3.426 2.519 3.426.629 0 1.198-.275 1.644-.797.688-.804.976-2.055 1.03-3.288 2.535 1.972 2.011 3.672 1.419 5.595-.246.798-.5 1.623-.521 2.464-.034 1.337.416 2.354.892 3.431C30.437 20.636 31 21.908 31 24c0 3.226-3.496 8-11 8-4.111 0-6.698-1.773-8.144-3.26C10.041 26.873 9 24.417 9 22c0-2.1.682-3.37 1.342-4.599.992-1.847 1.936-3.605.433-7.101.795.315 1.294.833 1.783 1.34.614.638 1.31 1.36 2.442 1.36.89 0 1.643-.685 2.239-2.036.965-2.185 1.463-6.039.456-8.794M15.878 1c2.693 2.953.892 11-.878 11s-2-3-6-3c4 7-1 7-1 13 0 5.165 4.37 11 12 11s12-4.907 12-9c0-4.145-2.063-5.495-2-8 .074-2.88 3.625-6.25-3-10 .382 2.443-.204 5-1.571 5C23 11 25 1 15.878 1z" fill="#c74343"></path></g><g><path d="M20.261 32C16.296 32 14 28.642 14 26.667 14 22 18.959 20.523 17.965 16c6.238 2.68-1.073 5.916 2.157 7.94 1.043.653 2.395-.905 1.809-2.607 2.37 1.704.549 3.417 1.322 4 .651.491 1.287-.685 1.322-1.333 3.808 4.636-.839 8-4.314 8z" fill="#ffeea3"></path></g></svg>