<svg viewBox="0 0 40 40" xmlns="http://www.w3.org/2000/svg"><path d="M27.208 10.858c-.885-.839-1.507-1.389-2.072-1.389l-.039.001c-.518-.295-2.035-.97-5.097-.97-3.062 0-4.579.675-5.097.97l-.039-.001c-.566 0-1.188.55-2.072 1.389-.097.092-.21.199-.322.303.407-2.056 1.798-6.368 2.572-8.637l.001.001c.015 0 .252-.289 1.05-.555.938-.311 2.253-.47 3.907-.47s2.969.159 3.907.472c.873.292 1.075.61 1.077.613.752 2.217 2.148 6.55 2.55 8.581-.114-.106-.228-.215-.326-.308z" fill="#a59dd1"></path><path d="M20 2c1.994 0 3.139.243 3.749.446.478.16.702.317.786.389.686 2.018 1.587 4.833 2.131 6.858-.522-.433-.964-.69-1.436-.72C24.556 8.615 22.965 8 20 8c-2.965 0-4.556.615-5.23.972-.472.03-.914.287-1.436.72.544-2.024 1.445-4.84 2.131-6.857.084-.072.308-.229.786-.389C16.861 2.243 18.006 2 20 2m0-1c-1.988 0-3.259.228-4.066.498-1.161.387-1.363.859-1.363.859s-2.592 7.591-2.712 9.5c-.012.183.035.26.124.26.471 0 2.146-2.147 2.882-2.147.05 0 .095.01.135.031 0 0 1.289-1 5-1 3.711 0 5 1 5 1a.289.289 0 01.135-.031c.736 0 2.41 2.147 2.882 2.147.089 0 .135-.077.124-.26-.12-1.909-2.712-9.5-2.712-9.5s-.202-.472-1.363-.859C23.259 1.228 21.988 1 20 1z" fill="#8b75a1"></path><path d="M28.078 38.284c-2.191-2.835-14.985-19.398-15.98-20.974-1.127-1.784-2.072-4.329-1.345-6.122.442-1.087 2.978-6.387 4.18-8.459l.567-.345-.001 2.896c-.009 1.409-.025 4.341 1.086 5.998 1.414 2.172 14.552 19.731 16.73 22.642l-5.237 4.364z" fill="#dcd5f2"></path><path d="M15 3.634V5l-.001.278c-.008 1.459-.026 4.494 1.163 6.268 1.374 2.11 13.621 18.489 16.469 22.294l-4.474 3.728c-5.395-6.978-14.813-19.221-15.636-20.525-1.012-1.602-1.961-4.047-1.304-5.666.385-.951 2.516-5.412 3.783-7.743m1-2.127c-.209.107-1.214.73-1.435.86C13.361 4.408 10.716 9.951 10.29 11c-.831 2.047.277 4.824 1.385 6.577C12.783 19.332 28 39 28 39l6-5S18.523 13.338 17 11c-1.105-1.648-1-4.832-1-6V1.507zm-1.429.85a.416.416 0 00-.049.034.288.288 0 00.043-.024l.006-.01z" fill="#8b75a1"></path><g><path d="M6.685 33.92c2.179-2.91 15.316-20.469 16.734-22.647 1.107-1.651 1.091-4.583 1.082-5.992L24.5 2.384l.567.345c1.202 2.072 3.737 7.372 4.18 8.459.728 1.793-.218 4.338-1.345 6.122-.995 1.576-13.789 18.139-15.98 20.974L6.685 33.92z" fill="#dcd5f2"></path><path d="M25 3.634c1.267 2.331 3.398 6.793 3.783 7.742.657 1.62-.292 4.065-1.304 5.667-.823 1.304-10.241 13.546-15.636 20.525L7.369 33.84c2.848-3.805 15.094-20.183 16.461-22.283 1.197-1.785 1.179-4.82 1.171-6.279L25 5V3.634m-1-2.127V5c0 1.168.105 4.352-1 6-1.523 2.338-17 23-17 23l6 5s15.217-19.668 16.325-21.423c1.108-1.753 2.216-4.53 1.385-6.577-.426-1.049-3.071-6.592-4.275-8.632-.221-.13-1.226-.753-1.435-.861zm1.429.85l.006.01.043.024-.049-.034z" fill="#8b75a1"></path></g></svg>