<svg viewBox="0 0 40 40" xmlns="http://www.w3.org/2000/svg"><path fill="#fff" d="M6.5 37.5v-35h18.293l8.707 8.707V37.5z"></path><path d="M24.586 3L33 11.414V37H7V3h17.586M25 2H6v36h28V11l-9-9z" fill="#788b9c"></path><path d="M22.864 38H34V20.459a9.836 9.836 0 00-1-.258V37H22.014c.263.351.544.687.85 1z" fill="#c5d4de"></path><path fill="#fff" d="M24.5 11.5v-9h.293l8.707 8.707v.293z"></path><path d="M25 3.414L32.586 11H25V3.414M25 2h-1v10h10v-1l-9-9z" fill="#788b9c"></path><g><path d="M26.56 38H34V23.385c-.444-.101-2.253-.182-2.714-.234v12.135h-5.501c.233.468.485 2.282.775 2.714z" fill="#fff"></path></g><g><path d="M31 39.5c-4.687 0-8.5-3.813-8.5-8.5s3.813-8.5 8.5-8.5 8.5 3.813 8.5 8.5-3.813 8.5-8.5 8.5zm-3.658-3.086l.594.318A6.517 6.517 0 0031 37.5c3.584 0 6.5-2.916 6.5-6.5a6.512 6.512 0 00-.769-3.064l-.317-.594-9.072 9.072zM31 24.5a6.508 6.508 0 00-6.5 6.5c0 1.065.266 2.125.769 3.064l.317.594 9.072-9.072-.594-.318A6.517 6.517 0 0031 24.5z" fill="#f78f8f"></path><path d="M31 23c4.411 0 8 3.589 8 8s-3.589 8-8 8-8-3.589-8-8 3.589-8 8-8m-5.536 12.488l.953-.952 8.119-8.119.952-.953-1.187-.636A7.008 7.008 0 0031 24c-3.86 0-7 3.14-7 7 0 1.149.286 2.29.828 3.301l.636 1.187M31 38c3.86 0 7-3.14 7-7 0-1.149-.286-2.29-.827-3.301l-.636-1.187-.952.952-8.12 8.119-.953.952 1.187.636A6.997 6.997 0 0031 38m0-16a9 9 0 00-9 9c0 4.971 4.029 9 9 9s9-4.029 9-9a9 9 0 00-9-9zm-5.291 11.828a6 6 0 018.119-8.119l-8.119 8.119zM31 37a5.973 5.973 0 01-2.828-.709l8.12-8.119A6 6 0 0131 37z" fill="#c74343"></path></g></svg>