<svg viewBox="0 0 40 40" xmlns="http://www.w3.org/2000/svg"><path d="M7 38.5A4.505 4.505 0 012.5 34V5.5h13V34c0 1.858.926 3.504 2.341 4.5H7z" fill="#e1ebf2"></path><path d="M15 6v28c0 1.535.58 2.938 1.532 4H7c-2.206 0-4-1.794-4-4V6h12m1-1H2v29a5 5 0 005 5h14a5 5 0 01-5-5V5z" fill="#788b9c"></path><path d="M7.5 38.5v-.028c2.247-.25 4-2.16 4-4.472V1.5h26V34c0 2.481-2.019 4.5-4.5 4.5H7.5z" fill="#fff"></path><path d="M37 2v32c0 2.206-1.794 4-4 4H9.997A4.997 4.997 0 0012 34V2h25m1-1H11v33a4 4 0 01-4 4v1h26a5 5 0 005-5V1z" fill="#788b9c"></path><path fill="#788b9c" d="M16 6h17v3H16zM26 12h7v1h-7zM26 15h7v1h-7zM26 18h7v1h-7zM6 11h5v1H6zM6 14h5v1H6zM6 17h5v1H6zM6 20h5v1H6zM6 23h5v1H6zM6 26h5v1H6zM6 29h5v1H6zM6 32h5v1H6zM16 12h7v1h-7zM16 15h7v1h-7zM16 18h7v1h-7zM16 21h7v1h-7zM16 24h7v1h-7zM16 27h7v1h-7zM16 30h7v1h-7zM16 33h7v1h-7z"></path><g><path d="M31 39.5c-4.687 0-8.5-3.813-8.5-8.5s3.813-8.5 8.5-8.5 8.5 3.813 8.5 8.5-3.813 8.5-8.5 8.5zm-2.712-3.667l.711.279c.656.258 1.33.388 2.001.388 3.033 0 5.5-2.467 5.5-5.5 0-.671-.13-1.345-.388-2.001l-.279-.711-7.545 7.545zM31 25.5a5.506 5.506 0 00-5.5 5.5c0 .671.13 1.345.388 2.001l.279.711 7.545-7.545-.711-.279A5.454 5.454 0 0031 25.5z" fill="#f78f8f"></path><path d="M31 23c4.411 0 8 3.589 8 8s-3.589 8-8 8-8-3.589-8-8 3.589-8 8-8m-5.02 11.606l1.081-1.081 6.465-6.465 1.081-1.081-1.423-.558A5.997 5.997 0 0031 25c-3.308 0-6 2.692-6 6 0 .734.142 1.468.422 2.183l.558 1.423M31 37c3.308 0 6-2.692 6-6 0-.734-.142-1.468-.422-2.183l-.558-1.423-1.081 1.081-6.465 6.465-1.081 1.081 1.423.558c.716.279 1.45.421 2.184.421m0-15a9 9 0 00-9 9c0 4.971 4.029 9 9 9s9-4.029 9-9a9 9 0 00-9-9zm-4.647 10.819A4.98 4.98 0 0126 31a5 5 0 015-5 4.98 4.98 0 011.819.353l-6.466 6.466zM31 36a4.98 4.98 0 01-1.819-.353l6.465-6.465A4.95 4.95 0 0136 31a5 5 0 01-5 5z" fill="#c74343"></path></g><g fill="#c5d4de"><path d="M22.059 30h-1.008c-.033.329-.051.662-.051 1h1c0-.338.022-.671.059-1zM37 23.019v1.286c.359.322.696.668 1 1.044v-1.478c-.313-.307-.65-.588-1-.852zM21.461 28h1.062c.122-.344.263-.677.424-1h-1.106a9.85 9.85 0 00-.38 1zM25.349 38h-1.478c.357.364.746.694 1.155 1h1.864a8.962 8.962 0 01-1.541-1zM22.523 34a8.84 8.84 0 01-.292-1h-1.029c.069.34.157.673.26 1h1.061z"></path></g></svg>