<svg viewBox="0 0 40 40" xmlns="http://www.w3.org/2000/svg"><path fill="#c74343" d="M35 1h1v22h-1z"></path><path fill="#f78f8f" d="M32.5 4.5h6v15h-6z"></path><path d="M38 5v14h-5V5h5m1-1h-7v16h7V4zM14 6h1v24h-1z" fill="#c74343"></path><path fill="#f78f8f" d="M11.5 9.5h6v17h-6z"></path><path d="M17 10v16h-5V10h5m1-1h-7v18h7V9z" fill="#c74343"></path><path fill="#5e9c76" d="M25 17h1v18h-1z"></path><path fill="#bae0bd" d="M22.5 20.5h6v11h-6z"></path><path d="M28 21v10h-5V21h5m1-1h-7v12h7V20zM4 19h1v20H4z" fill="#5e9c76"></path><g><path fill="#bae0bd" d="M1.5 22.5h6v13h-6z"></path><path d="M7 23v12H2V23h5m1-1H1v14h7V22z" fill="#5e9c76"></path></g></svg>