<svg viewBox="0 0 40 40" xmlns="http://www.w3.org/2000/svg"><path d="M16.5 33.5v-2.709l-.15-.147c-.058-.057-5.85-5.833-5.85-13.072 0-10.39 9.567-14.918 11.972-15.891.432 1.913 1.583 3.324 2.796 4.809 1.983 2.429 4.232 5.182 4.232 11.082 0 6.734-5.807 13.024-5.865 13.087l-.135.144V33.5h-7z" fill="#ffeea3"></path><path d="M22.133 2.355c.532 1.738 1.614 3.063 2.748 4.451C26.812 9.17 29 11.85 29 17.571c0 6.521-5.674 12.685-5.731 12.746l-.269.289V33h-6v-2.42l-.3-.294c-.057-.056-5.7-5.671-5.7-12.715 0-9.567 8.172-13.944 11.133-15.216M22.857 1S10 5.25 10 17.571C10 25.116 16 31 16 31v3h8v-3s6-6.42 6-13.429C30 7.482 23.571 6.268 22.857 1z" fill="#ba9b48"></path><path d="M20 16.118l2.053 1.026.447.224.447-.224.624-.312-3.125 14.15h-.893l-3.125-14.15.624.312.447.224.447-.224L20 16.118M25 15l-2.5 1.25L20 15l-2.5 1.25L15 15l3.75 16.982h2.5L25 15z" fill="#fff"></path><circle cx="20" cy="37" r="2" fill="#2d3540"></circle><path d="M18 37.5c-.827 0-1.5-.673-1.5-1.5v-4.5h7V36c0 .827-.673 1.5-1.5 1.5h-4z" fill="#dcd5f2"></path><path d="M23 32v4c0 .551-.449 1-1 1h-4c-.551 0-1-.449-1-1v-4h6m1-1h-8v5a2 2 0 002 2h4a2 2 0 002-2v-5z" fill="#8b75a1"></path><path fill="none" stroke="#8b75a1" stroke-miterlimit="10" d="M19 35.5h5M16 35.5h2M19 33.5h5M16 33.5h2"></path></svg>