<svg viewBox="0 0 40 40" xmlns="http://www.w3.org/2000/svg"><path d="M20 38.5C9.799 38.5 1.5 30.201 1.5 20S9.799 1.5 20 1.5 38.5 9.799 38.5 20 30.201 38.5 20 38.5z" fill="#f78f8f"></path><path d="M20 2c9.925 0 18 8.075 18 18s-8.075 18-18 18S2 29.925 2 20 10.075 2 20 2m0-1C9.455 1 1 9.455 1 20s8.455 19 19 19 19-8.455 19-19S30.545 1 20 1z" fill="#c74343"></path><path d="M35.56 29.008L20 20l9.008 15.56a18.13 18.13 0 006.552-6.552z" fill="#f4b5b5"></path><path d="M35.56 29.008a18.11 18.11 0 01-6.551 6.551l.515.889.003-.002a18.79 18.79 0 001.96-1.305c.046-.035.093-.068.138-.103.306-.236.606-.482.896-.736l.082-.074a18.948 18.948 0 001.628-1.628l.072-.079c.255-.291.5-.591.737-.898l.101-.135c.474-.626.914-1.281 1.309-1.965l-.89-.515z" fill="#f76d6d"></path><path d="M4.44 10.992L20 20 10.992 4.44a18.13 18.13 0 00-6.552 6.552z" fill="#f4b5b5"></path><path d="M4.44 10.992a18.11 18.11 0 016.551-6.551l-.515-.889-.003.002a18.79 18.79 0 00-1.96 1.305c-.045.034-.092.067-.137.102-.306.237-.606.482-.896.736l-.082.074A18.96 18.96 0 005.77 7.4c-.024.026-.049.052-.072.079-.255.291-.5.591-.737.898l-.101.135a18.999 18.999 0 00-1.309 1.965l.889.515z" fill="#f76d6d"></path><path d="M20 27.5c-4.136 0-7.5-3.364-7.5-7.5s3.364-7.5 7.5-7.5 7.5 3.364 7.5 7.5-3.364 7.5-7.5 7.5z" fill="#8bb7f0"></path><path d="M20 13c3.86 0 7 3.14 7 7s-3.14 7-7 7-7-3.14-7-7 3.14-7 7-7m0-1c-4.4 0-8 3.6-8 8s3.6 8 8 8 8-3.6 8-8-3.6-8-8-8z" fill="#4e7ab5"></path><path d="M20 35c-8.25 0-15-6.75-15-15S11.75 5 20 5s15 6.75 15 15-6.75 15-15 15z" fill="#fff"></path><path d="M20 31.5c-6.448 0-11.5-5.051-11.5-11.5S13.552 8.5 20 8.5 31.5 13.551 31.5 20 26.448 31.5 20 31.5z" fill="#f78f8f"></path><path d="M20 9c6.168 0 11 4.832 11 11s-4.832 11-11 11S9 26.168 9 20 13.832 9 20 9m0-1C13.3 8 8 13.3 8 20s5.3 12 12 12 12-5.3 12-12S26.7 8 20 8z" fill="#c74343"></path><path d="M10.454 14.474L20 20l-5.526-9.546a10.772 10.772 0 00-4.02 4.02z" fill="#f4b5b5"></path><path d="M14.474 10.454l-.496-.857a11.88 11.88 0 00-1.279.851l-.044.033a11.817 11.817 0 00-2.172 2.172l-.034.045a11.86 11.86 0 00-.85 1.278l.857.496a10.761 10.761 0 014.018-4.018z" fill="#f76d6d"></path><path d="M20 27.5c-4.136 0-7.5-3.364-7.5-7.5s3.364-7.5 7.5-7.5 7.5 3.364 7.5 7.5-3.364 7.5-7.5 7.5z" fill="#8bb7f0"></path><path d="M20 13c3.86 0 7 3.14 7 7s-3.14 7-7 7-7-3.14-7-7 3.14-7 7-7m0-1c-4.4 0-8 3.6-8 8s3.6 8 8 8 8-3.6 8-8-3.6-8-8-8z" fill="#4e7ab5"></path><path d="M13.949 16.497L20 20l-3.503-6.051a7.041 7.041 0 00-2.548 2.548z" fill="#9fcdff"></path><path d="M16.497 13.949l-.498-.86a8.099 8.099 0 00-2.91 2.91l.86.498a7.041 7.041 0 012.548-2.548z" fill="#7ca3ce"></path><path d="M29.546 25.526L20 20l5.526 9.546a10.772 10.772 0 004.02-4.02z" fill="#f4b5b5"></path><path d="M25.526 29.546l.496.857a11.88 11.88 0 001.279-.851l.044-.033a11.817 11.817 0 002.172-2.172l.034-.045c.309-.406.594-.832.85-1.278l-.857-.496a10.761 10.761 0 01-4.018 4.018z" fill="#f76d6d"></path><path d="M26.051 23.503L20 20l3.503 6.051a7.041 7.041 0 002.548-2.548z" fill="#9fcdff"></path><path d="M23.503 26.051l.498.86a8.099 8.099 0 002.91-2.91l-.86-.498a7.041 7.041 0 01-2.548 2.548z" fill="#7ca3ce"></path><path fill="#fff" d="M16.502 25.093l1.355-4.305-3.508-2.79h4.384l1.276-3.905 1.355 3.905h4.464l-3.508 2.79 1.276 4.225-3.587-2.551z"></path></svg>