<svg viewBox="0 0 40 40" xmlns="http://www.w3.org/2000/svg"><path d="M4.77 37.5a2.273 2.273 0 01-2.27-2.269V4.769A2.273 2.273 0 014.77 2.5h30.46a2.273 2.273 0 012.27 2.269v30.462a2.273 2.273 0 01-2.27 2.269H4.77z" fill="#dcd5f2"></path><path d="M35.231 3C36.206 3 37 3.794 37 4.769v30.462c0 .975-.794 1.769-1.769 1.769H4.769A1.772 1.772 0 013 35.231V4.769C3 3.794 3.794 3 4.769 3h30.462m0-1H4.769A2.77 2.77 0 002 4.769v30.462A2.77 2.77 0 004.769 38h30.462A2.77 2.77 0 0038 35.231V4.769A2.77 2.77 0 0035.231 2z" fill="#8b75a1"></path><g fill="#8b75a1"><path d="M2 23.293v1.414L24.707 2h-1.414zM35.287 2.006L2.006 35.287c.008.409.109.792.276 1.139L36.426 2.281a2.737 2.737 0 00-1.139-.275zM2 19.293v1.414L20.707 2h-1.414zM2 27.293v1.414L28.707 2h-1.414zM2 7.293v1.414L8.707 2H7.293zM15.293 2L2 15.293v1.414L16.707 2zM31.293 2L2 31.293v1.414L32.707 2zM11.293 2L2 11.293v1.414L12.707 2zM38 28.707v-1.414L27.293 38h1.414zM38 24.707v-1.414L23.293 38h1.414zM38 20.707v-1.414L19.293 38h1.414zM38 32.707v-1.414L31.293 38h1.414zM38 16.707v-1.414L15.293 38h1.414zM38 8.707V7.293L7.293 38h1.414zM38 12.707v-1.414L11.293 38h1.414zM37.994 4.713a2.738 2.738 0 00-.276-1.139L3.574 37.719c.347.167.73.267 1.139.276L37.994 4.713z"></path></g><path fill="#dcd5f2" d="M3 10h34v20H3z"></path><path d="M7.996 14.91c-.132-.521.259-.91.778-.91.521 0 1.04.39 1.17.91s-.13.91-.649.91c-.521 0-1.17-.39-1.299-.91zM12 27h-1.615l-1.843-9.519h1.615L12 27zM22 20.426a3.47 3.47 0 01-.442 1.595c-.503.884-1.346 1.485-2.528 1.801-1.148.308-2.16.215-3.037-.279s-1.473-1.3-1.788-2.419c-.344-1.218-.255-2.265.266-3.142s1.388-1.477 2.599-1.801c1.163-.312 2.162-.222 2.999.27.579.34 1.028.856 1.366 1.526l-1.758.471a2.32 2.32 0 00-.626-.688c-.479-.339-1.05-.42-1.713-.242-.659.177-1.116.54-1.372 1.092-.256.551-.273 1.221-.05 2.01.214.76.577 1.307 1.088 1.64.511.333 1.091.412 1.74.238.664-.178 1.113-.529 1.348-1.055.071-.158.079-.352.108-.534l1.8-.483zM24.238 23.258c.119-.363.271-.714.457-1.052s.402-.651.646-.936c.244-.285.518-.541.821-.768.303-.226.63-.408.982-.546a2.173 2.173 0 01-.696-1.181c-.111-.479-.073-1.008.117-1.588a4.55 4.55 0 01.656-1.28c.286-.391.615-.729.989-1.013a4.579 4.579 0 011.207-.663A3.71 3.71 0 0130.735 14c.452.004.841.089 1.17.256.328.167.584.395.77.684s.292.63.32 1.024c.028.393-.033.818-.183 1.275a4.423 4.423 0 01-.918 1.581 5.501 5.501 0 01-1.447 1.163c.256.143.462.328.619.555.157.227.266.485.328.773s.076.602.043.942c-.033.34-.11.694-.23 1.063-.18.55-.429 1.053-.748 1.508s-.685.844-1.097 1.166-.862.572-1.348.75a4.225 4.225 0 01-1.503.26c-.51-.004-.948-.099-1.314-.284a2.077 2.077 0 01-.852-.768c-.203-.327-.315-.72-.339-1.178s.053-.962.232-1.512zm1.705-.162c-.117.357-.178.679-.184.967s.038.532.134.732c.095.2.239.354.43.461s.426.162.703.164c.267.002.53-.05.789-.156.259-.107.502-.26.731-.46.229-.201.436-.442.621-.725s.335-.6.45-.951c.105-.322.16-.625.166-.91a1.795 1.795 0 00-.129-.745 1.14 1.14 0 00-.416-.505c-.186-.125-.417-.188-.694-.191a1.96 1.96 0 00-.788.165c-.263.112-.51.272-.741.478a3.644 3.644 0 00-.625.739 3.89 3.89 0 00-.447.937zm2.215-5.685c-.086.263-.127.508-.123.734s.045.423.121.591.188.3.335.394a.965.965 0 00.526.145c.204.002.41-.045.619-.14s.407-.225.595-.391a3.049 3.049 0 00.862-1.308 2.35 2.35 0 00.128-.738c-.001-.229-.04-.426-.118-.591s-.191-.295-.34-.39-.328-.144-.537-.145a1.523 1.523 0 00-.645.14 2.228 2.228 0 00-.593.396 3.125 3.125 0 00-.83 1.303z" fill="#36404d"></path></svg>