<svg viewBox="0 0 40 40" xmlns="http://www.w3.org/2000/svg"><path d="M14 11.5c-3.033 0-5.5-2.467-5.5-5.5S10.967.5 14 .5a5.52 5.52 0 014.758 2.75l.145.25h2.89L23 4.707 24.207 3.5h1.586L27 4.707 28.207 3.5h1.586L31.5 5.207v1.586L29.793 8.5h-10.89l-.145.25A5.52 5.52 0 0114 11.5zm-2-7c-.827 0-1.5.673-1.5 1.5s.673 1.5 1.5 1.5 1.5-.673 1.5-1.5-.673-1.5-1.5-1.5z" fill="#f5ce85"></path><path d="M14 1c1.774 0 3.432.958 4.325 2.501l.289.499h2.971l.707.707.708.707.707-.707.707-.707h1.172l.707.707.707.707.707-.707.707-.707h1.172L31 5.414v1.172L29.586 8H18.615l-.289.499A5.019 5.019 0 0114 11c-2.757 0-5-2.243-5-5s2.243-5 5-5m-2 7c1.103 0 2-.897 2-2s-.897-2-2-2-2 .897-2 2 .897 2 2 2m2-8a6 6 0 100 12 5.992 5.992 0 005.191-3H30l2-2V5l-2-2h-2l-1 1-1-1h-2l-1 1-1-1h-2.809A5.992 5.992 0 0014 0zm-2 7a1 1 0 110-2 1 1 0 010 2z" fill="#967a44"></path><path d="M5 25.5c-.827 0-1.5-.673-1.5-1.5s.673-1.5 1.5-1.5h30c.827 0 1.5.673 1.5 1.5s-.673 1.5-1.5 1.5H5z" fill="#8bb7f0"></path><path d="M35 23c.551 0 1 .449 1 1s-.449 1-1 1H5c-.551 0-1-.449-1-1s.449-1 1-1h30m0-1H5a2 2 0 100 4h30a2 2 0 100-4z" fill="#4e7ab5"></path><path d="M35 32.75v5c0 .69-.56 1.25-1.25 1.25h-2.5c-.69 0-1.25-.56-1.25-1.25v-5c0-.69.56-1.25 1.25-1.25h2.5c.69 0 1.25.56 1.25 1.25zM10 32.75v5c0 .69-.56 1.25-1.25 1.25h-2.5C5.56 39 5 38.44 5 37.75v-5c0-.69.56-1.25 1.25-1.25h2.5c.69 0 1.25.56 1.25 1.25z" fill="#66798f"></path><path d="M8 36.5A2.503 2.503 0 015.5 34v-6.052a5.47 5.47 0 011.049-3.231l.465-.64 1.718-6.92a3.494 3.494 0 013.397-2.657h15.743a3.493 3.493 0 013.397 2.657l1.718 6.92.465.64a5.464 5.464 0 011.048 3.23V34c0 1.378-1.122 2.5-2.5 2.5H8z" fill="#8bb7f0"></path><path d="M27.872 15c1.381 0 2.579.936 2.912 2.277l1.695 6.826.047.189.114.158.408.562c.622.858.952 1.874.952 2.936V34c0 1.103-.897 2-2 2H8c-1.103 0-2-.897-2-2v-6.052c0-1.062.33-2.078.954-2.937l.407-.561.114-.158.047-.189 1.695-6.826A2.994 2.994 0 0112.128 15h15.744m0-1H12.128a4 4 0 00-3.882 3.036l-1.695 6.826-.407.561A6.008 6.008 0 005 27.948V34a3 3 0 003 3h24a3 3 0 003-3v-6.052c0-1.266-.401-2.5-1.144-3.524l-.407-.561-1.695-6.826A4 4 0 0027.872 14z" fill="#4e7ab5"></path><circle cx="31" cy="29" r="2" fill="#fff"></circle><circle cx="9" cy="29" r="2" fill="#fff"></circle><g><path d="M12.726 36.5l1.672-4.39a2.514 2.514 0 012.336-1.61h6.532c1.03 0 1.969.647 2.336 1.61l1.672 4.39H12.726z" fill="#c8d1db"></path><path d="M23.266 31c.824 0 1.576.518 1.869 1.288L26.549 36H13.451l1.414-3.712A2.012 2.012 0 0116.734 31h6.532m0-1h-6.532a3 3 0 00-2.803 1.932L12 37h16l-1.931-5.068A3 3 0 0023.266 30z" fill="#66798f"></path></g><path fill="#8bb7f0" d="M5 23h30v2H5z"></path><g><path d="M7.405 22.5l1.327-5.343a3.494 3.494 0 013.397-2.657h15.743a3.493 3.493 0 013.397 2.657l1.327 5.343H7.405z" fill="#c2e8ff"></path><path d="M27.872 15c1.381 0 2.579.936 2.912 2.277L31.956 22H8.044l1.172-4.723A2.996 2.996 0 0112.128 15h15.744m0-1H12.128a4 4 0 00-3.882 3.036L6.766 23h26.469l-1.481-5.964A4 4 0 0027.872 14z" fill="#4e7ab5"></path></g></svg>