<svg viewBox="0 0 40 40" xmlns="http://www.w3.org/2000/svg"><path d="M28.962 35.5a1.473 1.473 0 01-1.462-1.481l.039-6.928a2.22 2.22 0 01.774-1.656l5.31-5.759 1.102 4.409-4.246 3.816-.036 6.137a1.475 1.475 0 01-1.472 1.462h-.009z" fill="#a1b1bd"></path><path d="M33.363 20.697l.805 3.218-3.858 3.467-.329.296-.003.442-.035 5.915a.975.975 0 01-.978.965.964.964 0 01-.685-.289.966.966 0 01-.28-.69l.039-6.928c.003-.493.217-.948.602-1.281l.042-.037.038-.041 4.642-5.037m.52-2.041l-5.897 6.401a2.707 2.707 0 00-.947 2.031L27 34.016A1.971 1.971 0 0028.959 36h.013a1.97 1.97 0 001.971-1.959l.035-5.916 4.305-3.869-1.4-5.6z" fill="#788b9c"></path><path d="M36.013 35.5a1.49 1.49 0 01-1.312-.779l-2.932-5.417a2.219 2.219 0 01.011-2.131l1.974-5.229-3.178-6.405-2.616 2.383a2.207 2.207 0 01-1.492.578h-5.433a1.538 1.538 0 01-1.536-1.536c0-.847.689-1.536 1.536-1.536h4.037l3.487-3.127 1.036-.944a3.287 3.287 0 015.111.882l3.208 5.999a4.888 4.888 0 01.014 4.552l-.195.346c-.042.076-.082.152-.131.223l-2.94 5.041 2.66 4.916c.188.348.229.747.116 1.125a1.483 1.483 0 01-1.425 1.059z" fill="#b6c9d6"></path><path d="M31.802 11c1.034 0 1.978.565 2.464 1.474l3.209 5.999a4.387 4.387 0 01.01 4.086l-.016.031-.087.15-.086.154c-.033.06-.063.12-.103.177l-.024.035-.021.036-2.777 4.766-.283.485.267.494 2.526 4.669A.98.98 0 0136.013 35a.99.99 0 01-.873-.517l-2.931-5.417a1.719 1.719 0 01.01-1.652l.034-.062.025-.066 1.868-4.962.153-.407-.193-.39-2.787-5.616-.589-1.188-.98.893-2.126 1.937a1.714 1.714 0 01-1.155.447h-5.433C20.465 18 20 17.535 20 16.964s.465-1.036 1.036-1.036h4.228l.285-.256 3.345-2.999.558-.503-.002-.005.483-.439A2.772 2.772 0 0131.802 11m0-1c-.9 0-1.808.318-2.543.987l-1.033.94.001.002-3.345 2.999h-3.845A2.036 2.036 0 0021.036 19h5.433c.676 0 1.328-.253 1.828-.708l2.125-1.937 2.787 5.616-1.868 4.962a2.718 2.718 0 00-.012 2.609l2.931 5.417a1.99 1.99 0 002.695.803 1.977 1.977 0 00.807-2.684l-2.526-4.669 2.777-4.766c.09-.129.157-.269.235-.404l.128-.219-.002-.003c.793-1.532.849-3.4-.016-5.018L35.149 12a3.783 3.783 0 00-3.347-2z" fill="#788b9c"></path><circle cx="27.5" cy="7.5" r="3" fill="#f5ce85"></circle><path d="M27.5 5C28.902 5 30 6.098 30 7.5S28.902 10 27.5 10 25 8.902 25 7.5 26.098 5 27.5 5m0-1C25.556 4 24 5.556 24 7.5s1.556 3.5 3.5 3.5S31 9.444 31 7.5 29.444 4 27.5 4z" fill="#967a44"></path><path d="M1.5 19.5v-4H19c.827 0 1.5.673 1.5 1.5v1c0 .827-.673 1.5-1.5 1.5H1.5z" fill="#f78f8f"></path><path d="M19 16c.551 0 1 .449 1 1v1c0 .551-.449 1-1 1H2v-3h17m0-1H1v5h18a2 2 0 002-2v-1a2 2 0 00-2-2z" fill="#c74343"></path><path d="M19 29v6a1 1 0 01-1 1h-4a1 1 0 01-1-1v-6a1 1 0 011-1h4a1 1 0 011 1z" fill="#66798f"></path><path d="M1.5 32.5v-28h8.361a4.495 4.495 0 014.268 3.074l3.012 9.014.776 1.558c.381.761.583 1.613.583 2.465V30c0 1.378-1.122 2.5-2.5 2.5H1.5z" fill="#f78f8f"></path><path d="M9.861 5a3.996 3.996 0 013.794 2.732l3.013 9.013.023.068.032.064.748 1.493A5.03 5.03 0 0118 20.61V30c0 1.103-.897 2-2 2H2V5h7.861m0-1H1v29h15a3 3 0 003-3v-9.39c0-.934-.218-1.854-.636-2.689l-.748-1.493-3.013-9.013A5 5 0 009.861 4z" fill="#c74343"></path><circle cx="14" cy="23" r="2" fill="#fff"></circle><path d="M1.5 32.5v-7h5.47c1.193 0 2.226.851 2.454 2.022l.969 4.978H1.5z" fill="#c8d1db"></path><path d="M6.969 26c.955 0 1.781.68 1.963 1.618L9.786 32H2v-6h4.969m0-1H1v8h10l-1.086-5.574A3 3 0 006.969 25z" fill="#66798f"></path><path fill="#f78f8f" d="M1 16h18v2H1zM1 18h2v7H1z"></path><path fill="#c8d1db" d="M1 26h2v6H1z"></path><g><path d="M1.5 15.5v-11h8.361a4.495 4.495 0 014.268 3.074l2.649 7.926H1.5z" fill="#c2e8ff"></path><path d="M9.861 5a3.996 3.996 0 013.794 2.732L16.084 15H2V5h7.861m0-1H1v12h16.472l-2.869-8.585A5 5 0 009.861 4z" fill="#c74343"></path></g><path fill="#c2e8ff" d="M1 5h2v10H1z"></path></svg>