<svg viewBox="0 0 40 40" xmlns="http://www.w3.org/2000/svg"><path d="M24.262 38.5c-3.767 0-7.803-1.716-10.24-4.315l3.858-2.51c.713.87 2.694 2.825 6.12 2.825 3.187 0 5.5-1.893 5.5-4.5V11c0-2.602-2.259-5.5-5.5-5.5-5.018 0-11.253 3.642-13.478 6.899-1.115 1.638-.593 3.252-.407 3.708.753 1.848.305 2.128-.264 2.484l-.343.219c-.32.207-.573.371-.887.49-.356.134-.65.2-.897.2-.483 0-1.064-.236-1.708-1.987-.67-1.819-1.115-4.358 1.411-7.867C10.601 4.979 18.93 1.5 24.262 1.5c5.525 0 9.238 3.818 9.238 9.5v19c0 5.084-3.712 8.5-9.238 8.5z" fill="#ffc49c"></path><path d="M24.262 2C29.57 2 33 5.533 33 11v19c0 4.785-3.512 8-8.738 8-3.426 0-7.079-1.468-9.453-3.731l2.982-1.94A8.35 8.35 0 0024 35c3.477 0 6-2.103 6-5V11c0-2.838-2.464-6-6-6-5.321 0-11.591 3.751-13.892 7.118-1.256 1.846-.666 3.665-.456 4.176.595 1.459.36 1.606-.063 1.871-.126.078-.242.153-.353.225-.307.199-.529.342-.789.441-.297.112-.54.169-.723.169-.172 0-.629 0-1.239-1.66-.666-1.809-1.027-4.104 1.363-7.424C10.929 5.385 19.055 2 24.262 2m0-1C18.783 1 10.339 4.475 7.021 9.354c-2.745 3.813-2.129 6.553-1.474 8.332C6.164 19.364 6.829 20 7.724 20c.325 0 .68-.084 1.075-.232.479-.183.822-.445 1.318-.753.666-.417 1.363-.887.462-3.098-.076-.185-.685-1.704.357-3.236C13.17 9.409 19.263 6 24 6c2.906 0 5 2.578 5 5v19c0 2.381-2.189 4-5 4-4.089 0-6-3-6-3l-4.738 3.082c2.604 3.098 7.077 4.918 11 4.918C29.774 39 34 35.65 34 30V11c0-5.648-3.589-10-9.738-10z" fill="#b08159"></path><path d="M15.079 34.5a1.83 1.83 0 01-.328-.028c-.309-.057-.714-.274-1.141-.612-1.058-.834-1.529-2.528-.487-3.919 5.226-4.704 3.058-11.565 2.57-12.893-.626-2.625.053-2.79 1.54-3.153l.32-.079c.709-.176 1.27-.315 1.657-.315.486 0 .82.142 1.349 2.114l.031.104c.728 2.4 2.664 10.758-2.967 17.553-.53.695-1.642 1.228-2.544 1.228z" fill="#f78f8f"></path><path d="M19.21 14c.168 0 .398 0 .866 1.744l.035.119c.71 2.339 2.6 10.485-2.9 17.123-.418.549-1.394 1.014-2.133 1.014-.087 0-.167-.007-.235-.019-.225-.041-.569-.233-.924-.515a2.316 2.316 0 01-.447-3.156c5.372-4.935 3.241-11.917 2.702-13.405-.501-2.115-.236-2.18 1.178-2.525l.179-.044.143-.035c.676-.168 1.21-.301 1.536-.301m0-1c-.476 0-1.088.159-1.92.366-1.625.402-2.853.572-2.076 3.826.017.068 2.994 7.499-2.491 12.449a3.314 3.314 0 00.577 4.611c.399.317.895.627 1.362.713.132.023.272.035.416.035 1.029 0 2.303-.585 2.929-1.411 6.491-7.833 3.142-17.704 3.035-18.105C20.529 13.573 20.113 13 19.21 13z" fill="#c74343"></path><path d="M15.5 31a.5.5 0 110 1 .5.5 0 010-1" fill="#36404d"></path><path d="M9.976 14.889c-.065.014-1.6.343-3.007 1.498l.608.831C8.715 16.282 9.987 16.003 10 16l-.024-1.111z" fill="#b08159"></path></svg>