<svg viewBox="0 0 40 40" xmlns="http://www.w3.org/2000/svg"><rect x="2.5" y="2.5" width="35" height="35" rx="2.27" ry="2.27" fill="#ffeea3"/><path d="M35.23 3A1.77 1.77 0 0137 4.77v30.46A1.77 1.77 0 0135.23 37H4.77A1.77 1.77 0 013 35.23V4.77A1.77 1.77 0 014.77 3h30.46m0-1H4.77A2.77 2.77 0 002 4.77v30.46A2.77 2.77 0 004.77 38h30.46A2.77 2.77 0 0038 35.23V4.77A2.77 2.77 0 0035.23 2z" fill="#ba9b48"></path><path fill="none" stroke="#ba9b48" stroke-miterlimit="10" d="M28.31 11.69L8.23 31.77"></path><path d="M28 12.51a5 5 0 01-.52 0 3.67 3.67 0 01.9-3A3.43 3.43 0 0130.9 8.5a4.51 4.51 0 01.57 0 3.84 3.84 0 01-.89 3.06 3.55 3.55 0 01-2.58.95z" fill="#a6714e"></path><path d="M30.9 9h.1a3.1 3.1 0 01-.77 2.24A3.06 3.06 0 0128 12a3 3 0 01.79-2.21A2.94 2.94 0 0130.9 9m0-1a3.91 3.91 0 00-2.82 1.09 4.29 4.29 0 00-1 3.84A4.93 4.93 0 0028 13a4 4 0 002.89-1.06 4.54 4.54 0 001-3.84 4.47 4.47 0 00-1-.11z" fill="#7a4f34"></path><path d="M23.45 15.23a3.73 3.73 0 01-1.57-2.85 3.7 3.7 0 011.57-2.85A3.91 3.91 0 0125 12.38a3.89 3.89 0 01-1.55 2.85z" fill="#a6714e"></path><path d="M23.45 10.19a3.17 3.17 0 011.09 2.19 3.17 3.17 0 01-1.09 2.19 3.05 3.05 0 01-1.06-2.19 3.05 3.05 0 011.06-2.19m0-1.27a4.36 4.36 0 00-2.08 3.46 4.36 4.36 0 002.08 3.46 4.62 4.62 0 002.08-3.46 4.62 4.62 0 00-2.08-3.46z" fill="#7a4f34"></path><path d="M27.62 18.12a3.91 3.91 0 01-2.85-1.59A3.72 3.72 0 0127.62 15a3.7 3.7 0 012.85 1.57 3.91 3.91 0 01-2.85 1.55z" fill="#a6714e"></path><path d="M27.62 15.46a3.05 3.05 0 012.19 1.06 3.16 3.16 0 01-2.19 1.09 3.17 3.17 0 01-2.19-1.09 3.05 3.05 0 012.19-1.06m0-1a4.36 4.36 0 00-3.46 2.08 4.62 4.62 0 003.46 2.08 4.62 4.62 0 003.46-2.08 4.36 4.36 0 00-3.46-2.08z" fill="#7a4f34"></path><path d="M19.3 19.39a3.73 3.73 0 01-1.57-2.85 3.73 3.73 0 011.57-2.85 3.91 3.91 0 011.59 2.85 3.91 3.91 0 01-1.59 2.85z" fill="#a6714e"></path><path d="M19.29 14.35a3.17 3.17 0 011.09 2.19 3.17 3.17 0 01-1.09 2.19 3.05 3.05 0 01-1.06-2.19 3.05 3.05 0 011.06-2.19m0-1.27a4.36 4.36 0 00-2.08 3.46 4.36 4.36 0 002.1 3.46 4.62 4.62 0 002.08-3.46 4.62 4.62 0 00-2.08-3.46z" fill="#7a4f34"></path><path d="M23.46 22.27a3.91 3.91 0 01-2.85-1.59 3.73 3.73 0 012.85-1.57 3.7 3.7 0 012.85 1.57 3.91 3.91 0 01-2.85 1.59z" fill="#a6714e"></path><path d="M23.46 19.62a3.05 3.05 0 012.19 1.06 3.16 3.16 0 01-2.19 1.09 3.17 3.17 0 01-2.19-1.09 3.05 3.05 0 012.19-1.06m0-1A4.36 4.36 0 0020 20.69a4.62 4.62 0 003.46 2.08 4.62 4.62 0 003.46-2.08 4.36 4.36 0 00-3.46-2.08z" fill="#7a4f34"></path><path d="M15.15 23.54a3.73 3.73 0 01-1.57-2.85 3.73 3.73 0 011.57-2.85 3.91 3.91 0 011.59 2.85 3.89 3.89 0 01-1.59 2.85z" fill="#a6714e"></path><path d="M15.14 18.5a3.17 3.17 0 011.09 2.19 3.17 3.17 0 01-1.09 2.19 3.05 3.05 0 01-1.06-2.19 3.05 3.05 0 011.06-2.19m0-1.27a4.36 4.36 0 00-2.08 3.46 4.36 4.36 0 002.08 3.46 4.62 4.62 0 002.08-3.46 4.62 4.62 0 00-2.08-3.46z" fill="#7a4f34"></path><path d="M19.31 26.42a3.89 3.89 0 01-2.85-1.58 3.73 3.73 0 012.85-1.57 3.7 3.7 0 012.85 1.57 3.91 3.91 0 01-2.85 1.58z" fill="#a6714e"></path><path d="M19.31 23.77a3.05 3.05 0 012.19 1.06 3.16 3.16 0 01-2.19 1.09 3.17 3.17 0 01-2.19-1.09 3.05 3.05 0 012.19-1.06m0-1a4.36 4.36 0 00-3.46 2.08 4.62 4.62 0 003.46 2.08 4.62 4.62 0 003.46-2.08 4.36 4.36 0 00-3.46-2.08z" fill="#7a4f34"></path><path d="M11 27.69a3.73 3.73 0 01-1.57-2.85A3.73 3.73 0 0111 22a3.91 3.91 0 011.59 2.85A3.91 3.91 0 0111 27.69z" fill="#a6714e"></path><path d="M11 22.66a3.17 3.17 0 011.09 2.19A3.17 3.17 0 0111 27a3.05 3.05 0 01-1.06-2.19A3.05 3.05 0 0111 22.66m0-1.27a4.36 4.36 0 00-2.08 3.46A4.36 4.36 0 0011 28.31a4.62 4.62 0 002.08-3.46A4.62 4.62 0 0011 21.38z" fill="#7a4f34"></path><path d="M15.15 30.58A3.89 3.89 0 0112.31 29a3.73 3.73 0 012.85-1.57A3.73 3.73 0 0118 29a3.91 3.91 0 01-2.85 1.58z" fill="#a6714e"></path><path d="M15.15 27.92A3.05 3.05 0 0117.34 29a3.17 3.17 0 01-2.19 1.09A3.17 3.17 0 0113 29a3.05 3.05 0 012.19-1.06m0-1a4.36 4.36 0 00-3.5 2.06 4.62 4.62 0 003.46 2.08A4.62 4.62 0 0018.62 29a4.36 4.36 0 00-3.46-2.08z" fill="#7a4f34"></path></svg>