<svg viewBox="0 0 40 40" xmlns="http://www.w3.org/2000/svg"><path d="M4 37.5A2.503 2.503 0 011.5 35V4c0-1.378 1.122-2.5 2.5-2.5h31c1.378 0 2.5 1.122 2.5 2.5v31c0 1.378-1.122 2.5-2.5 2.5H4z" fill="#f5ce85"></path><path d="M35 2c1.103 0 2 .897 2 2v31c0 1.103-.897 2-2 2H4c-1.103 0-2-.897-2-2V4c0-1.103.897-2 2-2h31m0-1H4a3 3 0 00-3 3v31a3 3 0 003 3h31a3 3 0 003-3V4a3 3 0 00-3-3z" fill="#967a44"></path><path d="M21 30.923C19.614 31.641 17.89 32 15.829 32c-2.67 0-4.808-.842-6.416-2.525C7.804 27.79 7 25.582 7 22.846c0-2.94.905-5.316 2.714-7.128C11.523 13.905 13.81 13 16.573 13c1.779 0 3.255.252 4.427.756v3.026c-1.241-.735-2.609-1.103-4.106-1.103-1.994 0-3.608.637-4.844 1.911-1.237 1.274-1.854 2.974-1.854 5.102 0 2.026.577 3.639 1.732 4.84s2.674 1.801 4.556 1.801c1.736 0 3.242-.41 4.517-1.23v2.82z" fill="#967a44"></path><g><path d="M32.494 12.723c0 .486-.08.928-.239 1.328-.16.4-.381.745-.664 1.035-.283.29-.619.515-1.008.674-.39.16-.811.24-1.265.24-.486 0-.932-.094-1.339-.283a2.875 2.875 0 01-1.052-.843c-.294-.373-.523-.837-.684-1.392-.162-.556-.243-1.2-.243-1.932 0-.895.107-1.688.32-2.38s.507-1.272.88-1.74a3.746 3.746 0 011.315-1.065A3.695 3.695 0 0130.147 6c.364 0 .696.025.995.074.299.049.538.117.718.202v1.409c-.229-.117-.474-.216-.735-.297s-.56-.121-.897-.121c-.378 0-.726.076-1.045.229a2.309 2.309 0 00-.826.671 3.298 3.298 0 00-.546 1.092 5.289 5.289 0 00-.206 1.5h.04c.207-.319.487-.571.84-.755.353-.184.768-.276 1.244-.276.423 0 .804.069 1.143.206.339.137.629.335.87.593s.426.573.556.944c.13.372.196.789.196 1.252zm-1.578.128c0-.279-.033-.533-.098-.762a1.632 1.632 0 00-.297-.59 1.34 1.34 0 00-.499-.381c-.2-.09-.435-.135-.705-.135-.27 0-.507.048-.711.145s-.376.224-.516.381a1.592 1.592 0 00-.314.539c-.07.202-.105.409-.105.62 0 .229.033.464.098.705.065.241.165.46.3.657.135.198.307.361.516.489.209.128.457.192.745.192.256 0 .483-.047.681-.142.198-.094.363-.225.496-.391s.234-.363.303-.59.106-.472.106-.737z" fill="#967a44"></path></g></svg>