<svg viewBox="0 0 40 40" xmlns="http://www.w3.org/2000/svg"><path d="M4 30.5A2.503 2.503 0 011.5 28V8c0-1.378 1.121-2.5 2.5-2.5h32c1.379 0 2.5 1.122 2.5 2.5v20c0 1.378-1.121 2.5-2.5 2.5H4z" fill="#f78f8f"></path><path d="M36 6c1.103 0 2 .897 2 2v20c0 1.103-.897 2-2 2H4c-1.103 0-2-.897-2-2V8c0-1.103.897-2 2-2h32m0-1H4a3 3 0 00-3 3v20a3 3 0 003 3h32a3 3 0 003-3V8a3 3 0 00-3-3z" fill="#c74343"></path><path fill="#36404d" d="M1 10h38v4H1z"></path><path fill="#fff" d="M5 16h30v2H5z"></path><path d="M20 35.5c-6.341 0-11.5-5.159-11.5-11.5S13.659 12.5 20 12.5 31.5 17.659 31.5 24 26.341 35.5 20 35.5z" fill="#f08181"></path><path d="M20 13c6.065 0 11 4.935 11 11s-4.935 11-11 11S9 30.065 9 24s4.935-11 11-11m0-1c-6.627 0-12 5.373-12 12s5.373 12 12 12 12-5.373 12-12-5.373-12-12-12z" fill="#66798f"></path><path d="M20 14c5.514 0 10 4.486 10 10s-4.486 10-10 10-10-4.486-10-10 4.486-10 10-10m0-1c-6.075 0-11 4.925-11 11s4.925 11 11 11 11-4.925 11-11-4.925-11-11-11z" fill="#ffc2c2"></path><path d="M9 24c0 1.413.276 2.759.761 4h20.477a10.955 10.955 0 00-1.753-11h-16.97A10.955 10.955 0 009 24z" fill="#fff"></path><path d="M12.864 17A9.962 9.962 0 0010 24c0 1.423.302 2.774.838 4h18.325A9.974 9.974 0 0030 24a9.962 9.962 0 00-2.864-7H12.864z" fill="#e1ebf2"></path><g><path d="M12.406 22.784c0 1.219.661 2.789 2.688 2.789.628 0 1.152-.109 1.574-.328v-.859c-.388.25-.846.375-1.375.375-.825 0-1.914-.488-1.914-2.023 0-1.633 1.197-2.137 2.039-2.137.456 0 .872.112 1.25.336v-.922c-.357-.154-.806-.23-1.348-.23-1.39-.001-2.914.91-2.914 2.999zm6.839-1.488c0-.639.782-.738 1.145-.738.5 0 .909.115 1.227.344v-.918c-.268-.133-.695-.199-1.281-.199-1.626 0-2.066.937-2.066 1.539 0 1.746 2.613 1.63 2.613 2.719 0 .705-.77.762-1.16.762-.826 0-1.363-.426-1.449-.504v.957c.078.049.617.316 1.48.316 1.927 0 2.105-1.122 2.105-1.543-.001-1.747-2.614-1.689-2.614-2.735zm6.617-.695c.456 0 .872.112 1.25.336v-.922c-.357-.154-.806-.23-1.348-.23-.95 0-2.914.555-2.914 3 0 2.232 1.749 2.789 2.688 2.789.628 0 1.152-.109 1.574-.328v-.859c-.388.25-.846.375-1.375.375-.573 0-1.914-.316-1.914-2.023 0-1.829 1.432-2.138 2.039-2.138z" fill="#36404d"></path></g></svg>