<svg viewBox="0 0 40 40" xmlns="http://www.w3.org/2000/svg"><path d="M28.302 39.5a.478.478 0 01-.154-.025L7.251 32.594a.492.492 0 01-.289-.25.496.496 0 01-.029-.381l9.696-29.445a.506.506 0 01.631-.318l20.896 6.881c.126.041.229.13.289.25.061.12.071.255.029.381l-9.696 29.445a.505.505 0 01-.476.343z" fill="#e1ebf2"></path><path d="M17.107 2.675L38 9.556 28.304 39 7.408 32.119l9.699-29.444m-.001-1c-.42 0-.814.268-.952.687L6.458 31.806a1.004 1.004 0 00.637 1.263l20.896 6.881a1.005 1.005 0 001.263-.637L38.95 9.868a1.004 1.004 0 00-.637-1.263l-20.896-6.88a.991.991 0 00-.311-.05z" fill="#788b9c"></path><path d="M34 15.623l-.864-.285-.029-1.349-1.868-.615-.809 1.074-.861-.284L32.911 10l.888.292.201 5.331zm-.891-2.346l-.035-2.111c0-.068.012-.175.035-.319l-.013-.004a2.065 2.065 0 01-.164.276l-1.276 1.68 1.453.478zM11.64 26.197l.864.285.029 1.349 1.868.615.809-1.074.861.284-3.342 4.164-.888-.292-.201-5.331zm.891 2.345l.035 2.111c0 .068-.012.175-.035.319l.013.004c.061-.119.116-.211.164-.276l1.276-1.68-1.453-.478z" fill="#c74343"></path><g><path d="M21.993 26.42c-1.351-2.203-4.097-7.357-3.4-9.489.447-1.368 1.667-2.288 3.035-2.288.31 0 .616.049.912.146.845.276 1.156.955 1.587 1.893.081.176.164.356.252.537l.278.57.489-.404c.695-.574 1.431-.864 2.188-.864.341 0 .692.059 1.046.176 1.616.536 2.478 2.356 1.921 4.059-.987 3.021-6.791 5.153-8.308 5.664z" fill="#f78f8f"></path><path d="M21.627 15.144c.257 0 .511.041.757.121.61.199.849.668 1.288 1.626.083.18.167.363.257.548l.557 1.14.979-.808c.603-.498 1.232-.75 1.869-.75.287 0 .586.051.889.151 1.355.449 2.075 1.988 1.603 3.429-.781 2.39-5.242 4.389-7.614 5.219-1.732-2.886-3.67-7.126-3.144-8.734.38-1.162 1.408-1.942 2.559-1.942m0-1c-1.535 0-2.985 1.028-3.51 2.632-.969 2.964 3.658 10.241 3.658 10.241s7.775-2.353 9.001-6.104c.646-1.975-.36-4.066-2.239-4.689a3.812 3.812 0 00-1.203-.202c-.961 0-1.801.397-2.506.979-.57-1.168-.891-2.28-2.133-2.686a3.42 3.42 0 00-1.068-.171z" fill="#c74343"></path></g><g><path d="M2 32.5a.5.5 0 01-.5-.5V1A.5.5 0 012 .5h22a.5.5 0 01.5.5v31a.5.5 0 01-.5.5H2z" fill="#fff"></path><path d="M24 1v31H2V1h22m0-1H2c-.55 0-1 .45-1 1v31c0 .55.45 1 1 1h22c.55 0 1-.45 1-1V1c0-.55-.45-1-1-1z" fill="#788b9c"></path><path d="M21.833 8h-.91l-.45-1.273h-1.967L18.074 8h-.907l1.872-5h.934l1.86 5zm-1.58-1.949l-.694-1.994a2.325 2.325 0 01-.066-.314h-.014a2.02 2.02 0 01-.07.314l-.687 1.994h1.531zM4.167 25h.91l.45 1.273h1.967L7.926 25h.907L6.96 30h-.934l-1.859-5zm1.58 1.949l.694 1.994c.021.065.043.17.066.314h.014a2.02 2.02 0 01.07-.314l.687-1.994H5.747z" fill="#788b9c"></path><path d="M9.792 20.5c-1.638 0-3.292-.899-3.292-2.907 0-3.233 5.229-7.096 6.5-7.986 1.271.892 6.5 4.756 6.5 7.986 0 2.008-1.653 2.907-3.292 2.907H9.792z" fill="#b6c9d6"></path><path d="M13 10.214c2.076 1.482 6 4.812 6 7.378C19 19.256 17.598 20 16.208 20H9.792C8.402 20 7 19.256 7 17.593c0-2.562 3.924-5.895 6-7.379M13 9s-7 4.619-7 8.593C6 19.72 7.698 21 9.792 21H16.208C18.302 21 20 19.72 20 17.593 20 13.619 13 9 13 9z" fill="#788b9c"></path><g><path d="M12.05 22.5c.207-.301.341-.646.405-1h1.09c.064.354.198.699.405 1h-1.9z" fill="#b6c9d6"></path><path d="M14 21h-2c0 1.029-.651 2-2 2h6c-1.349 0-2-.971-2-2z" fill="#788b9c"></path></g><g><path fill="#b6c9d6" d="M10 23h6v1h-6z"></path><path fill="#788b9c" d="M16 23h-6v1h6v-1z"></path></g></g></svg>