<svg viewBox="0 0 40 40" xmlns="http://www.w3.org/2000/svg"><path d="M4 30.5A2.503 2.503 0 011.5 28V8c0-1.378 1.121-2.5 2.5-2.5h32c1.379 0 2.5 1.122 2.5 2.5v20c0 1.378-1.121 2.5-2.5 2.5H4z" fill="#f78f8f"></path><path d="M36 6c1.103 0 2 .897 2 2v20c0 1.103-.897 2-2 2H4c-1.103 0-2-.897-2-2V8c0-1.103.897-2 2-2h32m0-1H4a3 3 0 00-3 3v20a3 3 0 003 3h32a3 3 0 003-3V8a3 3 0 00-3-3z" fill="#c74343"></path><path fill="#36404d" d="M1 10h38v4H1z"></path><path fill="#fff" d="M5 16h30v2H5z"></path><path d="M20 35.5c-6.341 0-11.5-5.159-11.5-11.5S13.659 12.5 20 12.5 31.5 17.659 31.5 24 26.341 35.5 20 35.5z" fill="#f08181"></path><path d="M20 13c6.065 0 11 4.935 11 11s-4.935 11-11 11S9 30.065 9 24s4.935-11 11-11m0-1c-6.627 0-12 5.373-12 12s5.373 12 12 12 12-5.373 12-12-5.373-12-12-12z" fill="#66798f"></path><path d="M20 14c5.514 0 10 4.486 10 10s-4.486 10-10 10-10-4.486-10-10 4.486-10 10-10m0-1c-6.075 0-11 4.925-11 11s4.925 11 11 11 11-4.925 11-11-4.925-11-11-11z" fill="#ffc2c2"></path><path d="M9 24c0 1.413.276 2.759.761 4h20.477a10.955 10.955 0 00-1.753-11h-16.97A10.955 10.955 0 009 24z" fill="#fff"></path><path d="M12.864 17A9.962 9.962 0 0010 24c0 1.423.302 2.774.838 4h18.325A9.974 9.974 0 0030 24a9.962 9.962 0 00-2.864-7H12.864z" fill="#e1ebf2"></path><g><path d="M11.387 23.054c0 1.241.673 2.839 2.736 2.839.639 0 1.173-.111 1.602-.334v-.875c-.395.254-.861.382-1.4.382-.839 0-1.948-.497-1.948-2.06 0-1.662 1.219-2.175 2.075-2.175.464 0 .888.114 1.272.342v-.938c-.362-.157-.819-.235-1.371-.235-1.415 0-2.966.927-2.966 3.054zm8.346 1.392a2.516 2.516 0 00-.115.489h-.016a2.688 2.688 0 00-.103-.481l-1.408-4.326h-1.034l2.012 5.702h1.058l2.048-5.702h-1.002l-1.44 4.318zm7.746-4.318l-1.439 4.318a2.516 2.516 0 00-.115.489h-.016a2.688 2.688 0 00-.103-.481l-1.408-4.326h-1.034l2.012 5.702h1.058l2.048-5.702h-1.003z" fill="#36404d"></path></g></svg>