<svg viewBox="0 0 40 40" xmlns="http://www.w3.org/2000/svg"><circle cx="13" cy="8" r="6.5" fill="#ffeea3"></circle><path d="M13 2c3.308 0 6 2.692 6 6s-2.692 6-6 6-6-2.692-6-6 2.692-6 6-6m0-1a7 7 0 100 14 7 7 0 000-14z" fill="#ba9b48"></path><path d="M1.5 31.429v-3.5c0-6.341 5.159-11.5 11.5-11.5s11.5 5.159 11.5 11.5v3.5h-23z" fill="#8bb7f0"></path><path d="M13 16.929c6.065 0 11 4.935 11 11v3H2v-3c0-6.066 4.935-11 11-11m0-1c-6.627 0-12 5.373-12 12v4h24v-4c0-6.628-5.373-12-12-12z" fill="#4e7ab5"></path><path fill="#dbf2ff" d="M20.5 38.5V28.202l8.499-5.23 8.501 5.23V38.5z"></path><path d="M28.999 23.559L37 28.482V38H21v-9.518l7.999-4.923m-.001-1.174L20 27.923V39h18V27.923l-9.002-5.538z" fill="#7496c4"></path><g><path fill="#f78f8f" d="M28.998 23.413L19.5 29.259v-2.826l9.498-5.846 9.502 5.846v2.826z"></path><path d="M28.998 21.174L38 26.713v1.652l-8.478-5.216-.524-.322-.524.323L20 28.364v-1.652l8.998-5.538m0-1.174L19 26.154v4L28.998 24 39 30.154v-4L28.998 20z" fill="#c74343"></path></g><path fill="#b5ddf5" d="M21 37h16v1H21z"></path><g><path fill="#ffc49c" d="M26.5 31.5h5v7h-5z"></path><path d="M31 32v6h-4v-6h4m1-1h-6v8h6v-8z" fill="#a16a4a"></path></g></svg>