<svg viewBox="0 0 40 40" xmlns="http://www.w3.org/2000/svg"><path fill="#f5ce85" d="M16.5 8.5h6v6h-6z"></path><path d="M22 9v5h-5V9h5m1-1h-7v7h7V8z" fill="#967a44"></path><path fill="#f5ce85" d="M22.5 8.5h6v6h-6z"></path><path d="M28 9v5h-5V9h5m1-1h-7v7h7V8z" fill="#967a44"></path><path fill="#f5ce85" d="M28.5 8.5h6v6h-6z"></path><path d="M34 9v5h-5V9h5m1-1h-7v7h7V8z" fill="#967a44"></path><path fill="#f5ce85" d="M16.5 14.5h6v6h-6z"></path><path d="M22 15v5h-5v-5h5m1-1h-7v7h7v-7z" fill="#967a44"></path><path fill="#f5ce85" d="M22.5 14.5h6v6h-6z"></path><path d="M28 15v5h-5v-5h5m1-1h-7v7h7v-7z" fill="#967a44"></path><path fill="#f5ce85" d="M28.5 14.5h6v6h-6z"></path><path d="M34 15v5h-5v-5h5m1-1h-7v7h7v-7z" fill="#967a44"></path><path fill="#66798f" d="M5 1h1v7H5z"></path><path fill="#c2e8ff" d="M1.5 19.5v-13h10.89l-.88 4.402-.009 8.598z"></path><path d="M11.78 7l-.761 3.804-.019.097V19H2V7h9.78M13 6H1v14h11v-9l1-5z" fill="#7496c4"></path><g><path d="M4.208 34.557c-.058-2.056-.513-3.296-1.034-4.718-.726-1.978-1.624-4.427-1.672-10.339h22.506c.665 0 3.604-.157 6.215-3h8.274c-.078 7.803-1.993 10.833-3.539 13.277-.944 1.494-1.769 2.798-1.875 4.783l-13.877 1.834-14.998-1.837z" fill="#f78f8f"></path><path d="M37.99 17c-.153 7.288-1.976 10.173-3.454 12.51-.88 1.391-1.717 2.716-1.918 4.607L19.203 35.89 4.689 34.112c-.11-1.895-.566-3.138-1.046-4.445-.727-1.983-1.546-4.215-1.635-9.667l21.943-.001s.043.002.124.002c.6 0 3.638-.149 6.364-3.001h7.551M39 16h-9c-2.531 2.872-5.424 3.001-5.924 3.001L24 19H1c0 10.857 2.714 10.592 2.714 16l15.493 1.898L33.571 35c0-5.408 5.429-5.429 5.429-19z" fill="#c74343"></path></g><path fill="#7496c4" d="M8 9v3h3l.75-3zM4 9h3v3H4z"></path><g><path d="M1.69 23.5c-.128-1.16-.181-2.299-.189-4h22.801l.142-.269c.058-.111 1.478-2.731 5.056-2.731h8.998c-.026 2.755-.268 5.002-.753 7H1.69z" fill="#c8d1db"></path><path d="M37.99 17c-.045 2.316-.253 4.259-.642 6H2.142a36.066 36.066 0 01-.137-3H24l.602-.007.283-.528c.054-.1 1.359-2.465 4.615-2.465h8.49M39 16h-9.5c-3.947 0-5.5 3-5.5 3H1c0 2.223.064 3.546.245 5h36.889c.525-2 .866-4.484.866-8z" fill="#66798f"></path></g><path d="M35 24h-5v-1a2 2 0 012-2h1a2 2 0 012 2v1z" fill="#66798f"></path><path d="M1 39h38v-6.123c-1.308-.263-2.852-.877-4-.877-1.458 0-3.563 1-5 1-1.438 0-3.542-1-5-1s-3.563 1-5 1c-1.438 0-3.542-1-5-1s-3.563 1-5 1c-1.438 0-3.542-1-5-1-1.148 0-2.692.614-4 .877V39z" fill="#8bb7f0"></path><g><path d="M35 32c-1.458 0-3.563 1-5 1-1.438 0-3.542-1-5-1s-3.563 1-5 1c-1.438 0-3.542-1-5-1s-3.563 1-5 1c-1.438 0-3.542-1-5-1-1.148 0-2.692.614-4 .877V33.9c.574-.103 1.17-.271 1.754-.435C3.566 33.237 4.406 33 5 33s1.434.237 2.246.465c.934.263 1.9.535 2.754.535s1.82-.272 2.754-.535C13.566 33.237 14.406 33 15 33s1.434.237 2.246.465c.934.263 1.9.535 2.754.535s1.82-.272 2.754-.535C23.566 33.237 24.406 33 25 33s1.434.237 2.246.465c.934.263 1.9.535 2.754.535s1.82-.272 2.754-.535C33.566 33.237 34.406 33 35 33s1.434.237 2.246.465c.584.165 1.18.332 1.754.435v-1.023c-1.308-.263-2.852-.877-4-.877z" fill="#4e7ab5"></path></g></svg>