<svg viewBox="0 0 40 40" xmlns="http://www.w3.org/2000/svg"><path fill="#b6c9d6" stroke="#788b9c" stroke-linejoin="round" stroke-miterlimit="10" d="M19.5 12v24"></path><path d="M1.5 38.5V37c0-1.378 1.122-2.5 2.5-2.5h32c1.378 0 2.5 1.122 2.5 2.5v1.5h-37z" fill="#f78f8f"></path><path d="M36 35c1.103 0 2 .897 2 2v1H2v-1c0-1.103.897-2 2-2h32m0-1H4a3 3 0 00-3 3v2h38v-2a3 3 0 00-3-3z" fill="#c74343"></path><path fill="#ffd1d1" d="M16 35h8v3h-8zM29 35h6v3h-6zM5 35h6v3H5z"></path><path d="M35.5 12.5c-1.12 0-2.141-.428-2.665-1.116l-.351-.46-.404.413c-.703.717-2.075 1.163-3.58 1.163-1.555 0-2.988-.485-3.652-1.235l-.355-.402-.375.382c-.75.763-2.366 1.255-4.118 1.255-1.752 0-3.368-.493-4.117-1.255l-.376-.382-.355.402c-.664.75-2.097 1.235-3.652 1.235-1.506 0-2.878-.446-3.58-1.163l-.405-.413-.35.459C6.64 12.072 5.619 12.5 4.5 12.5c-1.626 0-3-.916-3-2V8.349L20 1.533l18.5 6.816V10.5c0 1.084-1.374 2-3 2z" fill="#f78f8f"></path><path d="M20 2.066l18 6.632V10.5c0 .709-1.027 1.5-2.5 1.5-.952 0-1.842-.361-2.267-.919l-.701-.92-.809.826C31.266 11.454 30.147 12 28.5 12c-1.612 0-2.808-.536-3.277-1.067l-.711-.803-.752.765C23.22 11.445 21.848 12 20 12s-3.22-.555-3.76-1.105l-.752-.765-.711.803C14.308 11.464 13.112 12 11.5 12c-1.647 0-2.766-.546-3.223-1.013l-.809-.826-.701.92C6.342 11.639 5.452 12 4.5 12 3.027 12 2 11.209 2 10.5V8.697l18-6.631M20 1L1 8v2.5C1 11.881 2.567 13 4.5 13c1.328 0 2.469-.535 3.062-1.313C8.325 12.465 9.792 13 11.5 13c1.774 0 3.293-.575 4.026-1.404C16.341 12.425 18.029 13 20 13s3.659-.575 4.474-1.404C25.207 12.425 26.726 13 28.5 13c1.708 0 3.175-.535 3.937-1.313.594.778 1.735 1.313 3.063 1.313 1.933 0 3.5-1.119 3.5-2.5V8L20 1z" fill="#c74343"></path><path d="M9.609 22.851c.655-1.726 1.978-2.351 2.962-2.351 1.557 0 2.556 1.246 2.878 1.718l-.031.074c-.616-.7-1.371-1.092-2.126-1.092-.637 0-1.783.299-2.651 2.189l-1.032-.538z" fill="#f5ce85"></path><path d="M11.814 21.143c-.468.298-.956.785-1.39 1.568l-.168-.088c.408-.807.992-1.268 1.558-1.48M12.572 20c-1.212 0-2.899.808-3.572 3.096l1.894.989c.644-1.718 1.534-2.385 2.398-2.385.761 0 1.501.517 2.035 1.287a.235.235 0 00.077.013c.361 0 .596-.847.596-.847S14.799 20 12.572 20z" fill="#967a44"></path><g><path d="M11.735 30.821a849.24 849.24 0 012.628-7.394c.354-1.181 1.392-1.927 2.65-1.927h2.714c2.011 0 2.846-1.796 3.398-2.984.146-.314.279-.604.419-.828.889-1.333 2.309-1.616 3.342-1.616.125 0 .24.004.343.011l-.165.577 1.84 3.631-.635.761-1.975-.904-.239.343c-1.156 1.663-1.133 2.686-1.126 2.797l.003.065 2.317 7.063-1.678.507c-.586-1.301-2.55-4.908-6.251-4.908-3.656 0-5.411 3.849-5.92 5.222l-1.665-.416z" fill="#f5ce85"></path><path d="M26.567 16.582l-.037.129.177.35 1.602 3.162-.179.215-1.248-.571-.76-.348-.477.687c-1.226 1.764-1.228 2.901-1.216 3.111l.008.13.041.124 2.137 6.515-.78.236c-.811-1.616-2.876-4.806-6.514-4.806-3.499 0-5.483 3.259-6.244 5.126l-.69-.173c.555-1.588 1.682-4.743 2.447-6.872l.009-.025.008-.026c.281-.939 1.131-1.546 2.163-1.546h2.714c2.33 0 3.282-2.049 3.851-3.274.14-.302.273-.587.374-.749.688-1.031 1.748-1.339 2.614-1.395m.32-1.01c-1.055 0-2.719.28-3.766 1.851C22.443 18.508 21.9 21 19.729 21h-2.714c-1.493 0-2.714.901-3.121 2.258 0 0-2.699 7.513-2.8 7.917l2.633.659c.011-.044 1.545-5.319 5.595-5.319 4.061 0 5.908 4.834 5.964 5.016l2.598-.785c-.03-.098-2.455-7.488-2.455-7.488s-.053-.913 1.038-2.483l1.942.889 1.091-1.307-1.9-3.75.271-.95c0 .001-.398-.085-.984-.085z" fill="#967a44"></path></g><g><path d="M32.532 10.161l-.809.826C31.266 11.454 30.147 12 28.5 12c-1.612 0-2.808-.536-3.277-1.067l-.711-.803L20 2.066l12.532 8.095z" fill="#ffd1d1"></path></g><g><path d="M20 2.066l-4.512 8.064-.711.803C14.308 11.464 13.112 12 11.5 12c-1.647 0-2.766-.546-3.223-1.013l-.809-.826L20 2.066z" fill="#ffd1d1"></path></g></svg>