<svg viewBox="0 0 40 40" xmlns="http://www.w3.org/2000/svg"><path fill="none" stroke="#c74343" stroke-linecap="round" stroke-miterlimit="10" d="M4.5 38.5v-4M6.5 37.5v-3M8.5 38.5v-4M10.5 37.5v-3M12.5 38.5v-4M14.5 37.5v-3M16.5 38.5v-4M18.5 37.5v-3M21.5 37.5v-3M23.5 38.5v-4M25.5 37.5v-3M27.5 38.5v-4M29.5 37.5v-3M31.5 38.5v-4M33.5 37.5v-3M35.5 38.5v-4"></path><path fill="#f78f8f" d="M4.5 7.5h31v29h-31z"></path><path d="M35 8v28H5V8h30m1-1H4v30h32V7z" fill="#c74343"></path><path fill="#ffc49c" d="M8.5 8.167h23V32.5h-23z"></path><path d="M31 8.667V32H9V8.667h22m1-1H8V33h24V7.667z" fill="#c74343"></path><path fill="#f78f8f" d="M16.707 23L20 19.707 23.293 23 20 26.293z"></path><path d="M20 20.414L22.586 23 20 25.586 17.414 23 20 20.414M20 19l-4 4 4 4 4-4-4-4z" fill="#c74343"></path><circle cx="27" cy="18" r="1.5" fill="#f78f8f"></circle><path d="M27 17c.551 0 1 .449 1 1s-.449 1-1 1-1-.449-1-1 .449-1 1-1m0-1a2 2 0 10-.001 3.999A2 2 0 0027 16z" fill="#c74343"></path><circle cx="13" cy="18" r="1.5" fill="#f78f8f"></circle><path d="M13 17c.551 0 1 .449 1 1s-.449 1-1 1-1-.449-1-1 .449-1 1-1m0-1a2 2 0 10-.001 3.999A2 2 0 0013 16z" fill="#c74343"></path><circle cx="27" cy="28" r="1.5" fill="#f78f8f"></circle><path d="M27 27c.551 0 1 .449 1 1s-.449 1-1 1-1-.449-1-1 .449-1 1-1m0-1a2 2 0 10-.001 3.999A2 2 0 0027 26z" fill="#c74343"></path><g><circle cx="13" cy="28" r="1.5" fill="#f78f8f"></circle><path d="M13 27c.551 0 1 .449 1 1s-.449 1-1 1-1-.449-1-1 .449-1 1-1m0-1a2 2 0 10-.001 3.999A2 2 0 0013 26z" fill="#c74343"></path></g><g><circle cx="20" cy="11" r="4.5" fill="#f78f8f"></circle><path d="M20 7c2.206 0 4 1.794 4 4s-1.794 4-4 4-4-1.794-4-4 1.794-4 4-4m0-1a5 5 0 10.001 10.001A5 5 0 0020 6z" fill="#c74343"></path></g><g><path d="M4 10.5c-1.355 0-2.5-2.061-2.5-4.5S2.645 1.5 4 1.5h32c1.355 0 2.5 2.061 2.5 4.5s-1.145 4.5-2.5 4.5H4z" fill="#ffc49c"></path><path d="M36 2c.944 0 2 1.711 2 4s-1.056 4-2 4H4c-.944 0-2-1.711-2-4s1.056-4 2-4h32m0-1H4C2.343 1 1 3.239 1 6s1.343 5 3 5h32c1.657 0 3-2.239 3-5s-1.343-5-3-5z" fill="#a16a4a"></path></g><path d="M7.907 2h-1C6.497 2.914 6 4.353 6 6c0 1.647.497 3.086.907 4h1C7.497 9.086 7 7.647 7 6c0-1.647.497-3.086.907-4zM32.093 10h1c.41-.914.907-2.353.907-4 0-1.647-.497-3.086-.907-4h-1c.41.914.907 2.353.907 4 0 1.647-.497 3.086-.907 4z" fill="#e8b28e"></path></svg>