<svg viewBox="0 0 40 40" xmlns="http://www.w3.org/2000/svg"><path d="M4 19.5c-.827 0-1.5-.673-1.5-1.5v-1c0-.827.673-1.5 1.5-1.5h32c.827 0 1.5.673 1.5 1.5v1c0 .827-.673 1.5-1.5 1.5H4z" fill="#bae0bd"></path><path d="M36 16c.551 0 1 .449 1 1v1c0 .551-.449 1-1 1H4c-.551 0-1-.449-1-1v-1c0-.551.449-1 1-1h32m0-1H4a2 2 0 00-2 2v1a2 2 0 002 2h32a2 2 0 002-2v-1a2 2 0 00-2-2z" fill="#5e9c76"></path><path d="M36 28v6.5a1.5 1.5 0 01-1.5 1.5h-3a1.5 1.5 0 01-1.5-1.5V28h6zM10 28v6.5A1.5 1.5 0 018.5 36h-3A1.5 1.5 0 014 34.5V28h6z" fill="#66798f"></path><path d="M7 32.536a2.503 2.503 0 01-2.5-2.5V18.917l1.037-2.626 2.357-8.928A2.502 2.502 0 0110.312 5.5h19.377c1.134 0 2.128.766 2.417 1.863l2.339 8.872 1.055 2.682v11.12c0 1.378-1.122 2.5-2.5 2.5H7z" fill="#bae0bd"></path><path d="M29.688 6c.907 0 1.703.613 1.934 1.49l2.339 8.872.015.057.022.055L35 19.012v11.024c0 1.103-.897 2-2 2H7c-1.103 0-2-.897-2-2V19.012l1.002-2.537.022-.055.015-.057L8.378 7.49A2.001 2.001 0 0110.312 6h19.376m0-1H10.312a3 3 0 00-2.901 2.235l-2.339 8.872L4 18.821v11.214a3 3 0 003 3h26a3 3 0 003-3V18.821l-1.071-2.714-2.339-8.872A3.001 3.001 0 0029.688 5z" fill="#5e9c76"></path><circle cx="31" cy="22" r="2" fill="#fff"></circle><circle cx="9" cy="22" r="2" fill="#fff"></circle><path d="M12.599 32.5l1.048-5.769a1.5 1.5 0 011.476-1.231h9.753a1.5 1.5 0 011.476 1.232L27.4 32.5H12.599z" fill="#c8d1db"></path><path d="M24.876 26a1 1 0 01.984.821L26.802 32H13.198l.942-5.179a.999.999 0 01.984-.821h9.752m0-1h-9.753a2 2 0 00-1.968 1.642L12 33h16l-1.156-6.358A2 2 0 0024.876 25z" fill="#66798f"></path><path fill="#bae0bd" d="M4 16h32v2H4z"></path><path d="M5.749 15.5l2.146-8.137A2.5 2.5 0 0110.312 5.5h19.377c1.134 0 2.128.766 2.417 1.863l2.146 8.137H5.749z" fill="#c2e8ff"></path><path d="M29.688 6c.907 0 1.703.613 1.934 1.49l1.98 7.51H6.398l1.98-7.51A2.001 2.001 0 0110.312 6h19.376m0-1H10.312a3 3 0 00-2.901 2.235L5.1 16h29.8l-2.311-8.765A3 3 0 0029.688 5z" fill="#5e9c76"></path><circle cx="27" cy="11" r="3" fill="#8bb7f0"></circle><circle cx="20" cy="9" r="2" fill="#8bb7f0"></circle><circle cx="13" cy="11" r="3" fill="#8bb7f0"></circle></svg>