<svg viewBox="0 0 40 40" xmlns="http://www.w3.org/2000/svg"><path fill="none" stroke="#c74343" stroke-linecap="round" stroke-miterlimit="10" d="M4.5 38.5v-4M6.5 37.5v-3M8.5 38.5v-4M10.5 37.5v-3M12.5 38.5v-4M14.5 37.5v-3M16.5 38.5v-4M18.5 37.5v-3M21.5 37.5v-3M23.5 38.5v-4M25.5 37.5v-3M27.5 38.5v-4M29.5 37.5v-3M31.5 38.5v-4M33.5 37.5v-3M35.5 38.5v-4"></path><path fill="#f78f8f" d="M4.5 11.5h31v25h-31z"></path><path d="M35 12v24H5V12h30m1-1H4v26h32V11z" fill="#c74343"></path><path fill="#ffc49c" d="M8.5 11.167h23V32.5h-23z"></path><path d="M31 11.667V32H9V11.667h22m1-1H8V33h24V10.667z" fill="#c74343"></path><path fill="#f78f8f" d="M16.707 23L20 19.707 23.293 23 20 26.293z"></path><path d="M20 20.414L22.586 23 20 25.586 17.414 23 20 20.414M20 19l-4 4 4 4 4-4-4-4z" fill="#c74343"></path><circle cx="27" cy="28" r="1.5" fill="#f78f8f"></circle><path d="M27 27c.551 0 1 .449 1 1s-.449 1-1 1-1-.449-1-1 .449-1 1-1m0-1a2 2 0 10-.001 3.999A2 2 0 0027 26z" fill="#c74343"></path><circle cx="13" cy="28" r="1.5" fill="#f78f8f"></circle><path d="M13 27c.551 0 1 .449 1 1s-.449 1-1 1-1-.449-1-1 .449-1 1-1m0-1a2 2 0 10-.001 3.999A2 2 0 0013 26z" fill="#c74343"></path><path d="M4 18.5c-1.355 0-2.5-2.061-2.5-4.5S2.645 9.5 4 9.5h32c1.355 0 2.5 2.061 2.5 4.5s-1.145 4.5-2.5 4.5H4z" fill="#ffc49c"></path><path d="M36 10c.944 0 2 1.711 2 4s-1.056 4-2 4H4c-.944 0-2-1.711-2-4s1.056-4 2-4h32m0-1H4c-1.657 0-3 2.239-3 5s1.343 5 3 5h32c1.657 0 3-2.239 3-5s-1.343-5-3-5z" fill="#a16a4a"></path><path d="M7.907 10h-1c-.41.914-.907 2.353-.907 4 0 1.647.497 3.086.907 4h1C7.497 17.086 7 15.647 7 14c0-1.647.497-3.086.907-4zM32.093 18h1c.41-.914.907-2.353.907-4 0-1.647-.497-3.086-.907-4h-1c.41.914.907 2.353.907 4 0 1.647-.497 3.086-.907 4z" fill="#e8b28e"></path><path fill="#b0c1d4" d="M13 5h15v7H13z"></path><path fill="none" stroke="#66798f" stroke-linecap="round" stroke-miterlimit="10" d="M13.5 12.5V6.393M15.5 12.5V6.393M17.5 12.5V6.393M19.5 12.5V6.393M21.5 12.5V6.393M23.5 12.5V6.393M25.5 12.5V6.393M27.5 12.5V6.393"></path><g><path d="M14 6.5c-.827 0-1.5-.673-1.5-1.5s.673-1.5 1.5-1.5h13.833l2-1.5c.43-.322.963-.5 1.5-.5H37c.827 0 1.5.673 1.5 1.5s-.673 1.5-1.5 1.5h-6.167l-2 1.5c-.43.322-.962.5-1.5.5H14z" fill="#8bb7f0"></path><path d="M37 2c.551 0 1 .449 1 1s-.449 1-1 1h-6.333l-.267.2-1.867 1.4c-.344.258-.77.4-1.2.4H14c-.551 0-1-.449-1-1s.449-1 1-1h14l.267-.2 1.867-1.4c.344-.258.77-.4 1.2-.4H37m0-1h-5.667c-.649 0-1.281.211-1.8.6L27.667 3H14a2 2 0 100 4h13.333c.649 0 1.281-.211 1.8-.6L31 5h6a2 2 0 100-4z" fill="#4e7ab5"></path></g></svg>