<svg viewBox="0 0 40 40" xmlns="http://www.w3.org/2000/svg"><path fill="none" stroke="#c74343" stroke-linecap="round" stroke-miterlimit="10" d="M4.5 38.5v-4M6.5 37.5v-3M8.5 38.5v-4M10.5 37.5v-3M12.5 38.5v-4M14.5 37.5v-3M16.5 38.5v-4M18.5 37.5v-3M21.5 37.5v-3M23.5 38.5v-4M25.5 37.5v-3M27.5 38.5v-4M29.5 37.5v-3M31.5 38.5v-4M33.5 37.5v-3M35.5 38.5v-4"></path><path fill="#f78f8f" d="M4.5 20.5h31v16h-31z"></path><path d="M35 21v15H5V21h30m1-1H4v17h32V20z" fill="#c74343"></path><path fill="#ffc49c" d="M8.5 20.167h23V32.5h-23z"></path><path d="M31 20.667V32H9V20.667h22m1-1H8V33h24V19.667z" fill="#c74343"></path><circle cx="27" cy="28" r="1.5" fill="#f78f8f"></circle><path d="M27 27c.551 0 1 .449 1 1s-.449 1-1 1-1-.449-1-1 .449-1 1-1m0-1a2 2 0 10-.001 3.999A2 2 0 0027 26z" fill="#c74343"></path><circle cx="13" cy="28" r="1.5" fill="#f78f8f"></circle><path d="M13 27c.551 0 1 .449 1 1s-.449 1-1 1-1-.449-1-1 .449-1 1-1m0-1a2 2 0 10-.001 3.999A2 2 0 0013 26z" fill="#c74343"></path><circle cx="20" cy="6" r="4.5" fill="#ffeea3"></circle><path d="M20 2c2.206 0 4 1.794 4 4s-1.794 4-4 4-4-1.794-4-4 1.794-4 4-4m0-1a5 5 0 10.001 10.001A5 5 0 0020 1z" fill="#ba9b48"></path><path d="M2.5 22.577v-4.279l9.701-5.255a4.517 4.517 0 012.143-.543h11.312c.746 0 1.487.188 2.143.543l9.701 5.255v4.279h-35z" fill="#8bb7f0"></path><path d="M25.656 13a4.01 4.01 0 011.905.483L37 18.596v3.481H3v-3.481l9.439-5.113A4.01 4.01 0 0114.344 13h11.312m0-1H14.344c-.832 0-1.65.207-2.381.604L2 18v5.077h36V18l-9.963-5.396A4.99 4.99 0 0025.656 12z" fill="#4e7ab5"></path><g><path d="M4 26.5c-1.355 0-2.5-2.061-2.5-4.5s1.145-4.5 2.5-4.5h32c1.355 0 2.5 2.061 2.5 4.5s-1.145 4.5-2.5 4.5H4z" fill="#ffc49c"></path><path d="M36 18c.944 0 2 1.711 2 4s-1.056 4-2 4H4c-.944 0-2-1.711-2-4s1.056-4 2-4h32m0-1H4c-1.657 0-3 2.239-3 5s1.343 5 3 5h32c1.657 0 3-2.239 3-5s-1.343-5-3-5z" fill="#a16a4a"></path></g><path d="M7.907 18h-1c-.41.914-.907 2.353-.907 4 0 1.647.497 3.086.907 4h1C7.497 25.086 7 23.647 7 22c0-1.647.497-3.086.907-4zM32.093 26h1c.41-.914.907-2.353.907-4 0-1.647-.497-3.086-.907-4h-1c.41.914.907 2.353.907 4 0 1.647-.497 3.086-.907 4z" fill="#e8b28e"></path><g><path d="M36 24.5a2.503 2.503 0 01-2.5-2.5v-1c0-1.378 1.122-2.5 2.5-2.5h2a.5.5 0 01.5.5v5a.5.5 0 01-.5.5h-2z" fill="#ffeea3"></path><path d="M38 19v5h-2c-1.103 0-2-.897-2-2v-1c0-1.103.897-2 2-2h2m0-1h-2a3 3 0 00-3 3v1a3 3 0 003 3h2a1 1 0 001-1v-5a1 1 0 00-1-1z" fill="#ba9b48"></path></g><g><path d="M2 24.5a.5.5 0 01-.5-.5v-5a.5.5 0 01.5-.5h2c1.378 0 2.5 1.122 2.5 2.5v1c0 1.378-1.122 2.5-2.5 2.5H2z" fill="#ffeea3"></path><path d="M4 19c1.103 0 2 .897 2 2v1c0 1.103-.897 2-2 2H2v-5h2m0-1H2a1 1 0 00-1 1v5a1 1 0 001 1h2a3 3 0 003-3v-1a3 3 0 00-3-3z" fill="#ba9b48"></path></g></svg>