<svg viewBox="0 0 40 40" xmlns="http://www.w3.org/2000/svg"><path d="M3 38.5c-.827 0-1.5-.673-1.5-1.5v-6L2.754 7.919A1.5 1.5 0 014.252 6.5h31.496a1.5 1.5 0 011.498 1.419l1.255 23.108L38.5 37c0 .827-.673 1.5-1.5 1.5H3z" fill="#b0c1d4"></path><path d="M35.748 7a1 1 0 01.999.946L38 31.027V37c0 .551-.449 1-1 1H3c-.551 0-1-.449-1-1v-5.973L3.253 7.946A1 1 0 014.252 7h31.496m0-1H4.252c-1.063 0-1.94.831-1.998 1.892L1 31v6a2 2 0 002 2h34a2 2 0 002-2v-6L37.746 7.892A2.001 2.001 0 0035.748 6z" fill="#66798f"></path><path d="M2 31L3.253 7.946A1 1 0 014.252 7h31.497a1 1 0 01.999.946L38 31H2z" fill="#d6e3ed"></path><path fill="#b0c1d4" d="M27.5 9.5h5v4h-5z"></path><path d="M32 10v3h-4v-3h4m1-1h-6v5h6V9z" fill="#66798f"></path><path d="M23 10.5c-.827 0-1.5-.673-1.5-1.5V3c0-.827.673-1.5 1.5-1.5h14c.827 0 1.5.673 1.5 1.5v6c0 .827-.673 1.5-1.5 1.5H23z" fill="#bae0bd"></path><path d="M37 2c.551 0 1 .449 1 1v6c0 .551-.449 1-1 1H23c-.551 0-1-.449-1-1V3c0-.551.449-1 1-1h14m0-1H23a2 2 0 00-2 2v6a2 2 0 002 2h14a2 2 0 002-2V3a2 2 0 00-2-2z" fill="#5e9c76"></path><path fill="#b0c1d4" d="M28 11h4v3h-4z"></path><path fill="#fff" d="M6 20h3v3H6zM12 20h3v3h-3zM18 20h3v3h-3zM24 20h3v3h-3zM6 25h3v3H6zM12 25h3v3h-3zM18 25h3v3h-3zM24 25h3v3h-3z"></path><path fill="#8bb7f0" d="M31 25h3v3h-3z"></path><path fill="#f78f8f" d="M31 20h3v3h-3z"></path><circle cx="20" cy="34.929" r="1.357" fill="#66798f"></circle><path fill="#fff" d="M6.5 1.5h12v15h-12z"></path><path d="M18 2v14H7V2h11m1-1H6v16h13V1z" fill="#788b9c"></path><path fill="#d6e3ed" d="M7 14h11v2H7z"></path><path d="M18 14v2H7v-2H5.5a1.5 1.5 0 000 3h14a1.5 1.5 0 000-3H18z" fill="#66798f"></path><path fill="#5e9c76" d="M35 7h1v1h-1zM33 7h1v1h-1zM31 7h1v1h-1z"></path></svg>