<svg viewBox="0 0 40 40" xmlns="http://www.w3.org/2000/svg"><path d="M18 38.5a2.503 2.503 0 01-2.5-2.5v-8.5h5V36c0 1.378-1.122 2.5-2.5 2.5z" fill="#e8d47b"></path><path d="M20 28v8c0 1.103-.897 2-2 2s-2-.897-2-2v-8h4m1-1h-6v9a3 3 0 106 0v-9z" fill="#ba9b48"></path><path d="M23 37.5a2.503 2.503 0 01-2.5-2.5v-8.5h5V35c0 1.378-1.122 2.5-2.5 2.5z" fill="#e8d47b"></path><path d="M25 27v8c0 1.103-.897 2-2 2s-2-.897-2-2v-8h4m1-1h-6v9a3 3 0 106 0v-9z" fill="#ba9b48"></path><ellipse cx="12.5" cy="27" rx="3.5" ry="4" fill="#ba9b48"/><path d="M28 35.5a2.503 2.503 0 01-2.5-2.5V21.5h5V33c0 1.378-1.122 2.5-2.5 2.5z" fill="#e8d47b"></path><path d="M30 22v11c0 1.103-.897 2-2 2s-2-.897-2-2V22h4m1-1h-6v12a3 3 0 106 0V21z" fill="#ba9b48"></path><path fill="#bae0bd" d="M11.992 25.24l13.25-23.552L38.32 9.046 25.07 32.597z"></path><path d="M25.436 2.363L37.638 9.24l-12.76 22.68-12.202-6.877 12.76-22.68M25.056 1L11.315 25.424l13.944 7.859L39 8.859 25.056 1z" fill="#5e9c76"></path><path fill="#bae0bd" d="M11.442 28.201l8.665-25.568L34.366 7.43l-8.665 25.568z"></path><path d="M20.42 3.266l13.311 4.478-8.344 24.621-13.311-4.478L20.42 3.266M19.793 2l-8.986 26.515 15.207 5.116L35 7.116 19.793 2z" fill="#5e9c76"></path><path d="M22.905 23.314a5.533 5.533 0 01-1.767-.291 5.478 5.478 0 01-3.184-2.776 5.44 5.44 0 01-.279-4.189 5.514 5.514 0 016.995-3.45 5.478 5.478 0 013.184 2.776 5.44 5.44 0 01.279 4.189 5.513 5.513 0 01-5.228 3.741z" fill="#fff"></path><path d="M22.904 12.817c.544 0 1.085.089 1.607.265a4.977 4.977 0 012.895 2.525 4.948 4.948 0 01.254 3.807 5.014 5.014 0 01-6.362 3.136 4.979 4.979 0 01-2.895-2.524 4.948 4.948 0 01-.254-3.807 5.013 5.013 0 014.755-3.402m-.001-1a6.02 6.02 0 00-5.702 4.08c-1.063 3.138.628 6.541 3.777 7.6a6.02 6.02 0 007.628-3.763c1.063-3.138-.628-6.541-3.777-7.6a6.02 6.02 0 00-1.926-.317z" fill="#5e9c76"></path><g><path d="M26.113 9.845c-.164 0-.326-.027-.483-.08a1.49 1.49 0 01-.868-.757 1.481 1.481 0 01-.076-1.142 1.504 1.504 0 011.909-.941 1.497 1.497 0 01-.482 2.92z" fill="#fff"></path><path d="M26.113 7.346a.998.998 0 110 1.998.998.998 0 110-1.998m0-1a1.997 1.997 0 00-.642 3.893 2.007 2.007 0 002.543-1.254 1.997 1.997 0 00-1.259-2.533 2 2 0 00-.642-.106z" fill="#5e9c76"></path></g><g><path d="M1.5 38.5V23.262l9.237-6.413a1.54 1.54 0 01.964-.349h3.663l-1.822 7.518-2.264 2.688a.986.986 0 00-.146 1.06c.166.357.521.588.905.588.164 0 .323-.041.474-.121l8.015-5.253a2.5 2.5 0 112.93 4.052L12.05 37.481A4.498 4.498 0 019.198 38.5H1.5z" fill="#ffeea3"></path><path d="M14.729 17l-1.645 6.786-2.188 2.598a1.484 1.484 0 00-.217 1.593c.248.533.781.877 1.359.877.243 0 .488-.062.708-.179l.041-.022.039-.025 8.009-5.254A1.992 1.992 0 0121.997 23c.645 0 1.253.312 1.628.835a2.002 2.002 0 01-.46 2.791l-.049.035-.044.041L11.75 37.08a4.01 4.01 0 01-2.552.92H2V23.523l9.022-6.263.028-.019.027-.021a.998.998 0 01.625-.22h3.027M16 16h-4.298c-.454 0-.895.155-1.249.438L1 23v16h8.198a5 5 0 003.19-1.15l11.36-10.412A2.999 2.999 0 0021.997 22c-.605 0-1.216.182-1.745.562l-7.975 5.23a.507.507 0 01-.239.062c-.385 0-.673-.475-.378-.826L14 24.25 16 16z" fill="#ba9b48"></path></g><g><path fill="#ffeea3" d="M3 22.829l-2 1.388V38h2z"></path></g><path d="M15.05 16l-3.404 10.923.014.105c-.354.421.131 1.021.617.764L15.01 26l1.809-10H15.05z" fill="#bae0bd"></path><path d="M15.05 16l-3.504 11.245.003.006c-.08.376.324.756.728.542l.183-.12L16.097 16H15.05z" fill="#5e9c76"></path></svg>