<svg viewBox="0 0 40 40" xmlns="http://www.w3.org/2000/svg"><circle cx="19.465" cy="4.5" r="3" fill="#ffeea3"></circle><path d="M19.465 2c1.379 0 2.5 1.121 2.5 2.5S20.844 7 19.465 7s-2.5-1.121-2.5-2.5 1.121-2.5 2.5-2.5m0-1a3.5 3.5 0 100 7 3.5 3.5 0 000-7z" fill="#ba9b48"></path><path d="M24 26.5c-.827 0-1.5-.673-1.5-1.5v-2.833h3V25c0 .827-.673 1.5-1.5 1.5z" fill="#ffeea3"></path><path d="M25 22.667V25c0 .551-.449 1-1 1s-1-.449-1-1v-2.333h2m1-1h-4V25a2 2 0 104 0v-3.333z" fill="#ba9b48"></path><g><path d="M22 38.5c-.827 0-1.5-.673-1.5-1.5V25.5h-2v11.458c0 .864-.659 1.542-1.5 1.542-.827 0-1.5-.673-1.5-1.5V20.691l-2-1V15c0-3.033 2.467-5.5 5.499-5.5H20c3.032 0 5.5 2.467 5.5 5.5v8.691l-2 1V37c0 .827-.673 1.5-1.5 1.5z" fill="#8bb7f0"></path><path d="M20 10c2.757 0 5 2.243 5 5v8.382l-1.447.724-.553.276V37c0 .551-.449 1-1 1s-1-.449-1-1V25h-3v11.958c0 .584-.439 1.042-1 1.042-.551 0-1-.449-1-1V20.382l-.553-.276L14 19.382V15c0-2.757 2.243-5 5-5h1m0-1h-1a6 6 0 00-6 6v5.071l.133-.005L15 21v16a2 2 0 002 2c1.105 0 2-.895 2-2.042V26h1v11c0 1.1.9 2 2 2s2-.9 2-2V25l2-1v-9a6 6 0 00-6-6z" fill="#4e7ab5"></path></g><g><path d="M16 22.5a2.503 2.503 0 01-2.5-2.5v-4.5h4v3h2.912c.941 0 1.789.61 2.014 1.451a2.01 2.01 0 01-.338 1.761 1.99 1.99 0 01-1.588.788H16z" fill="#fff"></path><path d="M17 16v3h3.412c.719 0 1.363.454 1.531 1.08a1.491 1.491 0 01-.253 1.327A1.489 1.489 0 0120.5 22H16c-1.103 0-2-.897-2-2v-4h3m1-1h-5v5a3 3 0 003 3h4.5a2.508 2.508 0 002.409-3.179C22.614 18.722 21.551 18 20.412 18H18v-3z" fill="#788b9c"></path></g></svg>