<svg viewBox="0 0 40 40" xmlns="http://www.w3.org/2000/svg"><path d="M22 23h-9.726c.22.265.461.514.726.734V24c-.156 1.125-1.313 3.156-2 4v3h3c1.437-.5 6.094-3.594 7-6h1v-2z" fill="#7a4f34"></path><path fill="#7a4f34" d="M11 26h8l-5 5v6l-3-2z"></path><path d="M11 35h2a3 3 0 013 3h-2c-1.65 0-3-1.35-3-3z" fill="#7a4f34"></path><path d="M6 36h2a3 3 0 013 3H9c-1.65 0-3-1.35-3-3z" fill="#a16a4a"></path><path d="M25 35h2a3 3 0 013 3h-2c-1.65 0-3-1.35-3-3z" fill="#7a4f34"></path><path fill="#7a4f34" d="M25 26h5l-2 4v7l-3-2z"></path><path d="M20.552 25.5h-4.898l-.122.324c-.801 2.125-5.075 5.09-6.62 5.676H6.5v-2.327c.748-.977 1.834-2.942 1.995-4.104l.005-.57-.181-.15A4.99 4.99 0 016.5 20.5c0-.266.026-.544.079-.85l.06-.345-.303-.174C4.429 18.037 2.5 15.58 2.5 13c0-2.878 2.622-5.5 5.5-5.5l1.185.007c1.547 0 3.724-.12 4.759-1.153.359-.357.556-.838.556-1.354 0-.855.645-1.5 1.5-1.5.841 0 1.5.674 1.5 1.536 0 1.395-.519 2.745-1.387 3.61-1.663 1.658-4.245 1.871-6.309 1.871-.314 0-.609-.005-.878-.009L8 10.5c-1.168 0-2.5 1.332-2.5 2.5a3.492 3.492 0 002.836 3.435l.203.038.17-.115A4.955 4.955 0 0111.5 15.5H25c.729 0 1.157-.389 1.474-1.342l.91-4.529 6.073 1.735-.954 8.58C32.075 23.928 29.916 26.5 27 26.5h-1.25l-3.15 4.2-2.935 3.667.887-8.867z" fill="#ffc49c"></path><path d="M16 4c.561 0 1 .455 1 1.036 0 1.265-.464 2.482-1.24 3.256-1.533 1.529-3.988 1.725-5.955 1.725-.311 0-.604-.005-.87-.009-.228-.004-.437-.008-.626-.008H8c-1.458 0-3 1.542-3 3a3.99 3.99 0 003.244 3.926l.405.076.341-.231A4.464 4.464 0 0111.5 16H25c1.244 0 1.708-.961 1.949-1.684l.02-.059.012-.061.787-3.937 5.145 1.47-.907 8.164C31.607 23.603 29.643 26 27 26h-1.5l-.3.4-2.981 3.975-1.888 2.36.664-6.635.11-1.1H15.308l-.244.648c-.728 1.934-4.741 4.737-6.247 5.352H7v-1.662c.719-.989 1.812-2.918 1.99-4.2l.01-.069V24.264l-.362-.3A4.492 4.492 0 017 20.5c0-.237.023-.487.071-.764l.12-.69-.607-.349C4.803 17.675 3 15.39 3 13c0-2.57 2.43-5 5-5h.316l.277.003c.174.002.373.005.591.005 1.636 0 3.946-.135 5.112-1.299A2.392 2.392 0 0015 5c0-.57.43-1 1-1m0-1c-1.125 0-2 .875-2 2 0 .507-.242.834-.409 1-.911.909-3.032 1.007-4.406 1.007-.346 0-.644-.006-.864-.007H8c-3.139 0-6 2.861-6 6 0 2.641 1.901 5.31 4.086 6.565A5.446 5.446 0 006 20.5c0 1.698.78 3.223 2 4.234V25c-.156 1.125-1.313 3.156-2 4v3h3c1.437-.5 6.094-3.594 7-6h4l-1 10 4-5 3-4h1c2.875 0 5.5-2.344 6-7l1-9-7-2-1 5c-.281.844-.578 1-1 1H11.5a5.462 5.462 0 00-3.071.944A2.973 2.973 0 016 13c0-.894 1.106-2 2-2h.309c.408 0 .92.017 1.495.017 2.027 0 4.842-.203 6.661-2.017C17.47 7.999 18 6.518 18 5.036 18 3.911 17.125 3 16 3z" fill="#a16a4a"></path><path fill="#a16a4a" d="M22 37l-3-1 1-7 5.497-2.994L23 31z"></path><path d="M19 36h2a3 3 0 013 3h-2c-1.65 0-3-1.35-3-3zM28 6l-4-5v8h5c0-1.25-.382-1.917-1-3zM34 6l4-5v8h-5c0-1.25.382-1.917 1-3z" fill="#a16a4a"></path><path d="M31 15.5c-3.661 0-6.5-3.494-6.5-6.5 0-3.033 2.916-5.5 6.5-5.5s6.5 2.467 6.5 5.5c0 3.006-2.839 6.5-6.5 6.5z" fill="#ffc49c"></path><path d="M31 4c3.308 0 6 2.243 6 5 0 2.718-2.676 6-6 6s-6-3.282-6-6c0-2.757 2.692-5 6-5m0-1c-3.866 0-7 2.686-7 6s3.134 7 7 7 7-3.686 7-7-3.134-6-7-6z" fill="#a16a4a"></path><path d="M27.016 7.016c0 1.013-.089 2.01.435 2.533.58.58 1.416.435 2.533.435 0-1.21.05-2.049-.435-2.533-.579-.58-1.101-.435-2.533-.435z" fill="#a16a4a"></path><g><path d="M34.994 7.016c0 1.013.037 2.062-.435 2.533-.579.58-1.416.435-2.533.435 0-1.21-.05-2.049.435-2.533.58-.58 1.102-.435 2.533-.435z" fill="#a16a4a"></path></g><path fill="#a16a4a" d="M31 12l-.879-.536.205-.464h1.342l.215.461z"></path><path d="M31.75 11.5h-1.5a.25.25 0 010-.5h1.5a.25.25 0 010 .5z" fill="#a16a4a"></path><circle cx="28.5" cy="8.5" r=".5" fill="#36404d"></circle><circle cx="33.5" cy="8.5" r=".5" fill="#36404d"></circle><path fill="#a16a4a" d="M9 37l-3-1v-7l1 .338L9 31z"></path></svg>