<svg viewBox="0 0 40 40" xmlns="http://www.w3.org/2000/svg"><path d="M14.714 14.5C12.303 14.5 9.5 11.661 9.5 8s2.803-6.5 5.214-6.5c1.625 0 3.786.529 3.786 5.1 0 3.815-1.521 7.9-3.786 7.9z" fill="#d6aa70"></path><path d="M14.714 2C16.244 2 18 2.523 18 6.6c0 3.5-1.349 7.4-3.286 7.4C12.534 14 10 11.379 10 8s2.534-6 4.714-6m0-1C11.953 1 9 4.134 9 8s2.953 7 5.714 7C17.476 15 19 10.466 19 6.6 19 2.734 17.476 1 14.714 1z" fill="#7a4f34"></path><path d="M25.286 14.5c-2.265 0-3.786-4.085-3.786-7.9 0-4.571 2.161-5.1 3.786-5.1C27.697 1.5 30.5 4.339 30.5 8s-2.803 6.5-5.214 6.5z" fill="#d6aa70"></path><path d="M25.286 2C27.466 2 30 4.621 30 8s-2.534 6-4.714 6C23.349 14 22 10.1 22 6.6 22 2.523 23.756 2 25.286 2m0-1C22.524 1 21 2.734 21 6.6c0 3.866 1.524 8.4 4.286 8.4C28.047 15 31 11.866 31 8s-2.953-7-5.714-7z" fill="#7a4f34"></path><path d="M6 27.5c-2.481 0-4.5-2.916-4.5-6.5 0-3.661 2.803-6.5 5.214-6.5 1.625 0 3.786.529 3.786 5.1 0 3.556-2.077 7.9-4.5 7.9z" fill="#d6aa70"></path><path d="M6.714 15c1.53 0 3.286.523 3.286 4.6 0 3.596-2.056 7.4-4 7.4-2.168 0-4-2.748-4-6 0-3.379 2.534-6 4.714-6m0-1C3.953 14 1 17.134 1 21s2.239 7 5 7 5-4.534 5-8.4c0-3.866-1.524-5.6-4.286-5.6z" fill="#7a4f34"></path><g><path d="M33 28.5c-2.423 0-4.5-4.344-4.5-7.9 0-4.571 2.161-5.1 3.786-5.1 2.411 0 5.214 2.839 5.214 6.5 0 3.584-2.019 6.5-4.5 6.5z" fill="#d6aa70"></path><path d="M32.286 16C34.466 16 37 18.621 37 22c0 3.252-1.832 6-4 6-1.944 0-4-3.804-4-7.4 0-4.077 1.756-4.6 3.286-4.6m0-1C29.524 15 28 16.734 28 20.6c0 3.866 2.239 8.4 5 8.4s5-3.134 5-7-2.953-7-5.714-7z" fill="#7a4f34"></path></g><g><path d="M10.346 37.5c-1.836 0-3.432-1.319-3.793-3.137-.262-1.346.398-3.312 1.799-4.089l.417-.23c1.922-1.055 4.1-2.251 6.734-5.689.903-1.179 2.239-1.855 3.665-1.855 1.89 0 3.33.899 4.4 2.75l.681 1.19c1.059 1.778 4.901 3.804 5.064 3.889a3.764 3.764 0 011.92 4.811 3.706 3.706 0 01-3.867 2.337c-.612-.219-5.62-1.977-8.344-1.977-2.518.01-7.671 1.765-8.298 1.981a3.709 3.709 0 01-.378.019z" fill="#d6aa70"></path><path d="M19.167 23c1.696 0 2.994.818 3.964 2.496l.691 1.208c1.107 1.858 4.836 3.848 5.3 4.09a3.259 3.259 0 011.645 4.162 3.207 3.207 0 01-3.291 2.03c-.83-.294-5.723-1.986-8.48-1.986-2.507.009-7.531 1.698-8.378 1.989a3.553 3.553 0 01-.272.011c-1.599 0-2.988-1.15-3.302-2.731-.225-1.151.357-2.896 1.55-3.558l.415-.229c1.965-1.079 4.192-2.302 6.89-5.823.808-1.054 2-1.659 3.268-1.659m0-1c-1.588 0-3.067.753-4.062 2.051-2.762 3.605-5.012 4.684-6.997 5.786-1.617.897-2.341 3.116-2.047 4.624a4.384 4.384 0 004.772 3.512S16.451 36.01 19 36h.022c2.788 0 8.227 1.967 8.227 1.967a4.228 4.228 0 004.449-2.642c.835-2.101-.112-4.492-2.153-5.438 0 0-3.867-2.025-4.862-3.694L24 25c-1.5-2.594-3.486-3-4.833-3z" fill="#7a4f34"></path></g></svg>