<svg viewBox="0 0 40 40" xmlns="http://www.w3.org/2000/svg"><path fill="#b08159" stroke="#704e34" stroke-width="2" stroke-miterlimit="10" d="M10 12l20.286 20.857"></path><path fill="none" stroke="#967a44" stroke-width="2" stroke-miterlimit="10" d="M20 22.35l9 9.221M11 31.571l9-9.221"></path><path fill="#f5ce85" d="M9.5 32.5h20v2h-20z"></path><path d="M29 33v1H10v-1h19m1-1H9v3h21v-3z" fill="#967a44"></path><path d="M7.5 37.5c-2.206 0-4-1.794-4-4s1.794-4 4-4 4 1.794 4 4-1.795 4-4 4z" fill="#b08159"></path><path d="M7.5 30c1.93 0 3.5 1.57 3.5 3.5S9.43 37 7.5 37 4 35.43 4 33.5 5.57 30 7.5 30m0-1a4.5 4.5 0 100 9 4.5 4.5 0 000-9z" fill="#704e34"></path><circle cx="7.5" cy="33.5" r="1" fill="#735f63"></circle><path d="M7.5 33a.5.5 0 110 1 .5.5 0 010-1m0-1a1.5 1.5 0 10.001 3.001A1.5 1.5 0 007.5 32z" fill="#704e34"></path><path d="M31.5 37.5c-2.206 0-4-1.794-4-4s1.794-4 4-4 4 1.794 4 4-1.794 4-4 4z" fill="#b08159"></path><path d="M31.5 30c1.93 0 3.5 1.57 3.5 3.5S33.43 37 31.5 37 28 35.43 28 33.5s1.57-3.5 3.5-3.5m0-1a4.5 4.5 0 100 9 4.5 4.5 0 000-9z" fill="#704e34"></path><circle cx="31.5" cy="33.5" r="1" fill="#735f63"></circle><path d="M31.5 33a.5.5 0 110 1 .5.5 0 010-1m0-1a1.5 1.5 0 10.001 3.001A1.5 1.5 0 0031.5 32z" fill="#704e34"></path><g><path fill="#f5ce85" d="M19.5 15.5h1v17h-1z"></path><path d="M20 16v16-16m1-1h-2v18h2V15z" fill="#967a44"></path></g><g><path d="M8.172 13.5a4.647 4.647 0 01-3.311-1.361c-1.73-1.73-1.804-4.512-.247-6.415l6.662 6.662A4.87 4.87 0 018.172 13.5z" fill="#735f63"></path><path d="M4.676 6.494l5.831 5.831c-.697.44-1.5.675-2.335.675a4.146 4.146 0 01-2.957-1.215C3.8 10.37 3.627 8.166 4.676 6.494M4.597 5c-2.094 2.094-2.133 5.448-.089 7.492A5.15 5.15 0 008.172 14 5.408 5.408 0 0012 12.403L4.597 5z" fill="#4d3e40"></path></g><g><path d="M32.976 9.5c-1.549 0-2.438-1.824-3.088-3.155l-.244-.493c-.252-.494-.166-1.153.235-1.809.548-.894 1.532-1.543 2.341-1.543.197 0 .382.039.55.114l.152.069c.896.404 3.274 1.478 3.555 2.514.056.205.015.388-.131.593-.298.42-.557.89-.808 1.345-.7 1.269-1.304 2.365-2.562 2.365z" fill="#839cb2"></path><path d="M32.219 3c.128 0 .24.023.343.07l.153.069c2.528 1.141 3.178 1.82 3.278 2.188.009.034.019.068-.056.173-.315.443-.581.926-.838 1.393C34.379 8.2 33.892 9 32.976 9c-1.236 0-2.047-1.661-2.638-2.873-.087-.178-.169-.346-.248-.501-.243-.476.07-1.082.216-1.32C30.761 3.561 31.584 3 32.219 3m0-1c-1.81 0-3.874 2.407-3.021 4.08.709 1.388 1.692 3.92 3.778 3.92 2.086 0 2.676-2.369 3.777-3.92 1.238-1.743-2.518-3.349-3.777-3.92a1.806 1.806 0 00-.757-.16z" fill="#66798f"></path></g><path d="M13.028 8.53C14.651 6.716 18.83 5 24 5V4c-5.187 0-9.645 1.539-11.678 3.751l.706.779zM15.966 4.348C18.257 3.58 21.141 3 24 3V2c-3.034 0-5.861.479-8.281 1.297l.247 1.051z" fill="#b0c1d4"></path></svg>