<svg viewBox="0 0 40 40" xmlns="http://www.w3.org/2000/svg"><path d="M24.667 37.5a2.17 2.17 0 01-2.167-2.167V24.667a2.17 2.17 0 012.167-2.167h10.667a2.17 2.17 0 012.167 2.167v10.667a2.17 2.17 0 01-2.167 2.167H24.667z" fill="#8bb7f0"></path><path d="M35.333 23A1.67 1.67 0 0137 24.667v10.667c0 .918-.748 1.666-1.667 1.666H24.667A1.67 1.67 0 0123 35.333V24.667A1.67 1.67 0 0124.667 23h10.666m0-1H24.667A2.667 2.667 0 0022 24.667v10.667A2.667 2.667 0 0024.667 38h10.667A2.667 2.667 0 0038 35.333V24.667A2.667 2.667 0 0035.333 22z" fill="#4e7ab5"></path><path d="M36 3c.551 0 1 .449 1 1v12c0 .551-.449 1-1 1H24c-.551 0-1-.449-1-1V4c0-.551.449-1 1-1h12m0-1H24a2 2 0 00-2 2v12a2 2 0 002 2h12a2 2 0 002-2V4a2 2 0 00-2-2z" fill="#8bb7f0"></path><path d="M4.666 37.5a2.17 2.17 0 01-2.167-2.167V24.667A2.17 2.17 0 014.666 22.5h10.667a2.17 2.17 0 012.167 2.167v10.667a2.17 2.17 0 01-2.167 2.167H4.666z" fill="#dcd5f2"></path><path d="M15.333 23A1.67 1.67 0 0117 24.667v10.667c0 .918-.748 1.666-1.667 1.666H4.667A1.67 1.67 0 013 35.333V24.667A1.67 1.67 0 014.667 23h10.666m0-1H4.667A2.667 2.667 0 002 24.667v10.667A2.667 2.667 0 004.667 38h10.667A2.667 2.667 0 0018 35.333V24.667A2.667 2.667 0 0015.333 22z" fill="#8b75a1"></path><g fill="#8b75a1"><circle cx="10" cy="30" r="1"></circle><circle cx="6" cy="34" r="1"></circle><circle cx="14" cy="34" r="1"></circle><circle cx="6" cy="26" r="1"></circle><circle cx="14" cy="26" r="1"></circle></g><path d="M4 17.5c-.827 0-1.5-.673-1.5-1.5V4c0-.827.673-1.5 1.5-1.5h12c.827 0 1.5.673 1.5 1.5v12c0 .827-.673 1.5-1.5 1.5H4z" fill="#dcd5f2"></path><path d="M16 3c.551 0 1 .449 1 1v12c0 .551-.449 1-1 1H4c-.551 0-1-.449-1-1V4c0-.551.449-1 1-1h12m0-1H4a2 2 0 00-2 2v12a2 2 0 002 2h12a2 2 0 002-2V4a2 2 0 00-2-2z" fill="#8b75a1"></path><path fill="none" stroke="#4e7ab5" stroke-miterlimit="10" d="M36.667 23.333L23.333 36.667M33.556 22.667L22.667 33.416M29.333 22.667l-6.854 6.854M25.333 22.667l-2.666 2.666M26.444 37.333l10.889-10.749M30.667 37.333l6.854-6.854M34.667 37.333l2.666-2.666"></path></svg>