<svg viewBox="0 0 40 40" xmlns="http://www.w3.org/2000/svg"><path d="M20.432 37.498c-1.35 0-2.741-.468-3.918-1.318-.29-.252-.579-.512-.848-.765a.495.495 0 00-.693.008c-.714.705-1.569 1.077-2.473 1.077-1.25 0-2.408-.719-3.176-1.974a.5.5 0 00-.653-.185c-.025.01-.213.069-.217.07a4.511 4.511 0 01-.792.072c-.907 0-1.69-.304-2.266-.88-.439-.44-.719-1.012-.832-1.699a.5.5 0 00-.493-.419c-.01 0-.15.006-.21.006-.681 0-1.268-.227-1.697-.656-.757-.757-.878-1.998-.31-3.163a.498.498 0 00-.039-.505c-.492-.706-.298-4.296.252-4.685.333.018 1.198.374 2.492 2.756a.528.528 0 00.449.277l.127-.002c.478 0 1.16.113 1.698.652.125.125.233.267.333.436a.5.5 0 00.609.213 4.227 4.227 0 011.502-.286c.505 0 .983.099 1.419.293a.498.498 0 00.415-.004c.452-.21.918-.317 1.388-.317.643 0 1.26.188 1.833.56a.501.501 0 00.669-.116c.078-.103.113-.152.154-.195.894-.803 2.086-1.242 3.419-1.242.775 0 1.555.15 2.316.446a.5.5 0 00.591-.18c.2-.287.384-.512.58-.707a5.189 5.189 0 011.483-1.036.5.5 0 00.259-.285 5.74 5.74 0 011.308-2.069.5.5 0 00.077-.592 5.241 5.241 0 01-.69-2.582c0-3.309 3.14-6 7-6s7 2.691 7 6c0 1.393-.573 2.751-1.613 3.826a.5.5 0 00-.077.591c.458.82.69 1.689.69 2.583 0 2.219-1.424 4.248-3.716 5.295a.5.5 0 00-.292.436c-.054 1.459-.592 2.741-1.556 3.705-1.005 1.006-2.401 1.56-3.928 1.56a7.129 7.129 0 01-3.16-.769.503.503 0 00-.598.114l-.076.088c-.038.044-.075.089-.117.13-.925.926-2.213 1.437-3.623 1.437z" fill="#bae0bd"></path><path d="M31.5 13c3.584 0 6.5 2.467 6.5 5.5 0 1.281-.509 2.483-1.472 3.478a.998.998 0 00-.154 1.183c.415.745.626 1.532.626 2.339 0 2.021-1.312 3.875-3.424 4.841a1 1 0 00-.584.873c-.049 1.331-.537 2.496-1.41 3.369-.911.911-2.181 1.413-3.575 1.413a6.623 6.623 0 01-2.937-.717.996.996 0 00-1.195.232l-.078.09c-.03.035-.06.071-.093.104-.834.834-1.996 1.293-3.273 1.293-1.233 0-2.507-.426-3.592-1.199a25.53 25.53 0 01-.832-.748.996.996 0 00-1.386.017c-.431.425-1.149.932-2.121.932-1.072 0-2.074-.632-2.749-1.735a1.002 1.002 0 00-1.266-.389l-.085.027-.036.012a3.777 3.777 0 01-.702.069c-.538 0-1.306-.127-1.912-.734-.364-.364-.597-.844-.692-1.426a1 1 0 00-.986-.838l-.059.002c-.05.003-.1.004-.15.004-.381 0-.923-.088-1.344-.509-.604-.604-.687-1.62-.214-2.59a.966.966 0 00-.067-.993c-.304-.567-.235-2.882.06-3.79.337.199.947.761 1.808 2.34l.019.038a1 1 0 00.882.529l.036-.001.093-.002c.383 0 .927.088 1.345.505.095.095.178.205.256.336a1 1 0 001.218.426 3.712 3.712 0 011.324-.253c.435 0 .843.084 1.215.25a.996.996 0 00.829-.006A2.756 2.756 0 0112.5 27c.545 0 1.071.161 1.561.479a1 1 0 001.337-.23l.045-.059c.019-.025.037-.052.058-.076.824-.725 1.886-1.108 3.075-1.108.713 0 1.432.139 2.135.412a.997.997 0 001.183-.361c.182-.261.348-.465.524-.64a4.703 4.703 0 011.34-.936 1 1 0 00.519-.57 5.245 5.245 0 011.196-1.89.998.998 0 00.154-1.183A4.749 4.749 0 0125 18.5c0-3.033 2.916-5.5 6.5-5.5m0-1c-4.142 0-7.5 2.91-7.5 6.5 0 1.014.276 1.971.754 2.826a6.276 6.276 0 00-1.419 2.249 5.67 5.67 0 00-1.624 1.135 5.565 5.565 0 00-.637.776 6.924 6.924 0 00-2.497-.479c-1.401 0-2.741.461-3.782 1.398-.068.072-.127.156-.189.236A3.848 3.848 0 0012.5 26c-.564 0-1.102.132-1.599.364a3.97 3.97 0 00-1.622-.336 4.72 4.72 0 00-1.68.319 2.66 2.66 0 00-.41-.535c-.544-.544-1.277-.798-2.052-.798l-.13.002L5 25c-.49-.901-1.688-3-3-3-1.031 0-1.23 4.539-.594 5.453-.641 1.313-.53 2.801.405 3.736.544.544 1.276.802 2.052.802.069 0 .139-.002.208-.006.122.743.432 1.432.972 1.972.695.695 1.629 1.026 2.619 1.026.314 0 .634-.033.953-.099.078-.027.22-.066.282-.097C9.719 36.128 11.024 37 12.5 37c1.07 0 2.051-.458 2.824-1.22a28 28 0 00.898.806c1.295.935 2.784 1.413 4.211 1.413 1.491 0 2.915-.521 3.98-1.586.076-.076.141-.159.212-.238a7.607 7.607 0 003.384.822c1.605 0 3.136-.56 4.282-1.706 1.087-1.087 1.646-2.524 1.702-4.039C36.374 30.161 38 27.997 38 25.5a5.765 5.765 0 00-.754-2.826C38.34 21.545 39 20.09 39 18.5c0-3.59-3.358-6.5-7.5-6.5z" fill="#5e9c76"></path><path d="M33.613 9.777c-.896 1.738-2.567 3.002-4.604 3.26-3.382.448-6.492-2.037-6.954-5.528-.231-1.779.285-3.341 1.303-4.509l2.716 6.777h7.539z" fill="#5e9c76"></path><path d="M32 9.149L32.014 1c1.467.829 2.526 2.309 2.784 4.251.149 1.087-2.445 2.947-2.798 3.898z" fill="#5e9c76"></path><ellipse cx="30" cy="10.5" rx="7.5" ry="7" fill="#bae0bd"/><path d="M30 4c3.86 0 7 2.916 7 6.5S33.86 17 30 17s-7-2.916-7-6.5S26.14 4 30 4m0-1c-4.418 0-8 3.358-8 7.5s3.582 7.5 8 7.5 8-3.358 8-7.5S34.418 3 30 3z" fill="#5e9c76"></path><ellipse transform="rotate(-55.861 28.032 9)" cx="28.032" cy="9" rx="2.027" ry="1.94" fill="#36404d"/><ellipse transform="rotate(-34.137 33.692 7.862)" cx="33.691" cy="7.863" rx="1.53" ry="1.997" fill="#36404d"/><path d="M36.982 22.228C35.698 23.611 33.718 24.5 31.5 24.5c-.69 0-1.357-.086-1.987-.246M33.798 30.792a7.91 7.91 0 01-3.298.708c-1.5 0-2.892-.407-4.032-1.098M27.998 36.5c-1.881 0-3.787-.827-5.229-2.269a8.098 8.098 0 01-1.285-1.668M20.427 37.5c-1.737 0-3.498-.764-4.83-2.097-1.1-1.1-1.808-2.47-2.026-3.903M5.396 33.604c-.784-.784-1.045-1.926-.819-3.08M2.165 30.835c-.492-.492-.724-1.192-.653-1.973.074-.814.465-1.613 1.101-2.249" fill="none" stroke="#5e9c76" stroke-linecap="round" stroke-linejoin="round" stroke-miterlimit="10"></path><path d="M12.5 36.5c-2.206 0-4-2.243-4-5" fill="#bae0bd" stroke="#5e9c76" stroke-linecap="round" stroke-linejoin="round" stroke-miterlimit="10"></path></svg>