<svg viewBox="0 0 40 40" xmlns="http://www.w3.org/2000/svg"><path d="M5.478 29.5A5.51 5.51 0 00.5 24.522v-9.045a5.51 5.51 0 004.978-4.978h29.045a5.51 5.51 0 004.978 4.978v9.045a5.51 5.51 0 00-4.978 4.978H5.478z" fill="#c2e8ff"></path><path d="M34.083 11A6.017 6.017 0 0039 15.917v8.167a6.017 6.017 0 00-4.917 4.917H5.917A6.017 6.017 0 001 24.083v-8.167A6.014 6.014 0 005.917 11h28.166M35 10H5a5 5 0 01-5 5v10a5 5 0 015 5h30a5 5 0 015-5V15a5 5 0 01-5-5z" fill="#8bb7f0"></path><path fill="#8bb7f0" d="M8 17h24v1H8zM8 22h24v1H8z"></path></svg>