<svg viewBox="0 0 40 40" xmlns="http://www.w3.org/2000/svg"><path fill="#f5ce85" d="M1.5 38.5V19.347l7.753-2.908L20 7.646l10.747 8.793 7.753 2.908V38.5z"></path><path d="M20 8.292l10.367 8.482.128.104.154.058L38 19.693V38H2V19.693l7.351-2.757.154-.058.128-.104L20 8.292M20 7L9 16l-8 3v20h38V19l-8-3-11-9z" fill="#967a44"></path><path fill="#c74343" d="M31 16L20 7 9 16l-8 3v1.489l8-3L20 8.72l11 8.769 8 3V19z"></path><path fill="#f5ce85" d="M29.5 10.5h6v28h-6z"></path><path d="M35 11v27h-5V11h5m1-1h-7v29h7V10z" fill="#967a44"></path><path fill="#f78f8f" d="M29.5 10.5v-.406l3-7.715 3 7.715v.406z"></path><path d="M32.5 3.759L34.927 10h-4.854L32.5 3.759M32.5 1L29 10v1h7v-1l-3.5-9z" fill="#c74343"></path><path fill="#967a44" d="M32 15h1v5h-1zM32 24h1v8h-1z"></path><path fill="#f5ce85" d="M4.5 10.5h6v28h-6z"></path><path d="M10 11v27H5V11h5m1-1H4v29h7V10z" fill="#967a44"></path><path fill="#f78f8f" d="M4.5 10.5v-.406l3-7.715 3 7.715v.406z"></path><path d="M7.5 3.759L9.927 10H5.073L7.5 3.759M7.5 1L4 10v1h7v-1L7.5 1z" fill="#c74343"></path><g><path fill="#967a44" d="M7 15h1v5H7z"></path></g><g><path fill="#967a44" d="M7 24h1v8H7z"></path></g><g><circle cx="20" cy="17" r="2.5" fill="#a6714e"></circle><path d="M20 15c1.103 0 2 .897 2 2s-.897 2-2 2-2-.897-2-2 .897-2 2-2m0-1a3 3 0 100 6 3 3 0 000-6z" fill="#7a4f34"></path></g><g><path d="M15.5 38.5V29c0-2.481 2.019-4.5 4.5-4.5s4.5 2.019 4.5 4.5v9.5h-9z" fill="#a6714e"></path><path d="M20 25c2.206 0 4 1.794 4 4v9h-8v-9c0-2.206 1.794-4 4-4m0-1a5 5 0 00-5 5v10h10V29a5 5 0 00-5-5z" fill="#7a4f34"></path></g></svg>