<svg viewBox="0 0 40 40" xmlns="http://www.w3.org/2000/svg"><path d="M20 39.338a3.476 3.476 0 01-2.475-1.021L1.682 22.475a3.504 3.504 0 010-4.95L17.525 1.682c.658-.658 1.537-1.02 2.475-1.02s1.817.362 2.475 1.02l15.843 15.843a3.504 3.504 0 010 4.95L22.475 38.318A3.475 3.475 0 0120 39.338z" fill="#ffeea3"></path><path d="M20 1.162c.804 0 1.558.31 2.121.874l15.843 15.843a3.003 3.003 0 010 4.243L22.121 37.964c-.564.563-1.317.874-2.121.874s-1.558-.31-2.121-.874L2.036 22.121c-.564-.563-.874-1.317-.874-2.121s.31-1.558.874-2.121L17.879 2.036A2.975 2.975 0 0120 1.162m0-1a3.985 3.985 0 00-2.828 1.167L1.328 17.172a4.011 4.011 0 000 5.657l15.843 15.843c.778.778 1.803 1.167 2.828 1.167s2.051-.389 2.828-1.167L38.67 22.829a4.011 4.011 0 000-5.657L22.828 1.328A3.989 3.989 0 0020 .162z" fill="#ba9b48"></path><path d="M24 28c-.833 0-1.333-1-2-1s-3.333 2.167-4 5L7 20s6.167-1.5 8.833-4.833c.833-1 1.833-1.667 3.333-1.667 1.5 0 5.167 1.5 6 2.667.833 1.333 1.333 5.5 3.667 7.667.5.333-.167 1.833-.833 2.667-.667.833-1.333.667-2.333.833-.334.333-1.334.666-1.667.666z" fill="#36404d"></path><path d="M18.065 15.891c-1.333.5-3.833-.833-4.5-1.667.333-.167.667-.167.833-.333-.333 0-.833.167-1.167-.167-.167-.667-.5-1.5.167-2.667 1.5-.167 2.667.333 3.833 1.333.667.667 2.167 2.333 1.167 3.333-.166.168-.166.168-.333.168z" fill="#36404d"></path><path d="M17.333 15.167c0-1.167 1.333-2.333 2-3 .834-.667 1.834-1.167 2.5-1.167 1.833 0 2.339 1.111 3.839 1.778 1.167.667 2.333.667 2.333.833 0 .167-1.5.667-3.333.167-1.833-.5-2.839-2.111-4.172 2.056-.333 1.167-2.5.833-3-.167 0-.167-.167-.334-.167-.5z" fill="#36404d"></path></svg>