<svg viewBox="0 0 40 40" xmlns="http://www.w3.org/2000/svg"><path d="M8.911 33.071c-.412 0-.784-.193-1.021-.53a1.237 1.237 0 01-.156-1.14l9.431-26.406C17.957 2.78 18.99 1.51 20 1.51s2.043 1.271 2.835 3.486l9.431 26.406c.138.388.082.803-.156 1.14-.237.337-.609.53-1.021.53H8.911z" fill="#deb05b"></path><path d="M20 2.009c.571 0 1.533.826 2.364 3.155l9.431 26.406c.083.233.049.482-.093.684s-.365.318-.612.318H8.911a.74.74 0 01-.612-.318.742.742 0 01-.093-.684l9.431-26.406c.83-2.328 1.792-3.155 2.363-3.155m0-1c-1.198 0-2.397 1.273-3.306 3.818L7.263 31.234a1.749 1.749 0 001.647 2.337h22.179a1.748 1.748 0 001.647-2.337l-9.43-26.406C22.397 2.282 21.198 1.009 20 1.009z" fill="#967a44"></path><path d="M20.684 38.5l.432-1.357h-2.154l.38 1.357H1.659l7.917-28.276c.145-.516.572-.7.923-.7s.779.184.923.7l3.133 11.189 2.804-4.439c.575-.911 1.562-1.455 2.64-1.455s2.064.544 2.64 1.455l3.254 5.152.363-1.141c.891-2.801 2.104-4.474 3.243-4.474s2.352 1.673 3.243 4.474L38.316 38.5H20.684z" fill="#f5ce85"></path><path d="M10.5 10.024c.13 0 .36.044.442.335l2.829 10.105.607 2.167 1.202-1.903 2.203-3.489c.483-.765 1.312-1.222 2.217-1.222s1.734.457 2.217 1.222l2.681 4.245 1.147 1.816.652-2.046.037-.117c.969-3.045 2.096-4.126 2.767-4.126s1.798 1.08 2.767 4.126L37.632 38H21.368l.017-.054.415-1.303h-3.498l.355 1.27.025.087H2.318l7.74-27.641c.082-.292.312-.335.442-.335m0-1c-.603 0-1.206.355-1.405 1.066L1 39h19l-.38-1.357h.812L20 39h19l-5.78-18.167c-1.023-3.215-2.371-4.822-3.72-4.822s-2.697 1.607-3.72 4.822l-.037.117-2.681-4.245c-.711-1.125-1.886-1.688-3.062-1.688s-2.352.563-3.062 1.688l-2.203 3.489-2.829-10.105c-.2-.71-.803-1.065-1.406-1.065z" fill="#967a44"></path><g><path d="M13.513 38.5c.091-2.331.812-12 6.487-12s6.396 9.669 6.487 12H13.513z" fill="#a6714e"></path><path d="M20 27c4.893 0 5.797 8.116 5.963 11H14.037c.166-2.884 1.07-11 5.963-11m0-1c-7 0-7 13-7 13h14s0-13-7-13z" fill="#7a4f34"></path></g></svg>