<svg viewBox="0 0 40 40" xmlns="http://www.w3.org/2000/svg"><path fill="#ffc49c" d="M8.5 2.5h27v31h-27z"></path><path d="M35 3v30H9V3h26m1-1H8v32h28V2z" fill="#a16a4a"></path><path d="M5.5 35V5c0-1.378 1.121-2.5 2.5-2.5h.5V35h-3z" fill="#ffc49c"></path><path d="M8 3v31.5H6V5c0-1.103.897-2 2-2m1-1H8a3 3 0 00-3 3v30.5h4V2z" fill="#a16a4a"></path><path fill="#ffd5b8" d="M9 3h1v30H9z"></path><path d="M9 3H8a2 2 0 00-2 2v30.231h3V3z" fill="#db996c"></path><path d="M7.5 37.5c-1.103 0-2-.897-2-2s.897-2 2-2h28v.34c-.179.272-.5.87-.5 1.66s.321 1.388.5 1.66v.34h-28z" fill="#fff"></path><path d="M34.839 34a3.533 3.533 0 00-.339 1.5c0 .616.165 1.13.339 1.5H7.5c-.827 0-1.5-.673-1.5-1.5S6.673 34 7.5 34h27.339M36 33H7.5a2.5 2.5 0 100 5H36v-1s-.5-.597-.5-1.5.5-1.5.5-1.5v-1zM17.692 22.409c-.247.117-.728.208-1.312.208-2.249 0-3.315-1.833-3.315-4.329 0-3.302 1.833-4.589 3.536-4.589.598 0 1.014.117 1.183.234l-.285 1.43a1.714 1.714 0 00-.793-.169c-.963 0-1.834.832-1.834 3.003 0 2.093.794 2.912 1.834 2.912.285 0 .61-.065.818-.13l.168 1.43zM18.953 13.906c.521-.117 1.209-.169 1.938-.169.819 0 1.612.104 2.223.624.469.39.663.975.663 1.586 0 .78-.402 1.534-1.261 1.911v.052c1.014.286 1.547 1.118 1.547 2.093 0 .715-.233 1.287-.649 1.716-.521.572-1.404.884-2.874.884a10.17 10.17 0 01-1.586-.104v-8.593zm1.703 3.471h.364c.611 0 1.079-.52 1.079-1.235 0-.637-.299-1.131-.988-1.131-.194 0-.351.013-.455.052v2.314zm0 3.888c.104.026.234.026.377.026.702 0 1.262-.429 1.262-1.313 0-.884-.599-1.339-1.274-1.339h-.364v2.626zM25.557 13.906a10.176 10.176 0 011.859-.169c.937 0 1.781.143 2.34.65.533.481.702 1.066.702 1.82 0 .936-.468 1.781-1.352 2.184v.026c.598.247.896.793 1.065 1.742.169.975.403 2.054.56 2.379H28.95c-.117-.247-.312-1.131-.442-2.106-.155-1.079-.429-1.391-.987-1.391h-.261v3.497h-1.703v-8.632zm1.703 3.823h.312c.741 0 1.157-.598 1.157-1.365 0-.754-.3-1.274-1.054-1.3-.155 0-.325.013-.416.052v2.613z" fill="#a16a4a"></path></svg>