<svg viewBox="0 0 40 40" xmlns="http://www.w3.org/2000/svg"><path fill="#ffc49c" d="M8.5 2.5h27v31h-27z"></path><path d="M35 3v30H9V3h26m1-1H8v32h28V2z" fill="#a16a4a"></path><path d="M5.5 35V5c0-1.378 1.121-2.5 2.5-2.5h.5V35h-3z" fill="#ffc49c"></path><path d="M8 3v31.5H6V5c0-1.103.897-2 2-2m1-1H8a3 3 0 00-3 3v30.5h4V2z" fill="#a16a4a"></path><path fill="#ffd5b8" d="M9 3h1v30H9z"></path><path d="M9 3H8a2 2 0 00-2 2v30.231h3V3z" fill="#db996c"></path><path d="M7.5 37.5c-1.103 0-2-.897-2-2s.897-2 2-2h28v.34c-.179.272-.5.87-.5 1.66s.321 1.388.5 1.66v.34h-28z" fill="#fff"></path><path d="M34.839 34a3.533 3.533 0 00-.339 1.5c0 .616.165 1.13.339 1.5H7.5c-.827 0-1.5-.673-1.5-1.5S6.673 34 7.5 34h27.339M36 33H7.5a2.5 2.5 0 100 5H36v-1s-.5-.597-.5-1.5.5-1.5.5-1.5v-1zM18.232 22.409c-.247.117-.729.208-1.313.208-2.249 0-3.314-1.833-3.314-4.329 0-3.302 1.833-4.589 3.536-4.589.598 0 1.014.117 1.183.234l-.286 1.43a1.714 1.714 0 00-.793-.169c-.962 0-1.833.832-1.833 3.003 0 2.093.793 2.912 1.833 2.912.286 0 .611-.065.819-.13l.168 1.43zM19.493 13.906c.52-.117 1.209-.169 1.937-.169.819 0 1.612.104 2.224.624.468.39.663.975.663 1.586 0 .78-.403 1.534-1.262 1.911v.052c1.015.286 1.548 1.118 1.548 2.093 0 .715-.234 1.287-.65 1.716-.52.572-1.404.884-2.873.884-.65 0-1.196-.039-1.586-.104v-8.593zm1.703 3.471h.364c.61 0 1.078-.52 1.078-1.235 0-.637-.299-1.131-.987-1.131-.195 0-.352.013-.455.052v2.314zm0 3.888c.104.026.233.026.377.026.702 0 1.261-.429 1.261-1.313 0-.884-.598-1.339-1.273-1.339h-.364v2.626zM25.485 21.538l2.782-6.24v-.039h-2.522v-1.482h4.434v1.261l-2.652 5.98v.039h2.64v1.482h-4.681v-1.001z" fill="#a16a4a"></path></svg>