<svg viewBox="0 0 40 40" xmlns="http://www.w3.org/2000/svg"><path d="M20 37.5c-9.649 0-17.5-7.851-17.5-17.5S10.351 2.5 20 2.5 37.5 10.351 37.5 20 29.649 37.5 20 37.5zm0-20.77c-1.803 0-3.269 1.467-3.269 3.27s1.466 3.27 3.269 3.27 3.269-1.467 3.269-3.27-1.466-3.27-3.269-3.27z" fill="#8bb7f0"></path><path d="M20 3c9.374 0 17 7.626 17 17s-7.626 17-17 17S3 29.374 3 20 10.626 3 20 3m0 20.769c2.078 0 3.769-1.691 3.769-3.769S22.078 16.231 20 16.231 16.231 17.922 16.231 20s1.691 3.769 3.769 3.769M20 2C10.059 2 2 10.059 2 20s8.059 18 18 18 18-8.059 18-18S29.941 2 20 2zm0 20.769a2.77 2.77 0 110-5.539 2.77 2.77 0 010 5.539z" fill="#4e7ab5"></path><path d="M25.898 4.077l-4.593 12.401a3.772 3.772 0 012.128 1.984l12.066-5.409a17.064 17.064 0 00-9.601-8.976z" fill="#c2e8ff"></path><path d="M25.898 4.077l-4.593 12.401c.32.119.619.276.891.472L29.92 6.223a16.92 16.92 0 00-4.022-2.146z" fill="#fff"></path><path d="M14.102 35.923l4.593-12.401a3.772 3.772 0 01-2.128-1.984l-12.066 5.41a17.066 17.066 0 009.601 8.975z" fill="#c2e8ff"></path><path d="M14.102 35.923l4.593-12.401a3.761 3.761 0 01-.891-.472L10.08 33.777a16.92 16.92 0 004.022 2.146z" fill="#fff"></path><g><path d="M20 17.5c1.378 0 2.5 1.121 2.5 2.5s-1.122 2.5-2.5 2.5-2.5-1.121-2.5-2.5 1.122-2.5 2.5-2.5m0-2.5a5 5 0 10.001 10.001A5 5 0 0020 15z" fill="#4e7ab5"></path></g></svg>