<svg viewBox="0 0 40 40" xmlns="http://www.w3.org/2000/svg"><g fill="#4e7ab5"><path d="M38.083 12.983h.959v-2.699H40v-.785h-2.787v.785h.87zM36.529 11.673h-.995v.083c0 .333-.084.499-.498.499s-.496-.166-.496-.664v-.582c0-.498 0-.664.496-.664.332 0 .498.083.498.415v.083h.912v-.083c0-.912-.332-1.244-1.326-1.244h-.25c-.994 0-1.326.333-1.326 1.409v.665c0 .994.332 1.409 1.326 1.409h.334c.912 0 1.243-.415 1.243-1.245v-.083l.082.002zM23.905 9.517l-.696 2.525-.785-2.525h-1.392V13h.957v-2.612L22.685 13h.959l.782-2.525V13h.871V9.517zM31.913 9.517h-1.566L29.303 13h1.044l.173-.61h1.22l.174.61h1.044l-1.045-3.483zm-.696 2.177h-.348l.348-1.48.347 1.48h-.347zM27.74 9.517H26.086V13h.96v-.958H27.741c.96 0 1.306-.348 1.306-1.219v-.261c-.001-.784-.35-1.045-1.307-1.045zm.348 1.393c0 .348-.087.435-.348.435H27.045V10.3h.609c.348 0 .435.087.435.348l-.001.262zM18.748 9.517h-.498c-.995 0-1.326.333-1.326 1.409v.664c0 .996.332 1.411 1.326 1.411h.498c.995 0 1.326-.415 1.326-1.411v-.664c0-1.076-.331-1.409-1.326-1.409zm.332 1.907c0 .497 0 .664-.497.664h-.166c-.497 0-.497-.166-.497-.664v-.498c0-.496 0-.664.497-.664h.166c.497 0 .497.166.497.664v.498zM15.986 11.674h-.996v.083c0 .333-.083.497-.497.497s-.497-.165-.497-.664v-.58c0-.499 0-.664.497-.664.332 0 .497.083.497.414v.084h.913v-.084c0-.912-.332-1.243-1.326-1.243h-.249c-.996 0-1.328.332-1.328 1.409v.664c0 .995.332 1.41 1.327 1.41h.332c.913 0 1.244-.415 1.244-1.244v-.083l.083.001z"></path></g><path d="M14 29.5a.501.501 0 01-.5-.5V15c0-.275.225-.5.5-.5h2c.275 0 .5.225.5.5v14c0 .275-.225.5-.5.5h-2z" fill="#8bb7f0"></path><path d="M16 15v14h-2V15h2m0-1h-2c-.55 0-1 .45-1 1v14c0 .55.45 1 1 1h2c.55 0 1-.45 1-1V15c0-.55-.45-1-1-1z" fill="#4e7ab5"></path><path d="M19 29.5a.501.501 0 01-.5-.5v-2c0-.275.225-.5.5-.5h5.5v-3H19a.501.501 0 01-.5-.5v-8c0-.275.225-.5.5-.5h8c.275 0 .5.225.5.5v2c0 .275-.225.5-.5.5h-5.5v3H27c.275 0 .5.225.5.5v8c0 .275-.225.5-.5.5h-8z" fill="#8bb7f0"></path><path d="M27 15v2h-6v4h6v8h-8v-2h6v-4h-6v-8h8m0-1h-8c-.55 0-1 .45-1 1v8c0 .55.45 1 1 1h5v2h-5c-.55 0-1 .45-1 1v2c0 .55.45 1 1 1h8c.55 0 1-.45 1-1v-8c0-.55-.45-1-1-1h-5v-2h5c.55 0 1-.45 1-1v-2c0-.55-.45-1-1-1z" fill="#4e7ab5"></path><g><path d="M1 29.5a.501.501 0 01-.5-.5V15c0-.275.225-.5.5-.5h7.5V10c0-.275.225-.5.5-.5h2c.275 0 .5.225.5.5v19c0 .275-.225.5-.5.5H1zm2.5-3h5v-9h-5v9z" fill="#8bb7f0"></path><path d="M11 10v19H1V15h8v-5h2M3 27h6V17H3v10m8-18H9c-.55 0-1 .45-1 1v4H1c-.55 0-1 .45-1 1v14c0 .55.45 1 1 1h10c.55 0 1-.45 1-1V10c0-.55-.45-1-1-1zM4 26v-8h4v8H4z" fill="#4e7ab5"></path></g><g><path d="M30 29.5a.501.501 0 01-.5-.5V15c0-.275.225-.5.5-.5h9c.275 0 .5.225.5.5v5.5h-3v-3h-4v9h4v-3h3V29c0 .275-.225.5-.5.5h-9z" fill="#8bb7f0"></path><path d="M39 15v5h-2v-3h-5v10h5v-3h2v5h-9V15h9m0-1h-9c-.55 0-1 .45-1 1v14c0 .55.45 1 1 1h9c.55 0 1-.45 1-1v-6h-4v3h-3v-8h3v3h4v-6c0-.55-.45-1-1-1z" fill="#4e7ab5"></path></g></svg>