<svg viewBox="0 0 40 40" xmlns="http://www.w3.org/2000/svg"><path fill="#b0c1d4" d="M17.537 38.5l1.429-20h2.068l1.429 20z"></path><path d="M20.569 19l1.357 19h-3.852l1.357-19h1.138m.931-1h-3L17 39h6l-1.5-21z" fill="#66798f"></path><path d="M13.269 37.237C6.38 34.545 1.5 27.843 1.5 20 1.5 9.783 9.783 1.5 20 1.5S38.5 9.783 38.5 20c0 7.845-4.883 14.55-11.776 17.24" fill="none" stroke="#8bb7f0" stroke-linecap="round" stroke-miterlimit="10"></path><path d="M13.565 31.813A13.498 13.498 0 016.5 19.942c0-7.456 6.044-13.5 13.5-13.5s13.5 6.044 13.5 13.5c0 5.083-2.81 9.511-6.961 11.813M13.441 25.407a8.5 8.5 0 1113.138-.024" fill="none" stroke="#8bb7f0" stroke-linecap="round" stroke-miterlimit="10"></path><g><circle cx="20" cy="20" r="3.5" fill="#8bb7f0"></circle><path d="M20 17c1.654 0 3 1.346 3 3s-1.346 3-3 3-3-1.346-3-3 1.346-3 3-3m0-1a4 4 0 100 8 4 4 0 000-8z" fill="#4e7ab5"></path></g></svg>