<svg viewBox="0 0 40 40" xmlns="http://www.w3.org/2000/svg"><path d="M10.5 30.5c-.552 0-1-.449-1-1v-24c0-.551.448-1 1-1h3.257l.149-.176C15.433 2.529 17.654 1.5 20 1.5s4.567 1.029 6.094 2.824l.149.176H29.5c.552 0 1 .449 1 1v24c0 .551-.448 1-1 1h-19z" fill="#b6c9d6"></path><path d="M20 2c2.199 0 4.282.965 5.712 2.648l.3.352H29.5a.5.5 0 01.5.5v24a.5.5 0 01-.5.5h-19a.5.5 0 01-.5-.5v-24a.5.5 0 01.5-.5h3.488l.299-.352A7.491 7.491 0 0120 2m0-1a8.478 8.478 0 00-6.474 3H10.5A1.5 1.5 0 009 5.5v24a1.5 1.5 0 001.5 1.5h19a1.5 1.5 0 001.5-1.5v-24A1.5 1.5 0 0029.5 4h-3.026A8.478 8.478 0 0020 1z" fill="#788b9c"></path><path d="M7.5 36.5c-.552 0-1-.449-1-1v-5c0-.551.448-1 1-1h25c.552 0 1 .449 1 1v5c0 .551-.448 1-1 1h-25z" fill="#b6c9d6"></path><path d="M32.5 30a.5.5 0 01.5.5v5a.5.5 0 01-.5.5h-25a.5.5 0 01-.5-.5v-5a.5.5 0 01.5-.5h25m0-1h-25A1.5 1.5 0 006 30.5v5A1.5 1.5 0 007.5 37h25a1.5 1.5 0 001.5-1.5v-5a1.5 1.5 0 00-1.5-1.5z" fill="#788b9c"></path><path d="M39 39H1v-4s8.431-3 19-3 19 3 19 3v4z" fill="#5e9c76"></path><path d="M39 39H1v-3s8.431-3 19-3 19 3 19 3v3z" fill="#bae0bd"></path><path fill="#b6c9d6" stroke="#788b9c" stroke-linecap="round" stroke-linejoin="round" stroke-miterlimit="10" d="M26 11.5H14M25 15.5H15"></path></svg>