<svg viewBox="0 0 40 40" xmlns="http://www.w3.org/2000/svg"><path d="M5.464 38c0-3.614 4.154-8.484 4.154-12s-4.154-8.297-4.154-12S9.618 5.781 9.618 2.197" fill="none" stroke="#c74343" stroke-miterlimit="10"></path><path fill="none" stroke="#c74343" stroke-miterlimit="10" d="M12.409 7.598L9.878 2.297l-5.301 2.53M17.464 38c0-3.614 4.154-8.484 4.154-12s-4.154-8.297-4.154-12 4.154-8.219 4.154-11.803"></path><path fill="none" stroke="#c74343" stroke-miterlimit="10" d="M24.409 7.598l-2.531-5.301-5.301 2.53M29.464 38c0-3.614 4.154-8.484 4.154-12s-4.154-8.297-4.154-12 4.154-8.219 4.154-11.803"></path><path fill="none" stroke="#c74343" stroke-miterlimit="10" d="M36.409 7.598l-2.531-5.301-5.301 2.53"></path></svg>