<svg viewBox="0 0 40 40" xmlns="http://www.w3.org/2000/svg"><path d="M20 24.5c-2.481 0-4.5-2.019-4.5-4.5s2.019-4.5 4.5-4.5 4.5 2.019 4.5 4.5-2.019 4.5-4.5 4.5z" fill="#99c99e"></path><path d="M20 16c2.206 0 4 1.794 4 4s-1.794 4-4 4-4-1.794-4-4 1.794-4 4-4m0-1a5 5 0 10.001 10.001A5 5 0 0020 15z" fill="#5e9c76"></path><path d="M20 35.5c-8.547 0-15.5-6.953-15.5-15.5S11.453 4.5 20 4.5 35.5 11.453 35.5 20 28.547 35.5 20 35.5zm0-27C13.659 8.5 8.5 13.659 8.5 20S13.659 31.5 20 31.5 31.5 26.341 31.5 20 26.341 8.5 20 8.5z" fill="#c2e8ff"></path><path d="M20 5c8.271 0 15 6.729 15 15s-6.729 15-15 15S5 28.271 5 20 11.729 5 20 5m0 27c6.617 0 12-5.383 12-12S26.617 8 20 8 8 13.383 8 20s5.383 12 12 12m0-28C11.163 4 4 11.163 4 20s7.163 16 16 16 16-7.163 16-16S28.837 4 20 4zm0 27c-6.075 0-11-4.925-11-11S13.925 9 20 9s11 4.925 11 11-4.925 11-11 11z" fill="#7496c4"></path><path fill="#8bb7f0" d="M19.5 1.5h1v7h-1z"></path><path d="M20 2v6-6m1-1h-2v8h2V1z" fill="#4e7ab5"></path><g><path fill="#8bb7f0" d="M31.5 19.5h7v1h-7z"></path><path fill="#4e7ab5" d="M39 19h-8v2h8v-2z"></path></g><g><path fill="#8bb7f0" d="M1.5 19.5h7v1h-7z"></path><path fill="#4e7ab5" d="M9 19H1v2h8v-2z"></path></g><g><path fill="#8bb7f0" d="M19.5 31.5h1v7h-1z"></path><path d="M20 32v6-6m1-1h-2v8h2v-8z" fill="#4e7ab5"></path></g></svg>