<svg viewBox="0 0 40 40" xmlns="http://www.w3.org/2000/svg"><path d="M10.5 2c.827 0 1.5.673 1.5 1.5v13.77c0 .827-.673 1.5-1.5 1.5S9 18.097 9 17.27V3.5c0-.827.673-1.5 1.5-1.5m0-1A2.507 2.507 0 008 3.5v13.77c0 1.375 1.125 2.5 2.5 2.5s2.5-1.125 2.5-2.5V3.5C13 2.125 11.875 1 10.5 1zM21.5 2c.827 0 1.5.673 1.5 1.5v13.77c0 .827-.673 1.5-1.5 1.5s-1.5-.673-1.5-1.5V3.5c0-.827.673-1.5 1.5-1.5m0-1A2.507 2.507 0 0019 3.5v13.77c0 1.375 1.125 2.5 2.5 2.5s2.5-1.125 2.5-2.5V3.5C24 2.125 22.875 1 21.5 1z" fill="#36404d"></path><path d="M8.999 38.5C4.584 38.5 1.5 35.416 1.5 31l1.995-13.929.003-.571H28.5v.5l2.005 14.071c-.005 4.345-3.088 7.428-7.503 7.429l-6.945-.021-7.058.021z" fill="#c2e8ff"></path><path d="M28 17v.071l.01.07L30 31.069C29.969 35.218 27.164 38 23.003 38l-6.951-.021L9 38c-4.164 0-6.969-2.782-7-6.931l1.99-13.928.01-.07V17h24m1-1H3v1L1 31c0 4.709 3.29 8 8 8l7.055-.021L23 39c4.71 0 8-3.291 8-8l-2-14v-1z" fill="#8bb7f0"></path><path d="M15.95 19.499c-7.962 0-11.637-2.188-12.45-2.75V16l-1.01-5.098C2.5 10.151 7.265 8.5 16 8.5s13.5 1.651 13.5 2.5l-.99 4.902-.007.846c-.805.557-4.485 2.751-12.553 2.751z" fill="#8bb7f0"></path><path d="M16 9c7.828 0 12.228 1.323 12.966 2.073l-.946 4.731-.02.097v.578c-1.079.676-4.696 2.519-12.05 2.519-7.274 0-10.879-1.846-11.95-2.519v-.578l-.019-.097-.946-4.731C3.772 10.323 8.172 9 16 9m0-1C7.756 8 2 9.501 2 11l1 5v1s3.514 2.999 12.95 2.999C25.495 19.999 29 17 29 17v-1l1-5c0-1.499-5.756-3-14-3z" fill="#7496c4"></path><path d="M16 13c12.149 0 13-2 13-2-1.246-.658-4.604-2-13-2-8.354 0-11.754 1.342-13 2 0 0 .729 2 13 2z" fill="#4e7ab5"></path><path d="M38.521 38H38c-4 0-5-3.044-5-4 0-1.851.576-2.542 1.167-3.708C34.923 28.795 36 26.637 36 23c0-6.945-6.925-7-7-7-.169.004-.281-.06-.396.021C28.567 16.047 25.38 19 16 19v.998c8.718-.01 12.075-2.432 13-2.998 1.055.057 6 .518 6 6 0 3.313-.82 5.181-1.541 6.609C32.847 30.82 32 31.826 32 34c0 1.346 1 5.004 6.031 5.004.19 0 .466-.007.489-.009 0 0 .476.026.476-.474S38.521 38 38.521 38zM3.521 16.063c-.115-.081-.352-.059-.521-.063v1c.925.566 4.282 2.988 13 2.998V19c-9.38 0-12.442-2.912-12.479-2.937z" fill="#36404d"></path><path fill="#c2e8ff" d="M20 16h4v6h-4zM8 16h4v6H8z"></path></svg>