<svg viewBox="0 0 40 40" xmlns="http://www.w3.org/2000/svg"><path d="M36.319 18.542c-.26 0-.511-.012-.741-.023l-.091-.004c-.271-5.223-4.972-7.917-13.988-8.012V7.501c7.885.032 18.018.862 18.018 7.057 0 1.633-.355 2.767-1.056 3.371-.491.424-1.152.613-2.142.613z" fill="#c74343"></path><path d="M22 8.004c7.591.063 17.018.926 17.018 6.553 0 3.216-1.333 3.485-2.699 3.485-.125 0-.247-.003-.366-.007-.508-5.141-5.195-7.837-13.954-8.024V8.004M21 7v4c12.5 0 14 4.827 14 8 .36 0 .822.042 1.319.042 1.653 0 3.699-.465 3.699-4.485C40.018 7.731 29.056 7 21 7z" fill="#ab3434"></path><path d="M3.547 18.53c-1.131 0-3.029-.516-3.029-3.972 0-6.194 10.112-7.024 17.982-7.057v3.001c-9.007.096-13.708 2.784-13.987 7.998H4c-.099.01-.239.03-.453.03z" fill="#c74343"></path><path d="M18 8.004v2.006C9.261 10.198 4.576 12.882 4.05 18H4l-.085.001-.075.012c-.001 0-.114.017-.293.017-1.154 0-2.53-.602-2.53-3.472C1.018 8.93 10.424 8.067 18 8.004M19 7C10.944 7 .018 7.731.018 14.557c0 4.048 2.486 4.472 3.53 4.472C3.825 19.03 4 19 4 19h1c0-3.173 1.5-8 14-8V7z" fill="#ab3434"></path><path d="M20 31.5c-2.32 0-4.49-.923-6.109-2.6l-.261-.27-.333.176a5.936 5.936 0 01-2.797.694 5.985 5.985 0 01-4.617-2.17l-.075-.09-.107-.047C.668 24.965.522 22.11.518 21.99l-.015-6.616c1.048.741 3.171 1.623 7.452 2.317l.666.109.112-.034a5.968 5.968 0 013.993.166l.349.139.231-.295C14.932 15.694 17.372 14.5 20 14.5s5.068 1.194 6.694 3.275l.231.295.349-.139a5.984 5.984 0 014.087-.133l.143.047s.539-.14.635-.167c4.233-.685 6.338-1.56 7.379-2.298V22c-.001.019-.15 2.989-5.243 5.22l-.107.047-.075.089a5.99 5.99 0 01-7.39 1.45l-.333-.176-.261.27A8.425 8.425 0 0120 31.5z" fill="#f78f8f"></path><path d="M20 15a7.956 7.956 0 016.301 3.083l.462.592.697-.279a5.461 5.461 0 013.746-.123l.284.093.289-.079.192-.049.245-.063c3.389-.553 5.5-1.237 6.801-1.915v5.709c-.006.11-.194 2.712-4.944 4.793l-.214.094-.15.179a5.486 5.486 0 01-6.773 1.328l-.664-.351-.522.541A7.934 7.934 0 0120 31a7.934 7.934 0 01-5.75-2.447l-.522-.541-.664.351A5.426 5.426 0 0110.5 29a5.487 5.487 0 01-4.232-1.989l-.15-.181-.215-.095c-4.692-2.077-4.88-4.658-4.885-4.737l-.013-5.741c1.311.682 3.443 1.371 6.874 1.927l.375.061.169.028.232.038.225-.069A5.543 5.543 0 0110.5 18c.697 0 1.384.133 2.04.396l.697.279.462-.592A7.956 7.956 0 0120 15m20.018-1s-.075 1.909-8.017 3.197c-.164.047-.322.082-.485.126a6.464 6.464 0 00-4.428.144 8.976 8.976 0 00-14.176 0 6.491 6.491 0 00-4.326-.18l-.551-.091C.093 15.909 0 14 0 14l.018 8s.04 3.241 5.48 5.649a6.486 6.486 0 008.033 1.598C15.168 30.942 17.459 32 20 32s4.832-1.058 6.469-2.753a6.487 6.487 0 008.007-1.569C39.98 25.267 40.018 22 40.018 22v-8z" fill="#c74343"></path><g><path d="M20 27.5c-2.481 0-4.5-2.019-4.5-4.5s2.019-4.5 4.5-4.5 4.5 2.019 4.5 4.5-2.018 4.5-4.5 4.5z" fill="#f5c276"></path><path d="M20 19c2.206 0 4 1.794 4 4s-1.794 4-4 4-4-1.794-4-4 1.794-4 4-4m0-1a5 5 0 10.001 10.001A5 5 0 0020 18z" fill="#ffeea3"></path></g><g><ellipse cx="30" cy="23.5" rx="1.5" ry="2" fill="#f5c276"/><path d="M30 22c.533 0 1 .701 1 1.5s-.467 1.5-1 1.5-1-.701-1-1.5.467-1.5 1-1.5m0-1c-1.105 0-2 1.119-2 2.5 0 1.38.895 2.5 2 2.5s2-1.12 2-2.5c0-1.381-.895-2.5-2-2.5z" fill="#ffeea3"></path></g><g><ellipse cx="10" cy="23.5" rx="1.5" ry="2" fill="#f5c276"/><path d="M10 22c.533 0 1 .701 1 1.5s-.467 1.5-1 1.5-1-.701-1-1.5.467-1.5 1-1.5m0-1c-1.105 0-2 1.119-2 2.5 0 1.38.895 2.5 2 2.5s2-1.12 2-2.5c0-1.381-.895-2.5-2-2.5z" fill="#ffeea3"></path></g></svg>