<svg viewBox="0 0 40 40" xmlns="http://www.w3.org/2000/svg"><path fill="#bae0bd" d="M2.5 2.5h27v23h-27z"></path><path d="M29 3v22H3V3h26m1-1H2v24h28V2z" fill="#5e9c76"></path><path fill="#5e9c76" d="M3 3h26v4H3zM18 10h8v12h-8zM6 10h8v12H6z"></path><path fill="#c2e8ff" d="M10.5 14.5h27v23h-27z"></path><path d="M37 15v22H11V15h26m1-1H10v24h28V14z" fill="#7496c4"></path><path fill="#8bb7f0" d="M11 15h26v4H11z"></path><g><path fill="#8bb7f0" d="M26 22h8v12h-8z"></path></g><g><path fill="#8bb7f0" d="M14 22h8v12h-8z"></path></g></svg>