<svg viewBox="0 0 40 40" xmlns="http://www.w3.org/2000/svg"><path fill="#36404d" d="M13.214 39v-9.5L20 34.25z"></path><g fill="#36404d"><path d="M3.714 27.464c0-1.329 1.144-2.554 3.065-3.557.164-.662.373-1.285.636-1.854C3.489 23.546 1 25.717 1 28.143c0 3.898 6.394 7.151 14.929 7.951v-2.722c-7.021-.68-12.215-3.063-12.215-5.908zM32.578 22.051a10.3 10.3 0 01.641 1.855c1.922 1.003 3.067 2.229 3.067 3.558 0 3.025-5.872 5.53-13.571 6.016v2.713C31.918 35.627 39 32.244 39 28.143c0-2.427-2.492-4.6-6.422-6.092z"></path></g><path d="M9.517 26.5c.258-3.903 3.516-7 7.483-7h6c3.968 0 7.226 3.097 7.483 7H9.517z" fill="#8bb7f0"></path><path d="M23 20c3.52 0 6.442 2.612 6.929 6H10.071c.487-3.388 3.408-6 6.929-6h6m0-1h-6a8 8 0 00-8 8h22a8 8 0 00-8-8z" fill="#4e7ab5"></path><path d="M20 21.745c-2.668 0-3.381-1.462-3.5-1.765V16.5h7v3.48c-.12.308-.833 1.765-3.5 1.765z" fill="#deb974"></path><path d="M23 17v2.873c-.167.34-.852 1.373-3 1.373-2.166 0-2.844-1.049-3-1.368V17h6m1-1h-8v4.064s.628 2.181 4 2.181 4-2.181 4-2.181V16z" fill="#967a44"></path><path d="M25 13.5c-.827 0-1.5-.673-1.5-1.5s.673-1.5 1.5-1.5c1.386 0 1.5.394 1.5.833 0 .906-.756 2.167-1.5 2.167zm-10 0c-.744 0-1.5-1.261-1.5-2.167 0-.439.114-.833 1.5-.833.827 0 1.5.673 1.5 1.5s-.673 1.5-1.5 1.5z" fill="#deb974"></path><path d="M25 11c.825 0 .974.155.975.156a.44.44 0 01.025.177c0 .72-.629 1.667-1 1.667-.551 0-1-.449-1-1s.449-1 1-1m-10 0c.551 0 1 .449 1 1s-.449 1-1 1c-.371 0-1-.947-1-1.667a.46.46 0 01.024-.176c.002-.002.151-.157.976-.157m10-1a2 2 0 100 4c1.105 0 2-1.562 2-2.667S26.105 10 25 10zm-10 0c-1.105 0-2 .229-2 1.333S13.895 14 15 14a2 2 0 100-4z" fill="#967a44"></path><g><path d="M20 18.5c-.399 0-.78-.182-1.044-.498l-.105-.126-.159-.039a5.484 5.484 0 01-4.191-5.337V7.243a2.362 2.362 0 012.359-2.359h6.281A2.362 2.362 0 0125.5 7.243V12.5a5.486 5.486 0 01-4.191 5.337l-.159.039-.105.126A1.367 1.367 0 0120 18.5z" fill="#f5ce85"></path><path d="M23.141 5.384c1.025 0 1.859.834 1.859 1.86V12.5a4.983 4.983 0 01-3.81 4.85l-.32.078-.211.253c-.098.12-.316.319-.659.319s-.561-.199-.66-.318l-.211-.253-.32-.078A4.985 4.985 0 0115 12.5V7.243c0-1.025.834-1.86 1.859-1.86h6.282m0-.999H16.86A2.86 2.86 0 0014 7.243V12.5a5.997 5.997 0 004.572 5.822c.342.411.851.678 1.428.678s1.086-.267 1.428-.678A5.997 5.997 0 0026 12.5V7.243a2.859 2.859 0 00-2.859-2.859z" fill="#967a44"></path></g><g><path d="M25.5 12.5V11c0-2.702-2.189-4.146-2.283-4.205l-.331-.214-.285.272c-.013.012-1.511 1.378-4.663 1.378-1.711 0-3.437 1.025-3.437 3.316v.953h-.118c-.25-.938-.883-3.52-.883-5.5 0-2.733 2.12-5.5 6.173-5.5 2.773 0 3.474 1.669 3.48 1.686l.125.314h.339c1.433 0 2.883 1.226 2.883 3.568 0 1.81-.638 4.467-.885 5.432H25.5z" fill="#a6714e"></path><path d="M19.673 2c2.371 0 2.998 1.333 3.016 1.372l.252.628h.677C24.801 4 26 5.054 26 7.068c0 .703-.101 1.544-.237 2.36-.61-1.959-2.192-3.001-2.274-3.054l-.656-.409-.569.519c-.056.051-1.402 1.248-4.326 1.248-1.711 0-3.041.854-3.62 2.205C14.142 8.982 14 7.922 14 7c0-2.485 1.949-5 5.673-5m0-1C15.455 1 13 3.872 13 7c0 2.555 1 6 1 6h1v-1.453c0-1.931 1.399-2.816 2.937-2.816 3.423 0 5.009-1.517 5.009-1.517S25 8.539 25 11v2h1s1-3.603 1-5.932C27 4.414 25.303 3 23.617 3c0 0-.8-2-3.944-2z" fill="#7a4f34"></path></g></svg>