<svg viewBox="0 0 40 40" xmlns="http://www.w3.org/2000/svg"><path fill="#f5ce85" d="M15.5 11.5h9v27h-9z"></path><path d="M24 12v26h-8V12h8m1-1H15v28h10V11z" fill="#967a44"></path><path fill="#bae0bd" d="M15.5 11.5v-.382l4.5-9 4.5 9v.382z"></path><path d="M20 3.236L23.882 11h-7.764L20 3.236M20 1l-5 10v1h10v-1L20 1z" fill="#5e9c76"></path><path fill="#f5ce85" d="M6.5 38.5V28.29L20 20.576l13.5 7.714V38.5z"></path><path d="M20 21.152l13 7.429V38H7v-9.42l13-7.428M20 20L6 28v11h28V28l-14-8z" fill="#967a44"></path><path fill="#5e9c76" d="M20 20L6 28v1.274l14-8 14 8V28z"></path><path d="M16 39h8v-6a4 4 0 00-8 0v6z" fill="#967a44"></path><g><path d="M19 18h2v-4a1 1 0 00-2 0v4z" fill="#967a44"></path></g><g><path d="M23 18h2v-4a1 1 0 00-2 0v4z" fill="#967a44"></path></g><g><path d="M15 18h2v-4a1 1 0 00-2 0v4z" fill="#967a44"></path></g></svg>