<svg viewBox="0 0 40 40" xmlns="http://www.w3.org/2000/svg"><path d="M3.5 38.5V18c0-6.622 2.903-11.698 2.933-11.749l.067-.116V1.5h26v4.67l.104.136c.04.05 3.896 5.105 3.896 9.694v18.71l-6.633 3.79H3.5z" fill="#f5ce85"></path><path d="M32 2v4.341l.208.27C32.246 6.66 36 11.573 36 16v18.42L29.734 38H4V18C4 11.537 6.837 6.551 6.865 6.502L7 6.269V2h25m1-1H6v5s-3 5.167-3 12v21h27l7-4V16c0-4.82-4-10-4-10V1z" fill="#967a44"></path><path d="M29.5 38.5V18c0-3.63 2.29-10.005 2.846-11.5h.402c.704.974 3.752 5.421 3.752 9.5v18.71l-6.633 3.79H29.5z" fill="#d6aa70"></path><path d="M32.625 7.192C33.609 8.625 36 12.467 36 16v18.42l-6 3.429V18c0-3.225 1.872-8.726 2.625-10.808M33 6h-1s-3 7.746-3 12v21h1l7-4V16c0-4.82-4-10-4-10z" fill="#967a44"></path><path d="M16.5 32.5c-2.417 0-5-1.708-5-6.5 0-3.865 2.447-7.609 3.87-9.459-.07 1.635.026 4.059 1.061 5.239.412.471.955.72 1.569.72 1.131 0 1.761-.927 2.104-1.82.579 1.622 1.396 4.231 1.396 6.054 0 1.733-.487 5.766-5 5.766z" fill="#f78f8f"></path><path d="M14.865 18.099c.068 1.466.358 3.061 1.19 4.011.51.582 1.183.89 1.945.89.884 0 1.535-.45 2.001-1.079.493 1.517.999 3.415.999 4.813C21 28.701 20.415 32 16.5 32c-2.175 0-4.5-1.576-4.5-6 0-2.99 1.542-5.93 2.865-7.901M16 15s-5 5.316-5 11c0 5.112 2.854 7 5.5 7 3.975 0 5.5-2.991 5.5-6.266C22 23.787 20 19 20 19s-.292 3-2 3c-2.93 0-2-7-2-7z" fill="#c74343"></path><path d="M16.5 32c-1.149 0-3-.742-3-3.551 0-2.319 1.379-4.539 1.379-4.539S14.947 27 16.701 27c1.257 0 1.799-1.263 1.799-1.263s1 1.927 1 3.267c0 1.209-.832 2.996-3 2.996z" fill="#ffeea3"></path><path fill="#f5ce85" stroke="#967a44" stroke-miterlimit="10" d="M8 6.5H6M11 6.5H9M14 6.5h-2M17 6.5h-2M20 6.5h-2M23 6.5h-2M26 6.5h-2M29 6.5h-2M32 6.5h-2"></path></svg>