<svg viewBox="0 0 40 40" xmlns="http://www.w3.org/2000/svg"><path d="M20 35.5c-8.547 0-15.5-6.953-15.5-15.5S11.453 4.5 20 4.5 35.5 11.453 35.5 20 28.547 35.5 20 35.5z" fill="#f5ce85"></path><path d="M20 5c8.271 0 15 6.729 15 15s-6.729 15-15 15S5 28.271 5 20 11.729 5 20 5m0-1C11.163 4 4 11.163 4 20s7.163 16 16 16 16-7.163 16-16S28.837 4 20 4z" fill="#967a44"></path><circle cx="20" cy="20" r="12" fill="#ffeea3"></circle><path d="M21.425 12.748v14.383h-2.487V16.054c-.45.322-1.399.692-3.227 1.154v-2.123a17.256 17.256 0 004.663-2.337h1.051z" fill="#967a44"></path></svg>