<svg viewBox="0 0 40 40" xmlns="http://www.w3.org/2000/svg"><path d="M20 35.5c-8.547 0-15.5-6.953-15.5-15.5S11.453 4.5 20 4.5 35.5 11.453 35.5 20 28.547 35.5 20 35.5z" fill="#f5ce85"></path><path d="M20 5c8.271 0 15 6.729 15 15s-6.729 15-15 15S5 28.271 5 20 11.729 5 20 5m0-1C11.163 4 4 11.163 4 20s7.163 16 16 16 16-7.163 16-16S28.837 4 20 4z" fill="#967a44"></path><circle cx="20" cy="20" r="12" fill="#ffeea3"></circle><path d="M17.881 16.537c0-.793.711-1.476 2.172-1.476 1.655 0 2.846.469 3.772 1.03v-2.675c-.688-.383-1.728-.608-3.122-.674V10.94h-1.446v1.843c-1.209.119-2.18.544-2.913 1.273s-1.1 1.613-1.1 2.65c0 4.097 6.877 4.224 6.877 6.47 0 .799-1.001 1.417-2.118 1.417-2.286 0-4.108-.968-4.491-1.278v2.744a8.079 8.079 0 003.745.911v2.09h1.446v-2.15c1.301-.145 2.301-.553 3.003-1.223.699-.67 1.049-1.554 1.049-2.651.001-4.374-6.874-4.04-6.874-6.499z" fill="#967a44"></path></svg>