<svg viewBox="0 0 40 40" xmlns="http://www.w3.org/2000/svg"><path fill="#788b9c" d="M9 20h30v1H9z"></path><path fill="#8bb7f0" d="M1.5 18.5h4v4h-4z"></path><path d="M5 19v3H2v-3h3m1-1H1v5h5v-5z" fill="#4e7ab5"></path><path fill="#788b9c" d="M9 9h30v1H9z"></path><path fill="#8bb7f0" d="M1.5 7.5h4v4h-4z"></path><path d="M5 8v3H2V8h3m1-1H1v5h5V7z" fill="#4e7ab5"></path><path fill="#788b9c" d="M9 31h30v1H9z"></path><path fill="#c2e8ff" d="M1.5 29.5h4v4h-4z"></path><path d="M5 30v3H2v-3h3m1-1H1v5h5v-5z" fill="#7496c4"></path><path fill="#4e7ab5" d="M3 9h1v1H3zM3 20h1v1H3z"></path></svg>