<svg viewBox="0 0 40 40" xmlns="http://www.w3.org/2000/svg"><path d="M36.5 34h-33a2.5 2.5 0 100 5h33a2.5 2.5 0 100-5z" fill="#36404d"></path><path fill="#fff" d="M4.5 37.5V2.309l1.5-.75 2 1 2-1 2 1 2-1 2 1 2-1 2 1 2-1 2 1 2-1 2 1 2-1 2 1 2-1 1.5.75V37.5z"></path><path d="M34 2.118l1 .5V37H5V2.618l1-.5 1.553.776.447.224.447-.224L10 2.118l1.553.776.447.224.447-.224L14 2.118l1.553.776.447.224.447-.224L18 2.118l1.553.776.447.224.447-.224L22 2.118l1.553.776.447.224.447-.224L26 2.118l1.553.776.447.224.447-.224L30 2.118l1.553.776.447.224.447-.224L34 2.118M34 1l-2 1-2-1-2 1-2-1-2 1-2-1-2 1-2-1-2 1-2-1-2 1-2-1-2 1-2-1-2 1v36h32V2l-2-1z" fill="#788b9c"></path><path fill="#d6e3ed" d="M5 35h30v3H5z"></path><path fill="none" stroke="#788b9c" stroke-miterlimit="10" d="M8 8.5h15M29 8.5h3M8 12.5h13M29 12.5h3M8 16.5h15M29 16.5h3M8 20.5h13M29 20.5h3M21 30.5h11"></path><circle cx="31.5" cy="25.5" r=".5" fill="#788b9c"></circle><circle cx="33.5" cy="25.5" r=".5" fill="#788b9c"></circle><circle cx="29.5" cy="25.5" r=".5" fill="#788b9c"></circle><circle cx="27.5" cy="25.5" r=".5" fill="#788b9c"></circle><circle cx="25.5" cy="25.5" r=".5" fill="#788b9c"></circle><circle cx="23.5" cy="25.5" r=".5" fill="#788b9c"></circle><circle cx="21.5" cy="25.5" r=".5" fill="#788b9c"></circle><circle cx="19.5" cy="25.5" r=".5" fill="#788b9c"></circle><circle cx="17.5" cy="25.5" r=".5" fill="#788b9c"></circle><circle cx="15.5" cy="25.5" r=".5" fill="#788b9c"></circle><circle cx="13.5" cy="25.5" r=".5" fill="#788b9c"></circle><circle cx="11.5" cy="25.5" r=".5" fill="#788b9c"></circle><circle cx="9.5" cy="25.5" r=".5" fill="#788b9c"></circle><circle cx="7.5" cy="25.5" r=".5" fill="#788b9c"></circle></svg>