<svg viewBox="0 0 40 40" xmlns="http://www.w3.org/2000/svg"><path d="M4.769 37.5A2.272 2.272 0 012.5 35.231V4.769A2.272 2.272 0 014.769 2.5h30.462A2.272 2.272 0 0137.5 4.769v30.462a2.272 2.272 0 01-2.269 2.269H4.769z" fill="#c2e8ff"></path><path d="M35.231 3C36.206 3 37 3.794 37 4.769v30.462c0 .975-.794 1.769-1.769 1.769H4.769A1.772 1.772 0 013 35.231V4.769C3 3.794 3.794 3 4.769 3h30.462m0-1H4.769A2.77 2.77 0 002 4.769v30.462A2.77 2.77 0 004.769 38h30.462A2.77 2.77 0 0038 35.231V4.769A2.77 2.77 0 0035.231 2z" fill="#7496c4"></path><path fill="none" stroke="#7496c4" stroke-width="3" stroke-miterlimit="10" d="M11 20.053l5.964 5.965 13.421-13.42"></path></svg>