<svg viewBox="0 0 40 40" xmlns="http://www.w3.org/2000/svg"><path fill="#fff" d="M1.5 4.5h37v20h-37z"></path><path d="M38 5v19H2V5h36m1-1H1v21h38V4z" fill="#788b9c"></path><path fill="#e1ebf2" d="M1.5 4.5h37v6h-37z"></path><path d="M38 5v5H2V5h36m1-1H1v7h38V4z" fill="#788b9c"></path><path fill="none" stroke="#788b9c" stroke-miterlimit="10" d="M5.071 19.5H21M5.071 15.5H21M27 19.5h7.929"></path><path fill="#ffeea3" d="M14.5 28.5h5v5h-5z"></path><path d="M19 29v4h-4v-4h4m1-1h-6v6h6v-6z" fill="#ba9b48"></path><path fill="none" stroke="#788b9c" stroke-miterlimit="10" d="M27 15.5h7.929"></path><path d="M3.8 33.5c-1.268 0-2.3-1.122-2.3-2.5s1.032-2.5 2.3-2.5h10.7v5H3.8z" fill="#f78f8f"></path><path d="M14 29v4H3.8c-.993 0-1.8-.897-1.8-2s.807-2 1.8-2H14m1-1H3.8C2.254 28 1 29.343 1 31s1.254 3 2.8 3H15v-6z" fill="#c74343"></path><path fill="#36404d" d="M37 30h-2v2h2l2-1z"></path><g><path d="M19.5 33.5v-5H34c1.378 0 2.5 1.122 2.5 2.5s-1.122 2.5-2.5 2.5H19.5z" fill="#f78f8f"></path><path d="M34 29c1.103 0 2 .897 2 2s-.897 2-2 2H20v-4h14m0-1H19v6h15a3 3 0 100-6z" fill="#c74343"></path></g><path d="M19 35.5H5.5a1 1 0 01-1-1V34" fill="none" stroke="#36404d" stroke-miterlimit="10"></path></svg>