<svg viewBox="0 0 40 40" xmlns="http://www.w3.org/2000/svg"><path d="M38.368 11.682L34.9 24.395a1.503 1.503 0 01-1.447 1.105H12.911" fill="none" stroke="#5e9c76" stroke-linecap="round" stroke-miterlimit="10"></path><path d="M3 1.5h2.119A4.305 4.305 0 019.36 5.067l4.498 25.866a4.305 4.305 0 004.241 3.567H35" fill="none" stroke="#66798f" stroke-miterlimit="10"></path><circle cx="3" cy="3" r="1.5" fill="#bae0bd"></circle><path d="M3 2c.551 0 1 .449 1 1s-.449 1-1 1-1-.449-1-1 .449-1 1-1m0-1a2 2 0 10-.001 3.999A2 2 0 003 1z" fill="#5e9c76"></path><circle cx="31.5" cy="36.5" r="2" fill="#b0c1d4"></circle><path d="M31.5 35c.827 0 1.5.673 1.5 1.5s-.673 1.5-1.5 1.5-1.5-.673-1.5-1.5.673-1.5 1.5-1.5m0-1a2.5 2.5 0 100 5 2.5 2.5 0 000-5z" fill="#66798f"></path><g><circle cx="18.5" cy="36.5" r="2" fill="#b0c1d4"></circle><path d="M18.5 35c.827 0 1.5.673 1.5 1.5s-.673 1.5-1.5 1.5-1.5-.673-1.5-1.5.673-1.5 1.5-1.5m0-1a2.5 2.5 0 100 5 2.5 2.5 0 000-5z" fill="#66798f"></path></g><g><path fill="#8bb7f0" d="M26.5 12.5h-11v-3h11V5.207L32.293 11 26.5 16.793z"></path><path d="M27 6.414L31.586 11 27 15.586V12H16v-2h11V6.414M26 4v5H15v4h11v5l7-7-7-7z" fill="#4e7ab5"></path></g></svg>