<svg viewBox="0 0 40 40" xmlns="http://www.w3.org/2000/svg"><path d="M1.5 34.5v-21h37v4.75a3.21 3.21 0 000 6.35v9.9z" fill="#ffeea3"></path><path d="M38 14v3.85A3.71 3.71 0 0038 25v9H2V14h36m1-1H1v22h38V24.14a2.71 2.71 0 110-5.43V13z" fill="#ba9b48"></path><path d="M1.5 13.5v-.43a14.08 14.08 0 019-8.55l28 8.84v.13z" fill="#f5ce85"></path><path d="M10.51 5.05L35.68 13H2.05a13.58 13.58 0 018.46-7.95M10.5 4A14.4 14.4 0 001 13v1h38v-1L10.5 4z" fill="#967a44"></path><circle cx="28.5" cy="27.5" r="3" fill="#f5ce85"></circle><path d="M28.5 25a2.5 2.5 0 11-2.5 2.5 2.5 2.5 0 012.5-2.5m0-1a3.5 3.5 0 103.5 3.5 3.5 3.5 0 00-3.5-3.5z" fill="#ba9b48"></path><circle cx="8" cy="28" r="2.5" fill="#f5ce85"></circle><path d="M8 26a2 2 0 11-2 2 2 2 0 012-2m0-1a3 3 0 103 3 3 3 0 00-3-3z" fill="#ba9b48"></path><circle cx="7.5" cy="18.5" r="1" fill="#f5ce85"></circle><path d="M7.5 18a.5.5 0 11-.5.5.5.5 0 01.5-.5m0-1A1.5 1.5 0 109 18.5 1.5 1.5 0 007.5 17z" fill="#ba9b48"></path><circle cx="28.5" cy="18.5" r="1" fill="#f5ce85"></circle><path d="M28.5 18a.5.5 0 11-.5.5.5.5 0 01.5-.5m0-1a1.5 1.5 0 101.5 1.5 1.5 1.5 0 00-1.5-1.5z" fill="#ba9b48"></path><circle cx="18" cy="22" r="4.5" fill="#f5ce85"></circle><path d="M18 18a4 4 0 11-4 4 4 4 0 014-4m0-1a5 5 0 105 5 5 5 0 00-5-5z" fill="#ba9b48"></path></svg>