<svg viewBox="0 0 40 40" xmlns="http://www.w3.org/2000/svg"><path d="M11.687 23.438C12.312 10.063 21.178 5.1 24.633 3.584M25.812 23.25c-3-4.188-4.5-11.438-1.179-19.666" fill="none" stroke="#7a4f34" stroke-linecap="round" stroke-miterlimit="10"></path><path d="M31.492 12.5c-1.155 0-2.82-.214-4.195-1.236-2.87-2.133-2.864-5.574-2.767-6.758 1.07.036 4.009.291 6.654 1.921 1.559.96 2.389 2.457 3.191 3.905.286.517.562 1.013.861 1.472-1.13.441-2.488.696-3.744.696z" fill="#bae0bd"></path><path d="M24.997 5.031c1.27.093 3.706.454 5.925 1.821 1.447.891 2.244 2.33 3.016 3.722.183.33.362.653.546.964-.944.295-2.001.462-2.993.462-1.079 0-2.632-.197-3.896-1.137-2.374-1.764-2.636-4.463-2.598-5.832M24.22 4c-.087 0-.134.002-.134.002s-.87 4.853 2.913 7.664c1.302.968 2.917 1.334 4.492 1.334 1.696 0 3.345-.425 4.509-.98-1.341-1.762-2.092-4.503-4.553-6.019C28.367 4.104 24.934 4 24.22 4z" fill="#5e9c76"></path><path d="M23.769 6.598a111.966 111.966 0 00-2.116-1.508c1.139-1.127 3.104-2.952 3.735-3.536.57.167 1.538.55 1.985 1.116-.238.27-.646.679-1.044 1.077-.947.949-1.997 2.002-2.56 2.851z" fill="#f5ce85"></path><path d="M25.513 2.119c.386.135.832.337 1.156.573a64.8 64.8 0 01-.695.703c-.946.948-1.759 1.781-2.317 2.504a99.244 99.244 0 00-1.225-.873 218.68 218.68 0 013.081-2.907M25.25 1s-3.188 2.938-4.374 4.161c0 0 1.522 1.038 3.052 2.175.544-1.298 3.621-3.941 4.052-4.631C27.419 1.495 25.25 1 25.25 1z" fill="#7a4f34"></path><g><path d="M28.146 38.5c-3.959 0-7.632-2.174-9.356-5.54-3.304-6.446.593-9.377 2.421-10.338.769-.403 1.505-.458 2.124-.458l.672.008c.406 0 .735-.031 1.02-.18.366-.192.608-.56.89-.986.385-.583.864-1.31 1.815-1.81.64-.336 1.786-.695 3.083-.695 1.948 0 4.683.804 6.646 4.637 2.731 5.327-.161 11.899-4.571 14.217a10.246 10.246 0 01-4.744 1.145z" fill="#f78f8f"></path><path d="M30.815 19c1.808 0 4.351.757 6.201 4.365 2.56 4.994-.241 11.383-4.359 13.547A9.745 9.745 0 0128.146 38c-3.773 0-7.271-2.068-8.912-5.268-2.989-5.83.101-8.559 2.209-9.667.67-.352 1.305-.401 1.89-.401.121 0 .238.002.35.004.113.002.221.004.324.004.415 0 .854-.029 1.251-.237.48-.252.769-.69 1.074-1.154.372-.564.793-1.202 1.631-1.643.587-.308 1.645-.638 2.852-.638m-.001-1c-1.432 0-2.65.403-3.316.753-1.724.906-2.046 2.45-2.705 2.796-.195.103-.463.122-.786.122-.204 0-.43-.008-.674-.008-.675 0-1.49.06-2.356.516-2.602 1.367-5.856 4.722-2.634 11.008C20.267 36.939 24.208 39 28.146 39c1.715 0 3.429-.391 4.976-1.204 4.77-2.507 7.543-9.504 4.784-14.888C35.912 19.021 33.093 18 30.814 18z" fill="#c74343"></path></g><g><path d="M12 38.5c-5.594 0-10.5-4.761-10.5-10.188 0-7.051 4.778-7.812 6.833-7.812 1.033 0 1.797.408 2.409.735.455.243.847.452 1.258.452.41 0 .792-.208 1.235-.448.605-.329 1.36-.739 2.432-.739.068 0 6.833.089 6.833 7.812C22.5 34.143 16.956 38.5 12 38.5z" fill="#f78f8f"></path><path d="M15.667 21c.063 0 6.333.084 6.333 7.312C22 33.768 16.624 38 12 38c-5.327 0-10-4.527-10-9.688C2 21.95 5.968 21 8.333 21c.908 0 1.58.359 2.173.676.492.263.957.511 1.493.511.537 0 .992-.247 1.474-.509.586-.318 1.249-.678 2.194-.678m0-1c-1.939 0-2.925 1.188-3.667 1.188S10.218 20 8.333 20C5.407 20 1 21.42 1 28.312 1 34.215 6.267 39 12 39c5.365 0 11-4.785 11-10.688C23 21.374 17.606 20 15.667 20z" fill="#c74343"></path></g></svg>