<svg viewBox="0 0 40 40" xmlns="http://www.w3.org/2000/svg"><path d="M13.158 38.5C12.029 37.692 9.5 35.557 9.5 34c0-.34.146-.883.313-1.511.496-1.851 1.245-4.647-.011-7.926-.145-.379-.297-.702-.444-1.018-.42-.894-.783-1.667-.858-3.565l-.02-.48h-.89l-.166.401a5.474 5.474 0 00-.044.6c-.034.845-.102 2.522-.65 3.882L1.501 22.64c.031-4.03.585-5.636.886-6.509l.089-.263c.187-.566.154-1.2.101-2.249A47.24 47.24 0 012.5 11c0-4.374 3.107-6.5 9.5-6.5h.231l.15-.177C13.374 3.151 15.13 1.5 15.929 1.5h8.143c.799 0 2.555 1.651 3.547 2.823l.15.177H28c6.393 0 9.5 2.126 9.5 6.5a48.42 48.42 0 01-.076 2.619c-.054 1.049-.086 1.682.102 2.251l.088.261c.301.874.854 2.479.886 6.509l-5.229 1.743c-.549-1.359-.616-3.037-.65-3.882a5.474 5.474 0 00-.044-.6l-.083-.401h-.89l-.104.48c-.075 1.898-.438 2.671-.858 3.566-.147.315-.3.639-.444 1.018-1.256 3.278-.507 6.075-.011 7.926.167.627.313 1.17.313 1.51 0 1.557-2.529 3.692-3.658 4.5H13.158z" fill="#ffeea3"></path><path d="M24.071 2c.492.01 2.001 1.271 3.166 2.646l.3.354H28c6.056 0 9 1.963 9 6 0 1.094-.042 1.925-.076 2.593-.054 1.069-.09 1.776.124 2.428.026.082.057.171.092.271.283.82.795 2.305.854 5.989l-4.419 1.473c-.373-1.19-.428-2.549-.457-3.274-.013-.334-.021-.518-.053-.677L32.904 19H31.039l-.038.961c-.071 1.796-.398 2.491-.811 3.372-.15.32-.306.651-.459 1.052-1.313 3.43-.539 6.321-.027 8.234.152.569.296 1.107.296 1.381 0 1.112-1.864 2.937-3.319 4H13.319C11.863 36.939 10 35.117 10 34c0-.274.144-.812.297-1.382.512-1.913 1.287-4.804-.027-8.234-.153-.4-.309-.731-.459-1.052-.414-.881-.74-1.576-.811-3.372L8.961 19H7.096l-.161.803c-.032.159-.039.343-.053.677-.029.725-.084 2.084-.457 3.274l-4.419-1.473c.059-3.684.571-5.169.854-5.989l.09-.266c.216-.657.18-1.364.126-2.433A47.556 47.556 0 013 11c0-4.037 2.944-6 9-6h.464l.3-.354C13.928 3.271 15.437 2.01 15.929 2h8.142m0-1h-8.142C14.538 1 12 4 12 4 8.868 4 2 4.386 2 11c0 2.771.265 3.908 0 4.714-.261.809-1 2.45-1 7.286l6 2c.963-1.909.837-4.611.915-5H8c.105 2.664.775 3.277 1.336 4.742C10.984 29.047 9 32.516 9 34c0 2.238 4 5 4 5h14s4-2.762 4-5c0-1.484-1.984-4.953-.336-9.258.561-1.465 1.231-2.078 1.336-4.742h.085c.078.389-.048 3.091.915 5l6-2c0-4.836-.739-6.477-1-7.286-.265-.806 0-1.943 0-4.714 0-6.614-6.868-7-10-7 0 0-2.538-3-3.929-3z" fill="#ba9b48"></path><g><path d="M24.668 20.497c-1.912-.08-4.175-1.975-4.175-3.497h-1c0 1.566-2.287 3.463-4.22 3.499h-.017c-.306 0-.53-.021-.743-.062-3.097-.598-3.978-1.404-4.891-3.102-.386-.719-.844-2.346-1.04-3.083 1.275-.875 3.629-3.92 5.593-6.64 2.406 1 3.554 1.765 4.253 2.23.595.396.988.658 1.572.658.578 0 .957-.258 1.53-.647.692-.471 1.83-1.245 4.294-2.244 2.693 3.704 4.569 5.928 5.6 6.637-.196.736-.654 2.367-1.038 3.084-.81 1.506-1.541 2.467-4.861 3.106a3.605 3.605 0 01-.685.063l-.172-.002z" fill="#f78f8f"></path><path d="M25.651 8.221c2.81 3.841 4.329 5.504 5.201 6.224-.239.865-.612 2.096-.907 2.648-.737 1.371-1.35 2.243-4.516 2.854a3.178 3.178 0 01-.74.05c-1.784-.074-3.695-1.822-3.695-2.997h-2c0 1.183-1.964 2.966-3.729 2.999l-.068.001c-.206 0-.404-.018-.589-.054-3.031-.585-3.741-1.353-4.544-2.847-.296-.551-.668-1.776-.908-2.64.874-.715 2.391-2.376 5.191-6.232 2.115.907 3.157 1.6 3.804 2.031.622.415 1.114.742 1.849.742.732 0 1.208-.324 1.812-.734.641-.436 1.673-1.138 3.839-2.045M26 7c-4.741 1.867-4.982 3-6 3-1.016 0-1.293-1.097-6-3 0 0-5.023 7-6 7 0 0 .643 2.566 1.183 3.572.944 1.756 1.906 2.713 5.236 3.356.252.049.513.072.778.072l.087-.001c2.245-.042 4.71-2.182 4.71-3.999 0 1.788 2.437 3.904 4.654 3.996a4.098 4.098 0 00.971-.068c3.329-.642 4.262-1.604 5.207-3.362.537-1.004 1.18-3.572 1.18-3.572C31.059 13.994 26 7 26 7z" fill="#c74343"></path></g></svg>