<svg viewBox="0 0 40 40" xmlns="http://www.w3.org/2000/svg"><path fill="#bae0bd" d="M19 22.264l-.029.029L2.707 6.029l4.308-4.307L19 13.707 30.985 1.722l4.308 4.307-16.264 16.264z"></path><path d="M30.985 2.429l3.6 3.6-15.584 15.585-.031-.028L3.414 6.029l3.6-3.6 11.278 11.278.708.707.707-.707L30.985 2.429m0-1.414L19 13 7.015 1.015 2 6.029 18.971 23l.029-.029.029.029L36 6.029l-5.015-5.014z" fill="#5e9c76"></path><path fill="#bae0bd" d="M19 37.264l-.029.029L2.707 21.029l4.308-4.307L19 28.707l11.985-11.985 4.308 4.307-16.264 16.264z"></path><path d="M30.985 17.429l3.6 3.6-15.584 15.585-.031-.028L3.414 21.029l3.6-3.6 11.278 11.278.708.707.707-.707 11.278-11.278m0-1.414L19 28 7.015 16.015 2 21.029 18.971 38l.029-.029.029.029L36 21.029l-5.015-5.014z" fill="#5e9c76"></path><g><circle cx="30.5" cy="30.5" r="9" fill="#8bb7f0"></circle><path d="M30.5 22c4.687 0 8.5 3.813 8.5 8.5S35.187 39 30.5 39 22 35.187 22 30.5s3.813-8.5 8.5-8.5m0-1c-5.247 0-9.5 4.253-9.5 9.5s4.253 9.5 9.5 9.5 9.5-4.253 9.5-9.5-4.253-9.5-9.5-9.5z" fill="#4e7ab5"></path><path fill="none" stroke="#fff" stroke-width="2" stroke-miterlimit="10" d="M28 36V25M33 36V25M25 28h11M25 33h11"></path></g></svg>