<svg viewBox="0 0 40 40" xmlns="http://www.w3.org/2000/svg"><path fill="#ffeea3" d="M20 11.435L1.5 21.172v-5.87L20 5.565l18.5 9.737v5.87z"></path><path d="M20 6.13l18 9.474v4.74l-17.534-9.229L20 10.87l-.466.245L2 20.344v-4.74L20 6.13M20 5L1 15v7l19-10 19 10v-7L20 5z" fill="#ba9b48"></path><g><path fill="#f5ce85" d="M20 24.435L1.5 34.172v-5.87L20 18.565l18.5 9.737v5.87z"></path><path d="M20 19.13l18 9.474v4.74l-17.534-9.229L20 23.87l-.466.245L2 33.344v-4.74l18-9.474M20 18L1 28v7l19-10 19 10v-7L20 18z" fill="#967a44"></path></g></svg>