<svg viewBox="0 0 40 40" xmlns="http://www.w3.org/2000/svg"><path d="M26 6.5c-1.379 0-2.5-1.122-2.5-2.5s1.121-2.5 2.5-2.5c.55 0 1.079.187 1.53.539l.329.258.313-.279A1.99 1.99 0 0129.5 1.5c.947 0 1.771.673 1.959 1.6l.081.4h.409c.878 0 1.551.673 1.551 1.5s-.673 1.5-1.5 1.5h-6z" fill="#f78f8f"></path><path d="M29.5 2c.71 0 1.329.504 1.47 1.199l.162.801H32c.551 0 1 .449 1 1s-.449 1-1 1h-6c-1.103 0-2-.897-2-2s.897-2 2-2c.553 0 .97.235 1.222.433l.66.516.624-.559c.198-.178.531-.39.994-.39m0-1a2.48 2.48 0 00-1.662.645A2.972 2.972 0 0026 1a3 3 0 100 6h6c1.1 0 2-.9 2-2s-.9-2-2-2h-.05a2.502 2.502 0 00-2.45-2z" fill="#c74343"></path><path fill="#a16a4a" d="M32 8l6 2-6 2zM17 38h-1l2-5h1zM25 38h-1l-2-5h1z"></path><path d="M22.5 38.5c.617-.613 1.51-1 2.5-1h0c.99 0 1.883.387 2.5.999M14.5 38.5c.617-.613 1.51-1 2.5-1h0c.99 0 1.883.387 2.5.999" fill="none" stroke="#a16a4a" stroke-linecap="round" stroke-miterlimit="10"></path><path d="M20 33.5c-7.091 0-13.851-4.406-16.737-6.287l-.099-.064c.835-.277 1.882-.631 2.016-.682l.718-.276-2.983-2.984c.621-.207 1.483-.486 1.856-.607l.396-.129.744-.266-.747-.75c-.61-.62-1.354-1.373-1.938-1.956H12c7.416 0 11.5-3.107 11.5-8.75V9.5c0-2.206 2.243-4 5-4s5 1.794 5 4c0 .716-.166 1.298-.493 1.73-.414.544-.507 1.472-.507 1.753V14c0 .576.264 1.553.63 2.905.578 2.14 1.37 5.071 1.37 7.595 0 8.351-10.333 9-13.5 9h-1z" fill="#fff1e8"></path><path d="M28.5 6C30.981 6 33 7.57 33 9.5c0 .604-.132 1.085-.392 1.428-.499.658-.608 1.707-.608 2.056V14c0 .642.271 1.646.647 3.035C33.218 19.149 34 22.043 34 24.5c0 7.671-9.091 8.5-13 8.5h-1c-6.377 0-12.526-3.669-15.694-5.706.533-.18.979-.332 1.053-.36l1.436-.552-1.088-1.088-.239-.239-1.627-1.627a214.402 214.402 0 011.495-.486l1.488-.531-1.117-1.117-.185-.188c-.339-.345-.72-.73-1.091-1.105H12c7.738 0 12-3.285 12-9.25V9.5C24 7.57 26.019 6 28.5 6m0-1C25.462 5 23 7.015 23 9.5v1.25C23 16.842 18.092 19 12 19H2c.469.422 2.891 2.891 3 3-.082.029-2.945.945-3 1l3 3c-.203.078-2.813.953-3 1 2.019 1.212 9.75 7 18 7h1c7.327 0 14-2.62 14-9.5 0-4.096-2-9.116-2-10.5v-1.016c0-.301.109-1.062.405-1.452.434-.573.595-1.3.595-2.032C34 7.015 31.538 5 28.5 5z" fill="#a16a4a"></path><circle cx="29.5" cy="9.5" r="1.5" fill="#36404d"></circle><path d="M25.5 21.5c0 6.5-3.563 11.5-10 11.5" fill="none" stroke="#a16a4a" stroke-linecap="round" stroke-miterlimit="10"></path></svg>