<svg viewBox="0 0 40 40" xmlns="http://www.w3.org/2000/svg"><path d="M38.5 1.5a6.93 6.93 0 00-6.29 4.9" fill="none" stroke="#5e9c76" stroke-linecap="round" stroke-miterlimit="10"></path><circle cx="32.5" cy="7.5" r="2" fill="#bae0bd"></circle><path d="M32.5 6A1.5 1.5 0 1131 7.5 1.5 1.5 0 0132.5 6m0-1A2.5 2.5 0 1035 7.5 2.5 2.5 0 0032.5 5z" fill="#5e9c76"></path><path d="M4.32 37.33c1.88-2.12.67-5.5-.16-7.83a13.93 13.93 0 01-.57-1.81 6 6 0 012-5.74 4.86 4.86 0 00.83 3.48 3.64 3.64 0 002.8 1.72 2.09 2.09 0 001.47-.59c1.46-1.46.12-3.63-1.44-6.14C6.88 16.6 4 11.91 9.2 7.7c-1.2 3.91-.44 5.64.48 6.41a2.15 2.15 0 001.39.46 2.14 2.14 0 001.67-.73 2.25 2.25 0 00.49-1.08 3.55 3.55 0 010 3c-.28 1-.57 2 .06 2.77a2.19 2.19 0 001.72 1 2.36 2.36 0 001.64-.76c1.51-1.51 1-2.91.51-4.27-.6-1.68-1.22-3.41 1.32-6.08a5.51 5.51 0 001.2 3.43 2.26 2.26 0 001.68.81c.78 0 1.92-.44 3-2.47A7.9 7.9 0 0127 13c1.51 2.92 1.15 6.79-1 11.18C21.73 32.6 11.16 37.09 5.29 37.5z" fill="#ffc49c"></path><path d="M8.29 9.23c-.5 2.49-.15 4.25 1 5.24a2.66 2.66 0 001.73.59 2.65 2.65 0 002-.84 7.72 7.72 0 01-.32 1.41c-.3 1-.65 2.22.15 3.23A2.67 2.67 0 0015 20a2.86 2.86 0 002-.91c1.73-1.73 1.12-3.43.63-4.79s-1-2.75.49-4.72a5.34 5.34 0 001.19 2.58 2.75 2.75 0 002.06 1c.85 0 2-.42 3.19-2.24a7.38 7.38 0 012.44 3.4c.89 2.65.39 5.91-1.49 9.67C21.38 32.18 11.08 36.57 5.31 37h-.12c1.35-2.33.19-5.55-.56-7.64a13.8 13.8 0 01-.55-1.75 5.63 5.63 0 011-4.38A5.39 5.39 0 006 25.72a4.14 4.14 0 003.22 1.93 2.6 2.6 0 001.83-.74c1.73-1.73.22-4.17-1.38-6.75-2.24-3.63-4.55-7.36-1.38-10.93m1.89-2.85c-11.48 7.38 3.4 16.62.17 19.82a1.59 1.59 0 01-1.13.45c-1.8 0-4-2.69-2.89-5.61-2 .51-3.88 3.64-3.24 6.74.4 2.15 3.6 7.55.1 9.85l2.07.37c5.58-.37 16.64-4.62 21.11-13.56 5.58-11.17-2.16-15-2.16-15-.92 1.89-1.95 2.67-2.84 2.67-1.49 0-2.62-2.16-2.36-4.95-6.45 5.77.38 8.1-2.72 11.2A1.89 1.89 0 0115 19a1.71 1.71 0 01-1.33-.76c-1.19-1.51 2.13-4.38-1-6.75.33 2-.72 2.58-1.65 2.58a1.67 1.67 0 01-1.02-.34c-1-.8-1.54-2.8.18-7.34z" fill="#a16a4a"></path><path d="M6 38.5a12.57 12.57 0 01-3.23-.27l.58-.29c.51-.25 1.09-.53 1.62-.85 6.19-3.4 14-9.61 19.52-27.49a4 4 0 014-3.11 5.47 5.47 0 012.52.66 4.48 4.48 0 001 .38 2.83 2.83 0 00.43 0 7.33 7.33 0 001.07-.11 8.29 8.29 0 011.22-.12 3.53 3.53 0 011.51.32c1.35.61 2.78 2.06 2 5.47C32.09 38.21 7.08 38.5 6 38.5z" fill="#f78f8f"></path><path d="M28.54 7a5.05 5.05 0 012.31.61A4.91 4.91 0 0032 8a3.31 3.31 0 00.47 0 7.86 7.86 0 001.16 0 7.91 7.91 0 011.15-.11 3 3 0 011.3.27c1.69.77 2.27 2.46 1.7 4.89-2.27 9.21-7.35 16.09-15.1 20.46A36.09 36.09 0 016 38H4.44c.26-.13.51-.27.75-.42C11.5 34.09 19.43 27.81 25 9.78 25.62 7.88 26.75 7 28.54 7m0-1A4.46 4.46 0 0024 9.46c-5.63 18.27-13.59 24.07-19.3 27.2C3.53 37.39 2 38 2 38.2s.24.8 4 .8c7.48 0 27.35-3.86 32.73-25.76.8-3.38-.48-5.23-2.25-6a4.05 4.05 0 00-1.72-.36c-.86 0-1.63.22-2.29.22h-.33c-.8-.16-1.77-1-3.62-1z" fill="#c74343"></path></svg>