<svg viewBox="0 0 40 40" xmlns="http://www.w3.org/2000/svg"><path d="M26 32.5a11.512 11.512 0 01-10.843-7.697l-.104-.298-.314-.033A2.489 2.489 0 0112.5 22c0-1.111.724-2.07 1.8-2.386l.305-.089.049-.313C15.534 13.584 20.307 9.5 26 9.5s10.466 4.084 11.347 9.711l.049.313.305.089a2.477 2.477 0 011.8 2.386 2.487 2.487 0 01-2.238 2.471l-.314.033-.104.298C35.227 29.407 30.869 32.5 26 32.5z" fill="#deb974"></path><path d="M26 10c5.446 0 10.01 3.907 10.853 9.289l.098.626.608.179A1.98 1.98 0 0139 22c0 1.018-.77 1.866-1.791 1.974l-.629.066-.209.597C34.825 29.041 30.658 32 26 32s-8.825-2.959-10.371-7.363l-.209-.597-.629-.066A1.988 1.988 0 0113 22a1.98 1.98 0 011.441-1.906l.608-.179.098-.626A10.933 10.933 0 0126 10m0-1c-5.991 0-10.942 4.395-11.841 10.134A2.992 2.992 0 0012 22a2.99 2.99 0 002.686 2.968C16.326 29.643 20.765 33 26 33s9.674-3.357 11.314-8.032A2.99 2.99 0 0040 22c0-1.363-.915-2.5-2.159-2.866C36.942 13.395 31.991 9 26 9z" fill="#967a44"></path><path d="M22.667 26.167S24 27.5 26 27.5s3.333-1.333 3.333-1.333" fill="none" stroke="#c74343" stroke-linecap="round" stroke-linejoin="round" stroke-miterlimit="10"></path><path d="M22.5 6.5s3 .333 3 3M28.5 5.5s-3 1.333-3 4" fill="none" stroke="#7a4f34" stroke-linecap="round" stroke-linejoin="round" stroke-miterlimit="10"></path><circle cx="30.5" cy="22" r="1.5" fill="#36404d"></circle><circle cx="21.5" cy="22" r="1.5" fill="#36404d"></circle><path d="M14 32.5a11.512 11.512 0 01-10.843-7.697l-.104-.298-.314-.033A2.489 2.489 0 01.5 22c0-1.111.724-2.07 1.8-2.386l.305-.089.049-.313C3.534 13.584 8.307 9.5 14 9.5s10.466 4.084 11.347 9.711l.049.313.305.089a2.477 2.477 0 011.8 2.386 2.487 2.487 0 01-2.238 2.471l-.314.033-.104.298C23.227 29.407 18.869 32.5 14 32.5z" fill="#f5ce85"></path><path d="M14 10c5.446 0 10.01 3.907 10.853 9.289l.098.626.608.179A1.98 1.98 0 0127 22c0 1.018-.77 1.866-1.791 1.974l-.629.066-.209.597C22.825 29.041 18.658 32 14 32s-8.825-2.959-10.371-7.363l-.209-.597-.629-.066A1.988 1.988 0 011 22a1.98 1.98 0 011.441-1.906l.608-.179.098-.626A10.933 10.933 0 0114 10m0-1C8.009 9 3.058 13.395 2.159 19.134A2.992 2.992 0 000 22a2.99 2.99 0 002.686 2.968C4.326 29.643 8.765 33 14 33s9.674-3.357 11.314-8.032A2.99 2.99 0 0028 22c0-1.363-.915-2.5-2.159-2.866C24.942 13.395 19.991 9 14 9z" fill="#967a44"></path><path d="M10.667 26.167S12 27.5 14 27.5s3.333-1.333 3.333-1.333" fill="none" stroke="#c74343" stroke-linecap="round" stroke-linejoin="round" stroke-miterlimit="10"></path><path d="M10.5 6.5s3 .333 3 3M16.5 5.5s-3 1.333-3 4" fill="none" stroke="#7a4f34" stroke-linecap="round" stroke-linejoin="round" stroke-miterlimit="10"></path><circle cx="18.5" cy="22" r="1.5" fill="#36404d"></circle><circle cx="9.5" cy="22" r="1.5" fill="#36404d"></circle></svg>