<svg viewBox="0 0 40 40" xmlns="http://www.w3.org/2000/svg"><path d="M35.566 9.5c.091-1.085.076-3.472-1.377-5.756 3.374 1.022 4.107 4.44 4.266 5.756h-2.889z" fill="#a6714e"></path><path d="M35.314 4.815C37.015 5.916 37.64 7.821 37.868 9h-1.777c.026-1.016-.089-2.564-.777-4.185M33.007 3C35.75 6.125 35 10 35 10h3.998s-.186-6.375-5.991-7z" fill="#7a4f34"></path><path d="M20.551 9.5c.161-1.316.902-4.732 4.265-5.755-1.453 2.283-1.468 4.67-1.377 5.755h-2.888z" fill="#a6714e"></path><path d="M23.691 4.815c-.688 1.621-.803 3.169-.778 4.185h-1.777c.229-1.18.854-3.084 2.555-4.185M25.998 3c-5.806.625-5.992 7-5.992 7h3.998c.001 0-.749-3.875 1.994-7z" fill="#7a4f34"></path><circle cx="10" cy="6" r="4.5" fill="#f5ce85"></circle><path d="M10 2c2.206 0 4 1.794 4 4s-1.794 4-4 4-4-1.794-4-4 1.794-4 4-4m0-1a5 5 0 10.001 10.001A5 5 0 0010 1z" fill="#967a44"></path><path d="M3.036 27.5A1.538 1.538 0 011.5 25.964v-8.521l.016.005c.249.083.589.195.97.195h2.086v8.321A1.538 1.538 0 013.036 27.5z" fill="#f5ce85"></path><path d="M2 18.098c.15.027.312.045.485.045h1.587v7.821A1.038 1.038 0 013.036 27 1.037 1.037 0 012 25.964v-7.866m-.75-1.228c-.158 0-.25.096-.25.401v8.694a2.035 2.035 0 104.072-.001v-8.821H2.485c-.515 0-.969-.273-1.235-.273z" fill="#967a44"></path><path d="M17 27.5c-.827 0-1.5-.673-1.5-1.5v-7.5h3V26c0 .827-.673 1.5-1.5 1.5z" fill="#f5ce85"></path><path d="M18 19v7c0 .551-.449 1-1 1s-1-.449-1-1v-7h2m1-1h-4v8a2 2 0 104 0v-8z" fill="#967a44"></path><path d="M13.5 38.5c-1.103 0-2-.897-2-2v-10h4v10c0 1.103-.897 2-2 2z" fill="#f5ce85"></path><path d="M15 27v9.5c0 .827-.673 1.5-1.5 1.5s-1.5-.673-1.5-1.5V27h3m1-1h-5v10.5a2.5 2.5 0 105 0V26z" fill="#967a44"></path><path d="M6.5 38.5c-1.103 0-2-.897-2-2v-10h4v10c0 1.103-.897 2-2 2z" fill="#f5ce85"></path><path d="M8 27v9.5c0 .827-.673 1.5-1.5 1.5S5 37.327 5 36.5V27h3m1-1H4v10.5a2.5 2.5 0 105 0V26z" fill="#967a44"></path><path d="M4.5 24.5v-6h-3V17c0-2.481 2.019-4.5 4.5-4.5h8c2.481 0 4.5 2.019 4.5 4.5v1.5h-3v6h-11z" fill="#c2e8ff"></path><path d="M14 13c2.206 0 4 1.794 4 4v1h-3v6H5v-6H2v-1c0-2.206 1.794-4 4-4h8m0-1H6a5 5 0 00-5 5v2h3v6h12v-6h3v-2a5 5 0 00-5-5z" fill="#7496c4"></path><path fill="#f78f8f" d="M11.207 29.5L10 28.293 8.793 29.5H4.5v-7h11v7z"></path><path d="M15 23v6h-3.586l-.707-.707-.707-.707-.707.707-.707.707H5v-6h10m1-1H4v8h5l1-1 1 1h5v-8z" fill="#c74343"></path><g><circle cx="29.5" cy="5.5" r="4" fill="#f5ce85"></circle><path d="M29.5 2C31.43 2 33 3.57 33 5.5S31.43 9 29.5 9 26 7.43 26 5.5 27.57 2 29.5 2m0-1a4.5 4.5 0 100 9 4.5 4.5 0 000-9z" fill="#967a44"></path></g><g><path d="M23.036 26.5a1.538 1.538 0 01-1.536-1.536v-8.521l.016.005c.249.083.589.195.97.195h2.086v8.321a1.538 1.538 0 01-1.536 1.536z" fill="#f5ce85"></path><path d="M22 17.098c.15.027.312.045.485.045h1.587v7.821c0 .571-.465 1.036-1.036 1.036A1.037 1.037 0 0122 24.964v-7.866m-.75-1.228c-.158 0-.25.096-.25.401v8.694a2.035 2.035 0 104.072-.001v-8.821h-2.587c-.515 0-.969-.273-1.235-.273z" fill="#967a44"></path></g><g><path d="M36 26.5c-.827 0-1.5-.673-1.5-1.5v-7.5h3V25c0 .827-.673 1.5-1.5 1.5z" fill="#f5ce85"></path><path d="M37 18v7c0 .551-.449 1-1 1s-1-.449-1-1v-7h2m1-1h-4v8a2 2 0 104 0v-8z" fill="#967a44"></path></g><g><path d="M31.5 38.5c-1.103 0-2-.897-2-2v-11h4v11c0 1.103-.897 2-2 2z" fill="#f5ce85"></path><path d="M33 26v10.5c0 .827-.673 1.5-1.5 1.5s-1.5-.673-1.5-1.5V26h3m1-1h-5v11.5a2.5 2.5 0 105 0V25z" fill="#967a44"></path></g><g><path d="M27.5 38.5c-1.103 0-2-.897-2-2v-11h4v11c0 1.103-.897 2-2 2z" fill="#f5ce85"></path><path d="M29 26v10.5c0 .827-.673 1.5-1.5 1.5s-1.5-.673-1.5-1.5V26h3m1-1h-5v11.5a2.5 2.5 0 105 0V25z" fill="#967a44"></path></g><g><path d="M24.5 23.5v-6h-3V16c0-2.481 2.019-4.5 4.5-4.5h7c2.481 0 4.5 2.019 4.5 4.5v1.5h-3v6h-10z" fill="#bae0bd"></path><path d="M33 12c2.206 0 4 1.794 4 4v1h-3v6h-9v-6h-3v-1c0-2.206 1.794-4 4-4h7m0-1h-7a5 5 0 00-5 5v2h3v6h11v-6h3v-2a5 5 0 00-5-5z" fill="#5e9c76"></path></g><g><path d="M25.649 4.5c.445-1.745 2.014-3 3.851-3s3.405 1.255 3.851 3h-7.702z" fill="#a6714e"></path><path d="M29.5 2c1.376 0 2.58.808 3.142 2h-6.284A3.475 3.475 0 0129.5 2m0-1c-2.314 0-4.198 1.753-4.45 4h8.899c-.251-2.247-2.135-4-4.449-4z" fill="#7a4f34"></path></g><g><path d="M29.499 29.5c-3.263 0-6.646-.853-7.871-1.194l2.74-8.806h10.264l2.738 8.805c-1.226.342-4.613 1.195-7.871 1.195z" fill="#bae0bd"></path><path d="M34.264 20l2.475 7.958C35.27 28.342 32.336 29 29.499 29c-2.83 0-5.768-.659-7.239-1.042L24.736 20h9.528M35 19H24l-3.001 9.643S25.316 30 29.499 30s8.5-1.357 8.5-1.357L35 19z" fill="#5e9c76"></path></g></svg>