<svg viewBox="0 0 40 40" xmlns="http://www.w3.org/2000/svg"><path fill="#ffb5d2" d="M.822 33.885l12.179-12.178L19.323 28 8.914 38.38z"></path><path d="M13.002 22.413l5.613 5.588-9.788 9.759-7.183-3.99 11.358-11.357M13 21L0 34l9 5 11.031-11L13 21z" fill="#ea4c89"></path><path d="M5.626 26.919L12.5 15.135v-4.037c0-1.891.9-2.792 1.854-3.745L20 1.707 39.293 21l-5.646 5.646c-.923.923-2.409 1.854-3.647 1.854h-4.135l-11.784 6.874-8.455-8.455z" fill="#f2faff"></path><path d="M20 2.414L38.586 21l-5.293 5.293C32.443 27.143 31.095 28 30 28h-4.27l-.234.136-11.334 6.612-7.91-7.91 6.612-11.334.136-.234V11.098c0-1.684.791-2.475 1.707-3.391L20 2.414M20 1l-6 6c-1 1-2 2.019-2 4.098V15L5 27l9 9 12-7h4c1.414 0 3-1 4-2l6-6L20 1z" fill="#788b9c"></path><g><path fill="#ffb5d2" d="M39.293 21L36 24.293 16.707 5 20 1.708z"></path><path d="M20 2.414L38.586 21 36 23.586 17.414 5 20 2.414M20 1l-4 4 20 20 4-4L20 1z" fill="#ea4c89"></path></g><path d="M31.556 27.556l-18.18-18.18c-.23.468-.376 1.014-.376 1.722V15l13 13h4c.491 0 1.031-.178 1.556-.444z" fill="#d6e3ed"></path></svg>