<svg viewBox="0 0 40 40" xmlns="http://www.w3.org/2000/svg"><path fill="#a6714e" d="M8.5 1.5h23v31h-23z"></path><path d="M31 2v30H9V2h22m1-1H8v32h24V1z" fill="#7a4f34"></path><path fill="#c79371" d="M9.5 2.5h7v7h-7z"></path><path d="M16 3v6h-6V3h6m1-1H9v8h8V2z" fill="#996342"></path><path fill="#c79371" d="M16.5 2.5h7v7h-7z"></path><path d="M23 3v6h-6V3h6m1-1h-8v8h8V2z" fill="#996342"></path><path fill="#c79371" d="M23.5 2.5h7v7h-7z"></path><path d="M30 3v6h-6V3h6m1-1h-8v8h8V2z" fill="#996342"></path><path fill="#c79371" d="M9.5 9.5h7v7h-7z"></path><path d="M16 10v6h-6v-6h6m1-1H9v8h8V9z" fill="#996342"></path><path fill="#c79371" d="M16.5 9.5h7v7h-7z"></path><path d="M23 10v6h-6v-6h6m1-1h-8v8h8V9z" fill="#996342"></path><path fill="#c79371" d="M23.5 9.5h7v7h-7z"></path><path d="M30 10v6h-6v-6h6m1-1h-8v8h8V9z" fill="#996342"></path><g><path fill="#c79371" d="M9.5 16.5h7v7h-7z"></path><path d="M16 17v6h-6v-6h6m1-1H9v8h8v-8z" fill="#996342"></path></g><g><path fill="#c79371" d="M16.5 16.5h7v7h-7z"></path><path d="M23 17v6h-6v-6h6m1-1h-8v8h8v-8z" fill="#996342"></path></g><g><path fill="#c79371" d="M23.5 16.5h7v7h-7z"></path><path d="M30 17v6h-6v-6h6m1-1h-8v8h8v-8z" fill="#996342"></path></g><g><path d="M8 38.5a.5.5 0 01-.5-.5V17.561l24.558 2.834a.5.5 0 01.442.497V38a.5.5 0 01-.5.5H8z" fill="#f78f8f"></path><path d="M8 18.122l24 2.769V38H8V18.122M7 17v21a1 1 0 001 1h24a1 1 0 001-1V20.891a1 1 0 00-.885-.993L7 17z" fill="#c74343"></path></g><g><path fill="#e07070" d="M8 19v-1l24 3.545v8.91L24 33z"></path></g><g><path d="M7.5 17.741v-.181l24.677 2.848a.5.5 0 01.437.426l.831 5.811-9.355 2.807L7.5 17.741z" fill="#dcd5f2"></path><path d="M9.084 18.247l23.035 2.658.769 5.384-8.709 2.613L9.084 18.247M7 17v1l17 12 10-3-.891-6.236a1 1 0 00-.875-.852L7 17z" fill="#8b75a1"></path></g></svg>