<svg viewBox="0 0 40 40" xmlns="http://www.w3.org/2000/svg"><path d="M17.104 36.484c-.852-.209-3.989-2.394-4.855-3.875L6.074 22.68c-.86-1.474-.841-3.69.702-4.681.398-.256.819-.38 1.286-.38 1.426 0 2.911 1.196 3.625 1.771l.84.676-.198-8.068c0-6.078 3.846-10.498 9.146-10.498 5.314 0 9.026 4.339 9.026 10.552v20.352l-13.397 4.08z" fill-rule="evenodd" clip-rule="evenodd" fill="#f88f8f"></path><path d="M21.474 2C26.494 2 30 6.134 30 12.052v19.982l-12.885 3.924c-.929-.349-3.709-2.362-4.448-3.626L6.513 22.44c-.751-1.286-.761-3.19.533-4.021a1.83 1.83 0 011.016-.301c1.25 0 2.642 1.121 3.311 1.66l1.68 1.353L13 18.976l-.171-6.966c0-5.8 3.636-10.01 8.645-10.01m0-1c-5.815 0-9.646 4.851-9.646 11.01L12 19c-.88-.709-2.387-1.881-3.938-1.881-.521 0-1.047.132-1.556.459-1.743 1.12-1.894 3.589-.856 5.367l6.168 9.916C12.761 34.475 16.324 37 17.211 37c.09 0 .152-.026.181-.081L31 32.774V12.052C31 5.894 27.29 1 21.474 1z" fill="#c74343"></path><path d="M12 38.5c-1.995 0-3.5-1.505-3.5-3.5s1.505-3.5 3.5-3.5h18c2.028 0 3.5 1.442 3.5 3.429 0 2.036-1.505 3.571-3.5 3.571H12z" fill-rule="evenodd" clip-rule="evenodd" fill="#b0bec5"></path><path d="M30 32c1.738 0 3 1.232 3 2.929C33 36.68 31.71 38 30 38H12c-1.738 0-3-1.262-3-3s1.262-3 3-3h18m0-1H12c-2.316 0-4 1.753-4 4s1.684 4 4 4h18c2.317 0 4-1.824 4-4.071C34 32.681 32.317 31 30 31z" fill="#676d69"></path><path fill-rule="evenodd" clip-rule="evenodd" fill="#fff" d="M21.205 14.138h.834v6.732h-.834z"></path><path fill-rule="evenodd" clip-rule="evenodd" fill="#fff" d="M24.523 16.11l-.4-.738-5.638 3.47.4.738z"></path><path fill-rule="evenodd" clip-rule="evenodd" fill="#fff" d="M24.14 19.398l.4-.738-5.339-3.286-.4.739z"></path><path fill="#f88f8f" d="M26.739 16.643l-2.637-.793.76-2.746"></path><path fill="none" stroke="#fff" d="M26.739 16.643l-2.637-.793.76-2.746"></path><path fill="#f88f8f" d="M17.943 22.026l.761-2.749-2.64-.791"></path><path fill="none" stroke="#fff" d="M17.943 22.026l.761-2.749-2.64-.791"></path><path fill="#f88f8f" d="M23.564 11.928l-1.942 2.104-1.942-2.104"></path><path fill="none" stroke="#fff" d="M23.564 11.928l-1.942 2.104-1.942-2.104"></path><path fill="#f88f8f" d="M23.564 22.785l-1.942-2.022-1.942 2.022"></path><path fill="none" stroke="#fff" d="M23.564 22.785l-1.942-2.022-1.942 2.022"></path><path fill="#f88f8f" d="M27.109 18.273l-2.638.792.761 2.748"></path><path fill="none" stroke="#fff" d="M27.109 18.273l-2.638.792.761 2.748"></path><path fill="#f88f8f" d="M18.168 13.017l.761 2.748-2.64.791"></path><path fill="none" stroke="#fff" d="M18.168 13.017l.761 2.748-2.64.791"></path></svg>