<svg viewBox="0 0 40 40" xmlns="http://www.w3.org/2000/svg"><path d="M4 37.5A2.503 2.503 0 011.5 35V4c0-1.378 1.121-2.5 2.5-2.5h31c1.379 0 2.5 1.122 2.5 2.5v31c0 1.378-1.121 2.5-2.5 2.5H4z" fill="#e1ebf2"></path><path d="M35 2c1.103 0 2 .897 2 2v31c0 1.103-.897 2-2 2H4c-1.103 0-2-.897-2-2V4c0-1.103.897-2 2-2h31m0-1H4a3 3 0 00-3 3v31a3 3 0 003 3h31a3 3 0 003-3V4a3 3 0 00-3-3z" fill="#788b9c"></path><path fill="#b6c9d6" d="M5 2h1v35H5zM12 2h1v35h-1zM19 2h1v35h-1zM26 2h1v35h-1zM33 2h1v35h-1z"></path><path fill="#b6c9d6" d="M2 5h35v1H2zM2 12h35v1H2zM2 19h35v1H2zM2 26h35v1H2zM2 33h35v1H2z"></path><path d="M2 33.5h3l2.5-15.503L10 33.5h3L15.5 11 18 33.5h3L23.5 16 26 33.5h3l2.5-11 2.5 11h3" fill="none" stroke="#c74343" stroke-miterlimit="10"></path></svg>