<svg viewBox="0 0 40 40" xmlns="http://www.w3.org/2000/svg"><path d="M37.491 38.224C33.383 36.488 27.077 35.5 20 35.5s-13.383.988-17.491 2.724c.115-4.821 1.266-8.965 1.966-11.065l.691-2.077-1.524 1.57c-.779.803-1.445 1.488-2.115 2.426.287-9.528 2.83-12.725 2.857-12.757l1.107-1.343-3.839 1.278C3.544 7.394 10.817 1.5 20 1.5s16.456 5.894 18.348 14.755l-3.815-1.271 1.079 1.331c.026.032 2.57 3.345 2.861 12.878-.668-.969-1.329-1.702-2.107-2.535l-1.563-1.67.724 2.17c.699 2.1 1.849 6.245 1.964 11.066z" fill="#ffc49c"></path><path d="M20 2c8.779 0 15.546 5.241 17.658 13.499l-1.342-.447-3.13-1.038 2.031 2.609c.025.032 2.191 2.911 2.684 10.998-.37-.44-.754-.858-1.171-1.304l-3.125-3.339 1.446 4.338c.654 1.962 1.706 5.729 1.913 10.158C32.798 35.893 26.74 35 20 35c-6.74 0-12.798.893-16.964 2.475.207-4.429 1.259-8.197 1.913-10.158l1.381-4.148-3.049 3.137c-.422.434-.811.835-1.187 1.26.482-8.108 2.652-10.897 2.67-10.92l2.292-2.718-3.373 1.124-1.342.447C4.454 7.241 11.221 2 20 2m0-1C9.9 1 2.6 7.7 1 17l3-1s-3 3.557-3 14.857c1-1.8 1.868-2.692 3-3.857-.5 1.5-2 6.289-2 12 4.2-2 11-3 18-3s13.8 1 18 3c0-5.711-1.5-10.5-2-12 1.141 1.219 2 2.2 3 4 0-11.3-3-15-3-15l3 1C37.4 7.7 30.1 1 20 1z" fill="#a16a4a"></path><path d="M31.257 27.5c-1.737 0-3.757-1.747-3.757-4 0-2.206 1.441-4 3.214-4 1.508 0 3.786 0 3.786 2.5 0 2.215-1.362 5.5-3.243 5.5z" fill="#e8d47b"></path><path d="M30.714 20C32.234 20 34 20 34 22s-1.223 5-2.743 5C29.737 27 28 25.4 28 23.5s1.194-3.5 2.714-3.5m0-1C28.666 19 27 21.019 27 23.5c0 2.534 2.288 4.5 4.257 4.5C33.715 28 35 24.094 35 22c0-3-2.895-3-4.286-3z" fill="#a16a4a"></path><path d="M8.743 27.5C6.862 27.5 5.5 24.215 5.5 22c0-2.5 2.278-2.5 3.786-2.5 1.772 0 3.214 1.794 3.214 4 0 2.253-2.02 4-3.757 4z" fill="#e8d47b"></path><path d="M9.286 20C10.806 20 12 21.6 12 23.5S10.263 27 8.743 27 6 24 6 22s1.766-2 3.286-2m0-1C7.895 19 5 19 5 22c0 2.094 1.285 6 3.743 6C10.712 28 13 26.034 13 23.5c0-2.481-1.666-4.5-3.714-4.5z" fill="#a16a4a"></path><path d="M19.899 37.473c-1.935 0-3.074 0-6.146-1.89-6.232-3.997-5.192-8.922-5.182-8.971.014-.114.129-2.57 1.31-11.206.389-3.285 2.144-5.605 5.219-6.906h.4c.552 0 1 .449 1 1 0 1.103.897 2 2 2h3c1.103 0 2-.897 2-2 0-.551.448-1 1-1h.399c3.075 1.3 4.83 3.62 5.218 6.896 1.182 8.645 1.297 11.102 1.298 11.125.057.29 1.03 5.085-5.177 9.066-2.794 1.759-4.037 1.886-5.753 1.886h-.586z" fill="#ffeea3"></path><path d="M24.797 9c2.84 1.233 4.462 3.404 4.825 6.474 1.174 8.587 1.292 11.046 1.293 11.069l.005.091.017.082c.04.189.914 4.679-4.963 8.447-2.877 1.811-4.029 1.811-5.489 1.811l-.282-.001-.353-.001c-1.86 0-2.885 0-5.82-1.806-5.884-3.773-5.01-8.263-4.971-8.444l.02-.089.004-.09c.001-.024.119-2.482 1.296-11.088.361-3.052 1.983-5.223 4.823-6.455h.298a.5.5 0 01.5.5c0 1.379 1.121 2.5 2.5 2.5h3c1.379 0 2.5-1.121 2.5-2.5a.5.5 0 01.5-.5h.297M25 8h-.5c-.828 0-1.5.672-1.5 1.5s-.672 1.5-1.5 1.5h-3c-.828 0-1.5-.672-1.5-1.5S16.328 8 15.5 8H15c-2.503 1.034-5.112 3.101-5.613 7.338C8.186 24.123 8.085 26.5 8.085 26.5s-1.201 5.271 5.407 9.509c3.178 1.956 4.386 1.964 6.36 1.964h.048l.586.001c1.699 0 3.05-.094 6.022-1.965 6.608-4.237 5.407-9.509 5.407-9.509s-.1-2.377-1.302-11.162C30.112 11.101 27.503 9.034 25 8z" fill="#ba9b48"></path><path d="M21.006 21.501v-.618c0-1.708 3.534-3.914 3.994-3.844 1.693.259 3.006 1.83 3.006 3.712v.75c0 .828-.627 1.5-1.4 1.5h-4.2c-.774 0-1.4-.672-1.4-1.5z" fill="#fff"></path><path d="M20 23s1.163 1 2.58 1h3.852C27.848 24 29 22.834 29 21.334 29 18.113 28 16 28 16s-.124-.04-2.129.246c-3.156.759-5.003 3.345-5.859 4.927L20 23zm1.006-2.117c0-1.708 3.191-3.881 3.5-3.881 1.925 0 3.5 1.688 3.5 3.75v.75c0 .828-.627 1.5-1.4 1.5h-4.2c-.773 0-1.4-.672-1.4-1.5v-.619z" fill="#ba9b48"></path><path d="M20 33.5c-2.4 0-4.178-2.765-4.767-3.815.725-.398 2.449-1.185 4.767-1.185 2.33 0 4.046.785 4.767 1.183-.59 1.05-2.371 3.817-4.767 3.817z" fill="#f78f8f"></path><path d="M20 29a9.7 9.7 0 014.061.888C23.341 31.038 21.843 33 20 33c-1.744 0-3.266-1.823-4.068-3.109A9.711 9.711 0 0120 29m0-1c-3.3 0-5.429 1.5-5.429 1.5S16.7 34 20 34s5.429-4.5 5.429-4.5S23.3 28 20 28z" fill="#c74343"></path><g fill="#fff"><path d="M22 29.203c-.516-.093-1.203-.219-2-.203.149.586.561 1.878 1 1.878.462 0 .859-1.115 1-1.675zM19 30.878c.502 0 .872-1.291 1-1.878-.734-.016-1.494.11-2.016.203.163.571.609 1.675 1.016 1.675zM22 29.203c.132.409.528 1.389.789 1.581.492-.143 1.085-.661 1.272-.896-.514-.263-1.605-.586-2.061-.685zM17.967 29.203c-.132.409-.528 1.389-.789 1.581-.492-.143-1.085-.661-1.272-.896.514-.263 1.605-.586 2.061-.685z"></path></g><path d="M20 21v2l1-1c.006-1.117 2.525-5 7-5v-1c-4.688 0-6.989 3.13-8 5z" fill="#967a44"></path><path d="M26.723 23c.171-.295.277-.634.277-1a2 2 0 10-4 0c0 .366.106.705.277 1h3.446z" fill="#8bb7f0"></path><circle cx="25" cy="22" r="1" fill="#36404d"></circle><path d="M18.994 21.501v-.618c0-1.708-3.534-3.914-3.994-3.844-1.693.259-3.006 1.83-3.006 3.712v.75c0 .828.627 1.5 1.4 1.5h4.2c.774 0 1.4-.672 1.4-1.5z" fill="#fff"></path><path d="M19.989 21.173c-.856-1.583-2.703-4.168-5.859-4.927C12.124 15.96 12 16 12 16s-1 2.113-1 5.334c0 1.5 1.152 2.666 2.568 2.666h3.852c1.416 0 2.58-1 2.58-1l-.011-1.827zm-.995.328c0 .828-.627 1.5-1.4 1.5h-4.2c-.773 0-1.4-.672-1.4-1.5v-.75c0-2.063 1.575-3.75 3.5-3.75.309 0 3.5 2.174 3.5 3.881v.619z" fill="#ba9b48"></path><path d="M20 21v2l-1-1c-.006-1.117-2.525-5-7-5v-1c4.688 0 6.989 3.13 8 5z" fill="#967a44"></path><path d="M13.277 23A1.987 1.987 0 0113 22a2 2 0 114 0c0 .366-.106.705-.277 1h-3.446z" fill="#8bb7f0"></path><circle cx="15" cy="22" r="1" fill="#36404d"></circle><g><path d="M16.62 32.36c.081.08.156.163.241.24.045-.05-.057-.135-.241-.24zM22.242 33.295c.255-.162.497-.346.725-.542-.461.255-.776.46-.725.542z" fill="#c74343"></path><path d="M20 28c-3.3 0-5.429 1.5-5.429 1.5s.168.347.468.836c.231-.13.521-.278.892-.445A9.72 9.72 0 0120 29a9.7 9.7 0 014.061.888c.381.181.667.328.899.455.305-.497.469-.842.469-.842S23.3 28 20 28z" fill="#ba9b48"></path></g></svg>