<svg viewBox="0 0 40 40" xmlns="http://www.w3.org/2000/svg"><path d="M20 38.5A18.5 18.5 0 1138.5 20 18.52 18.52 0 0120 38.5z" fill="#f5ce85"></path><path d="M20 2A18 18 0 112 20 18 18 0 0120 2m0-1a19 19 0 1019 19A19 19 0 0020 1z" fill="#967a44"></path><path d="M20 1.5c4.28 0 13.5 6 13.5 16.67 0 7.65-5 13.33-13.5 13.33A11.41 11.41 0 018.5 20c0-7 5.94-10.5 9.5-10.5 6.79 0 9.5 4.33 9.5 8.5a6.55 6.55 0 01-6.5 6.5c-3.63 0-5.5-2.33-5.5-4.5 0-2.79 1.68-4.5 3.5-4.5 3 0 3.5 3.65 3.5 4.5" fill="none" stroke="#967a44" stroke-miterlimit="10"></path><circle cx="20.5" cy="5.5" r="1.5" fill="#967a44"></circle><circle cx="12.5" cy="19.5" r="1.5" fill="#967a44"></circle><circle cx="22.5" cy="27.5" r="1.5" fill="#967a44"></circle><circle cx="16.5" cy="34.5" r="1.5" fill="#967a44"></circle><circle cx="12" cy="8" r="1" fill="#967a44"></circle><circle cx="5" cy="17" r="1" fill="#967a44"></circle><circle cx="36" cy="21" r="1" fill="#967a44"></circle><circle cx="11" cy="32" r="1" fill="#967a44"></circle></svg>