<svg viewBox="0 0 40 40" xmlns="http://www.w3.org/2000/svg"><path d="M20 38.5C9.799 38.5 1.5 30.201 1.5 20c0-8.941 6.273-16.48 15-18.146v4.08c-6.398 1.589-11 7.44-11 14.066 0 7.995 6.505 14.5 14.5 14.5S34.5 27.995 34.5 20c0-6.626-4.602-12.478-11-14.066v-4.08c8.727 1.666 15 9.205 15 18.146 0 10.201-8.299 18.5-18.5 18.5z" fill="#8bb7f0"></path><path d="M24 2.469C32.18 4.311 38 11.506 38 20c0 9.925-8.075 18-18 18S2 29.925 2 20C2 11.506 7.82 4.311 16 2.469v3.079C9.58 7.325 5 13.277 5 20c0 8.271 6.729 15 15 15s15-6.729 15-15c0-6.723-4.58-12.675-11-14.452V2.469m-1-1.21V6.33C29.289 7.705 34 13.299 34 20c0 7.732-6.268 14-14 14S6 27.732 6 20c0-6.701 4.711-12.295 11-13.67V1.259C7.936 2.701 1 10.53 1 20c0 10.493 8.507 19 19 19s19-8.507 19-19c0-9.47-6.936-17.299-16-18.741z" fill="#4e7ab5"></path></svg>