<svg viewBox="0 0 40 40" xmlns="http://www.w3.org/2000/svg"><path d="M20 38.5c-10.201 0-18.5-8.295-18.5-18.49S9.799 1.52 20 1.52s18.5 8.294 18.5 18.49S30.201 38.5 20 38.5z" fill="#8bb7f0"></path><path d="M20 2.02c9.925 0 18 8.07 18 17.99S29.925 38 20 38 2 29.93 2 20.01 10.075 2.02 20 2.02m0-1C9.507 1.02 1 9.523 1 20.01S9.507 39 20 39s19-8.503 19-18.99S30.493 1.02 20 1.02z" fill="#4e7ab5"></path><path fill="#fff" d="M10.117 27.075l2.828 2.828 12.487-12.487L29 21.02v-10h-9.899l3.517 3.554z"></path></svg>