<svg viewBox="0 0 40 40" xmlns="http://www.w3.org/2000/svg"><path fill="#f78f8f" d="M1.56 38.5l2.6-23h31.68l2.6 23z"></path><path d="M35.392 16l2.488 22H2.119l2.488-22h30.785m.894-1H3.714L1 39h38l-2.714-24z" fill="#c74343"></path><path fill="#ffd1d1" d="M32.241 16h-2.75l3.594 22h2.75zM26.473 16h-2.75l4.527 22h1.375zM7.759 16h2.75L6.915 38h-2.75zM13.527 16h2.75L11.75 38h-1.375z"></path><path fill="#a6714e" d="M13.663 38.5l6.467-22.646L26.345 38.5z"></path><path d="M20.121 17.709L25.689 38H14.326l5.795-20.291M20.14 14L13 39h14l-6.86-25z" fill="#7a4f34"></path><path fill="#4e7ab5" d="M27 2.5L20 4V1z"></path><path d="M35.5 17.5c-1.119 0-2.141-.428-2.665-1.116l-.35-.46-.405.413c-.702.717-2.074 1.163-3.58 1.163-1.555 0-2.988-.485-3.652-1.235l-.354-.402-.376.382c-.75.762-2.366 1.255-4.118 1.255s-3.368-.493-4.117-1.255l-.376-.382-.354.402c-.664.75-2.098 1.235-3.652 1.235-1.506 0-2.878-.446-3.58-1.163l-.405-.413-.35.46C6.641 17.072 5.619 17.5 4.5 17.5c-1.626 0-3-.916-3-2v-2.184L20 4.553l18.5 8.763V15.5c0 1.084-1.374 2-3 2z" fill="#f78f8f"></path><path d="M20 5.107l18 8.526V15.5c0 .709-1.027 1.5-2.5 1.5-.952 0-1.842-.361-2.267-.919l-.701-.92-.809.826C31.266 16.454 30.147 17 28.5 17c-1.612 0-2.808-.536-3.277-1.067l-.711-.803-.752.765C23.22 16.445 21.848 17 20 17s-3.22-.555-3.76-1.105l-.752-.765-.711.803C14.308 16.464 13.112 17 11.5 17c-1.647 0-2.766-.546-3.223-1.013l-.809-.826-.701.92C6.342 16.639 5.452 17 4.5 17 3.027 17 2 16.209 2 15.5v-1.867l18-8.526M20 4L1 13v2.5C1 16.881 2.567 18 4.5 18c1.328 0 2.469-.535 3.062-1.313C8.325 17.465 9.792 18 11.5 18c1.774 0 3.293-.575 4.026-1.404C16.341 17.425 18.029 18 20 18s3.659-.575 4.474-1.404C25.207 17.425 26.726 18 28.5 18c1.708 0 3.175-.535 3.937-1.313.594.778 1.735 1.313 3.063 1.313 1.933 0 3.5-1.119 3.5-2.5V13L20 4z" fill="#c74343"></path><g><path d="M32.532 15.161l-.809.826C31.266 16.454 30.147 17 28.5 17c-1.612 0-2.808-.536-3.277-1.067l-.711-.803L20 5.108l12.532 10.053z" fill="#ffd1d1"></path></g><g><path d="M20 5.108L15.488 15.13l-.711.803C14.308 16.464 13.112 17 11.5 17c-1.647 0-2.766-.546-3.223-1.013l-.809-.826L20 5.108z" fill="#ffd1d1"></path></g></svg>