<svg viewBox="0 0 40 40" xmlns="http://www.w3.org/2000/svg"><path fill="#99c99e" d="M2.5 2.5h35v35h-35z"></path><path d="M37 3v34H3V3h34m1-1H2v36h36V2z" fill="#5e9c76"></path><path d="M11.5 33.5c-2.757 0-5-2.243-5-5s2.243-5 5-5a5.01 5.01 0 011.541.245l.291.094L23.84 13.333l-.095-.292A4.966 4.966 0 0123.5 11.5c0-2.757 2.243-5 5-5s5 2.243 5 5-2.243 5-5 5a5.01 5.01 0 01-1.541-.245l-.291-.094L16.16 26.667l.095.292c.163.5.245 1.019.245 1.541 0 2.757-2.243 5-5 5zm0-6a1.001 1.001 0 000 2 1.001 1.001 0 000-2zm17-17a1.001 1.001 0 000 2 1.001 1.001 0 000-2z" fill="#ffeea3"></path><path d="M28.5 7c2.481 0 4.5 2.019 4.5 4.5S30.981 16 28.5 16a4.47 4.47 0 01-1.387-.221l-.582-.189-.433.433-10.074 10.074-.433.433.189.582c.146.452.22.919.22 1.388 0 2.481-2.019 4.5-4.5 4.5S7 30.981 7 28.5 9.019 24 11.5 24c.469 0 .936.074 1.387.221l.582.189.433-.433 10.074-10.074.433-.433-.189-.582A4.51 4.51 0 0124 11.5C24 9.019 26.019 7 28.5 7m0 6c.827 0 1.5-.673 1.5-1.5s-.673-1.5-1.5-1.5-1.5.673-1.5 1.5.673 1.5 1.5 1.5m-17 17c.827 0 1.5-.673 1.5-1.5s-.673-1.5-1.5-1.5-1.5.673-1.5 1.5.673 1.5 1.5 1.5m17-24a5.5 5.5 0 00-5.231 7.196L13.196 23.269A5.5 5.5 0 1011.5 34a5.5 5.5 0 005.231-7.196L26.805 16.73A5.5 5.5 0 1028.5 6zm0 6a.5.5 0 110-1 .5.5 0 010 1zm-17 17a.5.5 0 110-1 .5.5 0 010 1z" fill="#5e9c76"></path><g><path d="M11.5 16.5c-2.757 0-5-2.243-5-5 0-.522.082-1.041.245-1.541l.095-.292L2.5 5.328V2.5h2.828l4.34 4.339.291-.094A5.01 5.01 0 0111.5 6.5c2.757 0 5 2.243 5 5s-2.243 5-5 5zm0-6a1.001 1.001 0 000 2 1.001 1.001 0 000-2z" fill="#ffeea3"></path><path d="M5.121 3l3.976 3.976.433.433.582-.189A4.51 4.51 0 0111.5 7c2.481 0 4.5 2.019 4.5 4.5S13.981 16 11.5 16 7 13.981 7 11.5c0-.469.074-.936.221-1.387l.188-.583-.433-.433L3 5.121V3h2.121M11.5 13c.827 0 1.5-.673 1.5-1.5s-.673-1.5-1.5-1.5-1.5.673-1.5 1.5.673 1.5 1.5 1.5M5.535 2H2v3.535l4.269 4.269A5.5 5.5 0 1017 11.5a5.5 5.5 0 00-7.196-5.231L5.535 2zM11.5 12a.5.5 0 110-1 .5.5 0 010 1z" fill="#5e9c76"></path></g><g><path d="M34.672 37.5l-4.34-4.339-.291.094a5.01 5.01 0 01-1.541.245c-2.757 0-5-2.243-5-5s2.243-5 5-5 5 2.243 5 5c0 .522-.082 1.041-.245 1.541l-.095.292 4.34 4.339V37.5h-2.828zm-6.172-10a1.001 1.001 0 000 2 1.001 1.001 0 000-2z" fill="#ffeea3"></path><path d="M28.5 24c2.481 0 4.5 2.019 4.5 4.5 0 .469-.074.936-.221 1.387l-.189.582.433.433L37 34.879V37h-2.121l-3.976-3.976-.433-.433-.582.189A4.51 4.51 0 0128.5 33c-2.481 0-4.5-2.019-4.5-4.5s2.019-4.5 4.5-4.5m0 6c.827 0 1.5-.673 1.5-1.5s-.673-1.5-1.5-1.5-1.5.673-1.5 1.5.673 1.5 1.5 1.5m0-7a5.5 5.5 0 101.696 10.731L34.465 38H38v-3.535l-4.269-4.269A5.5 5.5 0 0028.5 23zm0 6a.5.5 0 110-1 .5.5 0 010 1z" fill="#5e9c76"></path></g></svg>