<svg viewBox="0 0 40 40" xmlns="http://www.w3.org/2000/svg"><path d="M20 38.5C9.799 38.5 1.5 30.201 1.5 20S9.799 1.5 20 1.5 38.5 9.799 38.5 20 30.201 38.5 20 38.5zm0-33C12.005 5.5 5.5 12.005 5.5 20S12.005 34.5 20 34.5 34.5 27.995 34.5 20 27.995 5.5 20 5.5z" fill="#8bb7f0"></path><path d="M20 2c9.925 0 18 8.075 18 18s-8.075 18-18 18S2 29.925 2 20 10.075 2 20 2m0 33c8.271 0 15-6.729 15-15S28.271 5 20 5 5 11.729 5 20s6.729 15 15 15m0-34C9.507 1 1 9.507 1 20s8.507 19 19 19 19-8.507 19-19S30.493 1 20 1zm0 33c-7.732 0-14-6.268-14-14S12.268 6 20 6s14 6.268 14 14-6.268 14-14 14z" fill="#4e7ab5"></path></svg>