<svg viewBox="0 0 40 40" xmlns="http://www.w3.org/2000/svg"><path d="M20 38.51c-10.195 0-18.49-8.299-18.49-18.5S9.805 1.51 20 1.51s18.49 8.299 18.49 18.5-8.295 18.5-18.49 18.5z" fill="#8bb7f0"></path><path d="M20 2.01c9.92 0 17.99 8.075 17.99 18s-8.07 18-17.99 18c-9.92 0-17.99-8.075-17.99-18s8.07-18 17.99-18m0-1c-10.487 0-18.99 8.507-18.99 19s8.503 19 18.99 19c10.487 0 18.99-8.507 18.99-19s-8.503-19-18.99-19z" fill="#4e7ab5"></path><path fill="#fff" d="M27.065 29.893l2.828-2.828-12.487-12.487 3.604-3.568h-10v9.899l3.554-3.517z"></path></svg>