<svg viewBox="0 0 40 40" xmlns="http://www.w3.org/2000/svg"><path d="M20 35.5c-10.007 0-15.319-1.649-15.791-4.903l-.026-.179C2.503 18.823 1.5 11.439 1.5 10.667 1.5 6.69 8.07 4.5 20 4.5s18.5 2.19 18.5 6.167c0 1.209-2.288 17.061-2.709 19.927C35.312 33.851 30 35.5 20 35.5z" fill="#b0c1d4"></path><path d="M20 5c11.439 0 18 2.065 18 5.667 0 1.022-1.908 14.434-2.704 19.86-.083.563-.221 1.504-1.896 2.431C30.949 34.313 26.441 35 20 35c-6.445 0-10.955-.688-13.404-2.044-1.674-.927-1.81-1.868-1.892-2.433l-.032-.221C3.024 18.924 2 11.4 2 10.667 2 7.065 8.561 5 20 5m0-1C1.17 4 1 9.355 1 10.667c0 1.312 2.523 18.678 2.714 20C3.906 31.989 4.478 36 20 36s16.092-4.014 16.286-5.333S39 11.999 39 10.667 38.83 4 20 4z" fill="#66798f"></path><path d="M20 30.5c-7.789 0-11.223-1.975-11.839-3.822-.278-.828-.911-2.714-1.641-11.638-.103-1.249.196-2.235.914-3.014C9.479 9.806 14.682 9.5 20 9.5s10.521.306 12.566 2.525c.718.779 1.017 1.765.915 3.014-.728 8.917-1.363 10.808-1.634 11.614C31.227 28.526 27.796 30.5 20 30.5z" fill="#8bb7f0"></path><path d="M20 10c4.955 0 10.279.281 12.198 2.364.618.671.874 1.532.784 2.635-.722 8.855-1.367 10.773-1.618 11.523C30.832 28.126 27.538 30 20 30c-7.531 0-10.829-1.875-11.372-3.502-.264-.788-.884-2.632-1.61-11.499-.09-1.102.166-1.964.784-2.635C9.721 10.281 15.045 10 20 10m0-1c-8.058 0-14.414.775-13.979 6.08.743 9.062 1.393 10.944 1.666 11.756C8.28 28.615 11.276 31 20 31s11.724-2.385 12.313-4.164c.272-.812.926-2.693 1.666-11.756C34.414 9.775 28.058 9 20 9z" fill="#4e7ab5"></path><path fill="#fff" d="M19 23h2v2h-2zM24 23h2v2h-2zM14 23h2v2h-2z"></path></svg>