<svg viewBox="0 0 40 40" xmlns="http://www.w3.org/2000/svg"><path d="M16.661 1.504c14.878.226 17.993 10.603 19.174 14.537.314 1.047.444 1.481.765 1.668 1.208.705 1.9 1.523 1.9 2.247 0 .595-.763 1.618-1.774 2.379-.3.225-.38.672-.554 1.652-.699 3.931-2.546 14.311-19.689 14.509l.178-36.992z" fill="#f5ce85"></path><path d="M17.159 2.016c14.077.448 17.059 10.377 18.198 14.169.355 1.181.501 1.67.992 1.956 1.217.711 1.651 1.403 1.651 1.815 0 .376-.647 1.282-1.575 1.979-.458.344-.554.885-.746 1.964-.672 3.78-2.436 13.696-18.694 14.088l.174-35.971M16.164 1l-.183 38c21.456 0 20.15-15.593 21.045-16.265.926-.697 1.974-1.866 1.974-2.779 0-.913-.757-1.867-2.148-2.679C35.948 16.75 34.963 1 16.164 1z" fill="#967a44"></path><path d="M16 38.5C8.005 38.5 1.5 30.201 1.5 20S8.005 1.5 16 1.5 30.5 9.799 30.5 20 23.995 38.5 16 38.5z" fill="#f2d75c"></path><path d="M16 2c7.72 0 14 8.075 14 18s-6.28 18-14 18S2 29.925 2 20 8.28 2 16 2m0-1C7.716 1 1 9.505 1 20s6.716 19 15 19c8.285 0 15-8.505 15-19S24.285 1 16 1z" fill="#ba9b48"></path><path d="M15.948 16.479l4.208-10.38c-2.874-1.591-6.02-1.414-8.721.243l4.513 10.137zM18.22 18.176l8.715-.237c-.41-3.977-1.978-7.683-4.508-10.131L18.22 18.176zM22.786 31.843c1.154-1.218 2.144-2.755 2.893-4.597a19.065 19.065 0 001.319-5.789l-8.73.239 4.518 10.147zM16.053 23.522l-4.21 10.372c2.876 1.599 6.02 1.407 8.716-.236l-4.506-10.136z" fill="#fff5c4"></path><g><path d="M9.214 8.153c-1.156 1.209-2.149 2.751-2.896 4.604-.751 1.847-1.178 3.806-1.32 5.783l8.728-.243L9.214 8.153z" fill="#fff5c4"></path></g><g><path d="M13.778 21.82l-8.716.243c.41 3.974 1.98 7.683 4.506 10.133l4.21-10.376z" fill="#fff5c4"></path></g></svg>