<svg viewBox="0 0 40 40" xmlns="http://www.w3.org/2000/svg"><path fill="#788b9c" d="M2 2h36v36H2z"></path><path fill="#b6c9d6" d="M2 2h36v35H2z"></path><path fill="#f78f8f" d="M16.673 15.5L12.5 11.583V2.5h15v13z"></path><path d="M27 3v12H16.871L13 11.367V3h14m1-1H12v9.8l4.476 4.2H28V2z" fill="#c74343"></path><path d="M27 15H17l-4-3.666V2h14v13z" fill="#f78f8f"></path><path d="M27 15H17V2h10v13z" fill="#ffd1d1"></path><path fill="#ffeea3" d="M27.5 20.859V2.5h10v20.859z"></path><path d="M37 3v19.719l-9-2.25V3h9m1-1H27v19.25L38 24V2z" fill="#ba9b48"></path><path fill="#ffeea3" d="M28 20.489l10 2.5V2H28z"></path><path fill="#f5ce85" d="M2.5 2.5h10v17.31l-10 2.5z"></path><path d="M12 3v16.419l-9 2.25V3h9m1-1H2v20.95l11-2.75V2z" fill="#967a44"></path><path fill="#f5ce85" d="M12 19.446V2H2v19.946z"></path><path fill="#c74343" d="M20 6h3v6h-3zM20 2h3v2h-3zM26 6h1v6h-1zM26 2h1v2h-1z"></path><path fill="#ba9b48" d="M34 11.371l-3-.428v7.305L34 19zM31 2v5.639l3 .429V2zM38 12.021l-1-.143v7.966l1 .251zM37 8.464l1 .143V2h-1z"></path><path fill="#967a44" d="M6 8v9l3-.75V7.512z"></path><g><path fill="#967a44" d="M6 2v3l3-.488V2z"></path></g><g><path fill="#967a44" d="M2 17.942l2-.5V8.344L2 8.67z"></path></g><g><path fill="#967a44" d="M4 5.403V2H2v3.728z"></path></g></svg>