<svg viewBox="0 0 40 40" xmlns="http://www.w3.org/2000/svg"><path fill="#b6c9d6" d="M35.5 7.5h3v25h-3z"></path><path d="M38 8v24h-2V8h2m1-1h-4v26h4V7z" fill="#788b9c"></path><path fill="#b6c9d6" d="M1.5 7.5h3v25h-3z"></path><path d="M4 8v24H2V8h2m1-1H1v26h4V7z" fill="#788b9c"></path><path fill="#f5ce85" d="M4.5 9.5h31v3h-31z"></path><path d="M35 10v2H5v-2h30m1-1H4v4h32V9z" fill="#967a44"></path><g><path fill="#f5ce85" d="M4.5 15.5h31v3h-31z"></path><path d="M35 16v2H5v-2h30m1-1H4v4h32v-4z" fill="#967a44"></path></g><g><path fill="#f5ce85" d="M1.5 21.5h37v4h-37z"></path><path d="M38 22v3H2v-3h36m1-1H1v5h38v-5z" fill="#967a44"></path></g></svg>