<svg viewBox="0 0 40 40" xmlns="http://www.w3.org/2000/svg"><path d="M3 37.5c-.827 0-1.5-.673-1.5-1.5V7.808h37V36c0 .827-.673 1.5-1.5 1.5H3z" fill="#8bb7f0"></path><path d="M38 8.308V36c0 .551-.449 1-1 1H3c-.551 0-1-.449-1-1V8.308h36m1-1H1V36a2 2 0 002 2h34a2 2 0 002-2V7.308z" fill="#4e7ab5"></path><path d="M37 3H3a2 2 0 00-2 2v5h38V5a2 2 0 00-2-2z" fill="#4e7ab5"></path><path fill="#8bb7f0" d="M2 10h36v6H2z"></path><path d="M38 10H14l-4-6h27a1 1 0 011 1v5z" fill="#c2e8ff"></path><path fill="#fff" d="M26 16h4l4-6h-4zM18 16h4l4-6h-4zM10 16h4l4-6h-4zM2 16h4l4-6H6zM34 16h4v-6z"></path><path fill="#4e7ab5" d="M22 10h-4l-4-6h4zM30 10h-4l-4-6h4zM38 10h-4l-4-6h4z"></path><circle cx="5.5" cy="6.5" r="1.5" fill="#c2e8ff"></circle></svg>