<svg viewBox="0 0 40 40" xmlns="http://www.w3.org/2000/svg"><path fill="#ffc49c" d="M4.5 1.5h33v24h-33z"></path><path d="M37 2v23H5V2h32m1-1H4v25h34V1z" fill="#a16a4a"></path><path d="M3.5 27.5v-3H37c.827 0 1.5.673 1.5 1.5v1.5h-35z" fill="#ffc49c"></path><path d="M37 25c.551 0 1 .449 1 1v1H4v-2h33m0-1H3v4h36v-2a2 2 0 00-2-2z" fill="#a16a4a"></path><path fill="#5e9c76" d="M7 4h28v20H7z"></path><circle cx="5.5" cy="10.5" r="4" fill="#ffeea3"></circle><path d="M5.5 7C7.43 7 9 8.57 9 10.5S7.43 14 5.5 14 2 12.43 2 10.5 3.57 7 5.5 7m0-1a4.5 4.5 0 100 9 4.5 4.5 0 000-9z" fill="#ba9b48"></path><path d="M17.5 20.5v-4h2c1.103 0 2 .897 2 2s-.897 2-2 2h-2z" fill="#ffeea3"></path><path d="M19.5 17c.827 0 1.5.673 1.5 1.5s-.673 1.5-1.5 1.5H18v-3h1.5m0-1H17v5h2.5a2.5 2.5 0 100-5z" fill="#ba9b48"></path><path d="M1.5 34.5V20c0-1.93 1.57-3.5 3.5-3.5h12.5v4h-8v14h-8z" fill="#c2e8ff"></path><path d="M17 17v3H9v14H2V20c0-1.654 1.346-3 3-3h12m1-1H5a4 4 0 00-4 4v15h9V21h8v-5z" fill="#7496c4"></path><g><circle cx="5" cy="35" r="3.5" fill="#ffeea3"></circle><path d="M5 32c1.654 0 3 1.346 3 3s-1.346 3-3 3-3-1.346-3-3 1.346-3 3-3m0-1a4 4 0 100 8 4 4 0 000-8z" fill="#ba9b48"></path></g><g><circle cx="12" cy="35" r="3.5" fill="#ffeea3"></circle><path d="M12 32c1.654 0 3 1.346 3 3s-1.346 3-3 3-3-1.346-3-3 1.346-3 3-3m0-1a4 4 0 100 8 4 4 0 000-8z" fill="#ba9b48"></path></g><g><circle cx="19" cy="35" r="3.5" fill="#ffeea3"></circle><path d="M19 32c1.654 0 3 1.346 3 3s-1.346 3-3 3-3-1.346-3-3 1.346-3 3-3m0-1a4 4 0 100 8 4 4 0 000-8z" fill="#ba9b48"></path></g><g><circle cx="26" cy="35" r="3.5" fill="#ffeea3"></circle><path d="M26 32c1.654 0 3 1.346 3 3s-1.346 3-3 3-3-1.346-3-3 1.346-3 3-3m0-1a4 4 0 100 8 4 4 0 000-8z" fill="#ba9b48"></path></g><g><circle cx="33" cy="35" r="3.5" fill="#ffeea3"></circle><path d="M33 32c1.654 0 3 1.346 3 3s-1.346 3-3 3-3-1.346-3-3 1.346-3 3-3m0-1a4 4 0 100 8 4 4 0 000-8z" fill="#ba9b48"></path></g></svg>