<svg viewBox="0 0 40 40" xmlns="http://www.w3.org/2000/svg"><path d="M38.368 11.682L34.9 24.395a1.503 1.503 0 01-1.447 1.105H12.911" fill="none" stroke="#5e9c76" stroke-linecap="round" stroke-miterlimit="10"></path><path d="M3 1.5h2.119A4.305 4.305 0 019.36 5.067l4.498 25.866a4.305 4.305 0 004.241 3.567H35" fill="none" stroke="#66798f" stroke-miterlimit="10"></path><circle cx="3" cy="3" r="1.5" fill="#bae0bd"></circle><path d="M3 2c.551 0 1 .449 1 1s-.449 1-1 1-1-.449-1-1 .449-1 1-1m0-1a2 2 0 10-.001 3.999A2 2 0 003 1z" fill="#5e9c76"></path><circle cx="31.5" cy="36.5" r="2" fill="#b0c1d4"></circle><path d="M31.5 35c.827 0 1.5.673 1.5 1.5s-.673 1.5-1.5 1.5-1.5-.673-1.5-1.5.673-1.5 1.5-1.5m0-1a2.5 2.5 0 100 5 2.5 2.5 0 000-5z" fill="#66798f"></path><g><circle cx="18.5" cy="36.5" r="2" fill="#b0c1d4"></circle><path d="M18.5 35c.827 0 1.5.673 1.5 1.5s-.673 1.5-1.5 1.5-1.5-.673-1.5-1.5.673-1.5 1.5-1.5m0-1a2.5 2.5 0 100 5 2.5 2.5 0 000-5z" fill="#66798f"></path></g><g><path fill="#f78f8f" d="M24 13.122l-4.243 4.242-2.121-2.121L21.878 11l-4.242-4.243 2.121-2.121L24 8.878l4.243-4.242 2.121 2.121L26.122 11l4.242 4.243-2.121 2.121z"></path><path d="M28.243 5.343l1.414 1.414-3.536 3.536-.707.707.707.707 3.536 3.536-1.414 1.414-3.536-3.536-.707-.707-.707.707-3.536 3.536-1.414-1.414 3.536-3.536.707-.707-.707-.707-3.536-3.536 1.414-1.414 3.536 3.536.707.707.707-.707 3.536-3.536m0-1.414L24 8.172l-4.243-4.243-2.828 2.828L21.172 11l-4.243 4.243 2.828 2.828L24 13.828l4.243 4.243 2.828-2.828L26.828 11l4.243-4.243-2.828-2.828z" fill="#c74343"></path></g></svg>