<svg viewBox="0 0 40 40" xmlns="http://www.w3.org/2000/svg"><path d="M19 26.245l-.005.755c0 6.306-3.343 11-7.548 11-4.336 0-7.053-7.289-7.34-8.224-.015-.438-.202-1.43-.107-2.776-.72 1.203-.494 2.254-.759 3.296C3.785 31.993 6.358 39 11.447 39c4.985 0 8.571-4.875 8.571-12.171l.007-1.04c-.463.096-.54.362-1.025.456z" fill="#546e7a"></path><path d="M4.134 31.373C2.95 28.292.518 21.421.518 17 .518 6.293 8.294 1.5 16 1.5c16.213 0 23.472 4.774 23.518 15.475-1.991 4.575-7.363 7.075-20.397 9.494-2.76-1.984-5.251-2.99-7.409-2.99-4.988 0-6.905 5.121-7.578 7.894z" fill="#99c99e"></path><path d="M16 2c15.814 0 22.924 4.588 23.017 14.871-1.938 4.313-7.183 6.715-19.78 9.068-2.778-1.964-5.308-2.959-7.526-2.959-4.514 0-6.66 3.863-7.639 6.804C2.827 26.369 1.018 20.762 1.018 17 1.018 6.638 8.543 2 16 2m0-1C8 1 .018 5.962.018 17c0 5.982 4.286 16.154 4.286 16.154s1.082-9.174 7.408-9.174c1.912 0 4.303.838 7.289 3.02 13.545-2.497 18.986-5.117 21.018-9.923C40.018 4.453 30.141 1 16 1z" fill="#5e9c76"></path><path d="M21.317 8.754a8.618 8.618 0 00-2.049-1.062c-.23-.084-.474-.459.017-1.08.315-.399 1.153-1.418 1.711-2.089.58-.698 1.067-.522 1.33-.447.774.214 1.522.496 2.237.834.268.127.783.367.087 1.257-.454.579-1.4 1.754-2.03 2.479-.528.613-1.055.28-1.303.108M11.031 6.916c1.49-1.511 3.285-2.406 5.186-2.849.396-.093 1.176-.173.547.378a54.097 54.097 0 00-1.863 1.699c-.39.386-.895.464-1.101.485-1.83.184-3.008.531-2.769.287M26.995 15.81c-.491-1.361-1.082-2.532-1.744-3.536-.184-.275-.592-.757.332-1.66 1.137-1.106 3.031-2.9 3.497-3.314.681-.602 1.297-.152 1.583.095 1.477 1.269 2.371 2.639 2.337 3.879-.038 1.362-5.595 5.677-6.005 4.536" fill="#5e9c76"></path></svg>