<svg viewBox="0 0 40 40" xmlns="http://www.w3.org/2000/svg"><path fill="#788b9c" d="M24 24h1v15h-1z"></path><path d="M14.035 38.5a1.538 1.538 0 01-1.402-2.161l5.001-11.74-1.212-9.229-3.906 1.042A1.626 1.626 0 0112 16.5c-.41 0-.796-.16-1.086-.45l-4.965-4.93c-.289-.288-.449-.674-.449-1.084s.159-.796.45-1.086c.29-.29.676-.45 1.086-.45.409 0 .795.16 1.085.45l4.295 4.256 10.341-3.429 5.907-7.563a1.559 1.559 0 011.302-.714c.303 0 .597.089.85.258.342.228.574.575.654.977.081.402 0 .812-.229 1.153L24.5 12.833V20.5h3.691c1.105 0 1.783.353 2.016 1.05l2.207 7.904a1.544 1.544 0 01-1.449 2.046h-.001a1.533 1.533 0 01-1.456-1.051l-1.728-6.58-6.854 2.516-5.478 11.186a1.547 1.547 0 01-1.413.929z" fill="#ffeea3"></path><path d="M29.965 2c.204 0 .402.06.573.174.23.153.387.387.441.659.053.263.003.531-.141.757l-6.637 8.808-.201.267V21h4.192c.854 0 1.37.232 1.535.689l2.219 7.947a1.03 1.03 0 01-.656 1.31 1.035 1.035 0 01-1.299-.629l-1.587-6.043-.279-1.064-1.032.379-6.15 2.258-.377.138-.177.361-5.404 11.038a1.044 1.044 0 01-.95.616 1.04 1.04 0 01-.939-1.471l4.945-11.607.107-.251-.036-.271-1.12-8.529-.148-1.13-1.101.294-3.356.895-.03.008-.029.01a1.035 1.035 0 01-1.063-.254l-4.962-4.926a1.032 1.032 0 010-1.464 1.031 1.031 0 011.468.003l4.075 4.039.436.432.583-.193L22.77 10.3l.287-.095.186-.238 5.814-7.444.023-.029.021-.031c.194-.291.516-.463.864-.463m0-1c-.658 0-1.303.318-1.695.906L22.456 9.35l-9.906 3.284-4.075-4.038a2.033 2.033 0 00-2.879 0 2.036 2.036 0 000 2.879l4.964 4.929a2.038 2.038 0 002.084.491L16 16l1.12 8.529-4.945 11.607a2.036 2.036 0 003.722 1.655l5.389-11.005 6.15-2.258 1.597 6.079a2.037 2.037 0 002.575 1.288 2.035 2.035 0 001.287-2.574l-2.213-7.928C30.336 20.357 29.32 20 28.192 20H25v-7l6.658-8.835A2.035 2.035 0 0029.965 1z" fill="#ba9b48"></path><path d="M15.091 30.482l2.409-6.391V20.5h10.691c1.4 0 1.788.369 2.016 1.05l.361 1.252-3.31 1.258-6.333 2.325-2.724 5.533-3.11-1.436z" fill="#99c99e"></path><path d="M28.192 21c1.305 0 1.415.328 1.529.669l.239.83-2.869 1.091-6.15 2.258-.376.138-.177.359-2.42 4.916-2.246-1.037 2.213-5.87.065-.172V21h10.192m0-1H17v4l-2.541 6.741 3.977 1.835 2.851-5.791 6.15-2.258 3.74-1.422-.494-1.714C30.336 20.357 29.614 20 28.192 20z" fill="#5e9c76"></path><path d="M16.423 15.37l-2.923.778v-3.303l9.261-3.069 2.291-3.018 2.288 2.288-2.84 3.787v7.563a27.835 27.835 0 01-7.035 3.02l-1.042-8.046z" fill="#dcd5f2"></path><path d="M25.103 7.518l1.576 1.576L24.2 12.4l-.2.267v7.445a27.462 27.462 0 01-6.114 2.665l-.895-6.906-.147-1.131-1.102.293-1.742.464v-2.291l8.77-2.907.294-.098.188-.247 1.851-2.436M25 6l-2.544 3.351L13 12.484v4.314L16 16l1.042 8.042c.681-.172 4.757-1.127 8.994-4.042H25v-7l3-4-3-3z" fill="#8b75a1"></path><g><circle cx="18.5" cy="5.5" r="3" fill="#ffeea3"></circle><path d="M18.5 3C19.878 3 21 4.121 21 5.5S19.878 8 18.5 8 16 6.879 16 5.5 17.122 3 18.5 3m0-1a3.5 3.5 0 100 7 3.5 3.5 0 000-7z" fill="#ba9b48"></path></g><path d="M16.976 23.541S35.52 19.687 35.52 1" fill="none" stroke="#455a64"></path></svg>