<svg viewBox="0 0 40 40" xmlns="http://www.w3.org/2000/svg"><path fill="#fff" d="M3.5 38.5V13.286L19.998 3.58 36.5 13.286V38.5z"></path><path d="M19.998 4.16L36 13.572V38H4V13.572L19.998 4.16m0-1.16L3 13v26h34V13L19.998 3z" fill="#788b9c"></path><path fill="#f78f8f" d="M19.998 4.645L1.5 15.955v-3.059l18.498-11.31L38.5 12.896v3.059z"></path><path d="M19.998 2.172L38 13.176v1.887L20.519 4.378l-.522-.319-.522.319L2 15.063v-1.887L19.998 2.172m0-1.172L1 12.615v4.231L19.998 5.231 39 16.846v-4.231L19.998 1z" fill="#c74343"></path><g><path fill="#f78f8f" d="M18.5 31.5v-6h-6v-3h6v-6h3v6h6v3h-6v6z"></path><path d="M21 17v6h6v2h-6v6h-2v-6h-6v-2h6v-6h2m1-1h-4v6h-6v4h6v6h4v-6h6v-4h-6v-6z" fill="#c74343"></path></g></svg>