<svg viewBox="0 0 40 40" xmlns="http://www.w3.org/2000/svg"><path d="M7.363 37.5a.875.875 0 01-.863-.885V3.385c0-.488.388-.885.863-.885H17.54a3.14 3.14 0 00-.04.5c0 1.93 1.57 3.5 3.5 3.5s3.5-1.57 3.5-3.5a3.14 3.14 0 00-.04-.5h10.177c.476 0 .863.397.863.885v33.23a.876.876 0 01-.863.885H7.363z" fill="#f5c276"></path><path d="M34.636 3c.201 0 .364.173.364.385v33.231a.375.375 0 01-.364.384H7.364A.375.375 0 017 36.615V3.385C7 3.173 7.163 3 7.364 3H17c0 2.206 1.794 4 4 4s4-1.794 4-4h9.636m0-1h-10.82c.112.314.184.647.184 1a3 3 0 11-6 0c0-.353.072-.686.184-1H7.364C6.611 2 6 2.62 6 3.385v33.231C6 37.38 6.611 38 7.364 38h27.273c.752 0 1.363-.62 1.363-1.385V3.385C36 2.62 35.389 2 34.636 2z" fill="#c29653"></path><path d="M23.289 2a2.5 2.5 0 01-1.67 3.426A2.505 2.505 0 0118.5 3c0-.356.077-.693.211-1H14v4a2 2 0 002 2h10a2 2 0 002-2V2h-4.711z" fill="#66798f"></path><g><path d="M21 1c1.103 0 2 .897 2 2s-.897 2-2 2-2-.897-2-2 .897-2 2-2m0-1a3 3 0 100 6 3 3 0 000-6z" fill="#66798f"></path></g></svg>