<svg viewBox="0 0 40 40" xmlns="http://www.w3.org/2000/svg"><circle cx="9.465" cy="4.5" r="3" fill="#ffeea3"></circle><path d="M9.465 2c1.379 0 2.5 1.122 2.5 2.5S10.844 7 9.465 7s-2.5-1.122-2.5-2.5S8.086 2 9.465 2m0-1a3.5 3.5 0 100 7 3.5 3.5 0 000-7z" fill="#ba9b48"></path><path d="M12 37.5c-.827 0-1.5-.673-1.5-1.5V24.5h-2v11.458c0 .865-.659 1.542-1.5 1.542-.827 0-1.5-.673-1.5-1.5V24.5H5c-.827 0-1.5-.673-1.5-1.5v-8c0-3.033 2.468-5.5 5.5-5.5h1c3.032 0 5.5 2.467 5.5 5.5v8c0 .827-.673 1.5-1.5 1.5h-.5V36c0 .827-.673 1.5-1.5 1.5z" fill="#c2e8ff"></path><path d="M10 10c2.757 0 5 2.243 5 5v8c0 .551-.449 1-1 1h-1v12c0 .551-.449 1-1 1s-1-.449-1-1V24H8v11.958C8 36.542 7.561 37 7 37c-.551 0-1-.449-1-1V24H5c-.551 0-1-.449-1-1v-8c0-2.757 2.243-5 5-5h1m0-1H9a6 6 0 00-6 6v8a2 2 0 002 2v11a2 2 0 002 2c1.105 0 2-.895 2-2.042V25h1v11c0 1.1.9 2 2 2s2-.9 2-2V25a2 2 0 002-2v-8a6 6 0 00-6-6z" fill="#7496c4"></path><circle cx="30.465" cy="4.5" r="3" fill="#ffeea3"></circle><path d="M30.465 2c1.379 0 2.5 1.122 2.5 2.5S31.844 7 30.465 7s-2.5-1.122-2.5-2.5 1.121-2.5 2.5-2.5m0-1a3.5 3.5 0 100 7 3.5 3.5 0 000-7z" fill="#ba9b48"></path><path d="M33 37.5c-.827 0-1.5-.673-1.5-1.5V24.5h-2v11.458c0 .864-.659 1.542-1.5 1.542-.827 0-1.5-.673-1.5-1.5V24.5H26c-.827 0-1.5-.673-1.5-1.5v-8c0-3.033 2.468-5.5 5.5-5.5h1c3.032 0 5.5 2.467 5.5 5.5v8c0 .827-.673 1.5-1.5 1.5h-.5V36c0 .827-.673 1.5-1.5 1.5z" fill="#c2e8ff"></path><path d="M31 10c2.757 0 5 2.243 5 5v8c0 .551-.449 1-1 1h-1v12c0 .551-.449 1-1 1s-1-.449-1-1V24h-3v11.958c0 .584-.439 1.042-1 1.042-.551 0-1-.449-1-1V24h-1c-.551 0-1-.449-1-1v-8c0-2.757 2.243-5 5-5h1m0-1h-1a6 6 0 00-6 6v8a2 2 0 002 2v11a2 2 0 002 2c1.105 0 2-.895 2-2.042V25h1v11c0 1.1.9 2 2 2s2-.9 2-2V25a2 2 0 002-2v-8a6 6 0 00-6-6z" fill="#7496c4"></path><path d="M16 21v-6a5.97 5.97 0 00-.349-2H9v8h7zM30.228 15.421l-5.075-3.947A5.962 5.962 0 0024 15v8c0 .134.014.265.039.392l6.188-4.813L32.258 17l-2.03-1.579z" fill="#c2e8ff"></path><g><path fill="#f78f8f" d="M20.5 18.5h-9v-3h9v-4.478L28.186 17 20.5 22.978z"></path><path d="M21 12.045L27.371 17 21 21.955V18h-9v-2h9v-3.955M20 10v5h-9v4h9v5l9-7-9-7z" fill="#c74343"></path></g></svg>