<svg viewBox="0 0 40 40" xmlns="http://www.w3.org/2000/svg"><path fill="none" stroke="#5e9c76" stroke-linecap="round" stroke-miterlimit="10" d="M1 38.5h6.5l27-33"></path><circle cx="1.5" cy="20" r=".5" fill="#36404d"></circle><circle cx="3.5" cy="20" r=".5" fill="#36404d"></circle><circle cx="5.5" cy="20" r=".5" fill="#36404d"></circle><circle cx="7.5" cy="20" r=".5" fill="#36404d"></circle><circle cx="9.5" cy="20" r=".5" fill="#36404d"></circle><circle cx="29.5" cy="20" r=".5" fill="#36404d"></circle><circle cx="31.5" cy="20" r=".5" fill="#36404d"></circle><circle cx="33.5" cy="20" r=".5" fill="#36404d"></circle><circle cx="35.5" cy="20" r=".5" fill="#36404d"></circle><circle cx="37.5" cy="20" r=".5" fill="#36404d"></circle><circle cx="39.5" cy="20" r=".5" fill="#36404d"></circle><circle cx="11.5" cy="20" r=".5" fill="#36404d"></circle><circle cx="13.5" cy="20" r=".5" fill="#36404d"></circle><circle cx="15.5" cy="20" r=".5" fill="#36404d"></circle><circle cx="17.5" cy="20" r=".5" fill="#36404d"></circle><circle cx="19.5" cy="20" r=".5" fill="#36404d"></circle><circle cx="21.5" cy="20" r=".5" fill="#36404d"></circle><circle cx="23.5" cy="20" r=".5" fill="#36404d"></circle><circle cx="25.5" cy="20" r=".5" fill="#36404d"></circle><circle cx="27.5" cy="20" r=".5" fill="#36404d"></circle><circle cx="33" cy="7" r="5.5" fill="#f78f8f"></circle><path d="M33 2c2.757 0 5 2.243 5 5s-2.243 5-5 5-5-2.243-5-5 2.243-5 5-5m0-1a6 6 0 100 12 6 6 0 000-12z" fill="#c74343"></path><path fill="none" stroke="#fff" stroke-miterlimit="10" d="M30.576 9.424l4.848-4.848M30.576 4.576l4.848 4.848"></path></svg>