<svg viewBox="0 0 40 40" xmlns="http://www.w3.org/2000/svg"><path d="M15.033 16.428c-2.184 0-4.533-1.073-4.533-3.428 0-4.14 3.396-8.104 4.502-9.285C16.111 4.882 19.5 8.795 19.5 13c0 1.324-.727 2.113-1.337 2.541-.815.572-1.927.887-3.13.887z" fill="#c74343"></path><path d="M15.007 4.454C16.311 5.908 19 9.348 19 13c0 2.012-2.056 2.928-3.967 2.928C13.091 15.928 11 15.012 11 13c0-3.581 2.703-7.071 4.007-8.546M15 3s-5 4.809-5 10c0 2.607 2.522 3.928 5.033 3.928C17.522 16.928 20 15.63 20 13c0-5.284-5-10-5-10z" fill="#ab3434"></path><path d="M25.033 16.428c-2.184 0-4.533-1.073-4.533-3.428 0-4.14 3.396-8.104 4.502-9.285C26.111 4.882 29.5 8.795 29.5 13c0 1.324-.727 2.113-1.337 2.541-.815.572-1.927.887-3.13.887z" fill="#c74343"></path><path d="M25.007 4.454C26.311 5.908 29 9.348 29 13c0 2.012-2.056 2.928-3.967 2.928C23.091 15.928 21 15.012 21 13c0-3.581 2.703-7.071 4.007-8.546M25 3s-5 4.809-5 10c0 2.607 2.522 3.928 5.033 3.928C27.522 16.928 30 15.63 30 13c0-5.284-5-10-5-10z" fill="#ab3434"></path><path d="M18 38.5c-4.903 0-16.233-1.761-16.496-17.925 16.253 2.41 18.622 15.117 18.948 17.925H18z" fill="#99c99e"></path><path d="M2.02 21.163C16.494 23.589 19.338 34.511 19.879 38H18c-4.693 0-15.458-1.671-15.98-16.837M1 20c0 18.9 14.8 19 17 19h3s-.9-16.5-20-19z" fill="#5e9c76"></path><path fill="#5e9c76" d="M19 20h2v19h-2z"></path><path d="M19.548 38.5c.326-2.808 2.694-15.515 18.948-17.925C38.233 36.739 26.903 38.5 22 38.5h-2.452z" fill="#bae0bd"></path><path d="M37.98 21.163C37.457 36.329 26.693 38 22 38h-1.879c.542-3.491 3.386-14.411 17.859-16.837M39 20c-19.1 2.5-20 19-20 19h3c2.2 0 17-.1 17-19z" fill="#5e9c76"></path><g><path d="M19.309 21.479C15.375 21.245 8.5 19.05 8.5 13c0-4.607 2.484-7.387 3.436-8.282.911 1.217 3.797 5.637 7.373 16.761z" fill="#f75252"></path><path d="M11.869 5.485c1.106 1.625 3.64 5.983 6.732 15.431C14.778 20.486 9 18.337 9 13c0-3.895 1.812-6.391 2.869-7.515M12 4s-4 3.015-4 9c0 6.67 7.798 9 12 9-4.537-14.347-8-18-8-18z" fill="#ab3434"></path></g><g><path d="M20.691 21.479c3.581-11.138 6.47-15.556 7.376-16.766.949.875 3.433 3.614 3.433 8.287 0 6.05-6.875 8.245-10.809 8.479z" fill="#f75252"></path><path d="M28.137 5.476C29.185 6.578 31 9.054 31 13c0 5.337-5.778 7.486-9.601 7.916 3.097-9.464 5.635-13.821 6.738-15.44M28 4s-3.463 3.653-8 18c4.202 0 12-2.33 12-9 0-6.093-4-9-4-9z" fill="#ab3434"></path></g><g><path d="M20 21.5c-2.965 0-6.5-1.215-6.5-7.001 0-4.542 5.062-10.985 6.5-12.724 1.437 1.739 6.5 8.185 6.5 12.724 0 4.711-2.126 7.001-6.5 7.001z" fill="#f78f8f"></path><path d="M20 2.567c1.761 2.192 6 7.892 6 11.932C26 18.934 24.093 21 20 21c-3.981 0-6-2.187-6-6.501 0-4.04 4.239-9.74 6-11.932M20 1s-7 7.984-7 13.499C13 19.922 15.984 22 20 22s7-1.847 7-7.501C27 8.984 20 1 20 1z" fill="#c74343"></path></g></svg>