<svg viewBox="0 0 40 40" xmlns="http://www.w3.org/2000/svg"><path d="M6 32.5c-2.081 0-4.5-5.46-4.5-12.5S3.919 7.5 6 7.5h27c2.081 0 4.5 5.46 4.5 12.5S35.081 32.5 33 32.5H6z" fill="#b6c9d6"></path><path d="M33 8c1.41 0 4 4.556 4 12s-2.59 12-4 12H6c-1.41 0-4-4.556-4-12S4.59 8 6 8h27m0-1H6c-2.484 0-5 5.78-5 13s2.516 13 5 13h27c2.484 0 5-5.78 5-13S35.484 7 33 7z" fill="#788b9c"></path><path d="M18 22c-.063 1.331-.461 2.289-1.197 2.974-.734.683-1.772 1.026-3.111 1.026-1.407 0-2.486-.434-3.235-1.303-.749-.87-1.124-2.108-1.124-3.718v-1.965c0-1.604.387-2.84 1.162-3.709.776-.871 1.852-1.305 3.232-1.305 1.356 0 2.386.356 3.09 1.067.704.712 1.086 1.602 1.183 2.933h-2.521c-.023-.823-.141-1.261-.389-1.573-.248-.312-.703-.469-1.363-.469-.673 0-1.148.221-1.427.662-.28.441-.549 1.169-.566 2.181v2.4c0 1.161.259 1.761.536 2.193.276.433.75.651 1.423.651.661 0 1.117-.151 1.368-.453.251-.303.393-.799.427-1.591L18 22zM29 22c-.063 1.331-.461 2.289-1.197 2.974-.734.683-1.772 1.026-3.111 1.026-1.407 0-2.486-.434-3.235-1.303-.749-.87-1.124-2.108-1.124-3.718v-1.965c0-1.604.387-2.84 1.162-3.709.776-.871 1.852-1.305 3.232-1.305 1.356 0 2.386.356 3.09 1.067.704.712 1.086 1.602 1.183 2.933h-2.521c-.023-.823-.141-1.261-.389-1.573-.248-.312-.703-.469-1.363-.469-.673 0-1.148.221-1.427.662-.28.441-.549 1.169-.566 2.181v2.4c0 1.161.259 1.761.536 2.193.276.433.75.651 1.423.651.661 0 1.117-.151 1.368-.453.251-.303.393-.799.427-1.591L29 22z" fill="#fff"></path></svg>