<svg viewBox="0 0 40 40" xmlns="http://www.w3.org/2000/svg"><path d="M4.893 36.471c.787-1.35 1.711-3 2.56-4.577l.199-.37-.329-.26C3.568 28.296 1.5 24.296 1.5 20 1.5 11.453 9.799 4.5 20 4.5S38.5 11.453 38.5 20 30.201 35.5 20 35.5c-2.173 0-4.339-.332-6.436-.985l-.163-.051-.16.06c-2.945 1.094-5.987 1.798-8.348 1.947z" fill="#f2faff"></path><path d="M20 5c9.925 0 18 6.729 18 15s-8.075 15-18 15c-2.123 0-4.239-.324-6.287-.962l-.326-.102-.32.119c-2.521.936-5.108 1.583-7.26 1.831a169.857 169.857 0 002.086-3.756l.398-.739-.658-.52C4 28.001 2 24.14 2 20c0-8.271 8.075-15 18-15m0-1C9.507 4 1 11.163 1 20c0 4.601 2.32 8.737 6.013 11.656A150.463 150.463 0 014 37c2.597 0 6.172-.803 9.415-2.007A22.113 22.113 0 0020 36c10.493 0 19-7.163 19-16S30.493 4 20 4z" fill="#788b9c"></path><path d="M24.5 16.571V15a4.5 4.5 0 00-9 0v1.571" fill="none" stroke="#66798f" stroke-miterlimit="10"></path><path d="M12.5 27.5v-8.833a2.17 2.17 0 012.167-2.167h10.667a2.17 2.17 0 012.167 2.167V27.5H12.5z" fill="#f5ce85"></path><path d="M25.333 17A1.67 1.67 0 0127 18.667V27H13v-8.333A1.67 1.67 0 0114.667 17h10.666m0-1H14.667A2.667 2.667 0 0012 18.667V28h16v-9.333A2.667 2.667 0 0025.333 16z" fill="#967a44"></path><path fill="#ffeea3" d="M13 26h14v1H13zM13 24h14v1H13zM13 22h14v1H13zM13 20h14v1H13zM13 19h14c.023-.691-.076-.851-.136-1H13.137c-.155.305-.137.587-.137 1z"></path></svg>