<svg viewBox="0 0 40 40" xmlns="http://www.w3.org/2000/svg"><path fill="#f76d6d" d="M2.5 2.5h35v35h-35z"></path><path d="M37 3v34H3V3h34m1-1H2v36h36V2z" fill="#c74343"></path><path fill="#c74343" d="M2 6h36v1H2zM2 9.009h36V10H2zM2 12.009h36V13H2zM2 15.009h36V16H2zM2 18.009h36V19H2zM2 21.009h36V22H2zM2 24.009h36V25H2zM2 27.009h36V28H2zM2 30.009h36V31H2zM2 33.009h36V34H2z"></path><path fill="#f7a3a3" d="M33 3h1v3h-1zM33 7h1v5h-1zM33 13h1v5h-1zM33 19h1v5h-1zM33 25h1v5h-1zM33 31h1v6h-1zM30 34h1v3h-1zM30 28h1v5h-1zM30 22h1v5h-1zM30 16h1v5h-1zM30 10h1v5h-1zM30 3h1v6h-1zM27 3h1v3h-1zM27 7h1v5h-1zM27 13h1v5h-1zM27 19h1v5h-1zM27 25h1v5h-1zM27 31h1v6h-1zM24 34h1v3h-1zM24 28h1v5h-1zM24 22h1v5h-1zM24 16h1v5h-1zM24 10h1v5h-1zM24 3h1v6h-1zM21 3h1v3h-1zM21 7h1v5h-1zM21 13h1v5h-1zM21 19h1v5h-1zM21 25h1v5h-1zM21 31h1v6h-1zM18 34h1v3h-1zM18 28h1v5h-1zM18 22h1v5h-1zM18 16h1v5h-1zM18 10h1v5h-1zM18 3h1v6h-1zM15 3h1v3h-1zM15 7h1v5h-1zM15 13h1v5h-1zM15 19h1v5h-1zM15 25h1v5h-1zM15 31h1v6h-1zM12 34h1v3h-1zM12 28h1v5h-1zM12 22h1v5h-1zM12 16h1v5h-1zM12 10h1v5h-1zM12 3h1v6h-1zM9 3h1v3H9zM9 7h1v5H9zM9 13h1v5H9zM9 19h1v5H9zM9 25h1v5H9zM9 31h1v6H9zM6 34h1v3H6zM6 28h1v5H6zM6 22h1v5H6zM6 16h1v5H6zM6 10h1v5H6zM6 3h1v6H6z"></path></svg>