<svg viewBox="0 0 40 40" xmlns="http://www.w3.org/2000/svg"><path d="M8.5 38.5V12.145L5.685 14.96.707 9.981l5.895-5.895A8.778 8.778 0 0112.848 1.5h14.305c2.359 0 4.578.919 6.246 2.587l5.895 5.895-4.978 4.978-2.816-2.815V38.5h-23z" fill="#c2e8ff"></path><path d="M27.152 2c2.226 0 4.319.867 5.892 2.441l5.541 5.541-4.271 4.271-1.608-1.608L31 10.937V38H9V10.938l-1.707 1.707-1.608 1.608-4.271-4.271 5.541-5.541A8.28 8.28 0 0112.848 2h14.304m0-1H12.848a9.333 9.333 0 00-6.6 2.734L0 9.982l5.685 5.685L8 13.352V39h24V13.352l2.315 2.315L40 9.982l-6.248-6.248A9.33 9.33 0 0027.152 1z" fill="#7496c4"></path><g><path d="M20 6.5c-4.136 0-5.81-3.536-6.325-5h12.65c-.515 1.464-2.189 5-6.325 5z" fill="#8bb7f0"></path><path d="M25.579 2c-.7 1.547-2.324 4-5.579 4-3.284 0-4.896-2.451-5.587-4h11.166M27 1H13s1.426 6 7 6 7-6 7-6z" fill="#4e7ab5"></path></g></svg>