<svg viewBox="0 0 40 40" xmlns="http://www.w3.org/2000/svg"><path fill="#8bb7f0" d="M1.5 38.5V29L5.504 1.5h28.992l4.009 27.572L38.5 38.5z"></path><path d="M34.063 2L38 29.072V38H2v-8.928L5.937 2h28.126m.866-1H5.071L1 29v10h38V29L34.929 1z" fill="#4e7ab5"></path><path fill="#c2e8ff" d="M37.993 29H2.008L5.935 2h28.126z"></path><circle cx="33.5" cy="33.5" r="1.5" fill="#fff"></circle><circle cx="10.5" cy="33.5" r="1.5" fill="#fff"></circle><circle cx="14.5" cy="33.5" r="1.5" fill="#fff"></circle><circle cx="6.5" cy="33.5" r="1.5" fill="#fff"></circle><g><path d="M11.955 22.5l-.205-.027C9.928 22.342 8.5 20.816 8.5 19c0-1.25.656-2.378 1.756-3.016l.249-.145v-.288C10.5 13.294 12.294 11.5 14.5 11.5c.256 0 .52.027.784.079l.402.08.157-.379A4.49 4.49 0 0120 8.5a4.495 4.495 0 014.14 2.737l.145.338.515-.056c.065-.009.132-.019.2-.019 1.93 0 3.5 1.57 3.5 3.5a1.042 1.042 0 00-.014.116l-.017.405.394.1A3.492 3.492 0 0131.5 19c0 1.93-1.57 3.5-3.5 3.5H11.955z" fill="#fff"></path><path d="M20 9c1.605 0 3.049.955 3.68 2.433l.289.676.732-.074.166-.02c.044-.006.087-.015.133-.015a3.004 3.004 0 013 2.956 1.745 1.745 0 00-.013.147l-.027.804.78.199c1.33.34 2.26 1.53 2.26 2.894 0 1.654-1.346 3-3 3H12.151l-.365-.026C10.224 21.861 9 20.555 9 19c0-1.07.563-2.036 1.507-2.583l.504-.292-.006-.583A.928.928 0 0011 15.45 3.504 3.504 0 0114.5 12c.223 0 .454.023.687.07l.805.16.314-.758A3.988 3.988 0 0120 9m0-1a4.998 4.998 0 00-4.618 3.089A4.5 4.5 0 0010 15.5c0 .018.005.034.005.052C8.812 16.244 8 17.521 8 19c0 2.111 1.641 3.822 3.714 3.971V23H28a4 4 0 004-4 3.99 3.99 0 00-3.014-3.863c.002-.046.014-.09.014-.137a4 4 0 00-4-4c-.137 0-.267.027-.4.04A5 5 0 0020 8z" fill="#7496c4"></path></g></svg>