<svg viewBox="0 0 40 40" xmlns="http://www.w3.org/2000/svg"><path d="M18 17.732c-1.313-1.55-3.635-4.452-5.375-6.626a493.668 493.668 0 00-1.953-2.431c-1.577-1.933-1.573-4.408.01-6.02A3.82 3.82 0 0113.423 1.5c1.059 0 2.096.417 2.922 1.174.21.192.438.427.706.703.176.181.936.946.936.946l.38-.354c.214-.214.406-.412.582-.592.268-.276.496-.511.706-.703.825-.757 1.863-1.174 2.922-1.174a3.82 3.82 0 012.742 1.156c1.583 1.611 1.586 4.087.01 6.02-.414.507-1.121 1.39-1.954 2.431-1.74 2.173-4.062 5.075-5.375 6.625z" fill="#bae0bd"></path><path d="M22.577 2a3.32 3.32 0 012.385 1.006c1.398 1.423 1.389 3.624-.021 5.353a395.21 395.21 0 00-1.964 2.445c-1.578 1.971-3.635 4.542-4.977 6.151-1.342-1.609-3.399-4.18-4.977-6.151a489.742 489.742 0 00-1.964-2.445c-1.41-1.728-1.419-3.929-.021-5.353A3.323 3.323 0 0113.423 2c.933 0 1.851.37 2.584 1.043.205.188.428.418.691.689.175.18.367.378.581.592l.7.675.033.033.708-.708c.214-.214.406-.411.581-.592.263-.27.486-.501.691-.689C20.726 2.37 21.644 2 22.577 2m0-1c-1.155 0-2.324.447-3.26 1.306-.352.323-.754.76-1.304 1.31L18 3.603l-.013.013c-.55-.55-.952-.988-1.304-1.31C15.747 1.448 14.578 1 13.423 1a4.298 4.298 0 00-3.099 1.306c-1.755 1.788-1.762 4.574-.04 6.685C11.66 10.678 16.278 16.524 18 18.5c1.722-1.976 6.34-7.822 7.716-9.509 1.722-2.111 1.715-4.897-.041-6.685A4.298 4.298 0 0022.577 1z" fill="#5e9c76"></path><path d="M5.551 26.5a4.11 4.11 0 01-2.896-1.182c-1.552-1.524-1.544-3.959.019-5.664a18.7 18.7 0 01.709-.712c.179-.174.94-.93.94-.93l-.354-.38c-.212-.212-.408-.402-.586-.576-.279-.271-.515-.5-.709-.712-1.563-1.705-1.571-4.139-.019-5.664A4.115 4.115 0 015.552 9.5c1.088 0 2.197.416 3.124 1.171.51.416 1.399 1.128 2.448 1.967 2.168 1.735 5.063 4.052 6.609 5.362-1.55 1.313-4.452 3.635-6.626 5.375-1.041.833-1.923 1.54-2.431 1.953-.927.756-2.036 1.172-3.125 1.172.001 0 .001 0 0 0z" fill="#bae0bd"></path><path d="M5.552 10c.973 0 1.97.376 2.807 1.059.51.416 1.398 1.127 2.445 1.964 1.971 1.578 4.542 3.635 6.151 4.977-1.609 1.342-4.18 3.399-6.151 4.977a489.742 489.742 0 00-2.445 1.964C7.522 25.624 6.525 26 5.552 26a3.561 3.561 0 01-2.545-1.038c-1.356-1.332-1.34-3.468.036-4.969.188-.205.418-.428.689-.691.18-.175.378-.367.592-.581l.675-.7.033-.033-.708-.708a48.489 48.489 0 00-.592-.581c-.27-.263-.501-.486-.689-.691-1.377-1.501-1.392-3.638-.036-4.969A3.558 3.558 0 015.552 10m0-1a4.583 4.583 0 00-3.246 1.325c-1.788 1.756-1.693 4.512 0 6.359.323.352.76.754 1.31 1.304L3.603 18l.013.013c-.55.55-.988.952-1.31 1.304-1.693 1.847-1.788 4.603 0 6.359A4.586 4.586 0 005.552 27c1.176 0 2.391-.429 3.439-1.284C10.678 24.34 16.524 19.722 18.5 18c-1.976-1.722-7.822-6.34-9.509-7.716C7.943 9.429 6.728 9 5.552 9z" fill="#5e9c76"></path><path d="M13.423 34.5a3.82 3.82 0 01-2.742-1.156c-1.583-1.611-1.586-4.087-.01-6.02.414-.507 1.121-1.39 1.954-2.431 1.74-2.174 4.062-5.076 5.375-6.626 1.31 1.546 3.626 4.44 5.362 6.609.839 1.048 1.551 1.938 1.967 2.448 1.576 1.933 1.572 4.408-.011 6.02a3.82 3.82 0 01-2.742 1.156c-1.058 0-2.096-.417-2.921-1.174-.211-.194-.441-.43-.712-.708-.174-.179-.93-.94-.93-.94l-.38.354c-.212.212-.402.408-.576.587-.271.278-.5.515-.712.708-.825.756-1.863 1.173-2.922 1.173z" fill="#bae0bd"></path><path d="M18 19.045c1.342 1.609 3.399 4.18 4.977 6.151a489.742 489.742 0 001.964 2.445c1.41 1.728 1.418 3.929.021 5.352A3.318 3.318 0 0122.577 34c-.933 0-1.851-.37-2.584-1.043-.205-.188-.428-.418-.691-.689-.175-.18-.367-.378-.581-.592l-.7-.675-.033-.033-.708.708c-.214.214-.406.411-.581.592-.263.27-.486.501-.691.689-.734.673-1.652 1.043-2.585 1.043a3.32 3.32 0 01-2.385-1.006c-1.398-1.423-1.389-3.624.021-5.353a395.21 395.21 0 001.964-2.445c1.578-1.971 3.635-4.542 4.977-6.151m0-1.545c-1.722 1.976-6.34 7.822-7.716 9.509-1.722 2.111-1.715 4.897.041 6.685A4.298 4.298 0 0013.423 35c1.155 0 2.324-.447 3.26-1.306.352-.323.754-.76 1.304-1.31l.013.013.013-.013c.55.55.952.988 1.304 1.31.936.858 2.105 1.306 3.26 1.306a4.298 4.298 0 003.099-1.306c1.756-1.788 1.763-4.574.041-6.685C24.34 25.322 19.722 19.476 18 17.5z" fill="#5e9c76"></path><path d="M30.448 26.5c-1.088 0-2.197-.416-3.124-1.171-.51-.416-1.399-1.128-2.448-1.967-2.168-1.735-5.063-4.052-6.609-5.362 1.55-1.313 4.452-3.635 6.626-5.375 1.041-.833 1.923-1.54 2.431-1.953.927-.756 2.036-1.172 3.125-1.172 1.091 0 2.12.419 2.896 1.182 1.552 1.524 1.544 3.959-.019 5.664-.194.211-.43.441-.708.712-.179.174-.94.93-.94.93l.354.38c.212.212.408.402.587.576.278.271.515.5.708.712 1.563 1.705 1.571 4.139.019 5.664a4.119 4.119 0 01-2.898 1.18s.001 0 0 0z" fill="#bae0bd"></path><path d="M30.448 10c.974 0 1.854.359 2.545 1.038 1.356 1.332 1.34 3.468-.036 4.969-.188.205-.418.428-.689.691-.18.175-.378.367-.592.581l-.675.7-.033.033.708.708c.214.214.411.406.592.581.27.263.501.486.689.691 1.377 1.501 1.392 3.638.036 4.969A3.558 3.558 0 0130.448 26c-.973 0-1.97-.376-2.807-1.059a395.21 395.21 0 00-2.445-1.964c-1.971-1.578-4.542-3.635-6.151-4.977 1.609-1.342 4.18-3.399 6.151-4.977a489.742 489.742 0 002.445-1.964c.837-.683 1.834-1.059 2.807-1.059m0-1c-1.176 0-2.391.429-3.439 1.284C25.322 11.66 19.476 16.278 17.5 18c1.976 1.722 7.822 6.34 9.509 7.716 1.048.855 2.263 1.284 3.439 1.284a4.583 4.583 0 003.246-1.325c1.788-1.756 1.693-4.512 0-6.359-.323-.352-.76-.754-1.31-1.304l.013-.013-.013-.013c.55-.55.988-.952 1.31-1.304 1.693-1.847 1.788-4.603 0-6.359A4.59 4.59 0 0030.448 9z" fill="#5e9c76"></path><path d="M11.455 22.455c.754-.603 1.56-1.25 2.353-1.889L11.243 18l2.566-2.566c-.793-.639-1.6-1.286-2.354-1.889L7 18l4.455 4.455zM22.455 24.545c-.603-.754-1.25-1.56-1.889-2.353L18 24.757l-2.566-2.566c-.639.793-1.286 1.6-1.889 2.353L18 29l4.455-4.455zM24.545 13.545c-.754.603-1.56 1.25-2.353 1.889L24.757 18l-2.566 2.566c.793.639 1.6 1.286 2.353 1.889L29 18l-4.455-4.455zM13.545 11.455c.603.754 1.25 1.56 1.889 2.353L18 11.243l2.566 2.566c.639-.793 1.286-1.6 1.889-2.353L18 7l-4.455 4.455z" fill="#fff"></path><path fill="none" stroke="#5e9c76" stroke-linecap="round" stroke-miterlimit="10" d="M38.5 38.5L18 18"></path></svg>