<svg viewBox="0 0 40 40" xmlns="http://www.w3.org/2000/svg"><path d="M17.5 10.005c0-1.38 1.138-2.502 2.537-2.502C27.771 7.648 29.5 12.36 29.5 14c-.629.812-8.735 1.431-12 1.495v-5.49z" fill="#ffc49c"></path><path d="M20.038 7.003v1h.039c7.368.139 8.664 4.458 8.882 5.679-1.5.703-7.842 1.198-10.958 1.299v-4.975c0-1.104.914-2.003 2.037-2.003v-1m-.002 0C18.37 7.003 17 8.333 17 10.006V16c1.5 0 13-.5 13-2 0-1.478-1.537-6.839-9.905-6.996l-.059-.001z" fill="#a16a4a"></path><path d="M22 32.5c-.747 0-1.5-.464-1.5-1.5v-5.487c2.361.107 8.485.84 9.024 1.583C29.5 28.165 27.624 32.5 22 32.5z" fill="#ffc49c"></path><path d="M21 26.044c2.271.155 6.726.697 7.95 1.272C28.657 28.504 27.014 32 22 32c-.167 0-1-.048-1-1v-4.956M20 25v6c0 1.286.95 2 2 2 6.09 0 8-4.714 8-6s-8.95-2-10-2z" fill="#a16a4a"></path><path d="M11.259 17.29c-1.521 0-2.759-1.299-2.759-2.895S9.738 11.5 11.259 11.5c2.214 0 12.415 3.31 12.538 4.594-.018.036-.595 1.2-11.042 1.2l-1.496-.004z" fill="#ffc49c"></path><path d="M11.259 12c1.736 0 9.972 2.559 11.775 3.966-.804.3-3.224.828-10.281.828l-1.045-.003-.449-.002C10.014 16.79 9 15.715 9 14.395 9 13.074 10.014 12 11.259 12m0-1C9.459 11 8 12.52 8 14.395s1.459 3.395 3.259 3.395c.287 0 .812.004 1.494.004 3.6 0 11.544-.126 11.544-1.702C24.297 14.217 13.06 11 11.259 11z" fill="#a16a4a"></path><path d="M12.26 29.5c-1.521 0-2.76-1.299-2.76-2.895s1.238-2.895 2.76-2.895l1.491-.004c10.452 0 11.029 1.165 11.049 1.214-.126 1.27-10.327 4.58-12.54 4.58z" fill="#ffc49c"></path><path d="M13.753 24.206c7.057 0 9.477.529 10.281.828C22.231 26.441 13.996 29 12.259 29 11.014 29 10 27.926 10 26.605s1.014-2.395 2.259-2.395l.449-.002 1.045-.002m0-1c-.682 0-1.207.004-1.494.004-1.8 0-3.259 1.52-3.259 3.395S10.459 30 12.259 30c1.8 0 13.038-3.217 13.038-5.092 0-1.577-7.944-1.702-11.544-1.702z" fill="#a16a4a"></path><path d="M24 29.5c-2.933 0-6.397-1.042-9.755-2.936-2.058-1.138-3.784-2.263-5.509-4.038-.152-.464-.236-1.114-.236-1.847 0-.659.138-1.563.368-1.985 1.64-1.7 3.117-3.008 5.374-4.257C17.603 12.542 21.067 11.5 24 11.5c9.382 0 14.5 6.064 14.5 9.179 0 2.98-4.379 8.821-14.5 8.821z" fill="#ffc49c"></path><path d="M24 12c9.237 0 14 6.083 14 8.679C38 23.665 33.322 29 24 29c-2.848 0-6.225-1.02-9.516-2.875-1.981-1.095-3.65-2.178-5.305-3.861-.116-.407-.179-.96-.179-1.585 0-.612.127-1.361.28-1.691 1.586-1.641 3.024-2.908 5.211-4.117C17.775 13.02 21.151 12 24 12m0-1c-3.3 0-6.917 1.262-10 3-2.309 1.277-3.835 2.625-5.533 4.39C8.141 18.922 8 20 8 20.679s.07 1.492.301 2.116C9.998 24.561 11.691 25.723 14 27c3.083 1.738 6.7 3 10 3 10.132 0 15-5.871 15-9.321C39 17.338 33.615 11 24 11z" fill="#a16a4a"></path><circle cx="33.5" cy="19.5" r="1.5" fill="#36404d"></circle><g><path d="M4 25.5c-1.133 0-2.5-2.26-2.5-5.067C1.5 17.655 2.844 15.5 4 15.5c1.232 0 4.5 2.24 4.5 4.933C8.5 23.091 5.261 25.5 4 25.5z" fill="#ffc49c"></path><path d="M4 16c.98 0 4 1.994 4 4.432C8 22.893 4.951 25 4 25c-.703 0-2-1.884-2-4.568C2 17.726 3.313 16 4 16m0-1c-1.5 0-3 2.432-3 5.432C1 23.433 2.5 26 4 26s5-2.567 5-5.568C9 17.432 5.5 15 4 15z" fill="#a16a4a"></path></g><path d="M28 20.5c0-2.892.748-5.525 1.975-7.542a17.712 17.712 0 00-3.481-.787C24.961 14.266 24 17.219 24 20.5c0 3.292.968 6.253 2.51 8.349 1.278-.143 2.46-.38 3.525-.707C28.772 26.113 28 23.44 28 20.5zM19 20.5c0-3.241.938-6.159 2.44-8.245-1.593.292-3.276.839-4.97 1.615-.923 1.875-1.47 4.158-1.47 6.63 0 2.471.547 4.755 1.47 6.63 1.695.777 3.377 1.324 4.97 1.616C19.938 26.659 19 23.741 19 20.5z" fill="#fff"></path></svg>