<svg viewBox="0 0 40 40" xmlns="http://www.w3.org/2000/svg"><path d="M4 33.5c-.827 0-1.5-.673-1.5-1.5V8c0-.827.673-1.5 1.5-1.5h32c.827 0 1.5.673 1.5 1.5v24c0 .827-.673 1.5-1.5 1.5H4z" fill="#bae0bd"></path><path d="M36 7c.551 0 1 .449 1 1v24c0 .551-.449 1-1 1H4c-.551 0-1-.449-1-1V8c0-.551.449-1 1-1h32m0-1H4a2 2 0 00-2 2v24a2 2 0 002 2h32a2 2 0 002-2V8a2 2 0 00-2-2z" fill="#5e9c76"></path><path d="M16.896 24.567c-.247.117-.728.208-1.313.208-2.249 0-3.315-1.833-3.315-4.329 0-3.302 1.833-4.589 3.536-4.589.598 0 1.014.117 1.183.234l-.286 1.43a1.714 1.714 0 00-.793-.169c-.962 0-1.833.832-1.833 3.003 0 2.093.793 2.912 1.833 2.912.286 0 .611-.065.819-.13l.169 1.43zM18.157 15.935h1.703v7.319h2.236v1.443h-3.939v-8.762zM23.227 22.955c.351.195.962.338 1.443.338.793 0 1.196-.416 1.196-.988 0-.637-.39-.949-1.131-1.43-1.196-.728-1.651-1.651-1.651-2.444 0-1.404.936-2.574 2.756-2.574.585 0 1.131.156 1.378.312l-.273 1.469a2.074 2.074 0 00-1.105-.299c-.728 0-1.079.442-1.079.91 0 .52.26.793 1.196 1.365 1.17.702 1.586 1.586 1.586 2.509 0 1.599-1.183 2.652-2.886 2.652-.702 0-1.378-.182-1.677-.351l.247-1.469z" fill="#44825d"></path></svg>