<svg viewBox="0 0 40 40" xmlns="http://www.w3.org/2000/svg"><path fill="#a3b7cc" d="M7 9h26v1H7z"></path><path fill="#66798f" d="M33 5h-1v20h1V5zM8 5H7v20h1V5z"></path><path d="M19.955 6.315V4.909S20.059 1.5 13.819 1.5c-4.18 0-11.549.825-11.549 8.864 0 10.098 3.915 13.565 3.915 13.565" fill="none" stroke="#36404d"></path><path fill="#8bb7f0" d="M3.5 35.5v-2.425L7.369 20.5h25.262L36.5 33.075V35.5z"></path><path d="M32.261 21L36 33.15V35H4v-1.85L7.739 21h24.522M33 20H7L3 33v3h34v-3l-4-13z" fill="#4e7ab5"></path><path fill="#b0c1d4" d="M3.5 33.5h33v5h-33z"></path><path d="M36 34v4H4v-4h32m1-1H3v6h34v-6z" fill="#66798f"></path><path fill="#e1ebf2" d="M32 31H8l3.091-11H29z"></path><circle cx="20" cy="36" r="1" fill="#36404d"></circle><path fill="#36404d" d="M20 15h1v3h-1z"></path><path d="M19 15.5a.5.5 0 01-.5-.5V6a.5.5 0 01.5-.5h3a.5.5 0 01.5.5v9a.5.5 0 01-.5.5h-3z" fill="#8bb7f0"></path><path d="M22 6v9h-3V6h3m0-1h-3a1 1 0 00-1 1v9a1 1 0 001 1h3a1 1 0 001-1V6a1 1 0 00-1-1z" fill="#4e7ab5"></path><path fill="#a3b7cc" d="M16.234 20l-1.241 11H16l1.241-11zM23.766 20l1.241 11H24l-1.241-11z"></path><path fill="#788b9c" d="M29.273 21L29 20H11.091l-.281 1z"></path></svg>