<svg viewBox="0 0 40 40" xmlns="http://www.w3.org/2000/svg"><path d="M29.1 27.5c-1.875 0-3.4-1.57-3.4-3.5s1.525-3.5 3.4-3.5c2.447 0 3.4.607 3.4 2.167 0 1.671-.71 4.833-3.4 4.833zm-18.2 0c-2.689 0-3.4-3.162-3.4-4.833 0-1.559.953-2.167 3.4-2.167 1.875 0 3.4 1.57 3.4 3.5s-1.526 3.5-3.4 3.5z" fill="#deb974"></path><path d="M29.1 21c2.678 0 2.9.788 2.9 1.667C32 24.165 31.394 27 29.1 27c-1.599 0-2.9-1.346-2.9-3s1.301-3 2.9-3m-18.2 0c1.599 0 2.9 1.346 2.9 3s-1.301 3-2.9 3C8.606 27 8 24.165 8 22.667 8 21.788 8.222 21 10.9 21m18.2-1c-2.154 0-3.9 1.791-3.9 4s1.746 4 3.9 4c2.903 0 3.9-3.124 3.9-5.333S31.254 20 29.1 20zm-18.2 0c-2.154 0-3.9.458-3.9 2.667C7 24.876 8.005 28 10.9 28c2.154 0 3.9-1.791 3.9-4s-1.746-4-3.9-4z" fill="#967a44"></path><path d="M20 38.5c-1.268 0-2.445-.527-3.316-1.483l-.084-.093-.118-.042A10.515 10.515 0 019.5 27V16.5h21V27c0 4.424-2.806 8.396-6.982 9.882l-.118.042-.084.093c-.871.956-2.048 1.483-3.316 1.483z" fill="#f5ce85"></path><path d="M30 17v10c0 4.213-2.672 7.995-6.65 9.412l-.236.084-.168.185C22.171 37.531 21.125 38 20 38s-2.171-.469-2.946-1.319l-.168-.185-.236-.084A10.016 10.016 0 0110 27V17h20m1-1H9v11c0 4.78 3.055 8.837 7.315 10.354C17.229 38.358 18.534 39 20 39s2.771-.642 3.685-1.646C27.945 35.837 31 31.78 31 27V16z" fill="#967a44"></path><path d="M30.5 25.5v-2.709c0-1.485-3.22-3.921-5.471-5.291h7.439c-.218 2.01-1.479 6.664-1.848 8h-.12zm-21.135 0c-.388-1.235-1.679-5.496-1.847-8h14.556c-1.081 1.094-3.484 1.618-5.82 2.126-3.32.723-6.753 1.47-6.753 4.09V25.5h-.136z" fill="#a6714e"></path><path d="M31.895 18c-.175 1.101-.549 2.732-.958 4.356-.375-1.36-2.364-3.059-4.243-4.356h5.201M20.32 18c-1.167.483-2.725.822-4.173 1.137-3.155.687-6.407 1.395-7.038 3.72-.421-1.536-.877-3.411-1.043-4.857H20.32M33 17H23c1.439.473 7 4.192 7 5.791V26h1s2-7.079 2-9zm-10 0H7c0 2.889 2 9 2 9h1v-2.284c0-4.234 11.467-2.879 13-6.716z" fill="#7a4f34"></path><circle cx="25.5" cy="25.5" r="1.5" fill="#36404d"></circle><circle cx="14.5" cy="25.5" r="1.5" fill="#36404d"></circle><path d="M20 19.5c-6.754 0-11.41-2.221-12.5-2.796v-3.059C7.5 7.5 13.107 2.5 20 2.5s12.5 5 12.5 11.146v3.058c-1.093.574-5.761 2.796-12.5 2.796z" fill="#f78f8f"></path><path d="M20 3c5.771 0 12 4.07 12 10.646v2.753C30.587 17.104 26.206 19 20 19c-6.179 0-10.582-1.899-12-2.602v-2.752C8 7.07 14.229 3 20 3m0-1C13.219 2 7 6.811 7 13.646V17s5.055 3 13 3 13-3 13-3v-3.354C33 6.811 26.781 2 20 2z" fill="#c74343"></path><path d="M12 15c2.126-.567 4.783-1 8-1 3.181 0 5.786.418 7.902.977C27.964 13.129 27.145 5.697 20 3c-7.372 3.279-8 9.934-8 12z" fill="#fff"></path><g><circle cx="20" cy="2" r=".5" fill="#c74343"></circle><path d="M20 1a1 1 0 100 2 1 1 0 000-2z" fill="#ab3434"></path></g><g><path d="M10.9 21.465c-.535-.091-2.654-2.647-3.3-4.258C9.36 16.164 14.273 14.5 20 14.5c5.743 0 10.896 1.667 12.412 2.679-.645 1.668-2.729 4.185-3.319 4.287-.522-.002-1.109-.23-1.851-.519C25.854 20.406 23.067 19.5 20 19.5c-2.862 0-5.51.787-7.228 1.447-.75.29-1.342.518-1.872.518z" fill="#c74343"></path><path d="M20 15c5.34 0 10.053 1.464 11.775 2.382-.673 1.38-2.188 3.258-2.776 3.579-.415-.029-.933-.231-1.576-.481C26.003 19.928 23.149 19 20 19c-2.938 0-5.65.805-7.409 1.481-.621.24-1.164.45-1.586.481-.579-.327-2.082-2.189-2.76-3.541C10.203 16.412 14.738 15 20 15m0-1c-6.027 0-11.375 1.838-13 3 .438 1.551 2.995 4.966 3.9 4.966.614 0 1.249-.242 2.051-.552C14.311 20.891 16.999 20 20 20c2.998 0 5.721.891 7.061 1.413.795.309 1.422.553 2.039.553.9 0 3.422-3.303 3.9-4.966-1.264-1.135-6.995-3-13-3z" fill="#ab3434"></path></g><path d="M21.4 11.483c-.357.401-.826.517-1.4.517h0c-1.072 0-2-.919-2-2V9c0-1.081.877-1.966 1.95-1.966h0c.574 0 1.092.253 1.45.654" fill="none" stroke="#ffc107" stroke-width="2" stroke-miterlimit="10"></path></svg>