<svg viewBox="0 0 40 40" xmlns="http://www.w3.org/2000/svg"><path fill="#66798f" d="M10 9l13.929-8L30 8l5 17-7 14H13L5 24z"></path><path fill="#a3b7cc" d="M5.542 23.954l4.872-14.615 12.824-7.366-3.72 19.884-6.576 15.971z"></path><path d="M22.547 2.947l-3.511 18.768-6.153 14.942-6.798-12.748 4.744-14.231 11.718-6.731M23.929 1L10 9 5 24l8 15 7-17 3.929-21z" fill="#66798f"></path><path fill="#a3b7cc" d="M10.745 9.148l12.493-7.175-3.524 18.836z"></path><path d="M22.547 2.947l-3.119 16.67-7.938-10.32 11.057-6.35M23.929 1L10 9l10 13 3.929-21z" fill="#66798f"></path><path fill="#66798f" d="M13.3 38.5L5.753 24.35l13.238-2.837 15.283 3.821L27.691 38.5z"></path><path d="M18.983 22.026l14.565 3.641L27.382 38H13.6L6.507 24.7l12.476-2.674M19 21L5 24l8 15h15l7-14-16-4z" fill="#36404d"></path><g><path fill="#788b9c" d="M13.694 38.5l5.78-17.342 1.959-9.775 8.234-2.745 4.798 16.314L27.666 38.5z"></path><path d="M29.333 9.276l4.596 15.627L27.357 38h-12.97l5.561-16.684.02-.059.012-.061 1.886-9.431 7.467-2.489M30 8l-9 3-2 10-6 18h14.974L35 25 30 8z" fill="#36404d"></path></g><g><path fill="#4b6477" d="M13.694 38.5l5.634-16.903 14.946 3.737L27.691 38.5z"></path><path d="M19.656 22.195l13.892 3.473L27.382 38H14.387l5.269-15.805M19 21l-6 18h15l7-14-16-4z" fill="#36404d"></path></g></svg>