<svg viewBox="0 0 40 40" xmlns="http://www.w3.org/2000/svg"><path d="M11.5 38.5V17a.5.5 0 00-.972-.166C9.689 19.229 8.585 30.891 8.505 35.5H4.502c.06-6.426 1.221-22.888 3.863-28.118 2.008-.91 4.515-1.431 6.733-1.892A.504.504 0 0015.5 5V2.375c.619-.268 2.273-.875 4.5-.875s3.881.607 4.5.875V5a.5.5 0 00.398.49c2.226.462 4.737.985 6.748 1.897 2.598 4.653 3.79 21.646 3.851 28.113h-4.002c-.08-4.608-1.185-16.27-2.023-18.665A.501.501 0 0028.5 17v21.5h-17z" fill="#b0bec5"></path><path d="M20 2c1.842 0 3.272.433 4 .711V5a1 1 0 00.797.979c2.141.445 4.555.947 6.49 1.796C33.725 12.414 34.878 28.306 34.99 35h-3.009c-.149-4.673-1.172-15.857-2.038-18.33a.997.997 0 00-1.11-.656A1 1 0 0028 17v21H12V17a1 1 0 00-1.944-.331C9.19 19.142 8.167 30.327 8.018 35H5.01c.116-6.512 1.277-22.115 3.724-27.234 1.932-.843 4.335-1.343 6.469-1.786.464-.097.797-.506.797-.98V2.708C16.722 2.43 18.141 2 20 2m0-1c-3.014 0-5 1.056-5 1.056V5c-2.26.47-4.913 1.021-7 2-2.893 5.429-4 23.571-4 29h5c0-4.071 1.146-16.564 2-19v22h18V17c.853 2.435 2 14.929 2 19h5c0-5.429-1.098-24.122-4-29-2.087-.979-4.74-1.53-7-2V2.056S23.014 1 20 1z" fill="#788b9c"></path><path fill="#788b9c" d="M20 37.944h-1V22.111L20 20zM20 18.944C21.723 12.375 25 3 25 3s-2.429-1.011-5-1c-3.63.016-5 1-5 1l5 15.944z"></path><path d="M20.052 20.064c1.133-4.09 3.67-13.122 4.944-16.695.763 2.335 1.263 5.793 1.438 7.131h-2.641l2.52 2.52-6.261 7.044z" fill="#e1ebf2"></path><path d="M24.953 5.057c.431 1.763.741 3.741.909 4.943h-2.426a203.975 203.975 0 011.517-4.943m-1.71 5.6l1.05 1.05 1.333 1.333-4.517 5.082a614.804 614.804 0 012.134-7.465M25 2c-1.286 2.714-6 20-6 20l8-9-2-2h2s-.714-6.286-2-9z" fill="#788b9c"></path><path d="M13.735 12.972l2.472-2.472h-2.64c.176-1.331.675-4.756 1.438-7.08 1.176 3.294 3.229 10.88 4.102 14.155l-5.372-4.603z" fill="#e1ebf2"></path><path d="M15.045 5.111c.438 1.367.946 3.081 1.463 4.889H14.14c.167-1.191.476-3.144.905-4.889m1.664 5.594a437.63 437.63 0 011.5 5.442l-3.738-3.204 1.236-1.236 1.002-1.002M15 2.056C13.714 4.77 13 11 13 11h2l-2 2 7 6S16.286 4.77 15 2.056z" fill="#788b9c"></path><circle cx="16" cy="26" r="1" fill="#e1ebf2"></circle><circle cx="16" cy="30" r="1" fill="#e1ebf2"></circle><circle cx="16" cy="34" r="1" fill="#e1ebf2"></circle><circle cx="23" cy="26" r="1" fill="#e1ebf2"></circle><circle cx="23" cy="30" r="1" fill="#e1ebf2"></circle><circle cx="23" cy="34" r="1" fill="#e1ebf2"></circle></svg>