<svg viewBox="0 0 40 40" xmlns="http://www.w3.org/2000/svg"><circle cx="30" cy="10" r="8.5" fill="#ffc49c"></circle><path d="M30 2c4.411 0 8 3.589 8 8s-3.589 8-8 8-8-3.589-8-8 3.589-8 8-8m0-1c-4.971 0-9 4.029-9 9s4.029 9 9 9 9-4.029 9-9-4.029-9-9-9z" fill="#a16a4a"></path><path d="M29.308 8.801V3.839A6.192 6.192 0 0025 6.314l4.308 2.487zM30.692 8.801L35 6.314a6.192 6.192 0 00-4.307-2.475v4.962zM35.704 12.494c.335-.765.527-1.606.527-2.494s-.192-1.729-.527-2.494L31.385 10l4.319 2.494zM29.308 11.199L25 13.686a6.192 6.192 0 004.307 2.475v-4.962zM30.692 11.199v4.962a6.19 6.19 0 004.307-2.475l-4.307-2.487zM24.296 7.506c-.335.765-.527 1.606-.527 2.494s.192 1.729.527 2.494L28.615 10l-4.319-2.494z" fill="#c74343"></path><g><path d="M9.511 38.5a2.482 2.482 0 011.946-2.2l4.042-.899V23.803L2.15 9.5h28.7L17.5 23.803v11.598l4.042.899a2.48 2.48 0 011.946 2.2H9.511z" fill="#c2e8ff"></path><path d="M29.699 10l-12.43 13.318-.269.288v12.196l.783.174 3.651.811c.668.148 1.19.61 1.427 1.213H10.139a1.99 1.99 0 011.427-1.213l3.651-.811.783-.174V23.606l-.269-.288L3.301 10h26.398M32 9H1l14 15v11l-3.651.811A3.001 3.001 0 009 38.74V39h15v-.26a3.001 3.001 0 00-2.349-2.929L18 35V24L32 9z" fill="#7496c4"></path></g><g><path d="M29.699 10H21a8.96 8.96 0 002.705 6.422L29.699 10z" fill="#ffc49c"></path></g><g><path fill="#f78f8f" d="M15.217 23.5l-9.333-10h21.232l-9.333 10z"></path><path d="M25.965 14l-8.4 9h-2.131l-8.4-9h18.931m2.302-1H4.733L15 24h3l10.267-11z" fill="#c74343"></path></g></svg>