<svg viewBox="0 0 40 40" xmlns="http://www.w3.org/2000/svg"><path d="M20 17.5c-8.67 0-14.5-2.59-14.5-5s5.83-5 14.5-5 14.5 2.59 14.5 5-5.83 5-14.5 5z" fill="#fff"></path><path d="M20 8c8.67 0 14 2.62 14 4.5S28.67 17 20 17 6 14.38 6 12.5 11.33 8 20 8m0-1C11.72 7 5 9.46 5 12.5S11.72 18 20 18s15-2.46 15-5.5S28.28 7 20 7z" fill="#7a4f34"></path><ellipse cx="20" cy="14.5" rx="10" ry="3.5" fill="#e1ebf2"/><path d="M36 1.5L29.79 3a1.36 1.36 0 00-1 .85L23.7 17.8" fill="none" stroke="#ea4c89" stroke-miterlimit="10"></path><circle cx="10" cy="11" r="7.5" fill="#ffeea3"></circle><path d="M10 4a7 7 0 11-7 7 7 7 0 017-7m0-1a8 8 0 108 8 8 8 0 00-8-8z" fill="#ba9b48"></path><circle cx="10" cy="11" r="6" fill="#f5ce85"></circle><path fill="none" stroke="#ffeea3" stroke-miterlimit="10" d="M6.67 5.89l6.66 10.22M7.4 16.52l5.2-11.04M3.9 11h12.2"></path><path d="M20 38.5A15.88 15.88 0 014.14 22.64 84.32 84.32 0 015.42 13h.19c.85 2 6.63 4.68 14.39 4.68S33.54 15 34.39 13h.19a84.35 84.35 0 011.28 9.64A15.88 15.88 0 0120 38.5z" fill="#a6714e"></path><path d="M34.27 14.12a72.55 72.55 0 011.09 8.52 15.36 15.36 0 01-30.73 0 72.58 72.58 0 011.09-8.52c2.16 2.36 8.69 4.07 14.27 4.07s12.11-1.71 14.27-4.07M35 12.5h-1c0 1.63-5.8 4.68-14 4.68S6 14.13 6 12.5H5a92.23 92.23 0 00-1.36 10.14 16.36 16.36 0 0032.73 0A92.23 92.23 0 0035 12.5z" fill="#7a4f34"></path></svg>