<svg viewBox="0 0 40 40" xmlns="http://www.w3.org/2000/svg"><path fill="#a6714e" d="M8.693 6.5l1.667-5h19.28l1.667 5z"></path><path d="M29.279 2l1.333 4H9.387l1.333-4h18.559M30 1H10L8 7h24l-2-6z" fill="#7a4f34"></path><path fill="#f5ce85" d="M9.548 38.5l-2.637-29h26.178l-2.637 29z"></path><path d="M32.541 10l-2.545 28H10.004L7.459 10h25.082m1.095-1H6.364l2.727 30h21.818l2.727-30z" fill="#967a44"></path><path d="M4.5 9.5V9c0-1.93 1.57-3.5 3.5-3.5h24c1.93 0 3.5 1.57 3.5 3.5v.5h-31z" fill="#a6714e"></path><path d="M32 5v1c1.654 0 3 1.346 3 3H5c0-1.654 1.346-3 3-3h24V5m0 0H8a4 4 0 00-4 4v1h32V9a4 4 0 00-4-4z" fill="#7a4f34"></path><g><path fill="#bae0bd" d="M8.911 31.5l-1.363-15h24.904l-1.363 15z"></path><path d="M31.905 17l-1.273 14H9.368L8.095 17h23.81M33 16H7l1.455 16h23.091L33 16z" fill="#5e9c76"></path></g><g><circle cx="20" cy="24" r="3.5" fill="#ffeea3"></circle><path d="M20 21c1.654 0 3 1.346 3 3s-1.346 3-3 3-3-1.346-3-3 1.346-3 3-3m0-1a4 4 0 100 8 4 4 0 000-8z" fill="#ba9b48"></path></g></svg>