<svg viewBox="0 0 40 40" xmlns="http://www.w3.org/2000/svg"><path d="M4 23c1.103 0 2 .897 2 2s-.897 2-2 2-2-.897-2-2 .897-2 2-2m0-1a3 3 0 100 6 3 3 0 000-6z" fill="#a16a4a"></path><path d="M9 32.5c-1.93 0-3.5-1.57-3.5-3.5V18.5h15V29c0 1.93-1.57 3.5-3.5 3.5H9z" fill="#ffc49c"></path><path d="M20 19v10c0 1.654-1.346 3-3 3H9c-1.654 0-3-1.346-3-3V19h14m1-1H5v11a4 4 0 004 4h8a4 4 0 004-4V18z" fill="#a16a4a"></path><path fill="#b0c1d4" d="M11.5 8.5h3v5h-3z"></path><path d="M14 9v4h-2V9h2m1-1h-4v6h4V8z" fill="#66798f"></path><path d="M4 38.5A2.503 2.503 0 011.5 36v-3.5h26v-26h7.071l3.935 25.576L38.5 36c0 1.378-1.122 2.5-2.5 2.5H4z" fill="#f78f8f"></path><path d="M34.142 7L38 32.076V36c0 1.103-.897 2-2 2H4c-1.103 0-2-.897-2-2v-3h26V7h6.142M35 6h-8v26H1v4a3 3 0 003 3h32a3 3 0 003-3v-4L35 6z" fill="#c74343"></path><path d="M6 10.5c-2.481 0-4.5-2.019-4.5-4.5S3.519 1.5 6 1.5h24c2.481 0 4.5 2.019 4.5 4.5s-2.019 4.5-4.5 4.5H6z" fill="#f78f8f"></path><path d="M30 2c2.206 0 4 1.794 4 4s-1.794 4-4 4H6c-2.206 0-4-1.794-4-4s1.794-4 4-4h24m0-1H6a5 5 0 000 10h24a5 5 0 000-10z" fill="#c74343"></path><g><circle cx="33" cy="22" r="1" fill="#fff"></circle></g><g><circle cx="33" cy="26" r="1" fill="#fff"></circle></g><g><circle cx="33" cy="31" r="2" fill="#fff"></circle></g></svg>