<svg viewBox="0 0 40 40" xmlns="http://www.w3.org/2000/svg"><path d="M28 31.5c-5.79 0-10.5-2.691-10.5-6V7h21v18.5c0 3.309-4.71 6-10.5 6z" fill="#f5ce85"></path><path d="M38 7.5v18c0 2.981-4.579 5.5-10 5.5s-10-2.519-10-5.5v-18h20m1-1H17v19c0 3.59 4.925 6.5 11 6.5s11-2.91 11-6.5v-19z" fill="#967a44"></path><path d="M28 11.5c-5.691 0-10.5-2.29-10.5-5s4.809-5 10.5-5 10.5 2.29 10.5 5-4.809 5-10.5 5z" fill="#f5ce85"></path><path d="M28 2c5.893 0 10 2.372 10 4.5S33.893 11 28 11 18 8.628 18 6.5 22.107 2 28 2m0-1c-6.075 0-11 2.462-11 5.5S21.925 12 28 12s11-2.462 11-5.5S34.075 1 28 1z" fill="#967a44"></path><path d="M38.5 10.25c0 2.899-4.701 5.25-10.5 5.25s-10.5-2.351-10.5-5.25" fill="none" stroke="#967a44" stroke-miterlimit="10"></path><path d="M38.5 14.25c0 2.899-4.701 5.25-10.5 5.25s-10.5-2.351-10.5-5.25" fill="none" stroke="#967a44" stroke-miterlimit="10"></path><path d="M38.5 18.25c0 2.899-4.701 5.25-10.5 5.25s-10.5-2.351-10.5-5.25" fill="none" stroke="#967a44" stroke-miterlimit="10"></path><ellipse cx="28.143" cy="6.429" rx="6.786" ry="2.714" fill="#deb974"/><path d="M17.5 21.295c0 3.427 4.701 6.205 10.5 6.205s10.5-2.778 10.5-6.205" fill="none" stroke="#967a44" stroke-miterlimit="10"></path><path d="M12 38.5c-5.691 0-10.5-2.519-10.5-5.5V22h21v11c0 2.981-4.809 5.5-10.5 5.5z" fill="#ffeea3"></path><path d="M22 22.5V33c0 2.71-4.579 5-10 5S2 35.71 2 33V22.5h20m1-1H1V33c0 3.314 4.925 6 11 6s11-2.686 11-6V21.5z" fill="#ba9b48"></path><path d="M22.5 25.25c0 2.899-4.701 5.25-10.5 5.25S1.5 28.149 1.5 25.25" fill="none" stroke="#ba9b48" stroke-miterlimit="10"></path><path d="M22.5 29.25c0 2.899-4.701 5.25-10.5 5.25S1.5 32.149 1.5 29.25" fill="none" stroke="#ba9b48" stroke-miterlimit="10"></path><g><path d="M12 26.5c-5.691 0-10.5-2.29-10.5-5s4.809-5 10.5-5 10.5 2.29 10.5 5-4.809 5-10.5 5z" fill="#ffeea3"></path><path d="M12 17c5.893 0 10 2.372 10 4.5S17.893 26 12 26 2 23.628 2 21.5 6.107 17 12 17m0-1c-6.075 0-11 2.462-11 5.5S5.925 27 12 27s11-2.462 11-5.5S18.075 16 12 16z" fill="#ba9b48"></path></g><g><ellipse cx="12.143" cy="21.429" rx="6.786" ry="2.714" fill="#f2df8a"/></g></svg>