<svg viewBox="0 0 40 40" xmlns="http://www.w3.org/2000/svg"><circle cx="20" cy="20" r="3.5" fill="#f78f8f"></circle><path d="M20 17c1.654 0 3 1.346 3 3s-1.346 3-3 3-3-1.346-3-3 1.346-3 3-3m0-1a4 4 0 100 8 4 4 0 000-8z" fill="#c74343"></path><path fill="#bae0bd" d="M14.207 7.5H17.5v-6h5v6h3.293L20 13.293z"></path><path d="M22 2v6H24.586L20 12.586 15.414 8H18V2h4m1-1h-6v6h-4l7 7 7-7h-4V1z" fill="#5e9c76"></path><path fill="#bae0bd" d="M17.5 38.5v-6h-3.293L20 26.707l5.793 5.793H22.5v6z"></path><path d="M20 27.414L24.586 32H22v6h-4v-6H15.414L20 27.414M20 26l-7 7h4v6h6v-6h4l-7-7z" fill="#5e9c76"></path><g><path fill="#bae0bd" d="M26.707 20l5.793-5.793V17.5h6v5h-6v3.293z"></path><path d="M32 15.414V18h6v4h-6V24.586L27.414 20 32 15.414M33 13l-7 7 7 7v-4h6v-6h-6v-4z" fill="#5e9c76"></path></g><g><path fill="#bae0bd" d="M7.5 22.5h-6v-5h6v-3.293L13.293 20 7.5 25.793z"></path><path d="M8 15.414L12.586 20 8 24.586V22H2v-4h6V15.414M7 13v4H1v6h6v4l7-7-7-7z" fill="#5e9c76"></path></g></svg>