<svg viewBox="0 0 40 40" xmlns="http://www.w3.org/2000/svg"><path d="M4.511 38.5c.263-6.11 5.316-11 11.489-11h8c6.173 0 11.227 4.89 11.489 11H4.511z" fill="#8bb7f0"></path><path d="M24 28c5.729 0 10.448 4.401 10.955 10H5.045C5.552 32.401 10.271 28 16 28h8m0-1h-8C9.373 27 4 32.373 4 39h32c0-6.627-5.373-12-12-12z" fill="#4e7ab5"></path><path fill="#deb974" d="M15.5 27.819V22.5h9v5.319L20 31.363z"></path><path d="M24 23v4.577l-4 3.151-4-3.151V23h8m1-1H15v6.062L20 32l5-3.938V22z" fill="#967a44"></path><path fill="#4e7ab5" d="M22.601 29.619L20 30.305l-2.599-.682L19 33l-2 6h6l-2-6z"></path><path d="M27.143 19.214c-1.3 0-2.357-1.057-2.357-2.356s1.058-2.357 2.357-2.357c1.963 0 2.357.537 2.357 1.404 0 1.413-1.165 3.309-2.357 3.309z" fill="#deb974"></path><path d="M27.143 15C29 15 29 15.481 29 15.905c0 1.234-1.041 2.81-1.857 2.81a1.859 1.859 0 01-1.857-1.857A1.86 1.86 0 0127.143 15m0-1a2.857 2.857 0 100 5.714c1.578 0 2.857-2.232 2.857-3.81C30 14.327 28.721 14 27.143 14z" fill="#967a44"></path><g><path d="M12.857 19.214c-1.192 0-2.357-1.896-2.357-3.31 0-.867.394-1.404 2.357-1.404 1.3 0 2.357 1.058 2.357 2.357s-1.057 2.357-2.357 2.357z" fill="#deb974"></path><path d="M12.857 15c1.024 0 1.857.833 1.857 1.857a1.859 1.859 0 01-1.857 1.857c-.816 0-1.857-1.575-1.857-2.81 0-.423 0-.904 1.857-.904m0-1C11.279 14 10 14.327 10 15.905s1.279 3.81 2.857 3.81a2.857 2.857 0 100-5.715z" fill="#967a44"></path></g><g><path fill="#fff" d="M24.5 34.5h7v4h-7z"></path><path d="M31 35v3h-6v-3h6m1-1h-8v5h8v-5z" fill="#788b9c"></path></g><g><path d="M20 25.5a2.46 2.46 0 01-1.641-.63l-.09-.08-.117-.03A7.485 7.485 0 0112.5 17.5V8.202a3.316 3.316 0 013.312-3.313h8.375a3.316 3.316 0 013.312 3.313V17.5a7.485 7.485 0 01-5.652 7.26l-.117.03-.09.08a2.455 2.455 0 01-1.64.63z" fill="#f5ce85"></path><path d="M24.187 5.389A2.816 2.816 0 0127 8.202V17.5a6.988 6.988 0 01-5.275 6.776l-.233.059-.181.159c-.263.231-.703.506-1.311.506s-1.048-.275-1.311-.506l-.181-.159-.233-.059A6.988 6.988 0 0113 17.5V8.202a2.816 2.816 0 012.813-2.813h8.374m0-1h-8.375A3.813 3.813 0 0012 8.202V17.5c0 3.737 2.566 6.866 6.029 7.745.528.464 1.213.755 1.971.755s1.443-.291 1.971-.755C25.434 24.366 28 21.237 28 17.5V8.202a3.813 3.813 0 00-3.813-3.813z" fill="#967a44"></path></g><g><path d="M28 25.5c-1.767 0-3.411-.911-4.27-1.484 1.045-.659 2.77-2.223 2.77-5.374v-4.724c0-2.41-2.086-4.223-2.175-4.298l-.43-.368-.312.473c-.021.031-2.135 3.156-6.651 3.78-2.358.325-3.432 2.109-3.432 3.628v1.509c0 3.193 1.708 4.735 2.757 5.38-.859.574-2.493 1.478-4.257 1.478-1.786 0-3.378-.935-4.159-1.484.881-.695 2.445-2.24 2.445-4.444 0-.928-.176-1.909-.362-2.948C9.715 15.462 9.5 14.262 9.5 13c0-8.488 5.387-11.5 10-11.5 3.802 0 5.031 2.675 5.043 2.703l.131.297H25c3.495 0 5.5 2.733 5.5 7.5 0 1.342-.268 2.836-.528 4.281-.243 1.353-.472 2.632-.472 3.719 0 1.844 1.459 2.852 2.642 3.281-.708.811-2.214 2.219-4.142 2.219z" fill="#a6714e"></path><path d="M19.5 2c3.427 0 4.543 2.315 4.586 2.405l.263.595H25c3.224 0 5 2.486 5 7 0 1.298-.264 2.769-.52 4.193C29.233 17.569 29 18.868 29 20c0 1.764 1.141 2.855 2.289 3.45C30.545 24.165 29.38 25 28 25c-1.274 0-2.497-.524-3.357-1.01C25.732 23.107 27 21.472 27 18.643v-4.724c0-2.638-2.254-4.596-2.35-4.678l-.864-.739-.623.951c-.019.03-1.985 2.961-6.3 3.557-2.654.366-3.863 2.394-3.863 4.123v1.509c0 2.86 1.252 4.486 2.339 5.359-.854.483-2.066.999-3.339.999-1.313 0-2.525-.556-3.331-1.041.942-.88 2.117-2.379 2.117-4.388 0-.972-.18-1.975-.37-3.036C10.211 15.396 10 14.218 10 13c0-8.119 5.118-11 9.5-11m0-1C14.212 1 9 4.694 9 13c0 2.454.786 4.682.786 6.571C9.786 22.327 7 24 7 24s2.254 2 5 2c2.794 0 5.211-2.056 5.211-2.056S14 22.918 14 18.643v-1.509c0-1.354.942-2.849 3-3.134 4.816-.665 7-4 7-4s2 1.711 2 3.919v4.724c0 4.194-3.214 5.302-3.214 5.302S25.225 26 28 26c3.005 0 5-3 5-3s-3-.535-3-3c0-2.19 1-5.352 1-8 0-5.761-2.766-8-6-8 0 0-1.328-3-5.5-3z" fill="#7a4f34"></path></g></svg>