<svg viewBox="0 0 40 40" xmlns="http://www.w3.org/2000/svg"><path fill="#8bb7f0" d="M24.5 15.5V5.207l3.694 3.694 7.194-7.194 2.905 2.905-7.194 7.194 3.694 3.694z"></path><path d="M35.388 2.414l2.198 2.198-6.487 6.487-.707.707.707.707L33.586 15H25V6.414l2.487 2.487.707.707.707-.707 6.487-6.487m0-1.414l-7.194 7.194L24 4v12h12l-4.194-4.194L39 4.612 35.388 1z" fill="#4e7ab5"></path><path fill="#8bb7f0" d="M5.207 15.5l3.694-3.694-7.194-7.194 2.905-2.905 7.194 7.194L15.5 5.207V15.5z"></path><path d="M4.612 2.414l6.487 6.487.707.707.707-.707L15 6.414V15H6.414l2.487-2.487.707-.707-.707-.707-6.487-6.487 2.198-2.198m0-1.414L1 4.612l7.194 7.194L4 16h12V4l-4.194 4.194L4.612 1z" fill="#4e7ab5"></path><g><path fill="#8bb7f0" d="M1.707 35.388l7.194-7.194L5.207 24.5H15.5v10.293l-3.694-3.694-7.194 7.194z"></path><path d="M15 25v8.586l-2.487-2.487-.707-.707-.707.707-6.487 6.487-2.198-2.198 6.487-6.487.707-.707-.707-.707L6.414 25H15m1-1H4l4.194 4.194L1 35.388 4.612 39l7.194-7.194L16 36V24z" fill="#4e7ab5"></path></g><g><path fill="#8bb7f0" d="M28.194 31.099L24.5 34.793V24.5h10.293l-3.694 3.694 7.194 7.194-2.905 2.905z"></path><path d="M33.586 25l-2.487 2.487-.707.707.707.707 6.487 6.487-2.198 2.198-6.487-6.487-.707-.707-.707.707L25 33.586V25h8.586M36 24H24v12l4.194-4.194L35.388 39 39 35.388l-7.194-7.194L36 24z" fill="#4e7ab5"></path></g></svg>