<svg viewBox="0 0 40 40" xmlns="http://www.w3.org/2000/svg"><path fill="#b0c1d4" d="M2.5 2.5h35v35h-35z"></path><path d="M37 3v34H3V3h34m1-1H2v36h36V2z" fill="#66798f"></path><path fill="#f78f8f" d="M2.5 2.5h17v35h-17z"></path><path d="M19 3v34H3V3h16m1-1H2v36h18V2z" fill="#66798f"></path><path fill="#dcd5f2" d="M2.5 2.5h17v14h-17z"></path><path d="M19 3v13H3V3h16m1-1H2v15h18V2z" fill="#66798f"></path><g><path fill="#bae0bd" d="M19.5 2.5h18v35h-18z"></path><path d="M37 3v34H20V3h17m1-1H19v36h19V2z" fill="#66798f"></path></g><g><path fill="#ffeea3" d="M19.5 23.5h18v14h-18z"></path><path d="M37 24v13H20V24h17m1-1H19v15h19V23z" fill="#66798f"></path></g></svg>