<svg viewBox="0 0 40 40" xmlns="http://www.w3.org/2000/svg"><path d="M2.19 29.164c-.928-.93-.928-2.481.025-3.434L25.791 2.216c.462-.462 1.076-.716 1.729-.716s1.267.254 1.729.716l9.229 10.599-.832.832-7.808-7.808-7.458 7.458.309.394-.382-.382-1.469 1.469.321.383-.353-.353-1.469 1.469.321.383-.353-.353-1.469 1.469.321.383-.353-.353-1.469 1.469.321.383-.353-.353-1.469 1.469.321.383-.353-.353-1.469 1.469.321.383-.353-.353-1.469 1.469.321.383-.353-.353-1.469 1.469.321.383-.353-.353L8.83 26.77l.33.39-.353-.353-1.469 1.469.322.384-.353-.353-1.469 1.469 7.838 7.839-.829.829-10.657-9.28z" fill="#ffc49c"></path><path d="M27.52 2c.509 0 .988.194 1.353.548l8.922 10.243-.148.148-7.101-7.101-.707-.707-.707.707-.793.793-.707.707-.793.793-.707.707-.793.793-.707.707-.793.793-.707.707-.719.721-.045.041-.032.029-.028-.028-.662.662-.047.043.002.002-.793.793-.707.707-.793.793-.707.707-.793.793-.707.707-.793.793-.707.707-.793.793-.707.707-.793.793-.707.707-.793.793-.707.707-.793.793-.707.707-.793.793-.707.707-.793.793-.707.707-.762.762-.707.707.707.707 7.132 7.132-.146.146-10.276-8.95a1.947 1.947 0 01.021-2.727L26.145 2.57A1.93 1.93 0 0127.52 2m0-1c-.754 0-1.507.288-2.082.863L1.862 25.376a2.944 2.944 0 000 4.164l11.009 9.588 1.513-1.513-7.839-7.839.762-.762 7.839 7.839.707-.707-7.839-7.839.031-.031.762-.762 7.839 7.839.707-.707-7.839-7.839.031-.031.762-.762 7.839 7.839.707-.707-7.839-7.839.031-.031.762-.762 7.839 7.839.707-.707-7.839-7.839.031-.031.762-.762 7.839 7.839.707-.707-7.839-7.839.031-.031.762-.762 7.839 7.839.707-.707-7.839-7.839.031-.031.762-.762 7.839 7.839.707-.707-7.839-7.839.031-.031.762-.762 7.839 7.839.707-.707-7.839-7.839.031-.031.762-.762 7.839 7.839.707-.707-7.839-7.839.031-.031.762-.762 7.839 7.839.707-.707-7.839-7.839.031-.031.762-.762 7.839 7.839.707-.707-7.81-7.81.044-.041.75-.75 7.808 7.808.707-.707-7.808-7.808.793-.793 7.808 7.808.707-.707-7.808-7.808.793-.793 7.808 7.808.707-.707-7.808-7.808.793-.793 7.808 7.808.707-.707-7.808-7.808.793-.793 7.808 7.808 1.516-1.516-9.56-10.975A2.93 2.93 0 0027.52 1z" fill="#b08159"></path></svg>