<svg viewBox="0 0 40 40" xmlns="http://www.w3.org/2000/svg"><path d="M19.852 28.496c-.702-.003-1.381-.347-1.832-.91a2.45 2.45 0 01-2.083.296l-.1-.032a2.451 2.451 0 01-1.526-1.44 2.438 2.438 0 01-2.073-.347l-.071-.036-.012-.032a2.42 2.42 0 01-1.021-1.824 2.436 2.436 0 01-1.843-.908l-.047-.023-.019-.037-.104-.077v-.098a2.378 2.378 0 01-.352-1.94 2.45 2.45 0 01-1.5-1.469l-.036-.097a2.446 2.446 0 01.217-2.087 2.447 2.447 0 01-.985-1.849l-.005-.123a2.434 2.434 0 01.834-1.905 2.45 2.45 0 01-.388-2.058l.004-.101.044-.066a2.473 2.473 0 011.355-1.524 2.443 2.443 0 01.22-2.021V7.78l.086-.128a2.453 2.453 0 011.798-1.108 2.446 2.446 0 01.701-1.754v-.026l.191-.15c.495-.408 1.048-.605 1.614-.605.161 0 .321.016.479.047a2.456 2.456 0 011.403-1.562l.099-.04a2.444 2.444 0 012.097.126 2.45 2.45 0 011.811-1.064s.23-.016.293-.016c.681 0 1.316.28 1.772.757a2.46 2.46 0 012.046-.477l.078.018a2.473 2.473 0 011.672 1.308c.279-.106.577-.163.876-.163.427 0 .849.113 1.222.327l.091.057a2.434 2.434 0 011.173 1.733 2.464 2.464 0 011.948.782l.088.106c.488.535.696 1.274.582 1.989a2.438 2.438 0 011.624 1.321l.05.106a2.434 2.434 0 01-.036 2.086 2.45 2.45 0 011.142 1.758l.013.123a2.42 2.42 0 01-.664 1.969c.476.546.692 1.286.565 2.022l-.019.104a2.455 2.455 0 01-1.23 1.697c.287.664.27 1.434-.073 2.095l-.063.113a2.421 2.421 0 01-1.676 1.228 2.448 2.448 0 01-.699 1.976l-.076.076a2.443 2.443 0 01-1.984.683 2.454 2.454 0 01-1.265 1.679l-.093.048a2.455 2.455 0 01-2.097.058 2.447 2.447 0 01-1.681 1.211l-.04.021h-.121a1.726 1.726 0 01-.373.035c-.252 0-.498-.038-.734-.113a2.46 2.46 0 01-1.105.267l-.162-.004z" fill="#ffc49c"></path><path d="M19.101 2c.734 0 1.387.41 1.719 1.028a1.956 1.956 0 011.995-.76l.012.003.043.009.003.001.004.001.034.008a1.948 1.948 0 011.477 1.531 1.962 1.962 0 012.129-.118.092.092 0 01.008.005l.001.001.03.017.002.001.005.003.003.002.006.003.001.001.015.009.001.001.009.006a1.945 1.945 0 01.945 1.909 1.959 1.959 0 012.067.521l.036.039.003.004.018.02.009.01c.533.592.637 1.419.329 2.102l.05-.001c.732 0 1.432.413 1.765 1.116l.016.035.02.044v.001l.005.01a1.942 1.942 0 01-.318 2.103 1.95 1.95 0 011.389 1.612l.002.017.001.005v.001l.004.034v.004l.005.039A1.945 1.945 0 0132 15.285a1.944 1.944 0 01.845 1.966v.001l-.002.009a1.95 1.95 0 01-1.482 1.615 1.944 1.944 0 01.205 2.129l-.002.003-.003.006-.001.002-.003.007-.001.002a.008.008 0 00-.002.004l-.014.026-.002.004-.01.019a1.95 1.95 0 01-1.87 1.024 1.943 1.943 0 01-.433 2.083l-.071.071a1.947 1.947 0 01-2.089.417 1.947 1.947 0 01-1.049 1.864l-.002.001-.014.007-.036.018-.014.007-.003.001-.006.003a1.95 1.95 0 01-2.121-.224 1.949 1.949 0 01-1.555 1.455l-.01.002h-.001l-.023.004-.004.001h-.002l-.054.009a1.953 1.953 0 01-1.099-.137 1.944 1.944 0 01-1.061.317h-.024-.024-.049a1.951 1.951 0 01-1.776-1.177 1.958 1.958 0 01-2.053.581l-.012-.004-.033-.01a1.948 1.948 0 01-1.386-1.671 1.958 1.958 0 01-2.131-.066l-.008-.006-.001-.001-.006-.005-.063-.045a1.943 1.943 0 01-.774-1.983 1.951 1.951 0 01-2.015-.697l-.016-.02-.001-.001-.005-.006-.002-.002a.018.018 0 00-.004-.005l-.002-.003-.003-.004-.003-.003a.018.018 0 00-.004-.005l-.002-.003a1.945 1.945 0 01-.165-2.147 1.95 1.95 0 01-1.71-1.272l-.004-.01v-.001l-.015-.042-.013-.038a1.941 1.941 0 01.503-2.067 1.947 1.947 0 01-1.244-1.725l-.001-.035v-.008-.006-.002l-.001-.016-.001-.032a1.946 1.946 0 011.103-1.819 1.946 1.946 0 01-.674-2.02l.014-.051v-.002l.002-.006.001-.004.001-.005.002-.006.001-.002.002-.007.004-.013a1.95 1.95 0 011.599-1.407 1.939 1.939 0 01-.031-2.125l.04-.062.002-.002.001-.002.004-.006a1.95 1.95 0 011.959-.869 1.944 1.944 0 01.619-2.045l.002-.002.04-.033.026-.022a1.947 1.947 0 012.117-.236 1.947 1.947 0 011.241-1.778h.001l.003-.001.031-.013.001-.001.009-.004a1.949 1.949 0 012.092.409 1.948 1.948 0 011.675-1.314l.012-.001.028-.002.057-.005C19 2.002 19.051 2 19.101 2m0-1a2.89 2.89 0 00-.227.009l-.065.005a3.01 3.01 0 00-1.957.949 2.96 2.96 0 00-2.141.029l-.006.002-.002.001-.019.008-.002.001-.019.008-.051.021a2.954 2.954 0 00-1.54 1.48 2.957 2.957 0 00-2.025.667l-.008.007-.083.069a2.934 2.934 0 00-1.018 1.867 2.935 2.935 0 00-1.734 1.244l-.059.091A2.952 2.952 0 007.73 9.55a2.944 2.944 0 00-1.277 1.71l-.004.014-.001.005-.001.002-.009.032-.005.02-.007.031h-.002a2.953 2.953 0 00.239 2.124 2.948 2.948 0 00-.703 2.009v.006l.002.046.002.033a2.98 2.98 0 00.864 1.973 2.942 2.942 0 00-.065 2.133l.002.005.015.043.954-.301-.937.349a2.961 2.961 0 001.417 1.608c-.067.718.13 1.452.582 2.05l.007.009.028.037.811-.585-.78.627a2.93 2.93 0 001.83 1.101 2.947 2.947 0 001.169 1.781l.071.05a2.957 2.957 0 002.095.516 2.951 2.951 0 001.653 1.348l.004.001.053.017.002.001.047.015a2.945 2.945 0 002.134-.147c.53.491 1.233.781 1.983.787H20.012a2.947 2.947 0 001.146-.235 2.955 2.955 0 001.172.043l.062-.011a3.02 3.02 0 001.872-1.117 2.95 2.95 0 002.131-.215l.002-.001.046-.024a3.01 3.01 0 001.447-1.631 2.938 2.938 0 001.96-.838l.079-.079c.53-.533.826-1.233.858-1.953a2.94 2.94 0 001.619-1.39l.006-.011.018-.034.005-.011.021-.041a2.951 2.951 0 00.232-2.121 2.947 2.947 0 001.122-1.812l.016-.087a2.975 2.975 0 00-.42-2.113 2.946 2.946 0 00.528-2.063l-1.003.043.995-.103-.002-.015-.005-.037a2.95 2.95 0 00-1.029-1.867 2.944 2.944 0 00-.123-2.13v-.001l-.029-.062a3.017 3.017 0 00-1.565-1.502 2.947 2.947 0 00-.758-1.995l-.003-.003-.033-.036-.037-.04a2.97 2.97 0 00-1.919-.939 2.947 2.947 0 00-1.322-1.676l-.006-.003-.038-.022.003-.006-.043-.025a2.96 2.96 0 00-2.115-.322 2.953 2.953 0 00-1.765-1.199l-.004-.001-.045-.01h-.001l-.05-.011a2.954 2.954 0 00-2.119.33A2.952 2.952 0 0019.101 1z" fill="#a16a4a"></path><path d="M36 39c0-6.808-5.192-13-12-13h-4v13h16z" fill="#f78f8f"></path><path d="M36 39c0-6.808-5.192-13-12-13h-4v1h4c5.654 0 10.477 4.942 10.96 11H20v1h16z" fill="#c74343"></path><path d="M4 39h16V26h-4.109C9.083 26 4 32.192 4 39z" fill="#8bb7f0"></path><path d="M15.891 27H20v-1h-4.109C9.083 26 4 32.192 4 39h16v-1H5.037c.463-6.151 5.154-11 10.854-11z" fill="#4e7ab5"></path><path d="M20 30.5c-2.804 0-4.215-2.114-4.5-2.595V20.5h9v7.407c-.287.492-1.679 2.593-4.5 2.593z" fill="#deb974"></path><path d="M24 21v6.766c-.36.565-1.625 2.234-4 2.234-2.378 0-3.639-1.665-4-2.234V21h8m1-1H15v8.036S16.51 31 20 31s5-2.964 5-2.964V20z" fill="#967a44"></path><path d="M27.5 19.5c-1.103 0-2-1.122-2-2.5s.897-2.5 2-2.5c1.477 0 2 .393 2 1.5 0 1.464-1.008 3.5-2 3.5z" fill="#deb974"></path><path d="M27.5 15c1.5 0 1.5.441 1.5 1 0 1.458-.975 3-1.5 3-.813 0-1.5-.916-1.5-2s.687-2 1.5-2m0-1c-1.381 0-2.5 1.343-2.5 3s1.119 3 2.5 3 2.5-2.343 2.5-4-1.119-2-2.5-2z" fill="#967a44"></path><path d="M12.5 19.5c-.992 0-2-2.036-2-3.5 0-1.107.523-1.5 2-1.5 1.103 0 2 1.122 2 2.5s-.897 2.5-2 2.5z" fill="#deb974"></path><path d="M12.5 15c.813 0 1.5.916 1.5 2s-.687 2-1.5 2c-.525 0-1.5-1.542-1.5-3 0-.559 0-1 1.5-1m0-1c-1.381 0-2.5.343-2.5 2s1.119 4 2.5 4 2.5-1.343 2.5-3-1.119-3-2.5-3z" fill="#967a44"></path><path d="M20 26.5c-.62 0-1.215-.276-1.631-.759l-.103-.118-.15-.039a7.494 7.494 0 01-5.616-7.251v-4.005a2.38 2.38 0 00.6-.436c.321-.321.614-.656.705-1.18.055.005.105.008.155.008a2.52 2.52 0 002.48-2.139c.018-.117.026-.237.025-.36a2.505 2.505 0 001.984-1.306 2.487 2.487 0 001.909.367 2.469 2.469 0 001.754-1.406c.187.103.386.182.595.235a2.42 2.42 0 00.734 1.564c.408.379.938.617 1.486.672a2.47 2.47 0 00.726 1.201c-.021.666.144 1.618.632 2.149.314.358.736.61 1.215.729v3.906a7.494 7.494 0 01-5.616 7.251l-.15.039-.103.118A2.155 2.155 0 0120 26.5zm-2.026-13.25a.5.5 0 100 1 .5.5 0 000-1z" fill="#f5ce85"></path><path d="M22.277 8.59a2.91 2.91 0 00.828 1.455c.402.374.907.633 1.442.747.138.358.343.688.607.968.018.723.212 1.676.749 2.26a2.86 2.86 0 001.098.771v3.542A6.993 6.993 0 0121.76 25.1l-.302.078-.204.236c-.327.378-.772.586-1.254.586s-.927-.208-1.253-.586l-.204-.236-.302-.078A6.993 6.993 0 0113 18.333v-3.719c.165-.108.316-.231.453-.369.275-.275.562-.594.731-1.034a3.03 3.03 0 002.752-2.556l.001-.005a3.007 3.007 0 001.678-1.075 2.96 2.96 0 001.844.196 2.97 2.97 0 001.818-1.181M21.827 7a1.99 1.99 0 01-1.574 1.793 1.984 1.984 0 01-.423.046 1.997 1.997 0 01-1.603-.819c-.107.72-.6 1.347-1.32 1.6-.222.077-.438.11-.652.11-.121 0-.241-.011-.361-.03.066.253.094.533.053.799v.008a2.023 2.023 0 01-1.987 1.712c-.094 0-.186-.013-.293-.027a2.04 2.04 0 01-.36-.09c.012.087.026.174.026.264 0 .52-.214.798-.587 1.172-.21.21-.469.363-.746.462v4.333c0 3.723 2.546 6.842 5.99 7.735.489.566 1.203.932 2.01.932s1.521-.366 2.01-.932c3.443-.893 5.99-4.012 5.99-7.735V14a1.929 1.929 0 01-1.346-.641c-.419-.456-.56-1.47-.482-2.04a1.912 1.912 0 01-.252-.207 2.027 2.027 0 01-.572-1.271c-.058.005-.116.017-.175.017-.493 0-1-.186-1.387-.546-.46-.437-.633-1.039-.579-1.626a2.023 2.023 0 01-1.288-.574c-.034-.034-.06-.075-.092-.112zm-5.88 3.498v0z" fill="#967a44"></path><path d="M30.217 8.997c.031.065.052.13.055.195.398-.032.075-.208-.055-.195z" fill="#ffc49c"></path><g><path d="M13.453 14.245c.275-.275.562-.594.731-1.034a3.03 3.03 0 002.752-2.556l.001-.005a3.007 3.007 0 001.678-1.075 2.96 2.96 0 001.844.196 2.972 2.972 0 001.819-1.182 2.91 2.91 0 00.828 1.455c.402.374.907.633 1.442.747.138.358.343.688.607.968.018.723.212 1.676.749 2.26a2.86 2.86 0 001.098.771l1 .105V14a1.929 1.929 0 01-1.346-.641c-.419-.456-.56-1.47-.482-2.04a1.912 1.912 0 01-.252-.207 2.027 2.027 0 01-.572-1.271c-.058.005-.116.017-.175.017-.493 0-1-.186-1.387-.546-.46-.437-.633-1.039-.579-1.626a2.023 2.023 0 01-1.288-.574c-.036-.034-.062-.075-.094-.112a1.99 1.99 0 01-1.574 1.793 1.984 1.984 0 01-.423.046 1.997 1.997 0 01-1.603-.819c-.107.72-.6 1.347-1.32 1.6-.222.077-.438.11-.652.11a2.19 2.19 0 01-.361-.03c.066.253.094.533.053.799v.008a2.023 2.023 0 01-1.987 1.712c-.094 0-.186-.013-.293-.027a2.04 2.04 0 01-.36-.09c.012.087.026.174.026.264 0 .52-.214.798-.587 1.172-.21.21-.469.363-.746.462v1l1-.386a2.83 2.83 0 00.453-.369z" fill="#a16a4a"></path></g><path d="M26 18.5a1.5 1.5 0 00-3 0l.001.012h-6.002L17 18.5a1.5 1.5 0 00-3 0l.001.012H14C14 24.911 20 25 20 25s6 .074 6-6.488h-.001L26 18.5z" fill="#fff"></path><path d="M16 20c.566 1.592 2.214 3 4 3s3.434-1.408 4-3h-8z" fill="#f7a3a3"></path><g><circle cx="20" cy="18" r="2.5" fill="#f75252"></circle><path d="M20 16c1.103 0 2 .897 2 2s-.897 2-2 2-2-.897-2-2 .897-2 2-2m0-1a3 3 0 100 6 3 3 0 000-6z" fill="#c74343"></path></g><circle cx="24" cy="15" r="1" fill="#36404d"></circle><circle cx="16" cy="15" r="1" fill="#36404d"></circle></svg>