<svg viewBox="0 0 40 40" xmlns="http://www.w3.org/2000/svg"><path d="M29.498 25.896a.94.94 0 01-.382-.081l-11.949-5.22a.91.91 0 01-.498-1.143L23.515 2.12a.943.943 0 011.184-.566l11.776 4.899a.956.956 0 01.58.479.88.88 0 01.047.686l-6.708 17.633a.941.941 0 01-.896.645z" fill="#ffeea3"></path><path d="M24.4 2.006c.039 0 .078.005.116.015l11.767 4.894.036.015.037.012c.151.05.223.155.252.214a.373.373 0 01.033.267l-6.727 17.685a.436.436 0 01-.417.288.445.445 0 01-.182-.039l-11.948-5.22c-.205-.09-.304-.309-.237-.49l6.858-17.363a.437.437 0 01.412-.278m0-1c-.588 0-1.139.358-1.35.93L16.2 19.279a1.405 1.405 0 00.767 1.774l11.948 5.22c.19.083.388.122.583.122.598 0 1.162-.37 1.364-.966l6.714-17.65a1.408 1.408 0 00-.909-1.787L24.855 1.079a1.443 1.443 0 00-.455-.073z" fill="#c29653"></path><path d="M15.703 38.506a.953.953 0 01-.461-.119L2.98 31.843a.92.92 0 01-.465-.926l.065-.558H2.5v-1.918l28-3.504v2.5l-.004.037a.926.926 0 01-.351.639L16.312 38.288a.974.974 0 01-.609.218z" fill="#b0c1d4"></path><path d="M30 25.504v1.903l-.002.021a.4.4 0 01-.134.272L15.986 37.908a.458.458 0 01-.515.035L3.228 31.408a.429.429 0 01-.216-.434l.11-1.115H3v-.977l27-3.378m1-1.133L2 28v2.86h.019a1.421 1.421 0 00.726 1.424L15 38.825a1.458 1.458 0 001.608-.134l13.848-10.187c.327-.26.502-.616.537-.982H31v-3.151z" fill="#a3b7cc"></path><path d="M15.703 35.499a.957.957 0 01-.462-.119L2.98 28.836c-.285-.158-.462-.438-.479-.768s.129-.626.402-.815l14.149-9.588a.957.957 0 01.936-.092l11.929 5.936c.326.145.533.42.575.748a.915.915 0 01-.347.849L16.312 35.281a.98.98 0 01-.609.218z" fill="#839cb2"></path><path d="M17.603 17.991c.064 0 .126.013.142.019l11.991 5.966a.424.424 0 01.26.344c.012.09.006.261-.133.372L15.986 34.901a.458.458 0 01-.515.035L3.228 28.401a.422.422 0 01-.227-.359.416.416 0 01.178-.372l14.164-9.598a.452.452 0 01.26-.081m-.001-1c-.293 0-.583.088-.831.26L2.618 26.842a1.432 1.432 0 00.127 2.434L15 35.818a1.458 1.458 0 001.608-.134l13.848-10.187a1.432 1.432 0 00-.317-2.436L18.19 17.115a1.454 1.454 0 00-.588-.124z" fill="#66798f"></path><circle cx="12" cy="25.383" r="1.5" fill="#ffeea3"></circle><path d="M12 24.383a1 1 0 110 2 1 1 0 010-2m0-1c-1.103 0-2 .897-2 2s.897 2 2 2 2-.897 2-2-.897-2-2-2z" fill="#66798f"></path><circle cx="15" cy="27" r="1.5" fill="#f78f8f"></circle><path d="M15 26a1 1 0 110 2 1 1 0 010-2m0-1c-1.103 0-2 .897-2 2s.897 2 2 2 2-.897 2-2-.897-2-2-2z" fill="#66798f"></path><circle cx="18" cy="28.672" r="1.5" fill="#8bb7f0"></circle><path d="M18 27.672a1 1 0 110 2 1 1 0 010-2m0-1c-1.103 0-2 .897-2 2s.897 2 2 2 2-.897 2-2-.897-2-2-2z" fill="#66798f"></path><ellipse cx="20.5" cy="23" rx="3.5" ry="2" fill="#e1ebf2"/><path fill="#e1ebf2" d="M15.559 33.049l2.099-1.555-9.448-5.195-2.179 1.514z"></path><circle cx="21.5" cy="13.5" r=".5" fill="#c29653"></circle><circle cx="23.5" cy="14.5" r=".5" fill="#c29653"></circle><circle cx="25.5" cy="15.5" r=".5" fill="#c29653"></circle><circle cx="27.5" cy="16.5" r=".5" fill="#c29653"></circle><circle cx="27.5" cy="14.5" r=".5" fill="#c29653"></circle><circle cx="25.5" cy="13.5" r=".5" fill="#c29653"></circle><circle cx="23.5" cy="12.5" r=".5" fill="#c29653"></circle><circle cx="21.5" cy="11.5" r=".5" fill="#c29653"></circle><circle cx="29.5" cy="15.5" r=".5" fill="#c29653"></circle><circle cx="29.5" cy="13.5" r=".5" fill="#c29653"></circle><circle cx="27.5" cy="12.5" r=".5" fill="#c29653"></circle><circle cx="25.5" cy="11.5" r=".5" fill="#c29653"></circle><circle cx="23.5" cy="10.5" r=".5" fill="#c29653"></circle><circle cx="21.5" cy="9.5" r=".5" fill="#c29653"></circle><circle cx="23.5" cy="8.5" r=".5" fill="#c29653"></circle><circle cx="25.5" cy="9.5" r=".5" fill="#c29653"></circle><circle cx="27.5" cy="10.5" r=".5" fill="#c29653"></circle><circle cx="29.5" cy="11.5" r=".5" fill="#c29653"></circle><circle cx="29.5" cy="9.5" r=".5" fill="#c29653"></circle><circle cx="31.5" cy="10.5" r=".5" fill="#c29653"></circle><circle cx="27.5" cy="8.5" r=".5" fill="#c29653"></circle><circle cx="25.5" cy="7.5" r=".5" fill="#c29653"></circle><circle cx="23.5" cy="6.5" r=".5" fill="#c29653"></circle><circle cx="23.5" cy="4.5" r=".5" fill="#c29653"></circle><circle cx="25.5" cy="5.5" r=".5" fill="#c29653"></circle><circle cx="27.5" cy="6.5" r=".5" fill="#c29653"></circle><circle cx="29.5" cy="7.5" r=".5" fill="#c29653"></circle><circle cx="31.5" cy="8.5" r=".5" fill="#c29653"></circle><circle cx="31.5" cy="6.5" r=".5" fill="#c29653"></circle><circle cx="31.5" cy="16.5" r=".5" fill="#c29653"></circle><circle cx="31.5" cy="14.5" r=".5" fill="#c29653"></circle><circle cx="35.5" cy="8.5" r=".5" fill="#c29653"></circle><circle cx="35.5" cy="6.5" r=".5" fill="#c29653"></circle><circle cx="33.5" cy="5.5" r=".5" fill="#c29653"></circle><circle cx="31.5" cy="4.5" r=".5" fill="#c29653"></circle><circle cx="33.5" cy="13.5" r=".5" fill="#c29653"></circle><circle cx="35.5" cy="10.5" r=".5" fill="#c29653"></circle><circle cx="31.5" cy="12.5" r=".5" fill="#c29653"></circle><circle cx="33.5" cy="11.5" r=".5" fill="#c29653"></circle><circle cx="33.5" cy="9.5" r=".5" fill="#c29653"></circle><circle cx="33.5" cy="7.5" r=".5" fill="#c29653"></circle><circle cx="29.5" cy="21.5" r=".5" fill="#c29653"></circle><circle cx="29.5" cy="19.5" r=".5" fill="#c29653"></circle><circle cx="29.5" cy="17.5" r=".5" fill="#c29653"></circle><circle cx="29.5" cy="5.5" r=".5" fill="#c29653"></circle><circle cx="27.5" cy="4.5" r=".5" fill="#c29653"></circle><circle cx="25.5" cy="3.5" r=".5" fill="#c29653"></circle><circle cx="33.5" cy="15.5" r=".5" fill="#c29653"></circle><circle cx="31.5" cy="18.5" r=".5" fill="#c29653"></circle><circle cx="31.5" cy="20.5" r=".5" fill="#c29653"></circle><circle cx="27.5" cy="18.5" r=".5" fill="#c29653"></circle><circle cx="27.5" cy="20.5" r=".5" fill="#c29653"></circle><circle cx="25.5" cy="19.5" r=".5" fill="#c29653"></circle><circle cx="25.5" cy="17.5" r=".5" fill="#c29653"></circle><circle cx="23.5" cy="16.5" r=".5" fill="#c29653"></circle><circle cx="23.5" cy="18.5" r=".5" fill="#c29653"></circle><circle cx="21.5" cy="15.5" r=".5" fill="#c29653"></circle><g><circle cx="21.5" cy="17.5" r=".5" fill="#c29653"></circle></g><g><circle cx="19.5" cy="14.5" r=".5" fill="#c29653"></circle></g><g><circle cx="19.5" cy="16.5" r=".5" fill="#c29653"></circle></g><g><circle cx="21.5" cy="7.5" r=".5" fill="#c29653"></circle></g><g><circle cx="23.5" cy="2.5" r=".5" fill="#c29653"></circle></g><g><circle cx="19.5" cy="12.5" r=".5" fill="#c29653"></circle></g></svg>