<svg viewBox="0 0 40 40" xmlns="http://www.w3.org/2000/svg"><circle cx="8" cy="19" r="6.5" fill="#8bb7f0"></circle><path d="M8 13c3.308 0 6 2.692 6 6s-2.692 6-6 6-6-2.692-6-6 2.692-6 6-6m0-1a7 7 0 100 14 7 7 0 000-14z" fill="#4e7ab5"></path><circle cx="32" cy="19" r="6.5" fill="#8bb7f0"></circle><path d="M32 13c3.308 0 6 2.692 6 6s-2.692 6-6 6-6-2.692-6-6 2.692-6 6-6m0-1a7 7 0 100 14 7 7 0 000-14z" fill="#4e7ab5"></path><circle cx="20" cy="17" r="6.5" fill="#c2e8ff"></circle><path d="M20 11c3.308 0 6 2.692 6 6s-2.692 6-6 6-6-2.692-6-6 2.692-6 6-6m0-1a7 7 0 100 14 7 7 0 000-14z" fill="#7496c4"></path><circle cx="20" cy="5" r="3.5" fill="#ffeea3"></circle><path d="M20 2c1.654 0 3 1.346 3 3s-1.346 3-3 3-3-1.346-3-3 1.346-3 3-3m0-1a4 4 0 100 8 4 4 0 000-8z" fill="#ba9b48"></path><path fill="#bae0bd" d="M1.5 17.5h37v21h-37z"></path><path d="M38 18v20H2V18h36m1-1H1v22h38V17z" fill="#5e9c76"></path><g><circle cx="20" cy="28" r="7.5" fill="#fff"></circle><path d="M20 21c3.86 0 7 3.14 7 7s-3.14 7-7 7-7-3.14-7-7 3.14-7 7-7m0-1a8 8 0 100 16 8 8 0 000-16z" fill="#5e9c76"></path></g><g><circle cx="33" cy="28" r="2.5" fill="#fff"></circle><path d="M33 26c1.103 0 2 .897 2 2s-.897 2-2 2-2-.897-2-2 .897-2 2-2m0-1a3 3 0 100 6 3 3 0 000-6z" fill="#5e9c76"></path></g><g><circle cx="7" cy="28" r="2.5" fill="#fff"></circle><path d="M7 26c1.103 0 2 .897 2 2s-.897 2-2 2-2-.897-2-2 .897-2 2-2m0-1a3 3 0 100 6 3 3 0 000-6z" fill="#5e9c76"></path></g><g><circle cx="8" cy="7" r="3.5" fill="#ffeea3"></circle><path d="M8 4c1.654 0 3 1.346 3 3s-1.346 3-3 3-3-1.346-3-3 1.346-3 3-3m0-1a4 4 0 100 8 4 4 0 000-8z" fill="#ba9b48"></path></g><g><circle cx="32" cy="7" r="3.5" fill="#ffeea3"></circle><path d="M32 4c1.654 0 3 1.346 3 3s-1.346 3-3 3-3-1.346-3-3 1.346-3 3-3m0-1a4 4 0 100 8 4 4 0 000-8z" fill="#ba9b48"></path></g></svg>