<svg viewBox="0 0 40 40" xmlns="http://www.w3.org/2000/svg"><path d="M9 24.5a.5.5 0 01-.5-.5v-2.309L5.118 20 8.5 18.309V16a.5.5 0 01.5-.5h27a.5.5 0 01.5.5v8a.5.5 0 01-.5.5H9z" fill="#8bb7f0"></path><path d="M36 16v8H9v-2.618l-.553-.276L6.236 20l2.211-1.106.553-.276V16h27m0-1H9c-.55 0-1 .45-1 1v2l-4 2 4 2v2c0 .55.45 1 1 1h27c.55 0 1-.45 1-1v-8c0-.55-.45-1-1-1z" fill="#4e7ab5"></path><path d="M6 11.5a.5.5 0 01-.5-.5V8.691L2.118 7 5.5 5.309V3a.5.5 0 01.5-.5h27a.5.5 0 01.5.5v8a.5.5 0 01-.5.5H6z" fill="#99c99e"></path><path d="M33 3v8H6V8.382l-.553-.276L3.236 7l2.211-1.106L6 5.618V3h27m0-1H6c-.55 0-1 .45-1 1v2L1 7l4 2v2c0 .55.45 1 1 1h27c.55 0 1-.45 1-1V3c0-.55-.45-1-1-1z" fill="#5e9c76"></path><g><path d="M11 37.5a.5.5 0 01-.5-.5v-2.309L7.118 33l3.382-1.691V29a.5.5 0 01.5-.5h27a.5.5 0 01.5.5v8a.5.5 0 01-.5.5H11z" fill="#dcd5f2"></path><path d="M38 29v8H11v-2.618l-.553-.276L8.236 33l2.211-1.106.553-.276V29h27m0-1H11c-.55 0-1 .45-1 1v2l-4 2 4 2v2c0 .55.45 1 1 1h27c.55 0 1-.45 1-1v-8c0-.55-.45-1-1-1z" fill="#8b75a1"></path></g></svg>