<svg viewBox="0 0 40 40" xmlns="http://www.w3.org/2000/svg"><path fill="#f2faff" d="M15.5 38.5v-31h15.293l7.707 7.707V38.5z"></path><path d="M30.586 8L38 15.414V38H16V8h14.586M31 7H15v32h24V15l-8-8z" fill="#788b9c"></path><path fill="#fff" d="M30.5 15.5v-8h.293l7.707 7.707v.293z"></path><path d="M31 8.414L37.586 15H31V8.414M31 7h-1v9h9v-1l-8-8z" fill="#788b9c"></path><path fill="#4e7ab5" d="M28.143 24.071h6.786v2.715h-6.786v4.071l-5.429-5.428L28.143 20z"></path><path fill="#fff" d="M1.5 32.5v-31h15.293L24.5 9.207V32.5z"></path><path d="M16.586 2L24 9.414V32H2V2h14.586M17 1H1v32h24V9l-8-8z" fill="#788b9c"></path><g><path fill="#fff" d="M16.5 9.5v-8h.293L24.5 9.207V9.5z"></path><path d="M17 2.414L23.586 9H17V2.414M17 1h-1v9h9V9l-8-8z" fill="#788b9c"></path></g><g><path fill="#4e7ab5" d="M14.571 18.643H6.429v2.714h8.142v4.072L20 20l-5.429-5.429z"></path></g></svg>