<svg viewBox="0 0 40 40" xmlns="http://www.w3.org/2000/svg"><path d="M8.286 20.5v-.993l-.483-.017A5.477 5.477 0 012.5 14a5.489 5.489 0 014.889-5.464l.314-.035.104-.299A5.502 5.502 0 0113 4.5c.686 0 1.362.129 2.01.385l.355.14.229-.306C16.646 3.309 18.252 2.5 20 2.5s3.354.809 4.406 2.219l.229.306.355-.14A5.448 5.448 0 0127 4.5a5.502 5.502 0 015.193 3.703l.104.299.314.035A5.487 5.487 0 0137.5 14a5.477 5.477 0 01-5.303 5.49l-.482.017v.993H8.286z" fill="#bae0bd"></path><path d="M20 3c1.588 0 3.048.735 4.005 2.018l.457.612.711-.28A4.976 4.976 0 0127 5a5.002 5.002 0 014.721 3.366l.207.597.628.069A4.991 4.991 0 0137 14a4.978 4.978 0 01-4.821 4.99l-.965.034V20H8.786v-.976l-.965-.034A4.978 4.978 0 013 14a4.99 4.99 0 014.444-4.967l.628-.069.207-.597A5.002 5.002 0 0113 5c.622 0 1.237.118 1.827.35l.711.28.457-.612A4.957 4.957 0 0120 3m0-1c-1.97 0-3.713.954-4.806 2.42A5.973 5.973 0 0013 4a6 6 0 00-5.666 4.039 5.996 5.996 0 00.452 11.95V21h24.429v-1.011a5.995 5.995 0 00.451-11.95A6 6 0 0027 4c-.775 0-1.513.152-2.194.42A5.983 5.983 0 0020 2z" fill="#5e9c76"></path><path d="M29 19.5a3.5 3.5 0 01-3.038-1.798l-.166-.295-.437.058c-.118.017-.236.035-.359.035-.106 0-.208-.016-.31-.03l-.383-.049-.175.2A5.5 5.5 0 0120 19.5a5.449 5.449 0 01-3.384-1.17l-.329-.257-.312.277A4.487 4.487 0 0113 19.5c-2.481 0-4.5-2.019-4.5-4.5s2.019-4.5 4.5-4.5c.65 0 1.297.15 1.921.448l.376.179.244-.338A5.517 5.517 0 0120 8.5a5.5 5.5 0 014.132 1.879l.175.2.383-.049c.102-.014.204-.03.31-.03a3.5 3.5 0 013.038 1.798l.166.295.437-.058c.118-.017.236-.035.359-.035 1.93 0 3.5 1.57 3.5 3.5s-1.57 3.5-3.5 3.5z" fill="#d8f0da"></path><path d="M20 9c1.435 0 2.804.623 3.756 1.709l.349.398.526-.065.13-.017c.079-.011.157-.025.239-.025 1.07 0 2.067.591 2.602 1.543l.332.591.671-.089.104-.014c.097-.014.192-.031.291-.031 1.654 0 3 1.346 3 3s-1.346 3-3 3a2.999 2.999 0 01-2.602-1.543l-.332-.591-.671.089-.105.015c-.096.013-.191.03-.29.03-.082 0-.16-.014-.239-.025l-.13-.017-.526-.065-.349.398A4.999 4.999 0 0120 19a4.951 4.951 0 01-3.076-1.064l-.657-.514-.624.554A3.984 3.984 0 0113 19c-2.206 0-4-1.794-4-4s1.794-4 4-4c.576 0 1.15.134 1.707.399l.753.358.488-.676A5.013 5.013 0 0120 9m0-1a5.987 5.987 0 00-4.864 2.496A4.952 4.952 0 0013 10a5 5 0 000 10 4.96 4.96 0 003.308-1.277 5.978 5.978 0 008.2-.773c.163.021.324.05.492.05.18 0 .352-.03.526-.053C26.211 19.166 27.502 20 29 20a4 4 0 000-8c-.18 0-.352.03-.526.053C27.789 10.834 26.498 10 25 10c-.168 0-.329.029-.492.05A5.978 5.978 0 0020 8z" fill="#5e9c76"></path><path fill="#f5ce85" d="M1.5 14.5h37v24h-37z"></path><path d="M38 15v23H2V15h36m1-1H1v25h38V14z" fill="#967a44"></path><g><path fill="none" stroke="#967a44" stroke-miterlimit="10" d="M1 20.5h38"></path></g><g><path fill="none" stroke="#967a44" stroke-miterlimit="10" d="M1 26.5h38"></path></g><g><path fill="none" stroke="#967a44" stroke-miterlimit="10" d="M1 32.5h38"></path></g></svg>