<svg viewBox="0 0 40 40" xmlns="http://www.w3.org/2000/svg"><path d="M21.039 33.5h-7.078A7.46 7.46 0 016.5 26.039V7" fill="none" stroke="#a3b7cc" stroke-miterlimit="10"></path><path d="M6.5 10.5c-2.206 0-4-1.794-4-4s1.794-4 4-4 4 1.794 4 4-1.794 4-4 4z" fill="#8bb7f0"></path><path d="M6.5 3C8.43 3 10 4.57 10 6.5S8.43 10 6.5 10 3 8.43 3 6.5 4.57 3 6.5 3m0-1a4.5 4.5 0 100 9 4.5 4.5 0 000-9z" fill="#4e7ab5"></path><path fill="#e1ebf2" d="M20.5 30l4.667 3.5L20.5 37z"></path><path d="M21 31l3.333 2.5L21 36v-5m-1-2v9l6-4.5-6-4.5z" fill="#a3b7cc"></path><path d="M18.961 6.5h7.078a7.46 7.46 0 017.461 7.461V33" fill="none" stroke="#a3b7cc" stroke-miterlimit="10"></path><g><path d="M33.5 37.5c-2.206 0-4-1.794-4-4s1.794-4 4-4 4 1.794 4 4-1.794 4-4 4z" fill="#8bb7f0"></path><path d="M33.5 30c1.93 0 3.5 1.57 3.5 3.5S35.43 37 33.5 37 30 35.43 30 33.5s1.57-3.5 3.5-3.5m0-1a4.5 4.5 0 100 9 4.5 4.5 0 000-9z" fill="#4e7ab5"></path></g><g><path fill="#e1ebf2" d="M14.833 6.5L19.5 3v7z"></path><path d="M19 4v5l-3.333-2.5L19 4m1-2l-6 4.5 6 4.5V2z" fill="#a3b7cc"></path></g></svg>