<svg viewBox="0 0 40 40" xmlns="http://www.w3.org/2000/svg"><path fill="#8bb7f0" d="M23.5 16.5V6.207l3.694 3.694 8.194-8.194 2.905 2.905-8.194 8.194 3.694 3.694z"></path><path d="M35.388 2.414l2.198 2.198-7.487 7.487-.707.707.707.707L32.586 16H24V7.414l2.487 2.487.707.707.707-.707 7.487-7.487m0-1.414l-8.194 8.194L23 5v12h12l-4.194-4.194L39 4.612 35.388 1z" fill="#4e7ab5"></path><g><path fill="#8bb7f0" d="M1.707 35.388l8.194-8.194L6.207 23.5H16.5v10.293l-3.694-3.694-8.194 8.194z"></path><path d="M16 24v8.586l-2.487-2.487-.707-.707-.707.707-7.487 7.487-2.198-2.198 7.487-7.487.707-.707-.707-.707L7.414 24H16m1-1H5l4.194 4.194L1 35.388 4.612 39l8.194-8.194L17 35V23z" fill="#4e7ab5"></path></g></svg>