<svg viewBox="0 0 40 40" xmlns="http://www.w3.org/2000/svg"><path d="M4 27.5A2.503 2.503 0 011.5 25V4c0-1.378 1.121-2.5 2.5-2.5h32c1.379 0 2.5 1.122 2.5 2.5v21c0 1.378-1.121 2.5-2.5 2.5H4z" fill="#e1ebf2"></path><path d="M36 2c1.103 0 2 .897 2 2v21c0 1.103-.897 2-2 2H4c-1.103 0-2-.897-2-2V4c0-1.103.897-2 2-2h32m0-1H4a3 3 0 00-3 3v21a3 3 0 003 3h32a3 3 0 003-3V4a3 3 0 00-3-3z" fill="#66798f"></path><path d="M4 38.5A2.503 2.503 0 011.5 36v-6c0-1.378 1.121-2.5 2.5-2.5h32c1.379 0 2.5 1.122 2.5 2.5v6c0 1.378-1.121 2.5-2.5 2.5H4z" fill="#e1ebf2"></path><path d="M36 28c1.103 0 2 .897 2 2v6c0 1.103-.897 2-2 2H4c-1.103 0-2-.897-2-2v-6c0-1.103.897-2 2-2h32m0-1H4a3 3 0 00-3 3v6a3 3 0 003 3h32a3 3 0 003-3v-6a3 3 0 00-3-3z" fill="#66798f"></path><path fill="#8bb7f0" d="M5.5 5.5h29v18h-29z"></path><path d="M34 6v17H6V6h28m1-1H5v19h30V5z" fill="#4e7ab5"></path><path fill="#66798f" d="M5 32h16v1H5z"></path><path d="M15 32.667S14.37 34 12.5 34 10 32.667 10 32.667L12.442 32l2.558.667z" fill="#66798f"></path><g><circle cx="33" cy="33" r="1.5" fill="#bae0bd"></circle><path d="M33 32c.551 0 1 .449 1 1s-.449 1-1 1-1-.449-1-1 .449-1 1-1m0-1a2 2 0 10-.001 3.999A2 2 0 0033 31z" fill="#5e9c76"></path></g></svg>