<svg viewBox="0 0 40 40" xmlns="http://www.w3.org/2000/svg"><path d="M3.001 32.5A1.503 1.503 0 011.5 31V9c0-.827.673-1.5 1.5-1.5h33.999c.827 0 1.501.673 1.501 1.5v22c0 .827-.673 1.5-1.5 1.5H3.001z" fill="#b0c1d4"></path><path d="M36.999 8c.265 0 .516.105.706.295.19.19.295.44.295.705v22c0 .551-.449 1-1 1H3.001a.994.994 0 01-.706-.295A.992.992 0 012 31V9c0-.551.449-1 1-1h33.999m0-1H3c-1.1 0-2 .9-2 2v22c0 1.1.901 2 2.001 2H37c1.1 0 2-.9 2-2V9c0-1.1-.901-2-2.001-2z" fill="#66798f"></path><path fill="#fff9de" d="M4 11h5v3H4z"></path><path d="M25 28.5c-4.687 0-8.5-3.813-8.5-8.5 0-4.687 3.813-8.5 8.5-8.5s8.5 3.813 8.5 8.5c0 4.687-3.814 8.5-8.5 8.5z" fill="#c2e8ff"></path><path d="M25 12c4.411 0 8 3.589 8 8s-3.589 8-8 8-8-3.589-8-8 3.589-8 8-8m0-1a9 9 0 100 18 9 9 0 000-18z" fill="#7496c4"></path><path d="M20.5 20a4.5 4.5 0 014.5-4.5" fill="none" stroke="#fff" stroke-miterlimit="10"></path><path fill="#66798f" d="M4 6h5v2H4z"></path></svg>