<svg viewBox="0 0 40 40" xmlns="http://www.w3.org/2000/svg"><path d="M20 38.5C9.799 38.5 1.5 30.201 1.5 20S9.799 1.5 20 1.5 38.5 9.799 38.5 20 30.201 38.5 20 38.5z" fill="#e1ebf2"></path><path d="M20 2c9.925 0 18 8.075 18 18s-8.075 18-18 18S2 29.925 2 20 10.075 2 20 2m0-1C9.507 1 1 9.507 1 20s8.507 19 19 19 19-8.507 19-19S30.493 1 20 1z" fill="#a3b7cc"></path><path d="M20 34.5c-7.995 0-14.5-6.505-14.5-14.5S12.005 5.5 20 5.5 34.5 12.005 34.5 20 27.995 34.5 20 34.5z" fill="#8bb7f0"></path><path d="M20 6c7.72 0 14 6.28 14 14s-6.28 14-14 14S6 27.72 6 20 12.28 6 20 6m0-1C11.716 5 5 11.716 5 20s6.716 15 15 15 15-6.716 15-15S28.284 5 20 5z" fill="#4e7ab5"></path><path fill="#f75252" d="M18.243 18.243l8.784-5.27-5.27 8.784-8.784 5.27z"></path><path d="M25.57 14.43l-4.177 6.962-6.963 4.178 4.177-6.962 6.963-4.178m2.915-2.915l-10.607 6.364-6.364 10.607 10.607-6.364 6.364-10.607z" fill="#ab3434"></path><path fill="#788b9c" d="M17.978 18.685l3.337 3.337-8.342 5.005z"></path><path d="M18.077 19.491l1.216 1.216 1.216 1.216-6.079 3.647 3.647-6.079m-.198-1.612l-6.364 10.607 10.607-6.364L20 20l-2.121-2.121z" fill="#36404d"></path><path d="M20 20.5a.501.501 0 110-1.002.501.501 0 010 1.002z" fill="#8bb7f0"></path><path d="M20 19a.999.999 0 10.707 1.707A.999.999 0 0020 19zM20 8c-.55 0-1-.45-1-1V6h2v1c0 .55-.45 1-1 1zM19 34v-1c0-.55.45-1 1-1s1 .45 1 1v1h-2zM8 20c0 .55-.45 1-1 1H6v-2h1c.55 0 1 .45 1 1zM34 21h-1c-.55 0-1-.45-1-1s.45-1 1-1h1v2z" fill="#fff"></path></svg>