<svg viewBox="0 0 40 40" xmlns="http://www.w3.org/2000/svg"><path fill="#f78f8f" d="M2.207 35.5l2.042-2.042L1.8 31.5l2.5-2-2.5-2 2.5-2-2.5-2 2.5-2-2.5-2 2.5-2-2.5-2 2.5-2-2.5-2 2.5-2-2.5-2 2.449-1.958L2.207 3.5h34.586l-2.042 2.042L37.2 7.5l-2.5 2 2.5 2-2.5 2 2.5 2-2.5 2 2.5 2-2.5 2 2.5 2-2.5 2 2.5 2-2.5 2 2.5 2-2.449 1.958 2.042 2.042z"></path><path d="M35.586 4l-.793.793-.79.79.872.698L36.399 7.5l-1.524 1.219-.976.781.976.781 1.524 1.219-1.524 1.219-.976.781.976.781 1.524 1.219-1.524 1.219-.976.781.976.781 1.524 1.219-1.524 1.219-.976.781.976.781 1.524 1.219-1.524 1.219-.976.781.976.781 1.524 1.219-1.524 1.219-.976.781.976.781 1.524 1.219-1.524 1.219-.872.698.79.79.793.793H3.414l.793-.793.79-.79-.872-.698L2.601 31.5l1.524-1.219.976-.781-.976-.781L2.601 27.5l1.524-1.219.976-.781-.976-.781L2.601 23.5l1.524-1.219.976-.781-.976-.781L2.601 19.5l1.524-1.219.976-.781-.976-.781L2.601 15.5l1.524-1.219.976-.781-.976-.781L2.601 11.5l1.524-1.219.976-.781-.976-.781L2.601 7.5l1.524-1.219.872-.698-.79-.79L3.414 4h32.172M38 3H1l2.5 2.5-2.5 2 2.5 2-2.5 2 2.5 2-2.5 2 2.5 2-2.5 2 2.5 2-2.5 2 2.5 2-2.5 2 2.5 2-2.5 2 2.5 2L1 36h37l-2.5-2.5 2.5-2-2.5-2 2.5-2-2.5-2 2.5-2-2.5-2 2.5-2-2.5-2 2.5-2-2.5-2 2.5-2-2.5-2 2.5-2-2.5-2L38 3z" fill="#c74343"></path><path d="M19.5 31.5c-6.617 0-12-5.383-12-12s5.383-12 12-12 12 5.383 12 12-5.383 12-12 12z" fill="#ffadad"></path><path d="M19.5 8C25.841 8 31 13.159 31 19.5S25.841 31 19.5 31 8 25.841 8 19.5 13.159 8 19.5 8m0-1C12.596 7 7 12.596 7 19.5S12.596 32 19.5 32 32 26.404 32 19.5 26.404 7 19.5 7z" fill="#c74343"></path><path d="M25.864 13.121a9 9 0 010 12.728 9 9 0 01-12.728 0 9 9 0 010-12.728 8.952 8.952 0 014.501-2.442" fill="#ffadad" stroke="#c74343" stroke-linecap="round" stroke-miterlimit="10"></path></svg>