<svg viewBox="0 0 40 40" xmlns="http://www.w3.org/2000/svg"><path d="M10.5 36.5V15c0-4.093 2.735-7.818 6.651-9.059l.349-.11V4c0-1.378 1.122-2.5 2.5-2.5s2.5 1.122 2.5 2.5v1.831l.349.11C26.765 7.182 29.5 10.907 29.5 15v21.5h-19z" fill="#8bb7f0"></path><path d="M20 2c1.103 0 2 .897 2 2V6.196l.698.221C26.408 7.594 29 11.123 29 15v21H11V15c0-3.877 2.592-7.406 6.302-8.582L18 6.196V4c0-1.103.897-2 2-2m0-1c-1.65 0-3 1.35-3 3v1.464c-4.046 1.282-7 5.08-7 9.536v22h20V15c0-4.456-2.954-8.253-7-9.536V4c0-1.65-1.35-3-3-3z" fill="#4e7ab5"></path><path d="M10 38.5c-.827 0-1.5-.673-1.5-1.5s.673-1.5 1.5-1.5h20c.827 0 1.5.673 1.5 1.5s-.673 1.5-1.5 1.5H10z" fill="#8bb7f0"></path><path d="M30 36c.551 0 1 .449 1 1s-.449 1-1 1H10c-.551 0-1-.449-1-1s.449-1 1-1h20m0-1H10c-1.1 0-2 .9-2 2s.9 2 2 2h20c1.1 0 2-.9 2-2s-.9-2-2-2z" fill="#4e7ab5"></path><path d="M23 16.732c0 2.613-1.343 3.549-3 3.549s-3-.936-3-3.549S18.343 12 20 12s3 2.119 3 4.732z" fill="#fff"></path><path d="M20 30s-1-1.063-1-3c0-2.375 1.75-3.188 1.75-6 0-2.031.25-3 .25-3h-3s1.25 1 1.25 3c0 2.438-1.25 3.531-1.25 6s2 3 2 3z" fill="#fff"></path><path d="M19.5 18h1c.55 0 1 .45 1 1v1c0 .55-.45 1-1 1h-1c-.55 0-1-.45-1-1v-1c0-.55.45-1 1-1z" fill="#fff"></path></svg>