<svg viewBox="0 0 40 40" xmlns="http://www.w3.org/2000/svg"><path d="M9.411 38.5C11.25 37.337 12.5 35.283 12.5 33v-.5h15v.5c0 2.283 1.25 4.337 3.089 5.5H9.411z" fill="#ffeea3"></path><path d="M27 33c0 1.936.834 3.718 2.155 5h-18.31C12.166 36.718 13 34.936 13 33h14m1-1H12v1c0 3.24-2.76 6-6 6h28c-3.24 0-6-2.76-6-6v-1z" fill="#ba9b48"></path><path d="M27 33H13c0 2.51-1.403 4.763-3.452 6h20.904C28.403 37.763 27 35.51 27 33z" fill="#ffeea3"></path><path d="M12.5 32.5V16.534l-.08-.124c-.61-.945-.92-2.093-.92-3.41a8.512 8.512 0 015.667-8.006l.333-.118V4c0-1.378 1.122-2.5 2.5-2.5s2.5 1.122 2.5 2.5v.876l.333.118A8.512 8.512 0 0128.5 13c0 1.317-.31 2.465-.92 3.411l-.08.124V32.5h-15z" fill="#c2e8ff"></path><path d="M20 2c1.103 0 2 .897 2 2v1.23l.666.236A8.009 8.009 0 0128 13c0 1.22-.283 2.276-.84 3.139l-.16.248V32H13V16.386l-.16-.248C12.283 15.276 12 14.22 12 13a8.009 8.009 0 015.334-7.534L18 5.23V4c0-1.103.897-2 2-2m0-1c-1.65 0-3 1.35-3 3v.523C13.507 5.76 11 9.083 11 13c0 1.483.365 2.698 1 3.681V33h16V16.681c.635-.983 1-2.199 1-3.681 0-3.917-2.507-7.24-6-8.477V4c0-1.65-1.35-3-3-3z" fill="#7496c4"></path><g><path d="M12 34.5c-.827 0-1.5-.673-1.5-1.5s.673-1.5 1.5-1.5h16c.827 0 1.5.673 1.5 1.5s-.673 1.5-1.5 1.5H12z" fill="#8bb7f0"></path><path d="M28 32c.551 0 1 .449 1 1s-.449 1-1 1H12c-.551 0-1-.449-1-1s.449-1 1-1h16m0-1H12c-1.1 0-2 .9-2 2s.9 2 2 2h16c1.1 0 2-.9 2-2s-.9-2-2-2z" fill="#4e7ab5"></path></g></svg>