<svg viewBox="0 0 40 40" xmlns="http://www.w3.org/2000/svg"><path d="M20 38.5C9.799 38.5 1.5 30.201 1.5 20S9.799 1.5 20 1.5 38.5 9.799 38.5 20 30.201 38.5 20 38.5z" fill="#ffeea3"></path><path d="M20 2c9.925 0 18 8.075 18 18s-8.075 18-18 18S2 29.925 2 20 10.075 2 20 2m0-1C9.507 1 1 9.507 1 20s8.507 19 19 19 19-8.507 19-19S30.493 1 20 1z" fill="#c29653"></path><path d="M30.6 28.134c-5.123-9.136-10.247 1.974-15.6 2.342-1.651.113-3.683-.614-5.581-3.244" fill="none" stroke="#c29653" stroke-miterlimit="10"></path><path d="M27 21.5c-1.93 0-3.5-2.019-3.5-4.5s1.57-4.5 3.5-4.5 3.5 2.019 3.5 4.5-1.57 4.5-3.5 4.5z" fill="#fff"></path><path d="M27 13c1.654 0 3 1.794 3 4s-1.346 4-3 4-3-1.794-3-4 1.346-4 3-4m0-1c-2.209 0-4 2.239-4 5s1.791 5 4 5 4-2.239 4-5-1.791-5-4-5z" fill="#c29653"></path><ellipse cx="27" cy="17" rx="1.25" ry="2" fill="#36404d"/><g><path d="M13 21.5c-1.93 0-3.5-2.019-3.5-4.5s1.57-4.5 3.5-4.5 3.5 2.019 3.5 4.5-1.57 4.5-3.5 4.5z" fill="#fff"></path><path d="M13 13c1.654 0 3 1.794 3 4s-1.346 4-3 4-3-1.794-3-4 1.346-4 3-4m0-1c-2.209 0-4 2.239-4 5s1.791 5 4 5 4-2.239 4-5-1.791-5-4-5z" fill="#c29653"></path></g><ellipse cx="13" cy="17" rx="1.25" ry="2" fill="#36404d"/></svg>