<svg viewBox="0 0 40 40" xmlns="http://www.w3.org/2000/svg"><path d="M16.584 11.717l4.822-4.822A4.736 4.736 0 0124.774 5.5c1.272 0 2.469.496 3.369 1.395l1.334 1.335L36 1.707 38.293 4l-6.523 6.523 1.335 1.334a4.77 4.77 0 010 6.737l-4.822 4.822-11.699-11.699z" fill="#b0c1d4"></path><path d="M36 2.414L37.586 4 31.77 9.816l-.707.707.707.707.981.981a4.27 4.27 0 010 6.03l-4.468 4.468-10.992-10.992 4.468-4.468A4.234 4.234 0 0124.774 6c1.139 0 2.209.443 3.015 1.249l.981.981.707.707.707-.707L36 2.414M36 1l-6.523 6.523-.981-.981A5.247 5.247 0 0024.774 5a5.247 5.247 0 00-3.722 1.542l-5.175 5.175 12.406 12.406 5.175-5.175a5.265 5.265 0 000-7.444l-.981-.981L39 4l-3-3z" fill="#66798f"></path><path d="M12.485 13.701l2.067-2.067c.644-.644 1.468-1.013 2.261-1.013.562 0 1.044.187 1.397.539l10.63 10.63c.877.878.665 2.519-.475 3.658l-2.067 2.067-13.813-13.814z" fill="#b0c1d4"></path><path d="M16.813 11.121c.297 0 .72.068 1.044.392l10.63 10.63c.671.671.454 2.023-.475 2.951L26.3 26.807 13.193 13.701l1.713-1.713c.542-.543 1.256-.867 1.907-.867m0-1c-.887 0-1.852.397-2.615 1.16l-2.42 2.42L26.3 28.221l2.42-2.42c1.337-1.337 1.549-3.291.475-4.365l-10.63-10.63c-.462-.461-1.085-.685-1.752-.685z" fill="#66798f"></path><g><path d="M1.707 36l6.523-6.523-1.335-1.334a4.77 4.77 0 010-6.737l4.822-4.822 11.699 11.699-4.822 4.822a4.736 4.736 0 01-3.368 1.395 4.738 4.738 0 01-3.369-1.395l-1.334-1.335L4 38.293 1.707 36z" fill="#b0c1d4"></path><path d="M11.717 17.291l10.992 10.992-4.468 4.468c-.806.805-1.876 1.249-3.015 1.249s-2.209-.443-3.015-1.249l-.981-.981-.707-.707-.707.707L4 37.586 2.414 36l5.816-5.816.707-.707-.707-.707-.981-.981a4.268 4.268 0 010-6.029l4.468-4.469m0-1.414l-5.175 5.175a5.265 5.265 0 000 7.444l.981.981L1 36l3 3 6.523-6.523.981.981C12.532 34.486 13.879 35 15.226 35s2.694-.514 3.722-1.542l5.175-5.175-12.406-12.406z" fill="#66798f"></path></g><g><path d="M23.326 29.462a2.153 2.153 0 01-1.536-.622L11.16 18.21c-.877-.878-.818-2.365.133-3.316l1.725-1.725 13.814 13.813-1.725 1.725a2.543 2.543 0 01-1.781.755z" fill="#b0c1d4"></path><path d="M13.017 13.876l13.107 13.107-1.371 1.371a2.041 2.041 0 01-1.427.608c-.456 0-.876-.169-1.183-.476l-10.63-10.63c-.683-.683-.623-1.853.133-2.609l1.371-1.371m0-1.414l-2.078 2.078c-1.148 1.148-1.207 2.949-.133 4.024l10.63 10.63a2.649 2.649 0 001.89.768 3.03 3.03 0 002.134-.901l2.078-2.078-14.521-14.521z" fill="#66798f"></path></g></svg>