<svg viewBox="0 0 40 40" xmlns="http://www.w3.org/2000/svg"><path fill="none" stroke="#788b9c" stroke-miterlimit="10" d="M39 10.5H1"></path><circle cx="33.5" cy="10.5" r="3" fill="#bae0bd"></circle><path d="M33.5 8c1.378 0 2.5 1.122 2.5 2.5S34.878 13 33.5 13 31 11.878 31 10.5 32.122 8 33.5 8m0-1a3.5 3.5 0 100 7 3.5 3.5 0 000-7z" fill="#5e9c76"></path><circle cx="24.5" cy="10.5" r="3" fill="#bae0bd"></circle><path d="M24.5 8c1.378 0 2.5 1.122 2.5 2.5S25.878 13 24.5 13 22 11.878 22 10.5 23.122 8 24.5 8m0-1a3.5 3.5 0 100 7 3.5 3.5 0 000-7z" fill="#5e9c76"></path><g><circle cx="15.5" cy="10.5" r="3" fill="#bae0bd"></circle><path d="M15.5 8c1.378 0 2.5 1.122 2.5 2.5S16.878 13 15.5 13 13 11.878 13 10.5 14.122 8 15.5 8m0-1a3.5 3.5 0 100 7 3.5 3.5 0 000-7z" fill="#5e9c76"></path></g><g><circle cx="6.5" cy="10.5" r="3" fill="#bae0bd"></circle><path d="M6.5 8C7.878 8 9 9.122 9 10.5S7.878 13 6.5 13 4 11.878 4 10.5 5.122 8 6.5 8m0-1a3.5 3.5 0 100 7 3.5 3.5 0 000-7z" fill="#5e9c76"></path></g><g><path fill="none" stroke="#788b9c" stroke-miterlimit="10" d="M39 30.5H1"></path><circle cx="33.5" cy="30.5" r="3" fill="#bae0bd"></circle><path d="M33.5 28c1.378 0 2.5 1.122 2.5 2.5S34.878 33 33.5 33 31 31.878 31 30.5s1.122-2.5 2.5-2.5m0-1a3.5 3.5 0 100 7 3.5 3.5 0 000-7z" fill="#5e9c76"></path><circle cx="24.5" cy="30.5" r="3" fill="#bae0bd"></circle><path d="M24.5 28c1.378 0 2.5 1.122 2.5 2.5S25.878 33 24.5 33 22 31.878 22 30.5s1.122-2.5 2.5-2.5m0-1a3.5 3.5 0 100 7 3.5 3.5 0 000-7z" fill="#5e9c76"></path><g><circle cx="15.5" cy="30.5" r="3" fill="#bae0bd"></circle><path d="M15.5 28c1.378 0 2.5 1.122 2.5 2.5S16.878 33 15.5 33 13 31.878 13 30.5s1.122-2.5 2.5-2.5m0-1a3.5 3.5 0 100 7 3.5 3.5 0 000-7z" fill="#5e9c76"></path></g><g><circle cx="6.5" cy="30.5" r="3" fill="#bae0bd"></circle><path d="M6.5 28C7.878 28 9 29.122 9 30.5S7.878 33 6.5 33 4 31.878 4 30.5 5.122 28 6.5 28m0-1a3.5 3.5 0 100 7 3.5 3.5 0 000-7z" fill="#5e9c76"></path></g></g></svg>