<svg viewBox="0 0 40 40" xmlns="http://www.w3.org/2000/svg"><path d="M30.5 35.5v-.274a2 2 0 001-1.726c0-1.103-.897-2-2-2s-2 .897-2 2v2h-15v-2c0-1.103-.897-2-2-2s-2 .897-2 2a2 2 0 001 1.726v.274h-8v-31h37v31h-8z" fill="#c2e8ff"></path><path d="M38 5v30h-6.505c.32-.424.505-.947.505-1.5 0-1.379-1.121-2.5-2.5-2.5S27 32.121 27 33.5V35H13v-1.5c0-1.379-1.121-2.5-2.5-2.5S8 32.121 8 33.5c0 .553.185 1.076.505 1.5H2V5h36m1-1H1v32h9v-1.092A1.496 1.496 0 0110.5 32a1.5 1.5 0 011.5 1.5V36h16v-2.5a1.5 1.5 0 013 0c0 .652-.419 1.202-1 1.408V36h9V4z" fill="#7496c4"></path><circle cx="12" cy="15" r="4" fill="#4e7ab5"></circle><path d="M18 26H6a6 6 0 1112 0zM23 14h12v1H23zM23 18h12v1H23zM23 22h12v1H23z" fill="#4e7ab5"></path></svg>