<svg viewBox="0 0 40 40" xmlns="http://www.w3.org/2000/svg"><path d="M19.636 26.515c-9.845 0-10.637-2.583-10.642-2.61L9 16.917c1.943-.771 7.991-3.068 11-3.068 2.905 0 9.033 2.302 11 3.072v6.904c-.205.341-1.917 2.69-11.364 2.69z" fill="#b0c1d4"></path><path d="M20 14.849c2.309 0 7.223 1.693 10 2.755v5.851c-.131.128-.369.32-.78.54-1.297.694-4.012 1.521-9.584 1.521-7.398 0-9.284-1.494-9.636-1.865v-6.054c2.739-1.061 7.602-2.748 10-2.748m0-2c-3.842 0-12 3.393-12 3.393V24s.048 3.515 11.636 3.515S32 24 32 24v-7.758s-8.291-3.393-12-3.393z" fill="#66798f"></path><path d="M29.1 28.5c-1.875 0-3.4-1.525-3.4-3.4s1.525-3.4 3.4-3.4c2.447 0 3.4.589 3.4 2.1 0 2.052-1.649 4.7-3.4 4.7zm-18.2 0c-1.751 0-3.4-2.648-3.4-4.7 0-1.511.953-2.1 3.4-2.1 1.875 0 3.4 1.525 3.4 3.4s-1.526 3.4-3.4 3.4z" fill="#deb974"></path><path d="M29.1 22.2c2.678 0 2.9.757 2.9 1.6 0 1.756-1.461 4.2-2.9 4.2a2.903 2.903 0 01-2.9-2.9c0-1.599 1.301-2.9 2.9-2.9m-18.2 0c1.599 0 2.9 1.301 2.9 2.9S12.499 28 10.9 28C9.461 28 8 25.556 8 23.8c0-.843.222-1.6 2.9-1.6m18.2-1a3.9 3.9 0 100 7.8c2.154 0 3.9-3.046 3.9-5.2s-1.746-2.6-3.9-2.6zm-18.2 0c-2.154 0-3.9.446-3.9 2.6S8.746 29 10.9 29a3.9 3.9 0 100-7.8z" fill="#967a44"></path><path d="M20 38.5a3.484 3.484 0 01-2.665-1.259l-.098-.117-.146-.042C12.622 35.795 9.5 31.649 9.5 27V12.381a4.748 4.748 0 014.742-4.743h11.516a4.747 4.747 0 014.742 4.743V27c0 4.649-3.122 8.795-7.591 10.083l-.146.042-.098.117A3.487 3.487 0 0120 38.5z" fill="#f5ce85"></path><path d="M25.758 8.139A4.247 4.247 0 0130 12.381V27c0 4.427-2.973 8.376-7.229 9.602l-.292.084-.196.233C21.704 37.606 20.872 38 20 38s-1.704-.394-2.283-1.081l-.196-.233-.292-.084C12.973 35.376 10 31.427 10 27V12.381a4.247 4.247 0 014.242-4.242h11.516m0-1H14.242A5.242 5.242 0 009 12.381V27c0 5.017 3.362 9.24 7.952 10.563C17.686 38.434 18.772 39 20 39s2.314-.566 3.048-1.437C27.638 36.24 31 32.017 31 27V12.381a5.242 5.242 0 00-5.242-5.242z" fill="#967a44"></path><circle cx="25.5" cy="24.5" r="1.5" fill="#36404d"></circle><circle cx="14.5" cy="24.5" r="1.5" fill="#36404d"></circle><path d="M30.5 25.5V19c0-3.449-4.043-6.292-4.215-6.411l-.373-.259-.294.348c-.033.038-3.303 3.822-9.618 3.822-2.271 0-6.5 0-6.5 4.5v4.5h-.115c-.246-.986-.885-3.933-.885-7.912 0-7.073 3.413-10.659 10.143-10.659 5.895 0 7.688.695 7.705.703l.09.036.101.001c2.075 0 4.961 4.702 4.961 9.331 0 3.707-.668 7.332-.905 8.5H30.5z" fill="#a6714e"></path><path d="M18.643 7.429c5.727 0 7.504.661 7.507.661l.187.079h.203C28.008 8.169 31 12.257 31 17c0 .483-.012.964-.032 1.439-.391-3.444-4.227-6.142-4.398-6.261l-.747-.513-.587.689C25.109 12.503 22.061 16 16 16c-2.102 0-6.306 0-6.923 3.959A36.55 36.55 0 019 17.588c0-6.741 3.244-10.159 9.643-10.159m0-1C10.316 6.429 8 11.845 8 17.588 8 22.632 9 26 9 26h1v-5c0-3.677 2.963-4 6-4 6.647 0 10-4 10-4s4 2.774 4 6v7h1s1-4.404 1-9c0-4.908-3.077-9.831-5.461-9.831 0 0-1.752-.74-7.896-.74z" fill="#7a4f34"></path><path d="M31.5 22.41c-1.597-.253-6.236-.91-11.5-.91s-9.903.656-11.5.91v-5.077l-.357-.106A6.537 6.537 0 013.5 11c0-3.584 2.916-6.5 6.5-6.5 1.196 0 2.372.335 3.4.968l.478.294.238-.508C15.182 2.974 17.492 1.5 20 1.5s4.818 1.474 5.885 3.754l.238.508.477-.294A6.484 6.484 0 0130 4.5c3.584 0 6.5 2.916 6.5 6.5a6.537 6.537 0 01-4.643 6.227l-.357.106v5.077z" fill="#fff"></path><path d="M20 2a6.025 6.025 0 015.432 3.466l.475 1.016.955-.589A5.992 5.992 0 0130 5c3.308 0 6 2.692 6 6a6.034 6.034 0 01-4.285 5.748l-.715.213v4.865C29.03 21.53 24.82 21 20 21s-9.03.53-11 .825V16.96l-.715-.213A6.032 6.032 0 014 11c0-3.308 2.692-6 6-6 1.103 0 2.188.309 3.138.894l.955.589.475-1.016A6.024 6.024 0 0120 2m0-1a6.995 6.995 0 00-6.338 4.043A6.956 6.956 0 0010 4a7 7 0 00-2 13.706V23s5.478-1 12-1 12 1 12 1v-5.294A7 7 0 0030 4a6.956 6.956 0 00-3.662 1.043A6.995 6.995 0 0020 1z" fill="#788b9c"></path><path fill="none" stroke="#788b9c" stroke-miterlimit="10" d="M24.5 17v5M15.5 17v5M11.5 17v5M28.5 17v5"></path></svg>