<svg viewBox="0 0 40 40" xmlns="http://www.w3.org/2000/svg"><path fill="#66798f" d="M31 35h5v3h-5zM4 35h5v3H4z"></path><rect x="1.5" y="3.5" width="37" height="33" rx="2.5" ry="2.5" fill="#fff"/><path d="M36 4a2 2 0 012 2v28a2 2 0 01-2 2H4a2 2 0 01-2-2V6a2 2 0 012-2h32m0-1H4a3 3 0 00-3 3v28a3 3 0 003 3h32a3 3 0 003-3V6a3 3 0 00-3-3z" fill="#66798f"></path><path fill="#66798f" d="M25 2h10v2H25zM5 2h9v2H5z"></path><path fill="none" stroke="#66798f" stroke-miterlimit="10" d="M1 10.5h38"></path><path fill="#b0c1d4" d="M5.5 14.5h29v18h-29z"></path><path d="M34 15v17H6V15h28m1-1H5v19h30V14z" fill="#66798f"></path><circle cx="34" cy="7" r="1" fill="#c74343"></circle><circle cx="6" cy="7" r="1" fill="#b0c1d4"></circle><circle cx="10" cy="7" r="1" fill="#b0c1d4"></circle><circle cx="14" cy="7" r="1" fill="#b0c1d4"></circle><circle cx="18" cy="7" r="1" fill="#b0c1d4"></circle></svg>