<svg viewBox="0 0 40 40" xmlns="http://www.w3.org/2000/svg"><path fill="#b0c1d4" d="M1.5 19.5h37v4h-37z"></path><path d="M38 20v3H2v-3h36m1-1H1v5h38v-5z" fill="#66798f"></path><path fill="#b0c1d4" d="M16.5 1.5h7v7h-7z"></path><path d="M23 2v6h-6V2h6m1-1h-8v8h8V1z" fill="#66798f"></path><path fill="#b0c1d4" d="M1.5 19.5v-.24l15-10.54V8.5h7v.22l15 10.54v.24h-37z"></path><path d="M23 9l.39.28L37.26 19H2.74l13.84-9.72L17 9h6m1-1h-8v.46L1 19v1h38v-1L24 8.46V8z" fill="#66798f"></path><path fill="#b0c1d4" d="M17 1h6v3h-6z"></path><path d="M29.5 39c0-1.41 1-3.3 1-4.67s-1-3.23-1-4.67 1-3.27 1-4.67M24.5 39c0-1.41 1-3.3 1-4.67s-1-3.23-1-4.67 1-3.27 1-4.67M19.5 39c0-1.41 1-3.3 1-4.67s-1-3.23-1-4.67 1-3.27 1-4.67M14.5 39c0-1.41 1-3.3 1-4.67s-1-3.23-1-4.67 1-3.27 1-4.67M9.5 39c0-1.41 1-3.3 1-4.67s-1-3.23-1-4.67 1-3.27 1-4.67" fill="none" stroke="#f78f8f" stroke-miterlimit="10"></path></svg>