<svg viewBox="0 0 40 40" xmlns="http://www.w3.org/2000/svg"><path d="M16.79 1.5h6.43a1.29 1.29 0 011.28 1.29v3.85h0-9 0V2.79a1.29 1.29 0 011.29-1.29z" fill="none" stroke="#8b75a1" stroke-linecap="round" stroke-linejoin="round"></path><path d="M5.62 36.5a2.12 2.12 0 01-2.12-2.12V9.5h33v24.88a2.12 2.12 0 01-2.12 2.12z" fill="#dcd5f2"></path><path d="M36 10v24.38A1.62 1.62 0 0134.38 36H5.62A1.62 1.62 0 014 34.38V10h32m1-1H3v25.38A2.62 2.62 0 005.62 37h28.76A2.62 2.62 0 0037 34.38V9z" fill="#8b75a1"></path><path d="M1.54 9.5A3.51 3.51 0 015 6.5h.84L6 6.25A3.46 3.46 0 019 4.5h22a3.46 3.46 0 013 1.75l.14.25H35a3.51 3.51 0 013.46 3z" fill="#dcd5f2"></path><path d="M31 5a3 3 0 012.58 1.5l.29.5H35a3 3 0 012.83 2H2.17A3 3 0 015 7h1.13l.29-.5A3 3 0 019 5h22m0-1H9a4 4 0 00-3.45 2H5a4 4 0 00-4 4h38a4 4 0 00-4-4h-.55A4 4 0 0031 4z" fill="#8b75a1"></path><path fill="none" stroke="#8b75a1" stroke-linecap="round" stroke-linejoin="round" d="M39.5 14.5l-2.69 2.69M.5 14.5l2.69 2.69"></path></svg>