<svg viewBox="0 0 40 40" xmlns="http://www.w3.org/2000/svg"><path d="M4 37.5A2.503 2.503 0 011.5 35V4c0-1.378 1.121-2.5 2.5-2.5h31c1.379 0 2.5 1.122 2.5 2.5v31c0 1.378-1.121 2.5-2.5 2.5H4z" fill="#c2e8ff"></path><path d="M35 2c1.103 0 2 .897 2 2v31c0 1.103-.897 2-2 2H4c-1.103 0-2-.897-2-2V4c0-1.103.897-2 2-2h31m0-1H4a3 3 0 00-3 3v31a3 3 0 003 3h31a3 3 0 003-3V4a3 3 0 00-3-3z" fill="#4e7ab5"></path><g fill="none" stroke="#4e7ab5" stroke-miterlimit="10"><path d="M19.5 34V5M22.721 7.332L19.5 10.37l-3.221-3.038M16.279 31.668L19.5 28.63l3.221 3.038M32.813 26.75L6.187 12.25M9.939 10.785l1.179 4.15-4.4 1.112M29.061 28.215l-1.179-4.15 4.4-1.112M32.813 12.25L6.187 26.75M23.75 26.443l-8.5-13.886M28 19.5H11M23.75 12.557l-8.5 13.886M6.718 22.953l4.4 1.112-1.179 4.15M32.282 16.047l-4.4-1.112 1.179-4.15"></path></g></svg>