<svg viewBox="0 0 40 40" xmlns="http://www.w3.org/2000/svg"><path d="M20 38.5C9.799 38.5 1.5 30.201 1.5 20S9.799 1.5 20 1.5 38.5 9.799 38.5 20 30.201 38.5 20 38.5z" fill="#ffeea3"></path><path d="M20 2c9.925 0 18 8.075 18 18s-8.075 18-18 18S2 29.925 2 20 10.075 2 20 2m0-1C9.507 1 1 9.507 1 20s8.507 19 19 19 19-8.507 19-19S30.493 1 20 1z" fill="#c29653"></path><path d="M12 30.482h8.143c9 0 10.207-4 10.207-4" fill="none" stroke="#c29653" stroke-miterlimit="10"></path><g><path d="M27 23.5c-5.302 0-6.5-5.49-6.5-6.5h-1c0 1.01-1.198 6.5-6.5 6.5-5.342 0-7.5-4.587-7.5-6.5v-.5h-1v-1h31v1h-1v.5c0 1.913-2.158 6.5-7.5 6.5z" fill="#4e5e6d"></path><path d="M34 16v1c0 1.766-2.014 6-7 6-4.882 0-6-5.213-6-6h-2c0 .787-1.118 6-6 6-4.986 0-7-4.234-7-6v-1h28m2-1H4v2h1c0 2.111 2.271 7 8 7 5.637 0 7-5.835 7-7 0 1.165 1.363 7 7 7 5.729 0 8-4.889 8-7h1v-2z" fill="#36404d"></path></g></svg>