<svg viewBox="0 0 40 40" xmlns="http://www.w3.org/2000/svg"><path d="M5.993 32.5A2.495 2.495 0 013.5 30.007V5.992A2.495 2.495 0 015.993 3.5h24.015A2.495 2.495 0 0132.5 5.992v24.015a2.495 2.495 0 01-2.492 2.493H5.993z" fill="#8bb7f0"></path><path d="M30.008 4C31.106 4 32 4.894 32 5.992v24.015A1.995 1.995 0 0130.008 32H5.992A1.995 1.995 0 014 30.008V5.992C4 4.894 4.894 4 5.992 4h24.016m0-1H5.992A2.993 2.993 0 003 5.992v24.015A2.993 2.993 0 005.992 33h24.015A2.993 2.993 0 0033 30.008V5.992A2.993 2.993 0 0030.008 3z" fill="#4e7ab5"></path><path d="M10 36.5A2.503 2.503 0 017.5 34V10c0-1.378 1.121-2.5 2.5-2.5h24c1.379 0 2.5 1.122 2.5 2.5v24c0 1.378-1.121 2.5-2.5 2.5H10z" fill="#f2faff"></path><path d="M34 8c1.103 0 2 .897 2 2v24c0 1.103-.897 2-2 2H10c-1.103 0-2-.897-2-2V10c0-1.103.897-2 2-2h24m0-1H10a3 3 0 00-3 3v24a3 3 0 003 3h24a3 3 0 003-3V10a3 3 0 00-3-3z" fill="#4e7ab5"></path><path d="M27.918 13c.828 0 1.603.319 2.183.899.58.58.899 1.355.899 2.183 0 .828-.319 1.603-.899 2.183L27.266 21.1c-.581.581-1.356.9-2.184.9A3.066 3.066 0 0122 18.918c0-.828.319-1.603.899-2.183l2.835-2.835a3.065 3.065 0 012.184-.9m0-1a4.073 4.073 0 00-2.89 1.192l-2.835 2.835a4.098 4.098 0 000 5.78c.794.796 1.842 1.193 2.889 1.193s2.095-.397 2.89-1.192l2.835-2.835a4.098 4.098 0 000-5.78A4.068 4.068 0 0027.918 12z" fill="#4e7ab5"></path><g><path d="M18.918 22c.828 0 1.603.319 2.183.899.58.58.899 1.355.899 2.183 0 .828-.319 1.603-.899 2.183L18.266 30.1c-.581.581-1.356.9-2.184.9A3.066 3.066 0 0113 27.918c0-.828.319-1.603.899-2.183l2.835-2.835c.58-.581 1.356-.9 2.184-.9m0-1a4.073 4.073 0 00-2.89 1.192l-2.835 2.835a4.098 4.098 0 000 5.78A4.068 4.068 0 0016.082 32a4.073 4.073 0 002.89-1.192l2.835-2.835a4.098 4.098 0 000-5.78A4.068 4.068 0 0018.918 21z" fill="#4e7ab5"></path></g><path fill="#8bb7f0" stroke="#4e7ab5" stroke-linecap="round" stroke-linejoin="round" stroke-miterlimit="10" d="M18.5 25.5l7-7"></path></svg>