<svg viewBox="0 0 40 40" xmlns="http://www.w3.org/2000/svg"><path d="M20.017 18.465c0-.047.004-.092.004-.139 0-.069-.007-.134-.007-.203l.003.342z" fill="#f78f8f"></path><path d="M20.014 18.123v0zm0 .015l.003.327c0-.047.004-.092.004-.139 0-.064-.006-.125-.007-.188z" fill="#c74343"></path><path d="M10.545 38.5c.32-1.747 2.274-3 4.038-3 .619 0 1.271-.129 1.844-1.067.235-.402.461-.927.678-1.435.12-.281.236-.553.347-.782l.325-.68-.754-.036c-7.034-.328-10.904-2.689-12.549-7.658-.087-.264-.293-.509-.625-.799.381-.174.908-.31 1.552-.31.416 0 .98.06 1.582.298-.242.147-.455.324-.525.606a.784.784 0 00.123.635c1.821 2.796 5.999 4.218 12.418 4.227h.372l.107-.356a26.355 26.355 0 001.02-5.096l.046-.47-.466-.073c-5.142-.808-8.677-5.447-9.785-9.416a1.211 1.211 0 00-.291-.549c.65-.406 1.419-.821 1.945-.821.158 0 .295.033.413.161-.347.313-.681.738-.504 1.248.786 2.263 3.588 5.826 8.084 6.368l.548.066.012-.552c.003-.163 0-1.173 0-1.173 0-3.477.001-7.071-.906-9.024.726-.283 1.854-.45 2.691-.49.026.132.106.273.219.472l.08.14c-.198.387-.184.866-.056 1.23C23.708 13.536 24.5 18.694 24.5 23l.001.301c.002.236.004.504-.001.686l-.016.631.618-.129c4.858-1.014 7.683-4.523 8.394-10.43a1.407 1.407 0 00-.413-1.199l.033-.039c.297-.317 1.069-.644 1.849-.644.417 0 .742.099.915.278a.587.587 0 01.155.327c-.397.399-.535 1.012-.535 1.218 0 8.581-3.548 13.461-10.544 14.505h-.405l-.04.39c-.317 1.499-.988 3.061-1.58 4.438l-.254.593c-.118.406-.052.766.161 1.047.254.335.678.527 1.162.527 1.793 0 3.23 1.282 3.466 3H10.545z" fill="#f78f8f"></path><path d="M21.96 8.844l.068.124c-.155.476-.103.987.029 1.362C23.219 13.653 24 18.745 24 23l.001.305c.002.23.004.492-.001.669l-.033 1.263 1.237-.258c3.5-.731 7.867-3.208 8.788-10.859a1.876 1.876 0 00-.215-1.158 2.789 2.789 0 011.187-.284c.211 0 .365.033.459.07-.307.461-.423.993-.423 1.252 0 8.264-3.379 12.974-10.043 14l-.773.021-.163.771c-.307 1.453-.969 2.992-1.553 4.351l-.252.588-.025.059-.017.062a1.613 1.613 0 00.266 1.424c.349.46.918.724 1.56.724 1.33 0 2.432.824 2.835 2H11.232c.561-1.18 2.04-2 3.351-2 .685 0 1.562-.148 2.28-1.323.246-.421.477-.959.7-1.48.118-.275.231-.541.339-.765l.651-1.36-1.507-.07c-6.796-.317-10.527-2.573-12.097-7.315a1.652 1.652 0 00-.194-.396c.199-.035.416-.056.646-.056.188 0 .41.014.652.055-.033.07-.06.146-.081.228-.086.344-.019.709.189 1.029C8.081 27.492 12.4 28.991 18.999 29l.744.001.215-.712a26.787 26.787 0 001.038-5.192l.092-.939-.932-.146c-4.923-.774-8.313-5.237-9.38-9.056a2.179 2.179 0 00-.082-.244c.242-.138.488-.265.711-.355a1.316 1.316 0 00-.019.937c1.022 2.944 4.269 6.191 8.496 6.7l1.1.132.02-1.107c.003-.161.002-.478 0-.737L21 18v-.161c0-3.249 0-6.6-.743-8.715a10.09 10.09 0 011.703-.28m.697-1.03c-1.051 0-2.917.244-3.751.785.079.121.153.254.221.398.888 1.874.873 5.618.873 9.003 0 .228.005.774.001 1H20c-4.114-.496-6.858-3.696-7.671-6.035-.114-.33.322-.689.671-.965-.22-.563-.593-.781-1.053-.781-.812 0-1.894.678-2.88 1.332.602.258.669.402.744.673C11.062 17.703 14.951 22.206 20 23a25.892 25.892 0 01-1 5c-3.766-.005-9.732-.517-12-4-.289-.443.459-.576 1-1a4.725 4.725 0 00-2.599-.766c-1.021 0-1.923.321-2.401.766.553.424.913.737 1 1 2 6.042 7.058 7.723 13 8-.304.635-.659 1.589-1 2.172-.442.722-.887.828-1.417.828C12.343 35 10 36.761 10 39h18c0-2.239-1.761-4-4-4-.594 0-.997-.403-.863-.879.643-1.514 1.488-3.35 1.863-5.122h.002l.026.001h.002C33.125 27.792 36 21.75 36 14c0-.142.152-.758.547-.988.034-.971-.718-1.334-1.582-1.334-1.149 0-2.496.643-2.45 1.351.509.371.513.74.485.971-.793 6.585-4.208 9.208-8 10 .007-.271 0-.726 0-1 0-4.665-.872-9.776-2-13-.109-.313-.106-.75.148-1.002.062-.035-.415-.759-.367-.771 1.016-.267.69-.413-.124-.413z" fill="#c74343"></path><path d="M5.5 23.786a4.505 4.505 0 01-4.5-4.5 1.286 1.286 0 112.572 0c0 1.063.865 1.929 1.929 1.929s1.929-.865 1.929-1.929a1.286 1.286 0 112.57 0c0 2.481-2.019 4.5-4.5 4.5z" fill="#c74343"></path><g><path d="M10.5 12.786a4.505 4.505 0 01-4.5-4.5 1.286 1.286 0 112.572 0c0 1.063.865 1.929 1.929 1.929s1.929-.865 1.929-1.929a1.286 1.286 0 112.57 0c0 2.481-2.019 4.5-4.5 4.5z" fill="#c74343"></path></g><g><path d="M34.468 13.474a4.546 4.546 0 01-4.442-3.627 1.295 1.295 0 112.54-.514 1.946 1.946 0 001.903 1.552c1.071 0 1.942-.896 1.942-2.59a1.295 1.295 0 112.589 0c0 3.468-2.033 5.179-4.532 5.179z" fill="#c74343"></path></g><g><path d="M21.5 9.25a5.506 5.506 0 01-5.187-7.332 1.374 1.374 0 112.594.915A2.752 2.752 0 0021.5 6.499a2.753 2.753 0 002.75-2.75A1.375 1.375 0 1127 3.75c0 3.033-2.467 5.5-5.5 5.5z" fill="#c74343"></path></g></svg>