<svg viewBox="0 0 40 40" xmlns="http://www.w3.org/2000/svg"><path fill="none" stroke="#8b75a1" stroke-linejoin="round" d="M1.5 38.5l2.04-2.05-.68-3.4 5.46 1.36-1.36-5.46 5.45 1.37-1.37-5.46 5.46 1.37V23.5L24 16"></path><path d="M34.21 28.5a1 1 0 01-.69-.29L11.79 6.48a1 1 0 010-1.38l3.31-3.31a1 1 0 011.38 0l21.73 21.73a1 1 0 010 1.38l-3.31 3.31a1 1 0 01-.69.29z" fill="#dcd5f2"></path><path d="M15.79 2a.47.47 0 01.33.14l21.74 21.73a.47.47 0 010 .67l-3.32 3.32a.47.47 0 01-.67 0L12.14 6.13a.47.47 0 010-.67l3.32-3.32a.47.47 0 01.33-.14m0-1a1.47 1.47 0 00-1 .43l-3.36 3.32a1.47 1.47 0 000 2.08l21.74 21.74a1.47 1.47 0 002.08 0l3.32-3.32a1.47 1.47 0 000-2.08L16.83 1.43a1.47 1.47 0 00-1-.43z" fill="#8b75a1"></path><path fill="#f5ce85" d="M13.217 7.907l4.695-4.696 18.887 18.887-4.695 4.695z"></path><path d="M17.9 3.92L36.08 22.1l-4 4L13.92 7.9l4-4m0-1.41L12.5 7.9l19.6 19.6 5.4-5.4L17.9 2.5z" fill="#967a44"></path><path d="M22.1 22.5a1 1 0 01-.74-.31l-3.56-3.56a1 1 0 010-1.48l7.35-7.35a1 1 0 011.48 0l3.56 3.56a1 1 0 010 1.48l-7.35 7.35a1 1 0 01-.74.31z" fill="#dcd5f2"></path><path d="M25.9 10a.54.54 0 01.39.16l3.56 3.56a.55.55 0 010 .77l-7.35 7.35a.55.55 0 01-.77 0l-3.56-3.56a.55.55 0 010-.77l7.35-7.35a.54.54 0 01.38-.16m0-1a1.54 1.54 0 00-1.09.45l-7.36 7.35a1.55 1.55 0 000 2.19L21 22.55a1.55 1.55 0 002.19 0l7.35-7.35a1.55 1.55 0 000-2.19L27 9.45A1.54 1.54 0 0025.9 9z" fill="#8b75a1"></path></svg>