<svg viewBox="0 0 40 40" xmlns="http://www.w3.org/2000/svg"><path d="M26.87 11.42a2.57 2.57 0 01-2.17-1.56A2.81 2.81 0 0124.48 8a1.8 1.8 0 01.95-1.23 1.63 1.63 0 01.71-.16 2.57 2.57 0 012.17 1.56 2.81 2.81 0 01.21 1.83 1.8 1.8 0 01-.95 1.23 1.63 1.63 0 01-.7.19z" fill="#ffeea3"></path><path d="M26.13 7.09a2.06 2.06 0 011.72 1.27 1.83 1.83 0 01-.49 2.45 1.14 1.14 0 01-.49.11 2.06 2.06 0 01-1.72-1.27 1.83 1.83 0 01.49-2.45 1.14 1.14 0 01.49-.11m0-1a2.13 2.13 0 00-.92.21 2.78 2.78 0 00-1 3.78 3 3 0 002.62 1.84 2.13 2.13 0 00.92-.21 2.78 2.78 0 001-3.78 3 3 0 00-2.62-1.84z" fill="#ba9b48"></path><ellipse cx="27.5" cy="14" rx="2" ry="2.5" fill="#ffeea3"/><path d="M27.5 12c.81 0 1.5.92 1.5 2s-.69 2-1.5 2-1.5-.92-1.5-2 .69-2 1.5-2m0-1a2.78 2.78 0 00-2.5 3 2.78 2.78 0 002.5 3 2.78 2.78 0 002.5-3 2.78 2.78 0 00-2.5-3z" fill="#ba9b48"></path><ellipse cx="27.5" cy="19" rx="2" ry="2.5" fill="#ffeea3"/><path d="M27.5 17c.81 0 1.5.92 1.5 2s-.69 2-1.5 2-1.5-.92-1.5-2 .69-2 1.5-2m0-1a2.78 2.78 0 00-2.5 3 2.78 2.78 0 002.5 3 2.78 2.78 0 002.5-3 2.78 2.78 0 00-2.5-3z" fill="#ba9b48"></path><ellipse cx="27.5" cy="24" rx="2" ry="2.5" fill="#ffeea3"/><path d="M27.5 22c.81 0 1.5.92 1.5 2s-.69 2-1.5 2-1.5-.92-1.5-2 .69-2 1.5-2m0-1a2.78 2.78 0 00-2.5 3 2.78 2.78 0 002.5 3 2.78 2.78 0 002.5-3 2.78 2.78 0 00-2.5-3z" fill="#ba9b48"></path><ellipse cx="27.5" cy="29" rx="2" ry="2.5" fill="#ffeea3"/><path d="M27.5 27c.81 0 1.5.92 1.5 2s-.69 2-1.5 2-1.5-.92-1.5-2 .69-2 1.5-2m0-1a2.78 2.78 0 00-2.5 3 2.78 2.78 0 002.5 3 2.78 2.78 0 002.5-3 2.78 2.78 0 00-2.5-3z" fill="#ba9b48"></path><path d="M24.16 8.4A2.56 2.56 0 0122 6.91 2.81 2.81 0 0121.72 5a1.81 1.81 0 01.91-1.25 1.64 1.64 0 01.75-.18 2.56 2.56 0 012.17 1.49A2.81 2.81 0 0125.82 7a1.81 1.81 0 01-.91 1.25 1.64 1.64 0 01-.75.15z" fill="#ffeea3"></path><path d="M23.39 4.1a2.09 2.09 0 011.72 1.22 2.34 2.34 0 01.23 1.55 1.31 1.31 0 01-.65.92 1.14 1.14 0 01-.53.12 2.09 2.09 0 01-1.72-1.22 2.34 2.34 0 01-.23-1.55 1.31 1.31 0 01.65-.92 1.14 1.14 0 01.53-.12m0-1a2.14 2.14 0 00-1 .23 2.78 2.78 0 00-.86 3.81 3.06 3.06 0 002.63 1.76 2.14 2.14 0 001-.23A2.78 2.78 0 0026 4.86a3.06 3.06 0 00-2.61-1.76z" fill="#ba9b48"></path><path d="M13.13 11.42a1.63 1.63 0 01-.71-.16 1.8 1.8 0 01-.94-1.26 2.81 2.81 0 01.22-1.89 2.57 2.57 0 012.17-1.56 1.63 1.63 0 01.71.16A1.8 1.8 0 0115.52 8a2.81 2.81 0 01-.22 1.89 2.57 2.57 0 01-2.17 1.53z" fill="#ffeea3"></path><path d="M13.87 7.09a1.14 1.14 0 01.49.11 1.83 1.83 0 01.49 2.45 2.06 2.06 0 01-1.72 1.27 1.14 1.14 0 01-.49-.11 1.83 1.83 0 01-.49-2.45 2.06 2.06 0 011.72-1.27m0-1a3 3 0 00-2.62 1.84 2.78 2.78 0 001 3.78 2.13 2.13 0 00.92.21 3 3 0 002.62-1.84 2.78 2.78 0 00-1-3.78 2.13 2.13 0 00-.92-.21z" fill="#ba9b48"></path><path d="M15.84 8.4a1.64 1.64 0 01-.75-.18A1.8 1.8 0 0114.18 7a2.8 2.8 0 01.27-1.88 2.56 2.56 0 012.16-1.52 1.64 1.64 0 01.75.18A1.81 1.81 0 0118.28 5 2.81 2.81 0 0118 6.91a2.56 2.56 0 01-2.16 1.49z" fill="#ffeea3"></path><path d="M16.61 4.1a1.14 1.14 0 01.53.12 1.31 1.31 0 01.65.92 2.34 2.34 0 01-.23 1.55 2.09 2.09 0 01-1.72 1.21 1.14 1.14 0 01-.53-.12 1.83 1.83 0 01-.42-2.46 2.09 2.09 0 011.72-1.22m0-1A3.06 3.06 0 0014 4.86a2.78 2.78 0 00.86 3.81 2.14 2.14 0 001 .23 3.06 3.06 0 002.61-1.76 2.78 2.78 0 00-.86-3.81 2.14 2.14 0 00-1-.23z" fill="#ba9b48"></path><circle cx="24" cy="11" r="2.5" fill="#ffeea3"></circle><path d="M24 9a2 2 0 11-2 2 2 2 0 012-2m0-1a3 3 0 103 3 3 3 0 00-3-3z" fill="#ba9b48"></path><circle cx="24" cy="16" r="2.5" fill="#ffeea3"></circle><path d="M24 14a2 2 0 11-2 2 2 2 0 012-2m0-1a3 3 0 103 3 3 3 0 00-3-3z" fill="#ba9b48"></path><circle cx="24" cy="21" r="2.5" fill="#ffeea3"></circle><path d="M24 19a2 2 0 11-2 2 2 2 0 012-2m0-1a3 3 0 103 3 3 3 0 00-3-3z" fill="#ba9b48"></path><circle cx="24" cy="26" r="2.5" fill="#ffeea3"></circle><path d="M24 24a2 2 0 11-2 2 2 2 0 012-2m0-1a3 3 0 103 3 3 3 0 00-3-3z" fill="#ba9b48"></path><circle cx="24" cy="31" r="2.5" fill="#ffeea3"></circle><path d="M24 29a2 2 0 11-2 2 2 2 0 012-2m0-1a3 3 0 103 3 3 3 0 00-3-3z" fill="#ba9b48"></path><ellipse cx="12.5" cy="14" rx="2" ry="2.5" fill="#ffeea3"/><path d="M12.5 12c.81 0 1.5.92 1.5 2s-.69 2-1.5 2-1.5-.92-1.5-2 .69-2 1.5-2m0-1a2.78 2.78 0 00-2.5 3 2.78 2.78 0 002.5 3 2.78 2.78 0 002.5-3 2.78 2.78 0 00-2.5-3z" fill="#ba9b48"></path><ellipse cx="12.5" cy="19" rx="2" ry="2.5" fill="#ffeea3"/><path d="M12.5 17c.81 0 1.5.92 1.5 2s-.69 2-1.5 2-1.5-.92-1.5-2 .69-2 1.5-2m0-1a2.78 2.78 0 00-2.5 3 2.78 2.78 0 002.5 3 2.78 2.78 0 002.5-3 2.78 2.78 0 00-2.5-3z" fill="#ba9b48"></path><ellipse cx="12.5" cy="24" rx="2" ry="2.5" fill="#ffeea3"/><path d="M12.5 22c.81 0 1.5.92 1.5 2s-.69 2-1.5 2-1.5-.92-1.5-2 .69-2 1.5-2m0-1a2.78 2.78 0 00-2.5 3 2.78 2.78 0 002.5 3 2.78 2.78 0 002.5-3 2.78 2.78 0 00-2.5-3z" fill="#ba9b48"></path><ellipse cx="12.5" cy="29" rx="2" ry="2.5" fill="#ffeea3"/><path d="M12.5 27c.81 0 1.5.92 1.5 2s-.69 2-1.5 2-1.5-.92-1.5-2 .69-2 1.5-2m0-1a2.78 2.78 0 00-2.5 3 2.78 2.78 0 002.5 3 2.78 2.78 0 002.5-3 2.78 2.78 0 00-2.5-3z" fill="#ba9b48"></path><circle cx="16" cy="11" r="2.5" fill="#ffeea3"></circle><path d="M16 9a2 2 0 11-2 2 2 2 0 012-2m0-1a3 3 0 103 3 3 3 0 00-3-3z" fill="#ba9b48"></path><circle cx="16" cy="16" r="2.5" fill="#ffeea3"></circle><path d="M16 14a2 2 0 11-2 2 2 2 0 012-2m0-1a3 3 0 103 3 3 3 0 00-3-3z" fill="#ba9b48"></path><circle cx="16" cy="21" r="2.5" fill="#ffeea3"></circle><path d="M16 19a2 2 0 11-2 2 2 2 0 012-2m0-1a3 3 0 103 3 3 3 0 00-3-3z" fill="#ba9b48"></path><circle cx="16" cy="26" r="2.5" fill="#ffeea3"></circle><path d="M16 24a2 2 0 11-2 2 2 2 0 012-2m0-1a3 3 0 103 3 3 3 0 00-3-3z" fill="#ba9b48"></path><circle cx="16" cy="31" r="2.5" fill="#ffeea3"></circle><path d="M16 29a2 2 0 11-2 2 2 2 0 012-2m0-1a3 3 0 103 3 3 3 0 00-3-3z" fill="#ba9b48"></path><circle cx="20" cy="4" r="2.5" fill="#ffeea3"></circle><path d="M20 2a2 2 0 11-2 2 2 2 0 012-2m0-1a3 3 0 103 3 3 3 0 00-3-3z" fill="#ba9b48"></path><circle cx="20" cy="9" r="2.5" fill="#ffeea3"></circle><path d="M20 7a2 2 0 11-2 2 2 2 0 012-2m0-1a3 3 0 103 3 3 3 0 00-3-3z" fill="#ba9b48"></path><circle cx="20" cy="14" r="2.5" fill="#ffeea3"></circle><path d="M20 12a2 2 0 11-2 2 2 2 0 012-2m0-1a3 3 0 103 3 3 3 0 00-3-3z" fill="#ba9b48"></path><circle cx="20" cy="19" r="2.5" fill="#ffeea3"></circle><path d="M20 17a2 2 0 11-2 2 2 2 0 012-2m0-1a3 3 0 103 3 3 3 0 00-3-3z" fill="#ba9b48"></path><circle cx="20" cy="24" r="2.5" fill="#ffeea3"></circle><path d="M20 22a2 2 0 11-2 2 2 2 0 012-2m0-1a3 3 0 103 3 3 3 0 00-3-3z" fill="#ba9b48"></path><circle cx="20" cy="29" r="2.5" fill="#ffeea3"></circle><path d="M20 27a2 2 0 11-2 2 2 2 0 012-2m0-1a3 3 0 103 3 3 3 0 00-3-3z" fill="#ba9b48"></path><circle cx="20" cy="34" r="2.5" fill="#ffeea3"></circle><path d="M20 32a2 2 0 11-2 2 2 2 0 012-2m0-1a3 3 0 103 3 3 3 0 00-3-3z" fill="#ba9b48"></path><path d="M19.5 38.49c-7.32-.25-8.52-6.1-9.9-12.85-.86-4.21-1.74-8.54-4.23-11.81 4.4 1.75 13.9 10.51 14.13 24.66z" fill="#bae0bd"></path><path d="M6.84 15.16C11.36 18 18.58 26.12 19 38c-6.46-.49-7.54-5.8-8.89-12.42-.74-3.6-1.49-7.3-3.25-10.38M4 13c7.88 8.09 2.3 26 16 26C20 22.83 7.76 13 4 13z" fill="#5e9c76"></path><path d="M20.5 38.49c.21-14 9.16-18.15 13.25-18.87-2.6 3.12-3.32 6.68-4 9.86-1.01 5.13-1.75 8.86-9.25 9.01z" fill="#bae0bd"></path><path d="M32.52 20.43c-2 2.92-2.64 6.09-3.23 9-1 4.94-1.69 8.29-8.28 8.59.37-12 7.29-16.3 11.5-17.55M35 19c-3.82 0-15 4-15 20 14 0 7-12 15-20z" fill="#5e9c76"></path></svg>