<svg viewBox="0 0 40 40" xmlns="http://www.w3.org/2000/svg"><path fill="#ffeea3" d="M20 14.87L1.5 24.12v-4.311l18.5-9.25 18.5 9.25v4.311z"></path><path d="M20 11.118l18 9v3.192l-17.553-8.776L20 14.31l-.447.224L2 23.31v-3.192l18-9M20 10L1 19.5v5.429l19-9.5 19 9.5V19.5L20 10z" fill="#ba9b48"></path><g><path fill="#ffeea3" d="M20 18.941l-18.5 9.25V23.88L20 14.63l18.5 9.25v4.311z"></path><path d="M20 15.189l18 9v3.193l-17.553-8.776-.447-.224-.447.224L2 27.382v-3.193l18-9m0-1.118l-19 9.5V29l19-9.5L39 29v-5.429l-19-9.5z" fill="#ba9b48"></path></g></svg>