<svg viewBox="0 0 40 40" xmlns="http://www.w3.org/2000/svg"><path fill="none" stroke="#788b9c" stroke-linecap="round" stroke-linejoin="round" stroke-miterlimit="10" d="M1.5 38.5l19.091-19.091"></path><path d="M19 33.5a6.483 6.483 0 01-3.249-.877l-.251-.145-.251.146A6.492 6.492 0 0112 33.5 6.508 6.508 0 015.5 27c0-1.865.809-3.645 2.22-4.883l.409-.359-.394-.378A3.958 3.958 0 016.5 18.5a3.984 3.984 0 012.753-3.78l.396-.13-.058-.413A8.478 8.478 0 019.5 13c0-4.687 3.813-8.5 8.5-8.5.458 0 .933.043 1.452.133l.373.064.163-.342A5.026 5.026 0 0124.5 1.5c1.16 0 2.291.406 3.184 1.144l.293.242.312-.217A6.45 6.45 0 0132 1.5c3.584 0 6.5 2.916 6.5 6.5a6.456 6.456 0 01-1.169 3.712l-.218.312.242.292A5.006 5.006 0 0138.5 15.5a4.965 4.965 0 01-2.822 4.495l-.346.168.073.377c.062.322.095.646.095.96 0 2.757-2.243 5-5 5l-.49-.019-.141.296a6.536 6.536 0 01-5.15 3.681l-.228.025-.13.188A6.5 6.5 0 0119 33.5z" fill="#f78f8f"></path><path d="M32 2c3.308 0 6 2.692 6 6 0 1.23-.373 2.415-1.079 3.426l-.435.623.484.586A4.508 4.508 0 0138 15.5a4.469 4.469 0 01-2.54 4.045l-.692.336.147.755c.056.29.085.581.085.864 0 2.48-2.016 4.498-4.53 4.498h-.004l-.113-.006-.655-.021-.281.592a6.033 6.033 0 01-4.754 3.398l-.456.05-.259.378A6 6 0 0119 33a5.997 5.997 0 01-2.999-.809L15.5 31.9l-.501.29c-.914.53-1.951.81-2.999.81-3.308 0-6-2.692-6-6a6 6 0 012.05-4.507l.819-.719-.787-.754A3.467 3.467 0 017 18.5c0-1.501.968-2.829 2.41-3.305l.792-.261-.115-.826A7.976 7.976 0 0110 13c0-4.411 3.589-8 8-8 .428 0 .876.041 1.367.126l.747.129.326-.684A4.523 4.523 0 0124.5 2c1.044 0 2.061.366 2.865 1.03l.586.484.623-.435A5.957 5.957 0 0132 2m0-1a6.963 6.963 0 00-3.998 1.259 5.495 5.495 0 00-8.465 1.882A8.946 8.946 0 0018 4a9 9 0 00-9 9c0 .424.039.837.096 1.246C7.303 14.838 6 16.508 6 18.5a4.48 4.48 0 001.39 3.241A6.979 6.979 0 005 27a7 7 0 007 7c1.276 0 2.47-.347 3.5-.944A6.958 6.958 0 0019 34a6.991 6.991 0 005.774-3.045 6.997 6.997 0 005.548-3.964c.059.002.118.009.178.009a5.5 5.5 0 005.396-6.555 5.495 5.495 0 001.845-8.447A6.955 6.955 0 0039 8a7 7 0 00-7-7z" fill="#c74343"></path><path d="M28.829 28.351a6.5 6.5 0 00-.478-9.18M29.299 7.905a5 5 0 00-3.394-6.203M19.5 17.5a4 4 0 004-4" fill="none" stroke="#c74343" stroke-miterlimit="10"></path></svg>