<svg viewBox="0 0 40 40" xmlns="http://www.w3.org/2000/svg"><path d="M33.5 35.5v-5h-27v5h-2V28c0-.827.673-1.5 1.5-1.5h28c.827 0 1.5.673 1.5 1.5v7.5h-2z" fill="#bae0bd"></path><path d="M34 27c.551 0 1 .449 1 1v7h-1v-5H6v5H5v-7c0-.551.449-1 1-1h28m0-1H6a2 2 0 00-2 2v8h3v-5h26v5h3v-8a2 2 0 00-2-2z" fill="#5e9c76"></path><path d="M30.036 26h-8.052l-.828 2h-3.31l-.828-2H8.964a3.96 3.96 0 00.25 2.07L10.428 31h18.144l1.214-2.93a3.96 3.96 0 00.25-2.07z" fill="#bae0bd"></path><path fill="#4e7ab5" d="M25 22H14v6l5.5-.994L25 28z"></path><path d="M22.993 35.5a1.502 1.502 0 01-1.38-2.073l3.091-7.461a1.497 1.497 0 011.96-.811 1.502 1.502 0 01.812 1.959l-3.091 7.461a1.5 1.5 0 01-1.392.925z" fill="#8bb7f0"></path><path d="M26.095 25.54a1.002 1.002 0 01.918 1.382l-3.091 7.461a.998.998 0 11-1.846-.765l3.091-7.461a.998.998 0 01.928-.617m0-1c-.786 0-1.535.466-1.853 1.234l-3.091 7.461a2.006 2.006 0 001.082 2.613 2.007 2.007 0 002.614-1.082l3.091-7.461a2.006 2.006 0 00-1.082-2.613 1.987 1.987 0 00-.761-.152z" fill="#4e7ab5"></path><path d="M16.007 35.5a1.5 1.5 0 01-1.392-.925l-3.091-7.461a1.501 1.501 0 012.772-1.148l3.091 7.461a1.502 1.502 0 01-1.38 2.073z" fill="#8bb7f0"></path><path d="M12.905 25.54a1 1 0 01.929.617l3.091 7.461A1.002 1.002 0 0116.006 35a1 1 0 01-.929-.617l-3.091-7.461a1.002 1.002 0 01.919-1.382m0-1c-.254 0-.512.049-.76.151a2.006 2.006 0 00-1.082 2.613l3.091 7.461a2.005 2.005 0 002.612 1.084 2.006 2.006 0 001.082-2.613l-3.091-7.461a2.005 2.005 0 00-1.852-1.235z" fill="#4e7ab5"></path><path d="M21.014 26.499c-.437 0-.852-.187-1.139-.513l-.375-.426-.375.426a1.517 1.517 0 01-1.787.365l-4.938-2.43c-.563-.275-.9-.821-.9-1.392 0-.155.019-.289.057-.409l2.317-6.102A5.462 5.462 0 0119 12.5h1c2.287 0 4.3 1.381 5.126 3.52l.094.242.005.001 2.107 5.574.12.308a1.533 1.533 0 01-.791 1.745l-5.002 2.461a1.463 1.463 0 01-.645.148z" fill="#8bb7f0"></path><path d="M20 13a4.967 4.967 0 014.66 3.2l.134.336 2.087 5.517.013.028.078.209a1.03 1.03 0 01-.54 1.156l-.054.027-4.934 2.427a.97.97 0 01-.429.099c-.289 0-.574-.129-.764-.344l-.75-.851-.75.851a1.017 1.017 0 01-1.188.248l-4.934-2.427-.071-.035a1.025 1.025 0 01-.53-1.153l.061-.165.046-.11 2.005-5.302h.002l.198-.512A4.967 4.967 0 0119 13h1m0-1h-1a5.995 5.995 0 00-5.592 3.839l-.007.001-2.201 5.82-.03.07-.09.24a2.025 2.025 0 001.04 2.37l.06.03 4.94 2.43c.279.135.574.199.866.199a2.02 2.02 0 001.514-.683c.385.436.942.683 1.514.683.292 0 .587-.064.866-.199l4.94-2.43.06-.03a2.025 2.025 0 001.04-2.37l-.09-.24-.03-.07-2.201-5.82h-.007A5.995 5.995 0 0020 12z" fill="#4e7ab5"></path><path d="M25.245 16.317l2.087 5.52.12.308a1.533 1.533 0 01-.791 1.745l-5.002 2.461a1.508 1.508 0 01-2.008-.689 1.43 1.43 0 01-.15-.652c0-.575.33-1.109.841-1.361l3.781-1.869-1.505-4.156" fill="none" stroke="#4e7ab5" stroke-linecap="round" stroke-miterlimit="10"></path><path d="M16.393 17.595l-1.515 4.185 3.78 1.869c.512.251.842.786.842 1.361 0 .234-.05.451-.146.645-.25.516-.782.845-1.359.845h0c-.229 0-.449-.051-.656-.15L12.4 23.921c-.563-.275-.9-.821-.9-1.392 0-.155.019-.289.057-.409l2.215-5.847" fill="none" stroke="#4e7ab5" stroke-linecap="round" stroke-miterlimit="10"></path><g><circle cx="19.5" cy="7.5" r="4" fill="#ffeea3"></circle><path d="M19.5 4C21.43 4 23 5.57 23 7.5S21.43 11 19.5 11 16 9.43 16 7.5 17.57 4 19.5 4m0-1a4.5 4.5 0 100 9 4.5 4.5 0 000-9z" fill="#ba9b48"></path></g></svg>