<svg viewBox="0 0 40 40" xmlns="http://www.w3.org/2000/svg"><path fill="#dbf2ff" d="M2.5 38.5V10.266l17.497-6.73 17.503 6.73V38.5z"></path><path d="M19.997 4.071L37 10.61V38H3V10.61l16.997-6.539m0-1.071L2 9.923V39h36V9.923L19.997 3z" fill="#7496c4"></path><path fill="#dbf2ff" d="M19.997 5.458L1.5 13.247V9.332l18.497-7.79L38.5 9.332v3.915z"></path><path d="M19.997 2.085L38 9.664v2.83L20.385 5.078l-.388-.163-.388.163L2 12.494v-2.83l17.997-7.579m0-1.085L1 9v5l18.997-8L39 14V9L19.997 1z" fill="#7496c4"></path><path fill="none" stroke="#788b9c" stroke-linecap="round" stroke-linejoin="round" stroke-miterlimit="10" d="M33 28.5l-4-12-4 12"></path><path d="M29 31.5c-2.051 0-3.869-1.205-4.633-3h9.266c-.764 1.795-2.582 3-4.633 3z" fill="#8bb7f0"></path><path d="M32.797 29c-.813 1.221-2.229 2-3.797 2s-2.984-.779-3.797-2h7.594m1.536-1H23.667c.617 2.296 2.76 4 5.333 4s4.717-1.704 5.333-4z" fill="#4e7ab5"></path><path fill="none" stroke="#788b9c" stroke-linecap="round" stroke-linejoin="round" stroke-miterlimit="10" d="M15 28.5l-4-12-4 12"></path><g><path d="M11 31.5c-2.051 0-3.869-1.205-4.633-3h9.266c-.764 1.795-2.582 3-4.633 3z" fill="#8bb7f0"></path><path d="M14.797 29c-.813 1.221-2.229 2-3.797 2s-2.984-.779-3.797-2h7.594m1.536-1H5.667c.617 2.296 2.76 4 5.333 4s4.717-1.704 5.333-4z" fill="#4e7ab5"></path></g><g><path fill="none" stroke="#4e7ab5" stroke-linecap="round" stroke-linejoin="round" stroke-miterlimit="10" d="M10 16.5h20"></path></g><g><path d="M20 17.5c-.827 0-1.5-.673-1.5-1.5 0-.525.792-1.554 1.5-2.294.708.741 1.5 1.77 1.5 2.294 0 .827-.673 1.5-1.5 1.5z" fill="#8bb7f0"></path><path d="M20.001 14.448c.557.643.986 1.291.999 1.552a1.001 1.001 0 01-2 .002c.013-.261.443-.909 1.001-1.554M20 13s-2 1.895-2 3 .895 2 2 2 2-.895 2-2-2-3-2-3z" fill="#4e7ab5"></path></g></svg>