<svg viewBox="0 0 40 40" xmlns="http://www.w3.org/2000/svg"><path d="M23.315 18.643h-6.63s-6.63 2.056-6.63 14.336h19.889c0-12.237-6.629-14.336-6.629-14.336z" fill="#66798f"></path><path d="M4.509 38.5c.34-9.302 10.137-10.99 10.238-11.006l10.586.006c.331.062 9.827 1.75 10.158 11H4.509z" fill="#b0c1d4"></path><path d="M25.247 28c.945.173 9.092 1.901 9.716 10H5.038c.624-8.106 8.787-9.83 9.715-10h10.494m.086-1H14.667S4 28.721 4 39h32c0-10.243-10.667-12-10.667-12z" fill="#66798f"></path><path d="M20 30.411c-3.281 0-4.701-1.917-5-2.387v-4.863h10v4.863c-.297.467-1.716 2.387-5 2.387z" fill="#e8d47b"></path><path d="M24.5 23.661v4.212c-.376.531-1.69 2.038-4.5 2.038-2.803 0-4.122-1.507-4.5-2.039v-4.211h9m1-1h-11v5.5s1.467 2.75 5.5 2.75 5.5-2.75 5.5-2.75v-5.5z" fill="#ba9b48"></path><path fill="#d8e0eb" d="M23 38h-6l1-5h4z"></path><path fill="#fff" d="M23 34.992h-6l1-5.395h4z"></path><g><path d="M20 27.5a2.487 2.487 0 01-1.688-.668l-.084-.078-.11-.033A6.46 6.46 0 0113.5 20.5v-8.136a2.839 2.839 0 012.836-2.836h7.328a2.84 2.84 0 012.836 2.836V20.5a6.46 6.46 0 01-4.618 6.221l-.11.033-.084.078A2.487 2.487 0 0120 27.5z" fill="#ffeea3"></path><path d="M23.664 10.028A2.339 2.339 0 0126 12.364V20.5a6.038 6.038 0 01-4.263 5.742l-.22.066-.169.156c-.374.346-.853.536-1.348.536s-.974-.19-1.349-.536l-.169-.156-.22-.066A6.038 6.038 0 0114 20.5v-8.136a2.339 2.339 0 012.336-2.336h7.328m0-1h-7.328A3.337 3.337 0 0013 12.364V20.5a7 7 0 004.973 6.699c.535.493 1.243.801 2.027.801s1.492-.308 2.027-.801A7 7 0 0027 20.5v-8.136a3.336 3.336 0 00-3.336-3.336z" fill="#ba9b48"></path></g><g><path d="M29 32.5a4.505 4.505 0 01-4.5-4.5c0-1.182.459-2.301 1.292-3.15l.344-.35-.344-.35c-.833-.849-1.292-1.968-1.292-3.15s.459-2.301 1.292-3.15l.344-.35-.344-.35A4.476 4.476 0 0124.5 14c0-.367.06-.752.187-1.211l.122-.438-.424-.163a4.476 4.476 0 01-2.184-1.796l-.219-.347-.383.147c-.532.204-1.071.308-1.599.308s-1.067-.104-1.601-.308l-.383-.147-.219.347a4.46 4.46 0 01-2.184 1.796l-.424.163.122.438c.129.459.189.844.189 1.211a4.476 4.476 0 01-1.292 3.15l-.344.35.344.35c.833.849 1.292 1.968 1.292 3.15s-.459 2.301-1.292 3.15l-.344.35.344.35A4.476 4.476 0 0115.5 28c0 2.481-2.019 4.5-4.5 4.5S6.5 30.481 6.5 28c0-1.182.459-2.301 1.292-3.15l.344-.35-.344-.35C6.959 23.301 6.5 22.182 6.5 21s.459-2.301 1.292-3.15l.344-.35-.344-.35A4.476 4.476 0 016.5 14a4.465 4.465 0 012.886-4.188l.424-.163-.123-.438A4.49 4.49 0 019.5 8c0-2.481 2.019-4.5 4.5-4.5.528 0 1.067.104 1.601.308l.383.147.219-.347a4.472 4.472 0 017.595 0l.219.347.383-.147A4.474 4.474 0 0126 3.5c2.481 0 4.5 2.019 4.5 4.5 0 .367-.06.752-.188 1.211l-.122.438.424.163A4.465 4.465 0 0133.5 14a4.476 4.476 0 01-1.292 3.15l-.344.35.344.35c.833.849 1.292 1.968 1.292 3.15s-.459 2.301-1.292 3.15l-.344.35.344.35A4.476 4.476 0 0133.5 28c0 2.481-2.019 4.5-4.5 4.5z" fill="#fff"></path><path d="M20 2a3.98 3.98 0 013.375 1.875l.437.693.765-.293A4 4 0 0126 4c2.206 0 4 1.794 4 4 0 .322-.054.664-.169 1.075l-.246.876.849.327A3.97 3.97 0 0133 14a3.972 3.972 0 01-1.149 2.799l-.688.701.688.701C32.592 18.955 33 19.949 33 21s-.408 2.045-1.149 2.799l-.688.701.688.701A3.972 3.972 0 0133 28c0 2.206-1.794 4-4 4s-4-1.794-4-4c0-1.051.408-2.045 1.149-2.799l.688-.701-.688-.701C25.408 23.045 25 22.051 25 21s.408-2.045 1.149-2.799l.688-.701-.688-.701A3.972 3.972 0 0125 14c0-.322.054-.664.169-1.075l.246-.876-.849-.327a3.965 3.965 0 01-1.941-1.597l-.437-.693-.765.293A4 4 0 0120 10a3.99 3.99 0 01-1.422-.275l-.765-.293-.437.693a3.976 3.976 0 01-1.941 1.597l-.849.327.246.876c.114.411.168.753.168 1.075a3.972 3.972 0 01-1.149 2.799l-.688.701.688.701C14.592 18.955 15 19.949 15 21s-.408 2.045-1.149 2.799l-.688.701.688.701A3.972 3.972 0 0115 28c0 2.206-1.794 4-4 4s-4-1.794-4-4c0-1.051.408-2.045 1.149-2.799l.688-.701-.688-.701C7.408 23.045 7 22.051 7 21s.408-2.045 1.149-2.799l.688-.701-.688-.701A3.972 3.972 0 017 14a3.97 3.97 0 012.566-3.722l.849-.327-.246-.876A3.954 3.954 0 0110 8c0-2.206 1.794-4 4-4 .466 0 .945.093 1.422.275l.765.293.437-.693A3.982 3.982 0 0120 2m0-1a4.985 4.985 0 00-4.22 2.341A4.97 4.97 0 0014 3a5 5 0 00-5 5c0 .469.086.915.206 1.346A4.99 4.99 0 006 14c0 1.364.549 2.598 1.435 3.5C6.549 18.402 6 19.636 6 21s.549 2.598 1.435 3.5A4.979 4.979 0 006 28a5 5 0 0010 0 4.979 4.979 0 00-1.435-3.5C15.451 23.598 16 22.364 16 21s-.549-2.598-1.435-3.5A4.979 4.979 0 0016 14c0-.469-.086-.915-.206-1.346a4.997 4.997 0 002.427-1.996c.554.213 1.15.342 1.779.342s1.225-.129 1.78-.341a4.998 4.998 0 002.427 1.996A4.94 4.94 0 0024 14c0 1.364.549 2.598 1.435 3.5C24.549 18.402 24 19.636 24 21s.549 2.598 1.435 3.5A4.979 4.979 0 0024 28a5 5 0 0010 0 4.979 4.979 0 00-1.435-3.5C33.451 23.598 34 22.364 34 21s-.549-2.598-1.435-3.5A4.979 4.979 0 0034 14a4.99 4.99 0 00-3.206-4.654C30.914 8.915 31 8.469 31 8a5 5 0 00-5-5 4.97 4.97 0 00-1.78.341A4.985 4.985 0 0020 1z" fill="#788b9c"></path></g></svg>