<svg viewBox="0 0 40 40" xmlns="http://www.w3.org/2000/svg"><path fill="#8bb7f0" d="M6.5 37.5v-35h18.293l8.707 8.707V37.5z"></path><path d="M24.586 3L33 11.414V37H7V3h17.586M25 2H6v36h28V11l-9-9z" fill="#4e7ab5"></path><path fill="#fff" d="M24.5 11.5v-9h.293l8.707 8.707v.293z"></path><path d="M25 3.414L32.586 11H25V3.414M25 2h-1v10h10v-1l-9-9z" fill="#4e7ab5"></path><path d="M16.074 26.409c-.247.117-.728.208-1.313.208-2.249 0-3.315-1.833-3.315-4.329 0-3.302 1.833-4.589 3.536-4.589.598 0 1.014.117 1.183.234l-.286 1.43a1.714 1.714 0 00-.793-.169c-.962 0-1.833.832-1.833 3.003 0 2.093.793 2.912 1.833 2.912.286 0 .611-.065.819-.13l.169 1.43zM17.335 17.906a10.176 10.176 0 011.859-.169c.936 0 1.781.143 2.34.65.533.481.702 1.066.702 1.82 0 .936-.468 1.781-1.352 2.184v.026c.598.247.897.793 1.066 1.742.169.975.403 2.054.559 2.379h-1.781c-.117-.247-.312-1.131-.442-2.106-.156-1.079-.429-1.391-.988-1.391h-.26v3.497h-1.703v-8.632zm1.703 3.823h.312c.741 0 1.157-.598 1.157-1.365 0-.754-.299-1.274-1.053-1.3-.156 0-.325.013-.416.052v2.613zM23.341 26.539v-1.144l.832-1.079c1.092-1.391 1.989-2.548 1.989-3.757 0-.689-.377-1.157-1.079-1.157-.533 0-.962.234-1.261.429l-.312-1.313c.39-.26 1.118-.533 1.885-.533 1.846 0 2.444 1.235 2.444 2.444 0 1.586-.988 2.86-1.963 3.991l-.507.598v.026h2.587v1.495h-4.615z" fill="#fff"></path></svg>