<svg viewBox="0 0 40 40" xmlns="http://www.w3.org/2000/svg"><path fill="#b08159" d="M1.5 29.195v-18.39l18-9.243 18 9.243v18.39l-18 9.243z"></path><path d="M19.5 2.124L37 11.111V28.89l-17.5 8.986L2 28.889V11.111l17.5-8.987M19.5 1L1 10.5v19L19.5 39 38 29.5v-19L19.5 1z" fill="#704e34"></path><path fill="#b08159" d="M2 10h35v5H2z"></path><path fill="#704e34" d="M25 21l6-3.081V14l-6 3z"></path><path fill="#704e34" d="M27 18h2v15.667L27 35z"></path><path fill="#704e34" d="M24 17.129v2.479l8-4.108V13z"></path><path fill="#d6aa70" d="M27 19.973l2-1.027V15h-2z"></path><path fill="#d6aa70" d="M26 18.581l4-2.054V14l-4 1.918z"></path><path fill="#704e34" d="M14 21l-6-3.081V14l6 3z"></path><path fill="#704e34" d="M12 18h-2v15.667L12 35z"></path><path fill="#704e34" d="M15 17.129v2.479L7 15.5V13z"></path><path fill="#d6aa70" d="M12 19.973l-2-1.027V15h2z"></path><path fill="#d6aa70" d="M13 18.581l-4-2.054V14l4 1.918z"></path><path d="M19.5 8.136l4.391 2.364-4.391 2.364-4.391-2.364L19.5 8.136M19.5 7L13 10.5l6.5 3.5 6.5-3.5L19.5 7zM20 18.953l-.5.388-.5-.388v18.666l.5.257.5-.257V18.953z" fill="#8c6a3f"></path><path fill="#704e34" d="M14.451 3.593l2.9 1.489 2.921-1.5-2.9-1.489z"></path><path fill="#704e34" d="M18.72 3.582l2.921 1.5 2.905-1.491-2.922-1.5z"></path><path fill="#8c6a3f" d="M19.5 1l-2.921 1.5L19.5 4l2.921-1.5zM35 8.959L32 10.5l3 1.541 3-1.541z"></path><path fill="#704e34" d="M33 7.942l-3 1.54 2 1.016 3-1.541z"></path><path fill="#8c6a3f" d="M23.267 9.028l-1.055-.568-6.5 3.5 1.055.568z"></path><path fill="#8c6a3f" d="M23.304 11.951l-6.5-3.5-1.054.568 6.5 3.5z"></path><g><path fill="#704e34" d="M14.451 17.407l2.9-1.489 2.921 1.5-2.9 1.489z"></path></g><g><path fill="#704e34" d="M18.72 17.418l2.921-1.5 2.905 1.491-2.922 1.5z"></path></g><g><path fill="#8c6a3f" d="M19.5 20l-2.921-1.5L19.5 17l2.921 1.5z"></path></g><g><path d="M19.5 2.124L35.811 10.5 19.5 18.876 3.189 10.5 19.5 2.124M19.5 1L1 10.5 19.5 20 38 10.5 19.5 1z" fill="#704e34"></path></g><g><path fill="#704e34" d="M33 13.058l-3-1.54 2-1.016 3 1.541z"></path></g><g><path fill="#8c6a3f" d="M4 8.959L7 10.5l-3 1.541L1 10.5z"></path></g><g><path fill="#704e34" d="M6 7.942l3 1.54-2 1.016-3-1.541z"></path></g><g><path fill="#704e34" d="M6 13.058l3-1.54-2-1.016-3 1.541z"></path></g><g><path d="M19.5 2.124L35.811 10.5 19.5 18.876 3.189 10.5 19.5 2.124M19.5 1L1 10.5 19.5 20 38 10.5 19.5 1z" fill="#704e34"></path></g></svg>