<svg viewBox="0 0 40 40" xmlns="http://www.w3.org/2000/svg"><path d="M3 20.5c-.827 0-1.5-.673-1.5-1.5v-1c0-.827.673-1.5 1.5-1.5h5v4H3z" fill="#8bb7f0"></path><path d="M7.5 17v3H3c-.551 0-1-.449-1-1v-1c0-.551.449-1 1-1h4.5m1-1H3a2 2 0 00-2 2v1a2 2 0 002 2h5.5v-5z" fill="#4e7ab5"></path><path d="M37.542 21.423c-.238 0-.468-.056-.683-.165l-2.225-1.14 1.823-3.56 2.226 1.14c.356.183.62.494.743.875s.091.788-.093 1.144l-.456.89a1.491 1.491 0 01-1.335.816z" fill="#8bb7f0"></path><path d="M36.676 17.231l1.78.912a.994.994 0 01.496.583.993.993 0 01-.062.763l-.456.89a.997.997 0 01-1.346.434l-1.78-.912 1.368-2.67m-.434-1.346l-2.28 4.45 2.67 1.368a2 2 0 002.692-.868l.456-.89a2 2 0 00-.868-2.692l-2.67-1.368z" fill="#4e7ab5"></path><path d="M36 26.93v6.069a1 1 0 01-1 1h-3a1 1 0 01-1-1V26.93a1 1 0 011-1h3a1 1 0 011 1zM9 26.931V33a1 1 0 01-1 1H5a1 1 0 01-1-1v-6.069a1 1 0 011-1h3a1 1 0 011 1z" fill="#66798f"></path><path d="M6.692 31.115A2.175 2.175 0 014.5 28.948v-8.704c0-.334.079-.669.229-.969l1.079-2.158L7.606 9.14a3.491 3.491 0 013.264-2.637l23.417 13.471.984 1.969c.149.299.229.635.229.969v7.371a2.17 2.17 0 01-2.155 2.167L6.692 31.115z" fill="#8bb7f0"></path><path d="M10.751 7.01l23.156 13.321.917 1.834c.115.231.176.488.176.746v7.37c0 .919-.748 1.667-1.617 1.668L6.667 30.615A1.67 1.67 0 015 28.948v-8.704c0-.257.061-.515.176-.745l1.052-2.104.054-.109.027-.118L8.09 9.272a2.996 2.996 0 012.661-2.262M11 6a4.001 4.001 0 00-3.881 3.03l-1.786 7.918-1.052 2.104c-.185.37-.281.778-.281 1.192v8.704a2.667 2.667 0 002.667 2.667l26.667 1.333a2.667 2.667 0 002.667-2.667v-7.37a2.66 2.66 0 00-.282-1.193l-1.052-2.104L11 6z" fill="#4e7ab5"></path><path d="M29 26a2 2 0 102-2l1.01 1.649-2.374-1.01.657 1.818L29 26z" fill="#fff"></path><circle cx="10" cy="22" r="2" fill="#fff"></circle><path d="M5.941 16.523L7.606 9.14A3.493 3.493 0 0111 6.5l15.374.999a1.236 1.236 0 011.128 1.258l-.045 2.358c-.027 1.331 1.206 2.054 2.271 2.269l2.229.19c.921.082 1.226.229 1.358.659l1.329 6.034-28.703-3.744z" fill="#c2e8ff"></path><path d="M10.97 7l15.355.997a.739.739 0 01.677.752l-.045 2.355c-.028 1.35 1.021 2.438 2.673 2.77l.056.011.057.005 2.168.182c.778.069.877.169.916.276l1.176 5.331L6.55 16.098l1.54-6.826A2.995 2.995 0 0110.97 7M11 6a4.001 4.001 0 00-3.881 3.03l-1.786 7.918 29.953 3.907-1.493-6.769c-.239-.777-.894-.93-1.794-1.01l-2.173-.183c-.888-.179-1.891-.742-1.87-1.768l.045-2.357A1.737 1.737 0 0026.405 7L11 6z" fill="#4e7ab5"></path><path fill="#8bb7f0" d="M16.043 18.345H3V17h2.69z"></path><g><path fill="#c8d1db" d="M12.555 31.408l2.69-6.678 4.695 2.817 3.06-1.02 2.585.862 1.242 4.733z"></path><path d="M15.49 25.46l3.996 2.397.394.237.436-.145L23 27.054l2.17.723 1 3.811-12.889-.644 2.209-5.484M15 24l-3.171 7.873 15.655.783L26 27l-3-1-3 1-5-3z" fill="#66798f"></path></g><path d="M26 14l-1 3 3.501-2.384L29.626 17l.395-3.087-.391-.039c-1.652-.332-2.701-1.419-2.673-2.77l.002-.124L23 9l2.758 3.637L20 14h6z" fill="#fff"></path></svg>