<svg viewBox="0 0 40 40" xmlns="http://www.w3.org/2000/svg"><path fill="#ffeea3" d="M1.5 11.5h37v27h-37z"></path><path d="M38 12v26H2V12h36m1-1H1v28h38V11z" fill="#ba9b48"></path><path d="M1.679 17.372l15.748 8.48a5.429 5.429 0 005.147 0l15.748-8.48" fill="#ffeea3" stroke="#ba9b48" stroke-miterlimit="10"></path><path d="M2 12.274V12h19.019l1.356-1H1.082c.265.455.572.881.918 1.274z" fill="#ffeea3"></path><g><path d="M12.5 13.5H8A6.508 6.508 0 011.5 7V1.5h4V7c0 1.378 1.121 2.5 2.5 2.5h4.5V6.054l6.707 5.481-6.707 5.418V13.5z" fill="#bae0bd"></path><path d="M5 2v5c0 1.654 1.346 3 3 3h5V7.109l5.414 4.425L13 15.907V13H8c-3.308 0-6-2.692-6-6V2h3m1-1H1v6a7 7 0 007 7h4v4l8-6.462L12 5v4H8a2 2 0 01-2-2V1z" fill="#5e9c76"></path></g></svg>