<svg viewBox="0 0 40 40" xmlns="http://www.w3.org/2000/svg"><path d="M26.503 32.752c.135-6.148 5.277-9.348 7.995-10.613-1.674 2.357-4.649 7.282-4.97 12.882l-3.025-2.269z" fill="#bae0bd"></path><path d="M33.009 23.481c-1.562 2.519-3.445 6.328-3.905 10.597l-2.094-1.57c.142-3.17 1.668-5.875 4.542-8.048.492-.37.985-.696 1.457-.979M36 21s-10 3-10 12l4 3c0-8 6-15 6-15z" fill="#5e9c76"></path><path d="M25.5 34.5c0-13 5.888-17.989 5.888-17.989L38.5 8.5" fill="none" stroke="#5e9c76" stroke-miterlimit="10"></path><path d="M7.294 38.5C6.596 37.216 3.5 31.229 3.5 26c0-5.899 4.277-7.877 8.051-9.623 3.039-1.405 5.909-2.732 5.909-5.877 0-3.356-8.37-7.205-12.783-9h7.243C15.771 2.77 25.5 6.874 25.5 11c0 2.92-1.217 4.692-2.506 6.568C21.768 19.353 20.5 21.198 20.5 24c0 4.678 10.059 11.938 13.838 14.5H7.294z" fill="#8bb7f0"></path><path d="M11.84 2C16.993 3.707 25 7.607 25 11c0 2.765-1.175 4.474-2.418 6.285C21.313 19.132 20 21.043 20 24c0 4.468 8.21 10.837 12.721 14H7.594C6.712 36.335 4 30.82 4 26c0-5.58 3.945-7.405 7.761-9.169 3.048-1.409 6.199-2.867 6.199-6.331 0-3.116-6.122-6.424-10.809-8.5h4.689M12 1H2s14.96 5.429 14.96 9.5C16.96 17 3 15 3 26c0 6.072 4 13 4 13h29s-15-9.571-15-15 5-7 5-13C26 5.571 12 1 12 1z" fill="#4e7ab5"></path><path d="M31.925 18.143a2.281 2.281 0 01-1.485-.551 2.262 2.262 0 01-.79-1.559 2.272 2.272 0 01.544-1.661l3.934-4.581a2.284 2.284 0 013.219-.245c.463.397.743.951.789 1.559a2.263 2.263 0 01-.544 1.661l-3.934 4.581a2.28 2.28 0 01-1.733.796z" fill="#a6714e"></path><path d="M35.861 9.496a1.784 1.784 0 011.351 2.945l-3.934 4.581a1.782 1.782 0 01-2.705-2.323l3.934-4.581a1.78 1.78 0 011.354-.622m0-1c-.783 0-1.562.329-2.113.97l-3.934 4.581a2.784 2.784 0 004.223 3.627l3.934-4.581a2.784 2.784 0 00-.298-3.925 2.772 2.772 0 00-1.812-.672z" fill="#7a4f34"></path><g><path fill="#8bb7f0" d="M34.387 39H8.068l-1.772-3.723 22.182-.348z"></path></g><g><path d="M18.875 5.071H13.25S10.331 3.269 4.625 1H10c5.5 2.125 8.875 4.071 8.875 4.071z" fill="#8bb7f0"></path></g></svg>