<svg viewBox="0 0 40 40" xmlns="http://www.w3.org/2000/svg"><path fill="none" stroke="#a16a4a" stroke-miterlimit="10" d="M17.5 33V13M22.5 33V13M27.5 33V13M32.5 33V13M7.5 33V13M12.5 33V13"></path><path fill="#ffc49c" d="M2.5 10.5h35v3h-35z"></path><path d="M37 11v2H3v-2h34m1-1H2v4h36v-4z" fill="#a16a4a"></path><path fill="#ffc49c" d="M2.5 32.5h35v3h-35z"></path><path d="M37 33v2H3v-2h34m1-1H2v4h36v-4z" fill="#a16a4a"></path><path fill="#f5ce85" d="M35.5 4.5h3v34h-3z"></path><path d="M38 5v33h-2V5h2m1-1h-4v35h4V4z" fill="#967a44"></path><g><circle cx="37" cy="4" r="2.5" fill="#ffc49c"></circle><path d="M37 2c1.103 0 2 .897 2 2s-.897 2-2 2-2-.897-2-2 .897-2 2-2m0-1a3 3 0 100 6 3 3 0 000-6z" fill="#a16a4a"></path></g><g><path fill="#f5ce85" d="M1.5 4.5h3v34h-3z"></path><path d="M4 5v33H2V5h2m1-1H1v35h4V4z" fill="#967a44"></path></g><g><circle cx="3" cy="4" r="2.5" fill="#ffc49c"></circle><path d="M3 2c1.103 0 2 .897 2 2s-.897 2-2 2-2-.897-2-2 .897-2 2-2m0-1a3 3 0 100 6 3 3 0 000-6z" fill="#a16a4a"></path></g></svg>