<svg viewBox="0 0 40 40" xmlns="http://www.w3.org/2000/svg"><path d="M15 8.5c-1.93 0-3.5-1.57-3.5-3.5s1.57-3.5 3.5-3.5 3.5 1.57 3.5 3.5-1.57 3.5-3.5 3.5z" fill="#f78f8f"></path><path d="M15 2c1.654 0 3 1.346 3 3s-1.346 3-3 3-3-1.346-3-3 1.346-3 3-3m0-1a4 4 0 100 8 4 4 0 000-8z" fill="#c74343"></path><path d="M18.322 6.968C18.698 6.541 18.401 6 18 6c-2.206 0-4-1.794-4-4 0-.401-1-.11-1 0 0 2.944 2.055 5 5 5 .11 0 .213-.026.322-.032z" fill="#c74343"></path><path d="M3.337 38.5a.85.85 0 01-.606-.251l-.959-.959a.85.85 0 01-.251-.606.85.85 0 01.251-.606l6.879-6.891c.714-.714.849-1.363.849-2.312v-1.529l4.404-1.653 2.422 2.422-1.671 4.385H13c-.941 0-1.428.181-2.082.775l-6.975 6.974a.85.85 0 01-.606.251z" fill="#f78f8f"></path><path d="M13.778 24.275l1.965 1.965L14.311 30H13c-1.062 0-1.672.228-2.453.938L3.59 37.895a.356.356 0 01-.506 0l-.959-.959a.356.356 0 010-.505l6.878-6.889c.83-.83.997-1.636.997-2.667v-1.182l3.778-1.418m.252-1.163L9 25v1.875c0 .875-.121 1.377-.703 1.959l-6.878 6.89c-.53.53-.53 1.389 0 1.919l.959.959a1.354 1.354 0 001.919.001l6.958-6.958c.563-.512.924-.645 1.745-.645h2l1.909-5.009-2.879-2.879z" fill="#c74343"></path><g><path d="M16.102 31.5c-.21 0-.403-.067-.516-.18l-6.81-6.809c-.198-.155-.276-.283-.287-.428-.014-.191.088-.406.287-.604l21.656-21.8v.001c.019 0 .347-.18.937-.18.914 0 2.453.434 4.595 2.499 3.644 3.515 2.319 5.493 2.261 5.576L16.616 31.321c-.112.112-.304.179-.514.179z" fill="#ffc49c"></path><path d="M31.37 2c.673 0 2.119.306 4.248 2.359 3.063 2.954 2.36 4.631 2.23 4.879l-21.58 21.725a.329.329 0 01-.167.037.35.35 0 01-.162-.033l-6.81-6.809-.05-.05-.057-.043-.032-.026a.502.502 0 01.142-.209L30.696 2.122c.096-.043.32-.122.674-.122m-.001-1c-.849 0-1.287.321-1.287.321L8.422 23.125c-.579.58-.579 1.306 0 1.74l6.81 6.809c.217.217.543.326.869.326.326 0 .652-.109.87-.326L38.629 9.869s1.739-2.317-2.318-6.23C34.076 1.483 32.412 1 31.369 1z" fill="#b08159"></path></g></svg>