<svg viewBox="0 0 40 40" xmlns="http://www.w3.org/2000/svg"><path d="M14.5 19.5v-3h2.044c.082.538.316 1.403.982 2.072.511.513 1.173.815 1.973.902v.026H14.5z" fill="#839cb2"></path><path d="M16.132 17c.142.583.435 1.317 1.041 1.925.025.026.051.051.077.075H15v-2h1.132M17 16h-3v4h6v-1c-3.011 0-3-3-3-3z" fill="#66798f"></path><path d="M4 15.5c-.134-.001-3.166-.057-3.475-3.001L3 12.5c.555 0 .893-.227 1.079-.417.179-.183.282-.395.341-.583H5.5v4H4z" fill="#839cb2"></path><path d="M5 12v3h-.999c-.267 0-2.34-.066-2.875-2.001L3 13c.73 0 1.184-.309 1.437-.568A1.87 1.87 0 004.752 12H5m1-1H4s.024 1-1 1l-3-.002C0 15.995 4 16 4 16h2v-5z" fill="#66798f"></path><path d="M23 14v5c0 2.2-1.8 4-4 4h-6" fill="none" stroke="#788b9c" stroke-width="2" stroke-miterlimit="10"></path><path fill="#4b6477" d="M7.5 8.5v-1h2.293l.5.5-.5.5z"></path><path fill="#36404d" d="M10 7H7v2h3l1-1-1-1z"></path><path fill="#4b6477" d="M33.5 8.5v-1h2.293l.5.5-.5.5z"></path><path fill="#36404d" d="M36 7h-3v2h3l1-1-1-1z"></path><path fill="#4b6477" d="M37.833 10.165H39.5v4.33h-1.667z"></path><path d="M39 10.665v3.33h-.667v-3.33H39m1-1h-2.667v5.33H40v-5.33z" fill="#36404d"></path><path d="M8.732 34.5c-.176 0-.354-.022-.527-.065L2.131 33.06a2.143 2.143 0 01-1.321-.984 2.15 2.15 0 01-.245-1.639L4.5 16.396V10c0-.827.673-1.5 1.5-1.5h32.5v7H16.559l-1 8h-.143a3.162 3.162 0 00-3.072 2.397l-1.515 6.978A2.16 2.16 0 018.732 34.5z" fill="#bdccd4"></path><path d="M38 9v6H16.117l-.109.876-.892 7.136a3.673 3.673 0 00-3.265 2.794l-1.504 6.931a1.663 1.663 0 01-2.043 1.207l-6.041-1.367a1.654 1.654 0 01-1.025-.759 1.638 1.638 0 01-.195-1.233l3.92-13.988.037-.132V10c0-.551.449-1 1-1h32m1-1H6a2 2 0 00-2 2v6.328L.08 30.316a2.666 2.666 0 001.94 3.232l6.063 1.372a2.667 2.667 0 003.234-1.939l1.511-6.962A2.667 2.667 0 0115.415 24H16l1-8h22V8z" fill="#788b9c"></path><g><path d="M13 10.498a.5.5 0 01-.5-.5V8.5h6v1.498a.5.5 0 01-.5.5h-5z" fill="#839cb2"></path><path d="M18 9v.998h-5V9h5m1-1h-7v1.998c0 .55.45 1 1 1h5c.55 0 1-.45 1-1V8z" fill="#66798f"></path></g><g><path fill="#36404d" d="M7 12h32v1H7z"></path><path fill="#788b9c" d="M39 12H7v1h32v-1z"></path></g><g><path fill="#839cb2" d="M30.651 15.5l1.5-1H38.5v1z"></path><path fill="#66798f" d="M39 14h-7l-3 2h10v-2z"></path></g><g><path d="M8.147 31.813l-4.726-1.07a.165.165 0 01-.123-.207l4.249-15.041h4.471L8.347 31.688a.167.167 0 01-.2.125z" fill="#839cb2"></path><path d="M11.393 15.995l-3.46 15.257-4.058-.919 4.05-14.338h3.468m1.252-1H7.169L2.817 30.4a.667.667 0 00.494.831l4.725 1.07a.669.669 0 00.798-.502l3.811-16.804z" fill="#66798f"></path></g><circle cx="6" cy="29" r="1.001" fill="#e1ebf2"></circle><circle cx="8.999" cy="18" r="1.001" fill="#e1ebf2"></circle></svg>