<svg viewBox="0 0 40 40" xmlns="http://www.w3.org/2000/svg"><path d="M9.5 36.5V33c0-10.102-3.977-18.432-5.496-21.246 2.022.615 6.567 2.587 10.582 8.526l.656.97.247-1.145C16.612 14.893 19.015 9.949 20 8.057c.985 1.893 3.389 6.84 4.511 12.048l.247 1.145.656-.97c4.03-5.961 8.567-7.922 10.584-8.53C34.481 14.56 30.5 22.894 30.5 33v3.5h-21z" fill="#ffeea3"></path><path d="M20 9.161c1.125 2.267 3.054 6.559 4.022 11.05l.494 2.291 1.312-1.941c3.266-4.831 6.88-6.973 9.12-7.898C33.153 16.233 30 23.814 30 33v3H10v-3c0-9.198-3.162-16.787-4.955-20.352 2.232.914 5.837 3.046 9.127 7.912l1.312 1.941.494-2.291c.966-4.485 2.897-8.78 4.022-11.049M20 7s-3.542 6.234-5 13c-5.535-8.188-12-9-12-9s6 9.576 6 22v4h22v-4c0-12.424 6-22 6-22s-6.465.812-12 9c-1.458-6.766-5-13-5-13z" fill="#f5c276"></path><path fill="#f5c276" d="M9.5 33.5h21v3h-21z"></path><path d="M30 34v2H10v-2h20m1-1H9v4h22v-4z" fill="#c29653"></path><circle cx="20" cy="5.5" r="2" fill="#f5c276"></circle><path d="M20 4c.827 0 1.5.673 1.5 1.5S20.827 7 20 7s-1.5-.673-1.5-1.5S19.173 4 20 4m0-1c-1.375 0-2.5 1.125-2.5 2.5S18.625 8 20 8s2.5-1.125 2.5-2.5S21.375 3 20 3z" fill="#c29653"></path><g><circle cx="37.5" cy="10.5" r="2" fill="#f5c276"></circle><path d="M37.5 9c.827 0 1.5.673 1.5 1.5s-.673 1.5-1.5 1.5-1.5-.673-1.5-1.5.673-1.5 1.5-1.5m0-1C36.125 8 35 9.125 35 10.5s1.125 2.5 2.5 2.5 2.5-1.125 2.5-2.5S38.875 8 37.5 8z" fill="#c29653"></path></g><g><circle cx="2.5" cy="10.485" r="2" fill="#f5c276"></circle><path d="M2.5 8.985c.827 0 1.5.673 1.5 1.5s-.673 1.5-1.5 1.5a1.501 1.501 0 010-3m0-1c-1.375 0-2.5 1.125-2.5 2.5s1.125 2.5 2.5 2.5S5 11.86 5 10.485s-1.125-2.5-2.5-2.5z" fill="#c29653"></path></g></svg>