<svg viewBox="0 0 40 40" xmlns="http://www.w3.org/2000/svg"><path fill="none" stroke="#66798f" stroke-miterlimit="10" d="M16.5 35.5L21 18.05 35.5 29.5M34.5 5.5L21 18.05M8.5 4.5L21 18.05 4.5 24.5"></path><path d="M21 27.5c-5.238 0-9.5-4.262-9.5-9.5s4.262-9.5 9.5-9.5 9.5 4.262 9.5 9.5-4.262 9.5-9.5 9.5z" fill="#bae0bd"></path><path d="M21 9c4.963 0 9 4.037 9 9s-4.037 9-9 9-9-4.037-9-9 4.037-9 9-9m0-1c-5.5 0-10 4.5-10 10s4.5 10 10 10 10-4.5 10-10S26.5 8 21 8z" fill="#5e9c76"></path><path d="M8.5 7.5c-1.626 0-3-1.374-3-3s1.374-3 3-3 3 1.374 3 3-1.374 3-3 3z" fill="#8bb7f0"></path><path d="M8.5 2C9.855 2 11 3.145 11 4.5S9.855 7 8.5 7 6 5.855 6 4.5 7.145 2 8.5 2m0-1C6.6 1 5 2.6 5 4.5S6.6 8 8.5 8 12 6.4 12 4.5 10.4 1 8.5 1z" fill="#4e7ab5"></path><path d="M34.5 8.5c-1.626 0-3-1.374-3-3s1.374-3 3-3 3 1.374 3 3-1.374 3-3 3z" fill="#8bb7f0"></path><path d="M34.5 3C35.855 3 37 4.145 37 5.5S35.855 8 34.5 8 32 6.855 32 5.5 33.145 3 34.5 3m0-1C32.6 2 31 3.6 31 5.5S32.6 9 34.5 9 38 7.4 38 5.5 36.4 2 34.5 2z" fill="#4e7ab5"></path><path d="M4.5 27.5c-1.626 0-3-1.374-3-3s1.374-3 3-3 3 1.374 3 3-1.374 3-3 3z" fill="#8bb7f0"></path><path d="M4.5 22C5.855 22 7 23.145 7 24.5S5.855 27 4.5 27 2 25.855 2 24.5 3.145 22 4.5 22m0-1C2.6 21 1 22.6 1 24.5S2.6 28 4.5 28 8 26.4 8 24.5 6.4 21 4.5 21z" fill="#4e7ab5"></path><path d="M16.5 38.5c-1.626 0-3-1.374-3-3s1.374-3 3-3 3 1.374 3 3-1.374 3-3 3z" fill="#8bb7f0"></path><path d="M16.5 33c1.355 0 2.5 1.145 2.5 2.5S17.855 38 16.5 38 14 36.855 14 35.5s1.145-2.5 2.5-2.5m0-1c-1.9 0-3.5 1.6-3.5 3.5s1.6 3.5 3.5 3.5 3.5-1.6 3.5-3.5-1.6-3.5-3.5-3.5z" fill="#4e7ab5"></path><g><path d="M35.5 32.5c-1.626 0-3-1.374-3-3s1.374-3 3-3 3 1.374 3 3-1.374 3-3 3z" fill="#8bb7f0"></path><path d="M35.5 27c1.355 0 2.5 1.145 2.5 2.5S36.855 32 35.5 32 33 30.855 33 29.5s1.145-2.5 2.5-2.5m0-1c-1.9 0-3.5 1.6-3.5 3.5s1.6 3.5 3.5 3.5 3.5-1.6 3.5-3.5-1.6-3.5-3.5-3.5z" fill="#4e7ab5"></path></g><g><path d="M19.267 15.539c0-.588.581-1.096 1.777-1.096 1.354 0 2.328.348 3.085.765v-1.985c-.563-.284-1.413-.451-2.553-.5l-1.183.029c-.989.088-1.782.404-2.382.945s-.9 1.197-.9 1.966c0 3.041 5.624 3.135 5.624 4.801 0 .593-.819 1.052-1.732 1.052-1.869 0-3.359-.718-3.673-.948v2.037a7.164 7.164 0 003.063.677l1.183-.044c1.064-.108 1.882-.41 2.455-.907.571-.497.858-1.153.858-1.967.001-3.249-5.622-3.001-5.622-4.825z" fill="#5e9c76"></path></g><g><path fill="#5e9c76" d="M20.222 11h1.556v2.334h-1.556z"></path></g><g><path fill="#5e9c76" d="M20.222 22.614h1.556v2.334h-1.556z"></path></g></svg>