<svg viewBox="0 0 40 40" xmlns="http://www.w3.org/2000/svg"><path fill="#7496c4" d="M29.447 19.74l-.707.707-9.192-9.192.707-.708z"></path><path d="M26 5.414L34.586 14l-7.293 7.293C24.586 24 22.051 24 17 24h-.414l-.293.293-.293.293-.586-.586.293-.293.293-.293V23c0-4.985.12-7.706 2.707-10.293L26 5.414M26 4l-8 8c-2.917 2.917-3 6.042-3 11l-1 1 2 2 1-1c5.125 0 8.021-.021 11-3l8-8L26 4z" fill="#4e7ab5"></path><path fill="#7496c4" d="M15.954 23.34l.707.706-10.589 10.59-.707-.708z"></path><path d="M1.748 35.479l1.54-1.54c.283-.283.66-.439 1.061-.439s.777.156 1.061.439l.651.651c.283.284.439.66.439 1.061s-.156.777-.439 1.061l-1.539 1.54-2.774-2.773z" fill="#b6c9d6"></path><path d="M4.349 34c.267 0 .518.104.707.293l.651.651a1 1 0 010 1.414l-1.186 1.186-2.066-2.066 1.186-1.186A.999.999 0 014.349 34m0-1a1.99 1.99 0 00-1.414.586l-1.893 1.893 3.48 3.48 1.893-1.893a2 2 0 000-2.828l-.651-.651A1.993 1.993 0 004.349 33z" fill="#788b9c"></path><g><path d="M35.45 15.5a.143.143 0 01-.099-.038L24.536 4.646c-.042-.042-.049-.116-.016-.181l1.808-2.432c.19-.355.477-.533.792-.533.141 0 .345.037.519.212.169.17.442.514.789.95.797 1.004 2.131 2.684 4.146 4.692l.073.074c2.007 2.014 3.688 3.348 4.69 4.145.437.346.781.62.95.789.167.166.241.4.203.644a.853.853 0 01-.454.624l-2.573 1.895-.013-.025z" fill="#f5ce85"></path><path d="M27.121 2c.099 0 .147.048.165.066.149.149.415.484.752.909.804 1.012 2.148 2.706 4.182 4.732l.073.073c2.027 2.034 3.722 3.379 4.734 4.183.424.337.759.603.91.754.067.066.07.151.06.211a.347.347 0 01-.188.256l-.073.037-.066.049-2.186 1.616-10.37-10.37L26.73 2.33l.049-.066.037-.073A.344.344 0 0127.121 2m0-1c-.474 0-.951.26-1.195.736L24.074 4.24a.656.656 0 00.108.76L35 15.818c.121.12.283.182.45.182a.69.69 0 00.31-.074l2.504-1.852c.794-.406.987-1.461.377-2.067-.608-.607-2.754-2.036-5.641-4.933L32.926 7c-2.897-2.887-4.326-5.033-4.933-5.641A1.223 1.223 0 0027.121 1z" fill="#967a44"></path></g></svg>