<svg viewBox="0 0 40 40" xmlns="http://www.w3.org/2000/svg"><path d="M20 38.5C9.799 38.5 1.5 30.201 1.5 20S9.799 1.5 20 1.5 38.5 9.799 38.5 20 30.201 38.5 20 38.5z" fill="#ffeea3"></path><path d="M20 2c9.925 0 18 8.075 18 18s-8.075 18-18 18S2 29.925 2 20 10.075 2 20 2m0-1C9.507 1 1 9.507 1 20s8.507 19 19 19 19-8.507 19-19S30.493 1 20 1z" fill="#c29653"></path><path d="M29.272 28.36c-1.64-.281-5.474-.86-9.272-.86s-7.632.579-9.272.86c.709-1.939 3.115-6.86 9.272-6.86s8.563 4.921 9.272 6.86z" fill="#f78f8f"></path><path d="M20 22c5.105 0 7.498 3.591 8.468 5.719C26.55 27.418 23.295 27 20 27s-6.55.418-8.468.719C12.503 25.59 14.896 22 20 22m0-1c-8 0-10 8-10 8s5-1 10-1 10 1 10 1-2-8-10-8z" fill="#c74343"></path><path d="M5 21c0-2.423 3-5 3-5 0 2.362 1 3.812 1 5a2 2 0 01-4 0zM35 25.667C35 23.195 32 21 32 21c0 2.464-1 3.667-1 4.667a2 2 0 004 0z" fill="#8bb7f0"></path><path d="M9.286 14.505s1.5-2 4-2 4 2 4 2M22.786 14.505s1.5-2 4-2 4 2 4 2" fill="none" stroke="#c29653" stroke-miterlimit="10"></path></svg>