<svg viewBox="0 0 40 40" xmlns="http://www.w3.org/2000/svg"><path fill="#589cdb" d="M16 40h8l2-25H14z"></path><path fill="#8bb7f0" d="M20 1.333L14 15h12z"></path><path fill="#c2e8ff" d="M20 1.333L14 15l-8-4z"></path><path fill="#97c9ff" d="M9 37l7 3-2-25-8-4z"></path><path fill="#4585bf" d="M31 37l-7 3 2-25 8-4z"></path><path fill="#589cdb" d="M26 15L20 1.333 34 11z"></path><path d="M20 1.272l12.943 10.169-2.869 24.868L23.795 39h-7.589l-6.278-2.691-2.871-24.868L20 1.272M20 0L6 11l3 26 7 3h8l7-3 3-26L20 0z" fill="#4e7ab5"></path></svg>