<svg viewBox="0 0 40 40" xmlns="http://www.w3.org/2000/svg"><path fill="#ffeea3" d="M27.5 18.5h2v20h-2z"></path><path d="M29 19v19h-1V19h1m1-1h-3v21h3V18z" fill="#f5c276"></path><path fill="#ffeea3" d="M10.5 18.5h2v20h-2z"></path><path d="M12 19v19h-1V19h1m1-1h-3v21h3V18z" fill="#f5c276"></path><g><path d="M5.5 17.5V4c0-1.378 1.122-2.5 2.5-2.5h24c1.378 0 2.5 1.122 2.5 2.5v13.5h-29z" fill="#c2e8ff"></path><path d="M32 2c1.103 0 2 .897 2 2v13H6V4c0-1.103.897-2 2-2h24m0-1H8C6.35 1 5 2.35 5 4v14h30V4c0-1.65-1.35-3-3-3z" fill="#7496c4"></path></g><g><path d="M2.5 19.5V19c0-1.378 1.122-2.5 2.5-2.5h30c1.378 0 2.5 1.122 2.5 2.5v.5h-35z" fill="#c2e8ff"></path><path d="M35 17c1.103 0 2 .897 2 2H3c0-1.103.897-2 2-2h30m0-1H5a3 3 0 00-3 3v1h36v-1a3 3 0 00-3-3z" fill="#7496c4"></path></g></svg>