<svg viewBox="0 0 40 40" xmlns="http://www.w3.org/2000/svg"><path d="M20.001 1.5c1.784 0 3.497.32 5.075.911C30.582 4.471 34.5 9.777 34.5 16c0 8.011-6.49 14.5-14.499 14.5S5.5 24.011 5.5 16 11.992 1.5 20.001 1.5z" fill="#c0e8ff"></path><path d="M20 1.5a14.469 14.469 0 017.92 2.349 14.23 14.23 0 012.063 7.397c0 7.878-6.385 14.262-14.262 14.262a14.185 14.185 0 01-8.638-2.919A14.41 14.41 0 015.5 16C5.5 7.989 11.994 1.5 20 1.5z" fill="#daf2ff"></path><path d="M20 1C11.729 1 5 7.729 5 16s6.729 15 15 15 15-6.729 15-15S28.271 1 20 1zm0 29c-7.72 0-14-6.28-14-14S12.28 2 20 2s14 6.28 14 14-6.28 14-14 14z" fill="#7395c6"></path><path d="M9 16H8C8 9.383 13.383 4 20 4v1C13.935 5 9 9.935 9 16z" fill="#fff"></path><path fill="#ffc596" d="M4.5 35.545h31V39.5h-31z"></path><path d="M4 35v5h32v-5H4zm31 4H5v-3h30v3z" fill="#a56a44"></path><path fill="#ffc596" d="M6.5 31.5h27v4h-27z"></path><path d="M6 31v5h28v-5H6zm27 4H7v-3h26v3z" fill="#a56a44"></path><path fill="#ffc596" d="M8.5 27.5h23v4h-23z"></path><path d="M8 27v5h24v-5H8zm23 4H9v-3h22v3z" fill="#a56a44"></path></svg>