<svg viewBox="0 0 40 40" xmlns="http://www.w3.org/2000/svg"><path d="M4 33.5c-.827 0-1.5-.673-1.5-1.5V8c0-.827.673-1.5 1.5-1.5h32c.827 0 1.5.673 1.5 1.5v24c0 .827-.673 1.5-1.5 1.5H4z" fill="#bae0bd"></path><path d="M36 7c.551 0 1 .449 1 1v24c0 .551-.449 1-1 1H4c-.551 0-1-.449-1-1V8c0-.551.449-1 1-1h32m0-1H4a2 2 0 00-2 2v24a2 2 0 002 2h32a2 2 0 002-2V8a2 2 0 00-2-2z" fill="#5e9c76"></path><path d="M17.972 24.286c-.247.117-.728.208-1.312.208-2.249 0-3.315-1.833-3.315-4.329 0-3.302 1.833-4.589 3.536-4.589.598 0 1.014.117 1.183.234l-.285 1.43a1.714 1.714 0 00-.793-.169c-.963 0-1.834.832-1.834 3.003 0 2.093.794 2.912 1.834 2.912.285 0 .61-.065.818-.13l.168 1.43zM21.04 24.416l.338-2.327h-1.066v-1.196h1.262l.208-1.469h-1.093v-1.196h1.274l.338-2.262h1.145l-.325 2.262h1.196l.324-2.262h1.157l-.325 2.262h1.04v1.196h-1.234l-.195 1.469h1.066v1.196h-1.274l-.325 2.327h-1.17l.338-2.327h-1.183l-.325 2.327H21.04zm2.886-3.523l.195-1.469h-1.184l-.208 1.469h1.197z" fill="#44825d"></path></svg>