<svg viewBox="0 0 40 40" xmlns="http://www.w3.org/2000/svg"><path fill="#bae0bd" d="M6.5 37.5v-35h18.293l8.707 8.707V37.5z"></path><path d="M24.586 3L33 11.414V37H7V3h17.586M25 2H6v36h28V11l-9-9z" fill="#5e9c76"></path><path fill="#fff" d="M24.5 11.5v-9h.293l8.707 8.707v.293z"></path><path d="M25 3.414L32.586 11H25V3.414M25 2h-1v10h10v-1l-9-9z" fill="#5e9c76"></path><path d="M16.776 26.487c-.247.117-.728.208-1.312.208-2.249 0-3.315-1.833-3.315-4.329 0-3.302 1.833-4.589 3.536-4.589.598 0 1.014.117 1.183.234l-.285 1.43a1.714 1.714 0 00-.793-.169c-.963 0-1.834.832-1.834 3.003 0 2.093.794 2.912 1.834 2.912.285 0 .61-.065.818-.13l.168 1.43zM17.843 24.875c.351.195.962.338 1.442.338.793 0 1.196-.416 1.196-.988 0-.637-.39-.949-1.131-1.43-1.196-.728-1.651-1.651-1.651-2.444 0-1.404.937-2.574 2.756-2.574.586 0 1.132.156 1.379.312l-.273 1.469a2.074 2.074 0 00-1.105-.299c-.728 0-1.078.442-1.078.91 0 .52.26.793 1.195 1.365 1.17.702 1.586 1.586 1.586 2.509 0 1.599-1.183 2.652-2.886 2.652-.702 0-1.378-.182-1.677-.351l.247-1.469zM23.289 24.875c.352.195.962.338 1.443.338.793 0 1.196-.416 1.196-.988 0-.637-.391-.949-1.132-1.43-1.195-.728-1.65-1.651-1.65-2.444 0-1.404.936-2.574 2.756-2.574.585 0 1.131.156 1.378.312l-.272 1.469a2.074 2.074 0 00-1.105-.299c-.729 0-1.079.442-1.079.91 0 .52.26.793 1.196 1.365 1.17.702 1.586 1.586 1.586 2.509 0 1.599-1.184 2.652-2.886 2.652-.702 0-1.379-.182-1.678-.351l.247-1.469z" fill="#44825d"></path></svg>