<svg viewBox="0 0 40 40" xmlns="http://www.w3.org/2000/svg"><path d="M13.24 38.5a.77.77 0 01-.57-.25l-.19-.25h-.27a23.67 23.67 0 01-4.21.5 15.62 15.62 0 01-2.46-.18h-.18l-.16.09a.79.79 0 01-.41.12.77.77 0 01-.66-.38L4 38l-.17-.06c-1.53-.56-2.37-1.48-2.37-2.6 0-1.34 1.33-2.3 4-3.7l.26-.14v-.3a.75.75 0 01.77-.75.78.78 0 01.43.13l.25.16.26-.14c.83-.44 1.95-1 3.14-1.72l.19-.11v-.22a.76.76 0 01.75-.59h.2L12 28l.18-.11c1.25-.77 2.4-1.56 3.54-2.41l.15-.11v-.18a.76.76 0 01.75-.58h.18l.15-.11a46.68 46.68 0 003.86-3.5l.2-.2-.07-.27a.68.68 0 010-.16.75.75 0 01.77-.74h.39l.18-.2a52.06 52.06 0 003.85-4.77l.2-.28-.19-.29a.72.72 0 01-.12-.4.75.75 0 01.77-.74h.14l.33.06.18-.28c.69-1 1.36-2.15 2-3.27l.12-.22-.1-.23a.72.72 0 01-.06-.29.74.74 0 01.6-.6h.25l.11-.22c.47-.91.85-1.79 1.19-2.57 1.07-2.53 1.71-3.83 3.36-3.83 2.38 0 3.59 2.91 3.59 8.64a23.27 23.27 0 01-.29 3.62v.23l.15.17a.72.72 0 01.18.47.73.73 0 01-.4.65l-.2.11-.05.22a24.24 24.24 0 01-1.27 3.85l-.12.28.19.23a.72.72 0 01.17.45.75.75 0 01-.75.74h-.29l-.14.26a27.8 27.8 0 01-2.13 3.38l-.14.19.05.23a.71.71 0 010 .17.75.75 0 01-.74.74h-.22l-.14.17a32.27 32.27 0 01-2.21 2.39l-.24.24.13.31a.71.71 0 01.06.28.75.75 0 01-.77.74.78.78 0 01-.35-.09l-.33-.17-.25.21c-.76.65-1.57 1.28-2.4 1.87l-.28.2.09.33a.71.71 0 010 .18.75.75 0 01-.77.74.78.78 0 01-.45-.15l-.27-.19-.28.18c-1 .61-2 1.18-3 1.7l-.22.11v.24A.76.76 0 0120 36a.78.78 0 01-.35-.09l-.21-.1-.21.09a33.87 33.87 0 01-4.9 1.7l-.27.07L14 38a.76.76 0 01-.76.5z" fill="#bae0bd"></path><path d="M34.91 2C36.32 2 38 3.41 38 10.14a22.71 22.71 0 01-.29 3.55l-.07.45.3.35a.21.21 0 01.06.14.24.24 0 01-.14.2l-.4.21-.11.44a23.73 23.73 0 01-1.25 3.77l-.24.56.38.47a.21.21 0 01.06.14.25.25 0 01-.26.24h-.59l-.28.52a27.3 27.3 0 01-2.09 3.32l-.27.42.11.45a.25.25 0 01-.26.24h-.45l-.29.34a31.82 31.82 0 01-2.18 2.35l-.49.47.26.63a.21.21 0 010 .08.25.25 0 01-.27.24.28.28 0 01-.12 0l-.59-.29-.5.43c-.76.64-1.55 1.26-2.36 1.84l-.56.4.18.67a.3.3 0 010 .05.25.25 0 01-.27.24.28.28 0 01-.12-.06l-.54-.38-.56.38c-1 .6-2 1.16-3 1.68l-.43.22-.1.48a.26.26 0 01-.26.2.29.29 0 01-.13 0l-.42-.21-.43.19a33.38 33.38 0 01-4.83 1.67l-.55.14-.16.54a.26.26 0 01-.25.18.27.27 0 01-.2-.09l-.37-.41-.55.1A23.16 23.16 0 018 38a15.09 15.09 0 01-2.38-.17l-.36-.06-.31.23a.29.29 0 01-.15 0 .27.27 0 01-.23-.13l-.18-.31-.39-.13c-.76-.28-2-.93-2-2.13s1.3-2 3.69-3.26l.53-.28v-.63a.26.26 0 01.27-.22.28.28 0 01.16 0l.49.33.52-.24c.83-.44 1.94-1 3.16-1.73l.39-.22.09-.44a.26.26 0 01.26-.19h.08l.42.11.37-.23c1.26-.78 2.43-1.58 3.57-2.43l.29-.22.08-.36a.26.26 0 01.23-.19h.4l.27-.22a47.17 47.17 0 003.91-3.51l.39-.44-.13-.54a.25.25 0 01.25-.24h.05l.53.08.36-.4a52.64 52.64 0 003.88-4.81l.4-.56-.38-.57a.22.22 0 010-.12c0-.13.11-.23.3-.23l.66.12.37-.56c.69-1.05 1.37-2.16 2-3.3l.25-.44-.2-.46a.22.22 0 010-.09.25.25 0 01.22-.23l.49-.08.23-.44c.48-.92.86-1.81 1.2-2.6C33.1 3 33.63 2 34.91 2m0-1c-2.74 0-3.15 3.08-5 6.63a1.24 1.24 0 00-1.05 1.22 1.22 1.22 0 00.1.49q-1 1.72-2 3.25h-.23a1.25 1.25 0 00-1.27 1.24 1.22 1.22 0 00.2.67 51.38 51.38 0 01-3.81 4.72h-.19a1.25 1.25 0 00-1.27 1.24 1.17 1.17 0 000 .28 46 46 0 01-3.82 3.44 1.26 1.26 0 00-1.23 1c-1.21.9-2.38 1.69-3.5 2.38a1.29 1.29 0 00-.33 0 1.26 1.26 0 00-1.24 1c-1.11.64-2.16 1.2-3.12 1.71a1.28 1.28 0 00-.71-.21 1.25 1.25 0 00-1.27 1.24C2.62 32.55 1 33.63 1 35.3c0 1.25.86 2.39 2.7 3.07a1.26 1.26 0 001.1.63 1.28 1.28 0 00.66-.19A16 16 0 008 39a24.13 24.13 0 004.3-.42 1.27 1.27 0 002.15-.48 34.36 34.36 0 005-1.72 1.28 1.28 0 00.57.14 1.26 1.26 0 001.24-1c1-.52 2.08-1.09 3.09-1.72a1.28 1.28 0 00.74.24 1.25 1.25 0 001.27-1.24 1.2 1.2 0 000-.31q1.25-.89 2.43-1.89a1.27 1.27 0 00.57.14 1.25 1.25 0 001.27-1.24 1.21 1.21 0 00-.1-.47 32.68 32.68 0 002.25-2.43A1.25 1.25 0 0034 25.36a1.2 1.2 0 000-.28 28.19 28.19 0 002.17-3.44 1.25 1.25 0 001.24-1.24 1.21 1.21 0 00-.28-.77 24.65 24.65 0 001.3-3.92 1.23 1.23 0 00.57-1.08 1.21 1.21 0 00-.3-.79 23.88 23.88 0 00.3-3.7C39 4.27 37.73 1 34.91 1z" fill="#5e9c76"></path><circle cx="33" cy="14" r="1" fill="#47825e"></circle><circle cx="26" cy="26" r="1" fill="#47825e"></circle><circle cx="10" cy="34" r="1" fill="#47825e"></circle><circle cx="28.5" cy="17.5" r=".5" fill="#47825e"></circle><circle cx="31.5" cy="20.5" r=".5" fill="#47825e"></circle><circle cx="22.5" cy="27.5" r=".5" fill="#47825e"></circle><circle cx="15.5" cy="31.5" r=".5" fill="#47825e"></circle><circle cx="20.5" cy="32.5" r=".5" fill="#47825e"></circle><circle cx="36.5" cy="9.5" r=".5" fill="#47825e"></circle><circle cx="33.5" cy="6.5" r=".5" fill="#47825e"></circle></svg>