<svg viewBox="0 0 40 40" xmlns="http://www.w3.org/2000/svg"><path d="M11.12 37.5a3.49 3.49 0 01-3.4-2.65L4.64 22.5h30.72l-3.09 12.35a3.49 3.49 0 01-3.4 2.65z" fill="#f7c1c1"></path><path d="M34.72 23l-2.93 11.73A3 3 0 0128.88 37H11.12a3 3 0 01-2.91-2.27L5.28 23h29.44M36 22H4l3.24 13a4 4 0 003.88 3h17.76a4 4 0 003.88-3L36 22z" fill="#c74343"></path><path d="M5.07 23.5c-2.44 0-3.57-1.18-3.57-3.7 0-2.29 3-15 16.37-16.2h.22l.13-.18a2.19 2.19 0 013.55 0l.13.18h.22C35.48 4.82 38.5 17.51 38.5 19.8c0 2.52-1.13 3.7-3.57 3.7z" fill="#f5ce85"></path><path d="M20 3a1.7 1.7 0 011.37.7l.27.36h.45C35.07 5.29 38 17.59 38 19.8s-.92 3.2-3.07 3.2H5.07C2.92 23 2 22 2 19.8S4.93 5.29 17.91 4.1h.45l.27-.36A1.7 1.7 0 0120 3m0-1a2.7 2.7 0 00-2.18 1.11C4.19 4.35 1 17.14 1 19.8S2.36 24 5.07 24h29.86Q39 24 39 19.8c0-2.66-3.19-15.45-16.82-16.69A2.7 2.7 0 0020 2z" fill="#967a44"></path><path fill="none" stroke="#c74343" stroke-linecap="round" stroke-miterlimit="10" d="M23.5 37.5l1-12M28.5 37.5l3-12M16.5 37.5l-1-12M11.5 37.5l-3-12"></path><ellipse cx="27" cy="10" rx="1.57" ry="2.35" transform="rotate(-45 27 9.996)" fill="#a6714e"/><ellipse cx="8" cy="17" rx="2.35" ry="1.57" transform="rotate(-45 8.004 17.005)" fill="#a6714e"/><circle cx="17.5" cy="16.5" r="1.5" fill="#a6714e"></circle><circle cx="32.5" cy="17.5" r="1.5" fill="#a6714e"></circle><circle cx="12.5" cy="9.5" r="1.5" fill="#a6714e"></circle></svg>