<svg viewBox="0 0 40 40" xmlns="http://www.w3.org/2000/svg"><path fill="#ffc49c" d="M3.5 8.5h35v24h-35z"></path><path d="M38 9v23H4V9h34m1-1H3v25h36V8z" fill="#a16a4a"></path><path d="M2.5 35.5V34c0-.827.673-1.5 1.5-1.5h34c.827 0 1.5.673 1.5 1.5v1.5h-37z" fill="#ffc49c"></path><path d="M38 33c.551 0 1 .449 1 1v1H3v-1c0-.551.449-1 1-1h34m0-1H4a2 2 0 00-2 2v2h38v-2a2 2 0 00-2-2z" fill="#a16a4a"></path><path fill="#5e9c76" d="M6 11h30v21H6z"></path><path fill="#fff" d="M15 32H9v-3h6l1.5 1.5z"></path><path d="M10.5 24.5c-5.514 0-10-4.486-10-10s4.486-10 10-10 10 4.486 10 10-4.486 10-10 10z" fill="#8bb7f0"></path><path d="M10.5 5c5.238 0 9.5 4.262 9.5 9.5S15.738 24 10.5 24 1 19.738 1 14.5 5.262 5 10.5 5m0-1C4.701 4 0 8.701 0 14.5S4.701 25 10.5 25 21 20.299 21 14.5 16.299 4 10.5 4z" fill="#4e7ab5"></path><circle cx="10.5" cy="14.5" r="7.5" fill="#fff"></circle><circle cx="10.5" cy="14.5" r="1" fill="#36404d"></circle><path fill="none" stroke="#36404d" stroke-miterlimit="10" d="M13.5 18.25l-3-3.75 2.25-6"></path></svg>