<svg viewBox="0 0 40 40" xmlns="http://www.w3.org/2000/svg"><path d="M30.869 33.697l-.347.262C27.454 36.276 23.815 37.5 20 37.5s-7.454-1.224-10.522-3.541l-.347-.262-4.596 4.596-2.828-2.829 4.596-4.596-.262-.347C3.725 27.455 2.5 23.816 2.5 20s1.225-7.455 3.541-10.521l.262-.347-4.596-4.596 2.828-2.829 4.596 4.596.347-.262C12.546 3.724 16.185 2.5 20 2.5s7.454 1.224 10.522 3.541l.347.262 4.596-4.596 2.828 2.829-4.596 4.596.262.347C36.275 12.545 37.5 16.184 37.5 20s-1.225 7.455-3.541 10.521l-.262.347 4.596 4.596-2.828 2.829-4.596-4.596zM20 6.5C12.556 6.5 6.5 12.556 6.5 20S12.556 33.5 20 33.5 33.5 27.444 33.5 20 27.444 6.5 20 6.5z" fill="#8bb7f0"></path><path d="M35.464 2.414l2.121 2.121-3.934 3.935-.615.615.524.695C35.811 12.76 37 16.294 37 20c0 3.706-1.189 7.24-3.44 10.22l-.524.694.615.615 3.934 3.934-2.121 2.121-3.934-3.934-.615-.615-.695.525C27.24 35.811 23.706 37 20 37s-7.24-1.189-10.22-3.44l-.694-.524-.616.615-3.934 3.934-2.121-2.121L6.35 31.53l.615-.615-.525-.695C4.189 27.24 3 23.706 3 20c0-3.706 1.189-7.24 3.44-10.22l.524-.694-.615-.616-3.935-3.934 2.121-2.121L8.47 6.349l.615.615.695-.524C12.76 4.189 16.294 3 20 3s7.24 1.189 10.22 3.44l.694.524.615-.615 3.935-3.935M20 34c7.72 0 14-6.28 14-14S27.72 6 20 6 6 12.28 6 20s6.28 14 14 14M35.464 1l-4.642 4.642C27.808 3.366 24.068 2 20 2S12.192 3.366 9.177 5.642L4.536 1 1 4.536l4.642 4.642A17.893 17.893 0 002 20c0 4.068 1.366 7.808 3.642 10.823L1 35.464 4.536 39l4.642-4.642C12.192 36.634 15.932 38 20 38s7.808-1.366 10.823-3.642L35.464 39 39 35.464l-4.642-4.642A17.893 17.893 0 0038 20c0-4.068-1.366-7.808-3.642-10.823L39 4.536 35.464 1zM20 33c-7.18 0-13-5.82-13-13S12.82 7 20 7s13 5.82 13 13-5.82 13-13 13z" fill="#4e7ab5"></path></svg>