<svg viewBox="0 0 40 40" xmlns="http://www.w3.org/2000/svg"><path fill="none" stroke="#a16a4a" stroke-miterlimit="10" d="M2.667 2.5h34.666"></path><circle cx="1.5" cy="2.5" r="1" fill="#ffc49c"></circle><path d="M1.5 2a.5.5 0 110 1 .5.5 0 010-1m0-1a1.5 1.5 0 10.001 3.001A1.5 1.5 0 001.5 1z" fill="#a16a4a"></path><circle cx="38.5" cy="2.5" r="1" fill="#ffc49c"></circle><path d="M38.5 2a.5.5 0 110 1 .5.5 0 010-1m0-1a1.5 1.5 0 10.001 3.001A1.5 1.5 0 0038.5 1z" fill="#a16a4a"></path><path d="M34 38.5c-.905 0-1.632-.249-2.159-.74l-.341-.318-.341.317c-.527.492-1.254.741-2.159.741s-1.632-.249-2.159-.74l-.341-.318-.341.317c-.527.492-1.254.741-2.159.741-1.667 0-2.332-.857-2.5-1.128V2.5h.064c.193 1.225.81 4 2.436 4s2.242-2.775 2.436-4h.129c.193 1.225.81 4 2.436 4s2.242-2.775 2.436-4h.129c.193 1.225.81 4 2.436 4s2.242-2.775 2.436-4h.062v34.872c-.17.271-.838 1.128-2.5 1.128z" fill="#bae0bd"></path><path d="M31.5 4.414C31.927 5.71 32.683 7 34 7c.908 0 1.549-.613 2-1.418v31.633c-.203.253-.776.785-2 .785-.775 0-1.387-.204-1.818-.606l-.682-.636-.682.636c-.431.402-1.043.606-1.818.606s-1.387-.204-1.818-.606l-.682-.636-.682.636c-.431.402-1.043.606-1.818.606-1.236 0-1.798-.523-2-.782V5.582C22.451 6.387 23.092 7 24 7c1.317 0 2.073-1.29 2.5-2.586C26.927 5.71 27.683 7 29 7s2.073-1.29 2.5-2.586M37 2h-1s-.472 4-2 4-2-4-2-4h-1s-.472 4-2 4-2-4-2-4h-1s-.472 4-2 4-2-4-2-4h-1v35.5s.687 1.5 3 1.5c1.287 0 2.058-.463 2.5-.875.442.412 1.213.875 2.5.875s2.058-.463 2.5-.875c.442.412 1.213.875 2.5.875 2.312 0 3-1.5 3-1.5V2z" fill="#5e9c76"></path><path d="M16 38.5c-.905 0-1.632-.249-2.159-.74l-.341-.318-.341.317c-.527.492-1.254.741-2.159.741s-1.632-.249-2.159-.74l-.341-.318-.341.318c-.527.491-1.254.74-2.159.74-1.667 0-2.332-.857-2.5-1.128V2.5h.064c.193 1.225.81 4 2.436 4s2.242-2.775 2.436-4h.129c.193 1.225.81 4 2.436 4s2.242-2.775 2.436-4h.129c.193 1.225.81 4 2.436 4s2.242-2.775 2.436-4h.062v34.872c-.17.271-.838 1.128-2.5 1.128z" fill="#bae0bd"></path><path d="M13.5 4.414C13.927 5.71 14.683 7 16 7c.908 0 1.549-.613 2-1.418v31.633c-.203.253-.776.785-2 .785-.775 0-1.387-.204-1.818-.606l-.682-.636-.682.636c-.431.402-1.043.606-1.818.606s-1.387-.204-1.818-.606l-.682-.636-.682.636C7.387 37.796 6.775 38 6 38c-1.236 0-1.798-.523-2-.782V5.582C4.451 6.387 5.092 7 6 7c1.317 0 2.073-1.29 2.5-2.586C8.927 5.71 9.683 7 11 7s2.073-1.29 2.5-2.586M19 2h-1s-.472 4-2 4-2-4-2-4h-1s-.472 4-2 4-2-4-2-4H8s-.472 4-2 4-2-4-2-4H3v35.5S3.687 39 6 39c1.287 0 2.058-.463 2.5-.875.442.412 1.213.875 2.5.875s2.058-.463 2.5-.875c.442.412 1.213.875 2.5.875 2.312 0 3-1.5 3-1.5V2z" fill="#5e9c76"></path><path fill="none" stroke="#5e9c76" stroke-miterlimit="10" d="M31.5 38V23.262M8.5 38V19.262M26.5 16V3.262M26.5 38v-3.738M13.5 38v-5.738M13.5 12V3.262"></path></svg>