<svg viewBox="0 0 40 40" xmlns="http://www.w3.org/2000/svg"><path d="M12.5 38.5V28.165l-.199-.15c-3.124-2.352-5.166-5.577-5.602-8.849-.388-2.912.475-5.752 2.565-8.44C11.101 8.363 20.75 5.88 24.155 5.88c3.117 0 8.345 1.262 8.345 9.714v.112l2.924 6.213c.09.19.095.401.016.596a.731.731 0 01-.428.414l-2.512.93V29c0 2.481-2.019 4.5-4.5 4.5h-1.5v5h-14z" fill="#ffeea3"></path><path d="M24.155 6.379c3.579 0 7.845 1.599 7.845 9.214v.224l.095.202 2.877 6.112a.236.236 0 01.005.193.231.231 0 01-.139.134l-2.185.81-.653.243V29c0 2.206-1.794 4-4 4h-2v5H13V27.916l-.399-.3C9.584 25.344 7.613 22.24 7.195 19.1c-.369-2.775.46-5.489 2.464-8.068 1.725-2.219 11.253-4.653 14.496-4.653m0-1c-3.324 0-13.245 2.415-15.285 5.039C3.334 17.539 7.037 24.679 12 28.415V39h15v-5h1a5 5 0 005-5v-4.793l2.185-.81a1.24 1.24 0 00.691-1.691L33 15.594c0-7.706-4.272-10.215-8.845-10.215z" fill="#ba9b48"></path><path d="M12.304 30.17c-.553-1.448-1.689-2.65-2.882-3.913C7.115 23.816 4.5 21.049 4.5 15.403 4.5 7.867 11.018 1.5 18.732 1.5c6.737 0 11.337 2.776 12.604 3.639C30.634 6.258 28.314 9.5 25 9.5h-.5v.5c0 1.943-.948 5.232-4.5 5.232h-.5V19.5h-.768c-1.149.108-3.232 1.078-3.232 3.993v4.259l-3.196 2.418z" fill="#ffc49c"></path><path d="M18.732 2c6.009 0 10.278 2.255 11.912 3.283C29.768 6.558 27.733 9 25 9h-1v1c0 .484-.112 4.732-4 4.732h-1V19h-.316l-.048.005c-1.257.12-3.636 1.214-3.636 4.487v4.01l-2.494 1.887c-.634-1.267-1.656-2.348-2.721-3.476C7.542 23.54 5 20.85 5 15.403 5 8.138 11.289 2 18.732 2m0-1C10.777 1 4 7.449 4 15.403 4 24.742 11.024 26.592 12.036 31L16 28v-4.508C16 20.262 18.732 20 18.732 20H20v-4.268c3.943 0 5-3.589 5-5.732 4.342 0 7-5 7-5s-5.043-4-13.268-4z" fill="#a16a4a"></path><path d="M17.5 16V1.5c0-.551.449-1 1-1s1 .449 1 1V16h-2z" fill="#b0c1d4"></path><path d="M18.5 1a.5.5 0 01.5.5v14h-1v-14a.5.5 0 01.5-.5m0-1A1.5 1.5 0 0017 1.5v15h3v-15A1.5 1.5 0 0018.5 0z" fill="#66798f"></path><path d="M33 29v-1.95a2.5 2.5 0 10-.983 4.901A4.953 4.953 0 0033 29z" fill="#ffeea3"></path><path d="M18.5 22.776v1.345a5.379 5.379 0 005.379 5.379H32" fill="none" stroke="#66798f" stroke-miterlimit="10"></path><circle cx="18.5" cy="17.5" r="5" fill="#b0c1d4"></circle><path d="M18.5 13c2.481 0 4.5 2.019 4.5 4.5S20.981 22 18.5 22 14 19.981 14 17.5s2.019-4.5 4.5-4.5m0-1a5.5 5.5 0 100 11 5.5 5.5 0 100-11z" fill="#66798f"></path><g><circle cx="18.5" cy="17.5" r="1.5" fill="#66798f"></circle></g><g><circle cx="28.5" cy="18.5" r="1.5" fill="#36404d"></circle></g><circle cx="32.5" cy="29.5" r="1.5" fill="#36404d"></circle></svg>