<svg viewBox="0 0 40 40" xmlns="http://www.w3.org/2000/svg"><path d="M2.609 12.29l5.523-2.274a.773.773 0 011.045.517l2.226 8.318-6.082 2.479-2.712-9.04z" fill="#f5ce85"></path><path d="M8.428 10.457c.102 0 .229.064.267.205l2.111 7.893-5.164 2.104-2.424-8.079 5.105-2.102a.277.277 0 01.105-.021m0-1c-.161 0-.326.031-.486.097L2 12l3 10 7-2.852-2.339-8.744a1.274 1.274 0 00-1.233-.947z" fill="#967a44"></path><circle cx="28.5" cy="9.5" r="5" fill="#f5ce85"></circle><path d="M28.5 5C30.981 5 33 7.019 33 9.5S30.981 14 28.5 14 24 11.981 24 9.5 26.019 5 28.5 5m0-1a5.5 5.5 0 100 11 5.5 5.5 0 100-11z" fill="#967a44"></path><path d="M23.5 8.5V5.813l-.123-.142c-.018-.021-1.632-1.899-1.853-4.167 2.803.046 4.163.464 5.598.905 1.672.514 3.397 1.045 7.354 1.087-.133 1.414-.802 2.12-.833 2.152l-.141.145L33.5 8.5h-10z" fill="#8bb7f0"></path><path d="M22.109 2.02c2.34.091 3.572.469 4.866.867 1.547.476 3.282 1.009 6.919 1.099-.194.86-.588 1.291-.601 1.306L33 5.586V8h-9V5.624l-.247-.283c-.015-.016-1.263-1.488-1.644-3.321M21 1c0 2.714 2 5 2 5v3h11V6s1-1 1-3c-8.143 0-7.214-2-14-2z" fill="#4e7ab5"></path><path d="M21.809 9.5l1.5-3h4.156A3.507 3.507 0 0124 9.5h-2.191z" fill="#607d8b"></path><path d="M26.829 7A3.006 3.006 0 0124 9h-1.382l1-2h3.211M28 6h-5l-2 4h3a4 4 0 004-4z" fill="#37474f"></path><g><path d="M20.5 38.5V26.82l-2.848 2.847a2.823 2.823 0 01-2.01.833 2.825 2.825 0 01-2.01-.833L6.85 22.884l3.364-3.364 5.449 5.449 6.277-7.024a4.318 4.318 0 013.211-1.44L30 16.5c3.032 0 5.5 2.467 5.5 5.5v16.5h-15z" fill="#8bb7f0"></path><path d="M30 17c2.757 0 5 2.243 5 5v16H21V25.613l-1.707 1.707-1.994 1.994a2.328 2.328 0 01-1.656.686 2.327 2.327 0 01-1.656-.686l-6.43-6.43 2.657-2.657 4.721 4.721.748.748.705-.789 5.924-6.63a3.821 3.821 0 012.839-1.273l.794-.001a.22.22 0 00.054-.003H30m0-1h-4l-.066.003-.784.001a4.814 4.814 0 00-3.583 1.607l-5.924 6.63-5.429-5.429-4.071 4.071 7.137 7.137c.652.654 1.508.98 2.363.98s1.711-.326 2.363-.979L20 28.027V39h16V22a6 6 0 00-6-6z" fill="#4e7ab5"></path></g><g><path d="M5.141 22.5l-2.5-10h6.536c.363 0 .761.31.849.663l2.062 8.25c.075.302.031.579-.125.778-.155.2-.413.31-.724.31H5.141z" fill="#f78f8f"></path><path d="M9.176 13c.131 0 .332.157.364.284l2.062 8.25c.037.149.025.273-.034.349-.058.075-.175.117-.329.117H5.531l-2.25-9h5.895m0-1H2l2.75 11h6.489c.969 0 1.569-.769 1.334-1.708l-2.062-8.25C10.367 12.469 9.767 12 9.176 12z" fill="#c74343"></path></g><path d="M32.074 17.581L21.071 32.584v5.058L34.386 19.98a4.074 4.074 0 00-2.312-2.399z" fill="#fff"></path><g><path fill="none" stroke="#37474f" stroke-linecap="square" stroke-miterlimit="10" d="M27.5 6.5h2"></path></g></svg>