<svg viewBox="0 0 40 40" xmlns="http://www.w3.org/2000/svg"><circle cx="31.5" cy="9.5" r="5" fill="#f5ce85"></circle><path d="M31.5 5C33.981 5 36 7.019 36 9.5S33.981 14 31.5 14 27 11.981 27 9.5 29.019 5 31.5 5m0-1a5.5 5.5 0 100 11 5.5 5.5 0 100-11z" fill="#967a44"></path><path d="M26.5 8.5V5.813l-.124-.142c-.017-.021-1.631-1.899-1.852-4.167 2.802.046 4.162.464 5.597.905 1.671.514 3.397 1.045 7.355 1.087-.133 1.414-.802 2.12-.833 2.152l-.141.145L36.5 8.5h-10z" fill="#8bb7f0"></path><path d="M25.108 2.02c2.341.091 3.572.469 4.867.867 1.547.476 3.282 1.009 6.919 1.099-.194.86-.588 1.291-.601 1.306L36 5.586V8h-9V6l-.002-.375-.244-.282c-.015-.017-1.266-1.48-1.646-3.323M24 1c0 2.714 2 5 2 5v3h11V6s1-1 1-3c-8.143 0-7.214-2-14-2z" fill="#4e7ab5"></path><path d="M24.809 9.5l1.5-3h4.155A3.505 3.505 0 0127 9.5h-2.191z" fill="#607d8b"></path><path d="M29.829 7A3.006 3.006 0 0127 9h-1.382l1-2h3.211M31 6h-5l-2 4h3a4 4 0 004-4z" fill="#37474f"></path><path d="M23.5 38.5V27.389l-8.2 10.634-3.507-2.704L24.63 18.671A5.462 5.462 0 0129 16.5h4c3.033 0 5.5 2.467 5.5 5.5v16.5h-15z" fill="#8bb7f0"></path><path d="M33 17c2.757 0 5 2.243 5 5v16H24V25.921l-1.792 2.324-6.998 9.077-2.715-2.094 12.534-16.256A4.963 4.963 0 0129 17h4m0-1h-4c-1.946 0-3.67.93-4.766 2.366L11.092 35.41l4.299 3.315L23 28.856V39h16V22a6 6 0 00-6-6z" fill="#4e7ab5"></path><path d="M35.074 17.581L24.071 32.584v5.058L37.386 19.98a4.074 4.074 0 00-2.312-2.399z" fill="#fff"></path><g><path fill="none" stroke="#37474f" stroke-linecap="square" stroke-miterlimit="10" d="M30.5 6.5h2"></path></g><g><path d="M6 39.5A2.503 2.503 0 013.5 37v-1.5h16V37c0 1.378-1.122 2.5-2.5 2.5H6z" fill="#ffc49c"></path><path d="M19 36v1c0 1.103-.897 2-2 2H6c-1.103 0-2-.897-2-2v-1h15m1-1H3v2a3 3 0 003 3h11a3 3 0 003-3v-2z" fill="#a16a4a"></path></g><g><path d="M3 35.5A2.503 2.503 0 01.5 33V22c0-1.378 1.122-2.5 2.5-2.5h.5v16H3z" fill="#ffc49c"></path><path d="M3 20v15c-1.103 0-2-.897-2-2V22c0-1.103.897-2 2-2m1-1H3a3 3 0 00-3 3v11a3 3 0 003 3h1V19z" fill="#a16a4a"></path></g></svg>