<svg viewBox="0 0 40 40" xmlns="http://www.w3.org/2000/svg"><path d="M16.827 28.5l14.729-14.729 2.387 2.387L22.25 27.851a2.202 2.202 0 01-1.566.649h-3.857z" fill="#bdb2de"></path><path d="M31.556 14.479l1.68 1.68-11.339 11.339c-.32.319-.761.502-1.212.502h-2.651l13.522-13.521m0-1.415L16 28.62V29h4.685c.719 0 1.41-.286 1.919-.795L34.65 16.159l-3.094-3.095z" fill="#8b75a1"></path><path fill="#fff" d="M1.5 2.5h26v35h-26z"></path><path d="M27 3v34H2V3h25m1-1H1v36h27V2z" fill="#788b9c"></path><path d="M31 13a4 4 0 108 0 4 4 0 00-8 0zm2 0a2 2 0 114.001.001A2 2 0 0133 13z" fill="#c74343"></path><path fill="#b0c1d4" d="M2 20h4v1H2zM8 20h4v1H8zM14 20h4v1h-4zM20 20h4v1h-4z"></path><g><path d="M16.827 11.5h3.857a2.2 2.2 0 011.566.649l12.014 12.014-2.388 2.387L16.827 11.5z" fill="#dcd5f2"></path><path d="M20.685 12c.451 0 .893.183 1.212.502l11.661 11.66-1.68 1.68L18.034 12h2.651m0-1H16v.38l15.877 15.877 3.094-3.094-12.367-12.368A2.715 2.715 0 0020.685 11z" fill="#8b75a1"></path></g><g><path d="M31 27a4 4 0 108 0 4 4 0 00-8 0zm2 0a2 2 0 114.001.001A2 2 0 0133 27z" fill="#c74343"></path></g></svg>