<svg viewBox="0 0 40 40" xmlns="http://www.w3.org/2000/svg"><path fill="#d6e3ed" d="M9.5 17.5h29v21h-29z"></path><path d="M38 18v20H10V18h28m1-1H9v22h30V17z" fill="#788b9c"></path><path fill="#d6e3ed" d="M35 17h2v22h-2zM31 17h2v22h-2zM27 17h2v22h-2zM23 17h2v22h-2zM19 17h2v22h-2zM15 17h2v22h-2zM11 17h2v22h-2z"></path><path fill="#d6e3ed" d="M9 35h30v2H9zM9 31h30v2H9zM9 27h30v2H9zM9 23h30v2H9zM9 19h30v2H9z"></path><path d="M25.414 26.5a5.468 5.468 0 01-3.89-1.611L7.207 10.571l3.364-3.364L29.864 26.5h-4.45z" fill="#dcd5f2"></path><path d="M10.571 7.914L28.657 26h-3.243a4.97 4.97 0 01-3.536-1.464L7.914 10.571l2.657-2.657m0-1.414L6.5 10.571l14.671 14.671A5.998 5.998 0 0025.414 27h5.658L10.571 6.5z" fill="#8b75a1"></path><path d="M7.015 10.379l-.255.043A4.647 4.647 0 016 10.5c-2.481 0-4.5-2.019-4.5-4.5S3.519 1.5 6 1.5s4.5 2.019 4.5 4.5c0 .266-.039.533-.078.76l-.043.255 2.2 2.2-3.365 3.364-2.199-2.2zM6 3.5C4.621 3.5 3.5 4.622 3.5 6S4.621 8.5 6 8.5 8.5 7.378 8.5 6 7.379 3.5 6 3.5z" fill="#f78f8f"></path><path d="M6 2c2.206 0 4 1.794 4 4 0 .23-.036.47-.071.675l-.087.51.366.366 1.664 1.664-2.657 2.657-1.664-1.664-.366-.366-.51.087A4.108 4.108 0 016 10c-2.206 0-4-1.794-4-4s1.794-4 4-4m0 7c1.654 0 3-1.346 3-3S7.654 3 6 3 3 4.346 3 6s1.346 3 3 3m0-8a5 5 0 000 10c.289 0 .568-.038.844-.085l2.371 2.371 4.071-4.071-2.371-2.371C10.962 6.568 11 6.289 11 6a5 5 0 00-5-5zm0 7a2 2 0 11-.001-3.999A2 2 0 016 8z" fill="#c74343"></path><path fill="#8b75a1" d="M12.791 16.491l3.7-3.7 3.189 3.19-3.7 3.7z"></path><g><path d="M7.207 18.429L21.524 4.111a5.468 5.468 0 013.89-1.611h4.45L10.571 21.793l-3.364-3.364z" fill="#dcd5f2"></path><path d="M28.657 3L10.571 21.086l-2.657-2.657L21.878 4.464A4.97 4.97 0 0125.414 3h3.243m2.414-1h-5.658a6.003 6.003 0 00-4.243 1.757L6.5 18.429l4.071 4.071L31.071 2z" fill="#8b75a1"></path></g><g><path d="M6 27.5c-2.481 0-4.5-2.019-4.5-4.5s2.019-4.5 4.5-4.5c.267 0 .533.04.76.078l.255.043 2.199-2.2 3.365 3.364-2.2 2.2.043.255c.039.227.078.494.078.76 0 2.481-2.019 4.5-4.5 4.5zm0-7c-1.379 0-2.5 1.122-2.5 2.5s1.121 2.5 2.5 2.5 2.5-1.122 2.5-2.5-1.121-2.5-2.5-2.5z" fill="#f78f8f"></path><path d="M9.214 17.129l2.657 2.657-1.664 1.664-.366.366.087.51c.036.204.072.444.072.674 0 2.206-1.794 4-4 4s-4-1.794-4-4 1.794-4 4-4c.23 0 .47.036.675.071l.51.087.366-.366 1.663-1.663M6 26c1.654 0 3-1.346 3-3s-1.346-3-3-3-3 1.346-3 3 1.346 3 3 3m3.214-10.286l-2.371 2.371A4.977 4.977 0 006 18a5 5 0 105 5c0-.289-.038-.568-.085-.844l2.371-2.371-4.072-4.071zM6 25a2 2 0 11-.001-3.999A2 2 0 016 25z" fill="#c74343"></path></g><circle cx="14.555" cy="14.555" r="1" fill="#8b75a1"></circle></svg>