<svg viewBox="0 0 40 40" xmlns="http://www.w3.org/2000/svg"><path d="M7.51 17.5c.264-6.662 5.765-12 12.49-12s12.227 5.338 12.49 12H7.51z" fill="#8bb7f0"></path><path d="M20 6c6.28 0 11.449 4.849 11.959 11H8.041C8.551 10.849 13.72 6 20 6m0-1C12.82 5 7 10.82 7 18h26c0-7.18-5.82-13-13-13z" fill="#4e7ab5"></path><path fill="#b0c1d4" d="M10.5 24.5h19v12h-19z"></path><path d="M29 25v11H11V25h18m1-1H10v13h20V24z" fill="#66798f"></path><path fill="#66798f" d="M13 32h14v1H13zM13 34h14v1H13zM13 30h14v1H13zM13 26h14v1H13zM13 28h14v1H13z"></path><path d="M28.379 38.5l-3.495-12.53a2.04 2.04 0 00-1.966-1.47h-5.836c-.913 0-1.702.587-1.964 1.461L11.621 38.5h-5.89l3.75-13.365c.102-.548.034-.926-.196-1.202C8.964 23.549 8.43 23.5 8 23.5H6.5c-.551 0-1-.449-1-1v-6c0-.551.449-1 1-1h11.037l-1-14h6.926l-1 14H33.5c.551 0 1 .449 1 1v6c0 .551-.449 1-1 1H32c-.43 0-.964.049-1.286.434-.23.276-.297.654-.207 1.156l3.762 13.41h-5.89z" fill="#c2e8ff"></path><path d="M22.926 2l-.923 12.929L21.926 16H33.5a.5.5 0 01.5.5v6a.5.5 0 01-.5.5H32c-.317 0-1.158 0-1.669.614-.326.391-.432.918-.314 1.565l.008.046.013.045L33.609 38h-4.85L25.36 25.817A2.532 2.532 0 0022.918 24h-5.836a2.54 2.54 0 00-2.448 1.836L11.241 38h-4.85l3.572-12.73.013-.045.008-.046c.118-.648.012-1.174-.314-1.565C9.158 23 8.317 23 8 23H6.5a.5.5 0 01-.5-.5v-6a.5.5 0 01.5-.5h11.574l-.077-1.071L17.074 2h5.852M24 1h-8l1 14H6.5A1.5 1.5 0 005 16.5v6A1.5 1.5 0 006.5 24H8c.801 0 1.143.212 1 1L5.071 39H12l3.597-12.895A1.55 1.55 0 0117.082 25h5.836c.684 0 1.288.449 1.485 1.105L28 39h6.929L31 25c-.143-.788.199-1 1-1h1.5a1.5 1.5 0 001.5-1.5v-6a1.5 1.5 0 00-1.5-1.5H23l1-14z" fill="#7496c4"></path><g><path fill="#66798f" d="M32 21h-6l-2 2h-8l-2-2H8v-3h24z"></path></g><path fill="#f75252" d="M14 19h12v1H14z"></path></svg>