<svg viewBox="0 0 40 40" xmlns="http://www.w3.org/2000/svg"><path d="M13.551 29.455c-.796 0-1.543-.063-2.283-.192a12.46 12.46 0 01-2.863-.866c-1.931-.83-3.691-2.323-4.835-4.101-1.069-1.641-1.6-3.405-1.86-4.83.386 1.382 1.063 3.063 2.248 4.556 1.25 1.588 2.968 2.797 4.837 3.404 1.135.382 2.348.577 3.599.577.487 0 .979-.03 1.461-.09 1.606-.187 2.554-.694 3.064-1.086.304-.227.49-.437.591-.571.065-.087.101-.157.101-.157l.036-.063a.996.996 0 011.377-.329c.228.14.387.36.449.62a.993.993 0 01-.121.756l-.136.204c-.054.071-.134.17-.246.29a4.965 4.965 0 01-1.03.823c-1.019.637-2.427 1.009-3.973 1.049-.137.004-.276.006-.416.006z" fill="#b27354"></path><path d="M18.501 26.059c.093 0 .181.025.261.074a.506.506 0 01.152.708l-.089.132a2.972 2.972 0 01-.219.261 4.484 4.484 0 01-.936.745c-.939.588-2.258.932-3.715.97-.134.004-.269.005-.405.005-.767 0-1.485-.06-2.187-.183a12.03 12.03 0 01-3.213-1.043 11.75 11.75 0 004.245.775c.507 0 1.019-.031 1.515-.093 1.724-.201 2.754-.756 3.306-1.179.356-.267.575-.514.699-.679.089-.119.139-.217.139-.217l-.001-.001.023-.037a.49.49 0 01.425-.238M3 8s-.267.457-.637 1.309c-.366.851-.84 2.1-1.155 3.678-.309 1.596-.37 3.474-.15 5.498.23 2.014.855 4.186 2.091 6.083 1.222 1.897 3.063 3.431 5.051 4.285.988.443 2.004.724 2.982.902a13.696 13.696 0 002.798.193c1.76-.045 3.207-.488 4.22-1.122a5.44 5.44 0 001.135-.909c.127-.136.219-.249.294-.351l.111-.164.037-.057a1.5 1.5 0 10-2.557-1.572l-.057.093-.01.019.016-.021s-.022.04-.059.09a2.474 2.474 0 01-.496.476c-.519.398-1.412.822-2.822.986-.441.054-.91.086-1.399.086-1.082 0-2.261-.154-3.444-.553-1.716-.557-3.376-1.683-4.6-3.239-1.232-1.553-2.007-3.484-2.399-5.372-.39-1.888-.5-3.75-.318-5.286.18-1.556.547-2.829.841-3.701C2.771 8.478 3 8 3 8z" fill="#704e34"></path><g><path d="M26.033 29.449c-1.501-.039-2.91-.425-3.968-1.087a5.02 5.02 0 01-1.036-.827 3.364 3.364 0 01-.256-.306l-.1-.148a1.002 1.002 0 011.656-1.125l.062.104s.035.067.097.151c.104.138.289.347.599.579.535.411 1.505.943 3.064 1.124.479.059.97.089 1.457.089 1.251 0 2.463-.195 3.604-.579 1.864-.605 3.583-1.814 4.833-3.404 1.184-1.492 1.861-3.173 2.247-4.555-.261 1.424-.791 3.188-1.859 4.829-1.146 1.779-2.906 3.272-4.83 4.099-.866.388-1.83.68-2.874.87-.736.128-1.483.191-2.279.191-.141.001-.28-.001-.417-.005z" fill="#b27354"></path><path d="M21.499 26.018c.167 0 .322.082.425.234l.026.042-.001.001s.05.097.142.221c.121.161.34.408.686.668.59.453 1.644 1.033 3.308 1.227.502.062 1.014.093 1.521.093a11.747 11.747 0 004.243-.775 11.965 11.965 0 01-3.203 1.042c-.71.124-1.428.184-2.195.184-.136 0-.271-.002-.405-.005-1.413-.036-2.732-.395-3.725-1.017a4.426 4.426 0 01-.925-.738 3.505 3.505 0 01-.198-.23l-.111-.165a.501.501 0 01.412-.782M37 8s.229.478.527 1.351c.294.872.661 2.145.841 3.701.181 1.536.071 3.398-.318 5.287-.392 1.888-1.167 3.82-2.399 5.372-1.224 1.556-2.884 2.682-4.6 3.239a10.793 10.793 0 01-3.444.553c-.489 0-.958-.031-1.399-.086-1.41-.164-2.303-.63-2.822-1.027a2.474 2.474 0 01-.496-.476c-.037-.05-.059-.09-.059-.09a.096.096 0 00.016.021l-.01-.019-.06-.098-.034-.052a1.497 1.497 0 00-2.085-.399 1.5 1.5 0 00-.399 2.084l.111.164c.075.102.167.215.294.351a5.5 5.5 0 001.135.909c1.013.634 2.46 1.117 4.22 1.163a13.704 13.704 0 002.798-.193 12.959 12.959 0 002.982-.902c1.988-.854 3.829-2.388 5.051-4.285 1.236-1.897 1.861-4.069 2.091-6.083.221-2.023.159-3.902-.15-5.498a18.254 18.254 0 00-1.155-3.678C37.267 8.457 37 8 37 8z" fill="#704e34"></path></g></svg>