<svg viewBox="0 0 40 40" xmlns="http://www.w3.org/2000/svg"><path d="M35 26c-1.458 0-3.563 1-5 1-1.438 0-3.542-1-5-1-.772 0-1.725.279-2.664.543L20 9.054c-1.438 0-3.542-1-5-1s-3.563 1-5 1c-1.438 0-3.542-1-5-1-1.148 0-2.692.614-4 .877V39h38V26.877c-1.308-.263-2.852-.877-4-.877z" fill="#8bb7f0"></path><path d="M20 9.054c-1.438 0-3.542-1-5-1s-3.563 1-5 1c-1.438 0-3.542-1-5-1-1.148 0-2.692.614-4 .877v1.023c.574-.103 1.17-.271 1.754-.435.812-.228 1.652-.465 2.246-.465s1.434.237 2.246.465c.934.263 1.9.535 2.754.535s1.82-.272 2.754-.535c.812-.228 1.652-.465 2.246-.465s1.434.237 2.246.465c.934.263 1.899.535 2.754.535v-1zM35 26c-1.458 0-3.563 1-5 1-1.438 0-3.542-1-5-1-1.148 0-2.692.614-4 .877v1.016a18.865 18.865 0 001.754-.428C23.566 27.237 24.406 27 25 27s1.434.237 2.246.465c.934.263 1.9.535 2.754.535s1.82-.272 2.754-.535C33.566 27.237 34.406 27 35 27s1.434.237 2.246.465c.584.165 1.18.332 1.754.435v-1.023c-1.308-.263-2.852-.877-4-.877z" fill="#4e7ab5"></path><path d="M14.5 38.5v-37h.5c3.624 0 6.21 2.33 6.748 6.08l3.688 30.92H14.5z" fill="#4b6477"></path><path d="M15 2c3.357 0 5.753 2.165 6.25 5.627L24.874 38H15V2m0-1h-1v38h12L22.243 7.509C21.649 3.375 18.723 1 15 1z" fill="#36404d"></path></svg>