<svg viewBox="0 0 40 40" xmlns="http://www.w3.org/2000/svg"><path d="M31.654 20.5L25.5 16.72V12.9l7.394 4.6H37c.841 0 1.5.659 1.5 1.5s-.659 1.5-1.5 1.5h-5.346z" fill="#ffeea3"></path><path d="M26 13.8l6.507 4.049.243.151H37c.57 0 1 .43 1 1s-.43 1-1 1h-5.204L26 16.441V13.8M25 12v5l6.513 4H37c1.124 0 2-.876 2-2s-.876-2-2-2h-3.964L25 12z" fill="#ba9b48"></path><path d="M23 38.5c-.841 0-1.5-.659-1.5-1.5V25.5h3V37c0 .841-.659 1.5-1.5 1.5z" fill="#ffeea3"></path><path d="M24 26v11c0 .57-.43 1-1 1s-1-.43-1-1V26h2m1-1h-4v12c0 1.124.876 2 2 2s2-.876 2-2V25z" fill="#ba9b48"></path><path d="M30.964 35.5c-.41 0-.796-.16-1.086-.45L24.5 30.759V24.5h3v4.74l4.591 3.675c.335.339.507.735.471 1.139-.03.343-.212.697-.512.996-.29.29-.676.45-1.086.45z" fill="#ffeea3"></path><path d="M27 25v4.48l.375.3 4.359 3.489c.207.212.65.74-.037 1.427a1.03 1.03 0 01-.733.304c-.277 0-.537-.108-.732-.303l-.04-.04-.044-.035L25 30.518V25h2m1-1h-4v7l5.525 4.404c.397.397.918.596 1.439.596s1.042-.199 1.439-.596c.696-.696 1.054-1.825 0-2.879L28 29v-5z" fill="#ba9b48"></path><path d="M25 9.5c-1.963 0-3.5-1.538-3.5-3.5s1.537-3.5 3.5-3.5c3.931 0 6.471 5.135 7.263 7H25z" fill="#ffc49c"></path><path d="M25 3c3.229 0 5.497 3.886 6.492 6H25c-1.71 0-3-1.29-3-3s1.29-3 3-3m0-1c-2.249 0-4 1.751-4 4s1.751 4 4 4h8s-2.813-8-8-8z" fill="#a16a4a"></path><path d="M21.5 26.5V16c0-1.962 1.537-3.5 3.5-3.5s3.5 1.538 3.5 3.5v4.133l3.639 6.367H21.5z" fill="#8bb7f0"></path><path d="M25 13c1.71 0 3 1.29 3 3v4.266l.132.231L31.277 26H22V16c0-1.71 1.29-3 3-3m0-1c-2.249 0-4 1.751-4 4v11h12l-4-7v-4c0-2.249-1.751-4-4-4z" fill="#4e7ab5"></path><circle cx="13" cy="5" r="3.5" fill="#f78f8f"></circle><path d="M13 2c1.654 0 3 1.346 3 3s-1.346 3-3 3-3-1.346-3-3 1.346-3 3-3m0-1a4 4 0 100 8 4 4 0 000-8z" fill="#c74343"></path><g><path d="M4.5 27c.828 0 1.5.672 1.5 1.5s-1.5 3-1.5 3-1.5-2.172-1.5-3S3.672 27 4.5 27z" fill="#c74343"></path></g><path d="M16.509 4.725l-1.49-2.235c1.956-.279 2.98-1.49 2.98-1.49s.093 2.607-1.49 3.725zM9.51 4.725L11 2.49C9.045 2.211 8.02 1 8.02 1s-.093 2.607 1.49 3.725z" fill="#c74343"></path><g><path d="M10 37.441l-1.5.75V12.5H6.429A4.934 4.934 0 011.5 7.571V5c0-.847.689-1.536 1.536-1.536S4.571 4.153 4.571 5L4.5 7.988C4.5 8.841 5.159 9.5 6 9.5h3.938l3.94.985c.843.169 1.565.579 2.059 1.158l4.855 4.857H25c.841 0 1.5.674 1.5 1.536 0 .835-.645 1.464-1.5 1.464h-5c-.295 0-.5-.05-.609-.149L16.5 16.607V21.9l2.698 7.59-2.611 6.528-1.029-1.286-1.691.483 2.402-5.699-1.784-5.016H11.5v13.691l-1.5-.75z" fill="#f78f8f"></path><path d="M3.036 3.964c.571 0 1.036.465 1.036 1.012L4 8c0 1.122.878 2 2 2h3.877l3.927.981c.699.14 1.338.5 1.754.987l.026.03.028.028 4.681 4.681.293.293H25c.561 0 1 .455 1 1.036 0 .558-.421.964-1 .964h-5a.897.897 0 01-.287-.032l-2.025-1.922L16 15.443V21.985l.058.162 2.606 7.331-2.222 5.556-.285-.356-.416-.52-.64.183-.368.105 1.922-4.559.151-.358-.13-.366-1.599-4.5-.238-.663H11v13.382l-.553-.276-.447-.224-.447.224-.553.276V12H6.429A4.434 4.434 0 012 7.571V5c0-.571.465-1.036 1.036-1.036m0-1A2.036 2.036 0 001 5v2.571A5.428 5.428 0 006.429 13H8v26l2-1 2 1V25h2.133l1.599 4.5L13 35.982l2.375-.679L16.732 37l3-7.5L17 21.813v-4.042l2.055 1.951c.25.225.609.278.945.278h5c1.124 0 2-.84 2-1.964C27 16.911 26.124 16 25 16h-4l-4.681-4.681c-.54-.634-1.355-1.126-2.319-1.319l-4-1H6c-.531 0-1-.406-1-1l.071-3a2.036 2.036 0 00-2.035-2.036z" fill="#c74343"></path></g><path d="M4.5 29v-3c0-1.886 1.422-3.5 3.309-3.5H12" fill="none" stroke="#c74343" stroke-miterlimit="10"></path><path fill="#f78f8f" d="M8 23h4.071v1H8z"></path></svg>