<svg viewBox="0 0 40 40" xmlns="http://www.w3.org/2000/svg"><circle cx="17.5" cy="4.5" r="3" fill="#ffeea3"></circle><path d="M17.5 2C18.878 2 20 3.122 20 4.5S18.878 7 17.5 7 15 5.878 15 4.5 16.122 2 17.5 2m0-1a3.5 3.5 0 100 7 3.5 3.5 0 000-7z" fill="#ba9b48"></path><path fill="#f78f8f" d="M34.5 18.686l3 .964v1.656l-3-1v4.738z"></path><path d="M35 19.372l2 .643v.598l-1.684-.561-.316-.106v-.574M34 18v7.544h1V21l3 1v-2.714L34 18z" fill="#c74343"></path><circle cx="32.5" cy="25.5" r="2" fill="#f78f8f"></circle><path d="M32.5 24c.827 0 1.5.673 1.5 1.5s-.673 1.5-1.5 1.5-1.5-.673-1.5-1.5.673-1.5 1.5-1.5m0-1a2.5 2.5 0 100 5 2.5 2.5 0 000-5z" fill="#c74343"></path><path d="M15.965 39a2.036 2.036 0 01-1.891-1.28L11.146 31a2.032 2.032 0 01.019-1.558L14 22v-2h6l-4.761 10.271 2.615 5.936A2.036 2.036 0 0115.965 39z" fill="#93a8bc"></path><g><path d="M22.964 37.5c-.41 0-.796-.16-1.086-.45l-3.97-4.753a1.561 1.561 0 01-.48-1.118l-.955-7.412-1.973-1.974V20.5h6v10.013l3.516 4.327c.325.328.484.713.484 1.124 0 .41-.16.796-.45 1.086-.29.29-.676.45-1.086.45z" fill="#e1ebf2"></path><path d="M20 21v9.691l.224.276 3.404 4.189.033.04.037.037a1.031 1.031 0 01-.002 1.463 1.025 1.025 0 01-.732.304c-.264 0-.513-.098-.705-.278l-3.967-4.746-.029-.034-.032-.032a1.029 1.029 0 01-.304-.732v-.064l-.007-.064-.929-7.179-.044-.338-.241-.241L15 21.586V21h5m1-1h-7v2l2 2 .929 7.179c0 .54.215 1.058.596 1.439l4 4.786a2.03 2.03 0 002.878 0 2.036 2.036 0 000-2.879L21 30.336V20z" fill="#93a8bc"></path></g><g><path d="M14.5 21.5v-8h-.702l-.204.141-3.527 3.414a1.49 1.49 0 01-1.837.231l-5.001-3a1.493 1.493 0 01-.684-.922 1.49 1.49 0 01.169-1.135 1.495 1.495 0 012.056-.515l3.997 2.397 4.172-4.172c.28-.279.666-.439 1.061-.439h7c.395 0 .781.16 1.061.439l4.172 4.171 3.996-2.397a1.497 1.497 0 012.058.515c.206.343.266.747.169 1.135s-.34.716-.684.922l-5 3a1.498 1.498 0 01-1.832-.225l-3.683-3.56h-.702l-.055.5v7.5h-6z" fill="#ffeea3"></path><path d="M21 10c.263 0 .521.107.707.293l3.896 3.896.552.552.669-.402 3.661-2.196a.996.996 0 011.372.343.996.996 0 01-.343 1.371l-5.001 3a1.002 1.002 0 01-1.231-.162l-3.531-3.414-.292-.281H20v8h-5v-8h-1.464l-.291.281-3.54 3.427a.99.99 0 01-1.219.149l-5.001-3a.987.987 0 01-.455-.614.99.99 0 01.113-.757.988.988 0 01.858-.486c.18 0 .357.049.513.143l3.662 2.197.669.402.552-.552 3.896-3.896c.186-.187.444-.294.707-.294h7m0-1h-7a2 2 0 00-1.414.586L8.69 13.482l-3.662-2.197a1.996 1.996 0 00-2.743.686 2 2 0 00.686 2.744l5.001 3a1.998 1.998 0 002.443-.301L13.941 14H14v8h7v-8h.055l3.531 3.414a1.995 1.995 0 002.443.301l5-3a2 2 0 00-2.058-3.43l-3.661 2.196-3.896-3.896A2.004 2.004 0 0021 9z" fill="#ba9b48"></path></g><g><path d="M14.5 21.5v-8h-.702l-.204.141-.633.613-2.167-2.167 2.146-2.146A1.502 1.502 0 0114 9.5h7c.395 0 .781.16 1.061.439l2.146 2.146-2.169 2.169-.781-.754h-.702l-.055.5v7.5h-6z" fill="#dcd5f2"></path><path d="M21 10c.263 0 .521.107.707.293l1.793 1.793-1.468 1.468-.282-.273-.291-.281H20v8h-5v-8h-1.464l-.291.281-.279.271-1.466-1.466 1.793-1.793c.186-.186.444-.293.707-.293h7m0-1h-7a2 2 0 00-1.414.586l-2.5 2.5 2.869 2.869.986-.955H14v8h7v-8h.055l.989.956 2.87-2.87-2.5-2.5A2 2 0 0021 9z" fill="#8b75a1"></path></g></svg>