<svg viewBox="0 0 40 40" xmlns="http://www.w3.org/2000/svg"><path d="M22.874 29.648l1.064-11.188-3.334-9.514a1.825 1.825 0 01.078-1.404A1.83 1.83 0 0122.339 6.5c.78 0 1.477.495 1.734 1.23l.707 2.016 3.61-6.153a2.211 2.211 0 013.031-.788l5.985 3.512a2.217 2.217 0 01.789 3.031l-5.019 8.551c-.271.462-.67.833-1.156 1.072l-.25.124-1.074 11.297-7.822-.744z" fill="#f5ce85"></path><path d="M30.303 3c.303 0 .602.082.865.236l5.985 3.512a1.717 1.717 0 01.611 2.346l-5.019 8.551a2.25 2.25 0 01-.946.877l-.5.247-.053.555-1 10.521-6.827-.649 1.006-10.581.021-.218-.073-.207-3.297-9.41c-.118-.337-.098-.7.057-1.022A1.333 1.333 0 0122.338 7c.567 0 1.075.36 1.263.896l.35.998.714 2.037 1.092-1.862 3.065-5.222A1.723 1.723 0 0130.303 3m0-1c-.931 0-1.838.48-2.343 1.341l-3.065 5.222-.35-.998a2.34 2.34 0 00-2.979-1.433 2.337 2.337 0 00-1.433 2.979l3.297 9.41-1.101 11.577 8.818.838 1.095-11.517a3.239 3.239 0 001.365-1.267l5.019-8.551a2.714 2.714 0 00-.967-3.715l-5.985-3.513A2.716 2.716 0 0030.303 2z" fill="#967a44"></path><path fill="none" stroke="#967a44" stroke-linecap="round" stroke-linejoin="round" stroke-miterlimit="10" d="M28.433 9.511l3.453-5.884M30.74 10.659l3.454-5.884M33.062 12.101l3.454-5.884"></path><path d="M8.229 25.095l-.25-.124a2.745 2.745 0 01-1.156-1.072l-5.019-8.551a2.217 2.217 0 01.789-3.031l5.985-3.512a2.215 2.215 0 013.032.789l3.61 6.153.707-2.016a1.84 1.84 0 012.342-1.127c.463.163.836.496 1.049.938.213.442.24.941.078 1.404l-3.334 9.514 1.064 11.188-7.823.744-1.074-11.297z" fill="#f5ce85"></path><path d="M9.697 9c.607 0 1.174.325 1.481.847l3.065 5.222 1.092 1.862.714-2.037.35-.998a1.34 1.34 0 011.704-.82c.337.118.608.361.763.683.155.322.175.685.057 1.022l-3.297 9.41-.073.207.021.218 1.006 10.581-6.827.649-1-10.521-.052-.555-.5-.247a2.245 2.245 0 01-.946-.877l-5.019-8.551a1.717 1.717 0 01.611-2.346l5.985-3.512A1.71 1.71 0 019.697 9m0-1c-.467 0-.94.12-1.371.374l-5.985 3.513a2.714 2.714 0 00-.967 3.715l5.019 8.551c.334.569.815.996 1.365 1.267l1.095 11.517 8.818-.838-1.101-11.577 3.297-9.41a2.337 2.337 0 00-4.412-1.547l-.35.998-3.065-5.222A2.712 2.712 0 009.697 8z" fill="#967a44"></path><path fill="none" stroke="#967a44" stroke-linecap="round" stroke-linejoin="round" stroke-miterlimit="10" d="M11.567 15.511L8.114 9.627M9.26 16.659l-3.454-5.884M6.938 18.101l-3.454-5.884"></path><path d="M39 39H1V28.877C2.308 28.614 3.852 28 5 28c1.458 0 3.563 1 5 1 1.438 0 3.542-1 5-1s3.563 1 5 1c1.438 0 3.542-1 5-1s3.563 1 5 1c1.438 0 3.542-1 5-1 1.148 0 2.692.614 4 .877V39z" fill="#8bb7f0"></path><g><path d="M35 28c-1.458 0-3.563 1-5 1-1.438 0-3.542-1-5-1s-3.563 1-5 1c-1.438 0-3.542-1-5-1s-3.563 1-5 1c-1.438 0-3.542-1-5-1-1.148 0-2.692.614-4 .877V29.9c.574-.103 1.17-.271 1.754-.435C3.566 29.237 4.406 29 5 29s1.434.237 2.246.465c.934.263 1.9.535 2.754.535s1.82-.272 2.754-.535C13.566 29.237 14.406 29 15 29s1.434.237 2.246.465c.934.263 1.9.535 2.754.535s1.82-.272 2.754-.535C23.566 29.237 24.406 29 25 29s1.434.237 2.246.465c.934.263 1.9.535 2.754.535s1.82-.272 2.754-.535C33.566 29.237 34.406 29 35 29s1.434.237 2.246.465c.584.165 1.18.332 1.754.435v-1.023c-1.308-.263-2.852-.877-4-.877z" fill="#4e7ab5"></path></g></svg>