<svg viewBox="0 0 40 40" xmlns="http://www.w3.org/2000/svg"><path d="M12.5 38.5l3-2.25v-24.5l-3-2.25H25c2.25 0 6.933 0 10.084 4.742C36.688 16.567 37.5 19.847 37.5 24v.517C37.307 38.5 28.366 38.5 25 38.5H12.5zm6-2h6.865c3.936 0 8.135-.966 8.135-12.5 0-4.441-.526-7.316-1.76-9.613-1.753-2.891-4.491-2.891-5.962-2.891L18.5 11.5v25z" fill="#f78f8f"></path><path d="M25 10c2.163 0 6.664 0 9.677 4.534C36.218 16.766 37 19.951 37 24v.503C36.814 38 28.231 38 25 38H14l1.6-1.2.4-.3v-25l-.4-.3L14 10h11m-7 27h7.366C29.85 37 34 35.425 34 24c0-4.53-.544-7.475-1.819-9.849l-.012-.023-.014-.022c-1.886-3.109-4.807-3.109-6.376-3.109l-.413.002L25 11h-7v26m7-28H11l4 3v24l-4 3h14c3.2 0 12.8 0 13-14.483V24c0-4.655-1-7.862-2.5-10.034C32.2 9 27.3 9 25 9zm-6 27V12h6c.248 0 .509-.004.779-.004 1.803 0 4.024.161 5.521 2.627 1 1.862 1.7 4.411 1.7 9.376 0 11.774-4.53 12-7.634 12H19V36z" fill="#c74343"></path><path d="M3.5 30.5l3-2.25V3.75l-3-2.25H16c2.25 0 6.933 0 10.084 4.742C27.688 8.567 28.5 11.847 28.5 16v.517C28.307 30.5 19.366 30.5 16 30.5H3.5zm6-2H16c3.233 0 8.5 0 8.5-12.5 0-4.441-.526-7.316-1.76-9.613C21.143 3.5 18.048 3.5 16 3.5H9.5v25z" fill="#f78f8f"></path><path d="M16 2c2.163 0 6.664 0 9.677 4.534C27.218 8.766 28 11.951 28 16v.503C27.814 30 19.231 30 16 30H5l1.6-1.2.4-.3v-25l-.4-.3L5 2h11M9 29h7.087C19.202 29 25 29 25 16c0-4.53-.544-7.475-1.825-9.86C21.438 3 18.034 3 16 3H9v26m7-28H2l4 3v24l-4 3h14c3.2 0 12.8 0 13-14.483V16c0-4.655-1-7.862-2.5-10.034C23.2 1 18.3 1 16 1zm-6 27V4h6c2.377 0 4.926.141 6.3 2.624 1 1.862 1.7 4.41 1.7 9.376 0 11.945-4.81 12-7.913 12H10z" fill="#c74343"></path><path fill="#f78f8f" d="M16 26h2v6h-2z"></path><path fill="#c74343" d="M15 26h1v6h-1zM18 26h1v6h-1z"></path></svg>