<svg viewBox="0 0 40 40" xmlns="http://www.w3.org/2000/svg"><path d="M20 38.5C9.799 38.5 1.5 30.201 1.5 20S9.799 1.5 20 1.5 38.5 9.799 38.5 20 30.201 38.5 20 38.5z" fill="#f2faff"></path><path d="M20 2c9.925 0 18 8.075 18 18s-8.075 18-18 18S2 29.925 2 20 10.075 2 20 2m0-1C9.507 1 1 9.507 1 20s8.507 19 19 19 19-8.507 19-19S30.493 1 20 1z" fill="#788b9c"></path><path d="M20 36.5c-9.098 0-16.5-7.402-16.5-16.5S10.902 3.5 20 3.5 36.5 10.902 36.5 20 29.098 36.5 20 36.5z" fill="#f2faff"></path><path d="M20 4c8.822 0 16 7.178 16 16s-7.178 16-16 16S4 28.822 4 20 11.178 4 20 4m0-1C10.611 3 3 10.611 3 20s7.611 17 17 17 17-7.611 17-17S29.389 3 20 3z" fill="#788b9c"></path><path fill="none" stroke="#4e7ab5" stroke-miterlimit="10" d="M20 20l-8.5-8.5"></path><circle cx="20" cy="20" r="1.5" fill="#8bb7f0"></circle><path d="M20 19c.551 0 1 .449 1 1s-.449 1-1 1-1-.449-1-1 .449-1 1-1m0-1a2 2 0 10-.001 3.999A2 2 0 0020 18z" fill="#4e7ab5"></path><path fill="none" stroke="#788b9c" stroke-miterlimit="10" d="M17.304 6.373l-.528-2.583M33.604 17.294l2.606-.518M6.382 22.709l-2.592.515M27.704 8.47l1.478-2.212M31.522 27.699l2.22 1.483M8.458 12.288l-2.2-1.47M12.29 8.461l-1.472-2.203M31.532 12.295l2.21-1.477M8.468 27.706l-2.21 1.476M22.691 6.399l.533-2.609M33.601 22.706l2.609.518M6.397 17.294l-2.607-.518"></path></svg>