<svg viewBox="0 0 40 40" xmlns="http://www.w3.org/2000/svg"><path d="M20 38.5c-7.859 0-14.5-2.748-14.5-6V7h29v25.5c0 3.252-6.641 6-14.5 6z" fill="#dcd5f2"></path><path d="M34 7.5v25c0 2.601-5.75 5.5-14 5.5S6 35.101 6 32.5v-25h28m1-1H5v26c0 3.59 6.716 6.5 15 6.5s15-2.91 15-6.5v-26z" fill="#8b75a1"></path><path d="M20 11.5c-8.674 0-14.5-2.585-14.5-5s5.826-5 14.5-5 14.5 2.585 14.5 5-5.826 5-14.5 5z" fill="#dcd5f2"></path><path d="M20 2c8.674 0 14 2.621 14 4.5S28.674 11 20 11 6 8.379 6 6.5 11.326 2 20 2m0-1C11.716 1 5 3.462 5 6.5S11.716 12 20 12s15-2.462 15-5.5S28.284 1 20 1z" fill="#8b75a1"></path><path d="M34.5 15.183c0 2.936-6.492 5.317-14.5 5.317S5.5 18.12 5.5 15.183M5.5 23.217c0 3.47 6.492 6.283 14.5 6.283s14.5-2.813 14.5-6.283" fill="none" stroke="#8b75a1" stroke-miterlimit="10"></path><g><path d="M31.999 39.468c-1.104-.43-7.363-3.361-7.497-14.533L32 22.525l7.498 2.41c-.134 11.144-6.394 14.099-7.499 14.533z" fill="#ffeea3"></path><path d="M32 23.05l6.991 2.247c-.249 10.01-5.611 13.018-6.989 13.627-1.351-.605-6.742-3.641-6.993-13.627L32 23.05M32 22l-8 2.571C24 37.428 32 40 32 40s8-2.607 8-15.429L32 22z" fill="#ba9b48"></path></g><path d="M31.994 36.648c-1.502-.984-4.361-3.656-4.904-9.919L32 25.151l4.91 1.578c-.541 6.252-3.384 8.92-4.916 9.919z" fill="#ffc49c"></path></svg>