<svg viewBox="0 0 40 40" xmlns="http://www.w3.org/2000/svg"><path d="M20 38.5c-7.859 0-14.5-2.748-14.5-6V7h29v23c-.075.317-1.33 1.15-2.339 1.82-2.223 1.476-5.242 3.481-6.511 6.194A31.952 31.952 0 0120 38.5z" fill="#dcd5f2"></path><path d="M34 7.5v22.348c-.273.332-1.288 1.006-2.114 1.555-2.21 1.467-5.189 3.445-6.573 6.164A31.788 31.788 0 0120 38c-8.25 0-14-2.899-14-5.5v-25h28m1-1H5v26c0 3.59 6.716 6.5 15 6.5 2.133 0 4.163-.193 6-.541 1.875-4.459 9-7.1 9-8.459V6.5z" fill="#8b75a1"></path><path d="M20 11.5c-8.674 0-14.5-2.585-14.5-5s5.826-5 14.5-5 14.5 2.585 14.5 5-5.826 5-14.5 5z" fill="#dcd5f2"></path><path d="M20 2c8.674 0 14 2.621 14 4.5S28.674 11 20 11 6 8.379 6 6.5 11.326 2 20 2m0-1C11.716 1 5 3.462 5 6.5S11.716 12 20 12s15-2.462 15-5.5S28.284 1 20 1z" fill="#8b75a1"></path><path d="M34.5 15.183c0 2.936-6.492 5.317-14.5 5.317S5.5 18.12 5.5 15.183M5.5 23.217c0 3.47 6.492 6.283 14.5 6.283s14.5-2.813 14.5-6.283" fill="none" stroke="#8b75a1" stroke-miterlimit="10"></path><path d="M24.207 39.5L22.5 37.793V36.57l4.469-4.469-.224-.34a1.504 1.504 0 01.194-1.882l.608-.608-.021-.231a6.007 6.007 0 01-.027-.54c0-3.309 2.691-6 6-6s6 2.691 6 6-2.691 6-6 6a6.4 6.4 0 01-.54-.027l-.231-.021-.608.608a1.49 1.49 0 01-1.061.439c-.293 0-.577-.085-.821-.245l-.34-.224-1.468 1.47H26.5v1.93l-1.07 1.07h-1.223z" fill="#f5ce85"></path><path d="M33.5 23c3.033 0 5.5 2.467 5.5 5.5S36.533 34 33.5 34c-.167 0-.331-.011-.494-.025l-.465-.041-.33.33-.444.444a.996.996 0 01-1.255.129l-.68-.446-.575.575L28.222 36H26v2.222l-.777.778h-.808L23 37.586v-.808l4.034-4.034.575-.575-.447-.68a1.003 1.003 0 01.13-1.254l.444-.444.33-.33-.041-.465A5.84 5.84 0 0128 28.5c0-3.033 2.467-5.5 5.5-5.5m0-1a6.5 6.5 0 00-6.5 6.5c0 .197.012.391.029.583l-.444.444a2 2 0 00-.259 2.51L22 36.363V38l2 2h1.637L27 38.637V37h1.637l1.327-1.327a1.995 1.995 0 002.51-.258l.444-.444c.191.017.385.029.582.029a6.5 6.5 0 100-13z" fill="#967a44"></path><g><path d="M35.975 30.975a3.5 3.5 0 10-4.95-4.95l4.95 4.95z" fill="#967a44"></path></g><path fill="none" stroke="#967a44" stroke-miterlimit="10" d="M27.865 33.11l1.951 1.951"></path></svg>