<svg viewBox="0 0 40 40" xmlns="http://www.w3.org/2000/svg"><path fill="#fff" d="M2.5 2.5h35v35h-35z"></path><path d="M37 3v34H3V3h34m1-1H2v36h36V2z" fill="#788b9c"></path><path fill="#c5d4de" d="M31 4v33h-1V4zM24 4v33h-1V4zM17 4v33h-1V4z"></path><path fill="#c5d4de" d="M4 16h33v1H4zM4 23h33v1H4zM4 30h33v1H4z"></path><path fill="#c2e8ff" d="M30.5 2.5h7v7h-7z"></path><path d="M37 3v6h-6V3h6m1-1h-8v8h8V2z" fill="#7496c4"></path><path fill="#c2e8ff" d="M23.5 2.5h7v7h-7z"></path><path d="M30 3v6h-6V3h6m1-1h-8v8h8V2z" fill="#7496c4"></path><path fill="#c2e8ff" d="M16.5 2.5h7v7h-7z"></path><path d="M23 3v6h-6V3h6m1-1h-8v8h8V2z" fill="#7496c4"></path><path fill="#c2e8ff" d="M9.5 2.5h7v7h-7z"></path><path d="M16 3v6h-6V3h6m1-1H9v8h8V2z" fill="#7496c4"></path><g><path fill="#c2e8ff" d="M2.5 2.5h7v7h-7z"></path><path d="M9 3v6H3V3h6m1-1H2v8h8V2z" fill="#7496c4"></path></g><g><path fill="#c2e8ff" d="M2.5 9.5h7v7h-7z"></path><path d="M9 10v6H3v-6h6m1-1H2v8h8V9z" fill="#7496c4"></path></g><g><path fill="#c2e8ff" d="M2.5 16.5h7v7h-7z"></path><path d="M9 17v6H3v-6h6m1-1H2v8h8v-8z" fill="#7496c4"></path></g><g><path fill="#c2e8ff" d="M2.5 23.5h7v7h-7z"></path><path d="M9 24v6H3v-6h6m1-1H2v8h8v-8z" fill="#7496c4"></path></g><g><path fill="#c2e8ff" d="M2.5 30.5h7v7h-7z"></path><path d="M9 31v6H3v-6h6m1-1H2v8h8v-8z" fill="#7496c4"></path></g></svg>