<svg viewBox="0 0 40 40" xmlns="http://www.w3.org/2000/svg"><path d="M19 38.5c-7.86 0-14.5-2.748-14.5-6V7h29v24.5h-2v3.979C28.862 37.347 24.109 38.5 19 38.5z" fill="#dcd5f2"></path><path d="M33 7.5V31h-2v4.216C28.406 36.941 23.877 38 19 38c-8.25 0-14-2.899-14-5.5v-25h28m1-1H4v26c0 3.59 6.716 6.5 15 6.5 5.565 0 10.411-1.316 13-3.266V32h2V6.5z" fill="#8b75a1"></path><path d="M19 11.5c-8.673 0-14.5-2.585-14.5-5s5.827-5 14.5-5 14.5 2.585 14.5 5-5.827 5-14.5 5z" fill="#dcd5f2"></path><path d="M19 2c8.674 0 14 2.621 14 4.5S27.674 11 19 11 5 8.379 5 6.5 10.326 2 19 2m0-1C10.716 1 4 3.462 4 6.5S10.716 12 19 12s15-2.462 15-5.5S27.284 1 19 1z" fill="#8b75a1"></path><path d="M33.5 15.183c0 2.936-6.492 5.317-14.5 5.317S4.5 18.12 4.5 15.183M4.5 23.217c0 3.47 6.492 6.283 14.5 6.283s14.5-2.813 14.5-6.283" fill="none" stroke="#8b75a1" stroke-miterlimit="10"></path><g><path fill="#bae0bd" d="M30.5 39.5v-6h-6v-3h6v-6h3v6h6v3h-6v6z"></path><path d="M33 25v6h6v2h-6v6h-2v-6h-6v-2h6v-6h2m1-1h-4v6h-6v4h6v6h4v-6h6v-4h-6v-6z" fill="#5e9c76"></path></g></svg>