<svg viewBox="0 0 40 40" xmlns="http://www.w3.org/2000/svg"><path d="M20 38.5c-7.859 0-14.5-2.748-14.5-6V7h29v20.416a5.3 5.3 0 00-3-.916c-2.757 0-5 2.019-5 4.5s2.243 4.5 5 4.5a5.57 5.57 0 001.181-.126C30.168 37.258 25.358 38.5 20 38.5z" fill="#dcd5f2"></path><path d="M34 7.5v19.055A5.86 5.86 0 0031.5 26c-3.033 0-5.5 2.243-5.5 5 0 2.512 2.048 4.597 4.705 4.948C28.257 37.13 24.556 38 20 38c-8.25 0-14-2.899-14-5.5v-25h28m1-1H5v26c0 3.59 6.716 6.5 15 6.5 7.239 0 13.279-2.222 14.688-5.178C33.874 34.549 32.746 35 31.5 35c-2.485 0-4.5-1.791-4.5-4s2.015-4 4.5-4c1.422 0 2.675.598 3.5 1.514V6.5z" fill="#8b75a1"></path><path d="M20 11.5c-8.674 0-14.5-2.585-14.5-5s5.826-5 14.5-5 14.5 2.585 14.5 5-5.826 5-14.5 5z" fill="#dcd5f2"></path><path d="M20 2c8.674 0 14 2.621 14 4.5S28.674 11 20 11 6 8.379 6 6.5 11.326 2 20 2m0-1C11.716 1 5 3.462 5 6.5S11.716 12 20 12s15-2.462 15-5.5S28.284 1 20 1z" fill="#8b75a1"></path><path d="M34.5 15.183c0 2.936-6.492 5.317-14.5 5.317S5.5 18.12 5.5 15.183M5.5 23.217c0 3.47 6.492 6.283 14.5 6.283 2.14 0 4.171-.201 6-.561 2.781-1.814 4.406-2.689 6-2.194 1.578-1.006 2.5-2.22 2.5-3.528" fill="none" stroke="#8b75a1" stroke-miterlimit="10"></path><g><path d="M29.924 39.502l-.36-2.158-.307-.085a6.519 6.519 0 01-2.806-1.618l-.228-.224-2.047.767-1.076-1.863 1.69-1.393-.079-.309c-.141-.546-.212-1.09-.212-1.617s.071-1.071.212-1.617l.079-.309-1.69-1.393 1.076-1.863 2.047.767.228-.224a6.503 6.503 0 012.806-1.618l.307-.085.36-2.158h2.152l.36 2.158.307.085a6.519 6.519 0 012.806 1.618l.228.224 2.047-.767 1.076 1.863-1.69 1.393.079.309c.141.546.212 1.09.212 1.617s-.071 1.071-.212 1.617l-.079.309 1.69 1.393-1.076 1.863-2.047-.767-.228.224a6.503 6.503 0 01-2.806 1.618l-.307.085-.36 2.158h-2.152zm1.076-12c-1.93 0-3.5 1.57-3.5 3.5s1.57 3.5 3.5 3.5 3.5-1.57 3.5-3.5-1.57-3.5-3.5-3.5z" fill="#8bb7f0"></path><path d="M31.653 23.002l.238 1.426.105.628.614.171a5.997 5.997 0 012.59 1.493l.455.446.596-.223 1.352-.506.653 1.131-1.118.92-.491.404.158.616c.129.507.195 1.01.195 1.494s-.066.987-.196 1.494l-.158.616.491.404 1.118.92-.653 1.131-1.352-.506-.596-.223-.455.446a5.997 5.997 0 01-2.59 1.493l-.614.171-.105.628-.238 1.426h-1.306l-.238-1.426-.105-.628-.614-.171a5.997 5.997 0 01-2.59-1.493l-.455-.446-.596.223-1.352.506-.653-1.131 1.118-.92.491-.404-.158-.616c-.128-.507-.194-1.01-.194-1.494s.066-.987.196-1.494l.158-.616-.491-.404-1.118-.92.653-1.131 1.352.506.596.223.455-.446a6.007 6.007 0 012.59-1.493l.614-.171.105-.628.238-1.426h1.305m-.653 12c2.206 0 4-1.794 4-4s-1.794-4-4-4-4 1.794-4 4 1.794 4 4 4m1.5-13h-3l-.377 2.262a6.982 6.982 0 00-3.022 1.742l-2.145-.804-1.5 2.598 1.772 1.459c-.144.559-.228 1.14-.228 1.743s.084 1.184.227 1.742l-1.772 1.458 1.5 2.598 2.145-.804a6.982 6.982 0 003.022 1.742L29.499 40h3l.377-2.262a6.982 6.982 0 003.022-1.742l2.145.804 1.5-2.598-1.772-1.458c.145-.558.229-1.139.229-1.742s-.084-1.184-.227-1.742l1.772-1.459-1.5-2.598-2.145.804a6.982 6.982 0 00-3.022-1.742l-.378-2.263zm-1.5 12a3 3 0 110-6 3 3 0 010 6z" fill="#4e7ab5"></path></g></svg>