<svg viewBox="0 0 40 40" xmlns="http://www.w3.org/2000/svg"><path fill="#f5ce85" d="M4.5 21.5v-8.412L8.351 2.5h23.298L35.5 13.088V21.5z"></path><path d="M31.3 3L35 13.176V21H5v-7.824L8.7 3h22.6m.7-1H8L4 13v9h32v-9L32 2z" fill="#967a44"></path><path fill="#deb974" d="M7 19h26v-5.471L29.899 5H10.101L7 13.529z"></path><path d="M4.5 37.5v-24h10.022c.253 2.8 2.613 5 5.478 5s5.225-2.2 5.478-5H35.5v24h-31z" fill="#f5ce85"></path><path d="M35 14v23H5V14h9.083c.477 2.834 2.949 5 5.917 5s5.439-2.166 5.917-5H35m1-1H25a5 5 0 01-10 0H4v25h32V13z" fill="#967a44"></path><circle cx="20" cy="28" r="6.5" fill="#fff"></circle><path d="M20 22c3.308 0 6 2.692 6 6s-2.692 6-6 6-6-2.692-6-6 2.692-6 6-6m0-1a7 7 0 100 14 7 7 0 000-14z" fill="#ba9b48"></path><path fill="none" stroke="#66798f" stroke-miterlimit="10" d="M22.706 24.002L20 28l2.262 2.262"></path><g><circle cx="20" cy="28" r="1" fill="#66798f"></circle></g></svg>