<svg viewBox="0 0 40 40" xmlns="http://www.w3.org/2000/svg"><path d="M5 27.5c-.827 0-1.5-.673-1.5-1.5v-7.5h3V26c0 .827-.673 1.5-1.5 1.5z" fill="#f5ce85"></path><path d="M6 19v7c0 .551-.449 1-1 1s-1-.449-1-1v-7h2m1-1H3v8a2 2 0 104 0v-8z" fill="#967a44"></path><path d="M21.001 25.5a1.49 1.49 0 01-1.279-.716l-3.413-5.563 2.558-1.569 3.412 5.563c.209.342.273.745.18 1.134a1.501 1.501 0 01-1.458 1.151z" fill="#f5ce85"></path><path d="M18.701 18.34l3.151 5.137c.14.228.182.496.12.756s-.222.48-.45.619a.993.993 0 01-1.374-.329l-3.151-5.137 1.704-1.046m.33-1.376l-3.41 2.091 3.674 5.99a1.997 1.997 0 002.751.66 2 2 0 00.659-2.751l-3.674-5.99z" fill="#967a44"></path><path d="M13.929 38.5c-.82 0-1.509-.641-1.567-1.46l-.682-9.54h-1.36l-.682 9.541A1.576 1.576 0 018.071 38.5 1.573 1.573 0 016.5 36.929V25.5h-3V18c0-3.033 2.468-5.5 5.5-5.5h3.656a5.53 5.53 0 014.695 2.636l4.687 7.648-2.551 1.657-3.987-6.546v19.034c0 .866-.705 1.571-1.571 1.571z" fill="#735f63"></path><path d="M12.656 13c1.731 0 3.367.918 4.27 2.398l4.431 7.232-1.711 1.112-2.793-4.584L15 16.113V36.929c0 .59-.481 1.071-1.071 1.071a1.076 1.076 0 01-1.069-.995l-.648-9.076-.067-.929h-2.29l-.066.929-.649 9.076c-.04.558-.509.995-1.069.995C7.481 38 7 37.519 7 36.929V25H4v-7c0-2.757 2.243-5 5-5H12.656m0-1H9a6 6 0 00-6 6v8h3v10.929a2.07 2.07 0 004.137.147L10.786 28h.429l.648 9.076A2.07 2.07 0 0016 36.929V19.677l3.328 5.464 3.391-2.203-4.94-8.062A6.002 6.002 0 0012.656 12z" fill="#4d3e40"></path><path d="M14.693 18.643h-1.836v-2.714s.311-1.695 1.357-1.695 2.075 2.412 2.075 2.412l-1.596 1.997z" fill="#735f63"></path><path fill="none" stroke="#4d3e40" stroke-miterlimit="10" d="M6.5 26.143V18"></path><path d="M11 15.429c-1.006 0-1.392-.505-1.5-.692V10.3h3v4.438c-.104.179-.488.691-1.5.691z" fill="#deb974"></path><path d="M12 10.8v3.781c-.122.141-.402.347-1 .347-.608 0-.888-.214-1-.339V10.8h2m1-1H9v5.051s.399 1.077 2 1.077 2-1.077 2-1.077V9.8z" fill="#967a44"></path><path d="M14.22 8.26c-.485 0-.88-.395-.88-.88s.395-.88.88-.88c.493 0 .88.381.88.868a.887.887 0 01-.88.892zm-6.44 0c-.485 0-.88-.4-.88-.892 0-.487.387-.868.88-.868a.88.88 0 010 1.76z" fill="#deb974"></path><path d="M14.22 7a.37.37 0 01.38.368.392.392 0 01-.38.392.38.38 0 110-.76M7.78 7a.38.38 0 110 .76.391.391 0 01-.38-.392A.37.37 0 017.78 7m6.44-1a1.38 1.38 0 000 2.76c.762 0 1.38-.63 1.38-1.392A1.37 1.37 0 0014.22 6zM7.78 6A1.37 1.37 0 006.4 7.368 1.39 1.39 0 007.78 8.76a1.38 1.38 0 000-2.76z" fill="#967a44"></path><path d="M11 11.5c-1.93 0-3.5-1.57-3.5-3.5V5.512c0-1.109.903-2.012 2.013-2.012h2.975c1.109 0 2.013.903 2.013 2.012V8A3.505 3.505 0 0111 11.5z" fill="#f5ce85"></path><path d="M12.488 4C13.322 4 14 4.678 14 5.512V8c0 1.654-1.346 3-3 3S8 9.654 8 8V5.512C8 4.678 8.678 4 9.512 4h2.976m0-1H9.512A2.512 2.512 0 007 5.512V8a4 4 0 008 0V5.512A2.512 2.512 0 0012.488 3z" fill="#967a44"></path><path d="M14.5 6.664l-2.405-2.261L7.5 6.562V7.69l-.069-.034C7.305 7.128 7 5.775 7 5c0-3.248 3.066-3.5 4.006-3.5 1.344 0 1.781.715 1.799.746l.146.246.289.008C14.771 2.5 15 4.066 15 5c0 .794-.304 2.133-.43 2.656l-.07.035V6.664z" fill="#a6714e"></path><path d="M11.006 2c1.014 0 1.352.477 1.355.477l.284.523h.595c1.041 0 1.26 1.088 1.26 2 0 .246-.034.563-.085.897l-1.73-1.626-.495-.465-.615.289-3.978 1.869A6.691 6.691 0 017.5 5c0-2.708 2.452-3 3.506-3m0-1C8.837 1 6.5 2.023 6.5 5c0 1.048.5 3 .5 3l1 .5V6.88L12 5l2 1.88V8.5l1-.5s.5-1.927.5-3c0-2.002-.928-3-2.26-3 0 0-.542-1-2.234-1z" fill="#7a4f34"></path><path fill="#735f63" d="M9 13h4v7.8H9z"></path><path fill="#fff" d="M11 18.429L9 13h4z"></path><path d="M36 27.5c-.827 0-1.5-.673-1.5-1.5v-7.5h3V26c0 .827-.673 1.5-1.5 1.5z" fill="#f5ce85"></path><path d="M37 19v7c0 .551-.449 1-1 1s-1-.449-1-1v-7h2m1-1h-4v8a2 2 0 104 0v-8z" fill="#967a44"></path><path d="M19.999 25.5c-.275 0-.546-.077-.782-.222a1.488 1.488 0 01-.675-.929 1.488 1.488 0 01.18-1.133l3.412-5.564 2.558 1.569-3.412 5.563a1.495 1.495 0 01-1.281.716z" fill="#f5ce85"></path><path d="M22.299 18.34l1.705 1.046-3.151 5.137a.996.996 0 01-1.376.329.998.998 0 01-.33-1.375l3.152-5.137m-.33-1.376l-3.674 5.99a2 2 0 00.659 2.751 1.998 1.998 0 002.751-.66l3.674-5.99-3.41-2.091z" fill="#967a44"></path><g><path d="M32.929 38.5c-.82 0-1.509-.641-1.567-1.46l-.682-9.54h-1.36l-.682 9.541a1.577 1.577 0 01-1.567 1.459 1.573 1.573 0 01-1.571-1.571V17.895l-3.987 6.546-2.551-1.657 4.687-7.647a5.53 5.53 0 014.695-2.637H32c3.033 0 5.5 2.467 5.5 5.5v7.5h-3v11.429c0 .866-.705 1.571-1.571 1.571z" fill="#b0c1d4"></path><path d="M32 13c2.757 0 5 2.243 5 5v7h-3v11.929c0 .59-.481 1.071-1.071 1.071a1.076 1.076 0 01-1.069-.995l-.648-9.076-.067-.929H28.854l-.066.929-.648 9.076c-.04.558-.509.995-1.069.995-.59 0-1.071-.481-1.071-1.071V16.113l-1.854 3.044-2.793 4.584-1.711-1.112 4.432-7.233A5.033 5.033 0 0128.344 13H32m0-1H28.344a6 6 0 00-5.122 2.875l-4.94 8.062 3.391 2.203L25 19.677V36.929a2.07 2.07 0 004.137.147L29.786 28h.429l.648 9.076A2.07 2.07 0 0035 36.929V26h3v-8a6 6 0 00-6-6z" fill="#66798f"></path></g><path d="M26.307 18.643h1.836v-2.714s-.311-1.695-1.357-1.695-2.075 2.412-2.075 2.412l1.596 1.997z" fill="#b0c1d4"></path><path fill="none" stroke="#66798f" stroke-miterlimit="10" d="M34.5 26.143V18"></path><g><path d="M30 15.429c-1.006 0-1.392-.505-1.5-.692V10.3h3v4.438c-.104.179-.488.691-1.5.691z" fill="#deb974"></path><path d="M31 10.8v3.781c-.122.141-.402.347-1 .347-.608 0-.888-.214-1-.339V10.8h2m1-1h-4v5.051s.399 1.077 2 1.077 2-1.077 2-1.077V9.8z" fill="#967a44"></path></g><g><path d="M33.22 8.26c-.485 0-.88-.395-.88-.88s.395-.88.88-.88c.493 0 .88.381.88.868a.887.887 0 01-.88.892zm-6.44 0c-.485 0-.88-.4-.88-.892 0-.487.387-.868.88-.868a.88.88 0 010 1.76z" fill="#deb974"></path><path d="M33.22 7a.37.37 0 01.38.368.392.392 0 01-.38.392.38.38 0 110-.76m-6.44 0a.38.38 0 110 .76.391.391 0 01-.38-.392.37.37 0 01.38-.368m6.44-1a1.38 1.38 0 000 2.76c.762 0 1.38-.63 1.38-1.392A1.37 1.37 0 0033.22 6zm-6.44 0a1.37 1.37 0 00-1.38 1.368 1.39 1.39 0 001.38 1.392 1.38 1.38 0 000-2.76z" fill="#967a44"></path></g><g><path d="M30 11.5c-1.93 0-3.5-1.57-3.5-3.5V5.512c0-1.109.903-2.012 2.013-2.012h2.975c1.109 0 2.013.903 2.013 2.012V8A3.505 3.505 0 0130 11.5z" fill="#f5ce85"></path><path d="M31.488 4C32.322 4 33 4.678 33 5.512V8c0 1.654-1.346 3-3 3s-3-1.346-3-3V5.512C27 4.678 27.678 4 28.512 4h2.976m0-1h-2.975A2.513 2.513 0 0026 5.512V8a4 4 0 008 0V5.512A2.512 2.512 0 0031.488 3z" fill="#967a44"></path></g><g><path d="M33.5 6.664l-2.405-2.261L26.5 6.562V7.69l-.069-.035C26.305 7.128 26 5.775 26 5c0-3.248 3.066-3.5 4.006-3.5 1.344 0 1.781.715 1.799.746l.146.246.289.008C33.771 2.5 34 4.066 34 5c0 .794-.304 2.133-.43 2.656l-.07.035V6.664z" fill="#a6714e"></path><path d="M30.006 2c1.014 0 1.352.477 1.355.477l.284.523h.595c1.041 0 1.26 1.088 1.26 2 0 .246-.034.563-.085.897l-1.73-1.626-.495-.465-.615.289-3.978 1.869A6.691 6.691 0 0126.5 5c0-2.708 2.452-3 3.506-3m0-1C27.837 1 25.5 2.023 25.5 5c0 1.048.5 3 .5 3l1 .5V6.88L31 5l2 1.88V8.5l1-.5s.5-1.927.5-3c0-2.002-.928-3-2.26-3 0 0-.542-1-2.234-1z" fill="#7a4f34"></path></g><path fill="#b0c1d4" d="M32 20.8h-4V13h4z"></path><path fill="#fff" d="M30 18.429L32 13h-4z"></path></svg>