<svg viewBox="0 0 40 40" xmlns="http://www.w3.org/2000/svg"><path d="M33 27.5c-.827 0-1.5-.673-1.5-1.5v-8.5h3V26c0 .827-.673 1.5-1.5 1.5z" fill="#f5ce85"></path><path d="M34 18v8c0 .551-.449 1-1 1s-1-.449-1-1v-8h2m1-1h-4v9a2 2 0 104 0v-9z" fill="#967a44"></path><path d="M19.718 25.731a1.218 1.218 0 01-1.144-1.634l2.803-7.691 2.287.833-2.803 7.691a1.22 1.22 0 01-1.143.801z" fill="#f5ce85"></path><path d="M21.675 17.047l1.347.491-2.631 7.221a.72.72 0 01-.919.428.717.717 0 01-.428-.919l2.631-7.221m-.597-1.282l-2.974 8.161a1.717 1.717 0 103.226 1.175l2.974-8.161-3.226-1.175z" fill="#967a44"></path><path d="M30 38.5c-.827 0-1.5-.673-1.5-1.5V25.5h3V37c0 .827-.673 1.5-1.5 1.5z" fill="#f5ce85"></path><path d="M31 26v11c0 .551-.449 1-1 1s-1-.449-1-1V26h2m1-1h-4v12a2 2 0 104 0V25z" fill="#967a44"></path><path d="M27 38.5c-.827 0-1.5-.673-1.5-1.5V25.5h3V37c0 .827-.673 1.5-1.5 1.5z" fill="#f5ce85"></path><path d="M28 26v11c0 .551-.449 1-1 1s-1-.449-1-1V26h2m1-1h-4v12a2 2 0 104 0V25z" fill="#967a44"></path><path d="M24.5 23.643v-5.737l-3.12-1.558c.513-1.431 1.43-3.56 4.482-3.818.121-.017.194-.029.27-.029h4.081c.167 0 .34.023.544.074 2.182.387 3.743 2.246 3.743 4.425v.5h-2v6.143h-8z" fill="#ffc49c"></path><path d="M30.213 13c.125 0 .26.019.425.059l.032.008.032.006A3.987 3.987 0 0134 17h-2v6.143h-7v-5.546l-.553-.276-2.442-1.219c.516-1.314 1.421-2.864 3.899-3.073l.049-.005.031-.005c.05-.008.098-.019.148-.019H30.213m0-1H26.132c-.107 0-.209.016-.312.031-3.699.313-4.561 3.164-5.06 4.566L24 18.215v5.928h9V18h2v-1a4.993 4.993 0 00-4.123-4.912 2.797 2.797 0 00-.664-.088z" fill="#a16a4a"></path><path d="M28.5 30.357c-3.29 0-6.083-.808-7.146-1.161l3.497-9.696h7.276l2.907 9.714c-.895.351-3.279 1.143-6.534 1.143z" fill="#ffc49c"></path><path d="M31.755 20l2.666 8.907c-1.073.373-3.177.95-5.922.95-2.801 0-5.235-.6-6.498-.981l3.2-8.876h6.554m.745-1h-8l-3.786 10.5s3.444 1.357 7.786 1.357 7.143-1.357 7.143-1.357L32.5 19z" fill="#a16a4a"></path><path d="M28.5 14.43c-1.006 0-1.392-.505-1.5-.691v-2.632l-.214-.149A3.005 3.005 0 0125.5 8.5V4.1h6v4.4c0 .975-.48 1.894-1.286 2.457l-.214.149v2.634c-.104.179-.488.69-1.5.69z" fill="#f5ce85"></path><path d="M31 4.6v3.9c0 .812-.401 1.577-1.073 2.047l-.427.299v2.743c-.113.124-.398.341-1 .341-.608 0-.888-.214-1-.339v-2.745l-.427-.299A2.503 2.503 0 0126 8.5V4.6h5m1-1h-7v4.9c0 1.188.595 2.234 1.5 2.867v2.486s.399 1.077 2 1.077 2-1.077 2-1.077v-2.486A3.493 3.493 0 0032 8.5V3.6z" fill="#967a44"></path><path d="M31.5 6.486l-2.253-1.679-3.747 1.6v3.952l-2.993-.748C22.608 6.597 23.896 1.5 28.25 1.5c1.289 0 1.812.745 1.833.776l.149.218.268.006c3.409 0 3.913 5.574 3.987 7.113l-2.987.746V6.486z" fill="#a6714e"></path><path d="M28.25 2c1.001 0 1.408.541 1.41.543l.296.457h.544c2.691 0 3.315 4.407 3.458 6.23L32 9.719V6.236l-.403-.3-1.821-1.357-.461-.344-.529.226-3.179 1.357-.607.259V9.719l-1.974-.493C23.214 6.361 24.459 2 28.25 2m0-1C23.629 1 22 6.25 22 10l4 1V6.737l3.179-1.357L31 6.737V11l4-1s-.022-8-4.5-8c0 0-.646-1-2.25-1z" fill="#7a4f34"></path><path fill="#ffc49c" d="M30.571 17.286h-4.07v-4.071h4.07z"></path><path d="M25.448 13.132L26.464 12s1.011 1 2.036 1l-1.549 2.584-1.503-2.452zM31.552 13.324L30.536 12s-1.011 1-2.036 1l1.549 2.584 1.503-2.26z" fill="#fff"></path><path d="M7 27.5c-.827 0-1.5-.673-1.5-1.5v-8.5h3V26c0 .827-.673 1.5-1.5 1.5z" fill="#f5ce85"></path><path d="M8 18v8c0 .551-.449 1-1 1s-1-.449-1-1v-8h2m1-1H5v9a2 2 0 104 0v-9z" fill="#967a44"></path><path d="M20.283 25.731c-.51 0-.97-.322-1.145-.801l-2.803-7.691 2.287-.833 2.803 7.691c.111.306.098.636-.04.931a1.208 1.208 0 01-.687.629 1.207 1.207 0 01-.415.074z" fill="#f5ce85"></path><path d="M18.325 17.047l2.631 7.221a.718.718 0 01-1.347.491l-2.631-7.221 1.347-.491m.597-1.282l-3.227 1.176 2.974 8.161a1.718 1.718 0 103.226-1.175l-2.973-8.162z" fill="#967a44"></path><g><path d="M10 38.5c-.827 0-1.5-.673-1.5-1.5V25.5h3V37c0 .827-.673 1.5-1.5 1.5z" fill="#f5ce85"></path><path d="M11 26v11c0 .551-.449 1-1 1s-1-.449-1-1V26h2m1-1H8v12a2 2 0 104 0V25z" fill="#967a44"></path></g><g><path d="M13 38.5c-.827 0-1.5-.673-1.5-1.5V25.5h3V37c0 .827-.673 1.5-1.5 1.5z" fill="#f5ce85"></path><path d="M14 26v11c0 .551-.449 1-1 1s-1-.449-1-1V26h2m1-1h-4v12a2 2 0 104 0V25z" fill="#967a44"></path></g><g><path d="M7.5 23.643V17.5h-2V17a4.486 4.486 0 013.711-4.419c.236-.058.409-.081.576-.081h4.081c.075 0 .148.013.222.023 3.098.265 4.018 2.393 4.53 3.824l-3.12 1.558v5.737h-8z" fill="#f78f8f"></path><path d="M13.868 13c.05 0 .098.011.165.021l.031.005.031.003c2.478.21 3.383 1.76 3.899 3.073l-2.442 1.219-.552.276v5.546H8V17H6a3.987 3.987 0 013.298-3.927l.032-.006.032-.008c.165-.04.3-.059.425-.059H13.868m0-1H9.787c-.23 0-.45.036-.664.088A4.993 4.993 0 005 17v1h2v6.143h9v-5.928l3.24-1.617c-.499-1.402-1.361-4.253-5.06-4.566-.103-.016-.205-.032-.312-.032z" fill="#c74343"></path></g><g><path d="M11.5 30.357c-3.255 0-5.639-.792-6.535-1.143L7.872 19.5h7.276l3.497 9.696c-1.062.353-3.855 1.161-7.145 1.161z" fill="#f78f8f"></path><path d="M14.798 20l3.2 8.876c-1.263.381-3.697.981-6.498.981-2.745 0-4.85-.577-5.922-.95L8.245 20h6.553m.702-1h-8L4.357 29.5s2.801 1.357 7.143 1.357 7.786-1.357 7.786-1.357L15.5 19z" fill="#c74343"></path></g><g><path d="M11.5 14.43c-1.006 0-1.392-.505-1.5-.691v-2.632l-.214-.149A3.005 3.005 0 018.5 8.5V4.1h6v4.4c0 .975-.48 1.894-1.286 2.457l-.214.149v2.634c-.104.179-.488.69-1.5.69z" fill="#f5ce85"></path><path d="M14 4.6v3.9c0 .812-.401 1.577-1.073 2.047l-.427.299v2.743c-.113.124-.398.341-1 .341-.608 0-.888-.214-1-.339v-2.745l-.427-.299A2.503 2.503 0 019 8.5V4.6h5m1-1H8v4.9c0 1.188.595 2.234 1.5 2.867v2.486s.399 1.077 2 1.077 2-1.077 2-1.077v-2.486A3.493 3.493 0 0015 8.5V3.6z" fill="#967a44"></path></g><g><path d="M14.5 6.486l-2.253-1.679-3.747 1.6v3.952l-2.993-.748C5.608 6.597 6.896 1.5 11.25 1.5c1.289 0 1.812.745 1.833.776l.149.218.268.006c3.409 0 3.913 5.574 3.987 7.113l-2.987.746V6.486z" fill="#a6714e"></path><path d="M11.25 2c1.001 0 1.408.541 1.41.543l.296.457h.544c2.691 0 3.315 4.407 3.458 6.23L15 9.719V6.236l-.403-.3-1.821-1.357-.461-.344-.529.226-3.179 1.357L8 6.077V9.719l-1.974-.493C6.214 6.361 7.459 2 11.25 2m0-1C6.629 1 5 6.25 5 10l4 1V6.737l3.179-1.357L14 6.737V11l4-1s-.022-8-4.5-8c0 0-.646-1-2.25-1z" fill="#7a4f34"></path></g><path fill="#f78f8f" d="M9.429 13.214H13.5v4.071H9.429z"></path><path d="M14.552 13.132L13.536 12s-1.011 1-2.036 1l1.549 2.584 1.503-2.452zM8.448 13.324L9.464 12s1.011 1 2.036 1l-1.549 2.584-1.503-2.26z" fill="#fff"></path></svg>