<svg viewBox="0 0 40 40" xmlns="http://www.w3.org/2000/svg"><path d="M8.562 37.5c.547-4.564.976-7.25 1.65-11.054l.138-.774-.76.204c-.024.006-2.352.624-4.59.624-.745 0-1.5-.515-1.5-1.5 0-.906 1.399-1.896 2.881-2.943.3-.212.606-.429.914-.653.889-.648 3.816-2.871 4.188-4.276C14.069 7.337 17.982.5 21 .5c2.108 0 4.981 4.271 8.539 12.694l.129.306H30c.92 0 2.774-1.331 3.473-3.335.3-.865.693-1.665 1.527-1.665.745 0 1.5.515 1.5 1.5 0 6.108-2.81 9.303-4.319 11.02-.224.254-.418.476-.572.669l-.145.183.046.228c.699 3.443 1.021 6.646 1.395 10.355.158 1.568.325 3.23.534 5.045H8.562z" fill="#dcd5f2"></path><path d="M21 1c1.062 0 3.525 1.61 8.079 12.389l.258.611H30c1.233 0 3.224-1.604 3.944-3.671C34.273 9.385 34.579 9 35 9c.371 0 1 .211 1 1 0 5.92-2.729 9.023-4.195 10.69-.229.261-.429.489-.587.687l-.29.365.093.457c.694 3.419 1.016 6.612 1.388 10.309.144 1.428.291 2.896.471 4.492H9.127c.512-4.207.932-6.821 1.578-10.466l.313-1.767-1.609.64C9.056 25.496 6.972 26 5 26c-.371 0-1-.211-1-1 0-.648 1.418-1.651 2.67-2.535.302-.213.61-.432.919-.657 1.182-.862 3.976-3.032 4.378-4.553C14.786 6.584 18.645 1 21 1m0-1c-3.336 0-7.329 6.888-10 17-.292 1.104-2.74 3.081-4 4-2 1.458-4 2.625-4 4 0 1.292 1 2 2 2 2.312 0 4.719-.641 4.72-.641C9.001 30.415 8.564 33.21 8 38h26c-.758-6.433-.971-10.932-2-16 1.207-1.517 5-4.813 5-12 0-1.271-.979-2-2-2-1.25 0-1.74 1.253-2 2-.646 1.854-2.354 3-3 3-4.79-11.339-7.438-13-9-13z" fill="#8b75a1"></path><ellipse cx="21" cy="30" rx="5.5" ry="3.5" fill="#bae0bd"/><path d="M21 27c2.71 0 5 1.374 5 3s-2.29 3-5 3-5-1.374-5-3 2.29-3 5-3m0-1c-3.314 0-6 1.791-6 4s2.686 4 6 4 6-1.791 6-4-2.686-4-6-4z" fill="#5e9c76"></path><ellipse cx="21" cy="20.5" rx="4.5" ry="3" fill="#bae0bd"/><path d="M21 18c2.168 0 4 1.145 4 2.5S23.168 23 21 23s-4-1.145-4-2.5 1.832-2.5 4-2.5m0-1c-2.761 0-5 1.567-5 3.5s2.239 3.5 5 3.5 5-1.567 5-3.5-2.239-3.5-5-3.5z" fill="#5e9c76"></path><g><ellipse cx="21" cy="12" rx="3.5" ry="2.5" fill="#bae0bd"/><path d="M21 10c1.626 0 3 .916 3 2s-1.374 2-3 2-3-.916-3-2 1.374-2 3-2m0-1c-2.209 0-4 1.343-4 3s1.791 3 4 3 4-1.343 4-3-1.791-3-4-3z" fill="#5e9c76"></path></g><g><path d="M8 39.5c-.827 0-1.5-.673-1.5-1.5s.673-1.5 1.5-1.5h26c.827 0 1.5.673 1.5 1.5s-.673 1.5-1.5 1.5H8z" fill="#bae0bd"></path><path d="M34 37c.551 0 1 .449 1 1s-.449 1-1 1H8c-.551 0-1-.449-1-1s.449-1 1-1h26m0-1H8c-1.1 0-2 .9-2 2s.9 2 2 2h26c1.1 0 2-.9 2-2s-.9-2-2-2z" fill="#5e9c76"></path></g><g fill="none" stroke="#36404d" stroke-linecap="round" stroke-miterlimit="10"><path d="M17.5 9.5c0-.551.523-1 1.167-1s1.567 1 2.333 1M21 9.5c.734 0 1.69-1 2.333-1 .644 0 1.167.449 1.167 1"></path></g></svg>