<svg viewBox="0 0 40 40" xmlns="http://www.w3.org/2000/svg"><path fill="#8bb7f0" d="M30.5 24.011v-8.022l8-5.079v18.18z"></path><path d="M38 11.819V28.18l-7-4.444v-7.472l7-4.445M39 10l-9 5.714v8.571L39 30V10z" fill="#4e7ab5"></path><path d="M6 31.5A4.505 4.505 0 011.5 27V13c0-2.481 2.019-4.5 4.5-4.5h20c2.481 0 4.5 2.019 4.5 4.5v14c0 2.481-2.019 4.5-4.5 4.5H6z" fill="#c2e8ff"></path><path d="M26 9c2.206 0 4 1.794 4 4v14c0 2.206-1.794 4-4 4H6c-2.206 0-4-1.794-4-4V13c0-2.206 1.794-4 4-4h20m0-1H6a5 5 0 00-5 5v14a5 5 0 005 5h20a5 5 0 005-5V13a5 5 0 00-5-5z" fill="#8bb7f0"></path><g><path d="M14.628 26.862l-.203-.046a6.288 6.288 0 01-.477-.123l-.199-.061-2.278 1.211-.09-2.59-.152-.142a6.451 6.451 0 01-.341-.341l-.142-.152-2.59-.09 1.211-2.279-.062-.199a6.795 6.795 0 01-.122-.477l-.046-.203L6.943 20l2.195-1.372.046-.203c.037-.161.074-.321.122-.477l.062-.199-1.211-2.279 2.59-.09.142-.152c.109-.118.223-.231.341-.341l.152-.142.09-2.59 2.279 1.211.199-.062c.156-.048.316-.085.477-.122l.203-.046L16 10.943l1.372 2.195.203.046c.161.037.321.074.477.122l.199.062 2.279-1.211.09 2.59.152.142c.118.109.231.223.341.341l.142.152 2.59.09-1.211 2.279.062.199c.048.156.085.316.122.477l.046.203L25.057 20l-2.195 1.372-.046.203a6.795 6.795 0 01-.122.477l-.062.199 1.211 2.279-2.59.09-.142.152a6.451 6.451 0 01-.341.341l-.152.142-.09 2.59-2.278-1.211-.199.061c-.156.048-.316.085-.477.123l-.203.046L16 29.057l-1.372-2.195z" fill="#ffeea3"></path><path d="M16 11.887l.838 1.34.22.352.404.093c.149.034.299.069.444.113l.396.121.366-.195 1.389-.738.055 1.584.014.413.302.282c.11.102.215.208.318.318l.282.302.413.014 1.584.055-.738 1.389-.195.366.121.396c.045.145.079.295.114.444l.093.404.352.22 1.341.84-1.34.838-.352.22-.093.404a6.555 6.555 0 01-.113.444l-.121.396.195.366.738 1.389-1.584.055-.413.014-.282.302c-.102.11-.208.215-.318.318l-.302.282-.014.413-.055 1.584-1.389-.738-.366-.195-.396.121c-.145.045-.295.079-.444.114l-.404.093-.22.352-.84 1.341-.838-1.34-.22-.352-.404-.093a5.89 5.89 0 01-.444-.114l-.396-.121-.366.195-1.389.738-.055-1.584-.014-.413-.302-.282a6.358 6.358 0 01-.318-.318l-.282-.302-.413-.014-1.584-.055.738-1.389.195-.366-.121-.396a6.555 6.555 0 01-.113-.444l-.093-.404-.352-.22L7.887 20l1.34-.838.352-.22.093-.404a5.89 5.89 0 01.114-.444l.121-.396-.195-.366-.738-1.389 1.584-.055.413-.014.282-.302c.102-.11.208-.215.318-.318l.302-.282.014-.413.055-1.584 1.389.738.366.195.396-.121c.145-.044.295-.079.444-.113l.404-.093.22-.352.839-1.342M16 10l-1.686 2.697c-.173.04-.345.08-.513.132L11 11.34l-.111 3.183c-.126.118-.248.24-.366.366L7.34 15l1.489 2.802c-.051.168-.092.34-.132.513L6 20l2.697 1.686c.04.173.08.345.132.513L7.34 25l3.183.111c.118.126.24.248.366.366L11 28.66l2.801-1.489c.168.051.34.092.513.132L16 30l1.686-2.697c.173-.04.345-.08.513-.132L21 28.66l.111-3.183c.126-.118.248-.24.366-.366L24.66 25l-1.489-2.802c.051-.168.092-.34.132-.513L26 20l-2.697-1.686a7.271 7.271 0 00-.132-.513L24.66 15l-3.183-.111a7.896 7.896 0 00-.366-.366L21 11.34l-2.802 1.489a7.863 7.863 0 00-.513-.132L16 10z" fill="#c29653"></path></g><circle cx="16" cy="20" r="5" fill="#f5ce85"></circle></svg>