<svg viewBox="0 0 40 40" xmlns="http://www.w3.org/2000/svg"><path d="M7 37.5c-.827 0-1.5-.673-1.5-1.5v-9c0-.432.185-.831.519-1.124l.43-.376-.43-.376A1.481 1.481 0 015.5 24v-8c0-.432.185-.831.519-1.124l.43-.376-.43-.376A1.481 1.481 0 015.5 13V4c0-.827.673-1.5 1.5-1.5h26c.827 0 1.5.673 1.5 1.5v9c0 .432-.185.831-.519 1.124l-.43.376.43.376c.334.293.519.692.519 1.124v8c0 .432-.185.831-.519 1.124l-.43.376.43.376c.334.293.519.692.519 1.124v9c0 .827-.673 1.5-1.5 1.5H7z" fill="#dcd5f2"></path><path d="M33 3c.551 0 1 .449 1 1v9a.99.99 0 01-.348.747l-.861.753.861.753A.99.99 0 0134 16v8a.99.99 0 01-.348.747l-.861.753.861.753A.99.99 0 0134 27v9c0 .551-.449 1-1 1H7c-.551 0-1-.449-1-1v-9a.99.99 0 01.348-.747l.861-.753-.861-.753A.99.99 0 016 24v-8a.99.99 0 01.348-.747l.861-.753-.861-.753A.99.99 0 016 13V4c0-.551.449-1 1-1h26m0-1H7a2 2 0 00-2 2v9c0 .601.27 1.133.69 1.5-.42.367-.69.899-.69 1.5v8c0 .601.27 1.133.69 1.5-.42.367-.69.899-.69 1.5v9a2 2 0 002 2h26a2 2 0 002-2v-9c0-.601-.27-1.133-.69-1.5.42-.367.69-.899.69-1.5v-8c0-.601-.27-1.133-.69-1.5.42-.367.69-.899.69-1.5V4a2 2 0 00-2-2z" fill="#8b75a1"></path><path d="M11.829 15.783c.429-.104 1.054-.169 1.729-.169 1.105 0 1.871.26 2.431.78.755.676 1.144 1.833 1.144 3.536 0 1.768-.455 3.029-1.221 3.706-.599.559-1.457.845-2.666.845a9.94 9.94 0 01-1.417-.104v-8.594zm1.703 7.28c.091.026.208.026.3.026.818 0 1.533-.806 1.533-3.224 0-1.794-.468-2.886-1.495-2.886-.116 0-.233 0-.338.039v6.045zM18.537 15.783c.52-.117 1.209-.169 1.938-.169.818 0 1.611.104 2.223.624.469.39.663.975.663 1.586 0 .78-.403 1.534-1.261 1.911v.052c1.014.286 1.547 1.118 1.547 2.093 0 .715-.234 1.287-.65 1.716-.52.572-1.404.884-2.873.884-.65 0-1.195-.039-1.586-.104v-8.593zm1.703 3.471h.364c.61 0 1.079-.52 1.079-1.235 0-.637-.299-1.131-.988-1.131-.195 0-.352.013-.455.052v2.314zm0 3.888c.104.026.234.026.377.026.702 0 1.262-.429 1.262-1.313 0-.884-.599-1.339-1.274-1.339h-.365v2.626zM24.713 24.416v-1.144l.832-1.079c1.092-1.391 1.988-2.548 1.988-3.757 0-.689-.377-1.157-1.079-1.157-.532 0-.962.234-1.261.429l-.312-1.313c.391-.26 1.119-.533 1.885-.533 1.847 0 2.445 1.235 2.445 2.444 0 1.586-.988 2.86-1.963 3.991l-.508.598v.026h2.588v1.495h-4.615z" fill="#7c6394"></path></svg>