<svg viewBox="0 0 40 40" xmlns="http://www.w3.org/2000/svg"><path fill="#8b75a1" d="M19 5.5h2v4h-2z"></path><path fill="#dcd5f2" d="M9.5 17.5v-6.212L16.01 7.5h7.98l6.51 3.788V17.5z"></path><path d="M23.855 8L30 11.575V17H10v-5.425L16.145 8h7.71m.27-1h-8.25L9 11v7h22v-7l-6.875-4z" fill="#8b75a1"></path><path fill="#f78f8f" d="M9.5 11.5h21v27h-21z"></path><path d="M30 12v26H10V12h20m1-1H9v28h22V11z" fill="#c74343"></path><path d="M17.5 5.5c-.551 0-1-.449-1-1v-2c0-.551.449-1 1-1h5c.551 0 1 .449 1 1v2c0 .551-.449 1-1 1h-5z" fill="#f78f8f"></path><path d="M22.5 2a.5.5 0 01.5.5v2a.5.5 0 01-.5.5h-5a.5.5 0 01-.5-.5v-2a.5.5 0 01.5-.5h5m0-1h-5A1.5 1.5 0 0016 2.5v2A1.5 1.5 0 0017.5 6h5A1.5 1.5 0 0024 4.5v-2A1.5 1.5 0 0022.5 1z" fill="#c74343"></path><circle cx="20" cy="24.429" r="6.107" fill="none" stroke="#fff" stroke-miterlimit="10"></circle><path fill="none" stroke="#fff" stroke-miterlimit="10" d="M15.929 28.5l8.142-8.143"></path><circle cx="25.5" cy="2.5" r=".5" fill="#c74343"></circle><circle cx="27.5" cy="2.5" r=".5" fill="#c74343"></circle><circle cx="29.5" cy="4.5" r=".5" fill="#c74343"></circle><circle cx="31.5" cy="6.5" r=".5" fill="#c74343"></circle><circle cx="33.5" cy="6.5" r=".5" fill="#c74343"></circle><circle cx="33.5" cy="8.5" r=".5" fill="#c74343"></circle><circle cx="29.5" cy="2.5" r=".5" fill="#c74343"></circle><circle cx="31.5" cy="2.5" r=".5" fill="#c74343"></circle><circle cx="33.5" cy="2.5" r=".5" fill="#c74343"></circle><circle cx="33.5" cy="4.5" r=".5" fill="#c74343"></circle><circle cx="35.5" cy="6.5" r=".5" fill="#c74343"></circle><circle cx="35.5" cy="8.5" r=".5" fill="#c74343"></circle><circle cx="35.5" cy="10.5" r=".5" fill="#c74343"></circle><circle cx="35.5" cy="2.5" r=".5" fill="#c74343"></circle><circle cx="37.5" cy="2.5" r=".5" fill="#c74343"></circle><circle cx="35.5" cy="4.5" r=".5" fill="#c74343"></circle><circle cx="37.5" cy="8.5" r=".5" fill="#c74343"></circle><circle cx="37.5" cy="10.5" r=".5" fill="#c74343"></circle><circle cx="37.5" cy="12.5" r=".5" fill="#c74343"></circle><g><circle cx="37.5" cy="4.5" r=".5" fill="#c74343"></circle></g><g><circle cx="37.5" cy="6.5" r=".5" fill="#c74343"></circle></g><g><circle cx="31.5" cy="4.5" r=".5" fill="#c74343"></circle></g></svg>