<svg viewBox="0 0 40 40" xmlns="http://www.w3.org/2000/svg"><path d="M38 13.5c-.204 0-.5-.39-.5-1s.296-1 .5-1 .5.39.5 1-.296 1-.5 1z" fill="#ffeea3"></path><path d="M38 11c-.552 0-1 .672-1 1.5s.448 1.5 1 1.5 1-.672 1-1.5-.448-1.5-1-1.5z" fill="#ba9b48"></path><path d="M35 11.5c-.124 0-.5-.532-.5-1.5s.376-1.5.5-1.5.5.532.5 1.5-.376 1.5-.5 1.5z" fill="#ffeea3"></path><path d="M35 8c-.552 0-1 .895-1 2s.448 2 1 2 1-.895 1-2-.448-2-1-2z" fill="#ba9b48"></path><path d="M31.5 9.5c-.472 0-1-.855-1-2s.528-2 1-2 1 .855 1 2-.528 2-1 2z" fill="#ffeea3"></path><path d="M31.5 6.007c.156.09.5.621.5 1.493 0 .913-.377 1.452-.479 1.503C31.377 8.952 31 8.413 31 7.5c0-.872.344-1.403.5-1.493M31.5 5C30.672 5 30 6.119 30 7.5s.672 2.5 1.5 2.5S33 8.881 33 7.5 32.328 5 31.5 5z" fill="#ba9b48"></path><path d="M27.5 7.5c-.472 0-1-.855-1-2s.528-2 1-2 1 .855 1 2-.528 2-1 2z" fill="#ffeea3"></path><path d="M27.5 4.007c.156.09.5.621.5 1.493 0 .913-.377 1.452-.479 1.503C27.377 6.952 27 6.413 27 5.5c0-.872.344-1.403.5-1.493M27.5 3C26.672 3 26 4.119 26 5.5S26.672 8 27.5 8 29 6.881 29 5.5 28.328 3 27.5 3z" fill="#ba9b48"></path><path d="M26 38.5a4.505 4.505 0 01-4.5-4.5c0-1.837.678-3 2.266-3.888C26.5 28.582 26.5 26.227 26.5 23.5c0-3.27-.538-5.32-3.373-6.79-1.019-.528-1.627-1.728-1.627-3.21 0-2.206 1.794-4 4-4 .326 0 .768.079.868.101 3.214.612 8.505 3.992 9.788 5.198l.042.04A4.465 4.465 0 0137.5 18c0 .402-.126 1.018-.243 1.461-.887 4.204-7.224 16.487-7.366 16.755C29.086 37.625 27.596 38.5 26 38.5z" fill="#ffeea3"></path><path d="M25.5 10c.277 0 .676.071.784.094 3.118.594 8.277 3.892 9.515 5.055l.052.05A3.973 3.973 0 0137 18c0 .338-.118.929-.227 1.335l-.008.031-.006.027c-.802 3.807-6.669 15.398-7.304 16.58C28.738 37.224 27.415 38 26 38c-2.206 0-4-1.794-4-4 0-1.653.582-2.653 2.01-3.452C27 28.876 27 26.264 27 23.5c0-3.385-.596-5.654-3.643-7.233C22.507 15.826 22 14.792 22 13.5c0-1.93 1.57-3.5 3.5-3.5m0-1a4.5 4.5 0 00-4.5 4.5c0 1.512.6 2.982 1.897 3.654C25.549 18.529 26 20.39 26 23.5c0 2.883-.091 4.84-2.478 6.175C21.656 30.719 21 32.144 21 34a5 5 0 005 5c1.86 0 3.464-1.028 4.325-2.535.009 0 6.514-12.605 7.411-16.865.003-.009.264-.953.264-1.6a4.98 4.98 0 00-1.446-3.513l-.055-.052c-1.315-1.235-6.683-4.686-10.028-5.323A5.553 5.553 0 0025.5 9z" fill="#ba9b48"></path><path fill="#fff" d="M19.5 30.5V17.225l4-3.556 4 3.556V30.5z"></path><path d="M23.5 14.338l3.5 3.111V30h-7V17.449l3.5-3.111m0-1.338L19 17v14h9V17l-4.5-4z" fill="#788b9c"></path><path d="M17 7.5c-.71 0-1.5-1.232-1.5-3s.79-3 1.5-3 1.5 1.232 1.5 3-.79 3-1.5 3z" fill="#ffeea3"></path><path d="M17 2c.29 0 1 .876 1 2.5S17.29 7 17 7s-1-.876-1-2.5.71-2.5 1-2.5m0-1c-1.105 0-2 1.567-2 3.5S15.895 8 17 8s2-1.567 2-3.5S18.105 1 17 1z" fill="#ba9b48"></path><path d="M2 13.5c-.204 0-.5-.39-.5-1s.296-1 .5-1 .5.39.5 1-.296 1-.5 1z" fill="#ffeea3"></path><path d="M2 11c-.552 0-1 .672-1 1.5S1.448 14 2 14s1-.672 1-1.5S2.552 11 2 11z" fill="#ba9b48"></path><g><path d="M5 11.5c-.124 0-.5-.532-.5-1.5s.376-1.5.5-1.5.5.532.5 1.5-.376 1.5-.5 1.5z" fill="#ffeea3"></path><path d="M5 8c-.552 0-1 .895-1 2s.448 2 1 2 1-.895 1-2-.448-2-1-2z" fill="#ba9b48"></path></g><g><path d="M8.5 9.5c-.472 0-1-.855-1-2s.528-2 1-2 1 .855 1 2-.528 2-1 2z" fill="#ffeea3"></path><path d="M8.5 6.007c.156.09.5.621.5 1.493 0 .913-.377 1.452-.479 1.503C8.377 8.952 8 8.413 8 7.5c0-.872.344-1.403.5-1.493M8.5 5C7.672 5 7 6.119 7 7.5S7.672 10 8.5 10 10 8.881 10 7.5 9.328 5 8.5 5z" fill="#ba9b48"></path></g><g><path d="M12.5 7.5c-.472 0-1-.855-1-2s.528-2 1-2 1 .855 1 2-.528 2-1 2z" fill="#ffeea3"></path><path d="M12.5 4.007c.156.09.5.621.5 1.493 0 .913-.377 1.452-.479 1.503C12.377 6.952 12 6.413 12 5.5c0-.872.344-1.403.5-1.493M12.5 3C11.672 3 11 4.119 11 5.5S11.672 8 12.5 8 14 6.881 14 5.5 13.328 3 12.5 3z" fill="#ba9b48"></path></g><g><path d="M23.5 17.5c-1.189-3.053-3-8.765-3-10 0-1.655 1.346-3 3-3s3 1.345 3 3c0 1.656-1.036 4.482-1.958 7.006" fill="none" stroke="#4e7ab5" stroke-linecap="round" stroke-miterlimit="10"></path></g><path fill="none" stroke="#788b9c" stroke-miterlimit="10" d="M23.5 13.669l4 3.556"></path><g><path d="M14 38.5c-1.596 0-3.086-.875-3.891-2.283h-.001c-.142-.269-6.489-12.601-7.356-16.719-.126-.48-.252-1.096-.252-1.498 0-1.19.462-2.313 1.301-3.161 1.337-1.253 6.62-4.627 9.821-5.236.11-.024.552-.103.878-.103 2.206 0 4 1.794 4 4 0 1.482-.608 2.683-1.627 3.21-2.307 1.195-5.373 3.2-5.373 6.79 0 2.63 1.593 4.854 4.734 6.612C17.822 31 18.5 32.163 18.5 34c0 2.481-2.019 4.5-4.5 4.5z" fill="#ffeea3"></path><path d="M14.5 10c1.93 0 3.5 1.57 3.5 3.5 0 1.292-.507 2.326-1.357 2.767C14.221 17.522 11 19.638 11 23.5c0 2.825 1.679 5.196 4.99 7.048C17.418 31.347 18 32.347 18 34c0 2.206-1.794 4-4 4a4.001 4.001 0 01-3.454-2.026c-.634-1.18-6.502-12.772-7.304-16.58l-.007-.032-.007-.027C3.118 18.929 3 18.338 3 18c0-1.053.408-2.048 1.149-2.801l.037-.035c1.254-1.178 6.413-4.476 9.555-5.075A4.65 4.65 0 0114.5 10m0-1c-.41 0-.921.1-.971.111-3.345.637-8.713 4.089-10.028 5.324l-.055.052A4.98 4.98 0 002 18c0 .647.261 1.591.263 1.6.897 4.26 7.402 16.865 7.411 16.865C10.536 37.972 12.14 39 14 39a5 5 0 005-5c0-1.856-.656-3.281-2.522-4.325C14.091 28.34 12 26.383 12 23.5c0-3.11 2.451-4.971 5.103-6.346C18.4 16.482 19 15.012 19 13.5A4.5 4.5 0 0014.5 9z" fill="#ba9b48"></path></g><g><path d="M23 7.5c-.71 0-1.5-1.232-1.5-3s.79-3 1.5-3 1.5 1.232 1.5 3-.79 3-1.5 3z" fill="#ffeea3"></path><path d="M23 2c.29 0 1 .876 1 2.5S23.29 7 23 7s-1-.876-1-2.5.71-2.5 1-2.5m0-1c-1.105 0-2 1.567-2 3.5S21.895 8 23 8s2-1.567 2-3.5S24.105 1 23 1z" fill="#ba9b48"></path></g></svg>