<svg viewBox="0 0 40 40" xmlns="http://www.w3.org/2000/svg"><path fill="#b0c1d4" d="M1.5 35.5v-5.444L6.828 6.5h26.344L38.5 30.056V35.5z"></path><path d="M32.772 7L38 30.112V35H2v-4.888L7.228 7h25.544m.799-1H6.429L1 30v6h38v-6L33.571 6z" fill="#66798f"></path><path d="M20 2c1.103 0 2 .897 2 2s-.897 2-2 2-2-.897-2-2 .897-2 2-2m0-1a3 3 0 100 6 3 3 0 000-6z" fill="#66798f"></path><path fill="#a3b3c4" d="M2 30h36v5H2z"></path><path d="M17.772 15.359c0-.833.747-1.552 2.284-1.552 1.74 0 2.993.493 3.966 1.083v-2.812c-.724-.403-1.817-.639-3.282-.708V9.474h-1.521v1.938c-1.271.125-2.292.572-3.062 1.339-.771.767-1.157 1.695-1.157 2.785 0 4.308 7.231 4.441 7.231 6.802 0 .84-1.053 1.49-2.227 1.49-2.404 0-4.319-1.017-4.722-1.344v2.885a8.502 8.502 0 003.938.958v2.198h1.521v-2.26c1.368-.153 2.419-.581 3.157-1.286.734-.704 1.102-1.634 1.102-2.786 0-4.6-7.228-4.248-7.228-6.834z" fill="#fff"></path></svg>