<svg viewBox="0 0 40 40" xmlns="http://www.w3.org/2000/svg"><path fill="#a6714e" d="M15.5 38.5v-.232l3-2V17.5h3v18.768l3 2v.232z"></path><path d="M21 18v18.535l.445.297L23.197 38h-6.394l1.752-1.168.445-.297V18h2m1-1h-4v19l-3 2v1h10v-1l-3-2V17z" fill="#7a4f34"></path><g><path d="M21 30.5a5.488 5.488 0 01-4.243-2l-.4-.484-.382.498A2.477 2.477 0 0114 29.5c-.36 0-.719-.083-1.066-.249l-.281-.134-.244.193A5.436 5.436 0 019 30.5a5.517 5.517 0 01-5.44-4.733l-.043-.308-.295-.097A2.49 2.49 0 011.5 23c0-.719.321-1.408.882-1.889l.351-.301-.272-.373A4.953 4.953 0 011.5 17.5c0-1.313.507-2.555 1.429-3.497l.26-.265-.179-.325A3.938 3.938 0 012.5 11.5a3.984 3.984 0 013.56-3.953l.445-.049V7.05l-.008-.101C6.5 4.519 8.519 2.5 11 2.5c.688 0 1.373.171 2.033.509l.271.138.248-.177c.429-.307.93-.47 1.448-.47.36 0 .719.083 1.066.249l.281.134.244-.193A5.436 5.436 0 0120 1.5a5.512 5.512 0 014.789 2.802l.166.292.334-.042c.233-.031.469-.052.711-.052 1.695 0 3.271.768 4.323 2.108l.247.314.361-.172c.349-.166.708-.25 1.069-.25 1.378 0 2.5 1.122 2.5 2.5 0 .171-.021.348-.063.54l-.086.393.365.168A6.52 6.52 0 0138.5 16c0 .766-.14 1.529-.416 2.268l-.085.228.127.208c.245.4.374.848.374 1.296a2.48 2.48 0 01-1.019 2.003l-.275.204.091.33c.135.49.203.982.203 1.463 0 3.033-2.467 5.5-5.5 5.5-.751 0-1.481-.15-2.171-.447l-.246-.105-.224.146A2.497 2.497 0 0128 29.5c-.36 0-.72-.084-1.067-.25l-.18-.085-.19.062a5.49 5.49 0 01-1.706.273c-.155 0-.308-.011-.46-.024l-.175-.014-.146.099A5.475 5.475 0 0121 30.5z" fill="#bae0bd"></path><path d="M20 2c1.798 0 3.466.976 4.354 2.548l.331.586.668-.086c.25-.033.456-.048.647-.048 1.54 0 2.973.699 3.93 1.917l.494.629.722-.344C31.427 7.068 31.714 7 32 7c1.103 0 2 .897 2 2 0 .136-.017.277-.051.432l-.173.786.731.337A6.018 6.018 0 0138 16c0 .706-.129 1.411-.384 2.093l-.17.456.254.415c.199.327.3.675.3 1.036 0 .632-.298 1.216-.817 1.601l-.551.408.182.661c.124.446.186.894.186 1.33 0 2.757-2.243 5-5 5a4.97 4.97 0 01-1.973-.406l-.492-.212-.449.292A1.988 1.988 0 0128 29c-.286 0-.572-.068-.852-.201l-.36-.171-.379.124a5.032 5.032 0 01-1.552.248c-.141 0-.281-.01-.419-.022l-.351-.029-.292.197A4.968 4.968 0 0121 30a4.986 4.986 0 01-3.857-1.819l-.799-.968-.765.996A1.984 1.984 0 0114 29c-.285 0-.572-.067-.852-.2l-.562-.267-.488.386A4.945 4.945 0 019 30a5.015 5.015 0 01-4.945-4.302l-.086-.616-.591-.195A1.99 1.99 0 012 23c0-.582.251-1.118.708-1.509l.701-.601-.544-.747a4.478 4.478 0 01.421-5.79l.52-.531-.358-.651A3.446 3.446 0 013 11.5a3.484 3.484 0 013.115-3.456l.899-.1-.01-.905c0-.03-.002-.06-.005-.089A4.006 4.006 0 0111 3c.609 0 1.216.153 1.805.454l.542.277.495-.354A1.98 1.98 0 0115 3c.285 0 .572.067.852.2l.562.267.488-.386A4.945 4.945 0 0120 2m0-1a5.97 5.97 0 00-3.719 1.297A2.976 2.976 0 0015 2c-.65 0-1.248.212-1.739.564A4.94 4.94 0 0011 2a5 5 0 00-5 5c0 .017.005.033.005.05C3.756 7.299 2 9.184 2 11.5c0 .785.219 1.511.572 2.154a5.48 5.48 0 00-.515 7.078A2.979 2.979 0 001 23c0 1.328.869 2.442 2.065 2.836A5.996 5.996 0 009 31a5.97 5.97 0 003.719-1.297c.39.185.821.297 1.281.297.97 0 1.823-.468 2.372-1.182A5.985 5.985 0 0021 31a5.976 5.976 0 003.356-1.025c.165.013.332.025.501.025.65 0 1.275-.107 1.861-.298.39.186.821.298 1.282.298.603 0 1.161-.182 1.631-.487A6 6 0 0038 24a6 6 0 00-.221-1.596A2.988 2.988 0 0039 20c0-.572-.169-1.102-.447-1.557A6.973 6.973 0 0039 16a6.995 6.995 0 00-4.074-6.353C34.972 9.438 35 9.223 35 9a3 3 0 00-3-3c-.461 0-.893.113-1.284.299A5.982 5.982 0 0026 4c-.263 0-.521.023-.775.056A5.996 5.996 0 0020 1z" fill="#5e9c76"></path></g></svg>