<svg viewBox="0 0 40 40" xmlns="http://www.w3.org/2000/svg"><path d="M31.2 27.1c-2.371 0-4.3-1.929-4.3-4.3s1.929-4.3 4.3-4.3c3.054 0 4.3.782 4.3 2.7 0 2.33-1.926 5.9-4.3 5.9zm-22.4 0c-2.374 0-4.3-3.57-4.3-5.9 0-1.918 1.246-2.7 4.3-2.7 2.371 0 4.3 1.929 4.3 4.3s-1.929 4.3-4.3 4.3z" fill="#e8d47b"></path><path d="M31.2 19c3.507 0 3.8 1.087 3.8 2.2 0 2.308-1.879 5.4-3.8 5.4-2.095 0-3.8-1.705-3.8-3.8s1.705-3.8 3.8-3.8M8.8 19c2.095 0 3.8 1.705 3.8 3.8s-1.705 3.8-3.8 3.8c-1.921 0-3.8-3.092-3.8-5.4 0-1.113.293-2.2 3.8-2.2m22.4-1a4.8 4.8 0 100 9.6c2.651 0 4.8-3.749 4.8-6.4 0-2.651-2.149-3.2-4.8-3.2zM8.8 18c-2.651 0-4.8.549-4.8 3.2 0 2.651 2.149 6.4 4.8 6.4a4.8 4.8 0 100-9.6z" fill="#ba9b48"></path><path d="M20 38.5a5.964 5.964 0 01-4.628-2.192l-.079-.096-.114-.048a12.48 12.48 0 01-7.573-10.115L6.548 16.53A13.547 13.547 0 019.915 6.008C12.479 3.143 16.155 1.5 20 1.5s7.521 1.643 10.085 4.508a13.55 13.55 0 013.367 10.521l-1.058 9.519a12.48 12.48 0 01-7.573 10.115l-.114.048-.079.096A5.962 5.962 0 0120 38.5z" fill="#ffeea3"></path><path d="M20 2c3.703 0 7.243 1.583 9.713 4.342a13.053 13.053 0 013.243 10.133l-1.058 9.519a11.98 11.98 0 01-7.27 9.709l-.229.096-.157.192C23.194 37.267 21.648 38 20 38s-3.194-.733-4.242-2.01l-.157-.192-.229-.096a11.98 11.98 0 01-7.27-9.709l-1.058-9.519a13.05 13.05 0 013.243-10.133A13.055 13.055 0 0120 2m0-1C11.635 1 5.127 8.271 6.051 16.585l1.058 9.519c.534 4.806 3.655 8.746 7.877 10.52C16.174 38.074 17.979 39 20 39s3.826-.926 5.015-2.376c4.222-1.774 7.343-5.714 7.877-10.52l1.058-9.519C34.873 8.271 28.365 1 20 1z" fill="#ba9b48"></path><g><path d="M18.548 23.841a5.775 5.775 0 01-.28-1.756c0-2.916 4.013-4.213 4.013-6.565 0-2.044-2.383-2.154-2.757-2.154-1.212 0-2.366.541-3.463 1.622v-2.817C17.393 11.39 18.775 11 20.206 11c3.955 0 4.817 2.557 4.817 3.988 0 3.792-4.305 4.749-4.305 7.183 0 .762.313 1.476.402 1.671h-2.572zM19.938 29c-.79 0-1.744-.566-1.744-1.622 0-1.163 1.125-1.634 1.744-1.634 1.168 0 1.732.953 1.732 1.634 0 1.046-1.016 1.622-1.732 1.622z" fill="#4e7ab5"></path></g></svg>