<svg viewBox="0 0 40 40" xmlns="http://www.w3.org/2000/svg"><path fill="#b0c1d4" d="M28.5 18.5h11v3h-11z"></path><path d="M39 19v2H29v-2h10m1-1H28v4h12v-4z" fill="#66798f"></path><g><path d="M21.173 34.5l-1.713-6H7.812l-1.712 6H.695l9.725-29h6.661l9.501 29h-5.409zm-11.934-11h8.794L14.138 9.855h-1.004L9.239 23.5z" fill="#b0c1d4"></path><path d="M16.718 6l9.174 28H21.55l-1.506-5.275-.207-.725H7.435l-.207.726L5.723 34H1.39l9.39-28h5.938M8.577 24H18.695l-.364-1.275-3.61-12.644-.207-.725h-1.758l-.207.726-3.608 12.644L8.577 24m8.866-19h-7.382L0 35h6.477l1.712-6h10.893l1.713 6h6.477L17.443 5zM9.902 23l3.609-12.644h.249L17.37 23H9.902z" fill="#66798f"></path></g></svg>