<svg viewBox="0 0 40 40" xmlns="http://www.w3.org/2000/svg"><path d="M22 13.5h-8.5c-6.967 0-12-6.875-12-13" fill="none" stroke="#7a4f34" stroke-linecap="round" stroke-miterlimit="10"></path><path d="M21 13h-1C13.42 13 8.5 8.08 8.5 1.5" fill="none" stroke="#7a4f34" stroke-linecap="round" stroke-miterlimit="10"></path><path d="M9 21.5c-3.618 0-6.5-3.231-6.5-4.5 0-1.384 3.211-1.5 6.5-1.5 3.629 0 6.574 3.104 6.574 5.129 0 .871-3.465.871-5.996.871H9z" fill="#a6714e"></path><path d="M9 16c3.243 0 5.988 2.756 6.072 4.546-.625.454-3.66.454-5.495.454H9c-3.443 0-6-3.063-6-4 0-1 4.359-1 6-1m0-1c-3.886 0-7 .167-7 2 0 1.583 3.114 5 7 5h.577c3.62 0 6.497-.033 6.497-1.37C16.074 18.298 12.886 15 9 15z" fill="#7a4f34"></path><path d="M18 13.5h8.5c6.967 0 12-6.875 12-13" fill="none" stroke="#7a4f34" stroke-linecap="round" stroke-miterlimit="10"></path><path d="M19 13h1c6.58 0 11.5-4.92 11.5-11.5" fill="none" stroke="#7a4f34" stroke-linecap="round" stroke-miterlimit="10"></path><path d="M30.422 21.5c-2.531 0-5.996 0-5.996-.871 0-2.025 2.945-5.129 6.574-5.129 3.289 0 6.5.116 6.5 1.5 0 1.269-2.882 4.5-6.5 4.5h-.578z" fill="#a6714e"></path><path d="M31 16c1.641 0 6 0 6 1 0 .937-2.557 4-6 4h-.578c-1.835 0-4.87 0-5.495-.454C25.012 18.756 27.757 16 31 16m0-1c-3.886 0-7.074 3.298-7.074 5.63 0 1.337 2.877 1.37 6.497 1.37H31c3.886 0 7-3.417 7-5 0-1.833-3.114-2-7-2z" fill="#7a4f34"></path><path d="M20 38.5c-2.537 0-5.5-1.44-5.5-5.5 0-2.729-1.19-5.288-2.24-7.547-.905-1.947-1.76-3.786-1.76-5.453 0-5.238 4.262-9.5 9.5-9.5s9.5 4.262 9.5 9.5c0 1.667-.855 3.506-1.76 5.453-1.05 2.259-2.24 4.818-2.24 7.547 0 4.06-2.963 5.5-5.5 5.5z" fill="#d6aa70"></path><path d="M20 11c4.963 0 9 4.037 9 9 0 1.556-.832 3.347-1.714 5.242C26.215 27.548 25 30.161 25 33c0 3.691-2.693 5-5 5s-5-1.309-5-5c0-2.839-1.215-5.452-2.286-7.758C11.832 23.347 11 21.556 11 20c0-4.963 4.037-9 9-9m0-1c-5.523 0-10 4.477-10 10 0 3.799 4 8.081 4 13 0 4.167 3.024 6 6 6s6-1.833 6-6c0-4.919 4-9.201 4-13 0-5.523-4.477-10-10-10z" fill="#7a4f34"></path><ellipse transform="rotate(-45.001 24.5 22.5)" cx="24.5" cy="22.5" rx="1.765" ry="1.177" fill="#36404d"/><path d="M18.001 33h3.997a1 1 0 01.894 1.447l-.224.447A1.995 1.995 0 0120.881 36H19.12a2 2 0 01-1.789-1.106l-.224-.447A1 1 0 0118.001 33z" fill="#36404d"></path><ellipse transform="rotate(-45.001 15.5 22.5)" cx="15.5" cy="22.5" rx="1.177" ry="1.765" fill="#36404d"/></svg>