<svg viewBox="0 0 40 40" xmlns="http://www.w3.org/2000/svg"><path fill="#b08159" d="M1.5 38.5V7.1l2.008-4.85 5.539 12.049 1.421-3.789 4.075-7.42L20 14.362 25.457 3.09l4.105 7.484 1.391 3.725L36.492 2.25 38.5 7.1v31.4z"></path><path d="M36.468 3.499L38 7.199V38H2V7.199l1.532-3.7 4.559 9.919 1.002 2.18.843-2.247.975-2.599 3.605-6.572 4.584 9.47.9 1.859.9-1.859 4.584-9.47 3.605 6.572.975 2.599.843 2.247 1.002-2.18 4.559-9.919M36.516 1L31 13l-1-2.666L25.429 2 20 13.214 14.571 2 10 10.334 9 13 3.484 1 1 7v32h38V7l-2.484-6z" fill="#704e34"></path><path fill="#704e34" d="M1 15h38v1H1zM1 30h38v1H1z"></path><path fill="#d6aa70" d="M23 38h-6V7l3-6 3 6z"></path><path fill="#b08159" d="M23 9.157V7l-3-6-3 6v2.465l3-6.229zM17 15h6v1h-6zM17 30h6v1h-6z"></path><path fill="#d6aa70" d="M12 38H6V9l3-6 3 6z"></path><path fill="#b08159" d="M12 11.157V9L9 3 6 9v2.465l3-6.229zM6 15h6v1H6zM6 30h6v1H6z"></path><path fill="#d6aa70" d="M34 38h-6V9l3-6 3 6z"></path><path fill="#b08159" d="M34 11.157V9l-3-6-3 6v2.465l3-6.229zM28 15h6v1h-6zM28 30h6v1h-6z"></path></svg>