<svg viewBox="0 0 40 40" xmlns="http://www.w3.org/2000/svg"><path fill="#bae0bd" d="M2.5 2.5h35v35h-35z"></path><path d="M37 3v34H3V3h34m1-1H2v36h36V2z" fill="#5e9c76"></path><g><path d="M6 24.822V14.178h3.178c4.058 0 6.087 1.729 6.087 5.188 0 1.643-.563 2.963-1.689 3.96s-2.635 1.496-4.529 1.496H6zm1.819-9.145v7.652h1.458c1.284 0 2.283-.341 2.997-1.024s1.071-1.648 1.071-2.895c0-2.489-1.333-3.733-3.999-3.733H7.819zM23.454 24.822h-6.179V14.178h5.933v1.499h-4.106v3.013h3.784v1.492h-3.784v3.147h4.352v1.493zM34 24.094c-1.146.604-2.423.906-3.83.906-1.627 0-2.945-.49-3.953-1.47s-1.512-2.276-1.512-3.889c0-1.648.551-3 1.654-4.056S28.863 14 30.561 14c1.223 0 2.251.173 3.086.52v1.818c-.844-.544-1.85-.816-3.016-.816-1.172 0-2.132.374-2.882 1.121s-1.124 1.715-1.124 2.902c0 1.222.322 2.183.967 2.884s1.52 1.05 2.625 1.05c.757 0 1.412-.141 1.965-.423v-2.531h-2.318V19.04H34v5.054z" fill="#5e9c76"></path></g></svg>