<svg viewBox="0 0 40 40" xmlns="http://www.w3.org/2000/svg"><path d="M2.207 32.5l3.875-3.875-.385-.353A16.009 16.009 0 01.5 16.5c0-8.822 7.178-16 16-16 4.456 0 8.747 1.894 11.772 5.197l.353.385L32.5 2.207 39.293 9 9 39.293 2.207 32.5zM16.5 8.5c-4.411 0-8 3.589-8 8a7.968 7.968 0 002.907 6.16l.351.29L22.95 11.757l-.29-.351A7.97 7.97 0 0016.5 8.5z" fill="#f5ce85"></path><path d="M16.5 1c4.316 0 8.473 1.835 11.404 5.034l.706.77.739-.739L32.5 2.914 38.586 9 9 38.586 2.914 32.5l3.152-3.152.739-.739-.77-.706A15.506 15.506 0 011 16.5C1 7.953 7.953 1 16.5 1m-4.711 22.625l.643-.643 10.55-10.55.643-.643-.579-.701A8.469 8.469 0 0016.5 8C11.813 8 8 11.813 8 16.5a8.469 8.469 0 003.088 6.546l.701.579M16.5 0C7.387 0 0 7.387 0 16.5c0 4.812 2.071 9.129 5.359 12.141L1.5 32.5 9 40 40 9l-7.5-7.5-3.859 3.859C25.629 2.071 21.312 0 16.5 0zm-4.775 22.275A7.472 7.472 0 019 16.5 7.5 7.5 0 0116.5 9a7.472 7.472 0 015.775 2.725l-10.55 10.55z" fill="#967a44"></path><path d="M9.853 33.146c-.194-.194-.513-.194-.707 0s-.194.513 0 .707l3.001 3.001.707-.707-3.001-3.001zM13.853 31.146c-.194-.194-.513-.194-.707 0s-.194.513 0 .707l2.001 2.001.707-.707-2.001-2.001zM15.853 27.146c-.194-.194-.513-.194-.707 0s-.194.513 0 .707l3.001 3.001.707-.707-3.001-3.001zM19.853 25.146c-.194-.194-.513-.194-.707 0s-.194.513 0 .707l2.001 2.001.707-.707-2.001-2.001zM21.853 21.146c-.194-.194-.513-.194-.707 0s-.194.513 0 .707l3.001 3.001.707-.707-3.001-3.001zM25.853 19.146c-.194-.194-.513-.194-.707 0s-.194.513 0 .707l2.001 2.001.707-.707-2.001-2.001zM31.146 13.853l2.001 2.001.707-.707-2.001-2.001c-.194-.194-.513-.194-.707 0s-.195.513 0 .707zM27.853 15.146c-.194-.194-.513-.194-.707 0s-.194.513 0 .707l3.001 3.001.707-.707-3.001-3.001zM33.853 9.146c-.194-.194-.513-.194-.707 0s-.194.513 0 .707l3.001 3.001.707-.707-3.001-3.001z" fill="#704e34"></path></svg>