<svg viewBox="0 0 40 40" xmlns="http://www.w3.org/2000/svg"><path fill="#f78f8f" d="M21 24.15L8.857 36.293l-4.15-4.15L16.85 20 4.707 7.857l4.15-4.15L21 15.85 33.143 3.707l4.15 4.15L25.15 20l12.143 12.143-4.15 4.15z"></path><path d="M33.143 4.414l3.443 3.443L25.15 19.293l-.707.707.707.707 11.436 11.436-3.443 3.443L21.707 24.15 21 23.443l-.707.707L8.857 35.586l-3.443-3.443L16.85 20.707l.707-.707-.707-.707L5.414 7.857l3.443-3.443L20.293 15.85l.707.707.707-.707L33.143 4.414m0-1.414L21 15.143 8.857 3 4 7.857 16.143 20 4 32.143 8.857 37 21 24.857 33.143 37 38 32.143 25.857 20 38 7.857 33.143 3z" fill="#c74343"></path></svg>