<svg viewBox="0 0 40 40" xmlns="http://www.w3.org/2000/svg"><path d="M2.5 36.5v-33h35V36a.5.5 0 01-.5.5H2.5z" fill="#fff"></path><path d="M37 4v32H3V4h34m1-1H2v34h35a1 1 0 001-1V3z" fill="#788b9c"></path><path fill="#788b9c" d="M2 3h36v6H2z"></path><path fill="none" stroke="#8bb7f0" stroke-miterlimit="10" d="M13 16.5h18M9 16.5h1M13 20.5h18M9 20.5h1M13 24.5h18M9 24.5h1M13 28.5h18M9 28.5h1"></path><g fill="#c2e8ff"><path d="M31 29v-1H20.426c-.093.328-.173.661-.235 1H31zM31 24h-8.479c-.263.318-.503.654-.729 1H31v-1z"></path></g><path d="M38 22.521a11.012 11.012 0 00-1-.729V36H21.214c.176.344.368.678.578 1H38V22.521z" fill="#c8d1db"></path><circle cx="31" cy="31" r="8.5" fill="#f78f8f"></circle><path d="M31 23c4.411 0 8 3.589 8 8s-3.589 8-8 8-8-3.589-8-8 3.589-8 8-8m0-1c-4.971 0-9 4.029-9 9s4.029 9 9 9 9-4.029 9-9-4.029-9-9-9z" fill="#c74343"></path><path fill="none" stroke="#fff" stroke-width="2" stroke-miterlimit="10" d="M27.5 34.5l7-7M27.5 27.5l7 7"></path></svg>