<svg viewBox="0 0 40 40" xmlns="http://www.w3.org/2000/svg"><path d="M19.999 38.458c-1.707-.743-15.364-7.474-15.498-32.091L20 1.524l15.499 4.843c-.134 24.552-13.792 31.341-15.5 32.091z" fill="#f78f8f"></path><path d="M20 2.048l14.996 4.686c-.258 23.19-12.752 30.119-15 31.177C17.735 36.869 5.26 30.057 5.004 6.734L20 2.048M20 1L4 6c0 27.141 16 33 16 33s16-5.932 16-33L20 1z" fill="#c74343"></path><path fill="none" stroke="#fff" stroke-width="3" stroke-miterlimit="10" d="M14 24l12-12M14 12l12 12"></path></svg>