<svg viewBox="0 0 40 40" xmlns="http://www.w3.org/2000/svg"><path d="M21.5 32.5V11c0-1.378 1.122-2.5 2.5-2.5h10c.863 0 1.643.511 1.987 1.302l3.112 7.169a4.81 4.81 0 01.401 1.928V30c0 1.378-1.122 2.5-2.5 2.5H21.5z" fill="#bae0bd"></path><path d="M34 9c.664 0 1.264.393 1.528 1.001l3.112 7.17c.239.549.36 1.13.36 1.729V30c0 1.103-.897 2-2 2H22V11c0-1.103.897-2 2-2h10m0-1H24a3 3 0 00-3 3v22h16a3 3 0 003-3V18.9c0-.732-.151-1.456-.443-2.128l-3.112-7.169A2.667 2.667 0 0034 8z" fill="#5e9c76"></path><circle cx="31.5" cy="32.5" r="4" fill="#c8d1db"></circle><path d="M31.5 29c1.93 0 3.5 1.57 3.5 3.5S33.43 36 31.5 36 28 34.43 28 32.5s1.57-3.5 3.5-3.5m0-1a4.5 4.5 0 100 9 4.5 4.5 0 000-9z" fill="#66798f"></path><circle cx="31.5" cy="32.5" r="1.5" fill="#66798f"></circle><path fill="#bae0bd" d="M.5 3.5h21v29H.5z"></path><path d="M21 4v28H1V4h20m1-1H0v30h22V3z" fill="#5e9c76"></path><circle cx="9.5" cy="32.5" r="4" fill="#c8d1db"></circle><path d="M9.5 29c1.93 0 3.5 1.57 3.5 3.5S11.43 36 9.5 36 6 34.43 6 32.5 7.57 29 9.5 29m0-1a4.5 4.5 0 100 9 4.5 4.5 0 000-9z" fill="#66798f"></path><circle cx="9.5" cy="32.5" r="1.5" fill="#66798f"></circle><path fill="#fff" d="M36 24h3v3h-3z"></path><path fill="#c74343" d="M0 26h3v3H0z"></path><g><path d="M29 21.5a.5.5 0 01-.5-.5v-9a.5.5 0 01.5-.5h7.724l2.375 5.472A4.81 4.81 0 0139.5 18.9v2.6H29z" fill="#c2e8ff"></path><path d="M36.396 12l2.245 5.171A4.32 4.32 0 0139 18.9V21H29v-9h7.396m.656-1H29a1 1 0 00-1 1v9a1 1 0 001 1h11v-3.1c0-.732-.151-1.456-.443-2.128L37.052 11z" fill="#5e9c76"></path></g><g><circle cx="11" cy="15" r="7.5" fill="#fff"></circle><path d="M11 8c3.86 0 7 3.14 7 7s-3.14 7-7 7-7-3.14-7-7 3.14-7 7-7m0-1a8 8 0 100 16 8 8 0 000-16z" fill="#788b9c"></path></g><path fill="none" stroke="#788b9c" stroke-linecap="round" stroke-linejoin="round" stroke-miterlimit="10" d="M13.462 11.308L11 15l2.462 2.462"></path><g><circle cx="11" cy="15" r="1" fill="#788b9c"></circle></g></svg>