<svg viewBox="0 0 40 40" xmlns="http://www.w3.org/2000/svg"><path d="M22.5 32.5V11A2.5 2.5 0 0125 8.5h9a2.17 2.17 0 012 1.3l3.1 7.2a4.81 4.81 0 01.4 1.93V30a2.5 2.5 0 01-2.5 2.5z" fill="#bae0bd"></path><path d="M34 9a1.67 1.67 0 011.53 1l3.11 7.17A4.31 4.31 0 0139 18.9V30a2 2 0 01-2 2H23V11a2 2 0 012-2h9m0-1h-9a3 3 0 00-3 3v22h15a3 3 0 003-3V18.9a5.33 5.33 0 00-.44-2.13L36.45 9.6A2.67 2.67 0 0034 8z" fill="#5e9c76"></path><circle cx="31.5" cy="32.5" r="4" fill="#c8d1db"></circle><path d="M31.5 29a3.5 3.5 0 11-3.5 3.5 3.5 3.5 0 013.5-3.5m0-1a4.5 4.5 0 104.5 4.5 4.5 4.5 0 00-4.5-4.5z" fill="#66798f"></path><circle cx="31.5" cy="32.5" r="1.5" fill="#66798f"></circle><path fill="#bae0bd" d="M.5 3.5h22v29H.5z"></path><path d="M22 4v28H1V4h21m1-1H0v30h23V3z" fill="#5e9c76"></path><circle cx="9.5" cy="32.5" r="4" fill="#c8d1db"></circle><path d="M9.5 29A3.5 3.5 0 116 32.5 3.5 3.5 0 019.5 29m0-1a4.5 4.5 0 104.5 4.5A4.5 4.5 0 009.5 28z" fill="#66798f"></path><circle cx="9.5" cy="32.5" r="1.5" fill="#66798f"></circle><path fill="#fff" d="M36 24h3v3h-3z"></path><path fill="#c74343" d="M0 26h3v3H0z"></path><path d="M29 21.5a.5.5 0 01-.5-.5v-9a.5.5 0 01.5-.5h7.72L39.1 17a4.81 4.81 0 01.4 1.93v2.6z" fill="#c2e8ff"></path><path d="M36.4 12l2.24 5.17A4.31 4.31 0 0139 18.9V21H29v-9h7.4m.66-1H29a1 1 0 00-1 1v9a1 1 0 001 1h11v-3.1a5.33 5.33 0 00-.44-2.13L37.05 11z" fill="#5e9c76"></path><circle cx="11.5" cy="14.5" r="8" fill="#fff"></circle><path d="M11.5 7A7.5 7.5 0 114 14.5 7.51 7.51 0 0111.5 7m0-1a8.5 8.5 0 108.5 8.5A8.5 8.5 0 0011.5 6z" fill="#5e9c76"></path><path fill="none" stroke="#66798f" stroke-miterlimit="10" d="M15.42 17.77L11.5 14.5V8.62"></path></svg>