<svg viewBox="0 0 40 40" xmlns="http://www.w3.org/2000/svg"><path fill="#a59dd1" d="M4 8L0 25l.256-1.08zM19.5 1.031L8.459 18.093l-.39.574.524.426L19.5 28l10.907-8.907.524-.426-.39-.574zM.551 25.413L0 25l19.5 15-.672-.506zM38.449 25.493L20.172 39.494 19.5 40 39 25.08zM38.744 24L39 25.08 35 8z"></path><path fill="#fff" d="M4.434 8.339L19 .821v.071L8.213 18.757.57 24.763z"></path><path d="M17.72 2.044L7.832 18.42l-6.447 5.067 3.483-14.81L17.72 2.044M19.5 0L4 8 .255 23.92 0 25l.551.413 8.042-6.32L19.5 1.031V0z" fill="#8b75a1"></path><g><path fill="#8b75a1" d="M30.407 19.093l8.042 6.4.551-.413-.256-1.08L35 8 19.5 0v1.031z"></path></g><path d="M17 13v8h-1.277v-6.45a4.086 4.086 0 01-.746.417 6.15 6.15 0 01-.911.303v-1.08c.213-.069.418-.142.616-.218.198-.076.394-.162.586-.256a8.152 8.152 0 001.191-.715H17zM21.902 21c-.912 0-1.624-.329-2.134-.988-.513-.658-.768-1.61-.768-2.855 0-1.368.266-2.402.8-3.104S21.103 13 22.111 13C24.036 13 25 14.323 25 16.968c0 1.31-.272 2.31-.816 2.998-.543.69-1.305 1.034-2.282 1.034zm.141-7.001c-1.063 0-1.594 1.035-1.594 3.104 0 1.936.52 2.904 1.564 2.904 1.026 0 1.54-.984 1.54-2.953 0-2.037-.504-3.055-1.51-3.055z" fill="#fff"></path><g><path fill="#958cb5" d="M19.327 39.245V28.5h.352l11.675-9.534 6.998 5.555.085.356-.289.216-18.279 14.004-.369.278z"></path><path d="M31.359 19.608l6.447 5.118-17.978 13.773V29h.029l.276-.225 10.905-8.905.321-.262m-.534-1.701l-.284.186.39.573-.524.427L19.5 28h-.672v11.494L19.5 40l.672-.506 18.276-14.001.552-.413-.255-1.067-.026.16-7.894-6.266z" fill="#8b75a1"></path></g><g><path fill="#dcd5f2" d="M19.128 39.095L.856 25.017l-.264-.199.145-.422 6.918-5.421L19.321 28.5h.179v10.875z"></path><path d="M7.649 19.614l.312.254 10.907 8.907.132.108v9.482L1.211 24.66l6.438-5.046m.558-1.707L.313 24.094 0 25l.551.413 18.276 14.081.673.506.5-.376V28h-.5L8.593 19.093l-.524-.427.39-.573-.252-.186z" fill="#8b75a1"></path></g></svg>