<svg viewBox="0 0 40 40" xmlns="http://www.w3.org/2000/svg"><path fill="#b08159" d="M14 4h1v6h-1z"></path><circle cx="25.5" cy="2.5" r=".5" fill="#8b75a1"></circle><circle cx="27.5" cy="2.5" r=".5" fill="#8b75a1"></circle><circle cx="21.5" cy="2.5" r=".5" fill="#8b75a1"></circle><circle cx="23.5" cy="2.5" r=".5" fill="#8b75a1"></circle><circle cx="29.5" cy="4.5" r=".5" fill="#8b75a1"></circle><circle cx="31.5" cy="6.5" r=".5" fill="#8b75a1"></circle><circle cx="33.5" cy="6.5" r=".5" fill="#8b75a1"></circle><circle cx="27.5" cy="6.5" r=".5" fill="#8b75a1"></circle><circle cx="29.5" cy="6.5" r=".5" fill="#8b75a1"></circle><circle cx="29.5" cy="8.5" r=".5" fill="#8b75a1"></circle><circle cx="31.5" cy="8.5" r=".5" fill="#8b75a1"></circle><circle cx="31.5" cy="10.5" r=".5" fill="#8b75a1"></circle><circle cx="33.5" cy="10.5" r=".5" fill="#8b75a1"></circle><circle cx="33.5" cy="12.5" r=".5" fill="#8b75a1"></circle><circle cx="33.5" cy="8.5" r=".5" fill="#8b75a1"></circle><circle cx="29.5" cy="2.5" r=".5" fill="#8b75a1"></circle><circle cx="31.5" cy="2.5" r=".5" fill="#8b75a1"></circle><circle cx="33.5" cy="2.5" r=".5" fill="#8b75a1"></circle><circle cx="33.5" cy="4.5" r=".5" fill="#8b75a1"></circle><circle cx="31.5" cy="4.5" r=".5" fill="#8b75a1"></circle><circle cx="25.5" cy="4.5" r=".5" fill="#8b75a1"></circle><circle cx="27.5" cy="4.5" r=".5" fill="#8b75a1"></circle><path d="M11.5 5.5V2a.5.5 0 01.5-.5h5a.5.5 0 01.5.5v3.5h-6z" fill="#ffeea3"></path><path d="M17 2v3h-5V2h5m0-1h-5c-.55 0-1 .45-1 1v4h7V2c0-.55-.45-1-1-1z" fill="#f5c276"></path><path d="M6.5 17.5v-5.345C6.96 11.51 9.358 8.5 14 8.5h1c4.604 0 7.044 3.028 7.5 3.656V17.5h-16z" fill="#ffeea3"></path><path d="M15 9c4.149 0 6.406 2.541 7 3.319V17H7v-4.679C7.593 11.551 9.87 9 14 9h1m0-1h-1c-5.443 0-8 4-8 4v6h17v-6s-2.557-4-8-4z" fill="#f5c276"></path><path fill="#dcd5f2" d="M6.5 12.5h16v26h-16z"></path><path d="M22 13v25H7V13h15m1-1H6v27h17V12z" fill="#8b75a1"></path><path d="M18 37c-1.613 0-2.723-.812-3.797-1.597C13.216 34.682 12.284 34 11 34c-1.82 0-3.219 1.175-4 2.035V38h15v-2.695C20.886 36.206 19.486 37 18 37z" fill="#a59dd1"></path><g fill="#8b75a1"><path d="M22 33.978C20.945 34.966 19.49 36 18 36c-1.286 0-2.219-.682-3.207-1.404C13.72 33.811 12.61 33 11 33c-1.692 0-3.046.819-4 1.653v1.382C7.781 35.175 9.18 34 11 34c1.284 0 2.216.682 3.203 1.403C15.277 36.188 16.387 37 18 37c1.486 0 2.886-.794 4-1.695v-1.327zM14.793 30.596C13.72 29.811 12.61 29 11 29c-1.692 0-3.046.819-4 1.653v1.382C7.781 31.175 9.18 30 11 30c1.284 0 2.216.682 3.203 1.403C15.277 32.188 16.387 33 18 33c1.486 0 2.886-.794 4-1.695v-1.328C20.945 30.966 19.49 32 18 32c-1.286 0-2.219-.682-3.207-1.404zM7 28.035C7.781 27.175 9.18 26 11 26c1.284 0 2.216.682 3.203 1.403C15.277 28.188 16.387 29 18 29c1.486 0 2.886-.794 4-1.695v-1.328C20.945 26.966 19.49 28 18 28c-1.286 0-2.219-.682-3.207-1.404C13.72 25.811 12.61 25 11 25c-1.692 0-3.046.819-4 1.653v1.382z"></path></g></svg>