<svg viewBox="0 0 40 40" xmlns="http://www.w3.org/2000/svg"><path fill="#dbf2ff" d="M4.5 38.5V8.694L20 3.527l15.5 5.167V38.5z"></path><path d="M20 4.054l15 5V38H5V9.054l15-5M20 3L4 8.333V39h32V8.333L20 3z" fill="#7496c4"></path><path fill="#f78f8f" d="M20 4.473L4.5 9.64V6.694L20 1.527l15.5 5.167V9.64z"></path><path d="M20 2.054l15 5v1.892L20.316 4.051 20 3.946l-.316.105L5 8.946V7.054l15-5M20 1L4 6.333v4L20 5l16 5.333v-4L20 1z" fill="#c74343"></path><path fill="#b5ddf5" d="M5 34h30v4H5z"></path><path fill="#4e7ab5" d="M17 14h6v4h-6zM25 14h6v4h-6zM9 14h6v4H9zM17 20h6v4h-6zM25 20h6v4h-6zM9 20h6v4H9zM17 26h6v4h-6zM25 26h6v4h-6zM9 26h6v4H9z"></path></svg>