<svg viewBox="0 0 40 40" xmlns="http://www.w3.org/2000/svg"><path fill="#f5ce85" d="M3.5 1.5h30v27h-30z"></path><path d="M33 2v26H4V2h29m1-1H3v28h31V1z" fill="#967a44"></path><path d="M21.5 9h-6a1.5 1.5 0 010-3h6a1.5 1.5 0 010 3z" fill="#967a44"></path><path d="M1.5 38.5v-10h32c2.757 0 5 2.243 5 5s-2.243 5-5 5h-32z" fill="#e1ebf2"></path><path d="M33.5 29c2.481 0 4.5 2.019 4.5 4.5S35.981 38 33.5 38H2v-9h31.5m0-1H1v11h32.5c3.025 0 5.5-2.475 5.5-5.5S36.525 28 33.5 28z" fill="#66798f"></path><path fill="#e1ebf2" d="M1 29h2v9H1z"></path><circle cx="33.5" cy="33.5" r="2" fill="#b0c1d4"></circle><path d="M33.5 32c.827 0 1.5.673 1.5 1.5s-.673 1.5-1.5 1.5-1.5-.673-1.5-1.5.673-1.5 1.5-1.5m0-1a2.5 2.5 0 100 5 2.5 2.5 0 000-5z" fill="#66798f"></path><circle cx="26.5" cy="33.5" r="2" fill="#b0c1d4"></circle><path d="M26.5 32c.827 0 1.5.673 1.5 1.5s-.673 1.5-1.5 1.5-1.5-.673-1.5-1.5.673-1.5 1.5-1.5m0-1a2.5 2.5 0 100 5 2.5 2.5 0 000-5z" fill="#66798f"></path><g><circle cx="19.5" cy="33.5" r="2" fill="#b0c1d4"></circle><path d="M19.5 32c.827 0 1.5.673 1.5 1.5s-.673 1.5-1.5 1.5-1.5-.673-1.5-1.5.673-1.5 1.5-1.5m0-1a2.5 2.5 0 100 5 2.5 2.5 0 000-5z" fill="#66798f"></path></g><g><circle cx="12.5" cy="33.5" r="2" fill="#b0c1d4"></circle><path d="M12.5 32c.827 0 1.5.673 1.5 1.5s-.673 1.5-1.5 1.5-1.5-.673-1.5-1.5.673-1.5 1.5-1.5m0-1a2.5 2.5 0 100 5 2.5 2.5 0 000-5z" fill="#66798f"></path></g><g><circle cx="5.5" cy="33.5" r="2" fill="#b0c1d4"></circle><path d="M5.5 32c.827 0 1.5.673 1.5 1.5S6.327 35 5.5 35 4 34.327 4 33.5 4.673 32 5.5 32m0-1a2.5 2.5 0 100 5 2.5 2.5 0 000-5z" fill="#66798f"></path></g></svg>