<svg viewBox="0 0 40 40" xmlns="http://www.w3.org/2000/svg"><path fill="#bae0bd" d="M14.207 28.5H17.5v-11h5v11h3.293L20 34.293z"></path><path d="M22 18v11H24.586L20 33.586 15.414 29H18V18h4m1-1h-6v11h-4l7 7 7-7h-4V17z" fill="#5e9c76"></path><path d="M20 20.5c-5.238 0-9.5-4.262-9.5-9.5s4.262-9.5 9.5-9.5 9.5 4.262 9.5 9.5-4.262 9.5-9.5 9.5z" fill="#ffeea3"></path><path d="M20 2c4.963 0 9 4.037 9 9s-4.037 9-9 9-9-4.037-9-9 4.037-9 9-9m0-1c-5.523 0-10 4.477-10 10s4.477 10 10 10 10-4.477 10-10S25.523 1 20 1z" fill="#ba9b48"></path><circle cx="20" cy="11" r="7" fill="#f5ce85"></circle><path d="M39 16.5h-3.5v19a3 3 0 01-3 3h-25a3 3 0 01-3-3v-19H1" fill="none" stroke="#788b9c" stroke-miterlimit="10"></path><g><path d="M17.712 14.512v-1.205c.508.342 1.023.513 1.545.513.526 0 .949-.134 1.269-.402.32-.268.481-.626.481-1.072 0-.439-.163-.781-.489-1.026-.326-.245-.793-.367-1.402-.367-.209 0-.632.022-1.269.065l.275-4.073h3.813v1.07h-2.771l-.13 1.939c.248-.014.474-.022.675-.022.821 0 1.456.211 1.904.632.448.421.672.997.672 1.728 0 .767-.257 1.382-.77 1.845s-1.218.694-2.115.694c-.753 0-1.317-.107-1.688-.319z" fill="#967a44"></path></g></svg>