<svg viewBox="0 0 40 40" xmlns="http://www.w3.org/2000/svg"><path fill="#8BB7F0" d="M10.5 1.5h18v3h-18z"></path><path fill="#4E7AB5" d="M28 2v2H11V2h17m1-1H10v4h19V1z"></path><path fill="#8BB7F0" d="M1.5 34.5h36v3h-36z"></path><path fill="#4E7AB5" d="M37 35v2H2v-2h35m1-1H1v4h37v-4z"></path><g fill="#66798F"><circle cx="37.5" cy="32.5" r=".5"></circle><circle cx="36.8" cy="30.5" r=".5"></circle><circle cx="36.1" cy="28.5" r=".5"></circle><circle cx="35.4" cy="26.5" r=".5"></circle><circle cx="34.7" cy="24.5" r=".5"></circle><circle cx="34" cy="22.5" r=".5"></circle><circle cx="33.3" cy="20.5" r=".5"></circle><circle cx="32.7" cy="18.5" r=".5"></circle><circle cx="32" cy="16.5" r=".5"></circle><circle cx="31.3" cy="14.5" r=".5"></circle><circle cx="30.6" cy="12.5" r=".5"></circle><circle cx="29.9" cy="10.5" r=".5"></circle><circle cx="29.2" cy="8.5" r=".5"></circle><circle cx="28.5" cy="6.5" r=".5"></circle></g><g fill="#66798F"><circle cx="1.5" cy="32.5" r=".5"></circle><circle cx="2.2" cy="30.5" r=".5"></circle><circle cx="2.9" cy="28.5" r=".5"></circle><circle cx="3.6" cy="26.5" r=".5"></circle><circle cx="4.3" cy="24.5" r=".5"></circle><circle cx="5" cy="22.5" r=".5"></circle><circle cx="5.7" cy="20.5" r=".5"></circle><circle cx="6.3" cy="18.5" r=".5"></circle><circle cx="7" cy="16.5" r=".5"></circle><circle cx="7.7" cy="14.5" r=".5"></circle><circle cx="8.4" cy="12.5" r=".5"></circle><circle cx="9.1" cy="10.5" r=".5"></circle><circle cx="9.8" cy="8.5" r=".5"></circle><circle cx="10.5" cy="6.5" r=".5"></circle></g><path fill="#66798F" d="M21 20v-8h5l-6.5-7-6.5 7h5v15h-5l6.5 7 6.5-7h-5z"></path></svg>