<svg viewBox="0 0 40 40" xmlns="http://www.w3.org/2000/svg"><path fill="#8bb7f0" d="M1.707 8.484l6.775-6.776 29.81 29.81-6.775 6.776z"></path><path d="M8.483 2.414l29.103 29.103-6.069 6.069L2.414 8.483l6.069-6.069m0-1.414L1 8.483 31.517 39 39 31.517 8.483 1z" fill="#4e7ab5"></path><path fill="#f5ce85" d="M6.838 28.451l2.59-2.59 5.047 4.396-2.904 2.904-8.262 3.529z"></path><path d="M9.451 26.545l4.291 3.737-2.457 2.457-7.026 3.001 3.001-7.004 2.191-2.191m-.047-1.367l-2.988 2.988-4.059 9.474 9.499-4.057 3.351-3.351-5.803-5.054z" fill="#967a44"></path><path fill="#36404d" d="M4.661 32.273l-2.301 5.37 5.384-2.3z"></path><path d="M29.206 6.072l2.237-2.237a3.32 3.32 0 012.361-.978c.892 0 1.729.347 2.36.978s.978 1.469.978 2.361-.347 1.73-.978 2.361l-2.237 2.237-4.721-4.722z" fill="#f78f8f"></path><path d="M33.804 3.357a2.82 2.82 0 012.007.831 2.84 2.84 0 010 4.014l-1.884 1.884-4.014-4.014 1.884-1.884a2.82 2.82 0 012.007-.831m0-1c-.982 0-1.965.375-2.714 1.124l-2.591 2.591 5.429 5.429 2.591-2.591a3.84 3.84 0 00-2.715-6.553z" fill="#c74343"></path><path d="M12.202 32.53a1.777 1.777 0 00-.282-.454c-.31-.363-.749-.584-1.31-.661-.201-1.267-1.206-1.804-1.99-1.965-.132-.864-.649-1.342-1.201-1.582L29.035 6.241l4.722 4.721L12.202 32.53z" fill="#ffeea3"></path><path d="M29.035 6.948l4.014 4.014-20.762 20.775c-.242-.278-.638-.59-1.261-.748-.306-1.078-1.155-1.685-1.984-1.943a2.454 2.454 0 00-.821-1.272L29.035 6.948m0-1.414L6.416 28.166h.021c.197 0 1.715.054 1.715 1.731 0 0 1.993.062 1.993 1.99 1.982 0 1.71 1.697 1.71 1.697l22.607-22.621-5.427-5.429z" fill="#ba9b48"></path><path fill="#d9e7f5" d="M27.187 8.091l3.463-3.463 4.722 4.72-3.464 3.464z"></path><path d="M30.651 5.335l4.014 4.014-2.757 2.757-4.014-4.014 2.757-2.757m0-1.415L26.48 8.091l5.429 5.429 4.171-4.171-5.429-5.429z" fill="#788b9c"></path><path fill="none" stroke="#4e7ab5" stroke-miterlimit="10" d="M11.011 4.561L8.296 7.275M13.725 7.275l-1.526 1.526M16.439 9.989l-2.714 2.715M19.153 12.704l-1.526 1.526M27.296 20.847l-1.526 1.526M30.011 23.561l-2.715 2.714M32.725 26.275l-1.526 1.526M35.439 28.989l-2.714 2.715"></path></svg>