<svg viewBox="0 0 40 40" xmlns="http://www.w3.org/2000/svg"><circle cx="10.5" cy="24.5" r="2" fill="#ffeea3"></circle><path d="M10.5 23c.827 0 1.5.673 1.5 1.5s-.673 1.5-1.5 1.5S9 25.327 9 24.5s.673-1.5 1.5-1.5m0-1a2.5 2.5 0 100 5 2.5 2.5 0 000-5z" fill="#ba9b48"></path><path fill="#ffc49c" d="M11 7.606l15.286-5.095v3.557L11 11.164z"></path><path d="M25.786 3.205v2.503L11.5 10.47V7.967l14.286-4.762m1-1.388L10.5 7.246v4.611l16.286-5.429V1.817z" fill="#a16a4a"></path><path fill="#ffc49c" d="M25.74 35.786L33.384 20.5h3.512l-7.643 15.286z"></path><path d="M36.086 21l-7.143 14.286H26.55L33.693 21h2.393m1.618-1h-4.629l-8.143 16.286h4.629L37.704 20z" fill="#a16a4a"></path><path fill="#ffc49c" d="M25.645 6.079l1.89-3.261 9.026 16.54-3.109 1.036z"></path><path d="M27.523 3.838l8.313 15.234-2.144.715-7.473-13.7 1.304-2.249m.026-2.039l-2.478 4.272L33.214 21l4.071-1.357-9.736-17.844z" fill="#a16a4a"></path><circle cx="35" cy="20" r="2.5" fill="#dcd5f2"></circle><path d="M35 18c1.103 0 2 .897 2 2s-.897 2-2 2-2-.897-2-2 .897-2 2-2m0-1a3 3 0 100 6 3 3 0 000-6z" fill="#8b75a1"></path><g><circle cx="26" cy="4" r="2.5" fill="#dcd5f2"></circle><path d="M26 2c1.103 0 2 .897 2 2s-.897 2-2 2-2-.897-2-2 .897-2 2-2m0-1a3 3 0 100 6 3 3 0 000-6z" fill="#8b75a1"></path></g><g><path d="M1.506 23.5c.167-6.957 3.818-11.772 8.994-11.772s8.827 4.815 8.994 11.772H1.506z" fill="#dcd5f2"></path><path d="M10.5 12.228c4.76 0 8.155 4.38 8.475 10.772H2.025c.32-6.392 3.715-10.772 8.475-10.772m0-1C5.253 11.228 1 16.039 1 24h19c0-7.961-4.253-12.772-9.5-12.772z" fill="#8b75a1"></path></g><g><path d="M7.5 12.5v-4c0-1.654 1.346-3 3-3s3 1.346 3 3v4h-6z" fill="#dcd5f2"></path><path d="M10.5 6C11.879 6 13 7.122 13 8.5V12H8V8.5C8 7.122 9.121 6 10.5 6m0-1A3.5 3.5 0 007 8.5V13h7V8.5A3.5 3.5 0 0010.5 5z" fill="#8b75a1"></path></g><g><path d="M13.5 38.5V38c0-1.93 1.57-3.5 3.5-3.5h18c1.93 0 3.5 1.57 3.5 3.5v.5h-25z" fill="#dcd5f2"></path><path d="M35 35c1.654 0 3 1.346 3 3H14c0-1.654 1.346-3 3-3h18m0-1H17a4 4 0 00-4 4v1h26v-1a4 4 0 00-4-4z" fill="#8b75a1"></path></g><path fill="#8b75a1" d="M19 33h3v2h-3z"></path></svg>