<svg viewBox="0 0 40 40" xmlns="http://www.w3.org/2000/svg"><path d="M3.69 35.5a2.192 2.192 0 01-2.19-2.19V6.69c0-1.208.982-2.19 2.19-2.19h32.62c1.208 0 2.19.982 2.19 2.19v26.62c0 1.208-.982 2.19-2.19 2.19H3.69z" fill="#c2e8ff"></path><path d="M36.31 5c.932 0 1.69.758 1.69 1.69v26.62c0 .932-.758 1.69-1.69 1.69H3.69C2.758 35 2 34.242 2 33.31V6.69C2 5.758 2.758 5 3.69 5h32.62m0-1H3.69A2.69 2.69 0 001 6.69v26.62A2.69 2.69 0 003.69 36h32.62A2.69 2.69 0 0039 33.31V6.69A2.69 2.69 0 0036.31 4z" fill="#7496c4"></path><path fill="none" stroke="#7496c4" stroke-miterlimit="10" d="M9 14.5h8M6 14.5h1M9 18.5h8M6 18.5h1M9 22.5h8M6 22.5h1M9 26.5h8M6 26.5h1M26 14.5h8M23 14.5h1M26 18.5h8M23 18.5h1M26 22.5h8M23 22.5h1M26 26.5h8M23 26.5h1"></path></svg>