<svg viewBox="0 0 40 40" xmlns="http://www.w3.org/2000/svg"><path fill="#ffc49c" d="M1.5 1.5h11v11h-11z"></path><path d="M12 2v10H2V2h10m1-1H1v12h12V1z" fill="#a16a4a"></path><path fill="#bae0bd" d="M1.5 14.5h11v11h-11z"></path><path d="M12 15v10H2V15h10m1-1H1v12h12V14z" fill="#5e9c76"></path><path fill="#8bb7f0" d="M1.5 27.5h11v11h-11z"></path><path d="M12 28v10H2V28h10m1-1H1v12h12V27z" fill="#4e7ab5"></path><path fill="#ffeea3" d="M3 33l4-4 4 4-4 4z"></path><path fill="#ffeea3" d="M4 30h6v6H4z"></path><path fill="#788b9c" d="M17 6h9v1h-9zM17 19h9v1h-9zM17 32h9v1h-9zM30 6h9v1h-9zM30 19h9v1h-9zM30 32h9v1h-9z"></path><path fill="#a16a4a" d="M9.069 6.924L7 8.846 9.846 12H12V9.652z"></path><circle cx="10" cy="4" r="1" fill="#fff"></circle><path fill="#e09367" d="M10.463 12H2V9.5l3.333-3.333z"></path><path d="M7 20l-1.165-1.942A1.359 1.359 0 017 16a1.359 1.359 0 011.165 2.058L7 20zM7 20l1.165 1.942A1.359 1.359 0 017 24a1.359 1.359 0 01-1.165-2.058L7 20z" fill="#fff"></path><path d="M7 20l-2.264.038A1.359 1.359 0 013.536 18a1.359 1.359 0 012.365.02L7 20zM7 20l2.264-.038a1.359 1.359 0 011.2 2.038 1.359 1.359 0 01-2.365-.02L7 20z" fill="#fff"></path><path d="M7 20l-1.099 1.98a1.359 1.359 0 11-1.165-2.018L7 20zM7 20l1.099-1.98a1.359 1.359 0 111.165 2.018L7 20z" fill="#fff"></path><circle cx="7" cy="20" r="1.5" fill="#ffeea3"></circle><circle cx="7" cy="33" r="1.5" fill="#fff"></circle></svg>