<svg viewBox="0 0 40 40" xmlns="http://www.w3.org/2000/svg"><path d="M36.501 38.5a1.987 1.987 0 01-1.413-.585l-17.39-18.224 1.983-1.985 18.242 17.391a1.998 1.998 0 01-1.422 3.403z" fill="#b6c9d6"></path><path d="M19.69 18.405l17.871 17.037a1.502 1.502 0 010 2.12 1.492 1.492 0 01-1.06.438c-.4 0-.777-.156-1.044-.422l-17.06-17.879 1.293-1.294m-.017-1.398L17 19.683l17.734 18.585a2.492 2.492 0 001.767.732 2.499 2.499 0 001.767-4.266L19.673 17.007z" fill="#788b9c"></path><path d="M14 26.5C7.107 26.5 1.5 20.893 1.5 14S7.107 1.5 14 1.5 26.5 7.107 26.5 14 20.893 26.5 14 26.5z" fill="#ffeea3"></path><path d="M14 2c6.617 0 12 5.383 12 12s-5.383 12-12 12S2 20.617 2 14 7.383 2 14 2m0-1C6.82 1 1 6.82 1 14s5.82 13 13 13 13-5.82 13-13S21.18 1 14 1z" fill="#788b9c"></path><path d="M14 21.5c-5.594 0-10.372-6.109-11.387-7.5C3.628 12.609 8.406 6.5 14 6.5s10.372 6.109 11.387 7.5c-1.015 1.391-5.793 7.5-11.387 7.5z" fill="#fff"></path><path d="M14 7c5.034 0 9.438 5.252 10.764 7-1.326 1.748-5.729 7-10.764 7s-9.438-5.252-10.764-7C4.562 12.252 8.966 7 14 7m0-1C7.373 6 2 14 2 14s5.373 8 12 8 12-8 12-8-5.373-8-12-8z" fill="#ba9b48"></path><g><path d="M14 18.5c-2.481 0-4.5-2.019-4.5-4.5s2.019-4.5 4.5-4.5 4.5 2.019 4.5 4.5-2.019 4.5-4.5 4.5z" fill="#8bb7f0"></path><path d="M14 10c2.206 0 4 1.794 4 4s-1.794 4-4 4-4-1.794-4-4 1.794-4 4-4m0-1a5 5 0 10.001 10.001A5 5 0 0014 9z" fill="#4e7ab5"></path></g><circle cx="14" cy="14" r="2" fill="#36404d"></circle><circle cx="16" cy="11" r="2" fill="#fff"></circle></svg>