<svg viewBox="0 0 40 40" xmlns="http://www.w3.org/2000/svg"><path fill="#e1ebf2" d="M20.5 1.5h18v37h-18z"></path><path d="M38 2v36H21V2h17m1-1H20v38h19V1z" fill="#66798f"></path><circle cx="29.5" cy="27.5" r="2" fill="#8bb7f0"></circle><path d="M29.5 26a1.5 1.5 0 11-1.5 1.5 1.5 1.5 0 011.5-1.5m0-1a2.5 2.5 0 102.5 2.5 2.5 2.5 0 00-2.5-2.5z" fill="#4e7ab5"></path><path fill="#b0c1d4" d="M23.5 12.5h12v2h-12z"></path><path d="M35 13v1H24v-1h11m1-1H23v3h13v-3z" fill="#66798f"></path><path d="M17 18v6h-6v-6h6m0-2h-6a2 2 0 00-2 2v6a2 2 0 002 2h6a2 2 0 002-2v-6a2 2 0 00-2-2z" fill="#36404d"></path><path fill="#b0c1d4" d="M23.5 6.5h12v3h-12z"></path><path d="M35 7v2H24V7h11m1-1H23v4h13V6z" fill="#66798f"></path><path fill="#f76d6d" d="M1.5 26.5h25v12h-25z"></path><path d="M26 27v11H2V27h24m1-1H1v13h26V26z" fill="#c74343"></path><path d="M1.5 26.5V23A2.5 2.5 0 014 20.5h20a2.5 2.5 0 012.5 2.5v3.5z" fill="#f78f8f"></path><path d="M24 21a2 2 0 012 2v3H2v-3a2 2 0 012-2h20m0-1H4a3 3 0 00-3 3v4h26v-4a3 3 0 00-3-3z" fill="#c74343"></path><path fill="#b0c1d4" d="M5.5 25.5h3v3h-3z"></path><path d="M8 26v2H6v-2h2m1-1H5v4h4v-4z" fill="#66798f"></path><path fill="#b0c1d4" d="M19.5 25.5h3v3h-3z"></path><path d="M22 26v2h-2v-2h2m1-1h-4v4h4v-4z" fill="#66798f"></path></svg>