<svg viewBox="0 0 40 40" xmlns="http://www.w3.org/2000/svg"><path d="M10 22.214a4.505 4.505 0 01-4.5-4.5V6c0-2.481 2.019-4.5 4.5-4.5s4.5 2.019 4.5 4.5v11.714c0 2.482-2.019 4.5-4.5 4.5z" fill="#e1ebf2"></path><path d="M10 2c2.206 0 4 1.794 4 4v11.714c0 2.206-1.794 4-4 4s-4-1.794-4-4V6c0-2.206 1.794-4 4-4m0-1C7.25 1 5 3.25 5 6v11.714c0 2.75 2.25 5 5 5s5-2.25 5-5V6c0-2.75-2.25-5-5-5z" fill="#788b9c"></path><path d="M10 38.5c-4.136 0-7.5-3.364-7.5-7.5a7.469 7.469 0 012.813-5.85L5.5 25v-9.5h9V25l.187.15A7.469 7.469 0 0117.5 31c0 4.136-3.364 7.5-7.5 7.5z" fill="#8bb7f0"></path><path d="M14 16v9.24l.374.3A6.97 6.97 0 0117 31c0 3.86-3.14 7-7 7s-7-3.14-7-7a6.97 6.97 0 012.626-5.46l.374-.3V16h8m1-1H5v9.76A7.984 7.984 0 002 31a8 8 0 0016 0 7.984 7.984 0 00-3-6.24V15z" fill="#4e7ab5"></path><path d="M25.5 25.5c-2.757 0-5-2.386-5-5.318 0-2.298 3.308-7.133 5-9.364 1.692 2.231 5 7.066 5 9.364 0 2.932-2.243 5.318-5 5.318z" fill="#c2e8ff"></path><path d="M25.5 11.649c1.994 2.699 4.5 6.697 4.5 8.533C30 22.839 27.981 25 25.5 25S21 22.839 21 20.182c0-1.834 2.506-5.833 4.5-8.533m0-1.649S20 16.969 20 20.182 22.462 26 25.5 26s5.5-2.605 5.5-5.818C31 16.969 25.5 10 25.5 10z" fill="#7496c4"></path><path d="M34.5 12.5c-1.654 0-3-1.458-3-3.25 0-1.368 1.907-4.07 3-5.456 1.093 1.386 3 4.088 3 5.456 0 1.792-1.346 3.25-3 3.25z" fill="#c2e8ff"></path><path d="M34.5 4.61C35.712 6.216 37 8.285 37 9.25c0 1.516-1.122 2.75-2.5 2.75S32 10.766 32 9.25c0-.965 1.288-3.034 2.5-4.64m0-1.61S31 7.179 31 9.25c0 2.071 1.567 3.75 3.5 3.75S38 11.321 38 9.25C38 7.179 34.5 3 34.5 3z" fill="#7496c4"></path><path d="M33 36.5c-1.93 0-3.5-1.626-3.5-3.625 0-1.541 2.259-4.597 3.5-6.101 1.241 1.504 3.5 4.561 3.5 6.101 0 1.999-1.57 3.625-3.5 3.625z" fill="#c2e8ff"></path><path d="M33 27.566c1.428 1.798 3 4.198 3 5.309C36 34.598 34.654 36 33 36s-3-1.402-3-3.125c0-1.109 1.572-3.51 3-5.309M33 26s-4 4.597-4 6.875S30.791 37 33 37s4-1.847 4-4.125S33 26 33 26z" fill="#7496c4"></path><path fill="#4e7ab5" d="M9 19h6v1H9zM9 23h6v1H9z"></path><path fill="#788b9c" d="M9 11h6v1H9zM9 7h6v1H9z"></path></svg>