<svg viewBox="0 0 40 40" xmlns="http://www.w3.org/2000/svg"><path fill="#c8d1db" d="M17.5 31.5h5v7h-5z"></path><path d="M22 32v6h-4v-6h4m1-1h-6v8h6v-8z" fill="#66798f"></path><path d="M11 34.5A6.508 6.508 0 014.5 28V5c0-1.622 6.366-3.429 15.5-3.429S35.5 3.378 35.5 5v23c0 3.584-2.916 6.5-6.5 6.5H11z" fill="#8bb7f0"></path><path d="M20 2.071c9.897 0 15 2.053 15 2.929v23c0 3.308-2.692 6-6 6H11c-3.308 0-6-2.692-6-6V5c0-.876 5.103-2.929 15-2.929m0-1C11.163 1.071 4 2.751 4 5v23a7 7 0 007 7h18a7 7 0 007-7V5c0-2.249-7.163-3.929-16-3.929z" fill="#4e7ab5"></path><path fill="#fff" d="M9.5 7.5h21v14h-21z"></path><path d="M30 8v13H10V8h20m1-1H9v15h22V7z" fill="#4e7ab5"></path><g><path d="M10 29.5a.5.5 0 01-.5-.5v-4a.5.5 0 01.5-.5h8a.5.5 0 01.5.5v4a.5.5 0 01-.5.5h-8z" fill="#c2e8ff"></path><path d="M18 25v4h-8v-4h8m0-1h-8a1 1 0 00-1 1v4a1 1 0 001 1h8a1 1 0 001-1v-4a1 1 0 00-1-1z" fill="#4e7ab5"></path></g><g><path d="M22 29.5a.5.5 0 01-.5-.5v-4a.5.5 0 01.5-.5h8a.5.5 0 01.5.5v4a.5.5 0 01-.5.5h-8z" fill="#c2e8ff"></path><path d="M30 25v4h-8v-4h8m0-1h-8a1 1 0 00-1 1v4a1 1 0 001 1h8a1 1 0 001-1v-4a1 1 0 00-1-1z" fill="#4e7ab5"></path></g><g><path d="M20 18.5a2.503 2.503 0 01-2.5-2.5c0-.967 1.398-3.422 2.5-5.104 1.102 1.682 2.5 4.137 2.5 5.104 0 1.378-1.122 2.5-2.5 2.5z" fill="#f78f8f"></path><path d="M20 11.821c1.067 1.704 2 3.517 2 4.179 0 1.103-.897 2-2 2s-2-.897-2-2c0-.662.933-2.474 2-4.179M20 10s-3 4.343-3 6a3 3 0 106 0c0-1.657-3-6-3-6z" fill="#c74343"></path></g></svg>