<svg viewBox="0 0 40 40" xmlns="http://www.w3.org/2000/svg"><path d="M33 36.5a5.506 5.506 0 01-5.5-5.5c0-2.396 3.651-8.347 5.5-11.11 1.849 2.763 5.5 8.715 5.5 11.11 0 3.033-2.468 5.5-5.5 5.5z" fill="#f78f8f"></path><path d="M33 20.793c2.204 3.364 5 8.273 5 10.207 0 2.757-2.243 5-5 5s-5-2.243-5-5c0-1.934 2.796-6.843 5-10.207M33 19s-6 8.686-6 12a6 6 0 1012 0c0-3.314-6-12-6-12z" fill="#c74343"></path><path d="M7 32.5A5.506 5.506 0 011.5 27v-8.071c0-1.731.68-3.355 1.913-4.573l.374-.37-.009-.007 9.601-9.601c.566-.566 1.319-.878 2.121-.878s1.555.312 2.121.878c.566.567.879 1.321.879 2.122s-.313 1.554-.879 2.121L13.742 12.5H20.5v20H7z" fill="#ffeea3"></path><path d="M15.5 4c.668 0 1.296.26 1.768.732S18 5.832 18 6.5c0 .668-.26 1.296-.732 1.768l-3.025 3.025L12.536 13H20v19H7c-2.757 0-5-2.243-5-5v-8.071c0-1.596.626-3.093 1.764-4.217l.711-.713-.004-.004 9.262-9.262A2.477 2.477 0 0115.5 4m0-1c-.896 0-1.791.342-2.475 1.025l-9.969 9.969.005.006A6.905 6.905 0 001 18.929V27a6 6 0 006 6h14V12h-6.05l3.025-3.025A3.5 3.5 0 0015.5 3z" fill="#ba9b48"></path><path d="M19.5 22.5v-5H22c1.379 0 2.5 1.122 2.5 2.5s-1.121 2.5-2.5 2.5h-2.5z" fill="#ffeea3"></path><path d="M22 18c1.103 0 2 .897 2 2s-.897 2-2 2h-2v-4h2m0-1h-3v6h3a3 3 0 100-6z" fill="#ba9b48"></path><path d="M17.9 17.5v-5H33c1.379 0 2.5 1.122 2.5 2.5s-1.121 2.5-2.5 2.5H17.9z" fill="#ffeea3"></path><path d="M33 13c1.103 0 2 .897 2 2s-.897 2-2 2H18.4v-4H33m0-1H17.4v6H33a3 3 0 100-6z" fill="#ba9b48"></path><g><path d="M19.5 27.5v-5H22c1.379 0 2.5 1.122 2.5 2.5s-1.121 2.5-2.5 2.5h-2.5z" fill="#ffeea3"></path><path d="M22 23c1.103 0 2 .897 2 2s-.897 2-2 2h-2v-4h2m0-1h-3v6h3a3 3 0 100-6z" fill="#ba9b48"></path></g><g><path d="M17.3 32.5v-5H21c1.379 0 2.5 1.122 2.5 2.5s-1.121 2.5-2.5 2.5h-3.7z" fill="#ffeea3"></path><path d="M21 28c1.103 0 2 .897 2 2s-.897 2-2 2h-3.2v-4H21m0-1h-4.2v6H21a3 3 0 100-6z" fill="#ba9b48"></path></g><path fill="#ffeea3" d="M20 31h1V13h-5v19h4z"></path></svg>