<svg viewBox="0 0 40 40" xmlns="http://www.w3.org/2000/svg"><path fill="#66798f" d="M1 15.615h1V39H1zM38 15.615h1V39h-1z"></path><path fill="#c8d1db" d="M1.5 15.5h37v5h-37z"></path><path d="M38 16v4H2v-4h36m1-1H1v6h38v-6z" fill="#66798f"></path><path d="M5.5 38.5V3c0-.827.673-1.5 1.5-1.5h26c.827 0 1.5.673 1.5 1.5v35.5h-29z" fill="#c2e8ff"></path><path d="M33 2c.551 0 1 .449 1 1v35H6V3c0-.551.449-1 1-1h26m0-1H7a2 2 0 00-2 2v36h30V3a2 2 0 00-2-2z" fill="#4e7ab5"></path><path d="M33 2c.551 0 1 .449 1 1v17.465C29.658 21.47 24.836 22 20 22s-9.658-.53-14-1.535V3c0-.551.449-1 1-1h26m0-1H7a2 2 0 00-2 2v18.253C9.456 22.357 14.554 23 20 23s10.544-.643 15-1.747V3a2 2 0 00-2-2z" fill="#4e7ab5"></path><path d="M20 22.5c-3.22 0-6.414-.23-9.5-.684V1.5h19v20.316c-3.086.454-6.28.684-9.5.684z" fill="#8bb7f0"></path><path d="M29 2v19.383c-2.928.41-5.951.617-9 .617s-6.072-.207-9-.617V2h18m1-1H10v21.247c3.138.484 6.495.753 10 .753s6.862-.269 10-.753V1z" fill="#4e7ab5"></path><g><path d="M20 34.5a2.503 2.503 0 01-2.5-2.5c0-.967 1.398-3.422 2.5-5.104 1.102 1.682 2.5 4.137 2.5 5.104 0 1.378-1.122 2.5-2.5 2.5z" fill="#f78f8f"></path><path d="M20 27.821c1.067 1.704 2 3.517 2 4.179 0 1.103-.897 2-2 2s-2-.897-2-2c0-.662.933-2.474 2-4.179M20 26s-3 4.343-3 6a3 3 0 106 0c0-1.657-3-6-3-6z" fill="#c74343"></path></g><g fill="#fff"><path d="M26 10H15l-1-3h11zM26 16H15l-1-3h11z"></path></g><path fill="#66798f" d="M1 38h38v1H1z"></path></svg>