<svg viewBox="0 0 40 40" xmlns="http://www.w3.org/2000/svg"><path fill="#97c9ff" d="M17 0h6v4h-6z"></path><path fill="#589cdb" d="M21 11h-2l-2-7h6z"></path><path fill="#97c9ff" d="M19 11h-2l-5-7h5z"></path><path fill="#4e7ab5" d="M21 11h2l5-7h-5z"></path><path fill="#589cdb" d="M23 0l5 4h-5z"></path><path fill="#a1e2ff" d="M17 0l-5 4h5z"></path><path d="M23.073 1l3.588 3.154L22.485 10H17.515l-4.176-5.846L16.927 1h6.146m.377-1h-6.9L12 4l5 7h6l5-7-4.55-4z" fill="#4e7ab5"></path><path d="M25 11H15c-.55 0-1-.45-1-1s.45-1 1-1h10c.55 0 1 .45 1 1s-.45 1-1 1z" fill="#a16a4a"></path><g><path d="M20 39.5c-7.995 0-14.5-6.505-14.5-14.5S12.005 10.5 20 10.5 34.5 17.005 34.5 25 27.995 39.5 20 39.5zm0-25c-5.79 0-10.5 4.71-10.5 10.5S14.21 35.5 20 35.5 30.5 30.79 30.5 25 25.79 14.5 20 14.5z" fill="#f5ce85"></path><path d="M20 11c7.72 0 14 6.28 14 14s-6.28 14-14 14S6 32.72 6 25s6.28-14 14-14m0 25c6.065 0 11-4.935 11-11s-4.935-11-11-11S9 18.935 9 25s4.935 11 11 11m0-26c-8.291 0-15 6.709-15 15s6.709 15 15 15 15-6.709 15-15-6.709-15-15-15zm0 25c-5.514 0-10-4.486-10-10s4.486-10 10-10 10 4.486 10 10-4.486 10-10 10z" fill="#a16a4a"></path></g></svg>