<svg viewBox="0 0 40 40" xmlns="http://www.w3.org/2000/svg"><path fill-rule="evenodd" clip-rule="evenodd" fill="#c2e8ff" d="M27 3l-1-1-11.894-.406-1.473 1.654-1.766 12.129 9.423 22.69 8.623-21.969z"></path><path fill-rule="evenodd" clip-rule="evenodd" fill="#a4d6f5" d="M13 2L4 15l16 23-8.923-22.071z"></path><path fill-rule="evenodd" clip-rule="evenodd" fill="#d6f0ff" d="M27 2l9.654 12.571L20.5 37.643l8.72-22.108z"></path><path fill="#c2e8ff" stroke="#4e7ab5" stroke-miterlimit="2" d="M29.25 15.25L26.5 1.5"></path><path d="M26.97 2l8.813 12.988L20 37.27 4.217 14.988 13.03 2h13.94m.53-1h-15L3 15l17 24 17-24-9.5-14z" fill="#4e7ab5"></path><path fill="#c2e8ff" stroke="#4e7ab5" stroke-miterlimit="2" d="M10.5 15.5l9 22M29.5 15.5l-9 22M36 15.5H4"></path><path fill="none" stroke="#4e7ab5" stroke-linejoin="bevel" stroke-miterlimit="2" d="M10.404 15.25L20.5 1.5l8.75 13.75"></path><path fill="#c2e8ff" stroke="#4e7ab5" stroke-miterlimit="2" d="M13.5 1.5l-3.096 13.75"></path></svg>