<svg viewBox="0 0 40 40" xmlns="http://www.w3.org/2000/svg"><path fill="#BAE0BD" d="M19.3 38.3l-.2-.1-16.6-9.5V10.3l17-8.7 17 8.7v18.4l-16.9 9.6v.1h-.1z"></path><path fill="#5E9C76" d="M19.5 2.1L36 10.6v17.8l-16.3 9.3-.1.1-.2-.1L3 28.4V10.6l16.5-8.5m0-1.1L2 10v19l16.9 9.6.6.3.6-.3L37 29V10L19.5 1z"></path><path fill="#72B289" d="M2.5 28.7V10.9l16.9 9.6h.2l.4 17.6-.5.3z"></path><path fill="#5E9C76" d="M19.5 39L2 29V10l17.6 10h.5l.4 18.4-1 .6zM3 28.4l16.5 9.4-.4-16.9L3 11.8v16.6z"></path><path fill="#5E9C76" d="M19.5 20H19v18.6l.5.4L37 29V10z"></path><ellipse fill="#FFF" cx="19.5" cy="10" rx="3.8" ry="2"/><path fill="#FFF" d="M26.6 21.1c.5.3.5 1.4-.1 2.4s-1.6 1.6-2.1 1.3c-.5-.3-.5-1.4.1-2.4.6-1.1 1.5-1.6 2.1-1.3zM14.4 21.1c-.5.3-.5 1.4.1 2.4s1.6 1.6 2.1 1.3c.5-.3.5-1.4-.1-2.4-.6-1.1-1.5-1.6-2.1-1.3zM9.4 23.1c-.5.3-.5 1.4.1 2.4s1.6 1.6 2.1 1.3c.5-.3.5-1.4-.1-2.4-.6-1.1-1.5-1.6-2.1-1.3zM4.4 25.1c-.5.3-.5 1.4.1 2.4s1.6 1.6 2.1 1.3c.5-.3.5-1.4-.1-2.4-.6-1.1-1.5-1.6-2.1-1.3zM33.6 25.1c.5.3.5 1.4-.1 2.4s-1.6 1.6-2.1 1.3c-.5-.3-.5-1.4.1-2.4.6-1.1 1.5-1.6 2.1-1.3z"></path></svg>