<svg viewBox="0 0 40 40" xmlns="http://www.w3.org/2000/svg"><path d="M30 16.5a.5.5 0 01-.5-.5v-1.5H28c-.827 0-1.5-.673-1.5-1.5v-.237l-.183-.193c-1.206-.989-1.817-2.358-1.817-4.07 0-3.86 3.141-7 7-7s7 3.14 7 7c0 1.712-.611 3.081-1.817 4.07l-.183.15v.237c0 .871-.673 1.543-1.5 1.543h-1.5V16a.5.5 0 01-.5.5h-3z" fill="#f5ce85"></path><path d="M31.5 2C35.084 2 38 4.916 38 8.5c0 1.555-.55 2.794-1.634 3.683l-.366.344V13c0 .551-.449 1-1 1h-2v2h-3v-2h-2c-.551 0-1-.449-1-1.043v-.473l-.366-.3C25.55 11.294 25 10.055 25 8.5 25 4.916 27.916 2 31.5 2m0-1A7.5 7.5 0 0024 8.5c0 1.966.762 3.442 2 4.457V13a2 2 0 002 2h1v1a1 1 0 001 1h3a1 1 0 001-1v-1h1a2 2 0 002-2v-.043c1.238-1.015 2-2.491 2-4.457A7.5 7.5 0 0031.5 1z" fill="#967a44"></path><circle cx="29" cy="9" r="2" fill="#967a44"></circle><circle cx="34" cy="9" r="2" fill="#967a44"></circle><path d="M31.5 10.846s-1.077 1.077-1.077 1.615a.538.538 0 001.076 0c0-.063 0-.063 0 0a.538.538 0 001.076 0c.002-.538-1.075-1.615-1.075-1.615z" fill="#967a44"></path><path d="M9.19 28.5l-2.54-8.465a3.499 3.499 0 01.549-3.116 3.493 3.493 0 012.826-1.419 3.503 3.503 0 013.375 2.51l3.146 10.49H9.19z" fill="#dbf2ff"></path><path d="M10.026 16c1.345 0 2.509.866 2.895 2.154L15.875 28H9.563L7.13 19.891a2.997 2.997 0 01.47-2.673A2.997 2.997 0 0110.026 16m0-1c-2.695 0-4.628 2.598-3.853 5.179L8.819 29h8.4l-3.34-11.133A4.023 4.023 0 0010.026 15z" fill="#66798f"></path><path d="M34.5 38.5v-3h-29v3h-4v-24c0-1.103.897-2 2-2s2 .897 2 2v17h33v7h-4z" fill="#f5ce85"></path><path d="M3.5 13c.827 0 1.5.673 1.5 1.5V32h33v6h-3v-3H5v3H2V14.5c0-.827.673-1.5 1.5-1.5m0-1A2.5 2.5 0 001 14.5V39h5v-3h28v3h5v-8H6V14.5A2.5 2.5 0 003.5 12z" fill="#967a44"></path><g><path fill="#dbf2ff" d="M5.5 28.5h33v3h-33z"></path><path d="M38 29v2H6v-2h32m1-1H5v4h34v-4z" fill="#66798f"></path></g><g><path d="M14.5 31.5v-11H32c3.584 0 6.5 2.916 6.5 6.5v4.5h-24z" fill="#8bb7f0"></path><path d="M32 21c3.308 0 6 2.692 6 6v4H15V21h17m0-1H14v12h25v-5a7 7 0 00-7-7z" fill="#4e7ab5"></path></g><g><circle cx="9" cy="11" r="3.5" fill="#ffeea3"></circle><path d="M9 8c1.654 0 3 1.346 3 3s-1.346 3-3 3-3-1.346-3-3 1.346-3 3-3m0-1a4 4 0 100 8 4 4 0 000-8z" fill="#ba9b48"></path></g></svg>