<svg viewBox="0 0 40 40" xmlns="http://www.w3.org/2000/svg"><path d="M20 38.5c-12.45 0-18.5-4.28-18.5-13.07 0-5.2 2.68-10 8-14.43a5.18 5.18 0 002.18-4.35 3 3 0 01.84-2.35 1.56 1.56 0 011.19-.48A5.78 5.78 0 0115 4a6 6 0 001.37.22 2.28 2.28 0 00.5-.05 3 3 0 001.79-1.58c.44-.69.73-1.09 1.34-1.09s.9.4 1.35 1.12a3 3 0 001.8 1.58 2.28 2.28 0 00.5.05A6 6 0 0025 4a5.78 5.78 0 011.3-.22 1.56 1.56 0 011.19.48 3 3 0 01.84 2.35A5.18 5.18 0 0030.54 11c5.28 4.38 8 9.23 8 14.43C38.5 34.22 32.45 38.5 20 38.5z" fill="#ffeea3"></path><path d="M20 2c.32 0 .49.19.93.89A3.49 3.49 0 0023 4.69a2.78 2.78 0 00.62.07 6.33 6.33 0 001.49-.24 5.34 5.34 0 011.18-.2 1.07 1.07 0 01.83.34 2.54 2.54 0 01.7 2 5.61 5.61 0 002.36 4.72c5.16 4.28 7.78 9 7.78 14C38 33.89 32.11 38 20 38S2 33.89 2 25.43c0-5 2.62-9.76 7.78-14a5.61 5.61 0 002.36-4.72 2.54 2.54 0 01.7-2 1.07 1.07 0 01.83-.34 5.34 5.34 0 011.18.2 6.33 6.33 0 001.49.24 2.75 2.75 0 00.66-.12 3.49 3.49 0 002.1-1.8c.45-.7.61-.89.93-.89m0-1c-1.72 0-1.72 2.36-3.26 2.71a1.77 1.77 0 01-.39 0c-.81 0-1.76-.44-2.67-.44a2.07 2.07 0 00-1.54.63c-2.07 2.07.37 3.88-3 6.67C5.43 13.69 1 18.58 1 25.43 1 35.92 9.51 39 20 39s19-3.08 19-13.57c0-6.84-4.43-11.73-8.14-14.81-3.36-2.78-.92-4.6-3-6.67a2.07 2.07 0 00-1.54-.63c-.92 0-1.86.44-2.67.44a1.77 1.77 0 01-.39 0C21.72 3.36 21.72 1 20 1z" fill="#ba9b48"></path><path d="M24.5 7.5a13.05 13.05 0 004 7M21.5 10.5s.68 5.12 4 8M15.5 7.5a13.05 13.05 0 01-4 7M18.5 10.5s-.68 5.12-4 8" fill="none" stroke="#ba9b48" stroke-linecap="round" stroke-linejoin="round"></path></svg>