<svg viewBox="0 0 40 40" xmlns="http://www.w3.org/2000/svg"><path d="M4 32.5A2.503 2.503 0 011.5 30V10c0-1.378 1.121-2.5 2.5-2.5h32c1.379 0 2.5 1.122 2.5 2.5v20c0 1.378-1.121 2.5-2.5 2.5H4z" fill="#e1ebf2"></path><path d="M36 8c1.103 0 2 .897 2 2v20c0 1.103-.897 2-2 2H4c-1.103 0-2-.897-2-2V10c0-1.103.897-2 2-2h32m0-1H4a3 3 0 00-3 3v20a3 3 0 003 3h32a3 3 0 003-3V10a3 3 0 00-3-3z" fill="#788b9c"></path><path d="M14 28.5c-4.687 0-8.5-3.813-8.5-8.5s3.813-8.5 8.5-8.5h12c4.687 0 8.5 3.813 8.5 8.5s-3.813 8.5-8.5 8.5H14z" fill="#8bb7f0"></path><path d="M26 12c4.411 0 8 3.589 8 8s-3.589 8-8 8H14c-4.411 0-8-3.589-8-8s3.589-8 8-8h12m0-1H14a9 9 0 00-9 9 9 9 0 009 9h12a9 9 0 009-9 9 9 0 00-9-9z" fill="#4e7ab5"></path><path d="M14 13c-3.85 0-7 3.15-7 7s3.15 7 7 7 7-3.15 7-7-3.15-7-7-7zm-4.667 7c0-2.217 1.517-3.967 3.5-4.55v8.983A4.52 4.52 0 019.333 20zm5.834 4.55v-8.983c1.983.467 3.5 2.333 3.5 4.55 0 2.1-1.517 3.85-3.5 4.433z" fill="#fff"></path></svg>