<svg viewBox="0 0 40 40" xmlns="http://www.w3.org/2000/svg"><path d="M10.099 34.5l-3.48-1.427c-.264-.074-4.905-1.391-5.111-8.573h36.985c-.207 7.169-4.847 8.498-5.049 8.552L28.92 34.54l-18.821-.04z" fill="#f5ce85"></path><path d="M37.97 25c-.393 6.314-4.475 7.519-4.65 7.568l-.031.008-.03.01-4.418 1.453-18.642-.038-3.39-1.39-.064-.025-.059-.016c-.183-.051-4.263-1.245-4.656-7.57h35.94M39 24H1c0 8.139 5.429 9.536 5.429 9.536L10 35.001l19 .039 4.572-1.504C33.571 33.536 39 32.123 39 24z" fill="#967a44"></path><path fill="#f5ce85" d="M29 24l-5.939.036L20 27h6z"></path><circle cx="23" cy="6" r="3.5" fill="#ffeea3"></circle><path d="M23 3c1.654 0 3 1.346 3 3s-1.346 3-3 3-3-1.346-3-3 1.346-3 3-3m0-1a4 4 0 100 8 4 4 0 000-8z" fill="#ba9b48"></path><path fill="#f5ce85" stroke="#967a44" stroke-miterlimit="10" d="M32 18L16 34"></path><path d="M8.962 24.5l4.334-10.393a4.043 4.043 0 013.768-2.543c.539 0 1.066.106 1.568.315l13.466 3.791c1.002.317 1.578 1.411 1.267 2.432a1.946 1.946 0 01-1.872 1.388c-.2 0-.399-.031-.592-.092l-9.712-2.734-3.12 7.836H8.962z" fill="#bae0bd"></path><path d="M17.064 12.065c.472 0 .935.093 1.376.277l.056.023.058.016 13.378 3.761a1.463 1.463 0 01.955 1.814 1.467 1.467 0 01-1.394 1.034 1.53 1.53 0 01-.472-.078l-9.264-2.608-.867-.244-.333.837L17.73 24H9.713l4.049-9.711a3.543 3.543 0 013.302-2.224m0-1c-1.8 0-3.51 1.068-4.229 2.851L8.213 25h10.196l3.078-7.733 9.264 2.608a2.46 2.46 0 001.483-4.687l-13.409-3.77a4.568 4.568 0 00-1.761-.353z" fill="#5e9c76"></path><path d="M1 39h38v-6.123c-1.308-.263-2.852-.877-4-.877-1.458 0-3.562 1-5 1s-3.542-1-5-1-3.562 1-5 1-3.542-1-5-1-3.562 1-5 1-3.542-1-5-1c-1.148 0-2.692.614-4 .877V39z" fill="#8bb7f0"></path><g><path d="M35 32c-1.458 0-3.562 1-5 1s-3.542-1-5-1-3.562 1-5 1-3.542-1-5-1-3.562 1-5 1-3.542-1-5-1c-1.148 0-2.692.614-4 .877V33.9c.574-.103 1.17-.271 1.754-.435C3.566 33.237 4.406 33 5 33s1.434.237 2.246.465c.934.263 1.9.535 2.754.535s1.82-.272 2.754-.535C13.566 33.237 14.406 33 15 33s1.434.237 2.246.465c.934.263 1.9.535 2.754.535s1.82-.272 2.754-.535C23.566 33.237 24.406 33 25 33s1.434.237 2.246.465c.934.263 1.9.535 2.754.535s1.82-.272 2.754-.535C33.566 33.237 34.406 33 35 33s1.434.237 2.246.465c.584.165 1.18.332 1.754.435v-1.023c-1.308-.263-2.852-.877-4-.877z" fill="#4e7ab5"></path></g></svg>