<svg viewBox="0 0 40 40" xmlns="http://www.w3.org/2000/svg"><path d="M4.303 38.5a2.785 2.785 0 01-1.981-.821c-.551-.55-.842-1.282-.82-2.061s.354-1.493.933-2.012L22.978 14.64l-.233-.355c-1.979-3.001-1.585-6.138 1.108-8.831C26.218 3.089 29.882 1.5 32.971 1.5c1.726 0 3.138.5 4.083 1.446 1.345 1.344 1.773 3.568 1.208 6.262-.537 2.555-1.926 5.149-3.716 6.939-1.559 1.559-3.245 2.349-5.013 2.349-1.285 0-2.57-.417-3.818-1.24l-.354-.234L6.398 37.56a2.814 2.814 0 01-2.095.94z" fill="#dcd5f2"></path><path d="M32.971 2c1.109 0 2.656.225 3.73 1.299 2.689 2.689.869 9.118-2.508 12.494-1.462 1.462-3.029 2.203-4.66 2.203-1.185 0-2.377-.389-3.543-1.158l-.709-.467-.576.624L6.021 37.232A2.309 2.309 0 014.303 38c-.615 0-1.193-.24-1.628-.675a2.283 2.283 0 01-.674-1.693c.018-.639.29-1.227.778-1.664l20.225-18.673.624-.576-.467-.709c-1.833-2.782-1.462-5.695 1.045-8.203C26.484 3.53 30.006 2 32.971 2m0-1c-3.225 0-7.022 1.651-9.472 4.1-3.129 3.129-3.072 6.578-1.173 9.46L2.101 33.234a3.303 3.303 0 104.665 4.665l18.673-20.225c1.279.843 2.669 1.323 4.093 1.323 1.786 0 3.626-.755 5.367-2.496 3.778-3.778 5.656-10.76 2.508-13.909C36.301 1.486 34.72 1 32.971 1z" fill="#8b75a1"></path><path d="M35.697 38.5a2.807 2.807 0 01-2.09-.935L21.769 24.743l-2.416 1.292a3.635 3.635 0 01-1.71.429 3.6 3.6 0 01-2.564-1.062L4.235 14.559A9.279 9.279 0 011.5 7.957c0-2.327.846-4.524 2.391-6.24l10.407 10.407 23.263 21.478c.585.524.917 1.239.938 2.017s-.27 1.51-.82 2.061c-.53.528-1.234.82-1.982.82z" fill="#dcd5f2"></path><path d="M3.921 2.454l10.051 10.05 23.26 21.475c.477.427.749 1.014.767 1.653a2.283 2.283 0 01-.674 1.693 2.288 2.288 0 01-1.628.675c-.655 0-1.281-.28-1.728-.779L22.397 24.688l-.525-.568-.682.365-2.075 1.11a3.13 3.13 0 01-1.473.37 3.102 3.102 0 01-2.211-.916L4.589 14.206c-3.207-3.207-3.43-8.286-.668-11.752M3.881 1c-3.842 3.842-3.842 10.071 0 13.913l10.843 10.843a4.123 4.123 0 004.864.72l2.075-1.11 11.571 12.533A3.293 3.293 0 0035.697 39a3.304 3.304 0 002.203-5.766L14.651 11.77 3.881 1z" fill="#8b75a1"></path><path fill="none" stroke="#8b75a1" stroke-miterlimit="10" d="M32.212 28.788l-1.987 1.987M34.212 30.788l-1.987 1.987M10.242 33.242L8 31M8.242 35.242L6 33"></path></svg>