<svg viewBox="0 0 40 40" xmlns="http://www.w3.org/2000/svg"><path d="M31.493 26.11l.002.027c.032.489-.092 1.107-.34 1.697-.293.696-.668 1.172-.996 1.445l1.334-3.169z" fill="#b6c9d6"></path><path d="M31.418 25l-1.58 3.752-.527 1.251a.727.727 0 00.282.055c.667 0 1.516-.826 2.023-2.03.581-1.381.493-2.737-.198-3.028z" fill="#788b9c"></path><path d="M28.493 26.11l.002.027c.032.489-.092 1.107-.34 1.697-.293.696-.668 1.172-.996 1.445l1.334-3.169z" fill="#b6c9d6"></path><path d="M28.418 25l-1.58 3.752-.527 1.251a.727.727 0 00.282.055c.667 0 1.516-.826 2.023-2.03.581-1.381.493-2.737-.198-3.028z" fill="#788b9c"></path><path d="M22.495 24.106c.033.435-.054 1.049-.34 1.728-.293.697-.668 1.173-.996 1.446l1.336-3.174z" fill="#b6c9d6"></path><path d="M22.418 23l-1.58 3.752-.527 1.251a.727.727 0 00.282.055c.667 0 1.516-.826 2.023-2.03.581-1.381.493-2.737-.198-3.028z" fill="#788b9c"></path><path d="M25.495 25.047c.033.435-.054 1.049-.34 1.729-.293.696-.668 1.172-.996 1.445l1.336-3.174z" fill="#b6c9d6"></path><path d="M25.418 23.941l-1.58 3.752-.527 1.251a.713.713 0 00.282.056c.667 0 1.516-.826 2.023-2.03.581-1.382.493-2.738-.198-3.029z" fill="#788b9c"></path><path d="M19.493 22.11l.002.028c.032.489-.092 1.107-.341 1.697-.293.696-.668 1.173-.996 1.445l1.335-3.17z" fill="#b6c9d6"></path><path d="M19.418 21l-1.58 3.752-.527 1.251a.727.727 0 00.282.055c.667 0 1.516-.826 2.023-2.03.581-1.381.493-2.737-.198-3.028zM33.633 16c-.566 0-.633.073-.633 1.005v2.997c.552 0 1-.893 1-1.997v-2.003L33.633 16zM26.633 16.998c-.566 0-.633.073-.633 1.005V21c.552 0 1-.893 1-1.997V17l-.367-.002zM23.633 16c-.566 0-.633.073-.633 1.005v2.997c.552 0 1-.893 1-1.997v-2.003L23.633 16zM20.633 15c-.566 0-.633.073-.633 1.005v2.997c.552 0 1-.893 1-1.997v-2.003L20.633 15zM17.633 15c-.566 0-.633.073-.633 1.005v2.997c.552 0 1-.893 1-1.997v-2.003L17.633 15z" fill="#788b9c"></path><path d="M29.5 14.734c.536.496 1 1.732 1 3.267s-.464 2.773-1 3.268v-6.535z" fill="#b6c9d6"></path><path d="M29 14V22.002c1.105 0 2-1.793 2-4.002 0-2.209-.895-4-2-4z" fill="#788b9c"></path><g><path d="M4.273 38.5C2.359 35.367 1.5 28.018 1.5 22c0-8.836 1.831-13.993 3.64-14.52a.499.499 0 00.348-.37l.037-.163C6.252 3.689 8.453 1.5 11 1.5c2.154 0 3.989.986 5.763 1.94C18.36 4.299 18.942 4.5 21 4.5h9c4.687 0 8.5 3.364 8.5 7.5v1c0 2.543-4.821 5.5-11.036 5.5-3.133 0-5.687-.761-7.278-1.4-.777-.312-1.606-.6-2.409-.6-.689 0-1.257.218-1.688.649-1.33 1.33-2.92 2.057-5.156 2.355-.039.002-.229.002-.467.002L9.007 19.5a.504.504 0 00-.499.432.496.496 0 00.357.549c.427.119 1.095.29 1.371.361l.111.028c1.354.307 2.963.419 4.52.527.465.032.925.064 1.373.101 1.606.131 2.021.617 2.295.938l.093.107c2.579 2.875 8.343 5.165 14.784 5.897a.019.019 0 01-.002.007c-.591 1.826-2.752 3.053-5.378 3.053-1.553 0-3.072-.511-4.542-1.004-1.456-.49-2.962-.996-4.49-.996a.498.498 0 00-.448.721c1.137 2.308 4.233 6.318 6.159 8.279H4.273z" fill="#bae0bd"></path><path d="M11 2c2.029 0 3.807.956 5.526 1.881C18.187 4.773 18.843 5 21 5h9c3.847 0 8 2.676 8 7v1c0 2.265-4.7 5-10.536 5-3.054 0-5.542-.742-7.092-1.364-.823-.33-1.707-.636-2.595-.636-.827 0-1.514.268-2.042.796-1.239 1.239-2.729 1.921-4.832 2.208-.079.002-.242.003-.439.003-.402 0-.932-.003-1.23-.005l-.267-.001a1.001 1.001 0 00-.238 1.962 75.1 75.1 0 001.38.363l.141.036c1.376.312 3.004.425 4.579.534.463.032.922.064 1.369.101 1.401.115 1.722.49 1.956.764l.1.115c2.565 2.859 8.141 5.152 14.425 5.978C31.921 30.142 30.113 31 28.032 31c-1.471 0-2.885-.475-4.383-.978C22.155 29.519 20.61 29 19 29a.998.998 0 00-.897 1.442c1.006 2.042 3.527 5.4 5.462 7.558H4.562C3.041 35.226 2 28.81 2 22 2 12.975 3.918 8.357 5.28 7.96a1 1 0 00.696-.741l.037-.163C6.688 4.032 8.693 2 11 2m0-1C8.105 1 5.783 3.496 5.036 6.837L5 7c-2.424.706-4 6.851-4 15 0 6.691 1.017 14.049 3 17h22c-1.458-1.083-5.625-6.208-7-9 2.953 0 5.828 2 9.032 2 2.692 0 5.165-1.273 5.854-3.399.064-.198.079-.4.114-.601-6.84-.681-12.56-3.072-15-5.791-.321-.357-.74-1.046-2.719-1.209-1.936-.159-4.113-.229-5.808-.613-.105-.028-.963-.244-1.473-.387h.007c.086 0 .896.007 1.458.007.28 0 .499-.002.535-.007 2.622-.351 4.226-1.28 5.443-2.497.368-.368.835-.503 1.334-.503.74 0 1.552.295 2.223.564A20.317 20.317 0 0027.464 19C33.835 19 39 15.998 39 13v-1c0-4.7-4.3-8-9-8h-9c-2 0-2.506-.197-4-1-1.929-1.037-3.781-2-6-2z" fill="#5e9c76"></path></g><path d="M11.984 5c-1.016 0-1.978 1-1.978 2.957 0 1 .275 1.606.994 2.043V9c0-1.55 1.225-2.597 2-2.597 0 1.542-.031 3.582.977 4.09C15.548 10.218 17 9.382 17 9.078 15.436 7.515 13.921 5 11.984 5zM33.272 8.702c.71.639.941 1.541.514 2.015s-1.347.339-2.058-.3C31.018 9.778 31 9.112 31 8c.829 0 1.561.063 2.272.702z" fill="#36404d"></path><path d="M19 29.5c-1.021 0-3.354 1-5 1-5.688 0-7.5-3.583-7.5-8M11 1.5c4.219 0 6.947 3.486 10.5 5" fill="none" stroke="#5e9c76" stroke-linecap="round" stroke-linejoin="round" stroke-miterlimit="10"></path><path d="M4.374 37.643L5.106 39h19.39s-.918-1.02-1.248-1.357c-1.246-1.271-19.406-.984-18.874 0z" fill="#bae0bd"></path></svg>