<svg viewBox="0 0 40 40" xmlns="http://www.w3.org/2000/svg"><path fill="#ffeea3" d="M5.5 1.5h29v37h-29z"></path><path d="M34 2v36H6V2h28m1-1H5v38h30V1z" fill="#ba9b48"></path><path fill="#c2e8ff" d="M19.71 29L23 25.71l4.79 4.79H24.5v3.29L19.71 29z"></path><path d="M23 26.41L26.59 30H24v2.59L20.41 29 23 26.41M23 25l-4 4 6 6v-4h4l-6-6z" fill="#7496c4"></path><path fill="#c2e8ff" d="M15.5 30.5h-3.29L17 25.71 20.29 29l-4.79 4.79V30.5z"></path><path d="M17 26.41L19.59 29 16 32.59V30h-2.59L17 26.41M17 25l-6 6h4v4l6-6-4-4z" fill="#7496c4"></path><circle cx="20" cy="26" r="3.5" fill="#f78f8f"></circle><path d="M20 23a3 3 0 11-3 3 3 3 0 013-3m0-1a4 4 0 104 4 4 4 0 00-4-4z" fill="#c74343"></path><path d="M35 34a5 5 0 00-5 5h5zM5 6a5 5 0 005-5H5zM5 34a5 5 0 015 5H5zM35 6a5 5 0 01-5-5h5zM12 9h16v2H12zM12 14h16v1H12zM12 16h16v1H12z" fill="#ba9b48"></path></svg>