<svg viewBox="0 0 40 40" xmlns="http://www.w3.org/2000/svg"><path fill="#ece8f7" d="M1.5 5.5h37v29h-37z"></path><path d="M38 6v28H2V6h36m1-1H1v30h38V5z" fill="#8b75a1"></path><path fill="#8b75a1" d="M9 10h22v2H9zM9 14h22v1H9z"></path><path fill="#8bb7f0" d="M19.71 26L23 22.71l4.79 4.79H24.5v3.29L19.71 26z"></path><path d="M23 23.41L26.59 27H24v2.59L20.41 26 23 23.41M23 22l-4 4 6 6v-4h4l-6-6z" fill="#4e7ab5"></path><path fill="#8bb7f0" d="M15.5 27.5h-3.29L17 22.71 20.29 26l-4.79 4.79V27.5z"></path><path d="M17 23.41L19.59 26 16 29.59V27h-2.59L17 23.41M17 22l-6 6h4v4l6-6-4-4z" fill="#4e7ab5"></path><circle cx="20" cy="23" r="3.5" fill="#f78f8f"></circle><path d="M20 20a3 3 0 11-3 3 3 3 0 013-3m0-1a4 4 0 104 4 4 4 0 00-4-4z" fill="#c74343"></path><path d="M34 5a5 5 0 005 5V5zM6 35a5 5 0 00-5-5v5zM34 35a5 5 0 015-5v5zM6 5a5 5 0 01-5 5V5z" fill="#8b75a1"></path></svg>