<svg viewBox="0 0 40 40" xmlns="http://www.w3.org/2000/svg"><path fill="#c2e8ff" d="M17.71 23.25l7.54-7.54 12.73 12.73-6.28 1.26-1.26 6.29-12.73-12.74z"></path><path d="M25.25 16.41L37 28.14l-5 1-.65.13-.13.65-1 5-11.81-11.67 6.84-6.84m0-1.41L17 23.25 30.75 37l1.38-6.87L39 28.75 25.25 15z" fill="#7496c4"></path><path fill="#c2e8ff" d="M8.3 29.7l-6.28-1.26 12.73-12.73 7.54 7.54L9.56 35.99 8.3 29.7z"></path><path d="M14.75 16.41l6.84 6.84L9.86 35l-1-5-.13-.65-.65-.13-5-1 11.67-11.81m0-1.41L1 28.75l6.88 1.38L9.25 37 23 23.25 14.75 15z" fill="#7496c4"></path><path d="M20 30.5a5 5 0 01-4.14-2.22.88.88 0 00-.74-.4h-.18a5 5 0 01-1 .1 5 5 0 01-4.85-6 .88.88 0 00-.38-.91 5 5 0 010-8.28.88.88 0 00.39-.79 5 5 0 014.85-6 5.06 5.06 0 011 .1h.18a.88.88 0 00.74-.4 5 5 0 018.28 0 .88.88 0 00.74.4h.18a5 5 0 011-.1 5 5 0 014.85 6 .88.88 0 00.38.91 5 5 0 010 8.28.88.88 0 00-.38.91 5 5 0 01-4.85 6 5.07 5.07 0 01-1-.1h-.18a.88.88 0 00-.74.4A5 5 0 0120 30.5z" fill="#ffc49c"></path><path d="M20 4a4.4 4.4 0 013.72 2 1.38 1.38 0 001.15.62h.27a4.58 4.58 0 01.9-.09 4.47 4.47 0 014.36 5.35 1.38 1.38 0 00.6 1.4 4.47 4.47 0 010 7.44 1.38 1.38 0 00-.59 1.43 4.47 4.47 0 01-4.36 5.35 4.59 4.59 0 01-.9-.09h-.27a1.38 1.38 0 00-1.15.62 4.47 4.47 0 01-7.44 0 1.38 1.38 0 00-1.15-.62h-.27a4.58 4.58 0 01-.9.09 4.47 4.47 0 01-4.36-5.35A1.38 1.38 0 009 20.72a4.47 4.47 0 010-7.44 1.38 1.38 0 00.59-1.43 4.47 4.47 0 014.36-5.35 4.58 4.58 0 01.9.09h.27A1.38 1.38 0 0016.28 6 4.4 4.4 0 0120 4m0-1a5.43 5.43 0 00-4.55 2.44.39.39 0 01-.32.17H15a5.56 5.56 0 00-1.1-.11A5.47 5.47 0 008.61 12a.39.39 0 01-.16.4 5.47 5.47 0 000 9.11.39.39 0 01.16.4 5.47 5.47 0 005.34 6.55 5.57 5.57 0 001.1-.11h.08a.39.39 0 01.32.17 5.47 5.47 0 009.11 0 .39.39 0 01.32-.17H25a5.56 5.56 0 001.1.11A5.47 5.47 0 0031.39 22a.39.39 0 01.16-.4 5.47 5.47 0 000-9.11.39.39 0 01-.16-.4 5.47 5.47 0 00-5.34-6.59 5.57 5.57 0 00-1.1.11h-.08a.39.39 0 01-.32-.17A5.43 5.43 0 0020 3z" fill="#a16a4a"></path><path d="M20 26.5a9.5 9.5 0 119.5-9.5 9.51 9.51 0 01-9.5 9.5z" fill="#ffc49c"></path><path d="M20 8a9 9 0 11-9 9 9 9 0 019-9m0-1a10 10 0 1010 10A10 10 0 0020 7z" fill="#a16a4a"></path></svg>