<svg viewBox="0 0 40 40" xmlns="http://www.w3.org/2000/svg"><path fill="#ffeea3" d="M15.293 16.873l6.36-6.36 1.834 1.835-6.36 6.36z"></path><path d="M21.652 11.221l1.127 1.127L17.127 18 16 16.873l5.652-5.652m0-1.414l-.707.707-5.652 5.652-.707.707.707.707 1.127 1.127.707.707.707-.707 5.652-5.652.707-.707-.707-.707-1.127-1.127-.707-.707z" fill="#ba9b48"></path><path fill="#ffeea3" d="M21.293 22.873l6.36-6.36 1.834 1.835-6.36 6.36z"></path><path d="M27.652 17.221l1.127 1.127L23.127 24 22 22.873l5.652-5.652m0-1.414l-.707.707-5.652 5.652-.707.707.707.707 1.127 1.127.707.707.707-.707 5.652-5.652.707-.707-.707-.707-1.127-1.127-.707-.707z" fill="#ba9b48"></path><path d="M20.438 7.862L25.26 3.04a4.736 4.736 0 013.368-1.395c1.272 0 2.468.496 3.368 1.395l1.334 1.335L36 1.707 38.293 4l-2.668 2.668 1.335 1.334a4.77 4.77 0 010 6.737l-4.822 4.822-11.7-11.699z" fill="#b0c1d4"></path><path d="M28.629 2.145c1.139 0 2.209.443 3.015 1.249l.981.981.707.707.707-.707L36 2.414 37.586 4l-1.961 1.961-.707.707.707.707.981.981a4.237 4.237 0 011.249 3.015 4.234 4.234 0 01-1.249 3.015l-4.468 4.468L21.146 7.862l4.468-4.468a4.237 4.237 0 013.015-1.249M36 1l-2.668 2.668-.982-.981c-1.028-1.028-2.375-1.542-3.722-1.542s-2.694.514-3.722 1.542l-5.175 5.175 12.406 12.406 5.175-5.175a5.263 5.263 0 000-7.444l-.981-.981L39 4l-3-3z" fill="#66798f"></path><g><path d="M16.34 9.846l2.066-2.067c.644-.644 1.468-1.013 2.261-1.013.562 0 1.044.187 1.397.539l10.63 10.63c.877.878.665 2.519-.475 3.658l-2.067 2.066L16.34 9.846z" fill="#b0c1d4"></path><path d="M20.668 7.266c.297 0 .72.068 1.044.392l10.63 10.63c.671.671.454 2.023-.475 2.951l-1.713 1.713L17.047 9.846l1.713-1.713c.543-.543 1.256-.867 1.908-.867m0-1c-.887 0-1.852.397-2.615 1.16l-2.42 2.42 14.521 14.521 2.42-2.42c1.337-1.337 1.549-3.291.475-4.365l-10.63-10.63c-.461-.462-1.085-.686-1.751-.686z" fill="#66798f"></path></g><g><path d="M11.178 38.548a4.736 4.736 0 01-3.368-1.395l-1.334-1.335L4 38.293 1.707 36l2.475-2.475-1.335-1.335a4.77 4.77 0 010-6.737l4.822-4.822L19.368 32.33l-4.822 4.822c-.9.9-2.096 1.396-3.368 1.396z" fill="#b0c1d4"></path><path d="M7.669 21.339l10.992 10.992-4.468 4.468c-.805.805-1.876 1.249-3.015 1.249s-2.209-.443-3.015-1.249l-.981-.981-.707-.707-.707.707L4 37.586 2.414 36l1.768-1.768.707-.707-.707-.707-.981-.981a4.27 4.27 0 010-6.03l4.468-4.468m0-1.414L2.494 25.1a5.263 5.263 0 000 7.444l.981.981L1 36l3 3 2.475-2.475.981.981c1.028 1.028 2.375 1.542 3.722 1.542s2.694-.514 3.722-1.542l5.175-5.175L7.669 19.925z" fill="#66798f"></path></g><g><path d="M19.278 33.51a2.153 2.153 0 01-1.536-.622l-10.63-10.63c-.877-.878-.818-2.365.133-3.316l1.725-1.725L22.784 31.03l-1.725 1.725c-.48.48-1.129.755-1.781.755z" fill="#b0c1d4"></path><path d="M8.969 17.924l13.107 13.107-1.371 1.371a2.041 2.041 0 01-1.427.608c-.456 0-.876-.169-1.183-.476l-10.63-10.63c-.683-.683-.623-1.853.133-2.609l1.371-1.371m0-1.414l-2.078 2.078c-1.148 1.148-1.207 2.949-.133 4.024l10.63 10.63a2.649 2.649 0 001.89.768 3.03 3.03 0 002.134-.901l2.078-2.078L8.969 16.51z" fill="#66798f"></path></g></svg>