<svg viewBox="0 0 40 40" xmlns="http://www.w3.org/2000/svg"><path d="M20 38.372a.69.69 0 01-.442-.158l-3.419-2.799-4.334.888a.697.697 0 01-.784-.414l-1.726-4.066-4.247-1.224a.704.704 0 01-.502-.729l.359-4.405-3.19-3.059a.697.697 0 01-.107-.877l2.367-3.733-1.405-4.193a.703.703 0 01.314-.826l3.831-2.209.705-4.363a.699.699 0 01.66-.587l4.417-.174 2.65-3.537a.71.71 0 01.859-.212l3.993 1.9 3.992-1.899a.705.705 0 01.859.211l2.652 3.537 4.417.174c.33.013.609.261.663.588l.705 4.361 3.83 2.208a.703.703 0 01.315.828l-1.405 4.19 2.367 3.733a.702.702 0 01-.108.878l-3.191 3.06.36 4.406a.703.703 0 01-.503.729l-4.245 1.224-1.728 4.068a.695.695 0 01-.778.412l-4.338-.889-3.419 2.799a.696.696 0 01-.444.159z" fill="#f78f8f"></path><path d="M24.29 2.128c.063 0 .123.03.16.079l2.509 3.347.285.381.475.019 4.178.165a.203.203 0 01.19.166l.667 4.128.076.469.412.238 3.625 2.09a.2.2 0 01.09.234l-1.329 3.966-.151.451.255.402 2.238 3.531a.2.2 0 01-.031.251l-3.019 2.894-.343.329.039.474.34 4.169a.197.197 0 01-.142.207l-4.018 1.158-.457.132-.186.438-1.634 3.848c-.034.08-.106.119-.203.119l-.02-.001-4.1-.84-.466-.095-.368.301-3.235 2.648c-.037.03-.079.045-.126.045s-.09-.015-.126-.045l-3.235-2.648-.368-.301-.466.095-4.146.846a.2.2 0 01-.177-.123l-1.634-3.849-.186-.438-.457-.132-4.015-1.158a.2.2 0 01-.144-.208l.34-4.169.039-.474-.346-.328-3.02-2.896a.197.197 0 01-.03-.247l2.24-3.533.255-.402-.151-.451-1.33-3.965a.199.199 0 01.09-.235l3.624-2.09.412-.238.076-.469.667-4.128a.2.2 0 01.187-.167l4.179-.165.475-.019.285-.381 2.506-3.344a.204.204 0 01.247-.062l3.777 1.797.43.204.43-.204 3.781-1.799a.198.198 0 01.08-.017m-.001-1a1.18 1.18 0 00-.513.117l-3.777 1.797-3.777-1.797a1.206 1.206 0 00-1.474.363L12.24 4.954l-4.18.165a1.197 1.197 0 00-1.134 1.007l-.667 4.128-3.624 2.09c-.493.284-.72.877-.539 1.418l1.33 3.966-2.24 3.533a1.197 1.197 0 00.184 1.506l3.019 2.894-.34 4.169a1.2 1.2 0 00.861 1.249l4.018 1.158 1.634 3.849a1.203 1.203 0 001.344.707l4.101-.84 3.235 2.648a1.193 1.193 0 001.518 0l3.236-2.648 4.1.84a1.2 1.2 0 001.344-.706l1.634-3.849 4.018-1.158c.548-.159.908-.68.861-1.249l-.34-4.169 3.019-2.894a1.2 1.2 0 00.184-1.507l-2.239-3.533 1.329-3.966a1.201 1.201 0 00-.539-1.418l-3.624-2.09-.667-4.128a1.202 1.202 0 00-1.137-1.006l-4.179-.165-2.51-3.348a1.204 1.204 0 00-.961-.479z" fill="#c74343"></path><g><path d="M14.752 20.03c-1.235 0-2.219-.396-2.95-1.189-.731-.792-1.097-1.851-1.097-3.175 0-1.447.388-2.586 1.164-3.419.776-.833 1.822-1.249 3.139-1.249 1.276 0 2.265.386 2.968 1.158s1.054 1.857 1.054 3.255-.394 2.517-1.182 3.358c-.788.841-1.82 1.261-3.096 1.261zm.171-7.326c-.666 0-1.193.256-1.579.768s-.579 1.215-.579 2.109c0 .878.189 1.56.567 2.048s.896.731 1.554.731 1.174-.254 1.548-.762c.374-.508.561-1.213.561-2.115 0-.878-.185-1.56-.555-2.048s-.875-.731-1.517-.731zm11.666-1.45L15.374 28.856h-1.743l11.203-17.602h1.755zm-1.573 17.748c-1.235 0-2.219-.396-2.95-1.189-.731-.792-1.097-1.851-1.097-3.175 0-1.447.388-2.586 1.164-3.419.776-.833 1.822-1.249 3.139-1.249 1.276 0 2.265.386 2.968 1.158.703.772 1.054 1.857 1.054 3.255s-.394 2.517-1.182 3.358c-.788.841-1.82 1.261-3.096 1.261zm.171-7.326c-.666 0-1.193.256-1.579.768-.386.512-.579 1.215-.579 2.109 0 .878.189 1.56.567 2.048s.896.731 1.554.731 1.174-.254 1.548-.762c.374-.508.561-1.213.561-2.115 0-.878-.185-1.56-.555-2.048s-.875-.731-1.517-.731z" fill="#fff"></path></g></svg>