<svg viewBox="0 0 40 40" xmlns="http://www.w3.org/2000/svg"><path d="M18.884 38.5c-2.764 0-4.602-1.968-4.679-2.052l-9.826-9.827a2.974 2.974 0 01-.878-2.2 2.975 2.975 0 01.996-2.154 2.827 2.827 0 011.928-.723c.866 0 1.718.355 2.337.974l3.738 3.739v-9.829h20V31c0 4.136-3.364 7.5-7.5 7.5h-6.116z" fill="#ffeea3"></path><path d="M32 16.929V31c0 3.86-3.14 7-7 7h-6.117c-2.532 0-4.241-1.816-4.34-1.921l-9.811-9.811a2.474 2.474 0 01-.731-1.834 2.48 2.48 0 01.83-1.795 2.35 2.35 0 011.594-.594c.734 0 1.457.302 1.983.828l2.885 2.885L13 27.464V16.928h19m1-.999H12v9.122l-2.885-2.885a3.83 3.83 0 00-2.69-1.121c-.815 0-1.622.273-2.263.851a3.5 3.5 0 00-.137 5.079l9.811 9.811c.121.131 2.079 2.214 5.047 2.214H25a8 8 0 008-8V15.929z" fill="#ba9b48"></path><path d="M12.5 19.5V7c0-1.378 1.121-2.5 2.5-2.5s2.5 1.122 2.5 2.5v12.5h-5z" fill="#ffeea3"></path><path d="M15 5c1.103 0 2 .897 2 2v12h-4V7c0-1.103.897-2 2-2m0-1a3 3 0 00-3 3v13h6V7a3 3 0 00-3-3z" fill="#ba9b48"></path><path d="M17.5 19.5V4c0-1.378 1.121-2.5 2.5-2.5s2.5 1.122 2.5 2.5v15.5h-5z" fill="#ffeea3"></path><path d="M20 2c1.103 0 2 .897 2 2v15h-4V4c0-1.103.897-2 2-2m0-1a3 3 0 00-3 3v16h6V4a3 3 0 00-3-3z" fill="#ba9b48"></path><path d="M22.5 19.5V6c0-1.378 1.121-2.5 2.5-2.5s2.5 1.122 2.5 2.5v13.5h-5z" fill="#ffeea3"></path><path d="M25 4c1.103 0 2 .897 2 2v13h-4V6c0-1.103.897-2 2-2m0-1a3 3 0 00-3 3v14h6V6a3 3 0 00-3-3z" fill="#ba9b48"></path><g><path d="M27.5 19.5V10c0-1.378 1.121-2.5 2.5-2.5s2.5 1.122 2.5 2.5v9.5h-5z" fill="#ffeea3"></path><path d="M30 8c1.103 0 2 .897 2 2v9h-4v-9c0-1.103.897-2 2-2m0-1a3 3 0 00-3 3v10h6V10a3 3 0 00-3-3z" fill="#ba9b48"></path></g><path fill="#ffeea3" d="M13 18h19v6H13z"></path><path fill="none" stroke="#c74343" stroke-width="3" stroke-miterlimit="10" d="M17 22l10 10M27 22L17 32"></path></svg>