<svg viewBox="0 0 40 40" xmlns="http://www.w3.org/2000/svg"><path d="M2.5 37.5v-35h35v35h-35zM5.304 20l7.217 12.5h14.434L34.171 20 26.954 7.5H12.521L5.304 20z" fill="#bae0bd"></path><path d="M37 3v34H3V3h34M12.232 33h15.01l.289-.5 6.928-12 .289-.5-.289-.5-6.928-12-.288-.5H12.232l-.289.5-6.928 12-.289.5.289.5 6.928 12 .289.5M38 2H2v36h36V2zM12.809 32L5.881 20l6.928-12h13.856l6.928 12-6.928 12H12.809z" fill="#5e9c76"></path><g><path fill="#8bb7f0" d="M14.189 28.5l-3.59-11.052L20 10.618l9.401 6.83-3.59 11.052z"></path><path d="M20 11.236l8.813 6.403L25.447 28H14.553l-3.366-10.361L20 11.236M20 10l-9.989 7.257L13.827 29h12.347l3.815-11.743L20 10z" fill="#4e7ab5"></path></g></svg>