<svg viewBox="0 0 40 40" xmlns="http://www.w3.org/2000/svg"><path fill="#2d3540" d="M4 37h4v2H4zM32 37h4v2h-4z"></path><path d="M3 37.5a.5.5 0 01-.5-.5V5c0-1.378 1.121-2.5 2.5-2.5h30c1.379 0 2.5 1.122 2.5 2.5v32a.5.5 0 01-.5.5H3z" fill="#b0c1d4"></path><path d="M35 3c1.103 0 2 .897 2 2v32H3V5c0-1.103.897-2 2-2h30m0-1H5a3 3 0 00-3 3v32a1 1 0 001 1h34a1 1 0 001-1V5a3 3 0 00-3-3z" fill="#66798f"></path><path fill="#b0c1d4" stroke="#66798f" stroke-miterlimit="10" d="M2 11.5h36"></path><circle cx="7" cy="7" r="1.5" fill="#dbf2ff"></circle><path d="M7 6c.551 0 1 .449 1 1s-.449 1-1 1-1-.449-1-1 .449-1 1-1m0-1a2 2 0 10-.001 3.999A2 2 0 007 5z" fill="#66798f"></path><circle cx="33" cy="7" r="1.5" fill="#f78f8f"></circle><path d="M33 6c.551 0 1 .449 1 1s-.449 1-1 1-1-.449-1-1 .449-1 1-1m0-1a2 2 0 10-.001 3.999A2 2 0 0033 5z" fill="#c74343"></path><circle cx="28" cy="7" r="1.5" fill="#f78f8f"></circle><path d="M28 6c.551 0 1 .449 1 1s-.449 1-1 1-1-.449-1-1 .449-1 1-1m0-1a2 2 0 10-.001 3.999A2 2 0 0028 5z" fill="#c74343"></path><path fill="#66798f" d="M6 15h28v18H6z"></path><path fill="#dbf2ff" d="M9 30h7v1H9zM20 31V17a3 3 0 013 3v8a3 3 0 01-3 3zM24 31V17a3 3 0 013 3v8a3 3 0 01-3 3zM28 31V20a3 3 0 013 3v5a3 3 0 01-3 3zM12.5 28A3.5 3.5 0 019 24.5V19h7v5.5a3.5 3.5 0 01-3.5 3.5z"></path><path fill="none" stroke="#dbf2ff" stroke-miterlimit="10" d="M12.5 30.308v-6.923"></path></svg>