<svg viewBox="0 0 40 40" xmlns="http://www.w3.org/2000/svg"><path d="M3.721 34.5A2.223 2.223 0 011.5 32.279V7.721c0-1.225.996-2.221 2.221-2.221H36.28c1.225 0 2.221.996 2.221 2.221V32.28a2.223 2.223 0 01-2.221 2.221H3.721z" fill="#8bb7f0"></path><path d="M36.279 6C37.228 6 38 6.772 38 7.721v24.558c0 .949-.772 1.721-1.721 1.721H3.721A1.723 1.723 0 012 32.279V7.721C2 6.772 2.772 6 3.721 6h32.558m0-1H3.721A2.72 2.72 0 001 7.721v24.558A2.72 2.72 0 003.721 35h32.558A2.72 2.72 0 0039 32.279V7.721A2.72 2.72 0 0036.279 5z" fill="#7496c4"></path><path d="M31.5 10.5L30 12h-4l-1.5-1.5L26 9h4l1.5 1.5zM25 27V13l-1.5-1.5L22 13v14l1.5 1.5L25 27zm5 1h-4l-1.5 1.5L26 31h4l1.5-1.5L30 28zm2.5-16.5L31 13v14l1.5 1.5L34 27V13l-1.5-1.5zM15.5 10.5L14 12h-4l-1.5-1.5L10 9h4l1.5 1.5zM9 27V13l-1.5-1.5L6 13v14l1.5 1.5L9 27zm5 1h-4l-1.5 1.5L10 31h4l1.5-1.5L14 28zm2.5-16.5L15 13v14l1.5 1.5L18 27V13l-1.5-1.5z" fill="#fff"></path></svg>