<svg viewBox="0 0 40 40" xmlns="http://www.w3.org/2000/svg"><path d="M29.1 27.5c-1.875 0-3.4-1.57-3.4-3.5s1.525-3.5 3.4-3.5c2.447 0 3.4.607 3.4 2.167 0 1.671-.71 4.833-3.4 4.833zm-18.2 0c-2.689 0-3.4-3.162-3.4-4.833 0-1.559.953-2.167 3.4-2.167 1.875 0 3.4 1.57 3.4 3.5s-1.526 3.5-3.4 3.5z" fill="#e8d47b"></path><path d="M29.1 21c2.678 0 2.9.788 2.9 1.667C32 24.165 31.394 27 29.1 27c-1.599 0-2.9-1.346-2.9-3s1.301-3 2.9-3m-18.2 0c1.599 0 2.9 1.346 2.9 3s-1.301 3-2.9 3C8.606 27 8 24.165 8 22.667 8 21.788 8.222 21 10.9 21m18.2-1c-2.154 0-3.9 1.791-3.9 4s1.746 4 3.9 4c2.903 0 3.9-3.124 3.9-5.333S31.254 20 29.1 20zm-18.2 0c-2.154 0-3.9.458-3.9 2.667C7 24.876 8.005 28 10.9 28c2.154 0 3.9-1.791 3.9-4s-1.746-4-3.9-4z" fill="#ba9b48"></path><path d="M20 38.5c-1.268 0-2.445-.527-3.316-1.483l-.084-.093-.118-.042A10.515 10.515 0 019.5 27V12.381a4.748 4.748 0 014.742-4.743h11.516a4.747 4.747 0 014.742 4.743V27c0 4.424-2.806 8.396-6.982 9.882l-.118.042-.084.093c-.871.956-2.048 1.483-3.316 1.483z" fill="#ffeea3"></path><path d="M25.758 8.139A4.247 4.247 0 0130 12.381V27c0 4.213-2.672 7.995-6.65 9.412l-.236.084-.168.185C22.171 37.531 21.125 38 20 38s-2.171-.469-2.946-1.319l-.168-.185-.236-.084A10.016 10.016 0 0110 27V12.381a4.247 4.247 0 014.242-4.242h11.516m0-1H14.242A5.242 5.242 0 009 12.381V27c0 4.78 3.055 8.837 7.315 10.354C17.229 38.358 18.534 39 20 39s2.771-.642 3.685-1.646C27.945 35.837 31 31.78 31 27V12.381a5.242 5.242 0 00-5.242-5.242z" fill="#ba9b48"></path><path d="M30.5 23.5V16c0-3.449-4.043-6.292-4.215-6.411l-.373-.259-.294.348C25.585 9.716 22.315 13.5 16 13.5c-3.142 0-6.5 1.445-6.5 5.5v4.5h-.135C8.951 22.173 7.5 17.223 7.5 13 7.5 7.276 11.056 1.5 19 1.5c5.724 0 7.476 3.561 7.547 3.712l.135.286L27 5.5c.918 0 5.5.362 5.5 7.5 0 3.86-1.462 9.107-1.872 10.5H30.5z" fill="#ffc49c"></path><path d="M19 2c5.376 0 7.029 3.288 7.093 3.421l.269.579H27c1.173 0 5 .505 5 7 0 2.239-.504 4.963-1 7.103V16c0-3.707-4.249-6.696-4.43-6.822l-.747-.513-.587.689C25.109 9.503 22.061 13 16 13c-4.318 0-7 2.299-7 6v1.269C8.504 18.19 8 15.468 8 13 8 7.926 10.881 2 19 2m0-1C10.673 1 7 7.036 7 13c0 5.044 2 11 2 11h1v-5c0-3.678 2.963-5 6-5 6.647 0 10-4 10-4s4 2.773 4 6v8h1s2-6.404 2-11c0-6.948-4.211-8-6-8 0 0-1.856-4-8-4z" fill="#a16a4a"></path><circle cx="24" cy="23" r="2" fill="#fff"></circle><circle cx="16" cy="23" r="2" fill="#fff"></circle><circle cx="23.5" cy="22.5" r="1.5" fill="#36404d"></circle><circle cx="16.5" cy="23.5" r="1.5" fill="#36404d"></circle><path d="M30 1s4.209 1.473 3.422 6.364C38.416 6.43 40 9 40 9s-.702-4.007-4.608-4.007C35.392 2.763 33.141 1 30 1z" fill="#36404d"></path><path d="M9.641 5.564c-.051-.094-.12-.18-.177-.271-1.499 1.964-2.288 4.395-2.432 6.87 3.235-.869 4.444.147 4.456.147.369.526.924.792 1.513.792.3 0 .608-.068.905-.207.879-.409 1.275-1.472 1.026-2.409-.432-1.627-2.055-4.436-5.291-4.922z" fill="#ffc49c"></path><path d="M2 4.155s4.789 1.306 4.427 6.097C11.21 8.934 13 11 13 11s-1.014-3.813-4.815-3.488C8.001 5.358 5.056 3.894 2 4.155z" fill="#36404d"></path></svg>