<svg viewBox="0 0 40 40" xmlns="http://www.w3.org/2000/svg"><path fill="#bae0bd" d="M6.5 37.5v-35h18.293l8.707 8.707V37.5z"></path><path d="M24.586 3L33 11.414V37H7V3h17.586M25 2H6v36h28V11l-9-9z" fill="#5e9c76"></path><path fill="#fff" d="M24.5 11.5v-9h.293l8.707 8.707v.293z"></path><path d="M25 3.414L32.586 11H25V3.414M25 2h-1v10h10v-1l-9-9z" fill="#5e9c76"></path><path d="M12.135 17.96c.429-.104 1.053-.169 1.729-.169 1.105 0 1.872.26 2.431.78.754.676 1.144 1.833 1.144 3.536 0 1.768-.455 3.029-1.222 3.705-.598.559-1.456.845-2.666.845a9.927 9.927 0 01-1.417-.104V17.96zm1.703 7.28c.091.026.208.026.299.026.819 0 1.534-.806 1.534-3.224 0-1.794-.468-2.886-1.495-2.886-.117 0-.234 0-.338.039v6.045zM18.843 17.83h1.703v7.319h2.236v1.443h-3.939V17.83zM24.107 17.83h1.703v7.319h2.236v1.443h-3.939V17.83z" fill="#44825d"></path></svg>