<svg viewBox="0 0 40 40" xmlns="http://www.w3.org/2000/svg"><path fill="#f78f8f" d="M6.5 37.5v-35h18.293l8.707 8.707V37.5z"></path><path d="M24.586 3L33 11.414V37H7V3h17.586M25 2H6v36h28V11l-9-9z" fill="#c74343"></path><path fill="#fff" d="M24.5 11.5v-9h.293l8.707 8.707v.293z"></path><path d="M25 3.414L32.586 11H25V3.414M25 2h-1v10h10v-1l-9-9z" fill="#c74343"></path><path d="M9.866 17.96c.429-.104 1.053-.169 1.729-.169 1.105 0 1.872.26 2.431.78.754.676 1.144 1.833 1.144 3.536 0 1.768-.455 3.029-1.222 3.705-.598.559-1.456.845-2.665.845a9.927 9.927 0 01-1.417-.104V17.96zm1.703 7.28c.091.026.208.026.299.026.819 0 1.534-.806 1.534-3.224 0-1.794-.468-2.886-1.495-2.886-.117 0-.234 0-.338.039v6.045zM21.931 23.524a41.082 41.082 0 01-.091-2.899h-.026a38.21 38.21 0 01-.559 2.691l-.767 3.133h-1.196l-.728-3.081a35.24 35.24 0 01-.546-2.743h-.026c-.026.949-.091 2.054-.13 2.925l-.156 3.042H16.25l.624-8.762h1.807l.702 3.172c.234 1.105.455 2.08.611 3.068h.039c.13-.975.325-1.963.546-3.068l.702-3.172h1.794l.533 8.762h-1.521l-.156-3.068zM30.042 26.358c-.377.156-1.17.312-1.807.312-1.014 0-1.781-.286-2.353-.871-.754-.728-1.157-2.028-1.131-3.536.039-3.185 1.846-4.511 3.731-4.511.663 0 1.144.13 1.417.26l-.286 1.469c-.26-.13-.585-.195-1.001-.195-1.17 0-2.093.793-2.093 3.068 0 2.106.819 2.873 1.625 2.873.156 0 .273-.013.338-.039v-2.119h-.793v-1.391h2.353v4.68z" fill="#fff"></path></svg>