<svg viewBox="0 0 40 40" xmlns="http://www.w3.org/2000/svg"><path fill="#8bb7f0" d="M6.5 37.5v-35h18.293l8.707 8.707V37.5z"></path><path d="M24.586 3L33 11.414V37H7V3h17.586M25 2H6v36h28V11l-9-9z" fill="#4e7ab5"></path><path fill="#fff" d="M24.5 11.5v-9h.293l8.707 8.707v.293z"></path><path d="M25 3.414L32.586 11H25V3.414M25 2h-1v10h10v-1l-9-9z" fill="#4e7ab5"></path><path d="M10.652 17.96c.43-.104 1.054-.169 1.729-.169 1.104 0 1.872.26 2.431.78.754.676 1.145 1.833 1.145 3.536 0 1.768-.455 3.029-1.223 3.705-.598.559-1.456.845-2.665.845a9.927 9.927 0 01-1.417-.104V17.96zm1.703 7.28c.091.026.208.026.299.026.819 0 1.534-.806 1.534-3.224 0-1.794-.468-2.886-1.495-2.886-.116 0-.233 0-.338.039v6.045zM17.36 26.592V17.83h1.561l1.352 3.432c.273.676.689 1.807.937 2.561h.025c-.052-.923-.169-2.444-.169-4.056V17.83h1.495v8.762h-1.56l-1.339-3.328c-.3-.741-.689-1.859-.897-2.639h-.026c.053.884.117 2.236.117 4.004v1.963H17.36zM29.256 26.358c-.377.156-1.17.312-1.808.312-1.014 0-1.781-.286-2.353-.871-.754-.728-1.157-2.028-1.131-3.536.038-3.185 1.846-4.511 3.73-4.511.663 0 1.145.13 1.417.26l-.286 1.469c-.26-.13-.585-.195-1.001-.195-1.17 0-2.093.793-2.093 3.068 0 2.106.819 2.873 1.625 2.873.156 0 .273-.013.338-.039v-2.119h-.793v-1.391h2.354v4.68z" fill="#fff"></path></svg>