<svg viewBox="0 0 40 40" xmlns="http://www.w3.org/2000/svg"><path fill="#ffc49c" d="M6.5 18.5h27v19h-27z"></path><path d="M33 19v18H7V19h26m1-1H6v20h28V18z" fill="#a16a4a"></path><path fill="#ffc49c" d="M6.5 2.5h27v17h-27z"></path><path d="M33 3v16H7V3h26m1-1H6v18h28V2z" fill="#a16a4a"></path><path d="M23 6h-6a1 1 0 000 2h6a1 1 0 000-2z" fill="#a16a4a"></path><g><path d="M23 23h-6a1 1 0 000 2h6a1 1 0 000-2z" fill="#a16a4a"></path></g><path fill="none" stroke="#36404d" stroke-miterlimit="10" d="M4 4l32 32"></path></svg>