<svg viewBox="0 0 40 40" xmlns="http://www.w3.org/2000/svg"><path fill="none" stroke="#788b9c" stroke-miterlimit="10" d="M37 38.5H3"></path><path fill="#ffc49c" d="M1.634 21.805L11.62 8.606l15.05-6.887 11.715 14.602-9.143 14.251-15.893 5.835z"></path><path d="M26.524 2.336L37.77 16.354 28.912 30.16l-15.399 5.653L2.268 21.796l9.675-12.787 14.581-6.673m.293-1.234L11.298 8.204 1 21.814 13.183 37l16.389-6.017L39 16.289 26.817 1.102z" fill="#a16a4a"></path><path d="M37.803 16.352l-8.873 13.83-15.177-18.917 12.779-8.962 11.271 14.049z" fill="#ebaa7f"></path><path d="M16.921 15.213L2.234 21.796l9.692-12.809 14.606-6.684-9.611 12.91z" fill="#ffdbc2"></path><path fill="none" stroke="#a16a4a" stroke-width="1.5" stroke-linecap="round" stroke-miterlimit="10" d="M23.626 13.654l2.364-3.665"></path><path fill="none" stroke="#36404d" stroke-miterlimit="10" d="M4 4l32 32"></path></svg>