<svg viewBox="0 0 40 40" xmlns="http://www.w3.org/2000/svg"><path fill="#ffc49c" d="M3.5 32.926V13.675L20 9.516l16.5 4.159v19.251L20 38.473z"></path><path d="M20 10.031l16 4.034v18.502l-16 5.378-16-5.378V14.065l16-4.034M20 9L3 13.286v20L20 39l17-5.714v-20L20 9z" fill="#a16a4a"></path><path d="M36 32.567l-16 5.378V13.031l16 1.034v18.502z" fill="#ebaa7f"></path><path d="M20 18.231L4 14.065l16-4.034 16 4.034-16 4.166z" fill="#ffdbc2"></path><path fill="none" stroke="#a16a4a" stroke-width="1.5" stroke-linecap="round" stroke-miterlimit="10" d="M26.375 21.292l4.25-1.417"></path><path fill="#66798f" d="M24 7.306l-1-.224V1h1zM30 8.653l-1-.224V3h1zM36 10l-1-.224V1h1zM16 7.306l1-.224V1h-1zM10 8.653l1-.224V3h-1z"></path><g><path fill="#66798f" d="M4 10l1-.224V1H4z"></path></g></svg>