<svg viewBox="0 0 40 40" xmlns="http://www.w3.org/2000/svg"><path d="M26.912 1H13.089C10.144 16.105 4 12.356 4 19c0 2.577 2.583 5 5 5 3 1.417 5.417 5 11 5s6.333-2.583 11-5c2.417 0 5-2.423 5-5 0-6.644-6.144-2.895-9.088-18z" fill="#ba9b48"></path><path d="M7.232 14.702C5.793 15.961 5 16.654 5 19c0 1.944 2.056 4 4 4 3.456 0 5.031 1.512 6.419 2.846C16.672 27.05 17.661 28 20 28s3.328-.95 4.581-2.154C25.969 24.512 27.544 23 31 23c1.944 0 4-2.056 4-4 0-2.346-.793-3.039-2.232-4.298-2.074-1.815-4.891-4.279-6.674-12.702l-.219-1h-11.75l-.219 1c-1.783 8.423-4.6 10.887-6.674 12.702z" fill="#ffeea3"></path><path fill="#f78f8f" d="M12.5 38.5v-3h-2.433L14 30.781l3.933 4.719H15.5v3z"></path><path d="M14 31.562L16.865 35H15v3h-2v-3h-1.865L14 31.562M14 30l-5 6h3v3h4v-3h3l-5-6z" fill="#c74343"></path><path fill="#f78f8f" d="M24.5 38.5v-3h-2.433L26 30.781l3.933 4.719H27.5v3z"></path><path d="M26 31.562L28.865 35H27v3h-2v-3h-1.865L26 31.562M26 30l-5 6h3v3h4v-3h3l-5-6z" fill="#c74343"></path><ellipse cx="20" cy="19" rx="5" ry="3" fill="#fff9de"/><path d="M18 1c-.159 13.552-3 18-3 18h10s-2.841-4.448-3-18h-4z" fill="#fff9de"></path><path fill="none" stroke="#36404d" stroke-miterlimit="10" d="M3 3l34 34"></path></svg>