<svg viewBox="0 0 40 40" xmlns="http://www.w3.org/2000/svg"><path fill="#dcd5f2" d="M6.5 37.5v-35h18.293l8.707 8.707V37.5z"></path><path d="M24.586 3L33 11.414V37H7V3h17.586M25 2H6v36h28V11l-9-9z" fill="#8b75a1"></path><path fill="#fff" d="M24.5 11.5v-9h.293l8.707 8.707v.293z"></path><path d="M25 3.414L32.586 11H25V3.414M25 2h-1v10h10v-1l-9-9z" fill="#8b75a1"></path><path d="M11.381 17.96c.429-.104 1.053-.169 1.729-.169 1.105 0 1.872.26 2.432.78.754.676 1.144 1.833 1.144 3.536 0 1.768-.455 3.029-1.222 3.705-.598.559-1.456.845-2.665.845a9.927 9.927 0 01-1.417-.104V17.96zm1.703 7.28c.091.026.208.026.299.026.819 0 1.534-.806 1.534-3.224 0-1.794-.468-2.886-1.495-2.886-.117 0-.234 0-.338.039v6.045zM23.263 22.055c0 3.302-1.17 4.641-2.834 4.641-1.989 0-2.769-2.106-2.769-4.511 0-2.392.948-4.459 2.898-4.459 2.107 0 2.705 2.327 2.705 4.329zm-3.835.156c0 1.989.377 3.003 1.066 3.003.728 0 1.001-1.3 1.001-3.081 0-1.534-.234-2.925-1.015-2.925-.675 0-1.052 1.118-1.052 3.003zM28.865 26.462c-.247.117-.728.208-1.312.208-2.249 0-3.315-1.833-3.315-4.329 0-3.302 1.833-4.589 3.536-4.589.598 0 1.014.117 1.183.234l-.285 1.43a1.714 1.714 0 00-.793-.169c-.963 0-1.834.832-1.834 3.003 0 2.093.794 2.912 1.834 2.912.285 0 .61-.065.818-.13l.168 1.43z" fill="#7c6394"></path></svg>