<svg viewBox="0 0 40 40" xmlns="http://www.w3.org/2000/svg"><path d="M4.688 19.496c-.557 0-.959-.124-1.133-.348.005-.018.199-.956 6.329-3.114 3.325-1.17 16.128-5.133 17.23-5.394a4.708 4.708 0 011.075-.141c1.31 0 1.31.759 1.31 1.008 0 .59-.38.984-1.129 1.17-1.312.329-21.021 6.212-21.084 6.237-.915.371-1.862.582-2.598.582z" fill="#f78f8f"></path><path d="M28.191 11c.809 0 .809.294.809.508 0 .162 0 .498-.75.686-.967.242-20.734 6.091-21.15 6.259-.845.34-1.746.543-2.411.543a2.74 2.74 0 01-.255-.011c.611-.43 2.088-1.237 5.617-2.479 3.323-1.17 16.086-5.12 17.179-5.378a4.23 4.23 0 01.961-.128m0-1c-.353 0-.752.051-1.191.154-1.068.252-13.888 4.214-17.281 5.408-4.307 1.517-7.266 2.979-6.558 3.892.298.385.858.541 1.528.541.854 0 1.887-.255 2.784-.616.078-.031 19.672-5.879 21.02-6.216.283-.07 1.507-.384 1.507-1.655 0-.98-.668-1.508-1.809-1.508z" fill="#c74343"></path><path d="M15.996 10.5c-.351 0-1.496-.147-1.496-2.048 0-.88.544-1.915.866-2.388.455-.668 1.143-1.208 1.841-1.442.241-.081.468-.122.676-.122 1.06 0 1.423 1.089 1.531 1.557.057.249.086.513.086.783 0 2.889-2.203 3.66-3.504 3.66z" fill="#f78f8f"></path><path d="M17.883 5c.675 0 .943.732 1.043 1.169.049.212.074.438.074.671C19 9.334 17.111 10 15.995 10 15.363 10 15 9.436 15 8.452c0-.661.404-1.555.779-2.106.39-.573.998-1.052 1.588-1.25.189-.064.363-.096.516-.096m0-1c-.256 0-.535.047-.835.148-.819.275-1.594.897-2.096 1.636C14.59 6.316 14 7.445 14 8.452 14 10.369 15.095 11 15.995 11 17.711 11 20 9.888 20 6.84c0-.303-.032-.603-.099-.895C19.646 4.829 18.962 4 17.883 4z" fill="#c74343"></path><path d="M1.626 34.489c-.038 0-.204-.055-.763-.766-.263-.336-.373-.637-.328-.895.092-.517.811-.96 1.197-1.198.288-.178 5.215-2.941 7.779-4.378l-.435-.898c-3.434 1.417-7.341 2.959-7.82 3.024-.161-.001-.411-.35-.578-.849-.236-.713-.345-1.418.407-1.886.423-.254 5.676-2.677 14.047-6.478l.097-.044c-1.052 3.183-1.847 5.742-2.916 9.176-.03.097-.157.417-.231.603-.25.117-1.227.557-2.026.917-1.559.702-2.524 1.141-2.778 1.311-.544.267-4.643 1.998-5.216 2.213l-.125.049c-.125.048-.254.099-.311.099z" fill="#f78f8f"></path><path d="M14.399 21.049c-.886 2.711-1.617 5.063-2.561 8.099-.023.069-.083.224-.141.372-.413.197-1.218.56-1.844.842-1.639.738-2.45 1.109-2.782 1.307-.705.341-4.627 1.996-5.185 2.206l-.129.049-.046.018a5.56 5.56 0 01-.455-.528c-.162-.206-.248-.393-.229-.498.053-.296.717-.706.967-.86.282-.173 4.796-2.706 7.762-4.367l-.87-1.797c-3.089 1.275-6.551 2.645-7.518 2.942a2.036 2.036 0 01-.222-.481c-.268-.811-.142-1.068.19-1.275.169-.1 1.618-.829 13.063-6.029m1.436-1.733c-.154 0-.378.153-.616.262-.314.144-13.629 6.178-14.397 6.642-1.209.753-.77 2.007-.617 2.47.155.461.498 1.188 1.081 1.188.567 0 7.982-3.061 7.982-3.061s-7.425 4.158-7.798 4.388c-.823.508-2.142 1.373-.999 2.827.581.739.867.957 1.156.957.179 0 .359-.084.612-.179.613-.231 4.698-1.957 5.317-2.266.462-.307 4.781-2.16 4.936-2.316 0-.002.255-.634.301-.782 1.183-3.803 2.016-6.479 3.197-10.024-.002.002-.002-.106-.155-.106z" fill="#c74343"></path><g><path d="M10.545 35.5c-.151-.052-.599-.463-.85-1.09-.24-.483-.161-1.158-.03-1.275.051-.023.374-.158.775-.327a73.732 73.732 0 001.675-.72c.736.906 2.81 1.218 3.095 1.255-1.84.929-3.251 1.638-3.421 1.717-.628.292-1.078.43-1.244.44zm5.594-2.681c.73-1.438 1.253-2.423 1.774-3.403.65-1.225 1.296-2.44 2.351-4.551.69.887 2.089 3.13 2.25 4.785-1.797.91-4.283 2.168-6.411 3.243l.036-.074z" fill="#f78f8f"></path><path d="M20.337 25.833c.626.942 1.41 2.373 1.631 3.532-1.475.747-3.15 1.595-4.72 2.388.415-.801.765-1.46 1.108-2.105.561-1.057 1.14-2.146 1.981-3.815m-8.336 6.853c.468.403 1.121.673 1.715.851a208.682 208.682 0 01-2.137 1.07 6.87 6.87 0 01-.924.363 2.17 2.17 0 01-.496-.746l-.015-.038-.019-.037c-.087-.173-.103-.462-.076-.634l.587-.248c.6-.252 1.039-.439 1.365-.581m8.176-8.623c-.081 0-.133.105-.154.155-.08.19-.2.41-.2.41-1.903 3.812-2.474 4.701-4.141 7.987 0 0-.104.233-.254.233h-.154c-.33-.021-2.917-.522-2.917-1.445-.157.153-2.829 1.23-2.96 1.31-.411.252-.475 1.266-.166 1.883.309.771.934 1.404 1.297 1.404.345 0 1.039-.286 1.472-.486.504-.234 11.028-5.565 11.028-5.565 0-2.251-2.432-5.663-2.851-5.886z" fill="#c74343"></path></g><g><path d="M28.143 26.159c-.535-1.407-1.499-2.735-2.197-3.587l.027-.009c.979-.295 3.58-1.08 5.929-1.733 2.86-.798 5.096-1.33 6.714-1.33.41 0 .756.583.854 1.146.078.446-.006.862-.188.927l-.457.155c-.947.319-3.165 1.067-4.781 1.704-2.241.856-4.898 2.205-5.901 2.727z" fill="#f78f8f"></path><path d="M38.609 20c.049.023.177.149.279.41.123.315.124.6.098.736l-.324.109c-.95.32-3.175 1.071-4.79 1.708-1.994.761-4.252 1.875-5.476 2.501-.441-.977-1.054-1.898-1.605-2.626 1.233-.371 3.32-.992 5.245-1.527 2.817-.786 5.013-1.309 6.573-1.311m.007-1c-1.726 0-4.077.575-6.848 1.348-2.777.772-5.856 1.713-6.324 1.852-.164.049-.362.128-.218.294.94 1.082 1.985 2.542 2.488 3.942.081.287.073.38.253.38 0 0 3.44-1.843 6.262-2.919 1.997-.788 4.898-1.738 5.223-1.854 1.054-.378.486-3.043-.836-3.043z" fill="#c74343"></path></g><g><path d="M24.31 20.966c-.444-.483-.865-.927-1.244-1.325-.538-.566-1.132-1.191-1.408-1.553 1.968-.728 10.993-2.548 11.798-2.588.394 0 .678.486.782.694.32.646.289 1.264.205 1.374-.49.202-2.506.845-4.455 1.467-3.153 1.006-5.14 1.649-5.678 1.931z" fill="#f78f8f"></path><path d="M33.455 16.002c.023.009.094.05.19.176.239.316.342.757.355 1.016-.763.281-2.487.831-4.161 1.365-2.899.925-4.601 1.477-5.404 1.805-.357-.384-.696-.741-1.006-1.067-.307-.323-.634-.667-.902-.962 2.671-.769 9.846-2.225 10.928-2.333M33.448 15c-.545 0-11.274 2.091-12.377 2.812-.361.236 1.134 1.591 2.983 3.614.103.113.144.156.185.156.051 0 .102-.069.274-.156.775-.461 8.937-2.891 10.169-3.425.747-.325.117-3.001-1.234-3.001z" fill="#c74343"></path></g></svg>