<svg viewBox="0 0 40 40" xmlns="http://www.w3.org/2000/svg"><path d="M25 5v4H15V5h10m0-2H15a2 2 0 00-2 2v6h14V5a2 2 0 00-2-2z" fill="#36404d"></path><path d="M1.5 35.5V11c0-1.378 1.121-2.5 2.5-2.5h32c1.379 0 2.5 1.122 2.5 2.5v24.5h-37z" fill="#f78f8f"></path><path d="M36 9c1.103 0 2 .897 2 2v24H2V11c0-1.103.897-2 2-2h32m0-1H4a3 3 0 00-3 3v25h38V11a3 3 0 00-3-3z" fill="#c74343"></path><path fill="none" stroke="#c74343" stroke-miterlimit="10" d="M38.5 14.5h-37"></path><path fill="#fff" d="M19 19h2v10h-2z"></path><path fill="#fff" d="M25 23v2H15v-2z"></path><path d="M32 17a.5.5 0 01-.5-.5v-3a.5.5 0 01.5-.5h2a.5.5 0 01.5.5v3a.5.5 0 01-.5.5h-2z" fill="#b0c1d4"></path><path d="M34 13.5v3h-2v-3h2m0-1h-2a1 1 0 00-1 1v3a1 1 0 001 1h2a1 1 0 001-1v-3a1 1 0 00-1-1z" fill="#66798f"></path><g><path d="M6 17a.5.5 0 01-.5-.5v-3A.5.5 0 016 13h2a.5.5 0 01.5.5v3a.5.5 0 01-.5.5H6z" fill="#b0c1d4"></path><path d="M8 13.5v3H6v-3h2m0-1H6a1 1 0 00-1 1v3a1 1 0 001 1h2a1 1 0 001-1v-3a1 1 0 00-1-1z" fill="#66798f"></path></g></svg>