<svg viewBox="0 0 40 40" xmlns="http://www.w3.org/2000/svg"><path d="M20 38.5c-5.648 0-11.854-6.005-13.312-7.502 2.843-3.212 2.829-8.364 2.813-13.806L9.5 16c0-5.691 4.809-10.5 10.5-10.5S30.5 10.309 30.5 16l-.001.792c-.006 5.648-.012 10.995 2.813 14.205C31.854 32.494 25.649 38.5 20 38.5z" fill="#ffeea3"></path><path d="M20 6c5.421 0 10 4.579 10 10l-.001.794c-.006 5.545-.012 10.805 2.638 14.175C30.784 32.814 25.12 38 20 38c-5.118 0-10.781-5.183-12.636-7.03 2.667-3.36 2.653-8.432 2.638-13.779L10 16c0-5.421 4.579-10 10-10m0-1C14.004 5 9 10.004 9 16s.248 11.752-3 15c0 0 7.278 8 14 8s14-8 14-8c-3.153-3.153-3-9.004-3-15S25.996 5 20 5z" fill="#f5c276"></path><path d="M20 5C14.004 5 9 10.004 9 16s.248 11.752-3 15c0 0 7.278 8 14 8V5z" fill="#f5c276"></path><path fill="#c29653" d="M21 9l-1 4-1-4V1h2z"></path><path d="M20 39c6.722 0 14-8 14-8-3.153-3.153-3-8.004-3-14h-1c0 8.199-6.134 13.851-10 21v1z" fill="#f5c276"></path><path d="M23.985 23.5c-.701-.01-1.766-.698-2.356-1.14.946-1.661 3.256-2.893 4.575-3.489-.798 2.419-1.766 4.469-2.219 4.629z" fill="#839cb2"></path><path d="M25.327 19.86c-.556 1.503-1.139 2.739-1.497 3.122-.414-.078-1.008-.404-1.521-.75.703-.949 1.914-1.772 3.018-2.372M27 18s-4.775 1.7-6 4.5c0 0 1.775 1.5 3 1.5s3-6 3-6z" fill="#66798f"></path><g><path d="M16.015 23.5c-.453-.16-1.421-2.208-2.219-4.628 1.319.597 3.63 1.831 4.575 3.489-.598.45-1.65 1.13-2.356 1.139z" fill="#839cb2"></path><path d="M14.673 19.86c1.104.6 2.315 1.422 3.017 2.373-.513.346-1.107.672-1.521.75-.357-.383-.94-1.62-1.496-3.123M13 18s1.775 6 3 6 3-1.5 3-1.5c-1.225-2.8-6-4.5-6-4.5z" fill="#66798f"></path></g><path d="M20 6V5C14.004 5 9 10.004 9 16l.002 1H9c0 5.996.153 10.847-3 14 0 0 7.278 8 14 8v-1c-3.866-7.149-10-12.801-10-21h.002L10 16c0-5.421 4.579-10 10-10z" fill="#c29653"></path></svg>