<svg viewBox="0 0 40 40" xmlns="http://www.w3.org/2000/svg"><path fill="#c2e8ff" d="M31.95 34.564l5.113-.618.706-6.116L36 15l-2-4-4-3 .42-1.57-3.937-2.582-5.643-1.41-5.58.848L11 6v2L9 9l-4 3-2 7v15h5v3h23.421z"></path><path fill="#a4d6f5" d="M25.954 3.996l-.911 3.967L20 18v-3l-5-8 .285-3.357L20.877 2z"></path><path d="M19.5 37.5v-17l10-8-2-3 3-3c-2-2-5-3-5-3" fill="none" stroke="#7496c4" stroke-linecap="round" stroke-linejoin="round" stroke-miterlimit="10"></path><path d="M27.5 32.5h4v-5h-6v3c0 .363 0 2 2 2z" fill="none" stroke="#7496c4" stroke-linejoin="round" stroke-miterlimit="10"></path><path d="M32 34.5h5.5s0-10-1-18c-.868-6.946-6-8-7-9" fill="none" stroke="#7496c4" stroke-linejoin="round" stroke-miterlimit="10"></path><path d="M19.5 17.5l-9-5 3-3-3-3s3-3 5-3" fill="none" stroke="#7496c4" stroke-linecap="round" stroke-linejoin="round" stroke-miterlimit="10"></path><path d="M9 34.5l-6.5-.054s0-8.946 1-16.946c.992-7.938 7.001-9.281 8-10" fill="none" stroke="#7496c4" stroke-linejoin="round" stroke-miterlimit="10"></path><path fill="none" stroke="#7496c4" stroke-linejoin="round" stroke-miterlimit="10" d="M8.5 17v20.5h23V17"></path><path d="M20.428 16.339c0-1.542-5.643-5.992-5.643-12.696 0 0 2.631-1.143 5.714-1.143s5.571 1.143 5.571 1.143c0 6.704-6.571 12.048-6.571 16.857M12.5 32.5h-4v-5h6v3c0 .372 0 2-2 2z" fill="none" stroke="#7496c4" stroke-linejoin="round" stroke-miterlimit="10"></path><circle cx="22" cy="23" r="1" fill="#7496c4"></circle><circle cx="22" cy="28" r="1" fill="#7496c4"></circle><circle cx="22" cy="33" r="1" fill="#7496c4"></circle></svg>