<svg viewBox="0 0 40 40" xmlns="http://www.w3.org/2000/svg"><path d="M6 18.459c-3.032 0-5.5-2.467-5.5-5.5s2.468-5.5 5.5-5.5 5.5 2.467 5.5 5.5-2.468 5.5-5.5 5.5z" fill="#e0ac89"></path><path d="M6 7.96c2.757 0 5 2.243 5 5s-2.243 5-5 5-5-2.243-5-5 2.243-5 5-5m0-1a6 6 0 100 12 6 6 0 000-12z" fill="#a16a4a"></path><circle cx="6" cy="13" r="2" fill="#36404d"></circle><path d="M21 18.5c-4.687 0-8.5-3.813-8.5-8.5s3.813-8.5 8.5-8.5 8.5 3.813 8.5 8.5-3.813 8.5-8.5 8.5z" fill="#e0ac89"></path><path d="M21 2c4.411 0 8 3.589 8 8s-3.589 8-8 8-8-3.589-8-8 3.589-8 8-8m0-1c-4.971 0-9 4.029-9 9s4.029 9 9 9 9-4.029 9-9-4.029-9-9-9z" fill="#a16a4a"></path><circle cx="21" cy="10" r="2" fill="#36404d"></circle><path d="M2.652 38.5a2.153 2.153 0 01-2.151-2.151V21.652c0-1.187.965-2.152 2.151-2.152h23.697c1.187 0 2.151.965 2.151 2.152v14.697a2.154 2.154 0 01-2.151 2.151H2.652z" fill="#a3b7cc"></path><path d="M26.349 20c.91 0 1.651.741 1.651 1.651v14.697c0 .911-.741 1.652-1.651 1.652H2.651C1.741 38 1 37.259 1 36.349V21.651C1 20.741 1.741 20 2.651 20h23.698m0-1H2.651A2.651 2.651 0 000 21.651v14.697A2.651 2.651 0 002.651 39h23.697A2.651 2.651 0 0029 36.349V21.651A2.651 2.651 0 0026.349 19z" fill="#8499ad"></path><g><path fill="#839cb2" d="M37.222 37.5l-5.421-6H29.5v-5h2.301l5.421-6H39.5v17z"></path><path d="M39 21v16h-1.556l-5.123-5.67-.298-.33H30v-4h2.023l.298-.33L37.444 21H39m1-1h-3l-5.421 6H29v6h2.579L37 38h3V20z" fill="#66798f"></path></g><path fill="#66798f" d="M30 27h2v4h-2z"></path></svg>