<svg viewBox="0 0 40 40" xmlns="http://www.w3.org/2000/svg"><path fill="#dbb065" d="M1.5 35.5v-31h10.293l3 3H38.5v28z"></path><path d="M11.586 5l2.707 2.707.293.293H38v27H2V5h9.586M12 4H1v32h38V7H15l-3-3z" fill="#967a44"></path><path fill="#f5ce85" d="M1.5 35.5v-26h10.651l3-2H38.5v28z"></path><path d="M38 8v27H2V10h10.303l.252-.168L15.303 8H38m1-1H15l-3 2H1v27h38V7z" fill="#967a44"></path><g><path fill="#fff" d="M13.5 31.5v-17h7.293l5.707 5.707V31.5z"></path><path d="M20.586 15L26 20.414V31H14V15h6.586M21 14h-8v18h14V20l-6-6z" fill="#788b9c"></path></g><g><path fill="#fff" d="M20.5 20.5v-6h.293l5.707 5.707v.293z"></path><path d="M21 15.414L25.586 20H21v-4.586M21 14h-1v7h7v-1l-6-6z" fill="#788b9c"></path></g></svg>