<svg viewBox="0 0 40 40" xmlns="http://www.w3.org/2000/svg"><path fill="#f5ce85" d="M8.323 36.549L2.489 25.852l-.976-10.735 5.819-9.698L19.5 1.525l12.168 3.894 5.812 9.706-.969 10.727-5.834 10.697L19.5 38.493z"></path><path d="M19.5 2.05l11.836 3.787 5.632 9.405-.945 10.461-5.67 10.394L19.5 37.985 8.647 36.097l-5.67-10.394-.952-10.468 5.638-9.397L19.5 2.05m0-1.05L7 5 1 15l1 11 6 11 11.5 2L31 37l6-11 .993-10.992L32 5 19.5 1z" fill="#a16a4a"></path><path fill="#d6aa70" d="M9.428 24.226L12.609 11.5h13.782l3.181 12.726L19.5 30.729z"></path><path d="M26 12l3 12-9.5 6.133L10 24l3-12h13m.781-1H12.219l-.189.757-3 12-.174.694.601.388 9.5 6.133.542.35.542-.35 9.5-6.133.601-.388-.174-.694-3-12-.187-.757z" fill="#a16a4a"></path><path fill="#bf915a" d="M19.5 30.729l10.072-6.503-.063-.251 7.003 1.872-5.835 10.702L19.5 38.493z"></path><path d="M29.914 24.6l5.857 1.566-5.417 9.931L20 37.898v-6.897l.042-.027 9.5-6.133.372-.241m-1.097-1.328L29 24l-9.5 6.133-.5-.322v9.103l.5.086L31 37l6-11 .048-.527-8.231-2.201z" fill="#a16a4a"></path><path fill="#d6aa70" d="M29.567 24.207l-3.136-12.543 5.214-6.253.023.008 5.812 9.706-.969 10.727-.078.144z"></path><path d="M31.588 6.259l5.38 8.983-.916 10.138-6.072-1.583-.01-.04-2.992-11.969 4.61-5.529m-.112-1.427L25.5 12h.5l3 12-.636.41 8.32 2.169L37 26l.993-10.992L32 5l-.524-.168z" fill="#a16a4a"></path><g><path fill="#f5ce85" d="M8.323 36.549L2.491 25.855l-.004-.045 7.005-1.839-.064.255L19.5 30.729v7.764z"></path><path d="M9.079 24.596l.378.244 9.5 6.133.043.028v6.897L8.647 36.097l-5.433-9.961 5.865-1.54m1.104-1.324l-8.225 2.16L2 26l6 11 11.5 2 .5-.087V29.81l-.5.323L10 24l.183-.728z" fill="#a16a4a"></path></g><g><path d="M2.489 25.852l-.976-10.735 5.814-9.69.034-.01 5.239 6.284a.487.487 0 00-.084.178l-3 12a.498.498 0 00.016.294l-7 1.757-.043-.078z" fill="#ffeea3"></path><path d="M7.411 6.258l4.611 5.531L9.03 23.757l-.006.027-6.082 1.527-.917-10.076 5.386-8.977m.126-1.411L7 5 1 15l1 11 .278.509 8.359-2.098L10 24l3-12h.5L7.537 4.847z" fill="#a16a4a"></path></g><path d="M18 16v8h-1.266v-6.45a3.994 3.994 0 01-.739.417 6.033 6.033 0 01-.903.303v-1.08c.211-.069.415-.142.611-.218a7.271 7.271 0 001.159-.573 8.31 8.31 0 00.603-.398H18zM24 23.956h-4.911v-.606c0-.247.035-.479.104-.695.069-.216.162-.421.278-.611.116-.192.253-.371.409-.541.156-.169.324-.332.502-.491.178-.158.36-.31.546-.458.186-.147.367-.295.546-.444.167-.142.32-.281.458-.418.138-.136.256-.277.355-.423s.175-.299.229-.461a1.62 1.62 0 00.082-.526c0-.207-.032-.388-.095-.543a1.054 1.054 0 00-.268-.387 1.137 1.137 0 00-.406-.235 1.614 1.614 0 00-.513-.079c-.32 0-.646.075-.977.224a3.352 3.352 0 00-.955.671v-1.217c.16-.12.322-.224.486-.313a3.213 3.213 0 011.059-.357c.193-.029.397-.046.615-.046.353 0 .673.046.96.139.287.092.533.229.737.409.204.181.361.405.472.674.11.269.166.578.166.928 0 .317-.039.601-.118.854a2.773 2.773 0 01-.332.707 3.707 3.707 0 01-.521.622 12.46 12.46 0 01-.682.606c-.211.171-.421.338-.63.499-.21.162-.398.321-.565.475s-.303.309-.406.463a.83.83 0 00-.156.467v.027H24v1.086z" fill="#fff"></path></svg>