<svg viewBox="0 0 40 40" xmlns="http://www.w3.org/2000/svg"><path d="M15.929 24.071c-3.366 0-6.305-.819-6.305-4.185-.025 1.57-.04 2.922-.121 4.113H8v12c0 1.65 1.35 3 3 3h3c0-1.65-1.35-3-3-3v-3c1.417-.688 3.611-2.187 5-4 .75-.979 1.929-3.006 3.802-3.006l-3.873-1.922zM25 36h4c1.65 0 3 1.35 3 3h-4c-1.65 0-3-1.35-3-3z" fill="#593f33"></path><path fill="#593f33" d="M25 24h4v13h-4z"></path><path d="M28 11.5c-.106-.16.145-.965.279-1.398.179-.571.363-1.162.363-1.636 0-1.689 1.771-2.924 4.23-2.965 1.521.804 4.339.962 5.606.992C38.273 8.997 36.525 11.5 34 11.5h-6z" fill="#e1ebf2"></path><path d="M32.76 6.004c1.43.697 3.745.907 5.155.97C37.555 9.062 36.072 11 34 11h-5.462c.063-.248.154-.538.219-.748.19-.607.386-1.235.386-1.786 0-1.377 1.507-2.391 3.617-2.462M33 5c-2.998 0-4.857 1.592-4.857 3.466C28.143 9.615 26.72 12 28 12h6c2.998 0 5-3.088 5-6-1.442 0-4.573-.172-6-1z" fill="#788b9c"></path><path d="M25.006 38.5c-1.148 0-1.97-.438-2.515-2.621L20.396 27.5h-.391c-.756 0-1.482-.069-2.718-.913-.996-.681-2.224-1.087-3.282-1.087-1.554 0-2.817 1.43-3.739 2.475-.222.251-.427.484-.614.672-1.549 1.548-3.052 2.36-4.506 3.145-.469.253-.936.505-1.399.778l-.247.144V36.5H4c1.207 0 2.218.86 2.45 2H4A2.503 2.503 0 011.5 36v-5.85c.628-1.004 3.006-5.691 3.006-11.15 0-3.033 2.468-5.5 5.5-5.5h9.207l1.223-1.223 3.038-8.101c.556-1.475 2.14-2.676 3.532-2.676h2c2.458 0 3.524 2.43 4.098 3.736 1.057 2.407-.287 5.595-1.382 6.353-.863.588-1.222 2.512-1.222 3.411v6c0 3.232-1.935 5.97-4.6 6.51l-.4.082V36.5h.5c1.21 0 2.223.86 2.455 2h-3.449z" fill="#ffc49c"></path><path d="M29.006 2c1.967 0 2.91 1.774 3.656 3.473.984 2.241-.4 5.134-1.219 5.7C30.353 11.917 30 14.072 30 15v6c0 2.995-1.766 5.527-4.199 6.02l-.801.162V37h1a2.01 2.01 0 011.737 1h-2.731c-.832 0-1.51-.165-2.03-2.243l-2-8-.189-.757h-.781c-.696 0-1.317-.061-2.436-.826C16.495 25.439 15.162 25 14.006 25c-1.779 0-3.129 1.528-4.114 2.644-.214.243-.412.468-.593.649-1.497 1.497-2.903 2.256-4.39 3.059-.474.256-.945.51-1.415.786l-.494.29V37h1c.739 0 1.385.403 1.732 1H4c-1.103 0-2-.897-2-2v-5.714C2.766 28.982 5.006 24.345 5.006 19c0-2.757 2.243-5 5-5h9.414l.293-.293 1-1 .153-.153.076-.203 3-7.999C24.43 3.055 25.804 2 27.006 2h2m0-1h-2c-1.696 0-3.403 1.412-4 3l-3 8-1 1h-9a6 6 0 00-6 6c0 5.875-2.802 10.729-3.006 11v6c0 1.65 1.35 3 3 3h3c0-1.65-1.35-3-3-3v-3c1.941-1.14 3.909-1.903 6.006-4 .947-.947 2.329-3 4-3 .936 0 2.071.365 3 1 1.271.869 2.082 1 3 1l2 8c.521 2.083 1.35 3 3 3h4c0-1.65-1.356-3-3.006-3v-8c3.081-.624 5-3.729 5-7v-6c0-.977.409-2.593 1.006-3 1.276-.882 2.729-4.292 1.571-6.929C32.984 3.719 31.815 1 29.006 1z" fill="#a16a4a"></path><path d="M9.8 28.749l.02-.022a.568.568 0 01-.023.025l.003-.003z" fill="#ffc49c"></path><path d="M9.82 28.728l-.004.004.004-.004zm-.004.004a.398.398 0 01-.019.021l.004-.003.015-.018z" fill="#a16a4a"></path><path d="M27.992 15.5c-1.21 0-2.418-.973-3.152-2.539-.743-1.584-.181-5.98 1.001-7.841.247-.388.505-.62.688-.62.922 0 1.965 2.656 2.654 4.413.294.747.571 1.453.85 2.048.89 1.896.473 3.55-1.087 4.316-.3.148-.622.223-.954.223z" fill="#805f51"></path><path d="M26.566 5.011c.639.228 1.696 2.921 2.153 4.086.296.754.576 1.467.862 2.076.772 1.646.453 3.013-.854 3.655-.233.114-.48.172-.735.172-.999 0-2.059-.883-2.7-2.251-.878-1.873.349-7.146 1.274-7.738M26.53 4c-1.821 0-3.246 6.822-2.143 9.174.85 1.813 2.254 2.826 3.605 2.826.402 0 .799-.09 1.175-.274 1.642-.806 2.422-2.625 1.319-4.977C29.383 8.396 28.206 4 26.53 4z" fill="#593f33"></path><path d="M31 7h-1V6c0-.55.45-1 1-1s1 .45 1 1-.45 1-1 1zM37.009 5.914C37.007 5.943 37 5.97 37 6c0 1.001.738 1.823 1.698 1.97A6.834 6.834 0 0039 6a25.51 25.51 0 01-1.991-.086z" fill="#36404d"></path><g><path d="M18.956 27.392c-.518-.125-1.05-.382-1.668-.804-.996-.681-2.224-1.087-3.282-1.087-.122 0-.248.01-.379.032L3.304 13.566l-.111-.139A7.393 7.393 0 012.09 11.57a7.582 7.582 0 01-.481-1.741C2.103 12.266 4.92 13.5 10 13.5h9.213l1.223-1.223L22.5 6.773V23a4.508 4.508 0 01-3.544 4.392zM1.533 9.196c-.198-2.433.593-5.319 2.963-7.692-2.452 2.455-2.967 5.437-2.967 7.508 0 .062.001.123.004.184z" fill="#805f51"></path><path d="M22 9.531V23a4.008 4.008 0 01-3.038 3.877c-.425-.119-.864-.341-1.392-.703C16.495 25.439 15.162 25 14.006 25c-.057 0-.114.002-.172.006L3.763 13.333l-.057-.066-.125-.155a7.14 7.14 0 01-.263-.345C4.817 13.587 7.048 14 10 14h9.42l.293-.293 1-1 .153-.153.076-.203L22 9.531M4.5 1a.502.502 0 00-.354.146C.769 4.525.447 8.912 1.628 11.761c.335.81.749 1.452 1.176 1.98l-.01-.001.085.099c.045.054.089.104.134.155l10.429 12.089c.185-.05.372-.083.564-.083.936 0 2.071.365 3 1 .777.531 1.382.785 1.945.903C21.25 27.455 23 25.424 23 23V4.016L20.006 12l-1 1H10c-2.006 0-7.971-.035-7.971-3.988 0-2.265.636-4.969 2.824-7.158A.5.5 0 004.5 1z" fill="#593f33"></path></g></svg>