<svg viewBox="0 0 40 40" xmlns="http://www.w3.org/2000/svg"><path d="M6.5 28V13c0-3.584 2.916-6.5 6.5-6.5s6.5 2.916 6.5 6.5v13M33.5 18v7.5c0 3.86-3.141 7-7 7s-7-3.14-7-7V17" fill="none" stroke="#5e9c76" stroke-miterlimit="10"></path><path d="M33.5 2C35.981 2 38 4.019 38 6.5c0 3.347-2.761 8.447-4.5 10.882C31.761 14.947 29 9.847 29 6.5 29 4.019 31.019 2 33.5 2m0-1A5.5 5.5 0 0028 6.5c0 4.219 3.875 10.688 5.5 12.5 1.625-1.813 5.5-8.281 5.5-12.5A5.5 5.5 0 0033.5 1zM6.5 29c2.481 0 4.5 2.019 4.5 4.5S8.981 38 6.5 38 2 35.981 2 33.5 4.019 29 6.5 29m0-1a5.5 5.5 0 100 11 5.5 5.5 0 100-11z" fill="#5e9c76"></path><circle cx="33.5" cy="18.5" r="1" fill="#b6c9d6"></circle><path d="M33.5 18a.5.5 0 110 1 .5.5 0 010-1m0-1a1.5 1.5 0 10.001 3.001A1.5 1.5 0 0033.5 17zM6.5 27c.275 0 .5.225.5.5v2c0 .275-.225.5-.5.5a.501.501 0 01-.5-.5v-2c0-.275.225-.5.5-.5z" fill="#788b9c"></path><path d="M7.5 28h-2a.501.501 0 01-.5-.5c0-.275.225-.5.5-.5h2c.275 0 .5.225.5.5s-.225.5-.5.5z" fill="#788b9c"></path></svg>