<svg viewBox="0 0 40 40" xmlns="http://www.w3.org/2000/svg"><path d="M13.5 38.5c-2.757 0-5-2.243-5-5v-2h-2c-2.757 0-5-2.243-5-5s2.243-5 5-5c1.335 0 2.591.52 3.536 1.464l.354.354 12.929-12.929-.354-.354A4.964 4.964 0 0121.5 6.5c0-2.757 2.243-5 5-5s5 2.243 5 5v2h2c2.757 0 5 2.243 5 5s-2.243 5-5 5a4.971 4.971 0 01-3.536-1.464l-.354-.354-12.928 12.929.354.354A4.967 4.967 0 0118.5 33.5c0 2.757-2.243 5-5 5z" fill="#fff1e8"></path><path d="M26.5 2C28.981 2 31 4.019 31 6.5V9h2.5c2.481 0 4.5 2.019 4.5 4.5S35.981 18 33.5 18a4.47 4.47 0 01-3.182-1.318l-.707-.707-.707.707-12.222 12.222-.707.707.707.707A4.47 4.47 0 0118 33.5c0 2.481-2.019 4.5-4.5 4.5S9 35.981 9 33.5V31H6.5C4.019 31 2 28.981 2 26.5S4.019 22 6.5 22a4.47 4.47 0 013.182 1.318l.707.707.707-.707 12.222-12.222.707-.707-.707-.707A4.47 4.47 0 0122 6.5C22 4.019 24.019 2 26.5 2m0-1a5.5 5.5 0 00-3.889 9.389L10.389 22.611A5.5 5.5 0 106.5 32H8v1.5a5.5 5.5 0 1011 0 5.483 5.483 0 00-1.611-3.889l12.222-12.222A5.5 5.5 0 1033.5 8H32V6.5A5.5 5.5 0 0026.5 1z" fill="#a16a4a"></path></svg>