<svg viewBox="0 0 40 40" xmlns="http://www.w3.org/2000/svg"><path fill="#ffc49c" d="M3.5 36.5V14.286L19.998 4.58 36.5 14.286V36.5z"></path><path d="M19.998 5.16L36 14.572V36H4V14.572L19.998 5.16m0-1.16L3 14v23h34V14L19.998 4z" fill="#a16a4a"></path><path fill="#bae0bd" d="M19.998 6.645L1.5 17.954v-4.058l18.498-11.31L38.5 13.896v4.058z"></path><path d="M19.998 3.172L38 14.176v2.887L20.519 6.378l-.522-.319-.522.319L2 17.063v-2.887L19.998 3.172m0-1.172L1 13.615v5.231L19.998 7.231 39 18.846v-5.231L19.998 2z" fill="#5e9c76"></path><g><path d="M12.5 36.5V27c0-4.136 3.364-7.5 7.5-7.5s7.5 3.364 7.5 7.5v9.5h-15z" fill="#b08159"></path><path d="M20 20c3.86 0 7 3.14 7 7v9H13v-9c0-3.86 3.14-7 7-7m0-1a8 8 0 00-8 8v10h16V27a8 8 0 00-8-8z" fill="#704e34"></path></g></svg>