<svg viewBox="0 0 40 40" xmlns="http://www.w3.org/2000/svg"><path d="M5.586 18.984c.365-2.605 1.838-6.225 2.466-6.492C8.517 12.5 9.5 14.592 9.5 16c0 .548-.079.548-.374.548-.125 0-.261-.01-.405-.021-.189-.013-.389-.027-.596-.027-.729 0-1.419.899-2.388 2.271l-.151.213z" fill="#735f63"></path><path d="M8.082 13.181C8.48 13.712 9 15.05 9 16v.045c-.077-.004-.159-.01-.243-.016A8.39 8.39 0 008.125 16c-.564 0-1.047.315-1.565.88.448-1.547 1.073-3.057 1.522-3.699M8 12c-1.036 0-3 5.474-3 8 0 .188.039.269.108.269.441 0 2.122-3.269 3.017-3.269.368 0 .711.048 1.001.048.525 0 .874-.158.874-1.048 0-1.381-.964-4-2-4z" fill="#4d3e40"></path><path d="M19.497 8.729c-.422-.165-1.254-.683-2.201-1.518C16.057 6.12 15.5 5.261 15.5 5c0-1.267 1.38-3.5 2-3.5.59.213 1.929 3.8 1.997 7.229z" fill="#735f63"></path><path d="M17.387 2.12c.514.748 1.359 3.164 1.566 5.746-1.111-.747-2.77-2.265-2.953-2.904.024-.895.86-2.375 1.387-2.842M17.5 1C16.464 1 15 3.619 15 5c0 1.182 3.667 4.286 4.72 4.286.177 0 .28-.088.28-.286 0-3.568-1.464-8-2.5-8z" fill="#4d3e40"></path><path d="M23.25 38.5c-.729 0-1.318-.049-1.819-.288-.086-.041-.177-.09-.274-.141-.443-.235-1.052-.556-1.786-.556-.363 0-.726.08-1.075.237-1.135.51-2.148.748-3.188.748-3.092 0-5.607-2.168-5.607-4.833 0-1.595.922-3.083 2.465-3.979.133-.077.294-.163.472-.257.987-.526 2.339-1.246 2.624-2.301.589-2.171 2.244-3.63 4.118-3.63 2.21 0 3.604 1.399 4.263 4.278.287 1.256 1.199 2.2 2.081 3.113 1.018 1.052 1.978 2.046 1.978 3.442-.002 2.298-1.908 4.167-4.252 4.167z" fill="#d6aa70"></path><path d="M19.179 24c1.239 0 2.978.403 3.775 3.889.318 1.392 1.28 2.387 2.21 3.349.985 1.02 1.836 1.901 1.836 3.095C27 36.355 25.318 38 23.25 38c-.662 0-1.187-.041-1.603-.239-.08-.038-.165-.084-.256-.131-.463-.245-1.162-.614-2.021-.614-.435 0-.865.094-1.28.281-1.068.479-2.016.703-2.983.703C12.291 38 10 36.056 10 33.667c0-1.415.828-2.741 2.216-3.546.128-.074.284-.157.456-.249 1.067-.569 2.529-1.348 2.872-2.61.528-1.951 1.989-3.262 3.635-3.262m0-1c-2.213 0-3.982 1.721-4.6 3.999-.277 1.021-2.07 1.794-2.865 2.256C10.078 30.205 9 31.82 9 33.667 9 36.612 11.734 39 15.107 39c1.261 0 2.364-.329 3.393-.792a2.1 2.1 0 01.87-.193c.76 0 1.38.425 1.846.648.615.294 1.303.337 2.034.337 2.623 0 4.75-2.089 4.75-4.667 0-2.896-3.5-4.167-4.071-6.667-.657-2.873-2.127-4.666-4.75-4.666z" fill="#7a4f34"></path><path d="M9.5 26.5c-1.757 0-4-3.458-4-6.167 0-2.665 1.506-4.833 3.357-4.833 1.764 0 4.643 3.445 4.643 6.167 0 1.013-.188 1.302-1.15 2.324-.418.444-.754.842-1.046 1.187-.831.982-1.152 1.322-1.804 1.322z" fill="#d6aa70"></path><path d="M8.857 16C10.262 16 13 19.059 13 21.667c0 .853-.115 1.025-1.014 1.982-.429.456-.766.855-1.064 1.207C10.125 25.798 9.914 26 9.5 26 8.118 26 6 22.961 6 20.333 6 17.984 7.308 16 8.857 16m0-1C6.727 15 5 17.388 5 20.333 5 23.279 7.37 27 9.5 27c1.243 0 1.647-1 3.214-2.667.977-1.039 1.286-1.44 1.286-2.666C14 18.721 10.987 15 8.857 15z" fill="#7a4f34"></path><path d="M34.263 21.77c-.969-1.371-1.658-2.27-2.388-2.27-.207 0-.407.014-.596.027-.145.011-.28.021-.405.021-.295 0-.374 0-.374-.548 0-1.408.983-3.5 1.5-3.5.587.261 2.067 3.924 2.423 6.496l-.16-.226z" fill="#735f63"></path><path d="M31.918 16.181c.448.642 1.073 2.151 1.521 3.698-.518-.565-1.001-.879-1.564-.879-.22 0-.432.014-.632.029-.084.006-.165.012-.243.016V19c0-.95.52-2.288.918-2.819M32 15c-1.036 0-2 2.619-2 4 0 .89.349 1.048.874 1.048.29 0 .633-.048 1.001-.048.895 0 2.576 3.269 3.017 3.269.069 0 .108-.081.108-.269 0-2.526-1.964-8-3-8z" fill="#4d3e40"></path><g><path d="M30.5 29.5c-.652 0-.973-.34-1.804-1.322-.292-.345-.628-.743-1.046-1.187-.962-1.022-1.15-1.312-1.15-2.325 0-2.722 2.879-6.167 4.643-6.167 1.852 0 3.357 2.168 3.357 4.833 0 2.71-2.243 6.168-4 6.168z" fill="#d6aa70"></path><path d="M31.143 19C32.692 19 34 20.984 34 23.333 34 25.961 31.882 29 30.5 29c-.414 0-.625-.202-1.422-1.145-.298-.352-.635-.751-1.064-1.207-.899-.957-1.014-1.129-1.014-1.981C27 22.059 29.738 19 31.143 19m0-1C29.013 18 26 21.721 26 24.667c0 1.226.309 1.628 1.286 2.667C28.853 29 29.257 30 30.5 30c2.13 0 4.5-3.721 4.5-6.667C35 20.388 33.273 18 31.143 18z" fill="#7a4f34"></path></g><g><path d="M16 15.5c-1.93 0-3.5-2.168-3.5-4.833 0-2.722 2.996-6.167 4.833-6.167 1.58 0 2.167 1.22 2.167 4.5 0 3.949-1.374 6.5-3.5 6.5z" fill="#d6aa70"></path><path d="M17.333 5C18.177 5 19 5.309 19 9c0 3.645-1.178 6-3 6-1.626 0-3-1.984-3-4.333C13 8.221 15.726 5 17.333 5m0-1C15.124 4 12 7.721 12 10.667 12 13.612 13.791 16 16 16s4-2.344 4-7c0-2.946-.458-5-2.667-5z" fill="#7a4f34"></path></g><g><path d="M22.503 9.729c.068-3.43 1.408-7.016 2.025-7.232C25.12 2.5 26.5 4.733 26.5 6c0 .261-.557 1.12-1.796 2.211-.947.835-1.779 1.353-2.201 1.518z" fill="#735f63"></path><path d="M24.613 3.12c.527.467 1.363 1.947 1.387 2.842-.184.644-1.865 2.179-2.954 2.918.204-2.587 1.052-5.011 1.567-5.76M24.5 2C23.464 2 22 6.432 22 10c0 .198.103.286.28.286C23.333 10.286 27 7.182 27 6c0-1.381-1.464-4-2.5-4z" fill="#4d3e40"></path></g><g><path d="M26 16.5c-2.126 0-3.5-2.551-3.5-6.5 0-3.28.587-4.5 2.167-4.5 1.837 0 4.833 3.445 4.833 6.167 0 2.665-1.57 4.833-3.5 4.833z" fill="#d6aa70"></path><path d="M24.667 6C26.274 6 29 9.221 29 11.667 29 14.016 27.626 16 26 16c-1.822 0-3-2.355-3-6 0-3.691.823-4 1.667-4m0-1C22.458 5 22 7.054 22 10c0 4.656 1.791 7 4 7s4-2.388 4-5.333C30 8.721 26.876 5 24.667 5z" fill="#7a4f34"></path></g></svg>