<svg viewBox="0 0 40 40" xmlns="http://www.w3.org/2000/svg"><path d="M4 33.5A3.5 3.5 0 01.5 30V13.17h39V30a3.5 3.5 0 01-3.5 3.5z" fill="#9bcc9f"></path><path d="M39 13.67V30a3 3 0 01-3 3H4a3 3 0 01-3-3V13.67h38m1-1H0V30a4 4 0 004 4h32a4 4 0 004-4V12.67z" fill="#5e9c76"></path><path d="M26 19.33s.75 9.49 6.67 14M33 16.33A20.06 20.06 0 0039.33 24M14 19.33s-.75 9.49-6.67 14M7 16.33A20.06 20.06 0 01.67 24" fill="none" stroke="#5e9c76" stroke-linecap="round" stroke-miterlimit="10"></path><path d="M20 22.64c-3.67-3.38-9.18-3.76-10.42-3.8-.78-1-4.34-5.05-9.08-5.32V10A3.5 3.5 0 014 6.5h32a3.5 3.5 0 013.5 3.5v3.51c-4.69.28-8.3 4.38-9.08 5.33-1.23.05-6.74.48-10.42 3.8z" fill="#bae0bd"></path><path d="M36 7a3 3 0 013 3v3.06c-4.41.49-7.81 4.11-8.82 5.3C28.61 18.45 23.6 19 20 22c-3.59-3.05-8.6-3.55-10.18-3.63-1-1.2-4.37-4.81-8.82-5.29V10a3 3 0 013-3h32m0-1H4a4 4 0 00-4 4v4c5.33 0 9.33 5.33 9.33 5.33s6.72 0 10.67 4c3.95-3.91 10.67-4 10.67-4S34.75 14 40 14v-4a4 4 0 00-4-4z" fill="#5e9c76"></path><path d="M20.67 6.67a27.55 27.55 0 01-1.34 15.13M11.33 6.67S13 14 10 18.42M28.67 6.67A26.79 26.79 0 0130 18.42" fill="none" stroke="#5e9c76" stroke-linecap="round" stroke-miterlimit="10"></path></svg>