<svg viewBox="0 0 40 40" xmlns="http://www.w3.org/2000/svg"><path d="M25.942 16.028C27.196 10.325 30 13.705 30 17c0 2.474-1.68 5-4.445 5-.755 0-.842-.391.387-5.972z" fill="#4e7ab5"></path><path d="M14 35.5c-.261 0-.611-.578-.843-.96-.325-.535-.631-1.04-1.154-1.04H10c-.626 0-1.33-.537-1.646-.854L8 32.293l-.354.354c-.393.393-1.061.853-1.646.853l-1.413.003-.581-.003c-.532 0-.838.505-1.163 1.04-.232.382-.582.96-.843.96-.082 0-.5-.435-.5-2.5 0-2.003 1.374-3.697 3.674-4.53l.35-.127-.021-.372c-.005-.087-.003-.173-.001-.264l.002-.178c0-7.671 1.596-13.3 4.879-17.208l.218-.26-.161-.298c-.953-1.772-2.3-2.735-3.192-3.371-.296-.212-.665-.476-.725-.587-.049-.141-.064-.182.215-.433 1.333-1.198 2.997-1.831 4.814-1.831 1.826 0 3.649.657 5.134 1.849l.245.197.284-.136c2.818-1.35 5.351-1.951 8.213-1.951 5.426 0 9.071 3.014 9.071 7.5v.407l.398.083c2.56.531 3.603 1.259 3.603 2.51 0 1.204-1.095 2.5-3.5 2.5h-8.5v.5c0 .751-.217 4.5-4.5 4.5-.916 0-1.717-.215-2.45-.658-.042-.125.167-.534.306-.804.287-.561.644-1.258.644-2.038v-.835l-.736.394c-4.887 2.616-8.084 6.179-9.246 10.306l-.116.412.389.178c1.847.843 3.709 2.576 3.709 4.545 0 2.055-.401 2.5-.5 2.5z" fill="#8bb7f0"></path><path d="M25.429 4C30.555 4 34 6.813 34 11v.813l.796.166C37.612 12.565 38 13.297 38 14c0 .963-.939 2-3 2h-9v1c0 .938-.288 4-4 4a4.193 4.193 0 01-1.863-.407c.051-.108.112-.226.164-.327C20.596 19.689 21 18.9 21 18v-1.669l-1.472.788c-5.01 2.681-8.292 6.35-9.491 10.611l-.232.824.779.356C12.284 29.687 14 31.253 14 33c0 .871-.072 1.399-.145 1.71a9.709 9.709 0 01-.271-.429c-.364-.6-.777-1.281-1.597-1.281-.182.002-.372.003-.574.003l-.61-.001L10 33c-.38 0-.95-.364-1.293-.707L8 31.586l-.707.707C6.942 32.644 6.385 33 6 33l-.803.002-.61.001c-.202 0-.392-.001-.59-.003-.804 0-1.217.681-1.581 1.281-.069.114-.167.275-.265.42C2.073 34.367 2 33.823 2 33c0-1.81 1.219-3.29 3.345-4.06l.701-.254-.044-.745c-.004-.074-.002-.147 0-.224l.002-.188c0-7.549 1.558-13.073 4.762-16.886l.436-.519-.321-.598C9.873 7.652 8.412 6.608 7.539 5.985c-.133-.096-.285-.204-.405-.296 1.229-1.079 2.755-1.648 4.419-1.648 1.713 0 3.425.618 4.821 1.739l.491.394.567-.272C20.179 4.587 22.645 4 25.429 4m0-1c-3.005 0-5.632.66-8.429 2-1.595-1.28-3.532-1.959-5.447-1.959-1.845 0-3.67.63-5.148 1.959-.327.293-.508.536-.349.983C6.287 6.631 8.608 7.411 10 10c-3.358 3.996-4.996 9.683-4.996 17.529 0 .171-.009.318 0 .471C2.601 28.87 1 30.677 1 33c0 .723.047 3 1 3 .956 0 1.44-2 1.997-2H4c.186.002.38.003.587.003C5 34.003 5.462 34 6 34c.819 0 1.627-.627 2-1 .313.313 1.149 1 2 1 .538 0 1 .003 1.413.003.207 0 .401-.001.587-.003h.003c.557 0 1.041 2 1.997 2 .969 0 1-2.277 1-3 0-2.139-1.898-4.039-4-5 1.235-4.39 4.683-7.69 9-10 0 1.47-1.579 2.744-.708 3.27.814.492 1.718.73 2.708.73 4.609 0 5-4.01 5-5h8c2.587 0 4-1.452 4-3 0-1.887-1.92-2.567-4-3 0-4.877-4.073-8-9.571-8z" fill="#4e7ab5"></path><circle cx="29.5" cy="10.5" r="1.5" fill="#36404d"></circle></svg>