<svg viewBox="0 0 40 40" xmlns="http://www.w3.org/2000/svg"><path d="M20 38.5C9.799 38.5 1.5 30.201 1.5 20S9.799 1.5 20 1.5 38.5 9.799 38.5 20 30.201 38.5 20 38.5z" fill="#c2e8ff"></path><path d="M20 2c9.925 0 18 8.075 18 18s-8.075 18-18 18S2 29.925 2 20 10.075 2 20 2m0-1C9.507 1 1 9.507 1 20s8.507 19 19 19 19-8.507 19-19S30.493 1 20 1z" fill="#7496c4"></path><path d="M20 38.5c-6.893 0-12.5-8.299-12.5-18.5S13.107 1.5 20 1.5 32.5 9.799 32.5 20 26.893 38.5 20 38.5z" fill="#c2e8ff"></path><path d="M20 2c6.617 0 12 8.075 12 18s-5.383 18-12 18S8 29.925 8 20 13.383 2 20 2m0-1C12.82 1 7 9.507 7 20s5.82 19 13 19 13-8.507 13-19S27.18 1 20 1z" fill="#7496c4"></path><path d="M20 38.5c-2.128 0-4.5-7.598-4.5-18.5S17.872 1.5 20 1.5s4.5 7.598 4.5 18.5-2.372 18.5-4.5 18.5z" fill="#c2e8ff"></path><path d="M20 2c1.358 0 4 6.353 4 18s-2.642 18-4 18-4-6.353-4-18 2.642-18 4-18m0-1c-2.761 0-5 8.507-5 19s2.239 19 5 19 5-8.507 5-19-2.239-19-5-19z" fill="#7496c4"></path><path fill="#7496c4" d="M3.061 12H37l-1.023-1H4.083zM36.939 28H3l1.023 1h31.894z"></path><path d="M4.032 13c-.847 2.155-1.318 4.519-1.318 7s.471 4.845 1.318 7h31.649C36.529 24.845 37 22.481 37 20s-.471-4.845-1.318-7H4.032z" fill="#c2e8ff"></path><g><path d="M12.151 15.929h1.622l-1.885 8.143h-1.781l-1.184-5.224a4.926 4.926 0 01-.114-.914h-.02c-.03.371-.073.676-.129.914l-1.214 5.224H5.59l-1.875-8.143H5.47l1.005 5.423c.043.231.075.541.095.931h.03c.014-.291.061-.609.144-.954l1.293-5.4h1.721l1.169 5.468c.043.2.081.492.114.874h.02c.014-.299.048-.602.104-.909l.986-5.433z" fill="#36404d"></path></g><g><path d="M22.423 21.363a6.663 6.663 0 00-.104.909h-.02a7.567 7.567 0 00-.114-.874l-1.169-5.468h-1.721l-1.293 5.4a5.073 5.073 0 00-.144.954h-.03a7.19 7.19 0 00-.095-.931l-1.005-5.423h-1.756l1.875 8.143h1.856l1.214-5.224c.056-.238.099-.544.129-.914h.02c.014.337.051.642.114.914l1.184 5.224h1.781l1.885-8.143h-1.622l-.985 5.433z" fill="#36404d"></path></g><g><path d="M34.664 15.929l-.985 5.434a6.663 6.663 0 00-.104.909h-.02a7.567 7.567 0 00-.114-.874l-1.169-5.468H30.55l-1.293 5.4a5.073 5.073 0 00-.144.954h-.03a7.19 7.19 0 00-.095-.931l-1.005-5.423h-1.756l1.875 8.143h1.856l1.214-5.224c.056-.238.099-.544.129-.914h.02c.014.337.051.642.114.914l1.184 5.224H34.4l1.885-8.143h-1.621z" fill="#36404d"></path></g></svg>