<svg viewBox="0 0 40 40" xmlns="http://www.w3.org/2000/svg"><path d="M20 34.5c-8.547 0-15.5-6.953-15.5-15.5v-2.5h31V19c0 8.547-6.953 15.5-15.5 15.5z" fill="#dcd5f2"></path><path d="M35 17v2c0 8.271-6.729 15-15 15S5 27.271 5 19v-2h30m1-1H4v3c0 8.837 7.163 16 16 16s16-7.163 16-16v-3z" fill="#8b75a1"></path><path d="M20 18a7 7 0 00-7 7v7.3c2.103 1.079 4.478 1.7 7 1.7s4.897-.621 7-1.7V25a7 7 0 00-7-7z" fill="#a59dd1"></path><path d="M20 28.5c-1.93 0-3.5-1.57-3.5-3.5s1.57-3.5 3.5-3.5 3.5 1.57 3.5 3.5-1.57 3.5-3.5 3.5z" fill="#dcd5f2"></path><path d="M20 22c1.654 0 3 1.346 3 3s-1.346 3-3 3-3-1.346-3-3 1.346-3 3-3m0-1a4 4 0 100 8 4 4 0 000-8z" fill="#8b75a1"></path><path d="M18.5 25a1.5 1.5 0 011.5-1.5" fill="none" stroke="#fff" stroke-miterlimit="10"></path><g><path d="M2.335 16.5C1.921 15.437.574 11.532.503 5.5h38.994c-.071 6.034-1.418 9.938-1.832 11H2.335z" fill="#c2e8ff"></path><path d="M38.988 6c-.125 5.182-1.192 8.681-1.669 10H2.681c-.477-1.32-1.544-4.82-1.669-10h37.976M40 5H0c0 7.617 2 12 2 12h36s2-4.381 2-12z" fill="#7496c4"></path></g><g fill="#8bb7f0"><path d="M26 9H1.206c.035.344.071.678.113 1H26V9zM29 9v1h9.681c.041-.322.078-.656.113-1H29z"></path></g></svg>