<svg viewBox="0 0 40 40" xmlns="http://www.w3.org/2000/svg"><path fill="#ba9b48" d="M7.746 17.814l4.634 9.011 8.624-3.54 3.99-11.52-13.451.707z"></path><circle cx="10" cy="31" r="7.5" fill="#ece8f7"></circle><path d="M10 24c3.86 0 7 3.14 7 7s-3.14 7-7 7-7-3.14-7-7 3.14-7 7-7m0-1a8 8 0 100 16 8 8 0 000-16z" fill="#8b75a1"></path><path fill="#8b75a1" d="M9.255 27.001h1.49V35h-1.49z"></path><path d="M12.402 31.558c-1.636 0-2.773-.7-3.381-2.082-1.159-2.635 1.143-4.688 1.644-4.982l9.648-5.707-.007-3.738-.569.081c-.007.001-.735.103-1.654.103-.958 0-1.787-.11-2.397-.321l-.475-.164-.162.476c-.875 2.571-3.66 3.666-3.688 3.677l-.508.194 1.552 3.207-2.116 1.218a4.914 4.914 0 00-.501-.024c-1.436 0-3.018.584-4.412 1.617l-1.788-2.864a6.293 6.293 0 01.26-6.993l4.414-6.121a8.019 8.019 0 014.289-3.011l15.9-4.541 8.762 12.971C36 15.912 35.401 17.581 34.821 19.2c-.931 2.596-1.81 5.049-5.062 6.431-2.97 1.262-13.462 5.019-14.81 5.472-.62.205-1.568.455-2.547.455z" fill="#ffeea3"></path><path d="M28.242 2.161l8.346 12.355c-1.108 1.366-1.68 2.962-2.236 4.512-.893 2.49-1.736 4.843-4.787 6.139-3.016 1.282-13.381 4.99-14.774 5.458-.587.197-1.478.433-2.389.433-1.439 0-2.396-.583-2.924-1.784-.998-2.269 1.026-4.106 1.44-4.349.534-.314 1.483-.875 2.58-1.523l.069-.041c2.89-1.709 6.755-3.998 6.755-3.998l.491-.291V18.5l-.005-2.878-.003-1.149-1.138.16c-.007.001-.704.098-1.583.098-.903 0-1.676-.102-2.235-.294l-.949-.327-.324.95c-.797 2.34-3.368 3.361-3.391 3.37l-1.021.388.476.983 1.113 2.297-1.577.908a5.46 5.46 0 00-.385-.013c-1.39 0-2.899.504-4.267 1.406l-1.505-2.413a5.795 5.795 0 01.237-6.441L8.67 9.424a7.531 7.531 0 014.021-2.823l15.551-4.44M28.665 1L12.416 5.64a8.49 8.49 0 00-4.557 3.2l-4.414 6.121a6.81 6.81 0 00-.278 7.55l2.083 3.338c1.338-1.12 3.005-1.856 4.542-1.856.205 0 .407.013.606.04l2.593-1.492.069-.041-1.518-3.135s3.017-1.146 3.982-3.983c.795.274 1.753.349 2.561.349.969 0 1.723-.108 1.723-.108l.005 2.878s-3.864 2.289-6.754 3.998v.001l-.07.04a1530.24 1530.24 0 01-2.578 1.522c-.827.486-3.088 2.798-1.848 5.614.813 1.847 2.348 2.381 3.839 2.381.999 0 1.978-.24 2.708-.485 1.508-.507 11.877-4.224 14.846-5.486 5.742-2.44 4.563-8.15 7.897-11.485L28.665 1z" fill="#ba9b48"></path><path d="M14.023 29.456l-1.65-3.808c-.258.112-.711.356-.711.356a2.075 2.075 0 101.65 3.808s.453-.244.711-.356z" fill="#e8d47b"></path></svg>