<svg viewBox="0 0 40 40" xmlns="http://www.w3.org/2000/svg"><path fill="#ffc49c" d="M6.5 2.5h27v35h-27z"></path><path d="M33 3v34H7V3h26m1-1H6v36h28V2z" fill="#a16a4a"></path><path fill="#735f63" d="M8.5 4.5h23v33h-23z"></path><path d="M31 5v32H9V5h22m1-1H8v34h24V4z" fill="#4d3e40"></path><path fill="#4f4144" d="M20 5h5v32h-5z"></path><path fill="#ffc49c" d="M17.854 39.5L8.5 37.592V3.37L17.928.5H19.5v39z"></path><path d="M19 1v38h-1.046L9 37.183V3.741L18.003 1H19m1-1h-2.146L8 3v35l9.854 2H20V0z" fill="#a16a4a"></path><path fill="#ffd7bd" d="M18 1h1v38h-1z"></path><g><ellipse cx="16.5" cy="20" rx=".5" ry="1" fill="#a16a4a"/></g></svg>