<svg viewBox="0 0 40 40" xmlns="http://www.w3.org/2000/svg"><path fill="#735f63" d="M8.5 2.5h23v35h-23z"></path><path d="M31 3v34H9V3h22m1-1H8v36h24V2z" fill="#4d3e40"></path><path fill="#4f4144" d="M20 3h5v34h-5z"></path><path fill="#ffc49c" d="M17.854 39.5L8.5 37.592V2.409L17.954.49 19.5.498V39.5z"></path><path d="M19 1v38h-1.046L9 37.183V2.817L17.954 1H19m1-1h-2.146L8 2v36l9.854 2H20V0z" fill="#a16a4a"></path><path fill="#ffd7bd" d="M18 1h1v38h-1z"></path><ellipse cx="16.5" cy="20" rx=".5" ry="1" fill="#a16a4a"/><g fill="none" stroke="#f78f8f" stroke-miterlimit="10"><path d="M36.773 27.827a18.577 18.577 0 00-.005-15.653M3.232 12.175a18.573 18.573 0 00-.005 15.653"></path></g><g fill="none" stroke="#f78f8f" stroke-miterlimit="10"><path d="M34.053 26.558a15.564 15.564 0 00-.004-13.114M5.951 13.444a15.56 15.56 0 00-.004 13.114"></path></g></svg>