<svg viewBox="0 0 40 40" xmlns="http://www.w3.org/2000/svg"><path d="M14 38.5c-1.93 0-3.5-1.57-3.5-3.5V20c0-1.93 1.57-3.5 3.5-3.5h6c3.033 0 5.5-2.467 5.5-5.5S23.033 5.5 20 5.5s-5.5 2.467-5.5 5.5v.5c0 1.103-.897 2-2 2s-2-.897-2-2V11c0-5.238 4.262-9.5 9.5-9.5s9.5 4.262 9.5 9.5v24c0 1.93-1.57 3.5-3.5 3.5H14z" fill="#f78f8f"></path><path d="M20 2c4.963 0 9 4.037 9 9v24c0 1.654-1.346 3-3 3H14c-1.654 0-3-1.346-3-3V20c0-1.654 1.346-3 3-3h6c3.308 0 6-2.692 6-6s-2.692-6-6-6-6 2.692-6 6v.5c0 .827-.673 1.5-1.5 1.5s-1.5-.673-1.5-1.5V11c0-4.963 4.037-9 9-9m0-1c-5.523 0-10 4.477-10 10v.5a2.5 2.5 0 105 0V11a5 5 0 115 5h-6a4 4 0 00-4 4v15a4 4 0 004 4h12a4 4 0 004-4V11c0-5.523-4.477-10-10-10z" fill="#c74343"></path></svg>