<svg viewBox="0 0 40 40" xmlns="http://www.w3.org/2000/svg"><path fill="#b08159" d="M6.5 1.5h27v37h-27z"></path><path d="M33 2v36H7V2h26m1-1H6v38h28V1z" fill="#704e34"></path><path fill="#d6aa70" d="M22.5 5.5h7v13h-7z"></path><path d="M29 6v12h-6V6h6m1-1h-8v14h8V5z" fill="#8c6a3f"></path><path fill="#d6aa70" d="M10.5 5.5h7v13h-7z"></path><path d="M17 6v12h-6V6h6m1-1h-8v14h8V5z" fill="#8c6a3f"></path><g><path fill="#d6aa70" d="M22.5 23.5h7v11h-7z"></path><path d="M29 24v10h-6V24h6m1-1h-8v12h8V23z" fill="#8c6a3f"></path></g><g><path fill="#d6aa70" d="M10.5 23.5h7v11h-7z"></path><path d="M17 24v10h-6V24h6m1-1h-8v12h8V23z" fill="#8c6a3f"></path></g><circle cx="30" cy="21" r="1" fill="#ffd7bd"></circle></svg>