<svg viewBox="0 0 40 40" xmlns="http://www.w3.org/2000/svg"><path fill="#8bb7f0" d="M1.699 9.107l1.758-2.409L20 18.696 36.543 6.698l1.758 2.409L20 22.379z"></path><path d="M36.433 7.395l1.168 1.602L20 21.762 2.399 8.997l1.168-1.602 15.846 11.492.587.426.587-.426L36.433 7.395M36.653 6L20 18.078 3.347 6 1 9.218l19 13.779L39 9.218 36.653 6z" fill="#4e7ab5"></path><g><path fill="#8bb7f0" d="M1.699 20.104l1.758-2.411L20 29.696l16.543-12.003 1.758 2.411L20 33.382z"></path><path d="M36.433 18.391l1.169 1.603L20 32.765 2.399 19.994l1.169-1.603 15.845 11.497.587.426.587-.426 15.846-11.497m.22-1.395L20 29.079 3.347 16.996 1 20.215 20 34l19-13.785-2.347-3.219z" fill="#4e7ab5"></path></g></svg>