<svg viewBox="0 0 40 40" xmlns="http://www.w3.org/2000/svg"><path fill="#8bb7f0" d="M20 21.304L3.457 33.302l-1.758-2.409L20 17.621l18.301 13.272-1.758 2.409z"></path><path d="M20 18.238l17.601 12.765-1.168 1.602-15.846-11.492-.587-.426-.587.426L3.567 32.605l-1.168-1.602L20 18.238m0-1.235L1 30.782 3.347 34 20 21.922 36.653 34 39 30.782 20 17.003z" fill="#4e7ab5"></path><g><path fill="#8bb7f0" d="M20 10.304L3.457 22.307l-1.758-2.411L20 6.618l18.301 13.278-1.758 2.411z"></path><path d="M20 7.235l17.601 12.771-1.169 1.603-15.845-11.497L20 9.686l-.587.426L3.567 21.609l-1.169-1.603L20 7.235M20 6L1 19.785l2.347 3.219L20 10.921l16.653 12.083L39 19.785 20 6z" fill="#4e7ab5"></path></g></svg>