<svg viewBox="0 0 40 40" xmlns="http://www.w3.org/2000/svg"><path fill="#8bb7f0" d="M6.697 36.543L18.695 20 6.697 3.457l2.41-1.758L22.38 20 9.107 38.301z"></path><path d="M8.997 2.399L21.762 20 8.997 37.601l-1.602-1.168 11.492-15.846.426-.587-.426-.587L7.395 3.567l1.602-1.168M9.218 1L6 3.347 18.078 20 6 36.653 9.218 39l13.78-19L9.218 1z" fill="#4e7ab5"></path><g><path fill="#8bb7f0" d="M17.692 36.542L29.697 20 17.692 3.458l2.412-1.759L33.382 20 20.104 38.301z"></path><path d="M19.994 2.399L32.765 20 19.994 37.601l-1.603-1.169 11.497-15.845.426-.587-.426-.587L18.391 3.567l1.603-1.168M20.215 1l-3.219 2.347L29.079 20 16.996 36.653 20.215 39 34 20 20.215 1z" fill="#4e7ab5"></path></g></svg>