<svg viewBox="0 0 40 40" xmlns="http://www.w3.org/2000/svg"><path d="M20 34.5c-5.238 0-9.5-4.262-9.5-9.5s4.262-9.5 9.5-9.5 9.5 4.262 9.5 9.5-4.262 9.5-9.5 9.5z" fill="#8bb7f0"></path><path d="M20 16c4.963 0 9 4.037 9 9s-4.037 9-9 9-9-4.037-9-9 4.037-9 9-9m0-1c-5.523 0-10 4.477-10 10s4.477 10 10 10 10-4.477 10-10-4.477-10-10-10z" fill="#4e7ab5"></path><path d="M20 11c-6.139 0-11.343 3.958-13.231 9.456l.948.325C9.473 15.681 14.31 12 20 12s10.527 3.681 12.284 8.782l.948-.325C31.343 14.958 26.139 11 20 11z" fill="#f78f8f"></path><path d="M20 7C12.107 7 5.416 12.089 2.988 19.158l.948.326C6.235 12.813 12.559 8 20 8s13.765 4.813 16.063 11.484l.948-.326C34.584 12.089 27.893 7 20 7z" fill="#f78f8f"></path></svg>