<svg viewBox="0 0 40 40" xmlns="http://www.w3.org/2000/svg"><path d="M1.5 29.286V10.921C1.994 10.128 5.999 4.5 20 4.5c13.993 0 18.001 5.621 18.5 6.421v18.365h-37z" fill="#f78f8f"></path><path d="M20 5c7.673 0 12.2 1.713 14.647 3.15C36.741 9.38 37.7 10.619 38 11.066v17.72H2V11.061C2.672 10.04 6.666 5 20 5m0-1C4.455 4 1 10.786 1 10.786v19h38v-19S35.545 4 20 4z" fill="#c74343"></path><path d="M21.5 14.708c.738-.331 3.022-1.208 6.5-1.208 3.493 0 5.764.868 6.5 1.198v7.796l-13 .012v-7.798z" fill="#dcd5f2"></path><path d="M28 14c3.006 0 5.087.666 6 1.03v6.965l-12 .009v-6.965c.913-.367 2.994-1.039 6-1.039m0-1c-4.467 0-7 1.395-7 1.395v8.611l14-.011v-8.611S32.467 13 28 13z" fill="#8b75a1"></path><path d="M5.5 22.494v-7.795c.74-.33 3.024-1.199 6.5-1.199 3.478 0 5.762.877 6.5 1.208v7.798l-13-.012z" fill="#dcd5f2"></path><path d="M12 14c3.008 0 5.089.673 6 1.039v6.966l-12-.01V15.03c.915-.364 2.995-1.03 6-1.03m0-1c-4.467 0-7 1.384-7 1.384v8.611l14 .011v-8.611S16.467 13 12 13z" fill="#8b75a1"></path><path d="M21.5 8c-.995 0-1.5.813-1.5.813S19.511 8 18.5 8A1.5 1.5 0 0017 9.5c0 1.484 3 3.178 3 3.178s3-1.694 3-3.178A1.5 1.5 0 0021.5 8z" fill="#fff"></path><g><path fill="#f5ce85" d="M34.5 36.5v-3h-29v3h-4v-18h37v18z"></path><path d="M38 19v17h-3v-3H5v3H2V19h36m1-1H1v19h5v-3h28v3h5V18z" fill="#967a44"></path></g></svg>