<svg viewBox="0 0 40 40" xmlns="http://www.w3.org/2000/svg"><path d="M20 38.5C9.799 38.5 1.5 30.201 1.5 20S9.799 1.5 20 1.5 38.5 9.799 38.5 20 30.201 38.5 20 38.5zm0-24.429c-3.269 0-5.929 2.659-5.929 5.929s2.66 5.929 5.929 5.929S25.929 23.27 25.929 20s-2.66-5.929-5.929-5.929z" fill="#bae0bd"></path><path d="M20 2c9.925 0 18 8.075 18 18s-8.075 18-18 18S2 29.925 2 20 10.075 2 20 2m0 24.429c3.545 0 6.429-2.884 6.429-6.429S23.545 13.571 20 13.571 13.571 16.455 13.571 20s2.884 6.429 6.429 6.429M20 1C9.507 1 1 9.507 1 20s8.507 19 19 19 19-8.507 19-19S30.493 1 20 1zm0 24.429a5.429 5.429 0 110-10.858 5.429 5.429 0 010 10.858z" fill="#5e9c76"></path><path d="M20 38.5C9.799 38.5 1.5 30.201 1.5 20S9.799 1.5 20 1.5 38.5 9.799 38.5 20 30.201 38.5 20 38.5zm0-24c-3.033 0-5.5 2.468-5.5 5.5s2.467 5.5 5.5 5.5 5.5-2.468 5.5-5.5-2.467-5.5-5.5-5.5z" fill="#bae0bd"></path><path d="M20 2c9.925 0 18 8.075 18 18s-8.075 18-18 18S2 29.925 2 20 10.075 2 20 2m0 24c3.308 0 6-2.692 6-6s-2.692-6-6-6-6 2.692-6 6 2.692 6 6 6m0-25C9.507 1 1 9.507 1 20s8.507 19 19 19 19-8.507 19-19S30.493 1 20 1zm0 24a5 5 0 11.001-10.001A5 5 0 0120 25z" fill="#5e9c76"></path><g><path d="M24.227 23.52a5.46 5.46 0 001.009-5.182l12.834-2.281.073.344c.104.529.187 1.065.243 1.592l.026.297c.06.635.088 1.194.088 1.71a18.512 18.512 0 01-5.07 12.723l-9.203-9.203z" fill="#8bb7f0"></path><path d="M37.68 16.634c.089.469.159.944.21 1.412l.016.173.01.117c.056.618.084 1.163.084 1.664a18.008 18.008 0 01-4.585 12.001l-8.524-8.524a5.95 5.95 0 00.971-4.743l11.818-2.1m.757-1.15l-13.886 2.468c.283.626.449 1.316.449 2.048 0 1.381-.56 2.631-1.464 3.536l9.899 9.899A18.939 18.939 0 0039 20c0-.593-.036-1.177-.089-1.756-.009-.102-.017-.204-.028-.306a19.086 19.086 0 00-.249-1.634c-.021-.105-.044-.208-.066-.312-.037-.173-.089-.338-.131-.508z" fill="#4e7ab5"></path></g><g><path d="M25.478 19.5a5.51 5.51 0 00-4.978-4.978V1.507c9.804.262 17.731 8.189 17.993 17.993H25.478z" fill="#ffc49c"></path><path d="M21 2.027C30.131 2.53 37.47 9.869 37.973 19H25.917A6.017 6.017 0 0021 14.083V2.027M20 1v14a5 5 0 015 5h14C39 9.507 30.493 1 20 1z" fill="#a16a4a"></path></g></svg>