<svg viewBox="0 0 40 40" xmlns="http://www.w3.org/2000/svg"><path d="M20 36.5C9.799 36.5 1.5 29.098 1.5 20 1.5 10.902 9.799 3.5 20 3.5S38.5 10.902 38.5 20c0 9.098-8.299 16.5-18.5 16.5zm0-21c-3.584 0-6.5 2.243-6.5 5s2.916 5 6.5 5 6.5-2.243 6.5-5-2.916-5-6.5-5z" fill="#f5ce85"></path><path d="M20 4c9.925 0 18 7.178 18 16s-8.075 16-18 16S2 28.822 2 20 10.075 4 20 4m0 22c3.86 0 7-2.467 7-5.5S23.86 15 20 15s-7 2.467-7 5.5 3.14 5.5 7 5.5m0-23C9.507 3 1 10.611 1 20s8.507 17 19 17 19-7.611 19-17S30.493 3 20 3zm0 22c-3.314 0-6-2.015-6-4.5s2.686-4.5 6-4.5 6 2.015 6 4.5-2.686 4.5-6 4.5z" fill="#967a44"></path><path d="M20 32.25c-2.763 0-4.53-1.254-6.334-3.137-.921-.962-2.369-1.32-3.769-1.666-2.321-.574-4.326-1.07-4.326-3.895 0-2.709-.999-4.881-1.801-6.625-.661-1.438-1.184-2.573-.825-3.331C5.845 7.463 12.539 3.5 20 3.5c6.871 0 13.139 3.367 16.358 8.788.857 1.443.125 4.552-.464 7.049-.304 1.286-.59 2.5-.67 3.454-.307 3.637-2.607 4.146-5.043 4.685-.876.194-1.781.395-2.559.752-.789.362-1.391.943-2.027 1.56-1.251 1.21-2.546 2.462-5.595 2.462zm0-20.75c-3.584 0-6.5 2.243-6.5 5s2.916 5 6.5 5 6.5-2.243 6.5-5-2.916-5-6.5-5z" fill="#a6714e"></path><path d="M20 4c6.695 0 12.798 3.274 15.929 8.543.754 1.27.047 4.27-.521 6.68-.308 1.304-.598 2.536-.682 3.526-.276 3.269-2.207 3.697-4.652 4.239-.901.2-1.833.406-2.66.785-.867.398-1.527 1.037-2.167 1.655-1.18 1.141-2.401 2.322-5.247 2.322-2.585 0-4.257-1.193-5.973-2.983-1.022-1.066-2.541-1.442-4.01-1.806-2.52-.623-3.946-1.089-3.946-3.408 0-2.819-1.024-5.046-1.847-6.835-.583-1.267-1.086-2.36-.827-2.908C6.214 7.851 12.731 4 20 4m0 18c3.86 0 7-2.467 7-5.5S23.86 11 20 11s-7 2.467-7 5.5 3.14 5.5 7 5.5m0-19C12.13 3 5.377 7.281 2.493 13.383c-.961 2.034 2.578 5.201 2.578 10.17 0 5.106 6.016 3.591 8.234 5.905 1.793 1.872 3.693 3.291 6.695 3.291 4.832 0 5.657-3.07 7.831-4.068 2.794-1.282 7.434-.432 7.891-5.849.242-2.868 2.478-8.424 1.066-10.801C33.596 6.659 27.276 3 20 3zm0 18c-3.314 0-6-2.015-6-4.5s2.686-4.5 6-4.5 6 2.015 6 4.5-2.686 4.5-6 4.5z" fill="#7a4f34"></path><path fill="none" stroke="#fff" stroke-linecap="round" stroke-linejoin="round" stroke-miterlimit="10" d="M27.454 9.889l2.725 1.29M17.954 26.175l2.725-.068"></path><path fill="none" stroke="#bae0bd" stroke-linecap="round" stroke-linejoin="round" stroke-miterlimit="10" d="M31.525 16.675l1.368-1.425M8.454 16.675l1.367-1.425"></path><path fill="none" stroke="#f78f8f" stroke-linecap="round" stroke-linejoin="round" stroke-miterlimit="10" d="M11.168 9.889l2.725-1.425"></path><path fill="none" stroke="#ffb5d2" stroke-linecap="round" stroke-linejoin="round" stroke-miterlimit="10" d="M30.168 23.461l-2.704-1.425"></path><g><path fill="none" stroke="#ffeea3" stroke-linecap="round" stroke-linejoin="round" stroke-miterlimit="10" d="M11.168 23.461l1.368-1.425"></path></g><g><path fill="none" stroke="#ffeea3" stroke-linecap="round" stroke-linejoin="round" stroke-miterlimit="10" d="M19.311 9.889l1.368-1.425"></path></g></svg>