<svg viewBox="0 0 40 40" xmlns="http://www.w3.org/2000/svg"><path fill="#e8d47b" d="M1.5 35.5v-31h10.293l3 3H38.5v28z"></path><path d="M11.586 5l2.707 2.707.293.293H38v27H2V5h9.586M12 4H1v32h38V7H15l-3-3z" fill="#ba9b48"></path><path fill="#ffeea3" d="M1.5 35.5v-26h10.651l3-2H38.5v28z"></path><path d="M38 8v27H2V10h10.303l.252-.168L15.303 8H38m1-1H15l-3 2H1v27h38V7z" fill="#ba9b48"></path><path fill="#ffeea3" d="M9 33h22l-3 3H12z"></path><path fill="#c74343" d="M19 32V18h2v14h6l-7 7-7-7z"></path><path fill="#ffeea3" d="M25 7h14v14H25z"></path><path d="M35 7a4 4 0 004 4V7h-4z" fill="#c74343"></path><path d="M39 14.5A7.5 7.5 0 0131.5 7M39 18.5c-6.351 0-11.5-5.149-11.5-11.5" fill="none" stroke="#c74343" stroke-miterlimit="10"></path></svg>