<svg viewBox="0 0 40 40" xmlns="http://www.w3.org/2000/svg"><path fill="#dbb065" d="M1.5 35.5v-31h10.293l3 3H38.5v28z"></path><path d="M11.586 5l2.707 2.707.293.293H38v27H2V5h9.586M12 4H1v32h38V7H15l-3-3z" fill="#967a44"></path><path fill="#f5ce85" d="M1.5 35.5v-26h10.651l3-2H38.5v28z"></path><path d="M38 8v27H2V10h10.303l.252-.168L15.303 8H38m1-1H15l-3 2H1v27h38V7z" fill="#967a44"></path><path fill="#8bb7f0" d="M13 31h14v1H13z"></path><path fill="#4e7ab5" d="M27 31H13v1h14v-1z"></path><g><path fill="#8bb7f0" d="M15.087 24.5H18.5v-7h3v7h3.413L20 30.232z"></path><path d="M21 18v7h2.826L20 29.463 16.174 25H19v-7h2m1-1h-4v7h-4l6 7 6-7h-4v-7z" fill="#4e7ab5"></path></g><g><path fill="#8bb7f0" d="M18 15h4v1h-4z"></path><path fill="#4e7ab5" d="M22 15h-4v1h4v-1z"></path></g><g><path fill="#8bb7f0" d="M18 13h4v1h-4z"></path><path fill="#4e7ab5" d="M22 13h-4v1h4v-1z"></path></g></svg>