<svg viewBox="0 0 40 40" xmlns="http://www.w3.org/2000/svg"><path fill="#bae0bd" d="M4.5 21.5v-8.412L8.351 2.5h23.298L35.5 13.088V21.5z"></path><path d="M31.3 3L35 13.176V21H5v-7.824L8.7 3h22.6m.7-1H8L4 13v9h32v-9L32 2z" fill="#5e9c76"></path><path fill="#99c99e" d="M7 19h26v-5.471L29.899 5H10.101L7 13.529z"></path><path d="M4.5 37.5v-24h10.022c.253 2.799 2.613 5 5.478 5s5.225-2.201 5.478-5H35.5v24h-31z" fill="#bae0bd"></path><path d="M35 14v23H5V14h9.083c.477 2.834 2.949 5 5.917 5s5.439-2.166 5.917-5H35m1-1H25a5 5 0 01-10 0H4v25h32V13z" fill="#5e9c76"></path><g><path fill="#fff" d="M14.96 27.5h3.54v-5h3v5h3.54L20 33.8z"></path><path d="M21 23v5h3l-4 5-4-5h3v-5h2m1-1h-4v5H13.919l1.3 1.625 4 5 .781.976.781-.976 4-5 1.3-1.625H22v-5z" fill="#5e9c76"></path></g></svg>