<svg viewBox="0 0 40 40" xmlns="http://www.w3.org/2000/svg"><path fill="#66798f" d="M31 34h1v5h-1z"></path><path fill="#b0c1d4" d="M6 23h28v1H6z"></path><path fill="#66798f" d="M34 23H6v1h28v-1z"></path><path fill="#f78f8f" d="M19.5 1.5h1v5h-1z"></path><path d="M20 2v4-4m1-1h-2v6h2V1z" fill="#c74343"></path><path fill="#66798f" d="M8 34h1v5H8z"></path><path fill="#e1ebf2" d="M8.5 35.5v-6.387L18.316 8.5H19.5v4.387L8.685 35.5z"></path><path d="M19 9v3.773L9 33.682v-4.456L18.631 9H19m1-1h-2L8 29v7h1l11-23V8z" fill="#a3b7cc"></path><path fill="#e1ebf2" d="M31.315 35.5L20.5 12.887V8.5h1.184L31.5 29.113V35.5z"></path><path d="M21.369 9L31 29.226v4.456L21 12.773V9h.369M22 8h-2v5l11 23h1v-7L22 8z" fill="#a3b7cc"></path><g><path d="M20 12.5c-1.93 0-3.5-1.57-3.5-3.5s1.57-3.5 3.5-3.5 3.5 1.57 3.5 3.5-1.57 3.5-3.5 3.5z" fill="#f78f8f"></path><path d="M20 6c1.654 0 3 1.346 3 3s-1.346 3-3 3-3-1.346-3-3 1.346-3 3-3m0-1a4 4 0 100 8 4 4 0 000-8z" fill="#c74343"></path></g><g><circle cx="20" cy="9" r=".5" fill="#f78f8f"></circle><path d="M20 8a1 1 0 100 2 1 1 0 000-2z" fill="#ab3434"></path></g><g><path fill="#b0c1d4" d="M19.5 20.5h1v6h-1z"></path><path d="M20 21v5-5m1-1h-2v7h2v-7z" fill="#66798f"></path></g></svg>