<svg viewBox="0 0 40 40" xmlns="http://www.w3.org/2000/svg"><path d="M20 38.5c-4.984 0-9.562-3.051-12.245-8.161l-.036-.068-.055-.054c-1.419-1.406-2.636-2.735-3.049-4.513.219.043.479.089.771.131l.706.103-.145-.698A20.987 20.987 0 015.5 21c0-.478.029-.947.06-1.415l.007-.103-.034-.097c-.746-2.121-.959-4.273-1.015-5.58.395.171.928.377 1.565.561l.451.13.159-.441C8.642 8.626 12.69 4.783 17.52 3.774l.114-.023.091-.071c1.496-1.166 2.926-1.948 3.874-2.136.098.444.28 1.159.572 1.929l.097.254.266.057c4.403.939 8.267 4.37 10.334 9.176l.159.369.395-.076a16.583 16.583 0 002.067-.535c-.068 2.162-.445 3.365-.843 4.631-.099.317-.199.634-.294.967l-.027.096.012.1c.111.944.163 1.735.163 2.488 0 1.247-.119 2.526-.353 3.802l-.089.483.481.098c.339.068.638.102.878.116-.332 1.117-1.612 2.722-2.823 4.176l-.04.047-.026.055C29.934 35.158 25.133 38.5 20 38.5z" fill="#e67aa5"></path><path d="M21.233 2.164c.109.422.263.941.469 1.486l.193.51.533.114c4.245.905 7.976 4.226 9.979 8.884l.318.739.79-.152a17.341 17.341 0 001.438-.34c-.118 1.67-.444 2.709-.785 3.795-.101.321-.202.643-.298.98l-.055.193.024.199c.11.924.161 1.696.161 2.428 0 1.218-.116 2.467-.345 3.712l-.178.966.963.195c.092.018.181.035.266.049-.565 1.115-1.811 2.611-2.496 3.434l-.079.095-.053.111C29.567 34.766 24.939 38 20 38c-4.795 0-9.207-2.951-11.802-7.894l-.072-.136-.11-.109c-1.149-1.139-2.159-2.221-2.679-3.527l1.388.202-.289-1.398A20.561 20.561 0 016 21c0-.46.028-.916.059-1.382l.014-.205-.069-.193c-.593-1.686-.84-3.396-.94-4.659.266.097.561.194.88.287l.902.26.317-.883c1.89-5.264 5.8-8.988 10.458-9.96l.227-.047.183-.143c1.366-1.066 2.46-1.652 3.202-1.911M22 1c-1.103 0-2.85.934-4.583 2.285-5.045 1.053-9.225 5.114-11.195 10.601C4.864 13.494 4 13 4 13c0 1.438.184 4.059 1.061 6.552A21.62 21.62 0 005 21c0 1.499.17 2.948.458 4.341-.871-.127-1.458-.29-1.458-.29.241 2.311 1.663 3.886 3.312 5.521C9.968 35.629 14.65 39 20 39c5.55 0 10.385-3.627 12.979-9.005C34.583 28.068 36 26.245 36 25c0 0-.092.009-.254.009-.238 0-.628-.02-1.107-.117A21.55 21.55 0 0035 21c0-.867-.069-1.712-.167-2.546C35.348 16.649 36 15.306 36 12c0 0-1.066.453-2.673.762-2.105-4.894-6.021-8.471-10.689-9.467A13.264 13.264 0 0122 1z" fill="#a63561"></path><path d="M20 35.5c-6.341 0-11.5-6.505-11.5-14.5S13.659 6.5 20 6.5 31.5 13.005 31.5 21 26.341 35.5 20 35.5z" fill="#ffedf4"></path><path d="M20 7c6.065 0 11 6.28 11 14s-4.935 14-11 14S9 28.72 9 21 13.935 7 20 7m0-1C13.373 6 8 12.716 8 21s5.373 15 12 15 12-6.716 12-15S26.627 6 20 6z" fill="#a63561"></path><circle cx="18.5" cy="10.5" r=".5" fill="#36404d"></circle><circle cx="20.5" cy="12.5" r=".5" fill="#36404d"></circle><circle cx="17.5" cy="13.5" r=".5" fill="#36404d"></circle><circle cx="19.5" cy="15.5" r=".5" fill="#36404d"></circle><circle cx="22.5" cy="14.5" r=".5" fill="#36404d"></circle><circle cx="24.5" cy="12.5" r=".5" fill="#36404d"></circle><circle cx="24.5" cy="17.5" r=".5" fill="#36404d"></circle><circle cx="26.5" cy="17.5" r=".5" fill="#36404d"></circle><circle cx="16.5" cy="16.5" r=".5" fill="#36404d"></circle><circle cx="13.5" cy="13.5" r=".5" fill="#36404d"></circle><circle cx="11.5" cy="17.5" r=".5" fill="#36404d"></circle><circle cx="14.5" cy="18.5" r=".5" fill="#36404d"></circle><circle cx="20.5" cy="18.5" r=".5" fill="#36404d"></circle><circle cx="17.5" cy="20.5" r=".5" fill="#36404d"></circle><circle cx="22.5" cy="20.5" r=".5" fill="#36404d"></circle><circle cx="26.5" cy="20.5" r=".5" fill="#36404d"></circle><circle cx="28.5" cy="23.5" r=".5" fill="#36404d"></circle><circle cx="24.5" cy="23.5" r=".5" fill="#36404d"></circle><circle cx="20.5" cy="22.5" r=".5" fill="#36404d"></circle><circle cx="15.5" cy="21.5" r=".5" fill="#36404d"></circle><circle cx="12.5" cy="20.5" r=".5" fill="#36404d"></circle><circle cx="11.5" cy="23.5" r=".5" fill="#36404d"></circle><circle cx="14.5" cy="24.5" r=".5" fill="#36404d"></circle><circle cx="17.5" cy="23.5" r=".5" fill="#36404d"></circle><circle cx="17.5" cy="26.5" r=".5" fill="#36404d"></circle><circle cx="12.5" cy="26.5" r=".5" fill="#36404d"></circle><circle cx="14.5" cy="28.5" r=".5" fill="#36404d"></circle><circle cx="17.5" cy="31.5" r=".5" fill="#36404d"></circle><circle cx="20.5" cy="29.5" r=".5" fill="#36404d"></circle><circle cx="20.5" cy="26.5" r=".5" fill="#36404d"></circle><circle cx="22.5" cy="25.5" r=".5" fill="#36404d"></circle><circle cx="26.5" cy="25.5" r=".5" fill="#36404d"></circle><circle cx="26.5" cy="28.5" r=".5" fill="#36404d"></circle><circle cx="23.5" cy="28.5" r=".5" fill="#36404d"></circle><circle cx="23.5" cy="31.5" r=".5" fill="#36404d"></circle><circle cx="20.5" cy="32.5" r=".5" fill="#36404d"></circle><circle cx="17.5" cy="29.5" r=".5" fill="#36404d"></circle></svg>