<svg viewBox="0 0 40 40" xmlns="http://www.w3.org/2000/svg"><path d="M28.144 16.5c-4.428 0-7.383-2.496-8.448-3.569-1.103-1.111-1.455-1.92-1.465-2.108l.004.001c.038 0 .279-.149 1.181-.149 1.52 0 3.967.404 6.801.873 1.035.171 2.115.35 3.208.518 1.18.182 2.276.334 3.275.474 2.889.404 5.383.752 5.782 1.288-.22 1.599-5.631 2.672-10.338 2.672z" fill="#fff"></path><path d="M19.415 11.174c1.478 0 3.906.402 6.717.866 1.038.172 2.12.351 3.216.519 1.181.182 2.28.335 3.28.475 2.124.297 4.503.629 5.276.992-.713.936-5 1.973-9.761 1.973-4.97 0-8.396-3.361-9.23-4.805.129-.011.293-.02.502-.02m-.001-1c-.935 0-1.535.148-1.667.522C17.428 11.6 21.527 17 28.143 17c3.845 0 10.508-.814 10.849-3.036.198-1.285-3.625-1.49-9.492-2.393-4.077-.627-7.954-1.397-10.086-1.397z" fill="#788b9c"></path><path d="M21.991 12.5c-2.079 0-2.969-.412-3.108-.797.205-.818 5.638-2.771 9.234-4.063l2.948-1.066C34.373 5.37 36.762 4.5 37.927 4.5c.16 0 .436.019.481.143.659 1.823-2.216 4.628-5.031 5.646-3.601 1.302-8.283 2.211-11.386 2.211z" fill="#fff"></path><path d="M37.927 5l.058.001c.094.609-.297 1.462-1.082 2.335-.955 1.063-2.337 1.991-3.696 2.482C29.655 11.103 25.043 12 21.991 12c-1.364 0-2.045-.175-2.369-.311 1.22-.904 5.474-2.433 8.666-3.579l1.477-.532 1.467-.533C34.371 5.902 36.85 5 37.927 5m0-1c-1.428 0-4.343 1.133-8.502 2.637-5.651 2.043-11.46 3.997-11.012 5.236C18.7 12.667 20.08 13 21.991 13c3.239 0 8.002-.956 11.556-2.241 3.052-1.103 6.105-4.145 5.331-6.286-.118-.327-.439-.473-.951-.473z" fill="#788b9c"></path><path d="M20 8.5a3.488 3.488 0 01-2.328-.906l-.167-.15-.333.039c-.056.008-.113.017-.172.017-1.378 0-2.5-1.122-2.5-2.5s1.122-2.5 2.5-2.5c.059 0 .116.009.173.017l.333.039.167-.15c.65-.584 1.476-.906 2.327-.906s1.677.322 2.328.906l.167.15.333-.039c.056-.008.113-.017.172-.017 1.378 0 2.5 1.122 2.5 2.5S24.378 7.5 23 7.5c-.059 0-.116-.009-.173-.017l-.333-.039-.167.15A3.484 3.484 0 0120 8.5z" fill="#dcd5f2"></path><path d="M20 2c.727 0 1.435.276 1.994.778l.334.3.447-.051.119-.015c.035-.004.07-.011.106-.012 1.103 0 2 .897 2 2s-.897 2-1.999 2c-.037-.001-.072-.008-.107-.013l-.119-.015-.447-.051-.334.3C21.435 7.724 20.727 8 20 8s-1.435-.276-1.994-.778l-.334-.3-.447.051-.119.015c-.035.004-.07.011-.106.012-1.103 0-2-.897-2-2s.897-2 1.999-2c.037.001.072.008.107.013l.119.015.447.051.334-.3A2.983 2.983 0 0120 2m0-1a3.97 3.97 0 00-2.662 1.034C17.226 2.021 17.116 2 17 2a3 3 0 100 6c.116 0 .226-.021.338-.034C18.046 8.602 18.973 9 20 9s1.954-.398 2.662-1.034c.112.013.222.034.338.034a3 3 0 100-6c-.116 0-.226.021-.338.034A3.97 3.97 0 0020 1z" fill="#8b75a1"></path><path fill="#c2e8ff" d="M20 38.441l-1.5.75V33.5h3v5.691z"></path><path d="M21 34v4.382l-.553-.276-.447-.224-.447.224-.553.276V34h2m1-1h-4v7l2-1 2 1v-7z" fill="#7496c4"></path><path fill="#c2e8ff" d="M16.61 23.5l.8-4h5.18l.8 4z"></path><path d="M22.18 20l.6 3h-5.56l.6-3h4.36m.82-1h-6l-1 5h8l-1-5z" fill="#7496c4"></path><path fill="#c2e8ff" d="M17.581 27.5l.6-4h3.638l.6 4z"></path><path d="M21.389 24l.45 3h-3.678l.45-3h2.778m.861-1h-4.5L17 28h6l-.75-5z" fill="#7496c4"></path><path fill="#c2e8ff" d="M17.581 31.5l.6-4h3.638l.6 4z"></path><path d="M21.389 28l.45 3h-3.678l.45-3h2.778m.861-1h-4.5L17 32h6l-.75-5z" fill="#7496c4"></path><g><path fill="#c2e8ff" d="M17.581 35.5l.6-4h3.638l.6 4z"></path><path d="M21.389 32l.45 3h-3.678l.45-3h2.778m.861-1h-4.5L17 36h6l-.75-5z" fill="#7496c4"></path></g><g><path d="M11.857 16.5c-4.708 0-10.119-1.073-10.355-2.612.416-.596 2.912-.944 5.801-1.348.998-.14 2.094-.293 3.273-.474 1.096-.168 2.177-.347 3.214-.519 2.832-.468 5.277-.873 6.795-.873 1.034 0 1.199.197 1.201.199-.015.109-.36.927-1.482 2.058-1.065 1.073-4.02 3.569-8.447 3.569z" fill="#fff"></path><path d="M20.586 11.174c.209 0 .373.008.5.02C20.253 12.639 16.827 16 11.857 16c-4.761 0-9.049-1.036-9.761-1.973.772-.363 3.152-.696 5.275-.992 1-.14 2.099-.293 3.281-.475 1.096-.169 2.178-.348 3.216-.519 2.811-.465 5.239-.867 6.718-.867m0-1c-2.132 0-6.009.77-10.086 1.397-5.867.902-9.69 1.107-9.492 2.393C1.349 16.186 8.011 17 11.857 17c6.617 0 10.716-5.4 10.396-6.303-.132-.374-.732-.523-1.667-.523z" fill="#788b9c"></path></g><g><path d="M18.009 12.5c-3.104 0-7.786-.909-11.386-2.211-1.434-.518-2.891-1.497-3.899-2.618-1.01-1.123-1.422-2.227-1.132-3.028.045-.124.321-.143.481-.143 1.165 0 3.554.87 6.86 2.073l2.951 1.067c3.595 1.292 9.028 3.244 9.229 4.105-.136.343-1.025.755-3.104.755z" fill="#fff"></path><path d="M2.073 5c1.077 0 3.555.902 6.692 2.044l1.47.534 1.477.532c3.19 1.146 7.441 2.674 8.664 3.578-.328.138-1.009.312-2.367.312-3.052 0-7.664-.897-11.216-2.181-1.36-.492-2.742-1.42-3.697-2.483-.784-.872-1.176-1.726-1.081-2.335L2.073 5m0-1c-.512 0-.833.146-.951.473-.774 2.141 2.279 5.183 5.331 6.286C10.006 12.044 14.77 13 18.009 13c1.911 0 3.291-.333 3.578-1.127.448-1.238-5.361-3.192-11.012-5.236C6.416 5.133 3.501 4 2.073 4z" fill="#788b9c"></path></g><g><path fill="#c2e8ff" d="M16.61 19.5l.8-4h5.18l.8 4z"></path><path d="M22.18 16l.6 3h-5.56l.6-3h4.36m.82-1h-6l-1 5h8l-1-5z" fill="#7496c4"></path></g><path fill="#dcd5f2" stroke="#8b75a1" stroke-linecap="round" stroke-miterlimit="10" d="M22.5 2.5l-1 1M17.5 2.5l1 1"></path><g><path d="M16.64 15.5l.786-3.142-.154-.193A3.454 3.454 0 0116.5 10c0-1.93 1.57-3.5 3.5-3.5s3.5 1.57 3.5 3.5c0 .781-.267 1.53-.772 2.165l-.154.193.786 3.142h-6.72z" fill="#c2e8ff"></path><path d="M20 7c1.654 0 3 1.346 3 3 0 .667-.229 1.308-.664 1.854l-.307.386.12.479.57 2.281h-5.438l.57-2.281.12-.479-.307-.386A2.955 2.955 0 0117 10c0-1.654 1.346-3 3-3m0-1a4 4 0 00-4 4c0 .94.338 1.793.881 2.476L16 16h8l-.881-3.524A3.963 3.963 0 0024 10a4 4 0 00-4-4z" fill="#7496c4"></path></g></svg>