<svg viewBox="0 0 40 40" xmlns="http://www.w3.org/2000/svg"><path d="M39.5 18.597c-.989-1.992-2.564-3.097-4.5-3.097h-1.5v-3H35c2.586 0 4.469 2.559 4.5 6.097z" fill="#dcd5f2"></path><path d="M35 13c1.802 0 3.219 1.444 3.761 3.634C37.756 15.571 36.475 15 35 15h-1v-2h1m0-1h-2v4h2c2.433 0 4.039 1.942 4.729 4.699A8.27 8.27 0 0040 18.683C40 14.936 37.998 12 35 12z" fill="#8b75a1"></path><path d="M36.5 21.35c1.261-.509 2.297-1.477 2.999-2.776l.001.11c0 2.541-1.157 4.649-3 5.573V21.35z" fill="#8b75a1"></path><path d="M38.805 20.375c-.299 1.244-.931 2.284-1.805 2.973v-1.671a6.158 6.158 0 001.805-1.302m.914-3.748C39.155 18.83 37.797 20.412 36 21v4c2.337-.757 4-3.158 4-6.317 0-.721-.114-1.403-.281-2.056z" fill="#8b75a1"></path><path d="M.5 18.597C.531 15.059 2.414 12.5 5 12.5h1.5v3H5c-1.936 0-3.511 1.105-4.5 3.097z" fill="#dcd5f2"></path><path d="M6 13v2H5c-1.475 0-2.756.571-3.761 1.634C1.781 14.444 3.198 13 5 13h1m1-1H5c-2.998 0-5 2.936-5 6.683 0 .707.111 1.375.271 2.015C.961 17.942 2.567 16 5 16h2v-4z" fill="#8b75a1"></path><path d="M3.5 24.256c-1.843-.924-3-3.032-3-5.573l.001-.11c.702 1.299 1.738 2.267 2.999 2.776v2.907z" fill="#8b75a1"></path><path d="M1.195 20.375A6.158 6.158 0 003 21.677v1.671c-.874-.689-1.506-1.729-1.805-2.973m-.914-3.748A8.248 8.248 0 000 18.683c0 3.158 1.663 5.56 4 6.317v-4C2.203 20.412.845 18.83.281 16.627z" fill="#8b75a1"></path><path d="M20 38.5c-3.882 0-14.5-8.22-14.5-14.5V5.261C6.538 4.567 11.606 1.5 20 1.5s13.462 3.067 14.5 3.761V24c0 6.443-10.513 14.5-14.5 14.5z" fill="#ffeea3"></path><path d="M20 2c7.773 0 12.634 2.67 14 3.532V24c0 6.063-10.252 14-14 14-3.65 0-14-8.097-14-14V5.53C7.36 4.665 12.189 2 20 2m0-1C10.28 1 5 5 5 5v19c0 6.676 10.938 15 15 15s15-8.191 15-15V5s-5.28-4-15-4z" fill="#f5c276"></path><g><path d="M20 1C10.28 1 5 5 5 5v19c0 6.676 10.938 15 15 15V1z" fill="#f5c276"></path></g><g><path d="M27.094 28.01C25.67 27.397 23.062 26.5 20 26.5s-5.67.897-7.094 1.51c.767-1.643 2.731-4.51 7.094-4.51s6.327 2.867 7.094 4.51z" fill="#b08159"></path><path d="M20 24c3.149 0 4.965 1.603 5.96 3.038C24.439 26.514 22.348 26 20 26s-4.439.514-5.96 1.038C15.036 25.602 16.852 24 20 24m0-1c-6.463 0-8 6-8 6s3.531-2 8-2 8 2 8 2-1.537-6-8-6z" fill="#a16a4a"></path></g><g><path d="M30.364 15.861C29.383 15.244 27.651 14.5 25 14.5h-1.176c.495-.797 1.517-2 3.176-2 2.314 0 3.099 2.023 3.364 3.361z" fill="#b08159"></path><path d="M27 13c1.402 0 2.149.916 2.547 1.874C28.469 14.402 26.972 14 25 14h-.165c.5-.525 1.215-1 2.165-1m0-1c-2.809 0-4 3-4 3h2c4.26 0 6 2 6 2s-.086-5-4-5z" fill="#a16a4a"></path></g><g><path d="M9.639 15.859C9.907 14.521 10.695 12.5 13 12.5c1.659 0 2.681 1.203 3.176 2H15c-2.648 0-4.379.742-5.361 1.359z" fill="#b08159"></path><path d="M13 13c.951 0 1.666.475 2.166 1H15c-1.972 0-3.469.402-4.547.874C10.851 13.916 11.598 13 13 13m0-1c-3.914 0-4 5-4 5s1.74-2 6-2h2s-1.191-3-4-3z" fill="#a16a4a"></path></g></svg>