<svg viewBox="0 0 40 40" xmlns="http://www.w3.org/2000/svg"><path d="M20 38.5C9.799 38.5 1.5 30.201 1.5 20S9.799 1.5 20 1.5 38.5 9.799 38.5 20 30.201 38.5 20 38.5z" fill="#ffb5d2"></path><path d="M20 2c9.925 0 18 8.075 18 18s-8.075 18-18 18S2 29.925 2 20 10.075 2 20 2m0-1C9.507 1 1 9.507 1 20s8.507 19 19 19 19-8.507 19-19S30.493 1 20 1z" fill="#ea4c89"></path><path d="M28.352 36.914S25.32 15.827 12.722 2.622M1.269 17.848s24.2 2.117 32.075-11.102M7.804 34.152s8.624-19.807 31.058-12.194" fill="none" stroke="#ea4c89" stroke-miterlimit="10"></path></svg>