<svg viewBox="0 0 40 40" xmlns="http://www.w3.org/2000/svg"><path d="M9.404 38.5l-3.335-.463c-1.436-.173-2.592-.954-3.18-2.144a3.662 3.662 0 01.134-3.494C5.343 28.467 10.255 24.5 16 24.5h8c5.734 0 10.648 3.966 12.974 7.896.664 1.122.718 2.467.144 3.6-.585 1.155-1.739 1.898-3.167 2.039l-3.389.465H9.404z" fill="#c2e8ff"></path><path d="M24 25c5.537 0 10.29 3.843 12.544 7.651.576.974.624 2.14.128 3.12-.514 1.014-1.498 1.642-2.808 1.772L30.528 38H9.472l-3.352-.461c-1.257-.152-2.271-.832-2.783-1.868a3.163 3.163 0 01.117-3.018C5.701 28.844 10.452 25 16 25h8m0-1h-8c-5.623 0-10.767 3.669-13.407 8.145-1.523 2.58.032 5.98 3.407 6.387L9.404 39h21.192L34 38.533c3.5-.346 4.932-3.812 3.404-6.391C34.756 27.667 29.598 24 24 24z" fill="#7496c4"></path><path fill="#c2e8ff" d="M30.656 36.286H9.516L9.404 39h21.192z"></path><path d="M12.536 39c-.822-.78-1.286-1.656-1.286-2.5 0-.784.403-1.597 1.119-2.335l4.114 2.743a1.764 1.764 0 00-.234.842c0 .458.198.881.52 1.25h6.46c.322-.369.52-.792.52-1.25 0-.297-.091-.578-.234-.842l4.114-2.743c.717.738 1.119 1.55 1.119 2.335 0 .844-.464 1.72-1.286 2.5h3.132c.416-.783.654-1.622.654-2.5 0-4.142-5.037-7.5-11.25-7.5S8.75 32.358 8.75 36.5c0 .878.238 1.717.654 2.5h3.132zM20 31.5c2.118 0 3.966.449 5.416 1.137l-4.153 2.769c-.396-.095-.818-.156-1.263-.156s-.867.061-1.263.156l-4.153-2.769c1.45-.688 3.298-1.137 5.416-1.137z" fill="#66798f"></path><g><path d="M20 27.5c-3.076 0-4.297-2.626-4.5-3.123V19.91h9v4.468c-.203.496-1.424 3.122-4.5 3.122z" fill="#e8d47b"></path><path d="M24 20.41v3.865c-.263.59-1.393 2.725-4 2.725-2.611 0-3.741-2.141-4-2.725V20.41h8m1-1H15v5.062s1.267 3.529 5 3.529 5-3.529 5-3.529V19.41z" fill="#ba9b48"></path><path d="M26.429 17.643c-1.143 0-2.072-.929-2.072-2.071s.929-2.071 2.072-2.071c1.725 0 2.071.465 2.071 1.214 0 1.251-1.024 2.928-2.071 2.928zm-12.858 0c-1.047 0-2.071-1.677-2.071-2.928 0-.75.347-1.214 2.071-1.214 1.143 0 2.072.929 2.072 2.071s-.929 2.071-2.072 2.071z" fill="#e8d47b"></path><path d="M26.429 14C28 14 28 14.363 28 14.714c0 1.044-.896 2.429-1.571 2.429a1.572 1.572 0 010-3.143m-12.858 0c.867 0 1.571.705 1.571 1.571s-.705 1.571-1.571 1.571c-.676 0-1.571-1.384-1.571-2.429 0-.35 0-.713 1.571-.713m12.858-1a2.57 2.57 0 100 5.142c1.42 0 2.571-2.008 2.571-3.429S27.849 13 26.429 13zm-12.858 0c-1.42 0-2.571.294-2.571 1.714s1.151 3.429 2.571 3.429a2.57 2.57 0 100-5.143z" fill="#ba9b48"></path><g><path d="M20 24.5c-.58 0-1.134-.224-1.56-.631l-.09-.086-.12-.034a6.52 6.52 0 01-4.73-6.25V9.364a2.839 2.839 0 012.836-2.836h7.328A2.839 2.839 0 0126.5 9.364V17.5a6.52 6.52 0 01-4.73 6.25l-.12.034-.09.086c-.426.406-.98.63-1.56.63z" fill="#ffeea3"></path><path d="M23.664 7.028A2.339 2.339 0 0126 9.364V17.5a6.017 6.017 0 01-4.367 5.768l-.239.068-.18.172c-.332.317-.763.492-1.214.492s-.882-.175-1.215-.492l-.18-.172-.239-.068A6.017 6.017 0 0114 17.5V9.364a2.339 2.339 0 012.336-2.336h7.328m0-1h-7.328A3.336 3.336 0 0013 9.364V17.5c0 3.205 2.156 5.9 5.095 6.731.496.474 1.165.769 1.905.769s1.409-.295 1.905-.769A6.998 6.998 0 0027 17.5V9.364a3.336 3.336 0 00-3.336-3.336z" fill="#ba9b48"></path></g><g><path d="M26.5 15.5V12c0-3.483-2.217-4.425-2.312-4.463l-.343-.139-.234.288C23.589 7.713 21.283 10.5 18 10.5c-.264 0-.529-.009-.791-.017-.265-.008-.526-.017-.778-.017-.877 0-2.931 0-2.931 2.534v2.5h-.214c-.44-.773-1.786-3.349-1.786-5.924C11.5 4.821 14.995 1.5 20 1.5c3.078 0 4.499 2.621 4.557 2.732l.119.225.253.038C26.462 4.714 28.5 5.524 28.5 10c0 2.329-1.338 4.761-1.779 5.5H26.5z" fill="#ffc49c"></path><path d="M20 2c2.762 0 4.062 2.367 4.114 2.463l.237.454.507.073C26.321 5.199 28 5.958 28 10c0 1.395-.515 2.842-1 3.894V12c0-3.816-2.516-4.883-2.623-4.926l-.687-.279-.467.577C23.201 7.397 21.06 10 18 10c-.259 0-.519-.008-.775-.017a24.11 24.11 0 00-.794-.017c-.849 0-3.431 0-3.431 3.034v.807c-.486-1.122-1-2.676-1-4.23C12 5.115 15.29 2 20 2m0-1c-5.36 0-9 3.667-9 8.576C11 12.828 13 16 13 16h1v-3c0-1.791 1.085-2.034 2.431-2.034.501 0 1.038.034 1.569.034 3.573 0 6-3 6-3s2 .813 2 4v4h1s2-3.037 2-6c0-4.161-1.703-5.671-4-6 0 0-1.566-3-5-3z" fill="#a16a4a"></path></g></g></svg>