<svg viewBox="0 0 40 40" xmlns="http://www.w3.org/2000/svg"><circle cx="19.991" cy="20" r="18.5" fill="none" stroke="#a3b7cc" stroke-miterlimit="10" stroke-dasharray="3,2"></circle><circle cx="20" cy="13" r="2.5" fill="#ffeea3"></circle><path d="M20 11c1.103 0 2 .897 2 2s-.897 2-2 2-2-.897-2-2 .897-2 2-2m0-1a3.001 3.001 0 000 6 3.001 3.001 0 000-6z" fill="#ba9b48"></path><path d="M16.5 27.5v-1.569l-1.438-5.129-4.653-3.189a1.56 1.56 0 01-.437-.435l-3.227-4.282a1.536 1.536 0 01-.215-1.145c.082-.407.317-.759.663-.989a1.555 1.555 0 012.157.432l3.051 4.008 3.447 2.298h8.303l3.447-2.298 3.033-3.983a1.574 1.574 0 011.313-.719c.307 0 .604.09.862.262.345.23.581.582.662.989a1.55 1.55 0 01-.231 1.168l-3.194 4.235a1.59 1.59 0 01-.448.454l-4.724 3.193-1.371 5.133V27.5h-7z" fill="#99c99e"></path><path d="M8.053 11c.355 0 .684.176.881.471l.017.026.019.025 2.983 3.917.102.133.139.093 3.251 2.167.252.168H24.303l.252-.168 3.251-2.167.139-.093.102-.133 2.983-3.917.019-.025.017-.026a1.053 1.053 0 011.912.378c.054.268.003.542-.144.772l-3.19 4.232-.018.023-.016.024a1.063 1.063 0 01-.298.296l-4.566 3.086-.31.209-.097.361-1.308 4.889-.031.128V27h-6v-1.137l-.037-.132-1.37-4.889-.098-.35-.3-.205-4.514-3.094a1.054 1.054 0 01-.292-.292l-.016-.024-.018-.023-3.19-4.232A1.056 1.056 0 018.053 11m23.892-1c-.664 0-1.315.322-1.711.916l-2.983 3.917L24 17h-8l-3.251-2.167-2.983-3.917a2.056 2.056 0 10-3.421 2.28l3.211 4.259c.151.226.344.42.57.57l4.503 3.086L16 26v2h8v-2l1.308-4.889 4.566-3.086c.226-.151.42-.344.57-.57l3.211-4.259A2.054 2.054 0 0031.945 10z" fill="#5e9c76"></path><g><path d="M16.054 33.5a1.557 1.557 0 01-1.389-2.251l1.688-4.748h7.296l1.679 4.654c.406.821.094 1.758-.673 2.142a1.551 1.551 0 01-2.087-.695l-2.572-3.438-2.504 3.405c-.31.601-.844.931-1.438.931z" fill="#f78f8f"></path><path d="M23.298 27l1.56 4.324.02.055.026.052a1.059 1.059 0 01-.943 1.529c-.403 0-.765-.224-.946-.585l-.04-.081-.054-.072L20.8 29.4l-.808-1.076-.797 1.084-2.105 2.863-.05.069-.04.075a1.051 1.051 0 01-1.416.474 1.058 1.058 0 01-.472-1.417l.027-.055.02-.058L16.706 27h6.592M24 26h-8l-1.783 5.024a2.057 2.057 0 003.678 1.84L20 30l2.12 2.824a2.057 2.057 0 002.758.92 2.056 2.056 0 00.919-2.758L24 26z" fill="#c74343"></path></g></svg>