<svg viewBox="0 0 40 40" xmlns="http://www.w3.org/2000/svg"><path d="M17.964 30.857s1.661 3.185-.679 5.429" fill="none" stroke="#ba9b48" stroke-miterlimit="10"></path><path d="M23.748 38.5c-3.682 0-6.248-1.317-6.248-2.5s2.566-2.5 6.248-2.5c1.295 0 2.545.168 3.614.486 1.15.342 1.146.862 1.139 1.807v.426c.008.925.012 1.435-1.153 1.799-1.012.315-2.257.482-3.6.482z" fill="#ffeea3"></path><path d="M23.747 34c1.247 0 2.448.161 3.472.466.79.235.789.401.782 1.323L28 36l.001.223c.008.902.009 1.064-.802 1.317-.963.301-2.157.46-3.452.46C20.029 38 18 36.679 18 36s2.029-2 5.747-2m0-1C20.02 33 17 34.343 17 36s3.02 3 6.747 3c1.388 0 2.682-.172 3.75-.505C29.13 37.985 29 37.04 29 36c0-1.039.121-2.012-1.495-2.493-1.075-.319-2.367-.507-3.758-.507z" fill="#ba9b48"></path><path d="M21.5 31.503c-3.693 0-7.255-.519-10.587-1.542-2.486-.764-5.257-1.615-7.559-2.784l3.372-.843-.922-1.843c10.267-.234 18.26-4.94 18.679-10.991h5.194c.393.832.984 1.792 1.606 2.803C32.716 18.63 34.5 21.527 34.5 24c0 .614-.028 1.333-.233 2.003-1.016 3.308-5.719 5.415-12.273 5.497l-.494.003z" fill="#f5ce85"></path><path d="M29.365 14c.396.784.932 1.655 1.492 2.565C32.258 18.838 34 21.668 34 24c0 .607-.026 1.251-.211 1.856-.936 3.046-5.568 5.066-11.801 5.144-.162.002-.325.003-.49.003-3.642 0-7.154-.512-10.438-1.52-2.024-.622-4.239-1.302-6.22-2.162l1.403-.351 1.209-.302-.557-1.115-.295-.589c9.89-.449 17.555-5.036 18.335-10.964h4.43M30 13h-6c0 6-8.083 11-19 11l1 2-4 1c2.462 1.482 5.606 2.468 8.766 3.439 3.755 1.153 7.433 1.564 10.732 1.564.168 0 .336-.001.502-.003 6.324-.08 11.593-2.102 12.745-5.85.213-.696.255-1.414.255-2.15 0-3.834-3.842-8.286-5-11z" fill="#967a44"></path><path d="M31.367 29.342c.089-.475.133-.924.133-1.342 0-4.036-3.319-7.72-8.919-9.948 1.139-1.412 1.789-2.966 1.902-4.552h5.194c.393.832.984 1.792 1.606 2.803C32.716 18.63 34.5 21.527 34.5 24c0 .614-.028 1.333-.233 2.003-.399 1.298-1.394 2.439-2.9 3.339z" fill="#d6aa70"></path><path d="M29.365 14c.396.784.932 1.655 1.492 2.564C32.258 18.838 34 21.668 34 24c0 .607-.026 1.251-.211 1.856-.315 1.025-1.009 1.832-1.796 2.452.005-.104.007-.206.007-.308 0-4.099-3.199-7.832-8.63-10.163.857-1.209 1.386-2.507 1.563-3.837h4.432M30 13h-6c0 1.898-.813 3.694-2.264 5.265C27.98 20.547 31 24.288 31 28c0 .795-.172 1.599-.383 2.304 2.088-.979 3.579-2.368 4.128-4.155.213-.695.255-1.413.255-2.149 0-3.834-3.842-8.286-5-11z" fill="#967a44"></path><g><path d="M29.5 9.5c-.487 0-.903-.18-1.27-.551-1.308-1.321-1.54-4.472-1.58-5.641a21.603 21.603 0 011.847-.099c.734 0 1.015.072 1.104.104l.007.013.234.193C30.801 4.308 32.248 5.5 34 5.5c1.212 0 1.725-.335 2.1-.58l.154-.098c.343-.201.675-.304.99-.304.477 0 .892.245 1.111.654.189.353.182.746-.021 1.051C36.95 8.306 34.641 9.5 32 9.5h-2.5z" fill="#ffeea3"></path><path d="M28.498 3.709c.492 0 .744.033.857.056l.011.009.159.13C30.537 4.739 32.067 6 34 6c1.257 0 1.861-.327 2.373-.661.046-.03.09-.059.134-.085.264-.156.512-.235.736-.235.429 0 .622.298.671.39.048.09.146.324.003.538C36.627 7.887 34.471 9 32 9h-2.5c-.352 0-.642-.128-.915-.403-.98-.988-1.325-3.339-1.417-4.831.404-.03.886-.057 1.33-.057m0-1c-1.087 0-2.356.148-2.356.148S26.067 10 29.5 10H32c2.833 0 5.291-1.305 6.75-3.5.672-1.012-.132-2.481-1.507-2.481-.378 0-.798.111-1.243.373-.386.227-.75.608-2 .608-1.667 0-3.066-1.235-4-2-.124-.224-.771-.291-1.502-.291z" fill="#ba9b48"></path></g><g><path d="M24.481 13.5c.013-.173.019-.338.019-.5 0-1.045-.636-1.833-1.251-2.595-.116-.144-.234-.29-.35-.439-.914-.972-1.399-2.19-1.399-3.466 0-.018 0-.093-.002-.111C21.5 3.711 23.711 1.5 26.429 1.5c2.828 0 5.071 2.243 5.071 5 0 1.363-.724 2.497-1.465 3.541-.365.514-.535 1.136-.535 1.959 0 .474.086.962.266 1.5h-5.285z" fill="#bae0bd"></path><path d="M26.523 2A4.506 4.506 0 0131 6.5c0 1.216-.678 2.273-1.373 3.252C29.205 10.346 29 11.081 29 12c0 .326.036.656.11 1H25c0-1.222-.724-2.119-1.362-2.909a27.069 27.069 0 01-.343-.431.932.932 0 00-.065-.076 4.48 4.48 0 01-1.228-3.135L22 6.393a4.434 4.434 0 014.467-4.391h.003L26.523 2M26.5 1l-.036.002L26.429 1A5.428 5.428 0 0021 6.429l.002.028L21 6.5a5.48 5.48 0 001.503 3.771C23.214 11.193 24 11.958 24 13c0 .354-.032.683-.076 1h6.575c-.308-.692-.499-1.348-.499-2 0-.626.105-1.195.442-1.669C31.242 9.204 32 7.99 32 6.5A5.5 5.5 0 0026.5 1z" fill="#5e9c76"></path></g><circle cx="27.5" cy="6.5" r="1.5" fill="#36404d"></circle></svg>