<svg viewBox="0 0 40 40" xmlns="http://www.w3.org/2000/svg"><path fill="#a3b7cc" d="M13 32v5h-1v-5zM24 32v5h-1v-5zM2 32v5H1v-5z"></path><path fill="#a3b7cc" d="M1 34h37v1H1z"></path><path fill="#e1ebf2" d="M35.5 31.123l3.753 3.377-3.753 3.377z"></path><path d="M36 32.245l2.505 2.255L36 36.755v-4.51M35 30v9l5-4.5-5-4.5z" fill="#a3b7cc"></path><path d="M5.5 27.5v-2.014l-.437-.056c-1.404-.179-2.748-.699-3.563-1.066v-2.23c.112.063 2.472 1.366 4.5 1.366 2.5 0 2.5-1.453 2.5-2 0-1.346-1.112-1.88-2.927-2.642C3.758 18.097 1.5 17.149 1.5 14.5c0-.808.257-3.48 3.566-3.922l.434-.058V8.5h1v2.014l.457.04c1.158.1 2.019.352 2.543.549v2.219l-.148-.094C9.204 13.142 8.023 12.5 6 12.5c-2.216 0-2.5 1.069-2.5 2 0 1.258 1.029 1.751 2.847 2.514 1.85.777 4.153 1.742 4.153 4.486 0 2.19-1.3 3.623-3.567 3.932l-.433.059V27.5h-1z" fill="#99c99e"></path><path d="M6 9v1.973l.914.079c.889.077 1.59.246 2.086.406v1.059C8.406 12.289 7.381 12 6 12c-2.019 0-3 .818-3 2.5 0 1.652 1.461 2.265 3.153 2.975C8.333 18.39 10 19.266 10 21.5c0 1.941-1.113 3.161-3.135 3.437L6 25.055V27v-1.954l-.873-.111c-1.187-.152-2.335-.56-3.127-.897v-1.095C2.918 23.367 4.532 24 6 24c1.369 0 3-.434 3-2.5 0-1.746-1.499-2.375-3.234-3.103C3.632 17.502 2 16.646 2 14.5c0-.904.305-3.048 3.133-3.427L6 10.957V9m1-1H5v2.082c-2.914.39-4 2.456-4 4.418 0 2.982 2.531 4.044 4.379 4.819C7.378 20.158 8 20.568 8 21.5c0 .524 0 1.5-2 1.5-1.607 0-3.619-.941-4.256-1.302L1 21.273v3.411c.871.415 2.398 1.039 4 1.243V28h2v-2.072c2.49-.34 4-1.967 4-4.428 0-3.076-2.578-4.157-4.46-4.947C4.603 15.74 4 15.351 4 14.5c0-.759.154-1.5 2-1.5 1.914 0 3.009.607 3.083.649l.917.584v-3.468c-.611-.266-1.632-.591-3-.709V8z" fill="#45805b"></path><g><path d="M17.5 27.5v-2.014l-.437-.056c-1.404-.179-2.748-.699-3.563-1.066v-2.23c.112.063 2.472 1.366 4.5 1.366 2.5 0 2.5-1.453 2.5-2 0-1.346-1.112-1.88-2.927-2.642-1.815-.761-4.073-1.709-4.073-4.358 0-.808.257-3.48 3.566-3.922l.434-.058V8.5h1v2.014l.457.04c1.158.1 2.019.352 2.543.549v2.219l-.148-.094c-.148-.086-1.329-.728-3.352-.728-2.216 0-2.5 1.069-2.5 2 0 1.258 1.029 1.751 2.847 2.514 1.851.776 4.153 1.742 4.153 4.486 0 2.19-1.3 3.623-3.567 3.932l-.433.059V27.5h-1z" fill="#99c99e"></path><path d="M18 9v1.973l.914.079c.889.077 1.59.246 2.086.406v1.059c-.594-.228-1.619-.517-3-.517-2.019 0-3 .818-3 2.5 0 1.652 1.461 2.265 3.153 2.975C20.333 18.39 22 19.266 22 21.5c0 1.941-1.113 3.161-3.135 3.437l-.865.118V27v-1.954l-.873-.111c-1.187-.151-2.334-.56-3.127-.897v-1.095c.918.424 2.532 1.057 4 1.057 1.369 0 3-.434 3-2.5 0-1.746-1.499-2.375-3.234-3.103C15.632 17.502 14 16.646 14 14.5c0-.904.305-3.048 3.133-3.427l.867-.116V9m1-1h-2v2.082c-2.914.39-4 2.456-4 4.418 0 2.982 2.531 4.044 4.379 4.819C19.378 20.158 20 20.568 20 21.5c0 .524 0 1.5-2 1.5-1.607 0-3.619-.941-4.256-1.302L13 21.273v3.411c.871.415 2.398 1.039 4 1.243V28h2v-2.072c2.49-.34 4-1.967 4-4.428 0-3.076-2.578-4.157-4.46-4.947C16.603 15.74 16 15.351 16 14.5c0-.759.154-1.5 2-1.5 1.914 0 3.009.607 3.083.649l.917.584v-3.468c-.611-.266-1.632-.591-3-.709V8z" fill="#45805b"></path></g><g><path d="M31.5 25.562l-.434-.058c-2.504-.332-4.082-1.134-5.234-1.72l-.332-.168v-3.351l.294.168C26.89 21.056 29.687 22.5 32 22.5c3.159 0 3.5-2.118 3.5-3.028 0-1.684-1.432-2.363-4.175-3.514-2.595-1.089-5.825-2.444-5.825-6.286 0-2.683 1.912-5.655 5.566-6.145l.434-.058V1.501l1 .002v1.955l.457.04c1.277.11 2.537.573 3.543 1.005V7.79C35.419 7.178 33.814 6.5 32 6.5c-3.159 0-3.5 2.218-3.5 3.171 0 1.604 1.499 2.547 4.088 3.633l.469.195c2.551 1.055 5.443 2.25 5.443 5.972 0 3.154-2.237 5.579-5.567 6.033l-.433.059v1.906h-1v-1.907z" fill="#99c99e"></path><path d="M32 2.003V3.917l.914.079c1.086.094 2.172.463 3.086.84v2.13C34.93 6.457 33.539 6 32 6c-2.505 0-4 1.372-4 3.671 0 1.874 1.681 2.956 4.394 4.095l.471.196C35.39 15.005 38 16.084 38 19.471c0 2.893-2.064 5.119-5.135 5.538l-.865.118v1.842-1.845l-.868-.115c-2.419-.321-3.953-1.101-5.073-1.67l-.058-.03v-2.191C27.331 21.831 29.845 23 32 23c2.505 0 4-1.319 4-3.529 0-2.095-1.88-2.884-4.482-3.975C28.392 14.185 26 12.923 26 9.671c0-1.994 1.367-5.145 5.133-5.649L32 3.906V2.003M31 1v2.031c-4.079.546-6 3.894-6 6.64 0 4.175 3.544 5.662 6.131 6.747C33.929 17.592 35 18.166 35 19.471c0 .735-.2 2.529-3 2.529-2.25 0-5.066-1.494-5.958-2L25 19.405v4.524c1.219.581 2.938 1.665 6 2.071v1.97l2-.001V26c3.486-.475 6-3.084 6-6.529 0-4.306-3.583-5.522-6.219-6.628C30.069 11.706 29 10.863 29 9.671 29 8.609 29.416 7 32 7c2.679 0 4.896 1.628 5 1.688V4.176c-.967-.428-2.451-1.042-4-1.176V1.005L31 1z" fill="#45805b"></path></g></svg>