<svg viewBox="0 0 40 40" xmlns="http://www.w3.org/2000/svg"><path fill="#bae0bd" d="M18.88 36.63l-1.89 1.25-1.27-1.99-2.09.78-.87-2.24-2.2.29-.43-2.39-2.2-.23.02-2.45-2.11-.73.48-2.39-1.93-1.2.92-2.24-1.66-1.62 1.32-1.97-1.32-1.97 1.66-1.63-.92-2.23 1.93-1.2-.48-2.39 2.11-.73-.02-2.45 2.2-.23.43-2.39 2.2.29.87-2.24 2.09.78 1.27-1.99 1.89 1.25L20.5.71l1.62 1.66 1.89-1.25 1.27 1.99 2.09-.78.87 2.24 2.2-.29.43 2.39 2.2.23-.02 2.45 2.11.73-.48 2.39 1.93 1.2-.92 2.23 1.66 1.63-1.32 1.97 1.32 1.97-1.66 1.62.92 2.24-1.93 1.2.48 2.39-2.11.73.02 2.45-2.2.23-.43 2.39-2.2-.29-.87 2.24-2.09-.78-1.27 1.99-1.89-1.25-1.62 1.65-1.62-1.65z"></path><path d="M20.5 1.43l1 1L22 3l.69-.45 1.13-.74.82 1.19.44.68.76-.28 1.24-.4.55 1.41.28.73.78-.1 1.31-.2.28 1.56.13.74.75.08 1.38.14V9.7l.68.24 1.36.47-.32 1.59-.14.68.59.37 1.28.8-.63 1.53-.26.63.49.47 1.13 1.1-.9 1.35-.37.56.37.56.9 1.35-1.13 1.1-.49.47.26.63.64 1.53-1.28.8-.59.37.14.68.33 1.62-1.36.47-.68.24v2.32l-1.38.14-.75.08-.13.74-.3 1.57-1.31-.16-.78-.1-.28.73-.55 1.37-1.25-.47-.76-.28-.44.68-.78 1.22-1.13-.74L22 36l-.58.59-1 1-1-1L19 36l-.69.45-1.13.74-.82-1.19-.44-.68-.76.28-1.24.4-.55-1.41-.28-.73-.78.1-1.31.2-.28-1.56-.13-.74-.75-.08-1.38-.14V29.3l-.68-.24-1.36-.47.32-1.59.14-.68-.59-.37L5 25.13l.63-1.53.28-.6-.49-.47L4.3 21.4l.9-1.35.37-.56-.37-.56-.9-1.33 1.13-1.1.48-.5-.26-.63-.65-1.5 1.28-.8.59-.37-.13-.7-.33-1.62 1.36-.47.68-.24v-2.3l1.38-.14.75-.08.13-.74.29-1.57 1.31.16.78.1.28-.73.55-1.37 1.25.47.76.28.43-.75.78-1.22 1.13.74L19 3l.58-.59 1-1M20.5 0l-1.69 1.72-2-1.3-1.29 2.08-2.17-.81L12.43 4l-2.28-.3-.44 2.52-2.28.24L7.45 9l-2.19.76.5 2.48-2 1.24 1 2.31L3 17.46l1.37 2L3 21.54l1.72 1.68-1 2.31 2 1.24-.5 2.48 2.23.75v2.54l2.28.24.45 2.49 2.28-.3.91 2.33 2.17-.81 1.33 2.07 2-1.3L20.5 39l1.69-1.72 2 1.3 1.33-2.07 2.17.81.88-2.32 2.28.3.45-2.49 2.28-.24v-2.54l2.19-.76-.5-2.48 2-1.24-1-2.31 1.73-1.7-1.37-2 1.37-2-1.72-1.68 1-2.31-2-1.24.5-2.48L33.55 9V6.46l-2.28-.24-.45-2.49-2.25.27-.91-2.33-2.17.81L24.16.43l-2 1.3L20.5 0z" fill="#5e9c76"></path><path d="M20.5 34.5c-7.17 0-13-6.73-13-15s5.83-15 13-15 13 6.73 13 15-5.83 15-13 15z" fill="#ffeea3"></path><path d="M20.5 5C27.39 5 33 11.5 33 19.5S27.39 34 20.5 34 8 27.5 8 19.5 13.61 5 20.5 5m0-1C13 4 7 10.94 7 19.5S13 35 20.5 35 34 28.06 34 19.5 28 4 20.5 4z" fill="#ba9b48"></path><path d="M20.5 4.1V15a4.51 4.51 0 01-4.5 4.5H7.37M20.5 4.1V15a4.51 4.51 0 004.5 4.5h8.75M20.5 34.9V24a4.51 4.51 0 014.5-4.5h8.75M20.5 34.9V24a4.51 4.51 0 00-4.5-4.5H7.37" fill="none" stroke="#ba9b48" stroke-miterlimit="10"></path></svg>