<svg viewBox="0 0 40 40" xmlns="http://www.w3.org/2000/svg"><path d="M18.268 23.5c-.861-1.242-5.181-6.782-13.76-6.994C4.77 8.188 11.618 1.5 20 1.5s15.23 6.688 15.492 15.006c-8.543.214-12.892 5.756-13.759 6.994h-3.465z" fill="#e1ebf2"></path><path d="M20 2c7.944 0 14.465 6.207 14.969 14.026-8.012.401-12.32 5.392-13.49 6.974h-2.954c-1.166-1.587-5.449-6.576-13.493-6.975C5.535 8.207 12.057 2 20 2m0-1C11.163 1 4 8.163 4 17c9.644 0 14 7 14 7h4s4.4-7 14-7c0-8.837-7.163-16-16-16z" fill="#788b9c"></path><path d="M20 38.5a2.502 2.502 0 01-2.5-2.5c0-.773.359-1.494.987-1.976l.177-.136.799-10.388h1.074l.799 10.389.177.136c.628.481.987 1.202.987 1.975 0 1.379-1.121 2.5-2.5 2.5z" fill="#f5ce85"></path><path d="M20.074 24l.747 9.705.034.445.354.272c.503.385.791.961.791 1.578 0 1.103-.897 2-2 2s-2-.897-2-2c0-.617.288-1.193.791-1.579l.354-.272.034-.445.747-9.704h.148M21 23h-2l-.818 10.628A2.984 2.984 0 0017 36a3 3 0 106 0c0-.97-.468-1.824-1.182-2.372L21 23z" fill="#967a44"></path><g fill="#b0c1d4"><path d="M33.877 11.344a14.89 14.89 0 00-.404-.923c-6.437 3.291-9.957 7.72-11.752 10.766 1.035-3.206 3.416-8.899 8.539-15.118-.241-.227-.498-.437-.754-.647-4.563 5.534-6.999 10.6-8.25 13.997.389-4.628 1.371-11.27 3.815-16.518a14.866 14.866 0 00-.956-.318C20.883 9.604 20.185 18.956 20.039 23h1.44c.25-.339.654-.838 1.198-1.411 1.755-2.917 5.146-7.133 11.2-10.245zM15.885 2.582c-.325.092-.641.204-.956.318 2.444 5.248 3.427 11.89 3.815 16.518-1.251-3.397-3.687-8.463-8.25-13.997-.256.211-.512.421-.754.647 5.122 6.22 7.504 11.912 8.539 15.118-1.795-3.046-5.315-7.474-11.752-10.765-.148.301-.276.612-.404.923 6.034 3.102 9.422 7.301 11.183 10.217.554.584.964 1.094 1.217 1.439h1.437c-.145-4.044-.843-13.396-4.075-20.418z"></path></g><g><path d="M20 28.5a2.502 2.502 0 01-2.5-2.5v-2.5h5V26c0 1.379-1.121 2.5-2.5 2.5z" fill="#b0c1d4"></path><path d="M22 24v2c0 1.103-.897 2-2 2s-2-.897-2-2v-2h4m1-1h-6v3a3 3 0 106 0v-3z" fill="#66798f"></path></g></svg>