<svg viewBox="0 0 40 40" xmlns="http://www.w3.org/2000/svg"><path d="M4.5 7h-2a.501.501 0 01-.5-.5c0-.275.225-.5.5-.5h2c.275 0 .5.225.5.5s-.225.5-.5.5zM9.5 7h-2a.501.501 0 01-.5-.5c0-.275.225-.5.5-.5h2c.275 0 .5.225.5.5s-.225.5-.5.5zM14.5 7h-2a.501.501 0 01-.5-.5c0-.275.225-.5.5-.5h2c.275 0 .5.225.5.5s-.225.5-.5.5zM19.5 7h-2a.501.501 0 01-.5-.5c0-.275.225-.5.5-.5h2c.275 0 .5.225.5.5s-.225.5-.5.5zM24.5 7h-2a.501.501 0 01-.5-.5c0-.275.225-.5.5-.5h2c.275 0 .5.225.5.5s-.225.5-.5.5zM7.5 10h-2a.501.501 0 01-.5-.5c0-.275.225-.5.5-.5h2c.275 0 .5.225.5.5s-.225.5-.5.5zM12.5 10h-2a.501.501 0 01-.5-.5c0-.275.225-.5.5-.5h2c.275 0 .5.225.5.5s-.225.5-.5.5zM17.5 10h-2a.501.501 0 01-.5-.5c0-.275.225-.5.5-.5h2c.275 0 .5.225.5.5s-.225.5-.5.5zM22.5 10h-2a.501.501 0 01-.5-.5c0-.275.225-.5.5-.5h2c.275 0 .5.225.5.5s-.225.5-.5.5zM27.5 10h-2a.501.501 0 01-.5-.5c0-.275.225-.5.5-.5h2c.275 0 .5.225.5.5s-.225.5-.5.5zM29.5 7h-2a.501.501 0 01-.5-.5c0-.275.225-.5.5-.5h2c.275 0 .5.225.5.5s-.225.5-.5.5zM34.5 7h-2a.501.501 0 01-.5-.5c0-.275.225-.5.5-.5h2c.275 0 .5.225.5.5s-.225.5-.5.5zM32.5 10h-2a.501.501 0 01-.5-.5c0-.275.225-.5.5-.5h2c.275 0 .5.225.5.5s-.225.5-.5.5zM37.5 10h-2a.501.501 0 01-.5-.5c0-.275.225-.5.5-.5h2c.275 0 .5.225.5.5s-.225.5-.5.5z" fill="#ffd7bd"></path><path d="M4.5 13h-2a.501.501 0 01-.5-.5c0-.275.225-.5.5-.5h2c.275 0 .5.225.5.5s-.225.5-.5.5zM9.5 13h-2a.501.501 0 01-.5-.5c0-.275.225-.5.5-.5h2c.275 0 .5.225.5.5s-.225.5-.5.5zM14.5 13h-2a.501.501 0 01-.5-.5c0-.275.225-.5.5-.5h2c.275 0 .5.225.5.5s-.225.5-.5.5zM19.5 13h-2a.501.501 0 01-.5-.5c0-.275.225-.5.5-.5h2c.275 0 .5.225.5.5s-.225.5-.5.5zM24.5 13h-2a.501.501 0 01-.5-.5c0-.275.225-.5.5-.5h2c.275 0 .5.225.5.5s-.225.5-.5.5zM7.5 16h-2a.501.501 0 01-.5-.5c0-.275.225-.5.5-.5h2c.275 0 .5.225.5.5s-.225.5-.5.5zM12.5 16h-2a.501.501 0 01-.5-.5c0-.275.225-.5.5-.5h2c.275 0 .5.225.5.5s-.225.5-.5.5zM17.5 16h-2a.501.501 0 01-.5-.5c0-.275.225-.5.5-.5h2c.275 0 .5.225.5.5s-.225.5-.5.5zM22.5 16h-2a.501.501 0 01-.5-.5c0-.275.225-.5.5-.5h2c.275 0 .5.225.5.5s-.225.5-.5.5zM27.5 16h-2a.501.501 0 01-.5-.5c0-.275.225-.5.5-.5h2c.275 0 .5.225.5.5s-.225.5-.5.5zM29.5 13h-2a.501.501 0 01-.5-.5c0-.275.225-.5.5-.5h2c.275 0 .5.225.5.5s-.225.5-.5.5zM34.5 13h-2a.501.501 0 01-.5-.5c0-.275.225-.5.5-.5h2c.275 0 .5.225.5.5s-.225.5-.5.5zM32.5 16h-2a.501.501 0 01-.5-.5c0-.275.225-.5.5-.5h2c.275 0 .5.225.5.5s-.225.5-.5.5zM37.5 16h-2a.501.501 0 01-.5-.5c0-.275.225-.5.5-.5h2c.275 0 .5.225.5.5s-.225.5-.5.5z" fill="#e0ac89"></path><path d="M4.5 19h-2a.501.501 0 01-.5-.5c0-.275.225-.5.5-.5h2c.275 0 .5.225.5.5s-.225.5-.5.5zM9.5 19h-2a.501.501 0 01-.5-.5c0-.275.225-.5.5-.5h2c.275 0 .5.225.5.5s-.225.5-.5.5zM14.5 19h-2a.501.501 0 01-.5-.5c0-.275.225-.5.5-.5h2c.275 0 .5.225.5.5s-.225.5-.5.5zM19.5 19h-2a.501.501 0 01-.5-.5c0-.275.225-.5.5-.5h2c.275 0 .5.225.5.5s-.225.5-.5.5zM24.5 19h-2a.501.501 0 01-.5-.5c0-.275.225-.5.5-.5h2c.275 0 .5.225.5.5s-.225.5-.5.5zM7.5 22h-2a.501.501 0 01-.5-.5c0-.275.225-.5.5-.5h2c.275 0 .5.225.5.5s-.225.5-.5.5zM12.5 22h-2a.501.501 0 01-.5-.5c0-.275.225-.5.5-.5h2c.275 0 .5.225.5.5s-.225.5-.5.5zM17.5 22h-2a.501.501 0 01-.5-.5c0-.275.225-.5.5-.5h2c.275 0 .5.225.5.5s-.225.5-.5.5zM22.5 22h-2a.501.501 0 01-.5-.5c0-.275.225-.5.5-.5h2c.275 0 .5.225.5.5s-.225.5-.5.5zM27.5 22h-2a.501.501 0 01-.5-.5c0-.275.225-.5.5-.5h2c.275 0 .5.225.5.5s-.225.5-.5.5zM29.5 19h-2a.501.501 0 01-.5-.5c0-.275.225-.5.5-.5h2c.275 0 .5.225.5.5s-.225.5-.5.5zM34.5 19h-2a.501.501 0 01-.5-.5c0-.275.225-.5.5-.5h2c.275 0 .5.225.5.5s-.225.5-.5.5zM32.5 22h-2a.501.501 0 01-.5-.5c0-.275.225-.5.5-.5h2c.275 0 .5.225.5.5s-.225.5-.5.5zM37.5 22h-2a.501.501 0 01-.5-.5c0-.275.225-.5.5-.5h2c.275 0 .5.225.5.5s-.225.5-.5.5zM4.5 25h-2a.501.501 0 01-.5-.5c0-.275.225-.5.5-.5h2c.275 0 .5.225.5.5s-.225.5-.5.5zM9.5 25h-2a.501.501 0 01-.5-.5c0-.275.225-.5.5-.5h2c.275 0 .5.225.5.5s-.225.5-.5.5zM14.5 25h-2a.501.501 0 01-.5-.5c0-.275.225-.5.5-.5h2c.275 0 .5.225.5.5s-.225.5-.5.5zM19.5 25h-2a.501.501 0 01-.5-.5c0-.275.225-.5.5-.5h2c.275 0 .5.225.5.5s-.225.5-.5.5zM24.5 25h-2a.501.501 0 01-.5-.5c0-.275.225-.5.5-.5h2c.275 0 .5.225.5.5s-.225.5-.5.5z" fill="#b08159"></path><path d="M7.5 28h-2a.501.501 0 01-.5-.5c0-.275.225-.5.5-.5h2c.275 0 .5.225.5.5s-.225.5-.5.5zM12.5 28h-2a.501.501 0 01-.5-.5c0-.275.225-.5.5-.5h2c.275 0 .5.225.5.5s-.225.5-.5.5zM17.5 28h-2a.501.501 0 01-.5-.5c0-.275.225-.5.5-.5h2c.275 0 .5.225.5.5s-.225.5-.5.5zM22.5 28h-2a.501.501 0 01-.5-.5c0-.275.225-.5.5-.5h2c.275 0 .5.225.5.5s-.225.5-.5.5zM27.5 28h-2a.501.501 0 01-.5-.5c0-.275.225-.5.5-.5h2c.275 0 .5.225.5.5s-.225.5-.5.5z" fill="#704e34"></path><path d="M29.5 25h-2a.501.501 0 01-.5-.5c0-.275.225-.5.5-.5h2c.275 0 .5.225.5.5s-.225.5-.5.5zM34.5 25h-2a.501.501 0 01-.5-.5c0-.275.225-.5.5-.5h2c.275 0 .5.225.5.5s-.225.5-.5.5z" fill="#b08159"></path><path d="M32.5 28h-2a.501.501 0 01-.5-.5c0-.275.225-.5.5-.5h2c.275 0 .5.225.5.5s-.225.5-.5.5zM37.5 28h-2a.501.501 0 01-.5-.5c0-.275.225-.5.5-.5h2c.275 0 .5.225.5.5s-.225.5-.5.5zM4.5 31h-2a.501.501 0 01-.5-.5c0-.275.225-.5.5-.5h2c.275 0 .5.225.5.5s-.225.5-.5.5zM9.5 31h-2a.501.501 0 01-.5-.5c0-.275.225-.5.5-.5h2c.275 0 .5.225.5.5s-.225.5-.5.5zM14.5 31h-2a.501.501 0 01-.5-.5c0-.275.225-.5.5-.5h2c.275 0 .5.225.5.5s-.225.5-.5.5zM19.5 31h-2a.501.501 0 01-.5-.5c0-.275.225-.5.5-.5h2c.275 0 .5.225.5.5s-.225.5-.5.5zM24.5 31h-2a.501.501 0 01-.5-.5c0-.275.225-.5.5-.5h2c.275 0 .5.225.5.5s-.225.5-.5.5zM7.5 34h-2a.501.501 0 01-.5-.5c0-.275.225-.5.5-.5h2c.275 0 .5.225.5.5s-.225.5-.5.5zM12.5 34h-2a.501.501 0 01-.5-.5c0-.275.225-.5.5-.5h2c.275 0 .5.225.5.5s-.225.5-.5.5zM17.5 34h-2a.501.501 0 01-.5-.5c0-.275.225-.5.5-.5h2c.275 0 .5.225.5.5s-.225.5-.5.5zM22.5 34h-2a.501.501 0 01-.5-.5c0-.275.225-.5.5-.5h2c.275 0 .5.225.5.5s-.225.5-.5.5zM27.5 34h-2a.501.501 0 01-.5-.5c0-.275.225-.5.5-.5h2c.275 0 .5.225.5.5s-.225.5-.5.5zM29.5 31h-2a.501.501 0 01-.5-.5c0-.275.225-.5.5-.5h2c.275 0 .5.225.5.5s-.225.5-.5.5zM34.5 31h-2a.501.501 0 01-.5-.5c0-.275.225-.5.5-.5h2c.275 0 .5.225.5.5s-.225.5-.5.5zM32.5 34h-2a.501.501 0 01-.5-.5c0-.275.225-.5.5-.5h2c.275 0 .5.225.5.5s-.225.5-.5.5zM37.5 34h-2a.501.501 0 01-.5-.5c0-.275.225-.5.5-.5h2c.275 0 .5.225.5.5s-.225.5-.5.5z" fill="#704e34"></path></svg>