<svg viewBox="0 0 40 40" xmlns="http://www.w3.org/2000/svg"><path d="M17.535 11l2.09 6.5 5.147-6.5h8.624c4.225 0 7.187 2.051 6.507 4.683C39.225 18.316 35.205 20 31 20h-5.657s.062-.007.09-.087c.224-.902 1.489-5.707 1.505-5.786.019-.097-.094-.127-.094-.127H31s-.08-.006-.114.127c-.021.074-.766 3.032-.946 3.745-.021.09-.147.133-.147.133h.995c2.358 0 4.547-.49 5.016-2.323.43-1.674-1.131-2.682-3.672-2.682h-4.899l-8.704 10-3.921-9.767s-.033-.063-.059-.14c-.013-.025-.098-.101-.187-.06-.059.034-.067.112-.06.139a.335.335 0 01.044.106c.517.888.425 1.919.3 2.407C13.941 18.311 9.929 20 5.724 20H0s.135-.006.156-.086c.231-.903 1.74-5.737 1.748-5.787.017-.086-.089-.127-.089-.127H6s-.12.035-.144.125c-.021.075-1.062 3.045-1.241 3.758-.021.09-.162.133-.162.133h1.016c2.361 0 4.591-.499 5.06-2.333C10.958 14.009 9.537 13 7 13H2s.114-.056.134-.133c.112-.423.387-1.687.404-1.749.018-.069-.095-.114-.095-.114L17.535 11zM20 23C8.954 23 0 24.343 0 26s8.954 3 20 3 20-1.343 20-3-8.954-3-20-3zm0 4c-2.761 0-5-.448-5-1s2.239-1 5-1 5 .448 5 1-2.239 1-5 1z" fill="#4e7ab5"></path></svg>