<svg viewBox="0 0 40 40" xmlns="http://www.w3.org/2000/svg"><path d="M4 28.5a1.61 1.61 0 01-1.15-.56C.26 25.24.49 14.93.5 14.83a2.23 2.23 0 012.16-2.33h34.67a2.09 2.09 0 011.51.66 2.4 2.4 0 01.66 1.67c0 .12.24 10.48-2.35 13.13a1.57 1.57 0 01-1.15.54z" fill="#b0c1d4"></path><path d="M37.33 13a1.59 1.59 0 011.15.5 1.92 1.92 0 01.52 1.36c.1 4-.41 10.91-2.21 12.75A1.05 1.05 0 0136 28H4a1.09 1.09 0 01-.81-.41C1.18 25.48.92 17.67 1 14.82A1.73 1.73 0 012.66 13h34.67m0-1H2.66A2.73 2.73 0 000 14.82S-.37 28.93 4 29h32c4.36 0 4-14.17 4-14.17A2.75 2.75 0 0037.33 12z" fill="#788b9c"></path><path fill="#ffeea3" d="M16 15h3v3h-3zM20 15h3v3h-3zM24 15h3v3h-3zM28 15h3v3h-3zM32 15h3v3h-3zM32 19h3v3h-3zM32 23h3v3h-3zM28 19h3v3h-3zM28 23h3v3h-3zM24 23h3v3h-3zM24 19h3v3h-3zM20 19h3v3h-3zM20 23h3v3h-3zM16 19h3v3h-3zM16 23h3v3h-3zM4 19h9v3H4z"></path></svg>