<svg viewBox="0 0 40 40" xmlns="http://www.w3.org/2000/svg"><path d="M11.5 32.5v-2h-7c-1.103 0-2-.897-2-2v-20c0-1.103.897-2 2-2h31c1.103 0 2 .897 2 2v20c0 1.103-.897 2-2 2h-7v2h-17z" fill="#dbf2ff"></path><path d="M35.5 7c.827 0 1.5.673 1.5 1.5v20c0 .827-.673 1.5-1.5 1.5H28v2H12v-2H4.5c-.827 0-1.5-.673-1.5-1.5v-20C3 7.673 3.673 7 4.5 7h31m0-1h-31A2.5 2.5 0 002 8.5v20A2.5 2.5 0 004.5 31H11v2h18v-2h6.5a2.5 2.5 0 002.5-2.5v-20A2.5 2.5 0 0035.5 6z" fill="#66798f"></path><path d="M4 33.5C2.07 33.5.5 31.93.5 30v-.5h15.086c.206.582.762 1 1.414 1h6c.652 0 1.208-.418 1.414-1H39.5v.5c0 1.93-1.57 3.5-3.5 3.5H4z" fill="#b0c1d4"></path><path d="M39 30c0 1.654-1.346 3-3 3H4c-1.654 0-3-1.346-3-3h14.268c.346.597.993 1 1.732 1h6c.739 0 1.385-.403 1.732-1H39m1-1H24a1 1 0 01-1 1h-6a1 1 0 01-1-1H0v1a4 4 0 004 4h32a4 4 0 004-4v-1z" fill="#66798f"></path><path fill="#8bb7f0" d="M7 12h11v1H7z"></path><path fill="#4e7ab5" d="M18 12H7v1h11v-1z"></path><path fill="#8bb7f0" d="M7 16h11v1H7z"></path><path fill="#4e7ab5" d="M18 16H7v1h11v-1z"></path><path fill="#8bb7f0" d="M7 20h11v1H7z"></path><path fill="#4e7ab5" d="M18 20H7v1h11v-1z"></path><g><path fill="#8bb7f0" d="M7 24h11v1H7z"></path><path fill="#4e7ab5" d="M18 24H7v1h11v-1z"></path></g><g><path fill="#8bb7f0" d="M22 12h11v1H22z"></path><path fill="#4e7ab5" d="M33 12H22v1h11v-1z"></path></g><g><path fill="#8bb7f0" d="M22 16h11v1H22z"></path><path fill="#4e7ab5" d="M33 16H22v1h11v-1z"></path></g><g><path fill="#8bb7f0" d="M22 20h11v1H22z"></path><path fill="#4e7ab5" d="M33 20H22v1h11v-1z"></path></g><g><path fill="#8bb7f0" d="M22 24h7v1h-7z"></path><path fill="#4e7ab5" d="M29 24h-7v1h7v-1z"></path></g></svg>