<svg viewBox="0 0 40 40" xmlns="http://www.w3.org/2000/svg"><path d="M23.5 35.5V17.192c0-12.634 5.055-14.432 6.947-14.661v.008l.526-.02c.158-.013.231-.02.306-.02C34.158 2.5 36.5 5.416 36.5 9s-2.342 6.5-5.221 6.5c-.948 0-1.883-.328-2.704-.948l-.598-.451-.187.726c-.339 1.31-.291 2.349-.289 2.393v18.281H23.5z" fill="#f2faff"></path><path d="M31.279 3C33.882 3 36 5.692 36 9s-2.118 6-4.721 6c-.839 0-1.669-.293-2.402-.847l-1.196-.904-.376 1.451A9.394 9.394 0 0027 17.212V35h-3V17.193c0-11.564 4.234-13.73 6.179-14.114l.829-.06.101-.008c.056-.005.112-.011.17-.011m0-1c-.116 0-.229.013-.344.021V2C29.56 2 23 2.778 23 17.193V36h5V17.193s-.05-.991.274-2.242c.874.661 1.901 1.049 3.005 1.049C34.442 16 37 12.866 37 9s-2.558-7-5.721-7z" fill="#788b9c"></path><path d="M31.5 6c-.825 0-1.5.675-1.5 1.5v3c0 .825.675 1.5 1.5 1.5s1.5-.675 1.5-1.5v-3c0-.825-.675-1.5-1.5-1.5z" fill="#37474f"></path><path d="M28 38h-5v-3h5v3z" fill="#66798f"></path><path d="M28.5 10c.275 0 .5-.225.5-.5v-1c0-.275-.225-.5-.5-.5s-.5.225-.5.5v1c0 .275.225.5.5.5zM34.5 10c.275 0 .5-.225.5-.5v-1c0-.275-.225-.5-.5-.5s-.5.225-.5.5v1c0 .275.225.5.5.5z" fill="#37474f"></path><path d="M26 17.375V35h1V17.92a6.52 6.52 0 010-.354v-.353a9.394 9.394 0 01.305-2.512l.372-1.44c-.255-.426-.677-1.48-.677-2.904-.565 1.835-1 3.704-1 7.018z" fill="#ccdfed"></path><path d="M12.5 35.5V17.193c.001-.019.049-1.058-.29-2.367l-.187-.726-.598.451c-.821.62-1.756.948-2.704.948C5.842 15.5 3.5 12.584 3.5 9s2.342-6.5 5.221-6.5c.074 0 .147.007.221.013l.53.046.006-.036c1.829.191 7.022 1.864 7.022 14.67V35.5h-4z" fill="#f2faff"></path><path d="M8.721 3c.057 0 .114.006.17.011l.101.008.829.06C11.766 3.463 16 5.628 16 17.193V35h-3V17.212a9.397 9.397 0 00-.305-2.512l-.375-1.452-1.196.904c-.734.555-1.564.848-2.403.848C6.118 15 4 12.308 4 9s2.118-6 4.721-6m.344-1v.021C8.951 2.013 8.837 2 8.721 2 5.558 2 3 5.134 3 9s2.558 7 5.721 7c1.104 0 2.131-.388 3.005-1.049.324 1.251.274 2.242.274 2.242V36h5V17.193C17 2.779 10.44 2 9.065 2z" fill="#788b9c"></path><path d="M8.5 12c.825 0 1.5-.675 1.5-1.5v-3C10 6.675 9.325 6 8.5 6S7 6.675 7 7.5v3c0 .825.675 1.5 1.5 1.5z" fill="#37474f"></path><path d="M12 35h5v3h-5v-3z" fill="#66798f"></path><path d="M11.5 10a.501.501 0 01-.5-.5v-1c0-.275.225-.5.5-.5s.5.225.5.5v1c0 .275-.225.5-.5.5zM5.5 10a.501.501 0 01-.5-.5v-1c0-.275.225-.5.5-.5s.5.225.5.5v1c0 .275-.225.5-.5.5z" fill="#37474f"></path><path d="M14 17.375V35h-1V17.92a6.52 6.52 0 000-.354v-.353a9.394 9.394 0 00-.305-2.512l-.372-1.44c.255-.426.677-1.48.677-2.904.565 1.835 1 3.704 1 7.018z" fill="#ccdfed"></path></svg>