<svg viewBox="0 0 40 40" xmlns="http://www.w3.org/2000/svg"><path d="M19.117 9.25c-1.781 0-3.44.507-4.865 1.372A8.482 8.482 0 009.627 9.25C4.862 9.25 1 13.167 1 18c0 14.448 13.803 21 13.803 21s13.803-7.476 13.803-20.125c0-5.316-4.248-9.625-9.489-9.625z" fill="#ffeea3"></path><circle cx="33" cy="7" r="6" fill="#ffeea3" stroke="#ba9b48" stroke-miterlimit="2"></circle><path d="M14.598 11.198l-1.186 1.203s-1.864 5.214-1.582 12.891 2.881 13.12 2.881 13.12S24.628 32.531 27 26s1.711-11.479-1-14-8.069-3.151-11.402-.802z" fill="#fffae6"></path><path d="M25.558 12.046l6.395-6.514a1.762 1.762 0 012.524 0h0c.697.71.697 1.861 0 2.571l-6.799 6.925" fill="#ffeea3" stroke="#ba9b48" stroke-miterlimit="2"></path><path d="M19.117 9.25c-1.781 0-3.44.507-4.865 1.372A8.482 8.482 0 009.627 9.25C4.862 9.25 1 13.167 1 18c0 14.448 13.803 21 13.803 21s13.803-7.476 13.803-20.125c0-5.316-4.248-9.625-9.489-9.625z" fill="none" stroke="#ba9b48" stroke-miterlimit="2"></path><path d="M13.461 14.959s6.747-.585 10.873 6.166" fill="none" stroke="#ba9b48" stroke-linecap="round" stroke-miterlimit="2"></path><path d="M12.599 14.959s-4.806-.34-7.244 4.416" fill="none" stroke="#ba9b48" stroke-linecap="round" stroke-linejoin="round" stroke-miterlimit="10"></path><path d="M12.556 21.331s5.431-.165 8.328 5.919M12.601 29.409s3.07.065 3.968 3.091" fill="none" stroke="#ba9b48" stroke-linecap="round" stroke-miterlimit="2"></path><path d="M14.5 38.5s-2.614-5.421-2.614-14.168S14.5 10.5 14.5 10.5" fill="none" stroke="#ba9b48" stroke-miterlimit="2"></path><path d="M11.929 21.238S8.243 21.115 7.08 25.5M12.225 29.417s-2.072-.095-2.557 2.208" fill="none" stroke="#ba9b48" stroke-linecap="round" stroke-linejoin="round" stroke-miterlimit="10"></path></svg>