<svg viewBox="0 0 40 40" xmlns="http://www.w3.org/2000/svg"><path fill="#ffc49c" d="M5.5 8.5h19v23h-19z"></path><path d="M24 9v22H6V9h18m1-1H5v24h20V8z" fill="#a16a4a"></path><path fill="#8bb7f0" d="M8.5 32.5h2v2h-2z"></path><path d="M10 33v1H9v-1h1m1-1H8v3h3v-3z" fill="#4e7ab5"></path><path fill="#b08159" d="M8.5 22.5h2v2h-2z"></path><path d="M10 23v1H9v-1h1m1-1H8v3h3v-3z" fill="#704e34"></path><path fill="#b08159" d="M8.5 17.5h2v2h-2z"></path><path d="M10 18v1H9v-1h1m1-1H8v3h3v-3z" fill="#704e34"></path><path fill="#b08159" d="M8.5 12.5h2v2h-2z"></path><path d="M10 13v1H9v-1h1m1-1H8v3h3v-3z" fill="#704e34"></path><path fill="#b08159" d="M13.5 22.5h2v2h-2z"></path><path d="M15 23v1h-1v-1h1m1-1h-3v3h3v-3z" fill="#704e34"></path><path fill="#b08159" d="M8.5 27.5h2v2h-2z"></path><path d="M10 28v1H9v-1h1m1-1H8v3h3v-3z" fill="#704e34"></path><path fill="#b08159" d="M13.5 27.5h2v2h-2z"></path><path d="M15 28v1h-1v-1h1m1-1h-3v3h3v-3z" fill="#704e34"></path><path fill="#b08159" d="M13.5 17.5h2v2h-2z"></path><path d="M15 18v1h-1v-1h1m1-1h-3v3h3v-3z" fill="#704e34"></path><path fill="#b08159" d="M13.5 12.5h2v2h-2z"></path><path d="M15 13v1h-1v-1h1m1-1h-3v3h3v-3z" fill="#704e34"></path><path fill="#e1ebf2" d="M15.5 2.5h19v29h-19z"></path><path d="M34 3v28H16V3h18m1-1H15v30h20V2z" fill="#788b9c"></path><path fill="#8bb7f0" d="M18.5 21.5h2v2h-2z"></path><path d="M20 22v1h-1v-1h1m1-1h-3v3h3v-3z" fill="#4e7ab5"></path><path fill="#8bb7f0" d="M18.5 32.5h5v2h-5z"></path><path d="M23 33v1h-4v-1h4m1-1h-6v3h6v-3z" fill="#4e7ab5"></path><path fill="#8bb7f0" d="M18.5 16.5h2v2h-2z"></path><path d="M20 17v1h-1v-1h1m1-1h-3v3h3v-3z" fill="#4e7ab5"></path><g><path fill="#8bb7f0" d="M18.5 11.5h2v2h-2z"></path><path d="M20 12v1h-1v-1h1m1-1h-3v3h3v-3z" fill="#4e7ab5"></path></g><g><path fill="#8bb7f0" d="M18.5 6.5h2v2h-2z"></path><path d="M20 7v1h-1V7h1m1-1h-3v3h3V6z" fill="#4e7ab5"></path></g><g><path fill="#8bb7f0" d="M23.5 11.5h3v2h-3z"></path><path d="M26 12v1h-2v-1h2m1-1h-4v3h4v-3z" fill="#4e7ab5"></path></g><g><path fill="#8bb7f0" d="M23.5 16.5h3v2h-3z"></path><path d="M26 17v1h-2v-1h2m1-1h-4v3h4v-3z" fill="#4e7ab5"></path></g><g><path fill="#8bb7f0" d="M23.5 6.5h3v2h-3z"></path><path d="M26 7v1h-2V7h2m1-1h-4v3h4V6z" fill="#4e7ab5"></path></g><g><path fill="#8bb7f0" d="M29.5 21.5h2v2h-2z"></path><path d="M31 22v1h-1v-1h1m1-1h-3v3h3v-3z" fill="#4e7ab5"></path></g><g><path fill="#8bb7f0" d="M18.5 21.5h2v2h-2z"></path><path d="M20 22v1h-1v-1h1m1-1h-3v3h3v-3z" fill="#4e7ab5"></path></g><g><path fill="#8bb7f0" d="M29.5 21.5h2v2h-2z"></path><path d="M31 22v1h-1v-1h1m1-1h-3v3h3v-3z" fill="#4e7ab5"></path></g><g><path fill="#8bb7f0" d="M29.5 16.5h2v2h-2z"></path><path d="M31 17v1h-1v-1h1m1-1h-3v3h3v-3z" fill="#4e7ab5"></path></g><g><path fill="#8bb7f0" d="M29.5 11.5h2v2h-2z"></path><path d="M31 12v1h-1v-1h1m1-1h-3v3h3v-3z" fill="#4e7ab5"></path></g><g><path fill="#8bb7f0" d="M29.5 6.5h2v2h-2z"></path><path d="M31 7v1h-1V7h1m1-1h-3v3h3V6z" fill="#4e7ab5"></path></g><g><path fill="#99c99e" d="M2.5 37.5v-6.062l14.634-1.952 6.888-2.951 2.82.939L37.5 30.382V37.5z"></path><path d="M24.044 27.069l2.639.88.026.009.027.007L37 30.764V37H3v-5.124l14.132-1.884.136-.018.126-.054 6.65-2.851M24 26l-7 3-15 2v7h36v-8l-11-3-3-1z" fill="#5e9c76"></path></g><g><path fill="#735f63" d="M21.406 37.5l3.302-.99-8.127-2.54 9.127-3.232-7.291-1.887 5.013-2.507 1.542-6.168 1.469 6.614-2.589 1.902 5.472 1.396-6.836 2.537 10.153 2.996-3.759 1.879z"></path><path d="M24.943 22.352l.94 4.228-1.474 1.083-1.705 1.252 2.049.523 2.897.739-.869.323-2.53-.655-4.416-1.144 3.613-1.806.411-.206.112-.446.972-3.891m-3.592 10.46l2.438.719 7.494 2.21L28.764 37h-3.95l1.602-.48-3.117-.974-5.135-1.605 3.187-1.129M25 18l-2 8-6 3 7 1.813L15 34l8 2.5-5 1.5h11l5-2.5-9.929-2.929L31 30l-6-1.531L27 27l-2-9z" fill="#4d3e40"></path></g></svg>