<svg viewBox="0 0 40 40" xmlns="http://www.w3.org/2000/svg"><path fill="#f2faff" d="M.651 13.711L27.912 2.573l11.555 9.074-1.952 14.605-27.261 11.096z"></path><path d="M27.832 3.146l11.102 8.719-1.875 14.034-26.53 10.798-9.227-22.711 26.53-10.84M27.992 2L0 13.437 9.979 38l27.993-11.395L40 11.431 27.992 2z" fill="#788b9c"></path><path fill="#f78f8f" d="M33.531 14.071L21.99 5.002l5.922-2.429 11.555 9.074-1.952 14.604-5.922 2.391z"></path><path d="M27.832 3.146l11.101 8.718-1.875 14.032-4.855 1.961 1.786-13.437.075-.566-.449-.353-10.642-8.362 4.859-1.993M27.992 2l-6.986 2.865 11.992 9.424-2.013 15.139 6.987-2.822L40 11.431 27.992 2z" fill="#c74343"></path><g fill="#36404d"><path d="M18.146 16.931l1.308 3.294-3.456-2.441-1.727.686 2.425 6.104 1.663-.661-1.323-3.33-.03-.078 3.59 2.52 1.639-.651-2.425-6.104-1.664.661zM27.019 18.559l-2.116.831-.324-.827 1.847-.725-.588-1.497-1.848.725-.31-.791 1.985-.78-.59-1.501-3.723 1.463 2.401 6.113 3.853-1.513zM12.679 24.564l-.325-.826 1.847-.726-.588-1.497-1.847.725-.311-.791 1.985-.78-.589-1.501-3.724 1.463 2.401 6.114 3.854-1.515-.588-1.497z"></path></g></svg>