<svg viewBox="0 0 40 40" xmlns="http://www.w3.org/2000/svg"><path fill="#f2faff" d="M.5 32.5v-25h31.221L39.413 20l-7.692 12.5z"></path><path d="M31.441 8l7.385 12-7.385 12H1V8h30.441M32 7H0v26h32l8-13-8-13z" fill="#788b9c"></path><path fill="#f78f8f" d="M24.895 32.5L32.587 20 24.895 7.5h6.826L39.413 20l-7.692 12.5z"></path><path d="M31.441 8l7.385 12-7.385 12H25.79l7.062-11.476.322-.524-.323-.524L25.79 8h5.651M32 7h-8l8 13-8 13h8l8-13-8-13z" fill="#c74343"></path><path fill="#36404d" d="M13 24v-3h4v-2h-4v-3h5v-2h-7v12h7v-2z"></path></svg>