<svg viewBox="0 0 40 40" xmlns="http://www.w3.org/2000/svg"><path fill="#f2faff" d="M.657 26.289L10.26 2.652l27.261 11.096 1.952 14.605-11.555 9.074z"></path><path d="M10.535 3.303l26.529 10.799 1.875 14.034-11.102 8.719-26.53-10.84 9.228-22.712M9.985 2L.006 26.563 27.998 38l12.008-9.431-2.028-15.175L9.985 2z" fill="#788b9c"></path><path fill="#f78f8f" d="M21.996 34.998l11.541-9.069L31.6 11.358l5.921 2.391 1.952 14.604-11.555 9.074z"></path><path d="M32.209 12.143l4.855 1.961 1.875 14.032-11.101 8.718-4.859-1.992 10.642-8.363.449-.353-.075-.566-1.786-13.437m-1.217-1.57l2.013 15.139-11.992 9.424L27.998 38l12.008-9.431-2.028-15.175-6.986-2.821z" fill="#c74343"></path><g fill="#36404d"><path d="M26.5 21.471l.627-1.485-3.684-1.558-2.556 6.05 3.811 1.612.626-1.482-2.092-.884.346-.818 1.827.772.626-1.482-1.827-.772.331-.783zM13.624 16.085l1.965.83.627-1.485-3.684-1.557-2.556 6.049 3.811 1.612.626-1.482-2.092-.884.346-.818 1.827.773.626-1.482-1.827-.773zM21.593 17.926l-.128-.115a3.753 3.753 0 00-.608-.438 5.81 5.81 0 00-.798-.371 4.2 4.2 0 00-.947-.248 2.563 2.563 0 00-.913.033 1.875 1.875 0 00-.791.388 1.92 1.92 0 00-.544.794 1.832 1.832 0 00-.05 1.257c.127.388.395.778.795 1.162.144.135.276.266.398.389.113.115.206.226.279.331a.859.859 0 01.13.264.269.269 0 01-.012.178.235.235 0 01-.073.101.32.32 0 01-.139.06.777.777 0 01-.265.001 1.652 1.652 0 01-.381-.104 2.34 2.34 0 01-1.208-1.066l-.26-.468-.734 1.906.102.114c.181.202.414.392.692.563.27.167.572.316.898.442.314.121.633.208.946.26.15.023.298.036.439.036.166 0 .326-.017.478-.049a1.81 1.81 0 00.798-.385c.235-.196.424-.475.56-.829.1-.259.148-.505.146-.735a1.766 1.766 0 00-.139-.668 2.583 2.583 0 00-.358-.598 5.441 5.441 0 00-.519-.564 7.515 7.515 0 01-.358-.36 2.003 2.003 0 01-.231-.291.705.705 0 01-.098-.216.226.226 0 01.013-.139.207.207 0 01.072-.098.378.378 0 01.154-.062.85.85 0 01.267 0c.109.015.229.048.354.096.097.038.196.085.293.137.102.058.201.121.299.193.096.071.185.148.27.233.081.082.152.167.213.257l.269.395.689-1.786z"></path></g></svg>