<svg viewBox="0 0 40 40" xmlns="http://www.w3.org/2000/svg"><path fill="#bae0bd" d="M1.5 17.5h37v21h-37z"></path><path d="M38 18v20H2V18h36m1-1H1v22h38V17z" fill="#5e9c76"></path><circle cx="20" cy="28" r="7.5" fill="#fff"></circle><path d="M20 21c3.86 0 7 3.14 7 7s-3.14 7-7 7-7-3.14-7-7 3.14-7 7-7m0-1a8 8 0 100 16 8 8 0 000-16z" fill="#5e9c76"></path><path fill="#8bb7f0" d="M26.991 2.899l5.342-1.232-1.232 5.341z"></path><path d="M31.666 2.334l-.85 3.683-2.833-2.833 3.683-.85M33 1l-7 1.615L31.385 8 33 1z" fill="#4e7ab5"></path><path fill="none" stroke="#4e7ab5" stroke-miterlimit="10" d="M7.375 15.625L16 6.72l5.5 5.58 7.625-7.425"></path><g><circle cx="33" cy="28" r="2.5" fill="#fff"></circle><path d="M33 26c1.103 0 2 .897 2 2s-.897 2-2 2-2-.897-2-2 .897-2 2-2m0-1a3 3 0 100 6 3 3 0 000-6z" fill="#5e9c76"></path></g><g><circle cx="7" cy="28" r="2.5" fill="#fff"></circle><path d="M7 26c1.103 0 2 .897 2 2s-.897 2-2 2-2-.897-2-2 .897-2 2-2m0-1a3 3 0 100 6 3 3 0 000-6z" fill="#5e9c76"></path></g></svg>