<svg viewBox="0 0 40 40" xmlns="http://www.w3.org/2000/svg"><path d="M16.5 32.5v-2.353l-1.214-.814a8.222 8.222 0 01-3.596-5.943l-1.133-10.358c-.511-4.664 2.532-9.059 7.078-10.223l.185-.047.105-.158a2.501 2.501 0 014.149 0l.105.158.185.047c4.546 1.164 7.589 5.559 7.078 10.223L28.31 23.39a8.22 8.22 0 01-3.597 5.943l-1.213.814V32.5h-7z" fill="#ffeea3"></path><path d="M20 2c.666 0 1.286.33 1.659.883l.213.315.368.094c4.306 1.103 7.189 5.267 6.705 9.685l-1.133 10.358a7.723 7.723 0 01-3.378 5.582l-.992.666-.442.298V32h-6v-2.119l-.443-.297-.992-.666a7.723 7.723 0 01-3.378-5.582l-1.133-10.358c-.483-4.418 2.399-8.582 6.705-9.685l.368-.094.213-.315A2 2 0 0120 2m0-1a2.996 2.996 0 00-2.488 1.324C12.82 3.526 9.507 8.027 10.06 13.086l1.133 10.358a8.735 8.735 0 003.815 6.303l.992.667V33h3.852l.148.1.148-.1H24v-2.586l.992-.666a8.743 8.743 0 003.815-6.303l1.133-10.358c.554-5.06-2.759-9.561-7.451-10.763A2.999 2.999 0 0020 1z" fill="#ba9b48"></path><path d="M20 11.47l1.336 3.016.697 1.574 1.022-1.385 1.611-2.183-.916 9.698-.697-.938-1.403-1.89-.386 2.322L20 29.282l-1.263-7.599-.386-2.322-1.403 1.89-.698.939-.916-9.698 1.611 2.183 1.022 1.385.697-1.574L20 11.47M26 9l-3.75 5.081L20 9l-2.25 5.081L14 9l1.5 15.879 2.25-3.031L20 35.379l2.25-13.531 2.25 3.031L26 9z" fill="#fff"></path><path fill="none" stroke="#8b75a1" stroke-miterlimit="10" d="M17.286 34.25h1.357"></path><circle cx="20" cy="37" r="2" fill="#2d3540"></circle><path d="M18 37.5c-.827 0-1.5-.673-1.5-1.5v-4.5h7V36c0 .827-.673 1.5-1.5 1.5h-4z" fill="#dcd5f2"></path><path d="M23 32v4c0 .551-.449 1-1 1h-4c-.551 0-1-.449-1-1v-4h6m1-1h-8v5a2 2 0 002 2h4a2 2 0 002-2v-5z" fill="#8b75a1"></path><path fill="none" stroke="#8b75a1" stroke-miterlimit="10" d="M19 35.5h5M16 35.5h2M19 33.5h5M16 33.5h2"></path></svg>