<svg viewBox="0 0 40 40" xmlns="http://www.w3.org/2000/svg"><path fill="#fff" d="M1.5 1.5h35v29h-35z"></path><path d="M36 2v28H2V2h34m1-1H1v30h36V1z" fill="#788b9c"></path><path fill="#b5deff" d="M5 5h28v18.857H5z"></path><path fill="#99c9f0" d="M5 17.375h28V27H5z"></path><path d="M31.6 11.875c-.461 0-.867.222-1.122.56-.469-.347-1.045-.56-1.678-.56s-1.209.213-1.678.56a1.402 1.402 0 00-2.09-.175 2.098 2.098 0 00-2.622-.919 2.812 2.812 0 00-2.01-.841 2.789 2.789 0 00-2.633 1.846 2.825 2.825 0 00-1.567-.471c-.581 0-1.12.174-1.567.471A2.789 2.789 0 0012 10.5c-.79 0-1.501.324-2.01.841a2.097 2.097 0 00-2.622.919 1.41 1.41 0 00-.968-.385c-.773 0-1.4.616-1.4 1.375v8.25h28v-8.25c0-.759-.627-1.375-1.4-1.375z" fill="#d9f6ff"></path><path fill="#6e9ee0" d="M5.336 22H33v-1.605l-8.645-4.816z"></path><path fill="#77a9ed" d="M24.95 22H5v-2.919L14.428 15z"></path><path fill="#c5d4de" d="M16.455 23.182L16.848 30h9.925l-5.358-6.818z"></path><path fill="#7fa6c7" d="M16.351 21.545L16.666 27h7.939l-4.287-5.455z"></path><path fill="#6089bf" d="M16.373 22h4.367l-4.612-5.869-.099-.066z"></path><path fill="#f5ce85" d="M19.058 23.705l-2.274-6.921 6.897 2.275 2.527 2.525-4.316 4.955z"></path><path d="M17.568 17.569l5.843 1.927 2.112 2.112-3.657 4.199-2.372-2.372-1.926-5.866M16 15.999l2.62 7.975 3.298 3.298 4.973-5.71-2.94-2.94L16 15.999z" fill="#967a44"></path><path fill="#967a44" d="M17.587 20.828l2.913-3.345-4.5-1.484z"></path><path d="M36.223 39.5a3.256 3.256 0 01-2.317-.96l-2.196-2.196 4.635-4.635 2.196 2.196a3.28 3.28 0 010 4.635 3.26 3.26 0 01-2.318.96z" fill="#f78f8f"></path><path d="M36.344 32.416l1.843 1.842a2.78 2.78 0 010 3.928 2.759 2.759 0 01-1.964.814 2.762 2.762 0 01-1.964-.813l-1.843-1.842 3.928-3.929m0-1.414l-5.342 5.342 2.55 2.55c.737.737 1.704 1.106 2.671 1.106s1.933-.369 2.671-1.106a3.778 3.778 0 000-5.342l-2.55-2.55z" fill="#c74343"></path><g><path d="M19.67 24.315c.532-.233.972-.72 1.089-1.561 1.245-.199 1.773-1.186 1.934-1.958a1.987 1.987 0 001.157-.579c.18-.187.307-.394.396-.596L34.83 30.194l-4.634 4.635L19.67 24.315z" fill="#ffeea3"></path><path d="M24.337 20.42l9.784 9.774-3.928 3.928-9.731-9.721c.328-.287.59-.689.726-1.232 1.056-.305 1.653-1.138 1.909-1.951a2.438 2.438 0 001.24-.798m-.386-1.799s.061 1.708-1.703 1.708c0 0-.061 1.961-1.958 1.961 0 1.531-1.028 1.696-1.471 1.696-.121 0-.199-.012-.199-.012l11.574 11.562 5.342-5.342-11.585-11.573z" fill="#ba9b48"></path></g><g><path fill="#d9e7f5" d="M29.723 34.358l4.635-4.635 3.397 3.397-4.635 4.635z"></path><path d="M34.358 30.43l2.69 2.69-3.928 3.928-2.69-2.69 3.928-3.928m0-1.414l-5.342 5.342 4.104 4.104 5.342-5.342-4.104-4.104z" fill="#788b9c"></path></g></svg>