<svg viewBox="0 0 40 40" xmlns="http://www.w3.org/2000/svg"><path fill="#fff" d="M6.5 37.5v-35h18.293l8.707 8.707V37.5z"></path><path d="M24.586 3L33 11.414V37H7V3h17.586M25 2H6v36h28V11l-9-9z" fill="#788b9c"></path><path fill="#c5d4de" d="M20.674 38H34V22.242l-1 .993V37H20.995z"></path><path fill="#fff" d="M24.5 11.5v-9h.293l8.707 8.707v.293z"></path><path d="M25 3.414L32.586 11H25V3.414M25 2h-1v10h10v-1l-9-9z" fill="#788b9c"></path><g><path fill="#f5ce85" d="M24.265 34.674l1.666-1.666 3.285 2.861-1.87 1.87-4.566 1.484z"></path><path d="M25.954 33.691l2.529 2.203-1.406 1.406-3.516 1.143 1.142-3.501 1.251-1.251m-.047-1.367l-2.081 2.081L22 40.002l5.614-1.825 2.334-2.334-4.041-3.519z" fill="#967a44"></path><path fill="#36404d" d="M23.061 36.758l-1.059 3.246 3.256-1.058z"></path><path d="M34.906 24.021l.885-.884c.41-.41.955-.636 1.536-.636a2.174 2.174 0 011.536 3.709l-.884.884-3.073-3.073z" fill="#f78f8f"></path><path d="M37.327 23c.447 0 .867.174 1.183.49.316.316.49.736.49 1.183s-.174.867-.49 1.183l-.53.53-2.366-2.366.53-.53c.316-.316.736-.49 1.183-.49m0-1c-.684 0-1.368.261-1.89.783L34.2 24.02l3.78 3.78 1.237-1.237A2.673 2.673 0 0037.327 22z" fill="#c74343"></path><g><path d="M27.893 37.191a1.322 1.322 0 00-.118-.161c-.221-.258-.522-.424-.9-.495-.176-.793-.803-1.211-1.384-1.36a1.536 1.536 0 00-.713-1.015l8.516-8.525 3.073 3.073-8.474 8.483z" fill="#ffeea3"></path><path d="M33.293 26.342l2.366 2.366-7.75 7.759a1.993 1.993 0 00-.631-.342c-.255-.704-.813-1.132-1.383-1.346a2.001 2.001 0 00-.385-.645l7.783-7.792m0-1.415l-9.466 9.478h.015c.137 0 1.194.038 1.194 1.205 0 0 1.388.043 1.388 1.386 1.38 0 1.191 1.182 1.191 1.182l9.459-9.47-3.781-3.781z" fill="#ba9b48"></path></g><g><path fill="#d9e7f5" d="M32.83 26.096l2.302-2.3 3.073 3.073-2.301 2.3z"></path><path d="M35.132 24.503l2.366 2.366-1.594 1.594-2.366-2.366 1.594-1.594m0-1.414l-3.008 3.008 3.78 3.78 3.008-3.008-3.78-3.78z" fill="#788b9c"></path></g></g></svg>