<svg viewBox="0 0 40 40" xmlns="http://www.w3.org/2000/svg"><path d="M1.512 36.5c.268-5.559 4.982-10 10.738-10h7.5c3.605 0 6.911 1.725 8.917 4.633L24.124 36.5H1.512z" fill="#8bb7f0"></path><path d="M19.75 27c3.31 0 6.354 1.523 8.283 4.108L23.892 36H2.051c.516-5.046 4.893-9 10.199-9h7.5m0-1h-7.5C6.037 26 1 30.925 1 37h23.356l4.935-5.831C27.302 28.065 23.773 26 19.75 26z" fill="#4e7ab5"></path><path d="M16 29.5c-3.076 0-4.296-2.625-4.5-3.122v-5.469h9v5.469c-.204.497-1.424 3.122-4.5 3.122z" fill="#deb974"></path><path d="M20 21.41v4.865c-.263.59-1.393 2.725-4 2.725-2.611 0-3.741-2.141-4-2.725V21.41h8m1-1H11v6.062s1.267 3.529 5 3.529 5-3.529 5-3.529V20.41z" fill="#967a44"></path><path fill="#f5ce85" d="M22.249 33.686l1.682-1.682 3.284 2.861-1.886 1.886-5.378 2.297z"></path><path d="M23.954 32.687l2.529 2.203-1.439 1.439-4.142 1.769 1.768-4.127 1.284-1.284m-.047-1.367l-2.081 2.081L19 39.998l6.614-2.825 2.334-2.333-4.041-3.52z" fill="#967a44"></path><path fill="#36404d" d="M20.604 36.261L19.002 40l3.749-1.601z"></path><path d="M34.907 21.019l.884-.884c.411-.41.956-.637 1.537-.637s1.126.227 1.537.637a2.175 2.175 0 010 3.072l-.884.884-3.074-3.072z" fill="#f78f8f"></path><path d="M37.327 19.998a1.675 1.675 0 011.183 2.856l-.53.53-2.366-2.366.53-.53c.316-.316.736-.49 1.183-.49m0-1c-.684 0-1.368.261-1.89.783L34.2 21.018l3.78 3.78 1.237-1.237a2.673 2.673 0 00-1.89-4.563z" fill="#c74343"></path><g><path d="M25.893 36.187a1.449 1.449 0 00-.119-.161c-.22-.259-.522-.424-.9-.495-.176-.793-.803-1.21-1.384-1.36a1.538 1.538 0 00-.713-1.015l10.515-10.523 3.073 3.073-10.472 10.481z" fill="#ffeea3"></path><path d="M33.293 23.339l2.366 2.366-9.749 9.757a2.004 2.004 0 00-.631-.342c-.255-.704-.813-1.132-1.383-1.346a2.017 2.017 0 00-.384-.645l9.781-9.79m0-1.414L21.827 33.401h.015c.137 0 1.194.038 1.194 1.205 0 0 1.388.043 1.388 1.386 1.38 0 1.191 1.182 1.191 1.182l11.459-11.468-3.781-3.781z" fill="#ba9b48"></path></g><g><path fill="#d9e7f5" d="M32.83 23.095l2.302-2.301 3.073 3.073-2.301 2.3z"></path><path d="M35.131 21.501l2.366 2.366-1.594 1.594-2.366-2.366 1.594-1.594m0-1.415l-3.008 3.008 3.78 3.78 3.008-3.008-3.78-3.78z" fill="#788b9c"></path></g><g><path d="M16 25.5a2.457 2.457 0 01-1.641-.631l-.09-.079-.117-.029A7.487 7.487 0 018.5 17.5V8.201a3.316 3.316 0 013.312-3.312h8.375A3.316 3.316 0 0123.5 8.201V17.5a7.487 7.487 0 01-5.652 7.261l-.117.029-.09.079A2.457 2.457 0 0116 25.5z" fill="#f5ce85"></path><path d="M20.187 5.389A2.816 2.816 0 0123 8.202V17.5a6.988 6.988 0 01-5.275 6.776l-.233.059-.181.159A1.972 1.972 0 0116 25a1.972 1.972 0 01-1.311-.506l-.181-.159-.233-.059A6.988 6.988 0 019 17.5V8.202a2.816 2.816 0 012.813-2.813h8.374m0-1h-8.375A3.813 3.813 0 008 8.202V17.5c0 3.737 2.566 6.866 6.029 7.745.528.464 1.213.755 1.971.755s1.443-.291 1.971-.755C21.434 24.366 24 21.237 24 17.5V8.202a3.813 3.813 0 00-3.813-3.813z" fill="#967a44"></path></g><g><path d="M24 25.5c-1.767 0-3.411-.911-4.27-1.484 1.045-.658 2.77-2.223 2.77-5.373v-4.724c0-2.41-2.086-4.223-2.175-4.299l-.43-.368-.312.473c-.021.032-2.135 3.156-6.651 3.78-2.358.325-3.432 2.109-3.432 3.629v1.509c0 3.193 1.708 4.734 2.757 5.381C11.398 24.597 9.764 25.5 8 25.5c-1.786 0-3.378-.935-4.16-1.484.882-.695 2.445-2.24 2.445-4.444 0-.928-.176-1.909-.362-2.948C5.715 15.463 5.5 14.263 5.5 13c0-8.488 5.387-11.5 10-11.5 3.802 0 5.031 2.676 5.043 2.702l.131.298H21c3.495 0 5.5 2.733 5.5 7.5 0 1.342-.268 2.836-.528 4.281-.243 1.353-.472 2.631-.472 3.719 0 1.845 1.459 2.852 2.642 3.281-.708.811-2.214 2.219-4.142 2.219z" fill="#a6714e"></path><path d="M15.5 2c3.427 0 4.543 2.315 4.586 2.405l.263.595H21c3.224 0 5 2.486 5 7 0 1.298-.264 2.769-.52 4.193C25.233 17.569 25 18.868 25 20c0 1.764 1.141 2.855 2.289 3.45C26.545 24.165 25.38 25 24 25c-1.274 0-2.497-.524-3.357-1.01C21.732 23.107 23 21.472 23 18.643v-4.724c0-2.638-2.254-4.596-2.35-4.678l-.858-.728-.626.936c-.081.121-2.03 2.971-6.303 3.561C10.209 13.376 9 15.404 9 17.133v1.509c0 2.863 1.254 4.489 2.342 5.361-.851.483-2.06.997-3.342.997-1.313 0-2.525-.556-3.331-1.041.942-.88 2.117-2.379 2.117-4.388 0-.972-.18-1.975-.37-3.036C6.211 15.396 6 14.218 6 13c0-8.119 5.118-11 9.5-11m0-1C10.212 1 5 4.694 5 13c0 2.454.786 4.682.786 6.571C5.786 22.327 3 24 3 24s2.254 2 5 2c2.794 0 5.211-2.056 5.211-2.056S10 22.918 10 18.643v-1.509c0-1.354.942-2.849 3-3.134 4.816-.665 7-4 7-4s2 1.711 2 3.919v4.724c0 4.194-3.214 5.302-3.214 5.302S21.225 26 24 26c3.005 0 5-3 5-3s-3-.535-3-3c0-2.19 1-5.352 1-8 0-5.761-2.766-8-6-8 0 0-1.328-3-5.5-3z" fill="#7a4f34"></path></g></svg>