<svg viewBox="0 0 40 40" xmlns="http://www.w3.org/2000/svg"><path d="M1.512 35.5c.268-5.559 4.982-10 10.738-10h7.5c3.605 0 6.911 1.725 8.917 4.633L24.124 35.5H1.512z" fill="#8bb7f0"></path><path d="M19.75 26c3.31 0 6.354 1.523 8.283 4.108L23.892 35H2.051c.516-5.046 4.893-9 10.199-9h7.5m0-1h-7.5C6.037 25 1 29.925 1 36h23.356l4.935-5.831C27.302 27.065 23.773 25 19.75 25z" fill="#4e7ab5"></path><path d="M16 28.5c-3.076 0-4.296-2.625-4.5-3.122v-5.469h9v5.469c-.204.497-1.424 3.122-4.5 3.122z" fill="#deb974"></path><path d="M20 20.41v4.865c-.263.59-1.393 2.725-4 2.725-2.611 0-3.741-2.141-4-2.725V20.41h8m1-1H11v6.062s1.267 3.529 5 3.529 5-3.529 5-3.529V19.41z" fill="#967a44"></path><path fill="#f5ce85" d="M22.249 33.686l1.682-1.682 3.284 2.861-1.886 1.886-5.378 2.297z"></path><path d="M23.954 32.687l2.529 2.203-1.439 1.439-4.142 1.769 1.768-4.127 1.284-1.284m-.047-1.367l-2.081 2.081L19 39.998l6.614-2.825 2.334-2.333-4.041-3.52z" fill="#967a44"></path><path fill="#36404d" d="M20.604 36.261L19.002 40l3.749-1.601z"></path><path d="M34.907 21.019l.884-.884c.411-.41.956-.637 1.537-.637s1.126.227 1.537.637a2.175 2.175 0 010 3.072l-.884.884-3.074-3.072z" fill="#f78f8f"></path><path d="M37.327 19.998a1.675 1.675 0 011.183 2.856l-.53.53-2.366-2.366.53-.53c.316-.316.736-.49 1.183-.49m0-1c-.684 0-1.368.261-1.89.783L34.2 21.018l3.78 3.78 1.237-1.237a2.673 2.673 0 00-1.89-4.563z" fill="#c74343"></path><path d="M25.893 36.187a1.449 1.449 0 00-.119-.161c-.22-.259-.522-.424-.9-.495-.176-.793-.803-1.21-1.384-1.36a1.538 1.538 0 00-.713-1.015l10.515-10.523 3.073 3.073-10.472 10.481z" fill="#ffeea3"></path><path d="M33.293 23.339l2.366 2.366-9.749 9.757a2.004 2.004 0 00-.631-.342c-.255-.704-.813-1.132-1.383-1.346a2.017 2.017 0 00-.384-.645l9.781-9.79m0-1.414L21.827 33.401h.015c.137 0 1.194.038 1.194 1.205 0 0 1.388.043 1.388 1.386 1.38 0 1.191 1.182 1.191 1.182l11.459-11.468-3.781-3.781z" fill="#ba9b48"></path><g><path fill="#d9e7f5" d="M32.83 23.095l2.302-2.301 3.073 3.073-2.301 2.3z"></path><path d="M35.131 21.501l2.366 2.366-1.594 1.594-2.366-2.366 1.594-1.594m0-1.415l-3.008 3.008 3.78 3.78 3.008-3.008-3.78-3.78z" fill="#788b9c"></path></g><g><path d="M22.429 17.643c-1.143 0-2.072-.929-2.072-2.071s.929-2.071 2.072-2.071c1.725 0 2.071.465 2.071 1.214 0 1.251-1.024 2.928-2.071 2.928zm-12.858 0c-1.047 0-2.071-1.677-2.071-2.929 0-.749.347-1.214 2.071-1.214 1.143 0 2.072.929 2.072 2.071s-.929 2.072-2.072 2.072z" fill="#deb974"></path><path d="M22.429 14C24 14 24 14.363 24 14.714c0 1.044-.896 2.429-1.571 2.429a1.572 1.572 0 010-3.143M9.571 14c.867 0 1.571.705 1.571 1.571s-.705 1.571-1.571 1.571C8.896 17.143 8 15.758 8 14.714 8 14.363 8 14 9.571 14m12.858-1a2.57 2.57 0 100 5.142c1.42 0 2.571-2.008 2.571-3.428S23.849 13 22.429 13zM9.571 13C8.151 13 7 13.294 7 14.714s1.151 3.429 2.571 3.429a2.57 2.57 0 100-5.143z" fill="#967a44"></path></g><g><path d="M16 24.5a2.25 2.25 0 01-1.56-.631l-.09-.086-.12-.034A6.518 6.518 0 019.5 17.5V9.364a2.84 2.84 0 012.836-2.837h7.328A2.84 2.84 0 0122.5 9.364V17.5a6.518 6.518 0 01-4.73 6.249l-.12.034-.09.086A2.25 2.25 0 0116 24.5z" fill="#f5ce85"></path><path d="M19.664 7.028A2.339 2.339 0 0122 9.364V17.5a6.017 6.017 0 01-4.367 5.768l-.239.068-.18.172c-.332.317-.763.492-1.214.492s-.882-.175-1.214-.492l-.18-.172-.239-.068A6.017 6.017 0 0110 17.5V9.364a2.339 2.339 0 012.336-2.336h7.328m0-1h-7.328A3.336 3.336 0 009 9.364V17.5c0 3.205 2.156 5.9 5.095 6.731.496.474 1.165.769 1.905.769s1.409-.295 1.905-.769A6.998 6.998 0 0023 17.5V9.364a3.336 3.336 0 00-3.336-3.336z" fill="#967a44"></path></g><g><path d="M22.5 15.5V12c0-3.484-2.217-4.425-2.312-4.463l-.342-.14-.234.287C19.589 7.713 17.283 10.5 14 10.5c-.264 0-.53-.009-.791-.017a23.163 23.163 0 00-.778-.017c-.877 0-2.931 0-2.931 2.533v2.5h-.214C8.845 14.727 7.5 12.151 7.5 9.576 7.5 4.821 10.995 1.5 16 1.5c3.078 0 4.499 2.621 4.557 2.732l.119.226.253.037C22.462 4.715 24.5 5.524 24.5 10c0 2.334-1.337 4.763-1.778 5.5H22.5z" fill="#a6714e"></path><path d="M16 2c2.762 0 4.062 2.367 4.114 2.463l.237.454.507.073C22.321 5.199 24 5.958 24 10c0 1.395-.515 2.842-1 3.894V12c0-3.816-2.516-4.883-2.623-4.926l-.687-.279-.467.577C19.201 7.397 17.06 10 14 10c-.259 0-.519-.008-.775-.017a24.05 24.05 0 00-.794-.017C11.582 9.966 9 9.966 9 13v.801c-.486-1.124-1-2.679-1-4.225C8 5.115 11.29 2 16 2m0-1c-5.36 0-9 3.667-9 8.576C7 12.828 9 16 9 16h1v-3c0-1.791 1.085-2.034 2.431-2.034.501 0 1.038.034 1.569.034 3.573 0 6-3 6-3s2 .813 2 4v4h1s2-3.037 2-6c0-4.161-1.703-5.671-4-6 0 0-1.566-3-5-3z" fill="#7a4f34"></path></g></svg>