<svg viewBox="0 0 40 40" xmlns="http://www.w3.org/2000/svg"><path d="M13.5 33.5c-6.617 0-12-5.327-12-11.875C1.5 12.51 6.853 1.5 13.5 1.5s12 11.01 12 20.125c0 6.548-5.383 11.875-12 11.875z" fill="#c2e8ff"></path><path d="M13.5 2c2.807 0 5.712 2.267 7.97 6.221C23.68 12.09 25 17.101 25 21.625 25 27.897 19.841 33 13.5 33S2 27.897 2 21.625c0-4.536 1.319-9.551 3.529-13.416C7.785 4.263 10.691 2 13.5 2m0-1C6.596 1 1 12.025 1 21.625 1 28.46 6.596 34 13.5 34S26 28.46 26 21.625C26 12.058 20.404 1 13.5 1z" fill="#7496c4"></path><circle cx="11.5" cy="11.5" r="1.5" fill="#92c8eb"></circle><circle cx="5.5" cy="20.5" r="1.5" fill="#92c8eb"></circle><circle cx="17" cy="14" r="1" fill="#92c8eb"></circle><circle cx="16.5" cy="9.5" r=".5" fill="#92c8eb"></circle><circle cx="7.5" cy="14.5" r=".5" fill="#92c8eb"></circle><circle cx="21.5" cy="17.5" r=".5" fill="#92c8eb"></circle><circle cx="11" cy="21" r="1" fill="#92c8eb"></circle><path d="M18.375 38.5c-6.548 0-11.875-5.383-11.875-12s5.327-12 11.875-12c9.115 0 20.125 5.353 20.125 12s-11.01 12-20.125 12z" fill="#ebf8ff"></path><path d="M18.375 15c4.536 0 9.551 1.319 13.416 3.529C35.737 20.785 38 23.691 38 26.5c0 2.807-2.267 5.712-6.221 7.97C27.91 36.681 22.899 38 18.375 38 12.103 38 7 32.841 7 26.5S12.103 15 18.375 15m0-1C11.54 14 6 19.596 6 26.5S11.54 39 18.375 39C27.942 39 39 33.404 39 26.5S27.975 14 18.375 14z" fill="#7496c4"></path><circle cx="28.5" cy="25.5" r="1.5" fill="#92c8eb"></circle><circle cx="14.5" cy="30.5" r="1.5" fill="#92c8eb"></circle><circle cx="19.5" cy="19.5" r="1.5" fill="#92c8eb"></circle><circle cx="26" cy="30" r="1" fill="#92c8eb"></circle><circle cx="30.5" cy="29.5" r=".5" fill="#92c8eb"></circle><circle cx="18.5" cy="29.5" r=".5" fill="#92c8eb"></circle><circle cx="12.5" cy="23.5" r=".5" fill="#92c8eb"></circle><circle cx="25.5" cy="20.5" r=".5" fill="#92c8eb"></circle><g><circle cx="22.5" cy="34.5" r=".5" fill="#92c8eb"></circle></g><g><circle cx="19" cy="24" r="1" fill="#92c8eb"></circle></g></svg>