<svg viewBox="0 0 40 40" xmlns="http://www.w3.org/2000/svg"><path d="M19 22h1l1.5 5h5S21 15.273 21 3h-3c0 12.273-5.5 24-5.5 24h5l1.5-5z" fill="#d6aa70"></path><path fill="none" stroke="#ad8a5d" stroke-width=".75" stroke-linejoin="round" stroke-miterlimit="10" d="M23.659 21.311l-7.052-4.695 5.04-3.564-3.739-3.628 2.865-3.073"></path><path fill="none" stroke="#ad8a5d" stroke-width=".75" stroke-linejoin="round" stroke-miterlimit="10" d="M15.341 21.311l7.052-4.695-5.04-3.564 3.739-3.628-2.865-3.073M21.947 26.549l2.637-2.943-3.932-1.79M17.053 26.549l-2.637-2.943 3.932-1.79"></path><path d="M19.5 31c5.5 0 7.5 8 7.5 8h6l-6-11H12L6 39h6s2-8 7.5-8z" fill="#d6aa70"></path><path fill="none" stroke="#ad8a5d" stroke-width=".75" stroke-linejoin="round" stroke-miterlimit="10" d="M27.75 38.5l2.118-4.37-4.34.047 1.368-5.142-3.987 2.311-1.037-3.679L19.5 30.5M11.25 38.5l-2.118-4.37 4.34.047-1.368-5.142 3.987 2.311 1.037-3.679L19.5 30.5"></path><path d="M20.012 4c.221 9.619 3.547 18.597 4.962 22h-2.729l-1.286-4.287A1.002 1.002 0 0020 21h-1a1 1 0 00-.958.713L16.756 26h-2.729c1.414-3.403 4.741-12.381 4.962-22h1.023M21 3h-3c0 12.273-5.5 24-5.5 24h5l1.5-5h1l1.5 5h5S21 15.273 21 3zM26.406 29l4.909 9h-3.568c-.692-2.139-3.061-8-8.248-8s-7.556 5.861-8.248 8H7.685l4.909-9h13.812M27 28H12L6 39h6s2-8 7.5-8 7.5 8 7.5 8h6l-6-11z" fill="#8c6a3f"></path><path fill="none" stroke="#7a4f34" stroke-linecap="square" stroke-miterlimit="10" d="M19.5 1.5v3"></path><path fill="#a6714e" d="M17.5 5.5V3.338l2-.799 2 .799V5.5z"></path><path d="M19.5 3.077l1.5.6V5h-3V3.677l1.5-.6M19.5 2L17 3v3h5V3l-2.5-1z" fill="#7a4f34"></path><path fill="#a6714e" d="M11.5 26.5h16v2h-16z"></path><path d="M27 27v1H12v-1h15m1-1H11v3h17v-3z" fill="#7a4f34"></path><path fill="none" stroke="#7a4f34" stroke-linecap="square" stroke-miterlimit="10" d="M14.5 21.5h10M6.5 38.5h6M26.5 38.5h6"></path></svg>