<svg viewBox="0 0 40 40" xmlns="http://www.w3.org/2000/svg"><path d="M13 34.5c-2.82 0-5.106-1-5.203-1.043l-.292-.129-.005-.32c-.002-.1-.022-1.829.376-3.469-1.455 1.327-2.455 2.732-2.468 2.75l-.461.652-4.34-7.874.114-.233c.102-.209 2.368-4.788 5.922-6.484-2.286-1.648-3.69-1.852-3.706-1.854l-.639-.085.237-.598c.129-.32 3.232-7.879 10.198-12.237l.258-.161.262.154c1.762 1.037 2.993 2.604 3.816 4.021l-.635-5.09h7.143l-.627 4.416c.456-.805 1.021-1.612 1.701-2.274l.24-.233.307.133c2.218.958 4.096 3.038 4.174 3.125l.307.342-.315.334c-.293.312-.725.784-1.2 1.329a20.65 20.65 0 011.576-1.099l.28-.171.269.19c.219.154 5.359 3.83 6.203 8.316l.092.489-.488.094c-.274.052-.535.108-.782.167.604.04 1.151.163 1.633.366l.222.094.064.232c.589 2.104.014 3.75-.011 3.819l-.12.331h-2.159c1.485.666 3.218 1.702 4.309 3.207l.178.245-.134.271c-1.635 3.301-4.914 5.139-5.053 5.216l-.407.225-.254-.39a13.154 13.154 0 00-1.477-1.839c.369 1.324.395 2.49.396 2.559l.004.21-.148.149c-.087.086-2.16 2.147-5.357 2.147H13z" fill="#f2faff"></path><path d="M23 3l-1.1 7.758S22.862 7.078 25 5c2.142.925 4 3 4 3s-3.836 4.065-4.25 5.667C26.892 10.899 30 9 30 9s5.184 3.662 6 8c-3.688.708-5 2-5 2s1.917-.856 3.871-.856c.645 0 1.293.093 1.879.341.553 1.974 0 3.515 0 3.515H32s4.746 1.105 6.847 4C37.262 29.198 34 31 34 31s-1.584-2.439-3-3c.962 1.744 1 4 1 4s-1.974 2-5 2H13c-2.747 0-5-1-5-1s-.053-3.286 1-5c-2.277 1.562-4 4-4 4l-3.829-6.947s2.596-5.322 6.479-6.568C4.78 16.212 3 16 3 16S6.092 8.322 13 4c3.734 2.198 5 7 5 7l-1-8h6m1.152-1h-8.285l.14 1.124.311 2.49c-.745-.924-1.672-1.805-2.812-2.476l-.522-.308-.514.322C5.367 7.596 2.204 15.301 2.072 15.626l-.488 1.212 1.297.154c.002 0 1.049.167 2.807 1.308-3.281 2-5.318 6.114-5.416 6.315l-.228.467.251.455 3.829 6.947.77 1.396.922-1.301c.009-.013.504-.705 1.293-1.565A16.28 16.28 0 007 33.016l.01.639.584.259C7.694 33.958 10.074 35 13 35h14c3.405 0 5.619-2.204 5.712-2.297l.295-.299-.007-.421c-.001-.034-.007-.317-.052-.751.082.116.154.221.214.313l.507.781.815-.45c.144-.08 3.556-1.993 5.26-5.431l.269-.542-.355-.489c-.719-.99-1.696-1.785-2.705-2.413h.503l.238-.662c.027-.075.653-1.867.022-4.123l-.13-.464-.443-.188-.018-.007-.139-.741c-.881-4.683-6.181-8.473-6.406-8.632l-.225-.159.006-.007-.613-.685c-.082-.091-2.031-2.25-4.349-3.251l-.614-.265-.48.466a8.397 8.397 0 00-.56.602l.245-1.745.162-1.14z" fill="#66798f"></path><path d="M24.75 13.667s3.75-2.15 7.217-3.012C30.879 9.625 30 9 30 9s-3.108 1.899-5.25 4.667zM15 16c-.707-2.204-4.529-6.261-6.483-8.295a28.19 28.19 0 00-1.812 2.117C8.934 11.148 14.189 14.389 15 16zM37.759 27.713c.402-.516.777-1.087 1.088-1.713-2.1-2.89-6.847-4-6.847-4s3.774 2.498 5.759 5.713z" fill="#b0c1d4"></path><g fill="#b0c1d4"><path d="M7.646 18.482l.001.001.003-.003zM7.642 18.488a6.678 6.678 0 00-.92.39 8.754 8.754 0 00-.303.16c-.167.093-.328.198-.49.303-2.275 1.513-3.903 4.149-4.503 5.229-.084.161-.154.297-.197.375l-.058.107 1.115 2.022c.611-1.823 2.162-5.615 5.356-8.586z"></path></g><path d="M18 13c.95-4.03 1-10 1-10h-2l1 8s.003 1.68 0 2zM21.938 10.486c-.606 1.743-.938 3.181-.938 3.181s2.532-4.821 5.527-7.809A9.278 9.278 0 0025 5c-2.138 2.078-3.1 5.758-3.1 5.758l.038-.272z" fill="#b0c1d4"></path><circle cx="12.5" cy="25.5" r="2" fill="#e8d47b"></circle><path d="M12.5 24c.827 0 1.5.673 1.5 1.5s-.673 1.5-1.5 1.5-1.5-.673-1.5-1.5.673-1.5 1.5-1.5m0-1a2.5 2.5 0 100 5 2.5 2.5 0 000-5z" fill="#ba9b48"></path><circle cx="27.5" cy="25.5" r="2" fill="#e8d47b"></circle><path d="M27.5 24c.827 0 1.5.673 1.5 1.5s-.673 1.5-1.5 1.5-1.5-.673-1.5-1.5.673-1.5 1.5-1.5m0-1a2.5 2.5 0 100 5 2.5 2.5 0 000-5z" fill="#ba9b48"></path><path d="M20 36.5a2.499 2.499 0 01-1.992-1.003l-.12-.157-.194-.033c-3.647-.612-6.194-2.589-6.194-4.807 0-1.074.599-3.22 1.936-5.595l.064-.114v-5.69c.667.271 1.585.399 2.5.399 1.561 0 2.634-.529 3.672-1.042.999-.493 1.942-.958 3.328-.958 2.003 0 3.5.792 3.5 1.5v5.792l.064.114c1.337 2.374 1.936 4.52 1.936 5.594 0 2.218-2.547 4.195-6.193 4.807l-.194.033-.12.157A2.502 2.502 0 0120 36.5z" fill="#ffeea3"></path><path d="M23 18c2.035 0 3 .802 3 1V24.922l.129.228C27.414 27.434 28 29.524 28 30.5c0 1.937-2.429 3.752-5.776 4.314l-.389.065-.24.314A2 2 0 0120 36a2 2 0 01-1.595-.807l-.24-.314-.389-.065C14.429 34.252 12 32.437 12 30.5c0-.976.586-3.066 1.871-5.349l.129-.229V19.785A8.68 8.68 0 0016 20c1.677 0 2.854-.581 3.893-1.093C20.879 18.42 21.731 18 23 18m0-1c-2.984 0-4.094 2-7 2-1.66 0-3-.45-3-1v6.66c-1.25 2.22-2 4.53-2 5.84 0 2.53 2.8 4.66 6.61 5.3.55.72 1.41 1.2 2.39 1.2s1.84-.48 2.39-1.2c3.81-.64 6.61-2.77 6.61-5.3 0-1.31-.75-3.62-2-5.84V19c0-1.1-1.79-2-4-2z" fill="#ba9b48"></path><path d="M20 31.5c-1.526 0-2.5-.592-2.5-1s.974-1 2.5-1 2.5.592 2.5 1-.974 1-2.5 1z" fill="#e8d47b"></path><path d="M20 30c1.037 0 1.713.306 1.942.5-.229.194-.905.5-1.942.5s-1.713-.306-1.942-.5c.229-.194.905-.5 1.942-.5m0-1c-1.657 0-3 .672-3 1.5s1.343 1.5 3 1.5 3-.672 3-1.5-1.343-1.5-3-1.5z" fill="#ba9b48"></path><circle cx="22.5" cy="24.5" r="1.5" fill="#36404d"></circle><circle cx="17.5" cy="24.5" r="1.5" fill="#36404d"></circle><path d="M24.899 31a5 5 0 00-9.798 0h9.798z" fill="#b0c1d4"></path><circle cx="20" cy="27" r="2" fill="#ffeea3"></circle></svg>