<svg viewBox="0 0 40 40" xmlns="http://www.w3.org/2000/svg"><path fill="#8bb7f0" d="M9.573 38.5l1.4-10.181.303-6.71 3.46 2.556-.09 5.12-1.275 9.215z"></path><path d="M11.734 22.569l2.498 1.845-.084 4.803L12.935 38h-2.788l1.321-9.613.006-.045.002-.046.258-5.727m-.915-1.919l-.341 7.601L9 39h4.807l1.339-9.706.094-5.379-4.421-3.265z" fill="#4e7ab5"></path><path fill="#36404d" d="M27 20h-2l5 19h2z"></path><circle cx="24" cy="5" r="3.5" fill="#ffeea3"></circle><path d="M24 2c1.654 0 3 1.346 3 3s-1.346 3-3 3-3-1.346-3-3 1.346-3 3-3m0-1a4 4 0 100 8 4 4 0 000-8z" fill="#ba9b48"></path><g><path d="M18.586 38.5l-2.129-8.737-6.194-7.104c-1.22-1.33-1.698-2.438-1.558-3.599.352-2.934 1.823-8.517 7.691-13.358l10.726 13.126c.29.35.43.793.385 1.22-.044.43-.265.812-.636 1.107l.001.001a1.632 1.632 0 01-2.229-.215l-6.625-7.687-.38.401c-.103.108-2.52 2.686-3.13 6.26l-.035.206 5.066 7.092 2.82 11.287h-3.773z" fill="#8bb7f0"></path><path d="M16.33 6.411L26.74 19.15c.203.244.301.552.27.846a1.118 1.118 0 01-.435.756l-.076.058a1.126 1.126 0 01-1.475-.193l-6.267-7.27-.722-.837-.761.801c-.107.113-2.624 2.798-3.261 6.52l-.07.411.242.339 4.89 6.845L21.719 38h-2.74l-2.007-8.237-.058-.237-.16-.184-6.131-7.032c-1.119-1.22-1.544-2.174-1.422-3.192.336-2.793 1.714-8.053 7.129-12.707M16.468 5c-5.544 4.401-7.752 9.764-8.26 14-.187 1.556.619 2.832 1.678 3.987L16 30l2.193 9H23l-3-12-5-7c.593-3.465 3-6 3-6l6.267 7.27a2.125 2.125 0 002.961.242l-.047.036a5.986 5.986 0 01-.083.063l.083-.063c1.04-.823 1.063-2.154.33-3.037L16.468 5z" fill="#4e7ab5"></path></g></svg>