<svg viewBox="0 0 40 40" xmlns="http://www.w3.org/2000/svg"><path fill="none" stroke="#c74343" stroke-linecap="round" stroke-miterlimit="10" d="M29.429 30.5H33.5"></path><path d="M6.5 35.5V14.571c0-4.003-2.308-6.934-3.333-8.038 2.056-1.116 10.285-4.887 27.837-5.025l.496-.004V1.5h.5c3.032 0 5.5 2.468 5.5 5.5v14c0 3.032-2.468 5.5-5.5 5.5h-1.5v9h-24zM32 4.5A2.502 2.502 0 0029.5 7v14c0 1.379 1.121 2.5 2.5 2.5s2.5-1.121 2.5-2.5V7c0-1.379-1.121-2.5-2.5-2.5z" fill="#dbf2ff"></path><path d="M32 2c2.757 0 5 2.243 5 5v14c0 2.757-2.243 5-5 5h-2v9H7V14.571C7 10.9 5.141 8.093 3.964 6.684c2.707-1.334 10.891-4.55 27.044-4.677L31.502 2H32m0 22c1.654 0 3-1.346 3-3V7c0-1.654-1.346-3-3-3s-3 1.346-3 3v14c0 1.654 1.346 3 3 3m0-23h-1v.008C10.044 1.173 2.357 6.429 2.357 6.429S6 9.7 6 14.571V36h25v-9h1a6 6 0 006-6V7a6 6 0 00-6-6zm0 22a2 2 0 01-2-2V7a2 2 0 114 0v14a2 2 0 01-2 2z" fill="#7496c4"></path><path d="M5.5 38.5V36c0-.827.673-1.5 1.5-1.5h23c.827 0 1.5.673 1.5 1.5v2.5h-26z" fill="#8bb7f0"></path><path d="M30 35c.551 0 1 .449 1 1v2H6v-2c0-.551.449-1 1-1h23m0-1H7a2 2 0 00-2 2v3h27v-3a2 2 0 00-2-2z" fill="#4e7ab5"></path><path d="M23 28.5a2.502 2.502 0 01-2.5-2.5v-9c0-1.379 1.121-2.5 2.5-2.5s2.5 1.121 2.5 2.5v9c0 1.379-1.121 2.5-2.5 2.5z" fill="#8bb7f0"></path><path d="M23 15c1.103 0 2 .897 2 2v9c0 1.103-.897 2-2 2s-2-.897-2-2v-9c0-1.103.897-2 2-2m0-1a3 3 0 00-3 3v9a3 3 0 106 0v-9a3 3 0 00-3-3z" fill="#4e7ab5"></path><path fill="none" stroke="#4e7ab5" stroke-miterlimit="10" d="M23 18.5h3M23 21.5h3M23 24.5h3"></path></svg>