<svg viewBox="0 0 40 40" xmlns="http://www.w3.org/2000/svg"><path fill="#c2e8ff" d="M0 6h40v28H0z"></path><path fill="#8bb7f0" d="M0 19h40v1H0z"></path><path fill="#7496c4" d="M1 6h2v1H1zM9 6h2v1H9zM5 6h2v1H5zM13 6h2v1h-2zM17 6h2v1h-2zM21 6h2v1h-2zM25 6h2v1h-2zM33 6h2v1h-2zM29 6h2v1h-2zM37 6h2v1h-2zM1 33h2v1H1zM9 33h2v1H9zM5 33h2v1H5zM13 33h2v1h-2zM17 33h2v1h-2zM21 33h2v1h-2zM25 33h2v1h-2zM33 33h2v1h-2zM29 33h2v1h-2zM37 33h2v1h-2z"></path><path d="M39 15s-.041-5-4.099-5C29.364 10 29.55 24 21 24c-4.153 0-3.171 6-6.429 6-5.7 0-4.778-19-9.989-19C1.052 11 1 15 1 15" fill="none" stroke="#4e7ab5" stroke-width="2" stroke-linejoin="round" stroke-miterlimit="10"></path></svg>