<svg viewBox="0 0 40 40" xmlns="http://www.w3.org/2000/svg"><path d="M5 33.5c-1.93 0-3.5-1.57-3.5-3.5V10c0-1.93 1.57-3.5 3.5-3.5h30c1.93 0 3.5 1.57 3.5 3.5v20c0 1.93-1.57 3.5-3.5 3.5H5z" fill="#c2e8ff"></path><path d="M35 7c1.654 0 3 1.346 3 3v20c0 1.654-1.346 3-3 3H5c-1.654 0-3-1.346-3-3V10c0-1.654 1.346-3 3-3h30m0-1H5a4 4 0 00-4 4v20a4 4 0 004 4h30a4 4 0 004-4V10a4 4 0 00-4-4z" fill="#7496c4"></path><circle cx="26" cy="15" r="4" fill="#4e7ab5"></circle><path d="M33 28a7 7 0 10-14 0h14z" fill="#4e7ab5"></path><g><path d="M8 22.5a.5.5 0 01-.5-.5v-5a.5.5 0 01.5-.5h7a.5.5 0 01.5.5v5a.5.5 0 01-.5.5H8z" fill="#ffeea3"></path><path d="M15 17v5H8v-5h7m0-1H8a1 1 0 00-1 1v5a1 1 0 001 1h7a1 1 0 001-1v-5a1 1 0 00-1-1z" fill="#ba9b48"></path></g></svg>