<svg viewBox="0 0 40 40" xmlns="http://www.w3.org/2000/svg"><path fill="none" stroke="#4e7ab5" stroke-width="2" stroke-miterlimit="10" d="M21 20.03L15 20 12 8 7 32 4 20l-4-.024"></path><circle cx="21" cy="20.03" r="2.5" fill="#8bb7f0"></circle><path d="M21 18.03c1.103 0 2 .897 2 2s-.897 2-2 2-2-.897-2-2 .897-2 2-2m0-1a3 3 0 100 6 3 3 0 000-6z" fill="#4e7ab5"></path><path d="M21 12.03v2c3.308 0 6 2.692 6 6s-2.692 6-6 6v2a8 8 0 000-16z" fill="#4e7ab5"></path><path d="M21 7.03v2c6.065 0 11 4.935 11 11s-4.935 11-11 11v2c7.18 0 13-5.82 13-13 0-7.179-5.82-13-13-13z" fill="#8bb7f0"></path><path d="M21 2.03v2c8.822 0 16 7.178 16 16s-7.178 16-16 16v2c9.941 0 18-8.059 18-18s-8.059-18-18-18z" fill="#c2e8ff"></path></svg>