<svg viewBox="0 0 40 40" xmlns="http://www.w3.org/2000/svg"><path fill="#f5ce85" d="M26.24 22.75l10.044-10.043 2.008 2.008-10.044 10.043z"></path><path d="M36.285 13.414l1.301 1.301-9.337 9.337-1.301-1.301 9.337-9.337m0-1.414L25.534 22.751l2.715 2.715L39 14.715 36.285 12z" fill="#967a44"></path><path fill="#f5ce85" d="M15.241 11.75L25.285 1.708l2.007 2.008-10.044 10.043z"></path><path d="M25.285 2.414l1.301 1.301-9.337 9.337-1.301-1.301 9.337-9.337m0-1.414L14.534 11.751l2.715 2.715L28 3.715 25.285 1z" fill="#967a44"></path><path fill="#b0c1d4" d="M1.706 34.93l11.507-11.508 3.365 3.364L5.07 38.294z"></path><path d="M13.214 24.129l2.657 2.657-10.8 10.8-2.657-2.657 10.8-10.8m0-1.415L1 34.929 5.071 39l12.214-12.214-4.071-4.072z" fill="#66798f"></path><path fill="#b0c1d4" d="M1.707 35.635l7.456-7.455 2.657 2.657-7.455 7.456z"></path><g><path d="M16.51 37.5a4.465 4.465 0 01-3.175-1.314l-9.521-9.521A4.464 4.464 0 012.5 23.491c0-1.199.467-2.327 1.314-3.175l5.475-5.475a3.405 3.405 0 001.005-2.425c0-.747-.237-1.458-.677-2.047l.354-.354 20.013 20.013-.354.354a3.41 3.41 0 00-2.047-.677c-.916 0-1.777.356-2.425 1.005l-5.475 5.475A4.457 4.457 0 0116.51 37.5z" fill="#b0c1d4"></path><path d="M10.663 11.414l17.919 17.919a3.953 3.953 0 00-.999-.127c-1.05 0-2.037.409-2.779 1.151l-5.474 5.474A3.964 3.964 0 0116.509 37a3.965 3.965 0 01-2.821-1.168l-9.52-9.52a3.995 3.995 0 010-5.642l5.474-5.474a3.93 3.93 0 001.021-3.782m-.691-2.105l-1.036 1.036a2.93 2.93 0 010 4.144l-5.474 5.474a4.99 4.99 0 000 7.056l9.52 9.52A4.97 4.97 0 0016.509 38a4.974 4.974 0 003.528-1.461l5.474-5.474a2.921 2.921 0 012.072-.858c.75 0 1.5.286 2.072.858l1.036-1.036L9.972 9.309z" fill="#66798f"></path></g><g><path fill="#b0c1d4" d="M8.608 9.309l3.436-3.437 22.084 22.084-3.437 3.436z"></path><path d="M12.044 6.579l21.377 21.377-2.73 2.73L9.314 9.309l2.73-2.73m0-1.414L7.9 9.309 30.691 32.1l4.144-4.144L12.044 5.165z" fill="#66798f"></path></g><path fill="#66798f" d="M14.571 30.857l2.715-5.428-2.715-1.207V20l-2.714 5.391 2.714 1.206z"></path></svg>