<svg viewBox="0 0 40 40" xmlns="http://www.w3.org/2000/svg"><path d="M18.453 37.5l-1.028-10.283-.655.34c-.472.244-2.154.943-3.645.943h-2.563l-1.208 9H3.446C3.136 34.755 1.5 20.093 1.5 16v-1C1.5 8.225 6.767 2.5 13 2.5h1.988c1.268 0 2.974.124 3.929.402l.151.044.149-.051c.753-.254 1.512-.395 2.14-.395 1.01 0 1.979.365 2.878 1.086l.26.208.401-.22C25.579 3.199 26.85 2.5 29 2.5c3.945 0 9.5 3.878 9.5 12.5v1c0 9.851-2.369 15.5-6.5 15.5-1.44 0-2.771-.716-3.452-1.841.281-.697.862-1.416 1.551-1.933.307.436.799.773 1.437.773 1.964 0 1.964-2.774 1.964-4.107 0-2.365-1.708-4.893-6.5-4.893h-.5V20c0 1.622-.806 14.828-.97 17.5h-7.077z" fill="#b6c9d6"></path><path d="M29 3c3.737 0 9 3.723 9 12v1c0 4.51-.585 15-6 15-1.153 0-2.258-.544-2.882-1.389.212-.419.539-.838.927-1.193.379.347.883.582 1.491.582C34 29 34 25.771 34 24.393 34 21.786 32.161 19 27 19h-1v1c0 1.529-.728 13.527-.94 17h-6.155l-.91-9.099-.147-1.468-1.309.681c-.557.288-2.124.886-3.414.886h-3l-.116.867L8.917 37H3.893C3.489 33.399 2 19.884 2 16v-1C2 8.607 7.14 3 13 3h1.988c1.192 0 2.886.12 3.79.382l.302.088.298-.101C20.08 3.131 20.783 3 21.357 3c.894 0 1.757.328 2.566.976l.52.416.584-.319.109-.06C25.825 3.634 26.977 3 29 3m0-1c-2.396 0-3.75.813-4.452 1.196C23.597 2.434 22.511 2 21.357 2c-.723 0-1.548.167-2.3.422C17.989 2.111 16.154 2 14.988 2H13C6.282 2 1 8.282 1 15v1c0 4.58 2 22 2 22h6.792L11 29h2.125c1.542 0 3.279-.69 3.875-1l1 10h8s1-16.167 1-18c4.75 0 6 2.519 6 4.393C33 26.267 32.813 28 31.536 28c-.663 0-1.098-.521-1.244-1-1.042.604-1.958 1.667-2.292 2.705.708 1.358 2.266 2.295 4 2.295 4.979 0 7-7.002 7-16v-1c0-8.75-5.664-13-10-13z" fill="#788b9c"></path><path d="M24.5 13.5c0 2.531-3 7-3 9-3.781 0-7-4.25-7-10.5 0-5.238 2.594-9.5 6.857-9.5" fill="none" stroke="#788b9c" stroke-linecap="round" stroke-miterlimit="10"></path><circle cx="8" cy="37" r="1" fill="#788b9c"></circle><circle cx="6" cy="37" r="1" fill="#788b9c"></circle><circle cx="24" cy="37" r="1" fill="#788b9c"></circle><circle cx="22" cy="37" r="1" fill="#788b9c"></circle><circle cx="33.5" cy="12.5" r="1.5" fill="#36404d"></circle></svg>