<svg viewBox="0 0 40 40" xmlns="http://www.w3.org/2000/svg"><path fill="#e1ebf2" d="M1.5 7.5h37v31h-37z"></path><path d="M38 8v30H2V8h36m1-1H1v32h38V7z" fill="#788b9c"></path><path fill="#8bb7f0" d="M25.207 4.5L28 1.707 30.793 4.5z"></path><path d="M28 2.414L29.586 4h-3.172L28 2.414M28 1l-4 4h8l-4-4z" fill="#4e7ab5"></path><path fill="#f78f8f" d="M9.207 1.5h5.586L12 4.293z"></path><path d="M13.586 2L12 3.586 10.414 2h3.172M16 1H8l4 4 4-4z" fill="#c74343"></path><circle cx="20" cy="13" r="2.5" fill="#f5ce85"></circle><path d="M20 11c1.103 0 2 .897 2 2s-.897 2-2 2-2-.897-2-2 .897-2 2-2m0-1a3 3 0 100 6 3 3 0 000-6z" fill="#967a44"></path><path d="M18.463 38.5l-.786-10.221-1.177-.588V21c0-1.93 1.57-3.5 3.5-3.5s3.5 1.57 3.5 3.5v6.691l-1.177.588-.786 10.221h-3.074z" fill="#8bb7f0"></path><path d="M20 18c1.654 0 3 1.346 3 3v6.382l-.647.324-.506.253-.043.565-.73 9.476h-2.148l-.729-9.477-.043-.565-.506-.253-.648-.323V21c0-1.654 1.346-3 3-3m0-1a4 4 0 00-4 4v7l1.2.6L18 39h4l.8-10.4L24 28v-7a4 4 0 00-4-4z" fill="#4e7ab5"></path><g><circle cx="31" cy="13" r="2.5" fill="#f5ce85"></circle><path d="M31 11c1.103 0 2 .897 2 2s-.897 2-2 2-2-.897-2-2 .897-2 2-2m0-1a3 3 0 100 6 3 3 0 000-6z" fill="#967a44"></path></g><g><path d="M29.463 38.5l-.786-10.221-1.177-.588V21c0-1.93 1.57-3.5 3.5-3.5s3.5 1.57 3.5 3.5v6.691l-1.177.588-.786 10.221h-3.074z" fill="#8bb7f0"></path><path d="M31 18c1.654 0 3 1.346 3 3v6.382l-.647.324-.506.253-.043.565-.73 9.476h-2.148l-.729-9.477-.043-.565-.506-.253-.648-.323V21c0-1.654 1.346-3 3-3m0-1a4 4 0 00-4 4v7l1.2.6L29 39h4l.8-10.4L35 28v-7a4 4 0 00-4-4z" fill="#4e7ab5"></path></g><g><circle cx="9" cy="13" r="2.5" fill="#f5ce85"></circle><path d="M9 11c1.103 0 2 .897 2 2s-.897 2-2 2-2-.897-2-2 .897-2 2-2m0-1a3 3 0 100 6 3 3 0 000-6z" fill="#967a44"></path></g><g><path d="M7.463 38.5l-.786-10.221-1.177-.588V21c0-1.93 1.57-3.5 3.5-3.5s3.5 1.57 3.5 3.5v6.691l-1.177.588-.786 10.221H7.463z" fill="#8bb7f0"></path><path d="M9 18c1.654 0 3 1.346 3 3v6.382l-.647.324-.506.253-.043.565-.73 9.476H7.926l-.729-9.477-.043-.565-.506-.253L6 27.382V21c0-1.654 1.346-3 3-3m0-1a4 4 0 00-4 4v7l1.2.6L7 39h4l.8-10.4L13 28v-7a4 4 0 00-4-4z" fill="#4e7ab5"></path></g></svg>