<svg viewBox="0 0 40 40" xmlns="http://www.w3.org/2000/svg"><path d="M30.929 2C32.593 2 34 3.374 34 5v12H6V5c0-1.359 1.402-3 3.143-3h21.786m0-1H9.143C6.904 1 5 3.019 5 5v12c0 .55.45 1 1 1h28c.55 0 1-.45 1-1V5c0-2.2-1.871-4-4.071-4z" fill="#8b75a1"></path><path d="M12.574 20.5c.324-2.238.824-4.575 1.27-6.656.354-1.66.661-3.094.834-4.246C15.04 7.185 17.229 5.5 20 5.5s4.96 1.685 5.322 4.098c.173 1.152.479 2.586.834 4.246.445 2.081.945 4.418 1.27 6.656H12.574z" fill="#b3add8"></path><path d="M20 6c2.518 0 4.503 1.51 4.827 3.672.175 1.168.483 2.608.84 4.276.406 1.896.857 4.006 1.177 6.052h-13.69c.32-2.046.772-4.156 1.177-6.052.357-1.668.665-3.108.84-4.276C15.497 7.51 17.482 6 20 6m0-1c-3.212 0-5.446 2.053-5.816 4.524C13.774 12.252 12.549 16.839 12 21h16c-.549-4.161-1.774-8.748-2.184-11.476C25.446 7.053 23.212 5 20 5z" fill="#8b75a1"></path><path d="M6.677 28.5L9.9 17.993c.069-.226 1.774-5.493 10.1-5.493 8.365 0 10.083 5.434 10.099 5.489L33.323 28.5H6.677z" fill="#dcd5f2"></path><path d="M20 13c7.92 0 9.556 4.929 9.622 5.139L32.647 28H7.353l3.028-9.868C10.396 18.08 12.003 13 20 13m0-1c-8.835 0-10.578 5.846-10.578 5.846L6 29h28l-3.422-11.154S28.835 12 20 12z" fill="#8b75a1"></path><g><path d="M20 38.5c-7.444 0-13.5-4.038-13.5-9s6.056-9 13.5-9 13.5 4.038 13.5 9-6.056 9-13.5 9z" fill="#ffeea3"></path><path d="M20 21c7.168 0 13 3.813 13 8.5 0 4.687-5.832 8.5-13 8.5S7 34.187 7 29.5c0-4.687 5.832-8.5 13-8.5m0-1c-7.732 0-14 4.253-14 9.5S12.268 39 20 39s14-4.253 14-9.5S27.732 20 20 20z" fill="#8b75a1"></path></g><g><ellipse cx="20" cy="26" rx="3" ry="2" fill="#fff"/></g></svg>