<svg viewBox="0 0 40 40" xmlns="http://www.w3.org/2000/svg"><path d="M20.022 38.5c-5.515 0-10.027-1.667-13.414-4.954C3.219 30.256 1.5 25.898 1.5 20.592c0-5.459 1.799-10.055 5.346-13.659C10.395 3.328 14.985 1.5 20.49 1.5c5.152 0 9.484 1.533 12.875 4.556 3.407 3.038 5.135 7.051 5.135 11.927 0 3.578-.916 6.562-2.724 8.87-1.837 2.346-4.117 3.536-6.776 3.536-2.882 0-4.656-1.327-5.213-3.863-1.28 2.565-3.356 3.863-6.193 3.863-2.18 0-3.962-.805-5.295-2.394-1.312-1.562-1.977-3.676-1.977-6.285 0-3.402.901-6.275 2.679-8.541C14.81 10.867 17.217 9.7 20.156 9.7c1.161 0 2.215.3 3.133.891.421.271.775.577 1.063.916l.095-1.024a.5.5 0 01.498-.453h2.785a.5.5 0 01.498.543c-.955 11.005-1.041 12.171-1.045 12.267 0 4.028 1.618 4.028 2.15 4.028 1.433 0 2.602-.762 3.574-2.329 1.007-1.622 1.518-3.769 1.518-6.379 0-3.862-1.254-7.054-3.727-9.487C28.225 6.235 24.729 5 20.312 5c-4.246 0-7.804 1.482-10.574 4.404-2.777 2.93-4.186 6.65-4.186 11.057 0 4.33 1.334 7.866 3.965 10.511 2.631 2.644 6.24 3.985 10.729 3.985 3.578 0 6.671-.589 9.192-1.751a.493.493 0 01.479.033c.144.092.23.25.23.421v2.718a.501.501 0 01-.306.461c-2.621 1.102-5.924 1.661-9.819 1.661zm.089-25.257c-1.677 0-3.001.772-4.05 2.362-1.075 1.634-1.621 3.703-1.621 6.148 0 1.605.352 2.875 1.044 3.773.671.872 1.544 1.296 2.667 1.296 1.667 0 2.959-.806 3.947-2.464 1.025-1.717 1.545-4.047 1.545-6.924.001-2.859-1.122-4.191-3.532-4.191z" fill="#c2e8ff"></path><path d="M20.49 2c5.049 0 9.231 1.477 12.542 4.429C36.344 9.382 38 13.233 38 17.983c0 3.479-.872 6.333-2.618 8.562-1.746 2.229-3.873 3.343-6.382 3.343-3.253 0-4.887-1.739-4.901-5.218h-.111c-1.084 3.479-3.216 5.218-6.394 5.218-2.035 0-3.673-.738-4.912-2.214-1.24-1.476-1.86-3.464-1.86-5.963 0-3.303.858-6.047 2.573-8.233 1.715-2.185 3.969-3.278 6.761-3.278 1.069 0 2.024.271 2.863.811.839.541 1.378 1.221 1.615 2.039h.089c.03-.409.103-1.25.223-2.521h2.785c-.699 8.054-1.047 12.154-1.047 12.3 0 3.026.883 4.538 2.651 4.538 1.604 0 2.937-.855 3.999-2.565 1.061-1.71 1.593-3.924 1.593-6.643 0-4.019-1.292-7.301-3.876-9.844S24.888 4.5 20.313 4.5c-4.411 0-8.056 1.521-10.938 4.56-2.883 3.04-4.323 6.84-4.323 11.4 0 4.487 1.37 8.109 4.11 10.864 2.74 2.755 6.435 4.133 11.083 4.133 3.668 0 6.802-.6 9.401-1.798v2.719C27.076 37.459 23.868 38 20.022 38c-5.405 0-9.761-1.604-13.066-4.812S2 25.781 2 20.592c0-5.35 1.734-9.785 5.202-13.308C10.669 3.762 15.099 2 20.49 2m-2.339 25.323c1.841 0 3.3-.902 4.377-2.708 1.077-1.805 1.615-4.199 1.615-7.18 0-3.127-1.345-4.692-4.032-4.692-1.841 0-3.33.863-4.467 2.587-1.136 1.725-1.704 3.867-1.704 6.424 0 1.725.382 3.084 1.147 4.078.766.994 1.786 1.491 3.064 1.491m9.579-16.794h.005M20.49 1C14.846 1 10.136 2.878 6.489 6.582 2.847 10.283 1 14.996 1 20.592c0 5.446 1.77 9.925 5.26 13.313C9.743 37.286 14.373 39 20.022 39c3.961 0 7.33-.572 10.012-1.701a1 1 0 00.612-.922v-2.719a1 1 0 00-1.419-.908c-2.455 1.132-5.477 1.706-8.982 1.706-4.35 0-7.841-1.291-10.374-3.838-2.534-2.548-3.819-5.965-3.819-10.158 0-4.275 1.362-7.879 4.048-10.713 2.71-2.859 6.05-4.248 10.212-4.248 4.281 0 7.658 1.187 10.036 3.528 2.407 2.369 3.578 5.356 3.578 9.131 0 2.516-.485 4.574-1.442 6.116-.874 1.408-1.904 2.092-3.149 2.092-.408 0-1.651 0-1.651-3.538.008-.144.154-1.962 1.037-12.142a.998.998 0 00-.985-1.158h-2.791c-.516 0-.947.393-.996.907l-.001.008a6.353 6.353 0 00-.388-.273c-1-.644-2.146-.971-3.405-.971-3.101 0-5.641 1.231-7.548 3.66-1.849 2.356-2.786 5.333-2.786 8.85 0 2.729.705 4.952 2.094 6.607 1.432 1.706 3.342 2.571 5.678 2.571 1.938 0 4.353-.612 6.056-3.14.854 2.046 2.682 3.14 5.35 3.14 2.821 0 5.233-1.254 7.17-3.727 1.878-2.398 2.83-5.486 2.83-9.178 0-5.025-1.784-9.163-5.302-12.301C30.212 2.575 25.769 1 20.49 1zm-2.339 25.323c-.971 0-1.693-.35-2.271-1.101-.624-.81-.94-1.976-.94-3.468 0-2.347.518-4.323 1.539-5.874.948-1.438 2.135-2.137 3.631-2.137 1.499 0 3.032.439 3.032 3.692 0 2.786-.496 5.029-1.474 6.668-.89 1.494-2.041 2.22-3.517 2.22z" fill="#4e7ab5"></path></svg>