<svg viewBox="0 0 40 40" xmlns="http://www.w3.org/2000/svg"><path fill="none" stroke="#788b9c" stroke-miterlimit="10" d="M18.5 21.12V2"></path><path fill="#dbf2ff" d="M4.5 9.5h31v7h-31z"></path><path d="M35 10v6H5v-6h30m1-1H4v8h32V9z" fill="#7496c4"></path><path fill="#dbf2ff" d="M1.5 16.5h37v21h-37z"></path><path d="M38 17v20H2V17h36m1-1H1v22h38V16z" fill="#7496c4"></path><path fill="#7496c4" d="M21 33h2v5h-2zM25 33h2v5h-2zM29 33h2v5h-2zM33 33h2v5h-2zM5 33h2v5H5zM9 33h2v5H9zM13 33h2v5h-2zM17 33h2v5h-2zM21 26h2v5h-2zM25 26h2v5h-2zM29 26h2v5h-2zM33 26h2v5h-2zM5 26h2v5H5zM9 26h2v5H9zM13 26h2v5h-2zM17 26h2v5h-2zM21 19h2v5h-2zM25 19h2v5h-2zM29 19h2v5h-2zM33 19h2v5h-2zM19 12h2v5h-2zM23 12h2v5h-2zM27 12h2v5h-2zM31 12h2v5h-2zM15 12h2v5h-2zM11 12h2v5h-2zM7 12h2v5H7zM5 19h2v5H5zM9 19h2v5H9zM13 19h2v5h-2z"></path><g><path fill="#7496c4" d="M17 19h2v5h-2z"></path></g><g><path d="M23.166 6.455c-.828 0-1.458-.244-2.188-.526-.694-.268-1.468-.567-2.477-.645V2.5H19c1.647 0 2.368.317 3.003.598.473.208.919.404 1.588.404.715 0 1.607-.228 2.909-.751v2.71c-1.334.677-2.399.994-3.334.994z" fill="#bae0bd"></path><path d="M19 3c1.541 0 2.211.295 2.802.555.499.22 1.015.447 1.789.447.642 0 1.399-.162 2.409-.525V5.15c-1.124.541-2.055.804-2.835.804-.735 0-1.325-.228-2.008-.492-.621-.24-1.302-.503-2.157-.626V3m8-1c-1.739.752-2.716 1.002-3.409 1.002C22.205 3.002 21.952 2 19 2h-1v3.765c2.246 0 3.247 1.19 5.165 1.19.959 0 2.147-.297 3.835-1.19V2z" fill="#5e9c76"></path></g></svg>