<svg viewBox="0 0 40 40" xmlns="http://www.w3.org/2000/svg"><path d="M9.5 34.5V30c0-4.092 2.412-7.838 6.145-9.545l.994-.455-.994-.455C11.912 17.838 9.5 14.092 9.5 10V5.5h21V10c0 4.092-2.412 7.838-6.145 9.545l-.994.455.994.455C28.088 22.162 30.5 25.908 30.5 30v4.5h-21z" fill="#f2faff"></path><path d="M30 6v4c0 3.897-2.297 7.465-5.853 9.091L22.158 20l1.989.909A10.027 10.027 0 0130 30v4H10v-4c0-3.897 2.297-7.465 5.853-9.091L17.842 20l-1.989-.909A10.027 10.027 0 0110 10V6h20m1-1H9v5c0 4.445 2.642 8.265 6.437 10C11.642 21.735 9 25.555 9 30v5h22v-5c0-4.445-2.642-8.265-6.437-10C28.358 18.265 31 14.445 31 10V5z" fill="#788b9c"></path><path fill="#8bb7f0" d="M9.5 6.5v-2h-3v-3h27v3h-3v2z"></path><path d="M33 2v2h-3v2H10V4H7V2h26m1-1H6v4h3v2h22V5h3V1z" fill="#4e7ab5"></path><g><path fill="#8bb7f0" d="M6.5 38.5v-3h3v-2h21v2h3v3z"></path><path d="M30 34v2h3v2H7v-2h3v-2h20m1-1H9v2H6v4h28v-4h-3v-2z" fill="#4e7ab5"></path></g></svg>