<svg viewBox="0 0 40 40" xmlns="http://www.w3.org/2000/svg"><path d="M2.667 31.5A2.17 2.17 0 01.5 29.333V9.667A2.17 2.17 0 012.667 7.5h26.776a4.83 4.83 0 014.432 2.905l2.706 7.917 1.805 1.203a2.496 2.496 0 011.113 2.08v7.728a2.17 2.17 0 01-2.167 2.167H2.667z" fill="#ffeea3"></path><path d="M29.444 8a4.33 4.33 0 013.958 2.57l2.652 7.754.11.321.282.188 1.664 1.109c.557.371.89.993.89 1.664v7.728c0 .918-.748 1.666-1.667 1.666H2.667A1.67 1.67 0 011 29.333V9.667A1.67 1.67 0 012.667 8h26.777m0-1H2.667A2.667 2.667 0 000 9.667v19.666A2.667 2.667 0 002.667 32h34.667A2.667 2.667 0 0040 29.333v-7.728c0-1.003-.501-1.94-1.336-2.496L37 18l-2.666-7.794A5.333 5.333 0 0029.444 7z" fill="#ba9b48"></path><circle cx="31.5" cy="31.5" r="4" fill="#c8d1db"></circle><path d="M31.5 28c1.93 0 3.5 1.57 3.5 3.5S33.43 35 31.5 35 28 33.43 28 31.5s1.57-3.5 3.5-3.5m0-1a4.5 4.5 0 100 9 4.5 4.5 0 000-9z" fill="#66798f"></path><circle cx="31.5" cy="31.5" r="1.5" fill="#66798f"></circle><circle cx="8.5" cy="31.5" r="4" fill="#c8d1db"></circle><path d="M8.5 28c1.93 0 3.5 1.57 3.5 3.5S10.43 35 8.5 35 5 33.43 5 31.5 6.57 28 8.5 28m0-1a4.5 4.5 0 100 9 4.5 4.5 0 000-9z" fill="#66798f"></path><circle cx="8.5" cy="31.5" r="1.5" fill="#66798f"></circle><path d="M1.5 25H0v-3h1.5a1.5 1.5 0 010 3z" fill="#c74343"></path><path d="M38.5 22h.5v3h-.5a1.5 1.5 0 010-3z" fill="#fff"></path><path d="M27.333 18.5a.834.834 0 01-.833-.833v-6.333c0-.459.374-.833.833-.833h6.549l2.617 7.584v.415h-9.166z" fill="#f2faff"></path><path d="M33.527 11l2.416 7h-8.609a.332.332 0 01-.334-.333v-6.333c0-.184.15-.334.334-.334h6.193m.712-1h-6.906c-.736 0-1.333.597-1.333 1.333v6.333c0 .737.597 1.334 1.333 1.334H37v-1l-2.761-8z" fill="#ba9b48"></path><g><path d="M13.267 15.539c0-.588.581-1.096 1.777-1.096 1.354 0 2.328.348 3.085.765v-1.985c-.563-.284-1.413-.451-2.553-.5l-1.183.029c-.989.088-1.782.404-2.382.945s-.9 1.197-.9 1.966c0 3.041 5.624 3.135 5.624 4.801 0 .593-.819 1.052-1.732 1.052-1.869 0-3.359-.718-3.673-.948v2.037a7.164 7.164 0 003.063.677l1.183-.044c1.064-.108 1.882-.41 2.455-.907.571-.497.858-1.153.858-1.967.001-3.249-5.622-3.001-5.622-4.825z" fill="#5e9c76"></path></g><g><path fill="#5e9c76" d="M14.222 11h1.556v2.334h-1.556z"></path></g><g><path fill="#5e9c76" d="M14.222 22.614h1.556v2.334h-1.556z"></path></g><g><path d="M20.684 7.5l.765-2.401c.09-.367.368-.599.688-.599h1.727c.319 0 .598.232.678.563l.774 2.437h-4.632z" fill="#ffc49c"></path><path d="M23.863 5c.087 0 .166.074.192.18l.009.035.011.035.557 1.75h-3.264l.557-1.75.011-.035.009-.035c.026-.106.104-.18.192-.18h1.726m0-1h-1.726c-.551 0-1.031.39-1.164.947L20 8h6l-.973-3.053A1.209 1.209 0 0023.863 4z" fill="#a16a4a"></path></g></svg>