<svg viewBox="0 0 40 40" xmlns="http://www.w3.org/2000/svg"><path fill="#f78f8f" d="M13.207 30.5H17.5v-12h5v12h4.293L20 37.293z"></path><path d="M22 19v12h3.586L20 36.586 14.414 31H18V19h4m1-1h-6v12h-5l8 8 8-8h-5V18z" fill="#c74343"></path><g><path d="M30 16.5c-.827 0-1.5-.673-1.5-1.5V8.617l-.371-.1C27.959 8.472 23.921 7.4 20 7.4s-7.959 1.072-8.129 1.117l-.371.1V15c0 .827-.673 1.5-1.5 1.5H3c-.827 0-1.5-.673-1.5-1.5v-4.269c0-1.481.929-2.805 2.312-3.292C6.924 6.342 13.167 4.5 20 4.5s13.076 1.842 16.188 2.939a3.488 3.488 0 012.312 3.292V15c0 .827-.673 1.5-1.5 1.5h-7z" fill="#f78f8f"></path><path d="M20 5c6.76 0 12.94 1.824 16.022 2.911A2.987 2.987 0 0138 10.732V15c0 .551-.449 1-1 1h-7c-.551 0-1-.449-1-1V8.233l-.741-.199C28.087 7.988 23.986 6.9 20 6.9s-8.087 1.088-8.259 1.134L11 8.233V15c0 .551-.449 1-1 1H3c-.551 0-1-.449-1-1v-4.268c0-1.27.795-2.403 1.978-2.821C7.06 6.824 13.24 5 20 5m0-1C13.191 4 7.006 5.783 3.646 6.968A3.985 3.985 0 001 10.732V15a2 2 0 002 2h7a2 2 0 002-2V9s4.1-1.1 8-1.1S28 9 28 9v6a2 2 0 002 2h7a2 2 0 002-2v-4.268a3.986 3.986 0 00-2.646-3.764C32.994 5.783 26.809 4 20 4z" fill="#c74343"></path></g></svg>