<svg viewBox="0 0 40 40" xmlns="http://www.w3.org/2000/svg"><path d="M28.596 39.03c-.19 0-.39-.024-.596-.024-2.312 0-3-1.654-3-2.443 0-1.5 1.001-2.563 2.5-2.563.884 0 1.714.433 2.224 1.155.464.658 1.137 1.229 1.607 1.374.912.28 1.995.03 2.821-.651l.018.021C37.817 32.804 38 28.056 38 25c0-8.935-7.989-11.028-12.185-11.028v-1C30.357 12.972 39 15.274 39 25c0 3.599-.245 8.451-4.392 11.834a9.837 9.837 0 01-5.234 2.158 7.936 7.936 0 01-.778.038zM27.5 35c-.947 0-1.5.615-1.5 1.563 0 .502.344 1.437 2 1.437.388 0 .817.041 1.28-.002a8.595 8.595 0 002.018-.444 3.315 3.315 0 01-.26-.069c-.899-.275-1.694-1.172-2.132-1.754-.331-.441-.855-.731-1.406-.731z" fill="#5e9c76"></path><path d="M14.05 1.002h-.004c-.959 0-7.358.211-10.849 4.39C1.891 6.956 1 9.042 1 12.417c0 .008.007.012.008.02-.001.021-.008.041-.008.063a2.5 2.5 0 105 0c0-.172-.021-.338-.054-.5h.029c-.046-.272-.173-.533-.329-.778l-.003-.005a2.64 2.64 0 00-.226-.31c-.048-.057-.101-.107-.153-.159-.061-.06-.117-.123-.183-.176a2.556 2.556 0 00-.368-.249c-.016-.009-.03-.023-.046-.031-.471-.245-1.009-1.164-1.153-1.636-.28-.914-.03-1.995.65-2.822l-.027-.022C8.203 1.745 13.891 1.992 14 2c4.792 0 10.047 2.581 11.614 11-11.439.007-24.56 4.17-24.56 16.418 0 5.718 4.046 9.56 10.068 9.56C22.345 38.979 27 24.429 27 17 27 4.778 19.594 1.002 14.05 1.002zM4.001 11.092c.226.138.548.362.756.608.066.103.122.214.161.333.049.148.082.303.082.467 0 .827-.673 1.5-1.5 1.5S2 13.327 2 12.5c0-1.792.26-3.124.495-3.782.018.077.039.154.062.23.275.9.83 1.769 1.444 2.144zm7.121 26.887c-5.509 0-9.068-3.36-9.068-8.56C2.054 17.898 14.83 14 25.815 14c0 0 .185 1.534.185 3 0 7.535-4.839 20.979-14.878 20.979z" fill="#5e9c76"></path></svg>