<svg viewBox="0 0 40 40" xmlns="http://www.w3.org/2000/svg"><path d="M13 14a3.001 3.001 0 010 6c-1.656 0-3-2.344-3-4s1.344-2 3-2z" fill-rule="evenodd" clip-rule="evenodd" fill="#e8d675"></path><path d="M13 15c1.103 0 2 .897 2 2s-.897 2-2 2c-.966 0-2-1.761-2-3 0-.469 0-1 2-1m0-1c-1.656 0-3 .344-3 2 0 1.656 1.344 4 3 4a3.001 3.001 0 000-6z" fill="#bb9c40"></path><path d="M4.013 39A9.244 9.244 0 014 38.5C4 31.601 11.169 26 20 26s16 5.601 16 12.5c0 .167-.004.334-.013.5H4.013z" fill-rule="evenodd" clip-rule="evenodd" fill="#89b5f2"></path><path fill-rule="evenodd" clip-rule="evenodd" fill="#fff" d="M27 27.5l-4 11h-6l-4-11h14"></path><path d="M20 27c8.052 0 14.643 4.89 14.986 11H5.014C5.357 31.89 11.948 27 20 27m0-1c-8.831 0-16 5.601-16 12.5 0 .167.004.334.013.5h31.975c.008-.166.012-.333.012-.5C36 31.601 28.831 26 20 26z" fill="#4c78b7"></path><path d="M27 14a3.001 3.001 0 000 6c1.656 0 3-2.344 3-4s-1.344-2-3-2z" fill-rule="evenodd" clip-rule="evenodd" fill="#e8d675"></path><path d="M27 15c2 0 2 .531 2 1 0 1.239-1.034 3-2 3-1.103 0-2-.897-2-2s.897-2 2-2m0-1a3.001 3.001 0 000 6c1.656 0 3-2.344 3-4 0-1.656-1.344-2-3-2z" fill="#bb9c40"></path><path fill-rule="evenodd" clip-rule="evenodd" fill="#e8d675" d="M25 23H15v5l5 4 5-4z"></path><path d="M16 24v3.519l4 3.2 4-3.2V24h-8zm9 4l-5 4-5-4v-5h10v5z" fill-rule="evenodd" clip-rule="evenodd" fill="#bb9c40"></path><path d="M12.018 19H12V8.873A3.873 3.873 0 0115.873 5h8.254A3.873 3.873 0 0128 8.873V19h-.018c-.231 3.281-2.683 6.217-5.982 7-.493.509-1.02 1-2 1s-1.426-.494-2-1c-3.299-.783-5.752-3.719-5.982-7z" fill-rule="evenodd" clip-rule="evenodd" fill="#fff09e"></path><path d="M24.127 6A2.876 2.876 0 0127 8.873v9.94a1.1 1.1 0 00-.015.117c-.201 2.863-2.395 5.427-5.216 6.097a.993.993 0 00-.487.277c-.458.473-.734.696-1.282.696-.478 0-.674-.154-1.169-.598l-.17-.152a1.008 1.008 0 00-.43-.223c-2.821-.67-5.014-3.234-5.216-6.097a1.114 1.114 0 00-.015-.116V8.873A2.876 2.876 0 0115.873 6h8.254m0-1h-8.254A3.873 3.873 0 0012 8.873V19h.018c.231 3.281 2.683 6.217 5.982 7 .574.506 1.02 1 2 1s1.507-.49 2-1c3.299-.783 5.752-3.719 5.982-7H28V8.873A3.873 3.873 0 0024.127 5z" fill="#bb9c40"></path><path d="M10.042 12C10.485 6.458 14.325 2.018 20 2c5.646-.018 9.55 4.488 9.964 10h.041c1.101 0 1.995.893 1.995 1.996V16H8v-2.004C8 12.893 8.894 12 9.996 12h.046z" fill-rule="evenodd" clip-rule="evenodd" fill="#89b5f2"></path><path d="M20.033 2v1c4.782 0 8.538 3.817 8.933 9.075.04.522.515.925 1.038.925.549 0 .996.447.996.996V15H9v-1.004c0-.549.447-.996 1.042-.996.521 0 .955-.401.997-.92.425-5.331 4.111-9.064 8.963-9.08l.031-1m0 0H20c-5.675.018-9.515 4.458-9.958 10h-.046A1.995 1.995 0 008 13.996V16h24v-2.004A1.995 1.995 0 0030.004 12h-.041c-.412-5.501-4.301-10-9.93-10z" fill="#4c78b7"></path><path fill-rule="evenodd" clip-rule="evenodd" fill="#89b5f2" d="M10 12h3v1h-3z"></path><path fill-rule="evenodd" clip-rule="evenodd" fill="#4c78b7" d="M10 12h3v1h-3z"></path><path fill-rule="evenodd" clip-rule="evenodd" fill="#89b5f2" d="M27 12h3v1h-3z"></path><path fill-rule="evenodd" clip-rule="evenodd" fill="#4c78b7" d="M27 12h3v1h-3z"></path><path fill-rule="evenodd" clip-rule="evenodd" fill="#89b5f2" d="M19 2h2v6h-2z"></path><path fill-rule="evenodd" clip-rule="evenodd" fill="#4c78b7" d="M18 1h1v6h-1zM21 1h1v6h-1zM19 1h2v1h-2z"></path><path fill="#fb8e8d" d="M23 29l-3 1.068L17 29l2 4-2 6h6l-2-6z"></path><path d="M20.994 30.776l-.889 1.777a1.01 1.01 0 00-.105.446.998.998 0 00-.106-.446l-.889-1.777.659.235a.988.988 0 00.67 0l.66-.235M20 33c0 .107.017.213.051.316L21.613 38h-3.225l1.561-4.684A1.01 1.01 0 0020 33m3-4l-3 1.068L17 29l2 4-2 6h6l-2-6 2-4z" fill="#cb413f"></path><path fill-rule="evenodd" clip-rule="evenodd" fill="#fff" d="M20 30l2 4 3-4v-3z"></path><path d="M24 28.766v.9l-1.829 2.439-.862-1.725L24 28.766M25 27l-5 3 2 4 3-4v-3z" fill="#778b9d"></path><path fill-rule="evenodd" clip-rule="evenodd" fill="#fff" d="M20 30l-2 4-3-4v-3z"></path><path d="M16 28.766l2.691 1.615-.862 1.725L16 29.667v-.901M15 27v3l3 4 2-4-5-3z" fill="#778b9d"></path><path d="M23 39l2-13c2.227-.027 4.008 1.883 4 4l-2 1 2 1-4 7h-2z" fill-rule="evenodd" clip-rule="evenodd" fill="#89b5f2"></path><path d="M25.84 27.114c.467.138.9.396 1.263.76.428.429.719.969.837 1.537l-1.387.694a1.001 1.001 0 000 1.789l1.055.527L24.42 38h-.254l1.674-10.886M25.047 26H25l-2 13h2l4-7-2-1 2-1c.008-2.102-1.748-4-3.953-4z" fill="#4c78b7"></path><path d="M17 39l-2-13c-2.227-.027-4.008 1.883-4 4l2 1-2 1 4 7h2z" fill-rule="evenodd" clip-rule="evenodd" fill="#89b5f2"></path><path d="M14.16 27.115L15.834 38h-.254l-3.188-5.578 1.054-.527a1 1 0 00.001-1.789l-1.387-.694a3.085 3.085 0 01.837-1.537 2.965 2.965 0 011.263-.76M14.953 26c-2.205 0-3.961 1.898-3.953 4l2 1-2 1 4 7h2l-2-13h-.047z" fill="#4c78b7"></path></svg>