<svg viewBox="0 0 40 40" xmlns="http://www.w3.org/2000/svg"><path d="M20 38.5C9.687 38.5 2.5 36.128 2.5 34s7.187-4.5 17.5-4.5 17.5 2.372 17.5 4.5-7.187 4.5-17.5 4.5z" fill="#e1ebf2"></path><path d="M20 30c11 0 17 2.642 17 4s-6 4-17 4-17-2.642-17-4 6-4 17-4m0-1c-9.941 0-18 2.239-18 5s8.059 5 18 5 18-2.239 18-5-8.059-5-18-5z" fill="#a3b7cc"></path><g><path fill="#8bb7f0" d="M11.13 23.5h6.37v-22h5v22h6.37L20 33.257z"></path><path d="M22 2v22h5.739L20 32.513 12.261 24H18V2h4m1-1h-6v22h-7l10 11 10-11h-7V1z" fill="#4e7ab5"></path></g></svg>