<svg viewBox="0 0 40 40" xmlns="http://www.w3.org/2000/svg"><path d="M5.473 35.5A4.508 4.508 0 001.5 31.528V8.472A4.509 4.509 0 005.473 4.5h29.055a4.508 4.508 0 003.973 3.972v23.056a4.51 4.51 0 00-3.973 3.972H5.473z" fill="#dcd5f2"></path><path d="M34.1 5A5.017 5.017 0 0038 8.9v22.2a5.017 5.017 0 00-3.9 3.9H5.9A5.017 5.017 0 002 31.1V8.9A5.018 5.018 0 005.9 5h28.2m.9-1H5a4 4 0 01-4 4v24a4 4 0 014 4h30a4 4 0 014-4V8a4 4 0 01-4-4z" fill="#8b75a1"></path><g fill="#8b75a1"><path d="M9.023 21.965L6.174 12.25h1.743l2.018 7.19 1.951-7.19h1.71l-2.856 9.715H9.023zM15.146 21.965V12.25h1.604v9.715h-1.604zM34.146 21.965h-1.744l-.697-2.2h-3.189l-.659 2.2h-1.71l3.103-9.715h1.703l3.193 9.715zm-2.96-3.843l-1.1-3.605-1.079 3.605h2.179z"></path></g><path d="M18.451 18.798l1.571-.186c.176 1.241.755 1.862 1.736 1.862.486 0 1.564-.282 1.564-1.325 0-1.967-4.579-.687-4.579-4.35 0-.53.222-2.715 2.929-2.715 2.526 0 2.998 1.997 3.028 2.942l-1.61.086c-.07-.522-.284-1.405-1.458-1.405-.433 0-1.352.105-1.352.945 0 1.743 4.645.575 4.645 4.49 0 2.644-2.11 2.988-3.214 2.988-1.952.001-3.039-1.11-3.26-3.332z" fill="#8b75a1"></path><path fill="#dcd5f2" stroke="#8b75a1" stroke-linecap="square" stroke-miterlimit="10" d="M7.5 25.5h25M7.5 29.5h14M27.5 29.5h5"></path></svg>