<svg viewBox="0 0 40 40" xmlns="http://www.w3.org/2000/svg"><path fill="#ffc685" d="M6.5 37.5v-35h18.293l8.707 8.707V37.5z"></path><path d="M24.586 3L33 11.414V37H7V3h17.586M25 2H6v36h28V11l-9-9z" fill="#a16a4a"></path><path fill="#fff" d="M24.5 11.5v-9h.293l8.707 8.707v.293z"></path><path d="M25 3.414L32.586 11H25V3.414M25 2h-1v10h10v-1l-9-9zM16.281 22.744h-1.989v2.366h2.249v1.482h-3.952V17.83h3.81v1.482h-2.106v2.015h1.989v1.417zM18.296 17.96a8.918 8.918 0 011.781-.169c1.015 0 1.82.143 2.379.676.521.455.755 1.183.755 1.924 0 .949-.286 1.625-.741 2.106-.546.585-1.417.845-2.133.845-.116 0-.221 0-.338-.013v3.263h-1.703V17.96zm1.703 3.991c.092.013.183.013.286.013.858 0 1.235-.611 1.235-1.43 0-.767-.312-1.365-1.105-1.365-.155 0-.312.026-.416.065v2.717zM24.367 24.85c.351.195.962.338 1.442.338.793 0 1.196-.416 1.196-.988 0-.637-.39-.949-1.131-1.43-1.196-.728-1.651-1.651-1.651-2.444 0-1.404.937-2.574 2.757-2.574.585 0 1.131.156 1.378.312l-.273 1.469a2.073 2.073 0 00-1.104-.299c-.729 0-1.079.442-1.079.91 0 .52.26.793 1.195 1.365 1.17.702 1.586 1.586 1.586 2.509 0 1.599-1.183 2.652-2.886 2.652-.702 0-1.378-.182-1.677-.351l.247-1.469z" fill="#a16a4a"></path></svg>