<svg viewBox="0 0 40 40" xmlns="http://www.w3.org/2000/svg"><path fill="#ffc49c" d="M7.5 2.5h27v31h-27z"></path><path d="M34 3v30H8V3h26m1-1H7v32h28V2z" fill="#a16a4a"></path><path d="M4.5 35V5c0-1.378 1.121-2.5 2.5-2.5h.5V35h-3z" fill="#ffc49c"></path><path d="M7 3v31.5H5V5c0-1.103.897-2 2-2m1-1H7a3 3 0 00-3 3v30.5h4V2z" fill="#a16a4a"></path><path fill="#ffd5b8" d="M8 3h1v30H8z"></path><path d="M8 3H7a2 2 0 00-2 2v30.231h3V3z" fill="#db996c"></path><path d="M6.5 37.5c-1.103 0-2-.897-2-2s.897-2 2-2h28v.34c-.179.272-.5.87-.5 1.66s.321 1.388.5 1.66v.34h-28z" fill="#fff"></path><path d="M33.839 34a3.533 3.533 0 00-.339 1.5c0 .616.165 1.13.339 1.5H6.5c-.827 0-1.5-.673-1.5-1.5S5.673 34 6.5 34h27.339M35 33H6.5a2.5 2.5 0 100 5H35v-1s-.5-.597-.5-1.5.5-1.5.5-1.5v-1zM14.195 18.578h-1.989v2.366h2.249v1.482h-3.952v-8.762h3.81v1.482h-2.106v2.015h1.989v1.417zM15.495 13.794a8.918 8.918 0 011.781-.169c1.015 0 1.82.143 2.379.676.521.455.754 1.183.754 1.924 0 .949-.285 1.625-.74 2.106-.546.585-1.417.845-2.133.845-.116 0-.221 0-.338-.013v3.263h-1.703v-8.632zm1.703 3.991c.091.013.183.013.286.013.858 0 1.235-.611 1.235-1.43 0-.767-.312-1.365-1.105-1.365-.155 0-.312.026-.416.065v2.717zM22.957 13.664v5.694c0 1.287.377 1.677.832 1.677.494 0 .845-.351.845-1.677v-5.694h1.703v5.395c0 2.249-.857 3.471-2.535 3.471-1.833 0-2.548-1.261-2.548-3.458v-5.408h1.703zM27.676 13.794c.521-.117 1.209-.169 1.938-.169.819 0 1.612.104 2.223.624.469.39.663.975.663 1.586 0 .78-.402 1.534-1.261 1.911v.052c1.014.286 1.547 1.118 1.547 2.093 0 .715-.233 1.287-.649 1.716-.521.572-1.404.884-2.874.884a10.17 10.17 0 01-1.586-.104v-8.593zm1.703 3.471h.364c.611 0 1.079-.52 1.079-1.235 0-.637-.299-1.131-.988-1.131-.194 0-.351.013-.455.052v2.314zm0 3.887c.104.026.234.026.377.026.702 0 1.262-.429 1.262-1.313 0-.884-.599-1.339-1.274-1.339h-.364v2.626z" fill="#a16a4a"></path></svg>