<svg viewBox="0 0 40 40" xmlns="http://www.w3.org/2000/svg"><path fill="#f2faff" d="M.5 6.5h16v28H.5z"></path><path d="M16 7v27H1V7h15m1-1H0v29h17V6z" fill="#a3b7cc"></path><path fill="#f2faff" d="M22.5 6.5h16v28h-16z"></path><path d="M38 7v27H23V7h15m1-1H22v29h17V6z" fill="#a3b7cc"></path><path fill="#f2faff" d="M22 7h2v27h-2zM15 7h2v27h-2z"></path><path d="M38.5 11.478A5.51 5.51 0 0133.522 6.5H38.5v4.978z" fill="#bae0bd"></path><path d="M38 7v3.9A5.017 5.017 0 0134.1 7H38m1-1h-6a6 6 0 006 6V6z" fill="#5e9c76"></path><path d="M.5 6.5h4.978A5.51 5.51 0 01.5 11.478V6.5z" fill="#bae0bd"></path><path d="M4.9 7A5.018 5.018 0 011 10.9V7h3.9M6 6H0v6a6 6 0 006-6z" fill="#5e9c76"></path><path d="M33.522 34.5a5.51 5.51 0 014.978-4.978V34.5h-4.978z" fill="#bae0bd"></path><path d="M38 30.1V34h-3.9a5.018 5.018 0 013.9-3.9m1-1.1a6 6 0 00-6 6h6v-6z" fill="#5e9c76"></path><path d="M.5 34.5v-4.978A5.51 5.51 0 015.478 34.5H.5z" fill="#bae0bd"></path><path d="M1 30.1A5.017 5.017 0 014.9 34H1v-3.9M0 29v6h6a6 6 0 00-6-6z" fill="#5e9c76"></path><path fill="none" stroke="#66798f" stroke-miterlimit="10" d="M10 27.5h7M22 27.5h7M5 24.5h12M22 24.5h12"></path><circle cx="19.5" cy="38.5" r=".5" fill="#36404d"></circle><circle cx="19.5" cy="36.5" r=".5" fill="#36404d"></circle><circle cx="19.5" cy="34.5" r=".5" fill="#36404d"></circle><circle cx="19.5" cy="32.5" r=".5" fill="#36404d"></circle><circle cx="19.5" cy="30.5" r=".5" fill="#36404d"></circle><circle cx="19.5" cy="10.5" r=".5" fill="#36404d"></circle><circle cx="19.5" cy="8.5" r=".5" fill="#36404d"></circle><circle cx="19.5" cy="6.5" r=".5" fill="#36404d"></circle><circle cx="19.5" cy="4.5" r=".5" fill="#36404d"></circle><circle cx="19.5" cy="2.5" r=".5" fill="#36404d"></circle><circle cx="19.5" cy="28.5" r=".5" fill="#36404d"></circle><circle cx="19.5" cy="26.5" r=".5" fill="#36404d"></circle><circle cx="19.5" cy="24.5" r=".5" fill="#36404d"></circle><circle cx="19.5" cy="22.5" r=".5" fill="#36404d"></circle><circle cx="19.5" cy="20.5" r=".5" fill="#36404d"></circle><circle cx="19.5" cy="18.5" r=".5" fill="#36404d"></circle><circle cx="19.5" cy="16.5" r=".5" fill="#36404d"></circle><circle cx="19.5" cy="14.5" r=".5" fill="#36404d"></circle><circle cx="19.5" cy="12.5" r=".5" fill="#36404d"></circle><g><path fill="#c8d1db" d="M5.5 13.5h7v5h-7z"></path><path d="M12 14v4H6v-4h6m1-1H5v6h8v-6z" fill="#66798f"></path></g><g><path fill="#c8d1db" d="M26.5 13.5h7v5h-7z"></path><path d="M33 14v4h-6v-4h6m1-1h-8v6h8v-6z" fill="#66798f"></path></g></svg>