<svg viewBox="0 0 40 40" xmlns="http://www.w3.org/2000/svg"><path d="M14.341 38.5a2.373 2.373 0 01-1.687-.698L2.198 27.346a2.388 2.388 0 010-3.373L23.973 2.199c.45-.451 1.05-.699 1.687-.699s1.236.248 1.687.699l10.456 10.456c.93.93.93 2.443 0 3.373L16.027 37.802a2.37 2.37 0 01-1.686.698z" fill="#f2faff"></path><path d="M25.659 2c.504 0 .977.196 1.333.552l10.456 10.456c.356.356.552.829.552 1.333s-.196.977-.552 1.333L15.674 37.448c-.356.356-.83.552-1.333.552-.504 0-.977-.196-1.333-.552L2.552 26.992C2.196 26.636 2 26.163 2 25.659s.196-.977.552-1.333L24.326 2.552c.356-.356.83-.552 1.333-.552m0-1c-.738 0-1.477.282-2.04.845L1.845 23.619a2.884 2.884 0 000 4.08l10.456 10.456a2.877 2.877 0 002.04.845c.738 0 1.477-.282 2.04-.845l21.774-21.774a2.884 2.884 0 000-4.08L27.699 1.845A2.877 2.877 0 0025.659 1z" fill="#788b9c"></path><path d="M13.035 13.136L23.973 2.199c.45-.451 1.05-.699 1.687-.699s1.236.248 1.687.699l10.456 10.456c.93.93.93 2.443 0 3.373L26.864 26.964 13.035 13.136z" fill="#b0c1d4"></path><path d="M25.659 2c.504 0 .977.196 1.333.552l10.456 10.456c.356.356.552.829.552 1.333 0 .503-.196.977-.552 1.333L26.864 26.257 13.743 13.136 24.326 2.552c.356-.356.83-.552 1.333-.552m0-1c-.738 0-1.477.282-2.04.845l-11.29 11.291 14.536 14.536 11.291-11.291a2.884 2.884 0 000-4.08L27.699 1.845A2.877 2.877 0 0025.659 1z" fill="#66798f"></path><path d="M37.448 15.674l-1.237 1.237L23.089 3.789l1.237-1.237c.356-.356.83-.552 1.333-.552s.977.196 1.333.552l10.456 10.456c.356.356.552.829.552 1.333 0 .503-.196.977-.552 1.333z" fill="#cad5e3"></path></svg>