<svg viewBox="0 0 40 40" xmlns="http://www.w3.org/2000/svg"><path d="M3.209 35.5a1.687 1.687 0 01-1.477-.853 1.686 1.686 0 010-1.706L18.523 3.858c.308-.534.86-.853 1.477-.853s1.169.319 1.477.853l16.791 29.083a1.686 1.686 0 010 1.706c-.308.534-.86.853-1.477.853H3.209z" fill="#ffeea3"></path><path d="M20 3.506c.209 0 .73.059 1.044.603l16.791 29.083a1.185 1.185 0 010 1.206c-.105.18-.416.602-1.044.602H3.209c-.628 0-.94-.422-1.044-.603a1.185 1.185 0 010-1.206L18.956 4.109A1.183 1.183 0 0120 3.506m0-1c-.743 0-1.486.368-1.91 1.103L1.299 32.691C.45 34.162 1.511 36 3.209 36h33.582c1.698 0 2.759-1.838 1.91-3.309L21.91 3.609A2.183 2.183 0 0020 2.506z" fill="#ba9b48"></path><circle cx="20" cy="29.214" r="1.696" fill="#36404d"></circle><path fill="#36404d" d="M18.643 12.929h2.714v12.214h-2.714z"></path></svg>