<svg viewBox="0 0 40 40" xmlns="http://www.w3.org/2000/svg"><rect x="2.5" y="2.5" width="35" height="35" rx="3.5" ry="3.5" fill="#b0c1d4"/><path d="M34 3a3 3 0 013 3v28a3 3 0 01-3 3H6a3 3 0 01-3-3V6a3 3 0 013-3h28m0-1H6a4 4 0 00-4 4v28a4 4 0 004 4h28a4 4 0 004-4V6a4 4 0 00-4-4z" fill="#66798f"></path><rect x="3" y="3" width="34" height="31" rx="3" ry="3" fill="#d8e2ed"/><path d="M14.9 24.78H8v-13h6.61v1.38H9.53v4.33h4.7v1.37h-4.7v4.54h5.37zM16.65 24.45v-1.6a4.41 4.41 0 002.68.9q2 0 2-1.31a1.13 1.13 0 00-.17-.63 1.67 1.67 0 00-.45-.46A3.5 3.5 0 0020 21l-.83-.33a10.7 10.7 0 01-1.09-.49 3.28 3.28 0 01-.78-.56 2.1 2.1 0 01-.47-.71 2.52 2.52 0 01-.16-.94A2.22 2.22 0 0117 16.8a2.66 2.66 0 01.8-.84 3.73 3.73 0 011.14-.51 5.06 5.06 0 011.32-.17 5.34 5.34 0 012.16.42v1.51a4.21 4.21 0 00-2.42-.69 2.76 2.76 0 00-.75.1 1.85 1.85 0 00-.58.27 1.24 1.24 0 00-.37.41 1.09 1.09 0 00-.13.53 1.27 1.27 0 00.13.61 1.34 1.34 0 00.39.44 3 3 0 00.62.35l.83.34a11.5 11.5 0 011.11.49 3.8 3.8 0 01.84.56 2.2 2.2 0 01.53.72 2.33 2.33 0 01.19 1 2.29 2.29 0 01-.3 1.2 2.61 2.61 0 01-.81.84 3.72 3.72 0 01-1.17.5 5.78 5.78 0 01-1.39.16 5.28 5.28 0 01-2.49-.59zM31.44 24.36a4.84 4.84 0 01-2.54.64 4.21 4.21 0 01-3.21-1.29 4.69 4.69 0 01-1.22-3.36 5.16 5.16 0 011.32-3.69 4.61 4.61 0 013.51-1.39 4.89 4.89 0 012.16.45v1.53a3.79 3.79 0 00-2.22-.73 3 3 0 00-2.34 1 3.88 3.88 0 00-.9 2.7 3.69 3.69 0 00.86 2.58 3 3 0 002.3.94 3.73 3.73 0 002.29-.81z" fill="#36404d"></path></svg>