<svg viewBox="0 0 40 40" xmlns="http://www.w3.org/2000/svg"><path d="M5.558 26.629A8.278 8.278 0 012.5 20.17V6.846C2.5 4.264 9.532 1.5 20 1.5s17.5 2.764 17.5 5.346V20.17a8.277 8.277 0 01-3.058 6.459L20 38.356 5.558 26.629z" fill="#ffeea3"></path><path d="M20 2c10.533 0 17 2.823 17 4.846V20.17a7.778 7.778 0 01-2.873 6.071L20 37.712 5.873 26.241A7.778 7.778 0 013 20.17V6.846C3 4.823 9.467 2 20 2m0-1C10.059 1 2 3.617 2 6.846V20.17a8.818 8.818 0 003.243 6.848L20 39l14.757-11.982A8.82 8.82 0 0038 20.17V6.846C38 3.617 29.941 1 20 1z" fill="#ba9b48"></path><path d="M10 19.5A2.503 2.503 0 017.5 17v-6c0-2.173 5.023-4.5 12.5-4.5S32.5 8.827 32.5 11v6c0 1.378-1.122 2.5-2.5 2.5H10z" fill="#c2e8ff"></path><path d="M20 7c7.435 0 12 2.33 12 4v6c0 1.103-.897 2-2 2H10c-1.103 0-2-.897-2-2v-6c0-1.67 4.565-4 12-4m0-1C12.82 6 7 8.239 7 11v6a3 3 0 003 3h20a3 3 0 003-3v-6c0-2.761-5.82-5-13-5z" fill="#788b9c"></path><path d="M6.939 27.751l9.74-9.859c.888-.897 2.067-1.392 3.321-1.392s2.433.495 3.32 1.393l9.74 9.859L20 38.356 6.939 27.751z" fill="#e8d47b"></path><path d="M20 17a4.14 4.14 0 012.964 1.244l9.353 9.467L20 37.712 7.682 27.71l9.353-9.467A4.146 4.146 0 0120 17m0-1c-1.33 0-2.661.514-3.676 1.541L6.196 27.792 20 39l13.804-11.208-10.128-10.251A5.153 5.153 0 0020 16z" fill="#ba9b48"></path><g><circle cx="20" cy="31" r="7.5" fill="#c8d1db"></circle><path d="M20 24c3.86 0 7 3.14 7 7s-3.14 7-7 7-7-3.14-7-7 3.14-7 7-7m0-1a8 8 0 100 16 8 8 0 000-16z" fill="#66798f"></path></g><g><ellipse cx="19.976" cy="31" rx="1.976" ry="2" fill="#66798f"/></g></svg>