<svg viewBox="0 0 40 40" xmlns="http://www.w3.org/2000/svg"><path d="M7.987 33.5c-.919-2.04-6.38-14.881-6.485-32h30.997a85.132 85.132 0 01-.703 10.332l-.065.51.512.051a6.937 6.937 0 016.258 6.928 6.972 6.972 0 01-6.964 6.964h-2.86l-.11.351c-1.143 3.645-2.193 6.071-2.552 6.864H7.987zm23.197-17.644a88.088 88.088 0 01-1.463 6.733l-.162.625h1.977a3.898 3.898 0 003.893-3.893 3.878 3.878 0 00-3.731-3.878l-.438-.018-.076.431z" fill="#fff"></path><path d="M31.994 2a84.92 84.92 0 01-.694 9.767l-.131 1.02 1.023.103A6.44 6.44 0 0138 19.321c0 3.564-2.9 6.464-6.464 6.464h-3.227l-.22.701c-1.018 3.248-1.962 5.518-2.399 6.513H8.312C7.125 30.288 2.204 18.094 2.006 2h29.988m-3.081 21.714h2.623a4.398 4.398 0 004.393-4.393c0-2.357-1.85-4.28-4.211-4.378l-.874-.036-.152.862a87.077 87.077 0 01-1.455 6.695l-.324 1.25M33 1H1c0 19.201 6.667 33 6.667 33h18.667s1.275-2.639 2.71-7.214h2.493a7.464 7.464 0 00.756-14.89C32.725 8.528 33 4.877 33 1zm-2.795 21.714a87.705 87.705 0 001.471-6.772 3.385 3.385 0 013.252 3.379 3.393 3.393 0 01-3.393 3.393h-1.33z" fill="#66798f"></path><path d="M7 38.5c-.554 0-1.06-.31-1.322-.81l-.117-.223-.25-.039a4.465 4.465 0 01-3.784-3.929h30.945a4.466 4.466 0 01-3.784 3.929l-.25.039-.117.223c-.261.5-.767.81-1.321.81H7z" fill="#f5ce85"></path><path d="M31.874 34a3.972 3.972 0 01-3.263 2.935l-.498.077-.234.447A.996.996 0 0127 38H7a.995.995 0 01-.879-.542l-.234-.447-.498-.077A3.97 3.97 0 012.126 34h29.748M33 33H1c0 2.5 1.84 4.553 4.236 4.923A1.991 1.991 0 007 39h20c.77 0 1.43-.44 1.764-1.077C31.16 37.553 33 35.5 33 33z" fill="#967a44"></path><g><path d="M31.599 9c.126-1.302.235-2.628.302-4H2.098c.067 1.372.176 2.698.302 4h29.199z" fill="#f5ce85"></path></g></svg>