<svg viewBox="0 0 40 40" xmlns="http://www.w3.org/2000/svg"><path d="M20 38.5C9.799 38.5 1.5 30.201 1.5 20S9.799 1.5 20 1.5 38.5 9.799 38.5 20 30.201 38.5 20 38.5z" fill="#8bb7f0"></path><path d="M20 2c9.925 0 18 8.075 18 18s-8.075 18-18 18S2 29.925 2 20 10.075 2 20 2m0-1C9.507 1 1 9.507 1 20s8.507 19 19 19 19-8.507 19-19S30.493 1 20 1z" fill="#4e7ab5"></path><g><path d="M24.167 28.101a7.444 7.444 0 01-3.571.899c-3.603 0-5.749-1.992-6.437-5.976h-1.482v-1.98h1.251a6.124 6.124 0 01-.049-.838c0-.34.024-.729.073-1.166h-1.275v-1.955h1.543c.429-1.903 1.245-3.392 2.447-4.47C17.87 11.538 19.329 11 21.046 11c1.166 0 2.206.227 3.121.68v2.441a5.153 5.153 0 00-3.036-.947c-.972 0-1.834.355-2.587 1.063s-1.28 1.658-1.579 2.848h5.648v1.955h-5.964a11.032 11.032 0 00-.012 2.004h5.976v1.98h-5.709c.559 2.542 1.923 3.814 4.093 3.814 1.012 0 2.069-.352 3.17-1.057v2.32z" fill="#fff3bf"></path></g></svg>