<svg viewBox="0 0 40 40" xmlns="http://www.w3.org/2000/svg"><path fill="#fff" d="M6.5 37.5v-35h18.293l8.707 8.707V37.5z"></path><path d="M24.586 3L33 11.414V37H7V3h17.586M25 2H6v36h28V11l-9-9z" fill="#788b9c"></path><path fill="#fff" d="M24.5 11.5v-9h.293l8.707 8.707v.293z"></path><path d="M25 3.414L32.586 11H25V3.414M25 2h-1v10h10v-1l-9-9z" fill="#788b9c"></path><path d="M11.5 31c0-7.728 3.646-16.5 4.5-16.5.854 0 4.5 8.61 4.5 16.5M12.255 24.5h7.439M23 24.5h7M26.5 21v7" fill="none" stroke="#c74343" stroke-miterlimit="10"></path></svg>