<svg viewBox="0 0 40 40" xmlns="http://www.w3.org/2000/svg"><path fill="#f78f8f" d="M6.5 37.5v-35h18.293l8.707 8.707V37.5z"></path><path d="M24.586 3L33 11.414V37H7V3h17.586M25 2H6v36h28V11l-9-9z" fill="#c74343"></path><path fill="#fff" d="M24.5 11.5v-9h.293l8.707 8.707v.293z"></path><path d="M25 3.414L32.586 11H25V3.414M25 2h-1v10h10v-1l-9-9z" fill="#c74343"></path><path d="M16.208 22.723h-1.989v2.366h2.249v1.482h-3.952v-8.762h3.809v1.482h-2.106v2.015h1.989v1.417zM20.784 26.571l-.546-1.612a22.06 22.06 0 01-.468-1.561h-.039c-.143.559-.273 1.092-.403 1.586l-.468 1.586h-1.69l1.638-4.485-1.573-4.277h1.768l.52 1.625c.13.455.26.91.39 1.404h.026c.143-.533.26-.949.377-1.43l.442-1.599h1.703l-1.638 4.355 1.729 4.407h-1.768zM27.271 22.723h-1.989v2.366h2.249v1.482h-3.952v-8.762h3.809v1.482h-2.106v2.015h1.989v1.417z" fill="#fff"></path></svg>