<svg viewBox="0 0 40 40" xmlns="http://www.w3.org/2000/svg"><path fill="#ffc49c" d="M6.5 1.5h29v37h-29z"></path><path d="M35 2v36H7V2h28m1-1H6v38h30V1z" fill="#a16a4a"></path><path fill="#735f63" d="M8.5 3.5h25v35h-25z"></path><path d="M33 4v34H9V4h24m1-1H8v36h26V3z" fill="#4d3e40"></path><circle cx="26" cy="9" r="3.5" fill="#ffeea3"></circle><path d="M26 6a3 3 0 110 6 3 3 0 010-6m0-1c-2.206 0-4 1.794-4 4s1.794 4 4 4 4-1.794 4-4-1.794-4-4-4z" fill="#4d3e40"></path><g><path d="M9.5 32.5c-1.103 0-2-.897-2-2s.897-2 2-2h4.633l2.855-5.035 3.903 2.75-3.554 4.964a3.171 3.171 0 01-2.572 1.321H9.5z" fill="#bae0bd"></path><path d="M17.152 24.192l3.041 2.141-3.262 4.554A2.663 2.663 0 0114.765 32H9.5a1.5 1.5 0 010-3h4.924l2.728-4.808m-.326-1.453l-.544.959L13.841 28H9.5C8.121 28 7 29.121 7 30.5S8.121 33 9.5 33h5.266a3.67 3.67 0 002.978-1.53l3.262-4.554.587-.819-.824-.58-3.041-2.141-.902-.637z" fill="#4d3e40"></path></g><g><path d="M25.933 38.5c-.648 0-1.24-.328-1.583-.877l-7.109-11.37a3.9 3.9 0 01-.278-3.6l2.209-5.153H16.62l-1.708 2.937a1.852 1.852 0 11-3.195-1.872l2.27-3.838a2.509 2.509 0 012.151-1.227h5.927l3.599.998 3.58 4.002H33.5v4h-4.66a2.508 2.508 0 01-1.824-.791l-2.262-2.414-2.658 6.122 6.94 13.083h-3.103z" fill="#bae0bd"></path><path d="M22 14l3.392.941L29.023 19H33v3h-4.16a2.001 2.001 0 01-1.46-.633l-2.782-2.969-3.057 7.041L28.205 38h-2.272c-.471 0-.909-.243-1.159-.642l-7.109-11.37a3.394 3.394 0 01-.242-3.137L19.931 17h-3.597l-1.852 3.186a1.351 1.351 0 11-2.331-1.367l2.269-3.837A1.997 1.997 0 0116.141 14H22m.136-1h-5.995a3.011 3.011 0 00-2.582 1.473L11.29 18.31c-.325.549-.412 1.217-.24 1.831s.594 1.139 1.157 1.44c.34.181.722.277 1.106.277a2.36 2.36 0 002.034-1.17L16.909 18h1.506l-1.91 4.457a4.396 4.396 0 00.313 4.061l7.109 11.37A2.353 2.353 0 0025.933 39H29.867l-.779-1.469-6.438-12.136 2.259-5.203 1.741 1.858c.566.604 1.364.95 2.19.95H34v-5H29.47l-3.333-3.726-.195-.219-.283-.078-3.392-.941-.131-.036z" fill="#4d3e40"></path></g></svg>