<svg viewBox="0 0 40 40" xmlns="http://www.w3.org/2000/svg"><path fill="#8bb7f0" d="M28.207 38.5l3.694-3.694-7.194-7.194 2.905-2.905 7.194 7.194 3.694-3.694V38.5z"></path><path d="M27.612 25.414l6.487 6.487.707.707.707-.707L38 29.414V38h-8.586l2.487-2.487.707-.707-.707-.707-6.487-6.487 2.198-2.198m0-1.414L24 27.612l7.194 7.194L27 39h12V27l-4.194 4.194L27.612 24z" fill="#4e7ab5"></path><path fill="#8bb7f0" d="M5.194 8.099L1.5 11.793V1.5h10.293L8.099 5.194l7.194 7.194-2.905 2.905z"></path><path d="M10.586 2L8.099 4.487l-.707.707.707.707 6.487 6.487-2.198 2.198-6.487-6.487-.707-.707-.707.707L2 10.586V2h8.586M13 1H1v12l4.194-4.194L12.388 16 16 12.388 8.806 5.194 13 1z" fill="#4e7ab5"></path><g><path fill="#8bb7f0" d="M1.5 38.5V28.207l3.694 3.694 7.194-7.194 2.905 2.905-7.194 7.194 3.694 3.694z"></path><path d="M12.388 25.414l2.198 2.198-6.487 6.487-.707.707.707.707L10.586 38H2v-8.586l2.487 2.487.707.707.707-.707 6.487-6.487m0-1.414l-7.194 7.194L1 27v12h12l-4.194-4.194L16 27.612 12.388 24z" fill="#4e7ab5"></path></g><g><path fill="#8bb7f0" d="M24.707 12.388l7.194-7.194L28.207 1.5H38.5v10.293l-3.694-3.694-7.194 7.194z"></path><path d="M38 2v8.586l-2.487-2.487-.707-.707-.707.707-6.487 6.487-2.198-2.198 6.487-6.487.707-.707-.707-.707L29.414 2H38m1-1H27l4.194 4.194L24 12.388 27.612 16l7.194-7.194L39 13V1z" fill="#4e7ab5"></path></g></svg>