<svg viewBox="0 0 40 40" xmlns="http://www.w3.org/2000/svg"><path d="M23 32.5c-8.547 0-15.5-6.953-15.5-15.5S14.453 1.5 23 1.5 38.5 8.453 38.5 17 31.547 32.5 23 32.5z" fill="#f5ce85"></path><path d="M23 2c8.271 0 15 6.729 15 15s-6.729 15-15 15S8 25.271 8 17 14.729 2 23 2m0-1C14.163 1 7 8.163 7 17s7.163 16 16 16 16-7.163 16-16S31.837 1 23 1z" fill="#967a44"></path><path d="M20 35.5c-8.547 0-15.5-6.953-15.5-15.5S11.453 4.5 20 4.5 35.5 11.453 35.5 20 28.547 35.5 20 35.5z" fill="#f5ce85"></path><path d="M20 5c8.271 0 15 6.729 15 15s-6.729 15-15 15S5 28.271 5 20 11.729 5 20 5m0-1C11.163 4 4 11.163 4 20s7.163 16 16 16 16-7.163 16-16S28.837 4 20 4z" fill="#967a44"></path><path d="M17 38.5C8.453 38.5 1.5 31.547 1.5 23S8.453 7.5 17 7.5 32.5 14.453 32.5 23 25.547 38.5 17 38.5z" fill="#f5ce85"></path><path d="M17 8c8.271 0 15 6.729 15 15s-6.729 15-15 15S2 31.271 2 23 8.729 8 17 8m0-1C8.163 7 1 14.163 1 23s7.163 16 16 16 16-7.163 16-16S25.837 7 17 7z" fill="#967a44"></path><g><circle cx="17" cy="23" r="12" fill="#ffeea3"></circle></g><path d="M14.881 19.537c0-.793.711-1.476 2.172-1.476 1.655 0 2.846.469 3.772 1.03v-2.675c-.688-.383-1.728-.608-3.122-.674V13.94h-1.446v1.843c-1.209.119-2.18.544-2.913 1.273a3.602 3.602 0 00-1.1 2.65c0 4.097 6.877 4.224 6.877 6.47 0 .799-1.001 1.417-2.118 1.417-2.286 0-4.108-.968-4.491-1.278v2.744a8.079 8.079 0 003.745.911v2.09h1.446v-2.15c1.301-.145 2.301-.553 3.003-1.223.699-.67 1.049-1.554 1.049-2.651.001-4.374-6.874-4.04-6.874-6.499z" fill="#967a44"></path></svg>