<svg viewBox="0 0 40 40" xmlns="http://www.w3.org/2000/svg"><path d="M12 22.5C6.21 22.5 1.5 17.79 1.5 12S6.21 1.5 12 1.5 22.5 6.21 22.5 12 17.79 22.5 12 22.5z" fill="#8bb7f0"></path><path d="M12 2c5.514 0 10 4.486 10 10s-4.486 10-10 10S2 17.514 2 12 6.486 2 12 2m0-1C5.925 1 1 5.925 1 12s4.925 11 11 11 11-4.925 11-11S18.075 1 12 1z" fill="#4e7ab5"></path><circle cx="12" cy="12" r="8" fill="#fff"></circle><circle cx="12" cy="12" r="1.375" fill="#36404d"></circle><path fill="none" stroke="#36404d" stroke-miterlimit="10" d="M15.143 15.929L12 12l2.357-6.286"></path><path d="M8.86 38.5c-.49 0-.93-.254-1.176-.679a1.345 1.345 0 010-1.357l14.14-24.491c.246-.425.686-.679 1.176-.679s.93.254 1.176.679l14.14 24.491c.245.425.245.933 0 1.357a1.347 1.347 0 01-1.176.679H8.86z" fill="#ffeea3"></path><path d="M23 11.794c.149 0 .519.042.743.429l14.14 24.491c.223.387.074.729 0 .858s-.296.428-.743.428H8.86c-.447 0-.668-.3-.743-.429s-.223-.471 0-.858l14.14-24.491a.844.844 0 01.743-.428m0-1c-.626 0-1.251.31-1.609.929L7.252 36.214C6.537 37.452 7.43 39 8.86 39h28.28c1.43 0 2.324-1.548 1.609-2.786l-14.14-24.491A1.841 1.841 0 0023 10.794z" fill="#ba9b48"></path><circle cx="23" cy="33" r="1.709" fill="#36404d"></circle><path fill="#36404d" d="M22 20h2v9h-2z"></path></svg>