<svg viewBox="0 0 40 40" xmlns="http://www.w3.org/2000/svg"><path fill="#f78f8f" d="M12.109 35.5L1.384 30.584l10.269-3.267-5.6-14.933 10.262 7.464 3.246-13.907 4.141 13.805 13.112-7.493-7.515 15.031 9.478 3.318-8.905 4.898z"></path><path d="M19.621 7.883l3.421 11.404.362 1.205 1.092-.624 11.132-6.361-6.523 13.046-.508 1.016 1.072.375 7.885 2.76L29.743 35H12.218l-9.45-4.331 8.535-2.716 1.003-.319-.369-.985-4.83-12.881 8.306 6.041 1.219.887.343-1.468 2.646-11.345M19.5 4L16 19 5 11l6 16-11 3.5L12 36h18l10-5.5L30 27l8-16-14 8-4.5-15z" fill="#c74343"></path><path fill="#ffeea3" d="M17 35l-4-3h4l-1-6 4 3 6-4-3 7h5l-4 3z"></path></svg>