<svg viewBox="0 0 40 40" xmlns="http://www.w3.org/2000/svg"><path fill="#ffc49c" d="M3.5 38.5V13.286L19.998 3.58 36.5 13.286V38.5z"></path><path d="M19.998 4.16L36 13.572V38H4V13.572L19.998 4.16m0-1.16L3 13v26h34V13L19.998 3z" fill="#a16a4a"></path><path fill="#735f63" d="M19.998 5.645L1.5 16.954v-4.058l18.498-11.31L38.5 12.896v4.058z"></path><path d="M19.998 2.172L38 13.176v2.887L20.519 5.378l-.522-.319-.522.319L2 16.063v-2.887L19.998 2.172m0-1.172L1 12.615v5.231L19.998 6.231 39 17.846v-5.231L19.998 1z" fill="#4d3e40"></path><path fill="#e0ac89" d="M4 34h32v4H4z"></path><path fill="#b08159" d="M8.5 21.5h10v17h-10z"></path><path d="M18 22v16H9V22h9m1-1H8v18h11V21z" fill="#704e34"></path><circle cx="16.5" cy="30.5" r=".5" fill="#704e34"></circle><g><path fill="#8bb7f0" d="M23.5 21.5h8v7h-8z"></path><path d="M31 22v6h-7v-6h7m1-1h-9v8h9v-8z" fill="#4e7ab5"></path></g></svg>