<svg viewBox="0 0 40 40" xmlns="http://www.w3.org/2000/svg"><path fill="#dbb065" d="M1.5 35.5v-31h10.293l3 3H38.5v28z"></path><path d="M11.586 5l2.707 2.707.293.293H38v27H2V5h9.586M12 4H1v32h38V7H15l-3-3z" fill="#967a44"></path><path fill="#f5ce85" d="M1.5 35.5v-26h10.651l3-2H38.5v28z"></path><path d="M38 8v27H2V10h10.303l.252-.168L15.303 8H38m1-1H15l-3 2H1v27h38V7z" fill="#967a44"></path><g><path d="M14.5 30.5v-4.299l-.617.149c-.514.124-.764.15-.883.15-1.379 0-2.5-1.122-2.5-2.5s1.121-2.5 2.5-2.5c.119 0 .369.026.883.15l.617.149V17.5h4.299l-.148-.617c-.125-.516-.151-.765-.151-.883 0-1.378 1.121-2.5 2.5-2.5s2.5 1.122 2.5 2.5c0 .118-.026.367-.15.883l-.149.617H27.5v4.059a2.654 2.654 0 00-.5-.059c-1.379 0-2.5 1.122-2.5 2.5s1.121 2.5 2.5 2.5c.133 0 .297-.019.5-.059V30.5h-13z" fill="#bae0bd"></path><path d="M21 14c1.103 0 2 .897 2 2 0 .047-.01.242-.136.766L22.566 18H27v3c-1.654 0-3 1.346-3 3s1.346 3 3 3v3H15v-4.434l-1.234.298c-.524.126-.719.136-.766.136-1.103 0-2-.897-2-2s.897-2 2-2c.047 0 .242.01.766.136l1.234.298V18h4.434l-.298-1.234C19.01 16.242 19 16.047 19 16c0-1.103.897-2 2-2m0-1a3 3 0 00-3 3c0 .232.063.582.164 1H14v4.164c-.418-.101-.768-.164-1-.164a3 3 0 100 6c.232 0 .582-.063 1-.164V31h14v-5.195c-.432.12-.787.195-1 .195a2 2 0 110-4c.213 0 .568.075 1 .195V17h-4.164c.101-.418.164-.768.164-1a3 3 0 00-3-3z" fill="#5e9c76"></path></g></svg>