<svg viewBox="0 0 40 40" xmlns="http://www.w3.org/2000/svg"><path d="M20 38.5c-13.822 0-14.479-7.397-14.5-7.712l.001-2.288h28.998v2.319c.005.108.078 2.036-1.741 3.948C30.434 37.209 26.021 38.5 20 38.5z" fill="#839cb2"></path><path d="M34 29v1.868c.003.074.052 1.831-1.63 3.58C30.812 36.068 27.401 38 20 38 6.929 38 6.048 31.28 6.001 30.78V29H34m.999-1H5.001v2.819S5.484 39 20 39c15.482 0 14.999-8.181 14.999-8.181V28z" fill="#66798f"></path><path d="M20.001 34.5c-8.13 0-14.499-2.855-14.499-6.5s6.369-6.5 14.499-6.5S34.5 24.355 34.5 28s-6.369 6.5-14.499 6.5z" fill="#ffd7bd"></path><path d="M20.001 22C28.764 22 34 25.051 34 28s-5.236 6-13.999 6-13.999-3.051-13.999-6 5.236-6 13.999-6m0-1c-8.818 0-14.999 3.134-14.999 7s6.182 7 14.999 7S35 31.866 35 28s-6.182-7-14.999-7z" fill="#66798f"></path><path d="M20 25c7.152 0 12.04 2.223 13.521 4.494.31-.475.48-.959.48-1.437C34.001 25.117 28.647 22 20 22c-8.647 0-13.999 3.064-13.999 6.056 0 .478.171.963.48 1.437C7.962 27.223 12.848 25 20 25z" fill="#ffb380"></path><path d="M20.001 22C28.764 22 34 25.051 34 28s-5.236 6-13.999 6-13.999-3.051-13.999-6 5.236-6 13.999-6m0-1c-8.818 0-14.999 3.134-14.999 7s6.182 7 14.999 7S35 31.866 35 28s-6.182-7-14.999-7z" fill="#66798f"></path><path d="M20 21.5c-7.57 0-13.5-4.393-13.5-10s5.93-10 13.5-10 13.5 4.393 13.5 10-5.93 10-13.5 10z" fill="#c2e8ff"></path><path d="M20 2c7.29 0 13 4.173 13 9.5S27.29 21 20 21 7 16.827 7 11.5 12.71 2 20 2m0-1C12.149 1 6 5.612 6 11.5S12.149 22 20 22s14-4.612 14-10.5S27.851 1 20 1z" fill="#66798f"></path><g fill="#e1f5ff"><path d="M20.221 2.008c-2.115.022-4.101.35-5.885.921C9.963 4.443 7 7.668 7 11.5c0 1.174.292 2.288.802 3.317L21.605 2.076a18.453 18.453 0 00-1.384-.068zM27.993 3.969a14.48 14.48 0 00-2.916-1.241L9.486 17.137a11.4 11.4 0 002.324 1.788L27.993 3.969z"></path></g><g><path d="M20 2c7.29 0 13 4.173 13 9.5S27.29 21 20 21 7 16.827 7 11.5 12.71 2 20 2m0-1C12.149 1 6 5.612 6 11.5S12.149 22 20 22s14-4.612 14-10.5S27.851 1 20 1z" fill="#66798f"></path></g></svg>