<svg viewBox="0 0 40 40" xmlns="http://www.w3.org/2000/svg"><path d="M30.1 27.5c-1.875 0-3.4-1.57-3.4-3.5s1.525-3.5 3.4-3.5c2.447 0 3.4.607 3.4 2.167 0 1.671-.71 4.833-3.4 4.833zm-18.2 0c-2.689 0-3.4-3.162-3.4-4.833 0-1.559.953-2.167 3.4-2.167 1.875 0 3.4 1.57 3.4 3.5s-1.526 3.5-3.4 3.5z" fill="#e8d47b"></path><path d="M30.1 21c2.678 0 2.9.788 2.9 1.667C33 24.165 32.394 27 30.1 27c-1.599 0-2.9-1.346-2.9-3s1.301-3 2.9-3m-18.2 0c1.599 0 2.9 1.346 2.9 3s-1.301 3-2.9 3C9.606 27 9 24.165 9 22.667 9 21.788 9.222 21 11.9 21m18.2-1c-2.154 0-3.9 1.791-3.9 4s1.746 4 3.9 4c2.903 0 3.9-3.124 3.9-5.333S32.254 20 30.1 20zm-18.2 0c-2.154 0-3.9.458-3.9 2.667C8 24.876 9.005 28 11.9 28c2.154 0 3.9-1.791 3.9-4s-1.746-4-3.9-4z" fill="#ba9b48"></path><path d="M21 38.5a4.438 4.438 0 01-3.315-1.483l-.085-.093-.117-.042A10.515 10.515 0 0110.5 27V12.381a4.748 4.748 0 014.742-4.743h11.516a4.747 4.747 0 014.742 4.743V27c0 4.424-2.806 8.396-6.982 9.882l-.118.042-.085.093A4.438 4.438 0 0121 38.5z" fill="#e8d47b"></path><path d="M26.758 8.139A4.247 4.247 0 0131 12.381V27c0 4.213-2.672 7.995-6.65 9.412l-.236.084-.168.185C23.171 37.531 22.125 38 21 38s-2.171-.469-2.946-1.319l-.168-.185-.236-.084A10.016 10.016 0 0111 27V12.381a4.247 4.247 0 014.242-4.242h11.516m0-1H15.242A5.242 5.242 0 0010 12.381V27c0 4.78 3.055 8.837 7.315 10.354C18.229 38.358 19.534 39 21 39s2.771-.642 3.685-1.646C28.945 35.837 32 31.78 32 27V12.381a5.242 5.242 0 00-5.242-5.242z" fill="#ba9b48"></path><path d="M31.5 23.5V16c0-3.449-4.043-6.292-4.215-6.411l-.373-.259-.294.348C26.585 9.716 23.315 13.5 17 13.5c-3.142 0-6.5 1.445-6.5 5.5v4.5h-.135C9.951 22.173 8.5 17.223 8.5 13 8.5 7.276 12.056 1.5 20 1.5c5.724 0 7.476 3.561 7.547 3.712l.135.286L28 5.5c.918 0 5.5.362 5.5 7.5 0 3.86-1.462 9.107-1.872 10.5H31.5z" fill="#b0c1d4"></path><path d="M20 2c5.376 0 7.029 3.288 7.093 3.421l.269.579H28c1.173 0 5 .505 5 7 0 2.239-.504 4.963-1 7.103V16c0-3.707-4.249-6.696-4.43-6.822l-.747-.513-.587.689C26.109 9.503 23.061 13 17 13c-4.318 0-7 2.299-7 6v1.269C9.504 18.19 9 15.468 9 13 9 7.926 11.881 2 20 2m0-1C11.673 1 8 7.036 8 13c0 5.044 2 11 2 11h1v-5c0-3.678 2.963-5 6-5 6.647 0 10-4 10-4s4 2.773 4 6v8h1s2-6.404 2-11c0-6.948-4.211-8-6-8 0 0-1.856-4-8-4z" fill="#66798f"></path><path d="M14.55 39.5a5.976 5.976 0 01-4.196-1.745l-3-3C6.071 33.473 5.5 31.731 5.5 29.109V21c0-1.332 1.168-2.5 2.5-2.5s2.5 1.168 2.5 2.5v3.316l4.484-4.484 10.323 11.262-6.661 6.662c-1.141 1.14-2.557 1.744-4.096 1.744z" fill="#ffeea3"></path><path d="M8 19c1.065 0 2 .935 2 2v4.523l1.707-1.707 3.261-3.261 9.647 10.524-6.323 6.323C16.972 38.723 15.528 39 14.55 39a5.472 5.472 0 01-3.842-1.598l-3-3C6.912 33.607 6 32.287 6 29.109V21c0-1.065.935-2 2-2m0-1c-1.614 0-3 1.386-3 3v8.109c0 3.054.791 4.791 2 6l3 3A6.482 6.482 0 0014.55 40c1.551 0 3.139-.579 4.45-1.891l7-7-11-12-4 4V21c0-1.614-1.386-3-3-3z" fill="#ba9b48"></path><path d="M17.346 27.553c-.491 0-.952-.191-1.299-.538l-.138-.138a1.839 1.839 0 010-2.599l7.025-7.025c.347-.347.808-.538 1.299-.538s.952.191 1.299.538l.138.138c.347.347.538.809.538 1.299 0 .49-.191.952-.538 1.299l-7.025 7.025a1.825 1.825 0 01-1.299.539z" fill="#ffeea3"></path><path d="M24.234 17.215c.357 0 .693.139.945.392l.138.138c.253.253.392.588.392.946 0 .357-.139.693-.392.946l-7.025 7.025c-.253.253-.588.392-.946.392s-.693-.139-.946-.392l-.138-.138a1.34 1.34 0 010-1.891l7.025-7.025c.253-.254.589-.393.947-.393m-.001-1a2.33 2.33 0 00-1.653.685l-7.025 7.025a2.336 2.336 0 000 3.305l.138.138a2.332 2.332 0 001.653.685 2.33 2.33 0 001.653-.685l7.025-7.025a2.336 2.336 0 000-3.305l-.138-.138a2.328 2.328 0 00-1.653-.685z" fill="#ba9b48"></path><g><path d="M14.591 24.798c-.49 0-.952-.191-1.299-.538-.415-.417-.606-.878-.606-1.369 0-.49.191-.952.538-1.299l5.524-5.525a1.827 1.827 0 011.3-.538c.49 0 .952.191 1.299.538.785.786.785 1.951.069 2.667l-5.525 5.525a1.824 1.824 0 01-1.3.539z" fill="#ffeea3"></path><path d="M20.048 16.03c.357 0 .693.139.946.392l.069.069a1.34 1.34 0 010 1.891l-5.525 5.525a1.327 1.327 0 01-.946.392 1.33 1.33 0 01-.946-.392l-.069-.069a1.34 1.34 0 010-1.891l5.525-5.525c.253-.253.588-.392.946-.392m0-1a2.33 2.33 0 00-1.653.685L12.87 21.24a2.336 2.336 0 000 3.305l.069.069a2.332 2.332 0 001.653.685 2.33 2.33 0 001.653-.685l5.525-5.525a2.336 2.336 0 000-3.305l-.07-.07a2.329 2.329 0 00-1.652-.684z" fill="#ba9b48"></path></g><g><path d="M20.1 30.307c-.49 0-.952-.191-1.299-.538l-.138-.138a1.84 1.84 0 010-2.599l6.525-6.525a1.828 1.828 0 011.3-.538c.49 0 .951.191 1.299.538l.138.138a1.84 1.84 0 010 2.598L21.4 29.768a1.824 1.824 0 01-1.3.539z" fill="#ffeea3"></path><path d="M26.488 20.47c.357 0 .693.139.946.392l.138.138a1.34 1.34 0 010 1.891l-6.525 6.525a1.327 1.327 0 01-.946.392 1.33 1.33 0 01-.946-.392l-.138-.138a1.34 1.34 0 010-1.891l6.525-6.525a1.33 1.33 0 01.946-.392m0-1a2.33 2.33 0 00-1.653.685L18.31 26.68a2.336 2.336 0 000 3.305l.138.138a2.332 2.332 0 001.653.685 2.33 2.33 0 001.653-.685l6.525-6.525a2.336 2.336 0 000-3.305l-.138-.138a2.33 2.33 0 00-1.653-.685z" fill="#ba9b48"></path></g><g><path d="M22.718 32.924c-.491 0-.953-.191-1.3-.538a1.826 1.826 0 01-.538-1.299c0-.49.191-.952.538-1.299l4.025-4.025c.347-.347.808-.538 1.299-.538s.952.191 1.299.538.538.809.538 1.299c0 .491-.191.952-.538 1.299l-4.024 4.025a1.83 1.83 0 01-1.299.538z" fill="#ffeea3"></path><path d="M26.742 25.724c.357 0 .693.139.946.392s.392.588.392.946c0 .357-.139.693-.392.946l-4.025 4.025c-.253.253-.588.392-.946.392s-.693-.139-.946-.392a1.34 1.34 0 010-1.891l4.025-4.025c.253-.254.589-.393.946-.393m0-1a2.33 2.33 0 00-1.653.685l-4.025 4.025a2.336 2.336 0 103.306 3.305l4.025-4.025a2.336 2.336 0 00-1.653-3.99z" fill="#ba9b48"></path></g><path fill="#ffeea3" d="M20.048 35.647l3.615-3.616-9.647-10.524-3.261 3.261z"></path></svg>