<svg viewBox="0 0 40 40" xmlns="http://www.w3.org/2000/svg"><path d="M10.5 25.5c-1.545 0-3-2.347-3-4.167 0-1.101.51-1.833 3-1.833 1.654 0 3 1.346 3 3s-1.346 3-3 3z" fill="#e8d47b"></path><path d="M10.5 20c1.379 0 2.5 1.121 2.5 2.5S11.879 25 10.5 25C9.293 25 8 22.848 8 21.333 8 20.739 8 20 10.5 20m0-1c-1.933 0-3.5.4-3.5 2.333C7 23.266 8.567 26 10.5 26a3.5 3.5 0 100-7z" fill="#ba9b48"></path><path d="M29.5 25.5c-1.654 0-3-1.346-3-3s1.346-3 3-3c2.49 0 3 .733 3 1.833 0 1.82-1.455 4.167-3 4.167z" fill="#e8d47b"></path><path d="M29.5 20c2.5 0 2.5.739 2.5 1.333C32 22.848 30.707 25 29.5 25c-1.379 0-2.5-1.121-2.5-2.5s1.121-2.5 2.5-2.5m0-1a3.5 3.5 0 100 7c1.933 0 3.5-2.734 3.5-4.667C33 19.4 31.433 19 29.5 19z" fill="#ba9b48"></path><path d="M20 36.5a3.917 3.917 0 01-2.954-1.341l-.082-.093-.117-.043C13.11 33.634 10.5 29.924 10.5 26V13c0-2.313 2.187-4.5 4.5-4.5h10c2.313 0 4.5 2.187 4.5 4.5v13c0 3.924-2.61 7.634-6.347 9.023l-.117.043-.082.093A3.917 3.917 0 0120 36.5z" fill="#ffeea3"></path><path d="M25 9c2.056 0 4 1.944 4 4v13c0 3.719-2.476 7.237-6.022 8.555l-.233.086-.165.185C21.905 35.583 20.989 36 20 36s-1.905-.417-2.58-1.174l-.165-.185-.233-.086C13.476 33.237 11 29.719 11 26V13c0-2.056 1.944-4 4-4h10m0-1H15c-2.591 0-5 2.409-5 5v13c0 4.273 2.826 8.062 6.673 9.492C17.493 36.411 18.672 37 20 37s2.507-.59 3.327-1.508C27.174 34.062 30 30.273 30 26V13c0-2.591-2.409-5-5-5z" fill="#ba9b48"></path><path d="M29.5 23.5v-5.459c0-5.125-4.31-6.505-4.354-6.519l-.331-.102-.212.275c-.029.039-2.991 3.805-8.603 3.805-2.321 0-5.5 0-5.5 4.5v3.5h-.145C9.936 22.26 8.5 17.749 8.5 14c0-5.09 3.717-10.5 10.605-10.5 4.166 0 6.142 2.334 6.496 2.802l.15.198H26c1.427 0 5.5 1.378 5.5 7.5 0 2.966-1.462 8.114-1.872 9.5H29.5z" fill="#b0c1d4"></path><path d="M19.105 4c3.93 0 5.768 2.168 6.097 2.603l.3.397H26c1.297 0 5 1.286 5 7 0 1.711-.504 4.186-1 6.208V18.04c0-4.392-3.079-6.497-4.707-6.996l-.666-.204-.422.553C24.178 11.429 21.39 15 16 15c-2.389 0-6 0-6 5v.561C9.505 18.669 9 16.199 9 14 9 9.031 12.471 4 19.105 4m0-1C11.655 3 8 8.861 8 14c0 4.513 2 10 2 10h1v-4c0-3.815 2.283-4 5-4 5.947 0 9-4 9-4s4 1.227 4 6.04V24h1s2-6.452 2-10c0-6.248-4.117-8-6-8-.475-.629-2.605-3-6.895-3z" fill="#66798f"></path><circle cx="24.75" cy="22.25" r="1.25" fill="#36404d"></circle><circle cx="15.25" cy="22.25" r="1.25" fill="#36404d"></circle><g fill="#788b9c"><path d="M3 8V3h5V2H2v6zM37 8h1V2h-6v1h5zM37 32v5h-5v1h6v-6zM3 32H2v6h6v-1H3z"></path></g><g><path d="M20 36.5a3.917 3.917 0 01-2.954-1.341l-.082-.093-.117-.043C13.11 33.634 10.5 29.924 10.5 26v-.393l-.382-.161c-.759-.185-1.514-.922-2.03-1.946h23.824c-.517 1.024-1.271 1.761-2.03 1.946l-.382.094v.393c0 3.992-2.61 7.702-6.347 9.091l-.117.043-.082.093A3.92 3.92 0 0120 36.5z" fill="#c2e8ff"></path><path d="M31.011 24c-.383.504-.828.858-1.248.961l-.763.186V26c0 3.719-2.476 7.237-6.022 8.555l-.233.086-.165.185C21.905 35.583 20.989 36 20 36s-1.905-.417-2.58-1.174l-.165-.185-.233-.086C13.476 33.237 11 29.719 11 26v-.853l-.763-.186c-.42-.103-.865-.457-1.248-.961h22.022m1.659-1H7.33c.487 1.352 1.476 2.64 2.67 2.932V26c0 4.273 2.826 8.062 6.673 9.492C17.493 36.411 18.672 37 20 37s2.507-.59 3.327-1.508C27.174 34.062 30 30.273 30 26v-.068c1.194-.292 2.183-1.58 2.67-2.932z" fill="#8bb7f0"></path></g><path fill="#c2e8ff" d="M2 23h36v1H2z"></path></svg>