<svg viewBox="0 0 40 40" xmlns="http://www.w3.org/2000/svg"><path fill="#f78f8f" d="M1.5 38.5v-14h3v3h4v-5h3v-3h1.646L23.5 12.911V19.5h10.999l-.034 19z"></path><path d="M23 13.822V20h10.998l-.032 18H2V25h2v3h5v-5h3v-3h1.291l.246-.156L23 13.822M24 12l-11 7h-2v3H8v5H5v-3H1v15h33.964L35 19H24v-7z" fill="#c74343"></path><path fill="#c74343" d="M12.5 24.5h3v3h-3z"></path><path d="M15 25v2h-2v-2h2m1-1h-4v4h4v-4z" fill="#ab3434"></path><path fill="#c74343" d="M5.5 31.5h3v3h-3z"></path><path d="M8 32v2H6v-2h2m1-1H5v4h4v-4z" fill="#ab3434"></path><path fill="#c74343" d="M12.5 31.5h3v3h-3z"></path><path d="M15 32v2h-2v-2h2m1-1h-4v4h4v-4z" fill="#ab3434"></path><g><path fill="#c74343" d="M19.5 24.5h3v3h-3z"></path><path d="M22 25v2h-2v-2h2m1-1h-4v4h4v-4z" fill="#ab3434"></path></g><g><path fill="#c74343" d="M19.5 31.5h3v3h-3z"></path><path d="M22 32v2h-2v-2h2m1-1h-4v4h4v-4z" fill="#ab3434"></path></g><g><path fill="#c74343" d="M28.527 38.5l1.579-30H31.5v-4h3v-3h2.026l1.982 37z"></path><path d="M36.052 2l1.928 36h-8.926L30.58 9H32V5h3V2h1.052M37 1h-3v3h-3v4h-1.368L28 39h11.035L37 1z" fill="#ab3434"></path></g></svg>