<svg viewBox="0 0 40 40" xmlns="http://www.w3.org/2000/svg"><path fill="#ffeea3" d="M4.5 34.5V31l-.935-16.841 7.495 6.558L20 9.79l8.94 10.927 7.495-6.558-.934 16.813L35.5 34.5z"></path><path d="M20 10.579l8.226 10.054.655.8.778-.681 6.211-5.435-.868 15.627-.002.028V34H5v-3.028l-.002-.028-.868-15.626 6.211 5.435.778.681.655-.8L20 10.579M20 9l-9 11-8-7 1 18v4h32v-4l1-18-8 7-9-11z" fill="#f5c276"></path><path fill="#f5c276" d="M4.5 31.5h31v3h-31z"></path><path d="M35 32v2H5v-2h30m1-1H4v4h32v-4z" fill="#c29653"></path><circle cx="20" cy="8" r="2.5" fill="#f5c276"></circle><path d="M20 6c1.103 0 2 .897 2 2s-.897 2-2 2-2-.897-2-2 .897-2 2-2m0-1c-1.65 0-3 1.35-3 3s1.35 3 3 3 3-1.35 3-3-1.35-3-3-3z" fill="#c29653"></path><g><circle cx="37" cy="12" r="2.5" fill="#f5c276"></circle><path d="M37 10c1.103 0 2 .897 2 2s-.897 2-2 2-2-.897-2-2 .897-2 2-2m0-1c-1.65 0-3 1.35-3 3s1.35 3 3 3 3-1.35 3-3-1.35-3-3-3z" fill="#c29653"></path></g><g><circle cx="3" cy="12" r="2.5" fill="#f5c276"></circle><path d="M3 10c1.103 0 2 .897 2 2s-.897 2-2 2-2-.897-2-2 .897-2 2-2m0-1c-1.65 0-3 1.35-3 3s1.35 3 3 3 3-1.35 3-3-1.35-3-3-3z" fill="#c29653"></path></g><path fill="#f5c276" d="M36 21.124l-6.891 5.482L20 16l-9.109 10.606L4 21.169v1.336L11 28l9-10.481L29 28l7-5.51z"></path></svg>