<svg viewBox="0 0 40 40" xmlns="http://www.w3.org/2000/svg"><path d="M31 36.5c-5.156-.943-10.273-1.111-14.788-1.26-6.211-.205-11.157-.368-13.643-2.408C3.457 29.707 5.5 21.242 5.5 18 5.5 6.628 14.77 2.5 21 2.5c9.252 0 10.5 4.297 10.5 8.5v5.521c-2.28.188-4 1.648-4 3.479 0 .714.476 2.346 1.318 5.168 1.068 3.582 2.509 8.412 2.667 11.332H31z" fill="#fff1e8"></path><path d="M21 3c8.789 0 10 3.845 10 8v5.077c-2.309.361-4 1.955-4 3.923 0 .786.459 2.361 1.339 5.311.996 3.339 2.318 7.771 2.605 10.663-5.198-.92-10.251-1.087-14.715-1.234-5.673-.187-10.622-.35-13.086-2.099C4.096 29.211 6 21.232 6 18 6 6.135 15.812 3 21 3m0-1C14.726 2 5 6.055 5 18c0 3.245-2.115 11.984-3 15 4.312 4 16.328 1.703 29 4h1c0-4.706-4-15.223-4-17 0-1.777 1.868-3 4-3v-6c0-4.975-1.991-9-11-9zM32 37c0-4.706-4-15.223-4-17" fill="#593f33"></path><path d="M30.315 6.994C29.282 4.669 26.786 3 21 3 15.812 3 6 6.135 6 18c0 3.124-1.777 10.673-2.757 14.272l-.417 1.381c1.798 1.25 4.42 2.038 7.674 2.527v-.68c0-5.41 7-17.21 7-19.99 0-2.77-1.86-4.01-5-4.01 4.79 0 5.4-4.5 13-4.5 0 0 2.006-.006 4.815-.006z" fill="#805f51"></path><path d="M28.339 25.311C27.459 22.362 27 20.786 27 20c0-1.968 1.691-3.562 4-3.923V11c0-1.225-.112-2.42-.486-3.5H25.5c-7.6 0-8.21 4-13 4 3.14 0 5 1.24 5 4.01 0 2.78-7 14.58-7 19.99v.68C15.92 37 23.08 37 31 37c0-.392-.039-.784-.054-1-.281-2.891-1.608-7.34-2.607-10.689z" fill="#fff1e8"></path><path d="M21 12.5a2.485 2.485 0 01-2.5-2.459c0-.356.061-.673.176-.952a12.206 12.206 0 013.509-1.286c.303.157.563.373.756.629.356.443.539.981.539 1.568 0 1.378-1.112 2.5-2.48 2.5z" fill="#fff"></path><path d="M22.101 8.331c.176.112.33.254.46.425.274.342.419.772.419 1.244 0 1.122-.87 2-1.98 2-1.101 0-1.98-.865-2-2 0-.196.028-.386.081-.562a11.665 11.665 0 013.02-1.107m.149-1.051c-1.67.32-2.9.86-3.96 1.45-.19.38-.29.82-.29 1.27v.05A2.999 2.999 0 0021 13c1.66 0 2.98-1.34 2.98-3 0-.71-.23-1.36-.64-1.87-.28-.37-.66-.66-1.09-.85z" fill="#36404d"></path><path d="M36.981 19.494c-.164 0-.406-.112-.549-.357C35.695 17.869 33.791 16.5 32 16.5l-3.316.003-.676.005c-4.381 0-4.507-.893-4.507-.995.069-.532 1.094-.864 2.085-1.186 1.313-.425 2.801-.908 2.914-2.287V8.5c0-1.103.897-2 2-2s2 .897 2 2v1h.5c2.733 0 4.5 2.36 4.5 6.013 0 1.304-.047 2.681-.391 3.912-.008.031-.019.069-.128.069z" fill="#ffc49c"></path><path d="M30.5 7c.827 0 1.5.673 1.5 1.5V10h1c2.43 0 4 2.164 4 5.513 0 1.219-.044 2.256-.236 3.208C35.883 17.356 33.918 16 32 16h-3l-.322.003c-.183.002-.411.005-.67.005-2.691 0-3.621-.344-3.917-.515.296-.252 1.183-.539 1.648-.69 1.389-.45 3.118-1.01 3.258-2.722l.003-.04V8.5c0-.827.673-1.5 1.5-1.5m0-1A2.507 2.507 0 0028 8.5V12c-.167 2.042-4.771 1.646-5 3.513 0 1.361 3.218 1.495 5.008 1.495.44 0 .794-.008.992-.008h3c1.599 0 3.349 1.268 4 2.388.23.395.634.606.981.606.283 0 .528-.14.61-.434.34-1.22.409-2.533.409-4.047C38 11.604 36.021 9 33 9v-.5C33 7.125 31.875 6 30.5 6z" fill="#593f33"></path><g><path d="M30.499 9.5c.005.7 0 1.484 0 2" fill="none" stroke="#593f33" stroke-linecap="round" stroke-linejoin="round" stroke-miterlimit="10"></path></g><path d="M23.975 9.75a2.972 2.972 0 00-.432-1.325A1.493 1.493 0 0022.5 8a1.5 1.5 0 000 3c.743 0 1.355-.541 1.475-1.25z" fill="#36404d"></path><path d="M23.5 6.504s.5.829 2 .996c-7.601 0-8.214 4-13 4 3.137 0 5 1.238 5 4.013s-7 14.579-7 19.987v.178" fill="none" stroke="#593f33" stroke-linecap="round" stroke-linejoin="round" stroke-miterlimit="10"></path></svg>