<svg viewBox="0 0 40 40" xmlns="http://www.w3.org/2000/svg"><path d="M19.5 35.5c-9.925 0-18-4.511-18-10.056 0-5.857 9.298-7.944 18-7.944s18 2.087 18 7.944c0 5.545-8.075 10.056-18 10.056z" fill="#f78f8f"></path><path d="M19.5 18c8.46 0 17.5 1.956 17.5 7.444C37 30.624 28.986 35 19.5 35S2 30.624 2 25.444C2 19.956 11.04 18 19.5 18m0-1C9.283 17 1 19.615 1 25.444 1 31.274 9.283 36 19.5 36S38 31.274 38 25.444C38 19.615 29.717 17 19.5 17z" fill="#c74343"></path><path d="M4.36 20.5L.693 9.5H5c1.382 0 2.569-.621 3.943-1.34C11.208 6.975 14.026 5.5 19.5 5.5c4.948 0 7.894 1.447 10.26 2.609C31.28 8.855 32.592 9.5 34 9.5h4.306l-3.667 11H4.36z" fill="#f78f8f"></path><path d="M19.5 6c4.832 0 7.72 1.418 10.04 2.558C31.115 9.332 32.476 10 34 10h3.613L34.28 20H4.721L1.387 10H5c1.505 0 2.742-.648 4.175-1.397C11.391 7.443 14.149 6 19.5 6m0-1C10.5 5 8.329 9 5 9H0l4 12h31l4-12h-5c-3.329 0-6.224-4-14.5-4z" fill="#c74343"></path><path fill="#b6c9d6" d="M19 26.5L4.5 23.59v-6.18l14.598-2.92.902.01 14.5 2.91v6.18L19.951 26.5z"></path><path d="M19.901 15L34 17.82v5.36L19.901 26h-.802L5 23.18v-5.36L19.099 15h.802M20 14h-1L4 17v7l15 3h1l15-3v-7l-15-3z" fill="#66798f"></path><path d="M16 16.5c-.827 0-1.5-.673-1.5-1.5v-3c0-1.378 1.122-2.5 2.5-2.5s2.5 1.122 2.5 2.5v3c0 .827-.673 1.5-1.5 1.5h-2z" fill="#fff"></path><path d="M17 10a2 2 0 012 2v3a1 1 0 01-1 1h-2a1 1 0 01-1-1v-3a2 2 0 012-2m0-1c-1.654 0-3 1.346-3 3v3c0 1.103.897 2 2 2h2c1.103 0 2-.897 2-2v-3c0-1.654-1.346-3-3-3z" fill="#66798f"></path><path d="M21 16.5c-.827 0-1.5-.673-1.5-1.5v-3c0-1.378 1.122-2.5 2.5-2.5s2.5 1.122 2.5 2.5v3c0 .827-.673 1.5-1.5 1.5h-2z" fill="#fff"></path><path d="M22 10a2 2 0 012 2v3a1 1 0 01-1 1h-2a1 1 0 01-1-1v-3a2 2 0 012-2m0-1c-1.654 0-3 1.346-3 3v3c0 1.103.897 2 2 2h2c1.103 0 2-.897 2-2v-3c0-1.654-1.346-3-3-3z" fill="#66798f"></path><path d="M11 17.5c-.827 0-1.5-.673-1.5-1.5v-2c0-1.378 1.122-2.5 2.5-2.5s2.5 1.122 2.5 2.5v2c0 .827-.673 1.5-1.5 1.5h-2z" fill="#fff"></path><path d="M12 12a2 2 0 012 2v2a1 1 0 01-1 1h-2a1 1 0 01-1-1v-2a2 2 0 012-2m0-1c-1.654 0-3 1.346-3 3v2c0 1.103.897 2 2 2h2c1.103 0 2-.897 2-2v-2c0-1.654-1.346-3-3-3z" fill="#66798f"></path><path d="M26 17.5c-.827 0-1.5-.673-1.5-1.5v-2c0-1.378 1.122-2.5 2.5-2.5s2.5 1.122 2.5 2.5v2c0 .827-.673 1.5-1.5 1.5h-2z" fill="#fff"></path><path d="M27 12a2 2 0 012 2v2a1 1 0 01-1 1h-2a1 1 0 01-1-1v-2a2 2 0 012-2m0-1c-1.654 0-3 1.346-3 3v2c0 1.103.897 2 2 2h2c1.103 0 2-.897 2-2v-2c0-1.654-1.346-3-3-3z" fill="#66798f"></path><path d="M6 18.5c-.827 0-1.5-.673-1.5-1.5v-2c0-1.378 1.122-2.5 2.5-2.5s2.5 1.122 2.5 2.5v2c0 .827-.673 1.5-1.5 1.5H6z" fill="#fff"></path><path d="M7 13a2 2 0 012 2v2a1 1 0 01-1 1H6a1 1 0 01-1-1v-2a2 2 0 012-2m0-1c-1.654 0-3 1.346-3 3v2c0 1.103.897 2 2 2h2c1.103 0 2-.897 2-2v-2c0-1.654-1.346-3-3-3z" fill="#66798f"></path><g><path d="M31 18.5c-.827 0-1.5-.673-1.5-1.5v-2c0-1.378 1.122-2.5 2.5-2.5s2.5 1.122 2.5 2.5v2c0 .827-.673 1.5-1.5 1.5h-2z" fill="#fff"></path><path d="M32 13a2 2 0 012 2v2a1 1 0 01-1 1h-2a1 1 0 01-1-1v-2a2 2 0 012-2m0-1c-1.654 0-3 1.346-3 3v2c0 1.103.897 2 2 2h2c1.103 0 2-.897 2-2v-2c0-1.654-1.346-3-3-3z" fill="#66798f"></path></g><g><path d="M17 31.5a2.503 2.503 0 01-2.5-2.5v-3c0-.827.673-1.5 1.5-1.5h2c.827 0 1.5.673 1.5 1.5v3c0 1.378-1.122 2.5-2.5 2.5z" fill="#fff"></path><path d="M18 25a1 1 0 011 1v3a2 2 0 11-4 0v-3a1 1 0 011-1h2m0-1h-2c-1.103 0-2 .897-2 2v3c0 1.654 1.346 3 3 3s3-1.346 3-3v-3c0-1.103-.897-2-2-2z" fill="#66798f"></path></g><g><path d="M22 31.5a2.503 2.503 0 01-2.5-2.5v-3c0-.827.673-1.5 1.5-1.5h2c.827 0 1.5.673 1.5 1.5v3c0 1.378-1.122 2.5-2.5 2.5z" fill="#fff"></path><path d="M23 25a1 1 0 011 1v3a2 2 0 11-4 0v-3a1 1 0 011-1h2m0-1h-2c-1.103 0-2 .897-2 2v3c0 1.654 1.346 3 3 3s3-1.346 3-3v-3c0-1.103-.897-2-2-2z" fill="#66798f"></path></g><g><path d="M12 29.5A2.503 2.503 0 019.5 27v-2c0-.827.673-1.5 1.5-1.5h2c.827 0 1.5.673 1.5 1.5v2c0 1.378-1.122 2.5-2.5 2.5z" fill="#fff"></path><path d="M13 24a1 1 0 011 1v2a2 2 0 11-4 0v-2a1 1 0 011-1h2m0-1h-2c-1.103 0-2 .897-2 2v2c0 1.654 1.346 3 3 3s3-1.346 3-3v-2c0-1.103-.897-2-2-2z" fill="#66798f"></path></g><g><path d="M27 29.5a2.503 2.503 0 01-2.5-2.5v-2c0-.827.673-1.5 1.5-1.5h2c.827 0 1.5.673 1.5 1.5v2c0 1.378-1.122 2.5-2.5 2.5z" fill="#fff"></path><path d="M28 24a1 1 0 011 1v2a2 2 0 11-4 0v-2a1 1 0 011-1h2m0-1h-2c-1.103 0-2 .897-2 2v2c0 1.654 1.346 3 3 3s3-1.346 3-3v-2c0-1.103-.897-2-2-2z" fill="#66798f"></path></g><g><path d="M7 28.5A2.503 2.503 0 014.5 26v-2c0-.827.673-1.5 1.5-1.5h2c.827 0 1.5.673 1.5 1.5v2c0 1.378-1.122 2.5-2.5 2.5z" fill="#fff"></path><path d="M8 23a1 1 0 011 1v2a2 2 0 11-4 0v-2a1 1 0 011-1h2m0-1H6c-1.103 0-2 .897-2 2v2c0 1.654 1.346 3 3 3s3-1.346 3-3v-2c0-1.103-.897-2-2-2z" fill="#66798f"></path></g><g><path d="M32 28.5a2.503 2.503 0 01-2.5-2.5v-2c0-.827.673-1.5 1.5-1.5h2c.827 0 1.5.673 1.5 1.5v2c0 1.378-1.122 2.5-2.5 2.5z" fill="#fff"></path><path d="M33 23a1 1 0 011 1v2a2 2 0 11-4 0v-2a1 1 0 011-1h2m0-1h-2c-1.103 0-2 .897-2 2v2c0 1.654 1.346 3 3 3s3-1.346 3-3v-2c0-1.103-.897-2-2-2z" fill="#66798f"></path></g></svg>