<svg viewBox="0 0 40 40" xmlns="http://www.w3.org/2000/svg"><path d="M19.5 35.5V28c0-4.687 3.813-8.5 8.5-8.5h2c4.687 0 8.5 3.813 8.5 8.5v7.5h-19z" fill="#8bb7f0"></path><path d="M30 20c4.411 0 8 3.589 8 8v7H20v-7c0-4.411 3.589-8 8-8h2m0-1h-2a9 9 0 00-9 9v8h20v-8a9 9 0 00-9-9z" fill="#4e7ab5"></path><path d="M1.5 35.5V26c0-3.584 2.916-6.5 6.5-6.5h6c3.584 0 6.5 2.916 6.5 6.5v9.5h-19z" fill="#bae0bd"></path><path d="M14 20c3.308 0 6 2.692 6 6v9H2v-9c0-3.308 2.692-6 6-6h6m0-1H8a7 7 0 00-7 7v10h20V26a7 7 0 00-7-7z" fill="#5e9c76"></path><path d="M13.5 38.5V38c0-3.033 2.467-5.5 5.5-5.5h2c3.033 0 5.5 2.467 5.5 5.5v.5h-13z" fill="#f78f8f"></path><path d="M21 33c2.757 0 5 2.243 5 5H14c0-2.757 2.243-5 5-5h2m0-1h-2a6 6 0 00-6 6v1h14v-1a6 6 0 00-6-6z" fill="#c74343"></path><path d="M11 21.5c-1.379 0-2.191-.493-2.5-.729v-5.557h5v5.557c-.306.234-1.118.729-2.5.729z" fill="#deb974"></path><path d="M13 15.714v4.791c-.345.209-1.001.495-2 .495-1.003 0-1.659-.288-2-.493v-4.793h4m1-1H8V21s.964 1 3 1 3-1 3-1v-6.286z" fill="#967a44"></path><path d="M15.143 13.929c-.669 0-1.214-.545-1.214-1.214s.545-1.214 1.214-1.214c1.214 0 1.214.356 1.214.643 0 .736-.628 1.785-1.214 1.785zm-8.572 0c-.586 0-1.214-1.048-1.214-1.786 0-.286 0-.643 1.214-.643.669 0 1.214.545 1.214 1.214s-.544 1.215-1.214 1.215z" fill="#deb974"></path><path d="M15.143 12c.45 0 .642.056.711.084a.458.458 0 01.003.059c0 .585-.512 1.286-.714 1.286a.714.714 0 010-1.429m-8.572 0a.714.714 0 010 1.428c-.202 0-.714-.7-.714-1.286 0-.025.001-.044.003-.059.069-.027.262-.083.711-.083m8.572-1a1.714 1.714 0 000 3.428c.947 0 1.714-1.339 1.714-2.286 0-.946-.767-1.142-1.714-1.142zm-8.572 0c-.947 0-1.714.196-1.714 1.143 0 .947.768 2.286 1.714 2.286a1.714 1.714 0 100-3.429z" fill="#967a44"></path><path d="M11 18.5c-.423 0-.813-.199-1.072-.545l-.097-.13-.156-.048C7.776 17.188 6.5 15.469 6.5 13.5V7.453c0-1.038.845-1.883 1.883-1.883h5.234c1.038 0 1.883.845 1.883 1.883V13.5c0 1.969-1.276 3.688-3.175 4.276l-.156.048-.097.13A1.33 1.33 0 0111 18.5z" fill="#f5ce85"></path><path d="M13.617 6.07c.763 0 1.383.62 1.383 1.383V13.5c0 1.749-1.135 3.275-2.823 3.799l-.311.096-.195.261c-.163.219-.407.344-.671.344s-.508-.125-.671-.344l-.195-.261-.311-.096C8.135 16.775 7 15.249 7 13.5V7.453c0-.763.62-1.383 1.383-1.383h5.234m0-1H8.383A2.383 2.383 0 006 7.453V13.5c0 2.245 1.49 4.122 3.527 4.754.336.45.868.746 1.473.746s1.137-.296 1.473-.746C14.51 17.622 16 15.745 16 13.5V7.453a2.383 2.383 0 00-2.383-2.383z" fill="#967a44"></path><path d="M29 21.5c-1.379 0-2.191-.493-2.5-.729v-5.557h5v5.557c-.306.234-1.118.729-2.5.729z" fill="#ffdea3"></path><path d="M31 15.714v4.791c-.345.209-1.001.495-2 .495-1.003 0-1.659-.288-2-.493v-4.793h4m1-1h-6V21s.964 1 3 1 3-1 3-1v-6.286z" fill="#967a44"></path><g><path d="M29 18.5c-.344 0-.673-.133-.926-.375l-.093-.089-.125-.033A4.495 4.495 0 0124.5 13.67V8.622c0-1.038.845-1.883 1.883-1.883h5.234c1.038 0 1.883.845 1.883 1.883v5.047c0 2.03-1.38 3.812-3.356 4.333l-.125.033-.093.089A1.332 1.332 0 0129 18.5z" fill="#ffdea3"></path><path d="M31.617 7.239c.763 0 1.383.621 1.383 1.383v5.047a3.994 3.994 0 01-2.984 3.85l-.25.066-.187.179a.833.833 0 01-1.159 0l-.187-.179-.25-.066A3.993 3.993 0 0125 13.67V8.622c0-.763.62-1.383 1.383-1.383h5.234m0-1h-5.234A2.383 2.383 0 0024 8.622v5.047c0 2.319 1.587 4.251 3.729 4.817a1.831 1.831 0 002.542 0C32.413 17.921 34 15.989 34 13.67V8.622a2.383 2.383 0 00-2.383-2.383z" fill="#967a44"></path></g><g><path d="M15.5 12.132v-1.708c0-2.338-1.09-3.517-1.137-3.565l-.405-.428-.356.469c-.049.062-1.295 1.6-4.602 1.6-2.075 0-2.5 1.213-2.5 3.034v.599h-.169C6.074 11.491 5.5 9.851 5.5 8c0-3.444 2.088-5.5 5.585-5.5 2.128 0 2.934 1.692 2.942 1.709l.134.291h.32C15.688 4.5 16.5 5.907 16.5 8c0 .729-.566 2.969-.881 4.132H15.5z" fill="#a6714e"></path><path d="M11.085 3a2.773 2.773 0 012.488 1.419l.268.581h.64C15.375 5 16 6.234 16 8c0 .195-.053.547-.138.981-.308-1.547-1.034-2.358-1.136-2.466l-.81-.855-.713.937C13.193 6.611 12.052 8 9 8c-1.767 0-2.511.834-2.81 1.877A9.881 9.881 0 016 8c0-3.178 1.853-5 5.085-5m0-1C7.488 2 5 4.107 5 8c0 2.522 1 4.632 1 4.632h1v-1.098C7 9.628 7.482 9 9 9c3.634 0 5-1.797 5-1.797s1 1.056 1 3.222v2.208h1s1-3.57 1-4.632c0-2.499-1.081-4-2.519-4C14.481 4 13.558 2 11.085 2z" fill="#7a4f34"></path></g><g><path d="M33.851 18.143c-1.335 0-2.192-.42-2.636-.724.51-.588 1.285-1.79 1.285-3.671v-1.115c0-1.724-.441-2.56-.492-2.649l-.314-.559-.466.44c-.01.009-1.188 1.081-3.713 1.542-1.87.341-2.015 2.354-2.015 2.962 0 1.807.654 2.712 1.23 3.159-.508.287-1.35.614-2.544.614-1.252 0-2.568-.575-3.31-.96.669-.63 1.663-1.827 1.663-3.378 0-.749-.011-1.182-.021-1.59-.009-.359-.018-.698-.018-1.223 0-4.004 2.486-6.491 6.487-6.491 2.268 0 3.348 1.485 3.358 1.5l.149.21h.258c1.694 0 2.747 1.835 2.747 4.789v2.805c0 1.435.997 2.377 1.675 2.853-.655.565-1.938 1.486-3.323 1.486z" fill="#f5ce85"></path><path d="M28.987 5c1.97 0 2.917 1.245 2.951 1.289l.299.421h.517C34.139 6.711 35 8.354 35 11v2.805c0 1.303.702 2.246 1.374 2.85-.645.472-1.569.988-2.523.988-.839 0-1.463-.182-1.892-.378.505-.739 1.041-1.903 1.041-3.517v-1.115c0-1.813-.463-2.729-.556-2.894l-.623-1.087-.929.844c-.011.01-1.111.99-3.467 1.419C25.929 11.189 25 12.512 25 14.37c0 1.452.395 2.393.872 2.999a5.01 5.01 0 01-1.685.274c-.865 0-1.778-.308-2.474-.614.647-.748 1.327-1.859 1.327-3.224 0-.755-.011-1.191-.022-1.603-.009-.355-.018-.691-.018-1.211C23 7.24 25.238 5 28.987 5m0-1C25.051 4 22 6.368 22 10.991c0 1.124.039 1.407.039 2.813 0 2.051-2.037 3.456-2.037 3.456s2.14 1.382 4.184 1.382c2.346 0 3.491-1.187 3.491-1.187S26 17.152 26 14.37c0-.456.084-2.193 1.605-2.47 2.729-.498 3.967-1.67 3.967-1.67s.428.761.428 2.404v1.115c0 2.531-1.525 3.702-1.525 3.702s1.052 1.192 3.376 1.192c2.237 0 4.147-2.074 4.147-2.074S36 15.639 36 13.805V11c0-3.771-1.565-5.289-3.246-5.289 0 0-1.215-1.711-3.767-1.711z" fill="#967a44"></path></g><g><path d="M20 34.071c-.786 0-1.275-.252-1.5-.405v-3.452h3v3.453c-.222.151-.712.404-1.5.404z" fill="#ffdea3"></path><path d="M21 30.714v2.66a2.38 2.38 0 01-1 .197c-.459 0-.79-.101-1-.196v-2.661h2m1-1h-4v4.19s.642.667 2 .667 2-.667 2-.667v-4.19z" fill="#967a44"></path></g><g><path d="M23.654 29.053c-.323 0-.596-.367-.596-.801 0-.435.273-.801.596-.801s.596.367.596.801c0 .434-.273.801-.596.801zm-7.308 0c-.323 0-.596-.367-.596-.801 0-.435.273-.801.596-.801s.596.367.596.801c0 .434-.273.801-.596.801z" fill="#deb974"></path><path d="M23.654 27.964a.42.42 0 01.096.288c0 .187-.088.29-.074.305-.03-.015-.118-.119-.118-.305a.42.42 0 01.096-.288m-7.308 0a.42.42 0 01.096.288c0 .187-.088.29-.074.305-.03-.015-.118-.119-.118-.305a.42.42 0 01.096-.288m7.308-1.013c-.605 0-1.096.583-1.096 1.301s.491 1.301 1.096 1.301c.605 0 1.096-.583 1.096-1.301s-.491-1.301-1.096-1.301zm-7.308 0c-.605 0-1.096.583-1.096 1.301s.491 1.301 1.096 1.301c.605 0 1.096-.583 1.096-1.301s-.49-1.301-1.096-1.301z" fill="#967a44"></path></g><g><path d="M20 32.5c-1.93 0-3.5-1.57-3.5-3.5v-3.5h7V29c0 1.93-1.57 3.5-3.5 3.5z" fill="#ffdea3"></path><path d="M23 26v3c0 1.654-1.346 3-3 3s-3-1.346-3-3v-3h6m1-1h-8v4a4 4 0 008 0v-4z" fill="#967a44"></path></g><g><path d="M23.5 28.5v-.795a2.207 2.207 0 00-2.205-2.205h-2.59a2.207 2.207 0 00-2.205 2.205v.795h-.122c-.14-.524-.378-1.543-.378-2.409 0-1.734 1.607-3.591 4-3.591s4 1.857 4 3.591c0 .885-.236 1.892-.376 2.409H23.5z" fill="#f5ce85"></path><path d="M20 23c2.094 0 3.5 1.598 3.5 3.091v.048A2.704 2.704 0 0021.295 25h-2.59c-.908 0-1.714.45-2.205 1.139v-.048C16.5 24.598 17.906 23 20 23m0-1c-2.649 0-4.5 2.056-4.5 4.091 0 1.315.5 2.909.5 2.909h1v-1.295c0-.942.763-1.705 1.705-1.705h2.59c.942 0 1.705.763 1.705 1.705V29h1s.5-1.562.5-2.909C24.5 24.045 22.649 22 20 22z" fill="#967a44"></path></g></svg>