<svg viewBox="0 0 40 40" xmlns="http://www.w3.org/2000/svg"><path d="M35.538 38.615a25.913 25.913 0 002.042-10.084c0-14.303-11.613-25.916-25.916-25.916-3.464 0-6.893.694-10.084 2.042l10.084 23.874 23.874 10.084z" fill-rule="evenodd" clip-rule="evenodd" fill="#c2e8ff"></path><path d="M35.538 38.615a25.913 25.913 0 002.042-10.084c0-14.303-11.613-25.916-25.916-25.916-3.464 0-6.893.694-10.084 2.042l10.084 23.874 23.874 10.084z" fill="none" stroke="#7496c4" stroke-miterlimit="2"></path><path opacity=".2" fill-rule="evenodd" clip-rule="evenodd" fill="#7496c4" d="M12.118 28.394L5.281 3.63 1.995 4.724zM12.205 28.721l3.968-25.233c-2.754-.425-3.176-.72-3.978-.592l.01 25.825z"></path><path d="M12.205 28.721L25.569 6.776c-2.378-1.452-2.63-1.543-3.42-1.734l-9.944 23.679z" opacity=".2" fill-rule="evenodd" clip-rule="evenodd" fill="#7496c4"></path><path opacity=".2" fill-rule="evenodd" clip-rule="evenodd" fill="#7496c4" d="M12.195 28.721l20.891-14.898L30 10.535z"></path><path d="M11.945 28.721l25.369-5.972c-.455-2.75-1.038-3.036-1.409-3.758l-23.96 9.73zM12.195 28.857l24.981 4.236c.639-2.713.673-3.426.608-4.236H12.195z" opacity=".2" fill-rule="evenodd" clip-rule="evenodd" fill="#7496c4"></path><path fill="none" stroke="#7496c4" stroke-linecap="round" stroke-linejoin="round" stroke-miterlimit="2" d="M11.665 2.615l-.059 17.997M21.776 4.665l-7.006 16.6M29.781 10.202L17.209 22.913M35.291 18.648l-16.697 7.034M37.581 28.531l-18.694.19"></path><path d="M18.998 31.629c.415-.982.585-1.973.585-3.04a7.98 7.98 0 00-7.977-7.977 7.595 7.595 0 00-3.029.61l3.076 7.281 7.345 3.126z" fill-rule="evenodd" clip-rule="evenodd" fill="#fed49e"></path><path d="M18.998 31.629c.415-.982.585-1.973.585-3.04a7.98 7.98 0 00-7.977-7.977 7.595 7.595 0 00-3.029.61l3.076 7.281 7.345 3.126z" fill="none" stroke="#ca7f2d" stroke-miterlimit="2"></path></svg>