<svg viewBox="0 0 40 40" xmlns="http://www.w3.org/2000/svg"><path d="M31.5 27.5h2.06a15.389 15.389 0 01-2.06 2.906V27.5z" fill="#8bb7f0"></path><path d="M32.688 28c-.217.347-.446.683-.688 1.008V28h.688m1.694-1H31v4.633A15.976 15.976 0 0034.382 27z" fill="#4e7ab5"></path><path d="M31.5 22.5V9.589c2.588 2.846 4 6.499 4 10.411 0 .814-.069 1.635-.212 2.5H31.5z" fill="#8bb7f0"></path><path d="M32 10.974c1.949 2.577 3 5.705 3 9.026 0 .654-.047 1.315-.142 2H32V10.974m-1-2.607V23h4.707A15.913 15.913 0 0031 8.367z" fill="#4e7ab5"></path><g><path d="M20 35.5c-8.547 0-15.5-6.953-15.5-15.5S11.453 4.5 20 4.5c2.224 0 4.38.468 6.416 1.391L9.5 23.801V27.5h17v6.571A15.429 15.429 0 0120 35.5z" fill="#8bb7f0"></path><path d="M20 5c1.917 0 3.782.359 5.559 1.069L9.273 23.313 9 23.602V28h17v5.747A14.917 14.917 0 0120 35c-8.271 0-15-6.729-15-15S11.729 5 20 5m0-1C11.158 4 4 11.074 4 20s7.158 16 16 16c2.515 0 4.884-.588 7-1.612V27H10v-3L27 6v-.388A16.016 16.016 0 0020 4z" fill="#4e7ab5"></path><g><path fill="#8bb7f0" d="M16.632 22.5L26.5 12.241V22.5z"></path><path d="M26 13.482V22h-8.193L26 13.482M27 11L15.457 23H27V11z" fill="#4e7ab5"></path></g></g><g><path d="M20 2c9.925 0 18 8.075 18 18s-8.075 18-18 18S2 29.925 2 20 10.075 2 20 2m0-1C9.5 1 1 9.4 1 20s8.5 19 19 19 19-8.4 19-19S30.5 1 20 1z" fill="#4e7ab5"></path></g></svg>