<svg viewBox="0 0 40 40" xmlns="http://www.w3.org/2000/svg"><path d="M31.104 18.068a1.838 1.838 0 00-1.618-.942c-.679 0-1.284.352-1.618.943l-.76 1.341-.184-.053.079-1.582a1.83 1.83 0 00-.506-1.368 1.877 1.877 0 00-1.353-.583c-.301 0-.592.072-.865.216l-1.459.767-.095-.107.996-1.41a1.836 1.836 0 00.171-1.846 1.84 1.84 0 00-1.516-1.074l-1.829-.172-.011-.075 1.724-.694a1.84 1.84 0 001.146-1.457 1.837 1.837 0 00-.685-1.721l-1.576-1.249.004-.01 1.915.379a1.856 1.856 0 001.878-.746c.352-.493.44-1.105.242-1.68l-.658-1.911 1.398 1.359c.35.34.808.527 1.291.527.87 0 1.616-.589 1.815-1.431l.455-1.922.454 1.922c.2.843.946 1.431 1.816 1.431.482 0 .94-.187 1.29-.526l1.398-1.358-.658 1.91a1.86 1.86 0 002.12 2.427l1.896-.376.008.017-1.56 1.236a1.841 1.841 0 00-.685 1.72 1.838 1.838 0 001.145 1.457l1.725.694-.011.075-1.829.172a1.843 1.843 0 00-1.516 1.074 1.836 1.836 0 00.171 1.846l.996 1.41-.095.107-1.459-.767a1.83 1.83 0 00-.865-.216c-.507 0-1 .212-1.353.583a1.828 1.828 0 00-.505 1.368l.079 1.582-.184.053-.759-1.34z" fill="#c2e8ff"></path><path d="M29.486 3.725a2.354 2.354 0 002.27 1.695c.568 0 1.108-.203 1.537-.575a2.323 2.323 0 00.328 2.07 2.36 2.36 0 002.294.962 2.332 2.332 0 00-.845 2.165c.12.828.649 1.512 1.419 1.835a2.332 2.332 0 00-1.864 1.357 2.33 2.33 0 00.193 2.31 2.333 2.333 0 00-.991-.22c-.643 0-1.268.269-1.715.739a2.327 2.327 0 00-.645 1.64c-.436-.677-1.166-1.077-1.981-1.077s-1.545.4-1.981 1.076a2.327 2.327 0 00-.645-1.64 2.381 2.381 0 00-1.715-.738c-.339 0-.679.076-.991.221a2.33 2.33 0 00.193-2.31 2.334 2.334 0 00-1.864-1.357 2.333 2.333 0 001.419-1.835 2.334 2.334 0 00-.845-2.165 2.362 2.362 0 002.294-.962c.434-.609.552-1.36.328-2.07a2.357 2.357 0 003.807-1.121m0-2.725c-.13 0-.256.014-.384.019l-.557 2.354a1.356 1.356 0 01-2.27.661l-1.71-1.661-.651.413.8 2.322a1.36 1.36 0 01-1.55 1.773l-2.3-.456-.335.723 1.885 1.494c.816.647.63 1.933-.337 2.322l-2.09.841.124.853 2.22.209a1.357 1.357 0 01.983 2.134l-1.224 1.732.615.7 1.808-.95a1.36 1.36 0 011.991 1.268l-.098 1.977.943.273.954-1.685c.26-.459.722-.689 1.183-.689s.923.23 1.183.689L31.623 20l.943-.273-.098-1.977a1.36 1.36 0 011.991-1.268l1.808.951.615-.7-1.224-1.732a1.357 1.357 0 01.983-2.134l2.22-.209.124-.853-2.09-.841a1.357 1.357 0 01-.337-2.322l1.87-1.482-.339-.731-2.282.452a1.358 1.358 0 01-1.55-1.773l.8-2.322-.651-.413-1.71 1.661a1.34 1.34 0 01-.942.385 1.354 1.354 0 01-1.328-1.046l-.556-2.354c-.129-.005-.255-.019-.384-.019z" fill="#8bb7f0"></path><path d="M18.946 18.077l9.132-9.33a.848.848 0 01.602-.247.85.85 0 01.606.251l1.919 1.919a.858.858 0 010 1.212l-9.128 9.326-3.131-3.131z" fill="#ffeea3"></path><path d="M28.68 9c.055 0 .162.014.253.105l1.919 1.919a.356.356 0 01-.007.513l-8.771 8.961-2.424-2.424 8.778-8.969A.354.354 0 0128.68 9m0-1c-.347 0-.695.133-.96.397l-9.478 9.683 3.838 3.838 9.478-9.683c.53-.53.53-1.389 0-1.919L29.64 8.397A1.358 1.358 0 0028.68 8z" fill="#c29653"></path><path d="M4.276 38.5a.85.85 0 01-.606-.251L1.751 36.33a.858.858 0 010-1.212l17.409-17.25 3.131 3.131L4.884 38.248a.854.854 0 01-.608.252z" fill="#839cb2"></path><path d="M19.159 18.573l2.424 2.424L4.529 37.895a.358.358 0 01-.506 0l-1.919-1.919a.358.358 0 01-.003-.501l17.058-16.902m.003-1.411L1.398 34.764c-.53.53-.53 1.389 0 1.919l1.919 1.919a1.358 1.358 0 001.919.001L23 21l-3.838-3.838z" fill="#66798f"></path><g><path d="M35.456 38.5c-.246-1.386-1.483-2.544-2.956-2.763v-.278c1.46-.24 2.719-1.499 2.959-2.959h.082c.24 1.46 1.499 2.719 2.959 2.959v.082c-1.46.24-2.719 1.499-2.959 2.959h-.085z" fill="#c2e8ff"></path><path d="M35.5 33.845a4.37 4.37 0 001.655 1.655 4.366 4.366 0 00-1.665 1.673 4.06 4.06 0 00-1.786-1.598 4.363 4.363 0 001.796-1.73M36 32h-1c0 1.546-1.454 3-3 3v1.2c1.546 0 3 1.254 3 2.8h1c0-1.546 1.454-3 3-3v-1c-1.546 0-3-1.454-3-3z" fill="#8bb7f0"></path></g><g><path d="M27.456 31.5c-.246-1.386-1.483-2.544-2.956-2.763v-.278c1.46-.24 2.719-1.499 2.959-2.959h.082c.24 1.46 1.499 2.719 2.959 2.959v.082c-1.46.24-2.719 1.499-2.959 2.959h-.085z" fill="#c2e8ff"></path><path d="M27.5 26.845a4.37 4.37 0 001.655 1.655 4.366 4.366 0 00-1.665 1.673 4.06 4.06 0 00-1.786-1.598 4.363 4.363 0 001.796-1.73M28 25h-1c0 1.546-1.454 3-3 3v1.2c1.546 0 3 1.254 3 2.8h1c0-1.546 1.454-3 3-3v-1c-1.546 0-3-1.454-3-3z" fill="#8bb7f0"></path></g></svg>