<svg viewBox="0 0 40 40" xmlns="http://www.w3.org/2000/svg"><path d="M37.994 38.46c-2.113-.165-4.481-.831-6.778-1.917l-.192-.091-.199.076a14.905 14.905 0 01-5.325.972c-7.168 0-13-4.935-13-11s5.832-11 13-11 13 4.935 13 11c0 2.529-1.042 5.001-2.935 6.959l-.242.251.151.313c.818 1.701 1.664 3.188 2.52 4.437z" fill="#f78f8f"></path><path d="M25.5 16C32.393 16 38 20.71 38 26.5c0 2.4-.992 4.748-2.794 6.611l-.484.501.302.628a36.867 36.867 0 001.968 3.602c-1.775-.267-3.691-.866-5.563-1.751l-.385-.182-.398.152A14.411 14.411 0 0125.5 37C18.607 37 13 32.29 13 26.5S18.607 16 25.5 16m0-1C18.044 15 12 20.149 12 26.5S18.044 38 25.5 38c1.961 0 3.82-.364 5.501-1.005C33.547 38.198 36.405 39 39 39c-1.176-1.549-2.201-3.377-3.075-5.194C37.846 31.82 39 29.275 39 26.5 39 20.149 32.956 15 25.5 15z" fill="#c74343"></path><path d="M30.767 31.269h-2.665l-.772-2.415h-3.861l-.765 2.415h-2.65l3.952-10.857h2.9l3.861 10.857zm-3.997-4.293s-1.312-4.247-1.348-4.626h-.061c-.025.318-1.37 4.626-1.37 4.626h2.779z" fill="#fff"></path><path d="M2.006 24.46c.856-1.249 1.702-2.736 2.52-4.437l.151-.313-.242-.251C2.542 17.501 1.5 15.029 1.5 12.5c0-6.065 5.832-11 13-11s13 4.935 13 11-5.832 11-13 11c-1.84 0-3.631-.327-5.324-.972l-.199-.076-.192.091c-2.298 1.086-4.666 1.752-6.779 1.917z" fill="#8bb7f0"></path><path d="M14.5 2C21.393 2 27 6.71 27 12.5S21.393 23 14.5 23c-1.778 0-3.509-.316-5.145-.939l-.398-.152-.385.182c-1.872.885-3.788 1.484-5.563 1.751a37.08 37.08 0 001.968-3.602l.302-.628-.484-.501C2.992 17.248 2 14.9 2 12.5 2 6.71 7.607 2 14.5 2m0-1C7.044 1 1 6.149 1 12.5c0 2.775 1.154 5.32 3.075 7.306C3.201 21.623 2.176 23.451 1 25c2.595 0 5.453-.802 7.999-2.005A15.43 15.43 0 0014.5 24C21.956 24 28 18.851 28 12.5S21.956 1 14.5 1z" fill="#4e7ab5"></path><g><path d="M14.267 17.983c-1.493 0-2.71-.539-3.651-1.616-.941-1.088-1.411-2.497-1.411-4.226 0-1.826.478-3.307 1.433-4.444C11.589 6.566 12.854 6 14.434 6c1.488 0 2.691.541 3.607 1.624.921 1.077 1.382 2.505 1.382 4.282 0 1.815-.478 3.283-1.433 4.404a6.669 6.669 0 00-.095.109 1.126 1.126 0 01-.095.101l2.64 2.82h-3.287l-1.382-1.559a5.302 5.302 0 01-1.504.202zm.102-9.737c-.819 0-1.474.345-1.963 1.034-.485.684-.727 1.592-.727 2.723 0 1.147.242 2.055.727 2.723.485.668 1.12 1.002 1.905 1.002.81 0 1.452-.323 1.927-.97.475-.657.713-1.559.713-2.707 0-1.196-.23-2.13-.691-2.804-.456-.667-1.086-1.001-1.891-1.001z" fill="#fff"></path></g></svg>