<svg viewBox="0 0 40 40" xmlns="http://www.w3.org/2000/svg"><circle cx="34" cy="36" r="2.5" fill="#b6c9d6"></circle><path d="M34 34c1.103 0 2 .897 2 2s-.897 2-2 2-2-.897-2-2 .897-2 2-2m0-1a3 3 0 100 6 3 3 0 000-6z" fill="#788b9c"></path><circle cx="22" cy="36" r="2.5" fill="#b6c9d6"></circle><path d="M22 34c1.103 0 2 .897 2 2s-.897 2-2 2-2-.897-2-2 .897-2 2-2m0-1a3 3 0 100 6 3 3 0 000-6z" fill="#788b9c"></path><path fill="none" stroke="#788b9c" stroke-linecap="round" stroke-linejoin="round" stroke-miterlimit="10" d="M34 36l-13-8M22 36l13-8"></path><path d="M21 29.5a2.503 2.503 0 01-2.5-2.5v-1.5h19V27c0 1.378-1.121 2.5-2.5 2.5H21z" fill="#b6c9d6"></path><path d="M37 26v1c0 1.103-.897 2-2 2H21c-1.103 0-2-.897-2-2v-1h18m1-1H18v2a3 3 0 003 3h14a3 3 0 003-3v-2z" fill="#788b9c"></path><path fill="#f78f8f" d="M18.5 21.5h19v4h-19z"></path><path d="M37 22v3H19v-3h18m1-1H18v5h20v-5z" fill="#c74343"></path><circle cx="9" cy="5" r="3.5" fill="#f5ce85"></circle><path d="M9 2c1.654 0 3 1.346 3 3s-1.346 3-3 3-3-1.346-3-3 1.346-3 3-3m0-1a4 4 0 100 8 4 4 0 000-8z" fill="#967a44"></path><path d="M26.207 21.5l.19-.19 5.776-9.627C34.822 13.328 37.5 16.555 37.5 21v.5H26.207z" fill="#f78f8f"></path><path d="M32.335 12.386C34.719 14.028 37 16.997 37 21h-9.834l5.169-8.614M32 11l-6 10-1 1h13v-1c0-4.605-2.741-8.175-6-10z" fill="#c74343"></path><g><path d="M14 26.5c-.827 0-1.5-.673-1.5-1.5v-7.5h3V25c0 .827-.673 1.5-1.5 1.5z" fill="#f5ce85"></path><path d="M15 18v7c0 .551-.449 1-1 1s-1-.449-1-1v-7h2m1-1h-4v8a2 2 0 104 0v-8z" fill="#967a44"></path></g><g><path d="M4 26.5c-.827 0-1.5-.673-1.5-1.5v-7.5h3V25c0 .827-.673 1.5-1.5 1.5z" fill="#f5ce85"></path><path d="M5 18v7c0 .551-.449 1-1 1s-1-.449-1-1v-7h2m1-1H2v8a2 2 0 104 0v-8z" fill="#967a44"></path></g><g><path d="M6.466 38.5l-1-14H2.5V16c0-3.033 2.468-5.5 5.5-5.5h2c3.032 0 5.5 2.467 5.5 5.5v8.5h-2.966l-1 14H6.466z" fill="#8bb7f0"></path><path d="M10 11c2.757 0 5 2.243 5 5v8h-2.931l-.066.929L11.069 38H6.931l-.934-13.071L5.931 24H3v-8c0-2.757 2.243-5 5-5h2m0-1H8a6 6 0 00-6 6v9h3l1 14h6l1-14h3v-9a6 6 0 00-6-6z" fill="#4e7ab5"></path></g><g><path fill="none" stroke="#4e7ab5" stroke-linejoin="round" stroke-miterlimit="10" d="M12.5 25v-9"></path></g><g><path fill="none" stroke="#4e7ab5" stroke-linejoin="round" stroke-miterlimit="10" d="M5.5 25v-9"></path></g></svg>