<svg viewBox="0 0 40 40" xmlns="http://www.w3.org/2000/svg"><path d="M13 28.333h-.799a.5.5 0 00-.201.401v.25a.5.5 0 00.858.349H13v-1zm-1.75 0H11a.5.5 0 000 1h.25a.5.5 0 000-1zm-1.75 0h-.25a.5.5 0 000 1h.25a.5.5 0 000-1zm-1.75 0H7.5a.5.5 0 000 1h.25a.5.5 0 000-1zm-1.75 0h-.25a.501.501 0 00-.456.294.502.502 0 00-.294.456v.25a.5.5 0 001 0 .5.5 0 000-1zm-.5 2a.5.5 0 00-.5.5v.25a.5.5 0 001 0v-.25a.5.5 0 00-.5-.5zm0 1.75a.5.5 0 00-.5.5v.25a.5.5 0 001 0v-.25a.5.5 0 00-.5-.5zm0 1.75a.5.5 0 00-.5.5v.25a.5.5 0 001 0v-.25a.5.5 0 00-.5-.5zm.127 1.604a.5.5 0 00-.483.632c.023.081.048.162.075.241a.5.5 0 00.945-.329 3.39 3.39 0 01-.056-.179.5.5 0 00-.481-.365zm.714 1.34a.5.5 0 00-.378.826l.002.002.001.001.002.002.001.001.005.006v.001l.002.003.005.006.002.002.001.001.002.003.003.003.002.003.002.002.001.001.002.003.002.003.001.001c0-.003 0-.002.001-.001l.001.001.001.002.001.001.002.002.001.001.002.002.001.001.001.002.001.001.002.002.001.002.001.001.002.002.001.001a.027.027 0 01.005.006l.002.002.077.083.002.002.001.001.002.002.003.003.001.001.001.001.002.002a.498.498 0 00.723.028.5.5 0 00.01-.707 2.789 2.789 0 01-.127-.139.494.494 0 00-.379-.175zm1.216.912a.5.5 0 00-.208.955c.071.032.143.062.215.09l.003.001.008.003.002.001.001.001.002.001a.5.5 0 10.355-.935 2.871 2.871 0 01-.173-.072.496.496 0 00-.205-.045zm1.706.301l-.037.001a2.952 2.952 0 01-.189.009.5.5 0 00.006 1H9.057c.081-.001.162-.005.242-.011a.5.5 0 00-.036-.999zm1.452-.439a.506.506 0 00-.245.064 2.62 2.62 0 01-.166.087.499.499 0 10.435.9c.075-.036.149-.075.221-.116a.5.5 0 00-.245-.935zm1.132-1.015a.5.5 0 00-.407.209 2.79 2.79 0 01-.114.149.498.498 0 00.388.816.499.499 0 00.387-.183c.048-.059.094-.119.139-.18l.001-.001.002-.002.001-.001.011-.015a.5.5 0 00-.408-.792zm.594-1.396a.5.5 0 00-.491.409 2.699 2.699 0 01-.04.183.5.5 0 00.97.244c.02-.081.038-.164.054-.247a.5.5 0 00-.493-.589zm.059-1.656a.5.5 0 00-.5.5v.25a.5.5 0 001 0v-.25a.5.5 0 00-.5-.5zm0-1.75a.5.5 0 00-.5.5v.25a.5.5 0 001 0v-.25a.5.5 0 00-.5-.5zm0-1.75a.5.5 0 00-.5.5v.25a.5.5 0 001 0v-.25a.5.5 0 00-.5-.5z" fill="#66798f"></path><path d="M13 33.5a2.503 2.503 0 01-2.5-2.5V11c0-1.379 1.122-2.5 2.5-2.5h23c1.378 0 2.5 1.121 2.5 2.5v20c0 1.379-1.122 2.5-2.5 2.5H13z" fill="#b0c1d4"></path><path d="M36 9c1.103 0 2 .897 2 2v20c0 1.103-.897 2-2 2H13c-1.103 0-2-.897-2-2V11c0-1.103.897-2 2-2h23m0-1H13a3 3 0 00-3 3v20a3 3 0 003 3h23a3 3 0 003-3V11a3 3 0 00-3-3z" fill="#66798f"></path><path fill="#fff" d="M16.5 1.5h16v14h-16z"></path><path d="M32 2v13H17V2h15m1-1H16v15h17V1z" fill="#788b9c"></path><path fill="#d6e3ed" d="M32 15H17v-2h15z"></path><path fill="#fff" stroke="#788b9c" stroke-miterlimit="10" d="M29 5.5h-9M29 9.5h-9"></path><path d="M33 13v2H16v-2h-.5a1.5 1.5 0 000 3h18a1.5 1.5 0 000-3H33z" fill="#66798f"></path><path fill="#ffeea3" d="M30 19h3v2h-3z"></path><path fill="#c74343" d="M30 23h3v2h-3z"></path><path fill="#5e9c76" d="M30 27h3v2h-3z"></path><circle cx="27" cy="20" r="1" fill="#fff"></circle><circle cx="23" cy="20" r="1" fill="#fff"></circle><circle cx="19" cy="20" r="1" fill="#fff"></circle><circle cx="27" cy="24" r="1" fill="#fff"></circle><circle cx="23" cy="24" r="1" fill="#fff"></circle><circle cx="19" cy="24" r="1" fill="#fff"></circle><circle cx="27" cy="28" r="1" fill="#fff"></circle><circle cx="23" cy="28" r="1" fill="#fff"></circle><circle cx="19" cy="28" r="1" fill="#fff"></circle><g><path d="M4 33.5A2.503 2.503 0 011.5 31v-4.056c0-.541.128-1.082.37-1.565l.63-1.261v-6.236l-.63-1.261a3.51 3.51 0 01-.37-1.565V11c0-1.379 1.122-2.5 2.5-2.5h4c1.378 0 2.5 1.121 2.5 2.5v4.056a3.51 3.51 0 01-.37 1.565l-.63 1.261v6.236l.63 1.261a3.51 3.51 0 01.37 1.565V31c0 1.379-1.122 2.5-2.5 2.5H4z" fill="#b0c1d4"></path><path d="M8 9c1.103 0 2 .897 2 2v4.056c0 .463-.11.927-.317 1.342l-.578 1.155-.105.211V24.236l.106.211.578 1.155c.206.415.316.879.316 1.342V31c0 1.103-.897 2-2 2H4c-1.103 0-2-.897-2-2v-4.056c0-.463.11-.927.317-1.342l.578-1.155.105-.211V17.764l-.106-.211-.578-1.155A3.035 3.035 0 012 15.056V11c0-1.103.897-2 2-2h4m0-1H4a3 3 0 00-3 3v4.056c0 .621.145 1.233.422 1.789L2 18v6l-.578 1.155A4.012 4.012 0 001 26.944V31a3 3 0 003 3h4a3 3 0 003-3v-4.056c0-.621-.145-1.233-.422-1.789L10 24v-6l.578-1.155A4.012 4.012 0 0011 15.056V11a3 3 0 00-3-3z" fill="#66798f"></path></g></svg>