<svg viewBox="0 0 40 40" xmlns="http://www.w3.org/2000/svg"><path fill="#ffc49c" d="M8.5 2.5h27v31h-27z"></path><path d="M35 3v30H9V3h26m1-1H8v32h28V2z" fill="#a16a4a"></path><path d="M5.5 35V5c0-1.378 1.122-2.5 2.5-2.5h.5V35h-3z" fill="#ffc49c"></path><path d="M8 3v31.5H6V5c0-1.103.897-2 2-2m1-1H8a3 3 0 00-3 3v30.5h4V2z" fill="#a16a4a"></path><path fill="#ffd5b8" d="M9 3h1v30H9z"></path><path d="M9 3H8a2 2 0 00-2 2v30.231h3V3z" fill="#db996c"></path><path d="M7.5 37.5c-1.103 0-2-.897-2-2s.897-2 2-2h28v.34c-.179.272-.5.87-.5 1.66s.321 1.388.5 1.66v.34h-28z" fill="#fff"></path><path d="M34.839 34a3.533 3.533 0 00-.339 1.5c0 .616.165 1.13.339 1.5H7.5c-.827 0-1.5-.673-1.5-1.5S6.673 34 7.5 34h27.339M36 33H7.5a2.5 2.5 0 100 5H36v-1s-.5-.597-.5-1.5.5-1.5.5-1.5v-1zM13.98 13.726h3.809v1.482h-2.106v2.249h1.976v1.417h-1.976v3.614H13.98v-8.762zM19.401 13.856c.52-.117 1.209-.169 1.937-.169.819 0 1.612.104 2.223.624.468.39.663.975.663 1.586 0 .78-.403 1.534-1.261 1.911v.052c1.014.286 1.547 1.118 1.547 2.093 0 .715-.234 1.287-.65 1.716-.52.572-1.404.884-2.874.884-.65 0-1.196-.039-1.586-.104v-8.593zm1.703 3.471h.364c.611 0 1.079-.52 1.079-1.235 0-.637-.299-1.131-.988-1.131-.195 0-.351.013-.455.052v2.314zm0 3.887c.104.026.234.026.377.026.702 0 1.261-.429 1.261-1.313 0-.884-.598-1.339-1.274-1.339h-.364v2.626zM25.576 22.488v-1.144l.832-1.079c1.092-1.391 1.989-2.548 1.989-3.757 0-.689-.377-1.157-1.079-1.157-.533 0-.962.234-1.261.429l-.312-1.313c.39-.26 1.118-.533 1.885-.533 1.846 0 2.444 1.235 2.444 2.444 0 1.586-.988 2.86-1.963 3.991l-.507.598v.026h2.587v1.495h-4.615z" fill="#a16a4a"></path></svg>