<svg viewBox="0 0 40 40" xmlns="http://www.w3.org/2000/svg"><path d="M1.5 36.5V14.521L17.981 3.132c.596-.412 1.294-.63 2.019-.63s1.423.218 2.019.63L38.5 14.521V36.5h-37z" fill="#fff"></path><path d="M20 3.002c.622 0 1.222.187 1.734.541L38 14.782V36H2V14.782L18.266 3.543A3.036 3.036 0 0120 3.002m0-1a4.04 4.04 0 00-2.302.718L1 14.258V37h38V14.258L22.302 2.72A4.047 4.047 0 0020 2.002z" fill="#ba9b48"></path><path d="M25 24H15L2 14.782 18.266 3.543c.512-.354 1.112-.541 1.734-.541s1.222.187 1.734.541L38 14.782 25 24z" fill="#ffeea3"></path><path fill="#ebd7a7" d="M25 23H15L2.714 14.289 2 14.782 15 24h10l13-9.218-.714-.493z"></path><g><path fill="#36404d" d="M19 15v9h2v-9h5l-6-6-6 6z"></path></g></svg>