<svg viewBox="0 0 40 40" xmlns="http://www.w3.org/2000/svg"><path d="M25.5 38.5v-4h-4v-3h4v-7.103l-.417-.07A11.453 11.453 0 0115.5 13c0-6.341 5.159-11.5 11.5-11.5S38.5 6.659 38.5 13c0 5.63-4.03 10.394-9.583 11.327l-.417.07V31.5h4v3h-4v4h-3zm1.5-33c-4.136 0-7.5 3.364-7.5 7.5s3.364 7.5 7.5 7.5 7.5-3.364 7.5-7.5-3.364-7.5-7.5-7.5z" fill="#f78f8f"></path><path d="M27 2c6.065 0 11 4.935 11 11 0 5.385-3.855 9.941-9.166 10.834l-.834.14V32h4v2h-4v4h-2v-4h-4v-2h4v-8.026l-.834-.14A10.955 10.955 0 0116 13c0-6.065 4.935-11 11-11m0 19c4.411 0 8-3.589 8-8s-3.589-8-8-8-8 3.589-8 8 3.589 8 8 8m0-20c-6.627 0-12 5.372-12 12 0 5.944 4.327 10.866 10 11.82V31h-4v4h4v4h4v-4h4v-4h-4v-6.18c5.673-.954 10-5.876 10-11.82 0-6.628-5.373-12-12-12zm0 19a7 7 0 110-14 7 7 0 010 14z" fill="#c74343"></path><path d="M20 13a7 7 0 016.28-6.963 15.035 15.035 0 00-3.393-4.298C18.288 3.42 15 7.82 15 13c0 5.18 3.288 9.58 7.887 11.261a15.035 15.035 0 003.393-4.298A7 7 0 0120 13z" fill="#c74343"></path><g><path d="M11.5 38.5v-4h-4v-3h4v-7.103l-.417-.07A11.453 11.453 0 011.5 13C1.5 6.659 6.659 1.5 13 1.5S24.5 6.659 24.5 13c0 5.63-4.03 10.394-9.583 11.327l-.417.07V31.5h4v3h-4v4h-3zm1.5-33c-4.136 0-7.5 3.364-7.5 7.5s3.364 7.5 7.5 7.5 7.5-3.364 7.5-7.5-3.364-7.5-7.5-7.5z" fill="#f78f8f"></path><path d="M13 2c6.065 0 11 4.935 11 11 0 5.385-3.855 9.941-9.166 10.834l-.834.14V32h4v2h-4v4h-2v-4H8v-2h4v-8.026l-.834-.14A10.955 10.955 0 012 13C2 6.935 6.935 2 13 2m0 19c4.411 0 8-3.589 8-8s-3.589-8-8-8-8 3.589-8 8 3.589 8 8 8m0-20C6.373 1 1 6.372 1 13c0 5.944 4.327 10.866 10 11.82V31H7v4h4v4h4v-4h4v-4h-4v-6.18c5.673-.954 10-5.876 10-11.82 0-6.628-5.373-12-12-12zm0 19a7 7 0 110-14 7 7 0 010 14z" fill="#c74343"></path></g></svg>