<svg viewBox="0 0 40 40" xmlns="http://www.w3.org/2000/svg"><path fill="#f78f8f" d="M2.5 31.5v-30h6v6.205l-4 2.204V23.5h33v8z"></path><path d="M8 2v5.409L4.517 9.328 4 9.613V24h33v7H3V2h5m1-1H2v31h36v-9H5V10.204L9 8V1z" fill="#c74343"></path><path d="M12.1 12.5c-.882 0-1.6-.673-1.6-1.5s.718-1.5 1.6-1.5h23.8c.882 0 1.6.673 1.6 1.5s-.718 1.5-1.6 1.5H12.1z" fill="#bae0bd"></path><path d="M35.9 10c.607 0 1.1.449 1.1 1s-.493 1-1.1 1H12.1c-.607 0-1.1-.449-1.1-1s.493-1 1.1-1h23.8m0-1H12.1c-1.16 0-2.1.895-2.1 2s.94 2 2.1 2h23.8c1.16 0 2.1-.895 2.1-2s-.94-2-2.1-2z" fill="#5e9c76"></path><path d="M36 17.571V22a1 1 0 01-1 1h-3a1 1 0 01-1-1v-4.429h5zM17 17.571V22a1 1 0 01-1 1h-3a1 1 0 01-1-1v-4.429h5z" fill="#66798f"></path><path d="M12.5 20.5v-7.419l.975-2.923 2.303-6.126A2.218 2.218 0 0117.885 2.5H30c.954 0 1.799.608 2.101 1.514l2.435 6.169.965 2.897v7.42H12.5z" fill="#bae0bd"></path><path d="M30 3c.739 0 1.393.471 1.626 1.172l.009.026.01.025 2.415 6.119.94 2.82V20H13v-6.838l.936-2.81 2.323-6.18A1.711 1.711 0 0117.885 3H30m0-1H17.885a2.715 2.715 0 00-2.575 1.856L13 10l-1 3v8h24v-8l-1-3-2.425-6.144A2.715 2.715 0 0030 2z" fill="#5e9c76"></path><circle cx="31.5" cy="14.5" r="1.5" fill="#fff"></circle><circle cx="16.5" cy="14.5" r="1.5" fill="#fff"></circle><path d="M18.565 20.5l1.05-2.996a1.502 1.502 0 011.416-1.004h5.938c.637 0 1.205.403 1.416 1.004l1.05 2.996h-10.87z" fill="#c8d1db"></path><path d="M26.969 17c.424 0 .803.269.944.669L28.729 20H19.27l.817-2.331c.14-.4.52-.669.944-.669h5.938m0-1h-5.938a2 2 0 00-1.887 1.339L17.861 21H30.14l-1.283-3.661A2.002 2.002 0 0026.969 16z" fill="#66798f"></path><g><path d="M13.734 9.5l2.155-5.46A2.224 2.224 0 0118 2.5h12c.954 0 1.799.608 2.101 1.514L34.266 9.5H13.734z" fill="#c2e8ff"></path><path d="M30 3c.739 0 1.393.471 1.626 1.172l.009.026.01.025L33.53 9H14.47l1.885-4.777.01-.025.009-.026A1.711 1.711 0 0118 3h12m0-1H18a2.715 2.715 0 00-2.575 1.856L13 10h22l-2.425-6.144A2.715 2.715 0 0030 2z" fill="#5e9c76"></path></g><path fill="#bae0bd" d="M12.382 10h23.379v2H12.382z"></path><path d="M1 39h38v-9.123c-1.308-.263-2.852-.877-4-.877-1.458 0-3.563 1-5 1-1.438 0-3.542-1-5-1s-3.563 1-5 1c-1.438 0-3.542-1-5-1s-3.563 1-5 1c-1.438 0-3.542-1-5-1-1.148 0-2.692.614-4 .877V39z" fill="#8bb7f0"></path><g><path d="M35 29c-1.458 0-3.563 1-5 1-1.438 0-3.542-1-5-1s-3.563 1-5 1c-1.438 0-3.542-1-5-1s-3.563 1-5 1c-1.438 0-3.542-1-5-1-1.148 0-2.692.614-4 .877V30.9c.574-.103 1.17-.271 1.754-.435C3.566 30.237 4.406 30 5 30s1.434.237 2.246.465c.934.263 1.9.535 2.754.535s1.82-.272 2.754-.535C13.566 30.237 14.406 30 15 30s1.434.237 2.246.465c.934.263 1.9.535 2.754.535s1.82-.272 2.754-.535C23.566 30.237 24.406 30 25 30s1.434.237 2.246.465c.934.263 1.9.535 2.754.535s1.82-.272 2.754-.535C33.566 30.237 34.406 30 35 30s1.434.237 2.246.465c.584.165 1.18.332 1.754.435v-1.023c-1.308-.263-2.852-.877-4-.877z" fill="#4e7ab5"></path></g></svg>