<svg viewBox="0 0 40 40" xmlns="http://www.w3.org/2000/svg"><path fill="#8bb7f0" d="M6.5 37.5v-35h18.293l8.707 8.707V37.5z"></path><path d="M24.586 3L33 11.414V37H7V3h17.586M25 2H6v36h28V11l-9-9z" fill="#4e7ab5"></path><path fill="#fff" d="M24.5 11.5v-9h.293l8.707 8.707v.293z"></path><path d="M25 3.414L32.586 11H25V3.414M25 2h-1v10h10v-1l-9-9z" fill="#4e7ab5"></path><path d="M12.532 17.837h3.809v1.482h-2.106v2.249h1.976v1.417h-1.976V26.6h-1.703v-8.763zM18.213 17.837h3.809v1.482h-2.106v2.249h1.976v1.417h-1.976V26.6h-1.703v-8.763zM23.894 17.837h3.809v1.482h-2.106v2.249h1.976v1.417h-1.976V26.6h-1.703v-8.763z" fill="#fff"></path></svg>