<svg viewBox="0 0 40 40" xmlns="http://www.w3.org/2000/svg"><path d="M4.769 37.5A2.272 2.272 0 012.5 35.231V4.769A2.272 2.272 0 014.769 2.5h30.462A2.272 2.272 0 0137.5 4.769v30.462a2.272 2.272 0 01-2.269 2.269H4.769z" fill="#9bcc9f"></path><path d="M35.231 3C36.206 3 37 3.794 37 4.769v30.462c0 .975-.794 1.769-1.769 1.769H4.769A1.772 1.772 0 013 35.231V4.769C3 3.794 3.794 3 4.769 3h30.462m0-1H4.769A2.77 2.77 0 002 4.769v30.462A2.77 2.77 0 004.769 38h30.462A2.77 2.77 0 0038 35.231V4.769A2.77 2.77 0 0035.231 2z" fill="#5e9c76"></path><path d="M22.364 32.5c-4.399 0-5.866-3.547-5.866-4.5v-.5h-.5c-1.373 0-6.5-1.273-6.5-7.5 0-7.316 6.089-9.172 12.535-11.137 2.156-.657 4.381-1.335 6.352-2.234 2.744 3.926 4.057 9.698 4.114 13.498.061 4.065-1.04 7.364-3.185 9.542-1.8 1.825-4.269 2.831-6.95 2.831z" fill="#d1ebd3"></path><path d="M28.205 7.255c2.526 3.826 3.738 9.261 3.792 12.878.059 3.928-.992 7.103-3.041 9.183C26.657 31.651 23.839 32 22.364 32c-3.966 0-5.366-3.186-5.366-4v-1h-1c-.06 0-6-.411-6-7 0-6.946 5.645-8.667 12.18-10.659 2.033-.62 4.127-1.258 6.027-2.086M28.548 6c-7.687 3.684-19.55 3.559-19.55 14 0 6.637 5.558 8 7 8 0 1.395 1.871 5 6.366 5 4.969 0 10.776-3.464 10.634-12.881-.056-3.685-1.323-9.893-4.45-14.119z" fill="#47825e"></path><path d="M6.48 32.527c9.686-1.805 15.993-10.413 19.412-17.908" fill="none" stroke="#47825e" stroke-linecap="round" stroke-miterlimit="10"></path></svg>