<svg viewBox="0 0 40 40" xmlns="http://www.w3.org/2000/svg"><path d="M13.5 9.5v-3H21c.727 0 2.133.804 3.141 1.497C23.118 8.692 21.701 9.5 21 9.5h-7.5z" fill="#f78f8f"></path><path d="M21 7c.436 0 1.337.439 2.228.995C22.319 8.556 21.408 9 21 9h-7V7h7m0-1h-8v4h8c1.325 0 4-2 4-2s-2.631-2-4-2z" fill="#c74343"></path><path d="M13.5 33.5v-3H21c.727 0 2.133.804 3.141 1.497-1.023.695-2.44 1.503-3.141 1.503h-7.5z" fill="#f78f8f"></path><path d="M21 31c.436 0 1.337.439 2.228.995C22.319 32.556 21.408 33 21 33h-7v-2h7m0-1h-8v4h8c1.325 0 4-2 4-2s-2.631-2-4-2z" fill="#c74343"></path><path fill="#f5ce85" d="M1.693 27.5L3.5 22.081v-4.162L1.693 12.5h2.1L7.5 16.207v7.586L3.793 27.5z"></path><path d="M3.586 13L7 16.414v7.172L3.586 27H2.387l1.561-4.684.052-.154v-4.324l-.051-.154L2.387 13h1.199M4 12H1l2 6v4l-2 6h3l4-4v-8l-4-4z" fill="#967a44"></path><path fill="#deb974" d="M9.5 38.5v-37h2.26L23.5 16.175v7.65L11.76 38.5z"></path><path d="M11.519 2L23 16.351v7.298L11.519 38H10V2h1.519M12 1H9v38h3l12-15v-8L12 1z" fill="#967a44"></path><path d="M6 23.5A2.503 2.503 0 013.5 21v-2c0-1.378 1.121-2.5 2.5-2.5h21c7.505 0 10.547 2.623 11.352 3.498C37.54 20.867 34.464 23.5 27 23.5H6z" fill="#f5ce85"></path><path d="M27 17c6.454 0 9.509 1.999 10.633 2.999C36.504 21.004 33.449 23 27 23H6c-1.103 0-2-.897-2-2v-2c0-1.103.897-2 2-2h21m0-1H6a3 3 0 00-3 3v2a3 3 0 003 3h21c9.333 0 12-4 12-4s-2.667-4-12-4z" fill="#967a44"></path><path fill="#967a44" d="M0 19h8v2H0zM16 2h-5V1h4zM16 38h-6v1h5zM29 21h-2a1 1 0 010-2h2a1 1 0 010 2z"></path></svg>