<svg viewBox="0 0 40 40" xmlns="http://www.w3.org/2000/svg"><path fill="#2d3540" d="M9 36h4v3H9zM27 36h4v3h-4z"></path><path d="M8 37.5A2.503 2.503 0 015.5 35V4c0-1.379 1.122-2.5 2.5-2.5h24c1.378 0 2.5 1.121 2.5 2.5v31c0 1.379-1.122 2.5-2.5 2.5H8z" fill="#b0c1d4"></path><path d="M32 2c1.103 0 2 .897 2 2v31c0 1.103-.897 2-2 2H8c-1.103 0-2-.897-2-2V4c0-1.103.897-2 2-2h24m0-1H8C6.35 1 5 2.35 5 4v31c0 1.65 1.35 3 3 3h24c1.65 0 3-1.35 3-3V4c0-1.65-1.35-3-3-3z" fill="#66798f"></path><path d="M8.5 12.5V6c0-.827.673-1.5 1.5-1.5h20c.827 0 1.5.673 1.5 1.5v6.5h-23z" fill="#b0c1d4"></path><path d="M30 5c.551 0 1 .449 1 1v6H9V6c0-.551.449-1 1-1h20m0-1H10c-1.1 0-2 .9-2 2v7h24V6c0-1.1-.9-2-2-2z" fill="#66798f"></path><path fill="#b0c1d4" d="M8.5 15.5h23v8h-23z"></path><path d="M31 16v7H9v-7h22m1-1H8v9h24v-9z" fill="#66798f"></path><path d="M10 34.5c-.827 0-1.5-.673-1.5-1.5v-6.5h23V33c0 .827-.673 1.5-1.5 1.5H10z" fill="#b0c1d4"></path><path d="M31 27v6c0 .551-.449 1-1 1H10c-.551 0-1-.449-1-1v-6h22m1-1H8v7c0 1.1.9 2 2 2h20c1.1 0 2-.9 2-2v-7zM17 8h6v1h-6zM17 19h6v1h-6z" fill="#66798f"></path><path fill="#66798f" d="M17 30h6v1h-6z"></path></svg>