<svg viewBox="0 0 40 40" xmlns="http://www.w3.org/2000/svg"><path fill="#b0c1d4" d="M2.5 1.5h3v37h-3z"></path><path d="M5 2v36H3V2h2m1-1H2v38h4V1z" fill="#66798f"></path><g><path d="M29 27.5c-2.839 0-5.725-.764-8.516-1.502C17.702 25.261 14.825 24.5 12 24.5c-2.418 0-7.67 1.353-9.5 1.845V4.377C3.938 3.971 9.307 2.5 11.692 2.5c2.697 0 5.459.712 8.383 1.465C23.004 4.72 26.032 5.5 29 5.5c3.075 0 6.95-1.242 8.5-1.786v21.937c-1.179.425-5.364 1.849-8.5 1.849z" fill="#f78f8f"></path><path d="M11.692 3c2.634 0 5.366.704 8.258 1.449C22.909 5.212 25.969 6 29 6c2.769 0 6.152-.976 8-1.587v20.886C35.529 25.812 31.819 27 29 27c-2.774 0-5.628-.755-8.388-1.486C17.799 24.77 14.89 24 12 24c-2.236 0-6.779 1.114-9 1.695V4.756C4.805 4.254 9.535 3 11.692 3m0-1C8.834 2 2 4 2 4v23s7.142-2 10-2c5.568 0 11.24 3 17 3 3.805 0 9-2 9-2V3s-5.195 2-9 2c-5.76 0-11.74-3-17.308-3z" fill="#c74343"></path></g></svg>