<svg viewBox="0 0 40 40" xmlns="http://www.w3.org/2000/svg"><path fill="#ffeea3" d="M20 31.99L8.301 38.088l2.195-12.996-9.427-9.231 13.056-1.931L20 2.122l5.878 11.808 13.053 1.931-9.424 9.231L31.7 38.091z"></path><path d="M20 3.245l5.313 10.675.233.467.516.076 11.799 1.746-8.518 8.344-.373.366.087.515 1.982 11.75-10.577-5.517-.462-.242-.462.241-10.577 5.515 1.985-11.747.087-.515-.373-.366-8.521-8.344 11.802-1.746.516-.076.233-.467L20 3.245M20 1l-6.206 12.474L0 15.514l9.96 9.753-2.32 13.73L20 32.553 32.36 39l-2.317-13.733L40 15.514l-13.791-2.04L20 1z" fill="#ba9b48"></path></svg>