<svg viewBox="0 0 40 40" xmlns="http://www.w3.org/2000/svg"><path d="M31 27.5c-.827 0-1.5-.689-1.5-1.536V22.5h3v3.464c0 .847-.673 1.536-1.5 1.536z" fill="#a59dd1"></path><path d="M32 23v2.964c0 .571-.449 1.036-1 1.036s-1-.465-1-1.036V23h2m1-1h-4v3.964c0 1.124.895 2.036 2 2.036s2-.911 2-2.036V22z" fill="#8b75a1"></path><path d="M9 27.536c-.827 0-1.5-.689-1.5-1.536v-3.5h3V26c0 .847-.673 1.536-1.5 1.536z" fill="#a59dd1"></path><path d="M10 23v3c0 .571-.449 1.036-1 1.036S8 26.571 8 26v-3h2m1-1H7v4c0 1.124.895 2.036 2 2.036s2-.911 2-2.036v-4z" fill="#8b75a1"></path><path d="M20 38.5c-5.79 0-10.5-4.583-10.5-10.218v-8.38c0-2.666 5.908-5.187 12.157-5.187 2.074 0 8.843.374 8.843 5.187v8.38C30.5 33.917 25.79 38.5 20 38.5z" fill="#a59dd1"></path><path d="M21.656 15.216c1.957 0 8.344.338 8.344 4.686v8.379C30 33.641 25.514 38 20 38s-10-4.359-10-9.718v-8.379c0-2.322 5.883-4.687 11.656-4.687m0-1C15.663 14.216 9 16.631 9 19.903v8.379C9 34.226 13.9 39 20 39s11-4.774 11-10.718v-8.379c0-4.074-4.448-5.687-9.344-5.687z" fill="#8b75a1"></path><path d="M30.5 17.582H10v-.099c-.7.691-1 1.382-1 2.171v8.488C9 34.164 13.9 39 20 39c0-2.007 1.328-1.453 2-2 .55 0 1-.45 1-1s-.45-1-1-1h-4c-.55 0-1-.45-1-1s.45-1 1-1h4c.55 0 1-.45 1-1s-.45-1-1-1c0 0-3.891-.068-.625-2.5C23.104 27.213 25.11 27 27 27c1.519 0 2.966.25 4 1.143v-8.39c0-.789-.2-1.579-.5-2.171z" fill="#8b75a1"></path><g><path d="M20 24.5C8.335 24.5.5 21.139.5 18s7.835-6.5 19.5-6.5 19.5 3.361 19.5 6.5-7.835 6.5-19.5 6.5z" fill="#dcd5f2"></path><path d="M20 12c11.197 0 19 3.162 19 6s-7.803 6-19 6-19-3.162-19-6 7.803-6 19-6m0-1C8.898 11 0 14.114 0 18s8.898 7 20 7 20-3.114 20-7-8.898-7-20-7z" fill="#8b75a1"></path></g><g><path d="M20 19.5c-7.355 0-11.434-1.248-11.499-3.515.209-.868.415-1.8.627-2.758C10.286 8.002 11.726 1.5 14.667 1.5c1.023 0 1.748.231 2.515.476.805.258 1.639.524 2.818.524 1.202 0 2.086-.274 2.941-.54.764-.237 1.485-.46 2.392-.46 2.741 0 3.99 5.361 5.199 10.546.308 1.321.626 2.686.967 3.946C31.398 19.5 22.828 19.5 20 19.5z" fill="#dcd5f2"></path><path d="M25.333 2c2.344 0 3.602 5.398 4.712 10.16.303 1.298.615 2.639.951 3.886C30.855 18.006 27.157 19 20 19c-6.765 0-10.852-1.108-10.996-2.969.204-.851.405-1.76.612-2.695C10.676 8.552 12.127 2 14.667 2c.945 0 1.602.21 2.362.453C17.833 2.709 18.743 3 20 3c1.277 0 2.24-.299 3.09-.562.758-.235 1.413-.438 2.243-.438m0-1C23.323 1 22.202 2 20 2s-3.132-1-5.333-1C10.742 1 9.436 9.985 8 15.929 8 19.534 15.405 20 20 20s12-.271 12-4.071C30.277 9.595 29.258 1 25.333 1z" fill="#8b75a1"></path></g><g><path d="M21.872 18.972a52.3 52.3 0 00.952-.034c.139-.006.276-.014.411-.021.294-.016.579-.034.853-.055.118-.009.236-.017.351-.027.283-.024.552-.05.813-.079l.273-.029c.28-.033.543-.069.796-.108l.181-.026c.271-.043.523-.09.765-.138.036-.007.076-.013.112-.021.199-.041.378-.087.558-.132 1.956-.493 2.985-1.244 3.06-2.255v-.003a80.64 80.64 0 01-.571-2.279C28.371 15.726 22.643 16 20 16c-2.667 0-8.508-.277-10.475-2.256-.175.79-.348 1.562-.521 2.287v.001c.135 1.742 3.724 2.823 9.727 2.955a64.77 64.77 0 002.731-.003c.14-.003.273-.008.41-.012z" fill="#a59dd1"></path></g></svg>