<svg viewBox="0 0 40 40" xmlns="http://www.w3.org/2000/svg"><path d="M31 17v16s-.108 5.033 5 5.033L39 38" fill="none" stroke="#4e7ab5" stroke-width="2" stroke-miterlimit="10"></path><path d="M17 32.5C8.453 32.5 1.5 25.547 1.5 17S8.453 1.5 17 1.5 32.5 8.453 32.5 17 25.546 32.5 17 32.5z" fill="#b0c1d4"></path><path d="M17 2c8.271 0 15 6.729 15 15s-6.729 15-15 15S2 25.271 2 17 8.729 2 17 2m0-1C8.163 1 1 8.163 1 17s7.163 16 16 16 16-7.163 16-16S25.837 1 17 1z" fill="#66798f"></path><path d="M17 12.5c-1.93 0-3.5-1.57-3.5-3.5s1.57-3.5 3.5-3.5 3.5 1.57 3.5 3.5-1.57 3.5-3.5 3.5z" fill="#8bb7f0"></path><path d="M17 6c1.654 0 3 1.346 3 3s-1.346 3-3 3-3-1.346-3-3 1.346-3 3-3m0-1a4 4 0 100 8 4 4 0 000-8z" fill="#4e7ab5"></path><path d="M17 28.5c-1.93 0-3.5-1.57-3.5-3.5s1.57-3.5 3.5-3.5 3.5 1.57 3.5 3.5-1.57 3.5-3.5 3.5z" fill="#8bb7f0"></path><path d="M17 22c1.654 0 3 1.346 3 3s-1.346 3-3 3-3-1.346-3-3 1.346-3 3-3m0-1a4 4 0 100 8 4 4 0 000-8z" fill="#4e7ab5"></path><g><path d="M9 20.5c-1.93 0-3.5-1.57-3.5-3.5s1.57-3.5 3.5-3.5 3.5 1.57 3.5 3.5-1.57 3.5-3.5 3.5z" fill="#8bb7f0"></path><path d="M9 14c1.654 0 3 1.346 3 3s-1.346 3-3 3-3-1.346-3-3 1.346-3 3-3m0-1a4 4 0 100 8 4 4 0 000-8z" fill="#4e7ab5"></path></g><g><path d="M25 20.5c-1.93 0-3.5-1.57-3.5-3.5s1.57-3.5 3.5-3.5 3.5 1.57 3.5 3.5-1.57 3.5-3.5 3.5z" fill="#8bb7f0"></path><path d="M25 14c1.654 0 3 1.346 3 3s-1.346 3-3 3-3-1.346-3-3 1.346-3 3-3m0-1a4 4 0 100 8 4 4 0 000-8z" fill="#4e7ab5"></path></g><path d="M17 15c-.235 0 .235 0 0 0a2 2 0 100 4c.235 0-.235 0 0 0a2 2 0 100-4z" fill="#36404d"></path></svg>