<svg viewBox="0 0 40 40" xmlns="http://www.w3.org/2000/svg"><path fill="#8bb7f0" d="M5.5 4.5h29v32h-29z"></path><path d="M34 5v31H6V5h28m1-1H5v33h30V4z" fill="#4e7ab5"></path><path d="M38 5v31h-3V5h3m1-1h-5v33h5V4zM5 5v31H2V5h3m1-1H1v33h5V4z" fill="#4e7ab5"></path><g fill="#fff"><path d="M16.5 14.921l8.583 5.579-8.583 5.579z"></path><path d="M17 15.843l7.165 4.657L17 25.157v-9.314M16 14v13l10-6.5L16 14z"></path></g><path fill="#4e7ab5" d="M34 8h5v1h-5zM34 12h5v1h-5zM34 16h5v1h-5zM34 20h5v1h-5zM34 24h5v1h-5zM34 28h4v1h-4zM34 32h5v1h-5zM1 8h5v1H1zM1 12h5v1H1zM1 16h5v1H1zM1 20h5v1H1zM1 24h5v1H1zM1 28h4v1H1zM1 32h5v1H1z"></path></svg>