<svg viewBox="0 0 40 40" xmlns="http://www.w3.org/2000/svg"><path d="M24 2c.551 0 1 .449 1 1v3H14V3c0-.551.449-1 1-1h9m0-1h-9a2 2 0 00-2 2v4h13V3a2 2 0 00-2-2z" fill="#967a44"></path><path d="M1.5 31.5v-17h36v13.568a3.436 3.436 0 01-3.432 3.432H1.5z" fill="#f5ce85"></path><path d="M37 15v13.068A2.935 2.935 0 0134.068 31H2V15h35m1-1H1v18h33.068A3.931 3.931 0 0038 28.068V14z" fill="#967a44"></path><path d="M5 20.5c-1.93 0-3.5-1.57-3.5-3.5V4.5h36V17c0 1.93-1.57 3.5-3.5 3.5H5z" fill="#f5ce85"></path><path d="M37 5v12c0 1.654-1.346 3-3 3H5c-1.654 0-3-1.346-3-3V5h35m1-1H1v13a4 4 0 004 4h29a4 4 0 004-4V4z" fill="#967a44"></path><circle cx="19.5" cy="16.5" r="1.5" fill="#967a44"></circle><path d="M27 5h-3v-.5a1.5 1.5 0 013 0V5zM15 5h-3v-.5a1.5 1.5 0 013 0V5z" fill="#967a44"></path><g><path d="M20.816 39.5c-.352 0-.682-.137-.931-.386s-.385-.579-.385-.93.137-.682.386-.931l9.159-8.552 1.26 1.262-8.568 9.165a1.31 1.31 0 01-.921.372z" fill="#b6c9d6"></path><path d="M29.032 29.396l.577.578-8.216 8.787a.81.81 0 01-1.153 0c-.318-.318-.318-.836-.025-1.131l8.817-8.234m.025-1.391l-9.525 8.894a1.817 1.817 0 002.57 2.569L31 29.95l-1.943-1.945z" fill="#788b9c"></path></g><g><circle cx="32.5" cy="26.5" r="7" fill="#d1edff"></circle><path d="M32.5 20c3.584 0 6.5 2.916 6.5 6.5S36.084 33 32.5 33 26 30.084 26 26.5s2.916-6.5 6.5-6.5m0-1a7.5 7.5 0 100 15 7.5 7.5 0 000-15z" fill="#788b9c"></path></g></svg>