<svg viewBox="0 0 40 40" xmlns="http://www.w3.org/2000/svg"><path d="M3.621 38.5a2.123 2.123 0 01-1.5-3.62l19.138-18.245 2.113 2.115-18.26 19.138a2.104 2.104 0 01-1.491.612z" fill="#b6c9d6"></path><path d="M21.251 17.334l1.423 1.425L4.766 37.525A1.61 1.61 0 013.62 38a1.61 1.61 0 01-1.146-.475c-.632-.632-.632-1.66-.017-2.275l18.794-17.916m.017-1.398L1.767 34.527a2.621 2.621 0 003.706 3.705l18.598-19.49-2.803-2.806z" fill="#788b9c"></path><path d="M25.5 27.5c-7.168 0-13-5.832-13-13s5.832-13 13-13 13 5.832 13 13-5.832 13-13 13z" fill="#d1edff"></path><path d="M25.5 2C32.393 2 38 7.607 38 14.5S32.393 27 25.5 27 13 21.393 13 14.5 18.607 2 25.5 2m0-1C18.044 1 12 7.044 12 14.5S18.044 28 25.5 28 39 21.956 39 14.5 32.956 1 25.5 1z" fill="#4e7ab5"></path><g fill="#d1edff"><path d="M12.785 10h10.287V4.571h-6.696A13.476 13.476 0 0012.785 10zM31.48 20v5.143h2.305A13.535 13.535 0 0037.82 20h-6.34z"></path></g><g><path fill="#8bb7f0" d="M14.5 7.5V1.207L20.793 7.5z"></path><path d="M15 2.414L19.586 7H15V2.414M14 0v8h8l-8-8z" fill="#4e7ab5"></path></g><g><path fill="#8bb7f0" d="M29.207 22.5H35.5v6.293z"></path><path d="M35 23v4.586L30.414 23H35m1-1h-8l8 8v-8z" fill="#4e7ab5"></path></g></svg>