<svg viewBox="0 0 40 40" xmlns="http://www.w3.org/2000/svg"><path fill="#fff" d="M6.5 37.5v-35h18.293l8.707 8.707V37.5z"></path><path d="M24.586 3L33 11.414V37H7V3h17.586M25 2H6v36h28V11l-9-9z" fill="#788b9c"></path><path fill="#fff" d="M24.5 11.5v-9h.293l8.707 8.707v.293z"></path><path d="M25 3.414L32.586 11H25V3.414M25 2h-1v10h10v-1l-9-9z" fill="#788b9c"></path><path fill="#a2c2e0" d="M12 17h12v1H12zM12 21h12v1H12zM12 25h12v1H12zM12 29h12v1H12z"></path><path fill="#adc0cf" d="M34 37l-1-1v-6.268l1 .944z"></path><path d="M34.523 35.5a.97.97 0 01-.69-.286L23.699 24.593l.889-.89 10.634 10.139c.176.176.278.421.278.682s-.102.506-.286.69-.43.286-.691.286z" fill="#b6c9d6"></path><path d="M24.597 24.402l10.264 9.785a.477.477 0 01-.338.813.46.46 0 01-.321-.123l-9.805-10.276.2-.199m-.017-1.398L23 24.585l10.479 10.982a1.47 1.47 0 001.044.433 1.476 1.476 0 001.044-2.52L24.58 23.004z" fill="#788b9c"></path><g><circle cx="23.5" cy="23.5" r="7" fill="#d1edff"></circle><path d="M23.5 17c3.584 0 6.5 2.916 6.5 6.5S27.084 30 23.5 30 17 27.084 17 23.5s2.916-6.5 6.5-6.5m0-1a7.5 7.5 0 100 15 7.5 7.5 0 000-15z" fill="#788b9c"></path></g><g fill="#5692cc"><path d="M18.633 27H26v-2h-8.303a5.97 5.97 0 00.936 2zM17.697 22H26v-2h-7.367a5.97 5.97 0 00-.936 2z"></path></g></svg>