<svg viewBox="0 0 40 40" xmlns="http://www.w3.org/2000/svg"><path d="M9.067 17.079a13.891 13.891 0 00-1.586 6.59M18.644 7.823a15.868 15.868 0 00-8.529 4.483c-.257.246-1.793 1.766-2.841 3.887-1.208 2.445-1.811 4.966-1.793 7.492" fill="none" stroke="#c29653" stroke-linecap="round" stroke-linejoin="round" stroke-miterlimit="10"></path><g fill="#788b9c"><path d="M3 8V3h5V2H2v6zM37 8h1V2h-6v1h5zM37 32v5h-5v1h6v-6zM3 32H2v6h6v-1H3z"></path></g><path d="M12.464 19.201a9.96 9.96 0 00-.983 4.407M31.549 23.614a2.596 2.596 0 01-.056-.401l-.077-.811c-.572-4.974-4.829-8.864-9.935-8.864h0-.004c-2.719.019-5.242 1.077-7.118 2.979" fill="none" stroke="#c29653" stroke-linecap="round" stroke-linejoin="round" stroke-miterlimit="10"></path><path d="M24.674 12.004a12.108 12.108 0 017.457 6.054 11.9 11.9 0 011.303 4.441M35.003 19.938a14.116 14.116 0 00-9.793-9.86M9.483 23.354a11.87 11.87 0 012.41-7.007c.316-.419.667-.825 1.042-1.205 2.252-2.284 5.281-3.554 8.529-3.576" fill="none" stroke="#c29653" stroke-linecap="round" stroke-linejoin="round" stroke-miterlimit="10"></path><path d="M9.73 26.5a25.638 25.638 0 001.473 5.476M7.482 23.669c.008.891.118 3.277.951 6.299" fill="none" stroke="#8bb7f0" stroke-linecap="round" stroke-linejoin="round" stroke-miterlimit="10"></path><path d="M30.516 12.903a13.953 13.953 0 00-9.052-3.336h0-.014c-3.783.026-7.313 1.507-9.94 4.172" fill="none" stroke="#c29653" stroke-linecap="round" stroke-linejoin="round" stroke-miterlimit="10"></path><path d="M5.481 23.684c.006.649.061 2.028.366 3.844" fill="none" stroke="#8bb7f0" stroke-linecap="round" stroke-linejoin="round" stroke-miterlimit="10"></path><path d="M31.808 11.377a16.029 16.029 0 00-10.361-3.81h0-.01" fill="none" stroke="#c29653" stroke-linecap="round" stroke-linejoin="round" stroke-miterlimit="10"></path><path d="M5.481 15.306c1.153-2.334 2.777-3.991 3.248-4.443C12.063 7.49 16.582 5.6 21.425 5.567a18.06 18.06 0 0111.678 4.285" fill="none" stroke="#c29653" stroke-linecap="round" stroke-miterlimit="10"></path><path d="M28.498 33.185c-1.377-.344-2.483-.925-3.371-1.635M21.066 29.529c.951 1.874 2.479 3.748 4.934 4.891" fill="none" stroke="#8bb7f0" stroke-linecap="round" stroke-linejoin="round" stroke-miterlimit="10"></path><path d="M23.5 23.509a2.008 2.008 0 00-2-1.981h0-.004a1.992 1.992 0 00-1.421.596 1.99 1.99 0 00-.576 1.418" fill="none" stroke="#c29653" stroke-linecap="round" stroke-linejoin="round" stroke-miterlimit="10"></path><path d="M29.498 23.354c.098 1.377.64 2.125 1.61 2.222a5.99 5.99 0 012.483.819" fill="none" stroke="#8bb7f0" stroke-linecap="round" stroke-linejoin="round" stroke-miterlimit="10"></path><path d="M21.5 19.529h0-.004a3.997 3.997 0 00-2.845 1.192 3.972 3.972 0 00-1.151 2.836M25.5 23.489a3.975 3.975 0 00-.82-2.378M15.705 21.964a6.01 6.01 0 00-.204 1.606" fill="none" stroke="#c29653" stroke-linecap="round" stroke-linejoin="round" stroke-miterlimit="10"></path><path d="M27.5 23.469c-.035-3.276-2.726-5.94-6-5.94h0-.004a5.996 5.996 0 00-4.269 1.787" fill="none" stroke="#c29653" stroke-linecap="round" stroke-linejoin="round" stroke-miterlimit="10"></path><path d="M31.5 27.528c-2.627 0-3.973-1.366-4-4.059M15.006 30.633a19.66 19.66 0 001.758 3.398" fill="none" stroke="#8bb7f0" stroke-linecap="round" stroke-linejoin="round" stroke-miterlimit="10"></path><path d="M19.5 15.785a7.938 7.938 0 00-3.697 2.127 7.947 7.947 0 00-2.303 5.673M25.448 16.58a7.928 7.928 0 00-3.948-1.051h0M29.5 23.449a7.94 7.94 0 00-1.059-3.883M25.742 8.15a16.126 16.126 0 019.934 8.058" fill="none" stroke="#c29653" stroke-linecap="round" stroke-linejoin="round" stroke-miterlimit="10"></path><path d="M11.481 23.608c.021 2.267.65 6.009 2.496 9.643M13.5 23.585c.012 1.272.236 3.059.805 5.018M17.5 23.557c.011 1.146.242 2.828.855 4.633.794 2.338 2.227 4.88 4.647 6.721M15.5 23.571c.024 2.6 1.046 7.625 4.499 11.345M23.789 30.203c-2.295-2.897-2.293-6.636-2.293-6.636h.004M19.5 23.542c0 .047.037 1.828.749 4.003M30.512 31.546c-6.479-.648-7.004-7.294-7.012-8.037M31.5 29.528c-5.511 0-5.986-4.622-6-6.039M34.68 24.719a7.95 7.95 0 00-3.131-1.105" fill="none" stroke="#8bb7f0" stroke-linecap="round" stroke-linejoin="round" stroke-miterlimit="10"></path><path fill="#c2e8ff" d="M2 23h36v1H2z"></path></svg>