<svg viewBox="0 0 40 40" xmlns="http://www.w3.org/2000/svg"><path d="M8.545 37.5A6.052 6.052 0 012.5 31.454V8.546A6.052 6.052 0 018.545 2.5h22.909a6.052 6.052 0 016.045 6.046v22.908a6.052 6.052 0 01-6.045 6.046H8.545z" fill="#f78f8f"></path><path d="M31.455 3A5.552 5.552 0 0137 8.545v22.909A5.552 5.552 0 0131.455 37H8.545A5.552 5.552 0 013 31.455V8.545A5.552 5.552 0 018.545 3h22.91m0-1H8.545C4.945 2 2 4.945 2 8.545v22.909C2 35.055 4.945 38 8.545 38h22.909c3.6 0 6.545-2.945 6.545-6.545V8.545C38 4.945 35.055 2 31.455 2z" fill="#c74343"></path><path d="M24.95 25.657l.354-.354C26.72 23.887 27.5 22.003 27.5 20s-.78-3.887-2.197-5.304l-.354-.354 3.536-3.535.354.354C31.2 13.522 32.5 16.661 32.5 20s-1.3 6.478-3.661 8.839l-.354.354-3.535-3.536z" fill="#fff"></path><path d="M28.485 11.515A11.959 11.959 0 0132 20c0 3.314-1.343 6.314-3.515 8.485l-2.828-2.828C27.105 24.209 28 22.209 28 20s-.895-4.209-2.343-5.657l2.828-2.828m0-1.414l-.707.707-2.828 2.828-.707.707.707.707C26.272 16.372 27 18.13 27 20s-.728 3.628-2.05 4.95l-.707.707.707.707 2.828 2.828.707.707.707-.707C31.648 26.737 33 23.472 33 20s-1.352-6.737-3.808-9.192l-.707-.707z" fill="#c74343"></path><g><path d="M11.161 28.839C8.8 26.478 7.5 23.339 7.5 20s1.3-6.478 3.661-8.839l.354-.354 3.536 3.535-.354.354C13.28 16.113 12.5 17.997 12.5 20s.78 3.887 2.197 5.304l.354.354-3.536 3.535-.354-.354z" fill="#fff"></path><path d="M11.515 11.515l2.828 2.828C12.896 15.791 12 17.791 12 20s.895 4.209 2.343 5.657l-2.828 2.828A11.959 11.959 0 018 20c0-3.314 1.343-6.314 3.515-8.485m0-1.414l-.707.707A12.912 12.912 0 007 20a12.91 12.91 0 003.808 9.192l.707.707.707-.707 2.828-2.828.707-.707-.707-.707A6.954 6.954 0 0113 20c0-1.87.728-3.628 2.05-4.95l.707-.707-.707-.707-2.828-2.828-.707-.707z" fill="#c74343"></path></g><g><circle cx="20" cy="20" r="3.5" fill="#fff"></circle><path d="M20 17a3 3 0 110 6 3 3 0 010-6m0-1c-2.206 0-4 1.794-4 4s1.794 4 4 4 4-1.794 4-4-1.794-4-4-4z" fill="#c74343"></path></g></svg>