<svg viewBox="0 0 40 40" xmlns="http://www.w3.org/2000/svg"><path fill="#e1ebf2" d="M10.5 1.5h15v6h-15z"></path><path d="M25 2v5H11V2h14m1-1H10v7h16V1z" fill="#788b9c"></path><path fill="#e1ebf2" d="M4.5 4.5h27v34h-27z"></path><path d="M31 5v33H5V5h26m1-1H4v35h28V4z" fill="#788b9c"></path><path fill="#8bb7f0" d="M15.5 26.5h5v2h-5z"></path><path d="M20 27v1h-4v-1h4m1-1h-6v3h6v-3z" fill="#4e7ab5"></path><path fill="#8bb7f0" d="M15.5 20.5h5v2h-5z"></path><path d="M20 21v1h-4v-1h4m1-1h-6v3h6v-3z" fill="#4e7ab5"></path><path fill="#8bb7f0" d="M15.5 14.5h5v2h-5z"></path><path d="M20 15v1h-4v-1h4m1-1h-6v3h6v-3z" fill="#4e7ab5"></path><path fill="#8bb7f0" d="M15.5 8.5h5v2h-5z"></path><path d="M20 9v1h-4V9h4m1-1h-6v3h6V8z" fill="#4e7ab5"></path><path fill="#8bb7f0" d="M23.5 14.5h5v2h-5z"></path><path d="M28 15v1h-4v-1h4m1-1h-6v3h6v-3z" fill="#4e7ab5"></path><path fill="#8bb7f0" d="M23.5 8.5h5v2h-5z"></path><path d="M28 9v1h-4V9h4m1-1h-6v3h6V8z" fill="#4e7ab5"></path><g><path fill="#8bb7f0" d="M7.5 26.5h5v2h-5z"></path><path d="M12 27v1H8v-1h4m1-1H7v3h6v-3z" fill="#4e7ab5"></path></g><g><path fill="#8bb7f0" d="M7.5 32.5h5v2h-5z"></path><path d="M12 33v1H8v-1h4m1-1H7v3h6v-3z" fill="#4e7ab5"></path></g><g><path fill="#8bb7f0" d="M7.5 20.5h5v2h-5z"></path><path d="M12 21v1H8v-1h4m1-1H7v3h6v-3z" fill="#4e7ab5"></path></g><g><path fill="#8bb7f0" d="M7.5 14.5h5v2h-5z"></path><path d="M12 15v1H8v-1h4m1-1H7v3h6v-3z" fill="#4e7ab5"></path></g><g><path fill="#8bb7f0" d="M7.5 8.5h5v2h-5z"></path><path d="M12 9v1H8V9h4m1-1H7v3h6V8z" fill="#4e7ab5"></path></g><g><path d="M13.67 38.5c-.676-.912-1.17-2.37-1.17-3.5 0-1.621 1.071-3.509 2.02-4.721.07 1.575.389 3.221 1.834 3.221.395 0 .761-.159 1.059-.458.744-.751 1.11-2.449 1.088-5.046l-.002-.259c-.047-5-.115-12.422 7.543-17.481-.556 1.86-.589 4.272-.541 5.761l.018.544c.094 3.081.15 4.94 2.482 4.94 1.133 0 1.889-1.122 2.245-3.334.168-1.043.226-2.16.245-3.016 1.254 1.337 3.01 3.812 3.01 5.851 0 1.34-.263 2.539-.518 3.698-.245 1.117-.499 2.272-.499 3.509 0 .9 0 3.293 1.517 3.293 1.036 0 1.377-.689 1.47-2.204.828.996 2.03 2.776 2.03 4.704 0 2.444-2.133 4.125-2.655 4.5H13.67z" fill="#f78f8f"></path><path d="M25.256 11.421c-.266 1.524-.3 3.207-.255 4.611l.017.541C25.113 19.724 25.183 22 28 22c1.415 0 2.337-1.264 2.739-3.755.097-.599.158-1.22.196-1.802C31.956 17.749 33 19.526 33 21c0 1.286-.257 2.458-.506 3.591-.251 1.143-.51 2.326-.51 3.616 0 .938 0 3.793 2.016 3.793 1.056 0 1.555-.607 1.79-1.438.624.954 1.21 2.191 1.21 3.438 0 2.04-1.705 3.529-2.321 4H13.932c-.54-.831-.932-2.061-.932-3 0-1.072.536-2.304 1.168-3.334.237 1.263.809 2.334 2.185 2.334.531 0 1.02-.21 1.414-.607.854-.862 1.257-2.629 1.233-5.402l-.002-.26c-.046-4.919-.106-11.474 6.258-16.31M27.143 9C17.724 14.276 17.952 22.55 18 28c.029 3.254-.569 5-1.647 5-1.3 0-1.353-2.134-1.353-4-1.061.979-3 3.682-3 6 0 1.264.571 2.98 1.428 4H35s3-1.923 3-5c0-3.147-2.951-5.936-3.004-5.936-.002 0 0 .003.004.009C35 30.674 34.679 31 34 31c-.96 0-1.016-1.835-1.016-2.793C32.984 25.775 34 23.714 34 21c0-2.702-2.813-6.067-4-7 0 1.357.036 7-2 7-1.951 0-1.887-1.494-2-5-.089-2.762.188-5.586 1.143-7z" fill="#c74343"></path></g><path d="M18 38c4.411-.254 4-8.508 4-10 0-2.099 2-4 2-4s-.58 6 2 6c1.866 0 1-3 1-3s2 1.452 2 3c0 .68-.513 7.576 5 8H18z" fill="#ffeea3"></path></svg>