<svg viewBox="0 0 40 40" xmlns="http://www.w3.org/2000/svg"><path d="M20 29.5c-5.691 0-10.5-4.809-10.5-10.5 0-4.111 2.14-8.003 3.249-9.743.305 1.325.903 3.491 1.825 5.003l.442.725.419-.738c2.636-4.638 4.303-10.323 4.852-12.36C22.55 3.824 30.5 11.187 30.5 19c0 5.888-4.612 10.5-10.5 10.5z" fill="#f78f8f"></path><path d="M20.559 2.789C23.323 5.26 30 11.961 30 19c0 5.607-4.393 10-10 10-5.421 0-10-4.579-10-10 0-3.316 1.451-6.505 2.559-8.456.35 1.27.875 2.807 1.587 3.977l.884 1.451.839-1.477c2.412-4.244 3.99-9.227 4.69-11.706M20 1s-1.741 7.265-5 13c-1.35-2.216-2-6-2-6s-4 5.246-4 11 4.882 11 11 11 11-4.882 11-11C31 9.579 20 1 20 1z" fill="#c74343"></path><path d="M14 24c0-5.231 6-5.464 6-13.077 2.61 3.913 6 7.294 6 13.077 0 3.926-2.941 6-6 6s-6-2.019-6-6z" fill="#ffeea3"></path><path d="M17.231 26.154c0-1.529 2.769-5.538 2.769-5.538s2.769 4.009 2.769 5.538a2.77 2.77 0 01-5.538 0z" fill="#fff"></path><path fill="#b0c1d4" d="M2.5 23.5h35v14h-35z"></path><path d="M37 24v13H3V24h34m1-1H2v15h36V23z" fill="#788b9c"></path><path fill="#b0c1d4" d="M16.5 23.5h14v7h-14z"></path><path d="M30 24v6H17v-6h13m1-1H16v8h15v-8z" fill="#788b9c"></path><g><path fill="#b0c1d4" d="M2.5 23.5h14v7h-14z"></path><path d="M16 24v6H3v-6h13m1-1H2v8h15v-8z" fill="#788b9c"></path></g><g><path fill="#b0c1d4" d="M23.5 30.5h14v7h-14z"></path><path d="M37 31v6H24v-6h13m1-1H23v8h15v-8z" fill="#788b9c"></path></g><g><path fill="#b0c1d4" d="M9.5 30.5h14v7h-14z"></path><path d="M23 31v6H10v-6h13m1-1H9v8h15v-8z" fill="#788b9c"></path></g></svg>