<svg viewBox="0 0 40 40" xmlns="http://www.w3.org/2000/svg"><path d="M36.5 24.643v5.429a5.429 5.429 0 01-5.429 5.429h-9.786" fill="none" stroke="#788b9c" stroke-miterlimit="10"></path><path d="M11 37.5A2.503 2.503 0 018.5 35v-7.167h15V35c0 1.378-1.121 2.5-2.5 2.5H11z" fill="#b6c9d6"></path><path d="M23 28.333V35c0 1.103-.897 2-2 2H11c-1.103 0-2-.897-2-2v-6.667h14m1-1H8V35a3 3 0 003 3h10a3 3 0 003-3v-7.667z" fill="#788b9c"></path><path d="M16 31.5C8.005 31.5 1.5 24.995 1.5 17S8.005 2.5 16 2.5 30.5 9.005 30.5 17 23.995 31.5 16 31.5z" fill="#f78f8f"></path><path d="M16 3c7.72 0 14 6.28 14 14s-6.28 14-14 14S2 24.72 2 17 8.28 3 16 3m0-1C7.716 2 1 8.716 1 17s6.716 15 15 15 15-6.716 15-15S24.284 2 16 2z" fill="#c74343"></path><circle cx="16" cy="17" r="5.5" fill="#fff"></circle><path d="M16 12c2.757 0 5 2.243 5 5s-2.243 5-5 5-5-2.243-5-5 2.243-5 5-5m0-1a6 6 0 100 12 6 6 0 000-12z" fill="#788b9c"></path><g><circle cx="16" cy="17" r="2" fill="#788b9c"></circle></g><g><circle cx="36.5" cy="24.5" r="2" fill="#b6c9d6"></circle><path d="M36.5 23c.827 0 1.5.673 1.5 1.5s-.673 1.5-1.5 1.5-1.5-.673-1.5-1.5.673-1.5 1.5-1.5m0-1a2.5 2.5 0 100 5 2.5 2.5 0 000-5z" fill="#788b9c"></path></g></svg>