<svg viewBox="0 0 40 40" xmlns="http://www.w3.org/2000/svg"><path fill="#f78f8f" d="M2.5 38.5V10.267l17.497-6.731L37.5 10.267V38.5z"></path><path d="M19.997 4.071L37 10.61V38H3V10.61l16.997-6.539m0-1.071L2 9.923V39h36V9.923L19.997 3z" fill="#c74343"></path><path fill="#f78f8f" d="M19.997 5.457L1.5 13.247V9.332l18.497-7.789L38.5 9.332v3.915z"></path><path d="M19.997 2.085L38 9.664v2.83L20.385 5.078l-.388-.163-.388.163L2 12.494v-2.83l17.997-7.579m0-1.085L1 9v5l18.997-8L39 14V9L19.997 1z" fill="#c74343"></path><g><path d="M20 33.5c-4.136 0-7.5-3.364-7.5-7.5 0-3.647 5.938-10.765 7.5-12.573 1.562 1.81 7.5 8.928 7.5 12.573 0 4.136-3.364 7.5-7.5 7.5z" fill="#ffeea3"></path><path d="M20 14.188c2.477 2.908 7 8.834 7 11.812 0 3.86-3.14 7-7 7s-7-3.14-7-7c0-2.975 4.523-8.903 7-11.812m0-1.521S12 21.582 12 26a8 8 0 0016 0c0-4.418-8-13.333-8-13.333z" fill="#c74343"></path></g><g><path d="M20 33.5a4.838 4.838 0 01-4.833-4.833c0-.519.211-1.456 1.143-3.07.423.693 1.178 1.541 2.341 1.541.164 0 .332-.018.5-.053 1.656-.343 1.7-3.536 1.526-5.741 1.706 2.094 4.157 5.499 4.157 7.323A4.84 4.84 0 0120 33.5z" fill="#fff"></path><path d="M21.255 22.881c1.576 2.082 3.079 4.488 3.079 5.785C24.333 31.056 22.389 33 20 33s-4.333-1.944-4.333-4.333c0-.32.109-.973.705-2.14.549.617 1.307 1.111 2.279 1.111.198 0 .4-.021.6-.063 1.602-.331 2.018-2.48 2.004-4.694M20 19.778s.921 6.431-.951 6.818a1.932 1.932 0 01-.398.042c-1.591 0-2.293-2.085-2.293-2.085-.939 1.478-1.692 3.007-1.692 4.113a5.334 5.334 0 0010.667.001c0-2.946-5.333-8.889-5.333-8.889z" fill="#c74343"></path></g></svg>