<svg viewBox="0 0 40 40" xmlns="http://www.w3.org/2000/svg"><path fill="#f88f8f" d="M31 38v-6h7V21l-4.731-10.713L28 7l-2-4H14l-3 4-4.769 3.287L2 21v11h7v6z"></path><path d="M14 3l5 10h2l5-10s-2-1-6-1-6 1-6 1z" fill="#c74343"></path><path fill="none" stroke="#ffeea3" stroke-linejoin="round" stroke-miterlimit="10" d="M8.5 33.5H31M32 29.5h6.5M32 20.5h6M2 20.5h6M9 23.5h22M8.5 29.5H2"></path><path d="M8.5 32.5h-7v-11l4.056-10.537C6.068 9.425 10.5 7.5 10.5 7.5l3.167-4.648S16.266 1.5 20 1.5c4.056 0 5.833 1.352 5.833 1.352L28.5 7.5s4.932 1.925 5.444 3.463L38.5 21.5v11h-7" fill="none" stroke="#c74343" stroke-linecap="round" stroke-linejoin="round" stroke-miterlimit="10"></path><path fill="none" stroke="#c74343" stroke-miterlimit="10" d="M8.5 18v20.5h23V18"></path><path fill="none" stroke="#c74343" stroke-linejoin="round" stroke-miterlimit="10" d="M20.5 12.5l5.333-9.648L28.5 7.5zM18.5 12.5l-4.608-9.592L10.5 7.5z"></path><path fill="none" stroke="#c74343" stroke-miterlimit="10" d="M21 12.5h-4.5V39"></path></svg>