<svg viewBox="0 0 40 40" xmlns="http://www.w3.org/2000/svg"><path d="M6.57 32.723C3.297 29.273 1.5 24.774 1.5 20s1.797-9.273 5.07-12.723l5.054 5.054C9.697 14.43 8.643 17.134 8.643 20s1.055 5.571 2.981 7.669L6.57 32.723z" fill="#f78f8f"></path><path d="M6.584 7.998l4.354 4.354A11.77 11.77 0 008.143 20c0 2.831.986 5.512 2.795 7.648l-4.354 4.354A17.873 17.873 0 012 20c0-4.473 1.621-8.697 4.584-12.002m-.019-1.433A18.94 18.94 0 001 20a18.94 18.94 0 005.565 13.435l5.758-5.758A10.822 10.822 0 019.143 20c0-2.998 1.215-5.712 3.18-7.677L6.565 6.565z" fill="#c74343"></path><path d="M28.376 27.669c1.927-2.098 2.981-4.803 2.981-7.669s-1.055-5.57-2.981-7.669l5.054-5.054c3.273 3.45 5.07 7.949 5.07 12.723s-1.797 9.273-5.07 12.723l-5.054-5.054z" fill="#f78f8f"></path><path d="M33.416 7.998A17.873 17.873 0 0138 20c0 4.473-1.621 8.697-4.584 12.002l-4.354-4.354A11.77 11.77 0 0031.857 20a11.77 11.77 0 00-2.795-7.648l4.354-4.354m.019-1.433l-5.758 5.758A10.822 10.822 0 0130.857 20c0 2.998-1.215 5.712-3.18 7.677l5.758 5.758A18.94 18.94 0 0039 20a18.94 18.94 0 00-5.565-13.435z" fill="#c74343"></path><g><circle cx="20" cy="20" r="4.5" fill="#f78f8f"></circle><path d="M20 16c2.206 0 4 1.794 4 4s-1.794 4-4 4-4-1.794-4-4 1.794-4 4-4m0-1a5 5 0 10.001 10.001A5 5 0 0020 15z" fill="#c74343"></path></g><g><path d="M6.57 32.723C3.297 29.273 1.5 24.774 1.5 20s1.797-9.273 5.07-12.723l4.952 4.952C9.569 14.356 8.5 17.097 8.5 20s1.069 5.644 3.022 7.771L6.57 32.723z" fill="#f78f8f"></path><path d="M6.584 7.998l4.252 4.252C9.001 14.414 8 17.13 8 20s1.001 5.586 2.836 7.749l-4.252 4.252A17.869 17.869 0 012 20c0-4.473 1.621-8.697 4.584-12.002m-.019-1.433C3.127 10.003 1 14.753 1 20s2.127 9.997 5.565 13.435l5.657-5.657A10.962 10.962 0 019 20c0-3.038 1.231-5.788 3.222-7.778L6.565 6.565z" fill="#c74343"></path><g><path d="M28.478 27.771C30.431 25.644 31.5 22.903 31.5 20s-1.069-5.644-3.022-7.771l4.953-4.953C36.704 10.728 38.5 15.226 38.5 20s-1.797 9.273-5.07 12.723l-4.952-4.952z" fill="#f78f8f"></path><path d="M33.416 7.998C36.379 11.303 38 15.527 38 20s-1.621 8.697-4.584 12.002l-4.252-4.252C30.999 25.586 32 22.87 32 20s-1.001-5.586-2.836-7.749l4.252-4.253m.019-1.433l-5.657 5.657A10.962 10.962 0 0131 20c0 3.038-1.231 5.788-3.222 7.778l5.657 5.657C36.873 29.997 39 25.247 39 20s-2.127-9.997-5.565-13.435z" fill="#c74343"></path></g></g></svg>