<svg viewBox="0 0 40 40" xmlns="http://www.w3.org/2000/svg"><path fill="#f78f8f" d="M28.39 10.677l-2.007-3.354 3.116-6.207 1.321 2.643L34.5 1v3.372l4.298 1.29-3.448 2.155 1.841 3.683h-3.5l-1.346 2.693z"></path><path d="M34 2V4.744l.713.214 2.884.865-2.127 1.329-.771.482.407.813L36.382 11h-3l-.276.553-.916 1.833-3.41-3.031-1.827-3.053 2.545-5.069.607 1.215.536 1.072.959-.72L34 2m1-2l-4 3-1.5-3-3.688 7.344L28 11l4.5 4 1.5-3h4l-2-4 4-2.5L35 4V0z" fill="#c74343"></path><path fill="#ffeea3" d="M25.375 7.906L29 6v1.417L33 7l-3 2 2 2-5.292-1z"></path><path fill="#66798f" d="M26.171 6.516L21.16 8.344l.887-2.379 3.442-1.317zM4.475 12.24l2.505-.915.915 2.506-2.506.914z"></path><path d="M1.5 16.5c2.359 0 3.687.391 5.5 3.5" fill="none" stroke="#66798f" stroke-linecap="round" stroke-miterlimit="10"></path><path d="M14.647 18.707c1.94 0 3.549.984 4.1 2.508.673 1.861.028 5.212-3.494 6.497-.519.189-.992.285-1.407.285-.663 0-1.618-.204-2.26-1.963-.068-.187-.197-.554-.328-.928-.139-.396-.28-.8-.358-1.013-.433-1.186-.518-2.259-.247-3.103.286-.889.989-1.543 2.089-1.944a5.529 5.529 0 011.905-.339m0-1c-.744 0-1.507.129-2.247.399-2.975 1.086-3.406 3.678-2.439 6.33.151.415.545 1.555.686 1.941.608 1.667 1.663 2.621 3.199 2.621.526 0 1.109-.112 1.75-.346 3.917-1.429 4.988-5.295 4.091-7.776-.72-1.995-2.792-3.169-5.04-3.169z" fill="#66798f"></path><path d="M15.5 25.5c-1.59 0-2.571-.959-3-3.5" fill="none" stroke="#66798f" stroke-linecap="round" stroke-miterlimit="10"></path><path d="M2.728 39.5a.819.819 0 01-.771-.524C.543 35.298-.695 28.242 3.602 25.05l.056.061c.179.199.478.532.989.532.041 0 .082-.002.123-.006.146.096.353.166.648.166.332 0 .723-.08 1.137-.164.381-.078.774-.158 1.061-.158.17 0 .224.029.224.029.126.393.474.502.642.555l.02-.169v.339c-.001 3.931-.002 5.726 1.807 10.228a.732.732 0 01-.017.578.866.866 0 01-.492.458l-6.75 1.939a.927.927 0 01-.322.062z" fill="#b08159"></path><path d="M3.56 25.722c.24.208.593.421 1.087.421h.002c.197.096.449.16.77.16.383 0 .797-.084 1.236-.174.295-.06.624-.127.86-.144.143.206.321.336.485.423-.001 3.878.025 5.716 1.842 10.241a.232.232 0 01-.009.189.361.361 0 01-.185.182l-6.737 1.937-.034.01-.033.012a.33.33 0 01-.42-.183c-1.325-3.442-2.51-9.941 1.136-13.074m.065-1.217a.477.477 0 00-.277.111c-4.974 3.635-3.002 11.566-1.859 14.54a1.325 1.325 0 001.699.762l6.781-1.95c.687-.25 1.074-1.014.801-1.693C8.948 31.74 9 30.104 9 25.896c-.156-.427-.576-.19-.724-.596-.087-.238-.336-.318-.661-.318-.653 0-1.616.321-2.197.321-.244 0-.42-.056-.479-.217a.853.853 0 01-.293.057c-.525 0-.667-.638-1.021-.638z" fill="#704e34"></path><g><path d="M4.607 27.496a2.174 2.174 0 01-2.036-1.425l-.914-2.505a2.169 2.169 0 011.293-2.778C5.377 19.902 5.5 18.012 5.5 15v-.951l20.216-7.413 1.621 4.053-1.033.335c-.824.301-1.105 1.204-.966 2.06l-5.126 1.895c-1.548.622-2.002 2.612-1.541 4.103l.481 1.708-7.664 2.793c-.442.161-.88.542-1.173 1.02a2.116 2.116 0 00-.337 1.072L5.35 27.364a2.184 2.184 0 01-.743.132z" fill="#e1ebf2"></path><path d="M25.432 7.273l1.242 3.106-.559.182c-.638.233-1.094.785-1.25 1.514a2.865 2.865 0 00-.059.673l-4.794 1.772c-1.799.723-2.345 3.007-1.826 4.686l.359 1.273-7.229 2.635c-.552.201-1.072.649-1.428 1.227a2.772 2.772 0 00-.377.971l-3.082 1.124-1.253.457a1.673 1.673 0 01-.571.102c-.697 0-1.327-.44-1.566-1.096l-.914-2.505a1.652 1.652 0 01.055-1.274c.188-.404.522-.71.94-.863C6 20.207 6 17.794 6 15v-.601l19.432-7.126M26 6L5 13.7V15c0 3.056-.142 4.559-2.221 5.318a2.666 2.666 0 00-1.591 3.419l.914 2.505a2.668 2.668 0 003.419 1.591l1.253-.457 3.758-1.371c-.252-.692.437-1.7 1.129-1.952l8.1-2.952-.611-2.167c-.414-1.34.018-2.997 1.237-3.486l5.548-2.051c-.251-.689-.164-1.646.525-1.897L28 11l-2-5z" fill="#788b9c"></path><g><path d="M4.607 27.496a2.174 2.174 0 01-2.036-1.425l-.914-2.505a2.172 2.172 0 01.878-2.575l1.01 2.216C4.144 24.5 5.353 24.5 6.634 24.5H7c2.248 0 2.5.169 2.891 1.207L5.35 27.364a2.184 2.184 0 01-.743.132z" fill="#b08159"></path><path d="M2.363 21.818l.73 1.602C3.824 25 5.316 25 6.633 25H7c1.493 0 1.927 0 2.206.424L6.43 26.437l-1.253.457a1.673 1.673 0 01-.571.102c-.697 0-1.327-.44-1.566-1.096l-.914-2.505a1.652 1.652 0 01.237-1.577m.416-1.5a2.666 2.666 0 00-1.591 3.419l.914 2.505a2.668 2.668 0 003.419 1.591l1.253-.457 3.758-1.371C9.961 24.436 9.906 24 7 24h-.367C5.31 24 4.445 23.961 4 23l-1.221-2.682z" fill="#704e34"></path></g></g><g><path fill="#788b9c" d="M27.882 10.8l-.288-.771L14.016 15l.562.674z"></path><path fill="#66798f" d="M9.034 15.436l5.34-1.952 2 5.472-5.34 1.952z"></path><path d="M11.603 16.783l3.508-1.284-.288-.789L11.317 16a.417.417 0 10.286.783zM11.979 18.528a.41.41 0 00.201.552.418.418 0 00.318.015l3.461-1.271-.287-.788-3.458 1.276a.41.41 0 00-.235.216z" fill="#36404d"></path></g></svg>