<svg viewBox="0 0 40 40" xmlns="http://www.w3.org/2000/svg"><path d="M17.452 19.159c-4.698 0-5.952-.729-5.952-1.159 0-7.738 1.799-11.5 5.5-11.5 8.596 0 17.259 7.003 17.495 10.362-1.094.744-10.009 2.297-17.043 2.297z" fill="#ffeea3"></path><path d="M17 7c7.922 0 16.231 6.339 16.95 9.573-1.831.746-9.896 2.087-16.498 2.087-4.228 0-5.26-.603-5.452-.754C12.022 7 15.767 7 17 7m0-1c-4.844 0-6 5.719-6 12 0 1.214 2.781 1.659 6.452 1.659C24.56 19.659 35 17.989 35 17c0-3.732-9.306-11-18-11z" fill="#ba9b48"></path><path d="M18.033 30.517c-3.488 0-6.133-.98-7.646-2.833-1.099-1.345-1.022-3.125-.585-4.343.929-2.585 2.302-3.841 4.198-3.841 3.039 0 12.003 5.871 12.546 7.255-2.191 2.358-5.363 3.762-8.513 3.762z" fill="#ffeea3"></path><path d="M14 20c2.639 0 10.489 4.907 11.909 6.696-2.084 2.088-4.99 3.321-7.875 3.321-2.325 0-5.471-.46-7.259-2.649-.966-1.184-.893-2.769-.502-3.858C11.535 20 13.39 20 14 20m0-1c-1.469 0-3.402.65-4.668 4.172C8.855 24.498 8.75 26.469 10 28c1.723 2.111 4.625 3.017 8.034 3.017 3.236 0 6.622-1.439 8.966-4.017 1.006-1.107-9.594-8-13-8z" fill="#ba9b48"></path><path d="M23.357 32.5c-.345 0-.857-.19-.857-.714 0-.187.458-.537.862-.847 1.113-.853 2.939-2.251 3.123-5.413 1.532.148 4.015.896 4.015 1.474 0 .905-1.241 5.5-7.143 5.5z" fill="#ffeea3"></path><path d="M26.938 26.092c1.162.187 2.685.625 3.057 1.014C29.908 28.129 28.64 32 23.357 32c-.003 0-.256-.009-.334-.133.13-.138.421-.361.643-.531 1.12-.858 2.917-2.234 3.272-5.244M26 25c0 4.962-4 5.501-4 6.786 0 .806.721 1.214 1.357 1.214C29.443 33 31 28.285 31 27s-3.951-2-5-2z" fill="#ba9b48"></path><g><path d="M26 29.5c-3.724 0-6.901-.952-9.714-2.91-1.576-1.098-3.189-2.478-4.933-4.22a2.865 2.865 0 00-2.092-.87c-.961 0-1.828.417-2.387.767-.797.5-1.366 1.042-1.823 1.478-.443.422-.793.755-1.051.755-1.133 0-2.5-2.23-2.5-5s1.367-5 2.5-5c.33 0 .893.467 1.488.961.489.406 1.043.866 1.699 1.284.754.479 1.749.755 2.73.755.887 0 1.699-.22 2.351-.635l.177-.113c1.194-.762 2.549-1.625 3.797-2.315C19.094 12.83 21.719 11.5 25 11.5c2.803 0 6.014.221 8.646 2.854 1.792 1.792 1.834 3.625 1.867 5.098.035 1.498.07 3.048 2.487 3.048.124 0 .5 0 .5.5v2c0 .365-.071.399-.098.412-.182.088-.686.088-1.09.088H37c-1.032 0-1.931.081-3.299 1.099C32.149 27.754 29.804 29.5 26 29.5z" fill="#ffeea3"></path><path d="M25 12c2.703 0 5.795.209 8.293 2.707 1.65 1.65 1.688 3.3 1.721 4.756C35.048 20.955 35.094 23 38 23v1.985c-.206.015-.503.015-.688.015H37c-1.088 0-2.109.09-3.597 1.198C31.814 27.38 29.639 29 26 29c-3.618 0-6.702-.923-9.429-2.821-1.532-1.067-3.169-2.467-4.864-4.163A3.394 3.394 0 009.262 21c-1.08 0-2.038.458-2.652.843-.841.527-1.43 1.088-1.904 1.54-.257.244-.608.579-.706.617-.703 0-2-1.856-2-4.5s1.297-4.5 1.983-4.501c.209.036.774.505 1.187.848.5.415 1.067.886 1.75 1.32.831.529 1.924.833 2.998.833.981 0 1.887-.247 2.619-.713l.168-.107c1.191-.76 2.542-1.621 3.786-2.308C19.277 13.3 21.84 12 25 12m0-1c-3.298 0-5.919 1.263-9 3-1.323.732-2.756 1.65-4 2.443-.605.386-1.342.557-2.082.557-.895 0-1.794-.251-2.462-.677C5.873 15.316 4.849 14 4 14c-1.499 0-3 2.502-3 5.5S2.501 25 4 25c.837 0 1.472-1.265 3.141-2.31.623-.39 1.377-.69 2.121-.69.612 0 1.217.202 1.738.724 1.427 1.427 3.141 2.982 5 4.276 3.292 2.292 6.702 3 10 3 3.944 0 6.361-1.78 8-3 1.277-.95 2.062-1 3-1h.312C38.551 26 39 25.965 39 25v-2c0-.575-.349-1-1-1-3.844 0-.119-4.119-4-8-2.884-2.884-6.431-3-9-3z" fill="#ba9b48"></path></g><circle cx="31.5" cy="20.5" r="1.5" fill="#36404d"></circle><path d="M27.5 21.5c0 2.357.37 5.255 3.566 6.665" fill="none" stroke="#ba9b48" stroke-linecap="round" stroke-miterlimit="10"></path></svg>