<svg viewBox="0 0 40 40" xmlns="http://www.w3.org/2000/svg"><path d="M23.905 16.859c-.898-.011-1.848-.436-2.946-.926-1.516-.678-3.233-1.445-5.459-1.446V5.501c4.975.02 7.657.363 10.146 2.853 2.609 2.608.075 6.618-1.741 8.505z" fill="#c2e8ff"></path><path d="M16 6.004c4.515.041 7.016.426 9.293 2.703.976.976 1.222 2.269.733 3.844-.384 1.237-1.242 2.632-2.325 3.796-.743-.069-1.582-.444-2.538-.871-1.376-.615-3.065-1.37-5.163-1.477V6.004M15 5v10c.168-.009.334-.014.497-.014 3.779 0 6.131 2.372 8.443 2.372.06 0 .12-.002.18-.005C26.454 15.02 28.79 10.79 26 8s-5.911-3-11-3z" fill="#7496c4"></path><path d="M17.5 25.5h8.336c1.216 1.441.708 4.303-1.135 6.146-1.825 1.825-4.902 2.725-7.201 2.841V25.5z" fill="#c2e8ff"></path><path d="M25.587 26c.859 1.291.325 3.728-1.239 5.293-1.598 1.597-4.223 2.448-6.348 2.656V26h7.587m.468-1H17v10c2.375 0 5.95-.896 8.055-3 2.12-2.12 2.59-5.41 1-7z" fill="#7496c4"></path><g><path d="M23 30.5c-4.155 0-8.885-2.19-12.651-5.858l-.322-.313-.346.287c-1.966 1.632-5.193 2.757-8.171 2.875.102-2.687 1.022-4.883 2.738-6.534l.459-.457-.459-.456c-1.716-1.651-2.636-3.847-2.738-6.533 2.91.123 6.204 1.271 8.174 2.877l.372.303.318-.358C13.144 13.215 17.757 9.5 24 9.5c7.995 0 13.003 6.23 14.476 10.511C36.334 27.263 31.555 30.5 23 30.5z" fill="#c2e8ff"></path><path d="M24 10c7.641 0 12.462 5.887 13.95 10.023C35.859 26.92 31.235 30 23 30c-4.028 0-8.627-2.137-12.302-5.716l-.644-.628-.692.574c-1.767 1.467-4.605 2.508-7.318 2.727.195-2.303 1.051-4.197 2.551-5.64l.113-.11.706-.707-.707-.707-.113-.11c-1.5-1.443-2.356-3.336-2.551-5.638 2.664.228 5.554 1.287 7.325 2.729l.743.605.636-.716C13.45 13.624 17.943 10 24 10m0-1c-6.25 0-11 3.625-14 7-2.071-1.687-5.677-3-9-3 0 4.891 2.533 7.033 3 7.5-.467.467-3 2.609-3 7.5 3.354 0 6.933-1.284 9-3 3.332 3.245 8.193 6 13 6 9.048 0 13.875-3.625 16-11-1.5-4.562-6.801-11-15-11z" fill="#7496c4"></path></g><circle cx="30" cy="18" r="2" fill="#36404d"></circle></svg>