<svg viewBox="0 0 40 40" xmlns="http://www.w3.org/2000/svg"><path fill="#839cb2" d="M19.5 1.5h1v37h-1z"></path><path d="M20 2v36V2m1-1h-2v38h2V1z" fill="#66798f"></path><path d="M20 31.5c-3.23 0-8.5-8.345-8.5-14.938C11.5 8.246 16.123 6.5 20 6.5s8.5 1.746 8.5 10.063c0 6.592-5.27 14.937-8.5 14.937z" fill="#e1ebf2"></path><path d="M20 7c5.308 0 8 3.217 8 9.563C28 22.794 22.968 31 20 31s-8-8.206-8-14.438C12 10.217 14.692 7 20 7m0-1c-4.991 0-9 2.762-9 10.563C11 23.008 16.235 32 20 32s9-8.992 9-15.438C29 8.762 24.991 6 20 6z" fill="#a3b7cc"></path><path d="M11.515 15.9c.243-7.752 4.724-9.4 8.485-9.4s8.242 1.647 8.485 9.4h-16.97z" fill="#f78f8f"></path><path d="M20 7c4.967 0 7.643 2.825 7.963 8.4H12.037C12.357 9.825 15.033 7 20 7m0-1c-4.955 0-8.937 2.729-8.995 10.4h17.989C28.937 8.729 24.955 6 20 6z" fill="#c74343"></path><g><path d="M11.52 17.2a11.47 11.47 0 01-.02-.637c0-.331.008-.651.023-.962h16.953c.015.312.023.632.023.962 0 .209-.007.422-.02.637H11.52z" fill="#839cb2"></path><path d="M27.995 16.1c.003.154.005.307.005.463l-.001.137H12.001L12 16.563c0-.155.002-.309.005-.463h15.99m.953-1H11.052A20.7 20.7 0 0011 16.563c0 .371.022.752.055 1.137h17.89c.033-.386.055-.767.055-1.137 0-.51-.019-.996-.052-1.463z" fill="#66798f"></path></g><g><path d="M11.542 17.5a11.578 11.578 0 01-.042-.938c0-.367.011-.72.031-1.063h16.938c.02.343.031.695.031 1.063 0 .284-.014.594-.042.938H11.542z" fill="#839cb2"></path><path d="M27.991 16c.006.19.009.377.009.563 0 .139-.003.284-.01.438H12.01a9.64 9.64 0 01-.01-.438c0-.186.003-.372.009-.563h15.982m.946-1H11.063A19.92 19.92 0 0011 16.563c0 .466.035.949.087 1.438h17.826c.052-.49.087-.972.087-1.438 0-.548-.024-1.064-.063-1.563z" fill="#66798f"></path></g></svg>