<svg viewBox="0 0 40 40" xmlns="http://www.w3.org/2000/svg"><path fill="#8bb7f0" d="M.5 6.5h39v27H.5z"></path><path d="M39 7v26H1V7h38m1-1H0v28h40V6z" fill="#4e7ab5"></path><g><path d="M20 9l.501 1.023 1.12.163-.81.796.192 1.125L20 11.576l-1.002.531.192-1.125-.81-.796 1.12-.163L20 9zm-4.816 1.45l.501 1.023 1.12.164-.81.796.192 1.125-1.002-.531-1.002.531.191-1.125-.81-.796 1.121-.164.499-1.023zm-3.422 3.178l.501 1.023 1.121.163-.81.796.191 1.125-1.002-.531-1.002.531.192-1.125-.81-.796 1.12-.163.499-1.023zm13.054-3.178l-.501 1.023-1.12.164.81.796-.192 1.125 1.002-.531 1.002.531-.191-1.125.81-.796-1.121-.164-.499-1.023zm-9.632 15.458l.501 1.023 1.12.164-.81.796.192 1.125-1.002-.531-1.002.531.191-1.125-.81-.796 1.121-.164.499-1.023zm9.632 0l-.501 1.023-1.12.164.81.796-.192 1.125 1.002-.531 1.002.531-.191-1.125.81-.796-1.121-.164-.499-1.023zm3.422-12.28l-.501 1.023-1.121.163.81.796-.191 1.125 1.002-.531 1.002.531-.192-1.125.81-.796-1.12-.163-.499-1.023zm-16.476 9.056l.501 1.023 1.121.164-.81.796.191 1.125-1.002-.531-1.002.531.192-1.125-.81-.796 1.12-.164.499-1.023zm16.476 0l-.501 1.023-1.121.164.81.796-.191 1.125 1.002-.531 1.002.531-.192-1.125.81-.796-1.12-.164-.499-1.023zm1.14-4.238l.501 1.023 1.121.164-.81.796.192 1.125-1.002-.531-1.002.531.192-1.125-.813-.796 1.121-.164.5-1.023zm-18.756 0l.501 1.023 1.121.164-.811.796.192 1.125-1.002-.531-1.002.531.192-1.125L9 19.633l1.12-.164.502-1.023zM20 27.892l.501 1.023 1.12.164-.81.796.191 1.125L20 30.469 18.998 31l.192-1.125-.81-.796 1.12-.164.5-1.023z" fill="#fff9de"></path></g></svg>