<svg viewBox="0 0 40 40" xmlns="http://www.w3.org/2000/svg"><path d="M3.87 27.878l11.044-11.045.008-.196c.044-1.118.481-6.802 4.75-11.341l15.032 15.032c-4.54 4.268-10.223 4.705-11.341 4.75l-.196.008L12.122 36.13 3.87 27.878z" fill="#ffc49c"></path><path d="M19.689 6.02L33.98 20.311c-4.34 3.823-9.582 4.225-10.637 4.267l-.391.016-.277.277-10.553 10.552-7.545-7.545L15.13 17.325l.277-.277.015-.391c.042-1.055.444-6.297 4.267-10.637m-.023-1.436c-4.729 4.729-5.197 10.86-5.243 12.034l-11.26 11.26 8.959 8.959 11.26-11.26c1.174-.047 7.305-.515 12.034-5.243l-15.75-15.75z" fill="#a16a4a"></path><path d="M35.083 21.5a.83.83 0 01-.591-.245L18.745 5.507a.837.837 0 010-1.182l2.619-2.618 16.93 16.93-2.618 2.619a.838.838 0 01-.593.244z" fill="#b6c9d6"></path><path d="M21.363 2.414l16.223 16.223-2.265 2.265a.336.336 0 01-.474 0L19.098 5.154a.336.336 0 010-.475l2.265-2.265m0-1.414l-2.972 2.972a1.335 1.335 0 000 1.889l15.748 15.748c.261.261.603.391.945.391.342 0 .684-.13.945-.391L39 18.637 21.363 1z" fill="#788b9c"></path><path d="M9.435 38.5a.761.761 0 01-.542-.225l-7.167-7.167a.768.768 0 010-1.085l2.753-2.753 8.252 8.252-2.753 2.753a.767.767 0 01-.543.225z" fill="#b6c9d6"></path><path d="M4.478 27.977l7.545 7.545-2.399 2.399a.266.266 0 01-.379.001l-7.167-7.167a.268.268 0 010-.378l2.4-2.4m0-1.414L1.371 29.67a1.267 1.267 0 000 1.792l7.167 7.167a1.266 1.266 0 001.792 0l3.107-3.107-8.959-8.959z" fill="#788b9c"></path><path d="M15.05 26.5c-.414 0-.803-.161-1.096-.454s-.454-.682-.454-1.096.161-.803.454-1.096l2.899-2.899c.293-.293.682-.454 1.096-.454s.803.161 1.096.454.455.681.455 1.095-.161.803-.454 1.096l-2.899 2.899a1.538 1.538 0 01-1.097.455z" fill="#cf8b5d"></path><path d="M17.95 21a1.05 1.05 0 01.743 1.793l-2.9 2.899c-.198.199-.462.308-.743.308s-.544-.109-.743-.308a1.052 1.052 0 010-1.485l2.899-2.899c.199-.199.463-.308.744-.308m0-1c-.525 0-1.049.2-1.45.601L13.601 23.5a2.05 2.05 0 000 2.899c.4.4.925.601 1.45.601s1.049-.2 1.45-.601L19.4 23.5a2.05 2.05 0 000-2.899A2.044 2.044 0 0017.95 20z" fill="#a16a4a"></path><circle cx="18" cy="22" r="1.5" fill="#fff"></circle><path d="M18 21c.551 0 1 .449 1 1s-.449 1-1 1-1-.449-1-1 .449-1 1-1m0-1a2 2 0 10-.001 3.999A2 2 0 0018 20z" fill="#a16a4a"></path><g><path fill="none" stroke="#788b9c" stroke-linecap="round" stroke-miterlimit="10" d="M34.927 15.759l-1.096 1.097"></path></g><g><path fill="none" stroke="#788b9c" stroke-linecap="round" stroke-miterlimit="10" d="M32.256 13.088l-1.097 1.096"></path></g><g><path fill="none" stroke="#788b9c" stroke-linecap="round" stroke-miterlimit="10" d="M29.584 10.416l-1.096 1.096"></path></g><g><path fill="none" stroke="#788b9c" stroke-linecap="round" stroke-miterlimit="10" d="M26.912 7.744l-1.096 1.097"></path></g><g><path fill="none" stroke="#788b9c" stroke-linecap="round" stroke-miterlimit="10" d="M24.241 5.073l-1.097 1.096"></path></g></svg>