<svg viewBox="0 0 40 40" xmlns="http://www.w3.org/2000/svg"><path fill="#f78f8f" d="M15.331 27.348L5.087 31.073l4.603-8.287-8.458-4.229 8.393-3.264L5.876 4.047 16.26 9.711l3.24-8.332 3.206 8.246L33.822 5.92l-6.601 10.373 11.064 3.228-9.994 3.18 4.7 9.4-10.272-3.735-4.14 10.12z"></path><path d="M19.5 2.759l2.568 6.603.345.887.903-.301 9.328-3.109-5.488 8.624-.715 1.124 1.279.373 8.851 2.582-7.874 2.505-1.114.354.523 1.046 3.878 7.755-8.642-3.142-.903-.328-.364.89-3.416 8.35-2.699-9.252-.299-1.025-1.003.365-8.484 3.085 3.7-6.66.507-.913-.934-.467-6.982-3.491 6.898-2.682.887-.345-.301-.903-3.197-9.589 8.769 4.783.999.545.412-1.06L19.5 2.759M19.5 0L16 9 5 3l4 12-9 3.5L9 23l-5 9 11-4 3.5 12L23 29l11 4-5-10 11-3.5L28 16l7-11-12 4-3.5-9z" fill="#c74343"></path><path fill="#ffeea3" d="M18 17l-4-3 2 6-3 4 5-1 1.5 5 1.5-6 5-2-5-1v-6z"></path></svg>