<svg viewBox="0 0 40 40" xmlns="http://www.w3.org/2000/svg"><path d="M17.825 28.264l-.279-.111a6.628 6.628 0 01-1.646-.951l-.236-.187-7.767 3.433a14.686 14.686 0 01-1.274-2.183l6.867-5.018-.042-.297a6.597 6.597 0 01-.076-.95c0-.289.024-.59.077-.948l.043-.298-6.868-5.018a14.84 14.84 0 011.273-2.183l7.768 3.433.236-.187a6.597 6.597 0 011.646-.951l.279-.111.912-8.451c.444-.04.86-.06 1.262-.06s.817.02 1.263.06l.912 8.451.279.111a6.628 6.628 0 011.646.951l.236.187 7.767-3.433c.496.707.924 1.438 1.274 2.183l-6.867 5.018.042.297c.052.362.076.664.076.95 0 .289-.024.59-.077.948l-.043.298 6.868 5.018a14.84 14.84 0 01-1.273 2.183l-7.768-3.433-.236.187a6.597 6.597 0 01-1.646.951l-.279.111-.673 6.236-3.003.001-.673-6.237z" fill="#f5ce85"></path><path d="M20 7.725c.261 0 .53.009.811.026l.835 7.739.065.599.56.223a6.076 6.076 0 011.52.879l.473.374.551-.244 7.111-3.142c.303.458.577.926.819 1.4l-6.286 4.593-.485.354.085.595c.049.34.071.619.071.879 0 .262-.023.54-.072.876l-.087.597.487.356 6.286 4.593c-.242.475-.515.943-.818 1.401l-7.111-3.143-.551-.244-.473.374a6.076 6.076 0 01-1.52.879l-.56.223-.065.599L21.052 34h-2.105l-.592-5.491-.065-.599-.56-.223a6.076 6.076 0 01-1.52-.879l-.473-.374-.551.244-7.111 3.142a14.345 14.345 0 01-.819-1.401l6.286-4.593.485-.354-.085-.595a6.09 6.09 0 01-.071-.879c0-.262.023-.54.072-.876l.087-.597-.487-.356-6.286-4.593c.242-.475.515-.943.818-1.401l7.111 3.143.551.244.473-.374a6.076 6.076 0 011.52-.879l.56-.223.065-.599.835-7.739c.28-.014.549-.023.81-.023m0-1c-.58 0-1.152.04-1.716.103l-.923 8.555a7.112 7.112 0 00-1.77 1.023l-7.863-3.475A15.222 15.222 0 006 15.898l6.953 5.08c-.049.334-.082.673-.082 1.02s.034.686.081 1.02L6 28.101a15.222 15.222 0 001.728 2.967l7.863-3.475a7.05 7.05 0 001.77 1.023L18.049 35h3.901l.688-6.383a7.112 7.112 0 001.77-1.023l7.863 3.475a15.222 15.222 0 001.728-2.967l-6.953-5.08c.049-.334.082-.673.082-1.02s-.034-.686-.081-1.02L34 15.899a15.222 15.222 0 00-1.728-2.967l-7.863 3.475a7.05 7.05 0 00-1.77-1.023l-.923-8.555A15.203 15.203 0 0020 6.725z" fill="#967a44"></path><circle cx="20" cy="22" r="3" fill="#967a44"></circle><path d="M13.392 36.5c-7.037 0-8.456-.432-8.677-.689l.006.001c.047 0 .193-.187.282-.3.232-.298.497-.636.497-1.051 0-1.057-.575-1.933-1.24-2.947-1.165-1.774-2.76-4.203-2.76-9.443 0-10.201 8.299-18.5 18.5-18.5s18.5 8.299 18.5 18.5c0 5.239-1.595 7.669-2.76 9.443-.665 1.014-1.24 1.89-1.24 2.947 0 .415.265.753.497 1.051.093.119.248.316.264.393-.196.163-1.615.595-8.652.595H13.392zM20 9.5C13.107 9.5 7.5 15.107 7.5 22S13.107 34.5 20 34.5 32.5 28.893 32.5 22 26.893 9.5 20 9.5z" fill="#c8d1db"></path><path d="M20 4.071c9.925 0 18 8.075 18 18 0 5.089-1.547 7.447-2.677 9.168-.71 1.082-1.323 2.016-1.323 3.222 0 .466.219.842.437 1.141-.847.183-2.893.398-7.828.398H13.391c-4.936 0-6.982-.215-7.828-.398.218-.298.437-.675.437-1.141 0-1.206-.613-2.14-1.323-3.221C3.547 29.518 2 27.161 2 22.071c0-9.925 8.075-18 18-18M20 35c7.168 0 13-5.832 13-13S27.168 9 20 9 7 14.832 7 22s5.832 13 13 13m0-31.929c-10.494 0-19 8.506-19 19 0 8.364 4 9.839 4 12.39C5 35.619.502 37 13.391 37h13.217C39.498 37 35 35.619 35 34.461c0-2.551 4-4.026 4-12.39 0-10.493-8.506-19-19-19zM20 34c-6.627 0-12-5.373-12-12s5.373-12 12-12 12 5.373 12 12-5.373 12-12 12z" fill="#66798f"></path><g><g fill="none" stroke="#66798f" stroke-width="2.6" stroke-miterlimit="10"><path d="M5.052 31.028c-.176-.26-.361-.534-.55-.831"></path><path d="M2.851 26.424c-.3-1.179-.494-2.6-.494-4.352 0-9.728 7.915-17.643 17.643-17.643s17.643 7.915 17.643 17.643c0 2.847-.511 4.818-1.16 6.299" stroke-dasharray="2.0697,4.1394"></path><path d="M35.497 30.197c-.188.297-.374.571-.55.831"></path></g></g></svg>