<svg viewBox="0 0 40 40" xmlns="http://www.w3.org/2000/svg"><path d="M11.461 37.5c-2.895 0-4.782-1.944-5.607-5.777-1.135-5.273-2.138-8.754-2.87-11.296-.925-3.214-1.484-5.154-1.484-7.754C1.5 6.398 4.816 2.5 10.154 2.5c4.325 0 7.346 3.617 7.346 8.796 0 3.418-.301 5.074-.567 6.534-.212 1.164-.412 2.263-.433 4.028-.02 1.678.213 2.901.461 4.196.265 1.385.539 2.818.539 5.001 0 1.077-.291 6.445-6.039 6.445z" fill="#8bb7f0"></path><path d="M10.154 3C14.185 3 17 6.412 17 11.296c0 3.373-.297 5.005-.559 6.445-.216 1.185-.419 2.304-.441 4.111-.021 1.729.218 2.976.47 4.296.261 1.362.53 2.771.53 4.907C17 36.571 12.761 37 11.462 37c-2.627 0-4.349-1.811-5.118-5.382-1.139-5.29-2.145-8.781-2.879-11.33C2.52 17.008 2 15.202 2 12.674 2 6.707 5.124 3 10.154 3m0-1C4.898 2 1 5.749 1 12.674c0 4.784 1.804 7.26 4.365 19.155C5.936 34.478 7.408 38 11.462 38 16.878 38 18 33.495 18 31.055c0-4.281-1.041-5.792-1-9.191.048-3.948 1-4.422 1-10.568C18 5.993 14.869 2 10.154 2z" fill="#4e7ab5"></path><path d="M10 5c3.875 2.458 6 8.008 6 11.795C16 21.697 14.774 22 14.244 22c-.831 0-1.819-.944-.792-2.322C15.833 15.125 12.644 9.628 10 7c-3.835 3.731-5.829 9.707-2.478 13.498 1.45.951-.784 3.969-2.389 1.563C4.807 21.575 4 19.267 4 16.315 4 12.714 5.06 8.347 10 5z" fill="#ffeea3"></path><path d="M28.539 37.5c-5.748 0-6.039-5.368-6.039-6.444 0-2.184.274-3.616.539-5.001.248-1.295.481-2.518.461-4.196-.021-1.765-.221-2.864-.433-4.028-.266-1.46-.567-3.116-.567-6.534 0-5.179 3.021-8.796 7.346-8.796 5.338 0 8.654 3.898 8.654 10.173 0 2.6-.559 4.54-1.484 7.753-.732 2.542-1.735 6.023-2.87 11.296-.826 3.833-2.712 5.777-5.607 5.777z" fill="#8bb7f0"></path><path d="M29.846 3C34.876 3 38 6.707 38 12.674c0 2.529-.52 4.335-1.464 7.614-.734 2.549-1.739 6.04-2.879 11.33C32.888 35.189 31.166 37 28.538 37 27.239 37 23 36.571 23 31.055c0-2.136.269-3.545.53-4.907.252-1.32.491-2.567.47-4.296-.022-1.807-.225-2.926-.441-4.111-.262-1.44-.559-3.071-.559-6.445C23 6.412 25.815 3 29.846 3m0-1C25.131 2 22 5.993 22 11.296c0 6.146.952 6.62 1 10.568.041 3.399-1 4.91-1 9.191C22 33.495 23.122 38 28.538 38c4.053 0 5.525-3.522 6.096-6.172C37.196 19.934 39 17.458 39 12.674 39 5.749 35.102 2 29.846 2z" fill="#4e7ab5"></path><g><path d="M36 16.315c0 2.952-.807 5.26-1.134 5.745-1.604 2.406-3.839-.612-2.389-1.563C35.829 16.707 33.835 10.731 30 7c-2.644 2.628-5.833 8.125-3.452 12.678 1.027 1.378.039 2.322-.792 2.322-.53 0-1.756-.303-1.756-5.205C24 13.008 26.125 7.458 30 5c4.94 3.347 6 7.714 6 11.315z" fill="#ffeea3"></path></g></svg>