<svg viewBox="0 0 40 40" xmlns="http://www.w3.org/2000/svg"><path d="M24.998 35.5c-.248 0-.484-.06-.704-.177L9.735 27.559l1.412-2.647 14.559 7.765c.354.188.612.503.729.887a1.502 1.502 0 01-1.437 1.936z" fill="#ffeea3"></path><path d="M11.353 25.588l14.118 7.53a.992.992 0 01.486.591.998.998 0 01-1.428 1.173l-14.118-7.529.942-1.765m-.412-1.353l-1.883 3.529 15 8a2 2 0 001.883-3.529l-15-8z" fill="#ba9b48"></path><path d="M15.049 35.485a1.498 1.498 0 01-1.437-1.937 1.49 1.49 0 01.729-.887L28.9 24.896l1.412 2.647-14.559 7.765a1.5 1.5 0 01-.704.177z" fill="#ffeea3"></path><path d="M28.694 25.573l.941 1.765-14.117 7.529a1 1 0 11-.941-1.765l14.117-7.529m.411-1.353l-15 8a2 2 0 101.883 3.529l15-8-1.883-3.529z" fill="#ba9b48"></path><path d="M14.5 23.5v-7.146l-1.158 2.316a1.522 1.522 0 01-.671.671l-6 3a1.493 1.493 0 01-2.013-.671 1.502 1.502 0 01.671-2.013l5.553-2.776 2.776-5.553c.113-.227.284-.422.493-.565.307-.21 2.031-1.263 5.849-1.263s5.542 1.053 5.849 1.264c.209.144.379.339.493.566l2.776 5.552 5.553 2.776a1.502 1.502 0 01-.672 2.843 1.47 1.47 0 01-.669-.159l-6-3a1.522 1.522 0 01-.671-.671L25.5 16.354V23.5h-11z" fill="#ffeea3"></path><path d="M20 10c3.748 0 5.391 1.055 5.566 1.176.139.096.253.226.329.377l2.702 5.404.149.298.298.149 5.404 2.702a1 1 0 11-.895 1.788l-5.999-3a1.011 1.011 0 01-.448-.448l-.211-.422L25 14.237V23H15v-8.763l-1.894 3.789-.21.421a1.011 1.011 0 01-.448.448l-6 3a.997.997 0 01-1.343-.448 1.002 1.002 0 01.447-1.342l5.404-2.702.298-.149.149-.298 2.701-5.403c.076-.152.19-.282.329-.378C14.609 11.055 16.252 10 20 10m0-1c-3.964 0-5.804 1.126-6.132 1.352a2.008 2.008 0 00-.657.754l-2.702 5.404-5.404 2.702a2.002 2.002 0 00-.895 2.684 2.005 2.005 0 002.684.893l6-3c.387-.194.701-.508.895-.895l.211-.421V24h12v-5.527l.211.422c.194.387.508.701.895.895l6 3a2.002 2.002 0 001.789-3.58l-5.404-2.702-2.702-5.404a2 2 0 00-.657-.754C25.804 10.126 23.964 9 20 9z" fill="#ba9b48"></path><circle cx="20" cy="4.5" r="3" fill="#ffeea3"></circle><path d="M20 2c1.378 0 2.5 1.122 2.5 2.5S21.378 7 20 7s-2.5-1.122-2.5-2.5S18.622 2 20 2m0-1a3.5 3.5 0 10-.001 6.999A3.5 3.5 0 0020 1z" fill="#ba9b48"></path><path fill="#66798f" d="M11 38h18v1H11z"></path><g><path d="M20 28.5l-4.267 2.276-6.341-3.229a1.604 1.604 0 01-.893-1.521c.031-.586.393-1.093 1.139-1.596l4.861-3.159v-4.917l-1.158 2.316a1.378 1.378 0 01-.271.369l-2.01-2.515 2.598-5.196c.113-.227.284-.422.493-.565.307-.21 2.031-1.263 5.849-1.263s5.542 1.053 5.849 1.264c.209.144.379.339.493.566l2.598 5.196-2.01 2.515a1.378 1.378 0 01-.271-.369L25.5 16.354v4.915l4.787 3.164c.593.344 1.181.959 1.214 1.594a1.604 1.604 0 01-.889 1.519l-6.345 3.23L20 28.5z" fill="#f78f8f"></path><path d="M20 10c3.748 0 5.391 1.055 5.566 1.176.139.096.253.226.329.377l2.455 4.91-1.376 1.721-.079-.158L25 14.237v7.301l.449.297 4.563 3.016.025.017.026.015c.524.303.919.796.939 1.171.023.437-.217.847-.621 1.048l-6.109 3.111-3.801-2.027-.471-.253-.471.251-3.801 2.027-6.117-3.115a1.1 1.1 0 01-.612-1.043c.014-.262.124-.672.906-1.199l4.641-3.016.454-.295v-7.306l-1.894 3.789-.079.158-1.376-1.721 2.454-4.909c.076-.152.19-.282.329-.378C14.609 11.055 16.252 10 20 10m0-1c-3.964 0-5.804 1.126-6.132 1.352a2.008 2.008 0 00-.657.754l-2.702 5.404-.073.036 2.544 3.182c.344-.196.631-.478.809-.833l.211-.422V21l-4.641 3.016C8.594 24.531 8.044 25.165 8 26a2.104 2.104 0 001.166 1.992l6.573 3.347.011-.006L20 29.067l4.25 2.267.011.006 6.573-3.347A2.106 2.106 0 0032 26c-.044-.835-.734-1.578-1.438-1.984L26 21v-2.527l.211.422c.178.355.465.637.809.833l2.544-3.182-.073-.036-2.702-5.404a2 2 0 00-.657-.754C25.804 10.126 23.964 9 20 9z" fill="#c74343"></path></g><path fill="#c74343" d="M24.411 30.255l-.028-.053-3.399-1.749L26.257 26H24l-4.143 1.9-3.6-1.9H14l9.297 4.813z"></path></svg>