<svg viewBox="0 0 40 40" xmlns="http://www.w3.org/2000/svg"><path d="M1 33h38v-7.123c-1.308-.263-2.852-.877-4-.877-1.458 0-3.563 1-5 1-1.438 0-3.542-1-5-1s-3.563 1-5 1c-1.438 0-3.542-1-5-1s-3.563 1-5 1c-1.438 0-3.542-1-5-1-1.148 0-2.692.614-4 .877V33z" fill="#8bb7f0"></path><path d="M35 25c-1.458 0-3.563 1-5 1-1.438 0-3.542-1-5-1s-3.563 1-5 1c-1.438 0-3.542-1-5-1s-3.563 1-5 1c-1.438 0-3.542-1-5-1-1.148 0-2.692.614-4 .877V26.9c.574-.103 1.17-.271 1.754-.435C3.566 26.237 4.406 26 5 26s1.434.237 2.246.465c.934.263 1.9.535 2.754.535s1.82-.272 2.754-.535C13.566 26.237 14.406 26 15 26s1.434.237 2.246.465c.934.263 1.9.535 2.754.535s1.82-.272 2.754-.535C23.566 26.237 24.406 26 25 26s1.434.237 2.246.465c.934.263 1.9.535 2.754.535s1.82-.272 2.754-.535C33.566 26.237 34.406 26 35 26s1.434.237 2.246.465c.584.165 1.18.332 1.754.435v-1.023c-1.308-.263-2.852-.877-4-.877z" fill="#4e7ab5"></path><path fill="#e1ebf2" d="M12.5 1.5h15v6h-15z"></path><path d="M27 2v5H13V2h14m1-1H12v7h16V1z" fill="#788b9c"></path><path fill="#e1ebf2" d="M6.5 4.5h27v34h-27z"></path><path d="M33 5v33H7V5h26m1-1H6v35h28V4z" fill="#788b9c"></path><path fill="#8bb7f0" d="M17.5 26.5h5v2h-5z"></path><path d="M22 27v1h-4v-1h4m1-1h-6v3h6v-3z" fill="#4e7ab5"></path><path fill="#8bb7f0" d="M17.5 20.5h5v2h-5z"></path><path d="M22 21v1h-4v-1h4m1-1h-6v3h6v-3z" fill="#4e7ab5"></path><path fill="#8bb7f0" d="M17.5 14.5h5v2h-5z"></path><path d="M22 15v1h-4v-1h4m1-1h-6v3h6v-3z" fill="#4e7ab5"></path><path fill="#8bb7f0" d="M17.5 8.5h5v2h-5z"></path><path d="M22 9v1h-4V9h4m1-1h-6v3h6V8z" fill="#4e7ab5"></path><path fill="#8bb7f0" d="M25.5 26.5h5v2h-5z"></path><path d="M30 27v1h-4v-1h4m1-1h-6v3h6v-3z" fill="#4e7ab5"></path><path fill="#8bb7f0" d="M25.5 20.5h5v2h-5z"></path><path d="M30 21v1h-4v-1h4m1-1h-6v3h6v-3z" fill="#4e7ab5"></path><g><path fill="#8bb7f0" d="M25.5 14.5h5v2h-5z"></path><path d="M30 15v1h-4v-1h4m1-1h-6v3h6v-3z" fill="#4e7ab5"></path></g><g><path fill="#8bb7f0" d="M25.5 8.5h5v2h-5z"></path><path d="M30 9v1h-4V9h4m1-1h-6v3h6V8z" fill="#4e7ab5"></path></g><g><path fill="#8bb7f0" d="M9.5 26.5h5v2h-5z"></path><path d="M14 27v1h-4v-1h4m1-1H9v3h6v-3z" fill="#4e7ab5"></path></g><g><path fill="#8bb7f0" d="M9.5 20.5h5v2h-5z"></path><path d="M14 21v1h-4v-1h4m1-1H9v3h6v-3z" fill="#4e7ab5"></path></g><g><path fill="#8bb7f0" d="M9.5 14.5h5v2h-5z"></path><path d="M14 15v1h-4v-1h4m1-1H9v3h6v-3z" fill="#4e7ab5"></path></g><g><path fill="#8bb7f0" d="M9.5 8.5h5v2h-5z"></path><path d="M14 9v1h-4V9h4m1-1H9v3h6V8z" fill="#4e7ab5"></path></g><path d="M1 39h38v-7.123c-1.308-.263-2.852-.877-4-.877-1.458 0-3.563 1-5 1-1.438 0-3.542-1-5-1s-3.563 1-5 1c-1.438 0-3.542-1-5-1s-3.563 1-5 1c-1.438 0-3.542-1-5-1-1.148 0-2.692.614-4 .877V39z" fill="#8bb7f0"></path><g><path d="M35 31c-1.458 0-3.563 1-5 1-1.438 0-3.542-1-5-1s-3.563 1-5 1c-1.438 0-3.542-1-5-1s-3.563 1-5 1c-1.438 0-3.542-1-5-1-1.148 0-2.692.614-4 .877V32.9c.574-.103 1.17-.271 1.754-.435C3.566 32.237 4.406 32 5 32s1.434.237 2.246.465c.934.263 1.9.535 2.754.535s1.82-.272 2.754-.535C13.566 32.237 14.406 32 15 32s1.434.237 2.246.465c.934.263 1.9.535 2.754.535s1.82-.272 2.754-.535C23.566 32.237 24.406 32 25 32s1.434.237 2.246.465c.934.263 1.9.535 2.754.535s1.82-.272 2.754-.535C33.566 32.237 34.406 32 35 32s1.434.237 2.246.465c.584.165 1.18.332 1.754.435v-1.023c-1.308-.263-2.852-.877-4-.877z" fill="#4e7ab5"></path></g></svg>