<svg viewBox="0 0 40 40" xmlns="http://www.w3.org/2000/svg"><path fill="#bae0bd" d="M29.5 28.5h8v10h-8z"></path><path d="M37 29v9h-7v-9h7m1-1h-9v11h9V28z" fill="#5e9c76"></path><path fill="#bae0bd" d="M1.5 28.5h8v10h-8z"></path><path d="M9 29v9H2v-9h7m1-1H1v11h9V28z" fill="#5e9c76"></path><path fill="#bae0bd" d="M15.5 28.5h8v10h-8z"></path><path d="M23 29v9h-7v-9h7m1-1h-9v11h9V28z" fill="#5e9c76"></path><g><path fill="#8bb7f0" d="M12.5 1.5h14v10h-14z"></path><path d="M26 2v9H13V2h13m1-1H12v11h15V1z" fill="#4e7ab5"></path></g><path fill="#66798f" d="M6 28v-8h27v8h1v-9H5v9z"></path><path fill="#66798f" d="M19 12h1v16h-1z"></path></svg>