<svg viewBox="0 0 40 40" xmlns="http://www.w3.org/2000/svg"><path fill="#f78f8f" d="M6.5 37.5v-35h18.293l8.707 8.707V37.5z"></path><path d="M24.586 3L33 11.414V37H7V3h17.586M25 2H6v36h28V11l-9-9z" fill="#c74343"></path><path fill="#fff" d="M24.5 11.5v-9h.293l8.707 8.707v.293z"></path><path d="M25 3.414L32.586 11H25V3.414M25 2h-1v10h10v-1l-9-9z" fill="#c74343"></path><path d="M12.415 17.814h3.809v1.482h-2.106v2.249h1.976v1.417h-1.976v3.614h-1.703v-8.762zM18.096 17.814h1.703v7.319h2.236v1.443h-3.939v-8.762zM24.115 26.576l-1.95-8.762h1.885l.624 3.783c.143.949.325 2.015.442 3.042h.026c.117-1.04.26-2.093.416-3.081l.598-3.744h1.872l-2.002 8.762h-1.911z" fill="#fff"></path></svg>