<svg viewBox="0 0 40 40" xmlns="http://www.w3.org/2000/svg"><ellipse cx="20" cy="25.5" rx="6" ry="12.5" fill="#7a4f34"/><g fill="none" stroke="#7a4f34" stroke-linecap="round" stroke-miterlimit="10"><path d="M5.5 8.5l3 7L18 18M13.5 2.5l-2 7L17 17M3.5 31.5c0-5.525 7.469-12.281 14.118-14.382M34.5 8.5l-3 7L22 18M26.5 2.5l2 7L23 17M36.5 31.5c0-5.525-7.469-12.281-14.118-14.382"></path></g><path d="M11 36.5c-1.353 0-4.5-.438-4.5-4.5 0-6.379 7.535-16.5 10.5-16.5.953 0 1.5 1.64 1.5 4.5v8c0 4.787-4.031 8.5-7.5 8.5z" fill="#c2e8ff"></path><path d="M17 16c.402 0 1 1.065 1 4v8c0 4.431-3.829 8-7 8-1.494 0-4-.52-4-4 0-5.9 7.376-16 10-16m0-1C13.54 15 6 25.75 6 32c0 3.55 2.313 5 5 5 3.906 0 8-4.156 8-9v-8c0-3.273-.688-5-2-5z" fill="#7496c4"></path><path d="M29 36.5c-3.469 0-7.5-3.713-7.5-8.5v-8c0-2.86.547-4.5 1.5-4.5 2.965 0 10.5 10.121 10.5 16.5 0 4.062-3.147 4.5-4.5 4.5z" fill="#c2e8ff"></path><path d="M23 16c2.624 0 10 10.1 10 16 0 3.48-2.506 4-4 4-3.171 0-7-3.569-7-8v-8c0-2.935.598-4 1-4m0-1c-1.312 0-2 1.727-2 5v8c0 4.844 4.094 9 8 9 2.688 0 5-1.45 5-5 0-6.25-7.54-17-11-17z" fill="#7496c4"></path><ellipse cx="20" cy="16.5" rx="4.5" ry="6" fill="#a6714e"/><path d="M20 11c2.206 0 4 2.467 4 5.5S22.206 22 20 22s-4-2.467-4-5.5 1.794-5.5 4-5.5m0-1c-2.761 0-5 2.91-5 6.5s2.239 6.5 5 6.5 5-2.91 5-6.5-2.239-6.5-5-6.5z" fill="#7a4f34"></path><ellipse cx="20" cy="6.5" rx="2" ry="3.5" fill="#7a4f34"/><path fill="#7a4f34" d="M18 5h4v9h-4z"></path><g><path d="M22 13.5c-1.354 0-1.5-2.085-1.5-2.981 0-3.33.505-5.019 1.5-5.019 1.133 0 2.5 2.007 2.5 4.5 0 1.307-.325 3.5-2.5 3.5z" fill="#f78f8f"></path><path d="M22 6c.687 0 2 1.558 2 4 0 1.369-.347 3-2 3-.737 0-1-1.282-1-2.482C21 6.127 21.898 6 22 6m0-1c-1.917 0-2 3.698-2 5.518 0 2.371.814 3.482 2 3.482 2.22 0 3-1.931 3-4 0-2.802-1.571-5-3-5z" fill="#7a4f34"></path></g><g><path d="M18 13.5c-2.175 0-2.5-2.193-2.5-3.5 0-2.493 1.367-4.5 2.5-4.5.995 0 1.5 1.688 1.5 5.019 0 .896-.146 2.981-1.5 2.981z" fill="#f78f8f"></path><path d="M18 6c.102 0 1 .127 1 4.518 0 1.2-.263 2.482-1 2.482-1.653 0-2-1.631-2-3 0-2.442 1.313-4 2-4m0-1c-1.429 0-3 2.198-3 5 0 2.069.78 4 3 4 1.186 0 2-1.111 2-3.482C20 8.698 19.917 5 18 5z" fill="#7a4f34"></path></g></svg>