<svg viewBox="0 0 40 40" xmlns="http://www.w3.org/2000/svg"><circle cx="31" cy="28" r="2.5" fill="#ffc49c"></circle><path d="M31 26c1.103 0 2 .897 2 2s-.897 2-2 2-2-.897-2-2 .897-2 2-2m0-1a3 3 0 100 6 3 3 0 000-6z" fill="#a16a4a"></path><path d="M34.289 34.498c-1.616 0-3.119-1.059-3.83-2.697-.744-1.711.285-2.838 2.895-5.447C34.878 24.828 35.5 22.697 35.5 19l.002-2.431c.004-3.02.01-7.702 0-10.069h1.028c.186 2.851.583 6.67.968 10.37.524 5.044 1.02 9.809 1.002 12.126-.016 2.028-.39 3.339-1.176 4.125-.9.901-1.95 1.377-3.035 1.377z" fill="#fff"></path><path d="M36.063 7c.197 2.8.573 6.411.937 9.915.5 4.812 1.018 9.787 1 12.078-.014 1.863-.351 3.098-1.029 3.776-.805.805-1.732 1.23-2.682 1.23-1.416 0-2.74-.941-3.372-2.397-.575-1.323.056-2.161 2.79-4.895C35.335 25.078 36 22.846 36 19l.002-2.43c.003-2.735.009-7.069.002-9.57h.059M37 6h-2c.017 2.858 0 11.125 0 13 0 3.627-.608 5.608-2 7-2.545 2.545-3.896 3.938-3 6 .788 1.814 2.47 2.998 4.289 2.998 1.137 0 2.328-.463 3.389-1.523.956-.956 1.306-2.502 1.322-4.475.032-4.2-1.615-16.478-2-23zM12 7c-1.833 1.979-3 4.891-3 8 0 5.996 4.753 11 10 11 1.499 0 2.825-.203 4-.561 5.141-1.567 3.67-7.292 3-7.282-5.31.074-10.742-4.268-14-11.157z" fill="#788b9c"></path><path d="M11 15c0-2.367.679-4.615 1.81-6.429A27.244 27.244 0 0112 7c-1.833 1.979-3 4.891-3 8 0 5.996 4.753 11 10 11 .39 0 .757-.025 1.124-.052C15.236 25.431 11 20.66 11 15z" fill="#36404d"></path><path fill="#ffc49c" d="M28.5 6.5h7.662L28.5 9.286z"></path><path d="M33.324 7L29 8.572V7h4.324M39 6H28v4l11-4z" fill="#a16a4a"></path><path d="M3.585 32.5c4.903-2.244 9.048-5.224 9.004-10.695 1.215 1.119 2.241 1.61 3.301 1.61.932 0 1.787-.379 2.778-.819.455-.202.949-.421 1.506-.627C23.853 20.606 24.5 16.379 24.5 8v-.138l-.07-.119c-.357-.598-.696-1.175-.991-1.678-.261-.443-.458-.779-.609-1.033l.248-.039 3.97-.464a2.94 2.94 0 01.419-.03c1.45 0 2.742 1.093 2.939 2.488.214 1.515-.827 2.784-2.476 3.017l-.43.061V19.5c0 8.505-6.052 13-17.5 13H3.585z" fill="#fff"></path><path d="M27.465 5c1.208 0 2.282.904 2.445 2.058.086.605-.066 1.16-.437 1.606-.377.452-.949.752-1.613.846l-.86.121V19.5C27 27.678 21.121 32 10 32H5.778c3.25-1.733 6.808-4.511 7.259-9.168.994.747 1.903 1.083 2.852 1.083 1.038 0 1.938-.399 2.981-.862.462-.205.939-.416 1.477-.615C24.304 20.972 25 16.615 25 8v-.276l-.141-.237c-.353-.592-.689-1.164-.982-1.662l-.232-.394 3.484-.408c.111-.015.224-.023.336-.023m0-1c-.158 0-.316.011-.476.033L23 4.5l-1 .156c.161.192 1.012 1.687 2 3.344 0 8.292-.625 12.25-4 13.5-1.739.644-2.885 1.415-4.111 1.415-1.081 0-2.223-.6-3.889-2.415.869 6.929-4.981 10.043-10.163 12.219-.27.113-.561.193-.837.281h9c13.289 0 18-5.923 18-13.5v-9c1.848-.261 3.161-1.734 2.9-3.582C30.661 5.229 29.136 4 27.465 4z" fill="#788b9c"></path><circle cx="28" cy="7" r="1" fill="#36404d"></circle><g><path d="M11 28.5c-5.061 0-9.5-4.907-9.5-10.5 0-2.634.861-5.179 2.385-7.098 3.363 6.654 8.669 10.755 13.981 10.755.758 0 1.514-.086 2.247-.257a8.061 8.061 0 002.524-1.05C20.628 24.613 17.51 28.5 11 28.5z" fill="#b6c9d6"></path><path d="M3.814 11.846c3.463 6.4 8.745 10.311 14.051 10.311.796 0 1.59-.091 2.361-.27a8.938 8.938 0 001.267-.394C19.531 25.041 16.54 28 11 28c-4.794 0-9-4.673-9-10 0-2.242.65-4.413 1.814-6.154M4 10c-1.833 1.979-3 4.891-3 8 0 5.996 4.753 11 10 11 8.058 0 11.088-5.865 12.838-10.146-.438.184-1.463 1.508-3.838 2.06a9.41 9.41 0 01-2.134.244C12.599 21.157 7.231 16.831 4 10z" fill="#788b9c"></path></g><g><path d="M3 18c0-2.367.679-4.615 1.81-6.429A27.244 27.244 0 014 10c-1.833 1.979-3 4.891-3 8 0 5.996 4.753 11 10 11 .39 0 .757-.025 1.124-.052C7.236 28.431 3 23.66 3 18z" fill="#36404d"></path></g></svg>