<svg viewBox="0 0 40 40" xmlns="http://www.w3.org/2000/svg"><path d="M31.061 34.945l-2.86-1.558A28.832 28.832 0 0031.5 20c0-4.608-1.056-9.011-3.139-13.085a7.53 7.53 0 00-.159-.294l3.543-1.862a32.99 32.99 0 01.011 30.545l-.695-.359z" fill="#dcd5f2"></path><path d="M31.531 5.435A32.498 32.498 0 0135 20.042a32.505 32.505 0 01-3.46 14.588l-.229-.118-2.442-1.33A29.34 29.34 0 0032 20c0-4.634-1.05-9.065-3.122-13.171l2.653-1.394m.421-1.351l-4.438 2.334c.133.242.276.478.402.725A28.162 28.162 0 0131 20a28.15 28.15 0 01-3.475 13.589l3.307 1.801 1.133.583A33.271 33.271 0 0036 20.042a33.281 33.281 0 00-4.048-15.958z" fill="#8b75a1"></path><path d="M18.62 28.547c-.824-1.675-2.12-4.89-2.12-8.547s1.295-6.872 2.12-8.547l3.417-1.757C22.917 11.707 24.5 15.895 24.5 20c0 4.158-1.681 8.504-2.465 10.304l-3.415-1.757z" fill="#dcd5f2"></path><path d="M21.786 10.387C22.611 12.373 24 16.273 24 20c0 3.727-1.389 7.627-2.214 9.613l-2.789-1.435C18.191 26.508 17 23.453 17 20s1.191-6.508 1.996-8.179l2.79-1.434m.49-1.377l-4.031 2.073C17.357 12.851 16 16.166 16 20c0 3.834 1.357 7.149 2.245 8.917l4.031 2.073C23.014 29.382 25 24.627 25 20s-1.986-9.382-2.724-10.99z" fill="#8b75a1"></path><path fill="none" stroke="#36404d" stroke-miterlimit="10" d="M37 38L2 20 37 2"></path></svg>