<svg viewBox="0 0 40 40" xmlns="http://www.w3.org/2000/svg"><path d="M24.5 29.5c-5.728 0-10.85-3.534-12.96-8.766A10.956 10.956 0 0017.5 22.5c6.065 0 11-4.935 11-11a10.97 10.97 0 00-6.075-9.836A13.466 13.466 0 0124.5 1.5c7.72 0 14 6.28 14 14s-6.28 14-14 14z" fill="#ffeea3"></path><path d="M24.5 2C31.944 2 38 8.056 38 15.5S31.944 29 24.5 29c-5.006 0-9.531-2.799-11.85-7.08A11.437 11.437 0 0017.5 23C23.841 23 29 17.841 29 11.5a11.47 11.47 0 00-5.001-9.49c.168-.007.335-.01.501-.01m0-1c-1.291 0-2.536.185-3.727.501.311.1.56.202.765.306C25.332 3.389 28 7.132 28 11.5 28 17.299 23.299 22 17.5 22a10.448 10.448 0 01-6.955-2.649C12.235 25.485 17.829 30 24.5 30 32.508 30 39 23.508 39 15.5S32.508 1 24.5 1z" fill="#f5c276"></path><path fill="#ffeea3" d="M5.52 9.479L2.581 8.5l2.939-.98.98-2.939.979 2.939 2.94.98-2.94.979-.979 2.94z"></path><path d="M6.5 6.162l.426 1.279.158.474.474.158 1.28.427-1.279.426-.475.158-.158.475-.426 1.279-.426-1.279-.158-.475-.475-.158L4.162 8.5l1.279-.426.474-.158.158-.474.427-1.28M6.5 3L5.125 7.125 1 8.5l4.125 1.375L6.5 14l1.375-4.125L12 8.5 7.875 7.125 6.5 3z" fill="#f5c276"></path><path fill="#ffeea3" d="M17.082 9.914l-1.064-.355 1.064-.354.355-1.065.354 1.065 1.065.354-1.065.355-.354 1.064z"></path><path fill="#f5c276" d="M17.437 6.559l-.75 2.25-2.25.75 2.25.75.75 2.25.75-2.25 2.25-.75-2.25-.75-.75-2.25z"></path><g><path d="M36.5 34h-2.015c.318-.42.515-.936.515-1.5 0-1.375-1.125-2.5-2.5-2.5h-6.015c.318-.42.515-.936.515-1.5s-.197-1.08-.515-1.5h.015c1.375 0 2.5-1.125 2.5-2.5S27.875 22 26.5 22h-9.015c.318-.42.515-.936.515-1.5 0-1.375-1.125-2.5-2.5-2.5h-12C2.125 18 1 19.125 1 20.5S2.125 23 3.5 23h1.015c-.318.42-.515.936-.515 1.5 0 .639.25 1.217.647 1.66A2.503 2.503 0 003 28.5c0 .564.197 1.08.515 1.5H3.5C2.125 30 1 31.125 1 32.5S2.125 35 3.5 35h4.015c-.318.42-.515.936-.515 1.5C7 37.875 8.125 39 9.5 39h27c1.375 0 2.5-1.125 2.5-2.5S37.875 34 36.5 34z" fill="#dcd5f2"></path></g><g><path d="M10.545 19.351C12.235 25.485 17.829 30 24.5 30c.709 0 1.404-.055 2.085-.155.255-.39.415-.847.415-1.345 0-.564-.197-1.08-.515-1.5h.015c1.375 0 2.5-1.125 2.5-2.5S27.875 22 26.5 22h-9.015v-.001a10.444 10.444 0 01-6.94-2.648z" fill="#f7f5ff"></path></g><path d="M36.5 34h-2.015c.318-.42.515-.936.515-1.5 0-1.375-1.125-2.5-2.5-2.5h-6.015c.318-.42.515-.936.515-1.5s-.197-1.08-.515-1.5h.015c1.375 0 2.5-1.125 2.5-2.5S27.875 22 26.5 22h-9.015c.318-.42.515-.936.515-1.5 0-1.375-1.125-2.5-2.5-2.5h-12C2.125 18 1 19.125 1 20.5S2.125 23 3.5 23h1.015c-.318.42-.515.936-.515 1.5 0 .639.25 1.217.647 1.66A2.503 2.503 0 003 28.5c0 .564.197 1.08.515 1.5H3.5C2.125 30 1 31.125 1 32.5S2.125 35 3.5 35h4.015c-.318.42-.515.936-.515 1.5C7 37.875 8.125 39 9.5 39h27c1.375 0 2.5-1.125 2.5-2.5S37.875 34 36.5 34zm0 4h-27c-.827 0-1.5-.673-1.5-1.5S8.673 35 9.5 35h.5v-1H3.5c-.827 0-1.5-.673-1.5-1.5S2.673 31 3.5 31H6v-1h-.5c-.827 0-1.5-.673-1.5-1.5S4.673 27 5.5 27H7v-1h-.5c-.827 0-1.5-.673-1.5-1.5S5.673 23 6.5 23H7v-1H3.5c-.827 0-1.5-.673-1.5-1.5S2.673 19 3.5 19h12c.827 0 1.5.673 1.5 1.5s-.673 1.5-1.5 1.5H15v1h11.5c.827 0 1.5.673 1.5 1.5s-.673 1.5-1.5 1.5H24v1h.5c.827 0 1.5.673 1.5 1.5s-.673 1.5-1.5 1.5H24v1h8.5c.827 0 1.5.673 1.5 1.5s-.673 1.5-1.5 1.5H32v1h4.5c.827 0 1.5.673 1.5 1.5s-.673 1.5-1.5 1.5z" fill="#a693bc"></path></svg>