<svg viewBox="0 0 40 40" xmlns="http://www.w3.org/2000/svg"><path d="M17.844 33.57l-.248-.043a13.63 13.63 0 01-2.277-.612l-.236-.085-4.024 2.657.288-4.804-.192-.162a13.89 13.89 0 01-1.676-1.676l-.162-.192-4.804.288 2.657-4.024-.085-.237a13.717 13.717 0 01-.612-2.276l-.043-.248L2.118 20l4.312-2.156.043-.248c.135-.763.34-1.529.612-2.277l.085-.236-2.657-4.024 4.804.288.162-.192a13.89 13.89 0 011.676-1.676l.192-.162-.288-4.804 4.024 2.657.236-.085a13.728 13.728 0 012.277-.612l.248-.043L20 2.118l2.156 4.312.248.043c.763.135 1.529.34 2.277.612l.236.085 4.024-2.657-.288 4.804.192.162a13.89 13.89 0 011.676 1.676l.162.192 4.804-.288-2.657 4.024.085.236c.271.748.477 1.514.612 2.277l.043.248L37.882 20l-4.312 2.156-.043.248a13.69 13.69 0 01-.612 2.276l-.085.236 2.657 4.024-4.804-.288-.162.192a13.89 13.89 0 01-1.676 1.676l-.192.162.288 4.804-4.024-2.657-.236.085c-.748.271-1.514.477-2.277.612l-.248.043L20 37.882l-2.156-4.312z" fill="#ffeea3"></path><path d="M20 3.236l1.596 3.192.225.45.495.088c.736.13 1.474.328 2.193.589l.472.171.419-.277 2.98-1.968-.213 3.555-.03.502.384.324a13.317 13.317 0 011.615 1.615l.323.384.501-.03 3.555-.213-1.968 2.98-.277.419.171.472c.261.719.459 1.457.589 2.193l.088.495.45.225L36.764 20l-3.192 1.596-.45.225-.088.495c-.13.736-.328 1.474-.589 2.193l-.171.472.277.419 1.968 2.98-3.555-.213-.502-.03-.324.384a13.389 13.389 0 01-1.615 1.615l-.384.324.03.501.213 3.555-2.98-1.968-.419-.277-.472.171c-.719.261-1.457.459-2.193.589l-.495.088-.225.45L20 36.764l-1.596-3.192-.225-.45-.495-.088a13.152 13.152 0 01-2.193-.589l-.472-.171-.419.277-2.98 1.968.213-3.555.03-.501-.384-.324a13.389 13.389 0 01-1.615-1.615l-.324-.384-.502.03-3.555.213 1.968-2.98.277-.419-.173-.474a13.152 13.152 0 01-.589-2.193l-.088-.495-.45-.225L3.236 20l3.192-1.596.45-.225.088-.495c.13-.736.328-1.474.589-2.193l.171-.472-.276-.421-1.968-2.98 3.555.213.501.03.324-.384a13.389 13.389 0 011.615-1.615l.384-.324-.03-.502-.213-3.555 2.98 1.968.419.277.472-.171a13.152 13.152 0 012.193-.589l.495-.088.225-.45L20 3.236M20 1l-2.491 4.981c-.814.144-1.601.358-2.36.634L10.5 3.545l.333 5.552a14.376 14.376 0 00-1.736 1.736L3.546 10.5l3.07 4.649c-.275.76-.49 1.547-.634 2.36L1 20l4.981 2.491c.144.814.358 1.601.634 2.36L3.546 29.5l5.552-.333a14.376 14.376 0 001.736 1.736l-.334 5.551 4.649-3.07c.76.276 1.547.49 2.36.634L20 39l2.491-4.981a14.069 14.069 0 002.36-.634l4.649 3.07-.333-5.552a14.376 14.376 0 001.736-1.736l5.552.333-3.07-4.649c.275-.76.49-1.547.634-2.36L39 20l-4.981-2.491a14.069 14.069 0 00-.634-2.36l3.07-4.649-5.552.333a14.376 14.376 0 00-1.736-1.736l.333-5.552-4.649 3.07a14.12 14.12 0 00-2.36-.634L20 1z" fill="#ba9b48"></path><circle cx="20" cy="20" r="10" fill="#f5ce85"></circle><path d="M36.5 34h-2.015c.318-.42.515-.936.515-1.5 0-1.375-1.125-2.5-2.5-2.5h-6.015c.318-.42.515-.936.515-1.5s-.197-1.08-.515-1.5h.015c1.375 0 2.5-1.125 2.5-2.5S27.875 22 26.5 22h-9.015c.318-.42.515-.936.515-1.5 0-1.375-1.125-2.5-2.5-2.5h-12C2.125 18 1 19.125 1 20.5S2.125 23 3.5 23h1.015c-.318.42-.515.936-.515 1.5 0 .639.25 1.217.647 1.66A2.503 2.503 0 003 28.5c0 .564.197 1.08.515 1.5H3.5C2.125 30 1 31.125 1 32.5S2.125 35 3.5 35h4.015c-.318.42-.515.936-.515 1.5C7 37.875 8.125 39 9.5 39h27c1.375 0 2.5-1.125 2.5-2.5S37.875 34 36.5 34z" fill="#e1ebf2"></path><path d="M20 30a9.949 9.949 0 006.724-2.614 2.673 2.673 0 00-.239-.386h.015c.264 0 .514-.053.753-.129a10.016 10.016 0 001.733-2.505A2.501 2.501 0 0026.5 22h-9.015c.318-.42.515-.936.515-1.5 0-1.375-1.125-2.5-2.5-2.5h-5.299A10.057 10.057 0 0010 20c0 5.523 4.477 10 10 10z" fill="#f2faff"></path><path d="M36.5 34h-2.015c.318-.42.515-.936.515-1.5 0-1.375-1.125-2.5-2.5-2.5h-6.015c.318-.42.515-.936.515-1.5s-.197-1.08-.515-1.5h.015c1.375 0 2.5-1.125 2.5-2.5S27.875 22 26.5 22h-9.015c.318-.42.515-.936.515-1.5 0-1.375-1.125-2.5-2.5-2.5h-12C2.125 18 1 19.125 1 20.5S2.125 23 3.5 23h1.015c-.318.42-.515.936-.515 1.5 0 .639.25 1.217.647 1.66A2.503 2.503 0 003 28.5c0 .564.197 1.08.515 1.5H3.5C2.125 30 1 31.125 1 32.5S2.125 35 3.5 35h4.015c-.318.42-.515.936-.515 1.5C7 37.875 8.125 39 9.5 39h27c1.375 0 2.5-1.125 2.5-2.5S37.875 34 36.5 34zm0 4h-27c-.827 0-1.5-.673-1.5-1.5S8.673 35 9.5 35h.5v-1H3.5c-.827 0-1.5-.673-1.5-1.5S2.673 31 3.5 31H6v-1h-.5c-.827 0-1.5-.673-1.5-1.5S4.673 27 5.5 27H7v-1h-.5c-.827 0-1.5-.673-1.5-1.5S5.673 23 6.5 23H7v-1H3.5c-.827 0-1.5-.673-1.5-1.5S2.673 19 3.5 19h12c.827 0 1.5.673 1.5 1.5s-.673 1.5-1.5 1.5H15v1h11.5c.827 0 1.5.673 1.5 1.5s-.673 1.5-1.5 1.5H24v1h.5c.827 0 1.5.673 1.5 1.5s-.673 1.5-1.5 1.5H24v1h8.5c.827 0 1.5.673 1.5 1.5s-.673 1.5-1.5 1.5H32v1h4.5c.827 0 1.5.673 1.5 1.5s-.673 1.5-1.5 1.5z" fill="#b0c1d4"></path></svg>