<svg viewBox="0 0 40 40" xmlns="http://www.w3.org/2000/svg"><path d="M4.043 29.206C1.297 28.26-.153 25.287.782 22.567a5.226 5.226 0 016.629-3.233l14.316 4.837 2.408-2.394L38.736 26.5l-17.808 9.655-16.885-6.949z" fill="#e1ebf2"></path><path d="M5.726 19.552c.517 0 1.029.086 1.527.257l14.02 4.737.586.198.439-.436 1.973-1.96 13.2 4.27-16.572 8.985-16.666-6.859-.027-.011-.028-.01a4.679 4.679 0 01-2.696-2.394 4.686 4.686 0 01-.227-3.599 4.725 4.725 0 014.471-3.178m0-1c-2.373 0-4.603 1.492-5.416 3.853-1.023 2.972.571 6.241 3.543 7.264l17.106 7.04L40 26.384l-16-5.176-2.406 2.39-14.02-4.737a5.701 5.701 0 00-1.848-.309z" fill="#788b9c"></path><path d="M7.433 19.343a5.185 5.185 0 00-3.217-.066c2.106-.853 7.756-3.028 11.678-4.524l6.845-2.738.73.731 9.129-3.276a6.723 6.723 0 011.983-.317c2.168 0 3.902 1.276 4.639 3.415.927 2.692-.444 5.483-3.26 6.639l-13.35 5.962-15.177-5.826z" fill="#b6c9d6"></path><path d="M34.582 9.652c1.974 0 3.492 1.122 4.165 3.077.838 2.433-.414 4.962-3.005 6.025l-13.146 5.871-15.017-5.761a5.728 5.728 0 00-.554-.16 1483.39 1483.39 0 019.061-3.49l6.531-2.612.274.274.448.448.597-.214 8.791-3.155a6.212 6.212 0 011.855-.303m0-1c-.679 0-1.4.112-2.153.347l-8.83 3.169-.74-.74-7.143 2.857S3.958 18.771 3.187 19.171l.47.861a4.685 4.685 0 013.597-.223l15.371 5.899 13.525-6.04c3.038-1.246 4.566-4.292 3.543-7.264-.8-2.322-2.683-3.752-5.111-3.752z" fill="#788b9c"></path><g><path d="M1.51 9.958a741.72 741.72 0 015.795-2.095c3.036-1.089 6.177-2.216 8.113-2.948.697-.264 1.487-.397 2.347-.397.896 0 1.871.139 2.985.424l13.647 3.943c-.601.199-1.203.409-1.469.533-3.14 1.475-12.801 5.472-14.2 6.05L1.51 9.958z" fill="#e1ebf2"></path><path d="M17.765 5.017c.852 0 1.788.134 2.831.4l12.181 3.52-.062.028c-3.024 1.42-12.138 5.197-14.01 5.971L3.051 9.926c1.265-.46 2.821-1.018 4.422-1.593 3.039-1.09 6.181-2.218 8.122-2.952.641-.241 1.371-.364 2.17-.364m0-1c-.862 0-1.715.124-2.523.43C11.209 5.97 1.716 9.294 0 10l18.75 6s10.971-4.523 14.391-6.129c.569-.267 2.974-1.01 2.974-1.01L20.874 4.457c-1.012-.259-2.068-.44-3.109-.44z" fill="#788b9c"></path></g></svg>