<svg viewBox="0 0 40 40" xmlns="http://www.w3.org/2000/svg"><path fill="none" stroke="#66798f" stroke-linecap="round" stroke-linejoin="round" stroke-miterlimit="10" d="M34.5 12.357V1.5M37.5 12.357V1.5M28.5 12.357V1.5M31.5 12.357V1.5"></path><path d="M6.5 38.5v-1.155l5.046-1.916h.954v-6.952l-.457-.04C5.042 27.83 2.5 22.859 2.5 19.667 2.5 16.103 4.687 3.896 5.123 1.5h16.754c.435 2.399 2.623 14.619 2.623 18.167 0 3.191-2.542 8.161-9.543 8.771l-.457.04v6.952h.954l5.046 1.916V38.5h-14z" fill="#c2e8ff"></path><path d="M21.46 2C22.024 5.131 24 16.328 24 19.667c0 1.807-.765 3.679-2.099 5.138-1.643 1.796-4.059 2.88-6.987 3.134l-.914.079v7.911h1.362L20 37.69V38H7v-.31l4.638-1.761H13v-7.91l-.914-.079C5.843 27.397 3 23.271 3 19.667 3 16.314 4.976 5.128 5.54 2h15.92m.834-1H4.706S2 15.637 2 19.667c0 3.772 2.964 8.658 10 9.269v5.993h-.545L6 37v2h15v-2l-5.455-2.071H15v-5.994c7.036-.612 10-5.513 10-9.268C25 15.655 22.294 1 22.294 1z" fill="#7496c4"></path><path d="M8.107 17.964L9.464 5.75" fill="none" stroke="#f7fcff" stroke-linecap="round" stroke-miterlimit="10"></path><g><path d="M33 38.5a2.472 2.472 0 01-1.84-.808 2.474 2.474 0 01-.651-1.901l1.041-18.519-.322-.138A4.496 4.496 0 0128.5 13V8.5h.085c.207.582.763 1 1.415 1s1.208-.418 1.415-1h.171c.207.582.763 1 1.415 1s1.208-.418 1.415-1h.171c.207.582.763 1 1.415 1s1.208-.418 1.415-1h.083V13c0 1.8-1.071 3.423-2.728 4.135l-.322.138 1.04 18.504a2.482 2.482 0 01-.65 1.915A2.472 2.472 0 0133 38.5z" fill="#b0c1d4"></path><path d="M34.5 9.322a1.998 1.998 0 002.5.41V13c0 1.6-.952 3.043-2.425 3.675l-.643.276.039.699 1.021 18.183a1.981 1.981 0 01-.521 1.521c-.382.417-.905.646-1.471.646s-1.089-.229-1.472-.646a1.998 1.998 0 01-.519-1.548l1.019-18.155.039-.699-.643-.276A4 4 0 0129 13V9.732a1.998 1.998 0 002.5-.41 1.998 1.998 0 003 0M38 8h-1a1 1 0 01-2 0h-1a1 1 0 01-2 0h-1a1 1 0 01-2 0h-1v5a5 5 0 003.03 4.594l-1.019 18.155a3 3 0 105.978 0L34.97 17.594A5 5 0 0038 13V8z" fill="#66798f"></path></g></svg>