<svg viewBox="0 0 40 40" xmlns="http://www.w3.org/2000/svg"><path d="M7.5 37.5v-.278c0-.944.679-1.77 1.651-2.007C11.875 34.549 13.5 32.974 13.5 31c0-3.579-1.588-14.286-1.989-16.929h6.978C18.087 16.708 16.5 27.372 16.5 31c0 1.977 1.625 3.553 4.346 4.217.974.237 1.654 1.063 1.654 2.009v.274h-15z" fill="#c2e8ff"></path><path d="M17.908 14.571C17.403 17.928 16 27.562 16 31c0 2.223 1.767 3.981 4.728 4.703.681.166 1.161.673 1.255 1.297H8.016c.093-.625.573-1.133 1.254-1.3C12.232 34.977 14 33.22 14 31c0-3.391-1.404-13.064-1.908-16.429h5.816m1.163-1h-8.143S12.999 26.984 12.999 31c0 2.022-1.915 3.227-3.967 3.729C7.859 35.016 7 36.014 7 37.222V38h16v-.774c0-1.209-.86-2.208-2.035-2.494C18.911 34.23 17 33.022 17 31c0-4.073 2.071-17.429 2.071-17.429z" fill="#7496c4"></path><path d="M15 26.5c-9.905 0-13.5-6.213-13.5-10.389C1.5 12.334 3.67 4.384 4.495 1.5h21.01C26.33 4.389 28.5 12.352 28.5 16.111 28.5 20.287 24.905 26.5 15 26.5z" fill="#c2e8ff"></path><path d="M25.127 2C26.553 7.036 28 13.18 28 16.111 28 20.086 24.538 26 15 26S2 20.086 2 16.111C2 13.168 3.447 7.028 4.872 2h20.255m.754-1H4.119C3.439 3.35 1 12.065 1 16.111 1 20.812 5.118 27 15 27s14-6.208 14-10.889C29 12.082 26.56 3.353 25.881 1z" fill="#7496c4"></path><path d="M15 26.5c-9.905 0-13.5-6.213-13.5-10.389 0-1.613.398-4.173 1.184-7.611h24.63c.787 3.446 1.186 6.005 1.186 7.611C28.5 20.287 24.905 26.5 15 26.5z" fill="#f78f8f"></path><path d="M26.914 9C27.626 12.176 28 14.624 28 16.111 28 20.086 24.538 26 15 26S2 20.086 2 16.111C2 14.619 2.374 12.17 3.084 9h23.83m.798-1H2.286C1.599 10.955 1 14.106 1 16.111 1 20.812 5.118 27 15 27s14-6.208 14-10.889c0-1.998-.6-5.152-1.288-8.111z" fill="#c74343"></path><path d="M6.5 16.5l2-11" fill="none" stroke="#f7fcff" stroke-linecap="round" stroke-miterlimit="10"></path><path d="M16.5 38.5v-14h22v2.05c-1.14.232-2 1.242-2 2.45s.86 2.217 2 2.45v7.05h-22z" fill="#ffeea3"></path><path d="M38 25v1.171c-1.164.413-2 1.525-2 2.829s.836 2.416 2 2.829V38H17V25h21m1-1H16v15h23v-8a2 2 0 110-4v-3z" fill="#ba9b48"></path><g><path d="M16.5 24.5v-.403c.236-.542 2.065-4.199 8.913-5.576L38.5 24.325v.175h-22z" fill="#f5ce85"></path><path d="M25.356 19.043L36.533 24H17.099c.513-.957 2.47-3.752 8.257-4.957M25.471 18C17.551 19.536 16 24 16 24v1h23v-1l-13.529-6z" fill="#967a44"></path></g><g><circle cx="31" cy="34" r="2.5" fill="#f5ce85"></circle><path d="M31 32c1.103 0 2 .897 2 2s-.897 2-2 2-2-.897-2-2 .897-2 2-2m0-1a3 3 0 100 6 3 3 0 000-6z" fill="#ba9b48"></path></g><g><circle cx="21.5" cy="31.5" r="2" fill="#f5ce85"></circle><path d="M21.5 30c.827 0 1.5.673 1.5 1.5s-.673 1.5-1.5 1.5-1.5-.673-1.5-1.5.673-1.5 1.5-1.5m0-1a2.5 2.5 0 100 5 2.5 2.5 0 000-5z" fill="#ba9b48"></path></g><g><circle cx="27.5" cy="27.5" r="1" fill="#f5ce85"></circle><path d="M27.5 27a.5.5 0 110 1 .5.5 0 010-1m0-1a1.5 1.5 0 10.001 3.001A1.5 1.5 0 0027.5 26z" fill="#ba9b48"></path></g></svg>