<svg viewBox="0 0 40 40" xmlns="http://www.w3.org/2000/svg"><path d="M20 38.5C9.799 38.5 1.5 30.201 1.5 20S9.799 1.5 20 1.5 38.5 9.799 38.5 20 30.201 38.5 20 38.5z" fill="#e1ebf2"></path><path d="M20 2c9.925 0 18 8.075 18 18s-8.075 18-18 18S2 29.925 2 20 10.075 2 20 2m0-1C9.507 1 1 9.507 1 20s8.507 19 19 19 19-8.507 19-19S30.493 1 20 1z" fill="#a3b7cc"></path><g fill="none" stroke="#a3b7cc" stroke-linecap="square" stroke-linejoin="round" stroke-miterlimit="10"><path d="M15.929 18.643L6.7 15.25M20 5.75v7.464M18.643 20L11.45 31.4M28.55 31.4l-5.836-8.686M33.3 15.25l-9.229 3.393"></path></g><g><path d="M24.432 36.53l3.898-6.118 6.653-2.397.563 1.981a18.548 18.548 0 01-9.572 7.506l-1.542-.972zm-10.426.965a18.543 18.543 0 01-9.553-7.5l.563-1.981 6.653 2.397 3.798 6.023-1.461 1.061zM15.612 25.5l-2.622-8.016L20 12.609l7.009 4.875-2.621 8.016h-8.776zM1.501 19.794a18.496 18.496 0 014.28-11.609l1.719.248v7.386l-4.534 5.44-1.465-1.465zm30.999-3.98V8.433l1.719-.249a18.495 18.495 0 014.28 11.609l-1.372 1.372-4.627-5.351zM13.681 4.674l1.005-2.376c1.74-.53 3.526-.798 5.314-.798s3.574.268 5.314.798l1.005 2.376L20 6.48l-6.319-1.806z" fill="#839cb2"></path><path d="M20 2c1.662 0 3.324.239 4.946.71l.693 1.639L20 5.96l-5.639-1.611.693-1.639A17.724 17.724 0 0120 2m14.011 6.72a17.996 17.996 0 013.984 10.871l-.842.842L33 15.628V8.866l1.011-.146m-28.022 0L7 8.866v6.772l-4.067 4.881-.928-.929A17.989 17.989 0 015.989 8.72M20 13.218l6.418 4.464L24.025 25h-8.05l-2.393-7.318L20 13.218M5.351 28.667l5.987 2.158 3.457 5.482-.869.631a18.047 18.047 0 01-8.928-7.024l.353-1.247m29.297.001l.354 1.246a18.044 18.044 0 01-8.966 7.037l-.913-.576 3.537-5.55 5.988-2.157M20 1c-1.985 0-3.89.319-5.685.889L13 5l7 2 7-2-1.315-3.111C23.89 1.319 21.985 1 20 1zm14.422 6.65L32 8v8l5.1 5.9L39 20c0-4.721-1.731-9.029-4.578-12.35zm-28.844 0A18.908 18.908 0 001 20l2 2 5-6V8l-2.422-.35zM20 12l-7.6 5.286L15.25 26h9.5l2.85-8.714L20 12zM4.681 27.362l-.77 2.712a19.014 19.014 0 0010.18 7.976l2.048-1.486L12 30l-7.319-2.638zm30.637.001L28 30l-4.26 6.685 2.167 1.367a19.023 19.023 0 0010.18-7.976l-.769-2.713z" fill="#66798f"></path></g></svg>