<svg viewBox="0 0 40 40" xmlns="http://www.w3.org/2000/svg"><path d="M12.999 38.5c-.198 0-.392-.039-.575-.116a1.498 1.498 0 01-.809-1.961l5.852-15.244-.894-.44-4.211 6.895c-.276.549-.791.867-1.364.867a1.502 1.502 0 01-1.34-2.172L15.746 11.5H4c-.827 0-1.5-.673-1.5-1.5S3.173 8.5 4 8.5h13c.199 0 .393.039.577.115l11.93 4.643 5.525-4.403a1.497 1.497 0 012.121.185 1.504 1.504 0 01-.192 2.114l-6.224 4.993a1.51 1.51 0 01-1.544.239l-4.866-1.902-9.94 23.088c-.236.566-.78.928-1.388.928z" fill="#ffeea3"></path><path d="M35.999 9a.998.998 0 01.655 1.757l-6.245 5.011a.999.999 0 01-1.045.147l-4.405-1.722-.9-.352-.382.888-9.753 22.655a1 1 0 11-1.837-.795l5.846-15.231-1.787-.88-4.211 6.895-.022.036-.019.038a.994.994 0 01-1.341.447 1.001 1.001 0 01-.447-1.342l.017-.033.014-.034 5.789-14.105.565-1.38H4c-.551 0-1-.449-1-1s.449-1 1-1h13c.133 0 .262.026.406.086l11.65 4.534.536.209.45-.359 5.317-4.238a.99.99 0 01.64-.232m0-1c-.451 0-.906.152-1.279.464l-5.3 4.224-11.65-4.534A2 2 0 0017 8H4a2 2 0 000 4h11L9.211 26.105a2.001 2.001 0 003.579 1.789L17 21l-5.846 15.231a2 2 0 103.692 1.538l9.749-22.645L29 16.846a2.005 2.005 0 002.05-.309l6.231-5A2 2 0 0035.999 8z" fill="#ba9b48"></path><circle cx="22.5" cy="4.5" r="3" fill="#ffeea3"></circle><path d="M22.5 2C23.879 2 25 3.122 25 4.5S23.879 7 22.5 7 20 5.878 20 4.5 21.121 2 22.5 2m0-1a3.5 3.5 0 100 7 3.5 3.5 0 000-7z" fill="#ba9b48"></path><circle cx="25.5" cy="35.5" r="3" fill="#839cb2"></circle><path d="M25.5 33c1.379 0 2.5 1.121 2.5 2.5S26.879 38 25.5 38 23 36.879 23 35.5s1.121-2.5 2.5-2.5m0-1a3.5 3.5 0 100 7 3.5 3.5 0 100-7z" fill="#66798f"></path><g><path d="M12.764 18.767l2.982-7.267H12.5v-3H17c.199 0 .393.039.577.115l10.814 4.209-1.231 2.766-2.833-1.107-3.272 7.601-8.291-3.317z" fill="#99c99e"></path><path d="M17 9c.133 0 .262.026.406.086L27.72 13.1l-.824 1.851-1.938-.757-.9-.352-.382.888-2.888 6.709-7.371-2.948 2.508-6.11.566-1.381H13V9h4m0-1h-5v4h3l-2.891 7.044 9.212 3.685 3.274-7.604 2.827 1.105 1.638-3.681-11.291-4.395A1.992 1.992 0 0017 8z" fill="#5e9c76"></path></g><g><path fill="#f78f8f" d="M15.129 27.201l1.53-4.721-.77-.447-.31.383-2.4 3.885-2.949-1.361 2.834-6.907 8.142 3.7-2.972 6.901z"></path><path d="M13.33 18.703l7.222 3.283-2.574 5.98-2.236-1.032 1.268-3.915.25-.773-.706-.403-.054-.033-.839-.48-.508.822-2.167 3.509-2.112-.975 2.456-5.983m-.531-1.34l-3.214 7.83 3.786 1.747 2.632-4.262.055.031-1.542 4.759 3.974 1.834 3.368-7.822-9.059-4.117z" fill="#c74343"></path></g></svg>