<svg viewBox="0 0 40 40" xmlns="http://www.w3.org/2000/svg"><path d="M9.5 38.5v-4.812c0-2.813-.996-5.587-2.88-8.022A14.828 14.828 0 013.5 16.51C3.5 7.251 9.251 1.5 18.51 1.5c8.926 0 13.977 4.444 15.014 13.208l.015.128 4.722 6.595c.19.266.228.591.103.893s-.381.505-.703.559l-4.161.694V31c0 1.93-1.57 3.5-3.5 3.5h-4.5v4h-16z" fill="#bae0bd"></path><path d="M18.51 2c8.631 0 13.515 4.295 14.517 12.766l.03.256.15.209 4.648 6.491c.12.167.081.329.047.411s-.121.223-.323.257l-3.743.624-.836.139V31c0 1.654-1.346 3-3 3h-5v4H10v-4.312c0-2.925-1.032-5.804-2.985-8.328A14.335 14.335 0 014 16.51C4 7.56 9.56 2 18.51 2m0-1C8.29 1 3 7.643 3 16.51c0 3.57 1.211 6.86 3.225 9.462C7.948 28.2 9 30.872 9 33.688V39h17v-4h4a4 4 0 004-4v-7l3.743-.624a1.426 1.426 0 00.925-2.236l-4.648-6.491C33.167 7.437 29.367 1 18.51 1z" fill="#5e9c76"></path><path d="M18 26a2 2 0 110 4 2 2 0 110-4zM19 23h-2L16 9a2 2 0 114 0l-1 14z" fill="#fff"></path></svg>