<svg viewBox="0 0 40 40" xmlns="http://www.w3.org/2000/svg"><path d="M9.564 38.5v-4.812c0-2.813-.996-5.587-2.88-8.022a14.83 14.83 0 01-3.12-9.156c0-9.259 5.751-15.01 15.01-15.01 8.926 0 13.977 4.444 15.014 13.208l.015.128 4.722 6.595c.19.266.228.591.103.893a.91.91 0 01-.703.56l-4.161.694V31c0 1.93-1.57 3.5-3.5 3.5h-4.5v4h-16z" fill="#f78f8f"></path><path d="M18.574 2c8.631 0 13.515 4.295 14.517 12.766l.03.256.15.209 4.648 6.491c.12.167.081.329.047.411a.414.414 0 01-.323.257l-3.743.624-.836.139V31c0 1.654-1.346 3-3 3h-5v4h-15v-4.312c0-2.925-1.032-5.804-2.985-8.328a14.333 14.333 0 01-3.015-8.85C4.064 7.56 9.624 2 18.574 2m0-1C8.354 1 3.064 7.643 3.064 16.51c0 3.57 1.211 6.86 3.225 9.462 1.723 2.227 2.775 4.899 2.775 7.716V39h17v-4h4a4 4 0 004-4v-7l3.743-.624a1.426 1.426 0 00.925-2.236l-4.648-6.491C33.231 7.437 29.431 1 18.574 1z" fill="#c74343"></path><g><path d="M27 19c0-.587-.08-1.154-.216-1.699l1.653-1.688-1.286-2.227-2.286.587a6.987 6.987 0 00-2.946-1.701L21.286 10h-2.571l-.634 2.273a6.987 6.987 0 00-2.946 1.701l-2.286-.587-1.286 2.227 1.653 1.688A6.984 6.984 0 0013 19c0 .587.08 1.154.216 1.699l-1.653 1.688 1.286 2.227 2.286-.587a6.987 6.987 0 002.946 1.701L18.714 28h2.571l.634-2.273a6.987 6.987 0 002.946-1.701l2.286.587 1.286-2.227-1.653-1.688A6.984 6.984 0 0027 19zm-4 0a3 3 0 11-6 0 3 3 0 016 0z" fill="#fff"></path></g></svg>