<svg viewBox="0 0 40 40" xmlns="http://www.w3.org/2000/svg"><path fill="#e1ebf2" d="M4.5 37.5V17.024L20.005 5.617 35.5 16.627V37.5z"></path><path d="M20.01 6.234L35 16.885V37H5V17.277L20.01 6.234M20 5L4 16.771V38h32V16.369L20 5z" fill="#788b9c"></path><path fill="#b0c1d4" d="M20 6.399L2.5 18.066v-3.798L20 2.601l17.5 11.667v3.798z"></path><path d="M20 3.202l17 11.333v2.596L20.555 6.168 20 5.798l-.555.37L3 17.131v-2.596L20 3.202M20 2L2 14v5L20 7l18 12v-5L20 2z" fill="#66798f"></path><path fill="#ffeea3" d="M1.595 27.037l.882-3.931 35.92 8.754-.966 4.034z"></path><path d="M2.853 23.713l34.943 8.516-.733 3.059L2.19 26.669l.663-2.956M2.1 22.5L1 27.405 37.8 36.5l1.2-5.007L2.1 22.5z" fill="#ba9b48"></path><path fill="#ffc49c" d="M1.598 31.86l35.838-8.754.926 4.034-35.838 8.754z"></path><path d="M37.062 23.712l.703 3.059-34.867 8.517-.703-3.059 34.867-8.517m.748-1.212L1 31.492 2.15 36.5l36.81-8.992-1.15-5.008z" fill="#a16a4a"></path><g><path d="M35 26c0 .6-.4 1-1 1s-1-.4-1-1 .4-1 1-1 1 .4 1 1z" fill="#a16a4a"></path></g><g><path d="M34 32c-.6 0-1 .4-1 1s.4 1 1 1 1-.4 1-1-.4-1-1-1z" fill="#ba9b48"></path></g><g><path d="M6 25c-.6 0-1 .4-1 1s.4 1 1 1 1-.4 1-1-.4-1-1-1z" fill="#ba9b48"></path></g><g><path d="M6 32c-.6 0-1 .4-1 1s.4 1 1 1 1-.4 1-1-.4-1-1-1z" fill="#a16a4a"></path></g></svg>