<svg viewBox="0 0 40 40" xmlns="http://www.w3.org/2000/svg"><path fill="none" stroke="#8b75a1" stroke-linecap="round" stroke-miterlimit="10" d="M21.867 9.457L29.824 1.5M22.676 14.432l10.04-10.04M25.568 17.324l10.04-10.04M30.21 18.467l8.29-8.291"></path><path d="M4.854 38.5a3.333 3.333 0 01-2.371-.982c-.657-.657-1.006-1.531-.981-2.46s.419-1.784 1.11-2.406L19.05 17.519l-.104-.307a6.08 6.08 0 011.466-6.265l3.634-3.633c.553 1.068 1.808 3.263 3.593 5.048s3.98 3.04 5.049 3.593l-3.634 3.633a6.058 6.058 0 01-4.311 1.784 6.14 6.14 0 01-1.954-.318l-.308-.103L7.352 37.385A3.363 3.363 0 014.854 38.5z" fill="#dcd5f2"></path><path d="M23.924 8.142c.666 1.197 1.821 3.033 3.361 4.573 1.54 1.54 3.376 2.695 4.573 3.361L28.7 19.234a5.56 5.56 0 01-3.957 1.638 5.64 5.64 0 01-1.795-.292l-.614-.206-.439.477L6.976 37.055a2.857 2.857 0 01-4.14.109 2.829 2.829 0 01-.835-2.094 2.834 2.834 0 01.952-2.054l16.196-14.91.477-.439-.206-.614a5.581 5.581 0 011.345-5.753l3.159-3.158m.262-1.676l-4.127 4.127a6.602 6.602 0 00-1.586 6.777L2.276 32.28a3.855 3.855 0 105.444 5.444l14.91-16.196a6.661 6.661 0 002.113.344 6.572 6.572 0 004.665-1.931l4.127-4.127s-3.172-1.437-5.542-3.807-3.807-5.541-3.807-5.541z" fill="#8b75a1"></path><path fill="none" stroke="#8b75a1" stroke-miterlimit="10" d="M6.551 33.631l2.09 2.09M4.224 31.304l1.412 1.412M9.254 30.928l2.09 2.09"></path><g><path fill="none" stroke="#8b75a1" stroke-miterlimit="10" d="M6.927 28.601l1.412 1.413"></path></g></svg>