<svg viewBox="0 0 40 40" xmlns="http://www.w3.org/2000/svg"><path d="M8.5 21.5v-6.002a.999.999 0 011.966-.243l1.035 4.798V21.5H8.5z" fill="#4b6477"></path><path d="M9.497 15a.49.49 0 01.475.345L11 20.107V21H9v-5.503c0-.274.223-.497.497-.497m0-1C8.67 14 8 14.67 8 15.497V22h4v-2l-1.05-4.866A1.497 1.497 0 009.497 14z" fill="#36404d"></path><path fill="#66798f" d="M39 33h-9v2h9v-2z"></path><path d="M22.5 26.5V24c0-4.158-3.227-12.012-4.216-14.32C17.091 7.097 14.686 5.5 12 5.5H6.5v17h-3v-20H12c3.918 0 7.401 2.272 9.089 5.931C21.832 10.148 25.5 18.89 25.5 24v2.5h-3z" fill="#b0c1d4"></path><path d="M12 3c3.721 0 7.03 2.161 8.637 5.644C21.084 9.677 25 18.878 25 24v2h-2v-2c0-4.255-3.258-12.188-4.268-14.543C17.463 6.708 14.883 5 12 5H6v17H4V3h8m0-1H3v21h4V6h5c2.579 0 4.766 1.585 5.825 3.876C18.986 12.585 22 20.081 22 24v3h4v-3c0-5.557-4.25-15.3-4.457-15.779C19.799 4.442 16.162 2 12 2z" fill="#66798f"></path><path d="M3 34.5c-.827 0-1.5-.673-1.5-1.5V22c0-.827.673-1.5 1.5-1.5h10.785l3.786 4H26c1.93 0 3.5 1.57 3.5 3.5v5c0 .827-.673 1.5-1.5 1.5H3z" fill="#ffeea3"></path><path d="M13.57 21l3.49 3.687.295.313H26c1.654 0 3 1.346 3 3v5c0 .551-.449 1-1 1H3c-.551 0-1-.449-1-1V22c0-.551.449-1 1-1h10.57m.43-1H3a2 2 0 00-2 2v11a2 2 0 002 2h25a2 2 0 002-2v-5a4 4 0 00-4-4h-8.214L14 20z" fill="#ba9b48"></path><path fill="#b0c1d4" d="M30.5 1.5h2v33h-2z"></path><path d="M32 2v32h-1V2h1m1-1h-3v34h3V1z" fill="#66798f"></path><g><path d="M8.5 38.5c-2.206 0-4-1.794-4-4s1.794-4 4-4 4 1.794 4 4-1.794 4-4 4z" fill="#c8d1db"></path><path d="M8.5 31c1.93 0 3.5 1.57 3.5 3.5S10.43 38 8.5 38 5 36.43 5 34.5 6.57 31 8.5 31m0-1a4.5 4.5 0 100 9 4.5 4.5 0 000-9z" fill="#66798f"></path></g><g><circle cx="8.5" cy="34.5" r="1.5" fill="#66798f"></circle></g><g><path d="M28.5 38.5c-2.206 0-4-1.794-4-4s1.794-4 4-4 4 1.794 4 4-1.794 4-4 4z" fill="#c8d1db"></path><path d="M28.5 31c1.93 0 3.5 1.57 3.5 3.5S30.43 38 28.5 38 25 36.43 25 34.5s1.57-3.5 3.5-3.5m0-1a4.5 4.5 0 100 9 4.5 4.5 0 000-9z" fill="#66798f"></path></g><g><circle cx="28.5" cy="34.5" r="1.5" fill="#66798f"></circle></g></svg>