<svg viewBox="0 0 40 40" xmlns="http://www.w3.org/2000/svg"><path d="M20.5 24.5v-19a4 4 0 014-4h0a4 4 0 014 4v1" fill="none" stroke="#4e7ab5" stroke-linecap="round" stroke-linejoin="round" stroke-miterlimit="10"></path><path d="M20.5 24.5V20a7.5 7.5 0 017.5-7.5h0a7.5 7.5 0 017.5 7.5v.5" fill="none" stroke="#4e7ab5" stroke-linecap="round" stroke-linejoin="round" stroke-miterlimit="10"></path><circle cx="28.5" cy="8.5" r=".5" fill="#4e7ab5"></circle><circle cx="28.5" cy="10.5" r=".5" fill="#4e7ab5"></circle><circle cx="28.5" cy="14.5" r=".5" fill="#4e7ab5"></circle><circle cx="28.5" cy="16.5" r=".5" fill="#4e7ab5"></circle><circle cx="28.5" cy="18.5" r=".5" fill="#4e7ab5"></circle><circle cx="28.5" cy="20.5" r=".5" fill="#4e7ab5"></circle><circle cx="28.5" cy="22.5" r=".5" fill="#4e7ab5"></circle><circle cx="35.5" cy="22.5" r=".5" fill="#4e7ab5"></circle><circle cx="35.5" cy="24.5" r=".5" fill="#4e7ab5"></circle><circle cx="35.5" cy="26.5" r=".5" fill="#4e7ab5"></circle><circle cx="35.5" cy="28.5" r=".5" fill="#4e7ab5"></circle><circle cx="35.5" cy="30.5" r=".5" fill="#4e7ab5"></circle><circle cx="35.5" cy="32.5" r=".5" fill="#4e7ab5"></circle><path d="M20.5 24.5v-19a4 4 0 00-4-4h0a4 4 0 00-4 4v1" fill="none" stroke="#4e7ab5" stroke-linecap="round" stroke-linejoin="round" stroke-miterlimit="10"></path><path d="M20.5 24.5V20a7.5 7.5 0 00-7.5-7.5h0A7.5 7.5 0 005.5 20v.5" fill="none" stroke="#4e7ab5" stroke-linecap="round" stroke-linejoin="round" stroke-miterlimit="10"></path><circle cx="12.5" cy="8.5" r=".5" fill="#4e7ab5"></circle><circle cx="12.5" cy="10.5" r=".5" fill="#4e7ab5"></circle><circle cx="12.5" cy="14.5" r=".5" fill="#4e7ab5"></circle><circle cx="12.5" cy="16.5" r=".5" fill="#4e7ab5"></circle><circle cx="12.5" cy="18.5" r=".5" fill="#4e7ab5"></circle><circle cx="12.5" cy="20.5" r=".5" fill="#4e7ab5"></circle><circle cx="12.5" cy="22.5" r=".5" fill="#4e7ab5"></circle><circle cx="5.5" cy="22.5" r=".5" fill="#4e7ab5"></circle><circle cx="5.5" cy="24.5" r=".5" fill="#4e7ab5"></circle><circle cx="5.5" cy="26.5" r=".5" fill="#4e7ab5"></circle><circle cx="5.5" cy="28.5" r=".5" fill="#4e7ab5"></circle><circle cx="5.5" cy="30.5" r=".5" fill="#4e7ab5"></circle><circle cx="5.5" cy="32.5" r=".5" fill="#4e7ab5"></circle><path d="M13 29.5A4.505 4.505 0 018.5 25v-.5h24v.5c0 2.481-2.019 4.5-4.5 4.5H13z" fill="#dcd5f2"></path><path d="M32 25c0 2.206-1.794 4-4 4H13c-2.206 0-4-1.794-4-4h23m1-1H8v1a5 5 0 005 5h15a5 5 0 005-5v-1z" fill="#8b75a1"></path><path d="M6 38.5c-1.93 0-3.5-1.57-3.5-3.5v-.5h36v.5c0 1.93-1.57 3.5-3.5 3.5H6z" fill="#dcd5f2"></path><path d="M38 35c0 1.654-1.346 3-3 3H6c-1.654 0-3-1.346-3-3h35m1-1H2v1a4 4 0 004 4h29a4 4 0 004-4v-1z" fill="#8b75a1"></path><g><path fill="#dcd5f2" d="M16.5 29.5h8v5h-8z"></path><path d="M24 30v4h-7v-4h7m1-1h-9v6h9v-6z" fill="#8b75a1"></path></g></svg>