<svg viewBox="0 0 40 40" xmlns="http://www.w3.org/2000/svg"><path d="M17.5 8.5v-5h-2v-2H22a.5.5 0 01.5.5v6.5h-5z" fill="#839cb2"></path><path d="M22 2v6h-4V3h-2V2h6m0-1h-7v3h2v5h6V2a1 1 0 00-1-1z" fill="#66798f"></path><path d="M15.5 14V8a.5.5 0 01.5-.5h8a.5.5 0 01.5.5v6h-9z" fill="#839cb2"></path><path d="M24 8v5.5h-8V8h8m0-1h-8a1 1 0 00-1 1v6.5h10V8a1 1 0 00-1-1z" fill="#66798f"></path><g><path d="M14.223 38.5c-.682-.792-3.723-4.703-3.723-11.5V13a.5.5 0 01.5-.5h18a.5.5 0 01.5.5v14c0 6.89-3.04 10.729-3.719 11.5H14.223z" fill="#ffc49c"></path><path d="M29 13v14c0 6.315-2.613 9.987-3.449 11H14.456C13.613 36.958 11 33.228 11 27V13h18m0-1H11a1 1 0 00-1 1v14c0 7.938 4 12 4 12h12s4-3.955 4-12V13a1 1 0 00-1-1z" fill="#e0ac89"></path></g><path d="M17.197 35C16.062 33.332 15 31.026 15 28.214V16h-1v12.214c0 2.739.886 5.023 1.94 6.786h1.257z" fill="#fff4ee"></path></svg>