<svg viewBox="0 0 40 40" xmlns="http://www.w3.org/2000/svg"><path d="M34.5 38.5v-3h-29v3h-4v-25c0-1.103.897-2 2-2s2 .897 2 2v18h33v7h-4z" fill="#f5ce85"></path><path d="M3.5 12c.827 0 1.5.673 1.5 1.5V32h33v6h-3v-3H5v3H2V13.5c0-.827.673-1.5 1.5-1.5m0-1A2.5 2.5 0 001 13.5V39h5v-3h28v3h5v-8H6V13.5A2.5 2.5 0 003.5 11z" fill="#967a44"></path><path fill="#dbf2ff" d="M5.5 28.5h33v3h-33z"></path><path d="M38 29v2H6v-2h32m1-1H5v4h34v-4z" fill="#66798f"></path><path d="M15.498 28.5c-1.294-.016-5.055-.271-7.391-2.607-2.324-2.325-2.587-6.084-2.605-7.393 1.294.016 5.055.271 7.391 2.607 2.324 2.325 2.587 6.084 2.605 7.393z" fill="#dbf2ff"></path><path d="M6.019 19.018c1.535.08 4.572.495 6.52 2.443 1.942 1.942 2.359 4.985 2.441 6.522-1.535-.08-4.572-.495-6.52-2.443-1.941-1.943-2.359-4.986-2.441-6.522M5.373 18c-.234 0-.366.007-.366.007s-.287 5.206 2.746 8.239C10.304 28.797 14.391 29 15.627 29c.234 0 .366-.007.366-.007s.287-5.206-2.746-8.239C10.696 18.203 6.609 18 5.373 18z" fill="#66798f"></path><g><path d="M15.5 31.5v-10H32c3.584 0 6.5 2.916 6.5 6.5v3.5h-23z" fill="#8bb7f0"></path><path d="M32 22c3.308 0 6 2.692 6 6v3H16v-9h16m0-1H15v11h24v-4a7 7 0 00-7-7z" fill="#4e7ab5"></path></g><path fill="none" stroke="#2d3540" stroke-miterlimit="10" d="M37.5 10.5h-7V10L37 1.5h.5zM37.5 14v-3.5H39"></path></svg>