<svg viewBox="0 0 40 40" xmlns="http://www.w3.org/2000/svg"><path d="M12.674 38.5v-1.147l5.826-2.071v-6.849l-.446-.049C11.49 27.667 8.5 23.362 8.5 19.667c0-3.563 2.284-15.779 2.737-18.167h17.525c.453 2.389 2.738 14.619 2.738 18.167 0 3.694-2.99 7.998-9.555 8.717l-.445.049v6.849l5.826 2.071V38.5H12.674z" fill="#c2e8ff"></path><path d="M28.348 2C28.935 5.12 31 16.329 31 19.667c0 3.478-2.85 7.534-9.109 8.22l-.891.098V35.634l.665.236 5.161 1.835V38H13.174v-.294l5.161-1.835.665-.237v-7.65l-.891-.097C11.85 27.203 9 23.147 9 19.667 9 16.314 11.064 5.117 11.652 2h16.696m.828-1H10.824S8 15.637 8 19.667c0 3.694 2.979 8.447 10 9.215v6.047L12.174 37v2h15.652v-2L22 34.929v-6.047c7.021-.77 10-5.536 10-9.214C32 15.655 29.176 1 29.176 1z" fill="#7496c4"></path><path d="M13.893 17.964L15.25 5.75" fill="none" stroke="#f7fcff" stroke-linecap="round" stroke-miterlimit="10"></path><path fill="none" stroke="#7496c4" stroke-miterlimit="10" d="M18.5 1.5l7 6-6 4 4 3-2 4 3 5"></path></svg>