<svg viewBox="0 0 40 40" xmlns="http://www.w3.org/2000/svg"><path d="M22.5 33.5V12c0-1.378 1.121-2.5 2.5-2.5h9c.862 0 1.643.511 1.987 1.303l3.111 7.169c.267.611.401 1.26.401 1.928V31c0 1.378-1.121 2.5-2.5 2.5H22.5z" fill="#f5ce85"></path><path d="M34 10c.664 0 1.264.393 1.528 1.001l3.112 7.17c.239.549.36 1.131.36 1.729V31c0 1.103-.897 2-2 2H23V12c0-1.103.897-2 2-2h9m0-1h-9a3 3 0 00-3 3v22h15a3 3 0 003-3V19.9c0-.732-.151-1.456-.443-2.128l-3.112-7.169A2.667 2.667 0 0034 9z" fill="#967a44"></path><circle cx="31.5" cy="33.5" r="4" fill="#c8d1db"></circle><path d="M31.5 30c1.93 0 3.5 1.57 3.5 3.5S33.43 37 31.5 37 28 35.43 28 33.5s1.57-3.5 3.5-3.5m0-1a4.5 4.5 0 100 9 4.5 4.5 0 000-9z" fill="#66798f"></path><circle cx="31.5" cy="33.5" r="1.5" fill="#66798f"></circle><path fill="#dcd5f2" d="M.5 25.5h22v8H.5z"></path><path d="M22 26v7H1v-7h21m1-1H0v9h23v-9z" fill="#8b75a1"></path><path fill="#8bb7f0" d="M.5 4.5h22v21H.5z"></path><path d="M22 5v20H1V5h21m1-1H0v22h23V4z" fill="#4e7ab5"></path><circle cx="9.5" cy="33.5" r="4" fill="#c8d1db"></circle><path d="M9.5 30c1.93 0 3.5 1.57 3.5 3.5S11.43 37 9.5 37 6 35.43 6 33.5 7.57 30 9.5 30m0-1a4.5 4.5 0 100 9 4.5 4.5 0 000-9z" fill="#66798f"></path><circle cx="9.5" cy="33.5" r="1.5" fill="#66798f"></circle><path fill="#fff" d="M36 25h3v3h-3z"></path><path fill="#c74343" d="M0 27h3v3H0z"></path><g><path d="M29 22.5a.501.501 0 01-.5-.5v-9a.5.5 0 01.5-.5h7.724l2.375 5.472c.267.611.401 1.26.401 1.929v2.6H29z" fill="#c2e8ff"></path><path d="M36.396 13l2.245 5.171c.238.549.359 1.131.359 1.729V22H29v-9h7.396m.656-1H29a1 1 0 00-1 1v9a1 1 0 001 1h11v-3.1c0-.732-.151-1.456-.443-2.128L37.052 12z" fill="#967a44"></path></g><path d="M5.977 12.547H3.223v2.214h2.538v1.033H3.223v3.083H2v-7.368h3.977v1.038zM9.802 14.751c-.144-.113-.351-.17-.622-.17-.353 0-.647.159-.884.478-.236.319-.355.751-.355 1.3v2.518H6.75v-5.261h1.192V14.7h.021c.117-.37.295-.659.537-.866.241-.207.511-.311.809-.311.216 0 .38.032.493.098v1.13zM15.062 16.57h-3.554c.014.487.162.862.445 1.125.284.263.673.396 1.168.396.556 0 1.068-.168 1.532-.504v.961c-.473.302-1.101.452-1.881.452-.767 0-1.368-.239-1.805-.717-.437-.478-.654-1.15-.654-2.017 0-.818.241-1.486.72-2.001.48-.515 1.077-.773 1.79-.773s1.264.231 1.655.694c.391.462.585 1.105.585 1.927v.457zm-1.14-.843c-.004-.428-.103-.762-.3-.999-.197-.238-.468-.357-.815-.357-.34 0-.627.125-.863.375-.235.25-.381.577-.435.981h2.413zM21 16.57h-3.554c.014.487.162.862.445 1.125.284.263.673.396 1.168.396.556 0 1.068-.168 1.532-.504v.961c-.473.302-1.102.452-1.882.452-.767 0-1.368-.239-1.805-.717-.437-.478-.654-1.15-.654-2.017 0-.818.241-1.486.72-2.001.48-.515 1.077-.773 1.79-.773s1.264.231 1.655.694c.39.462.585 1.104.585 1.926v.458zm-1.14-.843c-.004-.428-.103-.762-.3-.999-.197-.238-.468-.357-.815-.357-.34 0-.627.125-.863.375s-.381.577-.435.981h2.413z" fill="#fff"></path></svg>