<svg viewBox="0 0 40 40" xmlns="http://www.w3.org/2000/svg"><path d="M33 13c1.103 0 2 .897 2 2v10c0 1.103-.897 2-2 2h-2V13h2m0-1h-3v16h3a3 3 0 003-3V15a3 3 0 00-3-3z" fill="#66798f"></path><path d="M9 38.5A2.503 2.503 0 016.5 36V10.861L3.883 6.5H30.5V36c0 1.378-1.121 2.5-2.5 2.5H9z" fill="#c2e8ff"></path><path d="M30 7v29c0 1.103-.897 2-2 2H9c-1.103 0-2-.897-2-2V10.723l-.143-.238L4.766 7H30m1-1H3l3 5v25a3 3 0 003 3h19a3 3 0 003-3V6z" fill="#7496c4"></path><path fill="none" stroke="#7496c4" stroke-miterlimit="10" d="M18.5 7v19"></path><path d="M9.229 28.5l2.154-2.098a3.485 3.485 0 012.442-.993h9.348c.917 0 1.784.353 2.442.993l2.154 2.098H9.229z" fill-rule="evenodd" clip-rule="evenodd" fill="#b0c1d4"></path><path d="M23.174 25.909c.786 0 1.53.302 2.093.851L26.54 28H10.46l1.273-1.24a2.983 2.983 0 012.093-.851h9.348m0-1h-9.348a3.998 3.998 0 00-2.791 1.135L8 29h21l-3.035-2.956a3.998 3.998 0 00-2.791-1.135z" fill="#7496c4"></path><path d="M28 37H9a1 1 0 01-1-1v-7h21v7a1 1 0 01-1 1z" fill="#a6714e"></path><path d="M6.5 6.5V6c0-1.378 1.121-2.5 2.5-2.5h19c1.379 0 2.5 1.122 2.5 2.5v.5h-24z" fill="#b0c1d4"></path><path d="M28 4c1.103 0 2 .897 2 2H7c0-1.103.897-2 2-2h19m0-1H9a3 3 0 00-3 3v1h25V6a3 3 0 00-3-3z" fill="#66798f"></path><g><path fill="none" stroke="#66798f" stroke-linecap="round" stroke-miterlimit="10" d="M15.409 1.5h5.455"></path></g><g><path fill="none" stroke="#66798f" stroke-linecap="round" stroke-miterlimit="10" d="M18.136 1.5v1.727"></path></g></svg>