<svg viewBox="0 0 40 40" xmlns="http://www.w3.org/2000/svg"><path fill="#f5ce85" d="M13.526 2.149l4.192-.608 3.944 27.217-4.193.607z"></path><path d="M17.294 2.108l3.799 26.226-3.202.464-3.799-26.227 3.202-.463m.847-1.133l-5.181.751 4.085 28.206 5.181-.751L18.141.975z" fill="#967a44"></path><path fill="#f5ce85" d="M6.77 5.23l4.363-.767L15.9 31.547l-4.362.768z"></path><path d="M10.726 5.041l4.596 26.098-3.377.595L7.35 5.636l3.376-.595m.812-1.158l-5.347.941 4.943 28.068 5.346-.941-4.942-28.068z" fill="#967a44"></path><path fill="#f5ce85" d="M23.438 30.073l6.62-26.692 4.052 1.005-6.62 26.692z"></path><path d="M30.421 3.985l3.081.764-6.378 25.721-3.081-.764 6.378-25.721m-.73-1.211l-6.859 27.662 5.022 1.245 6.859-27.662-5.022-1.245z" fill="#967a44"></path><path fill="#f5ce85" d="M20.816 28.985l1.502-27.458 3.995.218-1.502 27.459z"></path><path d="M22.791 2.053l2.996.164-1.448 26.46-2.996-.164 1.448-26.46M21.847 1L20.29 29.457l4.993.273L26.84 1.273 21.847 1z" fill="#967a44"></path><path fill="#ffeea3" d="M18.5 4.5h4v28h-4z"></path><path d="M22 5v27h-3V5h3m1-1h-5v29h5V4z" fill="#ba9b48"></path><g><path fill="#ffeea3" d="M11.067 4.404l3.937-.706 5.276 29.444-3.936.705z"></path><path d="M14.6 4.278l5.102 28.459-2.953.529-5.102-28.459 2.953-.529m.807-1.161l-4.922.882 5.455 30.428 4.922-.882-5.455-30.428z" fill="#ba9b48"></path></g><g><path fill="#ffeea3" d="M23.28 31.253L25.736 5.37l3.982.378-2.454 25.883z"></path><path d="M26.187 5.914l2.987.283-2.361 24.888-2.987-.283 2.361-24.888m-.901-1.09l-2.55 26.879 4.978.472 2.55-26.879-4.978-.472z" fill="#ba9b48"></path></g><g><path fill="#ffeea3" d="M2.94 9.745L7.13 8.31l7.336 21.43-4.19 1.435z"></path><path d="M6.816 8.945l7.016 20.483-3.244 1.111-7.016-20.483 3.244-1.111m.622-1.27L2.302 9.434l7.664 22.375 5.136-1.759L7.438 7.675z" fill="#ba9b48"></path></g><g><path fill="#ffeea3" d="M26.839 29.577l5.192-20.82L36.33 9.83l-5.193 20.819z"></path><path d="M32.395 9.366l3.327.83-4.95 19.848-3.327-.83 4.95-19.848m-.728-1.212l-5.434 21.788 5.267 1.314 5.434-21.788-5.267-1.314z" fill="#ba9b48"></path></g><g><path d="M9.415 38.5l-3.938-21h9.045c.253 2.799 2.613 5 5.478 5s5.225-2.201 5.478-5h9.045l-3.938 21H9.415z" fill="#f78f8f"></path><path d="M33.92 18l-3.75 20H9.83L6.08 18h8.003c.477 2.834 2.949 5 5.917 5s5.439-2.166 5.917-5h8.003m1.205-1H25a5 5 0 01-10 0H4.875L9 39h22l4.125-22z" fill="#c74343"></path></g></svg>