<svg viewBox="0 0 40 40" xmlns="http://www.w3.org/2000/svg"><path d="M7 16V5c0-1.359 1.402-3 3.143-3h19.786C31.593 2 33 3.374 33 5v11h1V5c0-2.2-1.871-4-4.071-4H10.143C7.904 1 6 3.019 6 5v11h1z" fill="#8b75a1"></path><path fill="#b3add8" d="M9.5 13.5h21v19h-21z"></path><path d="M30 14v18H10V14h20m1-1H9v20h22V13z" fill="#8b75a1"></path><path fill="#dcd5f2" d="M14.24 38.5l-3.199-4H17.5v-23h-6.459l3.199-4h11.52l3.199 4H22.5v23h6.459l-3.199 4z"></path><path d="M25.519 8l2.4 3H22v24h5.919l-2.4 3H14.481l-2.4-3H18V11h-5.919l2.4-3h11.038M26 7H14l-4 5h7v22h-7l4 5h12l4-5h-7V12h7l-4-5z" fill="#8b75a1"></path><path fill="#dcd5f2" d="M32.5 25.5h-25v5.691l-5-2.5V17.309l5-2.5V20.5h25v-5.691l5 2.5v11.382l-5 2.5z"></path><path d="M33 15.618l4 2v10.764l-4 2V25H7v5.382l-4-2V17.618l4-2V21h26v-5.382M32 14v6H8v-6l-6 3v12l6 3v-6h24v6l6-3V17l-6-3z" fill="#8b75a1"></path><g><path d="M20 31.5c-4.687 0-8.5-3.813-8.5-8.5s3.813-8.5 8.5-8.5 8.5 3.813 8.5 8.5-3.813 8.5-8.5 8.5z" fill="#ffeea3"></path><path d="M20 15c4.411 0 8 3.589 8 8s-3.589 8-8 8-8-3.589-8-8 3.589-8 8-8m0-1c-4.971 0-9 4.029-9 9s4.029 9 9 9 9-4.029 9-9-4.029-9-9-9z" fill="#8b75a1"></path></g><g><ellipse cx="19.964" cy="23" rx="2.036" ry="2" fill="#fff"/></g><g><path d="M20 19c2.206 0 4 1.794 4 4s-1.794 4-4 4-4-1.794-4-4 1.794-4 4-4m0-1a5 5 0 10.001 10.001A5 5 0 0020 18z" fill="#fff"></path></g></svg>