<svg viewBox="0 0 40 40" xmlns="http://www.w3.org/2000/svg"><path d="M9 38.5c-.827 0-1.5-.673-1.5-1.5V3c0-.827.673-1.5 1.5-1.5h22c.827 0 1.5.673 1.5 1.5v34c0 .827-.673 1.5-1.5 1.5H9z" fill="#fff"></path><path d="M31 2c.551 0 1 .449 1 1v34c0 .551-.449 1-1 1H9c-.551 0-1-.449-1-1V3c0-.551.449-1 1-1h22m0-1H9a2 2 0 00-2 2v34a2 2 0 002 2h22a2 2 0 002-2V3a2 2 0 00-2-2z" fill="#66798f"></path><path fill="#66798f" d="M9 38h4v2H9zM27 38h4v2h-4z"></path><path fill="none" stroke="#66798f" stroke-linecap="round" stroke-miterlimit="10" d="M7.5 13.5h25M11.5 5.5v4"></path><g><path fill="none" stroke="#66798f" stroke-linecap="round" stroke-miterlimit="10" d="M11.5 17.5v10"></path></g></svg>