<svg viewBox="0 0 40 40" xmlns="http://www.w3.org/2000/svg"><path fill="#fff" d="M2.5 2.5h35v35h-35z"></path><path d="M37 3v34H3V3h34m1-1H2v36h36V2z" fill="#788b9c"></path><path fill="#f78f8f" d="M2.5 2.5h35v5h-35z"></path><path d="M37 3v4H3V3h34m1-1H2v6h36V2z" fill="#c74343"></path><path fill="#e1ebf2" d="M3 34h34v3H3z"></path><path d="M20.722 17.334h-4.188v3.367h3.859v1.57h-3.859v4.688h-1.859V15.756h6.047v1.578zM27.151 20.686c-.219-.172-.534-.258-.945-.258-.536 0-.984.242-1.344.727s-.539 1.144-.539 1.977v3.828h-1.812v-8h1.812v1.648h.031c.177-.562.449-1.001.816-1.316s.777-.473 1.23-.473c.328 0 .578.05.75.148v1.719z" fill="#36404d"></path></svg>