<svg viewBox="0 0 40 40" xmlns="http://www.w3.org/2000/svg"><path d="M11 39a2 2 0 01-1.414-3.414L16 29.171V17a2 2 0 014 0v13a2 2 0 01-.586 1.414l-7 7A1.992 1.992 0 0111 39z" fill="#93a8bc"></path><circle cx="16.5" cy="5.5" r="3" fill="#ffeea3"></circle><path d="M16.5 3C17.879 3 19 4.122 19 5.5S17.879 8 16.5 8 14 6.878 14 5.5 15.121 3 16.5 3m0-1a3.5 3.5 0 100 7 3.5 3.5 0 000-7z" fill="#ba9b48"></path><path d="M34 4.5c-2.003 0-3.5-.792-3.5-1.5s1.497-1.5 3.5-1.5 3.5.792 3.5 1.5-1.497 1.5-3.5 1.5z" fill="#f78f8f"></path><path d="M34 2c1.936 0 3 .751 3 1s-1.064 1-3 1-3-.751-3-1 1.064-1 3-1m0-1c-2.209 0-4 .895-4 2s1.791 2 4 2 4-.895 4-2-1.791-2-4-2z" fill="#c74343"></path><path d="M7 24.5c-.827 0-1.5-.673-1.5-1.5v-5c0-.395.16-.781.439-1.061l5-5c.28-.279.666-.439 1.061-.439h6.475l4.242-3.395 1.86-5.58a1.496 1.496 0 011.898-.949c.38.126.688.394.867.752.18.358.208.765.081 1.145l-2 6c-.092.275-.26.516-.485.697l-5.001 4a1.496 1.496 0 01-.188.125l-.249.145v6.06h-7v-5.659l-4 3.771V23c0 .827-.673 1.5-1.5 1.5z" fill="#ffeea3"></path><path d="M25.998 1.999a.992.992 0 01.896.554c.119.239.139.51.054.763l-2 6a.99.99 0 01-.325.465l-5 4a1.034 1.034 0 01-.125.082l-.498.289V20h-6v-6.317l-1.686 1.59-3 2.829-.314.295V23c0 .551-.449 1-1 1s-1-.449-1-1v-5c0-.263.107-.521.293-.707l5-5c.186-.186.444-.293.707-.293h6.65l.274-.219 3.99-3.193.23-.184.093-.28 1.814-5.44a.998.998 0 01.947-.685m0-1c-.839 0-1.617.531-1.896 1.369l-1.813 5.439L18.299 11H12a2 2 0 00-1.414.586l-5 5A2 2 0 005 18v5a2 2 0 004 0v-4.171L12 16v5h8v-6.272c.086-.05.17-.104.249-.167l5-4c.302-.241.526-.563.648-.929l2-6A2 2 0 0025.998.999z" fill="#ba9b48"></path><g><path d="M4.001 33.5a1.497 1.497 0 01-1.379-.909c-.158-.369-.163-.776-.015-1.148s.434-.664.802-.822l6.481-2.778 2.609-6.75V20.5h7v.293l-3.89 3.89-3.208 4.87c-.192.41-.467.679-.812.826l-7 3c-.187.08-.385.121-.588.121z" fill="#e1ebf2"></path><path d="M18.586 21l-3.293 3.293-.072.072-.056.085-3.18 4.828-.043.065-.032.071a.99.99 0 01-.516.505l-6.999 3a1 1 0 11-.789-1.839l6.288-2.695.387-.166.152-.393 2.5-6.467.067-.172V21h5.586M20 20h-8v1l-2.5 6.467-6.288 2.695a2 2 0 001.576 3.676l7-3a1.997 1.997 0 001.032-1.011L16 25l4-4v-1z" fill="#93a8bc"></path></g><g><path d="M12.5 20.5v-5.659l-3.556 3.353-2.57-1.688 4.565-4.566c.28-.28.666-.44 1.061-.44h6.475l3.79-3.033 2.22 2.065-4.548 3.638a1.496 1.496 0 01-.188.125l-.249.145v6.06h-7z" fill="#8bb7f0"></path><path d="M22.24 9.127l1.48 1.377-4.095 3.276a1.034 1.034 0 01-.125.082l-.5.29V20h-6v-6.317l-1.686 1.59-2.425 2.287-1.727-1.135 4.131-4.131c.186-.187.444-.294.707-.294h6.65l.274-.219 3.316-2.654m.049-1.32L18.299 11H12a2 2 0 00-1.414.586l-5 5L9 18.829 12 16v5h8v-6.272c.086-.05.17-.104.249-.167l5-4-2.96-2.754z" fill="#4e7ab5"></path></g></svg>