<svg viewBox="0 0 40 40" xmlns="http://www.w3.org/2000/svg"><path d="M34.5 33h-1.706l-2.358-4.245c-.22-.393-.436-.892-.436-2.255V18c0-.276-4.224 4-4.5 4s-.5.224-.5.5v4c0 1.088.452 1.659.609 1.813l1.77 4.712A.494.494 0 0027 33.5c0 .275.225.5.5.5h7c.275 0 .5-.225.5-.5s-.225-.5-.5-.5z" fill="#4b7a5b"></path><path d="M7 33.5c-2.733 0-4.5-.981-4.5-2.5 0-.797.455-1.887 1.732-2.557l.556-.292-.408-.476C3.08 26.157 2.5 24.406 2.5 22c0-5.327 5.052-9.5 11.5-9.5 6.359 0 8.231-1.873 9.736-3.378C24.678 8.18 25.357 7.5 27 7.5h2c4.367.027 8.5 2.214 8.5 4.5 0 .785-3.072 2.866-6.71 4.546l-.29.134V19c0 7.768-12.469 11.484-12.595 11.509l-1.186.236 1.003.671c.043.028.184.102.395.205 1.828.898 2.675 1.5 3.063 1.879H7z" fill="#bae0bd"></path><path d="M28.997 8c4.277.027 7.946 2.188 8.002 3.959-.254.674-2.923 2.518-6.419 4.133l-.58.268V19c0 6.722-10.6 10.658-12.188 11.018l-2.399.459 2.033 1.355c.091.061.197.113.451.238.742.364 1.308.672 1.74.93H7c-1.991 0-4-.618-4-2 0-.651.385-1.548 1.465-2.114l1.111-.583-.816-.953C3.526 25.909 3 24.309 3 22c0-5.047 4.832-9 11-9 6.567 0 8.603-2.037 10.09-3.525C25.01 8.555 25.565 8 27 8h1.997M29 7h-2c-4.611 0-2.726 5-13 5-6.5 0-12 4.265-12 10 0 2.348.511 4.261 2 6-1.399.734-2 1.968-2 3 0 1.891 2.058 3 5 3h15c0-1.219-3.766-2.844-4-3 .651-.125 13-4.063 13-12v-2c2.368-1.094 7-3.588 7-5 0-2.659-4.458-4.972-9-5z" fill="#5e9c76"></path><path d="M9.5 19.5c3.817.426 7 2.671 7 5 0 4.903-7 5.56-7 6H18" fill="none" stroke="#5e9c76" stroke-linecap="round" stroke-miterlimit="10"></path><path fill="#bae0bd" d="M22.769 20h1.385v5.538h-1.385z"></path><path d="M26.5 23.5v3c0 1.375.208 1.979.5 2.5l2.5 4.5h-2c-.11 0-.43-.413-.5-.5l-4-5c-.24-.24-.5-.729-.5-1.5v-4" fill="#bae0bd" stroke="#5e9c76" stroke-linecap="round" stroke-miterlimit="10"></path><circle cx="27.5" cy="9.5" r="3" fill="#fff"></circle><path d="M27.5 7C28.878 7 30 8.122 30 9.5S28.878 12 27.5 12 25 10.878 25 9.5 26.121 7 27.5 7m0-1a3.5 3.5 0 100 7 3.5 3.5 0 000-7z" fill="#788b9c"></path><circle cx="28.5" cy="9.5" r="1.5" fill="#36404d"></circle><path d="M27.5 33h4c.275 0 .5.225.5.5s-.225.5-.5.5h-4a.501.501 0 01-.5-.5c0-.275.225-.5.5-.5z" fill="#5e9c76"></path></svg>