<svg viewBox="0 0 40 40" xmlns="http://www.w3.org/2000/svg"><path d="M7.5 22.023v-2.166c0-4.136 3.364-7.5 7.5-7.5s7.5 3.364 7.5 7.5v2.166h-15z" fill="#8bb7f0"></path><path d="M15 12.857c3.86 0 7 3.14 7 7v1.667H8v-1.667c0-3.86 3.14-7 7-7m0-1a8 8 0 00-8 8v2.667h16v-2.667a8 8 0 00-8-8z" fill="#4e7ab5"></path><path d="M32.464 38.5a3.505 3.505 0 00-3.464-3H11a3.505 3.505 0 00-3.464 3H3.5v-18h33v18h-4.036z" fill="#f5ce85"></path><path d="M36 21v17h-3.127A4.007 4.007 0 0029 35H11a4.007 4.007 0 00-3.873 3H4V21h32m1-1H3v19h5a3 3 0 013-3h18a3 3 0 013 3h5V20z" fill="#967a44"></path><path d="M27.5 18.5V18c0-1.93 1.57-3.5 3.5-3.5s3.5 1.57 3.5 3.5v.5h-7z" fill="#ffeea3"></path><path d="M31 15c1.654 0 3 1.346 3 3h-6c0-1.654 1.346-3 3-3m0-1a4 4 0 00-4 4v1h8v-1a4 4 0 00-4-4z" fill="#ba9b48"></path><g><path fill="#f5ce85" d="M1.5 18.5h37v3h-37z"></path><path d="M38 19v2H2v-2h36m1-1H1v4h38v-4z" fill="#967a44"></path></g><g><circle cx="15" cy="6" r="4.5" fill="#ffeea3"></circle><path d="M15 2c2.206 0 4 1.794 4 4s-1.794 4-4 4-4-1.794-4-4 1.794-4 4-4m0-1a5 5 0 10.001 10.001A5 5 0 0015 1z" fill="#ba9b48"></path></g><path fill="none" stroke="#ba9b48" stroke-miterlimit="10" d="M29.5 13.5h3"></path></svg>