<svg viewBox="0 0 40 40" xmlns="http://www.w3.org/2000/svg"><path d="M25.5 30.691V1.516c3.146.206 4.013 2.375 4.928 4.664.797 1.994 1.619 4.052 4.072 4.296v24.716l-9-4.501z" fill="#f5ce85"></path><path d="M26 2.075c2.403.385 3.133 2.212 3.964 4.291.77 1.926 1.631 4.081 4.036 4.544v23.473l-8-4V2.075M25 1v30l10 5V10c-5.41 0-2.74-9-10-9z" fill="#967a44"></path><ellipse cx="27.5" cy="18" rx=".5" ry="1" fill="#967a44"/><path d="M4.5 10.476c2.453-.244 3.275-2.302 4.072-4.296.915-2.289 1.782-4.458 4.928-4.664v29.176l-9 4.5V10.476z" fill="#f5ce85"></path><path d="M13 2.075v28.307l-8 4V10.909c2.405-.463 3.266-2.617 4.036-4.544.831-2.078 1.561-3.905 3.964-4.29M14 1c-7.26 0-4.59 9-10 9v26l10-5V1z" fill="#967a44"></path><path d="M.5 37.5V8a.5.5 0 01.5-.5h3a.5.5 0 01.5.5v29.5h-4z" fill="#b0c1d4"></path><path d="M4 8v29H1V8h3m0-1H1a1 1 0 00-1 1v30h5V8a1 1 0 00-1-1z" fill="#66798f"></path><circle cx="2.5" cy="5.5" r="2" fill="#b0c1d4"></circle><path d="M2.5 4C3.327 4 4 4.673 4 5.5S3.327 7 2.5 7 1 6.327 1 5.5 1.673 4 2.5 4m0-1a2.5 2.5 0 100 5 2.5 2.5 0 000-5z" fill="#66798f"></path><g><path d="M34.5 37.5V8a.5.5 0 01.5-.5h3a.5.5 0 01.5.5v29.5h-4z" fill="#b0c1d4"></path><path d="M38 8v29h-3V8h3m0-1h-3a1 1 0 00-1 1v30h5V8a1 1 0 00-1-1z" fill="#66798f"></path></g><g><circle cx="36.5" cy="5.5" r="2" fill="#b0c1d4"></circle><path d="M36.5 4c.827 0 1.5.673 1.5 1.5S37.327 7 36.5 7 35 6.327 35 5.5 35.673 4 36.5 4m0-1a2.5 2.5 0 100 5 2.5 2.5 0 000-5z" fill="#66798f"></path></g><g><ellipse cx="11.5" cy="18" rx=".5" ry="1" fill="#967a44"/></g></svg>