<svg viewBox="0 0 40 40" xmlns="http://www.w3.org/2000/svg"><path d="M4.5 34.5V9.483c2.341-.152 4.086-1.36 5.927-2.635C12.805 5.202 15.264 3.5 19.5 3.5c4.224 0 6.665 1.695 9.027 3.335 1.846 1.282 3.597 2.498 5.973 2.649V34.5h-30z" fill="#f5ce85"></path><path d="M19.5 4c4.067 0 6.443 1.65 8.741 3.246C30.029 8.487 31.729 9.667 34 9.941V34H5V9.94c2.238-.275 3.932-1.448 5.712-2.68C13.027 5.657 15.421 4 19.5 4m0-1C11.497 3 9.41 9 4 9v26h31V9c-5.476 0-7.497-6-15.5-6z" fill="#967a44"></path><path d="M.5 37.5V8a.5.5 0 01.5-.5h3a.5.5 0 01.5.5v29.5h-4z" fill="#b0c1d4"></path><path d="M4 8v29H1V8h3m0-1H1a1 1 0 00-1 1v30h5V8a1 1 0 00-1-1z" fill="#66798f"></path><circle cx="2.5" cy="5.5" r="2" fill="#b0c1d4"></circle><path d="M2.5 4C3.327 4 4 4.673 4 5.5S3.327 7 2.5 7 1 6.327 1 5.5 1.673 4 2.5 4m0-1a2.5 2.5 0 100 5 2.5 2.5 0 000-5z" fill="#66798f"></path><path d="M34.5 37.5V8a.5.5 0 01.5-.5h3a.5.5 0 01.5.5v29.5h-4z" fill="#b0c1d4"></path><path d="M38 8v29h-3V8h3m0-1h-3a1 1 0 00-1 1v30h5V8a1 1 0 00-1-1z" fill="#66798f"></path><g><circle cx="36.5" cy="5.5" r="2" fill="#b0c1d4"></circle><path d="M36.5 4c.827 0 1.5.673 1.5 1.5S37.327 7 36.5 7 35 6.327 35 5.5 35.673 4 36.5 4m0-1a2.5 2.5 0 100 5 2.5 2.5 0 000-5z" fill="#66798f"></path></g><g><circle cx="23" cy="20" r="1" fill="#967a44"></circle></g><g><circle cx="16" cy="20" r="1" fill="#967a44"></circle></g><path fill="none" stroke="#967a44" stroke-miterlimit="10" d="M19.5 3v32"></path></svg>