<svg viewBox="0 0 40 40" xmlns="http://www.w3.org/2000/svg"><path fill="#a1b1bd" d="M17.662 38.5l2.722-9.584 3.242.161-2.923 9.423z"></path><path d="M20.756 29.435l2.202.109L20.335 38h-2.011l2.432-8.565m-.745-1.038L17 39h4.071l3.223-10.391-4.283-.212z" fill="#788b9c"></path><circle cx="26.5" cy="5.5" r="4" fill="#f5ce85"></circle><path d="M26.5 2C28.43 2 30 3.57 30 5.5S28.43 9 26.5 9 23 7.43 23 5.5 24.57 2 26.5 2m0-1a4.5 4.5 0 100 9 4.5 4.5 0 000-9z" fill="#967a44"></path><g><path d="M22.822 38.5l1-7.973-4.064-1.791-.001.004-2.752-1.215a4.174 4.174 0 01-2.219-2.323 4.168 4.168 0 01.074-3.211l4.138-9.376a3.548 3.548 0 014.674-1.812l.133.059a3.524 3.524 0 012.063 2.698l2.216 6.521 4.02.542c.887.12 1.512.939 1.392 1.827a1.627 1.627 0 01-1.605 1.407 1.63 1.63 0 01-.25-.02l-5.091-.781a1.949 1.949 0 01-1.564-1.328l-.894-2.738-2.628 5.956 4.125 2.742a3.175 3.175 0 011.382 3.037L25.956 38.5h-3.134z" fill="#b6c9d6"></path><path d="M22.242 11c.423 0 .836.088 1.227.26l.132.058a3.033 3.033 0 011.772 2.319l.013.086.028.082 2.095 6.144.2.586.613.083 3.714.501c.614.083 1.046.65.964 1.264a1.126 1.126 0 01-1.284.961l-5.091-.782a1.45 1.45 0 01-1.165-.989l-.488-1.495-.811-2.483-1.055 2.39-1.931 4.375-.34.77.701.466 3.775 2.51a2.64 2.64 0 011.163 2.555L25.517 38h-2.128l.883-7.041.093-.739-.681-.3-3.239-1.428-.864-.376-2.374-1.048a3.701 3.701 0 01-1.89-4.875l4.138-9.376A3.045 3.045 0 0122.242 11m0-1c-1.554 0-3.035.9-3.703 2.413l-4.138 9.376a4.697 4.697 0 002.401 6.193l3.237 1.428.002-.004 3.239 1.428L22.255 39h4.14l1.071-8.211a3.656 3.656 0 00-1.601-3.517l-3.775-2.51 1.931-4.375.488 1.495a2.458 2.458 0 001.964 1.667l5.091.782a2.124 2.124 0 10.606-4.203l-3.714-.501-2.095-6.144a4.035 4.035 0 00-2.356-3.078l-.133-.058a4 4 0 00-1.63-.347z" fill="#788b9c"></path></g><g><path d="M6.531 38.5c.076-.762.34-2.225 1.263-3.15.561-.564 1.304-.85 2.206-.85h.333l.129-.308c.011-.025 1-2.328 3.052-2.654.06 1.222.362 3.128 1.652 3.336 1.541.425 2.202 2.071 2.316 3.626H6.531z" fill="#a6714e"></path><path d="M13.06 32.177c.147 1.375.617 2.916 1.96 3.18 1.138.332 1.706 1.458 1.901 2.644H7.105c.128-.715.411-1.662 1.041-2.295C8.617 35.231 9.224 35 10 35l.664-.004.259-.609c.008-.02.72-1.661 2.137-2.21M14 31c-2.756 0-4 3-4 3-4.029 0-4 5-4 5h12c0-2.115-.869-4.104-2.756-4.619C14.145 34.203 14 31.901 14 31z" fill="#7a4f34"></path></g></svg>