<svg viewBox="0 0 40 40" xmlns="http://www.w3.org/2000/svg"><path fill="#f2faff" d="M10.942 18.57l1.501-15.942 12.795 3.241-.132 6.809 2.113 11.709-10.874 5.456z"></path><path d="M12.886 3.256l11.844 3-.124 6.412-.002.1.018.098 2.038 11.243-10.084 5.06-5.123-10.689 1.433-15.224M12 2l-1.569 16.662 5.683 11.857 11.663-5.852-2.172-11.979.14-7.206L12 2z" fill="#788b9c"></path><path fill="#f2faff" d="M13.535 22.643l.954-10.504L20.253.611l14.062 4.688-4.806 10.573-.955 11.464z"></path><path d="M20.507 1.223L33.63 5.597l-4.54 9.989-.072.158-.014.173-.896 10.756-14.038-4.387.91-10.008 5.527-11.055M20 0l-6 12-1 11 16 5 1-12 5-11-15-5z" fill="#788b9c"></path><path d="M12.903 37.5a2.42 2.42 0 01-2.388-2.083L6.573 6.5h28.854l-3.942 28.917a2.417 2.417 0 01-2.388 2.083H12.903z" fill="#c2e8ff"></path><path d="M34.854 7l-3.866 28.349A1.915 1.915 0 0129.097 37H12.903c-.95 0-1.763-.71-1.892-1.651L7.146 7h27.708M36 6H6l4.021 29.484A2.908 2.908 0 0012.903 38h16.194a2.908 2.908 0 002.882-2.516L36 6z" fill="#7496c4"></path><g><path fill="#d9f1ff" d="M10.942 18.571L12.079 6.5h13.147l-.12 6.178 2.113 11.709-10.874 5.456z"></path><path d="M24.716 7l-.11 5.668-.002.1.018.098 2.038 11.243-10.084 5.06-5.123-10.689L12.534 7h12.182m1.02-1H11.623l-1.192 12.662 5.683 11.857 11.663-5.852-2.172-11.979L25.736 6z" fill="#7496c4"></path></g><g><path fill="#d9f1ff" d="M13.535 22.643l.954-10.504 2.82-5.639h16.46l-4.26 9.372-.955 11.464z"></path><path d="M32.992 7l-3.903 8.586-.072.158-.014.173-.896 10.756-14.038-4.387.91-10.008L17.618 7h15.374m1.553-1H17l-3 6-1 11 16 5 1-12 4.545-10z" fill="#7496c4"></path></g></svg>