<svg viewBox="0 0 40 40" xmlns="http://www.w3.org/2000/svg"><path d="M4 23.5c-.827 0-1.5-.673-1.5-1.5V4c0-.827.673-1.5 1.5-1.5h12.5v8h-4.602l8.099 9.255L28.24 10.5H23.5v-8H36c.827 0 1.5.673 1.5 1.5v18c0 .827-.673 1.5-1.5 1.5H4z" fill="#99c99e"></path><path d="M36 3c.551 0 1 .449 1 1v18c0 .551-.449 1-1 1H4c-.551 0-1-.449-1-1V4c0-.551.449-1 1-1h12v7H10.796l1.451 1.659 7 8 .746.853.753-.846 7.125-8L29.355 10H24V3h12m0-1H23v9h4.125L20 19l-7-8h4V2H4a2 2 0 00-2 2v18a2 2 0 002 2h32a2 2 0 002-2V4a2 2 0 00-2-2z" fill="#5e9c76"></path><path fill="none" stroke="#5e9c76" stroke-miterlimit="10" d="M7.5 38v-9.5H13M22.5 28v9.5H27M29.5 28v9.5H34M12 32.5H7.5M19.5 28v7.75c0 .962-.787 1.75-1.75 1.75h-.501c-.962 0-1.75-.787-1.75-1.75V28"></path></svg>