<svg viewBox="0 0 40 40" xmlns="http://www.w3.org/2000/svg"><path fill="#f78f8f" d="M30.5 14.5h6v24h-6z"></path><path d="M36 15v23h-5V15h5m1-1h-7v25h7V14z" fill="#c74343"></path><path fill="#f78f8f" d="M12.5 1.5h6v37h-6z"></path><path d="M18 2v36h-5V2h5m1-1h-7v38h7V1z" fill="#c74343"></path><path fill="#c2e8ff" d="M21.5 21.5h6v17h-6z"></path><path d="M27 22v16h-5V22h5m1-1h-7v18h7V21z" fill="#7496c4"></path><g><path fill="#c2e8ff" d="M3.5 6.5h6v32h-6z"></path><path d="M9 7v31H4V7h5m1-1H3v33h7V6z" fill="#7496c4"></path></g><path fill="none" stroke="#788b9c" stroke-miterlimit="10" d="M39 38.5H1"></path></svg>