<svg viewBox="0 0 40 40" xmlns="http://www.w3.org/2000/svg"><path d="M20 38.5C9.799 38.5 1.5 30.201 1.5 20S9.799 1.5 20 1.5 38.5 9.799 38.5 20 30.201 38.5 20 38.5zm0-34C11.453 4.5 4.5 11.453 4.5 20S11.453 35.5 20 35.5 35.5 28.547 35.5 20 28.547 4.5 20 4.5z" fill="#8bb7f0"></path><path d="M20 2c9.925 0 18 8.075 18 18s-8.075 18-18 18S2 29.925 2 20 10.075 2 20 2m0 34c8.822 0 16-7.178 16-16S28.822 4 20 4 4 11.178 4 20s7.178 16 16 16m0-35C9.507 1 1 9.507 1 20s8.507 19 19 19 19-8.507 19-19S30.493 1 20 1zm0 34c-8.284 0-15-6.716-15-15 0-8.284 6.716-15 15-15s15 6.716 15 15c0 8.284-6.716 15-15 15z" fill="#4e7ab5"></path><path d="M38.313 15a18.879 18.879 0 00-2.179-5h-4.976C28.412 6.938 24.437 5 20 5 11.716 5 5 11.716 5 20c0 8.284 6.716 15 15 15s15-6.716 15-15c0-1.756-.317-3.434-.872-5h4.185z" fill="#fff"></path><path fill="none" stroke="#66798f" stroke-width="2" stroke-linecap="round" stroke-miterlimit="10" d="M13.005 9.665L20 20l-5.846 5.846"></path><circle cx="20" cy="20" r="1.5" fill="#66798f"></circle><circle cx="20" cy="7" r="1" fill="#c5d4de"></circle><circle cx="20" cy="33" r="1" fill="#c5d4de"></circle><circle cx="7" cy="20" r="1" fill="#c5d4de"></circle><circle cx="33" cy="20" r="1" fill="#c5d4de"></circle><path fill="#8bb7f0" d="M27.993 12.357l7.793-7.793v7.793z"></path><path d="M35.286 5.771v6.086H29.2l6.086-6.086m1-2.414l-9.5 9.5h9.5v-9.5z" fill="#4e7ab5"></path><path d="M30.496 6.626a17.072 17.072 0 012.622 2.561" fill="none" stroke="#8bb7f0" stroke-width="2" stroke-miterlimit="10"></path></svg>