<svg viewBox="0 0 40 40" xmlns="http://www.w3.org/2000/svg"><path d="M30.5 24.731c-2.206 0-4-1.846-4-4.116 0-2.269 1.794-4.115 4-4.115 2.841 0 4 .747 4 2.577 0 1.956-.836 5.654-4 5.654zm-21 0c-3.164 0-4-3.698-4-5.654 0-1.831 1.159-2.577 4-2.577 2.206 0 4 1.846 4 4.115 0 2.27-1.794 4.116-4 4.116z" fill="#e8d47b"></path><path d="M30.5 17c3.232 0 3.5.982 3.5 2.077 0 1.783-.731 5.154-3.5 5.154-1.93 0-3.5-1.622-3.5-3.615C27 18.622 28.57 17 30.5 17m-21 0c1.93 0 3.5 1.622 3.5 3.615 0 1.994-1.57 3.615-3.5 3.615-2.768 0-3.5-3.371-3.5-5.154C6 17.982 6.268 17 9.5 17m21-1c-2.485 0-4.5 2.066-4.5 4.615s2.015 4.615 4.5 4.615c3.349 0 4.5-3.605 4.5-6.154S32.985 16 30.5 16zm-21 0c-2.485 0-4.5.528-4.5 3.077s1.16 6.154 4.5 6.154c2.485 0 4.5-2.066 4.5-4.615S11.985 16 9.5 16z" fill="#ba9b48"></path><path d="M20 37.318c-1.762 0-3.476-.352-5.096-1.045A12.964 12.964 0 017.09 23.576l.66-10.568C8.154 6.555 13.535 1.5 20 1.5s11.846 5.055 12.25 11.508l.661 10.568a12.962 12.962 0 01-7.814 12.696A12.876 12.876 0 0120 37.318z" fill="#ffeea3"></path><path d="M20 2c6.202 0 11.364 4.849 11.75 11.039l.661 10.568a12.46 12.46 0 01-7.513 12.205A12.37 12.37 0 0120 36.817a12.37 12.37 0 01-4.899-1.005 12.46 12.46 0 01-7.513-12.205l.662-10.568C8.636 6.849 13.798 2 20 2m0-1C13.255 1 7.672 6.245 7.251 12.977l-.66 10.568a13.435 13.435 0 0018.701 13.187 13.436 13.436 0 008.117-13.187l-.661-10.568C32.328 6.245 26.745 1 20 1z" fill="#ba9b48"></path><path d="M24.071 34.315c-2.216 0-2.965-3.458-4.071-3.458s-1.855 3.458-4.071 3.458c-4.141 0-8.852-8.465-8.852-8.465C8.336 34.26 16.05 39 20 39s11.669-4.74 12.929-13.15c0 0-4.716 8.465-8.858 8.465z" fill="#ba9b48"></path><path d="M13 34l2-6c2-.477 3-2 3-2s.743.5 1.991.5S22 26 22 26s1.003 1.489 3 2l2 6" fill="none" stroke="#ba9b48" stroke-width="2" stroke-miterlimit="10"></path><circle cx="25.5" cy="19.5" r="1.5" fill="#36404d"></circle><circle cx="14.5" cy="19.5" r="1.5" fill="#36404d"></circle><g><path fill="#ba9b48" d="M23 16h6v1h-6z"></path></g><g><path fill="#ba9b48" d="M11 16h6v1h-6z"></path></g></svg>