<svg viewBox="0 0 40 40" xmlns="http://www.w3.org/2000/svg"><path d="M27 38.5h0a3.5 3.5 0 01-3.5-3.5v-2.1h7V35a3.5 3.5 0 01-3.5 3.5z" fill="none" stroke="#4e7ab5" stroke-miterlimit="10"></path><path d="M20.314 33.5L17.537 2.765C18.928 2.454 23.486 1.5 27 1.5c3.517 0 8.073.954 9.463 1.265L33.686 33.5H20.314z" fill="#b6c9d6"></path><path d="M27 2c3.163 0 7.201.788 8.925 1.159L33.229 33H20.771L18.075 3.159C19.798 2.788 23.834 2 27 2m0-1c-4.286 0-10 1.375-10 1.375L19.857 34h14.286L37 2.375S31.286 1 27 1z" fill="#788b9c"></path><circle cx="24" cy="28" r="1" fill="#ffeea3"></circle><circle cx="24" cy="23" r="1" fill="#ffeea3"></circle><circle cx="24" cy="18" r="1" fill="#ffeea3"></circle><circle cx="24" cy="13" r="1" fill="#ffeea3"></circle><circle cx="24" cy="8" r="1" fill="#ffeea3"></circle><path d="M21.102 2.584c-1.245.207-2.33.425-3.028.575L20.771 33h1.201l-.87-30.416z" fill="#9cb1bf"></path><path d="M13 38.5h0A3.5 3.5 0 019.5 35v-2.1h7V35a3.5 3.5 0 01-3.5 3.5z" fill="none" stroke="#4e7ab5" stroke-miterlimit="10"></path><path d="M6.314 33.5L3.537 2.765C4.928 2.454 9.486 1.5 13 1.5c3.517 0 8.073.954 9.463 1.265L19.686 33.5H6.314z" fill="#b6c9d6"></path><path d="M13 2c3.163 0 7.201.788 8.925 1.159L19.229 33H6.771L4.075 3.159C5.798 2.788 9.834 2 13 2m0-1C8.714 1 3 2.375 3 2.375L5.857 34h14.286L23 2.375S17.286 1 13 1z" fill="#788b9c"></path><circle cx="10" cy="28" r="1" fill="#ffeea3"></circle><circle cx="10" cy="23" r="1" fill="#ffeea3"></circle><circle cx="10" cy="18" r="1" fill="#ffeea3"></circle><circle cx="10" cy="13" r="1" fill="#ffeea3"></circle><circle cx="10" cy="8" r="1" fill="#ffeea3"></circle><g><path d="M7.102 2.584c-1.245.207-2.33.425-3.028.575L6.771 33h1.201l-.87-30.416z" fill="#9cb1bf"></path></g></svg>