<svg viewBox="0 0 40 40" xmlns="http://www.w3.org/2000/svg"><path fill="#c2805a" d="M4.5 7.5h34v28h-34z"></path><path d="M38 8v27H5V8h33m1-1H4v29h35V7z" fill="#a16a4a"></path><path fill="#ffc49c" d="M1.5 4.5h34v28h-34z"></path><path d="M35 5v27H2V5h33m1-1H1v29h35V4z" fill="#a16a4a"></path><path fill="#c2805a" d="M25 18l-7 6 10 8h7v-5z"></path><ellipse cx="28.541" cy="11.5" rx="2.541" ry="2.5" fill="#fff"/><path fill="#e09367" d="M30 32H2v-7l11-9z"></path><g><path d="M34 6v25H3V6h31m1-1H2v27h33V5z" fill="#fff"></path></g></svg>