<svg viewBox="0 0 40 40" xmlns="http://www.w3.org/2000/svg"><path d="M20 38.5c-1.739 0-3.5-1.546-3.5-4.5 0-3.46 1.479-7.903 2.945-10.772l.081-.158-3.098-14.557C15.856 6.071 14.433 4.5 12.8 4.5c-1.964 0-4.077 1.898-4.283 5H8.5V9c0-4.136 2.211-7.5 4.929-7.5 2.145 0 4.282 2.189 4.973 5.093 0 0 .085.379.107.499l2.501 12.986L27.357 1.5h3.874L21.7 22.959l.047.171c.705 2.6 1.753 7.526 1.753 10.44 0 3.202-1.803 4.93-3.5 4.93z" fill="#8bb7f0"></path><path d="M30.462 2l-9.146 20.594-.144.325.093.343C22.106 26.366 23 31.035 23 33.571 23 36.448 21.454 38 20 38c-1.445 0-3-1.252-3-4 0-3.377 1.452-7.73 2.89-10.545l.161-.316-.074-.347-3.064-14.403C16.288 5.723 14.674 4 12.8 4c-1.14 0-2.325.559-3.232 1.572C10.328 3.442 11.774 2 13.429 2c1.888 0 3.859 2.068 4.483 4.695 0 .002.083.372.106.494l2.145 11.136.712 3.695 1.217-3.561L27.715 2h2.747M32 1h-5l-5.855 17.136L19 7c-.023-.125-.112-.523-.112-.523C18.139 3.326 15.787 1 13.429 1 10.43 1 8 4.503 8 9v1h1c0-2.998 1.926-5 3.8-5 1.455 0 2.657 1.559 3.139 3.617L19 23c-1.443 2.823-3 7.384-3 11 0 3.417 2.126 5 4 5 2.006 0 4-1.958 4-5.429 0-2.85-1-7.728-1.771-10.571L32 1z" fill="#4e7ab5"></path></svg>