<svg viewBox="0 0 40 40" xmlns="http://www.w3.org/2000/svg"><path fill="#dbf2ff" d="M2.5 38.5V10.267l17.497-6.731L37.5 10.267V38.5z"></path><path d="M19.997 4.071L37 10.61V38H3V10.61l16.997-6.539m0-1.071L2 9.923V39h36V9.923L19.997 3z" fill="#7496c4"></path><path fill="#ffc49c" d="M19.997 5.457L1.5 13.247V9.332l18.497-7.789L38.5 9.332v3.915z"></path><path d="M19.997 2.085L38 9.664v2.83L20.385 5.078l-.388-.163-.388.163L2 12.494v-2.83l17.997-7.579m0-1.085L1 9v5l18.997-8L39 14V9L19.997 1z" fill="#a16a4a"></path><path fill="#b5ddf5" d="M3 34h34v4H3z"></path><path fill="#b0c1d4" d="M8.5 17.5h23v21h-23z"></path><path d="M31 18v20H9V18h22m1-1H8v22h24V17z" fill="#66798f"></path><path fill="#8bb7f0" d="M17.5 10.5h5v4h-5z"></path><path d="M22 11v3h-4v-3h4m1-1h-6v5h6v-5z" fill="#4e7ab5"></path><path fill="#93a7bd" d="M9 17h22v2H9z"></path><path fill="#c2d5eb" d="M9 20h22v1H9zM9 22h22v1H9zM9 24h22v1H9zM9 26h22v1H9zM9 28h22v1H9zM9 30h22v1H9zM9 32h22v1H9zM9 34h22v1H9zM9 36h22v1H9z"></path><path fill="none" stroke="#66798f" stroke-miterlimit="10" d="M17 35.5h6"></path></svg>