<svg viewBox="0 0 40 40" xmlns="http://www.w3.org/2000/svg"><path d="M27 17.5c-1.471 0-2.982-.504-4.444-.991-1.325-.442-2.691-.897-4.056-.991V11.5h2.632l.114-.065C21.28 11.416 24.694 9.5 27 9.5c.328 0 .699.026 1.108.054.525.036 1.109.076 1.739.076 2.209 0 5.412-.456 8.592-4.121C37.942 11.698 34.349 17.5 27 17.5z" fill="#dcd5f2"></path><path d="M37.759 6.948C36.862 12.314 33.437 17 27 17c-1.39 0-2.797-.469-4.286-.966-1.208-.403-2.449-.816-3.714-.971V12h2.263l.229-.13C22.411 11.35 25.191 10 27 10c.304 0 .661.025 1.074.053.526.036 1.122.077 1.774.077 2.064 0 4.957-.379 7.911-3.182M39 4c-3.245 4.452-6.587 5.13-9.152 5.13C28.725 9.13 27.752 9 27 9c-2.468 0-6 2-6 2h-3v5c2.932 0 5.931 2 9 2 8.129 0 12-6.807 12-14z" fill="#8b75a1"></path><path d="M4.107 20.43c-1.511 0-2.607-1.243-2.607-2.956 0-4.218 9.155-6.846 16-6.97v5.808c-2.405.189-7.713 1.318-11.429 3.515-.675.401-1.337.603-1.964.603z" fill="#ffeea3"></path><path d="M17 11.014v4.845c-2.628.291-7.624 1.434-11.183 3.538-.598.354-1.173.533-1.71.533C2.867 19.93 2 18.92 2 17.475c0-2.883 6.477-6.216 15-6.461M18 10c-6.997 0-17 2.7-17 7.475 0 1.969 1.288 3.456 3.108 3.456.679 0 1.431-.207 2.219-.672 3.833-2.267 9.609-3.419 11.674-3.472V10H18z" fill="#ba9b48"></path><path d="M18 17.5c-.827 0-1.5-.673-1.5-1.5v-5c0-.827.673-1.5 1.5-1.5s1.5.673 1.5 1.5v5c0 .827-.673 1.5-1.5 1.5z" fill="#ffeea3"></path><path d="M18 10c.551 0 1 .449 1 1v5c0 .551-.449 1-1 1s-1-.449-1-1v-5c0-.551.449-1 1-1m0-1a2 2 0 00-2 2v5a2 2 0 104 0v-5a2 2 0 00-2-2z" fill="#ba9b48"></path><path d="M24.482 21.5c-.094-1.365-.549-2.73-.991-4.056-.487-1.462-.991-2.973-.991-4.444 0-7.349 5.802-10.942 11.991-11.44-4.487 3.895-4.214 7.876-4.045 10.331.028.409.054.781.054 1.109 0 2.31-1.916 5.719-1.936 5.753l-.064.115V21.5h-4.018z" fill="#dcd5f2"></path><path d="M33.05 2.242c-3.513 3.7-3.263 7.354-3.103 9.684.028.413.053.77.053 1.074 0 1.803-1.35 4.587-1.87 5.508l-.13.229V21h-3.063c-.155-1.265-.568-2.505-.971-3.714C23.469 15.797 23 14.39 23 13c0-6.436 4.684-9.861 10.05-10.758M36 1c-7.193 0-14 3.871-14 12 0 3.069 2 6.068 2 9h5v-3s2-3.532 2-6-1.401-7.334 5-12z" fill="#8b75a1"></path><g><circle cx="26.5" cy="13.5" r="1.5" fill="#8b75a1"></circle></g><g><path d="M22.525 38.5c-1.164 0-2.149-.509-2.636-1.361-.512-.897-.411-2.037.283-3.21 2.197-3.716 3.325-9.023 3.515-11.428h5.808c-.123 6.844-2.752 15.999-6.97 15.999z" fill="#ffeea3"></path><path d="M28.986 23c-.245 8.523-3.578 15-6.46 15-.982 0-1.805-.415-2.201-1.109-.419-.734-.32-1.696.279-2.708 2.104-3.559 3.247-8.555 3.538-11.183h4.844M30 22h-6.786c-.053 2.065-1.206 7.841-3.472 11.674-1.714 2.899.081 5.326 2.783 5.326C27.3 39 30 28.997 30 22z" fill="#ba9b48"></path></g><g><path d="M24 23.5c-.827 0-1.5-.673-1.5-1.5s.673-1.5 1.5-1.5h5c.827 0 1.5.673 1.5 1.5s-.673 1.5-1.5 1.5h-5z" fill="#ffeea3"></path><path d="M29 21c.551 0 1 .449 1 1s-.449 1-1 1h-5c-.551 0-1-.449-1-1s.449-1 1-1h5m0-1h-5a2 2 0 100 4h5a2 2 0 100-4z" fill="#ba9b48"></path></g></svg>