<svg viewBox="0 0 40 40" xmlns="http://www.w3.org/2000/svg"><path d="M20 38.5c-7.217 0-14.5-3.865-14.5-12.5 0-9.975 12.227-22.138 14.483-24.297C22.2 4.031 34.5 17.341 34.5 26c0 8.635-7.283 12.5-14.5 12.5z" fill="#8bb7f0"></path><path d="M19.967 2.414C22.861 5.497 34 17.894 34 26c0 8.289-7.031 12-14 12S6 34.289 6 26C6 16.67 17.034 5.278 19.967 2.414M20 1S5 14.721 5 26c0 8.294 6.706 13 15 13s15-4.706 15-13c0-9.786-15-25-15-25z" fill="#4e7ab5"></path><g><path d="M20 38.5c-3.727 0-7.5-2.92-7.5-8.5 0-4.165 2.019-8.852 2.963-10.816.881 1.98 2.191 4.433 3.273 4.433a.861.861 0 00.618-.263l.051-.051.034-.062c1.3-2.375 1.25-8.594 1.141-11.605C22.688 14.653 27.5 22.377 27.5 30c0 5.872-3.767 8.5-7.5 8.5z" fill="#c2e8ff"></path><path d="M21.128 13.346C23.432 16.919 27 23.502 27 30c0 5.526-3.516 8-7 8-3.479 0-7-2.748-7-8 0-3.486 1.463-7.373 2.463-9.624 1.817 3.741 2.887 3.741 3.273 3.741.362 0 .707-.145.971-.409l.101-.101.069-.126c1.147-2.097 1.3-6.834 1.251-10.135M20 10s.656 9.975-1 13a.363.363 0 01-.264.117C17.607 23.117 15.5 18 15.5 18S12 24.402 12 30c0 6.152 4.268 9 8 9s8-2.589 8-9c0-10.009-8-20-8-20z" fill="#4e7ab5"></path></g></svg>