<svg viewBox="0 0 40 40" xmlns="http://www.w3.org/2000/svg"><path fill="#b0c1d4" d="M19 13h2v25h-2z"></path><path fill="#f78f8f" d="M18.5 8.5h3v3h-3z"></path><path d="M21 9v2h-2V9h2m1-1h-4v4h4V8z" fill="#c74343"></path><path d="M20 6.5c-2.11 0-6.595-1.675-8.687-2.505C13.368 3.162 17.752 1.5 20 1.5c1.364 0 2.475 1.122 2.475 2.5S21.364 6.5 20 6.5z" fill="#ffeea3"></path><path d="M20 2c1.089 0 1.975.897 1.975 2S21.089 6 20 6c-1.607 0-4.892-1.094-7.319-2.01C15.059 3.079 18.287 2 20 2m0-1c-3.125 0-10 3-10 3s7.075 3 10 3c1.643 0 2.975-1.343 2.975-3S21.643 1 20 1z" fill="#f5c276"></path><path fill="none" stroke="#c74343" stroke-miterlimit="10" d="M10 37l17-12M30 37L13 25M13 25l12-11M27 25L15 14"></path><g><path d="M8.618 38.5l5.786-27h11.191l5.786 27H8.618zm2.475-2h17.814l-4.928-23H16.02l-4.927 23z" fill="#c74343"></path><path d="M25.192 12l5.571 26H9.237l5.571-26h10.384M10.474 37h19.052l-.259-1.21-4.714-22-.17-.79h-8.765l-.169.79-4.714 22-.261 1.21M26 11H14L8 39h24l-6-28zM11.711 36l4.714-22h7.149l4.714 22H11.711z" fill="#ab3434"></path></g></svg>