<svg viewBox="0 0 40 40" xmlns="http://www.w3.org/2000/svg"><path d="M6.658 34.645l-.47-.411C4.549 32.801 3 31.448 3 29.325c0-3.23 3.047-6.124 4.867-7.853l.178-.169-.782-2.025c-.158.158-.351.341-.567.548C4.764 21.666 1 25.091 1 29.325c0 3.167 2.266 5.004 4.114 6.626C6.607 37.262 8 38.394 8 40h2c0-2.432-1.775-3.985-3.342-5.355z" fill="#66798f"></path><path fill="none" stroke="#8b75a1" stroke-width="2" stroke-miterlimit="10" d="M21 12L31 2h8"></path><path d="M13.5 23c0-4.642-.127-3.672 2.776-6.576" fill="none" stroke="#8b75a1" stroke-miterlimit="10"></path><path d="M13.626 29.8a5.464 5.464 0 01-3.889-1.611L6.81 25.263a5.507 5.507 0 010-7.778l8.113-8.113 10.705 10.704-8.114 8.113a5.46 5.46 0 01-3.888 1.611zm.732-13.686c-1.775 0-3.474.681-4.661 1.869l-1.452 1.452a2.549 2.549 0 000 3.598l3.723 3.723c.48.48 1.119.745 1.799.745s1.318-.265 1.799-.745l6.093-6.093-2.679-2.679c-1.206-1.206-2.847-1.87-4.622-1.87z" fill="#dcd5f2"></path><path d="M14.924 10.079l9.997 9.997-7.76 7.76a4.968 4.968 0 01-3.536 1.464 4.97 4.97 0 01-3.536-1.464L7.164 24.91a5.006 5.006 0 010-7.071l7.76-7.76M13.767 28c.813 0 1.578-.317 2.152-.892l5.739-5.739.707-.707-.707-.707-2.326-2.326c-1.299-1.299-3.066-2.015-4.975-2.015-1.906 0-3.734.734-5.015 2.015L7.89 19.081c-.573.575-.89 1.339-.89 2.153s.317 1.578.892 2.152l3.722 3.722a3.024 3.024 0 002.153.892m1.157-19.336l-8.467 8.467a6 6 0 000 8.485l2.926 2.926a5.98 5.98 0 004.243 1.757 5.984 5.984 0 004.243-1.757l8.467-8.467L14.924 8.664zM13.766 27c-.523 0-1.046-.2-1.445-.599l-3.722-3.722a2.045 2.045 0 010-2.891l1.452-1.452c1.129-1.129 2.712-1.722 4.308-1.722 1.546 0 3.102.557 4.267 1.722l2.326 2.326-5.739 5.739c-.4.399-.923.599-1.447.599z" fill="#8b75a1"></path><g><path d="M26.038 21.442a.954.954 0 01-.685-.285L14.355 9.94l3.803-3.803c.411-.411.957-.637 1.538-.637s1.127.226 1.538.637l1.098 1.098 2.021-.674a.485.485 0 01.186-.039c.178 0 .384.095.536.247l2.19 2.189c.214.215.237.555.191.781l-.695 2.077 1.168.595c.467.486.634.937.574 1.539L28.5 19c-.072.552-.293 1.093-.585 1.385l-1.059.712c-.274.236-.547.345-.818.345z" fill="#f78f8f"></path><path d="M19.697 6c.447 0 .868.174 1.185.491l.878.879.437.437.586-.195 1.755-.589c.029 0 .112.029.183.101l2.19 2.19c.05.05.075.169.062.285l-.551 1.652-.272.817.768.391.707.36c.323.355.424.651.381 1.083L28 13.95v4.984c-.062.437-.207.824-.389 1.043l-1.037.708-.05.034-.045.04a.685.685 0 01-.441.184.447.447 0 01-.324-.132L15.059 9.944l3.453-3.453A1.662 1.662 0 0119.697 6m0-1c-.685 0-1.369.261-1.892.784l-4.153 4.153L25 21.51c.288.288.658.432 1.038.432s.771-.144 1.1-.432l1.13-.771c.412-.412.65-1.081.732-1.739v-5c.082-.822-.196-1.422-.771-1.997l-.858-.436.576-1.727c.082-.411 0-.905-.329-1.234l-2.19-2.19c-.241-.241-.57-.394-.89-.394a.91.91 0 00-.344.065l-1.727.576-.879-.879A2.664 2.664 0 0019.697 5z" fill="#c74343"></path></g></svg>