<svg viewBox="0 0 40 40" xmlns="http://www.w3.org/2000/svg"><path d="M4.5 35.5V3.77A2.273 2.273 0 016.77 1.5h18.46a2.273 2.273 0 012.27 2.27V35.5h-23z" fill="#ffeea3"></path><path d="M25.23 2c.976 0 1.77.794 1.77 1.77V35H5V3.77C5 2.794 5.794 2 6.77 2h18.46m0-1H6.77A2.77 2.77 0 004 3.77V36h24V3.77A2.77 2.77 0 0025.23 1z" fill="#ba9b48"></path><path d="M1.5 38.5v-.73a2.273 2.273 0 012.27-2.27h24.46a2.273 2.273 0 012.27 2.27v.73h-29z" fill="#ffeea3"></path><path d="M28.23 36c.976 0 1.77.794 1.77 1.77V38H2v-.23c0-.976.794-1.77 1.77-1.77h24.46m0-1H3.77A2.77 2.77 0 001 37.77V39h30v-1.23A2.77 2.77 0 0028.23 35z" fill="#ba9b48"></path><path d="M32.715 16.98c-.709-.583-1.13-1.474-1.179-2.503-.048-1.008.277-2.015.892-2.763l.456-.514 2.937 2.808c.616.615.679.927.679 1.992v3.968l-3.785-2.988z" fill="#f78f8f"></path><path d="M32.914 11.92l2.607 2.185c.507.507.625.866.625 1.833L36 19l-2.96-2.4c-1.244-1.023-1.352-3.201-.25-4.541l.124-.139m-.497-1.003l-.375.479c-1.428 1.737-1.373 4.549.364 5.977L37 21l-.208-4.854c0-1.104.062-1.604-.708-2.375l-3.562-2.917-.105.063z" fill="#c74343"></path><g><path fill="#c2e8ff" d="M8.5 5.5h15v10h-15z"></path><path d="M23 6v9H9V6h14m1-1H8v11h16V5z" fill="#ba9b48"></path></g><path d="M29.31 8.31l6.429 5.642c.469.387.76.939.76 1.547V28c0 1.499-1.001 2.5-2.5 2.5h0c-1.512 0-2.5-.988-2.5-2.5v-4.5a2 2 0 00-2-2H28" fill="none" stroke="#66798f" stroke-miterlimit="10"></path></svg>