<svg viewBox="0 0 40 40" xmlns="http://www.w3.org/2000/svg"><path d="M2.5 38.5V36c0-2.481 2.019-4.5 4.5-4.5h26c2.481 0 4.5 2.019 4.5 4.5v2.5h-35z" fill="#b0c1d4"></path><path d="M33 32c2.206 0 4 1.794 4 4v2H3v-2c0-2.206 1.794-4 4-4h26m0-1H7a5 5 0 00-5 5v3h36v-3a5 5 0 00-5-5z" fill="#66798f"></path><path fill="#4b6477" d="M11.5 32.5h2v2h-2z"></path><path d="M13 33v1h-1v-1h1m1-1h-3v3h3v-3z" fill="#36404d"></path><path fill="#4b6477" d="M16.5 32.5h2v2h-2z"></path><path d="M18 33v1h-1v-1h1m1-1h-3v3h3v-3z" fill="#36404d"></path><path fill="#4b6477" d="M21.5 32.5h2v2h-2z"></path><path d="M23 33v1h-1v-1h1m1-1h-3v3h3v-3z" fill="#36404d"></path><path fill="#4b6477" d="M26.5 32.5h2v2h-2z"></path><path d="M28 33v1h-1v-1h1m1-1h-3v3h3v-3z" fill="#36404d"></path><g><path d="M19.667 28.5C14.25 28.5 9.5 23.75 9.5 18.333c0-4.015 2.208-7.667 3.294-9.222.323 1.049.92 2.739 1.779 4.148l.442.725.419-.738c2.514-4.423 4.231-9.507 4.821-11.374 2.139 1.878 9.578 8.953 9.578 16.46 0 5.607-4.561 10.168-10.166 10.168z" fill="#8bb7f0"></path><path d="M20.497 2.762c2.604 2.391 8.836 8.819 8.836 15.571 0 5.33-4.336 9.667-9.667 9.667C14.517 28 10 23.483 10 18.333c0-3.269 1.533-6.311 2.643-8.086.353.997.856 2.211 1.503 3.273l.884 1.451.839-1.477c2.285-4.02 3.887-8.472 4.628-10.732M20 1s-1.862 6.478-5 12c-1.3-2.134-2-5-2-5s-4 4.792-4 10.333S13.776 29 19.667 29s10.667-4.776 10.667-10.667C30.333 9.262 20 1 20 1z" fill="#4e7ab5"></path></g><path d="M14 23c0-5.038 6-7.438 6-13 2.513 3.768 6 7.432 6 13 0 2.946-3.054 5-6 5s-6-2.054-6-5z" fill="#c2e8ff"></path><path d="M17 25c0-1.657 3-6 3-6s3 4.343 3 6a3 3 0 11-6 0z" fill="#fff"></path><g><path fill="#4b6477" d="M31.5 32.5h2v2h-2z"></path><path d="M33 33v1h-1v-1h1m1-1h-3v3h3v-3z" fill="#36404d"></path></g><g><path fill="#4b6477" d="M6.5 32.5h2v2h-2z"></path><path d="M8 33v1H7v-1h1m1-1H6v3h3v-3z" fill="#36404d"></path></g></svg>