<svg viewBox="0 0 40 40" xmlns="http://www.w3.org/2000/svg"><path d="M6.707 31l1-1L5 27.293l-1 1-.731-.732C1.361 25.451.5 22.49.5 20.5a1.001 1.001 0 012 0c0 .566.094 2.566 1.295 4.539l.331.543 9.374-9.375 1.293 1.293-8.5 8.5L9 28.707l8.5-8.5 1.293 1.293L8 32.293 6.707 31z" fill="#b6c9d6"></path><path d="M13.5 16.914l.586.586-7.793 7.793-.707.707.707.707 2 2 .707.707.707-.707 7.793-7.793.586.586-7.793 7.793-2 2-.293.293L7.414 31l.293-.293.707-.707-.707-.707-2-2L5 26.586l-.707.707-.293.293-.36-.36C1.826 25.208 1 22.328 1 20.5a.5.5 0 011 0c0 1.598.511 3.392 1.367 4.799l.662 1.087.9-.9 8.571-8.572m0-1.414l-9.279 9.279C3.341 23.332 3 21.657 3 20.5a1.5 1.5 0 10-3 0c0 2.068.896 5.183 2.915 7.415L4 29l1-1 2 2-1 1 2 2 1-1 2-2 8.5-8.5-2-2L9 28l-2-2 8.5-8.5-2-2z" fill="#66798f"></path><path fill="#e1ebf2" d="M21.868 24.839L38 8.707 39.293 10 23.161 26.132z"></path><path d="M38 9.414l.586.586-15.425 15.425-.586-.586L38 9.414M38 8L21.161 24.839l2 2L40 10l-2-2z" fill="#788b9c"></path><path fill="#e1ebf2" d="M18.368 21.339L34.5 5.207 35.793 6.5 19.661 22.632z"></path><path d="M34.5 5.914l.586.586-15.425 15.425-.586-.586L34.5 5.914m0-1.414L17.661 21.339l2 2L36.5 6.5l-2-2z" fill="#788b9c"></path><path fill="#e1ebf2" d="M14.868 17.839L31 1.707 32.293 3 16.161 19.132z"></path><path d="M31 2.414l.586.586-15.425 15.425-.586-.586L31 2.414M31 1L14.161 17.839l2 2L33 3l-2-2z" fill="#788b9c"></path><path fill="#b6c9d6" d="M27.707 2.71l.003-.003L38.293 13.29l-.003.003z"></path><path fill="#66798f" d="M27.71 2l-.71.71L38.29 14l.71-.71L27.71 2z"></path><g><path fill="#b6c9d6" d="M24.707 5.71l.003-.003L35.293 16.29l-.003.003z"></path><path fill="#66798f" d="M24.71 5l-.71.71L35.29 17l.71-.71L24.71 5z"></path></g><g><path fill="#e1ebf2" d="M9.707 28l7.793-7.793 5.793 5.792-7.793 7.793z"></path><path d="M17.5 20.914L22.586 26 15.5 33.086 10.414 28l7.086-7.086m0-1.414L9 28l6.5 6.5L24 26l-6.5-6.5z" fill="#788b9c"></path></g><g><path fill="#b6c9d6" d="M12.707 33.381l4.674-4.674 3.912 3.912-4.674 4.674z"></path><path d="M17.381 29.414l3.205 3.205-3.967 3.967-3.205-3.205 3.967-3.967m0-1.414L12 33.381 16.619 38 22 32.619 17.381 28z" fill="#66798f"></path></g><g><path d="M24.221 28.5c-.319 0-.62-.125-.847-.351L11.86 16.636a1.2 1.2 0 010-1.693l.081-.081a1.193 1.193 0 011.695-.001L25.15 26.374c.227.226.351.527.351.847 0 .32-.124.621-.351.847l-.081.081a1.198 1.198 0 01-.848.351z" fill="#b6c9d6"></path><path d="M12.789 15.01c.186 0 .361.073.493.204l11.513 11.513a.698.698 0 010 .986l-.082.082a.696.696 0 01-.985.001L12.214 16.282a.696.696 0 010-.986l.082-.082a.696.696 0 01.493-.204m0-1c-.434 0-.869.166-1.2.497l-.082.082a1.698 1.698 0 000 2.401L23.02 28.503a1.693 1.693 0 002.4 0l.082-.082a1.698 1.698 0 000-2.401L13.989 14.507a1.691 1.691 0 00-1.2-.497z" fill="#66798f"></path></g></svg>