<svg viewBox="0 0 40 40" xmlns="http://www.w3.org/2000/svg"><path d="M20.5 13.101c2.977 0 5.399 2.422 5.399 5.399s-2.422 5.399-5.399 5.399-5.399-2.422-5.399-5.399 2.422-5.399 5.399-5.399m0-3.101a8.5 8.5 0 10.001 17.001A8.5 8.5 0 0020.5 10z" fill="#8b75a1"></path><path fill="#8b75a1" d="M19 25.667h3V39h-3z"></path><path fill="#8b75a1" d="M15 32h11v3H15zM39 11h-3V4h-7V1h10z"></path><path fill="#8b75a1" d="M23.94 13.94l12-12.001 2.12 2.121-12 12zM4 11H1V1h10v3H4z"></path><path fill="#8b75a1" d="M1.44 3.56l2.12-2.12 12.001 12-2.121 2.121z"></path><path fill="#8b75a1" d="M6 11.334L11.334 6l1.667 1.666L7.667 13z"></path></svg>