<svg viewBox="0 0 40 40" xmlns="http://www.w3.org/2000/svg"><path d="M20 20.5c-5.238 0-9.5-4.262-9.5-9.5s4.262-9.5 9.5-9.5 9.5 4.262 9.5 9.5-4.262 9.5-9.5 9.5z" fill="#ffeea3"></path><path d="M20 2c4.963 0 9 4.037 9 9s-4.037 9-9 9-9-4.037-9-9 4.037-9 9-9m0-1c-5.523 0-10 4.477-10 10s4.477 10 10 10 10-4.477 10-10S25.523 1 20 1z" fill="#ba9b48"></path><g><path d="M2.5 38.5v-2.299c0-7.608 11.157-10.49 12.021-10.701H25.48c.863.211 12.02 3.092 12.02 10.701V38.5h-35z" fill="#c2e8ff"></path><path d="M25.419 26C26.572 26.289 37 29.106 37 36.201V38H3v-1.799C3 29.106 13.428 26.289 14.581 26h10.838m.119-1H14.462S2 27.827 2 36.201V39h36v-2.799C38 27.827 25.538 25 25.538 25z" fill="#7496c4"></path></g></svg>