<svg viewBox="0 0 40 40" xmlns="http://www.w3.org/2000/svg"><path d="M8.5 19.5V13A9.51 9.51 0 0118 3.5h4a9.51 9.51 0 019.5 9.5v6.5z" fill="#e1ebf2"></path><path d="M22 4a9 9 0 019 9v6H9v-6a9 9 0 019-9h4m0-1h-4A10 10 0 008 13v7h24v-7A10 10 0 0022 3z" fill="#a3b7cc"></path><path fill="#e1ebf2" d="M19.5 3.5h1v16h-1z"></path><path d="M21 3h-2v17h2V3z" fill="#a3b7cc"></path><path d="M18 37.5A9.51 9.51 0 018.5 28v-9.5h23V28a9.51 9.51 0 01-9.5 9.5z" fill="#b0c1d4"></path><path d="M31 19v9a9 9 0 01-9 9h-4a9 9 0 01-9-9v-9h22m1-1H8v10a10 10 0 0010 10h4a10 10 0 0010-10V18z" fill="#66798f"></path><rect x="18" y="6" width="4" height="10" rx="1.5" ry="1.5" fill="#66798f"/></svg>