<svg viewBox="0 0 40 40" xmlns="http://www.w3.org/2000/svg"><path d="M20 35.5a2.475 2.475 0 01-1.851-.835l-.148-.165H1.333a.834.834 0 01-.833-.833V8.333c0-.459.374-.833.833-.833h37.334c.459 0 .833.374.833.833v25.334a.834.834 0 01-.833.833H21.999l-.148.165A2.475 2.475 0 0120 35.5z" fill="#8bb7f0"></path><path d="M38.667 8c.183 0 .333.15.333.333v25.333c0 .184-.15.334-.333.334H21.776l-.298.331c-.388.431-.913.669-1.478.669s-1.09-.238-1.478-.669L18.224 34H1.333A.334.334 0 011 33.667V8.333C1 8.15 1.15 8 1.333 8h37.334m0-1H1.333C.597 7 0 7.597 0 8.333v25.333C0 34.403.597 35 1.333 35h16.445c.549.61 1.336 1 2.221 1s1.672-.39 2.221-1h16.445c.738 0 1.335-.597 1.335-1.333V8.333C40 7.597 39.403 7 38.667 7z" fill="#4e7ab5"></path><path d="M19.45 33.5a2.504 2.504 0 00-2.45-2H2.5v-27h14.833c1.215 0 2.284 1.155 2.295 1.167l.37.413.374-.412c.01-.012 1.069-1.168 2.295-1.168H37.5v27H23c-1.207 0-2.218.86-2.45 2h-1.1z" fill="#fff"></path><path d="M37 5v26H23a3.006 3.006 0 00-2.829 2h-.343a3.006 3.006 0 00-2.829-2H3V5h14.333c.827 0 1.67.725 1.922 1l.741.82.746-.817C20.997 5.725 21.839 5 22.667 5H37m1-1H22.667C21.194 4 20 5.333 20 5.333S18.806 4 17.333 4H2v28h15a2 2 0 012 2h2a2 2 0 012-2h15V4z" fill="#788b9c"></path><path d="M22.667 5c-.982 0-1.913.99-1.922 1L20 6.832V33h.171A3.006 3.006 0 0123 31h14V5H22.667z" fill="#e1ebf2"></path><path fill="#66798f" d="M11 9h6v1h-6zM6 9h3v1H6M11 12h4v1h-4zM6 12h3v1H6M11 15h6v1h-6zM6 15h3v1H6M11 18h6v1h-6zM6 18h3v1H6M11 26h6v1h-6zM6 26h3v1H6M11 23h6v1h-6z"></path><path d="M27.218 15.539c0-.588.598-1.096 1.828-1.096 1.393 0 2.394.348 3.173.765v-1.985c-.579-.284-1.453-.451-2.626-.5l-1.217.029c-1.017.088-1.833.404-2.45.945-.617.541-.926 1.197-.926 1.966 0 3.041 5.785 3.135 5.785 4.801 0 .593-.842 1.052-1.781 1.052-1.922 0-3.455-.718-3.778-.948v2.037a7.544 7.544 0 003.15.677l1.217-.044c1.094-.108 1.936-.41 2.525-.907.587-.497.882-1.153.882-1.967.001-3.249-5.782-3.001-5.782-4.825z" fill="#f78f8f"></path><path fill="#f78f8f" d="M28.2 11h1.6v2.334h-1.6zM28.2 22.614h1.6v2.334h-1.6z"></path></svg>