<svg viewBox="0 0 40 40" xmlns="http://www.w3.org/2000/svg"><g fill="#788b9c"><path d="M3 8V3h5V2H2v6zM37 8h1V2h-6v1h5zM37 32v5h-5v1h6v-6zM3 32H2v6h6v-1H3z"></path></g><path d="M14 19.756C14 24.909 12.33 27 9.954 27 7.113 27 6 23.713 6 19.959 6 16.226 7.355 13 10.139 13 13.146 13 14 16.632 14 19.756zM8.667 20c0 3.246.486 4.9 1.375 4.9.939 0 1.416-1.993 1.416-4.9 0-2.503-.427-4.9-1.433-4.9-.872 0-1.358 1.823-1.358 4.9zM23.712 26.673c-.388.184-1.142.327-2.061.327C18.121 27 16 23.918 16 20c0-5.184 3.324-7 5.998-7 .938 0 1.591.184 1.856.367l-.504 1.865c-.307-.143-.653-.265-1.245-.265C20.594 14.967 19 16.592 19 20c0 3.286 1.356 4.9 2.989 4.9a4.72 4.72 0 001.285-.204l.438 1.977zM26 13.269A16.81 16.81 0 0129.019 13c1.52 0 2.891.228 3.799 1.034.866.765 1.14 1.696 1.14 2.896 0 1.489-.76 2.833-2.195 3.474v.041c.971.393 1.456 1.261 1.73 2.771.274 1.55.654 3.267.908 3.784h-2.8c-.189-.393-.598-1.799-.809-3.35-.253-1.717-.697-2.213-1.604-2.213H29V27h-3V13.269zm3 6.08h.271c1.203 0 1.729-.951 1.729-2.172 0-1.199-.336-2.026-1.56-2.068-.253 0-.292.02-.44.082v4.158z" fill="#8bb7f0"></path></svg>