<svg viewBox="0 0 40 40" xmlns="http://www.w3.org/2000/svg"><path fill="#ffc49c" d="M8.5 2.5h27v31h-27z"></path><path d="M35 3v30H9V3h26m1-1H8v32h28V2z" fill="#a16a4a"></path><path d="M5.5 35V5c0-1.378 1.121-2.5 2.5-2.5h.5V35h-3z" fill="#ffc49c"></path><path d="M8 3v31.5H6V5c0-1.103.897-2 2-2m1-1H8a3 3 0 00-3 3v30.5h4V2z" fill="#a16a4a"></path><path fill="#ffd5b8" d="M9 3h1v30H9z"></path><g><path d="M9 3H8a2 2 0 00-2 2v30.231h3V3z" fill="#db996c"></path></g><g><path d="M7.5 37.5c-1.103 0-2-.897-2-2s.897-2 2-2h28v.34c-.179.272-.5.87-.5 1.66s.321 1.388.5 1.66v.34h-28z" fill="#fff"></path><path d="M34.839 34a3.533 3.533 0 00-.339 1.5c0 .616.165 1.13.339 1.5H7.5c-.827 0-1.5-.673-1.5-1.5S6.673 34 7.5 34h27.339M36 33H7.5a2.5 2.5 0 100 5H36v-1s-.5-.597-.5-1.5.5-1.5.5-1.5v-1z" fill="#a16a4a"></path></g></svg>