<svg viewBox="0 0 40 40" xmlns="http://www.w3.org/2000/svg"><path fill="#66798f" d="M7 19h6v1H7z"></path><path fill="#66798f" d="M12 20V9h1v11zM12 31V20h1v11zM28 14V5h1v9z"></path><path fill="#66798f" d="M12 9h16v1H12zM28 5h10v1H28zM28 13h10v1H28zM28 35v-9h1v9zM13 30h15v1H13z"></path><path fill="#66798f" d="M28 26h10v1H28zM28 34h10v1H28z"></path><path fill="#8bb7f0" d="M16.5 5.5h8v8h-8z"></path><path d="M24 6v7h-7V6h7m1-1h-9v9h9V5z" fill="#4e7ab5"></path><path fill="#8bb7f0" d="M32.5 2.5h6v6h-6z"></path><path d="M38 3v5h-5V3h5m1-1h-7v7h7V2z" fill="#4e7ab5"></path><path fill="#8bb7f0" d="M32.5 10.5h6v6h-6z"></path><path d="M38 11v5h-5v-5h5m1-1h-7v7h7v-7z" fill="#4e7ab5"></path><path fill="#8bb7f0" d="M16.5 26.5h8v8h-8z"></path><path d="M24 27v7h-7v-7h7m1-1h-9v9h9v-9z" fill="#4e7ab5"></path><g><path fill="#8bb7f0" d="M32.5 23.5h6v6h-6z"></path><path d="M38 24v5h-5v-5h5m1-1h-7v7h7v-7z" fill="#4e7ab5"></path></g><g><path fill="#8bb7f0" d="M32.5 31.5h6v6h-6z"></path><path d="M38 32v5h-5v-5h5m1-1h-7v7h7v-7z" fill="#4e7ab5"></path></g><g><path fill="#bae0bd" d="M1.5 15.5h8v8h-8z"></path><path d="M9 16v7H2v-7h7m1-1H1v9h9v-9z" fill="#5e9c76"></path></g></svg>