<svg viewBox="0 0 40 40" xmlns="http://www.w3.org/2000/svg"><path d="M26 38.5c-8.034 0-13.05-5.384-14.505-15.57l-.051-.354-.35-.067C7.38 21.798 4.5 18.964 4.5 17c0-3.075 5.196-5.792 12.38-6.486l3.125 1.932 3.116-1.932C30.304 11.209 35.5 13.925 35.5 17c0 1.824-2.563 4.876-6.578 5.506l-.232.037-.324.545c-1.833 3.067-5.649 9.452-1.657 12.318 1.618.994 3.169 1.487 4.639 1.487.371 0 .717-.031 1.038-.085-1.36.874-3.424 1.692-6.386 1.692z" fill="#c2e8ff"></path><path d="M16.761 11.028l2.718 1.68.527.326.526-.326 2.709-1.68C29.968 11.713 35 14.256 35 17c0 1.65-2.398 4.423-6.155 5.012l-.465.073-.24.404-.205.343c-1.76 2.946-5.883 9.846-1.519 12.98l.03.021.031.019c1.276.783 2.536 1.27 3.757 1.456-1.122.408-2.52.692-4.234.692-9.792 0-13.023-8.234-14.01-15.141l-.101-.707-.701-.134C7.598 21.33 5 18.543 5 17c0-2.744 5.033-5.287 11.761-5.972M23 10l-2.996 1.858L17 10c-7.186.661-13 3.449-13 7 0 2.23 3.118 5.257 7 6 .496 3.469 2.529 16 15 16 6.607 0 9-4 9-4s-1.283 1.394-3.653 1.394c-1.185 0-2.642-.348-4.347-1.394-3.772-2.709.431-9.357 2-12 4.212-.661 7-3.853 7-6 0-3.551-5.814-6.339-13-7z" fill="#7496c4"></path><path d="M23.274 38.294c-2.407-.387-4.514-1.356-6.279-2.887 2.39-.022 5.91-.157 8.097-2.102a3.648 3.648 0 001.404 1.931c.435.268.862.497 1.284.69-1.053.962-2.481 1.963-4.506 2.368z" fill="#f78f8f"></path><path d="M24.878 34.116a4.18 4.18 0 001.327 1.526l.03.021.031.019c.204.125.41.244.617.355-.917.735-2.088 1.424-3.619 1.747-1.797-.301-3.419-.941-4.845-1.912 2.094-.089 4.592-.425 6.459-1.756m.532-1.88c-2.258 2.941-7.395 2.629-9.65 2.684 1.815 1.897 4.253 3.376 7.524 3.881 2.602-.496 4.262-1.908 5.396-3.043a10.682 10.682 0 01-1.891-.928c-.922-.662-1.319-1.567-1.379-2.594z" fill="#c74343"></path><path d="M11 22.506c8.969 0 10.438-7.004 16-7.004" fill="none" stroke="#7496c4" stroke-miterlimit="10"></path><path d="M20.471 17.556c-.142-2.064-.71-3.318-1.242-4.056h5.688c.242.086 1.127.436 1.457 1.034-2.434.195-4.199 1.623-5.903 3.022z" fill="#ffeea3"></path><path d="M24.836 14c.121.046.276.115.433.202-1.73.397-3.105 1.353-4.397 2.383-.157-1.1-.439-1.943-.757-2.585h4.721M25 13h-7s2.004.949 2.004 5.563c.116-.091.225-.171.338-.257l.38-.309c1.85-1.519 3.604-2.949 6.175-2.987A1.73 1.73 0 0127 15c0-1.404-2-2-2-2z" fill="#f5c276"></path><path d="M19.75 19.406c2.234 1.505 4.485 3.1 8.396 3.1H29" fill="none" stroke="#7496c4" stroke-miterlimit="10"></path><path d="M4.875 17H4c.057-.215.313-5 9-5h12v1H13c-7.969 0-8.114 3.958-8.125 4z" fill="#7496c4"></path><g><path d="M17 10l3.004 1.858L23 10V6c-1.404-.991-3-3-3-3s-1.659 2.047-3 3v4z" fill="#c2e8ff"></path></g><g><path d="M23.5 5.741l-.212-.149c-1.33-.939-2.881-2.883-2.896-2.902l-.391-.492-.392.491c-.016.02-1.6 1.994-2.896 2.902l-.213.148v.429c-.542-.388-1-.988-1-1.773 0-1.648 1.937-2.892 4.504-2.892 2.563 0 4.496 1.243 4.496 2.892 0 .914-.46 1.474-1 1.816v-.47z" fill="#f78f8f"></path><path d="M20.498 2.019C22.526 2.156 24 3.132 24 4.395c0 .347-.086.65-.256.906l-.167-.118c-1.268-.895-2.779-2.786-2.794-2.805l-.285-.359m-.995.001l-.285.357c-.428.536-1.763 2.084-2.792 2.805l-.134.094A1.503 1.503 0 0116 4.395c0-1.262 1.474-2.237 3.503-2.375m.501-1.017C17.007 1.003 15 2.521 15 4.395c0 1.252.938 2.199 2 2.605V6c1.373-.961 3-3 3-3s1.596 2.009 3 3v1c1.25-.438 2-1.353 2-2.605 0-1.874-1.998-3.392-4.996-3.392z" fill="#c74343"></path></g><g><path d="M20.005 12.5c-.369 0-3.505-.099-3.505-3.5 0-.821.609-2.142.895-2.679l.105-.089V9c0 1.105 1.292 1.5 2.5 1.5s2.5-.395 2.5-1.5V6.232l.105.089c.286.537.895 1.858.895 2.679 0 1.445-.558 2.468-1.658 3.038a4.4 4.4 0 01-1.835.462h-.002z" fill="#839cb2"></path><path d="M23 9c0 2.855-2.493 3-3.007 3-.5 0-2.993-.145-2.993-3 0 1.215 1.178 2 3 2s3-.785 3-2m-1-3.843V9c0 1-1.917 1-2 1s-2 0-2-1V5.157L17 6s-1 1.813-1 3c0 3.953 3.811 4 3.993 4h.014C20.188 13 24 12.953 24 9c0-1.187-1-3-1-3l-1-.843z" fill="#66798f"></path></g></svg>