<svg viewBox="0 0 40 40" xmlns="http://www.w3.org/2000/svg"><path fill="#e8d47b" d="M2.5 2.5h16v16h-16z"></path><path d="M18 3v15H3V3h15m1-1H2v17h17V2z" fill="#ba9b48"></path><path fill="#99c99e" d="M21.5 2.5h16v16h-16z"></path><path d="M37 3v15H22V3h15m1-1H21v17h17V2z" fill="#5e9c76"></path><path fill="#f78f8f" d="M21.5 21.5h16v16h-16z"></path><path d="M37 22v15H22V22h15m1-1H21v17h17V21z" fill="#c74343"></path><path fill="#8bb7f0" d="M2.5 21.5h16v16h-16z"></path><path d="M18 22v15H3V22h15m1-1H2v17h17V21z" fill="#4e7ab5"></path><path d="M30.719 13.051l-2.43 1.615c1.043 1.605 1.501 3.018 1.678 4.334h2.948c-.381-3.653-2.196-5.949-2.196-5.949zM25.581 11.907l1.714-2.317C25.075 7.895 22.862 7.232 21 6.995v2.931c2.946.472 4.558 1.977 4.558 1.977l.023.004zM27.262 36h-1.137L24 24h9.917l-7.578 5.771.923 6.229zM14.603 28.125l-.022-.004-1.713 2.317A13.084 13.084 0 0019 33v-2.941c-2.798-.512-4.397-1.934-4.397-1.934zM7 21c.342 3.743 2.21 6.213 2.21 6.213l2.431-1.616c-1.088-1.673-1.537-3.25-1.697-4.597H7z" fill="#fff"></path><ellipse cx="10.801" cy="6.853" rx=".449" ry=".34" fill="#fff"/><ellipse cx="10.718" cy="6.295" rx="1.307" ry="1.295" fill="#fff"/><path d="M7.937 7.067c-.828-.627-1.475-1.229-2.024-2.056h-.878c.431.92.895 1.541 1.445 2.313l1.457-.257zM6.949 7.99c.11.147.212.28.345.447L8.79 7.68c-.141-.087-.239-.163-.351-.247l.892-.333-1.05.218-.001-.002-.643.137-2.975.616.398.627 1.889-.706zM12.137 9.855c1.807-1.67 2.947-3.642 3.314-4.844h-.47c-1.989 2.707-4.003 3.718-4.003 3.718a9.91 9.91 0 01-1.761-.799l.485-.417-4.136 2.353.688.604 1.589-1.362c.728.851 1.27 1.373 1.27 1.373C6.763 13.731 6.96 17.153 6.96 19h2.757c-.068-.925-.213-3.609.208-5.015.505-1.683 1.052-2.327 1.052-2.327 2.421-.038 4.037 3.223 4.174 3.461.842-.19 2.556.164 2.849.347-1.084-3.544-5.863-5.611-5.863-5.611z" fill="#fff"></path></svg>