<svg viewBox="0 0 40 40" xmlns="http://www.w3.org/2000/svg"><path fill="#dcd5f2" d="M22.378 29.882l1.789-1.767 1.666 1.647L35.711 20l-9.878-9.762-4.044 3.997L27.622 20l-1.789 1.768-7.622-7.533 7.622-7.532L39.289 20 25.833 33.297z"></path><path d="M25.833 7.406L38.577 20 25.833 32.594l-2.744-2.712 1.077-1.065.964.952.703.695.703-.695 9.167-9.059.72-.71-.72-.711-9.167-9.059-.703-.695-.703.695-3.333 3.294-.72.711.72.711L26.911 20l-1.077 1.065-6.911-6.829 6.91-6.83m0-1.406L17.5 14.235l8.333 8.235 2.5-2.471-5.833-5.764 3.333-3.294L35 20l-9.167 9.059-1.667-1.647-2.5 2.471L25.833 34 40 20 25.833 6z" fill="#8b75a1"></path><g><path fill="#dcd5f2" d="M.711 20L14.167 6.703l3.455 3.415-1.789 1.767-1.666-1.647L4.289 20l9.878 9.762 4.044-3.997L12.378 20l1.789-1.768 7.622 7.533-7.622 7.532z"></path><path d="M14.167 7.406l2.744 2.712-1.077 1.065-.964-.953-.703-.695-.703.695-9.167 9.059-.72.711.72.711 9.167 9.059.703.695.703-.695 3.333-3.294.72-.711-.72-.711L13.089 20l1.077-1.065 6.911 6.829-6.911 6.829L1.423 20 14.167 7.406m0-1.406L0 20l14.167 14 8.333-8.235-8.333-8.235-2.5 2.47 5.833 5.765-3.333 3.294L5 20l9.167-9.059 1.667 1.647 2.5-2.471L14.167 6z" fill="#8b75a1"></path></g></svg>