<svg viewBox="0 0 40 40" xmlns="http://www.w3.org/2000/svg"><path fill="#869ce8" d="M6.5 37.5v-35h18.293l8.707 8.707V37.5z"></path><path d="M24.586 3L33 11.414V37H7V3h17.586M25 2H6v36h28V11l-9-9z" fill="#4e64b5"></path><path fill="#fff" d="M24.5 11.5v-9h.293l8.707 8.707v.293z"></path><path d="M25 3.414L32.586 11H25V3.414M25 2h-1v10h10v-1l-9-9z" fill="#4e64b5"></path><path d="M17.901 26.341c-.377.156-1.17.312-1.808.312-1.014 0-1.78-.286-2.353-.871-.754-.728-1.157-2.028-1.131-3.536.039-3.185 1.846-4.511 3.73-4.511.663 0 1.145.13 1.417.26l-.286 1.469c-.26-.13-.585-.195-1.001-.195-1.17 0-2.093.793-2.093 3.068 0 2.106.819 2.873 1.625 2.873.156 0 .273-.013.338-.039v-2.119h-.793v-1.391H17.9v4.68zM21.203 17.812v8.762H19.5v-8.762h1.703zM23.049 17.812h3.809v1.482h-2.105v2.249h1.976v1.417h-1.976v3.614H23.05v-8.762z" fill="#fff"></path></svg>