<svg viewBox="0 0 40 40" xmlns="http://www.w3.org/2000/svg"><path d="M19.643 38.5c-1.531 0-3.577-.67-4.212-1.753a.501.501 0 00-.234-.207C13.458 35.796 12.5 34.539 12.5 33c0-.801.232-1.779.478-2.815.256-1.083.522-2.204.522-3.185 0-1.207-.459-2.182-.945-3.215C12.037 22.683 11.5 21.542 11.5 20c0-.215-.103-.376-.445-.911-.11-.173-.238-.372-.37-.588-.127-.194-.185-.357-.185-.513 0-.165.066-.34.202-.534l.094-.169c.378-.702.704-1.308.704-2.285a.5.5 0 00-.5-.5H8c-2.682 0-5.5-4.51-5.5-6.5 0-.746 1.546-1.5 4.5-1.5 2.581 0 4.236 1.448 6.561 5.738A.499.499 0 0014 12.5c1.396 0 1.5-1.386 1.5-3.5 0-2.485-1.725-6.243-1.985-6.796-.034-.218-.01-.378.07-.476.12-.145.414-.228.806-.228h1.714c.701 0 .798.184 1.262 1.29l.246.576c.577 1.334 1.367 3.16 1.897 5.735a.5.5 0 00.98 0c.53-2.574 1.32-4.401 1.896-5.734l.246-.576c.464-1.106.562-1.29 1.262-1.29h1.714c.393 0 .687.083.806.228.081.098.104.257.07.476C26.225 2.757 24.5 6.515 24.5 9c0 2.114.104 3.5 1.5 3.5a.499.499 0 00.439-.262C28.764 7.948 30.419 6.5 33 6.5c2.954 0 4.5.754 4.5 1.5 0 1.99-2.818 6.5-5.5 6.5h-3a.5.5 0 00-.5.5c0 .977.326 1.583.704 2.285l.063.119c.167.244.232.419.232.584 0 .156-.058.319-.176.499-.141.23-.269.429-.379.602-.341.535-.444.696-.444.911 0 1.542-.537 2.683-1.055 3.785-.486 1.033-.945 2.008-.945 3.215 0 .981.266 2.102.522 3.185.246 1.036.478 2.014.478 2.815 0 1.539-.958 2.796-2.697 3.541a.491.491 0 00-.234.207c-.635 1.083-2.681 1.753-4.212 1.753h-.714z" fill="#ffc49c"></path><path d="M25.609 2c.197 0 .323.025.391.047l-.001.018C25.64 2.838 24 6.504 24 9c0 1.782 0 4 2 4a.998.998 0 00.879-.524C29.097 8.382 30.642 7 33 7c3.042 0 4 .779 4 1 0 1.741-2.669 6-5 6h-3a1 1 0 00-1 1c0 1.103.371 1.793.765 2.523l.063.117c.018.034.039.067.061.099.07.1.112.193.112.249 0 .052-.034.134-.111.252-.131.213-.256.41-.365.58-.371.579-.525.819-.525 1.18 0 1.431-.489 2.471-1.008 3.572C26.504 24.609 26 25.681 26 27c0 1.04.272 2.189.536 3.3.228.963.464 1.958.464 2.7 0 1.326-.85 2.42-2.394 3.081a.994.994 0 00-.469.414c-.528.9-2.381 1.505-3.78 1.505h-.714c-1.399 0-3.252-.605-3.78-1.506a1.01 1.01 0 00-.469-.414C13.85 35.42 13 34.326 13 33c0-.742.236-1.737.464-2.7.264-1.111.536-2.26.536-3.3 0-1.319-.504-2.391-.992-3.428C12.489 22.471 12 21.431 12 20c0-.361-.154-.601-.524-1.181-.109-.17-.234-.366-.381-.605a.483.483 0 01-.095-.226c0-.055.042-.148.112-.249.022-.032.042-.065.061-.099l.063-.117c.393-.73.764-1.42.764-2.523a1 1 0 00-1-1H8c-2.331 0-5-4.259-5-6 0-.221.958-1 4-1 2.358 0 3.903 1.382 6.121 5.476A.998.998 0 0014 13c2 0 2-2.218 2-4 0-2.496-1.64-6.162-1.999-6.935L14 2.047c.068-.022.194-.047.391-.047h1.714c.388 0 .388 0 .801.983l.175.413.073.168c.568 1.314 1.347 3.113 1.866 5.637a1 1 0 001.959 0c.519-2.524 1.298-4.323 1.866-5.637l.073-.168.175-.413C23.506 2 23.506 2 23.895 2h1.714m0-1h-1.714c-1.176 0-1.307.637-1.895 2-.594 1.375-1.438 3.266-2 6-.563-2.734-1.406-4.625-2-6-.588-1.363-.719-2-1.895-2h-1.714c-.746 0-1.569.254-1.357 1.357C13.034 2.357 15 6.453 15 9c0 2.333-.203 3-1 3-2.205-4.071-4.002-6-7-6s-5 .756-5 2c0 2.249 3.002 7 6 7h3c0 .9-.31 1.425-.709 2.167-.183.263-.291.537-.291.821 0 .267.095.525.258.773.392.643.742 1.135.742 1.239 0 3.096 2 4.649 2 7 0 1.824-1 4.261-1 6 0 1.717 1.05 3.165 3 4 .8 1.365 3.128 2 4.643 2h.714c1.515 0 3.843-.635 4.643-2 1.95-.835 3-2.283 3-4 0-1.739-1-4.176-1-6 0-2.351 2-3.904 2-7 0-.104.35-.596.742-1.239.163-.249.258-.507.258-.773 0-.284-.108-.557-.291-.82C29.31 16.425 29 15.9 29 15h3c2.998 0 6-4.751 6-7 0-1.244-2.002-2-5-2s-4.795 1.929-7 6c-.797 0-1-.667-1-3 0-2.547 1.966-6.643 1.966-6.643C27.178 1.254 26.355 1 25.609 1z" fill="#a16a4a"></path><path d="M15 32l3 3v-1.5a1.5 1.5 0 00-1.5-1.5H15z" fill="#a16a4a"></path><path d="M14.5 16.5c-1.569 0-3.555.418-3.994 1.464" fill="none" stroke="#a16a4a" stroke-linecap="round" stroke-linejoin="round" stroke-miterlimit="10"></path><path fill="#36404d" d="M12.992 18.088l-2.992.41 3.541 2.126z"></path><path d="M16 19.5c-.468.468-1.672 1.5-2.5 1.5a1.5 1.5 0 010-3c.828 0 2.044 1.044 2.5 1.5z" fill="#36404d"></path><path d="M25 32l-3 3v-1.5a1.5 1.5 0 011.5-1.5H25z" fill="#a16a4a"></path><path d="M25.5 16.5c1.569 0 3.555.418 3.994 1.464" fill="none" stroke="#a16a4a" stroke-linecap="round" stroke-linejoin="round" stroke-miterlimit="10"></path><path fill="#36404d" d="M27.008 18.088l2.992.41-3.541 2.126z"></path><path d="M24 19.5c.468.468 1.672 1.5 2.5 1.5a1.5 1.5 0 000-3c-.828 0-2.044 1.044-2.5 1.5z" fill="#36404d"></path></svg>