<svg viewBox="0 0 40 40" xmlns="http://www.w3.org/2000/svg"><path d="M25.566 9.5c.09-1.085.076-3.473-1.377-5.756 3.375 1.022 4.108 4.44 4.267 5.756h-2.89z" fill="#a6714e"></path><path d="M25.314 4.815C27.015 5.916 27.64 7.821 27.868 9h-1.777c.026-1.016-.089-2.564-.777-4.185M23.007 3C25.75 6.125 25 10 25 10h3.998s-.186-6.375-5.991-7z" fill="#7a4f34"></path><path d="M10.55 9.5c.162-1.316.903-4.731 4.265-5.755-1.454 2.283-1.467 4.67-1.377 5.755H10.55z" fill="#a6714e"></path><path d="M13.691 4.815c-.688 1.621-.803 3.169-.778 4.185h-1.777c.229-1.18.854-3.084 2.555-4.185M15.998 3c-5.806.625-5.992 7-5.992 7h3.998c.001 0-.749-3.875 1.994-7z" fill="#7a4f34"></path><circle cx="19.5" cy="5.5" r="4" fill="#f5ce85"></circle><path d="M19.5 2C21.43 2 23 3.57 23 5.5S21.43 9 19.5 9 16 7.43 16 5.5 17.57 2 19.5 2m0-1a4.5 4.5 0 100 9 4.5 4.5 0 000-9z" fill="#967a44"></path><path d="M13.036 26.5a1.538 1.538 0 01-1.536-1.536v-8.521a.098.098 0 00.016.005c.249.083.589.195.969.195h2.086v8.321c0 .847-.689 1.536-1.535 1.536z" fill="#f5ce85"></path><path d="M12 17.098c.15.027.312.045.485.045h1.587v7.821c0 .571-.465 1.036-1.036 1.036A1.037 1.037 0 0112 24.964v-7.866m-.75-1.228c-.158 0-.25.096-.25.401v8.694a2.036 2.036 0 004.072-.001v-8.821h-2.587c-.515 0-.969-.273-1.235-.273z" fill="#967a44"></path><path d="M26 26.5c-.827 0-1.5-.673-1.5-1.5v-7.5h3V25c0 .827-.673 1.5-1.5 1.5z" fill="#f5ce85"></path><path d="M27 18v7c0 .551-.449 1-1 1s-1-.449-1-1v-7h2m1-1h-4v8a2 2 0 104 0v-8z" fill="#967a44"></path><g><path d="M21.5 38.5c-1.103 0-2-.897-2-2v-11h4v11c0 1.103-.897 2-2 2z" fill="#f5ce85"></path><path d="M23 26v10.5c0 .827-.673 1.5-1.5 1.5s-1.5-.673-1.5-1.5V26h3m1-1h-5v11.5a2.5 2.5 0 105 0V25z" fill="#967a44"></path></g><g><path d="M17.5 38.5c-1.103 0-2-.897-2-2v-11h4v11c0 1.103-.897 2-2 2z" fill="#f5ce85"></path><path d="M19 26v10.5c0 .827-.673 1.5-1.5 1.5s-1.5-.673-1.5-1.5V26h3m1-1h-5v11.5a2.5 2.5 0 105 0V25z" fill="#967a44"></path></g><g><path d="M14.5 23.5v-6h-3V16c0-2.481 2.019-4.5 4.5-4.5h7c2.481 0 4.5 2.019 4.5 4.5v1.5h-3v6h-10z" fill="#bae0bd"></path><path d="M23 12c2.206 0 4 1.794 4 4v1h-3v6h-9v-6h-3v-1c0-2.206 1.794-4 4-4h7m0-1h-7a5 5 0 00-5 5v2h3v6h11v-6h3v-2a5 5 0 00-5-5z" fill="#5e9c76"></path></g><g><path d="M15.649 4.5c.447-1.744 2.015-3 3.851-3s3.404 1.256 3.851 3h-7.702z" fill="#a6714e"></path><path d="M19.5 2c1.376 0 2.58.808 3.142 2h-6.284A3.475 3.475 0 0119.5 2m0-1c-2.314 0-4.198 1.753-4.45 4h8.899c-.251-2.247-2.135-4-4.449-4z" fill="#7a4f34"></path></g><g><path d="M19.499 29.5c-3.262 0-6.646-.853-7.871-1.195l2.74-8.805h10.264l2.738 8.805c-1.226.341-4.613 1.195-7.871 1.195z" fill="#bae0bd"></path><path d="M24.264 20l2.475 7.958c-1.471.383-4.41 1.042-7.24 1.042s-5.768-.659-7.239-1.042L14.736 20h9.528M25 19H14l-3.001 9.643S15.316 30 19.499 30s8.5-1.357 8.5-1.357L25 19z" fill="#5e9c76"></path></g></svg>