<svg viewBox="0 0 40 40" xmlns="http://www.w3.org/2000/svg"><path fill="#c2e0af" d="M6.5 37.5v-35h18.293l8.707 8.707V37.5z"></path><path d="M24.586 3L33 11.414V37H7V3h17.586M25 2H6v36h28V11l-9-9z" fill="#6c945a"></path><path fill="#fff" d="M24.5 11.5v-9h.293l8.707 8.707v.293z"></path><path d="M25 3.414L32.586 11H25V3.414M25 2h-1v10h10v-1l-9-9z" fill="#6c945a"></path><path d="M17.888 26.341c-.377.156-1.17.312-1.807.312-1.015 0-1.781-.286-2.354-.871-.754-.728-1.157-2.028-1.131-3.536.039-3.185 1.846-4.511 3.731-4.511.663 0 1.144.13 1.417.26l-.286 1.469c-.26-.13-.585-.195-1.001-.195-1.17 0-2.093.793-2.093 3.068 0 2.106.818 2.873 1.625 2.873.155 0 .272-.013.338-.039v-2.119h-.793v-1.391h2.353v4.68zM21.189 17.812v8.762h-1.703v-8.762h1.703zM22.841 24.833c.351.195.962.338 1.442.338.793 0 1.196-.416 1.196-.988 0-.637-.39-.949-1.131-1.43-1.196-.728-1.651-1.651-1.651-2.444 0-1.404.937-2.574 2.757-2.574.585 0 1.131.156 1.378.312l-.273 1.469a2.073 2.073 0 00-1.104-.299c-.729 0-1.079.442-1.079.91 0 .52.26.793 1.195 1.365 1.17.702 1.586 1.586 1.586 2.509 0 1.599-1.183 2.652-2.886 2.652-.702 0-1.378-.182-1.677-.351l.247-1.469z" fill="#588046"></path></svg>