<svg viewBox="0 0 40 40" xmlns="http://www.w3.org/2000/svg"><path d="M20 37.5a2.5 2.5 0 01-2.19-1.277L1.845 8.336a2.55 2.55 0 01.007-2.572A2.503 2.503 0 014.035 4.5h31.93c.908 0 1.725.473 2.184 1.264a2.55 2.55 0 01.007 2.572L22.19 36.223A2.5 2.5 0 0120 37.5z" fill="#f78f8f"></path><path d="M35.965 5c.728 0 1.382.379 1.751 1.015.376.648.378 1.423.006 2.073L21.757 35.975C21.389 36.617 20.733 37 20 37s-1.389-.383-1.757-1.025L2.278 8.088a2.055 2.055 0 01.006-2.073A2.007 2.007 0 014.035 5h31.93m0-1H4.035C1.702 4 .244 6.547 1.411 8.585l15.965 27.887C17.959 37.491 18.979 38 20 38s2.041-.509 2.625-1.528L38.589 8.585C39.756 6.547 38.298 4 35.965 4z" fill="#c74343"></path><g><path fill="#fff" d="M4.853 7.5h30.294L20 34.008z"></path><path d="M34.286 8L20 33 5.714 8h28.572m1.723-1H3.991l.855 1.496 14.286 25 .868 1.52.868-1.519 14.286-25L36.009 7z" fill="#c74343"></path></g></svg>