<svg viewBox="0 0 40 40" xmlns="http://www.w3.org/2000/svg"><path d="M8 34.5C3.864 34.5.5 31.136.5 27v-6.116c0-2.764 1.968-4.602 2.052-4.679l9.827-9.826A2.98 2.98 0 0114.5 5.5c.849 0 1.663.363 2.233.997 1.048 1.164.936 3.077-.251 4.265L12.743 14.5H21.5v20H8z" fill="#ffeea3"></path><path d="M14.5 6c.718 0 1.379.295 1.861.831.874.97.769 2.575-.234 3.577l-2.885 2.885L11.536 15H21v19H8c-3.86 0-7-3.14-7-7v-6.117c0-2.532 1.816-4.241 1.921-4.34l9.811-9.811A2.484 2.484 0 0114.5 6m0-1c-.896 0-1.791.342-2.475 1.025l-9.811 9.811C2.083 15.957 0 17.915 0 20.883V27a8 8 0 008 8h14V14h-8.05l2.885-2.885c1.34-1.34 1.538-3.545.27-4.953A3.492 3.492 0 0014.5 5z" fill="#ba9b48"></path><path d="M18.5 24.5v-5H37c1.378 0 2.5 1.121 2.5 2.5s-1.122 2.5-2.5 2.5H18.5z" fill="#ffeea3"></path><path d="M37 20c1.103 0 2 .897 2 2s-.897 2-2 2H19v-4h18m0-1H18v6h19a3 3 0 100-6z" fill="#ba9b48"></path><path d="M18.5 29.5v-5H23c1.378 0 2.5 1.121 2.5 2.5s-1.122 2.5-2.5 2.5h-4.5z" fill="#ffeea3"></path><path d="M23 25c1.103 0 2 .897 2 2s-.897 2-2 2h-4v-4h4m0-1h-5v6h5a3 3 0 100-6z" fill="#ba9b48"></path><path d="M18.5 34.5v-5H22c1.378 0 2.5 1.121 2.5 2.5s-1.122 2.5-2.5 2.5h-3.5z" fill="#ffeea3"></path><path d="M22 30c1.103 0 2 .897 2 2s-.897 2-2 2h-3v-4h3m0-1h-4v6h4a3 3 0 100-6z" fill="#ba9b48"></path><g><path d="M33.45 31.5c-.232-1.14-1.242-2-2.45-2s-2.217.86-2.45 2H26.5v-23h2.05c.232 1.14 1.242 2 2.45 2s2.217-.86 2.45-2h2.05v23h-2.05z" fill="#8bb7f0"></path><path d="M35 9v22h-1.171c-.413-1.164-1.525-2-2.829-2s-2.416.836-2.829 2H27V9h1.171c.413 1.164 1.525 2 2.829 2s2.416-.836 2.829-2H35m1-1h-3a2 2 0 11-4 0h-3v24h3a2 2 0 114 0h3V8z" fill="#4e7ab5"></path></g><g><path d="M18.5 19.5v-5H35c1.378 0 2.5 1.121 2.5 2.5s-1.122 2.5-2.5 2.5H18.5z" fill="#ffeea3"></path><path d="M35 15c1.103 0 2 .897 2 2s-.897 2-2 2H19v-4h16m0-1H18v6h17a3 3 0 100-6z" fill="#ba9b48"></path></g><path fill="#ffeea3" d="M13 15h7v19h-7z"></path></svg>