<svg viewBox="0 0 40 40" xmlns="http://www.w3.org/2000/svg"><path d="M38.5 17.5l-9-10s-2.659-3.221-4 2M1.5 17.506L9.5 7.5s2.27-3.272 4 2.006" fill="none" stroke="#599d75"></path><path d="M40 17.781a.781.781 0 00-.781-.781H1.06c-.281 0-.551.112-.75.31-.198.199-.31.469-.31.75v.002c0 1.044.415 2.046 1.153 2.785A3.942 3.942 0 003.938 22h13.684c1.198-2.569 3.405-2.755 4.614 0h13.546A4.216 4.216 0 0040 17.781z" fill-rule="evenodd" clip-rule="evenodd" fill="#b8e1bc"></path><path d="M38.993 18a3.196 3.196 0 01-.935 2.057 3.197 3.197 0 01-2.276.943H22.853c-.724-1.278-1.751-1.997-2.884-1.997-1.143 0-2.194.72-2.95 1.997H3.938a2.916 2.916 0 01-2.077-.861A2.917 2.917 0 011 18.06l.06-.06h37.933m.226-1H1.06c-.281 0-.551.112-.75.31-.198.199-.31.469-.31.75v.002A3.94 3.94 0 003.938 22h13.684c.609-1.307 1.48-1.997 2.347-1.997.838 0 1.673.643 2.267 1.997h13.546A4.216 4.216 0 0040 17.782v-.001a.781.781 0 00-.781-.781z" fill="#599d75"></path><path d="M10.55 29.934c5.947-.529 7.569-4.216 7.444-7.068-.158-3.582-.598-5.866-7.507-5.866H9.282c-6.909 0-7.178 2.086-7.277 5.927-.17 6.545 4.695 7.349 8.545 7.007z" fill="#c0e8ff"></path><path d="M13 18s-5.308.931-7 3c-2.039 2.492-2 6-2 6s-.82-1.24-.891-2.676c-.071-1.436-.391-3.566.422-4.824s1.94-1.337 2.725-1.408c3.863-.351 6.757-.09 6.744-.092z" fill-rule="evenodd" clip-rule="evenodd" fill="#daf2ff"></path><path d="M29.45 29.934c-5.947-.529-7.569-4.216-7.444-7.068.158-3.582.598-5.866 7.507-5.866h1.205c6.909 0 7.178 2.086 7.277 5.927.17 6.545-4.695 7.349-8.545 7.007z" fill="#c0e8ff"></path><path d="M33 18s-5.308.931-7 3c-2.039 2.492-2 6-2 6s-.929-1.064-1-2.5c-.071-1.437-.206-3.708.606-4.967.813-1.258 1.94-1.547 2.725-1.618 3.863-.351 6.682.087 6.669.085z" fill-rule="evenodd" clip-rule="evenodd" fill="#daf2ff"></path><path d="M30.718 18c6.149 0 6.187 1.45 6.278 4.953.052 2-.408 3.512-1.366 4.495C34.627 28.478 33.026 29 30.871 29c-.423 0-.871-.021-1.332-.062-6.283-.559-6.589-4.756-6.533-6.028.139-3.166.215-4.91 6.507-4.91h1.205m0-1h-1.206c-6.909 0-7.349 2.284-7.506 5.866-.125 2.852 1.497 6.539 7.444 7.068.463.042.939.066 1.421.066 3.525 0 7.274-1.314 7.125-7.073-.1-3.841-.369-5.927-7.278-5.927z" fill="#7395c6"></path><path d="M33 26.5s2.503.084 2.5-1.5M13 26.5s2.363.01 2.5-2.5" fill="none" stroke="#fff" stroke-linejoin="round"></path><path d="M10.487 18c6.292 0 6.368 1.744 6.507 4.91.056 1.273-.25 5.469-6.533 6.028-.46.041-.909.062-1.332.062-2.155 0-3.756-.522-4.759-1.551-.958-.983-1.418-2.496-1.366-4.495C3.095 19.45 3.133 18 9.282 18h1.205m0-1H9.282c-6.909 0-7.178 2.086-7.277 5.927C1.855 28.686 5.604 30 9.129 30c.481 0 .958-.024 1.421-.065 5.947-.529 7.569-4.216 7.444-7.068-.158-3.583-.598-5.867-7.507-5.867z" fill="#7395c6"></path></svg>