<svg viewBox="0 0 40 40" xmlns="http://www.w3.org/2000/svg"><path fill="#b08159" stroke="#704e34" stroke-miterlimit="10" d="M36 33L7 3"></path><path d="M32.909 10.129c5.506 5.506 5.404 14.375 0 19.78-5.404 5.404-14.274 5.506-19.78 0s-5.506-14.274 0-19.78 14.274-5.505 19.78 0z" fill="#c2e8ff"></path><path d="M36.212 21.653c-.406-.21-.827-.427-1.206-.68l-.056-.037-.063-.021c-.63-.21-1.174-.538-1.699-.854-.15-.077-.272-.161-.404-.249-.389-.261-.87-.583-1.464-.609a1.07 1.07 0 00-.257-.032c-.27 0-.484.104-.657.187-.068.033-.14.068-.22.095-.55.219-.956.597-1.315.931-.434.403-.809.752-1.286.752a1.07 1.07 0 01-.192-.017c-.22-.044-.357-.193-.621-.497-.075-.086-.153-.176-.238-.267a7.946 7.946 0 00-.209-.7c-.078-.233-.157-.466-.209-.726l-.01-.051-.021-.048c-.121-.281-.21-.562-.299-.837-.154-.481-.313-.977-.611-1.442-.102-.244-.283-.426-.432-.574a2.288 2.288 0 01-.181-.195c.029-.16.111-.409.18-.617l.025-.075.009-.106c0-.026.006-.054.018-.1.028-.12.104-.439-.165-.707a.666.666 0 00-.365-.19.946.946 0 01-.049-.242c0-.552.027-1.077.056-1.602.026-.498.052-.997.056-1.517a.636.636 0 00-.019-.541.65.65 0 00-.644-.509.748.748 0 00-.416.129c-.151.055-.263.11-.373.166-.095.047-.188.095-.329.142l-.016.005V9.99l-.348-1.736c.01-.063-.014-.251-.041-.449-.038-.282-.087-.633-.002-.803a.913.913 0 01.396-.477c.164-.006.328-.009.493-.009 3.587 0 6.971 1.409 9.528 3.967 2.978 2.977 4.36 7.063 3.818 11.254l-.162-.084z" fill="#bae0bd"></path><path d="M23.026 7.016c3.454 0 6.712 1.357 9.176 3.821a12.832 12.832 0 013.753 10.118 8.524 8.524 0 01-.671-.396l-.112-.074-.127-.042c-.576-.192-1.073-.491-1.599-.807l-.034-.02-.036-.018c-.098-.049-.201-.122-.313-.197-.41-.274-.963-.644-1.672-.69a1.583 1.583 0 00-.328-.035c-.384 0-.679.142-.875.237-.05.024-.102.052-.161.071L30 18.99l-.026.01c-.61.244-1.053.656-1.444 1.019-.412.383-.678.618-.945.618a.756.756 0 01-.078-.004c-.067-.013-.148-.096-.358-.337a19.64 19.64 0 00-.162-.184c-.059-.223-.127-.427-.189-.613a5.546 5.546 0 01-.193-.666l-.02-.102-.041-.096a8.787 8.787 0 01-.282-.794c-.16-.5-.326-1.016-.644-1.523-.135-.301-.342-.514-.504-.676.034-.112.076-.239.111-.346l.054-.137v-.16c.112-.471.012-.865-.297-1.174a1.172 1.172 0 00-.268-.202c.004-.49.029-.959.055-1.453.025-.468.05-.951.056-1.456a1.132 1.132 0 00-.047-.798 1.15 1.15 0 00-1.117-.841c-.225 0-.448.064-.64.179a5.976 5.976 0 00-.121.049l-.022-.112-.191-.953c-.007-.172-.031-.341-.053-.505-.023-.168-.061-.448-.05-.512l.021-.043.017-.044a.302.302 0 01.078-.117l.326-.001m0-1c-.21 0-.42.005-.63.014-.317.161-.57.398-.705.748-.224.45.001 1.124.001 1.574l.337 1.686c-.001.225.112.562.337.562a.137.137 0 00.099.046c.08 0 .159-.08.238-.159.338-.112.451-.225.787-.338a.251.251 0 01.173-.074c.087 0 .164.055.164.186 0 0 .113.113.001.225-.001 1.124-.112 2.135-.113 3.259 0 .225.112.562.225.674.112.112.225 0 .337.112.113.113.001.225 0 .449-.112.338-.225.674-.224.9.112.337.562.562.674.899.449.674.561 1.462.898 2.248.112.561.338 1.011.45 1.573.449.449.674.9 1.236 1.012.095.016.186.023.274.023 1.157 0 1.715-1.291 2.761-1.708.273-.091.472-.256.717-.256.058 0 .118.009.182.03.674.001 1.236.563 1.686.787.561.338 1.124.674 1.798.899.675.45 1.461.787 2.023 1.124.016-.13.049-.27.076-.407.636-4.224-.638-8.697-3.918-11.977a13.928 13.928 0 00-9.884-4.111z" fill="#5e9c76"></path><path d="M17.635 14.276c-.27-.169-.62-.519-.759-.658-.193-.193-.304-.407-.431-.654-.187-.362-.397-.771-.884-1.096-.041-.054-.707-.577-1.094-.877l-.27-.21-.294.176c-.146.087-.28.188-.404.283-.066.05-.158.12-.223.16a1.01 1.01 0 01-.049-.067 4.42 4.42 0 01-.136-.44c.127-.139.256-.276.39-.411a13.643 13.643 0 013.757-2.663c.063.096.218.378.441 1.089l.053.162c.222.456.402 1.021.32 1.429-.01.526-.01 1.173-.112 1.687-.06.297-.09.624-.12.951-.026.291-.052.582-.104.846-.029.08-.056.192-.081.293z" fill="#bae0bd"></path><path d="M17.009 8.495c.059.149.125.339.196.568l.053.165.023.068.032.064c.197.393.298.812.251 1.042l-.019.098v.099c0 .408 0 1.024-.094 1.491a9.595 9.595 0 00-.127 1.002l-.023.245-.073-.072c-.137-.137-.225-.309-.338-.528-.185-.36-.437-.849-.985-1.238-.119-.103-.4-.334-1.13-.901l-.375-.293a13.08 13.08 0 012.609-1.81m.251-1.236a14.12 14.12 0 00-4.131 2.871c-.203.203-.394.414-.583.626.078.359.181.686.266.856.154.23.294.316.435.316.271 0 .544-.319.914-.541 0 0 1.011.787 1.124.899.675.45.674 1.124 1.236 1.686.337.337.899.899 1.349.899l.112-.112c.112-.112.112-.337.225-.674.112-.562.113-1.237.225-1.798.113-.562.113-1.237.113-1.686.112-.562-.112-1.236-.338-1.686-.112-.337-.389-1.385-.839-1.609l-.108-.047z" fill="#5e9c76"></path><path d="M26.927 32.913a19.754 19.754 0 00-.385-.294c-.195-.147-.393-.292-.457-.351l-.052-.048-.073-.042c-.22-.11-.468-.248-.715-.385a21.163 21.163 0 00-.746-.402 8.433 8.433 0 00-.845-.299c-.574-.18-1.117-.35-1.498-.73a10.977 10.977 0 01-.315-.333c-.378-.409-.797-.864-1.397-1.068l1.994-1.994c.091-.047.189-.102.291-.158.275-.152.677-.374.911-.417.086.038.171.089.266.146.154.092.328.197.549.27l.077.026h.081c.955 0 1.614-.403 2.252-.792.216-.132.434-.266.669-.383-.004.003-.002.004.004.004.012 0 .037-.004.057-.004.053 0 .132.038.279.112.289.145.563.577.647.834l.147.299c.173.334.389.749.389 1.003.001.37-.092.646-.198.966-.099.474-.04.9.017 1.313.034.247.07.501.07.755v.207l.094.094c.054.152.132.531.155.762a14.03 14.03 0 01-2.261.911.019.019 0 00-.007-.002zm-11.219-2.99c-.65 0-1.248-.084-1.726-.244a6.377 6.377 0 00-.473-.101c-2.658-2.67-4.056-6.11-4.001-9.756.845-1.674 2.018-3.216 2.754-3.612a2.932 2.932 0 011.225-.278c.303 0 .854 0 1.073.162v.013c-.008.025-.049.066-.078.096-.253.253-.535.535-.754.64h-.921l-.105.053c-.327.164-.558.47-.687.91-.307 1.053.055 2.756.368 3.278.214.43.881 1.164 1.683 1.164.254 0 .492-.074.71-.218.413-.399.496-1.024.586-1.938.024-.245.045-.47.076-.627.048-.132.08-.291.112-.45.02-.098.038-.195.07-.306.363-.414.862-.504 1.227-.504.438 0 .928.132 1.341.362a.471.471 0 01.279.292c.183.517-.096 1.643-.709 2.867-.2.13-.466.263-.588.627-.407.943-.358 2.507.457 3.322.082.132.186.275.301.424a1.226 1.226 0 00-.503.072c-.238.007-.378.05-.585.257-.063.062-.197.124-.327.183-.324.147-.813.369-.934.972-.01.431.049 1.262.587 1.801.141.14.372.371.802.371h.08l.076-.025c.347-.114.506-.38.611-.556a.91.91 0 01.088-.131l.019-.006.116.117.459.099c-.112.055-.222.112-.328.167-.318.165-.618.32-.853.354a8.105 8.105 0 01-1.528.149z" fill="#bae0bd"></path><path d="M11.591 17.498c-.02.054-.038.11-.055.169-.332 1.141.004 2.937.399 3.638.309.592 1.115 1.443 2.132 1.443.35 0 .691-.104.988-.302l.082-.055.07-.07c.454-.454.554-1.158.654-2.18.019-.199.039-.403.061-.532.06-.196.093-.361.121-.497.01-.049.019-.099.031-.15.19-.171.45-.257.775-.257.357 0 .757.109 1.143.306.101.183.016 1.064-.627 2.386a1.42 1.42 0 00-.652.752c-.436 1.046-.415 2.581.308 3.58a1.204 1.204 0 00-.512.327 1.999 1.999 0 01-.202.1c-.365.166-1.046.475-1.216 1.329l-.019.097v.099c0 .337.053 1.106.483 1.741-.537-.012-1.023-.086-1.414-.216l-.037-.012-.037-.009a5.613 5.613 0 00-.317-.069c-2.441-2.485-3.764-5.729-3.743-9.17.51-.994 1.086-1.851 1.584-2.448m16.004 8.69l.054.027c.123.062.331.347.397.544l.023.068.032.064.123.24c.114.219.325.626.333.775 0 .287-.072.505-.173.807l-.02.059-.012.061c-.099.496-.032.986.027 1.418.034.246.066.479.066.688v.414l.151.151c.016.06.032.131.046.205a12.94 12.94 0 01-1.613.649l-.187-.141c-.175-.131-.352-.262-.399-.3l-.115-.115-.145-.073c-.213-.107-.454-.241-.694-.374-.265-.147-.531-.295-.767-.413l-.027-.013-.027-.012c-.287-.123-.581-.215-.864-.304-.514-.161-1-.313-1.294-.607-.104-.104-.203-.212-.302-.319-.26-.282-.554-.601-.929-.858l.107-.107 1.352-1.352.236-.129c.164-.091.437-.242.611-.317l.063.038c.167.1.375.225.648.316l.155.051h.162c1.095 0 1.847-.46 2.511-.865.161-.096.316-.191.471-.276M13.487 15.432c-.45 0-1.011.112-1.46.338-.934.503-2.196 2.276-3.016 3.93-.085 3.674 1.284 7.374 4.119 10.209.047.047.098.089.146.136.194.033.382.067.549.109.557.186 1.216.269 1.884.269.545 0 1.095-.056 1.6-.157.74-.106 1.581-.909 2.52-.909.059 0 .117.003.177.01.787.113 1.236.787 1.798 1.349.674.674 1.686.787 2.472 1.123.45.225 1.012.562 1.461.787.112.112.899.674 1.011.787a.187.187 0 01.059-.009c.043 0 .092.011.143.027a13.979 13.979 0 002.697-1.11c.009-.008.013-.026.023-.031.112-.112-.113-1.237-.225-1.349 0-.674-.225-1.349-.112-1.911.112-.337.225-.674.224-1.124 0-.45-.337-1.011-.562-1.461-.112-.337-.449-.899-.898-1.123-.192-.096-.33-.165-.503-.165a.904.904 0 00-.284.052c-.899.449-1.573 1.123-2.696 1.123h-.001c-.337-.112-.562-.337-.899-.45-.45 0-1.124.45-1.573.674l-1.461 1.461-.787.787c-.139.07-.3.096-.473.096-.384 0-.825-.131-1.213-.209-.078-.078-.209-.209-.357-.209a.287.287 0 00-.206.096c-.337.113-.337.562-.674.674h-.002c-.223 0-.336-.113-.447-.224-.338-.338-.45-.9-.45-1.349.112-.562.787-.562 1.124-.899.112-.112.112-.112.337-.112a.695.695 0 01.317-.073c.374 0 .77.261 1.032.523l.225.225c.033.033.066.047.099.047.079 0 .159-.079.238-.159-.449-.674-1.012-1.237-1.461-1.91-.674-.674-.675-2.023-.337-2.81.113-.337.45-.224.562-.562.45-.899 1.461-3.259.225-3.82a3.333 3.333 0 00-1.584-.424c-.637 0-1.252.219-1.675.762-.112.338-.112.562-.224.9-.112.562-.112 1.911-.45 2.248a.769.769 0 01-.433.134c-.547 0-1.075-.566-1.253-.921-.337-.562-.786-3.034.113-3.483h.899c.337-.112.674-.45 1.011-.787.112-.112.225-.225.225-.45s0-.225-.112-.337c-.338-.339-1.013-.339-1.462-.339z" fill="#5e9c76"></path><g><path d="M23.019 7c3.448 0 6.709 1.362 9.183 3.836A12.876 12.876 0 0136 20.053a12.916 12.916 0 01-3.798 9.148A12.913 12.913 0 0123.007 33a12.888 12.888 0 01-9.171-3.798c-5.149-5.149-5.149-13.216 0-18.365C16.31 8.362 19.572 7 23.019 7m0-1c-3.568 0-7.137 1.376-9.89 4.129-5.506 5.506-5.506 14.274 0 19.78A13.914 13.914 0 0023.007 34c3.598 0 7.187-1.376 9.902-4.091 5.404-5.404 5.506-14.274 0-19.78C30.156 7.376 26.588 6 23.019 6z" fill="#7496c4"></path></g><g><circle cx="7" cy="3" r="1.5" fill="#c29653"></circle><path d="M7 2c.551 0 1 .449 1 1s-.449 1-1 1-1-.449-1-1 .449-1 1-1m0-1a2 2 0 10-.001 3.999A2 2 0 007 1z" fill="#8c6a3f"></path></g><g><path d="M23.043 38.5a18.34 18.34 0 01-13.052-5.406c-7.327-7.328-7.327-18.809 0-26.137a18.526 18.526 0 013.349-2.64l1.248 1.561a16.886 16.886 0 00-3.183 2.493c-3.159 3.159-4.899 7.298-4.899 11.654s1.74 8.495 4.899 11.654a16.35 16.35 0 0011.638 4.82c4.418 0 8.563-1.712 11.671-4.82l.021-.021 1.391 1.438C32.64 36.581 27.993 38.5 23.043 38.5z" fill="#c29653"></path><path d="M13.229 4.98l.618.773a17.274 17.274 0 00-2.796 2.265c-6.733 6.733-6.733 17.282 0 24.015A16.85 16.85 0 0023.043 37c4.391 0 8.52-1.641 11.681-4.633l.695.719C32.071 36.259 27.695 38 23.043 38a17.84 17.84 0 01-12.698-5.259c-7.13-7.13-7.13-18.3 0-25.43a18 18 0 012.884-2.331m.227-1.317a19.11 19.11 0 00-3.818 2.942c-7.472 7.472-7.472 19.372 0 26.844A18.885 18.885 0 0023.043 39c4.884 0 9.754-1.868 13.438-5.552.117-.117.221-.241.328-.363l-2.088-2.157c-.118.135-.234.271-.362.399C31.346 34.34 27.327 36 23.043 36c-4.263 0-8.27-1.66-11.284-4.674-6.337-6.337-6.337-16.264 0-22.601a16.286 16.286 0 013.582-2.706l-1.885-2.356z" fill="#8c6a3f"></path></g></svg>