<svg viewBox="0 0 40 40" xmlns="http://www.w3.org/2000/svg"><path d="M16.5 31.5v-3.461l-.357-.106C10.465 26.242 6.5 20.924 6.5 15 6.5 7.556 12.556 1.5 20 1.5S33.5 7.556 33.5 15c0 5.924-3.965 11.242-9.643 12.933l-.357.106V31.5h-7z" fill="#ffeea3"></path><path d="M20 2c7.168 0 13 5.832 13 13 0 5.704-3.818 10.826-9.285 12.454l-.715.213V31h-6v-3.333l-.715-.213C10.818 25.826 7 20.704 7 15 7 7.832 12.832 2 20 2m0-1C12.268 1 6 7.268 6 15c0 6.341 4.219 11.691 10 13.413V32h8v-3.587C29.781 26.691 34 21.341 34 15c0-7.732-6.268-14-14-14z" fill="#ba9b48"></path><path d="M23 12.879a1.123 1.123 0 01.793 1.914l-2.5 2.5-.293.293V32h-2V17.586l-.293-.293-2.5-2.5A1.123 1.123 0 0117 12.879c.3 0 .581.117.793.328l1.5 1.5.707.707.707-.707 1.5-1.5c.212-.212.494-.328.793-.328m0-1c-.543 0-1.086.207-1.5.621L20 14l-1.5-1.5c-.414-.414-.957-.621-1.5-.621s-1.086.207-1.5.621a2.122 2.122 0 000 3L18 18v15h4V18l2.5-2.5a2.122 2.122 0 00-1.5-3.621z" fill="#fff"></path><path fill="none" stroke="#8b75a1" stroke-miterlimit="10" d="M17.286 34.25h1.357"></path><circle cx="20" cy="37" r="2" fill="#2d3540"></circle><path d="M18 37.5c-.827 0-1.5-.673-1.5-1.5v-4.5h7V36c0 .827-.673 1.5-1.5 1.5h-4z" fill="#dcd5f2"></path><path d="M23 32v4c0 .551-.449 1-1 1h-4c-.551 0-1-.449-1-1v-4h6m1-1h-8v5a2 2 0 002 2h4a2 2 0 002-2v-5z" fill="#8b75a1"></path><path fill="none" stroke="#8b75a1" stroke-miterlimit="10" d="M19 35.5h5M16 35.5h2M19 33.5h5M16 33.5h2"></path></svg>