<svg viewBox="0 0 40 40" xmlns="http://www.w3.org/2000/svg"><path d="M39 20c0 10.578-8.618 19-19 19C9.619 39 1 30.578 1 20S9.422 1 20 1s19 8.422 19 19z" fill="#c2e8ff"></path><path d="M21.563 27.844a.46.46 0 01-.159-.028c-.164-.077-.627-.526-1.367-1.334a7.75 7.75 0 00-.257-.273c-.259-.24-.911-.387-1.265-.387a1.21 1.21 0 00-.228.02c-.19.036-.447.168-1.03.482-.319.172-.854.461-1.003.494h-.001c-.081 0-.227-.129-.335-.417-.179-.471-.407-2.197-.266-2.53.262-.407 2.423-1.888 3.012-2.072.11.113.282.419.39.611.292.52.594 1.059 1.107 1.156l.047.009.103.005c.62 0 .786-.641.886-1.024.029-.112.077-.299.126-.406.251.236.652 1.141.891 2.031l.021.078.044.067c.341.518.647 1.127.656 1.304-.049.271-.792 1.817-1.004 2.065a.558.558 0 01-.368.149z" fill="#bae0bd"></path><path d="M18.491 22.428c.045.077.09.157.127.224.332.592.708 1.262 1.451 1.403.085.016.166.023.242.023.581 0 .915-.338 1.112-.697.114.291.225.618.309.929l.042.156.088.134c.23.351.467.788.551 1.01-.147.41-.624 1.396-.834 1.718-.203-.158-.598-.557-1.177-1.19a7.016 7.016 0 00-.281-.296c-.426-.394-1.266-.522-1.605-.522-.118 0-.227.011-.321.029-.273.052-.574.21-1.173.533-.183.099-.447.241-.636.338-.13-.349-.318-1.649-.269-2.117.387-.399 1.678-1.298 2.374-1.675m.217-1.145c-.564 0-3.246 1.87-3.501 2.362-.254.492.061 2.45.244 2.933.166.439.453.741.791.741a.618.618 0 00.104-.009c.383-.069 1.745-.921 2.036-.977a.76.76 0 01.133-.011c.317 0 .805.143.926.256.14.13 1.368 1.555 1.792 1.709a.952.952 0 00.329.058c.298 0 .561-.139.728-.302.228-.222 1.072-1.948 1.14-2.361.068-.412-.734-1.631-.734-1.631s-.649-2.419-1.383-2.442h-.015c-.692 0-.481 1.47-.988 1.47a.375.375 0 01-.056-.005c-.581-.112-.981-1.791-1.546-1.791z" fill="#5e9c76"></path><path d="M27.173 28.995a.447.447 0 01-.258-.81l.438-.313-.344-.415a4.21 4.21 0 00-.269-.293.448.448 0 01-.021-.634.447.447 0 01.63-.015c.529.503.808.983.782 1.352-.036.552-.595.968-.706 1.045a.42.42 0 01-.252.083z" fill="#bae0bd"></path><path d="M27.045 25.895a.947.947 0 00-.655 1.628c.078.076.164.169.234.255a.944.944 0 001.088 1.546c.203-.142.869-.663.919-1.422.044-.667-.485-1.319-.938-1.749a.94.94 0 00-.648-.258z" fill="#5e9c76"></path><path d="M24.107 31.996a.439.439 0 01-.32-.137.443.443 0 01.012-.629l1.782-1.72a.443.443 0 01.755.328.443.443 0 01-.137.313l-1.782 1.72a.445.445 0 01-.31.125z" fill="#bae0bd"></path><path d="M25.89 28.884a.938.938 0 00-.656.266l-1.783 1.72a.945.945 0 101.313 1.36l1.783-1.72a.946.946 0 00-.657-1.626z" fill="#5e9c76"></path><path d="M3.664 28.661A18.462 18.462 0 011.5 20c0-4.55 1.646-8.907 4.639-12.287 1.211-.307 2.09-.597 2.667-1.044.841-.32 1.166-.355 1.269-.355.344.053.621.242.889.424.307.209.624.425 1.01.433.414 0 .811-.171 1.106-.303a.703.703 0 00.567.355h.013c.424 0 .805-.216 1.174-.424.153-.086.344-.194.427-.22.227-.071 1.452-.216 1.829-.217-.006.003.04.031.088.057.126.071.256.144.396.18l.061.016.082.002c.168 0 .345-.07.638-.187.307-.122.727-.29 1.014-.309l.13-.004c.292 0 .6.047.833.104-.146.097-.313.201-.446.284-.806.503-1.308.839-1.475 1.258l-.004.011a.614.614 0 00-.215-.205l-.115-.065-.193-.012c-.599 0-2.049.935-2.608 1.5-.303.306-.443.573-.44.839.006.575.37.941.61 1.183.068.068.171.172.191.214.052.165-.086.833-.328 1.043-.116.1-.535.283-.842.416-.853.372-1.415.617-1.417 1.14-.001.374.248.624.469.844.152.153.311.312.371.49.088.313-.335 1.558-.594 1.918a2.613 2.613 0 01-.184-.052c-.147-.045-.3-.092-.462-.092-.392 0-.67.288-.677.7-.009.545.433.946.754 1.239.093.084.234.213.266.264.033.122-.005.515-.075.818-.245-.339-.554-.869-.696-1.112a9.371 9.371 0 00-.251-.417c-.03-.046-.751-1.123-1.517-1.123h-.067l-.143.028c-.641.173-1.434 1.724-1.443 2.141-.004.16.043.325.108.497a2.838 2.838 0 01-.159-.126c-.087-.075-.283-.416-.413-.642-.311-.538-.604-1.045-.989-1.233-.467-.229-1.258-.254-1.578-.254.021-.003-.854-.196-1.425-.196-.166 0-.608 0-.813.338l-.115.191.059.275c.108.354.487.561 1.394.984.146.068.328.153.448.215-.031.225-.181.623-.284.729-.041.019-.197.112-.249.116-.052-.049-.332-.36-.537-.587-.985-1.092-1.329-1.41-1.709-1.41h-.051l-.063.01a.636.636 0 00-.446.331c-.282.522.119 1.536.166 1.65.152.374 1.4 1.843 1.655 2.03l.132.096.248.029a.705.705 0 00.2-.03c-.065.271-.164.601-.235.838-.189.635-.305 1.039-.295 1.326.007.194.063.672.131 1.239.084.706.231 1.945.233 2.429a20.01 20.01 0 01-.55.343z" fill="#bae0bd"></path><path d="M10.055 6.815c.197.044.406.186.626.336.333.227.747.509 1.319.521.344 0 .668-.096.948-.205.24.184.501.238.649.253l.083.007h.051c.476 0 .92-.251 1.349-.493.112-.063.281-.159.322-.176.206-.057 1.116-.166 1.551-.191.129.072.285.157.465.208-.851.264-2.032 1.094-2.499 1.565-.146.148-.592.597-.586 1.197.008.779.494 1.267.756 1.53l.048.047c-.019.166-.095.407-.143.467-.104.076-.495.246-.728.348-.92.401-1.715.747-1.718 1.597-.002.581.369.952.614 1.198.081.081.186.187.232.259-.007.262-.185.826-.352 1.205a1.604 1.604 0 00-.394-.053c-.533 0-.955.316-1.111.792-.308-.236-.68-.423-1.085-.423-.116 0-.231.015-.341.045-.623.169-1.222 1.024-1.551 1.746-.28-.465-.575-.873-.994-1.077-.499-.243-1.23-.297-1.705-.304-.278-.058-.994-.197-1.517-.197-.592 0-1.009.196-1.242.581-.066.11-.112.23-.135.354a1.14 1.14 0 00-.431-.083l-.111.001-.093.02a1.152 1.152 0 00-.217.064 17.962 17.962 0 014.298-9.795c1.157-.299 2.023-.596 2.636-1.048.665-.249.936-.289 1.006-.296m-8.02 14.294c.466.637 1.23 1.51 1.471 1.686.074.054.153.099.236.133l-.075.251c-.204.684-.329 1.122-.316 1.489.008.216.053.605.133 1.273.048.399.125 1.046.176 1.585a17.94 17.94 0 01-1.625-6.417M19.498 5.616c-.058 0-.113.002-.165.005-.592.041-1.429.495-1.617.495a.09.09 0 01-.018-.002c-.143-.037-.369-.199-.505-.245a.41.41 0 00-.1-.008c-.385 0-1.675.144-1.983.24-.337.105-1.026.625-1.379.625a.323.323 0 01-.032-.002c-.341-.035-.191-.438-.375-.468l-.019-.001c-.205 0-.821.416-1.304.416h-.017c-.502-.01-.996-.718-1.8-.85a.71.71 0 00-.108-.008c-.335 0-.914.182-1.521.416-.552.459-1.564.757-2.686 1.037A18.928 18.928 0 001 20c0 3.417.909 6.601 2.477 9.357.664-.396 1.205-.729 1.217-.782.108-.501-.324-3.398-.344-3.942-.019-.544.846-2.548.528-2.787a.28.28 0 00-.172-.062c-.201 0-.372.233-.524.233a.146.146 0 01-.086-.029c-.214-.156-1.381-1.557-1.487-1.816-.106-.259-.406-1.239-.089-1.3l.016-.001c.347 0 1.74 1.778 2.003 1.929a.48.48 0 00.244.068c.174 0 .344-.097.538-.211.282-.166.644-1.231.441-1.441-.202-.21-1.964-.834-1.804-1.1.043-.071.191-.097.385-.097.531 0 1.406.196 1.406.196h.015c.123 0 .961.007 1.362.203.434.212.944 1.502 1.293 1.804.279.241.795.571 1.06.571.067 0 .117-.021.145-.069.136-.24-.333-.942-.326-1.238.007-.297.722-1.575 1.074-1.671a.295.295 0 01.079-.01c.354 0 .867.546 1.1.898.249.377 1.099 2.007 1.468 2.007h.006c.366-.017.579-1.48.406-1.808-.173-.327-.968-.755-.96-1.259.002-.158.072-.208.177-.208.184 0 .477.154.709.154.059 0 .114-.01.163-.035.347-.18 1.031-1.988.841-2.553-.19-.564-.814-.833-.813-1.172.001-.339 1.672-.823 2.086-1.18.413-.357.611-1.297.453-1.634-.158-.337-.748-.61-.753-1.188-.005-.548 2.089-1.835 2.548-1.835a.13.13 0 01.061.012c.279.159-.082 2.146.338 2.244a.122.122 0 00.032.004c.386 0 .341-1.752.561-2.304.226-.566 2.216-1.424 2.24-1.788.023-.333-.976-.544-1.616-.544z" fill="#5e9c76"></path><g><path d="M31.822 31.373c.059-.149.122-.292.176-.403l2.469-3.457c.203-.292.656-1.02.528-1.576-.09-.385-.34-.631-.522-.811-.083-.082-.162-.159-.199-.223-.149-.282-.399-1.656-.294-1.957.003.044.045.049.086.052.067.006.134.011.195.011a.813.813 0 00.449-.119c.293-.187.359-.501.407-.731.026-.125.054-.253.104-.32.122-.117.698-.31 1.022-.376.16.253.43.743.591 1.034.192.349.362.652.433.751l.077.099c.231.206.479.338.754.41a18.272 18.272 0 01-1.985 5.296 5.334 5.334 0 00-.441-.02c-.23 0-.421.021-.582.063l-.069.019-.063.038c-.144.087-.265.161-.338.188l-.215.072c-.337.111-.758.249-1.203.529-.515.323-1.225 1.23-1.38 1.431z" fill="#bae0bd"></path><path d="M36.008 22.044c.134.232.285.508.388.694.246.447.369.667.486.83.029.039.065.084.098.121l.04.044.045.039c.139.121.29.223.453.304a17.774 17.774 0 01-1.689 4.46 4.231 4.231 0 00-.157-.003c-.274 0-.506.026-.709.08l-.141.037-.124.076c-.108.066-.202.124-.242.143l-.205.068-.24.08.87-1.223c.296-.425.768-1.246.602-1.972-.122-.525-.444-.843-.658-1.053-.038-.037-.077-.071-.11-.11-.081-.215-.193-.755-.238-1.164.185-.026.353-.087.504-.183.469-.299.572-.787.627-1.049l.014-.075c.1-.046.243-.099.386-.144m.402-1.103c-.298 0-1.365.304-1.587.598-.243.32-.157.787-.382.931a.329.329 0 01-.18.041c-.098 0-.21-.019-.32-.019-.162 0-.319.042-.417.249-.212.444.138 2.111.319 2.417s.572.493.665.891c.092.4-.448 1.174-.448 1.174l-2.511 3.528s-.442.909-.436 1.374c.006.401.284.634.509.634a.31.31 0 00.101-.017c.233-.086.476-1.037.476-1.037s.785-1.034 1.271-1.34c.485-.305.932-.418 1.315-.551.089-.03.248-.12.434-.234.126-.033.28-.047.454-.047.215 0 .459.02.715.048a18.799 18.799 0 002.306-6.262l-.064.001c-.323 0-.641-.071-.906-.302-.017-.019-.035-.044-.047-.06-.182-.254-1.044-1.947-1.203-2.01a.264.264 0 00-.064-.007z" fill="#5e9c76"></path></g><g><path d="M34.893 17.899c-.34-.483-.633-.901-.929-1.093a1.534 1.534 0 00-.844-.239c-.706 0-1.273.404-1.351.961-.02.143.004.296.078.497l-1.034-1.974-.037-.043c-.286-.334-.728-.915-.814-1.161-.053-.147-.053-.596-.052-.924 0-.446 0-.908-.08-1.269-.166-.745-1.624-3.146-1.831-3.395-.315-.377-.826-.409-1.322-.409h-.144c-.216.002-.487.09-.862.243l.004-.016c.059-.301-.096-.575-.26-.865-.087-.155-.178-.315-.218-.448-.042-.149.142-.616.271-.75-.002.006.01.008.034.008.039 0 .109-.005.204-.005.311 0 .583.048.648.075.05.033.144.121.255.22.49.435.9.769 1.345.777h.001c.314 0 .667-.101 1.008-.199.182-.052.457-.131.542-.131.056.018.264.105.519.207.833.335 1.504.591 1.918.591l.141-.01c.333-.052.668-.309 1.087-.832l.046-.058.027-.068c.054-.133.102-.267.146-.398a18.238 18.238 0 012.973 4.142 28.706 28.706 0 00-.516-.032l-.131.08c-.063.031-.3.07-.457.096-.525.086-1.18.194-1.335.752-.088.311-.077.901.975 1.348.133.059.197.087 1.722.104.112.01.281.015.464.015.101 0 .206-.001.313-.004.182.505.341 1.015.475 1.522l-.521-.028-.173.078c-1.951 1.185-2.085 1.412-2.166 1.547-.182.312-.105.725-.006 1.246a4.707 4.707 0 01-.113-.158z" fill="#bae0bd"></path><path d="M25.753 7.517c.152.003.289.019.372.033.045.038.097.086.154.136.263.233.563.5.907.683-.186-.019-.36-.019-.503-.019l-.153.001a1.782 1.782 0 00-.452.069 3.544 3.544 0 00-.228-.453c-.052-.093-.115-.204-.152-.287a1.16 1.16 0 01.055-.163m7.767.558c.766.87 1.444 1.813 2.028 2.82l-.044.027a5.085 5.085 0 01-.328.061c-.559.092-1.495.246-1.735 1.109-.106.378-.196 1.324 1.266 1.947.205.092.276.124 1.874.14.139.01.294.015.461.015.054.16.106.321.155.481l-.017-.001-.265.161c-2.059 1.251-2.207 1.501-2.339 1.724l-.04.073a1.939 1.939 0 00-.301-.248 2.042 2.042 0 00-1.116-.32c-.583 0-1.098.217-1.437.567l-.401-.766-.053-.1-.073-.086c-.317-.371-.663-.851-.716-.982-.03-.121-.03-.516-.029-.777 0-.474 0-.965-.092-1.379-.198-.886-1.721-3.349-1.937-3.608a1.473 1.473 0 00-.424-.347l.021.001c.36 0 .747-.111 1.122-.218l.345-.097c.102.038.238.094.392.156.914.367 1.599.627 2.105.627.079 0 .152-.006.218-.016.453-.069.874-.367 1.36-.964m-.384-1.842a8.411 8.411 0 01-.357 1.169c-.242.303-.542.614-.772.65a.422.422 0 01-.064.004c-.534 0-2.103-.742-2.375-.793a.38.38 0 00-.062-.005c-.329 0-1.112.33-1.527.33h-.014c-.439-.009-1.141-.819-1.387-.945-.148-.077-.536-.128-.87-.128-.218 0-.413.022-.504.072-.232.128-.611.906-.483 1.322.127.416.508.854.465 1.073-.043.219-.932.652-.981 1.06-.008.064.032.091.107.091.401 0 1.808-.78 2.228-.783l.144-.001c.43 0 .764.027.933.229.185.223 1.586 2.554 1.727 3.184.141.631-.009 1.807.148 2.251.157.444.906 1.319.906 1.319l1.583 3.019s1.031 1.246 1.518 1.246a.273.273 0 00.041-.003c.467-.077-1.339-2.524-1.272-2.998.044-.319.442-.53.855-.53.2 0 .403.049.571.159.48.312 1.325 1.976 1.723 1.976.032 0 .06-.01.086-.033.348-.305-.259-1.762-.06-2.102.127-.215 1.221-.905 1.995-1.375.277.015.672.037 1.079.051-.198-.88-.46-1.733-.774-2.561-.229.008-.452.014-.655.014-.169 0-.326-.004-.463-.015-.654-.007-1.435-.021-1.507-.053-.125-.055-.835-.33-.713-.765.113-.407 1.231-.348 1.571-.556.348.016.793.067 1.236.117a18.855 18.855 0 00-4.076-5.69z" fill="#5e9c76"></path></g><g><path d="M20 2c10.093 0 18 7.907 18 18 0 9.925-8.075 18-18 18S2 29.925 2 20C2 9.907 9.907 2 20 2m0-1C9.422 1 1 9.422 1 20s8.619 19 19 19c10.382 0 19-8.422 19-19S30.578 1 20 1z" fill="#7496c4"></path></g></svg>