<svg viewBox="0 0 40 40" xmlns="http://www.w3.org/2000/svg"><path d="M4 37.5A2.503 2.503 0 011.5 35V12c0-1.378 1.122-2.5 2.5-2.5h32c1.378 0 2.5 1.122 2.5 2.5v23c0 1.378-1.122 2.5-2.5 2.5H4z" fill="#e1ebf2"></path><path d="M36 10c1.103 0 2 .897 2 2v23c0 1.103-.897 2-2 2H4c-1.103 0-2-.897-2-2V12c0-1.103.897-2 2-2h32m0-1H4a3 3 0 00-3 3v23a3 3 0 003 3h32a3 3 0 003-3V12a3 3 0 00-3-3z" fill="#b0c1d4"></path><path d="M38 35V12a2 2 0 00-2-2H4a2 2 0 00-2 2l18.772 25H36a2 2 0 002-2z" fill="#c7d9e5"></path><path d="M38 35V13.715L5 37h31c.748 0 2-.795 2-2z" fill="#fff"></path><path d="M20.772 37H36a2 2 0 002-2V13.715l-22.69 16.01L20.772 37z" fill="#e1ebf2"></path><path d="M4 37.5A2.503 2.503 0 011.5 35V12.5h3v25H4z" fill="#c74343"></path><path d="M4 13v24c-1.103 0-2-.897-2-2V13h2m1-1H1v23a3 3 0 003 3h1V12z" fill="#ab3434"></path><path d="M35.5 37.5v-25h3V35c0 1.378-1.122 2.5-2.5 2.5h-.5z" fill="#c74343"></path><path d="M38 13v22c0 1.103-.897 2-2 2V13h2m1-1h-4v26h1a3 3 0 003-3V12z" fill="#ab3434"></path><g><path d="M2.6 13.565c-.288-.201-1.1-.911-1.1-1.542A2.508 2.508 0 014 9.5h32c1.378 0 2.5 1.122 2.5 2.5 0 .659-.812 1.366-1.096 1.563L20 25.881 2.6 13.565z" fill="#fff"></path><path d="M36 10c1.103 0 2 .897 2 2.024 0 .326-.523.876-.889 1.134L20 25.269 2.881 13.151C2.522 12.902 2 12.339 2 12c0-1.103.897-2 2-2h32m0-1H4a3 3 0 00-3 3v.023c0 1.042 1.311 1.95 1.311 1.95L20 26.494l17.689-12.52S39 13.065 39 12.024V12a3 3 0 00-3-3z" fill="#b0c1d4"></path></g><g><path d="M2.6 13.564a4.169 4.169 0 01-.364-.3 2.91 2.91 0 01-.589-.731 1.1 1.1 0 01-.147-.511c0-.986.569-1.864 1.438-2.273L20 21.827 37.063 9.75A2.496 2.496 0 0138.5 12a.92.92 0 01-.037.269c-.164.568-.821 1.127-1.06 1.295L20 25.881 2.6 13.564z" fill="#f78f8f"></path><path d="M2.905 10.339L19.422 22.03l.578.409.578-.409 16.517-11.69c.555.364.905.989.905 1.684 0 .03-.006.066-.017.106-.113.391-.633.86-.871 1.028L20 25.269 2.855 13.132a3.624 3.624 0 01-.277-.233 2.448 2.448 0 01-.49-.601A.641.641 0 012 12c0-.676.35-1.297.905-1.661m.098-1.156A2.991 2.991 0 001 12v.023c0 .26.082.513.205.744.184.347.461.649.691.864.154.143.287.248.358.301l.056.041L20 26.494l17.689-12.52s1.004-.696 1.255-1.568c.035-.124.056-.252.056-.382V12a2.991 2.991 0 00-2.002-2.817L20 21.214 3.003 9.183z" fill="#c74343"></path></g><g><path fill="#8bb7f0" d="M13.207 9.5H17.5v-7h5v7h4.293L20 16.293z"></path><path d="M22 3v7h3.586L20 15.586 14.414 10H18V3h4m1-1h-6v7h-5l8 8 8-8h-5V2z" fill="#4e7ab5"></path></g></svg>