<svg viewBox="0 0 40 40" xmlns="http://www.w3.org/2000/svg"><path d="M34 13.5c-2.481 0-4.5-2.019-4.5-4.5s2.019-4.5 4.5-4.5c3.196 0 4.5.821 4.5 2.833 0 2.436-2.016 6.167-4.5 6.167z" fill="#e8d47b"></path><path d="M34 5c3.331 0 4 .893 4 2.333C38 9.755 36.022 13 34 13c-2.206 0-4-1.794-4-4s1.794-4 4-4m0-1a5 5 0 000 10c2.761 0 5-3.905 5-6.667C39 4.572 36.761 4 34 4z" fill="#ba9b48"></path><path d="M6 13.5c-2.484 0-4.5-3.731-4.5-6.167C1.5 5.321 2.804 4.5 6 4.5c2.481 0 4.5 2.019 4.5 4.5S8.482 13.5 6 13.5z" fill="#e8d47b"></path><path d="M6 5c2.206 0 4 1.794 4 4s-1.794 4-4 4c-2.022 0-4-3.245-4-5.667C2 5.893 2.669 5 6 5m0-1c-2.761 0-5 .572-5 3.333C1 10.095 3.239 14 6 14A5 5 0 006 4z" fill="#ba9b48"></path><path d="M20 29.5c-2.652 0-5.055-1.364-6.427-3.649l-.073-.122-.126-.065C8.517 23.161 5.5 18.223 5.5 12.776V1.515h29v11.261c0 5.446-3.017 10.384-7.874 12.887l-.126.066-.073.122C25.055 28.136 22.652 29.5 20 29.5z" fill="#ffeea3"></path><path d="M34 2.015v10.761c0 5.258-2.913 10.026-7.603 12.443l-.253.13-.146.244C24.717 27.726 22.475 29 20 29s-4.717-1.274-5.998-3.407l-.146-.244-.253-.13C8.913 22.802 6 18.035 6 12.776V2.015h28m1-1H5v11.761c0 5.812 3.311 10.841 8.145 13.331C14.543 28.437 17.086 30 20 30s5.457-1.563 6.855-3.892C31.689 23.617 35 18.588 35 12.776V1.015z" fill="#ba9b48"></path><circle cx="26" cy="7" r="2" fill="#36404d"></circle><circle cx="14" cy="7" r="2" fill="#36404d"></circle><path fill="#ffeea3" d="M6 1h28v2H6z"></path><g><path d="M20 32.5c-5.879 0-8.5-3.547-8.5-11.5v-.5h.5c.394 0 .6.673.849 1.625.275 1.058.619 2.375 1.818 2.375 1.662 0 1.817-2.166 1.831-3.215.462-.249 1.665-.785 3.458-.785l.117-.001c1.77 0 2.967.536 3.429.786.014 1.049.169 3.215 1.831 3.215 1.199 0 1.543-1.317 1.818-2.375.249-.952.455-1.625.849-1.625h.5v.5c0 7.953-2.621 11.5-8.5 11.5z" fill="#b27354"></path><path d="M19.923 21a.992.992 0 00.082.003l.069-.002.008-.001c1.403.006 2.41.36 2.932.6.114 2.257.892 3.4 2.319 3.4 1.586 0 2.017-1.654 2.302-2.749.09-.344.228-.874.364-1.144C27.97 30.702 23.941 32 20 32s-7.97-1.298-8-10.893c.136.27.275.8.364 1.144.286 1.095.717 2.749 2.303 2.749 1.427 0 2.205-1.143 2.319-3.399.525-.242 1.533-.595 2.937-.601M29 20h-1c-1.622 0-1.042 4-2.667 4C24.292 24 24 22.667 24 21c0 0-1.422-1-3.956-1-.015 0-.029.003-.044.003-.015 0-.028-.003-.044-.003C17.422 20 16 21 16 21c0 1.667-.292 3-1.333 3-1.625 0-1.044-4-2.667-4h-1v1c0 8.608 3.09 12 9 12s9-3.392 9-12v-1z" fill="#704e34"></path></g><path d="M27.899 21.35C27.278 28.892 23.607 30 20 30c-3.608 0-7.279-1.108-7.899-8.651a2.067 2.067 0 00-.101-.241C12.03 30.702 16.059 32 20 32s7.97-1.298 8-10.893a2.187 2.187 0 00-.101.243z" fill="#935c41"></path><path d="M24.5 18h-9a.501.501 0 01-.5-.5c0-.275.225-.5.5-.5h9c.275 0 .5.225.5.5s-.225.5-.5.5z" fill="#ba9b48"></path></svg>