<svg viewBox="0 0 40 40" xmlns="http://www.w3.org/2000/svg"><path fill="#ffeea3" d="M13.5 33.5v-.796l2.663-8.204h7.674l2.663 8.204v.796z"></path><path d="M23.473 25L26 32.783V33H14v-.217L16.527 25h6.946m.727-1h-8.4L13 32.625V34h14v-1.375L24.2 24z" fill="#ba9b48"></path><path fill="#ffeea3" d="M13.5 15.5v-.796L16.163 6.5h7.674l2.663 8.204v.796z"></path><path d="M23.473 7L26 14.783V15H14v-.217L16.527 7h6.946m.727-1h-8.4L13 14.625V16h14v-1.375L24.2 6z" fill="#ba9b48"></path><path fill="#ffeea3" d="M6.5 24.5v-.796L9.163 15.5h7.674l2.663 8.204v.796z"></path><path d="M16.473 16L19 23.783V24H7v-.217L9.527 16h6.946m.727-1H8.8L6 23.625V25h14v-1.375L17.2 15z" fill="#ba9b48"></path><path fill="#ffeea3" d="M20.5 24.5v-.796l2.663-8.204h7.674l2.663 8.204v.796z"></path><path d="M30.473 16L33 23.783V24H21v-.217L23.527 16h6.946m.727-1h-8.4L20 23.625V25h14v-1.375L31.2 15z" fill="#ba9b48"></path><path fill="#ffeea3" d="M26.5 33.5v-.796l2.663-8.204h7.674l2.663 8.204v.796z"></path><path d="M36.473 25L39 32.783V33H27v-.217L29.527 25h6.946m.727-1h-8.4L26 32.625V34h14v-1.375L37.2 24z" fill="#ba9b48"></path><path fill="#ffeea3" d="M.5 33.5v-.796L3.163 24.5h7.674l2.663 8.204v.796z"></path><path d="M10.473 25L13 32.783V33H1v-.217L3.527 25h6.946m.727-1H2.8L0 32.625V34h14v-1.375L11.2 24z" fill="#ba9b48"></path><path fill="#fff" d="M23.457 7h-6.914l-.333 1h7.58zM23.457 25h-6.914l-.333 1h7.58zM36.457 25h-6.914l-.333 1h7.58zM10.457 25H3.543l-.333 1h7.58zM16.457 16H9.543l-.333 1h7.58zM30.457 16h-6.914l-.333 1h7.58z"></path></svg>