<svg viewBox="0 0 40 40" xmlns="http://www.w3.org/2000/svg"><path d="M20 24.5c-6.341 0-11.5-5.159-11.5-11.5S13.659 1.5 20 1.5 31.5 6.659 31.5 13 26.341 24.5 20 24.5z" fill="#e1ebf2"></path><path d="M20 2c6.065 0 11 4.935 11 11s-4.935 11-11 11S9 19.065 9 13 13.935 2 20 2m0-1C13.373 1 8 6.373 8 13s5.373 12 12 12 12-5.373 12-12S26.627 1 20 1z" fill="#a3b7cc"></path><path d="M19.416 38.5c-.301-1.624-1.404-7.599-1.636-9.077-.179-1.136-1.557-1.638-2.28-1.825V24.5h9v3.098c-.724.187-2.102.689-2.28 1.825-.231 1.479-1.335 7.454-1.636 9.078h-1.168z" fill="#ffc49c"></path><path d="M24 25v2.22c-.872.281-2.08.89-2.274 2.125-.214 1.368-1.181 6.615-1.558 8.655h-.337c-.377-2.04-1.344-7.287-1.558-8.655-.193-1.235-1.401-1.843-2.273-2.125V25h8m1-1H15v4s2.105.353 2.286 1.5C17.557 31.234 19 39 19 39h2s1.443-7.766 1.714-9.5C22.895 28.352 25 28 25 28v-4z" fill="#b08159"></path><circle cx="19.5" cy="12.5" r="1" fill="#e1ebf2"></circle><path d="M19.5 12a.5.5 0 110 1 .5.5 0 010-1m0-1a1.5 1.5 0 10-.001 2.999A1.5 1.5 0 0019.5 11z" fill="#b0c1d4"></path><circle cx="24.5" cy="12.5" r="1" fill="#e1ebf2"></circle><path d="M24.5 12a.5.5 0 110 1 .5.5 0 010-1m0-1a1.5 1.5 0 10-.001 2.999A1.5 1.5 0 0024.5 11z" fill="#b0c1d4"></path><circle cx="29.5" cy="12.5" r="1" fill="#e1ebf2"></circle><path d="M29.5 12a.5.5 0 110 1 .5.5 0 010-1m0-1a1.5 1.5 0 10.001 3.001A1.5 1.5 0 0029.5 11z" fill="#b0c1d4"></path><circle cx="14.5" cy="12.5" r="1" fill="#e1ebf2"></circle><path d="M14.5 12a.5.5 0 110 1 .5.5 0 010-1m0-1a1.5 1.5 0 10-.001 2.999A1.5 1.5 0 0014.5 11z" fill="#b0c1d4"></path><circle cx="17.5" cy="8.5" r="1" fill="#e1ebf2"></circle><path d="M17.5 8a.5.5 0 110 1 .5.5 0 010-1m0-1a1.5 1.5 0 10-.001 2.999A1.5 1.5 0 0017.5 7z" fill="#b0c1d4"></path><circle cx="22.5" cy="8.5" r="1" fill="#e1ebf2"></circle><path d="M22.5 8a.5.5 0 110 1 .5.5 0 010-1m0-1a1.5 1.5 0 10-.001 2.999A1.5 1.5 0 0022.5 7z" fill="#b0c1d4"></path><circle cx="27.5" cy="8.5" r="1" fill="#e1ebf2"></circle><path d="M27.5 8a.5.5 0 110 1 .5.5 0 010-1m0-1a1.5 1.5 0 10.001 3.001A1.5 1.5 0 0027.5 7z" fill="#b0c1d4"></path><circle cx="12.5" cy="8.5" r="1" fill="#e1ebf2"></circle><path d="M12.5 8a.5.5 0 110 1 .5.5 0 010-1m0-1a1.5 1.5 0 10.001 3.001A1.5 1.5 0 0012.5 7z" fill="#b0c1d4"></path><g><circle cx="20.5" cy="4.5" r="1" fill="#e1ebf2"></circle><path d="M20.5 4a.5.5 0 110 1 .5.5 0 010-1m0-1a1.5 1.5 0 10-.001 2.999A1.5 1.5 0 0020.5 3z" fill="#b0c1d4"></path></g><g><circle cx="15.5" cy="4.5" r="1" fill="#e1ebf2"></circle><path d="M15.5 4a.5.5 0 110 1 .5.5 0 010-1m0-1a1.5 1.5 0 10.001 3.001A1.5 1.5 0 0015.5 3z" fill="#b0c1d4"></path></g><g><circle cx="16.5" cy="16.5" r="1" fill="#e1ebf2"></circle><path d="M16.5 16a.5.5 0 110 1 .5.5 0 010-1m0-1a1.5 1.5 0 10-.001 2.999A1.5 1.5 0 0016.5 15z" fill="#b0c1d4"></path></g><g><circle cx="21.5" cy="16.5" r="1" fill="#e1ebf2"></circle><path d="M21.5 16a.5.5 0 110 1 .5.5 0 010-1m0-1a1.5 1.5 0 10-.001 2.999A1.5 1.5 0 0021.5 15z" fill="#b0c1d4"></path></g><g><circle cx="26.5" cy="16.5" r="1" fill="#e1ebf2"></circle><path d="M26.5 16a.5.5 0 110 1 .5.5 0 010-1m0-1a1.5 1.5 0 10.001 3.001A1.5 1.5 0 0026.5 15z" fill="#b0c1d4"></path></g><g><circle cx="11.5" cy="16.5" r="1" fill="#e1ebf2"></circle><path d="M11.5 16a.5.5 0 110 1 .5.5 0 010-1m0-1a1.5 1.5 0 10.001 3.001A1.5 1.5 0 0011.5 15z" fill="#b0c1d4"></path></g><g><circle cx="23.5" cy="20.5" r="1" fill="#e1ebf2"></circle><path d="M23.5 20a.5.5 0 110 1 .5.5 0 010-1m0-1a1.5 1.5 0 10.001 3.001A1.5 1.5 0 0023.5 19z" fill="#b0c1d4"></path></g><g><circle cx="18.5" cy="20.5" r="1" fill="#e1ebf2"></circle><path d="M18.5 20a.5.5 0 110 1 .5.5 0 010-1m0-1a1.5 1.5 0 10-.001 2.999A1.5 1.5 0 0018.5 19z" fill="#b0c1d4"></path></g><g><path d="M15 27v1s1.453.253 2.043 1h5.914c.59-.748 2.043-1 2.043-1v-1H15z" fill="#b08159"></path></g><g fill="#b0c1d4"><path d="M24 4.5a1.5 1.5 0 002.998.02 11.045 11.045 0 00-2.136-1.372c-.508.24-.862.753-.862 1.352zm1.5-.5a.5.5 0 110 1 .5.5 0 010-1zM11 12.5a1.5 1.5 0 00-1.814-1.466c-.077.425-.125.859-.152 1.299A.495.495 0 019.5 12a.5.5 0 010 1 .494.494 0 01-.48-.4c-.005.134-.02.265-.02.4 0 .311.021.618.047.923.144.046.294.077.453.077a1.5 1.5 0 001.5-1.5zM30 16.5c0 .246.065.475.17.68.262-.636.47-1.299.609-1.988A1.496 1.496 0 0030 16.5zM20.5 23c-.635 0-1.175.397-1.394.955.296.024.592.045.894.045.627 0 1.238-.065 1.837-.166A1.496 1.496 0 0020.5 23zM28.5 19a1.5 1.5 0 00-1.5 1.5c0 .285.084.549.223.776.273-.239.533-.49.782-.755 0-.008-.004-.014-.004-.022 0-.266.211-.48.474-.495.23-.278.447-.567.649-.866A1.515 1.515 0 0028.5 19zM13.672 21.983A1.496 1.496 0 0013.5 19a1.5 1.5 0 00-1.5 1.5l.003.03a11.108 11.108 0 001.669 1.453zM13.5 20a.5.5 0 110 1 .5.5 0 010-1z"></path></g></svg>