<svg viewBox="0 0 40 40" xmlns="http://www.w3.org/2000/svg"><path d="M22.5 5c0-.706.266-1.39.729-1.876.834-.874 3.408-1.624 4.931-1.624.14 0 .229.027.267.079.263.365-.218 1.8-.376 2.272-.17.51-.524.926-.998 1.171-.585.304-2.062.478-4.053.478h-.207l-.293.293V5z" fill="#e1ebf2"></path><path d="M28.005 2.003c-.013.312-.156.878-.428 1.69-.129.385-.397.7-.755.886C26.43 4.782 25.219 5 23 5c0-.579.216-1.137.591-1.531.714-.749 2.999-1.419 4.414-1.466M28.16 1c-1.537 0-4.297.734-5.293 1.779A3.221 3.221 0 0022 5v2l1-1c1.082 0 3.349-.049 4.283-.534a2.543 2.543 0 001.243-1.456c.435-1.302.948-3.01-.366-3.01z" fill="#93a8bc"></path><path fill="#36404d" d="M22 6h1v4h-1z"></path><path d="M19.207 6.5H19c-1.991 0-3.468-.174-4.053-.478a2.038 2.038 0 01-.998-1.171c-.158-.472-.639-1.908-.376-2.272.037-.052.127-.079.267-.079 1.523 0 4.098.75 4.931 1.624.463.486.729 1.17.729 1.876v.793l-.293-.293z" fill="#e1ebf2"></path><path d="M13.995 3.003c1.415.048 3.699.717 4.413 1.466.376.394.592.952.592 1.531-2.219 0-3.43-.218-3.822-.421a1.543 1.543 0 01-.755-.886c-.272-.812-.415-1.379-.428-1.69M13.84 2c-1.314 0-.8 1.708-.365 3.01a2.543 2.543 0 001.243 1.456c.933.485 3.2.534 4.282.534l1 1V6c0-.83-.306-1.631-.867-2.221C18.136 2.734 15.376 2 13.84 2z" fill="#93a8bc"></path><path fill="#36404d" d="M19 7h1v4h-1z"></path><path d="M29.5 33.5V21.071l3.392 2.842c.397.269.608.663.608 1.087v7c0 .827-.673 1.5-1.5 1.5h-2.5z" fill="#839cb2"></path><path d="M30 22.142l2.571 2.154.042.035.046.03A.77.77 0 0133 25v7c0 .551-.449 1-1 1h-2V22.142M29 20v14h3a2 2 0 002-2v-7c0-.591-.295-1.142-.787-1.47L29 20z" fill="#66798f"></path><path fill="#839cb2" d="M15.5 35.5h11v3h-11z"></path><path d="M26 36v2H16v-2h10m1-1H15v4h12v-4z" fill="#66798f"></path><path d="M12.274 34.533C11.942 34.168 4 25.206 4 17c0-5.411 6.014-6.991 9-7v1c-1 0-8 .807-8 6 0 7.679 8.155 16.98 8.233 17.065l-.959.468z" fill="#36404d"></path><path d="M14 35.5c-.827 0-1.5-.673-1.5-1.5V11c0-.827.673-1.5 1.5-1.5h11c2.481 0 4.5 2.019 4.5 4.5v20c0 .827-.673 1.5-1.5 1.5H14z" fill="#f78f8f"></path><path d="M25 10c2.206 0 4 1.794 4 4v20c0 .551-.449 1-1 1H14c-.551 0-1-.449-1-1V11c0-.551.449-1 1-1h11m0-1H14a2 2 0 00-2 2v23a2 2 0 002 2h14a2 2 0 002-2V14a5 5 0 00-5-5z" fill="#c74343"></path><g><path d="M12.5 31.5v-18H23c1.379 0 2.5 1.122 2.5 2.5v15.5h-13z" fill="#839cb2"></path><path d="M23 14c1.103 0 2 .897 2 2v15H13V14h10m0-1H12v19h14V16a3 3 0 00-3-3z" fill="#66798f"></path></g><g><path fill="#66798f" d="M12.5 17.5h10v3h-10z"></path><path d="M22 18v2h-9v-2h9m1-1H12v4h11v-4z" fill="#66798f"></path></g><g><path fill="#839cb2" d="M12 23h11v1H12z"></path><path fill="#66798f" d="M23 23H12v1h11v-1z"></path></g><g><path fill="#66798f" d="M31 25h-1v6h1v-6z"></path></g></svg>