<svg viewBox="0 0 40 40" xmlns="http://www.w3.org/2000/svg"><path d="M20 38.5c-6.521 0-10.294-6.903-12.312-12.693l-.106-.307-.325-.027A2.97 2.97 0 014.5 22.5c0-.974.48-1.892 1.285-2.455l.267-.187-.063-.319C5.651 17.829 5.5 16.53 5.5 16 5.5 8.005 12.005 1.5 20 1.5S34.5 8.005 34.5 16c0 .53-.151 1.829-.489 3.539l-.063.319.267.187A3.001 3.001 0 0135.5 22.5a2.97 2.97 0 01-2.757 2.973l-.325.027-.107.307C30.294 31.597 26.521 38.5 20 38.5z" fill="#ffeea3"></path><path d="M20 2c7.72 0 14 6.28 14 14 0 .49-.15 1.776-.479 3.441l-.126.639.534.374A2.506 2.506 0 0135 22.5a2.475 2.475 0 01-2.298 2.475l-.649.053-.214.615C29.876 31.28 26.227 38 20 38s-9.876-6.72-11.84-12.358l-.214-.615-.649-.053A2.474 2.474 0 015 22.5c0-.811.401-1.576 1.072-2.046l.534-.374-.126-.639C6.15 17.776 6 16.49 6 16 6 8.28 12.28 2 20 2m0-1C11.716 1 5 7.716 5 16c0 .572.155 1.9.498 3.635A3.491 3.491 0 004 22.5a3.487 3.487 0 003.216 3.471C9.393 32.219 13.369 39 20 39s10.607-6.781 12.784-13.029A3.487 3.487 0 0036 22.5a3.491 3.491 0 00-1.498-2.865C34.845 17.9 35 16.572 35 16c0-8.284-6.716-15-15-15z" fill="#ba9b48"></path><path fill="none" stroke="#5e9c76" stroke-width="2" stroke-miterlimit="10" d="M12 20h16M20 12v16"></path></svg>