<svg viewBox="0 0 40 40" xmlns="http://www.w3.org/2000/svg"><path fill="#99c99e" d="M.5 2.5h39v17H.5z"></path><path d="M39 3v16H1V3h38m1-1H0v18h40V2z" fill="#5e9c76"></path><path d="M18 11c0 1.133-.867 2-2 2s-2-.867-2-2 .867-2 2-2 2 .867 2 2zM8 9c-1.133 0-2 .867-2 2s.867 2 2 2 2-.867 2-2-.867-2-2-2zM32 9c-1.133 0-2 .867-2 2s.867 2 2 2 2-.867 2-2-.867-2-2-2zM24 9c-1.133 0-2 .867-2 2s.867 2 2 2 2-.867 2-2-.867-2-2-2z" fill="#fff"></path><g><path fill="#99c99e" d="M10.707 31l2.308-2.308 4.072 4.071 9.985-9.984L29.293 25 17 37.293z"></path><path d="M27.072 23.487L28.586 25 17 36.586 11.414 31l1.601-1.601 3.365 3.364.707.707.707-.707 9.278-9.276m.001-1.414l-9.986 9.983-4.072-4.071L10 31l7 7.001L30 25l-2.927-2.927z" fill="#5e9c76"></path></g></svg>