<svg viewBox="0 0 40 40" xmlns="http://www.w3.org/2000/svg"><path d="M16.454 34.5c-1.532-.013-2.845-1.341-2.931-2.972a18.93 18.93 0 00-9.287-15.307C3.125 15.583 2.5 14.596 2.5 13.5c0-1.654 1.346-3 3-3 .487 0 .954.115 1.387.342l.136.071c2.796 1.594 11.585 7.589 12.459 20.209L16.454 34.5z" fill="#8bb7f0"></path><path d="M5.5 11c.406 0 .794.096 1.156.285l.106.055c2.708 1.541 11.265 7.358 12.206 19.607l-2.727 3.041c-1.178-.126-2.152-1.194-2.221-2.499a19.432 19.432 0 00-9.557-15.714C4.024 15.522 3 14.795 3 13.5 3 12.122 4.122 11 5.5 11m0-1A3.5 3.5 0 002 13.5c0 1.382.843 2.498 1.966 3.142.754.433 8.387 4.721 9.057 14.912.101 1.9 1.643 3.446 3.453 3.446h.201l3.319-3.701C19.09 16.696 7.626 10.694 7.123 10.394l-.004.005A3.472 3.472 0 005.5 10z" fill="#4e7ab5"></path><path d="M16.435 34.5c-.517 0-1.106-.192-1.577-.513a2.92 2.92 0 01-1.273-1.869 2.914 2.914 0 01.428-2.238c6.104-9.621-.042-19.774-.109-19.867-.814-1.42-.375-3.23 1.028-4.073a3.004 3.004 0 011.544-.44c1.014 0 1.934.546 2.46 1.46l.066.127c1.753 3.27 6.932 14.812-.058 26.049-.589.86-1.508 1.364-2.509 1.364z" fill="#f78f8f"></path><path d="M16.476 6c.826 0 1.577.444 2.015 1.19l.071.133c1.722 3.21 6.807 14.538-.018 25.512-.507.741-1.276 1.165-2.109 1.165-.419 0-.904-.159-1.32-.443a2.411 2.411 0 01-1.04-1.541 2.434 2.434 0 01.368-1.879c5.943-9.368.549-19.256-.079-20.325l.003-.002c-.719-1.249-.365-2.728.822-3.442A2.508 2.508 0 0116.476 6m0-1c-.607 0-1.228.166-1.802.512-1.663 1-2.152 3.099-1.174 4.798.293.4 5.869 10.196.098 19.292-1.076 1.599-.587 3.799.978 4.798.587.4 1.272.6 1.858.6 1.174 0 2.25-.6 2.934-1.599 8.021-12.895.293-26.09 0-26.69C18.729 5.598 17.627 5 16.476 5z" fill="#c74343"></path><g><path d="M30.377 38.492C28.717 38.357 27.5 36.588 27.5 35c.309-16.104-12.493-23.939-12.622-24.016a2.935 2.935 0 01-1.298-1.853 2.954 2.954 0 01.361-2.25c.535-.852 1.518-1.381 2.567-1.381.56 0 1.101.152 1.563.44.174.1 15.717 9.833 15.424 29.354l-3.118 3.198z" fill="#ffeea3"></path><path d="M16.508 6c.467 0 .916.126 1.333.385.155.088 15.339 9.607 15.158 28.704l-2.804 2.875C28.915 37.719 28 36.291 28 35.019c.315-16.399-12.327-24.143-12.85-24.455a2.45 2.45 0 01-1.084-1.546 2.457 2.457 0 01.298-1.872C14.809 6.439 15.63 6 16.508 6m-.001-1c-1.175 0-2.337.575-2.99 1.615-1.004 1.599-.502 3.798 1.104 4.798.503.3 12.68 7.894 12.379 23.587 0 1.999 1.573 4 3.58 4l3.412-3.498c.402-19.691-14.954-29.587-15.657-29.986A3.443 3.443 0 0016.507 5z" fill="#ba9b48"></path></g><g><path d="M30.494 38.5c-.456 0-.968-.146-1.567-.446-1.42-.839-1.857-2.604-.986-4.089 6.928-11.848 1.816-24.251.085-27.77l-.016-.033v-.013l-.058-.109c-.797-1.51-.322-3.283 1.104-4.125A2.954 2.954 0 0130.55 1.5c1.062 0 2.032.574 2.596 1.534.095.167 9.68 17.373 0 33.917-.564.97-1.556 1.549-2.652 1.549z" fill="#bae0bd"></path><path d="M30.55 2c.883 0 1.692.481 2.158 1.276.096.169 9.54 17.127.004 33.425C32.24 37.514 31.41 38 30.493 38c-.369 0-.798-.123-1.311-.377-1.183-.717-1.533-2.175-.811-3.406 7.006-11.983 1.929-24.5.137-28.17v-.021l-.116-.219c-.67-1.269-.276-2.757.917-3.461.39-.23.807-.346 1.241-.346m0-1c-.59 0-1.191.156-1.748.484-1.691.998-2.189 3.093-1.293 4.789 0 .1 7.759 14.168 0 27.438-.995 1.696-.497 3.791 1.194 4.789.597.3 1.194.5 1.79.5a3.541 3.541 0 003.084-1.796c9.749-16.663.398-33.724 0-34.423C32.91 1.644 31.751 1 30.55 1z" fill="#5e9c76"></path></g></svg>