<svg viewBox="0 0 40 40" xmlns="http://www.w3.org/2000/svg"><path d="M17.286 31.714c-.743 0-1.485-.05-2.214-.149V11.149c.73-.099 1.473-.149 2.214-.149 2.685 0 5.265.642 7.462 1.855-.016.029 0 .336.01.52.025.471.053 1.004.446 1.281.323.228.721.254.991.254.167 0 .342-.012.517-.024.15-.01.299-.021.44-.021.292 0 .365.051.381.066 1.848 1.847 2.824 4.069 2.824 6.426 0 5.711-5.864 10.357-13.071 10.357z" fill="#b08159"></path><path d="M17.286 11.5c2.494 0 4.893.57 6.957 1.651.007.082.012.176.016.249.028.526.066 1.247.658 1.664.439.309.94.345 1.279.345.178 0 .365-.012.551-.025.138-.009.275-.02.405-.02.049 0 .085.002.111.004 1.698 1.734 2.595 3.802 2.595 5.989 0 5.435-5.64 9.857-12.571 9.857a16.05 16.05 0 01-1.714-.092v-19.53c.566-.061 1.14-.092 1.713-.092m0-1c-.93 0-1.837.076-2.714.218v21.278c.877.142 1.785.218 2.714.218 7.495 0 13.571-4.861 13.571-10.857 0-2.565-1.112-4.922-2.971-6.78-.17-.17-.435-.213-.735-.213-.305 0-.646.045-.956.045-.272 0-.521-.034-.703-.163-.4-.282-.064-1.586-.503-1.829-2.188-1.209-4.842-1.917-7.703-1.917z" fill="#593f33"></path><path d="M32 38.5c-1.285 0-2.5-1.113-2.5-2.29 0-.567.137-1.34.79-1.803l.302-.214-.117-.352c-.14-.419-.843-2.623-.975-4.871l-.018-.303-.277-.124c-.783-.35-1.416-.953-2.116-2.016-.821-1.246-1.097-2.758-.758-4.151l.083-.342-.294-.193c-1.315-.865-2.069-2.184-2.069-3.618 0-1.481 1.046-2.216 2.257-3.066.688-.483 1.396-.981 1.936-1.649 2.101.123 4.256 1.877 4.256 6.492v.207l.146.146C34.358 22.065 34.5 24.474 34.5 27v.176l.11.137c1.837 2.291 1.89 5.346 1.89 5.687v.153l.086.127c.462.684.914 1.458.914 2.72 0 1.244-.773 2.5-2.5 2.5h-3z" fill="#b08159"></path><path d="M28.457 14.027C30.655 14.296 32 16.533 32 20v.414l.293.293C33.869 22.284 34 24.583 34 27v.351l.22.274C35.98 29.821 36 32.871 36 33v.306l.172.254c.436.646.828 1.318.828 2.44 0 .334-.096 2-2 2h-3c-.991 0-2-.903-2-1.789 0-.449.1-1.055.579-1.395l.604-.429-.234-.703c-.136-.408-.822-2.557-.95-4.742l-.036-.606-.554-.248c-.69-.309-1.259-.857-1.903-1.835-.745-1.13-.997-2.5-.69-3.758l.167-.685-.589-.387c-1.172-.771-1.844-1.937-1.844-3.2 0-1.164.739-1.74 2.045-2.658.646-.454 1.311-.921 1.862-1.538M28 13c-1.361 1.916-4.451 2.457-4.451 5.223 0 1.662.91 3.124 2.294 4.035-.354 1.456-.116 3.113.827 4.544.659 1 1.348 1.758 2.33 2.198.125 2.125.75 4.25 1 5-.693.492-1 1.296-1 2.211C29 37.71 30.501 39 32 39h3c2.042 0 3-1.501 3-3 0-1.417-.521-2.292-1-3 0-.625-.146-3.688-2-6 0-2.25-.063-5.063-2-7 0-4.958-2.437-7-5-7z" fill="#593f33"></path><path d="M4 38.5c-1.624 0-2.5-1.288-2.5-2.5 0-.968.444-1.858.938-2.76l.062-.112V33c0-2.094.34-4.948 1.959-6.656l.173-.183-.044-.249a4.882 4.882 0 01-.088-.867c0-2.676 1.909-4.545 4.643-4.545 1.784 0 3.434.989 4.305 2.58l.115.21.236.042c2.517.444 4.343 2.182 4.343 4.132 0 2.188-2.758 4.036-6.023 4.036a7.051 7.051 0 01-1.958-.286l-.637-.182v.663c0 .417-.372 2.044-.958 3.054l-.434.751H9c.694 0 1.5.655 1.5 1.5 0 .884-.791 1.5-1.5 1.5H4z" fill="#b08159"></path><path d="M9.143 21c1.602 0 3.084.889 3.867 2.32l.231.421.473.083c2.277.401 3.93 1.932 3.93 3.64 0 1.917-2.529 3.536-5.523 3.536a6.544 6.544 0 01-1.821-.267l-1.275-.364v1.325c0 .326-.35 1.872-.89 2.803L7.264 36H9c.45 0 1 .461 1 1 0 .572-.528 1-1 1H4c-1.299 0-2-1.03-2-2 0-.851.397-1.644.877-2.519L3 33.256V33c0-2.003.316-4.723 1.822-6.312l.347-.366-.088-.497a4.372 4.372 0 01-.081-.78C5 22.626 6.665 21 9.143 21m0-1C6.145 20 4 22.047 4 25.045c0 .327.041.644.096.955C2.437 27.75 2 30.563 2 33c-.531.969-1 1.915-1 3 0 1.499 1.126 3 3 3h5c1.031 0 2-.876 2-2s-1.031-2-2-2c.61-1.052 1.025-2.771 1.025-3.305A7.612 7.612 0 0012.12 32c3.373 0 6.523-1.912 6.523-4.536 0-2.261-2.036-4.145-4.756-4.625C12.965 21.156 11.198 20 9.143 20z" fill="#593f33"></path><path d="M16 38.5c-1.18 0-2.5-.947-2.5-2.214 0-.874.824-1.602 1.621-1.801l.59-.147-.259-.55a24 24 0 01-.977-2.458l-.084-.262-.267-.069c-1.379-.355-2.468-1.57-2.774-3.097-.116-.576-.095-1.125.068-1.781l.064-.258-.179-.198a7.122 7.122 0 01-.67-.838c-1.138-1.727-1.441-3.848-.81-5.673l.09-.26-.172-.215C9.022 17.777 8.5 16.23 8.5 15c0-3.136 2.6-5.5 6.048-5.5.069 0 .136.01.203.018.072.009.145.018.219.022l.324.02.15-.287C18.012 4.35 20.235 1.5 24 1.5c2.212 0 5.5 4.028 5.5 6.143 0 .382 0 .857-2.214.857a.646.646 0 00-.554.294c-.287.447-.039 1.09.69 2.682.25.547.628 1.374.635 1.593a4.032 4.032 0 00-.139.519c-.056.244-.161.699-.238.808l-.534.307.481.401C29.265 16.937 30.5 19.901 30.5 22c0 3.838-2.58 6.708-7.668 8.529l-.298.107-.031.315a8.165 8.165 0 01-.205 1.252l-.061.236.148.193c.698.91 1.115 2.17 1.115 3.368 0 1.212-.876 2.5-2.5 2.5h-5z" fill="#b08159"></path><path d="M24 2c1.911 0 5 3.798 5 5.643 0 .057-.001.102-.003.134-.114.062-.523.223-1.711.223a1.15 1.15 0 00-.974.524c-.461.719-.041 1.638.656 3.16.198.433.486 1.063.571 1.35-.036.134-.072.285-.108.441a8.506 8.506 0 01-.139.55l-.858.495.821.918C28.794 17.16 30 20.042 30 22c0 3.605-2.469 6.316-7.337 8.059l-.597.214-.061.631a7.853 7.853 0 01-.191 1.175l-.122.472.296.386C22.622 33.762 23 34.908 23 36c0 .97-.701 2-2 2h-5c-1.028 0-2-.833-2-1.714 0-.621.645-1.166 1.243-1.316l1.18-.295-.518-1.101a23.293 23.293 0 01-.953-2.398l-.169-.524-.534-.137c-1.194-.307-2.14-1.371-2.409-2.711-.102-.506-.083-.973.063-1.563l.128-.517-.357-.395a6.646 6.646 0 01-.623-.778c-1.053-1.598-1.335-3.555-.755-5.234l.18-.521-.344-.43C9.487 17.558 9 16.111 9 15c0-2.85 2.385-5 5.548-5 .048 0 .095.008.141.014.083.01.166.02.251.025l.647.039.3-.575C18.366 4.751 20.489 2 24 2m0-1c-4.124 0-6.5 3.25-9 8.041-.152-.009-.297-.041-.452-.041C10.8 9 8 11.627 8 15c0 1.33.55 2.987 1.352 3.99-.656 1.899-.409 4.178.865 6.111.216.327.463.618.717.899-.162.653-.218 1.281-.073 2 .355 1.77 1.626 3.093 3.14 3.483.29.9.75 1.986 1 2.517-1 .25-2 1.153-2 2.286C13 37.785 14.501 39 16 39h5c1.874 0 3-1.501 3-3 0-1.142-.365-2.559-1.218-3.673A8.77 8.77 0 0023 31c4.735-1.695 8-4.582 8-9 0-2.353-1.41-5.45-3-7.228.264-.152.39-1.138.546-1.62C28.732 12.58 26.501 9 27.286 9 29.92 9 30 8.266 30 7.643 30 5.232 26.502 1 24 1z" fill="#593f33"></path><path d="M17.5 16.5c2.833 1.146 3.708 5.188 3.113 7.412l-.131.352a10.98 10.98 0 011.414 2.861c.693 2.148.56 4.025.398 5.089" fill="none" stroke="#593f33" stroke-linecap="round" stroke-miterlimit="10"></path><path d="M27 14.5c-.625 0-1.057-.176-1.283-.522-.337-.518-.216-1.38.041-1.961l.198-.45-.445-.206a2.57 2.57 0 01-.693-.496c-.788-.789-.398-1.866-.11-2.16a.822.822 0 01.407-.189l.084.014.076-.022.327-.008.398.004 2.001-.004c.646 0 1.104.137 1.288.386.196.266.116.716.014 1.046l-.052.168.064.163c.373.946.103 2.192-.721 3.334-.437.608-.959.903-1.594.903z" fill="#805f51"></path><path d="M25.601 9l.219.002.182.002 2-.004c.612 0 .85.136.885.183.018.025.062.2-.062.602l-.103.335.128.326c.365.926-.102 2.084-.661 2.859-.342.474-.72.695-1.189.695-.445 0-.736-.099-.864-.295-.196-.3-.162-.94.079-1.487l.396-.899-.892-.412a2.038 2.038 0 01-.542-.389c-.578-.578-.231-1.343-.141-1.436a.277.277 0 01.093-.054l.018.004.165-.027.088-.001c.07-.003.137-.004.201-.004M28 8l-2 .004c-.107 0-.244-.004-.399-.004-.077 0-.158.001-.241.004-.06 0-.12 0-.18.01a.448.448 0 00-.07-.007.232.232 0 00-.09.017c-.26.05-.49.16-.67.33-.49.5-.87 1.88.12 2.87.29.28.57.47.83.59C24.788 12.976 24.732 15 27 15c1.153 0 1.776-.8 2-1.11.771-1.069 1.28-2.54.78-3.81C30.259 8.529 29.353 8 28 8z" fill="#593f33"></path><path d="M26.022 13.238c.01.185.041.354.114.467.036.055.087.1.148.14.576-.29 1.397-.543 2.007-.692.034-.051.068-.099.101-.152-.812 0-1.854.023-2.37.237zM29 11.32l-.01.078c0-.008.01.008 0 0-.03.243-.149.602-.149.602H27.26s-.2-.305-.25-.523c-.01-.032-.01-.055-.01-.086 0-.219.22-.391.5-.391.16 0 .3.055.39.141.01.008.02.023.03.031.06.047.1.07.16.07.07 0 .11-.039.19-.102.06-.085.18-.14.32-.14.23 0 .41.141.41.32z" fill="#36404d"></path><circle cx="26.5" cy="9.5" r=".5" fill="#36404d"></circle><circle cx="28.5" cy="9.5" r=".5" fill="#36404d"></circle></svg>