<svg viewBox="0 0 40 40" xmlns="http://www.w3.org/2000/svg"><path fill="#36404d" d="M26 28h-1V13H11v-1h15z"></path><path fill="#8bb7f0" d="M6.5 35.5v-1.354L13.274 23.5H14.5v12z"></path><path d="M14 24v11H7v-.709L13.549 24H14m1-1h-2L6 34v2h9V23z" fill="#4e7ab5"></path><path d="M22.574 32.5a16.964 16.964 0 01-12.073-5c-6.539-6.54-6.655-17.106-.349-23.788l24.136 24.136A16.955 16.955 0 0122.574 32.5z" fill="#c2e8ff"></path><path d="M10.168 4.435l23.397 23.397A16.452 16.452 0 0122.574 32a16.465 16.465 0 01-11.719-4.854c-6.225-6.225-6.454-16.21-.687-22.711M10.147 3c-6.863 6.863-6.863 17.99 0 24.853A17.522 17.522 0 0022.574 33 17.52 17.52 0 0035 27.853L10.147 3z" fill="#7496c4"></path><path d="M2.5 38.5V36c0-.827.673-1.5 1.5-1.5h11c.827 0 1.5.673 1.5 1.5v2.5h-14z" fill="#c2e8ff"></path><path d="M15 35c.551 0 1 .449 1 1v2H3v-2c0-.551.449-1 1-1h11m0-1H4a2 2 0 00-2 2v3h15v-3a2 2 0 00-2-2z" fill="#7496c4"></path><g><circle cx="26" cy="12" r="1.5" fill="#4b6477"></circle><path d="M26 11c.551 0 1 .449 1 1s-.449 1-1 1-1-.449-1-1 .449-1 1-1m0-1a2 2 0 10-.001 3.999A2 2 0 0026 10z" fill="#36404d"></path></g><g fill="#8bb7f0"><path d="M35 12h2c0-6.075-4.925-11-11-11v2c4.963 0 9 4.037 9 9z"></path><path d="M31 12h2a7 7 0 00-7-7v2c2.757 0 5 2.243 5 5z"></path></g></svg>