<svg viewBox="0 0 40 40" xmlns="http://www.w3.org/2000/svg"><path fill="#36404d" d="M26 28h-1V13H11v-1h15z"></path><path fill="#8bb7f0" d="M6.5 35.5v-1.354L13.274 23.5H14.5v12z"></path><path d="M14 24v11H7v-.709L13.549 24H14m1-1h-2L6 34v2h9V23z" fill="#4e7ab5"></path><path d="M22.573 32.5a16.964 16.964 0 01-12.073-5c-6.539-6.539-6.655-17.105-.349-23.787l24.136 24.135A16.951 16.951 0 0122.573 32.5z" fill="#c2e8ff"></path><path d="M10.168 4.435l23.397 23.397A16.452 16.452 0 0122.574 32c-4.427 0-8.589-1.724-11.719-4.854S6 19.853 6 15.426c0-4.092 1.473-7.957 4.168-10.991M10.147 3c-6.863 6.863-6.863 17.99 0 24.853C13.579 31.284 18.076 33 22.574 33S31.569 31.284 35 27.853L10.147 3z" fill="#7496c4"></path><path d="M2.5 38.5V36c0-.827.673-1.5 1.5-1.5h11c.827 0 1.5.673 1.5 1.5v2.5h-14z" fill="#c2e8ff"></path><path d="M15 35c.551 0 1 .449 1 1v2H3v-2c0-.551.449-1 1-1h11m0-1H4a2 2 0 00-2 2v3h15v-3a2 2 0 00-2-2z" fill="#7496c4"></path><g><circle cx="26" cy="12" r="1.5" fill="#4b6477"></circle><path d="M26 11c.551 0 1 .449 1 1s-.449 1-1 1-1-.449-1-1 .449-1 1-1m0-1a2 2 0 10-.001 3.999A2 2 0 0026 10z" fill="#36404d"></path></g><g><path fill="#f78f8f" d="M34 7.293l-3 3L29.707 9l3-3-3-3L31 1.707l3 3 3-3L38.293 3l-3 3 3 3L37 10.293z"></path><path d="M37 2.414l.586.586-2.293 2.293-.707.707.707.707L37.586 9 37 9.586l-2.293-2.293L34 6.586l-.707.707L31 9.586 30.414 9l2.293-2.293.707-.707-.707-.707L30.414 3 31 2.414l2.293 2.293.707.707.707-.707L37 2.414M37 1l-3 3-3-3-2 2 3 3-3 3 2 2 3-3 3 3 2-2-3-3 3-3-2-2z" fill="#c74343"></path></g></svg>