<svg viewBox="0 0 40 40" xmlns="http://www.w3.org/2000/svg"><path fill="#c2e0af" d="M6.5 37.5v-35h18.293l8.707 8.707V37.5z"></path><path d="M24.586 3L33 11.414V37H7V3h17.586M25 2H6v36h28V11l-9-9z" fill="#6c945a"></path><path fill="#fff" d="M24.5 11.5v-9h.293l8.707 8.707v.293z"></path><path d="M25 3.414L32.586 11H25V3.414M25 2h-1v10h10v-1l-9-9z" fill="#6c945a"></path><path d="M16.465 26.341c-.377.156-1.17.312-1.808.312-1.014 0-1.78-.286-2.353-.871-.754-.728-1.157-2.028-1.131-3.536.039-3.185 1.846-4.511 3.73-4.511.663 0 1.145.13 1.417.26l-.286 1.469c-.26-.13-.585-.195-1.001-.195-1.17 0-2.093.793-2.093 3.068 0 2.106.819 2.873 1.625 2.873.156 0 .273-.013.338-.039v-2.119h-.793v-1.391h2.354v4.68zM18.063 17.942a8.903 8.903 0 011.781-.169c1.014 0 1.819.143 2.379.676.52.455.754 1.183.754 1.924 0 .949-.286 1.625-.741 2.106-.546.585-1.417.845-2.132.845-.117 0-.221 0-.338-.013v3.263h-1.703v-8.632zm1.704 3.992c.091.013.182.013.286.013.857 0 1.234-.611 1.234-1.43 0-.767-.312-1.365-1.104-1.365a1.27 1.27 0 00-.416.065v2.717zM27.111 26.575l-.546-1.612a22.593 22.593 0 01-.469-1.561h-.039c-.143.559-.272 1.092-.402 1.586l-.469 1.586h-1.689l1.638-4.485-1.573-4.277h1.769l.52 1.625c.131.455.261.91.391 1.404h.025c.144-.533.261-.949.377-1.43l.442-1.599h1.703l-1.638 4.355 1.729 4.407h-1.769z" fill="#588046"></path></svg>