<svg viewBox="0 0 40 40" xmlns="http://www.w3.org/2000/svg"><path fill="#97aec7" d="M1.182 16.333L20 7.552l18.818 8.781L20 25.115z"></path><path d="M20 8.104l17.635 8.23L20 24.563l-17.635-8.23L20 8.104M20 7L0 16.333l20 9.333 20-9.333L20 7z" fill="#66798f"></path><path d="M9.5 24.5V17c0-1.02 4.09-2.5 10.5-2.5s10.5 1.48 10.5 2.5v7.5h-21z" fill="#b0c1d4"></path><path d="M20 15c6.043 0 9.727 1.33 10 2v7H9.999l-.005-6.958C10.273 16.33 13.957 15 20 15m0-1c-6.075 0-11 1.343-11 3v8h22v-8c0-1.657-4.925-3-11-3z" fill="#66798f"></path><path d="M5 30H4V14.499c0-.876 1-.912 1-.465V30z" fill="#a16a4a"></path><g><path d="M4.5 35.564c-.907-1.827-2-4.282-2-5.064 0-1.103.897-2 2-2s2 .897 2 2c0 .782-1.093 3.237-2 5.064z" fill="#ffc49c"></path><path d="M4.5 29c.827 0 1.5.673 1.5 1.5 0 .519-.68 2.195-1.5 3.922C3.68 32.695 3 31.02 3 30.5c0-.827.673-1.5 1.5-1.5m0-1C3.119 28 2 29.119 2 30.5s2.5 6.167 2.5 6.167S7 31.881 7 30.5 5.881 28 4.5 28z" fill="#a16a4a"></path></g><g><ellipse cx="20" cy="25" rx="11" ry="3" fill="#66798f"/></g></svg>