<svg viewBox="0 0 40 40" xmlns="http://www.w3.org/2000/svg"><path d="M18.159 7.42c-1.254 0-2.619-.487-3.744-1.335-1.885-1.423-1.966-3.644-1.907-4.572.899.048 2.774.279 4.475 1.343 1.407.88 2.179 2.765 2.463 4.364-.385.132-.823.2-1.287.2z" fill="#bae0bd"></path><path d="M12.997 2.05c.915.099 2.377.389 3.72 1.229 1.144.715 1.828 2.201 2.144 3.577a3.687 3.687 0 01-.702.064c-1.148 0-2.403-.45-3.443-1.235-1.413-1.066-1.695-2.654-1.719-3.635M12.155 1l-.094.001s-.613 3.471 2.052 5.482c1.259.95 2.734 1.437 4.045 1.437.674 0 1.305-.128 1.841-.388-.225-1.689-1.018-4.016-2.752-5.1C15.077 1.074 12.658 1 12.155 1z" fill="#5e9c76"></path><path d="M22.5 1.5s-3.022 1.014-3.022 9.269" fill="none" stroke="#7a4f34" stroke-linecap="round" stroke-miterlimit="10"></path><circle cx="20" cy="35" r="3.5" fill="#dcd5f2"></circle><path d="M20 32c1.654 0 3 1.346 3 3s-1.346 3-3 3-3-1.346-3-3 1.346-3 3-3m0-1a4 4 0 100 8 4 4 0 000-8z" fill="#8b75a1"></path><circle cx="20" cy="23" r="3.5" fill="#dcd5f2"></circle><path d="M20 20c1.654 0 3 1.346 3 3s-1.346 3-3 3-3-1.346-3-3 1.346-3 3-3m0-1a4 4 0 100 8 4 4 0 000-8z" fill="#8b75a1"></path><circle cx="12" cy="23" r="3.5" fill="#dcd5f2"></circle><path d="M12 20c1.654 0 3 1.346 3 3s-1.346 3-3 3-3-1.346-3-3 1.346-3 3-3m0-1a4 4 0 100 8 4 4 0 000-8z" fill="#8b75a1"></path><circle cx="28" cy="23" r="3.5" fill="#dcd5f2"></circle><path d="M28 20c1.654 0 3 1.346 3 3s-1.346 3-3 3-3-1.346-3-3 1.346-3 3-3m0-1a4 4 0 100 8 4 4 0 000-8z" fill="#8b75a1"></path><circle cx="20" cy="11" r="3.5" fill="#dcd5f2"></circle><path d="M20 8c1.654 0 3 1.346 3 3s-1.346 3-3 3-3-1.346-3-3 1.346-3 3-3m0-1a4 4 0 100 8 4 4 0 000-8z" fill="#8b75a1"></path><circle cx="12" cy="11" r="3.5" fill="#dcd5f2"></circle><path d="M12 8c1.654 0 3 1.346 3 3s-1.346 3-3 3-3-1.346-3-3 1.346-3 3-3m0-1a4 4 0 100 8 4 4 0 000-8z" fill="#8b75a1"></path><g><circle cx="28" cy="11" r="3.5" fill="#dcd5f2"></circle><path d="M28 8c1.654 0 3 1.346 3 3s-1.346 3-3 3-3-1.346-3-3 1.346-3 3-3m0-1a4 4 0 100 8 4 4 0 000-8z" fill="#8b75a1"></path></g><g><circle cx="24" cy="29" r="3.5" fill="#dcd5f2"></circle><path d="M24 26c1.654 0 3 1.346 3 3s-1.346 3-3 3-3-1.346-3-3 1.346-3 3-3m0-1a4 4 0 100 8 4 4 0 000-8z" fill="#8b75a1"></path></g><g><circle cx="16" cy="29" r="3.5" fill="#dcd5f2"></circle><path d="M16 26c1.654 0 3 1.346 3 3s-1.346 3-3 3-3-1.346-3-3 1.346-3 3-3m0-1a4 4 0 100 8 4 4 0 000-8z" fill="#8b75a1"></path></g><g><circle cx="24" cy="17" r="3.5" fill="#dcd5f2"></circle><path d="M24 14c1.654 0 3 1.346 3 3s-1.346 3-3 3-3-1.346-3-3 1.346-3 3-3m0-1a4 4 0 100 8 4 4 0 000-8z" fill="#8b75a1"></path></g><g><circle cx="16" cy="17" r="3.5" fill="#dcd5f2"></circle><path d="M16 14c1.654 0 3 1.346 3 3s-1.346 3-3 3-3-1.346-3-3 1.346-3 3-3m0-1a4 4 0 100 8 4 4 0 000-8z" fill="#8b75a1"></path></g><g><circle cx="8" cy="17" r="3.5" fill="#dcd5f2"></circle><path d="M8 14c1.654 0 3 1.346 3 3s-1.346 3-3 3-3-1.346-3-3 1.346-3 3-3m0-1a4 4 0 100 8 4 4 0 000-8z" fill="#8b75a1"></path></g><g><circle cx="32" cy="17" r="3.5" fill="#dcd5f2"></circle><path d="M32 14c1.654 0 3 1.346 3 3s-1.346 3-3 3-3-1.346-3-3 1.346-3 3-3m0-1a4 4 0 100 8 4 4 0 000-8z" fill="#8b75a1"></path></g></svg>