<svg viewBox="0 0 40 40" xmlns="http://www.w3.org/2000/svg"><path d="M34 13c1.844-.844 1.5-5.886 1.5-8.5M34 15c2.188-1.222 4.5-3.898 4.5-8.5M22.818 22.727L27.5 24.5l2 6h3" fill="none" stroke="#5e9c76" stroke-linecap="round" stroke-linejoin="round" stroke-miterlimit="10"></path><path d="M12.329 31.475c-3.798 0-7.394-1.489-10.442-4.315.592-.254 1.381-.589 2.219-.945a367.777 367.777 0 004.097-1.757A.503.503 0 008.5 24c0-.748-.55-1.527-1.16-2.271.639.022 1.441.237 2.219.445.762.204 1.482.396 2.029.396.243 0 .444-.037.615-.113 1.362-.604 6.238-2.741 11.169-4.902 4.727-2.072 9.505-4.166 11.287-4.952.538.614.931 1.236 1.197 1.892.823 2.032.784 4.464-.107 6.505-.86 1.971-2.427 3.478-4.546 4.379a249.198 249.198 0 01-2.766-4.624.502.502 0 00-.917.104c-1.504 5.105-7.74 10.616-15.191 10.616z" fill="#bae0bd"></path><path d="M34.516 13.212c.382.48.671.966.876 1.471.774 1.91.736 4.197-.102 6.117-.754 1.728-2.091 3.079-3.892 3.943a261.934 261.934 0 01-2.525-4.23 1 1 0 00-1.832.204c-1.454 4.933-7.492 10.258-14.711 10.258-3.431 0-6.696-1.262-9.521-3.665.451-.193.961-.41 1.49-.634 1.467-.623 3.129-1.328 4.106-1.761.362-.161.595-.519.595-.915 0-.545-.219-1.077-.54-1.591.323.075.655.164.97.248.794.212 1.545.413 2.158.413.314 0 .582-.051.818-.156 1.369-.607 6.29-2.763 11.247-4.936 4.423-1.939 8.876-3.89 10.863-4.766m.27-1.212C31.94 13.261 14.759 20.777 12 22c-.11.049-.25.07-.413.07-1.032 0-3.005-.843-4.356-.843-.294 0-.558.04-.777.137C6.297 21.433 8 22.946 8 24c-1.774.786-5.783 2.461-7 3 3.546 3.546 7.526 4.975 11.329 4.975C19.654 31.975 26.327 26.677 28 21c.297.531 2.322 3.925 3 5 5.594-2.125 6.917-7.75 5.319-11.693-.36-.887-.911-1.649-1.533-2.307z" fill="#5e9c76"></path><circle cx="32.5" cy="18.5" r="1.5" fill="#36404d"></circle><path d="M22.5 24.5l1 6 4 4h3M1.5 35.5h6L4.514 20.318" fill="none" stroke="#5e9c76" stroke-linecap="round" stroke-linejoin="round" stroke-miterlimit="10"></path><g><path d="M3.581 16.44a.468.468 0 00-.016-.104c-.105-.399-.134-.973.328-1.435a1.34 1.34 0 01.978-.401c.413 0 .863.161 1.268.454.096.069.707.453 1.603 1.016 2.654 1.665 8.869 5.563 9.707 6.4a3.568 3.568 0 011.052 2.539c0 .959-.374 1.861-1.052 2.539S15.869 28.5 14.91 28.5a3.572 3.572 0 01-2.54-1.052 6.79 6.79 0 00-.636-.52c-.593-.45-1.488-1.129-2.337-2.233a.503.503 0 00-.558-.168A.5.5 0 008.5 25c0 3.459-.682 6.533-1.595 7.511L3.581 16.44z" fill="#bae0bd"></path><path d="M4.871 15c.308 0 .655.128.975.359.115.083.51.331 1.634 1.037 2.412 1.513 8.817 5.53 9.614 6.327.584.584.906 1.36.906 2.186 0 .826-.322 1.602-.905 2.186a3.074 3.074 0 01-2.186.905 3.074 3.074 0 01-2.186-.905c-.18-.18-.403-.349-.686-.564-.606-.459-1.435-1.089-2.244-2.14A.999.999 0 008 25c0 2.804-.418 4.886-.876 6.102L4.078 16.376a1.061 1.061 0 00-.029-.167c-.158-.598.11-.866.198-.953A.84.84 0 014.871 15m0-1a1.84 1.84 0 00-1.332.549c-.534.534-.638 1.234-.457 1.916l-.006.001 3.483 16.835C8.143 32.909 9 28.92 9 25c1.25 1.625 2.56 2.345 3.016 2.802.799.799 1.846 1.198 2.893 1.198s2.094-.399 2.893-1.198a4.09 4.09 0 000-5.785c-1.142-1.142-10.963-7.173-11.37-7.467-.479-.347-1.03-.55-1.561-.55z" fill="#5e9c76"></path></g></svg>