<svg viewBox="0 0 40 40" xmlns="http://www.w3.org/2000/svg"><path d="M14.5 29.833V28c0-1.914-1.168-3.76-2.521-5.897C10.349 19.525 8.5 16.603 8.5 13 8.5 6.659 13.659 1.5 20 1.5S31.5 6.659 31.5 13c0 3.603-1.849 6.525-3.479 9.103C26.668 24.24 25.5 26.086 25.5 28v1.833h-11z" fill="#bae0bd"></path><path d="M20 2c6.065 0 11 4.935 11 11 0 3.458-1.807 6.315-3.402 8.835C26.262 23.947 25 25.941 25 28v1.333H15V28c0-2.059-1.262-4.053-2.598-6.165C10.807 19.315 9 16.458 9 13 9 6.935 13.935 2 20 2m0-1C13.373 1 8 6.373 8 13c0 6.667 6 10.958 6 15v2.333h12V28c0-4.042 6-8.333 6-15 0-6.627-5.373-12-12-12z" fill="#5e9c76"></path><circle cx="20" cy="35" r="4" fill="#5e9c76"></circle><path d="M17 36.5a2.503 2.503 0 01-2.5-2.5v-5.5h11V34c0 1.378-1.121 2.5-2.5 2.5h-6z" fill="#99c99e"></path><path d="M25 29v5c0 1.103-.897 2-2 2h-6c-1.103 0-2-.897-2-2v-5h10m1-1H14v6a3 3 0 003 3h6a3 3 0 003-3v-6z" fill="#5e9c76"></path><path fill="#5e9c76" d="M19 34h6.488v1H19zM14.56 34H17v1h-2.44zM19 32h7v1h-7zM14 32h3v1h-3zM19 30h7v1h-7zM14 30h3v1h-3zM26 16c0 2.623-2.462 4.75-5.5 4.75S15 18.623 15 16s3-4.815 3-9c0 0 8 3.063 8 9z"></path><g><path d="M18.155 23.466c.01-.021.149-.195.39-.598.245-.396.573-.99.908-1.734.166-.373.342-.78.492-1.224.176-.437.292-.917.439-1.41.115-.497.234-1.017.31-1.551.055-.535.147-1.082.131-1.631l.01-.826-.078-.816c-.024-.548-.165-1.067-.272-1.578-.082-.521-.295-.982-.445-1.441-.139-.465-.35-.87-.547-1.245-.201-.371-.345-.74-.547-1.021l-.504-.741L18 7l.51.597.588.69c.235.262.419.615.666.971.242.361.504.753.7 1.214.206.453.479.915.626 1.445.171.52.379 1.056.469 1.629l.178.86.088.88c.081.591.05 1.182.052 1.768a19.149 19.149 0 01-.15 1.712c-.098.548-.171 1.087-.307 1.58-.111.502-.253.965-.389 1.393a17.26 17.26 0 01-.795 2.031c-.221.482-.402.782-.388.764l-1.693-1.068z" fill="#37774e"></path></g></svg>