<svg viewBox="0 0 40 40" xmlns="http://www.w3.org/2000/svg"><path d="M20 38.5C9.799 38.5 1.5 30.201 1.5 20S9.799 1.5 20 1.5 38.5 9.799 38.5 20 30.201 38.5 20 38.5z" fill="#99c99e"></path><path d="M20 2c9.925 0 18 8.075 18 18s-8.075 18-18 18S2 29.925 2 20 10.075 2 20 2m0-1C9.55 1 1 9.55 1 20s8.55 19 19 19 19-8.55 19-19S30.45 1 20 1z" fill="#5e9c76"></path><path d="M20 35.5c-8.547 0-15.5-6.953-15.5-15.5S11.453 4.5 20 4.5 35.5 11.453 35.5 20 28.547 35.5 20 35.5z" fill="#fff"></path><path d="M20 5c8.25 0 15 6.75 15 15s-6.75 15-15 15S5 28.25 5 20 11.75 5 20 5m0-1C11.178 4 4 11.178 4 20s7.178 16 16 16 16-7.178 16-16S28.822 4 20 4z" fill="#5e9c76"></path><path d="M20 27.5c-4.136 0-7.5-3.364-7.5-7.5s3.364-7.5 7.5-7.5 7.5 3.364 7.5 7.5-3.364 7.5-7.5 7.5zm0-12c-2.481 0-4.5 2.019-4.5 4.5s2.019 4.5 4.5 4.5 4.5-2.019 4.5-4.5-2.019-4.5-4.5-4.5z" fill="#99c99e"></path><path d="M20 13c3.86 0 7 3.14 7 7s-3.14 7-7 7-7-3.14-7-7 3.14-7 7-7m0 12c2.757 0 5-2.243 5-5s-2.243-5-5-5-5 2.243-5 5 2.243 5 5 5m0-13c-4.4 0-8 3.6-8 8s3.6 8 8 8 8-3.6 8-8-3.6-8-8-8zm0 12c-2.2 0-4-1.8-4-4s1.8-4 4-4 4 1.8 4 4-1.8 4-4 4z" fill="#5e9c76"></path><g><path fill="#99c99e" d="M13.5 9.5h13v3h-13z"></path><path d="M26 10v2H14v-2h12m1-1H13v4h14V9z" fill="#5e9c76"></path></g><g><path fill="#99c99e" d="M13.5 27.5h13v3h-13z"></path><path d="M26 28v2H14v-2h12m1-1H13v4h14v-4z" fill="#5e9c76"></path></g></svg>