<svg viewBox="0 0 40 40" xmlns="http://www.w3.org/2000/svg"><path d="M26.5 14.345c3.174-.92 7.033-5.118 7.203-5.304.025-.028 1.949-2.145 5.347-2.493-.52 1.003-.55 1.97-.55 3.452 0 .987.241 1.636.475 2.264.258.693.525 1.411.525 2.736 0 6.091-6.259 6.486-6.526 6.501l-6.474.015v-7.171z" fill="#ffc49c"></path><path d="M38.261 7.171C38.019 7.994 38 8.866 38 10c0 1.078.257 1.769.506 2.438.254.683.494 1.327.494 2.562 0 5.472-5.568 5.968-6.032 6L27 21.014v-6.307c3.236-1.156 6.906-5.147 7.083-5.341.018-.02 1.491-1.655 4.178-2.195M40 6c-4.281 0-6.667 2.705-6.667 2.705s-4.216 4.618-7.333 5.25v8.062L33 22s7-.364 7-7c0-2.63-1-3.058-1-5s.072-2.804 1-4z" fill="#e0ac89"></path><path d="M7.001 21.5C6.742 21.496.5 21.322.5 15.267c0-1.333.27-2.129.53-2.899.231-.682.47-1.388.47-2.368 0-1.483-.03-2.449-.55-3.452 3.414.347 5.321 2.464 5.341 2.487.175.191 4.035 4.389 7.208 5.31v7.171L7.001 21.5z" fill="#ffc49c"></path><path d="M1.738 7.17c2.649.53 4.111 2.121 4.19 2.209.167.183 3.837 4.172 7.072 5.328v6.307L7.014 21C6.768 20.997 1 20.852 1 15.266c0-1.25.245-1.973.504-2.738C1.748 11.807 2 11.062 2 10c0-1.134-.019-2.006-.262-2.83M0 6c.928 1.196 1 2.058 1 4s-1 2.636-1 5.266C0 21.902 7 22 7 22l7 .016v-8.062c-3.117-.631-7.333-5.25-7.333-5.25S4.281 6 0 6z" fill="#e0ac89"></path><path d="M20 33.5c-11.757 0-12.476-6.145-12.5-7.376V10.229c1.832 1.727 4.938 4.302 7.167 4.302h10.667c2.228 0 5.335-2.575 7.167-4.302v15.905C32.476 27.355 31.757 33.5 20 33.5z" fill="#b08159"></path><path d="M32 11.367v14.747C31.977 27.264 31.291 33 20 33S8.023 27.264 8 26.134V11.367c2.001 1.774 4.614 3.663 6.667 3.663h10.667c2.052 0 4.665-1.889 6.666-3.663m1-2.322c-1.156 1.162-5.151 4.985-7.667 4.985H14.666c-2.516 0-6.511-3.823-7.667-4.985v17.089C7.021 27.162 7.622 34 20 34s12.979-6.838 13-7.866V9.045z" fill="#a16a4a"></path><circle cx="13.5" cy="20.5" r="5.5" fill="#fff"></circle><path d="M25 27.343C25 30.284 22.761 33 20 33s-5-2.716-5-5.657h10z" fill="#fff"></path><circle cx="26" cy="21" r="4" fill="#ffc49c"></circle><path d="M30.003 20.997s-1.791 2-4 2-4-2-4-2 1.791-2 4-2 4 2 4 2z" fill="#fff"></path><circle cx="26.003" cy="21" r="1.5"></circle><path d="M26.003 20c.553 0 1.003.449 1.003 1A1.003 1.003 0 0125 21c0-.551.45-1 1.003-1m0-1C24.897 19 24 19.895 24 21s.897 2 2.003 2 2.003-.895 2.003-2-.897-2-2.003-2z" fill="#36404d"></path><circle cx="20" cy="25.997" r="2" fill="#ffc49c"></circle><ellipse cx="20" cy="27.5" rx="5" ry="2.5" fill="#ffc49c"/><circle cx="20.5" cy="25.5" r=".5" fill="#e0ac89"></circle><circle cx="19.5" cy="25.5" r=".5" fill="#e0ac89"></circle><g><circle cx="13.997" cy="21" r="4" fill="#ffc49c"></circle></g><g><path d="M18 20.997s-1.791 2-4 2-4-2-4-2 1.791-2 4-2 4 2 4 2z" fill="#fff"></path></g><g><circle cx="14" cy="21" r="1.5"></circle><path d="M14 20c.553 0 1.003.449 1.003 1a1.003 1.003 0 01-2.006 0c0-.551.45-1 1.003-1m0-1c-1.106 0-2.003.895-2.003 2s.897 2 2.003 2 2.003-.895 2.003-2-.897-2-2.003-2z" fill="#36404d"></path></g></svg>