<svg viewBox="0 0 40 40" xmlns="http://www.w3.org/2000/svg"><path d="M25.833 21.5v-6.939c3.288-.469 7.675-5.246 7.87-5.459.028-.032 1.951-2.195 5.346-2.552C38.53 7.552 38.5 8.519 38.5 10c0 .989.241 1.637.475 2.264.258.692.525 1.409.525 2.736 0 6.028-6.112 6.478-6.513 6.5h-7.154z" fill="#bae0bd"></path><path d="M38.26 7.176C38.019 7.998 38 8.869 38 10c0 1.079.257 1.77.506 2.438.254.682.494 1.325.494 2.562 0 5.487-5.581 5.97-6.03 6h-6.637v-6.026c3.326-.782 7.262-5.012 7.757-5.556.018-.02 1.489-1.69 4.17-2.242M40 6c-4.281 0-6.667 2.764-6.667 2.764s-4.859 5.333-8 5.333V22H33s7-.354 7-7c0-2.634-1-3.055-1-5s.072-2.803 1-4z" fill="#99c99e"></path><path d="M33.333 8.764S35.719 6 40 6c-.928 1.197-5 6.055-5 8l-6 4h-4v-4c3.141 0 8.333-5.236 8.333-5.236z" fill="#99c99e"></path><path d="M7 21.5C6.759 21.486.5 21.082.5 15c0-1.327.267-2.044.525-2.736.234-.627.475-1.275.475-2.264 0-1.482-.03-2.448-.549-3.451 3.411.355 5.317 2.519 5.337 2.543.203.223 4.59 5 7.878 5.469V21.5H7z" fill="#bae0bd"></path><path d="M1.739 7.174c2.644.542 4.104 2.167 4.188 2.264.479.525 4.413 4.754 7.739 5.536V21H7.028C6.564 20.971 1 20.513 1 15c0-1.237.24-1.88.494-2.562C1.743 11.77 2 11.079 2 10c0-1.132-.019-2.003-.261-2.826M0 6c.928 1.197 1 2.055 1 4s-1 2.366-1 5c0 6.646 7 7 7 7h7.667v-7.902c-3.141 0-8-5.333-8-5.333S4.281 6 0 6z" fill="#99c99e"></path><path d="M6.667 8.764S4.281 6 0 6c.928 1.197 5 6.055 5 8l6 4h4v-4c-3.141 0-8.333-5.236-8.333-5.236z" fill="#99c99e"></path><path d="M20 33.598c-11.757 0-12.476-6.225-12.5-7.473V10.206C9.43 11.905 12.746 14.5 15 14.5h.834c.444.535 1.487 1.593 3.81 3.948l.358.363L24.21 14.5H25c2.254 0 5.57-2.595 7.5-4.294v15.929c-.024 1.238-.743 7.463-12.5 7.463z" fill="#99c99e"></path><path d="M32 11.296v14.819c-.023 1.166-.71 6.982-12 6.982S8.023 27.281 8 26.134V11.296C10.124 13.069 12.915 15 15 15h.6c.353.393.892.946 1.695 1.769.995 1.019 1.993 2.031 1.993 2.031l.716.726.712-.729L24.421 15H25c2.085 0 4.876-1.931 7-3.704m1-2.217C31.799 10.198 27.53 14 25 14h-1l-4 4.098S16.016 14.057 16.039 14H15c-2.53 0-6.799-3.802-8-4.921v17.056c.021 1.041.622 7.963 13 7.963s12.979-6.922 13-7.963V9.079z" fill="#5e9c76"></path><path d="M20 35.5c-4.16 0-7.5-6.658-7.5-7.5 0-1.775 2.173-2.5 7.5-2.5s7.5.725 7.5 2.5c0 .842-3.34 7.5-7.5 7.5z" fill="#bae0bd"></path><path d="M20 26c4.841 0 7 .617 7.001 1.966C26.866 29.096 23.53 35 20 35s-6.866-5.904-7-7c0-1.383 2.159-2 7-2m0-1c-4.418 0-8 .427-8 3 0 1.105 3.582 8 8 8s8-6.895 8-8c0-2.573-3.582-3-8-3z" fill="#5e9c76"></path><ellipse cx="20" cy="25" rx="3" ry="2" fill="#5e9c76"/><path d="M16 14s1.485-3.902 4-3.902S24 14 24 14l-4 4.098L16 14z" fill="#e1ebf2"></path><path d="M16.894 14.447l.022-.045.018-.047c.322-.845 1.575-3.258 3.065-3.258 1.48 0 2.741 2.414 3.065 3.258l.018.047.022.045.155.31L24 14s-1.485-3.902-4-3.902S16 14 16 14l.739.757.155-.31z" fill="#a3b7cc"></path><path d="M21 22s3.403-8 14-8v3s-.278 6-7 6c-5.252 0-7-1-7-1z" fill="#5e9c76"></path><path d="M31 18h-2.782c-2.754 0-4.416 2.068-5.137 3.237-.027.048-.057.098-.081.143.731.243 2.037.542 4.151.619C30.908 21.787 31 18 31 18z" fill="#ffeea3"></path><path d="M27 18s-1 .974-1 2c0 1.025 1 2 1 2s1-.975 1-2c0-1.026-1-2-1-2z" fill="#36404d"></path><path d="M19 22s-3.403-8-14-8v3s.278 6 7 6c5.252 0 7-1 7-1z" fill="#5e9c76"></path><path d="M9 18h2.782c2.754 0 4.416 2.068 5.137 3.237.027.048.057.098.081.143-.731.243-2.037.542-4.151.619C9.092 21.787 9 18 9 18z" fill="#ffeea3"></path><path d="M13 18s1 .974 1 2c0 1.025-1 2-1 2s-1-.975-1-2c0-1.026 1-2 1-2z" fill="#36404d"></path><g><path d="M20 32.5c-2.961 0-4.473-2.242-5.118-3.605.962.291 2.588.605 5.118.605 2.54 0 4.169-.317 5.129-.608C24.496 30.257 22.998 32.5 20 32.5z" fill="#f78f8f"></path><path d="M15.867 29.651c.999.196 2.35.349 4.133.349 1.776 0 3.123-.152 4.121-.346C23.364 30.785 22.069 32 20 32c-2.086 0-3.38-1.216-4.133-2.349M26 28s-1.5 1-6 1-6-1-6-1 1.333 5 6 5 6-5 6-5z" fill="#c74343"></path></g><path d="M20 29c-4.5 0-6-1-6-1s1.333 5 6 5 6-5 6-5-1.5 1-6 1z" fill="#f78f8f"></path><g><path d="M20 32c2.069 0 3.364-1.215 4.121-2.346 0-.377-.021-.704-.05-1.011-.937.194-2.257.357-4.071.357-1.819 0-3.141-.164-4.079-.359a9.522 9.522 0 00-.054 1.01C16.62 30.784 17.914 32 20 32z" fill="none"></path><path d="M24.071 28.643c.029.306.05.634.05 1.011C23.364 30.785 22.069 32 20 32c-2.086 0-3.38-1.216-4.133-2.349 0-.377.022-.704.054-1.01C14.539 28.354 14 28 14 28s1.333 5 6 5 6-5 6-5-.541.356-1.929.643z" fill="#c74343"></path></g><g fill="#fff"><path d="M16 30.333L17.333 29l1.333 2.667L20 29c-2.236 0-3.893-.329-4.997-.66L16 30.333zM20 29l1.333 2.667L22.667 29 24 30.333l.997-1.994C23.893 28.671 22.236 29 20 29z"></path></g></svg>