<svg viewBox="0 0 40 40" xmlns="http://www.w3.org/2000/svg"><path d="M8.5 30.5c0-4.464.022-11.032.991-16.425C10.634 7.722 12.823 4.5 16 4.5c1.589 0 2.765.154 3.494.457.464.192.698.422.698.683 0 .759-1.539 1.86-2.192 1.86h-.172l-.078.061c-.461.132-3.075.578-5.391.945l-.249.04-.116.224c-2.61 5.026-2.536 15.713-2.501 20.849l.004.881H8.5z" fill="#b6c9d6"></path><path d="M16 5c3.184 0 3.681.641 3.692.641.003.39-1.183 1.342-1.692 1.359h-.343l-.131.102c-.623.148-3.064.565-5.245.91l-.424.067C12.938 6.032 14.322 5 16 5m0-1C7.942 4 8 21.945 8 31h2c0-4.296-.375-16.583 2.437-22 0 0 5.372-.852 5.563-1 1.562 0 6.125-4-2-4z" fill="#66798f"></path><path d="M18.6 38.5c-1.729-1.427-3.271-3.533-4.402-6h.302a1.001 1.001 0 000-2h-1.099c-.591-1.75-.901-3.472-.901-5 0-.315.018-.64.054-1h.946a1.001 1.001 0 000-2h-.581a10.95 10.95 0 013.05-5h1.601l.346-.254c.113-.086.226-.173.348-.248l.237-.146V15.5h-.859l.75-3h10.219l.75 3H28.5v1.352l.237.146c.124.077.239.165.354.252l.339.25h1.601a10.95 10.95 0 013.05 5H33.5a1.001 1.001 0 000 2h.946c.036.36.054.685.054 1 0 1.528-.311 3.25-.901 5H32.5a1.001 1.001 0 000 2h.303c-1.131 2.467-2.674 4.573-4.402 6H18.6z" fill="#bae0bd"></path><path d="M28.219 13l.5 2H28v2.13l.474.293c.109.068.21.146.313.224.074.056.147.112.222.165l.261.188h1.56a10.46 10.46 0 012.568 4.003A1.503 1.503 0 0032 23.5c0 .827.673 1.5 1.5 1.5h.485c.01.172.015.338.015.5 0 1.375-.263 2.919-.764 4.5H32.5c-.827 0-1.5.673-1.5 1.5 0 .668.439 1.235 1.043 1.429-1.031 2.059-2.356 3.82-3.824 5.071h-9.437c-1.468-1.251-2.793-3.012-3.824-5.071A1.504 1.504 0 0016 31.5c0-.827-.673-1.5-1.5-1.5h-.736c-.501-1.581-.764-3.125-.764-4.5 0-.162.005-.328.015-.5h.485c.827 0 1.5-.673 1.5-1.5 0-.793-.618-1.444-1.398-1.497A10.453 10.453 0 0116.17 18h1.56l.261-.188c.076-.054.15-.111.224-.167.101-.077.202-.155.31-.222L19 17.13V15h-.719l.5-2h9.438M29 12H18l-1 4h1v.573c-.208.128-.394.285-.592.427h-1.635a11.514 11.514 0 00-3.497 6H13.5c.275 0 .5.225.5.5s-.225.5-.5.5h-1.391c-.065.492-.109.99-.109 1.5 0 1.71.375 3.62 1.046 5.5H14.5c.275 0 .5.225.5.5s-.225.5-.5.5h-1.066c1.136 2.733 2.879 5.311 4.988 7h10.156c2.109-1.689 3.852-4.267 4.988-7H32.5a.501.501 0 01-.5-.5c0-.275.225-.5.5-.5h1.454C34.625 29.12 35 27.21 35 25.5c0-.51-.044-1.008-.109-1.5H33.5a.501.501 0 01-.5-.5c0-.275.225-.5.5-.5h1.223a11.5 11.5 0 00-3.497-6h-1.634c-.198-.142-.384-.299-.592-.427V16h1l-1-4z" fill="#5e9c76"></path><path fill="#36404d" d="M26 11l5-5V4h-5z"></path><path d="M18.5 11.5v-4h-2V4c0-.827.673-1.5 1.5-1.5h9c.827 0 1.5.673 1.5 1.5v7.5h-10z" fill="#b6c9d6"></path><path d="M27 3c.551 0 1 .449 1 1v7h-9V7h-2V4c0-.551.449-1 1-1h9m0-1h-9a2 2 0 00-2 2v4h2v4h11V4a2 2 0 00-2-2z" fill="#66798f"></path><path fill="#ba9b48" d="M28.219 13L28 12h-9l-.219 1z"></path><circle cx="17" cy="5" r="1" fill="#36404d"></circle><path d="M11 2c2.757 0 5 2.243 5 5s-2.243 5-5 5-5-2.243-5-5 2.243-5 5-5m0-1a6 6 0 100 12 6 6 0 000-12z" fill="#36404d"></path><path fill="#b6c9d6" d="M19 9h9v3h-9z"></path><path fill="#5e9c76" d="M18 16h11v1H18zM14 23h19v1H14zM15 31h17v1H15z"></path><g><path d="M24.768 17C25.918 18.692 27 22.44 27 27.5s-1.082 8.808-2.232 10.5h-2.536C21.082 36.308 20 32.56 20 27.5s1.082-8.808 2.232-10.5h2.536m.497-1h-3.53C20.127 17.906 19 22.337 19 27.5s1.127 9.594 2.735 11.5h3.53C26.873 37.094 28 32.663 28 27.5s-1.127-9.594-2.735-11.5z" fill="#5e9c76"></path></g></svg>