<svg viewBox="0 0 40 40" xmlns="http://www.w3.org/2000/svg"><g fill="#4e7ab5"><path d="M16.534 24.5c.082-1.596.156-6.223-1.587-8.123a2.839 2.839 0 00-.597-.501c.603-.207 1.307-.376 1.65-.376 2.093 0 3.265 2.046 3.5 2.504V24.5h-2.966z"></path><path d="M16 16c1.676 0 2.704 1.598 3 2.13V24h-1.942c.067-1.979-.024-6.001-1.686-7.899.258-.062.485-.101.628-.101m0-1c-.679 0-2.543.543-3 1 3.778 0 3 9 3 9h4v-7.112S18.695 15 16 15z"></path></g><path d="M6.429 29.5c-4.76 0-4.924-6.15-4.929-6.499.009.112.508 4.499 4.929 4.499 4.415 0 5.061-4.389 5.066-4.433l.005-.787V23c-.009.249-.278 6.5-5.071 6.5zM1.5 22.994a9.768 9.768 0 010 .003v-.003zm10-7.996s-.004-2.344 0-2.995c.02-3.549 1.254-5.503 3.477-5.503 3.534 0 4.428 3.152 4.516 6h-.006c-.076-1.206-.455-2.158-1.129-2.837C17.589 8.892 16.46 8.5 15 8.5c-3.245 0-3.491 6.219-3.5 6.483v.015zM5.016 9.5c-.684-.021-2.025-.587-2.648-.878-.378-.866-.666-3.532-.806-5.597 1.297 1.036 3.692 3.354 3.921 6.489L5.016 9.5z" fill="#8bb7f0"></path><path d="M2.153 4.2c1.113 1.067 2.428 2.721 2.765 4.791-.515-.063-1.46-.424-2.158-.74-.232-.69-.454-2.314-.607-4.051M15 7c1.489 0 2.566.635 3.225 1.895C17.401 8.301 16.319 8 15 8c-1.329 0-2.217.824-2.81 1.91C12.505 8.33 13.28 7 15 7M9.994 26.774C9.332 27.978 8.238 29 6.429 29c-1.785 0-2.851-1.001-3.487-2.186C3.769 27.511 4.904 28 6.429 28c1.549 0 2.712-.508 3.565-1.226M1 2s.279 5.77 1 7c0 0 1.984.968 3 1 0 5.344-4 7.614-4 13 0 0 .085 7 5.429 7S12 23 12 23v-8s.201-6 3-6 4.013 1.518 4 4h1c0-3.308-.948-7-5-7h-.024C12.614 6 11.022 7.918 11 12c-.003.653 0 3 0 3s.018 4.695 0 8c0 0-.542 4-4.571 4S2 23 2 23c0-5.089 4-7.571 4-13 0-4.92-5-8-5-8z" fill="#4e7ab5"></path><g fill="#4e7ab5"><path d="M19.5 36.891c-1.872-1.708-4-3.995-4-4.891 0-.878 2.138-2.733 4-4.054v8.945z"></path><path d="M19 28.934v6.805c-1.691-1.636-2.97-3.196-3-3.734.04-.506 1.339-1.804 3-3.071M20 27s-5 3.274-5 5 5 6 5 6V27z"></path></g><path d="M20 14.5s-.453-.594-.776-1.485c-.36-.89-.575-2.078-.581-3.265.001-1.188.214-2.375.578-3.266C19.544 5.594 20 5 20 5s.456.594.779 1.485c.362.89.577 2.078.578 3.265-.004 1.188-.22 2.375-.581 3.266-.323.89-.776 1.484-.776 1.484z" fill="#4e7ab5"></path><g fill="#4e7ab5"><path d="M20.5 24.5v-6.495c.237-.458 1.418-2.505 3.5-2.505.343 0 1.047.169 1.649.376a2.839 2.839 0 00-.597.501c-1.743 1.9-1.669 6.527-1.587 8.123H20.5z"></path><path d="M24 16c.143 0 .371.039.629.1-1.663 1.898-1.753 5.921-1.687 7.9H21v-5.87c.298-.536 1.326-2.13 3-2.13m0-1c-2.695 0-4 2.888-4 2.888V25h4s-.778-9 3-9c-.457-.457-2.321-1-3-1z"></path></g><path d="M33.572 29.5c-4.645 0-5.047-6.029-5.07-6.489.03.237.725 4.489 5.07 4.489 4.431 0 4.922-4.406 4.926-4.45a10.22 10.22 0 00-.411-2.884c.255.856.413 1.781.413 2.834-.004.259-.145 6.5-4.928 6.5zM28.5 15c-.009-.282-.255-6.5-3.5-6.5-1.46 0-2.59.392-3.358 1.164-.674.678-1.053 1.631-1.128 2.836h-.006c.088-2.848.979-6 4.492-6 2.246 0 3.48 1.954 3.5 5.503.003.651 0 2.997 0 2.997zm6.018-5.485c.229-3.144 2.624-5.458 3.921-6.491-.141 2.064-.429 4.732-.807 5.599-.623.291-1.965.856-2.647.878l-.467.014z" fill="#8bb7f0"></path><path d="M37.846 4.208c-.153 1.734-.375 3.353-.606 4.043-.698.316-1.643.676-2.158.74.339-2.059 1.653-3.712 2.764-4.783M25.024 7c1.703 0 2.473 1.329 2.787 2.91C27.218 8.825 26.329 8 25 8c-1.317 0-2.398.3-3.221.893C22.44 7.634 23.523 7 25.024 7m4.98 19.772c.852.719 2.016 1.228 3.567 1.228 1.524 0 2.659-.489 3.486-1.185C36.421 28 35.356 29 33.571 29c-1.811 0-2.906-1.025-3.567-2.228M39 2s-5 3.08-5 8c0 5.429 4 7.911 4 13 0 0-.4 4-4.429 4S29 23 29 23c-.018-3.305 0-8 0-8s.003-2.347 0-3c-.022-4.082-1.614-6-3.976-6H25c-4.052 0-5 3.692-5 7h1c-.013-2.482 1.201-4 4-4s3 6 3 6v8s.228 7 5.571 7C38.915 30 39 23 39 23c0-5.386-4-7.656-4-13 1.016-.032 3-1 3-1 .721-1.23 1-7 1-7z" fill="#4e7ab5"></path><g fill="#4e7ab5"><path d="M20.5 27.946c1.862 1.32 4 3.176 4 4.054 0 .896-2.128 3.183-4 4.891v-8.945z"></path><path d="M21 28.933c1.661 1.266 2.96 2.563 3 3.064-.031.542-1.309 2.104-3 3.741v-6.805M20 27v11s5-4.274 5-6-5-5-5-5z"></path></g><g><path d="M20 37.005c-1.014-1.831-3.5-6.848-3.5-12.005 0-3.701.975-5.992 1.834-8.013.591-1.389 1.101-2.588 1.165-3.964a2.67 2.67 0 00-.697-2.045C17.914 9.998 16.299 9.5 14 9.5l-.056-.013c-1.659-.226-4.95-.912-6.541-2.898 2.172 1.634 5.386 1.935 7.454 1.935.405 0 .729-.011.94-.018L16 8.5h.619l-.13-.605c-.283-1.313-1.383-3.046-3.254-4.534 1.442.71 2.737 1.775 3.323 2.875l.942 1.767V6c0-.396.344-1.528 1.016-2.586.065 2.746.322 3.701.554 4.557.221.821.43 1.596.43 4.029h1c0-2.433.209-3.208.431-4.029.231-.855.488-1.811.554-4.557C22.156 4.472 22.5 5.604 22.5 6v2.003l.941-1.768c.586-1.1 1.881-2.165 3.323-2.875-1.871 1.488-2.971 3.222-3.254 4.534l-.129.606H24l.201.006c.211.007.536.018.941.018 2.069 0 5.282-.301 7.454-1.935-1.591 1.986-4.882 2.673-6.541 2.898l-.139.02h-.045c-2.193 0-3.792.497-4.674 1.472a2.677 2.677 0 00-.697 2.053c.064 1.368.574 2.567 1.165 3.956.86 2.02 1.835 4.311 1.835 8.012 0 5.164-2.485 10.175-3.5 12.005z" fill="#c2e8ff"></path><path d="M21.882 5.443c.078.254.118.451.118.557v3.764c-.368.188-.689.41-.962.666.066-1.182.213-1.725.376-2.329.169-.628.352-1.308.468-2.658m-3.764 0c.116 1.35.299 2.03.469 2.658.163.603.309 1.147.376 2.329A4.195 4.195 0 0018 9.764V6c0-.106.04-.303.118-.557m4.797 2.844L22.762 9H24c.038 0 .1.002.185.005.215.007.545.018.958.018h.009c-1.19.069-2.185.289-2.979.656l.742-1.392m-5.83 0l.742 1.393c-.794-.368-1.789-.587-2.979-.656h.009c.413 0 .743-.011.958-.018C15.9 9.002 15.962 9 16 9h1.238l-.153-.713M20.09 12a3.228 3.228 0 00-.09.515 3.001 3.001 0 00-.09-.515h.18M20 13.045l.002.023c.073 1.456.622 2.748 1.204 4.114C22.047 19.16 23 21.4 23 25c0 4.409-1.868 8.727-3 10.94-1.132-2.213-3-6.531-3-10.94 0-3.6.953-5.84 1.794-7.817.581-1.367 1.131-2.658 1.204-4.114l.002-.024M30 2c-2.453 0-5.841 1.823-7 4 0-.735-.728-2.728-2-4 0 7.097-1 4.628-1 10 0-5.372-1-2.903-1-10-1.272 1.272-2 3.265-2 4-1.159-2.177-4.547-4-7-4 3.478 1.527 5.604 4.162 6 6-.137 0-.553.024-1.143.024C12.526 8.024 7.466 7.654 6 4c0 5.174 7.533 5.921 8 6 5.513 0 4.997 2.943 5 3-.15 3.205-3 5.648-3 12 0 6.674 4 13 4 13s4-6.326 4-13c0-6.352-2.85-8.795-3-12 .003-.057-.513-3 5-3 .467-.079 8-.826 8-6-1.466 3.654-6.526 4.024-8.857 4.024C24.552 8.024 24.137 8 24 8c.396-1.838 2.522-4.473 6-6z" fill="#8bb7f0"></path></g></svg>