<svg viewBox="0 0 40 40" xmlns="http://www.w3.org/2000/svg"><path d="M20 38.5c-4.434 0-5.624-3.141-6.58-5.664-.337-.888-.627-1.654-1.032-2.151-.415-.406-1.043-.816-1.837-1.336C7.539 27.38 2.5 24.085 2.5 18 2.5 11.838 4.773 1.5 20 1.5S37.5 11.838 37.5 18c0 6.018-5.047 9.354-8.063 11.347-.789.522-1.413.935-1.785 1.294-.445.541-.735 1.308-1.072 2.195-.956 2.523-2.146 5.664-6.58 5.664z" fill="#e1ebf2"></path><path d="M20 2c14.791 0 17 10.025 17 16 0 5.748-4.907 8.992-7.838 10.93-.811.536-1.451.959-1.856 1.351l-.043.041-.038.046c-.456.56-.76 1.362-1.112 2.291C25.163 35.163 24.088 38 20 38s-5.163-2.837-6.112-5.341c-.352-.929-.656-1.73-1.112-2.291l-.038-.046-.043-.041c-.409-.395-1.054-.817-1.871-1.351C7.898 27.016 3 23.814 3 18 3 10.701 5.949 2 20 2m0-1C5.607 1 2 10.02 2 18s8.329 11.385 10 13c1.393 1.71 1.593 8 8 8s6.607-6.29 8-8c1.671-1.615 10-5.115 10-13S34.393 1 20 1z" fill="#8499ad"></path><path d="M15.536 23.5c-1.439 0-4.123-.269-5.925-2.07-2.568-2.568-2.162-6.986-1.915-7.732.221-.073.844-.198 1.81-.198 1.146 0 4.018.206 5.923 2.111 2.472 2.471 2.161 6.802 1.905 7.718-.257.066-.891.171-1.798.171z" fill="#839cb2"></path><path d="M9.507 14c1.084 0 3.796.191 5.569 1.964 2.078 2.078 2.044 5.676 1.837 6.939-.304.048-.78.097-1.377.097-1.362 0-3.898-.25-5.572-1.924-2.187-2.187-2.072-5.833-1.857-6.964a7.84 7.84 0 011.4-.112m0-1c-1.175 0-2.038.184-2.18.327-.368.368-1.011 5.515 1.93 8.456C11.045 23.57 13.681 24 15.536 24c1.197 0 2.069-.179 2.177-.287.276-.276 1.011-5.515-1.93-8.456C13.984 13.458 11.358 13 9.507 13z" fill="#66798f"></path><path d="M24.464 23.5c-.907 0-1.541-.104-1.799-.171-.256-.916-.566-5.247 1.905-7.718 1.905-1.905 4.776-2.111 5.923-2.111.967 0 1.59.125 1.811.197.247.746.653 5.164-1.915 7.732-1.802 1.802-4.485 2.071-5.925 2.071z" fill="#839cb2"></path><path d="M30.493 14c.625 0 1.11.057 1.4.111.215 1.131.33 4.778-1.857 6.964C28.362 22.75 25.826 23 24.464 23a9.046 9.046 0 01-1.376-.097c-.207-1.263-.242-4.861 1.837-6.939C26.697 14.191 29.409 14 30.493 14m0-1c-1.851 0-4.476.458-6.276 2.257-2.941 2.941-2.206 8.18-1.93 8.456.108.108.98.287 2.177.287 1.855 0 4.491-.429 6.279-2.217 2.941-2.941 2.298-8.088 1.93-8.456-.143-.143-1.006-.327-2.18-.327z" fill="#66798f"></path><path d="M25.459 21s-.271-4.563 4.541-4.563M14.541 21s.271-4.563-4.541-4.563" fill="none" stroke="#b0c1d4" stroke-miterlimit="10"></path><path d="M23 31c0-1.442-2-4-2-4v4a1 1 0 002 0zM17 31c0-1.442 2-4 2-4v4a1 1 0 01-2 0z" fill="#66798f"></path></svg>