<svg viewBox="0 0 40 40" xmlns="http://www.w3.org/2000/svg"><path fill="#fff" d="M3.5 3.5h8v8h-8z"></path><path d="M11 4v7H4V4h7m1-1H3v9h9V3z" fill="#788b9c"></path><path fill="#fff" d="M11.5 3.5h24v8h-24z"></path><path d="M35 4v7H12V4h23m1-1H11v9h25V3z" fill="#788b9c"></path><path fill="#fff" d="M3.5 11.5h8v8h-8z"></path><path d="M11 12v7H4v-7h7m1-1H3v9h9v-9z" fill="#788b9c"></path><path fill="#fff" d="M11.5 11.5h24v8h-24z"></path><path d="M35 12v7H12v-7h23m1-1H11v9h25v-9z" fill="#788b9c"></path><g><path fill="#fff" d="M3.5 19.5h8v8h-8z"></path><path d="M11 20v7H4v-7h7m1-1H3v9h9v-9z" fill="#788b9c"></path></g><g><path fill="#fff" d="M11.5 19.5h24v8h-24z"></path><path d="M35 20v7H12v-7h23m1-1H11v9h25v-9z" fill="#788b9c"></path></g><g><path fill="#fff" d="M3.5 27.5h8v8h-8z"></path><path d="M11 28v7H4v-7h7m1-1H3v9h9v-9z" fill="#788b9c"></path></g><g><path fill="#fff" d="M11.5 27.5h24v8h-24z"></path><path d="M35 28v7H12v-7h23m1-1H11v9h25v-9z" fill="#788b9c"></path></g></svg>