<svg viewBox="0 0 40 40" xmlns="http://www.w3.org/2000/svg"><path d="M5 30.571h6a1 1 0 011 1V35a1 1 0 01-1 1H5a1 1 0 01-1-1v-3.429a1 1 0 011-1z" fill="#66798f"></path><path d="M4.5 33.5V5c0-1.93 1.57-3.5 3.5-3.5h22c1.93 0 3.5 1.57 3.5 3.5v28.5h-29z" fill="#bae0bd"></path><path d="M30 2c1.654 0 3 1.346 3 3v28H5V5c0-1.654 1.346-3 3-3h22m0-1H8a4 4 0 00-4 4v29h30V5a4 4 0 00-4-4z" fill="#5e9c76"></path><path fill="#c2e8ff" d="M4.5 8.5h29v14h-29z"></path><path d="M33 9v13H5V9h28m1-1H4v15h30V8z" fill="#5e9c76"></path><path fill="#fff" d="M25.429 27.786h5.429V30.5h-5.429zM6 27h6v3H6z"></path><path d="M33.5 19.5v-6H35c.827 0 1.5.673 1.5 1.5v3c0 .827-.673 1.5-1.5 1.5h-1.5z" fill="#bae0bd"></path><path d="M35 14c.551 0 1 .449 1 1v3c0 .551-.449 1-1 1h-1v-5h1m0-1h-2v7h2a2 2 0 002-2v-3a2 2 0 00-2-2z" fill="#5e9c76"></path><path d="M3 19.5c-.827 0-1.5-.673-1.5-1.5v-3c0-.827.673-1.5 1.5-1.5h1.5v6H3z" fill="#bae0bd"></path><path d="M4 14v5H3c-.551 0-1-.449-1-1v-3c0-.551.449-1 1-1h1m1-1H3a2 2 0 00-2 2v3a2 2 0 002 2h2v-7z" fill="#5e9c76"></path><path d="M15.053 29.5c-.856 0-1.553-.673-1.553-1.5s.696-1.5 1.553-1.5h21.895c.856 0 1.553.673 1.553 1.5s-.696 1.5-1.553 1.5H15.053z" fill="#f78f8f"></path><path d="M36.947 27c.581 0 1.053.449 1.053 1s-.472 1-1.053 1H15.053C14.472 29 14 28.551 14 28s.472-1 1.053-1h21.894m0-1H15.053C13.919 26 13 26.895 13 28s.919 2 2.053 2h21.895C38.081 30 39 29.105 39 28s-.919-2-2.053-2z" fill="#c74343"></path><path d="M37 34.929V38a1 1 0 01-1 1h-2a1 1 0 01-1-1v-3.071h4zM19 34.929V38a1 1 0 01-1 1h-2a1 1 0 01-1-1v-3.071h4z" fill="#66798f"></path><path d="M15.5 36.5v-6.178l.956-2.117 2.024-7.068c.278-.831 1.505-1.637 2.52-1.637h10c1.015 0 2.242.806 2.525 1.658l1.994 6.979.98 2.184V36.5H15.5z" fill="#f78f8f"></path><path d="M31 20c.799 0 1.834.664 2.038 1.275l2 7 .02.07.03.067L36 30.43V36H16v-5.57l.911-2.018.03-.067.02-.07 1.987-6.958C19.166 20.664 20.201 20 21 20h10m0-1H21c-1.168 0-2.631.892-3 2l-2 7-1 2.214V37h22v-6.786L36 28l-2-7c-.369-1.108-1.832-2-3-2z" fill="#c74343"></path><circle cx="33.5" cy="31.5" r="1.5" fill="#fff"></circle><circle cx="18.5" cy="31.5" r="1.5" fill="#fff"></circle><g><path d="M16.949 26.5l1.531-5.363c.313-.94 1.197-1.637 2.095-1.637h10.85c.897 0 1.781.697 2.101 1.658l1.525 5.342H16.949z" fill="#c2e8ff"></path><path d="M31.425 20c.677 0 1.376.566 1.613 1.275L34.389 26H17.611l1.337-4.684c.25-.75.949-1.316 1.626-1.316h10.851m0-1h-10.85c-1.168 0-2.206.892-2.575 2l-1.714 6h19.429L34 21c-.369-1.108-1.407-2-2.575-2z" fill="#c74343"></path></g><path fill="#f78f8f" d="M14.978 27H37v2H14.978z"></path><g><path d="M21.065 36.5l1.05-2.996a1.502 1.502 0 011.416-1.004h4.938c.637 0 1.205.403 1.416 1.004l1.05 2.996h-9.87z" fill="#c8d1db"></path><path d="M28.469 33c.424 0 .803.269.944.669L30.229 36H21.77l.817-2.331c.14-.4.52-.669.944-.669h4.938m0-1h-4.938a2 2 0 00-1.887 1.339L20.361 37H31.64l-1.283-3.661A2.002 2.002 0 0028.469 32z" fill="#66798f"></path></g></svg>