<svg viewBox="0 0 40 40" xmlns="http://www.w3.org/2000/svg"><path d="M35 5v30H5V5h30m1-1H4v32h32V4z" fill="#66798f"></path><path fill="#8bb7f0" d="M32.5 1.5h6v6h-6z"></path><path d="M38 2v5h-5V2h5m1-1h-7v7h7V1z" fill="#4e7ab5"></path><path fill="#8bb7f0" d="M1.5 1.5h6v6h-6z"></path><path d="M7 2v5H2V2h5m1-1H1v7h7V1z" fill="#4e7ab5"></path><path fill="#8bb7f0" d="M32.5 32.5h6v6h-6z"></path><path d="M38 33v5h-5v-5h5m1-1h-7v7h7v-7z" fill="#4e7ab5"></path><g><path fill="#8bb7f0" d="M1.5 32.5h6v6h-6z"></path><path d="M7 33v5H2v-5h5m1-1H1v7h7v-7z" fill="#4e7ab5"></path></g><g><path fill="#dcd5f2" d="M18.5 18.5h11v11h-11z"></path><path d="M29 19v10H19V19h10m1-1H18v12h12V18z" fill="#8b75a1"></path></g><g><path fill="#f2faff" d="M10.5 10.5h11v11h-11z"></path><path d="M21 11v10H11V11h10m1-1H10v12h12V10z" fill="#788b9c"></path></g></svg>