<svg viewBox="0 0 40 40" xmlns="http://www.w3.org/2000/svg"><path d="M3.001 28.5a1.502 1.502 0 01-.961-2.652l5.852-4.877 4.888-6.842a1.503 1.503 0 012.094-.35c.672.48.829 1.419.348 2.092l-5 7a1.504 1.504 0 01-.26.281l-6 5a1.513 1.513 0 01-.961.348z" fill="#ffeea3"></path><path d="M14.002 14.001a1.002 1.002 0 01.812 1.58l-5.002 7.002a.997.997 0 01-.172.185l-6 5a.997.997 0 01-1.408-.128.997.997 0 01.128-1.409l5.802-4.836.099-.082.075-.105 4.851-6.791a.99.99 0 01.815-.416m0-1c-.624 0-1.239.291-1.629.837l-4.851 6.79-5.802 4.836a1.999 1.999 0 102.56 3.072l6-5c.131-.109.248-.234.347-.374l5-7a2 2 0 00-1.625-3.161z" fill="#ba9b48"></path><path d="M36.999 28.5c-.349 0-.69-.124-.959-.348l-6-5a1.488 1.488 0 01-.26-.279l-5.001-7.002a1.502 1.502 0 01.349-2.092 1.502 1.502 0 012.092.349l4.888 6.843 5.852 4.877a1.5 1.5 0 01-.961 2.652z" fill="#ffeea3"></path><path d="M25.998 14.001a1 1 0 01.815.419l4.851 6.79.075.105.099.082 5.802 4.836a.994.994 0 01.128 1.407.997.997 0 01-1.408.128l-6-5a.959.959 0 01-.173-.187l-5-7a1.002 1.002 0 01.231-1.394.99.99 0 01.58-.186m0-1a2 2 0 00-1.626 3.162l5 7c.099.14.216.265.347.374l6 5c.375.311.828.463 1.28.463a2 2 0 001.282-3.536l-5.802-4.836-4.851-6.79a1.998 1.998 0 00-1.63-.837z" fill="#ba9b48"></path><path d="M8.464 38.5a2.897 2.897 0 01-2.893-2.893c0-.902.425-1.741 1.165-2.302l.314-.236-.005-.013L13.5 28.25v-8.382l-3.258 2.964-2.555-1.938c1.879-2.651 4.497-6.333 4.688-6.564.987-1.051 2.659-2.83 7.625-2.83s6.637 1.779 7.636 2.843c.181.22 2.798 3.9 4.677 6.552l-2.555 1.938-3.258-2.964v8.382l6.504 4.843.26.212a2.876 2.876 0 011.165 2.302 2.897 2.897 0 01-2.893 2.893H8.464z" fill="#f78f8f"></path><path d="M20 12c4.673 0 6.276 1.626 7.246 2.657.269.346 2.624 3.657 4.379 6.132l-1.838 1.395-2.114-1.923L26 18.739v9.763l.403.3 5.93 4.415-.004.01.634.478c.614.464.966 1.157.966 1.901a2.396 2.396 0 01-2.393 2.393H8.464a2.396 2.396 0 01-2.393-2.393c0-.745.352-1.438.966-1.901l.47-.37 6.09-4.534.403-.3v-9.762l-1.673 1.522-2.114 1.923-1.838-1.395c1.748-2.466 4.092-5.761 4.376-6.128C13.696 13.654 15.286 12 20 12m0-1c-5.127 0-6.943 1.875-8 3-.145.145-5 7-5 7l3.271 2.482L13 21v7l-6.571 4.893.007.015a3.383 3.383 0 00-1.364 2.699A3.402 3.402 0 008.464 39h23.072a3.403 3.403 0 003.393-3.393 3.382 3.382 0 00-1.364-2.699l.007-.015L27 28v-7l2.729 2.482L33 21s-4.855-6.855-5-7c-1.057-1.125-2.873-3-8-3z" fill="#c74343"></path><path d="M20 8.5c-1.93 0-3.5-1.57-3.5-3.5s1.57-3.5 3.5-3.5 3.5 1.57 3.5 3.5-1.57 3.5-3.5 3.5z" fill="#ffeea3"></path><path d="M20 2c1.654 0 3 1.346 3 3s-1.346 3-3 3-3-1.346-3-3 1.346-3 3-3m0-1a4 4 0 100 8 4 4 0 000-8z" fill="#ba9b48"></path><path d="M15.058 39H26v-6h-8.5c-1.93 0-3.5 1.57-3.5 3.5 0 .98.407 1.864 1.058 2.5z" fill="#c74343"></path><path d="M25 39h-7.5a2.507 2.507 0 01-2.5-2.5c0-1.375 1.125-2.5 2.5-2.5H25v5z" fill="#ffeea3"></path><path d="M15.515 38c.458.603 1.174 1 1.985 1H25v-1h-9.485z" fill="#ba9b48"></path></svg>