<svg viewBox="0 0 40 40" xmlns="http://www.w3.org/2000/svg"><path d="M10.5 38.5c-.552 0-1-.449-1-1 0-.068.01-.143.029-.228.904-7.226 17.29-30.111 28.971-30.758v.001c-11.377.698-27 24.773-27 30.984 0 .552-.448 1.001-1 1.001z" fill="#f78f8f"></path><path d="M17.455 23.505C13.584 29.265 11 34.867 11 37.5a.5.5 0 01-1 0 .52.52 0 01.016-.114l.012-.051.007-.052c.35-2.812 3.294-8.265 7.42-13.778M39 6C26.946 6 9.928 30.047 9.042 37.16c-.025.11-.042.223-.042.34a1.5 1.5 0 003 0C12 31.432 27.747 7 39 7V6z" fill="#c74343"></path><path d="M3.042 33.475A1.537 1.537 0 011.5 31.94c0-.834.631-1.44 1.5-1.44l.173.017c.686 0 1.432-.083 2.07-.219a10.063 10.063 0 002.182-.711c1.389-.65 2.533-1.653 3.404-2.981.245-.353.641-.966 1.164-1.778C19.267 13.552 28.911 2.193 34.5 1.53v.006c-6.715.916-17.796 18.634-19.066 20.699l-.277.451-.33.548c-.511 1.115-.724 2.749 1.016 4.491a2.216 2.216 0 01-2.901 3.331 2.44 2.44 0 00-1.479-.509c-.581 0-1.174.209-1.76.623l-.418.335-.132.085a8.748 8.748 0 01-1.542.938c-.71.326-1.471.575-2.259.737-.583.125-1.26.209-1.833.229l-.477-.019z" fill="#f78f8f"></path><path d="M20.08 14.379a128.97 128.97 0 00-5.072 7.594l-.063.106-.011.015-.025.04a96.21 96.21 0 00-.511.842l-.029.049-.023.052c-.451.99-.902 2.956 1.143 5.001a1.716 1.716 0 01-2.245 2.58 2.934 2.934 0 00-1.781-.611c-.687 0-1.376.24-2.048.714l-.043.03-.039.034a1.63 1.63 0 01-.091.074l-.042.034-.344.256c-.509.379-.972.66-1.451.884a9.97 9.97 0 01-2.162.704 10.7 10.7 0 01-1.376.197H3c-.555-.018-1-.475-1-1.034 0-.552.409-.938.986-.938h.005l.107.013.072.005h.047c.654 0 1.45-.087 2.123-.231a10.599 10.599 0 002.299-.75 8.636 8.636 0 003.593-3.137c.247-.356.606-.912 1.103-1.682l.089-.137c2.378-3.687 5.006-7.383 7.656-10.704M35 1c-6.298 0-16.993 13.583-23.416 23.54-.525.813-.921 1.429-1.173 1.792-.793 1.208-1.834 2.164-3.195 2.801a9.57 9.57 0 01-2.077.677 9.868 9.868 0 01-1.922.21h-.025C3.128 30.013 3.066 30 3 30c-1.124 0-2 .815-2 1.94 0 1.124.911 2.036 2.036 2.036l.008-.001v.021c.067.003.139.004.212.004.649 0 1.487-.092 2.197-.245.828-.17 1.624-.43 2.37-.773.6-.28 1.131-.62 1.63-.99l.019.013c.109-.102.213-.179.319-.262.066-.055.136-.107.2-.163.548-.386 1.043-.532 1.472-.532.478 0 .876.18 1.177.408a2.714 2.714 0 003.556-4.084c-.424-.424-1.849-1.883-.94-3.88.164-.273.334-.552.507-.835.038-.051.069-.101.11-.153l-.012-.007C21.018 14.111 29.989 2.042 35 2V1z" fill="#c74343"></path><circle cx="14" cy="29" r="1" fill="#36404d"></circle></svg>