<svg viewBox="0 0 40 40" xmlns="http://www.w3.org/2000/svg"><path fill="none" stroke="#704e34" stroke-miterlimit="10" d="M30.477.477L35 5M12.477 18.477l4.908 4.908M12.512 12.512l4.551 4.551M17 5l4 4M20 2l4.833 4.846M14 8l5 5"></path><path d="M18.08 23.618c-1.1 0-1.268-.886-1.291-1.064-.034-.146-1.862-6.977 4.412-13.251C25.17 5.333 29.051 4.5 31.607 4.5c1.641 0 2.692.35 2.737.365-.014 0 1.402.798 1.115 1.868-.775 2.889-4.554 7.809-7.716 10.971-2.602 2.602-6.931 5.388-9.082 5.846a2.77 2.77 0 01-.581.068z" fill="#b27354"></path><path d="M31.608 5c1.315 0 2.227.235 2.491.312.236.15 1.034.709.878 1.291-.753 2.806-4.471 7.632-7.586 10.747-2.502 2.502-6.794 5.277-8.833 5.711a2.344 2.344 0 01-.478.056c-.578 0-.751-.344-.793-.614l-.01-.084-.022-.078c-.074-.268-1.752-6.635 4.299-12.686C25.403 5.808 29.145 5 31.608 5m0-1C29 4 24.96 4.837 20.848 8.949c-6.575 6.575-4.555 13.664-4.555 13.664s.165 1.505 1.787 1.505c.205 0 .433-.024.687-.078 2.339-.498 6.776-3.426 9.332-5.982 3.337-3.337 7.057-8.259 7.845-11.195.4-1.49-1.431-2.469-1.431-2.469S33.397 4 31.608 4z" fill="#704e34"></path><path fill="none" stroke="#704e34" stroke-miterlimit="10" d="M24.441.441l4.58 4.58M27 6l4.029 4.029M31.41 4.654l2.193 2.192M16.356 18.644l2.725 2.724M24 9l4.156 4.156M21 12l4.704 4.704M18 15l4.019 4.019"></path><g><path d="M6.159 38.5a3.772 3.772 0 01-2.626-1.056c-.044-.123-.148-.598.519-1.265.54-.54 30.359-30.254 31.083-30.978.632-.633.982-.701 1.102-.701.074 0 .104.026.108.031.76.767 1.155 1.72 1.155 2.733s-.396 1.966-1.112 2.683L8.843 37.388A3.774 3.774 0 016.159 38.5z" fill="#ffc49c"></path><path d="M36.138 5.042c.557.609.862 1.392.862 2.222 0 .88-.343 1.707-.964 2.328L8.489 37.035a3.276 3.276 0 01-2.33.965c-.802 0-1.56-.285-2.159-.806.011-.13.104-.361.405-.662.51-.51 6.99-6.967 13.906-13.859 7.92-7.892 16.413-16.356 17.176-17.118.318-.317.532-.454.651-.513M36.237 4c-.314 0-.787.178-1.457.848C33.352 6.276 4.792 34.732 3.698 35.825s-.576 1.917-.576 1.917A4.281 4.281 0 006.159 39a4.281 4.281 0 003.037-1.258L36.742 10.3a4.294 4.294 0 000-6.073S36.592 4 36.237 4z" fill="#b08159"></path></g></svg>