<svg viewBox="0 0 40 40" xmlns="http://www.w3.org/2000/svg"><path d="M11.5 26.5v-7h5.859l-1.427 5.706a1.703 1.703 0 01-1.656 1.294H11.5z" fill="#f78f8f"></path><path d="M16.719 20l-1.271 5.085a1.207 1.207 0 01-1.172.915H12v-6h4.719M18 19h-7v8h3.276c1.013 0 1.896-.69 2.142-1.673L18 19z" fill="#c74343"></path><path d="M9.41 37.5a2.31 2.31 0 01-.952-.207l-3.771-1.688c-1.674-.75-2.539-2.566-2.057-4.319.989-3.602 2.36-10.298.426-14.682-.034-.037.167-.268 1.359-.268 4.041 0 12.155 2.437 12.71 3.527-.03.007-.094.048-.21.098-6.147 2.619-5.566 12.138-5.539 12.542l.328 2.351a2.279 2.279 0 01-.54 1.837 2.327 2.327 0 01-1.754.809z" fill="#8bb7f0"></path><path d="M4.416 16.836c3.55 0 9.84 1.812 11.77 2.916-5.904 3.057-5.337 12.378-5.309 12.785l.002.035.005.035.324 2.315a1.783 1.783 0 01-.421 1.439A1.824 1.824 0 019.41 37a1.82 1.82 0 01-.748-.164l-3.771-1.689c-1.424-.638-2.189-2.241-1.78-3.73.973-3.539 2.305-10.025.595-14.542.168-.021.399-.039.71-.039m0-1c-1.342 0-2.121.28-1.817.969 1.778 4.028.645 10.36-.451 14.347-.546 1.984.457 4.066 2.335 4.907l3.771 1.689c.384.173.776.252 1.156.252 1.622 0 3.038-1.437 2.789-3.216l-.324-2.315s-.655-9.538 5.237-12.048c3.081-1.312-8.104-4.585-12.696-4.585z" fill="#4e7ab5"></path><path d="M10.5 20.5c-4.963 0-9-4.037-9-9s4.037-9 9-9c4.843 0 18.541 3.291 21 3.892v10.217c-2.452.601-16.1 3.891-21 3.891z" fill="#dbf2ff"></path><path d="M10.5 3C15.078 3 27.763 6.001 31 6.785v9.431C27.772 17.001 15.135 20 10.5 20 5.813 20 2 16.187 2 11.5S5.813 3 10.5 3m0-1C5.253 2 1 6.253 1 11.5S5.253 21 10.5 21c5.49 0 21.5-4 21.5-4V6S15.924 2 10.5 2z" fill="#7496c4"></path><path fill="none" stroke="#f78f8f" stroke-miterlimit="10" d="M33 11.5h6M33 8.5h6M33 14.5h6"></path><g><circle cx="11" cy="12" r="4.5" fill="#8bb7f0"></circle><path d="M11 8c2.206 0 4 1.794 4 4s-1.794 4-4 4-4-1.794-4-4 1.794-4 4-4m0-1a5 5 0 10.001 10.001A5 5 0 0011 7z" fill="#4e7ab5"></path></g><g><circle cx="7.837" cy="25.396" r="1.4" fill="#fff"></circle></g></svg>