<svg viewBox="0 0 40 40" xmlns="http://www.w3.org/2000/svg"><path d="M12.058 35.498c-3.083-.056-5.708-1.081-7.591-2.964-2.511-2.511-3.474-6.29-2.719-10.654a16.865 16.865 0 00-.227 2.204c.064 2.726.963 5.015 2.598 6.649 1.813 1.813 4.271 2.772 7.108 2.772 4.742 0 10.171-2.708 14.894-7.431 3.848-3.847 6.305-8.03 7.105-12.098.777-3.945-.115-7.438-2.514-9.836-1.648-1.647-3.949-2.553-6.653-2.619h-.033c-5.074.214-10.731 2.97-15.133 7.373-1.904 1.905-3.492 4.008-4.702 6.204 1.21-2.196 2.798-4.3 4.702-6.205C13.522 4.264 19.422 1.5 24.674 1.5c3.201 0 5.919 1.025 7.859 2.966 2.541 2.541 3.497 6.382 2.691 10.814-.818 4.5-3.347 9.055-7.118 12.827-4.629 4.629-10.528 7.393-15.78 7.393l-.268-.002z" fill="#ffb5d2"></path><path d="M31.367 4.101c.285.223.556.462.812.719 2.422 2.422 3.328 6.105 2.552 10.371-.8 4.4-3.279 8.862-6.979 12.562C23.215 32.291 17.448 35 12.326 35l-.259-.002C9.116 34.944 6.61 33.97 4.82 32.18a8.866 8.866 0 01-.611-.677c1.857 1.639 4.27 2.502 7.019 2.502 4.874 0 10.432-2.762 15.247-7.578 3.917-3.917 6.422-8.189 7.242-12.355.778-3.944-.057-7.466-2.35-9.971M24.674 1C19.481 1 13.447 3.632 8.54 8.54.594 16.486-1.388 27.386 4.113 32.887c2.043 2.043 4.831 3.054 7.936 3.11.092.002.184.003.277.003 5.193 0 11.228-2.632 16.135-7.54 7.946-7.946 9.928-18.846 4.427-24.347C30.784 2.009 27.89 1 24.674 1zM11.228 33.005c-2.671 0-5.015-.885-6.755-2.625-1.603-1.603-2.391-3.797-2.452-6.277.029-.743.103-1.506.247-2.294.8-4.4 3.279-8.862 6.979-12.562 4.354-4.354 9.839-7.017 14.801-7.226 2.491.061 4.697.858 6.311 2.473 4.594 4.594 3.276 13.36-4.591 21.227-4.902 4.901-10.16 7.284-14.54 7.284z" fill="#ea4c89"></path><path d="M31.925 27.5a6.479 6.479 0 01-4.598-1.894c-1.197-1.191-1.846-2.839-1.826-4.639.019-1.747.667-3.344 1.826-4.498 1.277-1.27 4.512-1.969 9.107-1.969.87 0 1.587.027 2.017.049.091 1.826.283 8.855-1.93 11.058a6.474 6.474 0 01-4.596 1.893z" fill="#ffb5d2"></path><path d="M36.434 15c.605 0 1.134.013 1.542.029.116 2.882-.039 8.465-1.807 10.223A5.982 5.982 0 0131.924 27a5.978 5.978 0 01-4.244-1.748c-1.101-1.095-1.698-2.615-1.68-4.279.012-1.143.314-2.791 1.68-4.149C28.845 15.665 32.036 15 36.434 15m0-1c-2.933 0-7.636.302-9.459 2.115-1.347 1.34-1.955 3.091-1.974 4.847-.02 1.807.588 3.62 1.974 4.999A6.997 6.997 0 0031.924 28a7 7 0 004.95-2.039c2.734-2.719 2.05-11.885 2.05-11.885S37.9 14 36.434 14z" fill="#ea4c89"></path><path d="M16.553 38.5c-.864 0-1.576-.027-2.004-.049-.09-1.826-.283-8.856 1.919-11.059a6.427 6.427 0 014.5-1.892h.001c1.796 0 3.418.672 4.639 1.892a6.469 6.469 0 010 9.139c-1.27 1.27-4.486 1.969-9.055 1.969z" fill="#ffb5d2"></path><path d="M21.038 26c1.592 0 3.09.62 4.216 1.746a5.969 5.969 0 010 8.432C24.096 37.336 20.924 38 16.553 38c-.6 0-1.125-.013-1.531-.028-.147-3.444.198-8.624 1.8-10.225a5.929 5.929 0 014.151-1.746l.065-.001m0-1h-.076a6.94 6.94 0 00-4.847 2.039c-2.719 2.719-2.039 11.885-2.039 11.885s1.018.076 2.477.076c2.917 0 7.596-.302 9.408-2.115A6.962 6.962 0 0021.038 25z" fill="#ea4c89"></path><g><path d="M28.956 24.044c.879-1.49 1.828-3.04 2.081-3.293a.85.85 0 01.606-.251.858.858 0 01.605 1.463c-.252.253-1.802 1.202-3.292 2.081z" fill="#ff7bb7"></path><path d="M31.643 21a.36.36 0 01.26.604c-.152.139-.719.507-1.483.977.469-.763.835-1.327.971-1.476a.354.354 0 01.252-.105m0-1c-.347 0-.695.133-.96.398-.53.53-3.112 5.031-3.112 5.031s4.501-2.582 5.031-3.112A1.357 1.357 0 0031.643 20z" fill="#ea4c89"></path></g><g><path d="M21.929 32.5a.85.85 0 01-.606-.251.85.85 0 01-.251-.606.85.85 0 01.251-.606c.253-.253 1.804-1.202 3.293-2.081-.879 1.489-1.828 3.04-2.081 3.293a.854.854 0 01-.606.251z" fill="#ff7bb7"></path><path d="M23.152 30.419c-.469.763-.835 1.327-.971 1.476a.356.356 0 01-.505 0 .357.357 0 01-.007-.499c.152-.138.719-.506 1.483-.977M26 27.571s-4.501 2.582-5.031 3.112a1.357 1.357 0 101.92 1.919c.529-.529 3.111-5.031 3.111-5.031z" fill="#ea4c89"></path></g><g><path fill="#ff7bb7" d="M23.725 25.982l2.293-2.293 3.277 3.309-2.293 2.293z"></path><path d="M26.016 24.398l2.573 2.598-1.586 1.586-2.573-2.598 1.586-1.586m.003-1.417l-3 3L27 30l3-3-3.981-4.019z" fill="#ea4c89"></path></g></svg>