<svg viewBox="0 0 40 40" xmlns="http://www.w3.org/2000/svg"><path fill="#ffc49c" d="M9.5 16.019V4.106L20 1.515l10.5 2.591v11.913L20 19.474z"></path><path d="M20 2.03l10 2.468v11.16l-10 3.29-10-3.29V4.498L20 2.03M20 1L9 3.714v12.667L20 20l11-3.619V3.714L20 1z" fill="#a16a4a"></path><path d="M30 15.657l-10 3.29V5.03l10-.532v11.159z" fill="#ebaa7f"></path><path d="M20 7.187l-10-2.69L20 2.03l10 2.468-10 2.689z" fill="#ffdbc2"></path><path fill="none" stroke="#a16a4a" stroke-linecap="round" stroke-miterlimit="10" d="M24.174 8.931l2.414-.773"></path><path d="M26.5 38.5v-7.917c0-.647.135-1.274.4-1.864l4.014-8.913a2.217 2.217 0 012.928-1.11l.842.378.694-11.109A1.566 1.566 0 0136.937 6.5c.861 0 1.563.701 1.563 1.562v13.195c0 .43-.078.853-.233 1.257l-4.79 12.454.883 3.532H26.5z" fill="#f5ce85"></path><path d="M36.938 7C37.523 7 38 7.477 38 8.062v13.195c0 .37-.067.732-.2 1.077l-4.733 12.307-.113.295.077.307.688 2.757H27v-7.417c0-.576.12-1.134.356-1.659l4.013-8.913A1.72 1.72 0 0132.934 19c.242 0 .479.051.702.152l.182.082 1.319.594.09-1.443.649-10.388A1.067 1.067 0 0136.938 7m0-1c-1.089 0-1.99.847-2.058 1.934l-.65 10.388-.182-.082a2.716 2.716 0 00-3.59 1.36l-4.013 8.913a5.026 5.026 0 00-.445 2.07V39h9l-1-4 4.733-12.307c.177-.458.267-.945.267-1.436V8.062A2.062 2.062 0 0036.938 6z" fill="#967a44"></path><path fill="#f5ce85" stroke="#967a44" stroke-linecap="round" stroke-linejoin="round" stroke-miterlimit="10" d="M32.125 26.75l2.516-6.88.026-.932"></path><path fill="#f5ce85" d="M33.467 37H27v2h7zM5.641 38.5l.883-3.532-4.79-12.454a3.472 3.472 0 01-.234-1.257V8.062c0-.861.701-1.562 1.562-1.562.823 0 1.508.644 1.56 1.465l.694 11.111.843-.381c.288-.129.593-.195.906-.195.87 0 1.664.513 2.021 1.306l4.014 8.913c.266.59.4 1.217.4 1.864V38.5H5.641z"></path><path d="M3.062 7c.56 0 1.025.438 1.06.996l.649 10.388.09 1.443 1.319-.594.182-.082a1.72 1.72 0 012.269.86l4.013 8.913A4.02 4.02 0 0113 30.583V38H6.281l.689-2.757.077-.307-.113-.295L2.2 22.334a2.981 2.981 0 01-.2-1.077V8.062C2 7.477 2.477 7 3.062 7m0-1A2.062 2.062 0 001 8.062v13.195c0 .491.09.978.267 1.436L6 35l-1 4h9v-8.417c0-.714-.151-1.419-.444-2.07L9.542 19.6a2.714 2.714 0 00-3.589-1.36l-.183.082-.649-10.388A2.063 2.063 0 003.062 6z" fill="#967a44"></path><path fill="#f5ce85" stroke="#967a44" stroke-linecap="round" stroke-linejoin="round" stroke-miterlimit="10" d="M7.875 26.75l-2.516-6.88-.026-.932"></path><path fill="#f5ce85" d="M6.533 37H13v2H6z"></path></svg>