<svg viewBox="0 0 40 40" xmlns="http://www.w3.org/2000/svg"><path d="M19.693 11.014l1.195-1.196A4.476 4.476 0 0124.071 8.5H28l10.5-.953V20.5h-3.667l-3.771 2.829-11.369-12.315z" fill="#ffc49c"></path><path d="M38 8.095V20h-3.333l-.267.2-3.278 2.458-10.736-11.63.856-.856A3.975 3.975 0 0124.071 9H28.045l.045-.004L38 8.095M39 7L28 8h-3.929a5.004 5.004 0 00-3.536 1.464L19 11l12 13 4-3h4V7z" fill="#a16a4a"></path><path d="M21.5 34.5a2.002 2.002 0 01-1.913-1.454l-.216-.759-.248.217L8.222 20.5H1.5V7.547l10.455.951 4.879.002c1.238 0 2.435.519 3.283 1.422l7.601 8.108 3.58 3.741.062.036a2.252 2.252 0 011.14 1.943 2.241 2.241 0 01-2.145 2.237l-.635.03.179.61c.069.236.101.434.101.623 0 1.241-1.01 2.25-2.25 2.25-.197 0-.401-.034-.644-.107l-.748-.226.108.774c.02.135.033.22.033.309 0 1.241-1.01 2.25-2.25 2.25-.048 0-.095-.008-.141-.014l-.561-.062-.087.453A1.997 1.997 0 0121.5 34.5z" fill="#f5ce85"></path><path d="M2 8.095l9.909.901.046.004h4.879c1.101 0 2.165.461 2.918 1.264l7.609 8.116 3.526 3.684.1.104.125.072c.556.319.888.884.888 1.51 0 .93-.733 1.694-1.668 1.738l-1.267.06.354 1.218c.055.19.081.344.081.484 0 .965-.785 1.75-1.75 1.75-.146 0-.305-.027-.5-.086l-1.493-.449.214 1.544.008.057c.009.061.021.121.021.184A1.75 1.75 0 0124.255 32c-.026-.001-.052-.006-.078-.01l-.116-.015-.918-.1-.173.907A1.498 1.498 0 0121.5 34a1.5 1.5 0 01-1.432-1.092l-.458-1.506-.45.398L8.74 20.328 8.443 20H2V8.095M1 7v14h7l11.083 12.203.023-.021A2.494 2.494 0 0021.5 35c1.22 0 2.232-.874 2.453-2.03.099.011.195.03.297.03A2.75 2.75 0 0027 30.25c0-.13-.021-.254-.038-.378.251.075.512.128.788.128a2.75 2.75 0 002.75-2.75c0-.267-.05-.519-.121-.763A2.744 2.744 0 0033 23.75a2.738 2.738 0 00-1.391-2.377l-3.526-3.685-7.601-8.108A5.003 5.003 0 0016.834 8H12L1 7z" fill="#967a44"></path><path d="M17.618 18.791c-.53 0-1.036-.089-1.425-.252-.955-.399-1.517-.904-1.626-1.46-.128-.648.356-1.296.786-1.725l5.535-5.536A4.476 4.476 0 0124.071 8.5H27.5v6H26c-.887 0-2.1.465-2.76 1.059l-1.967 1.77c-1.416 1.272-2.897 1.462-3.655 1.462z" fill="#ffc49c"></path><path d="M27 9v5h-1c-1.012 0-2.342.51-3.094 1.187l-1.967 1.769c-1.291 1.161-2.634 1.335-3.32 1.335-.628 0-1.042-.134-1.232-.214-.771-.323-1.255-.722-1.328-1.095-.065-.332.171-.797.649-1.275l5.536-5.536A3.97 3.97 0 0124.071 9H27m1-1h-3.929a5.004 5.004 0 00-3.536 1.464L15 15c-1.417 1.417-1.389 3 1 4 .421.176.982.291 1.619.291 1.202 0 2.676-.41 3.989-1.591l1.967-1.769C24.143 15.419 25.235 15 26 15h2V8z" fill="#a16a4a"></path><path fill="#ffc49c" d="M25 9h6.667v5H25zM18.5 34.5a2.004 2.004 0 01-1.96-1.603l-.081-.402h-.409l-.1.008C14.621 32.5 13.5 31.378 13.5 30v-.5H13a2.503 2.503 0 01-2.5-2.5v-.5H10c-1.379 0-2.5-1.122-2.5-2.5s1.121-2.5 2.5-2.5 2.5 1.122 2.5 2.5v.5h.5c1.379 0 2.5 1.122 2.5 2.5v.5h.5c1.379 0 2.5 1.122 2.5 2.5v.41l.396.13A2.005 2.005 0 0120.5 32.5c0 1.103-.897 2-2 2z"></path><path d="M10 22c1.103 0 2 .897 2 2v1h1c1.103 0 2 .897 2 2v1h1c1.085 0 1.97.868 1.999 1.946l-.003.022-.001.065-.015.834.818.164a1.5 1.5 0 11-1.768 1.767l-.164-.818-.834.015c-.027 0-.053.002-.079.004A2.002 2.002 0 0114 30v-1h-1c-1.103 0-2-.897-2-2v-1h-1c-1.103 0-2-.897-2-2s.897-2 2-2m0-1a3 3 0 100 6 3 3 0 003 3 3 3 0 003 3c.017 0 .033-.005.05-.005A2.5 2.5 0 0021 32.5a2.5 2.5 0 00-2.005-2.45c0-.017.005-.033.005-.05a3 3 0 00-3-3 3 3 0 00-3-3 3 3 0 00-3-3z" fill="#a16a4a"></path><path fill="none" stroke="#967a44" stroke-linecap="round" stroke-miterlimit="10" d="M29 25l1.171 1.171M25.5 28.5l1.171 1.171M23 32l.737.737"></path></svg>