<svg viewBox="0 0 40 40" xmlns="http://www.w3.org/2000/svg"><path d="M14.999 38.5c-.202 0-.4-.041-.589-.122a1.487 1.487 0 01-.802-.822 1.486 1.486 0 01.014-1.147l6.348-17.331-5.631 8.606c-.284.516-.789.815-1.339.815a1.502 1.502 0 01-1.315-2.219l7.139-13.781h-4.821c-.458 0-.886-.205-1.172-.563l-4-5a1.49 1.49 0 01-.304-1.223 1.49 1.49 0 01.749-1.028c.204-.116.432-.174.674-.174.489 0 .971.238 1.289.637L14.721 9.5H20c.204 0 .402.041.589.121l6.618 2.669c.167.072.326.18.46.314l5.396 5.337c.339.34.496.829.417 1.306l-1 6a1.493 1.493 0 01-1.477 1.253c-.167 0-.326-.026-.485-.079-.689-.229-1.111-.982-.982-1.754l.861-5.172-.208-.184c-3.927-3.468-3.932-3.468-4.188-3.468h-.33l-9.292 21.748a1.5 1.5 0 01-1.38.909z" fill="#ffeea3"></path><path d="M9.95 5.011c.333 0 .677.172.899.449l3.332 4.164.3.375H20c.135 0 .267.027.412.089L27 12.744a1 1 0 01.318.217l5.389 5.331c.228.228.332.554.279.872l-1 6a.996.996 0 01-1.313.781c-.449-.149-.732-.675-.645-1.197l.816-4.898.091-.547-.416-.367c-4.07-3.594-4.07-3.594-4.519-3.594h-.661l-.259.608-9.161 21.443a1 1 0 11-1.838-.788l.011-.025.009-.025 4.838-13.212 2.999-8.188-4.774 7.297-3.244 4.958-.022.033-.019.035a1.001 1.001 0 01-1.356.399 1.007 1.007 0 01-.389-1.376l6.756-13.042.756-1.46h-5.645a.996.996 0 01-.782-.376l-4-5a1 1 0 01.302-1.503.869.869 0 01.429-.109m0-1c-.315 0-.63.076-.919.238a2 2 0 00-.593 2.999l4 5c.38.475.955.751 1.563.751H18l-6.756 13.042a2.001 2.001 0 003.512 1.916L18 22.999l-4.838 13.212a2 2 0 103.676 1.576L26 16.343h.001c.071 0 3.857 3.343 3.857 3.343l-.816 4.898c-.164.984.37 1.996 1.317 2.31a2 2 0 002.614-1.566l1-6a2 2 0 00-.559-1.743l-5.393-5.335a2.017 2.017 0 00-.627-.425L20.786 9.16A2.006 2.006 0 0020 8.999h-5.039l-3.332-4.164a2.181 2.181 0 00-1.679-.824z" fill="#ba9b48"></path><circle cx="26.5" cy="5.5" r="3" fill="#ffeea3"></circle><path d="M26.5 3C27.878 3 29 4.121 29 5.5S27.878 8 26.5 8 24 6.879 24 5.5 25.122 3 26.5 3m0-1C24.566 2 23 3.566 23 5.5S24.566 9 26.5 9a3.5 3.5 0 100-7z" fill="#ba9b48"></path><circle cx="14.5" cy="3.5" r="2" fill="#839cb2"></circle><path d="M14.5 2c.827 0 1.5.673 1.5 1.5S15.327 5 14.5 5 13 4.327 13 3.5 13.673 2 14.5 2m0-1a2.5 2.5 0 100 5 2.5 2.5 0 000-5z" fill="#66798f"></path><g><path d="M18.94 21.602l-3.842-1.846.167-.393 3.558-6.864H16.5v-3H20c.204 0 .402.041.589.121l6.618 2.669c.167.072.326.18.46.314l2.538 2.487-2.236 2.251-2.163-1.814-3.332 7.756-3.534-1.681z" fill="#99c99e"></path><path d="M20 9.999c.135 0 .267.027.412.089L27 12.744c.118.051.224.122.321.22l2.175 2.131-1.557 1.568-1.296-1.087-1.031-.865-.531 1.236-2.861 6.661-3.062-1.457-.056-.027-3.351-1.609 3.137-6.056.756-1.46H17v-2h3m0-1h-4v4h2l-3.196 6.169-.353.832 4.218 2.026.056.027 4.004 1.906L26 16.343l2 1.678 2.914-2.935-2.894-2.836a2.017 2.017 0 00-.627-.425L20.786 9.16A2.006 2.006 0 0020 8.999z" fill="#5e9c76"></path></g><g><path d="M17.005 27.171l2.366-6.461 3.469 1.757-2.65 6.203-3.185-1.499zm-4.65-2.189l3.211-6.198 3.451 1.747-3.795 5.8-2.867-1.349z" fill="#839cb2"></path><path d="M15.782 19.454l2.51 1.271-1.13 1.726-2.122 3.243-2.003-.943 2.745-5.297m3.865 1.957l2.549 1.291-2.262 5.295-2.302-1.083 1.307-3.57.708-1.933m-4.297-3.296l-3.678 7.099 3.73 1.755L18 22.999l-1.622 4.429 4.068 1.914 3.038-7.11-8.134-4.117z" fill="#66798f"></path></g></svg>