<svg viewBox="0 0 40 40" xmlns="http://www.w3.org/2000/svg"><path d="M19.772 15.5c-6.709 0-9.669-8.507-10.2-10.233C10.581 4.464 14.683 1.5 20.156 1.5c3.561 0 7.344 1.707 7.344 4.871 0 2.784-3.085 3.311-3.216 3.333l-.441.071.02.446c.001.027.106 2.696-1.347 4.218-.673.704-1.596 1.061-2.744 1.061z" fill="#bae0bd"></path><path d="M20.156 2C23.474 2 27 3.532 27 6.371c0 2.348-2.683 2.82-2.792 2.838l-.883.141.039.893c.001.025.092 2.492-1.212 3.853-.583.608-1.361.904-2.379.904-6.02 0-8.895-7.358-9.618-9.553C11.45 4.47 15.217 2 20.156 2m0-1C13.579 1 9 5.091 9 5.091S11.861 16 19.773 16c4.871 0 4.589-5.803 4.589-5.803S28 9.629 28 6.371C28 3.002 24.222 1 20.156 1z" fill="#5e9c76"></path><path d="M27.5 23c0-9.588-.462-12.903-9.017-15.968" fill="none" stroke="#5e9c76" stroke-miterlimit="10"></path><path d="M26.786 35.786a3.575 3.575 0 01-3.571-3.571v-.5h-.5a3.582 3.582 0 01-3.496-2.843l-.078-.372-.379-.026a3.487 3.487 0 01-.593-.085l-.357-.087-.19.315a3.541 3.541 0 01-3.05 1.741c-1.969 0-3.571-1.602-3.571-3.571s1.602-3.571 3.571-3.571c.281 0 .575.044.924.138l.356.096.197-.312A3.477 3.477 0 0119 21.5c.566 0 1.125.148 1.661.439l.366.2.262-.324A3.479 3.479 0 0124 20.5c.941 0 1.825.37 2.488 1.042l.212.214.289-.087A3.422 3.422 0 0128 21.5a3.514 3.514 0 013.422 2.772l.111.524.515-.146c.359-.102.662-.15.952-.15 1.93 0 3.5 1.57 3.5 3.5s-1.57 3.5-3.5 3.5c-.034 0-.067-.006-.101-.011l-.148-.017-.268-.02-.164.213a3.547 3.547 0 01-1.796 1.237l-.257.077-.078.257c-.459 1.526-1.826 2.55-3.402 2.55z" fill="#a6714e"></path><path d="M24 21c.806 0 1.563.317 2.132.893l.424.429.578-.175c.33-.1.605-.147.866-.147 1.408 0 2.641.999 2.933 2.376l.222 1.048 1.03-.293c.314-.089.573-.131.815-.131 1.654 0 3 1.346 3 3s-1.346 3-2.982 3.001l-.051-.007c-.06-.008-.119-.016-.18-.02l-.536-.039-.328.426a3.043 3.043 0 01-1.544 1.062l-.515.155-.155.515a3.045 3.045 0 01-2.924 2.193 3.074 3.074 0 01-3.071-3.071v-1h-1a3.082 3.082 0 01-3.007-2.444l-.154-.743-.757-.052a3.048 3.048 0 01-.509-.072l-.715-.175-.38.631a3.044 3.044 0 01-2.621 1.499 3.074 3.074 0 01-3.071-3.071 3.074 3.074 0 013.071-3.071c.236 0 .488.038.794.121l.711.191.394-.622A2.983 2.983 0 0119 22c.482 0 .96.127 1.422.379l.732.399.524-.649A2.98 2.98 0 0124 21m0-1a3.975 3.975 0 00-3.1 1.501A3.953 3.953 0 0019 21a3.984 3.984 0 00-3.374 1.87 4.031 4.031 0 00-1.054-.155 4.07 4.07 0 100 8.142c1.482 0 2.766-.8 3.478-1.983.22.054.447.083.679.099a4.072 4.072 0 003.986 3.242 4.07 4.07 0 004.071 4.071c1.84 0 3.377-1.229 3.881-2.905a4.051 4.051 0 002.048-1.41c.096.007.187.029.285.029a4 4 0 000-8c-.38 0-.741.07-1.089.169A4 4 0 0028 21c-.405 0-.788.078-1.156.19A3.987 3.987 0 0024 20z" fill="#7a4f34"></path><g><path d="M24.079 38.489c-.401 0-.789-.085-1.153-.252L7.799 31.29 1.5 33.809v-9.771l5.393-2.003a8.552 8.552 0 012.981-.535c1.384 0 2.763.34 3.988.984l9.53 5.012a2.455 2.455 0 011.041 3.275l-.198.388 1.158.807 9.817-4.038c.29-.12.594-.181.905-.181a2.36 2.36 0 012.219 1.531c.414 1.083-.209 2.507-1.333 3.047l-11.68 5.868a2.766 2.766 0 01-1.242.296z" fill="#f5ce85"></path><path d="M9.875 22a8.1 8.1 0 013.754.927l9.53 5.012a1.954 1.954 0 01.828 2.606l-.396.776.715.498.576.402.448.312.505-.208 9.567-3.934c.229-.095.469-.142.714-.142.784 0 1.471.475 1.751 1.21.32.839-.196 1.992-1.099 2.426l-11.672 5.864a2.27 2.27 0 01-1.961.034L8.203 30.925l-.39-.179-.399.159L2 33.071v-8.685l5.067-1.882A8.058 8.058 0 019.875 22m0-1a9.062 9.062 0 00-3.155.567L1 23.691v10.857l6.786-2.714 14.931 6.857a3.26 3.26 0 002.827-.049l11.672-5.864c1.315-.632 2.104-2.313 1.584-3.676a2.873 2.873 0 00-3.781-1.635l-9.565 3.934-.576-.402a2.946 2.946 0 00-1.253-3.945l-9.53-5.012A9.067 9.067 0 009.875 21z" fill="#967a44"></path></g><path d="M15.583 28.649l6.119 3.093a1.993 1.993 0 002.622-.779v0" fill="none" stroke="#967a44" stroke-miterlimit="10"></path></svg>