<svg viewBox="0 0 40 40" xmlns="http://www.w3.org/2000/svg"><path d="M20.5 32.5H20c-.421 0-.814-.024-1.191-.06C10.781 31.823 4.5 25.042 4.5 17 4.5 8.453 11.453 1.5 20 1.5c8.124 0 14.909 6.353 15.447 14.463.032.338.053.673.053 1.037 0 7.711-3.943 17.823-15 21.327V32.5z" fill="#99c99e"></path><path d="M20 2c7.861 0 14.427 6.148 14.95 14.024.034.358.05.669.05.976 0 7.386-3.698 17.025-14 20.633V32h-1c-.363 0-.737-.019-1.162-.06C11.078 31.344 5 24.782 5 17 5 8.729 11.729 2 20 2m0-1C11.163 1 4 8.163 4 17c0 8.418 6.505 15.303 14.761 15.937.393.038.801.063 1.239.063v6c11.038-3.167 16-13.043 16-22 0-.38-.022-.732-.054-1.07C35.393 7.595 28.475 1 20 1z" fill="#5e9c76"></path><path d="M18 12h-5a1 1 0 00-1 1v5a1 1 0 001 1h3s.024 3-3 3v3s6 .075 6-6v-6a1 1 0 00-1-1z" fill="#fff"></path><g><path d="M27 12h-5a1 1 0 00-1 1v5a1 1 0 001 1h3s.024 3-3 3v3s6 .075 6-6v-6a1 1 0 00-1-1z" fill="#fff"></path></g></svg>