<svg viewBox="0 0 40 40" xmlns="http://www.w3.org/2000/svg"><path d="M20.063 14v-3.529s3.032-2.118 3.032-4.941S20.813 2 19.565 2c-1.412 0-2.824.706-3.529 2.824" fill="none" stroke="#778b9d" stroke-miterlimit="10"></path><path d="M38.133 29.76c-.56-.4-1.324-1.004-2.209-1.703C32.06 25.005 24.867 19.325 20 19.325s-12.06 5.68-15.924 8.732c-.885.699-1.649 1.303-2.209 1.703l-.345.247-.3-.3c-.51-.51-.776-1.34-.713-2.222.08-1.131.679-2.195 1.644-2.918.728-.545 2.671-1.622 4.921-2.868 3.199-1.771 7.18-3.976 8.186-4.981 1.556-1.556 1.608-2.713 1.608-2.725l.015-.485.485-.008h5.764v.5c0 .004.053 1.161 1.608 2.717 1.006 1.005 4.986 3.209 8.186 4.981 2.25 1.247 4.193 2.323 4.921 2.868.965.723 1.563 1.787 1.644 2.918.063.881-.203 1.712-.713 2.222l-.3.3-.345-.246z" fill="#dbb065"></path><path d="M22.632 14s0 1.316 1.755 3.071c1.755 1.755 11.405 6.58 13.16 7.896 1.755 1.316 1.755 3.509.877 4.387C35.353 27.16 26.141 18.825 20 18.825S4.647 27.16 1.576 29.353c-.877-.877-.877-3.071.877-4.387 1.755-1.316 11.405-6.141 13.16-7.896 1.755-1.754 1.755-3.07 1.755-3.07h5.264m.999-1.03l-.999.03h-6.264v1c-.002 0-.092.994-1.462 2.364-.956.955-5.07 3.234-8.073 4.897-2.267 1.255-4.224 2.34-4.979 2.906C.773 24.978.101 26.174.011 27.45c-.074 1.039.239 1.991.859 2.61l.599.599.689-.492c.57-.407 1.339-1.015 2.23-1.718 3.816-3.014 10.92-8.624 15.613-8.624s11.796 5.61 15.612 8.624c.891.703 1.66 1.311 2.23 1.718l.689.492.599-.599c.62-.62.933-1.571.859-2.61-.091-1.276-.763-2.473-1.843-3.283-.755-.566-2.713-1.65-4.979-2.906-3.004-1.664-7.118-3.942-8.073-4.897-1.383-1.383-1.462-2.384-1.462-2.394v-1h-.002z" fill="#967a44"></path></svg>