<svg viewBox="0 0 40 40" xmlns="http://www.w3.org/2000/svg"><path fill="#c29653" d="M1.5 34.5V16.288L20 5.578l18.5 10.71V34.5z"></path><path d="M20 6.156l18 10.421V34H2V16.577L20 6.156M20 5L1 16v19h38V16L20 5z" fill="#8c6a3f"></path><path fill="#b08159" d="M7.5 18.5h25v16h-25z"></path><path d="M32 19v15H8V19h24m1-1H7v17h26V18z" fill="#704e34"></path><path fill="#9c734f" d="M30 19h2v15h-2zM8 19h2v15H8z"></path><path fill="#9c734f" d="M8 19h24v3H8zM8 24h24v2H8zM8 28h24v2H8zM8 32h24v2H8z"></path></svg>