<svg viewBox="0 0 40 40" xmlns="http://www.w3.org/2000/svg"><path fill="#bdccd4" d="M8.5 33.5h24v5h-24z"></path><path d="M32 34v4H9v-4h23m1-1H8v6h25v-6z" fill="#788b9c"></path><path d="M5.5 34.5V4.07A2.57 2.57 0 018 1.5h25a2.57 2.57 0 012.5 2.57V34.5z" fill="#e1ebf2"></path><path d="M33 2a2.06 2.06 0 012 2.07V34H6V4.07A2.06 2.06 0 018 2h25m0-1H8a3.06 3.06 0 00-3 3.07V35h31V4.07A3.06 3.06 0 0033 1z" fill="#788b9c"></path><rect x="9.5" y="5.5" width="22" height="17" rx="2.5" ry="2.5" fill="#dcd5f2"/><path d="M29 6a2 2 0 012 2v12a2 2 0 01-2 2H12a2 2 0 01-2-2V8a2 2 0 012-2h17m0-1H12a3 3 0 00-3 3v12a3 3 0 003 3h17a3 3 0 003-3V8a3 3 0 00-3-3z" fill="#8b75a1"></path><circle cx="10.5" cy="31.5" r="1.5" fill="#f75252"></circle><path fill="#b0c1d4" d="M6 26h29v3H6z"></path><path fill="#788b9c" d="M19 26h11v3H19z"></path><path fill="#36404d" d="M14 9h2v3h-2zM25 9h2v3h-2zM20 9h2v6h-2z"></path><path fill="#36404d" d="M19 13h2v2h-2zM17 17h7v2h-7zM24 15h2v2h-2zM15 15h2v2h-2z"></path></svg>