<svg viewBox="0 0 40 40" xmlns="http://www.w3.org/2000/svg"><path d="M30.357 23.238c-3.732-3.506-7.046-4.661-7.196-4.712l-.042-.014.01-.007c1.502.135 5.496 2.422 7.227 3.486v1.247z" fill="#f78f8f"></path><path d="M23 18l-1.643 1H23s3.827 1.301 7.857 5.429v-2.714C30.857 21.714 24.914 18 23 18z" fill="#c74343"></path><path d="M31 37.5c-4.416 0-7.5-2.858-7.5-6.951 0-3.729 6.074-7.503 7.361-8.261 1.321.75 7.639 4.53 7.639 8.261 0 4.093-3.084 6.951-7.5 6.951zm-.469-13.45c-.413.355-4.031 3.541-4.031 5.95 0 2.523 1.977 4.5 4.5 4.5s4.5-1.977 4.5-4.5c0-2.419-3.887-5.605-4.33-5.961l-.324-.261-.315.272z" fill="#f78f8f"></path><path d="M30.867 22.863C33.231 24.22 38 27.571 38 30.549 38 34.347 35.122 37 31 37s-7-2.653-7-6.451c0-2.974 4.583-6.323 6.867-7.686M31 35c2.804 0 5-2.196 5-5 0-2.597-3.763-5.747-4.517-6.352l-.649-.52-.63.543C29.502 24.276 26 27.423 26 30c0 2.804 2.196 5 5 5m-.143-13.286S23 26.051 23 30.549 26.503 38 31 38s8-2.954 8-7.451-8.143-8.835-8.143-8.835zM31 34c-2.249 0-4-1.751-4-4s3.857-5.571 3.857-5.571S35 27.751 35 30s-1.751 4-4 4z" fill="#c74343"></path><path d="M9.643 21.992c1.731-1.064 5.725-3.352 7.227-3.486l.01.007-.042.014c-.149.051-3.464 1.206-7.196 4.712v-1.247z" fill="#f78f8f"></path><path d="M17 18c-1.914 0-7.857 3.714-7.857 3.714v2.714C13.173 20.301 17 19 17 19h1.643L17 18z" fill="#c74343"></path><path fill="#f78f8f" d="M2.5 2.5h34v7h-34z"></path><path d="M36 3v6H3V3h33m1-1H2v8h35V2z" fill="#c74343"></path><path d="M29 9.5c-.827 0-1.5-.673-1.5-1.5V4c0-.827.673-1.5 1.5-1.5h4c.827 0 1.5.673 1.5 1.5v4c0 .827-.673 1.5-1.5 1.5h-4z" fill="#e1ebf2"></path><path d="M33 3c.551 0 1 .449 1 1v4c0 .551-.449 1-1 1h-4c-.551 0-1-.449-1-1V4c0-.551.449-1 1-1h4m0-1h-4a2 2 0 00-2 2v4a2 2 0 002 2h4a2 2 0 002-2V4a2 2 0 00-2-2z" fill="#93a8bc"></path><g><path fill="#839cb2" d="M32.5 5.5h5v1h-5z"></path><path fill="#66798f" d="M38 5h-6v2h6V5z"></path></g><g><path fill="#839cb2" d="M17.5 5.5h5v13h-5z"></path><path d="M22 6v12h-4V6h4m1-1h-6v14h6V5z" fill="#66798f"></path></g><g><path d="M9 37.5c-4.416 0-7.5-2.858-7.5-6.951 0-3.734 6.318-7.512 7.639-8.261 1.287.758 7.361 4.532 7.361 8.261 0 4.093-3.084 6.951-7.5 6.951zm-.17-13.461C8.387 24.395 4.5 27.581 4.5 30c0 2.523 1.977 4.5 4.5 4.5s4.5-1.977 4.5-4.5c0-2.409-3.618-5.595-4.031-5.95l-.315-.271-.324.26z" fill="#f78f8f"></path><path d="M9.134 22.863C11.418 24.224 16 27.569 16 30.549 16 34.347 13.122 37 9 37s-7-2.653-7-6.451c0-2.972 4.77-6.327 7.134-7.686M9 35c2.804 0 5-2.196 5-5 0-2.577-3.502-5.724-4.204-6.329l-.63-.543-.649.52C7.763 24.253 4 27.403 4 30c0 2.804 2.196 5 5 5m.143-13.286S1 26.051 1 30.549 4.503 38 9 38s8-2.954 8-7.451-7.857-8.835-7.857-8.835zM9 34c-2.249 0-4-1.751-4-4s4.143-5.571 4.143-5.571S13 27.751 13 30s-1.751 4-4 4z" fill="#c74343"></path></g><g><path fill="#839cb2" d="M10.5 5.5h19v1h-19z"></path><path fill="#66798f" d="M30 5H10v2h20V5z"></path></g></svg>