<svg viewBox="0 0 40 40" xmlns="http://www.w3.org/2000/svg"><path fill="#f5ce85" d="M26.346 17.817L33.981 3.5H39.5v3h-3.799l-6.892 12.801z"></path><path d="M39 4v2h-3.597l-.283.526-6.502 12.076-1.607-.968L34.282 4H39m1-1h-6.318l-8 15L29 20l7-13h4V3z" fill="#967a44"></path><path d="M9.542 20.5l.956-11.792A3.521 3.521 0 0113.986 5.5H26a3.52 3.52 0 013.488 3.209l.969 11.791H9.542z" fill="#c2e8ff"></path><path d="M26 6a3.018 3.018 0 012.99 2.75L29.914 20h-19.83l.912-11.249A3.018 3.018 0 0113.986 6H26m0-1H13.986A4 4 0 0010 8.668L9 21h22L29.986 8.668A4 4 0 0026 5z" fill="#967a44"></path><path d="M5.5 24.833V20c0-1.93 1.57-3.5 3.5-3.5h22c1.93 0 3.5 1.57 3.5 3.5v4.833h-29z" fill="#f5ce85"></path><path d="M31 17c1.654 0 3 1.346 3 3v4.333H6V20c0-1.654 1.346-3 3-3h22m0-1H9a4 4 0 00-4 4v5.333h30V20a4 4 0 00-4-4z" fill="#967a44"></path><path fill="#dcd5f2" d="M1.693 36.5L.5 32.919v-4.838L1.693 24.5h36.614l1.193 3.581v4.838L38.307 36.5z"></path><path d="M37.946 25L39 28.162v4.675L37.946 36H2.054L1 32.838v-4.675L2.054 25h35.892m.721-1H1.333L0 28v5l1.333 4h37.333L40 33v-5l-1.333-4z" fill="#8b75a1"></path><path fill="none" stroke="#8b75a1" stroke-miterlimit="10" d="M29.333 36.667L30.5 32.5v-4l-1.167-3.833M10.667 36.667L9.5 32.5v-4l1.167-3.833M39.333 28.5H.667M39.333 32.5H.667"></path><circle cx="12" cy="20" r="2" fill="#fff"></circle><circle cx="28" cy="20" r="2" fill="#fff"></circle></svg>