<svg viewBox="0 0 40 40" xmlns="http://www.w3.org/2000/svg"><path fill="#788b9c" d="M7 24h26v1H7z"></path><circle cx="2.5" cy="24.5" r="1" fill="#8bb7f0"></circle><path d="M2.5 24a.5.5 0 110 1 .5.5 0 010-1m0-1a1.5 1.5 0 10.001 3.001A1.5 1.5 0 002.5 23z" fill="#4e7ab5"></path><path fill="#788b9c" d="M7 33h26v1H7z"></path><circle cx="2.5" cy="33.5" r="1" fill="#8bb7f0"></circle><path d="M2.5 33a.5.5 0 110 1 .5.5 0 010-1m0-1a1.5 1.5 0 10.001 3.001A1.5 1.5 0 002.5 32z" fill="#4e7ab5"></path><path fill="#788b9c" d="M7 6h32v1H7z"></path><circle cx="2.5" cy="6.5" r="1" fill="#8bb7f0"></circle><path d="M2.5 6a.5.5 0 110 1 .5.5 0 010-1m0-1a1.5 1.5 0 10.001 3.001A1.5 1.5 0 002.5 5z" fill="#4e7ab5"></path><path fill="#788b9c" d="M7 15h32v1H7z"></path><g><circle cx="2.5" cy="15.5" r="1" fill="#8bb7f0"></circle><path d="M2.5 15a.5.5 0 110 1 .5.5 0 010-1m0-1a1.5 1.5 0 10.001 3.001A1.5 1.5 0 002.5 14z" fill="#4e7ab5"></path></g><g><circle cx="30.5" cy="30.5" r="9" fill="#8bb7f0"></circle><path d="M30.5 22c4.687 0 8.5 3.813 8.5 8.5S35.187 39 30.5 39 22 35.187 22 30.5s3.813-8.5 8.5-8.5m0-1c-5.247 0-9.5 4.253-9.5 9.5s4.253 9.5 9.5 9.5 9.5-4.253 9.5-9.5-4.253-9.5-9.5-9.5z" fill="#4e7ab5"></path><path fill="none" stroke="#fff" stroke-width="2" stroke-miterlimit="10" d="M28 36V25M33 36V25M25 28h11M25 33h11"></path></g></svg>