<svg viewBox="0 0 40 40" xmlns="http://www.w3.org/2000/svg"><path d="M6 35.5A2.503 2.503 0 013.5 33V6c0-1.378 1.122-2.5 2.5-2.5h27c1.378 0 2.5 1.122 2.5 2.5v27c0 1.378-1.122 2.5-2.5 2.5H6z" fill="#c2e8ff"></path><path d="M33 4c1.103 0 2 .897 2 2v27c0 1.103-.897 2-2 2H6c-1.103 0-2-.897-2-2V6c0-1.103.897-2 2-2h27m0-1H6a3 3 0 00-3 3v27a3 3 0 003 3h27a3 3 0 003-3V6a3 3 0 00-3-3z" fill="#7496c4"></path><path d="M9 13.5c-.827 0-1.5-.673-1.5-1.5V9c0-.827.673-1.5 1.5-1.5h3c.827 0 1.5.673 1.5 1.5v3c0 .827-.673 1.5-1.5 1.5H9z" fill="#bae0bd"></path><path d="M12 8c.551 0 1 .449 1 1v3c0 .551-.449 1-1 1H9c-.551 0-1-.449-1-1V9c0-.551.449-1 1-1h3m0-1H9a2 2 0 00-2 2v3a2 2 0 002 2h3a2 2 0 002-2V9a2 2 0 00-2-2z" fill="#5e9c76"></path><path d="M18 13.5c-.827 0-1.5-.673-1.5-1.5V9c0-.827.673-1.5 1.5-1.5h3c.827 0 1.5.673 1.5 1.5v3c0 .827-.673 1.5-1.5 1.5h-3z" fill="#bae0bd"></path><path d="M21 8c.551 0 1 .449 1 1v3c0 .551-.449 1-1 1h-3c-.551 0-1-.449-1-1V9c0-.551.449-1 1-1h3m0-1h-3a2 2 0 00-2 2v3a2 2 0 002 2h3a2 2 0 002-2V9a2 2 0 00-2-2z" fill="#5e9c76"></path><path d="M27 13.5c-.827 0-1.5-.673-1.5-1.5V9c0-.827.673-1.5 1.5-1.5h3c.827 0 1.5.673 1.5 1.5v3c0 .827-.673 1.5-1.5 1.5h-3z" fill="#bae0bd"></path><path d="M30 8c.551 0 1 .449 1 1v3c0 .551-.449 1-1 1h-3c-.551 0-1-.449-1-1V9c0-.551.449-1 1-1h3m0-1h-3a2 2 0 00-2 2v3a2 2 0 002 2h3a2 2 0 002-2V9a2 2 0 00-2-2z" fill="#5e9c76"></path><path d="M9 22.5c-.827 0-1.5-.673-1.5-1.5v-3c0-.827.673-1.5 1.5-1.5h3c.827 0 1.5.673 1.5 1.5v3c0 .827-.673 1.5-1.5 1.5H9z" fill="#bae0bd"></path><path d="M12 17c.551 0 1 .449 1 1v3c0 .551-.449 1-1 1H9c-.551 0-1-.449-1-1v-3c0-.551.449-1 1-1h3m0-1H9a2 2 0 00-2 2v3a2 2 0 002 2h3a2 2 0 002-2v-3a2 2 0 00-2-2z" fill="#5e9c76"></path><path d="M18 22.5c-.827 0-1.5-.673-1.5-1.5v-3c0-.827.673-1.5 1.5-1.5h3c.827 0 1.5.673 1.5 1.5v3c0 .827-.673 1.5-1.5 1.5h-3z" fill="#bae0bd"></path><path d="M21 17c.551 0 1 .449 1 1v3c0 .551-.449 1-1 1h-3c-.551 0-1-.449-1-1v-3c0-.551.449-1 1-1h3m0-1h-3a2 2 0 00-2 2v3a2 2 0 002 2h3a2 2 0 002-2v-3a2 2 0 00-2-2z" fill="#5e9c76"></path><g><path d="M27 22.5c-.827 0-1.5-.673-1.5-1.5v-3c0-.827.673-1.5 1.5-1.5h3c.827 0 1.5.673 1.5 1.5v3c0 .827-.673 1.5-1.5 1.5h-3z" fill="#bae0bd"></path><path d="M30 17c.551 0 1 .449 1 1v3c0 .551-.449 1-1 1h-3c-.551 0-1-.449-1-1v-3c0-.551.449-1 1-1h3m0-1h-3a2 2 0 00-2 2v3a2 2 0 002 2h3a2 2 0 002-2v-3a2 2 0 00-2-2z" fill="#5e9c76"></path></g><g><path d="M9 31.5c-.827 0-1.5-.673-1.5-1.5v-3c0-.827.673-1.5 1.5-1.5h3c.827 0 1.5.673 1.5 1.5v3c0 .827-.673 1.5-1.5 1.5H9z" fill="#bae0bd"></path><path d="M12 26c.551 0 1 .449 1 1v3c0 .551-.449 1-1 1H9c-.551 0-1-.449-1-1v-3c0-.551.449-1 1-1h3m0-1H9a2 2 0 00-2 2v3a2 2 0 002 2h3a2 2 0 002-2v-3a2 2 0 00-2-2z" fill="#5e9c76"></path></g><g><path d="M18 31.5c-.827 0-1.5-.673-1.5-1.5v-3c0-.827.673-1.5 1.5-1.5h3c.827 0 1.5.673 1.5 1.5v3c0 .827-.673 1.5-1.5 1.5h-3z" fill="#bae0bd"></path><path d="M21 26c.551 0 1 .449 1 1v3c0 .551-.449 1-1 1h-3c-.551 0-1-.449-1-1v-3c0-.551.449-1 1-1h3m0-1h-3a2 2 0 00-2 2v3a2 2 0 002 2h3a2 2 0 002-2v-3a2 2 0 00-2-2z" fill="#5e9c76"></path></g><g><path d="M27 31.5c-.827 0-1.5-.673-1.5-1.5v-3c0-.827.673-1.5 1.5-1.5h3c.827 0 1.5.673 1.5 1.5v3c0 .827-.673 1.5-1.5 1.5h-3z" fill="#bae0bd"></path><path d="M30 26c.551 0 1 .449 1 1v3c0 .551-.449 1-1 1h-3c-.551 0-1-.449-1-1v-3c0-.551.449-1 1-1h3m0-1h-3a2 2 0 00-2 2v3a2 2 0 002 2h3a2 2 0 002-2v-3a2 2 0 00-2-2z" fill="#5e9c76"></path></g><g><circle cx="30.5" cy="30.5" r="9" fill="#8bb7f0"></circle><path d="M30.5 22c4.687 0 8.5 3.813 8.5 8.5S35.187 39 30.5 39 22 35.187 22 30.5s3.813-8.5 8.5-8.5m0-1c-5.247 0-9.5 4.253-9.5 9.5s4.253 9.5 9.5 9.5 9.5-4.253 9.5-9.5-4.253-9.5-9.5-9.5z" fill="#4e7ab5"></path><path fill="none" stroke="#fff" stroke-width="2" stroke-miterlimit="10" d="M28 36V25M33 36V25M25 28h11M25 33h11"></path></g></svg>