<svg viewBox="0 0 40 40" xmlns="http://www.w3.org/2000/svg"><path fill="#fff" d="M3.5 3.5h8v8h-8z"></path><path d="M11 4v7H4V4h7m1-1H3v9h9V3z" fill="#788b9c"></path><path fill="#fff" d="M11.5 3.5h8v8h-8z"></path><path d="M19 4v7h-7V4h7m1-1h-9v9h9V3z" fill="#788b9c"></path><path fill="#fff" d="M19.5 3.5h8v8h-8z"></path><path d="M27 4v7h-7V4h7m1-1h-9v9h9V3z" fill="#788b9c"></path><path fill="#fff" d="M27.5 3.5h8v8h-8z"></path><path d="M35 4v7h-7V4h7m1-1h-9v9h9V3z" fill="#788b9c"></path><path fill="#fff" d="M3.5 11.5h8v8h-8z"></path><path d="M11 12v7H4v-7h7m1-1H3v9h9v-9z" fill="#788b9c"></path><path fill="#fff" d="M11.5 11.5h8v8h-8z"></path><path d="M19 12v7h-7v-7h7m1-1h-9v9h9v-9z" fill="#788b9c"></path><path fill="#fff" d="M19.5 11.5h8v8h-8z"></path><path d="M27 12v7h-7v-7h7m1-1h-9v9h9v-9z" fill="#788b9c"></path><path fill="#fff" d="M27.5 11.5h8v8h-8z"></path><path d="M35 12v7h-7v-7h7m1-1h-9v9h9v-9z" fill="#788b9c"></path><path fill="#fff" d="M3.5 19.5h8v8h-8z"></path><path d="M11 20v7H4v-7h7m1-1H3v9h9v-9z" fill="#788b9c"></path><g><path fill="#fff" d="M11.5 19.5h8v8h-8z"></path><path d="M19 20v7h-7v-7h7m1-1h-9v9h9v-9z" fill="#788b9c"></path></g><g><path fill="#fff" d="M19.5 19.5h8v8h-8z"></path><path d="M27 20v7h-7v-7h7m1-1h-9v9h9v-9z" fill="#788b9c"></path></g><g><path fill="#fff" d="M27.5 19.5h8v8h-8z"></path><path d="M35 20v7h-7v-7h7m1-1h-9v9h9v-9z" fill="#788b9c"></path></g><g><path fill="#fff" d="M3.5 27.5h8v8h-8z"></path><path d="M11 28v7H4v-7h7m1-1H3v9h9v-9z" fill="#788b9c"></path></g><g><path fill="#fff" d="M11.5 27.5h8v8h-8z"></path><path d="M19 28v7h-7v-7h7m1-1h-9v9h9v-9z" fill="#788b9c"></path></g><g><path fill="#fff" d="M19.5 27.5h8v8h-8z"></path><path d="M27 28v7h-7v-7h7m1-1h-9v9h9v-9z" fill="#788b9c"></path></g><g><path fill="#fff" d="M27.5 27.5h8v8h-8z"></path><path d="M35 28v7h-7v-7h7m1-1h-9v9h9v-9z" fill="#788b9c"></path></g><g><circle cx="30.5" cy="30.5" r="9" fill="#8bb7f0"></circle><path d="M30.5 22c4.687 0 8.5 3.813 8.5 8.5S35.187 39 30.5 39 22 35.187 22 30.5s3.813-8.5 8.5-8.5m0-1c-5.247 0-9.5 4.253-9.5 9.5s4.253 9.5 9.5 9.5 9.5-4.253 9.5-9.5-4.253-9.5-9.5-9.5z" fill="#4e7ab5"></path><path fill="none" stroke="#fff" stroke-width="2" stroke-miterlimit="10" d="M28 36V25M33 36V25M25 28h11M25 33h11"></path></g></svg>