<svg viewBox="0 0 40 40" xmlns="http://www.w3.org/2000/svg"><path d="M26.501 38.5c.067-20.671 4.306-29.423 6.507-32.578-.857 3.973-2.479 13.942-2.508 32.578h-3.999z" fill="#ffeea3"></path><path d="M31.977 8.682c-.86 5.101-1.929 14.416-1.975 29.318h-2.998c.106-16.257 2.817-24.957 4.973-29.318M34 4s-8 6.066-8 35h5c0-25.393 3-35 3-35z" fill="#ba9b48"></path><path d="M32.207 38.399c-.424-1.464-1.707-6.243-1.707-10.564 0-8.891 2.375-14.235 4.367-17.152 1.003-1.468 2.012-2.485 2.805-3.153-2.258 4.825-7.571 18.554-1.158 29.791l-4.307 1.078z" fill="#ffeea3"></path><path d="M36.066 9.942a47.597 47.597 0 00-2.065 6.47c-1.875 7.81-1.263 14.892 1.762 20.582l-3.208.803C32.052 35.978 31 31.712 31 27.835c0-9.478 2.717-14.941 5.066-17.893M39 6s-9 4.281-9 21.835C30 33.129 31.865 39 31.865 39l5.421-1.357C28.835 23.839 39 6 39 6z" fill="#ba9b48"></path><path d="M22.5 38.5c.059-20.545 3.719-30.399 5.675-34.202C27.611 8.859 26.52 20.042 26.5 38.5h-4z" fill="#ffeea3"></path><path d="M27.319 7.489c-.57 5.693-1.287 15.751-1.318 30.511h-2.998c.092-16.119 2.418-25.512 4.316-30.511M29 2s-7 8.066-7 37h5c0-25.393 2-37 2-37z" fill="#ba9b48"></path><path d="M9.5 38.5C9.471 19.864 7.849 9.894 6.991 5.921c2.2 3.152 6.441 11.904 6.508 32.579H9.5z" fill="#ffeea3"></path><path d="M8.023 8.682c2.156 4.361 4.866 13.06 4.974 29.318H9.998C9.952 23.098 8.883 13.783 8.023 8.682M6 4s3 9.607 3 35h5C14 10.066 6 4 6 4z" fill="#ba9b48"></path><path d="M3.486 37.321C9.888 26.102 4.604 12.4 2.339 7.553 4.846 9.698 9.5 15.361 9.5 27.835c0 4.324-1.282 9.101-1.707 10.564l-4.307-1.078z" fill="#ffeea3"></path><path d="M3.903 9.866c.284.351.572.738.86 1.164C6.696 13.886 9 19.12 9 27.835c0 3.878-1.052 8.143-1.556 9.961l-3.208-.803c3.025-5.689 3.637-12.771 1.762-20.582a47.512 47.512 0 00-2.095-6.545M1 6s10.165 17.839 1.714 31.643L8.135 39S10 33.129 10 27.835C10 10.281 1 6 1 6z" fill="#ba9b48"></path><g><path d="M13.5 38.5c-.019-18.458-1.11-29.641-1.675-34.202C13.781 8.101 17.44 17.955 17.5 38.5h-4z" fill="#ffeea3"></path><path d="M12.673 7.406c1.898 4.955 4.232 14.331 4.324 30.594h-2.998c-.031-14.831-.755-24.916-1.326-30.594M11 2s2 11.607 2 37h5c0-28.934-7-37-7-37z" fill="#ba9b48"></path></g><g><path d="M17.5 38.5c.025-20.627 1.603-31.053 2.45-35.17.822 4.604 2.52 16.372 2.549 35.17H17.5z" fill="#ffeea3"></path><path d="M19.926 6.287c.857 5.735 2.024 16.33 2.072 31.713h-3.997c.041-16.576 1.09-26.453 1.925-31.713M20 1s-3 9.066-3 38h6c0-25.393-3-38-3-38z" fill="#ba9b48"></path></g><g><path fill="none" stroke="#967a44" stroke-linecap="round" stroke-miterlimit="10" d="M34 23.5H6"></path></g><g><path fill="none" stroke="#967a44" stroke-linecap="round" stroke-miterlimit="10" d="M34 25.5H6"></path></g><g><path fill="none" stroke="#967a44" stroke-linecap="round" stroke-miterlimit="10" d="M34 27.5H6"></path></g></svg>