<svg viewBox="0 0 40 40" xmlns="http://www.w3.org/2000/svg"><path d="M4 38.5A2.503 2.503 0 011.5 36v-8L5.494 3.411A2.227 2.227 0 017.687 1.5h24.626c1.095 0 2.037.817 2.192 1.901l4.001 24.679L38.5 36c0 1.378-1.122 2.5-2.5 2.5H4z" fill="#b0c1d4"></path><path d="M32.313 2c.848 0 1.577.633 1.7 1.49L38 28.081V36c0 1.103-.897 2-2 2H4c-1.103 0-2-.897-2-2v-7.919L5.99 3.472A1.723 1.723 0 017.687 2h24.626m0-1H7.687A2.714 2.714 0 005 3.33L1 28v8a3 3 0 003 3h32a3 3 0 003-3v-8L35 3.33A2.714 2.714 0 0032.313 1z" fill="#66798f"></path><path d="M7.687 2c-.848 0-1.577.633-1.697 1.472L2.013 28h35.974L34.013 3.49a1.728 1.728 0 00-1.7-1.49H7.687z" fill="#e1ebf2"></path><path d="M33 31a2 2 0 10-.001 3.999A2 2 0 0033 31z" fill="#fff"></path><path d="M20 22.5c-6.341 0-11.5-3.364-11.5-7.5S13.659 7.5 20 7.5s11.5 3.364 11.5 7.5-5.159 7.5-11.5 7.5z" fill="#b0c1d4"></path><path d="M20 8c6.065 0 11 3.14 11 7s-4.935 7-11 7-11-3.14-11-7 4.935-7 11-7m0-1c-6.627 0-12 3.582-12 8s5.373 8 12 8 12-3.582 12-8-5.373-8-12-8z" fill="#66798f"></path><ellipse cx="20" cy="15" rx="3" ry="1" fill="#66798f"/></svg>