<svg viewBox="0 0 40 40" xmlns="http://www.w3.org/2000/svg"><path d="M8 29.5a2 2 0 01-1.74-1l-2.77-4H3A2.5 2.5 0 01.5 22v-6A2.5 2.5 0 013 13.5h33a2.5 2.5 0 012.5 2.5v6a2.5 2.5 0 01-2.5 2.5h-.49l-2.75 3.94A2.05 2.05 0 0131 29.5z" fill="#b0c1d4"></path><path d="M36 14a2 2 0 012 2v6a2 2 0 01-2 2h-.75l-.3.43-2.6 3.73A1.53 1.53 0 0131 29H8a1.53 1.53 0 01-1.31-.77l-2.6-3.73-.34-.5H3a2 2 0 01-2-2v-6a2 2 0 012-2h33m0-1H3a3 3 0 00-3 3v6a3 3 0 003 3h.23l2.6 3.73A2.52 2.52 0 008 30h23a2.52 2.52 0 002.17-1.27l2.6-3.73H36a3 3 0 003-3v-6a3 3 0 00-3-3z" fill="#66798f"></path><path fill="#66798f" d="M6.21 22.5L4.5 20.79V19.5h30v1.29l-1.71 1.71H6.21z"></path><path d="M34 20v.59L32.59 22H6.41L5 20.59V20h29m1-1H4v2l2 2h27l2-2v-2z" fill="#36404d"></path><path fill="#66798f" d="M5 15h3v3H5zM10 15h3v3h-3zM15 15h3v3h-3zM21 15h3v3h-3zM26 15h3v3h-3zM31 15h3v3h-3zM8 25h3v3H8zM13 25h3v3h-3zM18 25h3v3h-3zM23 25h3v3h-3z"></path><path fill="#ffeea3" d="M8 22h3v1H8zM13 22h3v1h-3zM18 22h3v1h-3zM23 22h3v1h-3zM28 22h3v1h-3z"></path><path fill="#66798f" d="M28 25h3v3h-3z"></path></svg>