<svg viewBox="0 0 40 40" xmlns="http://www.w3.org/2000/svg"><path fill="#b0c1d4" d="M16.5 26.5h7v7h-7z"></path><path d="M23 27v6h-6v-6h6m1-1h-8v8h8v-8z" fill="#66798f"></path><path fill="#dbf2ff" d="M1.5 6.5h37v23h-37z"></path><path d="M38 7v22H2V7h36m1-1H1v24h38V6z" fill="#66798f"></path><g><path d="M10.5 35.5V35c0-1.379 1.122-2.5 2.5-2.5h14c1.378 0 2.5 1.121 2.5 2.5v.5h-19z" fill="#b0c1d4"></path><path d="M27 33c1.103 0 2 .897 2 2H11c0-1.103.897-2 2-2h14m0-1H13a3 3 0 00-3 3v1h20v-1a3 3 0 00-3-3z" fill="#66798f"></path></g><g fill="#4e7ab5"><path d="M17.58 14.099l-.435 2.702H14.16l.458-2.702H12.33L11 21.901h2.288l.545-3.182h2.985l-.543 3.182h2.265l1.331-7.802zM26.001 14.099h-4.357l-.306 1.809h4.292c.785 0 1.112.218.939 1.22l-.263 1.634c-.152.828-.545 1.329-1.394 1.329H22.93l.545-3.291h-2.288l-.852 5.101h4.64c2.374 0 3.313-1.002 3.661-3.137l.282-1.634c.375-2.202-.542-3.031-2.917-3.031z"></path></g></svg>