<svg viewBox="0 0 40 40" xmlns="http://www.w3.org/2000/svg"><path fill="#66798f" d="M15 9v9H7V9H2v22h5v-8h8v8h5V9zM23.825 30.383v-4.265c1.489 1.086 3.226 1.628 5.211 1.628 1.251 0 2.226-.269 2.923-.806.698-.538 1.047-1.287 1.047-2.249 0-.993-.432-1.758-1.295-2.295-.863-.538-2.05-.806-3.559-.806h-2.063v-3.753h1.908c2.895 0 4.343-.962 4.343-2.885 0-1.809-1.111-2.714-3.334-2.714-1.489 0-2.936.481-4.343 1.442V9.679c1.56-.786 3.38-1.179 5.458-1.179 2.275 0 4.045.512 5.312 1.535 1.267 1.024 1.9 2.352 1.9 3.986 0 2.905-1.418 4.845-3.695 5.459v.078c3.454.934 4.362 3.82 4.362 5.196 0 2.078-.76 3.722-2.28 4.932-1.52 1.21-3.619 1.815-6.297 1.815-2.295-.001-4.161-.373-5.598-1.118z"></path></svg>