<svg viewBox="0 0 40 40" xmlns="http://www.w3.org/2000/svg"><path fill="#ffeea3" d="M.5 21.5h39v11H.5z"></path><path d="M39 22v10H1V22h38m1-1H0v12h40V21z" fill="#ba9b48"></path><path fill="#ffeea3" d="M0 22h40v11H0z"></path><path d="M20.134 29.5a2.369 2.369 0 01-1.805-.833L12.231 21.5H.5V20c0-2.287.969-4.224 2.801-5.6l9.006-7.005C13.243 6.69 15.107 5.5 17 5.5c2.35 0 4.13.891 5.604 2.805l5.221 7.309 7.046-2.923c.313-.126.646-.191.985-.191 1.093 0 2.058.657 2.459 1.674a2.621 2.621 0 01-.042 2.04 2.62 2.62 0 01-1.481 1.402L28.6 21.264a3.924 3.924 0 01-1.345.236c-.267 0-.539-.027-.81-.081-.749-.15-1.471-.563-2.088-1.194l-6.307-5.859-3.805 2.537 7.703 8.713c.413.49.606 1.122.537 1.771a2.349 2.349 0 01-.91 1.623c-.417.32-.915.49-1.441.49z" fill="#8bb7f0"></path><path d="M17 6c2.182 0 3.837.829 5.186 2.581l5 7 .462.647.735-.305 6.67-2.767c.258-.103.528-.156.802-.156.886 0 1.669.533 1.995 1.357.212.538.2 1.125-.034 1.654a2.126 2.126 0 01-1.201 1.137l-.027.01-.026.012-8.135 3.623a3.4 3.4 0 01-1.171.207c-.235 0-.474-.024-.713-.072-.649-.129-1.281-.494-1.863-1.088l-6-5.574-.578-.537-.657.438-3 2-.954.636.759.859 7.309 8.266c.332.393.484.892.429 1.404a1.85 1.85 0 01-.718 1.28 1.865 1.865 0 01-2.56-.27l-5.948-6.99-.3-.352H1v-1c0-2.154.875-3.903 2.614-5.211l8.987-6.99C13.494 7.127 15.253 6 17 6m0-1c-1.765 0-3.588.937-5 2l-9 7c-1.968 1.48-3 3.538-3 6v2h12l5.948 6.99a2.863 2.863 0 003.933.415 2.868 2.868 0 00.444-4.121L15 17l3-2 6 5.574c.641.656 1.448 1.156 2.348 1.336.304.06.608.09.908.09.53 0 1.049-.094 1.547-.279l8.166-3.637a3.143 3.143 0 10-2.29-5.854L28 15l-5-7c-1.546-2.008-3.464-3-6-3z" fill="#4e7ab5"></path><path fill="#4e7ab5" d="M9 17h5.333l1.334-1H9z"></path></svg>