<svg viewBox="0 0 40 40" xmlns="http://www.w3.org/2000/svg"><path d="M19.818 36.5H28.5a7 7 0 007-7v-6.636" fill="none" stroke="#66798f" stroke-miterlimit="10"></path><path d="M34 27.5c-.827 0-1.5-.673-1.5-1.5v-4c0-.827.673-1.5 1.5-1.5h2c.827 0 1.5.673 1.5 1.5v4c0 .827-.673 1.5-1.5 1.5h-2z" fill="#b0c1d4"></path><path d="M36 21c.551 0 1 .449 1 1v4c0 .551-.449 1-1 1h-2c-.551 0-1-.449-1-1v-4c0-.551.449-1 1-1h2m0-1h-2a2 2 0 00-2 2v4a2 2 0 002 2h2a2 2 0 002-2v-4a2 2 0 00-2-2z" fill="#66798f"></path><path d="M35.5 23v-6c0-8.56-6.94-15.5-15.5-15.5S4.5 8.44 4.5 17v6" fill="none" stroke="#66798f" stroke-miterlimit="10"></path><path d="M32.593 30.5a2.095 2.095 0 01-2.093-2.092v-8.815c0-1.154.938-2.092 2.093-2.092h.814c1.154 0 2.093.938 2.093 2.092v8.815a2.094 2.094 0 01-2.093 2.092h-.814z" fill="#8bb7f0"></path><path d="M33.408 18c.878 0 1.592.714 1.592 1.592v8.815c0 .879-.714 1.593-1.592 1.593h-.815A1.594 1.594 0 0131 28.408v-8.815c0-.879.714-1.593 1.592-1.593h.816m0-1h-.815A2.593 2.593 0 0030 19.592v8.815A2.593 2.593 0 0032.592 31h.815A2.593 2.593 0 0036 28.408v-8.815A2.593 2.593 0 0033.408 17z" fill="#4e7ab5"></path><path d="M4 27.5c-.827 0-1.5-.673-1.5-1.5v-4c0-.827.673-1.5 1.5-1.5h2c.827 0 1.5.673 1.5 1.5v4c0 .827-.673 1.5-1.5 1.5H4z" fill="#b0c1d4"></path><path d="M6 21c.551 0 1 .449 1 1v4c0 .551-.449 1-1 1H4c-.551 0-1-.449-1-1v-4c0-.551.449-1 1-1h2m0-1H4a2 2 0 00-2 2v4a2 2 0 002 2h2a2 2 0 002-2v-4a2 2 0 00-2-2z" fill="#66798f"></path><g><path d="M6.593 30.5A2.095 2.095 0 014.5 28.408v-8.815c0-1.154.938-2.092 2.093-2.092h.814c1.154 0 2.093.938 2.093 2.092v8.815A2.094 2.094 0 017.407 30.5h-.814z" fill="#8bb7f0"></path><path d="M7.408 18C8.286 18 9 18.714 9 19.592v8.815C9 29.286 8.286 30 7.408 30h-.816A1.594 1.594 0 015 28.408v-8.815C5 18.714 5.714 18 6.592 18h.816m0-1h-.816A2.593 2.593 0 004 19.592v8.815A2.593 2.593 0 006.592 31h.815A2.593 2.593 0 0010 28.408v-8.815A2.593 2.593 0 007.408 17z" fill="#4e7ab5"></path></g><g><path d="M19.5 38.5c-1.103 0-2-.897-2-2s.897-2 2-2h1c1.103 0 2 .897 2 2s-.897 2-2 2h-1z" fill="#b0c1d4"></path><path d="M20.5 35c.827 0 1.5.673 1.5 1.5s-.673 1.5-1.5 1.5h-1c-.827 0-1.5-.673-1.5-1.5s.673-1.5 1.5-1.5h1m0-1h-1a2.5 2.5 0 100 5h1a2.5 2.5 0 100-5z" fill="#66798f"></path></g></svg>