<svg viewBox="0 0 40 40" xmlns="http://www.w3.org/2000/svg"><path d="M14.729 38.5c-4.303 0-6.229-2.531-6.229-5.039 0-1.082-.88-1.961-1.962-1.961-.566 0-2.038-1.707-2.038-9.5 0-3.877.7-8.5 4.038-8.5 1.082 0 1.962-.88 1.962-1.961C10.5 6.003 15.636 1.5 21.948 1.5 27.01 1.5 35.5 3.081 35.5 13.667c0 6.732-2.927 9.097-6.024 11.601-2.011 1.625-4.09 3.305-5.538 6.201-2.334 4.665-5.432 7.031-9.209 7.031z" fill="#ffeea3"></path><path d="M21.949 2C27.903 2 35 4.024 35 13.667c0 6.494-2.706 8.68-5.839 11.212-2.052 1.658-4.174 3.373-5.671 6.367C21.249 35.727 18.301 38 14.729 38 10.5 38 9 35.555 9 33.462c0-1.355-1.1-2.457-2.423-2.457h-.008C6.553 30.998 5 30.033 5 22c0-3.65.614-8 3.538-8A2.464 2.464 0 0011 11.538C11 6.279 15.912 2 21.949 2m0-1C15.505 1 10 5.57 10 11.538 10 12.346 9.346 13 8.538 13 6.229 13 4 14.941 4 22c0 7.074 1.219 10 2.538 10C7.346 32 8 32.654 8 33.462 8 36.034 9.894 39 14.729 39c5.362 0 8.296-4.588 9.656-7.308C28.038 24.385 36 24.966 36 13.667 36 4.563 29.865 1 21.949 1z" fill="#ba9b48"></path><g><path d="M15.615 29.5c-1.922 0-3.115-.728-3.115-1.9 0-1.095.944-1.633 1.944-2.203.963-.549 2.056-1.172 2.056-2.397 0-.923-.723-1.506-1.421-2.068-.812-.655-1.579-1.273-1.579-2.432 0-1.355.483-2.004 1.151-2.902.585-.786 1.313-1.765 1.827-3.453C17.754 7.953 21.464 7.5 23 7.5c3.026 0 6.5.922 6.5 8.115l.001.173c0 .13.001.292-.005.435a10.114 10.114 0 01-.076-.746c-.136-1.739-.391-4.978-5.035-4.978-2.922 0-4.885 2.585-4.885 5 0 1.729.262 3.201.516 4.625.249 1.399.484 2.722.484 4.259 0 4.618-3.416 5.117-4.885 5.117z" fill="#e8d47b"></path><path d="M23 8c2.148 0 4.33.474 5.371 3.281-.805-.752-2.049-1.281-3.986-1.281C21.164 10 19 12.844 19 15.5c0 1.773.266 3.268.523 4.713.245 1.377.477 2.678.477 4.172C20 28.4 17.253 29 15.615 29 14.351 29 13 28.632 13 27.6c0-.725.542-1.113 1.691-1.768C15.72 25.245 17 24.516 17 23c0-1.163-.854-1.851-1.607-2.458C14.526 19.844 14 19.358 14 18.5c0-1.189.396-1.722 1.052-2.603.608-.817 1.366-1.834 1.904-3.606C18.135 8.418 21.575 8 23 8m0-1c-2.456 0-5.8 1.055-7 5-1.059 3.483-3 3.68-3 6.5 0 2.5 3 2.947 3 4.5 0 2-4 2-4 4.6 0 1.4 1.286 2.4 3.615 2.4C17.822 30 21 28.952 21 24.385c0-3.197-1-5.55-1-8.885 0-2.192 1.781-4.5 4.385-4.5 6.19 0 3.691 6 5.115 6 .552 0 .5-.667.5-1.385C30 8.472 26.616 7 23 7z" fill="#ba9b48"></path></g></svg>