<svg viewBox="0 0 40 40" xmlns="http://www.w3.org/2000/svg"><path d="M19.5 22.227c0 2.051 1 8.505 1 11.5 0 1.967-1 4.773-1 4.773" fill="none" stroke="#788b9c" stroke-linecap="round" stroke-linejoin="round" stroke-miterlimit="10"></path><path d="M20 25.7c-4.163 0-13.5-10.938-13.5-15.814 0-4.702 3.545-8.386 8.069-8.386 1.87 0 3.642.617 5.121 1.784l.31.244.31-.244A8.196 8.196 0 0125.431 1.5c4.524 0 8.069 3.684 8.069 8.386C33.5 14.763 24.163 25.7 20 25.7z" fill="#f78f8f"></path><path d="M25.43 2C29.675 2 33 5.464 33 9.886c0 4.58-9.112 15.314-13 15.314S7 14.466 7 9.886C7 5.464 10.325 2 14.57 2c1.756 0 3.42.58 4.811 1.677l.619.488.619-.488A7.702 7.702 0 0125.43 2m0-1c-2.05 0-3.932.71-5.43 1.891A8.738 8.738 0 0014.57 1C9.696 1 6 4.978 6 9.886 6 14.793 15.386 26.2 20 26.2S34 14.793 34 9.886C34 4.978 30.304 1 25.43 1z" fill="#c74343"></path><g><path fill="#f78f8f" d="M17.672 28.5l.9-3h2.856l.9 3z"></path><path d="M21.056 26l.6 2h-3.312l.6-2h2.112m.744-1h-3.6L17 29h6l-1.2-4z" fill="#c74343"></path></g></svg>