<svg viewBox="0 0 40 40" xmlns="http://www.w3.org/2000/svg"><path d="M19.523 35.377C17.19 33.485 1.5 20.478 1.5 13.043 1.5 7.781 5.744 3.5 10.961 3.5c3.346 0 6.377 1.737 8.109 4.646l.43.722.43-.722C21.661 5.237 24.692 3.5 28.039 3.5c5.217 0 9.461 4.281 9.461 9.543 0 9.426-15.596 20.672-17.977 22.334z" fill="#f78f8f"></path><path d="M28.039 4C32.98 4 37 8.057 37 13.043c0 8.846-14.325 19.488-17.458 21.709C14.149 30.385 2 19.244 2 13.043 2 8.057 6.02 4 10.961 4 14.13 4 17 5.645 18.641 8.402l.859 1.444.859-1.444C22 5.645 24.87 4 28.039 4m0-1c-3.63 0-6.798 1.964-8.539 4.89C17.759 4.964 14.591 3 10.961 3 5.46 3 1 7.496 1 13.043 1 21.371 19.5 36 19.5 36S38 23.581 38 13.043C38 7.496 33.54 3 28.039 3z" fill="#c74343"></path><circle cx="28.5" cy="18.5" r="2.5" fill="#fff"></circle><path d="M5.293 18l1.854-1.854a.501.501 0 01.818.168l1.407 3.518 2.641-11.445c.054-.231.284-.373.5-.388a.5.5 0 01.479.413l2.676 15.162 3.362-9.246A.536.536 0 0119.5 14a.5.5 0 01.468.325l2.64 7.052 1.968-3.143A.5.5 0 0125 18h4v1h-3.723l-2.359 3.766a.5.5 0 01-.892-.09l-2.519-6.731-3.537 9.727a.5.5 0 01-.47.328c-.014 0-.029 0-.043-.002a.5.5 0 01-.449-.411l-2.573-14.58-2.448 10.605a.499.499 0 01-.952.073L7.317 17.39l-1.464 1.464A.5.5 0 015.5 19" fill="#fff"></path><path d="M24.576 18.234l-1.968 3.143-2.64-7.052A.5.5 0 0019.5 14a.535.535 0 00-.47.329l-3.362 9.246-2.676-15.162A.5.5 0 0012.513 8c-.216.015-.446.156-.5.388L9.372 19.833l-1.407-3.518a.5.5 0 00-.818-.168L5.293 18H3.724c.194.33.399.663.619 1H5.5c.133 0 .26-.053.354-.146l1.464-1.464 1.718 4.296a.501.501 0 00.952-.073l2.447-10.605 2.573 14.58a.498.498 0 00.962.083l3.537-9.727 2.519 6.731a.5.5 0 00.892.09L25.277 19H29v-1h-4a.5.5 0 00-.424.234z" fill="#fff"></path><g><path d="M28.039 4C32.98 4 37 8.057 37 13.043c0 8.846-14.325 19.488-17.458 21.709C14.149 30.385 2 19.244 2 13.043 2 8.057 6.02 4 10.961 4 14.13 4 17 5.645 18.641 8.402l.859 1.444.859-1.444C22 5.645 24.87 4 28.039 4m0-1c-3.63 0-6.798 1.964-8.539 4.89C17.759 4.964 14.591 3 10.961 3 5.46 3 1 7.496 1 13.043 1 21.371 19.5 36 19.5 36S38 23.581 38 13.043C38 7.496 33.54 3 28.039 3z" fill="#c74343"></path></g></svg>