<svg viewBox="0 0 40 40" xmlns="http://www.w3.org/2000/svg"><path d="M30.5 25.5v-9c0-5.514-4.486-10-10-10s-10 4.486-10 10v2h-5v-2c0-8.271 6.729-15 15-15s15 6.729 15 15v9h-5z" fill="#fff0f0"></path><path d="M20.5 2C28.495 2 35 8.505 35 16.5V25h-4v-8.5C31 10.71 26.29 6 20.5 6S10 10.71 10 16.5V18H6v-1.5C6 8.505 12.505 2 20.5 2m0-1C11.975 1 5 7.975 5 16.5V19h6v-2.5c0-5.238 4.262-9.5 9.5-9.5s9.5 4.262 9.5 9.5V26h6v-9.5C36 7.975 29.025 1 20.5 1z" fill="#c74343"></path><path d="M31 32.5a.5.5 0 01-.5-.5v-8a.5.5 0 01.5-.5h4a.5.5 0 01.5.5v8a.5.5 0 01-.5.5h-4z" fill="#ffadad"></path><path d="M35 24v8h-4v-8h4m0-1h-4c-.55 0-1 .45-1 1v8c0 .55.45 1 1 1h4c.55 0 1-.45 1-1v-8c0-.55-.45-1-1-1z" fill="#c74343"></path><path d="M3.385 17.5c-.17 0-.34-.022-.505-.067a1.865 1.865 0 01-1.145-.878 1.778 1.778 0 01-.168-1.368c1.086-3.839 2.371-5.699 2.514-5.899.352-.494.93-.788 1.546-.788.389 0 .762.115 1.081.333.411.28.685.698.772 1.177.086.473-.021.952-.299 1.35-.121.184-1.126 1.76-1.983 4.795-.222.792-.969 1.345-1.813 1.345z" fill="#f78f8f"></path><path d="M5.628 9c.287 0 .563.085.799.246.299.204.498.508.561.854.062.34-.015.686-.233.997-.189.287-1.176 1.871-2.038 4.921-.163.579-.711.982-1.332.982-.126 0-.252-.017-.375-.05a1.364 1.364 0 01-.84-.643 1.274 1.274 0 01-.121-.984c1.078-3.812 2.385-5.668 2.441-5.746A1.393 1.393 0 015.628 9m0-1a2.39 2.39 0 00-1.953.996c-.149.208-1.483 2.143-2.588 6.055-.349 1.24.394 2.522 1.663 2.864.211.058.424.085.635.085 1.044 0 2.004-.677 2.295-1.709.867-3.069 1.866-4.575 1.911-4.643a2.294 2.294 0 00-.6-3.227A2.407 2.407 0 005.628 8z" fill="#c74343"></path><g><path d="M4.154 32.5a1.625 1.625 0 01-1.509-1.006c-.776-1.961-1.126-6.122-1.141-6.298a1.54 1.54 0 01.363-1.125 1.62 1.62 0 011.116-.566l.121-.005c.844 0 1.557.633 1.624 1.441.091 1.082.436 4.165.935 5.427.152.384.145.803-.022 1.181-.172.39-.491.689-.899.844-.19.071-.387.107-.588.107z" fill="#f78f8f"></path><path d="M3.104 24c.585 0 1.08.432 1.126.983.093 1.102.447 4.251.968 5.57a1.02 1.02 0 01-.015.793 1.09 1.09 0 01-.619.579c-.133.05-.27.075-.41.075a1.12 1.12 0 01-1.043-.691c-.749-1.89-1.093-5.982-1.107-6.156a1.03 1.03 0 01.246-.758A1.12 1.12 0 013.104 24m0-1c-.053 0-.106.002-.159.006-1.166.094-2.032 1.092-1.937 2.23.037.451.391 4.465 1.174 6.441A2.111 2.111 0 004.154 33c.255 0 .513-.045.763-.14 1.091-.413 1.633-1.611 1.21-2.676-.423-1.071-.777-3.81-.901-5.285C5.135 23.814 4.183 23 3.104 23z" fill="#c74343"></path></g><g><circle cx="33" cy="33" r="5.5" fill="#e8d47b"></circle><path d="M33 28c2.757 0 5 2.243 5 5s-2.243 5-5 5-5-2.243-5-5 2.243-5 5-5m0-1a6 6 0 100 12 6 6 0 000-12z" fill="#ba9b48"></path></g><g><circle cx="33" cy="33" r="2.5" fill="#ffeea3"></circle><path d="M33 31c1.103 0 2 .897 2 2s-.897 2-2 2-2-.897-2-2 .897-2 2-2m0-1a3 3 0 100 6 3 3 0 000-6z" fill="#ba9b48"></path></g><g><path d="M12.812 38.5c-4.71 0-5.666-2.706-5.675-2.733-.13-.272-10.179-20.95 3.904-30.899a.933.933 0 01.554-.175c.659 0 1.577.624 2.339 1.589.651.828.918 1.55.921 1.861-.353.449-1.644 2.148-2.497 3.999-4.777 11.31.83 16.625 4.925 20.506.313.296.615.583.904.864.545.53 1.698 2.393 1.188 3.648-.449 1.107-2.141 1.34-3.479 1.34h-3.084z" fill="#ffadad"></path><path d="M11.595 5.193c.306 0 .87.245 1.538.932.71.731 1.114 1.527 1.206 1.867-.479.625-1.643 2.224-2.448 3.971-4.906 11.615 1.085 17.292 5.049 21.049.31.294.612.58.899.859.574.559 1.44 2.202 1.074 3.102-.364.894-2.047 1.027-3.018 1.027h-3.084c-4.266 0-5.17-2.308-5.201-2.391l-.022-.066-.03-.063c-.102-.204-9.956-20.505 3.772-30.203a.425.425 0 01.265-.084m0-1c-.295 0-.579.082-.842.267-14.606 10.318-4.091 31.465-4.091 31.465S7.687 39 12.812 39h3.084c6.355 0 3.711-4.804 2.64-5.846-3.997-3.89-10.723-8.966-5.724-20.802.96-2.081 2.52-4.006 2.52-4.006.259-1.08-1.929-4.153-3.737-4.153z" fill="#c74343"></path></g></svg>