<svg viewBox="0 0 40 40" xmlns="http://www.w3.org/2000/svg"><path fill="#fff0f0" d="M2.5 38.5V10.267l17.497-6.731L37.5 10.267V38.5z"></path><path d="M19.997 4.071L37 10.61V38H3V10.61l16.997-6.539m0-1.071L2 9.923V39h36V9.923L19.997 3z" fill="#c74343"></path><path fill="#f78f8f" d="M19.997 5.457L1.5 13.247V9.332l18.497-7.789L38.5 9.332v3.915z"></path><path d="M19.997 2.085L38 9.664v2.83L20.385 5.078l-.388-.163-.388.163L2 12.494v-2.83l17.997-7.579m0-1.085L1 9v5l18.997-8L39 14V9L19.997 1z" fill="#c74343"></path><path d="M18.5 35c0-2.209 3-5.185 3-7.333s-3-5.071-3-7.333 3-5.143 3-7.333M25.5 35c0-2.209 3-5.185 3-7.333s-3-5.071-3-7.333 3-5.143 3-7.333M11.5 35c0-2.209 3-5.185 3-7.333s-3-5.071-3-7.333 3-5.143 3-7.333" fill="none" stroke="#c74343" stroke-miterlimit="10"></path></svg>