<svg viewBox="0 0 40 40" xmlns="http://www.w3.org/2000/svg"><circle cx="34.5" cy="7.5" r="2" fill="#bae0bd"></circle><path d="M34.5 6c.827 0 1.5.673 1.5 1.5S35.327 9 34.5 9 33 8.327 33 7.5 33.673 6 34.5 6m0-1a2.5 2.5 0 100 5 2.5 2.5 0 000-5z" fill="#5e9c76"></path><circle cx="34.5" cy="19.5" r="2" fill="#bae0bd"></circle><path d="M34.5 18c.827 0 1.5.673 1.5 1.5s-.673 1.5-1.5 1.5-1.5-.673-1.5-1.5.673-1.5 1.5-1.5m0-1a2.5 2.5 0 100 5 2.5 2.5 0 000-5z" fill="#5e9c76"></path><circle cx="25.5" cy="7.5" r="2" fill="#bae0bd"></circle><path d="M25.5 6c.827 0 1.5.673 1.5 1.5S26.327 9 25.5 9 24 8.327 24 7.5 24.673 6 25.5 6m0-1a2.5 2.5 0 100 5 2.5 2.5 0 000-5z" fill="#5e9c76"></path><circle cx="6.5" cy="7.5" r="2" fill="#bae0bd"></circle><path d="M6.5 6C7.327 6 8 6.673 8 7.5S7.327 9 6.5 9 5 8.327 5 7.5 5.673 6 6.5 6m0-1a2.5 2.5 0 100 5 2.5 2.5 0 000-5z" fill="#5e9c76"></path><circle cx="6.5" cy="19.5" r="2" fill="#bae0bd"></circle><path d="M6.5 18c.827 0 1.5.673 1.5 1.5S7.327 21 6.5 21 5 20.327 5 19.5 5.673 18 6.5 18m0-1a2.5 2.5 0 100 5 2.5 2.5 0 000-5z" fill="#5e9c76"></path><circle cx="6.5" cy="31.5" r="2" fill="#bae0bd"></circle><path d="M6.5 30c.827 0 1.5.673 1.5 1.5S7.327 33 6.5 33 5 32.327 5 31.5 5.673 30 6.5 30m0-1a2.5 2.5 0 100 5 2.5 2.5 0 000-5z" fill="#5e9c76"></path><circle cx="25.5" cy="31.5" r="2" fill="#bae0bd"></circle><path d="M25.5 30c.827 0 1.5.673 1.5 1.5s-.673 1.5-1.5 1.5-1.5-.673-1.5-1.5.673-1.5 1.5-1.5m0-1a2.5 2.5 0 100 5 2.5 2.5 0 000-5z" fill="#5e9c76"></path><g><circle cx="25" cy="19" r="3.5" fill="#bae0bd"></circle><path d="M25 16c1.654 0 3 1.346 3 3s-1.346 3-3 3-3-1.346-3-3 1.346-3 3-3m0-1c-2.21 0-4 1.79-4 4s1.79 4 4 4 4-1.79 4-4-1.79-4-4-4z" fill="#5e9c76"></path></g><g><circle cx="16" cy="8" r="3.5" fill="#bae0bd"></circle><path d="M16 5c1.654 0 3 1.346 3 3s-1.346 3-3 3-3-1.346-3-3 1.346-3 3-3m0-1c-2.21 0-4 1.79-4 4s1.79 4 4 4 4-1.79 4-4-1.79-4-4-4z" fill="#5e9c76"></path></g><g><circle cx="16" cy="31" r="3.5" fill="#bae0bd"></circle><path d="M16 28c1.654 0 3 1.346 3 3s-1.346 3-3 3-3-1.346-3-3 1.346-3 3-3m0-1c-2.21 0-4 1.79-4 4s1.79 4 4 4 4-1.79 4-4-1.79-4-4-4z" fill="#5e9c76"></path></g><g><circle cx="35" cy="31" r="3.5" fill="#bae0bd"></circle><path d="M35 28c1.654 0 3 1.346 3 3s-1.346 3-3 3-3-1.346-3-3 1.346-3 3-3m0-1c-2.21 0-4 1.79-4 4s1.79 4 4 4 4-1.79 4-4-1.79-4-4-4z" fill="#5e9c76"></path></g><path fill="#66798f" d="M1 1h1v38H1z"></path><path fill="#66798f" d="M39 38v1H1v-1z"></path></svg>