<svg viewBox="0 0 40 40" xmlns="http://www.w3.org/2000/svg"><path d="M28.435 28.5l-.319-2.278-.286-.102a6.447 6.447 0 01-2.046-1.18l-.231-.197-2.131.862-1.565-2.711 1.812-1.413-.055-.299c-.077-.411-.114-.799-.114-1.182s.037-.771.113-1.183l.055-.299-1.812-1.413 1.565-2.711 2.131.862.231-.197a6.458 6.458 0 012.046-1.18l.286-.102.319-2.278h3.13l.319 2.278.286.102a6.447 6.447 0 012.046 1.18l.231.197 2.131-.862 1.565 2.711-1.812 1.413.055.299c.076.412.113.8.113 1.183s-.037.771-.113 1.183l-.055.299 1.812 1.413-1.565 2.711-2.131-.862-.231.197a6.458 6.458 0 01-2.046 1.18l-.286.102-.318 2.277h-3.13zM30 17c-1.654 0-3 1.346-3 3s1.346 3 3 3 3-1.346 3-3-1.346-3-3-3z" fill="#f78f8f"></path><path d="M31.13 12l.217 1.547.084.601.572.203a5.965 5.965 0 011.889 1.089l.462.394.563-.228 1.446-.585 1.13 1.958-1.23.96-.478.373.11.596c.071.383.105.74.105 1.092s-.034.709-.105 1.092l-.11.596.478.373 1.23.96-1.13 1.958-1.446-.585-.563-.228-.462.395a5.965 5.965 0 01-1.889 1.089l-.572.203-.084.601L31.13 28h-2.26l-.217-1.547-.084-.601-.572-.203a5.965 5.965 0 01-1.889-1.089l-.462-.395-.563.228-1.446.585-1.13-1.958 1.23-.96.478-.373-.11-.596C24.034 20.709 24 20.352 24 20s.034-.709.105-1.092l.11-.596-.478-.373-1.23-.96 1.13-1.958 1.446.585.563.228.462-.394a5.965 5.965 0 011.889-1.089l.572-.203.084-.601L28.87 12h2.26M30 23.5c1.93 0 3.5-1.57 3.5-3.5s-1.57-3.5-3.5-3.5-3.5 1.57-3.5 3.5 1.57 3.5 3.5 3.5M32 11h-4l-.337 2.408a6.984 6.984 0 00-2.204 1.271l-2.253-.911-2 3.464 1.915 1.495C23.045 19.14 23 19.565 23 20s.045.86.121 1.273l-1.915 1.495 2 3.464 2.253-.911c.644.55 1.39.982 2.204 1.271L28 29h4l.337-2.408a6.984 6.984 0 002.204-1.271l2.253.911 2-3.464-1.915-1.495c.076-.413.121-.838.121-1.273s-.045-.86-.121-1.273l1.915-1.495-2-3.464-2.253.911a6.996 6.996 0 00-2.204-1.271L32 11zm-2 11.5a2.5 2.5 0 110-5 2.5 2.5 0 010 5z" fill="#c74343"></path><path d="M2.464 38c0-3.614 4.154-8.484 4.154-12s-4.154-8.297-4.154-12S6.618 5.906 6.618 2.321" fill="none" stroke="#c74343" stroke-miterlimit="10"></path><path fill="none" stroke="#c74343" stroke-miterlimit="10" d="M9.409 7.598L6.878 2.297l-5.301 2.53M14.464 38c0-3.614 4.154-8.484 4.154-12s-4.154-8.297-4.154-12 4.154-8.094 4.154-11.679"></path><path fill="none" stroke="#c74343" stroke-miterlimit="10" d="M21.409 7.598l-2.531-5.301-5.301 2.53"></path></svg>