<svg viewBox="0 0 40 40" xmlns="http://www.w3.org/2000/svg"><path fill="#dcd5f2" d="M1.5 6.5h37v3h-37z"></path><path d="M38 7v2H2V7h36m1-1H1v4h38V6z" fill="#8b75a1"></path><path fill="#dcd5f2" d="M1.5 30.5h37v3h-37z"></path><path d="M38 31v2H2v-2h36m1-1H1v4h38v-4z" fill="#8b75a1"></path><path d="M5.31 37.701a5.51 5.51 0 01-1.81-4.078V6.377a5.51 5.51 0 011.81-4.078L6 1.674l.69.625A5.51 5.51 0 018.5 6.377v27.246a5.51 5.51 0 01-1.81 4.078l-.69.625-.69-.625z" fill="#dcd5f2"></path><path d="M6 2.349l.355.321A5.008 5.008 0 018 6.377v27.246c0 1.41-.6 2.762-1.645 3.708l-.355.32-.355-.321A5.008 5.008 0 014 33.623V6.377c0-1.41.6-2.762 1.645-3.708L6 2.349M6 1l-1.025.928A5.997 5.997 0 003 6.377v27.246c0 1.695.717 3.312 1.975 4.449L6 39l1.025-.928A5.997 5.997 0 009 33.623V6.377a5.997 5.997 0 00-1.975-4.449L6 1z" fill="#8b75a1"></path><path d="M6 37.651l-.355-.321A5.008 5.008 0 014 33.623V6.377c0-1.41.6-2.762 1.645-3.708L6 2.349v35.302z" fill="#f0edf7"></path><path d="M12.31 37.701a5.51 5.51 0 01-1.81-4.078V6.377a5.51 5.51 0 011.81-4.078l.69-.625.69.625a5.51 5.51 0 011.81 4.078v27.246a5.51 5.51 0 01-1.81 4.078l-.69.625-.69-.625z" fill="#dcd5f2"></path><path d="M13 2.349l.355.321A5.008 5.008 0 0115 6.377v27.246c0 1.41-.6 2.762-1.645 3.708l-.355.32-.355-.321A5.008 5.008 0 0111 33.623V6.377c0-1.41.6-2.762 1.645-3.708l.355-.32M13 1l-1.025.928A5.997 5.997 0 0010 6.377v27.246c0 1.695.717 3.312 1.975 4.449L13 39l1.025-.928A5.997 5.997 0 0016 33.623V6.377a5.997 5.997 0 00-1.975-4.449L13 1z" fill="#8b75a1"></path><path d="M13 37.651l-.355-.321A5.008 5.008 0 0111 33.623V6.377c0-1.41.6-2.762 1.645-3.708l.355-.32v35.302z" fill="#f0edf7"></path><path d="M19.31 37.701a5.51 5.51 0 01-1.81-4.078V6.377a5.51 5.51 0 011.81-4.078l.69-.625.69.625a5.51 5.51 0 011.81 4.078v27.246a5.51 5.51 0 01-1.81 4.078l-.69.625-.69-.625z" fill="#dcd5f2"></path><path d="M20 2.349l.355.321A5.008 5.008 0 0122 6.377v27.246c0 1.41-.6 2.762-1.645 3.708l-.355.32-.355-.321A5.008 5.008 0 0118 33.623V6.377c0-1.41.6-2.762 1.645-3.708l.355-.32M20 1l-1.025.928A5.997 5.997 0 0017 6.377v27.246c0 1.695.717 3.312 1.975 4.449L20 39l1.025-.928A5.997 5.997 0 0023 33.623V6.377a5.997 5.997 0 00-1.975-4.449L20 1z" fill="#8b75a1"></path><path d="M20 37.651l-.355-.321A5.008 5.008 0 0118 33.623V6.377c0-1.41.6-2.762 1.645-3.708l.355-.32v35.302z" fill="#f0edf7"></path><g><path d="M26.31 37.701a5.51 5.51 0 01-1.81-4.078V6.377a5.51 5.51 0 011.81-4.078l.69-.625.69.625a5.51 5.51 0 011.81 4.078v27.246a5.51 5.51 0 01-1.81 4.078l-.69.625-.69-.625z" fill="#dcd5f2"></path><path d="M27 2.349l.355.321A5.008 5.008 0 0129 6.377v27.246c0 1.41-.6 2.762-1.645 3.708l-.355.32-.355-.321A5.008 5.008 0 0125 33.623V6.377c0-1.41.6-2.762 1.645-3.708l.355-.32M27 1l-1.025.928A5.997 5.997 0 0024 6.377v27.246c0 1.695.717 3.312 1.975 4.449L27 39l1.025-.928A5.997 5.997 0 0030 33.623V6.377a5.997 5.997 0 00-1.975-4.449L27 1z" fill="#8b75a1"></path></g><path d="M27 37.651l-.355-.321A5.008 5.008 0 0125 33.623V6.377c0-1.41.6-2.762 1.645-3.708l.355-.32v35.302z" fill="#f0edf7"></path><g><path d="M33.31 37.701a5.51 5.51 0 01-1.81-4.078V6.377a5.51 5.51 0 011.81-4.078l.69-.625.69.625a5.51 5.51 0 011.81 4.078v27.246a5.51 5.51 0 01-1.81 4.078l-.69.625-.69-.625z" fill="#dcd5f2"></path><path d="M34 2.349l.355.321A5.008 5.008 0 0136 6.377v27.246c0 1.41-.6 2.762-1.645 3.708l-.355.32-.355-.321A5.008 5.008 0 0132 33.623V6.377c0-1.41.6-2.762 1.645-3.708l.355-.32M34 1l-1.025.928A5.997 5.997 0 0031 6.377v27.246c0 1.695.717 3.312 1.975 4.449L34 39l1.025-.928A5.997 5.997 0 0037 33.623V6.377a5.997 5.997 0 00-1.975-4.449L34 1z" fill="#8b75a1"></path></g><path d="M34 37.651l-.355-.321A5.008 5.008 0 0132 33.623V6.377c0-1.41.6-2.762 1.645-3.708l.355-.32v35.302z" fill="#f0edf7"></path></svg>