<svg viewBox="0 0 40 40" xmlns="http://www.w3.org/2000/svg"><path fill="none" stroke="#36404d" stroke-miterlimit="10" d="M34 31.5l-4-4M18 31.5l2.667-4"></path><circle cx="4" cy="19" r="3.5" fill="#c8d1db"></circle><path d="M4 16c1.654 0 3 1.346 3 3s-1.346 3-3 3-3-1.346-3-3 1.346-3 3-3m0-1a4 4 0 100 8 4 4 0 000-8z" fill="#66798f"></path><path fill="#36404d" d="M24 8h1v7.667h-1z"></path><path fill="#66798f" d="M9 9h31v1H9z"></path><path d="M37.518 28.216V28c0 2.016-1.549 3.5-3.518 3.5H13" fill="none" stroke="#c74343" stroke-miterlimit="10"></path><path d="M22.781 27.5c-3.121 0-6.281-1.889-6.281-5.5v-.44L3.99 19.963a.9.9 0 01.076-1.797l12.434-.693V17c0-.866 0-3.5 7.5-3.5 5.84 0 12.499 4.528 12.5 8.5 0 5.104-7.271 5.5-9.5 5.5h-4.219z" fill="#f78f8f"></path><path d="M24 14c5.494 0 11.999 4.337 12 8 0 4.639-6.889 5-9 5h-4.219C19.908 27 17 25.283 17 22v-.88l-.873-.111-12.1-1.544a.4.4 0 01.04-.798h.028l.028-.002 11.934-.667.943-.052V17c0-.742 0-3 7-3m0-1c-5.795 0-8 1.499-8 4l-11.934.667a1.4 1.4 0 00-.139 2.793L16 22c0 3.682 3.099 6 6.781 6H27c4.767 0 10-1.429 10-6-.001-4.424-7.123-9-13-9z" fill="#c74343"></path><g><path d="M25.296 24.186c-1.831-.389-3.796-1.578-3.796-3.271v-7.251a19.361 19.361 0 012.5-.163c5.841 0 12.5 4.528 12.5 8.5 0 2.323-1.569 3.546-2.611 4.102l-8.593-1.917z" fill="#c2e8ff"></path><path d="M24 14c5.495 0 12 4.336 12 8 0 1.95-1.258 3.036-2.188 3.572l-8.417-1.877C23.396 23.271 22 22.127 22 20.914v-6.808A19.471 19.471 0 0124 14m0-1c-.995 0-2.148.084-3 .235v7.679c0 1.853 1.913 3.276 4.188 3.759l8.769 1.956C35.718 25.753 37 24.188 37 22c0-4.424-7.123-9-13-9z" fill="#c74343"></path></g><path fill="none" stroke="#c74343" stroke-miterlimit="10" d="M26.5 13.815l.052 10.476"></path></svg>