<svg viewBox="0 0 40 40" xmlns="http://www.w3.org/2000/svg"><path d="M6.286 24.5c-1.3 0-3.786-2.084-3.786-5.351C2.5 17.713 3.644 16.5 5 16.5s2.5 1.213 2.5 2.649c0 5.093-1.011 5.351-1.214 5.351z" fill="#8bb7f0"></path><path d="M5 17c1.084 0 2 .985 2 2.15 0 3.944-.634 4.738-.75 4.849C5.229 23.957 3 22.133 3 19.15 3 17.985 3.916 17 5 17m0-1c-1.629 0-3 1.44-3 3.15C2 22.66 4.657 25 6.286 25 7.914 25 8 20.86 8 19.15S6.629 16 5 16z" fill="#4e7ab5"></path><path d="M33.714 24.5c-.203 0-1.214-.258-1.214-5.351 0-1.437 1.145-2.649 2.5-2.649s2.5 1.213 2.5 2.649c0 3.267-2.486 5.351-3.786 5.351z" fill="#8bb7f0"></path><path d="M35 17c1.084 0 2 .985 2 2.15 0 2.983-2.229 4.807-3.25 4.849-.116-.111-.75-.905-.75-4.849 0-1.165.916-2.15 2-2.15m0-1c-1.629 0-3 1.44-3 3.15S32.086 25 33.714 25C35.343 25 38 22.66 38 19.15c0-1.71-1.371-3.15-3-3.15z" fill="#4e7ab5"></path><path d="M20 38.5c-3.864 0-12.172-6.161-13.38-14.591C5.608 19.413 5.5 14.783 5.5 13 5.5 6.552 11.869 1.5 20 1.5S34.5 6.552 34.5 13c0 2.175-.145 6.479-1.113 10.873C32.172 32.339 23.864 38.5 20 38.5z" fill="#c2e8ff"></path><path d="M20 2c7.85 0 14 4.832 14 11 0 2.155-.143 6.418-1.102 10.766l-.008.036-.005.037C31.713 32.02 23.716 38 20 38S8.287 32.02 7.115 23.839l-.006-.039-.009-.039C6.107 19.352 6 14.767 6 13 6 6.832 12.15 2 20 2m0-1C11.75 1 5 6.214 5 13c0 2.443.187 6.819 1.125 10.981C7.344 32.486 15.687 39 20 39c4.312 0 12.656-6.514 13.875-15.019C34.812 19.729 35 15.443 35 13c0-6.786-6.75-12-15-12z" fill="#8b75a1"></path><path d="M25 19.5c-1.385 0-2.688-.983-3.288-1.513C22.277 17.46 23.51 16.5 25 16.5s2.723.96 3.287 1.487c-.6.529-1.902 1.513-3.287 1.513z" fill="#4b6477"></path><path d="M25 17c1.021 0 1.919.523 2.509.979C26.847 18.473 25.909 19 25 19c-.909 0-1.848-.527-2.509-1.021.59-.456 1.488-.979 2.509-.979m0-1c-2.311 0-4 2-4 2s1.867 2 4 2 4-2 4-2-1.689-2-4-2z" fill="#36404d"></path><path d="M15 19.5c-1.577 0-2.787-.98-3.316-1.499.532-.519 1.747-1.501 3.316-1.501 1.578 0 2.787.98 3.316 1.499-.531.518-1.746 1.501-3.316 1.501z" fill="#4b6477"></path><path d="M15 17c1.086 0 1.991.542 2.562 1-.572.458-1.478 1-2.562 1-1.086 0-1.991-.542-2.562-1 .572-.458 1.478-1 2.562-1m0-1c-2.4 0-4 2-4 2s1.6 2 4 2 4-2 4-2-1.6-2-4-2z" fill="#36404d"></path><path fill="#8b75a1" d="M35 13H5.143L6 12h28zM33 7H7l1-1h24zM6 17h4v1H6zM30 17h4v1h-4zM6 22h28v1H6zM8 28h24v1H8zM27 35H13l-1-1h16z"></path><path fill="#8b75a1" d="M23 2h1v11h-1zM17 22h-1v15l1 1zM30 5h1v26h-1zM24 22h-1v16l1-1zM16 2h1v11h-1zM9 5h1v26H9z"></path><circle cx="16.5" cy="6.5" r=".5" fill="#fff"></circle><circle cx="23.5" cy="6.5" r=".5" fill="#fff"></circle><circle cx="23.5" cy="12.5" r=".5" fill="#fff"></circle><circle cx="16.5" cy="12.5" r=".5" fill="#fff"></circle><circle cx="9.5" cy="6.5" r=".5" fill="#fff"></circle><circle cx="9.5" cy="12.5" r=".5" fill="#fff"></circle><circle cx="30.5" cy="6.5" r=".5" fill="#fff"></circle><circle cx="30.5" cy="12.5" r=".5" fill="#fff"></circle><circle cx="30.5" cy="17.5" r=".5" fill="#fff"></circle><circle cx="30.5" cy="22.5" r=".5" fill="#fff"></circle><circle cx="23.5" cy="22.5" r=".5" fill="#fff"></circle><circle cx="23.5" cy="28.5" r=".5" fill="#fff"></circle><circle cx="30.5" cy="28.5" r=".5" fill="#fff"></circle><circle cx="16.5" cy="22.5" r=".5" fill="#fff"></circle><circle cx="16.5" cy="28.5" r=".5" fill="#fff"></circle><circle cx="9.5" cy="17.5" r=".5" fill="#fff"></circle><circle cx="9.5" cy="22.5" r=".5" fill="#fff"></circle><circle cx="9.5" cy="28.5" r=".5" fill="#fff"></circle><circle cx="16.5" cy="34.5" r=".5" fill="#fff"></circle><circle cx="23.5" cy="34.5" r=".5" fill="#fff"></circle></svg>