<svg viewBox="0 0 40 40" xmlns="http://www.w3.org/2000/svg"><path d="M4.52 33c-5.667.026-.004-7.656 0-11.524.009-9.09 6.374-15.49 15.476-15.476 8.943.014 15.469 6.373 15.476 15.476.002 3.812 5.716 11.553.028 11.524-3.957-.02-9.04-1.991-15.5-2-6.572-.009-11.569 1.982-15.48 2z" fill="#ffc596"></path><path d="M36 31c.023-1.403.063-2.476-2-4-2.474-1.827-3.847-3-14.004-3S8.37 25.038 6 27c-1.558 1.289-2.027 2.54-2 4 .019 1.005.633 1.062 3 1 4.329-.114 6.77-1.5 13-1.5s8.797.438 13 1.5c1.334.337 2.988-.257 3-1z" fill="#b3805a"></path><path d="M19.965 6l.029 1c8.518.014 14.471 5.967 14.478 14.477.001 1.449.648 3.189 1.333 5.031.677 1.819 1.603 4.311 1.055 5.101-.225.323-.846.391-1.354.391h-.001c-1.633-.008-3.499-.374-5.66-.798-2.863-.561-6.107-1.197-9.888-1.202-3.815 0-7.058.644-9.919 1.212-2.109.419-3.93.78-5.547.788-.482 0-1.104-.068-1.329-.391-.546-.783.366-3.259 1.032-5.068.651-1.768 1.324-3.596 1.326-5.065C5.529 12.953 11.469 7 19.965 7V6m0 0C10.881 6 4.529 12.396 4.52 21.476 4.516 25.338-1.13 33 4.491 33h.029c3.903-.018 8.886-2 15.438-2h.043c6.46.009 11.543 1.98 15.5 2h.032c5.634 0-.058-7.719-.061-11.524C35.465 12.373 28.939 6.014 19.996 6h-.031z" fill="#a56a44"></path><path d="M12.423 14.57c-.37.904-.15 1.955.978 1.711.856-.19 1.176-1.244 2.106-1.425.846-.16 2.245.616 2.906-.125.82-.935-.286-1.326-.793-1.901-.878-.981-1.451-4.338-3.031-4.248.102-.004-.119 2.564-.26 2.951-.438 1.175-1.424 1.884-1.906 3.037zM23.165 13.488c.895.513 1.257-.163 2.088.543.531.429.734 1.238 1.26 1.715.641.591 1.406 1.029 1.417-.294.004-.428-.468-.642-.537-1.054-.117-.762.071-.743.257-1.326.268-.873.726-1.564-.381-1.865-.941-.258-1.869.574-2.659.918-.394.187-2.642.679-1.445 1.363zM28.265 21.058c-3.023.793.637 1.868 1.434 2.315.503.276.833.788 1.309 1.146 1.073.781 2.079-1.179 2.342-2.043.805-2.636-1.149-1.335-2.631-1.251-.792.055-1.671-.38-2.454-.167zM21.772 18.496c.836.303-.434 2.032-.344 2.669.115.695 1.249 1.321.78 2.093-.402.664-1.558.192-2.125-.063-.697-.337-1.193-.872-2.097-.889-.592-.017-1.398.488-1.758-.1-.208-.351.234-.851.559-1.079.853-.581 1.952-.407 2.753-1.054.653-.534.927-2.05 2.232-1.577zM8.571 22.382c-.028.016-.044.04-.072.055-.815.824-.123 1.864-.694 2.596-1.137 1.47-1.833-2.715-1.746-3.335.201-1.46 1.438-1.549 2.79-1.504.725.028 3.094 0 2.138 1.118-.478.563-1.762.496-2.416 1.07z" fill="#bb9c40"></path><path d="M35 23c-.147-.668.061-3.445 0-4-2.953-1.038-8.152-3-15-3-6.847 0-12.048 1.962-15 3-.062.555.039 1.434.039 2.004 0 .682.063 1.353-.039 1.996 1.978-.812 7.259-3 15-3 7.791 0 13.077 2.209 15 3z" fill="#a56a44"></path></svg>