<svg viewBox="0 0 40 40" xmlns="http://www.w3.org/2000/svg"><path fill="#dbf2ff" d="M2.5 38.5V12.309L20 3.559l17.5 8.75V38.5z"></path><path d="M20 4.118l17 8.5V38H3V12.618l17-8.5M20 3L2 12v27h36V12L20 3z" fill="#7496c4"></path><path fill="#f78f8f" d="M20 5.447L1.5 14.21v-3.894L20 1.553l18.5 8.763v3.894z"></path><path d="M20 2.107l18 8.526v2.787L20.428 5.096 20 4.893l-.428.203L2 13.42v-2.787l18-8.526M20 1L1 10v5l19-9 19 9v-5L20 1z" fill="#c74343"></path><path d="M23 36.5a2.503 2.503 0 01-2.5-2.5v-5.967c1.888 1.501 5 4.108 5 5.967 0 1.378-1.121 2.5-2.5 2.5z" fill="#f78f8f"></path><path d="M21 29.081c1.743 1.442 4 3.526 4 4.919 0 1.103-.897 2-2 2s-2-.897-2-2v-4.919M20 27v7a3 3 0 106 0c0-2.406-4.188-5.562-6-7z" fill="#c74343"></path><path d="M20.5 22.5a2.994 2.994 0 01-2.229-1.02l-.314-.352-.369.292a4.942 4.942 0 01-3.087 1.08c-2.757 0-5-2.243-5-5s2.243-5 5-5c1.178 0 2.326.426 3.232 1.198l.367.313.326-.357A3.459 3.459 0 0121 12.5c1.93 0 3.5 1.57 3.5 3.5v.5h1c1.654 0 3 1.346 3 3s-1.346 3-3 3h-5z" fill="#f78f8f"></path><path d="M21 13c1.654 0 3 1.346 3 3v1h1.5c1.379 0 2.5 1.121 2.5 2.5S26.879 22 25.5 22h-5a2.465 2.465 0 01-1.856-.852l-.627-.705-.74.585A4.44 4.44 0 0114.5 22c-2.481 0-4.5-2.019-4.5-4.5s2.019-4.5 4.5-4.5a4.49 4.49 0 012.908 1.079l.736.627.652-.714A2.958 2.958 0 0121 13m0-1a3.98 3.98 0 00-2.943 1.318A5.471 5.471 0 0014.5 12C11.475 12 9 14.475 9 17.5s2.475 5.5 5.5 5.5a5.46 5.46 0 003.396-1.188A3.483 3.483 0 0020.5 23h5c1.925 0 3.5-1.575 3.5-3.5S27.425 16 25.5 16H25c0-2.2-1.8-4-4-4z" fill="#c74343"></path><g><path fill="#a6714e" d="M23 23l9 2.5-5 2 2 4.5-8-3z"></path></g><g><path d="M12.566 33.5l.056-.455c.275-2.227 1.005-8.142 1.159-8.952.498-2.618 3.172-4.593 6.219-4.593 3.584 0 6.5 2.916 6.5 6.5 0 3.214-2.395 5.98-5.57 6.434l-.43.062V33.5h-7.934z" fill="#fff1e8"></path><path d="M20 20c3.308 0 6 2.692 6 6 0 2.967-2.21 5.52-5.142 5.939l-.858.123V33h-6.868c.283-2.297.992-8.031 1.14-8.813C14.726 21.8 17.189 20 20 20m0-1c-3.171 0-6.147 2.036-6.71 5-.196 1.031-1.259 9.781-1.29 10h9v-1.071A7.001 7.001 0 0020 19z" fill="#a16a4a"></path></g><circle cx="21.5" cy="24.5" r="1.5" fill="#36404d"></circle><path fill="#fff1e8" d="M20 33v1h-7l.25-1.999z"></path></svg>