<svg viewBox="0 0 40 40" xmlns="http://www.w3.org/2000/svg"><path fill="#c2e8ff" d="M8.5 34.547v-6.501L20 24.853l11.5 3.193v6.501L20 38.472z"></path><path d="M20 25.371l11 3.056v5.763l-11 3.754L9 34.19v-5.763l11-3.056m0-1.038L8 27.667v7.239L20 39l12-4.095v-7.239l-12-3.333z" fill="#7496c4"></path><path d="M31 34.246L20 38v-9.495l11 .306v5.435z" fill="#a4d6f5"></path><path d="M20 31.54L9 28.438l11-3.056 11 3.056-11 3.102z" fill="#d6f0ff"></path><path d="M20 27.5c-5.816 0-10.5-4.845-10.5-8.857 0-3.704 1.844-5.977 3.628-8.174 1.929-2.377 3.921-4.832 3.45-8.947 3.171.256 3.829 2.643 4.413 4.763.436 1.581.886 3.215 2.509 3.215.764 0 1.498-.368 2.067-1.036.461-.541.772-1.234.906-1.97 1.396 1.959 4.026 6.417 4.026 12.148C30.5 23.609 25.888 27.5 20 27.5z" fill="#f78f8f"></path><path d="M17.131 2.1c2.311.448 2.831 2.335 3.377 4.318C20.971 8.097 21.496 10 23.5 10c.912 0 1.782-.43 2.447-1.211a4.48 4.48 0 00.703-1.138C28.05 9.844 30 13.774 30 18.643 30 23.329 25.607 27 20 27c-5.539 0-10-4.572-10-8.357 0-3.527 1.708-5.631 3.516-7.859 1.897-2.337 3.852-4.746 3.615-8.684M16 1c1.357 8.143-7 9.5-7 17.643C9 22.805 13.697 28 20 28s11-4.172 11-9.357c0-8.059-5-13.571-5-13.571C26.315 7.04 25.069 9 23.5 9c-3.085 0-.714-8-7.5-8z" fill="#c74343"></path><g><path d="M20.028 27C16.929 27 15 23.814 15 22.086c0-4.083 3.887-5.128 3-9.086 4 1 1.214 3.785 2.404 5.121.934 1.049 2.481-.446 1.957-1.935C24.084 17.889 25 20.096 25 22.062 25 24.259 23.13 27 20.028 27z" fill="#ffeea3"></path></g></svg>