<svg viewBox="0 0 40 40" xmlns="http://www.w3.org/2000/svg"><path d="M19.991 38.5C9.889 38.5 1.77 30.585 1.507 20.481c-.129-4.939 1.674-9.634 5.076-13.218A18.38 18.38 0 0120.009 1.5c10.103 0 18.222 7.915 18.484 18.019.129 4.939-1.674 9.634-5.076 13.218A18.38 18.38 0 0119.991 38.5z" fill="#f78f8f"></path><path d="M20.011 1v1c9.828 0 17.727 7.701 17.983 17.532a17.884 17.884 0 01-4.939 12.861A17.88 17.88 0 0119.991 38c-9.829 0-17.729-7.701-17.984-17.532A17.884 17.884 0 016.946 7.607 17.88 17.88 0 0120.009 2l.002-1m-.002 0c-.167 0-.336.002-.503.007C9.016 1.279.734 10.004 1.007 20.494 1.275 30.816 9.726 39 19.991 39c.167 0 .336-.002.503-.007 10.49-.273 18.772-8.998 18.499-19.487C38.725 9.184 30.274.999 20.009 1z" fill="#c74343"></path><circle cx="20" cy="27" r="1.5" fill="#fff"></circle><path fill="#fff" d="M19 10h2v13h-2z"></path></svg>