<svg viewBox="0 0 40 40" xmlns="http://www.w3.org/2000/svg"><path fill="#f2faff" d="M14.5 8.5v-4h3v-3h7v3h3v4z"></path><path d="M24 2v3h3v3H15V5h3V2h6m1-1h-8v3h-3v5h14V4h-3V1z" fill="#788b9c"></path><path d="M16.186 18.536c-.198-.097-5.487-2.744-5.68-10.119L21 6.508l10.495 1.908c-.198 7.418-5.654 10.105-5.71 10.132L21 20.461l-4.814-1.925z" fill="#f78f8f"></path><path d="M21 7.016l9.977 1.814c-.362 6.575-4.968 9.045-5.385 9.255L21 19.923l-4.591-1.836c-.441-.224-5.024-2.71-5.386-9.256L21 7.016M21 6L10 8c0 8.123 6 11 6 11l5 2 5-2s6-2.862 6-11L21 6z" fill="#c74343"></path><path fill="#c74343" d="M23 11h3v1h-3zM16 11h3v1h-3z"></path><path d="M1 39h38V17.877c-1.308-.263-2.852-.877-4-.877-1.458 0-3.563 1-5 1-1.438 0-3.542-1-5-1s-3.563 1-5 1c-1.438 0-3.542-1-5-1s-3.563 1-5 1c-1.438 0-3.542-1-5-1-1.148 0-2.692.614-4 .877V39z" fill="#8bb7f0"></path><path d="M35 17c-1.458 0-3.563 1-5 1-1.438 0-3.542-1-5-1s-3.563 1-5 1c-1.438 0-3.542-1-5-1s-3.563 1-5 1c-1.438 0-3.542-1-5-1H2v1h3c.594 0 1.434.237 2.246.465.934.263 1.9.535 2.754.535s1.82-.272 2.754-.535C13.566 18.237 14.406 18 15 18s1.434.237 2.246.465c.934.263 1.9.535 2.754.535s1.82-.272 2.754-.535C23.566 18.237 24.406 18 25 18s1.434.237 2.246.465c.934.263 1.9.535 2.754.535s1.82-.272 2.754-.535C33.566 18.237 34.406 18 35 18s1.434.237 2.246.465c.584.165 1.18.332 1.754.435v-1.023c-1.308-.263-2.852-.877-4-.877z" fill="#4e7ab5"></path><path fill="#414d5b" d="M1.001 1H2v38h-.999z"></path><path fill="#414d5b" d="M1 17h3v1H1zM1 20h3v1H1zM1 23h3v1H1zM1 26h3v1H1zM1 5h3v1H1zM1 8h3v1H1zM1 11h3v1H1zM1 14h3v1H1zM1 29h3v1H1zM1 32h3v1H1zM1 35h3v1H1zM1 38h38v1H1z"></path></svg>