<svg viewBox="0 0 40 40" xmlns="http://www.w3.org/2000/svg"><path fill="#b0c1d4" d="M16.5 27.5h7v6h-7z"></path><path d="M23 28v5h-6v-5h6m1-1h-8v7h8v-7z" fill="#66798f"></path><path fill="#fff9de" d="M1.5 3.5h37v26h-37z"></path><path d="M38 4v25H2V4h36m1-1H1v27h38V3z" fill="#66798f"></path><path fill="#66798f" d="M1 25h38v5H1zM31 36H9a3 3 0 013-3h16a3 3 0 013 3z"></path><path fill="#ffeea3" d="M34 27h3v1h-3z"></path><g><path d="M19.999 22.46c-1.056-.461-6.369-3.221-6.497-12.131L20 7.544l6.498 2.785c-.129 8.884-5.48 11.679-6.499 12.131z" fill="#ffeea3"></path><path d="M20 8.088l5.99 2.567c-.235 7.926-4.697 10.636-5.987 11.255-1.297-.631-5.759-3.371-5.994-11.255L20 8.088M20 7l-7 3c0 10.46 7 13 7 13s7-2.486 7-13l-7-3z" fill="#ba9b48"></path></g><path d="M20 10.264l-3.9 1.671c.483 4.491 2.6 6.692 3.912 7.643 1.292-.934 3.408-3.124 3.889-7.643L20 10.264z" fill="#ffc49c"></path></svg>