<svg viewBox="0 0 40 40" xmlns="http://www.w3.org/2000/svg"><path fill="#967a44" d="M16 1h1v24.429h-1z"></path><path d="M6.377 34.5L2.635 21.401l5.083-.848L9.691 24.5h16.576l2-3h7.637c-3.976 4.825-4.385 9.595-4.409 11.072L18.962 34.5H6.377z" fill="#f5ce85"></path><path d="M7.436 21.108l1.67 3.339.276.553h17.153l.297-.445L28.535 22h6.342c-3.179 4.26-3.769 8.361-3.865 10.14L18.924 34H6.754L3.269 21.802l4.167-.694M8 20l-6 1 4 14h13l13-2s-.352-6.135 5-12h-9l-2 3H10l-2-4z" fill="#967a44"></path><path fill="#f5ce85" d="M27.537 22.5l1.75-3h9.072l-.75 3z"></path><path d="M37.719 20l-.5 2h-8.812l1.167-2h8.145M39 19H29l-2.333 4H38l1-4z" fill="#967a44"></path><path fill="#f5ce85" d="M1.5 17.5h7v4h-7z"></path><path d="M8 18v3H2v-3h6m1-1H1v5h8v-5z" fill="#967a44"></path><path d="M11.802 22.5c.594-1.318 1.698-4.27 1.698-8s-1.104-6.682-1.698-8h11.954c.576.769 2.744 3.93 2.744 8s-2.168 7.231-2.744 8H11.802z" fill="#c2e8ff"></path><path d="M23.502 7c.696.98 2.498 3.869 2.498 7.5 0 3.632-1.803 6.522-2.498 7.5H12.555A20.595 20.595 0 0014 14.5c0-3.252-.822-5.935-1.445-7.5h10.947M24 6H11s2 3.579 2 8.5c0 4.921-2 8.5-2 8.5h13s3-3.579 3-8.5C27 9.579 24 6 24 6z" fill="#7496c4"></path><g><path d="M29.494 16.5c-.103-4.318-1.508-7.776-2.384-9.527 2.738 1.171 8.985 4.393 9.371 9.527h-6.987z" fill="#c2e8ff"></path><path d="M28.124 7.98c2.819 1.367 7.152 4.075 7.795 8.02h-5.942c-.155-3.338-1.056-6.143-1.853-8.02M26 6s3 4.644 3 11h8C37 9.673 26 6 26 6z" fill="#7496c4"></path></g><g><path fill="#f78f8f" d="M16.5 4.5v-3h2.394l6.75 3z"></path><path d="M18.788 2l4.5 2H17V2h1.788M19 1h-3v4h12l-9-4z" fill="#c74343"></path></g><path d="M1 39h38v-7.123c-1.308-.263-2.852-.877-4-.877-1.458 0-3.563 1-5 1-1.438 0-3.542-1-5-1s-3.563 1-5 1c-1.438 0-3.542-1-5-1s-3.563 1-5 1c-1.438 0-3.542-1-5-1-1.148 0-2.692.614-4 .877V39z" fill="#8bb7f0"></path><g><path d="M35 31c-1.458 0-3.563 1-5 1-1.438 0-3.542-1-5-1s-3.563 1-5 1c-1.438 0-3.542-1-5-1s-3.563 1-5 1c-1.438 0-3.542-1-5-1-1.148 0-2.692.614-4 .877V32.9c.574-.103 1.17-.271 1.754-.435C3.566 32.237 4.406 32 5 32s1.434.237 2.246.465c.934.263 1.9.535 2.754.535s1.82-.272 2.754-.535C13.566 32.237 14.406 32 15 32s1.434.237 2.246.465c.934.263 1.9.535 2.754.535s1.82-.272 2.754-.535C23.566 32.237 24.406 32 25 32s1.434.237 2.246.465c.934.263 1.9.535 2.754.535s1.82-.272 2.754-.535C33.566 32.237 34.406 32 35 32s1.434.237 2.246.465c.584.165 1.18.332 1.754.435v-1.023c-1.308-.263-2.852-.877-4-.877z" fill="#4e7ab5"></path></g></svg>