<svg viewBox="0 0 40 40" xmlns="http://www.w3.org/2000/svg"><path d="M9.98 35.5c-.816 0-1.48-.664-1.48-1.48V20.981c0-.816.664-1.481 1.48-1.481h28.04c.816 0 1.48.665 1.48 1.481V34.02c0 .816-.664 1.48-1.48 1.48H9.98z" fill="#b0c1d4"></path><path d="M38.019 20c.541 0 .981.44.981.981V34.02c0 .54-.44.98-.981.98H9.981A.982.982 0 019 34.019V20.981c0-.541.44-.981.981-.981h28.038m0-1H9.981A1.981 1.981 0 008 20.981V34.02A1.98 1.98 0 009.981 36H38.02A1.98 1.98 0 0040 34.019V20.981A1.981 1.981 0 0038.019 19z" fill="#66798f"></path><path d="M10.038 34.5A1.54 1.54 0 018.5 32.962V19.038c0-.848.69-1.538 1.538-1.538h27.924c.848 0 1.538.69 1.538 1.538v13.924a1.54 1.54 0 01-1.538 1.538H10.038z" fill="#b0c1d4"></path><path d="M37.962 18A1.04 1.04 0 0139 19.038v13.924A1.04 1.04 0 0137.962 34H10.038A1.04 1.04 0 019 32.962V19.038A1.04 1.04 0 0110.038 18h27.924m0-1H10.038A2.037 2.037 0 008 19.038v13.924C8 34.088 8.912 35 10.038 35h27.924A2.037 2.037 0 0040 32.962V19.038A2.037 2.037 0 0037.962 17zM1 23H0v6h1v-6z" fill="#66798f"></path><path fill="#b0c1d4" d="M.5 25.5h8v3h-8z"></path><path d="M8 26v2H1v-2h7m1-1H0v4h9v-4z" fill="#66798f"></path><path fill="#b0c1d4" d="M12.5 20.5h1v8h-1z"></path><path d="M13 21v7-7m1-1h-2v9h2v-9z" fill="#66798f"></path><g><path d="M13 29.5c-.968 0-1.5-.375-1.5-.5s.532-.5 1.5-.5 1.5.375 1.5.5-.532.5-1.5.5z" fill="#b0c1d4"></path><path d="M13 28c-1.105 0-2 .448-2 1s.895 1 2 1 2-.448 2-1-.895-1-2-1z" fill="#66798f"></path></g><g><path fill="#b0c1d4" d="M34.5 20.5h1v8h-1z"></path><path d="M35 21v7-7m1-1h-2v9h2v-9z" fill="#66798f"></path></g><g><path d="M35 29.5c-.968 0-1.5-.375-1.5-.5s.532-.5 1.5-.5 1.5.375 1.5.5-.532.5-1.5.5z" fill="#b0c1d4"></path><path d="M35 28c-1.105 0-2 .448-2 1s.895 1 2 1 2-.448 2-1-.895-1-2-1z" fill="#66798f"></path></g><g><path d="M32 23.5a.5.5 0 01-.5-.5v-9c0-.827-.673-1.5-1.5-1.5H18c-.827 0-1.5.673-1.5 1.5v9a.5.5 0 01-.5.5H9a.5.5 0 01-.5-.5V8c0-1.93 1.57-3.5 3.5-3.5h24c1.93 0 3.5 1.57 3.5 3.5v15a.5.5 0 01-.5.5h-7z" fill="#f78f8f"></path><path d="M36 5c1.654 0 3 1.346 3 3v15h-7v-9c0-1.103-.897-2-2-2H18c-1.103 0-2 .897-2 2v9H9V8c0-1.654 1.346-3 3-3h24m0-1H12a4 4 0 00-4 4v15a1 1 0 001 1h7a1 1 0 001-1v-9a1 1 0 011-1h12a1 1 0 011 1v9a1 1 0 001 1h7a1 1 0 001-1V8a4 4 0 00-4-4z" fill="#c74343"></path></g></svg>