<svg viewBox="0 0 40 40" xmlns="http://www.w3.org/2000/svg"><path fill="#dbf2ff" d="M3.5 38.5V13.286L19.998 3.58 36.5 13.286V38.5z"></path><path d="M19.998 4.16L36 13.572V38H4V13.572L19.998 4.16m0-1.16L3 13v26h34V13L19.998 3z" fill="#7496c4"></path><path fill="#b5ddf5" d="M4 34h32v4H4z"></path><path fill="#f78f8f" d="M19.998 4.645L1.5 15.955v-3.059l18.498-11.31L38.5 12.896v3.059z"></path><path d="M19.998 2.172L38 13.176v1.887L20.519 4.378l-.522-.319-.522.319L2 15.063v-1.887L19.998 2.172m0-1.172L1 12.615v4.231L19.998 5.231 39 16.846v-4.231L19.998 1z" fill="#c74343"></path><g><path fill="#ffc49c" d="M14.5 21.5h11v17h-11z"></path><path d="M25 22v16H15V22h10m1-1H14v18h12V21z" fill="#a16a4a"></path></g><circle cx="23" cy="31" r="1" fill="#a16a4a"></circle></svg>