<svg viewBox="0 0 40 40" xmlns="http://www.w3.org/2000/svg"><path d="M8 37.5A5.506 5.506 0 012.5 32V17.835c0-1.216.23-2.405.683-3.535l1.925-4.8h29.785l1.925 4.8a9.458 9.458 0 01.683 3.535V32c0 3.032-2.467 5.5-5.5 5.5H8z" fill="#ffeea3"></path><path d="M34.554 10l1.799 4.485a8.962 8.962 0 01.647 3.35V32c0 2.757-2.243 5-5 5H8c-2.757 0-5-2.243-5-5V17.835c0-1.153.218-2.28.647-3.35L5.446 10h29.108m.677-1H4.769l-2.051 5.113A10.014 10.014 0 002 17.835V32a6 6 0 006 6h24a6 6 0 006-6V17.835a9.991 9.991 0 00-.719-3.722L35.231 9z" fill="#ba9b48"></path><path d="M20 13.5c-4.28 0-7.826-2.389-7.861-2.413l-.209-.143-.239.084c-.027.01-2.753.952-6.345.952-1.232 0-2.431-.11-3.573-.328L4.5 6.84V4c0-.827.673-1.5 1.5-1.5h28c.827 0 1.5.673 1.5 1.5v2.84l2.748 4.848c-1.105.273-2.3.411-3.562.411-3.488 0-6.339-1.056-6.367-1.066l-.243-.092-.215.146c-.035.024-3.592 2.413-7.861 2.413z" fill="#fff"></path><path d="M34 3c.551 0 1 .449 1 1V6.972l.13.229 2.349 4.144c-.881.169-1.815.254-2.793.254-3.38 0-6.165-1.025-6.192-1.035l-.486-.181-.429.291C27.546 10.697 24.105 13 20 13c-4.105 0-7.546-2.303-7.579-2.326l-.418-.285-.477.167c-.026.009-2.683.924-6.181.924-.954 0-1.886-.068-2.787-.202L4.87 7.201l.13-.23V4c0-.551.449-1 1-1h28m0-1H6a2 2 0 00-2 2v2.708L1 12c1.515.351 2.993.48 4.345.48 3.73 0 6.512-.98 6.512-.98S15.516 14 20 14s8.143-2.5 8.143-2.5 2.924 1.099 6.543 1.099c1.378 0 2.856-.159 4.314-.599l-3-5.292V4a2 2 0 00-2-2z" fill="#66798f"></path><path fill="none" stroke="#66798f" stroke-linecap="round" stroke-miterlimit="10" d="M4.5 6.5h31"></path><path fill="#f2c063" d="M20 28l2 3.5-2 3.5h-4l-2-3.5 2-3.5zM20 20l2 3.5-2 3.5h-4l-2-3.5 2-3.5zM27 24l2 3.5-2 3.5h-4l-2-3.5 2-3.5z"></path><g><path fill="#f2c063" d="M13 24l2 3.5-2 3.5H9l-2-3.5L9 24z"></path></g><g><path fill="#f2c063" d="M13 16l2 3.5-2 3.5H9l-2-3.5L9 16z"></path></g></svg>