<svg viewBox="0 0 40 40" xmlns="http://www.w3.org/2000/svg"><path d="M38.5 1.5c-2.221 3.716-7 6.105-7 6.105" fill="none" stroke="#5e9c76" stroke-linecap="round" stroke-linejoin="round" stroke-miterlimit="10"></path><path d="M1.506 38.496c.042-2.064.388-7.927 2.886-10.425 4.241-4.242 9.071-4.875 11.572-4.875.525 0 .943.028 1.224.055.032 1.509-.202 7.067-4.96 11.825-2.816 2.814-7.731 3.367-10.722 3.42z" fill="#cee0a1"></path><path d="M15.963 23.695c.273 0 .516.008.723.019-.039 1.895-.583 6.777-4.813 11.007-2.538 2.538-6.921 3.155-9.855 3.26.124-3.471.885-7.716 2.727-9.558 4.114-4.113 8.795-4.728 11.218-4.728m0-1c-2.554 0-7.546.643-11.925 5.021C1.446 30.309 1 36.264 1 39c2.833 0 8.408-.399 11.581-3.571 5.783-5.783 5.085-12.623 5.085-12.623s-.641-.111-1.703-.111z" fill="#5e9c76"></path><path d="M11.501 38.497c-.015-2.452.021-7.364 4.085-11.427 1.844-1.844 4.157-2.778 6.878-2.778 2.165 0 3.92.614 4.397.798.479.75 2.795 5.096-3.921 10.399-2.488 1.964-6.233 2.949-11.439 3.008z" fill="#cee0a1"></path><path d="M22.464 24.792c1.888 0 3.452.487 4.057.705.541.96 2.141 4.838-3.891 9.6-2.284 1.803-5.857 2.774-10.63 2.891.009-2.509.284-6.909 3.939-10.564 1.746-1.747 3.942-2.632 6.525-2.632m-.001-1c-2.244 0-4.932.626-7.232 2.925-4.52 4.52-4.228 10.1-4.228 12.283 3.013 0 8.615-.252 12.246-3.119 7.739-6.11 3.938-11.199 3.938-11.199s-2.045-.89-4.724-.89z" fill="#5e9c76"></path><path d="M1.503 28.499c.059-5.205 1.044-8.95 3.009-11.438 2.418-3.063 5.029-4.682 7.553-4.682 1.499 0 2.528.562 2.848.763.386.975 2.442 6.848-1.982 11.272C9.269 28.076 4.868 28.5 1.876 28.5l-.373-.001z" fill="#cee0a1"></path><path d="M12.064 12.879c1.189 0 2.063.396 2.444.606.469 1.274 2.074 6.57-1.932 10.576C9.1 27.537 4.911 27.987 2.012 28c.117-4.773 1.088-8.346 2.892-10.63 2.319-2.938 4.795-4.491 7.16-4.491m0-1c-2.04 0-4.863.967-7.945 4.872C1.252 20.382 1 25.983 1 28.996c.25 0 .544.004.875.004 2.57 0 7.405-.229 11.408-4.232 5.044-5.044 2.034-11.956 2.034-11.956s-1.249-.933-3.253-.933z" fill="#5e9c76"></path><path d="M11.355 28.645c.042-2.615.456-10.821 3.93-14.295 2.761-2.761 5.465-4.161 8.036-4.161 3.093 0 4.94 2.092 4.959 2.113.073.07 1.671 1.453 1.771 3.896.099 2.423-1.247 5.048-4.001 7.802-3.878 3.877-10.668 4.592-14.695 4.645z" fill="#cee0a1"></path><path d="M23.321 10.688c2.849 0 4.512 1.862 4.578 1.937l.054.063.064.053c.014.012 1.436 1.26 1.533 3.457.101 2.283-1.195 4.788-3.854 7.447-3.595 3.595-9.84 4.384-13.829 4.489.087-2.995.628-10.288 3.771-13.432 2.665-2.663 5.249-4.014 7.683-4.014m0-1c-2.23 0-5.079.997-8.389 4.307-3.481 3.481-4.08 11.478-4.08 15.152 3.805 0 11.291-.535 15.552-4.796 7.766-7.766 2.255-12.378 2.255-12.378s-1.96-2.285-5.338-2.285z" fill="#5e9c76"></path><g><path d="M23.831 37c-1.982-5.426-2.024-9.942-.123-13.427 2.319-4.254 6.869-5.635 7.801-5.879.977.534 5.886 3.53 3.655 8.788C32.74 32.194 29.03 35.639 23.831 37z" fill="#cee0a1"></path><path d="M31.445 18.23c1.196.691 5.221 3.43 3.259 8.056-2.289 5.395-5.748 8.71-10.558 10.107-1.774-5.081-1.778-9.304-.009-12.563 2.085-3.843 6.118-5.256 7.308-5.6m.129-1.067s-14.643 3.103-8.055 20.429c5.135-1.213 9.34-4.396 12.105-10.915 2.637-6.217-4.05-9.514-4.05-9.514z" fill="#5e9c76"></path></g><g><path d="M10.582 17.685c-2.276 0-4.825-.51-7.582-1.516 1.362-5.2 4.807-8.91 10.519-11.333.901-.382 1.788-.576 2.638-.576 3.592 0 5.72 3.46 6.15 4.235-.331 1.317-2.691 9.19-11.725 9.19z" fill="#cee0a1"></path><path d="M16.156 4.76c3.096 0 5.053 2.861 5.615 3.808-.459 1.677-2.862 8.617-11.189 8.617-2.099 0-4.442-.447-6.977-1.331 1.397-4.809 4.712-8.269 10.107-10.558.84-.355 1.662-.536 2.444-.536m-.001-1c-.864 0-1.809.182-2.833.616-6.519 2.766-9.702 6.97-10.915 12.105 3.182 1.21 5.884 1.704 8.175 1.704 10.186 0 12.254-9.759 12.254-9.759S20.537 3.76 16.155 3.76z" fill="#5e9c76"></path></g><g><path d="M33.992 31.261c-1.058-1.105-4.116-4.558-5.794-9.148l-.159-.435-.446.125c-.957.27-2.028.407-3.184.407-2.615 0-4.968-.703-5.681-.938-.327-.996-1.565-5.193-.529-8.864l.126-.446-.436-.159c-4.586-1.674-8.036-4.729-9.146-5.792C10.131 4.909 14.901 1.5 20.793 1.5c4.387 0 8.478 1.867 12.16 5.548 10.837 10.838 2.886 21.94 1.039 24.213z" fill="#bae0bd"></path><path d="M20.793 2c4.249 0 8.222 1.817 11.806 5.402 9.941 9.942 3.601 20.131 1.359 23.091-1.261-1.386-3.815-4.515-5.29-8.552l-.318-.871-.892.252c-.913.258-1.938.388-3.048.388-2.302 0-4.398-.562-5.283-.836-.392-1.27-1.376-5.036-.446-8.33l.252-.893-.872-.318c-4.018-1.467-7.153-4.021-8.546-5.286C11.268 4.742 15.573 2 20.793 2m0-1C13.515 1 8 5.978 8 5.978s3.948 4.187 9.718 6.294c-1.24 4.39.617 9.393.617 9.393s2.815 1.045 6.074 1.045c1.086 0 2.222-.116 3.319-.426C29.837 28.054 34.021 32 34.021 32s11.665-12.925-.715-25.306C29.013 2.402 24.655 1 20.793 1z" fill="#5e9c76"></path></g></svg>