<svg viewBox="0 0 40 40" xmlns="http://www.w3.org/2000/svg"><path d="M15.5 38.5c-1.103 0-2-.897-2-2 0-.428.143-.842.414-1.197l.609-.803h-1.007a2.005 2.005 0 01-2.015-2c0-.428.143-.842.414-1.197l.609-.803H9.5c-1.103 0-2-.897-2-2 0-.428.143-.842.414-1.197l.608-.803H7A2.503 2.503 0 014.5 24c0-.607.232-1.198.654-1.665l.756-.835H4.5c-1.654 0-3-1.346-3-3s1.346-3 3-3h1.41l-.756-.835A2.486 2.486 0 014.5 13c0-1.379 1.122-2.5 2.5-2.5h1.522l-.608-.803A1.962 1.962 0 017.5 8.5c0-1.103.897-2 2-2h3.022l-.609-.803A1.967 1.967 0 0111.5 4.5c0-1.103.897-2 2-2h13c1.103 0 2 .897 2 2 0 .428-.143.842-.414 1.197l-.608.803H30.5c1.103 0 2 .897 2 2 0 .428-.143.842-.414 1.197l-.608.803H33c1.378 0 2.5 1.121 2.5 2.5 0 .607-.232 1.198-.654 1.665l-.756.835h1.41c1.654 0 3 1.346 3 3s-1.346 3-3 3h-1.41l.756.835c.422.467.654 1.058.654 1.665 0 1.379-1.122 2.5-2.5 2.5h-1.522l.609.803c.271.355.414.77.414 1.197 0 1.103-.897 2-2 2h-3.022l.609.803c.271.355.414.77.414 1.197 0 1.103-.897 2-2 2h-1.007l.594.803c.271.355.414.77.414 1.197 0 1.103-.897 2-2 2H15.5z" fill="#ffeea3"></path><path d="M26.5 3c.827 0 1.5.673 1.5 1.5 0 .401-.169.708-.312.896L26.471 7H30.5c.827 0 1.5.673 1.5 1.5 0 .401-.169.708-.312.896L30.471 11H33c1.103 0 2 .897 2 2 0 .483-.187.955-.525 1.33L32.966 16H35.5c1.379 0 2.5 1.122 2.5 2.5S36.879 21 35.5 21h-2.534l1.509 1.67c.338.375.525.847.525 1.33 0 1.103-.897 2-2 2h-2.529l1.218 1.604c.142.188.311.495.311.896 0 .827-.673 1.5-1.5 1.5h-4.029l1.218 1.604c.142.188.311.495.311.896 0 .827-.673 1.5-1.515 1.5h-2.014l1.218 1.604c.142.188.311.495.311.896 0 .827-.673 1.5-1.5 1.5h-9c-.827 0-1.5-.673-1.5-1.5 0-.401.169-.708.312-.896L15.514 34H13.5c-.827 0-1.5-.673-1.5-1.5 0-.401.169-.708.312-.896L13.529 30H9.5c-.827 0-1.5-.673-1.5-1.5 0-.401.169-.708.312-.896L9.529 26H7c-1.103 0-2-.897-2-2 0-.483.187-.955.525-1.33L7.034 21H4.5C3.122 21 2 19.878 2 18.5S3.122 16 4.5 16h2.534l-1.509-1.67A1.991 1.991 0 015 13c0-1.103.897-2 2-2h2.529L8.312 9.396A1.48 1.48 0 018 8.5C8 7.673 8.673 7 9.5 7h4.029l-1.218-1.604A1.487 1.487 0 0112 4.5c0-.827.673-1.5 1.5-1.5h13m0-1h-13A2.507 2.507 0 0011 4.5c0 .564.197 1.08.515 1.5H9.5A2.507 2.507 0 007 8.5c0 .564.197 1.08.515 1.5H7c-1.65 0-3 1.35-3 3 0 .77.302 1.467.783 2H4.5C2.575 15 1 16.575 1 18.5S2.575 22 4.5 22h.283A2.977 2.977 0 004 24c0 1.65 1.35 3 3 3h.515c-.318.42-.515.936-.515 1.5C7 29.875 8.125 31 9.5 31h2.015c-.318.42-.515.936-.515 1.5 0 1.375 1.125 2.5 2.5 2.5h.015c-.318.42-.515.936-.515 1.5 0 1.375 1.125 2.5 2.5 2.5h9c1.375 0 2.5-1.125 2.5-2.5 0-.564-.197-1.08-.515-1.5h.015c1.375 0 2.5-1.125 2.5-2.5 0-.564-.197-1.08-.515-1.5H30.5c1.375 0 2.5-1.125 2.5-2.5 0-.564-.197-1.08-.515-1.5H33c1.65 0 3-1.35 3-3 0-.77-.302-1.467-.783-2h.283c1.925 0 3.5-1.575 3.5-3.5S37.425 15 35.5 15h-.283c.481-.533.783-1.23.783-2 0-1.65-1.35-3-3-3h-.515c.318-.42.515-.936.515-1.5C33 7.125 31.875 6 30.5 6h-2.015c.318-.42.515-.936.515-1.5C29 3.125 27.875 2 26.5 2z" fill="#805f51"></path><circle cx="20" cy="28" r="3" fill="#36404d"></circle><path d="M14.5 34h2c.275 0 .5.225.5.5s-.225.5-.5.5h-2a.501.501 0 01-.5-.5c0-.275.225-.5.5-.5zM25.5 35h-5a.501.501 0 01-.5-.5c0-.275.225-.5.5-.5h5c.275 0 .5.225.5.5s-.225.5-.5.5zM27.5 31h-1a.501.501 0 01-.5-.5c0-.275.225-.5.5-.5h1c.275 0 .5.225.5.5s-.225.5-.5.5zM11.5 30h3c.275 0 .5.225.5.5s-.225.5-.5.5h-3a.501.501 0 01-.5-.5c0-.275.225-.5.5-.5zM7.5 26h7c.275 0 .5.225.5.5s-.225.5-.5.5h-7a.501.501 0 01-.5-.5c0-.275.225-.5.5-.5zM32.5 26h-6c-.275 0-.5.225-.5.5s.225.5.5.5h6c.275 0 .5-.225.5-.5s-.225-.5-.5-.5zM24.5 22h-19a.501.501 0 01-.5-.5c0-.275.225-.5.5-.5h19c.275 0 .5.225.5.5s-.225.5-.5.5zM34.5 22h-6a.501.501 0 01-.5-.5c0-.275.225-.5.5-.5h6c.275 0 .5.225.5.5s-.225.5-.5.5zM34.5 16h-12a.501.501 0 01-.5-.5c0-.275.225-.5.5-.5h12c.275 0 .5.225.5.5s-.225.5-.5.5zM5.5 15h13c.275 0 .5.225.5.5s-.225.5-.5.5h-13a.501.501 0 01-.5-.5c0-.275.225-.5.5-.5zM32.5 10h-16c-.275 0-.5.225-.5.5s.225.5.5.5h16c.275 0 .5-.225.5-.5s-.225-.5-.5-.5zM7.5 10h5c.275 0 .5.225.5.5s-.225.5-.5.5h-5a.501.501 0 01-.5-.5c0-.275.225-.5.5-.5zM20.5 6h-8c-.275 0-.5.225-.5.5s.225.5.5.5h8c.275 0 .5-.225.5-.5s-.225-.5-.5-.5zM27.5 6h-3c-.275 0-.5.225-.5.5s.225.5.5.5h3c.275 0 .5-.225.5-.5s-.225-.5-.5-.5z" fill="#805f51"></path></svg>