<svg viewBox="0 0 40 40" xmlns="http://www.w3.org/2000/svg"><path d="M20.003 26.296l-2.034 2.028-5.229-4.357L31.193 5.515c.134.007.319.014.545.014 1.522 0 4.838-.295 6.766-2.667C38.498 9.435 37.84 14.386 23 29.293l-2.997-2.997z" fill="#c2e8ff"></path><path d="M37.991 4.089c-.137 5.839-1.576 10.956-14.992 24.496l-2.288-2.288-.706-.706-.707.705-1.357 1.353-4.458-3.715 17.91-17.91c.102.003.219.005.347.005 1.387-.001 4.19-.237 6.251-1.94M39 1c-1.387 3.642-5.556 4.028-7.261 4.028C31.28 5.028 31 5 31 5L12 24l6 5 2.003-1.997L23 30C39.705 13.295 39 8.801 39 1z" fill="#7496c4"></path><path d="M26.5 34.5c-.498 0-1-.31-1-1 0-.418.499-1.517 1-2.467.501.95 1 2.049 1 2.467 0 .69-.502 1-1 1z" fill="#f78f8f"></path><path d="M26.5 32.151c.294.628.492 1.145.5 1.349 0 .435-.313.5-.5.5s-.5-.065-.5-.497c.008-.205.206-.723.5-1.352m0-2.151S25 32.58 25 33.5s.672 1.5 1.5 1.5 1.5-.58 1.5-1.5-1.5-3.5-1.5-3.5z" fill="#c74343"></path><path fill="#7496c4" d="M20.707 21L20 20.293 35.293 5l2.374-.96z"></path><path d="M31 28.5c-.827 0-1.5-.673-1.5-1.5 0-.16.081-.703.832-2.282a4.68 4.68 0 00.371-1.268.73.73 0 00-.004-.296c-.081-.346-.348-.569-.681-.569-.342 0-.728.235-1.252.764-.236.236-.461.47-.686.703.415-.845.825-1.732 1.186-2.602a.5.5 0 00.357-.895c.522-1.38.877-2.654.877-3.555v-.282c-.003-2.013-.005-2.766 1.631-3.584C34.404 11.997 34.5 10.738 34.5 8V5.224c.824-.223 2.704-.875 4.009-2.433.021 3.454-.038 6.499-1.808 10.076-.757 1.532-1.979 3.213-3.167 4.804-.069.091-.166.206-.279.342-.614.733-1.756 2.101-2.046 3.747a4.104 4.104 0 00-.044.573v.141c0 .777.174 1.553.502 2.244.752 1.579.833 2.122.833 2.282 0 .827-.673 1.5-1.5 1.5z" fill="#f78f8f"></path><path d="M38.011 3.985c-.018 2.916-.243 5.6-1.757 8.661-.739 1.495-1.946 3.154-3.113 4.718-.069.09-.162.201-.269.33-.643.769-1.84 2.202-2.16 4.02a4.78 4.78 0 00-.045.564 1.177 1.177 0 00-.65-.193c-.172 0-.343.034-.521.105C30.313 20.314 31 18.337 31 17v-.283c-.003-1.985-.004-2.457 1.355-3.137C34.882 12.317 35 10.798 35 8V5.595c.767-.244 1.949-.728 3.011-1.61m-7.016 20.408c.065.184.139.364.222.539.765 1.611.783 2.051.783 2.068 0 .551-.449 1-1 1-.551 0-1-.449-1-.999 0-.018.018-.458.783-2.069.08-.169.151-.348.212-.539M39 1c-1.219 3.125-5 3.828-5 3.828V8c0 2.713-.095 3.687-2.093 4.686C29.909 13.685 30 14.749 30 17c0 2.162-2.289 6.923-4 9.906.087-.151.282-.292.404-.417l.46-.471.894-.912c.453-.463.895-.938 1.353-1.396.105-.105.614-.625.907-.625.092 0 .164.051.194.183a.251.251 0 01-.003.102c-.063.388-.16.776-.329 1.132-.457.962-.88 1.99-.88 2.498a2 2 0 104 0c0-.508-.423-1.535-.88-2.497a4.727 4.727 0 01-.453-2.029v-.141c0-.165.015-.327.036-.487.319-1.81 1.767-3.264 2.234-3.876 1.344-1.801 2.473-3.383 3.214-4.881C39.281 8.781 39 5.139 39 1z" fill="#c74343"></path><g><path d="M5.221 38.514L1.707 35 14.5 22.207l4.922 4.922C15.536 37.693 7.845 38.521 5.562 38.521c0 0-.257-.003-.341-.007z" fill="#839cb2"></path><path d="M14.5 22.914l4.341 4.341C15.033 37.232 7.74 38.021 5.562 38.021l-.128-.001L2.414 35 14.5 22.914m0-1.414L1 35l4 4s.202.021.562.021C7.78 39.021 16.011 38.237 20 27l-5.5-5.5z" fill="#66798f"></path></g><circle cx="14" cy="28" r="1" fill="#e1ebf2"></circle><circle cx="8" cy="34" r="1" fill="#e1ebf2"></circle></svg>