<svg viewBox="0 0 40 40" xmlns="http://www.w3.org/2000/svg"><path d="M8.347 34.571C5.51 28.723 4.5 22.007 4.5 18 4.5 8.748 11.309 1.5 20 1.5S35.5 8.748 35.5 18c0 4.007-1.01 10.723-3.847 16.571l-3.333.833-.667-1.896C29.5 27.217 29.5 21.792 29.5 20c0-6.449-4.173-11.5-9.5-11.5s-9.5 5.051-9.5 11.5c0 4.667.664 9.393 1.922 13.682l-.718 1.729-3.357-.84z" fill="#ffc49c"></path><path d="M20 2c8.411 0 15 7.028 15 16 0 3.906-.973 10.421-3.696 16.143l-2.663.666-.463-1.316C30 27.201 30 21.796 30 20c0-6.729-4.393-12-10-12s-10 5.271-10 12c0 4.652.654 9.364 1.893 13.653l-.486 1.168-2.711-.678C5.973 28.421 5 21.906 5 18 5 9.028 11.589 2 20 2m0-1C11.006 1 4 8.631 4 18c0 4.562 1.188 11.31 4 17l4 1 .952-2.29C11.262 28.036 11 22.952 11 20c0-5.962 3.753-11 9-11s9 5.038 9 11c0 2.952-.182 7.846-1.872 13.521L28 36l4-1c2.812-5.69 4-12.438 4-17 0-9.369-7.006-17-16-17z" fill="#a16a4a"></path><path d="M6 38.5a.5.5 0 01-.5-.5v-4a.5.5 0 01.5-.5h6a.5.5 0 01.5.5v4a.5.5 0 01-.5.5H6z" fill="#d4a281"></path><path d="M12 34v4H6v-4h6m0-1H6c-.55 0-1 .45-1 1v4c0 .55.45 1 1 1h6c.55 0 1-.45 1-1v-4c0-.55-.45-1-1-1z" fill="#a16a4a"></path><path d="M28 38.5a.5.5 0 01-.5-.5v-4a.5.5 0 01.5-.5h6a.5.5 0 01.5.5v4a.5.5 0 01-.5.5h-6z" fill="#d4a281"></path><path d="M34 34v4h-6v-4h6m0-1h-6c-.55 0-1 .45-1 1v4c0 .55.45 1 1 1h6c.55 0 1-.45 1-1v-4c0-.55-.45-1-1-1z" fill="#a16a4a"></path><circle cx="7" cy="18" r="1" fill="#fff"></circle><circle cx="10" cy="11" r="1" fill="#fff"></circle><circle cx="16" cy="6" r="1" fill="#fff"></circle><circle cx="8" cy="25" r="1" fill="#fff"></circle><circle cx="33" cy="18" r="1" fill="#fff"></circle><circle cx="30" cy="11" r="1" fill="#fff"></circle><circle cx="24" cy="6" r="1" fill="#fff"></circle><circle cx="32" cy="26" r="1" fill="#fff"></circle></svg>