<svg viewBox="0 0 40 40" xmlns="http://www.w3.org/2000/svg"><path d="M20 39.339a3.471 3.471 0 01-2.475-1.021L1.682 22.475a3.504 3.504 0 010-4.949L17.525 1.682C18.183 1.023 19.062.661 20 .661s1.817.362 2.475 1.021l15.843 15.844a3.504 3.504 0 010 4.949L22.475 38.318A3.471 3.471 0 0120 39.339z" fill="#ffeea3"></path><path d="M20 1.162c.804 0 1.558.31 2.121.874l15.843 15.843a3.003 3.003 0 010 4.243L22.121 37.964c-.564.564-1.317.874-2.121.874s-1.558-.31-2.121-.874L2.036 22.121c-.564-.563-.874-1.317-.874-2.121s.31-1.558.874-2.121L17.879 2.036A2.975 2.975 0 0120 1.162m0-1a3.985 3.985 0 00-2.828 1.167L1.328 17.172a4.011 4.011 0 000 5.657l15.843 15.843c.778.778 1.803 1.167 2.828 1.167s2.051-.389 2.828-1.167L38.67 22.829a4.011 4.011 0 000-5.657L22.828 1.328A3.989 3.989 0 0020 .162z" fill="#ba9b48"></path><path d="M29.715 24c-4.167-5-2.667-6.167-5.667-9.833-.333-.334.119-.334.952-.167-.333-1.5-1.952-2-1.952-2l.833-2c-1.5.167-3.167.333-4.167 2.333C14.715 12.833 9.833 16 6 21l9 9c1.833-1.833.167-5.667 3.5-8 .833 3.667 5.381 3.333 6.881 4.333.833.5 1.306 2.323 3 1.333.667 0 1-.333 1-1.333.334-.833 1-1.333.334-2.333z" fill="#36404d"></path><path d="M23.833 11.36l-.177.487s.602.263 1.01.847C25 12.193 26 11.027 26 11.027s-1.5-.167-2.167.333z" fill="#36404d"></path></svg>