<svg viewBox="0 0 40 40" xmlns="http://www.w3.org/2000/svg"><path fill="#bac7d6" d="M31.303 36.5l-1.938-6.995-.794-8.988 2.222-1.206.708 9.725L33.36 36.5z"></path><path d="M30.35 20.12l.652 8.953.006.086.021.084L32.719 36h-1.036l-1.811-6.541-.773-8.66 1.251-.679m.885-1.618l-3.191 1.733.84 9.404L30.922 37H34l-2-8-.765-10.498z" fill="#66798f"></path><path d="M31.524 37h1.571c-.039-.516-.394-1.562-.47-2h-1.61c.093.436.462 1.483.509 2z" fill="#66798f"></path><path d="M3.385 28.378C2.236 26.75.5 23.828.5 21.042c0-4.339 1.879-6.539 5.586-6.539 1.593 0 3.137.417 4.004.7l-.301.301c-1.542.05-2.838.649-3.852 1.785-2.532 2.834-2.666 8.318-2.552 11.089z" fill="#f5ce85"></path><path d="M6.086 15.002c.759 0 1.507.099 2.171.232-1.033.296-1.934.871-2.692 1.721-2.176 2.436-2.661 6.689-2.701 9.702C1.929 25.081 1 23.017 1 21.042c0-4.064 1.664-6.04 5.086-6.04m0-1C3.155 14.002 0 15.329 0 21.042 0 25.427 4 30 4 30s-1.583-14 6-14l1-1s-2.373-.998-4.914-.998z" fill="#967a44"></path><path d="M12.44 36.5l-1.183-9.356c.237-.609 1.235-3.306 1.596-6.314l3.293.709c-.183 2.983-2.342 5.077-2.365 5.099l-.177.168.969 9.694H12.44z" fill="#a1b0bf"></path><path d="M13.278 21.433l2.329.502c-.333 2.55-2.15 4.322-2.168 4.34l-.356.337.049.488.889 8.9h-1.14l-1.111-8.794c.287-.755 1.118-3.098 1.508-5.773m-.863-1.209c-.321 3.535-1.668 6.856-1.668 6.856L12 37h3.126l-1-10s2.533-2.4 2.533-5.862l-4.244-.914z" fill="#66798f"></path><path d="M25.271 37.5l-.936-7.487.668-3.754-.648.055c-.429.036-.857.053-1.284.053-5.455 0-10.66-2.779-10.712-2.808l-.494-.267-.208.521c-1.262 3.153-2.876 4.818-2.893 4.834l-.121.124-.97 8.729H5.545l.778-9.131 1.225-4.479-.153-.197C7.376 23.668 5.5 21.229 5.5 19c0-4.798 2.963-6.5 5.5-6.5 1.237 0 2.609.503 3.937.99 1.354.497 2.754 1.01 4.063 1.01 4.576 0 5.436-2.235 5.471-2.33l.022-.064.006-.068c.026-.349.719-8.538 7.046-8.538 1.771 0 3.237 1.816 3.252 1.835l4.572 5.795c.174.217.187.675-.043.904l-.995.908c-.491-.227-1.471-.606-2.525-.606l-.901.009c-.992 0-1.648-.124-2.27-.777l-.559-.588-.274.764c-1.051 2.926-.734 4.811-.456 6.473.135.804.262 1.563.21 2.361-.144 2.22-1.372 4.616-3.442 4.9l-.331.045-1.144 4.377.806 7.6h-2.174z" fill="#c8d1db"></path><path d="M31.545 4c1.258 0 2.493 1.19 2.858 1.643l4.574 5.797c.033.054.029.199.028.21l-.77.704c-.579-.237-1.466-.517-2.429-.517-.162 0-.322.002-.479.005-.143.002-.283.004-.422.004-.892 0-1.406-.093-1.908-.622l-1.118-1.177-.548 1.528c-1.094 3.049-.753 5.087-.478 6.725.135.808.252 1.506.204 2.246-.128 1.968-1.226 4.192-3.011 4.437l-.662.091-.169.647-1.036 3.965-.046.177.019.182.736 6.955h-1.176l-.872-6.974.54-3.039.228-1.282-1.297.11c-.402.034-.82.051-1.243.051-5.321 0-10.422-2.72-10.473-2.747l-.987-.533-.417 1.041c-1.218 3.045-2.769 4.655-2.783 4.668l-.244.247-.038.348L7.225 37H6.089l.725-8.499 1.152-4.239.131-.483-.307-.394C7.291 22.747 6 20.715 6 19c0-4.429 2.693-6 5-6 1.148 0 2.478.488 3.765.96C16.16 14.471 17.602 15 19 15c4.84 0 5.842-2.388 5.941-2.66l.046-.129.01-.135c.026-.33.69-8.076 6.548-8.076m0-1C24.669 3 24 12 24 12s-.722 2-5 2c-2.475 0-5.385-2-8-2-2.788 0-6 1.94-6 7 0 2.434 2 5 2 5l-1.175 4.326L5 38h3.12l1-9s1.68-1.7 3-5c0 0 5.296 2.867 10.949 2.867.441 0 .884-.017 1.327-.055L23.83 30l1 8H28l-.855-8.062 1.036-3.965c2.393-.328 3.722-3.026 3.873-5.363.164-2.525-1.305-4.458.217-8.698.795.836 1.663.933 2.633.933.291 0 .591-.009.901-.009 1.359 0 2.609.707 2.609.707l1.264-1.155c.412-.412.412-1.155.083-1.567l-4.574-5.797C35.188 5.023 33.578 3 31.545 3z" fill="#66798f"></path><path d="M23.001 13.686c.979-.736 1.396-2.287 1.865-4.025.897-3.328 1.914-7.096 7.002-7.16l1.049.603.226-.09c.391-.157.741-.236 1.041-.236.566 0 .908.284 1.271.584.249.207.522.434.865.535-.347.666-1.091 1.132-1.908 1.132-.125 0-.254-.011-.384-.033a10.409 10.409 0 00-.673-.022c-3.789 0-4.524 1.977-5.236 3.888-.485 1.304-.987 2.653-2.421 3.741-.882.67-1.887 1.086-2.621 1.086l-.076-.003z" fill="#f5ce85"></path><path d="M31.739 3.003l.719.413.421.242.45-.181c.331-.133.619-.201.855-.201.369 0 .58.161.951.469.124.103.264.219.423.327a1.66 1.66 0 01-1.444.429l-.061-.011-.063-.002a12.782 12.782 0 00-.635-.016c-4.137 0-4.971 2.239-5.706 4.214-.482 1.295-.937 2.517-2.254 3.517a5.725 5.725 0 01-1.105.665c.461-.863.756-1.954 1.058-3.077.885-3.277 1.798-6.665 6.391-6.788M32 2c-9.01 0-6.42 10.881-10 11.597.133.399.533.591 1.076.591.797 0 1.903-.413 2.924-1.188 3.806-2.889 1.551-7.528 7.355-7.528.187 0 .383.005.587.015.159.028.315.041.469.041 1.335 0 2.426-.994 2.589-2.137a.916.916 0 01-.314.059c-.786 0-1.18-1.172-2.502-1.173-.34 0-.742.078-1.228.273L32 2z" fill="#967a44"></path><path d="M33.414 5.497l-1.196-3.37s-2.338 1.087-1.631 4.24" fill="#c8d1db" stroke="#66798f" stroke-miterlimit="10"></path><path d="M25.683 38h1.3c-.033-.516-.071-1.562-.136-2h-1.333c.08.436.129 1.483.169 2zM5.879 38h2.13c.085-.516.261-1.562.296-2H6.143c-.021.436-.185 1.483-.264 2zM12.845 37h1.256c-.046-.516-.052-1.562-.127-2h-1.289c.089.436.108 1.483.16 2z" fill="#66798f"></path></svg>