<svg viewBox="0 0 40 40" xmlns="http://www.w3.org/2000/svg"><path fill="#bac7d6" d="M29.303 37.5l-1.937-6.995-.795-8.987 2.222-1.207.708 9.725L31.36 37.5z"></path><path d="M28.35 21.12l.652 8.953.006.086.021.084L30.719 37h-1.036l-1.811-6.541-.773-8.66 1.251-.679m.885-1.618l-3.191 1.733.84 9.404L28.922 38H32l-2-8-.765-10.498z" fill="#66798f"></path><path d="M29.524 38h1.571c-.039-.516-.394-1.562-.47-2h-1.61c.093.436.462 1.483.509 2z" fill="#66798f"></path><path d="M3.385 29.378C2.236 27.75.5 24.828.5 22.042c0-4.339 1.879-6.54 5.586-6.54 1.598 0 3.139.416 4.005.7l-.301.301c-1.543.05-2.838.65-3.853 1.785-2.532 2.835-2.666 8.318-2.552 11.09z" fill="#f5ce85"></path><path d="M6.086 16.002c.759 0 1.507.099 2.171.233-1.033.296-1.934.871-2.692 1.72-2.176 2.436-2.661 6.689-2.701 9.702C1.929 26.081 1 24.017 1 22.042c0-4.064 1.664-6.04 5.086-6.04m0-1C3.155 15.002 0 16.329 0 22.042 0 26.427 4 31 4 31s-1.583-14 6-14l1-1s-2.373-.998-4.914-.998z" fill="#967a44"></path><path d="M12.441 37.5l-1.182-9.356c.236-.608 1.234-3.307 1.595-6.313l3.293.71c-.183 2.982-2.342 5.076-2.365 5.098l-.176.169.968 9.693h-2.133z" fill="#a1b0bf"></path><path d="M13.278 22.433l2.329.502c-.333 2.55-2.15 4.322-2.168 4.34l-.356.337.049.488.889 8.9h-1.14l-1.111-8.794c.286-.755 1.118-3.098 1.508-5.773m-.863-1.209c-.321 3.535-1.668 6.856-1.668 6.856L12 38h3.126l-1-10s2.533-2.4 2.533-5.862l-4.244-.914z" fill="#66798f"></path><path d="M23.271 38.5l-.936-7.487.664-3.733-.645.052c-.344.027-.683.04-1.019.04-4.886 0-8.889-2.753-8.929-2.781l-.516-.36-.234.585c-1.261 3.153-2.875 4.818-2.892 4.835l-.122.123-.97 8.726H5.544l.778-9.132 1.225-4.478-.153-.198C7.375 24.669 5.5 22.229 5.5 20c0-4.798 2.963-6.5 5.5-6.5 1.237 0 2.609.503 3.937.99 1.354.496 2.754 1.01 4.063 1.01 1.922 0 3.069-.387 3.504-1.182.286-.522.166-1.081.007-1.422.116-1.149 1.082-8.396 7.034-8.396 1.763 0 3.237 1.817 3.252 1.835l4.572 5.795c.173.217.186.675-.043.904l-.994.908c-.492-.228-1.471-.606-2.526-.606l-.901.009c-.993 0-1.649-.124-2.27-.777l-.559-.588-.274.764c-1.05 2.926-.734 4.811-.456 6.474.134.804.262 1.563.21 2.361-.144 2.22-1.373 4.615-3.442 4.899l-.332.045-1.144 4.377.806 7.601h-2.173z" fill="#c8d1db"></path><path d="M29.545 5c1.258 0 2.493 1.19 2.858 1.643l4.574 5.797c.033.054.029.199.028.21l-.77.704c-.579-.237-1.466-.517-2.429-.517-.162 0-.322.002-.479.005-.143.002-.283.004-.422.004-.892 0-1.406-.093-1.908-.622l-1.118-1.177-.548 1.528c-1.094 3.049-.753 5.087-.478 6.725.135.808.252 1.506.204 2.246-.128 1.968-1.226 4.192-3.011 4.437l-.663.091-.169.647-1.036 3.965-.046.177.019.182.737 6.955h-1.176l-.872-6.974.537-3.022.227-1.275-1.291.103a12.19 12.19 0 01-.979.039c-4.718 0-8.603-2.664-8.641-2.69l-1.033-.723-.468 1.171c-1.218 3.045-2.769 4.655-2.783 4.668l-.244.247-.039.346L7.225 38H6.089l.725-8.499 1.152-4.239.131-.483-.307-.394C7.291 23.747 6 21.715 6 20c0-4.429 2.693-6 5-6 1.148 0 2.478.488 3.765.96C16.16 15.471 17.602 16 19 16c2.122 0 3.412-.472 3.943-1.442.332-.606.272-1.255.08-1.741C23.184 11.414 24.215 5 29.545 5m0-1C22.669 4 22 13 22 13s1.278 2-3 2c-2.475 0-5.385-2-8-2-2.788 0-6 1.94-6 7 0 2.434 2 5 2 5l-1.175 4.326L5 39h3.12l1-9s1.68-1.7 3-5c0 0 4.102 2.871 9.214 2.871.349 0 .702-.013 1.059-.042L21.83 31l1 8H26l-.855-8.062 1.036-3.965c2.393-.328 3.722-3.026 3.873-5.363.164-2.525-1.305-4.458.217-8.698.795.836 1.663.933 2.633.933.291 0 .591-.009.901-.009 1.359 0 2.609.707 2.609.707l1.264-1.155c.412-.412.412-1.155.083-1.567l-4.574-5.797C33.188 6.023 31.578 4 29.545 4z" fill="#66798f"></path><path d="M21.175 14.9c.859-.802 1.254-2.314 1.693-3.997.899-3.44 1.917-7.336 7-7.402l1.049.604.226-.091c.391-.157.741-.236 1.041-.236.566 0 .908.283 1.27.584.25.206.523.434.865.535-.346.666-1.091 1.131-1.909 1.131-.125 0-.253-.011-.383-.033a10.352 10.352 0 00-.674-.021c-3.789 0-4.524 1.977-5.236 3.888-.485 1.305-.987 2.653-2.42 3.741-.883.669-1.84 1.157-2.522 1.297z" fill="#f5ce85"></path><path d="M29.739 4.004l.718.413.421.242.45-.181c.332-.133.619-.201.855-.201.369 0 .58.161.951.469.124.103.264.219.423.327a1.66 1.66 0 01-1.444.429l-.061-.011-.062-.003a12.782 12.782 0 00-.635-.016c-4.137 0-4.971 2.239-5.706 4.214-.482 1.295-.937 2.517-2.254 3.517a8.73 8.73 0 01-.919.613c.361-.818.615-1.79.875-2.787.887-3.392 1.803-6.898 6.388-7.025M30 3c-9.01 0-6.42 11.25-10 11.966.11.33.403.477.809.477.804 0 2.051-.577 3.191-1.443 3.806-2.889 1.551-7.528 7.355-7.528.187 0 .383.005.587.015.159.028.315.041.469.041 1.335 0 2.426-.994 2.589-2.137a.916.916 0 01-.314.059c-.786 0-1.18-1.172-2.502-1.173-.34 0-.742.078-1.228.273L30 3z" fill="#967a44"></path><path d="M31.414 6.497l-1.196-3.37s-2.338 1.087-1.631 4.24" fill="#c8d1db" stroke="#66798f" stroke-miterlimit="10"></path><path d="M23.683 39h1.3c-.033-.516-.071-1.562-.136-2h-1.333c.08.436.129 1.483.169 2zM5.879 39h2.13c.085-.516.261-1.562.296-2H6.143c-.021.436-.185 1.483-.264 2zM12.845 38h1.256c-.046-.516-.052-1.562-.127-2h-1.289c.089.436.108 1.483.16 2z" fill="#66798f"></path><g><circle cx="18" cy="3.5" r="2" fill="#ffeea3"></circle><path d="M18 2c.827 0 1.5.673 1.5 1.5S18.827 5 18 5s-1.5-.673-1.5-1.5S17.173 2 18 2m0-1a2.5 2.5 0 100 5 2.5 2.5 0 000-5z" fill="#ba9b48"></path></g><g><path d="M18.921 23.172a.98.98 0 01-.843-1.084l.511-4.569-3.966-2.12a1.126 1.126 0 01-.578-1.264l1.499-6.469a1.257 1.257 0 011.578-.912l6.94 2.062a1.037 1.037 0 01-.285 2.036 1.03 1.03 0 01-.247-.03l-5.037-1.344-1.068 4.928 2.816 1.547c.382.209.593.637.527 1.065l-.754 5.342a.97.97 0 01-1.093.812z" fill="#bae0bd"></path><path d="M16.769 7.203c.071 0 .143.01.208.029l6.949 2.064a.539.539 0 01-.255 1.045L19.13 9.129l-1.013-.271-.222 1.025-.878 4.051-.158.729.654.359 2.492 1.368a.538.538 0 01.269.564l-.751 5.321a.48.48 0 01-.535.401.482.482 0 01-.412-.536l.473-4.229.075-.674-.598-.32-3.676-1.965a.628.628 0 01-.317-.71l1.495-6.457a.762.762 0 01.741-.582m0-1c-.792 0-1.517.539-1.712 1.35l-1.497 6.465a1.627 1.627 0 00.828 1.822l3.667 1.96-.473 4.229a1.478 1.478 0 002.929.401l.753-5.335a1.534 1.534 0 00-.78-1.581l-2.49-1.367.878-4.051 4.541 1.213a1.54 1.54 0 00.793-2.972l-6.944-2.062a1.691 1.691 0 00-.493-.072z" fill="#5e9c76"></path></g></svg>