<svg viewBox="0 0 40 40" xmlns="http://www.w3.org/2000/svg"><path d="M20 38.5C9.799 38.5 1.5 33.79 1.5 28S9.799 17.5 20 17.5 38.5 22.21 38.5 28 30.201 38.5 20 38.5z" fill="#c2e8ff"></path><path d="M20 18c9.925 0 18 4.486 18 10s-8.075 10-18 10S2 33.514 2 28s8.075-10 18-10m0-1C9.507 17 1 21.925 1 28s8.507 11 19 11 19-4.925 19-11-8.507-11-19-11z" fill="#7496c4"></path><path d="M34.5 28c0 4.142-6.492 7.5-14.5 7.5" fill="none" stroke="#7496c4" stroke-linecap="round" stroke-miterlimit="10"></path><path d="M23.5 1.5s-1 2.755-1 6 2 6.455 2 10c0 3.199-1 6-1 6M30.5 4.5s-1 2.755-1 6 2 6.455 2 10c0 3.199-1 6-1 6M9.5 4.5s-1 2.755-1 6 2 6.455 2 10c0 3.199-1 6-1 6M16.5 1.5s-1 2.755-1 6 2 6.455 2 10c0 3.199-1 6-1 6" fill="none" stroke="#c74343" stroke-linecap="round" stroke-miterlimit="10"></path><ellipse cx="14" cy="28.026" rx="1.5" ry="1.526" fill="#d6f0ff"/><path d="M14 27c.551 0 1 .46 1 1.026 0 .566-.449 1.026-1 1.026s-1-.46-1-1.026c0-.566.449-1.026 1-1.026m0-1c-1.105 0-2 .907-2 2.026 0 1.119.895 2.026 2 2.026s2-.907 2-2.026C16 26.907 15.105 26 14 26z" fill="#7496c4"></path><path d="M9.969 33.416c-2.006-.994-3.46-2.284-4.103-3.733" fill="none" stroke="#7496c4" stroke-linecap="round" stroke-miterlimit="10"></path><path d="M23.34 32.214c-.883.157-1.829.254-2.815.279M29.249 29.032c-.287.579-.81 1.115-1.518 1.584" fill="none" stroke="#7496c4" stroke-linecap="round" stroke-linejoin="round" stroke-miterlimit="10"></path></svg>