<svg viewBox="0 0 40 40" xmlns="http://www.w3.org/2000/svg"><path fill="#fff" d="M6.5 37.5v-35h18.293l8.707 8.707V37.5z"></path><path d="M24.586 3L33 11.414V37H7V3h17.586M25 2H6v36h28V11l-9-9z" fill="#788b9c"></path><path fill="#fff" d="M24.5 11.5v-9h.293l8.707 8.707v.293z"></path><path d="M25 3.414L32.586 11H25V3.414M25 2h-1v10h10v-1l-9-9z" fill="#788b9c"></path><g><path d="M19.996 30.5a5.506 5.506 0 01-5.5-5.5c0-2.396 3.651-8.347 5.5-11.11 1.849 2.763 5.5 8.715 5.5 11.11 0 3.033-2.468 5.5-5.5 5.5z" fill="#f78f8f"></path><path d="M19.996 14.793c2.204 3.364 5 8.273 5 10.207 0 2.757-2.243 5-5 5s-5-2.243-5-5c0-1.934 2.797-6.843 5-10.207m0-1.793s-6 8.686-6 12a6 6 0 1012 0c0-3.314-6-12-6-12z" fill="#c74343"></path></g><g><path d="M22.996 26.5a3 3 0 11-6 0c0-1.657 3-6 3-6s3 4.343 3 6z" fill="#ffeea3"></path></g></svg>