<svg viewBox="0 0 40 40" xmlns="http://www.w3.org/2000/svg"><path fill="#967a44" d="M23 29.5h1v6.786h-1zM16 29.5h1v6.786h-1z"></path><path d="M16.249 30.5a137.385 137.385 0 00-2.755-3.465c-3.438-4.228-6.994-8.6-6.994-12.464C6.5 7.363 12.556 1.5 20 1.5s13.5 5.863 13.5 13.071c0 3.864-3.555 8.236-6.994 12.464-.926 1.139-1.882 2.314-2.755 3.465h-7.502z" fill="#f78f8f"></path><path d="M20 2c7.168 0 13 5.64 13 12.571 0 3.687-3.498 7.988-6.881 12.148-.876 1.077-1.779 2.187-2.615 3.281h-7.007a142.796 142.796 0 00-2.615-3.281C10.498 22.559 7 18.258 7 14.571 7 7.64 12.832 2 20 2m0-1C12.268 1 6 7.076 6 14.571 6 19.752 11.869 25.509 16 31h8c4.131-5.491 10-11.248 10-16.429C34 7.076 27.732 1 20 1z" fill="#c74343"></path><path d="M22 30C36.562 1.938 20 2 20 2s10.594 2.781 1.022 28H22zM18 30C3.438 1.938 20 2 20 2S9.406 4.781 18.978 30H18z" fill="#ffeea3"></path><g><path d="M18 38.5c-.827 0-1.5-.673-1.5-1.5v-3.5h7V37c0 .827-.673 1.5-1.5 1.5h-4z" fill="#f5ce85"></path><path d="M23 34v3c0 .551-.449 1-1 1h-4c-.551 0-1-.449-1-1v-3h6m1-1h-8v4a2 2 0 002 2h4a2 2 0 002-2v-4z" fill="#967a44"></path></g></svg>