<svg viewBox="0 0 40 40" xmlns="http://www.w3.org/2000/svg"><path d="M7.93 32.87c-1.328 0-2.189-.093-2.524-.173C4 32.362 2.5 31.812 2.5 29.497c0-3.493 4.812-5.694 8.677-7.463 7.885-3.766 11.506-10.943 13.452-14.799.264-.522.497-.984.705-1.368 1.274-2.489 2.27-3.367 3.809-3.367 3.511 0 4.602 5.116 4.74 5.854-.663 2.741-9.95 18.308-13.959 21.535-2.73 2.198-7.986 2.981-11.994 2.981z" fill="#f5ce85"></path><path d="M29.143 3c2.987 0 4.035 4.384 4.228 5.339-.794 2.772-9.9 18.054-13.76 21.161-2.629 2.116-7.759 2.87-11.683 2.87-1.201 0-2.074-.08-2.406-.159C4.193 31.895 3 31.449 3 29.497c0-3.171 4.649-5.298 8.4-7.015 8.032-3.835 11.703-11.112 13.676-15.021.261-.517.492-.975.71-1.377C27.106 3.505 28.016 3 29.143 3m0-1c-1.903 0-3.028 1.246-4.247 3.628-1.739 3.195-5.136 11.754-13.926 15.951C6.792 23.491 2 25.727 2 29.497c0 2.798 2.046 3.391 3.29 3.687.448.107 1.401.186 2.638.186 3.495 0 9.258-.635 12.31-3.091 4.132-3.325 13.651-19.294 14.155-21.914 0 0-1.006-6.365-5.25-6.365z" fill="#967a44"></path><path d="M7.376 38.5c-4.059 0-5.876-2.466-5.876-4.909 0-3.272 2.878-4.613 7.236-6.642 3.554-1.655 7.978-3.715 12.125-7.614 4.385-4.122 6.025-8.38 7.343-11.801 1.45-3.763 2.325-6.034 5.812-6.034.183 0 4.484.071 4.484 6.24 0 4.093-2.651 8.767-10.132 17.859C21.148 32.376 14.073 38.5 7.376 38.5z" fill="#f78f8f"></path><path d="M34.016 2C34.179 2 38 2.065 38 7.74c0 3.954-2.612 8.534-9.978 17.492C20.852 31.966 13.877 38 7.376 38 3.662 38 2 35.785 2 33.59c0-2.822 2.382-4.063 6.947-6.188 3.587-1.67 8.05-3.748 12.257-7.703 4.468-4.2 6.131-8.517 7.467-11.986C30.197 3.752 30.999 2 34.016 2m0-1c-7.259 0-4.388 9.407-13.498 17.971S1 27.074 1 33.59C1 36.405 3.178 39 7.376 39c6.617 0 13.329-5.521 21.378-13.083C36.302 16.742 39 11.986 39 7.74 39 1.962 35.326 1 34.016 1z" fill="#c74343"></path><g><path d="M11.685 38.5c-4.232 0-5.185-2.691-5.185-3.635 0-2.656 1.957-3.926 2.905-4.125 1.666-.349 9.647-2.999 15.418-8.739 3.221-3.203 4.613-7.312 5.731-10.612C31.83 7.628 32.651 5.5 34.709 5.5c2.905 0 3.791 1.887 3.791 8.073 0 3.107-5.326 24.927-26.815 24.927z" fill="#f5ce85"></path><path d="M34.709 6C36.985 6 38 7.093 38 13.573 38 16.618 32.774 38 11.684 38 7.201 38 7 34.897 7 34.866c0-2.328 1.722-3.471 2.507-3.636 1.805-.378 9.753-2.991 15.669-8.874 3.304-3.286 4.717-7.456 5.852-10.806C32.229 8.005 32.992 6 34.709 6m0-1c-4.879 0-3.757 10.2-10.238 16.646-5.627 5.597-13.375 8.229-15.169 8.605C8.114 30.5 6 31.995 6 34.866 6 35.905 7.005 39 11.684 39 32.693 39 39 18.126 39 13.573 39 7.883 38.343 5 34.709 5z" fill="#967a44"></path></g><g><path d="M8 35.866c0-2.328 1.722-3.471 2.507-3.636 1.805-.378 9.753-2.991 15.669-8.875 3.304-3.286 4.717-7.456 5.852-10.806C33.229 9.005 33.992 7 35.709 7c.555 0 1.034.067 1.442.259C36.612 6.263 35.809 6 34.709 6c-1.716 0-2.479 2.005-3.68 5.549-1.135 3.35-2.548 7.52-5.852 10.806-5.916 5.884-13.864 8.497-15.669 8.875C8.722 31.394 7 32.538 7 34.866c0 .021.097 1.403 1.483 2.325C8.043 36.503 8 35.88 8 35.866z" fill="#ffeea3"></path></g></svg>