<svg viewBox="0 0 40 40" xmlns="http://www.w3.org/2000/svg"><path d="M30 26.5c-3.584 0-6.5-2.916-6.5-6.5s2.916-6.5 6.5-6.5 6.5 2.916 6.5 6.5-2.916 6.5-6.5 6.5zm0-11c-2.481 0-4.5 2.019-4.5 4.5s2.019 4.5 4.5 4.5 4.5-2.019 4.5-4.5-2.019-4.5-4.5-4.5z" fill="#c2e8ff"></path><path d="M30 14c3.308 0 6 2.692 6 6s-2.692 6-6 6-6-2.692-6-6 2.692-6 6-6m0 11c2.757 0 5-2.243 5-5s-2.243-5-5-5-5 2.243-5 5 2.243 5 5 5m0-12a7 7 0 100 14 7 7 0 000-14zm0 11a4 4 0 110-8 4 4 0 010 8z" fill="#7496c4"></path><path d="M9.5 38.5V38c0-1.93 1.57-3.5 3.5-3.5h11c1.93 0 3.5 1.57 3.5 3.5v.5h-18z" fill="#c2e8ff"></path><path d="M24 35c1.654 0 3 1.346 3 3H10c0-1.654 1.346-3 3-3h11m0-1H13a4 4 0 00-4 4v1h19v-1a4 4 0 00-4-4z" fill="#7496c4"></path><path d="M16.361 34.5a6.507 6.507 0 01-6.452-5.709L6.565 1.5h23.87l-3.344 27.291a6.507 6.507 0 01-6.452 5.709h-4.278z" fill="#c2e8ff"></path><path d="M29.87 2l-3.276 26.73A6.006 6.006 0 0120.639 34h-4.278a6.006 6.006 0 01-5.955-5.27L7.13 2h22.74M31 1H6l3.413 27.851A7 7 0 0016.361 35h4.278a7 7 0 006.948-6.149L31 1z" fill="#7496c4"></path><g><path d="M16.361 34.5a6.507 6.507 0 01-6.452-5.709L7.423 8.5h22.154l-2.486 20.291a6.507 6.507 0 01-6.452 5.709h-4.278z" fill="#a6714e"></path><path d="M29.012 9l-2.418 19.73A6.006 6.006 0 0120.639 34h-4.278a6.006 6.006 0 01-5.955-5.27L7.988 9h21.024m1.13-1H6.858l2.555 20.851A7 7 0 0016.361 35h4.278a7 7 0 006.948-6.149L30.142 8z" fill="#7a4f34"></path></g><path d="M13.5 27.5l-2-22" fill="none" stroke="#f7fcff" stroke-linecap="round" stroke-miterlimit="10"></path></svg>