<svg viewBox="0 0 40 40" xmlns="http://www.w3.org/2000/svg"><path d="M10.5 34.5V30c0-4.092 2.412-7.838 6.145-9.545l.994-.455-.994-.455C12.912 17.838 10.5 14.092 10.5 10V5.5h21V10c0 4.092-2.412 7.838-6.145 9.545l-.994.455.994.455C29.088 22.162 31.5 25.908 31.5 30v4.5h-21z" fill="#f2faff"></path><path d="M31 6v4c0 3.897-2.297 7.465-5.853 9.091L23.158 20l1.989.909A10.027 10.027 0 0131 30v4H11v-4c0-3.897 2.297-7.465 5.853-9.091L18.842 20l-1.989-.909A10.027 10.027 0 0111 10V6h20m1-1H10v5c0 4.445 2.642 8.265 6.437 10C12.642 21.735 10 25.555 10 30v5h22v-5c0-4.445-2.642-8.265-6.437-10C29.358 18.265 32 14.445 32 10V5z" fill="#788b9c"></path><path fill="#8bb7f0" d="M10.5 6.5v-2h-3v-3h27v3h-3v2z"></path><path d="M34 2v2h-3v2H11V4H8V2h26m1-1H7v4h3v2h22V5h3V1z" fill="#4e7ab5"></path><g><path d="M12 34h18c0-8.981-9-12-9-12s-9 3.081-9 12z" fill="#ffc49c"></path></g><g><path fill="#8bb7f0" d="M7.5 38.5v-3h3v-2h21v2h3v3z"></path><path d="M31 34v2h3v2H8v-2h3v-2h20m1-1H10v2H7v4h28v-4h-3v-2z" fill="#4e7ab5"></path></g></svg>