<svg viewBox="0 0 40 40" xmlns="http://www.w3.org/2000/svg"><path d="M20.488 37.283c-1.314-.465-2.978-1.19-2.988-4.285l-.002-.498h-.908l-.139.271c-.897 1.743-2.218 2.381-2.951 2.608V31.5h-.967l-.122.326c-.038.102-.885 2.313-2.911 2.635V30.5h-.913l-.147.234c-.041.066-.99 1.518-2.94 1.739v-3.936l-.462-.036c-.029-.002-2.589-.221-4.138-2.082 1.518-.21 4.59-.965 6.197-3.663l.07-.118v-.971h17.667v1.71c-.595.108-1.137.412-1.618.907-2.583 2.665-2.743 10.535-2.728 12.999z" fill="#8bb7f0"></path><path d="M24.333 22.167v.82c-.537.173-1.031.49-1.477.949-2.511 2.591-2.851 9.483-2.871 12.612-1.02-.465-1.978-1.295-1.985-3.552L17.997 32H16.285l-.279.542c-.591 1.149-1.375 1.765-2.006 2.094V31h-1.818l-.241.655c-.007.019-.597 1.582-1.941 2.145v-3.798L9.002 30h-.136l-.555-.001-.295.47c-.008.013-.662 1.032-2.017 1.4V29l-.004-.923-.919-.074c-.022-.002-1.76-.157-3.143-1.267 1.719-.389 4.179-1.351 5.592-3.724l.141-.236v-.609h16.667m1-1H6.667V22.5C4.643 25.899 0 26 0 26c1.583 2.75 5 3 5 3v4c2.611 0 3.864-2 3.864-2H9v4c2.778 0 3.88-3 3.88-3H13v4s2.458-.208 3.895-3H17c.014 4.083 2.801 4.51 4 5 0 0-.444-14.167 4.333-14.167v-2.666z" fill="#7496c4"></path><path d="M22.484 32.282c-1.314-.465-2.974-1.193-2.984-4.284l-.002-.498h-.875l-.147.229c-.945 1.47-2.287 1.744-2.975 1.782V25.5h-.967l-.122.326c-.038.102-.885 2.313-2.911 2.635V24.5h-.967l-.129.307c-.011.024-.991 2.297-2.903 2.648v-3.944l-.491-.011c-.035-.001-3.19-.096-4.821-1.987 1.412-.326 4.359-1.277 6.032-3.763l16.802 4.801a3.33 3.33 0 00-.401.358c-2 2.089-2.154 7.403-2.139 9.373z" fill="#8bb7f0"></path><path d="M8.425 18.328l15.632 4.466c-1.741 2.109-2.045 6.426-2.074 8.753-1.019-.465-1.975-1.296-1.983-3.551L19.997 27H18.349l-.295.459c-.62.964-1.414 1.344-2.054 1.484V25h-1.12l-.693.005-.244.646c-.03.078-.619 1.597-1.943 2.15V24.002L11.002 24h-.136l-.667-.001-.257.616c-.009.019-.687 1.56-1.942 2.154V24l-.002-.975L7.023 23c-.029 0-2.283-.073-3.837-1.24 1.538-.472 3.765-1.458 5.239-3.432M8 17.167c-2.023 3.399-6.667 4-6.667 4C2.917 23.917 7 24 7 24v4c2.611 0 3.864-3 3.864-3H11v4c2.778 0 3.88-3 3.88-3H15v4s.118.016.319.016c.702 0 2.41-.202 3.577-2.016H19c.014 4.083 2.801 4.51 4 5 0 0-.458-10.5 3.667-10.5L8 17.167z" fill="#7496c4"></path><path fill="#4e7ab5" d="M31.238 18.891L33 16v4zM30 20v-4l-2.667 2.667zM34 14v4l2.667-4zM31.042 11.375L31 16l2.659-4.102zM28 11v5l2.659-4.102z"></path><path d="M25.437 27.218c-1.467-.67-3.822-2.103-3.833-5.22l-.001-.498h-.875l-.147.229c-.934 1.452-2.292 2.213-3.08 2.555V20.5h-.967l-.122.326c-.038.102-.885 2.313-2.911 2.635V19.5h-.967l-.129.307c-.011.024-.991 2.297-2.903 2.648v-3.918l-.462-.036c-.029-.002-2.671-.228-4.212-2.173 1.449-.376 4.632-1.486 6.271-4.239l.07-.118V11h13.667v1.989c-.898 1.12-1.319 1.971-1.324 2.668-.01 1.572 1.958 1.77 4.042 1.979l.401.04c4.977.513 6.545 2.74 6.545 3.324-.002.003-.022.047-.083.108l-3.304 2.214c-.529-.64-1.696-1.822-3.113-1.822-.596 0-1.123.238-1.525.689-1.07 1.198-1.105 3.698-1.038 5.029z" fill="#8bb7f0"></path><path d="M24.333 11.5v1.315c-.908 1.159-1.319 2.044-1.324 2.839-.013 2.027 2.277 2.257 4.491 2.48l.401.041c4.154.428 5.681 2.053 6.022 2.651L31.2 22.66C30.533 21.94 29.394 21 28 21c-.742 0-1.398.296-1.898.856-.981 1.099-1.188 3.067-1.188 4.529-1.49-.837-2.801-2.126-2.809-4.389L22.101 21h-1.647l-.295.459c-.625.973-1.467 1.613-2.159 2.012V20h-1.818l-.241.655c-.007.019-.597 1.582-1.941 2.145v-3.798L13.002 19h-.136l-.667-.001-.257.616c-.008.019-.686 1.56-1.941 2.155V19l-.004-.923-.919-.074c-.024-.002-1.923-.172-3.33-1.426 1.689-.553 4.312-1.767 5.78-4.232l.141-.236V11.5h12.664m1-1H10.667v1.333C8.643 15.232 4 16 4 16c1.583 2.75 5 3 5 3v4c2.611 0 3.864-3 3.864-3H13v4c2.778 0 3.88-3 3.88-3H17v4s2.5-.667 4-3h.105c.014 4.083 3.696 5.51 4.895 6 0 0-.681-6 2-6 1.657 0 3 2 3 2l3.77-2.539c.133-.133.23-.294.23-.461 0-.832-1.722-3.278-6.996-3.821-2.154-.222-4.003-.327-3.995-1.519.004-.57.394-1.361 1.324-2.494V10.5z" fill="#7496c4"></path><path d="M18.479 7.603a11.431 11.431 0 00-2.874-.242c-2.708-.564-4.999-2.013-6.818-4.309.784-.269 2.13-.552 3.733-.552 2.19 0 5.176.523 7.067 2.99v2.013c-.26.038-.64.082-1.108.1z" fill="#8bb7f0"></path><path d="M12.52 3c2.037 0 4.794.47 6.567 2.663V7.06c-.166.016-.356.031-.566.04a11.874 11.874 0 00-2.875-.243c-2.329-.497-4.335-1.685-5.982-3.537.755-.178 1.76-.32 2.856-.32m0-1c-2.049 0-3.819.457-4.52.841 2.351 3.243 5.214 4.544 7.565 5.021a10.859 10.859 0 012.868.242c1.017-.034 1.653-.183 1.653-.183V5.324C18.2 2.742 15.133 2 12.52 2z" fill="#7496c4"></path><g><path d="M18.5 12.5h-.707l-.209.146c-1.702 1.702-3.271 2.416-4.083 2.696v-3.845l-2.5.003c-2.312-.006-4.673-1.309-6.378-3.503C5.203 7.33 7.313 5.5 13 5.5h.137l.118-.07c1.43-.851 4.834-.887 8.438-.927l.572-.004c1.122 0 2.305.079 3.514.236 3.519.454 3.662 1.761 3.723 2.319l.052.475.477-.03c.009-.001.28-.018.735-.018.893 0 2.665.067 4.503.514 3.622.723 4.23 1.107 4.23 1.699 0 .442-.439.674-.869.843-.091.036-.158.062-.224.109-.646.466-.983 1.539-1.34 2.676-.255.815-.684 2.178-1.066 2.178-1.186 0-1.993-.604-2.929-1.303-1.039-.777-2.215-1.657-4.061-1.697l-.201-.002c-1.009 0-3.532.159-5.147 1.633-.227.154-.533.454-.888.802-1.019.997-2.384 2.335-4.275 2.54V12.5z" fill="#c2e8ff"></path><path d="M22.268 4.999c1.096 0 2.256.078 3.448.232 3.128.404 3.241 1.437 3.29 1.879l.105.948.952-.059c.016-.001.274-.016.702-.016.871 0 2.598.065 4.428.508 2.337.466 3.617.847 3.801 1.124 0 0 .007.022.007.081 0 .073-.096.198-.552.376-.106.042-.216.085-.333.169-.781.563-1.143 1.714-1.525 2.932-.183.584-.482 1.532-.718 1.825-.952-.043-1.64-.557-2.501-1.201-1.044-.781-2.344-1.752-4.349-1.796l-.21-.002c-1.059 0-3.695.169-5.44 1.722-.293.215-.598.513-.947.855-.857.839-1.974 1.934-3.425 2.299V12H17.524l-.293.293c-1.247 1.247-2.413 1.938-3.23 2.311v-3.608L12.996 11l-.936.001L11.003 11c-2.038-.006-4.127-1.103-5.709-2.97C6.103 7.309 8.228 6 13 6h.275l.236-.141c1.314-.781 4.805-.819 8.182-.856L22.011 5l.257-.001m0-1L22 4c-3.894.043-7.412.055-9 1-7.389 0-9 3-9 3 2.058 2.839 4.804 3.994 7 4l1.06.001L13 12v4s2.312-.375 4.937-3H18v5c3.083 0 4.967-2.775 6-3.5 1.426-1.301 3.699-1.502 4.812-1.502L29 13c3.266.071 4.208 3 7 3 1.354 0 1.556-4.123 2.7-4.949.097-.07 1.3-.363 1.3-1.357s-.837-1.433-4.612-2.186c-1.864-.453-3.648-.527-4.623-.527C30.284 6.982 30 7 30 7c-.077-.704-.315-2.265-4.156-2.761a27.918 27.918 0 00-3.576-.24z" fill="#7496c4"></path></g><g><path d="M8 8.448c.57-.205 1.945-.925 4 .071 0 0-2.165 1.138-4-.071z" fill="#8bb7f0"></path><path d="M9.921 8.004c-.922 0-1.572.318-1.921.444a3.44 3.44 0 001.925.556c1.152 0 2.075-.485 2.075-.485-.798-.387-1.493-.515-2.079-.515z" fill="#7496c4"></path></g><g><path d="M26.003 7.5c-.477-.004-1.658-.469-2.829-1h2.825a.501.501 0 01.008 1h-.004z" fill="#4b6477"></path><path d="M24.459 6H21s3.831 1.991 5 2h.007A1 1 0 0026 6h-1.541z" fill="#36404d"></path></g><g><path d="M39.033 10.368c-.256-.562-.807-1.209-1.647-1.938 1.869.486 2.05.891 2.059.912.025.066.034.13.045.219.052.393-.202.651-.457.807z" fill="#4b6477"></path><path d="M35.355 7.495c1.134.795 3.345 2.482 3.345 3.556 0 0 .028-.007.075-.022.296-.094 1.346-.514 1.214-1.509-.015-.114-.027-.228-.078-.358l-.001-.001c-.299-.774-2.539-1.322-4.555-1.666z" fill="#36404d"></path></g></svg>