<svg viewBox="0 0 40 40" xmlns="http://www.w3.org/2000/svg"><path fill="none" stroke="#4e7ab5" stroke-linecap="round" stroke-miterlimit="10" d="M29.692 22.385L37.5 1.5"></path><path d="M20.5 17.5a3.01 3.01 0 01-2.715-1.744l-.146-.314-.347.027-.157.018c-.044.005-.089.013-.135.013-.481 0-.956-.102-1.41-.302l-.3-.132-.241.224A4.48 4.48 0 0112 16.5a4.465 4.465 0 01-1.777-.368l-.338-.146-.24.279A3.488 3.488 0 017 17.5c-1.93 0-3.5-1.57-3.5-3.5s1.57-3.5 3.5-3.5c.066 0 .13.01.194.019l.522.054.144-.336A4.495 4.495 0 0112 7.5a4.48 4.48 0 013.049 1.21l.241.224.3-.132c.454-.2.929-.302 1.41-.302a3.488 3.488 0 013.385 2.657l.084.34.349.037a2.986 2.986 0 012.683 2.966 3.005 3.005 0 01-3.001 3z" fill="#dbf2ff"></path><path d="M12 8c.998 0 1.96.382 2.709 1.077l.482.447.602-.266A2.98 2.98 0 0117 9a2.99 2.99 0 012.9 2.278l.169.679.696.074A2.487 2.487 0 0123 14.5c0 1.379-1.122 2.5-2.5 2.5a2.506 2.506 0 01-2.261-1.454l-.294-.634-.696.058c-.06.005-.119.013-.178.021-.026.003-.051.008-.071.009a2.98 2.98 0 01-1.207-.258l-.602-.266-.482.447A3.978 3.978 0 0112 16c-.545 0-1.076-.11-1.58-.327l-.676-.291-.479.558A2.99 2.99 0 017 17c-1.654 0-3-1.346-3-3s1.346-3 3-3c.046 0 .089.009.133.015.055.008.111.015.167.02l.732.074.289-.676A3.994 3.994 0 0112 8m0-1a5 5 0 00-4.6 3.04c-.133-.013-.263-.04-.4-.04a4 4 0 000 8 3.974 3.974 0 003.024-1.409A4.989 4.989 0 0012 17a4.969 4.969 0 003.389-1.344A3.977 3.977 0 0017 16c.114 0 .22-.024.332-.033A3.493 3.493 0 0024 14.5c0-1.806-1.373-3.275-3.13-3.463A3.993 3.993 0 0017 8c-.574 0-1.117.126-1.611.344A4.969 4.969 0 0012 7z" fill="#7496c4"></path><path d="M6.352 38.5a.997.997 0 01-.994-.896L3.055 15.5h20.891l-2.303 22.104a.996.996 0 01-.994.896H6.352z" fill="#dcd5f2"></path><path d="M23.39 16l-2.245 21.552a.498.498 0 01-.497.448H6.352a.498.498 0 01-.497-.448L3.61 16h19.78m1.11-1h-22l2.36 22.655A1.5 1.5 0 006.352 39h14.296a1.5 1.5 0 001.492-1.345L24.5 15z" fill="#8b75a1"></path><circle cx="13.5" cy="21.5" r="1.5" fill="#8b75a1"></circle><path d="M3 17.5c-.827 0-1.5-.673-1.5-1.5s.673-1.5 1.5-1.5h21c.827 0 1.5.673 1.5 1.5s-.673 1.5-1.5 1.5H3z" fill="#dcd5f2"></path><path d="M24 15c.551 0 1 .449 1 1s-.449 1-1 1H3c-.551 0-1-.449-1-1s.449-1 1-1h21m0-1H3a2 2 0 100 4h21a2 2 0 100-4z" fill="#8b75a1"></path><path fill="#dcd5f2" stroke="#8b75a1" stroke-linecap="round" stroke-miterlimit="10" d="M13.5 21.5l-8-14"></path><path d="M24.846 38.5c-2.159 0-4.346-1.73-4.346-5.038 0-6.174 5.353-10.166 6.49-10.944l4.479 1.89c-.062 1.796-.02 9.633 5.062 14.093H24.846z" fill="#f5ce85"></path><path d="M27.051 23.086l3.912 1.649c-.032 2.203.238 8.849 4.339 13.265H24.846C22.935 38 21 36.441 21 33.462c0-5.586 4.626-9.349 6.051-10.376m-.113-1.133S20 26.23 20 33.461C20 37.054 22.417 39 24.846 39H38c-6.74-4.523-6.013-14.918-6.013-14.918l-5.049-2.129z" fill="#967a44"></path><g><path d="M26.67 22.365l.654-1.539a2.142 2.142 0 012.813-1.134l1.043.442a2.149 2.149 0 011.135 2.813l-.654 1.538-4.991-2.12z" fill="#8bb7f0"></path><path d="M29.299 20.02c.22 0 .436.044.642.132l1.043.443c.404.172.717.491.882.898.164.407.16.854-.012 1.258l-.458 1.078-4.069-1.73.458-1.078a1.642 1.642 0 011.514-1.001m0-1a2.645 2.645 0 00-2.435 1.611l-.85 1.999 5.91 2.512.85-1.999a2.644 2.644 0 00-1.399-3.468l-1.043-.443a2.628 2.628 0 00-1.033-.212z" fill="#4e7ab5"></path></g><path d="M30.933 38.358h1.564s-2.141-.956-2.853-5.704c0 2.726.597 4.591 1.289 5.704zM25.365 38.358h2.289s-5.79-1.517-2.116-10.213c-3.461 5.567-1.758 8.6-.173 10.213z" fill="#967a44"></path></svg>