<svg viewBox="0 0 40 40" xmlns="http://www.w3.org/2000/svg"><path fill="#ffc49c" stroke="#a16a4a" stroke-linecap="round" stroke-miterlimit="10" d="M27.5 10.5v20.357"></path><path d="M27.5 38.5c-1.603 0-3.236-.752-3.915-1.105l1.939-7.163c.253-.936 1.065-1.589 1.976-1.589s1.723.653 1.976 1.589l1.939 7.163c-.679.353-2.312 1.105-3.915 1.105z" fill="#f5ce85"></path><path d="M27.5 29.143c.685 0 1.299.501 1.493 1.219l1.832 6.768c-.757.358-2.059.87-3.325.87s-2.568-.512-3.325-.871l1.832-6.768c.194-.717.808-1.218 1.493-1.218m0-1c-1.142 0-2.145.799-2.458 1.957L23 37.643S25.245 39 27.5 39s4.5-1.357 4.5-1.357L29.958 30.1c-.313-1.158-1.316-1.957-2.458-1.957z" fill="#967a44"></path><path fill="none" stroke="#967a44" stroke-miterlimit="10" d="M25 32.5h5"></path><path d="M18.8 8.493a.7.7 0 010-1.4c.7 0 .7.152.7.3 0 .473-.399 1.1-.7 1.1zm-5.6 0c-.301 0-.7-.627-.7-1.101 0-.147 0-.3.7-.3a.7.7 0 010 1.401z" fill="#deb974"></path><path d="M18.8 7.593c.063 0 .116.002.161.004a1.085 1.085 0 01-.223.386.2.2 0 01-.138-.19c0-.11.09-.2.2-.2m-5.6 0a.2.2 0 01.062.39 1.067 1.067 0 01-.222-.386c.045-.003.098-.004.16-.004m5.6-1a1.2 1.2 0 100 2.4c.663 0 1.2-.937 1.2-1.6s-.537-.8-1.2-.8zm-5.6 0c-.663 0-1.2.137-1.2.8s.537 1.6 1.2 1.6a1.2 1.2 0 100-2.4z" fill="#967a44"></path><path d="M10 27.5c-.827 0-1.5-.673-1.5-1.5v-6.5h3V26c0 .827-.673 1.5-1.5 1.5z" fill="#f5ce85"></path><path d="M11 20v6c0 .551-.449 1-1 1s-1-.449-1-1v-6h2m1-1H8v7a2 2 0 104 0v-7z" fill="#967a44"></path><path d="M23.812 21.5a2.015 2.015 0 01-1.738-.979l-.1-.145-1.889-3.125 2.629-1.588 1.439 2.381 2.016-1.218c.24-.146.514-.222.792-.222.544 0 1.036.277 1.316.742.212.351.275.764.177 1.161a1.53 1.53 0 01-.697.947l-2.9 1.753a2.011 2.011 0 01-1.045.293z" fill="#f5ce85"></path><path d="M22.545 16.349l.922 1.526.517.856.856-.517 1.588-.96a1.029 1.029 0 011.422.35c.143.237.185.515.119.784a1.025 1.025 0 01-.47.638l-2.901 1.753a1.518 1.518 0 01-2.095-.516l-.051-.082a1.562 1.562 0 00-.07-.096l-1.61-2.664 1.773-1.072m.339-1.373l-3.485 2.106 2.152 3.561c.02.033.047.059.068.091l.028.046a2.524 2.524 0 003.469.856l2.901-1.753a2.036 2.036 0 00-2.105-3.484l-1.588.96-1.44-2.383z" fill="#967a44"></path><path d="M19 38.5c-.827 0-1.5-.673-1.5-1.5v-8.5h-3V37c0 .827-.673 1.5-1.5 1.5s-1.5-.673-1.5-1.5V19.5h-3V18a5.506 5.506 0 015.302-5.496l.236.002.066-.009 4.081.005.174.019c.093.008.188.016.281.029a4.956 4.956 0 013.037 1.62c.577.654 1.332 1.914 1.709 2.566L20.5 18.507V37c0 .827-.673 1.5-1.5 1.5z" fill="#8bb7f0"></path><path d="M18.171 13l.003.003c.047.007.095.012.147.017.086.007.171.014.227.02l.032.007.033.005a4.426 4.426 0 012.69 1.449c.424.48.987 1.366 1.405 2.066l-2.23 1.368-.478.292V37c0 .551-.449 1-1 1s-1-.449-1-1v-9h-4v9c0 .551-.449 1-1 1s-1-.449-1-1V19H9v-1a5.006 5.006 0 014.641-4.987l.378-.007c.031-.001.062-.003.092-.006h4.06m0-1h-4.114c-.02 0-.038.005-.057.006V12a6 6 0 00-6 6v2h3v17a2 2 0 104 0v-8h2v8a2 2 0 104 0V18.787l3.06-1.877s-1.163-2.114-2.007-3.071a5.415 5.415 0 00-3.298-1.777l-.044-.007a5.381 5.381 0 00-.314-.032c-.075-.006-.148-.023-.226-.023z" fill="#4e7ab5"></path><g><path d="M16 14.5c-1.003 0-1.39-.488-1.5-.673v-2.828l-.165-.148A2.475 2.475 0 0113.5 9V4.3h5V9c0 .707-.297 1.364-.835 1.851l-.165.148v2.83c-.105.177-.491.671-1.5.671z" fill="#f5ce85"></path><path d="M18 4.8V9c0 .565-.238 1.09-.669 1.478l-.331.298v2.888c-.123.134-.408.336-1 .336-.602 0-.886-.208-1-.328v-2.896l-.331-.298A1.971 1.971 0 0114 9V4.8h4m1-1h-6V9c0 .885.39 1.672 1 2.221v2.724s.399 1.054 2 1.054 2-1.054 2-1.054v-2.724c.61-.549 1-1.336 1-2.221V3.8z" fill="#967a44"></path></g><path fill="#8bb7f0" d="M14 13h4v4h-4z"></path><g><path d="M18.5 8.078V5.72l-1.808-.666-.151.04c-.001 0-1.591.414-2.655.665l-.386.091v2.229h-.198c-.255-.521-.802-1.809-.802-3.301 0-1.711 1.417-3.211 3.033-3.211 1.74 0 2.247.938 2.268.978l.14.27.308.008c.831 0 1.252.847 1.252 2.516 0 1.09-.538 2.249-.795 2.74H18.5z" fill="#a6714e"></path><path d="M15.533 2.067c1.401 0 1.812.687 1.814.687l.272.567h.629c.654.001.752 1.264.752 2.017v.034l-.654-.242-1.333-.492-.295-.108-.304.079s-1.583.413-2.643.662l-.733.172A5.976 5.976 0 0113 4.778c0-1.444 1.184-2.711 2.533-2.711m0-1C13.606 1.067 12 2.804 12 4.778c0 2.107 1 3.8 1 3.8h1V6.245c1.07-.252 2.667-.668 2.667-.668L18 6.069v2.51h1s1-1.66 1-3.24c0-2.496-.932-3.016-1.752-3.016 0-.001-.602-1.256-2.715-1.256z" fill="#7a4f34"></path></g><path fill="none" stroke="#4e7ab5" stroke-miterlimit="10" d="M11 23.5h10"></path></svg>