<svg viewBox="0 0 40 40" xmlns="http://www.w3.org/2000/svg"><path fill="#ffc49c" stroke="#a16a4a" stroke-linecap="round" stroke-miterlimit="10" d="M28.5 10.5v20.357"></path><path d="M28.5 38.5c-1.603 0-3.236-.752-3.915-1.105l1.939-7.163c.253-.936 1.065-1.589 1.976-1.589s1.723.653 1.976 1.589l1.939 7.163c-.679.353-2.312 1.105-3.915 1.105z" fill="#f5ce85"></path><path d="M28.5 29.143c.685 0 1.299.501 1.493 1.219l1.832 6.768c-.757.358-2.059.87-3.325.87s-2.568-.512-3.325-.871l1.832-6.768c.194-.717.808-1.218 1.493-1.218m0-1c-1.142 0-2.145.799-2.458 1.957L24 37.643S26.245 39 28.5 39s4.5-1.357 4.5-1.357L30.958 30.1c-.313-1.158-1.316-1.957-2.458-1.957z" fill="#967a44"></path><path fill="none" stroke="#967a44" stroke-miterlimit="10" d="M26 32.5h5"></path><path d="M12.5 27.5a1 1 0 01-1-1v-10h2v10a1 1 0 01-1 1z" fill="#f5ce85"></path><path d="M13 17v9.5a.5.5 0 01-1 0V17h1m1-1h-3v10.5a1.5 1.5 0 003 0V16z" fill="#967a44"></path><path d="M24.885 21.078a1.633 1.633 0 01-1.412-.798l-2.735-4.548 1.714-1.03 2.553 4.244 2.76-1.66a.993.993 0 011.372.341 1 1 0 01-.342 1.372l-3.063 1.843a1.64 1.64 0 01-.847.236z" fill="#f5ce85"></path><path d="M22.28 15.388l2.037 3.387.515.857.857-.515 2.331-1.402a.497.497 0 01.686.171.5.5 0 01-.171.686l-3.064 1.843a1.147 1.147 0 01-1.571-.391l-.441-.733-2.037-3.387.858-.516m.342-1.373l-2.571 1.546 2.552 4.244.441.732a2.143 2.143 0 002.944.733l3.064-1.843a1.5 1.5 0 10-1.547-2.57l-2.331 1.402-2.552-4.244z" fill="#967a44"></path><path d="M16 38.5c-.827 0-1.5-.673-1.5-1.5V26.5h3V37c0 .827-.673 1.5-1.5 1.5z" fill="#f5ce85"></path><path d="M17 27v10c0 .551-.449 1-1 1s-1-.449-1-1V27h2m1-1h-4v11a2 2 0 104 0V26z" fill="#967a44"></path><path d="M19 38.5c-.827 0-1.5-.673-1.5-1.5V26.5h3V37c0 .827-.673 1.5-1.5 1.5z" fill="#f5ce85"></path><path d="M20 27v10c0 .551-.449 1-1 1s-1-.449-1-1V27h2m1-1h-4v11a2 2 0 104 0V26z" fill="#967a44"></path><path d="M13.5 23.5v-7h-2v-.564a3.44 3.44 0 013.307-3.434l4.848-.002a2.84 2.84 0 012.494 1.479l1.193 2.186-1.842 1.227V23.5h-8z" fill="#8bb7f0"></path><path d="M19.655 13c.857 0 1.644.467 2.054 1.219l.974 1.784-1.238.824-.445.297V23h-7v-7h-2v-.065a2.939 2.939 0 012.692-2.925l.327-.006.084-.004h4.552m0-1h-4.617c-.013 0-.025.004-.038.004V12h-.065A3.935 3.935 0 0011 15.935V17h2v7h9v-6.341l2-1.332-1.413-2.588A3.341 3.341 0 0019.655 12z" fill="#4e7ab5"></path><g><path d="M17.5 29.5c-3.297 0-5.901-.805-6.882-1.155l2.748-8.702h8.268l2.748 8.702c-.981.35-3.585 1.155-6.882 1.155z" fill="#fff"></path><path d="M21.267 20.143l2.491 7.887c-1.165.378-3.444.97-6.258.97-2.8 0-5.088-.594-6.257-.971l2.49-7.886h7.534m.733-1h-9l-3 9.5S13.138 30 17.5 30s7.5-1.357 7.5-1.357l-3-9.5z" fill="#4e7ab5"></path></g><g><path d="M17.5 14.5c-.648 0-.912-.291-1-.428v-2.737l-.284-.136A2.974 2.974 0 0114.5 8.5V4.1h6v4.4a2.974 2.974 0 01-1.716 2.699l-.284.136v2.739c-.083.13-.346.426-1 .426z" fill="#f5ce85"></path><path d="M20 4.6v3.9c0 .965-.548 1.826-1.431 2.248L18 11.02v2.859c-.081.058-.232.121-.5.121s-.419-.063-.5-.121V11.02l-.569-.272A2.478 2.478 0 0115 8.5V4.6h5m1-1h-7v4.9a3.49 3.49 0 002 3.15v2.542s.299.808 1.5.808 1.5-.808 1.5-.808V11.65a3.49 3.49 0 002-3.15V3.6z" fill="#967a44"></path></g><g><path d="M20.529 7.229l-1.407-2.462-.462.426c-.02.019-1.944 1.779-3.66 1.779h-.622l.93 4.212-3.804-1.521C11.592 5.545 13.302 1.5 17 1.5c1.076 0 1.556.732 1.575.764l.147.231L19 2.5c3.399 0 4.289 5.673 4.465 7.176l-3.78 1.512.844-3.959z" fill="#ffc49c"></path><path d="M17 2c.772 0 1.12.483 1.146.52l.292.48H19c2.726 0 3.655 4.558 3.915 6.357l-2.546 1.019.609-2.856.08-.373-.189-.331-1-1.75-.624-1.089-.923.85c-.498.457-2.063 1.645-3.322 1.645h-1.245l.268 1.216.592 2.681-2.598-1.039C12.166 6.331 13.337 2 17 2m0-1c-4.216 0-6 4.592-6 9l5 2-1-4.528c1.939 0 4-1.912 4-1.912l1 1.75L19 12l5-2s-.586-8-5-8c0 0-.608-1-2-1z" fill="#a16a4a"></path></g><path fill="#8bb7f0" d="M15.429 13.214H19.5v4.071h-4.071z"></path><path d="M15 13l1-1s.44 1.214 1.464 1.214L16 16l-1-3zM20 13l-1-1s-.44 1.214-1.464 1.214L19 16l1-3z" fill="#fff"></path></svg>