<svg viewBox="0 0 40 40" xmlns="http://www.w3.org/2000/svg"><path fill="#bae0bd" d="M6.5 37.5v-35h18.293l8.707 8.707V37.5z"></path><path d="M24.586 3L33 11.414V37H7V3h17.586M25 2H6v36h28V11l-9-9z" fill="#5e9c76"></path><path fill="#fff" d="M24.5 11.5v-9h.293l8.707 8.707v.293z"></path><path d="M25 3.414L32.586 11H25V3.414M25 2h-1v10h10v-1l-9-9z" fill="#5e9c76"></path><path d="M10.401 18.242v3.238h1.643v-3.238h1.571v8.084h-1.571v-3.382h-1.643v3.382h-1.57v-8.084h1.57zM16.186 19.693h-1.427v-1.451h4.438v1.451h-1.439v6.633h-1.571v-6.633zM25.268 23.496a37.913 37.913 0 01-.084-2.675h-.024c-.144.863-.36 1.858-.516 2.482l-.708 2.891h-1.104l-.671-2.843a32.464 32.464 0 01-.504-2.53h-.024c-.024.875-.084 1.895-.12 2.698l-.144 2.807h-1.343l.576-8.084h1.667l.647 2.927c.216 1.02.42 1.919.564 2.83h.036c.12-.899.3-1.811.504-2.83l.647-2.927h1.655l.492 8.084h-1.403l-.143-2.83zM28.271 18.242h1.571v6.753h2.063v1.331h-3.634v-8.084z" fill="#44825d"></path></svg>