<svg viewBox="0 0 40 40" xmlns="http://www.w3.org/2000/svg"><path d="M30.5 26.5c-1.654 0-3-1.346-3-3s1.346-3 3-3c2.49 0 3 .732 3 1.833 0 1.819-1.455 4.167-3 4.167z" fill="#e8d47b"></path><path d="M30.5 21c2.5 0 2.5.739 2.5 1.333C33 23.848 31.707 26 30.5 26c-1.379 0-2.5-1.121-2.5-2.5s1.121-2.5 2.5-2.5m0-1a3.5 3.5 0 100 7c1.933 0 3.5-2.734 3.5-4.667C34 20.4 32.433 20 30.5 20z" fill="#ba9b48"></path><path d="M9.5 26.5c-1.545 0-3-2.348-3-4.167 0-1.101.51-1.833 3-1.833 1.654 0 3 1.346 3 3s-1.346 3-3 3z" fill="#e8d47b"></path><path d="M9.5 21c1.379 0 2.5 1.121 2.5 2.5S10.879 26 9.5 26C8.293 26 7 23.848 7 22.333 7 21.739 7 21 9.5 21m0-1c-1.933 0-3.5.4-3.5 2.333C6 24.266 7.567 27 9.5 27a3.5 3.5 0 100-7z" fill="#ba9b48"></path><path d="M20 38.5a4.434 4.434 0 01-3.315-1.483l-.084-.092-.118-.042C12.306 35.395 9.5 31.423 9.5 27V12.381a4.747 4.747 0 014.742-4.742h11.516a4.747 4.747 0 014.742 4.742V27c0 4.423-2.806 8.395-6.982 9.883l-.118.042-.084.092A4.438 4.438 0 0120 38.5z" fill="#ffeea3"></path><path d="M25.758 8.139A4.247 4.247 0 0130 12.381V27c0 4.213-2.672 7.995-6.65 9.412l-.236.084-.168.185a3.948 3.948 0 01-5.892-.001l-.168-.185-.236-.084A10.014 10.014 0 0110 27V12.381a4.247 4.247 0 014.242-4.242h11.516m0-1H14.242A5.242 5.242 0 009 12.381V27c0 4.78 3.055 8.837 7.314 10.354C17.229 38.358 18.534 39 20 39s2.771-.642 3.686-1.647C27.945 35.836 31 31.78 31 27V12.381a5.242 5.242 0 00-5.242-5.242z" fill="#ba9b48"></path><g><path d="M30.5 24.5v-4.082c0-3.816-2.283-5.918-6.429-5.918-6.318 0-9.659-3.788-9.692-3.826l-.224-.26-.323.115c-.044.016-4.332 1.614-4.332 7.281v6.69h-.153C8.791 22.998 6.5 16.605 6.5 13.226c0-6.752 5.155-8.271 6.961-8.271h.249l.149-.198C14.779 3.54 16.931 1.5 21 1.5c7.824 0 12.5 5.782 12.5 11.373 0 4.3-2.272 10.226-2.836 11.627H30.5z" fill="#e0ac89"></path><path d="M21 2c7.794 0 12 5.602 12 10.873 0 3.005-1.144 6.846-2 9.299v-1.755C31 16.279 28.539 14 24.072 14c-6.069 0-9.185-3.504-9.312-3.65l-.448-.523-.648.232C13.473 10.126 9 11.794 9 17.81v4.193c-.859-2.575-2-6.437-2-8.777 0-6.344 4.785-7.772 6.461-7.772h.498l.3-.397C15.122 3.916 17.146 2 21 2m0-1c-4.794 0-7.007 2.752-7.539 3.454C11.357 4.454 6 6.243 6 13.226 6 17.191 9 25 9 25h1v-7.19c0-5.38 4-6.81 4-6.81s3.425 4 10.072 4C27.108 15 30 16.154 30 20.418V25h1s3-7.083 3-12.126C34 7.13 29.327 1 21 1z" fill="#a16a4a"></path></g><circle cx="25.5" cy="24.5" r="1.5" fill="#36404d"></circle><circle cx="14.5" cy="24.5" r="1.5" fill="#36404d"></circle></svg>