<svg viewBox="0 0 40 40" xmlns="http://www.w3.org/2000/svg"><path d="M4.819 8.593c-.309 0-.723-.387-.854-1.011-.081-.386-.029-.763.137-1.008.082-.12.18-.191.292-.21h.011c.378 0 .784.385.914 1.003.079.38.029.753-.135 1a.482.482 0 01-.299.22l-.066.006z" fill="#f5ce85"></path><path d="M4.499 6.88c.098.07.262.267.33.591.062.293.004.502-.047.595-.099-.07-.261-.267-.328-.585-.061-.295-.004-.507.045-.601m-.033-1.024a.866.866 0 00-.16.015c-.644.113-1.016.924-.831 1.814.171.815.752 1.408 1.344 1.408a.926.926 0 00.157-.014c.641-.119 1.019-.929.831-1.816-.171-.814-.748-1.407-1.341-1.407z" fill="#967a44"></path><path d="M2.391 11.021c-.309 0-.723-.387-.854-1.011-.08-.386-.029-.763.137-1.009.082-.12.18-.191.292-.21h.011c.378 0 .784.385.914 1.003.081.381.031.754-.134 1.001a.482.482 0 01-.299.22l-.067.006z" fill="#f5ce85"></path><path d="M2.072 9.308c.098.069.261.267.329.591.062.293.004.502-.047.595-.099-.071-.261-.267-.328-.586-.061-.295-.003-.507.046-.6m-.033-1.025a.866.866 0 00-.16.015c-.645.113-1.016.924-.831 1.814.171.815.751 1.408 1.343 1.408a.926.926 0 00.157-.014c.642-.119 1.02-.929.831-1.816-.171-.813-.748-1.407-1.34-1.407z" fill="#967a44"></path><path d="M7.264 7c-.606-.001-1.118-.698-1.118-1.522 0-.826.512-1.523 1.118-1.523.607 0 1.118.697 1.119 1.522 0 .824-.512 1.522-1.119 1.523z" fill="#f5ce85"></path><path d="M7.268 4.454c.289 0 .614.437.614 1.021 0 .586-.327 1.024-.617 1.025-.292 0-.619-.438-.619-1.023 0-.309.093-.603.255-.806.065-.081.198-.217.365-.217h.002m0-1h-.004c-.893 0-1.618.907-1.618 2.023 0 1.115.723 2.022 1.618 2.023.893-.002 1.618-.908 1.618-2.025-.001-1.116-.722-2.021-1.614-2.021z" fill="#967a44"></path><path d="M10.828 38.5c-2.811 0-4.328-2.588-4.328-5.023 0-3.394-.922-5.278-1.898-7.272C3.568 24.092 2.5 21.908 2.5 17.571c0-7.489 7.605-8.071 9.936-8.071 1.518 0 4.064.446 4.064 3.434 0 3.619-1.72 5.595-3.103 7.183-1.018 1.17-1.897 2.18-1.897 3.524 0 1.738.921 3.28 1.896 4.912 1.034 1.73 2.104 3.52 2.104 5.65 0 2.731-1.703 4.297-4.672 4.297z" fill="#f5ce85"></path><path d="M12.436 10c2.365 0 3.564.987 3.564 2.934 0 3.432-1.583 5.25-2.98 6.854C11.981 20.982 11 22.11 11 23.641c0 1.876 1 3.55 1.967 5.168 1 1.672 2.033 3.401 2.033 5.394C15 36.651 13.518 38 10.828 38 8.342 38 7 35.669 7 33.477c0-3.51-.991-5.534-1.949-7.493C4.043 23.923 3 21.793 3 17.572 3 10.546 10.223 10 12.436 10m0-1C9.771 9 2 9.834 2 17.572c0 8.473 4 8.996 4 15.905C6 36.098 7.684 39 10.828 39 14.073 39 16 37.232 16 34.203c0-4.288-4-7.164-4-10.562 0-2.877 5-4.342 5-10.707C17 9.402 13.862 9 12.436 9z" fill="#967a44"></path><path d="M15.91 7.438c-.075 0-.149-.005-.224-.016-.463-.062-.869-.319-1.176-.741-.458-.63-.632-1.561-.465-2.49.275-1.508 1.386-2.691 2.53-2.691.074 0 .148.005.222.015.462.063.869.319 1.175.742.458.631.632 1.562.464 2.49-.273 1.509-1.383 2.691-2.526 2.691z" fill="#f5ce85"></path><path d="M16.574 2c.052 0 .103.003.155.01.409.056.682.325.839.541.38.523.52 1.31.376 2.106-.228 1.257-1.141 2.28-2.034 2.28-.052 0-.104-.003-.158-.011-.409-.056-.682-.324-.838-.539-.38-.522-.521-1.31-.378-2.105C14.766 3.024 15.68 2 16.574 2m0-1c-1.383 0-2.698 1.323-3.022 3.103-.342 1.902.579 3.613 2.066 3.815.097.013.195.02.292.02 1.382 0 2.695-1.321 3.018-3.102.344-1.904-.579-3.614-2.064-3.816a2.01 2.01 0 00-.29-.02z" fill="#967a44"></path><path d="M10.956 6.97c-.356-.033-.613-.262-.765-.447-.394-.478-.581-1.232-.502-2.018.12-1.211.862-2.196 1.653-2.196.444.038.7.264.852.449.395.478.583 1.234.507 2.022-.123 1.208-.866 2.193-1.656 2.193l-.089-.003z" fill="#f5ce85"></path><path d="M11.342 2.81l.043.002c.148.014.29.103.424.265.307.372.458 1.006.395 1.652-.104 1.028-.693 1.744-1.198 1.744h-.002c-.149-.014-.293-.104-.427-.267-.306-.372-.455-1.004-.39-1.652.102-1.028.69-1.744 1.155-1.744m0-1c-1.055 0-2.001 1.147-2.15 2.645-.157 1.562.611 2.908 1.718 3.013.045.004.09.006.134.006 1.052 0 2.002-1.147 2.154-2.645.152-1.56-.613-2.908-1.72-3.013a1.564 1.564 0 00-.136-.006z" fill="#967a44"></path><g><path d="M35.114 8.587c-.142-.026-.24-.134-.298-.22-.165-.247-.215-.621-.134-1 .131-.625.543-1.011.851-1.011a.473.473 0 01.365.218c.166.245.217.622.137 1.009-.131.624-.545 1.011-.854 1.011 0-.001-.045-.003-.067-.007z" fill="#f5ce85"></path><path d="M35.501 6.88c.049.093.106.305.045.599a1.113 1.113 0 01-.321.6c-.052-.086-.119-.302-.054-.611.068-.322.232-.519.33-.588m.033-1.024c-.592 0-1.17.594-1.34 1.407-.189.887.189 1.697.831 1.816.052.01.105.014.157.014.592 0 1.172-.594 1.343-1.408.185-.89-.186-1.701-.831-1.814a.875.875 0 00-.16-.015z" fill="#967a44"></path></g><g><path d="M37.542 11.015c-.142-.026-.24-.134-.298-.22-.165-.247-.215-.621-.134-1 .131-.625.543-1.011.851-1.011a.473.473 0 01.365.218c.166.245.217.622.137 1.009-.131.624-.545 1.011-.854 1.011 0-.001-.045-.003-.067-.007z" fill="#f5ce85"></path><path d="M37.928 9.308c.049.093.106.305.045.599a1.113 1.113 0 01-.321.6c-.052-.086-.119-.302-.054-.611.069-.322.233-.519.33-.588m.033-1.025c-.592 0-1.17.594-1.34 1.407-.189.887.189 1.697.831 1.816.052.01.105.014.157.014.592 0 1.172-.594 1.343-1.408.185-.89-.186-1.701-.831-1.814a.858.858 0 00-.16-.015z" fill="#967a44"></path></g><g><path d="M32.736 7c-.606-.001-1.119-.7-1.119-1.525.001-.824.511-1.521 1.115-1.521.61 0 1.122.698 1.122 1.523S33.342 6.999 32.736 7z" fill="#f5ce85"></path><path d="M32.736 4.454c.292 0 .618.438.618 1.023S33.027 6.5 32.737 6.5c-.293-.001-.62-.439-.62-1.023.001-.585.325-1.023.617-1.023h.002m0-1h-.004c-.891 0-1.613.905-1.614 2.021 0 1.117.726 2.023 1.618 2.025.896-.002 1.618-.908 1.618-2.023 0-1.116-.724-2.023-1.618-2.023z" fill="#967a44"></path></g><g><path d="M29.172 38.5c-2.969 0-4.672-1.566-4.672-4.297 0-2.13 1.069-3.92 2.104-5.65.975-1.632 1.896-3.174 1.896-4.912 0-1.344-.879-2.354-1.897-3.524-1.382-1.587-3.103-3.563-3.103-7.183 0-2.988 2.546-3.434 4.064-3.434 2.331 0 9.936.582 9.936 8.071 0 4.337-1.068 6.521-2.102 8.633-.976 1.995-1.898 3.878-1.898 7.272 0 2.436-1.517 5.024-4.328 5.024z" fill="#f5ce85"></path><path d="M27.564 10c.991 0 3.535.124 5.758 1.273 2.44 1.261 3.678 3.38 3.678 6.299 0 4.221-1.043 6.352-2.051 8.413C33.991 27.942 33 29.967 33 33.477 33 35.669 31.658 38 29.172 38 26.482 38 25 36.651 25 34.203c0-1.993 1.033-3.721 2.033-5.394C28 27.191 29 25.517 29 23.641c0-1.531-.981-2.659-2.02-3.852-1.397-1.605-2.98-3.423-2.98-6.855C24 10.987 25.199 10 27.564 10m0-1C26.138 9 23 9.402 23 12.934c0 6.365 5 7.829 5 10.707 0 3.398-4 6.274-4 10.562C24 37.232 25.927 39 29.172 39 32.316 39 34 36.098 34 33.477c0-6.909 4-7.432 4-15.905C38 9.834 30.229 9 27.564 9z" fill="#967a44"></path></g><g><path d="M24.09 7.438c-1.143 0-2.252-1.182-2.526-2.691-.168-.928.006-1.859.464-2.49.307-.422.713-.679 1.175-.742.074-.01.148-.015.222-.015 1.144 0 2.255 1.183 2.53 2.692.167.928-.007 1.859-.465 2.489-.307.422-.713.678-1.176.741a1.534 1.534 0 01-.224.016z" fill="#f5ce85"></path><path d="M23.426 2c.895 0 1.809 1.024 2.037 2.28.143.798.002 1.585-.378 2.108-.157.215-.429.484-.84.539a1.169 1.169 0 01-.156.011c-.893 0-1.806-1.023-2.034-2.279-.144-.797-.003-1.585.376-2.107.157-.216.429-.485.838-.541.053-.008.105-.011.157-.011m0-1a2.03 2.03 0 00-.29.02c-1.484.203-2.408 1.912-2.064 3.816.323 1.78 1.636 3.102 3.018 3.102.097 0 .195-.007.292-.02 1.486-.202 2.408-1.912 2.066-3.815C26.123 2.323 24.808 1 23.426 1z" fill="#967a44"></path></g><g><path d="M28.957 6.974c-.791 0-1.534-.985-1.657-2.196-.077-.786.112-1.542.507-2.02.152-.185.407-.411.762-.445h.006c.878 0 1.616.983 1.736 2.191.079.786-.108 1.541-.501 2.019-.152.185-.409.414-.766.447l-.087.004z" fill="#f5ce85"></path><path d="M28.658 2.81c.464 0 1.053.716 1.155 1.745.065.646-.085 1.279-.39 1.65-.134.163-.278.253-.467.269-.465 0-1.055-.717-1.159-1.742-.063-.649.088-1.284.395-1.656.133-.162.276-.251.423-.264l.043-.002m0-1c-.045 0-.091.002-.137.006-1.107.104-1.872 1.453-1.72 3.013.152 1.498 1.102 2.645 2.154 2.645.045 0 .089-.002.134-.006 1.107-.104 1.875-1.451 1.718-3.013-.147-1.498-1.094-2.645-2.149-2.645z" fill="#967a44"></path></g></svg>