<svg viewBox="0 0 40 40" xmlns="http://www.w3.org/2000/svg"><path fill="#f5ce85" d="M27.788 6.12l6.261-1.704 1.027 3.773-6.261 1.704z"></path><path d="M33.698 5.03l.764 2.808-5.296 1.441-.764-2.808 5.296-1.441m.702-1.228l-7.226 1.967 1.289 4.738L35.69 8.54 34.4 3.802z" fill="#ba9b48"></path><path d="M36.508 10.988a2.005 2.005 0 01-1.837-1.192l-2.419-5.491a1.982 1.982 0 01-.031-1.529A1.984 1.984 0 0134.075 1.5c.797 0 1.518.468 1.837 1.192l2.419 5.491a2.004 2.004 0 01-1.024 2.637 1.961 1.961 0 01-.799.168z" fill="#fff9de"></path><path d="M34.075 2c.599 0 1.14.351 1.38.894l2.419 5.491a1.501 1.501 0 01-1.366 2.103 1.506 1.506 0 01-1.38-.894l-2.419-5.491A1.501 1.501 0 0134.075 2m0-1c-.335 0-.676.068-1.001.211a2.508 2.508 0 00-1.28 3.296l2.419 5.491a2.509 2.509 0 003.296 1.28 2.508 2.508 0 001.28-3.296L36.37 2.491A2.509 2.509 0 0034.075 1z" fill="#ba9b48"></path><path d="M9.233 38.5c-.987 0-1.921-.993-2.38-2.529a4.186 4.186 0 00-2.824-2.824c-1.536-.459-2.529-1.393-2.529-2.38C1.5 29.432 3.351 28.5 6 28.5l.108.001c1.42 0 2.746-.998 3.529-1.931L25.975 7.054l-.302-.698c-.209-.459-.213-1.015-.015-1.536.202-.529.576-.937 1.054-1.148a2.04 2.04 0 012.681 1.04l.918 2.627c.444 1.012-.003 1.821-.455 2.329L12.834 29.812c-.835.985-1.334 2.226-1.334 3.319V34c0 2.649-.932 4.5-2.267 4.5z" fill="#fff9de"></path><path d="M27.525 4c.601 0 1.145.345 1.396.883l.918 2.622.013.037.016.036c.259.588.13 1.179-.401 1.777L12.453 29.488C11.543 30.561 11 31.923 11 33.131V34c0 2.28-.76 4-1.767 4-.749 0-1.513-.873-1.901-2.172a4.688 4.688 0 00-3.161-3.161C2.873 32.28 2 31.516 2 30.767 2 29.759 3.72 29 6 29l.101.001h.051c1.949 0 3.453-1.615 3.868-2.111L26.16 7.611l.395-.472-.244-.566-.188-.435c-.148-.324-.147-.751.002-1.142.151-.398.439-.714.788-.868.195-.085.401-.128.612-.128m0-1c-.34 0-.685.069-1.014.214-1.275.562-1.828 2.174-1.297 3.34l.179.416L9.254 26.248c-.75.896-1.933 1.753-3.101 1.753h-.036L6 28c-2.798 0-5 1.018-5 2.767 0 1.261 1.179 2.35 2.886 2.859a3.71 3.71 0 012.488 2.488C6.884 37.821 7.972 39 9.233 39 10.982 39 12 36.798 12 34v-.869c0-1.065.527-2.184 1.216-2.997L30.231 10c.749-.842.988-1.838.553-2.826l-.934-2.663A2.54 2.54 0 0027.525 3z" fill="#ba9b48"></path><g><path d="M5.2 31a3.776 3.776 0 00-2.797 1.246c.491.414 1.131.756 1.883.98a3.71 3.71 0 012.488 2.488c.224.752.566 1.391.98 1.883A3.776 3.776 0 009 34.8 3.8 3.8 0 005.2 31z" fill="#f5ce85"></path></g><g><path d="M27.525 4c.601 0 1.145.345 1.396.883l.918 2.622.013.037.016.036c.259.588.13 1.179-.401 1.777L12.453 29.488C11.543 30.561 11 31.923 11 33.131V34c0 2.28-.76 4-1.767 4-.749 0-1.513-.873-1.901-2.172a4.688 4.688 0 00-3.161-3.161C2.873 32.28 2 31.516 2 30.767 2 29.759 3.72 29 6 29l.101.001h.051c1.949 0 3.453-1.615 3.868-2.111L26.16 7.611l.395-.472-.244-.566-.191-.441c-.14-.302-.136-.733.012-1.126.153-.406.438-.726.781-.878.195-.085.401-.128.612-.128m0-1c-.34 0-.685.069-1.014.214-1.275.562-1.817 2.221-1.297 3.34l.179.416L9.254 26.248c-.75.896-1.933 1.753-3.101 1.753h-.036L6 28c-2.798 0-5 1.018-5 2.767 0 1.261 1.179 2.35 2.886 2.859a3.71 3.71 0 012.488 2.488C6.884 37.821 7.972 39 9.233 39 10.982 39 12 36.798 12 34v-.869c0-1.065.527-2.184 1.216-2.997L30.231 10c.749-.842.988-1.838.553-2.826l-.934-2.663A2.54 2.54 0 0027.525 3z" fill="#ba9b48"></path></g></svg>