<svg viewBox="0 0 40 40" xmlns="http://www.w3.org/2000/svg"><path d="M30.128 27.412c-.48-.627-1.629-2.307-1.629-4.018 0-1.84.911-2.895 2.5-2.895s2.5 1.055 2.5 2.895c.001 2.502-2.487 3.679-3.371 4.018z" fill="#f76d6d"></path><path d="M31 21c1.308 0 2 .828 2 2.394 0 1.943-1.735 2.982-2.697 3.409-.506-.724-1.303-2.075-1.303-3.409 0-1.566.692-2.394 2-2.394m0-1c-1.629 0-3 1.018-3 3.394S29.959 28 29.959 28 34 26.833 34 23.394C34 21.018 32.629 20 31 20z" fill="#c74343"></path><path d="M9.871 27.414c-.89-.334-3.371-1.492-3.371-4.02 0-1.84.911-2.895 2.5-2.895s2.5 1.055 2.5 2.895c0 1.72-1.149 3.396-1.629 4.02z" fill="#f76d6d"></path><path d="M9 21c1.308 0 2 .828 2 2.394 0 1.341-.794 2.686-1.3 3.408-.96-.43-2.7-1.475-2.7-3.408C7 21.828 7.692 21 9 21m0-1c-1.629 0-3 1.018-3 3.394C6 26.833 10.041 28 10.041 28S12 25.77 12 23.394 10.629 20 9 20z" fill="#c74343"></path><path d="M19.999 38.5C15.093 38.5 9.5 30.243 9.5 23c0-8.104 1.785-13.5 10.5-13.5 9.993 0 10.5 5.13 10.5 13.5 0 7.243-5.594 15.5-10.501 15.5z" fill="#f7a3a3"></path><path d="M20 10c9.536 0 10 4.697 10 13 0 7.584-5.727 15-10.001 15C15.725 38 10 30.584 10 23c0-8.026 1.673-13 10-13m0-1C10.511 9 9 15.259 9 23s5.904 16 10.999 16S31 30.741 31 23 30.783 9 20 9z" fill="#c74343"></path><g><path d="M30.689 22.527a7.977 7.977 0 01-.189-1.536c0-6.19-3.562-8.706-5.094-9.5l-1.065-.553.283 1.106c.168.537.067 1.087-.06 1.784-.1.547-.216 1.181-.221 1.94-.133-.102-.269-.202-.403-.303-.491-.365-1-.743-1.282-1.109-.353-.459-.425-.647-.617-1.15-.123-.321-.287-.75-.585-1.412l-.641-1.423-.306 1.53c-.162.809-.49 1.248-.871 1.758-.417.558-.877 1.173-1.059 2.281a8.14 8.14 0 01-2.088-4.031l-.177-.97-.679.716c-1.447 1.528-2 2.384-1.42 4.527-.967-.485-1.602-1.294-1.721-2.246l-.187-1.493-.744 1.309c-.854 1.502-1.954 5.348-2.064 7.218-.009.14-.014.285-.019.433-.01.371-.023.747-.091 1.107-.422-1.28-1.303-2.313-2.105-3.256C6.366 18.179 5.5 17.163 5.5 16c0-.3.143-.805.308-1.389.445-1.576 1.093-3.865.085-6.051 1.738.259 2.127 1.294 2.447 2.147.073.196.141.372.213.517l.947 1.894V11c0-.315.091-.894.196-1.563.277-1.755.669-4.245.204-6.329 1.495.992 2.145 1.968 2.776 2.918.442.664.86 1.291 1.526 1.857l.618.524.191-.787s.324-1.328.585-2.544c.34-1.303 1.604-2.524 3.201-3.187a4.24 4.24 0 00-.304 1.923c.075 1.134.558 2.156 1.228 2.603l.558.372.197-.641c1.023-3.325 3.675-4.196 5.899-4.495-1.005 1.054-1.865 2.501-2.236 3.49-.153.461-.232 1.375.18 1.947.212.294.529.456.893.456.896 0 2.328-1.032 2.965-2.3.262.772.033 1.497-.175 2.158-.238.757-.534 1.698.441 2.186.17.07.308.097.446.097.373 0 .729-.188 1.057-.557.642-.721 1.136-2.09 1.387-3.307.627 1.888.139 3.5-.238 4.747-.283.935-.507 1.673-.172 2.265.181.318.502.537.955.65.094.023.188.035.281.035.267 0 .655-.096.993-.55.337-.451.535-1.142.581-1.916.44 1.005.739 2.251.692 3.498-.075 2.027-.943 4.147-2.112 5.154-.576.516-1.236 1.722-1.624 2.823z" fill="#f76d6d"></path><path d="M25.097 2.417c-.654.903-1.168 1.868-1.437 2.585-.186.557-.271 1.65.254 2.379.309.428.77.664 1.299.664.773 0 1.706-.51 2.453-1.263-.04.15-.088.306-.14.472-.232.735-.663 2.104.694 2.783l.037.019.039.015c.192.077.392.116.594.116.359 0 .898-.126 1.431-.725.299-.336.567-.794.797-1.308-.066.832-.295 1.588-.502 2.271-.305 1.008-.569 1.878-.128 2.656.251.442.677.741 1.268.889.133.033.269.05.403.05.538 0 1.034-.266 1.394-.75.085-.114.162-.241.232-.378.108.537.162 1.095.141 1.643-.07 1.899-.868 3.87-1.952 4.805-.327.29-.669.759-.98 1.305-.134-6.219-3.778-8.778-5.361-9.598l-.048-.025-2.186-1.215.746 2.387c.131.419.045.891-.075 1.544-.06.326-.125.681-.17 1.076-.346-.263-.666-.525-.848-.762-.308-.401-.359-.533-.547-1.024a24.537 24.537 0 00-.596-1.439l-1.281-2.846-.612 3.06c-.14.698-.423 1.077-.781 1.557-.303.406-.647.866-.896 1.528a7.618 7.618 0 01-1.358-3.068l-.35-1.94-1.357 1.432c-1.218 1.286-1.874 2.19-1.771 3.702a2.175 2.175 0 01-.511-1.138l-.373-2.987-1.488 2.617c-.841 1.479-1.912 5.153-2.107 7.158-.417-.627-.901-1.195-1.36-1.734C6.771 17.883 6 16.979 6 16c0-.23.147-.75.289-1.252.38-1.344.956-3.381.403-5.436.724.357.954.971 1.18 1.571.08.214.155.407.234.565L10 15.236V11c0-.276.092-.864.19-1.486.23-1.46.537-3.412.384-5.262.784.694 1.24 1.379 1.687 2.051.442.664.898 1.35 1.618 1.962l1.235 1.05.384-1.574c.003-.013.329-1.349.578-2.515.235-.903.966-1.758 1.952-2.379a5.092 5.092 0 00-.032.999c.086 1.304.641 2.449 1.449 2.987l1.116.744.394-1.282c.731-2.375 2.298-3.398 4.142-3.878M28 1c-2.505.173-6.618.509-8 5-1.08-.72-1.613-3.558.032-5-2.245.432-4.405 1.986-4.923 3.973-.259 1.209-.582 2.531-.582 2.531C12.8 6.035 12.8 3.986 9 2c1.382 2.85 0 7.618 0 9-.432-.864-.632-3-4-3 2.083 3.042 0 6.618 0 8 0 2.85 4.141 4.531 4.141 8.071.905-.904.802-2.11.859-3.071.103-1.757 1.18-5.558 2-7 .173 1.382 1.273 2.568 3 3-.95-2.677-.555-3.359 1-5 .173.95.841 3.273 3 5 0-2.875 1.568-2.841 2-5 .777 1.727.625 1.833 1.262 2.662s2.073 1.555 2.677 2.332c-.398-2.452.595-3.716.163-5.098C25.484 12.108 30 14.129 30 21c0 0 .038 2.254.856 3.071 0-1.036 1.008-3.294 1.785-3.985 1.244-1.072 2.203-3.274 2.287-5.515.083-2.27-.91-4.553-1.928-5.571.562 1.888.092 4.02-.84 4.02A.694.694 0 0132 13c-2.418-.605 2.109-4.164-1-9 .163 1.384-.902 5.187-2.109 5.187a.594.594 0 01-.223-.044C27.286 8.452 30.073 6.332 28 4c0 1.468-1.837 3.045-2.787 3.045-.777 0-.777-1.209-.605-1.727C25.127 3.936 26.618 1.691 28 1z" fill="#c74343"></path></g><path d="M28 22s-1.567 3-3.5 3-3.5-1.5-3.5-1.5 1.567-1.5 3.5-1.5H28zM19 23.5S17.433 25 15.5 25 12 22 12 22h3.5c1.933 0 3.5 1.5 3.5 1.5z" fill="#ffeea3"></path></svg>