<svg viewBox="0 0 40 40" xmlns="http://www.w3.org/2000/svg"><path d="M17 32.5C8.453 32.5 1.5 25.547 1.5 17S8.453 1.5 17 1.5 32.5 8.453 32.5 17 25.547 32.5 17 32.5z" fill="#8bb7f0"></path><path d="M17 2c8.271 0 15 6.729 15 15s-6.729 15-15 15S2 25.271 2 17 8.729 2 17 2m0-1C8.163 1 1 8.163 1 17s7.163 16 16 16 16-7.163 16-16S25.837 1 17 1z" fill="#4e7ab5"></path><path d="M17 29.5c-6.893 0-12.5-5.607-12.5-12.5S10.107 4.5 17 4.5 29.5 10.107 29.5 17 23.893 29.5 17 29.5z" fill="#fff"></path><path d="M17 5c6.627 0 12 5.373 12 12s-5.373 12-12 12S5 23.627 5 17 10.373 5 17 5m0-1C9.832 4 4 9.832 4 17s5.832 13 13 13 13-5.832 13-13S24.168 4 17 4z" fill="#4e7ab5"></path><path d="M33 39.5c-3.584 0-6.5-3.038-6.5-6.773 0-3.793 5.053-10.194 6.498-11.946 1.44 1.771 6.502 8.254 6.502 11.946 0 3.735-2.916 6.773-6.5 6.773z" fill="#c2e8ff"></path><path d="M32.995 21.568C35.178 24.301 39 29.714 39 32.727 39 36.186 36.308 39 33 39s-6-2.814-6-6.273c0-3.094 3.813-8.458 5.995-11.159M33 20s-7 8.083-7 12.727C26 36.744 29.134 40 33 40s7-3.256 7-7.273C40 28.208 33 20 33 20z" fill="#7496c4"></path><path d="M11.346 22.654A7.971 7.971 0 019 17c0-4.411 3.589-8 8-8s8 3.589 8 8a7.971 7.971 0 01-2.346 5.654l.71.71A8.972 8.972 0 0026 17c0-4.971-4.029-9-9-9s-9 4.029-9 9a8.972 8.972 0 002.636 6.364l.71-.71z" fill="#66798f"></path><path fill="#36404d" d="M12.231 9.357l.521-1.239 1.283.376 6.024 12.585-1.804.863z"></path><g><circle cx="17" cy="17" r="1.5" fill="#8bb7f0"></circle><path d="M17 16c.551 0 1 .449 1 1s-.449 1-1 1-1-.449-1-1 .449-1 1-1m0-1a2 2 0 10-.001 3.999A2 2 0 0017 15z" fill="#4e7ab5"></path></g></svg>