<svg viewBox="0 0 40 40" xmlns="http://www.w3.org/2000/svg"><path fill="#f76d6d" d="M11.5 20.5h17v18h-17z"></path><path d="M28 21v17H12V21h16m1-1H11v19h18V20z" fill="#c74343"></path><path d="M6 23.5c-.827 0-1.5-.673-1.5-1.5v-3.542L7.421 1.5h25.157l2.929 17.043L35.5 22c0 .827-.673 1.5-1.5 1.5H6z" fill="#f7a3a3"></path><path d="M32.157 2L35 18.543V22c0 .551-.449 1-1 1H6c-.551 0-1-.449-1-1v-3.457L7.843 2h24.314M33 1H7L4 18.458V22a2 2 0 002 2h28a2 2 0 002-2v-3.542L33 1z" fill="#c74343"></path><g fill="#c74343"><path d="M35.353 17.643C31.367 15.712 30.5 11.392 30.5 8c0-2.664 1.345-4.803 2.186-5.879l2.667 15.522zM7.322 2.075C8.157 3.087 9.5 5.156 9.5 8c0 3.392-.867 7.712-4.853 9.643L7.322 2.075z"></path><path d="M7.616 3.318A8.7 8.7 0 019 8c0 2.967-.685 6.674-3.68 8.681L7.616 3.318m24.783.088l2.281 13.275C31.685 14.674 31 10.967 31 8c0-1.873.708-3.476 1.399-4.594M33 1s-3 2.87-3 7c0 3.991 1.163 8.693 6 10.458L33 1zM7 1L4 18.458C8.837 16.693 10 11.991 10 8c0-4.401-3-7-3-7z"></path></g><path d="M32.943 16.557c-1.541-1.511-2.339-3.51-2.696-5.557H9.753c-.357 2.047-1.155 4.046-2.696 5.557a6.999 6.999 0 01-.789.716L18 20h4l11.732-2.727a6.913 6.913 0 01-.789-.716z" fill="#66798f"></path><path fill="#f7a3a3" d="M16 20h8v9h-8zM16 30h8v8h-8z"></path><path fill="#ffcaca" d="M19 15l-2 10h6l-2-10z"></path><ellipse cx="26" cy="14.5" rx="3" ry="1.5" fill="#ffeea3"/><ellipse cx="14" cy="14.5" rx="3" ry="1.5" fill="#ffeea3"/></svg>