<svg viewBox="0 0 40 40" xmlns="http://www.w3.org/2000/svg"><path d="M23 34.5a8.211 8.211 0 01-2.5-.389v-8.453l3.242-2.779 2.755 9.184c-.073.853-1.56 2.437-3.497 2.437z" fill="#dcd5f2"></path><path d="M23.484 23.76l2.502 8.341C25.845 32.664 24.647 34 23 34a7.772 7.772 0 01-2-.262v-7.849l2.484-2.129M24 22l-4 3.429v9.039A8.678 8.678 0 0023 35c2.25 0 4-1.898 4-3l-3-10z" fill="#7496c4"></path><path d="M29 7.015C30.325 6.182 34.066 5 38.004 5c1.297 0 1.293 1 0 1-3.146 0-5.947 2.243-7.062 3-.438.297-2.489-1.641-1.942-1.985z" fill="#36404d"></path><path d="M23.686 15.226c.607-1.71.284-3.515-.546-4.865C22.056 8.598 15.866 3.849 5 5.258c2.554 6.928 14.122 11.805 18.686 9.968z" fill="#7496c4"></path><path d="M20.323 26.151c-.401-1.788-.78-3.477-.82-6.27l-.004-.295-.261-.139c-.313-.167-1.132-.553-2.258-1.083-3.616-1.704-12.705-5.985-15.071-8.087C3.207 9.956 5.4 9.5 7 9.5c6.102 0 10.659.909 14.778 2.948l.433.214.229-.424c.291-.54 1.06-2.354 1.06-3.238v-.5c0-1.654 1.57-3 3.5-3s3.5 1.346 3.5 3c0 .609-.332 1.121-.717 1.714l-.189.295c-.423.67-1.094 2.753-1.094 5.491 0 2.166-.225 4.653-1.887 6.683-1.46 1.783-3.461 2.552-5.396 3.296-.288.111-.574.221-.858.334l-.036-.162z" fill="#c2e8ff"></path><path d="M27 6c1.654 0 3 1.122 3 2.5 0 .439-.242.834-.637 1.442l-.193.3C28.7 10.989 28 13.138 28 16c0 2.077-.211 4.458-1.774 6.366-1.376 1.68-3.227 2.392-5.187 3.146l-.319.123c-.36-1.619-.681-3.231-.717-5.76l-.008-.591-.522-.278c-.331-.176-1.103-.54-2.272-1.09-2.977-1.402-11.058-5.208-14.171-7.386C4.258 10.265 5.804 10 7 10c6.021 0 10.51.893 14.556 2.896l.865.428.459-.849C23.117 12.037 24 10.052 24 9v-.5C24 7.122 25.346 6 27 6m0-1c-2.209 0-4 1.567-4 3.5V9c0 .719-.688 2.422-1 3-3.45-1.708-7.854-3-15-3-2.042 0-4.979.708-6 1 1.435 2.399 16.4 9.035 18.003 9.889.046 3.239.552 5.069.997 7.111 2.399-1.011 5.092-1.671 7-4 1.782-2.176 2-4.86 2-7 0-2.766.698-4.72 1.016-5.224.46-.729.984-1.402.984-2.276C31 6.567 29.209 5 27 5z" fill="#7496c4"></path><circle cx="28" cy="8" r="1" fill="#36404d"></circle><g><path d="M17.083 19.494c-5.453 0-12.927-3.8-15.332-8.99 13.591.147 16.528 4.279 16.823 4.758.723 1.175.903 2.378.924 4.002-.633.194-1.307.23-2.415.23z" fill="#dcd5f2"></path><path d="M2.584 11.019c10.205.25 14.58 2.905 15.564 4.505.61.992.799 1.991.841 3.352-.49.097-1.065.117-1.907.117-4.932 0-11.846-3.39-14.498-7.974M1 10c2.1 5.697 10.187 9.993 16.083 9.993 1.355 0 2.112-.056 2.917-.375 0-1.91-.166-3.263-1-4.618-1.09-1.772-5.75-5-18-5z" fill="#7496c4"></path></g></svg>