<svg viewBox="0 0 40 40" xmlns="http://www.w3.org/2000/svg"><path d="M4 37.5A2.503 2.503 0 011.5 35V4c0-1.378 1.122-2.5 2.5-2.5h31c1.378 0 2.5 1.122 2.5 2.5v31c0 1.378-1.122 2.5-2.5 2.5H4z" fill="#8bb7f0"></path><path d="M35 2c1.103 0 2 .897 2 2v31c0 1.103-.897 2-2 2H4c-1.103 0-2-.897-2-2V4c0-1.103.897-2 2-2h31m0-1H4a3 3 0 00-3 3v31a3 3 0 003 3h31a3 3 0 003-3V4a3 3 0 00-3-3z" fill="#4e7ab5"></path><path d="M22 32h-3v-8.241h-9V32H7V13h3v8h9v-8h3v19z" fill="#fff"></path><g><path d="M31 6v10h-1.583V7.937a5.01 5.01 0 01-.924.522c-.33.143-.706.269-1.129.379V7.487c.264-.086.518-.177.764-.273.246-.095.488-.202.726-.321.239-.118.48-.25.723-.396s.495-.311.755-.497H31z" fill="#fff"></path></g></svg>