<svg viewBox="0 0 40 40" xmlns="http://www.w3.org/2000/svg"><path fill="#7496c4" d="M38 3h1v33h-1z"></path><path fill="#7496c4" d="M32 35h7v1h-7zM32 19h7v1h-7z"></path><path fill="#c74343" d="M32 3h7v1h-7z"></path><path fill="#7496c4" d="M35 31h4v1h-4zM35 27h4v1h-4zM35 23h4v1h-4zM35 15h4v1h-4z"></path><path fill="#c74343" d="M35 11h4v1h-4z"></path><path fill="#c74343" d="M38 3h1v9h-1z"></path><path fill="#c74343" d="M35 7h4v1h-4z"></path><path d="M14.5 38.5c-7.168 0-13-5.864-13-13.071 0-7.508 10.808-20.991 12.998-23.645C16.68 4.463 27.5 18.117 27.5 25.429c0 7.207-5.832 13.071-13 13.071z" fill="#c2e8ff"></path><path d="M14.495 2.576C17.315 6.086 27 18.637 27 25.429 27 32.36 21.393 38 14.5 38S2 32.36 2 25.429c0-6.976 9.669-19.378 12.495-22.853M14.5 1S1 16.833 1 25.429C1 32.924 7.044 39 14.5 39S28 32.924 28 25.429C28 17.06 14.5 1 14.5 1z" fill="#7496c4"></path><g><path d="M14.5 38.5c-7.168 0-13-5.864-13-13.071 0-1.995.779-4.602 2.315-7.751 1.262-.564 2.962-1.178 5.114-1.178 1.841 0 3.484.936 5.223 1.927 1.79 1.019 3.64 2.073 5.777 2.073 1.907 0 3.811-.627 5.666-1.866 1.265 2.75 1.906 5.035 1.906 6.794C27.5 32.636 21.668 38.5 14.5 38.5z" fill="#8bb7f0"></path><path d="M8.929 17c1.709 0 3.296.904 4.976 1.861C15.75 19.913 17.658 21 19.929 21c1.837 0 3.665-.549 5.447-1.633C26.454 21.816 27 23.852 27 25.429 27 32.36 21.393 38 14.5 38S2 32.36 2 25.429c0-1.884.735-4.362 2.185-7.368C5.382 17.539 6.963 17 8.929 17m0-1c-2.326 0-4.176.699-5.483 1.295C1.997 20.232 1 23.097 1 25.429 1 32.924 7.044 39 14.5 39S28 32.924 28 25.429c0-2.143-.888-4.791-2.205-7.544C24.516 18.818 22.49 20 19.929 20c-4 0-7.042-4-11-4z" fill="#4e7ab5"></path></g></svg>