<svg viewBox="0 0 40 40" xmlns="http://www.w3.org/2000/svg"><path d="M21 18.5c-4.687 0-8.5-3.813-8.5-8.5s3.813-8.5 8.5-8.5 8.5 3.813 8.5 8.5-3.813 8.5-8.5 8.5z" fill="#ffeea3"></path><path d="M21 2c4.411 0 8 3.589 8 8s-3.589 8-8 8-8-3.589-8-8 3.589-8 8-8m0-1a9 9 0 00-9 9 9 9 0 009 9c4.971 0 9-4.029 9-9s-4.029-9-9-9z" fill="#ba9b48"></path><circle cx="12.5" cy="15.5" r="8" fill="#f78f8f"></circle><path d="M12.5 8c4.136 0 7.5 3.365 7.5 7.5S16.636 23 12.5 23 5 19.635 5 15.5 8.364 8 12.5 8m0-1a8.5 8.5 0 10.001 17.001A8.5 8.5 0 0012.5 7z" fill="#c74343"></path><circle cx="27.5" cy="18.5" r="8" fill="#ffb5d2"></circle><path d="M27.5 11c4.135 0 7.5 3.365 7.5 7.5S31.635 26 27.5 26 20 22.635 20 18.5s3.365-7.5 7.5-7.5m0-1a8.5 8.5 0 10.001 17.001A8.5 8.5 0 0027.5 10z" fill="#ea4c89"></path><g><path fill="#dcd5f2" d="M15.5 28.5h9v5h-9z"></path><path d="M24 29v4h-8v-4h8m1-1H15v6h10v-6z" fill="#8b75a1"></path></g><g><path d="M9.522 38.5c.253-2.8 2.613-5 5.478-5h10c2.864 0 5.224 2.2 5.478 5H9.522z" fill="#dcd5f2"></path><path d="M25 34a5.01 5.01 0 014.9 4H10.1a5.01 5.01 0 014.9-4h10m0-1H15a6 6 0 00-6 6h22a6 6 0 00-6-6z" fill="#8b75a1"></path></g><g><path d="M15.282 30.5c-5.151 0-9.708-3.467-11.083-8.432L2.657 16.5h34.686L35.8 22.068c-1.375 4.965-5.932 8.432-11.083 8.432h-9.435z" fill="#dcd5f2"></path><path d="M36.685 17l-1.367 4.936C34.004 26.684 29.644 30 24.718 30h-9.435a11.031 11.031 0 01-10.601-8.064L3.315 17h33.37M38 16H2l1.718 6.203A11.999 11.999 0 0015.282 31h9.435a12 12 0 0011.565-8.797L38 16z" fill="#8b75a1"></path></g></svg>