<svg viewBox="0 0 40 40" xmlns="http://www.w3.org/2000/svg"><path d="M15.978 20.792L31.646 3.344c.485-.545 1.221-.844 2.076-.844 1.155 0 2.394.549 3.312 1.467.952.952 1.5 2.229 1.465 3.418-.023.808-.321 1.507-.84 1.967L19.232 25.674l-3.254-4.882z" fill="#dcd5f2"></path><path d="M33.722 3c1.025 0 2.131.493 2.958 1.32.857.857 1.35 1.997 1.319 3.05-.014.473-.142 1.136-.672 1.607L19.33 24.919l-2.721-4.082L32.022 3.675c.386-.435.99-.675 1.7-.675m0-1c-.962 0-1.845.332-2.448 1.01L15.346 20.746l3.788 5.682L37.99 9.726c1.55-1.378 1.291-4.219-.603-6.113C36.322 2.548 34.957 2 33.722 2z" fill="#8b75a1"></path><path d="M9.965 37.5c-5.24 0-7.542-3.657-8.176-4.907l8.743-4.243 5.232-9.475c4.264 3.393 5.998 7.79 4.646 11.854-1.367 4.114-5.468 6.771-10.445 6.771z" fill="#bfb5e0"></path><path d="M15.911 19.644c3.757 3.199 5.259 7.22 4.025 10.928C18.637 34.477 14.723 37 9.965 37c-4.481 0-6.666-2.764-7.492-4.184l8.135-3.948.285-.138.153-.278 4.865-8.808m-.302-1.521l-5.438 9.845-9.04 4.387s2.127 5.644 8.834 5.644c10.715.001 16.359-11.86 5.644-19.876z" fill="#8b75a1"></path><g><path d="M6.173 34.83c-1.793 0-3.161-.629-4.065-1.869-.488-.659-.678-1.205-.584-1.671.185-.911 1.485-1.681 2.991-2.572 1.433-.848 3.056-1.809 4.347-3.223 1.261-1.365 1.933-3.318 2.525-5.042.567-1.65 1.104-3.209 1.895-3.209.227 0 .505.106.828.316 2.001 1.282 3.213 3.356 3.415 5.843.237 2.929-.967 6.04-3.067 7.927-1.966 1.741-5.292 3.5-8.285 3.5z" fill="#e5dff7"></path><path d="M13.282 17.745c.045 0 .219.017.56.239 1.864 1.194 2.995 3.133 3.184 5.461.225 2.778-.914 5.727-2.898 7.509-2.279 2.02-5.476 3.377-7.955 3.377-1.624 0-2.856-.56-3.665-1.669-.391-.529-.557-.957-.494-1.272.141-.694 1.411-1.446 2.756-2.242 1.462-.865 3.119-1.846 4.457-3.312 1.333-1.445 2.024-3.451 2.633-5.221.369-1.073.988-2.87 1.422-2.87m-.001-1c-2.141.001-2.224 5.635-4.789 8.413-3.435 3.763-9.57 4.335-6.789 8.098 1.078 1.478 2.688 2.075 4.469 2.075 2.952 0 6.374-1.64 8.618-3.629 4.008-3.599 4.826-11.206-.409-14.56-.421-.274-.783-.398-1.1-.397z" fill="#8b75a1"></path></g></svg>