<svg viewBox="0 0 40 40" xmlns="http://www.w3.org/2000/svg"><path d="M20 38.5a1.46 1.46 0 01-1.351-.923L10.063 15.5h19.873L21.35 37.576A1.456 1.456 0 0120 38.5z" fill="#f5ce85"></path><path d="M29.205 16l-8.32 21.395c-.143.367-.491.605-.885.605s-.742-.238-.885-.605L10.795 16h18.41m1.462-1H9.333l8.85 22.757a1.95 1.95 0 003.634 0L30.667 15z" fill="#967a44"></path><circle cx="20.786" cy="7.786" r="6.286" fill="#ffeea3"></circle><path d="M20.786 2a5.792 5.792 0 015.786 5.786 5.792 5.792 0 01-5.786 5.786A5.792 5.792 0 0115 7.786 5.792 5.792 0 0120.786 2m0-1a6.786 6.786 0 100 13.571 6.786 6.786 0 000-13.571z" fill="#ba9b48"></path><path fill="#e0af53" d="M12.283 19.826L14 21.543l2.293-2.293L14 16.957l-2.039 2.04zM17 18.543l2.293-2.293-.25-.25h-4.086l-.25.25zM13.641 23.317l1.284 3.301 1.368-1.368L14 22.957zM14.707 22.25L17 19.957l2.294 2.293L17 24.543zM17 25.957l-1.68 1.68.781 2.007.899.899 2.293-2.293zM23 25.957l-2.293 2.293L23 30.543l.899-.899.781-2.007zM20.707 22.25L23 19.957l2.294 2.293L23 24.543zM26.359 23.317l-.359-.36-2.293 2.293 1.368 1.368zM17.707 19.25L20 16.957l2.294 2.293L20 21.543zM13.293 22.25l-.11-.11.062.158zM17.707 31.25L20 28.957l2.294 2.293L20 33.543zM22.999 31.958l-2.292 2.292 1.008 1.008zM17.001 31.958l1.284 3.3 1.008-1.008zM20 34.957l-1.319 1.319.435 1.118c.142.368.49.606.884.606s.742-.238.885-.605l.435-1.118-1.32-1.32zM28.435 17.978l.77-1.978h-2.248l-.25.25zM26.755 22.298l.062-.158-.11.11zM17.707 25.25L20 22.957l2.294 2.293L20 27.543zM23.707 19.25L26 21.543l1.717-1.717.322-.829L26 16.957zM20.707 16.25L23 18.543l2.293-2.293-.25-.25h-4.086zM11.565 17.978l1.728-1.728-.25-.25h-2.248z"></path><path d="M21.967 27.833c-1.118 0-1.349-1.261-1.572-3.185-.16-1.377-.312-2.678-1.135-3.262-.733-.52-1.821-.783-3.234-.783-1.53 0-3.062.305-3.793.473l-2.17-5.576h19.873l-1.96 5.039c-.42-.535-1.079-1.102-1.992-1.102a2.35 2.35 0 00-.69.108c-1.574.488-1.782 2.637-1.984 4.714-.21 2.159-.417 3.574-1.343 3.574z" fill="#a6714e"></path><path d="M29.205 16l-1.412 3.632c-.481-.401-1.087-.694-1.808-.694-.277 0-.56.044-.839.131-1.891.587-2.127 3.008-2.334 5.143-.121 1.243-.303 3.122-.845 3.122-.647 0-.855-.846-1.076-2.743-.173-1.491-.337-2.899-1.342-3.611-.82-.581-2.006-.875-3.524-.875-1.323 0-2.644.22-3.481.393L10.795 16h18.41m1.462-1H9.333l2.593 6.667s2.071-.563 4.099-.563c1.111 0 2.208.169 2.946.691 1.546 1.095.18 6.538 2.996 6.538s.887-7.507 3.475-8.31c.191-.059.372-.086.543-.086 1.381 0 2.089 1.729 2.089 1.729L30.667 15z" fill="#7a4f34"></path><g><circle cx="26.214" cy="13.214" r="6.286" fill="#ffb5d2"></circle><path d="M26.214 7.429A5.792 5.792 0 0132 13.215 5.792 5.792 0 0126.214 19a5.792 5.792 0 01-5.786-5.786 5.793 5.793 0 015.786-5.785m0-1A6.786 6.786 0 1033 13.214a6.785 6.785 0 00-6.786-6.785z" fill="#ea4c89"></path></g><g><circle cx="14" cy="12.536" r="6.964" fill="#f78f8f"></circle><path d="M14 6.071c3.564 0 6.464 2.9 6.464 6.464S17.564 19 14 19s-6.464-2.9-6.464-6.464 2.9-6.465 6.464-6.465m0-1A7.464 7.464 0 1014 20 7.464 7.464 0 0014 5.07z" fill="#c74343"></path></g></svg>