<svg viewBox="0 0 40 40" xmlns="http://www.w3.org/2000/svg"><path d="M30 38c.68 0 1-.486 1-2.134V30" fill="none" stroke="#788b9c" stroke-width="2" stroke-linecap="round" stroke-miterlimit="10"></path><path fill="none" stroke="#36404d" stroke-width="2" stroke-miterlimit="10" d="M31 31v-1"></path><path d="M26 38c.68 0 1-.486 1-2.134V30" fill="none" stroke="#788b9c" stroke-width="2" stroke-linecap="round" stroke-miterlimit="10"></path><path fill="none" stroke="#36404d" stroke-width="2" stroke-miterlimit="10" d="M27 31v-1"></path><path d="M13 38c.68 0 1-.486 1-2.134V30" fill="none" stroke="#788b9c" stroke-width="2" stroke-linecap="round" stroke-miterlimit="10"></path><path fill="none" stroke="#36404d" stroke-width="2" stroke-miterlimit="10" d="M14 31v-1"></path><path d="M9 38c.68 0 1-.486 1-2.134V30" fill="none" stroke="#788b9c" stroke-width="2" stroke-linecap="round" stroke-miterlimit="10"></path><path fill="none" stroke="#36404d" stroke-width="2" stroke-miterlimit="10" d="M10 31v-1"></path><path d="M11 16.5c-3.032 0-5.5-2.467-5.5-5.5S7.968 5.5 11 5.5c.776 0 1.534.164 2.252.486l.485.218.188-.497A6.528 6.528 0 0120 1.5a6.49 6.49 0 015.734 3.442l.236.441.44-.236A5.53 5.53 0 0129 4.5c3.032 0 5.5 2.467 5.5 5.5s-2.468 5.5-5.5 5.5a5.45 5.45 0 01-4.398-2.21l-.301-.401-.4.301a6.464 6.464 0 01-7.382.291l-.448-.286-.258.465A5.507 5.507 0 0111 16.5z" fill="#fff"></path><path d="M20 2a5.994 5.994 0 015.294 3.178l.471.882.882-.472A4.949 4.949 0 0129 5c2.757 0 5 2.243 5 5s-2.243 5-5 5a4.956 4.956 0 01-3.999-2.01l-.601-.802-.801.603A5.94 5.94 0 0120 14a5.976 5.976 0 01-3.214-.94l-.896-.571-.515.929A5.006 5.006 0 0111 16c-2.757 0-5-2.243-5-5s2.243-5 5-5c.706 0 1.395.149 2.047.442l.97.436.376-.995A6.027 6.027 0 0120 2m0-1a6.996 6.996 0 00-6.543 4.53A5.968 5.968 0 0011 5a6 6 0 105.249 8.904 6.968 6.968 0 007.952-.314A5.981 5.981 0 0029 16a6 6 0 10-2.824-11.293A6.997 6.997 0 0020 1z" fill="#788b9c"></path><path fill="#bae0bd" d="M4.5 10.5h31v19h-31z"></path><path d="M35 11v18H5V11h30m1-1H4v20h32V10z" fill="#5e9c76"></path><circle cx="20" cy="20" r="1.5" fill="#fff"></circle><circle cx="28" cy="20" r="1.5" fill="#fff"></circle><circle cx="12" cy="20" r="1.5" fill="#fff"></circle></svg>