<svg viewBox="0 0 40 40" xmlns="http://www.w3.org/2000/svg"><path fill="#fff0f0" d="M4.577 11.204L19.441.655l.059.06v6.803l-.073.003L4.63 11.392z"></path><path d="M19 1.581V7.116L6.648 10.347 19 1.581M19.5 0L4 11l.281 1L19.5 8.019 20 8V.511L19.5 0z" fill="#ab3434"></path><path fill="#ffcaca" d="M4.554 11.343L19.08 6.521l.117.03L6.591 25.714z"></path><path d="M18.046 7.391L6.9 24.334 5.107 11.686l12.939-4.295M19.062 6L4 11l2.281 16.094L20 6.24 19.062 6z" fill="#ab3434"></path><path fill="#f76d6d" d="M.57 29.688L4.406 11.5h.16L6.72 26.651.606 29.706z"></path><path d="M4.406 13.923l1.769 12.442-4.909 2.453 3.14-14.895M5 11H4L0 29.969l.61.294 6.655-3.325L5 11z" fill="#ab3434"></path><path fill="#c74343" d="M.616 29.703L7.117 26.5h.243L19 37.759v.458z"></path><path d="M7.183 27.024l10.253 9.918-15.66-7.253 5.407-2.665M7.562 26H7L.121 29.39 0 29.969 19.5 39v-1.453L7.562 26z" fill="#ab3434"></path><path fill="#ffcaca" d="M19.573 7.521l-.073-.003V.715l.059-.06 14.864 10.549-.053.188z"></path><path d="M20 1.581l12.352 8.766L20 7.116V1.581M19.5 0l-.5.511V8l.5.019L34.719 12 35 11 19.5 0z" fill="#ab3434"></path><path fill="#f76d6d" d="M19.803 6.551l.117-.03 14.526 4.822-2.037 14.371z"></path><path d="M20.954 7.391l12.939 4.295L32.1 24.334 20.954 7.391M19.938 6L19 6.24l13.719 20.854L35 11 19.938 6z" fill="#ab3434"></path><g><path fill="#c74343" d="M32.28 26.651L34.434 11.5h.16l3.836 18.188-.036.018z"></path><path d="M34.594 13.923l3.141 14.894-4.909-2.453 1.768-12.441M35 11h-1l-2.266 15.938 6.655 3.325.611-.294L35 11z" fill="#ab3434"></path></g><g><path fill="#ab3434" d="M20 37.759L31.64 26.5h.243l6.501 3.203L20 38.217z"></path><path d="M31.817 27.024l5.408 2.665-15.661 7.253 10.253-9.918M32 26h-.563L19.5 37.547V39L39 29.969l-.121-.579L32 26z" fill="#ab3434"></path></g><g><path fill="#f76d6d" d="M7.4 26.5h24.2L19.5 38.302z"></path><path d="M30.371 27L19.5 37.603 8.629 27h21.742m2.457-1H6.172L19.5 39l13.328-13z" fill="#ab3434"></path></g><g><path fill="#f78f8f" d="M19.5 7L7 26h25z"></path></g><path d="M18.911 24H14v-.606c0-.247.035-.479.104-.695.069-.216.162-.421.278-.611.116-.192.253-.371.409-.541.156-.169.324-.332.502-.491.178-.158.36-.31.546-.458.186-.147.367-.295.546-.444.167-.142.32-.281.458-.418.138-.136.256-.277.355-.423.098-.146.175-.299.229-.461a1.62 1.62 0 00.082-.526c0-.207-.032-.388-.095-.543a1.054 1.054 0 00-.268-.387 1.137 1.137 0 00-.406-.235 1.614 1.614 0 00-.513-.079c-.32 0-.646.075-.977.224s-.649.373-.955.671V16.76c.16-.12.322-.224.486-.313a3.213 3.213 0 011.059-.357c.193-.029.398-.044.617-.044.353 0 .673.046.96.139.287.092.533.229.737.409.204.181.361.405.472.674.11.269.166.578.166.928 0 .317-.039.601-.118.854a2.773 2.773 0 01-.332.707 3.707 3.707 0 01-.521.622 12.46 12.46 0 01-.682.606c-.211.171-.421.338-.63.499a8.42 8.42 0 00-.565.475 2.665 2.665 0 00-.406.463.83.83 0 00-.156.467v.027h3.531V24zM22.564 24c-.806 0-1.435-.329-1.886-.988-.452-.658-.678-1.61-.678-2.855 0-1.368.235-2.402.707-3.104.471-.702 1.151-1.053 2.041-1.053 1.701 0 2.553 1.323 2.553 3.968 0 1.31-.24 2.31-.721 2.998-.48.69-1.153 1.034-2.016 1.034zm.124-7.001c-.939 0-1.408 1.035-1.408 3.104 0 1.936.459 2.904 1.382 2.904.907 0 1.36-.984 1.36-2.953 0-2.037-.445-3.055-1.334-3.055z" fill="#fff"></path></svg>