<svg viewBox="0 0 40 40" xmlns="http://www.w3.org/2000/svg"><path d="M22.48 16.577c-.4-.312-.88-.553-1.388-.809l-.569-.286-.094-.64-.56-6.296-.059-2.293.062-.699c.363-1.506 1.251-2.627 2.65-3.402a5.063 5.063 0 012.454-.653c.569 0 1.133.101 1.674.301 1.374.319 2.476 1.148 3.128 2.38.383.77.578 1.621.578 2.487l-.22 1.57-.016.047a8.838 8.838 0 01-.958 1.915l-5.782 7.078-.9-.7z" fill="#bae0bd"></path><path d="M24.976 1.999c.506 0 1.012.09 1.502.27 1.281.301 2.268 1.03 2.858 2.144l.007.015c.337.676.514 1.45.514 2.238l-.207 1.448a8.41 8.41 0 01-.904 1.807l-5.444 6.661-.514-.4c-.44-.343-.943-.596-1.475-.863l-.332-.167-.056-.382-.556-6.269-.059-2.261.06-.639c.32-1.31 1.142-2.318 2.394-3.012a4.536 4.536 0 012.212-.59m0-1c-.924 0-1.857.248-2.698.717-1.503.833-2.499 2.095-2.879 3.648l-.017.071-.007.073-.06.639-.006.06.002.06.059 2.262.001.031.003.031.556 6.269.003.028.004.028.056.382.075.515.465.234.332.167c.508.255.946.476 1.309.758l.515.401.77.599.618-.756 5.444-6.661.031-.038.027-.04a9.395 9.395 0 001.012-2.022l.035-.096.015-.102.207-1.448.01-.07v-.073c0-.934-.21-1.853-.607-2.66l-.005-.012-.026-.049c-.713-1.347-1.906-2.257-3.454-2.636a5.33 5.33 0 00-1.79-.31z" fill="#66798f"></path><path d="M11.42 9.913l-.309-.615c-.422-.945-.877-2.185-.728-3.571.077-1.325.659-2.354 1.68-2.952.256-.228.707-.381 1.198-.381.383 0 .776.092 1.141.267 1.273.356 2.308 1.347 3.075 2.947.291.58.626 1.246.766 2.09l1.275 7.528-2.498.833-5.6-6.146z" fill="#bae0bd"></path><path d="M13.262 2.893c.31 0 .643.076.963.237 1.126.299 2.082 1.195 2.801 2.693.296.589.598 1.196.724 1.956l1.204 7.107-1.784.594-5.335-5.853-.277-.554c-.395-.884-.814-2.029-.678-3.294.07-1.191.555-2.057 1.436-2.573.24-.204.576-.313.946-.313m0-1c-.575 0-1.11.174-1.519.491-1.13.691-1.772 1.843-1.861 3.336-.157 1.458.325 2.778.763 3.76l.296.594.062.124.093.102 5.335 5.853.438.481.617-.206 1.784-.594.813-.271-.143-.845-1.204-7.107c-.152-.913-.505-1.616-.816-2.237-.817-1.703-1.943-2.779-3.341-3.185a3.18 3.18 0 00-1.317-.296z" fill="#66798f"></path><path d="M23.634 18.186l-.44-.657.859-1.041 5.896-4.876.725-.304a6.52 6.52 0 012.697-.578c.271 0 .546.016.829.047 1.321.155 2.335.815 2.858 1.858l.38 1.181-.169.845c-.555 1.481-1.589 2.481-3.278 3.227-.643.321-1.368.458-2.115.581l-7.85.96-.392-1.243z" fill="#bae0bd"></path><path d="M33.37 11.23c.253 0 .511.015.776.044 1.147.135 2.021.697 2.466 1.585l.311.985-.143.719c-.49 1.289-1.457 2.19-2.991 2.866-.598.298-1.258.424-1.993.546l-7.418.906-.289-.914-.272-.407.622-.754 5.772-4.762.656-.275a6.035 6.035 0 012.503-.539m0-1a7.02 7.02 0 00-2.908.625l-.637.267-.136.057-.114.094-5.772 4.762-.074.061-.061.074-.622.754-.474.574.414.619.193.288.246.778.25.792.824-.101 7.418-.906c.827-.135 1.593-.281 2.319-.643 1.752-.771 2.904-1.892 3.479-3.406l.03-.078.016-.082.143-.719.05-.252-.077-.245-.311-.985-.024-.076-.036-.071c-.601-1.198-1.753-1.954-3.243-2.129a7.913 7.913 0 00-.893-.052z" fill="#66798f"></path><path d="M33.088 30.148c-.548 0-1.111-.1-1.675-.298-.782-.188-1.429-.578-1.989-1.216l-6.388-5.275.747-1.602.311-1.309 7.102-.627 2.293-.061.903.099.049.016c1.202.399 2.126 1.119 2.671 2.083.644.73 1.014 1.802 1.014 3.019l-.18 1.281c-.374 1.528-1.273 2.672-2.543 3.271a4.719 4.719 0 01-2.315.619z" fill="#bae0bd"></path><path d="M33.501 20.26l.783.09c1.085.36 1.91 1.001 2.392 1.854.621.719.949 1.676.949 2.773l-.174 1.209c-.333 1.353-1.131 2.358-2.26 2.891-.682.381-1.381.572-2.102.572a4.55 4.55 0 01-1.51-.27 3.308 3.308 0 01-1.779-1.074l-6.147-5.084.605-1.298.24-1.008 6.742-.596 2.261-.059m.044-1.001l-.07.002-2.262.059-.031.001-.031.003-6.742.596-.718.063-.167.701-.216.909-.562 1.206-.327.701.596.493 6.089 5.036a4.308 4.308 0 002.189 1.311 5.55 5.55 0 001.795.311c.876 0 1.737-.23 2.559-.683 1.391-.668 2.375-1.924 2.774-3.541l.012-.048.007-.049.174-1.209.01-.071v-.072c0-1.302-.39-2.458-1.128-3.35-.611-1.03-1.611-1.798-2.898-2.225l-.098-.035-.103-.012-.783-.09-.069-.007z" fill="#66798f"></path><g><path d="M25.27 35.994c-.197 0-.383-.017-.555-.038-1.511-.384-2.638-1.427-3.41-3.111l-.701-1.917-1.056-6.001 1.876-.659 1.324-.738 2.948 3.02 1.627 2.021.301.604c.664 1.25.908 2.341.783 3.528-.164 1.482-.748 2.462-1.736 2.916-.358.239-.837.375-1.401.375z" fill="#bae0bd"></path><path d="M22.656 24.151l2.682 2.747 1.561 1.943.277.556c.618 1.165.846 2.172.733 3.253-.143 1.294-.63 2.138-1.448 2.514-.395.259-.812.331-1.193.331a3.96 3.96 0 01-.492-.034c-1.326-.341-2.312-1.286-3.018-2.824l-.686-1.88-.96-5.498 1.477-.519 1.067-.589m.184-1.243l-.667.367-.994.548-1.398.491-.799.281.146.835.96 5.498.015.087.03.083.686 1.88.014.038.017.036c.838 1.828 2.076 2.963 3.678 3.376l.062.016.064.008c.228.028.424.041.615.041.628 0 1.192-.153 1.678-.454.785-.384 1.734-1.264 1.957-3.28.134-1.279-.134-2.495-.844-3.832l-.266-.533-.048-.096-.067-.084-1.561-1.943-.03-.038-.034-.035-2.682-2.747-.532-.543z" fill="#66798f"></path></g><g><path d="M14.725 38.499a5.19 5.19 0 01-1.384-.19c-1.397-.348-2.509-1.213-3.117-2.434-.284-.567-.623-1.446-.623-2.407l.019-.197.286-1.327a4.215 4.215 0 011.146-2.131l5.182-6.177.823.409c.471.235.916.456 1.309.492l.999.092.06 1.001c.125 2.114.304 4.066.548 5.969l.009 2.367-.113.921-.022.057c-.532 1.37-1.454 2.379-2.666 2.918a5.079 5.079 0 01-2.456.637z" fill="#bae0bd"></path><path d="M16.363 24.259l.47.234c.514.256 1 .498 1.487.542l.57.053.034.572a87.35 87.35 0 00.551 6.002l.005 2.305-.102.796c-.483 1.245-1.315 2.158-2.404 2.643a4.599 4.599 0 01-3.501.421c-1.259-.314-2.262-1.088-2.803-2.175-.26-.521-.57-1.322-.57-2.184l.016-.142.277-1.275a3.726 3.726 0 011.012-1.884l4.958-5.908m-.259-1.246l-.506.603-4.932 5.876a4.737 4.737 0 00-1.253 2.363l-.274 1.258-.011.051-.006.052-.016.142-.006.055v.055c0 1.058.368 2.015.676 2.631.674 1.352 1.901 2.311 3.456 2.698.474.132.985.202 1.492.202.934 0 1.866-.241 2.699-.698 1.316-.599 2.314-1.696 2.888-3.176l.044-.114.015-.121.102-.796.008-.064v-.065l-.005-2.305v-.063l-.008-.062a86.511 86.511 0 01-.544-5.934l-.034-.572-.051-.858-.855-.079-.57-.053c-.3-.027-.703-.228-1.129-.44l-.475-.236-.705-.35z" fill="#66798f"></path></g><g><path d="M5.271 20.186c-1.323-.219-2.308-.906-2.91-2.038-.592-1.105-.646-2.276-.164-3.479.511-1.385 1.479-2.417 2.793-2.972a5.112 5.112 0 012.519-.669c.434 0 .878.057 1.322.168l.123.038 1.732.728 5.917 4.304-.762.954a3.681 3.681 0 00-.681 1.27l-.22.728-8.931 1.118-.738-.15z" fill="#bae0bd"></path><path d="M7.509 11.527c.393 0 .794.051 1.201.153l.091.029 1.638.69 5.448 3.962-.436.545a4.195 4.195 0 00-.77 1.439l-.125.415-8.527 1.067-.66-.132c-1.187-.197-2.034-.782-2.566-1.783-.518-.969-.566-1.999-.142-3.059.465-1.26 1.34-2.198 2.523-2.697.745-.417 1.52-.629 2.325-.629m0-1c-.953 0-1.883.246-2.765.731-1.419.615-2.463 1.737-3.021 3.25-.522 1.301-.457 2.651.198 3.876.678 1.275 1.784 2.048 3.284 2.298l.628.126.159.032.161-.02 8.527-1.067.646-.081.188-.623.125-.415c.118-.392.311-.752.591-1.1l.438-.547.654-.818-.847-.616-5.448-3.962-.093-.068-.107-.045-1.638-.69-.04-.017-.042-.013-.091-.029-.031-.01-.032-.009a5.918 5.918 0 00-1.444-.183z" fill="#66798f"></path></g><g><path d="M7.823 28.285c-.228 0-.458-.013-.688-.041-1.239-.082-2.192-.588-2.656-1.423l-.087-.2-.263-.949.173-.781c.438-1.339 1.412-2.358 2.911-3.075l.592-.255c.448-.197.876-.385 1.292-.49l5.483-1.032 1.189 3.164-.632.547c-.479.414-.88.809-1.261 1.186-.277.272-.546.535-.821.788l-1.706 1.424-.569.369c-1.108.533-2.031.768-2.957.768z" fill="#f78f8f"></path><path d="M14.259 20.609l.919 2.445-.368.319c-.487.422-.896.824-1.285 1.208a30.67 30.67 0 01-.809.777l-1.687 1.408-.518.331c-.993.474-1.836.689-2.687.689a5.14 5.14 0 01-.629-.038c-1.079-.072-1.901-.488-2.28-1.169l-.061-.148-.21-.77.146-.66c.273-.833.936-1.917 2.639-2.732l.573-.247c.454-.2.848-.372 1.217-.464l5.04-.949m.641-1.138l-.825.155-5.04.948-.029.005-.029.007c-.458.114-.905.311-1.377.519l-.566.244c-1.663.794-2.725 1.912-3.194 3.338l-.016.047-.011.049-.146.66-.053.241.065.238.21.77.016.061.024.058.061.148.022.054.028.051c.547.982 1.633 1.578 3.061 1.679.239.028.482.042.722.042 1.003 0 1.994-.25 3.118-.786l.056-.026.052-.033.518-.331.054-.034.049-.041 1.687-1.408c.316-.289.589-.556.87-.832.379-.374.772-.76 1.238-1.164l.368-.319.527-.456-.245-.652-.919-2.445-.296-.787z" fill="#66798f"></path></g><g><path d="M19.528 25.5c-1.409 0-2.643-.532-3.567-1.538-.904-.835-1.461-2.162-1.461-3.52 0-1.302.479-2.454 1.463-3.521 1.027-.954 2.237-1.421 3.565-1.421 1.311 0 2.61.519 3.476 1.387 1.007 1.011 1.496 2.174 1.496 3.555 0 1.486-.54 2.737-1.562 3.617-.92.933-2.11 1.441-3.41 1.441z" fill="#ffeea3"></path><path d="M19.528 16c1.181 0 2.348.464 3.121 1.24.91.913 1.351 1.96 1.351 3.202 0 1.337-.48 2.456-1.388 3.238-.854.864-1.904 1.32-3.084 1.32-1.266 0-2.372-.476-3.199-1.376-.83-.769-1.329-1.943-1.329-3.182 0-1.17.434-2.211 1.33-3.182l.039-.04A4.58 4.58 0 0119.528 16m0-1c-1.456 0-2.783.513-3.837 1.484l-.019.018-.018.019-.039.04C14.537 17.729 14 19.028 14 20.442c0 1.503.59 2.917 1.619 3.888 1.018 1.093 2.369 1.67 3.909 1.67 1.424 0 2.726-.549 3.767-1.589C24.411 23.435 25 22.063 25 20.442c0-1.499-.552-2.813-1.642-3.907-.957-.961-2.388-1.535-3.83-1.535z" fill="#66798f"></path></g></svg>