<svg viewBox="0 0 40 40" xmlns="http://www.w3.org/2000/svg"><path d="M18.499 38.5c-.774 0-1.399-2.852-1.855-8.476l-.047-.565C15.646 16.146 14.872 12.5 13 12.5c-1.675 0-2.165 3.257-2.827 8.573C9.756 24.429 9.124 29.5 8 29.5c-.373-.247-1.5-3.462-1.5-9.5 0-8.593-1.349-13.042-2.779-15.343l32.429 9.979c-3.39 1.97-4.273 7.686-5 12.379-.495 3.188-1.004 6.485-2.15 6.485-.946 0-1.403-4.476-1.705-7.437-.502-4.918-.977-9.563-3.295-9.563-2.185 0-3.362 4.203-3.5 12.492-.133 8.273-1.311 9.508-2.001 9.508z" fill="#c2e8ff"></path><path d="M4.736 5.493l30.296 9.322c-2.882 2.459-3.697 7.728-4.378 12.125-.293 1.896-.893 5.768-1.577 6.045-.645-.699-1.044-4.608-1.285-6.972C27.244 20.64 26.77 16 24 16c-1.624 0-3.806 1.346-4 12.984-.124 7.704-1.145 8.826-1.429 8.989-.854-.899-1.286-6.21-1.43-7.988l-.046-.556C16.095 15.421 15.291 12 13 12c-2.201 0-2.672 3.78-3.323 9.011-.313 2.518-.816 6.56-1.517 7.729C7.671 27.642 7 24.589 7 20 7 12.506 5.968 8.092 4.736 5.493M2.357 3.714C4.084 5.442 6 9.821 6 20c0 6.045 1.136 10 2 10 3.044 0 2.286-17 5-17 1.47 0 2.235 4.409 3.098 16.5.259 3.109.673 9.5 2.401 9.5 1.9 0 2.415-4.645 2.501-10 .086-5.182.682-12 3-12 3.563 0 2.063 17 5 17 3.732 0 1.348-17.676 8.643-19.429L2.357 3.714z" fill="#8bb7f0"></path><g fill="#8bb7f0"><path d="M13.219 12.52A1.321 1.321 0 0013 12.5l.219.02zM19 29v9c.69 0 1.367-.735 1.5-9.008C20.638 20.703 21.816 16 24 16c-3.112 0-5 .077-5 13zM30 26c0 3-1 7.5-1 7.5 1.145 0 1.655-3.297 2.149-6.485.727-4.694 1.611-10.41 5.001-12.38 0 0-6.15.615-6.15 11.365zM9 20c0 5.912-.954 9.495-.954 9.495.196-.039.69-.357 1.186-2.407.397-1.643.674-3.866.941-6.015C10.835 15.758 11.325 12 13 12c-2.125 0-4 .583-4 8z"></path></g><g><path fill="#b08159" d="M1.5 4.707V1.686l37 11.893V16.6z"></path><path d="M2 2.372l36 11.571v1.971L2 4.342v-1.97M1 1v4.071l38 12.214v-4.071L1 1z" fill="#704e34"></path></g></svg>