<svg viewBox="0 0 40 40" xmlns="http://www.w3.org/2000/svg"><path d="M6.372 37.5a.875.875 0 01-.863-.885V3.385c0-.488.387-.885.863-.885h11.18A2.503 2.503 0 0020 5.5a2.503 2.503 0 002.448-3h11.197c.476 0 .864.397.864.885v33.23a.876.876 0 01-.864.885H6.372z" fill="#f5c276"></path><path d="M33.645 3c.201 0 .364.173.364.385v33.231a.375.375 0 01-.364.385H6.372a.375.375 0 01-.364-.385V3.385c.001-.212.164-.385.364-.385H17c0 1.654 1.346 3 3 3s3-1.346 3-3h10.645m0-1H21.723c.171.295.277.634.277 1a2 2 0 11-4 0c0-.366.106-.705.277-1H6.372c-.753 0-1.363.62-1.363 1.385v33.231c0 .764.61 1.384 1.363 1.384h27.273c.753 0 1.364-.62 1.364-1.385V3.385c0-.765-.611-1.385-1.364-1.385z" fill="#c29653"></path><path fill="#fff" d="M9.009 6h22v28h-22z"></path><path d="M20.009 1c1.103 0 2 .897 2 2s-.897 2-2 2-2-.897-2-2 .897-2 2-2m0-1a3 3 0 100 6 3 3 0 000-6z" fill="#66798f"></path><path d="M22.499 3c0 .242-.026.491-.103.747a2.486 2.486 0 01-1.769 1.679A2.504 2.504 0 0117.509 3H17v5a1 1 0 001 1h4a1 1 0 001-1V3h-.501z" fill="#66798f"></path><path d="M20 19.5c-1.93 0-3.5-1.57-3.5-3.5s1.57-3.5 3.5-3.5 3.5 1.57 3.5 3.5-1.57 3.5-3.5 3.5z" fill="#ffeea3"></path><path d="M20 13c1.654 0 3 1.346 3 3s-1.346 3-3 3-3-1.346-3-3 1.346-3 3-3m0-1a4 4 0 100 8 4 4 0 000-8z" fill="#ba9b48"></path><path d="M12.517 27.5c.258-3.903 3.516-7 7.483-7s7.225 3.097 7.483 7H12.517z" fill="#c2e8ff"></path><path d="M20 21c3.52 0 6.442 2.612 6.929 6H13.071c.487-3.388 3.409-6 6.929-6m0-1a8 8 0 00-8 8h16a8 8 0 00-8-8z" fill="#7496c4"></path><g><circle cx="31" cy="31" r="8.5" fill="#f78f8f"></circle><path d="M31 23c4.411 0 8 3.589 8 8s-3.589 8-8 8-8-3.589-8-8 3.589-8 8-8m0-1c-4.971 0-9 4.029-9 9s4.029 9 9 9 9-4.029 9-9-4.029-9-9-9z" fill="#c74343"></path></g><path fill="none" stroke="#fff" stroke-width="2" stroke-miterlimit="10" d="M27.5 34.5l7-7M27.5 27.5l7 7"></path></svg>