<svg viewBox="0 0 40 40" xmlns="http://www.w3.org/2000/svg"><path d="M4.893 18.5a3.393 3.393 0 01-2.574-5.604" fill="none" stroke="#788b9c" stroke-miterlimit="10"></path><path d="M29.607 35.5a2.875 2.875 0 01-2.046-.848l-1.446-1.445-.305.118c-2 .779-4.124 1.175-6.31 1.175a17.4 17.4 0 01-5.588-.928l-.294-.1-1.18 1.18c-.547.547-1.273.848-2.046.848s-1.499-.301-2.045-.848a2.884 2.884 0 01-.213-3.827l.286-.363-.34-.313C5.127 27.419 3.5 23.814 3.5 20c0-7.995 7.178-14.5 16-14.5 3.263 0 6.405.89 9.089 2.573l.274.172.27-.181c2.269-1.518 4.429-2.368 6.433-2.534-.476 1.36-1.513 4.455-2.083 7.16l-.041.193.103.169a13.725 13.725 0 011.366 3.093l.108.354H37c.827 0 1.5.673 1.5 1.5v6c0 .827-.673 1.5-1.5 1.5h-2.696l-.136.283a14.444 14.444 0 01-2.738 3.854l-.347.353.568.571c.548.548.849 1.274.849 2.047s-.301 1.499-.848 2.045a2.87 2.87 0 01-2.045.848z" fill="#fff"></path><path d="M19.5 6c3.168 0 6.219.863 8.823 2.497l.549.344.539-.36c1.904-1.274 3.72-2.062 5.419-2.353-.531 1.566-1.345 4.127-1.837 6.461l-.081.386.204.337c.549.909.991 1.911 1.316 2.98l.215.708H37c.551 0 1 .449 1 1v6c0 .551-.449 1-1 1h-3.011l-.272.567a13.92 13.92 0 01-2.643 3.72l-.696.707.702.702.22.22c.451.451.7 1.052.7 1.691s-.249 1.24-.701 1.692a2.377 2.377 0 01-1.692.701c-.639 0-1.24-.249-1.692-.701L26.7 33.084l-.462-.462-.608.237A16.821 16.821 0 0119.5 34a16.9 16.9 0 01-5.427-.901l-.588-.199-.439.439-.96.96a2.381 2.381 0 01-1.693.701c-.639 0-1.24-.249-1.692-.701a2.384 2.384 0 01-.174-3.163l.573-.727-.68-.628C5.57 27.148 4 23.674 4 20c0-7.72 6.953-14 15.5-14m16.786-1c-2.704 0-5.317 1.235-7.431 2.65C26.195 5.982 22.975 5 19.5 5 10.387 5 3 11.716 3 20c0 4.098 1.812 7.809 4.742 10.516-1.051 1.332-.978 3.261.252 4.49a3.38 3.38 0 002.399.994 3.38 3.38 0 002.399-.994l.96-.96a17.913 17.913 0 0012.24-.255l1.216 1.216a3.385 3.385 0 002.399.993 3.393 3.393 0 002.399-5.792l-.22-.22A14.928 14.928 0 0034.618 26H37a2 2 0 002-2v-6a2 2 0 00-2-2h-1.612a14.163 14.163 0 00-1.417-3.206C34.725 9.217 36.286 5 36.286 5z" fill="#788b9c"></path><path d="M17.786 26.214v-.856c0-1.348-.846-2.237-1.742-3.18-1.092-1.148-2.33-2.45-2.33-4.964 0-3.466 2.82-6.285 6.286-6.285s6.286 2.819 6.286 6.285c0 2.514-1.238 3.815-2.33 4.964-.896.942-1.742 1.832-1.742 3.18v.856h-4.428z" fill="#ffeea3"></path><path d="M20 11.429a5.792 5.792 0 015.786 5.786c0 2.314-1.115 3.486-2.192 4.619-.924.972-1.879 1.976-1.879 3.523v.357h-3.429v-.357c0-1.547-.955-2.552-1.879-3.523-1.078-1.134-2.192-2.306-2.192-4.619A5.79 5.79 0 0120 11.429m0-1a6.786 6.786 0 00-6.786 6.786c0 4.75 4.071 5.466 4.071 8.143v1.357h5.429v-1.357c0-2.677 4.071-3.393 4.071-8.143A6.784 6.784 0 0020 10.429z" fill="#ba9b48"></path><path d="M21.35 16.857a.428.428 0 01.431.431.428.428 0 01-.126.305l-1.012 1.012-.293.293v6.837h-.7v-6.837l-.293-.293-1.012-1.012c-.11-.11-.126-.238-.126-.305a.428.428 0 01.431-.431c.067 0 .195.016.305.126l.337.337.708.708.707-.707.337-.337a.432.432 0 01.306-.127m0-1c-.366 0-.733.14-1.012.419l-.338.338-.337-.337a1.428 1.428 0 00-2.024 0 1.431 1.431 0 000 2.024l1.012 1.012v7.423h2.699v-7.423l1.012-1.012a1.431 1.431 0 00-1.012-2.444z" fill="#fff"></path><circle cx="20" cy="28.605" r="2.181" fill="#8b75a1"></circle><g><path d="M18.643 29.559a.857.857 0 01-.856-.857V25.13h4.428v3.571a.857.857 0 01-.856.857h-2.716z" fill="#dcd5f2"></path><path d="M21.714 25.63v3.071c0 .197-.16.357-.357.357h-2.714a.357.357 0 01-.357-.357V25.63h3.428m1-1h-5.429v4.071c0 .75.608 1.357 1.357 1.357h2.714c.75 0 1.357-.608 1.357-1.357V24.63h.001z" fill="#8b75a1"></path></g></svg>