<svg viewBox="0 0 40 40" xmlns="http://www.w3.org/2000/svg"><path d="M14.5 29.833V28c0-1.914-1.168-3.76-2.52-5.897-1.631-2.578-3.48-5.5-3.48-9.103C8.5 6.659 13.659 1.5 20 1.5S31.5 6.659 31.5 13c0 3.603-1.849 6.525-3.48 9.103C26.668 24.24 25.5 26.086 25.5 28v1.833h-11z" fill="#ffeea3"></path><path d="M20 2c6.065 0 11 4.935 11 11 0 3.458-1.808 6.315-3.402 8.835C26.262 23.947 25 25.941 25 28v1.333H15V28c0-2.059-1.262-4.053-2.598-6.165C10.808 19.315 9 16.458 9 13 9 6.935 13.935 2 20 2m0-1C13.373 1 8 6.373 8 13c0 6.667 6 10.958 6 15v2.333h12V28c0-4.042 6-8.333 6-15 0-6.627-5.373-12-12-12z" fill="#ba9b48"></path><path d="M22.714 11.335a1.88 1.88 0 011.329 3.207l-1.75 1.75-.293.294V29h-4V16.586l-.293-.293-1.75-1.75a1.88 1.88 0 012.658-2.657l.679.679.706.706.707-.707.679-.679c.355-.354.826-.55 1.328-.55m0-1a2.87 2.87 0 00-2.036.843l-.678.679-.679-.679a2.87 2.87 0 00-2.036-.843 2.879 2.879 0 00-2.036 4.914L17 17v13h6V17l1.75-1.75a2.879 2.879 0 00-2.036-4.915z" fill="#fff"></path><circle cx="20" cy="35" r="4" fill="#8b75a1"></circle><path d="M17 36.5a2.503 2.503 0 01-2.5-2.5v-5.5h11V34c0 1.378-1.122 2.5-2.5 2.5h-6z" fill="#dcd5f2"></path><path d="M25 29v5c0 1.103-.897 2-2 2h-6c-1.103 0-2-.897-2-2v-5h10m1-1H14v6a3 3 0 003 3h6a3 3 0 003-3v-6z" fill="#8b75a1"></path><path fill="#8b75a1" d="M19 34h6.488v1H19zM14.56 34H17v1h-2.44zM19 32h7v1h-7zM14 32h3v1h-3zM19 30h7v1h-7zM14 30h3v1h-3z"></path></svg>