<svg viewBox="0 0 40 40" xmlns="http://www.w3.org/2000/svg"><path fill="#b0c1d4" d="M15.56 35.5l.89-8h7.1l.89 8h-8.88z"></path><path d="M23.1 28l.78 7h-7.76l.78-7h6.2m.9-1h-8l-1 9h10l-1-9z" fill="#66798f"></path><rect x="1.5" y="23.5" width="37" height="7" rx="1.5" ry="1.5" fill="#c2e8ff"/><path d="M37 24a1 1 0 011 1v4a1 1 0 01-1 1H3a1 1 0 01-1-1v-4a1 1 0 011-1h34m0-1H3a2 2 0 00-2 2v4a2 2 0 002 2h34a2 2 0 002-2v-4a2 2 0 00-2-2z" fill="#66798f"></path><path fill="#66798f" d="M2 26h36v4H2zM12 35h16v2H12z"></path><circle cx="20" cy="28" r="1" fill="#36404d"></circle><path d="M1.5 25.5V5a.5.5 0 01.5-.5h36a.5.5 0 01.5.5v20.5z" fill="#c2e8ff"></path><path d="M38 5v20H2V5h36m0-1H2a1 1 0 00-1 1v21h38V5a1 1 0 00-1-1z" fill="#36404d"></path></svg>