<svg viewBox="0 0 40 40" xmlns="http://www.w3.org/2000/svg"><path fill="#fff" d="M6.5 37.5v-35h18.293l8.707 8.707V37.5z"></path><path d="M24.586 3L33 11.414V37H7V3h17.586M25 2H6v36h28V11l-9-9z" fill="#788b9c"></path><path fill="#fff" d="M24.5 11.5v-9h.293l8.707 8.707v.293z"></path><path d="M25 3.414L32.586 11H25V3.414M25 2h-1v10h10v-1l-9-9z" fill="#788b9c"></path><path fill="#7aadf0" d="M23 21.169L20 24l4.554 5H28v-3z"></path><circle cx="26" cy="17" r="2" fill="#b5deff"></circle><path fill="#b5deff" d="M26 29H12v-4l5-5z"></path></svg>