<svg viewBox="0 0 40 40" xmlns="http://www.w3.org/2000/svg"><path d="M3 29.5c-.827 0-1.5-.673-1.5-1.5V12c0-.827.673-1.5 1.5-1.5h34c.827 0 1.5.673 1.5 1.5v16c0 .827-.673 1.5-1.5 1.5H3z" fill="#ffeea3"></path><path d="M37 11c.551 0 1 .449 1 1v16c0 .551-.449 1-1 1H3c-.551 0-1-.449-1-1V12c0-.551.449-1 1-1h34m0-1H3c-1.1 0-2 .9-2 2v16c0 1.1.9 2 2 2h34c1.1 0 2-.9 2-2V12c0-1.1-.9-2-2-2z" fill="#f5c276"></path><path d="M21.5 24.5v-9h1.509c1.316 0 1.425.072 1.747.287.079.053.166.11.272.175.236.137.472.582.472 1.1v6.03c0 .402-.181.759-.483.953l-.121.073c-.305.188-.62.382-1.887.382H21.5zm1-.531h.5c.995 0 1.5-.454 1.5-1.349v-5.219c0-.864-.575-1.401-1.5-1.401h-.5v7.969z" fill="#839cb2"></path><path d="M22 16v8-8m2.722.36l.056.034c.057.044.222.292.222.667v.34c0-.398-.099-.751-.278-1.041M25 22.62v.472c0 .087-.018.382-.213.508l-.023.014c.198-.358.236-.748.236-.994M23.008 15H21v10h2.008c1.583 0 1.883-.305 2.279-.534.476-.306.713-.84.713-1.374v-6.031c0-.687-.317-1.298-.712-1.527-.634-.381-.538-.534-2.28-.534zM23 23.469V16.5c.475 0 1 .18 1 .901v5.219c0 .784-.525.849-1 .849z" fill="#66798f"></path><path d="M18.5 24.5v-9h1v9h-1zm-3.313 0l-2.314-9h.752l1.848 6.322 1.899-6.322h.8l-2.486 9h-.499zm-3.687 0v-9h1v9h-1z" fill="#839cb2"></path><path d="M19 16v8-8m-7 0v8-8m8-1h-3l-1.521 5.063L14 15h-3v10h2v-7l1.8 7h1.267L18 18v7h2V15z" fill="#66798f"></path><g><path fill="#839cb2" d="M8.5 15.5h1v9h-1z"></path><path d="M9 16v8-8m1-1H8v10h2V15z" fill="#66798f"></path></g><g><path d="M30.438 24.5c-.326 0-.903-.259-1.19-.422l-.748-.424v.846h-1v-10h1v3.893l.007-.009a.892.892 0 00-.007.116v4a1 1 0 002 0v-4a1 1 0 00-1.375-.927l.273-.359c.178-.232.665-.714 1.039-.714.705 0 1.063.505 1.063 1.5v5c0 1.122-.729 1.5-1.062 1.5z" fill="#839cb2"></path><path d="M28 15v1.912l.002 1.512A1.928 1.928 0 0028 18.5v4c0 .106.011.209.032.309L28 22.79V24v-9m2.438 2c.182 0 .562 0 .562 1v.5c0-.589-.342-1.101-.838-1.346.112-.087.216-.148.276-.154M31 22.5v.5c0 .904-.561 1-.563 1-.079 0-.226-.04-.393-.102.559-.219.956-.763.956-1.398M29 14h-2v11h2v-.487s.854.487 1.438.487c.583 0 1.562-.577 1.562-2v-5c0-1.549-.813-2-1.563-2S29 16.912 29 16.912V14zm.5 9a.501.501 0 01-.5-.5v-4c0-.275.225-.5.5-.5s.5.225.5.5v4c0 .275-.225.5-.5.5z" fill="#66798f"></path></g></svg>