<svg viewBox="0 0 40 40" xmlns="http://www.w3.org/2000/svg"><path d="M19.991 38.5C9.889 38.5 1.77 30.585 1.507 20.481c-.129-4.939 1.674-9.634 5.076-13.218A18.38 18.38 0 0120.009 1.5c10.103 0 18.222 7.915 18.484 18.019.129 4.939-1.674 9.634-5.076 13.218A18.38 18.38 0 0119.991 38.5z" fill="#ffeea3"></path><path d="M20.011 1v1c9.828 0 17.727 7.701 17.983 17.532a17.884 17.884 0 01-4.939 12.861A17.88 17.88 0 0119.991 38c-9.829 0-17.729-7.701-17.984-17.532A17.884 17.884 0 016.946 7.607 17.88 17.88 0 0120.009 2l.002-1m-.002 0c-.167 0-.336.002-.503.007C9.016 1.279.734 10.004 1.007 20.494 1.275 30.816 9.726 39 19.991 39c.167 0 .336-.002.503-.007 10.49-.273 18.772-8.998 18.499-19.487C38.725 9.184 30.274.999 20.009 1z" fill="#c29653"></path><path d="M30.179 26.449S26.786 30.52 20 30.52 9.821 26.449 9.821 26.449" fill="none" stroke="#c29653" stroke-miterlimit="10"></path><path d="M27.501 21.376c-1.63-1.251-5.001-4.274-5.001-6.377A2.502 2.502 0 0125 12.5c.839 0 1.618.419 2.083 1.121l.417.628.417-.628A2.494 2.494 0 0130 12.5c1.379 0 2.5 1.121 2.5 2.499 0 2.124-3.369 5.133-4.999 6.377z" fill="#f78f8f"></path><path d="M30 13c1.103 0 2 .897 2 1.999 0 1.645-2.555 4.213-4.499 5.745C25.557 19.206 23 16.633 23 14.999c0-1.102.897-1.999 2-1.999.671 0 1.294.335 1.667.897l.833 1.257.833-1.257A1.997 1.997 0 0130 13m0-1a2.994 2.994 0 00-2.5 1.344 3 3 0 00-5.5 1.655C22 17.986 27.5 22 27.5 22s5.5-3.989 5.5-7.001A3 3 0 0030 12z" fill="#c74343"></path><g><path d="M12.501 21.376c-1.63-1.251-5.001-4.274-5.001-6.377A2.502 2.502 0 0110 12.5c.839 0 1.618.419 2.083 1.121l.417.628.417-.628A2.494 2.494 0 0115 12.5c1.379 0 2.5 1.121 2.5 2.499 0 2.124-3.369 5.133-4.999 6.377z" fill="#f78f8f"></path><path d="M15 13c1.103 0 2 .897 2 1.999 0 1.645-2.555 4.213-4.499 5.745C10.557 19.206 8 16.633 8 14.999 8 13.897 8.897 13 10 13c.671 0 1.294.335 1.667.897l.833 1.257.833-1.257A1.997 1.997 0 0115 13m0-1a2.994 2.994 0 00-2.5 1.344A3 3 0 007 14.999C7 17.986 12.5 22 12.5 22s5.5-3.989 5.5-7.001A3 3 0 0015 12z" fill="#c74343"></path></g></svg>