<svg viewBox="0 0 40 40" xmlns="http://www.w3.org/2000/svg"><path d="M23.5 31.5v-19h10.761c.554 0 1.061.304 1.321.792l3.504 6.545c.271.506.414 1.077.414 1.651V31.5h-16z" fill="#8bb7f0"></path><path d="M34.26 13a1 1 0 01.882.528l3.503 6.544c.232.434.355.924.355 1.416V31H24V13h10.26m0-1H23v20h17V21.488a4.01 4.01 0 00-.473-1.888l-3.503-6.544A2 2 0 0034.26 12z" fill="#4e7ab5"></path><path fill="#c2e8ff" d="M1.5 6.5h22v25h-22z"></path><path d="M23 7v24H2V7h21m1-1H1v26h23V6z" fill="#7496c4"></path><circle cx="10.414" cy="31.759" r="3.534" fill="#b0c1d4"></circle><path d="M10.414 28.724a3.037 3.037 0 013.034 3.034c0 1.673-1.361 3.034-3.034 3.034S7.38 33.431 7.38 31.758a3.037 3.037 0 013.034-3.034m0-1a4.034 4.034 0 100 8.068 4.034 4.034 0 000-8.068z" fill="#66798f"></path><circle cx="31" cy="32" r="3.5" fill="#b0c1d4"></circle><path d="M31 29c1.654 0 3 1.346 3 3s-1.346 3-3 3-3-1.346-3-3 1.346-3 3-3m0-1a4 4 0 100 8 4 4 0 000-8z" fill="#66798f"></path><path fill="#7496c4" d="M0 6h13v1H0z"></path><path fill="#c2e8ff" d="M1 7h2v20H1z"></path><path d="M39 28h-1.5a1.5 1.5 0 010-3H39v3z" fill="#fff"></path><path d="M34.207 22.5l-2-2H31c-.827 0-1.5-.673-1.5-1.5v-2c0-.827.673-1.5 1.5-1.5h5.765l2.321 4.337c.271.506.414 1.077.414 1.651V22.5h-5.293z" fill="#c2e8ff"></path><path d="M36.465 16l2.18 4.072c.232.434.355.924.355 1.416V22h-4.586l-1.707-1.707-.293-.293H31c-.551 0-1-.449-1-1v-2c0-.551.449-1 1-1h5.465m.599-1H31a2 2 0 00-2 2v2a2 2 0 002 2h1l2 2h6v-1.512a4.01 4.01 0 00-.473-1.888L37.064 15z" fill="#4e7ab5"></path><path fill="#7496c4" d="M0 10h11v1H0zM0 14h9v1H0zM0 18h7v1H0zM0 22h5v1H0z"></path></svg>