<svg viewBox="0 0 40 40" xmlns="http://www.w3.org/2000/svg"><path fill="#8bb7f0" d="M2.5 2.5h15v35h-15z"></path><path d="M17 3v34H3V3h14m1-1H2v36h16V2z" fill="#4e7ab5"></path><g><path d="M25 31.5a2.503 2.503 0 01-2.5-2.5V11c0-1.379 1.122-2.5 2.5-2.5h10c1.378 0 2.5 1.121 2.5 2.5v18c0 1.379-1.122 2.5-2.5 2.5H25z" fill="#bae0bd"></path><path d="M35 9c1.103 0 2 .897 2 2v18c0 1.103-.897 2-2 2H25c-1.103 0-2-.897-2-2V11c0-1.103.897-2 2-2h10m0-1H25a3 3 0 00-3 3v18a3 3 0 003 3h10a3 3 0 003-3V11a3 3 0 00-3-3z" fill="#5e9c76"></path></g></svg>