<svg viewBox="0 0 40 40" xmlns="http://www.w3.org/2000/svg"><path fill="#4e7ab5" d="M8 32h31v-2H8v-6l-7 7 7 7z"></path><path fill="none" stroke="#788b9c" stroke-miterlimit="10" d="M39 9.5H1"></path><circle cx="33.5" cy="9.5" r="3" fill="#bae0bd"></circle><path d="M33.5 7C34.879 7 36 8.122 36 9.5S34.879 12 33.5 12 31 10.878 31 9.5 32.121 7 33.5 7m0-1a3.5 3.5 0 100 7 3.5 3.5 0 000-7z" fill="#5e9c76"></path><circle cx="24.5" cy="9.5" r="3" fill="#bae0bd"></circle><path d="M24.5 7C25.879 7 27 8.122 27 9.5S25.879 12 24.5 12 22 10.878 22 9.5 23.121 7 24.5 7m0-1a3.5 3.5 0 100 7 3.5 3.5 0 000-7z" fill="#5e9c76"></path><g><circle cx="15.5" cy="9.5" r="3" fill="#bae0bd"></circle><path d="M15.5 7C16.879 7 18 8.122 18 9.5S16.879 12 15.5 12 13 10.878 13 9.5 14.121 7 15.5 7m0-1a3.5 3.5 0 100 7 3.5 3.5 0 000-7z" fill="#5e9c76"></path></g><g><circle cx="6.5" cy="9.5" r="3" fill="#bae0bd"></circle><path d="M6.5 7C7.879 7 9 8.122 9 9.5S7.879 12 6.5 12 4 10.878 4 9.5 5.121 7 6.5 7m0-1a3.5 3.5 0 100 7 3.5 3.5 0 000-7z" fill="#5e9c76"></path></g></svg>