<svg viewBox="0 0 40 40" xmlns="http://www.w3.org/2000/svg"><path fill="#dbf2ff" d="M3.5 38.5V13.286L19.998 3.58 36.5 13.286V38.5z"></path><path d="M19.998 4.16L36 13.572V38H4V13.572L19.998 4.16m0-1.16L3 13v26h34V13L19.998 3z" fill="#7496c4"></path><path fill="#f78f8f" d="M19.998 5.645L1.5 16.955v-4.059l18.498-11.31L38.5 12.896v4.059z"></path><path d="M19.998 2.172L38 13.176v2.887L20.519 5.378l-.522-.319-.522.319L2 16.063v-2.887L19.998 2.172m0-1.172L1 12.615v5.231L19.998 6.231 39 17.846v-5.231L19.998 1z" fill="#c74343"></path><path fill="#66798f" d="M25 23h-1v8h1v-8z"></path><path fill="#839cb2" d="M24 30h13v1H24z"></path><path fill="#66798f" d="M37 30H24v1h13v-1z"></path><g><path d="M24.5 24.5c-2.206 0-4-1.794-4-4s1.794-4 4-4 4 1.794 4 4-1.794 4-4 4z" fill="#839cb2"></path><path d="M24.5 17c1.93 0 3.5 1.57 3.5 3.5S26.43 24 24.5 24 21 22.43 21 20.5s1.57-3.5 3.5-3.5m0-1a4.5 4.5 0 100 9 4.5 4.5 0 000-9z" fill="#66798f"></path></g><g><circle cx="24.5" cy="20.5" r="1" fill="#3d4e5b"></circle><path d="M24.5 20a.5.5 0 110 1 .5.5 0 010-1m0-1a1.5 1.5 0 10.001 3.001A1.5 1.5 0 0024.5 19z" fill="#36404d"></path></g></svg>