<svg viewBox="0 0 40 40" xmlns="http://www.w3.org/2000/svg"><path fill="#4b6477" d="M6.5 35.5h2v3h-2z"></path><path d="M8 36v2H7v-2h1m1-1H6v4h3v-4z" fill="#36404d"></path><path fill="#4b6477" d="M31.5 35.5h2v3h-2z"></path><path d="M33 36v2h-1v-2h1m1-1h-3v4h3v-4z" fill="#36404d"></path><path fill="#788b9c" d="M19 7h2v19h-2z"></path><path fill="#4b6477" d="M13.5 1.5h13v7h-13z"></path><path d="M26 2v6H14V2h12m1-1H13v8h14V1z" fill="#36404d"></path><path fill="#99c99e" d="M15 4h6v2h-6z"></path><path fill="#b0c1d4" d="M2.5 35.5v-2.349L8.268 24.5h23.464l5.768 8.651V35.5z"></path><path d="M31.465 25L37 33.303V35H3v-1.697L8.535 25h22.93M32 24H8l-6 9v3h36v-3l-6-9z" fill="#788b9c"></path><g><path fill="#b0c1d4" d="M2.5 33.5h35v2h-35z"></path><path d="M37 34v1H3v-1h34m1-1H2v3h36v-3z" fill="#788b9c"></path></g><g><circle cx="31" cy="31" r="8.5" fill="#bae0bd"></circle><path d="M31 23c4.411 0 8 3.589 8 8s-3.589 8-8 8-8-3.589-8-8 3.589-8 8-8m0-1c-4.971 0-9 4.029-9 9s4.029 9 9 9 9-4.029 9-9-4.029-9-9-9z" fill="#5e9c76"></path></g><path fill="none" stroke="#fff" stroke-width="2" stroke-miterlimit="10" d="M26.821 31.025l2.77 2.769 6.23-6.231"></path></svg>