<svg viewBox="0 0 40 40" xmlns="http://www.w3.org/2000/svg"><path fill="#4b6477" d="M6.5 35.5h2v3h-2z"></path><path d="M8 36v2H7v-2h1m1-1H6v4h3v-4z" fill="#36404d"></path><path fill="#788b9c" d="M19 7h2v19h-2z"></path><path fill="#4b6477" d="M13.5 1.5h13v7h-13z"></path><path d="M26 2v6H14V2h12m1-1H13v8h14V1z" fill="#36404d"></path><path fill="#99c99e" d="M15 4h6v2h-6z"></path><path d="M2.5 35.5v-2.349L8.268 24.5h17.521c-.956 1.199-2.289 3.728-2.289 8.5v2.5h-21z" fill="#b0c1d4"></path><path d="M24.843 25C23.942 26.477 23 28.981 23 33v2H3v-1.697L8.535 25h16.308M27 24H8l-6 9v3h22v-3c0-7.086 3-9 3-9z" fill="#788b9c"></path><g><path fill="#b0c1d4" d="M2.5 33.5h22v2h-22z"></path><path d="M24 34v1H3v-1h21m1-1H2v3h23v-3z" fill="#788b9c"></path></g><g><path d="M31 39.5c-4.687 0-8.5-3.813-8.5-8.5s3.813-8.5 8.5-8.5a8.43 8.43 0 016.003 2.497l.354.354 2.143-2.144V29.5h-6.293l2.024-2.024-.353-.354A5.446 5.446 0 0031 25.5c-3.032 0-5.5 2.467-5.5 5.5s2.468 5.5 5.5 5.5a5.502 5.502 0 004.895-3h3.226a8.449 8.449 0 01-8.121 6z" fill="#8bb7f0"></path><path d="M31 23c2.131 0 4.137.835 5.649 2.35l.707.709.708-.708.936-.937V29h-4.586l.817-.817.706-.706-.705-.707A5.945 5.945 0 0031 25c-3.308 0-6 2.692-6 6s2.692 6 6 6a5.999 5.999 0 005.191-3h2.223A7.945 7.945 0 0131 39c-4.411 0-8-3.589-8-8s3.589-8 8-8m9-1l-2.643 2.643A8.952 8.952 0 0031 22c-4.971 0-9 4.029-9 9s4.029 9 9 9c4.282 0 7.859-2.993 8.769-7h-4.191A4.998 4.998 0 0126 31a5 5 0 015-5c1.381 0 2.621.57 3.524 1.476L32 30h8v-8z" fill="#4e7ab5"></path></g></svg>