<svg viewBox="0 0 40 40" xmlns="http://www.w3.org/2000/svg"><path d="M15.5 19.793v-1.586L28.281 5.426 37.5 1.738V4c0 2.187-.668 5.461-3.854 8.646l-1.567 1.574c-2.802 2.815-8.494 8.534-11.076 11.076L15.5 19.793z" fill="#dbf2ff"></path><path d="M37 2.477V4c0 2.092-.643 5.229-3.707 8.293l-1.568 1.574c-2.68 2.693-8.004 8.042-10.719 10.724L16 19.586v-1.172L28.562 5.852 37 2.477M38 1L28 5 15 18v2l6 6c3-2.938 11.9-11.9 13-13 3.104-3.104 4-6.383 4-9V1z" fill="#7496c4"></path><path d="M33.858 3.734C33.515 5.992 32.452 8.548 30 11c-.935.935-7.49 7.534-11.283 11.303l2.289 2.289c2.715-2.682 8.039-8.031 10.719-10.724l1.568-1.574C36.357 9.229 37 6.092 37 4V2.477l-3.142 1.257z" fill="#8bb7f0"></path><path d="M7.099 38.5a1.49 1.49 0 01-1.061-.437l-4.101-4.101a1.502 1.502 0 010-2.122l12.599-12.598 6.222 6.222L8.159 38.063a1.49 1.49 0 01-1.06.437z" fill="#e1ebf2"></path><path d="M14.535 19.95l5.515 5.515L7.805 37.71c-.187.187-.438.29-.707.29s-.52-.103-.707-.29L2.29 33.609a1 1 0 010-1.414L14.535 19.95m0-1.415L1.583 31.488a2.005 2.005 0 000 2.828l4.101 4.101c.389.389.902.583 1.414.583s1.025-.194 1.414-.583l12.952-12.952-6.929-6.93z" fill="#788b9c"></path><circle cx="13" cy="27" r=".5" fill="#dbf2ff"></circle><path d="M13 26a1 1 0 100 2 1 1 0 000-2z" fill="#7496c4"></path><g><circle cx="8" cy="32" r=".5" fill="#dbf2ff"></circle><path d="M8 31a1 1 0 100 2 1 1 0 000-2z" fill="#7496c4"></path></g><g><path d="M22.851 28.5a1.49 1.49 0 01-1.061-.437l-9.903-9.903a1.49 1.49 0 01-.437-1.061c0-.402.155-.779.437-1.061l.152-.152a1.488 1.488 0 011.061-.437c.402 0 .779.155 1.061.437l9.903 9.903c.282.282.437.659.437 1.061 0 .402-.155.779-.437 1.061l-.152.152a1.49 1.49 0 01-1.061.437z" fill="#b0c1d4"></path><path d="M13.099 15.95c.269 0 .52.103.707.29l9.903 9.903a1 1 0 010 1.414l-.152.152a.988.988 0 01-.706.291.992.992 0 01-.707-.29l-9.903-9.903a1 1 0 010-1.414l.152-.152a.986.986 0 01.706-.291m0-1c-.513 0-1.025.194-1.414.583l-.152.152a2.005 2.005 0 000 2.828l9.903 9.903c.389.39.902.584 1.415.584s1.025-.194 1.414-.583l.152-.152a2.005 2.005 0 000-2.828l-9.903-9.903a1.991 1.991 0 00-1.415-.584z" fill="#788b9c"></path></g></svg>