<svg viewBox="0 0 40 40" xmlns="http://www.w3.org/2000/svg"><path d="M30.667 28.5c-4.29 0-8.288-3.862-10.29-6.164a.5.5 0 00-.754 0c-2.002 2.302-6 6.164-10.29 6.164-4.87 0-8.833-4.038-8.833-9s3.963-9 8.833-9c3.908 0 7.754 3.417 10.293 6.283a.498.498 0 00.748 0c2.539-2.866 6.385-6.283 10.293-6.283 4.87 0 8.833 4.038 8.833 9s-3.963 9-8.833 9zm0-14.929c-2.814 0-6.108 3.074-8.376 5.653a.5.5 0 00-.004.655c2.167 2.531 5.379 5.549 8.38 5.549 3.217 0 5.833-2.66 5.833-5.929s-2.616-5.928-5.833-5.928zm-21.334 0c-3.217 0-5.833 2.66-5.833 5.929s2.616 5.929 5.833 5.929c3.001 0 6.213-3.018 8.38-5.549a.499.499 0 00-.005-.655c-2.268-2.579-5.562-5.654-8.375-5.654z" fill="#ffc49c"></path><path d="M30.667 11C35.262 11 39 14.813 39 19.5S35.262 28 30.667 28c-4.091 0-7.966-3.754-9.912-5.991a1.002 1.002 0 00-1.51 0C17.3 24.246 13.424 28 9.333 28 4.738 28 1 24.187 1 19.5S4.738 11 9.333 11c3.918 0 7.896 3.831 9.918 6.114a1.001 1.001 0 001.498 0c2.022-2.283 6-6.114 9.918-6.114m0 14.929c3.492 0 6.333-2.884 6.333-6.429 0-3.545-2.841-6.429-6.333-6.429-3.001 0-6.415 3.166-8.751 5.823a1.001 1.001 0 00-.009 1.311c2.235 2.611 5.569 5.724 8.76 5.724m-21.334 0c3.191 0 6.525-3.113 8.76-5.724a1 1 0 00-.009-1.311c-2.336-2.656-5.75-5.823-8.751-5.823C5.841 13.071 3 15.955 3 19.5c0 3.545 2.841 6.429 6.333 6.429M30.667 10c-3.891 0-7.8 3.215-10.667 6.451C17.134 13.215 13.225 10 9.333 10 4.179 10 0 14.253 0 19.5S4.179 29 9.333 29c3.916 0 7.776-3.011 10.667-6.335C22.891 25.989 26.751 29 30.667 29 35.821 29 40 24.747 40 19.5S35.821 10 30.667 10zm0 14.929c-2.524 0-5.494-2.446-8-5.374 2.623-2.983 5.632-5.483 8-5.483 2.941 0 5.333 2.435 5.333 5.429s-2.392 5.428-5.333 5.428zm-21.334 0C6.392 24.929 4 22.493 4 19.5s2.392-5.429 5.333-5.429c2.368 0 5.377 2.5 8 5.483-2.506 2.928-5.476 5.375-8 5.375z" fill="#a16a4a"></path><path fill="#ffc49c" stroke="#a16a4a" stroke-linecap="round" stroke-linejoin="round" stroke-miterlimit="10" d="M20.374 16.783L17.609 20"></path><path fill="none" stroke="#a16a4a" stroke-linecap="round" stroke-linejoin="round" stroke-miterlimit="10" d="M22.2 19.322l-2.577 3.014"></path></svg>