<svg viewBox="0 0 40 40" xmlns="http://www.w3.org/2000/svg"><path fill="#fff" d="M2.5 3.5h35v33h-35z"></path><path d="M37 4v32H3V4h34m1-1H2v34h36V3z" fill="#788b9c"></path><path fill="#788b9c" d="M2 3h36v5H2zM13 10.119V21h-1.722v-8.773c-.312.223-.647.412-1.006.568s-.768.293-1.228.412v-1.47c.287-.094.564-.193.831-.297a9.53 9.53 0 00.79-.349 11.43 11.43 0 001.607-.972H13zM20.381 21c-1.108 0-1.973-.453-2.594-1.358-.621-.906-.932-2.214-.932-3.926 0-1.88.324-3.303.972-4.268.649-.966 1.584-1.448 2.807-1.448 2.341 0 3.511 1.818 3.511 5.455 0 1.801-.33 3.176-.991 4.123-.661.948-1.585 1.422-2.773 1.422zm.171-9.627c-1.291 0-1.937 1.423-1.937 4.268 0 2.662.633 3.993 1.9 3.993 1.247 0 1.87-1.353 1.87-4.06 0-2.8-.611-4.201-1.833-4.201zM31 10.119V21h-1.722v-8.773c-.312.223-.647.412-1.006.568s-.768.293-1.228.412v-1.47c.287-.094.564-.193.831-.297a9.53 9.53 0 00.79-.349 11.43 11.43 0 001.607-.972H31zM22 23.119V34h-1.722v-8.773c-.312.223-.647.412-1.006.568s-.768.293-1.228.412v-1.47c.287-.094.564-.193.831-.297a9.53 9.53 0 00.79-.349 11.226 11.226 0 001.607-.973H22zM28.381 34c-1.108 0-1.973-.453-2.594-1.358-.621-.906-.932-2.214-.932-3.926 0-1.88.324-3.303.972-4.268.649-.966 1.584-1.448 2.807-1.448 2.341 0 3.511 1.818 3.511 5.455 0 1.801-.33 3.176-.991 4.123-.661.948-1.585 1.422-2.773 1.422zm.171-9.627c-1.291 0-1.937 1.423-1.937 4.268 0 2.662.633 3.993 1.9 3.993 1.247 0 1.87-1.353 1.87-4.06 0-2.8-.611-4.201-1.833-4.201zM11.381 34c-1.108 0-1.973-.453-2.594-1.358-.621-.906-.932-2.214-.932-3.926 0-1.88.324-3.303.972-4.268S10.411 23 11.634 23c2.341 0 3.511 1.818 3.511 5.455 0 1.801-.33 3.176-.991 4.123-.661.948-1.585 1.422-2.773 1.422zm.171-9.627c-1.291 0-1.937 1.423-1.937 4.268 0 2.662.633 3.993 1.9 3.993 1.247 0 1.87-1.353 1.87-4.06 0-2.8-.611-4.201-1.833-4.201z"></path></svg>