<svg viewBox="0 0 40 40" xmlns="http://www.w3.org/2000/svg"><path d="M13 23.5c-1.93 0-3.5-1.57-3.5-3.5s1.57-3.5 3.5-3.5 3.5 1.57 3.5 3.5-1.57 3.5-3.5 3.5z" fill="#f78f8f"></path><path d="M13 17c1.654 0 3 1.346 3 3s-1.346 3-3 3-3-1.346-3-3 1.346-3 3-3m0-1a4 4 0 100 8 4 4 0 000-8z" fill="#c74343"></path><path d="M2.5 38.5v-37H9c1.93 0 3.5 1.57 3.5 3.5v30c0 1.93-1.57 3.5-3.5 3.5H2.5z" fill="#dcd5f2"></path><path d="M9 2c1.654 0 3 1.346 3 3v30c0 1.654-1.346 3-3 3H3V2h6m0-1H2v38h7a4 4 0 004-4V5a4 4 0 00-4-4z" fill="#8b75a1"></path><path d="M20 12v2c3.308 0 6 2.692 6 6s-2.692 6-6 6v2a8 8 0 000-16z" fill="#c74343"></path><path d="M20 7v2c6.065 0 11 4.935 11 11s-4.935 11-11 11v2c7.18 0 13-5.82 13-13S27.18 7 20 7z" fill="#f78f8f"></path><path d="M20 2v2c8.822 0 16 7.178 16 16s-7.178 16-16 16v2c9.941 0 18-8.059 18-18S29.941 2 20 2z" fill="#f7a3a3"></path></svg>