<svg viewBox="0 0 40 40" xmlns="http://www.w3.org/2000/svg"><path d="M5.5 9.5c-2.206 0-4-1.794-4-4s1.794-4 4-4 4 1.794 4 4-1.794 4-4 4z" fill="#f78f8f"></path><path d="M5.5 2C7.43 2 9 3.57 9 5.5S7.43 9 5.5 9 2 7.43 2 5.5 3.57 2 5.5 2m0-1a4.5 4.5 0 100 9 4.5 4.5 0 000-9z" fill="#c74343"></path><path d="M1.5 38.5v-26h8v3.275l.853-.849c1.796-1.789 4.759-2.426 6.933-2.426H20.5v7h-2.536c-3.905 0-8.464 1.908-8.464 7.286V38.5h-8z" fill="#dcd5f2"></path><path d="M20 13v6h-2.036C13.829 19 9 21.039 9 26.786V38H2V13h7V16.978l1.706-1.699c1.688-1.681 4.506-2.28 6.58-2.28H20M21 12h-3.714c-2.415 0-5.447.741-7.286 2.571V12H1v27h9V26.786C10 21.475 14.597 20 17.964 20H21v-8z" fill="#8b75a1"></path><path fill="#dcd5f2" d="M23.5 12.5h3v7h-3z"></path><path d="M26 13v6h-2v-6h2m1-1h-4v8h4v-8z" fill="#8b75a1"></path><g><path fill="#dcd5f2" d="M29.5 12.5h3v7h-3z"></path><path d="M32 13v6h-2v-6h2m1-1h-4v8h4v-8z" fill="#8b75a1"></path></g><g><path fill="#dcd5f2" d="M35.5 12.5h3v7h-3z"></path><path d="M38 13v6h-2v-6h2m1-1h-4v8h4v-8z" fill="#8b75a1"></path></g></svg>