<svg viewBox="0 0 40 40" xmlns="http://www.w3.org/2000/svg"><path d="M29 38.5c-1.93 0-3.5-1.57-3.5-3.5V5c0-1.93 1.57-3.5 3.5-3.5h9.5v37H29z" fill="#dcd5f2"></path><path d="M38 2v36h-9c-1.654 0-3-1.346-3-3V5c0-1.654 1.346-3 3-3h9m1-1H29a4 4 0 00-4 4v30a4 4 0 004 4h10V1z" fill="#8b75a1"></path><path d="M26 23.5a2.76 2.76 0 01-.5-.049V16.55a2.76 2.76 0 01.5-.049c1.93 0 3.5 1.57 3.5 3.5S27.93 23.5 26 23.5z" fill="#f78f8f"></path><path d="M26 17c1.654 0 3 1.346 3 3s-1.346 3-3 3v-6m0-1c-.349 0-.679.065-1 .153v7.694c.321.088.651.153 1 .153a4 4 0 000-8zM1 12v2c3.308 0 6 2.692 6 6s-2.692 6-6 6v2a8 8 0 000-16z" fill="#c74343"></path><path d="M1 7v2c6.065 0 11 4.935 11 11S7.065 31 1 31v2c7.18 0 13-5.82 13-13S8.18 7 1 7z" fill="#f78f8f"></path><path d="M1 2v2c8.822 0 16 7.178 16 16S9.822 36 1 36v2c9.941 0 18-8.059 18-18S10.941 2 1 2z" fill="#f7a3a3"></path></svg>