<svg viewBox="0 0 40 40" xmlns="http://www.w3.org/2000/svg"><path fill="#c2e8ff" d="M6.5 37.5v-35h27v28.293L26.793 37.5z"></path><path d="M33 3v27.586L26.586 37H7V3h26m1-1H6v36h21l7-7V2z" fill="#7496c4"></path><path fill="#fff" d="M26.5 37.5v-7h7v.293L26.793 37.5z"></path><path d="M32.586 31L27 36.586V31h5.586M34 30h-8v8h1l7-7v-1z" fill="#7496c4"></path><path fill="none" stroke="#7496c4" stroke-miterlimit="10" d="M17 11.5h12M12 11.5h3M17 16.5h12M12 16.5h3M17 21.5h12M12 21.5h3"></path><g><path fill="none" stroke="#7496c4" stroke-miterlimit="10" d="M17 26.5h12"></path></g><g><path fill="none" stroke="#7496c4" stroke-miterlimit="10" d="M12 26.5h3"></path></g></svg>