<svg viewBox="0 0 40 40" xmlns="http://www.w3.org/2000/svg"><path d="M20.5 34.5V13.757c0-1.016.242-2.03.7-2.935L24.398 4.5h6.203l3.198 6.322c.458.904.7 1.919.7 2.935V34.5H20.5z" fill="#c2e8ff"></path><path d="M30.294 5l3.06 6.048c.423.836.646 1.772.646 2.709V34H21V13.757c0-.936.223-1.873.646-2.708L24.706 5h5.588m.615-1h-6.818l-3.337 6.597a6.996 6.996 0 00-.754 3.16V35h15V13.757c0-1.098-.258-2.18-.754-3.16L30.909 4z" fill="#7496c4"></path><path d="M34 34H21V13.757c0-.936.223-1.873.646-2.708h11.708A6.02 6.02 0 0134 13.757V34z" fill="#fff"></path><path d="M24.5 4.5a1 1 0 01-1-1v-1a1 1 0 011-1h6a1 1 0 011 1v1a1 1 0 01-1 1h-6z" fill="#c2e8ff"></path><path d="M30.5 2a.5.5 0 01.5.5v1a.5.5 0 01-.5.5h-6a.5.5 0 01-.5-.5v-1a.5.5 0 01.5-.5h6m0-1h-6A1.5 1.5 0 0023 2.5v1A1.5 1.5 0 0024.5 5h6A1.5 1.5 0 0032 3.5v-1A1.5 1.5 0 0030.5 1z" fill="#7496c4"></path><circle cx="11" cy="20" r="7.5" fill="#f78f8f"></circle><path d="M11 13c3.86 0 7 3.14 7 7s-3.14 7-7 7-7-3.14-7-7 3.14-7 7-7m0-1a8 8 0 100 16 8 8 0 000-16z" fill="#c74343"></path><path fill="#ffeea3" d="M25.446 12.653l8.493 8.493-25.48 3.64z"></path><path d="M25.392 13.306l7.487 7.487-22.46 3.209 14.973-10.696M25.5 12l-19 13.571L35 21.5 25.5 12z" fill="#ba9b48"></path><path fill="#bae0bd" d="M5.186 38.5l-2.585-14h34.798l-2.585 14z"></path><path d="M36.798 25l-2.4 13H5.602l-2.4-13h33.596M38 24H2l2.769 15h30.462L38 24z" fill="#5e9c76"></path><g><path fill="none" stroke="#5e9c76" stroke-linecap="round" stroke-linejoin="round" stroke-miterlimit="10" d="M23.5 28.5v6"></path></g><g><path fill="none" stroke="#5e9c76" stroke-linecap="round" stroke-linejoin="round" stroke-miterlimit="10" d="M28.5 28.5v6"></path></g><g><path fill="none" stroke="#5e9c76" stroke-linecap="round" stroke-linejoin="round" stroke-miterlimit="10" d="M16.5 28.5v6"></path></g><g><path fill="none" stroke="#5e9c76" stroke-linecap="round" stroke-linejoin="round" stroke-miterlimit="10" d="M11.5 28.5v6"></path></g><g><path fill="#bae0bd" d="M1.5 20.5h37v4h-37z"></path><path d="M38 21v3H2v-3h36m1-1H1v5h38v-5z" fill="#5e9c76"></path></g></svg>