<svg viewBox="0 0 40 40" xmlns="http://www.w3.org/2000/svg"><path fill="#b0c1d4" d="M1.5 4.5h37v9h-37z"></path><path d="M38 5v8H2V5h36m1-1H1v10h38V4z" fill="#66798f"></path><path d="M11 35.5c-.827 0-1.5-.673-1.5-1.5V7.5h21V34c0 .827-.673 1.5-1.5 1.5H11z" fill="#f78f8f"></path><path d="M30 8v26c0 .551-.449 1-1 1H11c-.551 0-1-.449-1-1V8h20m1-1H9v27a2 2 0 002 2h18a2 2 0 002-2V7z" fill="#c74343"></path><path fill="#fff" d="M19 8h2v24h-2z"></path><path fill="#36404d" d="M13 8h4v28h-4z"></path><g><path fill="#b0c1d4" d="M7 5h26v2H7z"></path></g><path fill="#66798f" d="M7 7v4h2V8h22v3h2V7z"></path></svg>