<svg viewBox="0 0 40 40" xmlns="http://www.w3.org/2000/svg"><path d="M7 37.5A4.505 4.505 0 012.5 33V7c0-2.481 2.019-4.5 4.5-4.5h26c2.481 0 4.5 2.019 4.5 4.5v26c0 2.481-2.019 4.5-4.5 4.5H7z" fill="#fff1e8"></path><path d="M33 3c2.206 0 4 1.794 4 4v26c0 2.206-1.794 4-4 4H7c-2.206 0-4-1.794-4-4V7c0-2.206 1.794-4 4-4h26m0-1H7a5 5 0 00-5 5v26a5 5 0 005 5h26a5 5 0 005-5V7a5 5 0 00-5-5z" fill="#a16a4a"></path><path d="M38 11.692H2V7a5 5 0 015-5h26a5 5 0 015 5v4.692z" fill="#a16a4a"></path><path d="M32 9h2a1 1 0 001-1V6a1 1 0 00-1-1h-2a1 1 0 00-1 1v2a1 1 0 001 1z" fill="#b0c1d4"></path><path fill="#f78f8f" d="M6 2.692h2v9H6z"></path><path fill="#ffeea3" d="M8 2.692h2v9H8z"></path><path fill="#bae0bd" d="M10 2.692h2v9h-2z"></path><path fill="#8bb7f0" d="M12 2.692h2v9h-2z"></path><circle cx="20" cy="21" r="12" fill="#fff1e8"></circle><path d="M20 30.5c-5.238 0-9.5-4.262-9.5-9.5s4.262-9.5 9.5-9.5 9.5 4.262 9.5 9.5-4.262 9.5-9.5 9.5z" fill="#b0c1d4"></path><path d="M20 12c4.963 0 9 4.037 9 9s-4.037 9-9 9-9-4.037-9-9 4.037-9 9-9m0-1c-5.523 0-10 4.477-10 10s4.477 10 10 10 10-4.477 10-10-4.477-10-10-10z" fill="#66798f"></path><circle cx="20" cy="21" r="2" fill="#66798f"></circle></svg>