<svg viewBox="0 0 40 40" xmlns="http://www.w3.org/2000/svg"><path d="M19 28.5c-7.444 0-13.5-6.056-13.5-13.5S11.556 1.5 19 1.5 32.5 7.556 32.5 15 26.444 28.5 19 28.5z" fill="#bae0bd"></path><path d="M19 2c7.168 0 13 5.832 13 13s-5.832 13-13 13S6 22.168 6 15 11.832 2 19 2m0-1C11.268 1 5 7.268 5 15s6.268 14 14 14 14-6.268 14-14S26.732 1 19 1z" fill="#5e9c76"></path><path d="M16 28.67c.967.211 1.969.33 3 .33s2.033-.119 3-.33V25h-6v3.67z" fill="#bae0bd"></path><g><path fill="#5e9c76" d="M20 33V12h-2v21h-5l6 6 6-6z"></path></g></svg>