<svg viewBox="0 0 40 40" xmlns="http://www.w3.org/2000/svg"><path fill="#fff0e6" d="M3.5 38.5V13.286L19.998 3.58 36.5 13.286V38.5z"></path><path d="M19.998 4.16L36 13.572V38H4V13.572L19.998 4.16m0-1.16L3 13v26h34V13L19.998 3z" fill="#a16a4a"></path><path fill="#fff0e6" d="M19.998 5.645L1.5 16.954v-4.058l18.498-11.31L38.5 12.896v4.058z"></path><path d="M19.998 2.172L38 13.176v2.887L20.519 5.378l-.522-.319-.522.319L2 16.063v-2.887L19.998 2.172m0-1.172L1 12.615v5.231L19.998 6.231 39 17.846v-5.231L19.998 1z" fill="#a16a4a"></path><path d="M11.5 30.5V20c0-1.93 1.57-3.5 3.5-3.5h10c1.93 0 3.5 1.57 3.5 3.5v10.5h-17z" fill="#a87b55"></path><path d="M25 17c1.654 0 3 1.346 3 3v10H12V20c0-1.654 1.346-3 3-3h10m0-1H15a4 4 0 00-4 4v11h18V20a4 4 0 00-4-4z" fill="#785437"></path><g><path fill="#f5ce85" d="M9.5 29.5h3v5h-3z"></path><path d="M12 30v4h-2v-4h2m1-1H9v6h4v-6z" fill="#967a44"></path></g><g><path fill="#f5ce85" d="M27.5 29.5h3v5h-3z"></path><path d="M30 30v4h-2v-4h2m1-1h-4v6h4v-6z" fill="#967a44"></path></g><g><path d="M9.5 32.5v-8c0-1.103.897-2 2-2s2 .897 2 2v2h13v-2c0-1.103.897-2 2-2s2 .897 2 2v8h-21z" fill="#b08159"></path><path d="M28.5 23c.827 0 1.5.673 1.5 1.5V32H10v-7.5c0-.827.673-1.5 1.5-1.5s1.5.673 1.5 1.5V27h14v-2.5c0-.827.673-1.5 1.5-1.5m0-1a2.5 2.5 0 00-2.5 2.5V26H14v-1.5a2.5 2.5 0 10-5 0V33h22v-8.5a2.5 2.5 0 00-2.5-2.5z" fill="#704e34"></path></g></svg>