<svg viewBox="0 0 40 40" xmlns="http://www.w3.org/2000/svg"><path d="M8.3 28.5v-3h29.554a52.94 52.94 0 00.469 3H8.3z" fill="#f5ce85"></path><path d="M37.415 26c.105.778.216 1.464.31 2H8.8v-2h28.615m.882-1H7.8v4h31.132s-.372-1.753-.635-4z" fill="#967a44"></path><path d="M39.442 33S37.5 27.188 37.5 20" fill="none" stroke="#c74343" stroke-miterlimit="10"></path><path d="M20.5 25.5v-15h6.61c1.11 0 2.099.746 2.404 1.813l1.094 3.827 3.624 1.571a2.179 2.179 0 011.269 1.979v5.81H20.5z" fill="#bae0bd"></path><path d="M27.11 11c.888 0 1.679.596 1.923 1.451l1.029 3.601.13.455.434.188 3.391 1.469c.597.271.983.87.983 1.526V25H21V11h6.11m0-1H20v16h16v-6.31c0-1.05-.614-2.003-1.57-2.438l-3.407-1.476-1.029-3.601A3 3 0 0027.11 10z" fill="#5e9c76"></path><circle cx="29.5" cy="28.5" r="4" fill="#c8d1db"></circle><path d="M29.5 25c1.93 0 3.5 1.57 3.5 3.5S31.43 32 29.5 32 26 30.43 26 28.5s1.57-3.5 3.5-3.5m0-1a4.5 4.5 0 100 9 4.5 4.5 0 000-9z" fill="#66798f"></path><circle cx="29.5" cy="28.5" r="1.5" fill="#66798f"></circle><path fill="#f78f8f" d="M6.118 25.5L.5 22.691V10.5h11.707l4-4H20.5v19z"></path><path d="M20 7v18H6.236L1 22.382V11h11.414l.293-.293L16.414 7H20m1-1h-5l-4 4H0v13l6 3h15V6z" fill="#c74343"></path><circle cx="7.5" cy="28.5" r="4" fill="#c8d1db"></circle><path d="M7.5 25c1.93 0 3.5 1.57 3.5 3.5S9.43 32 7.5 32 4 30.43 4 28.5 5.57 25 7.5 25m0-1a4.5 4.5 0 100 9 4.5 4.5 0 000-9z" fill="#66798f"></path><circle cx="7.5" cy="28.5" r="1.5" fill="#66798f"></circle><g><path d="M27.208 16.5l-.442-.443a1.754 1.754 0 00-1.279-.557H25a.5.5 0 01-.5-.5v-4.5h2.836c.967 0 1.829.649 2.094 1.58l1.168 4.024.66.396h-4.05z" fill="#c2e8ff"></path><path d="M27.336 11c.745 0 1.409.5 1.615 1.221L30.047 16h-2.632l-.283-.284A2.249 2.249 0 0025.486 15H25v-4h2.336m0-1H24v5a1 1 0 001 1h.486c.364 0 .673.148.925.41L27 17h6.062l-2.039-1.224-1.112-3.834A2.679 2.679 0 0027.336 10z" fill="#5e9c76"></path></g><path fill="none" stroke="#c74343" stroke-miterlimit="10" d="M15.5 13v8M10.5 13v8M5.5 13v8"></path><path d="M35 23v-3a1.5 1.5 0 000 3z" fill="#fff"></path></svg>