<svg viewBox="0 0 40 40" xmlns="http://www.w3.org/2000/svg"><path fill="#dbb065" d="M1.5 35.5v-31h10.293l3 3H38.5v28z"></path><path d="M11.586 5l2.707 2.707.293.293H38v27H2V5h9.586M12 4H1v32h38V7H15l-3-3z" fill="#967a44"></path><path fill="#f5ce85" d="M1.5 35.5v-26h10.651l3-2H38.5v28z"></path><path d="M38 8v27H2V10h10.303l.252-.168L15.303 8H38m1-1H15l-3 2H1v27h38V7z" fill="#967a44"></path><path d="M29 22c0 5.01-4.082 9-9 9-4.917 0-9-3.99-9-9s3.99-9 9-9 9 3.99 9 9z" fill="#c2e8ff"></path><path d="M25.386 28.558a6.769 6.769 0 01-.192-.705l-.013-.065-.03-.06c-.181-.362-.273-.732-.371-1.125-.035-.109-.05-.195-.069-.287-.059-.297-.138-.699-.42-1.017-.167-.266-.417-.353-.572-.407-.04-.014-.081-.027-.123-.047-.389-.168-.764-.182-1.095-.194-.496-.018-.713-.047-.868-.264-.042-.063-.041-.153-.023-.392.004-.061.009-.125.012-.19a6.25 6.25 0 00.206-.385c.067-.135.134-.271.225-.407l.029-.043.02-.049c.071-.177.156-.341.238-.501.152-.295.309-.6.39-.963.073-.185.073-.371.073-.511v-.068c.083-.048.196-.104.275-.144l.072-.036.068-.062c.103-.063.352-.217.352-.559 0-.1-.022-.183-.052-.25l.008-.01c.249-.249.499-.473.748-.697.232-.208.464-.417.696-.645a.59.59 0 00.3-.331.592.592 0 00.037-.528.647.647 0 00-.453-.375 2.326 2.326 0 00-.243-.092l-.009-.003.52-.781c.017-.003.097-.105.18-.215.074-.098.212-.28.278-.305a.452.452 0 01.186-.048.42.42 0 01.069.006C27.554 17.42 28.5 19.616 28.5 22a8.403 8.403 0 01-3.114 6.558z" fill="#bae0bd"></path><path d="M25.734 16.405C27.199 17.901 28 19.87 28 22a7.902 7.902 0 01-2.338 5.642l-.004-.018-.06-.12c-.157-.314-.243-.658-.333-1.021l-.011-.041-.012-.035c-.018-.054-.028-.12-.041-.188-.065-.328-.161-.81-.512-1.221-.259-.386-.635-.517-.806-.577-.022-.008-.045-.014-.064-.023l-.025-.013-.026-.011c-.449-.193-.893-.209-1.248-.222-.136-.005-.33-.012-.42-.022l.008-.1.005-.078c.061-.109.113-.213.161-.31.058-.117.115-.235.193-.352l.058-.087.039-.097c.065-.162.143-.312.219-.459.154-.3.328-.638.425-1.048.053-.149.076-.293.086-.417l.018-.009.143-.072.071-.071a1.112 1.112 0 00.537-1.044c.181-.172.361-.334.541-.497.224-.201.448-.403.672-.62.198-.121.354-.302.444-.518a1.096 1.096 0 00-.372-1.431l.142-.214c.067-.076.136-.164.206-.255a.358.358 0 00.038-.046m.031-1.108a.833.833 0 00-.344.074c-.307.103-.511.512-.716.716l-.614.92c-.103.102-.205.307-.103.409 0 .102.103.102.205.102.205.103.307.103.512.205.102 0 .205.103.102.205 0 0 0 .103-.102.103-.512.511-1.023.92-1.534 1.431-.102.102-.205.307-.205.409 0 .102.102.102.102.204 0 .103-.102.103-.204.205-.205.103-.409.205-.511.307-.102.205 0 .511-.102.716-.102.511-.41.92-.614 1.432-.205.306-.306.614-.511.92 0 .409-.103.716.102 1.023.512.716 1.432.307 2.148.614.205.102.409.102.512.306.306.307.306.819.409 1.125.102.409.205.818.409 1.227.102.512.307 1.023.409 1.432.067-.052.145-.101.219-.151C27.545 27.6 29 24.985 29 22a8.955 8.955 0 00-2.919-6.649 1.018 1.018 0 00-.316-.054z" fill="#5e9c76"></path><g><path d="M20.303 16.646c-.007-.139-.007-.283-.007-.354 0-.146.043-.282.093-.438.082-.256.184-.576.102-.989.01-.011-.097-.885-.097-.885l-.042-.342-.333-.082a2.607 2.607 0 00-.274-.05 8.575 8.575 0 012.953.426 3.731 3.731 0 01-.232.505l-.049.095c-.127.367-.291.627-.444.729-.266.252-.553.539-.818.715-.167.112-.335.25-.502.39-.117.098-.233.196-.35.28z" fill="#bae0bd"></path><path d="M20.906 14.05c.37.041.735.108 1.094.199l-.03.061-.032.064-.022.068c-.078.235-.186.378-.22.405l-.082.055-.07.07c-.145.145-.351.351-.545.503a2.05 2.05 0 00-.004-.63 20.34 20.34 0 00-.089-.795M20 13c-.185 0-.368.009-.55.02-.128.199-.23.394-.268.51-.102.511.307.409.716.511 0 0 .102.818.102.92.102.512-.205.818-.205 1.329 0 .307 0 .818.205 1.023h.102c.102 0 .205-.102.409-.205.307-.205.614-.511.92-.716.307-.205.614-.511.819-.716.307-.205.511-.614.614-.921.102-.205.453-.807.35-1.114a.958.958 0 01-.029-.07A9.148 9.148 0 0020 13z" fill="#5e9c76"></path></g><g><path d="M17.296 30.049a8.477 8.477 0 01-1.219-.516l-.03-.222c-.021-.146-.042-.292-.046-.352l-.004-.066-.021-.079a13 13 0 01-.148-.496c-.053-.185-.105-.368-.158-.526a5.669 5.669 0 00-.259-.547c-.169-.323-.329-.629-.329-.932 0-.096.004-.192.008-.288.012-.301.025-.628-.068-.951h1.527l.186.055c.13.038.377.109.503.172.01.033.019.07.029.111.028.115.064.257.14.408l.036.073.058.058c.47.47 1 .598 1.469.711.154.037.31.074.465.126-.035.003-.026.044-.01.092.044.132-.004.398-.075.539l-.081.231c-.06.189-.15.475-.235.56-.146.147-.294.221-.481.315-.307.2-.484.433-.655.658-.092.122-.186.248-.296.357l-.146.146v.115c-.037.066-.1.164-.16.248zm-4.852-6.852c-.349-.319-.63-.668-.792-.994a4.358 4.358 0 00-.152-.239c.009-2.309.908-4.45 2.537-6.045.813-.264 1.68-.426 2.285-.426.247 0 .39.027.466.05.198.065.442.218.609.385.051.051.163.163.25.27a1.703 1.703 0 01-.333-.029l-.418-.417-.112-.037a.925.925 0 00-.292-.047c-.954 0-1.871 1.467-1.987 1.934-.102.301-.117.846.115 1.245.151.26.393.434.682.492h.024c.451 0 .794-.26 1.271-.652.117-.096.224-.185.307-.24a1.88 1.88 0 00.256-.154c.036-.024.071-.048.11-.072.529.034.89.504 1.023.969l.005.134c-.128.27-.731.624-1.504.884a.64.64 0 00-.255-.049.74.74 0 00-.339.082c-.671.266-1.403 1.053-1.403 1.88l-.001.003-.039-.021a.633.633 0 00-.482-.177.898.898 0 01-.17-.055c-.14-.052-.315-.118-.521-.118a.906.906 0 00-.508.154c-.243.229-.631.678-.631 1.234a.345.345 0 00-.001.056z" fill="#bae0bd"></path><path d="M14.718 16.241c-.349.436-.59.899-.678 1.166-.151.455-.165 1.155.146 1.691.224.385.584.645 1.015.731l.097.019h.099c.572 0 1.052-.394 1.516-.776.086-.071.165-.138.23-.186.093-.05.171-.1.247-.15.134.062.279.237.369.447-.162.131-.5.322-.981.497a1.25 1.25 0 00-.761.09c-.654.272-1.333.896-1.603 1.661a1.722 1.722 0 00-.074-.005l-.064-.024c-.159-.06-.4-.15-.696-.15-.28 0-.551.082-.785.238l-.082.055-.07.07a2.724 2.724 0 00-.432.561 2.055 2.055 0 01-.115-.198l-.017-.034-.02-.033a2.52 2.52 0 00-.06-.096 7.93 7.93 0 012.301-5.457c.14-.041.279-.081.418-.117m1.756 9.334l.119.035c.06.017.145.042.224.067.031.108.073.233.14.368l.072.145.115.115c.569.57 1.199.722 1.705.844l.063.015a.254.254 0 01-.012.031l-.032.064-.023.068-.055.171c-.037.116-.096.304-.138.383-.079.072-.167.118-.328.198l-.056.028-.052.035c-.321.214-.532.493-.719.739a2.971 2.971 0 01-.251.306l-.229.229a7.722 7.722 0 01-.482-.212 11.01 11.01 0 01-.036-.264v-.13l-.051-.154c-.047-.141-.094-.306-.141-.471a14.23 14.23 0 00-.166-.552l-.009-.028-.011-.028a6.406 6.406 0 00-.27-.564c-.14-.267-.272-.52-.272-.7 0-.09.004-.179.007-.268.006-.143.012-.302.006-.471h.882m-.152-10.581c-.717 0-1.706.202-2.551.487A8.968 8.968 0 0011 22c0 .043.004.085.005.128.073.103.143.205.2.299.307.614.92 1.228 1.534 1.636.409.307 1.227.307 1.636.818.307.41.205.92.205 1.432 0 .614.409 1.125.614 1.636.102.307.205.716.307 1.023 0 .102.102.716.102.818.033.016.06.054.084.1.546.299 1.127.54 1.732.722h.001c.007 0 .015-.004.021-.004h.003c.102 0 .511-.614.511-.716.307-.307.511-.716.818-.92.205-.102.409-.205.614-.41.205-.205.307-.614.409-.92.102-.204.205-.613.102-.92-.065-.194-.102-.307-.307-.409-.614-.205-1.227-.205-1.739-.716-.102-.205-.102-.409-.205-.614-.205-.205-.716-.307-1.023-.409H14.58c-.307-.102-.511-.511-.716-.818 0-.102 0-.307-.205-.307a.288.288 0 00-.129-.029c-.118 0-.236.059-.354.059a.28.28 0 01-.13-.03c-.102-.102-.102-.205-.102-.306 0-.307.205-.614.409-.819a.403.403 0 01.23-.07c.23 0 .46.173.69.173.102 0 .102 0 .205.102.307.102.409.511.409.819v.205c0 .102.102.102.204.102.102-.511.102-1.023.205-1.534 0-.614.614-1.228 1.125-1.432a.264.264 0 01.117-.029c.098 0 .177.059.276.059a.254.254 0 00.118-.03c.614-.205 2.148-.818 1.841-1.636-.191-.67-.741-1.339-1.481-1.339-.051 0-.103.003-.155.01-.205.103-.307.205-.511.307-.307.205-.92.818-1.227.818-.511-.102-.511-.818-.409-1.125.095-.38.897-1.555 1.502-1.555.046 0 .091.007.134.021l.409.409c.205.102.511.102.818.102.102 0 .205 0 .307-.102.102-.102.102-.102.102-.205 0-.307-.307-.614-.511-.819a2.218 2.218 0 00-.818-.511 2.234 2.234 0 00-.611-.071z" fill="#5e9c76"></path></g><g><path d="M20 14c4.486 0 8 3.514 8 8 0 4.411-3.589 8-8 8s-8-3.589-8-8c0-4.486 3.514-8 8-8m0-1c-5.01 0-9 3.99-9 9s4.083 9 9 9c4.918 0 9-3.99 9-9s-3.99-9-9-9z" fill="#7496c4"></path></g></svg>