<svg viewBox="0 0 40 40" xmlns="http://www.w3.org/2000/svg"><path fill="#b0c1d4" d="M2.5 2.5h35v35h-35z"></path><path d="M37 3v34H3V3h34m1-1H2v36h36V2z" fill="#66798f"></path><path d="M20 30.5c-5.79 0-10.5-4.71-10.5-10.5S14.21 9.5 20 9.5 30.5 14.21 30.5 20 25.79 30.5 20 30.5z" fill="#c2e8ff"></path><path d="M20 10c5.514 0 10 4.486 10 10s-4.486 10-10 10-10-4.486-10-10 4.486-10 10-10m0-1C13.925 9 9 13.925 9 20s4.925 11 11 11 11-4.925 11-11S26.075 9 20 9z" fill="#7496c4"></path><path d="M13.5 20a6.5 6.5 0 016.5-6.5" fill="none" stroke="#fff" stroke-miterlimit="10"></path></svg>