<svg viewBox="0 0 40 40" xmlns="http://www.w3.org/2000/svg"><path d="M20 38.5C9.799 38.5 1.5 30.201 1.5 20S9.799 1.5 20 1.5 38.5 9.799 38.5 20 30.201 38.5 20 38.5z" fill="#ffeea3"></path><path d="M20 2c9.925 0 18 8.075 18 18s-8.075 18-18 18S2 29.925 2 20 10.075 2 20 2m0-1C9.507 1 1 9.507 1 20s8.507 19 19 19 19-8.507 19-19S30.493 1 20 1z" fill="#ba9b48"></path><path d="M1.517 20.5A8.265 8.265 0 011.5 20c0-10.033 8.03-18.227 18-18.493V20.5H1.517z" fill="#f78f8f"></path><path d="M19 2.027V20H2C2 10.41 9.538 2.548 19 2.027M20 1C9.507 1 1 9.507 1 20c0 .338.027.668.05 1H20V1z" fill="#c74343"></path><g><path d="M20 38.5c-10.033 0-18.227-8.029-18.493-18h18.289L32.86 33.3A18.354 18.354 0 0120 38.5z" fill="#ffc49c"></path><path d="M19.592 21l12.546 12.293C28.815 36.336 24.542 38 20 38c-9.59 0-17.452-7.538-17.973-17h17.565M20 20H1c0 10.493 8.507 19 19 19a18.945 18.945 0 0013.572-5.703L20 20z" fill="#a16a4a"></path></g></svg>