<svg viewBox="0 0 40 40" xmlns="http://www.w3.org/2000/svg"><path d="M20 16.5a4.505 4.505 0 01-4.5-4.5V6c0-2.481 2.019-4.5 4.5-4.5s4.5 2.019 4.5 4.5v6c0 2.481-2.019 4.5-4.5 4.5z" fill="#ffc49c"></path><path d="M20 2c2.206 0 4 1.794 4 4v6c0 2.206-1.794 4-4 4s-4-1.794-4-4V6c0-2.206 1.794-4 4-4m0-1a5 5 0 00-5 5v6a5 5 0 0010 0V6a5 5 0 00-5-5z" fill="#a16a4a"></path><path d="M20 38.5a4.505 4.505 0 01-4.5-4.5v-6c0-2.481 2.019-4.5 4.5-4.5s4.5 2.019 4.5 4.5v6c0 2.481-2.019 4.5-4.5 4.5z" fill="#8bb7f0"></path><path d="M20 24c2.206 0 4 1.794 4 4v6c0 2.206-1.794 4-4 4s-4-1.794-4-4v-6c0-2.206 1.794-4 4-4m0-1a5 5 0 00-5 5v6a5 5 0 0010 0v-6a5 5 0 00-5-5z" fill="#4e7ab5"></path><path d="M28 24.5c-2.481 0-4.5-2.019-4.5-4.5s2.019-4.5 4.5-4.5h6c2.481 0 4.5 2.019 4.5 4.5s-2.019 4.5-4.5 4.5h-6z" fill="#bae0bd"></path><path d="M34 16c2.206 0 4 1.794 4 4s-1.794 4-4 4h-6c-2.206 0-4-1.794-4-4s1.794-4 4-4h6m0-1h-6a5 5 0 000 10h6a5 5 0 000-10z" fill="#5e9c76"></path><path d="M6 24.5c-2.481 0-4.5-2.019-4.5-4.5s2.019-4.5 4.5-4.5h6c2.481 0 4.5 2.019 4.5 4.5s-2.019 4.5-4.5 4.5H6z" fill="#f2d5f2"></path><path d="M12 16c2.206 0 4 1.794 4 4s-1.794 4-4 4H6c-2.206 0-4-1.794-4-4s1.794-4 4-4h6m0-1H6a5 5 0 000 10h6a5 5 0 000-10z" fill="#a175a0"></path><path d="M25.657 18.843a4.478 4.478 0 01-3.183-1.317 4.506 4.506 0 010-6.364l4.243-4.242c.85-.851 1.979-1.318 3.182-1.318s2.332.468 3.182 1.318c.851.85 1.318 1.979 1.318 3.182s-.468 2.332-1.318 3.182l-4.242 4.243a4.477 4.477 0 01-3.182 1.316z" fill="#ffeea3"></path><path d="M29.899 6.1c1.068 0 2.073.416 2.828 1.172a4.004 4.004 0 010 5.657l-4.243 4.243c-.755.756-1.76 1.172-2.828 1.172s-2.073-.416-2.828-1.172a3.971 3.971 0 01-1.172-2.828c0-1.068.416-2.073 1.172-2.828l4.243-4.243A3.974 3.974 0 0129.899 6.1m0-1c-1.28 0-2.559.488-3.536 1.464l-4.243 4.243a5 5 0 000 7.071c.976.976 2.256 1.464 3.536 1.464s2.559-.488 3.536-1.464l4.243-4.243A5 5 0 0029.899 5.1z" fill="#ba9b48"></path><path d="M25.686 18.83a4.55 4.55 0 01-1.878-.407C24.46 16.684 26.131 15.5 28 15.5h2.864l-2.025 2.025a4.432 4.432 0 01-3.153 1.305z" fill="#d3e0ba"></path><path d="M29.657 16l-1.172 1.172a3.932 3.932 0 01-2.8 1.158c-.41 0-.818-.063-1.207-.185A3.995 3.995 0 0128 16h1.657m2.414-1H28c-2.299 0-4.216 1.561-4.8 3.674a5.04 5.04 0 002.485.655c1.27 0 2.537-.481 3.507-1.451L32.071 15z" fill="#849c5e"></path><path d="M21.577 16.193c-.769-1.692-.424-3.71.897-5.032L24.5 9.136V12c0 1.869-1.184 3.54-2.923 4.193z" fill="#ffde9c"></path><path d="M24 10.343V12c0 1.492-.85 2.842-2.145 3.522a3.995 3.995 0 01.973-4.007L24 10.343m1-2.414l-2.879 2.879c-1.626 1.626-1.877 4.085-.796 5.992C23.439 16.216 25 14.299 25 12V7.929z" fill="#a1884a"></path><path d="M10.101 34.399a4.47 4.47 0 01-3.182-1.318c-.851-.85-1.318-1.979-1.318-3.182s.468-2.332 1.318-3.182l4.242-4.243c.85-.85 1.979-1.317 3.182-1.317s2.332.468 3.183 1.317a4.506 4.506 0 010 6.364l-4.243 4.242a4.463 4.463 0 01-3.182 1.319z" fill="#dcd5f2"></path><path d="M14.343 21.657c1.068 0 2.073.416 2.828 1.172a3.971 3.971 0 011.172 2.828 3.971 3.971 0 01-1.172 2.828l-4.243 4.243A3.973 3.973 0 0110.1 33.9a3.971 3.971 0 01-2.828-1.172 4.004 4.004 0 010-5.657l4.243-4.243a3.974 3.974 0 012.828-1.171m0-1c-1.28 0-2.559.488-3.536 1.464l-4.243 4.243a5 5 0 107.072 7.071l4.243-4.243a5 5 0 000-7.071 4.987 4.987 0 00-3.536-1.464z" fill="#8b75a1"></path><g><path d="M9.136 24.5l2.025-2.025a4.432 4.432 0 013.153-1.305c.648 0 1.29.14 1.878.407C15.54 23.316 13.869 24.5 12 24.5H9.136z" fill="#f2d5f2"></path><path d="M14.315 21.67c.41 0 .818.063 1.207.185A3.994 3.994 0 0112 24h-1.657l1.172-1.172a3.932 3.932 0 012.8-1.158m0-1c-1.27 0-2.537.481-3.507 1.451L7.929 25H12c2.299 0 4.216-1.561 4.8-3.674a5.031 5.031 0 00-2.485-.656z" fill="#9775a1"></path></g><g><path d="M15.5 28c0-1.869 1.184-3.54 2.923-4.193.769 1.692.424 3.71-.897 5.032L15.5 30.864V28z" fill="#bdc9f2"></path><path d="M18.145 24.478a3.995 3.995 0 01-.973 4.007L16 29.657V28c0-1.492.85-2.842 2.145-3.522m.529-1.278C16.561 23.784 15 25.701 15 28v4.071l2.879-2.879c1.626-1.625 1.877-4.084.795-5.992z" fill="#7575a1"></path></g><g><path d="M29.899 34.399a4.47 4.47 0 01-3.182-1.318l-4.243-4.242a4.506 4.506 0 010-6.364c.851-.85 1.98-1.317 3.183-1.317s2.332.468 3.182 1.317l4.242 4.243c.851.85 1.318 1.979 1.318 3.182s-.468 2.332-1.318 3.182a4.468 4.468 0 01-3.182 1.317z" fill="#c2e8ff"></path><path d="M25.657 21.657c1.068 0 2.073.416 2.828 1.172l4.243 4.243a4.004 4.004 0 010 5.657 3.971 3.971 0 01-2.828 1.172 3.971 3.971 0 01-2.828-1.172l-4.243-4.243c-.755-.755-1.172-1.76-1.172-2.828s.416-2.073 1.172-2.828a3.966 3.966 0 012.828-1.173m0-1a5 5 0 00-3.536 8.535l4.243 4.243a4.985 4.985 0 003.536 1.464 5 5 0 003.536-8.535l-4.243-4.243a4.988 4.988 0 00-3.536-1.464z" fill="#7496c4"></path></g><g><path d="M22.475 28.839c-1.321-1.322-1.666-3.34-.897-5.032C23.316 24.46 24.5 26.131 24.5 28v2.864l-2.025-2.025z" fill="#c2deff"></path><path d="M21.855 24.478A3.995 3.995 0 0124 28v1.657l-1.172-1.172a3.995 3.995 0 01-.973-4.007m-.529-1.278c-1.082 1.907-.83 4.366.796 5.992L25 32.071V28c0-2.299-1.561-4.216-3.674-4.8z" fill="#6388ba"></path></g><g><path d="M28 24.5c-1.869 0-3.54-1.184-4.192-2.923a4.53 4.53 0 011.878-.407 4.43 4.43 0 013.153 1.305l2.025 2.025H28z" fill="#c2fbff"></path><path d="M25.685 21.67c1.059 0 2.053.411 2.8 1.158L29.657 24H28a3.994 3.994 0 01-3.522-2.145c.39-.122.797-.185 1.207-.185m0-1c-.858 0-1.716.219-2.485.655C23.784 23.439 25.701 25 28 25h4.071l-2.879-2.879a4.937 4.937 0 00-3.507-1.451z" fill="#689dba"></path></g><g><path d="M14.343 18.843a4.474 4.474 0 01-3.182-1.317l-4.242-4.243c-.851-.85-1.318-1.979-1.318-3.182s.468-2.332 1.318-3.182c.85-.851 1.979-1.318 3.182-1.318s2.332.468 3.182 1.318l4.243 4.242a4.506 4.506 0 010 6.364 4.474 4.474 0 01-3.183 1.318z" fill="#f78f8f"></path><path d="M10.101 6.1c1.068 0 2.073.416 2.828 1.172l4.243 4.243c.755.755 1.172 1.76 1.172 2.828s-.416 2.073-1.172 2.828c-.755.756-1.76 1.172-2.828 1.172s-2.073-.416-2.828-1.172l-4.243-4.243a4.004 4.004 0 010-5.657A3.977 3.977 0 0110.101 6.1m0-1a5 5 0 00-3.536 8.535l4.243 4.243c.976.976 2.256 1.464 3.536 1.464s2.559-.488 3.536-1.464a5 5 0 000-7.071l-4.243-4.243A4.993 4.993 0 0010.101 5.1z" fill="#c74343"></path></g><g><path d="M18.423 16.193C16.684 15.54 15.5 13.869 15.5 12V9.136l2.025 2.025c1.322 1.322 1.666 3.34.898 5.032z" fill="#f7b08f"></path><path d="M16 10.343l1.172 1.172a3.993 3.993 0 01.973 4.007A3.995 3.995 0 0116 12v-1.657m-1-2.414V12c0 2.299 1.561 4.216 3.674 4.8 1.082-1.907.83-4.366-.796-5.992L15 7.929z" fill="#c75943"></path></g><g><path d="M14.314 18.83a4.43 4.43 0 01-3.153-1.305L9.136 15.5H12c1.869 0 3.54 1.184 4.192 2.923a4.546 4.546 0 01-1.878.407z" fill="#f78fae"></path><path d="M12 16c1.492 0 2.842.85 3.522 2.145a4.039 4.039 0 01-1.207.185 3.932 3.932 0 01-2.8-1.158L10.343 16H12m0-1H7.929l2.879 2.879a4.939 4.939 0 003.507 1.451c.858 0 1.716-.219 2.485-.655C16.216 16.561 14.299 15 12 15z" fill="#c7435b"></path></g></svg>