<svg viewBox="0 0 40 40" xmlns="http://www.w3.org/2000/svg"><path d="M12.134 37.5A2.637 2.637 0 019.5 34.866V5.134A2.637 2.637 0 0112.134 2.5h15.732A2.637 2.637 0 0130.5 5.134v29.732a2.637 2.637 0 01-2.634 2.634H12.134z" fill="#f2faff"></path><path d="M27.866 3C29.043 3 30 3.957 30 5.134v29.732A2.136 2.136 0 0127.866 37H12.134A2.136 2.136 0 0110 34.866V5.134C10 3.957 10.957 3 12.134 3h15.732m0-1H12.134A3.134 3.134 0 009 5.134v29.732A3.134 3.134 0 0012.134 38h15.732A3.134 3.134 0 0031 34.866V5.134A3.134 3.134 0 0027.866 2z" fill="#66798f"></path><path fill="#a8deff" d="M9.5 6.5h21v26h-21z"></path><path d="M30 7v25H10V7h20m1-1H9v27h22V6z" fill="#66798f"></path><circle cx="20" cy="35" r="1" fill="#66798f"></circle><circle cx="20" cy="4.5" r=".5" fill="#66798f"></circle><path d="M20.255 16.007a2.088 2.088 0 011.248-.686c.062.499-.125.998-.374 1.31-.312.374-.749.624-1.248.624-.125-.437.062-.874.374-1.248zm2.683 6.302c-.374.499-.874 1.186-1.435 1.186s-.686-.374-1.373-.312c-.749 0-.874.374-1.435.312-.624 0-1.061-.562-1.373-1.123-.936-1.435-1.061-3.182-.437-4.118.437-.624 1.061-.998 1.685-.998.624 0 1.061.374 1.56.374s.811-.374 1.56-.374c.562 0 1.123.312 1.56.811-1.373.749-1.123 2.683.25 3.245-.25.435-.374.623-.562.997z" fill="#4da7db"></path></svg>