<svg viewBox="0 0 40 40" xmlns="http://www.w3.org/2000/svg"><path d="M5.716 22.5A14.561 14.561 0 015.5 20c0-7.995 6.505-14.5 14.5-14.5S34.5 12.005 34.5 20c0 .836-.072 1.675-.216 2.5H5.716z" fill="#8bb7f0"></path><path d="M20 6c7.72 0 14 6.28 14 14 0 .668-.048 1.338-.143 2H6.143A14.097 14.097 0 016 20c0-7.72 6.28-14 14-14m0-1C11.716 5 5 11.716 5 20c0 1.028.104 2.031.301 3h29.398c.197-.969.301-1.972.301-3 0-8.284-6.716-15-15-15z" fill="#4e7ab5"></path><path d="M20 34.5c-7.035 0-13.07-5.12-14.269-12h28.537c-1.198 6.88-7.233 12-14.268 12z" fill="#c2e8ff"></path><path d="M33.661 23C32.273 29.346 26.591 34 20 34S7.727 29.346 6.339 23h27.322m1.19-1H5.149c.98 7.336 7.247 13 14.851 13s13.871-5.664 14.851-13z" fill="#8bb7f0"></path><g fill="#788b9c"><path d="M3 8V3h5V2H2v6zM37 8h1V2h-6v1h5zM37 32v5h-5v1h6v-6zM3 32H2v6h6v-1H3z"></path></g><path d="M26.706 22a7 7 0 10-13.412 0h13.412z" fill="#36404d"></path><path d="M13.683 23c1.124 2.363 3.527 4 6.317 4s5.193-1.637 6.317-4H13.683z" fill="#7496c4"></path><circle cx="24.5" cy="14.5" r="2.5" fill="#fff"></circle><path fill="#c2e8ff" d="M2 22h36v1H2z"></path></svg>