<svg viewBox="0 0 40 40" xmlns="http://www.w3.org/2000/svg"><path d="M9.965 20.5A1.466 1.466 0 018.5 19.035v-4.07c0-.808.657-1.465 1.465-1.465h20.07c.808 0 1.465.657 1.465 1.465v4.07c0 .808-.657 1.465-1.465 1.465H9.965z" fill="#c74343"></path><path d="M30.035 14c.532 0 .965.433.965.965v4.07a.966.966 0 01-.965.965H9.965A.966.966 0 019 19.035v-4.07c0-.532.433-.965.965-.965h20.07m0-1H9.965A1.97 1.97 0 008 14.965v4.07A1.97 1.97 0 009.965 21h20.07A1.97 1.97 0 0032 19.035v-4.07A1.97 1.97 0 0030.035 13z" fill="#ab3434"></path><path d="M20 38.5c-2.439 0-4.654-1.001-5.159-1.246L10.5 30.847v-7.054l-1-1V6.16C12.842 1.585 19.93 1.5 20.002 1.5c.068 0 7.156.085 10.498 4.66v16.633l-1 1v6.07l-4.355 7.397c-.535.258-2.737 1.24-5.145 1.24z" fill="#f78f8f"></path><path d="M20.001 2c.202.002 6.795.115 9.999 4.326v16.259l-.707.707-.293.294v6.141l-4.209 7.148C24.121 37.185 22.153 38 20 38c-2.173 0-4.181-.842-4.822-1.14L11 30.693V23.586l-.293-.293-.707-.707V6.326C13.198 2.125 19.817 2.002 20.001 2M20 1s-7.505.024-11 5v17l1 1v7l4.5 6.643S17.078 39 20 39s5.5-1.357 5.5-1.357L30 30v-6l1-1V6c-3.495-4.976-11-5-11-5z" fill="#c74343"></path><path d="M30.5 8.806l-.132-.144c-1.738-1.894-6.053-3.094-6.236-3.145l-.564-.154-1.028 9.256-2.54.786-2.539-.786-1.028-9.256-.564.154c-.184.051-4.498 1.251-6.236 3.145l-.133.144V6.16C12.842 1.585 19.93 1.5 20.002 1.5c.068 0 7.156.085 10.498 4.66v12.778V8.806z" fill="#f78f8f"></path><path d="M20.001 2c.202.002 6.795.115 9.999 4.326v1.328c-2.015-1.565-5.319-2.505-5.735-2.619l-1.129-.31-.13 1.165-.928 8.349-2.078.643-2.078-.643-.928-8.349-.129-1.164-1.129.31C15.319 5.15 12.015 6.09 10 7.655V6.326C13.198 2.125 19.817 2.002 20.001 2M20 1s-7.505.024-11 5v17l1-4V9c1.661-1.81 6-3 6-3l1 9 3 .929L23 15l1-9s4.339 1.19 6 3v10l1 4V6c-3.495-4.976-11-5-11-5z" fill="#c74343"></path><path d="M20 38.5c-1.914 0-3.689-.616-4.609-1h1.848l1.625-2h2.273l1.625 2h1.846c-.923.384-2.701 1-4.608 1zm-5.145-1.239L10.5 29.863v-4.179l2.595 3.985c.492.729.567 1.651.208 2.439l-.957.778 2.731 4.477a7.014 7.014 0 01-.222-.102zm12.799-4.373l-.957-.778a2.498 2.498 0 01.203-2.432l2.6-3.993v4.179l-4.355 7.397a9.33 9.33 0 01-.221.103l2.73-4.476z" fill="#f78f8f"></path><path d="M11 27.369l1.685 2.588c.369.547.443 1.237.206 1.843l-.454.369L11 29.727v-2.358m18 0v2.359l-1.437 2.441-.454-.369a2.009 2.009 0 01.215-1.857L29 27.369M20.899 36l1.325 1.631.074.09c-.702.162-1.489.279-2.298.279s-1.596-.117-2.297-.279l.074-.09L19.101 36h1.798M30 24l-3.514 5.397a2.988 2.988 0 00-.191 3.029L27 33l-2.44 4H23l-1.625-2h-2.75L17 37h-1.56L13 33l.705-.573a2.988 2.988 0 00-.191-3.029L10 24v6l4.5 7.643S17.078 39 20 39s5.5-1.357 5.5-1.357L30 30v-6z" fill="#c74343"></path><path d="M30 24l1-1-1-4V9c-1.661-1.81-6-3-6-3l-1 9-3 .929L17 15l-1-9s-4.339 1.19-6 3v10l-1 4 1 1 3.514 5.397c.61.903.683 2.059.191 3.029L13 33l2.44 4H17l1.625-2h2.75L23 37h1.56L27 33l-.705-.573a2.988 2.988 0 01.191-3.029L30 24z" fill="#ffeea3"></path><g><path fill="#8bb7f0" d="M21 21l7-1 1 1-2 2h-4z"></path></g><g><path fill="#8bb7f0" d="M19 21l-7-1-1 1 2 2h4z"></path></g><path fill="#c29653" d="M30 19h-2l-6.759 1.013-2.616.013L12 19h-2l-.25 1H12l6.491 1h2.884L28 20h2.25zM26.235 29.902l-2.218 3.517L23 32h-6l-1.018 1.419-2.218-3.517c.264.614.309 1.289.141 1.93L16 35l1.417-2h5.167L24 35l2.094-3.168a2.972 2.972 0 01.141-1.93z"></path></svg>