<svg viewBox="0 0 40 40" xmlns="http://www.w3.org/2000/svg"><path d="M36.5 20.167V14c0-2.481-2.019-4.5-4.5-4.5h-3.053l-.052.011c-.046.01-4.654.989-7.895.989-2.292 0-6.667-.479-9.072-.766a1.622 1.622 0 01.195-3.234H32c4.136 0 7.5 3.364 7.5 7.5v6.167h-3z" fill="#dbf2ff"></path><path d="M32 7c3.86 0 7 3.14 7 7v5.667h-2V14c0-2.757-2.243-5-5-5h-3.106l-.104.022c-.045.01-4.604.978-7.79.978-2.256 0-6.615-.478-9.013-.762A1.121 1.121 0 0111 8.123C11 7.504 11.504 7 12.123 7H32m0-1H12.123C10.95 6 10 6.95 10 8.123c0 1.076.8 1.981 1.869 2.108 2.487.295 6.836.769 9.131.769 3.333 0 8-1 8-1h3a4 4 0 014 4v6.667h4V14a8 8 0 00-8-8z" fill="#7496c4"></path><path d="M23.5 17.5V15a.5.5 0 01.5-.5h6a.5.5 0 01.5.5v2.5h-7z" fill="#f78f8f"></path><path d="M30 15v2h-6v-2h6m0-1h-6a1 1 0 00-1 1v3h8v-3a1 1 0 00-1-1z" fill="#c74343"></path><path d="M1 32.5a.5.5 0 01-.5-.5v-1.5h39V32a.5.5 0 01-.5.5H1z" fill="#b0c1d4"></path><path d="M39 31v1H1v-1h38m1-1H0v2a1 1 0 001 1h38a1 1 0 001-1v-2z" fill="#66798f"></path><path d="M.5 30.5v-.327l4.887-6.221A19.388 19.388 0 0120.72 16.5H39.5v14H.5z" fill="#8bb7f0"></path><path d="M39 17v13H1.272l4.509-5.739A18.89 18.89 0 0120.721 17H39m1-1H20.721a19.998 19.998 0 00-15.726 7.644L0 30v1h40V16z" fill="#4e7ab5"></path><circle cx="30.5" cy="23.5" r="1.5" fill="#fff"></circle><circle cx="25.5" cy="23.5" r="1.5" fill="#fff"></circle><circle cx="20.5" cy="23.5" r="1.5" fill="#fff"></circle></svg>