<svg viewBox="0 0 40 40" xmlns="http://www.w3.org/2000/svg"><path d="M25 5h-9V2s-.49-1 4.5-1S25 2 25 2v3z" fill="#991504"></path><path d="M11 37.5c-.351 0-.5-.149-.5-.5V18a.5.5 0 00-.975-.156C8.983 19.491 7.703 24.46 7.5 34.99c-.006.353-.161.51-.5.51H3c-.355 0-.5-.145-.5-.5 0-11.864 2.944-23.737 4.854-25.646C9.283 7.424 15.167 5.5 16 5.5h9c.833 0 6.717 1.924 8.646 3.854C35.556 11.263 38.5 23.136 38.5 35c0 .355-.145.5-.5.5h-4c-.347 0-.497-.151-.5-.505-.103-10.229-1.45-15.402-2.025-17.151A.5.5 0 0030.5 18v19c0 .351-.149.5-.5.5H11z" fill="#f88f8f"></path><path d="M24.997 6c.833.032 6.525 1.936 8.296 3.707C34.946 11.36 38 22.903 38 35h-4v-.01c-.103-10.299-1.468-15.531-2.05-17.302A1 1 0 0030 18v19H11V18a1 1 0 00-1.95-.312C8.502 19.356 7.204 24.382 7 34.981L6.999 35H3C3 22.903 6.054 11.36 7.707 9.707 9.479 7.935 15.178 6.029 16 6h8.997M25 5h-9c-1 0-7 2-9 4S2 23 2 35c0 .633.367 1 1 1h4c.619 0 .988-.382 1-1 .18-9.372 1.229-14.655 2-17v19c0 .626.374 1 1 1h19c.626 0 1-.374 1-1V18c.77 2.342 1.906 7.646 2 17 .006.623.377 1 1 1h4c.633 0 1-.367 1-1 0-12-3-24-5-26s-8-4-9-4z" fill="#c74343"></path><path d="M20.5 3.111C17.158 3.111 16 2 16 2v4s1.158 1 4.5 1S25 6 25 6V2s-1.158 1.111-4.5 1.111z" fill="#c74343"></path><g fill="#c74343"><path d="M14 25h1v8h-1zM26 25h1v8h-1zM19.972 5.222V38h1.056V5.222a4.44 4.44 0 01-1.056 0z"></path></g><path fill="#f88f8f" d="M3.5 35.5h3v2h-3z"></path><path d="M6 36v1H4v-1h2m1-1H3v3h4v-3z" fill="#c74343"></path><g><path fill="#f88f8f" d="M34.5 35.5h3v2h-3z"></path><path d="M37 36v1h-2v-1h2m1-1h-4v3h4v-3z" fill="#c74343"></path></g></svg>