<svg viewBox="0 0 40 40" xmlns="http://www.w3.org/2000/svg"><path d="M6.854 37.5a2.198 2.198 0 01-2.055-1.386c-1.206-3.02-3.21-9.143-3.296-16.614h36.994c-.087 7.44-2.092 13.579-3.298 16.612a2.198 2.198 0 01-2.056 1.388H6.854z" fill="#8bb7f0"></path><path d="M37.988 20c-.168 7.132-2.088 12.996-3.253 15.927A1.7 1.7 0 0133.144 37H6.853c-.707 0-1.331-.42-1.59-1.071C4.098 33.009 2.179 27.158 2.012 20h35.976M39 19H1c0 7.871 2.161 14.358 3.334 17.3A2.701 2.701 0 006.853 38h26.29a2.7 2.7 0 002.52-1.703C36.837 33.346 39 26.842 39 19z" fill="#4e7ab5"></path><path d="M8.548 33.5a.852.852 0 01-.775-.48c-.669-1.437-2.208-5.593-2.271-13.52h28.996c-.062 7.927-1.602 12.083-2.271 13.52a.85.85 0 01-.775.48H8.548z" fill="#dbf2ff"></path><path d="M33.992 20c-.12 7.499-1.577 11.432-2.218 12.808a.352.352 0 01-.322.192H8.548a.353.353 0 01-.322-.192C7.585 31.432 6.128 27.499 6.008 20h27.984M35 19H5c0 8.248 1.559 12.598 2.32 14.23.221.476.703.77 1.228.77h22.904c.524 0 1.007-.294 1.228-.77C33.441 31.598 35 27.248 35 19z" fill="#4e7ab5"></path><path d="M6.142 23.122h27.717c.06-.85.105-1.754.126-2.722L34 19H6l.015 1.4c.022.968.066 1.873.127 2.722z" fill="#dbf2ff"></path><circle cx="13" cy="7" r="3.5" fill="#dbf2ff"></circle><path d="M13 4c1.654 0 3 1.346 3 3s-1.346 3-3 3-3-1.346-3-3 1.346-3 3-3m0-1a4 4 0 100 8 4 4 0 000-8z" fill="#4e7ab5"></path><g><circle cx="23" cy="12" r="2.5" fill="#dbf2ff"></circle><path d="M23 10c1.103 0 2 .897 2 2s-.897 2-2 2-2-.897-2-2 .897-2 2-2m0-1a3 3 0 100 6 3 3 0 000-6z" fill="#4e7ab5"></path></g><g><circle cx="25" cy="27" r="2.5" fill="#dbf2ff"></circle><path d="M25 25c1.103 0 2 .897 2 2s-.897 2-2 2-2-.897-2-2 .897-2 2-2m0-1a3 3 0 100 6 3 3 0 000-6z" fill="#4e7ab5"></path></g><g><circle cx="16.5" cy="21.5" r="3" fill="#dbf2ff"></circle><path d="M16.5 19c1.378 0 2.5 1.122 2.5 2.5S17.878 24 16.5 24 14 22.878 14 21.5s1.122-2.5 2.5-2.5m0-1a3.5 3.5 0 100 7 3.5 3.5 0 000-7z" fill="#4e7ab5"></path></g></svg>