<svg viewBox="0 0 40 40" xmlns="http://www.w3.org/2000/svg"><path d="M20 38.5C9.799 38.5 1.5 30.201 1.5 20S9.799 1.5 20 1.5 38.5 9.799 38.5 20 30.201 38.5 20 38.5z" fill="#839cb2"></path><path d="M20 2c9.925 0 18 8.075 18 18s-8.075 18-18 18S2 29.925 2 20 10.075 2 20 2m0-1C9.507 1 1 9.507 1 20s8.507 19 19 19 19-8.507 19-19S30.493 1 20 1z" fill="#66798f"></path><path d="M26.442 12.907c-7.543-7.127-18.286-4.458-22.911.167l-1.063 1.063" fill="none" stroke="#66798f" stroke-miterlimit="10"></path><path d="M19.54 10.429c-10.373.294-16.083 9.778-16.083 16.319v1.504" fill="none" stroke="#66798f" stroke-miterlimit="10"></path><path d="M12.907 13.558c-7.127 7.543-4.458 18.286.167 22.911l1.063 1.063" fill="none" stroke="#66798f" stroke-miterlimit="10"></path><path d="M10.429 20.46c.294 10.373 9.778 16.082 16.319 16.082h1.504" fill="none" stroke="#66798f" stroke-miterlimit="10"></path><path d="M13.558 27.093c7.543 7.127 18.286 4.458 22.911-.167l1.063-1.063" fill="none" stroke="#66798f" stroke-miterlimit="10"></path><path d="M20.46 29.571c10.373-.294 16.082-9.778 16.082-16.319v-1.504" fill="none" stroke="#66798f" stroke-miterlimit="10"></path><path d="M27.093 26.442c7.127-7.543 4.458-18.286-.167-22.911l-1.063-1.063" fill="none" stroke="#66798f" stroke-miterlimit="10"></path><path d="M29.571 19.54C29.277 9.167 19.793 3.457 13.252 3.457h-1.504" fill="none" stroke="#66798f" stroke-miterlimit="10"></path><path d="M20 29.5c-5.238 0-9.5-4.262-9.5-9.5s4.262-9.5 9.5-9.5 9.5 4.262 9.5 9.5-4.262 9.5-9.5 9.5z" fill="#fff"></path><path d="M20 11c4.971 0 9 4.029 9 9s-4.029 9-9 9-9-4.029-9-9 4.029-9 9-9m0-1c-5.514 0-10 4.486-10 10s4.486 10 10 10 10-4.486 10-10-4.486-10-10-10z" fill="#66798f"></path><g><path d="M18.382 27.401l.572-8.873a.612.612 0 00.237.048h.564l.113-.343c.166-.501-.012-.855-.129-1.09l-.139-.276h-1.298c.032-.35.088-.781.15-1.203l.117.017c.28 0 .461-.182.569-.291l.092-.092c.254.504.526 1.167.578 1.531l.361 2.518.619-2.467a4.74 4.74 0 00.091-.549c.089.013.171.017.234.017h.049l.013.083c.069.435.139.871.147.967l-.002.038a1.904 1.904 0 01-.163.065l-.342.114v9.479l.066.066a18.962 18.962 0 01-.159-.018c-.136-.948-.204-3.146-.136-3.479.072-.292.02-.585-.047-.956-.063-.353-.143-.792-.143-1.39l-.993-.083c-.093.558-.759 5.212-.892 6.138a.762.762 0 01-.106.081c-.005-.017-.014-.034-.023-.052zm1.261-14.114l-.052-.026-.001-.259a1.733 1.733 0 01.014-.326v.027h.409c.006.082.002.193-.001.256l-.004.353-.101.102v.207c-.002.029-.02.116-.057.152l-.108.109-.099-.595z" fill="#839cb2"></path><path d="M19.041 16.078c.041.098.08.196.116.289H18.862l.03-.233a.938.938 0 00.149-.056m.585 2.998l.309 2.161-.65-.054.136-2.107h.205M18.685 12h-.101l-.101.911v.101h-.101v.405c-.101 0-.101 0-.203.101 0 .101-.101.304-.101.405 0 .405 0 .81.405.81.101 0 .203-.101.304-.101v.405c-.072.072-.143.143-.215.143-.03 0-.059-.012-.089-.042-.304 0-.405-.203-.304-.405 0 0-.101 0-.101.101-.101.608-.304 1.924-.304 2.532 0 .405.405.709.506.709h.203l-.608 9.418s.203.506.405.506c.405 0 .709-.405.709-.405s.81-5.671.911-6.278c0 1.215.304 1.823.203 2.228-.101.405 0 3.342.203 4.051 0 0 .81.101 1.013.101.19.027.358.04.502.04.394 0 .611-.094.611-.242 0-.101-.608-.101-1.114-.608v-8.911s.304-.101.405-.203.101-.304.101-.405-.304-1.924-.304-2.025c0-.203-.101-.304-.405-.405-.101-.101-.81-.405-.81-.405v-.203h-.101v-.203c.203-.203.203-.506.203-.506.101-.101.101-.203.101-.405v-.101c0-.304.101-.911-.405-.911 0 0 0-.101-.101-.101a1.758 1.758 0 00-.185-.01c-.815 0-.727.644-.727 1.022 0 0-.101 0-.101.101s0 .304.203.405l.101.608c.304.101.304.203.304.203h-.101l.203.405.304-.304s.203.101.304.101c.203.608.101 1.722 0 2.127-.101-.709-.911-2.43-1.215-2.532 0 0-.203.101-.304.203.101-.405 0-.506 0-.608l-.203-.203h.101c.101 0 .101-.203 0-.203h-.101v-.405h.101l.101-.911-.102-.101zm2.431 3.848s-.304 0-.405-.101v-.203s.405.102.405.304zm-1.924 2.228s-.101 0-.101-.101c.101-.203 0-.506-.101-.608h.304c.101.203.203.405.101.709h-.203zm-.912-3.114v.076h0v-.076zm1.013 2.968v.09-.09 0z" fill="#66798f"></path></g></svg>