<svg viewBox="0 0 40 40" xmlns="http://www.w3.org/2000/svg"><path d="M20 38.5C9.799 38.5 1.5 30.201 1.5 20S9.799 1.5 20 1.5 38.5 9.799 38.5 20 30.201 38.5 20 38.5z" fill="#f78f8f"></path><path d="M20 2c9.925 0 18 8.075 18 18s-8.075 18-18 18S2 29.925 2 20 10.075 2 20 2m0-1C9.507 1 1 9.507 1 20s8.507 19 19 19 19-8.507 19-19S30.493 1 20 1z" fill="#c74343"></path><g><path d="M26.513 11.003l-4.455 8.159h3.388v2.021h-4.028v2.297h4.028v2.021h-4.028v3.502h-2.861v-3.502h-4.154V23.48h4.154v-2.297h-4.154v-2.021h3.451l-4.367-8.159h3.137l2.899 6.201c.218.468.397.916.54 1.343h.05c.1-.335.289-.807.565-1.418l2.874-6.126h2.961z" fill="#fff"></path></g></svg>