<svg viewBox="0 0 40 40" xmlns="http://www.w3.org/2000/svg"><path d="M20 38.318c-6.706 0-14.5-7.823-14.5-17.909C5.5 11.107 7.257 2.5 20 2.5s14.5 8.607 14.5 17.909c0 10.086-7.794 17.909-14.5 17.909z" fill="#f5ce85"></path><path d="M20 3c12.304 0 14 8.367 14 17.409 0 9.804-7.526 17.409-14 17.409S6 30.213 6 20.409C6 11.367 7.696 3 20 3m0-1C7.382 2 5 10.24 5 20.409c0 10.169 7.853 18.409 15 18.409s15-8.24 15-18.409C35 10.24 32.618 2 20 2z" fill="#967a44"></path><path fill="#f78f8f" d="M15.522 12.865l4.478.64 4.478-.64L20 15.424z"></path><path d="M21.956 13.731L20 14.848l-1.956-1.117 1.814.259.142.02.141-.02 1.815-.259M27 12l-7 1-7-1 7 4 7-4z" fill="#c74343"></path><path fill="#f78f8f" d="M11.741 28.033l3.449-2.874-2.299 4.025z"></path><path d="M13.381 27.317l-.6 1.05-.3-.3.9-.75M17 23l-6 5 2 2 4-7z" fill="#c74343"></path><path fill="#f78f8f" d="M24.81 25.159l3.449 2.874-1.15 1.151z"></path><path d="M26.619 27.317l.9.75-.3.3-.6-1.05M23 23l4 7 2-2-6-5z" fill="#c74343"></path><path d="M13.444 22.5c-2.54 0-3.944-2.661-3.944-4.5 0-.644.344-1.5 3.322-1.5h1.511c1.681 0 2.167.561 2.167 2.5 0 1.93-1.371 3.5-3.056 3.5z" fill="#b08159"></path><path d="M14.333 17c1.235 0 1.667.164 1.667 2 0 1.654-1.146 3-2.556 3C11.31 22 10 19.67 10 18c0-.247 0-1 2.822-1h1.511m0-1h-1.511C10.956 16 9 16.3 9 18c0 2.2 1.689 5 4.444 5C15.4 23 17 21.2 17 19s-.711-3-2.667-3z" fill="#a16a4a"></path><path d="M26.556 22.5c-1.685 0-3.056-1.57-3.056-3.5 0-1.939.486-2.5 2.167-2.5h1.511c2.978 0 3.322.856 3.322 1.5 0 1.839-1.405 4.5-3.944 4.5z" fill="#b08159"></path><path d="M27.178 17C30 17 30 17.753 30 18c0 1.67-1.31 4-3.444 4C25.146 22 24 20.654 24 19c0-1.836.432-2 1.667-2h1.511m0-1h-1.511C23.711 16 23 16.8 23 19s1.6 4 3.556 4C29.311 23 31 20.2 31 18c0-1.7-1.956-2-3.822-2z" fill="#a16a4a"></path><path fill="#839cb2" d="M17.5 1.5h5v5h-5z"></path><path d="M22 2v4h-4V2h4m1-1h-6v6h6V1z" fill="#66798f"></path><path fill="#839cb2" d="M2.5 16.5h5v5h-5z"></path><path d="M7 17v4H3v-4h4m1-1H2v6h6v-6z" fill="#66798f"></path><path fill="#839cb2" d="M32.5 16.5h5v5h-5z"></path><path d="M37 17v4h-4v-4h4m1-1h-6v6h6v-6z" fill="#66798f"></path><path d="M12 7.5c-.322 0-.5-.178-.5-.5s.178-.5.5-.5.5.178.5.5-.178.5-.5.5z" fill="#a16a4a"></path><path d="M12 6c-.6 0-1 .4-1 1s.4 1 1 1 1-.4 1-1-.4-1-1-1z" fill="#704e34"></path><path d="M10 11.5c-.322 0-.5-.178-.5-.5s.178-.5.5-.5.5.178.5.5-.178.5-.5.5z" fill="#a16a4a"></path><path d="M10 10c-.6 0-1 .4-1 1s.4 1 1 1 1-.4 1-1-.4-1-1-1z" fill="#704e34"></path><path d="M26 10.5c-.322 0-.5-.178-.5-.5s.178-.5.5-.5.5.178.5.5-.178.5-.5.5z" fill="#a16a4a"></path><path d="M26 9c-.6 0-1 .4-1 1s.4 1 1 1 1-.4 1-1-.4-1-1-1z" fill="#704e34"></path><path d="M22 10.5c-.322 0-.5-.178-.5-.5s.178-.5.5-.5.5.178.5.5-.178.5-.5.5z" fill="#a16a4a"></path><path d="M22 9c-.6 0-1 .4-1 1s.4 1 1 1 1-.4 1-1-.4-1-1-1z" fill="#704e34"></path><path d="M18 10.5c-.322 0-.5-.178-.5-.5s.178-.5.5-.5.5.178.5.5-.178.5-.5.5z" fill="#a16a4a"></path><path d="M18 9c-.6 0-1 .4-1 1s.4 1 1 1 1-.4 1-1-.4-1-1-1z" fill="#704e34"></path><g><path d="M14 10.5c-.322 0-.5-.178-.5-.5s.178-.5.5-.5.5.178.5.5-.178.5-.5.5z" fill="#a16a4a"></path><path d="M14 9c-.6 0-1 .4-1 1s.4 1 1 1 1-.4 1-1-.4-1-1-1z" fill="#704e34"></path></g><g><path d="M28 7.5c-.322 0-.5-.178-.5-.5s.178-.5.5-.5.5.178.5.5-.178.5-.5.5z" fill="#a16a4a"></path><path d="M28 6c-.6 0-1 .4-1 1s.4 1 1 1 1-.4 1-1-.4-1-1-1z" fill="#704e34"></path></g><g><path d="M30 11.5c-.322 0-.5-.178-.5-.5s.178-.5.5-.5.5.178.5.5-.178.5-.5.5z" fill="#a16a4a"></path><path d="M30 10c-.6 0-1 .4-1 1s.4 1 1 1 1-.4 1-1-.4-1-1-1z" fill="#704e34"></path></g><g><path d="M18 27.5c-.322 0-.5-.178-.5-.5s.178-.5.5-.5.5.178.5.5-.178.5-.5.5z" fill="#a16a4a"></path><path d="M18 26c-.6 0-1 .4-1 1s.4 1 1 1 1-.4 1-1-.4-1-1-1z" fill="#704e34"></path></g><g><path d="M22 27.5c-.322 0-.5-.178-.5-.5s.178-.5.5-.5.5.178.5.5-.178.5-.5.5z" fill="#a16a4a"></path><path d="M22 26c-.6 0-1 .4-1 1s.4 1 1 1 1-.4 1-1-.4-1-1-1z" fill="#704e34"></path></g><g><path d="M18 31.5c-.322 0-.5-.178-.5-.5s.178-.5.5-.5.5.178.5.5-.178.5-.5.5z" fill="#a16a4a"></path><path d="M18 30c-.6 0-1 .4-1 1s.4 1 1 1 1-.4 1-1-.4-1-1-1z" fill="#704e34"></path></g><g><path d="M22 31.5c-.322 0-.5-.178-.5-.5s.178-.5.5-.5.5.178.5.5-.178.5-.5.5z" fill="#a16a4a"></path><path d="M22 30c-.6 0-1 .4-1 1s.4 1 1 1 1-.4 1-1-.4-1-1-1z" fill="#704e34"></path></g><g><path d="M18 35.5c-.322 0-.5-.178-.5-.5s.178-.5.5-.5.5.178.5.5-.178.5-.5.5z" fill="#a16a4a"></path><path d="M18 34c-.6 0-1 .4-1 1s.4 1 1 1 1-.4 1-1-.4-1-1-1z" fill="#704e34"></path></g><g><path d="M22 35.5c-.322 0-.5-.178-.5-.5s.178-.5.5-.5.5.178.5.5-.178.5-.5.5z" fill="#a16a4a"></path><path d="M22 34c-.6 0-1 .4-1 1s.4 1 1 1 1-.4 1-1-.4-1-1-1z" fill="#704e34"></path></g><g><path d="M14 33.5c-.322 0-.5-.178-.5-.5s.178-.5.5-.5.5.178.5.5-.178.5-.5.5z" fill="#a16a4a"></path><path d="M14 32c-.6 0-1 .4-1 1s.4 1 1 1 1-.4 1-1-.4-1-1-1z" fill="#704e34"></path></g><g><path d="M26 33.5c-.322 0-.5-.178-.5-.5s.178-.5.5-.5.5.178.5.5-.178.5-.5.5z" fill="#a16a4a"></path><path d="M26 32c-.6 0-1 .4-1 1s.4 1 1 1 1-.4 1-1-.4-1-1-1z" fill="#704e34"></path></g><g><path d="M31 26.5c-.322 0-.5-.178-.5-.5s.178-.5.5-.5.5.178.5.5-.178.5-.5.5z" fill="#a16a4a"></path><path d="M31 25c-.6 0-1 .4-1 1s.4 1 1 1 1-.4 1-1-.4-1-1-1z" fill="#704e34"></path></g><g><path d="M9 26.5c-.322 0-.5-.178-.5-.5s.178-.5.5-.5.5.178.5.5-.178.5-.5.5z" fill="#a16a4a"></path><path d="M9 25c-.6 0-1 .4-1 1s.4 1 1 1 1-.4 1-1-.4-1-1-1z" fill="#704e34"></path></g></svg>