<svg viewBox="0 0 40 40" xmlns="http://www.w3.org/2000/svg"><path fill="#5e9c76" d="M30.5 22.5h-9v-5h9v-4.387L38.248 20 30.5 26.887z"></path><path d="M31 14.227L37.495 20 31 25.773V22h-9v-4h9v-3.773M30 12v5h-9v6h9v5l9-8-9-8z" fill="#37774e"></path><path fill="#99c99e" d="M1.5 11.5h9v17h-9z"></path><path d="M10 12v16H2V12h8m1-1H1v18h10V11z" fill="#5e9c76"></path><g><path d="M16 37.5a5.506 5.506 0 01-5.5-5.5V8c0-3.032 2.467-5.5 5.5-5.5h1.5v35H16z" fill="#bae0bd"></path><path d="M17 3v34h-1c-2.757 0-5-2.243-5-5V8c0-2.757 2.243-5 5-5h1m1-1h-2a6 6 0 00-6 6v24a6 6 0 006 6h2V2z" fill="#5e9c76"></path></g></svg>