<svg viewBox="0 0 40 40" xmlns="http://www.w3.org/2000/svg"><path fill="#c74343" d="M1.752 20L9.5 13.113V17.5h9v5h-9v4.387z"></path><path d="M9 14.227V18h9v4H9v3.773L2.505 20 9 14.227M10 12l-9 8 9 8v-5h9v-6h-9v-5z" fill="#ab3434"></path><path fill="#f76d6d" d="M29.5 11.5h9v17h-9z"></path><path d="M38 12v16h-8V12h8m1-1H29v18h10V11z" fill="#c74343"></path><g><path d="M22.5 37.5v-35H24c3.033 0 5.5 2.468 5.5 5.5v24c0 3.032-2.467 5.5-5.5 5.5h-1.5z" fill="#f78f8f"></path><path d="M24 3c2.757 0 5 2.243 5 5v24c0 2.757-2.243 5-5 5h-1V3h1m0-1h-2v36h2a6 6 0 006-6V8a6 6 0 00-6-6z" fill="#c74343"></path></g></svg>