<svg viewBox="0 0 40 40" xmlns="http://www.w3.org/2000/svg"><path d="M4 33.5c-.827 0-1.5-.673-1.5-1.5V8c0-.827.673-1.5 1.5-1.5h32c.827 0 1.5.673 1.5 1.5v24c0 .827-.673 1.5-1.5 1.5H4z" fill="#bae0bd"></path><path d="M36 7c.551 0 1 .449 1 1v24c0 .551-.449 1-1 1H4c-.551 0-1-.449-1-1V8c0-.551.449-1 1-1h32m0-1H4a2 2 0 00-2 2v24a2 2 0 002 2h32a2 2 0 002-2V8a2 2 0 00-2-2z" fill="#5e9c76"></path><path d="M16.613 15.759h1.703v5.968c0 2.521-1.222 2.899-2.457 2.899-.351 0-.676-.053-.858-.131l.144-1.43c.156.052.338.065.559.065.494 0 .91-.195.91-1.326v-6.045zM20.11 22.779c.352.195.962.338 1.443.338.793 0 1.196-.416 1.196-.987 0-.638-.391-.949-1.132-1.431-1.195-.728-1.65-1.651-1.65-2.444 0-1.403.936-2.574 2.756-2.574.585 0 1.131.156 1.378.312l-.272 1.469a2.083 2.083 0 00-1.105-.299c-.728 0-1.079.442-1.079.91 0 .52.26.793 1.196 1.365 1.17.702 1.586 1.586 1.586 2.509 0 1.6-1.183 2.652-2.886 2.652-.702 0-1.379-.183-1.678-.352l.247-1.468z" fill="#44825d"></path></svg>