<svg viewBox="0 0 40 40" xmlns="http://www.w3.org/2000/svg"><path fill="#bae0bd" d="M6.5 37.5v-35h18.293l8.707 8.707V37.5z"></path><path d="M24.586 3L33 11.414V37H7V3h17.586M25 2H6v36h28V11l-9-9z" fill="#5e9c76"></path><path fill="#fff" d="M24.5 11.5v-9h.293l8.707 8.707v.293z"></path><path d="M25 3.414L32.586 11H25V3.414M25 2h-1v10h10v-1l-9-9z" fill="#5e9c76"></path><path d="M10.953 18.233h1.571v5.506c0 2.326-1.127 2.674-2.267 2.674-.324 0-.624-.048-.792-.12l.132-1.318c.145.048.312.06.516.06.456 0 .84-.18.84-1.224v-5.578zM13.941 24.71c.324.181.888.312 1.332.312.731 0 1.103-.384 1.103-.912 0-.588-.359-.875-1.043-1.319-1.104-.671-1.523-1.522-1.523-2.255 0-1.295.864-2.374 2.543-2.374.54 0 1.043.144 1.271.287l-.252 1.355a1.918 1.918 0 00-1.02-.275c-.672 0-.995.407-.995.84 0 .479.239.731 1.103 1.259 1.08.647 1.464 1.463 1.464 2.314 0 1.476-1.092 2.447-2.663 2.447-.647 0-1.271-.168-1.547-.324l.227-1.355zM23.923 22.132c0 3.046-1.079 4.281-2.614 4.281-1.835 0-2.555-1.942-2.555-4.161 0-2.207.875-4.114 2.675-4.114 1.942 0 2.494 2.147 2.494 3.994zm-3.538.143c0 1.835.348 2.771.983 2.771.672 0 .924-1.199.924-2.842 0-1.416-.216-2.699-.936-2.699-.624 0-.971 1.031-.971 2.77zM25.222 26.317v-8.084h1.438l1.248 3.167c.251.623.635 1.667.863 2.362h.023c-.048-.852-.155-2.255-.155-3.742v-1.787h1.379v8.084h-1.439l-1.235-3.07a24.21 24.21 0 01-.827-2.435h-.024c.049.815.108 2.062.108 3.694v1.811h-1.379z" fill="#44825d"></path></svg>