<svg viewBox="0 0 40 40" xmlns="http://www.w3.org/2000/svg"><path fill="#f88f8f" d="M3.5 36.5h3v1h-3z"></path><path fill="#c74343" d="M7 36H3v2h4v-2z"></path><path fill="#f88f8f" d="M33.5 36.5h3v1h-3z"></path><path fill="#c74343" d="M37 36h-4v2h4v-2zM11 36h18v2H11v-2z"></path><path d="M3 35.5c-.225-.006-.5-.097-.5-.5 0-13.366 3.105-25.803 5.777-27.584 1.902-1.269 6.114-3.525 6.848-3.916h9.75c.733.391 4.945 2.647 6.848 3.916 2.609 1.74 5.635 13.908 5.777 27.589-.006.22-.098.495-.5.495h-4c-.225-.006-.5-.097-.5-.5 0-10.49-1.047-17.293-2.026-20.162A.502.502 0 0029.5 15v19.8a.7.7 0 01-.7.7H11.1a.6.6 0 01-.6-.6V15a.5.5 0 00-.973-.162C8.686 17.301 7.5 25.184 7.5 35c0 .403-.275.494-.506.5H3z" fill="#f88f8f"></path><path d="M24.75 4c.967.517 4.891 2.629 6.695 3.832.937.625 2.388 3.361 3.651 9.168 1.161 5.339 1.836 11.724 1.904 17.981l-.003.019-3.968.001-.029-.004c0-10.551-1.061-17.415-2.054-20.32A1 1 0 0029 15v19.8a.2.2 0 01-.2.2H11.1a.1.1 0 01-.1-.1V15a1 1 0 00-1.947-.323C8.058 17.589 7 25.701 7 35H3C3 20.676 6.29 9.342 8.555 7.832 10.359 6.629 14.283 4.517 15.25 4h9.5M25 3H15s-4.877 2.585-7 4C5 9 2 21.791 2 35c0 1 1 1 1 1h4s1 0 1-1c0-9.692 1.15-17.514 2-20v19.9a1.1 1.1 0 001.1 1.1H28.8a1.2 1.2 0 001.2-1.2V15c.849 2.484 2 8.923 2 20 0 1 1 1 1 1h4c1 0 1-1 1-1-.138-13.233-3-26-6-28-2.123-1.415-7-4-7-4z" fill="#c74343"></path><path fill="#c74343" d="M15 4l5 10.077L25 4"></path><path d="M29 21.474l-1.588 1.421L25.294 21l-2.118 1.895L21.059 21l-2.118 1.895L16.824 21l-2.118 1.895L12.588 21 11 22.421v2.842l1.588-1.421 2.118 1.895 2.118-1.895 2.118 1.895 2.118-1.895 2.118 1.895 2.118-1.895 2.118 1.895L29 24.316v-2.842z" fill="#ea8182"></path></svg>