<svg viewBox="0 0 40 40" xmlns="http://www.w3.org/2000/svg"><path d="M9 5s2.438-3.469 5-3.469c1.713 0 2.5 1.404 2.5 2.885 0 9.736-15 10.452-15 22.584 0 6.632 4.418 11.5 11.5 11.5 5.389 0 14.494-3.027 14.494-10.5 0-4.676-3.747-7.479-7.508-7.479S12.494 23.324 12.494 28c0 7.473 9.119 10.5 14.506 10.5 7.082 0 11.502-4.868 11.502-11.5 0-12.132-15.002-12.848-15.002-22.584 0-1.481.901-2.916 2.5-2.916 2.531 0 4.969 3.406 4.969 3.406" fill="none" stroke="#5e9c76" stroke-miterlimit="10"></path><path d="M36.534 12.5a.518.518 0 01-.368-.153l-3.675-3.674a2.002 2.002 0 00-2.164-2.164l-.646-.646c-.304-.304-.169-.573-.003-.747l1.439-1.441c.049-.046.223-.175.397-.175.042 0 .167 0 .342.174l.653.653a2.002 2.002 0 002.162 2.164l3.676 3.676a.516.516 0 010 .736l-1.444 1.443a.52.52 0 01-.369.154z" fill="#ffc49c"></path><path d="M31.492 4.019l.01.009.498.498A2.503 2.503 0 0034.47 7l3.522 3.55-1.473 1.444L33 8.474A2.503 2.503 0 0030.526 6l-.498-.498-.01-.01.01-.019 1.424-1.425a.206.206 0 01.04-.029M31.514 3c-.428 0-.749.321-.749.321l-1.444 1.445s-.723.722 0 1.444l.834.834c.112-.027.226-.044.345-.044A1.5 1.5 0 0132 8.5c0 .119-.017.233-.044.344l3.856 3.856a1.021 1.021 0 001.444 0l1.444-1.444c.4-.398.4-1.044 0-1.444l-3.856-3.857A1.398 1.398 0 0134.5 6 1.5 1.5 0 0133 4.5c0-.119.017-.233.044-.344l-.835-.835C31.968 3.08 31.727 3 31.514 3z" fill="#b08159"></path><path fill="#b08159" d="M31.503 3.753l-1.742 1.664 2.727 2.727L34.23 6.48z"></path><path d="M3.465 12.5a.515.515 0 01-.366-.152l-1.445-1.444a.52.52 0 01-.001-.737l3.676-3.676a2.002 2.002 0 002.162-2.164l.646-.646c.182-.181.308-.181.349-.181.204 0 .394.173.396.175l1.443 1.444c.162.17.297.439 0 .736l-.652.653a2.002 2.002 0 00-2.164 2.165l-3.675 3.674a.522.522 0 01-.369.153z" fill="#ffc49c"></path><path d="M8.509 4.018l.019.01 1.444 1.445.009.018a.813.813 0 01-.033.035L9.474 6A2.504 2.504 0 007 8.471l-3.549 3.522-1.444-1.473L5.527 7A2.504 2.504 0 008 4.526l.499-.499a.09.09 0 01.01-.009M8.486 3c-.213 0-.454.08-.695.321l-.835.835c.027.111.044.225.044.344A1.5 1.5 0 015.5 6a1.5 1.5 0 01-.344-.043L1.3 9.813c-.4.399-.4 1.045 0 1.444l1.444 1.444a1.017 1.017 0 001.443 0l3.856-3.856A1.516 1.516 0 018 8.5 1.5 1.5 0 019.5 7c.119 0 .233.017.344.044l.834-.834c.723-.722 0-1.444 0-1.444L9.235 3.321S8.914 3 8.486 3z" fill="#b08159"></path><path fill="#b08159" d="M8.497 3.753l1.742 1.664-2.727 2.727L5.77 6.48z"></path></svg>