<svg viewBox="0 0 40 40" xmlns="http://www.w3.org/2000/svg"><path d="M30.024 27.68c.151-.087.325-.178.511-.274 1.84-.955 4.92-2.555 5.74-9.935l.09-.811-2.363.889-.088.174c-.027.054-2.681 5.215-6.387 5.74l-1.342-2.996c4.393-.395 6.672-4.143 7.166-5.057l5.144-1.715c-.16 10.355-3.896 14.805-6.393 16.625l-2.078-2.64z" fill="#f78f8f"></path><path d="M37.978 14.395c-.293 9.131-3.452 13.349-5.788 15.229l-1.404-1.785c1.807-.939 5.14-2.696 5.987-10.313l.18-1.62-1.526.573-1.418.533-.364.138-.176.347c-.025.049-2.391 4.641-5.645 5.403l-.907-2.024c3.951-.676 6.124-3.913 6.776-5.052l4.285-1.429M39 13l-6 2s-2.404 5-7.571 5l1.79 3.996c4.221-.263 7.142-6.048 7.142-6.048l1.418-.533c-.979 8.81-5.248 9.048-6.475 10.157L32 31c2.936-1.94 7-6.851 7-18z" fill="#c74343"></path><path d="M9.597 33.491C5.288 31.8 2.5 30.168 2.5 25.253c0-1.671.613-3.41 1.154-4.944.684-1.938 1.274-3.611.482-4.73-.458-.647-1.286-.99-2.583-1.063.245-1.094 1.256-1.809 1.583-2.014 1.716.021 2.899.427 3.613 1.241 1.228 1.399.905 3.854.62 6.019-.237 1.806-.442 3.365.287 4.196.316.359.768.542 1.344.542.125 0 .33.035.568.072.369.057.826.128 1.23.132l-1.201 8.787z" fill="#f78f8f"></path><path d="M3.281 13.004c1.466.04 2.505.399 3.092 1.068 1.078 1.229.771 3.564.5 5.625-.253 1.926-.472 3.589.406 4.59.286.325.816.713 1.72.713.075.001.317.039.493.066.224.035.478.074.738.102l-1.041 7.623C5.311 31.218 3 29.652 3 25.253c0-1.585.598-3.281 1.126-4.778.73-2.069 1.36-3.856.419-5.186-.542-.766-1.427-1.083-2.291-1.21.291-.519.762-.893 1.027-1.075M3 12s-2 1.075-2 3c6.143 0 1 5.228 1 10.253 0 5.473 3.265 7.115 8.007 8.934l1.375-10.066c-.143.06-.335.083-.549.083C10.188 24.204 9.339 24 9 24c-4.24 0 3.776-12-6-12z" fill="#c74343"></path><path d="M13 38.5a.5.5 0 01-.5-.5v-3.5h15V38a.5.5 0 01-.5.5H13z" fill="#f78f8f"></path><path d="M27 35v3H13v-3h14m1-1H12v4a1 1 0 001 1h14a1 1 0 001-1v-4z" fill="#c74343"></path><path d="M20 36.5c-8.706 0-13.5-2.714-13.5-7.643 0-1.419 1.844-3.377 3.796-5.45 2.298-2.439 4.885-5.186 5.177-7.907h9.054c.29 2.742 2.884 5.49 5.188 7.932 1.946 2.062 3.785 4.01 3.785 5.426 0 4.928-4.794 7.642-13.5 7.642z" fill="#ffc49c"></path><path d="M24.095 16c.514 2.75 3.018 5.404 5.257 7.775C31.145 25.675 33 27.64 33 28.857 33 33.463 28.383 36 20 36S7 33.463 7 28.857c0-1.221 1.861-3.196 3.66-5.107 2.231-2.369 4.728-5.019 5.244-7.751h8.191M25 15H15c0 4.954-9 10.324-9 13.857C6 33.378 9.798 37 20 37s14-3.621 14-8.143c0-3.533-9-8.87-9-13.857z" fill="#a16a4a"></path><path d="M15.5 15.5v-.75c0-2.639 2.288-10.25 4.5-10.25s4.5 7.611 4.5 10.25v.75h-9z" fill="#f78f8f"></path><path d="M20 5c1.633 0 4 6.847 4 9.75V15h-8v-.25c0-1.135.523-3.679 1.399-5.972C18.39 6.182 19.442 5 20 5m0-1c-2.762 0-5 8.208-5 10.75V16h10v-1.25C25 12.208 22.762 4 20 4z" fill="#c74343"></path><circle cx="20" cy="3" r="1.5" fill="#ffc49c"></circle><path d="M20 2c.551 0 1 .449 1 1s-.449 1-1 1-1-.449-1-1 .449-1 1-1m0-1a2 2 0 10-.001 3.999A2 2 0 0020 1z" fill="#a16a4a"></path><path d="M20 21c.828 0 1.5.672 1.5 1.5s-1.5 3-1.5 3-1.5-2.172-1.5-3S19.172 21 20 21z" fill="#c74343"></path><g><path d="M20 33c-.828 0-1.5-.672-1.5-1.5s1.5-3 1.5-3 1.5 2.172 1.5 3S20.828 33 20 33z" fill="#c74343"></path></g><g><path d="M14.804 24a1.5 1.5 0 012.049-.549c.717.414 1.848 2.799 1.848 2.799s-2.631.213-3.348-.201-.963-1.332-.549-2.049z" fill="#c74343"></path></g><g><path d="M25.196 30a1.5 1.5 0 01-2.049.549c-.717-.414-1.848-2.799-1.848-2.799s2.631-.213 3.348.201A1.5 1.5 0 0125.196 30z" fill="#c74343"></path></g><g><path d="M24.647 26.049c-.717.414-3.348.201-3.348.201s1.131-2.385 1.848-2.799a1.5 1.5 0 011.5 2.598z" fill="#c74343"></path></g><g><path d="M15.353 27.951c.717-.414 3.348-.201 3.348-.201s-1.131 2.385-1.848 2.799a1.5 1.5 0 01-1.5-2.598z" fill="#c74343"></path></g><g><circle cx="20" cy="27" r="2.5" fill="#f78f8f"></circle><path d="M20 25c1.103 0 2 .897 2 2s-.897 2-2 2-2-.897-2-2 .897-2 2-2m0-1a3 3 0 100 6 3 3 0 000-6z" fill="#c74343"></path></g></svg>