<svg viewBox="0 0 40 40" xmlns="http://www.w3.org/2000/svg"><path d="M1.566 35.793l1.408-4.564 11.824-11.825-.592-.591c-.419-.418-.648-.974-.648-1.565s.229-1.147.648-1.566l.961-.962-.025-.238a11.694 11.694 0 01-.071-1.267c0-6.459 5.255-11.714 11.714-11.714l.333.005c6.104.168 11.208 5.272 11.377 11.376a11.626 11.626 0 01-3.312 8.5 11.62 11.62 0 01-8.397 3.547c-.408 0-.822-.023-1.268-.071l-.238-.026-.961.961a2.203 2.203 0 01-1.566.648c-.591 0-1.147-.23-1.565-.648l-.592-.592-2.299 2.299H14.5v3.797L13.297 32.5H9.5v3.797l-.738.738-4.553 1.398-2.643-2.64zM26.971 5.5a7.475 7.475 0 00-5.324 2.206l-.354.354 10.648 10.648.354-.354c1.422-1.422 2.205-3.313 2.205-5.324s-.783-3.902-2.205-5.324A7.477 7.477 0 0026.971 5.5z" fill="#f5ce85"></path><path d="M26.786 2c.106 0 .212.001.318.004 5.844.162 10.73 5.047 10.891 10.891a11.134 11.134 0 01-3.17 8.137 11.126 11.126 0 01-9.253 3.328l-.476-.051-.338.338-.792.792a1.702 1.702 0 01-1.212.502c-.458 0-.888-.178-1.212-.502l-.238-.238-.707-.707-.707.707L18.09 27H14v4.09l-.91.91H9v4.09l-.504.504-4.147 1.274-2.216-2.215 1.282-4.158 11.383-11.383.707-.707-.707-.707-.238-.238c-.324-.324-.502-.754-.502-1.212s.178-.888.502-1.212l.792-.792.338-.338-.051-.476a11.238 11.238 0 01-.068-1.214C15.571 7.031 20.602 2 26.786 2m5.155 17.414l.707-.707C34.165 17.191 35 15.174 35 13.029s-.835-4.161-2.352-5.678C31.132 5.835 29.115 5 26.971 5s-4.161.835-5.678 2.352l-.707.707.707.707 9.941 9.941.707.707M26.786 1C20.04 1 14.571 6.468 14.571 13.214c0 .447.027.887.074 1.321l-.792.792a2.715 2.715 0 000 3.839l.238.238L2.533 30.963 1 35.933 4.068 39l4.96-1.524.972-.972V33h3.504L15 31.504V28h3.504l2.091-2.091.238.238c.53.53 1.225.795 1.919.795.695 0 1.389-.265 1.919-.795l.792-.792c.434.047.874.074 1.321.074 6.861 0 12.401-5.657 12.209-12.561-.177-6.374-5.49-11.687-11.863-11.863-.114-.003-.23-.005-.344-.005zm5.155 17L22 8.059C23.373 6.686 25.172 6 26.971 6s3.598.686 4.971 2.059A7.03 7.03 0 0131.941 18z" fill="#967a44"></path><path fill="#dbb065" d="M5.262 32.673l11.155-11.155.707.707L5.969 33.38z"></path><path fill="#967a44" d="M14.599 19.92l.707-.707 5.322 5.322-.707.707z"></path></svg>