<svg viewBox="0 0 40 40" xmlns="http://www.w3.org/2000/svg"><path d="M9.199 30.403l.286-1.116.001-.062c.007-.867.94-1.718 1.885-1.718.104 0 .206.01.305.03.778.161 6.209 1.618 8.007 2.102l-1.351 2.871-9.133-2.107z" fill="#f5ce85"></path><path d="M11.371 28.007c.07 0 .138.007.204.02.647.134 4.855 1.256 7.401 1.94l-.925 1.965-8.241-1.901.144-.561.03-.118.001-.122c.006-.595.718-1.223 1.386-1.223m0-1c-1.202 0-2.375 1.045-2.385 2.214l-.399 1.554 10.025 2.314 1.777-3.776s-7.657-2.067-8.612-2.264a1.93 1.93 0 00-.406-.042z" fill="#967a44"></path><path d="M23.601 38.5c-1.266 0-14.566-4.946-15.724-5.445-.586-.268-1.043-.737-1.245-1.285a1.642 1.642 0 01.029-1.267c.302-.648.784-.95 1.52-.95.347 0 .688.07.913.123 1.832.43 7.996 2.143 8.059 2.159l.726.202-.096-.747c-.078-.609.022-1.47.537-2.056.43-.487 1.095-.734 1.977-.734 3.634 0 5.656-.714 7.282-1.287 1.094-.387 1.958-.691 3.034-.691.912 0 1.912.221 3.146.695 1.447.557 3.719 1.557 4.635 1.963l-2.188 7.171a6.423 6.423 0 00-2.981-.756c-.613 0-1.227.095-1.82.283-.444.14-1.283.448-2.26.808-1.849.678-4.939 1.814-5.544 1.814z" fill="#f5ce85"></path><path d="M30.613 27.022c.849 0 1.792.21 2.966.662 1.256.483 3.143 1.305 4.207 1.775l-1.89 6.194a6.852 6.852 0 00-2.673-.558 6.54 6.54 0 00-1.971.306c-.462.146-1.304.456-2.279.814-1.666.613-4.768 1.753-5.358 1.785-1.359-.082-14.033-4.755-15.52-5.396-.475-.217-.837-.584-.993-1.007-.08-.217-.143-.546.014-.884.218-.469.527-.661 1.065-.661.292 0 .58.059.799.11 1.822.427 7.976 2.137 8.038 2.154l1.45.403-.191-1.493c-.064-.501.012-1.201.418-1.662.33-.374.869-.564 1.601-.564 3.719 0 5.787-.73 7.448-1.316 1.049-.37 1.878-.662 2.869-.662m0-1C27.765 26.022 26.29 28 20.297 28c-2.698 0-3.171 2.094-3.01 3.353 0 0-6.215-1.727-8.078-2.164a4.53 4.53 0 00-1.027-.137c-.717 0-1.511.247-1.972 1.239-.528 1.137.076 2.585 1.47 3.222C8.762 33.982 22.172 39 23.6 39c1.004 0 6.527-2.195 7.952-2.646a5.53 5.53 0 011.67-.26c1.933 0 3.272 1.021 3.272 1.021L39 28.904s-3.19-1.433-5.063-2.154c-1.373-.528-2.418-.728-3.324-.728z" fill="#967a44"></path><path d="M27.716 32.412S23.666 33.5 21.97 33.5c-3.017 0-4.041-.782-4.21-2.476" fill="none" stroke="#967a44" stroke-miterlimit="10"></path><path d="M21.207 25.5l-.707-.707V18.5H20a2.502 2.502 0 01-2.5-2.5v-1c0-1.379 1.121-2.5 2.5-2.5h4c1.379 0 2.5 1.121 2.5 2.5v1c0 1.379-1.121 2.5-2.5 2.5h-.5v6.293l-.707.707h-1.586z" fill="#ffeea3"></path><path d="M24 13c1.103 0 2 .897 2 2v1c0 1.103-.897 2-2 2h-1v6.586l-.414.414h-1.172L21 24.586V18h-1c-1.103 0-2-.897-2-2v-1c0-1.103.897-2 2-2h4m0-1h-4a3 3 0 00-3 3v1a3 3 0 003 3v6l1 1h2l1-1v-6a3 3 0 003-3v-1a3 3 0 00-3-3z" fill="#ba9b48"></path><path d="M38.715 29.838l-1.579-.654-2.589 5.918s1.497.543 2.254 1.01l1.914-6.274z" fill="#f5ce85"></path><g><path d="M21.271 16.514c-.071 0-.146-.004-.222-.011-.789-.082-1.714-.315-2.609-.541-.985-.248-1.836-.462-2.44-.462-.483 0-1.354.165-2.455.375-1.465.278-3.287.625-4.545.625-1.639 0-2.499-.837-3.495-1.806-.977-.949-2.072-2.017-4.005-2.174V4.5h2.211c1.363 0 3.562-.823 5.688-1.62C11.211 2.201 13.085 1.5 14 1.5c2.064 0 8.179 3.491 8.652 3.921.257.296 3.025 4.466 4.706 7.021.163.299.181.593.032.866-.204.375-.669.65-1.067.781A2.487 2.487 0 0024 12.5h-.466a339.16 339.16 0 00-1.724-1.621c-.948-.888-2.129-1.993-2.254-2.132-.625-.584-4.8-1.247-4.985-1.247-.295 0-2.071.576-2.071 2 0 .944.885 2 2.069 2 .077 0 .25-.011.487-.027a29.557 29.557 0 012.02-.088c.617 0 1.112.035 1.47.105 1.275.251 2.684.825 3.586 1.462.827.584.954 1.636.722 2.367-.114.359-.497 1.195-1.583 1.195z" fill="#f5ce85"></path><path d="M14 2c1.791 0 7.497 3.173 8.29 3.771.438.576 3.029 4.481 4.626 6.909.12.232.067.33.035.39-.075.138-.224.265-.394.367A2.98 2.98 0 0024 12h-.266c-.387-.367-.975-.917-1.577-1.481a174.789 174.789 0 01-2.206-2.083l-.024-.034-.077-.071C19.11 7.648 14.741 7 14.571 7 13.973 7 12 7.779 12 9.5c0 1.182 1.055 2.5 2.569 2.5.083 0 .268-.011.523-.029.464-.032 1.241-.086 1.985-.086.585 0 1.047.033 1.374.097 1.193.234 2.557.789 3.394 1.38.594.419.718 1.226.533 1.807-.1.316-.377.846-1.105.846-.056 0-.113-.003-.169-.009-.755-.078-1.663-.307-2.541-.528C17.545 15.221 16.667 15 16 15c-.531 0-1.421.169-2.549.384-1.443.274-3.24.616-4.451.616-1.436 0-2.191-.734-3.147-1.664-.914-.89-2.02-1.965-3.853-2.259V5h1.711c1.454 0 3.596-.802 5.864-1.652C11.263 2.716 13.175 2 14 2m0-1C11.906 1 6.161 4 3.711 4H1v9c4.022 0 4.251 4 8 4 2.211 0 5.934-1 7-1 1.066 0 3.317.826 5 1 .093.009.184.014.272.014 2.343 0 2.923-3.218 1.148-4.47-.967-.682-2.456-1.284-3.777-1.544-.44-.087-1.001-.115-1.567-.115-1.13 0-2.277.115-2.507.115C13.618 11 13 10.14 13 9.5 13 8.453 14.461 8 14.571 8c.34 0 4.223.717 4.601 1.066.101.142 3.389 3.187 4.161 3.934H24c.99 0 1.809.725 1.967 1.672.913-.064 2.627-1.025 1.809-2.504 0 0-4.413-6.708-4.766-7.096S16.268 1 14 1z" fill="#967a44"></path></g><path fill="#f5ce85" d="M3.958 12.226L1 12V5h3z"></path></svg>