<svg viewBox="0 0 40 40" xmlns="http://www.w3.org/2000/svg"><path fill="#b0c1d4" d="M1.5 15.5h38v20h-38z"></path><path d="M39 16v19H2V16h37m1-1H1v21h39V15z" fill="#788b9c"></path><path d="M21 15c0-10.46 13-3.54 13-14" fill="none" stroke="#66798f" stroke-miterlimit="10" stroke-width="2"></path><path fill="#fff" d="M13 30h15v3H13zM29 30h3v3h-3zM33 30h3v3h-3zM9 30h3v3H9zM5 30h3v3H5zM29 26h7v3h-7zM25 26h3v3h-3zM21 26h3v3h-3zM17 26h3v3h-3zM13 26h3v3h-3zM5 26h7v3H5zM5 22h4v3H5zM14 22h3v3h-3zM18 22h3v3h-3zM22 22h3v3h-3zM26 22h3v3h-3zM30 22h6v3h-6zM33 18h3v3h-3zM29 18h3v3h-3zM25 18h3v3h-3zM21 18h3v3h-3zM17 18h3v3h-3zM13 18h3v3h-3zM9 18h3v3H9zM5 18h3v3H5zM10 22h3v3h-3z"></path></svg>