<svg viewBox="0 0 40 40" xmlns="http://www.w3.org/2000/svg"><circle cx="12" cy="5" r="3.5" fill="#f5ce85"></circle><path d="M12 2c1.654 0 3 1.346 3 3s-1.346 3-3 3-3-1.346-3-3 1.346-3 3-3m0-1a4 4 0 100 8 4 4 0 000-8z" fill="#967a44"></path><g><path d="M17.5 38.5c-1.103 0-2-.897-2-2V20.894l-3.563-5.137-2.617 1.814 2.224 3.206c.264.381.364.841.281 1.297s-.337.853-.718 1.116a1.736 1.736 0 01-2.413-.436l-2.707-3.902a2.73 2.73 0 01.687-3.795l5.32-3.69c.249-.173.535-.317.9-.455l6.921-2.308 2.111-5.916a1.793 1.793 0 012.285-1.084 1.79 1.79 0 011.083 2.284l-2.403 6.732c-.104.508-.413.863-.824 1l-4.472 1.491 3.276 4.724L32.36 9.857a2.004 2.004 0 012.783.502 2.003 2.003 0 01-.502 2.784L19.5 23.657V36.5c0 1.103-.897 2-2 2z" fill="#8bb7f0"></path><path d="M23.609 2a1.288 1.288 0 011.213 1.721l-2.403 6.733-.025.071-.014.074a.708.708 0 01-.471.548l-3.84 1.28-1.266.422.761 1.097 2.611 3.764.57.822.822-.571 11.078-7.693a1.5 1.5 0 011.71 2.465L19.43 23.098l-.43.298V36.5c0 .827-.673 1.5-1.5 1.5s-1.5-.673-1.5-1.5V20.737l-.178-.257-3.189-4.598-.57-.822-.822.57-1.795 1.245-.822.57.57.822 1.939 2.795c.188.271.259.599.2.923-.059.324-.24.606-.511.794a1.235 1.235 0 01-1.718-.31l-1.939-2.795-.768-1.107a2.217 2.217 0 01-.362-1.666 2.214 2.214 0 01.922-1.434l1.02-.707 4.3-2.983c.216-.15.467-.276.791-.397l.011-.004 6.662-2.221.462-.154.164-.459 2.029-5.687c.183-.511.67-.855 1.213-.855m0-1a2.29 2.29 0 00-2.155 1.519l-2.029 5.687-6.708 2.236v.001c-.349.13-.69.29-1.01.512l-4.3 2.983-1.02.707a3.227 3.227 0 00-.812 4.491l.768 1.107 1.939 2.795a2.234 2.234 0 103.671-2.546l-1.939-2.795 1.795-1.245L15 21.05V36.5a2.5 2.5 0 105 0V23.919l14.926-10.365a2.5 2.5 0 10-2.852-4.107L20.996 17.14l-2.611-3.764 3.84-1.28a1.712 1.712 0 001.137-1.306l2.403-6.733A2.287 2.287 0 0023.609 1z" fill="#4e7ab5"></path></g></svg>