<svg viewBox="0 0 40 40" xmlns="http://www.w3.org/2000/svg"><path fill="#dcd5f2" d="M4.5 30.5h24.786v2H4.5z"></path><path d="M28.786 31v1H5v-1h23.786m1-1H4v3h25.786v-3z" fill="#8b75a1"></path><path d="M11.496 30.497c-1.035-.028-3.554-.269-5.14-1.854-1.579-1.579-1.821-4.102-1.852-5.141 1.035.028 3.554.269 5.14 1.854 1.579 1.58 1.821 4.102 1.852 5.141z" fill="#dcd5f2"></path><path d="M5.034 24.033c1.14.094 3.022.443 4.256 1.677 1.231 1.231 1.58 3.118 1.675 4.257-1.14-.094-3.022-.443-4.256-1.677-1.231-1.231-1.58-3.118-1.675-4.257M4.271 23c-.17 0-.266.005-.266.005s-.209 3.786 1.997 5.992C7.858 30.852 10.829 31 11.729 31c.17 0 .266-.005.266-.005s.209-3.786-1.997-5.992C8.142 23.148 5.171 23 4.271 23z" fill="#8b75a1"></path><path fill="#8bb7f0" d="M11.5 25.5h24v7h-24z"></path><path d="M35 26v6H12v-6h23m1-1H11v8h25v-8z" fill="#4e7ab5"></path><path fill="#dcd5f2" d="M4.5 14.5h24.786v2H4.5z"></path><path d="M28.786 15v1H5v-1h23.786m1-1H4v3h25.786v-3z" fill="#8b75a1"></path><path d="M11.496 14.497c-1.035-.028-3.554-.269-5.14-1.854-1.579-1.579-1.821-4.102-1.852-5.141 1.035.028 3.554.269 5.14 1.854 1.579 1.58 1.821 4.102 1.852 5.141z" fill="#dcd5f2"></path><path d="M5.034 8.033c1.141.094 3.022.443 4.256 1.677 1.231 1.231 1.58 3.118 1.675 4.257-1.14-.094-3.022-.443-4.256-1.677-1.231-1.231-1.58-3.118-1.675-4.257M4.271 7c-.17 0-.266.005-.266.005s-.209 3.786 1.997 5.992C7.858 14.852 10.829 15 11.729 15c.17 0 .266-.005.266-.005s.209-3.786-1.997-5.992C8.142 7.148 5.171 7 4.271 7z" fill="#8b75a1"></path><g><path fill="#8bb7f0" d="M11.5 9.5h24v7h-24z"></path><path d="M35 10v6H12v-6h23m1-1H11v8h25V9z" fill="#4e7ab5"></path></g><g><path d="M35.5 38.5v-3h-6v3h-3v-3h-22v3h-3V6c0-.827.673-1.5 1.5-1.5s1.5.673 1.5 1.5v10.5h22V6c0-.827.673-1.5 1.5-1.5s1.5.673 1.5 1.5v2.5h6V6c0-.827.673-1.5 1.5-1.5s1.5.673 1.5 1.5v32.5h-3zm-6-6h6v-5h-6v5zm-25 0h22v-13h-22v13zm25-8h6v-5h-6v5zm0-8h6v-5h-6v5z" fill="#f5ce85"></path><path d="M37 5c.551 0 1 .449 1 1v32h-2v-3h-7v3h-2v-3H4v3H2V6c0-.551.449-1 1-1s1 .449 1 1v11h23V6c0-.551.449-1 1-1s1 .449 1 1v3h7V6c0-.551.449-1 1-1m-8 12h7v-6h-7v6m0 8h7v-6h-7v6M4 33h23V19H4v14m25 0h7v-6h-7v6m8-29a2 2 0 00-2 2v2h-5V6a2 2 0 10-4 0v10H5V6a2 2 0 10-4 0v33h4v-3h21v3h4v-3h5v3h4V6a2 2 0 00-2-2zm-7 12v-4h5v4h-5zm0 8v-4h5v4h-5zM5 32V20h21v12H5zm25 0v-4h5v4h-5z" fill="#967a44"></path></g><g><circle cx="37" cy="3" r="1.5" fill="#f5ce85"></circle><path d="M37 2c.551 0 1 .449 1 1s-.449 1-1 1-1-.449-1-1 .449-1 1-1m0-1a2 2 0 10-.001 3.999A2 2 0 0037 1z" fill="#967a44"></path></g><g><circle cx="28" cy="3" r="1.5" fill="#f5ce85"></circle><path d="M28 2c.551 0 1 .449 1 1s-.449 1-1 1-1-.449-1-1 .449-1 1-1m0-1a2 2 0 10-.001 3.999A2 2 0 0028 1z" fill="#967a44"></path></g><g><circle cx="3" cy="3" r="1.5" fill="#f5ce85"></circle><path d="M3 2c.551 0 1 .449 1 1s-.449 1-1 1-1-.449-1-1 .449-1 1-1m0-1a2 2 0 10-.001 3.999A2 2 0 003 1z" fill="#967a44"></path></g></svg>