<svg viewBox="0 0 40 40" xmlns="http://www.w3.org/2000/svg"><path d="M8 38.5A2.503 2.503 0 015.5 36V4c0-1.378 1.122-2.5 2.5-2.5h24c1.378 0 2.5 1.122 2.5 2.5v32c0 1.378-1.122 2.5-2.5 2.5H8z" fill="#b0c1d4"></path><path d="M32 2c1.103 0 2 .897 2 2v32c0 1.103-.897 2-2 2H8c-1.103 0-2-.897-2-2V4c0-1.103.897-2 2-2h24m0-1H8a3 3 0 00-3 3v32a3 3 0 003 3h24a3 3 0 003-3V4a3 3 0 00-3-3z" fill="#66798f"></path><path fill="#f2faff" d="M8.5 4.5h23v28h-23z"></path><path d="M31 5v27H9V5h22m1-1H8v29h24V4z" fill="#66798f"></path><path fill="none" stroke="#66798f" stroke-miterlimit="10" d="M15 35.5h10M13 9.5h14"></path><path fill="none" stroke="#aab8c4" stroke-miterlimit="10" d="M13 14.5h14M13 17.5h11M13 20.5h14M13 23.5h11M13 26.5h14"></path></svg>