<svg viewBox="0 0 40 40" xmlns="http://www.w3.org/2000/svg"><path d="M9.21 36.811l.44-1.766c.66-.269.877-1.201 1.071-2.038.148-.636.316-1.356.62-1.642C13.878 28.989 16.5 26.533 16.5 20c0-1.072-.009-2.25-.017-3.433a517.155 517.155 0 01-.017-2.964h7.066c-.002.849-.009 1.813-.016 2.796-.007 1.237-.016 2.502-.016 3.601 0 6.529 2.622 8.987 5.158 11.365.305.286.472 1.006.62 1.642.194.837.411 1.77 1.071 2.038l.44 1.766H9.21z" fill="#b6c9d6"></path><path d="M23.032 14.103c-.003.718-.009 1.499-.014 2.292A521.139 521.139 0 0023 20c0 6.745 2.702 9.279 5.316 11.729.194.182.363.909.475 1.391.186.799.423 1.821 1.129 2.271l.23.919H9.85l.23-.919c.706-.45.943-1.472 1.129-2.271.105-.452.281-1.209.475-1.39C14.297 29.282 17 26.75 17 20c0-1.073-.009-2.253-.017-3.436a720.71 720.71 0 01-.015-2.46h6.064m1.002-1.001h-8.069C15.966 15.276 16 17.852 16 20c0 6.291-2.421 8.584-5 11-.922.864-.683 3.621-1.759 3.621l-.672 2.69h22.862l-.672-2.69c-1.077 0-.836-2.755-1.759-3.621-2.578-2.417-5-4.711-5-11 0-2.148.034-4.931.034-6.897z" fill="#788b9c"></path><path d="M5.5 38.5V37c0-1.93 1.57-3.5 3.5-3.5h22c1.93 0 3.5 1.57 3.5 3.5v1.5h-29z" fill="#b6c9d6"></path><path d="M31 34c1.654 0 3 1.346 3 3v1H6v-1c0-1.654 1.346-3 3-3h22m0-1H9c-2.2 0-4 1.8-4 4v2h30v-2c0-2.2-1.8-4-4-4z" fill="#788b9c"></path><path d="M10 33.5c-.827 0-1.5-.673-1.5-1.5s.673-1.5 1.5-1.5h20c.827 0 1.5.673 1.5 1.5s-.673 1.5-1.5 1.5H10z" fill="#ffeea3"></path><path d="M30 31c.551 0 1 .449 1 1s-.449 1-1 1H10c-.551 0-1-.449-1-1s.449-1 1-1h20m0-1H10c-1.1 0-2 .9-2 2s.9 2 2 2h20c1.1 0 2-.9 2-2s-.9-2-2-2z" fill="#ba9b48"></path><g><path fill="#ffeea3" d="M18.5 7.5v-2h-2v-3h2v-2h3v2h2v3h-2v2z"></path><path d="M21 1v2h2v2h-2v2h-2V5h-2V3h2V1h2m1-1h-4v2h-2v4h2v2h4V6h2V2h-2V0z" fill="#ba9b48"></path><g><path fill="#b6c9d6" d="M16.391 18.5l-2.75-11h12.718l-2.75 11z"></path><path d="M25.719 8l-2.5 10h-6.438l-2.5-10h11.438M27 7H13l3 12h8l3-12z" fill="#788b9c"></path></g></g><g><path d="M15 21.5c-.827 0-1.5-.673-1.5-1.5s.673-1.5 1.5-1.5h10c.827 0 1.5.673 1.5 1.5s-.673 1.5-1.5 1.5H15z" fill="#ffeea3"></path><path d="M25 19c.551 0 1 .449 1 1s-.449 1-1 1H15c-.551 0-1-.449-1-1s.449-1 1-1h10m0-1H15c-1.1 0-2 .9-2 2s.9 2 2 2h10c1.1 0 2-.9 2-2s-.9-2-2-2z" fill="#ba9b48"></path></g></svg>