<svg viewBox="0 0 40 40" xmlns="http://www.w3.org/2000/svg"><path d="M19.991 38.5C9.889 38.5 1.77 30.585 1.507 20.481c-.129-4.939 1.674-9.634 5.076-13.218A18.38 18.38 0 0120.009 1.5c10.103 0 18.222 7.915 18.484 18.019.129 4.939-1.674 9.634-5.076 13.218A18.38 18.38 0 0119.991 38.5z" fill="#ffeea3"></path><path d="M20.011 1v1c9.828 0 17.727 7.701 17.983 17.532.258 9.922-7.604 18.204-17.526 18.462-.159.004-.319.006-.477.006-9.829 0-17.729-7.701-17.984-17.532A17.884 17.884 0 016.946 7.607 17.88 17.88 0 0120.009 2l.002-1m-.002 0c-.167 0-.336.002-.503.007C9.016 1.279.734 10.004 1.007 20.494 1.275 30.816 9.726 39 19.991 39c.167 0 .336-.002.503-.007 10.49-.273 18.772-8.998 18.499-19.487C38.725 9.184 30.274.999 20.009 1z" fill="#c29653"></path><path d="M20 31.5c-3.123 0-6.353-3.375-7.32-4.473.771-.739 2.826-2.527 4.653-2.527.789 0 1.573.635 1.994.976.285.231.442.358.672.358.23-.005.371-.12.65-.347.425-.345 1.216-.987 2.018-.987 1.885 0 3.9 1.783 4.654 2.521C26.347 28.115 23.082 31.5 20 31.5z" fill="#f78f8f"></path><path d="M22.667 25c1.389 0 3.001 1.179 3.96 2.048C25.211 28.562 22.422 31 20 31c-2.642 0-5.428-2.659-6.621-3.945.977-.872 2.604-2.055 3.954-2.055.611 0 1.305.562 1.679.863.325.262.581.47 1.009.47h.001c.39-.009.635-.207.944-.458.376-.306 1.077-.875 1.701-.875m0-1c-1.333 0-2.487 1.329-2.667 1.333h-.001c-.191 0-1.335-1.333-2.666-1.333C14.792 24 12 27 12 27s4 5 8 5c3.945 0 8-5 8-5s-2.712-3-5.333-3z" fill="#c74343"></path><g fill="#c74343"><path d="M20 27.5c-2.782 0-5.591-.498-6.982-.786.933-.837 2.712-2.214 4.315-2.214.789 0 1.573.635 1.994.976.285.231.442.358.672.358.23-.005.371-.12.65-.347.425-.345 1.216-.987 2.018-.987 1.655 0 3.411 1.375 4.325 2.21-1.398.287-4.239.79-6.992.79z"></path><path d="M22.667 25c1.069 0 2.27.698 3.204 1.416-1.509.271-3.719.584-5.871.584-2.167 0-4.357-.309-5.855-.578.945-.721 2.148-1.422 3.188-1.422.611 0 1.305.562 1.679.863.325.262.581.47 1.009.47h.001c.39-.009.635-.207.944-.458.376-.306 1.077-.875 1.701-.875m0-1c-1.333 0-2.487 1.329-2.667 1.333h-.001c-.191 0-1.335-1.333-2.666-1.333C14.792 24 12 27 12 27s4 1 8 1c3.945 0 8-1 8-1s-2.712-3-5.333-3z"></path></g><path d="M31 14.5s-1.5 2-4 2-4-2-4-2M17 14.5s-1.5 2-4 2-4-2-4-2" fill="none" stroke="#c29653" stroke-miterlimit="10"></path></svg>