<svg viewBox="0 0 40 40" xmlns="http://www.w3.org/2000/svg"><path d="M37 11v1c-.663 0-1.3.2-1.582 1.348l-2.13 12.778a2.84 2.84 0 01-2.802 2.374H9.513a2.84 2.84 0 01-2.802-2.374l-2.13-12.778C4.3 12.2 3.663 12 3 12v-1h34z" fill="#bae0bd"></path><path d="M5.863 21.036l.866 5.196A2.714 2.714 0 009.407 28.5h21.187a2.713 2.713 0 002.677-2.268l.866-5.196H5.863z" fill="#87c98c"></path><path d="M39 11.5h-2.113a1.5 1.5 0 00-1.481 1.263l-2.109 13.21a3 3 0 01-2.962 2.527H9.666a3 3 0 01-2.962-2.527l-2.109-13.21A1.502 1.502 0 003.113 11.5H1" fill="none" stroke="#5e9c76" stroke-miterlimit="10"></path><path d="M4.501 38.5a.996.996 0 01-.795-.393.995.995 0 01-.171-.869l1.6-5.894A2.508 2.508 0 017.548 29.5h24.904c1.125 0 2.117.759 2.413 1.845l1.6 5.894a.992.992 0 01-.171.869.995.995 0 01-.795.393H4.501z" fill="#f78f8f"></path><path d="M32.452 30c.901 0 1.694.607 1.93 1.476l1.599 5.893a.494.494 0 01-.085.435.491.491 0 01-.397.196H4.501a.491.491 0 01-.397-.196.49.49 0 01-.085-.435l1.599-5.893A2.004 2.004 0 017.548 30h24.904m0-1H7.548a2.999 2.999 0 00-2.895 2.214l-1.599 5.893A1.5 1.5 0 004.501 39h30.998a1.5 1.5 0 001.448-1.893l-1.599-5.893A3.001 3.001 0 0032.452 29z" fill="#c74343"></path><circle cx="20" cy="34" r="3" fill="#fff"></circle><path fill="none" stroke="#c74343" stroke-linecap="round" stroke-miterlimit="10" d="M19 35l2-2M2.5 10.5h35"></path><path d="M5.5 10.5v-.348c.518-.743 3.707-4.949 10.357-6.25l.7-.137-1-1.665c-.107-.179-.039-.339-.005-.399s.137-.201.346-.201h8.203c.209 0 .312.141.346.201s.103.221-.005.4l-1 1.664.7.137c6.671 1.306 9.843 5.506 10.357 6.249v.349H5.5z" fill="#f78f8f"></path><path d="M23.92 2l-.538.897-.734 1.223 1.399.274c5.619 1.099 8.691 4.33 9.714 5.607H6.24c1.024-1.279 4.096-4.508 9.713-5.607l1.399-.274-.733-1.222L16.08 2h7.84m.182-1h-8.204a.897.897 0 00-.769 1.358l.632 1.054C8.172 4.897 5 10 5 10v1h30v-1s-3.172-5.103-10.761-6.588l.632-1.054A.897.897 0 0024.102 1z" fill="#c74343"></path><circle cx="20" cy="20" r="5" fill="#87c98c"></circle><circle cx="26" cy="20" r="4" fill="#87c98c"></circle><circle cx="14" cy="20" r="4" fill="#87c98c"></circle><circle cx="30" cy="21" r="3" fill="#87c98c"></circle><circle cx="10" cy="21" r="3" fill="#87c98c"></circle></svg>