<svg viewBox="0 0 40 40" xmlns="http://www.w3.org/2000/svg"><path d="M17.418 22.582C13.311 26.689 16.198 38.5 7.624 38.5c-4.023 0-6.124-3.399-6.124-6.818 0-8.247 6.818-11.095 6.818-19.091 0-5.783-4.091-9.545-4.091-9.545" fill="none" stroke="#788b9c" stroke-linecap="round" stroke-linejoin="round" stroke-miterlimit="10"></path><path fill="#f78f8f" d="M21.091 2.396l17.382-.869-.869 17.382-19.99 3.477z"></path><path d="M37.946 2.054l-.822 16.431-18.896 3.286 3.286-18.896 16.432-.821M39 1l-18.333.917L17 23l21.083-3.667L39 1z" fill="#c74343"></path><path fill="none" stroke="#c74343" stroke-linecap="round" stroke-miterlimit="10" d="M21.674 3.161l15.165 15.165M18.33 21.67L37.637 2.363"></path></svg>