<svg viewBox="0 0 40 40" xmlns="http://www.w3.org/2000/svg"><path d="M9 17.5a1.501 1.501 0 01-1.061-2.56l7-7c.284-.284.661-.44 1.061-.44s.777.156 1.061.439a1.501 1.501 0 010 2.121l-7 7c-.284.284-.661.44-1.061.44z" fill="#ffeea3"></path><path d="M16 8a1 1 0 01.707 1.707l-7 7c-.189.189-.44.293-.707.293s-.518-.104-.707-.293a1 1 0 010-1.414l7-7A.993.993 0 0116 8m0-1c-.512 0-1.023.195-1.414.586l-7 7a2 2 0 102.828 2.828l7-7A2 2 0 0016 7z" fill="#ba9b48"></path><path d="M20.999 28.5c-.35 0-.689-.124-.959-.348l-5.473-4.56-5.32.887a1.492 1.492 0 01-1.727-1.232 1.502 1.502 0 011.232-1.727l6-1a1.495 1.495 0 011.207.328l6 5a1.5 1.5 0 01-.96 2.652z" fill="#ffeea3"></path><path d="M15.004 20.999a1 1 0 01.636.233l6 5A1.001 1.001 0 0120.999 28a.987.987 0 01-.639-.232l-5.296-4.412-.352-.293-.452.075-5.094.849a.995.995 0 01-1.152-.823 1.001 1.001 0 01.822-1.151l6.007-1.001a.963.963 0 01.161-.013m0-1c-.111 0-.222.009-.333.029l-6 1a2.001 2.001 0 00-1.644 2.302 1.994 1.994 0 002.303 1.642l5.095-.849 5.296 4.412a1.993 1.993 0 002.815-.255 1.999 1.999 0 00-.256-2.816l-6-5a1.995 1.995 0 00-1.276-.465z" fill="#ba9b48"></path><path d="M14.671 20.027l-6 1c-.27.045-.519.143-.737.281l-.164 3.263c.425.333.979.498 1.56.402l5.095-.849.01.008 1.837-3.675a1.992 1.992 0 00-1.601-.43z" fill="#66798f"></path><path fill="none" stroke="#000" stroke-miterlimit="10" d="M16.79.957l-3.675 5.428 10.857 6.786 6.785-9.5M23.972 2.314l-5.429 8.143"></path><path d="M3.5 23.661V23l.989-6.211C4.741 15.271 5.862 14.5 7.82 14.5h2.955l-1.27 8.426c-.148.89-1.942 1.609-3.135 1.885l-2.87-1.15z" fill="#ffb5d2"></path><path d="M10.194 15l-1.181 7.836c-.083.5-1.388 1.144-2.605 1.452L4 23.323v-.245l.981-6.204C5.115 16.07 5.555 15 7.821 15h2.373m1.162-1H7.82c-2.178 0-3.525.9-3.826 2.711L3 23v1l3.328 1.332S9.729 24.625 10 23l1.356-9z" fill="#ea4c89"></path><circle cx="7" cy="10" r="2.5" fill="#ffeea3"></circle><path d="M7 8c1.103 0 2 .897 2 2s-.897 2-2 2-2-.897-2-2 .897-2 2-2m0-1c-1.658 0-3 1.342-3 3s1.342 3 3 3a3 3 0 100-6z" fill="#ba9b48"></path><path d="M9.107 32c-.55 0-1.062-.297-1.336-.774l-4.074-6.795a2.955 2.955 0 01-.186-.931h5.847c-.089.173-.242.358-.383.526-.116.14-.228.274-.314.403l-.145.215 1.89 4.986c.237.428.29.841.183 1.237a1.524 1.524 0 01-.721.93 1.516 1.516 0 01-.761.203z" fill="#839cb2"></path><path d="M8.355 24a4.008 4.008 0 00-.109.151l-.288.429.183.483 1.798 4.745.028.074.039.068c.137.24.173.519.1.786-.073.267-.245.49-.486.627-.158.091-.33.137-.512.137-.371 0-.717-.2-.912-.54L4.17 24.247A2.928 2.928 0 014.091 24h4.264M10 23H3c0 .719.049 1.136.269 1.688l4.07 6.787a2.034 2.034 0 002.778.757 2.036 2.036 0 00.758-2.778l-1.798-4.745c.257-.382.759-.816.84-1.299L10 23z" fill="#66798f"></path><g><path d="M8.835 36.499c-2.468 0-4.077-.494-4.305-1.323-.532-1.939 5.444-6.222 14.871-9.266 4.752-1.531 9.404-2.41 12.764-2.41 2.468 0 4.077.494 4.304 1.322.533 1.94-5.442 6.222-14.869 9.265-4.753 1.534-9.405 2.412-12.765 2.412z" fill="#99c99e"></path><path d="M32.165 24c2.816 0 3.731.625 3.822.956.339 1.235-4.486 5.409-14.541 8.655C16.741 35.129 12.145 36 8.835 36c-2.816 0-3.732-.626-3.823-.956-.339-1.235 4.486-5.41 14.542-8.657C24.26 24.87 28.856 24 32.165 24m0-1c-3.284 0-7.926.826-12.917 2.435-9.087 2.934-15.892 7.354-15.2 9.874C4.361 36.444 6.142 37 8.835 37c3.284 0 7.926-.826 12.918-2.437 9.087-2.933 15.891-7.354 15.198-9.872C36.64 23.556 34.859 23 32.165 23z" fill="#5e9c76"></path></g><path d="M1 39h38v-6.123c-1.308-.263-2.852-.877-4-.877-1.458 0-3.563 1-5 1-1.438 0-3.542-1-5-1s-3.563 1-5 1c-1.438 0-3.542-1-5-1s-3.563 1-5 1c-1.438 0-3.542-1-5-1-1.148 0-2.692.614-4 .877V39z" fill="#8bb7f0"></path><g><path d="M35 32c-1.458 0-3.563 1-5 1-1.438 0-3.542-1-5-1s-3.563 1-5 1c-1.438 0-3.542-1-5-1s-3.563 1-5 1c-1.438 0-3.542-1-5-1-1.148 0-2.692.614-4 .877V33.9c.574-.103 1.17-.271 1.754-.435C3.566 33.237 4.406 33 5 33s1.434.237 2.246.465c.934.263 1.9.535 2.754.535s1.82-.272 2.754-.535C13.566 33.237 14.406 33 15 33s1.434.237 2.246.465c.934.263 1.9.535 2.754.535s1.82-.272 2.754-.535C23.566 33.237 24.406 33 25 33s1.434.237 2.246.465c.934.263 1.9.535 2.754.535s1.82-.272 2.754-.535C33.566 33.237 34.406 33 35 33s1.434.237 2.246.465c.584.165 1.18.332 1.754.435v-1.023c-1.308-.263-2.852-.877-4-.877z" fill="#4e7ab5"></path></g><g><path d="M7.997 17.5a1.505 1.505 0 01-1.481-1.287 1.5 1.5 0 011.271-1.697l6.76-.966 5.782-2.892a1.494 1.494 0 012.013.671c.18.358.208.766.082 1.146-.127.38-.395.688-.753.867l-6 3c-.145.072-.299.12-.458.143l-7 1a1.58 1.58 0 01-.216.015z" fill="#ffeea3"></path><path d="M20.999 10.999c.382 0 .725.212.896.554a.99.99 0 01.054.764.992.992 0 01-.502.578l-5.998 2.999c-.097.048-.2.081-.307.096l-6.999 1a1.004 1.004 0 01-1.133-.848 1 1 0 01.848-1.131l6.679-.954.161-.023.145-.073 5.71-2.856a.995.995 0 01.446-.106m0-1c-.301 0-.606.068-.893.212l-5.71 2.855-6.679.954a1.999 1.999 0 10.566 3.959l7-1a2.01 2.01 0 00.611-.19l6-3a2 2 0 00-.895-3.79z" fill="#ba9b48"></path></g></svg>