<svg viewBox="0 0 40 40" xmlns="http://www.w3.org/2000/svg"><path d="M16.227 38.5c-4.146 0-7.903-1.474-10.578-4.149C-.79 27.912.409 16.236 8.322 8.322 12.658 3.987 18.29 1.5 23.773 1.5c4.146 0 7.902 1.474 10.578 4.149 6.438 6.439 5.239 18.115-2.674 26.029-4.335 4.335-9.966 6.822-15.45 6.822.001 0 .001 0 0 0z" fill="#a6714e"></path><path d="M23.773 2c4.012 0 7.643 1.421 10.224 4.002C36.995 9 38.385 13.264 37.91 18.01c-.482 4.821-2.821 9.549-6.586 13.314C27.081 35.567 21.579 38 16.227 38c-4.012 0-7.643-1.421-10.224-4.002C3.005 31 1.615 26.736 2.09 21.99c.482-4.821 2.821-9.549 6.586-13.314C12.919 4.433 18.421 2 23.773 2m0-1C18.38 1 12.56 3.378 7.969 7.969-.152 16.09-1.349 28.06 5.295 34.705 8.184 37.593 12.079 39 16.227 39c5.394 0 11.213-2.378 15.804-6.969 8.121-8.121 9.318-20.091 2.674-26.736C31.816 2.407 27.921 1 23.773 1z" fill="#7a4f34"></path><ellipse transform="rotate(-45.001 20 20)" cx="20" cy="20" rx="17.828" ry="13.933" fill="#bae0bd"/><ellipse transform="rotate(-45.001 20 20)" cx="20" cy="20" rx="5.773" ry="4.083" fill="#fff7d1"/><path d="M27.169 14.402c-.434.434-2.708 2.004-3.141 1.571s1.137-2.708 1.571-3.141a1.11 1.11 0 111.57 1.57zM24.38 25.909c-.422-.422-1.952-2.636-1.529-3.059.422-.422 2.636 1.107 3.059 1.529a1.08 1.08 0 11-1.53 1.53zM15.536 13.959c.436.436 2.013 2.719 1.577 3.155-.436.436-2.719-1.142-3.155-1.577a1.116 1.116 0 011.578-1.578zM23.531 11.871c-.077.611-.915 3.254-1.526 3.177s-.763-2.847-.685-3.457a1.115 1.115 0 112.211.28zM19.373 12.047c.199.58.613 3.315.032 3.514-.58.199-1.935-2.212-2.134-2.792a1.111 1.111 0 112.102-.722zM28.075 16.539c-.603.109-3.19 1.079-3.081 1.683.109.603 2.871.611 3.474.503a1.11 1.11 0 10-.393-2.186zM27.909 20.789c-.586-.201-3.349-.619-3.55-.033-.201.586 2.234 1.955 2.821 2.156a1.122 1.122 0 10.729-2.123zM12.831 25.598c.434-.434 2.708-2.004 3.141-1.571.434.434-1.137 2.708-1.571 3.141a1.11 1.11 0 11-1.57-1.57zM16.469 28.129c.077-.611.915-3.254 1.526-3.177.611.077.763 2.847.685 3.457a1.115 1.115 0 11-2.211-.28zM20.627 27.953c-.199-.58-.613-3.315-.032-3.514s1.935 2.212 2.134 2.792a1.111 1.111 0 11-2.102.722zM11.925 23.461c.603-.109 3.19-1.079 3.081-1.683s-2.871-.611-3.474-.503a1.11 1.11 0 10.393 2.186zM12.091 19.211c.586.201 3.349.619 3.55.033.201-.586-2.234-1.955-2.821-2.156a1.122 1.122 0 10-.729 2.123z" fill="#36404d"></path></svg>