<svg viewBox="0 0 40 40" xmlns="http://www.w3.org/2000/svg"><path d="M34.315 14.144c-1.317-2.563-4.093-3.81-6.2-2.785-1.756.704-3.292 1.229-5.284-.563C20.158 8.39 16.375 6 11 6c-5.621 0-4.406 5.066-4.406 10.688 0 5.621 3.938 3.775 4.938 9.313 2.677 0 4.871-2 10.469-2 3.484 0 3.578-4.003 5.52-4.003.637 0 .969.127 1.612.397 1.217.665 2.584.815 3.752.247 2.107-1.026 2.748-3.935 1.43-6.498z" fill="#7a4f34"></path><path d="M7 34l-2-6v-6H2v6l2 5c1.547 1.094 3 1 3 1z" fill="#c74343"></path><path d="M10.361 7.497C9.233 6.369 4.478 13.758 1 16.189V21c0 4.623 1.934 7 4 7 0-2.248 2.959-4.359 5-5 4.032-4.77 4.309-11.555.361-15.503z" fill="#7a4f34"></path><path d="M18 32l-5-3v-2h-3v3l6.088 3.669C16.751 34.485 18 32 18 32z" fill="#c74343"></path><circle cx="11" cy="16" r="10" fill="#7a4f34"></circle><path d="M30.857 19.828c-.883-.696 1.59-1.357 2.714-1.357 1.124 0 5.429 12.447 5.429 13.571s-.869 1.421-1.357 0c-.9-2.62-4.39-10.327-6.786-12.214z" fill="#c74343"></path><path d="M12.516 28.484c-2.189-.148-3.746-1.309-4.021-3.041l-.05-.303-.293-.094C4.174 23.771 1.5 20.136 1.5 16c0-5.238 4.262-9.5 9.5-9.5s9.5 4.262 9.5 9.5a9.528 9.528 0 01-4.787 8.241l-.08.047c-.362.203-.75.386-1.152.544l-.053.021-.046.031c-1.149.781-1.762 1.962-1.866 3.6z" fill="#d6aa70"></path><path d="M11 7c4.963 0 9 4.037 9 9a9.028 9.028 0 01-4.535 7.807l-.036.023-.013.007a8.958 8.958 0 01-1.12.531l-.103.041-.092.062c-1.141.775-1.822 1.937-2.031 3.461-1.449-.215-2.828-.967-3.082-2.567l-.097-.608-.586-.187C4.534 23.362 2 19.918 2 16c0-4.963 4.037-9 9-9m0-1C5.477 6 1 10.477 1 16c0 4.458 2.97 8.232 7 9.522C8.354 27.75 10.437 29 13 29c0-1.702.524-2.928 1.663-3.702.43-.17.846-.366 1.245-.591l.041-.016a.192.192 0 00.013-.017C18.97 22.95 21 19.715 21 16c0-5.523-4.477-10-10-10z" fill="#7a4f34"></path><path d="M31.329 20.492c-.694 0-1.572-.266-2.611-.789-.744-.541-1.411-1.419-1.813-2.433-.852-2.143-.339-4.544 1.143-5.355.453-.225 1.201-.415 1.649-.416 1.616 0 3.291 1.154 4.175 2.872.66 1.284.81 2.707.411 3.902-.294.883-.853 1.546-1.616 1.917-.41.2-.859.301-1.333.301h-.005z" fill="#d6aa70"></path><path d="M29.7 11l.001.811V12c1.429 0 2.926 1.045 3.725 2.601.599 1.165.738 2.447.382 3.516-.175.525-.553 1.233-1.361 1.626a2.53 2.53 0 01-1.118.25c-.6 0-1.378-.235-2.315-.699-.706-.526-1.289-1.307-1.647-2.207-.761-1.916-.349-4.038.883-4.713.399-.198 1.074-.373 1.449-.373L29.7 11m.001 0h-.006c-.545.001-1.367.219-1.888.478-1.697.928-2.333 3.546-1.368 5.977.459 1.155 1.199 2.082 2.054 2.695 1.174.591 2.098.841 2.836.842h.002c.536 0 1.063-.112 1.554-.351 2.107-1.025 2.748-3.934 1.431-6.498C33.311 12.189 31.459 11 29.701 11z" fill="#7a4f34"></path><circle cx="31.5" cy="16.5" r="1.5" fill="#36404d"></circle><path d="M4.5 32H7c1.1 0 2 .9 2 2H5c-.55 0-1-.45-1-1v-.5c0-.275.225-.5.5-.5z" fill="#c74343"></path><path d="M4.018 33.178A2.992 2.992 0 007 36c.346 0 .673-.07.982-.178A2.992 2.992 0 005 33c-.346 0-.673.07-.982.178z" fill="#c74343"></path><g><path d="M16.5 32H19c1.1 0 2 .9 2 2h-4c-.55 0-1-.45-1-1v-.5c0-.275.225-.5.5-.5z" fill="#c74343"></path></g><g><path d="M16.018 33.178A2.992 2.992 0 0019 36c.346 0 .673-.07.982-.178A2.992 2.992 0 0017 33c-.346 0-.673.07-.982.178z" fill="#c74343"></path></g></svg>