<svg viewBox="0 0 40 40" xmlns="http://www.w3.org/2000/svg"><path d="M31 34.5c-4.024 0-6.429-3.923-6.429-7.716v-.5h-9.143v.5c0 3.793-2.405 7.716-6.429 7.716-2.29 0-4.101-.656-5.381-1.951-2.132-2.156-2.12-5.403-2.119-5.54 0-2.065.965-3.717 1.987-5.467C4.477 19.849 5.5 18.097 5.5 16 5.5 8.422 12.411 1.521 20 1.521S34.5 8.422 34.5 16c0 2.097 1.023 3.849 2.013 5.542C37.535 23.292 38.5 24.943 38.5 27c.001.146.013 3.393-2.119 5.549C35.101 33.844 33.29 34.5 31 34.5z" fill="#b08159"></path><path d="M20 2.021c7.327 0 14 6.663 14 13.979 0 2.232 1.058 4.043 2.081 5.795.987 1.689 1.919 3.284 1.919 5.219.001.129.013 3.173-1.974 5.183C34.843 33.393 33.152 34 31 34c-3.711 0-5.929-3.669-5.929-7.216v-1H14.929v1C14.929 30.331 12.711 34 9 34c-2.152 0-3.843-.607-5.026-1.803C1.987 30.188 1.998 27.143 2 27c0-1.921.932-3.516 1.919-5.205C4.942 20.043 6 18.232 6 16 6 8.684 12.673 2.021 20 2.021m0-1C12.322 1.021 5 7.849 5 16c0 3.997-4 6.697-4 11 0 .051-.158 8 8 8 4.095 0 6.929-3.869 6.929-8.216h8.142C24.071 31.131 26.905 35 31 35c8.158 0 8-7.949 8-8 0-4.303-4-7.003-4-11 0-8.151-7.322-14.979-15-14.979z" fill="#a16a4a"></path><path d="M20 35.541c-4.756 0-10.5-5.939-10.5-13.315v-9.211C9.5 9.583 13.072 1.541 20 1.541c6.82 0 10.5 8.144 10.5 11.474v9.211c0 7.376-5.744 13.315-10.5 13.315z" fill="#f5ce85"></path><path d="M20 2.041c6.496 0 10 7.789 10 10.974v9.211c0 6.902-5.499 12.816-10 12.816s-10-5.914-10-12.816v-9.211C10 9.83 13.504 2.041 20 2.041m0-1c-7.183 0-11 8.271-11 11.974v9.211c0 7.632 6 13.816 11 13.816s11-6.184 11-13.816v-9.211c0-3.54-3.817-11.974-11-11.974z" fill="#a16a4a"></path><circle cx="14.501" cy="21.5" r="1" fill="#4b6477"></circle><path d="M14.501 21a.501.501 0 110 1.002.501.501 0 010-1.002m0-1a1.5 1.5 0 10-.002 3 1.5 1.5 0 00.002-3z" fill="#36404d"></path><circle cx="25.5" cy="21.5" r="1" fill="#4b6477"></circle><path d="M25.5 21a.5.5 0 110 1 .5.5 0 010-1m0-1a1.5 1.5 0 10-.001 2.999A1.5 1.5 0 0025.5 20z" fill="#36404d"></path><path d="M16.293 29.436s1.024-.926 3.707-.926 3.707.926 3.707.926M15 12.494c1.188 0 3.376.097 5-1.494 1.659 1.638 3.728 1.494 5 1.494M15 9.494c1.188 0 3.376.097 5-1.494 1.659 1.638 3.728 1.494 5 1.494M15 6.494c1.188 0 3.376.097 5-1.494 1.659 1.638 3.728 1.494 5 1.494" fill="none" stroke="#c29653"></path><g><path d="M20.001 38.488c-.398-.012-6.501-.315-6.501-6.488 0-5.215 3.627-6.247 5-6.45v2.017c-.965.206-3 1.041-3 4.434.012.869.436 2.5 1.958 2.5 1.565 0 2.02-1.627 2.042-2.487.001-.244.089-.514.5-.514s.499.27.5.496c.004.87.427 2.504 2 2.504 1.515 0 1.97-1.624 2-2.483 0-3.42-2.032-4.251-3-4.452V25.55c1.373.203 5 1.235 5 6.45 0 6.187-6.094 6.476-6.499 6.488z" fill="#b08159"></path><path d="M18 26.148v1.012c-1.366.418-3 1.732-3 4.853.019 1.439.797 2.987 2.458 2.987 1.695 0 2.505-1.542 2.541-2.975v-.002c.014 1.438.8 2.977 2.501 2.977 1.648 0 2.451-1.537 2.5-3 0-3.124-1.632-4.432-3-4.844v-1.007c1.488.363 4 1.605 4 5.851 0 5.746-5.78 5.981-5.977 5.988C19.777 37.982 14 37.781 14 32c0-4.248 2.514-5.489 4-5.852M21 25v3s3 0 3 4c0 0-.068 2-1.5 2-1.491 0-1.5-2-1.5-2s.021-1-1-1-1 1-1 1-.05 2-1.542 2C16.027 34 16 32 16 32c0-3.979 3-4 3-4v-3s-6 .116-6 7c0 6.825 7 6.988 7 6.988s7-.163 7-6.988c0-6.884-6-7-6-7z" fill="#a16a4a"></path></g><g><path d="M23.5 16.449c.799-.125 2.41-.557 3.693-2.038-.755 2.683-2.711 3.635-3.693 3.95v-1.912z" fill="#a16a4a"></path><path d="M25.715 16.242A5.017 5.017 0 0124 17.618v-.748a6.644 6.644 0 001.715-.628M28 12c-1.412 3.975-5 4-5 4v3s5-.723 5-7z" fill="#704e34"></path></g><g><path d="M16.5 18.361c-.981-.315-2.938-1.268-3.693-3.95 1.283 1.481 2.894 1.913 3.693 2.038v1.912z" fill="#a16a4a"></path><path d="M14.286 16.243a6.727 6.727 0 001.714.628v.747a5.016 5.016 0 01-1.714-1.375M12 12c0 6.277 5 7 5 7v-3s-3.588-.025-5-4z" fill="#704e34"></path></g></svg>