<svg viewBox="0 0 40 40" xmlns="http://www.w3.org/2000/svg"><path fill="#c2e0af" d="M6.5 37.5v-35h18.293l8.707 8.707V37.5z"></path><path d="M24.586 3L33 11.414V37H7V3h17.586M25 2H6v36h28V11l-9-9z" fill="#6c945a"></path><path fill="#fff" d="M24.5 11.5v-9h.293l8.707 8.707v.293z"></path><path d="M25 3.414L32.586 11H25V3.414M25 2h-1v10h10v-1l-9-9z" fill="#6c945a"></path><path d="M11.069 17.528h1.703v3.939h.039c.143-.364.273-.754.416-1.131l1.17-2.809h1.885l-1.976 3.81 2.002 4.953h-1.872l-1.274-3.627-.39.715v2.912h-1.703v-8.762zM22.392 23.223a41.073 41.073 0 01-.091-2.898h-.026c-.156.936-.39 2.015-.559 2.69l-.767 3.134h-1.196l-.728-3.081a35.335 35.335 0 01-.546-2.743h-.026c-.026.948-.091 2.054-.13 2.925l-.156 3.042h-1.456l.624-8.763h1.807l.702 3.173c.234 1.104.455 2.08.611 3.067h.039c.13-.975.325-1.963.546-3.067l.702-3.173h1.794l.533 8.763h-1.521l-.156-3.069zM24.706 25.29l2.782-6.24v-.039h-2.522v-1.482H29.4v1.262l-2.652 5.979v.039h2.639v1.482h-4.68V25.29z" fill="#588046"></path></svg>