<svg viewBox="0 0 40 40" xmlns="http://www.w3.org/2000/svg"><path d="M20 38.48c-1.556-.456-16.5-5.152-16.5-17.123V4.43c4.366-.67 15.382-2.714 16.501-2.922C21.112 1.713 32 3.71 36.5 4.428v16.929c0 11.971-14.944 16.667-16.5 17.123z" fill="#dbf2ff"></path><path d="M20.001 2.017C21.469 2.286 31.382 4.103 36 4.853v16.504c0 11.321-13.919 15.97-16.001 16.601C17.915 37.329 4 32.697 4 21.357V4.858c4.515-.713 14.526-2.567 16.001-2.841M20 1S7.25 3.375 3 4v17.357C3 34.462 20 39 20 39s17-4.538 17-17.643V4c-4.438-.687-17-3-17-3z" fill="#7496c4"></path><path d="M20.001 2.017H20v35.941c2.083-.632 16-5.281 16-16.601V4.853c-4.618-.75-14.531-2.567-15.999-2.836z" fill="#b5ddf5"></path><path d="M20.001 34.406C16.851 33.272 7.5 29.235 7.5 21.379V8.417c2.813-.524 6.092-1.365 8.751-2.047 1.538-.394 2.875-.737 3.749-.922 1.005.211 2.634.614 4.51 1.079 2.609.646 5.548 1.373 7.99 1.881V21.38c0 7.857-9.35 11.892-12.499 13.026z" fill="#f78f8f"></path><path d="M20.001 5.959c1.003.215 2.583.606 4.394 1.053 2.472.612 5.24 1.296 7.606 1.801v12.566c0 7.4-8.78 11.312-11.999 12.495C16.781 32.691 8 28.778 8 21.379V8.831c2.733-.53 5.834-1.325 8.372-1.976 1.475-.378 2.764-.709 3.629-.896M20 4.937C17.603 5.43 11.562 7.188 7 8v13.379c0 8.244 9.601 12.36 13.001 13.558C23.389 33.743 33 29.628 33 21.379V8c-4.313-.875-10.603-2.57-13-3.063z" fill="#c74343"></path><path d="M24.394 7.012c-1.811-.448-3.39-.839-4.393-1.054v27.915h.001C23.22 32.691 32 28.779 32 21.379V8.813c-2.366-.504-5.134-1.189-7.606-1.801z" fill="#f76d6d"></path><path fill="#fff" d="M12.5 10l2.5 3.5-2.5 3.5-2.5-3.5z"></path><path fill="#e1ebf2" d="M25.5 21l2.5 3.5-2.5 3.5-2.5-3.5z"></path><g fill="#fff"><path d="M32 8.81v4.51L10.39 27.64c-.89-1.08-1.6-2.3-2.02-3.67L31.45 8.69c.19.04.37.08.55.12zM10.451 28.398l.001.001z"></path></g><path d="M32 8.81v4.51l-12 7.95v-5l11.45-7.58c.19.04.37.08.55.12z" fill="#e1ebf2"></path></svg>