<svg viewBox="0 0 40 40" xmlns="http://www.w3.org/2000/svg"><path d="M12.376 30.5c.436-2.872-.3-4.61-1.143-6.602C10.421 21.978 9.5 19.8 9.5 16c0-8.017 5.318-10.021 7.604-10.511l.315-.067.068-.314c.423-1.934 2.083-2.949 3.012-3.375v3.691l.416.071c1.276.217 2.523.451 3.75.914l1.975 3.102.099.061c.031.02 3.023 1.872 4.628 4.356l-2.476 2.476a56.026 56.026 0 00-3.579-1.448l-.223-.082-.204.121c-.568.337-1.117.508-1.629.508-.854 0-1.652-.311-2.188-.853l-.146-.148-1.436-.002.024.522c.153 3.377 2.051 5.298 3.887 7.155 2.009 2.034 4.083 4.133 4.236 8.322H12.376z" fill="#b6c9d6"></path><path d="M20 2.566v3.278l.833.141c1.196.203 2.365.421 3.503.832l1.821 2.862.124.195.197.121c.029.018 2.661 1.644 4.244 3.868l-1.941 1.941a57.832 57.832 0 00-3.297-1.321l-.446-.163-.408.242c-.489.291-.951.438-1.373.438-.712 0-1.396-.263-1.831-.704l-.294-.297h-.418l-.38.001h-1.371l.048 1.045c.162 3.568 2.129 5.559 4.031 7.484 1.939 1.963 3.78 3.825 4.064 7.471H12.943c.278-2.687-.467-4.447-1.249-6.296C10.9 21.826 10 19.699 10 16c0-7.652 5.042-9.558 7.209-10.022l.63-.135.138-.629c.285-1.305 1.221-2.148 2.023-2.648M21 1s-3.333.951-4 4c-3.556.762-8 3.592-8 11 0 8 3.969 8.978 2.781 15h16.362c0-8.812-7.821-9.125-8.133-16l.705-.001C21.308 15.6 22.222 16 23.257 16c.703 0 1.351-.262 1.883-.578C27.408 16.253 29 17 29 17l3-3c-1.625-2.792-5-4.857-5-4.857L25 6c-1.375-.542-2.8-.796-4-1V1z" fill="#788b9c"></path><g><path d="M6.5 38.5V37c0-1.93 1.57-3.5 3.5-3.5h20c1.93 0 3.5 1.57 3.5 3.5v1.5h-27z" fill="#b6c9d6"></path><path d="M30 34c1.654 0 3 1.346 3 3v1H7v-1c0-1.654 1.346-3 3-3h20m0-1H10c-2.2 0-4 1.8-4 4v2h28v-2c0-2.2-1.8-4-4-4z" fill="#788b9c"></path><g><path d="M11 33.5c-.827 0-1.5-.673-1.5-1.5s.673-1.5 1.5-1.5h18c.827 0 1.5.673 1.5 1.5s-.673 1.5-1.5 1.5H11z" fill="#ffeea3"></path><path d="M29 31c.551 0 1 .449 1 1s-.449 1-1 1H11c-.551 0-1-.449-1-1s.449-1 1-1h18m0-1H11c-1.1 0-2 .9-2 2s.9 2 2 2h18c1.1 0 2-.9 2-2s-.9-2-2-2z" fill="#ba9b48"></path></g></g></svg>