<svg viewBox="0 0 40 40" xmlns="http://www.w3.org/2000/svg"><path d="M22.318 29.64c1.798-.484 7.229-1.941 8.006-2.103.099-.021.201-.031.305-.031.943 0 1.878.851 1.886 1.718l.001.061.286 1.117-9.133 2.107-1.351-2.869z" fill="#f5ce85"></path><path d="M30.629 28.007c.668 0 1.38.629 1.385 1.223l.001.122.03.118.144.561-8.241 1.902-.925-1.965c2.546-.684 6.755-1.806 7.401-1.94.067-.014.136-.021.205-.021m0-1c-.136 0-.272.013-.406.041-.955.198-8.612 2.264-8.612 2.264l1.777 3.776 10.025-2.314-.399-1.554c-.01-1.168-1.182-2.213-2.385-2.213z" fill="#967a44"></path><path d="M18.399 38.5c-.605 0-3.695-1.136-5.542-1.815-.977-.359-1.815-.667-2.26-.807a6.024 6.024 0 00-1.82-.283 6.407 6.407 0 00-2.981.756l-2.188-7.17c.916-.407 3.188-1.407 4.635-1.964 1.233-.474 2.233-.695 3.146-.695 1.076 0 1.94.305 3.034.691 1.626.574 3.648 1.288 7.282 1.288.883 0 1.547.247 1.977.734.515.585.615 1.446.537 2.055l-.096.747.726-.202c.063-.018 6.227-1.73 8.059-2.159.226-.053.566-.124.913-.124.735 0 1.218.302 1.52.95.179.385.189.835.029 1.268-.202.547-.659 1.017-1.255 1.289-1.149.495-14.45 5.441-15.716 5.441z" fill="#f5ce85"></path><path d="M11.387 27.022c.991 0 1.819.292 2.868.662 1.662.586 3.73 1.316 7.449 1.316.732 0 1.271.19 1.601.565.405.46.482 1.16.418 1.662l-.191 1.493 1.45-.403c.062-.017 6.216-1.727 8.038-2.154.219-.051.507-.11.799-.11.539 0 .848.191 1.065.661.157.338.095.667.014.884-.156.423-.518.79-.974.998-1.505.65-14.18 5.322-15.517 5.405-.612-.032-3.714-1.173-5.38-1.785-.975-.359-1.818-.668-2.279-.814a6.54 6.54 0 00-1.971-.306 6.852 6.852 0 00-2.673.558l-1.89-6.194c1.064-.47 2.951-1.292 4.207-1.775 1.175-.453 2.117-.663 2.966-.663m0-1c-.906 0-1.951.2-3.325.728C6.19 27.47 3 28.904 3 28.904l2.506 8.211s1.339-1.021 3.272-1.021a5.5 5.5 0 011.67.26C11.872 36.805 17.396 39 18.4 39c1.429 0 14.838-5.018 15.922-5.486 1.395-.637 1.999-2.085 1.47-3.222-.461-.993-1.255-1.239-1.972-1.239-.386 0-.75.071-1.027.137-1.863.437-8.078 2.164-8.078 2.164.16-1.26-.313-3.354-3.011-3.354-5.993 0-7.469-1.978-10.317-1.978z" fill="#967a44"></path><path d="M14.284 32.412s4.05 1.088 5.746 1.088c3.017 0 4.041-.782 4.21-2.476" fill="none" stroke="#967a44" stroke-miterlimit="10"></path><path d="M3.285 29.838l1.579-.654 2.589 5.918s-1.497.543-2.254 1.01l-1.914-6.274z" fill="#f5ce85"></path><g><path d="M20 24.5a2.471 2.471 0 01-1.851-.835l-.148-.165H3c-.827 0-1.5-.673-1.5-1.5V7c0-.827.673-1.5 1.5-1.5h34c.827 0 1.5.673 1.5 1.5v15c0 .827-.673 1.5-1.5 1.5H21.999l-.148.165A2.471 2.471 0 0120 24.5z" fill="#8bb7f0"></path><path d="M37 6c.551 0 1 .449 1 1v15c0 .551-.449 1-1 1H21.776l-.298.331c-.388.431-.913.669-1.478.669s-1.09-.238-1.478-.669L18.224 23H3c-.551 0-1-.449-1-1V7c0-.551.449-1 1-1h34m0-1H3a2 2 0 00-2 2v15a2 2 0 002 2h14.779c.549.61 1.336 1 2.221 1s1.672-.39 2.221-1H37a2 2 0 002-2V7a2 2 0 00-2-2z" fill="#4e7ab5"></path><path d="M20.008 22c-.922-.695-3.751-2.478-8.508-2.478-4.082 0-6.744 1.313-8 2.125V3.874c.666-.515 3.366-2.352 8-2.352 5.362 0 8.136 2.46 8.163 2.485l.335.303.337-.302c.028-.025 2.825-2.486 8.165-2.486 4.637 0 7.333 1.835 8 2.352v17.795c-1.278-.806-4.005-2.146-8-2.146-4.62-.001-7.543 1.791-8.492 2.477z" fill="#fff"></path><path d="M28.5 2.022c4.104 0 6.641 1.499 7.5 2.105v16.677c-1.522-.811-4.062-1.782-7.5-1.782-4.342 0-7.252 1.55-8.487 2.368-1.208-.829-4.052-2.368-8.513-2.368-3.497 0-6 .946-7.5 1.754V4.125c.856-.608 3.382-2.104 7.5-2.104 5.143 0 7.802 2.332 7.824 2.352l.67.607.675-.601c.026-.022 2.709-2.357 7.831-2.357m0-1c-5.624 0-8.5 2.615-8.5 2.615s-2.851-2.615-8.5-2.615S3 3.637 3 3.637v19s2.845-2.615 8.5-2.615 8.5 2.615 8.5 2.615 3.03-2.615 8.5-2.615c5.47 0 8.5 2.615 8.5 2.615v-19s-2.876-2.615-8.5-2.615z" fill="#788b9c"></path><path d="M20.669 4.38L20 4.976v16.406a.091.091 0 00.013.008c1.235-.819 4.145-2.368 8.487-2.368 3.438 0 5.978.971 7.5 1.782V4.127c-.859-.606-3.396-2.105-7.5-2.105-5.122 0-7.805 2.335-7.831 2.358z" fill="#e1ebf2"></path></g></svg>