<svg viewBox="0 0 40 40" xmlns="http://www.w3.org/2000/svg"><path fill="#839cb2" d="M14.42 26.783L2.912 38.293 1.7 37.08l11.51-11.51z"></path><path d="M13.208 26.279l.505.505L2.91 37.586l-.505-.505 10.803-10.802m0-1.415L.991 37.081 2.91 39l12.217-12.217-1.919-1.919z" fill="#66798f"></path><path fill="#c5d4de" d="M23 2h1v23.015h-1zM21 27h-1V4l1-1zM17 14h1v13h-1zM32 5h1v15h-1zM35 8h1v12h-1zM26 2h1v20h-1zM29 3h1v18h-1z"></path><path fill="#c5d4de" d="M15 16h23v1H15zM38 14H17l1-1h20zM14 19h22v1H14zM13 22h13v1H13zM19 10h18v1H19zM19 7h16v1H19zM20 4h12v1H20z"></path><g><path d="M17.393 27.5c-1.356 0-2.521-.478-3.461-1.42-.966-.968-1.461-2.234-1.432-3.661.036-1.743.872-3.735 2.293-5.467a11.929 11.929 0 011.104-1.189.257.257 0 01-.021.024c-2.162 2.624-1.476 6.775.042 8.293.912.912 2.604 1.502 4.308 1.502 1.611 0 3.015-.509 3.959-1.434-2.101 2.098-4.631 3.347-6.784 3.351h-.008zm10.892-6.56c.972-.386 1.855-.44 2.817-.44-.961 0-1.845.055-2.817.44zm2.818-.44h.307c.724 0 1.456-.016 2.17-.103-.807.103-1.569.103-2.173.103h-.304zm6.777-2.585zm-.734-7.352c-.796-1.539-1.918-3.071-3.295-4.451a18.395 18.395 0 00.001 0c1.377 1.379 2.499 2.911 3.294 4.451zM19.492 6.972c.046-1.341.364-2.767 1.516-4.025-1.152 1.271-1.469 2.691-1.516 4.025zm2.399-4.819c.563-.36 1.261-.574 2.072-.636-.809.064-1.515.283-2.072.636z" fill="#8bb7f0"></path><path d="M14.049 18.929c-.271 2.23.461 4.45 1.516 5.505 1.017 1.017 2.803 1.648 4.662 1.648.19 0 .378-.007.564-.02-1.16.604-2.33.935-3.398.937-1.235 0-2.251-.416-3.106-1.273-.868-.87-1.312-2.01-1.286-3.298.022-1.099.39-2.313 1.048-3.499M24.42 1c-.069 0-.137.001-.205.003-1.457.05-2.634.543-3.372 1.394C19.082 4.156 18.925 6.246 19 8c.084 1.931-.113 4.175-3.433 7.388-.347.32-.665.663-.968 1.015-.065.076-.131.151-.193.232-1.467 1.786-2.367 3.889-2.407 5.773-.032 1.566.514 2.959 1.578 4.025C14.616 27.473 15.898 28 17.392 28h.011c2.301-.004 4.985-1.328 7.181-3.541l.018-.02c2.997-3.272 4.61-3.439 6.5-3.439h.307c1.794 0 4.345-.049 6.123-1.827.87-.87 1.423-2.037 1.465-3.515.086-3.057-1.75-6.851-4.791-9.9C31.286 2.83 27.529 1 24.42 1zm-4.193 24.083c-1.576 0-3.131-.532-3.955-1.356-1.31-1.31-2.054-5.141-.009-7.621 3.207-3.89 3.828-6.045 3.736-8.149-.067-1.566.065-3.368 1.55-4.854l.025-.025.023-.027c.553-.637 1.495-1.01 2.644-1.05L24.42 2c2.853 0 6.331 1.711 9.078 4.464 2.854 2.861 4.578 6.373 4.5 9.165-.032 1.137-.427 2.091-1.172 2.836C35.41 19.882 33.374 20 31.409 20h-.307c-2.148 0-4.044.277-7.228 3.754-.929.937-2.296 1.329-3.647 1.329z" fill="#4e7ab5"></path></g></svg>