<svg viewBox="0 0 40 40" xmlns="http://www.w3.org/2000/svg"><path d="M28.5 38.5v-3h-19v3h-3V6c0-2.481 2.019-4.5 4.5-4.5h2.5v3H11c-.827 0-1.5.673-1.5 1.5v2.5h19V6c0-2.481 2.019-4.5 4.5-4.5h2.5v3H33c-.827 0-1.5.673-1.5 1.5v32.5h-3zm-19-6h19v-5h-19v5zm0-8h19v-5h-19v5zm0-8h19v-5h-19v5z" fill="#f5ce85"></path><path d="M35 2v2h-2c-1.103 0-2 .897-2 2v32h-2v-3H9v3H7V6c0-2.206 1.794-4 4-4h2v2h-2c-1.103 0-2 .897-2 2v3h20V6c0-2.206 1.794-4 4-4h2M9 17h20v-6H9v6m0 8h20v-6H9v6m0 8h20v-6H9v6M36 1h-3a5 5 0 00-5 5v2H10V6a1 1 0 011-1h3V1h-3a5 5 0 00-5 5v33h4v-3h18v3h4V6a1 1 0 011-1h3V1zM10 16v-4h18v4H10zm0 8v-4h18v4H10zm0 8v-4h18v4H10z" fill="#967a44"></path></svg>