<svg viewBox="0 0 40 40" xmlns="http://www.w3.org/2000/svg"><path d="M19.117 31.409l2.028-4.411L33.311 2.721a2.21 2.21 0 012.968-.986h0a2.21 2.21 0 01.986 2.968l-.392.782" fill="none" stroke="#8b75a1" stroke-miterlimit="10"></path><path d="M11.141 38.5a7.546 7.546 0 01-2.329-.369c-4.059-1.314-6.263-5.775-4.914-9.943l.829-2.56c.104-.322.792-.698 2.385-.698 1.586 0 3.589.366 5.641 1.03 4.494 1.455 6.968 3.599 6.697 4.435l-.829 2.559c-1.074 3.317-4.08 5.546-7.48 5.546z" fill="#dcd5f2"></path><path d="M7.113 25.43c1.535 0 3.483.357 5.486 1.005 4.448 1.44 6.359 3.326 6.376 3.805l-.829 2.56c-1.007 3.111-3.822 5.2-7.005 5.2a7.039 7.039 0 01-2.174-.345c-3.797-1.229-5.857-5.408-4.592-9.314l.478-1.476.338-1.057c.073-.098.586-.378 1.922-.378m0-1c-1.56 0-2.636.348-2.861 1.044l-.829 2.559c-1.437 4.438.907 9.172 5.235 10.574a8.061 8.061 0 002.483.393c3.507 0 6.793-2.298 7.956-5.892l.829-2.559c.452-1.396-2.691-3.663-7.019-5.064-2.17-.703-4.226-1.055-5.794-1.055z" fill="#8b75a1"></path><g><path d="M15.989 31.689c-1.468 0-3.135-.288-4.821-.834-4.338-1.404-6.876-3.883-6.44-5.228.259-.799 1.585-1.295 3.461-1.295 1.468 0 3.135.288 4.821.834 4.338 1.404 6.876 3.883 6.441 5.228-.26.799-1.586 1.295-3.462 1.295z" fill="#c9c2e3"></path><path d="M8.189 24.833c1.416 0 3.03.28 4.667.81 4.139 1.34 6.424 3.655 6.119 4.598-.148.457-1.145.949-2.986.949-1.416 0-3.03-.28-4.667-.81-1.969-.637-3.702-1.55-4.88-2.571-1.092-.946-1.35-1.683-1.239-2.027.148-.457 1.145-.949 2.986-.949m-.001-1c-2.07 0-3.589.565-3.937 1.641-.594 1.833 2.434 4.456 6.762 5.857 1.788.579 3.518.859 4.975.859 2.07 0 3.589-.565 3.937-1.641.594-1.834-2.434-4.456-6.762-5.857-1.788-.58-3.518-.859-4.975-.859z" fill="#8b75a1"></path></g></svg>