<svg viewBox="0 0 40 40" xmlns="http://www.w3.org/2000/svg"><path d="M13.391 38.5A7.436 7.436 0 0112.5 35a7.469 7.469 0 014.687-6.949l.313-.127V14h5v13.924l.312.127A7.468 7.468 0 0127.5 35c0 1.206-.308 2.41-.891 3.5H13.391z" fill="#8bb7f0"></path><path d="M22 14.5v13.761l.625.253A6.972 6.972 0 0127 35c0 1.044-.234 2.05-.696 3H13.696A6.796 6.796 0 0113 35a6.972 6.972 0 014.375-6.486l.625-.253V14.5h4m1-1h-6v14.087A7.997 7.997 0 0012 35c0 1.463.41 2.822 1.097 4h13.805A7.898 7.898 0 0028 35a7.997 7.997 0 00-5-7.413V13.5z" fill="#4e7ab5"></path><path fill="#99c49d" d="M6.591 25.5l4.032-24h18.754l4.032 24z"></path><path d="M28.954 2l3.864 23H7.182l3.864-23h17.908m.846-1H10.2L6 26h28L29.8 1z" fill="#5e9c76"></path><path d="M10.863 2H20v23H6.999l3.864-23z" fill="#abd4af"></path><circle cx="20" cy="34" r="3" fill="#dbf2ff"></circle><g fill="#dbf2ff"><path d="M25 34c0 1.217.727 2.259 1.768 2.73.149-.563.232-1.14.232-1.73a6.96 6.96 0 00-.852-3.344A2.985 2.985 0 0025 34zM15 34c0-.954-.454-1.794-1.148-2.344A6.96 6.96 0 0013 35c0 .59.083 1.167.232 1.73A2.996 2.996 0 0015 34z"></path></g></svg>