<svg viewBox="0 0 40 40" xmlns="http://www.w3.org/2000/svg"><path d="M8.721 24.961c-1.198-.193-5.925-1.294-7.651-7.426C2.373 18.813 5.034 21 8 21h.026A20.197 20.197 0 018 20c-3.681 0-7-4-7-4H0c0 10.877 9.333 13.333 9.333 13.333l3.317.921c-1.56-1.031-3.072-2.677-3.929-5.293z" fill="#f5c276"></path><path d="M38.452 16.5c-.35-1.734-2.564-2.212-4.897-2.716C30.248 13.071 26.5 12.262 26.5 8c0-.022-.007-1.267.957-2.244.821-.833 2.106-1.256 3.82-1.256 1.427 0 2.519.375 3.245 1.115.992 1.011.978 2.363.978 2.375 0 .025-.004 1.255-.724 1.976-.357.359-.83.534-1.443.534-.621 0-1.072-.17-1.379-.52-.612-.699-.46-1.901-.459-1.913l.073-.549-.573-.019c-.281 0-.798.019-1.288.163-1.05.311-1.207.972-1.207 1.338 0 2.339 2.495 3.141 4.907 3.917 2.432.782 4.738 1.524 5.056 3.583h-.011z" fill="#c2e8ff"></path><path d="M31.278 5c1.277 0 2.244.319 2.872.95.843.844.85 2.027.85 2.059 0 .01-.016 1.037-.575 1.601-.259.263-.616.39-1.092.39-.695 0-.925-.261-1.001-.347-.381-.432-.374-1.264-.342-1.515l.149-1.1L31.03 7l-.086-.001C29.128 6.999 28 7.766 28 9c0 2.012 1.546 3.023 3.352 3.736C28.659 11.963 27 10.844 27 7.986c0-.043.006-1.069.824-1.89C28.549 5.369 29.711 5 31.278 5m0-1C25.902 4 26 8 26 8c0 8.028 12 4.833 12 9h1c0-5.306-10-3.806-10-8 0-.953 1.618-1.001 1.943-1.001L31 8s-.417 3 2.333 3C36.028 11 36 8 36 8s.075-4-4.722-4z" fill="#8bb7f0"></path><circle cx="17" cy="14" r="1.5" fill="#ffeea3"></circle><path d="M17 13c.551 0 1 .449 1 1s-.449 1-1 1-1-.449-1-1 .449-1 1-1m0-1a2 2 0 10-.001 3.999A2 2 0 0017 12z" fill="#f5c276"></path><path d="M10.621 20.833C11.673 19.411 14.174 16.5 17 16.5c2.832 0 5.33 2.912 6.38 4.333H10.621z" fill="#ffeea3"></path><path d="M17 17c2.166 0 4.163 1.909 5.353 3.333H11.641C12.922 18.813 14.941 17 17 17m0-1c-4.05 0-7.333 5.333-7.333 5.333h14.667C24.333 21.333 21.05 16 17 16z" fill="#f5c276"></path><g><path d="M11.804 35.5c.51-.507 1.653-1.163 3.352-1.482l.316-.06.076-.313a1.494 1.494 0 012.904 0l.076.313.316.06c1.698.319 2.842.976 3.352 1.482H11.804z" fill="#ffeea3"></path><path d="M17 33c.459 0 .856.314.966.764l.153.627.634.119a8.67 8.67 0 011.69.49h-6.885a8.58 8.58 0 011.69-.49l.634-.119.153-.627A.993.993 0 0117 33m0-1c-.941 0-1.724.652-1.938 1.527C12.705 33.97 11 35.123 11 36h12c0-.877-1.705-2.03-4.062-2.473A1.997 1.997 0 0017 32z" fill="#f5c276"></path></g><g><path d="M16.998 31.5c-.453-.005-9.229-.251-9.492-11H23c.425-.009 10.028-.252 13.193-3h2.85c-9.674 13.592-21.766 13.994-22.045 14z" fill="#ffeea3"></path><path d="M38.06 18c-9.471 12.676-20.952 12.998-21.051 13-.356-.004-8.465-.215-8.983-10h14.996c1.04-.023 9.983-.298 13.352-3h1.686M40 17h-4c-2.889 2.778-13 3-13 3H7c0 11.944 10 12 10 12s12.899-.138 23-15z" fill="#f5c276"></path></g></svg>