<svg viewBox="0 0 40 40" xmlns="http://www.w3.org/2000/svg"><path d="M8 38.5A2.503 2.503 0 015.5 36V4c0-1.378 1.122-2.5 2.5-2.5h24c1.378 0 2.5 1.122 2.5 2.5v32c0 1.378-1.122 2.5-2.5 2.5H8z" fill="#c2e8ff"></path><path d="M32 2c1.103 0 2 .897 2 2v32c0 1.103-.897 2-2 2H8c-1.103 0-2-.897-2-2V4c0-1.103.897-2 2-2h24m0-1H8a3 3 0 00-3 3v32a3 3 0 003 3h24a3 3 0 003-3V4a3 3 0 00-3-3z" fill="#7496c4"></path><path fill="#66798f" d="M27 31H13v-7h14z"></path><path fill="#66798f" d="M24 34h-8v-4h8z"></path><path fill="#ffeea3" d="M24 25h1v3h-1zM21 25h1v3h-1zM18 25h1v3h-1zM15 25h1v3h-1z"></path><path d="M20 6a7 7 0 100 14 7 7 0 000-14zm-3 8a1 1 0 110-2 1 1 0 010 2zm6 0a1 1 0 110-2 1 1 0 010 2z" fill="#66798f"></path></svg>