<svg viewBox="0 0 40 40" xmlns="http://www.w3.org/2000/svg"><path fill="#99c49d" d="M1.896 38.5l6.169-10h23.87l6.169 10z"></path><path d="M31.656 29l5.552 9H2.792l5.552-9h23.312m.558-1H7.786L1 39h38l-6.786-11z" fill="#5e9c76"></path><path fill="#5e9c76" d="M23 33.5h-6l5.714-5.357h5.429z"></path><path d="M20 34.5c-1.526 0-2.5-.592-2.5-1v-31h5v31c0 .408-.974 1-2.5 1z" fill="#ffeea3"></path><path d="M22 3v30.441c-.145.184-.85.559-2 .559s-1.855-.375-2-.559V3h4m1-1h-6v31.5c0 .828 1.343 1.5 3 1.5s3-.672 3-1.5V2z" fill="#ba9b48"></path><path fill="#f78f8f" d="M3.5 5.5h33v16h-33z"></path><path d="M36 6v15H4V6h32m1-1H3v17h34V5z" fill="#c74343"></path><g fill="#fff"><path d="M8.131 16.764v-1.549c.281.235.951.706 1.913.706 1.152 0 1.176-.602 1.176-.701 0-1.191-3.118-.98-3.118-3.186 0-.361.05-2.063 2.725-2.063.94 0 1.498.176 1.735.267v1.447a2.977 2.977 0 00-1.646-.484c-1.115 0-1.168.595-1.168.703 0 1.132 3.118.899 3.118 3.176 0 1.718-1.586 2.072-2.756 2.072-1.027-.001-1.727-.26-1.979-.388zM20.611 17.029h-1.704l-.495-1.544h-2.468l-.49 1.544h-1.695l2.528-6.944h1.854l2.47 6.944zm-2.556-2.745s-.84-2.717-.863-2.959h-.039c-.015.203-.876 2.959-.876 2.959h1.778zM26.109 17.029h-4.135v-6.944h1.563v5.675h2.572v1.269zM31.704 17.029H27.54v-6.944h4.004v1.274h-2.44v1.544h2.272v1.269h-2.272v1.588h2.601v1.269z"></path></g><g><path d="M20 2.5c-1.383 0-2.221-.315-2.455-.5.234-.185 1.072-.5 2.455-.5s2.221.315 2.455.5c-.234.185-1.072.5-2.455.5z" fill="#ffeea3"></path><path d="M20 1c-1.657 0-3 .448-3 1s1.343 1 3 1 3-.448 3-1-1.343-1-3-1z" fill="#ba9b48"></path></g></svg>