<svg viewBox="0 0 40 40" xmlns="http://www.w3.org/2000/svg"><path fill="#ffeea3" d="M34.293 38.5L19.674 12.357h6.79v2.322L37.226 38.5z"></path><path d="M25.964 12.857v1.929l.089.196L36.451 38h-1.864l-14.06-25.143h5.437m1-1h-8.143L34 39h4L26.964 14.571v-2.714z" fill="#ba9b48"></path><path fill="#ffeea3" d="M2.774 38.5l10.762-23.821v-2.322h6.79L5.707 38.5z"></path><path d="M19.474 12.857L5.413 38H3.549l10.398-23.017.089-.196v-1.929h5.438m1.705-1.001h-8.143v2.714L2 39h4l15.179-27.143z" fill="#ba9b48"></path><path fill="#b0c1d4" d="M18.5 8.5h3v3h-3z"></path><path d="M21 9v2h-2V9h2m1-1h-4v4h4V8z" fill="#66798f"></path><path d="M9 7.5c-.827 0-1.5-.673-1.5-1.5V4c0-.827.673-1.5 1.5-1.5h22.5v5H9z" fill="#b0c1d4"></path><path d="M31 3v4H9c-.551 0-1-.449-1-1V4c0-.551.449-1 1-1h22m1-1H9a2 2 0 00-2 2v2a2 2 0 002 2h23V2z" fill="#66798f"></path><path fill="#ffeea3" d="M18.474 38.5l-1.339-24.786h5.73L21.526 38.5z"></path><path d="M22.337 14.214L21.053 38h-2.105l-1.285-23.786h4.674m1.056-1h-6.786L18 39h4l1.393-25.786z" fill="#ba9b48"></path><g><path fill="#ffeea3" d="M10.5 1.5h19v7h-19z"></path><path d="M29 2v6H11V2h18m1-1H10v8h20V1z" fill="#ba9b48"></path></g><path fill="none" stroke="#66798f" stroke-miterlimit="10" d="M31.5 1v8"></path><g><path fill="#b0c1d4" d="M13.5 11.5h13v3h-13z"></path><path d="M26 12v2H14v-2h12m1-1H13v4h14v-4z" fill="#66798f"></path></g><circle cx="19.5" cy="4.5" r="1.5" fill="#66798f"></circle><circle cx="22.5" cy="6.5" r=".5" fill="#66798f"></circle></svg>