<svg viewBox="0 0 40 40" xmlns="http://www.w3.org/2000/svg"><path fill="#ffeea3" d="M30.065 14.5H27.5v-2.565l-1.864-1.864L27.5 8.207V5.5h2.707l1.722-1.722L33.651 5.5H36.5v2.849l1.722 1.722-1.722 1.722V14.5h-2.707l-1.864 1.864z"></path><path d="M31.929 4.485l1.222 1.222.293.293H36v2.556l.293.293 1.222 1.222-1.222 1.222-.293.293V14h-2.414l-.293.293-1.364 1.364-1.364-1.364-.293-.293H28V11.728l-.293-.293-1.364-1.364 1.364-1.364.293-.293V6h2.414l.293-.293 1.222-1.222m0-1.414L30 5h-3v3l-2.071 2.071L27 12.142V15h2.858l2.071 2.071L34 15h3v-3l1.929-1.929L37 8.142V5h-3.142l-1.929-1.929z" fill="#ba9b48"></path><circle cx="32" cy="10" r="3" fill="#f5ce85"></circle><path fill="#99c99e" d="M.946 36.5L15 15.888 29.054 36.5z"></path><path d="M15 16.775L28.108 36H1.892L15 16.775M15 15L0 37h30L15 15z" fill="#5e9c76"></path><g><path fill="#bae0bd" d="M16.934 36.5L28 19.901 39.066 36.5z"></path><path d="M28 20.803L38.131 36H17.869L28 20.803M28 19L16 37h24L28 19z" fill="#5e9c76"></path></g></svg>