<svg viewBox="0 0 40 40" xmlns="http://www.w3.org/2000/svg"><ellipse cx="20.029" cy="12.5" rx="12" ry="3.5" fill="#66798f"/><path d="M20 39.5c-6.113 0-8.123-2.165-8.5-2.656V20.223c1.194.956 3.711 2.277 8.5 2.277s7.306-1.321 8.5-2.277V36.84c-.383.485-2.442 2.66-8.5 2.66z" fill="#839cb2"></path><path d="M28 21.168v15.488c-.532.58-2.594 2.344-8 2.344-5.427 0-7.485-1.778-8-2.341V21.168c1.473.9 3.971 1.832 8 1.832s6.527-.932 8-1.832M29 19s-1.854 3-9 3-9-3-9-3v18s1.774 3 9 3 9-3 9-3V19z" fill="#66798f"></path><path d="M20 28.5c-6.949 0-9.106-2.176-9.5-2.662V7.931C11.723 8.572 14.453 9.5 20 9.5s8.277-.928 9.5-1.569v17.908c-.385.475-2.537 2.661-9.5 2.661z" fill="#839cb2"></path><path d="M29 8.712V25.65c-.548.572-2.755 2.35-9 2.35-6.277 0-8.475-1.796-9-2.345V8.712C12.532 9.335 15.275 10 20 10s7.468-.665 9-1.288M30 7s-1.833 2-10 2-10-2-10-2v19s1.742 3 10 3 10-3 10-3V7z" fill="#66798f"></path><path d="M20 32.5c-7.821 0-10.865-2.177-11.5-2.717V13.016c1.438.929 4.838 2.484 11.5 2.484s10.063-1.555 11.5-2.484v16.767c-.629.536-3.671 2.717-11.5 2.717z" fill="#b0c1d4"></path><path d="M31 13.875v15.668C30.143 30.187 27.1 32 20 32c-7.116 0-10.157-1.821-11-2.456V13.875C10.814 14.827 14.223 16 20 16s9.186-1.173 11-2.125M32 12s-2.812 3-12 3-12-3-12-3v18s2.709 3 12 3 12-3 12-3V12z" fill="#66798f"></path><path d="M20 12.5c-7.813 0-10.858-2.172-11.498-2.716L8.553 4.5H31.5v5.283c-.629.536-3.671 2.717-11.5 2.717z" fill="#b0c1d4"></path><path d="M31 5v4.543C30.143 10.187 27.1 12 20 12c-7.104 0-10.146-1.815-10.996-2.452L9.048 5H31m1-1H8.058L8 10s2.709 3 12 3 12-3 12-3V4z" fill="#66798f"></path><path d="M20.029 7.5C13.269 7.5 8.558 5.655 8.558 4S13.269.5 20.029.5 31.5 2.345 31.5 4s-4.711 3.5-11.471 3.5z" fill="#839cb2"></path><path d="M20.029 1C27.128 1 31 2.982 31 4s-3.872 3-10.971 3S9.058 5.018 9.058 4s3.872-3 10.971-3m0-1C13.418 0 8.058 1.791 8.058 4s5.36 4 11.971 4S32 6.209 32 4s-5.36-4-11.971-4z" fill="#66798f"></path><g><path d="M20.029 7.5c-6.777 0-11.5-1.845-11.5-3.5S13.252.5 20.029.5s11.5 1.845 11.5 3.5-4.723 3.5-11.5 3.5z" fill="#839cb2"></path><path d="M20.029 1c7.117 0 11 1.982 11 3s-3.883 3-11 3-11-1.982-11-3 3.883-3 11-3m0-1c-6.627 0-12 1.791-12 4s5.373 4 12 4 12-1.791 12-4-5.373-4-12-4z" fill="#66798f"></path></g><path d="M20.029 7c4.023 0 7.011-.633 8.85-1.368C28.264 4.569 25.184 3 20 3c-5.15 0-8.225 1.549-8.869 2.612C12.966 6.355 15.969 7 20.029 7z" fill="#c2e8ff"></path><path d="M20 3c-5.15 0-8.225 1.549-8.869 2.612.298.121.632.238.992.351C12.738 5.348 15.213 4 20 4c4.818 0 7.298 1.367 7.892 1.976.356-.111.691-.225.987-.344C28.264 4.569 25.184 3 20 3z" fill="#7496c4"></path><g><path d="M20 28.5a2.503 2.503 0 01-2.5-2.5v-4c0-1.378 1.122-2.5 2.5-2.5s2.5 1.122 2.5 2.5v4c0 1.378-1.122 2.5-2.5 2.5z" fill="#839cb2"></path><path d="M20 20c1.103 0 2 .897 2 2v4c0 1.103-.897 2-2 2s-2-.897-2-2v-4c0-1.103.897-2 2-2m0-1c-1.65 0-3 1.35-3 3v4c0 1.65 1.35 3 3 3s3-1.35 3-3v-4c0-1.65-1.35-3-3-3z" fill="#66798f"></path></g></svg>