<svg viewBox="0 0 40 40" xmlns="http://www.w3.org/2000/svg"><path d="M25.5 36.5c-.552 0-1-.449-1-1v-2c0-.07.008-.138.021-.204.145-1.617 1.422-2.796 2.979-2.796.478 0 .949.123 1.404.366a.505.505 0 00.548-.05.5.5 0 00.169-.524 2.966 2.966 0 01-.121-.792c0-1.092.606-2.098 1.584-2.626a.5.5 0 00.157-.745A3.463 3.463 0 0130.5 24c0-1.471.94-2.791 2.341-3.286a.5.5 0 00.125-.877A3.509 3.509 0 0131.5 17c0-1.024.462-1.998 1.269-2.672a.5.5 0 00-.252-.878c-1.72-.241-3.017-1.723-3.017-3.45.007-.042.012-.079.014-.116a.5.5 0 00-.376-.505 3.474 3.474 0 01-1.762-1.087.5.5 0 00-.752 0A3.496 3.496 0 0124 9.5a3.493 3.493 0 01-3.061-1.84.5.5 0 00-.878 0A3.493 3.493 0 0117 9.5c-.995 0-1.952-.44-2.624-1.208a.497.497 0 00-.752 0A3.496 3.496 0 0111 9.5c-.29 0-.593-.048-.952-.15a.492.492 0 00-.395.053.497.497 0 00-.231.325 3.5 3.5 0 01-1.237 1.983.5.5 0 00-.125.628c.292.536.44 1.095.44 1.661 0 .996-.44 1.952-1.209 2.624a.502.502 0 000 .752A3.492 3.492 0 018.5 20c0 .567-.148 1.125-.439 1.661a.5.5 0 00.124.628A3.479 3.479 0 019.5 25c0 .702-.207 1.379-.6 1.959a.497.497 0 00.249.752A3.496 3.496 0 0111.5 31c0 1.93-1.57 3.5-3.5 3.5S4.5 32.93 4.5 31c0-.702.207-1.379.6-1.959a.497.497 0 00-.249-.752A3.496 3.496 0 012.5 25c0-.566.148-1.125.44-1.661a.5.5 0 00-.125-.628A3.479 3.479 0 011.5 20c0-.996.44-1.952 1.209-2.624a.502.502 0 000-.752A3.492 3.492 0 011.5 14c0-1.048.479-2.036 1.315-2.711a.5.5 0 00.124-.628A3.454 3.454 0 012.5 9c0-1.93 1.57-3.5 3.5-3.5.29 0 .593.048.952.15a.492.492 0 00.395-.053.497.497 0 00.231-.325A3.514 3.514 0 0111 2.5c.995 0 1.952.44 2.624 1.208a.497.497 0 00.752 0A3.496 3.496 0 0117 2.5c1.271 0 2.443.705 3.061 1.84a.5.5 0 00.878 0A3.493 3.493 0 0124 2.5c.995 0 1.952.44 2.624 1.208a.497.497 0 00.752 0A3.496 3.496 0 0130 2.5c1.93 0 3.5 1.57 3.5 3.5a1.042 1.042 0 00-.014.116.5.5 0 00.377.505A3.492 3.492 0 0136.5 10c0 .12-.018.235-.033.351l-.016.111a.5.5 0 00.251.5A3.498 3.498 0 0138.5 14a3.493 3.493 0 01-1.84 3.061.501.501 0 000 .878A3.494 3.494 0 0138.5 21a3.495 3.495 0 01-1.557 2.909.501.501 0 00-.112.728c.438.546.669 1.191.669 1.863a3.012 3.012 0 01-1.729 2.707.498.498 0 00-.286.429A2.99 2.99 0 0132.5 32.5c-.195 0-.384-.022-.568-.058a.5.5 0 00-.57.335A2.488 2.488 0 0129 34.5a2.49 2.49 0 01-1.665-.65.503.503 0 00-.538-.085.5.5 0 00-.297.457V35.5c0 .551-.448 1-1 1z" fill="#f78f8f"></path><path d="M30 3a3.004 3.004 0 013 2.956 1.745 1.745 0 00-.013.147 1 1 0 00.752 1.003A2.992 2.992 0 0136 10c0 .099-.017.194-.03.29l-.014.104a1 1 0 00.501 1.003A3.001 3.001 0 0138 14a2.994 2.994 0 01-1.579 2.622 1 1 0 000 1.756A2.994 2.994 0 0138 21a3 3 0 01-1.334 2.494 1 1 0 00-.224 1.456c.254.318.558.846.558 1.55 0 .972-.553 1.835-1.442 2.254a1.002 1.002 0 00-.573.859A2.49 2.49 0 0132.5 32c-.148 0-.303-.016-.474-.049a1 1 0 00-1.138.669A1.991 1.991 0 0129 34a1.972 1.972 0 01-1.331-.522.998.998 0 00-1.075-.171 1.001 1.001 0 00-.594.914V35.5c0 .271-.229.5-.5.5s-.5-.229-.5-.5v-2a.49.49 0 01.01-.102 1.12 1.12 0 00.017-.114A2.476 2.476 0 0127.5 31c.394 0 .787.103 1.168.307a1 1 0 001.435-1.148A2.484 2.484 0 0130 29.5c0-.908.506-1.746 1.322-2.187a1.003 1.003 0 00.316-1.491A2.955 2.955 0 0131 24c0-1.259.807-2.39 2.007-2.814a1.001 1.001 0 00.251-1.755A2.967 2.967 0 0132 17c0-.876.397-1.71 1.089-2.289a1 1 0 00-.503-1.757 3.005 3.005 0 01-2.585-2.91c.006-.048.011-.097.013-.147a1 1 0 00-.752-1.003 2.969 2.969 0 01-1.508-.932 1.004 1.004 0 00-1.507 0A2.955 2.955 0 0124 9a2.994 2.994 0 01-2.622-1.579 1 1 0 00-1.756 0A2.994 2.994 0 0117 9a2.955 2.955 0 01-2.247-1.038 1 1 0 00-1.506 0A2.955 2.955 0 0111 9c-.242 0-.501-.042-.815-.131a.998.998 0 00-.789.106.994.994 0 00-.463.649 2.994 2.994 0 01-1.062 1.698 1 1 0 00-.25 1.256c.252.462.379.94.379 1.422 0 .864-.369 1.662-1.038 2.247a1 1 0 000 1.506A2.955 2.955 0 018 20c0 .482-.127.96-.379 1.422a1 1 0 00.25 1.256A2.98 2.98 0 019 25c0 .602-.178 1.182-.513 1.679a.999.999 0 00.498 1.505A2.995 2.995 0 0111 31c0 1.654-1.346 3-3 3a3.004 3.004 0 01-2.487-4.679.999.999 0 00-.498-1.505A2.995 2.995 0 013 25c0-.482.127-.96.379-1.422a1 1 0 00-.25-1.256A2.98 2.98 0 012 20c0-.864.369-1.662 1.038-2.247a1 1 0 000-1.506A2.955 2.955 0 012 14a2.98 2.98 0 011.129-2.322 1 1 0 00.25-1.256A2.948 2.948 0 013 9c0-1.654 1.346-3 3-3 .242 0 .501.042.815.131a.998.998 0 00.789-.106.994.994 0 00.463-.649A3.012 3.012 0 0111 3c.864 0 1.662.369 2.247 1.038a1 1 0 001.506 0A2.955 2.955 0 0117 3c1.087 0 2.092.605 2.622 1.579a1 1 0 001.756 0A2.994 2.994 0 0124 3c.864 0 1.662.369 2.247 1.038a1 1 0 001.506 0A2.955 2.955 0 0130 3m0-1a3.972 3.972 0 00-3 1.38A3.972 3.972 0 0024 2c-1.518 0-2.822.855-3.5 2.101C19.822 2.855 18.518 2 17 2a3.972 3.972 0 00-3 1.38A3.972 3.972 0 0011 2a4 4 0 00-3.911 3.169A3.96 3.96 0 006 5a4 4 0 00-4 4c0 .692.192 1.333.501 1.9A3.975 3.975 0 001 14c0 1.202.541 2.267 1.38 3A3.972 3.972 0 001 20c0 1.258.593 2.367 1.501 3.1A3.953 3.953 0 002 25c0 1.746 1.126 3.215 2.685 3.761A4 4 0 1012 31c0-1.746-1.126-3.215-2.685-3.761a3.975 3.975 0 00-.816-5.339A3.953 3.953 0 009 20a3.972 3.972 0 00-1.38-3A3.972 3.972 0 009 14c0-.692-.192-1.333-.501-1.9a3.985 3.985 0 001.412-2.269A3.96 3.96 0 0011 10a3.972 3.972 0 003-1.38A3.972 3.972 0 0017 10c1.518 0 2.822-.855 3.5-2.101C21.178 9.145 22.482 10 24 10a3.972 3.972 0 003-1.38 3.972 3.972 0 002.014 1.242c-.002.047-.014.091-.014.138 0 2.02 1.502 3.673 3.447 3.944A3.975 3.975 0 0031 17c0 1.339.664 2.517 1.674 3.243A3.987 3.987 0 0030 24c0 .92.323 1.758.846 2.434A3.484 3.484 0 0029 29.5c0 .323.058.629.139.925A3.465 3.465 0 0027.5 30c-1.829 0-3.314 1.409-3.47 3.198-.02.097-.03.198-.03.302v2c0 .825.675 1.5 1.5 1.5s1.5-.675 1.5-1.5v-1.279A2.978 2.978 0 0029 35a2.99 2.99 0 002.837-2.067c.215.041.436.067.663.067a3.491 3.491 0 003.484-3.341A3.493 3.493 0 0038 26.5c0-.827-.299-1.576-.778-2.175A3.994 3.994 0 0039 21c0-1.518-.855-2.822-2.101-3.5C38.145 16.822 39 15.518 39 14c0-1.498-.834-2.789-2.053-3.474.023-.174.053-.346.053-.526a3.99 3.99 0 00-3.014-3.863c.002-.046.014-.09.014-.137a4 4 0 00-4-4z" fill="#c74343"></path></svg>