<svg viewBox="0 0 40 40" xmlns="http://www.w3.org/2000/svg"><path fill="#c2e8ff" d="M1.5 19.5h37v1h-37z"></path><path fill="#7496c4" d="M39 19H1v2h38v-2z"></path><path fill="#c2e8ff" d="M31.293 30.586l-.707.707L8.708 9.415l.707-.707z"></path><path d="M9.414 9.414l21.172 21.172L9.414 9.414m0-1.414L8 9.414 30.586 32 32 30.586 9.414 8z" fill="#7496c4"></path><path fill="#c2e8ff" d="M31.293 9.414L9.415 31.292l-.707-.707L30.586 8.707z"></path><path fill="#7496c4" d="M30.586 8L8 30.586 9.414 32 32 9.414 30.586 8z"></path><path fill="#c2e8ff" d="M19.5 20.5h1v18h-1z"></path><path d="M20 21v17-17m1-1h-2v19h2V20z" fill="#7496c4"></path><g><path d="M20 27.5c-4.136 0-7.5-3.364-7.5-7.5s3.364-7.5 7.5-7.5 7.5 3.364 7.5 7.5-3.364 7.5-7.5 7.5z" fill="#c2e8ff"></path><path d="M20 13c3.86 0 7 3.14 7 7s-3.14 7-7 7-7-3.14-7-7 3.14-7 7-7m0-1a8 8 0 100 16 8 8 0 000-16z" fill="#7496c4"></path></g><g fill="#4e7ab5"><circle cx="20" cy="20" r="2.5"></circle><path d="M20 18c1.103 0 2 .897 2 2s-.897 2-2 2-2-.897-2-2 .897-2 2-2m0-1a3 3 0 100 6 3 3 0 000-6z"></path></g><g fill="#4e7ab5"><path d="M19.5 1.5h1v16.643h-1z"></path><path d="M20 2v15.643V2m1-1h-2v17.643h2V1z"></path></g></svg>