<svg viewBox="0 0 40 40" xmlns="http://www.w3.org/2000/svg"><path d="M20 38.5C9.799 38.5 1.5 30.201 1.5 20S9.799 1.5 20 1.5 38.5 9.799 38.5 20 30.201 38.5 20 38.5zm0-34C11.453 4.5 4.5 11.453 4.5 20S11.453 35.5 20 35.5 35.5 28.547 35.5 20 28.547 4.5 20 4.5z" fill="#f78f8f"></path><path d="M20 2c9.925 0 18 8.075 18 18s-8.075 18-18 18S2 29.925 2 20 10.075 2 20 2m0 34c8.822 0 16-7.178 16-16S28.822 4 20 4 4 11.178 4 20s7.178 16 16 16m0-35C9.507 1 1 9.507 1 20s8.507 19 19 19 19-8.507 19-19S30.493 1 20 1zm0 34c-8.284 0-15-6.716-15-15 0-8.284 6.716-15 15-15s15 6.716 15 15c0 8.284-6.716 15-15 15z" fill="#c74343"></path><path d="M1.687 15a18.879 18.879 0 012.179-5h4.976C11.588 6.938 15.563 5 20 5c8.284 0 15 6.716 15 15 0 8.284-6.716 15-15 15S5 28.284 5 20c0-1.756.317-3.434.872-5H1.687z" fill="#fff"></path><circle cx="20" cy="7" r="1" fill="#c5d4de"></circle><circle cx="20" cy="33" r="1" fill="#c5d4de"></circle><circle cx="33" cy="20" r="1" fill="#c5d4de"></circle><circle cx="7" cy="20" r="1" fill="#c5d4de"></circle><path fill="#f78f8f" d="M4.214 12.357V4.564l7.793 7.793z"></path><path d="M4.714 5.771l6.086 6.086H4.714V5.771m-1-2.414v9.5h9.5l-9.5-9.5z" fill="#c74343"></path><path d="M9.504 6.626a17.111 17.111 0 00-2.622 2.56" fill="none" stroke="#f78f8f" stroke-width="2" stroke-miterlimit="10"></path><path d="M18.16 14.373v7.062h1.344v1.844H18.16v2.297h-2.25v-2.297h-4.883v-1.93c.432-.484.88-1.015 1.344-1.59.463-.575.911-1.168 1.344-1.777.432-.609.834-1.223 1.207-1.84.372-.617.688-1.207.949-1.77h2.289zm-4.922 7.063h2.672v-3.914a21.433 21.433 0 01-1.266 2.05 31.972 31.972 0 01-1.406 1.864zM20.551 22.561c0-.312.045-.613.137-.902.091-.289.228-.558.41-.805.182-.247.41-.469.684-.664s.595-.355.965-.48c-.568-.281-1.008-.642-1.32-1.082s-.469-.929-.469-1.465c0-.427.09-.823.27-1.188s.428-.68.746-.945a3.46 3.46 0 011.137-.621c.44-.148.92-.223 1.441-.223a4.56 4.56 0 011.461.223c.442.148.824.354 1.145.617s.569.574.746.934c.177.359.266.75.266 1.172 0 .531-.167 1.015-.5 1.449-.333.435-.794.793-1.383 1.074.364.125.685.285.961.48.276.195.508.418.695.668s.328.522.422.816.141.601.141.918c0 .479-.097.915-.289 1.309-.193.394-.465.731-.816 1.016s-.771.504-1.258.66a5.268 5.268 0 01-1.613.234 5.31 5.31 0 01-1.598-.23c-.487-.153-.906-.371-1.258-.652s-.626-.618-.824-1.012a2.82 2.82 0 01-.299-1.301zm2.336-.211c0 .255.039.484.117.688s.19.375.336.516c.146.141.319.249.52.324.2.075.426.113.676.113.239 0 .459-.039.66-.117.2-.078.374-.188.52-.328.146-.141.26-.312.344-.516.083-.203.125-.43.125-.68 0-.224-.039-.438-.117-.641s-.19-.379-.336-.527a1.651 1.651 0 00-1.196-.488c-.234 0-.453.04-.656.121s-.378.195-.523.344a1.61 1.61 0 00-.344.527 1.7 1.7 0 00-.126.664zm.343-4.961a1.49 1.49 0 00.39 1.012 1.303 1.303 0 001.469.301 1.35 1.35 0 00.426-.305 1.461 1.461 0 00.394-1.008c0-.203-.034-.392-.102-.566a1.352 1.352 0 00-.715-.754 1.282 1.282 0 00-.527-.109 1.29 1.29 0 00-.965.418 1.368 1.368 0 00-.273.453 1.6 1.6 0 00-.097.558z" fill="#36404d"></path></svg>