<svg viewBox="0 0 40 40" xmlns="http://www.w3.org/2000/svg"><path d="M39 20c0 10.578-8.618 19-19 19C9.619 39 1 30.578 1 20S9.422 1 20 1s19 8.422 19 19z" fill="#c2e8ff"></path><path d="M27.124 26.951c.432.215.864.215 1.081.647.647.649.647 1.728.864 2.376.215.864.432 1.727.864 2.591.216 1.081.648 2.16.864 3.023.141-.11.306-.213.463-.318C35.927 31.822 39 26.302 39 20c0-5.597-2.373-10.575-6.161-14.037-.459-.151-.93-.165-1.396.042-.648.217-1.079 1.081-1.511 1.512L28.637 9.46c-.217.216-.432.648-.217.864 0 .216.217.216.432.216.432.217.649.217 1.081.432.216 0 .432.217.216.432 0 0 0 .217-.216.217-1.081 1.08-2.159 1.943-3.239 3.022-.216.216-.432.648-.432.864 0 .216.216.216.216.432 0 .217-.216.217-.432.432-.432.217-.864.432-1.08.649-.216.432 0 1.08-.216 1.511-.216 1.079-.865 1.943-1.297 3.023-.432.647-.647 1.295-1.078 1.943 0 .864-.217 1.511.215 2.159 1.08 1.51 3.022.646 4.534 1.295zM26.725 2.21A19.204 19.204 0 0020 1c-.391 0-.776.019-1.161.041-.27.419-.485.832-.566 1.078-.216 1.079.648.864 1.511 1.079 0 0 .216 1.727.216 1.943.216 1.081-.432 1.727-.432 2.807 0 .648 0 1.727.432 2.159h.216c.216 0 .432-.216.864-.432.648-.432 1.296-1.079 1.943-1.511.649-.432 1.296-1.079 1.728-1.511.648-.432 1.079-1.295 1.295-1.944.216-.432.956-1.704.739-2.351-.016-.035-.039-.095-.06-.148zM1.432 20.902c.648 1.295 1.943 2.592 3.239 3.454.864.648 2.591.648 3.454 1.727.648.865.432 1.943.432 3.023 0 1.295.864 2.375 1.295 3.453.216.649.432 1.512.648 2.16 0 .216.216 1.511.216 1.727.069.035.126.114.177.212a18.914 18.914 0 003.657 1.524c.016.001.037-.012.053-.008.216 0 1.08-1.296 1.08-1.512.648-.648 1.079-1.511 1.727-1.943.432-.216.864-.432 1.295-.865.432-.432.648-1.295.864-1.943.216-.431.432-1.294.216-1.942-.137-.41-.216-.648-.648-.864-1.295-.432-2.591-.432-3.67-1.512-.216-.432-.216-.864-.432-1.295-.432-.432-1.511-.648-2.159-.864H8.557c-.648-.216-1.079-1.08-1.511-1.727 0-.216 0-.649-.432-.649-.432-.215-.864.217-1.295 0-.216-.215-.216-.432-.216-.647 0-.649.432-1.296.864-1.728.647-.43 1.295.217 1.942.217.216 0 .216 0 .432.216.648.216.864 1.079.864 1.728v.432c0 .216.216.216.432.216.216-1.079.216-2.16.432-3.239 0-1.295 1.295-2.592 2.375-3.023.432-.215.648.217 1.079 0 1.295-.432 4.534-1.727 3.886-3.453-.432-1.512-1.727-3.022-3.454-2.807-.432.217-.648.432-1.079.649-.648.432-1.943 1.727-2.591 1.727-1.079-.216-1.079-1.727-.864-2.376.216-.864 2.159-3.669 3.454-3.238l.864.864c.432.216 1.08.216 1.727.216.216 0 .432 0 .648-.216.216-.216.216-.216.216-.432 0-.648-.648-1.296-1.079-1.728a4.677 4.677 0 00-1.727-1.078c-1.38-.415-4.295.076-6.672.878C3.24 9.685 1 14.553 1 20c0 .091.009.18.01.271.154.218.302.431.422.631z" fill="#8bb7f0"></path><path d="M20 2c10.093 0 18 7.907 18 18 0 9.925-8.075 18-18 18S2 29.925 2 20C2 9.907 9.907 2 20 2m0-1C9.422 1 1 9.422 1 20s8.619 19 19 19c10.382 0 19-8.422 19-19S30.578 1 20 1z" fill="#7496c4"></path><path fill="#7496c4" d="M2 16h36v1H2zM2 23h36v1H2zM4.5 30h31v1h-31zM5 9h30v1H5z"></path></svg>