<svg viewBox="0 0 40 40" xmlns="http://www.w3.org/2000/svg"><path d="M20 39.207c-1.244-1.567-3.5-4.716-3.5-6.207 0-1.835 1.472-3.167 3.5-3.167s3.5 1.332 3.5 3.167c0 1.492-2.256 4.641-3.5 6.207z" fill="#f78f8f"></path><path d="M20 30.333c1.766 0 3 1.097 3 2.667 0 1.073-1.57 3.529-3 5.397-1.43-1.868-3-4.324-3-5.397 0-1.57 1.234-2.667 3-2.667m0-1c-2.209 0-4 1.458-4 3.667s4 7 4 7 4-4.791 4-7-1.791-3.667-4-3.667z" fill="#c74343"></path><path d="M21.333 33c0 .736-1.333 3-1.333 3s-1.333-2.264-1.333-3 .597-1 1.333-1 1.333.264 1.333 1z" fill="#ffeea3"></path><path d="M16 32.5a.501.501 0 01-.5-.5v-5.5h9V32c0 .275-.225.5-.5.5h-8z" fill="#8bb7f0"></path><path d="M24 27v5h-8v-5h8m1-1H15v6a1 1 0 001 1h8a1 1 0 001-1v-6z" fill="#4e7ab5"></path><path d="M27.062 29.5H12.938l-3.438.859v-4.421c0-.838.416-1.615 1.113-2.08l2.514-1.358h13.746l2.553 1.382a2.483 2.483 0 011.074 2.057v4.421l-3.438-.86z" fill="#8bb7f0"></path><path d="M26.747 23l2.397 1.298c.537.374.856.984.856 1.641v3.78l-2.757-.689-.12-.03H12.877l-.119.03-2.758.689v-3.78c0-.656.319-1.267.856-1.641L13.253 23h13.494M27 22H13l-2.664 1.443A2.998 2.998 0 009 25.939V31l4-1h14l4 1v-5.061c0-1.003-.501-1.94-1.336-2.496L27 22z" fill="#4e7ab5"></path><g><path d="M13.5 30.5V10c0-3.333 5.151-8.136 6.502-9.338C21.354 1.854 26.5 6.612 26.5 10v20.5h-13z" fill="#c2e8ff"></path><path d="M20.004 1.327C22.129 3.236 26 7.276 26 10v20H14V10c0-2.672 3.878-6.743 6.004-8.673M20 0s-7 5.907-7 10v21h14V10c0-4.164-7-10-7-10z" fill="#7496c4"></path></g><g><circle cx="20" cy="11" r="2.5" fill="#8bb7f0"></circle><path d="M20 9c1.103 0 2 .897 2 2s-.897 2-2 2-2-.897-2-2 .897-2 2-2m0-1a3 3 0 100 6 3 3 0 000-6z" fill="#4e7ab5"></path></g><g><circle cx="20" cy="20" r="2.5" fill="#8bb7f0"></circle><path d="M20 18c1.103 0 2 .897 2 2s-.897 2-2 2-2-.897-2-2 .897-2 2-2m0-1a3 3 0 100 6 3 3 0 000-6z" fill="#4e7ab5"></path></g></svg>