<svg viewBox="0 0 40 40" xmlns="http://www.w3.org/2000/svg"><path fill="#e1ebf2" d="M2.168 30L20 21.553 37.832 30 20 38.447z"></path><path d="M20 22.107L36.664 30 20 37.893 3.336 30 20 22.107M20 21L1 30l19 9 19-9-19-9z" fill="#a3b7cc"></path><path fill="#8bb7f0" d="M2.168 20L20 11.553 37.832 20 20 28.447z"></path><path d="M20 12.107L36.664 20 20 27.893 3.336 20 20 12.107M20 11L1 20l19 9 19-9-19-9z" fill="#4e7ab5"></path><g><path fill="#99c99e" d="M2.168 10L20 1.553 37.832 10 20 18.447z"></path><path d="M20 2.107L36.664 10 20 17.893 3.336 10 20 2.107M20 1L1 10l19 9 19-9-19-9z" fill="#5e9c76"></path></g></svg>