<svg viewBox="0 0 40 40" xmlns="http://www.w3.org/2000/svg"><path fill="#ffeea3" d="M31.5 4.5h2v31h-2z"></path><path d="M33 5v30h-1V5h1m1-1h-3v32h3V4z" fill="#f5c276"></path><path fill="#ffeea3" d="M27.5 4.5h2v31h-2z"></path><path d="M29 5v30h-1V5h1m1-1h-3v32h3V4z" fill="#f5c276"></path><path fill="#ffeea3" d="M23.5 4.5h2v31h-2z"></path><path d="M25 5v30h-1V5h1m1-1h-3v32h3V4z" fill="#f5c276"></path><path fill="#ffeea3" d="M19.5 4.5h2v31h-2z"></path><path d="M21 5v30h-1V5h1m1-1h-3v32h3V4z" fill="#f5c276"></path><path fill="#ffeea3" d="M15.5 4.5h2v31h-2z"></path><path d="M17 5v30h-1V5h1m1-1h-3v32h3V4z" fill="#f5c276"></path><path fill="#ffeea3" d="M11.5 4.5h2v31h-2z"></path><path d="M13 5v30h-1V5h1m1-1h-3v32h3V4z" fill="#f5c276"></path><g><path fill="#ffeea3" d="M7.5 4.5h2v31h-2z"></path><path d="M9 5v30H8V5h1m1-1H7v32h3V4z" fill="#f5c276"></path></g><g><path d="M4 31.5c-.827 0-1.5-.673-1.5-1.5V10c0-.827.673-1.5 1.5-1.5h32c.827 0 1.5.673 1.5 1.5v20c0 .827-.673 1.5-1.5 1.5H4z" fill="#4b6477"></path><path d="M36 9c.551 0 1 .449 1 1v20c0 .551-.449 1-1 1H4c-.551 0-1-.449-1-1V10c0-.551.449-1 1-1h32m0-1H4a2 2 0 00-2 2v20a2 2 0 002 2h32a2 2 0 002-2V10a2 2 0 00-2-2z" fill="#36404d"></path></g><path d="M12 25H7V15h2v8h3v2zM21 24.487c-.753.344-1.694.513-2.907.513-1.582 0-2.827-.435-3.733-1.307S13 21.658 13 20.206c0-1.547.509-2.801 1.528-3.763S16.87 15 18.496 15c1.007 0 1.814.12 2.504.358v2.097c-.691-.387-1.917-.455-2.317-.455-.969 0-3.683.167-3.683 3s2.604 3 3.553 3c.906 0 1.694-.088 2.447-.501v1.988zM24 25V15h3.84c3.44 0 5.16 1.626 5.16 4.874 0 1.559-.47 2.802-1.408 3.732-.939.929-2.19 1.394-3.752 1.394H24zm2-8v6h1.217c.945 0 3.783-.083 3.783-3s-2.833-3-3.797-3H26z" fill="#ffeea3"></path></svg>