<svg viewBox="0 0 40 40" xmlns="http://www.w3.org/2000/svg"><path d="M24.378 37.5c-5.798 0-8.253-4.544-8.253-6.352v-.5h-.5c-1.928 0-9.124-1.776-9.124-10.463 0-9.745 8.541-12.494 17.584-15.404 2.935-.944 5.966-1.92 8.634-3.152 3.856 5.415 5.7 13.452 5.779 18.727.085 5.611-1.442 10.172-4.417 13.192-2.511 2.548-5.957 3.952-9.703 3.952z" fill="#bae0bd"></path><path d="M32.547 2.256c3.633 5.318 5.374 13.016 5.451 18.107.083 5.474-1.395 9.911-4.273 12.833C30.465 36.506 26.47 37 24.378 37c-5.729 0-7.753-4.661-7.753-5.852v-1h-1c-.086 0-8.624-.585-8.624-9.963 0-9.381 8.372-12.076 17.237-14.928 2.811-.905 5.71-1.838 8.309-3.001M32.88 1C22.311 6.049 6.001 6.56 6.001 20.185c0 9.095 7.642 10.963 9.624 10.963 0 1.911 2.573 6.852 8.753 6.852 6.831 0 14.815-4.747 14.62-17.652C38.921 15.298 37.18 6.79 32.88 1z" fill="#5e9c76"></path><path d="M1.501 38.51c15.257-3.139 25.218-18.652 29.374-30.011" fill="none" stroke="#5e9c76" stroke-linecap="round" stroke-linejoin="round" stroke-miterlimit="10"></path></svg>