<svg viewBox="0 0 40 40" xmlns="http://www.w3.org/2000/svg"><path d="M9.5 5.5s-3 6.286-3 18c0 5.914-1 13-1 13s4.025 1 8 1c1.343-9.231 5.121-20 6.5-20s4.994 10.182 6.5 20c3.976 0 8.278-.907 8.278-.907S33.5 29.414 33.5 23.5c0-11.714-3-18-3-18" fill="#ffc499"></path><path d="M9.5 5.5s-3 6.286-3 18c0 5.914-1 13-1 13s4.025 1 8 1c1.343-9.231 5.121-20 6.5-20s4.994 10.182 6.5 20c3.976 0 8.278-.907 8.278-.907S33.5 29.414 33.5 23.5c0-11.714-3-18-3-18" fill="none" stroke="#a36a47" stroke-miterlimit="10"></path><path fill="#ffc499" d="M14.5 8.5l-5-3v-3h21v3l-6 3"></path><path fill="none" stroke="#a36a47" stroke-miterlimit="10" d="M14.5 8.5l-5-3v-3h21v3l-6 3"></path><path d="M23.401 14.642a24.266 24.266 0 00-.224-.579c-.398-1.008-.687-1.735-.678-4.061l.003-.741-3.002 1.201-2.996-1.199-.004.734c-.012 2.172-.245 2.803-.599 3.758-.099.266-.205.552-.314.893l-1.369.685-.677-1.313c.195-.601.732-2.425.957-4.914.062-.693.023-5.092.008-6.606 1.329-.006 5.015-.021 7.642-.021 1.255 0 1.948.004 2.332.008a63.8 63.8 0 00.021 5.537c.164 3.834.672 5.444.937 6.038l-.655 1.272-1.382-.692z" fill="#e69665"></path><path d="M22.148 2.977c.826 0 1.406.002 1.813.004a65.225 65.225 0 00.04 5.062c.148 3.47.57 5.183.884 5.997l-.322.624-.763-.382-.158-.405c-.392-.991-.65-1.645-.642-3.874l.005-1.483-1.377.551-2.128.852-2.129-.851-1.364-.546L16 9.995c-.011 2.083-.232 2.681-.568 3.586-.079.213-.165.445-.255.713l-.741.37-.356-.691c.236-.77.708-2.524.916-4.823.059-.656.032-4.309.015-6.154 1.602-.007 4.792-.019 7.137-.019m0-1C18.889 1.977 14 2 14 2s.073 6.253 0 7.06c-.268 2.974-1 5-1 5L14 16l2-1c.535-1.747.984-2.016 1-5l2.5 1 2.5-1c-.011 2.961.455 3.473 1 5l2 1 1-1.94s-.789-1.087-1-6.06a63.785 63.785 0 010-6c0-.017-1.223-.023-2.852-.023z" fill="#a36a47"></path><path d="M22 4a.99.99 0 00-1 .979c0 .541.448.979 1 .979s1-.438 1-.979A.989.989 0 0022 4zm0 1l-.008.001L22 5" fill="#a36a47"></path><path d="M22 4a.99.99 0 00-1 .979c0 .541.448.979 1 .979s1-.438 1-.979A.989.989 0 0022 4zm0 1l-.008.001L22 5" fill="#ffe57f"></path><circle cx="17" cy="5" r="1" fill="#a36a47"></circle><circle cx="17" cy="5" r="1" fill="#ffe57f"></circle><path d="M38.5 34.5c-2.069 0-4-.5-4-.5s1 2.5 4 3.5M1.5 34.5c2.069 0 4-.5 4-.5s-.841 2.135-4 3.5M5.5 33.5s3 1 8.833 1M34.5 33.5s-3 1-8.833 1" fill="none" stroke="#a36a47" stroke-miterlimit="10"></path><path d="M13.063 37l.345-2.008s-2.353-.071-3.702-.227-3.427-.541-3.427-.541l-.22 1.882s1.698.37 3.286.588c2 .275 3.718.306 3.718.306zM26.941 37.024l-.376-2.047s2.369-.055 3.718-.212 3.624-.576 3.624-.576l.306 2.012s-1.894.318-3.528.525c-2.004.254-3.744.298-3.744.298z" fill="#e69665"></path></svg>