<svg viewBox="0 0 40 40" xmlns="http://www.w3.org/2000/svg"><path d="M4.907 33.893s-1.951 0-3.529 1.833M5.706 35.046c-1.565.72-2.115 2.805-4.223 3.454M6.858 35.312s.355 1.419-1.322 3.157" fill="none" stroke="#5e9c76" stroke-miterlimit="10"></path><path fill="#9bcc9f" d="M27.451 13.562l9.019-9.853.624 4.159-4.413 4.585-6.377 4.126z"></path><path d="M36.13 4.819l.432 2.879-4.202 4.367-5.047 3.266.571-1.501 8.246-9.011m.678-2.221l-9.791 10.697-1.722 4.533 7.706-4.986 4.623-4.805-.816-5.439z" fill="#5e9c76"></path><path fill="#9bcc9f" d="M23.572 15.23l8.583-12.982 4.814-.612-8.956 13.3-6.518 4.708z"></path><path d="M35.939 2.271l-8.291 12.312-4.876 3.521 1.222-2.596 8.453-12.793 3.492-.444M38 1l-6.135.782-8.745 13.236-2.901 6.165 8.159-5.893L38 1z" fill="#5e9c76"></path><path fill="#bae0bd" d="M25.909 6.826l3.485-1.006-6.014 13.783-4.959 1.7z"></path><path d="M28.51 6.596L23.01 19.2l-3.572 1.225 6.816-13.178 2.256-.651m1.768-1.551l-4.714 1.36-8.159 15.774 6.346-2.176 6.527-14.958z" fill="#5e9c76"></path><g><path fill="#bae0bd" d="M19.111 12.375l3.249-.678-3.522 10.24-4.877 1.148z"></path><path d="M21.602 12.366l-3.147 9.147-3.59.845 4.59-9.545 2.147-.447m1.517-1.337l-4.352.907-5.711 11.876 6.165-1.451 3.898-11.332z" fill="#5e9c76"></path></g><g><path fill="#bae0bd" d="M34.332 10.594l.067 3.074-8.131 5.508-8.297 2.008z"></path><path d="M33.852 11.501l.041 1.907-7.83 5.305-5.353 1.295 13.142-8.507m.96-1.813l-19.58 12.673 11.241-2.72 8.431-5.711-.092-4.242z" fill="#5e9c76"></path></g><g><path d="M6.338 36.5c-.754 0-1.48-.306-1.994-.837-1.084-1.123-1.128-2.938-.096-3.965.573-.569 9.644-9.521 10.666-10.53l14.974-4.054-1.416 2.42L17.41 25.18l-.064.074s-7.304 8.434-8.831 10.223c-.563.66-1.337 1.023-2.177 1.023z" fill="#bae0bd"></path><path d="M28.84 17.916l-.725 1.239-10.845 5.536-.174.089-.128.147c-.073.084-7.321 8.455-8.832 10.224-.468.548-1.106.849-1.797.849a2.276 2.276 0 01-1.634-.684c-.898-.931-.945-2.425-.102-3.262.559-.555 9.185-9.07 10.571-10.437l13.666-3.701m2.098-1.604l-16.28 4.407S4.505 30.739 3.897 31.343c-1.224 1.217-1.195 3.337.088 4.667a3.27 3.27 0 002.354.99 3.34 3.34 0 002.557-1.199c1.527-1.788 8.828-10.219 8.828-10.219l11.107-5.668 2.107-3.602z" fill="#5e9c76"></path></g></svg>