<svg viewBox="0 0 40 40" xmlns="http://www.w3.org/2000/svg"><path d="M20.869 38.5c-2.473 0-4.568-1.84-4.875-4.281l-.7-5.576h9.901l.548 4.364a4.873 4.873 0 01-1.182 3.829 4.92 4.92 0 01-3.692 1.664z" fill="#d6aa70"></path><path d="M24.754 29.143l.493 3.927a4.375 4.375 0 01-1.061 3.436A4.426 4.426 0 0120.869 38c-2.221 0-4.103-1.652-4.378-3.843l-.63-5.014h8.893m.882-1H14.727l.771 6.139C15.837 36.977 18.139 39 20.869 39c3.256 0 5.774-2.84 5.371-6.055l-.604-4.802z" fill="#8c6a3f"></path><g><path d="M15.043 24.929c-.537-1.161-2.543-5.795-2.543-10.357C12.5 4.923 16.638 1.5 20.182 1.5c4.016 0 6.318 4.27 6.318 11.714 0 5.639-.961 10.375-1.26 11.714H15.043z" fill="#d6aa70"></path><path d="M20.182 2C23.879 2 26 6.087 26 13.214a56.67 56.67 0 01-1.164 11.214h-9.472C14.704 22.951 13 18.731 13 14.571 13 5.292 16.869 2 20.182 2m0-1C16.091 1 12 5.071 12 14.571c0 5.429 2.727 10.857 2.727 10.857h10.909S27 19.999 27 13.214C27 5.071 24.273 1 20.182 1z" fill="#8c6a3f"></path></g></svg>