<svg viewBox="0 0 40 40" xmlns="http://www.w3.org/2000/svg"><path d="M1.707 25l9.793-9.793v7.282l.51-.01c11.651-.226 21.166-8.244 21.482-17.979h5.002c-.306 12.498-12.077 22.762-26.501 22.989l-.493.008v7.296L1.707 25z" fill="#dcd5f2"></path><path d="M37.975 5c-.605 11.998-12.032 21.77-25.991 21.989l-.984.015v6.581L2.414 25 11 16.414V22.999l1.019-.02c11.723-.228 21.332-8.2 21.949-17.979h4.007M39 4h-6c0 9.784-9.377 17.753-21 17.979V14L1 25l11 11v-8.011C26.933 27.754 39 17.088 39 4z" fill="#8b75a1"></path></svg>