<svg viewBox="0 0 40 40" xmlns="http://www.w3.org/2000/svg"><path fill="#f5ce85" d="M.707 31L31 .707 39.293 9 9 39.293z"></path><path d="M31 1.414L38.586 9 9 38.586 1.414 31 31 1.414M31 0L0 31l9 9L40 9l-9-9z" fill="#967a44"></path><path fill="#f5ce85" d="M.707 31L31 .707 39.293 9 9 39.293z"></path><path d="M31 1.414L38.586 9 9 38.586 1.414 31 31 1.414M31 0L0 31l9 9L40 9l-9-9z" fill="#967a44"></path><path d="M30.147 6.854c.194.194.513.194.707 0s.194-.513 0-.707l-3.001-3.001-.707.707 3.001 3.001zM26.147 8.854c.194.194.513.194.707 0s.194-.513 0-.707l-2.001-2.001-.707.707 2.001 2.001zM24.147 12.854c.194.194.513.194.707 0s.194-.513 0-.707l-3.001-3.001-.707.707 3.001 3.001zM20.147 14.854c.194.194.513.194.707 0s.194-.513 0-.707l-2.001-2.001-.707.707 2.001 2.001zM18.147 18.854c.194.194.513.194.707 0s.194-.513 0-.707l-3.001-3.001-.707.707 3.001 3.001zM14.147 20.854c.194.194.513.194.707 0s.194-.513 0-.707l-2.001-2.001-.707.707 2.001 2.001zM8.854 26.147l-2.001-2.001-.707.707 2.001 2.001c.194.194.513.194.707 0s.195-.513 0-.707zM12.147 24.854c.194.194.513.194.707 0s.194-.513 0-.707l-3.001-3.001-.707.707 3.001 3.001zM6.147 30.854c.194.194.513.194.707 0s.194-.513 0-.707l-3.001-3.001-.707.707 3.001 3.001z" fill="#704e34"></path></svg>