<svg viewBox="0 0 40 40" xmlns="http://www.w3.org/2000/svg"><path d="M22.707 8.593l6.187-6.188c.592-.592 1.399-.905 2.334-.905 1.284 0 2.613.593 3.646 1.626 1.847 1.848 2.17 4.529.72 5.979l-6.187 6.188-6.7-6.7z" fill="#f5ce85"></path><path d="M31.228 2c1.152 0 2.352.539 3.292 1.48 1.652 1.652 1.975 4.018.72 5.273l-5.833 5.833-5.993-5.993 5.833-5.833c.628-.628 1.424-.76 1.981-.76m0-1c-1.023 0-1.98.344-2.688 1.052L22 8.593 29.407 16l6.54-6.541c1.648-1.648 1.325-4.641-.72-6.687C34.061 1.606 32.586 1 31.228 1z" fill="#805f51"></path><path d="M3.406 9.106c-.688-.688-1-1.678-.881-2.787.124-1.15.693-2.284 1.602-3.192C5.159 2.093 6.488 1.5 7.771 1.5c.935 0 1.742.313 2.334.905l6.187 6.188-6.7 6.7-6.186-6.187z" fill="#f5ce85"></path><path d="M7.772 2c.557 0 1.353.132 1.981.759l5.833 5.833-5.993 5.993-5.834-5.833c-1.255-1.255-.932-3.62.721-5.272C5.42 2.539 6.62 2 7.772 2m0-1c-1.358 0-2.833.606-3.999 1.773-2.045 2.046-2.368 5.039-.72 6.687L9.593 16 17 8.593l-6.541-6.54C9.751 1.344 8.795 1 7.772 1z" fill="#805f51"></path><path d="M19.5 37.479C10.526 34.822 2.5 26.055 2.5 23c0-1.58 2.187-12.769 5.863-16.656C10.901 3.66 16.635 2.5 19 2.5h1c2.441 0 8.067 1.127 10.637 3.844C34.313 10.231 36.5 21.42 36.5 23c0 3.055-8.026 11.822-17 14.479z" fill="#ffeea3"></path><path d="M20 3c2.292 0 7.839 1.113 10.273 3.687C33.864 10.484 36 21.45 36 23c0 2.493-7.467 11.216-16.5 13.957C10.467 34.216 3 25.493 3 23c0-1.55 2.135-12.516 5.727-16.313C11.161 4.113 16.708 3 19 3h1m0-1h-1c-2.494 0-8.336 1.183-11 4-3.791 4.008-6 15.289-6 17 0 3.304 8.29 12.34 17.5 15C28.71 35.34 37 26.304 37 23c0-1.711-2.209-12.992-6-17-2.664-2.817-8.439-4-11-4z" fill="#805f51"></path><path d="M19.5 26.362V28c0 1.89 1.231 3.5 3.5 3.5h.5" fill="none" stroke="#805f51" stroke-linecap="round" stroke-miterlimit="10"></path><path d="M19.5 26.5c0-1.134.241-2 1.5-2 .655 0 1.297.563 1.5 1" fill="none" stroke="#36404d" stroke-linecap="round" stroke-miterlimit="10"></path><path d="M26.5 28.5c.174-.41 1.043-3.208 1-3.507 0-1.455-2.502-4.637-4-5.493V15c0-1.925 1.746-3.5 3.5-3.5 2.269 0 5.474.743 6.8 1" fill="none" stroke="#805f51" stroke-linecap="round" stroke-miterlimit="10"></path><path d="M25.67 17.5c-.414 0-.812-.051-1.215-.154a3.66 3.66 0 01-.322-.078 3.946 3.946 0 01-.633-.23V15c0-.126.009-.244.019-.361.193-1.724 1.755-3.139 3.481-3.139.895 0 2.042.118 3.5.362V13.1l-.014.055.004.072c-.063 2.356-2.225 4.273-4.82 4.273z" fill="#fff1e8"></path><path d="M27 12c.78 0 1.767.094 3 .287v.79l-.007.026-.003.11C29.935 15.301 27.997 17 25.67 17a4.32 4.32 0 01-1.092-.139l-.034-.009-.035-.006c-.081-.015-.162-.038-.241-.06a4.04 4.04 0 01-.268-.084V15c0-.113.009-.218.014-.288C24.179 13.242 25.546 12 27 12m0-1c-1.99 0-3.76 1.64-3.98 3.6-.01.13-.02.26-.02.4v2.34c.31.18.64.31 1 .41.11.03.22.06.33.08.43.11.87.17 1.34.17 2.89 0 5.25-2.13 5.32-4.76.01-.04.01-.1.01-.14v-1.66c-1.31-.23-2.78-.44-4-.44z" fill="#805f51"></path><circle cx="26.5" cy="14.5" r="1.5" fill="#36404d"></circle><ellipse transform="rotate(-45.001 30.5 8.5)" cx="30.5" cy="8.5" rx="1.177" ry="1.765" fill="#805f51"/><ellipse transform="rotate(-13.326 34.393 17.998)" cx="34.398" cy="18" rx="1.353" ry="2.03" fill="#805f51"/><ellipse transform="rotate(-45.001 33.5 25.5)" cx="33.5" cy="25.5" rx="2.941" ry="1.961" fill="#805f51"/><ellipse transform="rotate(-68.389 25.5 5.126)" cx="25.5" cy="5.126" rx="1.733" ry="2.599" fill="#805f51"/><circle cx="19.5" cy="13.5" r="1.5" fill="#805f51"></circle><ellipse cx="19.5" cy="8" rx="2.5" ry="2" fill="#805f51"/><path d="M19.5 26.362V28c0 1.89-1.231 3.5-3.5 3.5h-.5" fill="none" stroke="#805f51" stroke-linecap="round" stroke-miterlimit="10"></path><path d="M19.5 26.5c0-1.134-.241-2-1.5-2-.655 0-1.297.563-1.5 1" fill="none" stroke="#36404d" stroke-linecap="round" stroke-miterlimit="10"></path><path d="M12.5 28.5c-.174-.41-1.043-3.208-1-3.507 0-1.455 2.502-4.637 4-5.493V15c0-1.925-1.746-3.5-3.5-3.5-2.269 0-5.474.743-6.8 1" fill="none" stroke="#805f51" stroke-linecap="round" stroke-miterlimit="10"></path><path d="M13.33 17.5c-2.595 0-4.757-1.917-4.82-4.273l-.001-.053-.013-.052.003-1.26c1.458-.244 2.606-.362 3.501-.362 1.725 0 3.288 1.415 3.483 3.155.008.102.017.219.017.345v2.037a3.946 3.946 0 01-.633.231c-.096.026-.191.052-.288.07a4.954 4.954 0 01-1.249.162z" fill="#fff1e8"></path><path d="M12 12c1.454 0 2.821 1.242 2.983 2.677.008.105.017.21.017.323v1.702c-.084.03-.172.058-.265.083-.081.022-.162.046-.244.06l-.035.006-.034.009c-.365.095-.722.14-1.092.14-2.327 0-4.265-1.699-4.32-3.787l-.003-.11L9 13.077v-.789c1.234-.194 2.22-.288 3-.288m0-1c-1.22 0-2.69.21-4 .44v1.66c0 .04 0 .1.01.14.07 2.63 2.43 4.76 5.32 4.76.47 0 .91-.06 1.34-.17.11-.02.22-.05.33-.08.36-.1.69-.23 1-.41V15c0-.14-.01-.27-.02-.4-.22-1.96-1.99-3.6-3.98-3.6z" fill="#805f51"></path><circle cx="12.5" cy="14.5" r="1.5" fill="#36404d"></circle><ellipse transform="rotate(-45.001 8.5 8.5)" cx="8.5" cy="8.5" rx="1.765" ry="1.177" fill="#805f51"/><ellipse transform="rotate(-76.674 4.602 18)" cx="4.602" cy="18" rx="2.03" ry="1.353" fill="#805f51"/><ellipse transform="rotate(-45.001 5.5 25.5)" cx="5.5" cy="25.5" rx="1.961" ry="2.941" fill="#805f51"/><ellipse transform="rotate(-21.612 13.5 5.126)" cx="13.5" cy="5.126" rx="2.599" ry="1.733" fill="#805f51"/><path fill="#36404d" d="M18 24h3v1h-3z"></path></svg>