<svg viewBox="0 0 40 40" xmlns="http://www.w3.org/2000/svg"><path d="M20.229 31.925c-2.366 0-4.247-.863-5.59-2.564-5.168-6.55-1.232-23.325-1.192-23.494.032-.262.269-1.991 1.974-1.991 1.117 0 2.026-.735 2.828-1.384.629-.511 1.224-.992 1.751-.992.751 0 1.694.624 2.526 1.174.837.554 1.56 1.032 2.224 1.032 1.702 0 2.605 1.964 2.842 2.566.014.091 3.57 16.543-1.657 23.052-1.387 1.726-3.307 2.601-5.706 2.601z" fill="#bae0bd"></path><path d="M20 2c.601 0 1.516.605 2.251 1.091.904.598 1.685 1.114 2.499 1.114 1.328 0 2.103 1.58 2.348 2.177.258 1.227 3.348 16.526-1.553 22.628-1.305 1.625-3.044 2.414-5.316 2.414-2.236 0-3.936-.776-5.197-2.374-5.016-6.355-1.139-22.902-1.1-23.069l.015-.066.007-.059c.029-.248.236-1.483 1.466-1.483 1.295 0 2.32-.829 3.143-1.496C19.072 2.467 19.649 2 20 2m0-1c-1.481 0-2.785 2.375-4.58 2.375-2.223 0-2.46 2.375-2.46 2.375s-6.381 26.675 7.269 26.675S28.058 6.09 28.058 6.09c-.383-.975-1.417-2.884-3.308-2.884C23.616 3.205 21.65 1 20 1z" fill="#5e9c76"></path><path d="M17.777 38.5c-.165-4.721-2.674-6.116-4.521-7.144-.342-.19-.668-.371-.962-.563-1.482-.973-2.046-2.375-2.591-3.732-.477-1.188-.928-2.31-1.968-2.917-3.914-2.287-3.467-4.021-3.033-5.698.247-.959.504-1.952-.172-2.873-1.085-1.478-1.673-2.592-1.673-4.25 0-2.421 1.816-2.954 4.012-3.359.944-.174 1.626-.3 1.957-.748.195-.262.395-.554.604-.859 1.125-1.641 2.4-3.5 4.565-3.5 1.033 0 2.781 1.443 2.781 6.85 0 .466-.197 1.492-.425 2.68-.39 2.033-.924 4.817-.924 7.132 0 2.721 1.214 4.182 2.618 5.874 1.943 2.34 4.353 5.241 4.45 13.108h-4.718z" fill="#bae0bd"></path><path d="M13.996 3.357c.635 0 2.282 1.141 2.282 6.349 0 .418-.202 1.471-.416 2.586-.394 2.052-.933 4.863-.933 7.226 0 2.901 1.328 4.5 2.734 6.193 1.85 2.228 4.134 4.978 4.325 12.288h-3.735c-.32-4.615-2.864-6.03-4.754-7.081a15.408 15.408 0 01-.93-.545c-1.351-.887-1.885-2.215-2.401-3.5-.488-1.214-.992-2.469-2.18-3.163-3.588-2.096-3.224-3.507-2.802-5.141.251-.972.563-2.182-.253-3.294-1.045-1.423-1.576-2.426-1.576-3.954 0-2.044 1.493-2.478 3.603-2.868 1.017-.185 1.819-.333 2.268-.938.198-.268.402-.564.615-.874 1.055-1.539 2.251-3.284 4.153-3.284m0-1c-2.869 0-4.325 2.883-5.571 4.562-.708.954-6.068.05-6.068 4.404 0 1.861.707 3.099 1.77 4.546 1.547 2.107-3.129 4.918 3.356 8.706 1.965 1.148 1.581 4.696 4.537 6.635 1.948 1.278 5.266 2.067 5.266 7.79H23c0-14.076-7.071-13.153-7.071-19.481 0-3.65 1.349-8.457 1.349-9.812-.001-5.835-2.014-7.35-3.282-7.35z" fill="#5e9c76"></path><path d="M11.789 9.769c-4.92 9.484 2.247 16.349 3.533 17.828M20.085 5.496c-.269 2.25-.059 5.029-.085 7.295-.013 1.142-.559 2.148-.474 3.287.122 1.631.81 3.257.461 4.856" fill="none" stroke="#5e9c76" stroke-linecap="round" stroke-linejoin="round" stroke-miterlimit="10"></path><g><path d="M17.503 38.5c.098-7.867 2.507-10.768 4.45-13.108 1.404-1.692 2.618-3.153 2.618-5.874 0-2.315-.534-5.099-.924-7.132-.228-1.188-.425-2.214-.425-2.68 0-5.407 1.748-6.85 2.781-6.85 2.165 0 3.44 1.86 4.565 3.5.21.305.409.597.604.859.331.447 1.013.573 1.957.748 2.195.405 4.012.938 4.012 3.359 0 1.658-.588 2.772-1.673 4.25-.676.92-.419 1.913-.172 2.873.434 1.677.881 3.411-3.033 5.698-1.04.607-1.491 1.729-1.968 2.917-.545 1.356-1.108 2.759-2.591 3.732a17.46 17.46 0 01-.864.518c-1.87 1.075-4.184 2.405-4.334 7.189h-5.003z" fill="#bae0bd"></path><path d="M26.004 3.357c1.902 0 3.098 1.744 4.153 3.283.213.311.417.607.615.874.449.605 1.252.753 2.268.941 2.11.39 3.603.823 3.603 2.868 0 1.529-.531 2.531-1.576 3.954-.816 1.112-.504 2.321-.253 3.294.422 1.634.786 3.045-2.802 5.141-1.188.694-1.692 1.949-2.18 3.163-.516 1.285-1.05 2.613-2.401 3.5-.262.172-.546.335-.839.503-1.815 1.043-4.258 2.447-4.561 7.123h-4.019c.191-7.31 2.474-10.06 4.325-12.288 1.406-1.693 2.734-3.292 2.734-6.193 0-2.363-.539-5.174-.933-7.226-.214-1.115-.416-2.168-.416-2.586.001-5.21 1.648-6.351 2.282-6.351m0-1c-1.268 0-3.282 1.515-3.282 7.349 0 1.356 1.349 6.163 1.349 9.812C24.071 25.847 17 24.924 17 39h6c0-5.723 3.032-6.511 4.98-7.79 2.955-1.939 2.571-5.487 4.537-6.635 6.485-3.788 1.809-6.599 3.356-8.706 1.063-1.447 1.77-2.685 1.77-4.546 0-4.354-5.361-3.451-6.068-4.404-1.245-1.678-2.702-4.562-5.571-4.562z" fill="#5e9c76"></path></g><path d="M28.211 9.769c4.92 9.484-2.247 16.349-3.533 17.828" fill="none" stroke="#5e9c76" stroke-linecap="round" stroke-linejoin="round" stroke-miterlimit="10"></path></svg>