<svg viewBox="0 0 40 40" xmlns="http://www.w3.org/2000/svg"><g fill="#36404d"><path d="M1.111 22.026c.054.498.134.988.225 1.474.039.21.098.413.144.62L5.909 16H2.884C4.702 8.223 11.677 2.407 20 2.407c7.272 0 13.514 4.44 16.187 10.749L37 11.612C33.904 5.328 27.479 1 20 1 10.704 1 2.98 7.681 1.336 16.5c-.091.486-.171.976-.225 1.474-.009.089-.014.178-.022.267C1.034 18.821 1 19.406 1 20s.034 1.179.089 1.759c.008.088.012.178.022.267zM38.889 17.974a19.313 19.313 0 00-.225-1.474c-.047-.25-.115-.491-.171-.737L34 24h3.116C35.298 31.777 28.323 37.593 20 37.593c-7.308 0-13.575-4.486-16.226-10.845L3 28.304C6.08 34.634 12.487 39 20 39c9.296 0 17.02-6.681 18.664-15.5.092-.486.336-2.906.336-3.5s-.034-1.179-.089-1.759c-.008-.088-.012-.178-.022-.267z"></path></g><path d="M20 32.5a2.487 2.487 0 01-1.688-.668l-.084-.078-.11-.033A6.46 6.46 0 0113.5 25.5v-9.303a2.839 2.839 0 012.836-2.836h7.328a2.84 2.84 0 012.836 2.836V25.5a6.46 6.46 0 01-4.618 6.221l-.11.033-.084.078A2.487 2.487 0 0120 32.5z" fill="#f5ce85"></path><path d="M23.664 13.861A2.339 2.339 0 0126 16.197V25.5a6.038 6.038 0 01-4.263 5.742l-.22.066-.169.156c-.374.346-.853.536-1.348.536s-.974-.19-1.349-.536l-.169-.156-.22-.066A6.038 6.038 0 0114 25.5v-9.303a2.339 2.339 0 012.336-2.336h7.328m0-1h-7.328A3.337 3.337 0 0013 16.197V25.5a7 7 0 004.973 6.699c.535.493 1.243.801 2.027.801s1.492-.308 2.027-.801A7 7 0 0027 25.5v-9.303a3.337 3.337 0 00-3.336-3.336z" fill="#967a44"></path><g><path d="M28 31.5c-1.714 0-3.313-.477-4.222-.81 1.015-.895 2.722-2.872 2.722-6.048v-4.724c0-2.41-2.086-4.223-2.175-4.298l-.43-.368-.313.473c-.021.031-2.135 3.156-6.65 3.78-2.357.325-3.432 2.109-3.432 3.628v1.509c0 3.22 1.691 5.171 2.709 6.053-.905.333-2.492.805-4.209.805-1.793 0-3.382-.935-4.16-1.483.881-.695 2.445-2.24 2.445-4.445 0-.928-.176-1.909-.362-2.948C9.715 21.462 9.5 20.262 9.5 19c0-8.488 5.387-11.5 10-11.5 3.803 0 5.031 2.675 5.043 2.703l.132.297H25c3.495 0 5.5 2.733 5.5 7.5 0 1.342-.269 2.836-.527 4.281-.244 1.353-.473 2.632-.473 3.719 0 1.844 1.459 2.852 2.643 3.281-.708.811-2.215 2.219-4.143 2.219z" fill="#a6714e"></path><path d="M19.5 8c3.427 0 4.543 2.315 4.586 2.405l.263.595H25c3.224 0 5 2.486 5 7 0 1.298-.264 2.769-.52 4.193C29.233 23.569 29 24.868 29 26c0 1.765 1.143 2.857 2.292 3.452C30.551 30.167 29.388 31 28 31c-1.236 0-2.413-.26-3.29-.525C25.755 29.353 27 27.43 27 24.643v-4.724c0-2.638-2.254-4.596-2.35-4.678l-.858-.728-.626.936c-.081.121-2.03 2.971-6.303 3.561-2.654.366-3.863 2.394-3.863 4.123v1.509c0 2.82 1.23 4.729 2.273 5.841-.868.262-2.033.517-3.273.517-1.313 0-2.525-.556-3.331-1.041.942-.88 2.117-2.379 2.117-4.388 0-.972-.18-1.975-.37-3.036C10.211 21.396 10 20.218 10 19c0-8.119 5.118-11 9.5-11m0-1C14.212 7 9 10.694 9 19c0 2.454.786 4.682.786 6.571C9.786 28.327 7 30 7 30s2.254 2 5 2c2.794 0 5.211-1.176 5.211-1.176S14 28.918 14 24.643v-1.509c0-1.354.942-2.849 3-3.134 4.816-.665 7-4 7-4s2 1.711 2 3.919v4.724c0 4.194-3.214 6.183-3.214 6.183S25.225 32 28 32c3.005 0 5-3 5-3s-3-.535-3-3c0-2.19 1-5.352 1-8 0-5.761-2.766-8-6-8 0 0-1.328-3-5.5-3z" fill="#7a4f34"></path></g></svg>