<svg viewBox="0 0 40 40" xmlns="http://www.w3.org/2000/svg"><g fill="#36404d"><path d="M1.111 22.026c.054.498.134.988.225 1.474.039.21.098.413.144.62L5.909 16H2.884C4.702 8.223 11.677 2.407 20 2.407c7.272 0 13.514 4.44 16.187 10.749L37 11.612C33.904 5.328 27.479 1 20 1 10.704 1 2.98 7.681 1.336 16.5c-.091.486-.171.976-.225 1.474-.009.089-.014.178-.022.267C1.034 18.821 1 19.406 1 20s.034 1.179.089 1.759c.008.088.012.178.022.267zM38.889 17.974a19.313 19.313 0 00-.225-1.474c-.047-.25-.115-.491-.171-.737L34 24h3.116C35.298 31.777 28.323 37.593 20 37.593c-7.308 0-13.575-4.486-16.226-10.845L3 28.304C6.08 34.634 12.487 39 20 39c9.296 0 17.02-6.681 18.664-15.5.092-.486.336-2.906.336-3.5s-.034-1.179-.089-1.759c-.008-.088-.012-.178-.022-.267z"></path></g><path d="M27.143 25.214c-1.3 0-2.356-1.058-2.356-2.357s1.057-2.357 2.356-2.357c1.963 0 2.357.538 2.357 1.405 0 1.414-1.165 3.309-2.357 3.309z" fill="#deb974"></path><path d="M27.143 21C29 21 29 21.481 29 21.905c0 1.234-1.041 2.81-1.857 2.81a1.859 1.859 0 01-1.857-1.857A1.86 1.86 0 0127.143 21m0-1a2.857 2.857 0 100 5.714c1.578 0 2.857-2.232 2.857-3.81C30 20.327 28.721 20 27.143 20z" fill="#967a44"></path><path d="M12.857 25.214c-1.192 0-2.357-1.895-2.357-3.31 0-.867.395-1.405 2.357-1.405a2.358 2.358 0 010 4.715z" fill="#deb974"></path><path d="M12.857 21c1.024 0 1.857.833 1.857 1.857a1.859 1.859 0 01-1.857 1.857c-.816 0-1.857-1.575-1.857-2.81 0-.423 0-.904 1.857-.904m0-1C11.279 20 10 20.327 10 21.905s1.279 3.81 2.857 3.81a2.857 2.857 0 100-5.715z" fill="#967a44"></path><g><path d="M20 33.5a2.464 2.464 0 01-1.642-.63l-.091-.08-.116-.03A7.486 7.486 0 0112.5 25.5v-9.298a3.316 3.316 0 013.312-3.313h8.375a3.317 3.317 0 013.313 3.313V25.5a7.486 7.486 0 01-5.651 7.26l-.116.03-.091.08c-.47.412-1.038.63-1.642.63z" fill="#f5ce85"></path><path d="M24.187 13.389A2.816 2.816 0 0127 16.202V25.5a6.988 6.988 0 01-5.275 6.776l-.233.059-.181.159c-.263.231-.703.506-1.311.506s-1.048-.275-1.311-.506l-.181-.159-.233-.059A6.988 6.988 0 0113 25.5v-9.298a2.816 2.816 0 012.813-2.813h8.374m0-1h-8.375a3.813 3.813 0 00-3.813 3.813V25.5c0 3.737 2.566 6.866 6.029 7.745.529.464 1.214.755 1.972.755s1.443-.291 1.971-.755C25.434 32.366 28 29.237 28 25.5v-9.298a3.813 3.813 0 00-3.813-3.813z" fill="#967a44"></path></g><g><path d="M27.5 23.5V20c0-3.734-3.258-4.711-3.291-4.72l-.276-.079-.207.198c-.02.018-2.132 1.958-6.575 1.958-1.15 0-4.65 0-4.65 3.643v2.5h-.179c-.436-.982-1.821-4.332-1.821-7.188 0-5.271 3.617-8.812 9-8.812 3.839 0 4.992 2.585 5.039 2.695l.131.303.329.002c1.671 0 4.5 1.162 4.5 5.515 0 2.623-1.407 6.393-1.838 7.485H27.5z" fill="#a6714e"></path><path d="M19.5 8c3.483 0 4.538 2.297 4.577 2.385l.257.615H25c1.845 0 4 1.313 4 5.015 0 1.536-.507 3.498-1 5.043V20c0-3.286-2.39-4.839-3.653-5.201l-.547-.149-.413.382c-.081.075-2.022 1.825-6.236 1.825C13.733 16.857 12 18.251 12 21v.314c-.491-1.422-1-3.305-1-5.003C11 11.34 14.416 8 19.5 8m0-1c-5.819 0-9.5 3.981-9.5 9.311C10 19.842 12 24 12 24h1v-3c0-2.668 2.024-3.143 4.15-3.143 4.73 0 6.922-2.097 6.922-2.097S27 16.599 27 20v4h1s2-4.768 2-7.985C30 11.498 27.123 10 25 10c0 0-1.253-3-5.5-3z" fill="#7a4f34"></path></g></svg>