<svg viewBox="0 0 40 40" xmlns="http://www.w3.org/2000/svg"><path d="M40 30.5H8.5a3 3 0 01-3-3v-20a3 3 0 00-3-3H2" fill="none" stroke="#66798f" stroke-miterlimit="10"></path><circle cx="13.5" cy="33.5" r="2" fill="#b0c1d4"></circle><path d="M13.5 32c.827 0 1.5.673 1.5 1.5s-.673 1.5-1.5 1.5-1.5-.673-1.5-1.5.673-1.5 1.5-1.5m0-1a2.5 2.5 0 100 5 2.5 2.5 0 000-5z" fill="#66798f"></path><circle cx="36.5" cy="33.5" r="2" fill="#b0c1d4"></circle><path d="M36.5 32c.827 0 1.5.673 1.5 1.5s-.673 1.5-1.5 1.5-1.5-.673-1.5-1.5.673-1.5 1.5-1.5m0-1a2.5 2.5 0 100 5 2.5 2.5 0 000-5z" fill="#66798f"></path><circle cx="2" cy="6" r="1.5" fill="#b0c1d4"></circle><path d="M2 5c.551 0 1 .449 1 1s-.449 1-1 1-1-.449-1-1 .449-1 1-1m0-1a2 2 0 10-.001 3.999A2 2 0 002 4z" fill="#66798f"></path><path fill="none" stroke="#967a44" stroke-miterlimit="10" d="M38 17L12 28M12 17l26 11"></path><g><path fill="#ffeea3" d="M10.5 27.5h29v3h-29z"></path><path d="M39 28v2H11v-2h28m1-1H10v4h30v-4z" fill="#ba9b48"></path></g><g><path fill="#ffeea3" d="M10.5 14.5h29v3h-29z"></path><path d="M39 15v2H11v-2h28m1-1H10v4h30v-4z" fill="#ba9b48"></path></g></svg>