<svg viewBox="0 0 40 40" xmlns="http://www.w3.org/2000/svg"><path d="M2.5 38.5V19C2.5 9.351 10.351 1.5 20 1.5S37.5 9.351 37.5 19v19.5h-35z" fill="#b0c1d4"></path><path d="M20 2c9.374 0 17 7.626 17 17v19H3V19C3 9.626 10.626 2 20 2m0-1C10.059 1 2 9.059 2 19v20h36V19c0-9.941-8.059-18-18-18z" fill="#66798f"></path><path d="M9 36l11.447-5H27.5l7.5 5-6-6.255v-2.526l2.2.232-2.2-1.159V25c0-.179-.034-.348-.053-.522l1.845-.692-1.997-.125a4.946 4.946 0 00-.826-1.67L32.286 17l-5.157 3.936c-.271-.271-.407-.407-.679-.543l.271-1.629-1.221 1.222c-.271 0-.543-.136-.814-.136L23.6 11.571l-.543 8.279a4.217 4.217 0 00-2.443 1.221l-8.686-6.786 7.464 7.871c-.407.679-.543 1.493-.543 2.307v1.493l-2.986 1.9 2.986-.814v2.307L9 36z" fill="#fff"></path></svg>