<svg viewBox="0 0 40 40" xmlns="http://www.w3.org/2000/svg"><path fill="#ffeea3" d="M11.5 7.566V5.434l27-3.857v9.846z"></path><path d="M38 2.153v8.694L12 7.133V5.867l26-3.714M39 1L11 5v3l28 4V1z" fill="#f5c276"></path><path fill="#e1ebf2" d="M1.569 38.5l3.87-30h7.122l3.87 30z"></path><path d="M12.121 9l3.742 29H2.137L5.879 9h6.242M13 8H5L1 39h16L13 8z" fill="#a3b7cc"></path><path fill="#f78f8f" d="M2.472 31.5l.645-5h11.766l.645 5z"></path><path d="M14.443 27l.516 4H3.041l.516-4h10.886m.88-1H2.677l-.774 6h14.194l-.774-6z" fill="#c74343"></path><path fill="#f78f8f" d="M4.408 16.5l1.031-8h7.122l1.031 8z"></path><path d="M12.121 9l.903 7H4.976l.903-7h6.242M13 8H5l-1.161 9h10.323L13 8z" fill="#c74343"></path><path d="M7.5 23.5v-2.367c0-.9.673-1.633 1.5-1.633s1.5.733 1.5 1.633V23.5h-3z" fill="#788b9c"></path><path d="M9 20c.551 0 1 .508 1 1.133V23H8v-1.867C8 20.508 8.449 20 9 20m0-1c-1.104 0-2 .956-2 2.133V24h4v-2.867C11 19.956 10.104 19 9 19z" fill="#66798f"></path><g><path fill="#c74343" d="M7 4H6v4h1V4z"></path></g><g><path fill="#c74343" d="M12 4h-1v4h1V4z"></path></g><g><path fill="#f78f8f" d="M5.5 4.5v-.25L9 1.625l3.5 2.625v.25z"></path><path d="M9 2.25L11.333 4H6.667L9 2.25M9 1L5 4v1h8V4L9 1z" fill="#c74343"></path></g><g><path fill="#ffeea3" d="M7 5h4v3H7z"></path></g><g><path fill="#788b9c" d="M3.5 8.5h11v3h-11z"></path><path d="M14 9v2H4V9h10m1-1H3v4h12V8z" fill="#66798f"></path></g></svg>