<svg viewBox="0 0 40 40" xmlns="http://www.w3.org/2000/svg"><path d="M29.094 38.5l-.607-2.177-.269-.077a6.51 6.51 0 01-2.735-1.579l-.201-.195-2.189.563-.906-1.569 1.583-1.616-.068-.271c-.134-.536-.202-1.066-.202-1.579s.068-1.043.201-1.578l.068-.271-1.583-1.616.906-1.569 2.189.563.201-.195a6.505 6.505 0 012.735-1.579l.269-.077.607-2.177h1.812l.607 2.177.269.077a6.51 6.51 0 012.735 1.579l.201.195 2.189-.563.906 1.569-1.583 1.616.068.271c.135.535.203 1.065.203 1.578s-.068 1.043-.201 1.578l-.068.271 1.583 1.616-.906 1.569-2.189-.563-.201.195a6.505 6.505 0 01-2.735 1.579l-.269.077-.608 2.178h-1.812zm.906-11c-1.378 0-2.5 1.122-2.5 2.5s1.122 2.5 2.5 2.5 2.5-1.122 2.5-2.5-1.122-2.5-2.5-2.5z" fill="#dcd5f2"></path><path d="M30.526 22l.43 1.542.15.54.539.153a6.003 6.003 0 012.525 1.458l.402.389.542-.139 1.55-.398.526.912-1.122 1.145-.391.4.136.543c.124.494.187.984.187 1.455 0 .471-.063.961-.187 1.457l-.136.543.391.4 1.122 1.145-.526.912-1.55-.398-.542-.139-.402.389a6.024 6.024 0 01-2.525 1.458l-.539.153-.15.54-.43 1.54h-1.053l-.43-1.542-.15-.54-.539-.153a6.003 6.003 0 01-2.525-1.458l-.402-.389-.542.139-1.55.398-.526-.912 1.122-1.145.391-.4-.136-.543A6.042 6.042 0 0124 30c0-.471.063-.961.187-1.457l.136-.543-.391-.4-1.122-1.145.526-.912 1.55.398.542.139.402-.389a6.024 6.024 0 012.525-1.458l.539-.153.15-.54.43-1.54h1.052M30 33c1.654 0 3-1.346 3-3s-1.346-3-3-3-3 1.346-3 3 1.346 3 3 3m1.286-12h-2.571l-.634 2.273a6.987 6.987 0 00-2.946 1.701l-2.286-.587-1.286 2.227 1.653 1.688A6.984 6.984 0 0023 30c0 .587.08 1.154.216 1.699l-1.653 1.688 1.286 2.227 2.286-.587a6.987 6.987 0 002.946 1.701L28.714 39h2.571l.634-2.273a6.987 6.987 0 002.946-1.701l2.286.587 1.286-2.227-1.653-1.688A6.984 6.984 0 0037 30c0-.587-.08-1.154-.216-1.699l1.653-1.688-1.286-2.227-2.286.587a6.987 6.987 0 00-2.946-1.701L31.286 21zM30 32a2 2 0 11-.001-3.999A2 2 0 0130 32z" fill="#8b75a1"></path><path d="M7.5 29.833V28c0-1.914-1.168-3.76-2.52-5.897C3.349 19.525 1.5 16.603 1.5 13 1.5 6.659 6.659 1.5 13 1.5S24.5 6.659 24.5 13c0 3.603-1.849 6.525-3.48 9.103C19.668 24.24 18.5 26.086 18.5 28v1.833h-11z" fill="#ffeea3"></path><path d="M13 2c6.065 0 11 4.935 11 11 0 3.458-1.808 6.315-3.402 8.835C19.262 23.947 18 25.941 18 28v1.333H8V28c0-2.059-1.262-4.053-2.598-6.165C3.808 19.315 2 16.458 2 13 2 6.935 6.935 2 13 2m0-1C6.373 1 1 6.373 1 13c0 6.667 6 10.958 6 15v2.333h12V28c0-4.042 6-8.333 6-15 0-6.627-5.373-12-12-12z" fill="#ba9b48"></path><path d="M15.714 11.335a1.88 1.88 0 011.329 3.207l-1.75 1.75-.293.294V29h-4V16.586l-.293-.293-1.75-1.75a1.88 1.88 0 012.658-2.657l.679.679.706.706.707-.707.679-.679c.355-.354.826-.55 1.328-.55m0-1a2.87 2.87 0 00-2.036.843l-.678.679-.679-.679a2.87 2.87 0 00-2.036-.843 2.879 2.879 0 00-2.036 4.914L10 17v13h6V17l1.75-1.75a2.879 2.879 0 000-4.071 2.867 2.867 0 00-2.036-.844z" fill="#fff"></path><circle cx="13" cy="35.5" r="3.5" fill="#2d3540"></circle><path d="M10 36.5A2.503 2.503 0 017.5 34v-5.5h11V34c0 1.378-1.122 2.5-2.5 2.5h-6z" fill="#dcd5f2"></path><path d="M18 29v5c0 1.103-.897 2-2 2h-6c-1.103 0-2-.897-2-2v-5h10m1-1H7v6a3 3 0 003 3h6a3 3 0 003-3v-6z" fill="#8b75a1"></path><path fill="#8b75a1" d="M12 34h6.488v1H12zM7.56 34H10v1H7.56zM12 32h7v1h-7zM7 32h3v1H7zM12 30h7v1h-7zM7 30h3v1H7z"></path></svg>