<svg viewBox="0 0 40 40" xmlns="http://www.w3.org/2000/svg"><path fill="none" stroke="#5e9c76" stroke-miterlimit="10" d="M3 19l9-8 8 4 7-8 10 3"></path><circle cx="37" cy="10" r="1.5" fill="#bae0bd"></circle><path d="M37 9c.551 0 1 .449 1 1s-.449 1-1 1-1-.449-1-1 .449-1 1-1m0-1a2 2 0 10-.001 3.999A2 2 0 0037 8z" fill="#5e9c76"></path><circle cx="27" cy="7" r="1.5" fill="#bae0bd"></circle><path d="M27 6c.551 0 1 .449 1 1s-.449 1-1 1-1-.449-1-1 .449-1 1-1m0-1a2 2 0 10-.001 3.999A2 2 0 0027 5z" fill="#5e9c76"></path><circle cx="20" cy="15" r="1.5" fill="#bae0bd"></circle><path d="M20 14c.551 0 1 .449 1 1s-.449 1-1 1-1-.449-1-1 .449-1 1-1m0-1a2 2 0 10-.001 3.999A2 2 0 0020 13z" fill="#5e9c76"></path><circle cx="12" cy="11" r="1.5" fill="#bae0bd"></circle><path d="M12 10c.551 0 1 .449 1 1s-.449 1-1 1-1-.449-1-1 .449-1 1-1m0-1a2 2 0 10-.001 3.999A2 2 0 0012 9z" fill="#5e9c76"></path><circle cx="3" cy="19" r="1.5" fill="#bae0bd"></circle><path d="M3 18c.551 0 1 .449 1 1s-.449 1-1 1-1-.449-1-1 .449-1 1-1m0-1a2 2 0 10-.001 3.999A2 2 0 003 17z" fill="#5e9c76"></path><path fill="none" stroke="#4e7ab5" stroke-miterlimit="10" d="M3 33l9-8 8 4 8-6 9-2"></path><g><circle cx="37" cy="21" r="1.5" fill="#8bb7f0"></circle><path d="M37 20c.551 0 1 .449 1 1s-.449 1-1 1-1-.449-1-1 .449-1 1-1m0-1a2 2 0 10-.001 3.999A2 2 0 0037 19z" fill="#4e7ab5"></path></g><g><circle cx="28" cy="23" r="1.5" fill="#8bb7f0"></circle><path d="M28 22c.551 0 1 .449 1 1s-.449 1-1 1-1-.449-1-1 .449-1 1-1m0-1a2 2 0 10-.001 3.999A2 2 0 0028 21z" fill="#4e7ab5"></path></g><g><circle cx="20" cy="29" r="1.5" fill="#8bb7f0"></circle><path d="M20 28c.551 0 1 .449 1 1s-.449 1-1 1-1-.449-1-1 .449-1 1-1m0-1a2 2 0 10-.001 3.999A2 2 0 0020 27z" fill="#4e7ab5"></path></g><g><circle cx="12" cy="25" r="1.5" fill="#8bb7f0"></circle><path d="M12 24c.551 0 1 .449 1 1s-.449 1-1 1-1-.449-1-1 .449-1 1-1m0-1a2 2 0 10-.001 3.999A2 2 0 0012 23z" fill="#4e7ab5"></path></g><g><circle cx="3" cy="33" r="1.5" fill="#8bb7f0"></circle><path d="M3 32c.551 0 1 .449 1 1s-.449 1-1 1-1-.449-1-1 .449-1 1-1m0-1a2 2 0 10-.001 3.999A2 2 0 003 31z" fill="#4e7ab5"></path></g></svg>