<svg viewBox="0 0 40 40" xmlns="http://www.w3.org/2000/svg"><path fill="#b0c1d4" d="M16.5 28.5h7v6h-7z"></path><path d="M23 29v5h-6v-5h6m1-1h-8v7h8v-7z" fill="#66798f"></path><path fill="#c2e8ff" d="M1.5 4.5h37v26h-37z"></path><path d="M38 5v25H2V5h36m1-1H1v27h38V4z" fill="#66798f"></path><path fill="#66798f" d="M2 26h36v4H2zM31 37H9a3 3 0 013-3h16a3 3 0 013 3z"></path><ellipse transform="rotate(-47.023 22.336 11.692)" cx="22.337" cy="11.692" rx="1.103" ry="1.511" fill="#fff"/><path d="M26 21v-6a6 6 0 10-12 0v6a2 2 0 01-2 2h16a2 2 0 01-2-2zm-4.365-10.319c.26-.26.788-.155 1.179.236s.496.919.236 1.179-.788.155-1.179-.236c-.39-.391-.497-.919-.236-1.179z" fill="#36404d"></path><path fill="#ffeea3" d="M34 28h3v1h-3z"></path><ellipse cx="18.036" cy="15.714" rx="2.036" ry="2.714" fill="#fff"/><ellipse cx="18.036" cy="16.054" rx=".679" ry="1.018" fill="#36404d"/><ellipse cx="22.036" cy="15.714" rx="2.036" ry="2.714" fill="#fff"/><ellipse cx="22.036" cy="16.054" rx=".679" ry="1.018" fill="#36404d"/><path d="M24 19.189c0 1.209-2.319 2.189-4 2.189s-4-.98-4-2.189C16.632 17.998 18.933 17 20 17s3.367 1.013 4 2.189z" fill="#ffeea3"></path></svg>