<svg viewBox="0 0 40 40" xmlns="http://www.w3.org/2000/svg"><path d="M20 38.497c-.326-.039-2.219-.292-4.511-1.174L13.5 33.894v2.535c-3.806-1.982-8-5.88-8-13.428 0-.698.065-1.446.199-2.285l.026-.163-.076-.146C4.63 18.447 4.5 15.954 4.5 14 4.5 6.991 9.112 1.5 15 1.5c1.875 0 3.57.336 4.774.946l.226.115.226-.115C21.43 1.836 23.125 1.5 25 1.5c5.888 0 10.5 5.491 10.5 12.5 0 1.954-.13 4.447-1.149 6.406l-.076.146.026.163c.134.839.199 1.587.199 2.285 0 7.548-4.194 11.446-8 13.428v-2.535l-1.989 3.429c-2.292.884-4.185 1.136-4.511 1.175z" fill="#ffc49c"></path><path d="M25 2c5.607 0 10 5.271 10 12 0 1.896-.124 4.312-1.092 6.175l-.152.293.052.326c.129.812.192 1.533.192 2.206 0 6.817-3.535 10.555-7 12.581v-3.546l-1.865 3.215-.967 1.668c-2.056.771-3.75 1.021-4.167 1.075-.419-.054-2.113-.304-4.168-1.075l-.967-1.668L13 32.035v3.546C9.535 33.555 6 29.817 6 23c0-.673.063-1.394.192-2.206l.052-.326-.152-.293C5.124 18.312 5 15.896 5 14 5 7.271 9.393 2 15 2c1.797 0 3.412.317 4.548.892l.452.229.452-.229C21.588 2.317 23.203 2 25 2m0-1c-1.695 0-3.55.266-5 1-1.45-.734-3.305-1-5-1C8.629 1 4 6.88 4 14c0 2.356.217 4.736 1.205 6.636A14.98 14.98 0 005 23c0 8.243 4.823 12.28 9 14.232v-1.48l1.144 1.973C17.831 38.786 20 39 20 39s2.169-.214 4.856-1.275L26 35.752v1.48c4.177-1.953 9-5.99 9-14.232 0-.806-.082-1.592-.205-2.364C35.783 18.736 36 16.356 36 14c0-7.12-4.629-13-11-13z" fill="#a16a4a"></path><ellipse cx="28" cy="12.5" rx="2.5" ry="3" fill="#f5ce85"/><path d="M28 10c1.103 0 2 1.122 2 2.5s-.897 2.5-2 2.5-2-1.122-2-2.5.897-2.5 2-2.5m0-1c-1.657 0-3 1.567-3 3.5s1.343 3.5 3 3.5 3-1.567 3-3.5S29.657 9 28 9z" fill="#a16a4a"></path><circle cx="20" cy="28" r="3.5" fill="#f5ce85"></circle><path d="M20 25c1.654 0 3 1.346 3 3s-1.346 3-3 3-3-1.346-3-3 1.346-3 3-3m0-1a4 4 0 100 8 4 4 0 000-8z" fill="#a16a4a"></path><ellipse cx="12" cy="12.5" rx="2.5" ry="3" fill="#f5ce85"/><path d="M12 10c1.103 0 2 1.122 2 2.5s-.897 2.5-2 2.5-2-1.122-2-2.5.897-2.5 2-2.5m0-1c-1.657 0-3 1.567-3 3.5s1.343 3.5 3 3.5 3-1.567 3-3.5S13.657 9 12 9z" fill="#a16a4a"></path><g><path d="M23 29.5c-1.079 0-2.051-.318-2.666-.872a.497.497 0 00-.668 0c-.615.554-1.587.872-2.666.872-2.093 0-3.5-1.407-3.5-3.5v-3c0-1.754-.835-3.035-1.643-4.274-.698-1.071-1.357-2.083-1.357-3.297A5.936 5.936 0 0116.429 9.5c1.176 0 2.315.346 3.293 1.001a.5.5 0 00.556 0A5.899 5.899 0 0123.571 9.5a5.936 5.936 0 015.929 5.929c0 1.214-.659 2.226-1.357 3.297-.808 1.239-1.643 2.52-1.643 4.274v3c0 2.093-1.407 3.5-3.5 3.5z" fill="#ffeea3"></path><path d="M23.571 10A5.435 5.435 0 0129 15.429c0 1.065-.591 1.973-1.276 3.024C26.916 19.692 26 21.098 26 23v3c0 1.822-1.178 3-3 3-.943 0-1.814-.278-2.331-.743a.997.997 0 00-1.338 0c-.517.465-1.388.743-2.331.743-1.822 0-3-1.178-3-3v-3c0-1.902-.916-3.308-1.724-4.547C11.591 17.402 11 16.494 11 15.429A5.435 5.435 0 0116.429 10c1.077 0 2.12.317 3.015.916a.995.995 0 001.112 0A5.407 5.407 0 0123.571 10m0-1c-1.322 0-2.55.401-3.571 1.086a6.429 6.429 0 00-10 5.343c0 2.801 3 4.446 3 7.571v3c0 2.367 1.633 4 4 4 1.103 0 2.241-.316 3-1 .759.684 1.897 1 3 1 2.367 0 4-1.633 4-4v-3c0-3.125 3-4.77 3-7.571A6.429 6.429 0 0023.571 9z" fill="#a16a4a"></path></g><g><path d="M26.448 15H25c-1.1 0-2 .9-2 2v2l4-4h-.552z" fill="#36404d"></path></g><path d="M20.001 22c-.001 0-.001 0 0 0-1.659 0-3.001.448-3.001 1v1c0 .244.151.469.383.678.61-.564 1.273-.831 1.522-.582.216.216.04.743-.375 1.277.537.25 1.096.46 1.47.627.374-.167.933-.377 1.469-.627-.415-.534-.591-1.061-.375-1.277.249-.249.912.018 1.522.582.233-.209.384-.434.384-.678v-1c0-.552-1.342-1-2.999-1z" fill="#36404d"></path><g><path d="M13.552 15H15c1.1 0 2 .9 2 2v2l-4-4h.552z" fill="#36404d"></path></g></svg>