<svg viewBox="0 0 40 40" xmlns="http://www.w3.org/2000/svg"><path d="M20.506 35.5c.039-.56.202-1.507.829-2.179.509-.545 1.252-.821 2.208-.821H26.5V32c0-.373-.273-.52-.936-.872-1.319-.703-4.064-2.165-4.064-4.628V26H21c-1.959 0-3.667-1.374-3.685-1.388l-.511-.416-.263.604c-.015.031-1.403 3.187-3.362 4.814l-.102.086-.047.125c-1.105 2.959-3.334 5.149-3.901 5.675H3.533c.042-.49.179-1.113.517-1.468l.06-.062.035-.079C4.543 32.994 5.201 32.5 6 32.5c.864 0 1.353-.878 1.971-1.99.385-.692.821-1.478 1.414-2.19l.115-.139V28c0-3.519.101-4.975.727-7.224l.044-.156-.057-.151c-.027-.072-.663-1.783-.946-2.409-.123-.272-.034-.665.251-1.106.913-1.417 4.128-3.524 9.239-3.524 2.261 0 4.61.418 6.982 1.243 3.434 2.034 8.76 8.276 8.76 12.953 0 1.929-.773 3.875-2.5 3.875h-.5V32c0 .675.569 1.097 1.071 1.469.561.416.929.721.929 1.153v.878H20.506z" fill="#f5ce85"></path><path d="M18.758 12.929v1c2.174 0 4.436.398 6.722 1.182C28.906 17.177 34 23.156 34 27.625c0 1.68-.618 3.375-2 3.375h-1v1c0 .927.736 1.472 1.274 1.871.34.252.726.538.726.751V35H21.074c.087-.44.265-.952.63-1.341.416-.443 1.018-.659 1.839-.659H27v-1c0-.674-.503-.942-1.2-1.313-1.234-.657-3.8-2.024-3.8-4.187v-1h-1c-1.763 0-3.355-1.264-3.368-1.275l-1.021-.831-.528 1.206c-.013.031-1.359 3.08-3.224 4.63l-.205.17-.093.249c-.989 2.648-2.93 4.676-3.632 5.35H4.12c.064-.253.159-.483.292-.623l.12-.126.07-.159C4.915 33.388 5.411 33 6 33c1.158 0 1.765-1.092 2.408-2.247.374-.673.799-1.436 1.361-2.114l.231-.278V28c0-3.521.093-4.878.708-7.09l.087-.312-.113-.304c-.027-.073-.669-1.8-.959-2.441-.03-.067.001-.297.215-.629.854-1.324 3.908-3.295 8.82-3.295v-1m0 0c-6.697 0-10.738 3.587-9.946 5.336.28.617.933 2.377.933 2.377C9.106 22.939 9 24.395 9 28c-1.496 1.801-2.024 4-3 4-.945 0-1.814.563-2.312 1.688-.616.647-.688 1.831-.666 2.312h6.299s2.851-2.45 4.177-6C15.576 28.273 17 25 17 25s1.841 1.5 4 1.5c0 3.587 5 5.181 5 5.5h-2.457C19.704 32 20 36 20 36h14v-1.378c0-1.318-2-1.694-2-2.622 1.888 0 3-1.873 3-4.375 0-5.085-5.652-11.397-9.096-13.426-2.605-.905-5.01-1.27-7.146-1.27z" fill="#967a44"></path><path d="M34.888 23.457s2.612 1.714 2.612 4.581c0 2.788-3.006 3.462-5.75 3.462" fill="none" stroke="#967a44" stroke-linecap="round" stroke-linejoin="round" stroke-miterlimit="10"></path><path fill="#f5ce85" d="M1.5 35.5h37v3h-37z"></path><path d="M38 36v2H2v-2h36m1-1H1v4h38v-4z" fill="#967a44"></path><path d="M13.64 14.609c-.463-.543-1.751-2.032-3.939-2.891l.608-1.219h.961c2.021 0 2.444-.932 2.444-1.714 0-.948-.842-2.285-2.714-2.285-.828 0-1.514.416-1.934.754-.246-.383-.51-.925-.479-1.407.019-.292.146-.536.387-.748l.188-.165-.02-.25c-.064-.835.287-1.155.384-1.195.681.011 1.882.317 2.718.725l.305.148.251-.228c.227-.207.82-.634 1.2-.634.633 0 3.39.637 5.235 1.101l2.555 5.749-5.363 3.908-2.787.351z" fill="#deb974"></path><path d="M14 4c.489 0 2.776.503 4.877 1.026l2.292 5.158-4.933 3.595-2.393.301c-.545-.62-1.681-1.797-3.458-2.613l.233-.467h.651c2.562 0 2.945-1.387 2.945-2.214C14.214 7.629 13.217 6 11 6c-.699 0-1.302.242-1.765.523-.097-.219-.162-.447-.15-.642.007-.113.038-.249.217-.406l.377-.33-.039-.5c-.023-.316.028-.519.081-.631a7.356 7.356 0 012.304.65l.611.298.502-.459c.238-.219.692-.499.862-.503m0-1c-.702 0-1.537.765-1.537.765C11.518 3.305 10.248 3 9.45 3c-.232 0-.902.482-.805 1.722C7.203 5.984 9 8 9 8s.852-1 2-1c1.596 0 2.214 1.109 2.214 1.786 0 .878-.7 1.214-1.945 1.214H10l-1 2c2.852.912 4.271 3.014 4.444 3.138l3.173-.399 5.794-4.223-2.818-6.341C19.593 4.174 14.963 3 14 3z" fill="#967a44"></path><g><path d="M10.366 20.617c-.654-.574-1.866-1.891-1.866-3.784 0-2.824 2.128-3.576 4.382-4.373 2.165-.765 4.618-1.632 4.618-4.61 0-1.587-.843-2.252-1.587-2.839-.666-.525-1.241-.979-1.419-2.09.006-.44.678-1.421 3.219-1.421 3.311 0 9.128 1.805 9.934 8.571.273 2.296-.065 3.997-1.037 5.202-1.689 2.095-5.107 2.421-8.413 2.736-3.283.313-6.395.61-7.831 2.608z" fill="#f5ce85"></path><path d="M17.713 2c.867 0 8.495.228 9.437 8.13.257 2.156-.047 3.735-.93 4.83-1.557 1.931-4.869 2.247-8.072 2.552-3.022.288-6.133.585-7.823 2.373C9.735 19.266 9 18.216 9 16.833c0-2.351 1.538-3.014 4.048-3.901C15.254 12.152 18 11.182 18 7.85c0-1.829-1.027-2.639-1.777-3.231-.606-.478-1.051-.829-1.216-1.669.063-.264.605-.95 2.706-.95m0-1C14.66 1 14 2.335 14 3c.43 2.681 3 2.234 3 4.85 0 5.422-9 2.825-9 8.984 0 2.895 2.5 4.524 2.5 4.524 2.844-5.612 19.114 1.004 17.643-11.345C27.262 2.615 20.833 1 17.713 1z" fill="#967a44"></path></g><path d="M26.5 21.5c-3.273 0-5 2.655-5 5" fill="#f5ce85" stroke="#967a44" stroke-miterlimit="10"></path><g><path d="M35.131 24.5c-.365 0-.709-.143-.968-.401-.343-.343-.586-1.593-.69-2.625 1.033.104 2.284.348 2.626.689.259.259.401.603.401.968s-.143.709-.401.968-.603.401-.968.401z" fill="#deb974"></path><path d="M34.049 22.048c.814.122 1.511.305 1.697.468a.866.866 0 01-.001 1.229.86.86 0 01-.614.255.86.86 0 01-.611-.251c-.166-.189-.35-.886-.471-1.701m-1.12-1.119s.151 2.794.881 3.524a1.86 1.86 0 001.321.547 1.869 1.869 0 001.322-3.19c-.73-.73-3.524-.881-3.524-.881z" fill="#967a44"></path></g></svg>