<svg viewBox="0 0 40 40" xmlns="http://www.w3.org/2000/svg"><path fill="#b0c1d4" d="M13 6h1v21h-1z"></path><path d="M24 38.5a.5.5 0 01-.5-.5V13.5h7V38a.5.5 0 01-.5.5h-6z" fill="#ff92be"></path><path d="M30 14v24h-6V14h6m1-1h-8v25a1 1 0 001 1h6a1 1 0 001-1V13z" fill="#ea4c89"></path><path fill="#66798f" d="M25.5 8.5h3v4h-3z"></path><path d="M28 9v3h-2V9h2m1-1h-4v5h4V8z" fill="#4e5d6b"></path><path d="M10 38.5a.5.5 0 01-.5-.5V26.5h8V38a.5.5 0 01-.5.5h-7z" fill="#839cb2"></path><path d="M17 27v11h-7V27h7m1-1H9v12a1 1 0 001 1h7a1 1 0 001-1V26z" fill="#66798f"></path><path fill="#839cb2" d="M23.5 12.5h7v3h-7z"></path><path d="M30 13v2h-6v-2h6m1-1h-8v4h8v-4z" fill="#66798f"></path><g><path d="M12.5 6.5V3.1c.095-.351 1.418-1.508 1.796-1.604.139.004.204.112.204.14V6.5h-2z" fill="#ff92be"></path><path d="M14 2.265V6h-1V3.245c.159-.252.619-.685 1-.98M14.25 1C13.8 1 12 2.527 12 3.1V7h3V1.636c0-.318-.3-.636-.75-.636z" fill="#ea4c89"></path></g><path fill="#a3b7cc" d="M15 27h2v11h-2zM28 13h2v2h-2z"></path><path fill="#ffb5d2" d="M28 16h2v22h-2z"></path></svg>