<svg viewBox="0 0 40 40" xmlns="http://www.w3.org/2000/svg"><path d="M4.769 37.5A2.273 2.273 0 012.5 35.23V4.77A2.273 2.273 0 014.769 2.5H35.23a2.273 2.273 0 012.27 2.27v30.46a2.273 2.273 0 01-2.27 2.27H4.769z" fill="#c2e8ff"></path><path d="M35.231 3C36.206 3 37 3.794 37 4.769v30.462c0 .975-.794 1.769-1.769 1.769H4.769A1.772 1.772 0 013 35.231V4.769C3 3.794 3.794 3 4.769 3h30.462m0-1H4.769A2.77 2.77 0 002 4.769v30.462A2.77 2.77 0 004.769 38h30.462A2.77 2.77 0 0038 35.231V4.769A2.77 2.77 0 0035.231 2z" fill="#7496c4"></path><path d="M4.769 37.5A2.273 2.273 0 012.5 35.23v-7.073L28.157 2.5h7.073a2.273 2.273 0 012.27 2.27v7.073L11.843 37.5H4.769z" fill="#8bb7f0"></path><path d="M35.231 3C36.206 3 37 3.794 37 4.769v6.867L11.636 37H4.769A1.772 1.772 0 013 35.231v-6.867L28.364 3h6.867m0-1H27.95L2 27.95v7.281A2.77 2.77 0 004.769 38h7.281L38 12.05V4.769A2.77 2.77 0 0035.231 2z" fill="#4e7ab5"></path><path fill="none" stroke="#4e7ab5" stroke-miterlimit="10" d="M17.923 17.923l-2.769-2.769M16.538 22.077l-4.153-4.154M12.385 23.462l-2.77-2.77M11 27.615l-4.154-4.153M6.846 29l-2.769-2.769M5.462 33.154l-2.77-2.769M22.077 16.538l-4.154-4.153M23.462 12.385l-2.77-2.77M27.615 11l-4.153-4.154"></path><g><path fill="none" stroke="#4e7ab5" stroke-miterlimit="10" d="M29 6.846l-2.769-2.769"></path></g><g><path fill="none" stroke="#4e7ab5" stroke-miterlimit="10" d="M33.154 5.462l-2.769-2.77"></path></g></svg>