<svg viewBox="0 0 40 40" xmlns="http://www.w3.org/2000/svg"><path d="M16.5 16.5V8.16l4.622-6.47C21.874 2.257 23.5 3.744 23.5 6v10.5h-7z" fill="#ff92be"></path><path d="M21.222 2.41C21.961 3.062 23 4.283 23 6v10h-6V8.32l4.222-5.91M21 1l-5 7v9h8V6c0-3.257-3-5-3-5z" fill="#ea4c89"></path><path fill="#ffeea3" d="M15.5 13.5h9v16h-9z"></path><path d="M24 14v15h-8V14h8m1-1H15v17h10V13z" fill="#f5c276"></path><path fill="#f5c276" d="M13.5 24.5h13v5h-13z"></path><path d="M26 25v4H14v-4h12m1-1H13v6h14v-6z" fill="#c29653"></path><path d="M15 38.5c-.827 0-1.5-.673-1.5-1.5v-8.5h13V37c0 .827-.673 1.5-1.5 1.5H15z" fill="#839cb2"></path><path d="M26 29v8c0 .551-.449 1-1 1H15c-.551 0-1-.449-1-1v-8h12m1-1H13v9a2 2 0 002 2h10a2 2 0 002-2v-9z" fill="#66798f"></path><path d="M25 38c.551 0 1-.449 1-1v-8h-2v9h1z" fill="#a3b7cc"></path><path fill="#fff9de" d="M22 14h2v10h-2z"></path><path fill="#fcd69a" d="M24 25h2v3h-2z"></path></svg>