<svg viewBox="0 0 40 40" xmlns="http://www.w3.org/2000/svg"><path fill="#788b9c" d="M7 24h32v1H7z"></path><circle cx="2.5" cy="24.5" r="1" fill="#8bb7f0"></circle><path d="M2.5 24a.5.5 0 110 1 .5.5 0 010-1m0-1a1.5 1.5 0 10.001 3.001A1.5 1.5 0 002.5 23z" fill="#4e7ab5"></path><path fill="#788b9c" d="M7 33h32v1H7z"></path><circle cx="2.5" cy="33.5" r="1" fill="#8bb7f0"></circle><path d="M2.5 33a.5.5 0 110 1 .5.5 0 010-1m0-1a1.5 1.5 0 10.001 3.001A1.5 1.5 0 002.5 32z" fill="#4e7ab5"></path><path fill="#788b9c" d="M7 6h32v1H7z"></path><circle cx="2.5" cy="6.5" r="1" fill="#8bb7f0"></circle><path d="M2.5 6a.5.5 0 110 1 .5.5 0 010-1m0-1a1.5 1.5 0 10.001 3.001A1.5 1.5 0 002.5 5z" fill="#4e7ab5"></path><path fill="#788b9c" d="M7 15h32v1H7z"></path><g><circle cx="2.5" cy="15.5" r="1" fill="#8bb7f0"></circle><path d="M2.5 15a.5.5 0 110 1 .5.5 0 010-1m0-1a1.5 1.5 0 10.001 3.001A1.5 1.5 0 002.5 14z" fill="#4e7ab5"></path></g></svg>