<svg viewBox="0 0 40 40" xmlns="http://www.w3.org/2000/svg"><path fill="#ffc49c" d="M1.5 1.5h10v10h-10z"></path><path d="M11 2v9H2V2h9m1-1H1v11h11V1z" fill="#a16a4a"></path><path fill="#bae0bd" d="M1.5 27.5h10v10h-10z"></path><path d="M11 28v9H2v-9h9m1-1H1v11h11V27z" fill="#5e9c76"></path><path fill="#8bb7f0" d="M1.5 14.5h10v10h-10z"></path><path d="M11 15v9H2v-9h9m1-1H1v11h11V14z" fill="#4e7ab5"></path><path fill="#ffeea3" d="M6.5 16l3.5 3.5L6.5 23 3 19.5z"></path><path fill="#ffeea3" d="M4.025 17.025h4.95v4.95h-4.95z"></path><path fill="#788b9c" d="M14 6h4v1h-4zM14 19h4v1h-4zM14 32h4v1h-4z"></path><path fill="#a16a4a" d="M8.363 6.432L6.5 8.161 9.062 11H11V8.886z"></path><circle cx="9" cy="4" r="1" fill="#fff"></circle><path fill="#e09367" d="M9.617 11H2V8.75l3-3z"></path><path fill="#ffc49c" d="M22.5 27.5h10v10h-10z"></path><path d="M32 28v9h-9v-9h9m1-1H22v11h11V27z" fill="#a16a4a"></path><path fill="#788b9c" d="M35 32h4v1h-4z"></path><path fill="#a16a4a" d="M29.363 32.432L27.5 34.161 30.062 37H32v-2.114z"></path><circle cx="30" cy="30" r="1" fill="#fff"></circle><path fill="#e09367" d="M30.617 37H23v-2.25l3-3z"></path><path d="M6.5 32.5l-1.02-1.699a1.19 1.19 0 112.04 0L6.5 32.5zM6.5 32.5l1.02 1.699a1.19 1.19 0 11-2.04 0L6.5 32.5z" fill="#fff"></path><path d="M6.5 32.5l-1.981.033a1.189 1.189 0 111.019-1.766L6.5 32.5zM6.5 32.5l1.981-.033a1.189 1.189 0 11-1.019 1.766L6.5 32.5z" fill="#fff"></path><path d="M6.5 32.5l-.962 1.733a1.189 1.189 0 11-1.019-1.766L6.5 32.5zM6.5 32.5l.962-1.733a1.189 1.189 0 111.019 1.766L6.5 32.5z" fill="#fff"></path><circle cx="6.5" cy="32.5" r="1.5" fill="#ffeea3"></circle><path fill="#bae0bd" d="M22.5 14.5h10v10h-10z"></path><path d="M32 15v9h-9v-9h9m1-1H22v11h11V14z" fill="#5e9c76"></path><path fill="#788b9c" d="M35 19h4v1h-4zM35 6h4v1h-4z"></path><path d="M27.5 19.5l-1.02-1.699a1.19 1.19 0 112.04 0L27.5 19.5zM27.5 19.5l1.02 1.699a1.19 1.19 0 11-2.04 0L27.5 19.5z" fill="#fff"></path><path d="M27.5 19.5l-1.981.033a1.189 1.189 0 111.019-1.766L27.5 19.5zM27.5 19.5l1.981-.033a1.189 1.189 0 11-1.019 1.766L27.5 19.5z" fill="#fff"></path><path d="M27.5 19.5l-.962 1.733a1.189 1.189 0 11-1.019-1.766l1.981.033z" fill="#fff"></path><path d="M27.5 19.5l.962-1.733a1.189 1.189 0 111.019 1.766L27.5 19.5z" fill="#fff"></path><circle cx="27.5" cy="19.5" r="1.5" fill="#ffeea3"></circle><circle cx="6.5" cy="19.5" r="1.5" fill="#fff"></circle><g><path fill="#c2e8ff" d="M22.5 1.5h10v10h-10z"></path><path d="M32 2v9h-9V2h9m1-1H22v11h11V1z" fill="#7496c4"></path></g><path d="M29.333 7.111c-.029 0-.053.014-.081.016a.994.994 0 00-.912-.603.982.982 0 00-.352.071 1.216 1.216 0 00-2.322.515 1.222 1.222 0 100 2.444h3.667a1.222 1.222 0 100-2.443z" fill="#fff"></path><circle cx="29.944" cy="4.056" r=".611" fill="#fff"></circle></svg>