<svg viewBox="0 0 40 40" xmlns="http://www.w3.org/2000/svg"><circle cx="25.5" cy="5.5" r="4" fill="#f5ce85"></circle><path d="M25.5 2C27.43 2 29 3.57 29 5.5S27.43 9 25.5 9 22 7.43 22 5.5 23.57 2 25.5 2m0-1a4.5 4.5 0 100 9 4.5 4.5 0 000-9z" fill="#967a44"></path><path d="M13.105 20.5a1.602 1.602 0 01-.767-3.012l7.805-4.245 1.637 2.76-7.91 4.302c-.235.128-.5.195-.765.195z" fill="#f5ce85"></path><path d="M19.959 13.913l1.126 1.899-7.454 4.054a1.106 1.106 0 01-1.586-1.281 1.09 1.09 0 01.531-.656l7.383-4.016m.369-1.339l-8.229 4.475a2.103 2.103 0 00-.843 2.852 2.101 2.101 0 002.852.843l8.366-4.55-2.146-3.62z" fill="#967a44"></path><path d="M31 27.5c-.827 0-1.5-.673-1.5-1.5v-7.5h3V26c0 .827-.673 1.5-1.5 1.5z" fill="#f5ce85"></path><path d="M32 19v7c0 .551-.449 1-1 1s-1-.449-1-1v-7h2m1-1h-4v8a2 2 0 104 0v-8z" fill="#967a44"></path><path d="M22.468 38.5l-.969-14.533.001-7.812-6.252 3.399-1.532-2.816 8.906-4.843c.081-.044.167-.079.254-.106.43-.201.801-.289 1.173-.289H28c2.481 0 4.5 2.019 4.5 4.5v8.5h-2.966l-1 14h-6.066z" fill="#8bb7f0"></path><path d="M28 12c2.206 0 4 1.794 4 4v8h-2.931l-.066.929L28.069 38h-5.133L22 23.967v-8.653l-1.478.804-5.074 2.759-1.054-1.938 8.466-4.604a.814.814 0 01.16-.066l.074-.023.069-.034c.292-.141.59-.212.885-.212H28m0-1h-3.952c-.475 0-.919.118-1.32.312a1.877 1.877 0 00-.346.144l-9.345 5.082 2.009 3.695L21 16.996V24l1 15h7l1-14h3v-9a5 5 0 00-5-5z" fill="#4e7ab5"></path><path fill="none" stroke="#4e7ab5" stroke-linejoin="round" stroke-miterlimit="10" d="M29.5 25v-8"></path><g><path fill="#dbf2ff" d="M9.7 38.5l-1.145-11h8.89l-1.145 11z"></path><path d="M16.89 28l-1.042 10H10.15L9.11 28h7.78M18 27H8l1.25 12h7.5L18 27z" fill="#7496c4"></path></g><g><path fill="#4e7ab5" d="M9 26l2-2 2 2-2 2z"></path></g><g><path fill="#7496c4" d="M12 32l2-2 2 2-2 2z"></path></g><path fill="#dbf2ff" stroke="#7496c4" stroke-linecap="round" stroke-linejoin="round" stroke-miterlimit="10" d="M8 27.5h10"></path></svg>