<svg viewBox="0 0 40 40" xmlns="http://www.w3.org/2000/svg"><path d="M25.632 22.5c-.109 0-.221-.005-.334-.017-.345-.036-.745-1.373-.614-3.468.076-1.231-2.287-10.841-3.135-12.98.729-1.058 3.843-1.682 5.739-2.063.512-.102.979-.196 1.362-.286 3.344-.787 5.698-1.186 6.997-1.186.228 0 1.005.039 1.465.544.309.338.434.845.372 1.507-.002 12.447-6.873 15.896-10.176 17.552a3.987 3.987 0 01-1.676.397z" fill="#d86464"></path><path d="M35.648 3c.362 0 .839.1 1.096.381.209.23.292.608.244 1.124l-.004.046v.046c0 12.093-6.685 15.447-9.898 17.06l-.036.019a3.499 3.499 0 01-1.558.321c-.177-.312-.409-1.353-.309-2.95.07-1.122-2.012-10.002-3.076-12.901.856-.795 3.904-1.407 5.279-1.683.518-.104.991-.199 1.38-.291C32.883 3.203 34.781 3 35.648 3m0-1c-1.486 0-4.14.5-7.112 1.199-2.123.5-6.793 1.099-7.536 2.797.212.2 3.29 11.289 3.184 12.988s.106 3.896 1.061 3.996c.13.014.259.02.385.02.795 0 1.478-.247 1.844-.419 3.184-1.598 10.508-5.195 10.508-17.983C38.195 2.3 36.391 2 35.648 2z" fill="#c74343"></path><g><path d="M5.339 37.5l-.075-.186C4.795 35.937 2.5 28.892 2.5 22.8 2.5 9.501 13.249 6.25 19.657 5.497c.432.003 1.688.129 2.331.5l.056.056c.101.122.28.303.495.52C24.12 8.167 27.822 11.9 26.008 20.8c-.25 1.374-.909 3.376-2.015 4.907C16.237 35.451 9.817 37.5 5.8 37.5h-.461z" fill="#f78f8f"></path><path d="M19.654 6.001c.489.009 1.507.131 2.026.397.13.148.302.323.504.527 1.525 1.537 5.096 5.137 3.33 13.796-.238 1.309-.869 3.229-1.898 4.656C15.971 34.984 9.708 37 5.8 37h-.114C5.146 35.395 3 28.65 3 22.8 3 9.93 13.404 6.749 19.654 6.001M19.599 5C14.499 5.6 2 8.4 2 22.8c0 6.7 2.7 14.4 2.8 14.7l.2.5h.8c4.3 0 10.799-2.2 18.599-12 1.3-1.8 1.9-4 2.1-5.1 2.1-10.3-3-13.9-4.1-15.2l-.1-.1c-.8-.5-2.3-.6-2.7-.6z" fill="#c74343"></path></g></svg>