<svg viewBox="0 0 40 40" xmlns="http://www.w3.org/2000/svg"><path fill="#dbb065" d="M1.5 35.5v-31h10.293l3 3H35.5v28z"></path><path d="M11.586 5l2.707 2.707.293.293H35v27H2V5h9.586M12 4H1v32h35V7H15l-3-3z" fill="#967a44"></path><path fill="#fff" d="M4.5 7.5h31v18h-31z"></path><path d="M35 8v17H5V8h30m1-1H4v19h32V7z" fill="#788b9c"></path><g><path fill="#f5ce85" d="M1.599 35.5l3.818-21h10.734l3-2H39.41l-3.833 23z"></path><path d="M38.82 13l-3.667 22H2.198l3.636-20H16.303l.252-.168L19.303 13H38.82M40 12H19l-3 2H5L1 36h35l4-24z" fill="#967a44"></path></g></svg>