<svg viewBox="0 0 40 40" xmlns="http://www.w3.org/2000/svg"><path d="M3.514 27.5V10c0-1.93 1.57-3.5 3.5-3.5h25.998c.935 0 1.814.364 2.476 1.026s1.025 1.541 1.024 2.476L36.5 27.5H3.514z" fill="#c6bae6"></path><path d="M33.012 7a2.98 2.98 0 012.122.879c.567.567.879 1.321.878 2.123L36.001 27H4.014V10c0-1.654 1.346-3 3-3h25.998m0-1H7.014a4 4 0 00-4 4v18H37l.012-17.997a4 4 0 00-4-4.003z" fill="#8b75a1"></path><path fill="#f5ce85" d="M1.5 27.5h4v6h-4z"></path><path d="M5 28v5H2v-5h3m1-1H1v7h5v-7z" fill="#967a44"></path><g><path fill="#f5ce85" d="M34.5 27.5h4v6h-4z"></path><path d="M38 28v5h-3v-5h3m1-1h-5v7h5v-7z" fill="#967a44"></path></g><g><path d="M1.5 30.5V18c0-1.378 1.122-2.5 2.5-2.5s2.5 1.122 2.5 2.5v3.411l.577-.09C9.046 21.015 13.343 20.5 20 20.5s10.954.515 12.923.821l.577.09V18c0-1.378 1.122-2.5 2.5-2.5s2.5 1.122 2.5 2.5v12.5h-37z" fill="#dcd5f2"></path><path d="M36 16c1.103 0 2 .897 2 2v12H2V18c0-1.103.897-2 2-2s2 .897 2 2v3.995l1.154-.18C9.109 21.511 13.379 21 20 21s10.89.511 12.846.815l1.154.18V18c0-1.103.897-2 2-2m0-1a3 3 0 00-3 3v2.827C31.163 20.541 26.794 20 20 20c-6.795 0-11.163.541-13 .827V18a3 3 0 10-6 0v13h38V18a3 3 0 00-3-3z" fill="#8b75a1"></path></g></svg>