<svg viewBox="0 0 40 40" xmlns="http://www.w3.org/2000/svg"><path d="M3.657 32.5A2.16 2.16 0 011.5 30.343V9.657c0-1.19.967-2.157 2.157-2.157h32.687a2.16 2.16 0 012.157 2.157v20.687a2.16 2.16 0 01-2.157 2.157H3.657z" fill="#f2faff"></path><path d="M36.343 8C37.257 8 38 8.743 38 9.657v20.687c0 .913-.743 1.656-1.657 1.656H3.657A1.658 1.658 0 012 30.343V9.657C2 8.743 2.743 8 3.657 8h32.686m0-1H3.657A2.656 2.656 0 001 9.657v20.687A2.656 2.656 0 003.657 33h32.687A2.656 2.656 0 0039 30.343V9.657A2.656 2.656 0 0036.343 7z" fill="#788b9c"></path><path d="M24.5 16.571V15a4.5 4.5 0 00-9 0v1.571" fill="none" stroke="#66798f" stroke-miterlimit="10"></path><path d="M12.5 27.5v-8.833a2.17 2.17 0 012.167-2.167h10.667a2.17 2.17 0 012.167 2.167V27.5H12.5z" fill="#f5ce85"></path><path d="M25.333 17A1.67 1.67 0 0127 18.667V27H13v-8.333A1.67 1.67 0 0114.667 17h10.666m0-1H14.667A2.667 2.667 0 0012 18.667V28h16v-9.333A2.667 2.667 0 0025.333 16z" fill="#967a44"></path><path fill="#ffeea3" d="M13 26h14v1H13zM13 24h14v1H13zM13 22h14v1H13zM13 20h14v1H13zM13 19h14c.023-.691-.076-.851-.136-1H13.137c-.155.305-.137.587-.137 1z"></path></svg>