<svg viewBox="0 0 40 40" xmlns="http://www.w3.org/2000/svg"><path fill="#f5ce85" d="M5.5 33.5h29v5h-29z"></path><path d="M34 34v4H6v-4h28m1-1H5v6h30v-6z" fill="#967a44"></path><path fill="#f5ce85" d="M5.5 28.5h29v5h-29z"></path><path d="M34 29v4H6v-4h28m1-1H5v6h30v-6z" fill="#967a44"></path><path fill="#f5ce85" d="M5.5 23.5h29v5h-29z"></path><path d="M34 24v4H6v-4h28m1-1H5v6h30v-6z" fill="#967a44"></path><path fill="#f5ce85" d="M5.5 18.5h29v5h-29z"></path><path d="M34 19v4H6v-4h28m1-1H5v6h30v-6z" fill="#967a44"></path><path fill="#f5ce85" d="M5.5 13.5h29v5h-29z"></path><path d="M34 14v4H6v-4h28m1-1H5v6h30v-6z" fill="#967a44"></path><path fill="#f5ce85" d="M6.361 13.5l5.889-5h15.761l5.667 5z"></path><path d="M27.822 9l4.533 4H7.723l4.711-4h15.388m.378-1H12.067L5 14h30l-6.8-6z" fill="#967a44"></path><path fill="#f5ce85" d="M15.935 8.5l3.333-5h1.464l3.333 5z"></path><path d="M20.465 4l2.667 4h-6.263l2.667-4h.929M21 3h-2l-4 6h10l-4-6z" fill="#967a44"></path><circle cx="35" cy="36" r="2.5" fill="#f5ce85"></circle><path d="M35 34c1.103 0 2 .897 2 2s-.897 2-2 2-2-.897-2-2 .897-2 2-2m0-1a3 3 0 100 6 3 3 0 000-6z" fill="#967a44"></path><circle cx="35" cy="31" r="2.5" fill="#f5ce85"></circle><path d="M35 29c1.103 0 2 .897 2 2s-.897 2-2 2-2-.897-2-2 .897-2 2-2m0-1a3 3 0 100 6 3 3 0 000-6z" fill="#967a44"></path><circle cx="35" cy="26" r="2.5" fill="#f5ce85"></circle><path d="M35 24c1.103 0 2 .897 2 2s-.897 2-2 2-2-.897-2-2 .897-2 2-2m0-1a3 3 0 100 6 3 3 0 000-6z" fill="#967a44"></path><g><circle cx="35" cy="21" r="2.5" fill="#f5ce85"></circle><path d="M35 19c1.103 0 2 .897 2 2s-.897 2-2 2-2-.897-2-2 .897-2 2-2m0-1a3 3 0 100 6 3 3 0 000-6z" fill="#967a44"></path></g><g><circle cx="35" cy="16" r="2.5" fill="#f5ce85"></circle><path d="M35 14c1.103 0 2 .897 2 2s-.897 2-2 2-2-.897-2-2 .897-2 2-2m0-1a3 3 0 100 6 3 3 0 000-6z" fill="#967a44"></path></g><g><circle cx="5" cy="36" r="2.5" fill="#f5ce85"></circle><path d="M5 34c1.103 0 2 .897 2 2s-.897 2-2 2-2-.897-2-2 .897-2 2-2m0-1a3 3 0 100 6 3 3 0 000-6z" fill="#967a44"></path></g><g><circle cx="5" cy="31" r="2.5" fill="#f5ce85"></circle><path d="M5 29c1.103 0 2 .897 2 2s-.897 2-2 2-2-.897-2-2 .897-2 2-2m0-1a3 3 0 100 6 3 3 0 000-6z" fill="#967a44"></path></g><g><circle cx="5" cy="26" r="2.5" fill="#f5ce85"></circle><path d="M5 24c1.103 0 2 .897 2 2s-.897 2-2 2-2-.897-2-2 .897-2 2-2m0-1a3 3 0 100 6 3 3 0 000-6z" fill="#967a44"></path></g><g><circle cx="5" cy="21" r="2.5" fill="#f5ce85"></circle><path d="M5 19c1.103 0 2 .897 2 2s-.897 2-2 2-2-.897-2-2 .897-2 2-2m0-1a3 3 0 100 6 3 3 0 000-6z" fill="#967a44"></path></g><g><circle cx="5" cy="16" r="2.5" fill="#f5ce85"></circle><path d="M5 14c1.103 0 2 .897 2 2s-.897 2-2 2-2-.897-2-2 .897-2 2-2m0-1a3 3 0 100 6 3 3 0 000-6z" fill="#967a44"></path></g><g><path fill="#b08159" d="M19.997 6.097L1.5 16.159v-3.871l18.497-10.71L38.5 12.288v3.871z"></path><path d="M19.997 2.155L38 12.577v2.741l-17.526-9.53-.478-.26-.478.26L2 15.318v-2.741L19.997 2.155m0-1.155L1 12v5L19.997 6.667 39 17v-5L19.997 1z" fill="#704e34"></path></g><g><path fill="#b08159" d="M14.5 21.5h11v17h-11z"></path><path d="M25 22v16H15V22h10m1-1H14v18h12V21z" fill="#704e34"></path></g><path fill="none" stroke="#704e34" stroke-miterlimit="10" d="M23.5 29v3"></path></svg>