<svg viewBox="0 0 40 40" xmlns="http://www.w3.org/2000/svg"><path d="M15.929 8.857S17.579 7.5 20 7.5s4.071 1.357 4.071 1.357" fill="none" stroke="#66798f" stroke-miterlimit="10"></path><path d="M27.648 34.5c-3.597 0-6.227-1.567-7.648-3.191-1.422 1.624-4.052 3.191-7.648 3.191-4.289 0-6.852-3.3-6.852-6.49 0-1.589.703-2.787.732-2.837l.146-.244h.953v.5c0 2.701 1.119 4.071 3.325 4.071 1.383 0 2.035-1.166 2.791-2.517.915-1.633 1.951-3.483 4.517-3.483.777 0 1.495.432 2.036.889.541-.457 1.259-.889 2.036-.889 2.565 0 3.602 1.851 4.517 3.483.756 1.351 1.408 2.517 2.791 2.517 2.206 0 3.325-1.37 3.325-4.071v-.5h.953l.146.244c.029.05.732 1.248.732 2.837 0 3.19-2.563 6.49-6.852 6.49z" fill="#ffc49c"></path><path d="M22.036 24c4.326 0 3.778 6 7.308 6 3.348 0 3.826-2.855 3.826-4.571h.169s.662 1.111.662 2.581c0 3.116-2.556 5.99-6.351 5.99-3.926 0-6.519-1.925-7.649-3.493-1.13 1.568-3.724 3.493-7.65 3.493C8.556 34 6 31.126 6 28.01c0-1.47.662-2.581.662-2.581h.169c0 1.716.478 4.571 3.826 4.571 3.53 0 2.982-6 7.308-6 .834 0 1.628.664 2.036 1.067.406-.403 1.201-1.067 2.035-1.067m0-1c-.768 0-1.469.341-2.036.754-.567-.413-1.267-.754-2.036-.754-2.859 0-4.02 2.074-4.953 3.74-.808 1.443-1.316 2.26-2.355 2.26-.699 0-2.826 0-2.826-3.571v-1H6.094l-.291.488C5.721 25.055 5 26.314 5 28.01 5 31.446 7.75 35 12.351 35c3.468 0 6.085-1.401 7.649-2.961C21.564 33.599 24.181 35 27.649 35 32.25 35 35 31.446 35 28.01c0-1.696-.721-2.955-.803-3.093l-.291-.488h-1.737v1C32.169 29 30.043 29 29.344 29c-1.039 0-1.547-.817-2.355-2.26-.933-1.666-2.095-3.74-4.953-3.74z" fill="#a16a4a"></path><circle cx="29.5" cy="13.5" r="7" fill="#c8d1db"></circle><path d="M29.5 7c3.584 0 6.5 2.916 6.5 6.5S33.084 20 29.5 20 23 17.084 23 13.5 25.916 7 29.5 7m0-1a7.5 7.5 0 100 15 7.5 7.5 0 000-15z" fill="#66798f"></path><path fill="#66798f" d="M36 13h3v1h-3z"></path><g><circle cx="10.5" cy="13.5" r="7" fill="#c8d1db"></circle><path d="M10.5 7c3.584 0 6.5 2.916 6.5 6.5S14.084 20 10.5 20 4 17.084 4 13.5 6.916 7 10.5 7m0-1a7.5 7.5 0 100 15 7.5 7.5 0 000-15z" fill="#66798f"></path></g><path fill="#66798f" d="M4 14H1v-1h3z"></path></svg>