<svg viewBox="0 0 40 40" xmlns="http://www.w3.org/2000/svg"><path d="M19 37.5C9.351 37.5 1.5 29.649 1.5 20S9.351 2.5 19 2.5a17.485 17.485 0 0114.465 7.653v19.693A17.483 17.483 0 0119 37.5z" fill="#c2e8ff"></path><path d="M19 3c5.582 0 10.78 2.726 13.965 7.309v19.383A16.983 16.983 0 0119 37C9.626 37 2 29.374 2 20S9.626 3 19 3m0-1C9.059 2 1 10.059 1 20s8.059 18 18 18c6.24 0 11.736-3.177 14.965-8V10C30.736 5.177 25.24 2 19 2z" fill="#7496c4"></path><path d="M33.965 10H30v20h3.965A17.916 17.916 0 0037 20c0-3.701-1.12-7.139-3.035-10z" fill="#c2e8ff"></path><path fill="#4e7ab5" d="M33 19H13v2h20v5l6-6-6-6z"></path></svg>