<svg viewBox="0 0 40 40" xmlns="http://www.w3.org/2000/svg"><path d="M34 13.5c-2.481 0-4.5-2.019-4.5-4.5s2.019-4.5 4.5-4.5c3.196 0 4.5.821 4.5 2.833 0 2.436-2.016 6.167-4.5 6.167z" fill="#e8d47b"></path><path d="M34 5c3.331 0 4 .893 4 2.333C38 9.755 36.022 13 34 13c-2.206 0-4-1.794-4-4s1.794-4 4-4m0-1a5 5 0 000 10c2.761 0 5-3.905 5-6.667C39 4.572 36.761 4 34 4z" fill="#ba9b48"></path><path d="M6 13.5c-2.484 0-4.5-3.731-4.5-6.167C1.5 5.321 2.804 4.5 6 4.5c2.481 0 4.5 2.019 4.5 4.5S8.481 13.5 6 13.5z" fill="#e8d47b"></path><path d="M6 5c2.206 0 4 1.794 4 4s-1.794 4-4 4c-2.022 0-4-3.245-4-5.667C2 5.893 2.669 5 6 5m0-1c-2.761 0-5 .572-5 3.333C1 10.095 3.239 14 6 14A5 5 0 006 4z" fill="#ba9b48"></path><path d="M20 29.5c-2.652 0-5.055-1.364-6.427-3.649l-.073-.122-.126-.065C8.517 23.161 5.5 18.223 5.5 12.776V1.515h29v11.261c0 5.446-3.017 10.384-7.874 12.887l-.126.066-.073.122C25.055 28.136 22.652 29.5 20 29.5z" fill="#ffeea3"></path><path d="M34 2.015v10.761c0 5.258-2.913 10.026-7.603 12.443l-.253.13-.146.244C24.717 27.726 22.475 29 20 29s-4.717-1.274-5.998-3.407l-.146-.244-.253-.13C8.913 22.802 6 18.035 6 12.776V2.015h28m1-1H5v11.761c0 5.812 3.311 10.841 8.145 13.331C14.543 28.437 17.086 30 20 30s5.457-1.563 6.855-3.892C31.689 23.617 35 18.588 35 12.776V1.015z" fill="#ba9b48"></path><circle cx="26" cy="7" r="2" fill="#36404d"></circle><circle cx="14" cy="7" r="2" fill="#36404d"></circle><path fill="#ffeea3" d="M6 1h28v2H6z"></path><path d="M24.5 18h-9a.501.501 0 01-.5-.5c0-.275.225-.5.5-.5h9c.275 0 .5.225.5.5s-.225.5-.5.5z" fill="#ba9b48"></path><g><path d="M20 38.5c-.811 0-1.577-.572-2.319-1.125l-.399-.295-1.939-1.674C13.039 33.332 5.5 25.708 5.5 15v-2.466c2.607.359 4.257 3.49 5.599 6.035 1.157 2.196 2.072 3.931 3.447 3.931 1.054 0 1.749-.477 2.421-.938.76-.522 1.546-1.062 3.033-1.062s2.273.54 3.033 1.062c.672.461 1.367.938 2.421.938 1.375 0 2.29-1.735 3.447-3.931 1.342-2.545 2.991-5.676 5.599-6.035V15c0 10.708-7.539 18.332-9.851 20.414l-1.965 1.694-.365.268c-.742.552-1.508 1.124-2.319 1.124z" fill="#b27354"></path><path d="M34 13.16V15c0 10.503-7.413 17.996-9.669 20.028l-1.94 1.673c-.122.088-.245.18-.37.273C21.345 37.478 20.645 38 20 38s-1.345-.522-2.021-1.026c-.125-.093-.248-.185-.37-.273l-1.924-1.659C13.413 32.996 6 25.503 6 15v-1.84c2.033.665 3.416 3.29 4.657 5.643C11.893 21.148 12.869 23 14.545 23c1.21 0 2.003-.545 2.704-1.026C18.011 21.451 18.668 21 20 21s1.989.451 2.751.974c.7.481 1.494 1.026 2.704 1.026 1.677 0 2.653-1.852 3.889-4.197 1.24-2.353 2.623-4.978 4.656-5.643M35 12c-5.425 0-6.927 10-9.545 10-1.998 0-2.469-2-5.455-2s-3.456 2-5.455 2C11.927 22 10.425 12 5 12v3c0 9.512 5.863 17.045 10.016 20.785l1.973 1.702C17.879 38.126 18.858 39 20 39s2.121-.874 3.011-1.514l1.973-1.702C29.137 32.045 35 24.512 35 15v-3z" fill="#704e34"></path></g><path d="M24.331 33.028l-1.94 1.673c-.122.088-.245.18-.37.273C21.345 35.478 20.645 36 20 36s-1.345-.522-2.021-1.026c-.125-.093-.248-.185-.37-.273l-1.924-1.659c-2.26-2.036-9.601-9.463-9.678-19.879L6 13.16V15c0 10.503 7.413 17.996 9.685 20.042l1.924 1.659c.122.088.245.18.37.273C18.655 37.478 19.355 38 20 38s1.345-.522 2.021-1.026c.125-.093.248-.185.37-.273l1.94-1.673C26.587 32.996 34 25.503 34 15v-1.84l-.007.003c-.077 10.416-7.418 17.843-9.662 19.865z" fill="#935c41"></path><g><path d="M23.009 36.167l1.322-1.14c.309-.278.72-.668 1.19-1.145L23 28l.009 8.167zM13.229 32.542a30.582 30.582 0 002.456 2.5l.315.271V27l-2.771 5.542z" fill="#935c41"></path></g></svg>