<svg viewBox="0 0 40 40" xmlns="http://www.w3.org/2000/svg"><path fill="#f78f8f" d="M2.126 18.5H8.5v-17h23v17h6.374L20 38.255z"></path><path d="M31 2v17h5.747L20 37.509 3.253 19H9V2h22m1-1H8v17H1l19 21 19-21h-7V1z" fill="#c74343"></path><path d="M14.418 24v-1.675c1.475-.7 2.8-2.199 2.8-3.999 0-.451 0-.85-.1-1.325h-2.474v-2.125h2.125c-.1-.675-.225-1.499-.225-2.325 0-3.073 2.175-5.073 5.274-5.073 1.325 0 2.299.3 2.824.6l-.55 2.325c-.474-.25-1.175-.476-2.15-.476-1.874 0-2.524 1.25-2.524 2.725 0 .824.1 1.524.275 2.224h3.499v2.125h-3.224c.025.75.025 1.5-.175 2.225-.25.85-.75 1.574-1.45 2.199v.05h7.024V24H14.418z" fill="#fff"></path></svg>