<svg viewBox="0 0 40 40" xmlns="http://www.w3.org/2000/svg"><path fill="#bae0bd" d="M2.126 18.5H8.5v-17h23v17h6.374L20 38.255z"></path><path d="M31 2v17h5.747L20 37.509 3.253 19H9V2h22m1-1H8v17H1l19 21 19-21h-7V1z" fill="#5e9c76"></path><path d="M17.659 12.538c0-.876.785-1.631 2.4-1.631 1.829 0 3.145.518 4.168 1.139V9.09c-.76-.423-1.909-.671-3.449-.744V6.353H19.18v2.036c-1.336.131-2.408.601-3.219 1.407-.81.806-1.216 1.782-1.216 2.928 0 4.528 7.599 4.668 7.599 7.149 0 .883-1.106 1.565-2.34 1.565-2.526 0-4.539-1.069-4.962-1.412v3.032c1.277.664 2.657 1 4.138 1.007v2.31h1.598V24c1.438-.161 2.543-.611 3.318-1.352.772-.741 1.159-1.717 1.159-2.929 0-4.833-7.596-4.464-7.596-7.181z" fill="#fff"></path></svg>