<svg viewBox="0 0 40 40" xmlns="http://www.w3.org/2000/svg"><path d="M11.211 38.5C8.816 36.009 7.5 32.848 7.5 29.577c0-5.596 2.889-9.776 5.21-13.136 1.559-2.256 2.79-4.038 2.79-5.697V4.5h9v6.244c0 1.659 1.231 3.441 2.79 5.697 2.321 3.359 5.21 7.54 5.21 13.136 0 3.271-1.316 6.432-3.711 8.923H11.211z" fill="#c2e8ff"></path><path d="M24 5v5.744c0 1.815 1.27 3.654 2.879 5.982C29.16 20.028 32 24.138 32 29.577c0 3.074-1.214 6.05-3.426 8.423H11.426C9.214 35.627 8 32.651 8 29.577c0-5.439 2.84-9.549 5.121-12.851C14.73 14.398 16 12.559 16 10.744V5h8m1-1H15v6.744c0 3.854-8 9.404-8 18.833 0 3.671 1.598 6.995 4 9.423h18c2.402-2.429 4-5.752 4-9.423 0-9.429-8-14.978-8-18.833V4z" fill="#7496c4"></path><path d="M28.129 37H11.871C10.014 34.868 9 32.261 9 29.577c0-5.128 2.741-9.095 4.944-12.283 1.64-2.373 10.472-2.373 12.112 0C28.259 20.482 31 24.449 31 29.577c0 2.684-1.014 5.291-2.871 7.423z" fill="#fff"></path><path d="M15 8.5a.501.501 0 01-.5-.5V3.429c0-.692.477-1.294 1.16-1.463.862-.213 2.317-.466 4.34-.466s3.478.253 4.341.466c.682.169 1.159.77 1.159 1.463V8c0 .275-.225.5-.5.5H15z" fill="#dcd5f2"></path><path d="M20 2c1.974 0 3.385.246 4.221.452.459.113.779.514.779.976V8H15V3.428c0-.462.32-.864.779-.977C16.615 2.246 18.026 2 20 2m0-1c-1.997 0-3.473.237-4.46.481A2.007 2.007 0 0014 3.428V8a1 1 0 001 1h10a1 1 0 001-1V3.428a2.01 2.01 0 00-1.54-1.948C23.473 1.237 21.997 1 20 1z" fill="#8b75a1"></path><path fill="none" stroke="#36404d" stroke-miterlimit="10" d="M3 3l34 34"></path><path fill="none" stroke="#8b75a1" stroke-linecap="round" stroke-miterlimit="10" d="M21.5 2.5v-.674M18.5 2.5v-.674"></path></svg>