<svg viewBox="0 0 40 40" xmlns="http://www.w3.org/2000/svg"><path fill="#8bb7f0" d="M2.127 18.5H8.5v-17h23v17h6.373L20 38.255z"></path><path d="M31 2v17h5.747L20 37.509 3.253 19H9V2h22m1-1H8v17H1l19 21 19-21h-7V1z" fill="#4e7ab5"></path><path d="M25.686 23.879c-.825.5-2.225.999-3.824.999-2.275 0-4.325-.899-5.649-2.574-.8-.925-1.349-2.175-1.574-3.699h-1.6v-1.551h1.4v-.374c0-.326.025-.651.05-.925h-1.45v-1.549h1.675c.3-1.551.975-2.826 1.875-3.8 1.35-1.475 3.174-2.325 5.399-2.325 1.5 0 2.749.375 3.574.775l-.625 2.299a6.493 6.493 0 00-2.799-.651c-1.25 0-2.35.451-3.175 1.376-.525.549-.899 1.374-1.099 2.325h6.548v1.549h-6.849c-.05.274-.05.575-.05.9v.399h6.898v1.551h-6.623c.175 1.05.549 1.874 1.074 2.424.85.925 2.05 1.351 3.35 1.351 1.225 0 2.374-.425 2.95-.725l.524 2.225z" fill="#fff"></path></svg>