<svg viewBox="0 0 40 40" xmlns="http://www.w3.org/2000/svg"><path d="M20 38.5a2.2 2.2 0 01-1.568-.649L2.149 21.568a2.222 2.222 0 010-3.137L18.432 2.149c.419-.419.975-.649 1.568-.649s1.149.23 1.568.649L37.85 18.431c.42.42.65.976.65 1.569s-.23 1.149-.649 1.568L21.568 37.851A2.2 2.2 0 0120 38.5z" fill="#bae0bd"></path><path d="M20 2c.459 0 .89.179 1.215.503l16.282 16.282c.67.67.67 1.76 0 2.43L21.215 37.497c-.325.324-.756.503-1.215.503s-.89-.179-1.215-.503L2.503 21.215a1.72 1.72 0 010-2.43L18.785 2.503A1.71 1.71 0 0120 2m0-1c-.696 0-1.391.265-1.922.796L1.796 18.078a2.717 2.717 0 000 3.844l16.282 16.282c.531.531 1.226.796 1.922.796s1.391-.265 1.922-.796l16.282-16.282a2.717 2.717 0 000-3.844L21.922 1.796A2.708 2.708 0 0020 1z" fill="#5e9c76"></path><g><path fill="#45805b" d="M21 24V10h-2v14h-5l6 6 6-6z"></path></g></svg>