<svg viewBox="0 0 40 40" xmlns="http://www.w3.org/2000/svg"><path fill="#b0c1d4" d="M6.5 33.5v-1.54l3-.75V8.5H3.973l-1.333 4H1.5v-6h21v6h-1.14l-1.333-4H14.5v22.71l3 .75v1.54z"></path><path d="M22 7v5h-.279l-1.105-3.316L20.387 8H14V31.6l.757.189L17 32.35V33H7v-.65l2.243-.561L10 31.6V8H3.613l-.228.684L2.279 12H2V7h20m1-1H1v7h2l1.333-4H9v21.819l-3 .75V34h12v-2.431l-3-.75V9h4.667L21 13h2V6z" fill="#66798f"></path><g><path fill="#b0c1d4" d="M26.5 33.5v-1.57l3-1V18.5h-3.809l-1 2H23.5v-4h15v4h-1.191l-1-2H32.5v12.43l3 1v1.57z"></path><path d="M38 17v3h-.382l-.724-1.447-.276-.553H32V31.29l.684.228L35 32.29V33h-8v-.71l2.316-.772.684-.228V18h-4.618l-.276.553L24.382 20H24v-3h14m1-1H23v5h2l1-2h3v11.569l-3 1V34h10v-2.431l-3-1V19h3l1 2h2v-5z" fill="#66798f"></path></g></svg>