<svg viewBox="0 0 40 40" xmlns="http://www.w3.org/2000/svg"><path d="M4 32.5A2.503 2.503 0 011.5 30V10c0-1.379 1.122-2.5 2.5-2.5h32c1.378 0 2.5 1.121 2.5 2.5v20c0 1.379-1.122 2.5-2.5 2.5H4z" fill="#f78f8f"></path><path d="M36 8c1.103 0 2 .897 2 2v20c0 1.103-.897 2-2 2H4c-1.103 0-2-.897-2-2V10c0-1.103.897-2 2-2h32m0-1H4a3 3 0 00-3 3v20a3 3 0 003 3h32a3 3 0 003-3V10a3 3 0 00-3-3z" fill="#c74343"></path><g><path d="M14.752 19.533c-1.235 0-2.219-.396-2.95-1.189s-1.097-1.851-1.097-3.175c0-1.447.388-2.586 1.164-3.419s1.822-1.249 3.139-1.249c1.276 0 2.265.386 2.968 1.158s1.054 1.857 1.054 3.255-.394 2.517-1.182 3.358c-.788.84-1.82 1.261-3.096 1.261zm.171-7.326c-.666 0-1.193.256-1.579.768s-.579 1.215-.579 2.109c0 .878.189 1.56.567 2.048.378.488.896.731 1.554.731s1.174-.254 1.548-.762c.374-.508.561-1.213.561-2.115 0-.878-.185-1.56-.555-2.048-.369-.488-.875-.731-1.517-.731zm11.666-1.451L15.374 28.358h-1.743l11.203-17.602h1.755zm-1.573 17.749c-1.235 0-2.219-.396-2.95-1.189-.731-.792-1.097-1.851-1.097-3.175 0-1.447.388-2.586 1.164-3.419.776-.833 1.822-1.249 3.139-1.249 1.276 0 2.265.386 2.968 1.158.703.772 1.054 1.857 1.054 3.255s-.394 2.517-1.182 3.358c-.788.84-1.82 1.261-3.096 1.261zm.171-7.327c-.666 0-1.193.256-1.579.768-.386.512-.579 1.215-.579 2.109 0 .878.189 1.56.567 2.048.378.488.896.731 1.554.731s1.174-.254 1.548-.762c.374-.508.561-1.213.561-2.115 0-.878-.185-1.56-.555-2.048-.369-.487-.875-.731-1.517-.731z" fill="#fff"></path></g></svg>