<svg viewBox="0 0 40 40" xmlns="http://www.w3.org/2000/svg"><path d="M6.719 35.5c-.465 0-.747-.021-.757-.022-2.437-.001-4.462-2.06-4.462-4.497 0-4.223.931-7.957 2.847-11.416 4.341-7.839 8.501-8.065 8.961-8.065 1.969 0 3.192 1.176 3.192 3.069v13.408c0 2.967-1.313 5.101-3.904 6.341-2.148 1.028-4.604 1.182-5.877 1.182z" fill="#ffd6d6"></path><path d="M13.308 12c1.711 0 2.692.936 2.692 2.569v13.408C16 34.316 9.51 35 6.719 35c-.434 0-.7-.019-.718-.02l-.039-.003h-.039C3.797 34.977 2 33.147 2 30.981c0-4.135.911-7.79 2.784-11.174C8.986 12.219 12.878 12 13.308 12m0-1c-1.026 0-5.171.689-9.399 8.323C1.493 23.688 1 27.88 1 30.981c0 2.771 2.324 4.995 4.923 4.995 0 0 .298.023.796.023C9.259 36 17 35.392 17 27.976V14.569C17 12.483 15.661 11 13.308 11z" fill="#c74343"></path><path d="M12.708 21.258c-1.336-.417-2.208-1.37-2.208-2.459 0-.204.01-.406.028-.605.072.335.173.635.31.862.507.844 1.402 1.275 2.219 1.435l-.349.767z" fill="#d86464"></path><path d="M11 15c-.355.487-1 2.145-1 3.799 0 1.52 1.311 2.681 2.989 3.05l.809-1.784c-.894 0-1.996-.372-2.532-1.266-.509-.85-.438-3.223-.266-3.799z" fill="#c74343"></path><path d="M13.476 24.775c-.173-1.115-.538-2.055-1.093-2.813l.604-.146c.481.855.574 1.95.489 2.959z" fill="#d86464"></path><path d="M13.216 21.246l-1.749.423C12.641 22.797 13.359 24.781 13 28c.547-.415 1.828-4.503.216-6.754z" fill="#c74343"></path><path d="M7.497 22.811c.632-.832 1.482-1.311 2.302-1.311.157-.004.444-.006.765-.006l.762.002a8.019 8.019 0 01-.227.609 4.431 4.431 0 00-1.275-.199c-.867.001-1.635.295-2.327.905z" fill="#d86464"></path><path d="M10.563 20.994c-.326 0-.619.001-.764.006C8.005 21 6 22.966 6 26c1.082-2.513 2.306-3.594 3.823-3.593.454 0 .935.097 1.445.281a.05.05 0 00.017.003C11.528 22.691 12 21 12 21s-.785-.006-1.437-.006z" fill="#c74343"></path><path d="M33.281 35.5c-2.941 0-9.781-.733-9.781-7.523V14.569c0-1.893 1.224-3.069 3.192-3.069.46 0 4.62.227 8.961 8.065 1.916 3.459 2.847 7.193 2.847 11.416 0 2.437-2.025 4.495-4.423 4.495-.049.003-.331.024-.796.024z" fill="#ffd6d6"></path><path d="M26.692 12c.43 0 4.322.219 8.524 7.808C37.089 23.191 38 26.846 38 30.981c0 2.166-1.797 3.995-3.923 3.995h-.039L34 34.98c-.019.001-.285.02-.719.02C30.49 35 24 34.316 24 27.976V14.569c0-1.633.981-2.569 2.692-2.569m0-1C24.339 11 23 12.483 23 14.569v13.408C23 35.392 30.741 36 33.281 36c.498 0 .796-.023.796-.023 2.599 0 4.923-2.224 4.923-4.995 0-3.102-.493-7.293-2.909-11.658C31.864 11.689 27.719 11 26.692 11z" fill="#c74343"></path><path d="M26.943 20.491c.816-.16 1.712-.591 2.219-1.435.137-.228.237-.527.31-.862.019.199.028.401.028.605 0 1.089-.872 2.042-2.208 2.459l-.349-.767z" fill="#d86464"></path><path d="M29 15c.172.576.243 2.949-.266 3.799-.536.894-1.639 1.266-2.532 1.266l.809 1.784C28.689 21.48 30 20.318 30 18.799c0-1.654-.645-3.312-1-3.799z" fill="#c74343"></path><path d="M26.524 24.775c-.085-1.009.008-2.104.489-2.959l.604.146c-.554.758-.92 1.698-1.093 2.813z" fill="#d86464"></path><path d="M26.784 21.246c-1.612 2.251-.331 6.339.216 6.754-.359-3.219.359-5.203 1.534-6.331l-1.75-.423z" fill="#c74343"></path><g><path d="M32.498 22.807c-.691-.607-1.457-.9-2.321-.9-.406 0-.826.065-1.275.199a8.66 8.66 0 01-.227-.609l.762-.002c.32 0 .607.001.75.006.826-.001 1.677.477 2.311 1.306z" fill="#d86464"></path><path d="M29.437 20.994C28.785 20.994 28 21 28 21s.472 1.691.715 1.691a.047.047 0 00.017-.003c.51-.184.991-.281 1.445-.281 1.517 0 2.741 1.081 3.823 3.593 0-3.034-2.005-5-3.799-5a34.76 34.76 0 00-.764-.006z" fill="#c74343"></path></g><g><path d="M31.418 27.683c-.729-.487-1.442-1.337-1.941-2.88-.929-2.871-3.396-4.387-5.78-5.853-1.156-.71-2.351-1.444-3.368-2.328L20 16.338l-.328.285c-1.018.883-2.212 1.617-3.368 2.328-2.385 1.466-4.852 2.981-5.78 5.853-.499 1.542-1.212 2.393-1.941 2.88.813-.767 1.593-1.843 1.908-3.429.639-3.211 2.041-4.588 3.462-5.598 3.467-2.465 4.544-5.41 4.548-5.647V3.5h3V13c.004.246 1.081 3.191 4.548 5.656 1.421 1.01 2.823 2.387 3.462 5.598.314 1.585 1.094 2.662 1.907 3.429z" fill="#f78f8f"></path><path d="M21 4v9.013c.007.548 1.268 3.569 4.758 6.05.817.581 1.627 1.291 2.272 2.45-1.168-1.204-2.635-2.105-4.073-2.989-1.138-.7-2.316-1.423-3.302-2.279L20 15.676l-.656.569c-.986.856-2.164 1.58-3.302 2.279-1.438.884-2.905 1.785-4.073 2.989.645-1.159 1.456-1.869 2.272-2.45C17.732 16.582 18.993 13.561 19 13V4h2m1-1h-4v10c-.001.06-.961 2.848-4.338 5.248-1.521 1.081-2.999 2.571-3.662 5.908-.623 3.131-3.156 4.078-4 4.844.831-.297 3.668.071 4.999-4.043C12.305 20.921 16.844 19.74 20 17c3.156 2.74 7.695 3.921 9.001 7.957C30.332 29.071 33.169 28.703 34 29c-.844-.766-3.377-1.713-4-4.844-.664-3.337-2.142-4.827-3.662-5.908C22.961 15.848 22.001 13.06 22 13V3z" fill="#c74343"></path></g><g><path fill="#d86464" d="M18 9h4v1h-4z"></path><path fill="#c74343" d="M22 9h-4v1h4V9z"></path></g><g><path fill="#d86464" d="M18 6h4v1h-4z"></path><path fill="#c74343" d="M22 6h-4v1h4V6z"></path></g><g><path fill="#f78f8f" d="M19 3h2v2h-2z"></path></g><g><path fill="#d86464" d="M18 12h4v1h-4z"></path><path fill="#c74343" d="M22 12h-4v1h4v-1z"></path></g></svg>