<svg viewBox="0 0 40 40" xmlns="http://www.w3.org/2000/svg"><path fill="#b0c1d4" d="M15.559 35.5l.888-8h7.106l.888 8z"></path><path d="M23.105 28l.778 7h-7.766l.778-7h6.21M24 27h-8l-1 9h10l-1-9z" fill="#66798f"></path><path d="M3 30.5c-.827 0-1.5-.673-1.5-1.5V6c0-.827.673-1.5 1.5-1.5h34c.827 0 1.5.673 1.5 1.5v23c0 .827-.673 1.5-1.5 1.5H3z" fill="#c2e8ff"></path><path d="M37 5c.551 0 1 .449 1 1v23c0 .551-.449 1-1 1H3c-.551 0-1-.449-1-1V6c0-.551.449-1 1-1h34m0-1H3a2 2 0 00-2 2v23a2 2 0 002 2h34a2 2 0 002-2V6a2 2 0 00-2-2z" fill="#66798f"></path><path fill="#66798f" d="M2 26h36v4H2z"></path><path d="M24.89 13.751c-.056.035-1.382.77-1.382 2.402 0 1.692 1.455 2.404 1.701 2.515-.046.195-1.298 3.332-2.807 3.332-.812 0-1.104-.513-2.041-.513-1.008 0-1.292.513-2.062.513C17.039 22 15 19.3 15 16.34c0-2.264 1.356-3.834 3.126-3.834.82 0 1.548.563 2.049.563.48 0 1.375-.563 2.389-.563.435.001 1.602.132 2.326 1.245zm-4.859-1.762c-.146-.728.257-1.459.632-1.924.48-.563 1.235-.945 1.889-.945a2.694 2.694 0 01-.701 1.966c-.418.563-1.148.987-1.82.903z" fill="#36404d"></path><path fill="#66798f" d="M12 35h16v2H12z"></path><circle cx="20" cy="28" r="1" fill="#36404d"></circle></svg>