<svg viewBox="0 0 40 40" xmlns="http://www.w3.org/2000/svg"><path d="M20 36.5c-10.201 0-18.5-4.755-18.5-10.6v-1.8c0-5.845 8.299-10.6 18.5-10.6s18.5 4.755 18.5 10.6v1.8c0 5.845-8.299 10.6-18.5 10.6z" fill="#f78f8f"></path><path d="M20 14c9.757 0 18 4.625 18 10.1v1.8C38 31.375 29.757 36 20 36S2 31.375 2 25.9v-1.8C2 18.625 10.243 14 20 14m0-1C9.471 13 1 18 1 24.1v1.8C1 32 9.471 37 20 37s19-5 19-11.1v-1.8C39 18 30.529 13 20 13z" fill="#c74343"></path><path d="M39 18.87c0-6.209-8.471-11.298-19-11.298S1 12.661 1 18.87v1.832c0 1.932.82 3.756 2.268 5.352.894.986 1.807.822 3.134 1.606 1.201.709 2.782 2.386 4.266 2.885 1.39.468 2.89-.06 4.471.188C16.69 30.976 18.319 32 20 32c1.558 0 3.071-1.006 4.518-1.216 1.732-.251 3.371.25 4.879-.262 1.646-.559 2.916-2.321 4.206-3.135 1.122-.708 2.312-.439 3.099-1.3C38.168 24.484 39 22.648 39 20.702V18.87z" fill="#c74343"></path><path d="M19 28.5a.5.5 0 11-1 0 .5.5 0 011 0zM16.5 30a.5.5 0 100 1 .5.5 0 000-1zm0-4a.5.5 0 100 1 .5.5 0 000-1zm-12-4a.5.5 0 100 1 .5.5 0 000-1zm2 2a.5.5 0 100 1 .5.5 0 000-1zm-2 2a.5.5 0 00-.5.5c0 .054.015.103.031.152.219.119.446.211.685.295A.499.499 0 004.5 26zm10 2a.5.5 0 100 1 .5.5 0 000-1zm16 0a.5.5 0 100 1 .5.5 0 000-1zm2-2a.5.5 0 100 1 .5.5 0 000-1zm-2-2a.5.5 0 100 1 .5.5 0 000-1zm5.5 2.5c0 .023.01.043.013.065.251-.108.484-.254.688-.478l.023-.028A.497.497 0 0036.5 26a.5.5 0 00-.5.5zM26.5 28a.5.5 0 100 1 .5.5 0 000-1zm2 2a.5.5 0 00-.5.5.49.49 0 00.076.25c.304-.015.603-.052.897-.117.012-.044.027-.086.027-.133a.5.5 0 00-.5-.5zm0-4a.5.5 0 100 1 .5.5 0 000-1zm-4 0a.5.5 0 100 1 .5.5 0 000-1zm0 4a.5.5 0 00-.345.859c.121-.028.243-.057.364-.075.137-.02.273-.028.409-.04A.494.494 0 0025 30.5a.5.5 0 00-.5-.5zm-2-2a.5.5 0 100 1 .5.5 0 000-1zm16-8a.5.5 0 100 1 .5.5 0 000-1zm-36 0a.5.5 0 100 1 .5.5 0 000-1zm0 4a.493.493 0 00-.471.359c.122.211.254.42.396.626.025.004.048.015.075.015a.5.5 0 000-1zm32 0a.5.5 0 100 1 .5.5 0 000-1zm2-2a.5.5 0 100 1 .5.5 0 000-1zm-26 2a.5.5 0 100 1 .5.5 0 000-1zm0 4a.5.5 0 100 1 .5.5 0 000-1zm2 2a.5.5 0 00-.5.5c0 .089.03.169.071.241.289.001.581-.01.877-.027A.5.5 0 0013 30.5a.5.5 0 00-.5-.5zm-4-4a.5.5 0 100 1 .5.5 0 000-1zm4 0a.5.5 0 100 1 .5.5 0 000-1zm8 4a.5.5 0 100 1 .5.5 0 000-1zm0-4a.5.5 0 100 1 .5.5 0 000-1z" fill="#942929"></path><path d="M20 26.5c-10.201 0-18.5-4.755-18.5-10.6v-1.8C1.5 8.255 9.799 3.5 20 3.5s18.5 4.755 18.5 10.6v1.8c0 5.845-8.299 10.6-18.5 10.6z" fill="#f78f8f"></path><path d="M20 4c9.757 0 18 4.625 18 10.1v1.8C38 21.375 29.757 26 20 26S2 21.375 2 15.9v-1.8C2 8.625 10.243 4 20 4m0-1C9.471 3 1 8 1 14.1v1.8C1 22 9.471 27 20 27s19-5 19-11.1v-1.8C39 8 30.529 3 20 3z" fill="#c74343"></path><path d="M6.429 16.75C9.29 19.573 14.35 21.5 20 21.5c5.65 0 10.71-1.927 13.571-4.75" fill="none" stroke="#fcc5c5" stroke-linecap="round" stroke-miterlimit="10"></path></svg>