<svg viewBox="0 0 40 40" xmlns="http://www.w3.org/2000/svg"><path d="M7.5 38.5v-28H13c15.02 0 20.625-1.75 22.5-2.635v28.766c-1.414.403-7.591 1.869-22.552 1.869H7.5z" fill="#c2e8ff"></path><path d="M35 8.626v27.623C33.098 36.736 26.825 38 12.948 38H8V11h5c13.509 0 19.48-1.4 22-2.374M36 7s-3.29 3-23 3H7v29h5.948C30.557 39 36 37 36 37V7z" fill="#7496c4"></path><path d="M7.5 37.89V8.5H10c14.942 0 20.578-2.292 22.5-3.486v29.745c-.815.561-5.481 3.132-22.5 3.132H7.5z" fill="#c2e8ff"></path><path d="M32 5.874v28.608c-1.192.694-6.233 2.908-22 2.908H8V9h2c13.412 0 19.42-1.824 22-3.126M33 4s-3.236 4-23 4H7v30.39h3c19.704 0 23-3.39 23-3.39V4z" fill="#7496c4"></path><path d="M7.5 5.5H9c13.68-.096 18.705-2.122 20.5-3.357v29.71c-.509.716-4.601 5.554-22 5.645V5.5z" fill="#c2e8ff"></path><path d="M29 3.026v28.659c-.738.912-5.022 5.14-21 5.309V6h1.007C21.111 5.915 26.563 4.323 29 3.026M30 1S27.862 4.868 9 5H7v33c19.821 0 23-6 23-6V1z" fill="#7496c4"></path><path d="M9 39H6a2 2 0 01-2-2V7a2 2 0 012-2h3v34z" fill="#7496c4"></path><ellipse cx="18" cy="13.667" rx="2" ry="2.667" fill="#7496c4"/><path d="M24 22c-2.698 2.58-6.954 3-11 3 0-4.691 2.174-7.037 5.283-7.037S23.062 19.596 24 22zM24 26c-5.021 2.262-11 2-11 2v1s7.365 0 11-2v-1z" fill="#7496c4"></path></svg>