<svg viewBox="0 0 40 40" xmlns="http://www.w3.org/2000/svg"><path d="M8.721 24.961c-1.198-.193-5.925-1.294-7.651-7.426C2.373 18.813 5.034 21 8 21h.026A20.197 20.197 0 018 20c-3.681 0-7-4-7-4H0c0 10.877 9.333 13.333 9.333 13.333l3.317.921c-1.56-1.031-3.072-2.677-3.929-5.293z" fill="#f5c276"></path><circle cx="17" cy="14" r="1.5" fill="#ffeea3"></circle><path d="M17 13c.551 0 1 .449 1 1s-.449 1-1 1-1-.449-1-1 .449-1 1-1m0-1a2 2 0 10-.001 3.999A2 2 0 0017 12z" fill="#f5c276"></path><path d="M10.62 20.833C11.672 19.411 14.173 16.5 17 16.5c2.826 0 5.327 2.911 6.379 4.333H10.62z" fill="#ffeea3"></path><path d="M17 17c2.166 0 4.163 1.909 5.353 3.333H11.641C12.922 18.813 14.941 17 17 17m0-1c-4.05 0-7.333 5.333-7.333 5.333h14.667C24.333 21.333 21.05 16 17 16z" fill="#f5c276"></path><g><path d="M11.804 35.5c.51-.507 1.653-1.163 3.351-1.482l.316-.06.076-.313a1.495 1.495 0 012.905.001l.076.313.316.06c1.698.319 2.842.976 3.352 1.482H11.804z" fill="#ffeea3"></path><path d="M17 33c.459 0 .856.314.966.764l.153.627.634.119a8.67 8.67 0 011.69.49h-6.885a8.58 8.58 0 011.69-.49l.634-.119.153-.627A.993.993 0 0117 33m0-1c-.941 0-1.724.652-1.938 1.527C12.705 33.97 11 35.123 11 36h12c0-.877-1.705-2.03-4.062-2.473A1.997 1.997 0 0017 32z" fill="#f5c276"></path></g><g><path d="M16.998 31.5c-.453-.005-9.229-.251-9.492-11H23c.425-.009 10.028-.252 13.193-3h2.85c-9.674 13.592-21.766 13.994-22.045 14z" fill="#ffeea3"></path><path d="M38.06 18c-9.471 12.676-20.952 12.998-21.051 13-.356-.004-8.465-.215-8.983-10h14.996c1.04-.023 9.983-.298 13.352-3h1.686M40 17h-4c-2.889 2.778-13 3-13 3H7c0 11.944 10 12 10 12s12.899-.138 23-15z" fill="#f5c276"></path></g></svg>