<svg viewBox="0 0 40 40" xmlns="http://www.w3.org/2000/svg"><path fill="#f5c276" d="M22.5 27.5h4v11h-4z"></path><path d="M26 28v10h-3V28h3m1-1h-5v12h5V27z" fill="#c29653"></path><path d="M6.5 27.5V14c0-3.584 2.916-6.5 6.5-6.5h19c3.584 0 6.5 2.916 6.5 6.5v13.5h-32z" fill="#8bb7f0"></path><path d="M32 8c3.308 0 6 2.692 6 6v13H7V14c0-3.308 2.692-6 6-6h19m0-1H13c-3.85 0-7 3.15-7 7v13H1v1h38V14c0-3.85-3.15-7-7-7z" fill="#4e7ab5"></path><path d="M6.5 27.5V13.853C6.5 10.409 9.477 7.5 13 7.5c3.584 0 6.5 2.916 6.5 6.5v13.5h-13z" fill="#7496c4"></path><path d="M13 8c3.308 0 6 2.692 6 6v13H7V13.853C7 10.68 9.748 8 13 8m0-1c-3.85 0-7 3.15-7 6.853V28h14V14c0-3.85-3.15-7-7-7z" fill="#4e7ab5"></path><path fill="#f78f8f" d="M24.5 1.5h5v3h-5z"></path><path d="M29 2v2h-4V2h4m1-1h-6v4h6V1z" fill="#c74343"></path><path fill="#c74343" d="M25 1h-1v11h1V1z"></path><g><circle cx="24.5" cy="12.5" r="1" fill="#f78f8f"></circle><path d="M24.5 12a.5.5 0 110 1 .5.5 0 010-1m0-1a1.5 1.5 0 10.001 3.001A1.5 1.5 0 0024.5 11z" fill="#c74343"></path></g><path d="M13 8c-3.252 0-6 2.68-6 5.853L19 27V14c0-3.308-2.692-6-6-6z" fill="#4e7ab5"></path><g><path fill="#ffeea3" d="M12 15h7v12h-7z"></path></g><path d="M19 20.953l-7-4.159v1.163l6.527 3.878c.151.09.312.146.473.203v-1.085z" fill="#ba9b48"></path></svg>