<svg viewBox="0 0 40 40" xmlns="http://www.w3.org/2000/svg"><path d="M34.5 35.5v-3h-29v3h-4v-29c0-1.103.897-2 2-2s2 .897 2 2v22h33v7h-4z" fill="#f5ce85"></path><path d="M3.5 5C4.327 5 5 5.673 5 6.5V29h33v6h-3v-3H5v3H2V6.5C2 5.673 2.673 5 3.5 5m0-1A2.5 2.5 0 001 6.5V36h5v-3h28v3h5v-8H6V6.5A2.5 2.5 0 003.5 4z" fill="#967a44"></path><path fill="#f78f8f" d="M5.5 25.5h33v3h-33z"></path><path d="M38 26v2H6v-2h32m1-1H5v4h34v-4z" fill="#c74343"></path><path d="M14.5 28.5v-21H32c3.584 0 6.5 2.916 6.5 6.5v14.5h-24z" fill="#f78f8f"></path><path d="M32 8c3.308 0 6 2.692 6 6v14H15V8h17m0-1H14v22h25V14a7 7 0 00-7-7z" fill="#c74343"></path><g><circle cx="10" cy="21" r="3.5" fill="#ffeea3"></circle><path d="M10 18c1.654 0 3 1.346 3 3s-1.346 3-3 3-3-1.346-3-3 1.346-3 3-3m0-1a4 4 0 100 8 4 4 0 000-8z" fill="#ba9b48"></path></g><g><circle cx="10" cy="12" r="3.5" fill="#ffeea3"></circle><path d="M10 9c1.654 0 3 1.346 3 3s-1.346 3-3 3-3-1.346-3-3 1.346-3 3-3m0-1a4 4 0 100 8 4 4 0 000-8z" fill="#ba9b48"></path></g><g><path d="M26.5 23.086c-1.91-1.388-6-4.847-6-7.186 0-1.875 1.525-3.4 3.4-3.4.828 0 1.632.314 2.265.884l.335.301.335-.301A3.387 3.387 0 0129.1 12.5c1.875 0 3.4 1.525 3.4 3.4 0 2.339-4.09 5.798-6 7.186z" fill="#fff"></path><path d="M29.1 13c1.599 0 2.9 1.301 2.9 2.9 0 1.84-3.166 4.827-5.5 6.567-2.334-1.738-5.5-4.723-5.5-6.567 0-1.599 1.301-2.9 2.9-2.9.704 0 1.39.268 1.931.755l.669.603.669-.603A2.89 2.89 0 0129.1 13m0-1c-1.003 0-1.909.39-2.6 1.012A3.874 3.874 0 0023.9 12a3.9 3.9 0 00-3.9 3.9c0 3.267 6.5 7.8 6.5 7.8s6.5-4.533 6.5-7.8a3.9 3.9 0 00-3.9-3.9z" fill="#c74343"></path></g></svg>