<svg viewBox="0 0 40 40" xmlns="http://www.w3.org/2000/svg"><path d="M14.5 37.5c-6.617 0-12-5.383-12-12s5.383-12 12-12c2.419 0 4.752.719 6.748 2.078l.342.233 2.125-2.125-3.008-3.008 2.099-2.099 3.008 3.008L31.901 5.5H24.5v-3h13v13h-3V8.099l-6.087 6.087 3.008 3.008-2.099 2.099-3.008-3.008-2.125 2.125.233.342A11.938 11.938 0 0126.5 25.5c0 6.617-5.383 12-12 12zm0-20c-4.411 0-8 3.589-8 8s3.589 8 8 8 8-3.589 8-8-3.589-8-8-8z" fill="#8bb7f0"></path><path d="M37 3v12h-2V6.892l-1.707 1.707-4.88 4.88-.707.707.707.707 2.301 2.301-1.392 1.392-2.301-2.301-.707-.707-.707.707-1.479 1.479-.586.586.466.685A11.431 11.431 0 0126 25.5C26 31.841 20.841 37 14.5 37S3 31.841 3 25.5 8.159 14 14.5 14c2.318 0 4.554.689 6.466 1.991l.685.466.586-.586 1.479-1.479.707-.707-.707-.707-2.301-2.301 1.392-1.392 2.301 2.301.707.707.707-.707 4.88-4.88L33.108 5H25V3h12M14.5 34c4.687 0 8.5-3.813 8.5-8.5S19.187 17 14.5 17 6 20.813 6 25.5 9.813 34 14.5 34M38 2H24v4h6.694l-4.88 4.88-3.008-3.008L20 10.678l3.008 3.008-1.479 1.479A12.439 12.439 0 0014.5 13C7.596 13 2 18.596 2 25.5S7.596 38 14.5 38 27 32.404 27 25.5c0-2.607-.8-5.026-2.165-7.029l1.479-1.479L29.322 20l2.806-2.806-3.008-3.008L34 9.306V16h4V2zM14.5 33a7.5 7.5 0 110-15 7.5 7.5 0 010 15z" fill="#4e7ab5"></path></svg>