<svg viewBox="0 0 40 40" xmlns="http://www.w3.org/2000/svg"><path d="M11 30.562a10.498 10.498 0 01-7.469-3.093c-4.119-4.119-4.119-10.82 0-14.938C5.526 10.536 8.179 9.437 11 9.437s5.474 1.099 7.469 3.094a10.506 10.506 0 012.915 5.548l.065.358h1.988v-4h3.125v4h7.106l-5.051-5.051 2.049-2.048 6.643 6.643.026-.027 2.072 2.072-2.072 2.072-.339.285-6.33 6.331-2.049-2.048 5.104-5.104h-7.16v4h-3.125v-4h-1.988l-.065.358a10.502 10.502 0 01-2.915 5.548A10.486 10.486 0 0111 30.562zm0-17c-3.55 0-6.438 2.888-6.438 6.438S7.45 26.438 11 26.438 17.437 23.55 17.437 20 14.55 13.562 11 13.562z" fill="#8bb7f0"></path><path d="M11 9v.875c2.705 0 5.248 1.053 7.16 2.966a10.06 10.06 0 012.793 5.318l.132.716h2.79v-4h2.251v4h8.599l-1.493-1.493-3.995-3.995 1.43-1.43 6.021 6.021.645.592 1.455 1.455-.026.028-1.429 1.429-.027-.027-.619.619-6.021 6.021-1.43-1.43 4.048-4.048 1.493-1.493H26.125v4.001h-2.251v-4H21.085l-.132.716a10.06 10.06 0 01-2.793 5.318A10.06 10.06 0 0111 30.125a10.058 10.058 0 01-7.16-2.966c-3.948-3.948-3.948-10.372 0-14.319a10.06 10.06 0 017.159-2.966L11 9m0 17.875c3.791 0 6.875-3.084 6.875-6.875S14.791 13.125 11 13.125 4.125 16.209 4.125 20 7.209 26.875 11 26.875M11 9c-2.815 0-5.63 1.074-7.778 3.222-4.296 4.296-4.296 11.261 0 15.556A10.965 10.965 0 0011 31c2.815 0 5.63-1.074 7.778-3.222A10.94 10.94 0 0021.813 22H23v4h4v-4h5.667L28 26.667l2.667 2.667 6.64-6.64.027.027L40 20.054l-.027-.027L40 20l-2.667-2.667-.027.027-6.64-6.64L28 13.387 32.613 18H27v-4h-4v4h-1.187a10.937 10.937 0 00-3.035-5.778A10.964 10.964 0 0011 9zm0 17a6 6 0 110-12 6 6 0 010 12z" fill="#4e7ab5"></path></svg>