<svg viewBox="0 0 40 40" xmlns="http://www.w3.org/2000/svg"><path d="M21 38.5c-5.79 0-10.5-4.71-10.5-10.5S15.21 17.5 21 17.5c2.096 0 4.12.616 5.853 1.782l.342.229 6.012-6.012H26.5v-3h12v12h-3v-6.707l-6.012 6.012.229.342A10.445 10.445 0 0131.5 28c0 5.79-4.71 10.5-10.5 10.5zm0-17c-3.584 0-6.5 2.916-6.5 6.5s2.916 6.5 6.5 6.5 6.5-2.916 6.5-6.5-2.916-6.5-6.5-6.5z" fill="#8bb7f0"></path><path d="M38 11v11h-2v-7.413l-1.707 1.707-4.867 4.868-.582.582.46.683A9.955 9.955 0 0131 28c0 5.514-4.486 10-10 10s-10-4.486-10-10 4.486-10 10-10c1.996 0 3.923.587 5.574 1.697l.683.46.582-.582 4.867-4.867L34.414 13H27v-2h11M21 35c3.86 0 7-3.14 7-7s-3.14-7-7-7-7 3.14-7 7 3.14 7 7 7m18-25H26v4h5.999l-4.867 4.867A10.955 10.955 0 0021 17c-6.075 0-11 4.925-11 11s4.925 11 11 11 11-4.925 11-11c0-2.271-.689-4.38-1.867-6.132L35 17.001V23h4V10zM21 34a6 6 0 110-12 6 6 0 010 12z" fill="#4e7ab5"></path><path d="M15 28a6 6 0 016-6c1.623 0 3.093.647 4.173 1.694.526-1.47.827-3.046.827-4.694 0-.296-.013-.591-.031-.885A10.94 10.94 0 0021.167 17c-6.075 0-11 4.925-11 11 0 1.79.437 3.474 1.195 4.968.213.009.422.032.638.032 1.648 0 3.224-.301 4.694-.827A5.976 5.976 0 0115 28zM26 10h7v3h-7z" fill="#4e7ab5"></path><g><path d="M12 29.5C6.21 29.5 1.5 24.79 1.5 19S6.21 8.5 12 8.5c2.096 0 4.12.616 5.853 1.782l.342.229L24.206 4.5H17.5v-3h12v12h-3V6.793l-6.012 6.012.229.342A10.44 10.44 0 0122.5 19c0 5.79-4.71 10.5-10.5 10.5zm0-17c-3.584 0-6.5 2.916-6.5 6.5s2.916 6.5 6.5 6.5 6.5-2.916 6.5-6.5-2.916-6.5-6.5-6.5z" fill="#8bb7f0"></path><path d="M29 2v11h-2V5.586l-1.707 1.707-4.867 4.868-.582.582.46.683A9.96 9.96 0 0122 19c0 5.514-4.486 10-10 10S2 24.514 2 19 6.486 9 12 9c1.996 0 3.923.587 5.574 1.697l.683.46.582-.582 4.867-4.867L25.414 4H18V2h11M12 26c3.86 0 7-3.14 7-7s-3.14-7-7-7-7 3.14-7 7 3.14 7 7 7M30 1H17v4h5.999l-4.867 4.867A10.955 10.955 0 0012 8C5.925 8 1 12.925 1 19s4.925 11 11 11 11-4.925 11-11c0-2.271-.689-4.38-1.867-6.132L26 8.001V14h4V1zM12 25a6 6 0 110-12 6 6 0 010 12z" fill="#4e7ab5"></path></g></svg>