<svg viewBox="0 0 40 40" xmlns="http://www.w3.org/2000/svg"><path d="M20 39.563a10.495 10.495 0 01-7.47-3.094c-4.118-4.119-4.118-10.82 0-14.938a10.504 10.504 0 015.548-2.914l.358-.066v-1.988h-4v-3.125h4V6.331l-5.051 5.05-2.048-2.048 6.64-6.64-.027-.027L20.028.593l2.073 2.073.282.336 6.331 6.331-2.048 2.048-5.104-5.104v7.16h4v3.125h-4v1.988l.358.066a10.5 10.5 0 015.548 2.914c4.118 4.119 4.118 10.82 0 14.938A10.486 10.486 0 0120 39.563zm0-17.001c-3.549 0-6.438 2.888-6.438 6.438S16.45 35.438 20 35.438 26.438 32.55 26.438 29 23.549 22.562 20 22.562z" fill="#8bb7f0"></path><path d="M20.001 1.236l.027.027.026-.026 1.429 1.429-.027.027.619.619 6.021 6.021-1.43 1.43-4.048-4.048-1.493-1.493v8.653h4v2.251h-4V18.915l.716.132a10.06 10.06 0 015.318 2.793c3.948 3.948 3.948 10.372 0 14.319a10.06 10.06 0 01-7.16 2.966 10.058 10.058 0 01-7.16-2.966c-3.948-3.948-3.948-10.372 0-14.319a10.06 10.06 0 015.318-2.793l.716-.132v-2.79h-3.998v-2.251h4V5.275l-1.493 1.493-3.995 3.995-1.43-1.43 6.021-6.021.592-.645 1.431-1.431M20 35.875c3.791 0 6.875-3.084 6.875-6.875S23.791 22.125 20 22.125 13.125 25.209 13.125 29s3.084 6.875 6.875 6.875M20.054 0l-.027.027L20 0l-2.667 2.667.027.027-6.64 6.64L13.387 12 18 7.387V13h-4v4h4v1.187a10.937 10.937 0 00-5.778 3.035c-4.296 4.296-4.296 11.261 0 15.556C14.37 38.926 17.185 40 20 40s5.63-1.074 7.778-3.222c4.296-4.296 4.296-11.261 0-15.556A10.94 10.94 0 0022 18.187V17h4v-4h-4V7.333L26.667 12l2.667-2.667-6.64-6.64.027-.027L20.054 0zM20 35a6 6 0 110-12 6 6 0 010 12z" fill="#4e7ab5"></path></svg>