<svg viewBox="0 0 40 40" xmlns="http://www.w3.org/2000/svg"><path d="M4.511 38.5c.263-6.11 5.316-11 11.489-11h8c6.173 0 11.227 4.89 11.489 11H4.511z" fill="#fff"></path><path d="M24 28c5.729 0 10.448 4.401 10.955 10H5.045C5.552 32.401 10.271 28 16 28h8m0-1h-8C9.373 27 4 32.373 4 39h32c0-6.627-5.373-12-12-12z" fill="#788b9c"></path><path fill="#e8d47b" d="M15.5 27.819V22.5h9v5.319L20 31.363z"></path><path d="M24 23v4.577l-4 3.151-4-3.151V23h8m1-1H15v6.062L20 32l5-3.938V22z" fill="#ba9b48"></path><path fill="#4e7ab5" d="M22.601 29.619L20 30.305l-2.599-.682L19 33l-2 6h6l-2-6z"></path><path d="M27.143 19.214c-1.3 0-2.357-1.057-2.357-2.356s1.058-2.357 2.357-2.357c1.963 0 2.357.537 2.357 1.404 0 1.413-1.165 3.309-2.357 3.309zm-14.286 0c-1.192 0-2.357-1.896-2.357-3.31 0-.867.394-1.404 2.357-1.404 1.3 0 2.357 1.058 2.357 2.357s-1.057 2.357-2.357 2.357z" fill="#e8d47b"></path><path d="M27.143 15C29 15 29 15.481 29 15.905c0 1.234-1.041 2.81-1.857 2.81a1.859 1.859 0 01-1.857-1.857A1.86 1.86 0 0127.143 15m-14.286 0c1.024 0 1.857.833 1.857 1.857a1.859 1.859 0 01-1.857 1.857c-.816 0-1.857-1.575-1.857-2.81 0-.423 0-.904 1.857-.904m14.286-1a2.857 2.857 0 100 5.714c1.578 0 2.857-2.232 2.857-3.81C30 14.327 28.721 14 27.143 14zm-14.286 0C11.279 14 10 14.327 10 15.905s1.279 3.81 2.857 3.81a2.857 2.857 0 100-5.715z" fill="#ba9b48"></path><g><path d="M20 26.5a2.457 2.457 0 01-1.641-.631l-.09-.079-.117-.029A7.487 7.487 0 0112.5 18.5V9.201a3.316 3.316 0 013.312-3.312h8.375a3.315 3.315 0 013.312 3.312V18.5a7.487 7.487 0 01-5.652 7.261l-.117.029-.09.079A2.453 2.453 0 0120 26.5z" fill="#ffeea3"></path><path d="M24.187 6.389A2.816 2.816 0 0127 9.202V18.5a6.988 6.988 0 01-5.275 6.776l-.233.059-.181.159c-.263.231-.703.506-1.311.506s-1.048-.275-1.311-.506l-.181-.159-.233-.059A6.988 6.988 0 0113 18.5V9.202a2.816 2.816 0 012.813-2.813h8.374m0-1h-8.375A3.813 3.813 0 0012 9.202V18.5c0 3.737 2.566 6.866 6.029 7.745.528.464 1.213.755 1.971.755s1.443-.291 1.971-.755C25.434 25.366 28 22.237 28 18.5V9.202a3.813 3.813 0 00-3.813-3.813z" fill="#ba9b48"></path></g><g><path d="M27.5 17.5V14c0-3.635-3.034-5.582-3.163-5.663l-.398-.25-.275.384c-.084.118-2.119 2.886-6.514 2.886-1.15 0-4.65 0-4.65 3.644v2.5h-.179c-.436-.981-1.821-4.332-1.821-7.188 0-5.271 3.617-8.812 9-8.812 3.839 0 4.992 2.585 5.04 2.695l.13.303.33.001c1.671 0 4.5 1.161 4.5 5.515 0 2.621-1.407 6.394-1.838 7.485H27.5z" fill="#ffc49c"></path><path d="M19.5 2c3.483 0 4.538 2.297 4.577 2.385l.257.615H25c1.845 0 4 1.313 4 5.015 0 1.536-.507 3.498-1 5.043V14c0-3.909-3.258-5.999-3.397-6.087l-.801-.503-.547.772c-.019.027-1.941 2.674-6.105 2.674C13.733 10.857 12 12.251 12 15v.314c-.491-1.422-1-3.305-1-5.003C11 5.34 14.416 2 19.5 2m0-1C13.681 1 10 4.981 10 10.311 10 13.842 12 18 12 18h1v-3c0-2.668 2.024-3.143 4.15-3.143 4.73 0 6.922-3.097 6.922-3.097S27 10.599 27 14v4h1s2-4.768 2-7.985C30 5.498 27.123 4 25 4c0 0-1.253-3-5.5-3z" fill="#a16a4a"></path></g></svg>