<svg viewBox="0 0 40 40" xmlns="http://www.w3.org/2000/svg"><path d="M20 38.5C9.799 38.5 1.5 30.201 1.5 20S9.799 1.5 20 1.5 38.5 9.799 38.5 20 30.201 38.5 20 38.5z" fill="#ffc49c"></path><path d="M20 2c9.925 0 18 8.075 18 18s-8.075 18-18 18S2 29.925 2 20 10.075 2 20 2m0-1C9.507 1 1 9.507 1 20s8.507 19 19 19 19-8.507 19-19S30.493 1 20 1z" fill="#a16a4a"></path><path d="M20 35.5c-8.547 0-15.5-6.953-15.5-15.5S11.453 4.5 20 4.5 35.5 11.453 35.5 20 28.547 35.5 20 35.5z" fill="#ffc49c"></path><path d="M20 5c8.271 0 15 6.729 15 15s-6.729 15-15 15S5 28.271 5 20 11.729 5 20 5m0-1C11.163 4 4 11.163 4 20s7.163 16 16 16 16-7.163 16-16S28.837 4 20 4z" fill="#a16a4a"></path><path d="M17 5h6a3 3 0 11-6 0zM17 35a3 3 0 116 0h-6z" fill="#a16a4a"></path><g fill="#a16a4a"><path d="M19 9h-5.896a13.076 13.076 0 00-2.463 2H19V9zM19 13H9.063a12.862 12.862 0 00-1.06 2H19v-2zM21 19h11.949a12.802 12.802 0 00-.313-2H21v2zM19 17H7.363c-.154.65-.26 1.317-.313 2H19v-2zM21 15h10.997a12.948 12.948 0 00-1.06-2H21v2zM21 11h8.359a13.076 13.076 0 00-2.463-2H21v2zM19 29h-8.359a13.044 13.044 0 002.463 2H19v-2zM21 23h11.637c.154-.65.26-1.317.313-2H21v2zM21 27h9.937c.407-.633.767-1.298 1.06-2H21v2zM21 31h5.896a13.076 13.076 0 002.463-2H21v2zM19 25H8.003c.293.702.654 1.367 1.06 2H19v-2zM19 21H7.051c.052.683.158 1.35.313 2H19v-2z"></path></g></svg>