<svg viewBox="0 0 40 40" xmlns="http://www.w3.org/2000/svg"><path fill="#f78f8f" d="M2.5 2.5h35v35h-35z"></path><path d="M37 3v34H3V3h34m1-1H2v36h36V2z" fill="#c74343"></path><path d="M20.577 33.5c-2.161 0-4.031-.823-5.886-2.59-2.301-2.19-6.43-6.203-6.43-6.203-.492-.469-.761-1.086-.761-1.74s.269-1.271.757-1.735c.495-.472 1.155-.732 1.858-.732s1.363.26 1.858.731l2.523 2.524.004-5.255h16V28c0 3.084-2.416 5.5-5.5 5.5h-4.423z" fill="#ffeea3"></path><path d="M30 19v9c0 2.804-2.196 5-5 5h-4.423c-1.274 0-3.234-.254-5.541-2.451-2.273-2.165-6.385-6.161-6.434-6.208-.388-.37-.602-.858-.602-1.374s.214-1.004.602-1.374c.402-.382.939-.593 1.513-.593s1.112.211 1.496.576l1.679 1.68 1.706 1.706.001-2.413.002-3.549H30m1-1H14l-.003 4.549-1.679-1.68C11.71 20.29 10.913 20 10.115 20s-1.595.29-2.203.869a2.868 2.868 0 000 4.196s4.131 4.015 6.434 6.208C16.649 33.466 18.753 34 20.577 34H25c3.441 0 6-2.723 6-6V18z" fill="#ba9b48"></path><path d="M18.5 20.785V9.44c0-1.069.87-1.939 1.94-1.939h.121A1.94 1.94 0 0122.5 9.44v11.346h-4z" fill="#ffeea3"></path><path d="M20.56 8c.794 0 1.44.646 1.44 1.44v10.846h-3V9.44c0-.794.646-1.44 1.44-1.44h.12m0-1h-.12A2.44 2.44 0 0018 9.44v11.846h5V9.44A2.44 2.44 0 0020.56 7z" fill="#ba9b48"></path><path d="M14.5 20.881V11.44c0-1.069.87-1.939 1.94-1.939h.12c1.07 0 1.94.87 1.94 1.939v9.441h-4z" fill="#ffeea3"></path><path d="M16.56 10c.794 0 1.44.646 1.44 1.44v8.941h-3V11.44c0-.794.646-1.44 1.44-1.44h.12m0-1h-.12A2.44 2.44 0 0014 11.44v9.941h5V11.44A2.44 2.44 0 0016.56 9z" fill="#ba9b48"></path><g><path d="M22.5 20.833V10.44c0-1.069.87-1.939 1.94-1.939h.12c1.07 0 1.94.87 1.94 1.939v10.394h-4z" fill="#ffeea3"></path><path d="M24.56 9c.794 0 1.44.646 1.44 1.44v9.894h-3V10.44c0-.794.646-1.44 1.44-1.44h.12m0-1h-.12A2.44 2.44 0 0022 10.44v10.894h5V10.44A2.44 2.44 0 0024.56 8z" fill="#ba9b48"></path></g><g><path d="M26.5 20.024V13.44c0-1.07.87-1.94 1.94-1.94h.121c1.069 0 1.939.87 1.939 1.94v6.584h-4z" fill="#ffeea3"></path><path d="M28.56 12c.794 0 1.44.646 1.44 1.44v6.084h-3V13.44c0-.794.646-1.44 1.44-1.44h.12m0-1h-.12A2.44 2.44 0 0026 13.44v7.084h5V13.44A2.44 2.44 0 0028.56 11z" fill="#ba9b48"></path></g><path fill="#ffeea3" d="M15 19h15v4H15z"></path></svg>