<svg viewBox="0 0 40 40" xmlns="http://www.w3.org/2000/svg"><path fill="#ffeea3" d="M14.006 33.475L1.5 37.323V6.369l12.494-3.844 12 4L38.5 2.677v30.954l-12.494 3.844z"></path><path d="M13.988 3.05l11.696 3.899.304.101.306-.094L38 3.354v29.907L26.012 36.95l-11.696-3.899-.304-.101-.306.094L2 36.646V6.739L13.988 3.05M39 2L26 6 14 2 1 6v32l13-4 12 4 13-4V2z" fill="#ba9b48"></path><path d="M26 37l-12-4V3l12 4v30z" fill="#fff"></path><path fill="#ba9b48" d="M26 28v10l6-2v-2z"></path><path fill="#e8d47b" d="M26 37v-9l-7-9v15.667z"></path><path fill="#f5ce85" d="M22.249 25.314l-2.298-5.362 5.378 2.297 1.886 1.886-3.284 2.861z"></path><path d="M20.902 20.902l4.142 1.769 1.439 1.439-2.529 2.203-1.284-1.284-1.768-4.127M19 19.002l2.827 6.597 2.081 2.081 4.041-3.519-2.334-2.334L19 19.002z" fill="#967a44"></path><path fill="#36404d" d="M20.604 22.739L19.002 19l3.749 1.601z"></path><path d="M37.327 39.502a2.161 2.161 0 01-1.537-.636l-.884-.884 3.073-3.073.884.884a2.176 2.176 0 010 3.073c-.41.41-.955.636-1.536.636z" fill="#f78f8f"></path><path d="M37.98 35.616l.53.53c.316.316.49.736.49 1.183s-.174.867-.49 1.183-.736.49-1.183.49-.867-.174-1.183-.49l-.53-.53 2.366-2.366m0-1.414l-3.78 3.78 1.237 1.237a2.664 2.664 0 001.89.783 2.673 2.673 0 001.89-4.563l-1.237-1.237z" fill="#c74343"></path><g><path d="M22.775 25.841c.343-.207.613-.541.715-1.012.581-.149 1.208-.567 1.384-1.36.378-.07.68-.236.9-.495.045-.053.084-.106.119-.161l10.473 10.482-3.073 3.073-10.518-10.527z" fill="#ffeea3"></path><path d="M25.91 23.537l9.749 9.757-2.366 2.366-9.78-9.788c.161-.182.292-.398.383-.647.57-.214 1.128-.642 1.383-1.346.262-.087.469-.211.631-.342m-.296-1.71s.189 1.182-1.191 1.182c0 1.343-1.388 1.386-1.388 1.386 0 1.167-1.057 1.205-1.194 1.205h-.015l11.466 11.476 3.78-3.78-11.458-11.469z" fill="#ba9b48"></path></g><g><path fill="#d9e7f5" d="M38.205 35.133l-3.073 3.073-2.3-2.3 3.072-3.074z"></path><path d="M35.904 33.54l1.594 1.594-2.366 2.366-1.594-1.594 2.366-2.366m0-1.414l-3.78 3.78 3.008 3.008 3.78-3.78-3.008-3.008z" fill="#788b9c"></path></g></svg>