<svg viewBox="0 0 40 40" xmlns="http://www.w3.org/2000/svg"><path d="M18.107 38.227c-3.864-6.243-8.667-8.473-11.15-9.411 1.352-1.144 3.245-2.448 3.268-2.463l.574-.394-7.817-5.867 4.105-1.822-2.26-5.452 6.196 1.285.271-4.019 6.13 7.098L19.845 4.41l4.939 3.19 5.825-5.524.713 8.276 5.618 1.551-9.079 9.669 8.733 1.975-4.562 2.482 3.652 5.379-6.527-.565.332 4.627-8.827-2.397-.108.521c-.005.031-.6 2.825-2.447 4.633z" fill="#bae0bd"></path><path d="M30.202 3.154l.594 6.895.06.693.671.185 4.485 1.238-7.914 8.429-1.198 1.274 1.705.386 6.586 1.489-2.912 1.584-.969.527.62.913 2.751 4.053-4.896-.424-1.168-.101.084 1.169.24 3.34-7.634-2.073-1.025-.276-.217 1.039c-.005.026-.482 2.244-1.884 3.918-3.5-5.37-7.659-7.665-10.249-8.746 1.216-.963 2.557-1.886 2.575-1.899l1.148-.788-1.114-.836-6.579-4.937 2.881-1.279.892-.396-.373-.901-1.711-4.13 4.708.977 1.124.233.077-1.145.151-2.232 4.658 5.393 1.354 1.567.386-2.035 2.09-11.025 3.985 2.574.66.426.57-.541 4.788-4.538M31.02 1l-6.294 5.968-5.233-3.38-2.367 12.486-6.248-7.235-.314 4.66-6.559-1.361 2.434 5.874L2 19.981l7.942 5.96S7.335 27.731 6 28.999c2.149.763 7.709 2.738 11.99 10 2.359-1.902 3.055-5.304 3.055-5.304l8.995 2.443-.341-4.746 6.99.605-3.932-5.792L38 23.353l-9.175-2.075 9.048-9.636-6.082-1.678L31.02 1z" fill="#5e9c76"></path><path d="M1.5 38.5c8.601 0 15.572-7.822 24.972-25.486" fill="none" stroke="#5e9c76" stroke-linecap="round" stroke-linejoin="round" stroke-miterlimit="10"></path></svg>