<svg viewBox="0 0 40 40" xmlns="http://www.w3.org/2000/svg"><path d="M2.633 32.5A2.136 2.136 0 01.5 30.367V9.633C.5 8.457 1.457 7.5 2.633 7.5h34.733c1.176 0 2.133.957 2.133 2.133v20.733a2.136 2.136 0 01-2.133 2.133H2.633z" fill="#839cb2"></path><path d="M37.367 8c.9 0 1.633.733 1.633 1.633v20.734c0 .9-.733 1.633-1.633 1.633H2.633C1.733 32 1 31.267 1 30.367V9.633C1 8.733 1.733 8 2.633 8h34.734m0-1H2.633A2.64 2.64 0 000 9.633v20.734A2.64 2.64 0 002.633 33h34.734A2.64 2.64 0 0040 30.367V9.633A2.64 2.64 0 0037.367 7z" fill="#66798f"></path><path fill="#fff" d="M17 13l-4 5.6L9 13H5v14h4v-8.889l4 5.556 4-5.723V27h4V13z"></path><g><path fill="#fff" d="M32 20v-7h-4v7h-3.75L30 27l6-7z"></path></g></svg>