<svg viewBox="0 0 40 40" xmlns="http://www.w3.org/2000/svg"><path d="M19.999 38.251C17.896 35.874 7.5 23.628 7.5 14 7.5 7.107 13.107 1.5 20 1.5S32.5 7.107 32.5 14c0 9.58-10.398 21.866-12.501 24.251z" fill="#f78f8f"></path><path d="M20 2c6.617 0 12 5.383 12 12 0 8.932-9.29 20.349-12.001 23.491C17.286 34.358 8 22.977 8 14 8 7.383 13.383 2 20 2m0-1C12.82 1 7 6.82 7 14c0 10.981 13 25 13 25s13-14.074 13-25c0-7.18-5.82-13-13-13z" fill="#c74343"></path><g><path d="M20 19.5c-3.032 0-5.5-2.467-5.5-5.5s2.468-5.5 5.5-5.5 5.5 2.467 5.5 5.5-2.468 5.5-5.5 5.5z" fill="#f2faff"></path><path d="M20 9a5 5 0 11-.001 10.001A5 5 0 0120 9m0-1c-3.308 0-6 2.692-6 6s2.692 6 6 6 6-2.692 6-6-2.692-6-6-6z" fill="#c74343"></path></g></svg>