<svg viewBox="0 0 40 40" xmlns="http://www.w3.org/2000/svg"><path d="M14.182 35.605c.386-1.24.016-2.443-.323-3.543-.339-1.102-.659-2.142-.316-3.211l.313-.971-.958.348c-.693.251-1.112.903-1.556 1.593-.624.972-1.314 2.047-2.914 2.449.903-1.045 1.015-2.356 1.116-3.555.093-1.101.182-2.141.866-2.871l.789-.842h-1.154c-.485 0-1 .311-1.653.704-.946.57-2.125 1.28-3.558 1.28a4.29 4.29 0 01-.393-.018c1.537-.623 2.209-1.813 2.779-2.82.468-.828.837-1.482 1.564-1.664l.447-.112-.076-.456c-.08-.478-.166-1.701-.166-2.201 0-.456.133-1.062.204-1.387.041-.188.055-.252.055-.328v-.134l-.067-.116c-.216-.373-.728-.569-1.575-.895-1.299-.498-3.118-1.195-4.129-2.695.376.128.785.191 1.229.191.936-.001 1.874-.277 2.782-.544.776-.229 1.51-.445 2.118-.445.29 0 .529.05.73.15l.787.396-.063-.879c-.04-.545-.571-.914-1.308-1.426-1.021-.708-2.326-1.615-2.784-3.162.984.843 2.234.936 3.378 1.021 1.154.087 2.244.169 3.067.944l.843.794v-1.158c0-.618-.39-1.152-.842-1.771-.709-.972-1.556-2.134-1.162-4.013.687 1.498 2.176 2.301 3.345 2.93.948.512 1.769.953 1.806 1.507l.037.543.538-.083c.302-.047 1.172-.167 1.565-.167.478 0 1.563.143 2.084.211.234.03.394.048.42.048h.114l.104-.05c.849-.41 1.17-1.544 1.511-2.744.334-1.177.677-2.382 1.463-3.062-.338 1.089.053 2.129.408 3.078.464 1.237.902 2.405.107 3.85l-.461.839.952-.101c1.015-.106 1.687-.988 2.398-1.922.729-.955 1.477-1.938 2.638-2.244-.368.662-.58 1.551-.812 2.516-.332 1.389-.709 2.963-1.632 4.02l-.408.469.545.299c.211.115.445.174.697.174.626 0 1.276-.354 2.03-.766.984-.536 2.101-1.144 3.427-1.144l.091.001c-.871.711-1.39 1.655-1.863 2.517-.722 1.314-1.291 2.352-2.822 2.525l-.445.051.002.448s.002.36.032.606c.033.28.061.563.061.849 0 .479-.143 1.586-.211 2.118-.03.237-.048.398-.048.425v.052l.011.052c.163.771 1.128 1.023 2.351 1.343 1.312.342 2.876.751 3.674 1.798a4.377 4.377 0 00-.747-.062c-.914 0-1.819.248-2.695.487-.745.204-1.449.396-2.041.396-.485 0-.842-.133-1.121-.417l-1.607-1.636.781 2.156c.224.619.809 1.041 1.485 1.528.956.688 2.008 1.447 2.417 2.915-.742-.451-1.716-.585-2.67-.716-1.261-.174-2.564-.353-3.398-1.24l-.864-.92V29c0 .17.063.271.235.538 1.236 1.941 1.732 3.701 1.486 5.255-.608-1.228-1.764-1.942-2.747-2.551-.967-.598-1.803-1.115-1.987-1.927l-.104-.46-.465.077a4.228 4.228 0 01-.521.018c-.901 0-2.506-.072-3.11-.1a14.428 14.428 0 00-.287-.012h-.18l-.139.114c-.509.42-.741 1.112-1.011 1.914-.408 1.215-.897 2.665-2.489 3.739z" fill="#7496c4"></path><path d="M24.71 5.169c.112.523.298 1.018.47 1.478.441 1.175.821 2.19.137 3.434l-.922 1.677 1.903-.201c1.229-.13 1.999-1.14 2.744-2.117.414-.543.816-1.071 1.282-1.467-.124.421-.231.867-.339 1.32-.319 1.332-.68 2.842-1.522 3.807l-.817.937 1.09.598c.285.156.6.236.938.236.753 0 1.455-.383 2.269-.826.597-.326 1.246-.679 1.95-.891-.392.528-.696 1.082-.973 1.585-.745 1.357-1.226 2.131-2.44 2.269l-.889.101.002.895c0 .039.002.392.035.666.04.326.057.57.057.79 0 .446-.145 1.572-.207 2.053-.035.274-.052.46-.052.49v.105l.022.102c.227 1.074 1.379 1.374 2.714 1.723.904.236 1.715.471 2.355.795-.743.084-1.47.283-2.129.464-.712.195-1.384.379-1.909.379-.442 0-.635-.135-.765-.267l-3.215-3.272 1.562 4.313c.277.764.95 1.249 1.664 1.763.632.455 1.275.919 1.734 1.589-.542-.142-1.105-.22-1.626-.291-1.229-.169-2.39-.328-3.102-1.087L25 26.475V29c0 .315.125.511.313.807.371.582 1.226 1.924 1.43 3.494-.629-.632-1.371-1.09-2.006-1.483-.872-.539-1.624-1.005-1.762-1.613l-.232-.878-.898.111c-.01.001-.108.012-.452.012-.89 0-2.484-.071-3.084-.098a16.731 16.731 0 00-.31-.012h-.359l-.277.229c-.618.511-.885 1.302-1.166 2.139-.296.881-.616 1.83-1.351 2.661-.023-.877-.279-1.708-.509-2.453-.329-1.069-.613-1.992-.318-2.911l.623-1.941-1.916.695c-.852.309-1.337 1.064-1.805 1.793-.362.564-.731 1.138-1.285 1.581.272-.796.342-1.625.406-2.375.089-1.056.166-1.967.732-2.571l1.577-1.684h-2.307c-.624 0-1.192.342-1.911.776-.493.297-1.053.634-1.673.877.525-.575.883-1.208 1.195-1.761.467-.827.756-1.301 1.25-1.425l.895-.225-.152-.91c-.075-.452-.159-1.649-.159-2.119 0-.402.13-.995.192-1.28.046-.21.067-.306.067-.436v-.269l-.135-.233c-.305-.526-.911-.758-1.828-1.11-.897-.343-2.058-.788-2.983-1.538.976-.018 1.958-.307 2.827-.563.741-.218 1.441-.424 1.977-.424.21 0 .376.032.506.097l1.574.792-.127-1.757c-.057-.783-.703-1.232-1.521-1.8-.621-.431-1.313-.912-1.846-1.547.712.21 1.448.265 2.118.315 1.109.083 2.067.155 2.762.809l1.686 1.587v-2.315c0-.781-.455-1.405-.938-2.066-.479-.656-.966-1.324-1.121-2.199.81.853 1.844 1.411 2.663 1.852.607.327 1.525.822 1.544 1.1l.074 1.086 1.076-.165c.405-.062 1.167-.161 1.489-.161.445 0 1.548.145 2.018.207.271.036.455.052.486.052h.229l.206-.099c1.051-.508 1.403-1.746 1.775-3.058.149-.53.292-1.008.451-1.424m1.743-2.812c-3.463.382-2.763 5.598-4.405 6.391-.086 0-1.814-.259-2.505-.259-.518 0-1.641.173-1.641.173-.139-2.031-5.527-2.094-5.527-6.218-2.224 4.527 1.382 6.117 1.382 7.6-2.228-2.098-5.917.213-7.427-3.369-.441 4.282 4.16 5.405 4.232 6.391a2.099 2.099 0 00-.955-.204c-1.418 0-3.24.988-4.9.988-.851 0-1.659-.259-2.349-1.044.902 3.96 5.949 4.43 6.391 5.193 0 .086-.259 1.025-.259 1.716 0 .518.086 1.766.173 2.284-2.328.584-1.627 4.611-6.218 4.884.858.435 1.656.603 2.39.603 2.52 0 4.292-1.985 5.21-1.985-1.928 2.058.214 5.79-3.368 7.427.101.003.201.005.298.005 4.494 0 4.526-3.669 6.093-4.237-.922 2.87 2.301 5.394-.173 8.118 4.467-1.685 3.874-5.46 5.106-6.477.069 0 2.256.111 3.394.111.284 0 .503-.007.606-.024.539 2.373 5.023 2.426 5.144 6.132C29.087 32.947 26 29.173 26 29c2.084 2.218 6.363.521 7.103 3.325.193-4.352-3.58-4.88-4.103-6.325.411.418.914.566 1.478.566 1.376 0 3.11-.884 4.736-.884.584 0 1.154.114 1.689.424-.765-3.372-6.215-2.867-6.477-4.107 0-.086.259-1.852.259-2.543 0-.304-.028-.608-.065-.91-.027-.221-.028-.546-.028-.546 3.382-.384 2.831-4.531 6.051-5.797a4.91 4.91 0 00-1.515-.243c-2.471 0-4.246 1.91-5.456 1.91a.934.934 0 01-.457-.112c2.065-2.367 1.535-6.777 3.368-7.427a4.143 4.143 0 00-.533-.035c-3.24 0-3.965 4.067-5.858 4.267 1.866-3.392-2.269-5.555.261-8.206z" fill="#4e7ab5"></path><path fill="#4b6477" stroke="#36404d" stroke-miterlimit="10" d="M5.429 34.571L32 8"></path><path fill="#4e7ab5" d="M27.816 23.753l.034.318h.546z"></path><path fill="#c2e8ff" d="M17 9l3-8 3 8v22l-3 8-3-8z"></path><path d="M20 20v18l-3-7V20h3zM23 9l-3-6v17h3V9z" fill="#8bb7f0"></path><path fill="none" d="M20 36.152l2-5.333 1-2.705V11.886l-1-2.705-2-5.333-2 5.333-1 2.705v16.228l1 2.705z"></path><path fill="#4e7ab5" d="M20 3.848l2 5.333 1 2.705V9l-3-8-3 8v2.886l1-2.705zM22 30.819l-2 5.333-2-5.333-1-2.705V31l3 8 3-8v-2.886z"></path><path fill="#c2e8ff" d="M9 23l-8-3 8-3h22l8 3-8 3z"></path><path d="M20 20h18l-7 3H20v-3zM9 17l-6 3h17v-3H9z" fill="#8bb7f0"></path><path fill="none" d="M36.152 20l-5.333-2-2.705-1H11.886l-2.705 1-5.333 2 5.333 2 2.705 1h16.228l2.705-1z"></path><path fill="#4e7ab5" d="M3.848 20l5.333-2 2.705-1H9l-8 3 8 3h2.886l-2.705-1zM30.819 18l5.333 2-5.333 2-2.705 1H31l8-3-8-3h-2.886z"></path><g><path d="M20 26.5c-3.584 0-6.5-2.916-6.5-6.5s2.916-6.5 6.5-6.5 6.5 2.916 6.5 6.5-2.916 6.5-6.5 6.5z" fill="#c2e8ff"></path><path d="M20 14c3.308 0 6 2.692 6 6s-2.692 6-6 6-6-2.692-6-6 2.692-6 6-6m0-1a7 7 0 100 14 7 7 0 000-14z" fill="#8bb7f0"></path></g><g><path d="M20 17c1.654 0 3 1.346 3 3s-1.346 3-3 3-3-1.346-3-3 1.346-3 3-3m0-1a4 4 0 100 8 4 4 0 000-8z" fill="#8bb7f0"></path></g><g><path fill="#4b6477" d="M31.5 8.5V5.36l4.709-1.569L34.64 8.5z"></path><path d="M35.419 4.581L34.279 8H32V5.721l3.419-1.14M37 3l-6 2v4h4l2-6z" fill="#36404d"></path></g></svg>