<svg viewBox="0 0 40 40" xmlns="http://www.w3.org/2000/svg"><path d="M10.357 11.224s-6.786-.824-6.786-7.51M29.5 11.224s6.786-.824 6.786-7.51" fill="none" stroke="#37774e" stroke-miterlimit="10"></path><path d="M17.98 28.462c-5.108 0-8.693-.664-9.592-1.776l-.149-.186H8c-1.828 0-3.147-3.104-3.477-4.837C5.231 20.553 7.505 19.5 8 19.5h.105l.096-.042c2.808-1.236 7.503-2.004 12.253-2.004 4.673 0 8.695.709 11.326 1.995l.104.051H32c.495 0 2.769 1.053 3.477 2.163-.33 1.733-1.649 4.837-3.477 4.837h-.173l-.136.106c-1.093.859-7.321 1.856-13.711 1.856z" fill="#5e9c76"></path><path d="M20.455 16.954v1c4.531 0 8.578.709 11.105 1.944l.184.101h.231c.45.046 2.282.919 2.968 1.778C34.547 23.616 33.305 26 32 26h-.345l-.272.213c-.888.696-6.687 1.749-13.403 1.749-5.845 0-8.61-.857-9.202-1.59l-.3-.372H8c-1.305 0-2.547-2.384-2.944-4.223C5.742 20.919 7.572 20.045 8 20h.21l.193-.085c2.748-1.209 7.366-1.961 12.051-1.961l.001-1m-.001 0c-4.753 0-9.523.756-12.454 2.046-.688 0-3.312 1.236-4 2.571C4.295 23.42 5.74 27 8 27c1.15 1.425 5.373 1.962 9.98 1.962 6.015 0 12.685-.915 14.02-1.962 2.26 0 3.705-3.58 4-5.429C35.312 20.236 32.688 19 32 19c-2.903-1.42-7.217-2.046-11.546-2.046z" fill="#37774e"></path><path d="M20 38.5c-4.844 0-10.355-6.527-11.5-11.895v-7.148C8.5 10.36 13.444 3.5 20 3.5s11.5 6.86 11.5 15.957v7.148C30.355 31.973 24.844 38.5 20 38.5z" fill="#99c99e"></path><path d="M20 4c6.271 0 11 6.645 11 15.457v7.095C29.786 32.134 24.162 38 20 38s-9.786-5.866-11-11.448v-7.095C9 10.645 13.729 4 20 4m0-1C13.3 3 8 9.994 8 19.457v7.2C9.2 32.417 15 39 20 39s10.8-6.583 12-12.343v-7.2C32 9.994 26.7 3 20 3z" fill="#5e9c76"></path><circle cx="36.5" cy="3.5" r="2" fill="#99c99e"></circle><path d="M36.5 2c.827 0 1.5.673 1.5 1.5S37.327 5 36.5 5 35 4.327 35 3.5 35.673 2 36.5 2m0-1a2.5 2.5 0 100 5 2.5 2.5 0 000-5z" fill="#5e9c76"></path><ellipse cx="24.5" cy="22" rx="2.5" ry="4" fill="#fff9de"/><circle cx="24.5" cy="23.5" r="1" fill="#4b6477"></circle><path d="M24.5 23a.5.5 0 110 1 .5.5 0 010-1m0-1a1.5 1.5 0 10.001 3.001A1.5 1.5 0 0024.5 22z" fill="#36404d"></path><ellipse cx="15.5" cy="22" rx="2.5" ry="4" fill="#fff9de"/><g><circle cx="15.5" cy="23.5" r="1" fill="#4b6477"></circle><path d="M15.5 23a.5.5 0 110 1 .5.5 0 010-1m0-1a1.5 1.5 0 10.001 3.001A1.5 1.5 0 0015.5 22z" fill="#36404d"></path></g><g><path d="M15.165 31.5c.912-.828 2.6-2 4.835-2 2.246 0 3.931 1.172 4.84 2h-9.675z" fill="#4b6477"></path><path d="M20 30c1.348 0 2.485.464 3.349 1h-6.712c.862-.536 2.001-1 3.363-1m0-1c-3.744 0-6 3-6 3h12s-2.256-3-6-3z" fill="#36404d"></path></g><g><circle cx="3.5" cy="3.5" r="2" fill="#99c99e"></circle><path d="M3.5 2C4.327 2 5 2.673 5 3.5S4.327 5 3.5 5 2 4.327 2 3.5 2.673 2 3.5 2m0-1a2.5 2.5 0 100 5 2.5 2.5 0 000-5z" fill="#5e9c76"></path></g></svg>