<svg viewBox="0 0 40 40" xmlns="http://www.w3.org/2000/svg"><path fill="#4e5d6b" d="M14 1h-1v26h1V1z"></path><path d="M23 38.5a.5.5 0 01-.5-.5V12.5h8V38a.5.5 0 01-.5.5h-7z" fill="#839cb2"></path><path d="M30 13v25h-7V13h7m1-1h-9v26a1 1 0 001 1h7a1 1 0 001-1V12z" fill="#66798f"></path><path fill="#66798f" d="M24.5 8.5h4v5h-4z"></path><path d="M28 9v4h-3V9h3m1-1h-5v6h5V8z" fill="#4e5d6b"></path><path d="M10 38.5a.5.5 0 01-.5-.5V25.929h8V38a.5.5 0 01-.5.5h-7z" fill="#839cb2"></path><path d="M17 26.429V38h-7V26.429h7m1-1H9V38a1 1 0 001 1h7a1 1 0 001-1V25.429z" fill="#66798f"></path><path fill="#f5c276" d="M22.5 12.5h8v3h-8z"></path><path d="M30 13v2h-7v-2h7m1-1h-9v4h9v-4z" fill="#c29653"></path><path fill="#a3b7cc" d="M15 29h2v9h-2z"></path><path fill="#fcd69a" d="M28 13h2v2h-2z"></path><path fill="#f5c276" d="M9.5 25.5h8v3h-8z"></path><path d="M17 26v2h-7v-2h7m1-1H9v4h9v-4z" fill="#c29653"></path><path fill="#fcd69a" d="M15 26h2v2h-2z"></path><path fill="#a3b7cc" d="M28 16h2v22h-2z"></path><path fill="#455a64" d="M11 4h5v1h-5zM11 6h5v1h-5zM11 8h5v1h-5zM12 10h3v1h-3zM12 2h3v1h-3z"></path></svg>