<svg viewBox="0 0 40 40" xmlns="http://www.w3.org/2000/svg"><path d="M30.854 27.888l-3.35-10.306-6.354 7.447a1.54 1.54 0 01-1.114.471c-.392 0-.765-.146-1.049-.411a1.542 1.542 0 01-.076-2.177c.087-.107 6.38-7.957 8.282-10.232.444-.531.912-.871 1.43-1.04a2.899 2.899 0 013.655 1.862L36.5 26.35v1.806l-5.646-.268z" fill="#8bb7f0"></path><path d="M29.512 12a2.4 2.4 0 012.291 1.661L36 26.43v1.202l-4.778-.227-2.966-9.128-.552-1.699-1.16 1.359-5.746 6.735a1.032 1.032 0 01-.762.328c-.265 0-.517-.098-.708-.277a1.042 1.042 0 01-.052-1.47l.025-.027.023-.029c.063-.079 6.352-7.925 8.252-10.195.382-.457.775-.746 1.201-.885.239-.078.486-.117.735-.117m0-1c-.346 0-.698.053-1.043.166-.689.224-1.225.675-1.659 1.194-1.928 2.305-8.265 10.212-8.265 10.212a2.046 2.046 0 00.102 2.883 2.03 2.03 0 001.389.545c.547 0 1.093-.217 1.493-.647l5.775-6.767 3.179 9.785L37 28.68v-2.41l-4.247-12.921A3.414 3.414 0 0029.512 11z" fill="#4e7ab5"></path><circle cx="27" cy="7" r="3.5" fill="#ffeea3"></circle><path d="M27 4c1.654 0 3 1.346 3 3s-1.346 3-3 3-3-1.346-3-3 1.346-3 3-3m0-1a4 4 0 100 8 4 4 0 000-8z" fill="#ba9b48"></path><path fill="#a59dd1" d="M1.5 30.5h37v6h-37z"></path><path d="M38 31v5H2v-5h36m1-1H1v7h38v-7z" fill="#8b75a1"></path><g><circle cx="6" cy="27" r="3.5" fill="#ffeea3"></circle><path d="M6 24c1.654 0 3 1.346 3 3s-1.346 3-3 3-3-1.346-3-3 1.346-3 3-3m0-1a4 4 0 100 8 4 4 0 000-8z" fill="#ba9b48"></path></g><g><path d="M5 36.5c-.827 0-1.5-.673-1.5-1.5s.673-1.5 1.5-1.5h4.666l2.788-6.029c.433-1.195 1.524-1.971 2.734-1.971h14.799c1.103 0 2.111.532 2.633 1.388.563.925.569 2.064.017 3.046-.543.966-1.498 1.566-2.493 1.566h-15.44l-2.732 5H5z" fill="#ffeea3"></path><path d="M29.987 26c.929 0 1.774.44 2.205 1.148.674 1.108.231 2.147.009 2.542-.455.808-1.243 1.31-2.057 1.31H14.407l-.284.521L11.674 36H5c-.551 0-1-.449-1-1s.449-1 1-1H9.986l.268-.58 2.653-5.739.018-.04.015-.041a2.406 2.406 0 012.247-1.6h14.8m0-1H15.188c-1.469 0-2.716.949-3.188 2.261L9.347 33H5c-1.1 0-2 .9-2 2s.9 2 2 2h7.268L15 32h15.144c2.463 0 4.344-3.002 2.903-5.372-.638-1.047-1.833-1.628-3.06-1.628z" fill="#ba9b48"></path></g><g><path fill="#dcd5f2" d="M24.5 25.5h14v11h-14z"></path><path d="M38 26v10H25V26h13m1-1H24v12h15V25z" fill="#8b75a1"></path></g></svg>