<svg viewBox="0 0 40 40" xmlns="http://www.w3.org/2000/svg"><path fill="#ffeea3" d="M20 5.512l-18.5 9.25v-4.31L20 1.202l18.5 9.25v4.31z"></path><path d="M20 1.761l18 9v3.193L20.447 5.177 20 4.953l-.447.224L2 13.953V10.76l18-8.999m0-1.118l-19 9.5v5.429l19-9.5 19 9.5v-5.429l-19-9.5z" fill="#ba9b48"></path><path fill="#ffeea3" d="M20 9.583l-18.5 9.25v-4.31L20 5.273l18.5 9.25v4.31z"></path><path d="M20 5.832l18 9v3.192L20.447 9.248 20 9.025l-.447.224L2 18.025v-3.192l18-9.001m0-1.118l-19 9.5v5.429l19-9.5 19 9.5v-5.429l-19-9.5z" fill="#ba9b48"></path><path fill="#ffeea3" d="M20 13.655l-18.5 9.25v-4.31L20 9.345l18.5 9.25v4.31z"></path><path d="M20 9.904l18 9v3.193L20.447 13.32 20 13.096l-.447.224L2 22.096v-3.193l18-8.999m0-1.118l-19 9.5v5.429l19-9.5 19 9.5v-5.429l-19-9.5z" fill="#ba9b48"></path><g><path d="M20 31.357c-10.656 0-17.191-3.168-18.5-3.866v-4.404C3.921 24 12.291 26.929 20 26.929S36.079 24 38.5 23.087v4.404c-1.309.697-7.844 3.866-18.5 3.866z" fill="#ffeea3"></path><path d="M38 23.811v3.377c-1.735.877-8.043 3.67-18 3.67-9.958 0-16.267-2.794-18-3.67v-3.377c3.07 1.121 10.723 3.618 18 3.618 7.277 0 14.93-2.497 18-3.618m1-1.454s-9.907 4.071-19 4.071-19-4.071-19-4.071v5.429s6.786 4.071 19 4.071 19-4.071 19-4.071v-5.429z" fill="#ba9b48"></path></g><g><path d="M20 35.429c-10.676 0-17.194-3.168-18.5-3.866v-4.404C3.921 28.072 12.291 31 20 31s16.079-2.928 18.5-3.841v4.403c-1.309.698-7.844 3.867-18.5 3.867z" fill="#ffeea3"></path><path d="M38 27.882v3.377c-1.735.877-8.043 3.67-18 3.67-9.958 0-16.267-2.794-18-3.67v-3.377C5.07 29.003 12.723 31.5 20 31.5c7.277 0 14.93-2.497 18-3.618m1-1.453S29.093 30.5 20 30.5 1 26.429 1 26.429v5.429s6.786 4.071 19 4.071 19-4.071 19-4.071v-5.429z" fill="#ba9b48"></path></g><g><path d="M20 39.5c-10.656 0-17.191-3.168-18.5-3.866V31.23c2.421.913 10.791 3.841 18.5 3.841s16.079-2.928 18.5-3.841v4.404c-1.309.698-7.844 3.866-18.5 3.866z" fill="#ffeea3"></path><path d="M38 31.953v3.377c-1.735.877-8.043 3.67-18 3.67-9.958 0-16.267-2.794-18-3.67v-3.377c3.07 1.121 10.723 3.618 18 3.618 7.277 0 14.93-2.496 18-3.618m1-1.453s-9.907 4.071-19 4.071S1 30.5 1 30.5v5.429S7.786 40 20 40s19-4.071 19-4.071V30.5z" fill="#ba9b48"></path></g></svg>