<svg viewBox="0 0 40 40" xmlns="http://www.w3.org/2000/svg"><path d="M4 32.5A2.503 2.503 0 011.5 30V10c0-1.378 1.121-2.5 2.5-2.5h32c1.379 0 2.5 1.122 2.5 2.5v20c0 1.378-1.121 2.5-2.5 2.5H4z" fill="#8bb7f0"></path><path d="M36 8c1.103 0 2 .897 2 2v20c0 1.103-.897 2-2 2H4c-1.103 0-2-.897-2-2V10c0-1.103.897-2 2-2h32m0-1H4a3 3 0 00-3 3v20a3 3 0 003 3h32a3 3 0 003-3V10a3 3 0 00-3-3z" fill="#4e7ab5"></path><path d="M17 20a8.97 8.97 0 013-6.695A8.955 8.955 0 0014 11a9 9 0 00-9 9 9 9 0 009 9 8.955 8.955 0 006-2.305A8.97 8.97 0 0117 20z" fill="#c74343"></path><path d="M26 11a8.955 8.955 0 00-6 2.305 8.97 8.97 0 010 13.39A8.955 8.955 0 0026 29a9 9 0 009-9 9 9 0 00-9-9z" fill="#ffeea3"></path><g><path d="M23 20a8.97 8.97 0 00-3-6.695 8.97 8.97 0 000 13.39A8.97 8.97 0 0023 20z" fill="#ffc49c"></path></g></svg>