<svg viewBox="0 0 40 40" xmlns="http://www.w3.org/2000/svg"><path fill="#8bb7f0" d="M1.5 38.5V29L5.504 1.5h28.992l4.009 27.572L38.5 38.5z"></path><path d="M34.063 2L38 29.072V38H2v-8.928L5.937 2h28.126m.866-1H5.071L1 29v10h38V29L34.929 1z" fill="#4e7ab5"></path><path fill="#c2e8ff" d="M37.993 29H2.008L5.935 2h28.126z"></path><circle cx="33.5" cy="33.5" r="1.5" fill="#fff"></circle><circle cx="10.5" cy="33.5" r="1.5" fill="#fff"></circle><circle cx="14.5" cy="33.5" r="1.5" fill="#fff"></circle><circle cx="6.5" cy="33.5" r="1.5" fill="#fff"></circle><g><path fill="#ffc49c" d="M11.46 24.5l-.881-10.569 4.531 2.718L20 10.781l4.89 5.868 4.531-2.718L28.54 24.5z"></path><path d="M20 11.562l4.232 5.078.548.658.734-.441 3.327-1.996L28.08 24H11.92l-.762-9.139 3.327 1.996.734.441.548-.658L20 11.562M20 10l-5 6-5-3 1 12h18l1-12-5 3-5-6z" fill="#a16a4a"></path><circle cx="20" cy="10" r="2.5" fill="#ffeea3"></circle><path d="M20 8c1.103 0 2 .897 2 2s-.897 2-2 2-2-.897-2-2 .897-2 2-2m0-1a3 3 0 100 6 3 3 0 000-6z" fill="#ba9b48"></path><g><circle cx="29" cy="13" r="2.5" fill="#ffeea3"></circle><path d="M29 11c1.103 0 2 .897 2 2s-.897 2-2 2-2-.897-2-2 .897-2 2-2m0-1a3 3 0 100 6 3 3 0 000-6z" fill="#ba9b48"></path></g><g><circle cx="11" cy="13" r="2.5" fill="#ffeea3"></circle><path d="M11 11c1.103 0 2 .897 2 2s-.897 2-2 2-2-.897-2-2 .897-2 2-2m0-1a3 3 0 100 6 3 3 0 000-6z" fill="#ba9b48"></path></g></g></svg>