<svg viewBox="0 0 40 40" xmlns="http://www.w3.org/2000/svg"><path d="M12 35.5c-6.41 0-10.5-5.404-10.5-9.125 0-4.939 1.871-7.887 3.68-10.736 1.99-3.134 3.875-6.102 2.5-11.108 3.208.293 4.134 2.681 4.956 4.803.631 1.629 1.227 3.167 2.828 3.167 1.008 0 2.209-.645 3.06-1.643.26-.306.472-.625.633-.951C20.274 13.149 22.5 20.37 22.5 26.376c0 5.116-4.612 9.124-10.5 9.124z" fill="#f78f8f"></path><path d="M8.348 5.14c2.333.53 3.088 2.479 3.822 4.374.632 1.634 1.349 3.486 3.293 3.486 1.148 0 2.498-.714 3.44-1.818.038-.044.075-.089.111-.134C20.178 14.582 22 20.979 22 26.375 22 31.211 17.607 35 12 35c-2.667 0-5.224-1.048-7.201-2.952C3.072 30.386 2 28.212 2 26.375c0-4.795 1.831-7.679 3.602-10.468C7.556 12.831 9.41 9.91 8.348 5.14M7 4c3.124 9.706-6 11.415-6 22.375C1 30.591 5.614 36 12 36s11-4.371 11-9.625C23 18.21 19 8 19 8c.319 1.994-1.947 4-3.537 4C12.338 12 13.875 4 7 4z" fill="#c74343"></path><path d="M22.992 25.849c-.049-2.41-.422-4.972-.926-7.381l-1.799 1.637 1.166 7.162 1.559-1.418z" fill="#f78f8f"></path><path d="M12.039 35C7.701 35 5 30.488 5 28.041 5 22.258 10.794 20.604 9.552 15c6.43 2.652 1.347 5.533 3.014 7.426 1.308 1.486 3.473-.631 2.74-2.74C17.717 22.098 19 25.222 19 28.007 19 31.119 16.383 35 12.039 35z" fill="#ffeea3"></path><path fill="#f5ce85" d="M11.562 29.528L36.454 6.881l1.84 2.022L13.402 31.55z"></path><path d="M36.42 7.589l1.167 1.283-24.152 21.972-1.167-1.283L36.42 7.589m.067-1.413L10.855 29.495l2.513 2.762L39 8.938l-2.513-2.762z" fill="#967a44"></path><g><path d="M12.249 32.5c-.492 0-.963-.208-1.294-.572a1.752 1.752 0 01.117-2.471l1.053-.958a1.13 1.13 0 011.596.075l.833.916c.204.224.308.513.293.814a1.12 1.12 0 01-.368.781l-1.053.958c-.322.295-.74.457-1.177.457z" fill="#a6714e"></path><path d="M12.885 28.705c.104 0 .303.027.466.206l.834.917a.63.63 0 01-.042.889l-1.053.958a1.248 1.248 0 01-1.765-.084 1.251 1.251 0 01.083-1.765l1.053-.958a.633.633 0 01.424-.163m0-1c-.391 0-.784.14-1.096.424l-1.053.958a2.25 2.25 0 003.027 3.327l1.053-.958a1.63 1.63 0 00.109-2.302l-.834-.917a1.627 1.627 0 00-1.206-.532z" fill="#7a4f34"></path></g></svg>