<svg viewBox="0 0 40 40" xmlns="http://www.w3.org/2000/svg"><path d="M20 38.5C9.799 38.5 1.5 30.201 1.5 20S9.799 1.5 20 1.5 38.5 9.799 38.5 20 30.201 38.5 20 38.5z" fill="#f78f8f"></path><path d="M20 2c9.925 0 18 8.075 18 18s-8.075 18-18 18S2 29.925 2 20 10.075 2 20 2m0-1C9.507 1 1 9.507 1 20s8.507 19 19 19 19-8.507 19-19S30.493 1 20 1z" fill="#c74343"></path><path d="M20 35.5c-8.547 0-15.5-6.953-15.5-15.5S11.453 4.5 20 4.5 35.5 11.453 35.5 20 28.547 35.5 20 35.5z" fill="#fff"></path><path d="M20 5c8.271 0 15 6.729 15 15s-6.729 15-15 15S5 28.271 5 20 11.729 5 20 5m0-1C11.163 4 4 11.163 4 20s7.163 16 16 16 16-7.163 16-16S28.837 4 20 4z" fill="#c74343"></path><g fill="#36404d"><path d="M11 26.259v-2.075c.875.589 1.762.884 2.661.884.906 0 1.635-.231 2.187-.693.552-.462.828-1.078.828-1.847 0-.757-.281-1.346-.842-1.768-.561-.422-1.366-.633-2.415-.633-.36 0-1.089.037-2.187.112l.475-7.016h6.569v1.842h-4.773l-.223 3.34c.428-.025.816-.037 1.163-.037 1.414 0 2.508.363 3.28 1.089.772.726 1.158 1.718 1.158 2.977 0 1.321-.442 2.38-1.326 3.178-.884.797-2.098 1.196-3.643 1.196-1.302 0-2.273-.183-2.912-.549zM25.283 26.789c-1.389 0-2.473-.568-3.252-1.703-.778-1.135-1.168-2.776-1.168-4.922 0-2.357.406-4.141 1.219-5.35.812-1.209 1.985-1.814 3.517-1.814C28.533 13 30 15.28 30 19.839c0 2.258-.414 3.981-1.242 5.169-.828 1.187-1.987 1.781-3.475 1.781zm.214-12.068c-1.619 0-2.429 1.783-2.429 5.35 0 3.337.794 5.006 2.382 5.006 1.563 0 2.345-1.697 2.345-5.09 0-3.51-.766-5.266-2.298-5.266z"></path></g></svg>