<svg viewBox="0 0 40 40" xmlns="http://www.w3.org/2000/svg"><path d="M20 38.5C9.799 38.5 1.5 30.201 1.5 20S9.799 1.5 20 1.5 38.5 9.799 38.5 20 30.201 38.5 20 38.5z" fill="#fff"></path><path d="M20 2c9.925 0 18 8.075 18 18s-8.075 18-18 18S2 29.925 2 20 10.075 2 20 2m0-1C9.507 1 1 9.507 1 20s8.507 19 19 19 19-8.507 19-19S30.493 1 20 1z" fill="#66798f"></path><circle cx="20" cy="20" r="13" fill="#e1ebf2"></circle><path d="M24.5 32.5a1.98 1.98 0 01-1.451-.624 1.977 1.977 0 01-.546-1.48L22.5 7.519c3.352.257 6 3.065 6 6.481v7.5a1 1 0 01-1 1h-1.515l.512 7.901a1.974 1.974 0 01-.546 1.475 1.98 1.98 0 01-1.451.624z" fill="#dcd5f2"></path><path d="M23 8.083A6.01 6.01 0 0128 14v7.5a.5.5 0 01-.5.5h-2.049l.069 1.065.477 7.356c.022.415-.124.81-.41 1.111-.285.302-.671.468-1.087.468s-.802-.166-1.088-.468a1.486 1.486 0 01-.41-1.111l.001-.026v-.026L23.002 23 23 22.151V8.083M22 7v16h.002l.002 7.369a2.5 2.5 0 104.992 0L26.518 23h.982a1.5 1.5 0 001.5-1.5V14a7 7 0 00-7-7z" fill="#8b75a1"></path><path d="M14.5 32.5c-.56 0-1.078-.226-1.461-.634a1.979 1.979 0 01-.534-1.499l.707-12.981-.299-.146A2.482 2.482 0 0111.5 15v-2.5h6V15c0 .957-.542 1.815-1.413 2.24l-.299.146.707 12.976a1.985 1.985 0 01-.534 1.505 1.987 1.987 0 01-1.461.633z" fill="#dcd5f2"></path><path d="M17 13v2c0 .764-.434 1.45-1.132 1.79l-.597.291.036.663.69 12.656c.028.419-.115.818-.401 1.124-.287.307-.676.476-1.096.476s-.809-.169-1.095-.475a1.494 1.494 0 01-.401-1.137l.688-12.645.036-.663-.597-.291A1.982 1.982 0 0112 15v-2h5m1-1h-7v3c0 1.186.695 2.202 1.694 2.689l-.688 12.645a2.499 2.499 0 104.988 0l-.688-12.645A2.992 2.992 0 0018 15v-3z" fill="#8b75a1"></path><path fill="none" stroke="#8b75a1" stroke-linecap="round" stroke-miterlimit="10" d="M17.5 7.5v6"></path><g><path fill="none" stroke="#8b75a1" stroke-linecap="round" stroke-miterlimit="10" d="M15.5 7.5v5"></path></g><g><path fill="none" stroke="#8b75a1" stroke-linecap="round" stroke-miterlimit="10" d="M13.5 7.5v5"></path></g><g><path fill="none" stroke="#8b75a1" stroke-linecap="round" stroke-miterlimit="10" d="M11.5 7.5v6"></path></g></svg>