<svg viewBox="0 0 40 40" xmlns="http://www.w3.org/2000/svg"><path d="M13.379 37l-3.412-1.806c3.924-14.887-1.374-29.063-1.44-29.207L12 3c.303.651 6.077 17.395 1.379 34zM22.346 37l-3.412-1.806c3.924-14.887-1.276-29.063-1.342-29.207L21.065 3c.303.651 5.979 17.395 1.281 34zM31.549 37l-3.647-1.806c3.924-14.887-1.276-29.063-1.342-29.207L30.033 3c.302.651 6.213 17.395 1.516 34z" fill="#8b75a1"></path><path d="M28.544 34.954c1.14-2.779 6.82-17.434 6.954-31.454h3c-.129 15.132-6.04 30.051-7.199 32.818l-2.755-1.364z" fill="#dcd5f2"></path><path d="M37.991 4c-.241 14.115-5.475 28-6.951 31.633l-1.862-.922c1.459-3.664 6.563-17.448 6.812-30.71h2.001M39 3h-4c0 15.568-7.023 32.047-7.098 32.194L31.549 37C31.872 36.365 39 19.549 39 3z" fill="#8b75a1"></path><path d="M19.544 34.954c1.14-2.779 6.82-17.434 6.954-31.454h3c-.129 15.132-6.04 30.051-7.199 32.818l-2.755-1.364z" fill="#dcd5f2"></path><path d="M28.991 4c-.241 14.115-5.475 28-6.951 31.633l-1.862-.922c1.459-3.664 6.563-17.448 6.812-30.71h2.001M30 3h-4c0 15.568-7.023 32.047-7.098 32.194L22.549 37C22.872 36.365 30 19.549 30 3z" fill="#8b75a1"></path><g><path d="M10.544 34.954c1.14-2.779 6.82-17.434 6.954-31.454h3c-.129 15.132-6.04 30.051-7.199 32.818l-2.755-1.364z" fill="#dcd5f2"></path><path d="M19.991 4c-.241 14.115-5.475 28-6.951 31.633l-1.862-.922c1.459-3.664 6.563-17.448 6.812-30.71h2.001M21 3h-4c0 15.568-7.023 32.047-7.098 32.194L13.549 37C13.872 36.365 21 19.549 21 3z" fill="#8b75a1"></path></g><g><path d="M1.641 34.954C2.769 32.188 8.367 17.652 8.498 3.5h3c-.128 15.046-5.961 30.039-7.104 32.816l-2.753-1.362z" fill="#dcd5f2"></path><path d="M10.991 4c-.24 13.965-5.408 27.972-6.86 31.629l-1.856-.919C3.719 31.062 8.747 17.383 8.991 4h2M12 3H8c0 15.568-6.925 32.047-7 32.194L4.647 37C4.969 36.365 12 19.549 12 3z" fill="#8b75a1"></path></g></svg>