<svg viewBox="0 0 40 40" xmlns="http://www.w3.org/2000/svg"><path fill="#99c99e" d="M17.316 19.5L8.79 1.5h5.895l8.593 18z"></path><path d="M14.369 2l8.117 17h-4.853L9.58 2h4.789M15 1H8l9 19h7.071L15 1z" fill="#5e9c76"></path><path fill="#99c99e" d="M16.722 19.5l8.593-18h5.895l-8.526 18z"></path><path d="M30.42 2l-8.053 17h-4.853l8.117-17h4.789M32 1h-7l-9.071 19H23l9-19z" fill="#5e9c76"></path><path d="M20 38.5c-5.79 0-10.5-4.71-10.5-10.5S14.21 17.5 20 17.5 30.5 22.21 30.5 28 25.79 38.5 20 38.5z" fill="#e1ebf2"></path><path d="M20 18c5.514 0 10 4.486 10 10s-4.486 10-10 10-10-4.486-10-10 4.486-10 10-10m0-1c-6.075 0-11 4.925-11 11s4.925 11 11 11 11-4.925 11-11-4.925-11-11-11z" fill="#a3b7cc"></path><path d="M20 35c-3.86 0-7-3.14-7-7h-1a8 8 0 0016 0h-1c0 3.86-3.14 7-7 7z" fill="#a3b7cc"></path><path d="M22.998 32h-6v-.792c0-.31.044-.601.13-.872s.203-.526.349-.766c.146-.239.317-.465.513-.677s.406-.417.629-.615.451-.39.684-.574.461-.37.684-.557c.209-.178.4-.352.574-.523s.321-.348.444-.53.219-.375.287-.578.103-.423.103-.66c0-.26-.04-.486-.119-.68a1.307 1.307 0 00-.336-.485c-.143-.13-.313-.228-.509-.294s-.41-.099-.643-.099c-.401 0-.81.093-1.224.28s-.813.467-1.196.841v-1.524c.2-.15.403-.281.608-.393s.417-.205.636-.28.448-.131.69-.167.499-.055.772-.055c.442 0 .843.058 1.203.174s.667.287.923.513c.256.226.452.507.592.844.139.338.208.725.208 1.162 0 .396-.049.753-.147 1.07a3.448 3.448 0 01-.416.885c-.181.273-.398.533-.653.779s-.54.499-.854.759c-.264.214-.527.423-.789.625-.263.203-.498.401-.708.595s-.38.387-.509.581a1.035 1.035 0 00-.195.584v.034H23V32z" fill="#a3b7cc"></path></svg>