<svg viewBox="0 0 40 40" xmlns="http://www.w3.org/2000/svg"><path fill="#99c99e" d="M17.316 19.5L8.79 1.5h5.895l8.593 18z"></path><path d="M14.369 2l8.117 17h-4.853L9.58 2h4.789M15 1H8l9 19h7.071L15 1z" fill="#5e9c76"></path><path fill="#99c99e" d="M16.722 19.5l8.593-18h5.895l-8.526 18z"></path><path d="M30.42 2l-8.053 17h-4.853l8.117-17h4.789M32 1h-7l-9.071 19H23l9-19z" fill="#5e9c76"></path><path d="M20 38.5c-5.79 0-10.5-4.71-10.5-10.5S14.21 17.5 20 17.5 30.5 22.21 30.5 28 25.79 38.5 20 38.5z" fill="#ffc49c"></path><path d="M20 18c5.514 0 10 4.486 10 10s-4.486 10-10 10-10-4.486-10-10 4.486-10 10-10m0-1c-6.075 0-11 4.925-11 11s4.925 11 11 11 11-4.925 11-11-4.925-11-11-11z" fill="#b08159"></path><path d="M20 35c-3.86 0-7-3.14-7-7h-1a8 8 0 0016 0h-1c0 3.86-3.14 7-7 7z" fill="#b08159"></path><path d="M17.143 31.48v-1.471c.63.499 1.34.749 2.132.749.644 0 1.157-.146 1.542-.439.384-.293.576-.688.576-1.188 0-1.097-.839-1.646-2.517-1.646h-.749V26.23h.715c1.488 0 2.233-.517 2.233-1.552 0-.954-.58-1.43-1.741-1.43-.648 0-1.258.232-1.829.695v-1.39c.66-.368 1.435-.553 2.331-.553.859 0 1.547.216 2.065.648.518.432.776.985.776 1.66 0 1.273-.648 2.092-1.943 2.456v.027c.698.067 1.248.311 1.653.732s.607.946.607 1.576c0 .868-.327 1.569-.978 2.102-.652.533-1.511.8-2.578.8-.959-.001-1.724-.174-2.295-.521z" fill="#b08159"></path></svg>