<svg viewBox="0 0 40 40" xmlns="http://www.w3.org/2000/svg"><path d="M8.345 38.5a2.897 2.897 0 01-2.893-2.893c0-.903.425-1.741 1.166-2.301l.322-.244-.004-.009 6.563-4.8v-5.28l-3.833 1.393a1.534 1.534 0 01-2.041-.797 1.522 1.522 0 01.058-1.31l.107-.207c1.784-3.036 4.393-7.452 4.603-7.743.971-1.03 2.642-2.81 7.607-2.81s6.637 1.779 7.636 2.843c.184.26 2.856 4.79 4.601 7.763l.056.094.042.091c.199.407.215.873.041 1.279a1.536 1.536 0 01-2.017.807L26.5 22.974v5.279l6.588 4.855.242.198a2.87 2.87 0 011.166 2.301 2.897 2.897 0 01-2.894 2.893H8.345z" fill="#f78f8f"></path><path d="M20 12c4.634 0 6.249 1.599 7.221 2.631.289.445 2.105 3.506 4.603 7.76l.009.015.051.104a1.025 1.025 0 01-.922 1.49c-.14 0-.277-.028-.408-.084l-.025-.011-.026-.009-3.162-1.148L26 22.26v6.245l.407.3 5.992 4.416-.003.006.634.478c.614.464.966 1.157.966 1.901a2.396 2.396 0 01-2.393 2.393H8.345a2.396 2.396 0 01-2.393-2.393c0-.745.352-1.438.966-1.901l.353-.278 6.319-4.621.41-.3V22.26l-1.341.487-3.162 1.148-.026.009-.025.011a1.034 1.034 0 01-1.361-.543c-.12-.28-.105-.602.042-.883l.073-.145c1.649-2.807 4.214-7.151 4.578-7.711C13.725 13.625 15.329 12 20 12m0-1c-5.127 0-6.943 1.875-8 3-.145.145-4.771 8.021-4.771 8.021l.01.007a2.022 2.022 0 00-.074 1.738 2.035 2.035 0 002.674 1.07L13 23.688V28l-6.691 4.893.007.015a3.383 3.383 0 00-1.364 2.699A3.403 3.403 0 008.345 39h23.258a3.403 3.403 0 003.393-3.393 3.382 3.382 0 00-1.364-2.699l.007-.015L27 28v-4.313l3.162 1.148a2.036 2.036 0 002.673-1.069c.243-.568.2-1.182-.052-1.697l.009-.007-.105-.178-.019-.032C31.959 20.644 28.132 14.132 28 14c-1.057-1.125-2.873-3-8-3z" fill="#c74343"></path><path d="M20 8.5c-1.93 0-3.5-1.57-3.5-3.5s1.57-3.5 3.5-3.5 3.5 1.57 3.5 3.5-1.57 3.5-3.5 3.5z" fill="#ffeea3"></path><path d="M20 2c1.654 0 3 1.346 3 3s-1.346 3-3 3-3-1.346-3-3 1.346-3 3-3m0-1a4 4 0 100 8 4 4 0 000-8z" fill="#ba9b48"></path><path d="M15.058 39H26v-6h-8.5c-1.93 0-3.5 1.57-3.5 3.5 0 .98.407 1.864 1.058 2.5z" fill="#c74343"></path><path d="M25 39h-7.5a2.507 2.507 0 01-2.5-2.5c0-1.375 1.125-2.5 2.5-2.5H25v5z" fill="#ffeea3"></path><path d="M15.515 38c.458.603 1.174 1 1.985 1H25v-1h-9.485z" fill="#ba9b48"></path><path d="M17 21v1l3-1 3 1v-1l-1.684-5.051a1.387 1.387 0 00-2.632 0L17 21z" fill="#ffeea3"></path><path d="M20 16c.167 0 .315.106.368.265l1.426 4.279L22 21h-4l.206-.456 1.426-4.279A.387.387 0 0120 16m0-1c-.597 0-1.127.382-1.316.949L17 21v1l3-1 3 1v-1l-1.684-5.051A1.387 1.387 0 0020 15z" fill="#ba9b48"></path><path d="M32.038 21.223V23h-.007a1.015 1.015 0 01-.077.372 1.038 1.038 0 01-1.362.544l-9.502-3.701a3.138 3.138 0 00-2.178.001l-9.466 3.699a1.035 1.035 0 01-1.362-.543.996.996 0 01-.078-.372h-.007v-1.777A2.03 2.03 0 009.037 25c.268 0 .539-.053.801-.164L20 21l10.199 3.836a2.036 2.036 0 002.674-1.07 2.03 2.03 0 00-.835-2.543z" fill="#c74343"></path></svg>