<svg viewBox="0 0 40 40" xmlns="http://www.w3.org/2000/svg"><path fill="#e1ebf2" d="M33.5 3.5h5v34h-5z"></path><path d="M38 4v33h-4V4h4m1-1h-6v35h6V3z" fill="#a3b7cc"></path><path fill="#e1ebf2" d="M25.5 11.5h5v26h-5z"></path><path d="M30 12v25h-4V12h4m1-1h-6v27h6V11z" fill="#a3b7cc"></path><path fill="#bae0bd" d="M17.5 18.5h5v19h-5z"></path><path d="M22 19v18h-4V19h4m1-1h-6v20h6V18z" fill="#5e9c76"></path><g><path fill="#bae0bd" d="M9.5 25.5h5v12h-5z"></path><path d="M14 26v11h-4V26h4m1-1H9v13h6V25z" fill="#5e9c76"></path></g><g><path fill="#bae0bd" d="M1.5 30.5h5v7h-5z"></path><path d="M6 31v6H2v-6h4m1-1H1v8h6v-8z" fill="#5e9c76"></path></g></svg>