<svg viewBox="0 0 40 40" xmlns="http://www.w3.org/2000/svg"><path fill="#ffc49c" d="M2.5 2.5h15v15h-15z"></path><path d="M17 3v14H3V3h14m1-1H2v16h16V2z" fill="#a16a4a"></path><path fill="#bae0bd" d="M22.5 22.5h15v15h-15z"></path><path d="M37 23v14H23V23h14m1-1H22v16h16V22z" fill="#5e9c76"></path><path fill="#8bb7f0" d="M2.5 22.5h15v15h-15z"></path><path d="M17 23v14H3V23h14m1-1H2v16h16V22z" fill="#4e7ab5"></path><path fill="#ffeea3" d="M4.667 30L10 24.667 15.333 30 10 35.333z"></path><path fill="#ffeea3" d="M6 26h8v8H6z"></path><path fill="#a16a4a" d="M12.897 9.894L10 12.584 13.985 17H17v-3.288z"></path><circle cx="14" cy="6" r="1.25" fill="#fff"></circle><path fill="#e09367" d="M14.849 17H3v-3.5l4.667-4.667z"></path><path d="M30 30l-1.457-2.428C27.864 26.44 28.68 25 30 25s2.136 1.44 1.457 2.572L30 30zM30 30l1.457 2.428C32.136 33.56 31.32 35 30 35s-2.136-1.44-1.457-2.572L30 30z" fill="#fff"></path><path d="M30 30l-2.831.048c-1.32.022-2.16-1.404-1.5-2.548.66-1.143 2.315-1.129 2.956.025L30 30zM30 30l2.831-.048c1.32-.022 2.16 1.404 1.5 2.548-.66 1.143-2.315 1.129-2.956-.025L30 30z" fill="#fff"></path><path d="M30 30l-1.374 2.475c-.641 1.154-2.296 1.168-2.956.025-.66-1.143.179-2.57 1.5-2.548L30 30zM30 30l1.374-2.475c.641-1.154 2.296-1.168 2.956-.025.66 1.143-.179 2.57-1.5 2.548L30 30z" fill="#fff"></path><circle cx="30" cy="30" r="2" fill="#ffeea3"></circle><circle cx="10" cy="30" r="2" fill="#fff"></circle><g><path fill="#c2e8ff" d="M22.5 2.5h15v15h-15z"></path><path d="M37 3v14H23V3h14m1-1H22v16h16V2z" fill="#7496c4"></path></g><path d="M33 11c-.047 0-.086.023-.132.027a1.624 1.624 0 00-1.493-.986c-.204 0-.396.047-.576.116A1.99 1.99 0 0029 9a2 2 0 00-2 2 2 2 0 100 4h6a2 2 0 000-4z" fill="#fff"></path><circle cx="34" cy="6" r="1.25" fill="#fff"></circle></svg>