<svg viewBox="0 0 40 40" xmlns="http://www.w3.org/2000/svg"><circle cx="11.5" cy="4.5" r="3" fill="#ffeea3"></circle><path d="M11.5 2C12.878 2 14 3.121 14 4.5S12.878 7 11.5 7 9 5.879 9 4.5 10.122 2 11.5 2m0-1a3.5 3.5 0 100 7 3.5 3.5 0 000-7z" fill="#ba9b48"></path><path fill="#8bb7f0" d="M18.107 15.929h-6.786v-4.072h4.072z"></path><path d="M20.557 24.188c-.514 0-.982-.26-1.254-.694l-.748-1.2 2.505-1.562.748 1.199a1.478 1.478 0 01-1.251 2.257z" fill="#ffeea3"></path><path d="M20.9 21.419l.484.775a.978.978 0 01-.826 1.493.973.973 0 01-.83-.46l-.484-.775 1.656-1.033m.318-1.377l-3.353 2.093 1.013 1.623a1.976 1.976 0 103.352-2.093l-1.012-1.623z" fill="#ba9b48"></path><path d="M7 26.5c-.827 0-1.5-.673-1.5-1.5v-2.833h3V25c0 .827-.673 1.5-1.5 1.5z" fill="#ffeea3"></path><path d="M8 22.667V25c0 .551-.449 1-1 1s-1-.449-1-1v-2.333h2m1-1H5V25a2 2 0 104 0v-3.333z" fill="#ba9b48"></path><path d="M14 38.5c-.827 0-1.5-.673-1.5-1.5V26.286h-2V37c0 .827-.673 1.5-1.5 1.5s-1.5-.673-1.5-1.5V24.995l-2-1.206V15c0-3.032 2.468-5.5 5.5-5.5a5.47 5.47 0 014.667 2.601l.241.387.005-.002 5.35 8.572-2.505 1.562-3.258-5.222V37c0 .827-.673 1.5-1.5 1.5z" fill="#8bb7f0"></path><path d="M11 10c1.734 0 3.32.884 4.242 2.365l.531.843h.001l4.8 7.691-1.656 1.034-2.069-3.316L15 15.654V37c0 .551-.449 1-1 1s-1-.449-1-1V25.786h-3V37c0 .551-.449 1-1 1s-1-.449-1-1V24.713l-.484-.292L6 23.507V15c0-2.757 2.243-5 5-5m0-1a6 6 0 00-6 6v9.072l2 1.206V37a2 2 0 104 0V26.786h1V37a2 2 0 104 0V19.145l2.599 4.164 3.353-2.093-5.856-9.383-.004.003A5.991 5.991 0 0011 9z" fill="#4e7ab5"></path><circle cx="29.5" cy="4.5" r="3" fill="#ffeea3"></circle><path d="M29.5 2C30.878 2 32 3.121 32 4.5S30.878 7 29.5 7 27 5.879 27 4.5 28.122 2 29.5 2m0-1a3.5 3.5 0 100 7 3.5 3.5 0 000-7z" fill="#ba9b48"></path><g><path fill="#8bb7f0" d="M22.893 15.929h6.786v-4.072h-4.072z"></path></g><g><path d="M20.443 24.188a1.48 1.48 0 01-1.251-2.258l.748-1.199 2.505 1.562-.748 1.2c-.271.435-.74.695-1.254.695z" fill="#ffeea3"></path><path d="M20.1 21.419l1.656 1.034-.484.775a.973.973 0 01-1.345.312.977.977 0 01-.311-1.345l.484-.776m-.318-1.377l-1.013 1.623a1.976 1.976 0 003.352 2.093l1.013-1.623-3.352-2.093z" fill="#ba9b48"></path></g><g><path d="M34 26.5c-.827 0-1.5-.673-1.5-1.5v-2.833h3V25c0 .827-.673 1.5-1.5 1.5z" fill="#ffeea3"></path><path d="M35 22.667V25c0 .551-.449 1-1 1s-1-.449-1-1v-2.333h2m1-1h-4V25a2 2 0 104 0v-3.333z" fill="#ba9b48"></path></g><g><path d="M32 38.5c-.827 0-1.5-.673-1.5-1.5V26.286h-2V37c0 .827-.673 1.5-1.5 1.5s-1.5-.673-1.5-1.5V17.398l-3.258 5.222-2.505-1.562 5.351-8.572.245-.385A5.47 5.47 0 0130 9.5c3.032 0 5.5 2.468 5.5 5.5v8.789l-2 1.206V37c0 .827-.673 1.5-1.5 1.5z" fill="#bae0bd"></path><path d="M30 10c2.757 0 5 2.243 5 5v8.507l-1.516.915-.484.291V37c0 .551-.449 1-1 1s-1-.449-1-1V25.786h-3V37c0 .551-.449 1-1 1s-1-.449-1-1V15.654l-1.848 2.962-2.069 3.316-1.656-1.034 4.8-7.691.005.003.526-.845A4.972 4.972 0 0130 10m0-1a5.989 5.989 0 00-5.092 2.836l-.004-.003-5.856 9.383 3.353 2.093L25 19.145V37a2 2 0 104 0V26.786h1V37a2 2 0 104 0V25.278l2-1.206V15a6 6 0 00-6-6z" fill="#5e9c76"></path></g></svg>