<svg viewBox="0 0 40 40" xmlns="http://www.w3.org/2000/svg"><path d="M.5 24.954v-5.098L5.226 8.188C6.108 5.5 7.711 5.5 8.571 5.5h22.857c.86 0 2.463 0 3.335 2.656L39.5 19.749v5.205H.5z" fill="#8bb7f0"></path><path d="M31.429 6c.836 0 2.1 0 2.859 2.312l.011.034.013.033L39 19.847v4.607H1v-4.501L5.689 8.375l.013-.031.01-.032C6.471 6 7.735 6 8.571 6h22.858m0-1H8.571c-1.048 0-2.857.1-3.81 3L0 19.759v5.695h40V19.65L35.238 8c-.952-2.9-2.762-3-3.809-3z" fill="#4e7ab5"></path><path d="M2 34.5c-.827 0-1.5-.673-1.5-1.5V20c0-.827.673-1.5 1.5-1.5h36c.827 0 1.5.673 1.5 1.5v13c0 .827-.673 1.5-1.5 1.5H2z" fill="#c2e8ff"></path><path d="M38 19c.551 0 1 .449 1 1v13c0 .551-.449 1-1 1H2c-.551 0-1-.449-1-1V20c0-.551.449-1 1-1h36m0-1H2a2 2 0 00-2 2v13a2 2 0 002 2h36a2 2 0 002-2V20a2 2 0 00-2-2z" fill="#7496c4"></path><path fill="#f5c276" d="M23.527 31.5L36.5 21.986V31.5z"></path><path d="M36 22.973V31H25.055L36 22.973M37 21L22 32h15V21z" fill="#4e7ab5"></path><path fill="#f5c276" d="M3.5 31.5v-9.514L16.473 31.5z"></path><path d="M4 22.973L14.945 31H4v-8.027M3 21v11h15L3 21z" fill="#4e7ab5"></path><g><path d="M5 9l-2 5c1.035-.059 2.776.299 3.738-1.316C7.764 10.96 8.072 9 9.816 9c3.182 0 6.568-.845 7.184-3H9c-2.119 0-3.048.1-4 3z" fill="#4e7ab5"></path></g><path fill="#8bb7f0" d="M33.136 19L20 27.85 6.864 19h-1.79L20 29.055 34.926 19z"></path><path d="M6 27a1.997 1.997 0 003.965.348l-2.883-2.115A1.992 1.992 0 006 27zM34 27a1.997 1.997 0 01-3.965.348l2.883-2.115c.64.334 1.082.995 1.082 1.767z" fill="#fff"></path></svg>