<svg viewBox="0 0 40 40" xmlns="http://www.w3.org/2000/svg"><path d="M16.74 38.5a21.608 21.608 0 01-15.029-6.023L32.477 1.711c8.133 8.51 8.016 22.05-.35 30.416A21.618 21.618 0 0116.74 38.5z" fill="#cee0a1"></path><path d="M32.464 2.43C36.042 6.353 38 11.396 38 16.74a21.117 21.117 0 01-6.227 15.033A21.117 21.117 0 0116.74 38c-5.344 0-10.387-1.958-14.31-5.536L32.464 2.43M32.48 1L1 32.48C5.347 36.827 11.043 39 16.74 39s11.394-2.173 15.74-6.52c8.693-8.693 8.693-22.787 0-31.48z" fill="#5e9c76"></path><path d="M16.74 35.6a18.73 18.73 0 01-12.978-5.175L30.425 3.762A18.732 18.732 0 0135.6 16.74c0 5.038-1.962 9.773-5.524 13.335S21.778 35.6 16.74 35.6z" fill="#ffeea3"></path><path d="M30.41 4.484c6.462 7.199 6.233 18.317-.688 25.238A18.237 18.237 0 0116.74 35.1a18.225 18.225 0 01-12.256-4.689L30.41 4.484m.019-1.433L3.051 30.429c3.78 3.78 8.735 5.67 13.689 5.67s9.909-1.89 13.689-5.67c7.561-7.56 7.561-19.818 0-27.378z" fill="#ba9b48"></path><path d="M26.574 8.406s5.62 8.636-1.952 16.207-16.48 2.224-16.48 2.224L26.574 8.406z" fill="#f5ce85"></path><path d="M21.864 21.934c-.103.103-1.168-.013-1.913-.758-.745-.745-.898-2.142-.773-2.266.125-.125 1.279.236 1.991.949s.798 1.972.695 2.075zM23.733 19.871c-.103.103-1.168-.013-1.913-.758s-.898-2.142-.773-2.266c.125-.125 1.279.236 1.991.949s.798 1.972.695 2.075zM25.74 17.045c-.063.132-1.11.382-2.066-.072-.956-.453-1.572-1.723-1.497-1.883.076-.16 1.29-.208 2.204.226.915.434 1.421 1.597 1.359 1.729zM26.677 14.172c-.037.126-.931.495-1.843.227s-1.638-1.308-1.593-1.46c.045-.153 1.115-.366 1.988-.11.872.255 1.485 1.216 1.448 1.343zM19.871 23.733c.103-.103-.013-1.168-.758-1.913s-2.142-.898-2.266-.773c-.125.125.236 1.279.949 1.991s1.972.798 2.075.695z" fill="#967a44"></path><g><path d="M16.949 25.495c.133-.06.398-1.099-.037-2.057-.435-.959-1.689-1.593-1.85-1.52-.16.073-.228 1.28.189 2.198.416.917 1.565 1.44 1.698 1.379z" fill="#967a44"></path></g><g><path d="M14.172 26.677c.126-.037.495-.931.227-1.843-.268-.912-1.308-1.638-1.46-1.593-.153.045-.366 1.115-.11 1.988.255.872 1.216 1.485 1.343 1.448z" fill="#967a44"></path></g></svg>