<svg viewBox="0 0 40 40" xmlns="http://www.w3.org/2000/svg"><circle cx="20" cy="20" r="3.5" fill="#c2e8ff"></circle><path d="M20 17c1.654 0 3 1.346 3 3s-1.346 3-3 3-3-1.346-3-3 1.346-3 3-3m0-1a4 4 0 100 8 4 4 0 000-8z" fill="#7496c4"></path><circle cx="20" cy="7" r="3.5" fill="#c2e8ff"></circle><path d="M20 4c1.654 0 3 1.346 3 3s-1.346 3-3 3-3-1.346-3-3 1.346-3 3-3m0-1a4 4 0 100 8 4 4 0 000-8z" fill="#7496c4"></path><g><circle cx="20" cy="33" r="3.5" fill="#c2e8ff"></circle><path d="M20 30c1.654 0 3 1.346 3 3s-1.346 3-3 3-3-1.346-3-3 1.346-3 3-3m0-1a4 4 0 100 8 4 4 0 000-8z" fill="#7496c4"></path></g></svg>