<svg viewBox="0 0 40 40" xmlns="http://www.w3.org/2000/svg"><path d="M18.5 38.5v-4h-4v-3h4v-4.103l-.417-.07A11.454 11.454 0 018.5 16C8.5 9.659 13.659 4.5 20 4.5S31.5 9.659 31.5 16c0 5.629-4.03 10.394-9.583 11.327l-.417.07V31.5h4v3h-4v4h-3zm1.5-30c-4.136 0-7.5 3.364-7.5 7.5s3.364 7.5 7.5 7.5 7.5-3.364 7.5-7.5-3.364-7.5-7.5-7.5z" fill="#f78f8f"></path><path d="M20 5c6.065 0 11 4.935 11 11 0 5.385-3.855 9.941-9.166 10.834l-.834.14V32h4v2h-4v4h-2v-4h-4v-2h4v-5.026l-.834-.14A10.955 10.955 0 019 16C9 9.935 13.935 5 20 5m0 19c4.411 0 8-3.589 8-8s-3.589-8-8-8-8 3.589-8 8 3.589 8 8 8m0-20C13.373 4 8 9.372 8 16c0 5.944 4.327 10.866 10 11.82V31h-4v4h4v4h4v-4h4v-4h-4v-3.18c5.673-.954 10-5.876 10-11.82 0-6.628-5.373-12-12-12zm0 19a7 7 0 110-14 7 7 0 010 14z" fill="#c74343"></path><path d="M20 7.5a7.501 7.501 0 01-7.343-6h3.114c.634 1.785 2.321 3 4.229 3s3.595-1.215 4.229-3h3.114A7.501 7.501 0 0120 7.5z" fill="#f78f8f"></path><path d="M14.981 6.219c.342-.176.695-.332 1.057-.472A6.971 6.971 0 0113.297 2h2.135A4.995 4.995 0 0020 5c2 0 3.781-1.201 4.568-3h2.135a6.973 6.973 0 01-2.742 3.747c.362.14.715.296 1.057.472A7.972 7.972 0 0027.93 1h-4.07c-.45 1.72-2 3-3.86 3s-3.41-1.28-3.86-3h-4.07a7.975 7.975 0 002.911 5.219z" fill="#c74343"></path></svg>