<svg viewBox="0 0 40 40" xmlns="http://www.w3.org/2000/svg"><path fill="#ffeea3" d="M1.5 35.5h37v3h-37z"></path><path d="M38 36v2H2v-2h36m1-1H1v4h38v-4z" fill="#ba9b48"></path><path fill="#ffeea3" d="M31.5 12.5h3v20h-3z"></path><path d="M34 13v19h-2V13h2m1-1h-4v21h4V12z" fill="#ba9b48"></path><path fill="#ffeea3" d="M23.5 12.5h3v20h-3z"></path><path d="M26 13v19h-2V13h2m1-1h-4v21h4V12z" fill="#ba9b48"></path><path fill="#ffeea3" d="M13.5 12.5h3v20h-3z"></path><path d="M16 13v19h-2V13h2m1-1h-4v21h4V12z" fill="#ba9b48"></path><path fill="#ffeea3" d="M5.5 12.5h3v20h-3z"></path><path d="M8 13v19H6V13h2m1-1H5v21h4V12z" fill="#ba9b48"></path><path fill="#e8d47b" d="M3.5 32.5h33v3h-33z"></path><path d="M36 33v2H4v-2h32m1-1H3v4h34v-4z" fill="#ba9b48"></path><path fill="#ffeea3" d="M3.5 12.5V9.317L20 1.553l16.5 7.764V12.5z"></path><path d="M20 2.105l16 7.529V12H4V9.635l16-7.53M20 1L3 9v4h34V9L20 1z" fill="#ba9b48"></path><circle cx="20" cy="8" r="2.5" fill="#e8d47b"></circle><path d="M20 6c1.103 0 2 .897 2 2s-.897 2-2 2-2-.897-2-2 .897-2 2-2m0-1a3 3 0 100 6 3 3 0 000-6z" fill="#ba9b48"></path><path d="M21 39.5c-.827 0-1.5-.673-1.5-1.5V28c0-.827.673-1.5 1.5-1.5h17c.827 0 1.5.673 1.5 1.5v10c0 .827-.673 1.5-1.5 1.5H21z" fill="#8bb7f0"></path><path d="M38 27c.551 0 1 .449 1 1v10c0 .551-.449 1-1 1H21c-.551 0-1-.449-1-1V28c0-.551.449-1 1-1h17m0-1H21a2 2 0 00-2 2v10a2 2 0 002 2h17a2 2 0 002-2V28a2 2 0 00-2-2z" fill="#4e7ab5"></path><path fill="#e1ebf2" d="M22.5 30.5h4v2h-4z"></path><path d="M26 31v1h-3v-1h3m1-1h-5v3h5v-3z" fill="#4e7ab5"></path><path fill="#e1ebf2" d="M22 34h3v1h-3zM26 34h3v1h-3zM30 34h3v1h-3zM34 34h3v1h-3zM30 29h8v2h-8zM22 36h10v1H22z"></path></svg>