<svg viewBox="0 0 40 40" xmlns="http://www.w3.org/2000/svg"><path d="M33 38.5c-8.547 0-15.5-6.953-15.5-15.5V7.5h5V23c0 5.79 4.71 10.5 10.5 10.5h5.5v5H33z" fill="#c2e8ff"></path><path d="M22 8v15c0 6.065 4.935 11 11 11h5v4h-5c-8.271 0-15-6.729-15-15V8h4m1-1h-6v16c0 8.822 7.178 16 16 16h6v-6h-6c-5.514 0-10-4.486-10-10V7z" fill="#4e7ab5"></path><g><path d="M1.5 38.5v-5H7c5.79 0 10.5-4.71 10.5-10.5V10.5h-4.459L20 1.801l6.959 8.699H22.5V23c0 8.547-6.953 15.5-15.5 15.5H1.5z" fill="#8bb7f0"></path><path d="M20 2.601L25.919 10H22v13c0 8.271-6.729 15-15 15H2v-4h5c6.065 0 11-4.935 11-11V10h-3.919L20 2.601M20 1l-8 10h5v12c0 5.514-4.486 10-10 10H1v6h6c8.822 0 16-7.178 16-16V11h5L20 1z" fill="#4e7ab5"></path></g></svg>