<svg viewBox="0 0 40 40" xmlns="http://www.w3.org/2000/svg"><path fill="#4e7ab5" d="M22 2h2v36h-2zM16 2h2v36h-2z"></path><path fill="#8bb7f0" d="M23.748 20l8.752-7.877V17.5h6v5h-6v5.377z"></path><path d="M32 13.245V18h6v4h-6v4.755L24.495 20 32 13.245M33 11l-10 9 10 9v-6h6v-6h-6v-6z" fill="#4e7ab5"></path><g><path fill="#8bb7f0" d="M7.5 22.5h-6v-5h6v-5.377L16.252 20 7.5 27.877z"></path><path d="M8 13.245L15.505 20 8 26.755V22H2v-4h6v-4.755M7 11v6H1v6h6v6l10-9-10-9z" fill="#4e7ab5"></path></g></svg>