<svg viewBox="0 0 40 40" xmlns="http://www.w3.org/2000/svg"><path d="M32.5 23.5H16.192A9.692 9.692 0 016.5 13.808M6.5 33.5v-27" fill="none" stroke="#a3b7cc" stroke-miterlimit="10"></path><path d="M6.5 10.5c-2.206 0-4-1.794-4-4s1.794-4 4-4 4 1.794 4 4-1.794 4-4 4z" fill="#8bb7f0"></path><path d="M6.5 3C8.43 3 10 4.57 10 6.5S8.43 10 6.5 10 3 8.43 3 6.5 4.57 3 6.5 3m0-1a4.5 4.5 0 100 9 4.5 4.5 0 000-9z" fill="#4e7ab5"></path><path d="M6.5 37.5c-2.206 0-4-1.794-4-4s1.794-4 4-4 4 1.794 4 4-1.794 4-4 4z" fill="#8bb7f0"></path><path d="M6.5 30c1.93 0 3.5 1.57 3.5 3.5S8.43 37 6.5 37 3 35.43 3 33.5 4.57 30 6.5 30m0-1a4.5 4.5 0 100 9 4.5 4.5 0 000-9z" fill="#4e7ab5"></path><g><path d="M33.5 27.5c-2.206 0-4-1.794-4-4s1.794-4 4-4 4 1.794 4 4-1.794 4-4 4z" fill="#8bb7f0"></path><path d="M33.5 20c1.93 0 3.5 1.57 3.5 3.5S35.43 27 33.5 27 30 25.43 30 23.5s1.57-3.5 3.5-3.5m0-1a4.5 4.5 0 100 9 4.5 4.5 0 000-9z" fill="#4e7ab5"></path></g></svg>