<svg viewBox="0 0 40 40" xmlns="http://www.w3.org/2000/svg"><path fill="#fff" d="M13.5 38.5v-12h-12v-25h25v12h12v25z"></path><path d="M26 2v12h12v24H14V26H2V2h24m1-1H1v26h12v12h26V13H27V1z" fill="#788b9c"></path><g fill="none" stroke="#788b9c" stroke-miterlimit="10"><path d="M13.5 26.499l.707-.707"></path><path stroke-dasharray="1.8203,1.8203" d="M15.494 24.505l9.655-9.653"></path><path d="M25.793 14.208l.707-.707"></path></g><path fill="#4e7ab5" d="M33 31l-5-5 3-3h-8v8l3-3 5 5z"></path><g><path fill="#4e7ab5" d="M7 9l5 5-3 3h8V9l-3 3-5-5z"></path></g></svg>