<svg viewBox="0 0 40 40" xmlns="http://www.w3.org/2000/svg"><path d="M14.206 38.5c-.541 0-1.112-.181-1.455-.46L2.157 29.417c-.408-.332-.636-.692-.641-1.015l-.007-.492H1.5v-7.979c-.001-.109.357-.47 1.205-.718l35.159.63c.584.388.636.688.636.941v8.338c0 .185 0 .617-.951.965l-22.742 8.318a1.735 1.735 0 01-.601.095z" fill="#dcd5f2"></path><path d="M2.775 19.715l34.928.626c.297.222.297.353.297.445v8.338c0 .08 0 .268-.622.495l-22.741 8.318c-.113.04-.266.063-.432.063-.419 0-.887-.143-1.138-.347L2.473 29.029c-.334-.272-.455-.505-.457-.633L2 27.868v-7.782c.112-.093.369-.244.775-.371m-.135-1.002c-.86.238-1.644.697-1.64 1.219v8.479h.017c.007.449.266.939.825 1.394l10.593 8.624c.447.363 1.137.571 1.77.571.278 0 .544-.04.775-.124l22.741-8.318c.882-.322 1.279-.796 1.279-1.435v-8.338c0-.544-.252-.99-.986-1.439L2.64 18.713z" fill="#8b75a1"></path><path d="M37.703 20.341L14 19.917v18.067c.069.007.138.016.205.016.166 0 .32-.023.432-.063l22.741-8.318c.622-.228.622-.415.622-.496v-8.338c0-.091 0-.222-.297-.444z" fill="#baafde"></path><path d="M29.064 15.487s5.407-.762 6.555-9.187c.468-3.427 1.105-4.801 1.67-4.801 1.031 0 1.53 2.255 1.53 5.042 0 11.747-4.715 12.415-4.715 12.415" fill="none" stroke="#8b75a1" stroke-miterlimit="10"></path><path d="M14.205 28.5c-.549 0-1.128-.163-1.476-.416L2.136 20.368c-.442-.321-.677-.668-.63-.928.047-.261.393-.503.925-.649l22.692-6.231c.142-.039.319-.06.513-.06.483 0 .998.123 1.311.313l10.806 6.552c.488.296.773.64.744.897-.03.259-.387.53-.932.708l-22.742 7.442a1.977 1.977 0 01-.618.088z" fill="#dcd5f2"></path><path d="M25.637 13c.45 0 .861.125 1.052.241l10.806 6.552c.311.188.435.338.482.411-.062.061-.218.179-.567.293l-22.742 7.442a1.58 1.58 0 01-.463.061c-.437 0-.922-.132-1.181-.32L2.431 19.964c-.27-.196-.383-.356-.418-.431.06-.058.225-.17.551-.259l22.693-6.232a1.5 1.5 0 01.38-.042m0-1c-.232 0-.454.025-.645.077L2.299 18.309c-1.533.421-1.739 1.53-.457 2.463l10.593 7.716c.447.326 1.137.512 1.77.512.277 0 .544-.036.775-.111l22.742-7.442c1.583-.518 1.715-1.647.293-2.509l-10.806-6.552c-.404-.245-1.018-.386-1.572-.386z" fill="#8b75a1"></path><g><path d="M28.922 23.273l-14.254 4.665a1.54 1.54 0 01-.463.062c-.437 0-.922-.132-1.181-.32L2.431 19.964c-.27-.196 22.569.83 22.569.83.098-.027 3.922 2.479 3.922 2.479z" fill="#cbc3e3"></path></g><g><path d="M25 20.794v-7.682L2.563 19.273c-.327.09-.491.201-.551.259.036.075.149.235.418.431l7.578 5.555L25 20.794z" fill="#baafde"></path></g></svg>