<svg viewBox="0 0 40 40" xmlns="http://www.w3.org/2000/svg"><path d="M6 36.5A2.503 2.503 0 013.5 34V6c0-1.379 1.122-2.5 2.5-2.5h28c1.378 0 2.5 1.121 2.5 2.5v28c0 1.379-1.122 2.5-2.5 2.5H6z" fill="#8bb7f0"></path><path d="M34 4c1.103 0 2 .897 2 2v28c0 1.103-.897 2-2 2H6c-1.103 0-2-.897-2-2V6c0-1.103.897-2 2-2h28m0-1H6a3 3 0 00-3 3v28a3 3 0 003 3h28a3 3 0 003-3V6a3 3 0 00-3-3z" fill="#4e7ab5"></path><path fill="#ffeea3" d="M8.5 11.5h23v17h-23z"></path><path d="M31 12v16H9V12h22m1-1H8v18h24V11z" fill="#ba9b48"></path><path d="M8.652 14.296l9.755 5.766a3.101 3.101 0 003.188 0l9.755-5.766" fill="none" stroke="#ba9b48" stroke-miterlimit="10"></path></svg>