<svg viewBox="0 0 40 40" xmlns="http://www.w3.org/2000/svg"><path fill="#dbf2ff" d="M1.5 1.5h17v17h-17z"></path><path d="M18 2v16H2V2h16m1-1H1v18h18V1z" fill="#7496c4"></path><path d="M13 28.5c-1.93 0-3.5-1.57-3.5-3.5V14c0-1.93 1.57-3.5 3.5-3.5h11c1.93 0 3.5 1.57 3.5 3.5v11c0 1.93-1.57 3.5-3.5 3.5H13z" fill="#a3d9fa"></path><path d="M24 11c1.654 0 3 1.346 3 3v11c0 1.654-1.346 3-3 3H13c-1.654 0-3-1.346-3-3V14c0-1.654 1.346-3 3-3h11m0-1H13a4 4 0 00-4 4v11a4 4 0 004 4h11a4 4 0 004-4V14a4 4 0 00-4-4z" fill="#7496c4"></path><g><path d="M28.5 38.5c-5.514 0-10-4.486-10-10s4.486-10 10-10 10 4.486 10 10-4.486 10-10 10z" fill="#8bb7f0"></path><path d="M28.5 19c5.238 0 9.5 4.262 9.5 9.5S33.738 38 28.5 38 19 33.738 19 28.5s4.262-9.5 9.5-9.5m0-1C22.701 18 18 22.701 18 28.5S22.701 39 28.5 39 39 34.299 39 28.5 34.299 18 28.5 18z" fill="#4e7ab5"></path></g></svg>