<svg viewBox="0 0 40 40" xmlns="http://www.w3.org/2000/svg"><path d="M30.532 38.5v-33H9.5v33H6.532v-33H6.5V4c0-1.379 1.121-2.5 2.5-2.5h22c1.379 0 2.5 1.121 2.5 2.5v34.5h-2.968z" fill="#b6c9d6"></path><path d="M31 2c1.103 0 2 .897 2 2v34h-1.968V5H9v33H7.032V6L7 5V4c0-1.103.897-2 2-2h22m0-1H9a3 3 0 00-3 3v2h.032v33H10V6h20.032v33H34V4a3 3 0 00-3-3z" fill="#788b9c"></path><circle cx="20" cy="4" r="1" fill="#ffeea3"></circle><circle cx="23" cy="4" r="1" fill="#ffeea3"></circle><circle cx="17" cy="4" r="1" fill="#ffeea3"></circle><circle cx="20" cy="11" r="3.5" fill="#f5ce85"></circle><path d="M20 8c1.654 0 3 1.346 3 3s-1.346 3-3 3-3-1.346-3-3 1.346-3 3-3m0-1a4 4 0 100 8 4 4 0 000-8z" fill="#967a44"></path><path d="M25 29.5c-.827 0-1.5-.673-1.5-1.5v-5.5h3V28c0 .827-.673 1.5-1.5 1.5z" fill="#f5ce85"></path><path d="M26 23v5c0 .551-.449 1-1 1s-1-.449-1-1v-5h2m1-1h-4v6a2 2 0 104 0v-6z" fill="#967a44"></path><path d="M15 29.5c-.827 0-1.5-.673-1.5-1.5v-5.5h3V28c0 .827-.673 1.5-1.5 1.5z" fill="#f5ce85"></path><path d="M16 23v5c0 .551-.449 1-1 1s-1-.449-1-1v-5h2m1-1h-4v6a2 2 0 104 0v-6z" fill="#967a44"></path><path d="M17.46 38.5l-.917-11H13.5V21c0-2.481 2.019-4.5 4.5-4.5h4c2.481 0 4.5 2.019 4.5 4.5v6.5h-3.043l-.917 11h-5.08z" fill="#8bb7f0"></path><path d="M22 17c2.206 0 4 1.794 4 4v6h-3.003l-.076.917L22.08 38h-4.16l-.84-10.083-.077-.917H14v-6c0-2.206 1.794-4 4-4h4m0-1h-4a5 5 0 00-5 5v7h3.083L17 39h6l.917-11H27v-7a5 5 0 00-5-5z" fill="#4e7ab5"></path><path fill="none" stroke="#4e7ab5" stroke-linejoin="round" stroke-miterlimit="10" d="M23.5 28v-6M16.5 28v-6"></path><path fill="none" stroke="#f78f8f" stroke-linecap="round" stroke-miterlimit="10" d="M38.5 20.5h-3"></path><g><path fill="none" stroke="#f78f8f" stroke-linecap="round" stroke-miterlimit="10" d="M38.5 14.5l-3 1"></path><path fill="#231f20" d="M38.5 14.5l-3 1"></path></g><g><path fill="none" stroke="#f78f8f" stroke-linecap="round" stroke-miterlimit="10" d="M38.5 26.5l-3-1"></path><path fill="#231f20" d="M38.5 26.5l-3-1"></path></g><g><path fill="none" stroke="#f78f8f" stroke-linecap="round" stroke-miterlimit="10" d="M1.5 20.5h3"></path></g><g><path fill="none" stroke="#f78f8f" stroke-linecap="round" stroke-miterlimit="10" d="M1.5 26.5l3-1"></path><path fill="#231f20" d="M1.5 26.5l3-1"></path></g><g><path fill="none" stroke="#f78f8f" stroke-linecap="round" stroke-miterlimit="10" d="M1.5 14.5l3 1"></path><path fill="#231f20" d="M1.5 14.5l3 1"></path></g></svg>