<svg viewBox="0 0 40 40" xmlns="http://www.w3.org/2000/svg"><path d="M6 17.5c-4.419 0-5.288-3.629-5.458-5H6.5v5H6z" fill="#b3add8"></path><path d="M6 13v4c-3.547 0-4.578-2.515-4.878-4H6m1-1H0s.095 6 6 6h1v-6z" fill="#8b75a1"></path><path fill="#b3add8" d="M14.5 18.5h12v10h-12z"></path><path d="M26 19v9H15v-9h11m1-1H14v11h13V18z" fill="#8b75a1"></path><g><path d="M5.5 20.5v-11h34v.382c0 5.954-4.393 10.618-10 10.618h-24z" fill="#dcd5f2"></path><path d="M38.999 10c-.058 5.617-4.209 10-9.499 10H6V10h32.999M40 9H5v12h24.5C35.333 21 40 16.104 40 9.882V9z" fill="#8b75a1"></path></g><g><path d="M9.5 30.5v-.651a2.352 2.352 0 012.349-2.349h17.303a2.352 2.352 0 012.349 2.349v.651H9.5z" fill="#dcd5f2"></path><path d="M29.151 28A1.85 1.85 0 0131 29.849V30H10v-.151A1.85 1.85 0 0111.849 28h17.302m0-1H11.849A2.848 2.848 0 009 29.849V31h23v-1.151A2.848 2.848 0 0029.151 27z" fill="#8b75a1"></path></g></svg>