<svg viewBox="0 0 40 40" xmlns="http://www.w3.org/2000/svg"><path d="M5.438 35.5C5.225 33.888 4.5 28.153 4.5 25c0-17.459 6.568-19.5 6.635-19.519.841-.235 1.647-.809 2.581-1.473C15.369 2.833 17.244 1.5 20 1.5s4.631 1.333 6.285 2.509c.934.664 1.74 1.237 2.581 1.473C28.932 5.5 35.5 7.541 35.5 25c0 3.153-.725 8.888-.938 10.5H5.438z" fill="#b08159"></path><path d="M20 2c2.597 0 4.402 1.284 5.995 2.417.931.662 1.81 1.287 2.735 1.546C30.474 6.451 35 10.823 35 25c0 2.886-.616 7.977-.877 10H5.877C5.616 32.977 5 27.886 5 25 5 10.823 9.526 6.451 11.27 5.963c.925-.259 1.804-.884 2.735-1.546C15.598 3.284 17.403 2 20 2m.01-1H20h.01zM20 1c-4.491 0-6.841 3.395-9 4-1.771.496-7 4.5-7 20 0 3.753 1 11 1 11h30s1-7.247 1-11c0-15.5-5.229-19.504-7-20-2.159-.605-4.509-4-9-4zm0 0h-.01.01z" fill="#a16a4a"></path><path d="M31.105 30.515l.015-.023.013-.024c.386-.689.729-2.058.834-3.331a7.438 7.438 0 00-.005-1.453c.037-1.082.282-10.88-2.601-16.41l-.011-.023-.013-.022C28.504 7.812 27.105 7 25.5 7c-.701 0-1.433.201-2.281.434C22.253 7.699 21.158 8 20 8s-2.253-.301-3.219-.566C15.933 7.201 15.201 7 14.5 7c-1.605 0-3.004.812-3.837 2.229l-.013.022-.012.023C7.755 14.805 8 24.602 8.037 25.684c-.048.419-.05.907-.005 1.453.106 1.273.449 2.643.834 3.332l.013.024.015.023c.032.051 1.994 3.063 4.466 5.485h1.45c-2.121-1.868-4.154-4.576-5.071-6.021-.308-.55-.616-1.787-.71-2.925a6.333 6.333 0 01.01-1.327s-.415-10.427 2.485-15.992C12.137 8.694 13.188 8 14.5 8s3.225 1 5.5 1 4.188-1 5.5-1 2.363.694 2.975 1.735c2.901 5.565 2.485 15.992 2.485 15.992.052.386.05.847.01 1.327-.094 1.138-.402 2.376-.71 2.925-.917 1.444-2.95 4.153-5.071 6.021h1.45c2.472-2.422 4.434-5.434 4.466-5.485z" fill="#a16a4a"></path><path d="M9.558 26.5c-.917 0-3.051-.353-3.051-3.62l-.003-.516c-.013-1.544-.027-3.141.926-4.102.501-.505 1.217-.762 2.128-.762.135 0 .247.013.359.026l.64.058-.06.513c-.376 3.198-.425 6.321-.42 7.899l.001.501-.52.003z" fill="#b2acd1"></path><path d="M9.557 18c.17 0 .295.026.443.039-.374 3.183-.429 6.266-.424 7.958-.006 0-.012.003-.019.003-1.446 0-2.551-.88-2.551-3.12S6.751 18 9.557 18m0-1c-1.049 0-1.884.306-2.483.911-1.1 1.109-1.085 2.889-1.071 4.458l.003.511c0 2.58 1.328 4.12 3.551 4.12h.113l.017-.004.892-.008-.003-.994c-.005-1.565.044-4.665.417-7.839l.121-1.026-1.029-.087-.11-.012c-.13-.016-.26-.03-.418-.03z" fill="#a16a4a"></path><path d="M30.267 26.5l-.073-.014-.48-.036.068-.476c.001-.036.125-3.737-.279-7.9l-.051-.52.522-.027c.175-.02.252-.027.346-.027 1.131 0 1.93.251 2.442.768.759.767.748 1.903.735 3.219l-.003.513c0 2.565-1.365 4.5-3.174 4.5h-.053z" fill="#b2acd1"></path><path d="M30.319 18c2.942 0 2.674 1.76 2.674 4s-1.159 4-2.674 4c-.013 0-.025-.005-.038-.006.001-.035.127-3.76-.281-7.968.112-.005.197-.026.319-.026m0-1c-.117 0-.213.01-.308.021l-.065.007-1.042.056.101 1.039c.399 4.116.278 7.8.277 7.836l-.035 1.015.924.018.021.005.127.003c2.095 0 3.674-2.15 3.674-5l.003-.509c.013-1.368.025-2.661-.88-3.575-.61-.616-1.525-.916-2.797-.916z" fill="#a16a4a"></path><path d="M30.96 25.727s.415-10.427-2.485-15.992C27.863 8.694 26.812 8 25.5 8S22.275 9 20 9s-4.188-1-5.5-1-2.363.694-2.975 1.736C8.624 15.3 9.04 25.727 9.04 25.727c-.052.386-.05.847-.01 1.327.094 1.139.402 2.376.71 2.925C11.227 32.322 15.65 38 18.625 38h1.274l.101-.005.101.005h1.274c2.975 0 7.398-5.678 8.885-8.021.308-.55.616-1.787.71-2.925.04-.479.042-.941-.01-1.327z" fill="#dcd5f2"></path><path d="M21.375 38h-1.274L20 37.995l-.101.005h-1.274c-1.141 0-2.495-.838-3.814-2h-1.45c1.667 1.633 3.563 3 5.264 3h1.274l.097-.004.057.003 1.322.001c1.702 0 3.598-1.367 5.264-3h-1.45c-1.319 1.162-2.673 2-3.814 2zM24 32h-8v-1s1.922-1 4-1 4 1 4 1v1z" fill="#8b75a1"></path><path d="M14 27c4.031 0 4-8.594 4-8.594h-1S16.906 26 14 26c-2.031 0-2-2-2-2h-1s-.031 3 3 3zM26 27c-4.031 0-4-8.594-4-8.594h1S23.094 26 26 26c2.031 0 2-2 2-2h1s.031 3-3 3z" fill="#b2acd1"></path><g><path d="M25.5 20.5c-1.295 0-3-1.194-3-1.899 0-.62 1.613-1.101 3-1.101 1.197 0 2.303 1.121 2.842 1.83-1 .852-2.216 1.17-2.842 1.17z" fill="#4b6477"></path><path d="M25.5 18c.808 0 1.601.662 2.126 1.249-.798.541-1.654.751-2.126.751-1.021 0-2.374-.96-2.493-1.37.199-.236 1.225-.63 2.493-.63m0-1c-1.4 0-3.5.48-3.5 1.6s2.1 2.4 3.5 2.4c.9 0 2.4-.48 3.5-1.6 0 0-1.5-2.4-3.5-2.4z" fill="#36404d"></path></g><g><path d="M14.5 20.5c-.626 0-1.84-.316-2.839-1.167.464-.607 1.558-1.833 2.839-1.833 1.387 0 3 .48 3 1.101 0 .705-1.705 1.899-3 1.899z" fill="#4b6477"></path><path d="M14.5 18c1.265 0 2.289.392 2.492.629-.131.42-1.476 1.371-2.492 1.371-.472 0-1.328-.209-2.126-.751C12.9 18.661 13.692 18 14.5 18m0-1c-2 0-3.5 2.4-3.5 2.4 1.1 1.12 2.6 1.6 3.5 1.6 1.4 0 3.5-1.28 3.5-2.4 0-1.12-2.1-1.6-3.5-1.6z" fill="#36404d"></path></g></svg>