<svg viewBox="0 0 40 40" xmlns="http://www.w3.org/2000/svg"><path d="M34 16.109C34 10.526 29.383 6 23.687 6c-5.695 0-10.312 4.526-10.312 10.109 0 2.328.955 3.689.687 6.065C13.829 24.247 12 26.167 12 28.913 12 33.379 15.694 37 20.25 37 28.447 37 34 28.239 34 16.109z" fill="#bae0bd"></path><path d="M23.687 6H23.564 23.521 23.431 23.413l-.041.001h-.032-.067H23.264l-.033.001h-.008H23.097 22.981a9.2 9.2 0 00-.294.024l.281 2.987c.239-.002.48-.013.719-.013V6zm-4.813 1.166a10.71 10.71 0 00-.184.098l-.006.003-.006.003-.001.001-.005.003-.002.001a.008.008 0 01-.004.002l-.003.002-.004.002-.003.002-.003.002-.004.002-.003.001-.006.003-.002.001-.005.003-.001.001-.006.003-.001.001-.006.003c-.166.092-.33.189-.49.29l-.006.004-.002.001-.005.003-.003.002-.004.002-.003.002-.003.002-.004.003-.003.002-.004.003-.001.001-.006.004-.001.001-.005.003-.001.001-.006.004-.06.039 1.631 2.518c.198-.128.404-.248.614-.357l-1.383-2.665zm-3.721 3.266l-.034.05-.004.006-.001.001-.003.005-.001.002-.003.005-.001.002-.003.004-.002.003-.003.004-.002.003-.002.003-.002.003-.002.003-.002.003-.002.003-.002.004-.002.003-.003.004-.002.002-.003.004-.001.002-.003.004-.001.002-.003.005-.001.002-.003.005-.001.001-.004.005-.001.001-.004.006-.004.006v.001l-.004.006c-.112.169-.22.341-.322.517l-.001.001-.003.006-.002.003-.002.004-.002.003-.002.004-.002.003-.002.004a.008.008 0 00-.002.004l-.001.003-.003.005-.001.001-.003.006-.001.001-.004.006-.004.007-.063.111 2.622 1.457c.113-.203.238-.404.371-.596l-2.464-1.713zm-1.724 4.637l-.024.261v.001l-.001.007v.001l-.001.008-.001.016-.001.008V15.449c-.013.205-.021.411-.022.619l3 .012a7.05 7.05 0 01.038-.699l-2.988-.312zm3.526 4.455l-2.96.486c.014.082.026.165.038.249l.001.007.002.015v.001l.001.006v.002l.001.007v.001l.001.006v.002l.001.004v.003l.001.005.001.004v.011l.001.004v.002l.001.008v.002l.001.005v.002l.001.005.001.011v.001l.001.005v.001l.003.022c.01.084.02.17.027.256l.002.023v.001l.001.017V20.711l.001.01V20.781l.001.015v.008l.001.015.001.008.01.177 2.997-.137c-.013-.435-.06-.875-.137-1.343zm-3.805 5.314c-.138.301-.276.603-.408.913l2.762 1.171c.12-.283.247-.559.371-.831l.002-.004-2.727-1.249zm1.871 4.531l-2.988.272c.018.195.043.388.074.579l.004.024v.001l.001.005v.001l.001.005.003.018v.001l.001.005v.001l.001.005v.002l.001.005.002.011v.001l.001.005v.001l.001.005v.002l.001.005v.001l.003.016v.002l.001.005v.002l.001.005v.001l.003.017v.001l.001.005v.002l.001.005v.002l.001.005a.05.05 0 01.002.012l.001.005v.001l.001.006v.001l.005.024v.001l.001.006v.001l.037.178 2.93-.646a5.37 5.37 0 01-.091-.612zm1.214 2.822l-2.262 1.97.002.003.001.001.003.003.002.002.003.003.004.005.002.002.003.003.001.001a.018.018 0 01.004.005l.001.001.015.017c.193.218.398.426.613.623l.005.005.011.01.001.001.005.004.001.001.004.004.001.001.005.005.001.001.005.004.002.002.003.003.001.001 2.006-2.23a5.546 5.546 0 01-.443-.451zm2.674 1.642l-.741 2.907.165.04h.001l.006.001h.001l.006.001h.001l.014.003.002.001.005.001.003.001.004.001.003.001.004.001.003.001.006.001.005.001.003.001.004.001h.001a.01.01 0 00.005.001h.002l.005.001h.001a.105.105 0 01.017.004h.001l.005.001h.001l.005.001h.001l.025.005.006.001c.082.017.163.034.245.049l.006.001.025.004.006.001h.001l.005.001.017.003h.002l.004.001h.002l.004.001h.002l.005.001h.001l.009.002h.002l.005.001.003.001.004.001.003.001.004.001.004.001h.003l.007.001h.001l.007.001h.001l.006.001h.002l.005.001h.002l.007.001.015.002h.001l.007.001h.001c.08.013.16.025.241.035l.389-2.975a4.356 4.356 0 01-.624-.115zm4.096-.326a7.832 7.832 0 01-.681.221l.789 2.894c.21-.057.419-.121.625-.191l.021-.007.001-.001.014-.005.002-.001.004-.001.003-.001.005-.002.004-.001.003-.001.004-.001.003-.001.005-.002h.001l.007-.002.002-.001.005-.002h.001l.007-.002h.001l.006-.002.002-.001.014-.005a7.15 7.15 0 00.212-.077l-1.06-2.808zm3.079-2.042a10.28 10.28 0 01-.566.526l1.957 2.274.026-.023.04-.035a.973.973 0 00.035-.031l.001-.001.017-.015.017-.015.017-.015h.001l.004-.004.012-.011.001-.001.004-.003.001-.001.013-.011.004-.004.017-.015.001-.001.004-.004.001-.001.012-.011.001-.001.004-.004.001-.001.008-.007.001-.001.003-.003.002-.002.003-.003.002-.002.011-.01.002-.002.003-.003.002-.002.003-.003.002-.002.005-.005.002-.002.003-.002.003-.003.002-.002.005-.004.001-.001.004-.004.002-.002.003-.003.001-.001.005-.005.006-.005.002-.001.004-.003.002-.002.004-.004.001-.001.005-.005.001-.001.004-.004.001-.001.004-.004.001-.001.005-.005.005-.005.001-.001.005-.005.011-.01c.12-.112.239-.226.356-.344l-2.121-2.116zm2.365-3.312c-.131.252-.267.498-.408.738l2.586 1.521c.034-.058.068-.115.101-.174l.011-.02.001-.002a.008.008 0 00.002-.004l.002-.003.002-.003a.008.008 0 00.002-.004l.001-.001.003-.005c.103-.18.203-.364.302-.55l.002-.003.001-.003.002-.004.001-.002.002-.005.001-.002.003-.006.044-.084-2.661-1.384zm1.558-4.062c-.078.288-.161.572-.249.851l2.863.896a25.853 25.853 0 00.28-.96l-2.894-.787zm.813-4.436c-.032.305-.068.607-.108.905l2.973.399c.018-.133.035-.266.051-.4v-.001l.002-.014v-.002l.002-.013v-.002l.002-.013v-.004l.001-.01.001-.006.001-.009.001-.007.001-.007.001-.009.001-.006.001-.011v-.004l.002-.014v-.002l.023-.196v-.003l.001-.013v-.004l.001-.011.001-.005.001-.01.001-.007.001-.006.001-.01v-.005l.001-.012v-.004l.001-.013v-.002l.002-.015v-.001l.015-.141-2.981-.312zm3.116-4.68l-2.981.339c.026.23.041.465.044.699l3-.04-.002-.092v-.008-.008-.008-.006-.002-.006-.002-.005-.003-.004-.004-.001c-.004-.129-.01-.256-.018-.383v-.001-.007-.008-.007-.001-.007-.001l-.001-.007v-.001V15.392v-.006-.001-.006-.003-.005-.003-.005-.003-.004-.004-.004-.005-.002l-.001-.007c-.016-.122-.028-.241-.041-.359zm-1.769-4.62l-2.449 1.733c.135.191.262.39.377.593l2.609-1.482a9.714 9.714 0 00-.537-.844zm-3.751-3.232L27.06 9.799c.21.107.418.225.617.351l1.608-2.533c-.28-.178-.57-.343-.869-.494zM23.687 6v3c.217 0 .435.009.65.028l.255-2.989a10.295 10.295 0 00-.531-.032h-.008l-.033-.001h-.017l-.033-.001h-.008-.04-.024-.025-.008-.008-.058-.05H23.697C23.693 6 23.69 6 23.687 6z" fill="#5e9c76"></path><path d="M23.687 7C28.822 7 33 11.086 33 16.109 33 27.82 27.757 36 20.25 36 16.252 36 13 32.821 13 28.913c0-1.347.538-2.52 1.057-3.655.433-.945.88-1.922.999-2.972.167-1.482-.085-2.599-.328-3.678-.182-.807-.353-1.57-.353-2.499 0-5.023 4.178-9.109 9.312-9.109m0-1c-5.695 0-10.312 4.526-10.312 10.109 0 2.328.955 3.689.687 6.065C13.829 24.247 12 26.167 12 28.913 12 33.379 15.694 37 20.25 37 28.447 37 34 28.239 34 16.109 34 10.526 29.383 6 23.687 6z" fill="#5e9c76"></path><circle cx="23.5" cy="16.5" r="3.5" fill="#5e9c76"></circle><circle cx="35.5" cy="4.5" r="3" fill="#dbf2ff"></circle><path d="M35.5 2C36.878 2 38 3.122 38 4.5S36.878 7 35.5 7 33 5.878 33 4.5 34.122 2 35.5 2m0-1a3.5 3.5 0 100 7 3.5 3.5 0 000-7z" fill="#66798f"></path><circle cx="4" cy="36" r="1.5" fill="#dbf2ff"></circle><path d="M4 35c.551 0 1 .449 1 1s-.449 1-1 1-1-.449-1-1 .449-1 1-1m0-1a2 2 0 10-.001 3.999A2 2 0 004 34z" fill="#66798f"></path><circle cx="20" cy="29" r="2" fill="#5e9c76"></circle><g><path d="M4.5 11.5c-1.103 0-2-.897-2-2 0-.125.023-3.07 2.027-5.153C5.857 3.129 7.538 2.5 9.5 2.5c1.141 0 2 .86 2 2s-.859 2-2 2c-1.879 0-3 1.122-3 3 0 1.103-.897 2-2 2z" fill="#ffc49c"></path><path d="M9.5 3c.869 0 1.5.631 1.5 1.5S10.369 6 9.5 6C7.341 6 6 7.341 6 9.5c0 .827-.673 1.5-1.5 1.5S3 10.327 3 9.5c0-.116.021-2.845 1.866-4.784C6.136 3.561 7.653 3 9.5 3m0-1C6.833 2 5.167 3.083 4.167 4 2.083 6.167 2 9.167 2 9.5 2 10.833 3.083 12 4.5 12 5.833 12 7 10.917 7 9.5 7 8.333 7.5 7 9.5 7 10.917 7 12 5.917 12 4.5S10.917 2 9.5 2z" fill="#a16a4a"></path></g><g><path d="M6.988 26.5a1.46 1.46 0 01-.382-.052c-2.551-.515-4.261-2.34-4.959-3.749-.147-.229-.147-.534-.147-.78.062-.407.334-1.003.893-1.245.24-.12.468-.175.702-.175.568 0 1.082.322 1.34.84l-.007-.025c.222.576 1.227 1.814 2.827 2.193.428.073.75.271.967.578.239.341.33.797.248 1.252-.182.668-.795 1.163-1.482 1.163z" fill="#ffeea3"></path><path d="M3.095 21c.377 0 .719.216.891.562l.004-.002c.346.819 1.5 2.043 3.15 2.434l.032.008.033.005a.887.887 0 01.608.366c.157.223.219.524.173.833-.145.47-.55.794-.998.794a.923.923 0 01-.249-.034l-.033-.009-.035-.007c-3.08-.62-4.433-3.183-4.577-3.473l-.023-.048-.034-.052c-.03-.064-.036-.244-.037-.379.061-.331.244-.714.59-.864l.027-.012.026-.013c.145-.072.296-.109.452-.109m0-1c-.302 0-.61.069-.9.216-.697.3-1.095 1.002-1.195 1.703 0 .301 0 .702.199 1.002.597 1.203 2.289 3.407 5.275 4.009.172.047.345.07.514.07.906 0 1.723-.644 1.974-1.573.199-1.102-.398-2.205-1.592-2.405-1.692-.401-2.488-1.804-2.488-1.904A1.993 1.993 0 003.095 20z" fill="#ba9b48"></path></g><g><path d="M34.363 38.5c-.419 0-.769-.109-1.101-.343-.806-.589-1.002-1.575-.46-2.341.323-.411 1.391-2.224 2.053-5.847a1.815 1.815 0 012.083-1.443c1.007.172 1.646 1.023 1.553 2.069-.862 4.537-2.367 6.902-2.627 7.178-.401.468-.95.727-1.501.727z" fill="#dcd5f2"></path><path d="M36.631 29c.073 0 .148.006.223.019.737.126 1.191.721 1.142 1.488-.893 4.67-2.374 6.758-2.497 6.923l-.011.011-.036.042a1.476 1.476 0 01-1.089.517c-.314 0-.565-.078-.798-.242-.585-.427-.734-1.096-.366-1.634.496-.624 1.531-2.686 2.146-6.054.118-.61.671-1.07 1.286-1.07m0-1a2.329 2.329 0 00-2.269 1.879c-.694 3.8-1.85 5.538-1.966 5.646-.694.977-.463 2.28.578 3.04.464.326.926.435 1.389.435.694 0 1.388-.326 1.851-.869.231-.217 1.85-2.606 2.776-7.492.116-1.303-.694-2.389-1.966-2.606a2.405 2.405 0 00-.393-.033z" fill="#8b75a1"></path></g></svg>