<svg viewBox="0 0 40 40" xmlns="http://www.w3.org/2000/svg"><path fill="#7496c4" d="M1 35.43l3.425-4.25 3.188 2.569-3.426 4.25z"></path><path d="M6.396 36.145a.853.853 0 01-.541-.191l-3.188-2.569a.867.867 0 01-.13-1.216l7.633-9.471 2.775-1.269 3.719-4.614 2.409 1.94-3.719 4.615-.65 2.981-7.634 9.471a.864.864 0 01-.674.323z" fill="#c2e8ff"></path><path d="M16.739 17.517l1.63 1.314-3.332 4.134-.148.184-.05.231-.6 2.751-7.559 9.378a.365.365 0 01-.513.055L2.98 32.995a.364.364 0 01-.055-.513l7.559-9.379 2.561-1.171.215-.098.148-.184 3.331-4.133m-.151-1.406l-3.959 4.912-2.775 1.269-7.707 9.563a1.365 1.365 0 00.206 1.919l3.188 2.569a1.361 1.361 0 001.919-.206l7.707-9.563.65-2.981 3.959-4.912-3.188-2.57z" fill="#7496c4"></path><path fill="#7496c4" d="M12.629 21.023l3.187 2.569-1.027 3.415-5.312-4.282z"></path><path fill="#c2e8ff" d="M15.44 19.437l5.902-7.323.716.577-5.902 7.323z"></path><path fill="#7496c4" d="M21.267 11.409l-6.529 8.102 1.494 1.204 6.529-8.102-1.494-1.204z"></path><path fill="#c2e8ff" d="M24.712 7.931l2.99-3.709.715.577-2.99 3.709z"></path><path fill="#7496c4" d="M27.626 3.52l-3.617 4.487 1.494 1.204 3.617-4.487-1.494-1.204z"></path><g><path d="M27.997 25.5a10.44 10.44 0 01-6.532-2.308 10.402 10.402 0 01-1.814-1.898l-.386-.518-1.171 1.453-4.391-3.54 2.798-3.471 4.78 3.854.448.356a7.317 7.317 0 004.584 1.612 7.3 7.3 0 007.285-8.097 7.276 7.276 0 00-2.679-4.921l-2.188-1.76c.094-.375-.071-.812-.245-1.271-.035-.094-.08-.211-.116-.317 2.268.074 4.395.864 6.171 2.296 4.473 3.604 5.179 10.176 1.573 14.648a10.369 10.369 0 01-8.117 3.882z" fill="#8bb7f0"></path><path d="M29.104 5.228a9.78 9.78 0 015.124 2.133 9.85 9.85 0 013.638 6.662 9.855 9.855 0 01-2.139 7.283A9.887 9.887 0 0127.997 25a9.808 9.808 0 01-6.218-2.196 9.909 9.909 0 01-1.727-1.808l-.771-1.036-.81 1.005-.452.561-3.612-2.912 2.17-2.692 4.395 3.542.443.353a7.833 7.833 0 004.9 1.724 7.798 7.798 0 006.103-2.906 7.765 7.765 0 001.679-5.744 7.769 7.769 0 00-2.862-5.257L29.26 6.046a2.588 2.588 0 00-.156-.818m-1.07-1.058c-.799 0 .782 2.003.001 2.174l2.572 2.069c2.922 2.355 3.386 6.672 1.031 9.594a6.821 6.821 0 01-5.324 2.534 6.783 6.783 0 01-4.272-1.503l-.446-.356-4.505-3.631-.664-.537L13 18.765l5.169 4.168 1.08-1.34a10.886 10.886 0 001.902 1.99A10.877 10.877 0 0027.997 26c3.19 0 6.351-1.39 8.509-4.067 3.784-4.694 3.046-11.567-1.65-15.351a10.858 10.858 0 00-6.822-2.412c.001 0 .001 0 0 0z" fill="#4e7ab5"></path></g><g><path d="M25.751 5.085l1.934-2.399a.498.498 0 01.703-.076l1.874 1.51-2.247 2.788-2.264-1.823z" fill="#8bb7f0"></path><path d="M28.074 3l1.484 1.196-1.62 2.01-1.484-1.196L28.074 3c-.001 0-.001 0 0 0m0-1a.997.997 0 00-.779.372L25.048 5.16l3.041 2.451 2.875-3.567-2.263-1.824a1.001 1.001 0 00-.627-.22z" fill="#4e7ab5"></path></g></svg>