<svg viewBox="0 0 40 40" xmlns="http://www.w3.org/2000/svg"><path d="M10 36.5A2.503 2.503 0 017.5 34V21.167l3-4V6c0-1.378 1.121-2.5 2.5-2.5h18c1.379 0 2.5 1.122 2.5 2.5v28c0 1.378-1.121 2.5-2.5 2.5H10z" fill="#c6bae6"></path><path d="M31 4c1.103 0 2 .897 2 2v28c0 1.103-.897 2-2 2H10c-1.103 0-2-.897-2-2V21.333l2.8-3.733.2-.267V6c0-1.103.897-2 2-2h18m0-1H13a3 3 0 00-3 3v11l-3 4v13a3 3 0 003 3h21a3 3 0 003-3V6a3 3 0 00-3-3z" fill="#8b75a1"></path><path fill="#ffeea3" d="M28 6h3v7h-3zM23 6h3v7h-3zM18 6h3v7h-3z"></path><g><path fill="#ffeea3" d="M13 6h3v7h-3z"></path></g></svg>