<svg viewBox="0 0 40 40" xmlns="http://www.w3.org/2000/svg"><path fill="#66798f" d="M33 32h4v2h-4zM3 32h4v2H3z"></path><path d="M3 32.5A2.502 2.502 0 01.5 30V10C.5 8.621 1.621 7.5 3 7.5h34c1.379 0 2.5 1.121 2.5 2.5v20c0 1.379-1.121 2.5-2.5 2.5H3z" fill="#fff"></path><path d="M37 8c1.103 0 2 .897 2 2v20c0 1.103-.897 2-2 2H3c-1.103 0-2-.897-2-2V10c0-1.103.897-2 2-2h34m0-1H3a3 3 0 00-3 3v20a3 3 0 003 3h34a3 3 0 003-3V10a3 3 0 00-3-3z" fill="#66798f"></path><path fill="#b0c1d4" d="M3.5 10.5h29v19h-29z"></path><path d="M32 11v18H4V11h28m1-1H3v20h30V10z" fill="#66798f"></path><circle cx="36" cy="12" r="1" fill="#b0c1d4"></circle><circle cx="36" cy="15" r="1" fill="#b0c1d4"></circle><circle cx="36" cy="18" r="1" fill="#b0c1d4"></circle><circle cx="36" cy="28" r="1" fill="#c74343"></circle><path d="M29 17.5c-1.286 0-4.635-1-5.923-1s-4.657 1-5.923 1c-1.286 0-4.635-1-5.923-1-.869 0-3.179.751-4.231.751M29 23.5c-1.286 0-4.635-1-5.923-1s-4.657 1-5.923 1c-1.286 0-4.635-1-5.923-1-.869 0-3.179.751-4.231.751" fill="none" stroke="#fff" stroke-miterlimit="10"></path></svg>