<svg viewBox="0 0 40 40" xmlns="http://www.w3.org/2000/svg"><path d="M16.5 34.5c-8.973 0-15-2.844-15-5.5s6.027-5.5 15-5.5 15 2.844 15 5.5-6.027 5.5-15 5.5z" fill="#8bb7f0"></path><path d="M16.5 24c8.299 0 14.5 2.64 14.5 5s-6.201 5-14.5 5S2 31.36 2 29s6.201-5 14.5-5m0-1C7.94 23 1 25.686 1 29s6.94 6 15.5 6S32 32.314 32 29s-6.94-6-15.5-6z" fill="#4e7ab5"></path><path d="M38.5 31.074c-1.952-1.243-7.116-4.304-11-4.558V12.51c4.75.181 9.837 2.851 11 3.495v15.069z" fill="#e8d47b"></path><path d="M28 13.039c4.193.317 8.56 2.49 10 3.264v13.872c-2.256-1.372-6.518-3.708-10-4.114V13.039M27 12v15c4.693 0 12 5 12 5V15.714S32.711 12 27 12z" fill="#ba9b48"></path><path d="M16.5 30.5c-6.815 0-11-1.686-11-2.894V13.178h22v14.429c0 1.208-4.185 2.893-11 2.893z" fill="#ffeea3"></path><path d="M27 13.679v13.929C27 28.302 23.321 30 16.5 30S6 28.302 6 27.607V13.679h21m1-1H5v14.929C5 29.481 10.149 31 16.5 31S28 29.481 28 27.607V12.679z" fill="#ba9b48"></path><g><path d="M16.5 15.5c-8.973 0-15-2.585-15-5s6.027-5 15-5 15 2.585 15 5-6.027 5-15 5z" fill="#8bb7f0"></path><path d="M16.5 6C25.484 6 31 8.621 31 10.5S25.484 15 16.5 15 2 12.379 2 10.5 7.516 6 16.5 6m0-1C7.94 5 1 7.462 1 10.5S7.94 16 16.5 16 32 13.538 32 10.5 25.06 5 16.5 5z" fill="#4e7ab5"></path></g><g><path d="M16.5 11.5c-2.625 0-4-.743-4-1s1.375-1 4-1 4 .743 4 1-1.375 1-4 1z" fill="#8bb7f0"></path><path d="M16.5 10c1.502 0 2.604.262 3.169.5-.565.238-1.667.5-3.169.5s-2.604-.262-3.169-.5c.565-.238 1.667-.5 3.169-.5m0-1c-2.485 0-4.5.672-4.5 1.5s2.015 1.5 4.5 1.5 4.5-.672 4.5-1.5S18.985 9 16.5 9z" fill="#4e7ab5"></path></g></svg>