<svg viewBox="0 0 40 40" xmlns="http://www.w3.org/2000/svg"><path d="M15 38.5a.501.501 0 01-.5-.5v-6c0-.275.225-.5.5-.5h10c.275 0 .5.225.5.5v6c0 .275-.225.5-.5.5H15z" fill="#8bb7f0"></path><path d="M25 32v6H15v-6h10m0-1H15c-.55 0-1 .45-1 1v6c0 .55.45 1 1 1h10c.55 0 1-.45 1-1v-6c0-.55-.45-1-1-1z" fill="#4e7ab5"></path><path d="M20 34.5c-9.098 0-16.5-7.402-16.5-16.5S10.902 1.5 20 1.5 36.5 8.902 36.5 18 29.098 34.5 20 34.5zm0-24c-4.136 0-7.5 3.364-7.5 7.5s3.364 7.5 7.5 7.5 7.5-3.364 7.5-7.5-3.364-7.5-7.5-7.5z" fill="#e1ebf2"></path><path d="M20 2c8.822 0 16 7.178 16 16s-7.178 16-16 16S4 26.822 4 18 11.178 2 20 2m0 24c4.411 0 8-3.589 8-8s-3.589-8-8-8-8 3.589-8 8 3.589 8 8 8m0-25C10.611 1 3 8.611 3 18s7.611 17 17 17 17-7.611 17-17S29.389 1 20 1zm0 24a7 7 0 110-14 7 7 0 010 14z" fill="#788b9c"></path><path d="M20 30.5c-6.893 0-12.5-5.607-12.5-12.5S13.107 5.5 20 5.5 32.5 11.107 32.5 18 26.893 30.5 20 30.5zm0-20c-4.136 0-7.5 3.364-7.5 7.5s3.364 7.5 7.5 7.5 7.5-3.364 7.5-7.5-3.364-7.5-7.5-7.5z" fill="#b6c9d6"></path><path d="M20 6c6.617 0 12 5.383 12 12s-5.383 12-12 12S8 24.617 8 18 13.383 6 20 6m0 20c4.411 0 8-3.589 8-8s-3.589-8-8-8-8 3.589-8 8 3.589 8 8 8m0-21C12.82 5 7 10.82 7 18s5.82 13 13 13 13-5.82 13-13S27.18 5 20 5zm0 20a7 7 0 110-14 7 7 0 010 14z" fill="#788b9c"></path><g><path d="M12 34.5c-.827 0-1.5-.673-1.5-1.5v-2.5h19V33c0 .827-.673 1.5-1.5 1.5H12z" fill="#a3d9fa"></path><path d="M29 31v2c0 .551-.449 1-1 1H12c-.551 0-1-.449-1-1v-2h18m1-1H10v3c0 1.1.9 2 2 2h16c1.1 0 2-.9 2-2v-3z" fill="#7496c4"></path></g><g><path fill="#c2e8ff" d="M10.5 30.5v-.401l3.511-8.599H25.99l3.51 8.598v.402z"></path><path d="M25.654 22l3.266 8H11.08l3.267-8h11.307m.672-1H13.675L10 30v1h20v-1l-3.674-9z" fill="#7496c4"></path></g><path fill="#36404d" d="M17 4h6v2h-6z"></path></svg>