<svg viewBox="0 0 40 40" xmlns="http://www.w3.org/2000/svg"><path d="M14.991 30c-4.95 0-9-3.821-9-8.491v-.018c0-4.67 4.05-8.491 9-8.491" fill="none" stroke="#36404d" stroke-width="2" stroke-miterlimit="10"></path><path d="M15.818 16.5c-1.83 0-3.318-1.57-3.318-3.5s1.489-3.5 3.318-3.5h6.364c1.83 0 3.318 1.57 3.318 3.5s-1.488 3.5-3.318 3.5h-6.364z" fill="#4b6477"></path><path d="M22.182 10C23.736 10 25 11.346 25 13s-1.264 3-2.818 3h-6.364C14.264 16 13 14.654 13 13s1.264-3 2.818-3h6.364m0-1h-6.364C13.718 9 12 10.8 12 13s1.718 4 3.818 4h6.364c2.1 0 3.818-1.8 3.818-4s-1.718-4-3.818-4z" fill="#36404d"></path><path fill="#4b6477" d="M16.5 28.5h15v2h-15z"></path><path d="M31 29v1H17v-1h14m1-1H16v3h16v-3z" fill="#36404d"></path><path fill="#b0c1d4" d="M23.5 1.5h5v23h-5z"></path><path d="M28 2v22h-4V2h4m1-1h-6v24h6V1z" fill="#66798f"></path><path d="M22 20.5a.5.5 0 01-.5-.5V5.5h9V20a.5.5 0 01-.5.5h-8z" fill="#8bb7f0"></path><path d="M30 6v14h-8V6h8m1-1H21v15a1 1 0 001 1h8a1 1 0 001-1V5zM21.107 1h10v1h-10z" fill="#4e7ab5"></path><circle cx="16" cy="13" r="1" fill="#8bb7f0"></circle><g><path d="M7.003 35.5l6.932-9.199a1.934 1.934 0 011.579-.801h.252c.63 0 1.217.296 1.571.791l6.94 9.209H7.003z" fill="#8bb7f0"></path><path d="M15.767 26c.476 0 .9.212 1.18.602L23.275 35H8.006l6.344-8.418c.264-.37.688-.582 1.164-.582h.253m0-1h-.252c-.785 0-1.522.362-1.978 1L6 36h19.281l-7.536-10a2.417 2.417 0 00-1.978-1z" fill="#4e7ab5"></path></g><g><circle cx="15.569" cy="29.5" r="1" fill="#4b6477"></circle><path d="M15.569 29a.5.5 0 110 1 .5.5 0 010-1m0-1a1.5 1.5 0 10.001 3.001A1.5 1.5 0 0015.57 28z" fill="#36404d"></path></g><g><path d="M5.5 38.5V37c0-1.379 1.122-2.5 2.5-2.5h24c1.378 0 2.5 1.121 2.5 2.5v1.5h-29z" fill="#b0c1d4"></path><path d="M32 35c1.103 0 2 .897 2 2v1H6v-1c0-1.103.897-2 2-2h24m0-1H8a3 3 0 00-3 3v2h30v-2a3 3 0 00-3-3z" fill="#66798f"></path></g></svg>