<svg viewBox="0 0 40 40" xmlns="http://www.w3.org/2000/svg"><path fill="#36404d" d="M24 33h-1v-5.667h1z"></path><path d="M25 34.5c-.827 0-1.5-.673-1.5-1.5v-1c0-.827.673-1.5 1.5-1.5s1.5.673 1.5 1.5v1c0 .827-.673 1.5-1.5 1.5z" fill="#c8d1db"></path><path d="M25 31c.551 0 1 .449 1 1v1c0 .551-.449 1-1 1s-1-.449-1-1v-1c0-.551.449-1 1-1m0-1a2 2 0 00-2 2v1a2 2 0 104 0v-1a2 2 0 00-2-2z" fill="#66798f"></path><path fill="#36404d" d="M16 27.333h1V33h-1z"></path><path d="M1.385 25.5a.885.885 0 01-.155-1.756L16.054 20.5h7.892l14.804 3.24a.89.89 0 01.75.875.886.886 0 01-.885.885H1.385z" fill="#deb974"></path><path d="M23.892 21l14.791 3.236a.385.385 0 01-.068.764H1.385A.386.386 0 011 24.615c0-.187.134-.346.357-.387L16.108 21h7.784M24 20h-8L1.143 23.252A1.385 1.385 0 001.385 26h37.23a1.385 1.385 0 00.242-2.748L24 20z" fill="#967a44"></path><circle cx="27.5" cy="15.5" r="3" fill="#deb974"></circle><path d="M27.5 13c1.379 0 2.5 1.121 2.5 2.5S28.879 18 27.5 18 25 16.879 25 15.5s1.121-2.5 2.5-2.5m0-1a3.5 3.5 0 100 7 3.5 3.5 0 000-7z" fill="#967a44"></path><circle cx="27.5" cy="15.5" r=".7" fill="#36404d"></circle><circle cx="38" cy="27" r="1.5" fill="#f78f8f"></circle><path d="M38 26c.551 0 1 .449 1 1s-.449 1-1 1-1-.449-1-1 .449-1 1-1m0-1a2 2 0 10-.001 3.999A2 2 0 0038 25z" fill="#c74343"></path><circle cx="33" cy="27" r="1.5" fill="#f78f8f"></circle><path d="M33 26c.551 0 1 .449 1 1s-.449 1-1 1-1-.449-1-1 .449-1 1-1m0-1a2 2 0 10-.001 3.999A2 2 0 0033 25z" fill="#c74343"></path><circle cx="7" cy="27" r="1.5" fill="#f78f8f"></circle><path d="M7 26c.551 0 1 .449 1 1s-.449 1-1 1-1-.449-1-1 .449-1 1-1m0-1a2 2 0 10-.001 3.999A2 2 0 007 25z" fill="#c74343"></path><circle cx="2" cy="27" r="1.5" fill="#f78f8f"></circle><path d="M2 26c.551 0 1 .449 1 1s-.449 1-1 1-1-.449-1-1 .449-1 1-1m0-1a2 2 0 10-.001 3.999A2 2 0 002 25z" fill="#c74343"></path><g><circle cx="12.5" cy="15.5" r="3" fill="#deb974"></circle><path d="M12.5 13c1.379 0 2.5 1.121 2.5 2.5S13.879 18 12.5 18 10 16.879 10 15.5s1.121-2.5 2.5-2.5m0-1a3.5 3.5 0 100 7 3.5 3.5 0 000-7z" fill="#967a44"></path></g><path d="M20 5a1 1 0 00-1 1v4h2V6a1 1 0 00-1-1z" fill="#36404d"></path><path fill="#66798f" d="M0 6h40v1H0z"></path><g><path d="M16.143 28.5a4.648 4.648 0 01-4.643-4.643c0-1.252.804-2.359 2-2.755l.311-.102.58-6.378C14.656 11.702 17.068 9.5 20 9.5s5.344 2.202 5.609 5.122l.58 6.378.311.103c1.196.396 2 1.503 2 2.755a4.648 4.648 0 01-4.643 4.643h-7.714z" fill="#f5ce85"></path><path d="M20 10a5.108 5.108 0 015.111 4.668l.55 6.051.059.653.623.206A2.4 2.4 0 0128 23.857 4.147 4.147 0 0123.857 28h-7.714A4.147 4.147 0 0112 23.857a2.4 2.4 0 011.657-2.279l.623-.206.059-.653.55-6.051A5.108 5.108 0 0120 10m0-1a6.131 6.131 0 00-6.107 5.577l-.55 6.051A3.404 3.404 0 0011 23.857 5.144 5.144 0 0016.143 29h7.714A5.144 5.144 0 0029 23.857c0-1.475-.952-2.77-2.343-3.229l-.55-6.051A6.131 6.131 0 0020 9z" fill="#967a44"></path></g><g><path d="M15 34.5c-.827 0-1.5-.673-1.5-1.5v-1c0-.827.673-1.5 1.5-1.5s1.5.673 1.5 1.5v1c0 .827-.673 1.5-1.5 1.5z" fill="#c8d1db"></path><path d="M15 31c.551 0 1 .449 1 1v1c0 .551-.449 1-1 1s-1-.449-1-1v-1c0-.551.449-1 1-1m0-1a2 2 0 00-2 2v1a2 2 0 104 0v-1a2 2 0 00-2-2z" fill="#66798f"></path></g><g><circle cx="12.5" cy="15.5" r=".7" fill="#36404d"></circle></g><g><path d="M17.521 20.5l.204-4.814c.052-1.226 1.053-2.186 2.28-2.186s2.228.96 2.279 2.185l.204 4.815h-4.967z" fill="#c8d1db"></path><path d="M20.005 14c.958 0 1.74.75 1.78 1.706L21.966 20h-3.923l.181-4.293A1.78 1.78 0 0120.005 14m0-1a2.781 2.781 0 00-2.779 2.664L17 21h6.009l-.225-5.336A2.782 2.782 0 0020.005 13z" fill="#66798f"></path></g></svg>