<svg viewBox="0 0 40 40" xmlns="http://www.w3.org/2000/svg"><path d="M11.899 37.5a1.995 1.995 0 01-1.895-1.36C8.951 32.987 6.5 25.299 6.5 22c0-3.248.798-4.856 1.571-6.412.702-1.415 1.429-2.878 1.429-5.419 0-3.139-2.131-6.641-2.858-7.743.4-.342 1.326-.926 2.994-.926 1.726 0 3.167.675 4.692 1.39 1.579.74 3.211 1.505 5.284 1.594 2.256-.044 3.961-.294 5.611-.537 1.374-.201 2.68-.394 4.158-.438C29.105 4.86 28.5 8.157 28.5 11c0 .239.012.456.024.673l.058 1.019.771-.646c.899-.782 1.86-1.546 2.851-1.546 2.369 0 4.296 2.542 4.296 5.667 0 2.87-2.765 7.428-5.015 8.265l-.265.098-.052.278c-.688 3.685-2.261 8.677-3.138 11.325a1.994 1.994 0 01-1.897 1.366H11.899zm20.188-24.969c-.411.146-1.062.703-1.809 1.363-.23.203-.472.414-.724.628l-.304.256.181.354c.159.312.329.609.501.911.647 1.133 1.317 2.304 1.508 4.598l.076.918.728-.563c1.329-1.028 2.255-3.37 2.255-4.828 0-2.091-1.141-3.582-2.207-3.664l-.106-.008-.099.035z" fill="#c2e8ff"></path><path d="M9.636 2c1.614 0 3.007.652 4.481 1.343 1.623.761 3.302 1.547 5.474 1.64l.031.001.031-.001c2.256-.044 3.977-.298 5.642-.542 1.159-.17 2.27-.334 3.473-.405C28.464 5.638 28 8.49 28 11c0 .253.013.482.027.726l.117 2.035 1.538-1.338c.827-.72 1.704-1.423 2.522-1.423C34.297 11 36 13.318 36 16.167c0 2.658-2.629 7.03-4.689 7.796l-.53.197-.104.556c-.683 3.657-2.249 8.625-3.121 11.26A1.495 1.495 0 0126.133 37H11.899c-.646 0-1.217-.41-1.421-1.019C9.432 32.851 7 25.223 7 22c0-3.131.738-4.616 1.519-6.189C9.247 14.344 10 12.827 10 10.169c0-2.946-1.78-6.17-2.681-7.612C7.761 2.292 8.504 2 9.636 2m21.458 20.516l1.456-1.126c1.466-1.132 2.45-3.615 2.45-5.223 0-2.445-1.385-4.064-2.669-4.162l-.212-.016-.2.071c-.453.162-1.021.62-1.977 1.464-.222.197-.461.405-.711.616l-.606.512.361.707c.163.319.337.624.513.932.649 1.135 1.262 2.207 1.443 4.391l.152 1.834M9.636 1C7.008 1 6 2.37 6 2.37s3 4.214 3 7.799C9 15.296 6 15.618 6 22c0 3.339 2.396 10.905 3.53 14.298A2.492 2.492 0 0011.899 38h14.234a2.494 2.494 0 002.372-1.709c.864-2.609 2.46-7.67 3.155-11.391 2.498-.929 5.34-5.672 5.34-8.733C37 12.761 34.853 10 32.204 10c-1.142 0-2.158.781-3.179 1.669-.012-.216-.025-.43-.025-.669 0-3.585 1-8 1-8-3.592 0-6.03.898-10.367.984C15.673 3.815 13.294 1 9.636 1zm22.303 19.6c-.25-3.01-1.287-4.177-2.062-5.695.256-.216.5-.43.728-.631.489-.432 1.296-1.146 1.65-1.272.73.055 1.745 1.276 1.745 3.165 0 1.342-.881 3.52-2.061 4.433z" fill="#7496c4"></path><path d="M8.519 15.811C7.738 17.384 7 18.869 7 22c0 3.223 2.432 10.851 3.478 13.981A1.496 1.496 0 0011.899 37h14.234c.648 0 1.22-.411 1.422-1.023C28.591 32.848 31 25.223 31 22c0-3.098-.724-4.355-1.49-5.686C28.768 15.024 28 13.69 28 11H9.97c-.139 2.154-.803 3.505-1.451 4.811z" fill="#fff"></path></svg>