<svg viewBox="0 0 40 40" xmlns="http://www.w3.org/2000/svg"><path fill="none" stroke="#66798f" stroke-miterlimit="10" d="M35 16l-15 4M30 35L20 20l3-15M5 16l15 4-8 15"></path><circle cx="20" cy="20" r="4.5" fill="#8bb7f0"></circle><path d="M20 16c2.206 0 4 1.794 4 4s-1.794 4-4 4-4-1.794-4-4 1.794-4 4-4m0-1a5 5 0 10.001 10.001A5 5 0 0020 15z" fill="#4e7ab5"></path><circle cx="23" cy="5" r="3.5" fill="#bae0bd"></circle><path d="M23 2c1.654 0 3 1.346 3 3s-1.346 3-3 3-3-1.346-3-3 1.346-3 3-3m0-1a4 4 0 100 8 4 4 0 000-8z" fill="#5e9c76"></path><circle cx="35" cy="16" r="3.5" fill="#bae0bd"></circle><path d="M35 13c1.654 0 3 1.346 3 3s-1.346 3-3 3-3-1.346-3-3 1.346-3 3-3m0-1a4 4 0 100 8 4 4 0 000-8z" fill="#5e9c76"></path><g><circle cx="30" cy="35" r="3.5" fill="#bae0bd"></circle><path d="M30 32c1.654 0 3 1.346 3 3s-1.346 3-3 3-3-1.346-3-3 1.346-3 3-3m0-1a4 4 0 100 8 4 4 0 000-8z" fill="#5e9c76"></path></g><g><circle cx="12" cy="35" r="3.5" fill="#bae0bd"></circle><path d="M12 32c1.654 0 3 1.346 3 3s-1.346 3-3 3-3-1.346-3-3 1.346-3 3-3m0-1a4 4 0 100 8 4 4 0 000-8z" fill="#5e9c76"></path></g><g><circle cx="5" cy="16" r="3.5" fill="#bae0bd"></circle><path d="M5 13c1.654 0 3 1.346 3 3s-1.346 3-3 3-3-1.346-3-3 1.346-3 3-3m0-1a4 4 0 100 8 4 4 0 000-8z" fill="#5e9c76"></path></g></svg>