<svg viewBox="0 0 40 40" xmlns="http://www.w3.org/2000/svg"><path fill="#e1ebf2" d="M2.5 2.5h35v35h-35z"></path><path d="M37 3v34H3V3h34m1-1H2v36h36V2z" fill="#788b9c"></path><path fill="#b0c1d4" d="M16.5 21.5h7v3h-7z"></path><path d="M23 22v2h-6v-2h6m1-1h-8v4h8v-4zM8.5 16.5h7v4h-7z" fill="#66798f"></path><path d="M15 17v3H9v-3h6m1-1H8v5h8v-5z" fill="#36404d"></path><g><path fill="#66798f" d="M24.5 16.5h7v4h-7z"></path><path d="M31 17v3h-6v-3h6m1-1h-8v5h8v-5z" fill="#36404d"></path></g><g><path fill="#66798f" d="M8.5 28.5h23v4h-23z"></path><path d="M31 29v3H9v-3h22m1-1H8v5h24v-5z" fill="#36404d"></path></g></svg>