<svg viewBox="0 0 40 40" xmlns="http://www.w3.org/2000/svg"><path fill="#f5ce85" d="M2.5 2.5h35v35h-35z"></path><path d="M37 3v34H3V3h34m1-1H2v36h36V2z" fill="#967a44"></path><path fill="#735f63" d="M33.5 12.5v-4h-27v4h-4v-10h35v10z"></path><path d="M37 3v9h-3V8H6v4H3V3h34m1-1H2v11h5V9h26v4h5V2z" fill="#4d3e40"></path><path fill="#fff" d="M8 16h8v6H8z"></path><path fill="#a6714e" d="M16.5 22.5h7v3h-7z"></path><path d="M23 23v2h-6v-2h6m1-1h-8v4h8v-4z" fill="#7a4f34"></path><path fill="#fff" d="M24 16h8v6h-8z"></path><g><path fill="#8bb7f0" d="M10.5 16.5h5v5h-5z"></path><path d="M15 17v4h-4v-4h4m1-1h-6v6h6v-6z" fill="#4e7ab5"></path></g><g><path fill="#8bb7f0" d="M24.5 16.5h5v5h-5z"></path><path d="M29 17v4h-4v-4h4m1-1h-6v6h6v-6z" fill="#4e7ab5"></path></g><g><path fill="#735f63" d="M9.5 32.5v-5h3v2h15v-2h3v5z"></path><path d="M30 28v4H10v-4h2v2h16v-2h2m1-1h-4v2H13v-2H9v6h22v-6z" fill="#4d3e40"></path></g></svg>