<svg viewBox="0 0 40 40" xmlns="http://www.w3.org/2000/svg"><path fill="#7496c4" d="M24 12h3v3h-3zM27 9h3v3h-3zM30 6h3v3h-3zM33 3h3v3h-3zM18 9h3v3h-3zM21 6h3v3h-3zM24 3h3v3h-3zM27 0h9v3h-9zM27 18h3v3h-3zM30 15h3v3h-3zM33 12h3v3h-3zM36 3h3v9h-3z"></path><path fill="#c2e8ff" d="M21 9h6v3h-6zM24 6h6v3h-6zM27 3h6v3h-6zM33 6h3v6h-3zM30 9h3v6h-3zM27 12h3v6h-3z"></path><g fill="#735f63"><path d="M21 12h3v3h-3zM18 15h3v3h-3zM15 18h3v3h-3zM12 21h3v3h-3zM9 24h3v3H9zM6 27h3v3H6zM3 30h3v3H3zM0 30h3v3H0zM0 33h3v3H0zM24 15h3v3h-3zM21 18h3v3h-3zM18 21h3v3h-3zM15 24h3v3h-3zM12 27h3v3h-3zM9 30h3v3H9zM6 33h3v3H6zM3 36h3v3H3zM6 36h3v3H6z"></path></g><g fill="#d6aa70"><path d="M21 15h3v3h-3zM18 18h3v3h-3zM15 21h3v3h-3zM12 24h3v3h-3zM9 27h3v3H9zM6 30h3v3H6zM3 33h3v3H3z"></path></g></svg>