<svg viewBox="0 0 40 40" xmlns="http://www.w3.org/2000/svg"><g fill="#bae0bd"><path d="M3 33h3v3H3zM6 15h3v3H6zM9 18h3v6H9zM12 24h3v3h-3zM15 27h6v3h-6zM21 30h3v3h-3z"></path></g><g fill="#735f63"><path d="M6 27h3v3H6zM9 30h3v3H9z"></path></g><g fill="#5e9c76"><path d="M9 24h3v3H9zM3 12v6h3v-3h3v-3zM9 15h3v3H9zM12 18h3v6h-3zM6 18h3v6H6zM15 24h6v3h-6zM15 30h6v3h-6zM21 27h3v3h-3zM24 30v3h-3v3h6v-6zM12 27h3v3h-3zM6 33v3H3v-3h3v-3H0v9h9v-6z"></path></g><path fill="#c2e8ff" d="M15 24v-6h3v-3h3v-3h3V9h3V6h3V3h6v6h-3v3h-3v3h-3v3h-3v3h-3v3z"></path><g fill="#d6aa70"><path d="M6 30h3v3H6zM9 27h3v3H9z"></path></g><g fill="#7496c4"><path d="M15 15h3v3h-3zM21 9h3v3h-3zM18 12h3v3h-3zM24 6h3v3h-3zM27 3h3v3h-3zM30 0v3h6v6h3V0zM21 21h3v3h-3zM27 15h3v3h-3zM24 18h3v3h-3zM30 12h3v3h-3zM33 9h3v3h-3zM15 21h3v3h-3zM21 15h3v3h-3zM18 18h3v3h-3zM24 12h3v3h-3z"></path><path d="M30 6h3v3h-3zM27 9h3v3h-3zM33 3h3v3h-3z"></path></g></svg>