<svg viewBox="0 0 40 40" xmlns="http://www.w3.org/2000/svg"><path fill="#bae0bd" d="M2.5 2.5h35v35h-35z"></path><path d="M37 3v34H3V3h34m1-1H2v36h36V2z" fill="#5e9c76"></path><path fill="#72b289" d="M16.5 18.5h7v3h-7z"></path><path d="M23 19v2h-6v-2h6m1-1h-8v4h8v-4z" fill="#5e9c76"></path><path fill="#fff" d="M8.5 10.5h7v7h-7z"></path><path d="M15 11v6H9v-6h6m1-1H8v8h8v-8z" fill="#5e9c76"></path><path fill="#72b289" d="M24.5 13.5h7v4h-7z"></path><path d="M31 14v3h-6v-3h6m1-1h-8v5h8v-5z" fill="#5e9c76"></path><path fill="#36404d" d="M11 13h2v2h-2z"></path><path fill="#66798f" d="M26.5 32.5v-2h-13v2h-5v-5h2v-2h19v2h2v5z"></path><path d="M29 26v2h2v4h-4v-2H13v2H9v-4h2v-2h18m1-1H10v2H8v6h6v-2h12v2h6v-6h-2v-2z" fill="#36404d"></path><path fill="#ffeea3" d="M13 26h2v2h-2zM17 26h2v2h-2zM21 26h2v2h-2zM25 26h2v2h-2z"></path></svg>