<svg viewBox="0 0 40 40" xmlns="http://www.w3.org/2000/svg"><path fill="#7496c4" d="M30 15h3v12h-3zM36 12h3v15h-3zM33 9h3v3h-3zM27 3h3v3h-3zM9 3h3v3H9zM12 6h12v3H12zM12 0h15v3H12z"></path><g fill="#735f63"><path d="M24 9h3v3h-3zM21 12h3v3h-3zM18 15h3v3h-3zM15 18h3v3h-3zM12 21h3v3h-3zM9 24h3v3H9zM6 27h3v3H6zM3 30h3v3H3zM0 33h3v6H0zM27 12h3v3h-3zM24 15h3v3h-3zM30 3h3v3h-3zM33 6h3v3h-3zM21 18h3v3h-3zM18 21h3v3h-3zM15 24h3v3h-3zM12 27h3v3h-3zM9 30h3v3H9zM6 33h3v3H6zM3 36h3v3H3z"></path></g><g fill="#d6aa70"><path d="M33 3h3v3h-3zM30 6h3v3h-3zM24 12h3v3h-3zM21 15h3v3h-3zM18 18h3v3h-3zM15 21h3v3h-3zM12 24h3v3h-3zM9 27h3v3H9zM6 30h3v3H6zM3 33h3v3H3z"></path></g><path fill="#c2e8ff" d="M24 6h6v3h-6zM33 12h3v15h-3zM27 9h6v3h-6z"></path><path fill="#c2e8ff" d="M30 12h6v3h-6zM12 3h15v3H12z"></path><path fill="#7496c4" d="M33 27h3v3h-3z"></path></svg>