<svg viewBox="0 0 40 40" xmlns="http://www.w3.org/2000/svg"><path fill="#4e7ab5" d="M15 0h9v3h-9zM12 36h15v3H12zM6 9h3v6H6zM30 9h3v6h-3zM6 27h3v6H6zM30 27h3v6h-3zM3 15h3v12H3zM33 15h3v12h-3zM12 3h3v3h-3zM24 3h3v3h-3zM9 6h3v3H9zM27 6h3v3h-3zM9 33h3v3H9zM27 33h3v3h-3z"></path><path fill="#c2e8ff" d="M15 6h6v6h-6zM21 6h3v3h-3zM12 12h3v3h-3z"></path><path fill="#e1f7ff" d="M9 21h3v3H9zM12 18h3v3h-3zM12 9h3v3h-3zM24 6h3v3h-3zM18 12h6v3h-6z"></path><g fill="#97c9ff"><path d="M24 24h3v3h-3zM15 27h9v9h-9zM27 24h3v6h-3z"></path></g><path fill="#7496c4" d="M24 27h3v6h-3zM12 27h3v6h-3zM27 21h6v3h-6z"></path><g fill="#589cdb"><path d="M24 15h3v9h-3zM12 21h3v3h-3zM12 33h3v3h-3zM24 33h3v3h-3zM27 30h3v3h-3zM30 24h3v3h-3zM15 24h9v3h-9z"></path></g><path fill="#fff" d="M9 9h3v6H9zM12 6h3v3h-3zM15 12h3v3h-3zM21 9h3v3h-3zM12 15h3v3h-3zM15 3h9v3h-9zM6 15h3v12H6z"></path><path fill="#c2e8ff" d="M12 24h3v3h-3zM9 15h3v6H9zM9 24h3v9H9zM24 9h6v6h-6zM15 15h9v9h-9zM27 15h6v6h-6z"></path></svg>