<svg viewBox="0 0 40 40" xmlns="http://www.w3.org/2000/svg"><path fill="#7496c4" d="M15 6h3v3h-3zM12 9h3v7h-3zM34 15h3v7h-3zM28 3h3v6h-3zM18 3h3v3h-3zM21 0h7v3h-7zM27 22h7v3h-7zM15 16h6v3h-6z"></path><g fill="#735f63"><path d="M21 16h3v3h-3zM18 19h3v3h-3zM15 22h3v3h-3zM12 25h3v3h-3zM9 28h3v3H9zM6 31h3v3H6zM3 34h3v6H3zM24 19h3v3h-3zM21 22h3v3h-3zM18 25h3v3h-3zM15 28h3v3h-3zM12 31h3v3h-3zM9 34h3v3H9zM6 37h3v3H6z"></path></g><path fill="#d6aa70" d="M21 19h3v3h-3z"></path><path fill="#735f63" d="M28 9h3v3h-3zM31 12h3v3h-3z"></path><path fill="#d6aa70" d="M31 9h3v3h-3zM18 22h3v3h-3zM15 25h3v3h-3zM12 28h3v3h-3zM9 31h3v3H9zM6 34h3v3H6z"></path><path fill="#c2e8ff" d="M18 6h6v3h-6zM15 9h6v7h-6zM24 12h7v7h-7z"></path><path fill="#c2e8ff" d="M27 15h7v7h-7z"></path><path fill="#c2e8ff" d="M21 3h7v13h-7z"></path></svg>