<svg viewBox="0 0 40 40" xmlns="http://www.w3.org/2000/svg"><path fill="#788b9c" d="M30 37h4v2h-4zM6 37h4v2H6z"></path><path d="M4.769 37.5A2.273 2.273 0 012.5 35.23V4.77A2.273 2.273 0 014.769 2.5h30.462A2.273 2.273 0 0137.5 4.77v30.46a2.273 2.273 0 01-2.269 2.27H4.769z" fill="#fff"></path><path d="M35.231 3C36.206 3 37 3.794 37 4.769v30.462c0 .975-.794 1.769-1.769 1.769H4.769A1.772 1.772 0 013 35.231V4.769C3 3.794 3.794 3 4.769 3h30.462m0-1H4.769A2.77 2.77 0 002 4.769v30.462A2.77 2.77 0 004.769 38h30.462A2.77 2.77 0 0038 35.231V4.769A2.77 2.77 0 0035.231 2z" fill="#788b9c"></path><path d="M9.375 33.5a.877.877 0 01-.875-.875v-3.476l1-1.522v-5.413l-1-.932V19.75c0-1.24 1.009-2.25 2.25-2.25h.75v-2h4v2h.75c1.241 0 2.25 1.01 2.25 2.25v1.532l-1 .932v5.413l1 1.522v3.476a.877.877 0 01-.875.875h-8.25z" fill="#dbf2ff"></path><path d="M15 16v2h1.25c.965 0 1.75.785 1.75 1.75v1.315l-.682.635-.318.297v5.779l.164.25.836 1.273v3.326a.375.375 0 01-.375.375h-8.25A.375.375 0 019 32.625v-3.326l.836-1.273.164-.25v-5.779l-.318-.297L9 21.065V19.75c0-.965.785-1.75 1.75-1.75H12v-2h3m1-1h-5v2h-.25A2.75 2.75 0 008 19.75v1.75l1 .932v5.045L8 29v3.625C8 33.384 8.616 34 9.375 34h8.25c.759 0 1.375-.616 1.375-1.375V29l-1-1.523v-5.045l1-.932v-1.75A2.75 2.75 0 0016.25 17H16v-2z" fill="#7496c4"></path><path fill="none" stroke="#7496c4" stroke-miterlimit="10" d="M9 22.5h2M12 22.5h5.5M9 27.5h2M12 27.5h5.5"></path><path d="M23 33.5a.5.5 0 01-.5-.5V18.242c0-.658.267-1.303.732-1.768l2.268-2.268V8.5h3v5.707l2.268 2.268c.465.465.732 1.109.732 1.768V33a.5.5 0 01-.5.5h-8z" fill="#bae0bd"></path><path d="M28 9v5.414l.293.293 2.121 2.121c.378.378.586.88.586 1.415V33h-8V18.243c0-.534.208-1.036.586-1.414l2.121-2.121.293-.294V9h2m1-1h-4v6l-2.121 2.121A3 3 0 0022 18.243V33a1 1 0 001 1h8a1 1 0 001-1V18.243c0-.796-.316-1.559-.879-2.121L29 14V8z" fill="#5e9c76"></path><path d="M25.5 12.5V7a.5.5 0 01.5-.5h2a.5.5 0 01.5.5v5.5h-3z" fill="#f78f8f"></path><path d="M28 7v5h-2V7h2m0-1h-2a1 1 0 00-1 1v6h4V7a1 1 0 00-1-1z" fill="#c74343"></path><g><path fill="none" stroke="#c74343" stroke-linejoin="round" stroke-miterlimit="10" d="M25.5 9.5H29"></path></g><g><path fill="#fff" d="M24 20h6v2h-6z"></path></g><g><path fill="#fff" d="M24 23h6v7h-6z"></path></g><g><path d="M11.5 16.5V14a.5.5 0 01.5-.5h3a.5.5 0 01.5.5v2.5h-4z" fill="#8bb7f0"></path><path d="M15 14v2h-3v-2h3m0-1h-3a1 1 0 00-1 1v3h5v-3a1 1 0 00-1-1z" fill="#4e7ab5"></path></g></svg>