<svg viewBox="0 0 40 40" xmlns="http://www.w3.org/2000/svg"><path fill="#66798f" d="M1 1h1v38H1z"></path><path fill="#66798f" d="M39 38v1H1v-1z"></path><circle cx="37" cy="36" r="1" fill="#66798f"></circle><circle cx="34" cy="36" r="1" fill="#66798f"></circle><circle cx="31" cy="36" r="1" fill="#66798f"></circle><circle cx="28" cy="36" r="1" fill="#66798f"></circle><circle cx="25" cy="36" r="1" fill="#66798f"></circle><circle cx="22" cy="36" r="1" fill="#66798f"></circle><circle cx="19" cy="36" r="1" fill="#66798f"></circle><circle cx="16" cy="36" r="1" fill="#66798f"></circle><circle cx="13" cy="36" r="1" fill="#66798f"></circle><circle cx="10" cy="36" r="1" fill="#66798f"></circle><circle cx="7" cy="36" r="1" fill="#66798f"></circle><circle cx="4" cy="36" r="1" fill="#66798f"></circle><path d="M20.5 34C13.342 34 9.07 10.29 8.006 1H7s3.842 34 13.5 34S34 1 34 1h-1.006c-1.063 9.29-5.333 33-12.494 33z" fill="#5e9c76"></path></svg>