<svg viewBox="0 0 40 40" xmlns="http://www.w3.org/2000/svg"><path fill="#fff" d="M2.5 2.5h35v35h-35z"></path><path d="M37 3v34H3V3h34m1-1H2v36h36V2z" fill="#788b9c"></path><path fill="#f78f8f" d="M2.5 2.5h35v5h-35z"></path><path d="M37 3v4H3V3h34m1-1H2v6h36V2z" fill="#c74343"></path><path fill="#e1ebf2" d="M3 34h34v3H3z"></path><path d="M16.05 22.394h-7v-1.169h7v1.169zM20.254 15.612v10.021h-1.586v-8.08a4.97 4.97 0 01-.926.522 7.476 7.476 0 01-1.131.38v-1.354c.264-.087.52-.178.766-.273s.489-.202.728-.321.481-.25.725-.396.496-.312.755-.499h.669zM28.779 18.634l-3.158 8.121c-.656 1.449-1.577 2.174-2.762 2.174-.333 0-.611-.03-.834-.089v-1.319c.25.082.479.123.684.123.592 0 1.035-.292 1.326-.875l.472-1.148-2.782-6.986h1.757l1.668 5.086c.018.063.059.232.123.506h.034c.023-.104.064-.269.123-.492l1.75-5.1h1.599z" fill="#36404d"></path></svg>