<svg viewBox="0 0 40 40" xmlns="http://www.w3.org/2000/svg"><path fill="#fff" d="M2.5 2.5h35v35h-35z"></path><path d="M37 3v34H3V3h34m1-1H2v36h36V2z" fill="#788b9c"></path><path fill="#f78f8f" d="M2.5 2.5h35v5h-35z"></path><path d="M37 3v4H3V3h34m1-1H2v6h36V2z" fill="#c74343"></path><path fill="#e1ebf2" d="M3 34h34v3H3z"></path><path d="M15.391 22.394h-7v-1.169h7v1.169zM19.595 15.612v10.021h-1.586v-8.08a4.97 4.97 0 01-.926.522 7.476 7.476 0 01-1.131.38v-1.354c.264-.087.52-.178.766-.273s.489-.202.728-.321.481-.25.725-.396.496-.312.755-.499h.669zM28.42 25.634h-1.586v-1.189h-.027c-.51.902-1.296 1.354-2.358 1.354-.861 0-1.551-.313-2.068-.94-.517-.626-.776-1.479-.776-2.56 0-1.157.286-2.085.858-2.782s1.334-1.046 2.287-1.046c.943 0 1.629.378 2.058 1.135h.027v-4.334h1.586v10.362zm-1.566-3.199v-.916c0-.497-.162-.919-.485-1.265s-.736-.52-1.237-.52c-.592 0-1.059.221-1.398.663s-.509 1.056-.509 1.839c0 .711.163 1.272.489 1.686.326.412.765.618 1.316.618.542 0 .982-.199 1.319-.599.337-.398.505-.9.505-1.506z" fill="#36404d"></path></svg>