<svg viewBox="0 0 40 40" xmlns="http://www.w3.org/2000/svg"><circle cx="20" cy="35.5" r="3.5" fill="#2d3540"></circle><path d="M17 36.5a2.503 2.503 0 01-2.5-2.5v-5.5h11V34c0 1.378-1.121 2.5-2.5 2.5h-6z" fill="#dcd5f2"></path><path d="M25 29v5c0 1.103-.897 2-2 2h-6c-1.103 0-2-.897-2-2v-5h10m1-1H14v6a3 3 0 003 3h6a3 3 0 003-3v-6z" fill="#8b75a1"></path><path fill="#8b75a1" d="M19 34h6.488v1H19zM14.56 34H17v1h-2.44zM19 32h7v1h-7zM14 32h3v1h-3zM19 30h7v1h-7zM14 30h3v1h-3z"></path><path d="M14.485 28.5c-.203-3.576-2.561-6.581-4.843-9.492C7.512 16.292 5.5 13.727 5.5 11c0-.165.007-.333.021-.5H34.48c.014.167.021.335.021.5 0 2.722-2.007 5.277-4.133 7.981-2.287 2.912-4.649 5.918-4.854 9.519H14.485z" fill="#dcd5f2"></path><path d="M34 11c0 2.549-1.955 5.038-4.026 7.672-2.238 2.849-4.546 5.786-4.922 9.328H14.947c-.377-3.518-2.678-6.454-4.911-9.3C7.96 16.053 6 13.554 6 11h28m.924-1H5.076A6.776 6.776 0 005 11c0 6.023 9 11.01 9 18h12c0-7.03 9-11.977 9-18 0-.338-.027-.671-.076-1z" fill="#8b75a1"></path><g><path d="M5.52 10.5c.398-5.007 6.741-9 14.48-9s14.082 3.993 14.48 9H5.52z" fill="#ffeea3"></path><path d="M20 2c7.194 0 13.138 3.506 13.914 8H6.086C6.862 5.506 12.806 2 20 2m0-1C11.716 1 5 5.477 5 11h30c0-5.523-6.716-10-15-10z" fill="#ba9b48"></path></g></svg>