<svg viewBox="0 0 40 40" xmlns="http://www.w3.org/2000/svg"><path fill="#72b289" d="M11.467 31.76l-3.231-3.232-6.175-.882L5.207 24.5h7.586l2.707 2.707v7.543l-3.142 2.356z"></path><path d="M12.586 25L15 27.414V34.5l-2.284 1.713-.73-4.377-.053-.316-.227-.227-3-3-.236-.236-.33-.047-5.02-.717L5.414 25h7.172M13 24H5l-4 4 7 1 3 3 1 6 4-3v-8l-3-3z" fill="#5e9c76"></path><path d="M8.67 28.963l3.721-4.65L24.42 12.287l.038-.086c.059-.135.089-.306.135-.564.163-.918.545-3.067 2.76-5.283 3.033-3.034 9.016-4.366 11.035-4.741-.376 2.019-1.708 8-4.742 11.034-2.673 2.673-5.641 2.853-5.67 2.854l-.192.01-12.138 12.135-4.609 3.684-2.367-2.367z" fill="#bae0bd"></path><path d="M37.754 2.247c-.506 2.421-1.821 7.406-4.461 10.046-2.523 2.523-5.316 2.707-5.339 2.708l-.387.018-.274.274-11.961 11.961-4.258 3.406-1.734-1.734 3.406-4.258 11.961-11.961.133-.133.076-.172c.083-.189.117-.383.17-.678.168-.946.518-2.913 2.622-5.017 2.634-2.635 7.623-3.952 10.046-4.46M39 1s-8.17 1.17-12 5c-2.841 2.841-2.807 5.561-3 6L12 24l-4 5 3 3 5-4 12-12s3.143-.144 6-3c3.83-3.83 5-12 5-12z" fill="#5e9c76"></path><path fill="#ba9b48" d="M14.064 23.35l-1.318 1.318-.035.043 2.578 2.578.043-.035 1.318-1.318zM24.928 12.363c-.005.012-.007.027-.013.039l-.076.172-.133.133-1.074 1.074 2.586 2.586 1.074-1.074.274-.274.016-.001-2.654-2.655z"></path></svg>