<svg viewBox="0 0 40 40" xmlns="http://www.w3.org/2000/svg"><path d="M30 34.5c-.827 0-1.5-.673-1.5-1.5v-6.383l-.37-.1c-.17-.045-4.209-1.117-8.13-1.117s-7.96 1.072-8.13 1.117l-.37.1V33c0 .827-.673 1.5-1.5 1.5H3c-.827 0-1.5-.673-1.5-1.5v-4.269c0-1.481.929-2.805 2.312-3.292C6.925 24.342 13.167 22.5 20 22.5s13.075 1.842 16.188 2.939a3.487 3.487 0 012.312 3.292V33c0 .827-.673 1.5-1.5 1.5h-7z" fill="#f78f8f"></path><path d="M20 23c6.76 0 12.94 1.824 16.022 2.911A2.987 2.987 0 0138 28.732V33c0 .551-.449 1-1 1h-7c-.551 0-1-.449-1-1v-6.767l-.741-.199C28.087 25.988 23.986 24.9 20 24.9s-8.087 1.088-8.259 1.134l-.741.199V33c0 .551-.449 1-1 1H3c-.551 0-1-.449-1-1v-4.268c0-1.27.795-2.403 1.978-2.821C7.06 24.824 13.24 23 20 23m0-1c-6.809 0-12.994 1.783-16.354 2.968A3.985 3.985 0 001 28.732V33a2 2 0 002 2h7a2 2 0 002-2v-6s4.1-1.1 8-1.1 8 1.1 8 1.1v6a2 2 0 002 2h7a2 2 0 002-2v-4.268a3.986 3.986 0 00-2.646-3.764C32.994 23.783 26.809 22 20 22z" fill="#c74343"></path><path fill="none" stroke="#c74343" stroke-miterlimit="10" d="M33 5L20 18 7 5"></path><path fill="none" stroke="#c74343" stroke-miterlimit="10" d="M26.036 4.5H33.5v7.464"></path></svg>