<svg viewBox="0 0 40 40" xmlns="http://www.w3.org/2000/svg"><path d="M2.5 20.81v-9.564c1.124 1.332 3 4.168 3 8.255v.207l.146.146c.916.916 4.716 4.345 5.76 5.285l-1.57 3.925L2.5 20.81z" fill="#a6714e"></path><path d="M3 12.743c.966 1.48 2 3.762 2 6.757v.414l.293.293c.859.859 4.213 3.891 5.52 5.069l-1.14 2.85L3 20.62v-7.877M2 10v11l8 9 2-5s-4.955-4.455-6-5.5C6 13.375 2 10 2 10z" fill="#7a4f34"></path><path d="M7.551 13.053L12.5 4.805V5c0 1.725-.978 5.959-1.941 7.765l-.129.242.135.239c.596 1.054 3.099 5.427 3.812 6.671l-3.174 3.174-3.652-10.038z" fill="#a6714e"></path><path d="M11.773 6.988c-.341 1.908-1.014 4.339-1.656 5.541l-.258.485.27.478c.551.975 2.734 4.788 3.623 6.341l-2.349 2.349-3.301-9.077 3.671-6.117M13 3L7 13l4 11 4-4s-3.304-5.768-4-7c1-1.875 2-6.19 2-8V3z" fill="#7a4f34"></path><path d="M28.594 25.139c1.044-.94 4.844-4.369 5.76-5.285l.146-.146V19.5c0-4.102 1.876-6.933 3-8.259v9.568l-7.336 8.254-1.57-3.924z" fill="#a6714e"></path><path d="M37 12.758v7.861l-6.672 7.507-1.14-2.85c1.307-1.178 4.66-4.21 5.52-5.069l.292-.293V19.5c0-2.972 1.033-5.255 2-6.742M38 10s-4 3.375-4 9.5c-1.045 1.045-6 5.5-6 5.5l2 5 8-9V10z" fill="#7a4f34"></path><g><path d="M25.624 19.917c.712-1.244 3.216-5.617 3.812-6.671l.135-.239-.129-.242C28.478 10.959 27.5 6.725 27.5 5v-.195l4.949 8.248-3.65 10.038-3.175-3.174z" fill="#a6714e"></path><path d="M28.227 6.988l3.671 6.118-3.301 9.077-2.349-2.349c.889-1.553 3.072-5.366 3.623-6.341l.27-.478-.258-.485c-.642-1.203-1.315-3.634-1.656-5.542M27 3v2c0 1.81 1 6.125 2 8-.696 1.232-4 7-4 7l4 4 4-11-6-10z" fill="#7a4f34"></path></g><g><path d="M16.333 37.5C12.565 37.5 9.5 34.136 9.5 30v-1.333c0-6.951 5.517-11.68 6.838-12.712L20 18.618l3.661-2.663c1.322 1.035 6.839 5.772 6.839 12.712V30c0 4.136-3.065 7.5-6.833 7.5h-7.334z" fill="#d6aa70"></path><path d="M23.647 16.584C25.287 17.932 30 22.357 30 28.667V30c0 3.86-2.841 7-6.333 7h-7.334C12.841 37 10 33.86 10 30v-1.333c0-6.288 4.716-10.729 6.354-12.082l3.058 2.224.588.427.588-.428 3.059-2.224m.02-1.251L20 18l-3.667-2.667S9 20.458 9 28.666V30c0 4.4 3.3 8 7.333 8h7.334C27.7 38 31 34.4 31 30v-1.333c0-8.209-7.333-13.334-7.333-13.334z" fill="#7a4f34"></path></g><g><path d="M18 20.5c-1.93 0-3.5-1.57-3.5-3.5v-.667c0-3.008 2.314-6.742 3.376-8.297L20 13.347l2.124-5.311c1.062 1.555 3.376 5.289 3.376 8.297V17c0 1.93-1.57 3.5-3.5 3.5h-4z" fill="#f5ce85"></path><path d="M22.234 9.108C23.358 10.872 25 13.872 25 16.333V17c0 1.654-1.346 3-3 3h-4c-1.654 0-3-1.346-3-3v-.667c0-2.456 1.643-5.458 2.767-7.224l1.305 3.262.928 2.322.928-2.321 1.306-3.264M22 7l-2 5-2-5s-4 5.229-4 9.333V17c0 2.2 1.8 4 4 4h4c2.2 0 4-1.8 4-4v-.667C26 12.229 22 7 22 7z" fill="#7a4f34"></path></g></svg>