<svg viewBox="0 0 40 40" xmlns="http://www.w3.org/2000/svg"><path fill="none" stroke="#8b75a1" stroke-miterlimit="10" d="M31.5 19.615V39"></path><path d="M2.5 12.962V8c0-3.584 2.916-6.5 6.5-6.5h16.539C32.026 1.5 37.5 7.335 37.5 11l-.131 1.962H2.5zm7-7.462c-1.654 0-3 1.346-3 3s1.346 3 3 3H25c1.378 0 2.5-1.121 2.5-2.5 0-1.93-1.57-3.5-3.5-3.5H9.5z" fill="#8bb7f0"></path><path d="M25.538 2C31.624 2 36.967 7.575 37 10.969l-.099 1.492H3V8c0-3.308 2.692-6 6-6h16.538M9.5 12H25c1.654 0 3-1.346 3-3 0-2.206-1.794-4-4-4H9.5C7.57 5 6 6.57 6 8.5S7.57 12 9.5 12M25.538 1H9a7 7 0 00-7 7v5.462h35.836L38 11c0-3.996-5.841-10-12.462-10zM9.5 11a2.5 2.5 0 110-5H24a3 3 0 013 3 2 2 0 01-2 2H9.5z" fill="#4e7ab5"></path><path d="M27.31 22.5c-.745-1.48-1.378-2.413-1.868-3h10.803l-.723 3H27.31z" fill="#8bb7f0"></path><path d="M35.61 20l-.482 2h-7.512a18.956 18.956 0 00-1.178-2h9.172m1.27-1H24.154s1.111.457 2.846 4h8.916l.964-4z" fill="#4e7ab5"></path><g><path d="M9 19.5A6.508 6.508 0 012.5 13v-1.5h34.994c-.082 3.377-.958 6.89-1.258 8H9z" fill="#c2e8ff"></path><path d="M36.976 12c-.135 2.845-.792 5.705-1.125 7H9c-3.308 0-6-2.692-6-6v-1h33.976M38 11H2v2a7 7 0 007 7h27.615S38 15.322 38 11z" fill="#7496c4"></path></g><path d="M28.5 38.5a1 1 0 01-.985-1.171l1.038-6a1 1 0 01.985-.829h3.923a1 1 0 01.985.829l1.038 6A.999.999 0 0134.5 38.5h-6z" fill="none" stroke="#8b75a1" stroke-miterlimit="10"></path></svg>