<svg viewBox="0 0 40 40" xmlns="http://www.w3.org/2000/svg"><path fill="#ffc49c" d="M8.5 2.5h27v31h-27z"></path><path d="M35 3v30H9V3h26m1-1H8v32h28V2z" fill="#a16a4a"></path><path d="M5.5 35V5c0-1.378 1.122-2.5 2.5-2.5h.5V35h-3z" fill="#ffc49c"></path><path d="M8 3v31.5H6V5c0-1.103.897-2 2-2m1-1H8a3 3 0 00-3 3v30.5h4V2z" fill="#a16a4a"></path><path fill="#ffd5b8" d="M9 3h1v30H9z"></path><path d="M9 3H8a2 2 0 00-2 2v30.231h3V3z" fill="#db996c"></path><path d="M7.5 37.5c-1.103 0-2-.897-2-2s.897-2 2-2h28v.34c-.179.272-.5.87-.5 1.66s.321 1.388.5 1.66v.34h-28z" fill="#fff"></path><path d="M34.839 34a3.533 3.533 0 00-.339 1.5c0 .616.165 1.13.339 1.5H7.5c-.827 0-1.5-.673-1.5-1.5S6.673 34 7.5 34h27.339M36 33H7.5a2.5 2.5 0 100 5H36v-1s-.5-.597-.5-1.5.5-1.5.5-1.5v-1zM16.374 19.435a37.913 37.913 0 01-.084-2.675h-.024c-.144.863-.36 1.859-.516 2.482l-.708 2.891h-1.104l-.671-2.843a32.464 32.464 0 01-.504-2.53h-.023c-.024.875-.084 1.895-.12 2.698l-.144 2.807h-1.343l.576-8.084h1.667l.647 2.927c.216 1.02.42 1.919.564 2.83h.036c.12-.899.3-1.811.504-2.83l.647-2.927h1.655l.492 8.084h-1.403l-.144-2.83zM24.15 18.079c0 3.046-1.079 4.281-2.614 4.281-1.835 0-2.555-1.942-2.555-4.161 0-2.207.875-4.114 2.675-4.114 1.943 0 2.494 2.147 2.494 3.994zm-3.538.144c0 1.835.348 2.771.983 2.771.671 0 .923-1.199.923-2.842 0-1.416-.216-2.699-.936-2.699-.622-.001-.97 1.03-.97 2.77zM25.449 14.301c.479-.107 1.115-.155 1.787-.155.756 0 1.487.096 2.051.575.432.36.611.899.611 1.463a1.88 1.88 0 01-1.163 1.764v.048c.936.264 1.427 1.031 1.427 1.931 0 .66-.216 1.188-.6 1.583-.48.528-1.295.815-2.651.815-.6 0-1.104-.035-1.463-.096v-7.928zm1.571 3.202h.336c.564 0 .996-.479.996-1.139 0-.588-.276-1.044-.912-1.044-.18 0-.324.012-.42.048v2.135zm0 3.586c.096.024.216.024.348.024.647 0 1.163-.396 1.163-1.211 0-.816-.552-1.235-1.175-1.235h-.336v2.422zM33.116 14.181v8.084h-1.571v-8.084h1.571z" fill="#a16a4a"></path></svg>