<svg viewBox="0 0 40 40" xmlns="http://www.w3.org/2000/svg"><circle cx="7" cy="36" r="2.5" fill="#b0c1d4"></circle><path d="M7 34c1.103 0 2 .897 2 2s-.897 2-2 2-2-.897-2-2 .897-2 2-2m0-1a3 3 0 100 6 3 3 0 000-6z" fill="#66798f"></path><circle cx="15" cy="36" r="2.5" fill="#b0c1d4"></circle><path d="M15 34c1.103 0 2 .897 2 2s-.897 2-2 2-2-.897-2-2 .897-2 2-2m0-1a3 3 0 100 6 3 3 0 000-6z" fill="#66798f"></path><path fill="#dbf2ff" d="M2.5 33.5V9.446l17.497-5.384L37.5 9.446V33.5z"></path><path d="M19.997 4.585L37 9.816V33H3V9.815l16.997-5.23m0-1.047L2 9.077V34h36V9.077L19.997 3.538z" fill="#7496c4"></path><path fill="#b5ddf5" d="M3 29h34v4H3z"></path><path fill="#ffc49c" d="M23.5 17.5h8v16h-8z"></path><path d="M31 18v15h-7V18h7m1-1h-9v17h9V17z" fill="#a16a4a"></path><circle cx="29.5" cy="26.5" r=".5" fill="#a16a4a"></circle><path fill="#8bb7f0" d="M8.5 17.5h9v7h-9z"></path><path d="M17 18v6H9v-6h8m1-1H8v8h10v-8z" fill="#4e7ab5"></path><path fill="none" stroke="#a16a4a" stroke-miterlimit="10" d="M31.5 39v-8M23.5 39v-8M23.5 35.5h8M23.5 37.5h8"></path><g><path fill="#f78f8f" d="M20 6.476L1.5 12.318V7.366L20 1.524l18.5 5.842v4.952z"></path><path d="M20 2.049l18 5.684v3.903l-17.699-5.59L20 5.951l-.301.095L2 11.636V7.733l18-5.684M20 1L1 7v6l19-6 19 6V7L20 1z" fill="#c74343"></path></g></svg>