<svg viewBox="0 0 40 40" xmlns="http://www.w3.org/2000/svg"><path d="M20 23.002c-6.363 0-11.541-3.935-11.541-8.771S13.637 5.459 20 5.459s11.541 3.935 11.541 8.771S26.363 23.002 20 23.002z" fill="#f78f8f"></path><path d="M20 5.919c6.11 0 11.081 3.729 11.081 8.312 0 4.583-4.971 8.312-11.081 8.312S8.919 18.814 8.919 14.231c0-4.583 4.971-8.312 11.081-8.312M20 5C13.373 5 8 9.133 8 14.231s5.373 9.231 12 9.231 12-4.133 12-9.231S26.627 5 20 5z" fill="#c74343"></path><path d="M20 38.5a4.438 4.438 0 01-3.315-1.483l-.085-.093-.117-.042A10.515 10.515 0 019.5 27V14.5h21V27c0 4.424-2.806 8.396-6.982 9.882l-.118.042-.085.093A4.438 4.438 0 0120 38.5z" fill="#f5ce85"></path><path d="M30 15v12c0 4.213-2.672 7.995-6.65 9.412l-.236.084-.168.185C22.171 37.531 21.125 38 20 38s-2.171-.469-2.946-1.319l-.168-.185-.236-.084A10.016 10.016 0 0110 27V15h20m1-1H9v13c0 4.78 3.055 8.837 7.315 10.354C17.229 38.358 18.534 39 20 39s2.771-.642 3.685-1.646C27.945 35.837 31 31.78 31 27V14z" fill="#967a44"></path><path d="M32 37.5c-2.786 0-5.358-1-6.594-1.566 1.599-1.12 5.094-4.142 5.094-9.148v-4.905c0-2.916-2.482-6.25-3.602-7.605.647-.051 1.26-.091 1.816-.091 2.071 0 3.785.362 3.785 4.815 0 10.231 4.284 14.787 5.746 16.042-.843.768-3.061 2.458-6.245 2.458zm-23 0c-3.726 0-6.265-1.708-7.22-2.48C3.267 33.732 7.5 29.171 7.5 19c0-3.923 3.069-4.727 7.678-4.727 1.206 0 2.458.054 3.782.111 1.331.057 2.708.116 4.04.116.679 0 1.344-.031 1.978-.074-1.123 1.158-3.872 3.398-8.796 4.078-3.218.444-6.682 2.73-6.682 6.699v1.582c0 5.073 3.832 8.21 5.623 9.399-1.34.495-3.902 1.316-6.123 1.316z" fill="#a6714e"></path><path d="M28.715 14.685c1.984 0 3.285.3 3.285 4.315 0 9.551 3.703 14.294 5.497 16.031C36.516 35.818 34.609 37 32 37c-2.202 0-4.273-.65-5.606-1.186C28.211 34.353 31 31.364 31 26.786v-4.904c0-2.613-1.858-5.505-3.122-7.171.292-.016.572-.026.837-.026m-13.537.088c1.195 0 2.441.054 3.76.111 1.337.057 2.719.116 4.062.116.212 0 .423-.003.631-.008-1.391 1.114-3.798 2.504-7.518 3.017C12.687 18.483 9 20.936 9 25.204v1.582c0 4.629 3.036 7.711 5.049 9.246C12.674 36.484 10.727 37 9 37a11.199 11.199 0 01-6.444-2.02C4.368 33.202 8 28.459 8 19c0-1.7.564-2.746 1.83-3.39 1.136-.579 2.785-.837 5.348-.837m13.537-1.088c-1.601 0-3.559.315-5.715.315-2.607 0-5.355-.228-7.822-.228C10.61 13.773 7 14.552 7 19c0 11.947-6 16-6 16s2.925 3 8 3c3.303 0 7.246-1.719 7.246-1.719S10 33.035 10 26.786v-1.582c0-3.678 3.242-5.788 6.25-6.204 7.038-.972 9.75-5 9.75-5s4 4.35 4 7.882v4.904c0 6.13-5.607 9.202-5.607 9.202S27.945 38 32 38c4.392 0 7-3 7-3s-6-4.053-6-16c0-4.468-1.663-5.315-4.285-5.315z" fill="#7a4f34"></path><circle cx="25.5" cy="23.5" r="1.5" fill="#36404d"></circle><circle cx="14.5" cy="23.5" r="1.5" fill="#36404d"></circle><path d="M32.552 19.312C30.944 18.782 26.396 17.5 20 17.5S9.056 18.782 7.448 19.312L6.577 7.986l5.486 3.658 7.912-7.912 6.917 7.906 6.536-3.735-.876 11.409z" fill="#ffc49c"></path><path d="M19.951 4.463l6.296 7.196.539.616.71-.406 5.362-3.064-.757 9.843C30.085 18.041 25.782 17 20 17S9.915 18.041 7.899 18.647l-.744-9.675 4.291 2.86.682.455.58-.58 7.243-7.244M20 3l-8 8-6-4 1 13s5.112-2 13-2 13 2 13 2l1-13-7 4-7-8z" fill="#a16a4a"></path><g><circle cx="20" cy="4" r="2.5" fill="#ffeea3"></circle><path d="M20 2c1.103 0 2 .897 2 2s-.897 2-2 2-2-.897-2-2 .897-2 2-2m0-1a3 3 0 100 6 3 3 0 000-6z" fill="#ba9b48"></path></g><g><circle cx="33" cy="8" r="2.5" fill="#ffeea3"></circle><path d="M33 6c1.103 0 2 .897 2 2s-.897 2-2 2-2-.897-2-2 .897-2 2-2m0-1a3 3 0 100 6 3 3 0 000-6z" fill="#ba9b48"></path></g><g><circle cx="7" cy="8" r="2.5" fill="#ffeea3"></circle><path d="M7 6c1.103 0 2 .897 2 2s-.897 2-2 2-2-.897-2-2 .897-2 2-2m0-1a3 3 0 100 6 3 3 0 000-6z" fill="#ba9b48"></path></g></svg>