<svg viewBox="0 0 40 40" xmlns="http://www.w3.org/2000/svg"><path d="M8 27.5C3.864 27.5.5 24.136.5 20a7.485 7.485 0 015.661-7.263l.406-.103-.03-.418A9.629 9.629 0 016.5 11.5c0-5.514 4.486-10 10-10a9.943 9.943 0 019.736 7.751l.111.481.482-.104A5.525 5.525 0 0128 9.5a5.466 5.466 0 015.426 4.645l.058.37.371.049A6.51 6.51 0 0139.5 21c0 3.584-2.916 6.5-6.5 6.5H8z" fill="#e1ebf2"></path><path d="M16.5 2a9.447 9.447 0 019.249 7.363l.221.962.965-.209A5.061 5.061 0 0128 10a4.969 4.969 0 014.932 4.222l.116.739.742.098A6.01 6.01 0 0139 21c0 3.308-2.692 6-6 6H8c-3.86 0-7-3.14-7-7a6.986 6.986 0 015.283-6.778l.812-.205-.059-.835-.006-.082a7.953 7.953 0 01-.03-.6C7 6.262 11.262 2 16.5 2m0-1C10.701 1 6 5.701 6 11.5c0 .254.02.503.038.752C2.57 13.128 0 16.26 0 20a8 8 0 008 8h25a7 7 0 007-7c0-3.553-2.65-6.481-6.08-6.933a5.996 5.996 0 00-7.196-4.928C25.651 4.479 21.486 1 16.5 1z" fill="#b0c1d4"></path><circle cx="21.5" cy="36.5" r=".5" fill="#4e7ab5"></circle><circle cx="24.5" cy="30.5" r=".5" fill="#4e7ab5"></circle><circle cx="23.5" cy="32.5" r=".5" fill="#4e7ab5"></circle><circle cx="22.5" cy="34.5" r=".5" fill="#4e7ab5"></circle><circle cx="19.5" cy="30.5" r=".5" fill="#4e7ab5"></circle><circle cx="18.5" cy="32.5" r=".5" fill="#4e7ab5"></circle><circle cx="17.5" cy="34.5" r=".5" fill="#4e7ab5"></circle><circle cx="11.5" cy="36.5" r=".5" fill="#4e7ab5"></circle><circle cx="14.5" cy="30.5" r=".5" fill="#4e7ab5"></circle><circle cx="13.5" cy="32.5" r=".5" fill="#4e7ab5"></circle><circle cx="12.5" cy="34.5" r=".5" fill="#4e7ab5"></circle><circle cx="20.5" cy="38.5" r=".5" fill="#4e7ab5"></circle><circle cx="16.5" cy="36.5" r=".5" fill="#4e7ab5"></circle><circle cx="10.5" cy="38.5" r=".5" fill="#4e7ab5"></circle></svg>