<svg viewBox="0 0 40 40" xmlns="http://www.w3.org/2000/svg"><path d="M20 23.002c-6.363 0-11.541-3.935-11.541-8.771S13.637 5.459 20 5.459s11.541 3.935 11.541 8.771S26.363 23.002 20 23.002z" fill="#f78f8f"></path><path d="M20 5.919c6.11 0 11.081 3.729 11.081 8.312 0 4.583-4.971 8.312-11.081 8.312S8.919 18.814 8.919 14.231c0-4.583 4.971-8.312 11.081-8.312M20 5C13.373 5 8 9.133 8 14.231s5.373 9.231 12 9.231 12-4.133 12-9.231S26.627 5 20 5z" fill="#c74343"></path><path d="M29.1 27.5c-1.874 0-3.399-1.57-3.399-3.5s1.525-3.5 3.399-3.5c2.447 0 3.4.607 3.4 2.167 0 1.671-.711 4.833-3.4 4.833zm-18.2 0c-2.689 0-3.4-3.162-3.4-4.833 0-1.559.953-2.167 3.4-2.167 1.874 0 3.399 1.57 3.399 3.5s-1.525 3.5-3.399 3.5z" fill="#deb974"></path><path d="M29.1 21c2.678 0 2.9.788 2.9 1.667C32 24.165 31.394 27 29.1 27c-1.599 0-2.9-1.346-2.9-3s1.301-3 2.9-3m-18.2 0c1.599 0 2.9 1.346 2.9 3s-1.301 3-2.9 3C8.606 27 8 24.165 8 22.667 8 21.788 8.222 21 10.9 21m18.2-1c-2.154 0-3.9 1.791-3.9 4s1.746 4 3.9 4c2.903 0 3.9-3.124 3.9-5.333S31.254 20 29.1 20zm-18.2 0c-2.154 0-3.9.458-3.9 2.667C7 24.876 8.005 28 10.9 28c2.154 0 3.9-1.791 3.9-4s-1.746-4-3.9-4z" fill="#967a44"></path><path d="M20 38.5a4.438 4.438 0 01-3.315-1.483l-.085-.093-.117-.042A10.515 10.515 0 019.5 27V14.5h21V27c0 4.424-2.806 8.396-6.982 9.882l-.118.042-.085.093A4.438 4.438 0 0120 38.5z" fill="#f5ce85"></path><path d="M30 15v12c0 4.213-2.672 7.995-6.65 9.412l-.236.084-.168.185C22.171 37.531 21.125 38 20 38s-2.171-.469-2.946-1.319l-.168-.185-.236-.084A10.016 10.016 0 0110 27V15h20m1-1H9v13c0 4.78 3.055 8.837 7.315 10.354C17.229 38.358 18.534 39 20 39s2.771-.642 3.685-1.646C27.945 35.837 31 31.78 31 27V14z" fill="#967a44"></path><path d="M30.5 23.5V16c0-.982-.323-1.995-.964-3.025C31.099 13.592 32.5 14.55 32.5 16c0 3.709-1.361 6.652-1.799 7.5H30.5zm-21.219 0C8.848 22.741 7.5 20.057 7.5 16c0-2.398 5.939-4.349 13.24-4.349.763 0 1.513.023 2.244.068-1.631.929-3.953 1.781-6.984 1.781-3.143 0-6.5 1.445-6.5 5.5v4.5h-.219zm17.347-12.355a25.437 25.437 0 00-.917-.151c.136-.122.251-.231.346-.325.153.12.349.28.571.476z" fill="#a6714e"></path><path d="M20.74 12.151h.138C19.544 12.647 17.92 13 16 13c-4.318 0-7 2.299-7 6v2.7c-.484-1.28-1-3.225-1-5.7 0-1.82 5.232-3.849 12.74-3.849m9.901 1.929C31.416 14.568 32 15.2 32 16c0 2.239-.513 4.192-1 5.542V16a5.51 5.51 0 00-.359-1.92M26 10s-.506.604-1.515 1.342c1.33.142 2.589.363 3.71.668C27.135 10.787 26 10 26 10zm-5.26 1.151C14.002 11.151 7 12.905 7 16c0 5.044 2 8 2 8h1v-5c0-3.678 2.963-5 6-5 4.065 0 6.897-1.496 8.485-2.658a35.718 35.718 0 00-3.745-.191zm7.455.859C29.126 13.083 30 14.492 30 16v8h1s2-3.404 2-8c0-1.908-1.961-3.217-4.805-3.99z" fill="#7a4f34"></path><circle cx="25.5" cy="23.5" r="1.5" fill="#36404d"></circle><circle cx="14.5" cy="23.5" r="1.5" fill="#36404d"></circle><g><path d="M32.552 19.312C30.944 18.782 26.396 17.5 20 17.5S9.056 18.782 7.448 19.312L6.577 7.986l5.486 3.658 7.912-7.912 6.917 7.906 6.536-3.735-.876 11.409z" fill="#ffc49c"></path><path d="M19.951 4.463l6.296 7.196.539.616.71-.406 5.362-3.064-.757 9.843C30.085 18.041 25.782 17 20 17S9.915 18.041 7.899 18.647l-.744-9.675 4.291 2.86.682.455.58-.58 7.243-7.244M20 3l-8 8-6-4 1 13s5.112-2 13-2 13 2 13 2l1-13-7 4-7-8z" fill="#a16a4a"></path></g><g><circle cx="20" cy="4" r="2.5" fill="#ffeea3"></circle><path d="M20 2c1.103 0 2 .897 2 2s-.897 2-2 2-2-.897-2-2 .897-2 2-2m0-1a3 3 0 100 6 3 3 0 000-6z" fill="#ba9b48"></path></g><g><circle cx="33" cy="8" r="2.5" fill="#ffeea3"></circle><path d="M33 6c1.103 0 2 .897 2 2s-.897 2-2 2-2-.897-2-2 .897-2 2-2m0-1a3 3 0 100 6 3 3 0 000-6z" fill="#ba9b48"></path></g><g><circle cx="7" cy="8" r="2.5" fill="#ffeea3"></circle><path d="M7 6c1.103 0 2 .897 2 2s-.897 2-2 2-2-.897-2-2 .897-2 2-2m0-1a3 3 0 100 6 3 3 0 000-6z" fill="#ba9b48"></path></g></svg>