<svg viewBox="0 0 40 40" xmlns="http://www.w3.org/2000/svg"><path fill="#dcd5f2" d="M19.5 1.5h1v12h-1z"></path><path d="M20 2v11V2m1-1h-2v13h2V1z" fill="#8b75a1"></path><path d="M17.5 38.5V18.071a4.576 4.576 0 00-4.571-4.571H8.5v-1h23v1h-4.429a4.576 4.576 0 00-4.571 4.571V38.5h-5z" fill="#dcd5f2"></path><path d="M27.071 13A5.077 5.077 0 0022 18.071V38h-4V18.071A5.077 5.077 0 0012.929 13h14.142M32 12H8v2h4.929A4.071 4.071 0 0117 18.071V39h6V18.071A4.071 4.071 0 0127.071 14H32v-2z" fill="#8b75a1"></path><path fill="#c2e8ff" d="M8 4h24v1H8zM8 6h24v1H8zM8 8h24v1H8zM8 10h24v1H8z"></path><path fill="#a59dd1" d="M6.5 1.5h2v12h-2z"></path><path d="M8 2v11H7V2h1m1-1H6v13h3V1z" fill="#8b75a1"></path><g><path fill="#a59dd1" d="M31.5 1.5h2v12h-2z"></path><path d="M33 2v11h-1V2h1m1-1h-3v13h3V1z" fill="#8b75a1"></path></g><g><path fill="#dcd5f2" d="M8.5 1.5h23v1h-23z"></path><path fill="#8b75a1" d="M32 1H8v2h24V1z"></path></g><path fill="#dcd5f2" d="M18 37h4v2h-4z"></path></svg>