<svg viewBox="0 0 40 40" xmlns="http://www.w3.org/2000/svg"><path d="M22.19 31.494C14.977 31.389 8.5 29.743 8.5 20c0-7.033-.239-10.762-2.336-13.453 2.635.217 4.798 1.184 6.3 2.829 1.542 1.689 2.266 4 2.038 6.508l-.013.141 7.701 15.469z" fill="#dcd5f2"></path><path d="M7.202 7.183c2.019.352 3.686 1.21 4.892 2.531 1.446 1.584 2.125 3.759 1.91 6.125l-.026.282.126.254 7.268 14.6C14.755 30.753 9 28.941 9 20c0-6.385-.199-10.101-1.798-12.817M5 6c2.744 2.663 3 6.334 3 14 0 11.459 9.109 12 15 12l-8-16.071C15.484 10.603 11.893 6 5 6z" fill="#8b75a1"></path><path d="M22 31.5c-7.253 0-10.5-5.273-10.5-10.5 0-3.802 1.557-6.843 2.93-9.526 1.793-3.504 3.362-6.568.729-9.924 6.79.607 7.341 6.558 7.341 8.45 0 3.695-1.302 6.563-2.451 9.094C19.218 20.925 18.5 22.506 18.5 24c0 1.93 1.57 3.5 3.5 3.5s3.5-1.57 3.5-3.5c0-2.646 1.468-5.5 3.841-5.5 2.173 0 3.962 2.244 4.144 5.093-2.376.205-3.214 1.846-4.026 3.435C28.334 29.227 27.172 31.5 22 31.5z" fill="#dcd5f2"></path><path d="M16.206 2.201C21.387 3.222 22 7.866 22 10c0 3.587-1.278 6.402-2.406 8.886C18.739 20.77 18 22.398 18 24c0 2.206 1.794 4 4 4s4-1.794 4-4c0-2.415 1.342-5 3.341-5 1.793 0 3.289 1.797 3.6 4.159-2.272.402-3.146 2.111-3.928 3.64C27.909 28.96 26.866 31 22 31c-6.908 0-10-5.022-10-10 0-3.681 1.528-6.665 2.875-9.299 1.64-3.203 3.203-6.257 1.331-9.5M14 1c5.973 5.973-3 10.681-3 20 0 5.805 3.714 11 11 11 9.678 0 6.311-7.929 12-7.929C34 20.902 32.054 18 29.341 18S25 21.176 25 24a3 3 0 11-6 0c0-3.327 4-7.48 4-14 0-4.495-2.335-9-9-9z" fill="#8b75a1"></path><circle cx="22" cy="24" r="3.5" fill="#dcd5f2"></circle><path d="M22 21c1.654 0 3 1.346 3 3s-1.346 3-3 3-3-1.346-3-3 1.346-3 3-3m0-1a4 4 0 100 8 4 4 0 000-8z" fill="#8b75a1"></path><g><path fill="#b6c9d6" d="M12.5 35.5h15v3h-15z"></path><path d="M27 36v2H13v-2h14m1-1H12v4h16v-4z" fill="#788b9c"></path></g><g><path fill="#b6c9d6" d="M8.5 31.5h23v4h-23z"></path><path d="M31 32v3H9v-3h22m1-1H8v5h24v-5z" fill="#788b9c"></path></g></svg>