<svg viewBox="0 0 40 40" xmlns="http://www.w3.org/2000/svg"><path d="M14.05 9.918l-6.78 3.767a3.441 3.441 0 00-1.77 3.007v7.476M25.95 9.918l6.78 3.767a3.441 3.441 0 011.77 3.007v7.476M29.5 32.359l-7.811 4.687a3.44 3.44 0 01-3.417.07L9.55 32.359" fill="none" stroke="#a3b7cc" stroke-miterlimit="10"></path><path fill="#c2e8ff" d="M13.5 13.359V6.641L20 2.589l6.5 4.052v6.718L20 17.411z"></path><path d="M20 3.178l6 3.74v6.163l-6 3.74-6-3.74V6.919l6-3.741M20 2l-7 4.364v7.273L20 18l7-4.364V6.364L20 2z" fill="#7496c4"></path><path fill="#8bb7f0" d="M20 10.312l-6-3.388v6.157l6 3.741z"></path><path fill="#e6f7ff" d="M26 6.924l-6 3.388v6.51l6-3.741z"></path><path fill="#c2e8ff" d="M25.5 31.359v-6.718l6.5-4.052 6.5 4.052v6.718L32 35.411z"></path><path d="M32 21.178l6 3.74v6.163l-6 3.74-6-3.74v-6.163l6-3.74M32 20l-7 4.364v7.273L32 36l7-4.364v-7.273L32 20z" fill="#7496c4"></path><path fill="#8bb7f0" d="M32 28.312l-6-3.388v6.157l6 3.741z"></path><path fill="#e6f7ff" d="M38 24.924l-6 3.388v6.51l6-3.741z"></path><path fill="#c2e8ff" d="M1.5 31.359v-6.718L8 20.589l6.5 4.052v6.718L8 35.411z"></path><path d="M8 21.178l6 3.74v6.163l-6 3.74-6-3.74v-6.163l6-3.74M8 20l-7 4.364v7.273L8 36l7-4.364v-7.273L8 20z" fill="#7496c4"></path><path fill="#8bb7f0" d="M8 28.312l-6-3.388v6.157l6 3.741z"></path><path fill="#e6f7ff" d="M14 24.924l-6 3.388v6.51l6-3.741z"></path></svg>