<svg viewBox="0 0 40 40" xmlns="http://www.w3.org/2000/svg"><path d="M5 34c.594 0 1.434.237 2.246.465.934.263 1.9.535 2.754.535s1.82-.272 2.754-.535C13.566 34.237 14.406 34 15 34s1.434.237 2.246.465c.934.263 1.9.535 2.754.535s1.82-.272 2.754-.535C23.566 34.237 24.406 34 25 34s1.434.237 2.246.465c.934.263 1.9.535 2.754.535s1.82-.272 2.754-.535C33.566 34.237 34.406 34 35 34s1.434.237 2.246.465c.584.165 1.18.332 1.754.435V5.877C37.692 5.614 36.148 5 35 5c-1.458 0-3.563 1-5 1s-3.542-1-5-1-3.563 1-5 1-3.542-1-5-1-3.563 1-5 1-3.542-1-5-1c-1.148 0-2.692.614-4 .877V34.9c.574-.103 1.17-.271 1.754-.435C3.566 34.237 4.406 34 5 34z" fill="#8bb7f0"></path><path d="M35 5c-1.458 0-3.563 1-5 1-1.438 0-3.542-1-5-1s-3.563 1-5 1c-1.438 0-3.542-1-5-1s-3.563 1-5 1C8.562 6 6.458 5 5 5c-1.148 0-2.692.614-4 .877V6.9c.574-.103 1.17-.27 1.754-.435C3.566 6.237 4.406 6 5 6s1.434.237 2.246.465C8.18 6.728 9.146 7 10 7s1.82-.272 2.754-.535C13.566 6.237 14.406 6 15 6s1.434.237 2.246.465C18.18 6.728 19.146 7 20 7s1.82-.272 2.754-.535C23.566 6.237 24.406 6 25 6s1.434.237 2.246.465C28.18 6.728 29.146 7 30 7s1.82-.272 2.754-.535C33.566 6.237 34.406 6 35 6s1.434.237 2.246.465c.584.165 1.18.332 1.754.435V5.877C37.692 5.614 36.148 5 35 5zM35 33c-1.458 0-3.563 1-5 1-1.438 0-3.542-1-5-1s-3.563 1-5 1c-1.438 0-3.542-1-5-1s-3.563 1-5 1c-1.438 0-3.542-1-5-1-1.148 0-2.692.614-4 .877V34.9c.574-.103 1.17-.271 1.754-.435C3.566 34.237 4.406 34 5 34s1.434.237 2.246.465c.934.263 1.9.535 2.754.535s1.82-.272 2.754-.535C13.566 34.237 14.406 34 15 34s1.434.237 2.246.465c.934.263 1.9.535 2.754.535s1.82-.272 2.754-.535C23.566 34.237 24.406 34 25 34s1.434.237 2.246.465c.934.263 1.9.535 2.754.535s1.82-.272 2.754-.535C33.566 34.237 34.406 34 35 34s1.434.237 2.246.465c.584.165 1.18.332 1.754.435v-1.023c-1.308-.263-2.852-.877-4-.877z" fill="#4e7ab5"></path><path d="M14 2c-1.861 3.282-4 6.967-4 8.686C10 13.065 11.794 15 14 15s4-1.935 4-4.314C18 9.035 15.865 5.32 14 2zM26 25c-1.861 3.224-4 7.073-4 8.762C22 36.099 23.794 38 26 38s4-1.901 4-4.238c0-1.622-2.135-5.501-4-8.762zM29.5 11c-1.163 2.015-2.5 4.296-2.5 5.351C27 17.812 28.122 19 29.5 19c1.379 0 2.5-1.188 2.5-2.649 0-1.014-1.335-3.313-2.5-5.351zM9.997 21C9.066 22.685 8 24.902 8 25.785 8 27.006 8.897 28 10 28s2-.994 2-2.215c0-.848-1.071-3.08-2.003-4.785z" fill="#d9f2ff"></path><path d="M11.37 6.797C12.129 5.283 13.095 3.596 14 2c.779 1.387 1.597 2.836 2.295 4.181.42.097.856.218 1.292.341-.643-1.297-1.47-2.798-2.452-4.543l-.263-.469-.868-1.545-.874 1.542-.257.453c-1.114 1.962-2.037 3.624-2.707 5.027.37-.017.777-.088 1.204-.19zM30 34l-.023-.002C29.859 36.224 28.129 38 26 38c-2.206 0-4-1.901-4-4.238 0-.027.011-.065.012-.093-.337.089-.671.163-1 .222C21.079 36.718 23.285 39 26 39c2.713 0 4.918-2.279 4.987-5.105-.338.06-.672.105-.987.105z" fill="#4e7ab5"></path></svg>