<svg viewBox="0 0 40 40" xmlns="http://www.w3.org/2000/svg"><path fill="#f5ce85" d="M12.5 9.5h15v18h-15z"></path><path d="M27 10v17H13V10h14m1-1H12v19h16V9z" fill="#967a44"></path><path fill="#f5ce85" d="M1.5 38.5v-23h7v4h23v-4h7v23z"></path><path d="M38 16v22H2V16h6v4h24v-4h6m1-1h-8v4H9v-4H1v24h38V15z" fill="#967a44"></path><path d="M13.5 38.5V34c0-3.584 2.916-6.5 6.5-6.5s6.5 2.916 6.5 6.5v4.5h-13z" fill="#f78f8f"></path><path d="M20 28c3.308 0 6 2.692 6 6v4H14v-4c0-3.308 2.692-6 6-6m0-1a7 7 0 00-7 7v5h14v-5a7 7 0 00-7-7z" fill="#c74343"></path><path d="M24 17h-3v-3.5a1.5 1.5 0 013 0V17zM19 17h-3v-3.5a1.5 1.5 0 013 0V17z" fill="#967a44"></path><path fill="#f78f8f" d="M12.5 9.5v-.293l7.5-7.5 7.5 7.5V9.5z"></path><path d="M20 2.414L26.586 9H13.414L20 2.414M20 1l-8 8v1h16V9l-8-8z" fill="#c74343"></path><path fill="#967a44" d="M34 18h2v4h-2zM19 22h2v3h-2zM24 22h2v3h-2z"></path><g><path fill="#967a44" d="M14 22h2v3h-2z"></path></g><g><path fill="#f78f8f" d="M31.5 15.5v-.367L35 9.008l3.5 6.125v.367z"></path><path d="M35 10.016L37.848 15h-5.697L35 10.016M35 8l-4 7v1h8v-1l-4-7z" fill="#c74343"></path></g><g><path fill="#967a44" d="M4 18h2v4H4z"></path></g><g><path fill="#f78f8f" d="M1.5 15.5v-.367L5 9.008l3.5 6.125v.367z"></path><path d="M5 10.016L7.848 15H2.152L5 10.016M5 8l-4 7v1h8v-1L5 8z" fill="#c74343"></path></g></svg>