<svg viewBox="0 0 40 40" xmlns="http://www.w3.org/2000/svg"><path fill="#fff" d="M2.5 2.5h35v35h-35z"></path><path d="M37 3v34H3V3h34m1-1H2v36h36V2z" fill="#788b9c"></path><path fill="#f78f8f" d="M2.5 2.5h35v5h-35z"></path><path d="M37 3v4H3V3h34m1-1H2v6h36V2z" fill="#c74343"></path><path fill="#e1ebf2" d="M3 34h34v3H3z"></path><path d="M21.515 26.959h-1.844v-7.25c0-.594.036-1.32.109-2.18h-.031c-.114.489-.216.841-.305 1.055L16.1 26.959h-1.281l-3.352-8.312c-.094-.245-.192-.617-.297-1.117h-.03c.042.448.062 1.18.062 2.195v7.234H9.483V15.756H12.1l2.945 7.461c.224.573.37 1 .438 1.281h.039c.192-.589.349-1.026.469-1.312l3-7.43h2.523v11.203zM27.616 27.146c-1.234 0-2.22-.374-2.957-1.121s-1.105-1.738-1.105-2.973c0-1.344.384-2.394 1.152-3.148s1.804-1.133 3.105-1.133c1.25 0 2.224.367 2.922 1.102s1.047 1.753 1.047 3.055c0 1.276-.376 2.298-1.129 3.066s-1.764 1.152-3.035 1.152zm.086-6.929c-.708 0-1.269.247-1.68.742s-.617 1.177-.617 2.047c0 .839.208 1.499.625 1.98s.974.723 1.672.723c.714 0 1.262-.237 1.645-.711s.574-1.148.574-2.023c0-.88-.191-1.56-.574-2.039s-.931-.719-1.645-.719z" fill="#36404d"></path></svg>