<svg viewBox="0 0 40 40" xmlns="http://www.w3.org/2000/svg"><path d="M23 38.5c-.845 0-1.5-.806-1.5-1.5 0-.635-.045-1.329-.136-2.061l-.053-.439H14.69l-.054.439A16.838 16.838 0 0014.5 37c0 .694-.655 1.5-1.5 1.5H9c-.845 0-1.5-.806-1.5-1.5 0-2.093-.477-4.188-.761-5.25l-.039-.146-.114-.1A12 12 0 012.5 22.5c0-6.617 5.383-12 12-12h8c.55 0 1.991.041 2.438.095l.273.033.174-.213c1.675-2.05 4.799-2.658 6.479-2.839-.838 1.093-2.07 3.017-2.202 5.029l-.017.265.209.163a12.014 12.014 0 012.971 3.376l.064.109 3.882 2.329c.449.27.729.762.729 1.286v5.514c0 .617-.37 1.164-.943 1.393l-3.685 1.474-.086.145a12.135 12.135 0 01-3.562 3.782l-.164.109-.043.194c-.343 1.538-.517 2.97-.517 4.256 0 .694-.655 1.5-1.5 1.5h-4z" fill="#f78f8f"></path><path d="M30.788 8.236c-.748 1.157-1.519 2.714-1.625 4.336l-.035.529.419.326a11.49 11.49 0 012.848 3.236l.129.218.217.13 3.774 2.264c.299.18.485.508.485.857v5.514a.994.994 0 01-.629.928l-3.529 1.411-.313.125-.172.29a11.63 11.63 0 01-3.413 3.626l-.328.223-.086.387C28.178 34.208 28 35.676 28 37c0 .453-.446 1-1 1h-4c-.554 0-1-.547-1-1 0-.656-.047-1.37-.139-2.122L21.753 34H14.247l-.108.878A17.618 17.618 0 0014 37c0 .453-.446 1-1 1H9c-.554 0-1-.547-1-1 0-2.041-.423-4.051-.778-5.378l-.078-.293-.227-.2A11.505 11.505 0 013 22.5C3 16.159 8.159 11 14.5 11h8c.547 0 1.963.041 2.379.091l.546.065.348-.426c1.243-1.522 3.385-2.195 5.015-2.494M33 7s-5.473.003-8.002 3.098c-.492-.059-1.99-.098-2.498-.098h-8C7.596 10 2 15.596 2 22.5c0 3.741 1.652 7.089 4.256 9.38C6.553 32.988 7 34.992 7 37c0 1 .895 2 2 2h4c1.105 0 2-1 2-2 0-.679.053-1.356.132-2h5.736c.079.644.132 1.321.132 2 0 1 .895 2 2 2h4c1.105 0 2-1 2-2 0-1.51.253-3.019.505-4.147a12.543 12.543 0 003.709-3.939l3.529-1.411A2 2 0 0038 25.646v-5.514a2 2 0 00-.971-1.715l-3.774-2.264a12.554 12.554 0 00-3.094-3.516C30.349 9.77 33 7 33 7z" fill="#c74343"></path><path d="M6.5 9.5a4 4 0 00-2.856 6.8l.034.035.017.017" fill="none" stroke="#c74343" stroke-linecap="round" stroke-miterlimit="10"></path><circle cx="30" cy="18" r="1" fill="#36404d"></circle><circle cx="18" cy="7" r="5.5" fill="#ffeea3"></circle><path d="M17.999 2.001c2.757 0 4.999 2.243 4.999 5s-2.243 5-4.999 5S13 9.757 13 7s2.243-4.999 4.999-4.999m0-1A6.006 6.006 0 0012 7c0 3.309 2.691 6 5.999 6s5.999-2.691 5.999-6a6.004 6.004 0 00-5.999-5.999z" fill="#ba9b48"></path><path d="M18.999 10h-1.14V5.41l-1.36.439v-.957l2.378-.891h.122V10z" fill="#967a44"></path><g><path fill="#f78f8f" d="M13 12h10v2H13z"></path></g><path d="M12 11a1 1 0 001 1h10a1 1 0 001-1H12z" fill="#c74343"></path></svg>