<svg viewBox="0 0 40 40" xmlns="http://www.w3.org/2000/svg"><path d="M20 38.5c-11.421 0-18.5-1.505-18.5-9C1.5 21.569 13.084 8.286 20 8.286S38.5 21.569 38.5 29.5c0 7.495-7.079 9-18.5 9z" fill="#f5ce85"></path><path d="M20 8.786c6.561 0 18 13.164 18 20.714 0 5.248-3.011 8.5-18 8.5-11.113 0-18-1.422-18-8.5C2 21.95 13.439 8.786 20 8.786m0-1c-7.156 0-19 13.469-19 21.714S9.294 39 20 39s19-1.255 19-9.5S27.156 7.786 20 7.786z" fill="#967a44"></path><path d="M14.684 9.5c-.545-.266-3.346-1.732-3.655-3.907C12.298 5.312 16.299 4.5 20 4.5s7.702.812 8.972 1.093c-.31 2.175-3.11 3.641-3.655 3.907H14.684z" fill="#f5ce85"></path><path d="M20 5c3.257 0 6.757.639 8.364.974-.499 1.436-2.251 2.575-3.16 3.026H14.796c-.91-.452-2.662-1.591-3.161-3.027C13.241 5.639 16.738 5 20 5m0-1c-4.565 0-9.5 1.2-9.5 1.2 0 2.985 4.071 4.8 4.071 4.8h10.857s4.071-1.815 4.071-4.8C29.5 5.2 24.565 4 20 4z" fill="#967a44"></path><path d="M17.588 9.5L13.9 2.516C14.735 2.169 16.764 1.5 20 1.5s5.265.669 6.1 1.016L22.412 9.5h-4.824z" fill="#f5ce85"></path><path d="M20 2c2.615 0 4.41.446 5.393.783L22.111 9h-4.223l-3.281-6.217C15.592 2.446 17.386 2 20 2m0-1c-4.565 0-6.786 1.286-6.786 1.286L17.286 10h5.429l4.071-7.714S24.565 1 20 1z" fill="#967a44"></path><path d="M25.786 9.5H15.691s-3.155 3.009-3.155 11.536M15.718 9.5s-4.469 2.195-6.254 8.821" fill="none" stroke="#66798f" stroke-linecap="round" stroke-linejoin="round" stroke-miterlimit="10"></path><path d="M23 22v-.394A2.606 2.606 0 0020.394 19h-.789A2.606 2.606 0 0017 21.606v0c0 .871.435 1.685 1.16 2.168l3.68 2.453A2.603 2.603 0 0123 28.394v0A2.606 2.606 0 0120.394 31h-.789A2.606 2.606 0 0117 28.394V28" fill="#f5ce85" stroke="#967a44" stroke-width="2" stroke-miterlimit="10"></path><path fill="none" stroke="#967a44" stroke-width="2" stroke-miterlimit="10" d="M20 19v-3M20 34v-3"></path></svg>