<svg viewBox="0 0 40 40" xmlns="http://www.w3.org/2000/svg"><path d="M20 38.5c-11.421 0-18.5-1.495-18.5-8.935C1.5 21.69 13.084 8.5 20 8.5s18.5 13.19 18.5 21.065c0 7.44-7.079 8.935-18.5 8.935z" fill="#f78f8f"></path><path d="M20 9c6.561 0 18 13.069 18 20.565C38 36.589 31.113 38 20 38S2 36.589 2 29.565C2 22.069 13.439 9 20 9m0-1C12.844 8 1 21.377 1 29.565S9.294 39 20 39c10.707 0 19-1.247 19-9.435S27.156 8 20 8z" fill="#c74343"></path><path d="M14.98 9.5c-.546-.297-3.187-1.848-3.458-4.156C12.728 5.049 16.506 4.2 20 4.2s7.272.849 8.478 1.144c-.272 2.308-2.913 3.859-3.458 4.156H14.98z" fill="#f78f8f"></path><path d="M20 4.7c3.075 0 6.383.67 7.897 1.02-.468 1.718-2.392 2.93-3.007 3.28h-9.778c-.613-.351-2.537-1.573-3.007-3.281C13.618 5.37 16.921 4.7 20 4.7m0-1c-4.325 0-9 1.26-9 1.26C11 8.095 14.857 10 14.857 10h10.286S29 8.095 29 4.96c0 0-4.675-1.26-9-1.26z" fill="#c74343"></path><path d="M17.497 9.5l-3.801-6.982C14.559 2.17 16.655 1.5 20 1.5s5.441.67 6.304 1.018L22.503 9.5h-5.006z" fill="#f78f8f"></path><path d="M20 2c2.711 0 4.571.449 5.588.788L22.206 9h-4.412l-3.382-6.212C15.431 2.449 17.29 2 20 2m0-1c-4.71 0-7 1.286-7 1.286L17.2 10h5.6L27 2.286S24.71 1 20 1z" fill="#c74343"></path><path d="M26.5 9.5h-11s-3 4-3 11M15.5 9.5s-5.251 2.516-7.036 9.143" fill="none" stroke="#ffeea3" stroke-linecap="round" stroke-linejoin="round" stroke-miterlimit="10"></path><path fill="#fff" d="M24 21v-2h-8v9.5h-1V30h1v2h2v-2h3v-1.5h-3V26h5v-1.5h-5V21z"></path></svg>