<svg viewBox="0 0 40 40" xmlns="http://www.w3.org/2000/svg"><path d="M1.5 36.5V14.519l16.482-11.39C18.578 2.718 19.275 2.5 20 2.5s1.422.218 2.018.629L38.5 14.519V36.5h-37z" fill="#fff"></path><path d="M20 3c.622 0 1.222.187 1.734.541L38 14.78V36H2V14.78L18.266 3.541A3.036 3.036 0 0120 3m0-1a4.04 4.04 0 00-2.302.718L1 14.256V37h38V14.256L22.302 2.718A4.04 4.04 0 0020 2z" fill="#ba9b48"></path><path d="M25 23.998H15L2 14.78 18.266 3.541C18.778 3.187 19.378 3 20 3s1.222.187 1.734.541L38 14.78l-13 9.218z" fill="#ffeea3"></path><path fill="#bae0bd" d="M15.159 23.498L9.5 19.484V2.5h21v16.984l-5.659 4.014z"></path><path d="M30 3v16.227l-5.319 3.771h-9.363L10 19.227V3h20m1-1H9v17.743l6 4.254h10l6-4.254V2z" fill="#5e9c76"></path><circle cx="20" cy="9" r="2.5" fill="#fff"></circle><path d="M20 7c1.103 0 2 .897 2 2s-.897 2-2 2-2-.897-2-2 .897-2 2-2m0-1a3 3 0 100 6 3 3 0 000-6z" fill="#5e9c76"></path><g><path d="M15.159 23.498l-2.017-1.431A4.25 4.25 0 0113 21c0-3.032 3.14-5.5 7-5.5s7 2.468 7 5.5c0 .347-.048.705-.143 1.067l-2.017 1.431h-9.681z" fill="#fff"></path><path d="M20 16c3.584 0 6.5 2.243 6.5 5 0 .253-.028.507-.085.768l-1.734 1.229h-9.363l-1.734-1.229A3.64 3.64 0 0113.5 21c0-2.757 2.916-5 6.5-5m0-1c-4.142 0-7.5 2.686-7.5 6 0 .474.077.932.209 1.373L15 23.998h10l2.291-1.624c.132-.442.209-.9.209-1.374 0-3.314-3.358-6-7.5-6z" fill="#5e9c76"></path></g><path fill="#ebd7a7" d="M24.542 22.998h-9.194L2.917 14.167 2 14.78l13 9.218h10l13-9.218-.849-.583z"></path></svg>