<svg viewBox="0 0 40 40" xmlns="http://www.w3.org/2000/svg"><path d="M36.5 37.249c-12.647-5.172-29.861-5.691-33-5.743V10.5h33v26.749z" fill="#bae0bd"></path><path d="M36 11v25.51c-12.231-4.794-27.886-5.417-32-5.498V11h32m1-1H3v22s20 0 34 6V10z" fill="#5e9c76"></path><path d="M37.5 32.384c-12.728-2.607-31.69-2.858-35-2.882V8.5h35v23.884z" fill="#bae0bd"></path><path d="M37 9v22.774c-12.217-2.398-29.668-2.723-34-2.767V9h34m1-1H2v22s22 0 36 3V8z" fill="#5e9c76"></path><path fill="#bae0bd" d="M1.5 6.5h37v21h-37z"></path><path d="M38 7v20H2V7h36m1-1H1v22h38V6z" fill="#5e9c76"></path><g><circle cx="20" cy="17" r="7.5" fill="#fff"></circle><path d="M20 10c3.86 0 7 3.14 7 7s-3.14 7-7 7-7-3.14-7-7 3.14-7 7-7m0-1a8 8 0 100 16 8 8 0 000-16z" fill="#5e9c76"></path></g><g><circle cx="33" cy="17" r="2.5" fill="#fff"></circle><path d="M33 15c1.103 0 2 .897 2 2s-.897 2-2 2-2-.897-2-2 .897-2 2-2m0-1a3 3 0 100 6 3 3 0 000-6z" fill="#5e9c76"></path></g><g><circle cx="7" cy="17" r="2.5" fill="#fff"></circle><path d="M7 15c1.103 0 2 .897 2 2s-.897 2-2 2-2-.897-2-2 .897-2 2-2m0-1a3 3 0 100 6 3 3 0 000-6z" fill="#5e9c76"></path></g></svg>