<svg viewBox="0 0 40 40" xmlns="http://www.w3.org/2000/svg"><path d="M20 37.5c-5.477 0-9.787-1.558-12.81-4.629-4.747-4.823-4.691-11.793-4.69-11.863V15.36l2.947-.982.047-.301C5.575 13.563 7.617 1.5 20 1.5s14.425 12.063 14.506 12.577l.047.301 2.947.982V21c.001.078.047 7.064-4.697 11.878C29.78 35.945 25.473 37.5 20 37.5z" fill="#f7a3a3"></path><path d="M20 2c11.941 0 13.933 11.659 14.012 12.154l.094.602.578.193 2.316.772v5.294c.001.068.036 6.863-4.56 11.519C29.515 35.497 25.329 37 20 37s-9.515-1.503-12.44-4.466C2.964 27.877 2.999 21.083 3 21v-5.279l2.316-.772.578-.193.094-.602C6.065 13.658 8.021 2 20 2m0-1C7.027 1 5 14 5 14l-3 1v6s-.272 17 18 17 18-17 18-17v-6l-3-1S32.973 1 20 1z" fill="#c74343"></path><path d="M20 29c-1.654 0-3 1.346-3 3v3c0 1.654 1.346 3 3 3s3-1.346 3-3v-3c0-1.654-1.346-3-3-3z" fill="#c74343"></path><path d="M35.5 20.5v-7h3v7h-3zm-34 0v-7h3v7h-3z" fill="#f78f8f"></path><path d="M38 14v6h-2v-6h2M4 14v6H2v-6h2m35-1h-4v8h4v-8zM5 13H1v8h4v-8z" fill="#c74343"></path><path fill="#8bb7f0" d="M2.5 21.5h2v5h-2z"></path><path d="M4 22v4H3v-4h1m1-1H2v6h3v-6z" fill="#4e7ab5"></path><path fill="#8bb7f0" d="M35.5 21.5h2v5h-2z"></path><path d="M37 22v4h-1v-4h1m1-1h-3v6h3v-6z" fill="#4e7ab5"></path><path fill="#839cb2" d="M24.309 27.5l-3-6h-2.618l-3 6h-3.353l-2-5H8.732l-2 3H5.5v-3h.838l2-5h2.324l2 5h2.647l3-6h3.382l3 6h2.647l2-5h2.324l2 5h.838v3h-1.232l-2-3h-1.606l-2 5z"></path><path d="M21.382 17l2.724 5.447.276.553h3.295l.251-.629L29.677 18h1.646l1.749 4.371.251.629H34v2h-.465l-1.703-2.555-.297-.445h-2.212l-.251.629L27.323 27h-2.705l-2.724-5.447-.276-.553H18.382l-.276.553L15.382 27h-2.705l-1.749-4.371-.251-.629H8.465l-.297.445L6.465 25H6v-2h.677l.251-.629L8.677 18h1.646l1.749 4.371.251.629h3.295l.276-.553L18.618 17h2.764M22 16h-4l-3 6h-2l-2-5H8l-2 5H5v4h2l2-3h1l2 5h4l3-6h2l3 6h4l2-5h1l2 3h2v-4h-1l-2-5h-3l-2 5h-2l-3-6z" fill="#66798f"></path><path d="M23.207 11.5l-2-2h3l2.856-2.856L29.5 8.268v1.525L27.793 11.5h-4.586zm-11.089 0l-1.618-.809V8.268l2.437-1.624L15.793 9.5h3l-2 2h-4.675z" fill="#fff"></path><path d="M27.127 7.287L29 8.535v1.051L27.586 11h-4.172l-1-1h2l.293-.293 2.42-2.42m-14.254 0l2.42 2.42.293.293h2l-1 1h-4.35L11 10.382V8.535l1.873-1.248M27 6l-3 3h-8l-3-3-3 2v3l2 1h5l2-2h2l2 2h5l2-2V8l-3-2z" fill="#66798f"></path><path d="M23.207 11.5l-2-2h3l2.856-2.856L29.5 8.268v1.525L27.793 11.5h-4.586zm-11.089 0l-1.618-.809V8.268l2.437-1.624L15.793 9.5h3l-2 2h-4.675z" fill="#fff"></path><path d="M27.127 7.287L29 8.535v1.051L27.586 11h-4.172l-1-1h2l.293-.293 2.42-2.42m-14.254 0l2.42 2.42.293.293h2l-1 1h-4.35L11 10.382V8.535l1.873-1.248M27 6l-3 3h-8l-3-3-3 2v3l2 1h5l2-2h2l2 2h5l2-2V8l-3-2z" fill="#66798f"></path><g><circle cx="20" cy="29" r="1.5" fill="#c2e8ff"></circle><path d="M20 28a1 1 0 110 2 1 1 0 010-2m0-1c-1.103 0-2 .897-2 2s.897 2 2 2 2-.897 2-2-.897-2-2-2z" fill="#c74343"></path></g><g><path d="M20 31c.551 0 1 .449 1 1v3c0 .551-.449 1-1 1s-1-.449-1-1v-3c0-.551.449-1 1-1m0-1c-1.103 0-2 .897-2 2v3c0 1.103.897 2 2 2s2-.897 2-2v-3c0-1.103-.897-2-2-2z" fill="#c2e8ff"></path></g><path fill="#8bb7f0" d="M3 22h2v4H3zM35 22h2v4h-2z"></path><path d="M26 10a1 1 0 001-1 .992.992 0 00-.655-.93L25.07 9.345c.141.381.5.655.93.655zM14 10a1 1 0 01-1-1c0-.43.274-.789.655-.93l1.275 1.275A.992.992 0 0114 10z" fill="#f5c276"></path></svg>