<svg viewBox="0 0 40 40" xmlns="http://www.w3.org/2000/svg"><path fill="#fff" d="M2.5 37.5v-35h35v28h-14v7z"></path><path d="M37 3v27H23v7H3V3h34m1-1H2v36h22v-7h14V2z" fill="#788b9c"></path><path fill="#c5d4de" d="M23 31H3v-1h20zM30 24H3v-1h27zM30 17H3v-1h27zM30 10H3V9h27z"></path><path fill="#c5d4de" d="M9 37V3h1v34zM16 37V3h1v34zM23 30V3h1v27zM30 31V3h1v28z"></path><path fill="#f78f8f" d="M30.5 23.5h7v7h-7z"></path><path d="M37 24v6h-6v-6h6m1-1h-8v8h8v-8z" fill="#c74343"></path><path fill="#f78f8f" d="M30.5 16.5h7v7h-7z"></path><path d="M37 17v6h-6v-6h6m1-1h-8v8h8v-8z" fill="#c74343"></path><g><path fill="#f78f8f" d="M30.5 9.5h7v7h-7z"></path><path d="M37 10v6h-6v-6h6m1-1h-8v8h8V9z" fill="#c74343"></path></g><g><path fill="#f78f8f" d="M30.5 2.5h7v7h-7z"></path><path d="M37 3v6h-6V3h6m1-1h-8v8h8V2z" fill="#c74343"></path></g></svg>