<svg viewBox="0 0 40 40" xmlns="http://www.w3.org/2000/svg"><path fill="#dcd5f2" d="M15.152 27.5l2.453-16.266-.911-2.734h6.612l-.911 2.734L24.848 27.5z"></path><path d="M22.613 9l-.654 1.962-.076.228.036.237L24.266 27h-8.533l2.348-15.572.036-.237-.076-.228L17.387 9h5.226M24 8h-8l1.093 3.279L14.571 28h10.857l-2.521-16.721L24 8z" fill="#8b75a1"></path><path fill="#b6c9d6" d="M10.5 27.5h19v8h-19z"></path><path d="M29 28v7H11v-7h18m1-1H10v9h20v-9z" fill="#788b9c"></path><path fill="#b6c9d6" d="M8.5 35.5h23v3h-23z"></path><path d="M31 36v2H9v-2h22m1-1H8v4h24v-4z" fill="#788b9c"></path><g><circle cx="20" cy="4" r="2.5" fill="#dcd5f2"></circle><path d="M20 2c1.103 0 2 .897 2 2s-.897 2-2 2-2-.897-2-2 .897-2 2-2m0-1a3 3 0 100 6 3 3 0 000-6z" fill="#8b75a1"></path></g><g><path d="M17.5 8.5V7a.5.5 0 01.5-.5h4a.5.5 0 01.5.5v1.5h-5z" fill="#dcd5f2"></path><path d="M22 7v1h-4V7h4m0-1h-4a1 1 0 00-1 1v2h6V7a1 1 0 00-1-1z" fill="#8b75a1"></path></g><path fill="none" stroke="#8b75a1" stroke-linecap="round" stroke-miterlimit="10" d="M16 8.5h8"></path></svg>