<svg viewBox="0 0 40 40" xmlns="http://www.w3.org/2000/svg"><path d="M20 38.5C9.799 38.5 1.5 30.201 1.5 20A18.47 18.47 0 015.791 8.181c.37.208.786.319 1.209.319 1.378 0 2.5-1.121 2.5-2.5 0-.363-.08-.718-.232-1.044A18.309 18.309 0 0120 1.5c10.201 0 18.5 8.299 18.5 18.5 0 2.589-.541 5.111-1.607 7.502A2.504 2.504 0 0034.5 30c0 .391.091.77.265 1.115C31.273 35.745 25.778 38.5 20 38.5z" fill="#e1ebf2"></path><path d="M20 2c9.925 0 18 8.075 18 18 0 2.422-.487 4.785-1.448 7.033A3.005 3.005 0 0034 30c0 .36.064.712.189 1.045C30.784 35.411 25.525 38 20 38c-9.925 0-18-8.075-18-18 0-4.069 1.391-8.016 3.932-11.201C6.272 8.931 6.634 9 7 9c1.654 0 3-1.346 3-3 0-.293-.043-.581-.127-.858A17.809 17.809 0 0120 2m0-1c-4.28 0-8.216 1.432-11.392 3.82C8.851 5.152 9 5.557 9 6a2 2 0 01-2 2c-.497 0-.946-.188-1.296-.488C2.783 10.853 1 15.214 1 20c0 10.493 8.507 19 19 19 6.324 0 11.911-3.102 15.364-7.854A2 2 0 0137 28c.07 0 .137.014.206.021A18.903 18.903 0 0039 20C39 9.507 30.493 1 20 1z" fill="#a3b7cc"></path><circle cx="13.5" cy="27.5" r="3" fill="#b0c1d4"></circle><path d="M13.5 25c1.378 0 2.5 1.121 2.5 2.5S14.878 30 13.5 30 11 28.879 11 27.5s1.122-2.5 2.5-2.5m0-1a3.5 3.5 0 100 7 3.5 3.5 0 000-7z" fill="#a3b7cc"></path><circle cx="22" cy="17" r="2.5" fill="#b0c1d4"></circle><path d="M22 15c1.103 0 2 .897 2 2s-.897 2-2 2-2-.897-2-2 .897-2 2-2m0-1a3 3 0 100 6 3 3 0 000-6z" fill="#a3b7cc"></path><g><circle cx="11" cy="14" r="1.5" fill="#b0c1d4"></circle><path d="M11 13c.551 0 1 .449 1 1s-.449 1-1 1-1-.449-1-1 .449-1 1-1m0-1a2 2 0 10-.001 3.999A2 2 0 0011 12z" fill="#a3b7cc"></path></g><path d="M35 30a2 2 0 012-2c.07 0 .136.014.205.021A18.894 18.894 0 0039 19.998c0-10.493-8.507-19-19-19-2.237 0-4.375.407-6.369 1.117 5.928.651 10.974 4.187 13.743 9.164.34-.172.719-.279 1.126-.279a2.493 2.493 0 01.658 4.901c.085.366.158.737.223 1.111.04-.003.078-.012.119-.012a1.5 1.5 0 011.5 1.5c0 .778-.595 1.411-1.354 1.485V20c0 9.267-7.005 16.891-16.007 17.884a18.932 18.932 0 006.36 1.114c6.323 0 11.91-3.102 15.363-7.853A1.998 1.998 0 0135 30z" fill="#a3b7cc"></path></svg>