<svg viewBox="0 0 40 40" xmlns="http://www.w3.org/2000/svg"><path d="M20 23.5c-1.93 0-3.5-1.57-3.5-3.5s1.57-3.5 3.5-3.5 3.5 1.57 3.5 3.5-1.57 3.5-3.5 3.5z" fill="#8bb7f0"></path><path d="M20 17c1.654 0 3 1.346 3 3s-1.346 3-3 3-3-1.346-3-3 1.346-3 3-3m0-1a4 4 0 100 8 4 4 0 000-8z" fill="#4e7ab5"></path><path d="M35 23.5c-1.93 0-3.5-1.57-3.5-3.5s1.57-3.5 3.5-3.5 3.5 1.57 3.5 3.5-1.57 3.5-3.5 3.5z" fill="#8bb7f0"></path><path d="M35 17c1.654 0 3 1.346 3 3s-1.346 3-3 3-3-1.346-3-3 1.346-3 3-3m0-1a4 4 0 100 8 4 4 0 000-8z" fill="#4e7ab5"></path><g><path d="M5 23.5c-1.93 0-3.5-1.57-3.5-3.5s1.57-3.5 3.5-3.5 3.5 1.57 3.5 3.5-1.57 3.5-3.5 3.5z" fill="#8bb7f0"></path><path d="M5 17c1.654 0 3 1.346 3 3s-1.346 3-3 3-3-1.346-3-3 1.346-3 3-3m0-1a4 4 0 100 8 4 4 0 000-8z" fill="#4e7ab5"></path></g></svg>