<svg viewBox="0 0 40 40" xmlns="http://www.w3.org/2000/svg"><path d="M11 36H3a2 2 0 00-2 2v2h1a1 1 0 011-1h8a1 1 0 011 1h1v-2a2 2 0 00-2-2z" fill="#735f63"></path><path fill="#bae0bd" d="M27.632 19.316l2.044-.681 5.775 18.287-1.3 1.95z"></path><path d="M29.352 19.27l5.55 17.574-.6.9-6.037-18.112 1.087-.362M30 18l-3 1 7 21 2-3-6-19z" fill="#5e9c76"></path><path d="M24 20.5a.5.5 0 01-.5-.5v-2a.5.5 0 01.5-.5h7a.5.5 0 01.5.5v2a.5.5 0 01-.5.5h-7z" fill="#f5ce85"></path><path d="M31 18v2h-7v-2h7m0-1h-7c-.55 0-1 .45-1 1v2c0 .55.45 1 1 1h7c.55 0 1-.45 1-1v-2c0-.55-.45-1-1-1z" fill="#ba9b48"></path><path d="M20.299 18.885l7.586-7.586a.999.999 0 011.414 0l2.402 2.402a.999.999 0 010 1.414l-7.586 7.586a.999.999 0 01-1.414 0l-2.402-2.402a1 1 0 010-1.414z" fill="#735f63"></path><path fill="#bae0bd" d="M5.707 29L33 1.707 37.792 6.5 10.5 33.793z"></path><path d="M33 2.414L37.086 6.5 10.5 33.086 6.414 29 33 2.414M33 1L5 29l5.5 5.5 28-28L33 1z" fill="#5e9c76"></path><path fill="#bae0bd" d="M14.707 21l.293-.293 4.068 4.069-.292.293z"></path><path fill="#5e9c76" d="M15 20l-1 1 4.776 4.776 1-1L15 20z"></path><g><path fill="#bae0bd" d="M29.43 5.724l.294-.292L33.792 9.5l-.293.293z"></path><path fill="#5e9c76" d="M29.724 4.724l-1 1L33.5 10.5l1-1-4.776-4.776z"></path></g><g><path d="M4.963 35.5a1.048 1.048 0 01-.74-1.787c.162-.161.572-.359.934-.533.763-.367 1.484-.714 1.592-1.348.037-.22.008-.554-.339-.9-.547-.548-.312-.923-.045-1.189l2.351-2.33 3.375 3.384-2.325 2.309c-.209.209-.41.314-.595.314-.181 0-.373-.101-.572-.3-.238-.238-.499-.358-.775-.358-.73 0-1.164.8-1.582 1.573-.187.345-.379.701-.538.859a1.04 1.04 0 01-.741.306z" fill="#f5ce85"></path><path d="M8.714 28.118l2.669 2.676-1.972 1.957c-.138.138-.224.167-.24.167-.014-.001-.094-.028-.218-.153-.417-.417-.844-.505-1.129-.505a1.47 1.47 0 00-.829.256 1.46 1.46 0 00.248-.601c.047-.274.047-.813-.478-1.338-.143-.143-.182-.243-.184-.277-.001-.018.023-.091.135-.203l1.998-1.979M6.451 33.04c-.255.326-.462.709-.65 1.056-.145.269-.345.637-.451.744a.546.546 0 11-.773-.773c.107-.104.539-.312.797-.436.375-.181.756-.364 1.077-.591m2.267-6.334l-2.706 2.682c-.604.604-.559 1.293.046 1.897.92.92-1.525 1.411-2.188 2.074a1.548 1.548 0 002.188 2.188c.556-.556 1.071-2.286 1.766-2.286.133 0 .273.064.422.212.299.299.612.446.925.446.321 0 .642-.155.947-.46l2.681-2.661-4.081-4.092z" fill="#ba9b48"></path></g><path d="M31.5 36h5c.275 0 .5.225.5.5s-.225.5-.5.5h-5a.501.501 0 01-.5-.5c0-.275.225-.5.5-.5z" fill="#ba9b48"></path></svg>