<svg viewBox="0 0 40 40" xmlns="http://www.w3.org/2000/svg"><path d="M36 8.5c-1.742 0-3.5-.729-3.5-2.357 0-1.087 2.029-3.215 3.5-4.487 1.471 1.272 3.5 3.4 3.5 4.487C39.5 7.771 37.742 8.5 36 8.5z" fill="#8bb7f0"></path><path d="M36 2.32c1.545 1.389 3 3.102 3 3.822C39 7.426 37.493 8 36 8s-3-.574-3-1.857c0-.719 1.455-2.432 3-3.823M36 1s-4 3.302-4 5.143S33.791 9 36 9s4-1.016 4-2.857S36 1 36 1z" fill="#4e7ab5"></path><path fill="#dbf2ff" d="M33.5 8.5h5v15h-5z"></path><path d="M38 9v14h-4V9h4m1-1h-6v16h6V8z" fill="#7496c4"></path><path fill="#dbf2ff" d="M1.5 23.5h37v15h-37z"></path><path d="M38 24v14H2V24h36m1-1H1v16h38V23z" fill="#7496c4"></path><path fill="none" stroke="#4e7ab5" stroke-linecap="round" stroke-miterlimit="10" d="M33 8.5h6"></path><path d="M4 8.5C2.258 8.5.5 7.771.5 6.143.5 5.056 2.529 2.928 4 1.656c1.471 1.272 3.5 3.4 3.5 4.487C7.5 7.771 5.742 8.5 4 8.5z" fill="#8bb7f0"></path><path d="M4 2.32c1.545 1.389 3 3.102 3 3.822C7 7.426 5.493 8 4 8s-3-.574-3-1.857c0-.719 1.455-2.432 3-3.823M4 1S0 4.302 0 6.143 1.791 9 4 9s4-1.016 4-2.857S4 1 4 1z" fill="#4e7ab5"></path><path fill="#dbf2ff" d="M1.5 8.5h5v15h-5z"></path><path d="M6 9v14H2V9h4m1-1H1v16h6V8z" fill="#7496c4"></path><path fill="none" stroke="#4e7ab5" stroke-linecap="round" stroke-miterlimit="10" d="M1 8.5h6"></path><path d="M20 17.5c-5.005 0-8.5-3.104-8.5-7.55 0-4.221 7.195-7.788 8.5-8.4 1.305.612 8.5 4.18 8.5 8.4 0 4.446-3.495 7.55-8.5 7.55z" fill="#8bb7f0"></path><path d="M20 2.099c2.562 1.207 8 4.473 8 7.851 0 4.151-3.29 7.05-8 7.05s-8-2.899-8-7.05c0-3.371 5.439-6.641 8-7.851M20 1s-9 3.948-9 8.95S15.029 18 20 18s9-3.047 9-8.05S20 1 20 1z" fill="#4e7ab5"></path><path fill="#dbf2ff" d="M12.5 15.5h15v23h-15z"></path><path d="M27 16v22H13V16h14m1-1H12v24h16V15z" fill="#7496c4"></path><g><path d="M17 21v2h6v-2a3 3 0 10-6 0z" fill="#7496c4"></path></g><g><path d="M25 21v2h3v-5a3 3 0 00-3 3z" fill="#7496c4"></path></g><g><path d="M15 21v2h-3v-5a3 3 0 013 3z" fill="#7496c4"></path></g><g><path d="M16 32.333V39h8v-6.667C24 30.124 20 27 20 27s-4 3.124-4 5.333z" fill="#7496c4"></path></g><g><path d="M31 33.194V39h4v-5.806C35 32.125 33 31 33 31s-2 1.125-2 2.194z" fill="#7496c4"></path></g><g><path d="M5 33.194V39h4v-5.806C9 32.125 7 31 7 31s-2 1.125-2 2.194z" fill="#7496c4"></path></g></svg>