<svg viewBox="0 0 40 40" xmlns="http://www.w3.org/2000/svg"><path d="M3 25.5c-.827 0-1.5-.673-1.5-1.5v-8.541a.96.96 0 01.959-.959H4.5V24c0 .827-.673 1.5-1.5 1.5z" fill="#f5ce85"></path><path d="M4 15v9c0 .551-.449 1-1 1s-1-.449-1-1v-8.541A.46.46 0 012.459 15H4m1-1H2.459C1.653 14 1 14.653 1 15.459V24a2 2 0 104 0V14z" fill="#967a44"></path><path d="M13 25.5c-.827 0-1.5-.673-1.5-1.5v-9.5h2.041a.96.96 0 01.959.959V24c0 .827-.673 1.5-1.5 1.5z" fill="#f5ce85"></path><path d="M13.541 15a.46.46 0 01.459.459V24c0 .551-.449 1-1 1s-1-.449-1-1v-9h1.541m0-1H11v10a2 2 0 104 0v-8.541c0-.806-.653-1.459-1.459-1.459z" fill="#967a44"></path><path fill="#f5ce85" d="M5.801 38.5l-1.266-19h6.93l-1.266 19z"></path><path d="M10.931 20l-1.2 18H6.269l-1.2-18h5.862M12 19H4l1.333 20h5.333L12 19z" fill="#967a44"></path><path d="M4.5 25.5v-10h-3V15c0-2.481 2.019-4.5 4.5-4.5h4c2.481 0 4.5 2.019 4.5 4.5v.5h-3v10h-7z" fill="#bae0bd"></path><path d="M10 11c2.206 0 4 1.794 4 4h-3v10H5V15H2c0-2.206 1.794-4 4-4h4m0-1H6a5 5 0 00-5 5v1h3v10h8V16h3v-1a5 5 0 00-5-5z" fill="#5e9c76"></path><path d="M8 28.5c-2.934 0-5.387-.571-6.376-.84l2.748-9.16h7.256l2.748 9.16c-.989.269-3.442.84-6.376.84z" fill="#bae0bd"></path><path d="M11.256 19l2.492 8.307A24.94 24.94 0 018 28c-2.467 0-4.588-.413-5.748-.694L4.744 19h6.512M12 18H4L1 28s3.053 1 7 1 7-1 7-1l-3-10z" fill="#5e9c76"></path><circle cx="8" cy="5" r="3.5" fill="#f5ce85"></circle><path d="M8 2c1.654 0 3 1.346 3 3S9.654 8 8 8 5 6.654 5 5s1.346-3 3-3m0-1a4 4 0 100 8 4 4 0 000-8z" fill="#967a44"></path><circle cx="35" cy="36" r="2.5" fill="#b6c9d6"></circle><path d="M35 34c1.103 0 2 .897 2 2s-.897 2-2 2-2-.897-2-2 .897-2 2-2m0-1a3 3 0 100 6 3 3 0 000-6z" fill="#788b9c"></path><g><circle cx="23" cy="36" r="2.5" fill="#b6c9d6"></circle><path d="M23 34c1.103 0 2 .897 2 2s-.897 2-2 2-2-.897-2-2 .897-2 2-2m0-1a3 3 0 100 6 3 3 0 000-6z" fill="#788b9c"></path></g><g><path fill="none" stroke="#788b9c" stroke-linecap="round" stroke-linejoin="round" stroke-miterlimit="10" d="M35 36l-13-8"></path></g><g><path fill="none" stroke="#788b9c" stroke-linecap="round" stroke-linejoin="round" stroke-miterlimit="10" d="M23 36l13-8"></path></g><g><path d="M22 29.5a2.503 2.503 0 01-2.5-2.5v-1.5h19V27c0 1.379-1.122 2.5-2.5 2.5H22z" fill="#b6c9d6"></path><path d="M38 26v1c0 1.103-.897 2-2 2H22c-1.103 0-2-.897-2-2v-1h18m1-1H19v2a3 3 0 003 3h14a3 3 0 003-3v-2z" fill="#788b9c"></path></g><g><path fill="#f78f8f" d="M19.5 21.5h19v4h-19z"></path><path d="M38 22v3H20v-3h18m1-1H19v5h20v-5z" fill="#c74343"></path></g><g><path d="M27.207 21.5l.19-.19 5.776-9.627C35.822 13.328 38.5 16.555 38.5 21v.5H27.207z" fill="#f78f8f"></path><path d="M33.335 12.386C35.719 14.028 38 16.997 38 21h-9.834l5.169-8.614M33 11l-6 10-1 1h13v-1c0-4.605-2.741-8.175-6-10z" fill="#c74343"></path></g></svg>