<svg viewBox="0 0 40 40" xmlns="http://www.w3.org/2000/svg"><path d="M28.46 14.5a1.476 1.476 0 01-1.474-1.475c0-.864.661-1.525 1.474-1.525h2.04v3h-2.04z" fill="#f78f8f"></path><path d="M30 12v2h-1.54a.975.975 0 01-.974-.974v-.051c0-.537.437-.974.974-.974H30M31 11h-2.54c-1.09 0-1.974.884-1.974 1.974v.051c0 1.09.884 1.974 1.974 1.974H31V11z" fill="#c74343"></path><path d="M32.5 20c3.033 0 5.5 2.467 5.5 5.5S35.533 31 32.5 31 27 28.533 27 25.5s2.467-5.5 5.5-5.5m0-2a7.5 7.5 0 100 15 7.5 7.5 0 000-15z" fill="#c8d1db"></path><path d="M32.5 19c3.584 0 6.5 2.916 6.5 6.5S36.084 32 32.5 32 26 29.084 26 25.5s2.916-6.5 6.5-6.5m0-1a7.5 7.5 0 100 15 7.5 7.5 0 000-15z" fill="#66798f"></path><path d="M7.5 20c3.033 0 5.5 2.467 5.5 5.5S10.533 31 7.5 31 2 28.533 2 25.5 4.467 20 7.5 20m0-2a7.5 7.5 0 100 15 7.5 7.5 0 000-15z" fill="#c8d1db"></path><path d="M7.5 19c3.584 0 6.5 2.916 6.5 6.5S11.084 32 7.5 32 1 29.084 1 25.5 3.916 19 7.5 19m0-1a7.5 7.5 0 100 15 7.5 7.5 0 000-15z" fill="#66798f"></path><path d="M9.361 18.833L6.018 14.5h5.334c.826 0 1.569.459 1.938 1.197l1.568 3.136H9.361z" fill="#f5ce85"></path><path d="M11.352 15c.635 0 1.207.353 1.491.921l1.206 2.412H9.607L7.035 15h4.317m0-1H5l4.115 5.333h6.551l-1.93-3.859A2.665 2.665 0 0011.352 14z" fill="#967a44"></path><circle cx="32.5" cy="25.5" r="2" fill="#66798f"></circle><circle cx="7.5" cy="25.5" r="2" fill="#66798f"></circle><path d="M9.5 24.5V22c0-.057.001-1.517-1.237-2.768-1.097-1.108-2.782-1.689-5.012-1.73L1 14.5h4c2.663 0 3.707 1.005 4.916 2.17.244.234.49.472.753.704l.142.126h6.533l.739-1.71a3.796 3.796 0 013.485-2.29h5.517c.139.6.43 1.77.792 2.767C27.304 18.158 25.142 23.5 19 23.5h-.118l-2 1H9.5z" fill="#f78f8f"></path><path d="M26.689 14c.15.612.382 1.483.659 2.277C26.739 18.196 24.643 23 19 23h-.236l-.211.106-1.789.894H10v-1.99c.002-.176-.021-1.755-1.381-3.13-1.15-1.162-2.868-1.791-5.112-1.872L2 15h3c2.461 0 3.391.896 4.568 2.029.249.239.5.482.768.719l.285.252H17.671l.261-.603.609-1.408A3.295 3.295 0 0121.568 14h5.121m.795-1h-5.917a4.297 4.297 0 00-3.944 2.592L17.014 17H11c-1.592-1.411-2.583-3-6-3H0l3 4c6.042 0 6 4 6 4v3h8l2-1c7.126 0 9.148-6.863 9.402-7.752-.523-1.382-.918-3.248-.918-3.248z" fill="#c74343"></path><path d="M32.5 25.5c-4.935-6.521-5.994-14.579-6.343-17.122C26.089 7.883 25.5 7.5 25 7.5h-4.896" fill="none" stroke="#8b75a1" stroke-linecap="round" stroke-miterlimit="10"></path><path d="M23 7h-3a1 1 0 000 2h2a1 1 0 001-1V7z" fill="#8b75a1"></path><path fill="none" stroke="#c74343" stroke-miterlimit="10" d="M17.5 17v8"></path><g><path d="M4.5 26.5v-2H15c.827 0 1.5-.673 1.5-1.5v-1.5a1.001 1.001 0 012 0V23c0 1.93-1.57 3.5-3.5 3.5H4.5z" fill="#dcd5f2"></path><path d="M17.5 21a.5.5 0 01.5.5V23c0 1.654-1.346 3-3 3H5v-1h10c1.103 0 2-.897 2-2v-1.5a.5.5 0 01.5-.5m0-1a1.5 1.5 0 00-1.5 1.5V23a1 1 0 01-1 1H4v3h11a4 4 0 004-4v-1.5a1.5 1.5 0 00-1.5-1.5z" fill="#8b75a1"></path></g></svg>