<svg viewBox="0 0 40 40" xmlns="http://www.w3.org/2000/svg"><path d="M33.442 38.23c-1.53-1.346-7.52-5.256-28.211-9.178C3.349 26.303 2.5 20.394 2.5 17c0-2.971.792-5.663 2.422-8.232l.165-.26-1.419-2.366C5.157 5.131 10.997 1.5 18 1.5c8.262 0 17.503 6.751 17.503 15.786 0 .372 0 1.503-4.147 1.503-1.079 0-2.208-.068-3.301-.135-.933-.057-1.815-.11-2.538-.11-.737 0-2.271 0-2.271 1.028v.34l.316.125c3.653 1.443 12.464 8.93 13.908 10.168-.124.77-.775 3.505-4.028 8.025z" fill="#ffc49c"></path><path d="M18 2c8.026 0 17.004 6.537 17.004 15.286 0 .873-2.285 1.003-3.648 1.003-1.063 0-2.185-.068-3.27-.134-.941-.057-1.829-.111-2.567-.111-.677 0-1.166.046-1.54.144-1.142.3-1.231 1.136-1.231 1.385v.68l.633.25c3.429 1.354 11.603 8.235 13.546 9.893-.205.94-.947 3.345-3.577 7.103-2.174-1.677-8.771-5.271-27.816-8.897C3.806 25.891 3 20.166 3 17c0-2.873.767-5.478 2.344-7.964l.331-.521-.318-.529-1.015-1.693C6.249 5.061 11.626 2 18 2m0-1C9.632 1 3 6 3 6l1.5 2.5C2.901 11.02 2 13.795 2 17c0 3.549.909 9.736 2.94 12.507C30.215 34.275 33.5 39 33.5 39c4.377-5.92 4.5-9 4.5-9s-10.162-8.812-14.253-10.428c0-.409.702-.529 1.771-.529 1.526 0 3.798.245 5.837.245 2.498 0 4.648-.367 4.648-2.003C36.004 8.291 26.994 1 18 1z" fill="#a16a4a"></path><path d="M30.643 36.431c-4.67-2.518-10.393-4.059-25.351-6.885-1.443-2.118-2.356-6.403-2.67-10.028 17.463 5.408 27.171 13.251 28.797 14.639l-.776 2.274z" fill="#f78f8f"></path><path d="M3.193 20.221c16.155 5.128 25.473 12.302 27.642 14.098l-.476 1.396c-4.612-2.375-10.45-3.912-24.765-6.621-1.226-1.941-2.052-5.651-2.401-8.873m-1.126-1.396C2.3 22.363 3.234 27.59 5 30c16.207 3.057 21.417 4.616 25.923 7.156L32 34S21.982 24.846 2.067 18.825z" fill="#c74343"></path><path d="M18.258 18.571C16.5 17.625 16.5 17.28 16.5 16c-.004-.415.108-1.6.671-2.169.221-.223.492-.331.829-.331h17.742c1.552 2.298 2.947 8.242.875 16.126L18.258 18.571z" fill="#c2e8ff"></path><path d="M35.468 14c1.349 2.242 2.542 7.736.829 14.85L18.474 18.119C17 17.326 17 17.201 17 15.986c-.005-.392.119-1.39.525-1.802.127-.129.269-.184.475-.184h17.468M36 13H18c-2.042 0-2 3-2 3 0 1.467.103 1.979 2 3l18.926 11.396C39.427 21.554 37.586 15.11 36 13z" fill="#4e7ab5"></path><g><circle cx="19" cy="16" r="3.5" fill="#f78f8f"></circle><path d="M19 13c1.654 0 3 1.346 3 3s-1.346 3-3 3-3-1.346-3-3 1.346-3 3-3m0-1a4 4 0 100 8 4 4 0 000-8z" fill="#c74343"></path></g><g><circle cx="19" cy="16" r="1" fill="#c74343"></circle></g></svg>