<svg viewBox="0 0 40 40" xmlns="http://www.w3.org/2000/svg"><path fill="#f5ce85" d="M5.5 1.5h29v37h-29z"></path><path d="M34 2v36H6V2h28m1-1H5v38h30V1z" fill="#967a44"></path><path fill="none" stroke="#66798f" stroke-linecap="round" stroke-miterlimit="10" d="M21.5 4.5v3M18.5 4.5v3"></path><path d="M31.5 19v14a2 2 0 01-2 2h-19a2 2 0 01-2-2V19" fill="none" stroke="#66798f" stroke-miterlimit="10"></path><path fill="none" stroke="#66798f" stroke-linecap="round" stroke-miterlimit="10" d="M21.5 17l-1 4M23.5 17l-1 4M25.5 17l-1 4M27.5 17l-1 4M29.5 17l-1 4M19.5 17l-1 4M17.5 17l-1 4M15.5 17l-1 4M13.5 17l-1 4M11.5 17l-1 4"></path><path fill="#66798f" d="M8 18.5v1h1.663l.249-1zM32 19.5v-1h-1.663l-.249 1z"></path><path d="M20 38.5a4.505 4.505 0 01-4.5-4.5c0-.317.042-.653.129-1.026l.107-.458-.45-.135A2.477 2.477 0 0113.5 30c0-1.378 1.122-2.5 2.5-2.5 1.104 0 2.061.718 2.381 1.786l.135.45.458-.107c.373-.087.709-.129 1.026-.129s.653.042 1.026.129l.458.107.135-.45A2.477 2.477 0 0124 27.5c1.378 0 2.5 1.122 2.5 2.5a2.477 2.477 0 01-1.786 2.381l-.45.135.107.458c.087.373.129.709.129 1.026 0 2.481-2.019 4.5-4.5 4.5z" fill="#b0c1d4"></path><path d="M24 28c1.103 0 2 .897 2 2 0 .882-.575 1.646-1.43 1.903l-.901.27.214.916c.079.333.117.632.117.911 0 2.206-1.794 4-4 4s-4-1.794-4-4c0-.279.038-.578.116-.912l.214-.916-.901-.27A1.98 1.98 0 0114 30c0-1.103.897-2 2-2 .882 0 1.646.575 1.903 1.43l.27.901.916-.214c.333-.079.632-.117.911-.117s.578.038.912.116l.916.214.27-.901A1.98 1.98 0 0124 28m0-1a2.99 2.99 0 00-2.861 2.142C20.772 29.056 20.394 29 20 29s-.772.056-1.139.142A2.99 2.99 0 0016 27a3 3 0 00-3 3 2.99 2.99 0 002.142 2.861A4.968 4.968 0 0015 34a5 5 0 0010 0c0-.394-.056-.772-.142-1.139A2.99 2.99 0 0027 30a3 3 0 00-3-3z" fill="#66798f"></path><g><circle cx="20" cy="35" r="1" fill="#66798f"></circle></g></svg>