<svg viewBox="0 0 40 40" xmlns="http://www.w3.org/2000/svg"><path d="M9.5 19.5V13A9.51 9.51 0 0119 3.5h4a9.51 9.51 0 019.5 9.5v6.5z" fill="#e1ebf2"></path><path d="M23 4a9 9 0 019 9v6H10v-6a9 9 0 019-9h4m0-1h-4A10 10 0 009 13v7h24v-7A10 10 0 0023 3z" fill="#a3b7cc"></path><path d="M19 37.5A9.51 9.51 0 019.5 28v-9.5h23V28a9.51 9.51 0 01-9.5 9.5z" fill="#b0c1d4"></path><path d="M32 19v9a9 9 0 01-9 9h-4a9 9 0 01-9-9v-9h22m1-1H9v10a10 10 0 0010 10h4a10 10 0 0010-10V18z" fill="#66798f"></path><path fill="#ab3434" d="M20 6.03h2v8.99h-2z"></path><path fill="#ab3434" d="M21 4.04l-3 3.98h6l-3-3.98zM21 18l-3-3.98h6L21 18z"></path></svg>