<svg viewBox="0 0 40 40" xmlns="http://www.w3.org/2000/svg"><path d="M9.5 20.5V14A9.51 9.51 0 0119 4.5h4a9.51 9.51 0 019.5 9.5v6.5z" fill="#e1ebf2"></path><path d="M23 5a9 9 0 019 9v6H10v-6a9 9 0 019-9h4m0-1h-4A10 10 0 009 14v7h24v-7A10 10 0 0023 4z" fill="#a3b7cc"></path><path fill="#5e9c76" d="M20 4h2v17h-2z"></path><path d="M9.5 20.5V14A9.51 9.51 0 0119 4.5h1.5v16z" fill="#bae0bd"></path><path d="M20 5v15H10v-6a9 9 0 019-9h1m1-1h-2A10 10 0 009 14v7h12V4z" fill="#5e9c76"></path><path d="M19 38.5A9.51 9.51 0 019.5 29v-9.5h23V29a9.51 9.51 0 01-9.5 9.5z" fill="#b0c1d4"></path><path d="M32 20v9a9 9 0 01-9 9h-4a9 9 0 01-9-9v-9h22m1-1H9v10a10 10 0 0010 10h4a10 10 0 0010-10V19z" fill="#66798f"></path><rect x="19" y="7" width="4" height="10" rx="1.5" ry="1.5" fill="#66798f"/><path d="M15 1C9.6 1 5 5.28 5 12" fill="none" stroke="#5e9c76" stroke-miterlimit="10" stroke-width="2"></path></svg>