<svg viewBox="0 0 40 40" xmlns="http://www.w3.org/2000/svg"><path fill="#f5ce85" d="M5.5 1.5h29v37h-29z"></path><path d="M34 2v36H6V2h28m1-1H5v38h30V1z" fill="#967a44"></path><path d="M10.5 38.5v-12h11.05c.232 1.14 1.242 2 2.45 2s2.217-.86 2.45-2h3.05v12h-19z" fill="#ffeea3"></path><path d="M29 27v11H11V27h10.171c.413 1.164 1.525 2 2.829 2s2.416-.836 2.829-2H29m1-1h-4a2 2 0 11-4 0H10v13h20V26z" fill="#ba9b48"></path><path fill="none" stroke="#66798f" stroke-linecap="round" stroke-miterlimit="10" d="M21.5 4.5v3M18.5 4.5v3"></path><path d="M8.5 21V7a2 2 0 012-2h19a2 2 0 012 2v14" fill="none" stroke="#66798f" stroke-miterlimit="10"></path><path fill="none" stroke="#66798f" stroke-linecap="round" stroke-miterlimit="10" d="M18.5 23l1-4M16.5 23l1-4M14.5 23l1-4M12.5 23l1-4M10.5 23l1-4M20.5 23l1-4M22.5 23l1-4M24.5 23l1-4M26.5 23l1-4M28.5 23l1-4"></path><path fill="#66798f" d="M32 21.5v-1h-1.663l-.249 1zM8 20.5v1h1.663l.249-1z"></path><circle cx="16" cy="32" r="2" fill="#ba9b48"></circle><circle cx="24" cy="34.5" r="1.5" fill="#ba9b48"></circle></svg>