<svg viewBox="0 0 40 40" xmlns="http://www.w3.org/2000/svg"><path d="M19 4c0-1.46 1-3 4-3 4.89 0 7.71 2.37 9 5 1.61 3.29 1.44 7 7 7" fill="none" stroke="#66798f" stroke-miterlimit="10" stroke-width="2"></path><path d="M7.5 20.5V14A9.51 9.51 0 0117 4.5h4a9.51 9.51 0 019.5 9.5v6.5z" fill="#e1ebf2"></path><path d="M21 5a9 9 0 019 9v6H8v-6a9 9 0 019-9h4m0-1h-4A10 10 0 007 14v7h24v-7A10 10 0 0021 4z" fill="#a3b7cc"></path><path fill="#e1ebf2" d="M18.5 4.5h1v16h-1z"></path><path d="M20 4h-2v17h2V4z" fill="#a3b7cc"></path><path d="M17 38.5A9.51 9.51 0 017.5 29v-9.5h23V29a9.51 9.51 0 01-9.5 9.5z" fill="#b0c1d4"></path><path d="M30 20v9a9 9 0 01-9 9h-4a9 9 0 01-9-9v-9h22m1-1H7v10a10 10 0 0010 10h4a10 10 0 0010-10V19z" fill="#66798f"></path><rect x="17" y="7" width="4" height="10" rx="1.5" ry="1.5" fill="#66798f"/></svg>