<svg viewBox="0 0 40 40" xmlns="http://www.w3.org/2000/svg"><path fill="#f78f8f" d="M6.5 37.5v-35h18.293l8.707 8.707V37.5z"></path><path d="M24.586 3L33 11.414V37H7V3h17.586M25 2H6v36h28V11l-9-9z" fill="#c74343"></path><path fill="#fff" d="M24.5 11.5v-9h.293l8.707 8.707v.293z"></path><path d="M25 3.414L32.586 11H25V3.414M25 2h-1v10h10v-1l-9-9z" fill="#c74343"></path><path d="M15.622 23.403a41.073 41.073 0 01-.091-2.898h-.026c-.156.936-.39 2.015-.559 2.69l-.767 3.134h-1.196l-.728-3.081a35.335 35.335 0 01-.546-2.743h-.026c-.026.948-.091 2.054-.13 2.925l-.156 3.042H9.94l.624-8.763h1.807l.702 3.173c.234 1.104.455 2.08.611 3.067h.039c.13-.975.325-1.963.546-3.067l.702-3.173h1.794l.533 8.763h-1.521l-.155-3.069zM24.045 21.935c0 3.302-1.17 4.642-2.834 4.642-1.989 0-2.769-2.106-2.769-4.512 0-2.392.949-4.459 2.899-4.459 2.106-.001 2.704 2.327 2.704 4.329zm-3.835.156c0 1.989.377 3.003 1.066 3.003.728 0 1.001-1.3 1.001-3.081 0-1.534-.234-2.925-1.014-2.925-.676 0-1.053 1.117-1.053 3.003zM26.671 26.472l-1.95-8.763h1.885l.624 3.783c.143.949.325 2.016.442 3.042h.026c.117-1.04.26-2.093.416-3.081l.598-3.744h1.872l-2.002 8.763h-1.911z" fill="#fff"></path></svg>