<svg viewBox="0 0 40 40" xmlns="http://www.w3.org/2000/svg"><path fill="#ffc49c" d="M14.5 15.5h21v14h-21z"></path><path d="M35 16v13H15V16h20m1-1H14v15h22V15z" fill="#a16a4a"></path><path fill="#ffc49c" d="M14.5 1.5h21v14h-21z"></path><path d="M35 2v13H15V2h20m1-1H14v15h22V1z" fill="#a16a4a"></path><path fill="none" stroke="#a16a4a" stroke-linecap="round" stroke-linejoin="round" stroke-miterlimit="10" d="M22.5 4.5h5M22.5 18.5h5"></path><path d="M40 33.5H8.5a3 3 0 01-3-3v-20a3 3 0 00-3-3H2" fill="none" stroke="#66798f" stroke-miterlimit="10"></path><circle cx="13.5" cy="36.5" r="2" fill="#b0c1d4"></circle><path d="M13.5 35c.827 0 1.5.673 1.5 1.5s-.673 1.5-1.5 1.5-1.5-.673-1.5-1.5.673-1.5 1.5-1.5m0-1a2.5 2.5 0 100 5 2.5 2.5 0 000-5z" fill="#66798f"></path><g><circle cx="36.5" cy="36.5" r="2" fill="#b0c1d4"></circle><path d="M36.5 35c.827 0 1.5.673 1.5 1.5s-.673 1.5-1.5 1.5-1.5-.673-1.5-1.5.673-1.5 1.5-1.5m0-1a2.5 2.5 0 100 5 2.5 2.5 0 000-5z" fill="#66798f"></path></g><g><circle cx="2" cy="9" r="1.5" fill="#b0c1d4"></circle><path d="M2 8c.551 0 1 .449 1 1s-.449 1-1 1-1-.449-1-1 .449-1 1-1m0-1a2 2 0 10-.001 3.999A2 2 0 002 7z" fill="#66798f"></path></g><g><path fill="#ffeea3" d="M10.5 30.5h29v3h-29z"></path><path d="M39 31v2H11v-2h28m1-1H10v4h30v-4z" fill="#ba9b48"></path></g></svg>