<svg viewBox="0 0 40 40" xmlns="http://www.w3.org/2000/svg"><path fill="#a1b1bd" d="M3.716 38.529l4.012-10.965-.325-8.026 4.36-3.774-.578 12.525-4.378 10.24z"></path><path d="M11.209 16.904l-.52 11.272-4.212 9.853H4.431l3.732-10.2.068-.186-.008-.198-.31-7.687 3.296-2.854m1.106-2.281l-5.422 4.694.33 8.168L3 39.029h4.137l4.543-10.627.635-13.779z" fill="#788b9c"></path><path d="M19.763 20.686c.22-.742.985-2.453 3.39-2.453.499 0 1.05.072 1.636.216l.281.069.2-.21c.041-.043 1.085-1.091 3.035-1.091 1.284 0 2.663.455 4.104 1.354-.471.933-1.344 3.062-.098 4.049 1.223.919 1.944 1.995 2.098 3.119.115.849-.097 1.712-.614 2.52l-14.032-7.573z" fill="#a6714e"></path><path d="M28.306 17.716c1.076 0 2.235.353 3.455 1.049-.531 1.189-1.113 3.175.261 4.261 1.103.83 1.757 1.791 1.892 2.78.081.591-.027 1.195-.312 1.779l-13.226-7.138c.303-.706 1.041-1.716 2.777-1.716.459 0 .969.068 1.517.202l.556.126.398-.399c.038-.038.962-.944 2.682-.944m0-1c-2.211 0-3.398 1.247-3.398 1.247a7.382 7.382 0 00-1.755-.231c-3.493 0-3.963 3.212-3.963 3.212l14.758 7.965c1.613-2.101 1.319-4.691-1.325-6.682-1.232-.974.446-3.825.446-3.825-1.902-1.279-3.5-1.686-4.763-1.686z" fill="#7a4f34"></path><circle cx="12" cy="5" r="3.5" fill="#f5ce85"></circle><path d="M12 2c1.654 0 3 1.346 3 3s-1.346 3-3 3-3-1.346-3-3 1.346-3 3-3m0-1a4 4 0 100 8 4 4 0 000-8z" fill="#967a44"></path><path fill="#dcd5f2" d="M19.032 27.381l.426-8.531 15.566 9.157-7.128 4.32z"></path><path d="M19.916 19.699l14.133 8.314-6.163 3.736-8.339-4.653.369-7.397M19 18l-.483 9.666 9.39 5.239L36 28 19 18z" fill="#8b75a1"></path><circle cx="33.5" cy="35.5" r="3" fill="#b6c9d6"></circle><path d="M33.5 33c1.379 0 2.5 1.121 2.5 2.5S34.879 38 33.5 38 31 36.879 31 35.5s1.121-2.5 2.5-2.5m0-1a3.5 3.5 0 100 7 3.5 3.5 0 000-7z" fill="#788b9c"></path><g><path d="M13.305 38.489l-1.134-9.064-4.394-5.583c-.854-.766-1.31-1.755-1.31-2.78 0-1.483.678-4.456 1.907-8.369a3.078 3.078 0 012.947-2.163c.918 0 1.782.404 2.37 1.109s.831 1.627.667 2.53l-1.453 7.999 2.23 5.944 1.297 10.377h-3.127z" fill="#b6c9d6"></path><path d="M11.322 11.029c.77 0 1.494.339 1.987.93a2.58 2.58 0 01.559 2.121l-1.429 7.862-.049.272.097.259 2.161 5.758 1.22 9.758h-2.122l-1.061-8.488-.034-.276-.172-.218-4.307-5.474-.056-.071-.068-.06a3.133 3.133 0 01-1.079-2.34c0-1.433.669-4.352 1.885-8.22a2.577 2.577 0 012.468-1.813m0-1a3.585 3.585 0 00-3.423 2.513c-.812 2.585-1.931 6.509-1.931 8.519 0 1.23.555 2.329 1.417 3.089l4.307 5.474 1.171 9.364H17l-1.379-11.032h-.008l-2.19-5.836 1.429-7.862a3.588 3.588 0 00-3.53-4.229z" fill="#788b9c"></path></g><path fill="none" stroke="#8b75a1" stroke-linecap="round" stroke-miterlimit="10" d="M33.5 35.5l-24.992-14"></path><g><path d="M14.911 27.453a1.579 1.579 0 01-1.528-1.223l-2.484-10.979 3.061-.692 2.484 10.979c.092.408.02.829-.203 1.183a1.56 1.56 0 01-1.33.732z" fill="#b6c9d6"></path><path d="M13.581 15.158l2.375 10.49a1.07 1.07 0 01-1.044 1.305c-.493 0-.931-.35-1.04-.833l-2.375-10.49 2.084-.472m.754-1.196l-4.035.913 2.595 11.466a2.07 2.07 0 002.475 1.561 2.069 2.069 0 001.561-2.474l-2.596-11.466z" fill="#788b9c"></path></g><path fill="#b6c9d6" d="M13.893 13.634l-.112 3.27-3.989.81.386-4.156z"></path></svg>