<svg viewBox="0 0 40 40" xmlns="http://www.w3.org/2000/svg"><path fill="#36404d" d="M12.898 39l4.926-8.867h-2.898L10 39z"></path><path fill="#36404d" d="M18.074 30.133L23 39h-2.898l-4.926-8.867z"></path><path d="M10.5 13.5c-3.309 0-6-2.691-6-6s2.691-6 6-6 6 2.691 6 6-2.691 6-6 6z" fill="#839cb2"></path><path d="M10.5 2C13.533 2 16 4.467 16 7.5S13.533 13 10.5 13 5 10.533 5 7.5 7.467 2 10.5 2m0-1a6.5 6.5 0 100 13 6.5 6.5 0 000-13z" fill="#66798f"></path><circle cx="10.5" cy="7.5" r="1.5" fill="#36404d"></circle><path d="M22.5 13.5c-3.309 0-6-2.691-6-6s2.691-6 6-6 6 2.691 6 6-2.691 6-6 6z" fill="#839cb2"></path><path d="M22.5 2C25.533 2 28 4.467 28 7.5S25.533 13 22.5 13 17 10.533 17 7.5 19.467 2 22.5 2m0-1a6.5 6.5 0 100 13 6.5 6.5 0 000-13z" fill="#66798f"></path><circle cx="22.5" cy="7.5" r="1.5" fill="#36404d"></circle><path fill="#b0c1d4" d="M5.5 13.5h22v15h-22z"></path><path d="M27 14v14H6V14h21m1-1H5v16h23V13z" fill="#66798f"></path><g><path fill="#839cb2" d="M11.5 18.5h10v5h-10z"></path><path d="M21 19v4h-9v-4h9m1-1H11v6h11v-6z" fill="#66798f"></path></g><g><path fill="#839cb2" d="M11.5 28.5h10v3h-10z"></path><path d="M21 29v2h-9v-2h9m1-1H11v4h11v-4z" fill="#66798f"></path></g><g><path fill="#839cb2" d="M36.133 26.5l-7-4H27.5v-3h1.633l7-4h.367v11z"></path><path d="M36 16.152v9.697l-6.504-3.716-.23-.133H28v-2h1.266l.231-.132L36 16.152M37 15h-1l-7 4h-2v4h2l7 4h1V15z" fill="#66798f"></path></g></svg>