<svg viewBox="0 0 40 40" xmlns="http://www.w3.org/2000/svg"><path fill="#8bb7f0" d="M1.5 9.5h36v21h-36z"></path><path d="M37 10v20H2V10h35m1-1H1v22h37V9z" fill="#4e7ab5"></path><path d="M37 6v3H2V6h35m1-1H1v5h37V5z" fill="#4e7ab5"></path><path fill="#4e7ab5" d="M5 5h1v5H5zM9 5h1v5H9zM13 5h1v5h-1zM17 5h1v5h-1zM21 5h1v5h-1zM25 5h1v5h-1zM29 5h1v5h-1zM33 5h1v5h-1zM37 31v3H2v-3h35m1-1H1v5h37v-5z"></path><path fill="#4e7ab5" d="M5 30h1v5H5zM9 30h1v5H9zM13 30h1v5h-1zM17 30h1v5h-1zM21 30h1v5h-1zM25 30h1v5h-1zM29 30h1v5h-1zM33 30h1v5h-1z"></path></svg>