<svg viewBox="0 0 40 40" xmlns="http://www.w3.org/2000/svg"><path fill="#dbb065" d="M1.5 35.5v-31h10.293l3 3H38.5v28z"></path><path d="M11.586 5l2.707 2.707.293.293H38v27H2V5h9.586M12 4H1v32h38V7H15l-3-3z" fill="#967a44"></path><path fill="#f5ce85" d="M1.5 35.5v-26h10.651l3-2H38.5v28z"></path><path d="M38 8v27H2V10h10.303l.252-.168L15.303 8H38m1-1H15l-3 2H1v27h38V7z" fill="#967a44"></path><path fill="#8bb7f0" d="M11.5 17.5h18v9h-18z"></path><path d="M29 18v8H12v-8h17m1-1H11v10h19V17z" fill="#4e7ab5"></path><path d="M29 15v2H12v-2h17m1-1H11v4h19v-4z" fill="#4e7ab5"></path><path fill="#4e7ab5" d="M14 14h1v4h-1zM17 14h1v4h-1zM20 14h1v4h-1zM23 14h1v4h-1zM26 14h1v4h-1zM29 27v2H12v-2h17m1-1H11v4h19v-4z"></path><path fill="#4e7ab5" d="M14 26h1v4h-1zM17 26h1v4h-1zM20 26h1v4h-1zM23 26h1v4h-1zM26 26h1v4h-1z"></path></svg>