<svg viewBox="0 0 40 40" xmlns="http://www.w3.org/2000/svg"><path fill="#ffeea3" d="M6.5 37.5v-35h18.293l8.707 8.707V37.5z"></path><path d="M24.586 3L33 11.414V37H7V3h17.586M25 2H6v36h28V11l-9-9z" fill="#ba9b48"></path><path fill="#fff" d="M24.5 11.5v-9h.293l8.707 8.707v.293z"></path><path d="M25 3.414L32.586 11H25V3.414M25 2h-1v10h10v-1l-9-9z" fill="#ba9b48"></path><path d="M16.085 23.457a41.073 41.073 0 01-.091-2.898h-.026c-.156.936-.39 2.015-.559 2.69l-.767 3.134h-1.196l-.728-3.081a35.335 35.335 0 01-.546-2.743h-.026c-.026.948-.091 2.054-.13 2.925l-.156 3.042h-1.456l.624-8.763h1.807l.702 3.173c.234 1.104.455 2.08.611 3.067h.039c.13-.975.325-1.963.546-3.067l.702-3.173h1.794l.533 8.763h-1.521l-.156-3.069zM19.335 17.894a8.905 8.905 0 011.781-.17c1.014 0 1.82.144 2.379.677.52.455.754 1.183.754 1.924 0 .949-.286 1.625-.741 2.106-.546.585-1.417.845-2.132.845-.117 0-.221 0-.338-.013v3.263h-1.703v-8.632zm1.703 3.99c.091.014.182.014.286.014.858 0 1.235-.611 1.235-1.431 0-.767-.312-1.364-1.105-1.364-.156 0-.312.025-.416.064v2.717zM25.393 24.913a2.67 2.67 0 001.261.325c.832 0 1.287-.507 1.287-1.222 0-.937-.728-1.326-1.573-1.34h-.234v-1.248h.169c.624-.013 1.417-.272 1.417-1.092 0-.61-.377-.975-.975-.975-.39 0-.754.13-1.066.338l-.234-1.287c.351-.221 1.04-.442 1.742-.442 1.482 0 2.236.962 2.236 2.041 0 .846-.468 1.548-1.222 1.898v.026c.819.272 1.443 1.014 1.443 2.145 0 1.287-.988 2.549-2.834 2.549-.676 0-1.287-.17-1.651-.378l.234-1.338z" fill="#9e8236"></path></svg>