<svg viewBox="0 0 40 40" xmlns="http://www.w3.org/2000/svg"><path fill="#f78f8f" d="M6.5 37.5v-35h18.293l8.707 8.707V37.5z"></path><path d="M24.586 3L33 11.414V37H7V3h17.586M25 2H6v36h28V11l-9-9z" fill="#c74343"></path><path fill="#fff" d="M24.5 11.5v-9h.293l8.707 8.707v.293z"></path><path d="M25 3.414L32.586 11H25V3.414M25 2h-1v10h10v-1l-9-9z" fill="#c74343"></path><path d="M15.647 23.403a41.073 41.073 0 01-.091-2.898h-.026c-.155.936-.39 2.015-.559 2.69l-.768 3.134h-1.195l-.729-3.081a35.812 35.812 0 01-.546-2.743h-.026c-.025.948-.091 2.054-.13 2.925l-.155 3.042H9.967l.624-8.763h1.807l.702 3.173c.234 1.104.455 2.08.611 3.067h.039c.13-.975.324-1.963.546-3.067l.702-3.173h1.794l.532 8.763h-1.521l-.156-3.069zM18.897 17.84a8.898 8.898 0 011.781-.17c1.014 0 1.819.144 2.379.677.52.455.754 1.183.754 1.924 0 .949-.286 1.625-.741 2.106-.546.585-1.417.845-2.132.845-.117 0-.221 0-.338-.013v3.263h-1.703V17.84zm1.704 3.99c.091.014.182.014.286.014.857 0 1.234-.611 1.234-1.431 0-.767-.312-1.364-1.104-1.364-.156 0-.312.025-.416.064v2.717zM30.025 26.237c-.377.156-1.17.312-1.808.312-1.014 0-1.78-.286-2.353-.871-.754-.729-1.157-2.028-1.131-3.536.039-3.186 1.846-4.512 3.73-4.512.663 0 1.145.131 1.417.261l-.286 1.469c-.26-.13-.585-.195-1.001-.195-1.17 0-2.093.793-2.093 3.068 0 2.106.819 2.873 1.625 2.873.156 0 .273-.013.338-.039v-2.119h-.793v-1.391h2.354v4.68z" fill="#fff"></path></svg>