<svg viewBox="0 0 40 40" xmlns="http://www.w3.org/2000/svg"><path d="M10 38.5c-1.204 0-2.5-.782-2.5-2.5 0-1.289.131-2.425.298-3.862.296-2.564.702-6.075.702-13.138V1.5h4V20c0 2.297 1.868 5.5 4.91 5.5 3.044 0 5.09-2.844 5.09-5.5V1.5h4V21c0 2.691 1.206 4.5 3 4.5 1.681 0 2.845-1.587 2.986-4h1.998c-.217 3.352-2.594 6-5.484 6-1.915 0-3.659-1.151-4.667-3.081l-.396-.757-.467.715c-1.273 1.956-3.506 3.123-5.97 3.123-1.957 0-3.827-.766-5.133-2.1l-.883-.902.025 1.262c.048 2.379.323 4.234.566 5.872.219 1.47.425 2.858.425 4.368 0 1.718-1.296 2.5-2.5 2.5z" fill="#8bb7f0"></path><path d="M26 2v19c0 2.991 1.407 5 3.5 5 1.851 0 3.164-1.57 3.444-4h.986c-.398 2.834-2.457 5-4.931 5-1.725 0-3.303-1.052-4.224-2.813l-.791-1.515-.933 1.432C21.87 25.917 19.795 27 17.5 27c-1.823 0-3.563-.71-4.775-1.949l-1.765-1.804.051 2.524c.048 2.41.326 4.284.571 5.936.224 1.513.418 2.82.418 4.293 0 1.382-1.004 2-2 2s-2-.618-2-2c0-1.26.13-2.383.294-3.805C8.592 29.62 9 26.093 9 19V2h3v18c0 2.838 2.222 6 5.41 6 3.344 0 5.59-3.102 5.59-6V2h3m1-1h-5v19c0 2.44-1.87 5-4.59 5-2.72 0-4.41-2.88-4.41-5V1H8v18c0 11.06-1 13.38-1 17 0 1.94 1.45 3 3 3s3-1.06 3-3c0-3.24-.9-5.76-.99-10.25C13.36 27.13 15.32 28 17.5 28c2.71 0 5.08-1.34 6.39-3.35C24.94 26.66 26.84 28 29 28c3.31 0 6-3.13 6-7h-3c0 2.33-.95 4-2.5 4S27 23.33 27 21V1z" fill="#4e7ab5"></path></svg>