<svg viewBox="0 0 40 40" xmlns="http://www.w3.org/2000/svg"><path d="M14 20.5a2.503 2.503 0 01-2.5-2.5V4c0-1.378 1.121-2.5 2.5-2.5h21c1.379 0 2.5 1.122 2.5 2.5v14c0 1.378-1.121 2.5-2.5 2.5H14z" fill="#a8deff"></path><path d="M35 2c1.103 0 2 .897 2 2v14c0 1.103-.897 2-2 2H14c-1.103 0-2-.897-2-2V4c0-1.103.897-2 2-2h21m0-1H14a3 3 0 00-3 3v14a3 3 0 003 3h21a3 3 0 003-3V4a3 3 0 00-3-3z" fill="#788b9c"></path><path d="M18 22h20a2 2 0 002-2H16a2 2 0 002 2z" fill="#788b9c"></path><path d="M8 32.5c-.827 0-1.5-.673-1.5-1.5V11c0-.827.673-1.5 1.5-1.5h15c.827 0 1.5.673 1.5 1.5v20c0 .827-.673 1.5-1.5 1.5H8z" fill="#dcd5f2"></path><path d="M23 10c.551 0 1 .449 1 1v20c0 .551-.449 1-1 1H8c-.551 0-1-.449-1-1V11c0-.551.449-1 1-1h15m0-1H8a2 2 0 00-2 2v20a2 2 0 002 2h15a2 2 0 002-2V11a2 2 0 00-2-2z" fill="#8b75a1"></path><path fill="#f2faff" d="M8.5 11.5h14v19h-14z"></path><path d="M22 12v18H9V12h13m1-1H8v20h15V11z" fill="#8b75a1"></path><g><path d="M2.5 38.5c-.552 0-1-.449-1-1v-17c0-.551.448-1 1-1h9c.552 0 1 .449 1 1v17c0 .551-.448 1-1 1h-9z" fill="#ffc49c"></path><path d="M11.5 20a.5.5 0 01.5.5v17a.5.5 0 01-.5.5h-9a.5.5 0 01-.5-.5v-17a.5.5 0 01.5-.5h9m0-1h-9A1.5 1.5 0 001 20.5v17A1.5 1.5 0 002.5 39h9a1.5 1.5 0 001.5-1.5v-17a1.5 1.5 0 00-1.5-1.5z" fill="#a16a4a"></path></g><g><path fill="#f2faff" d="M1.5 22.5h11v13h-11z"></path><path d="M12 23v12H2V23h10m1-1H1v14h12V22z" fill="#a16a4a"></path></g></svg>