<svg viewBox="0 0 40 40" xmlns="http://www.w3.org/2000/svg"><path d="M24.5 26.5c-.552 0-1-.449-1-1v-23c0-.551.448-1 1-1h13c.552 0 1 .449 1 1v23c0 .551-.448 1-1 1h-13z" fill="#b0c1d4"></path><path d="M37.5 2a.5.5 0 01.5.5v23a.5.5 0 01-.5.5h-13a.5.5 0 01-.5-.5v-23a.5.5 0 01.5-.5h13m0-1h-13A1.5 1.5 0 0023 2.5v23a1.5 1.5 0 001.5 1.5h13a1.5 1.5 0 001.5-1.5v-23A1.5 1.5 0 0037.5 1z" fill="#66798f"></path><path fill="#f2faff" d="M23.5 4.5h15v19h-15z"></path><path d="M38 5v18H24V5h14m1-1H23v20h16V4z" fill="#66798f"></path><path d="M13.5 32.5c-.552 0-1-.449-1-1v-23c0-.551.448-1 1-1h13c.552 0 1 .449 1 1v23c0 .551-.448 1-1 1h-13z" fill="#dcd5f2"></path><path d="M26.5 8a.5.5 0 01.5.5v23a.5.5 0 01-.5.5h-13a.5.5 0 01-.5-.5v-23a.5.5 0 01.5-.5h13m0-1h-13A1.5 1.5 0 0012 8.5v23a1.5 1.5 0 001.5 1.5h13a1.5 1.5 0 001.5-1.5v-23A1.5 1.5 0 0026.5 7z" fill="#8b75a1"></path><g><path fill="#f2faff" d="M12.5 10.5h15v19h-15z"></path><path d="M27 11v18H13V11h14m1-1H12v20h16V10z" fill="#8b75a1"></path></g><g><path d="M2.5 38.5c-.552 0-1-.449-1-1v-23c0-.551.448-1 1-1h13c.552 0 1 .449 1 1v23c0 .551-.448 1-1 1h-13z" fill="#ffc49c"></path><path d="M15.5 14a.5.5 0 01.5.5v23a.5.5 0 01-.5.5h-13a.5.5 0 01-.5-.5v-23a.5.5 0 01.5-.5h13m0-1h-13A1.5 1.5 0 001 14.5v23A1.5 1.5 0 002.5 39h13a1.5 1.5 0 001.5-1.5v-23a1.5 1.5 0 00-1.5-1.5z" fill="#a16a4a"></path></g><g><path fill="#f2faff" d="M1.5 16.5h15v19h-15z"></path><path d="M16 17v18H2V17h14m1-1H1v20h16V16z" fill="#a16a4a"></path></g></svg>