<svg viewBox="0 0 40 40" xmlns="http://www.w3.org/2000/svg"><path d="M35.312 35.5H17.5a7 7 0 01-7-7v-10a5 5 0 015-5h19.812" fill="none" stroke="#a3b7cc" stroke-miterlimit="10"></path><path d="M35.312 26.562H15.5c-2.761 0-5-2.345-5-5.237v-9.493c0-4.05 3.134-7.332 7-7.332h17.812" fill="none" stroke="#788b9c" stroke-miterlimit="10"></path><circle cx="6" cy="20" r="4.5" fill="#8bb7f0"></circle><path d="M6 16c2.206 0 4 1.794 4 4s-1.794 4-4 4-4-1.794-4-4 1.794-4 4-4m0-1a5 5 0 10.001 10.001A5 5 0 006 15z" fill="#4e7ab5"></path><circle cx="35" cy="5" r="3.5" fill="#8bb7f0"></circle><path d="M35 2c1.654 0 3 1.346 3 3s-1.346 3-3 3-3-1.346-3-3 1.346-3 3-3m0-1a4 4 0 100 8 4 4 0 000-8z" fill="#4e7ab5"></path><circle cx="35" cy="14" r="3.5" fill="#e1ebf2"></circle><path d="M35 11c1.654 0 3 1.346 3 3s-1.346 3-3 3-3-1.346-3-3 1.346-3 3-3m0-1a4 4 0 100 8 4 4 0 000-8z" fill="#a3b7cc"></path><g><circle cx="35" cy="26" r="3.5" fill="#8bb7f0"></circle><path d="M35 23c1.654 0 3 1.346 3 3s-1.346 3-3 3-3-1.346-3-3 1.346-3 3-3m0-1a4 4 0 100 8 4 4 0 000-8z" fill="#4e7ab5"></path></g><g><circle cx="35" cy="35" r="3.5" fill="#e1ebf2"></circle><path d="M35 32c1.654 0 3 1.346 3 3s-1.346 3-3 3-3-1.346-3-3 1.346-3 3-3m0-1a4 4 0 100 8 4 4 0 000-8z" fill="#a3b7cc"></path></g></svg>