<svg viewBox="0 0 40 40" xmlns="http://www.w3.org/2000/svg"><path fill="#8bb7f0" d="M20 23.293l-12 12L4.707 32l12-12-12-12L8 4.707l12 12 12-12L35.293 8l-12 12 12 12L32 35.293z"></path><path d="M32 5.414L34.586 8 23.293 19.293l-.707.707.707.707L34.586 32 32 34.586 20.707 23.293 20 22.586l-.707.707L8 34.586 5.414 32l11.293-11.293.707-.707-.707-.707L5.414 8 8 5.414l11.293 11.293.707.707.707-.707L32 5.414M32 4L20 16 8 4 4 8l12 12L4 32l4 4 12-12 12 12 4-4-12-12L36 8l-4-4z" fill="#4e7ab5"></path></svg>