<svg viewBox="0 0 40 40" xmlns="http://www.w3.org/2000/svg"><path d="M7 34.5c-.827 0-1.5-.673-1.5-1.5V12c0-.827.673-1.5 1.5-1.5h29.999c.828 0 1.501.673 1.501 1.5v21c0 .827-.673 1.5-1.5 1.5H7z" fill="#788b9c"></path><path d="M36.999 11c.265 0 .516.105.706.295.19.19.295.44.295.705l-.001 21c0 .551-.449 1-1 1H7.001a.994.994 0 01-.706-.295A.992.992 0 016 33V12c0-.551.449-1 1-1h29.999m0-1H7c-1.1 0-2 .9-2 2v21c0 1.1.901 2 2.001 2H37c1.1 0 2-.9 2-2V12c0-1.1-.901-2-2.001-2z" fill="#66798f"></path><path d="M3.001 30.5A1.502 1.502 0 011.5 29V8c0-.827.673-1.5 1.5-1.5h30c.827 0 1.5.673 1.5 1.5v21c0 .827-.673 1.5-1.5 1.5H3.001z" fill="#b0c1d4"></path><path d="M32.999 7c.265 0 .516.105.706.295.19.19.295.44.295.705v21c0 .551-.449 1-1 1H3.001a.994.994 0 01-.706-.295A.992.992 0 012 29V8c0-.551.449-1 1.001-1h29.998m0-1H3.001C1.901 6 1 6.9 1 8v21c0 1.1.901 2 2.001 2H33c1.1 0 2-.9 2-2V8c0-1.1-.901-2-2.001-2z" fill="#66798f"></path><path fill="#66798f" d="M4.001 5h5v2h-5z"></path><path d="M22.5 26.5c-4.411 0-8-3.589-8-8s3.589-8 8-8 8 3.589 8 8-3.589 8-8 8z" fill="#c2e8ff"></path><path d="M22.5 11c4.135 0 7.5 3.364 7.5 7.5S26.635 26 22.5 26 15 22.635 15 18.5s3.365-7.5 7.5-7.5m0-1a8.5 8.5 0 10.001 17.001A8.5 8.5 0 0022.5 10z" fill="#7496c4"></path><path d="M23 14.5h-.5a4 4 0 00-4 4v.5" fill="none" stroke="#fff" stroke-miterlimit="10"></path><path fill="#fff9de" d="M4 10h5v3H4z"></path></svg>