<svg viewBox="0 0 40 40" xmlns="http://www.w3.org/2000/svg"><path d="M20 38.5c-8.166 0-14.5-11.403-14.5-21.214C5.5 7.696 11.191 1.5 20 1.5s14.5 6.196 14.5 15.786C34.5 27.097 28.166 38.5 20 38.5z" fill="#e1ebf2"></path><path d="M20 2c8.505 0 14 6 14 15.286C34 26.865 27.884 38 20 38S6 26.865 6 17.286C6 8 11.495 2 20 2m0-1C10.889 1 5 7.572 5 17.286 5 27.463 11.552 39 20 39s15-11.537 15-21.714C35 7.572 29.111 1 20 1z" fill="#a3b7cc"></path><path d="M34.878 15.744C22.909 9.725 7.166 10.001 7 10c0 0 .296-1.009 1-1 3.942.049 16.365.611 26.669 5.585l.209 1.159z" fill="#a3b7cc"></path><path d="M32.206 8.046c-7.131.279-11.535 2.597-11.766 2.704l1.462.496C21.956 11.22 26.153 9.284 33 9l-.794-.954zM31 31c-11.996 0-24.394-7.915-24.916-8.252L7 21.966C7.125 22.047 19.588 30 31.175 30L31 31zM33 26c-11.996 0-24.394-7.915-24.916-8.252l.742-.783C8.95 17.047 21.414 25 33 25v1z" fill="#a3b7cc"></path><path d="M20 23.5c-6.234 0-11.745-.425-13.957-1.064a25.868 25.868 0 01-.543-5.15c0-.453.025-.892.051-1.33.012-.179.025-.357.04-.535C7.778 14.962 12.586 14.5 20 14.5c7.062 0 12.07.484 14.41.929.015.176.027.353.039.53.026.436.051.874.051 1.327 0 1.65-.182 3.378-.542 5.139C31.441 23.091 26.156 23.5 20 23.5z" fill="#b08159"></path><path d="M20 15c6.676 0 11.492.433 13.94.852l.009.132c.024.4.05.853.05 1.301 0 1.521-.158 3.11-.47 4.73-2.568.604-7.74.985-13.529.985-5.844 0-11.205-.391-13.527-.968A25.11 25.11 0 016 17.286c0-.448.027-.901.05-1.292l.011-.156C8.365 15.409 13.013 15 20 15m0-1c-7.165 0-12.523.445-14.873 1.012-.03.301-.054.607-.074.913A22.47 22.47 0 005 17.286c0 1.827.219 3.698.614 5.538C7.748 23.555 13.661 24 20 24s11.935-.445 14.386-1.176c.395-1.841.614-3.711.614-5.538 0-.463-.026-.912-.052-1.36a29.58 29.58 0 00-.074-.913C32.477 14.499 27.165 14 20 14z" fill="#a16a4a"></path><path d="M26.564 21.5c-2.176 0-2.955-2.039-3.062-3.117l-.045-.455 8.231-1.567-.205.769c-.047.177-1.207 4.37-4.919 4.37z" fill="#ffeea3"></path><path d="M31 17s-1.065 4-4.435 4C24.265 21 24 18.333 24 18.333L31 17m1.376-1.28l-1.563.298-7 1.333-.899.171.091.91C23.128 19.666 24.03 22 26.565 22c4.092 0 5.35-4.549 5.402-4.743l.409-1.537z" fill="#a16a4a"></path><g><path d="M13.436 21.5c-3.712 0-4.871-4.192-4.918-4.371l-.206-.769 8.231 1.567-.045.455c-.108 1.079-.886 3.118-3.062 3.118z" fill="#ffeea3"></path><path d="M9 17l7 1.333S15.735 21 13.435 21C10.065 21 9 17 9 17m-1.376-1.28l.409 1.537C8.085 17.451 9.344 22 13.435 22c2.535 0 3.437-2.334 3.56-3.568l.091-.91-.899-.171-7-1.333-1.563-.298z" fill="#a16a4a"></path></g><path d="M27 36c-6.875 0-14.155-3.617-17.729-5.692C7.959 29.546 8 28.214 8 28.214 8.097 28.295 18.189 35 27.091 35L27 36zM13.301 9.944c3.623-3.124 7.929-5.965 14.784-5.965l-2.061-1.03c-8.034.875-12.634 5.257-14.291 6.995h1.568z" fill="#a3b7cc"></path></svg>