<svg viewBox="0 0 40 40" xmlns="http://www.w3.org/2000/svg"><circle cx="6.5" cy="2" r="1" fill="#5e9c76"></circle><path fill="#f5ce85" d="M2.5 8.5h8v30h-8z"></path><path d="M10 9v29H3V9h7m1-1H2v31h9V8z" fill="#967a44"></path><path d="M6.5 12A1.5 1.5 0 005 13.5V16h3v-2.5A1.5 1.5 0 006.5 12z" fill="#967a44"></path><path d="M6.5 9.5c-3.316 0-5-.335-5-2.167 0-2.665 2.243-4.833 5-4.833s5 2.168 5 4.833c0 1.866-1.474 2.167-5 2.167z" fill="#bae0bd"></path><path d="M6.5 3C8.981 3 11 4.944 11 7.333 11 8.673 10.117 9 6.5 9 2.673 9 2 8.463 2 7.333 2 4.944 4.019 3 6.5 3m0-1C3.462 2 1 4.388 1 7.333 1 9.772 3.462 10 6.5 10S12 9.902 12 7.333C12 4.388 9.538 2 6.5 2z" fill="#5e9c76"></path><path fill="none" stroke="#967a44" stroke-miterlimit="10" d="M2 15.5h9M2 23.5h9M2 30.5h9"></path><circle cx="6.5" cy="19.5" r="1.5" fill-rule="evenodd" clip-rule="evenodd" fill="#36404d"></circle><circle cx="20.5" cy="2" r="1" fill="#5e9c76"></circle><path fill="#f5ce85" d="M16.5 8.5h8v30h-8z"></path><path d="M24 9v29h-7V9h7m1-1h-9v31h9V8z" fill="#967a44"></path><path d="M20.5 12a1.5 1.5 0 00-1.5 1.5V16h3v-2.5a1.5 1.5 0 00-1.5-1.5z" fill="#967a44"></path><path d="M20.5 9.5c-3.316 0-5-.335-5-2.167 0-2.665 2.243-4.833 5-4.833s5 2.168 5 4.833c0 1.866-1.474 2.167-5 2.167z" fill="#bae0bd"></path><path d="M20.5 3C22.981 3 25 4.944 25 7.333 25 8.673 24.117 9 20.5 9 16.673 9 16 8.463 16 7.333 16 4.944 18.019 3 20.5 3m0-1C17.462 2 15 4.388 15 7.333 15 9.772 17.462 10 20.5 10S26 9.902 26 7.333C26 4.388 23.538 2 20.5 2z" fill="#5e9c76"></path><path fill="none" stroke="#967a44" stroke-miterlimit="10" d="M16 15.5h9M16 23.5h9M16 30.5h9"></path><circle cx="20.5" cy="19.5" r="1.5" fill-rule="evenodd" clip-rule="evenodd" fill="#36404d"></circle><path fill="#f5ce85" d="M6.5 26.5h32v12h-32z"></path><path d="M38 27v11H7V27h31m1-1H6v13h33V26z" fill="#967a44"></path><path fill="#f78f8f" d="M6.5 26.5v-.69l3.903-6.31h24.194l3.903 6.31v.69z"></path><path d="M34.318 20L38 25.951V26H7v-.049L10.682 20h23.636m.557-1h-24.75L6 25.667V27h33v-1.333L34.875 19z" fill="#c74343"></path><g><path fill="#967a44" d="M36 30.5L34.5 29 33 30.5V39h3z"></path></g><g><path fill="#967a44" d="M30 30.5L28.5 29 27 30.5V39h3z"></path></g><g><path fill="#967a44" d="M24 30.5L22.5 29 21 30.5V39h3z"></path></g><g><path fill="#967a44" d="M18 30.5L16.5 29 15 30.5V39h3z"></path></g><g><path fill="#967a44" d="M12 30.5L10.5 29 9 30.5V39h3z"></path></g></svg>