<svg viewBox="0 0 40 40" xmlns="http://www.w3.org/2000/svg"><path fill-rule="evenodd" clip-rule="evenodd" fill="#f5ce85" d="M2.5 12.5h35v19h-35z"></path><path d="M37 13v18H3V13h34m1-1H2v20h36V12z" fill="#967a44"></path><path fill="#f5ce85" d="M.5 34.5h39v3H.5z"></path><path d="M39 35v2H1v-2h38m1-1H0v4h40v-4z" fill="#967a44"></path><path fill="#f5ce85" d="M1.5 31.5h37v3h-37z"></path><path d="M38 32v2H2v-2h36m1-1H1v4h38v-4z" fill="#967a44"></path><path fill="#f5ce85" d="M1.5 12.5v-2.168L20 2.543l18.5 7.789V12.5z"></path><path d="M20 3.085l18 7.579V12H2v-1.336l18-7.579M20 2L1 10v3h38v-3L20 2z" fill="#967a44"></path><path fill-rule="evenodd" clip-rule="evenodd" fill="#967a44" d="M31 12h2v20h-2zM25 12h2v20h-2zM19 12h2v20h-2zM13 12h2v20h-2zM7 12h2v20H7z"></path><g><path fill="none" stroke="#967a44" stroke-miterlimit="10" d="M38 15.5H2"></path></g></svg>