<svg viewBox="0 0 40 40" xmlns="http://www.w3.org/2000/svg"><path d="M14.857 38.5c-2.101 0-3.357-3.668-3.357-7.214 0-1.341.627-3.708 1.354-6.448 1.076-4.06 2.405-9.077 2.498-13.624h9.297c.093 4.547 1.422 9.564 2.498 13.624.726 2.74 1.354 5.107 1.354 6.448 0 3.47-1.283 7.214-3.357 7.214H14.857z" fill="#ffeea3"></path><path d="M24.163 11.714c.174 4.472 1.456 9.31 2.5 13.252.717 2.707 1.337 5.045 1.337 6.32C28 34.528 26.852 38 25.143 38H14.857C13.148 38 12 34.528 12 31.286c0-1.275.62-3.613 1.337-6.32 1.044-3.941 2.326-8.779 2.5-13.252h8.326m.98-1H14.857c0 7.714-3.857 17.078-3.857 20.571C11 34.779 12.229 39 14.857 39h10.286C27.731 39 29 34.779 29 31.286c0-3.494-3.857-12.857-3.857-20.572z" fill="#ba9b48"></path><path d="M25.333 38H14.667C13.246 38 12 34.885 12 31.333c1.099 3.024 2.347 4 3.967 4 .681 0 .791-5.357 1.367-5.333.794.033 1.212 5.45 2.667 5.45s2.37-3.253 2.951-2.415c.744 1.074 1.035 2.298 1.897 2.298.794 0 2.13-1.141 3.152-4C28 34.822 26.729 38 25.333 38z" fill="#f2c063"></path><g><path d="M20.001 18.5C4.71 18.5 1.5 16.513 1.5 14.846 1.5 7.487 9.799 1.5 20 1.5s18.5 5.987 18.5 13.346c0 1.667-3.209 3.654-18.499 3.654z" fill="#a6714e"></path><path d="M20 2c9.925 0 18 5.763 18 12.846C38 15.794 36.246 18 19.999 18 3.754 18 2 15.794 2 14.846 2 7.763 10.075 2 20 2m0-1C9.507 1 1 7.199 1 14.846 1 18.308 10.499 19 19.999 19h.002C29.501 19 39 18.308 39 14.846 39 7.199 30.493 1 20 1z" fill="#7a4f34"></path></g></svg>