<svg viewBox="0 0 40 40" xmlns="http://www.w3.org/2000/svg"><path d="M20 38.5C9.799 38.5 1.5 30.201 1.5 20S9.799 1.5 20 1.5 38.5 9.799 38.5 20 30.201 38.5 20 38.5z" fill="#ffeea3"></path><path d="M20 2c9.925 0 18 8.075 18 18s-8.075 18-18 18S2 29.925 2 20 10.075 2 20 2m0-1C9.507 1 1 9.507 1 20s8.507 19 19 19 19-8.507 19-19S30.493 1 20 1z" fill="#f5c276"></path><g><path d="M17.5 30.5c-2.757 0-5-2.243-5-5s2.243-5 5-5c.795 0 1.56.186 2.272.551l.728.373V8.809l7 3.5v3.874l-5-2.556v12.168l-.023.16A4.97 4.97 0 0117.5 30.5z" fill="#f78f8f"></path><path d="M21 9.618l6 3v2.748l-3.545-1.812L22 12.811v12.865l-.021.234A4.474 4.474 0 0117.5 30c-2.481 0-4.5-2.019-4.5-4.5s2.019-4.5 4.5-4.5c.714 0 1.402.167 2.044.495L21 22.24V9.618M20 8v12.605A5.474 5.474 0 0017.5 20a5.5 5.5 0 100 11 5.499 5.499 0 005.475-5H23V14.445L28 17v-5l-8-4z" fill="#c74343"></path></g></svg>