<svg viewBox="0 0 40 40" xmlns="http://www.w3.org/2000/svg"><path fill="#dbb065" d="M1.5 35.5v-31h10.293l3 3H38.5v28z"></path><path d="M11.586 5l2.707 2.707.293.293H38v27H2V5h9.586M12 4H1v32h38V7H15l-3-3z" fill="#967a44"></path><path fill="#f5ce85" d="M1.5 35.5v-26h10.651l3-2H38.5v28z"></path><path d="M38 8v27H2V10h10.303l.252-.168L15.303 8H38m1-1H15l-3 2H1v27h38V7z" fill="#967a44"></path><g><path fill="#f78f8f" d="M20.5 26V12.862l6 3.428v3.855l-5-2.812V26z"></path><path d="M21 13.723l5 2.857v2.71l-3.51-1.974-1.49-.838V25.5 13.723M20 12v14.5h2v-8.312L27 21v-5l-7-4z" fill="#c74343"></path></g><g><path d="M17.5 30.5c-2.206 0-4-1.794-4-4s1.794-4 4-4 4 1.794 4 4-1.794 4-4 4z" fill="#f78f8f"></path><path d="M17.5 23c1.93 0 3.5 1.57 3.5 3.5S19.43 30 17.5 30 14 28.43 14 26.5s1.57-3.5 3.5-3.5m0-1a4.5 4.5 0 100 9 4.5 4.5 0 000-9z" fill="#c74343"></path></g></svg>