<svg viewBox="0 0 40 40" xmlns="http://www.w3.org/2000/svg"><path d="M34 13.5c-2.481 0-4.5-2.019-4.5-4.5s2.019-4.5 4.5-4.5c3.196 0 4.5.821 4.5 2.833 0 2.436-2.016 6.167-4.5 6.167z" fill="#e8d47b"></path><path d="M34 5c3.331 0 4 .893 4 2.333C38 9.755 36.022 13 34 13c-2.206 0-4-1.794-4-4s1.794-4 4-4m0-1a5 5 0 000 10c2.761 0 5-3.905 5-6.667C39 4.572 36.761 4 34 4z" fill="#ba9b48"></path><path d="M6 13.5c-2.484 0-4.5-3.731-4.5-6.167C1.5 5.321 2.804 4.5 6 4.5c2.481 0 4.5 2.019 4.5 4.5S8.481 13.5 6 13.5z" fill="#e8d47b"></path><path d="M6 5c2.206 0 4 1.794 4 4s-1.794 4-4 4c-2.022 0-4-3.245-4-5.667C2 5.893 2.669 5 6 5m0-1c-2.761 0-5 .572-5 3.333C1 10.095 3.239 14 6 14A5 5 0 006 4z" fill="#ba9b48"></path><path d="M20 29.5c-2.652 0-5.055-1.364-6.427-3.649l-.073-.122-.126-.065C8.517 23.161 5.5 18.223 5.5 12.776V1.515h29v11.261c0 5.446-3.017 10.384-7.874 12.887l-.126.066-.073.122C25.055 28.136 22.652 29.5 20 29.5z" fill="#ffeea3"></path><path d="M34 2.015v10.761c0 5.258-2.913 10.026-7.603 12.443l-.253.13-.146.244C24.717 27.726 22.475 29 20 29s-4.717-1.274-5.998-3.407l-.146-.244-.253-.13C8.913 22.802 6 18.035 6 12.776V2.015h28m1-1H5v11.761c0 5.812 3.311 10.841 8.145 13.331C14.543 28.437 17.086 30 20 30s5.457-1.563 6.855-3.892C31.689 23.617 35 18.588 35 12.776V1.015z" fill="#ba9b48"></path><circle cx="26" cy="7" r="2" fill="#36404d"></circle><circle cx="14" cy="7" r="2" fill="#36404d"></circle><path fill="#ffeea3" d="M6 1h28v2H6zM10 10h20v2H10z"></path><g><path d="M25.5 20.5c-2.082 0-4.097-.722-5.134-1.84L20 18.265l-.366.396c-1.037 1.118-3.052 1.84-5.134 1.84-3.131 0-5-.935-5-2.5 0-.558.182-.974.444-1.282-.044.21-.054.422-.021.628.09.566.555 1.172 1.586 1.172.396 0 .857-.089 1.37-.264 1.481-.502 2.214-1.373 2.953-2.375.684-.956 1.457-1.379 2.511-1.379.47 0 .937.195 1.314.549l.343.32.342-.321c.378-.354.845-.549 1.314-.549 1.054 0 1.827.423 2.507 1.373l.173.237c.612.841 1.19 1.636 2.598 2.113.516.176.984.266 1.39.266 1.086 0 1.574-.636 1.669-1.231a1.736 1.736 0 00-.02-.63c.306.315.527.757.527 1.372 0 1.565-1.869 2.5-5 2.5z" fill="#b27354"></path><path d="M21.656 15c.888 0 1.516.348 2.108 1.175l.168.23c.631.867 1.283 1.764 2.838 2.291.569.194 1.092.293 1.552.293.66 0 1.221-.213 1.61-.583C29.59 19.4 27.957 20 25.5 20c-1.949 0-3.82-.659-4.767-1.68L20 17.53l-.733.79C18.32 19.341 16.449 20 14.5 20c-2.27 0-3.837-.513-4.332-1.374.355.252.816.393 1.343.393.451 0 .966-.098 1.53-.29 1.619-.549 2.405-1.481 3.204-2.564.584-.816 1.212-1.164 2.1-1.164.439 0 .771.225.973.414l.682.64.684-.641c.201-.189.534-.414.972-.414m0-1c-.622 0-1.201.258-1.656.684-.455-.426-1.035-.684-1.656-.684-1.457 0-2.314.744-2.913 1.582-.686.93-1.338 1.733-2.712 2.199-.486.166-.886.237-1.209.237-1.769 0-1.211-2.145.24-2.618-.917 0-2.75.66-2.75 2.6 0 1.488 1.385 3 5.5 3 2.155 0 4.318-.726 5.5-2 1.182 1.274 3.345 2 5.5 2 4.115 0 5.5-1.512 5.5-3 0-1.94-1.833-2.6-2.75-2.6 1.448.473 1.873 2.589.073 2.589-.332 0-.739-.072-1.229-.239-1.373-.466-1.838-1.238-2.524-2.168-.6-.838-1.457-1.582-2.914-1.582z" fill="#704e34"></path></g></svg>