<svg viewBox="0 0 40 40" xmlns="http://www.w3.org/2000/svg"><path d="M4 27.5A2.503 2.503 0 011.5 25V15c0-1.378 1.122-2.5 2.5-2.5h5.5v15H4z" fill="#b0c1d4"></path><path d="M9 13v14H4c-1.103 0-2-.897-2-2V15c0-1.103.897-2 2-2h5m1-1H4a3 3 0 00-3 3v10a3 3 0 003 3h6V12z" fill="#66798f"></path><path fill="#b0c1d4" d="M9.5 27.909V12.27l12-10.189v35.85z"></path><path d="M21 3.161v33.701l-11-9.187V12.501l11-9.34M22 1L9 12.038v16.105L22 39V1z" fill="#66798f"></path><path fill="#f78f8f" stroke="#c74343" stroke-miterlimit="10" d="M39 14L27 26M27 14l12 12"></path></svg>