<svg viewBox="0 0 40 40" xmlns="http://www.w3.org/2000/svg"><path d="M24.27 29.5c-1.002-.258-3.9-4.676-7.314-12.387-3.537-7.989-4.882-13.317-4.352-14.274 0 0 .277-.339 2.202-.339C22.049 2.5 38.5 6.789 38.5 9.881c0 1.867-2.502 6.369-6.375 11.469-4.033 5.31-7.15 8.142-7.855 8.15z" fill="#f5ce85"></path><path d="M14.805 3c3.329 0 9.375 1.047 14.374 2.49C36.415 7.578 38 9.367 38 9.881c0 4.099-11.21 18.15-13.685 19.09-1.066-.661-4.308-5.827-7.756-14.04-2.963-7.059-3.733-10.854-3.549-11.747.178-.064.663-.184 1.795-.184m0-1c-1.443 0-2.41.185-2.638.596-1.609 2.907 8.922 26.668 11.997 27.392a.413.413 0 00.102.012C26.641 30 39 14.443 39 9.881 39 6.117 21.615 2 14.805 2z" fill="#967a44"></path><circle cx="29" cy="15" r="1" fill="#967a44"></circle><circle cx="29.5" cy="21.5" r=".5" fill="#967a44"></circle><circle cx="31.5" cy="12.5" r=".5" fill="#967a44"></circle><circle cx="23.5" cy="7.5" r=".5" fill="#967a44"></circle><circle cx="19.5" cy="7.5" r=".5" fill="#967a44"></circle><path d="M21.334 37.5C18.183 37.5 1.5 21.113 1.5 18.019c.166-1.777 17.389-7.519 24.067-7.519 1.414 0 1.67.289 1.695.321.546.731.211 5.481-1.484 13.148-1.679 7.591-3.613 13.123-4.366 13.528a.826.826 0 01-.078.003z" fill="#ffeea3"></path><path d="M25.568 11c.844 0 1.194.11 1.306.157.325.821.152 4.997-1.688 13.169-1.672 7.428-3.299 11.794-3.972 12.663-1.131-.191-5.035-2.83-10.706-8.437-5.592-5.529-8.306-9.387-8.497-10.427.492-.638 3.474-2.28 9.829-4.259C17.43 12.125 22.819 11 25.568 11m0-1C19.16 10 1 15.648 1 18.019 1 21.362 17.702 38 21.335 38a.926.926 0 00.224-.025c2.111-.529 7.889-25.065 6.104-27.453-.271-.362-1.017-.522-2.095-.522z" fill="#ba9b48"></path><circle cx="14" cy="23" r="1" fill="#ba9b48"></circle><circle cx="9.5" cy="18.5" r=".5" fill="#ba9b48"></circle><circle cx="16.5" cy="19.5" r=".5" fill="#ba9b48"></circle><circle cx="21.5" cy="18.5" r=".5" fill="#ba9b48"></circle><g><circle cx="20.5" cy="25.5" r=".5" fill="#ba9b48"></circle></g><g><circle cx="17.5" cy="29.5" r=".5" fill="#ba9b48"></circle></g></svg>