<svg viewBox="0 0 40 40" xmlns="http://www.w3.org/2000/svg"><path d="M6.5 38.5V24.071C6.5 16.715 12.683 10.5 20 10.5s13.5 6.215 13.5 13.571V38.5h-27z" fill="#ffeea3"></path><path d="M20 11c7.047 0 13 5.986 13 13.071V38H7V24.071C7 16.986 12.953 11 20 11m0-1c-7.732 0-14 6.576-14 14.071V39h28V24.071C34 16.576 27.732 10 20 10z" fill="#ba9b48"></path><path d="M20 34.464c-5.238 0-9.5-4.046-9.5-9.02V21c0-5.021 3.267-19.536 9.5-19.536 6.131 0 9.5 14.673 9.5 19.536v4.444c0 4.974-4.262 9.02-9.5 9.02z" fill="#ff92be"></path><path d="M20 1.964c5.413 0 9 13.546 9 19.036v4.444c0 4.698-4.037 8.52-9 8.52s-9-3.822-9-8.52V21c0-5.651 3.493-19.036 9-19.036m0-1C13.326.964 10 15.742 10 21v4.444c0 5.258 4.477 9.52 10 9.52s10-4.262 10-9.52V21C30 15.742 26.562.964 20 .964z" fill="#ea4c89"></path><path fill="#ffeea3" d="M7 37h26v2H7z"></path><path d="M24 33.065c2.958-1.397 5-4.284 5-7.621V21c0-3.986-1.892-12.215-5-16.426v28.491z" fill="#ffb5d2"></path></svg>