<svg viewBox="0 0 40 40" xmlns="http://www.w3.org/2000/svg"><path d="M16.5 18.5V2a.5.5 0 01.5-.5h6a.5.5 0 01.5.5v16.5h-7z" fill="#839cb2"></path><path d="M23 2v16h-6V2h6m0-1h-6a1 1 0 00-1 1v17h8V2a1 1 0 00-1-1z" fill="#66798f"></path><path d="M12.172 38.5L9.535 23.098A5.002 5.002 0 0114.5 17.5h11a5.002 5.002 0 014.962 5.62L27.828 38.5H12.172z" fill="#ff92be"></path><path d="M25.5 18c1.29 0 2.52.555 3.374 1.522a4.48 4.48 0 011.098 3.492L27.407 38H12.593l-2.559-14.942A4.5 4.5 0 0114.5 18h11m0-1h-11a5.5 5.5 0 00-5.458 6.182L11.75 39h16.5l2.708-15.818A5.5 5.5 0 0025.5 17z" fill="#ea4c89"></path><path fill="#ea4c89" d="M19 17h2v12h-2z"></path><path fill="#ea4c89" d="M22 33h-4l1-5h2z"></path><path fill="#a3b7cc" d="M21 2h2v15h-2z"></path><g><path d="M28.874 19.522A4.504 4.504 0 0025.5 18H25v2h.5a2.5 2.5 0 011.874.845c.459.52.688 1.221.617 1.883L25.395 38h2.011l2.565-14.987a4.482 4.482 0 00-1.097-3.491z" fill="#ffb5d2"></path></g></svg>