<svg viewBox="0 0 40 40" xmlns="http://www.w3.org/2000/svg"><path d="M27.021 35.668c-.444 0-.892-.083-1.169-.147l-5.23-23.878H38.5V18c0 6.972-6.964 15.409-10.605 17.495-.199.113-.501.173-.874.173z" fill="#8bb7f0"></path><path d="M38 12.143V18c0 6.795-6.799 15.024-10.354 17.061-.056.032-.23.107-.625.107-.262 0-.528-.033-.751-.072l-5.027-22.954H38m1-.999H20l5.429 24.786s.788.24 1.592.24c.402 0 .808-.06 1.122-.24C31.818 33.823 39 25.35 39 18v-6.857z" fill="#4e7ab5"></path><path d="M12.979 35.668c-.374 0-.676-.06-.874-.174C8.464 33.409 1.5 24.972 1.5 18v-6.357h17.878l-5.23 23.878a5.43 5.43 0 01-1.169.147z" fill="#8bb7f0"></path><path d="M18.757 12.143L13.73 35.096a4.442 4.442 0 01-.751.072c-.395 0-.569-.075-.625-.107C8.799 33.024 2 24.795 2 18v-5.857h16.757m1.243-1H1V18c0 7.35 7.182 15.823 10.857 17.929.314.18.72.24 1.122.24a6.25 6.25 0 001.592-.24L20 11.143z" fill="#4e7ab5"></path><path d="M20 36.5c-4.107 0-6.645-.629-7.567-.907.406-2.351 1.52-13.118-10.933-17.938V3.5h37v14.155c-12.452 4.82-11.339 15.587-10.933 17.938-.922.278-3.46.907-7.567.907z" fill="#c2e8ff"></path><path d="M38 4v13.315C26.206 22.06 26.578 32.112 27.007 35.231c-1.124.297-3.47.769-7.007.769-3.538 0-5.884-.472-7.007-.768.429-3.119.802-13.171-10.993-17.917V4h36m1-1H1v15c14.069 5.23 10.857 17.929 10.857 17.929S14.571 37 20 37s8.143-1.071 8.143-1.071S24.931 23.23 39 18V3z" fill="#7496c4"></path><path fill="#fff" d="M21 13h6V7h-6l1 1-1 .973L22 10l-1 1.027L22 12zM19 7h-6v6h6l-1-1 1-.973L18 10l1-1.027L18 8z"></path><path d="M1.5 16.5v-13H10c3.033 0 5.5 2.467 5.5 5.5v2c0 3.033-2.467 5.5-5.5 5.5H1.5z" fill="#c2e8ff"></path><path d="M10 4c2.757 0 5 2.243 5 5v2c0 2.757-2.243 5-5 5H2V4h8m0-1H1v14h9a6 6 0 006-6V9a6 6 0 00-6-6z" fill="#7496c4"></path><path d="M30 16.5a5.506 5.506 0 01-5.5-5.5V9c0-3.033 2.467-5.5 5.5-5.5h8.5v13H30z" fill="#c2e8ff"></path><path d="M38 4v12h-8c-2.757 0-5-2.243-5-5V9c0-2.757 2.243-5 5-5h8m1-1h-9a6 6 0 00-6 6v2a6 6 0 006 6h9V3z" fill="#7496c4"></path><path d="M20 22.096c-.72-1.125-1.5-2.55-1.5-3.096 0-.827.673-1.5 1.5-1.5s1.5.673 1.5 1.5c0 .547-.78 1.972-1.5 3.096z" fill="#e3f5ff"></path><path d="M20 18c.551 0 1 .449 1 .999-.008.306-.424 1.177-1 2.148-.576-.97-.992-1.841-1-2.147 0-.551.449-1 1-1m0-1c-1.105 0-2 .895-2 2s2 4 2 4 2-2.895 2-4-.895-2-2-2z" fill="#9cc9e6"></path><g><path d="M20 28.5c-.827 0-1.5-.673-1.5-1.5 0-.547.78-1.972 1.5-3.096.72 1.125 1.5 2.55 1.5 3.096 0 .827-.673 1.5-1.5 1.5z" fill="#e3f5ff"></path><path d="M20 24.853c.576.97.992 1.841 1 2.147 0 .551-.449 1-1 1s-1-.449-1-.999c.008-.306.424-1.177 1-2.148M20 23s-2 2.895-2 4 .895 2 2 2 2-.895 2-2-2-4-2-4z" fill="#9cc9e6"></path></g><g><path d="M16.538 26.5a1.505 1.505 0 01-1.301-.75 1.494 1.494 0 01-.15-1.138c.104-.387.352-.71.699-.911.143-.083.652-.274 2.297-.274.414 0 .811.013 1.132.027-.614 1.185-1.457 2.572-1.93 2.845a1.489 1.489 0 01-.747.201z" fill="#e3f5ff"></path><path d="M18.083 23.927l.31.002c-.552.983-1.098 1.778-1.357 1.937a1.006 1.006 0 01-1.366-.366 1 1 0 01.365-1.365c.016-.009.402-.208 2.048-.208m0-1c-.985 0-2.076.069-2.547.341a2 2 0 102 3.464C18.492 26.18 20 23 20 23s-.903-.073-1.917-.073z" fill="#9cc9e6"></path></g><g><path d="M21.917 22.573c-.414 0-.811-.013-1.132-.027.614-1.185 1.457-2.572 1.93-2.845a1.505 1.505 0 012.05.549c.2.347.253.751.15 1.138-.104.387-.352.71-.699.911-.145.082-.654.274-2.299.274z" fill="#e3f5ff"></path><path d="M23.462 20a1 1 0 01.503 1.865c-.016.008-.402.208-2.048.208l-.31-.002c.552-.983 1.098-1.778 1.357-1.937a.984.984 0 01.498-.134m0-1a1.99 1.99 0 00-.998.268C21.508 19.82 20 23 20 23s.903.073 1.917.073c.985 0 2.076-.069 2.547-.341A2 2 0 0023.462 19z" fill="#9cc9e6"></path></g><g><path d="M23.462 26.5c-.262 0-.521-.069-.749-.201-.473-.273-1.316-1.66-1.93-2.845.322-.015.719-.027 1.133-.027 1.645 0 2.155.192 2.297.274.347.2.596.524.699.911a1.501 1.501 0 01-1.45 1.888z" fill="#e3f5ff"></path><path d="M21.917 23.927c1.646 0 2.032.199 2.047.207a1 1 0 01-.999 1.732c-.26-.16-.806-.955-1.358-1.937l.31-.002m0-1C20.903 22.927 20 23 20 23s1.508 3.18 2.464 3.732a2.001 2.001 0 002-3.464c-.471-.272-1.562-.341-2.547-.341z" fill="#9cc9e6"></path></g><g><path d="M18.083 22.573c-1.645 0-2.155-.192-2.297-.274a1.487 1.487 0 01-.699-.911 1.49 1.49 0 01.15-1.138 1.505 1.505 0 012.05-.549c.473.273 1.316 1.66 1.93 2.845-.322.015-.719.027-1.134.027.001 0 .001 0 0 0z" fill="#e3f5ff"></path><path d="M16.538 20c.176 0 .344.045.497.134.26.16.806.955 1.358 1.937l-.31.002c-1.646 0-2.032-.199-2.047-.207A1 1 0 0116.538 20m0-1a2.001 2.001 0 00-1.002 3.732c.471.272 1.562.341 2.547.341C19.097 23.073 20 23 20 23s-1.508-3.18-2.464-3.732a1.99 1.99 0 00-.998-.268z" fill="#9cc9e6"></path></g><g><circle cx="20" cy="23" r="1.5" fill="#fff"></circle><path d="M20 22c.551 0 1 .449 1 1s-.449 1-1 1-1-.449-1-1 .449-1 1-1m0-1a2 2 0 10-.001 3.999A2 2 0 0020 21z" fill="#9cc9e6"></path></g></svg>