<svg viewBox="0 0 40 40" xmlns="http://www.w3.org/2000/svg"><path fill="#e1ebf2" d="M2.5 2.5h35v35h-35z"></path><path d="M37 3v34H3V3h34m1-1H2v36h36V2z" fill="#66798f"></path><circle cx="9" cy="17" r="2.5" fill="#bae0bd"></circle><path d="M9 15c1.103 0 2 .897 2 2s-.897 2-2 2-2-.897-2-2 .897-2 2-2m0-1a3 3 0 100 6 3 3 0 000-6z" fill="#5e9c76"></path><circle cx="9" cy="9" r="2.5" fill="#f78f8f"></circle><path d="M9 7c1.103 0 2 .897 2 2s-.897 2-2 2-2-.897-2-2 .897-2 2-2m0-1a3 3 0 100 6 3 3 0 000-6z" fill="#c74343"></path><path fill="#b0c1d4" d="M15.5 6.5h18v27h-18z"></path><path d="M33 7v26H16V7h17m1-1H15v28h19V6z" fill="#66798f"></path><path fill="#66798f" d="M27 6.308h1V34h-1zM21 6h1v27.692h-1z"></path><path fill="#fff" d="M30 9h1v3h-1zM24 9h1v3h-1zM18 9h1v3h-1z"></path></svg>