<svg viewBox="0 0 40 40" xmlns="http://www.w3.org/2000/svg"><circle cx="16" cy="7" r="6.5" fill="#f78f8f"></circle><path d="M16 1c3.308 0 6 2.692 6 6s-2.692 6-6 6-6-2.692-6-6 2.692-6 6-6m0-1a7 7 0 100 14 7 7 0 000-14z" fill="#c74343"></path><path d="M19.929 38.5a6.384 6.384 0 01-4.573-1.913l-.37-.374-.007.009-9.6-9.601c-.567-.566-.879-1.319-.879-2.121s.312-1.555.879-2.121S6.699 21.5 7.5 21.5s1.554.312 2.121.879l3.879 3.878V19.5h20V33c0 3.032-2.467 5.5-5.5 5.5h-8.071z" fill="#ffeea3"></path><path d="M33 20v13c0 2.757-2.243 5-5 5h-8.071a5.884 5.884 0 01-4.217-1.764l-.713-.711-.004.004-9.262-9.262A2.477 2.477 0 015 24.5c0-.668.26-1.296.732-1.768S6.832 22 7.5 22s1.296.26 1.768.732l3.025 3.025L14 27.464V20h19m1-1H13v6.05l-3.025-3.025C9.291 21.342 8.396 21 7.5 21s-1.791.342-2.475 1.025a3.5 3.5 0 000 4.95l9.969 9.969.006-.005A6.905 6.905 0 0019.929 39H28a6 6 0 006-6V19z" fill="#ba9b48"></path><path d="M18.5 20.5V18c0-1.379 1.122-2.5 2.5-2.5s2.5 1.121 2.5 2.5v2.5h-5z" fill="#ffeea3"></path><path d="M21 16c1.103 0 2 .897 2 2v2h-4v-2c0-1.103.897-2 2-2m0-1a3 3 0 00-3 3v3h6v-3a3 3 0 00-3-3z" fill="#ba9b48"></path><path d="M13.5 22.1V7c0-1.379 1.122-2.5 2.5-2.5s2.5 1.121 2.5 2.5v15.1h-5z" fill="#ffeea3"></path><path d="M16 5c1.103 0 2 .897 2 2v14.6h-4V7c0-1.103.897-2 2-2m0-1a3 3 0 00-3 3v15.6h6V7a3 3 0 00-3-3z" fill="#ba9b48"></path><g><path d="M23.5 20.5V18c0-1.379 1.122-2.5 2.5-2.5s2.5 1.121 2.5 2.5v2.5h-5z" fill="#ffeea3"></path><path d="M26 16c1.103 0 2 .897 2 2v2h-4v-2c0-1.103.897-2 2-2m0-1a3 3 0 00-3 3v3h6v-3a3 3 0 00-3-3z" fill="#ba9b48"></path></g><g><path d="M28.5 22.7V19c0-1.379 1.122-2.5 2.5-2.5s2.5 1.121 2.5 2.5v3.7h-5z" fill="#ffeea3"></path><path d="M31 17c1.103 0 2 .897 2 2v3.2h-4V19c0-1.103.897-2 2-2m0-1a3 3 0 00-3 3v4.2h6V19a3 3 0 00-3-3z" fill="#ba9b48"></path></g><path fill="#ffeea3" d="M32 20v-1H14v5h19v-4z"></path></svg>