<svg viewBox="0 0 40 40" xmlns="http://www.w3.org/2000/svg"><path d="M22.387 35.5c-9.291 0-10.806-4.925-10.866-5.135-.033-.393-1.049-11.577 10.088-12.776.534-.06 1.079-.089 1.621-.089 7.58 0 13.847 5.798 15.154 7.096C37.354 26.41 31.726 35.5 22.387 35.5z" fill="#bae0bd"></path><path d="M23.23 17v1c6.947 0 12.804 5.043 14.525 6.683C36.376 27.008 31.003 35 22.386 35c-8.377 0-10.146-4.095-10.36-4.697-.038-.513-.163-3.049.794-5.691 1.394-3.849 4.369-6.044 8.845-6.526.514-.057 1.04-.086 1.564-.086l.001-1m-.001 0c-.551 0-1.11.029-1.674.092C9.776 18.36 11.039 30.5 11.039 30.5S12.55 36 22.386 36C33.148 36 39 24.511 39 24.511S32.037 16.999 23.229 17z" fill="#5e9c76"></path><path d="M5.5 37.5C12.948 22 32.244 24.836 32.244 24.836" fill="none" stroke="#5e9c76" stroke-linecap="round" stroke-miterlimit="10"></path><path d="M6.279 24.438C2.336 21.927 1.5 18.01 1.5 15.141c0-5.787 4.513-11.059 5.791-12.436C8.509 3.904 12.5 8.194 12.5 12.903c0 8.194-5.072 11.003-6.221 11.535z" fill="#9bcc9f"></path><path d="M7.307 3.432C8.764 4.948 12 8.777 12 12.903c0 7.405-4.281 10.232-5.686 10.96C3.451 21.94 2 19.009 2 15.141 2 9.974 5.748 5.196 7.307 3.432M7.275 2S1 8.135 1 15.141C1 19.022 2.429 22.692 6.236 25c0 0 6.764-2.571 6.764-12.097C13 7.077 7.275 2 7.275 2z" fill="#5e9c76"></path><path d="M6.733 10.279c-3.988 12.558 3.451 16.554-.359 25.545" fill="none" stroke="#5e9c76" stroke-linecap="round" stroke-miterlimit="10"></path></svg>