<svg viewBox="0 0 40 40" xmlns="http://www.w3.org/2000/svg"><path fill="#FFEEA3" d="M17 35.1l-4.3 2.6-1.3-5.1-5 1 1-5.2-5.2-1L5 23.1.8 20l4.1-3-2.6-4.3 5.1-1.3-1-5 5.2 1 1-5.2L16.9 5 20 .8l3 4.1 4.3-2.6 1.3 5.1 5-1-1 5.2 5.2 1-2.8 4.3 4.2 3.1-4.1 3 2.6 4.3-5.1 1.3 1 5-5.2-1-1 5.2-4.3-2.8-3.1 4.2z"></path><path fill="#BA9B48" d="M20 1.7l2.3 3.1.5.7.8-.5L27 3l1 4 .2.9.9-.2L33 7l-.8 4-.2 1 1 .2 4 .8-2.2 3.2-.5.8.8.6 3.3 2.5-3.1 2.3-.7.5.5.8 2 3.4-4 1-.9.2.2.9.6 3.8-4-.8-1-.2-.2 1-.8 4-3.2-2.2-.8-.5-.6.8-2.4 3.2-2.3-3.1-.5-.7-.8.5-3.4 2-1-4-.2-.9-.9.2L7 33l.8-4 .2-1-1-.2-4-.8 2.2-3.2.5-.8-.8-.6L1.7 20l3.1-2.3.7-.5-.5-.8L3 13l4-1 .9-.2-.2-.9L7 7l4 .8 1 .2.2-1 .8-4 3.2 2.2.8.5.6-.8L20 1.7M20 0l-3.3 4.3-4.5-3-1.1 5.5-5.4-1.1L6.8 11l-5.2 1.3 2.7 4.5L0 20l4.3 3.3-3 4.5 5.5 1.1-1.1 5.5 5.3-1.1 1.3 5.2 4.5-2.7L20 40l3.3-4.3 4.5 3 1.1-5.5 5.5 1.1-1.2-5.3 5.2-1.3-2.7-4.5L40 20l-4.3-3.3 3-4.5-5.5-1.1 1.1-5.5L29 6.8l-1.3-5.2-4.5 2.7L20 0z"></path><circle fill="#F5CE85" cx="20" cy="20" r="11"></circle><path fill="#FFF7D1" d="M39.2 20L35 16.9l1.6-2.4H3.4L4.9 17 .8 20 5 23.1l-2.8 4.3 5.2 1-1 5.2 5-1 1.3 5.1 4.3-2.6 3 4.1 3.1-4.2 4.3 2.8 1-5.2 5.2 1-1-5 5.1-1.3-2.6-4.3z"></path><path fill="#FAE7C2" d="M20 31c6.1 0 11-4.9 11-11 0-2-.5-3.9-1.5-5.5h-19C9.5 16.1 9 18 9 20c0 6.1 4.9 11 11 11z"></path><path fill="#DDCDA4" d="M33.2 29l5.3-1.3-2.7-4.6L40 20l-4.3-3.3 1.5-2.2H36l-1.2 1.7-.5.8.8.5 3.2 2.5-3.1 2.3-.7.6.4.8 2 3.3-3.9 1-.9.3.1.9.8 3.8-4-.8-1-.2-.2 1-.8 4-3.2-2.2-.8-.5-.5.8-2.5 3.2-2.3-3.1-.6-.7-.8.4-3.3 2-1-3.9-.3-.9-.9.1L7 33l.8-4 .2-1-1-.2-4-.8 2.2-3.2.5-.8-.8-.5L1.7 20l3.1-2.3.7-.6-.4-.8L4 14.5H2.8l.6 1.1.8 1.3L0 20l4.3 3.3-3 4.4 5.5 1.1-1.1 5.5 4.2-.9 1.1-.2 1.3 5.3 4.6-2.7L20 40l3.3-4.3 4.4 3 1.1-5.5 5.5 1.1z"></path><path fill="#36404D" d="M27 21.9c-.5 0-1-.2-1.3-.6-.4-.4-.6-.8-.6-1.4 0-.5.2-1 .5-1.3s.8-.5 1.3-.5 1 .2 1.4.5c.4.4.6.8.6 1.3s-.2 1-.6 1.4c-.3.4-.8.6-1.3.6zm0-2.9c-.3 0-.5.1-.7.3-.2.2-.3.4-.3.7 0 .3.1.5.3.7.2.2.4.3.7.3.3 0 .5-.1.7-.3.2-.2.3-.4.3-.7 0-.3-.1-.5-.3-.7-.2-.2-.4-.3-.7-.3zM15.6 18v10H14v-8.1c-.3.2-.6.4-.9.5-.3.1-.7.3-1.1.4v-1.4c.3-.1.5-.2.8-.3.2-.1.5-.2.7-.3.2-.1.5-.2.7-.4.2-.1.5-.3.8-.5h.6zM23.6 27.9h-6.1v-.8c0-.3 0-.6.1-.9.1-.3.2-.5.3-.8.1-.2.3-.5.5-.7l.6-.6c.2-.2.5-.4.7-.6.2-.2.5-.4.7-.6.2-.2.4-.4.6-.5.2-.2.3-.3.4-.5l.3-.6c.1-.2.1-.4.1-.7 0-.3 0-.5-.1-.7-.1-.2-.2-.4-.3-.5-.1-.1-.3-.2-.5-.3-.2-.1-.4-.1-.6-.1-.4 0-.8.1-1.2.3s-.8.5-1.2.8v-1.5c.2-.2.4-.3.6-.4l.6-.3c.2-.1.4-.1.7-.2.2 0 .5-.1.8-.1.4 0 .8.1 1.2.2.4.1.7.3.9.5.3.2.5.5.6.8.1.3.2.7.2 1.2 0 .4 0 .8-.1 1.1-.1.3-.2.6-.4.9-.2.3-.4.5-.7.8-.3.2-.5.5-.9.8-.3.2-.5.4-.8.6-.3.2-.5.4-.7.6-.2.2-.4.4-.5.6-.1.2-.2.4-.2.6h4.4v1.6zM1 14h38v1H1z"></path></svg>