<svg viewBox="0 0 40 40" xmlns="http://www.w3.org/2000/svg"><path d="M20 26.5c-7.444 0-13.5-5.832-13.5-13 0-7.775 4.622-13 11.5-13h4c6.878 0 11.5 5.225 11.5 13 0 7.168-6.056 13-13.5 13zm-2.077-23c-6.888 0-7.423 7.017-7.423 9.167 0 5.238 4.439 9.833 9.5 9.833s9.5-4.595 9.5-9.833c0-2.15-.535-9.167-7.423-9.167h-4.154z" fill="#f5ce85"></path><path d="M22 1c6.682 0 11 4.907 11 12.5C33 20.393 27.168 26 20 26S7 20.393 7 13.5C7 5.907 11.318 1 18 1h4m-2 22c5.327 0 10-4.829 10-10.333C30 7.993 27.919 3 22.077 3h-4.154C12.081 3 10 7.993 10 12.667 10 18.171 14.673 23 20 23m2-23h-4C10.8 0 6 5.4 6 13.5 6 20.919 12.307 27 20 27s14-6.081 14-13.5C34 5.4 29.2 0 22 0zm-2 22c-4.957 0-9-4.56-9-9.333C11 10.64 11.498 4 17.923 4h4.154C28.502 4 29 10.64 29 12.667 29 17.44 24.957 22 20 22z" fill="#a16a4a"></path><path d="M20 30c-.55 0-1-.45-1-1v-7c0-.55.45-1 1-1s1 .45 1 1v7c0 .55-.45 1-1 1z" fill="#a16a4a"></path><path fill="#f5ce85" d="M13.707 33L20 26.709 26.293 33 20 39.294z"></path><path d="M20 27.414L25.586 33 20 38.586 14.414 33 20 27.414M20 26l-7 7 7 7 7-7-7-7z" fill="#a16a4a"></path><g><path fill="#f78f8f" d="M17.707 33L20 30.707 22.293 33 20 35.293z"></path><path d="M20 31.414L21.586 33 20 34.586 18.414 33 20 31.414M20 30l-3 3 3 3 3-3-3-3z" fill="#c74343"></path></g></svg>