<svg viewBox="0 0 40 40" xmlns="http://www.w3.org/2000/svg"><path fill="#8bb7f0" d="M6.5 37.5v-35h18.293l8.707 8.707V37.5z"></path><path d="M24.586 3L33 11.414V37H7V3h17.586M25 2H6v36h28V11l-9-9z" fill="#4e7ab5"></path><path fill="#fff" d="M24.5 11.5v-9h.293l8.707 8.707v.293z"></path><path d="M25 3.414L32.586 11H25V3.414M25 2h-1v10h10v-1l-9-9z" fill="#4e7ab5"></path><path d="M11.804 26.608v-8.763h1.56l1.353 3.433c.272.676.688 1.807.936 2.561h.026c-.052-.923-.169-2.443-.169-4.056v-1.938h1.495v8.763h-1.561l-1.339-3.328a26.248 26.248 0 01-.896-2.639h-.026c.052.884.117 2.235.117 4.004v1.963h-1.496zM22.528 22.76h-1.989v2.366h2.249v1.482h-3.952v-8.763h3.81v1.482H20.54v2.015h1.989v1.418zM24.283 17.846h3.81v1.482h-2.106v2.249h1.977v1.417h-1.977v3.614h-1.703v-8.762z" fill="#fff"></path></svg>