<svg viewBox="0 0 40 40" xmlns="http://www.w3.org/2000/svg"><path fill="#bae0bd" d="M1.5 3.5h7v35h-7z"></path><path d="M8 4v34H2V4h6m1-1H1v36h8V3z" fill="#5e9c76"></path><path fill="#bae0bd" d="M11.5 17.5h7v21h-7z"></path><path d="M18 18v20h-6V18h6m1-1h-8v22h8V17z" fill="#5e9c76"></path><path fill="#bae0bd" d="M21.5 24.5h7v14h-7z"></path><path d="M28 25v13h-6V25h6m1-1h-8v15h8V24z" fill="#5e9c76"></path><g><path fill="#bae0bd" d="M31.5 30.5h7v8h-7z"></path><path d="M38 31v7h-6v-7h6m1-1h-8v9h8v-9z" fill="#5e9c76"></path></g><g><path fill="#4e7ab5" d="M35.464 15.05L23.686 3.272l-1.414 1.414L34.05 16.464 30.515 20H39v-8.485z"></path></g></svg>