<svg viewBox="0 0 40 40" xmlns="http://www.w3.org/2000/svg"><path d="M10.089 27.5c-.958-.358-1.887-.922-1.937-1.182 0-4.624 1.531-6.972 4.55-6.972 1.365 0 2.7.478 3.447.802-1.063 1.134-3.414 3.999-3.633 7.352h-2.427z" fill="#f78f8f"></path><path d="M12.702 19.846c.946 0 1.886.25 2.597.504-1.148 1.341-2.89 3.795-3.238 6.65h-1.88c-.636-.247-1.306-.615-1.529-.836.004-1.743.127-6.318 4.05-6.318m0-1c-2.455 0-5.05 1.431-5.05 7.478C7.652 27.155 10 28 10 28h3c0-4.31 4-8 4-8s-2.093-1.154-4.298-1.154z" fill="#c74343"></path><path fill="#f78f8f" d="M37.833 11.334H39.5v4.333h-1.667z"></path><path d="M39 11.834v3.333h-.667v-3.333H39m1-1h-2.667v5.333H40v-5.333z" fill="#c74343"></path><path d="M8.91 34.508a1.67 1.67 0 01-.702-.151L.507 30.688c.079-1.806.836-2.933 1.569-4.024C2.776 25.622 3.5 24.545 3.5 23c0-1.117-.942-2.312-2.998-2.48.07-6.255 1.496-10.291 2.354-12.163.24-.521.772-.857 1.357-.857H37c.827 0 1.5.673 1.5 1.5v16c0 .827-.673 1.5-1.5 1.5h-2.382a.497.497 0 01-.447-.276l-.447-.895a1.493 1.493 0 00-1.342-.829h-9.764c-.572 0-1.086.318-1.342.829l-.447.895a.497.497 0 01-.447.276h-2.688a1.495 1.495 0 01-1.479-1.253l-.792-4.747H14c-.634 0-1.201.268-1.683.796-2.149 2.353-2.039 9.279-1.815 11.749.04.434-.152.743-.319.926-.308.336-.784.537-1.273.537z" fill="#ffc49c"></path><path d="M37 8c.551 0 1 .449 1 1v16c0 .551-.449 1-1 1h-2.382l-.447-.894A1.99 1.99 0 0032.382 24h-9.764a1.99 1.99 0 00-1.789 1.106l-.447.894h-2.688a.995.995 0 01-.986-.836l-.721-4.329-.14-.835H14c-.77 0-1.479.332-2.052.959-2.19 2.397-2.229 8.984-1.944 12.132a.68.68 0 01-.191.544c-.211.231-.557.374-.904.374-.175 0-.341-.036-.482-.101l-7.399-3.525c.142-1.475.786-2.433 1.462-3.44C3.233 25.838 4 24.697 4 23c0-1.286-1.023-2.586-2.99-2.919.129-5.909 1.48-9.725 2.301-11.515A.99.99 0 014.214 8H37m0-1H4.214c-.778 0-1.487.442-1.812 1.149C1.527 10.057 0 14.34 0 21c2 0 3 1 3 2 0 3-3 4-3 8l7.997 3.81c.293.135.604.198.912.198 1.126 0 2.197-.839 2.091-2.008-.368-4.063 0-12 3-12h1l.721 4.329A2.001 2.001 0 0017.694 27h2.688a.998.998 0 00.894-.553l.447-.894c.17-.339.516-.553.895-.553h9.764c.379 0 .725.214.894.553l.447.894c.17.339.516.553.895.553H37a2 2 0 002-2V9a2 2 0 00-2-2z" fill="#a16a4a"></path><path fill="#f78f8f" d="M20.5 11.5h14v9h-14z"></path><path d="M34 12v8H21v-8h13m1-1H20v10h15V11z" fill="#c74343"></path><g><path fill="none" stroke="#c74343" stroke-linecap="round" stroke-miterlimit="10" d="M23.5 14.5h11"></path></g><g><path fill="none" stroke="#c74343" stroke-linecap="round" stroke-miterlimit="10" d="M23.5 17.5h11"></path></g><path d="M17.467 26.144c-.626.67-1.892 1.357-3.134 1.357H10" fill="none" stroke="#a16a4a" stroke-miterlimit="10"></path><g><path d="M1.731 11.5c.439-1.548.884-2.614 1.126-3.143A1.49 1.49 0 014.214 7.5H6.5v-2h2.581l1.333 2H16.5V10c0 .827-.673 1.5-1.5 1.5H1.731z" fill="#ffeea3"></path><path d="M8.813 6l1.036 1.555.297.445H16v2c0 .551-.449 1-1 1H2.401c.364-1.175.71-1.996.911-2.434A.987.987 0 014.214 8H7V6h1.813m.535-1H6v2H4.214c-.778 0-1.487.442-1.812 1.149-.379.827-.878 2.13-1.325 3.851H15a2 2 0 002-2V7h-6.319L9.348 5z" fill="#a16a4a"></path></g></svg>