<svg viewBox="0 0 40 40" xmlns="http://www.w3.org/2000/svg"><path fill="#f2faff" d="M9.5 34.5h21v4h-21z"></path><path d="M30 35v3H10v-3h20m1-1H9v5h22v-5z" fill="#c0d2e2"></path><path d="M9.5 34.5V7a.5.5 0 01.5-.5h20a.5.5 0 01.5.5v27.5h-21z" fill="#e1ebf2"></path><path d="M30 7v27H10V7h20m0-1H10a1 1 0 00-1 1v28h22V7a1 1 0 00-1-1z" fill="#a3b7cc"></path><path fill="#fff" d="M10 7h1v27h-1zM10 35h1v3h-1z"></path><g><path d="M20 30.5a.5.5 0 01-.5-.5V11a.5.5 0 011 0v19a.5.5 0 01-.5.5z" fill="#e1ebf2"></path><path d="M20 10c-.55 0-1 .45-1 1v19c0 .55.45 1 1 1s1-.45 1-1V11c0-.55-.45-1-1-1z" fill="#a3b7cc"></path></g><g><path d="M19.5 38.5V37a.5.5 0 011 0v1.5h-1z" fill="#e1ebf2"></path><path d="M20 36c-.55 0-1 .45-1 1v2h2v-2c0-.55-.45-1-1-1z" fill="#788b9c"></path></g></svg>