<svg viewBox="0 0 40 40" xmlns="http://www.w3.org/2000/svg"><path fill="#bbd6ea" d="M18.5 14.5h3v8h-3z"></path><path d="M21 15v7h-2v-7h2m1-1h-4v9h4v-9z" fill="#a3b7cc"></path><path fill="#bbd6ea" d="M11.5 14.5h1v8h-1z"></path><path d="M12 15v7-7m1-1h-2v9h2v-9z" fill="#a3b7cc"></path><path fill="#bbd6ea" d="M27.5 14.5h1v8h-1z"></path><path d="M28 15v7-7m1-1h-2v9h2v-9z" fill="#a3b7cc"></path><path fill="#f2faff" d="M8.5 34.5h23v4h-23z"></path><path d="M31 35v3H9v-3h22m1-1H8v5h24v-5z" fill="#c0d2e2"></path><path fill="#839cb2" d="M8.5 21.5h23v13h-23z"></path><path d="M31 22v12H9V22h22m1-1H8v14h24V21z" fill="#66798f"></path><path fill="#b0c1d4" d="M9 22h1v12H9z"></path><g><path d="M8.5 15.5V2a.5.5 0 01.5-.5h22a.5.5 0 01.5.5v13.5h-23z" fill="#839cb2"></path><path d="M31 2v13H9V2h22m0-1H9a1 1 0 00-1 1v14h24V2a1 1 0 00-1-1z" fill="#66798f"></path></g><path fill="#b0c1d4" d="M9 2h1v13H9z"></path><path fill="#fff" d="M9 35h1v3H9z"></path><path fill="#7990a3" d="M22 2h9v13h-9zM22 22h9v12h-9z"></path></svg>