<svg viewBox="0 0 40 40" xmlns="http://www.w3.org/2000/svg"><path d="M12 31.5a.5.5 0 01-.5-.5v-3.5h24V31a.5.5 0 01-.5.5H12z" fill="#f5ce85"></path><path d="M35 28v3H12v-3h23m1-1H11v4a1 1 0 001 1h23a1 1 0 001-1v-4z" fill="#967a44"></path><path fill="#967a44" d="M31 28h1v4h-1zM27 27.929h1V32h-1zM23 27.929h1V32h-1zM19 27.929h1V32h-1zM15 27.929h1V32h-1z"></path><path d="M7.5 27.5v-21H36c1.378 0 2.5 1.122 2.5 2.5v16c0 1.378-1.122 2.5-2.5 2.5H7.5z" fill="#bae0bd"></path><path d="M36 7c1.103 0 2 .897 2 2v16c0 1.103-.897 2-2 2H8V7h28m0-1H7v22h29a3 3 0 003-3V9a3 3 0 00-3-3z" fill="#5e9c76"></path><path d="M5.5 38.5v-34h-4v-3H6c1.378 0 2.5 1.122 2.5 2.5v34.5h-3z" fill="#e1ebf2"></path><path d="M6 2c1.103 0 2 .897 2 2v34H6V4H2V2h4m0-1H1v4h4v34h4V4a3 3 0 00-3-3z" fill="#66798f"></path><path fill="#5e9c76" d="M9 15h14v1H9zM9 19h14v1H9z"></path><path fill="#36404d" d="M22 12h11v11H22z"></path></svg>