<svg viewBox="0 0 40 40" xmlns="http://www.w3.org/2000/svg"><path d="M28 5c3.86 0 7 3.14 7 7v16c0 3.86-3.14 7-7 7H12c-3.86 0-7-3.14-7-7V12c0-3.86 3.14-7 7-7h16m0-1H12a8 8 0 00-8 8v16a8 8 0 008 8h16a8 8 0 008-8V12a8 8 0 00-8-8z" fill="#788b9c"></path><path fill="#8bb7f0" d="M16.5 1.5h7v7h-7z"></path><path d="M23 2v6h-6V2h6m1-1h-8v8h8V1z" fill="#4e7ab5"></path><path fill="#8bb7f0" d="M16.5 31.5h7v7h-7z"></path><path d="M23 32v6h-6v-6h6m1-1h-8v8h8v-8z" fill="#4e7ab5"></path><g><path fill="#8bb7f0" d="M31.5 16.5h7v7h-7z"></path><path d="M38 17v6h-6v-6h6m1-1h-8v8h8v-8z" fill="#4e7ab5"></path></g><g><path fill="#8bb7f0" d="M1.5 16.5h7v7h-7z"></path><path d="M8 17v6H2v-6h6m1-1H1v8h8v-8z" fill="#4e7ab5"></path></g></svg>