<svg viewBox="0 0 40 40" xmlns="http://www.w3.org/2000/svg"><path fill="none" stroke="#66798f" stroke-miterlimit="10" d="M26 2l10 5M36.5 39v-3c0-4.887-3.613-8.5-8.5-8.5H10.5c-4.895 0-9-4.059-9-8.955V18.5c0-4.895 4.105-9 9-9h13"></path><path d="M23 13.5a.5.5 0 01-.5-.5v-2.5H21a.5.5 0 01-.5-.5V9a.5.5 0 01.5-.5h1.5V6a.5.5 0 01.5-.5h15a.5.5 0 01.5.5v7a.5.5 0 01-.5.5H23z" fill="#e1ebf2"></path><path d="M38 6v7H23v-3h-2V9h2V6h15m0-1H23a1 1 0 00-1 1v2h-1a1 1 0 00-1 1v1a1 1 0 001 1h1v2a1 1 0 001 1h15a1 1 0 001-1V6a1 1 0 00-1-1z" fill="#66798f"></path><path fill="#b0c1d4" d="M28 10h10v3H28z"></path></svg>