<svg viewBox="0 0 40 40" xmlns="http://www.w3.org/2000/svg"><rect x="1.5" y="24.5" width="37" height="12" rx="2.5" ry="2.5" fill="#b0c1d4"/><path d="M36 25a2 2 0 012 2v7a2 2 0 01-2 2H4a2 2 0 01-2-2v-7a2 2 0 012-2h32m0-1H4a3 3 0 00-3 3v7a3 3 0 003 3h32a3 3 0 003-3v-7a3 3 0 00-3-3z" fill="#66798f"></path><path fill="#66798f" d="M15 29h20v3H15z"></path><circle cx="7.5" cy="30.5" r="2" fill="#99c99e"></circle><path d="M7.5 29A1.5 1.5 0 116 30.5 1.5 1.5 0 017.5 29m0-1a2.5 2.5 0 102.5 2.5A2.5 2.5 0 007.5 28z" fill="#5e9c76"></path><path d="M10.67 20.5a4.31 4.31 0 01-1-8.45l.39-.1v-.53a4.24 4.24 0 014.11-4.32h.24l.54.06.14-.34a5.27 5.27 0 019.83.05l.16.39.41-.08a4.66 4.66 0 01.93-.1A4.83 4.83 0 0131.17 12v.3l.25.19a4.3 4.3 0 01-1.77 8h-.45z" fill="#c2e8ff"></path><path d="M20 4a4.82 4.82 0 014.46 3.08l.31.77.82-.17a4.15 4.15 0 01.83-.09 4.33 4.33 0 014.25 4.35v.68l.49.29a3.8 3.8 0 01-1.56 7H10.67a3.81 3.81 0 01-.9-7.47l.77-.2v-.8a1.69 1.69 0 000-.17 3.74 3.74 0 013.63-3.67h.36l.74.08.29-.68A4.83 4.83 0 0120 4m0-1a5.83 5.83 0 00-5.37 3.65 4.45 4.45 0 00-.47 0A4.73 4.73 0 009.5 11.4v.16A4.81 4.81 0 0010.67 21h19A4.73 4.73 0 0034 16.2a4.8 4.8 0 00-2.34-4.14V12a5.33 5.33 0 00-5.25-5.4 5.12 5.12 0 00-1 .11A5.84 5.84 0 0020 3z" fill="#7496c4"></path></svg>