<svg viewBox="0 0 40 40" xmlns="http://www.w3.org/2000/svg"><path d="M18.5 38.5V24.397l-.417-.07A11.454 11.454 0 018.5 13C8.5 6.659 13.659 1.5 20 1.5S31.5 6.659 31.5 13c0 5.629-4.03 10.394-9.583 11.327l-.417.07V38.5h-3zm1.5-33c-4.136 0-7.5 3.364-7.5 7.5s3.364 7.5 7.5 7.5 7.5-3.364 7.5-7.5-3.364-7.5-7.5-7.5z" fill="#dcd5f2"></path><path d="M20 2c6.065 0 11 4.935 11 11 0 5.385-3.855 9.941-9.166 10.834l-.834.14V38h-2V23.974l-.834-.14A10.955 10.955 0 019 13C9 6.935 13.935 2 20 2m0 19c4.411 0 8-3.589 8-8s-3.589-8-8-8-8 3.589-8 8 3.589 8 8 8m0-20C13.373 1 8 6.372 8 13c0 5.944 4.327 10.866 10 11.82V39h4V24.82c5.673-.954 10-5.876 10-11.82 0-6.628-5.373-12-12-12zm0 19a7 7 0 110-14 7 7 0 010 14z" fill="#8b75a1"></path></svg>