<svg viewBox="0 0 40 40" xmlns="http://www.w3.org/2000/svg"><path d="M24 2c.551 0 1 .449 1 1v3H14V3c0-.551.449-1 1-1h9m0-1h-9a2 2 0 00-2 2v4h13V3a2 2 0 00-2-2z" fill="#967a44"></path><path fill="#f5ce85" d="M1.5 14.5h36v17h-36z"></path><path d="M37 15v16H2V15h35m1-1H1v18h37V14z" fill="#967a44"></path><path d="M5 20.5c-1.93 0-3.5-1.57-3.5-3.5V4.5h36V17c0 1.93-1.57 3.5-3.5 3.5H5z" fill="#f5ce85"></path><path d="M37 5v12c0 1.654-1.346 3-3 3H5c-1.654 0-3-1.346-3-3V5h35m1-1H1v13a4 4 0 004 4h29a4 4 0 004-4V4z" fill="#967a44"></path><circle cx="19.5" cy="16.5" r="1.5" fill="#967a44"></circle><path d="M27 5h-3v-.5a1.5 1.5 0 013 0V5zM15 5h-3v-.5a1.5 1.5 0 013 0V5z" fill="#967a44"></path><g><path fill="#ffeea3" d="M29.045 37.318l-2.828.4-.494-2.813-2.523-1.339L24.455 31 23.2 28.434l2.523-1.339.494-2.813 2.828.4 2.053-1.986 2.053 1.986 2.828-.4.494 2.813 2.523 1.339L37.741 31l1.255 2.566-2.523 1.339-.494 2.813-2.828-.4-2.053 1.986z"></path><path d="M31.098 23.391l1.53 1.48.351.34.484-.068 2.107-.298.368 2.096.084.481.432.229 1.88.997-.935 1.912-.214.44.215.439.935 1.912-1.88.997-.432.229-.084.481-.368 2.096-2.107-.298-.484-.068-.351.34-1.53 1.48-1.53-1.48-.351-.34-.484.068-2.107.298-.368-2.096-.084-.481-.432-.229-1.88-.997.935-1.912.213-.439-.215-.439-.935-1.912 1.88-.997.432-.229.084-.481.368-2.096 2.107.298.484.068.351-.34 1.531-1.481m0-1.391l-2.225 2.152-3.065-.434-.535 3.049-2.735 1.451L23.898 31l-1.36 2.781 2.735 1.451.535 3.049 3.065-.434L31.098 40l2.225-2.152 3.065.434.535-3.049 2.735-1.451L38.298 31l1.36-2.781-2.735-1.451-.535-3.049-3.065.434L31.098 22z" fill="#ba9b48"></path></g></svg>