<svg viewBox="0 0 40 40" xmlns="http://www.w3.org/2000/svg"><path d="M20 38.5C9.799 38.5 1.5 30.201 1.5 20A18.47 18.47 0 015.791 8.181c.37.208.786.319 1.209.319 1.379 0 2.5-1.121 2.5-2.5 0-.363-.079-.718-.232-1.044A18.309 18.309 0 0120 1.5c10.201 0 18.5 8.299 18.5 18.5 0 2.59-.54 5.111-1.607 7.502A2.504 2.504 0 0034.5 30c0 .39.091.77.265 1.115C31.272 35.745 25.778 38.5 20 38.5z" fill="#dcd5f2"></path><path d="M20 2c9.925 0 18 8.075 18 18 0 2.422-.487 4.785-1.448 7.033A3.005 3.005 0 0034 30c0 .36.064.712.189 1.045C30.784 35.411 25.525 38 20 38c-9.925 0-18-8.075-18-18 0-4.069 1.391-8.016 3.932-11.201C6.272 8.931 6.634 9 7 9c1.654 0 3-1.346 3-3 0-.293-.043-.581-.127-.858A17.809 17.809 0 0120 2m0-1c-4.28 0-8.216 1.432-11.392 3.82C8.851 5.152 9 5.557 9 6a2 2 0 01-2 2c-.497 0-.946-.188-1.296-.488C2.783 10.853 1 15.214 1 20c0 10.493 8.507 19 19 19 6.324 0 11.911-3.102 15.364-7.854A2 2 0 0137 28c.07 0 .137.014.206.021A18.903 18.903 0 0039 20C39 9.507 30.493 1 20 1z" fill="#8b75a1"></path><circle cx="16.5" cy="11.5" r="3" fill="#a59dd1"></circle><path d="M16.5 9c1.379 0 2.5 1.121 2.5 2.5S17.879 14 16.5 14 14 12.879 14 11.5 15.121 9 16.5 9m0-1a3.5 3.5 0 100 7 3.5 3.5 0 000-7z" fill="#8b75a1"></path><circle cx="18.5" cy="28.5" r="3" fill="#a59dd1"></circle><path d="M18.5 26c1.379 0 2.5 1.121 2.5 2.5S19.879 31 18.5 31 16 29.879 16 28.5s1.121-2.5 2.5-2.5m0-1a3.5 3.5 0 100 7 3.5 3.5 0 000-7z" fill="#8b75a1"></path><g><circle cx="30" cy="26" r="1.5" fill="#a59dd1"></circle><path d="M30 25c.551 0 1 .449 1 1s-.449 1-1 1-1-.449-1-1 .449-1 1-1m0-1a2 2 0 10-.001 3.999A2 2 0 0030 24z" fill="#8b75a1"></path></g><g><circle cx="10" cy="22" r="1.5" fill="#a59dd1"></circle><path d="M10 21c.551 0 1 .449 1 1s-.449 1-1 1-1-.449-1-1 .449-1 1-1m0-1a2 2 0 10-.001 3.999A2 2 0 0010 20z" fill="#8b75a1"></path></g><g><path d="M38 20c0-9.925-8.075-18-18-18A17.809 17.809 0 009.873 5.142c.084.277.127.565.127.858 0 .019-.005.036-.005.054C11.864 5.434 13.851 5 15.929 5 26.422 5 35 13.578 35 24.071c0 1.536-.259 3.026-.606 4.454a3.001 3.001 0 012.158-1.492A17.786 17.786 0 0038 20z" fill="#a59dd1"></path></g></svg>