<svg viewBox="0 0 40 40" xmlns="http://www.w3.org/2000/svg"><path d="M6 36.5A2.503 2.503 0 013.5 34V6c0-1.379 1.122-2.5 2.5-2.5h28c1.378 0 2.5 1.121 2.5 2.5v28c0 1.379-1.122 2.5-2.5 2.5H6z" fill="#c2e8ff"></path><path d="M34 4c1.103 0 2 .897 2 2v28c0 1.103-.897 2-2 2H6c-1.103 0-2-.897-2-2V6c0-1.103.897-2 2-2h28m0-1H6a3 3 0 00-3 3v28a3 3 0 003 3h28a3 3 0 003-3V6a3 3 0 00-3-3z" fill="#7496c4"></path><path d="M14 26.5c-3.584 0-6.5-2.916-6.5-6.5s2.916-6.5 6.5-6.5 6.5 2.916 6.5 6.5-2.916 6.5-6.5 6.5z" fill="#8bb7f0"></path><path d="M14 14c3.308 0 6 2.692 6 6s-2.692 6-6 6-6-2.692-6-6 2.692-6 6-6m0-1a7 7 0 100 14 7 7 0 000-14zM23 18h10v1H23zM23 14h10v1H23zM23 22h10v1H23zM23 26h6v1h-6z" fill="#4e7ab5"></path><g><path d="M14.5 19.5v-5.981a6.511 6.511 0 015.981 5.981H14.5z" fill="#f78f8f"></path><path d="M15 14.083A6.017 6.017 0 0119.917 19H15v-4.917M14 13v7h7a7 7 0 00-7-7z" fill="#c74343"></path></g></svg>