<svg viewBox="0 0 40 40" xmlns="http://www.w3.org/2000/svg"><path fill="#c2e8ff" d="M7.5 35.5v-32h4v-2h17v2h4v32z"></path><path d="M28 2v2h4v31H8V4h4V2h16m1-1H11v2H7v33h26V3h-4V1z" fill="#7496c4"></path><path d="M12 8h4V7h-4v1zm6 0h4V7h-4v1zm6-1v1h4V7h-4zm-12 4h4v-1h-4v1zm6 0h4v-1h-4v1zm6 0h4v-1h-4v1zm-12 3h4v-1h-4v1zm6 0h4v-1h-4v1zm6 0h4v-1h-4v1zm-12 3h4v-1h-4v1zm6 0h4v-1h-4v1zm6 0h4v-1h-4v1zm-12 3h4v-1h-4v1zm6 0h4v-1h-4v1zm6 0h4v-1h-4v1zm-12 3h4v-1h-4v1zm6 0h4v-1h-4v1zm6 0h4v-1h-4v1zm-12 3h4v-1h-4v1zm6 0h4v-1h-4v1zm6 0h4v-1h-4v1zm-12 3h4v-1h-4v1zm6 0h4v-1h-4v1zm6 0h4v-1h-4v1zm-12 3h4v-1h-4v1zm6 0h4v-1h-4v1zm6 0h4v-1h-4v1z" fill="#74b0d4"></path><path d="M23.52 36h4.557v-1h-5l.443 1zM32 20.821v4.41h1v-3.41l-1-1z" fill="#c2e8ff"></path><g><path fill="#ffeea3" d="M29.045 37.318l-2.828.4-.494-2.813-2.523-1.339L24.455 31 23.2 28.434l2.523-1.339.494-2.813 2.828.4 2.053-1.986 2.053 1.986 2.828-.4.494 2.813 2.523 1.339L37.741 31l1.255 2.566-2.523 1.339-.494 2.813-2.828-.4-2.053 1.986z"></path><path d="M31.098 23.391l1.53 1.48.351.34.484-.068 2.107-.298.368 2.096.084.481.432.229 1.88.997-.935 1.912-.214.44.215.439.935 1.912-1.88.997-.432.229-.084.481-.368 2.096-2.107-.298-.484-.068-.351.34-1.53 1.48-1.53-1.48-.351-.34-.484.068-2.107.298-.368-2.096-.084-.481-.432-.229-1.88-.997.935-1.912.213-.439-.215-.439-.935-1.912 1.88-.997.432-.229.084-.481.368-2.096 2.107.298.484.068.351-.34 1.531-1.481m0-1.391l-2.225 2.152-3.065-.434-.535 3.049-2.735 1.451L23.898 31l-1.36 2.781 2.735 1.451.535 3.049 3.065-.434L31.098 40l2.225-2.152 3.065.434.535-3.049 2.735-1.451L38.298 31l1.36-2.781-2.735-1.451-.535-3.049-3.065.434L31.098 22z" fill="#ba9b48"></path></g></svg>