<svg viewBox="0 0 40 40" xmlns="http://www.w3.org/2000/svg"><path d="M30.5 33.5c0-1.103-.897-2-2-2s-2 .897-2 2h-15c0-1.103-.897-2-2-2s-2 .897-2 2h-6v-27h35v27h-6z" fill="#fff"></path><path d="M36 7v26h-5.05a2.504 2.504 0 00-2.45-2c-1.207 0-2.217.86-2.45 2h-14.1a2.504 2.504 0 00-2.45-2c-1.207 0-2.217.86-2.45 2H2V7h34m1-1H1v28h7v-.5a1.5 1.5 0 013 0v.5h16v-.5a1.5 1.5 0 013 0v.5h7V6z" fill="#788b9c"></path><path fill="#d6e3ed" d="M21.298 33l-.485 1h5.395v-1zM36 22.026v6.578h1V21.86z"></path><circle cx="13" cy="16" r="3.5" fill="#ffeea3"></circle><path d="M13 13c1.654 0 3 1.346 3 3s-1.346 3-3 3-3-1.346-3-3 1.346-3 3-3m0-1a4 4 0 100 8 4 4 0 000-8z" fill="#ba9b48"></path><path d="M7.522 26.5c.253-2.8 2.613-5 5.478-5s5.224 2.2 5.478 5H7.522z" fill="#c2e8ff"></path><path d="M13 22a5.01 5.01 0 014.9 4H8.1a5.01 5.01 0 014.9-4m0-1a6 6 0 00-6 6h12a6 6 0 00-6-6z" fill="#7496c4"></path><g><path fill="none" stroke="#c5d4de" stroke-miterlimit="10" d="M32 16.5H22"></path></g><g><path fill="none" stroke="#c5d4de" stroke-miterlimit="10" d="M32 20.5H22"></path></g><g><path fill="#ffeea3" d="M29.045 37.318l-2.828.4-.494-2.813-2.523-1.339L24.455 31 23.2 28.434l2.523-1.339.494-2.813 2.828.4 2.053-1.986 2.053 1.986 2.828-.4.494 2.813 2.523 1.339L37.741 31l1.255 2.566-2.523 1.339-.494 2.813-2.828-.4-2.053 1.986z"></path><path d="M31.098 23.391l1.53 1.48.351.34.484-.068 2.107-.298.368 2.096.084.481.432.229 1.88.997-.935 1.912-.214.44.215.439.935 1.912-1.88.997-.432.229-.084.481-.368 2.096-2.107-.298-.484-.068-.351.34-1.53 1.48-1.53-1.48-.351-.34-.484.068-2.107.298-.368-2.096-.084-.481-.432-.229-1.88-.997.935-1.912.213-.439-.215-.439-.935-1.912 1.88-.997.432-.229.084-.481.368-2.096 2.107.298.484.068.351-.34 1.531-1.481m0-1.391l-2.225 2.152-3.065-.434-.535 3.049-2.735 1.451L23.898 31l-1.36 2.781 2.735 1.451.535 3.049 3.065-.434L31.098 40l2.225-2.152 3.065.434.535-3.049 2.735-1.451L38.298 31l1.36-2.781-2.735-1.451-.535-3.049-3.065.434L31.098 22z" fill="#ba9b48"></path></g></svg>