<svg viewBox="0 0 40 40" xmlns="http://www.w3.org/2000/svg"><path d="M5.5 37.5v-36h29V29c0 4.687-3.813 8.5-8.5 8.5H5.5z" fill="#fff"></path><path d="M34 2v27c0 4.411-3.589 8-8 8H6V2h28m1-1H5v37h21a9 9 0 009-9V1z" fill="#788b9c"></path><path fill="#d6e3ed" d="M9 5h10v10H9zM21 5h10v10H21z"></path><path fill="#fff" d="M9.5 17.5h21v16h-21z"></path><path d="M30 18v15H10V18h20m1-1H9v17h22V17z" fill="#b7c5cf"></path><path d="M34 28.035A8.965 8.965 0 0125.035 37h-1.45l.17 1h2.002A9.242 9.242 0 0035 28.758v-6.95L34 22v6.035z" fill="#d6e3ed"></path><g><path fill="#ffeea3" d="M29.045 37.318l-2.828.4-.494-2.813-2.523-1.339L24.455 31 23.2 28.434l2.523-1.339.494-2.813 2.828.4 2.053-1.986 2.053 1.986 2.828-.4.494 2.813 2.523 1.339L37.741 31l1.255 2.566-2.523 1.339-.494 2.813-2.828-.4-2.053 1.986z"></path><path d="M31.098 23.391l1.53 1.48.351.34.484-.068 2.107-.298.368 2.096.084.481.432.229 1.88.997-.935 1.912-.214.44.215.439.935 1.912-1.88.997-.432.229-.084.481-.368 2.096-2.107-.298-.484-.068-.351.34-1.53 1.48-1.53-1.48-.351-.34-.484.068-2.107.298-.368-2.096-.084-.481-.432-.229-1.88-.997.935-1.912.213-.439-.215-.439-.935-1.912 1.88-.997.432-.229.084-.481.368-2.096 2.107.298.484.068.351-.34 1.531-1.481m0-1.391l-2.225 2.152-3.065-.434-.535 3.049-2.735 1.451L23.898 31l-1.36 2.781 2.735 1.451.535 3.049 3.065-.434L31.098 40l2.225-2.152 3.065.434.535-3.049 2.735-1.451L38.298 31l1.36-2.781-2.735-1.451-.535-3.049-3.065.434L31.098 22z" fill="#ba9b48"></path></g></svg>