<svg viewBox="0 0 40 40" xmlns="http://www.w3.org/2000/svg"><path d="M7.539 37.5A5.044 5.044 0 012.5 32.461V7.539A5.044 5.044 0 017.539 2.5h24.923a5.045 5.045 0 015.039 5.039v24.923a5.045 5.045 0 01-5.039 5.039H7.539z" fill="#8bb7f0"></path><path d="M32.462 3A4.543 4.543 0 0137 7.538v24.923A4.544 4.544 0 0132.462 37H7.538A4.543 4.543 0 013 32.462V7.538A4.543 4.543 0 017.538 3h24.924m0-1H7.538A5.539 5.539 0 002 7.538v24.923A5.539 5.539 0 007.538 38h24.923A5.539 5.539 0 0038 32.462V7.538A5.539 5.539 0 0032.462 2z" fill="#4e7ab5"></path><path d="M13.769 19.308L29 31.769V9a5 5 0 00-5-5h0" fill="none" stroke="#fff" stroke-width="2" stroke-miterlimit="10"></path><path d="M26.231 20.692L11 8.231V31a5 5 0 005 5h0" fill="none" stroke="#fff" stroke-width="2" stroke-miterlimit="10"></path></svg>