<svg viewBox="0 0 40 40" xmlns="http://www.w3.org/2000/svg"><path d="M13.182 38.5a2.23 2.23 0 01-2.228-2.227V24.5h18.091v11.773a2.23 2.23 0 01-2.227 2.227H13.182z" fill="#b0c1d4"></path><path d="M28.545 25v11.273A1.73 1.73 0 0126.818 38H13.182a1.73 1.73 0 01-1.727-1.727V25h17.09m1-1H10.454v12.273A2.727 2.727 0 0013.181 39h13.636a2.727 2.727 0 002.727-2.727V24h.001z" fill="#66798f"></path><path fill="#f2faff" d="M10.954 10.864h18.091v23.545H10.954z"></path><path d="M28.545 11.364v22.545H11.454V11.364h17.091m1-1H10.454v24.545h19.091V10.364z" fill="#66798f"></path><path fill="#f2faff" d="M28.182 33.545H11.818V13.091l-1.364-.854v-1.873h19.091v1.873l-1.363.854z"></path><circle cx="20" cy="15.818" r="2.227" fill="#8bb7f0"></circle><path d="M20 14.091a1.73 1.73 0 011.727 1.727A1.73 1.73 0 0120 17.545a1.73 1.73 0 01-1.727-1.727A1.73 1.73 0 0120 14.091m0-1a2.727 2.727 0 100 5.454 2.727 2.727 0 000-5.454z" fill="#4e7ab5"></path><path d="M14.126 14.037a6.139 6.139 0 0111.746-.007M11.007 10.943A10.226 10.226 0 0120 5.591c3.883 0 7.261 2.164 8.993 5.352" fill="none" stroke="#4e7ab5" stroke-miterlimit="10"></path><path d="M8.038 7.947C10.599 4.063 15 1.5 20 1.5s9.402 2.563 11.963 6.447" fill="none" stroke="#4e7ab5" stroke-miterlimit="10"></path></svg>