<svg viewBox="0 0 40 40" xmlns="http://www.w3.org/2000/svg"><path d="M18.75 28.667c-.866 0-1.207-.247-1.313-.354-.173-.143-1.312-1.005-2.819-2.146-2.84-2.152-8.127-6.157-8.437-6.442C5.279 19 4.881 19 4.75 19c-1.083.174-1.083 1.182-1.083 1.667 0 .282.104.885.274 1.846.175.986.393 2.214.393 2.737 0 1.271-.393 1.917-1.167 1.917-.922 0-2.667-1.55-2.667-7.417 0-5.339 1.308-6.75 2-6.75.39 0 .463.049.639.166.176.19 9.974 7.814 12.97 10.145.117.087.504.355.891.355.92 0 1.333-2.339 1.333-4 0-2.043-.647-3.885-1.168-5.366-.312-.888-.582-1.656-.582-2.134 0-1.667.908-1.667 1.25-1.667 1.674 0 3.833 4.607 3.833 9.5.001 3.705-1.441 8.668-2.916 8.668z" fill="#8bb7f0"></path><path d="M17.833 11c1.112 0 3.333 3.891 3.333 9 0 4.303-1.641 8.167-2.417 8.167-.595 0-.888-.135-.96-.207l-.039-.039-.043-.035c-.137-.109-1.067-.815-2.838-2.156-2.786-2.11-7.971-6.038-8.329-6.353l-.039-.039-.043-.035c-.899-.72-1.405-.803-1.708-.803h-.083l-.082.014c-1.419.236-1.419 1.679-1.419 2.153 0 .325.097.887.282 1.933.162.916.385 2.171.385 2.65 0 1.417-.484 1.417-.667 1.417C2.46 26.667 1 24.976 1 19.75c0-5.138 1.202-6.25 1.5-6.25.205 0 .258.018.259.018.005.002.022.01.075.045.997.821 7.499 5.888 12.983 10.153.18.135.657.45 1.183.45 1.812 0 1.833-4.316 1.833-4.5 0-2.128-.663-4.016-1.196-5.532-.285-.81-.554-1.575-.554-1.968 0-1.166.434-1.166.75-1.166m0-1c-1.333 0-1.75 1-1.75 2.167 0 1.417 1.75 4.25 1.75 7.5 0 2.167-.583 3.5-.833 3.5s-.583-.25-.583-.25S3.667 13 3.417 12.75c-.25-.167-.417-.25-.917-.25-.917 0-2.5 1.25-2.5 7.25 0 5.833 1.75 7.917 3.167 7.917 1.417 0 1.667-1.417 1.667-2.417s-.667-4-.667-4.583c0-.667.083-1.084.583-1.167.25 0 .667.25 1.083.583.333.333 10.833 8.25 11.25 8.583.25.25.75.5 1.667.5 2.083 0 3.417-5.667 3.417-9.167C22.167 15.083 20 10 17.833 10z" fill="#4e7ab5"></path><path d="M26.75 33.083c-1.438 0-1.75-1.27-1.75-1.583.019-.331.262-.885.569-1.586.785-1.791 2.098-4.789 2.098-9.914 0-4.682-1.283-7.886-2.049-9.801-.287-.715-.534-1.333-.534-1.616 0-.966.771-1.667 1.833-1.667.385 0 .886.224 1.136.724 1.799 3.1 2.864 7.741 2.864 12.443 0 5.22-1.387 9.868-2.762 12.159-.439.732-1.069.841-1.405.841z" fill="#8bb7f0"></path><path d="M26.917 7.417a.81.81 0 01.689.447l.014.028.016.027c.653 1.124 2.781 5.322 2.781 12.165 0 5.855-1.691 10.236-2.691 11.902-.296.494-.694.598-.976.598-1.074 0-1.231-.924-1.248-1.065.034-.282.273-.828.525-1.404.8-1.827 2.14-4.884 2.14-10.114 0-4.778-1.306-8.039-2.086-9.987-.231-.576-.492-1.228-.498-1.43 0-.688.549-1.167 1.334-1.167m0-1c-1.333 0-2.333.917-2.333 2.167S27.167 13.417 27.167 20c0 7.167-2.583 10-2.667 11.5 0 .667.583 2.083 2.25 2.083.583 0 1.333-.25 1.833-1.083 1.25-2.083 2.833-6.667 2.833-12.417C31.417 14.5 30 10 28.5 7.417c-.333-.667-1-1-1.583-1z" fill="#4e7ab5"></path><g><path d="M34.583 36.583c-1.438 0-1.75-1.27-1.75-1.583.018-.313.302-1.026.66-1.928C34.525 30.481 36.25 26.144 36.25 20c0-6.17-1.781-10.708-2.738-13.146-.306-.78-.596-1.518-.596-1.771 0-.966.771-1.667 1.833-1.667.385 0 .886.224 1.136.724 1.461 2.519 3.614 8.814 3.614 15.943 0 7.336-2.412 13.825-3.512 15.659-.438.732-1.068.841-1.404.841z" fill="#8bb7f0"></path><path d="M34.75 3.917a.81.81 0 01.689.447l.014.028.016.027C36.888 6.864 39 13.053 39 20.083c0 6.832-2.241 13.403-3.441 15.402-.296.494-.694.598-.976.598-1.071 0-1.23-.919-1.248-1.064.038-.29.335-1.038.623-1.761C35.002 30.633 36.75 26.24 36.75 20c0-6.265-1.803-10.86-2.772-13.328-.255-.65-.544-1.387-.561-1.588 0-.688.548-1.167 1.333-1.167m0-1c-1.333 0-2.333.917-2.333 2.167S35.75 11.583 35.75 20s-3.333 13.5-3.417 15c0 .667.583 2.083 2.25 2.083.583 0 1.333-.25 1.833-1.083C37.667 33.917 40 27.25 40 20.083S37.833 6.5 36.333 3.916c-.333-.666-1-.999-1.583-.999z" fill="#4e7ab5"></path></g></svg>