<svg viewBox="0 0 40 40" xmlns="http://www.w3.org/2000/svg"><path d="M32.5 15.5a5.991 5.991 0 01-4.343-1.879 5.555 5.555 0 001.743.279 5.706 5.706 0 005.699-5.7 5.664 5.664 0 00-2.434-4.664A6.01 6.01 0 0138.5 9.5c0 3.309-2.691 6-6 6z" fill="#c2e8ff"></path><path d="M34.92 4.561A5.507 5.507 0 0138 9.5c0 3.033-2.467 5.5-5.5 5.5a5.453 5.453 0 01-2.484-.601A6.207 6.207 0 0036.1 8.2a6.17 6.17 0 00-1.18-3.639M32.5 3c-.478 0-.94.059-1.388.156C33.396 3.704 35.1 5.747 35.1 8.2a5.2 5.2 0 01-5.2 5.2c-1.263 0-2.405-.468-3.306-1.217C27.617 14.43 29.87 16 32.5 16a6.5 6.5 0 100-13z" fill="#7496c4"></path><path d="M1.512 38.5c.269-5.559 4.982-10 10.738-10h7.5c5.756 0 10.47 4.441 10.738 10H1.512z" fill="#9f99ce"></path><path d="M19.75 29c5.306 0 9.683 3.954 10.199 9H2.051c.516-5.046 4.893-9 10.199-9h7.5m0-1h-7.5C6.037 28 1 32.925 1 39h30c0-6.075-5.037-11-11.25-11z" fill="#8b75a1"></path><path d="M16 31.5c-3.075 0-4.297-2.625-4.5-3.123V22.91h9v5.468c-.203.497-1.425 3.122-4.5 3.122z" fill="#b9b1dd"></path><path d="M20 23.41v4.865c-.263.59-1.393 2.725-4 2.725-2.611 0-3.741-2.141-4-2.725V23.41h8m1-1H11v6.062s1.267 3.529 5 3.529 5-3.529 5-3.529V22.41z" fill="#8b75a1"></path><g><path d="M22.429 20.643c-1.143 0-2.071-.929-2.071-2.071s.929-2.071 2.071-2.071c1.725 0 2.071.465 2.071 1.214 0 1.251-1.024 2.928-2.071 2.928zm-12.858 0c-1.047 0-2.071-1.677-2.071-2.928 0-.75.347-1.214 2.071-1.214 1.143 0 2.071.929 2.071 2.071s-.928 2.071-2.071 2.071z" fill="#9f99ce"></path><path d="M22.429 17C24 17 24 17.363 24 17.714c0 1.044-.896 2.429-1.571 2.429a1.572 1.572 0 010-3.143M9.571 17c.867 0 1.571.705 1.571 1.571s-.705 1.571-1.571 1.571C8.896 20.143 8 18.758 8 17.714 8 17.363 8 17 9.571 17m12.858-1a2.57 2.57 0 100 5.142c1.42 0 2.571-2.008 2.571-3.428S23.849 16 22.429 16zM9.571 16C8.151 16 7 16.294 7 17.714s1.151 3.429 2.571 3.429a2.57 2.57 0 100-5.143z" fill="#8b75a1"></path></g><g><path d="M16 27.5c-.58 0-1.134-.224-1.56-.631l-.09-.086-.12-.034a6.52 6.52 0 01-4.73-6.25v-8.136a2.839 2.839 0 012.836-2.836h7.328a2.84 2.84 0 012.836 2.836V20.5a6.522 6.522 0 01-4.73 6.25l-.12.034-.09.086c-.426.406-.98.63-1.56.63z" fill="#dcd5f2"></path><path d="M19.664 10.028A2.339 2.339 0 0122 12.364V20.5a6.017 6.017 0 01-4.367 5.768l-.239.068-.18.172c-.332.317-.763.492-1.214.492s-.882-.175-1.215-.492l-.18-.172-.239-.068A6.017 6.017 0 0110 20.5v-8.136a2.339 2.339 0 012.336-2.336h7.328m0-1h-7.328A3.336 3.336 0 009 12.364V20.5c0 3.205 2.156 5.9 5.095 6.731.496.474 1.165.769 1.905.769s1.409-.295 1.905-.769A6.998 6.998 0 0023 20.5v-8.136a3.336 3.336 0 00-3.336-3.336z" fill="#8b75a1"></path></g><g><path d="M22.5 18.5V15c0-3.483-2.218-4.425-2.312-4.463l-.343-.139-.234.288c-.022.027-2.328 2.814-5.611 2.814-.264 0-.529-.009-.791-.017-.265-.008-.525-.017-.777-.017-.878 0-2.932 0-2.932 2.534v2.5h-.215c-.44-.773-1.785-3.349-1.785-5.924C7.5 7.821 10.995 4.5 16 4.5c3.095 0 4.543 2.704 4.557 2.731l.119.227.253.037C22.462 7.714 24.5 8.524 24.5 13c0 2.329-1.338 4.761-1.778 5.5H22.5z" fill="#9f99ce"></path><path d="M16 5c2.762 0 4.062 2.367 4.113 2.463l.237.454.507.073C22.321 8.199 24 8.958 24 13c0 1.395-.515 2.842-1 3.894V15c0-3.816-2.516-4.883-2.623-4.926l-.687-.279-.467.577C19.201 10.397 17.06 13 14 13c-.259 0-.519-.008-.775-.017a24.05 24.05 0 00-.794-.017c-.849 0-3.431 0-3.431 3.034v.807c-.486-1.122-1-2.676-1-4.23C8 8.115 11.29 5 16 5m0-1c-5.36 0-9 3.667-9 8.576C7 15.828 9 19 9 19h1v-3c0-1.791 1.085-2.034 2.431-2.034.501 0 1.038.034 1.569.034 3.573 0 6-3 6-3s2 .813 2 4v4h1s2-3.037 2-6c0-4.161-1.703-5.671-4-6 0 0-1.566-3-5-3z" fill="#8b75a1"></path></g></svg>