<svg viewBox="0 0 40 40" xmlns="http://www.w3.org/2000/svg"><path fill="#b9b1dd" d="M.946 36.5L15 15.888 29.054 36.5z"></path><path d="M15 16.775L28.108 36H1.892L15 16.775M15 15L0 37h30L15 15z" fill="#8b75a1"></path><path fill="#dcd5f2" d="M16.935 36.5L28 19.901 39.065 36.5z"></path><path d="M28 20.803L38.131 36H17.869L28 20.803M28 19L16 37h24L28 19z" fill="#8b75a1"></path><g><path d="M31.5 15.5a5.991 5.991 0 01-4.343-1.879 5.555 5.555 0 001.743.279 5.706 5.706 0 005.699-5.7 5.664 5.664 0 00-2.434-4.664A6.01 6.01 0 0137.5 9.5c0 3.309-2.691 6-6 6z" fill="#c2e8ff"></path><path d="M33.92 4.561A5.507 5.507 0 0137 9.5c0 3.033-2.467 5.5-5.5 5.5a5.453 5.453 0 01-2.484-.601A6.207 6.207 0 0035.1 8.2a6.17 6.17 0 00-1.18-3.639M31.5 3c-.478 0-.94.059-1.388.156C32.396 3.704 34.1 5.747 34.1 8.2a5.2 5.2 0 01-5.2 5.2c-1.263 0-2.405-.468-3.306-1.217C26.617 14.43 28.87 16 31.5 16a6.5 6.5 0 100-13z" fill="#7496c4"></path></g></svg>