<svg viewBox="0 0 40 40" xmlns="http://www.w3.org/2000/svg"><circle cx="26.5" cy="9.5" r="5" fill="#b08159"></circle><path d="M26.5 5C28.981 5 31 7.019 31 9.5S28.981 14 26.5 14 22 11.981 22 9.5 24.019 5 26.5 5m0-1a5.5 5.5 0 100 11 5.5 5.5 0 100-11z" fill="#704e34"></path><circle cx="13.5" cy="9.5" r="5" fill="#b08159"></circle><path d="M13.5 5C15.981 5 18 7.019 18 9.5S15.981 14 13.5 14 9 11.981 9 9.5 11.019 5 13.5 5m0-1a5.5 5.5 0 100 11 5.5 5.5 0 100-11z" fill="#704e34"></path><path d="M1.51 23.5c.125-3.204 1.391-7.984 2.461-11.519C4.783 9.301 7.202 7.5 9.99 7.5h20.012c2.791 0 5.21 1.804 6.021 4.489 1.072 3.551 2.339 8.343 2.467 11.511H1.51z" fill="#d6aa70"></path><path d="M30.002 8c2.569 0 4.796 1.661 5.542 4.133C36.55 15.467 37.73 19.898 37.96 23H2.039c.227-3.132 1.406-7.555 2.411-10.873C5.197 9.659 7.424 8 9.99 8h20.012m0-1H9.99a6.792 6.792 0 00-6.497 4.837C2.348 15.617 1 20.756 1 24h38c0-3.201-1.353-8.359-2.499-12.156A6.793 6.793 0 0030.002 7z" fill="#8c6a3f"></path><path d="M8.5 31.5c-3.86 0-7-3.141-7-7s3.14-7 7-7h23c3.86 0 7 3.141 7 7s-3.14 7-7 7h-23z" fill="#f5ce85"></path><path d="M31.5 18c3.584 0 6.5 2.916 6.5 6.5S35.084 31 31.5 31h-23C4.916 31 2 28.084 2 24.5S4.916 18 8.5 18h23m0-1h-23C4.375 17 1 20.375 1 24.5S4.375 32 8.5 32h23c4.125 0 7.5-3.375 7.5-7.5S35.625 17 31.5 17z" fill="#8c6a3f"></path><path d="M32.5 22h-25a.501.501 0 01-.5-.5c0-.275.225-.5.5-.5h25c.275 0 .5.225.5.5s-.225.5-.5.5zM35.5 25h-31a.501.501 0 01-.5-.5c0-.275.225-.5.5-.5h31c.275 0 .5.225.5.5s-.225.5-.5.5zM32.5 28h-25a.501.501 0 01-.5-.5c0-.275.225-.5.5-.5h25c.275 0 .5.225.5.5s-.225.5-.5.5z" fill="#8c6a3f"></path><circle cx="20" cy="28" r="7.5" fill="#c2e8ff"></circle><path d="M20 21c3.86 0 7 3.14 7 7s-3.14 7-7 7-7-3.14-7-7 3.14-7 7-7m0-1a8 8 0 100 16 8 8 0 000-16z" fill="#788b9c"></path><path d="M23.771 23.996A5.481 5.481 0 0020 22.5c-1.461 0-2.79.57-3.775 1.5" fill="none" stroke="#fff" stroke-linecap="round" stroke-miterlimit="10"></path><g><ellipse cx="20" cy="12.5" rx="3" ry="1.5" fill="#8c6a3f"/></g><g><path d="M12 11.346v1.319c0 .726-.611 1.319-1.357 1.319H7.25c-1.588 0-3.081.383-4.424 1.016.217-.792.461-1.596.719-2.454C6.164 10.026 7.711 10 9.001 10h.014c.258 0 .502.013.76.013.285.013.584.013.869.013.745 0 1.356.594 1.356 1.32z" fill="#8c6a3f"></path></g><g><path d="M28 11.346v1.319c0 .726.611 1.319 1.357 1.319h3.393c1.588 0 3.081.383 4.424 1.016-.217-.792-.461-1.596-.719-2.454C33.836 10.026 32.289 10 30.999 10h-.014c-.258 0-.502.013-.76.013-.285.013-.584.013-.869.013-.745 0-1.356.594-1.356 1.32z" fill="#8c6a3f"></path></g></svg>