<svg viewBox="0 0 40 40" xmlns="http://www.w3.org/2000/svg"><path d="M35.51 15.207c.108-5.885 1.419-8.444 2.083-9.369.359.721.907 2.244.907 4.829 0 2.577-1.928 3.969-2.99 4.54z" fill="#c74343"></path><path d="M37.505 6.969c.256.808.495 2.014.495 3.698 0 1.78-1.042 2.94-1.962 3.616.165-3.902.885-6.127 1.467-7.314M37.667 5s-2.664 2-2.664 10.99c0 0 3.997-1.435 3.997-5.324C39 6.556 37.667 5 37.667 5z" fill="#ab3434"></path><path d="M20 36.5c-4.531 0-8.588-1.832-10.586-4.78l-.096-.142-.163-.054C3.331 29.619.5 26.83.5 23c0-2.501 1.556-4.65 4.757-6.571l.22-.132.021-.256C6.104 8.774 12.202 3.5 20 3.5s13.896 5.274 14.502 12.541l.02.243.204.134C38.117 18.64 39.5 20.546 39.5 23c0 3.795-2.832 6.584-8.658 8.525l-.152.051-.095.131C28.551 34.529 24.194 36.5 20 36.5z" fill="#99c99e"></path><path d="M20 4c7.531 0 13.42 5.082 14.003 12.083l.04.486.408.267C37.682 18.953 39 20.739 39 23c0 3.552-2.72 6.186-8.316 8.051l-.305.102-.189.26C28.235 34.114 24.044 36 20 36c-4.369 0-8.266-1.748-10.172-4.561l-.192-.283-.325-.106C3.719 29.219 1 26.586 1 23c0-2.311 1.477-4.32 4.514-6.143l.439-.264.043-.511C6.58 9.082 12.469 4 20 4m0-1C11.979 3 5.633 8.401 5 16c-3.166 1.9-5 4.15-5 7 0 4.222 3.195 7.1 9 9 2.216 3.272 6.567 5 11 5 4.222 0 8.784-1.939 11-5 5.699-1.9 9-4.778 9-9 0-2.955-1.939-4.995-5-7-.633-7.599-6.979-13-15-13z" fill="#5e9c76"></path><path d="M11.764 18.482C8.801 18.251 7.227 17.058 5.833 16a41.908 41.908 0 00-.309-.233 13.327 13.327 0 012.465-6.474C9.334 8.709 10.933 8.5 12 8.5c1.586 0 2.906.788 4.184 1.55 1.25.746 2.43 1.45 3.816 1.45s2.566-.704 3.816-1.45C25.094 9.288 26.414 8.5 28 8.5c.949 0 2.722.348 4.108.933a13.152 13.152 0 012.368 6.334c-.103.076-.205.154-.31.233-1.391 1.055-2.962 2.247-5.912 2.481C27.458 17.409 24.547 14.5 20 14.5c-4.764 0-7.498 3.03-8.236 3.982z" fill="#f78f8f"></path><path d="M28 9c.87 0 2.477.311 3.783.839a12.638 12.638 0 012.164 5.7l-.083.063c-1.293.98-2.747 2.084-5.385 2.357C27.418 16.657 24.498 14 20 14c-4.496 0-7.417 2.657-8.479 3.959-2.638-.273-4.093-1.376-5.385-2.357l-.082-.063a12.822 12.822 0 012.26-5.841C9.561 9.186 11.016 9 12 9c1.448 0 2.653.719 3.928 1.48C17.181 11.227 18.476 12 20 12s2.819-.773 4.072-1.52C25.347 9.719 26.552 9 28 9m0-1c-3.272 0-5.362 3-8 3s-4.728-3-8-3c-1.061 0-2.829.204-4.335.889A13.765 13.765 0 005 16c1.583 1.161 3.306 2.789 7 3 .026-.049 2.691-4 8-4 5.14 0 7.893 3.797 8 4 3.694-.211 5.417-1.839 7-3a13.772 13.772 0 00-2.565-6.972C30.955 8.378 29.051 8 28 8z" fill="#c74343"></path><path d="M35.139 15.372c-.255-.696-.639-2.505-.639-4.372 0-.789.481-3.372.807-4.999.826.903 2.182 2.729 2.193 5.002-.001 2.682-1.53 3.904-2.361 4.369z" fill="#f78f8f"></path><path d="M35.595 7.13c.683.932 1.397 2.284 1.405 3.87 0 1.915-.852 3.001-1.573 3.577A15.858 15.858 0 0135 11c0-.567.291-2.274.595-3.87M35 5s-1 4.778-1 6c0 2.419.653 5.011.966 5.011A.062.062 0 0035 16c.349-.153 2.999-1.356 3-5-.018-3.54-3-6-3-6z" fill="#c74343"></path><path d="M20 29c-6.045 0-9.298-2.597-9.328-2.623l.646-.764C11.347 25.638 14.349 28 20 28s8.653-2.362 8.683-2.387l.646.764C29.298 26.403 26.045 29 20 29z" fill="#5e9c76"></path><path d="M13.701 16.481c-4.07-.058-5.942-1.572-6.021-1.637l-.406-.337.358-.387c.099-.107 2.458-2.621 5.7-2.621 2.306 0 3.708 1.224 4.945 2.303l.777.678-.997.205a10.531 10.531 0 00-4.066 1.707l-.131.091-.159-.002z" fill="#fff"></path><path d="M13.333 12c2.128 0 3.41 1.128 4.633 2.194a11.087 11.087 0 00-4.258 1.787C9.768 15.925 8 14.46 8 14.46S10.273 12 13.333 12m0-1c-3.458 0-5.963 2.667-6.068 2.781l-.716.775.812.673c.083.069 2.088 1.692 6.332 1.752l.32.005.263-.182a10.031 10.031 0 013.874-1.627l2.027-.381-1.555-1.356C17.366 12.344 15.824 11 13.333 11z" fill="#c74343"></path><circle cx="13.5" cy="14.5" r="1.5"></circle><g><path d="M25.974 16.393a10.503 10.503 0 00-4.065-1.707l-1.015-.189.777-.679c1.255-1.094 2.657-2.317 4.962-2.317 3.242 0 5.602 2.514 5.7 2.621l.358.387-.406.337c-.078.064-1.95 1.579-6.021 1.637l-.16.002-.13-.092z" fill="#fff"></path><path d="M26.633 12c3.061 0 5.333 2.46 5.333 2.46s-1.768 1.466-5.708 1.522A11.087 11.087 0 0022 14.195C23.223 13.128 24.505 12 26.633 12m0-1c-2.491 0-4.032 1.343-5.27 2.423l-1.555 1.356 2.008.398c1.386.26 2.689.808 3.874 1.627l.263.182.32-.005c4.244-.06 6.249-1.683 6.332-1.752l.812-.673-.716-.775c-.105-.114-2.61-2.781-6.068-2.781z" fill="#c74343"></path></g><circle cx="26.466" cy="14.5" r="1.5"></circle><path d="M20 14c-5.057 0-8.122 3.361-8.789 4.375l-.486.486c.398.065.821.113 1.275.139.026-.049 2.691-4 8-4a9.853 9.853 0 015.353 1.561c.75.477 1.345.989 1.779 1.421.543.54.835.955.868 1.018.454-.026.877-.074 1.275-.14l-.486-.486C28.122 17.36 25.058 14 20 14z" fill="#5e9c76"></path></svg>