<svg viewBox="0 0 40 40" xmlns="http://www.w3.org/2000/svg"><path d="M20 22.5c-1.93 0-3.5-1.57-3.5-3.5V6.5h7V19c0 1.93-1.57 3.5-3.5 3.5z" fill="#8bb7f0"></path><path d="M23 7v12c0 1.654-1.346 3-3 3s-3-1.346-3-3V7h6m1-1h-8v13c0 2.206 1.794 4 4 4s4-1.794 4-4V6z" fill="#4e7ab5"></path><g><path d="M3 33.5A2.502 2.502 0 01.5 31V9C.5 7.621 1.621 6.5 3 6.5h7.5V19c0 5.238 4.262 9.5 9.5 9.5s9.5-4.262 9.5-9.5V6.5H37c1.379 0 2.5 1.121 2.5 2.5v22c0 1.379-1.121 2.5-2.5 2.5H3z" fill="#8bb7f0"></path><path d="M37 7c1.103 0 2 .897 2 2v22c0 1.103-.897 2-2 2H3c-1.103 0-2-.897-2-2V9c0-1.103.897-2 2-2h7v12c0 5.514 4.486 10 10 10s10-4.486 10-10V7h7m0-1h-8v13c0 4.95-4.05 9-9 9s-9-4.05-9-9V6H3C1.35 6 0 7.35 0 9v22c0 1.65 1.35 3 3 3h34c1.65 0 3-1.35 3-3V9c0-1.65-1.35-3-3-3z" fill="#4e7ab5"></path></g></svg>