<svg viewBox="0 0 40 40" xmlns="http://www.w3.org/2000/svg"><path d="M11 18.5A2.502 2.502 0 018.5 16V3C8.5 1.621 9.621.5 11 .5h18c1.379 0 2.5 1.121 2.5 2.5v13c0 1.379-1.121 2.5-2.5 2.5H11zm1.5-4h15v-10h-15v10z" fill="#b6c9d6"></path><path d="M29 1c1.103 0 2 .897 2 2v13c0 1.103-.897 2-2 2H11c-1.103 0-2-.897-2-2V3c0-1.103.897-2 2-2h18M12 15h16V4H12v11M29 0H11C9.35 0 8 1.35 8 3v13c0 1.65 1.35 3 3 3h18c1.65 0 3-1.35 3-3V3c0-1.65-1.35-3-3-3zM13 14V5h14v9H13z" fill="#788b9c"></path><g><path d="M11 39.5A2.502 2.502 0 018.5 37V24c0-1.379 1.121-2.5 2.5-2.5h18c1.379 0 2.5 1.121 2.5 2.5v13c0 1.379-1.121 2.5-2.5 2.5H11zm1.5-4h15v-10h-15v10z" fill="#e1ebf2"></path><path d="M29 22c1.103 0 2 .897 2 2v13c0 1.103-.897 2-2 2H11c-1.103 0-2-.897-2-2V24c0-1.103.897-2 2-2h18M12 36h16V25H12v11m17-15H11c-1.65 0-3 1.35-3 3v13c0 1.65 1.35 3 3 3h18c1.65 0 3-1.35 3-3V24c0-1.65-1.35-3-3-3zM13 35v-9h14v9H13z" fill="#788b9c"></path></g></svg>