<svg viewBox="0 0 40 40" xmlns="http://www.w3.org/2000/svg"><path d="M21.083 8.503c.343-.403 1.001-1.318 2.172-2.963.604-.849 1.362-1.912 1.852-2.562.181.891.393 2.501.393 4.022 0 2.291-.384 5.107-.528 5.45-1.074 1.819-2.5 2.742-3.291 3.143l-.598-7.09z" fill="#deb974"></path><path d="M24.806 4.231C24.913 5.04 25 6.034 25 7c0 2.113-.334 4.712-.484 5.236a7.899 7.899 0 01-2.403 2.523l-.514-6.096c.355-.444.947-1.265 2.062-2.831.357-.501.769-1.08 1.145-1.601M25.287 2c-.237 0-4.245 5.929-4.72 6.325l.675 8.003s2.486-.788 4.173-3.646C25.611 12.348 26 9.287 26 7s-.476-5-.713-5z" fill="#967a44"></path><path d="M1.704 23.015c1.009-.976 3.993-3.832 6.423-5.812 2.73-2.495 6.118-4.778 6.151-4.801l.228-.152-.006-.274c-.021-.966.184-3.691 1.358-4.695 1.857-1.588 3.034-3.364 4.177-5.336.898 1.364 1.465 2.609 1.465 5.688v3.706l.314.126c.038.015 3.85 1.54 5.852 2.695 1.309.741 1.598 1.677 1.853 2.501.176.569.343 1.107.85 1.384 2.417 1.351 4.76 3.188 6.11 4.792l.081.096.116.046c1.132.453 1.798.977 1.826 1.436.025.421-.487.954-1.407 1.462l-.102.056-.066.095c-2.089 2.975-3.248 4.106-4.106 4.822-.576.442-1.074.627-1.705.627-.601 0-1.325-.179-2.216-.547-2.707-1.174-5.815-2.429-8.345-2.429-3.473 0-5.055 3.34-5.055 6.442v2.699L1.704 23.015z" fill="#f5ce85"></path><path d="M20.044 2.914c.609 1.09.956 2.295.956 4.719V11.677l.629.251c.038.015 3.816 1.528 5.794 2.669 1.132.641 1.379 1.439 1.617 2.211.189.61.403 1.302 1.079 1.671 2.836 1.585 4.947 3.456 5.976 4.679l.161.191.232.093c1.235.494 1.507.917 1.513 1.003.004.069-.187.461-1.15.993l-.202.112-.133.189c-2.058 2.928-3.185 4.032-3.987 4.7-.502.386-.899.537-1.416.537-.534 0-1.196-.167-2.01-.503C26.345 29.276 23.179 28 20.555 28 17.284 28 15 30.855 15 34.942v1.44L2.407 23.032c1.234-1.185 3.861-3.669 6.035-5.442l.022-.018.021-.019c2.681-2.451 6.039-4.714 6.072-4.736l.454-.305-.011-.548c-.019-.838.159-3.428 1.183-4.304 1.686-1.441 2.819-3.019 3.861-4.746M20 1c-1.207 2.129-2.4 4.133-4.467 5.9C13.917 8.281 14 11.986 14 11.986s-3.419 2.296-6.19 4.829C4.802 19.269 1.003 23 1.003 23L16 38.9v-3.958C16 31.855 17.547 29 20.555 29c2.533 0 5.779 1.361 8.153 2.39.996.412 1.768.586 2.408.586.835 0 1.443-.296 2.025-.744.95-.792 2.137-1.989 4.195-4.918 2.296-1.267 2.296-2.691-.475-3.8-1.267-1.504-3.562-3.404-6.253-4.908-.871-.475-.317-2.533-2.691-3.879C25.858 12.54 22 11 22 11V7.633C22 3.912 21.167 2.7 20 1z" fill="#967a44"></path><circle cx="27" cy="19" r="1" fill="#36404d"></circle><g><path d="M37.248 25.788c-1.033-.211-1.755-.698-2.556-1.747.534-.266 1.396-.68 2.164-.987 1.021.435 1.618.926 1.646 1.36.024.398-.431.894-1.254 1.374z" fill="#b6c9d6"></path><path d="M36.849 23.596c.93.426 1.149.772 1.153.849.004.061-.144.373-.84.811-.651-.165-1.158-.474-1.68-1.044.417-.199.903-.423 1.367-.616m.012-1.082c-1.289.496-2.915 1.345-2.915 1.345.992 1.446 1.883 2.197 3.39 2.455 2.296-1.267 2.296-2.692-.475-3.8z" fill="#788b9c"></path></g><path fill="none" stroke="#36404d" stroke-miterlimit="10" d="M3 3l34 34"></path></svg>