<svg viewBox="0 0 40 40" xmlns="http://www.w3.org/2000/svg"><path d="M4 27.5A2.503 2.503 0 011.5 25V15c0-1.378 1.122-2.5 2.5-2.5h5.5v15H4z" fill="#b0c1d4"></path><path d="M9 13v14H4c-1.103 0-2-.897-2-2V15c0-1.103.897-2 2-2h5m1-1H4a3 3 0 00-3 3v10a3 3 0 003 3h6V12z" fill="#66798f"></path><path fill="#b0c1d4" d="M9.5 27.909V12.27l12-10.189v35.85z"></path><path d="M21 3.161v33.701l-11-9.187V12.501l11-9.34M22 1L9 12.038v16.105L22 39V1z" fill="#66798f"></path><path d="M27.01 35.72C33.672 33.599 38.5 27.365 38.5 20S33.672 6.401 27.01 4.28" fill="none" stroke="#8bb7f0" stroke-miterlimit="10"></path><path d="M25.591 31.269C30.201 29.595 33.5 25.188 33.5 20s-3.299-9.595-7.909-11.269" fill="none" stroke="#8bb7f0" stroke-miterlimit="10"></path><path d="M23.974 26.193C26.598 25.357 28.5 22.901 28.5 20s-1.902-5.357-4.526-6.193" fill="none" stroke="#8bb7f0" stroke-miterlimit="10"></path><path fill="none" stroke="#36404d" stroke-miterlimit="10" d="M3 2l34 34"></path></svg>