<svg viewBox="0 0 40 40" xmlns="http://www.w3.org/2000/svg"><path fill="#deb974" d="M8.694 6.5l1.666-5h19.28l1.666 5z"></path><path d="M29.279 2l1.333 4H9.387l1.333-4h18.559M30 1H10L8 7h24l-2-6z" fill="#967a44"></path><path fill="#f5ce85" d="M9.547 38.5l-2.636-29h26.178l-2.636 29z"></path><path d="M32.541 10l-2.545 28H10.004L7.459 10h25.082m1.095-1H6.364l2.727 30h21.818l2.727-30z" fill="#967a44"></path><g><path d="M4.5 9.5V9c0-1.93 1.57-3.5 3.5-3.5h24c1.93 0 3.5 1.57 3.5 3.5v.5h-31z" fill="#deb974"></path><path d="M32 6c1.654 0 3 1.346 3 3H5c0-1.654 1.346-3 3-3h24m0-1H8a4 4 0 00-4 4v1h32V9a4 4 0 00-4-4z" fill="#967a44"></path></g><path fill="none" stroke="#36404d" stroke-miterlimit="10" d="M3 3l34 34"></path></svg>