<svg viewBox="0 0 40 40" xmlns="http://www.w3.org/2000/svg"><path d="M33 6h-3V4.75a.75.75 0 01.75-.75h1.5a.75.75 0 01.75.75V6zM10 6H7V4.75A.75.75 0 017.75 4h1.5a.75.75 0 01.75.75V6zM23.5 3a.5.5 0 01.5.5V11h-8V3.5a.5.5 0 01.5-.5h7m0-1h-7A1.5 1.5 0 0015 3.5V12h10V3.5A1.5 1.5 0 0023.5 2z" fill="#704e34"></path><path d="M4 34.5A2.502 2.502 0 011.5 32V8c0-1.379 1.121-2.5 2.5-2.5h32c1.379 0 2.5 1.121 2.5 2.5v24c0 1.379-1.121 2.5-2.5 2.5H4z" fill="#ffc49c"></path><path d="M36 6c1.103 0 2 .897 2 2v24c0 1.103-.897 2-2 2H4c-1.103 0-2-.897-2-2V8c0-1.103.897-2 2-2h32m0-1H4a3 3 0 00-3 3v24a3 3 0 003 3h32a3 3 0 003-3V8a3 3 0 00-3-3z" fill="#a16a4a"></path><path fill="none" stroke="#a16a4a" stroke-miterlimit="10" d="M30.5 5.071v29.858M32.5 5.071v29.858M7.5 5.071v29.858M9.5 5.071v29.858"></path><path fill="none" stroke="#36404d" stroke-miterlimit="10" d="M3 3l34 34"></path></svg>