<svg viewBox="0 0 40 40" xmlns="http://www.w3.org/2000/svg"><path d="M24 30.5c-7.995 0-14.5-6.505-14.5-14.5S16.005 1.5 24 1.5 38.5 8.005 38.5 16 31.995 30.5 24 30.5z" fill="#ffeea3"></path><path d="M24 2c7.72 0 14 6.28 14 14s-6.28 14-14 14-14-6.28-14-14S16.28 2 24 2m0-1C15.716 1 9 7.716 9 16s6.716 15 15 15 15-6.716 15-15S32.284 1 24 1z" fill="#ba9b48"></path><circle cx="24" cy="16" r="11" fill="#f5ce85"></circle><path d="M17 38.5C8.453 38.5 1.5 31.547 1.5 23S8.453 7.5 17 7.5 32.5 14.453 32.5 23 25.547 38.5 17 38.5z" fill="#ffeea3"></path><path d="M17 8c8.271 0 15 6.729 15 15s-6.729 15-15 15S2 31.271 2 23 8.729 8 17 8m0-1C8.163 7 1 14.163 1 23s7.163 16 16 16 16-7.163 16-16S25.837 7 17 7z" fill="#ba9b48"></path><circle cx="17" cy="23" r="12" fill="#f5ce85"></circle><g><path d="M13.447 29.497V27.44c.867.584 1.746.876 2.638.876.898 0 1.62-.229 2.168-.687.547-.458.821-1.068.821-1.831 0-.75-.278-1.334-.835-1.752-.556-.418-1.354-.627-2.394-.627-.357 0-1.079.037-2.168.111l.47-6.955h6.512v1.826h-4.732l-.221 3.311c.424-.025.809-.037 1.153-.037 1.402 0 2.486.36 3.251 1.079s1.148 1.703 1.148 2.952c0 1.31-.438 2.36-1.314 3.15-.876.79-2.08 1.185-3.611 1.185-1.29 0-2.253-.181-2.886-.544z" fill="#967a44"></path></g><path fill="none" stroke="#36404d" stroke-miterlimit="10" d="M3 3l34 34"></path></svg>