<svg viewBox="0 0 40 40" xmlns="http://www.w3.org/2000/svg"><path d="M9.088 38.5a7.534 7.534 0 01-5.365-2.223c-2.958-2.958-2.958-7.772 0-10.73C5.741 23.529 20.206 10.384 24.499 6.56l-.774 4.461c-3.118 2.735-16.859 14.922-16.94 17.377a.784.784 0 00.223.602l.146.146.265.02c1.351 0 12.818-11.73 19.756-18.958l2.455 1.74c-19.176 19.781-19.176 20.26-19.176 20.518 0 .242.094.398.172.486a.662.662 0 00.507.219c2.021-.001 15.677-14.335 20.036-18.966l3.661-.394c-3.753 4.376-18.332 20.423-20.376 22.467A7.54 7.54 0 019.088 38.5z" fill="#bae0bd"></path><path d="M23.761 7.89l-.498 2.871C16.83 16.404 6.364 25.948 6.284 28.381c-.012.376.119.721.369.971.202.202.473.313.765.313.594 0 1.267 0 11.067-9.852a852.4 852.4 0 008.751-8.949l1.629 1.155c-1.588 1.64-5.269 5.449-8.914 9.258-9.998 10.449-9.998 10.635-9.998 11.188 0 .687.507 1.205 1.179 1.205.659 0 1.656 0 11.353-9.767a563.187 563.187 0 008.92-9.221l2.214-.238c-4.682 5.355-17.603 19.564-19.52 21.481C12.761 37.263 10.981 38 9.088 38s-3.673-.737-5.012-2.076A7.037 7.037 0 012 30.913c0-1.893.737-3.673 2.076-5.012 1.859-1.86 14.461-13.324 19.685-18.011m1.473-2.644C23.321 6.871 5.629 22.933 3.369 25.194A8.089 8.089 0 009.088 39c2.07 0 4.14-.79 5.719-2.369 2.26-2.26 19.679-21.459 21.194-23.45l-5.07.546S13.115 32.67 11.132 32.67c-.117 0-.179-.066-.179-.205 0-.54 19.441-20.588 19.441-20.588L27.112 9.55S8.78 28.665 7.418 28.665c-.025 0-.045-.007-.058-.02C5.958 27.243 24.188 11.28 24.188 11.28l1.046-6.034z" fill="#5e9c76"></path><path d="M32.5 23.5a2.975 2.975 0 01-1.713-.543l-.287-.201-.287.201c-.507.355-1.1.543-1.713.543a3.012 3.012 0 01-2.707-1.729l-.128-.272-.302-.014A2.99 2.99 0 0122.5 18.5c0-.16.024-.313.049-.467l.08-.509-.511-.065a2.982 2.982 0 01-2.576-2.569l-.05-.382-.382-.05A2.998 2.998 0 0116.5 11.5c0-.39.076-.772.227-1.138l.14-.339-.28-.235A2.982 2.982 0 0115.5 7.5a2.99 2.99 0 012.863-2.985l.302-.014.128-.272A3.012 3.012 0 0121.5 2.5c.136 0 .266.021.396.04l.252.037.213-.177a2.98 2.98 0 013.853-.357l.286.2.286-.2a2.98 2.98 0 013.428 0l.286.2.286-.2a2.98 2.98 0 013.853.357l.179.182.251-.036c.164-.025.295-.046.431-.046 1.654 0 3 1.346 3 3a2.98 2.98 0 01-.543 1.714l-.2.286.2.286A2.98 2.98 0 0138.5 9.5c0 .435-.102.866-.301 1.284l-.102.216.103.216c.199.418.301.85.301 1.284 0 .877-.396 1.711-1.086 2.288l-.28.235.14.339c.15.365.227.748.227 1.138a3 3 0 01-1.8 2.746l-.382.167.096.405c.058.247.086.47.086.682a3.007 3.007 0 01-3.002 3z" fill="#bae0bd"></path><path d="M32.5 2c.674 0 1.307.267 1.783.751l.4.356.503-.074c.123-.017.23-.033.314-.033C36.879 3 38 4.121 38 5.5c0 .51-.157 1.003-.453 1.427l-.4.573.401.573c.296.424.452.917.452 1.427 0 .359-.085.719-.252 1.069l-.206.431.206.431c.167.35.252.71.252 1.069 0 .729-.33 1.423-.907 1.906l-.561.47.278.677c.126.305.19.624.19.947a2.5 2.5 0 01-1.5 2.288l-.762.334.189.81c.049.21.073.396.073.568 0 1.379-1.121 2.5-2.5 2.5-.51 0-1.003-.157-1.427-.453l-.573-.401-.573.401a2.476 2.476 0 01-3.681-.989l-.257-.545-.602-.028A2.49 2.49 0 0123 18.5c0-.109.019-.235.043-.389l.16-1.016-1.021-.131a2.483 2.483 0 01-2.145-2.139l-.1-.762-.762-.1A2.499 2.499 0 0117 11.5c0-.323.064-.642.189-.948l.278-.677-.561-.47A2.486 2.486 0 0116 7.5a2.49 2.49 0 012.387-2.485l.602-.028.257-.545A2.476 2.476 0 0121.5 3c.085 0 .191.016.36.04l.502.073.355-.362a2.484 2.484 0 013.21-.298l.573.4.573-.401a2.481 2.481 0 012.854.001l.573.4.573-.401A2.481 2.481 0 0132.5 2m0-1c-.745 0-1.432.237-2 .633a3.476 3.476 0 00-4 0 3.486 3.486 0 00-4.496.418C21.838 2.027 21.673 2 21.5 2c-1.4 0-2.599.828-3.159 2.016A3.491 3.491 0 0015 7.5c0 1.078.498 2.03 1.264 2.672-.168.41-.264.857-.264 1.328a3.49 3.49 0 003.046 3.454 3.48 3.48 0 003.009 3.001A3.495 3.495 0 0022 18.5a3.491 3.491 0 003.341 3.484A3.493 3.493 0 0028.5 24c.745 0 1.432-.237 2-.633a3.476 3.476 0 002 .633 3.5 3.5 0 003.5-3.5c0-.275-.039-.539-.099-.796A3.499 3.499 0 0038 16.5c0-.47-.096-.918-.264-1.328A3.478 3.478 0 0039 12.5c0-.539-.132-1.044-.35-1.5.218-.456.35-.961.35-1.5 0-.745-.237-1.432-.633-2a3.476 3.476 0 00.633-2A3.5 3.5 0 0035.5 2c-.173 0-.338.027-.504.051A3.482 3.482 0 0032.5 1z" fill="#5e9c76"></path><path fill="none" stroke="#36404d" stroke-miterlimit="10" d="M3 3l34 34"></path></svg>