<svg viewBox="0 0 40 40" xmlns="http://www.w3.org/2000/svg"><path d="M4 33.5A2.503 2.503 0 011.5 31V9c0-1.379 1.122-2.5 2.5-2.5h32c1.378 0 2.5 1.121 2.5 2.5v22c0 1.379-1.122 2.5-2.5 2.5H4z" fill="#f78f8f"></path><path d="M36 7c1.103 0 2 .897 2 2v22c0 1.103-.897 2-2 2H4c-1.103 0-2-.897-2-2V9c0-1.103.897-2 2-2h32m0-1H4a3 3 0 00-3 3v22a3 3 0 003 3h32a3 3 0 003-3V9a3 3 0 00-3-3z" fill="#c74343"></path><path fill="#b6c9d6" d="M1.5 11.5h37v4h-37z"></path><path d="M38 12v3H2v-3h36m1-1H1v5h38v-5z" fill="#788b9c"></path><path fill="#fff" d="M5 18h14v3H5z"></path><path fill="none" stroke="#36404d" stroke-miterlimit="10" d="M3 3l34 34"></path></svg>