<svg viewBox="0 0 40 40" xmlns="http://www.w3.org/2000/svg"><path d="M3 34.5c-.827 0-1.5-.673-1.5-1.5V11c0-.827.673-1.5 1.5-1.5h7.777l2.5-4h13.445l2.5 4H37c.827 0 1.5.673 1.5 1.5v22c0 .827-.673 1.5-1.5 1.5H3z" fill="#dcd5f2"></path><path d="M26.446 6l2.206 3.53.293.47h8.054c.265 0 .516.105.706.295.19.19.295.44.295.705v22c0 .551-.449 1-1 1H3.001a.994.994 0 01-.706-.295A.992.992 0 012 33V11c0-.551.449-1 1-1h8.054l.294-.47L13.554 6h12.892M27 5H13l-2.5 4H3c-1.1 0-2 .9-2 2v22c0 1.1.901 2 2.001 2H37c1.1 0 2-.9 2-2V11c0-1.1-.901-2-2.001-2h-7.5L27 5z" fill="#8b75a1"></path><path fill="#fff9de" d="M30 13h5v3h-5z"></path><path d="M20 29.5c-4.687 0-8.5-3.813-8.5-8.5s3.813-8.5 8.5-8.5c4.687 0 8.5 3.813 8.5 8.5s-3.813 8.5-8.5 8.5z" fill="#c2e8ff"></path><path d="M20 13c4.411 0 8 3.589 8 8s-3.589 8-8 8-8-3.589-8-8 3.589-8 8-8m0-1a9 9 0 100 18 9 9 0 000-18z" fill="#7496c4"></path><path d="M15.5 21a4.5 4.5 0 014.5-4.5" fill="none" stroke="#fff" stroke-miterlimit="10"></path><path fill="#8b75a1" d="M4 8h5v2H4z"></path><path fill="none" stroke="#36404d" stroke-miterlimit="10" d="M3 3l34 34"></path></svg>