<svg viewBox="0 0 40 40" xmlns="http://www.w3.org/2000/svg"><circle cx="30.5" cy="5.5" r="3" fill="#f5ce85"></circle><path d="M30.5 3C31.879 3 33 4.121 33 5.5S31.879 8 30.5 8 28 6.879 28 5.5 29.121 3 30.5 3m0-1a3.5 3.5 0 100 7 3.5 3.5 0 000-7z" fill="#967a44"></path><path d="M8.232 27.5a1.734 1.734 0 01-1.536-2.534l3.294-6.328-1.39-6.551a4.988 4.988 0 012.44-5.404C13.611 5.234 16.22 4.5 18.795 4.5c1.415 0 2.819.229 4.176.682l7.584 10.657a1.525 1.525 0 01-1.24 2.402c-.448 0-.871-.195-1.161-.535l-6.542-7.679-.217-.01a12.93 12.93 0 00-.644-.016c-5.02 0-6.937 2.765-7.017 2.882l-.086.129.056 6.907-3.978 6.728a1.74 1.74 0 01-1.494.853z" fill="#f5ce85"></path><path d="M18.794 5c1.308 0 2.606.204 3.865.606l7.487 10.522a1.024 1.024 0 01-.833 1.613c-.301 0-.585-.131-.779-.359l-6.401-7.514-.282-.331-.434-.02c-.228-.01-.45-.015-.667-.015-5.283 0-7.346 2.976-7.431 3.103l-.173.257.002.309.053 6.614-3.907 6.609A1.22 1.22 0 018.232 27a1.234 1.234 0 01-1.092-1.804l3.211-6.168.166-.318-.075-.351-1.353-6.376a4.49 4.49 0 012.197-4.864C13.78 5.713 16.306 5 18.794 5m0-1c-3.192 0-5.978 1.108-8 2.247A5.506 5.506 0 008.11 12.19l1.353 6.376-3.211 6.168a2.234 2.234 0 003.905 2.169l4.048-6.848-.055-6.892s1.79-2.661 6.602-2.661c.202 0 .408.005.621.014l6.401 7.514a2.02 2.02 0 002.72.33 2.022 2.022 0 00.469-2.811L23.285 4.76A13.64 13.64 0 0018.794 4z" fill="#967a44"></path><path d="M13.662 14.579a375.31 375.31 0 01-4.58-.221L8.6 12.087a5.003 5.003 0 011.628-4.815l4.65 4.497c-.763.578-1.12 1.084-1.138 1.109l-.091.13.013 1.571z" fill="#f78f8f"></path><path d="M10.225 7.965l3.9 3.772c-.505.447-.757.798-.796.854l-.182.261.003.318.007.887a418.115 418.115 0 01-3.666-.178l-.402-1.896a4.499 4.499 0 011.136-4.018m.035-1.358a5.493 5.493 0 00-2.15 5.583l.562 2.646c1.354.073 3.724.196 5.494.262l-.015-1.936s.464-.666 1.512-1.331L10.26 6.607z" fill="#c74343"></path><path d="M1 36h38v-7.123c-1.308-.263-2.852-.877-4-.877-1.458 0-3.563 1-5 1-1.438 0-3.542-1-5-1s-3.563 1-5 1c-1.438 0-3.542-1-5-1s-3.563 1-5 1c-1.438 0-3.542-1-5-1-1.148 0-2.692.614-4 .877V36z" fill="#8bb7f0"></path><g><path d="M35 28c-1.458 0-3.563 1-5 1-1.438 0-3.542-1-5-1s-3.563 1-5 1c-1.438 0-3.542-1-5-1s-3.563 1-5 1c-1.438 0-3.542-1-5-1-1.148 0-2.692.614-4 .877V29.9c.574-.103 1.17-.271 1.754-.435C3.566 29.237 4.406 29 5 29s1.434.237 2.246.465c.934.263 1.9.535 2.754.535s1.82-.272 2.754-.535C13.566 29.237 14.406 29 15 29s1.434.237 2.246.465c.934.263 1.9.535 2.754.535s1.82-.272 2.754-.535C23.566 29.237 24.406 29 25 29s1.434.237 2.246.465c.934.263 1.9.535 2.754.535s1.82-.272 2.754-.535C33.566 29.237 34.406 29 35 29s1.434.237 2.246.465c.584.165 1.18.332 1.754.435v-1.023c-1.308-.263-2.852-.877-4-.877z" fill="#4e7ab5"></path></g><g><path fill="#b6c9d6" d="M1.5 28.5h7v7h-7z"></path><path d="M8 29v6H2v-6h6m1-1H1v8h8v-8z" fill="#788b9c"></path></g><path fill="none" stroke="#36404d" stroke-miterlimit="10" d="M3 3l34 34"></path></svg>