<svg viewBox="0 0 40 40" xmlns="http://www.w3.org/2000/svg"><path d="M20 37.5c-7.444 0-13.5-5.832-13.5-13 0-9.965 6.021-22 13.5-22s13.5 12.035 13.5 22c0 7.168-6.056 13-13.5 13z" fill="#ebf8ff"></path><path d="M20 3c3.193 0 6.487 2.494 9.037 6.842C31.518 14.074 33 19.554 33 24.5 33 31.393 27.168 37 20 37S7 31.393 7 24.5c0-4.959 1.481-10.444 3.963-14.671C13.51 5.489 16.804 3 20 3m0-1C12.268 2 6 14.027 6 24.5 6 31.956 12.268 38 20 38s14-6.044 14-13.5C34 14.064 27.732 2 20 2z" fill="#7496c4"></path><circle cx="18.5" cy="13.5" r="1.5" fill="#92c8eb"></circle><circle cx="23.5" cy="27.5" r="1.5" fill="#92c8eb"></circle><circle cx="12.5" cy="22.5" r="1.5" fill="#92c8eb"></circle><circle cx="23" cy="16" r="1" fill="#92c8eb"></circle><circle cx="22.5" cy="11.5" r=".5" fill="#92c8eb"></circle><circle cx="22.5" cy="23.5" r=".5" fill="#92c8eb"></circle><circle cx="16.5" cy="29.5" r=".5" fill="#92c8eb"></circle><circle cx="13.5" cy="16.5" r=".5" fill="#92c8eb"></circle><circle cx="27.5" cy="19.5" r=".5" fill="#92c8eb"></circle><circle cx="17" cy="23" r="1" fill="#92c8eb"></circle><path fill="none" stroke="#36404d" stroke-miterlimit="10" d="M3 3l34 34"></path></svg>