<svg viewBox="0 0 40 40" xmlns="http://www.w3.org/2000/svg"><path d="M18.717 1.619c1.416.513 6.307 2.556 11.707 7.957 5.498 5.497 7.514 11.461 7.978 13.054L2.961 37.068 18.717 1.619z" fill="#ffeea3"></path><path d="M18.981 2.254c1.773.704 6.217 2.802 11.089 7.675 5.005 5.005 7.078 10.401 7.719 12.41L3.922 36.137 18.981 2.254M18.444 1L2 38l37-15.074s-1.652-7.134-8.222-13.704C24.208 2.652 18.444 1 18.444 1z" fill="#ba9b48"></path><circle cx="22" cy="13" r="3.5" fill="#f78f8f"></circle><path d="M22 10c1.654 0 3 1.346 3 3s-1.346 3-3 3-3-1.346-3-3 1.346-3 3-3m0-1a4 4 0 100 8 4 4 0 000-8z" fill="#c74343"></path><path d="M10 25.5a3.448 3.448 0 01-1.698-.448l2.827-6.361A3.52 3.52 0 0113.5 22c0 1.93-1.57 3.5-3.5 3.5z" fill="#f78f8f"></path><path d="M11.386 19.344A3.015 3.015 0 0113 22c0 1.654-1.346 3-3 3a2.92 2.92 0 01-1.043-.192l2.429-5.464m-.539-1.25L7.671 25.24c.657.474 1.457.76 2.329.76a3.998 3.998 0 00.847-7.906z" fill="#c74343"></path><path d="M14.752 32.266A3.359 3.359 0 0114.5 31c0-1.93 1.57-3.5 3.5-3.5 1.4 0 2.662.859 3.205 2.137l-6.453 2.629z" fill="#f78f8f"></path><path d="M18 28c1.026 0 1.965.539 2.506 1.381l-5.441 2.217A2.822 2.822 0 0115 31c0-1.654 1.346-3 3-3m0-1a4 4 0 00-4 4c0 .694.193 1.337.504 1.906l7.33-2.986C21.36 28.239 19.832 27 18 27z" fill="#c74343"></path><g><circle cx="27" cy="22" r="2.5" fill="#f78f8f"></circle><path d="M27 20c1.103 0 2 .897 2 2s-.897 2-2 2-2-.897-2-2 .897-2 2-2m0-1a3 3 0 100 6 3 3 0 000-6z" fill="#c74343"></path></g><g><path d="M34.474 24.229c-1.021-2.562-3.239-7.036-7.453-11.25-3.94-3.94-7.59-6.152-10.088-7.347l1.784-4.014c1.416.513 6.307 2.556 11.707 7.957 5.508 5.507 7.517 11.462 7.979 13.054l-3.929 1.6z" fill="#f5ce85"></path><path d="M18.982 2.252c1.767.697 6.193 2.782 11.088 7.677 5.005 5.005 7.078 10.401 7.719 12.41l-3.042 1.239a34.617 34.617 0 00-7.374-10.952c-3.766-3.766-7.275-5.975-9.788-7.231l1.397-3.143M18.444 1l-2.168 4.878c2.232 1.017 6.137 3.202 10.39 7.455 4.354 4.354 6.54 8.943 7.525 11.551L39 22.926s-1.652-7.134-8.222-13.704S18.444 1 18.444 1z" fill="#967a44"></path></g><path fill="none" stroke="#36404d" stroke-miterlimit="10" d="M3 3l34 34"></path></svg>