<svg viewBox="0 0 40 40" xmlns="http://www.w3.org/2000/svg"><path d="M19.5 18.495c.021-2.224.339-11.467 4.117-15.318C24.708 2.064 26.014 1.5 27.5 1.5c4.959 0 8.002 3.379 8.844 4.452-.542.509-1.803 1.526-3.236 1.526-.636.001-1.248-.204-1.819-.607l-.306-.216-.295.233c-.007.007-.782.612-1.688.612-1.587 0-2.557-1.689-2.567-1.706l-.277-.492-.455.334c-.245.181-5.904 4.438-6.124 12.86l-.077-.001z" fill="#bae0bd"></path><path d="M27.5 2c4.258 0 7.057 2.639 8.149 3.898-.582.475-1.522 1.081-2.541 1.081-.538 0-1.039-.169-1.531-.517l-.616-.435-.587.473c-.007.005-.655.5-1.374.5-1.277 0-2.125-1.442-2.131-1.452l-.554-.984-.91.669c-.173.127-2.945 2.211-4.764 6.269.539-2.98 1.526-6.134 3.332-7.976C24.982 2.499 26.135 2 27.5 2m0-1C18.646 1 19 18.991 19 18.991l1.071.009c0-8.604 5.926-12.961 5.926-12.961S27.102 8 29 8c1.103 0 2-.721 2-.721.718.507 1.434.7 2.108.7C35.267 7.979 37 6 37 6s-3.297-5-9.5-5z" fill="#5e9c76"></path><path d="M20.422 19.496c-.146-8.363-3.888-12.611-4.05-12.792l-.463-.514-.343.603c-.01.017-.992 1.707-2.568 1.707-.902 0-1.679-.604-1.687-.61l-.35-.281-.317.317c-.313.313-.653.466-1.039.466-1.407 0-3.134-1.965-3.939-3.067.948-.758 3.983-2.825 8.832-2.825 1.486 0 2.677.535 3.643 1.635 3.385 3.855 2.631 13.236 2.41 15.36l-.129.001z" fill="#bae0bd"></path><path d="M14.498 3c1.333 0 2.401.479 3.266 1.463 1.895 2.157 2.432 6.181 2.508 9.574-1.145-4.966-3.402-7.527-3.529-7.669l-.931-1.034-.683 1.212C15.121 6.562 14.275 8 12.998 8c-.723 0-1.373-.5-1.374-.5l-.699-.562-.634.634c-.283.283-.515.32-.685.32-.939 0-2.299-1.278-3.242-2.473C7.55 4.568 10.304 3 14.498 3m0-1c-6.203 0-9.5 3.239-9.5 3.239s2.414 3.652 4.608 3.652c.484 0 .958-.178 1.392-.612 0 0 .897.721 2 .721C14.896 9 16 7.039 16 7.039S19.927 11.396 19.927 20l1.071-.009S23.352 2 14.498 2z" fill="#5e9c76"></path><g><path d="M19.995 37.846c-1.422-2.55-4.16-4.844-7.041-7.257C8.798 27.106 4.5 23.506 4.5 19.143c0-4.766 3.877-8.643 8.643-8.643a8.647 8.647 0 016.482 2.939l.375.427.375-.427a8.647 8.647 0 016.482-2.939c4.766 0 8.643 3.877 8.643 8.643 0 4.41-4.305 7.993-8.468 11.458-2.889 2.404-5.636 4.69-7.037 7.245z" fill="#f78f8f"></path><path d="M26.857 11C31.347 11 35 14.653 35 19.143c0 4.175-4.213 7.682-8.288 11.073-2.656 2.21-5.193 4.322-6.72 6.664-1.541-2.338-4.07-4.456-6.717-6.674C9.207 26.797 5 23.273 5 19.143 5 14.653 8.653 11 13.143 11a8.148 8.148 0 016.107 2.77l.75.852.75-.852A8.15 8.15 0 0126.857 11m0-1A9.113 9.113 0 0020 13.109 9.113 9.113 0 0013.143 10 9.142 9.142 0 004 19.143C4 27.136 17.262 32.34 20 39c2.652-6.66 16-11.767 16-19.857A9.142 9.142 0 0026.857 10z" fill="#c74343"></path></g><path fill="none" stroke="#36404d" stroke-miterlimit="10" d="M3 3l34 34"></path></svg>