<svg viewBox="0 0 40 40" xmlns="http://www.w3.org/2000/svg"><path d="M17.342 33.499c-1.177-.442-2.562-1.525-3.273-2.122 1.006-.706 3.08-2.195 3.976-3.088 2.012.9 4.565 1.397 6.799 1.725-1.794 1.492-5.062 3.44-7.502 3.485z" fill="#8bb7f0"></path><path d="M18.147 28.879c1.663.695 3.627 1.139 5.475 1.45-1.753 1.265-4.244 2.592-6.194 2.668-.821-.331-1.794-1.011-2.534-1.591 1.003-.715 2.405-1.75 3.253-2.527m-.225-1.198c-.769.974-4.667 3.652-4.667 3.652s2.211 2.034 4 2.667c3.143 0 7.299-2.884 8.71-4.336-2.313-.304-5.653-.821-8.043-1.983z" fill="#4e7ab5"></path><path d="M15.487 15.73c-.759-1.057-2.284-3.438-2.849-4.324 1.055-.999 5.093-4.495 11.258-5.872 2.16 1.537 3.809 5.021 4.399 6.398-1.896.305-7.667 1.374-12.808 3.798z" fill="#8bb7f0"></path><path d="M23.784 6.073c1.721 1.33 3.1 3.958 3.793 5.47-2.298.397-7.264 1.429-11.92 3.558-.662-.956-1.69-2.545-2.371-3.61 1.343-1.205 5.057-4.146 10.498-5.418M24 5c-7.57 1.619-12 6.333-12 6.333s2.564 4.051 3.333 5.026C21.641 13.282 29 12.333 29 12.333S26.974 6.949 24 5z" fill="#4e7ab5"></path><path d="M.506 28.489c.114-4.747 1.792-7.175 1.81-7.199l.169-.239-.125-.266c-.018-.037-1.699-3.619-1.849-7.274 6.724.291 9.495 6.28 9.954 7.396-.443 1.136-3.148 7.289-9.959 7.582z" fill-rule="evenodd" clip-rule="evenodd" fill="#8bb7f0"></path><path d="M1.045 14.049c5.716.547 8.276 5.493 8.877 6.859-.583 1.368-3.139 6.49-8.895 7.043.217-4.204 1.682-6.351 1.695-6.369l.342-.479-.252-.532c-.016-.035-1.489-3.176-1.767-6.522M0 13c0 3.989 1.909 8 1.909 8S0 23.666 0 29c8.194 0 11-8.099 11-8.099S8.095 13 0 13z" fill="#4e7ab5"></path><path d="M28.924 30.5C18.663 30.465 6.5 23.255 6.5 21.012 6.5 18.696 18.458 11.5 29 11.5c1.114.047 8.212 4.853 8.206 9.499-.006 4.814-5.442 8.592-8.282 9.501z" fill-rule="evenodd" clip-rule="evenodd" fill="#c2e8ff"></path><path d="M28.953 12c1.212.209 7.758 4.71 7.753 8.999-.005 4.315-4.968 8.041-7.86 9.001C18.531 29.93 7.081 22.849 7 21.013c.076-1.85 11.598-8.991 21.953-9.013M29 11C18.647 11 6 18.18 6 21.012 6 23.843 18.693 31 29 31c3.112-.958 8.7-5 8.706-10S30.389 11.058 29 11z" fill="#7496c4"></path><g><path d="M29.339 30.483c-.433-1.186-1.844-5.364-1.839-9.482.005-4.123 1.407-8.296 1.84-9.482 3.804.394 10.16 7.117 10.16 9.47 0 2.424-6.254 9.113-10.161 9.494z" fill-rule="evenodd" clip-rule="evenodd" fill="#8bb7f0"></path><path d="M29.67 12.084c1.471.336 3.57 1.666 5.591 3.575 2.429 2.296 3.74 4.459 3.74 5.329 0 2.164-5.678 8.221-9.327 8.941-.525-1.513-1.677-5.251-1.673-8.929.003-3.666 1.144-7.393 1.669-8.916M29 11s-1.994 5-2 10 2 10 2 10c4.14 0 11-7.18 11-10.012C40 18.157 32.86 11 29 11z" fill="#4e7ab5"></path></g><g><circle cx="33" cy="21" r="3" fill-rule="evenodd" clip-rule="evenodd" fill="#fff"></circle></g><g><circle cx="33" cy="21" r="1.5" fill-rule="evenodd" clip-rule="evenodd" fill="#66798f"></circle></g><path fill="none" stroke="#36404d" stroke-miterlimit="10" d="M3 3l34 34"></path></svg>