<svg viewBox="0 0 40 40" xmlns="http://www.w3.org/2000/svg"><path d="M18.605 34.5a3.517 3.517 0 01-2.504-1.037L3.537 20.899a3.546 3.546 0 010-5.008L15.723 3.705l17.572 17.571-12.186 12.187a3.517 3.517 0 01-2.504 1.037z" fill="#f2faff"></path><path d="M15.723 4.412l16.864 16.864-11.832 11.833a3.018 3.018 0 01-2.15.891 3.018 3.018 0 01-2.15-.891L3.891 20.546a3.044 3.044 0 010-4.301L15.723 4.412m0-1.414l-12.54 12.54a4.041 4.041 0 000 5.715l12.564 12.564c.789.788 1.823 1.183 2.858 1.183s2.068-.395 2.857-1.184l12.54-12.54L15.723 2.998z" fill="#788b9c"></path><path d="M3.184 21.253l12.564 12.564a4.041 4.041 0 005.715 0l12.54-12.54L32.725 20H2.34c.197.454.473.882.844 1.253z" fill="#c74343"></path><path d="M31.311 20H3.465c.12.193.258.378.425.546L16.454 33.11c.575.574 1.338.89 2.151.89.812 0 1.576-.316 2.15-.891l11.833-11.833L31.311 20z" fill="#fabbbb"></path><path fill="#788b9c" d="M12.048.735l.707-.707 5.437 5.437-.707.707z"></path><path d="M33 36.501a2.503 2.503 0 01-2.5-2.5c0-.988 1.367-3.895 2.5-6.032 1.133 2.138 2.5 5.044 2.5 6.032 0 1.379-1.122 2.5-2.5 2.5z" fill="#f78f8f"></path><path d="M32.999 29.053C34.07 31.161 35 33.319 35 34.001c0 1.103-.897 2-2 2s-2-.897-2-2c0-.693.916-2.822 1.999-4.948M33 26.918s-3 5.426-3 7.083a3 3 0 106 0c0-1.657-3-7.083-3-7.083z" fill="#c74343"></path><path fill="none" stroke="#36404d" stroke-miterlimit="10" d="M3.556 3.556l32.888 32.888"></path></svg>