<svg viewBox="0 0 40 40" xmlns="http://www.w3.org/2000/svg"><path d="M20 39.212c-.693-.949-2.167-3.488-2.167-7.921 0-.503.024-1.016.059-1.528l.166-2.514-1.114 2.26c-.227.461-.462.917-.713 1.353-2.216 3.839-4.762 5.302-5.837 5.776-.126-1.168-.132-4.104 2.084-7.942.251-.436.529-.867.815-1.295l1.406-2.1-2.1 1.406c-.428.286-.859.563-1.294.815-3.055 1.763-5.521 2.134-7.051 2.134a7.77 7.77 0 01-.893-.048c.474-1.073 1.936-3.621 5.778-5.84.435-.251.891-.485 1.352-.712l2.266-1.112-2.519.164a23.98 23.98 0 01-1.529.059c-4.433 0-6.972-1.474-7.921-2.167.949-.693 3.489-2.167 7.921-2.167.476 0 .96.022 1.447.053l2.35.147-2.087-1.09a22.081 22.081 0 01-.759-.411c-3.816-2.203-5.582-4.903-6.218-6.094.11-.004.231-.007.364-.007 1.477 0 4.483.305 8.021 2.347.199.115.396.239.592.361l1.941 1.216-1.163-1.85c-.16-.253-.293-.465-.417-.68-2.201-3.812-2.382-7.031-2.338-8.383 1.192.638 3.89 2.403 6.091 6.216.119.205.229.416.341.627l1.02 1.933-.039-2.108c-.012-.333-.021-.566-.021-.8 0-4.402 1.453-7.28 2.167-8.429.714 1.148 2.167 4.026 2.167 8.429 0 .233-.009.467-.017.702l-.08 2.185 1.018-1.836c.151-.286.262-.497.381-.702 2.211-3.829 4.901-5.586 6.091-6.219.044 1.351-.136 4.571-2.338 8.386-.124.215-.257.427-.39.638l-1.164 1.85 1.916-1.174c.196-.122.393-.246.592-.361 3.538-2.042 6.543-2.347 8.021-2.347.133 0 .254.003.364.007-.637 1.19-2.403 3.891-6.218 6.094-.225.13-.456.251-.686.372l-1.939 1.021 2.292-.075c.228-.008.455-.017.682-.017 4.402 0 7.281 1.453 8.429 2.167-1.148.714-4.027 2.167-8.429 2.167-.288 0-.576-.012-.865-.023l-2.334-.092 2.091 1.039c.437.218.867.44 1.279.678 3.842 2.219 5.304 4.767 5.778 5.84a7.991 7.991 0 01-.893.048c-1.531-.001-3.997-.371-7.051-2.134a23.605 23.605 0 01-1.294-.815l-2.1-1.406 1.406 2.1c.287.428.564.859.815 1.295 2.216 3.839 2.21 6.774 2.084 7.942-1.075-.475-3.621-1.938-5.837-5.776a23.712 23.712 0 01-.713-1.353l-1.114-2.26.166 2.514c.034.513.059 1.025.059 1.528-.003 4.431-1.477 6.97-2.17 7.919z" fill="#bae0bd"></path><path d="M20 1.897c.715 1.388 1.667 3.897 1.667 7.414 0 .235-.009.471-.018.707l-.003.072-.163 4.374 2.046-3.87.033-.063c.111-.209.221-.419.339-.623 1.759-3.046 3.838-4.743 5.15-5.587-.075 1.56-.505 4.208-2.264 7.254-.117.203-.243.403-.369.603l-.039.062-2.328 3.706 3.706-2.327.062-.039c.2-.126.4-.252.603-.369 3.065-1.769 5.708-2.196 7.257-2.268-.844 1.313-2.541 3.395-5.59 5.155-.204.118-.413.228-.623.339l-.063.033-3.87 2.046 4.374-.163.072-.003c.236-.009.472-.018.707-.018 3.518 0 6.027.952 7.414 1.667-1.388.715-3.897 1.667-7.414 1.667-.28 0-.562-.011-.845-.022l-4.682-.188 4.198 2.083c.501.249.899.459 1.251.663 3.074 1.775 4.565 3.757 5.24 4.953l-.106.001c-1.47 0-3.843-.359-6.801-2.067a21.724 21.724 0 01-1.266-.798l-4.195-2.808 2.808 4.195c.33.493.583.895.798 1.266 1.773 3.07 2.075 5.529 2.062 6.904-1.199-.677-3.177-2.168-4.949-5.237a22.74 22.74 0 01-.698-1.324l-2.229-4.53.334 5.037a22.6 22.6 0 01.057 1.495c0 3.545-.968 5.826-1.666 7.01-.7-1.186-1.667-3.466-1.667-7.01 0-.429.018-.905.057-1.495l.334-5.037-2.229 4.53a22.74 22.74 0 01-.698 1.324c-1.773 3.07-3.751 4.561-4.948 5.238-.013-1.377.29-3.835 2.061-6.904.214-.371.468-.774.798-1.266l2.808-4.195-4.195 2.808c-.492.33-.895.583-1.266.798-2.959 1.708-5.332 2.067-6.802 2.067l-.105-.001c.676-1.199 2.167-3.179 5.24-4.953a22.74 22.74 0 011.324-.698l4.53-2.229-5.037.334a22.6 22.6 0 01-1.495.057c-3.545 0-5.826-.968-7.01-1.666 1.186-.7 3.466-1.667 7.01-1.667.407 0 .857.016 1.415.052l4.678.294-4.148-2.179c-.25-.131-.5-.263-.742-.403-3.05-1.761-4.747-3.843-5.59-5.155 1.548.072 4.192.499 7.257 2.268.203.117.403.243.604.369l.062.039 3.706 2.327-2.328-3.706-.039-.062c-.126-.2-.251-.4-.369-.603-1.762-3.052-2.19-5.705-2.264-7.262 1.307.836 3.377 2.524 5.151 5.596.118.204.228.413.339.623l.033.063 2.046 3.87-.163-4.374-.003-.072c-.009-.236-.018-.472-.018-.707-.001-3.518.951-6.027 1.666-7.415M20 0s-2.667 3.23-2.667 9.311c0 .271.011.544.021.817-.128-.241-.254-.483-.39-.718C13.924 4.144 10 2.68 10 2.68s-.694 4.131 2.346 9.397c.136.235.282.466.427.697-.231-.145-.462-.291-.697-.427-3.615-2.087-6.695-2.414-8.271-2.414C3.085 9.932 2.68 10 2.68 10s1.464 3.924 6.73 6.965c.254.147.516.285.778.422a23.85 23.85 0 00-1.478-.054C2.628 17.333 0 20 0 20s2.628 2.667 8.709 2.667c.514 0 1.037-.025 1.562-.06-.472.232-.937.472-1.382.729C3.622 26.376 2.68 30 2.68 30s.565.156 1.574.156c1.541 0 4.119-.363 7.302-2.201.445-.257.885-.54 1.323-.833-.293.437-.576.878-.833 1.323C9.005 33.711 10 37.32 10 37.32s3.624-.943 6.664-6.209c.257-.445.497-.91.729-1.382-.035.525-.06 1.048-.06 1.562C17.333 37.372 20 40 20 40s2.667-2.628 2.667-8.709c0-.514-.025-1.037-.06-1.562.232.472.472.937.729 1.382C26.376 36.378 30 37.32 30 37.32s.995-3.61-2.045-8.876c-.257-.445-.54-.885-.833-1.323.437.293.878.576 1.323.833 3.182 1.837 5.76 2.201 7.302 2.201 1.009 0 1.574-.156 1.574-.156s-.943-3.624-6.209-6.664a24.109 24.109 0 00-1.307-.693c.295.012.591.023.885.023C36.77 22.667 40 20 40 20s-3.23-2.667-9.311-2.667c-.271 0-.544.011-.817.021.241-.128.483-.254.718-.39C35.856 13.924 37.32 10 37.32 10s-.406-.068-1.126-.068c-1.576 0-4.656.327-8.271 2.414-.235.136-.466.282-.697.427.145-.231.291-.462.427-.697C30.694 6.81 30 2.68 30 2.68s-3.924 1.464-6.965 6.73c-.136.235-.262.477-.39.718.01-.273.021-.546.021-.817C22.667 3.23 20 0 20 0z" fill="#5e9c76"></path><path fill="none" stroke="#36404d" stroke-miterlimit="10" d="M3 3l34 34"></path></svg>