<svg viewBox="0 0 40 40" xmlns="http://www.w3.org/2000/svg"><path d="M20 38.317c-3.968-3.515-10.909-3.803-12.662-3.818l-1.752-4.38.022-.023C7.438 28.25 10.5 25.161 10.5 20c0-6.034-3.801-8.631-4.965-9.285l.411-3.706c.111.002.238.003.381.003 2.907 0 8.15-.724 10.964-5.512h5.418c2.813 4.789 8.057 5.513 10.964 5.512.143 0 .27-.001.381-.003l.411 3.706C33.301 11.369 29.5 13.966 29.5 20c0 5.161 3.062 8.25 4.892 10.095l.022.023-1.752 4.38c-1.753.016-8.694.304-12.662 3.819z" fill="#ffc49c"></path><path d="M22.427 2c2.948 4.747 8.202 5.502 11.179 5.512l.326 2.938C32.452 11.372 29 14.147 29 20c0 5.174 2.93 8.316 4.828 10.237l-1.507 3.767c-2.154.05-8.411.48-12.321 3.657-3.91-3.177-10.167-3.606-12.321-3.657l-1.507-3.767C8.07 28.316 11 25.174 11 20c0-5.853-3.452-8.628-4.933-9.549l.326-2.938c2.978-.011 8.232-.766 11.18-5.513h4.854M23 1h-6C14.174 6.116 8.486 6.513 6.329 6.513c-.395 0-.671-.013-.79-.013l-.038.001L5 11s5 2.268 5 9c0 5.199-3.264 8.236-5 10l2 5 .183-.001c1.276 0 8.908.164 12.817 4.001 3.909-3.837 11.54-4.001 12.817-4.001L33 35l2-5c-1.736-1.764-5-4.801-5-10 0-6.732 5-9 5-9l-.5-4.5-.038-.001c-.119 0-.395.013-.79.013C31.515 6.513 25.827 6.117 23 1z" fill="#a16a4a"></path><path fill="none" stroke="#36404d" stroke-linejoin="round" stroke-miterlimit="10" d="M2 3l36 36"></path></svg>