<svg viewBox="0 0 40 40" xmlns="http://www.w3.org/2000/svg"><path d="M12.5 38.5c-1.654 0-3-1.346-3-3v-31c0-1.654 1.346-3 3-3h15c1.654 0 3 1.346 3 3v31c0 1.654-1.346 3-3 3h-15z" fill="#f2faff"></path><path d="M27.5 2C28.879 2 30 3.121 30 4.5v31c0 1.378-1.121 2.5-2.5 2.5h-15a2.503 2.503 0 01-2.5-2.5v-31C10 3.121 11.121 2 12.5 2h15m0-1h-15A3.5 3.5 0 009 4.5v31a3.5 3.5 0 003.5 3.5h15a3.5 3.5 0 003.5-3.5v-31A3.5 3.5 0 0027.5 1z" fill="#66798f"></path><path fill="#a8deff" d="M9.5 5.5h21v27h-21z"></path><path d="M30 6v26H10V6h20m1-1H9v28h22V5z" fill="#66798f"></path><circle cx="20" cy="35.5" r="1.5" fill="#66798f"></circle><circle cx="20" cy="3.5" r=".5" fill="#66798f"></circle><path fill="none" stroke="#36404d" stroke-miterlimit="10" d="M3 3l34 34"></path></svg>