<svg viewBox="0 0 40 40" xmlns="http://www.w3.org/2000/svg"><path fill="#ffeea3" d="M29.192 7.385l6.626-4.732 1.529 1.529-4.732 6.626z"></path><path d="M35.764 3.306l.93.93-4.142 5.799-2.587-2.587 5.799-4.142M35.872 2l-7.449 5.321 4.257 4.257L38 4.128 35.872 2z" fill="#ba9b48"></path><path d="M23.809 8.385l2.839-2.839a1 1 0 011.421 0l6.386 6.386c.19.189.295.441.295.71s-.105.521-.295.711l-2.839 2.839-7.807-7.807z" fill="#f5ce85"></path><path d="M27.358 5.752c.078 0 .228.019.357.148l6.385 6.385a.502.502 0 010 .714l-2.485 2.485-7.099-7.099L27.001 5.9a.502.502 0 01.357-.148m0-1a1.5 1.5 0 00-1.064.441l-3.193 3.193 8.514 8.514 3.193-3.193a1.504 1.504 0 000-2.128l-6.385-6.385a1.5 1.5 0 00-1.065-.442z" fill="#967a44"></path><g><path d="M13.523 37.5a2.49 2.49 0 01-1.774-.735l-8.514-8.514a2.494 2.494 0 01-.735-1.774c0-.671.261-1.301.735-1.775L20.263 7.675c.474-.475 1.104-.735 1.774-.735s1.301.261 1.774.735l8.514 8.514c.475.474.735 1.104.735 1.774s-.261 1.301-.735 1.774L15.299 36.765a2.497 2.497 0 01-1.776.735z" fill="#ffeea3"></path><path d="M22.037 7.439c.537 0 1.042.209 1.421.589l8.514 8.514c.38.38.589.884.589 1.421s-.209 1.042-.589 1.421L14.945 36.411c-.38.38-.885.589-1.421.589a1.994 1.994 0 01-1.421-.589l-8.514-8.514a2.012 2.012 0 010-2.843L20.616 8.028c.379-.38.884-.589 1.421-.589m0-1c-.77 0-1.541.294-2.128.882L2.882 24.348a3.011 3.011 0 000 4.257l8.514 8.514a3 3 0 002.128.881c.77 0 1.541-.294 2.128-.882l17.027-17.027a3.011 3.011 0 000-4.257L24.165 7.32a3.001 3.001 0 00-2.128-.881z" fill="#ba9b48"></path></g><path fill="none" stroke="#36404d" stroke-miterlimit="10" d="M3 3l34 34"></path></svg>