<svg viewBox="0 0 40 40" xmlns="http://www.w3.org/2000/svg"><path d="M12 35.5c-6.409 0-10.5-5.404-10.5-9.125 0-4.94 1.871-7.887 3.68-10.736 1.99-3.134 3.875-6.102 2.5-11.108 3.209.292 4.134 2.681 4.956 4.803.631 1.629 1.227 3.167 2.828 3.167 1.008 0 2.208-.645 3.06-1.643.261-.306.473-.625.634-.951 1.116 3.242 3.343 10.463 3.343 16.469C22.5 31.492 17.888 35.5 12 35.5z" fill="#f78f8f"></path><path d="M8.348 5.14c2.333.53 3.088 2.479 3.822 4.374.632 1.634 1.35 3.486 3.293 3.486 1.148 0 2.498-.714 3.44-1.818.038-.044.075-.089.111-.134C20.178 14.582 22 20.98 22 26.375 22 31.211 17.607 35 12 35c-2.667 0-5.224-1.048-7.201-2.952C3.072 30.386 2 28.212 2 26.375c0-4.795 1.831-7.679 3.602-10.468C7.556 12.831 9.41 9.91 8.348 5.14M7 4c3.124 9.706-6 11.415-6 22.375C1 30.591 5.614 36 12 36s11-4.371 11-9.625C23 18.21 19 8 19 8c.319 1.994-1.947 4-3.537 4C12.338 12 13.875 4 7 4z" fill="#c74343"></path><path d="M22.992 25.849c-.049-2.41-.422-4.972-.926-7.381l-1.799 1.637 1.166 7.162 1.559-1.418z" fill="#f78f8f"></path><path d="M12.039 35C7.701 35 5 30.488 5 28.041 5 22.258 10.794 20.604 9.552 15c6.43 2.652 1.347 5.533 3.014 7.426 1.308 1.486 3.473-.631 2.74-2.74C17.717 22.098 19 25.222 19 28.007 19 31.119 16.383 35 12.039 35z" fill="#ffeea3"></path><path fill="#f5ce85" d="M12.043 29.887L36.405 7.724l1.789 1.966-24.363 22.163z"></path><path d="M36.373 8.428l1.115 1.226-23.623 21.492-1.115-1.226L36.373 8.428m.067-1.412L11.337 29.853l2.461 2.705L38.901 9.721 36.44 7.016z" fill="#967a44"></path><g><path d="M12.703 32.786c-.479 0-.938-.203-1.261-.558a1.706 1.706 0 01.115-2.405l1.031-.938c.201-.184.463-.285.735-.285.309 0 .604.131.812.358l.817.898a1.1 1.1 0 01-.073 1.549l-1.03.937a1.699 1.699 0 01-1.146.444z" fill="#a6714e"></path><path d="M13.325 29.1c.099 0 .287.025.441.195l.817.898a.597.597 0 01-.04.842l-1.031.938a1.199 1.199 0 01-.809.313 1.205 1.205 0 01-.81-2.092l1.031-.938a.594.594 0 01.401-.156m0-1c-.383 0-.768.137-1.073.415l-1.031.938a2.203 2.203 0 102.965 3.259l1.031-.938c.652-.593.7-1.602.107-2.254l-.817-.898a1.592 1.592 0 00-1.182-.522z" fill="#7a4f34"></path></g><path fill="none" stroke="#36404d" stroke-miterlimit="10" d="M3 3l34 34"></path></svg>