<svg viewBox="0 0 40 40" xmlns="http://www.w3.org/2000/svg"><path d="M7.431 38.5c-2.662 0-4.689-1.47-5.563-4.033-1.664-4.88 2.731-9.186 5.591-10.961.541-.386 3.056-1.859 5.679-2.999 1.631-.709 1.836-2.927 1.935-3.992l.019-.192c.351-3.455 3.938-6.171 5.03-6.921 5.982-5.792 10.716-6.47 12.026-6.541l.125-.018c.196-.032.493-.081.835-.081.076 0 .154.002.234.008h.011c.636 0 1.24-.3 1.881-.616.618-.306 1.32-.654 1.857-.654.268 0 .465.082.64.267.438.463.92 1.79.724 5.484-.215 4.009-2.938 6.82-2.966 6.847l-.077.074c-1.588 1.358-3.815 3.305-5.323 4.622l-.091.078a207.71 207.71 0 01-1.483 1.293c-2.142 1.83-3.206 4.661-3.842 6.354-.165.438-.299.795-.419 1.037l-.023.046-.013.05c-1.896 7.212-10.607 9.367-12.334 9.727l-.061.013-.056.026c-.837.403-2.513 1.082-4.336 1.082z" fill="#ffeea3"></path><path d="M37.091 2c.144 0 .209.039.277.111.245.258.792 1.273.587 5.113-.204 3.819-2.789 6.49-2.811 6.512l-.058.055a782.864 782.864 0 00-5.217 4.529l-.202.176c-.737.646-1.288 1.127-1.479 1.289-2.241 1.915-3.332 4.821-3.984 6.556-.158.418-.294.78-.399.99l-.046.093-.026.1c-1.82 6.927-10.275 9.016-11.951 9.364l-.12.025-.111.053C10.75 37.353 9.152 38 7.431 38c-2.47 0-4.278-1.312-5.091-3.695-1.562-4.583 2.648-8.678 5.382-10.374l.029-.018.027-.02c.5-.359 2.966-1.803 5.559-2.929 1.902-.827 2.133-3.334 2.232-4.399l.019-.191c.329-3.243 3.77-5.842 4.816-6.561l.069-.048.06-.059c5.791-5.617 10.374-6.279 11.641-6.348l.052-.003.052-.008.074-.012a4.45 4.45 0 01.755-.075c.065 0 .132.002.199.007.044.003.089.005.135.005.657 0 1.316-.326 2.013-.671C36.024 2.32 36.67 2 37.091 2m0-1c-1.22 0-2.738 1.272-3.65 1.272l-.064-.002a4.143 4.143 0 00-.269-.009c-.429 0-.786.068-.988.1-1.352.074-6.247.775-12.282 6.629-1.137.781-4.872 3.613-5.245 7.284l-.019.194c-.09.971-.278 2.989-1.635 3.579-2.698 1.172-5.223 2.66-5.743 3.034C4.211 24.933-.37 29.45 1.395 34.628 2.341 37.406 4.541 39 7.431 39c1.906 0 3.648-.696 4.554-1.133 1.941-.403 10.755-2.627 12.715-10.089.127-.253.267-.625.44-1.084.619-1.648 1.656-4.405 3.698-6.149.19-.161.745-.646 1.488-1.297 1.507-1.316 3.792-3.312 5.432-4.716l.078-.075c.321-.311 2.903-3.16 3.117-7.18C39.221 2.259 38.303 1 37.091 1z" fill="#ba9b48"></path><path d="M8.7 34.312c-1.137 0-1.876-.55-2.261-1.68-1.104-3.237 3.483-6.096 3.529-6.124.06-.041 2.482-1.805 4.849-2.384.828-.203 1.571-.306 2.208-.306.659 0 1.212.11 1.644.327.378.188.842.215 1.252.239.224.013.598.034.688.096.214.585-.396 1.988-.731 2.568l-.037.065-.017.074c-1.154 5.097-8.253 6.321-8.325 6.333l-.086.014-.076.043c-.014.008-1.335.735-2.637.735z" fill="#ffc49c"></path><path d="M17.024 24.319c.581 0 1.059.092 1.421.274.469.235.989.265 1.447.291l.237.015c-.039.461-.318 1.26-.685 1.901l-.075.131-.033.147c-1.079 4.762-7.85 5.938-7.917 5.949l-.173.029-.152.084c-.012.007-1.228.671-2.394.671-.92 0-1.472-.414-1.788-1.341-.974-2.855 3.275-5.51 3.317-5.536l.036-.022.034-.025c.023-.017 2.372-1.723 4.637-2.278.789-.193 1.492-.29 2.088-.29m0-1c-.647 0-1.415.097-2.326.32-2.495.611-4.99 2.442-4.99 2.442s-4.99 3.051-3.742 6.712c.535 1.57 1.643 2.019 2.734 2.019 1.455 0 2.88-.797 2.88-.797s7.487-1.222 8.731-6.715c0 0 1.145-1.987.728-3.05-.209-.538-1.481-.217-2.146-.551-.467-.236-1.077-.38-1.869-.38z" fill="#a16a4a"></path><path d="M23.123 19.109c-.884 0-1.731-.399-2.52-1.188-.584-.584-.834-1.205-.765-1.898.17-1.718 2.314-3.499 3.127-4.041 4.718-4.704 8.229-4.794 8.265-4.794.097-.01.396-.067.787-.067 1.759 0 1.759 1.05 1.759 1.396 0 2.196-1.667 3.901-1.685 3.919-.175.15-4.875 4.261-5.488 4.878-1.196 1.192-2.366 1.795-3.48 1.795z" fill="#ffc49c"></path><path d="M32.017 7.621c1.259 0 1.259.561 1.259.896 0 1.866-1.353 3.368-1.52 3.546-.633.554-4.903 4.291-5.508 4.899-1.097 1.093-2.149 1.647-3.125 1.647-.757 0-1.465-.341-2.166-1.041-.477-.477-.674-.951-.621-1.493.148-1.516 2.15-3.168 2.908-3.676l.082-.055.07-.07c4.464-4.464 7.809-4.585 7.832-4.585l.099-.001.093-.018c.002-.001.26-.049.597-.049m0-1c-.452 0-.79.068-.79.068s-3.661 0-8.539 4.878c0 0-5.488 3.659-2.439 6.709.985.985 1.97 1.334 2.873 1.334 1.891 0 3.422-1.531 3.836-1.943.608-.612 5.488-4.878 5.488-4.878s1.829-1.829 1.829-4.271c.001-1.626-1.354-1.897-2.258-1.897z" fill="#a16a4a"></path><g><path d="M31.756 12.063c-.633.554-4.903 4.291-5.508 4.899-1.097 1.093-2.149 1.647-3.125 1.647-.757 0-1.465-.341-2.166-1.041 3.592-1.05 11.41-8.366 12.319-9.051 0 1.866-1.353 3.368-1.52 3.546z" fill="#f09f69"></path></g><g><path d="M19.445 26.8l-.075.131-.033.147c-1.079 4.762-7.85 5.938-7.917 5.95l-.173.029-.152.084c-.012.007-1.228.671-2.394.671-.92 0-1.472-.414-1.788-1.341 10.092-2.872 12.522-7.613 12.981-7.586l.237.015c-.04.46-.319 1.259-.686 1.9z" fill="#f09f69"></path></g><path fill="none" stroke="#36404d" stroke-miterlimit="10" d="M3 3l34 34"></path></svg>