<svg viewBox="0 0 40 40" xmlns="http://www.w3.org/2000/svg"><path d="M29.908 19.5a1.896 1.896 0 01-1.618-.916l-4.178-6.957 2.947-1.249 3.458 6.122H35c.827 0 1.5.673 1.5 1.5s-.673 1.5-1.5 1.5h-5.092z" fill="#8bb7f0"></path><path d="M26.844 11.012l3.094 5.479.287.509H35c.551 0 1 .449 1 1s-.449 1-1 1h-5.092c-.484 0-.94-.258-1.189-.673l-3.881-6.464 2.006-.851m.432-1.269l-3.888 1.649 4.473 7.45A2.39 2.39 0 0029.908 20H35a2 2 0 100-4h-4.191l-3.533-6.257z" fill="#4e7ab5"></path><path d="M6.114 29.5c-.89 0-1.614-.725-1.614-1.614 0-.839.655-1.546 1.492-1.611l7.228-.551 2.614-5.228 4.445 2.362-4.673 5.813a2.208 2.208 0 01-1.728.828H6.114z" fill="#8bb7f0"></path><path d="M16.052 21.179l3.459 1.838-4.295 5.343a1.71 1.71 0 01-1.337.64H6.115C5.5 29 5 28.5 5 27.885a1.12 1.12 0 011.03-1.111l6.946-.53.565-.043.253-.507 2.258-4.515m-.436-1.364L12.9 25.247l-6.946.53A2.115 2.115 0 006.115 30h7.764c.823 0 1.601-.373 2.117-1.014l5.052-6.285-5.432-2.886z" fill="#4e7ab5"></path><circle cx="29.999" cy="5" r="3.5" fill="#f5ce85"></circle><path d="M29.998 2A3.004 3.004 0 0133 4.999 3.005 3.005 0 0129.998 8 3.003 3.003 0 0127 4.999 3.002 3.002 0 0129.998 2m0-1a4 4 0 10.003 8 4 4 0 00-.003-8z" fill="#967a44"></path><g><path d="M21.781 38.5a1.725 1.725 0 01-1.37-.694 1.719 1.719 0 01-.28-1.509l2.441-8.647-4.113-4.313-1.683-1.191a3.009 3.009 0 01-.761-4.132l4.369-6.454h-3.651l-4.855 3.675c-.26.196-.569.3-.894.3-.452 0-.873-.201-1.156-.553a1.463 1.463 0 01-.315-1.119c.052-.404.261-.761.588-1.002L15.044 9.2a3.583 3.583 0 012.117-.698h6.959l.208.021a3.14 3.14 0 011.546.492 3.196 3.196 0 01.965 4.354l-4.582 7.323 3.53 4.702c.701.934.899 2.151.531 3.258l-2.876 8.663a1.729 1.729 0 01-1.644 1.187h-.017z" fill="#8bb7f0"></path><path d="M23.954 9l.346.02c.486.028.924.167 1.303.413a2.692 2.692 0 01.812 3.669l-4.4 7.032-.364.582.412.549 3.325 4.428a3.06 3.06 0 01.457 2.801l-2.876 8.662a1.237 1.237 0 01-1.183.844 1.225 1.225 0 01-.974-.493 1.225 1.225 0 01-.2-1.074l2.364-8.373.155-.549-.394-.413-3.917-4.107-.068-.072-.081-.057-1.607-1.127a2.508 2.508 0 01-.634-3.443l3.841-5.673 1.057-1.561H16.566l-.268.203-4.722 3.573a.983.983 0 11-1.178-1.574l4.943-3.66a3.08 3.08 0 011.82-.6h6.793m.406-1h-7.198c-.87 0-1.716.279-2.415.797l-4.943 3.66a1.982 1.982 0 102.376 3.174l4.722-3.573h2.541l-3.841 5.673a3.495 3.495 0 00.888 4.822l1.607 1.127 3.917 4.107-2.364 8.373a2.233 2.233 0 002.127 2.839h.022a2.23 2.23 0 002.118-1.529l2.876-8.662a4.06 4.06 0 00-.606-3.716l-3.325-4.428 4.4-7.032a3.681 3.681 0 00-1.115-5.039 3.641 3.641 0 00-1.79-.572L24.36 8z" fill="#4e7ab5"></path></g><path fill="none" stroke="#36404d" stroke-miterlimit="10" d="M3 3l34 34"></path></svg>