<svg viewBox="0 0 40 40" xmlns="http://www.w3.org/2000/svg"><path d="M20 38.5c-1.93 0-3.5-1.57-3.5-3.5s1.57-3.5 3.5-3.5 3.5 1.57 3.5 3.5-1.57 3.5-3.5 3.5z" fill="#e8d47b"></path><path d="M20 32c1.654 0 3 1.346 3 3s-1.346 3-3 3-3-1.346-3-3 1.346-3 3-3m0-1a4 4 0 100 8 4 4 0 000-8z" fill="#ba9b48"></path><path d="M5.5 34.5v-3.027c2.247-.25 4-2.16 4-4.473V15c0-4.669 3.14-8.82 7.636-10.094l.364-.103V4c0-1.379 1.122-2.5 2.5-2.5s2.5 1.121 2.5 2.5v.803l.364.104C27.36 6.18 30.5 10.331 30.5 15v12a4.507 4.507 0 004 4.473V34.5h-29z" fill="#ffeea3"></path><path d="M20 2c1.103 0 2 .897 2 2v1.181l.727.206C27.009 6.6 30 10.553 30 15v12a5.01 5.01 0 004 4.9V34H6v-2.1a5.01 5.01 0 004-4.9V15c0-4.447 2.991-8.4 7.273-9.613L18 5.181V4c0-1.103.897-2 2-2m0-1a3 3 0 00-3 3v.425C12.385 5.732 9 9.966 9 15v12a4 4 0 01-4 4v4h30v-4a4 4 0 01-4-4V15c0-5.034-3.385-9.268-8-10.575V4a3 3 0 00-3-3z" fill="#ba9b48"></path><path fill="none" stroke="#36404d" stroke-miterlimit="10" d="M3 3l34 34"></path></svg>