<svg viewBox="0 0 40 40" xmlns="http://www.w3.org/2000/svg"><path d="M2.904 38.5c-.394 0-.759-.159-1.028-.447a1.389 1.389 0 01-.374-1.035c.021-.386.194-.735.487-.986L28.52 13.007l.242.261L3.903 38.083c-.267.27-.621.417-.999.417z" fill="#b6c9d6"></path><path d="M21.879 19.432l-18.333 18.3a.896.896 0 01-.641.268.894.894 0 01-.662-.288.898.898 0 01-.241-.667.898.898 0 01.318-.639l19.559-16.974m6.678-7.12L1.664 35.651a1.905 1.905 0 00-.153 2.742c.375.404.884.607 1.394.607.489 0 .979-.187 1.352-.563L29.458 13.28l-.901-.968z" fill="#788b9c"></path><circle cx="29" cy="12.5" r="1.5" fill="#66798f"></circle><path d="M20.509 12.5a1.01 1.01 0 01-1.009-1.01V2.51c0-.557.453-1.01 1.009-1.01H37.49a1.01 1.01 0 011.009 1.01v8.98a1.01 1.01 0 01-1.009 1.01H20.509z" fill="#b0c1d4"></path><path d="M37.491 2a.51.51 0 01.509.509v8.981a.51.51 0 01-.509.51H20.509a.51.51 0 01-.509-.509V2.509A.51.51 0 0120.509 2h16.982m0-1H20.509A1.51 1.51 0 0019 2.509v8.981c0 .834.676 1.51 1.509 1.51H37.49A1.51 1.51 0 0039 11.491V2.509A1.51 1.51 0 0037.491 1z" fill="#66798f"></path><path fill="#fff" d="M22.5 1.5h13v11h-13z"></path><path d="M35 2v10H23V2h12m1-1H22v12h14V1z" fill="#66798f"></path><g><path d="M30.028 4.873h-2.057a.936.936 0 00-.936.936v1.956a1.965 1.965 0 003.93 0V5.81a.937.937 0 00-.937-.937z" fill="#f5ce85"></path></g><g><path d="M32.111 9.333s-.655-.299-.655-.889c0-.524.164-1.303.164-1.998 0-1.178-.735-1.78-1.509-1.78 0 0-.402-.667-1.333-.667-1.266 0-2.398 1.142-2.398 2.891 0 .587.164 1.101.164 1.554 0 .66-.655 1.111-.655 1.111s.688.445 1.345.445c.541 0 1.098-.374 1.098-.374s-.642-.381-.642-1.404v-.095c0-.602.151-.948.643-1.016 1.152-.159 1.556-.889 1.556-.889s.421.341.421.869v1.131c0 1.004-.643 1.404-.643 1.404s.447.374 1.111.374c.719 0 1.333-.667 1.333-.667z" fill="#a16a4a"></path></g><path fill="none" stroke="#36404d" stroke-miterlimit="10" d="M3 3l34 34"></path></svg>