<svg viewBox="0 0 40 40" xmlns="http://www.w3.org/2000/svg"><path d="M8 37.5c-.827 0-1.5-.673-1.5-1.5v-8.5h27V36c0 .827-.673 1.5-1.5 1.5H8z" fill="#ffc49c"></path><path d="M33 28v8c0 .551-.449 1-1 1H8c-.551 0-1-.449-1-1v-8h26m1-1H6v9a2 2 0 002 2h24a2 2 0 002-2v-9z" fill="#a16a4a"></path><path d="M16.021 38.5a2.922 2.922 0 01-2.154-.952L4.159 26.877a9.844 9.844 0 01-2.158-9.831c.093-.2.184-.502.316-.938l.037-.122-.026-.126c-.766-3.694 1.192-7.204 4.653-8.343l.277-.091.057-.287C7.823 4.564 10.354 2.9 13.764 2.9c.28 0 .566.011.858.033l.274.021.166-.223C15.13 2.642 16.761.5 20 .5s4.87 2.142 4.938 2.232l.165.222.275-.021c.292-.022.578-.033.858-.033 3.41 0 5.94 1.664 6.448 4.238l.057.287.277.091c3.462 1.14 5.419 4.649 4.653 8.344l-.026.125.037.122c.143.469.233.769.322.958a9.84 9.84 0 01-2.159 9.807l-9.713 10.675a2.92 2.92 0 01-2.154.953h-7.957z" fill="#f5ce85"></path><path d="M20 1c2.969 0 4.475 1.95 4.534 2.028l.329.448.554-.043c.276-.021.552-.032.82-.032 3.16 0 5.498 1.505 5.957 3.834l.113.574.555.183c3.216 1.06 5.033 4.326 4.32 7.767l-.052.249.074.244c.115.378.209.69.317.936h-.001a9.351 9.351 0 01-2.048 9.353l-9.709 10.67a2.42 2.42 0 01-1.785.789h-7.956a2.42 2.42 0 01-1.785-.789L4.52 26.531a9.345 9.345 0 01-2.039-9.343H2.48c.108-.246.202-.558.317-.936l.074-.244-.052-.249c-.713-3.441 1.103-6.708 4.32-7.767l.555-.183.113-.574c.459-2.329 2.797-3.834 5.957-3.834.268 0 .544.011.82.032l.554.043.329-.448C15.481 3.007 16.99 1 20 1m0-1c-3.552 0-5.34 2.436-5.34 2.436a11.933 11.933 0 00-.897-.035c-3.704 0-6.387 1.843-6.938 4.641-3.888 1.281-5.764 5.169-4.986 8.92-.259.856-.3.911-.306.911l-.001-.001c-1.2 3.6-.334 7.569 2.257 10.342l9.708 10.67A3.413 3.413 0 0016.022 39h7.956c.961 0 1.878-.405 2.525-1.116l9.708-10.67a10.353 10.353 0 002.257-10.342l-.001.001c-.006 0-.047-.055-.306-.911.778-3.751-1.098-7.639-4.986-8.92-.551-2.798-3.234-4.641-6.938-4.641-.293 0-.592.011-.897.035C25.34 2.436 23.552 0 20 0z" fill="#967a44"></path><path fill="none" stroke="#967a44" stroke-miterlimit="10" d="M25.203 3.259l-4.524 34.889M32.841 7.685L22.036 38.321M37.478 16.031l-14.085 22.29M14.797 3.259l4.524 34.889M7.159 7.685l10.805 30.636"></path><g><path fill="none" stroke="#967a44" stroke-miterlimit="10" d="M2.522 16.031l14.085 22.29"></path></g><path fill="none" stroke="#36404d" stroke-miterlimit="10" d="M3 3l34 34"></path></svg>