<svg viewBox="0 0 40 40" xmlns="http://www.w3.org/2000/svg"><path d="M14.668 22.525c-.78 0-1.456-.503-1.684-1.25l-.038-.125a1.754 1.754 0 01.131-1.343 1.75 1.75 0 011.042-.854l8.174-2.451 1.062 3.496-8.173 2.45c-.168.05-.341.077-.514.077z" fill="#dcd5f2"></path><path d="M21.96 17.123l.771 2.539-7.696 2.307a1.28 1.28 0 01-.367.055c-.55 0-1.045-.368-1.205-.895l-.039-.127a1.254 1.254 0 01.094-.96 1.25 1.25 0 01.742-.611l7.7-2.308m.668-1.244l-8.654 2.595a2.26 2.26 0 00-1.506 2.82l.039.127a2.26 2.26 0 002.82 1.506l8.654-2.595-1.353-4.453z" fill="#8b75a1"></path><path fill="#dcd5f2" stroke="#8b75a1" stroke-miterlimit="10" d="M15.586 18.28l1.218 3.886"></path><path d="M3.254 37.112c-.454 0-.884-.175-1.21-.491a1.74 1.74 0 01-.041-2.445l10.846-11.078 11.565-3.509.098-.18c.065-.121 6.552-12.051 7.422-13.532 1.398-2.38 4.653-2.87 6.177-2.967L27.728 21.188a10.68 10.68 0 01-6.399 4.95l-8.834 2.396-7.988 8.046a1.729 1.729 0 01-1.253.532z" fill="#8bb7f0"></path><path d="M37.198 3.504l-9.9 17.429a10.18 10.18 0 01-6.096 4.721l-8.708 2.361-.259.07-.189.19-7.904 7.96c-.235.243-.55.376-.888.376a1.236 1.236 0 01-.897-2.084l10.759-10.99 11.246-3.413.392-.119.196-.36c.065-.12 6.548-12.043 7.414-13.517 1.045-1.775 3.268-2.404 4.834-2.624m1.58-1.116c-1.006 0-5.477.176-7.275 3.236-.884 1.505-7.431 13.546-7.431 13.546l-11.491 3.487L1.643 33.829a2.235 2.235 0 003.219 3.102l7.895-7.951 8.708-2.361a11.238 11.238 0 006.699-5.184L38.981 2.39s-.072-.003-.203-.002z" fill="#4e7ab5"></path><path fill="none" stroke="#4e7ab5" stroke-miterlimit="10" d="M31.374 7.42l3.491 1.894"></path><g><circle cx="7.5" cy="21.5" r="3" fill="#f5ce85"></circle><path d="M7.5 19c1.378 0 2.5 1.122 2.5 2.5S8.878 24 7.5 24 5 22.878 5 21.5 6.122 19 7.5 19m0-1a3.5 3.5 0 100 7 3.5 3.5 0 000-7z" fill="#967a44"></path></g><path fill="none" stroke="#36404d" stroke-miterlimit="10" d="M3 3l34 34"></path></svg>