<svg viewBox="0 0 40 40" xmlns="http://www.w3.org/2000/svg"><path d="M10.734 35.595c-1.73 0-3.226-.621-4.443-1.844-2.74-2.749-2.38-7.041.989-11.777.065-.07 9.826-11.129 14.213-15.531 2.636-2.647 5.703-2.869 8.372-2.869.317 0 1.773.014 1.773.014 1.509-.001 2.937-.074 3.828-.97a.398.398 0 01.564 0c.062.062.047.267.036.401-.016.207-.035.465.165.667a.66.66 0 00.482.179c.054 0 .31-.019.376-.019.109 0 .181.016.211.047a.404.404 0 01-.002.569c-.951 1.247-.882 2.905-.803 4.825.122 2.94.261 6.273-2.834 9.379-4.381 4.401-15.567 14.02-15.681 14.116-2.552 1.83-5.07 2.813-7.246 2.813z" fill="#9bcc9f"></path><path d="M35.558 3.205c.001.246.051.566.322.837.214.215.495.323.834.323h.033c-.901 1.325-.828 3.085-.75 4.944.118 2.838.252 6.055-2.689 9.005-4.248 4.267-14.936 13.474-15.619 14.061-2.49 1.779-4.895 2.719-6.956 2.719-1.592 0-2.968-.571-4.089-1.697-3.598-3.609-.518-8.926 1.013-11.091.648-.734 9.946-11.252 14.189-15.511 2.5-2.512 5.45-2.722 8.018-2.722.315 0 .623.003.923.007.291.003.575.006.849.006 1.429 0 2.898-.072 3.922-.881M35.748 2a.898.898 0 00-.636.264c-.722.725-1.959.822-3.475.822-.557 0-1.152-.013-1.773-.013-2.736 0-5.978.255-8.727 3.016-4.446 4.465-14.264 15.595-14.264 15.595-3.176 4.464-4.156 9.19-.937 12.419 1.373 1.379 3.018 1.991 4.797 1.991 2.391 0 5.025-1.104 7.574-2.932 0 0 11.263-9.677 15.709-14.142 5.294-5.312 1.567-11.475 3.637-14.204a.907.907 0 000-1.276c-.159-.159-.37-.193-.564-.193-.145 0-.28.019-.376.019-.059 0-.103-.007-.126-.03-.111-.111.147-.718-.203-1.071A.893.893 0 0035.748 2z" fill="#5e9c76"></path><path d="M27.133 19.996c-.969 0-3.509-.943-3.509-1.887 0-.944 2.54-1.888 3.508-1.888.971 0 1.756.845 1.756 1.888 0 1.042-.786 1.887-1.755 1.887zM22.661 24.68c-1.026 0-3.714-1-3.714-1.999s2.689-1.999 3.714-1.999c1.027 0 1.858.896 1.858 1.999 0 1.104-.832 1.999-1.858 1.999zM18.375 29.049c-.982 0-3.554-.957-3.554-1.912s2.573-1.913 3.553-1.913 1.779.857 1.778 1.913c.001 1.056-.797 1.912-1.777 1.912zM14.216 32.011c-.769 0-2.783-.749-2.783-1.496s2.015-1.498 2.783-1.496c.768-.001 1.391.67 1.391 1.497-.001.824-.623 1.495-1.391 1.495zM33.339 11.002c-.593 0-2.15-.579-2.15-1.156.001-.578 1.557-1.156 2.15-1.156s1.074.517 1.073 1.155c0 .639-.48 1.157-1.073 1.157zM19.835 12.942c0 1.004.969 3.634 1.939 3.634.968 0 1.937-2.629 1.939-3.634-.002-1.001-.868-1.815-1.94-1.815-1.07-.001-1.938.812-1.938 1.815zM15.512 17.181c0 .957.925 3.466 1.85 3.466s1.85-2.509 1.851-3.466c-.001-.958-.829-1.733-1.851-1.733-1.019 0-1.85.774-1.85 1.733zM10.993 21.354c-.001 1.023.988 3.703 1.977 3.703.987 0 1.976-2.68 1.977-3.702-.001-1.023-.886-1.852-1.977-1.852-1.092.001-1.978.83-1.977 1.851zM8.043 25.698c0 .763.738 2.762 1.473 2.762.736-.002 1.473-1.999 1.472-2.761 0-.764-.658-1.382-1.473-1.382-.811 0-1.472.617-1.472 1.381zM30.61 15.337c-.796 0-2.883-.776-2.883-1.549 0-.773 2.088-1.551 2.883-1.549.795-.001 1.44.695 1.44 1.551 0 .854-.644 1.547-1.44 1.547zM24.518 9.074c0 .858.831 3.112 1.66 3.112.83-.002 1.66-2.253 1.659-3.111 0-.861-.742-1.558-1.659-1.558-.916 0-1.66.696-1.66 1.557zM28.923 6.48c0 .611.588 2.207 1.178 2.207.587 0 1.176-1.596 1.176-2.207 0-.609-.527-1.103-1.177-1.103s-1.178.494-1.177 1.103z" fill="#fff"></path><g><path d="M6.95 32.523l13.941-14.021c.288-.291 3.702-3.441 7.286-6.74-3.293 3.594-6.438 7.018-6.726 7.308l-.896.901c-2.055 2.07-7.293 7.347-13.04 13.119l-.565-.567z" fill="#bae0bd"></path><path d="M36.384 3.54S21.17 17.51 20.537 18.15L6.245 32.523l1.271 1.276c7.286-7.316 13.846-13.93 14.29-14.376.635-.637 14.578-15.883 14.578-15.883z" fill="#5e9c76"></path></g><g><path d="M2.672 36.428c.737-.948 2.422-3.417 1.545-5.176-1.928-3.868-.986-6.984.502-10.016 1.547 4.353 2.448 9.876 2.458 9.936l.241 1.406 1.371.201c.116.007 6.137.231 10.099 2.352-2.397.945-4.485 1.406-6.359 1.406-1.371 0-2.65-.257-3.802-.765a2.573 2.573 0 00-1.046-.207c-1.569 0-3.352 1.201-4.104 1.768l-.905-.905z" fill="#bae0bd"></path><path d="M4.648 22.598c1.285 4.06 2.026 8.602 2.037 8.665l.179 1.042.123.714.717.105 1.012.149.056.008.056.002c.058.002 4.99.188 8.776 1.789-1.882.647-3.555.964-5.076.964-1.32 0-2.497-.236-3.6-.722a3.076 3.076 0 00-1.247-.25c-1.512 0-3.132.961-4.054 1.61l-.296-.294c.858-1.195 2.233-3.546 1.333-5.351-1.506-3.022-1.274-5.479-.016-8.431M4.787 20c-1.961 3.748-3.185 7.127-1.018 11.475C4.694 33.331 2 36.463 2 36.463L3.537 38s2.295-1.935 4.144-1.935c.297 0 .582.05.844.165 1.252.551 2.587.806 4.003.806 2.286 0 4.781-.665 7.472-1.824-4.05-2.695-11.139-2.929-11.139-2.929l-1.012-.149-.179-1.041S6.617 24.56 4.787 20z" fill="#5e9c76"></path></g><path fill="none" stroke="#36404d" stroke-miterlimit="10" d="M3 3l34 34"></path></svg>