<svg viewBox="0 0 40 40" xmlns="http://www.w3.org/2000/svg"><path fill="#c2e8ff" d="M9.5 17.384V6.616L19 2.544l9.5 4.072v10.768L19 21.456z"></path><path d="M19 3.088l9 3.857v10.11l-9 3.857-9-3.857V6.945l9-3.857M19 2L9 6.286v11.429L19 22l10-4.286V6.286L19 2z" fill="#7496c4"></path><path d="M19 10.862l-9-3.873 9-3.857 9 3.857-9 3.873z" fill="#d6f0ff"></path><path d="M28 17.011l-9 3.857V10.862l9-3.873v10.022z" fill="#a4d6f5"></path><path fill="#c2e8ff" d="M19.5 32.384V21.616l9.5-4.072 9.5 4.072v10.768L29 36.456z"></path><path d="M29 18.088l9 3.857v10.11l-9 3.857-9-3.857v-10.11l9-3.857M29 17l-10 4.286v11.429L29 37l10-4.286V21.286L29 17z" fill="#7496c4"></path><path d="M29 25.862l-9-3.873 9-3.857 9 3.857-9 3.873z" fill="#d6f0ff"></path><path d="M38 32.011l-9 3.857V25.862l9-3.873v10.022z" fill="#a4d6f5"></path><path fill="#c2e8ff" d="M.5 32.384V21.616l9.5-4.072 9.5 4.072v10.768L10 36.456z"></path><path d="M10 18.088l9 3.857v10.11l-9 3.857-9-3.857v-10.11l9-3.857M10 17L0 21.286v11.429L10 37l10-4.286V21.286L10 17z" fill="#7496c4"></path><g><path d="M10 25.862l-9-3.873 9-3.857 9 3.857-9 3.873z" fill="#d6f0ff"></path></g><g><path d="M19 32.011l-9 3.857V25.862l9-3.873v10.022z" fill="#a4d6f5"></path></g><path fill="none" stroke="#36404d" stroke-miterlimit="10" d="M3 3l34 34"></path></svg>