<svg viewBox="0 0 40 40" xmlns="http://www.w3.org/2000/svg"><path d="M24.613 13.786l-2.478 7.435A4.06 4.06 0 0118.279 24h-7.564V13.786h13.898m1.387-1H9.715V25h8.564a5.064 5.064 0 004.804-3.462L26 12.786z" fill="#788b9c"></path><path d="M18.556 22.388c-1.66-.906-5.055-3.11-5.055-4.816 0-1.594 1.727-3.713 2.517-3.713.236 0 .331.544.34 1.009.061 3.1 2.124 5.82 2.95 6.788l-.752.732z" fill="#b6c9d6"></path><path d="M15.821 14.45c.018.1.033.238.037.427.057 2.922 1.794 5.509 2.773 6.74l-.158.154c-1.995-1.133-4.472-3.018-4.472-4.199 0-1.228 1.191-2.733 1.82-3.122m.197-1.091c-1.135 0-3.017 2.429-3.017 4.213 0 2.53 5.643 5.428 5.643 5.428L20 21.679s-3.071-3.178-3.143-6.821c-.02-1.075-.364-1.499-.839-1.499z" fill="#788b9c"></path><path d="M9.879 34.5c-4.186 0-8.279-.342-8.378-4.432-.081-3.339 1.612-7.131 2.624-9.396.395-.884.68-1.523.775-1.929a2.64 2.64 0 00-.49-2.258 2.592 2.592 0 00-2.047-.985H1.51c.168-4.657 2.671-5.835 3.091-6h2.335l.667-1h.883l1.003 1H32.5l.75-1h2.25v1h3v6h-2.171l-1.348 3h-16.72c-1.75 0-3.278 1.23-3.634 2.926-.527 2.506-.832 4.7-1.076 6.464-.697 5.021-1.042 6.61-3.672 6.61z" fill="#b6c9d6"></path><path d="M35 9v1h3v5h-1.995l-.265.59L34.657 18H18.262c-1.985 0-3.719 1.397-4.124 3.322-.531 2.523-.836 4.727-1.082 6.497C12.339 32.987 12.013 34 9.879 34c-4.929 0-7.799-.645-7.878-3.944-.078-3.226 1.586-6.953 2.581-9.181.406-.909.699-1.566.806-2.018a3.137 3.137 0 00-.585-2.683 3.086 3.086 0 00-2.274-1.17L2.514 15h-.475c.292-3.711 2.182-4.786 2.66-5h2.505l.296-.445L7.87 9h.409l.71.708.293.292H32.75l.3-.4.45-.6H35m1-1h-3l-.75 1H9.695L8.692 8H7.335l-.667 1H4.515s-3.514 1.068-3.514 7H2.363c1.375 0 2.373 1.268 2.051 2.627-.322 1.361-3.526 6.759-3.413 11.453C1.114 34.774 5.977 35 9.879 35c4.411 0 3.345-4.475 5.238-13.472C15.428 20.049 16.75 19 18.262 19h17.042l1.348-3H39V9h-3V8z" fill="#788b9c"></path><g><path fill="none" stroke="#788b9c" stroke-miterlimit="10" d="M18 15.5h18"></path></g><path fill="none" stroke="#36404d" stroke-miterlimit="10" d="M3 3l34 34"></path></svg>