<svg viewBox="0 0 40 40" xmlns="http://www.w3.org/2000/svg"><path d="M20 29.357c-9.159 0-17.5-2.554-17.5-5.357 0-1.729 4.769-5.5 9.5-5.5 2.355 0 3.542.282 4.688.556.961.228 1.868.444 3.312.444 2.091 0 3.835-.304 5.374-.572 1.262-.22 2.454-.428 3.626-.428 3.972 0 8.5 2.93 8.5 5.5 0 2.804-8.341 5.357-17.5 5.357z" fill="#ffeea3"></path><path d="M29 19c3.969 0 8 2.909 8 5 0 1.934-6.78 4.857-17 4.857S3 25.934 3 24c0-1.362 4.377-5 9-5 2.296 0 3.454.275 4.573.542.99.235 1.925.458 3.427.458 2.134 0 3.901-.308 5.46-.58 1.294-.225 2.411-.42 3.54-.42m0-1c-2.661 0-5.232 1-9 1-3.052 0-3.581-1-8-1-4.786 0-10 3.772-10 6 0 3.373 9.006 5.857 18 5.857S38 27.373 38 24c0-2.878-4.75-6-9-6z" fill="#ba9b48"></path><path d="M20 32.071c-8.956 0-14.5-3.151-14.5-6.071 0-1.889 2.531-5.5 6.5-5.5 2.355 0 3.542.282 4.688.556.961.228 1.868.444 3.312.444 2.091 0 3.835-.304 5.374-.572 1.262-.22 2.454-.428 3.626-.428 3.259 0 6.319 3.721 6.319 5.964 0 2.696-5.857 5.607-15.319 5.607z" fill="#ffeea3"></path><path d="M29 21c3.126 0 5.819 3.665 5.819 5.464 0 3.01-7.81 5.107-14.819 5.107-9.135 0-14-3.236-14-5.571 0-1.756 2.474-5 6-5 2.296 0 3.454.275 4.573.542.99.235 1.925.458 3.427.458 2.134 0 3.901-.308 5.46-.58 1.294-.225 2.411-.42 3.54-.42m0-1c-2.661 0-5.232 1-9 1-3.052 0-3.581-1-8-1-4.173 0-7 3.772-7 6 0 3.373 6.006 6.571 15 6.571s15.819-2.734 15.819-6.107C35.819 24.047 32.605 20 29 20z" fill="#ba9b48"></path><path fill="#66798f" d="M4 9v1h34V8.454zM3.903 6.004l.099.995 33.835-3.34-.152-1.538z"></path><path fill="#ffeea3" stroke="#ba9b48" stroke-linecap="round" stroke-linejoin="round" stroke-miterlimit="10" d="M6.5 5.5v18.929M8.5 5.242V10.5M10.5 5.043V10.5M12.5 4.591V10.5M14.5 4.14v6.36"></path><g><path d="M10.5 37.5c-.472 0-.884-.335-.979-.797l-.067-.325-.325-.064C4.708 35.43 1.5 31.514 1.5 27v-3.5h37V27c0 4.514-3.208 8.43-7.629 9.313l-.325.064-.067.325a1.003 1.003 0 01-.979.798h-19z" fill="#8bb7f0"></path><path d="M38 24v3c0 4.276-3.039 7.987-7.227 8.823l-.65.13-.134.649A.5.5 0 0129.5 37h-19a.502.502 0 01-.49-.398l-.134-.649-.65-.13C5.039 34.987 2 31.276 2 27v-3h36m1-1H1v4c0 4.849 3.451 8.889 8.031 9.804A1.5 1.5 0 0010.5 38h19a1.5 1.5 0 001.469-1.196C35.549 35.889 39 31.849 39 27v-4z" fill="#4e7ab5"></path></g></svg>