<svg viewBox="0 0 40 40" xmlns="http://www.w3.org/2000/svg"><path d="M20 38.5c-9.382 0-14.5-1.651-14.5-2.5V4c0-1.378 1.121-2.5 2.5-2.5h24c1.379 0 2.5 1.122 2.5 2.5v32c0 .849-5.118 2.5-14.5 2.5z" fill="#ffc49c"></path><path d="M32 2c1.103 0 2 .897 2 2v31.892c-.642.74-5.373 2.108-14 2.108S6.642 36.632 6 35.892V4c0-1.103.897-2 2-2h24m0-1H8a3 3 0 00-3 3v32c0 1.657 6.716 3 15 3s15-1.343 15-3V4a3 3 0 00-3-3z" fill="#a16a4a"></path><path fill="#fff" d="M9 5h22v26H9z"></path><path fill="none" stroke="#aab8c4" stroke-miterlimit="10" d="M13 10.5h14M13 15.5h14M13 18.5h11M13 21.5h14M13 24.5h11"></path><path d="M18.5 36v-1a1.5 1.5 0 011.5-1.5h0a1.5 1.5 0 011.5 1.5v1" fill="none" stroke="#a16a4a" stroke-miterlimit="10"></path></svg>