<svg viewBox="0 0 40 40" xmlns="http://www.w3.org/2000/svg"><path fill="#f2faff" d="M.558 18.558L4.407 4.407 18.538.558l20.754 20.588-18.146 18.146z"></path><path d="M18.39 1.117l20.193 20.03-17.437 17.436L1.117 18.411 4.815 4.814 18.39 1.117M18.685 0L4 4 0 18.705 21.144 40 40 21.144 18.685 0z" fill="#788b9c"></path><path fill="#f78f8f" d="M.559 18.556L4.407 4.407 18.536.559l4.503 4.518L8.926 8.926 5.077 23.041z"></path><path d="M18.387 1.118l3.691 3.703L9.07 8.369l-.551.15-.15.551L4.82 22.081l-3.702-3.675L4.815 4.814l13.572-3.696M18.685 0L4 4 0 18.705 5.333 24l4-14.667 14.667-4L18.685 0z" fill="#c74343"></path><g fill="#36404d"><path d="M19.779 13.758l-3.485 3.438-.172.171 1.307-5.993-1.702-1.726L9.39 15.9l1.605 1.628 3.465-3.418c.112-.11.215-.213.31-.31l-1.334 6.203 1.612 1.633 6.338-6.251-1.607-1.627zM29.419 23.523l-4.599 2.978 2.901-4.701-1.696-1.718-4.901 2.752 3.055-4.624-1.823-1.848-4.694 7.919 1.805 1.828 4.713-2.692-2.783 4.649 1.745 1.77 7.989-4.577z"></path></g></svg>