<svg viewBox="0 0 40 40" xmlns="http://www.w3.org/2000/svg"><path fill="#f2faff" d="M2.652 29.738L13.748 2.476 28.352.525l9.075 11.555-11.139 27.261z"></path><path d="M28.136 1.059l8.719 11.102L26.014 38.69 3.303 29.463 14.102 2.934l14.034-1.875m.433-1.067L13.395 2.019 2 30.013l24.563 9.979L38 12 28.569-.008z" fill="#788b9c"></path><path fill="#f78f8f" d="M25.929 6.461L11.358 8.398l2.391-5.922L28.352.525l9.075 11.554-2.429 5.923z"></path><path d="M28.136 1.059l8.718 11.101-1.992 4.859-8.364-10.643-.353-.449-.565.076-13.437 1.786 1.961-4.855 14.032-1.875m.433-1.067L13.395 2.019l-2.822 6.987 15.139-2.013 9.424 11.992L38 12 28.569-.008z" fill="#c74343"></path><g fill="#36404d"><path d="M17.507 17.952l3.258 1.398-4.169.725-.732 1.708 6.036 2.589.706-1.646-3.293-1.412-.076-.033 4.318-.765.694-1.622-6.036-2.589-.706 1.647zM14.604 25.144l3.258 1.398-4.169.725-.732 1.708 6.036 2.589.706-1.645-3.293-1.412-.077-.033 4.319-.765.694-1.622-6.036-2.588-.706 1.645zM25.02 13.045l-.904 2.085-.815-.353.789-1.821-1.476-.64-.789 1.821-.78-.338.848-1.957-1.479-.641-1.591 3.669 6.026 2.613 1.646-3.798z"></path></g></svg>