<svg viewBox="0 0 40 40" xmlns="http://www.w3.org/2000/svg"><path fill="#f2faff" d="M2.573 12.08L11.647.525l14.605 1.952 11.096 27.261-23.637 9.603z"></path><path d="M11.864 1.059l14.034 1.875 10.799 26.529-22.711 9.227-10.84-26.53 8.718-11.101m-.433-1.067L2 12l11.437 27.992L38 30.013 26.605 2.019 11.431-.008z" fill="#788b9c"></path><path fill="#f78f8f" d="M2.573 12.08L11.647.525l14.604 1.952 2.391 5.921-14.571-1.937-9.069 11.541z"></path><path d="M11.864 1.059l14.032 1.875 1.961 4.855L14.42 6.003l-.566-.075-.353.449-8.362 10.641-1.993-4.858 8.718-11.101m-.433-1.067L2 12l2.865 6.986 9.424-11.992 15.139 2.013-2.822-6.987L11.431-.008z" fill="#c74343"></path><g fill="#36404d"><path d="M23.191 19.73l-3.288 1.327 2.424-3.47-.696-1.723-6.09 2.458.67 1.661 3.322-1.342.077-.031-2.5 3.603.661 1.636 6.09-2.458-.67-1.661zM20.134 12.602l-3.288 1.327 2.424-3.469-.696-1.724-6.09 2.458.67 1.66 3.323-1.341.077-.031-2.5 3.603.661 1.636 6.09-2.458-.671-1.661zM27.135 29.311l-3.64.68 3.02-2.195-.702-1.712-3.799.465 3.121-2.121-.767-1.872-5.422 4.09.744 1.816 3.677-.479-2.965 2.218.72 1.758 6.736-.883z"></path></g></svg>