<svg viewBox="0 0 40 40" xmlns="http://www.w3.org/2000/svg"><path d="M20 35.5c-8.547 0-15.5-6.953-15.5-15.5 0-6.771 4.36-12.682 10.729-14.732l-2.915 6.193A11.504 11.504 0 008.5 20c0 6.341 5.159 11.5 11.5 11.5S31.5 26.341 31.5 20c0-3.249-1.389-6.355-3.814-8.539l-2.915-6.193A15.452 15.452 0 0135.5 20c0 8.547-6.953 15.5-15.5 15.5z" fill="#c2e8ff"></path><path d="M14.259 6.155l-2.354 5.003A11.999 11.999 0 008 20c0 6.617 5.383 12 12 12s12-5.383 12-12c0-3.356-1.42-6.567-3.904-8.842l-2.354-5.003A14.954 14.954 0 0135 20c0 8.271-6.729 15-15 15S5 28.271 5 20a14.953 14.953 0 019.259-13.845m1.89-1.669C9.176 6.212 4 12.494 4 20c0 8.837 7.163 16 16 16 8.836 0 16-7.163 16-16 0-7.506-5.176-13.788-12.149-15.514l3.426 7.28C29.555 13.782 31 16.719 31 20c0 6.075-4.925 11-11 11S9 26.075 9 20c0-3.281 1.445-6.219 3.723-8.234l3.426-7.28z" fill="#7496c4"></path><path fill="#8bb7f0" d="M1.5 19.5h7v1h-7z"></path><path fill="#4e7ab5" d="M9 19H1v2h8v-2z"></path><path fill="#8bb7f0" d="M19.5 31.5h1v7h-1z"></path><path d="M20 32v6-6m1-1h-2v8h2v-8z" fill="#4e7ab5"></path><g><path fill="#8bb7f0" d="M31.5 19.5h7v1h-7z"></path><path fill="#4e7ab5" d="M39 19h-8v2h8v-2z"></path></g><g><path fill="#f78f8f" d="M20 14.466L12.977 17.1 20 2.174 27.023 17.1z"></path><path d="M20 3.349L26.048 16.2l-5.697-2.136-.351-.132-.351.132-5.697 2.136L20 3.349M20 1l-8 17 8-3 8 3-8-17z" fill="#c74343"></path></g></svg>