<svg viewBox="0 0 40 40" xmlns="http://www.w3.org/2000/svg"><path fill="#f2faff" d="M.707 21.333L21.464.559l14.129 3.848 3.848 14.15-20.774 20.736z"></path><path d="M21.613 1.117l13.573 3.697 3.697 13.593-20.216 20.179L1.414 21.333 21.613 1.117M21.315 0L0 21.333 18.667 40 40 18.705 36 4 21.315 0z" fill="#788b9c"></path><path fill="#f78f8f" d="M31.074 8.926L16.961 5.077 21.464.559l14.129 3.848 3.848 14.149-4.518 4.485z"></path><path d="M21.613 1.118l13.572 3.697 3.697 13.591-3.702 3.675L31.631 9.07l-.15-.551-.551-.15-13.008-3.548 3.691-3.703M21.315 0L16 5.333l14.667 4 4 14.667L40 18.705 36 4 21.315 0z" fill="#c74343"></path><g fill="#36404d"><path d="M15.082 18.683l3.438 3.486.17.171-5.992-1.307-1.726 1.702 6.252 6.338 1.628-1.606-3.418-3.465a44.95 44.95 0 00-.309-.309l6.202 1.333 1.633-1.612-6.251-6.338-1.627 1.607zM27.128 16.399l-2.225 2.225-1.006-1.005 1.944-1.944-1.439-1.439-1.944 1.944-.968-.969 2.089-2.088-1.444-1.443-3.78 3.78 6.295 6.295 3.917-3.917z"></path></g></svg>