<svg viewBox="0 0 40 40" id="age_x" xmlns="http://www.w3.org/2000/svg"><path d="M20.5 5c0-3.494 3.152-3.5 3.5-3.5M19.5 6c0-3.494-3.152-3.5-3.5-3.5" fill="none" stroke="#7a4f34" stroke-miterlimit="10"></path><path d="M34 25.5c-1.93 0-3.5-1.57-3.5-3.5s1.57-3.5 3.5-3.5 3.5 1.57 3.5 3.5-1.57 3.5-3.5 3.5zm-28 0c-1.93 0-3.5-1.57-3.5-3.5s1.57-3.5 3.5-3.5 3.5 1.57 3.5 3.5-1.57 3.5-3.5 3.5z" fill="#deb974"></path><path d="M34 19c1.654 0 3 1.346 3 3s-1.346 3-3 3-3-1.346-3-3 1.346-3 3-3M6 19c1.654 0 3 1.346 3 3s-1.346 3-3 3-3-1.346-3-3 1.346-3 3-3m28-1a4 4 0 100 8 4 4 0 000-8zM6 18a4 4 0 100 8 4 4 0 000-8z" fill="#967a44"></path><path d="M20 38.5a4.32 4.32 0 01-3.056-1.259l-.101-.1-.138-.032A14.426 14.426 0 015.5 23v-4c0-7.995 6.505-14.5 14.5-14.5S34.5 11.005 34.5 19v4a14.426 14.426 0 01-11.206 14.109l-.138.032-.101.1A4.317 4.317 0 0120 38.5z" fill="#f5ce85"></path><path d="M20 5c7.72 0 14 6.28 14 14v4c0 6.538-4.449 12.14-10.819 13.622l-.276.064-.201.199C21.978 37.604 21.018 38 20 38s-1.978-.396-2.704-1.114l-.201-.199-.276-.064A13.93 13.93 0 016 23v-4c0-7.72 6.28-14 14-14m0-1C11.716 4 5 10.716 5 19v4c0 7.11 4.952 13.051 11.592 14.596C17.468 38.463 18.671 39 20 39s2.532-.537 3.408-1.404C30.048 36.051 35 30.11 35 23v-4c0-8.284-6.716-15-15-15z" fill="#967a44"></path><circle cx="26.5" cy="23.5" r="1.5" fill="#2d3540"></circle><circle cx="13.5" cy="23.5" r="1.5" fill="#2d3540"></circle><path d="M14.872 29.038C15.695 31.066 17.677 32.5 20 32.5s4.305-1.434 5.128-3.462" fill="none" stroke="#c74343" stroke-miterlimit="10"></path><path fill="none" stroke="#36404d" stroke-miterlimit="10" d="M3 3l34 34"></path><circle cx="34" cy="34" r="5.5" fill="#f78f8f"></circle><path d="M34 29c2.757 0 5 2.243 5 5s-2.243 5-5 5-5-2.243-5-5 2.243-5 5-5m0-1a6 6 0 100 12 6 6 0 000-12z" fill="#c74343"></path><path fill="none" stroke="#fff" stroke-miterlimit="10" d="M31.576 36.424l4.848-4.848M31.576 31.576l4.848 4.848"></path></svg>