<svg viewBox="0 0 40 40" xmlns="http://www.w3.org/2000/svg"><path fill="#f78f8f" d="M1.5 5.5h37v29h-37z"></path><path d="M38 6v28H2V6h36m1-1H1v30h38V5z" fill="#c74343"></path><path d="M18.016 26.786h-2.461l-6.483-9.975a4.377 4.377 0 01-.407-.786h-.057c.05.29.076.912.076 1.864v8.896H6.507V13.214h2.622l6.265 9.738c.265.404.435.681.511.833h.038c-.063-.36-.095-.968-.095-1.827v-8.745h2.167v13.573zM34.85 26.786h-2.47l-1.221-3.454h-5.338l-1.174 3.454h-2.461l5.082-13.571h2.536l5.046 13.571zm-4.288-5.291l-1.883-5.413a6.38 6.38 0 01-.18-.852h-.038c-.057.36-.12.644-.189.852l-1.864 5.413h4.154z" fill="#fff"></path></svg>