<svg viewBox="0 0 40 40" xmlns="http://www.w3.org/2000/svg"><path d="M16 31.362C13.794 29.599.5 18.726.5 12.75.5 8.201 4.313 4.5 9 4.5a8.125 8.125 0 016.594 3.389l.406.568.406-.568A8.02 8.02 0 0123 4.5c4.687 0 8.5 3.701 8.5 8.25 0 5.978-13.294 16.849-15.5 18.612z" fill="#f76d6d"></path><path d="M23 5c4.411 0 8 3.477 8 7.75 0 4.95-10.298 14.217-15 17.976C11.298 26.967 1 17.7 1 12.75 1 8.477 4.589 5 9 5a7.622 7.622 0 016.187 3.179L16 9.316l.813-1.137A7.525 7.525 0 0123 5m0-1c-2.9 0-5.4 1.361-7 3.597A8.613 8.613 0 009 4c-5 0-9 3.889-9 8.75C0 19.556 16 32 16 32s16-12.444 16-19.25C32 7.889 28 4 23 4z" fill="#c74343"></path><g><path d="M23.36 35.378c-1.544-1.992-9.883-13.036-8.762-17.731.702-3.031 3.467-5.146 6.724-5.146.529 0 1.062.058 1.583.172 2.051.521 3.672 1.904 4.55 3.894l.264.598.508-.411c1.302-1.055 2.854-1.611 4.488-1.611.497 0 .999.053 1.493.157 3.656.889 5.959 4.5 5.117 8.047C38.202 28.13 25.65 34.29 23.36 35.378z" fill="#f7a3a3"></path><path d="M21.323 13c.493 0 .99.054 1.444.153 1.915.486 3.417 1.769 4.231 3.614l.528 1.197 1.017-.824c1.212-.982 2.655-1.5 4.175-1.5.462 0 .929.049 1.359.14 3.405.828 5.542 4.169 4.762 7.452-.922 3.931-10.778 9.356-15.33 11.526-3.056-3.955-9.344-13.14-8.422-17.002.648-2.801 3.212-4.756 6.236-4.756m0-1c-3.381 0-6.438 2.192-7.21 5.53-1.3 5.444 9.1 18.47 9.1 18.47s15.299-6.999 16.599-12.54c.9-3.791-1.5-7.68-5.5-8.652a7.703 7.703 0 00-1.596-.168c-1.745 0-3.422.604-4.804 1.723-.9-2.041-2.6-3.597-4.9-4.18A7.952 7.952 0 0021.323 12z" fill="#c74343"></path></g></svg>