<svg viewBox="0 0 40 40" xmlns="http://www.w3.org/2000/svg"><path d="M30 13.5c-.827 0-1.5-.673-1.5-1.5V5.617l-.37-.1C27.96 5.472 23.921 4.4 20 4.4s-7.96 1.072-8.13 1.117l-.37.1V12c0 .827-.673 1.5-1.5 1.5H3c-.827 0-1.5-.673-1.5-1.5V7.731c0-1.481.929-2.805 2.312-3.292C6.925 3.342 13.167 1.5 20 1.5s13.075 1.842 16.188 2.939A3.488 3.488 0 0138.5 7.731V12c0 .827-.673 1.5-1.5 1.5h-7z" fill="#bae0bd"></path><path d="M20 2c6.76 0 12.94 1.824 16.022 2.911A2.987 2.987 0 0138 7.732V12c0 .551-.449 1-1 1h-7c-.551 0-1-.449-1-1V5.233l-.741-.199C28.087 4.988 23.986 3.9 20 3.9s-8.087 1.088-8.259 1.134L11 5.233V12c0 .551-.449 1-1 1H3c-.551 0-1-.449-1-1V7.732c0-1.27.795-2.403 1.978-2.821C7.06 3.824 13.24 2 20 2m0-1C13.191 1 7.006 2.783 3.646 3.968A3.985 3.985 0 001 7.732V12a2 2 0 002 2h7a2 2 0 002-2V6s4.1-1.1 8-1.1S28 6 28 6v6a2 2 0 002 2h7a2 2 0 002-2V7.732a3.986 3.986 0 00-2.646-3.764C32.994 2.783 26.809 1 20 1z" fill="#5e9c76"></path><circle cx="20" cy="20" r="2.5" fill="#c2e8ff"></circle><path d="M20 18c1.103 0 2 .897 2 2s-.897 2-2 2-2-.897-2-2 .897-2 2-2m0-1a3 3 0 100 6 3 3 0 000-6z" fill="#7496c4"></path><circle cx="20" cy="28" r="2.5" fill="#c2e8ff"></circle><path d="M20 26c1.103 0 2 .897 2 2s-.897 2-2 2-2-.897-2-2 .897-2 2-2m0-1a3 3 0 100 6 3 3 0 000-6z" fill="#7496c4"></path><circle cx="20" cy="36" r="2.5" fill="#c2e8ff"></circle><path d="M20 34c1.103 0 2 .897 2 2s-.897 2-2 2-2-.897-2-2 .897-2 2-2m0-1a3 3 0 100 6 3 3 0 000-6z" fill="#7496c4"></path><circle cx="28" cy="20" r="2.5" fill="#c2e8ff"></circle><path d="M28 18c1.103 0 2 .897 2 2s-.897 2-2 2-2-.897-2-2 .897-2 2-2m0-1a3 3 0 100 6 3 3 0 000-6z" fill="#7496c4"></path><g><circle cx="28" cy="28" r="2.5" fill="#c2e8ff"></circle><path d="M28 26c1.103 0 2 .897 2 2s-.897 2-2 2-2-.897-2-2 .897-2 2-2m0-1a3 3 0 100 6 3 3 0 000-6z" fill="#7496c4"></path></g><g><circle cx="28" cy="36" r="2.5" fill="#c2e8ff"></circle><path d="M28 34c1.103 0 2 .897 2 2s-.897 2-2 2-2-.897-2-2 .897-2 2-2m0-1a3 3 0 100 6 3 3 0 000-6z" fill="#7496c4"></path></g><g><circle cx="12" cy="20" r="2.5" fill="#c2e8ff"></circle><path d="M12 18c1.103 0 2 .897 2 2s-.897 2-2 2-2-.897-2-2 .897-2 2-2m0-1a3 3 0 100 6 3 3 0 000-6z" fill="#7496c4"></path></g><g><circle cx="12" cy="28" r="2.5" fill="#c2e8ff"></circle><path d="M12 26c1.103 0 2 .897 2 2s-.897 2-2 2-2-.897-2-2 .897-2 2-2m0-1a3 3 0 100 6 3 3 0 000-6z" fill="#7496c4"></path></g><g><circle cx="12" cy="36" r="2.5" fill="#c2e8ff"></circle><path d="M12 34c1.103 0 2 .897 2 2s-.897 2-2 2-2-.897-2-2 .897-2 2-2m0-1a3 3 0 100 6 3 3 0 000-6z" fill="#7496c4"></path></g></svg>