<svg viewBox="0 0 40 40" xmlns="http://www.w3.org/2000/svg"><path fill="#4e7ab5" d="M32 31V2h-3v29h-5l6.5 7 6.5-7z"></path><path d="M10 2v14H7.784V4.712a7.04 7.04 0 01-1.294.731c-.461.2-.988.377-1.58.53V4.082c.369-.121.726-.248 1.07-.382.344-.134.683-.283 1.017-.449A14.573 14.573 0 009.064 2H10zM12.428 38H4v-1.066c0-.436.062-.844.182-1.224s.285-.739.49-1.075c.204-.336.446-.653.72-.951.274-.298.571-.586.883-.864.313-.278.634-.547.96-.807s.647-.52.96-.783c.294-.25.562-.495.807-.735.244-.24.451-.488.624-.744s.307-.527.403-.811c.096-.285.144-.594.144-.927 0-.365-.056-.683-.167-.955a1.85 1.85 0 00-.472-.682c-.2-.182-.439-.32-.715-.413a2.808 2.808 0 00-.903-.139c-.564 0-1.137.131-1.719.394-.582.263-1.143.656-1.68 1.181v-2.141a7.03 7.03 0 01.855-.552c.288-.157.586-.288.893-.394.307-.106.63-.184.97-.235A7.2 7.2 0 018.321 24c.621 0 1.184.082 1.69.245s.937.403 1.296.72c.359.317.635.712.831 1.186.195.474.292 1.018.292 1.632 0 .557-.069 1.058-.207 1.503a4.86 4.86 0 01-.584 1.243c-.254.384-.56.749-.918 1.095a20.97 20.97 0 01-1.2 1.066c-.37.301-.741.594-1.108.879-.369.285-.7.563-.995.835a4.58 4.58 0 00-.715.816 1.453 1.453 0 00-.274.821v.048h5.999V38z" fill="#36404d"></path></svg>