<svg viewBox="0 0 40 40" xmlns="http://www.w3.org/2000/svg"><path d="M30.5 26.5c-1.654 0-3-1.346-3-3s1.346-3 3-3c2.49 0 3 .733 3 1.833 0 1.819-1.455 4.167-3 4.167z" fill="#deb974"></path><path d="M30.5 21c2.5 0 2.5.739 2.5 1.333C33 23.848 31.707 26 30.5 26c-1.379 0-2.5-1.122-2.5-2.5s1.121-2.5 2.5-2.5m0-1a3.5 3.5 0 100 7c1.933 0 3.5-2.734 3.5-4.667C34 20.4 32.433 20 30.5 20z" fill="#967a44"></path><path d="M9.5 26.5c-1.545 0-3-2.347-3-4.167 0-1.101.51-1.833 3-1.833 1.654 0 3 1.346 3 3s-1.346 3-3 3z" fill="#deb974"></path><path d="M9.5 21c1.379 0 2.5 1.122 2.5 2.5S10.879 26 9.5 26C8.293 26 7 23.848 7 22.333 7 21.739 7 21 9.5 21m0-1c-1.933 0-3.5.4-3.5 2.333C6 24.266 7.567 27 9.5 27a3.5 3.5 0 100-7z" fill="#967a44"></path><path d="M20 38.5a4.438 4.438 0 01-3.315-1.483l-.084-.093-.118-.042A10.515 10.515 0 019.5 27V12.381a4.747 4.747 0 014.742-4.742h11.516a4.747 4.747 0 014.742 4.742V27c0 4.424-2.806 8.395-6.982 9.882l-.118.042-.084.093c-.87.956-2.047 1.483-3.316 1.483z" fill="#f5ce85"></path><path d="M25.758 8.139A4.247 4.247 0 0130 12.381V27c0 4.213-2.672 7.995-6.65 9.412l-.236.084-.168.185a3.948 3.948 0 01-5.892-.001l-.168-.185-.236-.084A10.014 10.014 0 0110 27V12.381a4.247 4.247 0 014.242-4.242h11.516m0-1H14.242A5.242 5.242 0 009 12.381V27c0 4.78 3.055 8.837 7.314 10.354C17.229 38.358 18.534 39 20 39s2.771-.642 3.686-1.647C27.945 35.836 31 31.78 31 27V12.381a5.242 5.242 0 00-5.242-5.242z" fill="#967a44"></path><path d="M30.5 24.5v-4.69c0-5.667-4.288-7.265-4.332-7.28l-.322-.116-.225.261c-.033.038-3.374 3.826-9.692 3.826-4.146 0-6.429 2.102-6.429 5.917V24.5h-.184C8.743 23.261 6.5 18.139 6.5 13.874 6.5 6.754 12.855 2.5 19 2.5c4.072 0 6.222 2.04 7.14 3.256l.15.199h.249c1.806 0 6.961 1.52 6.961 8.271 0 3.354-2.263 8.929-2.83 10.274h-.17z" fill="#a6714e"></path><path d="M19 3c3.854 0 5.878 1.916 6.741 3.058l.3.397h.498c1.676 0 6.461 1.428 6.461 7.772 0 2.335-1.145 5.817-2 8.091V19.81c0-6.015-4.473-7.683-4.663-7.751l-.646-.227-.448.515c-.13.149-3.246 3.653-9.315 3.653C11.461 16 9 18.279 9 22.418v.069c-.851-2.147-2-5.604-2-8.614C7 8.602 11.206 3 19 3m0-1C10.673 2 6 8.13 6 13.873 6 18.917 9 25 9 25h1v-2.582C10 18.154 12.892 17 15.928 17 22.575 17 26 13 26 13s4 1.43 4 6.81V25h1s3-6.808 3-10.774c0-6.983-5.357-8.772-7.461-8.772C26.007 4.752 23.794 2 19 2z" fill="#7a4f34"></path><circle cx="25.5" cy="24.5" r="1.5" fill="#36404d"></circle><circle cx="14.5" cy="24.5" r="1.5" fill="#36404d"></circle><g><path d="M30.449 17.242C28.902 16.671 25.104 15.5 20 15.5c-5.173 0-8.987.605-10.455.88L10.4 4.256C11.133 3.707 14.426 1.5 20 1.5c5.571 0 8.863 2.204 9.599 2.755l.85 12.987z" fill="#fff"></path><path d="M20 2c5.05 0 8.162 1.857 9.115 2.522l.786 12.001C28.021 15.903 24.506 15 20 15c-4.581 0-8.113.472-9.911.776l.793-11.252C11.836 3.857 14.949 2 20 2m0-1C13.377 1 9.917 4 9.917 4L9 17s4.427-1 11-1 11 2 11 2l-.917-14S26.623 1 20 1z" fill="#788b9c"></path></g><path fill="none" stroke="#c74343" stroke-width="2" stroke-miterlimit="10" d="M20 13V5M16 9h8"></path></svg>