<svg viewBox="0 0 40 40" xmlns="http://www.w3.org/2000/svg"><path d="M30.803 8.619C34.711 4.711 38.5 4.575 38.5 1.5" fill="none" stroke="#7a4f34" stroke-linecap="round" stroke-linejoin="round" stroke-miterlimit="10"></path><path d="M12.773 38.5c-2.062 0-4.1-.311-6.228-.951a1.72 1.72 0 00-.499-.071c-.529 0-1.067.214-1.588.421-.461.184-.938.373-1.33.373-.218 0-.505-.049-.792-.437-.536-.723-.231-1.316.333-2.208.353-.557.718-1.133.481-1.718l-.075-.184c-4.827-11.84 2.544-21.064 9.578-26.718L14.9 5.245l20.788 18.11-2.801 3.705C26.828 34.647 20.058 38.5 12.773 38.5z" fill="#f5ce85"></path><path d="M14.884 5.894l20.124 17.531-2.503 3.312C26.537 34.211 19.898 38 12.773 38c-2.013 0-4.003-.304-6.082-.929a2.206 2.206 0 00-.645-.093c-.625 0-1.209.232-1.773.456-.418.166-.85.338-1.145.338-.123 0-.229-.017-.391-.235-.322-.434-.207-.757.354-1.642.381-.601.856-1.35.523-2.172l-.076-.186c-4.711-11.555 2.526-20.592 9.418-26.132l1.928-1.511m.033-1.298L12.34 6.619C-3.725 19.532 1.667 31.568 2.688 34.098c.363.898-2.023 2.323-.753 4.036.353.475.761.639 1.194.639.955 0 2.033-.794 2.918-.794.122 0 .241.015.355.05 1.474.442 3.676.971 6.371.971 5.465 0 12.954-2.173 20.513-11.639l3.082-4.077L14.917 4.596z" fill="#967a44"></path><g><path d="M34.857 27.287c-1.119 0-4.617-.896-12.909-9.189-10.91-10.91-9.084-13.465-9.064-13.49C14.899 2.547 17.248 1.5 19.859 1.5c6.381 0 12.348 6.197 12.408 6.26.083.078 6.056 5.691 6.229 11.995.075 2.736-.958 5.233-3.07 7.421-.004 0-.166.111-.569.111z" fill="#a6714e"></path><path d="M19.859 2c6.153 0 11.988 6.044 12.046 6.105l.022.023.023.021c.059.054 5.877 5.513 6.047 11.617.071 2.56-.884 4.904-2.858 6.989a1.007 1.007 0 01-.281.032c-1.057 0-4.395-.881-12.555-9.042-9.624-9.623-9.103-12.536-9.01-12.84C15.203 2.977 17.412 2 19.859 2m0-1c-2.461 0-4.999.873-7.338 3.264 0 0-2.675 2.439 9.073 14.188 8.071 8.072 11.75 9.335 13.262 9.335.689 0 .928-.262.928-.262 8.759-9.072-3.156-20.109-3.156-20.109S26.529 1 19.859 1z" fill="#7a4f34"></path></g></svg>