<svg viewBox="0 0 40 40" xmlns="http://www.w3.org/2000/svg"><path d="M21.303 37.121c-.384 0-.765-.044-1.134-.129-1.712-.398-2.868-1.32-3.433-2.741-.578-1.454-1.879-2.393-3.315-2.393l-.329.007a5.07 5.07 0 01-1.464-.222c-1.75-.531-3.087-2.025-3.408-3.808-.364-2.024.516-4.026 2.241-5.102 1.098-.686 1.473-2.051.89-3.248a4.8 4.8 0 01-.488-2.12c0-3.106 2.038-4.252 3.747-4.667 1.229-.298 2.016-1.451 1.792-2.625a4.877 4.877 0 01.137-2.35c.511-1.688 1.945-3.014 3.653-3.379.36-.077.724-.116 1.081-.116.697 0 1.37.146 2 .432.367.167.752.251 1.146.251.921 0 1.794-.473 2.338-1.265a4.922 4.922 0 014.776-2.095c2.156.301 3.921 2.095 4.197 4.264a4.875 4.875 0 01-.443 2.753c-.56 1.155-.121 2.567 1.046 3.357A4.92 4.92 0 0138.5 16c0 2.195-1.035 3.691-3.076 4.446a2.476 2.476 0 00-1.419 1.338 2.296 2.296 0 00.005 1.833c.416.956.508 2.02.268 3.076-.4 1.762-1.858 3.233-3.628 3.661-.398.096-.8.145-1.195.145-.208 0-.414-.014-.614-.04a2.476 2.476 0 00-.319-.021 2.282 2.282 0 00-2.301 2.184 5.05 5.05 0 01-.302 1.436c-.667 1.832-2.522 3.063-4.616 3.063z" fill="#bae0bd"></path><path d="M30.818 2c.214 0 .431.015.647.045 1.937.27 3.522 1.882 3.77 3.832a4.382 4.382 0 01-.397 2.472c-.669 1.381-.159 3.059 1.215 3.989A4.424 4.424 0 0138 16c0 1.992-.899 3.292-2.75 3.977a2.98 2.98 0 00-1.706 1.611 2.796 2.796 0 00.006 2.229c.373.858.455 1.815.239 2.767-.359 1.581-1.669 2.902-3.259 3.286-.358.086-.72.13-1.075.13-.184 0-.369-.012-.55-.035a2.931 2.931 0 00-.383-.025 2.777 2.777 0 00-2.801 2.655 4.557 4.557 0 01-.272 1.293c-.585 1.609-2.29 2.732-4.146 2.732-.345 0-.689-.039-1.02-.116-1.544-.359-2.581-1.18-3.081-2.439-.654-1.645-2.138-2.709-3.781-2.709l-.155.003c-.058.002-.116.004-.174.004a4.55 4.55 0 01-1.318-.201c-1.548-.469-2.778-1.843-3.061-3.418-.328-1.821.463-3.622 2.014-4.589 1.32-.823 1.772-2.459 1.075-3.891a4.31 4.31 0 01-.437-1.901c0-2.233 1.132-3.639 3.365-4.181 1.488-.361 2.439-1.769 2.165-3.205a4.393 4.393 0 01.124-2.111c.458-1.516 1.745-2.707 3.279-3.035.326-.07.654-.105.976-.105.625 0 1.229.13 1.795.387.431.198.886.297 1.352.297 1.086 0 2.114-.554 2.75-1.483A4.423 4.423 0 0130.818 2m0-1a5.408 5.408 0 00-4.473 2.362c-.457.667-1.175 1.048-1.925 1.048-.313 0-.632-.066-.94-.206a5.331 5.331 0 00-2.208-.477 5.67 5.67 0 00-1.185.127c-1.895.405-3.466 1.869-4.027 3.723a5.373 5.373 0 00-.149 2.588c.179.936-.492 1.821-1.418 2.046-1.815.44-4.13 1.689-4.13 5.153 0 .841.194 1.632.538 2.339.459.943.185 2.049-.705 2.604a5.422 5.422 0 00-2.469 5.615c.353 1.965 1.845 3.619 3.755 4.198a5.527 5.527 0 001.823.24c.038-.002.076-.002.114-.002 1.277 0 2.376.881 2.852 2.078.493 1.24 1.553 2.524 3.784 3.043.412.096.831.142 1.246.142 2.196 0 4.322-1.291 5.086-3.39.197-.542.303-1.07.331-1.579a1.781 1.781 0 011.802-1.711c.084 0 .169.005.255.017a5.585 5.585 0 001.992-.117c1.961-.474 3.552-2.069 3.999-4.036a5.418 5.418 0 00-.297-3.386c-.435-1.002.105-2.125 1.129-2.504C37.224 20.313 39 18.971 39 16a5.41 5.41 0 00-2.386-4.489c-.898-.609-1.349-1.749-.876-2.725.436-.899.63-1.935.49-3.034-.304-2.388-2.24-4.364-4.624-4.697A5.699 5.699 0 0030.818 1z" fill="#5e9c76"></path><path d="M1.5 38.5c10.944 0 17.839-8.211 27.277-25.945" fill="none" stroke="#5e9c76" stroke-linecap="round" stroke-linejoin="round" stroke-miterlimit="10"></path></svg>