<svg viewBox="0 0 40 40" xmlns="http://www.w3.org/2000/svg"><path d="M5.5 38.5V37c0-1.379 1.121-2.5 2.5-2.5h24c1.379 0 2.5 1.121 2.5 2.5v1.5h-29z" fill="#f5ce85"></path><path d="M32 35c1.103 0 2 .897 2 2v1H6v-1c0-1.103.897-2 2-2h24m0-1H8a3 3 0 00-3 3v2h30v-2a3 3 0 00-3-3z" fill="#967a44"></path><path fill="#deb974" d="M9.5 30.5h21v4h-21z"></path><path d="M30 31v3H10v-3h20m1-1H9v5h22v-5z" fill="#967a44"></path><g><path fill="#f5ce85" d="M12.552 30.5l2.586-26.452L20 1.562l4.862 2.486L27.448 30.5z"></path><path d="M20 2.123l4.391 2.246L26.897 30H13.103l2.506-25.631L20 2.123M20 1l-5.333 2.727L12 31h16L25.333 3.727 20 1z" fill="#967a44"></path></g></svg>