<svg viewBox="0 0 40 40" xmlns="http://www.w3.org/2000/svg"><path fill="#589cdb" d="M.707 20L20 .707 39.292 20 20 39.293z"></path><path d="M20 1.414L38.586 20 20 38.586 1.414 20 20 1.414M20 0L0 20l20 20 20-20L20 0z" fill="#4e7ab5"></path><path fill="#4585bf" d="M19.74 39.033l4.118-16.502 15.351-2.615.084.084L20 39.293z"></path><path d="M37.948 20.638L20.489 38.097l3.772-15.127 13.687-2.332m1.431-1.259L24 22l-.539.091-.115.415-4.16 16.68L20 40l.467-.467L40 20l-.621-.621z" fill="#4e7ab5"></path><path fill="none" stroke="#737373" stroke-miterlimit="10" d="M20 1.333l4 21.334M20 38.667l4-16M1.333 20L24 22.667"></path><g><path fill="#97c9ff" d="M.707 20l.223-.222 23.091 2.718.184.032-.041.197-4.148 16.552-.016.016z"></path><path d="M1.798 20.384l21.793 2.565-3.853 15.375-17.94-17.94M.747 19.253L0 20l20 20 .467-.467 4.187-16.707.147-.704L24.08 22 .747 19.253z" fill="#4e7ab5"></path></g><g><path fill="#c2e8ff" d="M.814 20.107L.707 20 20 .707l.07.07 4.068 21.735z"></path><path d="M19.731 1.683l3.792 20.263-21.807-2.248L19.731 1.683M20 0l-.787.787L.747 19.253 0 20l.587.587L24 23l.544.264.11-.717L20.534.534 20 0z" fill="#4e7ab5"></path></g><g><path d="M12.621 16.032c.073-.25.164-.488.273-.714.11-.226.234-.428.374-.611a2.62 2.62 0 01.466-.469c.169-.131.353-.228.547-.291a2.056 2.056 0 01-.353-.927 2.7 2.7 0 01.099-1.135c.093-.318.221-.603.386-.855s.352-.46.561-.625c.21-.165.433-.281.671-.347.238-.068.478-.075.72-.024.245.052.453.156.627.312.173.156.306.348.4.576.093.228.143.485.15.771a3 3 0 01-.127.896 2.955 2.955 0 01-.531 1.039 2.625 2.625 0 01-.808.686c.135.13.242.284.323.464.079.18.133.377.16.59.026.213.027.441.002.682a4.347 4.347 0 01-.148.74 3.998 3.998 0 01-.439 1.007 2.947 2.947 0 01-.62.728c-.231.19-.481.325-.748.405a1.73 1.73 0 01-.825.038 1.505 1.505 0 01-.711-.337 1.642 1.642 0 01-.449-.641 2.415 2.415 0 01-.16-.887 3.635 3.635 0 01.16-1.071zm.935.059a2.935 2.935 0 00-.121.68c-.01.207.009.388.057.541.047.156.122.28.225.377a.749.749 0 00.378.191c.146.029.29.017.434-.034.143-.05.279-.136.408-.257a2.02 2.02 0 00.353-.46 2.9 2.9 0 00.264-.639c.064-.221.102-.433.111-.638a1.76 1.76 0 00-.054-.549.976.976 0 00-.215-.406.65.65 0 00-.373-.21.775.775 0 00-.432.037 1.213 1.213 0 00-.414.267 2.15 2.15 0 00-.357.468 2.89 2.89 0 00-.264.632zm1.334-3.874c-.053.181-.08.353-.083.517-.003.163.015.31.053.439a.81.81 0 00.173.321.518.518 0 00.283.16c.111.023.223.01.339-.037a1.09 1.09 0 00.331-.218 1.7 1.7 0 00.288-.369 2.04 2.04 0 00.207-.483 2.1 2.1 0 00.086-.518 1.457 1.457 0 00-.05-.439.858.858 0 00-.175-.318.553.553 0 00-.288-.163.607.607 0 00-.354.032.966.966 0 00-.33.222 1.711 1.711 0 00-.281.372 2.37 2.37 0 00-.199.482z" fill="#4e7ab5"></path></g></svg>