<svg viewBox="0 0 40 40" xmlns="http://www.w3.org/2000/svg"><path d="M26.432 33.098L20.5 28.19V26.5h7.108c.541 1.838 1.967 2 3.392 2 2.954 0 4.5-2.264 4.5-4.5 0-3.423-1.705-3.935-2.722-3.935-.358 0-.75.063-1.172.184.276-.952 1.087-1.749 2.394-1.749 2.817 0 4.5 2.797 4.5 5.5 0 8.537-6.585 9.492-9.462 9.5l-2.606-.402z" fill="#dcd5f2"></path><path d="M34 19c2.504 0 4 2.542 4 5 0 8.049-6.179 8.983-8.925 9l-2.43-.375L21 27.955V27h6.252c.79 2 2.68 2 3.748 2 3.283 0 5-2.515 5-5 0-4.002-2.253-4.434-3.221-4.434a3.7 3.7 0 00-.234.007C32.872 19.23 33.353 19 34 19m0-1c-1.873 0-3 1.417-3 3 .688-.296 1.279-.434 1.779-.434C34.323 20.566 35 21.889 35 24c0 2.104-1.438 4-4 4-1.493 0-2.634-.168-3-2h-8v2.426l6.22 5.146L29 34c5.437 0 10-2.875 10-10 0-2.875-1.833-6-5-6z" fill="#8b75a1"></path><path d="M10.962 33.5C8.085 33.492 1.5 32.537 1.5 24c0-2.703 1.683-5.5 4.5-5.5 1.307 0 2.118.797 2.394 1.749a4.278 4.278 0 00-1.172-.184c-1.017 0-2.722.512-2.722 3.935 0 2.236 1.546 4.5 4.5 4.5 1.425 0 2.851-.162 3.392-2H19.5v1.69l-5.932 4.907-2.606.403z" fill="#dcd5f2"></path><path d="M6 19c.647 0 1.128.23 1.456.573a3.7 3.7 0 00-.234-.007c-1.104 0-1.984.486-2.544 1.405C4.228 21.709 4 22.728 4 24c0 2.485 1.717 5 5 5 1.068 0 2.958 0 3.748-2H19v.955l-5.645 4.67-2.43.375C8.179 32.983 2 32.049 2 24c0-2.458 1.496-5 4-5m0-1c-3.167 0-5 3.125-5 6 0 7.125 4.563 10 10 10l2.78-.429L20 28.426V26h-8c-.366 1.832-1.507 2-3 2-2.563 0-4-1.896-4-4 0-2.111.677-3.434 2.221-3.434.5 0 1.091.139 1.779.434 0-1.583-1.127-3-3-3z" fill="#8b75a1"></path><path d="M32 38.5c-4.843 0-6.917-2.524-8.583-4.553C22.339 32.634 21.407 31.5 20 31.5s-2.339 1.134-3.417 2.447C14.917 35.976 12.843 38.5 8 38.5c-2.967 0-4.974-1.399-5.905-3.157C3.003 36.021 4.131 36.5 5 36.5c2.631 0 4.756-1.55 5.354-2.146C11.936 32.771 12.5 30.033 12.5 28v-2c0-2.566-.75-4.73-1.475-6.824C10.275 17.012 9.5 14.772 9.5 12 9.5 6.21 14.21 1.5 20 1.5S30.5 6.21 30.5 12c0 2.772-.775 5.012-1.525 7.176C28.25 21.27 27.5 23.434 27.5 26v2c0 2.033.564 4.771 2.146 6.354.598.596 2.723 2.146 5.354 2.146.869 0 1.997-.479 2.905-1.157C36.974 37.101 34.967 38.5 32 38.5z" fill="#dcd5f2"></path><path d="M20 2c5.514 0 10 4.486 10 10 0 2.689-.727 4.789-1.498 7.012C27.764 21.145 27 23.35 27 26v2c0 2.134.602 5.016 2.293 6.707C30.086 35.5 32.299 37 35 37c.271 0 .57-.043.884-.123C34.909 37.562 33.607 38 32 38c-4.607 0-6.597-2.423-8.196-4.37C22.693 32.278 21.643 31 20 31s-2.693 1.278-3.804 2.63C14.597 35.577 12.607 38 8 38c-1.607 0-2.909-.438-3.884-1.123.314.08.613.123.884.123 2.701 0 4.914-1.5 5.707-2.293C12.398 33.016 13 30.134 13 28v-2c0-2.65-.764-4.855-1.502-6.988C10.727 16.789 10 14.689 10 12c0-5.514 4.486-10 10-10m0-1C13.704 1 9 6.228 9 12c0 5.583 3 8.917 3 14v2c0 2.092-.615 4.615-2 6-.594.594-2.574 2-5 2-1.521 0-4-1.753-4-3 0 3.147 2.705 6 7 6 8.194 0 8.92-7 12-7s3.806 7 12 7c4.295 0 7-2.853 7-6 0 1.247-2.479 3-4 3-2.426 0-4.406-1.406-5-2-1.385-1.385-2-3.908-2-6v-2c0-5.083 3-8.417 3-14 0-5.772-4.704-11-11-11z" fill="#8b75a1"></path><ellipse cx="23" cy="18" rx="2" ry="3" fill="#36404d"/><ellipse cx="17" cy="18" rx="2" ry="3" fill="#36404d"/></svg>