<svg viewBox="0 0 40 40" xmlns="http://www.w3.org/2000/svg"><path fill="#ffeea3" d="M6.5 37.5v-35h18.293l8.707 8.707V37.5z"></path><path d="M24.586 3L33 11.414V37H7V3h17.586M25 2H6v36h28V11l-9-9z" fill="#ba9b48"></path><path fill="#fff" d="M24.5 11.5v-9h.293l8.707 8.707v.293z"></path><path d="M25 3.414L32.586 11H25V3.414M25 2h-1v10h10v-1l-9-9z" fill="#ba9b48"></path><path d="M16.138 21.997c0 3.302-1.17 4.641-2.834 4.641-1.989 0-2.769-2.105-2.769-4.511 0-2.392.949-4.459 2.899-4.459 2.106 0 2.704 2.327 2.704 4.329zm-3.835.156c0 1.988.377 3.003 1.066 3.003.728 0 1.001-1.3 1.001-3.081 0-1.534-.234-2.926-1.014-2.926-.676 0-1.053 1.119-1.053 3.004zM22.339 26.3c-.377.156-1.17.312-1.807.312-1.014 0-1.781-.286-2.353-.871-.754-.729-1.157-2.028-1.131-3.536.039-3.186 1.846-4.511 3.731-4.511.663 0 1.144.13 1.417.26l-.286 1.469c-.26-.13-.585-.195-1.001-.195-1.17 0-2.093.793-2.093 3.068 0 2.106.819 2.873 1.625 2.873.156 0 .273-.013.338-.039v-2.119h-.793V21.62h2.353v4.68zM28.995 26.3c-.377.156-1.17.312-1.807.312-1.014 0-1.781-.286-2.353-.871-.754-.729-1.157-2.028-1.131-3.536.039-3.186 1.846-4.511 3.731-4.511.663 0 1.144.13 1.417.26l-.286 1.469c-.26-.13-.585-.195-1.001-.195-1.17 0-2.093.793-2.093 3.068 0 2.106.819 2.873 1.625 2.873.156 0 .273-.013.338-.039v-2.119h-.793V21.62h2.353v4.68z" fill="#9e8236"></path></svg>