<svg viewBox="0 0 40 40" xmlns="http://www.w3.org/2000/svg"><path fill="#4b6477" d="M9.5 24.5h3v13h-3z"></path><path d="M12 25v12h-2V25h2m1-1H9v14h4V24z" fill="#36404d"></path><path fill="#4b6477" d="M27.5 24.5h3v13h-3z"></path><path d="M30 25v12h-2V25h2m1-1h-4v14h4V24z" fill="#36404d"></path><path fill="#8b75a1" d="M18 1h4v1h-4z"></path><path fill="#8b75a1" d="M19 1h2v18h-2z"></path><path fill="#8b75a1" d="M25.146 17L22.271 5h-4.5l-2.938 12-.924-.397L17 4h6l3.091 12.603z"></path><path fill="#dcd5f2" d="M5.5 16.5h29v8h-29z"></path><path d="M34 17v7H6v-7h28m1-1H5v9h30v-9z" fill="#8b75a1"></path><path fill="#66798f" d="M8 19h2v2H8zM12 19h2v2h-2zM30 19h2v2h-2zM26 19h2v2h-2zM16 19h2v2h-2zM22 19h2v2h-2z"></path><path d="M1 39h38v-8.123c-1.308-.263-2.852-.877-4-.877-1.458 0-3.563 1-5 1-1.438 0-3.542-1-5-1s-3.563 1-5 1c-1.438 0-3.542-1-5-1s-3.563 1-5 1c-1.438 0-3.542-1-5-1-1.148 0-2.692.614-4 .877V39z" fill="#8bb7f0"></path><g><path d="M35 30c-1.458 0-3.563 1-5 1-1.438 0-3.542-1-5-1s-3.563 1-5 1c-1.438 0-3.542-1-5-1s-3.563 1-5 1c-1.438 0-3.542-1-5-1-1.148 0-2.692.614-4 .877V31.9c.574-.103 1.17-.271 1.754-.435C3.566 31.237 4.406 31 5 31s1.434.237 2.246.465c.934.263 1.9.535 2.754.535s1.82-.272 2.754-.535C13.566 31.237 14.406 31 15 31s1.434.237 2.246.465c.934.263 1.9.535 2.754.535s1.82-.272 2.754-.535C23.566 31.237 24.406 31 25 31s1.434.237 2.246.465c.934.263 1.9.535 2.754.535s1.82-.272 2.754-.535C33.566 31.237 34.406 31 35 31s1.434.237 2.246.465c.584.165 1.18.332 1.754.435v-1.023c-1.308-.263-2.852-.877-4-.877z" fill="#4e7ab5"></path></g><g><path fill="#b3add8" d="M2.5 23.5h35v2h-35z"></path><path d="M37 24v1H3v-1h34m1-1H2v3h36v-3z" fill="#8b75a1"></path></g></svg>