<svg viewBox="0 0 40 40" xmlns="http://www.w3.org/2000/svg"><path fill="#b3add8" d="M4.5 11.5v-.191L20 3.559l15.5 7.75v.191z"></path><path d="M20 4.118L33.764 11H6.236L20 4.118M20 3L4 11v1h32v-1L20 3z" fill="#8b75a1"></path><path d="M1.5 36.5V14c0-1.379 1.122-2.5 2.5-2.5h32c1.378 0 2.5 1.121 2.5 2.5v22.5h-37z" fill="#dcd5f2"></path><path d="M36 12c1.103 0 2 .897 2 2v22H2V14c0-1.103.897-2 2-2h32m0-1H4a3 3 0 00-3 3v23h38V14a3 3 0 00-3-3z" fill="#8b75a1"></path><g><path d="M20 30.5a4.505 4.505 0 01-4.5-4.5c0-1.941 2.956-6.183 4.5-8.189 1.544 2.007 4.5 6.249 4.5 8.189 0 2.481-2.019 4.5-4.5 4.5z" fill="#ffeea3"></path><path d="M20 18.635c1.792 2.393 4 5.843 4 7.365 0 2.206-1.794 4-4 4s-4-1.794-4-4c0-1.522 2.208-4.972 4-7.365M20 17s-5 6.239-5 9a5 5 0 0010 0c0-2.761-5-9-5-9z" fill="#8b75a1"></path></g></svg>