<svg viewBox="0 0 40 40" xmlns="http://www.w3.org/2000/svg"><path fill="#b0c1d4" d="M19 13h2v25h-2z"></path><path fill="#f78f8f" d="M18.5 8.5h3v3h-3z"></path><path d="M21 9v2h-2V9h2m1-1h-4v4h4V8z" fill="#c74343"></path><path fill="none" stroke="#c74343" stroke-miterlimit="10" d="M10 37l17-12M30 37L13 25M13 25l12-11M27 25L15 14"></path><path d="M8.619 38.5l5.786-27h11.191l5.786 27H8.619zm2.473-2h17.815l-4.929-23H16.02l-4.928 23z" fill="#c74343"></path><path d="M25.192 12l5.571 26H9.237l5.571-26h10.384M10.474 37h19.052l-.259-1.21-4.714-22-.17-.79h-8.765l-.169.79-4.714 22-.261 1.21M26 11H14L8 39h24l-6-28zM11.711 36l4.714-22h7.149l4.714 22H11.711z" fill="#ab3434"></path><g><path d="M19.268 5.548c-.469-.584-1.066-1.048-1.784-1.048a1.004 1.004 0 01-.984-1c0-.54.435-.984.974-.998l.123-.001c.034.008.103.022.181.045.251.076.456.237.583.456.468.634.744 1.618.907 2.546z" fill="#4b6477"></path><path d="M17.522 3.001c.03.003.069.012.12.026a.496.496 0 01.286.226l.028.049.034.045c.132.178.249.403.353.66l-.848-.009A.5.5 0 0117 3.5a.5.5 0 01.495-.498l.027-.001M17.5 2l-.009.001L17.484 2v.002a1.498 1.498 0 000 2.996V5C19 5 20 8 20 8s-.015-3.644-1.208-5.249a1.498 1.498 0 00-.862-.681l-.012-.004A1.485 1.485 0 0017.5 2z" fill="#36404d"></path></g><g><path d="M20.727 4.553c.158-.92.427-1.891.882-2.504.158-.266.362-.427.604-.5.117-.034.205-.049.287-.049h.016c.54.007.984.455.984 1s-.444.993-.989.998c-.718.001-1.316.469-1.784 1.055z" fill="#4b6477"></path><path d="M22.477 2.001h.028c.273.003.495.227.495.499s-.222.496-.495.498l-.848.01c.104-.258.221-.484.353-.662l.034-.045.028-.049a.498.498 0 01.29-.227.883.883 0 01.115-.024M22.516 1l-.006.001L22.5 1c-.146 0-.284.027-.418.066l-.012.004a1.494 1.494 0 00-.862.681C20.015 3.356 20 7 20 7s1-3 2.516-3v-.002a1.498 1.498 0 000-2.996V1z" fill="#36404d"></path></g></svg>