<svg viewBox="0 0 40 40" xmlns="http://www.w3.org/2000/svg"><path d="M7 37.5A2.502 2.502 0 014.5 35c0-1.045.671-1.986 1.668-2.344l.332-.118V22.462l-.332-.118C5.171 21.986 4.5 21.045 4.5 20s.671-1.986 1.668-2.344l.332-.118V7.462l-.332-.118A2.506 2.506 0 014.5 5c0-1.379 1.121-2.5 2.5-2.5h26c1.379 0 2.5 1.121 2.5 2.5a2.506 2.506 0 01-1.668 2.344l-.332.118v10.076l.332.118c.997.358 1.668 1.299 1.668 2.344s-.671 1.986-1.668 2.344l-.332.118v10.076l.332.118A2.506 2.506 0 0135.5 35c0 1.379-1.121 2.5-2.5 2.5H7z" fill="#dcd5f2"></path><path d="M33 3c1.103 0 2 .897 2 2 0 .834-.537 1.587-1.337 1.873L33 7.111v10.778l.663.237c.8.287 1.337 1.04 1.337 1.874s-.537 1.587-1.337 1.873l-.663.238v10.778l.663.237c.8.287 1.337 1.04 1.337 1.874 0 1.103-.897 2-2 2H7c-1.103 0-2-.897-2-2 0-.834.537-1.587 1.337-1.873L7 32.889V22.111l-.663-.237C5.537 21.587 5 20.834 5 20s.537-1.587 1.337-1.873L7 17.889V7.111l-.663-.238A2.002 2.002 0 015 5c0-1.103.897-2 2-2h26m0-1H7C5.35 2 4 3.35 4 5c0 1.298.84 2.399 2 2.815v9.37c-1.16.416-2 1.517-2 2.815s.84 2.399 2 2.815v9.37c-1.16.416-2 1.517-2 2.815 0 1.65 1.35 3 3 3h26c1.65 0 3-1.35 3-3 0-1.298-.84-2.399-2-2.815v-9.37c1.16-.416 2-1.517 2-2.815s-.84-2.399-2-2.815v-9.37c1.16-.416 2-1.517 2-2.815 0-1.65-1.35-3-3-3z" fill="#8b75a1"></path><path fill="#8b75a1" d="M6 3h1v34H6zM33 3h1v34h-1z"></path><path d="M33 22H7c-1.1 0-2-.9-2-2s.9-2 2-2h26c1.1 0 2 .9 2 2s-.9 2-2 2zM33 37H7c-1.1 0-2-.9-2-2s.9-2 2-2h26c1.1 0 2 .9 2 2s-.9 2-2 2zM33 7H7c-1.1 0-2-.9-2-2s.9-2 2-2h26c1.1 0 2 .9 2 2s-.9 2-2 2z" fill="#b3add8"></path><g><path d="M20 26.5a4.505 4.505 0 01-4.5-4.5c0-1.941 2.956-6.183 4.5-8.189 1.544 2.007 4.5 6.249 4.5 8.189 0 2.481-2.019 4.5-4.5 4.5z" fill="#ffeea3"></path><path d="M20 14.635c1.792 2.393 4 5.843 4 7.365 0 2.206-1.794 4-4 4s-4-1.794-4-4c0-1.522 2.208-4.972 4-7.365M20 13s-5 6.239-5 9a5 5 0 0010 0c0-2.761-5-9-5-9z" fill="#8b75a1"></path></g></svg>