<svg viewBox="0 0 40 40" xmlns="http://www.w3.org/2000/svg"><path fill="none" stroke="#66798f" stroke-linecap="round" stroke-miterlimit="10" d="M20 26l8-8M30 35L20 25M29 26l-8-8M19 35l10-10"></path><path fill="#66798f" d="M4 24h1v15H4z"></path><path fill="none" stroke="#66798f" stroke-width="2" stroke-miterlimit="10" d="M22 13l-3 22M27 14l3 21"></path><path fill="#b0c1d4" d="M3.086 10.364l1.612-4.102 33.753 11.343-1.291 4.245z"></path><path d="M4.99 6.888l32.841 11.036-1 3.287L3.744 10.058l1.246-3.17m-.582-1.251L2.429 10.67l35.06 11.818 1.583-5.202L4.408 5.637z" fill="#66798f"></path><path d="M4.29 23.5C3.716 22.451 1.5 17.949 1.5 11c0-8.746 6.809-9.499 9-9.513v6.422L4.653 23.5H4.29z" fill="#ffeea3"></path><path d="M10 2.003v5.815l-5.572 14.86C3.635 21.047 2 16.958 2 11c0-7.698 5.551-8.86 8-8.997m.559-1.016C8.627.988 1 1.584 1 11c0 8.201 3 13 3 13h1l6-16V1s-.16-.013-.441-.013z" fill="#ba9b48"></path><path fill="none" stroke="#66798f" stroke-linecap="round" stroke-miterlimit="10" d="M35.671 19.329l-3.385 16.957"></path><g><path d="M14.5 38.5V37c0-1.379 1.121-2.5 2.5-2.5h15c1.379 0 2.5 1.121 2.5 2.5v1.5h-20z" fill="#b0c1d4"></path><path d="M32 35c1.103 0 2 .897 2 2v1H15v-1c0-1.103.897-2 2-2h15m0-1H17a3 3 0 00-3 3v2h21v-2a3 3 0 00-3-3z" fill="#66798f"></path></g></svg>