<svg viewBox="0 0 40 40" xmlns="http://www.w3.org/2000/svg"><circle cx="20" cy="10" r="8.5" fill="#b0c1d4"></circle><path d="M20 2c4.411 0 8 3.589 8 8s-3.589 8-8 8-8-3.589-8-8 3.589-8 8-8m0-1c-4.971 0-9 4.029-9 9s4.029 9 9 9 9-4.029 9-9-4.029-9-9-9z" fill="#66798f"></path><path d="M32.214 26.286c-1.969 0-3.571-1.602-3.571-3.571s1.602-3.571 3.571-3.571c2.57 0 3.571.621 3.571 2.214.001 1.945-1.599 4.928-3.571 4.928z" fill="#e8d47b"></path><path d="M32.214 19.643c2.837 0 3.071.811 3.071 1.714 0 1.852-1.548 4.429-3.071 4.429a3.074 3.074 0 01-3.071-3.071 3.075 3.075 0 013.071-3.072m0-1a4.07 4.07 0 100 8.142c2.248 0 4.071-3.18 4.071-5.429s-1.822-2.713-4.071-2.713z" fill="#ba9b48"></path><path d="M7.786 26.286c-1.971 0-3.571-2.982-3.571-4.929 0-1.593 1.001-2.214 3.571-2.214 1.969 0 3.571 1.602 3.571 3.571s-1.602 3.572-3.571 3.572z" fill="#e8d47b"></path><path d="M7.786 19.643a3.074 3.074 0 013.071 3.071 3.074 3.074 0 01-3.071 3.071c-1.524 0-3.071-2.577-3.071-4.429-.001-.902.234-1.713 3.071-1.713m0-1c-2.249 0-4.071.466-4.071 2.714s1.823 5.429 4.071 5.429a4.071 4.071 0 000-8.143z" fill="#ba9b48"></path><path d="M20 38.5a3.488 3.488 0 01-2.932-1.6l-.103-.159-.183-.051c-5.431-1.51-9.036-6.493-8.768-12.118l.34-9.146a7.15 7.15 0 017.151-6.813h8.99a7.15 7.15 0 017.151 6.819l.34 9.135a11.93 11.93 0 01-8.768 12.124l-.183.051-.103.158A3.488 3.488 0 0120 38.5z" fill="#ffeea3"></path><path d="M24.495 9.114a6.649 6.649 0 016.651 6.332l.34 9.15c.257 5.391-3.199 10.166-8.403 11.613l-.365.101-.206.317a2.986 2.986 0 01-5.025.001l-.206-.317-.365-.101a11.435 11.435 0 01-8.403-11.624l.34-9.13a6.65 6.65 0 016.652-6.342h8.99m0-1h-8.99a7.66 7.66 0 00-7.651 7.295l-.34 9.14c-.284 5.966 3.659 11.102 9.134 12.624a3.988 3.988 0 006.703 0c5.475-1.522 9.418-6.658 9.134-12.624l-.34-9.14a7.659 7.659 0 00-7.65-7.295z" fill="#ba9b48"></path><path d="M12.711 34.609C6.709 33.218 1.5 25.681 1.5 19.711c0-9.768 9.292-14.14 18.5-14.14s18.5 4.372 18.5 14.14c0 5.973-5.222 13.519-11.222 14.862 1.624-1.365 3.982-3.983 4.682-8.071.48-.492 2.112-2.355 2.112-4.992 0-1.269-.721-2.027-1.929-2.027-.119 0-.232.007-.338.019-.206-5.534-3.263-6.218-6.223-6.879-1.86-.416-3.784-.846-5.208-2.455L20 9.746l-.375.423c-1.424 1.609-3.347 2.039-5.208 2.455-2.96.662-6.017 1.345-6.223 6.879a3.245 3.245 0 00-.338-.019c-1.208 0-1.929.758-1.929 2.027 0 2.643 1.644 4.509 2.123 4.996.785 4.203 3.054 6.764 4.661 8.102z" fill="#b0c1d4"></path><path d="M20 6.071c4.953 0 9.463 1.255 12.699 3.533C36.167 12.047 38 15.541 38 19.711c0 3.161-1.479 6.814-3.956 9.771-1.468 1.752-3.129 3.075-4.83 3.884 1.333-1.529 2.68-3.714 3.212-6.629.622-.673 2.146-2.589 2.146-5.226 0-1.511-.875-2.467-2.294-2.524-.388-5.467-3.67-6.2-6.587-6.852-1.864-.417-3.625-.81-4.942-2.298L20 8.991l-.749.846c-1.317 1.488-3.078 1.881-4.942 2.298-2.917.652-6.199 1.385-6.587 6.852-1.418.057-2.293 1.013-2.293 2.524 0 2.646 1.538 4.566 2.159 5.233.579 2.952 1.872 5.114 3.162 6.622-1.673-.817-3.308-2.13-4.76-3.859C3.491 26.532 2 22.87 2 19.711c0-4.17 1.833-7.665 5.301-10.107C10.537 7.326 15.047 6.071 20 6.071m0-1c-10.065 0-19 5.028-19 14.64 0 7.005 6.715 15.623 13.642 15.623 0 0-4.972-2.502-6.128-9.074 0 0-2.086-1.909-2.086-4.75 0-1.267.785-1.527 1.429-1.527.447 0 .827.125.827.125 0-9.249 7.333-5.11 11.316-9.61 3.983 4.5 11.316.361 11.316 9.61 0 0 .379-.125.827-.125.644 0 1.429.26 1.429 1.527 0 2.841-2.079 4.75-2.079 4.75-.99 6.236-6.067 9.022-6.067 9.022C32.353 35.283 39 26.716 39 19.711c0-9.611-8.935-14.64-19-14.64z" fill="#66798f"></path><path d="M17.5 23.5s1.013-1 2.5-1 2.5 1 2.5 1" fill="none" stroke="#8b75a1" stroke-miterlimit="10"></path><path fill="#8b75a1" d="M24 24h6v1h-6zM10 24h6v1h-6z"></path><g><path d="M23 28.5c-.827 0-1.5-.673-1.5-1.5v-4a.5.5 0 01.5-.5h6a.5.5 0 01.5.5v4c0 .827-.673 1.5-1.5 1.5h-4z" fill="#c2e8ff"></path><path d="M28 23v4c0 .551-.449 1-1 1h-4c-.551 0-1-.449-1-1v-4h6m0-1h-6a1 1 0 00-1 1v4a2 2 0 002 2h4a2 2 0 002-2v-4a1 1 0 00-1-1z" fill="#8b75a1"></path></g><g><path d="M13 28.5c-.827 0-1.5-.673-1.5-1.5v-4a.5.5 0 01.5-.5h6a.5.5 0 01.5.5v4c0 .827-.673 1.5-1.5 1.5h-4z" fill="#c2e8ff"></path><path d="M18 23v4c0 .551-.449 1-1 1h-4c-.551 0-1-.449-1-1v-4h6m0-1h-6a1 1 0 00-1 1v4a2 2 0 002 2h4a2 2 0 002-2v-4a1 1 0 00-1-1z" fill="#8b75a1"></path></g><g><path fill="#b0c1d4" d="M11 20h7v1h-7z"></path></g><g><path fill="#b0c1d4" d="M22 20h7v1h-7z"></path></g></svg>