<svg viewBox="0 0 40 40" xmlns="http://www.w3.org/2000/svg"><path d="M22.735 30.028l6.283-5.386 6.406 4.881c-1.647 5.433-6.17 5.932-7.221 5.974l-5.468-5.469z" fill="#e8d47b"></path><path d="M29.037 25.285l5.804 4.422c-1.528 4.502-5.194 5.178-6.443 5.277l-4.928-4.928 5.567-4.771M29 24l-7 6 6 6h.038c.518 0 6.186-.15 7.962-6.667L29 24z" fill="#ba9b48"></path><path d="M9 33.5C4.313 33.5.5 29.687.5 25s3.813-8.5 8.5-8.5 8.5 3.813 8.5 8.5-3.813 8.5-8.5 8.5z" fill="#839cb2"></path><path d="M9 17c4.411 0 8 3.589 8 8s-3.589 8-8 8-8-3.589-8-8 3.589-8 8-8m0-1c-4.971 0-9 4.029-9 9s4.029 9 9 9 9-4.029 9-9-4.029-9-9-9z" fill="#66798f"></path><circle cx="12" cy="34" r="1.5" fill="#ffeea3"></circle><path d="M12 33c.551 0 1 .449 1 1s-.449 1-1 1-1-.449-1-1 .449-1 1-1m0-1a2 2 0 10-.001 3.999A2 2 0 0012 32z" fill="#f5c276"></path><path d="M17 33.5C9.005 33.5 2.5 26.995 2.5 19S9.005 4.5 17 4.5 31.5 11.005 31.5 19 24.995 33.5 17 33.5z" fill="#ffeea3"></path><path d="M17 5c7.72 0 14 6.28 14 14s-6.28 14-14 14S3 26.72 3 19 9.28 5 17 5m0-1C8.716 4 2 10.716 2 19s6.716 15 15 15c8.284 0 15-6.716 15-15S25.284 4 17 4z" fill="#ba9b48"></path><path d="M32.964 22.499c-.549-.666-1.397-.999-1.964-.999-4.514 0-7.546-3.056-7.546-7.604 0-.285.015-.567.043-.846l.045-.438-.43-.1c-3.831-.883-6.612-4.183-6.612-7.845l.003-.167H18c9.851 0 15.5 4.556 15.5 12.5 0 1.513-.22 3.965-.536 5.499z" fill="#839cb2"></path><path d="M18 5c9.673 0 15 4.262 15 12 0 1.289-.155 3.129-.371 4.536C32.064 21.171 31.44 21 31 21c-4.215 0-7.046-2.855-7.046-7.104 0-.262.014-.529.041-.794l.09-.878-.86-.198c-3.49-.806-6.054-3.729-6.217-7.026H18m0-1h-1.973c-.011.175-.027.489-.027.667 0 4.114 3.156 7.446 7 8.333a8.84 8.84 0 00-.046.896C22.954 18.682 26.214 22 31 22c.571 0 2 .579 2 2 .625-1 1-5.129 1-7 0-8.468-6.088-13-16-13z" fill="#66798f"></path><path d="M33.773 18.463c.577-1.429 1.727-4.67 1.727-7.814 0-1.245.827-2.148 1.967-2.148 1.159 0 2.033.924 2.033 2.148 0 .769-.168 7.263-5.727 7.814z" fill="#839cb2"></path><path d="M37.466 9C38.355 9 39 9.693 39 10.649c0 .679-.137 6.116-4.446 7.174C35.17 16.137 36 13.362 36 10.649 36 9.855 36.459 9 37.466 9m0-1C35.994 8 35 9.176 35 10.649 35 14.694 33 19 33 19c6.462 0 7-6.879 7-8.351S38.939 8 37.466 8z" fill="#66798f"></path><g><path d="M9.035 25.5c-.29 0-.527-.059-.705-.172-.465-.311-.759-.845-.818-1.497-.077-.839.24-1.739.81-2.294.678-.659 1.719-1.037 2.857-1.037.428 0 .842.057 1.197.164.436.124.972.396 1.097.999.167.806-.434 1.907-1.531 2.805-.007 0-1.654 1.032-2.907 1.032z" fill="#fff9de"></path><path d="M11.178 21c.38 0 .744.049 1.069.148.646.183.714.51.736.618.105.505-.262 1.402-1.312 2.278-.452.278-1.74.956-2.637.956-.132 0-.315-.016-.418-.082-.443-.296-.575-.779-.607-1.133-.063-.684.203-1.443.662-1.89.576-.56 1.513-.895 2.507-.895m0-1c-1.115 0-2.351.348-3.205 1.18-1.224 1.192-1.399 3.577.087 4.57.28.178.616.25.974.25 1.433 0 3.224-1.145 3.224-1.145 2.186-1.788 2.361-4.073.262-4.669A4.695 4.695 0 0011.178 20z" fill="#ba9b48"></path></g><path d="M18.353 16.251s2.18 2.228 2.18 6.416-3.325 6.667-3.325 6.667M21 15.487c-.659 0-3.451-.22-4.722 3.31" fill="none" stroke="#ba9b48" stroke-miterlimit="10"></path><g><path d="M14.263 12.042c.856.969.985 2.184.288 2.713-.697.529-1.957.172-2.814-.797s-.985-2.184-.288-2.713c.698-.529 1.957-.172 2.814.797z" fill="#36404d"></path></g><g><path d="M8.263 16.042c.856.969.985 2.184.288 2.713-.697.529-1.957.172-2.814-.797-.856-.969-.985-2.184-.288-2.713.698-.529 1.957-.172 2.814.797z" fill="#36404d"></path></g><g><circle cx="31" cy="24" r="1.5" fill="#ffeea3"></circle><path d="M31 23c.551 0 1 .449 1 1s-.449 1-1 1-1-.449-1-1 .449-1 1-1m0-1a2 2 0 10-.001 3.999A2 2 0 0031 22z" fill="#f5c276"></path></g></svg>