<svg viewBox="0 0 40 40" xmlns="http://www.w3.org/2000/svg"><path d="M6 11a6 6 0 100 12c.343 0 .677-.035 1.005-.091.005-.356.041-.705.106-1.043A4.968 4.968 0 016 22c-2.757 0-5-2.243-5-5s2.243-5 5-5 5 2.243 5 5c0 .124-.028.24-.037.362a4.963 4.963 0 01-.242 1.213 4.99 4.99 0 01-2.443 2.849c-.13.387-.211.791-.242 1.213a6.001 6.001 0 003.853-4.504c.065-.339.1-.687.106-1.043.001-.03.005-.059.005-.09a6 6 0 00-6-6z" fill="#8bb7f0"></path><g fill="#f5c276"><path d="M18.995 22.909a5.93 5.93 0 01-1.032-.271c.009.122.037.238.037.362 0 2.757-2.243 5-5 5s-5-2.243-5-5c0-.124.028-.24.037-.362.031-.422.113-.827.242-1.213a4.99 4.99 0 012.443-2.849c.13-.387.211-.791.242-1.213a6.001 6.001 0 00-3.853 4.504c-.065.339-.1.687-.106 1.043-.001.03-.005.059-.005.09a6 6 0 1012 0c0-.031-.004-.06-.005-.091z"></path><path d="M14.11 18.134c.414.095.8.251 1.168.441a4.996 4.996 0 012.443 2.849c.368.19.754.347 1.168.441a6.001 6.001 0 00-4.885-4.775c-.327-.055-.661-.09-1.004-.09s-.677.035-1.005.091a5.967 5.967 0 01-.106 1.043c.359-.082.728-.134 1.111-.134s.752.052 1.11.134z"></path></g><g fill="#66798f"><path d="M20 11a6 6 0 00-6 6c0 .031.004.06.005.091.356.06.7.151 1.032.271C15.028 17.24 15 17.124 15 17c0-2.757 2.243-5 5-5s5 2.243 5 5c0 .124-.028.24-.037.362a4.963 4.963 0 01-.242 1.213 4.99 4.99 0 01-2.443 2.849c-.13.387-.211.791-.242 1.213a6.001 6.001 0 003.853-4.504c.065-.339.1-.687.106-1.043.001-.03.005-.059.005-.09a6 6 0 00-6-6z"></path><path d="M18.89 21.866a4.962 4.962 0 01-1.168-.441 4.996 4.996 0 01-2.443-2.849 4.919 4.919 0 00-1.168-.441 6.001 6.001 0 004.885 4.775c.327.055.661.09 1.004.09s.677-.035 1.005-.091c.005-.356.041-.705.106-1.043-.359.082-.728.134-1.111.134s-.752-.052-1.11-.134z"></path></g><g fill="#99c99e"><path d="M28.11 18.134c.414.095.8.251 1.168.441a4.996 4.996 0 012.443 2.849c.368.19.754.347 1.168.441a6.001 6.001 0 00-4.885-4.775c-.327-.055-.661-.09-1.004-.09s-.677.035-1.005.091a5.967 5.967 0 01-.106 1.043c.359-.082.728-.134 1.111-.134s.752.052 1.11.134z"></path><path d="M32.995 22.909a5.93 5.93 0 01-1.032-.271c.009.122.037.238.037.362 0 2.757-2.243 5-5 5s-5-2.243-5-5c0-.124.028-.24.037-.362.031-.422.113-.827.242-1.213a4.99 4.99 0 012.443-2.849c.13-.387.211-.791.242-1.213a6.001 6.001 0 00-3.853 4.504c-.065.339-.1.687-.106 1.043-.001.03-.005.059-.005.09a6 6 0 1012 0c0-.031-.004-.06-.005-.091z"></path></g><path d="M34 11a6 6 0 00-6 6c0 .031.004.06.005.091.356.06.7.151 1.032.271C29.028 17.24 29 17.124 29 17c0-2.757 2.243-5 5-5s5 2.243 5 5-2.243 5-5 5a4.962 4.962 0 01-2.278-.575 4.996 4.996 0 01-2.443-2.849 4.919 4.919 0 00-1.168-.441 6.001 6.001 0 004.885 4.775c.327.055.661.09 1.004.09a6 6 0 100-12z" fill="#f75252"></path></svg>