<svg viewBox="0 0 40 40" xmlns="http://www.w3.org/2000/svg"><path fill="#f78f8f" d="M17.316 19.5L8.79 1.5h5.895l8.593 18z"></path><path d="M14.369 2l8.117 17h-4.853L9.58 2h4.789M15 1H8l9 19h7.071L15 1z" fill="#c74343"></path><path fill="#f78f8f" d="M16.722 19.5l8.593-18h5.895l-8.526 18z"></path><path d="M30.42 2l-8.053 17h-4.853l8.117-17h4.789M32 1h-7l-9.071 19H23l9-19z" fill="#c74343"></path><path d="M20 38.5c-5.79 0-10.5-4.71-10.5-10.5S14.21 17.5 20 17.5 30.5 22.21 30.5 28 25.79 38.5 20 38.5z" fill="#ffc49c"></path><path d="M20 18c5.514 0 10 4.486 10 10s-4.486 10-10 10-10-4.486-10-10 4.486-10 10-10m0-1c-6.075 0-11 4.925-11 11s4.925 11 11 11 11-4.925 11-11-4.925-11-11-11z" fill="#b08159"></path><path fill="#b08159" d="M15 23h2v11h-2zM23 23h2v11h-2zM19 23h2v11h-2z"></path><path fill="#b08159" d="M13 23h14v1H13zM13 33h14v1H13z"></path></svg>