<svg viewBox="0 0 40 40" xmlns="http://www.w3.org/2000/svg"><path d="M18.07 14.5c-.372-.117-2.57-.96-2.57-4.5 0-3.965 3.362-6.876 4.945-8.026.042 1.606.59 3.597 1.159 4.332l.439.568.38-.609c.053-.085.111-.183.173-.289.16-.273.352-.604.599-.909.12.826.374 1.341.622 1.842.351.709.683 1.379.683 3.091 0 2.777-2.003 4.142-2.629 4.5H18.07z" fill="#f78f8f"></path><path d="M20.023 2.93c.175 1.438.633 2.967 1.186 3.682l.878 1.136.761-1.217c.045-.072.093-.153.144-.24.118.316.251.584.377.84.339.683.631 1.274.631 2.869 0 2.365-1.609 3.596-2.266 4h-3.579c-.437-.163-2.155-.995-2.155-4 0-3.224 2.393-5.734 4.023-7.07M21 1s-6 3.482-6 9c0 4.259 3 5 3 5h4c.624-.331 3-1.816 3-5 0-3.499-1.375-3.083-1.375-6-.861.547-1.312 1.5-1.625 2-.625-.809-1.25-3.519-1-5z" fill="#c74343"></path><path fill="#ffc49c" d="M19.5 37.5v-18h-2.109l-.891-3.562V15.5h7v.438l-.891 3.562H20.5v18z"></path><path d="M22.969 16l-.75 3H20v18-18H17.781l-.75-3h5.938M24 15h-8v1l1 4h2v18h2V20h2l1-4v-1z" fill="#b08159"></path><path fill="#704e34" d="M19 37h2v2h-2zM15 14h10v2H15z"></path><path d="M22 12a2 2 0 11-4 0c0-1.105.704-2.87 2-4-.486 1.983 2 2.537 2 4z" fill="#ffeea3"></path><g><path fill="#ffc49c" d="M19.309 22.5l-.809-1.618V19.5h3v1.382l-.809 1.618z"></path><path d="M21 20v.764L20.382 22h-.764L19 20.764V20h2m1-1h-4v2l1 2h2l1-2v-2z" fill="#b08159"></path></g></svg>