<svg viewBox="0 0 40 40" xmlns="http://www.w3.org/2000/svg"><path d="M28 34.5c-2.728 0-5.424-1.7-7.591-4.787L20 29.13l-.409.583C17.424 32.8 14.728 34.5 12 34.5h-1c-5.238 0-9.5-5.928-9.5-13.214 0-.326.009-.649.027-.969l.029-.354C2.115 11.853 7.832 5.5 14.571 5.5H16.5h-.571C10.373 5.5 5.5 12.275 5.5 20c0 6.775 2.977 12.5 6.5 12.5 2.926 0 5.512-2.049 7.093-5.621l.093-.21-.099-.207C18.307 24.823 17.5 21.959 17.5 20c0-3.241 1.317-5.5 2.5-5.5s2.5 2.259 2.5 5.5c0 1.959-.807 4.823-1.587 6.462l-.099.207.093.21C22.488 30.451 25.074 32.5 28 32.5c3.523 0 6.5-5.725 6.5-12.5 0-7.725-4.873-14.5-10.429-14.5h1.357c6.739 0 12.456 6.353 13.015 14.463l.035.466c.014.283.021.569.021.857 0 7.286-4.262 13.214-9.5 13.214H28z" fill="#8bb7f0"></path><path d="M28.748 6.551c4.946 1.675 8.752 6.984 9.197 13.446l.033.446c.015.285.022.567.022.843C38 28.296 33.963 34 29 34h-1c-3.455 0-5.982-2.866-7.181-4.574L20 28.259l-.819 1.166C17.982 31.134 15.455 34 12 34h-1c-4.963 0-9-5.704-9-12.714 0-.237.005-.477.016-.721l.039-.568C2.5 13.535 6.306 8.226 11.252 6.551 7.623 9.051 5 14.273 5 20c0 7.047 3.206 13 7 13 3.133 0 5.885-2.157 7.551-5.918l.186-.42-.198-.415C18.783 24.659 18 21.888 18 20c0-3.052 1.185-5 2-5s2 1.948 2 5c0 1.888-.783 4.659-1.539 6.247l-.198.415.186.42C22.115 30.843 24.867 33 28 33c3.794 0 7-5.953 7-13 0-5.727-2.623-10.949-6.252-13.449M25.429 5H23v1h1.071C29.318 6 34 12.505 34 20c0 6.746-3.002 12-6 12-2.832 0-5.178-2.031-6.636-5.323C22.171 24.984 23 22.048 23 20c0-3.314-1.343-6-3-6s-3 2.686-3 6c0 2.048.829 4.984 1.636 6.677C17.178 29.969 14.832 32 12 32c-2.998 0-6-5.254-6-12 0-7.495 4.682-14 9.929-14H17V5h-2.428C7.458 5 1.633 11.571 1.057 19.929h-.006c-.033.446-.051.899-.051 1.357C1 28.781 5.378 35 11 35h1c3.253 0 6.011-2.166 8-5 1.989 2.834 4.747 5 8 5h1c5.622 0 10-6.219 10-13.714 0-.458-.018-.911-.051-1.357h-.006C38.367 11.571 32.542 5 25.429 5z" fill="#4e7ab5"></path></svg>