<svg viewBox="0 0 40 40" xmlns="http://www.w3.org/2000/svg"><path d="M25.809 2c-4.408 0-10.504 3.249-15.532 8.277-3.594 3.595-6.268 7.657-7.529 11.44-1.183 3.549-.97 6.368.599 7.937C4.24 30.547 5.534 31 7.191 31c.72 0 1.488-.095 2.285-.262-1.193-3.342-.535-6.261 6.907-14.467 4.872-5.372 11.538-8.551 14.357-6.82.559-2.68.2-4.817-1.087-6.104C28.76 2.453 27.466 2 25.809 2z" fill="#c29653"></path><path d="M25 8c1.712-.028 4.203.32 5.793 1.188.058-.307.102-.605.135-.896l.009-.089a8.453 8.453 0 00-.045-2.27c-.01-.058-.015-.121-.026-.178-.03-.153-.073-.296-.114-.441a4.6 4.6 0 00-.481-1.146c-.047-.08-.091-.162-.142-.237a4.114 4.114 0 00-.474-.584 4.052 4.052 0 00-1.512-.949c-.025-.01-.046-.024-.072-.034-.618-.222-1.326-.339-2.117-.353-1.326.024-2.84.305-4.443.815-3.634 1.265-7.697 3.915-11.234 7.451-2.619 2.619-4.741 5.486-6.192 8.313a40.354 40.354 0 00-.947 2.09c-.039.098-.074.196-.111.294C8.883 15.222 18.104 8.112 25 8z" fill="#a5743a"></path><path d="M14.609 38.487c-4.486-.001-7.505-2.35-8.905-3.75-2.273-2.272-3.301-4.671-3.766-6.359a4.765 4.765 0 001.056 1.629c.99.991 2.402 1.493 4.197 1.493 4.534 0 10.769-3.307 15.886-8.424 3.649-3.648 6.366-7.781 7.65-11.635 1.246-3.738.99-6.738-.72-8.448-.823-.823-1.937-1.309-3.319-1.45l.985.05c1.496.25 4.166 1.081 7.003 3.796 2.391 2.392 9.166 11.271-4.368 24.806-5.503 5.502-10.784 8.292-15.699 8.292zM1.776 23.358c.861-4.125 3.792-9.08 8.147-13.436C15.04 4.807 21.275 1.5 25.809 1.5c-4.534 0-10.769 3.307-15.886 8.424-3.649 3.648-6.366 7.78-7.65 11.635a16.94 16.94 0 00-.497 1.799z" fill="#ffeea3"></path><path d="M30.853 3.212c1.062.554 2.244 1.358 3.462 2.523 2.316 2.316 8.846 10.901-4.36 24.107-5.405 5.405-10.568 8.146-15.345 8.146-4.306 0-7.206-2.257-8.552-3.603a14.478 14.478 0 01-2.473-3.28c.972.594 2.18.895 3.606.895 4.659 0 11.034-3.364 16.24-8.57 3.702-3.703 6.462-7.904 7.771-11.831 1.182-3.547 1.052-6.488-.349-8.387M26.55.987c-.096 0-.147.003-.147.003s.066.015.177.047c-.156-.008-.3-.034-.46-.034-.057 0-.117.006-.174.007h.002c-.047 0-.09-.01-.139-.01C21.262 1 15.001 4.139 9.57 9.57 3.073 16.067-.126 23.743 1.389 28.26c.442 1.736 1.484 4.354 3.961 6.831 1.651 1.651 4.797 3.896 9.259 3.896 4.223 0 9.624-2.01 16.053-8.439 13.221-13.221 7.551-22.329 4.36-25.521-4.001-3.828-7.701-4.04-8.472-4.04zM7.191 31c-1.657 0-2.951-.453-3.844-1.347-1.569-1.569-1.782-4.388-.599-7.937 1.261-3.782 3.935-7.845 7.529-11.44C15.305 5.249 21.402 2 25.809 2c1.657 0 2.951.453 3.844 1.347 1.569 1.569 1.782 4.388.599 7.937-1.261 3.782-3.935 7.845-7.53 11.44C17.695 27.751 11.598 31 7.191 31z" fill="#f5c276"></path><path d="M5.756 24.302c-.548.15-.818.904-.492 1.369.327.464 1.129.463 1.454-.002.196-.279.215-.646.186-.985-.071-.833-.385-1.63-.462-2.463-.077-.833.164-1.788.896-2.193-.479.296-.806.887-.665 1.433.142.546.847.906 1.32.6.318-.205.442-.619.428-.998-.014-.378-.14-.743-.21-1.115-.298-1.568.48-3.282 1.855-4.091-.545.304-1.019.855-.979 1.478.04.623.822 1.141 1.324.771.241-.178.343-.486.409-.777.203-.898.193-1.844.503-2.71.31-.866 1.087-1.677 2.004-1.601-.486-.128-1.044.207-1.16.697-.115.489.234 1.039.727 1.141.191.039.406.013.552-.115.114-.1.173-.248.223-.392.291-.833.415-1.719.733-2.542.317-.823.885-1.617 1.723-1.894.138-.045.326-.056.391.074a.93.93 0 00-1.032.654.931.931 0 00.576 1.078c.1.035.212.051.312.016a.56.56 0 00.253-.217c.341-.463.468-1.044.593-1.606.126-.562.269-1.143.635-1.587.366-.444 1.019-.707 1.533-.448-.483-.187-1.093.102-1.255.594-.162.491.156 1.087.654 1.224.499.138 1.077-.208 1.192-.713" fill="none" stroke="#f5c276" stroke-linecap="round" stroke-linejoin="round" stroke-miterlimit="10"></path><path d="M8.901 14.725c-.788 1.083-.989 2.499-.877 3.835s.509 2.626.814 3.931c.115.495.218 1.004.162 1.509-.056.505-.297 1.014-.732 1.278" fill="none" stroke="#f5c276" stroke-linecap="round" stroke-linejoin="round" stroke-miterlimit="10"></path><path d="M32 8c.015.274-.052.636-.154 1.033a16.278 16.278 0 01-.503 2.086l-.011.038c-.046.149-.08.292-.13.443-.048.143-.111.289-.163.433-.041.114-.086.229-.129.344a22.748 22.748 0 01-.664 1.575c-.039.084-.075.167-.115.251-.14.292-.288.585-.442.878-.054.103-.11.205-.166.308a29.72 29.72 0 01-1.117 1.899c1.542 1.161 6.735 5.761 2.076 12.006 1.602-1.655 2.895-3.235 3.925-4.738C40.832 14.128 33.309 7.629 32 8z" fill="#fff9de"></path><path d="M9.147 36.866a16.99 16.99 0 007.627-2.068c.485-.265.447-.742.529-1.288.141-.944.545-2.042 1.479-2.238-.638.19-1.132.871-.992 1.521.141.65 1.009 1.06 1.545.665.483-.356.485-1.057.507-1.656.044-1.216.593-2.648 1.794-2.846-.695.157-1.092 1.07-.734 1.685.358.615 1.349.72 1.828.192a6.75 6.75 0 01.795-2.973c.26-.486.65-.982 1.199-1.039-.661-.009-1.07.896-.718 1.455.353.559 1.201.656 1.756.299s.825-1.051.818-1.712c-.004-.362-.081-.721-.074-1.083a2.423 2.423 0 011.462-2.143c-.627.405-1.138 1.246-.736 1.876.369.577 1.303.527 1.792.047.489-.479.62-1.215.624-1.899.004-.684-.092-1.378.048-2.049.14-.67.594-1.339 1.268-1.459-.529.082-1.009.527-1.036 1.061-.028.534.491 1.056 1.016.952.409-.082.684-.47.841-.856a3.351 3.351 0 00.058-2.349c-.078-.221-.18-.436-.208-.669-.087-.703.496-1.293 1.029-1.76a1.16 1.16 0 00-.674.848c-.107.6.388 1.257.997 1.257s1.108-.737.833-1.281" fill="none" stroke="#f5ce85" stroke-linecap="round" stroke-linejoin="round" stroke-miterlimit="10"></path><path d="M1.638 29.124c.549 1.678 1.62 3.876 3.712 5.968 3.213 3.213 12.091 8.677 25.311-4.543C20.307 40.903 7.544 35.23 1.638 29.124z" fill="#f5c276"></path><path d="M27.752 20.358a5.722 5.722 0 00-1.373 3.568c-.029 1.281.374 2.533.485 3.809.11 1.277-.159 2.722-1.196 3.475" fill="none" stroke="#f5ce85" stroke-linecap="round" stroke-linejoin="round" stroke-miterlimit="10"></path></svg>