<svg viewBox="0 0 40 40" xmlns="http://www.w3.org/2000/svg"><path fill="none" stroke="#36404d" stroke-linecap="round" stroke-miterlimit="10" d="M22.045 38.5l-1.363-4.091M24.773 37.136l-4.091-4.091M17.955 38.5l1.363-4.091M15.227 37.136l4.091-4.091"></path><path d="M20 36.5c-7.995 0-14.5-6.505-14.5-14.5 0-5.578 2.874-9.708 5.409-13.352 1.797-2.583 3.367-4.839 3.569-7.148h11.044c.205 2.271 1.762 4.514 3.545 7.083C31.614 12.249 34.5 16.405 34.5 22c0 7.995-6.505 14.5-14.5 14.5z" fill="#dcd5f2"></path><path d="M25.082 2c.36 2.237 1.867 4.406 3.576 6.868C31.162 12.474 34 16.561 34 22c0 7.72-6.28 14-14 14S6 29.72 6 22c0-5.421 2.826-9.482 5.319-13.066C13.043 6.456 14.562 4.273 14.92 2h10.162M26 1H14c0 5.476-9 11.019-9 21 0 8.284 6.716 15 15 15s15-6.716 15-15c0-9.981-9-15.602-9-21z" fill="#8b75a1"></path><path fill="#dcd5f2" d="M25.317 6.455H14.683L14.953 1h10.094z"></path><path d="M23.5 1c0 8.202 8 13.617 8 21.409C31.5 28.811 26.401 33.5 20 33.5S8.5 28.811 8.5 22.409c0-7.745 8-13.276 8-21.409" fill="none" stroke="#c0b6e3" stroke-miterlimit="10"></path><path d="M21.5 1c0 10.423 7 15.286 7 21a8.5 8.5 0 01-17 0c0-5.679 7-10.544 7-21" fill="none" stroke="#c0b6e3" stroke-miterlimit="10"></path><path d="M20 1c0 12.226 5.5 17.303 5.5 21a5.5 5.5 0 11-11 0c0-3.675 5.5-8.774 5.5-21" fill="none" stroke="#c0b6e3" stroke-miterlimit="10"></path><path d="M20 7c0 9.23 2.5 13.319 2.5 15a2.5 2.5 0 11-5 0c0-1.67 2.5-4.692 2.5-15" fill="none" stroke="#c0b6e3" stroke-miterlimit="10"></path><g><path d="M21 22a1 1 0 01-2 0c0-.552 1-4.901 1-4.901s1 4.349 1 4.901z" fill="#8b75a1"></path></g></svg>