<svg viewBox="0 0 40 40" xmlns="http://www.w3.org/2000/svg"><path d="M20 23.501c-1.93 0-3.5-1.57-3.5-3.5s1.57-3.5 3.5-3.5 3.5 1.57 3.5 3.5-1.57 3.5-3.5 3.5z" fill="#a59dd1"></path><path d="M20 17.001c1.654 0 3 1.346 3 3s-1.346 3-3 3-3-1.346-3-3 1.346-3 3-3m0-1c-2.206 0-4 1.795-4 4s1.794 4 4 4 4-1.795 4-4-1.794-4-4-4z" fill="#8b75a1"></path><path d="M5.868 33.424C2.402 29.781.5 25.034.5 20.001s1.903-9.78 5.37-13.424l2.12 2.12c-2.899 3.076-4.49 7.07-4.49 11.304s1.59 8.228 4.489 11.303l-2.121 2.12z" fill="#dcd5f2"></path><path d="M5.883 7.298l1.415 1.415A16.865 16.865 0 003 20.001c0 4.199 1.519 8.17 4.297 11.287l-1.415 1.415A18.854 18.854 0 011 20.001 18.85 18.85 0 015.883 7.298m-.018-1.433C2.243 9.487 0 14.488 0 20.001s2.243 10.513 5.864 14.135l2.827-2.827A15.953 15.953 0 014 20.001C4 15.59 5.795 11.59 8.692 8.692L5.865 5.865z" fill="#a59dd1"></path><g><path d="M31.969 31.345A16.375 16.375 0 0036.5 20.001c0-4.254-1.605-8.263-4.533-11.345l2.132-2.109c3.487 3.648 5.401 8.406 5.401 13.454s-1.914 9.806-5.4 13.453l-2.131-2.109z" fill="#dcd5f2"></path><path d="M34.084 7.264A18.846 18.846 0 0139 20.001c0 4.748-1.738 9.232-4.915 12.735l-1.422-1.408A16.853 16.853 0 0037 20.001c0-4.219-1.533-8.205-4.338-11.329l1.422-1.408m.02-1.426l-2.842 2.813A15.95 15.95 0 0136 20.001c0 4.432-1.814 8.448-4.737 11.349l2.842 2.813C37.744 30.539 40 25.528 40 20.001c0-5.528-2.257-10.539-5.896-14.163z" fill="#a59dd1"></path></g><g><path d="M26.292 25.705a8.42 8.42 0 002.208-5.704 8.42 8.42 0 00-2.209-5.706l2.126-2.117a11.402 11.402 0 013.083 7.823c0 2.926-1.091 5.685-3.081 7.822l-2.127-2.118z" fill="#a59dd1"></path><path d="M28.395 12.905A10.897 10.897 0 0131 20.001c0 2.625-.918 5.109-2.604 7.094l-1.422-1.415A8.907 8.907 0 0029 20.001a8.903 8.903 0 00-2.027-5.68l1.422-1.416m.028-1.438c-.973.967-1.93 1.919-2.833 2.821a7.972 7.972 0 01.001 11.424c.904.902 1.86 1.854 2.833 2.821A11.958 11.958 0 0032 20.001a11.96 11.96 0 00-3.577-8.534z" fill="#8b75a1"></path><g><path d="M11.526 27.767A11.413 11.413 0 018.5 20.001c0-2.9 1.071-5.64 3.027-7.767l2.122 2.122C12.26 15.915 11.5 17.9 11.5 20.001s.76 4.086 2.148 5.644l-2.122 2.122z" fill="#a59dd1"></path><path d="M11.551 12.965l1.42 1.42A8.926 8.926 0 0011 20.001c0 2.064.693 4.024 1.97 5.615l-1.42 1.42A10.907 10.907 0 019 20.001c0-2.598.899-5.061 2.551-7.036m-.031-1.446A11.964 11.964 0 008 20.001c0 3.307 1.345 6.307 3.518 8.481l2.827-2.827A7.978 7.978 0 0112 20.001c0-2.206.898-4.206 2.347-5.655l-2.827-2.827z" fill="#8b75a1"></path></g></g></svg>