<svg viewBox="0 0 40 40" xmlns="http://www.w3.org/2000/svg"><path d="M20 38.5a4.44 4.44 0 01-3.316-1.483l-.084-.092-.118-.042A10.517 10.517 0 019.5 27V12.381a4.747 4.747 0 014.742-4.742h11.516a4.747 4.747 0 014.742 4.742V27c0 4.424-2.806 8.396-6.982 9.883l-.118.042-.084.092A4.44 4.44 0 0120 38.5z" fill="#ffeea3"></path><path d="M25.758 8.139A4.247 4.247 0 0130 12.381V27c0 4.213-2.672 7.995-6.65 9.412l-.236.084-.168.185a3.947 3.947 0 01-5.892-.001l-.168-.185-.236-.084A10.014 10.014 0 0110 27V12.381a4.247 4.247 0 014.242-4.242h11.516m0-1H14.242A5.242 5.242 0 009 12.381V27c0 4.78 3.055 8.837 7.314 10.354C17.229 38.358 18.534 39 20 39s2.771-.642 3.686-1.647C27.945 35.837 31 31.78 31 27V12.381a5.242 5.242 0 00-5.242-5.242z" fill="#ba9b48"></path><circle cx="25.75" cy="25.429" r="1.357" fill="#36404d"></circle><circle cx="14.893" cy="25.429" r="1.357" fill="#36404d"></circle><path d="M32 37.5c-2.786 0-5.358-.999-6.593-1.566 1.599-1.12 5.093-4.142 5.093-9.147v-6.904c0-3.774-4.073-6.211-4.247-6.312l-.446-.263-.247.455c-.026.048-2.695 4.82-9.379 5.743-3.218.444-6.681 2.73-6.681 6.698l1 .083-1-.023v.522c0 5.072 3.832 8.21 5.622 9.399C13.783 36.679 11.221 37.5 9 37.5c-3.864 0-5.765-1.786-6.366-2.493.807-1.034 3.258-4.381 3.258-6.863 0-1.341-.31-2.886-.638-4.521C4.884 21.772 4.5 19.86 4.5 18c0-10.328 7.354-16.5 14.464-16.5 5.34 0 7.583 3.716 7.604 3.753l.146.247H27c4.605 0 9.5 3.68 9.5 10.5 0 2.219-.486 4.549-.957 6.803-.408 1.955-.793 3.801-.793 5.341 0 3.088 3.11 5.84 4.412 6.857-1.124.785-3.946 2.499-7.162 2.499z" fill="#ffc49c"></path><path d="M18.964 2c5.008 0 7.09 3.367 7.173 3.506l.29.494H27c4.363 0 9 3.505 9 10 0 2.167-.481 4.472-.946 6.7-.413 1.981-.804 3.852-.804 5.443 0 2.921 2.545 5.52 4.071 6.816C37.021 35.78 34.643 37 32 37c-2.202 0-4.273-.65-5.606-1.186C28.211 34.353 31 31.364 31 26.786v-6.904c0-4.057-4.31-6.636-4.493-6.744l-.894-.525-.492.913c-.025.046-2.546 4.592-9.007 5.484C12.687 19.483 9 21.936 9 26.204V26.786c0 4.629 3.036 7.711 5.049 9.246C12.674 36.484 10.727 37 9 37c-3.192 0-4.955-1.279-5.71-2.023 1.022-1.354 3.103-4.407 3.103-6.834 0-1.39-.315-2.959-.648-4.619C5.379 21.698 5 19.811 5 18 5 7.985 12.1 2 18.964 2m0-1C11.53 1 4 7.471 4 18c0 3.586 1.393 7.382 1.393 10.143C5.393 30.905 2 35 2 35s1.925 3 7 3c3.303 0 7.246-1.719 7.246-1.719S10 33.035 10 26.786v-.523V26.203c0-3.678 3.242-5.788 6.25-6.204 7.038-.972 9.75-6 9.75-6s4 2.35 4 5.882v6.904c0 6.13-5.607 9.202-5.607 9.202S27.945 38 32 38c4.392 0 8-3 8-3s-4.75-3.254-4.75-6.857c0-3.201 1.75-7.9 1.75-12.143 0-7.196-5.274-11-10-11 0 0-2.348-4-8.036-4z" fill="#a16a4a"></path><path d="M29.813 32h-1.342a12.441 12.441 0 01-2.667 2.996l3.762-.06c1.047-1.166-.442-1.408.247-2.936z" fill="#ffc49c"></path><path d="M22.286 33.5h9.143a4.07 4.07 0 004.071-4.071V27.5" fill="none" stroke="#788b9c" stroke-miterlimit="10"></path><path d="M21.5 35h-1a1.5 1.5 0 010-3h1a1.5 1.5 0 010 3z" fill="#36404d"></path><g><path d="M34 28.5a.5.5 0 01-.5-.5v-7a.5.5 0 01.5-.5h2c.827 0 1.5.673 1.5 1.5v5c0 .827-.673 1.5-1.5 1.5h-2z" fill="#b6c9d6"></path><path d="M36 21c.551 0 1 .449 1 1v5c0 .551-.449 1-1 1h-2v-7h2m0-1h-2a1 1 0 00-1 1v7a1 1 0 001 1h2a2 2 0 002-2v-5a2 2 0 00-2-2z" fill="#788b9c"></path></g></svg>