<svg viewBox="0 0 40 40" xmlns="http://www.w3.org/2000/svg"><path fill="#f2faff" d="M3.5 3.5h33v33h-33z"></path><path d="M36 4v32H4V4h32m1-1H3v34h34V3z" fill="#788b9c"></path><path fill="#c2e8ff" d="M4 4h4v4H4zM8 8h4v4H8zM12 4h4v4h-4zM16 8h4v4h-4zM20 4h4v4h-4zM24 8h4v4h-4zM28 4h4v4h-4zM32 8h4v4h-4zM4 12h4v4H4zM8 16h4v4H8zM12 12h4v4h-4zM16 16h4v4h-4zM20 12h4v4h-4zM24 16h4v4h-4zM28 12h4v4h-4zM32 16h4v4h-4zM4 20h4v4H4zM8 24h4v4H8zM12 20h4v4h-4zM16 24h4v4h-4zM20 20h4v4h-4zM24 24h4v4h-4zM28 20h4v4h-4zM32 24h4v4h-4zM4 28h4v4H4zM8 32h4v4H8zM12 28h4v4h-4zM16 32h4v4h-4zM20 28h4v4h-4zM24 32h4v4h-4zM28 28h4v4h-4z"></path><g><path fill="#c2e8ff" d="M32 32h4v4h-4z"></path></g></svg>