<svg viewBox="0 0 40 40" xmlns="http://www.w3.org/2000/svg"><path fill="#ffeea3" d="M6.5 2.5h27v35h-27z"></path><path d="M33 3v34H7V3h26m1-1H6v36h28V2z" fill="#ba9b48"></path><path d="M32.462 3H7.538S19 11 19 21h2C23 7 32.462 3 32.462 3z" fill="#fffae0"></path><path d="M33.5 2.5s-12 5.538-12 18" fill="none" stroke="#ba9b48" stroke-miterlimit="10"></path><path fill="none" stroke="#ba9b48" stroke-linecap="round" stroke-linejoin="round" stroke-miterlimit="10" d="M28.009 4.121l.929 1.178M26.098 5.815l1.096 1.024M24.369 7.697l1.149.965M22.801 9.909l1.258.818M21.609 12.405l1.357.639M20.736 15.122l1.438.429M20.178 17.853l1.338.191"></path><path d="M6.5 2.5s12 5.538 12 18" fill="none" stroke="#ba9b48" stroke-miterlimit="10"></path><path fill="none" stroke="#ba9b48" stroke-linecap="round" stroke-linejoin="round" stroke-miterlimit="10" d="M10.733 3.401l-.827 1.251M12.778 4.932l-1.007 1.111M14.657 6.664l-1.065 1.057M16.402 8.739l-1.185.92M17.797 11.128l-1.3.749M18.891 13.763l-1.397.547M19.673 16.439l-1.318.301"></path><path d="M20 30.5c-1.93 0-3.5-1.57-3.5-3.5 0-.547.354-2.488.973-5.325a1.488 1.488 0 011.465-1.175h2.125c.711 0 1.314.483 1.465 1.175.618 2.837.972 4.778.972 5.325 0 1.93-1.57 3.5-3.5 3.5z" fill="#fffae0"></path><path d="M21.063 21a.99.99 0 01.976.782C22.931 25.874 23 26.81 23 27c0 1.654-1.346 3-3 3s-3-1.346-3-3c0-.19.069-1.126.961-5.218a.99.99 0 01.976-.782h2.126m0-1h-2.125c-.941 0-1.753.65-1.953 1.569C16.589 23.381 16 26.216 16 27a4 4 0 008 0c0-.784-.589-3.619-.984-5.431A1.993 1.993 0 0021.063 20z" fill="#ba9b48"></path><g><circle cx="20" cy="27" r="1.5" fill="#ba9b48"></circle></g></svg>