<svg viewBox="0 0 40 40" xmlns="http://www.w3.org/2000/svg"><path d="M6 32.5c-2.081 0-4.5-5.46-4.5-12.5S3.919 7.5 6 7.5h27c2.081 0 4.5 5.46 4.5 12.5S35.081 32.5 33 32.5H6z" fill="#b6c9d6"></path><path d="M33 8c1.41 0 4 4.556 4 12s-2.59 12-4 12H6c-1.41 0-4-4.556-4-12S4.59 8 6 8h27m0-1H6c-2.484 0-5 5.78-5 13s2.516 13 5 13h27c2.484 0 5-5.78 5-13S35.484 7 33 7z" fill="#788b9c"></path><path d="M17.94 18c-.13-1.12-.5-2.02-1.1-2.7-.68-.76-1.59-1.19-2.73-1.28-.16-.01-.33-.02-.5-.02-.13 0-.26 0-.38.02-1.15.09-2.06.52-2.73 1.28-.61.68-.98 1.58-1.11 2.7-.04.32-.06.66-.06 1.01v1.97c0 .36.02.7.06 1.02.13 1.12.49 2.02 1.07 2.7.65.75 1.54 1.18 2.69 1.28.16.01.32.02.49.02.19 0 .37-.01.54-.02 1.15-.1 2.05-.53 2.7-1.28.58-.68.93-1.58 1.06-2.7.04-.32.06-.66.06-1.02v-1.97c0-.35-.02-.69-.06-1.01zm-2.34 3.2c0 .3-.02.57-.05.8-.03.22-.07.4-.11.57-.01.01-.01.02-.01.03-.1.33-.23.58-.37.79-.23.38-.61.58-1.14.64-.09.01-.18.01-.28.01-.08 0-.16 0-.23-.01-.52-.06-.9-.26-1.14-.64-.14-.21-.27-.47-.37-.82 0-.01-.01-.03-.01-.04-.05-.16-.08-.33-.11-.53-.03-.23-.05-.5-.05-.8v-2.4c.01-.29.03-.56.08-.8.01-.1.03-.2.06-.29v-.01c.1-.46.27-.82.43-1.08.24-.38.64-.6 1.18-.65.04-.01.09-.01.13-.01.08 0 .16 0 .24.01.54.05.93.27 1.18.65.17.27.34.64.44 1.12.02.08.04.17.05.26.05.24.07.51.08.8v2.4zM29 22c-.063 1.331-.461 2.289-1.197 2.974-.734.683-1.772 1.026-3.111 1.026-1.407 0-2.486-.434-3.235-1.303-.749-.87-1.124-2.108-1.124-3.718v-1.965c0-1.604.387-2.84 1.162-3.709.776-.871 1.852-1.305 3.232-1.305 1.356 0 2.386.356 3.09 1.067.704.712 1.086 1.602 1.183 2.933h-2.521c-.023-.823-.141-1.261-.389-1.573-.248-.312-.703-.469-1.363-.469-.673 0-1.148.221-1.427.662-.28.441-.549 1.169-.566 2.181v2.4c0 1.161.259 1.761.536 2.193.276.433.75.651 1.423.651.661 0 1.117-.151 1.368-.453.251-.303.393-.799.427-1.591L29 22z" fill="#fff"></path></svg>