<svg viewBox="0 0 40 40" xmlns="http://www.w3.org/2000/svg"><path fill="#fff" d="M7.5 1.5h31v31h-31z"></path><path d="M38 2v30H8V2h30m1-1H7v32h32V1z" fill="#788b9c"></path><path fill="#788b9c" d="M7 1h32v6H7z"></path><path fill="#c8d1db" d="M8 32v-6l-1 1v6h5.348l1-1z"></path><g><path fill="#8bb7f0" d="M1.707 35.733l17.867-17.866-3.367-3.367H25.5v9.293l-3.367-3.367L4.267 38.293z"></path><path d="M25 15v7.586l-2.16-2.16-.707-.707-.707.707-17.16 17.16-1.852-1.852 17.16-17.16.707-.707-.707-.707-2.16-2.16H25m1-1H15l3.867 3.867L1 35.734 4.266 39l17.867-17.867L26 25V14z" fill="#4e7ab5"></path></g></svg>