<svg viewBox="0 0 40 40" xmlns="http://www.w3.org/2000/svg"><path fill="#fff" d="M8.5 2.857h23v34.286h-23z"></path><path d="M31 3.357v33.286H9V3.357h22m1-1H8v35.286h24V2.357z" fill="#788b9c"></path><path fill="#66798f" d="M8 5h24v30H8z"></path><path fill="#fff" d="M28.5 34.581V5.419l10-3.701v36.564z"></path><path d="M38 2.436v35.127l-9-3.331V5.768l9-3.332M39 1L28 5.071v29.857L39 39V1z" fill="#788b9c"></path><path fill="#8bb7f0" d="M31.5 15.5V7.508l4-1.481V15.5z"></path><path d="M35 6.746V15h-3V7.856l3-1.11m1-1.437L31 7.16V16h5V5.309z" fill="#4e7ab5"></path><g><path fill="#8bb7f0" d="M31.5 32.492V18.5h4v15.472z"></path><path d="M35 19v14.254l-3-1.11V19h3m1-1h-5v14.84l5 1.851V18z" fill="#4e7ab5"></path></g><g><path fill="#fff" d="M1.5 1.718l10 3.701v29.162l-10 3.701z"></path><path d="M2 2.436l9 3.331v28.465l-9 3.331V2.436M1 1v38l11-4.071V5.071L1 1z" fill="#788b9c"></path></g><g><path fill="#8bb7f0" d="M4.5 15.5V6.027l4 1.481V15.5z"></path><path d="M5 6.746l3 1.11V15H5V6.746M4 5.309V16h5V7.16L4 5.309z" fill="#4e7ab5"></path><g><path fill="#8bb7f0" d="M4.5 18.5h4v13.992l-4 1.48z"></path><path d="M8 19v13.144l-3 1.11V19h3m1-1H4v16.691l5-1.851V18z" fill="#4e7ab5"></path></g></g></svg>