<svg viewBox="0 0 40 40" xmlns="http://www.w3.org/2000/svg"><path d="M13 16.5c-2.481 0-4.5-2.019-4.5-4.5s2.019-4.5 4.5-4.5 4.5 2.019 4.5 4.5-2.018 4.5-4.5 4.5z" fill="#839cb2"></path><path d="M13 8c2.206 0 4 1.794 4 4s-1.794 4-4 4-4-1.794-4-4 1.794-4 4-4m0-1a5 5 0 10.001 10.001A5 5 0 0013 7z" fill="#66798f"></path><path d="M27 16.5c-2.481 0-4.5-2.019-4.5-4.5s2.019-4.5 4.5-4.5 4.5 2.019 4.5 4.5-2.019 4.5-4.5 4.5z" fill="#839cb2"></path><path d="M27 8c2.206 0 4 1.794 4 4s-1.794 4-4 4-4-1.794-4-4 1.794-4 4-4m0-1a5 5 0 10.001 10.001A5 5 0 0027 7z" fill="#66798f"></path><path d="M24.404 24.602c-.925-5.314-1.324-6.476-2.95-6.476-.181 0-.379.016-.601.032-.249.02-.531.042-.853.042s-.604-.022-.853-.042a8.141 8.141 0 00-.601-.032c-1.626 0-2.024 1.161-2.95 6.476L1.451 21.547c1.057-2.339 2.765-5.983 3.944-7.844C6.361 12.182 8.404 11.5 10 11.5h20c1.596 0 3.639.682 4.605 2.203 1.18 1.86 2.887 5.505 3.944 7.844l-14.145 3.055z" fill="#b0c1d4"></path><path d="M30 12c1.754 0 3.435.792 4.183 1.971.842 1.326 2.126 3.866 3.655 7.218l-13.031 2.814c-.849-4.816-1.336-6.377-3.353-6.377a8.21 8.21 0 00-.64.034 9.99 9.99 0 01-.814.04c-.298 0-.56-.02-.814-.04a8.704 8.704 0 00-.64-.034c-2.017 0-2.504 1.56-3.353 6.377L2.162 21.189c1.528-3.352 2.813-5.891 3.655-7.218C6.565 12.792 8.246 12 10 12h20m0-1H10c-1.909 0-4.023.853-5.027 2.435-1.258 1.982-3.076 5.891-4.232 8.47L16 25.2c1.009-5.86 1.36-6.574 2.546-6.574.382 0 .85.074 1.454.074s1.072-.074 1.454-.074c1.186 0 1.537.713 2.546 6.574l15.259-3.295c-1.155-2.579-2.974-6.488-4.232-8.47C34.023 11.853 31.909 11 30 11z" fill="#66798f"></path><path d="M32 32.5c-4.136 0-7.5-3.364-7.5-7.5s3.364-7.5 7.5-7.5 7.5 3.364 7.5 7.5-3.364 7.5-7.5 7.5z" fill="#c2e8ff"></path><path d="M32 18c3.86 0 7 3.14 7 7s-3.14 7-7 7-7-3.14-7-7 3.14-7 7-7m0-1a8 8 0 100 16 8 8 0 000-16z" fill="#66798f"></path><path d="M28.5 25a3.5 3.5 0 013.5-3.5" fill="none" stroke="#fff" stroke-miterlimit="10"></path><g><path d="M8 32.5C3.864 32.5.5 29.136.5 25s3.364-7.5 7.5-7.5 7.5 3.364 7.5 7.5-3.364 7.5-7.5 7.5z" fill="#c2e8ff"></path><path d="M8 18c3.86 0 7 3.14 7 7s-3.14 7-7 7-7-3.14-7-7 3.14-7 7-7m0-1a8 8 0 100 16 8 8 0 000-16z" fill="#66798f"></path></g><path d="M4.5 25A3.5 3.5 0 018 21.5" fill="none" stroke="#fff" stroke-miterlimit="10"></path><g><path d="M20 23.5c-1.93 0-3.5-1.57-3.5-3.5s1.57-3.5 3.5-3.5 3.5 1.57 3.5 3.5-1.57 3.5-3.5 3.5z" fill="#b0c1d4"></path><path d="M20 17c1.654 0 3 1.346 3 3s-1.346 3-3 3-3-1.346-3-3 1.346-3 3-3m0-1a4 4 0 100 8 4 4 0 000-8z" fill="#66798f"></path></g><g><circle cx="20" cy="20" r="1" fill="#36404d"></circle></g></svg>