<svg viewBox="0 0 40 40" xmlns="http://www.w3.org/2000/svg"><path d="M36 22.5c-.827 0-1.5-.673-1.5-1.5v-4.286h4V21c0 .827-.673 1.5-1.5 1.5h-1z" fill="#ffeea3"></path><path d="M38 17.214V21c0 .551-.449 1-1 1h-1c-.551 0-1-.449-1-1v-3.786h3m1-1h-5V21a2 2 0 002 2h1a2 2 0 002-2v-4.786z" fill="#ba9b48"></path><path d="M32 23.5c-.827 0-1.5-.673-1.5-1.5v-4.286h4V22c0 .827-.673 1.5-1.5 1.5h-1z" fill="#ffeea3"></path><path d="M34 18.214V22c0 .551-.449 1-1 1h-1c-.551 0-1-.449-1-1v-3.786h3m1-1h-5V22a2 2 0 002 2h1a2 2 0 002-2v-4.786z" fill="#ba9b48"></path><path d="M28 23.5c-.827 0-1.5-.673-1.5-1.5v-4.286h4V22c0 .827-.673 1.5-1.5 1.5h-1z" fill="#ffeea3"></path><path d="M30 18.214V22c0 .551-.449 1-1 1h-1c-.551 0-1-.449-1-1v-3.786h3m1-1h-5V22a2 2 0 002 2h1a2 2 0 002-2v-4.786z" fill="#ba9b48"></path><path d="M24 23.5c-.827 0-1.5-.673-1.5-1.5v-4.286h4V22c0 .827-.673 1.5-1.5 1.5h-1z" fill="#ffeea3"></path><path d="M26 18.214V22c0 .551-.449 1-1 1h-1c-.551 0-1-.449-1-1v-3.786h3m1-1h-5V22a2 2 0 002 2h1a2 2 0 002-2v-4.786z" fill="#ba9b48"></path><path d="M22.5 19.5v-8.586l-2.367 2.367a4.137 4.137 0 01-2.944 1.219 4.139 4.139 0 01-2.944-1.219l-.548-.548L24.5 3.226V1.5h13v2.598l.037.091c.01.024.963 2.404.963 5.811v9.5h-16z" fill="#ffeea3"></path><path d="M37 2v2.197l.075.182C37.084 4.402 38 6.677 38 10v9H23V9.707l-1.707 1.707-1.513 1.513A3.64 3.64 0 0117.189 14a3.64 3.64 0 01-2.59-1.073l-.171-.171 10.233-9.005.339-.299V2h12m1-1H24v2l-11.033 9.709.925.925c.91.911 2.104 1.366 3.297 1.366s2.387-.455 3.297-1.366L22 12.121V20h17V10c0-3.559-1-6-1-6V1z" fill="#ba9b48"></path><path fill="#ffeea3" d="M23 15.857h15V20H23zM25 1h12v4H25z"></path><g><path d="M1.517 38.5c.258-3.903 3.516-7 7.483-7h6c3.967 0 7.225 3.097 7.483 7H1.517z" fill="#8bb7f0"></path><path d="M15 32c3.52 0 6.442 2.612 6.929 6H2.071C2.558 34.612 5.48 32 9 32h6m0-1H9a8 8 0 00-8 8h22a8 8 0 00-8-8z" fill="#4e7ab5"></path></g><g><path d="M12 33.746c-2.379 0-3.306-1.438-3.5-1.798V28.5h7v3.448c-.195.364-1.116 1.798-3.5 1.798z" fill="#e8d47b"></path><path d="M15 29v2.812c-.251.401-1.085 1.433-3 1.433-1.923 0-2.756-1.041-3-1.431V29h6m1-1H8v4.064s.934 2.181 4 2.181 4-2.181 4-2.181V28z" fill="#ba9b48"></path></g><g><path d="M17 25.5c-.827 0-1.5-.673-1.5-1.5s.673-1.5 1.5-1.5c1.385 0 1.5.394 1.5.833 0 .907-.756 2.167-1.5 2.167zm-10 0c-.744 0-1.5-1.26-1.5-2.167 0-.439.115-.833 1.5-.833.827 0 1.5.673 1.5 1.5s-.673 1.5-1.5 1.5z" fill="#e8d47b"></path><path d="M17 23c.825 0 .974.155.975.156a.44.44 0 01.025.177c0 .72-.629 1.667-1 1.667-.551 0-1-.449-1-1s.449-1 1-1M7 23c.551 0 1 .449 1 1s-.449 1-1 1c-.371 0-1-.947-1-1.667a.46.46 0 01.024-.176C6.026 23.155 6.175 23 7 23m10-1a2 2 0 100 4c1.105 0 2-1.562 2-2.667S18.105 22 17 22zM7 22c-1.105 0-2 .229-2 1.333S5.895 26 7 26a2 2 0 100-4z" fill="#ba9b48"></path></g><g><path d="M12 30.5c-.4 0-.78-.182-1.044-.498l-.105-.126-.16-.04A5.482 5.482 0 016.5 24.5v-5.257a2.362 2.362 0 012.359-2.359h6.281a2.362 2.362 0 012.359 2.359V24.5a5.482 5.482 0 01-4.19 5.336l-.16.04-.105.126A1.362 1.362 0 0112 30.5z" fill="#e8d47b"></path><path d="M15.14 17.384c1.025 0 1.86.834 1.86 1.86V24.5a4.983 4.983 0 01-3.81 4.85l-.32.078-.211.253c-.098.12-.316.319-.659.319s-.561-.199-.66-.318l-.211-.253-.32-.078A4.985 4.985 0 017 24.5v-5.257c0-1.025.834-1.86 1.86-1.86h6.28m0-.999H8.86A2.86 2.86 0 006 19.244V24.5a5.997 5.997 0 004.572 5.822c.342.411.851.678 1.428.678s1.086-.267 1.428-.678A5.997 5.997 0 0018 24.5v-5.257a2.86 2.86 0 00-2.86-2.859z" fill="#ba9b48"></path></g><g><path d="M17.5 24.5V23c0-2.703-2.189-4.146-2.283-4.206l-.332-.213-.285.272c-.013.012-1.511 1.378-4.663 1.378-1.711 0-3.438 1.025-3.438 3.315v.954h-.118c-.248-.938-.881-3.52-.881-5.5 0-2.733 2.12-5.5 6.173-5.5 2.17 0 2.834 1.612 2.861 1.681l.125.316.341.003c1.467 0 3.5 1.24 3.5 3.568 0 1.809-.637 4.467-.885 5.432H17.5z" fill="#ffc49c"></path><path d="M11.673 14c1.779 0 2.339 1.229 2.393 1.356l.245.644H15c1.046 0 3 .9 3 3.068 0 .703-.101 1.544-.237 2.36-.61-1.959-2.192-3.001-2.274-3.054l-.656-.409-.569.519c-.056.051-1.402 1.248-4.326 1.248-1.711 0-3.041.854-3.62 2.205C6.142 20.982 6 19.922 6 19c0-2.485 1.949-5 5.673-5m0-1C7.455 13 5 15.872 5 19c0 2.555 1 6 1 6h1v-1.453c0-1.931 1.399-2.816 2.938-2.816 3.423 0 5.009-1.517 5.009-1.517S17 20.539 17 23v2h1s1-3.603 1-5.932C19 16.414 16.685 15 15 15c0 0-.762-2-3.327-2z" fill="#a16a4a"></path></g></svg>