<svg viewBox="0 0 40 40" xmlns="http://www.w3.org/2000/svg"><path d="M31.5 8.5v23h-23v-23h23m1-1h-25v25h25v-25z" fill="#788b9c"></path><path fill="#f78f8f" d="M2.5 2.5h12v12h-12z"></path><path d="M14 3v11H3V3h11m1-1H2v13h13V2z" fill="#c74343"></path><path fill="#8bb7f0" d="M25.5 2.5h12v12h-12z"></path><path d="M37 3v11H26V3h11m1-1H25v13h13V2z" fill="#4e7ab5"></path><g><path fill="#8bb7f0" d="M2.5 25.5h12v12h-12z"></path><path d="M14 26v11H3V26h11m1-1H2v13h13V25z" fill="#4e7ab5"></path></g><g><path fill="#8bb7f0" d="M25.5 25.5h12v12h-12z"></path><path d="M37 26v11H26V26h11m1-1H25v13h13V25z" fill="#4e7ab5"></path></g></svg>