<svg viewBox="0 0 40 40" xmlns="http://www.w3.org/2000/svg"><path d="M20 38.5C9.799 38.5 1.5 30.201 1.5 20S9.799 1.5 20 1.5 38.5 9.799 38.5 20 30.201 38.5 20 38.5z" fill="#ffeea3"></path><path d="M20 2c9.925 0 18 8.075 18 18s-8.075 18-18 18S2 29.925 2 20 10.075 2 20 2m0-1C9.507 1 1 9.507 1 20s8.507 19 19 19 19-8.507 19-19S30.493 1 20 1z" fill="#ba9b48"></path><path d="M17.494 29.151c-2.916 0-7.852-1.877-7.852-8.913 0-5.111 5.413-10.584 13.472-10.584 3.132 0 6.966.795 8.4 1.12-.521 1.324-.827 3.03-1.147 4.822-1.081 6.04-2.427 13.555-12.873 13.555z" fill="#9bcc9f"></path><path d="M23.114 10.154c2.742 0 6.044.623 7.737.986-.422 1.271-.694 2.787-.977 4.369-1.103 6.16-2.353 13.142-12.38 13.142-.752 0-7.351-.236-7.351-8.414 0-2.418 1.301-4.904 3.57-6.822 2.488-2.102 5.827-3.261 9.401-3.261m0-1c-8.164 0-13.971 5.634-13.971 11.084 0 7.519 5.363 9.414 8.351 9.414 14.519 0 12.137-13.98 14.72-19.226 0-.001-5.074-1.272-9.1-1.272z" fill="#5e9c76"></path><path d="M16.283 34.485s-2.441-3.865-1.712-9.056c1.225-8.726 9.423-10.887 9.423-10.887" fill="none" stroke="#5e9c76" stroke-linecap="round" stroke-miterlimit="10"></path></svg>