<svg viewBox="0 0 40 40" xmlns="http://www.w3.org/2000/svg"><path fill="#fff" d="M10.207 37.5L2.5 29.793V2.5h27.293l7.707 7.707V37.5z"></path><path d="M29.586 3L37 10.414V37H10.414L3 29.586V3h26.586M30 2H2v28l8 8h28V10l-8-8z" fill="#788b9c"></path><path fill="#fff" d="M10.5 10.5h27v27h-27z"></path><path d="M37 11v26H11V11h26m1-1H10v28h28V10z" fill="#788b9c"></path><g><path fill="#fff" d="M10.207 37.5L2.5 29.793V3.113l8 7.112V37.5z"></path><path d="M3 4.227l7 6.222v26.136l-7-7V4.227M2 2v28l8 8h1V10L2 2z" fill="#788b9c"></path></g></svg>