<svg viewBox="0 0 40 40" xmlns="http://www.w3.org/2000/svg"><path fill="#c2e0af" d="M6.5 37.5v-35h18.293l8.707 8.707V37.5z"></path><path d="M24.586 3L33 11.414V37H7V3h17.586M25 2H6v36h28V11l-9-9z" fill="#6c945a"></path><path fill="#fff" d="M24.5 11.5v-9h.293l8.707 8.707v.293z"></path><path d="M25 3.414L32.586 11H25V3.414M25 2h-1v10h10v-1l-9-9z" fill="#6c945a"></path><path d="M16.336 21.793c0 3.302-1.17 4.641-2.834 4.641-1.989 0-2.769-2.105-2.769-4.511 0-2.392.949-4.459 2.899-4.459 2.106 0 2.704 2.327 2.704 4.329zm-3.835.156c0 1.988.377 3.003 1.066 3.003.728 0 1.001-1.3 1.001-3.081 0-1.534-.234-2.926-1.014-2.926-.676 0-1.053 1.118-1.053 3.004zM17.22 24.588c.351.195.962.338 1.443.338.793 0 1.196-.416 1.196-.988 0-.637-.39-.948-1.131-1.43-1.196-.728-1.651-1.651-1.651-2.444 0-1.403.936-2.573 2.756-2.573.585 0 1.131.155 1.378.312l-.273 1.469a2.083 2.083 0 00-1.105-.299c-.728 0-1.079.442-1.079.91 0 .521.26.793 1.196 1.365 1.17.702 1.586 1.586 1.586 2.509 0 1.6-1.183 2.652-2.886 2.652-.702 0-1.378-.182-1.677-.352l.247-1.469zM27.893 23.262a41.073 41.073 0 01-.091-2.898h-.026c-.156.936-.39 2.015-.559 2.69l-.767 3.134h-1.196l-.728-3.082a35.207 35.207 0 01-.546-2.742h-.026c-.026.948-.091 2.054-.13 2.925l-.156 3.042h-1.456l.624-8.763h1.807l.702 3.173c.234 1.104.455 2.08.611 3.067h.039c.13-.975.325-1.963.546-3.067l.702-3.173h1.794l.533 8.763h-1.521l-.156-3.069z" fill="#588046"></path></svg>