<svg viewBox="0 0 40 40" xmlns="http://www.w3.org/2000/svg"><path d="M10.758 38.5a4.52 4.52 0 011.516-2.065l.069-.052.027-.042.2-.171-.091-.311c-.202-.691-4.228-10.188-4.953-11.898l1.832-7.124 3.037 2.329-1.931 4.825L14.649 35.5H15a4.514 4.514 0 014.243 3h-8.485z" fill="#ffc49c"></path><path d="M9.654 17.693l2.136 1.639-1.719 4.296-.141.355.13.359 4 11 .24.658h.7c1.454 0 2.764.793 3.464 2h-6.922a4.072 4.072 0 011.036-1.168l.049-.038.044-.043.044-.045.428-.359-.184-.628c-.204-.696-3.869-9.352-4.907-11.798l1.602-6.228m-.592-1.714L7 24s4.792 11.29 5 12c-.014.012-.018.026-.03.038A4.987 4.987 0 0010.101 39H19.899A5 5 0 0015 35l-4-11 2-5-3.938-3.021z" fill="#a16a4a"></path><path d="M30.08 37.676a1.237 1.237 0 00-.156-.201c-.146-.146-.308-.385-.483-.711C27.673 33.494 26.5 23.907 26.5 19v-3c0-.057 0-.189.264-.189.138 0 .516.049 1.059.502.159.133.334.249.512.366.625.413 1.165.768 1.165 2.321 0 4.691.822 13.661 3.028 17.758.143.259.289.497.438.713-.149.004-.298.01-.438.015-.206.007-.391.014-.528.014-.718 0-1.291.083-1.896.212l-.024-.036z" fill="#ffc49c"></path><path d="M27 16.373c.123.052.292.148.502.323.189.158.384.287.557.4.587.387.941.621.941 1.904 0 4.927.822 13.782 3.09 17.999L32 37c-.565 0-1.081.048-1.685.16l-.038-.04c-.062-.062-.195-.221-.398-.597C28.209 33.436 27 23.913 27 19v-2.627m-.236-1.063c-.467 0-.764.283-.764.69v3c0 5.008 1.209 14.689 3 18 .19.353.38.638.57.828.109.108.172.338.43.419.719-.163 1.294-.247 2-.247.317 0 .889-.036 1.376-.036.244 0 .466.009.624.036 0-.041-.027-.095-.068-.136-.339-.339-.665-.801-.964-1.344C30.784 32.463 30 23.574 30 19c0-2.262-1.11-2.447-1.857-3.071-.525-.439-1.006-.619-1.379-.619z" fill="#a16a4a"></path><path d="M9 19.5c-1.338 0-1.742-.832-2.206-2.101C6.469 16.51 6.099 15.5 5 15.5c-.844 0-3.5-.688-3.5-2.286l-.004-.101c.056-1.045.495-1.686 1.813-2.72l.529-.416-.55-.387C2.772 9.229 2.5 8.333 2.5 7c0-.431-.271-.739-.511-1.012-.056-.065-.116-.133-.174-.204a.934.934 0 01-.302-.577l.062-.051C3.046 4.002 8.158 1.5 13.893 1.5c8.31 0 15.354 7.732 15.601 16.997-4.195-.057-5.899-.812-7.156-1.368-.763-.338-1.42-.629-2.338-.629-.822 0-1.702.471-2.815 1.067-1.608.862-3.609 1.933-6.185 1.933H9z" fill="#b6c9d6"></path><path d="M13.893 2c7.746 0 14.576 7.359 15.078 15.985-3.71-.108-5.268-.799-6.432-1.314C21.759 16.326 21.023 16 20 16c-.948 0-1.923.522-3.052 1.127C15.39 17.961 13.451 19 11 19H9c-.99 0-1.276-.513-1.737-1.772C6.939 16.341 6.448 15 5 15c-.723 0-3-.653-3-1.786 0-.034-.001-.068-.004-.115l.002-.045c.043-.798.422-1.328 1.619-2.268l1.059-.831-1.101-.773C3.215 8.929 3 8.113 3 7c0-.619-.366-1.036-.634-1.341-.053-.06-.108-.122-.161-.189l-.05-.062-.036-.032C3.77 4.211 8.544 2 13.893 2m0-1C7.892 1 2.71 3.63 1.285 4.75A2.528 2.528 0 001 5c0 .502.166.863.426 1.097.272.339.574.588.574.903 0 1.25.229 2.458 1 3-1.262.991-1.932 1.751-2 3-.014.068 0 .146 0 .214C1 15.25 4.091 16 5 16c1.751 0 .875 4 4 4h2c4.421 0 7.209-3 9-3 2.266 0 2.719 2 10 2 0-9.744-7.489-18-16.107-18z" fill="#788b9c"></path><g><path d="M6.798 17.399C6.47 16.509 6.099 15.5 5 15.5c-.844 0-3.5-.688-3.5-2.286l-.004-.101c.056-1.045.495-1.686 1.813-2.72l.529-.416-.55-.387C2.772 9.229 2.5 8.333 2.5 7c0-.431-.271-.739-.511-1.012-.056-.065-.116-.133-.174-.204a.934.934 0 01-.302-.577l.062-.051c.832-.652 2.731-1.66 5.06-2.433C7.856 5.038 8.5 7.718 8.5 10.5c0 2.562-.545 5.035-1.584 7.217a15.56 15.56 0 01-.118-.318z" fill="#fff"></path><path d="M6.385 3.337C7.444 5.49 8 7.949 8 10.5c0 2.067-.365 4.074-1.067 5.908C6.586 15.69 6.039 15 5 15c-.723 0-3-.653-3-1.786 0-.034-.001-.068-.004-.115l.002-.045c.043-.798.422-1.328 1.619-2.268l1.059-.831-1.101-.773C3.215 8.929 3 8.113 3 7c0-.619-.366-1.036-.634-1.341-.053-.06-.108-.122-.161-.189l-.05-.062-.035-.031c.678-.471 2.155-1.303 4.265-2.04m.49-1.216C4.149 2.975 2.1 4.109 1.285 4.75A2.528 2.528 0 001 5c0 .502.166.863.426 1.097.272.339.574.588.574.903 0 1.25.229 2.458 1 3-1.262.991-1.932 1.751-2 3-.014.068 0 .146 0 .214C1 15.25 4.091 16 5 16c1.13 0 1.17 1.664 1.894 2.846C8.216 16.484 9 13.61 9 10.5c0-3.125-.792-6.011-2.125-8.379z" fill="#788b9c"></path></g><g><path d="M1.5 13c0-3.021 7.312-5.5 13-5.5h1" fill="none" stroke="#788b9c" stroke-linecap="round" stroke-linejoin="round" stroke-miterlimit="10"></path></g><path d="M1.001 38.5H26c1.686 0 3.955-1 6.5-1 2.577 0 4.857 1 6.5 1" fill="none" stroke="#a16a4a" stroke-miterlimit="10"></path></svg>