<svg viewBox="0 0 40 40" xmlns="http://www.w3.org/2000/svg"><path fill="#edd5f2" d="M6.5 37.5v-35h18.293l8.707 8.707V37.5z"></path><path d="M24.586 3L33 11.414V37H7V3h17.586M25 2H6v36h28V11l-9-9z" fill="#95709c"></path><path fill="#fff" d="M24.5 11.5v-9h.293l8.707 8.707v.293z"></path><path d="M25 3.414L32.586 11H25V3.414M25 2h-1v10h10v-1l-9-9zM17.615 21.631c0 3.302-1.17 4.641-2.834 4.641-1.989 0-2.769-2.105-2.769-4.511 0-2.392.949-4.459 2.899-4.459 2.106 0 2.704 2.327 2.704 4.329zm-3.835.156c0 1.988.377 3.003 1.066 3.003.728 0 1.001-1.3 1.001-3.081 0-1.534-.234-2.926-1.014-2.926-.676 0-1.053 1.118-1.053 3.004zM19.552 18.979h-1.547v-1.573h4.811v1.573h-1.56v7.189h-1.703v-7.189zM23.971 17.405h3.809v1.482h-2.106v2.249h1.976v1.417h-1.976v3.614h-1.703v-8.762z" fill="#95709c"></path></svg>