<svg viewBox="0 0 40 40" xmlns="http://www.w3.org/2000/svg"><path fill="#c2e8ff" d="M1.5 30.167V22.72L5.474 4.5h29.052L38.5 22.72v7.447z"></path><path d="M34.123 5L38 22.774v6.892H2v-6.892L5.877 5h28.246m.806-1H5.071L1 22.666v8h38v-8L34.929 4z" fill="#7496c4"></path><path d="M34.929 32H5.071v-8.91L8.363 8h23.274l3.291 15.09V32z" fill="#b3ddf7"></path><path d="M1.5 35.5v-13h13.023a5.506 5.506 0 005.477 6 5.506 5.506 0 005.477-6H38.5v13h-37z" fill="#c2e8ff"></path><path d="M38 23v12H2V23h12c0 3.308 2.692 6 6 6s6-2.692 6-6h12m1-1H24.899a5 5 0 11-9.798 0H1v14h38V22z" fill="#7496c4"></path><path fill="#c2e8ff" d="M30.183 8H9.817l3.516-4h13.334z"></path><g><path fill="#4e7ab5" d="M27.714 10L20 1l-7.714 9H18v9h4v-9z"></path></g></svg>