<svg viewBox="0 0 40 40" xmlns="http://www.w3.org/2000/svg"><path fill="#4e7ab5" d="M32 8H1v2h31v6l7-7-7-7z"></path><path fill="none" stroke="#788b9c" stroke-miterlimit="10" d="M1 30.5h38"></path><circle cx="6.5" cy="30.5" r="3" fill="#bae0bd"></circle><path d="M6.5 28C7.879 28 9 29.122 9 30.5S7.879 33 6.5 33 4 31.878 4 30.5 5.121 28 6.5 28m0-1a3.5 3.5 0 100 7 3.5 3.5 0 000-7z" fill="#5e9c76"></path><circle cx="15.5" cy="30.5" r="3" fill="#bae0bd"></circle><path d="M15.5 28c1.379 0 2.5 1.122 2.5 2.5S16.879 33 15.5 33 13 31.878 13 30.5s1.121-2.5 2.5-2.5m0-1a3.5 3.5 0 100 7 3.5 3.5 0 000-7z" fill="#5e9c76"></path><g><circle cx="24.5" cy="30.5" r="3" fill="#bae0bd"></circle><path d="M24.5 28c1.379 0 2.5 1.122 2.5 2.5S25.879 33 24.5 33 22 31.878 22 30.5s1.121-2.5 2.5-2.5m0-1a3.5 3.5 0 100 7 3.5 3.5 0 000-7z" fill="#5e9c76"></path></g><g><circle cx="33.5" cy="30.5" r="3" fill="#bae0bd"></circle><path d="M33.5 28c1.379 0 2.5 1.122 2.5 2.5S34.879 33 33.5 33 31 31.878 31 30.5s1.121-2.5 2.5-2.5m0-1a3.5 3.5 0 100 7 3.5 3.5 0 000-7z" fill="#5e9c76"></path></g></svg>