<svg viewBox="0 0 40 40" xmlns="http://www.w3.org/2000/svg"><path fill="#fff" d="M4.5 6.5h34v32h-34z"></path><path d="M38 7v31H5V7h33m1-1H4v33h35V6z" fill="#788b9c"></path><path fill="#f78f8f" d="M4.5 6.5h34v6h-34z"></path><path d="M38 7v5H5V7h33m1-1H4v7h35V6z" fill="#c74343"></path><path fill="#c5d4de" d="M30 17h3v3h-3zM25 17h3v3h-3zM20 17h3v3h-3zM15 17h3v3h-3zM30 22h3v3h-3zM25 22h3v3h-3zM20 22h3v3h-3zM15 22h3v3h-3zM10 22h3v3h-3zM25 27h3v3h-3zM20 27h3v3h-3zM15 27h3v3h-3zM10 27h3v3h-3z"></path><path fill="#e1ebf2" d="M5 35h33v3H5z"></path><path d="M11.5 21.5c-5.514 0-10-4.486-10-10s4.486-10 10-10 10 4.486 10 10-4.486 10-10 10z" fill="#8bb7f0"></path><path d="M11.5 2c5.238 0 9.5 4.262 9.5 9.5S16.738 21 11.5 21 2 16.738 2 11.5 6.262 2 11.5 2m0-1C5.701 1 1 5.701 1 11.5S5.701 22 11.5 22 22 17.299 22 11.5 17.299 1 11.5 1z" fill="#4e7ab5"></path><circle cx="11.5" cy="11.5" r="7.5" fill="#fff"></circle><circle cx="11.5" cy="11.5" r="1.25" fill="#36404d"></circle><path fill="none" stroke="#36404d" stroke-miterlimit="10" d="M14.5 15.25l-3-3.75 2.25-6"></path></svg>