<svg viewBox="0 0 40 40" xmlns="http://www.w3.org/2000/svg"><path fill="#36404d" d="M18 8h1v11h-1zM21 8h1v11h-1z"></path><path d="M17 8.5a.5.5 0 01-.5-.5V6.5h7V8a.5.5 0 01-.5.5h-6z" fill="#ffeea3"></path><path d="M23 7v1h-6V7h6m1-1h-8v2a1 1 0 001 1h6a1 1 0 001-1V6z" fill="#ba9b48"></path><path fill="#ffeea3" d="M33.434 37.5l-4.41-31H10.976l-4.41 31H2.574l4.862-35h25.128l4.862 35z"></path><path d="M32.129 3l4.722 34h-2.984L29.58 6.859 29.458 6H10.542l-.122.859L6.132 37H3.148L7.871 3h24.258M33 2H7L2 38h5l4.41-31h17.18L33 38h5L33 2z" fill="#ba9b48"></path><path d="M17 28a3 3 0 103-3v-6" fill="none" stroke="#788b9c" stroke-width="2" stroke-linejoin="round" stroke-miterlimit="10"></path><g><path fill="#ffeea3" d="M17.36 22.5l-.86-2.581V18.5h7v1.419l-.86 2.581z"></path><path d="M23 19v.838L22.279 22h-4.558L17 19.838V19h6m1-1h-8v2l1 3h6l1-3v-2z" fill="#ba9b48"></path></g></svg>