<svg viewBox="0 0 40 40" xmlns="http://www.w3.org/2000/svg"><path d="M5.5 30.5h21.12c6.561 0 11.88-5.238 11.88-11.7v-2.6c0-6.462-5.319-11.7-11.88-11.7H5.5" fill="none" stroke="#788b9c" stroke-miterlimit="10"></path><path d="M5.5 37.5h21.12c6.561 0 11.88-5.238 11.88-11.7V18" fill="none" stroke="#788b9c" stroke-miterlimit="10"></path><path d="M2.5 7.5V3c0-.827.673-1.5 1.5-1.5h18c.827 0 1.5.673 1.5 1.5v4.5h-21z" fill="#e1ebf2"></path><path d="M22 2c.551 0 1 .449 1 1v4H3V3c0-.551.449-1 1-1h18m0-1H4a2 2 0 00-2 2v5h22V3a2 2 0 00-2-2z" fill="#788b9c"></path><path d="M13 22.5c-6.281 0-10.5-2.133-10.5-4.125V7.5h21v10.875c0 1.992-4.219 4.125-10.5 4.125z" fill="#b6c9d6"></path><path d="M23 8v10.375C23 19.889 19.196 22 13 22S3 19.889 3 18.375V8h20m1-1H2v11.375C2 20.929 6.925 23 13 23s11-2.071 11-4.625V7zM24 5H11.5a.501.501 0 01-.5-.5c0-.275.225-.5.5-.5H24v1z" fill="#788b9c"></path><path d="M9 31H2.5a.501.501 0 01-.5-.5c0-.275.225-.5.5-.5H9v1zM9 38H2.5a.501.501 0 01-.5-.5c0-.275.225-.5.5-.5H9v1z" fill="#36404d"></path></svg>