<svg viewBox="0 0 40 40" xmlns="http://www.w3.org/2000/svg"><path d="M18.705 15.997c3.036-3.132 3.93-5.385 4.723-7.381.687-1.73 1.281-3.224 3.123-5.065 1.322-1.322 3.08-2.05 4.95-2.05s3.627.728 4.95 2.05S38.5 6.63 38.5 8.5s-.728 3.627-2.05 4.95c-1.839 1.839-3.326 2.427-5.047 3.108-1.996.79-4.248 1.682-7.4 4.737l-5.298-5.298z" fill="#ffc49c"></path><path d="M31.5 2c1.736 0 3.369.676 4.596 1.904A6.455 6.455 0 0138 8.5a6.455 6.455 0 01-1.904 4.596c-1.766 1.766-3.208 2.336-4.877 2.997-1.964.777-4.171 1.651-7.208 4.503l-4.608-4.608c2.833-3.018 3.709-5.225 4.489-7.189.667-1.678 1.242-3.128 3.011-4.896A6.464 6.464 0 0131.5 2m0-1a7.474 7.474 0 00-5.303 2.197C21.999 7.395 23.969 10.031 18 16l6 6c6-6 8.605-3.999 12.803-8.197A7.5 7.5 0 0031.5 1z" fill="#a16a4a"></path><path d="M11.5 38.5c-5.514 0-10-4.486-10-10s4.486-10 10-10 10 4.486 10 10-4.486 10-10 10zm0-18c-4.411 0-8 3.589-8 8s3.589 8 8 8 8-3.589 8-8-3.589-8-8-8z" fill="#c2e8ff"></path><path d="M11.5 19c5.238 0 9.5 4.262 9.5 9.5S16.738 38 11.5 38 2 33.738 2 28.5 6.262 19 11.5 19m0 18c4.687 0 8.5-3.813 8.5-8.5S16.187 20 11.5 20 3 23.813 3 28.5 6.813 37 11.5 37m0-19C5.701 18 1 22.701 1 28.5S5.701 39 11.5 39 22 34.299 22 28.5 17.299 18 11.5 18zm0 18a7.5 7.5 0 110-15 7.5 7.5 0 010 15z" fill="#7496c4"></path><path d="M16.995 27.5a2.2 2.2 0 01-1.566-.648l-2.281-2.281a2.22 2.22 0 01-.277-2.792l3.854-5.782 7.278 7.278-5.782 3.854a2.2 2.2 0 01-1.226.371c.001 0 .001 0 0 0z" fill="#eb7a7a"></path><path d="M16.804 16.781l6.415 6.415-5.274 3.516a1.711 1.711 0 01-2.162-.214l-2.281-2.281a1.718 1.718 0 01-.214-2.162l3.516-5.274m-.156-1.569l-4.193 6.289a2.714 2.714 0 00.339 3.424l2.281 2.281a2.714 2.714 0 003.424.338l6.289-4.193-8.14-8.139z" fill="#c74343"></path><path d="M27.5 8.5a4 4 0 014-4" fill="none" stroke="#fff" stroke-linecap="round" stroke-miterlimit="10"></path><g><path d="M33.301 30.5c-.194 0-.39-.026-.581-.078-.326-.089-8.058-2.25-14.475-8.667C11.828 15.339 9.667 7.606 9.578 7.28a2.204 2.204 0 012.125-2.78c.986 0 1.857.666 2.119 1.619.02.072 2.015 7.008 7.533 12.526 5.623 5.622 12.456 7.514 12.524 7.533a2.202 2.202 0 011.542 2.701 2.203 2.203 0 01-2.12 1.621z" fill="#f78f8f"></path><path d="M11.703 5c.761 0 1.434.514 1.638 1.257.081.288 2.048 7.129 7.66 12.742 5.672 5.671 12.673 7.641 12.744 7.661a1.7 1.7 0 01-.893 3.28c-.321-.087-7.928-2.212-14.253-8.538-6.325-6.325-8.45-13.932-8.538-14.253A1.704 1.704 0 0111.703 5m0-1a2.7 2.7 0 00-2.607 3.411c.09.332 2.289 8.191 8.796 14.697 6.506 6.507 14.366 8.705 14.697 8.796a2.7 2.7 0 101.422-5.209c-.067-.018-6.796-1.9-12.301-7.403-5.432-5.432-7.368-12.172-7.406-12.306A2.699 2.699 0 0011.703 4z" fill="#c74343"></path></g></svg>