<svg viewBox="0 0 40 40" xmlns="http://www.w3.org/2000/svg"><path fill="#f5ce85" d="M11.5 9.5h17v6h-17z"></path><path d="M28 10v5H12v-5h16m1-1H11v7h18V9z" fill="#967a44"></path><path fill="#f5ce85" d="M5.5 31.5h29v7h-29z"></path><path d="M34 32v6H6v-6h28m1-1H5v8h30v-8z" fill="#967a44"></path><path fill="#f5ce85" d="M8.5 20.5h23v6h-23z"></path><path d="M31 21v5H9v-5h22m1-1H8v7h24v-7z" fill="#967a44"></path><path d="M5 31.5c-2.396 0-3.151-1.161-3.39-1.903.269.028.6.051.973.051 1.559 0 4.327-.418 5.73-3.147h23.373c1.403 2.73 4.172 3.147 5.731 3.147.373 0 .706-.022.975-.051-.235.748-.989 1.903-3.392 1.903H5z" fill="#f78f8f"></path><path d="M31.389 27c1.172 2.036 3.287 3.148 6.029 3.148h.096c-.407.45-1.151.852-2.514.852H5c-1.364 0-2.109-.403-2.515-.853h.097c2.741 0 4.857-1.112 6.029-3.148h22.778M32 26H8c-1.204 2.67-3.751 3.148-5.418 3.148C1.655 29.148 1 29 1 29s.02 3 4 3h30c3.98 0 4-3 4-3s-.655.148-1.582.148c-1.667 0-4.214-.478-5.418-3.148z" fill="#c74343"></path><path d="M8 20.5c-2.396 0-3.151-1.161-3.39-1.903.269.028.6.051.973.051 1.559 0 4.327-.418 5.73-3.147h17.373c1.403 2.73 4.172 3.147 5.731 3.147.373 0 .706-.022.975-.051-.235.748-.989 1.903-3.392 1.903H8z" fill="#f78f8f"></path><path d="M28.389 16c1.172 2.036 3.287 3.148 6.029 3.148h.096c-.407.45-1.151.852-2.514.852H8c-1.364 0-2.109-.403-2.515-.853h.097c2.741 0 4.857-1.112 6.029-3.148h16.778M29 15H11c-1.204 2.67-3.751 3.148-5.418 3.148C4.655 18.148 4 18 4 18s.02 3 4 3h24c3.98 0 4-3 4-3s-.655.148-1.582.148c-1.667 0-4.214-.478-5.418-3.148z" fill="#c74343"></path><path d="M11 9.5c-2.402 0-3.158-1.278-3.395-2.018C11.318 7.273 17.211 5.243 20 2.696c2.833 2.59 8.642 4.587 12.401 4.787C32.174 8.22 31.429 9.5 29 9.5H11z" fill="#f78f8f"></path><path d="M20.001 3.359c2.828 2.355 7.963 4.177 11.648 4.564C31.282 8.452 30.532 9 29 9H11c-1.522 0-2.274-.542-2.644-1.076 3.693-.388 8.828-2.21 11.645-4.565M20 2c-2.573 2.669-9.14 5-13 5 0 0 .146 3 4 3h18c3.89 0 4-3 4-3-3.944 0-10.413-2.331-13-5z" fill="#c74343"></path><circle cx="20" cy="2" r="1" fill="#c74343"></circle><circle cx="32" cy="7" r="1" fill="#c74343"></circle><circle cx="8" cy="7" r="1" fill="#c74343"></circle><circle cx="38" cy="29" r="1" fill="#c74343"></circle><circle cx="35" cy="18" r="1" fill="#c74343"></circle><circle cx="5" cy="18" r="1" fill="#c74343"></circle><g><circle cx="2" cy="29" r="1" fill="#c74343"></circle></g><g><path fill="#967a44" d="M15 22h2v3h-2z"></path></g><g><path fill="#967a44" d="M23 22h2v3h-2z"></path></g><g><path fill="#967a44" d="M15 11h2v3h-2z"></path></g><g><path fill="#967a44" d="M23 11h2v3h-2z"></path></g><g><path fill="#a6714e" d="M15.5 34.5h9v4h-9z"></path><path d="M24 35v3h-8v-3h8m1-1H15v5h10v-5z" fill="#7a4f34"></path></g></svg>