<svg viewBox="0 0 40 40" xmlns="http://www.w3.org/2000/svg"><path d="M18.605 7.029A2.053 2.053 0 0118 5.567c0-.552.215-1.071.605-1.462s.911-.605 1.462-.605c.553 0 1.071.215 1.462.605l13.264 13.264-2.924 2.924L18.605 7.029z" fill="#8da0b5"></path><path d="M20.068 4c.419 0 .812.163 1.108.459l12.91 12.91-2.217 2.217-12.91-12.91a1.558 1.558 0 01-.459-1.108c0-.419.163-.812.459-1.109.296-.296.69-.459 1.109-.459m0-1a2.567 2.567 0 00-1.816 4.383L31.869 21l3.631-3.631L21.883 3.752A2.56 2.56 0 0020.068 3z" fill="#66798f"></path><path d="M5.207 17.369L18.471 4.105c.39-.39.909-.605 1.462-.605.552 0 1.071.215 1.462.605S22 5.016 22 5.567c0 .553-.215 1.071-.605 1.462L8.131 20.293l-2.924-2.924z" fill="#b0c1d4"></path><path d="M19.932 4c.419 0 .812.163 1.108.459.296.296.459.69.459 1.109 0 .419-.163.812-.459 1.108L8.13 19.586l-2.217-2.217 12.91-12.91A1.562 1.562 0 0119.932 4m0-1c-.657 0-1.314.251-1.816.752L4.5 17.369 8.131 21 21.748 7.383A2.567 2.567 0 0019.932 3z" fill="#66798f"></path><path fill="#bae0bd" d="M5.476 36.5l-3.858-18h36.764l-3.858 18z"></path><path d="M37.763 19L34.12 36H5.88L2.237 19h35.526M39 18H1l4.071 19h29.857L39 18z" fill="#5e9c76"></path><g><path fill="#bae0bd" d="M.5 15.5h39v4H.5z"></path><path d="M39 16v3H1v-3h38m1-1H0v5h40v-5z" fill="#5e9c76"></path></g><path fill="none" stroke="#fff" stroke-width="3" stroke-miterlimit="10" d="M13 25.636L18.364 31 27 22.364"></path></svg>