<svg viewBox="0 0 40 40" xmlns="http://www.w3.org/2000/svg"><path fill="#8bb7f0" d="M3.5 37.5v-35h33v25.343L29.739 37.5z"></path><path d="M36 3v24.685L29.48 37H4V3h32m1-1H3v36h27l7-10V2z" fill="#4e7ab5"></path><path d="M17 23v8h-4V8h7c2.589 0 4.574.77 6 2s2 2.806 2 5.041-.512 4.537-2 5.959-3.463 2-6 2h-3zm0-12v9h2.148c1.604 0 3.011-.431 3.769-1.271.771-.854 1.062-2.058 1.062-3.437 0-2.705-1.451-4.292-4.533-4.292H17z" fill="#fff"></path><path d="M31 39.5c-4.687 0-8.5-3.813-8.5-8.5s3.813-8.5 8.5-8.5 8.5 3.813 8.5 8.5-3.813 8.5-8.5 8.5z" fill="#bae0bd"></path><path d="M31 23c4.411 0 8 3.589 8 8s-3.589 8-8 8-8-3.589-8-8 3.589-8 8-8m0-1c-4.971 0-9 4.029-9 9s4.029 9 9 9 9-4.029 9-9-4.029-9-9-9z" fill="#5e9c76"></path><path d="M33 29v-.046A1.954 1.954 0 0031.046 27h-.091c-1.08 0-1.955.875-1.955 1.954v0c0 .873.578 1.639 1.417 1.879l1.165.333A1.955 1.955 0 0133 33.046v0A1.954 1.954 0 0131.046 35h-.091A1.954 1.954 0 0129 33.046V33M31 25v1.5M31 35.5V37" fill="none" stroke="#5e9c76" stroke-width="2" stroke-miterlimit="10"></path></svg>