<svg viewBox="0 0 40 40" xmlns="http://www.w3.org/2000/svg"><path d="M11 38.5A5.506 5.506 0 015.5 33V14.5h29V33c0 3.032-2.467 5.5-5.5 5.5H11z" fill="#dcd5f2"></path><path d="M34 15v18c0 2.757-2.243 5-5 5H11c-2.757 0-5-2.243-5-5V15h28m1-1H5v19a6 6 0 006 6h18a6 6 0 006-6V14z" fill="#8b75a1"></path><path d="M6 15h10v23h-5a5 5 0 01-5-5V15z" fill="#f0edf7"></path><path d="M5.5 14.619V11.5c0-5.523 4.477-10 10-10h9c5.523 0 10 4.477 10 10v3.119" fill="none" stroke="#8b75a1" stroke-miterlimit="10"></path><path d="M6 15.5c-.827 0-1.5-.673-1.5-1.5s.673-1.5 1.5-1.5h28c.827 0 1.5.673 1.5 1.5s-.673 1.5-1.5 1.5H6z" fill="#dcd5f2"></path><path d="M34 13c.551 0 1 .449 1 1s-.449 1-1 1H6c-.551 0-1-.449-1-1s.449-1 1-1h28m0-1H6a2 2 0 100 4h28a2 2 0 100-4z" fill="#8b75a1"></path><g><path fill="#fff" d="M10.5 20.5h19v11h-19z"></path><path d="M29 21v10H11V21h18m1-1H10v12h20V20z" fill="#8b75a1"></path></g></svg>