<svg viewBox="0 0 40 40" xmlns="http://www.w3.org/2000/svg"><path d="M11 38.5A5.507 5.507 0 015.5 33V14.5h29V33c0 3.032-2.468 5.5-5.5 5.5H11z" fill="#dcd5f2"></path><path d="M34 15v18c0 2.757-2.243 5-5 5H11c-2.757 0-5-2.243-5-5V15h28m1-1H5v19a6 6 0 006 6h18a6 6 0 006-6V14z" fill="#8b75a1"></path><path d="M6 15h10v23h-5a5 5 0 01-5-5V15z" fill="#f0edf7"></path><path d="M5.5 14.619V11.5c0-5.523 4.477-10 10-10h9c5.523 0 10 4.477 10 10v3.119" fill="none" stroke="#8b75a1" stroke-miterlimit="10"></path><path d="M6 15.5c-.827 0-1.5-.673-1.5-1.5s.673-1.5 1.5-1.5h28c.827 0 1.5.673 1.5 1.5s-.673 1.5-1.5 1.5H6z" fill="#dcd5f2"></path><path d="M34 13c.551 0 1 .449 1 1s-.449 1-1 1H6c-.551 0-1-.449-1-1s.449-1 1-1h28m0-1H6a2 2 0 100 4h28a2 2 0 100-4z" fill="#8b75a1"></path><g><path d="M24.499 30.5c-.068 0-.138-.003-.207-.01-1.005-.102-1.792-1.038-1.792-2.133V20.5c0-1.103-.897-2-2-2s-2 .897-2 2v.5c0 1.379-1.122 2.5-2.501 2.5l-.134-.003c-1.305-.068-2.365-1.265-2.365-2.667V17a5.497 5.497 0 00-2.341-4.5h17.682A5.497 5.497 0 0026.5 17v11.5c0 .534-.208 1.036-.586 1.414s-.88.586-1.415.586z" fill="#f78f8f"></path><path d="M27.532 13A5.976 5.976 0 0026 17v11.5a1.502 1.502 0 01-1.658 1.492c-.753-.075-1.342-.793-1.342-1.635V20.5c0-1.379-1.121-2.5-2.5-2.5S18 19.121 18 20.5v.5a2.002 2.002 0 01-2.109 1.997C14.848 22.943 14 21.97 14 20.83V17c0-1.535-.58-2.938-1.532-4h15.064M32 12H8a5 5 0 015 5v3.83c0 1.624 1.216 3.081 2.839 3.165A3 3 0 0019 21v-.5a1.5 1.5 0 013 0v7.857c0 1.308.941 2.499 2.242 2.63A2.504 2.504 0 0027 28.5V17a5 5 0 015-5z" fill="#c74343"></path></g></svg>