<svg viewBox="0 0 40 40" xmlns="http://www.w3.org/2000/svg"><path fill="#f2faff" d="M10.5 12.5h19v16h-19z"></path><path d="M29 13v15H11V13h18m1-1H10v17h20V12z" fill="#66798f"></path><path fill="#f2faff" d="M1.5 38.5v-23h6v5h1.618L11 19.559l1.882.941h2.236L17 19.559l1.882.941h2.236L23 19.559l1.882.941h2.236L29 19.559l1.882.941H32.5v-5h6v23z"></path><path d="M38 16v22H2V16h5v5H9.236l.211-.106L11 20.118l1.553.776.211.106H15.236l.211-.106L17 20.118l1.553.776.211.106H21.236l.211-.106L23 20.118l1.553.776.211.106H27.236l.211-.106L29 20.118l1.553.776.211.106H33v-5h5m1-1h-7v5h-1l-2-1-2 1h-2l-2-1-2 1h-2l-2-1-2 1h-2l-2-1-2 1H8v-5H1v24h38V15z" fill="#66798f"></path><path d="M13.5 38.5v-4.1c0-3.137 5.235-6.928 6.5-7.798 1.265.87 6.5 4.661 6.5 7.798v4.1h-13z" fill="#8bb7f0"></path><path d="M19.999 27.208C22.005 28.621 26 31.938 26 34.4V38H14v-3.6c0-2.479 3.926-5.741 5.999-7.192M20 26s-7 4.534-7 8.4V39h14v-4.6c0-3.866-7-8.4-7-8.4z" fill="#4e7ab5"></path><path fill="#66798f" d="M25 20h-3v-3.5l1.5-1.5 1.5 1.5zM18 20h-3v-3.5l1.5-1.5 1.5 1.5z"></path><path fill="#8bb7f0" d="M10.5 12.5v-.307L20 1.743l9.5 10.45v.307z"></path><path d="M20 2.487L28.649 12H11.351L20 2.487M20 1L10 12v1h20v-1L20 1z" fill="#4e7ab5"></path><g><path fill="#66798f" d="M27 29.024l-3-3.049V24h3z"></path></g><g><path fill="#66798f" d="M16 25.975l-3 3.049V24h3z"></path></g><g><path fill="#8bb7f0" d="M32.5 15.429v-.367l3-12 3 12v.367z"></path><path d="M35.5 5.123l2.451 9.805h-4.903L35.5 5.123M35.5 1L32 15v.929h7V15L35.5 1z" fill="#4e7ab5"></path></g><g><path fill="#8bb7f0" d="M1.5 15.429v-.367l3-12 3 12v.367z"></path><path d="M4.5 5.123l2.451 9.805H2.049L4.5 5.123M4.5 1L1 15v.929h7V15L4.5 1z" fill="#4e7ab5"></path></g></svg>