<svg viewBox="0 0 40 40" xmlns="http://www.w3.org/2000/svg"><path fill="#f5c276" d="M27 22v-2M27 25v-2M27 19v-2M27 28v-2M27 16v-2"></path><path fill="#f5ce85" d="M.511 25.5v-.29L6.367 6.5h27.266L39.5 25.21v.29z"></path><path d="M33.266 7l5.645 18H1.1L6.735 7h26.531M34 6H6L.011 25.133V26H40v-.867L34 6z" fill="#967a44"></path><path fill="#f5ce85" d="M35.5 33.5v-4H4.511v4h-4v-8H39.5v8z"></path><path d="M39 26v7h-3v-4H4.011v4h-3v-7H39m1-1H.011v9h5v-4H35v4h5v-9z" fill="#967a44"></path><path fill="none" stroke="#967a44" stroke-miterlimit="10" d="M11.538 6.419L7.416 25.616M17.503 6.364l-2.115 19.469M28.512 6.69l4.121 18.709M22.571 6.779l1.92 19.121"></path></svg>