<svg viewBox="0 0 40 40" xmlns="http://www.w3.org/2000/svg"><path d="M7.269 38.5c3.287-3.212 14.021-14.996 14.229-32h2.001c-.105 17.84-5.846 30.081-6.804 32H7.269z" fill="#a6714e"></path><path d="M22.994 7c-.117 9.722-1.915 17.648-3.432 22.647-1.308 4.311-2.629 7.223-3.179 8.353H8.499c4.015-4.114 13.118-15.156 13.489-31h1.006M24 6h-3C21 26.271 6 39 6 39h11s7-13 7-33z" fill="#7a4f34"></path><path d="M10.937 21.803c-1.483-3.097-2.204-7.301-.178-10.793 1.919-3.308 5.933-5.184 11.658-5.471-2.424 1.939-7.664 6.931-11.48 16.264z" fill="#bae0bd"></path><path d="M20.924 6.156c-2.613 2.354-6.738 6.912-9.992 14.376-1.095-2.829-1.449-6.326.261-9.271 1.657-2.858 4.993-4.597 9.731-5.105M24 5C8 5 7 16 11 23 16 10 24 5 24 5z" fill="#5e9c76"></path><path d="M1.584 14.544C2.138 9.656 5.521 1.5 14.02 1.5c3.825 0 7.023 1.583 8.235 4.005-7.61.098-13.85 1.777-20.671 9.039z" fill="#bae0bd"></path><path d="M14.02 2c3.242 0 6.001 1.173 7.358 3.025-6.781.213-12.79 1.898-19.049 8.045C3.322 8.357 6.689 2 14.02 2m0-1C4.193 1 1 11.398 1 15.929 8 8 14.38 6 23 6c-1-3-4.634-5-8.98-5z" fill="#5e9c76"></path><g><path d="M31.209 21.559c-.773-3.372-3.203-12.068-8.409-16.011 4.961.275 8.211 1.731 9.674 4.337 2.157 3.842-.079 9.298-1.265 11.674z" fill="#bae0bd"></path><path d="M24.292 6.174c3.923.451 6.523 1.775 7.746 3.954 1.728 3.075.448 7.307-.683 9.934-.962-3.659-3.112-10.072-7.063-13.888M21 5c7.464 3.817 10 18 10 18S42 5 21 5z" fill="#5e9c76"></path></g><g><path d="M38.385 12.374c-4.541-5.531-9.88-6.807-16.81-6.872.508-1.745 3.504-4.002 7.12-4.002 6.137 0 9.094 6.386 9.69 10.874z" fill="#bae0bd"></path><path d="M28.695 2c5.069 0 7.853 4.645 8.862 8.69-4.213-4.348-9.096-5.535-15.205-5.676C23.223 3.649 25.633 2 28.695 2m0-1C24.348 1 21 3.965 21 6c7 0 13 1 18 8 0-4.531-3-13-10.305-13z" fill="#5e9c76"></path></g></svg>