<svg viewBox="0 0 40 40" xmlns="http://www.w3.org/2000/svg"><path d="M14.5 24.5v-14c0-1.103.897-2 2-2s2 .897 2 2v9-12c0-1.103.897-2 2-2s2 .897 2 2v12-11c0-1.103.897-2 2-2s2 .897 2 2v11-7c0-1.103.897-2 2-2s2 .897 2 2v12h-16z" fill="#f5ce85"></path><path d="M20.5 6A1.5 1.5 0 0122 7.5V20h1V8.5a1.5 1.5 0 013 0V20h1v-7.5a1.5 1.5 0 013 0V24H15V10.5a1.5 1.5 0 013 0V20h1V7.5A1.5 1.5 0 0120.5 6m0-1A2.503 2.503 0 0018 7.5v1.001A2.491 2.491 0 0016.5 8a2.503 2.503 0 00-2.5 2.5V25h17V12.5c0-1.378-1.122-2.5-2.5-2.5-.562 0-1.082.187-1.5.501V8.5C27 7.122 25.878 6 24.5 6c-.635 0-1.215.238-1.656.629A2.506 2.506 0 0020.5 5z" fill="#967a44"></path><path d="M7.956 24.5l-.142-.262a2.515 2.515 0 01.429-2.995c.479-.479 1.116-.743 1.793-.743s1.314.264 1.793.743l3.257 3.257h-7.13z" fill="#f5ce85"></path><path d="M10.036 21a2.03 2.03 0 011.439.596L13.879 24H8.253a2.03 2.03 0 011.783-3m0-1a3.02 3.02 0 00-2.147.889 3.012 3.012 0 00-.515 3.587l.283.524H16.293l-1.707-1.707-2.404-2.404A3.015 3.015 0 0010.036 20z" fill="#967a44"></path><g fill="#788b9c"><path d="M3 8V3h5V2H2v6zM37 8h1V2h-6v1h5zM37 32v5h-5v1h6v-6zM3 32H2v6h6v-1H3z"></path></g><path d="M8.414 25.707l7.42 7.42A6.275 6.275 0 0020.322 35H25c3.308 0 6-2.692 6-6v-4H7.707l.707.707z" fill="#8bb7f0"></path><path d="M2 24v1h7.121l7.42 7.42A5.301 5.301 0 0020.322 34H25a5 5 0 005-5v-4h8v-1H2z" fill="#c2e8ff"></path></svg>