<svg viewBox="0 0 40 40" xmlns="http://www.w3.org/2000/svg"><path d="M20 37.5C9.972 37.5 1.5 34.065 1.5 30s8.472-7.5 18.5-7.5 18.5 3.435 18.5 7.5-8.472 7.5-18.5 7.5z" fill="#f5ce85"></path><path d="M20 23c8.514 0 18 2.875 18 7s-9.486 7-18 7-18-2.875-18-7 9.486-7 18-7m0-1C9.507 22 1 25.582 1 30s8.507 8 19 8 19-3.582 19-8-8.507-8-19-8z" fill="#967a44"></path><path d="M20 36c-8.163 0-17.196-2.646-17.928-6.5-.032.166-.072.33-.072.5 0 4.125 9.486 7 18 7s18-2.875 18-7c0-.17-.04-.334-.072-.5C37.196 33.354 28.163 36 20 36z" fill="#ffeea3"></path><path d="M20 32.5C9.972 32.5 1.5 29.065 1.5 25s8.472-7.5 18.5-7.5 18.5 3.435 18.5 7.5-8.472 7.5-18.5 7.5z" fill="#f5ce85"></path><path d="M20 18c8.514 0 18 2.875 18 7s-9.486 7-18 7-18-2.875-18-7 9.486-7 18-7m0-1C9.507 17 1 20.582 1 25s8.507 8 19 8 19-3.582 19-8-8.507-8-19-8z" fill="#967a44"></path><path d="M20 31c-8.163 0-17.196-2.646-17.928-6.5-.032.166-.072.33-.072.5 0 4.125 9.486 7 18 7s18-2.875 18-7c0-.17-.04-.334-.072-.5C37.196 28.354 28.163 31 20 31z" fill="#ffeea3"></path><path d="M20 27.5C9.972 27.5 1.5 24.065 1.5 20s8.472-7.5 18.5-7.5 18.5 3.435 18.5 7.5-8.472 7.5-18.5 7.5z" fill="#f5ce85"></path><path d="M20 13c8.514 0 18 2.875 18 7s-9.486 7-18 7-18-2.875-18-7 9.486-7 18-7m0-1C9.507 12 1 15.582 1 20s8.507 8 19 8 19-3.582 19-8-8.507-8-19-8z" fill="#967a44"></path><path d="M20 26c-8.163 0-17.196-2.646-17.928-6.5-.032.166-.072.33-.072.5 0 4.125 9.486 7 18 7s18-2.875 18-7c0-.17-.04-.334-.072-.5C37.196 23.354 28.163 26 20 26z" fill="#ffeea3"></path><path d="M20 22.5C9.972 22.5 1.5 19.065 1.5 15S9.972 7.5 20 7.5s18.5 3.435 18.5 7.5-8.472 7.5-18.5 7.5z" fill="#f5ce85"></path><path d="M20 8c8.514 0 18 2.875 18 7s-9.486 7-18 7-18-2.875-18-7 9.486-7 18-7m0-1C9.507 7 1 10.582 1 15s8.507 8 19 8 19-3.582 19-8-8.507-8-19-8z" fill="#967a44"></path><path d="M20 21c-8.163 0-17.196-2.646-17.928-6.5-.032.166-.072.33-.072.5 0 4.125 9.486 7 18 7s18-2.875 18-7c0-.17-.04-.334-.072-.5C37.196 18.354 28.163 21 20 21z" fill="#ffeea3"></path><path d="M20 17.5C9.972 17.5 1.5 14.065 1.5 10S9.972 2.5 20 2.5 38.5 5.935 38.5 10s-8.472 7.5-18.5 7.5z" fill="#f5ce85"></path><path d="M20 3c8.514 0 18 2.875 18 7s-9.486 7-18 7-18-2.875-18-7 9.486-7 18-7m0-1C9.507 2 1 5.582 1 10s8.507 8 19 8 19-3.582 19-8-8.507-8-19-8z" fill="#967a44"></path><path d="M20 16c-8.163 0-17.196-2.646-17.928-6.5C2.04 9.666 2 9.83 2 10c0 4.125 9.486 7 18 7s18-2.875 18-7c0-.17-.04-.334-.072-.5C37.196 13.354 28.163 16 20 16z" fill="#ffeea3"></path><ellipse cx="30" cy="6.5" rx="1" ry=".5" fill="#967a44"/><ellipse cx="8" cy="7.5" rx="1" ry=".5" fill="#967a44"/><ellipse cx="34" cy="8.5" rx="1" ry=".5" fill="#967a44"/><g><ellipse cx="32" cy="17.5" rx="1" ry=".5" fill="#967a44"/></g><g><ellipse cx="8" cy="21.5" rx="1" ry=".5" fill="#967a44"/></g><g><ellipse cx="12" cy="27.5" rx="1" ry=".5" fill="#967a44"/></g><g><ellipse cx="18" cy="34.5" rx="1" ry=".5" fill="#967a44"/></g><g><path d="M25 29.5c-.827 0-1.5-.673-1.5-1.5V17.361c0-2.454-1.478-3.861-4.055-3.861h-.006c-1.125 0-3.939.005-3.939 2.861V18c0 .827-.673 1.5-1.5 1.5s-1.5-.673-1.5-1.5v-1.876c0-.979.218-1.466.52-2.139.072-.162.147-.33.225-.514.069-.168.153-.346.241-.524l.231-.469-.479-.21c-1.74-.76-2.738-1.77-2.738-2.768 0-1.932 3.817-4 9.5-4s9.5 2.068 9.5 4c0 1.225-1.517 2.459-3.959 3.221l-.577.181.286.533c.183.34.369.707.506 1.036.077.185.152.353.225.515.302.673.52 1.159.52 2.139V28A1.503 1.503 0 0125 29.5z" fill="#ffc49c"></path><path d="M20 6c5.151 0 9 1.848 9 3.5 0 .982-1.416 2.059-3.608 2.744l-1.158.361.575 1.068c.211.391.374.724.485.991.078.188.155.36.229.525.298.662.477 1.062.477 1.935V28c0 .551-.449 1-1 1s-1-.449-1-1V17.361C24 14.63 22.297 13 19.446 13h-.057C18.303 13 15 13 15 16.361V18c0 .551-.449 1-1 1s-1-.449-1-1v-1.876c0-.873.179-1.273.476-1.935.074-.165.151-.337.229-.525a9.17 9.17 0 01.229-.495l.463-.939-.96-.419C11.911 11.143 11 10.279 11 9.5 11 7.848 14.849 6 20 6m0-1c-5.523 0-10 2.015-10 4.5 0 1.266 1.167 2.409 3.037 3.226-.093.189-.182.376-.256.553-.404.973-.781 1.513-.781 2.845V18a2 2 0 104 0v-1.639C16 14.019 18.213 14 19.389 14h.057c3.3 0 3.554 2.355 3.554 3.361V28a2 2 0 104 0V17.124c0-1.332-.377-1.872-.782-2.845a12.598 12.598 0 00-.528-1.081C28.293 12.386 30 11.033 30 9.5 30 7.015 25.523 5 20 5z" fill="#a16a4a"></path></g></svg>