<svg viewBox="0 0 40 40" xmlns="http://www.w3.org/2000/svg"><path d="M38.5 35.235C36.545 34.45 30.621 32.5 20 32.5S3.455 34.45 1.5 35.235V4.765C3.455 5.55 9.379 7.5 20 7.5s16.545-1.95 18.5-2.735v30.47z" fill="#ffc49c"></path><path d="M38 5.487v29.026C35.485 33.609 29.65 32 20 32S4.515 33.609 2 34.513V5.487C4.515 6.391 10.35 8 20 8s15.485-1.609 18-2.513M39 4s-5.954 3-19 3S1 4 1 4v17.421V20v16s5.954-3 19-3 19 3 19 3V4zm0 16v1.421V20z" fill="#a16a4a"></path><path d="M37 6.87v26.26C33.902 32.186 28.346 31 20 31S6.098 32.186 3 33.13V6.87C6.098 7.814 11.654 9 20 9s13.902-1.186 17-2.13m1-1.383C35.485 6.391 29.65 8 20 8S4.515 6.391 2 5.487v29.026C4.515 33.609 10.35 32 20 32s15.485 1.609 18 2.513V5.487z" fill="#fff"></path><circle cx="30.5" cy="13.5" r="2.5" fill="#fff"></circle><path d="M31 21l-8 6 1.639 1.131c5.811.332 9.878 1.242 12.361 1.999v-4.013L31 21z" fill="#a16a4a"></path><path d="M21 18l-8 6 4.655 4.035A84.126 84.126 0 0120 28c6.212 0 10.876.657 14.134 1.382L21 18z" fill="#c2805a"></path><path d="M23.311 28.067L10.083 17.07 3 23.035V30l1.103-.185C7.345 28.942 12.562 28 20 28c1.159 0 2.259.025 3.311.067z" fill="#e09367"></path></svg>