<svg viewBox="0 0 40 40" xmlns="http://www.w3.org/2000/svg"><path fill="#b0c1d4" d="M5.431 38.5l-2.85-19h34.838l-2.85 19z"></path><path d="M36.839 20l-2.7 18H5.861l-2.7-18h33.678M38 19H2l3 20h30l3-20z" fill="#66798f"></path><path d="M32 37c-.256-1.013-8.494-21.384-8.494-25 0-2.449 3.996-4.294 3.996-7 0-1.703-1.215-3.49-6.117-3.49h-2.769c-4.902 0-6.117 1.787-6.117 3.49 0 2.706 4.008 4.551 4.008 7 0 3.616-8.375 24.049-8.631 25.063" fill="none" stroke="#4e7ab5"></path><path fill="#66798f" d="M5 36h30v3H5z"></path></svg>