<svg viewBox="0 0 40 40" xmlns="http://www.w3.org/2000/svg"><path d="M10.5 2.5h27V32c0 3.339-1.935 5.496-4.929 5.496L10.5 37.5v-35z" fill="#fff"></path><path d="M37 3v29c0 3.081-1.697 4.996-4.429 4.996L11 37V3h26m1-1H10v36l22.571-.004C35.57 37.996 38 35.95 38 32V2z" fill="#788b9c"></path><g><path d="M8 37.5a5.509 5.509 0 01-5.5-5.504V29.5h27v3.571c0 2.475 1.015 3.894 3.094 4.304l-.179.125H8z" fill="#e1ebf2"></path><path d="M29 30v3.071c0 1.389.331 2.944 1.56 3.929H8c-2.757 0-5-2.245-5-5.004V30h26m1-1H2v2.996A6.004 6.004 0 008 38h24.572L34 37c-2.393 0-4-.93-4-3.929V29z" fill="#788b9c"></path></g></svg>