<svg viewBox="0 0 40 40" xmlns="http://www.w3.org/2000/svg"><ellipse transform="rotate(-30.579 34.124 31.173)" cx="34.123" cy="31.172" rx="1.243" ry="3.107" fill="#a6714e"/><ellipse transform="rotate(-67.492 28.196 32.88)" cx="28.193" cy="32.878" rx="1.243" ry="2.884" fill="#a6714e"/><ellipse transform="rotate(-89.57 36 37.999)" cx="36" cy="38" rx="1" ry="3" fill="#a6714e"/><path d="M3.595 20.699a2.425 2.425 0 01-1.045-1.551 2.416 2.416 0 01.353-1.833l9.735-14.722A2.438 2.438 0 0114.682 1.5c.479 0 .941.139 1.34.402L36.407 15.49a2.444 2.444 0 01.691 3.384l-3.826 5.788a6.014 6.014 0 00-.685-.041c-1.663 0-2.948.757-3.745 2.198a3.762 3.762 0 00-1.614-.38c-1.461 0-2.688.942-3.156 2.355a2.663 2.663 0 00-.683-.085c-1.494 0-3.155 1.154-3.61 2.805L3.595 20.699z" fill="#ffc49c"></path><path d="M14.682 2c.38 0 .748.11 1.061.317l20.39 13.591a1.945 1.945 0 01.549 2.691l-3.662 5.538a6.366 6.366 0 00-.432-.015c-1.707 0-3.056.712-3.952 2.071a4.15 4.15 0 00-1.408-.253c-1.538 0-2.851.901-3.474 2.29a3.157 3.157 0 00-.366-.02c-1.502 0-3.149.986-3.865 2.534L3.868 20.28a1.926 1.926 0 01-.828-1.232 1.925 1.925 0 01.28-1.458l9.735-14.722A1.941 1.941 0 0114.682 2m0-1c-.957 0-1.897.463-2.461 1.316L2.486 17.038a2.95 2.95 0 00.83 4.076l16.841 11.257c.024-1.818 1.756-3.16 3.231-3.16.369 0 .723.084 1.029.266.254-1.544 1.424-2.536 2.811-2.536.589 0 1.217.179 1.831.571.851-1.957 2.332-2.389 3.529-2.389.339 0 .655.035.927.079l4.001-6.05a2.95 2.95 0 00-.831-4.076L16.297 1.485A2.921 2.921 0 0014.682 1z" fill="#a16a4a"></path><path d="M25.088 18.45s2.266 2.346.152 4.658c-2.111 2.314-4.778-.035-4.778-.035s-1.677 3.259-4.471 1.681c-2.795-1.581-1.441-4.557-1.441-4.557s-3.15-.769-2.98-3.733c.172-2.966 3.886-2.78 3.886-2.78s-.425-3.449 2.632-3.987c3.06-.538 3.843 2.838 3.843 2.838s3.003-1.737 4.606 1.269c1.603 3.005-1.449 4.646-1.449 4.646z" fill="#fff"></path><circle transform="rotate(-28.072 19.498 17.689)" cx="19.499" cy="17.69" fill="#f2d75c" r="3.109"></circle></svg>