<svg viewBox="0 0 40 40" xmlns="http://www.w3.org/2000/svg"><path fill="#ffc49c" d="M3.207 37.5l9.5-9.5L2.5 17.793V3.207l9.5 9.5L22.207 2.5h14.586l-9.5 9.5L37.5 22.207v14.586l-9.5-9.5L17.793 37.5z"></path><path d="M35.586 3l-8.293 8.293-.707.707.707.707L37 22.414v13.172l-8.293-8.293-.707-.707-.707.707L17.586 37H4.414l8.293-8.293.707-.707-.707-.707L3 17.586V4.414l8.293 8.293.707.707.707-.707L22.414 3h13.172M38 2H22L12 12 2 2v16l10 10L2 38h16l10-10 10 10V22L28 12 38 2z" fill="#a16a4a"></path><path d="M12.5 13.178v-.971L22.207 2.5h.797c-1.363 2.004-4.428 7.579-3.635 16.333L12.5 13.178z" fill="#f78f8f"></path><path d="M21.667 3.747c-1.423 2.621-3.238 7.34-2.881 13.959L13 12.942v-.528l8.667-8.667M24 2h-2L12 12v1.414L20 20C18.509 8.378 24 2 24 2z" fill="#c74343"></path><path d="M16.996 37.5c1.363-2.004 4.428-7.579 3.635-16.333l6.869 5.655v.971L17.793 37.5h-.797z" fill="#f78f8f"></path><path d="M21.213 22.294L27 27.058v.528l-8.667 8.667c1.422-2.62 3.238-7.34 2.88-13.959M20 20c1.491 11.622-4 18-4 18h2l10-10v-1.414L20 20z" fill="#c74343"></path><g><path d="M37.5 23.006c-1.781-1.209-6.39-3.763-13.56-3.763-.91 0-1.839.042-2.774.127l5.656-6.87h.971l9.707 9.707v.799z" fill="#f78f8f"></path><path d="M27.586 13l8.674 8.674c-2.396-1.299-6.553-2.931-12.319-2.931-.543 0-1.094.015-1.647.044L27.058 13h.528M28 12h-1.414L20 20a30.987 30.987 0 013.941-.257C33.056 19.743 38 24 38 24v-2L28 12z" fill="#c74343"></path></g><g><path d="M12.207 27.5L2.5 17.793v-.799c1.781 1.209 6.39 3.763 13.56 3.763.91 0 1.839-.042 2.774-.127l-5.656 6.87h-.971z" fill="#f78f8f"></path><path d="M3.74 18.326c2.396 1.299 6.553 2.931 12.319 2.931.543 0 1.094-.015 1.647-.044L12.942 27h-.528L3.74 18.326M2 16v2l10 10h1.414L20 20a30.987 30.987 0 01-3.941.257C6.944 20.257 2 16 2 16z" fill="#c74343"></path></g><g><circle cx="20" cy="20" r="2.5" fill="#fff"></circle><path d="M20 18c1.103 0 2 .897 2 2s-.897 2-2 2-2-.897-2-2 .897-2 2-2m0-1a3 3 0 100 6 3 3 0 000-6z" fill="#c74343"></path></g></svg>