<svg viewBox="0 0 40 40" xmlns="http://www.w3.org/2000/svg"><path fill="#36404d" d="M15 35h17v1H15z"></path><path d="M32.5 33C32.5 18.939 21.061 7.5 7 7.5H5.079c3.69-4.142 8.34-6 14.921-6 9.683 0 18.5 8.817 18.5 18.5 0 7.957-3.719 12.718-6 14.888V33z" fill="#f78f8f"></path><path d="M20 2c9.421 0 18 8.579 18 18 0 6.849-2.812 11.264-5 13.662V33C33 18.664 21.336 7 7 7h-.759C9.704 3.557 14.038 2 20 2m0-1C11.857 1 7.319 3.884 4 8h3c13.855 0 25 11.078 25 25v3c3.157-2.607 7-7.9 7-16 0-9.999-9.001-19-19-19z" fill="#c74343"></path><circle cx="13" cy="27" r="2.5" fill="#ffeea3"></circle><path d="M13 25c1.103 0 2 .897 2 2s-.897 2-2 2-2-.897-2-2 .897-2 2-2m0-1a3 3 0 100 6 3 3 0 100-6z" fill="#ba9b48"></path><path fill="#36404d" d="M4 8h1v17H4z"></path><path d="M33 7l-8 8M30.861 24.947l7.334-2.585M28.597 19.542l8.406-5.586M26 3l-5.484 8.408M17.913 1.43l-2.758 7.76" fill="none" stroke="#c74343" stroke-miterlimit="10"></path><g><path d="M5.633 38.5c-.592 0-1.147-.23-1.565-.648l-1.919-1.919a2.218 2.218 0 010-3.132l2.27-2.269.175-.237.237-.344-.891-.891A1.506 1.506 0 013.5 28v-5c0-.827.673-1.5 1.5-1.5s1.5.673 1.5 1.5v4.379l6.121 6.121H17c.827 0 1.5.673 1.5 1.5s-.673 1.5-1.5 1.5h-5c-.395 0-.781-.16-1.061-.439l-.891-.891-.513.354-2.337 2.327a2.192 2.192 0 01-1.565.649z" fill="#dcd5f2"></path><path d="M5 22c.551 0 1 .449 1 1V27.586l.293.293 5.828 5.828.293.293H17c.551 0 1 .449 1 1s-.449 1-1 1h-5c-.263 0-.521-.107-.707-.293l-.596-.596-.592-.592-.687.479-.168.117-.073.051-.063.063-2.269 2.269c-.324.324-.754.502-1.212.502s-.888-.178-1.212-.502l-1.919-1.919C2.178 35.255 2 34.825 2 34.367s.178-.888.502-1.212l2.269-2.269.063-.063.051-.073.118-.169.479-.687-.592-.592-.596-.596A1 1 0 014 28v-5c0-.551.449-1 1-1m0-1a2 2 0 00-2 2v5a2 2 0 00.586 1.414l.596.596-.118.169-2.269 2.269a2.715 2.715 0 000 3.839l1.919 1.919c.53.529 1.224.794 1.919.794s1.389-.265 1.919-.795l2.269-2.269.169-.118.596.596A2 2 0 0012 37h5a2 2 0 000-4h-4.172L7 27.172V23a2 2 0 00-2-2z" fill="#8b75a1"></path></g></svg>