<svg viewBox="0 0 40 40" xmlns="http://www.w3.org/2000/svg"><circle cx="13.5" cy="11.5" r="6" fill="#e8d47b"></circle><path d="M13.5 6c3.033 0 5.5 2.467 5.5 5.5S16.533 17 13.5 17 8 14.533 8 11.5 10.467 6 13.5 6m0-1a6.5 6.5 0 100 13 6.5 6.5 0 000-13z" fill="#ba9b48"></path><circle cx="28.5" cy="16.5" r="5" fill="#ffeea3"></circle><path d="M28.5 12c2.481 0 4.5 2.019 4.5 4.5S30.981 21 28.5 21 24 18.981 24 16.5s2.019-4.5 4.5-4.5m0-1a5.5 5.5 0 100 11 5.5 5.5 0 100-11z" fill="#ba9b48"></path><g><path d="M2.5 34.5v-5.759c0-5.096 4.935-9.241 11-9.241s11 4.146 11 9.241V34.5h-22z" fill="#8bb7f0"></path><path d="M13.5 20c5.79 0 10.5 3.921 10.5 8.741V34H3v-5.259C3 23.921 7.71 20 13.5 20m0-1C7.149 19 2 23.361 2 28.741V35h23v-6.259C25 23.361 19.851 19 13.5 19z" fill="#4e7ab5"></path></g><g><path d="M19.5 34.5v-2.775c0-4.535 4.038-8.225 9-8.225s9 3.689 9 8.225V34.5h-18z" fill="#c2e8ff"></path><path d="M28.5 24c4.687 0 8.5 3.465 8.5 7.724V34H20v-2.276C20 27.465 23.813 24 28.5 24m0-1c-5.247 0-9.5 3.906-9.5 8.724V35h19v-3.276C38 26.906 33.747 23 28.5 23z" fill="#7496c4"></path></g></svg>