<svg viewBox="0 0 40 40" xmlns="http://www.w3.org/2000/svg"><path fill="#a6714e" d="M24.5 38.5v-.232l3-2V18.5h3v17.768l3 2v.232z"></path><path d="M30 19v17.535l.445.297L32.197 38h-6.394l1.752-1.168.445-.297V19h2m1-1h-4v18l-3 2v1h10v-1l-3-2V18z" fill="#7a4f34"></path><path fill="none" stroke="#967a44" stroke-linecap="round" stroke-miterlimit="10" d="M14.5 38.5l-2-4M2.5 38.5l2-4"></path><path d="M25.761 33.5c-3.495 0-6.245-.815-7.294-1.178l2.559-6.526-.813.081c-.81.08-1.612.121-2.384.121-.284 0-.525-.006-.72-.013l1.699-8.719-.841.318c-.611.232-1.129.394-1.487.494l-1.008-7.789-.644.356a8.07 8.07 0 01-.374.196L10.821 1.71l9.352 2.246a11.58 11.58 0 01-.834 2.035l-.257.489 7.815 3.149c-.235.483-.68 1.31-1.374 2.264l-.314.432 9.993 6.314a22.395 22.395 0 01-2.529 2.262l-.425.327 6.149 6.907c-.558.953-2.904 4.183-9.519 5.141-1.016.15-2.065.224-3.117.224z" fill="#bae0bd"></path><path d="M11.642 2.423l7.887 1.895c-.142.398-.347.897-.634 1.444l-.513.979 1.025.413 6.794 2.738a15.29 15.29 0 01-1.083 1.71l-.629.863.903.571 9.018 5.699a22.844 22.844 0 01-2.044 1.774l-.85.655.714.801 5.548 6.232c-.752 1.128-3.088 3.735-8.972 4.587-.992.143-2.018.216-3.047.216-2.959 0-5.38-.601-6.633-.989l2.067-5.272.596-1.521-1.626.161c-.795.079-1.581.119-2.338.119h-.113l1.414-7.254.344-1.765-1.681.639a17.87 17.87 0 01-.889.312l-.838-6.474-.188-1.457-1.161.641-3.071-7.717M10 1l4.183 10.514s.351-.134.888-.43l.986 7.621s.855-.185 2.088-.653l-1.638 8.398s.486.047 1.318.047c.632 0 1.465-.027 2.436-.124l-2.446 6.24s3.323 1.386 7.943 1.386c1.009 0 2.08-.066 3.191-.227C37.122 32.59 39 28.063 39 28.063l-6.022-6.764c1.961-1.512 2.994-2.763 2.994-2.763l-10.044-6.347c1.158-1.59 1.64-2.826 1.64-2.826l-7.785-3.137c.776-1.481 1.004-2.635 1.004-2.635L10 1z" fill="#5e9c76"></path><g><path fill="#f5ce85" d="M1.5 33.5h14v2h-14z"></path><path d="M15 34v1H2v-1h13m1-1H1v3h15v-3z" fill="#967a44"></path></g></svg>