<svg viewBox="0 0 40 40" xmlns="http://www.w3.org/2000/svg"><path fill="#bae0bd" d="M4.5 37.5v-32h8v-3h23v35z"></path><path d="M35 3v34H5V6h8V3h22m1-1H12v3H4v33h32V2z" fill="#5e9c76"></path><path fill="#bae0bd" d="M3.786 3H16v8H3.786z"></path><path fill="#967a44" d="M6 0h1v5.429H6zM2 0h1v5.429H2z"></path><path d="M4 11.5C2.07 11.5.5 9.93.5 8V3.5h8V8c0 1.93-1.57 3.5-3.5 3.5H4z" fill="#bae0bd"></path><path d="M8 4v4c0 1.654-1.346 3-3 3H4c-1.654 0-3-1.346-3-3V4h7m1-1H0v5a4 4 0 004 4h1a4 4 0 004-4V3z" fill="#5e9c76"></path><g><path d="M17 23v8h-4V8h7c2.589 0 4.574.77 6 2s2 2.806 2 5.041-.512 4.537-2 5.959-3.463 2-6 2h-3zm0-12v9h2.148c1.604 0 3.011-.431 3.769-1.271.771-.854 1.062-2.058 1.062-3.437 0-2.705-1.451-4.292-4.533-4.292H17z" fill="#fff"></path></g></svg>