<svg viewBox="0 0 40 40" xmlns="http://www.w3.org/2000/svg"><path fill="#deb974" d="M1.5 32.5h37v3h-37z"></path><path d="M38 33v2H2v-2h36m1-1H1v4h38v-4z" fill="#967a44"></path><path fill="#f5ce85" d="M1.5 32.5v-.293L5.207 28.5h29.586l3.707 3.707v.293z"></path><path d="M34.586 29l3 3H2.414l3-3h29.172M35 28H5l-4 4v1h38v-1l-4-4z" fill="#967a44"></path><path d="M5.5 28.5V19c0-7.995 6.505-14.5 14.5-14.5S34.5 11.005 34.5 19v9.5h-29z" fill="#dcd5f2"></path><path d="M20 5c7.72 0 14 6.28 14 14v9H6v-9c0-7.72 6.28-14 14-14m0-1C11.716 4 5 10.716 5 19v10h30V19c0-8.284-6.716-15-15-15z" fill="#8b75a1"></path><g><path d="M9.5 28.5V19c0-5.79 4.71-10.5 10.5-10.5S30.5 13.21 30.5 19v9.5h-21z" fill="#cbc4e3"></path><path d="M20 9c5.514 0 10 4.486 10 10v9H10v-9c0-5.514 4.486-10 10-10m0-1C13.925 8 9 12.925 9 19v10h22V19c0-6.075-4.925-11-11-11z" fill="#8b75a1"></path></g><g><path d="M13.5 28.5V19c0-3.584 2.916-6.5 6.5-6.5s6.5 2.916 6.5 6.5v9.5h-13z" fill="#b9b0d6"></path><path d="M20 13c3.308 0 6 2.692 6 6v9H14v-9c0-3.308 2.692-6 6-6m0-1a7 7 0 00-7 7v10h14V19a7 7 0 00-7-7z" fill="#8b75a1"></path></g><g><path d="M17.5 28.5V19c0-1.378 1.122-2.5 2.5-2.5s2.5 1.122 2.5 2.5v9.5h-5z" fill="#a59bc4"></path><path d="M20 17c1.103 0 2 .897 2 2v9h-4v-9c0-1.103.897-2 2-2m0-1a3 3 0 00-3 3v10h6V19a3 3 0 00-3-3z" fill="#8b75a1"></path></g></svg>