<svg viewBox="0 0 40 40" xmlns="http://www.w3.org/2000/svg"><path d="M20 24.929c-4.962 0-9-4.038-9-9s4.038-9 9-9 9 4.038 9 9-4.038 9-9 9z" fill="#bae0bd"></path><path d="M20 7.429c4.687 0 8.5 3.813 8.5 8.5s-3.813 8.5-8.5 8.5-8.5-3.813-8.5-8.5 3.813-8.5 8.5-8.5m0-1a9.5 9.5 0 00-9.5 9.5c0 5.247 4.253 9.5 9.5 9.5s9.5-4.253 9.5-9.5a9.5 9.5 0 00-9.5-9.5z" fill="#5e9c76"></path><path fill="#dbf2ff" d="M10.5 16.5h19v7h-19z"></path><path d="M29 17v6H11v-6h18m1-1H10v8h20v-8z" fill="#7496c4"></path><path fill="#dbf2ff" d="M1.5 23.5h37v15h-37z"></path><path d="M38 24v14H2V24h36m1-1H1v16h38V23z" fill="#7496c4"></path><path d="M15 24h-2v-4a1 1 0 012 0v4zM19 24h-2v-4a1 1 0 012 0v4zM23 24h-2v-4a1 1 0 012 0v4zM27 24h-2v-4a1 1 0 012 0v4zM33.071 34h2v5h-2zM33.071 26h2v5h-2zM29.071 34h2v5h-2zM29.071 26h2v5h-2zM25.071 34h2v5h-2zM25.071 26h2v5h-2zM21.071 34h2v5h-2zM21.071 26h2v5h-2zM17.071 34h2v5h-2zM17.071 26h2v5h-2zM13.071 34h2v5h-2zM13.071 26h2v5h-2zM9.071 34h2v5h-2zM9.071 26h2v5h-2z" fill="#7496c4"></path><g><path fill="#7496c4" d="M5.071 34h2v5h-2z"></path></g><g><path fill="#7496c4" d="M5.071 26h2v5h-2z"></path></g><g><path d="M25.601 5.907c-.55 0-1.125-.227-1.793-.488-.861-.338-1.912-.751-3.308-.833V1.517c1.183.08 2.1.428 2.921.74.744.283 1.447.55 2.194.55.689 0 1.35-.231 2.028-.718v2.772c-.97.923-1.599 1.046-2.042 1.046z" fill="#8bb7f0"></path><path d="M21 2.072c.854.124 1.557.392 2.244.653.788.3 1.533.583 2.371.583.523 0 1.027-.112 1.528-.343v1.679c-.749.671-1.214.765-1.542.765-.455 0-.964-.2-1.61-.454-.798-.315-1.752-.69-2.991-.828V2.072M28.143 1c-.98.98-1.766 1.307-2.528 1.307C24.093 2.307 22.671 1 20 1v4.071c2.714 0 4.093 1.336 5.601 1.336.754 0 1.54-.334 2.542-1.336V1z" fill="#4e7ab5"></path></g></svg>