<svg viewBox="0 0 40 40" xmlns="http://www.w3.org/2000/svg"><path d="M29.962 36.5a5.12 5.12 0 01-2.511-.657l-10.76-6.065 2.975-5.03 15.136 8.531-.452.764c-.897 1.516-2.578 2.457-4.388 2.457z" fill="#8bb7f0"></path><path d="M19.846 25.423l14.265 8.04-.192.325C33.112 35.153 31.596 36 29.962 36a4.63 4.63 0 01-2.266-.592L17.38 29.593l2.466-4.17m-.362-1.352L16 29.963l11.205 6.316a5.604 5.604 0 002.757.721c1.92 0 3.794-.971 4.818-2.703l.712-1.204-16.008-9.022z" fill="#4e7ab5"></path><path fill="none" stroke="#a16a4a" stroke-linecap="round" stroke-miterlimit="10" d="M14.5 35.5V28M10.5 36.5c1-1 3.25-1 3.25-1h2.75"></path><path fill="#ffeea3" stroke="#ba9b48" stroke-miterlimit="10" d="M16.5 37.5V29"></path><path d="M12.5 38.5c1-1.125 3.5-1 3.5-1h2.5" fill="none" stroke="#ba9b48" stroke-linecap="round" stroke-miterlimit="10"></path><circle cx="16.5" cy="29.5" r="3" fill="#f78f8f"></circle><path d="M16.5 27c1.378 0 2.5 1.121 2.5 2.5S17.878 32 16.5 32 14 30.879 14 29.5s1.122-2.5 2.5-2.5m0-1a3.5 3.5 0 100 7 3.5 3.5 0 000-7z" fill="#c74343"></path><path d="M33.831 33.512c-.501 0-.998-.077-1.478-.23l-10.719-3.949-.193.096c-1.433.71-3.264 1.071-5.441 1.071-7.995 0-14.5-6.505-14.5-14.5 0-.142.002-.282.006-.422C1.732 7.683 8.099 1.5 16 1.5l.353.008.105-.006c4.871 0 8.82 3.819 9.033 8.593L13.5 12.593V13c0 5.43 9.164 12.415 15.342 14.474l9.507 3.08a4.903 4.903 0 01-4.518 2.958z" fill="#f78f8f"></path><path d="M16 2c.071 0 .133.002.194.004l.163.004c.043-.001.086-.003.152-.008 4.412.004 8.047 3.387 8.454 7.695l-11.166 2.326-.797.166V13c0 5.844 9.44 12.867 15.692 14.951l8.943 2.897a4.476 4.476 0 01-3.804 2.164c-.449 0-.895-.069-1.283-.192l-10.539-3.882-.404-.149-.386.191C19.854 29.657 18.099 30 16 30 8.28 30 2 23.72 2 16c0-.137.002-.273.006-.409C2.224 7.97 8.371 2 16 2m.5-1c-.054 0-.106.007-.16.008C16.227 1.005 16.125 1 16 1 7.862 1 1.238 7.48 1.006 15.562 1.002 15.708 1 15.854 1 16c0 8.284 6.716 15 15 15 2.537 0 4.35-.473 5.662-1.124l10.539 3.882c.54.172 1.089.254 1.629.254 2.296 0 4.439-1.475 5.17-3.772L29 27c-6-2-15-8.834-15-14l12-2.5A9.5 9.5 0 0016.5 1z" fill="#c74343"></path><path d="M19.875 30.501C15.216 30.5 10.5 27.237 10.5 21c0-.516.035-1.043.105-1.605l4.967-1.365c2.872 3.832 8.003 7.291 11.911 8.924-.811 1.109-3.252 3.495-7.49 3.547h-.118z" fill="#bae0bd"></path><path d="M15.38 18.601c2.81 3.601 7.518 6.843 11.308 8.552-1.001 1.111-3.192 2.805-6.7 2.848l-.113.001C15.465 30.001 11 26.909 11 21c0-.393.021-.793.064-1.213l4.316-1.186m.392-1.145L10.155 19A13.741 13.741 0 0010 21c0 6.445 4.939 10.001 9.875 10.001L20 31c5.125-.063 7.813-3.375 8.218-4.29-4.273-1.644-9.697-5.419-12.446-9.254z" fill="#5e9c76"></path><path d="M17.75 26.5c-6.308 0-7.25-4.072-7.25-6.5v-1.18l5.211-.61c1.633 2.115 4.157 4.344 7.012 6.194-.626.876-2.593 2.096-4.973 2.096z" fill="#ffeea3"></path><path d="M15.491 18.739c1.586 1.992 3.845 4.003 6.477 5.766-.739.67-2.281 1.495-4.218 1.495-5.873 0-6.75-3.759-6.75-6v-.735l4.491-.526m.446-1.059L10 18.375V20c0 3 1.441 7 7.75 7 2.851 0 5.25-1.625 5.626-2.772-2.878-1.812-5.66-4.159-7.439-6.548z" fill="#ba9b48"></path><path d="M14.505 21.5c-3.629 0-3.981-2.343-4.002-3.061a7.13 7.13 0 01.076-1.241c.169-1.146.618-2.389 1.335-3.698h1.609c.252 2.642 2.437 5.285 4.463 7.205a7.794 7.794 0 01-3.481.795z" fill="#f78f8f"></path><path d="M13.087 14c.411 2.398 2.207 4.731 4.018 6.544a7.475 7.475 0 01-2.6.456c-2.98 0-3.474-1.614-3.503-2.576a6.605 6.605 0 01.071-1.153c.149-1.012.532-2.111 1.14-3.271h.874M14 13h-2.379c-.716 1.256-1.322 2.667-1.537 4.125a7.48 7.48 0 00-.081 1.329c.021.702.355 3.546 4.502 3.546 1.993 0 3.511-.663 4.32-1.201C16.045 18.287 14 15.457 14 13z" fill="#c74343"></path><g><path fill="#f78f8f" d="M7 12h6.071v5H7z"></path></g><g><path d="M18.8 16.5c-3.474 0-6.3-2.691-6.3-6 0-3.364 3.265-6 7.433-6h1.133c.146 0 .291.008.434.02V16.5h-2.7z" fill="#fff"></path><path d="M21 5v11h-2.2c-3.198 0-5.8-2.467-5.8-5.5C13 7.416 16.045 5 19.933 5H21m.067-1h-1.133C15.4 4 12 6.91 12 10.5s3.044 6.5 6.8 6.5H22V4.071A7.758 7.758 0 0021.067 4z" fill="#788b9c"></path></g><g><path d="M18.8 16.5a6.509 6.509 0 01-1.992-.31l4.46-6.69h.232v7h-2.7z" fill="#ffc49c"></path><path d="M21 10.803V16h-2.2c-.402 0-.798-.039-1.187-.117L21 10.803M22 9h-1l-4.958 7.438A7.024 7.024 0 0018.8 17H22V9z" fill="#a16a4a"></path></g><circle cx="18" cy="8" r="1" fill="#36404d"></circle><g><path d="M21.5 4.521c3.352.276 6 3.301 6 6.979s-2.648 6.704-6 6.979V4.521z" fill="#ffeea3"></path><path d="M22 5.09c2.834.517 5 3.195 5 6.41s-2.166 5.892-5 6.41V5.09M21 4v15c3.866 0 7-3.358 7-7.5C28 7.358 24.866 4 21 4z" fill="#ba9b48"></path></g></svg>