<svg viewBox="0 0 40 40" xmlns="http://www.w3.org/2000/svg"><path d="M6.364 37.5a.876.876 0 01-.864-.885V3.385c0-.488.388-.885.864-.885H16.54a3.14 3.14 0 00-.04.5c0 1.93 1.57 3.5 3.5 3.5s3.5-1.57 3.5-3.5a3.14 3.14 0 00-.04-.5h10.176c.476 0 .864.397.864.885v33.23a.876.876 0 01-.864.885H6.364z" fill="#f5c276"></path><path d="M33.636 3c.201 0 .364.173.364.385v33.231a.375.375 0 01-.364.384H6.364A.375.375 0 016 36.615V3.385C6 3.173 6.163 3 6.364 3H16c0 2.206 1.794 4 4 4s4-1.794 4-4h9.636m0-1h-10.82c.112.314.184.647.184 1a3 3 0 11-6 0c0-.353.072-.686.184-1H6.364C5.611 2 5 2.62 5 3.385v33.231C5 37.38 5.611 38 6.364 38h27.273c.752 0 1.363-.62 1.363-1.385V3.385C35 2.62 34.389 2 33.636 2z" fill="#c29653"></path><path fill="#fff" d="M8 5h24v30H8z"></path><path fill="none" stroke="#c5d4de" stroke-miterlimit="10" d="M24 13.5h5M24 17.5h5M24 21.5h5M11 25.5h18M11 29.5h18"></path><path d="M22.289 2a2.5 2.5 0 01-1.67 3.426A2.505 2.505 0 0117.5 3c0-.356.077-.693.211-1H13v4a2 2 0 002 2h10a2 2 0 002-2V2h-4.711z" fill="#66798f"></path><path d="M20 1c1.103 0 2 .897 2 2s-.897 2-2 2-2-.897-2-2 .897-2 2-2m0-1a3 3 0 100 6 3 3 0 000-6z" fill="#66798f"></path><circle cx="16" cy="14" r="2.5" fill="#ffeea3"></circle><path d="M16 12c1.103 0 2 .897 2 2s-.897 2-2 2-2-.897-2-2 .897-2 2-2m0-1a3 3 0 100 6 3 3 0 000-6z" fill="#ba9b48"></path><g><path d="M11.528 21.5c.25-2.247 2.16-4 4.472-4a4.506 4.506 0 014.472 4h-8.944z" fill="#c2e8ff"></path><path d="M16 18a4.007 4.007 0 013.873 3h-7.747A4.01 4.01 0 0116 18m0-1a5 5 0 00-5 5h10a5 5 0 00-5-5z" fill="#7496c4"></path></g></svg>