<svg viewBox="0 0 40 40" xmlns="http://www.w3.org/2000/svg"><path d="M8.628 17.862l-.203-.046a6.288 6.288 0 01-.477-.123l-.198-.061-2.278 1.211-.09-2.59-.152-.142a6.451 6.451 0 01-.341-.341l-.142-.152-2.59-.09 1.211-2.279-.062-.199a6.795 6.795 0 01-.122-.477l-.046-.203L.943 11l2.195-1.372.046-.203c.037-.161.074-.321.122-.477l.062-.198-1.211-2.278 2.59-.09.142-.152c.109-.118.223-.231.341-.341l.152-.142.09-2.59L7.75 4.368l.199-.062c.156-.048.316-.085.477-.122l.203-.046L10 1.943l1.372 2.195.203.046c.161.037.321.074.477.122l.199.062 2.279-1.211.09 2.59.152.142c.118.109.231.223.341.341l.142.152 2.59.09-1.213 2.278.062.199c.048.156.085.316.122.477l.046.203L19.057 11l-2.195 1.372-.046.203a6.795 6.795 0 01-.122.477l-.062.199 1.211 2.279-2.59.09-.142.152a6.451 6.451 0 01-.341.341l-.152.142-.09 2.59-2.278-1.211-.199.061c-.156.048-.316.085-.477.123l-.203.046L10 20.057l-1.372-2.195z" fill="#ffeea3"></path><path d="M10 2.887l.838 1.34.22.352.404.093c.149.034.299.069.444.113l.396.121.366-.195 1.389-.738.055 1.584.014.413.302.282c.11.102.215.208.318.318l.282.302.413.014 1.584.055-.738 1.389-.195.366.121.396c.045.145.079.295.114.444l.093.404.352.22 1.341.84-1.34.838-.352.22-.093.404a6.555 6.555 0 01-.113.444l-.121.396.195.366.738 1.389-1.584.055-.413.014-.282.302c-.102.11-.208.215-.318.318l-.302.282-.014.413-.055 1.584-1.389-.738-.366-.195-.396.121c-.145.045-.295.079-.444.114l-.404.093-.22.352-.84 1.341-.838-1.34-.22-.352-.404-.093a5.89 5.89 0 01-.444-.114l-.396-.121-.366.195-1.389.738-.055-1.584-.014-.413-.302-.282a6.358 6.358 0 01-.318-.318l-.282-.302-.413-.014-1.584-.055.738-1.389.195-.366-.121-.396a6.555 6.555 0 01-.113-.444l-.093-.404-.352-.22L1.887 11l1.34-.838.352-.22.093-.404a5.89 5.89 0 01.114-.444l.121-.396-.195-.366-.738-1.389 1.584-.055.413-.014.282-.302c.102-.11.208-.215.318-.318l.302-.282.014-.413.055-1.584 1.389.738.366.195.396-.121c.147-.046.296-.081.445-.115l.404-.093.22-.352.838-1.34M10 1L8.314 3.697c-.173.04-.345.08-.513.132L5 2.34l-.111 3.182c-.127.118-.249.24-.367.367L1.34 6l1.489 2.802c-.051.168-.092.34-.132.513L0 11l2.697 1.686c.04.173.08.345.132.513L1.34 16l3.183.111c.118.126.24.248.366.366L5 19.66l2.801-1.489c.168.051.34.092.513.132L10 21l1.686-2.697c.173-.04.345-.08.513-.132L15 19.66l.111-3.183c.126-.118.248-.24.366-.366L18.66 16l-1.489-2.802c.051-.168.092-.34.132-.513L20 11l-2.697-1.686a7.271 7.271 0 00-.132-.513L18.66 6l-3.183-.111a7.896 7.896 0 00-.366-.366L15 2.34l-2.802 1.489a7.863 7.863 0 00-.513-.132L10 1z" fill="#c29653"></path><circle cx="10" cy="11" r="5" fill="#f5ce85"></circle><path d="M8 30.5A5.506 5.506 0 012.5 25c0-2.33 1.48-4.414 3.683-5.186l.352-.123s-.034-.627-.034-.691c0-3.584 2.916-6.5 6.5-6.5h.441l.123-.435A7.503 7.503 0 0121 5.5a7.52 7.52 0 016.509 3.785l.161.281.322-.032a6.84 6.84 0 017.508 6.799c0 .143-.011.284-.021.425l-.023.327.286.214A6.985 6.985 0 0139.5 23.5c0 3.669-2.87 6.733-6.533 6.976l-.367.024H8z" fill="#e1ebf2"></path><path d="M21 6a7.02 7.02 0 016.075 3.533l.321.562.644-.063A6.34 6.34 0 0135 16.333c0 .132-.01.261-.019.39l-.004.062-.046.653.58.304A6.487 6.487 0 0139 23.5c0 3.407-2.664 6.252-6.066 6.477l-.247.023H8c-2.757 0-5-2.243-5-5a5.003 5.003 0 013.348-4.714l.704-.247-.036-.745-.008-.137A2.037 2.037 0 017 19c0-3.308 2.692-6 5.962-6.001l.064.004h.031l.893.01.11-.886A7.004 7.004 0 0121 6m0-1c-4.08 0-7.44 3.057-7.931 7.003L13 12a7 7 0 00-7 7c0 .116.012.228.017.342A5.998 5.998 0 008 31h25v-.025c3.908-.258 7-3.501 7-7.475a7.496 7.496 0 00-4.026-6.644c.012-.173.026-.346.026-.523a7.333 7.333 0 00-8.057-7.297A7.99 7.99 0 0021 5z" fill="#b0c1d4"></path><path d="M6.679 21.23l.704-.247.704-.247-.036-.745-.037-.757-.01-.168L8 19c0-2.747 2.21-4.984 4.932-5.001l.031.002.057.002h.026l.893.01.893.01.11-.886.11-.886A6.003 6.003 0 0121 7V6a7.002 7.002 0 00-6.939 6.127l-.11.886-.893-.01h-.031l-.064-.004C9.692 13 7 15.692 7 19c0 .053.004.105.008.157l.008.137.036.745-.704.247A5.004 5.004 0 003 25h1a4.004 4.004 0 012.679-3.77z" fill="#fff"></path><path d="M11.5 38.5c-1.103 0-2-.897-2-2 0-1.484 1.95-3.506 3.197-4.599.285 1.25.803 3.648.803 4.599 0 1.103-.897 2-2 2z" fill="#8bb7f0"></path><path d="M12.397 32.852c.289 1.333.603 2.956.603 3.648 0 .827-.673 1.5-1.5 1.5s-1.5-.673-1.5-1.5c0-.978 1.177-2.469 2.397-3.648M13 31s-4 3.104-4 5.5a2.5 2.5 0 105 0c0-1.381-1-5.5-1-5.5z" fill="#4e7ab5"></path><g><path d="M20.5 31.5c-1.103 0-2-.897-2-2 0-1.484 1.95-3.506 3.197-4.599.285 1.25.803 3.648.803 4.599 0 1.103-.897 2-2 2z" fill="#8bb7f0"></path><path d="M21.397 25.852c.289 1.333.603 2.956.603 3.648 0 .827-.673 1.5-1.5 1.5s-1.5-.673-1.5-1.5c0-.978 1.177-2.469 2.397-3.648M22 24s-4 3.104-4 5.5a2.5 2.5 0 105 0c0-1.381-1-5.5-1-5.5z" fill="#4e7ab5"></path></g><g><path d="M27.5 38.5c-1.103 0-2-.897-2-2 0-1.484 1.95-3.506 3.197-4.599.285 1.25.803 3.648.803 4.599 0 1.103-.897 2-2 2z" fill="#8bb7f0"></path><path d="M28.397 32.852c.289 1.333.603 2.956.603 3.648 0 .827-.673 1.5-1.5 1.5s-1.5-.673-1.5-1.5c0-.978 1.177-2.469 2.397-3.648M29 31s-4 3.104-4 5.5a2.5 2.5 0 105 0c0-1.381-1-5.5-1-5.5z" fill="#4e7ab5"></path></g></svg>