<svg viewBox="0 0 40 40" xmlns="http://www.w3.org/2000/svg"><path fill="#dcd5f2" d="M3.455 2.65l5.749 1.642-6.57 9.856z"></path><path d="M3.91 3.3l4.498 1.285-5.141 7.711L3.91 3.3M3 2L2 16l8-12-7-2z" fill="#8b75a1"></path><path fill="#dcd5f2" d="M19.5 9.904l-1.693-4.233 4.404.881L24.5 3.5v4.667l2.314 3.086-3.884-.777-3.43 1.715z"></path><path d="M24 5v3.333l.2.267 1.43 1.906-2.433-.487-.337-.067-.307.153L20 11.382V9.807l-.072-.179-1.314-3.286 3.19.638.618.124.378-.504L24 5m1-3l-3 4-5-1 2 5v3l4-2 5 1-3-4V2z" fill="#8b75a1"></path><path fill="#8bb7f0" d="M12.078 30.422l-6.252 2.68 2.776-8.324-4.31-2.586 7.07-1.767L14 14.27l2.653 6.19 7.583.949L22.441 25l2.604 5.207-6.368-1.819-1.925 5.774z"></path><path d="M14 15.539l2.081 4.855.226.527.569.071 6.598.825-1.368 2.736-.224.447.224.447 1.983 3.967-4.814-1.375-.921-.263-.303.908-1.547 4.639-3.88-3.104-.468-.374-.551.236-4.953 2.123 2.296-6.887.254-.761-.688-.413-2.93-1.758 5.658-1.414.481-.12.195-.456L14 15.539M14 13l-3 7-8 2 5 3-3 9 7-3 5 4 2-6 7 2-3-6 2-4-8-1-3-7z" fill="#4e7ab5"></path><g><path fill="#dbf2ff" d="M30.554 21.847l.858-3.435 3.435-.858 2.599 2.599-.858 3.435-3.435.858z"></path><path d="M34.693 18.107l2.199 2.199-.717 2.869-2.869.717-2.199-2.199.717-2.869 2.869-.717M35 17l-4 1-1 4 3 3 4-1 1-4-3-3z" fill="#7496c4"></path></g><g><path fill="#dbf2ff" d="M29.695 5.273l6.464-2.424-3.231 8.888z"></path><path d="M35.318 3.699l-2.464 6.775-2.464-4.927 4.928-1.848M37 2l-8 3 4 8 4-11z" fill="#7496c4"></path></g><g><path fill="#b0c1d4" d="M29.194 35.729l6.503-4.877 1.626 6.503z"></path><path d="M35.395 31.704l1.251 5.006-6.257-1.251 5.006-3.755M36 30l-8 6 10 2-2-8z" fill="#66798f"></path></g></svg>