<svg viewBox="0 0 40 40" xmlns="http://www.w3.org/2000/svg"><path d="M9.5 19.5c-4.962 0-9-4.038-9-9 0-4.879 3.903-8.865 8.751-8.997A7.462 7.462 0 005.5 8c0 4.136 3.364 7.5 7.5 7.5a7.453 7.453 0 004.92-1.842C16.63 17.096 13.303 19.5 9.5 19.5z" fill="#ffeea3"></path><path d="M7.422 2.257A7.968 7.968 0 005 8c0 4.411 3.589 8 8 8 1.28 0 2.511-.301 3.611-.859A8.511 8.511 0 019.5 19C4.813 19 1 15.187 1 10.5c0-3.97 2.737-7.314 6.422-8.243M9.5 1C4.253 1 0 5.253 0 10.5S4.253 20 9.5 20c4.825 0 8.801-3.601 9.41-8.26A6.988 6.988 0 0113 15a6.996 6.996 0 01-1.6-13.809A9.514 9.514 0 009.5 1z" fill="#f5c276"></path><path fill="#ffeea3" d="M31.883 8.201l-1.815-.605 1.815-.604.604-1.815.605 1.815 1.814.604-1.814.605-.605 1.814z"></path><path d="M32.488 6.758l.051.154.158.474.474.158.154.051-.154.051-.474.158-.158.476-.051.154-.052-.154-.158-.474-.474-.158-.154-.052.154-.051.474-.158.158-.474.052-.155m0-3.162l-1 3-3 1 3 1 1 3 1-3 3-1-3-1-1-3z" fill="#f5c276"></path><path fill="#ffeea3" d="M24.258 4.73l-.689-.23.689-.229.23-.69.229.69.69.229-.69.23-.229.689z"></path><path fill="#f5c276" d="M24.488 2l-.625 1.875-1.875.625 1.875.625L24.488 7l.625-1.875 1.875-.625-1.875-.625L24.488 2z"></path><g><path d="M7 35.5A6.508 6.508 0 01.5 29a6.529 6.529 0 013.73-5.873l.272-.128.014-.301A6.483 6.483 0 0111 16.5c.298 0 .61.026.981.082l.513.078.059-.515A7.488 7.488 0 0120 9.5c2.697 0 5.2 1.464 6.531 3.82l.166.293.334-.043c.318-.042.64-.07.969-.07 4.136 0 7.5 3.364 7.5 7.5v.289l.246.221A7.523 7.523 0 0139.5 28c0 4.136-3.364 7.5-7.5 7.5H7z" fill="#dcd5f2"></path><path d="M20 10a7.014 7.014 0 016.095 3.566l.331.586.668-.086c.349-.045.636-.066.906-.066 3.86 0 7 3.14 7.001 6.967l-.004.069v.032l-.006.583.505.292A7.023 7.023 0 0139 28c0 3.86-3.14 7-7 7H7c-3.308 0-6-2.692-6-6a6.028 6.028 0 013.444-5.421l.544-.257.028-.601A5.984 5.984 0 0111 17c.273 0 .561.024.906.077l1.026.156.117-1.031A6.99 6.99 0 0120 10m0-1c-4.109 0-7.491 3.1-7.944 7.088A7.074 7.074 0 0011 16c-3.756 0-6.813 2.961-6.984 6.675A6.995 6.995 0 007 36h25a8 8 0 008-8 7.99 7.99 0 00-4.004-6.923c0-.026.004-.051.004-.077a8 8 0 00-8-8c-.351 0-.695.03-1.034.074A7.994 7.994 0 0020 9z" fill="#a693bc"></path></g><path d="M20 10a6.99 6.99 0 00-6.951 6.201l-.117 1.031-1.026-.156A6.001 6.001 0 0011 17a5.985 5.985 0 00-5.985 5.721l-.028.601-.544.257A6.029 6.029 0 001 29h1a5.022 5.022 0 012.871-4.517l.544-.257.544-.257.028-.601.028-.601A4.985 4.985 0 0111 18c.222 0 .462.021.756.065l1.026.156 1.026.156.117-1.031.117-1.031A5.99 5.99 0 0120 11v-1z" fill="#f7f5ff"></path></svg>