<svg viewBox="0 0 40 40" xmlns="http://www.w3.org/2000/svg"><path d="M20 25.992c0 2.032-.5 3.161-.5 4.508 0 1.559 1 2.902 1 4.5s-1 3.5-1 3.5" fill="none" stroke="#788b9c" stroke-linecap="round" stroke-miterlimit="10"></path><path d="M20 26.5c-5.695 0-10.5-9.055-10.5-14.741C9.5 6.102 14.21 1.5 20 1.5s10.5 4.602 10.5 10.259C30.5 17.445 25.695 26.5 20 26.5z" fill="#8bb7f0"></path><path d="M20 2c5.514 0 10 4.378 10 9.759 0 2.787-1.201 6.439-3.061 9.305C24.903 24.201 22.374 26 20 26s-4.903-1.799-6.939-4.937C11.201 18.198 10 14.546 10 11.759 10 6.378 14.486 2 20 2m0-1C13.925 1 9 5.817 9 11.759S13.925 27 20 27s11-9.3 11-15.241S26.075 1 20 1z" fill="#4e7ab5"></path><g><path fill="#4e7ab5" d="M22 29h-4l.8-2.4h2.4z"></path></g></svg>