<svg viewBox="0 0 40 40" xmlns="http://www.w3.org/2000/svg"><path fill="#ffeea3" d="M5.743 38.5L20 3.507 34.257 38.5z"></path><path d="M20 4.832L33.513 38H6.487L20 4.832m0-2.65L5 39h30L20 2.182z" fill="#ba9b48"></path><circle cx="20" cy="4" r="2.5" fill="#f78f8f"></circle><path d="M20 2c1.103 0 2 .897 2 2s-.897 2-2 2-2-.897-2-2 .897-2 2-2m0-1a3 3 0 100 6 3 3 0 000-6z" fill="#c74343"></path><g><path fill="#f78f8f" d="M25.243 38.5L8.229 32.399l1.745-4.281 23.483 8.421.8 1.961z"></path><path d="M10.256 28.75l22.823 8.183.434 1.067H25.33L8.889 32.105l1.367-3.355m-.565-1.265l-2.122 5.208L25.156 39H35l-1.164-2.857-24.145-8.658z" fill="#c74343"></path><path fill="#f78f8f" d="M12.122 22.844l1.744-4.282 14.366 5.151 2.341 5.747z"></path><path d="M14.149 19.194l13.705 4.914 1.834 4.502-16.906-6.062 1.367-3.354m-.565-1.264l-2.122 5.209 19.997 7.17-2.848-6.991-15.027-5.388z" fill="#c74343"></path><g><path fill="#f78f8f" d="M16.016 13.288l1.744-4.282 5.247 1.882 2.342 5.747z"></path><path d="M18.042 9.639l4.587 1.645 1.834 4.502-7.788-2.792 1.367-3.355m-.565-1.265l-2.122 5.209 10.879 3.901-2.848-6.991-5.909-2.119z" fill="#c74343"></path></g></g></svg>