<svg viewBox="0 0 40 40" xmlns="http://www.w3.org/2000/svg"><path d="M8.628 17.862l-.202-.046c-.16-.037-.32-.074-.477-.123l-.198-.061-2.279 1.211-.091-2.591-.152-.142a6.854 6.854 0 01-.341-.341l-.141-.151-2.59-.09 1.211-2.279-.062-.199a6.14 6.14 0 01-.122-.476l-.046-.203L.943 11l2.194-1.371.047-.202c.037-.161.074-.322.122-.478l.062-.199-1.211-2.278 2.59-.09.141-.152c.11-.118.223-.231.341-.341l.152-.142.091-2.591 2.279 1.211.198-.061c.156-.048.316-.085.477-.123l.202-.046L10 1.943l1.372 2.195.202.046c.16.037.32.074.477.123l.198.061 2.279-1.211.091 2.591.152.142c.118.109.23.223.341.341l.141.151 2.59.09-1.211 2.278.062.199c.048.156.085.317.122.478l.047.202L19.057 11l-2.195 1.372-.046.203c-.036.16-.074.32-.122.476l-.062.199 1.211 2.279-2.59.09-.141.151c-.11.118-.223.231-.341.341l-.152.142-.091 2.591-2.279-1.211-.198.061c-.156.048-.316.085-.477.123l-.202.046L10 20.057l-1.372-2.195z" fill="#ffeea3"></path><path d="M10 2.887l.838 1.34.22.352.404.093c.149.034.299.069.444.113l.396.121.366-.195 1.389-.738.055 1.584.014.413.302.282c.11.102.215.208.318.318l.282.302.414.014 1.584.055-.738 1.389-.195.366.121.396c.044.145.079.295.114.444l.093.404.352.22 1.34.84-1.34.838-.352.22-.093.404a6.555 6.555 0 01-.113.444l-.121.396.195.366.738 1.389-1.584.055-.414.014-.282.302c-.102.11-.208.215-.318.318l-.302.282-.014.413-.055 1.584-1.389-.738-.366-.195-.396.121c-.145.045-.295.079-.444.114l-.404.093-.22.352L10 19.113l-.838-1.34-.22-.352-.404-.093a5.89 5.89 0 01-.444-.114l-.396-.121-.366.195-1.389.738-.055-1.584-.014-.413-.302-.282a6.358 6.358 0 01-.318-.318l-.282-.302-.414-.014-1.584-.055.738-1.389.195-.366-.121-.396a6.555 6.555 0 01-.113-.444l-.093-.404-.352-.22L1.887 11l1.34-.838.352-.22.093-.404a5.89 5.89 0 01.114-.444l.121-.396-.195-.366-.738-1.389 1.584-.055.414-.014.282-.302c.102-.11.208-.215.318-.318l.302-.282.014-.413.055-1.584 1.389.738.366.195.396-.121c.146-.046.295-.081.444-.115l.404-.093.22-.352.838-1.34M10 1L8.314 3.697c-.173.04-.345.08-.513.132L5 2.34l-.111 3.182c-.127.118-.249.24-.367.367L1.34 6l1.489 2.802c-.051.168-.092.34-.132.513L0 11l2.697 1.686c.04.173.08.345.132.513L1.34 16l3.183.111c.118.126.24.248.366.366L5 19.66l2.801-1.489c.168.051.34.092.513.132L10 21l1.686-2.697c.173-.04.345-.08.513-.132L15 19.66l.111-3.183c.126-.118.248-.24.366-.366L18.66 16l-1.489-2.802c.051-.168.092-.34.132-.513L20 11l-2.697-1.686a7.271 7.271 0 00-.132-.513L18.66 6l-3.183-.111a7.896 7.896 0 00-.366-.366L15 2.34l-2.802 1.489a7.863 7.863 0 00-.513-.132L10 1z" fill="#c29653"></path><circle cx="10" cy="11" r="5" fill="#f5ce85"></circle><path d="M7 35.5A6.508 6.508 0 01.5 29a6.529 6.529 0 013.73-5.873l.271-.128.014-.301A6.485 6.485 0 0111 16.5c.299 0 .61.026.98.082l.514.078.059-.516A7.487 7.487 0 0120 9.5c2.698 0 5.2 1.464 6.53 3.82l.166.293.334-.043c.318-.042.64-.07.97-.07 4.136 0 7.5 3.364 7.5 7.5v.289l.246.221A7.524 7.524 0 0139.5 28c0 4.136-3.364 7.5-7.5 7.5H7z" fill="#e1ebf2"></path><path d="M20 10a7.014 7.014 0 016.095 3.566l.331.586.668-.086c.349-.045.636-.066.906-.066 3.86 0 7 3.14 7.001 6.967l-.004.069v.032l-.006.583.505.292A7.023 7.023 0 0139 28c0 3.86-3.14 7-7 7H7c-3.308 0-6-2.692-6-6a6.028 6.028 0 013.444-5.421l.544-.257.028-.601A5.984 5.984 0 0111 17c.273 0 .561.024.906.077l1.026.156.117-1.031A6.99 6.99 0 0120 10m0-1c-4.109 0-7.491 3.1-7.944 7.088A7.074 7.074 0 0011 16c-3.756 0-6.813 2.961-6.984 6.675A6.995 6.995 0 007 36h25a8 8 0 008-8 7.99 7.99 0 00-4.004-6.923c0-.026.004-.051.004-.077a8 8 0 00-8-8c-.351 0-.695.03-1.034.074A7.994 7.994 0 0020 9z" fill="#b0c1d4"></path><path d="M20 10a6.99 6.99 0 00-6.951 6.201l-.117 1.031-1.026-.156A6.001 6.001 0 0011 17a5.985 5.985 0 00-5.985 5.721l-.028.601-.544.257A6.029 6.029 0 001 29h1a5.022 5.022 0 012.871-4.517l.544-.257.544-.257.028-.601.028-.601A4.985 4.985 0 0111 18c.222 0 .462.021.756.065l1.026.156 1.026.156.117-1.031.117-1.031A5.99 5.99 0 0120 11v-1z" fill="#fff"></path></svg>