<svg viewBox="0 0 40 40" xmlns="http://www.w3.org/2000/svg"><path fill="#e1ebf2" d="M1.5 11.5h36v18h-36z"></path><path d="M37 12v17H2V12h35m1-1H1v19h37V11z" fill="#788b9c"></path><circle cx="19.5" cy="20.5" r="2.5" fill="#36404d"></circle><circle cx="9.5" cy="20.5" r="2.5" fill="#36404d"></circle><circle cx="29.5" cy="20.5" r="2.5" fill="#36404d"></circle><circle cx="31" cy="31" r="8.5" fill="#bae0bd"></circle><path d="M31 23c4.411 0 8 3.589 8 8s-3.589 8-8 8-8-3.589-8-8 3.589-8 8-8m0-1c-4.971 0-9 4.029-9 9s4.029 9 9 9 9-4.029 9-9-4.029-9-9-9z" fill="#5e9c76"></path><path fill="none" stroke="#fff" stroke-width="2" stroke-miterlimit="10" d="M26.821 31.025l2.77 2.769 6.23-6.231"></path></svg>