<svg viewBox="0 0 40 40" xmlns="http://www.w3.org/2000/svg"><path d="M1.729 36.121l2.489-2.49-2.51-2.51 1.414-1.414 2.51 2.51 1.586-1.586-4.51-4.51 1.414-1.414 4.509 4.509 14.712-14.72-.723-.723c-2.805-2.805-2.805-7.371 0-10.176A7.147 7.147 0 0127.708 1.5c1.928 0 3.735.745 5.088 2.098l3.627 3.627a7.144 7.144 0 012.098 5.088c0 1.928-.745 3.735-2.098 5.088s-3.16 2.098-5.088 2.098-3.735-.745-5.088-2.098l-.733-.733L3.9 38.293l-2.171-2.172zM27.759 4.5a4.21 4.21 0 00-2.998 1.24c-.8.799-1.24 1.864-1.24 2.998s.44 2.198 1.24 2.998l3.525 3.525c.8.799 1.864 1.24 2.998 1.24s2.198-.44 2.998-1.24a4.244 4.244 0 000-5.995L30.756 5.74a4.206 4.206 0 00-2.997-1.24z" fill="#f5ce85"></path><path d="M27.708 2c1.794 0 3.476.693 4.734 1.952L36.07 7.58a6.646 6.646 0 011.952 4.734c0 1.794-.693 3.476-1.952 4.734S33.13 19 31.335 19s-3.476-.693-4.734-1.952l-.38-.38-.707-.707-.707.707L3.9 37.586l-1.464-1.464 1.782-1.783.707-.707-.707-.707-1.803-1.803.707-.707 1.803 1.803.707.707.707-.707.879-.879.707-.707-.707-.707-3.803-3.803.707-.707 3.802 3.802.707.707.707-.707 14.005-14.012.707-.707-.707-.707-.369-.369a6.704 6.704 0 010-9.469A6.64 6.64 0 0127.708 2m3.576 15a4.707 4.707 0 003.351-1.386 4.744 4.744 0 000-6.702L31.11 5.386C30.216 4.492 29.026 4 27.759 4s-2.457.492-3.351 1.386a4.744 4.744 0 000 6.702l3.525 3.525A4.704 4.704 0 0031.284 17M27.708 1a7.671 7.671 0 00-5.442 2.245c-2.993 2.993-2.993 7.89 0 10.883l.369.369L8.63 28.509 4.121 24 2 26.121l4.51 4.51-.879.879L3.121 29 1 31.121l2.51 2.51-2.489 2.49L3.9 39l21.614-21.624.38.38A7.672 7.672 0 0031.335 20a7.671 7.671 0 005.442-2.245c2.993-2.993 2.993-7.89 0-10.883l-3.628-3.628A7.672 7.672 0 0027.708 1zm3.576 15a3.726 3.726 0 01-2.644-1.093l-3.525-3.525a3.743 3.743 0 010-5.288C25.844 5.364 26.801 5 27.759 5s1.915.364 2.644 1.093l3.525 3.525a3.743 3.743 0 010 5.288A3.727 3.727 0 0131.284 16z" fill="#967a44"></path></svg>