<svg viewBox="0 0 40 40" xmlns="http://www.w3.org/2000/svg"><path d="M7 38.5c-.827 0-1.5-.673-1.5-1.5V3c0-.827.673-1.5 1.5-1.5h27c.827 0 1.5.673 1.5 1.5v34c0 .827-.673 1.5-1.5 1.5H7z" fill="#8bb7f0"></path><path d="M34 2c.551 0 1 .449 1 1v34c0 .551-.449 1-1 1H7c-.551 0-1-.449-1-1V3c0-.551.449-1 1-1h27m0-1H7a2 2 0 00-2 2v34a2 2 0 002 2h27a2 2 0 002-2V3a2 2 0 00-2-2z" fill="#4e7ab5"></path><circle cx="20.5" cy="16.5" r="9" fill="none" stroke="#ffeea3" stroke-miterlimit="10"></circle><ellipse cx="20.5" cy="16.5" rx="2" ry="9" fill="none" stroke="#ffeea3" stroke-miterlimit="10"/><ellipse cx="20.5" cy="16.5" rx="6" ry="9" fill="none" stroke="#ffeea3" stroke-miterlimit="10"/><path fill="none" stroke="#ffeea3" stroke-miterlimit="10" d="M11.5 16.5h18"></path><path fill="none" stroke="#ffeea3" stroke-linecap="square" stroke-miterlimit="10" d="M11.5 31.5h18"></path><path fill="none" stroke="#ffeea3" stroke-miterlimit="10" d="M12.398 12.5h16.204M12.398 20.5h16.204"></path></svg>