<svg viewBox="0 0 40 40" xmlns="http://www.w3.org/2000/svg"><path d="M20 38.5C9.799 38.5 1.5 30.201 1.5 20S9.799 1.5 20 1.5 38.5 9.799 38.5 20 30.201 38.5 20 38.5zm0-34C11.453 4.5 4.5 11.453 4.5 20S11.453 35.5 20 35.5 35.5 28.547 35.5 20 28.547 4.5 20 4.5z" fill="#f78f8f"></path><path d="M20 2c9.925 0 18 8.075 18 18s-8.075 18-18 18S2 29.925 2 20 10.075 2 20 2m0 34c8.822 0 16-7.178 16-16S28.822 4 20 4 4 11.178 4 20s7.178 16 16 16m0-35C9.507 1 1 9.507 1 20s8.507 19 19 19 19-8.507 19-19S30.493 1 20 1zm0 34c-8.284 0-15-6.716-15-15 0-8.284 6.716-15 15-15s15 6.716 15 15c0 8.284-6.716 15-15 15z" fill="#c74343"></path><path d="M1.687 15a18.879 18.879 0 012.179-5h4.976C11.588 6.938 15.563 5 20 5c8.284 0 15 6.716 15 15 0 8.284-6.716 15-15 15S5 28.284 5 20c0-1.756.317-3.434.872-5H1.687z" fill="#fff"></path><path fill="none" stroke="#66798f" stroke-width="2" stroke-linecap="round" stroke-miterlimit="10" d="M26.995 9.665L20 20l5.846 5.846"></path><circle cx="20" cy="20" r="1.5" fill="#66798f"></circle><circle cx="20" cy="7" r="1" fill="#c5d4de"></circle><circle cx="20" cy="33" r="1" fill="#c5d4de"></circle><circle cx="33" cy="20" r="1" fill="#c5d4de"></circle><circle cx="7" cy="20" r="1" fill="#c5d4de"></circle><path fill="#f78f8f" d="M4.214 12.357V4.564l7.793 7.793z"></path><path d="M4.714 5.771l6.086 6.086H4.714V5.771m-1-2.414v9.5h9.5l-9.5-9.5z" fill="#c74343"></path><path d="M9.504 6.626a17.111 17.111 0 00-2.622 2.56" fill="none" stroke="#f78f8f" stroke-width="2" stroke-miterlimit="10"></path></svg>