<svg viewBox="0 0 40 40" xmlns="http://www.w3.org/2000/svg"><path fill="#f5ce85" d="M35.5 11.5h3v27h-3z"></path><path d="M38 12v26h-2V12h2m1-1h-4v28h4V11z" fill="#967a44"></path><path fill="#f5ce85" d="M1.5 11.5h3v27h-3z"></path><path d="M4 12v26H2V12h2m1-1H1v28h4V11z" fill="#967a44"></path><path fill="#f5ce85" d="M8.5 6.5h3v27h-3z"></path><path d="M11 7v26H9V7h2m1-1H8v28h4V6z" fill="#967a44"></path><path fill="#f5ce85" d="M28.5 6.5h3v27h-3z"></path><path d="M31 7v26h-2V7h2m1-1h-4v28h4V6z" fill="#967a44"></path><g><path d="M36 18.5c-1.93 0-3.5-1.57-3.5-3.5a.5.5 0 00-1 0c0 1.93-1.57 3.5-3.5 3.5s-3.5-1.57-3.5-3.5a.5.5 0 00-1 0c0 1.93-1.57 3.5-3.5 3.5s-3.5-1.57-3.5-3.5a.5.5 0 00-1 0c0 1.93-1.57 3.5-3.5 3.5S8.5 16.93 8.5 15a.5.5 0 00-1 0c0 1.93-1.57 3.5-3.5 3.5S.5 16.93.5 15v-3.861l2.929-4.881A.499.499 0 003.5 6V3c0-.827.673-1.5 1.5-1.5h30c.827 0 1.5.673 1.5 1.5v3c0 .091.024.18.071.257l2.929 4.881V15c0 1.93-1.57 3.5-3.5 3.5z" fill="#f78f8f"></path><path d="M35 2c.551 0 1 .449 1 1v3c0 .181.049.359.143.515L39 11.277V15c0 1.654-1.346 3-3 3s-3-1.346-3-3a1 1 0 00-2 0c0 1.654-1.346 3-3 3s-3-1.346-3-3a1 1 0 00-2 0c0 1.654-1.346 3-3 3s-3-1.346-3-3a1 1 0 00-2 0c0 1.654-1.346 3-3 3s-3-1.346-3-3a1 1 0 00-2 0c0 1.654-1.346 3-3 3s-3-1.346-3-3v-3.723l2.857-4.762A.997.997 0 004 6V3c0-.551.449-1 1-1h30m0-1H5a2 2 0 00-2 2v3l-3 5v4a4 4 0 008 0 4 4 0 008 0 4 4 0 008 0 4 4 0 008 0 4 4 0 008 0v-4l-3-5V3a2 2 0 00-2-2z" fill="#c74343"></path></g><path fill="#f7a8a8" d="M36.433 7H3.566l-2.399 4h37.667z"></path><path fill="none" stroke="#c74343" stroke-miterlimit="10" d="M3 6.5h34M.5 11.5h39"></path></svg>