<svg viewBox="0 0 40 40" xmlns="http://www.w3.org/2000/svg"><path fill="#f78f8f" d="M1.5 1.5h35v28h-35z"></path><path d="M36 2v27H2V2h34m1-1H1v29h36V1z" fill="#c74343"></path><path fill="none" stroke="#c74343" stroke-miterlimit="10" d="M37 8.5H1M37 15.5H1M37 22.5H1M24.5 9V1M12.5 9V1M24.5 23v-8M12.5 23v-8M18.5 16V8M30.5 16V8M6.5 16V8M18.5 30v-8M30.5 30v-8M6.5 30v-8"></path><path d="M29 38.5c-5.238 0-9.5-4.262-9.5-9.5s4.262-9.5 9.5-9.5 9.5 4.262 9.5 9.5-4.262 9.5-9.5 9.5z" fill="#ffeea3"></path><path d="M29 20c4.963 0 9 4.037 9 9s-4.037 9-9 9-9-4.037-9-9 4.037-9 9-9m0-1c-5.523 0-10 4.477-10 10s4.477 10 10 10 10-4.477 10-10-4.477-10-10-10z" fill="#ba9b48"></path><circle cx="29" cy="29" r="7.143" fill="#f5ce85"></circle><path d="M24 35.5c-5.79 0-10.5-4.71-10.5-10.5S18.21 14.5 24 14.5 34.5 19.21 34.5 25 29.79 35.5 24 35.5z" fill="#ffeea3"></path><path d="M24 15c5.514 0 10 4.486 10 10s-4.486 10-10 10-10-4.486-10-10 4.486-10 10-10m0-1c-6.075 0-11 4.925-11 11s4.925 11 11 11 11-4.925 11-11-4.925-11-11-11z" fill="#ba9b48"></path><circle cx="24" cy="25" r="8" fill="#f5ce85"></circle><g><path d="M21.359 29.421v-1.519c.64.431 1.289.647 1.948.647.663 0 1.196-.169 1.6-.507.404-.338.606-.789.606-1.352 0-.554-.205-.985-.616-1.294-.411-.309-1-.463-1.767-.463-.263 0-.797.027-1.6.082l.347-5.134h4.808v1.348h-3.493l-.163 2.445c.313-.018.597-.027.851-.027 1.035 0 1.835.266 2.4.797s.848 1.258.848 2.179c0 .967-.323 1.742-.97 2.326-.647.583-1.536.875-2.666.875-.955-.002-1.665-.136-2.133-.403z" fill="#967a44"></path></g></svg>