<svg viewBox="0 0 40 40" xmlns="http://www.w3.org/2000/svg"><path d="M2.066 31.5a.555.555 0 01-.563-.56l.029-.096.126-.552-.021-.002L7.735 2.162l.053-.219c.051-.22.234-.443.528-.443h14.332c2.094 0 4.356.966 5.905 2.521.884.888 1.937 2.381 1.928 4.454C30.463 12.941 27.604 20.5 17 20.5c-1.039 0-2.653.009-2.653.009-.655.003-1.152.427-1.331 1.134l-2.15 9.857h-8.8z" fill="#8bb7f0"></path><path d="M22.649 2c1.936 0 4.115.932 5.551 2.374.817.821 1.79 2.198 1.782 4.099C29.964 12.754 27.21 20 17 20c-1.024 0-1.661.003-2.283.007l-.373.002c-.885.004-1.58.584-1.821 1.543L10.463 31H2.067c-.019 0-.04-.006-.052-.023l.007-.032.23-1.122h-.001L8.189 2.429l.086-.373c.003-.014.018-.056.042-.056h14.332m0-1H8.317c-.504 0-.907.358-1.016.831l-.005-.003-6.265 28.904.014.001c-.015.068-.042.134-.042.207 0 .592.476 1.06 1.064 1.06h9.202l2.233-10.236c.111-.443.392-.753.849-.756C15.105 21.005 15.774 21 17 21c11 0 13.963-8 13.981-12.523C31 4 26.411 1 22.649 1z" fill="#4e7ab5"></path><path d="M10.064 38.5a.556.556 0 01-.564-.56l.029-.096.126-.552-.021-.002 6.098-28.11.058-.237c.051-.22.234-.443.529-.443h14.342c2.097 0 4.361.967 5.911 2.523.885.888 1.937 2.38 1.928 4.452-.019 4.466-2.881 12.025-13.491 12.025-.881 0-2.2.009-2.2.009a1.496 1.496 0 00-1.442 1.134l-2.388 9.479a.501.501 0 01-.485.378h-8.43z" fill="#c2e8ff"></path><path d="M30.661 9c1.939 0 4.12.933 5.557 2.376.817.82 1.789 2.197 1.782 4.097C37.982 19.754 35.226 27 25.008 27c-.875 0-1.237.002-1.646.005l-.556.003a1.997 1.997 0 00-1.925 1.511L18.493 38h-8.428a.065.065 0 01-.053-.023l.007-.031.23-1.122h-.001l5.941-27.392.087-.375c.004-.015.019-.057.043-.057h14.342m0-1H16.319c-.505 0-.907.358-1.017.831l-.005-.002-6.269 28.903.014.001c-.015.069-.042.134-.042.208C9 38.532 9.476 39 10.065 39h8.428a1 1 0 00.97-.756l2.389-9.48a.996.996 0 01.96-.756c.755-.003.969-.008 2.196-.008C36.016 28 38.981 20 39 15.477 39.018 11 34.426 8 30.661 8z" fill="#7496c4"></path><g><path d="M15.734 9.173l.056-.229c.051-.221.234-.444.529-.444 4.363.003 12.182.009 14.162.013C30.446 12.985 27.572 20.5 17 20.5c-1.227 0-3.695.009-3.717.01l2.451-11.337z" fill="#578dc9"></path><path d="M16.319 9c4.049.003 11.099.008 13.646.012C29.726 13.334 26.792 20 17 20c-.98 0-2.242.003-3.096.006l2.29-10.596.082-.354c.004-.014.019-.056.043-.056m0-1c-.505 0-.907.358-1.017.831l-.005-.002-2.796 12.936c.111-.443.392-.753.849-.756.755-.004 2.424-.009 3.65-.009 11 0 13.963-8 13.982-12.523.001-.157-.017-.309-.028-.462C30.856 8.01 16.319 8 16.319 8z" fill="#4e7ab5"></path></g></svg>