<svg viewBox="0 0 40 40" xmlns="http://www.w3.org/2000/svg"><path fill="#f5ce85" d="M4.5 23.5h3v15h-3z"></path><path d="M7 24v14H5V24h2m1-1H4v16h4V23z" fill="#967a44"></path><path fill="#f5ce85" d="M32.5 23.5h3v15h-3z"></path><path d="M35 24v14h-2V24h2m1-1h-4v16h4V23z" fill="#967a44"></path><path fill="#f5ce85" d="M1.5 20.5h37v3h-37z"></path><path d="M38 21v2H2v-2h36m1-1H1v4h38v-4z" fill="#967a44"></path><path fill="#b0c1d4" d="M17.5 13h5v6.5h-5z"></path><path d="M22 13.5V19h-4v-5.5h4m1-1h-6V20h6v-7.5z" fill="#66798f"></path><g><path fill="#c2e8ff" d="M8.5 1.5h23v15h-23z"></path><path d="M31 2v14H9V2h22m1-1H8v16h24V1z" fill="#66798f"></path></g><path fill="#66798f" d="M8.5 15h23v1h-23z"></path><path fill="none" stroke="#66798f" stroke-miterlimit="10" d="M14 19.5h12"></path><path fill="none" stroke="#967a44" stroke-miterlimit="10" d="M7.5 32.5h25"></path></svg>