<svg viewBox="0 0 40 40" xmlns="http://www.w3.org/2000/svg"><path d="M14.5 4.5s3.992 1.272 4.379 5.069" fill="none" stroke="#967a44" stroke-linecap="round" stroke-linejoin="round" stroke-miterlimit="10"></path><path d="M19.875 38.531c-.433 0-1.25-.242-2.688-1.392-.901-.722-1.9-1.193-3.057-1.739-.531-.251-1.109-.523-1.748-.852C6.405 31.471 3.5 27.249 3.5 21.639 3.5 13.105 9.56 8.5 15.261 8.5c2.576 0 4.225.926 4.241.935l.219.125.232-.103C19.975 9.448 22.151 8.5 25 8.5c6.771 0 11.5 5.557 11.5 13.514 0 5.98-2.931 10.374-8.711 13.06-.774.36-1.868.789-2.925 1.204-2.125.834-3.447 1.366-3.849 1.78-.235.243-.458.473-1.14.473z" fill="#ffc49c"></path><path d="M25 9c6.477 0 11 5.351 11 13.014 0 5.768-2.833 10.009-8.421 12.606-.761.354-1.847.78-2.898 1.192-2.507.984-3.573 1.431-4.025 1.898-.207.214-.31.321-.781.321-.233 0-.93-.125-2.375-1.282-.947-.759-1.971-1.242-3.156-1.801a53.725 53.725 0 01-1.732-.844C6.817 31.12 4 27.043 4 21.638 4 13.429 9.802 9 15.261 9c2.41 0 3.982.863 3.993.869l.44.249.461-.203C20.175 9.906 22.268 9 25 9m0-1c-3 0-5.25 1.001-5.25 1.001S18 8 15.261 8C9.173 8 3 13.005 3 21.638c0 6.623 3.923 10.661 9.154 13.354 2.042 1.051 3.471 1.536 4.721 2.537 1.051.842 2.151 1.501 3 1.501.875 0 1.216-.332 1.5-.626.565-.584 4.597-1.935 6.625-2.878 7-3.253 9-8.612 9-13.513C37 14.006 32.263 8 25 8z" fill="#a16a4a"></path><path d="M20.292 10.5c-.619 0-1.116-.07-1.397-.121-.296-.95-1.153-4.479 1.316-7.4C21.941.93 24.155.5 25.708.5c.619 0 1.116.07 1.397.121.296.95 1.153 4.479-1.316 7.401-1.73 2.048-3.944 2.478-5.497 2.478.001 0 .001 0 0 0z" fill="#bae0bd"></path><path d="M25.708 1c.403 0 .75.032 1.011.066.319 1.166.818 4.113-1.312 6.633C23.8 9.601 21.738 10 20.292 10c-.402 0-.748-.031-1.008-.066-.313-1.163-.808-4.127 1.309-6.633C22.2 1.399 24.262 1 25.708 1m0-1c-1.609 0-4.007.44-5.879 2.656-3.106 3.675-1.315 8.153-1.315 8.153s.718.191 1.778.191c1.609 0 4.007-.44 5.879-2.656C29.277 4.669 27.486.191 27.486.191S26.768 0 25.708 0z" fill="#5e9c76"></path><path d="M17.5 33.525c-1.784-2.633-4-6.006-4-12.012 0-6.615 2.738-10.298 6.198-11.943 0 0 2.177-1.071 4.677-1.071.625 0 1.961.06 2.487.148" fill="#ffc49c" stroke="#a16a4a" stroke-miterlimit="10"></path></svg>