<svg viewBox="0 0 40 40" xmlns="http://www.w3.org/2000/svg"><path d="M28.091 38.5C20.594 38.5 9.5 32.43 9.5 19.4c0-5.969 4.257-7.9 6.318-7.9 4.614 0 6.858 2.954 9.028 5.811.636.837 1.236 1.627 1.89 2.334 2.215 2.398 4.562 3.677 6.632 4.806 2.979 1.623 5.132 2.795 5.132 6.5 0 5.186-5.396 7.549-10.409 7.549z" fill="#f5ce85"></path><path d="M15.818 12c4.367 0 6.534 2.854 8.631 5.614.643.847 1.251 1.646 1.919 2.371 2.271 2.459 4.656 3.759 6.761 4.906C36.167 26.545 38 27.543 38 30.95c0 4.844-5.137 7.05-9.909 7.05-4.195 0-8.695-1.763-12.036-4.717C13.292 30.842 10 26.452 10 19.4c0-5.591 3.92-7.4 5.818-7.4m0-1C13.205 11 9 13.444 9 19.4 9 32.286 19.682 39 28.091 39 33.925 39 39 36.083 39 30.95c0-6.65-6.477-5.775-11.897-11.644C24.236 16.201 22.068 11 15.818 11z" fill="#967a44"></path><path d="M31.5 32.7c-9.365-2.047-16.81-8.459-19.809-18.662" fill="none" stroke="#967a44" stroke-linecap="round" stroke-linejoin="round" stroke-miterlimit="10"></path><path d="M9.4 30.5c-5.97 0-7.9-4.257-7.9-6.318 0-4.615 2.954-6.859 5.811-9.029.837-.636 1.628-1.236 2.334-1.889 2.399-2.215 3.678-4.562 4.806-6.633 1.623-2.979 2.796-5.131 6.5-5.131 5.188 0 7.55 5.396 7.55 10.409C28.5 19.407 22.43 30.5 9.4 30.5z" fill="#f5ce85"></path><path d="M20.95 2C25.794 2 28 7.137 28 11.909c0 4.195-1.763 8.695-4.717 12.036C20.842 26.708 16.452 30 9.4 30 3.809 30 2 26.08 2 24.182c0-4.367 2.854-6.534 5.614-8.631.846-.643 1.646-1.251 2.37-1.919 2.459-2.271 3.759-4.656 4.906-6.761C16.545 3.833 17.543 2 20.95 2m0-1C14.3 1 15.175 7.477 9.306 12.897 6.201 15.764 1 17.932 1 24.182 1 26.795 3.444 31 9.4 31 22.286 31 29 20.318 29 11.909 29 6.075 26.083 1 20.95 1z" fill="#967a44"></path><path d="M22.7 8.5c-2.047 9.365-8.459 16.81-18.662 19.809" fill="none" stroke="#967a44" stroke-linecap="round" stroke-linejoin="round" stroke-miterlimit="10"></path></svg>