<svg viewBox="0 0 40 40" xmlns="http://www.w3.org/2000/svg"><path d="M19.473 7.479c-.981-.068-3.144-.357-4.369-1.583-1.228-1.228-1.516-3.381-1.583-4.369 1 .08 3.188.389 4.376 1.576 1.186 1.188 1.496 3.376 1.576 4.376z" fill="#bae0bd"></path><path d="M14.075 2.085c1.112.15 2.625.529 3.468 1.372.838.838 1.218 2.353 1.37 3.467-1.023-.128-2.543-.469-3.456-1.381-.914-.914-1.255-2.433-1.382-3.458M13 1s-.045 3.455 1.75 5.25C16.46 7.96 19.677 8 19.977 8H20s-.017-3.517-1.75-5.25S13 1 13 1z" fill="#5e9c76"></path><path d="M22.5.5s-4.105 2.962-2.026 9.745" fill="none" stroke="#7a4f34" stroke-linecap="round" stroke-miterlimit="10"></path><path d="M20 38.5c-7.444 0-13.5-5.159-13.5-11.5 0-3.495 1.843-6.761 5.057-8.962l.178-.122.034-.212C12.727 11.696 16.111 7.5 20 7.5s7.273 4.196 8.231 10.204l.034.212.178.122C31.657 20.239 33.5 23.505 33.5 27c0 6.341-6.056 11.5-13.5 11.5z" fill="#ffeea3"></path><path d="M20 8c3.58 0 6.834 4.114 7.738 9.783l.068.425.355.243C31.236 20.556 33 23.672 33 27c0 6.065-5.832 11-13 11S7 33.065 7 27c0-3.328 1.764-6.444 4.839-8.55l.355-.243.068-.425C13.166 12.114 16.42 8 20 8m0-1c-4.221 0-7.753 4.527-8.726 10.625C8.063 19.824 6 23.203 6 27c0 6.627 6.268 12 14 12s14-5.373 14-12c0-3.797-2.063-7.176-5.274-9.375C27.753 11.527 24.221 7 20 7z" fill="#ba9b48"></path><circle cx="26.5" cy="27.5" r=".5" fill="#ba9b48"></circle><g><circle cx="24.5" cy="29.5" r=".5" fill="#ba9b48"></circle></g><g><circle cx="27.5" cy="30.5" r=".5" fill="#ba9b48"></circle></g></svg>