<svg viewBox="0 0 40 40" xmlns="http://www.w3.org/2000/svg"><path d="M8.668 38.5c-1.228 0-2.369-.157-3.577-.322-1.132-.155-2.297-.315-3.588-.35.16-6.101 3.324-8.35 8.053-11.709 2.694-1.915 5.749-4.085 9.056-7.464 2.106-2.152 3.481-4.636 4.811-7.039 2.961-5.35 5.525-9.98 15.084-10.113-.024.291-.181.666-.411 1.197-.491 1.135-1.235 2.85-.952 5.536.41 3.903.046 11.688-7.003 19.975C24.168 35.23 17.346 38.5 8.668 38.5z" fill="#bae0bd"></path><path d="M37.839 2.021c-.063.159-.136.326-.203.48-.513 1.183-1.288 2.97-.992 5.787.402 3.823.042 11.453-6.886 19.598C23.889 34.786 17.187 38 8.668 38c-1.194 0-2.319-.154-3.51-.318-.997-.137-2.02-.277-3.136-.334.299-5.476 3.193-7.532 7.823-10.822 2.712-1.927 5.786-4.111 9.124-7.521 2.154-2.201 3.545-4.715 4.891-7.146 2.814-5.084 5.258-9.502 13.979-9.838M38.931 1C24.194 1 24.948 11.466 18.254 18.305 8.833 27.931.996 27.998.996 38.321c2.854 0 5.085.679 7.672.679 7.495 0 15.01-2.423 21.852-10.466 5.957-7.003 7.738-14.461 7.119-20.351C37.186 3.872 39.455 2.32 38.931 1z" fill="#5e9c76"></path><path d="M30.976 18.723a2.463 2.463 0 01-1.699-.658c-.378-.354-.828-.912-.828-1.556 0-.509.278-1.028.828-1.543.559-.524 1.128-.79 1.692-.79.715 0 1.322.429 1.706.79.443.416.687.966.687 1.55 0 .583-.243 1.134-.687 1.549a2.47 2.47 0 01-1.699.658z" fill="#93cc97"></path><path d="M30.969 14.676c.551 0 1.045.356 1.364.654.341.32.53.741.53 1.185 0 .444-.188.865-.53 1.185a1.97 1.97 0 01-1.357.522 1.97 1.97 0 01-1.357-.522c-.306-.287-.67-.726-.67-1.191 0-.365.225-.761.67-1.178.462-.434.916-.654 1.35-.655m0-1c-.652 0-1.34.274-2.034.925-1.49 1.397-1.127 2.771 0 3.828a2.976 2.976 0 002.041.793c.739 0 1.477-.264 2.041-.793a2.59 2.59 0 000-3.828c-.603-.565-1.301-.925-2.048-.925z" fill="#5e9c76"></path><path d="M26.681 25.853c-1.446 0-2.457-.935-2.457-2.273 0-1.288.181-2.273 2.457-2.273s2.457.985 2.457 2.273c0 1.338-1.011 2.273-2.457 2.273z" fill="#93cc97"></path><path d="M26.681 21.807c1.866 0 1.957.641 1.957 1.773 0 1.044-.805 1.773-1.957 1.773s-1.957-.729-1.957-1.773c0-1.132.091-1.773 1.957-1.773m0-1c-2.57 0-2.957 1.242-2.957 2.773s1.166 2.773 2.957 2.773 2.957-1.242 2.957-2.773-.387-2.773-2.957-2.773z" fill="#5e9c76"></path><path d="M20.511 31.356c-.528 0-.997-.342-1.627-.934-.438-.41-.679-.953-.679-1.529s.241-1.119.679-1.529a2.431 2.431 0 011.676-.645 2.44 2.44 0 011.679.645c.604.566.978 1.012.978 1.483 0 .437-.329.966-.978 1.575-.671.629-1.236.934-1.728.934z" fill="#93cc97"></path><path d="M20.559 27.22c.511 0 .986.181 1.336.51.426.4.82.812.82 1.118 0 .28-.299.721-.82 1.21-.557.522-1.036.798-1.384.798-.362 0-.76-.306-1.285-.798-.336-.315-.52-.728-.52-1.164s.185-.849.52-1.164c.35-.329.824-.51 1.333-.51m0-1c-.73 0-1.462.259-2.018.78a2.562 2.562 0 000 3.787c.625.587 1.229 1.069 1.97 1.069.58 0 1.244-.296 2.068-1.069 1.878-1.761 1.104-2.751 0-3.787a2.948 2.948 0 00-2.02-.78z" fill="#5e9c76"></path><g><path d="M33.542 10.805c-.409 0-.792-.148-1.079-.417-.381-.358-.635-.654-.635-.939-.001-.266.213-.601.635-.997.431-.404.804-.609 1.109-.609.331 0 .659.243 1.049.609.277.26.431.604.431.968s-.153.708-.431.968c-.287.269-.67.417-1.079.417z" fill="#93cc97"></path><path d="M33.573 8.344c.202 0 .568.344.706.473.176.165.273.379.273.603s-.097.438-.273.603a1.072 1.072 0 01-.737.281c-.282 0-.544-.1-.737-.281-.464-.435-.477-.562-.477-.575 0-.002.013-.196.477-.632.468-.438.706-.472.768-.472m-.001-1c-.411 0-.879.207-1.452.744-1.3 1.219-.785 1.929 0 2.665.392.368.907.552 1.421.552s1.029-.184 1.421-.552a1.802 1.802 0 000-2.665c-.438-.412-.868-.744-1.39-.744z" fill="#5e9c76"></path></g><g><path d="M14.955 34.574c-.409 0-.792-.148-1.079-.417-.381-.358-.635-.654-.635-.939 0-.266.214-.602.635-.997.431-.404.805-.608 1.11-.608.331 0 .659.243 1.049.608.277.26.43.604.43.968s-.152.708-.43.968c-.287.269-.67.417-1.08.417z" fill="#93cc97"></path><path d="M14.986 32.112c.202 0 .568.344.706.473.176.165.273.379.273.603s-.097.438-.273.603c-.194.182-.455.281-.737.281s-.543-.1-.737-.281c-.464-.435-.477-.562-.477-.575 0-.002.013-.196.477-.632.469-.437.706-.472.768-.472m0-1c-.411 0-.879.207-1.452.744-1.3 1.219-.785 1.929 0 2.665.392.368.907.552 1.421.552s1.029-.184 1.421-.552a1.802 1.802 0 000-2.665c-.438-.411-.868-.744-1.39-.744z" fill="#5e9c76"></path></g><g><path d="M8.771 36.689c-.409 0-.792-.148-1.079-.417-.381-.358-.635-.654-.635-.939 0-.266.213-.601.635-.997.431-.404.805-.608 1.11-.608.331 0 .659.243 1.049.608.277.26.43.604.43.968s-.152.708-.43.969a1.57 1.57 0 01-1.08.416z" fill="#93cc97"></path><path d="M8.802 34.228c.202 0 .568.344.706.473.176.165.273.379.273.603s-.097.438-.273.603a1.064 1.064 0 01-.737.283c-.282 0-.544-.1-.737-.281-.464-.435-.477-.562-.477-.575 0-.002.013-.196.477-.632.468-.439.706-.474.768-.474m-.001-1c-.411 0-.879.207-1.452.744-1.3 1.219-.785 1.929 0 2.665.392.368.907.552 1.421.552s1.029-.184 1.421-.552a1.802 1.802 0 000-2.665c-.438-.411-.868-.744-1.39-.744z" fill="#5e9c76"></path></g><path d="M1.5 37.5c5.237-5.638 12.107-3.758 21.196-14.566C28.777 15.703 30.346 6.263 38.5 1.5" fill="none" stroke="#5e9c76" stroke-linecap="round" stroke-linejoin="round" stroke-miterlimit="10"></path></svg>