<svg viewBox="0 0 40 40" xmlns="http://www.w3.org/2000/svg"><path d="M1.5 2.5c1.211-.319 4.277-1 6.964-1M1.5 5.5C2.195 5.253 5.313 4 8 4" fill="none" stroke="#a16a4a" stroke-linecap="round" stroke-miterlimit="10"></path><path d="M24 19.5c-7.001 0-13-4.948-13-9 0-3.093.701-3.987 3.127-3.987 1.164 0 2.762.236 5.028.743l.054.012h.056c6.722 0 14.192 2.995 16.066 4.741C30.753 17.286 28.111 19.5 24 19.5z" fill="#f5ce85"></path><path d="M14.127 7.013c1.126 0 2.689.232 4.92.731l.108.024h.11c6.322 0 13.164 2.693 15.352 4.3C30.35 16.946 27.817 19 24 19c-6.732 0-12.5-4.674-12.5-8.5 0-2.983.656-3.487 2.627-3.487m0-1c-2.877 0-3.627 1.362-3.627 4.487 0 4.497 6.379 9.5 13.5 9.5 4.496 0 7.312-2.563 12-8-1.442-1.908-9.615-5.232-16.735-5.232-2.2-.492-3.874-.755-5.138-.755z" fill="#967a44"></path><path d="M37.9 12.488c-.428 0-1.048-.1-1.905-.237-1.864-.299-4.682-.751-8.995-.751-4.688 0-11.534-.205-16.842-1.975-1.611-.537-3.243-4.356-2.862-6.7C7.511 1.5 8.255 1.5 8.5 1.5c.988 0 2.358.491 4.254 1.171C17.004 4.196 23.426 6.5 34 6.5c3.56 0 4.5 3.372 4.5 5.155 0 .833-.139.833-.6.833z" fill="#ffeea3"></path><path d="M8.5 2c.901 0 2.306.504 4.085 1.142C16.867 4.678 23.339 7 34 7c3.955 0 4 4.465 4 4.655 0 .153-.008.26-.017.331a1.867 1.867 0 01-.082.002c-.388 0-1.023-.102-1.826-.231C34.195 11.456 31.354 11 27 11c-4.652 0-11.444-.202-16.684-1.949-1.406-.469-2.87-4.03-2.527-6.147C7.936 2 8.303 2 8.5 2m0-1C5.127 1 7.156 9.052 10 10c4.962 1.654 11.317 2 17 2 6.319 0 9.456.988 10.901.988.825 0 1.099-.322 1.099-1.333C39 9.62 37.902 6 34 6 18.605 6 11.873 1 8.5 1z" fill="#967a44"></path><path fill="none" stroke="#967a44" stroke-linecap="round" stroke-miterlimit="10" d="M16.5 7.5L12 7"></path><path d="M22.992 38.277c-1.258-1.307-3.479-3.8-5.461-6.024-1.76-1.974-3.295-3.697-4.031-4.457V27c0-3.677-2.467-6.322-5.078-9.123C5.511 14.754 2.5 11.525 2.5 6.5c0-2.757 2.691-5 6-5s6 2.243 6 5c0 .996-.353 1.959-1.02 2.784-.103.158-.18.24-.257.325-.418.463-.761.964-.724 2.403.034 1.307 1.621 2.191 3.818 3.417C20.373 17.69 26.5 21.107 26.5 29.5c0 2.971-1.754 6.78-3.508 8.777z" fill="#fff1e8"></path><path d="M8.5 2C11.533 2 14 4.019 14 6.5c0 .88-.314 1.734-.909 2.471a.933.933 0 00-.072.102 1.685 1.685 0 01-.166.202c-.473.524-.894 1.129-.852 2.751.041 1.591 1.733 2.534 4.074 3.84C20.263 18.202 26 21.401 26 29.5c0 2.661-1.467 6.026-3.033 8.025-1.287-1.368-3.273-3.597-5.064-5.606-1.656-1.859-3.115-3.496-3.903-4.325V27c0-3.874-2.532-6.59-5.212-9.465C5.942 14.483 3 11.328 3 6.5 3 4.019 5.467 2 8.5 2m0-1C4.91 1 2 3.462 2 6.5 2 16.283 13 19.536 13 27v1c1.442 1.442 7.879 8.879 10 11 1.845-1.845 4-6.031 4-9.5C27 16.579 13.081 15.116 13 12c-.046-1.779.519-1.837.869-2.401C14.582 8.716 15 7.65 15 6.5 15 3.462 12.09 1 8.5 1z" fill="#a16a4a"></path><path d="M25.789 27H14v2.05c.014.015.023.039.036.056 2.098 2.298 6.162 6.944 8.282 9.188.153-.165.614-.73.648-.768 1.567-2 3.034-5.365 3.034-8.026 0-.894-.08-1.72-.211-2.5z" fill="#fff1e8"></path><path d="M8 6.5c.468.468 1.672 1.5 2.5 1.5a1.5 1.5 0 000-3C9.672 5 8.456 6.044 8 6.5z" fill="#36404d"></path></svg>