<svg viewBox="0 0 40 40" xmlns="http://www.w3.org/2000/svg"><path d="M17.817 16.396L30.482 3.73c.793-.794 1.821-1.23 2.894-1.23 1.073 0 2.1.437 2.894 1.23.793.793 1.23 1.82 1.23 2.894s-.437 2.101-1.23 2.894L23.604 22.184l-5.787-5.788z" fill="#f5c276"></path><path d="M33.376 3c.939 0 1.841.385 2.54 1.084.699.699 1.084 1.601 1.084 2.54 0 .939-.385 1.841-1.084 2.54L23.604 21.476l-5.08-5.08L30.836 4.084C31.535 3.385 32.437 3 33.376 3m0-1c-1.165 0-2.33.459-3.247 1.377L17.11 16.396l6.495 6.495 13.018-13.02c1.835-1.835 1.835-4.659 0-6.495C35.706 2.459 34.541 2 33.376 2z" fill="#c29653"></path><path fill="#dcd5f2" d="M4.604 23.916l9.197-3.505 4.643-4.642 5.787 5.788-4.643 4.642-3.504 9.198-13.49 2.009z"></path><path d="M18.444 16.476l5.08 5.08-4.214 4.214-.151.151-.076.2-3.362 8.824-12.533 1.867 1.867-12.533 8.824-3.362.2-.076.151-.151 4.214-4.214m0-1.414l-4.921 4.921-9.371 3.57L2 38l14.448-2.152 3.57-9.371 4.921-4.921-6.495-6.494z" fill="#8b75a1"></path><circle cx="11.5" cy="28.5" r="2.036" fill="#8b75a1"></circle><path fill="none" stroke="#8b75a1" stroke-miterlimit="10" d="M2.922 37.078l8.427-8.427"></path></svg>