<svg viewBox="0 0 40 40" xmlns="http://www.w3.org/2000/svg"><path fill="#f5ce85" d="M8.482 22.802l4.799-4.799 9.337 8.133-5.382 5.381-15.285 6.528z"></path><path d="M13.304 18.687l8.581 7.474-4.935 4.935-14.049 6 6.002-14.008 4.401-4.401m-.047-1.368L8.06 22.516 1 38.995l16.522-7.056 5.829-5.829-10.094-8.791z" fill="#967a44"></path><path fill="#36404d" d="M5.007 29.66L1.005 39l9.365-4z"></path><path d="M17.956 30.797a2.855 2.855 0 00-.604-1.238c-.526-.618-1.309-.971-2.328-1.053-.229-2.356-2.137-3.242-3.464-3.438-.17-1.793-1.343-2.612-2.433-2.911l20.432-20.45 8.735 8.734-20.338 20.356z" fill="#bae0bd"></path><path d="M29.558 2.414l8.028 8.028-19.425 19.441c-.11-.22-.251-.44-.429-.649-.543-.636-1.302-1.032-2.265-1.18-.383-2.159-2.089-3.104-3.459-3.41-.243-1.414-1.068-2.239-1.979-2.683L29.558 2.414m0-1.414L8.06 22.516h.037c.343 0 2.983.095 2.983 3.01 0 0 3.467.108 3.467 3.461 3.448 0 2.975 2.951 2.975 2.951L39 10.442 29.558 1z" fill="#5e9c76"></path><path fill="#bae0bd" d="M30.269 1.711L13.008 18.987l8.069 8.039L38.323 9.765z"></path></svg>