<svg viewBox="0 0 40 40" xmlns="http://www.w3.org/2000/svg"><path d="M5.5 38.5v-7.304c.638-.73 3-3.93 3-11.196S6.138 9.535 5.5 8.804V1.5h29v7.311c-.62.74-3 4.045-3 11.189s2.38 10.449 3 11.189V38.5h-29z" fill="#99c99e"></path><path d="M34 2v6.636c-.803 1.031-3 4.481-3 11.364s2.197 10.333 3 11.364V38H6v-6.625C6.823 30.352 9 26.986 9 20S6.823 9.648 6 8.625V2h28m1-1H5v8s3 2.898 3 11-3 11-3 11v8h30v-8s-3-3.071-3-11 3-11 3-11V1z" fill="#5e9c76"></path><path d="M28 37H16V16a3 3 0 00-3-3V3h15v34z" fill="#5e9c76"></path><path fill="#f2faff" d="M18 4h9v32h-9z"></path><g><circle cx="22.5" cy="20.5" r="1" fill="#8bb7f0"></circle><path d="M22.5 20a.5.5 0 110 1 .5.5 0 010-1m0-1a1.5 1.5 0 10.001 3.001A1.5 1.5 0 0022.5 19z" fill="#7496c4"></path></g></svg>