<svg viewBox="0 0 40 40" xmlns="http://www.w3.org/2000/svg"><path d="M10 1S2 7.541 2 14.571C2 20.936 7.205 23.81 13 24h14c5.7 0 11-2.969 11-9.429C38 7.731 30 1 30 1H10z" fill="#f5ce85"></path><path d="M3 14.571c0 7.516 7.679 8.352 10.033 8.429H27c4.613 0 10-2.207 10-8.429C37 8.96 30.975 3.218 29.623 2L28.6 1H11.373L10.37 2C9.026 3.181 3 8.797 3 14.571z" fill="none"></path><path d="M30 1h-1.4l1.023 1C30.975 3.218 37 8.96 37 14.571 37 20.793 31.613 23 27 23l-13.967.001C10.679 22.923 3 22.087 3 14.571 3 8.797 9.026 3.181 10.37 2l1.003-1H10S2 7.541 2 14.571C2 20.936 7.205 23.81 13 24h14c5.7 0 11-2.969 11-9.429C38 7.731 30 1 30 1z" fill="#967a44"></path><path fill="#ffeea3" d="M13.5 1.5h13v30.214h-13z"></path><path d="M26 2v29.214H14V2h12m1-1H13v31.214h14V1z" fill="#ba9b48"></path><path d="M20 35.429c-3.645 0-6.5-2.649-6.5-6.031v-2.969c0-3.634 3.358-4.929 6.5-4.929s6.5 1.295 6.5 4.929v2.969c0 3.382-2.855 6.031-6.5 6.031z" fill="#ffeea3"></path><path d="M20 22c1.408 0 6 .319 6 4.429v2.969c0 3.102-2.636 5.531-6 5.531s-6-2.43-6-5.531v-2.969C14 22.319 18.592 22 20 22m0-1c-3.9 0-7 1.79-7 5.429v2.969c0 3.639 3.1 6.531 7 6.531s7-2.892 7-6.531v-2.969C27 22.79 23.9 21 20 21z" fill="#ba9b48"></path><g><path d="M20 38.5c-3.645 0-6.5-2.649-6.5-6.031v-1.938c0-3.382 2.855-6.031 6.5-6.031s6.5 2.649 6.5 6.031v1.938c0 3.382-2.855 6.031-6.5 6.031z" fill="#f7a3a3"></path><path d="M20 25c3.364 0 6 2.43 6 5.531v1.938C26 35.57 23.364 38 20 38s-6-2.43-6-5.531v-1.938C14 27.43 16.636 25 20 25m0-1c-3.9 0-7 2.892-7 6.531v1.938C13 36.108 16.1 39 20 39s7-2.892 7-6.531v-1.938C27 26.892 23.9 24 20 24z" fill="#f76d6d"></path></g><path d="M20 39l-.015-.015A.988.988 0 0119 38v-1.924c0-.542.443-.985.985-.985h.031c.542 0 .985.443.985.985V38c-.001.542-.459 1-1.001 1z" fill="#f76d6d"></path><path fill="#ffeea3" d="M14 1h12v2H14z"></path></svg>