<svg viewBox="0 0 40 40" xmlns="http://www.w3.org/2000/svg"><path fill="#bae0bd" d="M2.5 2.5h35v35h-35z"></path><path d="M37 3v34H3V3h34m1-1H2v36h36V2z" fill="#5e9c76"></path><path fill="#5e9c76" d="M26.585 9L11.693 31h2.415L29 9zM26.5 25c.827 0 1.5.673 1.5 1.5v1c0 .827-.673 1.5-1.5 1.5s-1.5-.673-1.5-1.5v-1c0-.827.673-1.5 1.5-1.5m0-2a3.51 3.51 0 00-3.5 3.5v1c0 1.925 1.575 3.5 3.5 3.5s3.5-1.575 3.5-3.5v-1a3.51 3.51 0 00-3.5-3.5z"></path><g><path d="M13.5 11c.827 0 1.5.673 1.5 1.5v1c0 .827-.673 1.5-1.5 1.5s-1.5-.673-1.5-1.5v-1c0-.827.673-1.5 1.5-1.5m0-2a3.51 3.51 0 00-3.5 3.5v1c0 1.925 1.575 3.5 3.5 3.5s3.5-1.575 3.5-3.5v-1A3.51 3.51 0 0013.5 9z" fill="#5e9c76"></path></g></svg>