<svg viewBox="0 0 40 40" xmlns="http://www.w3.org/2000/svg"><path fill="#f5c276" d="M16.5 5.5h7v6h-7z"></path><path d="M23 6v5h-6V6h6m1-1h-8v7h8V5z" fill="#c29653"></path><path d="M3 38.5c-.827 0-1.5-.673-1.5-1.5V13c0-.827.673-1.5 1.5-1.5h34c.827 0 1.5.673 1.5 1.5v24c0 .827-.673 1.5-1.5 1.5H3z" fill="#c2e8ff"></path><path d="M37 12c.551 0 1 .449 1 1v24c0 .551-.449 1-1 1H3c-.551 0-1-.449-1-1V13c0-.551.449-1 1-1h34m0-1H3a2 2 0 00-2 2v24a2 2 0 002 2h34a2 2 0 002-2V13a2 2 0 00-2-2z" fill="#8bb7f0"></path><path fill="#8bb7f0" d="M4 20h32v16H4z"></path><path d="M20.988 12.289l-.01-.289H20l.01.31c.074 4.803.226 14.797-10.551 21.614l.196.39.275.353c11.344-7.222 11.129-17.732 11.058-22.378z" fill="#c2e8ff"></path><path d="M19.395 20.143h.986c.666-3.184.635-6.011.607-7.854l-.01-.289H20l.01.31c.03 1.944.059 4.743-.615 7.833z" fill="#fff"></path><path fill="#ffeea3" d="M12.5 1.5h15v4h-15z"></path><path d="M27 2v3H13V2h14m1-1H12v5h16V1z" fill="#f5c276"></path><path fill="#fcd69a" d="M21 6h2v5h-2z"></path><path fill="#fff9de" d="M25 2h2v3h-2z"></path><path fill="#4e7ab5" d="M12 19h16v11H12z"></path></svg>