<svg viewBox="0 0 40 40" xmlns="http://www.w3.org/2000/svg"><path d="M4.511 38.5c.263-6.11 5.315-11 11.489-11h8c6.174 0 11.227 4.89 11.489 11H4.511z" fill="#8bb7f0"></path><path d="M24 28c5.729 0 10.448 4.401 10.955 10H5.045C5.552 32.401 10.271 28 16 28h8m0-1h-8C9.373 27 4 32.373 4 39h32c0-6.627-5.373-12-12-12z" fill="#4e7ab5"></path><path d="M20 30.5c-3.219 0-4.309-2.102-4.5-2.537V22.5h9v5.464c-.188.43-1.277 2.536-4.5 2.536z" fill="#deb974"></path><path d="M24 23v4.854c-.241.489-1.262 2.146-4 2.146-2.73 0-3.756-1.657-4-2.147V23h8m1-1H15v6.062S16.066 31 20 31s5-2.938 5-2.938V22z" fill="#967a44"></path><g><path d="M20 25.5a2.46 2.46 0 01-1.642-.631l-.091-.079-.116-.029A7.487 7.487 0 0112.5 17.5V8.201a3.316 3.316 0 013.312-3.312h8.375A3.317 3.317 0 0127.5 8.201V17.5a7.487 7.487 0 01-5.651 7.261l-.116.029-.091.079A2.46 2.46 0 0120 25.5z" fill="#f5ce85"></path><path d="M24.187 5.389A2.816 2.816 0 0127 8.202V17.5a6.988 6.988 0 01-5.275 6.776l-.233.059-.181.159c-.263.231-.703.506-1.311.506s-1.048-.275-1.311-.506l-.181-.159-.233-.059A6.988 6.988 0 0113 17.5V8.202a2.816 2.816 0 012.813-2.813h8.374m0-1h-8.375A3.813 3.813 0 0012 8.202V17.5c0 3.737 2.566 6.866 6.029 7.745.528.464 1.213.755 1.971.755s1.443-.291 1.971-.755C25.434 24.366 28 21.237 28 17.5V8.202a3.813 3.813 0 00-3.813-3.813z" fill="#967a44"></path></g><g><path d="M28 25.5c-1.76 0-3.407-.912-4.269-1.485 1.046-.658 2.769-2.223 2.769-5.372v-4.724c0-2.41-2.086-4.223-2.175-4.299l-.43-.368-.313.473c-.021.032-2.135 3.156-6.65 3.78-2.357.325-3.432 2.109-3.432 3.629v1.509c0 3.193 1.707 4.734 2.757 5.381-.859.573-2.493 1.476-4.257 1.476-1.793 0-3.382-.935-4.16-1.483.881-.695 2.445-2.24 2.445-4.445 0-.928-.176-1.909-.362-2.948C9.715 15.463 9.5 14.263 9.5 13c0-8.488 5.387-11.5 10-11.5 3.803 0 5.031 2.676 5.043 2.702l.132.298H25c3.495 0 5.5 2.733 5.5 7.5 0 1.342-.269 2.836-.527 4.281-.244 1.353-.473 2.631-.473 3.719 0 1.845 1.459 2.852 2.643 3.281-.708.811-2.215 2.219-4.143 2.219z" fill="#a6714e"></path><path d="M19.5 2c3.427 0 4.543 2.315 4.586 2.405l.263.595H25c3.224 0 5 2.486 5 7 0 1.297-.264 2.769-.52 4.193C29.233 17.569 29 18.868 29 20c0 1.766 1.143 2.857 2.292 3.452C30.551 24.167 29.388 25 28 25c-1.274 0-2.497-.524-3.357-1.01C25.732 23.107 27 21.472 27 18.643v-4.724c0-2.638-2.254-4.596-2.35-4.678l-.864-.739-.623.951c-.019.03-1.985 2.961-6.3 3.557-2.654.366-3.863 2.394-3.863 4.123v1.509c0 2.863 1.254 4.489 2.342 5.361-.851.483-2.06.997-3.342.997-1.313 0-2.525-.556-3.331-1.041.942-.88 2.117-2.379 2.117-4.388 0-.972-.18-1.975-.37-3.036C10.211 15.396 10 14.218 10 13c0-8.119 5.118-11 9.5-11m0-1C14.212 1 9 4.694 9 13c0 2.454.786 4.682.786 6.571C9.786 22.327 7 24 7 24s2.254 2 5 2c2.794 0 5.211-2.056 5.211-2.056S14 22.918 14 18.643v-1.509c0-1.354.942-2.849 3-3.134 4.816-.665 7-4 7-4s2 1.711 2 3.919v4.724c0 4.194-3.214 5.302-3.214 5.302S25.225 26 28 26c3.005 0 5-3 5-3s-3-.535-3-3c0-2.19 1-5.352 1-8 0-5.761-2.766-8-6-8 0 0-1.328-3-5.5-3z" fill="#7a4f34"></path></g></svg>