<svg viewBox="0 0 40 40" xmlns="http://www.w3.org/2000/svg"><path d="M15 33.5C7.005 33.5.5 26.995.5 19S7.005 4.5 15 4.5 29.5 11.005 29.5 19 22.995 33.5 15 33.5z" fill="#839cb2"></path><path d="M15 5c7.72 0 14 6.28 14 14s-6.28 14-14 14S1 26.72 1 19 7.28 5 15 5m0-1C6.729 4 0 10.729 0 19s6.729 15 15 15 15-6.729 15-15S23.271 4 15 4z" fill="#66798f"></path><circle cx="15" cy="19" r="12" fill="#c2e8ff"></circle><path d="M17.927 7.375a12.539 12.539 0 00-1.351-.259c-.042-.005-.082-.014-.124-.019A11.217 11.217 0 0015 7a12.01 12.01 0 00-3.568.539 11.974 11.974 0 00-3.537 1.806 12.074 12.074 0 00-2.451 2.417 11.958 11.958 0 00-1.797 3.374 11.89 11.89 0 00-.586 2.637C3.021 18.176 3 18.586 3 19a12 12 0 00.102 1.49L17.927 7.375zM11.036 23l13.225-11.631a12.058 12.058 0 00-2.744-2.436l-12.975 11.4L11.036 23z" fill="#e1f5ff"></path><path d="M26 36.493c-1.161 0-2.336-.113-3.5-.338v-6.662H21a2.503 2.503 0 01-2.5-2.5v-3.321l-2.461-1.127a.99.99 0 01-.514-.667.996.996 0 01.188-.836l2.791-4.005.019-.106a9.665 9.665 0 019.514-7.937c1.797 0 3.589.48 5.329 1.429a7.186 7.186 0 012.837 2.78c3.068 5.458.854 10.664-2.502 13.19l-.199.15v8.344A18.309 18.309 0 0126 36.493z" fill="#ffeea3"></path><path d="M28.036 9.494c1.712 0 3.423.46 5.088 1.369a6.694 6.694 0 012.642 2.586c2.937 5.224.927 10.065-2.368 12.545l-.398.3v8.266a17.777 17.777 0 01-10 1.177v-6.744h-2c-1.103 0-2-.897-2-2v-3.642l-.583-.267-2.139-.979a.495.495 0 01-.265-.337.491.491 0 01.094-.418l.017-.022.016-.022 2.712-3.894.124-.178.039-.214a9.163 9.163 0 019.021-7.526m0-1c-4.995 0-9.142 3.601-10.005 8.347l-2.712 3.894a1.5 1.5 0 00.513 2.266l2.168.993v3a3 3 0 003 3h1v6.57c1.291.277 2.627.43 4 .43 2.862 0 5.566-.651 8-1.784v-8.416c3.821-2.877 5.72-8.352 2.638-13.834a7.695 7.695 0 00-3.035-2.974c-1.89-1.033-3.783-1.492-5.567-1.492z" fill="#ba9b48"></path><path d="M30.5 26.754v-2.058c.878-.33 3-1.369 3-3.703 0-2.273-1.767-3.5-3.429-3.5-1.667 0-2.902 1.428-3.33 2H26.5v-6H26c-2.376 0-5.276-1.789-5.488-3.324.639-.691 3.668-3.676 8.325-3.676 5.979 0 10.663 4.618 10.663 10.514 0 4.063-1.756 6.38-3.455 8.621-.923 1.217-1.802 2.377-2.304 3.73L30.5 26.754z" fill="#ffc49c"></path><path d="M28.838 6.994C34.536 6.994 39 11.392 39 17.007c0 3.895-1.705 6.144-3.353 8.32-.803 1.06-1.574 2.077-2.11 3.227L31 26.514v-1.483c1.092-.48 3-1.66 3-4.038 0-2.598-2.024-4-3.929-4-1.319 0-2.386.769-3.071 1.448v-5.448h-1c-2.115 0-4.533-1.512-4.94-2.676.863-.879 3.635-3.323 7.778-3.323m0-1c-5.556 0-8.838 4-8.838 4 0 1.897 3.261 4 6 4v6h1s1.281-2 3.071-2c1.499 0 2.929 1.094 2.929 3 0 2.531-3 3.344-3 3.344v2.656l4 3.214c1.031-4.089 6-6.308 6-13.201 0-6.201-4.962-11.013-11.162-11.013z" fill="#a16a4a"></path><circle cx="22" cy="19" r="1" fill="#36404d"></circle><path d="M8.97 16.84a10.157 10.157 0 00-3.099-5.617A11.945 11.945 0 003 19c0 4.133 2.09 7.777 5.27 9.935.449-.524.73-1.197.73-1.941v-3L11.169 23a1.5 1.5 0 00.513-2.266L8.97 16.84z" fill="#ffeea3"></path><path d="M8.97 16.84a10.155 10.155 0 00-3.094-5.622 12.03 12.03 0 00-.613.788 9.141 9.141 0 012.723 5.014l.039.214.124.178 2.712 3.894.016.022.017.022a.495.495 0 01.094.418.48.48 0 01-.235.323l-2.169.994-.584.267v3.642c0 .519-.204.988-.529 1.344.259.209.523.41.799.597.449-.524.73-1.197.73-1.941v-3L11.169 23a1.5 1.5 0 00.513-2.266L8.97 16.84z" fill="#ba9b48"></path><circle cx="5" cy="19" r="1" fill="#36404d"></circle></svg>