<svg viewBox="0 0 40 40" xmlns="http://www.w3.org/2000/svg"><path fill="#dcd5f2" stroke="#8b75a1" stroke-miterlimit="10" d="M34.617 1.383L28 8"></path><path fill="#dcd5f2" d="M34.294 6L30 10.293 25.708 6l4.293-4.293z"></path><path d="M30 2.414L33.586 6 30 9.586 26.414 6 30 2.414M30 1l-5 5 5 5 5-5-5-5z" fill="#8b75a1"></path><path d="M33.478 38.5a.906.906 0 01-.8-.478L20.828 15.5H26.7l10.693 20.106a.9.9 0 01.064.704.902.902 0 01-.458.535l-3.117 1.559a.893.893 0 01-.404.096z" fill="#a3b7cc"></path><path d="M26.399 16l10.553 19.843a.408.408 0 01-.177.556l-3.116 1.558a.403.403 0 01-.537-.163L21.656 16h4.743M27 15h-7l12.237 23.26a1.407 1.407 0 001.868.591l3.116-1.558a1.407 1.407 0 00.612-1.921L27 15z" fill="#788b9c"></path><path fill="none" stroke="#66798f" stroke-miterlimit="10" d="M26 18l9.478 17.968"></path><path fill="#212121" d="M9 25l-3 3-3-3 3-3z"></path><path d="M4.915 35.31c-1.507-1.416-2.316-2.869-2.406-4.323-.109-1.761.887-2.901.897-2.912l5.923-7.771L25.932 3.707 33.225 11l-3.793 3.793v2.917l-6.635 3.791c-4.108.063-7.093 3.02-7.22 3.146L4.915 35.31z" fill="#8bb7f0"></path><path d="M25.932 4.414L32.518 11l-3.293 3.293-.293.293v2.834l-6.273 3.584c-4.242.127-7.306 3.159-7.434 3.289L4.911 34.606c-3.336-3.412-1.376-5.917-1.132-6.2l.025-.029.023-.03 5.859-7.687L25.932 4.414m0-1.414l-17 17-5.899 7.741S-.267 31.445 4.932 36l11-11s2.982-3 7-3l7-4v-3l4-4-8-8z" fill="#4e7ab5"></path><circle cx="26.5" cy="11.5" r="2" fill="#c2e8ff"></circle><path d="M26.5 10a1.5 1.5 0 11-.001 3.001A1.5 1.5 0 0126.5 10m0-1c-1.378 0-2.5 1.122-2.5 2.5s1.122 2.5 2.5 2.5 2.5-1.122 2.5-2.5S27.878 9 26.5 9z" fill="#4e7ab5"></path><circle cx="9" cy="24" r="1" fill="#ffeea3"></circle><g><path fill="#839cb2" d="M7.673 18.967l8.666-10.592 5.598-3.731 2.419 2.419-3.731 5.597-10.591 8.666z"></path><path d="M21.873 5.287l1.841 1.841-3.462 5.193-10.184 8.332-1.72-1.72L16.68 8.749l5.193-3.462M22 4l-6 4-9 11 3 3 11-9 4-6-3-3z" fill="#66798f"></path></g><path d="M3.705 33.055l4.258-4.258-.707-.707-4.008 4.008c.108.306.261.625.457.957z" fill="#c2e8ff"></path></svg>