<svg viewBox="0 0 40 40" xmlns="http://www.w3.org/2000/svg"><path d="M30.597 38.5c-.629 0-1.24-.126-1.815-.376-3.455-1.498-10.136-4.896-16.073-10.833S3.374 14.673 1.876 11.219c-.758-1.748-.364-3.761 1.003-5.128l3.727-3.727A2.932 2.932 0 018.693 1.5c.789 0 1.53.307 2.087.865l4.883 4.883a2.956 2.956 0 010 4.175l-5.11 5.11.112.301c.061.163 1.522 4.028 4.998 7.503 3.475 3.476 7.34 4.938 7.503 4.998l.301.112 5.11-5.11a2.933 2.933 0 012.088-.865c.789 0 1.53.307 2.087.865l4.883 4.883a2.956 2.956 0 010 4.175l-3.727 3.727a4.717 4.717 0 01-3.311 1.378z" fill="#bae0bd"></path><path d="M8.693 2c.655 0 1.271.255 1.734.718l4.883 4.883a2.455 2.455 0 010 3.468l-4.883 4.883-.454.454.224.602c.062.167 1.561 4.131 5.113 7.683 3.552 3.552 7.516 5.051 7.683 5.113l.602.224.454-.454 4.883-4.883a2.436 2.436 0 011.734-.718c.655 0 1.271.255 1.734.718l4.883 4.883a2.455 2.455 0 010 3.468l-3.726 3.726A4.226 4.226 0 0130.596 38c-.56 0-1.103-.113-1.616-.335-3.422-1.483-10.04-4.85-15.918-10.727C7.184 21.06 3.818 14.442 2.335 11.02c-.676-1.559-.323-3.354.897-4.575l3.726-3.726A2.437 2.437 0 018.693 2m0-1c-.883 0-1.767.337-2.441 1.011L2.525 5.738C1.033 7.23.578 9.482 1.417 11.418c1.658 3.826 5.067 10.356 10.938 16.227s12.402 9.279 16.227 10.938c.65.281 1.334.417 2.014.417a5.193 5.193 0 003.666-1.525l3.726-3.726a3.454 3.454 0 000-4.883l-4.883-4.883c-.674-.674-1.558-1.011-2.441-1.011s-1.767.337-2.441 1.011l-4.883 4.883s-3.886-1.444-7.324-4.883c-3.438-3.438-4.883-7.324-4.883-7.324l4.883-4.883a3.454 3.454 0 000-4.883L11.133 2.01A3.44 3.44 0 008.693 1z" fill="#5e9c76"></path></svg>