<svg viewBox="0 0 40 40" xmlns="http://www.w3.org/2000/svg"><path d="M20 2c2.838 0 6 7.392 6 18s-3.162 18-6 18-6-7.392-6-18 3.162-18 6-18m0-1c-3.866 0-7 8.507-7 19s3.134 19 7 19 7-8.507 7-19-3.134-19-7-19z" fill="#7496c4"></path><path d="M8.9 8v1c4.118 0 9.744 1.839 15.05 4.92 6.339 3.68 11.138 8.561 11.94 12.146.218.973.114 1.777-.309 2.389-.69.996-2.28 1.545-4.479 1.545-4.118 0-9.745-1.839-15.051-4.92-6.34-3.68-11.138-8.561-11.94-12.145-.218-.973-.114-1.777.309-2.389C5.109 9.549 6.699 9 8.898 9L8.9 8m-.002 0c-2.483 0-4.377.641-5.3 1.977-2.458 3.56 2.892 10.709 11.951 15.968C21.206 29.23 26.971 31 31.102 31c2.484 0 4.378-.641 5.301-1.977 2.458-3.56-2.892-10.709-11.951-15.968C18.794 9.77 13.029 8 8.898 8z" fill="#7496c4"></path><path d="M31.102 10c2.208 0 3.803.524 4.49 1.477.403.559.508 1.29.311 2.175-.762 3.42-5.559 8.097-11.937 11.639C18.656 28.24 13.023 30 8.898 30c-2.208 0-3.803-.524-4.49-1.477-.403-.559-.508-1.29-.311-2.175.762-3.42 5.559-8.097 11.937-11.639C21.344 11.76 26.977 10 31.102 10m0-1c-4.131 0-9.896 1.693-15.553 4.835C6.49 18.866 1.139 25.704 3.598 29.109 4.521 30.387 6.415 31 8.898 31c4.131 0 9.896-1.693 15.553-4.835 9.059-5.031 14.41-11.869 11.951-15.274C35.479 9.613 33.585 9 31.102 9z" fill="#7496c4"></path><circle cx="20" cy="20" r="3.5" fill="#99c99e"></circle><path d="M20 17c1.654 0 3 1.346 3 3s-1.346 3-3 3-3-1.346-3-3 1.346-3 3-3m0-1a4 4 0 100 8 4 4 0 000-8z" fill="#5e9c76"></path></svg>