<svg viewBox="0 0 40 40" xmlns="http://www.w3.org/2000/svg"><path fill="#fff" d="M1.5 4.5h37v31h-37z"></path><path d="M38 5v30H2V5h36m1-1H1v32h38V4z" fill="#788b9c"></path><path fill="#b5deff" d="M6 9h28v17.875H6z"></path><path fill="#d9f6ff" d="M6 19h28v8H6z"></path><path fill="#7aadf0" d="M6 27h28v4H6z"></path><ellipse cx="14.75" cy="18.143" rx="3.5" ry="3.143" fill="#d9f6ff"/><ellipse cx="11.25" cy="18.143" rx="2.625" ry="2.357" fill="#d9f6ff"/><ellipse cx="20" cy="19.714" rx="3.5" ry="3.143" fill="#d9f6ff"/><ellipse cx="25.25" cy="18.143" rx="3.5" ry="3.143" fill="#d9f6ff"/><ellipse cx="32.25" cy="18.143" rx="1.75" ry="1.571" fill="#d9f6ff"/><ellipse cx="7.75" cy="18.143" rx="1.75" ry="1.571" fill="#d9f6ff"/><ellipse cx="28.75" cy="18.143" rx="2.625" ry="2.357" fill="#d9f6ff"/><path fill="#4a6d9c" d="M6 27h28v-1.616L25.25 20z"></path><path fill="#5d84b8" d="M27 27H6v-4l8.75-4z"></path></svg>