<svg viewBox="0 0 40 40" xmlns="http://www.w3.org/2000/svg"><path d="M20 31.5c-8.847 0-13.633-2.13-14.529-2.571L1.5 18.506v-.935h37v.935l-3.97 10.422C33.633 29.37 28.847 31.5 20 31.5z" fill="#dcd5f2"></path><path d="M38 18.072v.343l-3.867 10.152C32.95 29.121 28.329 31 20 31c-8.282 0-12.944-1.884-14.133-2.436L2 18.415v-.343h36m1-1H1v1.527l4.071 10.687C5.072 29.286 9.902 32 20 32s14.928-2.714 14.928-2.714L39 18.599v-1.527z" fill="#8b75a1"></path><path d="M26 22.5c-2.316 0-4.483-.693-5.655-1.81L20 20.362l-.345.328C18.483 21.807 16.316 22.5 14 22.5c-2.389 0-4.588-.724-5.74-1.889l-.162-.164-.23.017c-.285.021-.574.036-.868.036C3.477 20.5.5 18.897.5 17c0-2.396 8.647-8.5 19.5-8.5s19.5 6.104 19.5 8.5c0 1.897-2.977 3.5-6.5 3.5-.294 0-.583-.015-.868-.036l-.23-.017-.162.164C30.588 21.776 28.389 22.5 26 22.5z" fill="#f5ce85"></path><path d="M20 9c10.902 0 19 6.126 19 8 0 1.419-2.464 3-6 3-.25 0-.514-.011-.831-.034l-.46-.034-.325.328C30.323 21.333 28.26 22 26 22c-2.193 0-4.228-.641-5.31-1.672l-.69-.656-.69.657C18.228 21.359 16.193 22 14 22c-2.26 0-4.323-.667-5.384-1.74l-.325-.328-.46.034C7.514 19.989 7.25 20 7 20c-3.536 0-6-1.581-6-3 0-1.874 8.098-8 19-8m0-1C8.954 8 0 14.277 0 17c0 2.209 3.134 4 7 4 .307 0 .608-.015.905-.037C9.106 22.178 11.383 23 14 23c2.551 0 4.777-.782 6-1.947C21.223 22.218 23.449 23 26 23c2.617 0 4.894-.822 6.095-2.037.297.022.598.037.905.037 3.866 0 7-1.791 7-4 0-2.723-8.954-9-20-9z" fill="#967a44"></path><circle cx="23.5" cy="13.5" r=".5" fill="#7a4f34"></circle><circle cx="30.5" cy="14.5" r=".5" fill="#7a4f34"></circle><circle cx="8.5" cy="14.5" r=".5" fill="#7a4f34"></circle><g><circle cx="19.5" cy="11.5" r=".5" fill="#7a4f34"></circle></g><g><circle cx="15.5" cy="14.5" r=".5" fill="#7a4f34"></circle></g></svg>