<svg viewBox="0 0 40 40" xmlns="http://www.w3.org/2000/svg"><path d="M9 13c-3.26 0-4.5-2.979-4.5-4.998C4.5 7 4.323 5.677 5 5c.799-.799 2.201-.799 3 0s.799 2.201 0 3c-.666.666-1.876.5-3 .5-1.458 0-3.5-.771-3.5-2" fill="none" stroke="#c74343" stroke-linecap="round" stroke-miterlimit="10"></path><path d="M14.363 36.5c-.511 0-.79-.709-.887-1.014a9.584 9.584 0 00-.152-.429c-.483-1.296-1.742-4.669-1.82-15.035 1.656 1.761 5.557 6.675 5.99 7.805-.687.951-.994 3.393-.994 7.81a.864.864 0 01-.863.863h-1.274z" fill="#f78f8f"></path><path d="M12.021 21.352c1.706 1.982 4.28 5.279 4.902 6.446-.65 1.179-.923 3.566-.923 7.838a.37.37 0 01-.364.364h-1.273c-.072 0-.27-.222-.41-.665a9.213 9.213 0 00-.161-.452c-.453-1.216-1.603-4.294-1.771-13.531m-.987-2.395c-.022 0-.034.014-.034.043 0 12.556 1.659 15.557 2 16.636.195.618.614 1.364 1.364 1.364h1.273c.749 0 1.363-.614 1.363-1.364 0-1.989.031-6.668 1-7.636.51-.51-6.425-9.044-6.966-9.043z" fill="#c74343"></path><path d="M28.728 36.5c-.512 0-.791-.709-.888-1.014l-.039-.124c-.346-1.078-1.248-3.891-1.299-15.092 1.453 1.537 4.628 5.539 4.998 6.542-1.013 1.295-1.056 4.609-1.01 7.91.006.35.01.66.01.914a.864.864 0 01-.863.863h-.909z" fill="#f78f8f"></path><path d="M27.012 21.58c1.421 1.65 3.383 4.183 3.913 5.189-.938 1.542-.981 4.642-.935 7.961.006.347.01.654.01.906a.37.37 0 01-.364.364h-.909c-.072 0-.27-.222-.41-.665l-.04-.125c-.326-1.015-1.154-3.597-1.265-13.63m-.974-2.356c-.025 0-.038.016-.038.05 0 12.556 1.023 15.283 1.364 16.363.195.617.613 1.363 1.363 1.363h.909c.75 0 1.364-.614 1.364-1.364 0-1.989-.266-7.371 1-8.636.506-.506-5.427-7.777-5.962-7.776z" fill="#c74343"></path><path d="M23.728 36.5c-.522 0-.941-.538-1.159-1.042-.22-.51-.735-1.703-1.07-5.502l-.04-.46-2.778.004c-2.619 0-5.159-.33-7.549-.982l-.439-.12-.16.427C9.718 30.991 9.5 34.126 9.5 35.637a.864.864 0 01-.863.863H7.363c-.511 0-.79-.709-.887-1.014C6.06 34.163 4.5 27.486 4.5 19c0-6.393 3.762-9.5 11.5-9.5 6.396 0 11.992 4.649 14.681 6.885l.378.313.32-.372c.958-1.112 2.457-1.744 3.779-2.301 1.223-.516 2.396-1.01 2.973-1.835.245.674.369 1.614.369 2.81 0 2.225-1.212 3.5-3.326 3.5h-.894l.251.675c.128.343.191.722.258 1.122.226 1.346.502 3.001 3.611 3.186-.202.862-.647 2.555-.814 3.155-2.05.883-6.419 2.033-11.502 2.565l-.398.042-.047.397c-.195 1.683-.167 3.729-.147 5.084.005.348.009.657.009.91a.864.864 0 01-.863.863h-.91z" fill="#f78f8f"></path><path d="M16 10c6.215 0 11.717 4.572 14.361 6.769l.756.628.641-.745c.881-1.024 2.261-1.605 3.595-2.167.905-.381 1.826-.769 2.516-1.311.08.47.131 1.066.131 1.826 0 1.963-.977 3-2.826 3h-1.613l.502 1.349c.111.298.171.654.234 1.031.215 1.283.528 3.15 3.483 3.545-.191.768-.457 1.776-.611 2.345-2.092.854-6.276 1.927-11.136 2.436l-.797.083-.093.796c-.199 1.716-.171 3.782-.152 5.149.005.346.009.651.009.902a.37.37 0 01-.364.364h-.909c-.22 0-.515-.311-.7-.74-.192-.446-.704-1.63-1.031-5.348l-.081-.92-.924.008h-2.31c-2.575 0-5.07-.325-7.417-.965l-.879-.24-.32.853C9.224 30.883 9 34.092 9 35.636a.37.37 0 01-.364.364H7.364c-.072 0-.27-.222-.41-.665C6.541 34.028 5 27.426 5 19c0-6.056 3.598-9 11-9m0-1C7.716 9 4 12.599 4 19c0 8.875 1.659 15.557 2 16.636.195.618.614 1.364 1.364 1.364h1.273C9.386 37 10 36.386 10 35.636c0-1.612.241-4.618 1-6.636 2.406.656 4.952 1 7.68 1H21c.328 3.727.836 5.023 1.109 5.656.297.688.868 1.344 1.618 1.344h.909c.75 0 1.364-.614 1.364-1.364 0-1.256-.105-3.864.136-5.936 4.979-.521 9.628-1.675 11.864-2.7v.001c.015 0 1.056-3.888 1-4.001-4.194 0-3.358-2.276-4-4h.174C37.433 19 39 17.636 39 15c0-1.416-.161-3.126-1-4 0 2.368-4.736 2.37-7 5-3.521-2.926-8.812-7-15-7z" fill="#c74343"></path><circle cx="32" cy="23" r="1" fill="#36404d"></circle><g><path d="M30.5 18.5c.25-1.354.679-2.063 1.358-2.655" fill="none" stroke="#c74343" stroke-linecap="round" stroke-miterlimit="10"></path></g></svg>