<svg viewBox="0 0 40 40" xmlns="http://www.w3.org/2000/svg"><path d="M29.626 16.487c-1.511-1.679-2.341-3.791-2.341-5.975 0-3.613 2.449-4.437 5.284-5.392 1.971-.664 4.001-1.347 5.329-3.024.409 1.325.602 2.991.602 5.147 0 4.714-3.878 8.731-8.874 9.244z" fill="#ffadad"></path><path d="M37.644 3.105c.241 1.123.356 2.479.356 4.138 0 4.379-3.551 8.123-8.17 8.716-1.322-1.554-2.044-3.471-2.044-5.448 0-3.103 1.786-3.855 4.944-4.918 1.677-.564 3.521-1.184 4.914-2.488M38.026 1c-2.699 4.97-11.24 2.514-11.24 9.512 0 2.494 1.003 4.764 2.64 6.495C34.788 16.58 39 12.376 39 7.243c0-2.372-.23-4.547-.974-6.243z" fill="#c74343"></path><path d="M10.374 16.487C5.378 15.974 1.5 11.957 1.5 7.243c0-2.156.193-3.822.601-5.147C3.429 3.773 5.459 4.456 7.43 5.12c2.835.955 5.284 1.779 5.284 5.392 0 2.184-.829 4.296-2.34 5.975z" fill="#ffadad"></path><path d="M2.356 3.105c1.393 1.304 3.237 1.924 4.915 2.489 3.157 1.063 4.944 1.815 4.944 4.918 0 1.977-.722 3.894-2.044 5.448C5.551 15.366 2 11.622 2 7.243c0-1.659.115-3.015.356-4.138M1.974 1C1.23 2.696 1 4.871 1 7.243c0 5.132 4.212 9.337 9.574 9.763 1.638-1.731 2.64-4 2.64-6.495 0-6.997-8.54-4.541-11.24-9.511z" fill="#c74343"></path><path d="M20 38.5c-8.547 0-15.5-4.606-15.5-10.269 0-3.65 1.357-7.748 3.924-11.851l.076-.121v-2.836C8.5 8.503 13.659 4.5 20 4.5s11.5 4.003 11.5 8.923v2.836l.076.122c2.53 4.044 3.924 8.252 3.924 11.851C35.5 33.894 28.547 38.5 20 38.5z" fill="#fff0f0"></path><path d="M20 5c6.065 0 11 3.779 11 8.423v2.979l.152.243C33.634 20.611 35 24.725 35 28.231 35 33.618 28.271 38 20 38S5 33.618 5 28.231c0-3.556 1.331-7.562 3.848-11.585L9 16.402v-2.979C9 8.779 13.935 5 20 5m0-1C13.373 4 8 8.219 8 13.423v2.692C5.486 20.132 4 24.36 4 28.23 4 34.178 11.163 39 20 39s16-4.822 16-10.769c0-3.814-1.486-8.098-4-12.115v-2.692C32 8.219 26.627 4 20 4z" fill="#c74343"></path><circle cx="13.5" cy="13.5" r="1.5" fill="#36404d"></circle><circle cx="26.5" cy="13.5" r="1.5" fill="#36404d"></circle><path d="M20 25.5c-4.65 0-7.5-.175-7.5-3.625 0-3.634 3.224-6.375 7.5-6.375s7.5 2.741 7.5 6.375c0 3.449-2.85 3.625-7.5 3.625z" fill="#ffadad"></path><path d="M20 16c3.991 0 7 2.526 7 5.875C27 24.717 24.974 25 20 25s-7-.283-7-3.125C13 18.526 16.009 16 20 16m0-1c-4.418 0-8 2.826-8 6.875C12 25.924 15.582 26 20 26s8-.076 8-4.125S24.418 15 20 15z" fill="#c74343"></path><g><circle cx="23" cy="21" r="1" fill="#c74343"></circle></g><g><circle cx="17" cy="21" r="1" fill="#c74343"></circle></g><g><path d="M12 31c1.322 1.388 3.582 4 8 4s6.651-2.584 8-4H12z" fill="#ab3434"></path><path d="M22 28c-.801 0-1.511.379-2 .966-.489-.587-1.199-.966-2-.966-1.473 0-4.698 1.633-6 3h16c-1.302-1.367-4.527-3-6-3z" fill="#c74343"></path></g></svg>