<svg viewBox="0 0 40 40" xmlns="http://www.w3.org/2000/svg"><path fill="#c74343" d="M0 33h40v1H0z"></path><circle cx="6.5" cy="9.5" r="3" fill="#ffeea3"></circle><path d="M6.5 7C7.879 7 9 8.121 9 9.5S7.879 12 6.5 12 4 10.879 4 9.5 5.121 7 6.5 7m0-1a3.5 3.5 0 10-.001 6.999A3.5 3.5 0 006.5 6z" fill="#ba9b48"></path><path d="M18.033 32.167a3.133 3.133 0 01-2.613-1.397L8.03 19.383a3.142 3.142 0 012.602-4.882c1.053 0 2.029.522 2.613 1.398l7.391 11.388c.468.701.633 1.537.469 2.358a3.116 3.116 0 01-1.336 1.995 3.118 3.118 0 01-1.736.527z" fill="#dcd5f2"></path><path d="M10.633 15c.885 0 1.706.439 2.19 1.165l7.4 11.403a2.64 2.64 0 01-.732 3.656 2.623 2.623 0 01-1.458.442 2.628 2.628 0 01-2.19-1.164L8.443 19.1a2.64 2.64 0 012.19-4.1m0-1a3.637 3.637 0 00-3.022 5.655l7.393 11.392a3.632 3.632 0 005.042 1.008 3.637 3.637 0 001.009-5.043L13.662 15.62A3.636 3.636 0 0010.633 14z" fill="#8b75a1"></path><g><path d="M18.258 32.5a3.133 3.133 0 01-2.613-1.396l-1.203-1.854 5.646-4.157 4.928-3.776c.164-.157.295-.252.44-.325l8.87-4.331a1.5 1.5 0 01.673-.159c.573 0 1.088.317 1.344.828a1.504 1.504 0 01-.671 2.013l-8.68 4.235-.069.086c-.057.07-5.705 7.051-6.397 7.855a3.02 3.02 0 01-.529.454 3.14 3.14 0 01-1.739.527z" fill="#99c99e"></path><path d="M34.997 17a1 1 0 01.458 1.889l-8.584 4.188-.199.097-.14.172c-.057.07-5.7 7.044-6.359 7.812a2.633 2.633 0 01-.457.398 2.628 2.628 0 01-3.648-.72l-.95-1.464 5.281-3.889 4.921-3.771.052-.04.047-.047a.998.998 0 01.251-.184l8.88-4.337c.141-.068.292-.104.447-.104m0-1c-.3 0-.605.068-.892.21l-8.874 4.334a2.004 2.004 0 00-.52.375L19.79 24.69l-6.024 4.436 1.463 2.254a3.632 3.632 0 005.043 1.008c.238-.159.444-.346.632-.546.705-.82 6.407-7.867 6.407-7.867l8.584-4.188a2.002 2.002 0 00.895-2.684A2.005 2.005 0 0034.997 16z" fill="#5e9c76"></path></g><g><path d="M9.997 17.5a1.498 1.498 0 01-.183-2.987l7.49-.937L21.94 8.94c.283-.284.66-.44 1.06-.44s.777.156 1.061.439a1.501 1.501 0 010 2.121l-5 5a1.508 1.508 0 01-.874.428l-8.001 1a1.51 1.51 0 01-.189.012z" fill="#ffeea3"></path><path d="M23 9a1 1 0 01.707 1.707l-5 5a.999.999 0 01-.583.285l-8.003 1a.998.998 0 01-.91-1.606.991.991 0 01.665-.378l7.319-.915.34-.043.243-.243 4.515-4.515A.996.996 0 0123 9m0-1c-.512 0-1.023.195-1.414.586l-4.515 4.515-7.319.915a2 2 0 00.496 3.968l8-1a2 2 0 001.166-.57l5-5A2 2 0 0023 8z" fill="#ba9b48"></path></g></svg>