<svg viewBox="0 0 40 40" xmlns="http://www.w3.org/2000/svg"><path d="M13.341 13.919l8.792-8.792a8.944 8.944 0 016.37-2.627c2.414 0 4.676.933 6.37 2.627 3.512 3.513 3.512 9.228 0 12.74l-8.792 8.792-12.74-12.74z" fill="#8bb7f0"></path><path d="M28.503 3c2.28 0 4.417.881 6.016 2.481 3.317 3.317 3.317 8.715 0 12.033l-8.439 8.439-12.032-12.034 8.439-8.439A8.447 8.447 0 0128.503 3m0-1a9.478 9.478 0 00-6.723 2.773l-9.146 9.146 13.447 13.447 9.146-9.146c3.698-3.698 3.698-9.749 0-13.447A9.48 9.48 0 0028.503 2z" fill="#4e7ab5"></path><g><path d="M11.497 37.518a8.902 8.902 0 01-6.34-2.614c-3.556-3.557-3.556-9.244-.061-12.74l8.68-8.68 12.74 12.74-8.68 8.68a8.9 8.9 0 01-6.339 2.614z" fill="#f78f8f"></path><path d="M13.777 14.191L25.81 26.224l-8.326 8.326a8.403 8.403 0 01-5.986 2.468 8.405 8.405 0 01-5.986-2.468l-.06-.06a8.403 8.403 0 01-2.468-5.986c0-2.269.877-4.395 2.468-5.986l8.325-8.327m0-1.414L4.743 21.81c-3.681 3.681-3.681 9.705 0 13.386l.06.06a9.436 9.436 0 006.693 2.761c2.426 0 4.853-.92 6.693-2.761l9.033-9.033-13.445-13.446z" fill="#c74343"></path></g></svg>