<svg viewBox="0 0 40 40" xmlns="http://www.w3.org/2000/svg"><path fill="#a3b7cc" d="M1.979 38.729L1 39l.271-.979 17.375-17.375.708.708z"></path><path d="M11.876 18.168l6.506-2.788.078-.185a924.158 924.158 0 004.261-10.229L35.073 17.32c-1.84.688-6.756 2.563-10.286 4.228l-.172.081-2.784 6.496-9.955-9.957z" fill="#8ebc91"></path><path d="M22.898 5.852l11.274 11.274c-2.203.834-6.447 2.485-9.598 3.97l-.343.162-.149.349-2.418 5.642-8.911-8.911 5.642-2.418.369-.158.157-.369a935.12 935.12 0 003.977-9.541m-.355-1.769S20 10.304 18 15l-7 3 11 11 3-7c4.431-2.088 10.978-4.482 10.978-4.482L22.543 4.083z" fill="#5e9c76"></path><path d="M35.134 19.5a2.074 2.074 0 01-1.477-.612L21.112 6.343a2.078 2.078 0 01-.612-1.477c0-.558.218-1.082.612-1.477l1.608-1.675 15.565 15.564-1.669 1.603c-.4.402-.924.619-1.482.619z" fill="#bae0bd"></path><path d="M22.729 2.429l14.843 14.843-1.315 1.263c-.3.3-.698.465-1.122.465-.424 0-.823-.165-1.124-.466L21.466 5.989a1.587 1.587 0 01.014-2.26l1.249-1.3M22.714 1l-1.956 2.036a2.587 2.587 0 000 3.66l12.545 12.545c.506.506 1.169.759 1.831.759s1.325-.253 1.83-.758L39 17.286 22.714 1z" fill="#5e9c76"></path><g><path d="M8.714 18.674l1.633-1.569c.393-.393.905-.605 1.451-.605s1.059.212 1.444.598l9.659 9.659c.386.386.599.899.599 1.445a2.03 2.03 0 01-.599 1.444l-1.575 1.639L8.714 18.674z" fill="#bae0bd"></path><path d="M11.798 17c.412 0 .799.161 1.091.452l9.659 9.658a1.544 1.544 0 01-.014 2.197l-1.215 1.264-11.891-11.89 1.279-1.229A1.536 1.536 0 0111.798 17m0-1c-.651 0-1.301.248-1.798.745l-2 1.922L21.333 32l1.922-2a2.541 2.541 0 000-3.596l-9.659-9.658A2.529 2.529 0 0011.798 16z" fill="#5e9c76"></path></g></svg>