<svg viewBox="0 0 40 40" xmlns="http://www.w3.org/2000/svg"><path d="M19.991 38.5C9.889 38.5 1.77 30.585 1.507 20.481c-.129-4.939 1.674-9.634 5.076-13.218A18.38 18.38 0 0120.009 1.5c10.103 0 18.222 7.915 18.484 18.019.129 4.939-1.674 9.634-5.076 13.218A18.38 18.38 0 0119.991 38.5z" fill="#f2faff"></path><path d="M20.011 1v1c9.828 0 17.727 7.701 17.983 17.532.258 9.922-7.604 18.204-17.526 18.462-.159.004-.319.006-.477.006-9.829 0-17.729-7.701-17.984-17.532A17.884 17.884 0 016.946 7.607 17.88 17.88 0 0120.009 2l.002-1m-.002 0c-.167 0-.336.002-.503.007C9.016 1.279.734 10.004 1.007 20.494 1.275 30.816 9.726 39 19.991 39c.167 0 .336-.002.503-.007 10.49-.273 18.772-8.998 18.499-19.487C38.725 9.184 30.274.999 20.009 1z" fill="#a3b7cc"></path><path fill="#a3b7cc" d="M10.979 29.729L10 30l.271-.979 10.375-10.375.708.708z"></path><path d="M18.12 18.128c2.974-1.518 5.533-4.125 7.03-7.163l3.841 3.841c-3.119 1.452-5.679 4.055-7.036 7.156l-3.835-3.834z" fill="#e87070"></path><path d="M25.279 11.8l2.867 2.867c-2.723 1.434-4.98 3.726-6.341 6.438l-2.856-2.856c2.611-1.485 4.867-3.783 6.33-6.449m-.281-1.695c-1.499 3.463-4.428 6.398-7.73 7.877l4.868 4.868c1.218-3.302 3.987-6.378 7.73-7.877l-4.868-4.868z" fill="#c74343"></path><g><path d="M29.721 15.5c-.273 0-.531-.107-.726-.301L24.8 11.004a1.03 1.03 0 010-1.451l.807-.839 5.68 5.678-.833.8a1.025 1.025 0 01-.733.308z" fill="#f78f8f"></path><path d="M25.614 9.429l4.957 4.957-.479.46a.523.523 0 01-.743 0l-4.195-4.195a.526.526 0 01.014-.758l.446-.464M25.6 8l-1.153 1.2a1.526 1.526 0 000 2.158l4.195 4.195a1.522 1.522 0 002.158 0L32 14.4 25.6 8z" fill="#c74343"></path></g><g><path d="M13.707 17.979l.618-.619a2.92 2.92 0 012.077-.861 2.92 2.92 0 012.077.861l4.16 4.16a2.941 2.941 0 010 4.154l-.619.619-8.313-8.314z" fill="#f78f8f"></path><path d="M16.403 17c.651 0 1.263.254 1.724.714l4.16 4.16c.95.95.95 2.497 0 3.447l-.266.266-7.607-7.607.265-.265A2.422 2.422 0 0116.403 17m0-1a3.43 3.43 0 00-2.431 1.007l-.972.972L22.021 27l.973-.972a3.438 3.438 0 000-4.861l-4.16-4.16A3.43 3.43 0 0016.403 16z" fill="#c74343"></path></g></svg>