<svg viewBox="0 0 40 40" xmlns="http://www.w3.org/2000/svg"><path fill="#c74343" d="M28.675 13.632l-2.307-2.307-3.129 3.129L21 12.214V19h6.786l-2.24-2.239z"></path><circle cx="32" cy="8" r="6.5" fill="#8bb7f0"></circle><path d="M32 2c3.308 0 6 2.692 6 6s-2.692 6-6 6-6-2.692-6-6 2.692-6 6-6m0-1a7 7 0 100 14 7 7 0 000-14z" fill="#4e7ab5"></path><path fill="#c74343" d="M11.325 26.368l2.307 2.307 3.129-3.129L19 27.786V21h-6.786l2.24 2.239z"></path><g><circle cx="8" cy="32" r="6.5" fill="#8bb7f0"></circle><path d="M8 26c3.308 0 6 2.692 6 6s-2.692 6-6 6-6-2.692-6-6 2.692-6 6-6m0-1a7 7 0 100 14 7 7 0 000-14z" fill="#4e7ab5"></path></g></svg>