<svg viewBox="0 0 40 40" xmlns="http://www.w3.org/2000/svg"><path d="M3.721 34.5A2.223 2.223 0 011.5 32.279V7.721c0-1.225.996-2.221 2.221-2.221H36.28c1.225 0 2.221.996 2.221 2.221V32.28a2.223 2.223 0 01-2.221 2.221H3.721z" fill="#66798f"></path><path d="M36.279 6C37.228 6 38 6.772 38 7.721v24.558c0 .949-.772 1.721-1.721 1.721H3.721A1.723 1.723 0 012 32.279V7.721C2 6.772 2.772 6 3.721 6h32.558m0-1H3.721A2.72 2.72 0 001 7.721v24.558A2.72 2.72 0 003.721 35h32.558A2.72 2.72 0 0039 32.279V7.721A2.72 2.72 0 0036.279 5z" fill="#36404d"></path><path fill="#f78f8f" d="M26 9h10v4H26z"></path><path fill="#ffeea3" d="M26 15h10v4H26z"></path><path fill="#bae0bd" d="M26 21h10v4H26z"></path><path fill="#b1c8dd" d="M26 27h10v4H26z"></path><path fill="#f2faff" d="M18 9h4v4h-4zM11 9h4v4h-4zM4 9h4v4H4zM18 15h4v4h-4zM11 15h4v4h-4zM4 15h4v4H4zM18 21h4v4h-4zM11 21h4v4h-4zM4 21h4v4H4z"></path><path fill="#b1c8dd" d="M18 27h4v4h-4z"></path><path fill="#f2faff" d="M11 27h4v4h-4z"></path><g><path fill="#b1c8dd" d="M4 27h4v4H4z"></path></g></svg>