<svg viewBox="0 0 40 40" xmlns="http://www.w3.org/2000/svg"><path d="M6.279 20.5c-.789-1.303-4.61-7.963-4.773-14.968 2.528-.366 6.531-3.203 7.558-3.956.8.346 3.18 1.281 5.508 1.281 2.39 0 5.091-.988 5.892-1.303.649.353 2.617 1.303 4.965 1.303 2.329 0 4.71-.937 5.509-1.281 1.028.75 5.045 3.584 7.554 3.955-.195 5.893-4.013 13.478-4.793 14.969H6.279z" fill="#8bb7f0"></path><path d="M20.432 2.102c.842.429 2.755 1.255 4.997 1.255 2.196 0 4.429-.797 5.442-1.211 1.28.923 4.634 3.217 7.102 3.793-.333 5.424-3.603 12.16-4.578 14.061H6.562c-.984-1.673-4.26-7.686-4.543-14.058 2.482-.569 5.832-2.869 7.111-3.796 1.014.415 3.245 1.211 5.441 1.211 2.29 0 4.838-.868 5.861-1.255M31 1s-2.857 1.357-5.571 1.357S20.5 1 20.5 1s-3.214 1.357-5.929 1.357S9 1 9 1 3.621 5.071 1 5.071C1 13.261 6 21 6 21h28s5-9.143 5-15.929C36.41 5.071 31 1 31 1z" fill="#4e7ab5"></path><path fill="none" stroke="#4e7ab5" stroke-miterlimit="10" d="M20.5 2v19M31 2c-.848 12.02-4 19-4 19M9 2c.848 12.02 4 19 4 19"></path><path fill="#f5ce85" d="M4.391 31.5l-2.75-11h36.718l-2.75 11z"></path><path d="M37.719 21l-2.5 10H4.781l-2.5-10h35.438M39 20H1l3 12h32l3-12z" fill="#967a44"></path><path d="M8.5 22a9.453 9.453 0 00-6.38 2.481L4 32h13.975c.008-.167.025-.331.025-.5 0-5.238-4.262-9.5-9.5-9.5z" fill="#f5ce85"></path><path d="M8.5 25c3.584 0 6.5 2.916 6.5 6.5S12.084 38 8.5 38 2 35.084 2 31.5 4.916 25 8.5 25m0-1a7.5 7.5 0 100 15 7.5 7.5 0 000-15z" fill="#967a44"></path><path fill="none" stroke="#967a44" stroke-miterlimit="10" d="M15.135 31.5H1.865M11.817 25.754L5.183 37.246M11.817 37.246L5.183 25.754"></path><path d="M37.88 24.481A9.453 9.453 0 0031.5 22c-5.238 0-9.5 4.262-9.5 9.5 0 .169.017.333.025.5H36l1.88-7.519z" fill="#f5ce85"></path><path fill="none" stroke="#967a44" stroke-miterlimit="10" d="M38.135 31.5h-13.27M34.817 25.754l-6.634 11.492M34.817 37.246l-6.634-11.492"></path><g><path d="M31.5 25c3.584 0 6.5 2.916 6.5 6.5S35.084 38 31.5 38 25 35.084 25 31.5s2.916-6.5 6.5-6.5m0-1a7.5 7.5 0 100 15 7.5 7.5 0 000-15z" fill="#967a44"></path></g></svg>