<svg viewBox="0 0 40 40" xmlns="http://www.w3.org/2000/svg"><path d="M29.5 26.5V21c0-1.378-1.121-2.5-2.5-2.5H13C6.659 18.5 1.5 13.341 1.5 7V1.5h9V7c0 1.378 1.121 2.5 2.5 2.5h14c6.341 0 11.5 5.159 11.5 11.5v5.5h-9z" fill="#dcd5f2"></path><path d="M10 2v5c0 1.654 1.346 3 3 3h14c6.065 0 11 4.935 11 11v5h-8v-5c0-1.654-1.346-3-3-3H13C6.935 18 2 13.065 2 7V2h8m1-1H1v6c0 6.627 5.373 12 12 12h14a2 2 0 012 2v6h10v-6c0-6.627-5.373-12-12-12H13a2 2 0 01-2-2V1z" fill="#8b75a1"></path><path fill="none" stroke="#8b75a1" stroke-linecap="round" stroke-miterlimit="10" d="M1 1.5h10M29 26.5h10"></path><path d="M34 38.5a2.503 2.503 0 01-2.5-2.5c0-.996 1.364-4.318 2.5-6.812 1.136 2.494 2.5 5.816 2.5 6.812 0 1.378-1.121 2.5-2.5 2.5z" fill="#8bb7f0"></path><path d="M34 30.414c1.007 2.293 2 4.831 2 5.586 0 1.103-.897 2-2 2s-2-.897-2-2c0-.755.993-3.293 2-5.586M34 28s-3 6.343-3 8a3 3 0 106 0c0-1.657-3-8-3-8z" fill="#4e7ab5"></path><path fill="none" stroke="#8b75a1" stroke-linecap="round" stroke-miterlimit="10" d="M19.5 9v10"></path><circle cx="21.5" cy="10.5" r=".5" fill="#8b75a1"></circle><circle cx="21.5" cy="12.5" r=".5" fill="#8b75a1"></circle><circle cx="21.5" cy="14.5" r=".5" fill="#8b75a1"></circle><circle cx="21.5" cy="16.5" r=".5" fill="#8b75a1"></circle><circle cx="17.5" cy="11.5" r=".5" fill="#8b75a1"></circle><circle cx="17.5" cy="13.5" r=".5" fill="#8b75a1"></circle><circle cx="17.5" cy="15.5" r=".5" fill="#8b75a1"></circle><circle cx="17.5" cy="17.5" r=".5" fill="#8b75a1"></circle></svg>