<svg viewBox="0 0 40 40" xmlns="http://www.w3.org/2000/svg"><path d="M16.261 38.44c-.257 0-.517-.021-.771-.062-1.171-.191-2.203-.791-2.983-1.735l-.12-.145-2.031-.331a2.215 2.215 0 01-1.826-2.539l.874-5.352a2.2 2.2 0 012.538-1.826l1.645.268.18-.252c1.818-2.538 2.484-6.486 4.183-16.892l4.364.712c-1.694 10.386-2.316 14.333-1.404 17.343l.09.299 1.646.269a2.214 2.214 0 011.826 2.539l-.874 5.352a2.2 2.2 0 01-2.178 1.855c-.119 0-.239-.01-.359-.029l-2.031-.331-.159.099a4.962 4.962 0 01-2.61.758zm.239-9.94c-2.206 0-4 1.794-4 4s1.794 4 4 4 4-1.794 4-4-1.794-4-4-4z" fill="#dcd5f2"></path><path d="M18.361 10.148l3.378.551C20.092 20.8 19.5 24.704 20.43 27.775l.181.597.615.1 1.338.218a1.713 1.713 0 011.413 1.964l-.873 5.352a1.704 1.704 0 01-1.965 1.413l-1.846-.301-.371-.06-.319.198a4.437 4.437 0 01-2.344.684c-.23 0-.462-.019-.691-.056-1.05-.171-1.976-.711-2.678-1.56l-.239-.289-.371-.06-1.846-.301a1.7 1.7 0 01-1.114-.69 1.703 1.703 0 01-.3-1.275l.873-5.352a1.704 1.704 0 011.965-1.413l1.338.218.612.1.361-.504c1.859-2.591 2.539-6.487 4.192-16.61M16.5 37c2.481 0 4.5-2.019 4.5-4.5S18.981 28 16.5 28 12 30.019 12 32.5s2.019 4.5 4.5 4.5m1.035-28c-1.739 10.66-2.397 14.693-4.176 17.175l-1.338-.218a2.713 2.713 0 00-3.113 2.239l-.873 5.352a2.71 2.71 0 002.239 3.112l1.846.301c.807.976 1.94 1.69 3.288 1.91.287.047.571.069.852.069a5.43 5.43 0 002.872-.835l1.846.301a2.713 2.713 0 003.113-2.239l.873-5.352a2.71 2.71 0 00-2.239-3.112l-1.338-.218c-.893-2.946-.244-6.924 1.5-17.611L17.535 9zM16.5 36a3.5 3.5 0 110-7 3.5 3.5 0 010 7z" fill="#8b75a1"></path><path d="M29.5 15.394c-1.44-.266-5.239-.894-9-.894s-7.56.628-9 .894V1.5h18v13.894z" fill="#dcd5f2"></path><path d="M29 2v12.795c-1.735-.302-5.095-.795-8.5-.795s-6.765.493-8.5.795V2h17m1-1H11v15s4.75-1 9.5-1 9.5 1 9.5 1V1z" fill="#8b75a1"></path><g><path fill="#8b75a1" d="M11.357 4H30v1H11.357z"></path></g><circle cx="20.5" cy="9.5" r="2.5" fill="#8b75a1"></circle></svg>