<svg viewBox="0 0 40 40" xmlns="http://www.w3.org/2000/svg"><path d="M16.707 21.389L36.201 1.895c.255-.255.593-.395.952-.395s.698.14.952.395a1.348 1.348 0 010 1.904L18.611 23.293l-1.904-1.904z" fill-rule="evenodd" clip-rule="evenodd" fill="#f5ce85"></path><path d="M37.153 2a.847.847 0 01.599 1.445l-19.14 19.14-1.197-1.197 19.14-19.14A.84.84 0 0137.153 2m0-1c-.473 0-.945.18-1.306.541L16 21.388 18.612 24 38.459 4.152a1.847 1.847 0 000-2.612c-.36-.36-.833-.54-1.306-.54z" fill="#967a44"></path><path fill="none" stroke="#8b75a1" stroke-linecap="round" stroke-linejoin="round" stroke-miterlimit="10" d="M7.285 35.607l8.513-8.512M4.393 32.715l8.512-8.513M1.5 29.822l8.513-8.513M10.178 38.5l8.513-8.513"></path><g><path d="M10.252 21.084l.787-.787c.406-.406.946-.63 1.521-.63s1.114.224 1.521.63l1.864 1.863 2.437-2.436 1.895 1.895-2.436 2.437 1.863 1.864c.406.406.63.946.63 1.521a2.14 2.14 0 01-.63 1.521l-.787.787-8.665-8.665z" fill-rule="evenodd" clip-rule="evenodd" fill="#dcd5f2"></path><path d="M12.559 20.168c.441 0 .855.172 1.167.483l1.51 1.51.707.707.707-.707 1.729-1.729 1.188 1.188-1.729 1.729-.707.707.707.707 1.51 1.51c.312.312.483.726.483 1.167s-.172.855-.483 1.167l-.433.433-7.956-7.956.433-.433a1.642 1.642 0 011.167-.483m5.821-1.15l-2.436 2.436-1.51-1.51c-.518-.518-1.196-.776-1.874-.776s-1.357.259-1.874.776l-1.14 1.14 9.371 9.371 1.14-1.14a2.65 2.65 0 000-3.748l-1.51-1.51 2.436-2.436-2.603-2.603z" fill="#8b75a1"></path></g></svg>