<svg viewBox="0 0 40 40" xmlns="http://www.w3.org/2000/svg"><path fill="none" stroke="#788b9c" stroke-miterlimit="10" d="M23.445 8.275L11.679 20 9.07 26.786l5.323 5.125 4.101-2.794v-.551l-4.101-3.137 4.113-5.118v-7.097"></path><path fill="#788b9c" d="M15 32l-.986-.415 3.223-3.74L19 29z"></path><path fill="#66798f" d="M14 32h1v4h-1z"></path><path d="M6.5 38.5V37c0-.827.673-1.5 1.5-1.5h13c.827 0 1.5.673 1.5 1.5v1.5h-16z" fill="#b0c1d4"></path><path d="M21 36c.551 0 1 .449 1 1v1H7v-1c0-.551.449-1 1-1h13m0-1H8a2 2 0 00-2 2v2h17v-2a2 2 0 00-2-2z" fill="#8499ad"></path><path fill="#788b9c" d="M12 24v-4l-3 6v1h1l5-2v-1z"></path><path fill="#788b9c" d="M17.429 21H12v-1h7z"></path><path d="M24.01 15.822c-1.778-1.921-1.77-3.311-1.761-4.907.01-1.765.022-3.764-2.649-6.435-.112-.112-.122-.381-.023-.701.134-.437.451-.926.868-1.344.691-.69 1.371-.936 1.744-.936.096 0 .226.016.301.091 2.431 2.432 4.25 2.635 5.764 2.635.24 0 .478-.006.714-.013.226-.006.451-.012.677-.012 1.142 0 2.388.13 3.997 1.609l-4.324 5.696-5.308 4.317z" fill="#b0c1d4"></path><path d="M22.188 1.997c2.42 2.397 4.344 2.729 6.065 2.729.245 0 .487-.006.728-.013.221-.006.442-.012.663-.012.999 0 2.01.101 3.317 1.178l-4.006 5.277-4.888 3.974c-1.333-1.592-1.326-2.769-1.318-4.213.011-1.85.023-3.946-2.741-6.737-.004-.187.158-.759.79-1.392.579-.578 1.149-.788 1.39-.788v-.003m0-.997c-.604 0-1.408.393-2.097 1.082-.993.993-1.371 2.225-.845 2.752 4.948 4.948.153 7.097 4.722 11.666l5.71-4.643 4.63-6.099c-1.83-1.83-3.26-2.057-4.665-2.057-.462 0-.921.024-1.391.024-1.535 0-3.183-.261-5.41-2.488-.16-.161-.388-.237-.654-.237z" fill="#8499ad"></path><path d="M25.629 16.5c-.678 0-1.208-.187-1.576-.554-1.332-1.332-.191-4.723 2.489-7.403C28.42 6.666 30.653 5.5 32.371 5.5c.678 0 1.208.187 1.576.554.614.613.724 1.692.311 3.039-.447 1.456-1.441 3.006-2.8 4.364-1.878 1.877-4.111 3.043-5.829 3.043z" fill="#ffeea3"></path><path d="M32.371 6c.54 0 .952.137 1.222.407.993.993.139 4.068-2.489 6.696C29.344 14.863 27.195 16 25.63 16c-.541 0-.952-.137-1.222-.407-.993-.993-.139-4.068 2.489-6.696C28.656 7.137 30.805 6 32.371 6m-.001-1c-1.779 0-4.15 1.158-6.181 3.189-2.927 2.927-4.041 6.558-2.489 8.11.475.475 1.145.7 1.93.7 1.779 0 4.15-1.158 6.181-3.189 2.927-2.927 4.041-6.558 2.489-8.11-.475-.475-1.145-.7-1.93-.7z" fill="#8499ad"></path><path d="M32.371 6c-1.566 0-3.715 1.137-5.474 2.897-1.302 1.302-2.252 2.778-2.675 4.157-.351 1.144-.283 2.07.186 2.539.27.27.681.407 1.222.407 1.565 0 3.714-1.137 5.474-2.897 1.302-1.302 2.252-2.778 2.675-4.157.351-1.144.283-2.07-.186-2.539-.271-.27-.682-.407-1.222-.407z" fill="#ffeea3"></path><path d="M24.574 12.158A3.96 3.96 0 0027 13c2.206 0 4-1.794 4-4a3.96 3.96 0 00-.842-2.426c-1.092.501-2.242 1.302-3.262 2.322-1.024 1.025-1.818 2.155-2.322 3.262z" fill="#f5c276"></path><path d="M25.051 11.264A2.977 2.977 0 0027 12a3 3 0 003-3c0-.749-.285-1.426-.739-1.952a12.26 12.26 0 00-4.21 4.216z" fill="#fff"></path></svg>