<svg viewBox="0 0 40 40" xmlns="http://www.w3.org/2000/svg"><path fill="none" stroke="#788b9c" stroke-miterlimit="10" d="M20.494 28.566l-4.101-3.137 4.113-5.118v-7.097L13.679 20l-2.609 6.786 5.323 5.125 4.101-2.794z"></path><path fill="#788b9c" d="M17 32l-.986-.415 3.223-3.74L21 29z"></path><path d="M24 16.5c-4.136 0-7.5-3.364-7.5-7.5s3.364-7.5 7.5-7.5 7.5 3.364 7.5 7.5-3.364 7.5-7.5 7.5z" fill="#ffeea3"></path><path d="M24 2c3.86 0 7 3.14 7 7s-3.14 7-7 7-7-3.14-7-7 3.14-7 7-7m0-1a8 8 0 100 16 8 8 0 000-16z" fill="#8499ad"></path><path d="M24 12.5c-1.93 0-3.5-1.57-3.5-3.5s1.57-3.5 3.5-3.5 3.5 1.57 3.5 3.5-1.57 3.5-3.5 3.5z" fill="#fff"></path><path d="M24 6a3 3 0 110 6 3 3 0 010-6m0-1c-2.206 0-4 1.794-4 4s1.794 4 4 4 4-1.794 4-4-1.794-4-4-4z" fill="#f5c276"></path><path fill="#66798f" d="M16 32h1v4h-1z"></path><path d="M8.5 38.5V37c0-.827.673-1.5 1.5-1.5h13c.827 0 1.5.673 1.5 1.5v1.5h-16z" fill="#b0c1d4"></path><path d="M23 36c.551 0 1 .449 1 1v1H9v-1c0-.551.449-1 1-1h13m0-1H10a2 2 0 00-2 2v2h17v-2a2 2 0 00-2-2z" fill="#8499ad"></path><path fill="#788b9c" d="M14 24v-4l-3 6v1h1l5-2v-1z"></path><path fill="#788b9c" d="M19.429 21H14v-1h7z"></path></svg>