<svg viewBox="0 0 40 40" xmlns="http://www.w3.org/2000/svg"><path d="M11.954 2.615c12.298 3.454 21.977 13.133 25.431 25.431L2.706 37.294l9.248-34.679z" fill="#f5ce85"></path><path d="M12.305 3.237c11.738 3.475 20.983 12.72 24.458 24.458L3.411 36.589l8.894-33.352M11.6 2L2 38l36-9.6C34.575 15.532 24.468 5.425 11.6 2z" fill="#967a44"></path><path d="M23.5 38.498c-1.103 0-2-.897-2-2v-1.024a2.453 2.453 0 00-3.059-2.375l-.123.033A2.456 2.456 0 0016.5 35.5v.5c0 .827-.673 1.5-1.5 1.5s-1.5-.673-1.5-1.5a1.218 1.218 0 00-1.52-1.178l-9.274 2.473 8.17-30.64c11.21 4.108 18.969 11.86 22.486 22.465l-5.748 1.533a2.848 2.848 0 00-2.114 2.75v3.096a2.002 2.002 0 01-2 1.999z" fill="#ffeea3"></path><path d="M11.217 7.316c10.609 4.033 18.011 11.422 21.499 21.458l-4.432 1.183-.798.212A3.35 3.35 0 0025 33.402v3.096c0 .827-.673 1.5-1.5 1.5s-1.5-.673-1.5-1.5v-1.025a2.954 2.954 0 00-3.694-2.857l-.119.032A2.959 2.959 0 0016 35.5v.5c0 .551-.449 1-1 1s-1-.449-1-1a1.719 1.719 0 00-2.155-1.66l-1.66.443-.008.002-1.723.46-5.043 1.345 7.806-29.274M10.533 6L2 38l6.712-1.79-.001.002 1.733-.464 1.659-.442A.718.718 0 0113 36a2 2 0 104 0v-.5c0-.884.594-1.657 1.447-1.886l.117-.031A1.953 1.953 0 0121 35.473v1.025a2.5 2.5 0 105 0v-3.096c0-1.063.716-1.994 1.743-2.267l.798-.212v-.001L34 29.467C30.219 17.52 21.479 9.868 10.533 6z" fill="#967a44"></path><circle cx="22" cy="26" r="3.5" fill="#f78f8f"></circle><path d="M22 23c1.654 0 3 1.346 3 3s-1.346 3-3 3-3-1.346-3-3 1.346-3 3-3m0-1a4 4 0 100 8 4 4 0 000-8z" fill="#c74343"></path><g><circle cx="8.5" cy="27.5" r="3" fill="#f78f8f"></circle><path d="M8.5 25c1.378 0 2.5 1.122 2.5 2.5S9.878 30 8.5 30 6 28.878 6 27.5 7.122 25 8.5 25m0-1a3.5 3.5 0 100 7 3.5 3.5 0 000-7z" fill="#c74343"></path></g><g><circle cx="15" cy="16" r="2.5" fill="#b0c1d4"></circle><path d="M15 14c1.103 0 2 .897 2 2s-.897 2-2 2-2-.897-2-2 .897-2 2-2m0-1a3 3 0 100 6 3 3 0 000-6z" fill="#66798f"></path></g></svg>