<svg viewBox="0 0 40 40" xmlns="http://www.w3.org/2000/svg"><path fill="#fff" d="M2.5 2.5h35v35h-35z"></path><path d="M37 3v34H3V3h34m1-1H2v36h36V2z" fill="#788b9c"></path><path fill="#f78f8f" d="M2.5 2.5h35v5h-35z"></path><path d="M37 3v4H3V3h34m1-1H2v6h36V2z" fill="#c74343"></path><path fill="#e1ebf2" d="M3 34h34v3H3z"></path><path fill="#c5d4de" d="M23 17h3v3h-3zM28 17h3v3h-3zM18 17h3v3h-3zM23 22h3v3h-3zM28 22h3v3h-3zM13 22h3v3h-3zM18 22h3v3h-3z"></path><path fill="#f78f8f" d="M23.5 27.5h2v2h-2z"></path><path d="M25 28v1h-1v-1h1m1-1h-3v3h3v-3z" fill="#c74343"></path><path fill="#c5d4de" d="M13 27h3v3h-3zM13 17h3v3h-3zM8 22h3v3H8zM23 12h3v3h-3zM28 12h3v3h-3zM18 12h3v3h-3zM13 12h3v3h-3z"></path><g><path fill="#c5d4de" d="M8 17h3v3H8z"></path></g><g><path fill="#c5d4de" d="M8 27h3v3H8z"></path></g><g><path fill="#c5d4de" d="M18 27h3v3h-3z"></path></g></svg>