<svg viewBox="0 0 40 40" xmlns="http://www.w3.org/2000/svg"><path d="M11.772 33.5c-6.709 0-9.669-8.507-10.2-10.233 1.009-.803 5.111-3.767 10.584-3.767 3.561 0 7.344 1.707 7.344 4.871 0 2.843-3.237 3.759-3.27 3.768l-.388.105.02.402c.001.023.1 2.366-1.241 3.774-.682.717-1.64 1.08-2.849 1.08z" fill="#bae0bd"></path><path d="M12.156 20C15.474 20 19 21.532 19 24.371c0 2.44-2.786 3.253-2.901 3.285l-.772.214.037.8c.001.021.084 2.162-1.107 3.409-.593.62-1.405.921-2.484.921-6.02 0-8.895-7.358-9.618-9.553C3.45 22.47 7.217 20 12.156 20m0-1C5.579 19 1 23.091 1 23.091S3.861 34 11.773 34c4.871 0 4.589-5.38 4.589-5.38S20 27.629 20 24.371C20 21.002 16.222 19 12.156 19z" fill="#5e9c76"></path><path d="M19.5 39c0-5.38-.947-11.862-10.368-14.325" fill="none" stroke="#5e9c76" stroke-miterlimit="10"></path><path d="M29.201 35.5c-3.588 0-4.019-4.762-4.036-4.965l-.031-.377-.371-.073c-.09-.019-2.263-.495-2.263-3.072 0-2.931 3.146-4.513 6.106-4.513 4.577 0 7.995 2.742 8.84 3.488-.396 1.584-2.657 9.512-8.245 9.512z" fill="#bae0bd"></path><path d="M28.606 23c4.057 0 7.193 2.266 8.279 3.166-.54 2.015-2.73 8.834-7.684 8.834-3.122 0-3.522-4.323-3.537-4.504l-.06-.756-.745-.146c-.076-.015-1.859-.389-1.859-2.581C23 24.406 25.888 23 28.606 23m0-1C25.181 22 22 23.869 22 27.013c0 3.041 2.667 3.562 2.667 3.562S25.099 36 29.201 36C35.863 36 38 25.818 38 25.818S34.144 22 28.606 22z" fill="#5e9c76"></path><path d="M19.5 39c0-6.536 8.119-11.003 12.475-11.595" fill="none" stroke="#5e9c76" stroke-miterlimit="10"></path><path d="M37 14.5c-.827 0-1.5-.673-1.5-1.5 0-.586.798-2.425 1.5-3.877.702 1.452 1.5 3.292 1.5 3.877 0 .827-.673 1.5-1.5 1.5z" fill="#8bb7f0"></path><path d="M37 10.299c.558 1.227.993 2.345 1 2.701 0 .551-.449 1-1 1s-1-.449-1-.999c.007-.357.442-1.475 1-2.702M37 8s-2 3.895-2 5 .895 2 2 2 2-.895 2-2-2-5-2-5z" fill="#4e7ab5"></path><path d="M25 16.5c-.827 0-1.5-.673-1.5-1.5 0-.586.798-2.425 1.5-3.877.702 1.452 1.5 3.292 1.5 3.877 0 .827-.673 1.5-1.5 1.5z" fill="#8bb7f0"></path><path d="M25 12.299c.558 1.227.993 2.345 1 2.701 0 .551-.449 1-1 1s-1-.449-1-.999c.007-.357.442-1.475 1-2.702M25 10s-2 3.895-2 5 .895 2 2 2 2-.895 2-2-2-5-2-5z" fill="#4e7ab5"></path><g><path d="M31 7.5c-.827 0-1.5-.673-1.5-1.5 0-.586.798-2.425 1.5-3.877.702 1.452 1.5 3.291 1.5 3.877 0 .827-.673 1.5-1.5 1.5z" fill="#8bb7f0"></path><path d="M31 3.299c.558 1.227.993 2.344 1 2.701 0 .551-.449 1-1 1s-1-.449-1-.999c.007-.357.442-1.475 1-2.702M31 1s-2 3.895-2 5 .895 2 2 2 2-.895 2-2-2-5-2-5z" fill="#4e7ab5"></path></g><g><path d="M19 7.5c-.827 0-1.5-.673-1.5-1.5 0-.586.798-2.425 1.5-3.877.702 1.452 1.5 3.291 1.5 3.877 0 .827-.673 1.5-1.5 1.5z" fill="#8bb7f0"></path><path d="M19 3.299c.558 1.227.993 2.344 1 2.701 0 .551-.449 1-1 1s-1-.449-1-.999c.007-.357.442-1.475 1-2.702M19 1s-2 3.895-2 5 .895 2 2 2 2-.895 2-2-2-5-2-5z" fill="#4e7ab5"></path></g><g><path d="M13 14.5c-.827 0-1.5-.673-1.5-1.5 0-.586.798-2.425 1.5-3.877.702 1.452 1.5 3.292 1.5 3.877 0 .827-.673 1.5-1.5 1.5z" fill="#8bb7f0"></path><path d="M13 10.299c.558 1.227.993 2.345 1 2.701 0 .551-.449 1-1 1s-1-.449-1-.999c.007-.357.442-1.475 1-2.702M13 8s-2 3.895-2 5 .895 2 2 2 2-.895 2-2-2-5-2-5z" fill="#4e7ab5"></path></g></svg>