<svg viewBox="0 0 40 40" xmlns="http://www.w3.org/2000/svg"><path d="M11.772 33.5c-6.709 0-9.669-8.507-10.2-10.233 1.009-.803 5.111-3.767 10.584-3.767 3.561 0 7.344 1.707 7.344 4.871 0 2.843-3.237 3.759-3.27 3.768l-.388.105.02.402c.001.023.1 2.366-1.241 3.774-.682.717-1.64 1.08-2.849 1.08z" fill="#bae0bd"></path><path d="M12.156 20C15.474 20 19 21.532 19 24.371c0 2.44-2.786 3.253-2.901 3.285l-.772.214.037.8c.001.021.084 2.162-1.107 3.409-.593.62-1.405.921-2.484.921-6.02 0-8.895-7.358-9.618-9.553C3.45 22.47 7.217 20 12.156 20m0-1C5.579 19 1 23.091 1 23.091S3.861 34 11.773 34c4.871 0 4.589-5.38 4.589-5.38S20 27.629 20 24.371C20 21.002 16.222 19 12.156 19z" fill="#5e9c76"></path><path d="M19.5 39c0-5.38-.947-11.862-10.368-14.325" fill="none" stroke="#5e9c76" stroke-miterlimit="10"></path><path d="M29.201 35.5c-3.588 0-4.019-4.762-4.036-4.965l-.031-.377-.371-.073c-.09-.019-2.263-.495-2.263-3.072 0-2.931 3.146-4.513 6.106-4.513 4.577 0 7.995 2.742 8.84 3.488-.396 1.584-2.657 9.512-8.245 9.512z" fill="#bae0bd"></path><path d="M28.606 23c4.057 0 7.193 2.266 8.279 3.166-.54 2.015-2.73 8.834-7.684 8.834-3.122 0-3.522-4.323-3.537-4.504l-.06-.756-.745-.146c-.076-.015-1.859-.389-1.859-2.581C23 24.406 25.888 23 28.606 23m0-1C25.181 22 22 23.869 22 27.013c0 3.041 2.667 3.562 2.667 3.562S25.099 36 29.201 36C35.863 36 38 25.818 38 25.818S34.144 22 28.606 22z" fill="#5e9c76"></path><path d="M19.5 39c0-6.536 8.119-11.003 12.475-11.595" fill="none" stroke="#5e9c76" stroke-miterlimit="10"></path><g><path d="M27.628 17.862l-.203-.046a6.288 6.288 0 01-.477-.123l-.199-.061-2.278 1.211-.09-2.59-.152-.142a6.451 6.451 0 01-.341-.341l-.142-.152-2.59-.09 1.211-2.279-.062-.199a6.795 6.795 0 01-.122-.477l-.046-.203L19.943 11l2.195-1.372.046-.203c.037-.161.074-.321.122-.477l.062-.199-1.211-2.279 2.59-.09.142-.152c.109-.118.223-.231.341-.341l.152-.142.09-2.59 2.279 1.211.199-.062c.156-.048.316-.085.477-.122l.203-.046L29 1.943l1.372 2.195.203.046c.161.037.321.074.477.122l.199.062 2.279-1.211.09 2.59.152.142c.118.109.231.223.341.341l.142.152 2.59.09-1.213 2.278.062.199c.048.156.085.316.122.477l.046.203L38.057 11l-2.195 1.372-.046.203a6.795 6.795 0 01-.122.477l-.062.199 1.211 2.279-2.59.09-.142.152a6.451 6.451 0 01-.341.341l-.152.142-.09 2.59-2.278-1.211-.199.061c-.156.048-.316.085-.477.123l-.203.046L29 20.057l-1.372-2.195z" fill="#ffeea3"></path><path d="M29 2.887l.838 1.34.22.352.404.093c.149.034.299.069.444.113l.396.121.366-.195 1.389-.738.055 1.584.014.413.302.282c.11.102.215.208.318.318l.282.302.413.014 1.584.055-.738 1.389-.195.366.121.396c.045.145.079.295.114.444l.093.404.352.22 1.341.84-1.34.838-.352.22-.093.404a6.555 6.555 0 01-.113.444l-.121.396.195.366.738 1.389-1.584.055-.413.014-.282.302c-.102.11-.208.215-.318.318l-.302.282-.014.413-.055 1.584-1.389-.738-.366-.195-.396.121a6.555 6.555 0 01-.444.113l-.404.093-.22.352-.84 1.342-.838-1.34-.22-.352-.404-.093a6.407 6.407 0 01-.444-.113l-.396-.121-.366.195-1.389.738-.055-1.584-.014-.413-.302-.282a6.358 6.358 0 01-.318-.318l-.282-.302-.413-.014-1.584-.055.738-1.389.195-.366-.121-.396a6.555 6.555 0 01-.113-.444l-.093-.404-.352-.22-1.342-.84 1.34-.838.352-.22.093-.404a5.89 5.89 0 01.114-.444l.121-.396-.195-.366-.738-1.389 1.584-.055.413-.014.282-.302c.102-.11.208-.215.318-.318l.302-.282.014-.413.055-1.584 1.389.738.366.195.396-.121c.145-.044.295-.079.444-.113l.404-.093.22-.352L29 2.887M29 1l-1.686 2.697c-.173.04-.345.08-.513.132L24 2.34l-.111 3.183c-.126.118-.248.24-.366.366L20.34 6l1.489 2.802c-.051.168-.092.34-.132.513L19 11l2.697 1.686c.04.173.08.345.132.513L20.34 16l3.183.111c.118.126.24.248.366.366L24 19.66l2.801-1.489c.168.051.34.092.513.132L29 21l1.686-2.697c.173-.04.345-.08.513-.132L34 19.66l.111-3.183c.126-.118.248-.24.366-.366L37.66 16l-1.489-2.802c.051-.168.092-.34.132-.513L39 11l-2.697-1.686a7.271 7.271 0 00-.132-.513L37.66 6l-3.183-.111a7.896 7.896 0 00-.366-.366L34 2.34l-2.802 1.489a7.863 7.863 0 00-.513-.132L29 1z" fill="#ba9b48"></path></g><circle cx="29" cy="11" r="5" fill="#f5ce85"></circle></svg>