<svg viewBox="0 0 40 40" xmlns="http://www.w3.org/2000/svg"><path d="M20 32.534c-6.893 0-12.5-5.607-12.5-12.5s5.607-12.5 12.5-12.5 12.5 5.607 12.5 12.5-5.608 12.5-12.5 12.5z" fill="#e0ac89"></path><path d="M20 8.035c6.617 0 12 5.383 12 12s-5.383 12-12 12-12-5.383-12-12 5.383-12 12-12m0-1c-7.18 0-13 5.82-13 13s5.82 13 13 13 13-5.82 13-13-5.82-13-13-13z" fill="#a16a4a"></path><path d="M34.926 20.086c-.475-.526-1.258-1.141-2.044-1.716.07.547.118 1.099.118 1.665 0 .174-.018.342-.025.514.431.356.93.826 1.52 1.489.997 1.217 1.502 2.38 1.502 3.464 0 1.005-.306 3.632-5.833 3.632-4.26 0-9.567-1.375-13.519-3.503C10.258 22.117 5.07 16.054 5.07 12.11c0-2.463 3.023-2.7 4.794-2.736.481.002 1.406.149 2.263.341.46-.352.94-.678 1.445-.967a5.637 5.637 0 00-.466-.15 36.242 36.242 0 00-1.887-.379 21.159 21.159 0 00-3.401-.214c-3.067.079-5.312.94-6.326 2.427-.724 1.246-.514 2.815-.209 3.915 1.128 4.064 5.87 10.073 13.918 14.338C20.349 31.428 25.989 33 30.679 33c3.909 0 6.789-1.071 7.902-2.938.297-.453.424-.935.421-1.526-.006-1.167-.359-4.777-4.076-8.45z" fill="#ffd7bd"></path><g fill="#e0ac89"><path d="M33.748 22.703c.82 1.002 1.249 1.954 1.249 2.799 0 1.747-1.626 2.632-4.833 2.632-4.107 0-9.227-1.328-13.045-3.384-5.986-3.293-11.05-9.083-11.05-12.64 0-.772.434-1.668 3.815-1.737.281.001.75.065 1.258.157.312-.291.646-.557.985-.816-.857-.192-1.782-.338-2.263-.341-1.772.037-4.794.275-4.794 2.737 0 3.944 5.188 10.006 11.576 13.521 3.952 2.128 9.259 3.503 13.519 3.503 5.526 0 5.833-2.628 5.833-3.632 0-1.084-.505-2.247-1.502-3.464a13.802 13.802 0 00-1.52-1.489c-.017.42-.053.833-.109 1.241.265.255.552.544.881.913z"></path><path d="M35.648 19.394c-.72-.788-1.982-1.706-3.032-2.445.113.465.204.938.265 1.421.786.575 1.569 1.19 2.044 1.716 3.718 3.673 4.07 7.282 4.076 8.45.003.591-.124 1.073-.421 1.526C37.469 31.929 34.589 33 30.679 33c-4.69 0-10.331-1.572-15.478-4.314C7.153 24.421 2.412 18.411 1.284 14.348c-.306-1.101-.515-2.669.209-3.915 1.014-1.487 3.259-2.348 6.326-2.427C7.957 8.002 8.1 8 8.248 8c.963 0 1.973.076 2.971.219.682.118 1.318.249 1.887.379.119.03.286.085.466.15.395-.226.805-.423 1.224-.607a7.942 7.942 0 00-1.445-.512 36.293 36.293 0 00-1.963-.395A22.012 22.012 0 008.248 7c-.156 0-.308.002-.455.006C4.397 7.093 1.866 8.11.667 9.869l-.02.03-.019.031c-.9 1.548-.664 3.402-.308 4.685 1.186 4.27 6.102 10.55 14.413 14.954C20.018 32.385 25.83 34 30.679 34c4.27 0 7.464-1.249 8.761-3.426.38-.578.566-1.239.562-2.043-.007-1.459-.447-5.266-4.354-9.137z"></path></g><path d="M18.553 26.009a25.152 25.152 0 01-1.67-.818 30.292 30.292 0 01-.005-.002c.535.288 1.096.561 1.675.82z" fill="#e0ac89"></path><path d="M7.58 16.187c-.13.422-.238.853-.326 1.292 2.103 2.961 5.522 6.024 9.391 8.152 3.694 1.989 8.561 3.305 12.661 3.47.3-.308.583-.631.852-.967-4.106-.001-9.223-1.329-13.039-3.383-4.013-2.208-7.603-5.537-9.539-8.564z" fill="#a16a4a"></path><g><path d="M20.666 20.605a23.038 23.038 0 01-.942-.48c-3.27-1.799-6.387-4.399-8.536-7.094 2.147 2.682 5.274 5.3 8.532 7.092.308.165.624.326.946.482z" fill="#e0ac89"></path><path d="M10.479 11.203l-.109.12c-.104.358-.201.719-.274 1.089 2.103 2.961 5.522 6.024 9.391 8.152 3.694 1.989 8.561 3.305 12.661 3.47.116-.119.218-.25.329-.373.058-.2.108-.404.156-.608-4.042-.075-8.967-1.374-12.672-3.369-3.977-2.188-7.533-5.476-9.482-8.481z" fill="#a16a4a"></path><g><path d="M23.749 15.559a23.358 23.358 0 01-1.025-.521c-2.953-1.625-5.813-3.925-7.93-6.369l.005-.002c2.137 2.456 5.004 4.764 7.921 6.369.334.179.676.354 1.029.523z" fill="#e0ac89"></path><path d="M14.936 8.058c-.319.135-.627.29-.933.449 2.113 2.576 5.128 5.125 8.484 6.971 3.049 1.642 6.892 2.813 10.448 3.269-.033-.34-.09-.672-.149-1.004-3.356-.469-6.958-1.601-9.825-3.145-3.132-1.723-5.994-4.128-8.025-6.54z" fill="#a16a4a"></path></g></g><g><path d="M22.65 32.252a39.941 39.941 0 01-7.682-3.124 38.909 38.909 0 01-.001-.001 40.121 40.121 0 007.69 3.123l-.007.002z" fill="#e0ac89"></path><path d="M7.404 23.199c.16.639.354 1.264.605 1.861a38.377 38.377 0 006.725 4.51 40.62 40.62 0 007.899 3.198 12.93 12.93 0 001.872-.551c-3.077-.721-6.274-1.916-9.303-3.53-3.097-1.642-5.698-3.541-7.798-5.488z" fill="#a16a4a"></path></g></svg>