<svg viewBox="0 0 40 40" xmlns="http://www.w3.org/2000/svg"><path d="M11 38.5c-1.355 0-2.5-1.145-2.5-2.5v-1.774c.61-.354 1-1.009 1-1.726s-.39-1.372-1-1.726v-3.549c.61-.354 1-1.009 1-1.726s-.39-1.372-1-1.726v-3.549c.61-.354 1-1.009 1-1.726s-.39-1.372-1-1.726v-.703c0-4.953 5.65-7.59 5.707-7.616l.293-.132V6.5h11v1.86l.296.133c.057.025 5.704 2.604 5.704 7.578v.703c-.61.354-1 1.009-1 1.726s.39 1.372 1 1.726v3.549c-.61.354-1 1.009-1 1.726s.39 1.372 1 1.726v3.549c-.61.354-1 1.009-1 1.726s.39 1.372 1 1.726V36c0 1.355-1.145 2.5-2.5 2.5H11z" fill="#c2e8ff"></path><path d="M25 7v1.686l.594.264c.054.023 5.406 2.457 5.406 7.121v.435c-.617.464-1 1.198-1 1.993s.383 1.53 1 1.993v3.013c-.617.464-1 1.198-1 1.993s.383 1.53 1 1.993v3.013a2.5 2.5 0 00-1 1.993c0 .795.383 1.53 1 1.993V36c0 1.084-.916 2-2 2H11c-1.084 0-2-.916-2-2v-1.507a2.5 2.5 0 001-1.993c0-.795-.383-1.53-1-1.993v-3.013c.617-.464 1-1.198 1-1.993s-.383-1.53-1-1.993v-3.013c.617-.464 1-1.198 1-1.993s-.383-1.53-1-1.993v-.435c0-4.624 5.361-7.137 5.414-7.161L15 8.644V7h10m1-1H14v2s-6 2.727-6 8.071v1.02c.581.207 1 .756 1 1.408s-.419 1.202-1 1.408v4.184c.581.207 1 .756 1 1.408s-.419 1.202-1 1.408v4.184c.581.207 1 .756 1 1.408s-.419 1.202-1 1.408V36c0 1.657 1.372 3 3 3h18c1.628 0 3-1.343 3-3v-2.092c-.581-.207-1-.756-1-1.408s.419-1.202 1-1.408v-4.184c-.581-.207-1-.756-1-1.408s.419-1.202 1-1.408v-4.184c-.581-.207-1-.756-1-1.408s.419-1.202 1-1.408v-1.02c0-5.368-6-8.036-6-8.036V6z" fill="#7496c4"></path><path d="M14.5 7.5V2.068c0-.313.255-.567.568-.567h9.864c.313 0 .568.255.568.567V7.5h-11z" fill="#8bb7f0"></path><path d="M24.932 2c.035 0 .068.033.068.068V7H15V2.068c0-.035.033-.068.068-.068h9.864m0-1h-9.864C14.481 1 14 1.48 14 2.068V8h12V2.068A1.07 1.07 0 0024.932 1z" fill="#4e7ab5"></path><path fill="#4e7ab5" d="M22 1h1v7h-1zM17 1h1v7h-1z"></path><path d="M30.511 20A2.482 2.482 0 0130 18.5c0-.565.195-1.081.511-1.5H9.489c.316.419.511.935.511 1.5s-.195 1.081-.511 1.5h21.022zM30.511 27A2.482 2.482 0 0130 25.5c0-.565.195-1.081.511-1.5H9.489c.316.419.511.935.511 1.5s-.195 1.081-.511 1.5h21.022zM30.511 34A2.482 2.482 0 0130 32.5c0-.565.195-1.081.511-1.5H9.489c.316.419.511.935.511 1.5s-.195 1.081-.511 1.5h21.022z" fill="#8bb7f0"></path></svg>