<svg viewBox="0 0 40 40" xmlns="http://www.w3.org/2000/svg"><path fill="#fff" d="M2.5 35.5v-33h35v28.441L28.382 35.5z"></path><path d="M37 3v27.632L28.264 35H3V3h34m1-1H2v34h26.5l9.5-4.75V2z" fill="#788b9c"></path><g fill="#c8d1db"><path d="M31.284 35H21v1h8.431l1.853-1zM38 31.391v-3.603l-1-.577v4.716l1-.536z"></path></g><path fill="#788b9c" d="M2 2h36v6H2z"></path><path fill="none" stroke="#8bb7f0" stroke-miterlimit="10" d="M13 15.5h18M9 15.5h1M13 19.5h18M9 19.5h1M13 23.5h18M9 23.5h1M13 27.5h18M9 27.5h1"></path><g fill="#c2e8ff"><path d="M21 24h9l-1.875-1H21zM21 27h9v1h-9z"></path></g><g><path fill="#8bb7f0" d="M23.5 22.831L38.931 31 23.5 39.169z"></path><path d="M24 23.661L37.863 31 24 38.339V23.661M23 22v18l17-9-17-9z" fill="#4e7ab5"></path></g></svg>