<svg viewBox="0 0 40 40" xmlns="http://www.w3.org/2000/svg"><path fill="none" stroke="#967a44" stroke-miterlimit="10" d="M23.5 39V26"></path><path d="M30.828 38.5l-12.857-18H16.5v-5H20c1.379 0 2.5 1.122 2.5 2.5v2.96L32.886 35.5H36c1.379 0 2.5 1.122 2.5 2.5v.5h-7.672z" fill="#f5ce85"></path><path d="M20 16c1.103 0 2 .897 2 2V21.12l.186.261 10.143 14.2.299.419H36c1.103 0 2 .897 2 2h-6.914L18.528 20.419 18.229 20H17v-4h3m0-1h-4v6h1.714l12.857 18H39v-1a3 3 0 00-3-3h-2.857L23 20.8V18a3 3 0 00-3-3z" fill="#967a44"></path><path fill="#f5ce85" d="M13.5 20.5h3v18h-3z"></path><path d="M16 21v17h-2V21h2m1-1h-4v19h4V20z" fill="#967a44"></path><path fill="#f5ce85" d="M1.5 20.5h3v18h-3z"></path><path d="M4 21v17H2V21h2m1-1H1v19h4V20z" fill="#967a44"></path><path d="M1.5 20.5v-13h15v13h-15zm7.5-10c-1.93 0-3.5 1.57-3.5 3.5s1.57 3.5 3.5 3.5 3.5-1.57 3.5-3.5-1.57-3.5-3.5-3.5z" fill="#8bb7f0"></path><path d="M16 8v12H2V8h14M9 18c2.206 0 4-1.794 4-4s-1.794-4-4-4-4 1.794-4 4 1.794 4 4 4m8-11H1v14h16V7zM9 17a3 3 0 110-6 3 3 0 010 6z" fill="#4e7ab5"></path><path fill="#f78f8f" d="M1.5 7.5v-.25L9 1.625l7.5 5.625v.25z"></path><path d="M9 2.25L15.333 7H2.667L9 2.25M9 1L1 7v1h16V7L9 1z" fill="#c74343"></path><g><path fill="none" stroke="#967a44" stroke-miterlimit="10" d="M5 35.5h9"></path></g><g><path fill="none" stroke="#967a44" stroke-miterlimit="10" d="M5 32.5h9"></path></g><g><path fill="none" stroke="#967a44" stroke-miterlimit="10" d="M5 29.5h9"></path></g><g><path fill="none" stroke="#967a44" stroke-miterlimit="10" d="M5 26.5h9"></path></g><g><path fill="none" stroke="#967a44" stroke-miterlimit="10" d="M5 23.5h9"></path></g></svg>