<svg viewBox="0 0 40 40" xmlns="http://www.w3.org/2000/svg"><path d="M6.5 37.5v-35h18.293l8.707 8.707V30c0 4.136-3.364 7.5-7.5 7.5H6.5z" fill="#fff"></path><path d="M24.586 3L33 11.414V30c0 3.86-3.14 7-7 7H7V3h17.586M25 2H6v36h20a8 8 0 008-8V11l-9-9z" fill="#788b9c"></path><path fill="#fff" d="M24.5 11.5v-9h.293l8.707 8.707v.293z"></path><path d="M25 3.414L32.586 11H25V3.414M25 2h-1v10h10v-1l-9-9z" fill="#788b9c"></path><path fill="none" stroke="#c74343" stroke-miterlimit="10" d="M11.429 25.071L16 19l6 6 7-8"></path><circle cx="11" cy="26" r="1.5" fill="#f78f8f"></circle><path d="M11 25c.551 0 1 .449 1 1s-.449 1-1 1-1-.449-1-1 .449-1 1-1m0-1a2 2 0 10-.001 3.999A2 2 0 0011 24z" fill="#c74343"></path><circle cx="22" cy="25" r="1.5" fill="#f78f8f"></circle><path d="M22 24c.551 0 1 .449 1 1s-.449 1-1 1-1-.449-1-1 .449-1 1-1m0-1a2 2 0 10-.001 3.999A2 2 0 0022 23z" fill="#c74343"></path><g><circle cx="29" cy="17" r="1.5" fill="#f78f8f"></circle><path d="M29 16c.551 0 1 .449 1 1s-.449 1-1 1-1-.449-1-1 .449-1 1-1m0-1a2 2 0 10-.001 3.999A2 2 0 0029 15z" fill="#c74343"></path></g><g><circle cx="16" cy="19" r="1.5" fill="#f78f8f"></circle><path d="M16 18c.551 0 1 .449 1 1s-.449 1-1 1c-.551 0-1-.449-1-1s.449-1 1-1m0-1a2 2 0 10-.001 3.999A2 2 0 0016 17z" fill="#c74343"></path></g><g><path fill="#8bb7f0" d="M25.5 24.833L38.938 32 25.5 39.167z"></path><path d="M26 25.667L37.875 32 26 38.333V25.667M25 24v16l15-8-15-8z" fill="#4e7ab5"></path></g></svg>