<svg viewBox="0 0 40 40" xmlns="http://www.w3.org/2000/svg"><path fill="none" stroke="#8b75a1" stroke-miterlimit="10" d="M8 17.5h24"></path><path d="M18 26.5a4.505 4.505 0 01-4.5-4.5V6c0-2.481 2.019-4.5 4.5-4.5h4c2.481 0 4.5 2.019 4.5 4.5v16c0 2.481-2.019 4.5-4.5 4.5h-4z" fill="#dcd5f2"></path><path d="M22 2c2.206 0 4 1.794 4 4v16c0 2.206-1.794 4-4 4h-4c-2.206 0-4-1.794-4-4V6c0-2.206 1.794-4 4-4h4m0-1h-4a5 5 0 00-5 5v16a5 5 0 005 5h4a5 5 0 005-5V6a5 5 0 00-5-5z" fill="#8b75a1"></path><path fill="#dcd5f2" d="M18.5 31.5h3v6h-3z"></path><path d="M21 32v5h-2v-5h2m1-1h-4v7h4v-7z" fill="#8b75a1"></path><path d="M11.5 38.5V38c0-1.378 1.122-2.5 2.5-2.5h9.5v3h-12z" fill="#dcd5f2"></path><path d="M23 36v2H12c0-1.103.897-2 2-2h9m1-1H14a3 3 0 00-3 3v1h13v-4z" fill="#8b75a1"></path><circle cx="20" cy="20" r="1" fill="#c74343"></circle><path fill="none" stroke="#8b75a1" stroke-miterlimit="10" d="M8.5 16v3M31.5 16v3"></path><circle cx="16.5" cy="2.5" r=".5" fill="#8b75a1"></circle><circle cx="18.5" cy="2.5" r=".5" fill="#8b75a1"></circle><circle cx="20.5" cy="2.5" r=".5" fill="#8b75a1"></circle><circle cx="22.5" cy="2.5" r=".5" fill="#8b75a1"></circle><circle cx="17.5" cy="4.5" r=".5" fill="#8b75a1"></circle><circle cx="19.5" cy="4.5" r=".5" fill="#8b75a1"></circle><circle cx="21.5" cy="4.5" r=".5" fill="#8b75a1"></circle><circle cx="23.5" cy="4.5" r=".5" fill="#8b75a1"></circle><circle cx="25.5" cy="4.5" r=".5" fill="#8b75a1"></circle><circle cx="15.5" cy="4.5" r=".5" fill="#8b75a1"></circle><circle cx="16.5" cy="6.5" r=".5" fill="#8b75a1"></circle><circle cx="18.5" cy="6.5" r=".5" fill="#8b75a1"></circle><circle cx="20.5" cy="6.5" r=".5" fill="#8b75a1"></circle><circle cx="22.5" cy="6.5" r=".5" fill="#8b75a1"></circle><circle cx="24.5" cy="6.5" r=".5" fill="#8b75a1"></circle><circle cx="14.5" cy="6.5" r=".5" fill="#8b75a1"></circle><circle cx="17.5" cy="8.5" r=".5" fill="#8b75a1"></circle><circle cx="19.5" cy="8.5" r=".5" fill="#8b75a1"></circle><circle cx="21.5" cy="8.5" r=".5" fill="#8b75a1"></circle><circle cx="23.5" cy="8.5" r=".5" fill="#8b75a1"></circle><circle cx="25.5" cy="8.5" r=".5" fill="#8b75a1"></circle><circle cx="15.5" cy="8.5" r=".5" fill="#8b75a1"></circle><circle cx="16.5" cy="10.5" r=".5" fill="#8b75a1"></circle><circle cx="18.5" cy="10.5" r=".5" fill="#8b75a1"></circle><circle cx="20.5" cy="10.5" r=".5" fill="#8b75a1"></circle><circle cx="22.5" cy="10.5" r=".5" fill="#8b75a1"></circle><circle cx="24.5" cy="10.5" r=".5" fill="#8b75a1"></circle><circle cx="14.5" cy="10.5" r=".5" fill="#8b75a1"></circle><circle cx="16.5" cy="14.5" r=".5" fill="#8b75a1"></circle><circle cx="18.5" cy="14.5" r=".5" fill="#8b75a1"></circle><circle cx="20.5" cy="14.5" r=".5" fill="#8b75a1"></circle><circle cx="22.5" cy="14.5" r=".5" fill="#8b75a1"></circle><circle cx="24.5" cy="14.5" r=".5" fill="#8b75a1"></circle><circle cx="14.5" cy="14.5" r=".5" fill="#8b75a1"></circle><circle cx="17.5" cy="12.5" r=".5" fill="#8b75a1"></circle><circle cx="19.5" cy="12.5" r=".5" fill="#8b75a1"></circle><circle cx="21.5" cy="12.5" r=".5" fill="#8b75a1"></circle><circle cx="23.5" cy="12.5" r=".5" fill="#8b75a1"></circle><circle cx="25.5" cy="12.5" r=".5" fill="#8b75a1"></circle><circle cx="15.5" cy="12.5" r=".5" fill="#8b75a1"></circle><path fill="none" stroke="#8b75a1" stroke-miterlimit="10" d="M13.214 16.5h13.572M20 31.5h0a9.5 9.5 0 01-9.5-9.5v-4.5"></path><path d="M20 31.5h0a9.5 9.5 0 01-9.5-9.5v-4.5M20 31.5h0a9.5 9.5 0 009.5-9.5v-4.5" fill="none" stroke="#8b75a1" stroke-miterlimit="10"></path><g><path fill="#8bb7f0" d="M23.5 22.831L38.931 31 23.5 39.169z"></path><path d="M24 23.661L37.863 31 24 38.339V23.661M23 22v18l17-9-17-9z" fill="#4e7ab5"></path></g></svg>