<svg viewBox="0 0 40 40" xmlns="http://www.w3.org/2000/svg"><path fill="#e1ebf2" d="M2.5 2.5h35v35h-35z"></path><path d="M37 3v34H3V3h34m1-1H2v36h36V2z" fill="#a3b7cc"></path><path d="M17.5 30.5v-2.618a2.385 2.385 0 012.382-2.382h.235a2.385 2.385 0 012.382 2.382V30.5H17.5z" fill="#4b6477"></path><path d="M20.118 26c1.038 0 1.882.844 1.882 1.882V30h-4v-2.118c0-1.038.844-1.882 1.882-1.882h.236m0-1h-.235A2.882 2.882 0 0017 27.882V31h6v-3.118A2.882 2.882 0 0020.118 25z" fill="#36404d"></path><g><path d="M25.5 18.5v-7h2v2.647l.752-.438A1.47 1.47 0 0129 13.5c.827 0 1.5.673 1.5 1.5s-.673 1.5-1.5 1.5c-.258 0-.51-.07-.748-.209l-.752-.438V18.5h-2z" fill="#4b6477"></path><path d="M27 12v6h-1v-6h1m2 2c.551 0 1 .449 1 1s-.449 1-1 1a.984.984 0 01-.497-.142L27.028 15l1.475-.858A.984.984 0 0129 14m-1-3h-3v8h3v-2.277c.295.171.634.277 1 .277a2 2 0 100-4c-.366 0-.705.106-1 .277V11z" fill="#36404d"></path></g><g><path d="M12.5 18.5v-2.647l-.752.438A1.47 1.47 0 0111 16.5c-.827 0-1.5-.673-1.5-1.5s.673-1.5 1.5-1.5c.258 0 .51.07.748.209l.752.438V11.5h2v7h-2z" fill="#4b6477"></path><path d="M14 12v6h-1v-6h1m-3 2c.168 0 .335.048.497.142l1.475.858-1.475.858A.984.984 0 0111 16c-.551 0-1-.449-1-1s.449-1 1-1m4-3h-3v2.277A1.987 1.987 0 0011 13a2 2 0 100 4c.366 0 .705-.106 1-.277V19h3v-8z" fill="#36404d"></path></g></svg>