<svg viewBox="0 0 40 40" xmlns="http://www.w3.org/2000/svg"><path fill="#e1ebf2" d="M2.5 2.5h35v35h-35z"></path><path d="M37 3v34H3V3h34m1-1H2v36h36V2z" fill="#a3b7cc"></path><path fill="#4b6477" d="M11.5 10.5h2v8h-2z"></path><path d="M13 11v7h-1v-7h1m1-1h-3v9h3v-9z" fill="#36404d"></path><g><path fill="#4b6477" d="M26.5 10.5h2v8h-2z"></path><path d="M28 11v7h-1v-7h1m1-1h-3v9h3v-9z" fill="#36404d"></path></g><g><path d="M17.5 30.5V28c0-1.379 1.122-2.5 2.5-2.5s2.5 1.121 2.5 2.5v2.5h-5z" fill="#4b6477"></path><path d="M20 26c1.103 0 2 .897 2 2v2h-4v-2c0-1.103.897-2 2-2m0-1a3 3 0 00-3 3v3h6v-3a3 3 0 00-3-3z" fill="#36404d"></path></g></svg>