<svg viewBox="0 0 40 40" xmlns="http://www.w3.org/2000/svg"><path d="M21.117 6.543C21.117 1.393 18.802.5 17.5.5" fill="none" stroke="#7a4f34" stroke-linecap="round" stroke-miterlimit="10"></path><path d="M20 38.5c-7.182 0-14.5-9.624-14.5-19.069C5.5 9.902 10.197 3.5 17.188 3.5c1.792 0 3.274 1.052 3.289 1.063l.269.194.284-.172c.018-.011 1.797-1.085 3.139-1.085C28.935 3.5 34.5 7.582 34.5 19.086 34.5 28.521 27.047 38.5 20 38.5z" fill="#dcd5f2"></path><path d="M24.169 4c3.069 0 5.519 1.464 7.282 4.352C33.095 11.045 34 14.857 34 19.086 34 28.278 26.804 38 20 38c-6.935 0-14-9.371-14-18.569C6 10.201 10.496 4 17.188 4c1.621 0 2.984.959 2.995.967l.539.392.569-.347C21.72 4.749 23.172 4 24.169 4m0-1c-1.503 0-3.399 1.158-3.399 1.158S19.175 3 17.188 3C9.957 3 5 9.49 5 19.431S12.751 39 20 39s15-9.973 15-19.914C35 10.521 31.422 3 24.169 3z" fill="#8b75a1"></path><path d="M23.5 32.5s3-4.65 3-13.5c0-6.524-3.977-15.5-9.313-15.5" fill="none" stroke="#8b75a1" stroke-linecap="round" stroke-linejoin="round" stroke-miterlimit="10"></path></svg>