<svg viewBox="0 0 40 40" xmlns="http://www.w3.org/2000/svg"><path d="M20 38.5c-5.929 0-10.664-1.008-11.819-1.276-.337-1.146-1.619-5.852-1.674-11.419l-.007-.671-.641.198a3.41 3.41 0 01-1.018.154 3.307 3.307 0 01-2.355-.972 3.369 3.369 0 010-4.759l4.9-4.899.023-.166c.433-3.108.864-5.434.869-5.456l.045-.242-.165-.183c-.125-.14-2.976-3.399-.868-7.305 2.086.058 4.811.725 7.905 1.938l.196.076.191-.086C16.961 2.813 18.448 2.5 20 2.5s3.039.313 4.418.932l.191.086.196-.076c3.097-1.214 5.822-1.881 7.91-1.938 2.108 3.809-.847 7.275-.877 7.311l-.159.183.045.238c.004.022.439 2.346.873 5.46l.023.166 4.896 4.895a3.369 3.369 0 010 4.759 3.309 3.309 0 01-2.355.972c-.345 0-.688-.052-1.018-.154l-.641-.198-.007.671c-.056 5.63-1.336 10.285-1.674 11.419C30.667 37.491 25.932 38.5 20 38.5z" fill="#c2e8ff"></path><path d="M32.418 2.016c1.65 3.367-.848 6.341-.958 6.47l-.318.365.09.476c.004.023.437 2.332.869 5.436l.046.332.237.237 4.777 4.777c.541.542.839 1.261.839 2.026s-.298 1.485-.839 2.026a2.81 2.81 0 01-2.002.825c-.295 0-.587-.044-.869-.132l-1.282-.397-.014 1.343c-.051 5.184-1.154 9.534-1.571 11.001C29.927 37.133 25.489 38 20 38c-5.475 0-9.921-.867-11.421-1.199-.417-1.479-1.521-5.861-1.573-11.001l-.013-1.342-1.282.397a2.95 2.95 0 01-.869.132 2.81 2.81 0 01-2.002-.825C2.298 23.62 2 22.9 2 22.135s.298-1.485.839-2.026l4.782-4.782.237-.237.046-.332c.431-3.093.86-5.41.865-5.433l.09-.486-.331-.366c-.027-.031-2.608-2.957-.938-6.456 1.984.11 4.533.758 7.423 1.889l.391.153.383-.172C17.101 3.299 18.519 3 20 3s2.899.299 4.214.888l.383.172.391-.153c2.893-1.134 5.445-1.782 7.43-1.891M33 1c-2.66 0-5.831.978-8.377 1.975C23.239 2.355 21.669 2 20 2s-3.239.355-4.623.975C12.831 1.978 9.66 1 7 1c-2.595 4.396.786 8.143.786 8.143s-.433 2.323-.872 5.478l-4.782 4.782a3.866 3.866 0 000 5.466 3.81 3.81 0 002.709 1.118 3.95 3.95 0 001.165-.176c.066 6.539 1.78 11.833 1.78 11.833S13.043 39 20 39s12.214-1.357 12.214-1.357 1.714-5.216 1.78-11.833a3.95 3.95 0 001.165.176c.981 0 1.96-.368 2.709-1.118a3.866 3.866 0 000-5.466l-4.777-4.777c-.441-3.163-.877-5.483-.877-5.483S35.596 5.261 33 1z" fill="#7496c4"></path><path d="M30.853 38.5c-1.204 0-2.309-.441-3.11-1.243-.874-.873-1.312-2.083-1.234-3.404.079-1.345.68-2.642 1.691-3.653 1.08-1.08 2.519-1.699 3.947-1.699 1.204 0 2.309.441 3.11 1.243.874.873 1.312 2.083 1.234 3.404-.079 1.345-.68 2.642-1.691 3.653-1.08 1.08-2.518 1.699-3.947 1.699z" fill="#fff"></path><path d="M32.147 29c1.07 0 2.049.389 2.756 1.096 1.625 1.625 1.42 4.474-.457 6.35C33.46 37.434 32.15 38 30.853 38c-1.071 0-2.05-.389-2.757-1.096-1.625-1.625-1.42-4.474.457-6.35C29.54 29.566 30.85 29 32.147 29m0-1c-1.506 0-3.078.624-4.301 1.846-2.27 2.27-2.475 5.747-.457 7.765.932.931 2.173 1.389 3.464 1.389 1.506 0 3.078-.624 4.301-1.846 2.27-2.27 2.475-5.747.457-7.765-.932-.931-2.173-1.389-3.464-1.389z" fill="#7496c4"></path><path d="M9.147 38.5c-1.429 0-2.867-.619-3.947-1.699-1.011-1.012-1.612-2.309-1.691-3.653-.078-1.321.36-2.531 1.234-3.404.801-.802 1.906-1.243 3.11-1.243 1.429 0 2.867.619 3.947 1.699 1.011 1.012 1.612 2.309 1.691 3.653.078 1.321-.36 2.531-1.234 3.404-.801.802-1.906 1.243-3.11 1.243z" fill="#fff"></path><path d="M7.853 29c1.297 0 2.607.566 3.594 1.553 1.877 1.877 2.082 4.726.457 6.35-.707.708-1.686 1.097-2.757 1.097-1.297 0-2.607-.566-3.594-1.553-1.877-1.877-2.082-4.726-.457-6.35C5.803 29.389 6.782 29 7.853 29m0-1c-1.291 0-2.533.458-3.464 1.389-2.018 2.018-1.814 5.494.457 7.765C6.068 38.376 7.641 39 9.147 39c1.291 0 2.533-.458 3.464-1.389 2.018-2.018 1.814-5.494-.457-7.765C10.932 28.624 9.359 28 7.853 28z" fill="#7496c4"></path><path d="M27 15.803C27 18.673 23.866 21 20 21s-7-2.327-7-5.196S16.134 13 20 13s7-.067 7 2.803z" fill="#fff"></path><circle cx="25.5" cy="9.5" r="1.5" fill="#36404d"></circle><circle cx="14.5" cy="9.5" r="1.5" fill="#36404d"></circle><path fill="#7496c4" d="M20 15.5L17.5 13h5z"></path></svg>