<svg viewBox="0 0 40 40" xmlns="http://www.w3.org/2000/svg"><path fill="#fff" d="M2.5 2.5h35v35h-35z"></path><path d="M37 3v34H3V3h34m1-1H2v36h36V2z" fill="#788b9c"></path><path fill="#f78f8f" d="M2.5 2.5h35v5h-35z"></path><path d="M37 3v4H3V3h34m1-1H2v6h36V2z" fill="#c74343"></path><path fill="#e1ebf2" d="M3 34h34v3H3z"></path><path d="M13.183 22.147h-2.7v2.7H9.354v-2.7h-2.7V21.02h2.7v-2.707h1.128v2.707h2.7v1.127zM18.973 15.612v10.021h-1.586v-8.08a4.97 4.97 0 01-.926.522 7.476 7.476 0 01-1.131.38v-1.354c.264-.087.52-.178.766-.273s.489-.202.728-.321.481-.25.725-.396.496-.312.755-.499h.669zM31.899 25.634h-1.586V21.82c0-.733-.104-1.265-.311-1.593s-.557-.492-1.049-.492c-.415 0-.767.207-1.056.622s-.434.911-.434 1.49v3.787H25.87V21.69c0-1.303-.46-1.955-1.381-1.955-.428 0-.78.195-1.056.588s-.414.9-.414 1.524v3.787h-1.586v-7h1.586v1.107h.027c.506-.848 1.242-1.271 2.208-1.271.483 0 .906.134 1.268.399.362.268.609.617.742 1.05.52-.966 1.294-1.449 2.324-1.449 1.541 0 2.311.95 2.311 2.851v4.313z" fill="#36404d"></path></svg>