<svg viewBox="0 0 40 40" xmlns="http://www.w3.org/2000/svg"><path fill="#869ce8" d="M6.5 37.5v-35h18.293l8.707 8.707V37.5z"></path><path d="M24.586 3L33 11.414V37H7V3h17.586M25 2H6v36h28V11l-9-9z" fill="#4e64b5"></path><path fill="#fff" d="M24.5 11.5v-9h.293l8.707 8.707v.293z"></path><path d="M25 3.414L32.586 11H25V3.414M25 2h-1v10h10v-1l-9-9z" fill="#4e64b5"></path><path d="M11.603 18.105a8.903 8.903 0 011.781-.169c1.014 0 1.819.144 2.379.677.52.455.754 1.183.754 1.924 0 .949-.286 1.625-.741 2.106-.546.585-1.417.845-2.132.845-.117 0-.221 0-.338-.013v3.263h-1.703v-8.633zm1.703 3.992c.091.014.182.014.286.014.857 0 1.234-.611 1.234-1.431 0-.767-.312-1.364-1.104-1.364-.156 0-.312.025-.416.064v2.717zM17.543 26.738v-8.763h1.561l1.352 3.433c.273.676.689 1.807.937 2.561h.026c-.053-.923-.17-2.443-.17-4.056v-1.938h1.495v8.763h-1.56l-1.339-3.328a26.253 26.253 0 01-.897-2.639h-.025c.052.884.116 2.235.116 4.004v1.963h-1.496zM29.113 26.504c-.377.156-1.17.312-1.807.312-1.015 0-1.781-.286-2.354-.871-.754-.729-1.157-2.028-1.131-3.536.039-3.186 1.846-4.511 3.731-4.511.663 0 1.144.13 1.417.26l-.286 1.469c-.26-.13-.585-.195-1.001-.195-1.17 0-2.093.793-2.093 3.068 0 2.106.818 2.873 1.625 2.873.155 0 .272-.013.338-.039v-2.119h-.793v-1.391h2.353v4.68z" fill="#fff"></path></svg>