<svg viewBox="0 0 40 40" xmlns="http://www.w3.org/2000/svg"><path d="M6.5 11.179V8.464a5.462 5.462 0 015.429-5.462h0" fill="none" stroke="#788b9c" stroke-miterlimit="10"></path><path d="M12 .999c-.235 0 .235 0 0 0a2 2 0 100 4c.235 0-.235 0 0 0a2 2 0 100-4z" fill="#36404d"></path><path fill="#b0c1d4" d="M9.647 25.5l-4.849-10h30.404l-4.849 10z"></path><path d="M34.404 16l-4.364 9H9.96l-4.364-9h28.808M36 15H4l5.333 11h21.333L36 15z" fill="#66798f"></path><circle cx="20" cy="34" r="4.5" fill="#ffeea3"></circle><path d="M20 30c2.206 0 4 1.794 4 4s-1.794 4-4 4-4-1.794-4-4 1.794-4 4-4m0-1a5 5 0 10.001 10.001A5 5 0 0020 29z" fill="#ba9b48"></path><circle cx="34" cy="34" r="4.5" fill="#ffeea3"></circle><path d="M34 30c2.206 0 4 1.794 4 4s-1.794 4-4 4-4-1.794-4-4 1.794-4 4-4m0-1a5 5 0 10.001 10.001A5 5 0 0034 29z" fill="#ba9b48"></path><g><circle cx="6" cy="34" r="4.5" fill="#ffeea3"></circle><path d="M6 30c2.206 0 4 1.794 4 4s-1.794 4-4 4-4-1.794-4-4 1.794-4 4-4m0-1a5 5 0 10.001 10.001A5 5 0 006 29z" fill="#ba9b48"></path></g><g><path fill="#b0c1d4" d="M2.5 11.5h35v4h-35z"></path><path d="M37 12v3H3v-3h34m1-1H2v5h36v-5z" fill="#66798f"></path></g></svg>