<svg viewBox="0 0 40 40" xmlns="http://www.w3.org/2000/svg"><path d="M9.001 24.23C7.438 22.359 1.5 14.862 1.5 9c0-4.136 3.364-7.5 7.5-7.5s7.5 3.364 7.5 7.5c0 5.912-5.934 13.368-7.499 15.23z" fill="#f78f8f"></path><path d="M9 2c3.86 0 7 3.14 7 7 0 5.34-5.055 12.06-6.998 14.445C7.06 21.052 2 14.307 2 9c0-3.86 3.14-7 7-7m0-1a8 8 0 00-8 8c0 6.989 8 16 8 16s8-8.956 8-16a8 8 0 00-8-8z" fill="#c74343"></path><path d="M9 12.5c-1.93 0-3.5-1.57-3.5-3.5S7.07 5.5 9 5.5s3.5 1.57 3.5 3.5-1.57 3.5-3.5 3.5z" fill="#f2faff"></path><path d="M9 6a3 3 0 110 6 3 3 0 010-6m0-1C6.794 5 5 6.794 5 9s1.794 4 4 4 4-1.794 4-4-1.794-4-4-4z" fill="#c74343"></path><g><path d="M31.001 38.23C29.438 36.359 23.5 28.862 23.5 23c0-4.136 3.364-7.5 7.5-7.5s7.5 3.364 7.5 7.5c0 5.912-5.934 13.368-7.499 15.23z" fill="#8bb7f0"></path><path d="M31 16c3.86 0 7 3.14 7 7 0 5.34-5.055 12.06-6.998 14.445C29.06 35.052 24 28.307 24 23c0-3.86 3.14-7 7-7m0-1a8 8 0 00-8 8c0 6.989 8 16 8 16s8-8.956 8-16a8 8 0 00-8-8z" fill="#4e7ab5"></path></g><g><path d="M31 26.5c-1.93 0-3.5-1.57-3.5-3.5s1.57-3.5 3.5-3.5 3.5 1.57 3.5 3.5-1.57 3.5-3.5 3.5z" fill="#f2faff"></path><path d="M31 20a3 3 0 110 6 3 3 0 010-6m0-1c-2.206 0-4 1.794-4 4s1.794 4 4 4 4-1.794 4-4-1.794-4-4-4z" fill="#4e7ab5"></path></g></svg>