<svg viewBox="0 0 40 40" xmlns="http://www.w3.org/2000/svg"><path d="M32.5 37.5c-1.103 0-2-.897-2-2 0-.553.226-1.068.635-1.453l.382-.359L20 22.567 8.483 33.688l.382.359c.409.385.635.9.635 1.453 0 1.103-.897 2-2 2s-2-.897-2-2c0-.142.02-.291.059-.456l.188-.791-.791.188a1.975 1.975 0 01-.456.059c-1.103 0-2-.897-2-2s.897-2 2-2c.567 0 1.113.251 1.497.689l.346.395L17.84 20.482 5.343 8.417l-.346.394c-.384.438-.93.689-1.497.689-1.103 0-2-.897-2-2s.897-2 2-2c.142 0 .291.02.456.059l.791.188-.188-.791A1.975 1.975 0 014.5 4.5c0-1.103.897-2 2-2s2 .897 2 2c0 .553-.226 1.068-.635 1.453l-.382.36L20 18.397 32.517 6.313l-.382-.359A1.983 1.983 0 0131.5 4.5c0-1.103.897-2 2-2s2 .897 2 2c0 .142-.02.291-.059.456l-.188.791.791-.188c.165-.039.314-.059.456-.059 1.103 0 2 .897 2 2s-.897 2-2 2a1.997 1.997 0 01-1.497-.689l-.346-.394L22.16 20.482l11.497 11.102.346-.395c.384-.438.93-.689 1.497-.689 1.103 0 2 .897 2 2s-.897 2-2 2c-.142 0-.291-.02-.456-.059l-.791-.188.188.791c.039.165.059.314.059.456 0 1.103-.897 2-2 2z" fill="#99c99e"></path><path d="M33.5 3c.827 0 1.5.673 1.5 1.5 0 .101-.015.213-.045.343l-.369 1.572 1.572-.369c.129-.031.241-.046.342-.046.827 0 1.5.673 1.5 1.5S37.327 9 36.5 9c-.43 0-.828-.184-1.121-.519l-.692-.789-.755.729-11.747 11.342-.745.719.745.719 10.748 10.377.755.729.692-.789c.292-.334.69-.518 1.12-.518.827 0 1.5.673 1.5 1.5s-.673 1.5-1.5 1.5c-.101 0-.213-.015-.343-.045l-1.572-.369.369 1.572c.031.129.046.241.046.342 0 .827-.673 1.5-1.5 1.5s-1.5-.673-1.5-1.5c0-.413.169-.799.477-1.089l.765-.719-.755-.729-10.792-10.42-.695-.67-.695.671L8.513 32.963l-.755.729.765.719c.308.29.477.676.477 1.089 0 .827-.673 1.5-1.5 1.5S6 36.327 6 35.5c0-.101.015-.213.045-.343l.369-1.572-1.572.369A1.469 1.469 0 014.5 34c-.827 0-1.5-.673-1.5-1.5S3.673 31 4.5 31c.43 0 .828.184 1.121.519l.692.789.755-.729 10.748-10.377.745-.719-.745-.719L6.068 8.421l-.755-.729-.692.789A1.475 1.475 0 013.5 9C2.673 9 2 8.327 2 7.5S2.673 6 3.5 6c.101 0 .213.015.343.045l1.572.369-.37-1.571A1.533 1.533 0 015 4.5C5 3.673 5.673 3 6.5 3S8 3.673 8 4.5c0 .413-.169.799-.477 1.089l-.765.718.755.729 11.792 11.385.695.672.695-.671L32.487 7.037l.755-.729-.765-.719A1.483 1.483 0 0132 4.5c0-.827.673-1.5 1.5-1.5m0-1A2.5 2.5 0 0031 4.5c0 .718.307 1.361.792 1.817L20 17.703 8.208 6.317A2.486 2.486 0 009 4.5a2.5 2.5 0 10-5 0c0 .198.029.388.072.572A2.503 2.503 0 003.5 5a2.5 2.5 0 100 5c.75 0 1.415-.337 1.873-.86L17.12 20.483 6.373 30.86A2.482 2.482 0 004.5 30a2.5 2.5 0 100 5c.198 0 .388-.029.572-.072A2.503 2.503 0 005 35.5a2.5 2.5 0 105 0c0-.718-.307-1.361-.792-1.817L20 23.263l10.792 10.42A2.486 2.486 0 0030 35.5a2.5 2.5 0 105 0c0-.198-.029-.388-.072-.572.184.043.374.072.572.072a2.5 2.5 0 100-5c-.75 0-1.415.337-1.873.86L22.88 20.483 34.627 9.14c.458.523 1.123.86 1.873.86a2.5 2.5 0 100-5c-.198 0-.388.029-.572.072.043-.184.072-.374.072-.572A2.5 2.5 0 0033.5 2z" fill="#5e9c76"></path><path d="M15 37.5a2.502 2.502 0 01-2.5-2.5V24c0-1.379 1.121-2.5 2.5-2.5h10c1.379 0 2.5 1.121 2.5 2.5v11c0 1.379-1.121 2.5-2.5 2.5H15z" fill="#99c99e"></path><path d="M25 22c1.103 0 2 .897 2 2v11c0 1.103-.897 2-2 2H15c-1.103 0-2-.897-2-2V24c0-1.103.897-2 2-2h10m0-1H15c-1.65 0-3 1.35-3 3v11c0 1.65 1.35 3 3 3h10c1.65 0 3-1.35 3-3V24c0-1.65-1.35-3-3-3z" fill="#5e9c76"></path><path d="M15 33.5a.501.501 0 01-.5-.5v-6.5h-2.55c-1.351 0-2.45-1.1-2.45-2.45v-1.278l-.077-.122A12.46 12.46 0 017.5 16C7.5 9.107 13.107 3.5 20 3.5S32.5 9.107 32.5 16c0 2.354-.665 4.653-1.923 6.649l-.077.122v1.278c0 1.351-1.1 2.45-2.45 2.45H25.5V33c0 .275-.225.5-.5.5H15z" fill="#bae0bd"></path><path d="M20 4c6.617 0 12 5.383 12 12 0 2.259-.638 4.466-1.846 6.383l-.154.244V24.05c0 1.075-.875 1.95-1.95 1.95H25v7H15v-7h-3.05A1.953 1.953 0 0110 24.05V22.627l-.154-.244A11.958 11.958 0 018 16C8 9.383 13.383 4 20 4m0-1C12.82 3 7 8.82 7 16c0 2.543.737 4.912 2 6.916v1.134A2.95 2.95 0 0011.95 27H14v6a1 1 0 001 1h10a1 1 0 001-1v-6h2.05A2.95 2.95 0 0031 24.05v-1.134c1.263-2.004 2-4.372 2-6.916 0-7.18-5.82-13-13-13z" fill="#5e9c76"></path><circle cx="15" cy="21" r="2.5" fill="#4b6477"></circle><path d="M15 19c1.103 0 2 .897 2 2s-.897 2-2 2-2-.897-2-2 .897-2 2-2m0-1a3 3 0 100 6 3 3 0 000-6z" fill="#36404d"></path><circle cx="25" cy="21" r="2.5" fill="#4b6477"></circle><path d="M25 19c1.103 0 2 .897 2 2s-.897 2-2 2-2-.897-2-2 .897-2 2-2m0-1a3 3 0 100 6 3 3 0 000-6z" fill="#36404d"></path><path fill="#fff" d="M19 31h2v2h-2zM23 31h2v2h-2zM15 31h2v2h-2z"></path><path fill="#e1efe2" d="M19 34h2v2h-2zM23 34h2v2h-2zM15 34h2v2h-2z"></path><g><path d="M21.5 28.5a.993.993 0 01-.996-.973l-.014-.486h-.973l-.021.486a.993.993 0 01-.996.973 1 1 0 01-1-1c.008-.183.05-.332.127-.474.464-.989 1.78-2.117 2.374-2.594.599.478 1.931 1.613 2.37 2.588.083.16.121.305.125.452A1.001 1.001 0 0121.5 28.5z" fill="#4b6477"></path><path d="M20.001 25.078c.674.569 1.6 1.451 1.915 2.147l.011.025.013.024c.036.07.055.139.057.213l.002.049A.502.502 0 0121.5 28a.495.495 0 01-.496-.486l-.027-.972H19.023l-.027.972A.495.495 0 0118.5 28a.5.5 0 01-.498-.454l.002-.059a.485.485 0 01.063-.222l.015-.027.013-.028c.327-.698 1.233-1.563 1.906-2.132M20 23.8s-2.16 1.596-2.811 2.985c-.11.202-.178.429-.185.674 0 .011-.004.023-.004.035v.005a1.499 1.499 0 002.996.041h.008A1.499 1.499 0 0023 27.5v-.004-.001c0-.012-.004-.025-.004-.036a1.484 1.484 0 00-.169-.643C22.195 25.412 20 23.8 20 23.8z" fill="#36404d"></path></g></svg>