<svg viewBox="0 0 40 40" xmlns="http://www.w3.org/2000/svg"><path d="M20 39.5c-8.547 0-15.5-4.262-15.5-9.5 0-1.251.11-2.567.91-3.714l.09-.129V26c0-3.5 1.823-6.451 3.352-8.312l.292-.355-.331-.32C3.191 11.554 1.163 3.33.642.739c6.664 2.385 11.497 8.747 13.83 12.419l.214.336.375-.134c1.608-.57 3.27-.86 4.938-.86s3.33.29 4.937.86l.375.134.214-.336C27.859 9.486 32.693 3.124 39.356.739c-.521 2.592-2.555 10.82-8.172 16.273l-.331.32.292.355C32.677 19.549 34.5 22.501 34.5 26v.157l.09.129c.8 1.146.91 2.463.91 3.714 0 5.238-6.953 9.5-15.5 9.5z" fill="#ffeea3"></path><path d="M1.328 1.542C7.412 4.092 11.853 9.97 14.05 13.426l.428.673.751-.267A14.222 14.222 0 0120 13c1.611 0 3.216.28 4.778.834l.747.259.424-.668c2.197-3.456 6.639-9.333 12.722-11.884-.741 3.204-2.857 10.28-7.834 15.112l-.598.583.465.693.027.04.031.037C32.239 19.804 34 22.649 34 26v.314l.18.258c.681.976.82 2.076.82 3.428 0 4.963-6.729 9-15 9S5 34.963 5 30c0-1.352.139-2.452.82-3.428l.18-.258V26c0-3.352 1.761-6.197 3.238-7.994l.585-.711-.661-.641C4.185 11.821 2.07 4.745 1.328 1.542M40 0c-7.257 2.202-12.472 9.079-14.894 12.889h-.001A15.227 15.227 0 0020 12c-1.798 0-3.514.324-5.106.889C12.472 9.079 7.257 2.202 0 0c0 0 1.552 10.659 8.466 17.371C6.51 19.75 5 22.741 5 26v0c-.854 1.223-1 2.58-1 4 0 5.523 7.163 10 16 10s16-4.477 16-10c0-1.42-.146-2.777-1-4v-.001.002V26c0-3.258-1.51-6.249-3.465-8.628l-.001-.001C38.448 10.659 40 0 40 0zM5 25.999z" fill="#ba9b48"></path><path d="M3.685 9.743C1.818 5.928.956 2.307.642.739A19.657 19.657 0 014.55 2.69c-.853.845-1.181 2.717-1.002 5.67.028.458.073.918.137 1.383z" fill="#66798f"></path><path d="M1.327 1.544c.828.35 1.657.775 2.48 1.273-.655 1.032-.817 2.607-.81 4.116a38.976 38.976 0 01-1.67-5.389M0 0s.992 6.815 4.922 12.978c-.453-1.484-.777-3.033-.875-4.648-.237-3.906.449-5.365 1.44-5.618C3.819 1.564 1.988.603 0 0z" fill="#36404d"></path><circle cx="13.5" cy="25.5" r="2" fill="#66798f"></circle><path d="M13.5 24c.827 0 1.5.673 1.5 1.5s-.673 1.5-1.5 1.5-1.5-.673-1.5-1.5.673-1.5 1.5-1.5m0-1a2.5 2.5 0 100 5 2.5 2.5 0 000-5z" fill="#36404d"></path><path d="M26.667 32.5c-3.278 2.032-6.667.078-6.667.078s-3.472 1.975-6.667-.078" fill="#ffeea3" stroke="#ba9b48" stroke-miterlimit="10"></path><circle cx="14.5" cy="24.5" r=".5" fill="#fff"></circle><circle cx="26.5" cy="25.5" r="2" fill="#66798f"></circle><path d="M26.5 24c.827 0 1.5.673 1.5 1.5s-.673 1.5-1.5 1.5-1.5-.673-1.5-1.5.673-1.5 1.5-1.5m0-1a2.5 2.5 0 100 5 2.5 2.5 0 000-5z" fill="#36404d"></path><circle cx="27.5" cy="24.5" r=".5" fill="#fff"></circle><g><path fill="#66798f" d="M18.207 29.5h3.586L20 31.293z"></path><path d="M20.586 30l-.586.586-.586-.586h1.172M23 29h-6l3 3 3-3z" fill="#36404d"></path></g><g><path d="M36.315 9.743c.063-.465.109-.925.137-1.383.18-2.953-.149-4.825-1.002-5.67A19.684 19.684 0 0139.358.739c-.314 1.568-1.176 5.189-3.043 9.004z" fill="#66798f"></path><path d="M38.673 1.544a38.88 38.88 0 01-1.67 5.389c.008-1.509-.155-3.084-.81-4.116a19.357 19.357 0 012.48-1.273M40 0c-1.988.603-3.819 1.564-5.487 2.712.991.253 1.677 1.712 1.44 5.617-.098 1.615-.422 3.164-.875 4.649C39.008 6.815 40 0 40 0z" fill="#36404d"></path></g><g><path d="M33.926 34.156A3.981 3.981 0 0131.5 30.5a3.976 3.976 0 013.28-3.912c.628 1.075.72 2.271.72 3.412 0 1.457-.529 2.854-1.574 4.156z" fill="#f78f8f"></path><path d="M34.519 27.162c.391.83.481 1.752.481 2.838 0 1.224-.411 2.407-1.222 3.526A3.476 3.476 0 0132 30.5a3.474 3.474 0 012.519-3.338m.51-1.115C32.768 26.286 31 28.176 31 30.5c0 1.987 1.296 3.653 3.082 4.25C35.305 33.337 36 31.719 36 30c0-1.402-.146-2.742-.971-3.953z" fill="#c74343"></path></g><g><path d="M6.074 34.156C5.029 32.854 4.5 31.457 4.5 30c0-1.141.092-2.337.72-3.412A3.977 3.977 0 018.5 30.5a3.981 3.981 0 01-2.426 3.656z" fill="#f78f8f"></path><path d="M5.481 27.162A3.474 3.474 0 018 30.5a3.476 3.476 0 01-1.778 3.026C5.411 32.407 5 31.224 5 30c0-1.086.09-2.008.481-2.838m-.51-1.115C4.146 27.258 4 28.598 4 30c0 1.719.695 3.337 1.918 4.75C7.704 34.153 9 32.487 9 30.5c0-2.324-1.768-4.214-4.029-4.453z" fill="#c74343"></path></g></svg>