<svg viewBox="0 0 40 40" xmlns="http://www.w3.org/2000/svg"><path fill="#ab3434" d="M10 17h17v6H10z"></path><path d="M27.5 34.5c-3.309 0-6-2.691-6-6s2.691-6 6-6h6c3.309 0 6 2.691 6 6s-2.691 6-6 6h-6z" fill="#e1ebf2"></path><path d="M33.5 23c3.033 0 5.5 2.467 5.5 5.5S36.533 34 33.5 34h-6c-3.033 0-5.5-2.467-5.5-5.5s2.467-5.5 5.5-5.5h6m0-1h-6c-3.575 0-6.5 2.925-6.5 6.5s2.925 6.5 6.5 6.5h6c3.575 0 6.5-2.925 6.5-6.5S37.075 22 33.5 22z" fill="#788b9c"></path><circle cx="33.5" cy="28.5" r="3" fill="#e1ebf2"></circle><path d="M33.5 26c1.378 0 2.5 1.121 2.5 2.5S34.878 31 33.5 31 31 29.879 31 28.5s1.122-2.5 2.5-2.5m0-1c-1.925 0-3.5 1.575-3.5 3.5s1.575 3.5 3.5 3.5 3.5-1.575 3.5-3.5-1.575-3.5-3.5-3.5z" fill="#788b9c"></path><path d="M33.5 26c1.375 0 2.5 1.125 2.5 2.5S34.875 31 33.5 31a2.507 2.507 0 01-2.5-2.5c0-1.375 1.125-2.5 2.5-2.5z" fill="#bae0bd"></path><path d="M7.5 35.5c-3.86 0-7-3.141-7-7s3.14-7 7-7h10c3.86 0 7 3.141 7 7s-3.14 7-7 7h-10z" fill="#e1ebf2"></path><path d="M17.5 22c3.584 0 6.5 2.916 6.5 6.5S21.084 35 17.5 35h-10C3.916 35 1 32.084 1 28.5S3.916 22 7.5 22h10m0-1h-10C3.375 21 0 24.375 0 28.5S3.375 36 7.5 36h10c4.125 0 7.5-3.375 7.5-7.5S21.625 21 17.5 21z" fill="#788b9c"></path><path fill="#f78f8f" d="M8.5 21.5h20v14h-20z"></path><path d="M28 22v13H9V22h19m1-1H8v15h21V21z" fill="#c74343"></path><path fill="#f78f8f" d="M8.5 4.5h20v14h-20z"></path><path d="M28 5v13H9V5h19m1-1H8v15h21V4z" fill="#c74343"></path><path d="M7.5 31.5c-1.654 0-3-1.346-3-3s1.346-3 3-3h6c1.654 0 3 1.346 3 3s-1.346 3-3 3h-6z" fill="#66798f"></path><path d="M13.5 26c1.378 0 2.5 1.121 2.5 2.5S14.878 31 13.5 31h-6C6.122 31 5 29.879 5 28.5S6.122 26 7.5 26h6m0-1h-6C5.575 25 4 26.575 4 28.5S5.575 32 7.5 32h6a3.5 3.5 0 100-7z" fill="#36404d"></path><g><path fill="#66798f" d="M11.5 8.5h4v6h-4z"></path><path d="M15 9v5h-3V9h3m1-1h-5v7h5V8z" fill="#36404d"></path></g><g><path fill="#c2e8ff" d="M13.5 7.5h12v8h-12z"></path><path d="M25 8v7H14V8h11m1-1H13v9h13V7z" fill="#788b9c"></path></g><path fill="#fff" d="M7 27h1v3H7z"></path><path fill="#fff" d="M6 29v-1h3v1z"></path><g><path fill="#c2e8ff" d="M13.5 24.5h12v8h-12z"></path><path d="M25 25v7H14v-7h11m1-1H13v9h13v-9z" fill="#788b9c"></path></g><path d="M.026 29H2v-1H.026c-.012.166-.026.331-.026.5s.014.334.026.5z" fill="#bae0bd"></path></svg>