<svg viewBox="0 0 40 40" xmlns="http://www.w3.org/2000/svg"><path fill="#cbc4e3" d="M2.5 38.5V10.266l17.497-6.73 17.503 6.73V38.5z"></path><path d="M19.997 4.071L37 10.61V38H3V10.61l16.997-6.539m0-1.071L2 9.923V39h36V9.923L19.997 3z" fill="#8b75a1"></path><path fill="#cbc4e3" d="M19.997 5.458L1.5 13.247V9.332l18.497-7.79L38.5 9.332v3.915z"></path><path d="M19.997 2.085L38 9.664v2.83L20.385 5.078l-.388-.163-.388.163L2 12.494v-2.83l17.997-7.579m0-1.085L1 9v5l18.997-8L39 14V9L19.997 1z" fill="#8b75a1"></path><path d="M20 33.412c-.306-.165-.718-.33-1.234-.536-2.344-.938-6.266-2.509-6.266-6.713 0-1.58.308-2.541.606-3.469.27-.842.549-1.712.549-2.943 0-1.167-.634-2.426-.997-3.051l1.331-1.054c.724.519 1.824.82 3.048.82 1.195 0 2.246-.291 2.962-.81.717.519 1.767.81 2.962.81 1.224 0 2.324-.301 3.048-.82L27.34 16.7c-.363.625-.997 1.884-.997 3.051 0 1.207.265 2.037.546 2.916.3.939.61 1.91.61 3.497 0 4.205-3.922 5.775-6.266 6.713-.515.206-.927.37-1.233.535z" fill="#f5ce85"></path><path d="M20 16.251c.78.46 1.814.714 2.962.714 1.157 0 2.223-.256 3.015-.708l.72.57c-.383.729-.852 1.842-.852 2.923 0 1.285.289 2.191.569 3.068.301.944.586 1.836.586 3.344 0 3.568-2.941 5.044-5.952 6.249-.41.164-.757.303-1.048.441-.29-.138-.638-.277-1.048-.441C15.941 31.206 13 29.73 13 26.162c0-1.502.283-2.383.582-3.317.282-.878.573-1.787.573-3.096 0-1.08-.469-2.194-.852-2.923l.72-.57c.792.452 1.858.708 3.015.708 1.148.001 2.182-.253 2.962-.713M26 15c-.617.628-1.827.965-3.038.965-1.157 0-2.316-.308-2.962-.965-.646.657-1.805.965-2.962.965-1.212 0-2.421-.338-3.038-.965l-2 1.583s1.156 1.702 1.156 3.167c0 2.454-1.156 3.285-1.156 6.412 0 5.779 6.794 6.927 8 7.838 1.206-.91 8-2.058 8-7.838 0-3.127-1.156-3.998-1.156-6.412 0-1.465 1.156-3.167 1.156-3.167L26 15z" fill="#967a44"></path><g><path d="M20 31.759a42.918 42.918 0 00-.676-.275C16.518 30.36 14 29.108 14 26.162c0-1.345.248-2.117.535-3.011.291-.907.621-1.936.621-3.401 0-.732-.171-1.459-.399-2.103.923.273 1.8.319 2.282.319 1.095 0 2.113-.208 2.962-.592v14.385z" fill="#ffeea3"></path></g><g><path fill="#967a44" d="M22.082 26.51l-2.067-1.185-2.067 1.185.495-2.311-1.776-1.561 2.358-.231.99-2.167.96 2.167 2.358.231-1.776 1.561z"></path></g></svg>