<svg viewBox="0 0 40 40" xmlns="http://www.w3.org/2000/svg"><path fill="none" stroke="#36404d" stroke-miterlimit="10" d="M36.5 3.5l-8 8-13-5 6 21-11.967-1.857L3.5 36.5"></path><circle cx="36.5" cy="3.5" r="2" fill="#b0c1d4"></circle><path d="M36.5 2c.827 0 1.5.673 1.5 1.5S37.327 5 36.5 5 35 4.327 35 3.5 35.673 2 36.5 2m0-1a2.5 2.5 0 100 5 2.5 2.5 0 000-5z" fill="#66798f"></path><circle cx="28.5" cy="11.5" r="2" fill="#b0c1d4"></circle><path d="M28.5 10c.827 0 1.5.673 1.5 1.5s-.673 1.5-1.5 1.5-1.5-.673-1.5-1.5.673-1.5 1.5-1.5m0-1a2.5 2.5 0 100 5 2.5 2.5 0 000-5z" fill="#66798f"></path><circle cx="15.5" cy="6.5" r="2" fill="#b0c1d4"></circle><path d="M15.5 5c.827 0 1.5.673 1.5 1.5S16.327 8 15.5 8 14 7.327 14 6.5 14.673 5 15.5 5m0-1a2.5 2.5 0 100 5 2.5 2.5 0 000-5z" fill="#66798f"></path><g><circle cx="21.5" cy="27.5" r="2" fill="#b0c1d4"></circle><path d="M21.5 26c.827 0 1.5.673 1.5 1.5s-.673 1.5-1.5 1.5-1.5-.673-1.5-1.5.673-1.5 1.5-1.5m0-1a2.5 2.5 0 100 5 2.5 2.5 0 000-5z" fill="#66798f"></path></g><g><circle cx="3.5" cy="36.5" r="2" fill="#b0c1d4"></circle><path d="M3.5 35c.827 0 1.5.673 1.5 1.5S4.327 38 3.5 38 2 37.327 2 36.5 2.673 35 3.5 35m0-1a2.5 2.5 0 100 5 2.5 2.5 0 000-5z" fill="#66798f"></path></g><g><circle cx="9.5" cy="25.5" r="2" fill="#b0c1d4"></circle><path d="M9.5 24c.827 0 1.5.673 1.5 1.5S10.327 27 9.5 27 8 26.327 8 25.5 8.673 24 9.5 24m0-1a2.5 2.5 0 100 5 2.5 2.5 0 000-5z" fill="#66798f"></path></g></svg>