<svg viewBox="0 0 40 40" xmlns="http://www.w3.org/2000/svg"><path d="M20 38.5C9.799 38.5 1.5 31.098 1.5 22c0-7.218 5.412-13.713 13.161-15.794l.381-.103-.011-.395c-.023-.843-.183-1.55-.476-2.116a5.768 5.768 0 012.471 1.22l.929.786-.108-1.212a9.916 9.916 0 00-.443-2.124 5.444 5.444 0 011.62 1.19l.599.628.243-.833c.29-.989.722-1.829 1.288-2.505.689.831 1.179 1.876 1.456 3.116l.15.669.592-.348a5.394 5.394 0 011.713-.644c-.256.525-.385 1.244-.235 2.23l.049.326.319.083C33.03 8.217 38.5 14.725 38.5 22c0 9.098-8.299 16.5-18.5 16.5z" fill="#ffded1"></path><path d="M21.153 1.584c.439.673.764 1.471.969 2.384l.301 1.339 1.182-.696c.231-.136.47-.252.718-.347-.073.444-.08.966.012 1.576l.099.652.638.166C32.684 8.643 38 14.953 38 22c0 8.822-8.075 16-18 16S2 30.822 2 22C2 15.008 7.26 8.712 14.79 6.688l.762-.205-.022-.788a6.567 6.567 0 00-.161-1.319c.487.205.932.478 1.333.817l1.857 1.57-.215-2.422a9.433 9.433 0 00-.139-.974c.157.131.309.274.456.428l1.196 1.257.488-1.665c.2-.679.47-1.283.808-1.803m.003-1.583c-.914.902-1.452 2.019-1.77 3.106-.709-.745-1.629-1.382-2.819-1.667.487 1.164.708 2.162.781 2.99-.914-.772-2.211-1.42-4.025-1.506.897.6 1.178 1.711 1.208 2.798C6.705 7.825 1 14.313 1 22c0 9.389 8.507 17 19 17s19-7.611 19-17c0-7.734-5.777-14.249-13.676-16.311-.162-1.067-.032-2.188.975-2.77-1.33 0-2.375.342-3.201.829-.284-1.262-.845-2.64-1.942-3.747z" fill="#c74343"></path><path d="M24.211 34.5c-1.562 0-3.04-.548-4.017-.96L20 33.457l-.194.083c-.977.412-2.455.96-4.017.96C9.564 34.5 4.5 28.893 4.5 22S9.564 9.5 15.789 9.5c1.562 0 3.04.548 4.017.96l.194.083.194-.083c.977-.412 2.455-.96 4.017-.96C30.436 9.5 35.5 15.107 35.5 22s-5.064 12.5-11.289 12.5z" fill="#f78f8f"></path><path d="M24.211 10C30.16 10 35 15.383 35 22s-4.84 12-10.789 12c-1.119 0-2.333-.293-3.821-.921l-.39-.165-.389.164c-1.488.629-2.702.922-3.822.922C9.84 34 5 28.617 5 22s4.84-12 10.789-12c1.119 0 2.334.293 3.821.921l.39.165.389-.164c1.488-.629 2.702-.922 3.822-.922m0-1c-1.486 0-2.902.447-4.211 1-1.309-.553-2.725-1-4.211-1C9.278 9 4 14.82 4 22s5.278 13 11.789 13c1.486 0 2.901-.447 4.211-1 1.309.553 2.725 1 4.211 1C30.722 35 36 29.18 36 22S30.722 9 24.211 9z" fill="#c74343"></path><circle cx="20" cy="13" r="1" fill="#c74343"></circle><circle cx="20" cy="16" r="1" fill="#c74343"></circle><circle cx="20" cy="19" r="1" fill="#c74343"></circle><circle cx="20" cy="22" r="1" fill="#c74343"></circle><circle cx="20" cy="25" r="1" fill="#c74343"></circle><circle cx="20" cy="28" r="1" fill="#c74343"></circle><circle cx="20" cy="31" r="1" fill="#c74343"></circle><circle cx="26" cy="13" r="1" fill="#c74343"></circle><path d="M26 11c-.552 0-1-.448-1-1s.448-.585 1-.585 1 .033 1 .585-.448 1-1 1z" fill="#c74343"></path><circle cx="26" cy="16" r="1" fill="#c74343"></circle><circle cx="26" cy="19" r="1" fill="#c74343"></circle><circle cx="26" cy="22" r="1" fill="#c74343"></circle><circle cx="26" cy="25" r="1" fill="#c74343"></circle><circle cx="26" cy="28" r="1" fill="#c74343"></circle><circle cx="26" cy="31" r="1" fill="#c74343"></circle><circle cx="29" cy="14" r="1" fill="#c74343"></circle><circle cx="29" cy="17" r="1" fill="#c74343"></circle><circle cx="29" cy="20" r="1" fill="#c74343"></circle><circle cx="29" cy="23" r="1" fill="#c74343"></circle><circle cx="29" cy="26" r="1" fill="#c74343"></circle><circle cx="29" cy="29" r="1" fill="#c74343"></circle><circle cx="29" cy="32" r="1" fill="#c74343"></circle><circle cx="23" cy="32" r="1" fill="#c74343"></circle><path d="M26 34.58c-.552 0-1-.028-1-.58a1 1 0 012 0c0 .552-.448.58-1 .58z" fill="#c74343"></path><circle cx="32" cy="16" r="1" fill="#c74343"></circle><circle cx="32" cy="19" r="1" fill="#c74343"></circle><circle cx="32" cy="22" r="1" fill="#c74343"></circle><circle cx="32" cy="25" r="1" fill="#c74343"></circle><circle cx="32" cy="28" r="1" fill="#c74343"></circle><path d="M35 21a1 1 0 010-2c.552 0 .652.448.652 1s-.1 1-.652 1zM35 24a1 1 0 010-2c.552 0 .652.448.652 1s-.1 1-.652 1z" fill="#c74343"></path><circle cx="23" cy="29" r="1" fill="#c74343"></circle><circle cx="23" cy="26" r="1" fill="#c74343"></circle><circle cx="23" cy="23" r="1" fill="#c74343"></circle><circle cx="23" cy="20" r="1" fill="#c74343"></circle><circle cx="23" cy="17" r="1" fill="#c74343"></circle><circle cx="23" cy="14" r="1" fill="#c74343"></circle><circle cx="23" cy="11" r="1" fill="#c74343"></circle><circle cx="14" cy="13" r="1" fill="#c74343"></circle><path d="M14 11c.552 0 1-.448 1-1s-.448-.585-1-.585-1 .033-1 .585.448 1 1 1z" fill="#c74343"></path><circle cx="14" cy="16" r="1" fill="#c74343"></circle><circle cx="14" cy="19" r="1" fill="#c74343"></circle><circle cx="14" cy="22" r="1" fill="#c74343"></circle><circle cx="14" cy="25" r="1" fill="#c74343"></circle><circle cx="14" cy="28" r="1" fill="#c74343"></circle><circle cx="14" cy="31" r="1" fill="#c74343"></circle><circle cx="11" cy="14" r="1" fill="#c74343"></circle><circle cx="11" cy="17" r="1" fill="#c74343"></circle><circle cx="11" cy="20" r="1" fill="#c74343"></circle><circle cx="11" cy="23" r="1" fill="#c74343"></circle><circle cx="11" cy="26" r="1" fill="#c74343"></circle><circle cx="11" cy="29" r="1" fill="#c74343"></circle><circle cx="11" cy="32" r="1" fill="#c74343"></circle><circle cx="17" cy="32" r="1" fill="#c74343"></circle><path d="M14 34.58c.552 0 1-.028 1-.58a1 1 0 00-2 0c0 .552.448.58 1 .58z" fill="#c74343"></path><circle cx="8" cy="16" r="1" fill="#c74343"></circle><circle cx="8" cy="19" r="1" fill="#c74343"></circle><circle cx="8" cy="22" r="1" fill="#c74343"></circle><circle cx="8" cy="25" r="1" fill="#c74343"></circle><circle cx="8" cy="28" r="1" fill="#c74343"></circle><path d="M5 21a1 1 0 000-2c-.552 0-.652.448-.652 1s.1 1 .652 1zM5 24a1 1 0 000-2c-.552 0-.652.448-.652 1s.1 1 .652 1z" fill="#c74343"></path><circle cx="17" cy="29" r="1" fill="#c74343"></circle><circle cx="17" cy="26" r="1" fill="#c74343"></circle><circle cx="17" cy="23" r="1" fill="#c74343"></circle><circle cx="17" cy="20" r="1" fill="#c74343"></circle><circle cx="17" cy="17" r="1" fill="#c74343"></circle><g><circle cx="17" cy="14" r="1" fill="#c74343"></circle></g><g><circle cx="17" cy="11" r="1" fill="#c74343"></circle></g></svg>