<svg viewBox="0 0 40 40" xmlns="http://www.w3.org/2000/svg"><path d="M19.152 16.5l-3.874-2.6c-.604-.651-1.778-1.97-1.778-4.354 0-3.02 2.012-4.35 3.045-4.833.121 1.02.563 2.869 2.158 3.915 2.293 1.503 5.689 1.826 7.797 1.867V16.5h-7.348z" fill="#e0ac89"></path><path d="M16.172 5.49c.244 1.126.835 2.623 2.258 3.556 2.22 1.456 5.394 1.851 7.571 1.935V16h-6.696l-3.699-2.482C15.003 12.865 14 11.69 14 9.546c0-2.232 1.22-3.447 2.172-4.056M17 4s-4 1.125-4 5.546c0 2.538 1.21 3.938 1.951 4.738L19 17h8v-7c-1.357 0-5.45-.103-8.022-1.79C16.946 6.878 17 4 17 4z" fill="#a16a4a"></path><path d="M15.606 13.518L19.304 16H26v-2c-2.177-.083-11.208-.75-9.828-8.51C15.22 6.099 14 7.314 14 9.546c0 2.144 1.003 3.319 1.606 3.972z" fill="#c49474"></path><path d="M9.143 23.286C7.202 23.286 5.5 19.991 5.5 18c0-3.317 3.357-4.5 6.5-4.5 1.274 0 2.893.277 4.458.547 1.359.232 2.644.453 3.542.453a8.058 8.058 0 003.203-.679l.265-.118.029-.287C23.678 11.672 25.085 10.5 27 10.5a3.576 3.576 0 013.571 3.571c0 3.911-3.269 7.857-10.571 7.857-2.991 0-4.778-.548-6.084-.948a18.863 18.863 0 00-.863-.25l-.426-.108-.162.408a3.558 3.558 0 01-3.322 2.256z" fill="#e0ac89"></path><path d="M27 11a3.074 3.074 0 013.071 3.071c0 3.662-3.114 7.357-10.071 7.357-2.913 0-4.661-.535-5.939-.927a19.222 19.222 0 00-.885-.256l-.852-.217-.324.817a3.057 3.057 0 01-2.857 1.94C7.655 22.786 6 19.933 6 18c0-3.807 4.998-4 6-4 1.232 0 2.829.274 4.374.539 1.38.237 2.684.461 3.626.461a8.569 8.569 0 003.407-.722l.528-.235.059-.575C24.147 11.992 25.355 11 27 11m0-1c-2.106 0-3.788 1.314-4 3.364A7.542 7.542 0 0120 14c-1.845 0-5.542-1-8-1-3.552 0-7 1.448-7 5 0 2.249 1.894 5.786 4.143 5.786a4.074 4.074 0 003.786-2.571c.235.06.501.141.84.244 1.337.41 3.168.97 6.23.97 8.014 0 11.071-4.601 11.071-8.357A4.069 4.069 0 0027 10z" fill="#a16a4a"></path><path d="M20 28.5C9.361 28.5 5.5 22.221 5.5 18c0-1.963 1.537-3.5 3.5-3.5s3.5 1.568 3.5 3.571c.083.949 2.01 3.429 7.5 3.429 3.109 0 4.309-.749 5.784-1.892C27.197 18.514 28.808 17.5 31 17.5c3.656 0 7.571 2.641 7.571 6.571 0 1.993-1.648 4.429-3.571 4.429H20z" fill="#e0ac89"></path><path d="M9 15c1.682 0 3 1.349 3 3.071v.044l.004.044C12.11 19.363 14.271 22 20 22c3.26 0 4.581-.827 6.09-1.997C27.432 18.963 28.955 18 31 18c3.415 0 7.071 2.44 7.071 6.071C38.071 25.803 36.625 28 35 28H20C9.728 28 6 22.02 6 18c0-1.71 1.29-3 3-3m0-1c-2.249 0-4 1.751-4 4 0 4.364 4.047 11 15 11h15c2.249 0 4.071-2.679 4.071-4.929C39.071 19.916 35.025 17 31 17c-2.525 0-4.318 1.279-5.522 2.213C24.191 20.21 23.08 21 20 21c-5.386 0-6.954-2.404-7-2.929C13 15.822 11.249 14 9 14z" fill="#a16a4a"></path><path d="M31 18c-2.208 5.333-5 7.006-12 7.006-5.476 0-10.744-3.005-13-7.006 0 4.02 3.728 10 14 10h15c1.625 0 3.071-2.197 3.071-3.929C38.071 20.44 34.415 18 31 18z" fill="#c49474"></path><path d="M20 35.5c-6.76 0-13.296-2.561-17.484-6.85A3.547 3.547 0 011.5 26.114 3.557 3.557 0 012.577 23.6a3.559 3.559 0 012.495-1.016c.97 0 1.877.382 2.555 1.076C10.543 26.646 15.284 28.5 20 28.5c5.58 0 10.724-2.824 11.389-4.354l.038-.088.003-.096A3.554 3.554 0 0135 20.5a3.576 3.576 0 013.571 3.571C38.571 31.152 27.755 35.5 20 35.5z" fill="#e0ac89"></path><path d="M35 21a3.074 3.074 0 013.071 3.071C38.071 30.842 27.546 35 20 35c-6.628 0-13.03-2.504-17.126-6.699a3.075 3.075 0 01.052-4.343 3.061 3.061 0 012.147-.874 3.05 3.05 0 012.197.925C10.275 27.088 15.154 29 20 29c5.605 0 11.051-2.824 11.847-4.655l.077-.176.006-.192A3.056 3.056 0 0135 21m0-1a4.072 4.072 0 00-4.07 3.947C30.384 25.203 25.561 28 20 28c-4.954 0-9.446-2.058-12.016-4.688a4.057 4.057 0 00-2.912-1.227A4.072 4.072 0 002.158 29C6.289 33.23 12.791 36 20 36c7.934 0 19.071-4.361 19.071-11.929A4.07 4.07 0 0035 20z" fill="#a16a4a"></path><circle cx="10.5" cy="29.5" r=".75" fill="#a16a4a"></circle><circle cx="13.5" cy="31.5" r=".75" fill="#a16a4a"></circle><circle cx="24.5" cy="23.5" r=".75" fill="#a16a4a"></circle><circle cx="8.5" cy="18.5" r=".75" fill="#a16a4a"></circle><circle cx="27.5" cy="21.5" r=".75" fill="#a16a4a"></circle></svg>