<svg viewBox="0 0 40 40" xmlns="http://www.w3.org/2000/svg"><path d="M20 38.5C9.799 38.5 1.5 30.201 1.5 20S9.799 1.5 20 1.5 38.5 9.799 38.5 20 30.201 38.5 20 38.5z" fill="#f78f8f"></path><path d="M20 2c9.925 0 18 8.075 18 18s-8.075 18-18 18S2 29.925 2 20 10.075 2 20 2m0-1C9.507 1 1 9.507 1 20s8.507 19 19 19 19-8.507 19-19S30.493 1 20 1z" fill="#c74343"></path><g><path d="M18.5 32.5c-1.103 0-2-.897-2-2V30c0-1.214-.77-2.159-1.584-3.159C13.783 25.45 12.5 23.873 12.5 21v-8c0-1.93 1.57-3.5 3.5-3.5h10c.827 0 1.5.673 1.5 1.5 0 .335-.115.656-.334.931l-.396.495.574.27a2.003 2.003 0 011.155 1.805c0 .483-.184.954-.517 1.327l-.491.549.692.254a2.002 2.002 0 011.315 1.87c0 .483-.184.954-.517 1.327l-.491.549.692.254a2.002 2.002 0 011.315 1.87c0 1.103-.897 2-2 2h-9.264l.306.7c.461 1.057.958 3.001.958 4.3v1A1.997 1.997 0 0118.5 32.5z" fill="#ffeea3"></path><path d="M26 10c.551 0 1 .449 1 1a.985.985 0 01-.225.617l-.792.991 1.148.539c.536.251.869.77.869 1.353 0 .462-.211.795-.389.993l-.983 1.099 1.384.507c.591.217.988.78.988 1.401 0 .462-.211.795-.389.993l-.983 1.099 1.384.507c.591.217.988.78.988 1.401 0 .827-.673 1.5-1.5 1.5H18.473l.611 1.4c.442 1.014.916 2.904.916 4.1v1c0 .827-.673 1.5-1.5 1.5s-1.5-.673-1.5-1.5V30c0-1.392-.824-2.404-1.696-3.475C14.224 25.199 13 23.695 13 21v-8c0-1.654 1.346-3 3-3h10m0-1H16a4 4 0 00-4 4v8c0 5.179 4 6.479 4 9v.5a2.5 2.5 0 105 0v-1c0-1.37-.516-3.391-1-4.5h8.5a2.495 2.495 0 00.856-4.84A2.48 2.48 0 0030 18.5a2.495 2.495 0 00-1.644-2.34A2.48 2.48 0 0029 14.5a2.494 2.494 0 00-1.443-2.258C27.83 11.9 28 11.472 28 11a2 2 0 00-2-2z" fill="#c74343"></path></g></svg>