<svg viewBox="0 0 40 40" xmlns="http://www.w3.org/2000/svg"><path fill="#a16a4a" d="M38.293 16.293L39 17l-8 8-.707-.707z"></path><path d="M5.333 31.5c-1.93 0-3.5-1.57-3.5-3.5s1.57-3.5 3.5-3.5 3.5 1.57 3.5 3.5-1.57 3.5-3.5 3.5z" fill="#e8d47b"></path><path d="M5.333 25c1.654 0 3 1.346 3 3s-1.346 3-3 3-3-1.346-3-3 1.346-3 3-3m0-1a4 4 0 100 8 4 4 0 000-8z" fill="#ba9b48"></path><path d="M19 38.5c-8.588 0-12.5-4.925-12.5-9.5v-.166l-.1-.133c-3.267-4.382-2.906-9.61-2.902-9.663-.001-.101-.158-2.599 1.763-4.663C7.034 12.467 9.975 11.5 14 11.5h5c3.833.573 5.5 1.921 5.5 4.5.029.393.324 3.513 2.075 4.389l.253.126.238-.151A5.481 5.481 0 0130 19.5c3.032 0 5.5 2.468 5.5 5.5s-2.468 5.5-5.5 5.5c-.137 0-.27-.02-.401-.037l-.718-.083-.041.514c-.041.355-1.025 7.606-9.84 7.606z" fill="#ffeea3"></path><path d="M18.925 12c3.604.546 5.075 1.708 5.075 4v.039l.003.039c.03.382.352 3.759 2.349 4.757l.506.253.477-.303A4.982 4.982 0 0130 20c2.757 0 5 2.243 5 5s-2.243 5-5 5c-.114 0-.223-.018-.333-.033a8.19 8.19 0 00-.219-.028l-1.041-.116-.067 1.046-.002.035C28.264 31.434 27.188 38 19 38c-8.245 0-12-4.665-12-9v-.332l-.198-.266c-3.139-4.211-2.808-9.277-2.805-9.326l.006-.077-.006-.077c-.002-.023-.156-2.277 1.618-4.194C7.289 12.918 10.11 12 14 12h4.925M19 11h-5C2.375 11 3 19 3 19s-.417 5.417 3 10c0 4.333 3.611 10 13 10s10.333-8 10.333-8l.004-.067c.221.025.436.067.663.067a6 6 0 100-12 5.96 5.96 0 00-3.201.941C25.25 19.167 25 16 25 16c0-3.556-3-4.555-6-5z" fill="#ba9b48"></path><path d="M4.631 15.122C2.252 14.257.5 11.694.5 9 .5 5.607 2.607 3.5 6 3.5c1.446 0 3.632 0 4.678.882l.36.304.324-.341C13.006 2.616 16.004 1.5 19 1.5c4.687 0 8.5 2.916 8.5 6.5 0 2.102-1.569 4.073-4.119 5.205-.868-.844-2.235-1.415-4.071-1.699l-5.977-.006c-5.124 0-7.553 1.895-8.702 3.622z" fill="#fff"></path><path d="M19 2c4.411 0 8 2.692 8 6 0 1.821-1.337 3.548-3.53 4.613-.944-.789-2.314-1.327-4.084-1.601L19.31 11h-5.977c-5.019 0-7.579 1.773-8.882 3.509C2.443 13.601 1 11.356 1 9c0-3.131 1.869-5 5-5 1.29 0 3.449 0 4.355.764l.72.607.649-.682C13.255 3.081 16.179 2 19 2m0-1c-3.212 0-6.321 1.235-8 3-1.16-.979-3.363-1-5-1-3.682 0-6 2.318-6 6 0 3.047 2.057 5.922 4.849 6.717C5.887 13.926 8.196 12 13.333 12h5.9c2.208.342 3.386 1.052 4.022 1.801C26.086 12.656 28 10.49 28 8c0-3.682-3.845-7-9-7z" fill="#788b9c"></path><path d="M24.936 18.226a8.426 8.426 0 01-.436-2.191c0-.906-.003-3.725-5.19-4.528L16 11.5c-4.95 0-9.144 1.271-11.053 3.293L3.623 12.13C6.356 9.948 11.655 8.5 17 8.5c8.201 0 13.5 2.159 13.5 5.5 0 1.519-2.119 3.119-5.564 4.226z" fill="#839cb2"></path><path d="M17 9c8.98 0 13 2.511 13 5 0 1.19-1.869 2.585-4.738 3.589-.227-.833-.26-1.526-.261-1.536-.004-2.769-1.893-4.465-5.615-5.041L19.31 11H16c-3.829 0-8.407.801-10.91 2.957l-.835-1.68C6.983 10.298 11.962 9 17 9m0-1C11.368 8 5.778 9.556 3 12l1.849 3.717C6.444 13.278 11.167 12 16 12h3.233c4.767.738 4.767 3.191 4.768 4.056.009.215.094 1.522.639 2.784C28.287 17.749 31 15.99 31 14c0-3.314-4.611-6-14-6z" fill="#66798f"></path><circle cx="19" cy="10" r="1.5" fill="#ffeea3"></circle><path d="M19 9c.551 0 1 .449 1 1s-.449 1-1 1-1-.449-1-1 .449-1 1-1m0-1a2 2 0 10-.001 3.999A2 2 0 0019 8z" fill="#f5c276"></path><ellipse cx="21" cy="18" rx="1" ry="2" fill="#36404d"/><path d="M16 34.5c-2.776 0-3.946-3.137-4.978-5.903-.553-1.48-1.054-2.825-1.778-3.545.822-.26 2.114-.552 3.756-.552h.45c2.307 0 5.665 0 8.419.691-.464.661-.816 1.75-1.238 3.056C19.73 31.033 18.609 34.5 16 34.5z" fill="#b08159"></path><path d="M13.458 24v1h.001c2.1 0 5.082 0 7.644.529-.344.698-.632 1.588-.948 2.565C19.304 30.725 18.246 34 16 34c-2.251 0-3.331-2.418-4.509-5.578-.428-1.149-.845-2.265-1.389-3.089C10.85 25.154 11.832 25 13 25h.457l.001-1m-.001 0H13c-3.111 0-5 1-5 1 2.75 0 2.639 10 8 10 4.889 0 4.972-10 7-10-2.899-.975-6.673-1-9.543-1z" fill="#a16a4a"></path><path d="M18.912 33.381C18.377 30.571 15.915 28 13.333 28c-1.006 0-1.937.332-2.74.877.198.53.403 1.076.627 1.616.81 1.892 1.863 3.781 3.662 4.34l.057.018c.135.04.277.069.421.093.035.006.067.014.102.019.174.023.352.037.538.037 1.246 0 2.179-.651 2.912-1.619z" fill="#f78f8f"></path><g><path d="M25.037 26.5c-.93 0-1.888-.176-2.771-.51-.696-.337-1.603-.937-1.735-1.78-.112-.535.121-1.229.652-1.977.805-1.082 2.297-1.733 3.985-1.733 1.12 0 2.176.302 2.757.786.347.29.539.707.57 1.239.071 1.214-.686 2.711-1.435 3.502-.345.302-.909.376-1.507.455a7.325 7.325 0 01-.516.018z" fill="#fff9de"></path><path d="M25.168 21c.993 0 1.949.263 2.436.67.24.201.369.49.392.885.06 1.017-.589 2.356-1.263 3.091-.264.209-.706.27-1.217.338a7.423 7.423 0 01-3.033-.447c-.519-.254-1.357-.759-1.459-1.406l-.004-.025-.005-.025c-.077-.367.133-.935.563-1.542.717-.963 2.059-1.539 3.59-1.539m0-1c-1.615 0-3.371.569-4.392 1.944-.493.694-.903 1.562-.739 2.344.164 1.042 1.149 1.736 2.052 2.17a8.421 8.421 0 002.949.542c.195 0 .389-.007.581-.022.657-.087 1.313-.174 1.806-.608 1.231-1.302 2.38-4.167.821-5.469-.678-.565-1.837-.901-3.078-.901z" fill="#ba9b48"></path></g><path fill="#ba9b48" d="M13 20h4v1h-4z"></path><path d="M17 20c-1.75 0-2.306-4-5-4 0 0-2 0-2 2h1c0-.917 1-1 1-1 2 0 2.25 4 5 4v-1z" fill="#ba9b48"></path><g><path d="M36.03 18.5a.964.964 0 01-.543-.14c.004-.007-2.183-2.146-2.771-2.735-.468-.468-.187-1.792.964-2.943.728-.729 1.612-1.182 2.308-1.182.275 0 .487.072.631.216l2.666 2.671c.468.468.187 1.792-.964 2.943-.721.722-1.598 1.17-2.291 1.17z" fill="#b08159"></path><path d="M35.987 12c.13 0 .234.026.277.069l2.667 2.67c.194.194.031 1.241-.964 2.237-.755.756-1.515 1.024-1.937 1.024a.633.633 0 01-.217-.032c-.429-.42-2.219-2.172-2.744-2.697-.194-.194-.031-1.241.964-2.237.763-.763 1.529-1.034 1.954-1.034m0-1c-.798 0-1.81.476-2.661 1.328-1.273 1.274-1.704 2.909-.964 3.65.599.6 2.845 2.796 2.845 2.796.227.153.509.226.823.226.794 0 1.796-.468 2.644-1.317 1.273-1.275 1.704-2.909.964-3.65l-2.667-2.67c-.245-.246-.588-.363-.984-.363z" fill="#a16a4a"></path></g><path d="M16 34c-2.25 0-3.331-2.418-4.509-5.578l-.008-.021a5.362 5.362 0 00-.89.476c.198.53.403 1.076.627 1.616.81 1.892 1.863 3.781 3.662 4.34l.057.018c.135.04.277.069.421.093.035.006.067.014.102.019.174.023.352.037.538.037 1.246 0 2.179-.651 2.912-1.619a6.76 6.76 0 00-.373-1.247C17.897 33.227 17.089 34 16 34z" fill="#c74343"></path><path d="M20 19h-1c0-1.476.096-2.89.798-3.458.619-.5 1.505-.566 2.202-.542.117.005.898 0 1 0v1c-.113 0-.87.005-1 0-.628-.022-1.208 0-1.508.262-.458.4-.492 1.564-.492 2.738z" fill="#ba9b48"></path></svg>