<svg viewBox="0 0 40 40" xmlns="http://www.w3.org/2000/svg"><path d="M4.893 36.349c.79-1.355 1.714-3.006 2.561-4.578l.198-.369-.329-.26C3.568 28.174 1.5 24.174 1.5 19.878c0-8.547 8.299-15.5 18.5-15.5s18.5 6.953 18.5 15.5-8.299 15.5-18.5 15.5c-2.174 0-4.339-.332-6.437-.985l-.162-.051-.16.06c-2.945 1.094-5.986 1.798-8.348 1.947z" fill="#8bb7f0"></path><path d="M20 4.878c9.925 0 18 6.729 18 15s-8.075 15-18 15c-2.123 0-4.239-.324-6.287-.962l-.326-.102-.32.119c-2.521.936-5.108 1.583-7.26 1.831a169.857 169.857 0 002.086-3.756l.398-.739-.658-.52C4 27.879 2 24.018 2 19.878c0-8.271 8.075-15 18-15m0-1c-10.493 0-19 7.163-19 16 0 4.601 2.32 8.737 6.013 11.656A149.574 149.574 0 014 36.878c2.597 0 6.172-.803 9.415-2.007A22.108 22.108 0 0020 35.878c10.493 0 19-7.163 19-16s-8.507-16-19-16z" fill="#4e7ab5"></path><g><path d="M20 13.247l1.632 3.282.227.457.503.084 3.558.596-2.627 2.627-.373.373.098.519.662 3.519-3.236-1.6-.444-.22-.443.219-3.236 1.6.662-3.519.098-.519-.373-.373-2.627-2.627 3.558-.596.503-.084.227-.457L20 13.247M20 11l-2.527 5.084L12 17l4 4-1.033 5.489L20 24l5.033 2.489L24 21l4-4-5.473-.916L20 11z" fill="#fff"></path></g></svg>