<svg viewBox="0 0 40 40" xmlns="http://www.w3.org/2000/svg"><path fill="#dbb065" d="M1.5 35.5v-31h10.293l3 3H38.5v28z"></path><path d="M11.586 5l2.707 2.707.293.293H38v27H2V5h9.586M12 4H1v32h38V7H15l-3-3z" fill="#967a44"></path><path fill="#f5ce85" d="M1.5 35.5v-26h10.651l3-2H38.5v28z"></path><path d="M38 8v27H2V10h10.303l.252-.168L15.303 8H38m1-1H15l-3 2H1v27h38V7z" fill="#967a44"></path><path fill="#c74343" d="M22.341 27l-6.066-9h1.384l6.066 9z"></path><path fill="#c74343" d="M17.659 27l6.066-9h-1.384l-6.066 9zM31.341 27l-6.066-9h1.384l6.066 9z"></path><path fill="#c74343" d="M26.659 27l6.066-9h-1.384l-6.066 9zM13.341 27l-6.066-9h1.384l6.066 9z"></path><path fill="#c74343" d="M8.659 27l6.066-9h-1.384l-6.066 9z"></path></svg>