<svg viewBox="0 0 40 40" xmlns="http://www.w3.org/2000/svg"><path d="M16.692 22.291L33.384 4.082a1.798 1.798 0 012.591-.057c.35.349.536.813.525 1.307-.011.494-.218.95-.582 1.284L17.709 23.308l-1.017-1.017z" fill="#b0c1d4"></path><path d="M34.707 4c.345 0 .67.135.914.379.252.252.386.587.379.943a1.287 1.287 0 01-.419.926L17.724 22.616l-.34-.34L33.752 4.42a1.28 1.28 0 01.955-.42m0-1c-.619 0-1.238.249-1.691.744L16 22.306 17.694 24 36.256 6.985A2.294 2.294 0 0034.707 3z" fill="#66798f"></path><path d="M35 22.5c-1.251 0-2.379-.657-3.017-1.757l-.268-.46-.442.295a3.485 3.485 0 01-1.94.589c-.251 0-.52-.035-.82-.108l-.303-.073-.199.239a3.48 3.48 0 01-2.678 1.275 3.481 3.481 0 01-2.331-.909l-.335-.302-.335.302c-.65.586-1.479.91-2.332.91a3.483 3.483 0 01-2.951-1.634l-.255-.402-.414.235a3.436 3.436 0 01-1.713.468 3.439 3.439 0 01-1.748-.487l-.252-.146-.251.146a3.448 3.448 0 01-1.749.487 3.485 3.485 0 01-1.94-.589l-.442-.295-.268.46C7.379 21.843 6.251 22.5 5 22.5c-1.93 0-3.5-1.57-3.5-3.5a3.48 3.48 0 012.719-3.405l.306-.07.07-.306A3.479 3.479 0 018 12.5c.05 0 .097.008.144.015l.367.036.161-.145A3.49 3.49 0 0111 11.5c.123 0 .242.018.36.035l.437.058.165-.295A3.499 3.499 0 0115 9.5c.566 0 1.125.148 1.661.44l.366.199.262-.324C17.965 8.979 18.952 8.5 20 8.5s2.035.479 2.711 1.315l.262.324.366-.199A3.447 3.447 0 0125 9.5a3.5 3.5 0 013.038 1.797l.165.295.437-.058c.118-.016.237-.034.36-.034.94 0 1.824.37 2.488 1.042l.212.214.289-.087A3.422 3.422 0 0133 12.5a3.49 3.49 0 013.456 3.088l.029.252.222.125A3.5 3.5 0 0138.5 19c0 1.93-1.57 3.5-3.5 3.5z" fill="#ffeea3"></path><path d="M20 9a2.98 2.98 0 012.322 1.129l.524.649.732-.399c.462-.252.94-.379 1.422-.379 1.07 0 2.067.591 2.602 1.543l.332.591.671-.089.104-.014c.097-.014.192-.031.291-.031.806 0 1.563.317 2.132.893l.424.429.578-.175c.33-.1.605-.147.866-.147a2.992 2.992 0 012.96 2.647l.06.504.442.249A3.001 3.001 0 0138 19c0 1.654-1.346 3-3 3-1.071 0-2.036-.564-2.584-1.508l-.534-.922-.886.592a2.985 2.985 0 01-1.663.505 2.97 2.97 0 01-.703-.094l-.605-.146-.398.479A2.988 2.988 0 0125.333 22a2.984 2.984 0 01-1.997-.781l-.669-.603-.669.603A2.989 2.989 0 0120 22a2.983 2.983 0 01-2.528-1.402l-.51-.804-.828.47a2.945 2.945 0 01-1.467.403 2.95 2.95 0 01-1.497-.419l-.503-.293-.503.293a2.95 2.95 0 01-1.497.419 2.982 2.982 0 01-1.663-.505l-.886-.592-.534.922C7.036 21.436 6.071 22 5 22c-1.654 0-3-1.346-3-3 0-1.404.958-2.604 2.331-2.917l.612-.14.14-.612A2.978 2.978 0 017.995 13c.027.001.054.006.081.01.059.008.118.016.177.021l.431.037.322-.289A2.983 2.983 0 0111 12c.099 0 .194.017.29.03l.104.014.671.089.332-.591A3.003 3.003 0 0115 10c.482 0 .96.127 1.422.379l.732.399.524-.649A2.98 2.98 0 0120 9m0-1a3.975 3.975 0 00-3.1 1.501A3.953 3.953 0 0015 9c-1.498 0-2.789.834-3.474 2.053C11.352 11.03 11.18 11 11 11a3.97 3.97 0 00-2.662 1.034C8.225 12.024 8.116 12 8 12a3.996 3.996 0 00-3.892 3.108A3.996 3.996 0 005 23c1.479 0 2.757-.812 3.449-2.006a3.98 3.98 0 002.218.673c.732 0 1.41-.211 2-.555.59.344 1.268.555 2 .555.716 0 1.379-.204 1.96-.533A3.989 3.989 0 0020 23c1.029 0 1.958-.4 2.667-1.038A3.97 3.97 0 0025.333 23a3.975 3.975 0 003.063-1.455c.302.073.613.122.937.122a3.98 3.98 0 002.218-.673C32.243 22.188 33.521 23 35 23a4 4 0 004-4c0-1.496-.831-2.785-2.047-3.471C36.717 13.545 35.048 12 33 12c-.405 0-.788.078-1.156.19A3.987 3.987 0 0029 11c-.18 0-.352.03-.526.053C27.789 9.834 26.498 9 25 9c-.692 0-1.333.192-1.9.501A3.975 3.975 0 0020 8z" fill="#ba9b48"></path><path d="M11 34.5a.5.5 0 01-.5-.5v-.757l-.385-.091A12.445 12.445 0 01.5 21v-1.5h39V21a12.445 12.445 0 01-9.615 12.152l-.385.091V34a.5.5 0 01-.5.5H11z" fill="#f78f8f"></path><path d="M39 20v1a11.946 11.946 0 01-9.23 11.665l-.77.182V34H11v-1.153l-.77-.182A11.946 11.946 0 011 21v-1h38m1-1H0v2c0 6.145 4.269 11.282 10 12.638V34a1 1 0 001 1h18a1 1 0 001-1v-.362C35.731 32.282 40 27.145 40 21v-2z" fill="#c74343"></path><circle cx="15.5" cy="15.5" r=".5" fill="#ba9b48"></circle><g><circle cx="12.5" cy="15.5" r=".5" fill="#ba9b48"></circle></g><g><circle cx="19.5" cy="12.5" r=".5" fill="#ba9b48"></circle></g><g><circle cx="24.5" cy="15.5" r=".5" fill="#ba9b48"></circle></g></svg>