<svg viewBox="0 0 40 40" xmlns="http://www.w3.org/2000/svg"><path fill="#fff" d="M4.5 1.5h31v37h-31z"></path><path d="M35 2v36H5V2h30m1-1H4v38h32V1z" fill="#788b9c"></path><path fill="#36404d" d="M8 5h24v30H8z"></path><path d="M9.52 34.5c.322-4.15 4.613-7 8.48-7h4c3.867 0 8.159 2.85 8.48 7H9.52z" fill="#c2e8ff"></path><path d="M22 28c3.455 0 7.284 2.506 7.911 6H10.089c.627-3.494 4.456-6 7.911-6h4m0-1h-4c-4.497 0-9 3.503-9 8h22c0-4.497-4.503-8-9-8z" fill="#7496c4"></path><path d="M20 30.5c-2.244 0-3.301-2.144-3.5-2.6v-3.4h7v3.4c-.199.456-1.256 2.6-3.5 2.6z" fill="#e8d47b"></path><path d="M23 25v2.791c-.251.531-1.188 2.209-3 2.209-1.815 0-2.752-1.683-3-2.208V25h6m1-1h-8v4s1.157 3 4 3 4-3 4-3v-4z" fill="#ba9b48"></path><g><path d="M19.946 27.497c-.33 0-.65-.126-.902-.355l-.096-.088-.127-.03a4.903 4.903 0 01-3.804-4.794v-6.565a2.09 2.09 0 012.087-2.088h5.683a2.09 2.09 0 012.087 2.088v6.565a4.903 4.903 0 01-3.804 4.794l-.127.03-.097.088c-.25.229-.57.355-.9.355z" fill="#ffeea3"></path><path d="M22.787 14.076c.875 0 1.587.712 1.587 1.587v6.566a4.405 4.405 0 01-3.418 4.307l-.254.059-.193.176a.827.827 0 01-.564.225.827.827 0 01-.564-.225l-.193-.176-.254-.059a4.406 4.406 0 01-3.418-4.307v-6.566c0-.875.712-1.587 1.587-1.587h5.684m0-1h-5.683a2.587 2.587 0 00-2.587 2.587v6.566c0 2.571 1.79 4.72 4.19 5.281.328.299.76.487 1.238.487.479 0 .911-.187 1.238-.487a5.427 5.427 0 004.19-5.281v-6.566a2.586 2.586 0 00-2.586-2.587z" fill="#ba9b48"></path></g><g><path d="M25.348 26.5a6.868 6.868 0 01-2.514-.469 7.277 7.277 0 001.683-4.66v-2.729c0-1.897-2.196-3.04-2.29-3.088l-.503-.257-.193.531c-.028.072-.759 1.885-3.903 2.318-1.849.257-2.128.872-2.128 2.854v.291c0 2.25.96 3.867 1.602 4.696-.804.215-2.102.513-3.102.513-1.197 0-2.404-.386-3.12-.664.711-.762 1.852-2.227 1.852-3.786 0-.669-.052-1.217-.107-1.798A21.682 21.682 0 0112.5 18c0-4.846 2.794-8.5 6.5-8.5 2.501 0 3.526 1.681 3.568 1.753l.146.245.286.002c2.128 0 4.5 2.259 4.5 5.5 0 1.075-.209 1.937-.411 2.77-.184.759-.358 1.477-.358 2.28 0 1.444 1.402 2.958 2.286 3.77-.874.284-2.334.68-3.669.68z" fill="#ffc49c"></path><path d="M19 10c2.195 0 3.102 1.448 3.134 1.5l.289.5H23c1.892 0 4 2.053 4 5 0 1.016-.202 1.848-.397 2.652-.183.754-.372 1.534-.372 2.398 0 1.313.954 2.616 1.827 3.534-.795.214-1.788.416-2.71.416a6.495 6.495 0 01-1.698-.226 7.762 7.762 0 001.367-4.403v-2.728c0-2.163-2.3-3.4-2.563-3.534l-.976-.475-.412 1.007c-.027.066-.694 1.623-3.508 2.012C15.356 17.957 15 18.888 15 21V21.291c0 1.919.661 3.411 1.279 4.387-.717.165-1.58.322-2.279.322-.799 0-1.611-.188-2.257-.391.706-.877 1.488-2.163 1.488-3.559 0-.693-.053-1.252-.109-1.845C13.062 19.567 13 18.908 13 18c0-4.561 2.579-8 6-8m0-1c-3.865 0-7 3.66-7 9 0 1.793.232 2.669.232 4.05C12.232 24.064 10 26 10 26s1.993 1 4 1c1.652 0 4-.75 4-.75s-2-1.835-2-4.959v-.138V20.999c0-1.839.192-2.149 1.696-2.357C21.215 18.157 22 16 22 16s2.017 1.03 2.017 2.643v2.728c0 3.065-2.017 4.816-2.017 4.816s1.321.813 3.348.813C27.544 27 30 26 30 26s-2.769-2.149-2.769-3.95c0-1.6.769-2.928.769-5.05 0-3.598-2.637-6-5-6 0 0-1.156-2-4-2z" fill="#a16a4a"></path></g></svg>