<svg viewBox="0 0 40 40" xmlns="http://www.w3.org/2000/svg"><path d="M10.5 27.5v-23H33c.827 0 1.5.673 1.5 1.5v20c0 .827-.673 1.5-1.5 1.5H10.5z" fill="#929fb0"></path><path d="M33 5c.551 0 1 .449 1 1v20c0 .551-.449 1-1 1H11V5h22m0-1H10v24h23a2 2 0 002-2V6a2 2 0 00-2-2z" fill="#66798f"></path><path d="M11.5 38.5c-1.103 0-2-.897-2-2v-7h19v7c0 1.103-.897 2-2 2h-15z" fill="#f78f8f"></path><path d="M28 30v6.5c0 .827-.673 1.5-1.5 1.5h-15c-.827 0-1.5-.673-1.5-1.5V30h18m.5-1h-19a.5.5 0 00-.5.5v7a2.5 2.5 0 002.5 2.5h15a2.5 2.5 0 002.5-2.5v-7a.5.5 0 00-.5-.5z" fill="#c74343"></path><path fill="#36404d" d="M25 29v10h-3V29zM33 4v24h-2V4z"></path><path d="M9 30.5A2.502 2.502 0 016.5 28V4c0-1.379 1.121-2.5 2.5-2.5h20c1.379 0 2.5 1.121 2.5 2.5v24c0 1.379-1.121 2.5-2.5 2.5H9z" fill="#b0c1d4"></path><path d="M29 2c1.103 0 2 .897 2 2v24c0 1.103-.897 2-2 2H9c-1.103 0-2-.897-2-2V4c0-1.103.897-2 2-2h20m0-1H9a3 3 0 00-3 3v24a3 3 0 003 3h20a3 3 0 003-3V4a3 3 0 00-3-3z" fill="#66798f"></path><path fill="#bae0bd" d="M10.5 5.5h17v5h-17z"></path><path d="M27 6v4H11V6h16m1-1H10v6h18V5z" fill="#5e9c76"></path><path fill="#fff" d="M10 13h2v2h-2zM14 13h2v2h-2zM18 13h2v2h-2zM10 17h2v2h-2zM14 17h2v2h-2zM18 17h2v2h-2zM10 21h2v2h-2zM14 21h2v2h-2zM18 21h2v2h-2zM10 25h2v2h-2zM14 25h2v2h-2zM18 25h2v2h-2zM22 13h2v2h-2zM22 17h2v2h-2zM22 21h2v2h-2zM22 25h2v2h-2z"></path><path fill="#f78f8f" d="M26 13h2v2h-2z"></path><path fill="#ffeea3" d="M26 17h2v2h-2z"></path><path fill="#bae0bd" d="M26 21h2v2h-2z"></path><path fill="#fff" d="M26 25h2v2h-2z"></path></svg>