<svg viewBox="0 0 40 40" xmlns="http://www.w3.org/2000/svg"><path fill="#bae0bd" d="M31.5 3.5h7v35h-7z"></path><path d="M38 4v34h-6V4h6m1-1h-8v36h8V3z" fill="#5e9c76"></path><path fill="#bae0bd" d="M21.5 17.5h7v21h-7z"></path><path d="M28 18v20h-6V18h6m1-1h-8v22h8V17z" fill="#5e9c76"></path><path fill="#bae0bd" d="M11.5 24.5h7v14h-7z"></path><path d="M18 25v13h-6V25h6m1-1h-8v15h8V24z" fill="#5e9c76"></path><g><path fill="#bae0bd" d="M1.5 30.5h7v8h-7z"></path><path d="M8 31v7H2v-7h6m1-1H1v9h8v-9z" fill="#5e9c76"></path></g><g><path fill="#4e7ab5" d="M15.464 6.95L3.686 18.728l-1.414-1.414L14.05 5.536 10.515 2H19v8.485z"></path></g></svg>