<svg viewBox="0 0 40 40" xmlns="http://www.w3.org/2000/svg"><path fill="#f2faff" d="M.5 5.5h39v29H.5z"></path><path d="M39 6v28H1V6h38m1-1H0v30h40V5z" fill="#788b9c"></path><path fill="#36404d" d="M5 22H4v9h1v-9z"></path><path fill="#4e5e6d" d="M6.5 22.5h2v8h-2z"></path><path d="M8 23v7H7v-7h1m1-1H6v9h3v-9z" fill="#36404d"></path><path fill="#4e5e6d" d="M10.5 22.5h1v8h-1z"></path><path d="M11 23v7-7m1-1h-2v9h2v-9z" fill="#36404d"></path><path fill="#4e5e6d" d="M13.5 22.5h3v8h-3z"></path><path d="M16 23v7h-2v-7h2m1-1h-4v9h4v-9z" fill="#36404d"></path><path fill="#b0c1d4" d="M24 22h12v1H24zM24 26h12v1H24zM24 30h12v1H24z"></path><g><path d="M31 18.5c-2.481 0-4.5-2.019-4.5-4.5s2.019-4.5 4.5-4.5 4.5 2.019 4.5 4.5-2.019 4.5-4.5 4.5z" fill="#dcd5f2"></path><path d="M31 10c2.206 0 4 1.794 4 4s-1.794 4-4 4-4-1.794-4-4 1.794-4 4-4m0-1a5 5 0 10.001 10.001A5 5 0 0031 9z" fill="#8b75a1"></path></g><g><path d="M31 12c1.103 0 2 .897 2 2s-.897 2-2 2-2-.897-2-2 .897-2 2-2m0-1a3 3 0 100 6 3 3 0 000-6z" fill="#a59dd1"></path></g></svg>