<svg viewBox="0 0 40 40" xmlns="http://www.w3.org/2000/svg"><path fill="#8bb7f0" d="M2.5 38.5V10.266l17.497-6.73 17.503 6.73V38.5z"></path><path d="M19.997 4.071L37 10.61V38H3V10.61l16.997-6.539m0-1.071L2 9.923V39h36V9.923L19.997 3z" fill="#4e7ab5"></path><path fill="#8bb7f0" d="M19.997 5.458L1.5 13.247V9.332l18.497-7.79L38.5 9.332v3.915z"></path><path d="M19.997 2.085L38 9.664v2.83L20.385 5.078l-.388-.163-.388.163L2 12.494v-2.83l17.997-7.579m0-1.085L1 9v5l18.997-8L39 14V9L19.997 1z" fill="#4e7ab5"></path><g><path fill="#ffeea3" d="M9.5 16.5h21v15h-21z"></path><path d="M30 17v14H10V17h20m1-1H9v16h22V16z" fill="#ba9b48"></path></g><path d="M9.393 19.119l9.117 4.998c.93.51 2.05.51 2.98 0l9.117-4.998" fill="#ffeea3" stroke="#ba9b48" stroke-miterlimit="10"></path></svg>