<svg viewBox="0 0 40 40" xmlns="http://www.w3.org/2000/svg"><path fill="#f2faff" d="M.5 5.5h39v29H.5z"></path><path d="M39 6v28H1V6h38m1-1H0v30h40V5z" fill="#788b9c"></path><path fill="#b0c1d4" d="M24 22h12v1H24zM24 26h12v1H24zM24 30h7v1h-7zM19 7h1v1h-1zM19 9h1v1h-1zM19 11h1v1h-1zM19 13h1v1h-1zM19 15h1v1h-1zM19 17h1v1h-1zM19 19h1v1h-1zM19 21h1v1h-1zM19 23h1v1h-1zM19 25h1v1h-1zM19 27h1v1h-1zM19 29h1v1h-1zM19 31h1v1h-1zM19 33h1v1h-1z"></path><path fill="#8bb7f0" d="M29.5 9.5h6v8h-6z"></path><path d="M35 10v7h-5v-7h5m1-1h-7v9h7V9z" fill="#4e7ab5"></path><path d="M32.5 11a.501.501 0 01-.5-.5v-1c0-.275.225-.5.5-.5s.5.225.5.5v1c0 .275-.225.5-.5.5zM30.5 11a.501.501 0 01-.5-.5v-1c0-.275.225-.5.5-.5s.5.225.5.5v1c0 .275-.225.5-.5.5zM34.5 11a.501.501 0 01-.5-.5v-1c0-.275.225-.5.5-.5s.5.225.5.5v1c0 .275-.225.5-.5.5z" fill="#8bb7f0"></path><path d="M34.5 11h1c.275 0 .5-.225.5-.5s-.225-.5-.5-.5h-1c-.275 0-.5.225-.5.5s.225.5.5.5zM34.5 13h1c.275 0 .5-.225.5-.5s-.225-.5-.5-.5h-1c-.275 0-.5.225-.5.5s.225.5.5.5zM34.5 15h1c.275 0 .5-.225.5-.5s-.225-.5-.5-.5h-1c-.275 0-.5.225-.5.5s.225.5.5.5zM34.5 17h1c.275 0 .5-.225.5-.5s-.225-.5-.5-.5h-1c-.275 0-.5.225-.5.5s.225.5.5.5zM29.5 11h1c.275 0 .5-.225.5-.5s-.225-.5-.5-.5h-1c-.275 0-.5.225-.5.5s.225.5.5.5zM29.5 13h1c.275 0 .5-.225.5-.5s-.225-.5-.5-.5h-1c-.275 0-.5.225-.5.5s.225.5.5.5zM29.5 15h1c.275 0 .5-.225.5-.5s-.225-.5-.5-.5h-1c-.275 0-.5.225-.5.5s.225.5.5.5zM29.5 17h1c.275 0 .5-.225.5-.5s-.225-.5-.5-.5h-1c-.275 0-.5.225-.5.5s.225.5.5.5zM32.5 11h-1a.501.501 0 01-.5-.5c0-.275.225-.5.5-.5h1c.275 0 .5.225.5.5s-.225.5-.5.5zM32.5 13h-1a.501.501 0 01-.5-.5c0-.275.225-.5.5-.5h1c.275 0 .5.225.5.5s-.225.5-.5.5zM32.5 15h-1a.501.501 0 01-.5-.5c0-.275.225-.5.5-.5h1c.275 0 .5.225.5.5s-.225.5-.5.5zM32.5 16c-.275 0-.5.225-.5.5v1c0 .275.225.5.5.5s.5-.225.5-.5v-1c0-.275-.225-.5-.5-.5z" fill="#8bb7f0"></path><path d="M30.5 16c-.275 0-.5.225-.5.5v1c0 .275.225.5.5.5s.5-.225.5-.5v-1c0-.275-.225-.5-.5-.5zM34.5 16c-.275 0-.5.225-.5.5v1c0 .275.225.5.5.5s.5-.225.5-.5v-1c0-.275-.225-.5-.5-.5z" fill="#8bb7f0"></path></svg>