<svg viewBox="0 0 40 40" xmlns="http://www.w3.org/2000/svg"><path d="M15.496 38.5c-5.309 0-9.688-2.179-12.017-5.978-4.744-7.738-.204-11.791 5.053-16.484 1.429-1.275 2.905-2.594 4.182-4.007.406-.45.812-.904 1.218-1.358C17.96 6.164 22.126 1.5 27.006 1.5c1.913 0 3.829.684 5.857 2.091 3.216 2.231 5.137 5.674 5.553 9.958.595 6.115-2.007 13.143-6.627 17.904-4.283 4.412-10.374 7.047-16.293 7.047z" fill="#f5ce85"></path><path d="M27.007 2c1.807 0 3.63.655 5.571 2.002 3.906 2.71 5.06 6.713 5.34 9.595.581 5.975-1.966 12.847-6.488 17.508C27.24 35.422 21.283 38 15.496 38c-5.131 0-9.356-2.092-11.591-5.739-4.525-7.383-.129-11.307 4.961-15.85 1.438-1.284 2.925-2.611 4.219-4.043.407-.45.813-.905 1.218-1.359C18.441 6.376 22.35 2 27.007 2m-.001-1c-5.598 0-10.067 5.611-14.663 10.697-5.781 6.399-15.632 10.741-9.291 21.087C5.636 37 10.34 39 15.496 39c5.763 0 12.091-2.5 16.652-7.2 7.777-8.014 10.009-22.371 1-28.62C30.938 1.647 28.907 1 27.006 1z" fill="#967a44"></path><circle cx="28.5" cy="11.5" r=".5" fill="#967a44"></circle><circle cx="29.5" cy="18.5" r=".5" fill="#967a44"></circle><circle cx="17.5" cy="27.5" r=".5" fill="#967a44"></circle><circle cx="17.5" cy="34.5" r=".5" fill="#967a44"></circle><circle cx="11.5" cy="31.5" r=".5" fill="#967a44"></circle><circle cx="24" cy="15" r="1" fill="#967a44"></circle></svg>