<svg viewBox="0 0 40 40" xmlns="http://www.w3.org/2000/svg"><path d="M20 28.5c-9.416 0-15.5-2.468-15.5-6.286V14h31v8.214c0 3.818-6.084 6.286-15.5 6.286z" fill="#8bb7f0"></path><path d="M35 14.5v7.714C35 25.675 28.972 28 20 28S5 25.675 5 22.214V14.5h30m1-1H4v8.714C4 26.711 11.163 29 20 29s16-2.289 16-6.786V13.5z" fill="#4e7ab5"></path><path fill="#f5c276" d="M29.163 23L34 31.678l-2.063.496-4.735-8.515z"></path><path d="M20 19.5c-8.402 0-15.5-2.748-15.5-6s7.098-6 15.5-6 15.5 2.748 15.5 6-7.098 6-15.5 6z" fill="#c2e8ff"></path><path d="M20 8c8.84 0 15 2.899 15 5.5S28.84 19 20 19 5 16.101 5 13.5 11.16 8 20 8m0-1C11.163 7 4 9.91 4 13.5S11.163 20 20 20s16-2.91 16-6.5S28.837 7 20 7z" fill="#7496c4"></path><path d="M20 14.071c-1.681 0-2.184-.579-2.215-.886l.001-10.828c.039-.267.555-.857 2.214-.857s2.175.59 2.216.902l-.002 10.812c-.03.278-.533.857-2.214.857z" fill="#8bb7f0"></path><path d="M20 2c1.197 0 1.629.325 1.714.474v10.643c-.076.139-.502.454-1.715.454-1.212 0-1.637-.315-1.714-.454V2.474C18.371 2.325 18.803 2 20 2m0-1c-2.639 0-2.714 1.357-2.714 1.357v10.857s.029 1.357 2.714 1.357 2.714-1.357 2.714-1.357V2.357S22.639 1 20 1zM18 23h4v6h-4z" fill="#4e7ab5"></path><path d="M20 35c1.717 0 3 .792 3 1.5S21.717 38 20 38s-3-.792-3-1.5 1.283-1.5 3-1.5m0-1c-2.209 0-4 1.119-4 2.5s1.791 2.5 4 2.5 4-1.119 4-2.5-1.791-2.5-4-2.5zM34 32c1.717 0 3 .792 3 1.5S35.717 35 34 35s-3-.792-3-1.5 1.283-1.5 3-1.5m0-1c-2.209 0-4 1.119-4 2.5s1.791 2.5 4 2.5 4-1.119 4-2.5-1.791-2.5-4-2.5zM10.837 23L6 31.678l2.063.496 4.735-8.515z" fill="#f5c276"></path><g fill="#4e7ab5"><path d="M31.508 27.208c.319-.13.627-.265.917-.41l-2.389-4.286-.405-.726-.788.265-1.961.659-1.14.383.584 1.051 2.215 3.983c.344-.08.676-.167 1.001-.258L27.2 23.657 29.163 23l2.345 4.208zM11.156 22.052l-.788-.265-.405.726-2.389 4.286c.29.144.598.279.917.41L10.837 23l1.961.659-2.342 4.212c.325.091.657.178 1.001.258l2.215-3.983.584-1.051-1.14-.383-1.96-.66z"></path></g><path d="M6 32c1.717 0 3 .792 3 1.5S7.717 35 6 35s-3-.792-3-1.5S4.283 32 6 32m0-1c-2.209 0-4 1.119-4 2.5S3.791 36 6 36s4-1.119 4-2.5S8.209 31 6 31zM19 24h2v11h-2z" fill="#f5c276"></path><path fill="#f5c276" d="M19 24h2v11h-2z"></path><g><path d="M20 14.5c-1.479 0-2.405-.563-2.479-.951l-.021-.107V2.857h5v10.614l-.021.077c-.074.39-1 .952-2.479.952z" fill="#8bb7f0"></path><path d="M22 3.357v10.062c-.096.172-.804.581-2 .581-1.198 0-1.907-.411-1.989-.546L18 13.406V3.357h4m1-1h-6v11.286h.029C17.175 14.403 18.441 15 20 15s2.825-.597 2.971-1.357H23V2.357z" fill="#4e7ab5"></path></g><g><ellipse cx="20" cy="2.5" rx="3" ry="1.5" fill="#4e7ab5"/></g></svg>