<svg viewBox="0 0 40 40" xmlns="http://www.w3.org/2000/svg"><path d="M29.42 17.5c-1.335 0-2.348-.384-3.009-1.14-1.19-1.362-.918-3.5-.915-3.521l.054-.402-.383-.137c-.109-.039-2.667-.973-2.667-3.255C22.5 5.09 27.199 4.5 30 4.5c3.765 0 6.653 1.918 7.455 2.511-.322 1.71-2.258 10.489-8.035 10.489z" fill="#bae0bd"></path><path d="M30 5c3.293 0 5.894 1.536 6.903 2.231C36.454 9.415 34.528 17 29.42 17c-1.18 0-2.064-.324-2.626-.962-1.037-1.177-.805-3.117-.803-3.133l.109-.808-.769-.27C25.307 11.82 23 10.989 23 9.046 23 5.526 27.386 5 30 5m0-1c-3.995 0-8 1.164-8 5.046 0 2.675 3 3.726 3 3.726S24.295 18 29.42 18C36.299 18 38 6.8 38 6.8S34.679 4 30 4z" fill="#5e9c76"></path><path d="M11.772 15.5c-6.709 0-9.669-8.507-10.2-10.233C2.581 4.464 6.683 1.5 12.156 1.5c3.561 0 7.344 1.707 7.344 4.871 0 2.843-3.237 3.759-3.27 3.768l-.388.105.02.402c.001.023.1 2.366-1.241 3.774-.682.717-1.64 1.08-2.849 1.08z" fill="#bae0bd"></path><path d="M12.156 2C15.474 2 19 3.532 19 6.371c0 2.44-2.786 3.253-2.901 3.285l-.772.214.037.8c.001.021.084 2.162-1.107 3.409-.593.62-1.405.921-2.484.921-6.018 0-8.893-7.354-9.618-9.552C3.457 4.472 7.24 2 12.156 2m0-1C5.579 1 1 5.091 1 5.091S3.861 16 11.773 16c4.871 0 4.589-5.38 4.589-5.38S20 9.629 20 6.371C20 3.002 16.222 1 12.156 1z" fill="#5e9c76"></path><path d="M19.5 23c0-7.921-1.444-13.435-10-16.5M19.5 22.714c0-8.19 8.257-11.994 13.08-13.498" fill="none" stroke="#5e9c76" stroke-miterlimit="10"></path><g><path fill="#ffc49c" d="M12.167 38.5L9.6 24.5h20.8l-2.567 14z"></path><path d="M29.8 25l-2.383 13H12.583L10.2 25h19.6m1.2-1H9l2.75 15h16.5L31 24z" fill="#a16a4a"></path></g><g><path fill="#ffc49c" d="M8.5 21.5h23v4h-23z"></path><path d="M31 22v3H9v-3h22m1-1H8v5h24v-5z" fill="#a16a4a"></path></g></svg>