<svg viewBox="0 0 40 40" xmlns="http://www.w3.org/2000/svg"><path d="M20 38.5c-8.944 0-16.5-2.977-16.5-6.5V14c0-3.523 7.556-6.5 16.5-6.5s16.5 2.977 16.5 6.5v18c0 3.523-7.556 6.5-16.5 6.5z" fill="#c2e8ff"></path><path d="M20 8c9.429 0 16 3.162 16 6v18c0 2.838-6.571 6-16 6S4 34.838 4 32V14c0-2.838 6.571-6 16-6m0-1c-9.389 0-17 3.134-17 7v18c0 3.866 7.611 7 17 7s17-3.134 17-7V14c0-3.866-7.611-7-17-7z" fill="#7496c4"></path><path d="M20 22.74c-5.542 0-9.566-.882-12-1.74v10.391C9.49 32.374 13.551 34 20 34s10.51-1.626 12-2.609V21c-2.434.858-6.458 1.74-12 1.74z" fill="#fff"></path><ellipse cx="20" cy="14" rx="16" ry="6" fill="#dbf2ff"/><path d="M20 15.5c-6.777 0-11.5-1.845-11.5-3.5V5c0-1.655 4.723-3.5 11.5-3.5S31.5 3.345 31.5 5v7c0 1.655-4.723 3.5-11.5 3.5z" fill="#8bb7f0"></path><path d="M20 2c7.117 0 11 1.982 11 3v7c0 1.018-3.883 3-11 3S9 13.018 9 12V5c0-1.018 3.883-3 11-3m0-1C13.373 1 8 2.791 8 5v7c0 2.209 5.373 4 12 4s12-1.791 12-4V5c0-2.209-5.373-4-12-4z" fill="#4e7ab5"></path><path d="M20 8.5C13.223 8.5 8.5 6.655 8.5 5S13.223 1.5 20 1.5 31.5 3.345 31.5 5 26.777 8.5 20 8.5z" fill="#8bb7f0"></path><path d="M20 2c7.117 0 11 1.982 11 3s-3.883 3-11 3S9 6.018 9 5s3.883-3 11-3m0-1C13.373 1 8 2.791 8 5s5.373 4 12 4 12-1.791 12-4-5.373-4-12-4z" fill="#4e7ab5"></path><g><ellipse cx="20" cy="5.5" rx="1" ry=".5" fill="#4e7ab5"/></g><g><ellipse cx="24" cy="4.5" rx="1" ry=".5" fill="#4e7ab5"/></g><g><ellipse cx="16" cy="4.5" rx="1" ry=".5" fill="#4e7ab5"/></g></svg>