<svg viewBox="0 0 40 40" xmlns="http://www.w3.org/2000/svg"><path fill="#fff" d="M6.5 37.5v-35h18.293l8.707 8.707V37.5z"></path><path d="M24.586 3L33 11.414V37H7V3h17.586M25 2H6v36h28V11l-9-9z" fill="#c76443"></path><path fill="#ffd9cc" d="M24.5 11.5v-9h.293l8.707 8.707v.293z"></path><path d="M25 3.414L32.586 11H25V3.414M25 2h-1v10h10v-1l-9-9z" fill="#cf6846"></path><path fill="none" stroke="#c76443" stroke-linecap="round" stroke-linejoin="round" stroke-miterlimit="10" d="M16.5 32.5v-11M16.5 21.5c0 2.485 1.87 5 4 5s4-2.015 4-4.5-1.87-4.5-4-4.5h-4"></path></svg>