<svg viewBox="0 0 40 40" xmlns="http://www.w3.org/2000/svg"><path fill="#ffa68a" d="M6.5 37.5v-35h18.293l8.707 8.707V37.5z"></path><path d="M24.586 3L33 11.414V37H7V3h17.586M25 2H6v36h28V11l-9-9z" fill="#c76443"></path><path fill="#fff" d="M24.5 11.5v-9h.293l8.707 8.707v.293z"></path><path d="M25 3.414L32.586 11H25V3.414M25 2h-1v10h10v-1l-9-9z" fill="#c76443"></path><path d="M12.499 18.105a8.918 8.918 0 011.781-.169c1.015 0 1.82.144 2.379.677.521.455.755 1.183.755 1.924 0 .949-.286 1.625-.741 2.106-.546.585-1.417.845-2.133.845-.116 0-.221 0-.338-.013v3.263h-1.703v-8.633zm1.703 3.992c.092.014.183.014.286.014.858 0 1.235-.611 1.235-1.431 0-.767-.312-1.364-1.105-1.364-.155 0-.312.025-.416.064v2.717zM18.44 18.105a8.903 8.903 0 011.781-.169c1.014 0 1.819.144 2.379.677.52.455.754 1.183.754 1.924 0 .949-.286 1.625-.741 2.106-.546.585-1.417.845-2.132.845-.117 0-.221 0-.338-.013v3.263H18.44v-8.633zm1.704 3.992c.091.014.182.014.286.014.857 0 1.234-.611 1.234-1.431 0-.767-.312-1.364-1.104-1.364-.156 0-.312.025-.416.064v2.717zM25.33 19.549h-1.547v-1.573h4.811v1.573h-1.561v7.189H25.33v-7.189z" fill="#fff"></path></svg>