<svg viewBox="0 0 40 40" xmlns="http://www.w3.org/2000/svg"><path d="M20 5c-9.351 0-9 2.89-9 8l.003 12.845c0 1.957.99 3.771 2.608 4.778L17 33h6l3.389-2.377c1.618-1.007 2.608-2.821 2.608-4.778V13c0-5.25.499-8-8.997-8z" fill="#8bb7f0"></path><path d="M0 33h1C1.349 7.557 11.242 6.641 11.342 6.638l-.013-1.333C10.867 5.308 0 7.722 0 33z" fill="#4e7ab5"></path><path d="M3 35h1C4.223 5.28 13.906 6.641 14.007 6.638L14 5.305c-.462 0-11 .036-11 29.695z" fill="#4e7ab5"></path><path d="M6 38h1c0-19.995 2.972-27.623 6.418-30.065 1.858-1.317 3.086-1.318 3.145-1.305l.217-1.316c-.083-.008-1.957-.307-4.147 1.538C9.303 9.658 6 17.363 6 38zM40 33h-1C38.651 7.557 28.758 6.641 28.658 6.638l.013-1.333C29.133 5.308 40 7.722 40 33z" fill="#4e7ab5"></path><path d="M37 35h-1C35.777 5.28 26.094 6.641 25.993 6.638L26 5.305c.462 0 11 .036 11 29.695z" fill="#4e7ab5"></path><path d="M34 38h-1c0-19.995-2.972-27.623-6.418-30.065-1.858-1.317-3.086-1.318-3.145-1.305l-.217-1.316c.083-.008 1.957-.307 4.147 1.538C30.697 9.658 34 17.363 34 38z" fill="#4e7ab5"></path><path d="M17.158 32.5l-3.261-2.286c-1.485-.926-2.395-2.594-2.395-4.368l-.004-13.382c-.006-2.437-.011-4.197 1.11-5.321C13.728 6.022 16.076 5.5 20 5.5c4.053 0 6.352.494 7.454 1.601 1.064 1.07 1.057 2.78 1.045 5.148l-.002 13.597c0 1.774-.909 3.442-2.372 4.353L22.842 32.5h-5.684z" fill="#8bb7f0"></path><path d="M20 6c3.856 0 6.112.462 7.099 1.453.918.923.911 2.546.9 4.793l-.002.754v12.845c0 1.603-.818 3.109-2.136 3.929l-.023.014-.022.016L22.684 32h-5.369l-3.131-2.196-.022-.016-.023-.014c-1.318-.82-2.136-2.326-2.136-3.929L12 13l-.001-.538c-.006-2.316-.01-3.99.964-4.966C13.981 6.475 16.217 6 20 6m0-1c-9.351 0-9 2.89-9 8l.003 12.845c0 1.957.99 3.771 2.608 4.778L17 33h6l3.389-2.377c1.618-1.007 2.608-2.821 2.608-4.778V13c0-5.25.499-8-8.997-8z" fill="#4e7ab5"></path><path d="M23.5 29c0-1.885 1.604-2.505 1.672-2.53.22-.046 2.073-.481 3.325-1.313v.689c0 1.774-.909 3.442-2.372 4.353l-2.625 1.84V29zm-9.603 1.214c-1.485-.926-2.395-2.594-2.395-4.368v-.689c1.255.833 3.12 1.271 3.388 1.332.006.006 1.61.626 1.61 2.511v3.039l-2.603-1.825z" fill="#8bb7f0"></path><path d="M27.994 26.016c-.056 1.539-.862 2.967-2.133 3.758l-.023.015-.022.016L24 31.077V29a2.18 2.18 0 011.299-2.043c.444-.103 1.616-.406 2.695-.941m-15.988 0c1.077.534 2.246.837 2.692.941A2.179 2.179 0 0116 29v2.077l-1.815-1.273-.022-.016-.023-.015c-1.271-.79-2.078-2.218-2.134-3.757m-1.003-2.012v1.842c0 1.957.99 3.771 2.608 4.778L17 33h6l3.389-2.377c1.618-1.007 2.607-2.82 2.607-4.778v-1.841C28.214 25.279 25 26 25 26s-2 .722-2 3v3h-6v-3c0-2.278-2-3-2-3s-3.216-.721-3.997-1.996z" fill="#4e7ab5"></path><path d="M19.401 23.5c-.348-.876-1.585-1.711-3.316-2.879C12.884 18.461 8.5 15.503 8.5 11c0-4.22 3.319-7.272 9.129-8.422l.741 2.965C16.209 5.8 11.5 7.246 11.5 11c0 3.771 6.25 7.5 8.5 7.5s8.5-3.729 8.5-7.5c0-3.754-4.709-5.2-6.87-5.457l.741-2.965C28.181 3.728 31.5 6.78 31.5 11c0 4.417-4.369 7.398-7.56 9.575-1.746 1.191-2.992 2.042-3.342 2.925h-1.197z" fill="#c2e8ff"></path><path d="M22.739 3.166C28.004 4.331 31 7.154 31 11c0 4.153-4.243 7.048-7.341 9.162-1.625 1.109-2.843 1.94-3.371 2.838h-.577c-.525-.89-1.735-1.706-3.347-2.794C13.256 18.109 9 15.237 9 11c0-3.846 2.996-6.669 8.261-7.834l.494 1.976C15.404 5.567 11 7.049 11 11c0 4.11 6.549 8 9 8s9-3.89 9-8c0-3.951-4.404-5.433-6.755-5.858l.494-1.976M22 2l-1 4c1.114 0 7 1.061 7 5 0 3.427-6.051 7-8 7s-8-3.573-8-7c0-3.939 5.886-5 7-5l-1-4C11.915 3.076 8 6.247 8 11c0 7.409 11 10.729 11 13h2c0-2.271 11-5.707 11-13 0-4.753-3.915-7.924-10-9z" fill="#7496c4"></path><path d="M21.792 10.51c-1.935.602-4.169 2.732-4.264 2.823M19.19 16.749c.917-1.376 1.414-4.137 1.435-4.254" fill="none" stroke="#4e7ab5" stroke-miterlimit="10"></path><path d="M22 23h-4c-.551 0-1 .449-1 1v7.667h6V24c0-.551-.449-1-1-1z" fill="none"></path><path d="M24 24a2 2 0 00-2-2h-4a2 2 0 00-2 2v7h1v-7c0-.551.449-1 1-1h4c.551 0 1 .449 1 1v7h1v-7z" fill="#7496c4"></path><path d="M29 21c-.826 1.156-4 3-6 3v-1h-6v1c-2 0-5.174-1.844-6-3h-1c0 2.056 1 3 1 3 .778 1.278 4 2 4 2s2 .722 2 3v2.779l.316.221h5.369l.315-.221V29c0-2.278 2-3 2-3s3.222-.722 4-2c0 0 1-.944 1-3h-1z" fill="#c2e8ff"></path><path d="M24 31.077V24a2 2 0 00-2-2h-4a2 2 0 00-2 2v7.077l1 .701V24c0-.551.449-1 1-1h4c.551 0 1 .449 1 1v7.779l1-.702z" fill="#7496c4"></path><g><path d="M24.382 23.264a2.48 2.48 0 00-.823-1.21c.307-.215.634-.438.975-.672.336-.229.687-.469 1.044-.719.558.282.918.84.923 1.004-.001.472-.91 1.22-2.119 1.597z" fill="#4b6477"></path><path d="M25.589 21.263c.188.148.331.324.393.436-.105.212-.573.627-1.318.934a2.9 2.9 0 00-.33-.509l.478-.328c.252-.172.512-.349.777-.533m-.075-1.167c-1.075.757-2.091 1.42-2.89 2.013a1.99 1.99 0 011.364 1.772C25.534 23.56 27 22.577 27 21.667c0-.457-.664-1.297-1.486-1.571z" fill="#36404d"></path></g><g><path d="M15.66 23.264c-1.21-.377-2.119-1.124-2.118-1.596.005-.165.365-.723.923-1.005.358.25 1.713 1.177 2.018 1.391-.39.309-.677.73-.823 1.21z" fill="#4b6477"></path><path d="M14.452 21.263l.777.534.478.328a2.937 2.937 0 00-.33.509c-.757-.311-1.228-.732-1.321-.928.06-.112.204-.292.396-.443m.075-1.167c-.821.274-1.486 1.113-1.486 1.57 0 .91 1.466 1.893 3.012 2.215a1.987 1.987 0 011.364-1.772c-.799-.593-1.815-1.256-2.89-2.013z" fill="#36404d"></path></g></svg>