<svg viewBox="0 0 40 40" xmlns="http://www.w3.org/2000/svg"><path d="M26 26.5c-.827 0-1.5-.673-1.5-1.5v-9.5h3V25c0 .827-.673 1.5-1.5 1.5z" fill="#f5ce85"></path><path d="M27 16v9c0 .551-.449 1-1 1s-1-.449-1-1v-9h2m1-1h-4v10a2 2 0 104 0V15z" fill="#967a44"></path><path d="M14 26.5c-.827 0-1.5-.673-1.5-1.5v-9.5h3V25c0 .827-.673 1.5-1.5 1.5z" fill="#f5ce85"></path><path d="M15 16v9c0 .551-.449 1-1 1s-1-.449-1-1v-9h2m1-1h-4v10a2 2 0 104 0V15z" fill="#967a44"></path><path fill="#f5ce85" d="M17.475 38.5l-1.019-19.357h7.088L22.525 38.5z"></path><path d="M23.017 19.643L22.051 38h-4.102l-.966-18.357h6.034m1.054-1h-8.143L17 39h6l1.071-20.357z" fill="#967a44"></path><g><path d="M20 31.5c-3.439 0-8.13-.98-9.497-1.283.106-6.297 2.702-11.428 4.262-13.954l.471-.763H12.5V15c0-2.481 2.019-4.5 4.5-4.5h6c2.481 0 4.5 2.019 4.5 4.5v.5h-2.731l.474.764c1.557 2.512 4.148 7.625 4.254 13.953C28.13 30.52 23.439 31.5 20 31.5z" fill="#8bb7f0"></path><path d="M23 11c2.206 0 4 1.794 4 4h-3.128l.946 1.527c1.496 2.414 3.964 7.27 4.169 13.289C27.276 30.183 23.112 31 20 31c-3.109 0-7.275-.817-8.986-1.184.206-5.991 2.678-10.864 4.177-13.291L16.132 15H13c0-2.206 1.794-4 4-4h6m0-1h-6a5 5 0 00-5 5v1h2.34C12.649 18.738 10 24.069 10 30.615c0 0 5.845 1.385 10 1.385s10-1.385 10-1.385c0-6.577-2.641-11.887-4.332-14.615H28v-1a5 5 0 00-5-5z" fill="#4e7ab5"></path></g><g><circle cx="20" cy="5" r="3.5" fill="#f5ce85"></circle><path d="M20 2c1.654 0 3 1.346 3 3s-1.346 3-3 3-3-1.346-3-3 1.346-3 3-3m0-1a4 4 0 100 8 4 4 0 000-8z" fill="#967a44"></path></g><g><path d="M24 22c0-1.105-.895-2-2-2s-2 1.342-2 1.342S19.105 20 18 20s-2 .895-2 2c0 2.639 4 4.667 4 4.667s4-2.011 4-4.667z" fill="#fff"></path></g></svg>