<svg viewBox="0 0 40 40" xmlns="http://www.w3.org/2000/svg"><path d="M31.917 38.935a22.489 22.489 0 007.017-7.017M8.083 1.065a22.474 22.474 0 00-7.018 7.018" fill="none" stroke="#4e7ab5" stroke-miterlimit="10"></path><path d="M20 38.5C9.799 38.5 1.5 30.201 1.5 20S9.799 1.5 20 1.5 38.5 9.799 38.5 20 30.201 38.5 20 38.5z" fill="#8bb7f0"></path><path d="M20 2c9.925 0 18 8.075 18 18s-8.075 18-18 18S2 29.925 2 20 10.075 2 20 2m0-1C9.507 1 1 9.507 1 20s8.507 19 19 19 19-8.507 19-19S30.493 1 20 1z" fill="#4e7ab5"></path><path d="M20 35.5c-8.547 0-15.5-6.953-15.5-15.5S11.453 4.5 20 4.5 35.5 11.453 35.5 20 28.547 35.5 20 35.5z" fill="#fff"></path><path d="M20 5c8.271 0 15 6.729 15 15s-6.729 15-15 15S5 28.271 5 20 11.729 5 20 5m0-1C11.163 4 4 11.163 4 20s7.163 16 16 16 16-7.163 16-16S28.837 4 20 4z" fill="#4e7ab5"></path><path fill="none" stroke="#66798f" stroke-width="2" stroke-linecap="round" stroke-miterlimit="10" d="M26.995 9.665L20 20l5.846 5.846"></path><circle cx="20" cy="20" r="1.5" fill="#66798f"></circle><circle cx="20" cy="7" r="1" fill="#c5d4de"></circle><circle cx="20" cy="33" r="1" fill="#c5d4de"></circle><g><circle cx="33" cy="20" r="1" fill="#c5d4de"></circle></g><g><circle cx="7" cy="20" r="1" fill="#c5d4de"></circle></g></svg>