<svg viewBox="0 0 40 40" xmlns="http://www.w3.org/2000/svg"><path d="M20 34c10.252 0 17-6.991 17-15 0-8.71-6.102-13-12-13-7.235 0-12 5.91-12 11" fill="none" stroke="#967a44" stroke-width="6" stroke-linejoin="round" stroke-miterlimit="10"></path><path d="M20 34c10.252 0 17-6.991 17-15 0-8.71-6.102-13-12-13-7.235 0-12 5.91-12 11" fill="none" stroke="#f5ce85" stroke-width="4" stroke-linecap="round" stroke-miterlimit="10"></path><path d="M20 34C9.748 34 3 27.009 3 19 3 10.29 9.102 6 15 6c7.235 0 12 5.91 12 11" fill="none" stroke="#967a44" stroke-width="6" stroke-linejoin="round" stroke-miterlimit="10"></path><path d="M20 34C9.748 34 3 27.009 3 19 3 10.29 9.102 6 15 6c7.235 0 12 5.91 12 11" fill="none" stroke="#f5ce85" stroke-width="4" stroke-linecap="round" stroke-miterlimit="10"></path><path d="M27 17C27 30.099 9 31 9 31" fill="none" stroke="#967a44" stroke-width="6" stroke-linecap="round" stroke-linejoin="round" stroke-miterlimit="10"></path><path d="M25.111 11.283C26.33 13.067 27 15.091 27 17 27 30.099 9 31 9 31" fill="none" stroke="#f5ce85" stroke-width="4" stroke-linecap="round" stroke-miterlimit="10"></path><path d="M13 17c0 13.099 18 14 18 14" fill="none" stroke="#967a44" stroke-width="6" stroke-linecap="round" stroke-linejoin="round" stroke-miterlimit="10"></path><path d="M13.959 12.911C13.334 14.248 13 15.653 13 17c0 13.099 18 14 18 14" fill="none" stroke="#f5ce85" stroke-width="4" stroke-linecap="round" stroke-miterlimit="10"></path><circle cx="4.5" cy="13.5" r=".5" fill="#967a44"></circle><circle cx="2.5" cy="16.5" r=".5" fill="#967a44"></circle><circle cx="2.5" cy="20.5" r=".5" fill="#967a44"></circle><circle cx="20.5" cy="7.5" r=".5" fill="#967a44"></circle><circle cx="23.5" cy="10.5" r=".5" fill="#967a44"></circle><circle cx="36.5" cy="16.5" r=".5" fill="#967a44"></circle><circle cx="37.5" cy="19.5" r=".5" fill="#967a44"></circle><circle cx="36.5" cy="22.5" r=".5" fill="#967a44"></circle><circle cx="22.5" cy="28.5" r=".5" fill="#967a44"></circle><circle cx="26.5" cy="30.5" r=".5" fill="#967a44"></circle><circle cx="11.5" cy="30.5" r=".5" fill="#967a44"></circle></svg>