<svg viewBox="0 0 40 40" xmlns="http://www.w3.org/2000/svg"><path d="M3.69 35.5a2.192 2.192 0 01-2.19-2.19V6.69c0-1.208.982-2.19 2.19-2.19h32.62c1.208 0 2.19.982 2.19 2.19v26.62c0 1.208-.982 2.19-2.19 2.19H3.69z" fill="#c2e8ff"></path><path d="M36.31 5c.932 0 1.69.758 1.69 1.69v26.62c0 .932-.758 1.69-1.69 1.69H3.69C2.758 35 2 34.242 2 33.31V6.69C2 5.758 2.758 5 3.69 5h32.62m0-1H3.69A2.69 2.69 0 001 6.69v26.62A2.69 2.69 0 003.69 36h32.62A2.69 2.69 0 0039 33.31V6.69A2.69 2.69 0 0036.31 4z" fill="#7496c4"></path><path d="M20 27.5c-5.594 0-10.372-6.109-11.387-7.5 1.015-1.391 5.793-7.5 11.387-7.5s10.372 6.109 11.387 7.5c-1.015 1.391-5.793 7.5-11.387 7.5z" fill="#fff"></path><path d="M20 13c5.034 0 9.438 5.252 10.764 7-1.326 1.748-5.729 7-10.764 7s-9.438-5.252-10.764-7c1.326-1.748 5.73-7 10.764-7m0-1c-6.627 0-12 8-12 8s5.373 8 12 8 12-8 12-8-5.373-8-12-8z" fill="#ba9b48"></path><path d="M20 25.5c-3.033 0-5.5-2.467-5.5-5.5s2.467-5.5 5.5-5.5 5.5 2.467 5.5 5.5-2.467 5.5-5.5 5.5z" fill="#8bb7f0"></path><path d="M20 15c2.757 0 5 2.243 5 5s-2.243 5-5 5-5-2.243-5-5 2.243-5 5-5m0-1a6 6 0 100 12 6 6 0 000-12z" fill="#4e7ab5"></path><circle cx="20" cy="20" r="3" fill="#36404d"></circle><circle cx="22" cy="16" r="2" fill="#fff"></circle></svg>