<svg viewBox="0 0 40 40" xmlns="http://www.w3.org/2000/svg"><path d="M17.519 38.475a2.193 2.193 0 01-1.565-.648L2.148 24.022a2.22 2.22 0 010-3.132L20.539 2.523A3.477 3.477 0 0123.013 1.5H35c1.93 0 3.5 1.57 3.5 3.5v12.008c0 .923-.375 1.826-1.028 2.478l-18.388 18.34a2.196 2.196 0 01-1.565.649zM33.143 4.857c-1.103 0-2 .897-2 2s.897 2 2 2 2-.897 2-2-.898-2-2-2z" fill="#f78f8f"></path><path d="M35 2c1.654 0 3 1.346 3 3v12.008a2.98 2.98 0 01-.881 2.124L18.731 37.473a1.702 1.702 0 01-1.212.502c-.458 0-.888-.178-1.212-.502L2.502 23.669a1.717 1.717 0 010-2.424L20.893 2.877A2.982 2.982 0 0123.013 2H35m-1.857 7.357c1.378 0 2.5-1.121 2.5-2.5s-1.122-2.5-2.5-2.5c-1.379 0-2.5 1.121-2.5 2.5s1.121 2.5 2.5 2.5M35 1H23.013c-1.06 0-2.077.421-2.827 1.17L1.795 20.537a2.715 2.715 0 000 3.839L15.599 38.18c.53.53 1.225.795 1.919.795.695 0 1.389-.265 1.919-.795l18.387-18.34A3.997 3.997 0 0039 17.008V5a4 4 0 00-4-4zm-1.857 7.357a1.5 1.5 0 11.001-3.001 1.5 1.5 0 01-.001 3.001z" fill="#c74343"></path><path d="M10.877 21.837l1.185-1.185c1.538.548 3.534.425 4.807-.848.319-.319.601-.601.866-1.008l-1.75-1.75 1.502-1.502 1.502 1.502c.406-.548.901-1.219 1.484-1.803 2.173-2.173 5.125-2.05 7.317.142.937.937 1.414 1.838 1.573 2.422l-2.033 1.255c-.158-.513-.494-1.167-1.184-1.857-1.325-1.325-2.669-.901-3.712.142a8.866 8.866 0 00-1.378 1.767l2.474 2.474-1.502 1.502-2.28-2.28c-.513.548-1.044 1.078-1.697 1.45-.778.424-1.644.583-2.58.529l-.036.036 4.966 4.966-1.785 1.785-7.739-7.739z" fill="#fff"></path></svg>