<svg viewBox="0 0 40 40" xmlns="http://www.w3.org/2000/svg"><path d="M17.519 38.475a2.193 2.193 0 01-1.565-.648L2.148 24.022a2.22 2.22 0 010-3.132L20.539 2.523A3.477 3.477 0 0123.013 1.5H35c1.93 0 3.5 1.57 3.5 3.5v12.008c0 .923-.375 1.826-1.028 2.478l-18.388 18.34a2.196 2.196 0 01-1.565.649zM33.143 4.857c-1.103 0-2 .897-2 2s.897 2 2 2 2-.897 2-2-.898-2-2-2z" fill="#bae0bd"></path><path d="M35 2c1.654 0 3 1.346 3 3v12.008a2.98 2.98 0 01-.881 2.124L18.731 37.473a1.702 1.702 0 01-1.212.502c-.458 0-.888-.178-1.212-.502L2.502 23.669C2.178 23.345 2 22.914 2 22.456s.178-.888.502-1.212L20.893 2.877A2.982 2.982 0 0123.013 2H35m-1.857 7.357c1.378 0 2.5-1.121 2.5-2.5s-1.122-2.5-2.5-2.5-2.5 1.121-2.5 2.5 1.121 2.5 2.5 2.5M35 1H23.013c-1.06 0-2.077.421-2.827 1.17L1.795 20.537a2.715 2.715 0 000 3.839L15.599 38.18c.53.53 1.225.795 1.919.795s1.389-.265 1.919-.795l18.387-18.34A3.997 3.997 0 0039 17.008V5a4 4 0 00-4-4zm-1.857 7.357a1.5 1.5 0 11.001-3.001 1.5 1.5 0 01-.001 3.001z" fill="#5e9c76"></path><path d="M21.087 15.984c.619-.619 1.709-.598 2.851.544 1.293 1.293 1.858 2.59 2.142 3.753l2.09-2.09c-.238-.837-.875-1.825-1.913-2.965l1.409-1.409-1.13-1.13-1.44 1.44c-1.037-.852-2.128-1.278-3.271-1.281-1.143-.003-2.12.4-2.93 1.211-3.201 3.201 2.073 8.674.318 10.428-.624.624-1.889.325-2.762-.548-1.786-1.786-2.454-3.966-2.51-4.508l-2.144 2.144a8.916 8.916 0 002.214 3.638l-1.633 1.633 1.13 1.13 1.68-1.68c1.13.903 2.23 1.366 3.302 1.39 1.07.022 2.034-.395 2.891-1.251 3.417-3.418-2.215-8.528-.294-10.449z" fill="#fff"></path></svg>