<svg viewBox="0 0 40 40" xmlns="http://www.w3.org/2000/svg"><path d="M4 31.5A2.503 2.503 0 011.5 29V13c0-1.378 1.122-2.5 2.5-2.5h3.5v-2h25v2H36c1.378 0 2.5 1.122 2.5 2.5v16c0 1.378-1.122 2.5-2.5 2.5H4z" fill="#b0c1d4"></path><path d="M32 9v2h4c1.103 0 2 .897 2 2v16c0 1.103-.897 2-2 2H4c-1.103 0-2-.897-2-2V13c0-1.103.897-2 2-2h4V9h24m1-1H7v2H4a3 3 0 00-3 3v16a3 3 0 003 3h32a3 3 0 003-3V13a3 3 0 00-3-3h-3V8z" fill="#66798f"></path><path fill="#fff" d="M8.5 1.5h23v10h-23z"></path><path d="M31 2v9H9V2h22m1-1H8v11h24V1z" fill="#788b9c"></path><path d="M11 20.5A2.503 2.503 0 018.5 18v-7.5h23V18c0 1.378-1.122 2.5-2.5 2.5H11z" fill="#8bb7f0"></path><path d="M31 11v7c0 1.103-.897 2-2 2H11c-1.103 0-2-.897-2-2v-7h22m1-1H8v8a3 3 0 003 3h18a3 3 0 003-3v-8z" fill="#4e7ab5"></path><path fill="#fff" d="M8.5 25.5h23v13h-23z"></path><path d="M31 26v12H9V26h22m1-1H8v14h24V25z" fill="#788b9c"></path><path fill="#d6e3ed" d="M9 26h22v3H9z"></path><circle cx="35" cy="15" r="1" fill="#ffeea3"></circle><path d="M9 28v-2h22v2h1.5a1.5 1.5 0 000-3h-25a1.5 1.5 0 000 3H9z" fill="#66798f"></path><g><path d="M31 39.5c-4.687 0-8.5-3.813-8.5-8.5s3.813-8.5 8.5-8.5 8.5 3.813 8.5 8.5-3.813 8.5-8.5 8.5z" fill="#ffeea3"></path><path d="M31 23c4.411 0 8 3.589 8 8s-3.589 8-8 8-8-3.589-8-8 3.589-8 8-8m0-1c-4.971 0-9 4.029-9 9s4.029 9 9 9 9-4.029 9-9-4.029-9-9-9z" fill="#ba9b48"></path></g><path d="M31.011 36a.961.961 0 01-.721-.294.987.987 0 01-.285-.712c0-.291.096-.529.287-.715A.987.987 0 0131.01 34c.291 0 .53.094.716.281a.972.972 0 01.279.712.994.994 0 01-.276.721c-.183.191-.423.286-.718.286zM32 26l-.234 7h-1.543L30 26z" fill="#36404d"></path><g fill="#acbfce"><path d="M38 22.514v2.841c.384.476.718.992 1 1.54v-3.43a11.229 11.229 0 00-1-.951zM21.21 26h2.312a8.96 8.96 0 01.789-1h-2.524c-.21.322-.401.656-.577 1zM25.356 38h-2.841c.293.355.616.684.951 1h3.43a8.993 8.993 0 01-1.54-1z"></path></g></svg>