<svg viewBox="0 0 40 40" xmlns="http://www.w3.org/2000/svg"><path fill="#cbc4e3" d="M27.5 1.5h3v37h-3z"></path><path d="M30 2v36h-2V2h2m1-1h-4v38h4V1z" fill="#8b75a1"></path><path fill="#cbc4e3" d="M28 1h2v2h-2zM9.5 1.5h3v37h-3z"></path><path d="M12 2v36h-2V2h2m1-1H9v38h4V1z" fill="#8b75a1"></path><path fill="#cbc4e3" d="M10 1h2v2h-2zM1.5 9.5h37v3h-37z"></path><path d="M38 10v2H2v-2h36m1-1H1v4h38V9z" fill="#8b75a1"></path><path fill="#cbc4e3" d="M1 10h2v2H1zM37 10h2v2h-2zM8.983 14.5c-.396 0-.768-.154-1.048-.435s-.435-.652-.435-1.048.154-.769.435-1.049l4.034-4.034c.28-.28.652-.435 1.049-.435.396 0 .768.154 1.048.435s.434.653.434 1.049c0 .396-.154.769-.435 1.049l-4.034 4.034c-.28.28-.652.434-1.048.434z"></path><path d="M13.017 8c.263 0 .509.102.695.288a.977.977 0 01.288.695.975.975 0 01-.288.695l-4.034 4.034c-.185.186-.432.288-.695.288s-.509-.102-.695-.288A.977.977 0 018 13.017c0-.263.102-.509.288-.695l4.034-4.034A.973.973 0 0113.017 8m0-1c-.508 0-1.015.194-1.402.581l-4.034 4.034a1.981 1.981 0 102.804 2.804l4.034-4.034A1.981 1.981 0 0013.017 7z" fill="#8b75a1"></path><path d="M26.983 14.5c-.396 0-.768-.154-1.048-.435s-.435-.652-.435-1.048.154-.769.435-1.049l4.034-4.034c.28-.28.652-.435 1.049-.435.396 0 .768.154 1.048.435s.434.653.434 1.049c0 .396-.154.769-.435 1.049l-4.034 4.034c-.28.28-.652.434-1.048.434z" fill="#cbc4e3"></path><path d="M31.017 8c.263 0 .509.102.695.288a.977.977 0 01.288.695.975.975 0 01-.288.695l-4.034 4.034c-.185.186-.432.288-.695.288s-.509-.102-.695-.288a.977.977 0 01-.288-.695c0-.263.102-.509.288-.695l4.034-4.034A.973.973 0 0131.017 8m0-1c-.508 0-1.015.194-1.402.581l-4.034 4.034a1.981 1.981 0 102.804 2.804l4.034-4.034A1.981 1.981 0 0031.017 7z" fill="#8b75a1"></path><g><path d="M26.5 34.5c-1.103 0-2-.897-2-2 0-.233.046-.473.138-.71l.146-.383-.347-.219A1.992 1.992 0 0123.5 29.5c0-.288.067-.577.201-.857l.18-.376-.338-.244A2.476 2.476 0 0122.5 26c0-.55.187-1.079.538-1.53l.258-.33-.279-.312A1.99 1.99 0 0122.5 22.5c0-1.103.897-2 2-2h6v-3h.5c1.096 0 2.143.523 2.8 1.4l1.95 2.6h2.75v12h-2.707l-.561.561a1.511 1.511 0 01-1.061.439H26.5z" fill="#f5ce85"></path><path d="M31 18c.939 0 1.836.449 2.4 1.2l1.8 2.4.3.4H38v11h-2.414l-.293.293-.414.414a.993.993 0 01-.707.293H26.5c-.827 0-1.5-.673-1.5-1.5 0-.172.035-.351.105-.533l.293-.765-.693-.437A1.492 1.492 0 0124 29.5c0-.214.051-.429.152-.641l.36-.753-.677-.489A1.98 1.98 0 0123 26c0-.553.235-.97.433-1.222l.516-.66-.559-.624A1.475 1.475 0 0123 22.5c0-.827.673-1.5 1.5-1.5H31v-3m0-1h-1v3h-5.5a2.5 2.5 0 00-2.5 2.5c0 .641.248 1.22.645 1.662A2.972 2.972 0 0022 26a2.99 2.99 0 001.25 2.428c-.156.326-.25.687-.25 1.072a2.49 2.49 0 001.171 2.11 2.481 2.481 0 00-.171.89 2.5 2.5 0 002.5 2.5h7.672a2 2 0 001.414-.586L36 34h3V21h-3l-1.8-2.4A4 4 0 0031 17z" fill="#967a44"></path></g><g><path fill="#f5ce85" d="M37 22h2v11h-2z"></path></g><g><path d="M5.828 34.5c-.395 0-.781-.16-1.061-.439l-.56-.561H1.5v-12h2.75l1.95-2.6A3.518 3.518 0 019 17.5h.5v3h6c1.103 0 2 .897 2 2 0 .485-.184.957-.517 1.329l-.279.312.258.33c.351.45.538.979.538 1.529 0 .806-.38 1.543-1.043 2.022l-.338.244.18.376c.134.281.201.569.201.857 0 .686-.351 1.317-.938 1.688l-.347.219.146.383c.092.238.138.477.138.71 0 1.103-.897 2-2 2H5.828z" fill="#f5ce85"></path><path d="M9 18v3h6.5c.827 0 1.5.673 1.5 1.5 0 .463-.212.796-.39.995l-.559.624.516.66c.198.251.433.668.433 1.221 0 .644-.305 1.234-.836 1.617l-.677.489.36.753c.102.212.153.427.153.641 0 .513-.263.986-.704 1.265l-.693.437.293.765c.069.182.104.361.104.533 0 .827-.673 1.5-1.5 1.5H5.828a.993.993 0 01-.707-.293l-.414-.414L4.414 33H2V22h2.5l.3-.4 1.8-2.4A3.017 3.017 0 019 18m1-1H9a4 4 0 00-3.2 1.6L4 21H1v13h3l.414.414A2 2 0 005.828 35H13.5a2.5 2.5 0 002.5-2.5c0-.315-.065-.613-.171-.89A2.49 2.49 0 0017 29.5c0-.385-.094-.746-.25-1.072A2.99 2.99 0 0018 26c0-.696-.247-1.329-.645-1.838A2.479 2.479 0 0018 22.5a2.5 2.5 0 00-2.5-2.5H10v-3z" fill="#967a44"></path></g><g><path fill="#f5ce85" d="M1 22h2v11H1z"></path></g></svg>