<svg viewBox="0 0 40 40" xmlns="http://www.w3.org/2000/svg"><path d="M30 17.714V12c0-5.523-4.477-10-10-10S10 6.477 10 12v5.714" fill="none" stroke="#66798f" stroke-width="2" stroke-miterlimit="10"></path><path d="M2.5 37.5V19c0-1.93 1.57-3.5 3.5-3.5h28c1.93 0 3.5 1.57 3.5 3.5v18.5h-35z" fill="#f5ce85"></path><path d="M34 16c1.654 0 3 1.346 3 3v18H3V19c0-1.654 1.346-3 3-3h28m0-1H6a4 4 0 00-4 4v19h36V19a4 4 0 00-4-4z" fill="#967a44"></path><path fill="#ffeea3" d="M3 31h34v3H3zM3 25h34v3H3zM3 19h34v3H3z"></path><circle cx="20" cy="27" r="7.5" fill="#c2e8ff"></circle><path d="M20 20c3.86 0 7 3.14 7 7s-3.14 7-7 7-7-3.14-7-7 3.14-7 7-7m0-1a8 8 0 100 16 8 8 0 000-16z" fill="#4e7ab5"></path><circle cx="20" cy="27" r="3" fill="#36404d"></circle><circle cx="22.5" cy="24.5" r="1.5" fill="#fff"></circle></svg>