<svg viewBox="0 0 40 40" xmlns="http://www.w3.org/2000/svg"><path d="M20 28.5c-10.656 0-17.191-3.168-18.5-3.866v-4.825l18.5-9.25 18.5 9.25v4.825c-1.309.698-7.844 3.866-18.5 3.866zM6.146 21.796l1.259.345c4.667 1.281 8.904 1.93 12.594 1.93s7.928-.649 12.594-1.93l1.259-.345L20 14.87 6.146 21.796z" fill="#ffeea3"></path><path d="M20 11.118l18 9v4.214C36.273 25.21 29.995 28 20 28c-9.958 0-16.267-2.794-18-3.67v-4.212l18-9m0 13.453c3.735 0 8.017-.655 12.726-1.948l2.518-.691-2.336-1.168-12.462-6.231-.446-.222-.447.224-12.462 6.23-2.336 1.168 2.518.691c4.71 1.292 8.992 1.947 12.727 1.947M20 10L1 19.5v5.429S7.786 29 20 29s19-4.071 19-4.071V19.5L20 10zm0 13.571c-4.362 0-8.909-.937-12.462-1.912L20 15.429l12.462 6.231c-3.553.974-8.1 1.911-12.462 1.911z" fill="#ba9b48"></path></svg>