<svg viewBox="0 0 40 40" xmlns="http://www.w3.org/2000/svg"><path d="M20 38.5C9.799 38.5 1.5 30.201 1.5 20S9.799 1.5 20 1.5 38.5 9.799 38.5 20 30.201 38.5 20 38.5z" fill="#f78f8f"></path><path d="M20 2c9.925 0 18 8.075 18 18s-8.075 18-18 18S2 29.925 2 20 10.075 2 20 2m0-1C9.507 1 1 9.507 1 20s8.507 19 19 19 19-8.507 19-19S30.493 1 20 1z" fill="#c74343"></path><path d="M23 20h3v-9.5a1.5 1.5 0 00-3 0V20zM15 20h3V8.5a1.5 1.5 0 00-3 0V20zM11 23h3V12.5a1.5 1.5 0 00-3 0V23zM19 20h3V7.5a1.5 1.5 0 00-3 0V20zM21.554 27.567l2.879 2.879 6.971-6.971a2.036 2.036 0 00-2.879-2.879l-6.971 6.971z" fill="#fff"></path><path d="M20.678 32H16a5 5 0 01-5-5v-9h15v8.678A5.322 5.322 0 0120.678 32z" fill="#fff"></path></svg>