<svg viewBox="0 0 40 40" xmlns="http://www.w3.org/2000/svg"><path d="M1.838 23.5A18.408 18.408 0 016.453 7.428l.328-.353L4.207 4.5H12.5v8.293L9.607 9.9l-.353.389A14.444 14.444 0 005.5 20c0 1.174.146 2.349.433 3.5H1.838z" fill="#bae0bd"></path><path d="M12 5v6.586l-1.668-1.668-.743-.743-.705.779A14.936 14.936 0 005.306 23h-3.05A17.916 17.916 0 016.819 7.768l.657-.706-.682-.682L5.414 5H12m1-1H3l3.087 3.087C2.936 10.475 1 15.007 1 20c0 1.373.153 2.709.43 4h5.158a13.912 13.912 0 013.037-13.375L13 14V4z" fill="#5e9c76"></path><path d="M27.207 12.5L30.1 9.607l-.389-.353A14.444 14.444 0 0020 5.5c-1.174 0-2.348.146-3.5.433V1.838a18.402 18.402 0 0116.072 4.616l.354.328L35.5 4.207V12.5h-8.293z" fill="#bae0bd"></path><path d="M20 2c4.546 0 8.89 1.712 12.232 4.819l.706.657.682-.682L35 5.414V12h-6.586l1.668-1.668.743-.743-.779-.705A14.936 14.936 0 0017 5.306v-3.05A17.961 17.961 0 0120 2m0-1c-1.373 0-2.709.153-4 .43v5.158a13.912 13.912 0 0113.375 3.037L26 13h10V3l-3.087 3.087C29.525 2.936 24.993 1 20 1z" fill="#5e9c76"></path><g><path d="M27.5 35.5v-8.293l2.893 2.893.353-.389A14.444 14.444 0 0034.5 20c0-1.174-.146-2.349-.433-3.5h4.095a18.408 18.408 0 01-4.615 16.072l-.328.353 2.574 2.575H27.5z" fill="#bae0bd"></path><path d="M37.744 17a17.916 17.916 0 01-4.563 15.232l-.657.706.682.682 1.38 1.38H28v-6.586l1.668 1.668.743.743.705-.779A14.936 14.936 0 0034.694 17h3.05m.826-1h-5.158a13.912 13.912 0 01-3.037 13.375L27 26v10h10l-3.087-3.087C37.064 29.525 39 24.993 39 20c0-1.373-.153-2.709-.43-4z" fill="#5e9c76"></path></g><g><path d="M20 38.5a18.402 18.402 0 01-12.572-4.954l-.354-.328L4.5 35.793V27.5h8.293L9.9 30.393l.389.353A14.444 14.444 0 0020 34.5c1.174 0 2.348-.146 3.5-.433v4.094a18.54 18.54 0 01-3.5.339z" fill="#bae0bd"></path><path d="M11.586 28l-1.668 1.668-.743.743.779.705A14.936 14.936 0 0023 34.694v3.05a17.916 17.916 0 01-15.232-4.563l-.706-.657-.682.682L5 34.586V28h6.586M14 27H4v10l3.087-3.087C10.475 37.064 15.007 39 20 39c1.373 0 2.709-.153 4-.43v-5.158a13.912 13.912 0 01-13.375-3.037L14 27z" fill="#5e9c76"></path></g></svg>