<svg viewBox="0 0 40 40" xmlns="http://www.w3.org/2000/svg"><path fill="#ffeea3" d="M8.5 1.5h2v37h-2z"></path><path d="M10 2v36H9V2h1m1-1H8v38h3V1z" fill="#f5c276"></path><path fill="#ffeea3" d="M12.5 1.5h2v37h-2z"></path><path d="M14 2v36h-1V2h1m1-1h-3v38h3V1z" fill="#f5c276"></path><path fill="#ffeea3" d="M16.5 1.5h2v37h-2z"></path><path d="M18 2v36h-1V2h1m1-1h-3v38h3V1z" fill="#f5c276"></path><path fill="#ffeea3" d="M20.5 1.5h2v37h-2z"></path><path d="M22 2v36h-1V2h1m1-1h-3v38h3V1z" fill="#f5c276"></path><path fill="#ffeea3" d="M24.5 1.5h2v37h-2z"></path><path d="M26 2v36h-1V2h1m1-1h-3v38h3V1z" fill="#f5c276"></path><path fill="#ffeea3" d="M28.5 1.5h2v37h-2z"></path><path d="M30 2v36h-1V2h1m1-1h-3v38h3V1z" fill="#f5c276"></path><path fill="#ffeea3" d="M1.5 9.5h37v2h-37z"></path><path d="M38 10v1H2v-1h36m1-1H1v3h38V9z" fill="#f5c276"></path><path fill="#ffeea3" d="M1.5 13.5h37v2h-37z"></path><path d="M38 14v1H2v-1h36m1-1H1v3h38v-3z" fill="#f5c276"></path><path fill="#ffeea3" d="M1.5 17.5h37v2h-37z"></path><path d="M38 18v1H2v-1h36m1-1H1v3h38v-3z" fill="#f5c276"></path><g><path fill="#ffeea3" d="M1.5 21.5h37v2h-37z"></path><path d="M38 22v1H2v-1h36m1-1H1v3h38v-3z" fill="#f5c276"></path></g><g><path fill="#ffeea3" d="M1.5 25.5h37v2h-37z"></path><path d="M38 26v1H2v-1h36m1-1H1v3h38v-3z" fill="#f5c276"></path></g><g><path fill="#ffeea3" d="M1.5 29.5h37v2h-37z"></path><path d="M38 30v1H2v-1h36m1-1H1v3h38v-3z" fill="#f5c276"></path></g><g><path d="M7 34.5c-.827 0-1.5-.673-1.5-1.5V7c0-.827.673-1.5 1.5-1.5h26c.827 0 1.5.673 1.5 1.5v26c0 .827-.673 1.5-1.5 1.5H7z" fill="#4b6477"></path><path d="M33 6c.551 0 1 .449 1 1v26c0 .551-.449 1-1 1H7c-.551 0-1-.449-1-1V7c0-.551.449-1 1-1h26m0-1H7a2 2 0 00-2 2v26a2 2 0 002 2h26a2 2 0 002-2V7a2 2 0 00-2-2z" fill="#36404d"></path></g><g><circle cx="10.5" cy="10.5" r="1.5" fill="#bdccd4"></circle></g><g><circle cx="29.5" cy="10.5" r="1.5" fill="#bdccd4"></circle></g><g><circle cx="29.5" cy="29.5" r="1.5" fill="#bdccd4"></circle></g><g><circle cx="10.5" cy="29.5" r="1.5" fill="#bdccd4"></circle></g></svg>