<svg viewBox="0 0 40 40" xmlns="http://www.w3.org/2000/svg"><path d="M2.5 36.5v-33h35V36a.5.5 0 01-.5.5H2.5z" fill="#fff"></path><path d="M37 4v32H3V4h34m1-1H2v34h35a1 1 0 001-1V3z" fill="#788b9c"></path><path fill="#c8d1db" d="M38 20h-1v16H20v1h18z"></path><path fill="#788b9c" d="M2 3h36v6H2z"></path><path fill="none" stroke="#8bb7f0" stroke-miterlimit="10" d="M13 16.5h18M9 16.5h1M13 20.5h18M9 20.5h1M13 24.5h18M9 24.5h1M13 28.5h18M9 28.5h1"></path><g fill="#c2e8ff"><path d="M24 28h7v1h-7zM24 24h7v1h-7z"></path></g><path d="M26.5 39.5v-16h13v13.786a2.223 2.223 0 01-2.227 2.214H26.5z" fill="#b6ddd1"></path><path d="M39 24v13.286c0 .945-.775 1.714-1.727 1.714H27V24h12m1-1H26v17h11.273A2.72 2.72 0 0040 37.286V23z" fill="#5f9994"></path><g><path d="M24.75 39.5a2.216 2.216 0 01-2.214-2.214V35.5H35.5v1.949c0 1.299.803 1.834 1.5 1.995v.056H24.75z" fill="#99c4b8"></path><path d="M35 36v1.449c0 .643.173 1.157.451 1.551H24.75a1.716 1.716 0 01-1.714-1.714V36H35m1-1H22.036v2.286A2.714 2.714 0 0024.75 40H37.5v-1h-.018C37.313 39 36 38.952 36 37.449V35z" fill="#5f9994"></path></g></svg>