<svg viewBox="0 0 40 40" xmlns="http://www.w3.org/2000/svg"><path fill="none" stroke="#36404d" stroke-miterlimit="10" d="M23.771 23.667L27.5 30.5"></path><path d="M40 20.003V20a1 1 0 00-1-1h-4v2h4.003c.55 0 .997-.447.997-.997z" fill="#36404d"></path><path fill="#66798f" d="M28 9.333v13.333h-1V9.333zM17 9.333v13.333h-1V9.333z"></path><path d="M19 26.5c-11.815 0-15.48-7.433-16.321-9.71-.902-2.442-1.606-4.339-1.959-5.29H4c.765 0 1.497.363 1.958.972l2.644 3.318.341-.131c.055-.021 5.284-2.006 7.785-2.15.52.78 2.259 2.991 5.272 2.991 3.024 0 4.764-2.227 5.278-3h3.657c2.529 0 4.565 3.009 4.565 5.5v2c0 2.491-2.007 5.5-4.5 5.5H19z" fill="#f78f8f"></path><path d="M4 12c.609 0 1.192.29 1.574.794l2.409 3.022.456.572.683-.261c1.423-.543 5.277-1.88 7.362-2.097.725.989 2.547 2.97 5.516 2.97 2.999 0 4.828-2.022 5.538-3h3.397C33.124 14 35 16.749 35 19v2c0 2.265-1.784 5-4 5H19C7.507 26 3.961 18.817 3.148 16.616c-.724-1.958-1.32-3.565-1.71-4.616H4m0-1H0s.893 2.4 2.21 5.963C3.599 20.724 8.148 27 19 27h12c2.798 0 5-3.202 5-6v-2c0-2.798-2.268-6-5.066-6H27s-1.671 3-5 3-5-3-5-3c-2.49 0-8.235 2.193-8.235 2.193L6.356 12.17A2.957 2.957 0 004 11z" fill="#c74343"></path><path d="M22.667 11.5c-5.788 0-9.877-1.931-10.178-2.571.011-.238.094-.429.511-.429 5.961-.288 12.745-1.363 16.26-1.979l.159-.028C31.124 6.5 31.5 7.859 31.5 9c0 2.273-2.557 2.5-8.833 2.5z" fill="#ffc49c"></path><path d="M29.418 7c.505.006 1.582.113 1.582 2 0 1.724-1.979 2-8.333 2-4.706 0-8.141-1.283-9.339-2.015 4.373-.229 10.042-.926 16.007-1.97L29.418 7m-.085-1c-.99.171-9.247 1.657-16.333 2-.341 0-1 .118-1 1 0 .857 4.571 3 10.667 3C28.61 12 32 11.914 32 9c0-.943-.26-3-2.667-3z" fill="#a16a4a"></path><path d="M31.5 13.508c2.228.147 4 2.249 4 4.811v3.363c0 2.562-1.772 4.663-4 4.811V13.508z" fill="#ffc49c"></path><path d="M32 14.087c1.71.401 3 2.146 3 4.232v3.362c0 2.086-1.29 3.831-3 4.232V14.087M31.251 13H31v14h.251C33.874 27 36 24.619 36 21.681v-3.362C36 15.381 33.874 13 31.251 13z" fill="#a16a4a"></path><path fill="#66798f" d="M38 12v16h-1V12z"></path><g><circle cx="27.5" cy="30.5" r="2" fill="#c8d1db"></circle><path d="M27.5 29c.827 0 1.5.673 1.5 1.5s-.673 1.5-1.5 1.5-1.5-.673-1.5-1.5.673-1.5 1.5-1.5m0-1a2.5 2.5 0 100 5 2.5 2.5 0 000-5z" fill="#66798f"></path></g></svg>