<svg viewBox="0 0 40 40" xmlns="http://www.w3.org/2000/svg"><path d="M15.955 30.519l14.056-14.056a4.547 4.547 0 001.34-3.235c0-1.223-.476-2.372-1.34-3.236s-2.013-1.34-3.235-1.34-2.371.476-3.235 1.34L9.484 24.048l-5.057-5.057L18.483 4.935A11.65 11.65 0 0126.775 1.5c3.133 0 6.078 1.22 8.292 3.435 4.572 4.572 4.572 12.013 0 16.585L21.012 35.576l-5.057-5.057z" fill="#f78f8f"></path><path d="M26.775 2c2.999 0 5.818 1.168 7.939 3.288 4.377 4.377 4.377 11.5 0 15.878L21.012 34.869l-4.35-4.35 13.703-13.703a5.041 5.041 0 001.487-3.589c0-1.356-.528-2.63-1.487-3.589a5.041 5.041 0 00-3.589-1.487c-1.356 0-2.63.528-3.589 1.487L9.484 23.341l-4.35-4.35L18.837 5.288A11.154 11.154 0 0126.775 2m0-1a12.192 12.192 0 00-8.646 3.581L3.72 18.991l5.764 5.764 14.41-14.41a4.063 4.063 0 012.882-1.194 4.075 4.075 0 012.882 6.958l-14.41 14.41 5.764 5.764 14.41-14.41c4.775-4.775 4.775-12.517 0-17.292A12.193 12.193 0 0026.775 1z" fill="#c74343"></path><path fill="#8bb7f0" d="M32.501 35.218l-.914-3.905 5.427-2.035-2.568 2.569.961 3.841-5.413 2.031z"></path><path d="M35.028 30.557l-.736.736-.4.4.137.549.784 3.134-2.826 1.06.67-.668.395-.394-.127-.543-.751-3.205 2.854-1.069M39 28l-8 3 .951 4.061L28 39l8-3-1-4 4-4z" fill="#4e7ab5"></path><g><path fill="#8bb7f0" d="M5.501 8.218l-.914-3.905 5.427-2.035-2.568 2.569.961 3.841-5.413 2.031z"></path><path d="M8.028 3.557l-.735.736-.4.4.137.55.784 3.134-2.826 1.06.67-.668.395-.393-.128-.543-.751-3.205 2.854-1.071M12 1L4 4l.951 4.061L1 12l8-3-1-4 4-4z" fill="#4e7ab5"></path></g><g><path fill="#8bb7f0" d="M13.239 33.237l3.258-3.258 5.057 5.057-3.257 3.258z"></path><path d="M16.495 30.686l4.35 4.35-2.55 2.55-4.35-4.35 2.55-2.55m0-1.414l-3.964 3.964L18.294 39l3.964-3.964-5.763-5.764z" fill="#4e7ab5"></path><g><path fill="#8bb7f0" d="M1.711 21.708l3.257-3.257 5.058 5.058-3.258 3.257z"></path><path d="M4.967 19.158l4.35 4.35-2.55 2.55-4.35-4.35 2.55-2.55m0-1.414l-3.964 3.964 5.764 5.764 3.964-3.964-5.764-5.764z" fill="#4e7ab5"></path></g></g></svg>