<svg viewBox="0 0 40 40" xmlns="http://www.w3.org/2000/svg"><path fill="#dcd5f2" d="M1.5 1.5h37v7h-37z"></path><path d="M38 2v6H2V2h36m1-1H1v8h38V1z" fill="#8b75a1"></path><path fill="#c2e8ff" d="M1.5 10.5h23v28h-23z"></path><path d="M24 11v27H2V11h22m1-1H1v29h24V10z" fill="#7496c4"></path><path fill="#bae0bd" d="M26.5 10.5h12v8h-12z"></path><path d="M38 11v7H27v-7h11m1-1H26v9h13v-9z" fill="#5e9c76"></path><g><path fill="#bae0bd" d="M26.5 20.5h12v8h-12z"></path><path d="M38 21v7H27v-7h11m1-1H26v9h13v-9z" fill="#5e9c76"></path></g><g><path fill="#bae0bd" d="M26.5 30.5h12v8h-12z"></path><path d="M38 31v7H27v-7h11m1-1H26v9h13v-9z" fill="#5e9c76"></path></g></svg>