<svg viewBox="0 0 40 40" xmlns="http://www.w3.org/2000/svg"><path d="M14.5 36.5v-.041c1.088-.174 3-1.04 3-4.959v-8H14c-4.687 0-8.5-4.486-8.5-10V6.75c0-2.138-1.306-3.911-3-4.207V2.5h2.25c1.62 0 3.108 1.205 3.981 3.224.504 1.109.769 2.412.769 3.776v4c0 4.411 2.58 8 5.75 8h2.25v-14c0-3.919-1.912-4.785-3-4.959V2.5h11v.041c-1.088.174-3 1.04-3 4.959v14h2.25c3.17 0 5.75-3.589 5.75-8v-4c0-1.364.265-2.667.765-3.768C32.142 3.705 33.63 2.5 35.25 2.5h2.25v.043c-1.694.296-3 2.069-3 4.207v6.75c0 5.514-3.813 10-8.5 10h-3.5v8c0 3.919 1.912 4.785 3 4.959v.041h-11z" fill="#8bb7f0"></path><path d="M35.547 3C34.606 3.87 34 5.227 34 6.75v6.75c0 5.238-3.589 9.5-8 9.5h-4v8.5c0 2.216.617 3.653 1.493 4.5h-6.985c.875-.847 1.492-2.284 1.492-4.5V23h-4c-4.411 0-8-4.262-8-9.5V6.75C6 5.227 5.394 3.87 4.453 3h.297c1.393 0 2.742 1.12 3.53 2.939C8.751 6.976 9 8.207 9 9.5v4c0 4.687 2.804 8.5 6.25 8.5H18V7.5c0-2.216-.617-3.653-1.493-4.5h6.985C22.617 3.847 22 5.284 22 7.5V22h2.75c3.446 0 6.25-3.813 6.25-8.5v-4c0-1.293.249-2.524.728-3.578C32.508 4.12 33.857 3 35.25 3h.297M38 2h-2.75c-1.875 0-3.525 1.41-4.44 3.525C30.285 6.68 30 8.045 30 9.5v4c0 4.14-2.355 7.5-5.25 7.5H23V7.5C23 4.343 24.343 3 26 3V2H14v1c1.657 0 3 1.343 3 4.5V21h-1.75C12.355 21 10 17.64 10 13.5v-4c0-1.455-.285-2.82-.81-3.975C8.275 3.41 6.625 2 4.75 2H2v1c1.65 0 3 1.68 3 3.75v6.75C5 19.305 9.035 24 14 24h3v7.5c0 3.157-1.343 4.5-3 4.5v1h12v-1c-1.657 0-3-1.343-3-4.5V24h3c4.965 0 9-4.695 9-10.5V6.75C35 4.68 36.35 3 38 3V2z" fill="#4e7ab5"></path></svg>