<svg viewBox="0 0 40 40" xmlns="http://www.w3.org/2000/svg"><path d="M20 38.5C9.799 38.5 1.5 30.201 1.5 20S9.799 1.5 20 1.5 38.5 9.799 38.5 20 30.201 38.5 20 38.5z" fill="#ffeea3"></path><path d="M20 2c9.925 0 18 8.075 18 18s-8.075 18-18 18S2 29.925 2 20 10.075 2 20 2m0-1C9.507 1 1 9.507 1 20s8.507 19 19 19 19-8.507 19-19S30.493 1 20 1z" fill="#ba9b48"></path><path d="M13 18.845l1.762-3.525a2.01 2.01 0 01.679-.77l1.822-1.215a1.996 1.996 0 011.594-.276l2.249.562a2.003 2.003 0 011.304 1.046l1.177 2.354a2 2 0 001.304 1.046l3.109.778" fill="none" stroke="#36404d" stroke-width="2" stroke-miterlimit="10"></path><circle cx="21.5" cy="8.5" r="2.5" fill="#36404d"></circle><path d="M18.1 13.35l-1.357 6.243c-.271.95.136 1.9.679 2.579l4.614 5.021-1.357-6.379L21.9 15.25l-.95-1.9H18.1z" fill="#36404d"></path><g fill="#36404d"><path d="M23.529 32h2.85c-.543-1.357-1.9-4.75-2.443-6.379L20 19.921l-2.171 1.629 3.664 4.886L23.529 32zM14.029 32l3.121-3.529 1.086-3.257-2.036-2.307-1.221 3.936L10.907 32z"></path></g></svg>