<svg viewBox="0 0 40 40" xmlns="http://www.w3.org/2000/svg"><path d="M16.82 38.5c.557-1.105 1.589-3.255 2.197-5.136.533 1.87 1.39 3.892 2.531 5.136H16.82z" fill="#f78f8f"></path><path d="M18.993 34.913c.394 1.088.9 2.18 1.523 3.087h-2.888c.412-.847.923-1.955 1.365-3.087M19 31c0 2.37-3 8-3 8h7c-2.141-1-3.594-5.406-4-8z" fill="#c74343"></path><path d="M23.82 38.5c.557-1.105 1.589-3.255 2.197-5.136.533 1.87 1.39 3.892 2.531 5.136H23.82z" fill="#f78f8f"></path><path d="M25.993 34.913c.394 1.088.9 2.18 1.523 3.087h-2.888c.412-.847.923-1.955 1.365-3.087M26 31c0 2.37-3 8-3 8h7c-2.141-1-3.594-5.406-4-8z" fill="#c74343"></path><path d="M31 13.5c-3.187 0-5.5-2.523-5.5-6s2.313-6 5.5-6c3.046 0 5.854 4.911 6.436 5.998C36.838 8.609 34.031 13.5 31 13.5z" fill="#f78f8f"></path><path d="M31 2c2.447 0 5.043 3.987 5.873 5.495C35.848 9.364 33.365 13 31 13c-2.897 0-5-2.313-5-5.5S28.103 2 31 2m0-1c-3.59 0-6 2.91-6 6.5s2.41 6.5 6 6.5 6.716-5.931 7-6.5c-.244-.528-3.41-6.5-7-6.5z" fill="#c74343"></path><path fill="#c74343" d="M31 8l-6 .8V6.2l6 .8 4 .5z"></path><path d="M22 34.5a12.472 12.472 0 01-9.616-4.513c-.21-.254-.208-.359-.208-.36.087-.204 1.034-.459 1.6-.61 1.571-.422 3.724-1 3.724-3.017 0-1.359-.079-2.835-.154-4.262-.236-4.424-.479-8.998 1.477-11.062.75-.791 1.79-1.176 3.177-1.176 6.893 0 12.5 5.607 12.5 12.5S28.893 34.5 22 34.5z" fill="#fff"></path><path d="M22 10c6.617 0 12 5.383 12 12s-5.383 12-12 12a11.97 11.97 0 01-9.118-4.199c.296-.106.713-.218 1.024-.302C15.536 29.062 18 28.4 18 26c0-1.373-.079-2.855-.155-4.288-.23-4.319-.468-8.784 1.34-10.691C19.836 10.334 20.757 10 22 10m0-1c-7.18 0-5 9.82-5 17 0 3.159-6.873 2.054-5 4.307A12.973 12.973 0 0022 35c7.18 0 13-5.82 13-13S29.18 9 22 9z" fill="#788b9c"></path><path d="M12 34.5c-4.85 0-9.042-3.329-10.188-8H13.5V9s.014-.424.026-.63l.012-.118C13.917 4.466 17.195 1.5 21 1.5h9.5V15c0 4.136-3.364 7.5-7.5 7.5h-.5V24c0 5.79-4.71 10.5-10.5 10.5z" fill="#b6c9d6"></path><path d="M30 2v13c0 3.86-3.14 7-7 7h-1v2c0 5.514-4.486 10-10 10-4.401 0-8.234-2.88-9.53-7H14v-4l-.001-13.966s.013-.419.025-.625l.011-.107C14.39 4.768 17.449 2 21 2h9m1-1H21c-4.131 0-7.555 3.173-7.959 7.202C13.027 8.202 13 9 13 9v17H1.192c.949 5.102 5.441 9 10.808 9 6.05 0 11-4.95 11-11v-1c4.4 0 8-3.6 8-8V1z" fill="#788b9c"></path><circle cx="22" cy="10" r="6" fill="#fff"></circle><g><path d="M21.667 7c-.229 0-.452.023-.667.067V11h3.933a3.333 3.333 0 00-3.266-4z" fill="#f78f8f"></path></g><path fill="#f78f8f" d="M16.328 10H23v1h-6.672z"></path><g><path d="M22 5c2.757 0 5 2.243 5 5s-2.243 5-5 5-5-2.243-5-5 2.243-5 5-5m0-1a6 6 0 100 12 6 6 0 000-12z" fill="#788b9c"></path></g><g><path d="M25.5 10A3.5 3.5 0 0022 6.5c-.35 0-.681.067-1 .163V11h4.337a3.45 3.45 0 00.163-1z" fill="#f78f8f"></path></g><circle cx="23" cy="9" r="1" fill="#36404d"></circle></svg>