<svg viewBox="0 0 40 40" xmlns="http://www.w3.org/2000/svg"><path d="M19.035 38.5a1.538 1.538 0 01-1.199-2.495l5.522-6.719-2.858-3.395V20.5h3v.587l2.943 8.225c.137.458.036.981-.28 1.376l-5.925 7.232a1.53 1.53 0 01-1.203.58z" fill="#ffeea3"></path><path d="M23 21v.173l.058.163 2.904 8.115c.089.32.019.664-.182.915l-5.936 7.245a1.03 1.03 0 01-1.455.161 1.034 1.034 0 01-.17-1.445l5.262-6.402.528-.643-.536-.636L21 25.709V21h2m1-1h-4v6.073l2.708 3.217-5.262 6.402a2.035 2.035 0 003.18 2.545L26.554 31a2.039 2.039 0 00.36-1.857L24 21v-1z" fill="#ba9b48"></path><path d="M20.965 38.5c-.47 0-.908-.21-1.2-.576l-5.933-7.24a1.533 1.533 0 01-.268-1.396l2.935-8.2V20.5h3v5.32l-2.855 3.47 5.523 6.72a1.536 1.536 0 01-1.202 2.49z" fill="#ffeea3"></path><path d="M19 21v4.641l-2.48 3.013-.523.635.522.635 5.253 6.391a1.037 1.037 0 11-1.625 1.288l-5.921-7.227a1.035 1.035 0 01-.189-.924l2.904-8.115.059-.163V21h2m1-1h-4v1l-2.914 8.143a2.036 2.036 0 00.36 1.857l5.929 7.237a2.031 2.031 0 002.86.316 2.035 2.035 0 00.318-2.861l-5.262-6.402L20 26v-6z" fill="#ba9b48"></path><path fill="#99c6b3" d="M22.76 28.5l-2.761-3.278-2.74 3.278h-3.412l2.653-7.413V20.5h7v.587l2.656 7.413z"></path><path d="M23 21v.174l.059.164L25.446 28h-2.453l-2.228-2.644-.768-.912-.764.915L17.025 28h-2.469l2.385-6.663.059-.163V21h6m1-1h-8v1l-2.863 8h4.356L20 26l2.527 3h4.339L24 21v-1z" fill="#5f9994"></path><path d="M16.5 20.5v-6.832l-4.494 2.572a1.564 1.564 0 01-.879.275.475.475 0 00-.093-.015l-.127.001c-.587 0-1.112-.32-1.37-.836l-1.854-4.897c-.399-.802-.09-1.727.667-2.106a1.53 1.53 0 012.06.688l1.278 3.505 4.504-2.793.588-.34c.118-.042.31-.079.505-.079h5.429c.196 0 .387.037.569.11l.537.316 4.488 2.783 1.303-3.499c.241-.475.768-.8 1.354-.8.239 0 .469.055.686.162a1.541 1.541 0 01.687 2.061l-1.894 4.935c-.238.471-.763.791-1.351.791l-.127-.001c-.036.003-.108.014-.11.014a1.51 1.51 0 01-.833-.257l-4.523-2.59V20.5h-7z" fill="#ffeea3"></path><path d="M9.034 9c.38 0 .723.203.907.532l1.067 2.917.422 1.154 1.044-.647 3.956-2.453.529-.306c.105-.035.215-.053.327-.053h5.428c.113 0 .223.018.328.053l.503.291 3.982 2.469 1.038.644.426-1.145 1.068-2.867a1.034 1.034 0 011.369-.425c.511.256.719.88.464 1.391l-.022.043-.017.045-1.854 4.837c-.178.323-.521.522-.949.522h-.003L28.994 16l-.053.003c-.037.002-.075.007-.114.012a1.033 1.033 0 01-.523-.172l-.029-.019-.03-.017-3.746-2.144L23 12.805V20h-6v-7.194l-1.497.857-3.746 2.144-.03.017-.029.019a1.03 1.03 0 01-.522.172c-.038-.005-.076-.01-.114-.012L10.96 16l-.053.002c-.383 0-.725-.199-.904-.522L8.15 10.592l-.018-.047-.022-.045A1.038 1.038 0 019.034 9m0-1a2.037 2.037 0 00-1.819 2.947L9.09 15.89a2.02 2.02 0 001.818 1.112l.093-.002c.043.003.084.015.127.015.388 0 .78-.11 1.127-.342L16 14.53V21h8v-6.47l3.746 2.144c.347.232.74.342 1.127.342.043 0 .084-.013.127-.015l.093.002a2.02 2.02 0 001.818-1.112L32.785 11a2.037 2.037 0 00-3.643-1.821l-1.09 2.927-3.982-2.469-.6-.348a2.022 2.022 0 00-.756-.146h-5.428c-.259 0-.516.049-.756.146l-.601.348-3.982 2.469-1.09-2.98A2.037 2.037 0 009.034 8z" fill="#ba9b48"></path><g><path d="M20 8.5c-1.93 0-3.5-1.57-3.5-3.5s1.57-3.5 3.5-3.5 3.5 1.57 3.5 3.5-1.57 3.5-3.5 3.5z" fill="#ffeea3"></path><path d="M20 2c1.654 0 3 1.346 3 3s-1.346 3-3 3-3-1.346-3-3 1.346-3 3-3m0-1a4 4 0 100 8 4 4 0 000-8z" fill="#ba9b48"></path></g><g><path fill="#dcd5f2" d="M16.5 10.5h7v10h-7z"></path><path d="M23 11v9h-6v-9h6m1-1h-8v11h8V10z" fill="#8b75a1"></path></g><path fill="#536d79" d="M1 9h38v2H1z"></path></svg>