<svg viewBox="0 0 40 40" xmlns="http://www.w3.org/2000/svg"><path d="M19.512 38.5a1.532 1.532 0 01-1.519-1.345l-.967-7.955-4.066-7.523 2.434-4.113 4.522 9.474 1.114 9.759a1.528 1.528 0 01-1.518 1.703z" fill="#8bb7f0"></path><path d="M15.346 18.626l4.083 8.552 1.105 9.676c.034.295-.057.58-.255.802a1.03 1.03 0 01-1.789-.561l-.957-7.861-.023-.188-.09-.167-3.886-7.191 1.812-3.062m.094-2.123l-3.054 5.163 4.155 7.689.957 7.861a2.028 2.028 0 004.03-.475l-1.124-9.842-4.964-10.396z" fill="#4e7ab5"></path><path d="M11.058 38.5c-.502 0-.96-.232-1.257-.638a1.544 1.544 0 01-.226-1.391l2.838-8.9-.042-.146c-.018-.06-1.709-5.907-2.156-8.862C11.95 11.127 15.209 7.265 15.911 6.5H32c.827 0 1.5.673 1.5 1.5s-.673 1.5-1.5 1.5H20.768l-.15.178c-.145.172-3.557 4.275-4.529 9.988l.097 8.835-3.122 8.956a1.559 1.559 0 01-1.47 1.043h-.536z" fill="#8bb7f0"></path><path d="M32 7c.551 0 1 .449 1 1s-.449 1-1 1H20.535l-.3.356c-.148.176-3.645 4.381-4.64 10.226l-.015.089.001.09.103 8.658-3.094 8.872a1.057 1.057 0 01-.997.709h-.536c-.341 0-.651-.158-.853-.433a1.048 1.048 0 01-.154-.944l2.792-8.755.092-.29-.085-.292c-.017-.058-1.664-5.752-2.127-8.703C12.339 11.742 15.252 8.01 16.134 7H32m0-1H15.697s-3.994 3.89-5.99 12.542c.435 2.992 2.184 9.022 2.184 9.022L9.099 36.32A2.055 2.055 0 0011.057 39h.536c.875 0 1.653-.553 1.941-1.379l3.151-9.038-.105-8.833C17.542 14.106 21 10 21 10h11a2 2 0 100-4z" fill="#4e7ab5"></path><circle cx="19.071" cy="5.071" r="3.571" fill="#f5ce85"></circle><path d="M19.071 2c1.694 0 3.071 1.378 3.071 3.071s-1.378 3.071-3.071 3.071C17.378 8.143 16 6.765 16 5.071S17.378 2 19.071 2m0-1a4.071 4.071 0 100 8.143 4.071 4.071 0 000-8.143z" fill="#967a44"></path><g><path d="M20.239 17.434c-.405 0-.806-.108-1.157-.312l-4.425-2.568.776-3.511 4.678 2.633 2.498-3.506a1.595 1.595 0 012.076-.466c.396.222.671.588.773 1.031s.016.893-.243 1.267l-3.076 4.438a2.313 2.313 0 01-1.9.994z" fill="#8bb7f0"></path><path d="M23.908 10c.185 0 .37.048.533.14.272.152.461.404.531.708.07.304.011.612-.167.869l-3.076 4.439a1.811 1.811 0 01-2.395.534l-4.109-2.384.552-2.496 3.698 2.081.783.441.522-.732 2.237-3.14c.204-.288.537-.46.891-.46m0-1c-.657 0-1.301.31-1.706.879l-2.237 3.14-4.873-2.743-1.001 4.527 4.741 2.751a2.806 2.806 0 003.719-.829l3.076-4.439A2.094 2.094 0 0023.908 9z" fill="#4e7ab5"></path></g><path fill="#8bb7f0" d="M17.277 10.779l-3.273 6.333-1.352-1.779 2.49-5.763z"></path></svg>