<svg viewBox="0 0 40 40" xmlns="http://www.w3.org/2000/svg"><path d="M19.363 38.5c-.092-1.984-.193-3.73-.28-5.239-.17-2.961-.293-5.102-.176-6.005l.183-1.416-1.027.993c-.079.076-.189.115-.363.173-.152.051-.325.108-.493.216l-.531.341.593.573.015.202c.048.662.161 2.213.161 4.713 0 2.399 0 4.49-.106 5.01a1.28 1.28 0 01-.263-.124l-.414-.24-.098-.095c-.313-4.552-.453-7.211-.453-8.608v-.137l-.07-.118c-.222-.376-.333-.718-.44-1.049a6.993 6.993 0 00-.181-.51 5.243 5.243 0 01-.042-.215l.342.132.018-.717c0-.236-.021-.456-.25-.716l-.151-.438c-.081-.196-.058-.231.078-.319l.229-.147v-.272c0-.631-.517-.831-.973-1.007l-.087-.034h-.093c-.826 0-1.611.278-2.337.579l-.062.025-2.112 1.632v.104a1.563 1.563 0 00-.396-.052c-.324 0-.619.103-.858.298-.097.039-.24.106-.382.207h-.473c.06-.002-.076-.126-.194-.413l-.04-.096-.075-.071c-.337-.326-.417-.639-.578-1.263l-.002-.007.388-.25-.347-.836-.146-.427c.011-.163.068-.256.332-.358l.394-.152a.862.862 0 00.448-.175H9.2l-.891-.86c-.119-.114-.236-.267-.389-.461-.197-.25-.445-.564-.8-.957a7.138 7.138 0 01-.842-1.479c-.903-3.598-1.061-6.575-.447-8.779.35-1.349 1.123-2.395 2.365-3.206.452-.196.933-.672 1.535-1.27l.445-.437c.745-.809 1.275-1.232 1.896-1.661 1.05-.59 2.065-.847 3.184-1.096l.32-.051c1.256-.204 2.681-.435 4.322-.435.41 0 .835.014 1.275.047 3.229.184 5.975 1.21 8.404 3.139a11.78 11.78 0 012.617 2.523c.125.206.283.449.438.688.412.635.801 1.235.988 1.716l.024.063.04.054c.842 1.14 1.006 3.058.473 5.547-.08.747-.227 1.729-.73 3.187l-.695 2.963.031.119c.046.178.017.302-.114.492l-.088.128v.426c0 .485.533.597.975.661a.721.721 0 01.127.093s.017.034.017.148l-.157.793c-.201.293-.416.584-.713.757l-.261.166c-.461.293-.833.53-1.058.811-.187.136-.28.156-.346.156a.995.995 0 01-.33-.084l-.054-.021a.672.672 0 00.082-.241l.168-.243.021-.1c.111-.535.031-.947-.265-1.376l-.044-.064-.062-.048c-.603-.467-1.183-.693-1.771-.693a2.21 2.21 0 00-.518.062l-2.06.596-.528.766.524.507.001.149-.181 1.093c-.267 1.11-.524 1.719-.88 2.063l-.153.147v.212c0 1.638 0 3.494-.185 5.636-.119 1.665-.223 3.127-.329 3.651l-1 .161c-.077-.629-.137-2.143-.006-4.735l.187-3.968c.131-.809.17-1.332.182-1.638l.938-.259v-.773l-.152-.147c-.036-.035-.369-.345-1.089-.644l-.15-.063-1.399.338.128.492c.171.66.171 1.616.171 2.939 0 1.433 0 2.67-.182 3.988-.085 3.042-.24 4.158-.371 4.526h-.306c-.076-.542-.142-1.876-.008-4.067.001-2.774.001-5.144.185-7.013l.054-.549H19.81l.286.691c.148.359.148 1.273.148 2.333v3.966c-.08 2.529-.225 4.035-.356 4.729-.001.004-.471.004-.525.004zm1.487-12.429l1.233-1.191.567-1.094c.253-.297.31-.719.153-1.174l-.022-.064-.225-.327-.344-.346-.203-.196-.391-.982v-.296l-.167-.161c.234.078.52.153.864.23l1.189.178.193.079c.244.102.455.19.682.19a.778.778 0 00.161-.016 1.3 1.3 0 00.461.077c.245 0 .536-.049.914-.153l2.076-.256c2.603-.251 3.172-.627 3.363-.848.273-.189.54-.445.74-.709.415-.263.565-.721.71-1.166l.056-.167c.306-.477.435-1.066.561-1.636.04-.18.079-.359.124-.533l.162-.625h-.239v-.405c0-.325-.116-.513-.253-.622-.102-.246-.313-.404-.574-.404a.636.636 0 00-.313.084c-.413.045-.736.25-.887.547-.983.316-1.772.575-2.397.833-.298.065-.721.314-1.422.726l-.504.295-1.965 1.175c-.104.061-.219.133-.342.212-.396.252-.844.539-1.5.728l-2.253.726c-.367.142-.482.36-.514.522l-.326-.473v-.033l-.013.013-.037-.054-.062.149-.611.591c-.034-.192-.175-.329-.27-.419l-.067-.065-2.233-.938a21.88 21.88 0 00-.93-.417c-.375-.162-.73-.315-.972-.456-1.835-1.182-3.31-1.97-3.896-2.197-.684-.421-1.472-.897-2.468-1.186-.626-.31-.877-.357-1.043-.357h-.302l-.212.295a.55.55 0 00-.062.275l-.111.161-.206 1.099c-.008 1.059.169 1.762.579 2.343-.063.391.169.764.38 1.102.352.567.681.883 1.134 1.095.274.267 1.073.509 3.369.826l1.959.27c.384.096.663.141.885.141.217 0 .401-.045.559-.136h.822l1.417-.293.056-.027c.131-.063.275-.113.412-.162.129-.045.256-.09.373-.143l-.477.453v.281l-.419.891-.156.376-.206.199-.339.474v.728l.683 1.32.919.532.57-.549.193-.934.68-.836.429.622.305 2.208z" fill="#839cb2"></path><path d="M19.897 2c.414 0 .831.015 1.257.047 3.113.177 5.766 1.168 8.113 3.03l.023.018.024.017a11.222 11.222 0 012.456 2.363c.145.233.296.466.445.696.38.585.772 1.191.94 1.623l.048.125.08.108c.609.823.811 2.196.594 3.933a1.164 1.164 0 00-.247-.393 1.102 1.102 0 00-.989-.612 1.14 1.14 0 00-.464.1c-.45.072-.825.294-1.061.61-.913.295-1.612.526-2.202.767-.417.119-.853.375-1.546.783l-.513.3-1.948 1.165a9.932 9.932 0 00-.367.227c-.385.246-.783.5-1.398.678l-2.239.721-.027.009-.027.01a1.457 1.457 0 00-.132.058v-.76l-.436.421-.225-.326-.375.905-.104.101-.005-.005-.135-.13-.173-.073-2.122-.892a24.533 24.533 0 00-.95-.426c-.361-.156-.703-.303-.879-.404-1.801-1.16-3.262-1.947-3.919-2.22-.748-.451-1.525-.911-2.514-1.211-.698-.332-1.013-.401-1.264-.401a1.056 1.056 0 00-1.065.899l-.094.136-.039.208-.187.992-.017.092v.093c0 .095.002.187.005.277-.37-2.35-.339-4.32.097-5.886.311-1.202 1.004-2.145 2.119-2.882.523-.241 1.024-.738 1.646-1.355.142-.141.289-.287.44-.433l.021-.02.02-.022a9.717 9.717 0 011.754-1.541c1.006-.559 1.964-.803 3.018-1.039l.315-.051c1.24-.201 2.645-.43 4.248-.43M6.513 17.225c.077.193.17.374.279.547.006.491.278.928.467 1.23l.039.063c.348.56.724.925 1.221 1.176.49.413 1.564.629 3.597.909l1.911.264c.452.107.744.151 1.002.151.249 0 .476-.045.677-.135h.754l.1-.021 1.002-.207-.262.558-.107.259-.13.126-.072.069-.057.082-.187.27-.177.256v1.006l.112.216.28.541.28.541.134.259.252.146.467.27.197.114-.562.543c-.027.017-.12.048-.188.071-.171.057-.385.128-.606.271l-.698.449v-.869c0-.283-.027-.608-.306-.965l-.069-.201.282-.182v-.545c0-.974-.809-1.287-1.293-1.474l-.174-.067h-.186c-.915 0-1.792.312-2.529.617l-.123.051-.106.082-.933.721-.933.721-.134.103a1.859 1.859 0 00-1.262.356 2.53 2.53 0 00-.276.142h-.009a1.16 1.16 0 01-.049-.104l-.08-.192-.149-.143c-.178-.172-.25-.325-.351-.687l.433-.279-.319-.771-.175-.423-.06-.174.289-.112c.199-.03.355-.097.472-.163h2.238l-1.78-1.719c-.083-.08-.198-.226-.343-.41-.186-.236-.438-.556-.789-.946a6.656 6.656 0 01-.758-1.308 33.26 33.26 0 01-.253-1.083m26.257 1.843l-.497 2.126-.048.238.062.238a.39.39 0 01-.05.085l-.177.256V22.593c0 .711.58.976 1.066 1.092l-.077.41c-.135.194-.301.408-.531.542l-.236.151c-.267.17-.507.322-.714.48a2.107 2.107 0 00-.391-1.44l-.088-.128-.123-.095c-.685-.529-1.383-.798-2.077-.798-.213 0-.427.026-.679.087l-.933.27-.933.27-.342.099-.202.293-.187.27-.482.698.61.589.048.047-.148.932c-.088.364-.172.667-.258.919v-.516l-.305-.295c-.07-.067-.457-.419-1.245-.746l-.301-.125-.317.076-.746.18-.905.219.342-.33.187-.18.28-.27.118-.114.075-.146.28-.541.224-.432c.34-.429.417-1.007.207-1.615l-.045-.129-.078-.113-.187-.27-.057-.082-.072-.069-.28-.27-.125-.121-.17-.426.013.002 1.098.163.128.053c.269.113.548.23.876.23.038 0 .076-.002.114-.005.156.044.326.065.508.065.275 0 .586-.048.976-.152l2.048-.258c2.537-.245 3.311-.612 3.657-.966.279-.2.544-.451.759-.72.13-.091.238-.197.33-.31m-12.699 5.02l.149 1.077.154 1.117h-.832l.133-.994.026-.025.063-.302.137-.663.17-.21m-.647 3.071l.209.505c.111.267.111 1.306.111 2.142v3.935c-.016.504-.034.964-.054 1.381-.037-.668-.073-1.3-.108-1.895-.169-2.932-.29-5.05-.18-5.907l.022-.161m-3.256.652l.07.027v-.003l.545.526.001.012c.048.657.16 2.195.16 4.677 0 .943 0 1.865-.007 2.655-.224-3.417-.326-5.524-.326-6.712v-.273l-.139-.235a3.735 3.735 0 01-.304-.674m8.616.487l-.188.181v.424c0 1.628 0 3.473-.184 5.608-.094 1.318-.184 2.58-.268 3.244l-.109.018c-.045-.738-.064-2.053.041-4.134l.184-3.912a17.6 17.6 0 00.163-1.329l.227-.063.134-.037M19.897 1c-1.836 0-3.386.279-4.751.499-1.213.27-2.239.541-3.359 1.172-.653.451-1.213.901-1.959 1.713-.746.721-1.4 1.442-1.866 1.623-1.4.901-2.239 2.073-2.613 3.516-.653 2.344-.467 5.409.467 9.105.187.451.467.992.933 1.623.653.721.933 1.172 1.213 1.442-.187 0-.187.18-.467.18l-.467.18c-.467.18-.653.451-.653.901l.187.541.187.451-.28.18v.27c.187.721.28 1.172.746 1.623.187.451.467.721.653.721h.653c.187-.18.467-.27.467-.27a.84.84 0 01.597-.234c.118 0 .233.021.336.054l.467.18.653.451c.28 0 .467-.18.746-.27l.28-.27-.467-.18h-.467c-.467 0-.653-.18-.653-.27l.933-.721.933-.721c.653-.27 1.4-.541 2.146-.541.467.18.653.27.653.541-.28.18-.467.451-.28.901l.187.541c.187.18.187.27.187.451a.576.576 0 00-.198-.045c-.263 0-.237.363-.082 1.037.187.451.28.992.653 1.623 0 1.623.187 4.778.467 8.834l.28.27.467.27c.233.135.42.203.572.203.152 0 .268-.068.362-.203.187-.27.187-2.164.187-5.319 0-3.245-.187-4.868-.187-5.138l-.28-.27c.28-.18.653-.18.933-.451-.187 1.442.187 5.499.467 11.629 0 .18.187.18.653.18h.746c.187-.541.373-2.254.467-5.228v-3.966c0-1.172 0-2.073-.187-2.524h.653c-.187 1.893-.187 4.237-.187 7.031-.178 2.918-.017 4.61.16 4.61.009 0 .018-.004.027-.013h.746a.171.171 0 00.065.013c.419 0 .593-1.709.682-4.971.187-1.352.187-2.614.187-4.057 0-1.352 0-2.344-.187-3.065l.746-.18c.653.27.933.541.933.541v.18l-.653.18-.28.18c0 .18 0 .721-.187 1.893l-.187 3.966c-.178 3.528-.016 5.331.161 5.331a.037.037 0 00.025-.012l1.68-.27c.187-.18.28-1.442.467-4.057.187-2.164.187-4.057.187-5.679.467-.451.746-1.172 1.026-2.344l.187-1.172c0-.27 0-.541-.187-.541l-.187-.18.187-.27.933-.27.933-.27c.137-.033.271-.048.401-.048.579 0 1.084.294 1.465.589.187.27.28.541.187.992l-.187.27c0 .18 0 .18-.187.18-.187.451 0 .721.467.721.193.075.354.118.51.118.22 0 .429-.087.703-.299.187-.27.653-.541 1.213-.901.467-.27.746-.721.933-.992l.187-.992c0-.451-.187-.541-.467-.721-.653-.09-.653-.18-.653-.18v-.27c.187-.27.28-.541.187-.901l.653-2.795c.467-1.352.653-2.344.746-3.245.56-2.614.373-4.688-.56-5.95-.28-.721-.933-1.623-1.493-2.524a12.189 12.189 0 00-2.706-2.614c-2.613-2.073-5.505-3.065-8.678-3.245A16.553 16.553 0 0019.897 1zm4.482 19.414c-.176 0-.413-.127-.743-.255l-1.213-.18c-1.213-.27-1.68-.541-1.213-.721l2.239-.721c.933-.27 1.493-.721 1.959-.992l1.959-1.172c.933-.541 1.493-.901 1.866-.992.653-.27 1.493-.541 2.613-.901 0-.27.28-.451.653-.451.055-.053.101-.075.14-.075.093 0 .14.127.14.255.187 0 .187.18.187.27v.901h.093c-.187.721-.28 1.532-.653 2.073-.187.541-.28.992-.653 1.172-.187.27-.467.541-.746.721-.187.27-1.213.541-3.079.721l-2.146.27c-.327.09-.583.135-.781.135-.198 0-.338-.045-.432-.135a.248.248 0 01-.19.077zm-9.35.151c-.187 0-.443-.045-.816-.135l-1.959-.27c-1.959-.27-3.079-.541-3.079-.721-.467-.18-.746-.451-1.026-.901-.28-.451-.467-.721-.28-.992-.467-.541-.653-1.172-.653-2.164l.187-.992.187-.27c-.074-.107-.06-.157.029-.157.137 0 .452.119.904.338.933.27 1.68.721 2.426 1.172.467.18 1.866.901 3.826 2.164.467.27 1.213.541 1.959.901l2.146.901c.187.18.187.18-.187.27-.187.18-.653.27-1.026.451l-1.306.27h-.933c-.096.09-.213.135-.399.135zm6.181 4.462l-.187-1.352-.933-1.352V20.25l.187-.451.187.27.28.18.187.18.187.18v.18l.467 1.172.28.27.28.27.187.27c.093.27.093.541-.093.721l-.28.541-.28.541-.28.27-.189.183zm-2.612-.09l-.467-.27-.28-.541-.28-.541v-.451l.187-.27.28-.27.187-.451.467-.992v-.18l.187-.18.187-.18.28-.18.187-.27.187-.18v2.614H20l-1.026 1.262-.187.901-.189.179z" fill="#66798f"></path></svg>