<svg viewBox="0 0 40 40" xmlns="http://www.w3.org/2000/svg"><path d="M9.5 38.5v-37h29V34c0 2.481-2.019 4.5-4.5 4.5H9.5z" fill="#fff"></path><path d="M38 2v32c0 2.206-1.794 4-4 4H10V2h28m1-1H9v38h25a5 5 0 005-5V1z" fill="#788b9c"></path><path d="M6 38.5A4.505 4.505 0 011.5 34v-3.5h28V34a4.506 4.506 0 004 4.472v.028H6z" fill="#e1ebf2"></path><path d="M29 31v3c0 1.634.788 3.087 2.003 4H6c-2.206 0-4-1.794-4-4v-3h27m1-1H1v4a5 5 0 005 5h28v-1a4 4 0 01-4-4v-4z" fill="#788b9c"></path><path fill="#fff" stroke="#788b9c" stroke-miterlimit="10" d="M33 9.5H20M17 9.5h-2M33 14.5H20M17 14.5h-2M33 19.5H20M17 19.5h-2M33 24.5H20M17 24.5h-2"></path></svg>