<svg viewBox="0 0 40 40" xmlns="http://www.w3.org/2000/svg"><path d="M12.009 26.286A5.515 5.515 0 016.5 20.777V13c0-3.028 1.472-4.5 4.5-4.5h18c3.028 0 4.5 1.472 4.5 4.5v7.777a5.515 5.515 0 01-5.509 5.509H12.009z" fill="#ffeea3"></path><path d="M29 9c2.766 0 4 1.234 4 4v7.777a5.015 5.015 0 01-5.009 5.009H12.009A5.015 5.015 0 017 20.777V13c0-2.766 1.234-4 4-4h18m0-1H11c-3.319 0-5 1.681-5 5v7.777a6.009 6.009 0 006.009 6.009h15.982A6.009 6.009 0 0034 20.777V13c0-3.319-1.681-5-5-5z" fill="#ba9b48"></path><path d="M20 37.5c-10.028 0-18.5-4.596-18.5-10.036 0-3.004 2.851-5.208 5.241-6.526C7.777 20.367 8.5 19.159 8.5 18v-3.5c0-1.233.767-2 2-2h19c1.233 0 2 .767 2 2V18c0 1.078.741 2.184 1.89 2.817 3.295 1.818 5.11 4.179 5.11 6.647 0 5.44-8.472 10.036-18.5 10.036z" fill="#f88f8f"></path><path d="M29.5 13c.967 0 1.5.533 1.5 1.5V18c0 1.257.843 2.535 2.148 3.255C36.277 22.981 38 25.186 38 27.464 38 32.544 29.589 37 20 37S2 32.544 2 27.464c0-2.76 2.71-4.835 4.983-6.089C8.189 20.71 9 19.354 9 18v-3.5c0-.967.533-1.5 1.5-1.5h19m0-1h-19c-1.515 0-2.5.985-2.5 2.5V18c0 .995-.629 2.019-1.5 2.5C3.179 22.332 1 24.709 1 27.464 1 33.086 9.507 38 20 38s19-4.914 19-10.536c0-2.756-2.048-5.253-5.369-7.085C32.759 19.898 32 18.995 32 18v-3.5c0-1.515-.985-2.5-2.5-2.5z" fill="#c74343"></path><path d="M21.5 4.5s-1.071 4 3 4" fill="none" stroke="#ba9b48" stroke-miterlimit="2"></path><circle cx="22" cy="3" r="1.5" fill="#ffeea3"></circle><path d="M22 2c.551 0 1 .449 1 1s-.449 1-1 1-1-.449-1-1 .449-1 1-1m0-1a2 2 0 10-.001 3.999A2 2 0 0022 1z" fill="#ba9b48"></path><path d="M18.5 4.5s1.071 4-3 4" fill="none" stroke="#ba9b48" stroke-miterlimit="2"></path><g><circle cx="18" cy="3" r="1.5" fill="#ffeea3"></circle><path d="M18 2c.551 0 1 .449 1 1s-.449 1-1 1-1-.449-1-1 .449-1 1-1m0-1a2 2 0 10-.001 3.999A2 2 0 0018 1z" fill="#ba9b48"></path></g><path fill="#778b9d" d="M11 21h17v1H11z"></path><g><path d="M28 21c-1 0-1 1-1 1.5v5h2v-5c0-.5 0-1.5-1-1.5z" fill="#ffeea3"></path></g></svg>