<svg viewBox="0 0 40 40" xmlns="http://www.w3.org/2000/svg"><path d="M9.378 38.5c-4.639 0-7.878-3.267-7.878-7.944 0-5.241 2.801-14.127 4.929-14.127h3.042l.131-.301c1.998-4.606 4.968-6.485 10.249-6.485 5.421 0 8.576 1.939 10.548 6.485l.131.301h3.042c2.128 0 4.929 8.886 4.929 14.127 0 4.678-3.239 7.944-7.878 7.944H9.378z" fill="#f78f8f"></path><path d="M19.85 10.143c5.192 0 8.209 1.849 10.089 6.184l.261.602h3.37c1.39 0 4.429 7.776 4.429 13.627C38 35.008 35.035 38 30.622 38H9.378C4.965 38 2 35.008 2 30.556c0-5.851 3.039-13.627 4.429-13.627h3.37l.261-.602c1.931-4.45 4.676-6.184 9.79-6.184m0-1c-5.52 0-8.629 1.994-10.708 6.786H6.429C3.736 15.929 1 25.429 1 30.556 1 35.833 4.751 39 9.378 39h21.244C35.249 39 39 35.833 39 30.556c0-5.127-2.736-14.627-5.429-14.627h-2.714c-2.078-4.792-5.487-6.786-11.007-6.786z" fill="#c74343"></path><circle cx="16.5" cy="4.5" r="3" fill="#f5ce85"></circle><path d="M16.5 2C17.879 2 19 3.122 19 4.5S17.879 7 16.5 7 14 5.878 14 4.5 15.121 2 16.5 2m0-1a3.5 3.5 0 100 7 3.5 3.5 0 000-7z" fill="#967a44"></path><g><circle cx="23.5" cy="4.5" r="3" fill="#f5ce85"></circle><path d="M23.5 2C24.879 2 26 3.122 26 4.5S24.879 7 23.5 7 21 5.878 21 4.5 22.121 2 23.5 2m0-1a3.5 3.5 0 100 7 3.5 3.5 0 000-7z" fill="#967a44"></path></g><g><path d="M29.453 16.5c-.457-2.459-4.211-5-9.453-5s-8.996 2.541-9.453 5H6.519c.371-5.007 6.276-9 13.481-9s13.11 3.993 13.481 9h-4.028z" fill="#f5ce85"></path><path d="M20 8c6.68 0 12.199 3.506 12.92 8h-3.073c-.845-2.759-5.085-5-9.847-5s-9.002 2.241-9.847 5H7.08c.721-4.494 6.24-8 12.92-8m0-1C12.268 7 6 11.477 6 17h5c0-2.36 3.849-5 9-5s9 2.64 9 5h5c0-5.523-6.268-10-14-10z" fill="#967a44"></path></g></svg>