<svg viewBox="0 0 40 40" xmlns="http://www.w3.org/2000/svg"><path d="M38.005 28.46a1.48 1.48 0 01-.58-.116l-25.54-9.83-2.16-4.367a2.845 2.845 0 012.57-1.646c.339 0 .675.062.997.182l10.644 4.292a2.835 2.835 0 011.759 3.305l-.101.429 13.011 4.877a1.5 1.5 0 01-.6 2.874z" fill="#ffeea3"></path><path d="M12.297 13c.279 0 .556.05.798.141l10.679 4.305a2.328 2.328 0 011.436 2.717l-.203.857.825.309 12.561 4.708a1.002 1.002 0 01-.388 1.923c-.134 0-.265-.026-.416-.09l-25.342-9.754-1.96-3.965A2.346 2.346 0 0112.297 13m0-1a3.33 3.33 0 00-3.119 2.164l2.347 4.746 25.706 9.894a2 2 0 001.552-3.688l-12.599-4.723a3.322 3.322 0 00-2.058-3.883L13.47 12.213A3.365 3.365 0 0012.297 12z" fill="#ba9b48"></path><path fill="#c74343" d="M0 29h39.999v1H0z"></path><circle cx="4.5" cy="12.5" r="3" fill="#ffeea3"></circle><path d="M4.5 10C5.879 10 7 11.122 7 12.5S5.879 15 4.5 15 2 13.879 2 12.5 3.122 10 4.5 10m0-1a3.5 3.5 0 100 7 3.5 3.5 0 000-7z" fill="#ba9b48"></path><path d="M11.856 18.502l-2.339-3.641c.011-.132.043-.294.128-.521a2.844 2.844 0 012.651-1.84c.34 0 .675.062.997.182l10.271 4.142-1.956 5.433-9.752-3.755z" fill="#f78f8f"></path><path d="M12.297 13c.279 0 .556.05.798.141l9.836 3.966-1.62 4.499-9.123-3.512-2.148-3.344A2.342 2.342 0 0112.297 13m0-1a3.33 3.33 0 00-3.119 2.164 2.207 2.207 0 00-.166.836l2.512 3.91 10.383 3.997 2.29-6.361c-.025-.01-.046-.025-.072-.035l-10.656-4.297A3.335 3.335 0 0012.297 12z" fill="#c74343"></path><g><path d="M9.999 28.5a1.502 1.502 0 01-1.198-2.401l3.505-4.671-2.703-5.895c-.139-.35-.134-.757.023-1.125a1.495 1.495 0 011.378-.909c.617 0 1.164.37 1.393.943l3.004 6.687a1.503 1.503 0 01-.201 1.438l-4 5.334a1.49 1.49 0 01-1.201.599z" fill="#ffeea3"></path><path d="M11.004 14c.411 0 .776.247.945.668l2.98 6.629c.129.322.08.694-.128.971l-4 5.333a.995.995 0 01-.802.399 1 1 0 01-.799-1.6l3.326-4.434.357-.476-.248-.541-2.559-5.579a.995.995 0 01.928-1.37m0-1a2 2 0 00-1.856 2.743l2.579 5.624L8.4 25.8a2.002 2.002 0 003.201 2.401l4-5.333a2.001 2.001 0 00.257-1.943l-2.996-6.667A2.001 2.001 0 0011.004 13z" fill="#ba9b48"></path></g><g><path d="M21.104 22.052l1.941-5.45.888.37a2.836 2.836 0 011.764 3.307l-.101.429 4.334 1.621-.951 2.739-7.875-3.016z" fill="#dcd5f2"></path><path d="M23.339 17.265l.435.181a2.328 2.328 0 011.436 2.717l-.203.858.826.309 3.465 1.296-.622 1.79-6.937-2.657 1.6-4.494m-.589-1.327l-2.281 6.406 8.813 3.375 1.281-3.688-4.379-1.638a3.322 3.322 0 00-2.058-3.883l-1.376-.572z" fill="#8b75a1"></path></g></svg>