<svg viewBox="0 0 40 40" xmlns="http://www.w3.org/2000/svg"><path fill="#e1ebf2" d="M14.5.5h18v32h-18z"></path><path d="M32 1v31H15V1h17m1-1H14v33h19V0z" fill="#788b9c"></path><path fill="#e1ebf2" d="M11.5 3.5h18v32h-18z"></path><path d="M29 4v31H12V4h17m1-1H11v33h19V3z" fill="#788b9c"></path><path fill="#e1ebf2" d="M8.5 6.5h18v32h-18z"></path><path d="M26 7v31H9V7h17m1-1H8v33h19V6z" fill="#788b9c"></path><circle cx="17.5" cy="15.5" r="1" fill="#66798f"></circle><path d="M17.5 15a.5.5 0 110 1 .5.5 0 010-1m0-1a1.5 1.5 0 10.001 3.001A1.5 1.5 0 0017.5 14z" fill="#36404d"></path><circle cx="21.5" cy="19.5" r="1" fill="#66798f"></circle><path d="M21.5 19a.5.5 0 110 1 .5.5 0 010-1m0-1a1.5 1.5 0 10.001 3.001A1.5 1.5 0 0021.5 18z" fill="#36404d"></path><g><circle cx="13.5" cy="19.5" r="1" fill="#66798f"></circle><path d="M13.5 19a.5.5 0 110 1 .5.5 0 010-1m0-1a1.5 1.5 0 10.001 3.001A1.5 1.5 0 0013.5 18z" fill="#36404d"></path></g><g><circle cx="21.5" cy="11.5" r="1" fill="#66798f"></circle><path d="M21.5 11a.5.5 0 110 1 .5.5 0 010-1m0-1a1.5 1.5 0 10.001 3.001A1.5 1.5 0 0021.5 10z" fill="#36404d"></path></g><g><circle cx="13.5" cy="11.5" r="1" fill="#66798f"></circle><path d="M13.5 11a.5.5 0 110 1 .5.5 0 010-1m0-1a1.5 1.5 0 10.001 3.001A1.5 1.5 0 0013.5 10z" fill="#36404d"></path></g><path fill="#e1ebf2" d="M14 36h7v3h-7z"></path><g><path fill="#f78f8f" d="M16.5 39.5v-10h-3.363l4.363-4.76 4.363 4.76H18.5v10z"></path><path d="M17.5 25.48L20.727 29H18v10h-1V29H14.273l3.227-3.52m0-1.48L12 30h4v10h3V30h4l-5.5-6z" fill="#c74343"></path></g></svg>