<svg viewBox="0 0 40 40" xmlns="http://www.w3.org/2000/svg"><path d="M4 33.5c-.827 0-1.5-.673-1.5-1.5V8c0-.827.673-1.5 1.5-1.5h32c.827 0 1.5.673 1.5 1.5v24c0 .827-.673 1.5-1.5 1.5H4z" fill="#bae0bd"></path><path d="M36 7c.551 0 1 .449 1 1v24c0 .551-.449 1-1 1H4c-.551 0-1-.449-1-1V8c0-.551.449-1 1-1h32m0-1H4a2 2 0 00-2 2v24a2 2 0 002 2h32a2 2 0 002-2V8a2 2 0 00-2-2z" fill="#5e9c76"></path><path d="M14.93 15.865a8.91 8.91 0 011.781-.169c1.014 0 1.82.144 2.379.677.52.455.754 1.183.754 1.924 0 .949-.286 1.625-.741 2.106-.546.585-1.417.845-2.132.845-.117 0-.221 0-.338-.013v3.263H14.93v-8.633zm1.703 3.991c.091.014.182.014.286.014.858 0 1.235-.611 1.235-1.431 0-.767-.312-1.364-1.105-1.364-.156 0-.312.025-.416.064v2.717zM22.027 24.498v-3.354l-1.924-5.408h1.82l.585 2.094c.169.559.338 1.209.468 1.858h.026c.104-.637.247-1.273.403-1.897l.52-2.055h1.768L23.73 21.08v3.419h-1.703z" fill="#44825d"></path></svg>