<svg viewBox="0 0 40 40" xmlns="http://www.w3.org/2000/svg"><path d="M27 38.5c-3.241 0-5.5-1.439-5.5-2.731s2.259-2.73 5.5-2.73 5.5 1.439 5.5 2.73S30.241 38.5 27 38.5zm-12 0c-3.241 0-5.5-1.439-5.5-2.731s2.259-2.73 5.5-2.73 5.5 1.439 5.5 2.73S18.241 38.5 15 38.5z" fill="#f5ce85"></path><path d="M27 33.538c3.052 0 5 1.321 5 2.231S30.052 38 27 38s-5-1.321-5-2.231 1.948-2.231 5-2.231m-12 0c3.052 0 5 1.321 5 2.231S18.052 38 15 38s-5-1.321-5-2.231 1.948-2.231 5-2.231m12-1c-3.323 0-6 1.477-6 3.231S23.677 39 27 39s6-1.477 6-3.231-2.677-3.231-6-3.231zm-12 0c-3.323 0-6 1.477-6 3.231S11.677 39 15 39s6-1.477 6-3.231-2.677-3.231-6-3.231z" fill="#967a44"></path><path d="M21 37.5c-5.282 0-9.982-3.616-11.974-9.212l-.297-.835-.561.686c-.216.264-.438.556-.658.846-.373.491-.973 1.282-1.278 1.478-.19-.195-.732-1.019-.732-4.098 0-1.907 1.228-4.746 3.369-7.788l.054-.076.022-.09c.03-.119.131-.258.229-.393.115-.158.233-.322.3-.521l.026-.076v-4.926C9.5 6.33 14.551 1.5 21 1.5s11.5 4.83 11.5 10.995v4.906l.015.06c.077.307.25.546.39.738.064.087.143.196.161.249l.024.074.046.062c1.626 2.225 3.364 5.437 3.364 7.78 0 3.12-.556 3.924-.74 4.105-.276-.176-.892-.986-1.271-1.485a27.28 27.28 0 00-.658-.846l-.561-.686-.297.835C30.982 33.884 26.282 37.5 21 37.5z" fill="#b0c1d4"></path><path d="M21 2c6.168 0 11 4.61 11 10.495v4.968l.03.119c.1.401.315.696.471.911.039.054.08.104.09.113l.049.148.092.126C34.748 21.638 36 24.506 36 26.365c0 1.807-.194 2.774-.36 3.271a22.932 22.932 0 01-.751-.954c-.224-.295-.45-.593-.669-.861l-1.122-1.371-.594 1.669C30.583 33.514 26.068 37 21 37s-9.583-3.486-11.503-8.88l-.594-1.67-1.122 1.371c-.22.268-.445.566-.669.861-.208.274-.5.659-.751.954C6.194 29.139 6 28.172 6 26.365c0-1.806 1.195-4.539 3.278-7.499l.104-.143.045-.181a1.72 1.72 0 01.151-.229c.125-.171.279-.384.37-.657l.052-.154v-5.007C10 6.61 14.832 2 21 2m0-1C14.255 1 9 6.13 9 12.495v4.845c-.095.285-.445.57-.54.95C6.655 20.855 5 23.99 5 26.365 5 30.925 6.18 31 6.18 31c.57 0 1.52-1.5 2.375-2.545C10.55 34.06 15.3 38 21 38s10.45-3.94 12.445-9.545C34.3 29.5 35.25 31 35.82 31c0 0 1.18-.075 1.18-4.635 0-2.375-1.655-5.605-3.46-8.075-.095-.285-.445-.57-.54-.95v-4.845C33 6.13 27.745 1 21 1z" fill="#66798f"></path><path d="M11.7 18.75c-.5 1.5-.7 1.35-.7 3.05C11 29.1 15.5 35 21 35s10-5.9 10-13.2c0-1.7-.3-1.55-.7-3.05 0 0-5.665 1.73-9.233 1.73S11.7 18.75 11.7 18.75z" fill="#eceff1"></path><path d="M20 9.5c0 1.9-1.1 3.5-2.5 3.5S15 11.4 15 9.5 16.1 6 17.5 6 20 7.6 20 9.5zM24.5 6C23.1 6 22 7.6 22 9.5s1.1 3.5 2.5 3.5S27 11.4 27 9.5 25.9 6 24.5 6z" fill="#fff"></path><path d="M19 9.5c0 .8-.4 1.5-1 1.5s-1-.7-1-1.5.4-1.5 1-1.5 1 .7 1 1.5zM24 8c-.6 0-1 .7-1 1.5s.4-.5 1-.5 1 1.3 1 .5S24.6 8 24 8z" fill="#424e5c"></path><path d="M21 18.3c-3.878 0-7.039-2.198-7.463-2.917.519-.377 3.088-.883 7.463-.883 4.409 0 6.983.514 7.475.892-.354.651-3.547 2.908-7.475 2.908z" fill="#f5ce85"></path><path d="M21 15c3.229 0 5.51.291 6.577.574-1.021.828-3.533 2.226-6.577 2.226s-5.556-1.398-6.577-2.226C15.49 15.291 17.771 15 21 15m0-1c-4.4 0-8 .533-8 1.333 0 .8 3.6 3.467 8 3.467s8-2.667 8-3.467c0-.8-3.6-1.333-8-1.333z" fill="#967a44"></path><g><path d="M12.541 28.5c-.956 0-1.014-.146-1.042-.568.001-.145.008-4.117.584-6.729 1.471.091 2.795.68 3.391 1.29-.223 1.702-.388 4.534-.388 5.235 0 .589-.178.68-1.467.746l-.357.02-.721.006z" fill="#f78f8f"></path><path d="M12.483 21.746c1.017.14 1.95.527 2.463.941-.211 1.753-.36 4.345-.36 5.041a.97.97 0 01-.009.138c-.18.068-.658.092-.983.109l-.328.018c-.133 0-.262.002-.387.004l-.338.003c-.296 0-.453-.015-.536-.031L12 27.927c.001-.418.026-3.745.483-6.181m-.791-1.055C11 23.367 11 27.807 11 27.965c.062.936.667 1.035 1.541 1.035.233 0 .485-.007.752-.007 1.265-.079 2.293 0 2.293-1.265 0-.712.177-3.731.414-5.392-.71-.917-2.559-1.645-4.308-1.645z" fill="#c74343"></path></g><g><path d="M21.19 23.5c-7.431 0-12.938-3.653-12.988-3.69-.936-.542-.904-.659-.595-1.772l.101-.369c.204-.764.454-1.202.688-1.202.074 0 .241.032.531.242.234.162 5.577 3.791 12.169 3.791 6.591 0 11.935-3.628 12.159-3.783.327-.265.49-.292.546-.292.169 0 .437.327.682 1.244l.1.507c.222 1.081.246 1.193-.438 1.592l-.087.049c-1.497.865-6.847 3.683-12.868 3.683z" fill="#f78f8f"></path><path d="M33.708 17c.069.124.171.354.282.763.035.186.07.356.102.513.066.323.149.726.135.814-.002.003-.058.085-.333.245l-.086.049C32.339 20.232 27.089 23 21.19 23c-6.901 0-12.153-3.246-12.655-3.569l-.033-.033-.116-.066c-.382-.218-.471-.334-.477-.334-.017-.116.092-.51.18-.827l.102-.374c.117-.438.223-.667.291-.781.043.024.099.06.171.111.229.16 5.697 3.873 12.442 3.873s12.213-3.713 12.442-3.872l.034-.023.032-.026c.04-.033.075-.059.105-.079m.092-1.075c-.238 0-.512.119-.83.38 0 0-5.363 3.695-11.875 3.695S9.22 16.305 9.22 16.305c-.316-.229-.588-.338-.825-.338-.547 0-.905.578-1.17 1.573-.38 1.425-.665 1.9.665 2.66.095.095 5.747 3.8 13.3 3.8 7.026 0 13.015-3.705 13.205-3.8 1.14-.665.855-1.14.57-2.66-.264-.991-.621-1.615-1.165-1.615z" fill="#c74343"></path></g></svg>