<svg viewBox="0 0 40 40" xmlns="http://www.w3.org/2000/svg"><path fill="#66798f" d="M30 6h4v4h-4zM16 2h2v2h-2zM18 4h4v2h-4zM22 6h2v2h-2zM22 2h2v2h-2zM20 8h2v2h-2zM18 10h2v2h-2zM22 10h2v2h-2zM22 14h2v2h-2zM20 28h2v2h-2zM18 30h2v2h-2zM16 32h2v2h-2zM20 32h2v2h-2zM20 36h2v2h-2zM20 16h2v12h-2zM14 16h2v2h-2zM10 16h2v2h-2zM6 16h2v2H6zM4 20h2v2H4zM8 20h2v2H8zM12 20h2v2h-2zM14 22h2v2h-2zM16 24h2v2h-2zM18 26h2v2h-2zM16 28h2v2h-2zM32 30h2v2h-2zM30 32h2v2h-2zM34 32h2v2h-2zM34 36h2v2h-2zM28 30h2v2h-2zM32 34h2v2h-2zM22 34h8v2h-8zM26 28h12v2H26zM6 22h2v2H6zM2 18h12v2H2zM36 16h2v2h-2zM32 16h2v2h-2zM28 16h2v2h-2zM26 20h2v2h-2zM30 20h2v2h-2zM34 20h2v2h-2zM36 22h2v2h-2zM28 22h2v2h-2zM22 24h2v2h-2zM26 24h2v2h-2zM30 24h2v2h-2zM32 26h2v2h-2zM24 26h2v2h-2z"></path><path fill="#66798f" d="M18 18h18v2H18zM16 6h2v16h-2zM36 4v8h-8V4h8m2-2H26v12h12V2zM6 6h4v4H6z"></path><path d="M12 4v8H4V4h8m2-2H2v12h12V2zM6 30h4v4H6z" fill="#66798f"></path><path d="M12 28v8H4v-8h8m2-2H2v12h12V26z" fill="#66798f"></path></svg>