<svg viewBox="0 0 40 40" xmlns="http://www.w3.org/2000/svg"><path d="M4.77 37.5a2.273 2.273 0 01-2.27-2.269V4.769A2.273 2.273 0 014.77 2.5h30.46a2.273 2.273 0 012.27 2.269v30.462a2.273 2.273 0 01-2.27 2.269H4.77z" fill="#99c4b8"></path><path d="M35.231 3C36.206 3 37 3.794 37 4.769v30.462c0 .975-.794 1.769-1.769 1.769H4.769A1.772 1.772 0 013 35.231V4.769C3 3.794 3.794 3 4.769 3h30.462m0-1H4.769A2.77 2.77 0 002 4.769v30.462A2.77 2.77 0 004.769 38h30.462A2.77 2.77 0 0038 35.231V4.769A2.77 2.77 0 0035.231 2z" fill="#5f9994"></path><path d="M29.993 21h-2v2h2v2h-4V15h4v2h-2v2h2v2z" fill="#fff"></path><path d="M23 15l.011 6.999A1.997 1.997 0 0121.013 24h0a1.998 1.998 0 01-1.998-1.999L19.02 15M12.993 24h0c-1.1 0-2-.9-2-2v-4c0-1.1.9-2 2-2h0c1.1 0 2 .9 2 2v4c0 1.1-.9 2-2 2zM13.993 23l2.25 2.25" fill="none" stroke="#fff" stroke-width="2" stroke-miterlimit="10"></path></svg>