<svg viewBox="0 0 40 40" xmlns="http://www.w3.org/2000/svg"><path d="M9.21 36.811l.44-1.766c.66-.269.877-1.201 1.071-2.038.148-.636.316-1.356.62-1.642C13.878 28.989 16.5 26.533 16.5 20c0-1.071-.009-2.499-.017-3.93a809.188 809.188 0 01-.017-3.467h7.066c-.002.914-.009 2.086-.016 3.28-.007 1.493-.016 3.018-.016 4.117 0 6.529 2.622 8.987 5.158 11.365.305.285.472 1.006.62 1.642.194.838.411 1.77 1.071 2.038l.44 1.766H9.21z" fill="#b6c9d6"></path><path d="M23.032 13.103c-.003.822-.009 1.792-.015 2.777C23.009 17.374 23 18.901 23 20c0 6.745 2.702 9.279 5.316 11.729.194.182.363.909.475 1.391.186.799.423 1.821 1.129 2.271l.23.919H9.85l.23-.919c.706-.45.943-1.472 1.129-2.271.105-.452.281-1.209.475-1.39C14.297 29.282 17 26.75 17 20c0-1.073-.009-2.501-.017-3.933-.006-1.03-.012-2.061-.015-2.964h6.064m1.002-1h-8.069C15.966 14.276 16 17.852 16 20c0 6.291-2.421 8.584-5 11-.922.864-.683 3.621-1.759 3.621l-.672 2.69h22.862l-.672-2.69c-1.077 0-.836-2.755-1.759-3.621-2.578-2.417-5-4.711-5-11 0-2.148.034-5.931.034-7.897z" fill="#788b9c"></path><circle cx="20" cy="10" r="5.5" fill="#b6c9d6"></circle><path d="M20 5c2.757 0 5 2.243 5 5s-2.243 5-5 5-5-2.243-5-5 2.243-5 5-5m0-1a6 6 0 100 12 6 6 0 000-12z" fill="#788b9c"></path><circle cx="20" cy="3" r="1.5" fill="#ffeea3"></circle><path d="M20 2c.551 0 1 .449 1 1s-.449 1-1 1-1-.449-1-1 .449-1 1-1m0-1a2 2 0 10-.001 3.999A2 2 0 0020 1z" fill="#ba9b48"></path><path fill="#b6c9d6" d="M16.36 18.5L12.815 7.864l4.305 1.723L20 6.707l2.88 2.88 4.305-1.723L23.64 18.5z"></path><path d="M20 7.414l2.293 2.293.466.466.612-.245 2.998-1.199L23.279 18h-6.558l-3.09-9.271 2.998 1.199.612.245.466-.466L20 7.414M20 6l-3 3-5-2 4 12h8l4-12-5 2-3-3z" fill="#788b9c"></path><g><path d="M5.5 38.5V37c0-1.93 1.57-3.5 3.5-3.5h22c1.93 0 3.5 1.57 3.5 3.5v1.5h-29z" fill="#b6c9d6"></path><path d="M31 34c1.654 0 3 1.346 3 3v1H6v-1c0-1.654 1.346-3 3-3h22m0-1H9c-2.2 0-4 1.8-4 4v2h30v-2c0-2.2-1.8-4-4-4z" fill="#788b9c"></path></g><g><path d="M10 33.5c-.827 0-1.5-.673-1.5-1.5s.673-1.5 1.5-1.5h20c.827 0 1.5.673 1.5 1.5s-.673 1.5-1.5 1.5H10z" fill="#ffeea3"></path><path d="M30 31c.551 0 1 .449 1 1s-.449 1-1 1H10c-.551 0-1-.449-1-1s.449-1 1-1h20m0-1H10c-1.1 0-2 .9-2 2s.9 2 2 2h20c1.1 0 2-.9 2-2s-.9-2-2-2z" fill="#ba9b48"></path></g><g><path d="M15 21.5c-.827 0-1.5-.673-1.5-1.5s.673-1.5 1.5-1.5h10c.827 0 1.5.673 1.5 1.5s-.673 1.5-1.5 1.5H15z" fill="#ffeea3"></path><path d="M25 19c.551 0 1 .449 1 1s-.449 1-1 1H15c-.551 0-1-.449-1-1s.449-1 1-1h10m0-1H15c-1.1 0-2 .9-2 2s.9 2 2 2h10c1.1 0 2-.9 2-2s-.9-2-2-2z" fill="#ba9b48"></path></g></svg>