<svg viewBox="0 0 40 40" xmlns="http://www.w3.org/2000/svg"><path d="M12 31.5C5.659 31.5.5 26.341.5 20S5.659 8.5 12 8.5 23.5 13.659 23.5 20 18.341 31.5 12 31.5z" fill="#e1ebf2"></path><path d="M12 9c6.065 0 11 4.935 11 11s-4.935 11-11 11S1 26.065 1 20 5.935 9 12 9m0-1C5.373 8 0 13.373 0 20s5.373 12 12 12 12-5.373 12-12S18.627 8 12 8z" fill="#a3b7cc"></path><path d="M28 31.5c-6.341 0-11.5-5.159-11.5-11.5S21.659 8.5 28 8.5 39.5 13.659 39.5 20 34.341 31.5 28 31.5z" fill="#8bb7f0"></path><path d="M28 9c6.065 0 11 4.935 11 11s-4.935 11-11 11-11-4.935-11-11S21.935 9 28 9m0-1c-6.627 0-12 5.373-12 12s5.373 12 12 12 12-5.373 12-12S34.627 8 28 8z" fill="#4e7ab5"></path><path d="M23 20c0 3.273-1.445 6.209-3.721 8.225.23.244.472.477.721.701 2.45-2.197 4-5.377 4-8.926 0-3.55-1.55-6.729-4-8.926-.25.224-.491.457-.721.701C21.555 13.791 23 16.727 23 20z" fill="#66798f"></path></svg>