<svg viewBox="0 0 40 40" xmlns="http://www.w3.org/2000/svg"><path fill="#ffeea3" d="M14.006 33.475L1.5 37.323V6.369l12.494-3.844 12 4L38.5 2.677v30.954l-12.494 3.844z"></path><path d="M13.988 3.05l11.696 3.899.304.101.306-.094L38 3.354v29.907L26.012 36.95l-11.696-3.899-.304-.101-.306.094L2 36.646V6.739L13.988 3.05M39 2L26 6 14 2 1 6v32l13-4 12 4 13-4V2z" fill="#ba9b48"></path><path d="M26 37l-12-4V3l12 4v30z" fill="#fff"></path><circle cx="26" cy="30" r="1.5" fill="#dcd5f2"></circle><path d="M26 29c.551 0 1 .449 1 1s-.449 1-1 1-1-.449-1-1 .449-1 1-1m0-1a2 2 0 10-.001 3.999A2 2 0 0026 28z" fill="#8b75a1"></path><g><path d="M24.5 26.5v-1.608c0-2.736 1.587-4.232 3.074-5.42 1.422-1.135 1.926-1.913 1.926-2.972 0-1.682-1.286-3-2.928-3-1.464 0-3.03 1.202-3.071 3H20.5c.039-3.315 2.748-6 6.072-6s5.928 2.636 5.928 6c0 2.417-1.498 3.946-3.116 5.238-1.444 1.152-1.884 1.889-1.884 3.154V26.5h-3z" fill="#dcd5f2"></path><path d="M26.572 11C29.616 11 32 13.416 32 16.5c0 2.316-1.512 3.717-2.928 4.848C27.503 22.599 27 23.46 27 24.892V26h-2v-1.108c0-2.515 1.49-3.915 2.887-5.03C29.192 18.821 30 17.895 30 16.5c0-1.963-1.506-3.5-3.428-3.5-1.742 0-3.241 1.324-3.524 3h-2.019a5.58 5.58 0 015.543-5m0-1A6.58 6.58 0 0020 16.572V17h4v-.428C24 15.099 25.292 14 26.572 14 27.875 14 29 15.027 29 16.5c0 .839-.36 1.481-1.737 2.581C25.759 20.282 24 21.927 24 24.892V27h4v-2.108c0-.986.237-1.599 1.695-2.763C31.152 20.967 33 19.304 33 16.5c0-3.624-2.803-6.5-6.428-6.5z" fill="#8b75a1"></path></g></svg>