<svg viewBox="0 0 40 40" xmlns="http://www.w3.org/2000/svg"><path d="M11.953 2.615c12.299 3.454 21.978 13.133 25.432 25.431L2.706 37.294l9.247-34.679z" fill="#ffc49c"></path><path d="M12.305 3.237c11.738 3.475 20.983 12.72 24.458 24.458L3.411 36.589l8.894-33.352M11.6 2L2 38l36-9.6C34.575 15.532 24.468 5.425 11.6 2z" fill="#a16a4a"></path><circle cx="16.538" cy="12.385" r="3.462" fill="#a16a4a"></circle><circle cx="20.692" cy="13.769" r="3.462" fill="#a16a4a"></circle><circle cx="23.462" cy="17.923" r="3.462" fill="#a16a4a"></circle><circle cx="27.615" cy="20.692" r="3.462" fill="#a16a4a"></circle><circle cx="29" cy="24.846" r="3.462" fill="#a16a4a"></circle><path d="M10.609 7.656c10.117 3.74 17.995 11.618 21.735 21.735L2.706 37.294l7.903-29.638z" fill="#f5ce85"></path><path d="M10.95 8.319A36.099 36.099 0 0131.681 29.05l-28.27 7.539 7.539-28.27M10.267 7L2 38l31-8.267A37.351 37.351 0 0010.267 7z" fill="#a16a4a"></path><path fill="none" stroke="#967a44" stroke-linecap="round" stroke-linejoin="round" stroke-miterlimit="10" d="M13 15l12 12"></path><g><path fill="none" stroke="#967a44" stroke-linecap="round" stroke-linejoin="round" stroke-miterlimit="10" d="M11 21l8 8"></path></g><g><path fill="none" stroke="#967a44" stroke-linecap="round" stroke-linejoin="round" stroke-miterlimit="10" d="M9 27l4 4"></path></g></svg>