<svg viewBox="0 0 40 40" xmlns="http://www.w3.org/2000/svg"><path d="M14.675 19.48c-.523-.52-2.302-2.562-2.302-6.266 0-1.042.265-2.554 1.421-4.188.167.711.413 1.421.748 2.176l.714 1.605.239-1.741c.004-.029.396-2.86 1.018-4.697 4.447-3.18 11.843-4.817 21.995-4.87l-.005.298c-.399.423-1.708 1.795-3.768 3.762-1.161.378-3.849.942-6.525.942h-1.62l1.339.913c.741.505 2.066 1.196 3.203 1.734-2.707 2.628-5.718 5.249-7.329 6.368-4.666 3.243-8.257 3.859-9.128 3.964z" fill="#f78f8f"></path><path d="M37.61 2.011c-.627.649-1.691 1.727-3.135 3.108-.938.286-3.477.885-6.265.885h-3.242l2.678 1.826c.623.425 1.64.973 2.622 1.458-2.549 2.44-5.262 4.785-6.751 5.82-4.23 2.939-7.545 3.671-8.663 3.844-.604-.657-1.981-2.509-1.981-5.737 0-.765.155-1.804.757-2.962.13.377.281.76.456 1.154l1.427 3.21.478-3.481c.004-.028.369-2.661.946-4.451 3.013-2.098 8.998-4.496 20.673-4.674M39.016 1C26.894 1 19.928 3.256 16.093 6.058 15.417 7.958 15 11 15 11c-.538-1.211-.792-2.208-.909-3.148-1.642 1.851-2.218 3.778-2.218 5.362C11.873 17.851 14.5 20 14.5 20s4.032-.212 9.588-4.071C25.799 14.74 29.083 11.875 32 9c-1.135-.51-2.896-1.388-3.79-1.997 2.995 0 5.818-.67 6.79-1.003 2.584-2.463 4-4 4-4l.016-1z" fill="#c74343"></path><path d="M12.505 31.02s-.902-13.251 7.725-21.878C24.235 5.137 30.809 1.5 39 1.5" fill="none" stroke="#c74343" stroke-miterlimit="10"></path><path d="M3.475 38.5a.829.829 0 01-.82-.695L1.509 30.93a.82.82 0 01.595-.936c.992-.263 4.008-1.062 5.883-2.588l.245-.194c.38-.299.801-.631 1.066-1.025h7.396c.264.393.685.723 1.064 1.022l.247.196c1.867 1.524 4.89 2.325 5.884 2.588a.82.82 0 01.595.936l-1.146 6.876a.829.829 0 01-.82.694H3.475z" fill="#dcd5f2"></path><path d="M16.446 26.687c.291.353.663.646 1.005.915l.24.191c1.951 1.593 5.053 2.414 6.072 2.684a.32.32 0 01.23.37l-1.146 6.875a.33.33 0 01-.327.278H3.475a.33.33 0 01-.327-.277l-1.146-6.875a.322.322 0 01.23-.37c2.768-.734 4.754-1.611 6.072-2.684.076-.062.156-.125.238-.189.343-.27.716-.563 1.008-.918h6.896m.545-1H9.004c-.2.495-.848.938-1.331 1.331-1.689 1.375-4.407 2.151-5.696 2.492a1.323 1.323 0 00-.961 1.501l1.146 6.875A1.331 1.331 0 003.475 39H22.52c.651 0 1.206-.471 1.313-1.112l1.146-6.875a1.321 1.321 0 00-.961-1.501c-1.29-.342-4.008-1.115-5.696-2.492-.48-.394-1.132-.839-1.331-1.333z" fill="#8b75a1"></path><path d="M8.5 26.5v-2.247c0-.408.355-.753.776-.753h7.5c.406 0 .724.331.724.753V26.5h-9z" fill="#dcd5f2"></path><path d="M16.776 24c.147 0 .224.127.224.253V26H9v-1.747c0-.132.132-.253.276-.253h7.5m0-1h-7.5C8.586 23 8 23.563 8 24.253V27h10v-2.747c0-.69-.533-1.253-1.224-1.253z" fill="#8b75a1"></path><path d="M2.03 31.012l1.118 6.711a.33.33 0 00.327.277H22.52a.33.33 0 00.327-.277l1.118-6.711H2.03z" fill="#a59dd1"></path><g><path d="M13.234 26c.075-.628.171-1.297.296-2h-1.009a37.853 37.853 0 00-.289 2h1.002zM13.129 27h-1c-.218 2.416-.126 4.008-.123 4.054l.998-.068c-.003-.045-.094-1.614.125-3.986z" fill="#a59dd1"></path></g></svg>