<svg viewBox="0 0 40 40" xmlns="http://www.w3.org/2000/svg"><path d="M4.893 36.471c.79-1.355 1.714-3.006 2.561-4.577l.198-.369-.328-.261C3.568 28.296 1.5 24.295 1.5 20 1.5 11.453 9.799 4.5 20 4.5S38.5 11.453 38.5 20 30.201 35.5 20 35.5c-2.174 0-4.34-.331-6.437-.985l-.162-.051-.16.06c-2.945 1.093-5.986 1.798-8.348 1.947z" fill="#dcd5f2"></path><path d="M20 5c9.925 0 18 6.729 18 15s-8.075 15-18 15c-2.123 0-4.239-.324-6.287-.962l-.326-.102-.32.119c-2.521.936-5.108 1.583-7.26 1.831a169.857 169.857 0 002.086-3.756l.398-.739-.658-.52C4 28.001 2 24.14 2 20c0-8.271 8.075-15 18-15m0-1C9.507 4 1 11.163 1 20c0 4.601 2.32 8.737 6.013 11.656A150.463 150.463 0 014 37c2.597 0 6.172-.803 9.415-2.007A22.113 22.113 0 0020 36c10.493 0 19-7.163 19-16S30.493 4 20 4z" fill="#8b75a1"></path><path d="M13.5 24.474c.802-.087 1.465-.39 1.976-.902 1.02-1.024 1.024-2.511 1.024-2.573l-.002-.499H12.5v-6h6V21c0 4.481-3.635 5.312-5 5.465v-1.991z" fill="#a59dd1"></path><path d="M18 15v6c0 3.601-2.52 4.61-4 4.891V24.9a3.565 3.565 0 001.83-.977c1.145-1.15 1.171-2.75 1.17-2.928L16.995 20H13v-5h5m1-1h-7v7h4s.014 3-3 3v3s6-.019 6-6v-7z" fill="#8b75a1"></path><g><path d="M22.5 24.474c.802-.087 1.465-.39 1.976-.902 1.02-1.024 1.024-2.511 1.024-2.573l-.002-.499H21.5v-6h6V21c0 4.481-3.635 5.312-5 5.465v-1.991z" fill="#a59dd1"></path><path d="M27 15v6c0 3.601-2.52 4.61-4 4.891V24.9a3.565 3.565 0 001.83-.977c1.145-1.15 1.171-2.75 1.17-2.928L25.995 20H22v-5h5m1-1h-7v7h4s.014 3-3 3v3s6-.019 6-6v-7z" fill="#8b75a1"></path></g></svg>