<svg viewBox="0 0 40 40" xmlns="http://www.w3.org/2000/svg"><path d="M5.5 30.376c4.421-1.371 5-5.181 5-8.376v-1.5h6V22c0 6.604-4.497 11.265-11 11.491v-3.115z" fill="#dcd5f2"></path><path d="M16 21v1c0 6.138-4.062 10.521-10 10.963v-2.226c4.463-1.583 5-5.706 5-8.737v-1h5m1-1h-7v2c0 3.498-.759 6.869-5 8v4c6.996 0 12-5.004 12-12v-2z" fill="#8b75a1"></path><path fill="#dcd5f2" d="M1.5 6.5h15v15h-15z"></path><path d="M16 7v14H2V7h14m1-1H1v16h16V6z" fill="#8b75a1"></path><path fill="#dcd5f2" d="M16 22l-5 1v-3h5zM27.5 30.376c4.421-1.371 5-5.181 5-8.376v-1.5h6V22c0 6.604-4.497 11.265-11 11.491v-3.115z"></path><path d="M38 21v1c0 6.138-4.062 10.521-10 10.963v-2.226c4.463-1.583 5-5.706 5-8.737v-1h5m1-1h-7v2c0 3.498-.759 6.869-5 8v4c6.996 0 12-5.004 12-12v-2z" fill="#8b75a1"></path><g><path fill="#dcd5f2" d="M23.5 6.5h15v15h-15z"></path><path d="M38 7v14H24V7h14m1-1H23v16h16V6z" fill="#8b75a1"></path></g><path fill="#dcd5f2" d="M38 22l-5 1v-3h5z"></path></svg>