<svg viewBox="0 0 40 40" xmlns="http://www.w3.org/2000/svg"><circle cx="4.5" cy="27.5" r="3" fill="#fff"></circle><path d="M4.5 25C5.879 25 7 26.122 7 27.5S5.879 30 4.5 30 2 28.879 2 27.5 3.122 25 4.5 25m0-1a3.5 3.5 0 100 7 3.5 3.5 0 000-7z" fill="#788b9c"></path><path d="M32 37.5c-1.568 0-2.165-1.32-3.994-5.898a233.378 233.378 0 00-1.545-3.795l-.199-.475-.469.213c-.067.03-.301.149-.596.3-.462.235-1.082.551-1.407.701l-.29.134V29c0 2.025-3.461 4.5-7.5 4.5v1h7c1.792 0 3.23 1.282 3.466 3H10c-1.686 0-3.5-.782-3.5-2.5 0-.542.21-.929.454-1.376.546-1.004 1.165-2.141-.528-4.887C5.748 27.396 5.5 25.341 5.5 24c0-5.58 5.785-8.5 11.5-8.5h4.4l.077-.012c-.052.008-.015.012.023.012.96 0 1.765-.681 1.957-1.585 1.62-.099 2.475-.72 3.237-1.273.808-.587 1.572-1.142 3.306-1.142 2.249 0 2.664.211 2.737.302.021.111-.189.551-.342.871-.377.793-.895 1.879-.895 3.327 0 1.313-.083 1.544-.127 1.667-.119.331-.134.469.132 2.401L31.5 21c0 1.557-.301 2.776-.919 3.728l-.1.153.023.183c.235 1.851 1.938 8.763 2.011 9.057l.094.38H33c1.792 0 3.23 1.282 3.466 3H32z" fill="#b6c9d6"></path><path d="M30 12c1.161 0 1.779.054 2.107.11-.052.116-.111.241-.163.348C31.568 13.247 31 14.439 31 16c0 1.227-.073 1.431-.097 1.499-.166.463-.158.709.097 2.57V21c0 1.457-.274 2.587-.838 3.455l-.2.307.046.364c.239 1.879 1.948 8.819 2.021 9.113l.188.761H33c1.33 0 2.432.824 2.835 2H32c-1.243 0-1.798-1.25-3.53-5.584-.442-1.106-.943-2.36-1.548-3.803l-.398-.949-.937.426c-.07.032-.312.154-.617.31-.457.233-1.067.544-1.388.692L23 28.36V29c0 1.573-3.006 4-7 4v2h7c1.33 0 2.432.824 2.835 2H10c-1.445 0-3-.626-3-2 0-.415.165-.718.393-1.137.71-1.305 1.16-2.608-.519-5.349C6.229 27.213 6 25.274 6 24c0-5.252 5.534-8 11-8h4.357l.056-.002.017.002h.07c1.067 0 1.98-.672 2.338-1.615 1.535-.167 2.386-.784 3.149-1.339C27.792 12.462 28.428 12 30 12m0-1c-3.746 0-3.438 2.429-7 2.429 0 .01-.004.02-.004.03 0 .014.004.027.004.042a1.5 1.5 0 01-1.5 1.5c-.028 0-.053-.007-.08-.008-.021 0-.042.007-.063.007H17c-6.365 0-12 3.381-12 9 0 1.143.188 3.396 1 5 2.313 3.75 0 3.994 0 6 0 1.979 1.958 3 4 3h17c0-2.239-1.761-4-4-4h-7c4.411 0 8-2.688 8-5 .529-.244 1.828-.922 2-1 3.063 7.297 3.54 10 6 10h5c0-2.239-1.761-4-4-4 0 0-1.766-7.156-2-9 .406-.625 1-1.813 1-4v-1c-.469-3.406 0-.879 0-4 0-3.746 3.822-5-2-5z" fill="#788b9c"></path><path d="M29.692 11.715C27.361 9.352 20.544 5.5 16.714 5.5 15.493 5.5 14.5 4.827 14.5 4s.993-1.5 2.214-1.5c3.455 0 9.913 3.215 12.957 5.876.262.327.16 2.092.021 3.339z" fill="#b6c9d6"></path><path d="M16.714 3c3.225 0 9.538 3.1 12.538 5.675.109.343.093 1.19.031 2.039C26.299 8.177 20.147 5 16.714 5 15.704 5 15 4.473 15 4s.704-1 1.714-1m0-1C15.215 2 14 2.876 14 4s1.215 2 2.714 2C21.479 6 30 11.841 30 13l.001.008c.033 0 .724-4.374-.001-5.008-3.087-2.699-9.667-6-13.286-6z" fill="#788b9c"></path><path d="M27.898 12.291C25.4 10.269 18.259 7.5 14.714 7.5 13.493 7.5 12.5 6.827 12.5 6s.993-1.5 2.214-1.5c3.343 0 9.867 2.175 12.957 4.876.262.273.285 1.777.227 2.915z" fill="#b6c9d6"></path><path d="M14.714 5c3.234 0 9.525 2.09 12.562 4.696.114.273.153.935.149 1.637-.825-.536-2.016-1.176-3.736-1.932-1.641-.722-5.8-2.4-8.975-2.4C13.704 7 13 6.473 13 6s.704-1 1.714-1m0-1C13.215 4 12 4.876 12 6s1.215 2 2.714 2c4.765 0 13.571 4.341 13.571 5.5l.001.008c.022 0 .436-3.876-.287-4.508-3.086-2.699-9.666-5-13.285-5z" fill="#788b9c"></path><g><path d="M29.5 19.5c-3.309 0-6-2.691-6-6s2.691-6 6-6h.5c5.266 0 8.5 4.95 8.5 8.5 0 2.995-2.313 3.5-7.5 3.5h-1.5z" fill="#b6c9d6"></path><path d="M30 8c5.327 0 8 5.129 8 8 0 2.355-1.505 3-7 3h-1.5c-3.033 0-5.5-2.467-5.5-5.5S26.467 8 29.5 8h.5m0-1h-.5a6.5 6.5 0 100 13H31c4.889 0 8-.41 8-4s-3.278-9-9-9z" fill="#788b9c"></path></g><g><path d="M16.5 23.506c4.347 0 7 2.375 7 4.994s-3.384 5-7.5 5" fill="none" stroke="#788b9c" stroke-linecap="round" stroke-miterlimit="10"></path></g><circle cx="32.5" cy="13.5" r="1.5" fill="#36404d"></circle><path d="M16 35c-.55 0-1-.45-1-1s.45-1 1-1v2z" fill="#788b9c"></path></svg>