<svg viewBox="0 0 40 40" xmlns="http://www.w3.org/2000/svg"><path d="M18.517 28.5c.258-3.903 3.516-7 7.483-7h6c3.967 0 7.225 3.097 7.483 7H18.517z" fill="#ffeea3"></path><path d="M32 22c3.52 0 6.442 2.612 6.929 6H19.071c.487-3.388 3.408-6 6.929-6h6m0-1h-6a8 8 0 00-8 8h22a8 8 0 00-8-8z" fill="#ba9b48"></path><path d="M29 23.746c-2.668 0-3.381-1.462-3.5-1.765V18.5h7v3.48c-.121.308-.833 1.766-3.5 1.766z" fill="#e8d47b"></path><path d="M32 19v2.873c-.167.34-.852 1.373-3 1.373-2.166 0-2.844-1.049-3-1.368V19h6m1-1h-8v4.064s.628 2.181 4 2.181 4-2.181 4-2.181V18z" fill="#ba9b48"></path><path d="M34 15.5c-.827 0-1.5-.673-1.5-1.5s.673-1.5 1.5-1.5c1.385 0 1.5.394 1.5.833 0 .907-.756 2.167-1.5 2.167zm-10 0c-.744 0-1.5-1.26-1.5-2.167 0-.439.115-.833 1.5-.833.827 0 1.5.673 1.5 1.5s-.673 1.5-1.5 1.5z" fill="#e8d47b"></path><path d="M34 13c.825 0 .974.155.975.156a.44.44 0 01.025.177c0 .72-.629 1.667-1 1.667-.551 0-1-.449-1-1s.449-1 1-1m-10 0c.551 0 1 .449 1 1s-.449 1-1 1c-.371 0-1-.947-1-1.667a.46.46 0 01.024-.176c.002-.002.151-.157.976-.157m10-1a2 2 0 100 4c1.105 0 2-1.562 2-2.667S35.105 12 34 12zm-10 0c-1.105 0-2 .229-2 1.333S22.895 16 24 16a2 2 0 100-4z" fill="#ba9b48"></path><path d="M29 20.5c-.4 0-.78-.182-1.044-.498l-.105-.126-.16-.04a5.482 5.482 0 01-4.19-5.336V9.243a2.362 2.362 0 012.359-2.359h6.281A2.362 2.362 0 0134.5 9.243V14.5a5.482 5.482 0 01-4.19 5.336l-.16.04-.105.126A1.365 1.365 0 0129 20.5z" fill="#ffeea3"></path><path d="M32.141 7.384c1.025 0 1.859.834 1.859 1.86V14.5a4.983 4.983 0 01-3.81 4.85l-.32.078-.211.253c-.098.12-.316.319-.659.319s-.561-.199-.66-.318l-.211-.253-.32-.078A4.985 4.985 0 0124 14.5V9.243c0-1.025.834-1.86 1.859-1.86h6.282m0-.999H25.86A2.86 2.86 0 0023 9.243V14.5a5.997 5.997 0 004.572 5.822c.342.411.851.678 1.428.678s1.086-.267 1.428-.678A5.997 5.997 0 0035 14.5V9.243a2.859 2.859 0 00-2.859-2.859z" fill="#ba9b48"></path><path d="M34.5 14.5V13c0-2.703-2.189-4.146-2.283-4.206l-.332-.213-.285.272c-.013.012-1.511 1.378-4.663 1.378-1.711 0-3.437 1.025-3.437 3.315v.954h-.119c-.248-.938-.881-3.52-.881-5.5 0-2.733 2.12-5.5 6.173-5.5 2.17 0 2.834 1.612 2.861 1.681l.125.316L32 5.5c1.467 0 3.5 1.24 3.5 3.568 0 1.809-.637 4.467-.885 5.432H34.5z" fill="#e8d47b"></path><path d="M28.673 4c1.779 0 2.339 1.229 2.393 1.356l.245.644H32c1.046 0 3 .9 3 3.068 0 .703-.101 1.544-.237 2.36-.61-1.959-2.192-3.001-2.274-3.054l-.656-.409-.569.519c-.056.051-1.402 1.248-4.326 1.248-1.71 0-3.04.854-3.62 2.204C23.142 10.981 23 9.921 23 9c0-2.485 1.949-5 5.673-5m0-1C24.455 3 22 5.872 22 9c0 2.555 1 6 1 6h1v-1.453c0-1.931 1.399-2.816 2.937-2.816 3.423 0 5.009-1.517 5.009-1.517S34 10.539 34 13v2h1s1-3.603 1-5.932C36 6.414 33.685 5 32 5c0 0-.762-2-3.327-2z" fill="#ba9b48"></path><path d="M.517 28.5c.258-3.903 3.516-7 7.483-7h6c3.967 0 7.225 3.097 7.483 7H.517z" fill="#ffeea3"></path><path d="M14 22c3.52 0 6.442 2.612 6.929 6H1.071C1.558 24.612 4.48 22 8 22h6m0-1H8a8 8 0 00-8 8h22a8 8 0 00-8-8z" fill="#ba9b48"></path><path d="M11 22.746c-2.668 0-3.381-1.462-3.5-1.765V17.5h7v3.48c-.121.308-.833 1.766-3.5 1.766z" fill="#e8d47b"></path><path d="M14 18v2.873c-.167.34-.852 1.373-3 1.373-2.166 0-2.844-1.049-3-1.368V18h6m1-1H7v4.064s.628 2.181 4 2.181 4-2.181 4-2.181V17z" fill="#ba9b48"></path><path d="M16 15.5c-.827 0-1.5-.673-1.5-1.5s.673-1.5 1.5-1.5c1.385 0 1.5.394 1.5.833 0 .907-.756 2.167-1.5 2.167zm-10 0c-.744 0-1.5-1.26-1.5-2.167 0-.439.115-.833 1.5-.833.827 0 1.5.673 1.5 1.5s-.673 1.5-1.5 1.5z" fill="#e8d47b"></path><path d="M16 13c.825 0 .974.155.975.156a.44.44 0 01.025.177c0 .72-.629 1.667-1 1.667-.551 0-1-.449-1-1s.449-1 1-1M6 13c.551 0 1 .449 1 1s-.449 1-1 1c-.371 0-1-.947-1-1.667a.46.46 0 01.024-.176C5.026 13.155 5.175 13 6 13m10-1a2 2 0 100 4c1.105 0 2-1.562 2-2.667S17.105 12 16 12zM6 12c-1.105 0-2 .229-2 1.333S4.895 16 6 16a2 2 0 100-4z" fill="#ba9b48"></path><g><path d="M11 20.5c-.4 0-.78-.182-1.044-.498l-.105-.126-.16-.04A5.482 5.482 0 015.5 14.5V9.243a2.362 2.362 0 012.359-2.359h6.281a2.362 2.362 0 012.359 2.359V14.5a5.482 5.482 0 01-4.19 5.336l-.16.04-.105.126A1.362 1.362 0 0111 20.5z" fill="#ffeea3"></path><path d="M14.141 7.384c1.025 0 1.859.834 1.859 1.86V14.5a4.983 4.983 0 01-3.81 4.85l-.32.078-.211.253c-.098.12-.316.319-.659.319s-.561-.199-.66-.318l-.211-.253-.319-.079A4.983 4.983 0 016 14.5V9.243c0-1.025.834-1.86 1.859-1.86h6.282m0-.999H7.859A2.859 2.859 0 005 9.243V14.5a5.997 5.997 0 004.572 5.822c.342.411.851.678 1.428.678s1.086-.267 1.428-.678A5.997 5.997 0 0017 14.5V9.243a2.859 2.859 0 00-2.859-2.859z" fill="#ba9b48"></path></g><g><path d="M16.5 14.5V13c0-2.703-2.189-4.146-2.283-4.206l-.332-.213-.285.272c-.013.012-1.511 1.378-4.663 1.378-1.711 0-3.437 1.025-3.437 3.315v.954h-.119C5.133 13.562 4.5 10.98 4.5 9c0-2.733 2.12-5.5 6.173-5.5 2.17 0 2.834 1.612 2.861 1.681l.125.316L14 5.5c1.467 0 3.5 1.24 3.5 3.568 0 1.809-.637 4.467-.885 5.432H16.5z" fill="#e8d47b"></path><path d="M10.673 4c1.779 0 2.339 1.229 2.393 1.356l.245.644H14c1.046 0 3 .9 3 3.068 0 .703-.101 1.544-.237 2.36-.61-1.959-2.192-3.001-2.274-3.054l-.656-.409-.569.519c-.056.051-1.402 1.248-4.326 1.248-1.71 0-3.04.854-3.62 2.204C5.142 10.981 5 9.921 5 9c0-2.485 1.949-5 5.673-5m0-1C6.455 3 4 5.872 4 9c0 2.555 1 6 1 6h1v-1.453c0-1.931 1.399-2.816 2.937-2.816 3.423 0 5.009-1.517 5.009-1.517S16 10.539 16 13v2h1s1-3.603 1-5.932C18 6.414 15.685 5 14 5c0 0-.762-2-3.327-2z" fill="#ba9b48"></path></g><g><path d="M9.517 36.5c.258-3.903 3.516-7 7.483-7h6c3.967 0 7.225 3.097 7.483 7H9.517z" fill="#ffc49c"></path><path d="M23 30c3.52 0 6.442 2.612 6.929 6H10.071c.487-3.388 3.408-6 6.929-6h6m0-1h-6a8 8 0 00-8 8h22a8 8 0 00-8-8z" fill="#a16a4a"></path></g><g><path d="M20 31.746c-2.668 0-3.381-1.462-3.5-1.765V26.5h7v3.48c-.121.308-.833 1.766-3.5 1.766z" fill="#e3aa84"></path><path d="M23 27v2.873c-.167.34-.852 1.373-3 1.373-2.166 0-2.844-1.049-3-1.368V27h6m1-1h-8v4.064s.628 2.181 4 2.181 4-2.181 4-2.181V26z" fill="#a16a4a"></path></g><g><path d="M25 23.5c-.827 0-1.5-.673-1.5-1.5s.673-1.5 1.5-1.5c1.385 0 1.5.394 1.5.833 0 .907-.756 2.167-1.5 2.167zm-10 0c-.744 0-1.5-1.26-1.5-2.167 0-.439.115-.833 1.5-.833.827 0 1.5.673 1.5 1.5s-.673 1.5-1.5 1.5z" fill="#e3aa84"></path><path d="M25 21c.825 0 .974.155.975.156a.44.44 0 01.025.177c0 .72-.629 1.667-1 1.667-.551 0-1-.449-1-1s.449-1 1-1m-10 0c.551 0 1 .449 1 1s-.449 1-1 1c-.371 0-1-.947-1-1.667a.46.46 0 01.024-.176c.002-.002.151-.157.976-.157m10-1a2 2 0 100 4c1.105 0 2-1.562 2-2.667S26.105 20 25 20zm-10 0c-1.105 0-2 .229-2 1.333S13.895 24 15 24a2 2 0 100-4z" fill="#a16a4a"></path></g><g><path d="M20 28.5c-.4 0-.78-.182-1.044-.498l-.105-.126-.16-.04a5.482 5.482 0 01-4.19-5.336v-5.257a2.362 2.362 0 012.359-2.359h6.281a2.362 2.362 0 012.359 2.359V22.5a5.482 5.482 0 01-4.19 5.336l-.16.04-.105.126A1.365 1.365 0 0120 28.5z" fill="#ffc49c"></path><path d="M23.141 15.384c1.025 0 1.859.834 1.859 1.86V22.5a4.983 4.983 0 01-3.81 4.85l-.32.078-.211.253c-.098.12-.316.319-.659.319s-.561-.199-.66-.318l-.211-.253-.32-.078A4.985 4.985 0 0115 22.5v-5.257c0-1.025.834-1.86 1.859-1.86h6.282m0-.999H16.86a2.86 2.86 0 00-2.859 2.86V22.5a5.997 5.997 0 004.572 5.822c.341.411.85.678 1.427.678s1.086-.267 1.428-.678A5.997 5.997 0 0026 22.5v-5.257a2.859 2.859 0 00-2.859-2.859z" fill="#a16a4a"></path></g><g><path d="M25.5 22.5V21c0-2.703-2.189-4.146-2.283-4.206l-.332-.213-.285.272c-.013.012-1.511 1.378-4.663 1.378-1.711 0-3.437 1.025-3.437 3.315v.954h-.119c-.248-.938-.881-3.52-.881-5.5 0-2.733 2.12-5.5 6.173-5.5 2.17 0 2.834 1.612 2.861 1.681l.125.316.341.003c1.467 0 3.5 1.24 3.5 3.568 0 1.809-.637 4.467-.885 5.432H25.5z" fill="#b0c1d4"></path><path d="M19.673 12c1.779 0 2.339 1.229 2.393 1.356l.245.644H23c1.046 0 3 .9 3 3.068 0 .703-.101 1.544-.237 2.36-.61-1.959-2.192-3.001-2.274-3.054l-.656-.409-.569.519c-.056.051-1.402 1.248-4.326 1.248-1.711 0-3.041.854-3.62 2.205C14.142 18.982 14 17.922 14 17c0-2.485 1.949-5 5.673-5m0-1C15.455 11 13 13.872 13 17c0 2.555 1 6 1 6h1v-1.453c0-1.931 1.399-2.816 2.937-2.816 3.423 0 5.009-1.517 5.009-1.517S25 18.539 25 21v2h1s1-3.603 1-5.932C27 14.414 24.685 13 23 13c0 0-.762-2-3.327-2z" fill="#66798f"></path></g></svg>