<svg viewBox="0 0 40 40" xmlns="http://www.w3.org/2000/svg"><path d="M26.242 14.064C31.477 7.683 32.961 6.5 33.96 6.5c1.011 0 1.54.743 1.54 1.476 0 .769-.313.925-1.001 1.267-.398.198-.85.422-1.284.821l-.208.189c-.851.772-3.346 3.037-5.104 4.974l-1.661-1.163z" fill="#fff"></path><path d="M33.96 7c.823 0 1.04.638 1.04.976 0 .438-.034.476-.724.819-.406.202-.912.453-1.399.9l-.207.188c-.809.734-3.092 2.807-4.84 4.683l-.859-.602C31.729 8.192 33.192 7 33.96 7m0-1c-1.167 0-2.48.862-8.446 8.164l2.465 1.728c1.923-2.185 5.053-4.981 5.574-5.459C34.659 9.419 36 9.626 36 7.976 36 6.994 35.272 6 33.96 6z" fill="#66798f"></path><path d="M20.797 11.88c4.617-6.933 5.989-8.27 6.994-8.37.067-.007.133-.01.197-.01.938 0 1.436.695 1.501 1.341.077.773-.224.962-.881 1.375-.379.238-.809.508-1.205.952l-.192.214c-.777.861-3.055 3.384-4.625 5.503l-1.789-1.005z" fill="#fff"></path><path d="M27.988 4c.722 0 .97.56 1.003.891.045.455-.003.497-.649.903-.387.243-.869.546-1.312 1.042l-.189.21c-.739.818-2.826 3.131-4.392 5.19l-.937-.527c4.204-6.28 5.554-7.623 6.328-7.701.051-.005.1-.008.148-.008m0-1c-.08 0-.163.004-.247.013-1.171.117-2.403 1.113-7.659 9.039l2.647 1.487c1.711-2.385 4.572-5.505 5.048-6.037 1.008-1.128 2.375-1.054 2.21-2.71C29.894 3.869 29.161 3 27.988 3z" fill="#66798f"></path><path d="M15.725 9.919c3.919-6.875 5.13-8.232 6.07-8.393.104-.017.206-.026.304-.026.807 0 1.277.602 1.373 1.162.122.717-.146.914-.737 1.344-.346.252-.737.539-1.087.989l-.169.215c-.68.868-2.672 3.41-4.025 5.527l-1.729-.818z" fill="#fff"></path><path d="M22.098 2c.595 0 .834.468.881.745.068.397.048.429-.539.857-.354.259-.795.581-1.188 1.087l-.166.212c-.645.823-2.462 3.142-3.814 5.198l-.845-.4c3.554-6.2 4.736-7.557 5.452-7.679.075-.013.148-.02.219-.02m0-1c-.124 0-.254.011-.387.034-1.106.189-2.212 1.219-6.687 9.107l2.616 1.239c1.469-2.383 3.985-5.54 4.402-6.078.884-1.14 2.19-1.16 1.923-2.725C23.823 1.747 23.13 1 22.098 1z" fill="#66798f"></path><path d="M20.132 38.115C14.384 36.894 4.5 25.24 4.5 20.766 4.5 12.732 10.511 6.5 15.682 6.5c1.614 0 2.904.907 3.328 1.205.443.312 7.242 5.653 9.415 7.379l-8.293 23.031z" fill="#a6714e"></path><path d="M15.682 7c1.456 0 2.649.838 3.04 1.114.413.29 6.688 5.218 9.111 7.139l-8.018 22.266C14.304 35.899 5 24.89 5 20.766 5 13.013 10.742 7 15.682 7m0-1C10.255 6 4 12.491 4 20.766c0 4.889 10.601 17.145 16.46 17.912l8.557-23.762c-1.685-1.345-9.228-7.275-9.72-7.621S17.436 6 15.682 6z" fill="#7a4f34"></path><g><path d="M23.333 38.5c-4.029 0-8.833-1.459-8.833-8.409 0-8.014 5.744-15.591 11.82-15.591 3.165 0 3.547 2.447 3.741 5.904.066 1.174.128 2.284.43 3.097.272.734.617 1.409.982 2.123.95 1.857 2.026 3.962 2.026 7.82.001 3.261-3.609 5.056-10.166 5.056z" fill="#f78f8f"></path><path d="M26.32 15c2.739 0 3.052 2.052 3.242 5.432.068 1.213.133 2.359.46 3.242.282.762.634 1.45 1.006 2.177.97 1.896 1.972 3.855 1.972 7.594C33 37.408 26.943 38 23.333 38 17.804 38 15 35.339 15 30.091c0-3.8 1.336-7.679 3.666-10.642C20.889 16.621 23.678 15 26.32 15m0-1C20.24 14 14 21.517 14 30.091 14 36.483 17.973 39 23.333 39 30.853 39 34 36.695 34 33.445c0-5.435-2.063-7.479-3.04-10.117-.977-2.639.763-9.328-4.64-9.328z" fill="#c74343"></path></g><path d="M29.606 34.347c-.891.594-6.606.965-6.606.297 0-.742 3.637-.668 4.602-2.153.52-.742-.223-5.196.371-5.419.52-.148 2.969 6.31 1.633 7.275zM24.889 21.344c.563.643-1.126.643-2.413 2.735-1.126 1.93-1.126 3.619-1.77 3.539-1.287-.161-.643-3.056.563-4.746 1.207-1.689 2.896-2.332 3.62-1.528z" fill="#fff"></path></svg>