<svg viewBox="0 0 40 40" xmlns="http://www.w3.org/2000/svg"><path d="M19.5 37.5c-9.925 0-18-8.075-18-18s8.075-18 18-18 18 8.075 18 18-8.075 18-18 18z" fill="#5e9c76"></path><path d="M19.5 2C29.15 2 37 9.85 37 19.5S29.15 37 19.5 37 2 29.15 2 19.5 9.85 2 19.5 2m0-1C9.283 1 1 9.283 1 19.5S9.283 38 19.5 38 38 29.717 38 19.5 29.717 1 19.5 1z" fill="#37774e"></path><path d="M19.5 7C26.393 7 32 12.607 32 19.5S26.393 32 19.5 32 7 26.393 7 19.5 12.607 7 19.5 7m0-1C12.044 6 6 12.044 6 19.5S12.044 33 19.5 33 33 26.956 33 19.5 26.956 6 19.5 6z" fill="#99c99e"></path><path d="M19.5 13c3.584 0 6.5 2.916 6.5 6.5S23.084 26 19.5 26 13 23.084 13 19.5s2.916-6.5 6.5-6.5m0-1a7.5 7.5 0 100 15 7.5 7.5 0 000-15z" fill="#99c99e"></path><path fill="#99c99e" d="M2 19h35v1H2z"></path><path fill="#99c99e" d="M19 2h1v35h-1z"></path><circle cx="19.5" cy="19.5" r="2.5" fill="#e1efe2"></circle><circle cx="11" cy="10" r="2" fill="#e1efe2"></circle><circle cx="11" cy="29" r="2" fill="#e1efe2"></circle><circle cx="29.5" cy="27.5" r="1.5" fill="#e1efe2"></circle><path fill="none" stroke="#e1efe2" stroke-width="2" stroke-miterlimit="10" d="M18.346 20.654L31.859 7.141"></path></svg>