<svg viewBox="0 0 40 40" xmlns="http://www.w3.org/2000/svg"><path fill="none" stroke="#66798f" stroke-miterlimit="10" d="M13.5 21.5l-9-9 15-8 13 7 3 13-7 11h-19z"></path><circle cx="32.5" cy="11.5" r="3" fill="#bae0bd"></circle><path d="M32.5 9c1.379 0 2.5 1.122 2.5 2.5S33.878 14 32.5 14 30 12.878 30 11.5 31.121 9 32.5 9m0-1a3.499 3.499 0 00-3.5 3.5c0 1.934 1.566 3.5 3.5 3.5s3.5-1.566 3.5-3.5S34.434 8 32.5 8z" fill="#5e9c76"></path><circle cx="19.5" cy="4.5" r="3" fill="#bae0bd"></circle><path d="M19.5 2C20.878 2 22 3.122 22 4.5S20.878 7 19.5 7 17 5.878 17 4.5 18.121 2 19.5 2m0-1A3.499 3.499 0 0016 4.5C16 6.434 17.566 8 19.5 8S23 6.434 23 4.5 21.434 1 19.5 1z" fill="#5e9c76"></path><circle cx="4.5" cy="12.5" r="3" fill="#bae0bd"></circle><path d="M4.5 10C5.878 10 7 11.122 7 12.5S5.878 15 4.5 15 2 13.878 2 12.5 3.121 10 4.5 10m0-1A3.499 3.499 0 001 12.5C1 14.434 2.566 16 4.5 16S8 14.434 8 12.5 6.434 9 4.5 9z" fill="#5e9c76"></path><circle cx="13.5" cy="21.5" r="3" fill="#bae0bd"></circle><path d="M13.5 19c1.379 0 2.5 1.122 2.5 2.5S14.878 24 13.5 24 11 22.878 11 21.5s1.121-2.5 2.5-2.5m0-1a3.499 3.499 0 00-3.5 3.5c0 1.934 1.566 3.5 3.5 3.5s3.5-1.566 3.5-3.5-1.566-3.5-3.5-3.5z" fill="#5e9c76"></path><g><circle cx="9.5" cy="35.5" r="3" fill="#bae0bd"></circle><path d="M9.5 33c1.379 0 2.5 1.122 2.5 2.5S10.878 38 9.5 38 7 36.878 7 35.5 8.121 33 9.5 33m0-1A3.499 3.499 0 006 35.5C6 37.434 7.566 39 9.5 39s3.5-1.566 3.5-3.5S11.434 32 9.5 32z" fill="#5e9c76"></path></g><g><circle cx="28.5" cy="35.5" r="3" fill="#bae0bd"></circle><path d="M28.5 33c1.379 0 2.5 1.122 2.5 2.5S29.878 38 28.5 38 26 36.878 26 35.5s1.121-2.5 2.5-2.5m0-1a3.499 3.499 0 00-3.5 3.5c0 1.934 1.566 3.5 3.5 3.5s3.5-1.566 3.5-3.5-1.566-3.5-3.5-3.5z" fill="#5e9c76"></path></g><g><circle cx="35.5" cy="24.5" r="3" fill="#bae0bd"></circle><path d="M35.5 22c1.379 0 2.5 1.122 2.5 2.5S36.878 27 35.5 27 33 25.878 33 24.5s1.121-2.5 2.5-2.5m0-1a3.499 3.499 0 00-3.5 3.5c0 1.934 1.566 3.5 3.5 3.5s3.5-1.566 3.5-3.5-1.566-3.5-3.5-3.5z" fill="#5e9c76"></path></g></svg>