<svg viewBox="0 0 40 40" xmlns="http://www.w3.org/2000/svg"><path d="M21.075 18.357C31.675 4.2 29.67 1.562 36.626 4.726" fill="none" stroke="#5e9c76" stroke-linecap="round" stroke-miterlimit="10"></path><path d="M11.604 38.493c-1.266 0-2.571-.182-3.833-.358-1.257-.175-2.445-.341-3.599-.341-.88 0-1.639.098-2.316.302.498-1.878.229-3.961-.033-5.987-.426-3.293-.866-6.699 1.862-9.428 1.409-1.409 3.36-2.185 5.493-2.185 2.595 0 5.22 1.137 7.203 3.12 3.757 3.758 4.177 9.453.935 12.695-1.489 1.489-3.304 2.182-5.712 2.182z" fill="#f78f8f"></path><path d="M9.178 20.997c2.463 0 4.959 1.084 6.849 2.973 1.744 1.744 2.793 3.966 2.953 6.257.156 2.238-.56 4.273-2.018 5.731-1.407 1.407-3.06 2.035-5.358 2.035-1.231 0-2.519-.18-3.764-.353-1.219-.17-2.48-.346-3.667-.346-.597 0-1.15.045-1.665.138.282-1.74.043-3.585-.19-5.386-.429-3.32-.835-6.456 1.72-9.01 1.315-1.315 3.14-2.039 5.14-2.039m-.001-1c-2.189 0-4.281.767-5.845 2.331C-1.652 27.311 3.271 34.176 1 38.996c.95-.527 2.023-.703 3.172-.702 2.294 0 4.894.699 7.431.699 2.139 0 4.234-.497 6.065-2.328 3.443-3.443 3.024-9.443-.935-13.402-2.159-2.16-4.927-3.267-7.556-3.266z" fill="#c74343"></path><ellipse transform="rotate(-45.001 13.546 26.45)" cx="13.546" cy="26.45" rx="3.5" ry="5.693" fill="#ffc7c7"/><path d="M14.572 25.425C25.983 14.013 27.42 7.07 25.014 4.271" fill="none" stroke="#5e9c76" stroke-linecap="round" stroke-miterlimit="10"></path><path d="M25.309 11.329c-.816-.464-2.587-1.665-2.827-3.45l-.065-.483-.485.053a2.587 2.587 0 01-.269.014c-.909 0-2.204-.432-2.92-1.257-.38-.437-.535-.923-.461-1.446l.048-.342-.303-.166c-1.312-.718-1.517-2.058-1.528-2.749 5.4.06 7.666 1.135 8.627 2.042 2.582 2.434.843 6.486.183 7.784z" fill="#bae0bd"></path><path d="M17.047 2.011c5.085.123 7.023 1.225 7.736 1.897 2.077 1.959 1.01 5.169.316 6.704-.81-.538-1.949-1.509-2.122-2.799l-.13-.967-.97.106c-.069.007-.14.011-.215.011-.776 0-1.931-.38-2.543-1.085-.284-.327-.397-.67-.343-1.048l.097-.685-.607-.332c-.819-.449-1.117-1.207-1.219-1.802M16.09 1h-.068s-.355 2.53 1.764 3.69c-.289 2.047 2.215 3.273 3.876 3.273.112 0 .22-.006.323-.017.354 2.631 3.528 4.054 3.528 4.054s3.382-5.588-.044-8.819C23.174 1.016 17.622 1 16.09 1z" fill="#5e9c76"></path><path d="M14.572 25.425C30.094 9.903 33.289 8.652 36.088 11.058" fill="none" stroke="#5e9c76" stroke-linecap="round" stroke-miterlimit="10"></path><g><path d="M38.5 19.499c-.728-.02-1.941-.263-2.607-1.561l-.164-.319-.355.053a1.59 1.59 0 01-.235.018c-.465 0-.899-.219-1.29-.651-.763-.846-1.127-2.256-1.037-3.132l.049-.478-.476-.068a12.715 12.715 0 01-3.558-1.075c.921-.899 3.11-2.786 5.238-2.786.946 0 1.755.368 2.473 1.126 1.283 1.354 1.942 4.339 1.962 8.873z" fill="#bae0bd"></path><path d="M34.066 10c.801 0 1.491.317 2.109.97.796.84 1.734 2.907 1.819 7.974-.604-.117-1.251-.444-1.656-1.235l-.328-.639-.711.107a1.122 1.122 0 01-.161.012c-.318 0-.627-.164-.918-.486-.661-.732-.987-1.995-.911-2.745l.098-.956-.951-.136a12.14 12.14 0 01-2.733-.736c1.108-.967 2.805-2.13 4.343-2.13m-.001-1C31.022 9.001 28 12.42 28 12.42s1.781 1.074 4.314 1.437c-.163 1.592.913 4.333 2.823 4.333.101 0 .205-.008.31-.024C36.284 19.796 37.862 20 38.6 20c.247 0 .4-.023.4-.023 0-1.465.093-7.381-2.099-9.695C36.019 9.352 35.041 9 34.065 9z" fill="#5e9c76"></path></g><g><path d="M38.482 7.499c-1.163-.05-1.777-.286-2.071-.777l-.345-.576-.453.496c-.253.275-.627.428-1.055.428a1.79 1.79 0 01-1.629-1.042l-.234-.512-.481.292a2.084 2.084 0 01-1.104.289c-.551 0-1.076-.166-1.427-.308.647-1.174 2.605-4.28 5.18-4.28.49 0 .988.114 1.482.34 1.549.71 2.042 3.948 2.137 5.65z" fill="#bae0bd"></path><path d="M34.863 2.009c.417 0 .846.099 1.274.295 1.11.508 1.634 2.91 1.802 4.649-.597-.077-.947-.236-1.098-.488l-.69-1.152-.906.992c-.154.169-.404.266-.686.266-.384 0-.922-.196-1.174-.749l-.467-1.025-.962.585a1.577 1.577 0 01-.844.215c-.24 0-.476-.037-.69-.09.888-1.452 2.559-3.498 4.441-3.498m0-1c-3.519 0-5.863 5.01-5.863 5.01s.991.578 2.11.578c.453 0 .927-.095 1.364-.361a2.285 2.285 0 002.084 1.334c.54 0 1.063-.196 1.424-.591.531.887 1.715 1.03 3.018 1.03 0 0-.055-5.519-2.447-6.614a4.03 4.03 0 00-1.69-.386z" fill="#5e9c76"></path></g></svg>