<svg viewBox="0 0 40 40" xmlns="http://www.w3.org/2000/svg"><path d="M20 3c9.374 0 17 7.626 17 17s-7.626 17-17 17S3 29.374 3 20 10.626 3 20 3m0-2C9.507 1 1 9.507 1 20s8.507 19 19 19 19-8.507 19-19S30.493 1 20 1z" fill="#c2e8ff"></path><path d="M20.008 9.008c6.065 0 11 4.935 11 11s-4.935 11-11 11-11-4.935-11-11 4.935-11 11-11m0-2c-7.18 0-13 5.82-13 13s5.82 13 13 13 13-5.82 13-13-5.82-13-13-13z" fill="#8bb7f0"></path><path d="M20.008 15.008c2.757 0 5 2.243 5 5s-2.243 5-5 5-5-2.243-5-5 2.243-5 5-5m0-2a7 7 0 100 14 7 7 0 000-14z" fill="#7496c4"></path><path d="M26.487 38.5L20 22.643 13.513 38.5h-2.158l7.313-17.796-.066-.183A1.455 1.455 0 0118.5 20c0-.827.673-1.5 1.5-1.5s1.5.673 1.5 1.5c0 .173-.034.352-.103.529l-.07.185L28.646 38.5h-2.159z" fill="#4b6477"></path><path d="M20 19c.551 0 1 .449 1 1a.983.983 0 01-.07.352l-.14.37.15.365L27.899 38h-1.076l-5.897-14.416L20 21.322l-.926 2.262L13.177 38H12.1l6.956-16.926.149-.362-.136-.367A.958.958 0 0119 20c0-.551.449-1 1-1m0-1a2 2 0 00-2 2c0 .245.05.477.131.694L10.608 39h3.241L20 23.963 26.151 39h3.24l-7.526-18.293A1.98 1.98 0 0022 20a2 2 0 00-2-2z" fill="#36404d"></path></svg>