<svg viewBox="0 0 40 40" xmlns="http://www.w3.org/2000/svg"><path fill="#c8d1db" d="M6.5 6.5h4v3h-4z"></path><path d="M10 7v2H7V7h3m1-1H6v4h5V6z" fill="#66798f"></path><path fill="#c8d1db" d="M29.5 6.5h4v3h-4z"></path><path d="M33 7v2h-3V7h3m1-1h-5v4h5V6z" fill="#66798f"></path><path fill="#36404d" d="M5.333 27h29.333v4H5.333z"></path><circle cx="34.5" cy="30.5" r="3" fill="#c8d1db"></circle><path d="M34.5 28c1.378 0 2.5 1.121 2.5 2.5S35.878 33 34.5 33 32 31.879 32 30.5s1.122-2.5 2.5-2.5m0-1a3.5 3.5 0 100 7 3.5 3.5 0 000-7z" fill="#66798f"></path><circle cx="27.5" cy="30.5" r="3" fill="#c8d1db"></circle><path d="M27.5 28c1.378 0 2.5 1.121 2.5 2.5S28.878 33 27.5 33 25 31.879 25 30.5s1.122-2.5 2.5-2.5m0-1a3.5 3.5 0 100 7 3.5 3.5 0 000-7z" fill="#66798f"></path><circle cx="12.5" cy="30.5" r="3" fill="#c8d1db"></circle><path d="M12.5 28c1.378 0 2.5 1.121 2.5 2.5S13.878 33 12.5 33 10 31.879 10 30.5s1.122-2.5 2.5-2.5m0-1a3.5 3.5 0 100 7 3.5 3.5 0 000-7z" fill="#66798f"></path><circle cx="5.5" cy="30.5" r="3" fill="#c8d1db"></circle><path d="M5.5 28C6.878 28 8 29.121 8 30.5S6.878 33 5.5 33 3 31.879 3 30.5 4.122 28 5.5 28m0-1a3.5 3.5 0 100 7 3.5 3.5 0 000-7z" fill="#66798f"></path><g><path d="M1 28.5a.5.5 0 01-.5-.5V11C.5 9.07 2.07 7.5 4 7.5h32c1.93 0 3.5 1.57 3.5 3.5v17a.5.5 0 01-.5.5H1z" fill="#bae0bd"></path><path d="M36 8c1.654 0 3 1.346 3 3v17H1V11c0-1.654 1.346-3 3-3h32m0-1H4a4 4 0 00-4 4v17a1 1 0 001 1h38a1 1 0 001-1V11a4 4 0 00-4-4z" fill="#5e9c76"></path></g><g><path d="M30 20.5c-.827 0-1.5-.673-1.5-1.5v-6c0-.827.673-1.5 1.5-1.5h4c.827 0 1.5.673 1.5 1.5v6c0 .827-.673 1.5-1.5 1.5h-4z" fill="#c2e8ff"></path><path d="M34 12c.551 0 1 .449 1 1v6c0 .551-.449 1-1 1h-4c-.551 0-1-.449-1-1v-6c0-.551.449-1 1-1h4m0-1h-4a2 2 0 00-2 2v6a2 2 0 002 2h4a2 2 0 002-2v-6a2 2 0 00-2-2z" fill="#5e9c76"></path></g><g><path d="M23 20.5c-.827 0-1.5-.673-1.5-1.5v-6c0-.827.673-1.5 1.5-1.5h4c.827 0 1.5.673 1.5 1.5v6c0 .827-.673 1.5-1.5 1.5h-4z" fill="#c2e8ff"></path><path d="M27 12c.551 0 1 .449 1 1v6c0 .551-.449 1-1 1h-4c-.551 0-1-.449-1-1v-6c0-.551.449-1 1-1h4m0-1h-4a2 2 0 00-2 2v6a2 2 0 002 2h4a2 2 0 002-2v-6a2 2 0 00-2-2z" fill="#5e9c76"></path></g><g><path d="M6 20.5c-.827 0-1.5-.673-1.5-1.5v-6c0-.827.673-1.5 1.5-1.5h4c.827 0 1.5.673 1.5 1.5v6c0 .827-.673 1.5-1.5 1.5H6z" fill="#c2e8ff"></path><path d="M10 12c.551 0 1 .449 1 1v6c0 .551-.449 1-1 1H6c-.551 0-1-.449-1-1v-6c0-.551.449-1 1-1h4m0-1H6a2 2 0 00-2 2v6a2 2 0 002 2h4a2 2 0 002-2v-6a2 2 0 00-2-2z" fill="#5e9c76"></path></g><g><path d="M13 20.5c-.827 0-1.5-.673-1.5-1.5v-6c0-.827.673-1.5 1.5-1.5h4c.827 0 1.5.673 1.5 1.5v6c0 .827-.673 1.5-1.5 1.5h-4z" fill="#c2e8ff"></path><path d="M17 12c.551 0 1 .449 1 1v6c0 .551-.449 1-1 1h-4c-.551 0-1-.449-1-1v-6c0-.551.449-1 1-1h4m0-1h-4a2 2 0 00-2 2v6a2 2 0 002 2h4a2 2 0 002-2v-6a2 2 0 00-2-2z" fill="#5e9c76"></path></g><g><path fill="#5e9c76" d="M4 24h32v1H4z"></path></g></svg>