<svg viewBox="0 0 40 40" xmlns="http://www.w3.org/2000/svg"><path fill="#bae0bd" d="M16.5 35.75V32.5h7v3.25L20 38.375z"></path><path d="M23 33v2.5l-3 2.25-3-2.25V33h6m1-1h-8v4l4 3 4-3v-4z" fill="#5e9c76"></path><path d="M13.5 19.5v-16h-1a1 1 0 010-2h15a1 1 0 010 2h-1v16h-13z" fill="#e1ebf2"></path><path d="M27.5 2c.271 0 .5.229.5.5s-.229.5-.5.5H26v16H14V3h-1.5c-.271 0-.5-.229-.5-.5s.229-.5.5-.5h15m0-1h-15c-.825 0-1.5.675-1.5 1.5S11.675 4 12.5 4h.5v16h14V4h.5c.825 0 1.5-.675 1.5-1.5S28.325 1 27.5 1z" fill="#788b9c"></path><path d="M15 32.5c-.827 0-1.5-.673-1.5-1.5V16.5h13V31c0 .827-.673 1.5-1.5 1.5H15z" fill="#8bb7f0"></path><path d="M26 17v14c0 .551-.449 1-1 1H15c-.551 0-1-.449-1-1V17h12m1-1H13v15c0 1.1.9 2 2 2h10c1.1 0 2-.9 2-2V16z" fill="#4e7ab5"></path><path fill="#788b9c" d="M18 4h1v12h-1z"></path><path fill="#788b9c" d="M18 4h5v1h-5zM19 8h2v1h-2zM18 12h3v1h-3z"></path><path fill="#4e7ab5" d="M18 20h5v1h-5zM18 24h3v1h-3zM18 28h3v1h-3z"></path><path fill="#4e7ab5" d="M18 16h1v17h-1z"></path></svg>