<svg viewBox="0 0 40 40" xmlns="http://www.w3.org/2000/svg"><path fill="none" stroke="#788b9c" stroke-width="2" stroke-linecap="round" stroke-miterlimit="10" d="M20 2.036v29.857"></path><path d="M20 31v3.607A3.393 3.393 0 0116.607 38h0a3.393 3.393 0 01-3.393-3.393v-.679" fill="none" stroke="#36404d" stroke-width="2" stroke-linecap="round" stroke-linejoin="round" stroke-miterlimit="10"></path><path d="M35 8.5c-.827 0-1.5-.673-1.5-1.5 0-.586.798-2.425 1.5-3.877.702 1.452 1.5 3.291 1.5 3.877 0 .827-.673 1.5-1.5 1.5z" fill="#8bb7f0"></path><path d="M35 4.299c.558 1.227.993 2.344 1 2.701 0 .551-.449 1-1 1s-1-.449-1-.999c.007-.357.442-1.475 1-2.702M35 2s-2 3.895-2 5 .895 2 2 2 2-.895 2-2-2-5-2-5z" fill="#4e7ab5"></path><path d="M4 9.5c-.827 0-1.5-.673-1.5-1.5 0-.586.798-2.425 1.5-3.877C4.702 5.575 5.5 7.414 5.5 8c0 .827-.673 1.5-1.5 1.5z" fill="#8bb7f0"></path><path d="M4 5.299C4.558 6.526 4.993 7.643 5 8c0 .551-.449 1-1 1s-1-.449-1-.999c.007-.357.442-1.475 1-2.702M4 3S2 6.895 2 8s.895 2 2 2 2-.895 2-2-2-5-2-5z" fill="#4e7ab5"></path><path d="M10.5 5.5c-.551 0-1-.449-1-1 0-.34.464-1.405 1-2.444.536 1.039 1 2.104 1 2.444 0 .551-.449 1-1 1z" fill="#8bb7f0"></path><path d="M10.5 3.19c.288.619.484 1.121.5 1.31a.5.5 0 01-1 .014c.016-.196.212-.702.5-1.324m0-2.19S9 3.672 9 4.5a1.5 1.5 0 003 0c0-.828-1.5-3.5-1.5-3.5z" fill="#4e7ab5"></path><path d="M38.469 23.5c-.208-1.694-1.46-3-2.969-3s-2.761 1.306-2.969 3h-.071c-.278-1.694-1.948-3-3.959-3s-3.681 1.306-3.959 3h-.086c-.313-1.694-2.191-3-4.454-3s-4.141 1.306-4.454 3h-.086c-.278-1.694-1.948-3-3.959-3s-3.681 1.306-3.959 3h-.075c-.208-1.694-1.46-3-2.969-3s-2.761 1.306-2.969 3h-.024c.266-9.97 8.46-18 18.493-18s18.227 8.03 18.493 18h-.024z" fill="#99c99e"></path><path d="M20 6c8.878 0 16.275 6.46 17.737 14.926C37.13 20.348 36.35 20 35.5 20c-1.316 0-2.465.835-3.063 2.065C31.669 20.835 30.192 20 28.5 20c-1.76 0-3.287.903-4.026 2.214C23.652 20.903 21.955 20 20 20s-3.652.903-4.474 2.214C14.787 20.903 13.26 20 11.5 20c-1.692 0-3.169.835-3.938 2.065C6.965 20.835 5.816 20 4.5 20c-.85 0-1.63.348-2.237.926C3.725 12.46 11.122 6 20 6m0-1C9.507 5 1 13.507 1 24h1c0-1.657 1.119-3 2.5-3S7 22.343 7 24h1c0-1.657 1.567-3 3.5-3s3.5 1.343 3.5 3h1c0-1.657 1.791-3 4-3s4 1.343 4 3h1c0-1.657 1.567-3 3.5-3s3.5 1.343 3.5 3h1c0-1.657 1.119-3 2.5-3s2.5 1.343 2.5 3h1c0-10.493-8.507-19-19-19z" fill="#5e9c76"></path><path d="M24.474 22.214C23.652 20.903 21.955 20 20 20s-3.652.903-4.474 2.214C15.526 10.003 20 6 20 6s4.474 4.003 4.474 16.214z" fill="#bae0bd"></path><path d="M35.5 20c-1.316 0-2.465.835-3.063 2.065C32.437 20.104 30.609 8.756 20 6c8.878 0 16.275 6.46 17.737 14.926C37.13 20.348 36.35 20 35.5 20zM2.263 20.926C3.725 12.46 11.122 6 20 6 9.391 8.756 7.563 20.104 7.563 22.065 6.965 20.835 5.816 20 4.5 20c-.85 0-1.63.348-2.237.926z" fill="#bae0bd"></path><path fill="#36404d" d="M19 30h2v2h-2z"></path></svg>