<svg viewBox="0 0 40 40" xmlns="http://www.w3.org/2000/svg"><path d="M1.5 30.649v-.408c1.523-1.248 11.152-9.771 11.986-26.357l4.591-2.361L38.5 5.251v22.486L22.929 38.442 1.5 30.649z" fill="#e0ac89"></path><path d="M18.155 2.045L38 5.668v21.806l-15.142 10.41-20.706-7.529C4.468 28.391 13.078 20.063 13.97 4.197l4.185-2.152M18 1l-5 2.571C12.208 21.667 1 30 1 30v1l22 8 16-11V4.834L18 1z" fill="#b08159"></path><path d="M13.994 3.06l.004-.002L14 3l-.006.06z" fill="#ffc49c"></path><path fill="#839cb2" d="M14.48 3.372l3.597-1.85 19.574 3.574-3.747 2.373z"></path><path d="M18.155 2.045l18.148 3.313-2.494 1.579L15.96 3.174l2.195-1.129M18 1l-5 2.571L34 8l5-3.166L18 1z" fill="#66798f"></path><path d="M13.97 4.197c-.892 15.866-9.502 24.194-11.818 26.158l20.706 7.529C32.292 29.849 33.855 11.008 34 8L13.98 3.778l-.01.419z" fill="#ffc49c"></path></svg>