<svg viewBox="0 0 40 40" xmlns="http://www.w3.org/2000/svg"><ellipse cx="14" cy="33.625" rx="4.5" ry="3.875" fill="#f78f8f"/><path d="M14 30.25c2.206 0 4 1.514 4 3.375S16.206 37 14 37s-4-1.514-4-3.375 1.794-3.375 4-3.375m0-1c-2.761 0-5 1.959-5 4.375S11.239 38 14 38s5-1.959 5-4.375-2.239-4.375-5-4.375z" fill="#c74343"></path><ellipse cx="26" cy="33.625" rx="4.5" ry="3.875" fill="#f78f8f"/><path d="M26 30.25c2.206 0 4 1.514 4 3.375S28.206 37 26 37s-4-1.514-4-3.375 1.794-3.375 4-3.375m0-1c-2.761 0-5 1.959-5 4.375S23.239 38 26 38s5-1.959 5-4.375-2.239-4.375-5-4.375z" fill="#c74343"></path><ellipse cx="20" cy="34.625" rx="4.5" ry="3.875" fill="#f78f8f"/><path d="M20 31.25c2.206 0 4 1.514 4 3.375S22.206 38 20 38s-4-1.514-4-3.375 1.794-3.375 4-3.375m0-1c-2.761 0-5 1.959-5 4.375S17.239 39 20 39s5-1.959 5-4.375-2.239-4.375-5-4.375z" fill="#c74343"></path><ellipse cx="28.5" cy="29" rx="5" ry="4.5" fill="#f78f8f"/><path d="M28.5 25c2.481 0 4.5 1.794 4.5 4s-2.019 4-4.5 4-4.5-1.794-4.5-4 2.019-4 4.5-4m0-1c-3.038 0-5.5 2.239-5.5 5s2.462 5 5.5 5 5.5-2.239 5.5-5-2.462-5-5.5-5z" fill="#c74343"></path><ellipse cx="11.5" cy="29" rx="5" ry="4.5" fill="#f78f8f"/><path d="M11.5 25c2.481 0 4.5 1.794 4.5 4s-2.019 4-4.5 4S7 31.206 7 29s2.019-4 4.5-4m0-1C8.462 24 6 26.239 6 29s2.462 5 5.5 5 5.5-2.239 5.5-5-2.462-5-5.5-5z" fill="#c74343"></path><ellipse cx="16.5" cy="29" rx="5" ry="4.5" fill="#f78f8f"/><path d="M16.5 25c2.481 0 4.5 1.794 4.5 4s-2.019 4-4.5 4-4.5-1.794-4.5-4 2.019-4 4.5-4m0-1c-3.038 0-5.5 2.239-5.5 5s2.462 5 5.5 5 5.5-2.239 5.5-5-2.462-5-5.5-5z" fill="#c74343"></path><ellipse cx="22.5" cy="29" rx="5" ry="4.5" fill="#f78f8f"/><path d="M22.5 25c2.481 0 4.5 1.794 4.5 4s-2.019 4-4.5 4-4.5-1.794-4.5-4 2.019-4 4.5-4m0-1c-3.038 0-5.5 2.239-5.5 5s2.462 5 5.5 5 5.5-2.239 5.5-5-2.462-5-5.5-5z" fill="#c74343"></path><ellipse cx="30.5" cy="22" rx="5" ry="4.5" fill="#f78f8f"/><path d="M30.5 18c2.481 0 4.5 1.794 4.5 4s-2.019 4-4.5 4-4.5-1.794-4.5-4 2.019-4 4.5-4m0-1c-3.038 0-5.5 2.239-5.5 5s2.462 5 5.5 5 5.5-2.239 5.5-5-2.462-5-5.5-5z" fill="#c74343"></path><ellipse cx="9.5" cy="22" rx="5" ry="4.5" fill="#f78f8f"/><path d="M9.5 18c2.481 0 4.5 1.794 4.5 4s-2.019 4-4.5 4S5 24.206 5 22s2.019-4 4.5-4m0-1C6.462 17 4 19.239 4 22s2.462 5 5.5 5 5.5-2.239 5.5-5-2.462-5-5.5-5z" fill="#c74343"></path><ellipse cx="15.5" cy="22" rx="5" ry="4.5" fill="#f78f8f"/><path d="M15.5 18c2.481 0 4.5 1.794 4.5 4s-2.019 4-4.5 4-4.5-1.794-4.5-4 2.019-4 4.5-4m0-1c-3.038 0-5.5 2.239-5.5 5s2.462 5 5.5 5 5.5-2.239 5.5-5-2.462-5-5.5-5z" fill="#c74343"></path><ellipse cx="23.5" cy="22" rx="5" ry="4.5" fill="#f78f8f"/><path d="M23.5 18c2.481 0 4.5 1.794 4.5 4s-2.019 4-4.5 4-4.5-1.794-4.5-4 2.019-4 4.5-4m0-1c-3.038 0-5.5 2.239-5.5 5s2.462 5 5.5 5 5.5-2.239 5.5-5-2.462-5-5.5-5z" fill="#c74343"></path><g><path d="M28.966 14.396c-1.446-.042-4.547-.434-5.132-1.895-.398-.993.401-2.496 2.313-4.352 1.619-.214 4.954-.706 7.115-1.363-.779 2.064-3.158 5.881-4.296 7.61z" fill="#bae0bd"></path><path d="M32.394 7.545c-.87 1.832-2.476 4.481-3.692 6.343-1.748-.085-4.007-.582-4.404-1.572-.144-.359-.217-1.426 2.08-3.692 1.649-.221 4.068-.592 6.016-1.079M34 6c-2.141.882-6.928 1.526-8.081 1.676-7.534 7.2 3.159 7.225 3.311 7.225h.002S33.715 8.163 34 6z" fill="#5e9c76"></path></g><g><path d="M17.14 13.905c-3.339-.129-7.689-.555-8.408-1.222C7.566 11.6 5.665 9.214 4.747 6.701c3.387.767 7.185.831 8.342.831l.156-.001 3.895 6.374z" fill="#bae0bd"></path><path d="M5.567 7.382c2.958.561 5.983.645 7.399.649l3.258 5.332c-3.286-.171-6.575-.579-7.151-1.047-.997-.924-2.547-2.83-3.506-4.934M4 6c.808 2.995 3.112 5.861 4.392 7.049 1.28 1.189 9.657 1.384 9.657 1.384l-4.524-7.405s-.156.003-.436.003C11.737 7.032 7.493 6.95 4 6z" fill="#5e9c76"></path></g><path d="M19.5 10.871c0-4.002.212-8.376 5-10.371" fill="none" stroke="#5e9c76" stroke-linecap="round" stroke-linejoin="round" stroke-miterlimit="10"></path><g><path d="M16.871 12.7c-2.214 0-4.42-1.517-4.805-1.793-.358-.523-2.644-4.134-.934-8.897 3.521 4.525 7.979 7.074 9.494 7.94l.115.065c-.882 1.783-2.181 2.685-3.87 2.685z" fill="#bae0bd"></path><path d="M11.333 3.055c3.252 3.881 7.074 6.194 8.738 7.154-.78 1.338-1.833 1.992-3.2 1.992-1.953 0-3.937-1.295-4.439-1.647-.395-.613-2.119-3.585-1.099-7.499M11 1c-2.577 5.791.705 10.262.705 10.262s2.537 1.939 5.167 1.939c1.679 0 3.396-.791 4.513-3.384C20.598 9.299 15.032 6.588 11 1z" fill="#5e9c76"></path></g><g><path d="M16.86 10.991c2.156-1.079 7.18-3.81 11.642-7.844-.249 3.077-2.173 8.928-3.097 11.011l-8.545-3.167z" fill="#bae0bd"></path><path d="M27.833 4.399c-.508 2.906-1.884 7.124-2.702 9.124l-7.025-2.604c2.285-1.203 6.079-3.416 9.727-6.52M29 2c-6.014 5.77-13.418 9.05-13.418 9.05l10.08 3.736C26.591 12.97 29.333 4.834 29 2z" fill="#5e9c76"></path></g><g><ellipse cx="32.5" cy="15" rx="5" ry="4.5" fill="#f78f8f"/><path d="M32.5 11c2.481 0 4.5 1.794 4.5 4s-2.019 4-4.5 4-4.5-1.794-4.5-4 2.019-4 4.5-4m0-1c-3.038 0-5.5 2.239-5.5 5s2.462 5 5.5 5 5.5-2.239 5.5-5-2.462-5-5.5-5z" fill="#c74343"></path></g><g><ellipse cx="7.5" cy="15" rx="5" ry="4.5" fill="#f78f8f"/><path d="M7.5 11c2.481 0 4.5 1.794 4.5 4s-2.019 4-4.5 4S3 17.206 3 15s2.019-4 4.5-4m0-1C4.462 10 2 12.239 2 15s2.462 5 5.5 5 5.5-2.239 5.5-5-2.462-5-5.5-5z" fill="#c74343"></path></g><g><ellipse cx="26.5" cy="14.5" rx="6" ry="5" fill="#f78f8f"/><path d="M26.5 10c3.033 0 5.5 2.019 5.5 4.5S29.533 19 26.5 19 21 16.981 21 14.5s2.467-4.5 5.5-4.5m0-1c-3.59 0-6.5 2.462-6.5 5.5s2.91 5.5 6.5 5.5 6.5-2.462 6.5-5.5S30.09 9 26.5 9z" fill="#c74343"></path></g><g><ellipse cx="13.5" cy="14.5" rx="6" ry="5" fill="#f78f8f"/><path d="M13.5 10c3.033 0 5.5 2.019 5.5 4.5S16.533 19 13.5 19 8 16.981 8 14.5s2.467-4.5 5.5-4.5m0-1C9.91 9 7 11.462 7 14.5S9.91 20 13.5 20s6.5-2.462 6.5-5.5S17.09 9 13.5 9z" fill="#c74343"></path></g><g><ellipse cx="20" cy="14.5" rx="6.5" ry="5" fill="#f78f8f"/><path d="M20 10c3.308 0 6 2.019 6 4.5S23.308 19 20 19s-6-2.019-6-4.5 2.692-4.5 6-4.5m0-1c-3.866 0-7 2.462-7 5.5s3.134 5.5 7 5.5 7-2.462 7-5.5S23.866 9 20 9z" fill="#c74343"></path></g></svg>