<svg viewBox="0 0 40 40" xmlns="http://www.w3.org/2000/svg"><path d="M6 36.5A2.502 2.502 0 013.5 34V6c0-1.379 1.121-2.5 2.5-2.5h28c1.379 0 2.5 1.121 2.5 2.5v28c0 1.379-1.121 2.5-2.5 2.5H6z" fill="#f78f8f"></path><path d="M34 4c1.103 0 2 .897 2 2v28c0 1.103-.897 2-2 2H6c-1.103 0-2-.897-2-2V6c0-1.103.897-2 2-2h28m0-1H6a3 3 0 00-3 3v28a3 3 0 003 3h28a3 3 0 003-3V6a3 3 0 00-3-3z" fill="#c74343"></path><g><path fill="#ffeea3" d="M20 11l3.126 6.103L30 18l-5.118 4.691 1.206 6.617L20 26.202l-6.103 3.106 1.221-6.617L10 18l7.152-.897z"></path></g></svg>