<svg viewBox="0 0 40 40" xmlns="http://www.w3.org/2000/svg"><path d="M6.027 38.5a4.494 4.494 0 01-3.201-1.326A4.498 4.498 0 011.5 33.973c0-1.209.471-2.346 1.326-3.201 1.067-1.067 2.826-1.948 4.527-2.8 1.801-.902 3.662-1.834 4.881-3.053l5.211-5.211 2.848 2.848-5.211 5.211c-1.587 1.586-2.396 3.353-3.179 5.062-.727 1.586-1.412 3.084-2.675 4.347A4.504 4.504 0 016.027 38.5z" fill="#ffeea3"></path><path d="M17.445 20.414l2.14 2.14-4.858 4.858c-1.65 1.65-2.478 3.458-3.279 5.206-.707 1.544-1.375 3.003-2.575 4.202-.759.761-1.77 1.18-2.846 1.18s-2.087-.419-2.848-1.179a4.032 4.032 0 010-5.695c1.01-1.01 2.732-1.873 4.397-2.707 1.836-.92 3.735-1.871 5.011-3.147l4.858-4.858m0-1.414l-5.565 5.565c-2.311 2.311-7.147 3.592-9.408 5.854a5.027 5.027 0 107.11 7.109c2.715-2.715 2.877-6.431 5.854-9.408L21 22.555 17.445 19z" fill="#ba9b48"></path><path d="M25.5 26.5c-6.617 0-12-5.383-12-12s5.383-12 12-12 12 5.383 12 12-5.383 12-12 12z" fill="#bae0bd"></path><path d="M25.5 3C31.841 3 37 8.159 37 14.5S31.841 26 25.5 26 14 20.841 14 14.5 19.159 3 25.5 3m0-1C18.596 2 13 7.596 13 14.5S18.596 27 25.5 27 38 21.404 38 14.5 32.404 2 25.5 2z" fill="#5e9c76"></path><circle cx="34.5" cy="5.5" r="2" fill="#ffeea3"></circle><path d="M34.5 4c.827 0 1.5.673 1.5 1.5S35.327 7 34.5 7 33 6.327 33 5.5 33.673 4 34.5 4m0-1a2.5 2.5 0 100 5 2.5 2.5 0 000-5z" fill="#ba9b48"></path><path d="M15.566 7.788a12.128 12.128 0 013.222-3.221l16.646 16.645a12.128 12.128 0 01-3.222 3.221L15.566 7.788z" fill="#ffeea3"></path><path d="M18.732 5.218l16.05 16.05a11.661 11.661 0 01-2.514 2.514l-16.05-16.05a11.661 11.661 0 012.514-2.514m.123-1.292a12.546 12.546 0 00-3.928 3.928l17.219 17.219a12.546 12.546 0 003.928-3.928L18.855 3.926z" fill="#ba9b48"></path><g><circle cx="25.5" cy="14.5" r="1" fill="#5e9c76"></circle></g><g><circle cx="30.5" cy="19.5" r="1" fill="#5e9c76"></circle></g><g><circle cx="20.5" cy="9.5" r="1" fill="#5e9c76"></circle></g></svg>