<svg viewBox="0 0 40 40" xmlns="http://www.w3.org/2000/svg"><path fill="#8bb7f0" d="M6.5 37.5v-35h18.293l8.707 8.707V37.5z"></path><path d="M24.586 3L33 11.414V37H7V3h17.586M25 2H6v36h28V11l-9-9z" fill="#4e7ab5"></path><path fill="#fff" d="M24.5 11.5v-9h.293l8.707 8.707v.293z"></path><path d="M25 3.414L32.586 11H25V3.414M25 2h-1v10h10v-1l-9-9z" fill="#4e7ab5"></path><path d="M10.12 17.902a10.176 10.176 0 011.859-.169c.936 0 1.781.144 2.34.65.533.481.702 1.066.702 1.82 0 .936-.468 1.781-1.352 2.184v.026c.598.247.897.793 1.066 1.742.169.975.403 2.054.559 2.379h-1.781c-.117-.247-.312-1.131-.442-2.106-.156-1.079-.429-1.391-.988-1.391h-.26v3.497H10.12v-8.632zm1.703 3.823h.312c.741 0 1.157-.598 1.157-1.364 0-.755-.299-1.274-1.053-1.301-.156 0-.325.014-.416.053v2.612zM18.011 24.533l-.39 2.002H15.97l1.898-8.763h2.041l1.703 8.763h-1.651l-.377-2.002h-1.573zm1.417-1.326l-.286-1.833c-.091-.533-.208-1.417-.286-1.989h-.039c-.091.585-.221 1.482-.312 1.989l-.325 1.833h1.248zM23.341 26.535l-1.495-8.763h1.768l.429 3.497c.117 1.002.195 2.003.299 3.068h.039c.117-1.079.312-2.028.494-3.081l.624-3.484h1.378l.585 3.458c.156.988.312 1.964.416 3.107h.026c.117-1.144.221-2.08.338-3.094l.429-3.472h1.664l-1.547 8.763h-1.755l-.521-2.873a45.947 45.947 0 01-.39-2.873h-.026c-.156 1.053-.299 2.028-.481 2.886l-.585 2.86h-1.689z" fill="#fff"></path></svg>