<svg viewBox="0 0 40 40" xmlns="http://www.w3.org/2000/svg"><path fill="none" stroke="#788b9c" stroke-linecap="round" stroke-miterlimit="10" stroke-width="3" d="M37 3l-9.96 9.96"></path><path fill="#e1ebf2" d="M19.707 13l7.29-7.29 7.29 7.29-7.29 7.29z"></path><path d="M27 6.41L33.59 13 27 19.59 20.41 13 27 6.41M27 5l-8 8 8 8 8-8-8-8z" fill="#a3b7cc"></path><path fill="#f78f8f" d="M1.66 35.95l8.39-11.19 5.19 5.19-11.19 8.39-2.39-2.39z"></path><path d="M10.11 25.52l4.37 4.37-10.39 7.79-1.77-1.77 7.79-10.38M10 24L1 36l3 3 12-9-6-6z" fill="#c74343"></path><path fill="#f76d6d" d="M7.55 27.85l1.9-7.59L19 10.71 29.29 21l-9.55 9.55-7.59 1.9-4.6-4.6z"></path><path d="M19 11.41L28.59 21l-9.1 9.1-7.18 1.8-4.2-4.2 1.8-7.18 9.1-9.1M19 10L9 20l-2 8 5 5 8-2 10-10-11-11z" fill="#ab3434"></path><path fill="none" stroke="#ab3434" stroke-miterlimit="10" stroke-width="2" d="M15 15l10 10"></path></svg>