<svg viewBox="0 0 40 40" xmlns="http://www.w3.org/2000/svg"><path d="M1.5 37.5V15.521L17.981 4.132c.596-.412 1.294-.63 2.019-.63s1.423.218 2.019.63L38.5 15.521V37.5h-37z" fill="#fff"></path><path d="M20 4.002c.622 0 1.222.187 1.734.541L38 15.782V37H2V15.782L18.266 4.543A3.036 3.036 0 0120 4.002m0-1a4.04 4.04 0 00-2.302.718L1 15.258V38h38V15.258L22.302 3.72A4.047 4.047 0 0020 3.002z" fill="#ba9b48"></path><path d="M20 4.002c-.622 0-1.222.187-1.734.541L2 15.782V37h36V15.782L21.734 4.543A3.036 3.036 0 0020 4.002z" fill="#fff"></path><path d="M25 25H15L2 15.782 18.266 4.543c.512-.354 1.112-.541 1.734-.541s1.222.187 1.734.541L38 15.782 25 25z" fill="#ffeea3"></path><path fill="#ebd7a7" d="M24.681 24h-9.362L2.876 15.177 2 15.782 15 25h10l13-9.218-.876-.605z"></path></svg>