<svg viewBox="0 0 40 40" xmlns="http://www.w3.org/2000/svg"><path d="M8.511 29.5c.263-6.11 5.316-11 11.489-11s11.227 4.89 11.489 11H8.511z" fill="#bae0bd"></path><path d="M20 19c5.729 0 10.448 4.401 10.955 10H9.045C9.552 23.401 14.271 19 20 19m0-1c-6.627 0-12 5.373-12 12h24c0-6.627-5.373-12-12-12z" fill="#5e9c76"></path><circle cx="20" cy="9" r="7.5" fill="#ffeea3"></circle><path d="M20 2c3.86 0 7 3.14 7 7s-3.14 7-7 7-7-3.14-7-7 3.14-7 7-7m0-1a8 8 0 100 16 8 8 0 000-16z" fill="#ba9b48"></path><path d="M19.136 38.5c-.791-.452-5.099-2.701-12.636-2.796v-16.2c7.719.116 12.187 2.89 12.232 2.918l.123.078h2.291l.123-.078c.045-.028 4.513-2.802 12.232-2.918v16.2c-7.537.096-11.845 2.344-12.636 2.796h-1.729z" fill="#f78f8f"></path><path d="M33 20.015v15.198c-7.024.179-11.208 2.208-12.266 2.787h-1.469c-1.057-.579-5.241-2.608-12.265-2.787V20.015c7.244.223 11.422 2.802 11.463 2.828l.246.157h2.582l.246-.156c.043-.028 4.178-2.607 11.463-2.829M34 19c-8.288 0-13 3-13 3h-2s-4.712-3-13-3v17.2c8.476 0 13 2.8 13 2.8h2s4.524-2.8 13-2.8V19z" fill="#c74343"></path><path d="M23 22.11c-.941.412-1.448.725-1.463.734l-.246.156h-2.582l-.246-.156c-.014-.009-.523-.319-1.463-.729v14.882c1.13.418 1.895.801 2.266 1.004h1.469c.371-.203 1.136-.586 2.266-1.004V22.11z" fill="#f7a3a3"></path><g><path d="M33 33.5c-1.93 0-3.5-1.57-3.5-3.5s1.57-3.5 3.5-3.5h2a.5.5 0 01.5.5v6a.5.5 0 01-.5.5h-2z" fill="#ffeea3"></path><path d="M35 27v6h-2c-1.654 0-3-1.346-3-3s1.346-3 3-3h2m0-1h-2a4 4 0 000 8h2a1 1 0 001-1v-6a1 1 0 00-1-1z" fill="#ba9b48"></path></g><g><path d="M5 33.5a.5.5 0 01-.5-.5v-6a.5.5 0 01.5-.5h2c1.93 0 3.5 1.57 3.5 3.5S8.93 33.5 7 33.5H5z" fill="#ffeea3"></path><path d="M7 27c1.654 0 3 1.346 3 3s-1.346 3-3 3H5v-6h2m0-1H5a1 1 0 00-1 1v6a1 1 0 001 1h2a4 4 0 000-8z" fill="#ba9b48"></path></g></svg>