<svg viewBox="0 0 40 40" xmlns="http://www.w3.org/2000/svg"><path fill="#ffeea3" d="M1.5 6.5h37v27h-37z"></path><path d="M38 7v26H2V7h36m1-1H1v28h38V6z" fill="#ba9b48"></path><path d="M1.679 12.372l15.748 8.48a5.429 5.429 0 005.147 0l15.748-8.48" fill="#ffeea3" stroke="#ba9b48" stroke-miterlimit="10"></path><circle cx="31" cy="31" r="8.5" fill="#bae0bd"></circle><path d="M31 23c4.411 0 8 3.589 8 8s-3.589 8-8 8-8-3.589-8-8 3.589-8 8-8m0-1c-4.971 0-9 4.029-9 9s4.029 9 9 9 9-4.029 9-9-4.029-9-9-9z" fill="#5e9c76"></path><path fill="none" stroke="#fff" stroke-width="2" stroke-miterlimit="10" d="M26.821 31.025l2.77 2.769 6.23-6.231"></path></svg>