<svg viewBox="0 0 40 40" xmlns="http://www.w3.org/2000/svg"><path d="M8.511 29.5c.263-6.11 5.316-11 11.489-11s11.227 4.89 11.489 11H8.511z" fill="#bae0bd"></path><path d="M20 19c5.729 0 10.448 4.401 10.955 10H9.045C9.552 23.401 14.271 19 20 19m0-1c-6.627 0-12 5.373-12 12h24c0-6.627-5.373-12-12-12z" fill="#5e9c76"></path><circle cx="20" cy="9" r="7.5" fill="#ffeea3"></circle><path d="M20 2c3.86 0 7 3.14 7 7s-3.14 7-7 7-7-3.14-7-7 3.14-7 7-7m0-1a8 8 0 100 16 8 8 0 000-16z" fill="#ba9b48"></path><path d="M8.46 38.5L7.405 25.847A2.144 2.144 0 017.97 24.2c.415-.451.981-.7 1.594-.7h20.87c.613 0 1.179.249 1.594.7a2.14 2.14 0 01.565 1.647L31.54 38.5H8.46z" fill="#b0c1d4"></path><path d="M30.435 24c.472 0 .907.191 1.226.538.319.347.474.797.434 1.267L31.08 38H8.92L7.904 25.805a1.65 1.65 0 01.434-1.267A1.65 1.65 0 019.565 24h20.87m0-1H9.565a2.666 2.666 0 00-2.657 2.888L8 39h24l1.093-13.112A2.667 2.667 0 0030.435 23z" fill="#66798f"></path><g><circle cx="29" cy="27" r="1" fill="#36404d"></circle></g><g><path d="M31 38.5c-1.93 0-3.5-1.57-3.5-3.5s1.57-3.5 3.5-3.5h2a.5.5 0 01.5.5v6a.5.5 0 01-.5.5h-2z" fill="#ffeea3"></path><path d="M33 32v6h-2c-1.654 0-3-1.346-3-3s1.346-3 3-3h2m0-1h-2a4 4 0 000 8h2a1 1 0 001-1v-6a1 1 0 00-1-1z" fill="#ba9b48"></path></g><g><path d="M7 38.5a.5.5 0 01-.5-.5v-6a.5.5 0 01.5-.5h2c1.93 0 3.5 1.57 3.5 3.5s-1.57 3.5-3.5 3.5H7z" fill="#ffeea3"></path><path d="M9 32c1.654 0 3 1.346 3 3s-1.346 3-3 3H7v-6h2m0-1H7a1 1 0 00-1 1v6a1 1 0 001 1h2a4 4 0 000-8z" fill="#ba9b48"></path></g></svg>