<svg viewBox="0 0 40 40" xmlns="http://www.w3.org/2000/svg"><circle cx="19.995" cy="20" r="19" fill="#fff"></circle><circle cx="20" cy="7" r="1" fill="#c5d4de"></circle><circle cx="20" cy="33" r="1" fill="#c5d4de"></circle><circle cx="7" cy="20" r="1" fill="#c5d4de"></circle><circle cx="33" cy="20" r="1" fill="#c5d4de"></circle><path d="M19.994 38.5c-10.201 0-18.5-8.299-18.5-18.5s8.299-18.5 18.5-18.5c6.202 0 11.918 3.068 15.369 8.229l-2.172 2.152A15.521 15.521 0 0019.994 4.5c-8.547 0-15.5 6.953-15.5 15.5s6.953 15.5 15.5 15.5 15.5-6.953 15.5-15.5c0-1.784-.313-3.55-.931-5.255l2.307-2.286A18.252 18.252 0 0138.494 20c0 10.201-8.299 18.5-18.5 18.5z" fill="#dcd5f2"></path><path d="M19.995 2c5.897 0 11.341 2.851 14.72 7.667l-1.437 1.424A16.023 16.023 0 0019.995 4c-8.822 0-16 7.178-16 16s7.178 16 16 16 16-7.178 16-16c0-1.736-.287-3.456-.854-5.123l1.559-1.545A17.727 17.727 0 0137.995 20c0 9.925-8.075 18-18 18s-18-8.075-18-18 8.074-18 18-18m0-1c-10.493 0-19 8.507-19 19s8.507 19 19 19 19-8.507 19-19c0-3.018-.722-5.86-1.974-8.394l-3.038 3.011A14.942 14.942 0 0134.995 20c0 8.284-6.716 15-15 15-8.284 0-15-6.716-15-15 0-8.284 6.716-15 15-15 5.628 0 10.526 3.104 13.092 7.689l2.919-2.892C32.63 4.513 26.729 1 19.995 1z" fill="#8b75a1"></path><g><path fill="#99c99e" d="M12.879 17.828L15 15.707l4.998 4.998L36.084 4.791l2.121 2.122-18.203 18.039z"></path><path d="M36.082 5.496l1.414 1.414-17.493 17.336-6.417-6.418L15 16.414l4.293 4.293.703.703.707-.7L36.082 5.496m.004-1.41L20 20l-5-5-2.828 2.828L20 25.657 38.914 6.914l-2.828-2.828z" fill="#5e9c76"></path></g></svg>