<svg viewBox="0 0 40 40" xmlns="http://www.w3.org/2000/svg"><path fill="#735f63" d="M19.5 2.5h19v10.077h-19z"></path><path d="M38 3v9.077H20V3h18m1-1H19v11.077h20V2z" fill="#4d3e40"></path><path fill="#877477" d="M20 3h9v7.601h-9z"></path><path fill="#f78f8f" d="M19.5 37.5V10.26L29 3.61l9.5 6.65V37.5z"></path><path d="M29 4.221l9 6.3V37H20V10.521l9-6.3M29 3l-10 7v28h20V10L29 3z" fill="#c74343"></path><path fill="#ffeea3" d="M31 31h4v3h-4zM31 25h4v3h-4zM31 19h4v3h-4zM31 13h4v3h-4zM23 31h4v3h-4zM23 25h4v3h-4zM23 19h4v3h-4zM23 13h4v3h-4z"></path><path fill="#dbf2ff" d="M1.5 37.5V24.966l9.499-5.066 9.501 5.066V37.5z"></path><path d="M10.999 20.467l9.001 4.8V37H2V25.267l8.999-4.8m0-1.134L1 24.667V38h20V24.667l-10.001-5.334z" fill="#7496c4"></path><path fill="#f78f8f" d="M10.998 20.285L1.5 26.13v-2.825l9.498-5.847 9.502 5.847v2.826z"></path><path d="M10.998 18.046L20 23.584v1.652l-8.478-5.216-.524-.322-.524.323L2 25.236v-1.652l8.998-5.538m0-1.174L1 23.026v4l9.998-6.154L21 27.026v-4l-10.002-6.154z" fill="#c74343"></path><path fill="#b5ddf5" d="M2 35h18v2H2z"></path><g><path fill="#8bb7f0" d="M12.5 27.5h5v5h-5z"></path><path d="M17 28v4h-4v-4h4m1-1h-6v6h6v-6z" fill="#4e7ab5"></path></g><g><path fill="#8bb7f0" d="M4.5 27.5h5v5h-5z"></path><path d="M9 28v4H5v-4h4m1-1H4v6h6v-6z" fill="#4e7ab5"></path></g></svg>