<svg viewBox="0 0 40 40" xmlns="http://www.w3.org/2000/svg"><path d="M20 38.5C9.8 38.5 1.501 30.201 1.501 20c0-.489 0-.951.09-1.402.405-5.142 2.534-9.376 6.207-12.435-1.696 2.742-2.45 5.598-2.297 8.661.332 4.531 3.099 8.254 6.437 8.671.145.008.248.011.349.011 3.844 0 5.213-3.361 5.213-6.507 0-3.755-1.75-6.815-4.617-8.176l2.168-2.168c1.111.816 2.456 1.884 3.524 3.607l.925 1.492V10c0-1.191-.771-4.079-1.865-5.928L20 1.707l2.365 2.365C21.271 5.921 20.5 8.809 20.5 10v1.755l.925-1.492c1.083-1.747 2.45-2.82 3.524-3.608l2.168 2.168C24.25 10.185 22.5 13.245 22.5 17c0 .669.084 2.388.86 3.893.882 1.71 2.387 2.614 4.354 2.614.101 0 .205-.002.31-.007 3.387-.422 6.154-4.059 6.476-8.463.157-3.135-.625-6.116-2.328-8.899 3.692 3.059 5.831 7.294 6.229 12.401.099.51.099.972.099 1.461-.001 10.201-8.3 18.5-18.5 18.5z" fill="#f78f8f"></path><path d="M20 2.414l1.742 1.742C20.68 6.12 20 8.834 20 10v3.511l1.85-2.984c.923-1.488 2.074-2.475 3.051-3.212l1.384 1.384C23.609 10.268 22 13.32 22 17c0 3.232 1.496 7.007 5.714 7.007.108 0 .219-.003.332-.008l.039-.002.039-.005c3.638-.455 6.528-4.206 6.875-8.942a15.466 15.466 0 00-1.043-6.45c2.297 2.709 3.642 6.082 3.946 9.978l.005.06.012.059c.081.403.081.841.081 1.304 0 9.925-8.074 17.999-17.999 18-9.925-.001-17.999-8.075-17.999-18 0-.463 0-.901.081-1.304l.012-.059.005-.06c.302-3.863 1.626-7.212 3.888-9.909a14.886 14.886 0 00-.982 6.204c.348 4.753 3.302 8.673 6.872 9.119l.039.005.039.002a7.5 7.5 0 00.332.008C16.504 24.007 18 20.232 18 17c0-3.68-1.609-6.732-4.285-8.301l1.384-1.384c.977.737 2.128 1.724 3.051 3.212L20 13.511V10c0-1.166-.68-3.88-1.742-5.843L20 2.414M20 1l-3 3c1.2 1.8 2 4.9 2 6-1.256-2.026-2.9-3.2-4-4l-3 3c3.1 1.1 5 4.2 5 8 0 1.76-.574 6.007-4.714 6.007A5.54 5.54 0 0112 23c-3.2-.4-5.699-4.1-5.999-8.2-.2-4 1.2-7.5 4-10.8-5.2 3.1-8.4 8.1-8.9 14.5-.1.5-.1 1-.1 1.5C1.001 30.5 9.5 38.999 20 39c10.499-.001 18.999-8.5 18.999-19 0-.5 0-1-.1-1.5-.5-6.4-3.7-11.4-8.9-14.5 2.8 3.3 4.201 7 4.001 11-.3 4.1-2.8 7.6-6 8a6.994 6.994 0 01-.286.007C23.573 23.007 23 18.76 23 17c0-3.8 1.9-6.9 5-8l-3-3c-1.1.8-2.744 1.974-4 4 0-1.1.8-4.2 2-6l-3-3z" fill="#c74343"></path></svg>