<svg viewBox="0 0 40 40" xmlns="http://www.w3.org/2000/svg"><path d="M1.5 38.5V14c0-1.378 1.122-2.5 2.5-2.5h32c1.378 0 2.5 1.122 2.5 2.5v24.5h-37z" fill="#e1ebf2"></path><path d="M36 12c1.103 0 2 .897 2 2v24H2V14c0-1.103.897-2 2-2h32m0-1H4a3 3 0 00-3 3v25h38V14a3 3 0 00-3-3z" fill="#788b9c"></path><path fill="#bae0bd" d="M6.5 22.5h27v4h-27z"></path><path d="M33 23v3H7v-3h26m1-1H6v5h28v-5z" fill="#5e9c76"></path><path fill="#8bb7f0" d="M6.5 31.5h3v3h-3z"></path><path d="M9 32v2H7v-2h2m1-1H6v4h4v-4z" fill="#4e7ab5"></path><path fill="#8bb7f0" d="M12.5 31.5h3v3h-3z"></path><path d="M15 32v2h-2v-2h2m1-1h-4v4h4v-4z" fill="#4e7ab5"></path><path fill="#8bb7f0" d="M18.5 31.5h3v3h-3z"></path><path d="M21 32v2h-2v-2h2m1-1h-4v4h4v-4z" fill="#4e7ab5"></path><path fill="#8bb7f0" d="M24.5 31.5h3v3h-3z"></path><path d="M27 32v2h-2v-2h2m1-1h-4v4h4v-4z" fill="#4e7ab5"></path><g><path fill="#f78f8f" d="M30.5 31.5h3v3h-3z"></path><path d="M33 32v2h-2v-2h2m1-1h-4v4h4v-4z" fill="#c74343"></path></g><path d="M33 15H7a1 1 0 00-1 1v2a1 1 0 001 1h26a1 1 0 001-1v-2a1 1 0 00-1-1z" fill="#788b9c"></path><g><path fill="#fff" d="M9.5 1.5h21v16h-21z"></path><path d="M30 2v15H10V2h20m1-1H9v17h22V1z" fill="#788b9c"></path></g><path fill="none" stroke="#788b9c" stroke-miterlimit="10" d="M14 5.389h12M14 9.5h12"></path></svg>