<svg viewBox="0 0 40 40" xmlns="http://www.w3.org/2000/svg"><path d="M19.569 35.653l11.684-5.868c1.316-.632 2.106-2.314 1.586-3.678a2.875 2.875 0 00-3.785-1.636l-9.575 3.936" fill="#e8d47b" stroke="#ba9b48" stroke-miterlimit="10"></path><path d="M22.569 36.653l11.684-5.868c1.316-.632 2.106-2.314 1.586-3.678a2.875 2.875 0 00-3.785-1.636l-9.575 3.936" fill="#e8d47b" stroke="#ba9b48" stroke-miterlimit="10"></path><circle cx="32" cy="7" r="4.5" fill="#ffc49c"></circle><path d="M32 3c2.206 0 4 1.794 4 4s-1.794 4-4 4-4-1.794-4-4 1.794-4 4-4m0-1a5 5 0 10.001 9.999A5 5 0 0032 2z" fill="#a16a4a"></path><path fill="#a16a4a" d="M32.978 9.206h-.892V5.767l-1.064.328v-.719l1.859-.666h.097z"></path><circle cx="25.5" cy="15.5" r="7" fill="#f5ce85"></circle><path d="M25.5 9c3.584 0 6.5 2.916 6.5 6.5S29.084 22 25.5 22 19 19.084 19 15.5 21.916 9 25.5 9m0-1c-4.136 0-7.5 3.364-7.5 7.5s3.364 7.5 7.5 7.5 7.5-3.364 7.5-7.5S29.636 8 25.5 8z" fill="#967a44"></path><path fill="#967a44" d="M27 19.46h-1.563v-6.121l-1.865.585v-1.276l3.261-1.188H27z"></path><path d="M24.103 37.5c-.396 0-.796-.087-1.154-.252L7.807 30.297 1.5 32.818v-9.777l5.399-2.004a8.526 8.526 0 012.985-.537c1.386 0 2.766.341 3.992.985l9.539 5.015a2.458 2.458 0 011.042 3.278l-.198.388 1.157.808 9.828-4.04a2.365 2.365 0 013.127 1.351c.413 1.084-.21 2.509-1.335 3.049l-11.692 5.872a2.786 2.786 0 01-1.241.294z" fill="#ffeea3"></path><path d="M9.884 21c1.304 0 2.604.321 3.759.928l9.539 5.015a1.954 1.954 0 01.829 2.608l-.396.776.714.498.577.402.448.312.505-.208 9.576-3.937c.229-.094.469-.142.714-.142.785 0 1.473.475 1.754 1.211.321.84-.196 1.994-1.1 2.428L25.12 36.759a2.275 2.275 0 01-1.964.034L8.21 29.932l-.39-.179-.398.159L2 32.08v-8.691l5.074-1.883A8.03 8.03 0 019.884 21m0-1a9.078 9.078 0 00-3.158.567L1 22.693v10.864l6.793-2.716 14.946 6.861a3.265 3.265 0 002.829-.049l11.684-5.868c1.316-.632 2.106-2.314 1.586-3.678a2.875 2.875 0 00-3.785-1.636l-9.575 3.936-.577-.402a2.947 2.947 0 00-1.254-3.947l-9.54-5.015A9.064 9.064 0 009.884 20z" fill="#ba9b48"></path><path d="M15.598 27.654l6.125 3.095a1.996 1.996 0 002.625-.779h0" fill="none" stroke="#ba9b48" stroke-miterlimit="10"></path><g><path fill="#ffeea3" d="M3 23.017v8.663l-2 .799v-8.72z"></path></g></svg>