<svg viewBox="0 0 40 40" id="svg" xmlns="http://www.w3.org/2000/svg"><circle cx="20" cy="27" r="1" fill="#ffeea3"></circle><path d="M20 26.5a.5.5 0 110 1 .5.5 0 010-1m0-1a1.5 1.5 0 10.001 3.001A1.5 1.5 0 0020 25.5z" fill="#c29653"></path><path fill="#ffeea3" d="M19.5 10.5h1v12h-1z"></path><path d="M20 11v11-11m1-1h-2v13h2V10z" fill="#c29653"></path><g><path d="M20 38.5C9.799 38.5 1.5 30.201 1.5 20S9.799 1.5 20 1.5c3.952 0 7.889 1.318 11.087 3.713l.347.26 2.203-2.202 1.91 8.918-8.273-2.556 2.093-2.092-.601-.316A15.37 15.37 0 0020 4.5C11.453 4.5 4.5 11.453 4.5 20S11.453 35.5 20 35.5a15.454 15.454 0 0015.416-13.884c.039-.369.064-.743.076-1.116h3.001c-.266 9.971-8.46 18-18.493 18z" fill="#ffeea3"></path><path d="M20 2c3.844 0 7.676 1.283 10.788 3.613l.694.519.613-.613 1.246-1.246 1.539 7.186L28.214 9.4l1.027-1.027.987-.931-1.183-.635A15.914 15.914 0 0020 4C11.178 4 4 11.178 4 20s7.178 16 16 16a15.951 15.951 0 0015.968-15h2.004C37.452 30.462 29.59 38 20 38c-9.925 0-18-8.075-18-18S10.075 2 20 2m0-1C9.523 1 1 9.523 1 20s8.523 19 19 19 19-8.523 19-19h-4c0 .537-.029 1.058-.082 1.565C34.135 29.113 27.756 35 20 35c-8.284 0-15-6.716-15-15 0-8.284 6.716-15 15-15 3.16 0 6.088.982 8.506 2.651l.027.016-2.2 2.2 9.881 3.052-2.281-10.652-2.546 2.546A19.025 19.025 0 0020 1z" fill="#c29653"></path></g></svg>