<svg viewBox="0 0 40 40" xmlns="http://www.w3.org/2000/svg"><path d="M15.74 33.519l4.76-4.379v2.36h13.738l-3.182-5.649 3.488-1.958 3.372 5.986c.672 1.195.736 2.612.165 3.7-.632 1.203-1.807 1.921-3.142 1.921H20.5v2.366l-4.76-4.347z" fill="#99c99e"></path><path d="M34.353 24.573l3.127 5.552c.591 1.049.651 2.283.158 3.222-.544 1.035-1.553 1.653-2.7 1.653H20v1.732l-3.52-3.215L20 30.279V32h15.093l-.84-1.491-2.516-4.467 2.616-1.469m.381-1.361l-4.359 2.448L33.382 31H21v-3l-6 5.519L21 39v-3h13.938c1.511 0 2.867-.822 3.585-2.189.685-1.305.551-2.893-.172-4.177l-3.617-6.422z" fill="#5e9c76"></path><path d="M5.062 35.5c-1.335 0-2.51-.718-3.143-1.921-.571-1.088-.507-2.505.165-3.7l6.758-11.997-2.021-1.103 6.096-2.097 1.565 6.275-2.129-1.161L5.762 31.5h5.556v4H5.062z" fill="#99c99e"></path><path d="M12.564 15.332l1.157 4.641-.696-.379-.866-.472-.484.859-5.93 10.528L4.907 32H10.818v3H5.062c-1.147 0-2.156-.618-2.7-1.654-.493-.939-.432-2.173.158-3.222l6.509-11.556.498-.883-.891-.485-.58-.316 4.508-1.552m.707-1.3l-7.684 2.643 2.571 1.402-6.509 11.557c-.723 1.284-.858 2.872-.172 4.177C2.194 35.178 3.55 36 5.062 36h6.756v-5h-5.2l5.93-10.528 2.696 1.47-1.973-7.91z" fill="#5e9c76"></path><g><path d="M24.712 19.408l2.067-1.151L20 6.222l-2.878 5.11-3.535-1.876 2.683-4.763C17.043 3.32 18.438 2.5 20 2.5s2.957.82 3.73 2.193l6.543 11.616 2.063-1.149-1.481 6.275-6.143-2.027z" fill="#99c99e"></path><path d="M20 3c1.379 0 2.611.725 3.294 1.939l6.299 11.183.489.867.87-.485.637-.355-1.095 4.64-4.542-1.499.633-.352.878-.489-.493-.875L20.871 6.75 20 5.203l-.871 1.547-2.203 3.912-2.651-1.406 2.431-4.316A3.742 3.742 0 0120 3m0-1c-1.745 0-3.302.915-4.166 2.448L12.9 9.658l4.418 2.344L20 7.24l6.097 10.824-2.623 1.462 7.742 2.555 1.867-7.909-2.618 1.459-6.299-11.183C23.302 2.915 21.745 2 20 2z" fill="#5e9c76"></path></g></svg>