<svg viewBox="0 0 40 40" xmlns="http://www.w3.org/2000/svg"><circle cx="34.5" cy="17.5" r="4" fill="#fff"></circle><path d="M34.5 14c1.93 0 3.5 1.57 3.5 3.5S36.43 21 34.5 21 31 19.43 31 17.5s1.57-3.5 3.5-3.5m0-1a4.5 4.5 0 100 9 4.5 4.5 0 000-9z" fill="#788b9c"></path><circle cx="5.5" cy="17.5" r="4" fill="#fff"></circle><path d="M5.5 14C7.43 14 9 15.57 9 17.5S7.43 21 5.5 21 2 19.43 2 17.5 3.57 14 5.5 14m0-1a4.5 4.5 0 100 9 4.5 4.5 0 000-9z" fill="#788b9c"></path><path d="M20 35.5c-9.649 0-17.5-5.383-17.5-12s7.851-12 17.5-12 17.5 5.383 17.5 12-7.851 12-17.5 12z" fill="#fff"></path><path d="M20 12c9.374 0 17 5.159 17 11.5S29.374 35 20 35 3 29.841 3 23.5 10.626 12 20 12m0-1C10 11 2 16.625 2 23.5S10 36 20 36s18-5.625 18-12.5S30 11 20 11z" fill="#788b9c"></path><circle cx="13.5" cy="21.5" r="2" fill="#f78f8f"></circle><path d="M13.5 20c.827 0 1.5.673 1.5 1.5s-.673 1.5-1.5 1.5-1.5-.673-1.5-1.5.673-1.5 1.5-1.5m0-1a2.5 2.5 0 100 5 2.5 2.5 0 000-5z" fill="#c74343"></path><g><circle cx="26.5" cy="21.5" r="2" fill="#f78f8f"></circle><path d="M26.5 20c.827 0 1.5.673 1.5 1.5s-.673 1.5-1.5 1.5-1.5-.673-1.5-1.5.673-1.5 1.5-1.5m0-1a2.5 2.5 0 100 5 2.5 2.5 0 000-5z" fill="#c74343"></path></g><path d="M13.5 27.9s2.184 2.6 6.5 2.6 6.5-2.6 6.5-2.6" fill="none" stroke="#788b9c" stroke-linecap="round" stroke-miterlimit="10"></path><g><circle cx="34.5" cy="5.5" r="3" fill="#b6c9d6"></circle><path d="M34.5 3C35.878 3 37 4.122 37 5.5S35.878 8 34.5 8 32 6.878 32 5.5 33.122 3 34.5 3m0-1C32.575 2 31 3.575 31 5.5S32.575 9 34.5 9 38 7.425 38 5.5 36.425 2 34.5 2z" fill="#788b9c"></path></g><path d="M20.5 12V8.113c0-1.987 1.445-3.613 3.613-3.613s2.871 1 7.387 1" fill="none" stroke="#788b9c" stroke-miterlimit="10"></path></svg>