<svg viewBox="0 0 40 40" xmlns="http://www.w3.org/2000/svg"><path d="M29.452 31.503c-1.393-.003-2.63-1.031-2.896-2.447l-.04-.215-.185-.116c-1.689-1.064-3.737-1.233-4.832-1.237V25.5h8c1.654 0 3 1.346 3 3l-.006.102a2.888 2.888 0 01-2.887 2.898l.038.002-.192.001z" fill="#8bb7f0"></path><path d="M29.5 26a2.504 2.504 0 012.5 2.453 1.982 1.982 0 00-.006.134l.005.106A2.397 2.397 0 0129.655 31l-.046-.006-.072.001a.789.789 0 00-.084.005 2.496 2.496 0 01-2.403-2.037l-.08-.429-.37-.233c-1.56-.982-3.391-1.247-4.598-1.301v-1H29.5m0-1H21v3s.171-.013.461-.013c.903 0 2.961.126 4.604 1.16A3.497 3.497 0 0029.5 32c.017 0 .033-.005.05-.005.019 0 .038.005.057.005A3.393 3.393 0 0033 28.607c0-.014-.006-.028-.007-.042 0-.022.007-.043.007-.065a3.5 3.5 0 00-3.5-3.5z" fill="#4e7ab5"></path><path d="M1.5 38.5V8.698c3.671-1.573 9.296-2.819 11.654-2.819 3.117 0 8.346 1.262 8.346 9.715v.111l2.925 6.214a.736.736 0 01-.413 1.009l-2.512.931V29c0 2.481-2.019 4.5-4.5 4.5h-1.5v5h-14z" fill="#ffeea3"></path><path d="M13.155 6.379c3.579 0 7.845 1.599 7.845 9.214v.224l.095.202 2.877 6.112c.037.079.023.149.005.193s-.057.104-.139.134l-2.185.81-.653.243V29c0 2.206-1.794 4-4 4h-2v5H2V9.031c3.614-1.49 8.906-2.652 11.155-2.652m0-1c-2.42 0-8.328 1.283-12.155 2.992V39h15v-5h1a5 5 0 005-5v-4.793l2.185-.81a1.24 1.24 0 00.691-1.691L22 15.594c0-7.706-4.272-10.215-8.845-10.215z" fill="#ba9b48"></path><path d="M7.732 1C5.327 1 3.035 1.597 1 2.639v28.25c.01.038.027.073.036.111L5 28v-4.508c0-.769.157-1.365.393-1.834A3.995 3.995 0 013 18a4 4 0 014-4c1.306 0 2.455.635 3.185 1.603C13.155 14.959 14 11.909 14 10c4.342 0 7-5 7-5S15.957 1 7.732 1z" fill="#ffc49c"></path><circle cx="17.5" cy="18.5" r="1.5" fill="#36404d"></circle><path fill="#4e7ab5" d="M29 25h-1v3h1v-3z"></path><path fill="#f78f8f" d="M35.5 13.697l3 1.019v1.591l-3-1v5.55z"></path><path d="M36 14.395l2 .679v.539l-1.684-.561-.316-.106v-.551M35 13v8.357h1V16l3 1v-2.643L35 13z" fill="#c74343"></path><g><circle cx="33.5" cy="21.5" r="2" fill="#f78f8f"></circle><path d="M33.5 20c.827 0 1.5.673 1.5 1.5s-.673 1.5-1.5 1.5-1.5-.673-1.5-1.5.673-1.5 1.5-1.5m0-1a2.5 2.5 0 100 5 2.5 2.5 0 000-5z" fill="#c74343"></path></g><path d="M7.732 1C5.327 1 3.035 1.597 1 2.639v1.155A13.673 13.673 0 017.732 2c6.012 0 10.282 2.257 11.914 3.285C18.775 6.559 16.747 9 14 9h-1v1c0 .38-.074 3.53-2.483 4.464A4.932 4.932 0 007 13c-2.757 0-5 2.243-5 5a5 5 0 002.164 4.113c-.109.429-.164.89-.164 1.379v4.01L1 29.83v1.059c.01.038.027.073.036.111L5 28v-4.508c0-.769.157-1.365.393-1.834A3.995 3.995 0 013 18a4 4 0 014-4c1.306 0 2.455.635 3.185 1.603C13.155 14.959 14 11.909 14 10c4.342 0 7-5 7-5S15.957 1 7.732 1z" fill="#a16a4a"></path></svg>