<svg viewBox="0 0 40 40" xmlns="http://www.w3.org/2000/svg"><path d="M14.485 28.5c-.208-3.539-2.576-6.599-4.87-9.563C7.499 16.203 5.5 13.62 5.5 11c0-5.238 6.505-9.5 14.5-9.5S34.5 5.762 34.5 11c0 2.644-1.987 5.181-4.09 7.867-2.309 2.948-4.693 5.993-4.896 9.633H14.485z" fill="#ffeea3"></path><path d="M20 2c7.72 0 14 4.037 14 9 0 2.471-1.935 4.943-3.984 7.559-2.259 2.885-4.589 5.86-4.964 9.441H14.945c-.382-3.487-2.693-6.473-4.934-9.369C7.948 15.966 6 13.449 6 11c0-4.963 6.28-9 14-9m0-1C11.716 1 5 5.477 5 11c0 5.824 9 11.124 9 18h12c0-7.063 9-12.102 9-18 0-5.523-6.716-10-15-10z" fill="#ba9b48"></path><path d="M22.714 13a1.88 1.88 0 011.329 3.207l-1.75 1.75-.293.293v12.414h-4V18.25l-.293-.293-1.75-1.75a1.88 1.88 0 012.658-2.657l.679.679.706.707.707-.707.679-.679c.355-.355.826-.55 1.328-.55m0-1a2.87 2.87 0 00-2.036.843l-.678.679-.679-.679A2.87 2.87 0 0017.286 12a2.879 2.879 0 00-2.036 4.914l1.75 1.75v13h6v-13l1.75-1.75a2.879 2.879 0 000-4.071A2.87 2.87 0 0022.714 12z" fill="#fff"></path><circle cx="20" cy="35.5" r="3.5" fill="#2d3540"></circle><path d="M17 36.5a2.503 2.503 0 01-2.5-2.5v-5.5h11V34c0 1.378-1.122 2.5-2.5 2.5h-6z" fill="#dcd5f2"></path><path d="M25 29v5c0 1.103-.897 2-2 2h-6c-1.103 0-2-.897-2-2v-5h10m1-1H14v6a3 3 0 003 3h6a3 3 0 003-3v-6z" fill="#8b75a1"></path><path fill="#8b75a1" d="M19 34h6.488v1H19zM14.56 34H17v1h-2.44zM19 32h7v1h-7zM14 32h3v1h-3zM19 30h7v1h-7zM14 30h3v1h-3z"></path><path d="M33.908 10C33.131 5.507 27.193 2 20 2S6.869 5.507 6.092 10h27.816z" fill="#ffe57d"></path><path d="M6.365 9a6.17 6.17 0 00-.273 1h27.817a6.17 6.17 0 00-.273-1H6.365z" fill="#edd164"></path></svg>