<svg viewBox="0 0 40 40" xmlns="http://www.w3.org/2000/svg"><path d="M19.999 38.458c-1.707-.743-15.364-7.474-15.498-32.091L20 1.524l15.499 4.843c-.134 24.552-13.792 31.341-15.5 32.091z" fill="#8bb7f0"></path><path d="M20 2.048l14.996 4.686c-.258 23.19-12.752 30.119-15 31.177C17.735 36.869 5.26 30.057 5.004 6.734L20 2.048M20 1L4 6c0 27.141 16 33 16 33s16-5.932 16-33L20 1z" fill="#4e7ab5"></path><path fill="#fff" d="M21 17h7v-7z"></path><path d="M20 25a6 6 0 110-12 5.996 5.996 0 015.651 4h2.087c-.889-3.449-4.011-6-7.738-6a8 8 0 000 16c3.726 0 6.848-2.551 7.738-6h-2.087A5.996 5.996 0 0120 25z" fill="#fff"></path></svg>