<svg viewBox="0 0 40 40" xmlns="http://www.w3.org/2000/svg"><path d="M4.207 35.5l2.573-2.574-.328-.353A18.4 18.4 0 011.5 20C1.5 9.799 9.799 1.5 20 1.5c.776 0 1.598.062 2.5.19v4.032A14.506 14.506 0 0020 5.5C12.005 5.5 5.5 12.005 5.5 20c0 3.578 1.337 7.023 3.765 9.701l.353.389 2.883-2.883V35.5H4.207z" fill="#8bb7f0"></path><path d="M20 2c.627 0 1.287.042 2 .129v3.009A14.712 14.712 0 0020 5C11.729 5 5 11.729 5 20c0 3.702 1.383 7.267 3.894 10.037l.705.778.743-.743L12 28.414V35H5.414l1.379-1.379.682-.682-.657-.706A17.9 17.9 0 012 20c0-9.925 8.075-18 18-18m0-1C9.507 1 1 9.507 1 20c0 4.994 1.934 9.527 5.086 12.914L3 36h10V26l-3.365 3.365C7.387 26.885 6 23.612 6 20c0-7.732 6.268-14 14-14 1.031 0 2.033.119 3 .33V1.259A19.142 19.142 0 0020 1z" fill="#4e7ab5"></path><g><path d="M20 38.5c-.776 0-1.598-.062-2.5-.19v-4.032c.839.147 1.677.222 2.5.222 7.995 0 14.5-6.505 14.5-14.5 0-3.583-1.336-7.03-3.761-9.706l-.353-.389-2.886 2.888V4.5h8.293l-2.581 2.582.328.354A18.393 18.393 0 0138.5 20c0 10.201-8.299 18.5-18.5 18.5z" fill="#8bb7f0"></path><path d="M34.586 5l-1.387 1.387-.682.682.657.706A17.899 17.899 0 0138 20c0 9.925-8.075 18-18 18-.627 0-1.287-.042-2-.129v-3.009c.67.092 1.339.138 2 .138 8.271 0 15-6.729 15-15 0-3.708-1.381-7.274-3.89-10.041l-.705-.778-.743.743L28 11.586V5h6.586M37 4H27v10l3.369-3.369C32.618 13.111 34 16.388 34 20c0 7.732-6.268 14-14 14-1.031 0-2.033-.119-3-.33v5.071c.98.155 1.977.259 3 .259 10.493 0 19-8.507 19-19 0-4.993-1.942-9.519-5.094-12.906L37 4z" fill="#4e7ab5"></path></g></svg>