<svg viewBox="0 0 40 40" xmlns="http://www.w3.org/2000/svg"><path fill="#bae0bd" d="M3.597 1.5h13.557l3.267 18.644-13.095 2.278z"></path><path d="M16.734 2l3.108 17.737-12.111 2.107L4.194 2h12.54m.84-1H3l3.921 22L21 20.55 17.574 1z" fill="#5e9c76"></path><path d="M20.521 29.407l-9.575-3.936a2.876 2.876 0 00-3.785 1.636c-.521 1.364.269 3.046 1.586 3.678l11.684 5.868" fill="#e8d47b" stroke="#ba9b48" stroke-miterlimit="10"></path><path d="M17.521 30.407l-9.575-3.936a2.876 2.876 0 00-3.785 1.636c-.521 1.364.269 3.046 1.586 3.678l11.684 5.868" fill="#e8d47b" stroke="#ba9b48" stroke-miterlimit="10"></path><path d="M11.496 12.333a4.59 4.59 0 01-4.53-3.799 4.541 4.541 0 01.768-3.424 4.576 4.576 0 012.976-1.882 4.67 4.67 0 01.799-.069 4.587 4.587 0 014.529 3.799 4.54 4.54 0 01-.764 3.417 4.581 4.581 0 01-2.98 1.889 4.658 4.658 0 01-.798.069z" fill="#fff"></path><path d="M11.508 3.659a4.089 4.089 0 014.037 3.385 4.049 4.049 0 01-.68 3.045 4.08 4.08 0 01-2.656 1.683 4.088 4.088 0 01-4.75-3.323 4.049 4.049 0 01.68-3.045 4.08 4.08 0 012.656-1.683c.236-.041.476-.062.713-.062m0-1c-.291 0-.587.025-.884.077-2.777.483-4.635 3.118-4.15 5.885.433 2.471 2.588 4.212 5.022 4.212.291 0 .587-.025.884-.077 2.777-.483 4.635-3.118 4.15-5.885-.433-2.471-2.588-4.212-5.022-4.212z" fill="#5e9c76"></path><ellipse transform="rotate(-9.936 13.084 16.765)" cx="13.082" cy="16.765" rx="2.042" ry="2.035" fill="#5e9c76"/><path fill="#bae0bd" d="M4.016 1l.376 2.111H7V1z"></path><path fill="#bae0bd" d="M5.049 1.5h14.608l7.677 16.151-11.907 5.682z"></path><path d="M19.341 2l7.327 15.415-11.005 5.251L5.84 2h13.501m.632-1H4.258L15.19 24 28 17.887 19.973 1z" fill="#5e9c76"></path><path d="M15.498 12.687a4.596 4.596 0 01-4.128-2.61 4.588 4.588 0 012.16-6.101 4.518 4.518 0 011.961-.446 4.592 4.592 0 014.127 2.61 4.588 4.588 0 01-2.16 6.101 4.514 4.514 0 01-1.96.446z" fill="#fff"></path><path d="M15.491 4.03c1.561 0 3.004.912 3.675 2.325a4.086 4.086 0 01-1.924 5.435 4.027 4.027 0 01-1.745.397 4.088 4.088 0 01-3.675-2.325 4.086 4.086 0 011.924-5.435 4.013 4.013 0 011.745-.397m0-1a5.082 5.082 0 00-4.571 7.262 5.067 5.067 0 004.579 2.895 5.082 5.082 0 004.571-7.262 5.069 5.069 0 00-4.579-2.895z" fill="#5e9c76"></path><path d="M19.418 17.891a1.538 1.538 0 01-1.381-.873 1.534 1.534 0 011.378-2.19c.586 0 1.127.343 1.38.873a1.535 1.535 0 01-1.377 2.19z" fill="#fff"></path><path d="M19.415 15.328c.394 0 .759.231.928.587a1.034 1.034 0 01-.925 1.475c-.394 0-.759-.231-.928-.587a1.034 1.034 0 01.925-1.475m0-1a2.032 2.032 0 00.003 4.063 2.032 2.032 0 00-.003-4.063z" fill="#5e9c76"></path><g><path d="M15.897 38.5c-.429 0-.858-.102-1.241-.294L2.972 32.338c-1.133-.544-1.756-1.969-1.343-3.053a2.363 2.363 0 012.222-1.532c.312 0 .615.061.904.18l9.829 4.041 1.157-.808-.198-.388a2.458 2.458 0 011.042-3.278l9.539-5.015a8.62 8.62 0 013.992-.985c1.021 0 2.025.18 2.984.536l5.399 2.004v9.777l-6.307-2.521-15.142 6.95a2.738 2.738 0 01-1.153.254z" fill="#ffeea3"></path><path d="M30.116 22c.962 0 1.907.17 2.81.505L38 24.388v8.691l-5.422-2.167-.398-.159-.39.179-14.946 6.861a2.275 2.275 0 01-1.964-.034l-11.7-5.875c-.888-.427-1.405-1.58-1.085-2.42a1.866 1.866 0 011.755-1.211c.245 0 .486.048.716.143l9.575 3.936.505.208.448-.312.577-.402.714-.498-.396-.776a1.954 1.954 0 01.829-2.608l9.54-5.015A8.094 8.094 0 0130.116 22m0-1c-1.455 0-2.907.35-4.224 1.043l-9.54 5.015a2.947 2.947 0 00-1.254 3.947l-.577.402-9.575-3.936a2.876 2.876 0 00-3.785 1.636c-.521 1.364.269 3.046 1.586 3.678l11.684 5.868a3.271 3.271 0 002.83.049l14.946-6.861L39 34.556V23.693l-5.726-2.125A9.056 9.056 0 0030.116 21z" fill="#ba9b48"></path></g><path d="M15.652 30.969h0a1.994 1.994 0 002.625.779l6.125-3.095" fill="none" stroke="#ba9b48" stroke-miterlimit="10"></path><g><path fill="#ffeea3" d="M37 24.017v8.663l2 .799v-8.72z"></path></g><g><path fill="#bae0bd" d="M19.817 3l-.951-2H5.365l.951 2z"></path></g></svg>