<svg viewBox="0 0 40 40" xmlns="http://www.w3.org/2000/svg"><path d="M17.772 16.734c0-.78.747-1.453 2.284-1.453 1.74 0 2.992.461 3.966 1.014v-2.632c-.723-.377-1.817-.598-3.282-.663l-1.521.039c-1.271.117-2.291.535-3.062 1.253-.771.717-1.157 1.586-1.157 2.607 0 4.032 7.23 4.156 7.23 6.366 0 .787-1.053 1.395-2.227 1.395-2.403 0-4.318-.952-4.721-1.258v2.701A8.971 8.971 0 0019.22 27l1.521-.058c1.368-.143 2.42-.544 3.156-1.203.735-.66 1.103-1.53 1.103-2.609 0-4.306-7.228-3.977-7.228-6.396z" fill="#5e9c76"></path><path fill="#5e9c76" d="M19 11h2v3h-2zM19 26h2v3h-2zM5.057 18.851l-3.993-.307C1.026 19.025 1 19.509 1 20c0 .514.028 1.02.068 1.524l4.004-.322C5.04 20.803 5 20.407 5 20c0-.388.023-.77.057-1.149zM1.897 25.743a18.91 18.91 0 001.122 2.761l3.587-1.796a15.385 15.385 0 01-.871-2.182l-3.838 1.217zM8.466 29.543l-3.096 2.56c.636.765 1.33 1.48 2.076 2.136l2.643-2.998a15.055 15.055 0 01-1.623-1.698zM10.973 36.697c.869.47 1.778.877 2.722 1.209l1.327-3.77a15.052 15.052 0 01-2.149-.955l-1.9 3.516z"></path><path d="M20 38.5c-.501 0-1.017-.023-1.563-.072l.334-2.981c.427.035.833.053 1.229.053 8.547 0 15.5-6.953 15.5-15.5S28.547 4.5 20 4.5c-3.093 0-6.094.93-8.678 2.69l-.499.34 2.214 2.214-9.324 2.543 2.543-9.325 2.432 2.432.347-.256C12.245 2.758 16.037 1.5 20 1.5c10.201 0 18.5 8.299 18.5 18.5S30.201 38.5 20 38.5z" fill="#bae0bd"></path><path d="M20 2c9.925 0 18 8.075 18 18s-8.075 18-18 18c-.328 0-.662-.01-1.009-.032l.223-1.99c.268.015.529.022.786.022 8.822 0 16-7.178 16-16S28.822 4 20 4c-3.194 0-6.292.96-8.96 2.777l-.998.68.854.854 1.178 1.178-7.649 2.086 2.086-7.649 1.518 1.518.61.61.693-.514C12.456 3.224 16.145 2 20 2m0-1c-4.226 0-8.111 1.4-11.264 3.736L6 2 3 13l11-3-2.397-2.397A14.861 14.861 0 0120 5c8.284 0 15 6.716 15 15 0 8.284-6.716 15-15 15-.566 0-1.122-.037-1.671-.098l-.446 3.974c.696.077 1.401.124 2.117.124 10.493 0 19-8.507 19-19S30.493 1 20 1z" fill="#5e9c76"></path></svg>