<svg viewBox="0 0 40 40" xmlns="http://www.w3.org/2000/svg"><path d="M16.5 38.49V23.5h7v14.99h-7zM20 32.5c-.827 0-1.5.673-1.5 1.5s.673 1.5 1.5 1.5 1.5-.673 1.5-1.5-.673-1.5-1.5-1.5z" fill="#ffeea3"></path><path d="M23 24v13.99h-6V24h6m-3 12c1.103 0 2-.897 2-2s-.897-2-2-2-2 .897-2 2 .897 2 2 2m4-13h-8v15.99h8V23zm-4 12a1 1 0 110-2 1 1 0 010 2z" fill="#f5c276"></path><path fill="#ffeea3" d="M9.5 23.5h2v15h-2z"></path><path d="M11 24v14h-1V24h1m1-1H9v16h3V23z" fill="#f5c276"></path><g><path fill="#ffeea3" d="M28.5 23.5h2v15h-2z"></path><path d="M30 24v14h-1V24h1m1-1h-3v16h3V23z" fill="#f5c276"></path></g><g><path d="M6 23.5c-.827 0-1.5-.673-1.5-1.5V3c0-.827.673-1.5 1.5-1.5h28c.827 0 1.5.673 1.5 1.5v19c0 .827-.673 1.5-1.5 1.5H6z" fill="#8bb7f0"></path><path d="M34 2c.551 0 1 .449 1 1v19c0 .551-.449 1-1 1H6c-.551 0-1-.449-1-1V3c0-.551.449-1 1-1h28m0-1H6c-1.1 0-2 .9-2 2v19a2 2 0 002 2h28a2 2 0 002-2V3a2 2 0 00-2-2z" fill="#4e7ab5"></path></g></svg>