<svg viewBox="0 0 40 40" xmlns="http://www.w3.org/2000/svg"><path d="M2.5 36.5v-33h35V36a.5.5 0 01-.5.5H2.5z" fill="#fff"></path><path d="M37 4v32H3V4h34m1-1H2v34h35a1 1 0 001-1V3z" fill="#788b9c"></path><path fill="#788b9c" d="M2 3h36v6H2z"></path><path fill="none" stroke="#8bb7f0" stroke-miterlimit="10" d="M13 16.5h18M9 16.5h1M13 20.5h18M9 20.5h1M13 24.5h18M9 24.5h1M13 28.5h18M9 28.5h1"></path><path fill="#c2e8ff" d="M21 28h3v1h-3zM21 24h2v1h-2zM26 20h3v1h-3z"></path><path d="M26 39.5c-.827 0-1.5-.673-1.5-1.5V25.5h-1V24a.5.5 0 01.5-.5h15a.5.5 0 01.5.5v1.5h-1V38c0 .827-.673 1.5-1.5 1.5H26z" fill="#dcd5f2"></path><path d="M39 24v1h-1v13c0 .551-.449 1-1 1H26c-.551 0-1-.449-1-1V25h-1v-1h15m0-1H24a1 1 0 00-1 1v2h1v12a2 2 0 002 2h11a2 2 0 002-2V26h1v-2a1 1 0 00-1-1z" fill="#8b75a1"></path><path fill="#8b75a1" d="M24 25h15v1H24zM31 29h1v7h-1zM27 29h1v7h-1zM35 29h1v7h-1z"></path><path d="M28.5 23.5v-2a1 1 0 011-1h4a1 1 0 011 1v2h-6z" fill="none" stroke="#8b75a1" stroke-miterlimit="10"></path><path fill="#c8d1db" d="M37 21h1v2h-1zM21 36h3v1h-3z"></path></svg>