<svg viewBox="0 0 40 40" xmlns="http://www.w3.org/2000/svg"><path d="M17.519 38.475a2.193 2.193 0 01-1.565-.648L2.148 24.022a2.22 2.22 0 010-3.132L20.539 2.523A3.477 3.477 0 0123.013 1.5H35c1.93 0 3.5 1.57 3.5 3.5v12.008c0 .923-.375 1.826-1.028 2.478l-18.388 18.34a2.196 2.196 0 01-1.565.649zM33.143 4.857c-1.103 0-2 .897-2 2s.897 2 2 2 2-.897 2-2-.898-2-2-2z" fill="#f5ce85"></path><path d="M35 2c1.654 0 3 1.346 3 3v12.008a2.98 2.98 0 01-.881 2.124L18.731 37.473a1.702 1.702 0 01-1.212.502c-.458 0-.888-.178-1.212-.502L2.502 23.669A1.704 1.704 0 012 22.456c0-.458.178-.888.502-1.212L20.893 2.877A2.981 2.981 0 0123.012 2H35m-1.857 7.357c1.379 0 2.5-1.121 2.5-2.5s-1.121-2.5-2.5-2.5-2.5 1.121-2.5 2.5 1.121 2.5 2.5 2.5M35 1H23.012c-1.06 0-2.077.421-2.827 1.17L1.795 20.537a2.715 2.715 0 000 3.839L15.599 38.18c.53.53 1.225.795 1.919.795.695 0 1.389-.265 1.919-.795l18.387-18.34A3.997 3.997 0 0039 17.008V5a4 4 0 00-4-4zm-1.857 7.357a1.5 1.5 0 11.001-3.001 1.5 1.5 0 01-.001 3.001z" fill="#967a44"></path><path d="M31 39.5c-4.687 0-8.5-3.813-8.5-8.5s3.813-8.5 8.5-8.5 8.5 3.813 8.5 8.5-3.813 8.5-8.5 8.5z" fill="#f78f8f"></path><path d="M31 23c4.411 0 8 3.589 8 8s-3.589 8-8 8-8-3.589-8-8 3.589-8 8-8m0-1a9 9 0 00-9 9c0 4.971 4.029 9 9 9s9-4.029 9-9a9 9 0 00-9-9z" fill="#c74343"></path><path fill="none" stroke="#fff" stroke-width="2" stroke-miterlimit="10" d="M27.5 34.5l7-7M27.5 27.5l7 7"></path></svg>