<svg viewBox="0 0 40 40" xmlns="http://www.w3.org/2000/svg"><path d="M7 38.5A4.505 4.505 0 012.5 34V5.5h13V34c0 1.858.926 3.504 2.341 4.5H7z" fill="#e1ebf2"></path><path d="M15 6v28c0 1.535.58 2.938 1.532 4H7c-2.206 0-4-1.794-4-4V6h12m1-1H2v29a5 5 0 005 5h14a5 5 0 01-5-5V5z" fill="#788b9c"></path><path d="M7.5 38.5v-.027c2.247-.25 4-2.16 4-4.473V1.5h26V34c0 2.481-2.019 4.5-4.5 4.5H7.5z" fill="#fff"></path><path d="M37 2v32c0 2.206-1.794 4-4 4H9.997A4.997 4.997 0 0012 34V2h25m1-1H11v33a4 4 0 01-4 4v1h26a5 5 0 005-5V1z" fill="#788b9c"></path><path fill="#788b9c" d="M16 6h17v3H16zM26 12h7v1h-7zM26 15h7v1h-7zM26 18h7v1h-7zM6 11h5v1H6zM6 14h5v1H6zM6 17h5v1H6zM6 20h5v1H6zM6 23h5v1H6zM6 26h5v1H6zM6 29h5v1H6zM6 32h5v1H6zM16 12h7v1h-7zM16 15h7v1h-7zM16 18h7v1h-7zM16 21h7v1h-7zM16 24h7v1h-7zM16 27h7v1h-7zM16 30h7v1h-7zM16 33h7v1h-7z"></path><path d="M38 34s-3.134 4-7 4a7 7 0 110-14c3.866 0 7 5 7 5v5z" fill="#fff"></path><g fill="#c5d4de"><path d="M22.059 30h-1.008c-.033.329-.051.662-.051 1h1c0-.338.022-.671.059-1zM37 23.019V34c.359.322.696.668 1 1.044V23.871c-.313-.307-.65-.588-1-.852zM21.461 28h1.062c.122-.344.263-.677.424-1h-1.106a9.85 9.85 0 00-.38 1zM25.349 38h-1.478c.357.364.746.694 1.155 1h1.864a8.962 8.962 0 01-1.541-1zM22.523 34a8.84 8.84 0 01-.292-1h-1.029c.069.34.157.673.26 1h1.061z"></path></g><g><path d="M31 39.5c-4.687 0-8.5-3.813-8.5-8.5s3.813-8.5 8.5-8.5a8.43 8.43 0 016.003 2.497l.354.354 2.143-2.144V29.5h-6.293l2.024-2.024-.353-.354A5.446 5.446 0 0031 25.5c-3.032 0-5.5 2.467-5.5 5.5s2.468 5.5 5.5 5.5a5.502 5.502 0 004.895-3h3.226a8.449 8.449 0 01-8.121 6z" fill="#8bb7f0"></path><path d="M31 23c2.131 0 4.137.835 5.649 2.35l.707.709.708-.708.936-.937V29h-4.586l.817-.817.706-.706-.705-.707A5.945 5.945 0 0031 25c-3.308 0-6 2.692-6 6s2.692 6 6 6a5.999 5.999 0 005.191-3h2.223A7.945 7.945 0 0131 39c-4.411 0-8-3.589-8-8s3.589-8 8-8m9-1l-2.643 2.643A8.952 8.952 0 0031 22c-4.971 0-9 4.029-9 9s4.029 9 9 9c4.282 0 7.859-2.993 8.769-7h-4.191A4.998 4.998 0 0126 31a5 5 0 015-5c1.381 0 2.621.57 3.524 1.476L32 30h8v-8z" fill="#4e7ab5"></path></g></svg>