<svg viewBox="0 0 40 40" xmlns="http://www.w3.org/2000/svg"><path d="M16.5 33.5h-7c-4.71 0-8-2.878-8-7v-12c0-4.411 3.589-8 8-8h3v4h-3c-2.206 0-4 1.794-4 4v11c0 2.206 1.794 4 4 4h7v-3.45l6.707 5.45-6.707 5.45V33.5zm11 0v-4h3c2.206 0 4-1.794 4-4v-11c0-2.206-1.794-4-4-4h-7v3.45L16.793 8.5 23.5 3.05V6.5h7c4.411 0 8 3.589 8 8v11c0 4.411-3.589 8-8 8h-3z" fill="#8bb7f0"></path><path d="M23 4.101V7h7.5c4.135 0 7.5 3.364 7.5 7.5v11c0 4.136-3.365 7.5-7.5 7.5H28v-3h2.5c2.481 0 4.5-2.019 4.5-4.5v-11c0-2.481-2.019-4.5-4.5-4.5H23v2.899L17.586 8.5 23 4.101M12 7v3H9.5A4.505 4.505 0 005 14.5v11C5 27.981 7.019 30 9.5 30H17v-2.899l5.414 4.399L17 35.899V33H9.5C5.084 33 2 30.327 2 26.5v-12C2 10.364 5.365 7 9.5 7H12m12-5l-8 6.5 8 6.5v-4h6.5c1.93 0 3.5 1.57 3.5 3.5v11c0 1.93-1.57 3.5-3.5 3.5H27v5h3.5c4.687 0 8.5-3.813 8.5-8.5v-11C39 9.813 35.187 6 30.5 6H24V2zM13 6H9.5C4.813 6 1 9.813 1 14.5v12C1 31.187 4.813 34 9.5 34H16v4l8-6.5-8-6.5v4H9.5C7.57 29 6 27.43 6 25.5v-11C6 12.57 7.57 11 9.5 11H13V6z" fill="#4e7ab5"></path></svg>