<svg viewBox="0 0 40 40" xmlns="http://www.w3.org/2000/svg"><path d="M20 37.5c-9.649 0-17.5-7.851-17.5-17.5S10.351 2.5 20 2.5 37.5 10.351 37.5 20 29.649 37.5 20 37.5z" fill="#d1edff"></path><path d="M20 3c9.374 0 17 7.626 17 17s-7.626 17-17 17S3 29.374 3 20 10.626 3 20 3m0-1C10.059 2 2 10.059 2 20s8.059 18 18 18 18-8.059 18-18S29.941 2 20 2z" fill="#4e7ab5"></path><path fill="none" d="M0 0h40v40H0z"></path><g fill="#d1edff"><path d="M24 23v2h13.281c.188-.652.334-1.32.449-2H24zM23.161 27v4.2h10.555c.339-.338.663-.6.974-.821A18.014 18.014 0 0036.588 27H23.161zM24 15v2h13.73c-.114-.68-.26-1.348-.449-2H24zM24 21h13.949c.019-.333.051-.662.051-1s-.032-.667-.051-1H24v2zM16 25v-2H2.27c.114.68.26 1.348.449 2H16zM16 19H2.051c-.019.333-.051.662-.051 1s.032.667.051 1H16v-2zM5.31 9.621A17.952 17.952 0 003.412 13h13.426V8.8H6.284c-.339.338-.663.6-.974.821zM16 15H2.719c-.188.652-.334 1.32-.449 2H16v-2z"></path></g><path fill="#8bb7f0" d="M5.5 10.5V3.207l7.293 7.293z"></path><path d="M6 4.414L11.586 10H6V4.414M5 2v9h9L5 2z" fill="#4e7ab5"></path><g><path fill="#8bb7f0" d="M27.207 29.5H34.5v7.293z"></path><path d="M34 30v5.586L28.414 30H34m1-1h-9l9 9v-9z" fill="#4e7ab5"></path></g></svg>