<svg viewBox="0 0 40 40" xmlns="http://www.w3.org/2000/svg"><path fill="#a59dd1" d="M2.707 13L12.5 3.207v19.586z"></path><path d="M12 4.414v17.172L3.414 13 12 4.414M13 2L2 13l11 11V2z" fill="#8b75a1"></path><g><path d="M32.5 37.5V18c0-1.379-1.122-2.5-2.5-2.5h-9.5v7.293L10.707 13 20.5 3.207V10.5H30c4.136 0 7.5 3.364 7.5 7.5v19.5h-5z" fill="#dcd5f2"></path><path d="M20 4.414V11h10c3.86 0 7 3.14 7 7v19h-4V18c0-1.654-1.346-3-3-3H20v6.586L11.414 13 20 4.414M21 2L10 13l11 11v-8h9a2 2 0 012 2v20h6V18a8 8 0 00-8-8h-9V2z" fill="#8b75a1"></path></g></svg>