<svg viewBox="0 0 40 40" xmlns="http://www.w3.org/2000/svg"><path fill="#ffeea3" d="M1.5 1.5h37v27h-37z"></path><path d="M2 2h36v26H2V2M1 1v28h38V1H1z" fill="#ba9b48"></path><path d="M38.321 7.372l-15.748 8.48a5.429 5.429 0 01-5.147 0L1.678 7.372" fill="#ffeea3" stroke="#ba9b48" stroke-miterlimit="10"></path><path d="M19.235 28H2v-1.631l-1 .808V29h18.918a8.056 8.056 0 00-.683-1z" fill="#ffeea3"></path><g><path d="M15.5 38.5V33c0-1.379-1.122-2.5-2.5-2.5H8.5v3.445l-6.707-5.481L8.5 23.047V26.5H13c3.584 0 6.5 2.916 6.5 6.5v5.5h-4z" fill="#dcd5f2"></path><path d="M8 24.093V27h5c3.308 0 6 2.692 6 6v5h-3v-5c0-1.654-1.346-3-3-3H8v2.891l-5.414-4.425L8 24.093M9 22l-8 6.462L9 35v-4h4a2 2 0 012 2v6h5v-6a7 7 0 00-7-7H9v-4z" fill="#8b75a1"></path></g></svg>