<svg viewBox="0 0 40 40" xmlns="http://www.w3.org/2000/svg"><path fill="#ffeea3" d="M1.5 1.5h37v27h-37z"></path><path d="M2 2h36v26H2V2M1 1v28h38V1H1z" fill="#ba9b48"></path><path d="M38.321 7.372l-15.748 8.48a5.429 5.429 0 01-5.147 0L1.678 7.372" fill="#ffeea3" stroke="#ba9b48" stroke-miterlimit="10"></path><path d="M24.235 28H2v-1.631l-1 .808V29h23.918a8.056 8.056 0 00-.683-1z" fill="#ffeea3"></path><path fill="#a59dd1" d="M1.793 28.5L8.5 23.051v10.898z"></path><path d="M8 24.101v8.798L2.586 28.5 8 24.101M9 22l-8 6.5L9 35V22z" fill="#8b75a1"></path><g><path d="M20.5 38.5V33c0-1.379-1.122-2.5-2.5-2.5h-4.5v3.445l-6.707-5.481 6.707-5.417V26.5H18c3.584 0 6.5 2.916 6.5 6.5v5.5h-4z" fill="#dcd5f2"></path><path d="M13 24.093V27h5c3.308 0 6 2.692 6 6v5h-3v-5c0-1.654-1.346-3-3-3h-5v2.891l-5.414-4.425L13 24.093M14 22l-8 6.462L14 35v-4h4a2 2 0 012 2v6h5v-6a7 7 0 00-7-7h-4v-4z" fill="#8b75a1"></path></g></svg>