<svg viewBox="0 0 40 40" xmlns="http://www.w3.org/2000/svg"><path fill="#e1ebf2" d="M2.5 1.5h35v36h-35z"></path><path d="M37 2v35H3V2h34m1-1H2v37h36V1z" fill="#788b9c"></path><path fill="#fff" d="M26.5 4.5h8v8h-8z"></path><path d="M34 5v7h-7V5h7m1-1h-9v9h9V4z" fill="#788b9c"></path><path fill="#fff" d="M5.5 4.5h18v8h-18z"></path><path d="M23 5v7H6V5h17m1-1H5v9h19V4z" fill="#788b9c"></path><path fill="#4e7ab5" d="M8 8h13v1H8z"></path><path fill="none" stroke="#c74343" stroke-miterlimit="10" d="M28.462 7.34L30.5 9.314l1.978-1.974"></path><path fill="#fff" d="M26.5 15.5h8v8h-8z"></path><path d="M34 16v7h-7v-7h7m1-1h-9v9h9v-9z" fill="#788b9c"></path><path fill="#fff" d="M5.5 15.5h18v8h-18z"></path><path d="M23 16v7H6v-7h17m1-1H5v9h19v-9z" fill="#788b9c"></path><path fill="#4e7ab5" d="M8 19h13v1H8z"></path><path fill="none" stroke="#c74343" stroke-miterlimit="10" d="M28.462 18.34l2.038 1.974 1.978-1.974"></path><g><path fill="#fff" d="M26.5 26.5h8v8h-8z"></path><path d="M34 27v7h-7v-7h7m1-1h-9v9h9v-9z" fill="#788b9c"></path></g><g><path fill="#fff" d="M5.5 26.5h18v8h-18z"></path><path d="M23 27v7H6v-7h17m1-1H5v9h19v-9z" fill="#788b9c"></path></g><g><path fill="#4e7ab5" d="M8 30h13v1H8z"></path></g><path fill="none" stroke="#c74343" stroke-miterlimit="10" d="M28.462 29.34l2.038 1.974 1.978-1.974"></path></svg>