<svg viewBox="0 0 40 40" xmlns="http://www.w3.org/2000/svg"><path fill="#ffeea3" d="M38.293 3.122L3.121 38.293 1.707 36.88 36.879 1.707z"></path><path d="M36.879 2.414l.707.707L3.121 37.586l-.707-.707L36.879 2.414m0-1.414L1 36.879 3.121 39 39 3.121 36.879 1z" fill="#f5c276"></path><path d="M13.36 35.5a2.51 2.51 0 01-1.787-.74L5.24 28.427a2.507 2.507 0 01-.74-1.786c0-.676.263-1.31.74-1.787l3.083-3.084 3.947-1.333 8.166-8.166 1.333-3.947 3.084-3.083a2.507 2.507 0 011.787-.74c.675 0 1.309.263 1.786.74l6.333 6.333c.478.478.74 1.111.74 1.787 0 .675-.263 1.309-.74 1.786l-3.032 3.084-3.998 1.332-8.167 8.167-1.332 3.998-3.081 3.029c-.48.48-1.114.743-1.789.743z" fill="#99c99e"></path><path d="M26.64 5c.541 0 1.05.211 1.433.594l6.333 6.333c.383.382.594.891.594 1.433s-.211 1.05-.6 1.439l-2.945 2.995-3.772 1.257-.224.075-.167.167-8 8-.167.167-.075.224-1.257 3.772-3.001 2.951c-.382.382-.891.593-1.432.593s-1.05-.211-1.433-.594l-6.333-6.333C5.211 27.691 5 27.182 5 26.64s.211-1.05.594-1.433l3.001-3.001 3.725-1.258.222-.075.165-.165 8-8 .165-.165.075-.222 1.258-3.725 3.001-3.001A2.015 2.015 0 0126.64 5m0-1c-.775 0-1.549.296-2.14.887l-3.166 3.166L20 12l-8 8-3.947 1.333L4.887 24.5a3.027 3.027 0 000 4.281l6.333 6.333c.59.59 1.365.886 2.14.886s1.549-.296 2.14-.887L18.667 32 20 28l8-8 4-1.333 3.113-3.166a3.027 3.027 0 000-4.281L28.78 4.887A3.015 3.015 0 0026.64 4z" fill="#5e9c76"></path><path d="M11.927 34.406c.382.383.891.594 1.433.594s1.05-.211 1.433-.594l3.001-2.951.165-.496-8.908-8.908-.457.154-3.001 3.001C5.211 25.59 5 26.099 5 26.64s.211 1.05.594 1.433l6.333 6.333z" fill="#84b788"></path><path fill="#bae0bd" d="M19.126 27.46l.167-.167-6.586-6.586-.165.165-.222.075-3.268 1.105 8.907 8.907 1.092-3.275z"></path><path fill="#84b788" d="M31.536 17.712L22.089 8.94l-1.142 3.38-.074.222-.166.165 6.586 6.586.167-.167.224-.075 3.772-1.257z"></path><path d="M35 13.36c0-.541-.211-1.05-.594-1.433l-6.333-6.333C27.691 5.211 27.182 5 26.64 5s-1.05.211-1.433.594l-3.001 3.001-.114.337 9.477 8.748 2.832-2.88c.388-.39.599-.899.599-1.44z" fill="#bae0bd"></path></svg>