<svg viewBox="0 0 40 40" xmlns="http://www.w3.org/2000/svg"><path fill="#dbf2ff" d="M2.5 38.5V10.266l17.497-6.73 17.503 6.73V38.5z"></path><path d="M19.997 4.071L37 10.61V38H3V10.61l16.997-6.539m0-1.071L2 9.923V39h36V9.923L19.997 3z" fill="#7496c4"></path><path fill="#dbf2ff" d="M19.997 5.458L1.5 13.247V9.332l18.497-7.79L38.5 9.332v3.915z"></path><path d="M19.997 2.085L38 9.664v2.83L20.385 5.078l-.388-.163-.388.163L2 12.494v-2.83l17.997-7.579m0-1.085L1 9v5l18.997-8L39 14V9L19.997 1z" fill="#7496c4"></path><g><path d="M12.434 32.5a1.92 1.92 0 01-1.367-.566 1.907 1.907 0 01-.565-1.42 1.915 1.915 0 01.643-1.387l10.801-9.972-.135-.323c-.5-1.2-.209-2.39.843-3.441 1.131-1.131 2.88-1.891 4.353-1.891.55 0 1.317.112 1.851.645 1.335 1.335.431 4.527-1.246 6.204-.719.718-1.491 1.083-2.296 1.083-.378 0-.763-.081-1.146-.241l-.322-.135-9.969 10.794a1.94 1.94 0 01-1.445.65z" fill="#dcd5f2"></path><path d="M27.004 14c.456 0 1.086.086 1.497.498.475.475.62 1.359.396 2.425-.238 1.133-.852 2.281-1.642 3.071-.621.621-1.274.936-1.942.936a2.47 2.47 0 01-.952-.202l-.646-.27-.475.514-9.74 10.549a1.41 1.41 0 01-1.067.479c-.383 0-.742-.149-1.013-.42a1.42 1.42 0 01-.419-1.053c.011-.398.18-.763.489-1.039l10.538-9.729.514-.475-.27-.646c-.422-1.011-.175-1.985.734-2.894C24.033 14.717 25.677 14 27.004 14m0-1c-1.603 0-3.489.82-4.706 2.037-1.305 1.305-1.479 2.718-.95 3.987L10.81 28.753a2.433 2.433 0 103.437 3.436l9.729-10.538c.432.181.882.279 1.338.279.882 0 1.789-.369 2.649-1.229 1.877-1.877 2.81-5.346 1.246-6.911-.55-.549-1.336-.79-2.205-.79z" fill="#8b75a1"></path></g><g><path d="M27.589 32.5a1.92 1.92 0 01-1.427-.637l-5.99-6.488-.318.125c-.196.078-.4.117-.608.117-.416 0-.805-.159-1.093-.447l-5.497-5.497a4.495 4.495 0 01-.334-5.973l2.474 2.474 14.062 12.983c.401.359.627.847.642 1.377a1.894 1.894 0 01-.56 1.406 1.9 1.9 0 01-1.351.56z" fill="#dcd5f2"></path><path d="M12.391 14.477l2.079 2.079 14.059 12.98c.292.261.459.621.47 1.013.011.392-.136.76-.413 1.038a1.403 1.403 0 01-.998.413c-.407 0-.781-.167-1.063-.482l-5.753-6.231-.464-.503-.637.251a1.164 1.164 0 01-.426.082 1.04 1.04 0 01-.74-.301l-5.496-5.496a3.96 3.96 0 01-1.168-2.819c0-.724.192-1.418.55-2.024m-.089-1.503a4.985 4.985 0 000 7.052l5.496 5.496c.395.395.916.594 1.447.594.267 0 .536-.05.792-.151l5.753 6.231a2.406 2.406 0 001.798.804 2.412 2.412 0 001.608-4.21L15.149 15.821l-2.847-2.847z" fill="#8b75a1"></path></g></svg>