<svg viewBox="0 0 40 40" xmlns="http://www.w3.org/2000/svg"><path fill="#b0c1d4" d="M5.5 19.5h2v15h-2z"></path><path d="M7 20v14H6V20h1m1-1H5v16h3V19z" fill="#66798f"></path><path fill="#b0c1d4" d="M32.5 19.5h2v15h-2z"></path><path d="M34 20v14h-1V20h1m1-1h-3v16h3V19z" fill="#66798f"></path><path fill="#f78f8f" d="M.5 5.5h39v14H.5z"></path><path d="M39 6v13H1V6h38m1-1H0v15h40V5z" fill="#c74343"></path><path fill="#fff" d="M11 6L1 19h2.667l10-13zM19 6L9 19h2.667l10-13zM27 6L17 19h2.667l10-13zM35 6L25 19h2.667l10-13zM1 12.143L5.667 6H3L1 8.714zM39 11.277L33 19h2.667L39 14.706z"></path></svg>