<svg viewBox="0 0 40 40" xmlns="http://www.w3.org/2000/svg"><path d="M20 38.5C9.799 38.5 1.5 30.201 1.5 20A18.452 18.452 0 017.948 6.001l.409-.351-4.15-4.15H16.5v12.293l-3.874-3.874-.35.274C9.241 12.583 7.5 16.157 7.5 20c0 6.893 5.607 12.5 12.5 12.5S32.5 26.893 32.5 20c0-5.153-3.2-9.789-8-11.647V2.059c8.148 2.04 14 9.487 14 17.941 0 10.201-8.299 18.5-18.5 18.5z" fill="#8bb7f0"></path><path d="M16 2V12.586l-2.707-2.707-.628-.628-.697.549C8.811 12.285 7 16.002 7 20c0 7.168 5.832 13 13 13s13-5.832 13-13c0-5.244-3.186-9.973-8-11.985V2.712C32.603 4.911 38 11.991 38 20c0 9.925-8.075 18-18 18S2 29.925 2 20C2 14.77 4.287 9.806 8.274 6.381l.818-.703-.763-.763L5.414 2H16m1-1H3l4.622 4.622C3.574 9.1 1 14.241 1 20c0 10.493 8.507 19 19 19s19-8.507 19-19c0-9.12-6.429-16.732-15-18.57V8.7c4.653 1.653 8 6.087 8 11.3 0 6.617-5.383 12-12 12S8 26.617 8 20c0-3.819 1.797-7.218 4.586-9.414L17 15V1z" fill="#4e7ab5"></path></svg>