<svg viewBox="0 0 40 40" xmlns="http://www.w3.org/2000/svg"><path fill="#fff" d="M5.5 1.5h29v37h-29z"></path><path d="M34 2v36H6V2h28m1-1H5v38h30V1z" fill="#788b9c"></path><path fill="none" stroke="#c5d4de" stroke-miterlimit="10" d="M23 11.5h6M23 15.5h6M23 19.5h6M11 23.5h18M11 27.5h18M11 31.5h18"></path><circle cx="16" cy="11" r="2.5" fill="#ffeea3"></circle><path d="M16 9c1.103 0 2 .897 2 2s-.897 2-2 2-2-.897-2-2 .897-2 2-2m0-1a3 3 0 100 6 3 3 0 000-6z" fill="#ba9b48"></path><g><path d="M11.528 19.5c.25-2.247 2.16-4 4.472-4s4.223 1.753 4.472 4h-8.944z" fill="#c2e8ff"></path><path d="M16 16a4.007 4.007 0 013.873 3h-7.747A4.01 4.01 0 0116 16m0-1a5 5 0 00-5 5h10a5 5 0 00-5-5z" fill="#7496c4"></path></g></svg>