<svg viewBox="0 0 40 40" xmlns="http://www.w3.org/2000/svg"><path d="M24.405 20.771c.646-1.188.949-2.402.906-3.631-.101-2.912-2.115-5.258-3.787-6.713l-.352-.307-2.672 2.673V4.5h8.293l-2.32 2.32.379.353c1.6 1.493 3.506 3.803 3.506 6.327-.001 3.228-2.129 5.724-3.953 7.271z" fill="#8bb7f0"></path><path d="M25.586 5l-1.1 1.1-.732.732.756.706c1.25 1.167 3.347 3.493 3.347 5.962 0 2.132-.997 3.935-2.195 5.332a7.079 7.079 0 00.149-1.71c-.107-3.092-2.212-5.553-3.959-7.073l-.704-.612-.66.66L19 11.586V5h6.586M28 4H18v10l3.196-3.196c2.537 2.208 6.227 6.844.875 12.196 0 0 6.786-3.5 6.786-9.5 0-2.749-2.079-5.213-3.664-6.693L28 4z" fill="#4e7ab5"></path><path d="M37.368 11.682L33.9 24.395a1.503 1.503 0 01-1.447 1.105H11.911" fill="none" stroke="#5e9c76" stroke-linecap="round" stroke-miterlimit="10"></path><path d="M2 1.5h2.119A4.305 4.305 0 018.36 5.067l4.498 25.866a4.305 4.305 0 004.241 3.567H34" fill="none" stroke="#66798f" stroke-miterlimit="10"></path><circle cx="2" cy="3" r="1.5" fill="#bae0bd"></circle><path d="M2 2c.551 0 1 .449 1 1s-.449 1-1 1-1-.449-1-1 .449-1 1-1m0-1a2 2 0 10-.001 3.999A2 2 0 002 1z" fill="#5e9c76"></path><g><circle cx="30.5" cy="36.5" r="2" fill="#b0c1d4"></circle><path d="M30.5 35c.827 0 1.5.673 1.5 1.5s-.673 1.5-1.5 1.5-1.5-.673-1.5-1.5.673-1.5 1.5-1.5m0-1a2.5 2.5 0 100 5 2.5 2.5 0 000-5z" fill="#66798f"></path></g><g><circle cx="17.5" cy="36.5" r="2" fill="#b0c1d4"></circle><path d="M17.5 35c.827 0 1.5.673 1.5 1.5s-.673 1.5-1.5 1.5-1.5-.673-1.5-1.5.673-1.5 1.5-1.5m0-1a2.5 2.5 0 100 5 2.5 2.5 0 000-5z" fill="#66798f"></path></g></svg>