<svg viewBox="0 0 40 40" xmlns="http://www.w3.org/2000/svg"><path fill="#99c99e" d="M9.513 38.5L6.416 19.983l4.146-6.463 3.436 24.98z"></path><path d="M10.251 14.93L13.424 38H9.936L6.941 20.09l3.31-5.16m.622-2.821l-4.982 7.766L9.089 39h5.482l-3.698-26.891z" fill="#5e9c76"></path><path d="M1.539 38.5L3.14 17.033a7.61 7.61 0 014.005-6.165l8.077-4.337a6.725 6.725 0 019.364 3.275l4.155 9.694h-5.696l-2.776-6.557-11.273 6.84L6.002 38.5H1.539z" fill="#bae0bd"></path><path d="M18.397 6.228a6.226 6.226 0 015.73 3.775L27.983 19h-4.606l-2.421-5.719-.451-1.065-.989.6-10.582 6.42-.396.24-.073.457L5.576 38H2.077l1.561-20.93a7.108 7.108 0 013.744-5.761l8.077-4.338a6.149 6.149 0 012.938-.743m0-1c-1.151 0-2.32.276-3.411.862l-8.077 4.338a8.143 8.143 0 00-4.268 6.568L1 39h5.429l3.025-18.909 10.582-6.42L22.714 20H29.5L25.046 9.609a7.226 7.226 0 00-6.649-4.381z" fill="#5e9c76"></path><circle cx="30.857" cy="6.429" r="4.928" fill="#ffeea3"></circle><path d="M30.857 2c2.442 0 4.429 1.987 4.429 4.429s-1.987 4.429-4.429 4.429-4.429-1.987-4.429-4.429S28.415 2 30.857 2m0-1a5.429 5.429 0 100 10.858 5.429 5.429 0 000-10.858z" fill="#ba9b48"></path><path d="M24 38.5a.5.5 0 01-.5-.5V22.5h-1v-3h16v3h-1V38a.5.5 0 01-.5.5H24z" fill="#dcd5f2"></path><path d="M38 20v2h-1v16H24V22h-1v-2h15m1-1H22v4h1v15a1 1 0 001 1h13a1 1 0 001-1V23h1v-4z" fill="#8b75a1"></path><path fill="#8b75a1" d="M38 22v1H23v-1zM30 25h1v11h-1zM34 25h1v11h-1zM26 25h1v11h-1z"></path></svg>