<svg viewBox="0 0 40 40" xmlns="http://www.w3.org/2000/svg"><path d="M4 37.5c-.827 0-1.5-.673-1.5-1.5V13.207L13.207 2.5H36c.827 0 1.5.673 1.5 1.5v32c0 .827-.673 1.5-1.5 1.5H4z" fill="#99c99e"></path><path d="M36 3c.551 0 1 .449 1 1v32c0 .551-.449 1-1 1H4c-.551 0-1-.449-1-1V13.414L13.414 3H36m0-1H13L2 13v23a2 2 0 002 2h32a2 2 0 002-2V4a2 2 0 00-2-2z" fill="#5e9c76"></path><path fill="#e1efe2" d="M23 23h-6v-3l3-3h3z"></path><path fill="#e1efe2" d="M37 33H7V16l9-9h17v21H12V18l6-6h10v11h-8v-2h6v-7h-7l-5 5v7h17V9H17l-8 8v14h28z"></path></svg>