<svg viewBox="0 0 40 40" xmlns="http://www.w3.org/2000/svg"><circle cx="20" cy="19.992" r="2" fill="#4e7ab5"></circle><path d="M20 2.992c9.374 0 17 7.626 17 17s-7.626 17-17 17-17-7.626-17-17 7.626-17 17-17m0-2c-10.493 0-19 8.507-19 19s8.507 19 19 19 19-8.507 19-19c0-10.494-8.507-19-19-19z" fill="#c2e8ff"></path><path d="M20.008 9c6.065 0 11 4.935 11 11s-4.935 11-11 11-11-4.935-11-11 4.935-11 11-11m0-2c-7.18 0-13 5.82-13 13s5.82 13 13 13 13-5.82 13-13-5.82-13-13-13z" fill="#8bb7f0"></path><path d="M20.008 15c2.757 0 5 2.243 5 5s-2.243 5-5 5-5-2.243-5-5 2.243-5 5-5m0-2a7 7 0 100 14 7 7 0 000-14z" fill="#7496c4"></path><path d="M23 38.5c-.827 0-1.5-.673-1.5-1.5v-8.793l6.707-6.707H37c.827 0 1.5.673 1.5 1.5v14c0 .827-.673 1.5-1.5 1.5H23z" fill="#99c99e"></path><path d="M37 22c.551 0 1 .449 1 1v14c0 .551-.449 1-1 1H23c-.551 0-1-.449-1-1v-8.586L28.414 22H37m0-1h-9l-7 7v9a2 2 0 002 2h14a2 2 0 002-2V23a2 2 0 00-2-2z" fill="#5e9c76"></path><path fill="#e1efe2" d="M32 32h-4v-2l2-2h2z"></path><path fill="#e1efe2" d="M31 31h4v1h-4z"></path><path fill="#e1efe2" d="M34 25h1v7h-1z"></path><path fill="#e1efe2" d="M35 26h-7l1-1h6zM25 34h13v1H25z"></path><path fill="#e1efe2" d="M26 35h-1v-6l1-1z"></path><path fill="#e1efe2" d="M28.977 25L25 28.89v1.398L30.407 25z"></path></svg>