<svg viewBox="0 0 40 40" xmlns="http://www.w3.org/2000/svg"><path d="M28.5 27.497l-.492-.008C13.583 27.262 1.812 16.998 1.506 4.5h5.002c.316 9.735 9.832 17.753 21.482 17.979l.51.01v-7.282L38.293 25 28.5 34.793v-7.296z" fill="#dcd5f2"></path><path d="M6.031 5c.617 9.779 10.226 17.751 21.949 17.979l1.02.019V16.413L37.586 25 29 33.586v-6.581l-.984-.015C14.057 26.77 2.63 16.998 2.025 5h4.006M7 4H1c0 13.088 12.067 23.754 27 23.989V36l11-11-11-11v7.979C16.377 21.753 7 13.784 7 4z" fill="#8b75a1"></path></svg>