<svg viewBox="0 0 40 40" xmlns="http://www.w3.org/2000/svg"><path d="M1.506 35.5c.306-12.498 12.077-22.762 26.501-22.989l.492-.008V5.207L38.293 15 28.5 24.793v-7.282l-.51.01C16.339 17.747 6.824 25.765 6.508 35.5H1.506z" fill="#dcd5f2"></path><path d="M29 6.414L37.586 15 29 23.586V17.001l-1.019.02C16.258 17.249 6.649 25.221 6.032 35H2.025c.605-11.998 12.032-21.77 25.991-21.989l.984-.015V6.414M28 4v8.011C13.067 12.246 1 22.912 1 36h6c0-9.784 9.377-17.753 21-17.979V26l11-11L28 4z" fill="#8b75a1"></path></svg>