<svg viewBox="0 0 40 40" xmlns="http://www.w3.org/2000/svg"><path d="M20 6C11.163 6 4 13.163 4 22s7.163 16 16 16 16-7.163 16-16S28.837 6 20 6zm0 28c-6.627 0-12-5.373-12-12s5.373-12 12-12 12 5.373 12 12-5.373 12-12 12z" fill="#ffeea3" stroke="#ba9b48" stroke-miterlimit="2"></path><path fill-rule="evenodd" clip-rule="evenodd" fill="#c2e8ff" d="M13.667 4.002L15.892 1.5h8.006l2.423 2.516L20 11.241z"></path><path d="M23.686 2l1.957 2.032L20 10.481l-5.667-6.476L16.116 2h7.57m.425-1h-8.444L13 4l7 8 7-8-2.889-3z" fill="#4e7ab5"></path><path fill="none" stroke="#4e7ab5" stroke-linecap="round" stroke-linejoin="round" stroke-miterlimit="2" d="M16.5 1.5L20 4l3.5-2.5"></path><g><path fill-rule="evenodd" clip-rule="evenodd" fill="#ffeea3" d="M14.102 4.5h11.73l-5.834 6.738z"></path><path d="M24.737 5l-4.741 5.477L15.204 5h9.533m2.189-1H13l7 8 6.926-8z" fill="#ba9b48"></path></g></svg>