<svg viewBox="0 0 40 40" xmlns="http://www.w3.org/2000/svg"><path d="M20 4C9.507 4 1 10.268 1 18s8.507 14 19 14 19-6.268 19-14S30.493 4 20 4zm0 19c-7.732 0-14-3.582-14-8s6.268-8 14-8 14 3.582 14 8-6.268 8-14 8z" fill="#ffeea3" stroke="#ba9b48" stroke-miterlimit="2"></path><path d="M32.5 18.5s5-4-2-12M7.5 18.5s-5-4 2-12" fill="none" stroke="#ba9b48" stroke-miterlimit="2"></path><ellipse cx="20" cy="27" rx="9" ry="8" fill="#c2e8ff"/><path d="M28 28h-4l-2-3h-4l-3.217-3.821s6.753-3.247 10.136-.042C29 25 28 28 28 28z" fill="#d6f0ff"></path><path d="M14 22c-.028.057.769-1.304.769-1.304l2.714 4.1-1.979 3.647 1.591 2.603 5.308.182 1.244 2.969-8.312-.353s-3.93-2.149-4.269-6.079S14 22 14 22z" fill="#a4d6f5"></path><path d="M20 20c4.411 0 8 3.14 8 7s-3.589 7-8 7-8-3.14-8-7 3.589-7 8-7m0-1c-4.971 0-9 3.582-9 8s4.029 8 9 8 9-3.582 9-8-4.029-8-9-8z" fill="#4e7ab5"></path><path d="M22.084 25l1.758 3.143L22.108 31h-4.216l-1.735-2.857L17.916 25h4.168m.587-1H17.33L15 28.163 17.329 32h5.341L25 28.163 22.671 24z" fill="#4e7ab5"></path><path fill="none" stroke="#4e7ab5" stroke-linejoin="round" stroke-miterlimit="10" d="M22 25l3-4"></path><path fill="none" stroke="#4e7ab5" stroke-linecap="round" stroke-linejoin="round" stroke-miterlimit="10" d="M22.5 31.5l1 2"></path><path fill="none" stroke="#4e7ab5" stroke-linejoin="round" stroke-miterlimit="10" d="M28.5 28.5h-4"></path><path fill="none" stroke="#4e7ab5" stroke-linecap="round" stroke-linejoin="round" stroke-miterlimit="10" d="M17.512 24.64L15 21M17.5 31.5l-1 2"></path><path fill="none" stroke="#4e7ab5" stroke-linejoin="round" stroke-miterlimit="10" d="M11.5 28.5h4"></path></svg>