<svg viewBox="0 0 40 40" xmlns="http://www.w3.org/2000/svg"><path fill="#b0c1d4" d="M5.5 38.5V26L9.41 6.5h21.18l3.92 19.598L34.5 38.5z"></path><path d="M30.18 7L34 26.099V38H6V26.099L9.82 7h20.36M31 6H9L5 26v13h30V26L31 6z" fill="#66798f"></path><path fill="#e1ebf2" d="M34 26H6L9.819 7h20.36z"></path><path fill="#b0c1d4" d="M14.5 22.5v-3h2.075l.901-18h5.048l.901 18H25.5v3z"></path><path d="M22.049 2l.852 17.05.048.95H25v2H15v-2h2.051l.048-.95L17.951 2h4.098M23 1h-6l-.9 18H14v4h12v-4h-2.1L23 1z" fill="#66798f"></path><path fill="#ffeea3" d="M17 31h1v7h-1zM22 31h1v7h-1zM26 31h1v7h-1zM13 31h1v7h-1zM9 31h1v7H9zM30 31h1v7h-1z"></path></svg>