<svg viewBox="0 0 40 40" xmlns="http://www.w3.org/2000/svg"><circle cx="20" cy="7" r="5.5" fill="#f78f8f"></circle><path d="M20 2c2.757 0 5 2.243 5 5s-2.243 5-5 5-5-2.243-5-5 2.243-5 5-5m0-1a6 6 0 100 12 6 6 0 000-12z" fill="#c74343"></path><path fill="#fff" d="M17 6h6v2h-6z"></path><path fill="#f5ce85" d="M4.5 20.821h4V38.5h-4z"></path><path d="M8 21.321V38H5V21.321h3m1-1H4V39h5V20.321z" fill="#967a44"></path><path fill="#f5ce85" d="M8.5 30.5h23v3h-23z"></path><path d="M31 31v2H9v-2h22m1-1H8v4h24v-4z" fill="#967a44"></path><path fill="#f5ce85" d="M31.5 20.821h4V38.5h-4z"></path><path d="M35 21.321V38h-3V21.321h3m1-1h-5V39h5V20.321z" fill="#967a44"></path><path fill="#f78f8f" d="M1.5 12.5h37v9h-37z"></path><path d="M38 13v8H2v-8h36m1-1H1v10h38V12z" fill="#c74343"></path><path fill="#fff" d="M10.308 13h-2.77L2 21h2.769zM17.231 13h-2.769l-5.539 8h2.769zM24.154 13h-2.769l-5.539 8h2.769zM31.077 13h-2.769l-5.539 8h2.769zM38 13h-2.769l-5.539 8h2.77zM36.615 21H38v-2zM3.385 13H2v2z"></path></svg>