<svg viewBox="0 0 40 40" xmlns="http://www.w3.org/2000/svg"><path fill="none" stroke="#66798f" stroke-miterlimit="10" d="M4.796 14.775l24.655 16.431"></path><path d="M14.447 38.5l-.966-8.69-3.671-4.896L5.631 38.5H1.64l4.81-19.363 5.378-7.348-3.381-1.229-3.901 5.194a1.68 1.68 0 01-1.371.717 1.65 1.65 0 01-.988-.327 1.659 1.659 0 01-.378-2.287L6.32 7.508a2.215 2.215 0 012.344-.897l5.77 1.956c.325.081.587.201.819.37.463.336 1.176.916 1.93 1.529.876.714 1.782 1.452 2.492 1.969.443.323.75.801.862 1.343l2.87 11.653a1.71 1.71 0 01-.319 1.363c-.3.395-.754.641-1.248.675l-.121.005a1.724 1.724 0 01-1.676-1.356l-2.432-9.284-4.233 5.135 4.136 6.203.938 10.328h-4.005z" fill="#bae0bd"></path><path d="M8.144 7.049c.122 0 .244.013.364.039l5.765 1.953.042.014.044.011c.219.053.421.146.601.277.451.327 1.157.902 1.905 1.512.882.718 1.794 1.461 2.515 1.986.344.25.58.619.675 1.077l2.858 11.597c.071.349-.008.697-.223.98a1.202 1.202 0 01-.97.481c-.569 0-1.068-.404-1.198-1.005l-2.179-8.317-.495-1.891-1.244 1.508-3.375 4.094-.472.573.412.618 3.859 5.789.877 9.655h-3.01l-.901-8.11-.03-.271-.164-.219-3-4-1.178-1.571-.578 1.877L5.261 38H2.279l4.632-18.647 4.927-6.731.787-1.075-1.252-.455-2.406-.875-.697-.254-.445.592-3.697 4.922a1.167 1.167 0 01-1.645.264 1.159 1.159 0 01-.271-1.59l4.522-6.364a1.718 1.718 0 011.41-.738m0-1c-.877 0-1.717.426-2.231 1.169l-4.515 6.355a2.164 2.164 0 003.548 2.483l3.68-4.899 2.406.875-5.043 6.89L1 39h5l4-13 3 4 1 9h5l-1-11-4-6 3.375-4.094 2.179 8.317a2.217 2.217 0 004.339-.91l-2.866-11.635a2.7 2.7 0 00-1.057-1.646c-1.32-.961-3.415-2.769-4.422-3.498a2.697 2.697 0 00-.953-.439l-5.814-1.97a2.725 2.725 0 00-.637-.076z" fill="#5e9c76"></path><circle cx="21.999" cy="5.999" r="4.5" fill="#ffeea3"></circle><path d="M21.998 2A4.004 4.004 0 0126 5.998 4.006 4.006 0 0121.998 10 4.004 4.004 0 0118 5.998 4.002 4.002 0 0121.998 2m0-1a5 5 0 10.003 10 5 5 0 00-.003-10z" fill="#ba9b48"></path><path d="M21.514 38.5c.187-3.474 2.243-6.905 2.856-7 .382 0 .641.207.939.446.325.26.692.554 1.229.554 1.081 0 1.817-1.388 2.671-2.995.711-1.339 1.596-3.005 2.415-3.005 1.722 0 6.602 6.017 6.865 12H21.514z" fill="#f5ce85"></path><path d="M31.625 27c1.271 0 5.819 5.431 6.329 11H22.057c.303-2.758 1.739-5.493 2.416-5.989.145.031.279.129.524.325.35.28.829.663 1.541.663 1.381 0 2.184-1.511 3.113-3.261.472-.888 1.455-2.738 1.974-2.738m0-1c-2.112 0-3.426 6-5.086 6-.78 0-1.125-1-2.176-1C23.262 31 21 35.375 21 39h18c0-6.147-5.179-13-7.375-13z" fill="#967a44"></path><g><path fill="#66798f" d="M18.851 23.541L5.837 14.868l-.602.801 13.998 9.328z"></path></g><path fill="#bae0bd" d="M14 22l.261-.316-6.92-4.612-.641.876 8.275 5.514z"></path></svg>