<svg viewBox="0 0 40 40" xmlns="http://www.w3.org/2000/svg"><circle cx="30.5" cy="7.5" r="3" fill="#ffeea3"></circle><path d="M30.5 5C31.878 5 33 6.121 33 7.5S31.878 10 30.5 10 28 8.879 28 7.5 29.122 5 30.5 5m0-1a3.5 3.5 0 100 7 3.5 3.5 0 000-7z" fill="#ba9b48"></path><circle cx="9.5" cy="7.5" r="3" fill="#ffeea3"></circle><path d="M9.5 5C10.878 5 12 6.121 12 7.5S10.878 10 9.5 10 7 8.879 7 7.5 8.122 5 9.5 5m0-1a3.5 3.5 0 100 7 3.5 3.5 0 000-7z" fill="#ba9b48"></path><path fill="#f5ce85" d="M4.5 17.821h3V35.5h-3z"></path><path d="M7 18.321V35H5V18.321h2m1-1H4V36h4V17.321z" fill="#967a44"></path><path fill="#f5ce85" d="M7.5 29.5h25v2h-25z"></path><path d="M32 30v1H8v-1h24m1-1H7v3h26v-3z" fill="#967a44"></path><path fill="#f5ce85" d="M32.5 17.821h3V35.5h-3z"></path><path d="M35 18.321V35h-2V18.321h2m1-1h-4V36h4V17.321z" fill="#967a44"></path><path fill="#f78f8f" d="M1.5 10.5h37v8h-37z"></path><path d="M38 11v7H2v-7h36m1-1H1v9h38v-9z" fill="#c74343"></path><path fill="#fff" d="M10.308 11h-2.77L2 18h2.769zM17.231 11h-2.769l-5.539 7h2.769zM24.154 11h-2.769l-5.539 7h2.769zM31.077 11h-2.769l-5.539 7h2.769zM38 11h-2.769l-5.539 7h2.77zM36.615 18H38v-2zM3.385 11H2v2z"></path></svg>