<svg viewBox="0 0 40 40" xmlns="http://www.w3.org/2000/svg"><path fill="#36404d" d="M19 7h2v7h-2z"></path><circle cx="20" cy="13" r="2.5" fill="#4b6477"></circle><path d="M20 11c1.103 0 2 .897 2 2s-.897 2-2 2-2-.897-2-2 .897-2 2-2m0-1a3 3 0 100 6 3 3 0 000-6z" fill="#36404d"></path><path fill="#b0c1d4" d="M12.5 1.5h15v7h-15z"></path><path d="M27 2v6H13V2h14m1-1H12v8h16V1z" fill="#66798f"></path><path d="M19 38.5a2.502 2.502 0 01-2.5-2.5v-7.5h7V36c0 1.379-1.121 2.5-2.5 2.5h-2z" fill="#b0c1d4"></path><path d="M23 29v7c0 1.103-.897 2-2 2h-2c-1.103 0-2-.897-2-2v-7h6m1-1h-8v8a3 3 0 003 3h2a3 3 0 003-3v-8z" fill="#66798f"></path><circle cx="23" cy="5" r="1" fill="#4b6477"></circle><circle cx="17" cy="5" r="1" fill="#4b6477"></circle><path d="M12 30.5c-.656 0-1.222-.49-1.314-1.141L9.498 13.962 9.5 12.5h21V14l-1.188 15.393c-.09.617-.656 1.107-1.312 1.107H12z" fill="#e1ebf2"></path><path d="M30 13v.961l-1.185 15.354A.833.833 0 0128 30H12a.833.833 0 01-.815-.685L10 13.961V13h20m1-1H9v2l1.191 15.431c.128.9.899 1.569 1.809 1.569h16c.91 0 1.681-.669 1.809-1.569L31 14v-2z" fill="#66798f"></path><path fill="#66798f" d="M15 18h10v6H15z"></path><path fill="none" stroke="#66798f" stroke-width="2" stroke-miterlimit="10" d="M9 14l-4 9.658"></path><circle cx="9" cy="14" r="1.5" fill="#4b6477"></circle><path d="M9 13c.551 0 1 .449 1 1s-.449 1-1 1-1-.449-1-1 .449-1 1-1m0-1a2 2 0 10-.001 3.999A2 2 0 009 12z" fill="#36404d"></path><path fill="#66798f" d="M21 32h3v1h-3zM21 36h2v1h-2zM21 34h3v1h-3zM16 32h3v1h-3zM17 36h2v1h-2zM16 34h3v1h-3zM5 23a3 3 0 013 3v1H7v-1c0-1.103-.897-2-2-2s-2 .897-2 2v1H2v-1a3 3 0 013-3z"></path><path fill="none" stroke="#66798f" stroke-width="2" stroke-miterlimit="10" d="M31 14l4 9.658"></path><path d="M35 23a3 3 0 00-3 3v1h1v-1c0-1.103.897-2 2-2s2 .897 2 2v1h1v-1a3 3 0 00-3-3z" fill="#66798f"></path><g><circle cx="31" cy="14" r="1.5" fill="#4b6477"></circle><path d="M31 13c.551 0 1 .449 1 1s-.449 1-1 1-1-.449-1-1 .449-1 1-1m0-1a2 2 0 10-.001 3.999A2 2 0 0031 12z" fill="#36404d"></path></g></svg>