<svg viewBox="0 0 40 40" xmlns="http://www.w3.org/2000/svg"><path fill="#b0c1d4" d="M26.802 11.905l2.167-2.167 5.892 6.968-2.37 1.841z"></path><path d="M28.938 10.476l5.203 6.155-1.581 1.229-5.078-5.929 1.456-1.455M29 9l-2.879 2.879 6.301 7.356 3.156-2.453L29 9z" fill="#66798f"></path><path fill="#b0c1d4" d="M32.5 18.5h3v6h-3z"></path><path d="M35 19v5h-2v-5h2m1-1h-4v7h4v-7z" fill="#66798f"></path><circle cx="34" cy="18" r="1.5" fill="#4b6477"></circle><path d="M34 17c.551 0 1 .449 1 1s-.449 1-1 1-1-.449-1-1 .449-1 1-1m0-1a2 2 0 10-.001 3.999A2 2 0 0034 16z" fill="#36404d"></path><path d="M34 24a3 3 0 013 3v1h-1v-1c0-1.103-.897-2-2-2s-2 .897-2 2v1h-1v-1a3 3 0 013-3z" fill="#66798f"></path><path fill="#4b6477" d="M14.5 4.5h11v2h-11z"></path><path d="M25 5v1H15V5h10m1-1H14v3h12V4z" fill="#36404d"></path><path fill="#b0c1d4" d="M5.14 16.706l5.891-6.968 2.167 2.167-5.689 6.642z"></path><path d="M11.062 10.476l1.455 1.455-5.078 5.929-1.581-1.229 5.204-6.155M11 9l-6.578 7.781 3.156 2.453 6.301-7.356L11 9z" fill="#66798f"></path><path fill="#b0c1d4" d="M15.5 1.5h9v8h-9z"></path><path d="M24 2v7h-8V2h8m1-1H15v9h10V1z" fill="#66798f"></path><path fill="#b0c1d4" d="M13.5 23.5h4v15h-4z"></path><path d="M17 24v14h-3V24h3m1-1h-5v16h5V23z" fill="#66798f"></path><path fill="#b0c1d4" d="M4.5 18.5h3v6h-3z"></path><path d="M7 19v5H5v-5h2m1-1H4v7h4v-7z" fill="#66798f"></path><circle cx="15.5" cy="30.5" r="2" fill="#4b6477"></circle><path d="M15.5 29c.827 0 1.5.673 1.5 1.5s-.673 1.5-1.5 1.5-1.5-.673-1.5-1.5.673-1.5 1.5-1.5m0-1a2.5 2.5 0 100 5 2.5 2.5 0 000-5z" fill="#36404d"></path><path fill="#b0c1d4" d="M22.5 23.5h4v15h-4z"></path><path d="M26 24v14h-3V24h3m1-1h-5v16h5V23z" fill="#66798f"></path><circle cx="24.5" cy="30.5" r="2" fill="#4b6477"></circle><path d="M24.5 29c.827 0 1.5.673 1.5 1.5s-.673 1.5-1.5 1.5-1.5-.673-1.5-1.5.673-1.5 1.5-1.5m0-1a2.5 2.5 0 100 5 2.5 2.5 0 000-5z" fill="#36404d"></path><circle cx="6" cy="18" r="1.5" fill="#4b6477"></circle><path d="M6 17c.551 0 1 .449 1 1s-.449 1-1 1-1-.449-1-1 .449-1 1-1m0-1a2 2 0 10-.001 3.999A2 2 0 006 16z" fill="#36404d"></path><path fill="#66798f" d="M12 38h7v1h-7zM21 38h7v1h-7z"></path><g><path fill="#e1ebf2" d="M11.5 9.5h17v14h-17z"></path><path d="M28 10v13H12V10h16m1-1H11v15h18V9z" fill="#66798f"></path></g><g><path fill="#36404d" d="M15 13h10v7H15z"></path></g><path fill="#bae0bd" d="M21 17h1v3h-1zM17 18h1v2h-1zM19 16h1v4h-1zM23 15h1v5h-1z"></path><circle cx="22" cy="5" r="1" fill="#4b6477"></circle><circle cx="18" cy="5" r="1" fill="#4b6477"></circle><path d="M6 24a3 3 0 00-3 3v1h1v-1c0-1.103.897-2 2-2s2 .897 2 2v1h1v-1a3 3 0 00-3-3z" fill="#66798f"></path></svg>