<svg viewBox="0 0 40 40" xmlns="http://www.w3.org/2000/svg"><path d="M13.001 38.499c-.273-.011-.273-.011-.337-.321-.063-.31-.16-.776-.634-1.131-.567-.43-1.271-.438-1.893-.444-.237-.003-.468-.003-.679-.035-.652-.095-1.326-.229-1.986-.36l-.509-.101c-2.39-.471-3.413-1.798-3.129-4.06.139-1.12-.067-1.719-.306-2.413a9.454 9.454 0 01-.375-1.323c-.06-.3-.129-.609-.199-.927-.322-1.44-.687-3.073-.257-4.414.212-.663.607-1.202 1.025-1.771.339-.461.688-.938.946-1.495.443-.958.14-1.847-.129-2.63-.143-.415-.277-.808-.323-1.22a17.603 17.603 0 00-.186-1.177c-.175-.976-.355-1.985-.158-2.812.194-.813.699-1.222 1.339-1.738.237-.192.482-.392.726-.62.645-.607 1.158-1.3 1.653-1.969 1.048-1.414 1.953-2.636 3.849-2.933.452-.07.961-.105 1.561-.105h5.108c2.154 0 3.923-.495 5.734-1.604l.422-.267c.787-.503 1.767-1.128 2.638-1.128.288 0 .547.067.792.207l.053.03.724.196c2.426.646 3.884 1.188 3.677 3.256-.179 1.769.373 2.656 2.107 3.392 1.251.53 1.847.9 1.898 1.993.011.249-.07.552-.155.873-.14.527-.298 1.124-.092 1.707.133.383.394.621.603.812.115.104.215.195.279.293.304.453.552 1.213.673 1.728.16.666-.203 1.72-.645 2.417-.111.178-.219.337-.321.487-.597.882-1.112 1.644-.353 3.166.121.245.237.469.348.679.467.896.775 1.488.899 2.63.07.64.105 1.16.11 1.639.011.975-.11 1.8-.37 2.522-.309.862-.989 1.321-1.777 1.853-.738.497-1.502 1.012-2.003 1.91-.759 1.366-1.852 1.655-3.563 1.97-.749.14-1.499.243-2.249.347-1.146.158-2.33.321-3.499.613-.501.124-1.049.224-1.586.321-.386.07-.767.14-1.123.216-1.106.235-2.026.533-2.917.821-1.527.493-2.846.92-4.722.92l-.493.003-.196-.003z" fill="#e1ebf2"></path><path d="M26.902 2.001c.202 0 .374.045.544.141l.107.061.118.033c.221.062.445.122.671.182 2.479.66 3.472 1.091 3.308 2.722-.2 1.988.475 3.082 2.41 3.904 1.202.509 1.557.775 1.593 1.552.008.174-.067.454-.138.724-.151.568-.338 1.274-.082 1.997.176.506.515.815.74 1.02.083.075.168.153.202.205.211.315.457.957.6 1.565.109.451-.147 1.344-.583 2.034a16.2 16.2 0 01-.311.471c-.598.884-1.276 1.885-.387 3.667.123.249.241.475.353.689.456.876.732 1.405.846 2.455.068.622.102 1.126.107 1.589.01.914-.102 1.682-.34 2.348-.253.707-.842 1.104-1.586 1.606-.751.506-1.601 1.079-2.161 2.083-.631 1.134-1.505 1.406-3.217 1.721-.734.137-1.494.241-2.228.343-1.158.16-2.355.326-3.548.623-.482.12-1.029.219-1.558.316-.39.071-.775.141-1.134.218-1.131.241-2.065.542-2.967.834-1.487.481-2.772.896-4.568.896l-.187.001-.306.002h-.06c-.074-.348-.226-.919-.802-1.35-.701-.533-1.529-.542-2.194-.548a5.024 5.024 0 01-.614-.029c-.637-.092-1.316-.228-1.973-.359l-.497-.101c-2.14-.42-2.982-1.502-2.73-3.508.153-1.234-.081-1.915-.329-2.637-.125-.363-.254-.737-.358-1.258a38.52 38.52 0 00-.202-.936c-.323-1.446-.656-2.942-.268-4.154.187-.586.559-1.092.953-1.629.353-.48.717-.977.996-1.579.529-1.141.175-2.173-.109-3.003-.133-.389-.259-.756-.299-1.113-.044-.39-.118-.805-.19-1.207-.166-.927-.338-1.885-.165-2.61.148-.619.502-.928 1.166-1.466.232-.187.494-.4.756-.646.676-.638 1.203-1.348 1.712-2.035 1.023-1.38 1.83-2.47 3.525-2.736C11.943 5.033 12.428 5 13 5h5.109c2.253 0 4.101-.518 5.996-1.679.135-.083.277-.174.425-.268.733-.469 1.645-1.052 2.372-1.052m0-1c-1.19 0-2.413.909-3.322 1.468C21.813 3.553 20.128 4 18.109 4H13c-.563 0-1.116.03-1.638.112-3.07.482-3.834 3.211-5.766 5.031-.927.871-1.896 1.299-2.209 2.607-.31 1.296.193 2.902.333 4.16.147 1.306 1.055 2.377.495 3.584-.545 1.179-1.575 2.014-1.994 3.325-.567 1.773.097 3.862.442 5.591.325 1.625.87 2.005.675 3.576-.329 2.617.966 4.109 3.529 4.612.828.163 1.691.346 2.518.466.734.109 1.706-.101 2.345.384.754.564.093 1.508 1.249 1.551.051.002.13.003.219.003.178 0 .394-.003.493-.003 3.076 0 4.778-1.121 7.743-1.752.857-.184 1.857-.326 2.725-.542 1.895-.472 3.811-.598 5.718-.953 1.741-.32 3.041-.657 3.908-2.218.955-1.714 3.137-1.944 3.815-3.837.31-.864.41-1.769.4-2.697a17.291 17.291 0 00-.113-1.687c-.166-1.52-.653-2.18-1.297-3.478-.743-1.49-.088-1.988.649-3.163.46-.727.918-1.926.709-2.799-.137-.583-.408-1.389-.741-1.887-.243-.368-.673-.547-.829-.996-.266-.753.309-1.657.275-2.437-.07-1.466-1.048-1.941-2.203-2.43-1.516-.644-1.962-1.321-1.805-2.883.293-2.917-2.42-3.326-4.704-3.966a2.049 2.049 0 00-1.039-.273z" fill="#788b9c"></path><g><path d="M13.002 38.499c-.273-.011-.273-.011-.337-.321-.063-.31-.16-.776-.634-1.131-.566-.43-1.271-.438-1.892-.444-.237-.003-.468-.003-.678-.035a38.789 38.789 0 01-1.99-.361l-.507-.1c-2.172-.428-3.215-1.563-3.174-3.464.264.288.569.558.939.788.516.322 1.173.485 1.954.485 2.959 0 7.123-2.337 8.329-3.054.452-.268.811-.393 1.128-.393.125 0 .243.02.361.058.148.049.28.143.434.252.264.188.592.421 1.076.421.056 0 .113-.003.173-.01 1.134-.119 2.146-1.28 2.528-1.773.585-.752.527-1.293.466-1.866-.02-.185-.043-.391-.045-.637-.01-1.265.895-2.088 2.688-2.446.891-.177 1.255-.41 1.76-.733.149-.096.318-.204.526-.327.351-.209.814-.348 1.306-.496.366-.11.746-.225 1.092-.374 2.522-1.101 2.147-2.941 1.547-4.732-.352-1.044-.159-1.733.085-2.605.173-.618.368-1.317.362-2.203-.003-.537-.122-1.003-.237-1.453-.084-.329-.164-.641-.195-.97-.045-.468.05-.879.15-1.313.071-.306.145-.621.175-.972.105-1.255-.218-4.256-1.364-6.202 2.089.589 3.31 1.198 3.119 3.104-.179 1.769.373 2.656 2.107 3.392 1.251.53 1.847.9 1.898 1.993.011.249-.07.552-.155.873-.14.527-.298 1.124-.092 1.707.133.383.394.621.603.812.115.104.215.195.279.293.304.453.552 1.213.673 1.728.16.666-.203 1.72-.645 2.417-.111.178-.219.337-.321.487-.597.882-1.112 1.644-.353 3.166.121.245.237.469.348.679.467.896.775 1.488.899 2.63.144 1.301.225 2.812-.26 4.161-.309.862-.989 1.321-1.777 1.853-.738.497-1.502 1.012-2.003 1.91-.759 1.366-1.852 1.655-3.563 1.97-.749.14-1.499.243-2.249.347-1.146.158-2.33.321-3.499.613-.501.124-1.049.224-1.586.321-.386.07-.767.14-1.123.216-1.106.235-2.026.533-2.917.821-1.527.493-2.846.92-4.722.92l-.493.003-.194-.005z" fill="#b0c1d4"></path><path d="M29.984 2.913c1.276.471 1.787 1.021 1.666 2.227-.2 1.988.475 3.082 2.41 3.904 1.202.509 1.557.775 1.593 1.552.008.174-.067.454-.138.724-.151.568-.338 1.274-.082 1.997.176.506.515.815.74 1.02.083.075.168.153.202.205.211.315.457.957.6 1.565.109.451-.147 1.344-.583 2.034a16.2 16.2 0 01-.311.471c-.598.884-1.276 1.886-.387 3.667.123.249.241.476.353.689.456.876.732 1.405.846 2.454.144 1.306.215 2.687-.233 3.937-.254.708-.842 1.104-1.587 1.606-.751.506-1.601 1.079-2.161 2.083-.631 1.134-1.505 1.406-3.217 1.721-.734.137-1.494.241-2.228.343-1.158.16-2.355.326-3.548.623-.482.12-1.029.219-1.558.316-.39.071-.775.141-1.134.218-1.131.241-2.065.542-2.967.834-1.487.481-2.772.896-4.568.896l-.187.001-.306.002h-.06c-.074-.348-.226-.919-.802-1.35-.701-.533-1.529-.541-2.194-.548a5.024 5.024 0 01-.614-.029c-.638-.092-1.317-.228-1.975-.359l-.494-.098c-1.406-.276-2.252-.838-2.595-1.759.596.371 1.342.56 2.217.56 2.997 0 7.002-2.184 8.585-3.123.37-.22.647-.323.871-.323.071 0 .138.011.203.032.08.026.183.1.303.185.288.205.722.514 1.366.514.073 0 .149-.004.222-.012 1.279-.136 2.349-1.289 2.872-1.964.71-.912.635-1.61.569-2.226-.018-.171-.04-.361-.042-.587-.003-.37-.012-1.495 2.285-1.953.984-.195 1.403-.464 1.933-.804.145-.093.309-.198.512-.319.296-.176.731-.306 1.19-.445.382-.115.777-.234 1.151-.397 3.153-1.374 2.287-3.96 1.821-5.35-.303-.897-.137-1.49.093-2.311.182-.649.387-1.385.381-2.341-.004-.598-.136-1.115-.252-1.571-.079-.311-.154-.605-.182-.896-.037-.388.045-.743.14-1.155.071-.307.151-.654.186-1.043.075-.87-.079-3.351-.905-5.417m-2.58-1.85c2.016 1.146 2.616 5.688 2.49 7.182-.072.816-.411 1.481-.325 2.378.081.833.426 1.526.431 2.377.014 2.01-1.096 2.964-.421 4.965.597 1.781.849 3.19-1.273 4.114-.767.333-1.764.49-2.452.898-.902.533-1.083.794-2.13 1.002-1.601.319-3.105 1.12-3.091 2.942.009.988.314 1.381-.316 2.191-.49.632-1.352 1.495-2.188 1.583a.94.94 0 01-.117.007c-.557 0-.822-.472-1.356-.648a1.645 1.645 0 00-.516-.082c-.485 0-.949.206-1.382.463-1.562.927-5.403 2.982-8.074 2.982-.649 0-1.228-.121-1.689-.409-.709-.442-1.159-1.046-1.564-1.675-.032.208-.063.422-.092.652-.329 2.617.966 4.109 3.529 4.612.828.163 1.691.346 2.518.466.734.109 1.706-.101 2.345.384.754.564.093 1.508 1.249 1.551.05.002.13.003.218.003.178 0 .394-.003.493-.003 3.076 0 4.778-1.121 7.743-1.752.857-.184 1.857-.326 2.725-.542 1.895-.472 3.811-.598 5.718-.953 1.741-.32 3.041-.657 3.908-2.218.955-1.714 3.136-1.944 3.815-3.837.495-1.381.452-2.868.286-4.383-.166-1.52-.653-2.18-1.297-3.478-.743-1.49-.088-1.988.649-3.163.46-.727.918-1.926.709-2.799-.137-.583-.408-1.389-.741-1.887-.243-.368-.673-.547-.829-.996-.266-.753.309-1.657.275-2.437-.07-1.466-1.048-1.941-2.203-2.43-1.516-.644-1.962-1.321-1.805-2.883.293-2.917-2.42-3.326-4.704-3.966a1.999 1.999 0 00-.536-.211z" fill="#788b9c"></path><path d="M19.89 18.498c-.359-.02-.476-.15-.514-.193-.276-.311-.228-1.066-.185-1.732.027-.429.054-.834.009-1.193-.057-.457-.218-.863-.374-1.257-.162-.409-.315-.795-.326-1.189-.011-.332.24-1.077.433-1.288.144-.157.408-.212.716-.275.346-.072.738-.153 1.085-.411l.15-.113c.442-.334 1.783-1.347 2.476-1.347.143 0 .175.039.212.13.104.247.062.485-.015.854-.106.52-.254 1.231.451 1.888.123.113.24.198.345.272.054.039.126.09.152.117-.005.006-.007.051-.028.138-.029.118-.118.261-.212.412-.163.262-.347.559-.367.934-.024.393.171.679.313.888.044.063.108.158.117.194 0 .098-.156.18-.507.323-.149.061-.29.12-.404.187a8.986 8.986 0 00-2.021 1.621l-.192.213c-.461.514-.769.829-1.251.829l-.063-.002z" fill="#b0c1d4"></path><path d="M23.127 10.046a3.85 3.85 0 01-.06.336c-.109.527-.311 1.507.603 2.358.081.075.161.14.237.198a9.295 9.295 0 01-.067.109c-.175.282-.415.668-.442 1.163-.026.411.11.733.249.971a9.533 9.533 0 00-2.618 1.938l-.197.218c-.422.471-.62.664-.911.664h-.001c-.109-.006-.164-.025-.168-.025-.137-.172-.085-.981-.06-1.369.028-.433.057-.882.006-1.287-.065-.521-.246-.977-.405-1.379-.152-.383-.283-.713-.291-1.022-.004-.205.188-.787.298-.93.055-.045.304-.096.452-.127.378-.078.847-.176 1.279-.497l.16-.12c1.058-.802 1.631-1.098 1.936-1.199M23.36 9c-.944 0-2.466 1.219-2.925 1.557-.561.418-1.403.239-1.873.752-.287.316-.576 1.195-.562 1.639.024.89.596 1.632.704 2.495.15 1.193-.635 3.459 1.16 3.556l.088.001c.83 0 1.281-.629 1.812-1.205a8.606 8.606 0 011.904-1.527c.389-.226 1.162-.337 1.159-.957-.001-.353-.457-.617-.431-1.039.024-.446.458-.819.565-1.251.158-.631-.2-.636-.613-1.016-.873-.813.075-1.63-.315-2.566-.13-.315-.372-.439-.673-.439z" fill="#788b9c"></path><g><path d="M12.944 24.5c-.188 0-.444-.474-.614-.787-.131-.241-.267-.491-.429-.686-.207-.252-.464-.432-.689-.591-.226-.157-.42-.294-.542-.474-.097-.145-.194-.597-.171-.729.018-.09.14-.21.269-.336.173-.17.388-.381.506-.681l.051-.129c.539-1.377.827-1.566.902-1.592.047.063.093.179.165.377.119.326.319.872 1.058.985.114.017.212.02.3.021.013.075.013.151.012.217-.002.213-.005.479.136.73.149.272.402.381.563.445-.034.057-.082.123-.116.171a2.786 2.786 0 00-.174.267 6.367 6.367 0 00-.599 1.686l-.037.196c-.083.446-.138.687-.385.833a.437.437 0 01-.206.077z" fill="#b0c1d4"></path><path d="M12.122 19.497c.189.333.521.704 1.141.836.01.216.05.476.194.732.085.155.189.275.296.369l-.028.05a6.815 6.815 0 00-.643 1.808l-.04.211a3.619 3.619 0 01-.071.328c-.072-.118-.147-.256-.202-.357-.143-.263-.29-.535-.479-.762-.253-.307-.551-.516-.791-.684-.177-.124-.345-.241-.398-.318a1.432 1.432 0 01-.096-.341c.034-.036.078-.079.113-.114.195-.192.462-.454.617-.845l.055-.139c.13-.331.24-.583.332-.774M12.206 18c-.656 0-1.23 1.618-1.398 2.035-.173.437-.711.651-.8 1.108-.052.277.09.863.248 1.101.323.477.903.667 1.262 1.104.416.499.721 1.652 1.427 1.652a.922.922 0 00.461-.144c.516-.307.549-.834.657-1.365.099-.52.305-1.075.549-1.544.143-.269.541-.617.326-.953-.123-.194-.471-.167-.604-.409-.139-.249-.019-.615-.112-.892-.129-.406-.333-.275-.697-.327-.778-.119-.522-.917-1.066-1.283a.45.45 0 00-.253-.083z" fill="#788b9c"></path></g></g></svg>