<svg viewBox="0 0 40 40" xmlns="http://www.w3.org/2000/svg"><path d="M17.5 38.5V6.894l-.043-.097c-.755-1.695-.957-4.247-.957-4.53 0-.313.623-.767 1.6-.767.431 0 .843.096 1.162.269l.238.13.238-.13c.32-.173.732-.269 1.162-.269.977 0 1.6.454 1.6.767 0 .283-.202 2.835-.957 4.53l-.043.097V38.5h-4z" fill="#f5ce85"></path><path d="M20.9 2c.63 0 1.002.221 1.099.326-.019.538-.264 2.812-.912 4.268L21 6.787V38h-3V6.787l-.086-.194c-.648-1.456-.893-3.73-.912-4.268C17.098 2.221 17.47 2 18.1 2c.471 0 .78.13.923.207l.477.26.477-.259C20.12 2.13 20.429 2 20.9 2m0-1c-.54 0-1.028.127-1.4.329A2.966 2.966 0 0018.1 1c-1.16 0-2.1.567-2.1 1.267 0 .436.238 3.022 1 4.733v32h5V7c.762-1.711 1-4.297 1-4.733C23 1.567 22.06 1 20.9 1z" fill="#967a44"></path><path d="M17.5 16.285c-3.623-.549-7-1.511-7-5.285 0-4.487 5.822-5.299 11.518-5.5.255-.032.449-.043.686-.043.288 0 .632.016 1.114.036l.161.008.621-.001a.442.442 0 00.168.045l.247.014C26.843 5.682 29.5 6.694 29.5 8c0 1.288-2.356 2.5-4.183 2.5-1.29 0-2.206-.555-2.883-1.747A.496.496 0 0022 8.5l-.024.001C14.379 8.869 13.5 10.104 13.5 11c0 1.606 1.653 1.938 4 2.287v2.998z" fill="#ffeea3"></path><path d="M22.704 5.958c.285 0 .628.015 1.11.036l.19.007.493-.001c.075.023.154.038.236.043l.122.007.123.007C26.896 6.187 29 7.204 29 8c0 .897-2.031 2-3.683 2-1.106 0-1.861-.461-2.448-1.494A.998.998 0 0022 8l-.049.001C15.593 8.31 13 9.178 13 11c0 1.905 1.706 2.36 4 2.717v1.98c-3.819-.651-6-1.742-6-4.697 0-4.063 5.578-4.808 11.035-5.001.032-.001.065-.004.097-.008.177-.023.348-.033.572-.033m0-1c-.261 0-.476.012-.704.042-5.078.179-12 .849-12 6 0 4.456 4.319 5.346 8 5.863v-4.008c-2.762-.403-4-.66-4-1.855 0-.376.277-1.625 8-2 .622 1.095 1.602 2 3.317 2C27.216 11 30 9.732 30 8c0-1.731-3.058-2.812-4.954-2.94l-.251-.014V5L24 5.001c-.578-.025-.972-.043-1.296-.043z" fill="#ba9b48"></path><path fill="#967a44" d="M17 11h1v7.6h-1z"></path><path d="M17.5 28.827c-2.56-.439-5-1.298-5-3.827 0-2.833 3.516-3.399 6.341-3.854l.321-.053c.415-.067.82-.128 1.208-.186 2.397-.358 4.13-.618 4.13-1.907 0-1.175-1.733-1.854-3-2.193v-3.022c2.182.507 6 1.871 6 5.216 0 3.624-4.193 4.278-7.255 4.756l-.633.101c-.302.049-.68.095-1.079.144-1.309.159-2.273.292-2.771.56a.503.503 0 00-.263.436.496.496 0 00.255.44c.36.203 1.197.405 1.745.523v2.866z" fill="#ffeea3"></path><path d="M22 14.426c2.075.571 5 1.858 5 4.574 0 2.955-3.093 3.678-6.831 4.262l-.639.101c-.296.048-.668.093-1.062.141-1.404.171-2.367.306-2.943.615a.999.999 0 00-.017 1.752c.327.184.932.356 1.491.488v1.862c-2.789-.579-4-1.571-4-3.222 0-2.229 2.565-2.82 5.917-3.361l.325-.053c.413-.067.816-.127 1.201-.185C22.989 21.021 25 20.721 25 19c0-1.332-1.493-2.118-3-2.572v-2.002m-1-1.259v4.029c1.47.346 3 .993 3 1.804 0 1.018-2.245 1.165-4.918 1.599C16.105 21.084 12 21.621 12 25c0 3.317 3.669 4.065 6 4.413v-3.861c-.785-.154-1.695-.38-2-.552.637-.343 2.633-.477 3.692-.65C22.841 23.838 28 23.331 28 19c0-3.531-3.703-5.199-7-5.833z" fill="#ba9b48"></path><path fill="#967a44" d="M17 25h1v5.067h-1zM21 11h1v7.6h-1z"></path><path d="M17.5 38.11c-2.911-.598-3-3.288-3-3.61 0-2.95 3.311-3.679 6.55-4.003A.498.498 0 0021.5 30v-3.299c2.095.586 3 1.595 3 3.299 0 2.281-2.356 2.988-4.902 3.413-.624.104-1.555.259-2.137.443a.499.499 0 00-.197.835c.067.065.146.128.236.188v3.231z" fill="#ffeea3"></path><path d="M22 27.388c1.405.528 2 1.333 2 2.612 0 1.803-1.793 2.471-4.484 2.92-.799.132-1.628.277-2.205.46A1 1 0 0017 35.127v2.319c-1.936-.738-2-2.692-2-2.946 0-2.056 1.767-3.072 6.099-3.505A1 1 0 0022 30v-2.612m-1-1.326V30c-2.813.281-7 .917-7 4.5 0 1.122.621 3.847 4 4.192V34.59a1.548 1.548 0 01-.387-.256c.55-.174 1.462-.327 2.067-.427C21.824 33.549 25 32.876 25 30c0-2.619-2.019-3.501-4-3.938z" fill="#ba9b48"></path><g><path fill="#967a44" d="M21 25h1v5h-1z"></path></g><g><path fill="#967a44" d="M18 38.928h-1v-4.459l1-.25z"></path></g><g><path d="M23.15 38.5c-.525 0-1.083-.013-1.65-.037V35.5h2v2.999l-.35.001z" fill="#ffeea3"></path><path d="M23 36v2a37.81 37.81 0 01-1-.018V36h1m1-1h-3v3.938a38.3 38.3 0 002.15.062l.468-.001H24V35z" fill="#ba9b48"></path></g><g><path fill="#967a44" d="M21 33.933h1V39h-1z"></path></g></svg>