<svg viewBox="0 0 40 40" xmlns="http://www.w3.org/2000/svg"><path fill="#f5ce85" d="M35.5 38.5V19.859l2-.854V38.5z"></path><path d="M37 19.762V38h-1V20.189l1-.427m1-1.514l-3 1.281V39h3V18.248z" fill="#967a44"></path><path fill="#f5ce85" d="M36 37h1v2h-1zM1.5 38.5V17.775a34.32 34.32 0 002 3.97V38.5h-2z"></path><path d="M2 20.039c.297.588.629 1.207 1 1.842V38H2V20.039M1 15v24h3V21.608C1.913 18.103 1 15 1 15z" fill="#967a44"></path><path fill="#f5ce85" d="M2 37h1v2H2zM18.5 38.5V26.821a30.09 30.09 0 002-.653V38.5h-2z"></path><path d="M20 26.873V38h-1V27.196c.344-.104.686-.216 1-.323m1-1.425s-1.69.657-3 .989V39h3V25.448z" fill="#967a44"></path><path fill="#f5ce85" d="M19 37h1v2h-1z"></path><path d="M32.801 14.303S26.2 1.5 15.5 1.5" fill="none" stroke="#8b75a1" stroke-miterlimit="10"></path><circle cx="22.5" cy="15.5" r="2" fill="#f5ce85"></circle><path d="M22.5 14c.827 0 1.5.673 1.5 1.5s-.673 1.5-1.5 1.5-1.5-.673-1.5-1.5.673-1.5 1.5-1.5m0-1a2.5 2.5 0 100 5 2.5 2.5 0 000-5z" fill="#967a44"></path><circle cx="27.5" cy="13.5" r="2" fill="#f5ce85"></circle><path d="M27.5 12c.827 0 1.5.673 1.5 1.5s-.673 1.5-1.5 1.5-1.5-.673-1.5-1.5.673-1.5 1.5-1.5m0-1a2.5 2.5 0 100 5 2.5 2.5 0 000-5z" fill="#967a44"></path><g><circle cx="35.5" cy="10.5" r="2" fill="#f5ce85"></circle><path d="M35.5 9c.827 0 1.5.673 1.5 1.5s-.673 1.5-1.5 1.5-1.5-.673-1.5-1.5.673-1.5 1.5-1.5m0-1a2.5 2.5 0 100 5 2.5 2.5 0 000-5z" fill="#967a44"></path></g><path d="M15.5 1.5c-6.333 0-14 3.573-14 13.628C1.5 21.065 6.416 27.5 13.721 27.5c3.483 0 6.463-1.119 9.55-2.465L39.5 18.148" fill="none" stroke="#8b75a1" stroke-miterlimit="10"></path><g><path d="M34.593 19.124c-.511 0-.975-.368-1.127-.896l-1.356-3.145c-.336-.866.505-1.258.678-1.328a373.511 373.511 0 005.058-2.171l.654-.284v6.18l-3.433 1.526a1.028 1.028 0 01-.474.118z" fill="#f78f8f"></path><path d="M38 12.062v5.093l-3.18 1.415a.496.496 0 01-.227.054c-.237 0-.541-.167-.647-.535l-.018-.061-.025-.058-1.321-3.051c-.15-.387.13-.595.401-.704A353.27 353.27 0 0038 12.062m1-1.524c-2.234.969-4.615 2.012-6.4 2.754-.735.297-1.321 1.035-.95 1.99l1.335 3.086c.224.775.907 1.257 1.608 1.257.229 0 .46-.052.677-.161L39 17.805v-7.267z" fill="#c74343"></path></g><g><path d="M19.907 25.391c-.572-1.119-.665-2.657-.231-4.127.374-1.266 1.087-2.235 1.908-2.591a378.26 378.26 0 008.164-3.687 1.39 1.39 0 01.594-.142c.386 0 .673.187.855.556l1.363 3.053c.227.381.272.765.153 1.108a1.028 1.028 0 01-.611.645l-12.195 5.185z" fill="#f78f8f"></path><path d="M30.342 15.343c.192 0 .31.08.39.242l1.37 3.07.026.058.033.054c.12.197.149.427.079.63a.571.571 0 01-.354.355L20.17 24.735c-.339-.956-.354-2.181-.015-3.33.333-1.126.941-1.976 1.627-2.274a381.248 381.248 0 008.184-3.696.907.907 0 01.376-.092m0-1c-.275 0-.554.069-.805.189a376.394 376.394 0 01-8.152 3.682c-2.258.98-3.321 5.35-1.686 7.809l12.58-5.35c.924-.349 1.294-1.509.738-2.424l-1.37-3.07c-.296-.598-.795-.836-1.305-.836z" fill="#c74343"></path></g><g><path fill="#f78f8f" d="M39 11.634l-1.793.78-.159 5.163L39 16.716z"></path></g></svg>