<svg viewBox="0 0 40 40" xmlns="http://www.w3.org/2000/svg"><path d="M35 38.5c-2.481 0-4.5-2.019-4.5-4.5s2.019-4.5 4.5-4.5 4.5 2.019 4.5 4.5-2.019 4.5-4.5 4.5z" fill="#b0c1d4"></path><path d="M35 30c2.206 0 4 1.794 4 4s-1.794 4-4 4-4-1.794-4-4 1.794-4 4-4m0-1c-2.762 0-5 2.238-5 5s2.238 5 5 5 5-2.238 5-5-2.238-5-5-5z" fill="#95abbf"></path><path d="M25 38.5c-2.481 0-4.5-2.019-4.5-4.5s2.019-4.5 4.5-4.5 4.5 2.019 4.5 4.5-2.019 4.5-4.5 4.5z" fill="#b0c1d4"></path><path d="M25 30c2.206 0 4 1.794 4 4s-1.794 4-4 4-4-1.794-4-4 1.794-4 4-4m0-1c-2.762 0-5 2.238-5 5s2.238 5 5 5 5-2.238 5-5-2.238-5-5-5z" fill="#95abbf"></path><path d="M15 38.5c-2.481 0-4.5-2.019-4.5-4.5s2.019-4.5 4.5-4.5 4.5 2.019 4.5 4.5-2.019 4.5-4.5 4.5z" fill="#b0c1d4"></path><path d="M15 30c2.206 0 4 1.794 4 4s-1.794 4-4 4-4-1.794-4-4 1.794-4 4-4m0-1c-2.762 0-5 2.238-5 5s2.238 5 5 5 5-2.238 5-5-2.238-5-5-5z" fill="#95abbf"></path><path d="M5 38.5C2.519 38.5.5 36.481.5 34s2.019-4.5 4.5-4.5 4.5 2.019 4.5 4.5-2.019 4.5-4.5 4.5z" fill="#b0c1d4"></path><path d="M5 30c2.206 0 4 1.794 4 4s-1.794 4-4 4-4-1.794-4-4 1.794-4 4-4m0-1c-2.762 0-5 2.238-5 5s2.238 5 5 5 5-2.238 5-5-2.238-5-5-5z" fill="#95abbf"></path><path d="M6.155 27.5c-.634-.451-3.655-2.775-3.655-6.143 0-2.821 1.859-5.009 1.878-5.03l.094-.108.022-.142c.456-2.926 1.409-7.866 2.028-8.671l.07-.091.862-4.179C7.688 1.667 8.448 1.5 9 1.5c5.631 0 10.824 1.27 10.875 1.282.044.009.979.181 1.431.839.237.346.303.765.203 1.283L19.43 16.339l14.664 4.814c.202.043 3.406.685 3.406 4.275 0 .664-1.656 2.071-3.5 2.071H6.155z" fill="#8bb7f0"></path><path d="M9 2c5.56 0 10.705 1.255 10.756 1.267l.037.009.028.005c.207.039.803.226 1.075.626.155.228.195.523.119.914l-2 11-.156.857.828.272 14.25 4.679.066.022.068.012c.12.022 2.928.567 2.929 3.745-.071.397-1.383 1.592-3 1.592H6.316C5.536 26.424 3 24.321 3 21.357c0-2.624 1.74-4.683 1.755-4.702l.189-.217.044-.284c.554-3.557 1.45-7.797 1.93-8.442l.14-.182.046-.225.847-4.111C8.141 2 8.679 2 9 2m0-1c-1.241 0-1.844.826-2.036 2.036l-.838 4.066C5.198 8.307 4 16 4 16s-2 2.304-2 5.357C2 25.429 6 28 6 28h28c2.036 0 4-1.554 4-2.571 0-4.071-3.75-4.75-3.75-4.75L20 16l2-11c.445-2.29-2.004-2.703-2.004-2.703S14.757 1 9 1z" fill="#4e7ab5"></path><path d="M10.5 20.5a1.971 1.971 0 01-1.498-.69l-4.469-4.004.962-6.736C5.507 8.88 5.716 5.5 9 5.5c1.729 0 10.009.746 12.223.948l-1.106 6.055A7.675 7.675 0 0020 12.5c-6.062 0-7.474 5.973-7.488 6.033l-.012.054v.056a.937.937 0 01-.08.391c-.281.898-1.045 1.466-1.92 1.466z" fill="#c2e8ff"></path><path d="M9 6c1.59 0 8.851.644 11.632.896l-.933 5.109c-4.956.159-7.185 4.24-7.675 6.419l-.024.108v.111a.431.431 0 01-.039.191l-.022.052-.017.054A1.488 1.488 0 0110.5 20c-.43 0-.828-.185-1.121-.52l-.04-.046-.045-.041-4.227-3.782.924-6.47.006-.048.002-.043C6.016 8.738 6.249 6 9 6m0-1C5.183 5 5 9 5 9l-1 7 4.626 4.139A2.482 2.482 0 0010.5 21a2.491 2.491 0 002.378-1.766c.071-.164.122-.35.122-.591 0 0 1.268-5.643 7-5.643l.531.016L21.813 6S11.036 5 9 5z" fill="#7496c4"></path><circle cx="10.5" cy="18.5" r="1" fill="#66798f"></circle><path d="M10.5 18a.5.5 0 110 1 .5.5 0 010-1m0-1a1.5 1.5 0 10.001 3.001A1.5 1.5 0 0010.5 17z" fill="#36404d"></path><path fill="#7496c4" d="M14.883 22.5l5.261-8.768 3.203 2.403L19.71 22.5z"></path><path d="M20.287 14.465l2.407 1.805L19.42 22h-3.653l4.52-7.535M20 13l-6 10h6l4-7-4-3z" fill="#4e7ab5"></path><g><path fill="#8bb7f0" d="M11.268 10.5l-1.334-2h10.914l-.366 2z"></path><path d="M20.248 9l-.183 1h-8.53l-.667-1h9.38m1.199-1H9l2 3h9.899l.548-3z" fill="#4e7ab5"></path></g><g><path d="M35 35.5c-.827 0-1.5-.673-1.5-1.5v-.098l-.037-.092c-.039-.093-.972-2.31-3.463-2.31s-3.424 2.217-3.463 2.311l-.037.091V34c0 .827-.673 1.5-1.5 1.5s-1.5-.673-1.5-1.5c-.067-.386-1.018-2.286-3.5-2.286-2.504 0-3.447 1.929-3.493 2.204-.007.909-.68 1.582-1.507 1.582s-1.5-.673-1.5-1.5v-.094l-.034-.088c-.037-.094-.933-2.318-3.466-2.318s-3.429 2.224-3.466 2.318l-.034.088V34c0 .827-.673 1.5-1.5 1.5s-1.5-.673-1.5-1.5c0-3.927 2.131-6.025 2.679-6.5h27.636c.541.492 2.686 2.685 2.686 6.5A1.503 1.503 0 0135 35.5z" fill="#66798f"></path><path d="M33.621 28c.65.627 2.379 2.613 2.379 6 0 .551-.449 1-1 1s-1-.449-1-1v-.196l-.074-.182C33.882 33.515 32.823 31 30 31s-3.882 2.515-3.926 2.622l-.074.182V34c0 .551-.449 1-1 1s-1-.449-1-1v-.112l-.025-.109c-.09-.399-1.206-2.565-3.975-2.565-2.669 0-3.879 2.032-3.984 2.607L16 33.91V34c0 .551-.449 1-1 1s-1-.449-1-1v-.188l-.068-.175C13.89 33.529 12.871 31 10 31s-3.89 2.529-3.932 2.637L6 33.812V34c0 .551-.449 1-1 1s-1-.449-1-1c0-3.446 1.731-5.397 2.372-6h27.249M34 27H6s-3 2.264-3 7a2 2 0 104 0s.779-2 3-2c2.22 0 3 2 3 2a2 2 0 104 0c0-.003.74-1.786 3-1.786 2.259 0 2.999 1.781 3 1.786a2 2 0 104 0s.816-2 3-2 3 2 3 2a2 2 0 104 0c0-4.663-3-7-3-7z" fill="#36404d"></path></g><path d="M5 33a1 1 0 100 2 1 1 0 000-2zM15 33a1 1 0 100 2 1 1 0 000-2zM25 33a1 1 0 100 2 1 1 0 000-2zM35 33a1 1 0 100 2 1 1 0 000-2z" fill="#f2faff"></path><g><path d="M25.356 22.5a.858.858 0 01-.766-1.24l1.317-2.793 1.644.539-1.433 3.03a.846.846 0 01-.762.464z" fill="#7496c4"></path><path d="M26.172 19.079l.686.225-1.181 2.498a.357.357 0 01-.479.16c-.176-.088-.248-.303-.15-.5l1.124-2.383m-.528-1.226l-1.501 3.183a1.357 1.357 0 102.428 1.214l1.675-3.542-2.602-.855z" fill="#4e7ab5"></path><g><path d="M29.356 22.5a.858.858 0 01-.766-1.24l.781-1.656 1.643.539-.896 1.894a.847.847 0 01-.762.463z" fill="#7496c4"></path><path d="M29.636 20.216l.685.225-.644 1.362a.357.357 0 01-.658-.048.378.378 0 01.03-.294l.587-1.245m-.528-1.226l-.964 2.045a1.357 1.357 0 002.427 1.215l1.138-2.405-2.601-.855z" fill="#4e7ab5"></path></g></g></svg>