<svg viewBox="0 0 40 40" xmlns="http://www.w3.org/2000/svg"><path d="M19.5 24.523v-1.835c0-.943.659-1.758 1.581-1.956l15.838-3.394a2.001 2.001 0 001.581-1.956V9.5a2 2 0 00-2-2H2" fill="none" stroke="#66798f" stroke-miterlimit="10"></path><path fill="#f78f8f" d="M3.5 1.5h31v12h-31z"></path><path d="M34 2v11H4V2h30m1-1H3v13h32V1z" fill="#c74343"></path><g><path d="M18 38.5c-.827 0-1.5-.673-1.5-1.5V23.5h6V37c0 .827-.673 1.5-1.5 1.5h-3z" fill="#f5c276"></path><path d="M22 24v13c0 .551-.449 1-1 1h-3c-.551 0-1-.449-1-1V24h5m1-1h-7v14a2 2 0 002 2h3a2 2 0 002-2V23z" fill="#c29653"></path></g></svg>