<svg viewBox="0 0 40 40" xmlns="http://www.w3.org/2000/svg"><path fill="#e1ebf2" d="M12.5 2.5h15v7h-15z"></path><path d="M27 3v6H13V3h14m1-1H12v8h16V2z" fill="#788b9c"></path><path d="M14.481 37.5A6.511 6.511 0 008.5 31.519V14.066l-3.375 2.25-4.472-6.261 4.771-4.772A9.438 9.438 0 0112.143 2.5H14.5V3c0 3.033 2.468 5.5 5.5 5.5s5.5-2.467 5.5-5.5v-.5h2.357c2.538 0 4.924.988 6.718 2.782l4.771 4.772-4.472 6.261-3.375-2.25v17.453a6.51 6.51 0 00-5.981 5.981H14.481z" fill="#fff"></path><path d="M27.858 3a8.94 8.94 0 016.364 2.636l4.472 4.472-3.945 5.523-2.194-1.463L31 13.131v17.94A7.018 7.018 0 0025.071 37H14.929A7.018 7.018 0 009 31.071v-17.94l-1.555 1.036-2.194 1.463-3.945-5.523 4.472-4.472A8.944 8.944 0 0112.142 3H14c0 3.308 2.692 6 6 6s6-2.692 6-6h1.858m0-1H25v1a5 5 0 01-10 0V2h-2.858a10.001 10.001 0 00-7.071 2.929L0 10l5 7 3-2v17a6 6 0 016 6h12a6 6 0 016-6V15l3 2 5-7-5.071-5.071A10.001 10.001 0 0027.858 2z" fill="#788b9c"></path><circle cx="18.5" cy="35.5" r=".5" fill="#788b9c"></circle><circle cx="21.5" cy="35.5" r=".5" fill="#788b9c"></circle><path d="M20 21.096c-.72-1.125-1.5-2.55-1.5-3.096 0-.827.673-1.5 1.5-1.5s1.5.673 1.5 1.5c0 .547-.78 1.972-1.5 3.096z" fill="#c2e8ff"></path><path d="M20 17c.551 0 1 .449 1 .999-.008.306-.424 1.177-1 2.148-.576-.97-.992-1.841-1-2.147 0-.551.449-1 1-1m0-1c-1.105 0-2 .895-2 2s2 4 2 4 2-2.895 2-4-.895-2-2-2z" fill="#7496c4"></path><path d="M20 27.5c-.827 0-1.5-.673-1.5-1.5 0-.547.78-1.972 1.5-3.096.72 1.125 1.5 2.55 1.5 3.096 0 .827-.673 1.5-1.5 1.5z" fill="#c2e8ff"></path><path d="M20 23.853c.576.97.992 1.841 1 2.147 0 .551-.449 1-1 1s-1-.449-1-.999c.008-.306.424-1.177 1-2.148M20 22s-2 2.895-2 4 .895 2 2 2 2-.895 2-2-2-4-2-4z" fill="#7496c4"></path><path d="M16.538 25.5a1.508 1.508 0 01-1.302-.75 1.503 1.503 0 01.55-2.049c.143-.083.652-.274 2.298-.274.413 0 .811.013 1.132.027-.614 1.185-1.457 2.572-1.93 2.845a1.495 1.495 0 01-.748.201z" fill="#c2e8ff"></path><path d="M18.083 22.927l.311.002c-.552.983-1.098 1.777-1.358 1.937a1.006 1.006 0 01-1.366-.366 1 1 0 01.365-1.365c.016-.009.402-.208 2.048-.208m0-1c-.985 0-2.076.069-2.547.341a2 2 0 102 3.464C18.492 25.18 20 22 20 22s-.903-.073-1.917-.073z" fill="#7496c4"></path><g><path d="M21.916 21.573c-.413 0-.811-.013-1.132-.027.614-1.185 1.457-2.572 1.93-2.845a1.498 1.498 0 012.05.549 1.503 1.503 0 01-.55 2.049c-.143.082-.652.274-2.298.274z" fill="#c2e8ff"></path><path d="M23.462 19a1 1 0 01.503 1.865c-.016.008-.402.208-2.048.208l-.311-.002c.552-.983 1.098-1.777 1.358-1.937a.984.984 0 01.498-.134m0-1a1.99 1.99 0 00-.998.268C21.508 18.82 20 22 20 22s.903.073 1.917.073c.985 0 2.076-.069 2.547-.341A2 2 0 0023.462 18z" fill="#7496c4"></path></g><g><path d="M23.462 25.5c-.261 0-.52-.069-.748-.201-.473-.273-1.315-1.66-1.93-2.845.321-.015.719-.027 1.132-.027 1.646 0 2.155.192 2.298.274a1.501 1.501 0 01-.752 2.799z" fill="#c2e8ff"></path><path d="M21.917 22.927c1.646 0 2.032.199 2.047.207a1 1 0 01-.999 1.732c-.26-.16-.806-.955-1.358-1.937l.31-.002m0-1C20.903 21.927 20 22 20 22s1.508 3.18 2.464 3.732a2.001 2.001 0 002-3.464c-.471-.272-1.562-.341-2.547-.341z" fill="#7496c4"></path></g><g><path d="M18.084 21.573c-1.646 0-2.155-.192-2.298-.274a1.501 1.501 0 01.752-2.799c.261 0 .52.069.748.201.473.273 1.315 1.66 1.93 2.845-.321.015-.719.027-1.132.027z" fill="#c2e8ff"></path><path d="M16.538 19c.176 0 .344.045.497.134.26.16.806.955 1.358 1.937l-.31.002c-1.646 0-2.032-.199-2.047-.207A1 1 0 0116.538 19m0-1a2.001 2.001 0 00-1.002 3.732c.471.272 1.562.341 2.547.341C19.097 22.073 20 22 20 22s-1.508-3.18-2.464-3.732a1.99 1.99 0 00-.998-.268z" fill="#7496c4"></path></g><g><circle cx="20" cy="22" r="1" fill="#fff"></circle></g></svg>