<svg viewBox="0 0 40 40" xmlns="http://www.w3.org/2000/svg"><path d="M13 15.5c-1.93 0-3.5-1.57-3.5-3.5V4.5h5V10c0 .827.673 1.5 1.5 1.5s1.5-.673 1.5-1.5V4.5h5V10c0 .827.673 1.5 1.5 1.5s1.5-.673 1.5-1.5V4.5h5V12c0 1.93-1.57 3.5-3.5 3.5H13z" fill="#b6c9d6"></path><path d="M30 5v7c0 1.654-1.346 3-3 3H13c-1.654 0-3-1.346-3-3V5h4v5c0 1.103.897 2 2 2s2-.897 2-2V5h4v5c0 1.103.897 2 2 2s2-.897 2-2V5h4m1-1h-6v6a1 1 0 01-2 0V4h-6v6a1 1 0 01-2 0V4H9v8a4 4 0 004 4h14a4 4 0 004-4V4z" fill="#788b9c"></path><g><path d="M9.209 36.811l.441-1.766c.66-.269.876-1.2 1.071-2.038.148-.636.316-1.356.62-1.642C13.893 28.976 16.5 25.638 16.5 19v-3.5h7V19c0 6.634 2.607 9.973 5.158 12.364.305.286.472 1.007.62 1.643.195.838.412 1.77 1.072 2.038l.441 1.766H9.209z" fill="#b6c9d6"></path><path d="M23 16v3c0 6.865 2.841 10.409 5.316 12.729.194.182.363.909.475 1.391.186.799.423 1.821 1.129 2.271l.23.919H9.85l.23-.919c.706-.45.943-1.472 1.129-2.271.105-.452.281-1.209.475-1.39C14.159 29.411 17 25.869 17 19v-3h6m1-1h-8v4c0 6.291-2.421 9.584-5 12-.922.864-.683 3.621-1.759 3.621l-.672 2.69h22.862l-.672-2.69c-1.077 0-.836-2.755-1.759-3.621-2.578-2.417-5-5.711-5-12v-4z" fill="#788b9c"></path><path d="M5.5 38.5V37c0-1.93 1.57-3.5 3.5-3.5h22c1.93 0 3.5 1.57 3.5 3.5v1.5h-29z" fill="#b6c9d6"></path><path d="M31 34c1.654 0 3 1.346 3 3v1H6v-1c0-1.654 1.346-3 3-3h22m0-1H9c-2.2 0-4 1.8-4 4v2h30v-2c0-2.2-1.8-4-4-4z" fill="#788b9c"></path><g><path d="M10 33.5c-.827 0-1.5-.673-1.5-1.5s.673-1.5 1.5-1.5h20c.827 0 1.5.673 1.5 1.5s-.673 1.5-1.5 1.5H10z" fill="#ffeea3"></path><path d="M30 31c.551 0 1 .449 1 1s-.449 1-1 1H10c-.551 0-1-.449-1-1s.449-1 1-1h20m0-1H10c-1.1 0-2 .9-2 2s.9 2 2 2h20c1.1 0 2-.9 2-2s-.9-2-2-2z" fill="#ba9b48"></path></g><g><path d="M15 18.5c-.827 0-1.5-.673-1.5-1.5s.673-1.5 1.5-1.5h10c.827 0 1.5.673 1.5 1.5s-.673 1.5-1.5 1.5H15z" fill="#ffeea3"></path><path d="M25 16c.551 0 1 .449 1 1s-.449 1-1 1H15c-.551 0-1-.449-1-1s.449-1 1-1h10m0-1H15c-1.1 0-2 .9-2 2s.9 2 2 2h10c1.1 0 2-.9 2-2s-.9-2-2-2z" fill="#ba9b48"></path></g></g></svg>