<svg viewBox="0 0 40 40" xmlns="http://www.w3.org/2000/svg"><path fill="#f5ce85" d="M1.5 30.662v-9.045L20.014 8.602 38.5 20.41v10.252L20 38.458z"></path><path d="M20.027 9.204L38 20.684v9.646l-18 7.585L2 30.33v-8.453L20.027 9.204M20 8L1 21.357v9.636L20 39l19-8.007V20.136L20 8z" fill="#967a44"></path><path fill="#b5ddf5" d="M20 22.459l-18.5 7.65V9.338L20 1.542l18.5 7.796v20.771z"></path><path d="M20 2.085L38 9.67v19.691l-17.618-7.286-.382-.157-.382.158L2 29.361V9.67l18-7.585M20 1L1 9.007v21.851L20 23l19 7.857V9.007L20 1z" fill="#7496c4"></path><path fill="#e6f6ff" d="M38 9.667L20 2.084v19.834l18 7.449z"></path><path fill="#ffc49c" d="M24.5 24.32V8.753l9 3.786v15.503z"></path><path d="M25 9.506l8 3.366v14.423l-8-3.308V9.506M24 8v16.654l10 4.135V12.207L24 8z" fill="#a16a4a"></path><g><path fill="#8bb7f0" d="M7.5 13.12l8-3.558v8.461l-8 3.484z"></path><path d="M15 10.331v7.364l-7 3.049v-7.3l7-3.113m1-1.539l-9 4.003v9.476l9-3.92V8.792z" fill="#4e7ab5"></path></g><circle cx="31.5" cy="19.5" r=".5" fill="#a16a4a"></circle></svg>