<svg viewBox="0 0 40 40" xmlns="http://www.w3.org/2000/svg"><path fill="#e1ebf2" d="M1.5 38.5V13.29L20 2.58l18.5 10.71V38.5h-37z"></path><path d="M20 3.16l18 10.42V38H2V13.58L20 3.16M20 2L1 13v26h38V13L20 2z" fill="#66798f"></path><path fill="#a3b7cc" d="M5.5 27.5h29v7h-29z"></path><path d="M34 28v6H6v-6h28m1-1H5v8h30v-8z" fill="#66798f"></path><path fill="#a3b7cc" d="M5.5 17.5h29v7h-29z"></path><path d="M34 18v6H6v-6h28m1-1H5v8h30v-8z" fill="#66798f"></path><circle cx="10" cy="21" r="1.5" fill="#bae0bd"></circle><path d="M10 20a1 1 0 11-1 1 1 1 0 011-1m0-1a2 2 0 102 2 2 2 0 00-2-2z" fill="#5e9c76"></path><circle cx="10" cy="31" r="1.5" fill="#bae0bd"></circle><path d="M10 30a1 1 0 11-1 1 1 1 0 011-1m0-1a2 2 0 102 2 2 2 0 00-2-2z" fill="#5e9c76"></path></svg>