<svg viewBox="0 0 40 40" xmlns="http://www.w3.org/2000/svg"><path d="M20.5 33h-1c0-2.226 2.247-3.109 3.435-3.267l.132.991c-.105.015-2.567.373-2.567 2.276zM20.5 37h-1c0-1.788-2.536-2.126-2.562-2.129l.125-.992c1.188.148 3.437.992 3.437 3.121z" fill="#5e9c76"></path><path d="M16.5.625s7 2 7 6.875h-9s2-2 2-6.875z" fill="#fce4ec"></path><path d="M24 8H13.293l.854-.854C14.163 7.13 16 5.198 16 .625v-.663l.638.183C16.938.23 24 2.308 24 7.5V8zm-8.516-1h7.487c-.376-3.303-4.41-5.103-5.985-5.683-.112 2.886-.914 4.714-1.502 5.683z" fill="#f8bbd0"></path><path d="M12.75 3.625s7.75 1.178 7.75 5.559L13.033 12.5s1.342-5.125-.283-8.875z" fill="#fce4ec"></path><path d="M12.28 13.382l.27-1.011c.014-.049 1.277-4.886-.261-8.553l-.345-.821.881.134C13.159 3.182 21 4.428 21 9.185v.325l-8.72 3.872zm1.242-9.093c.86 2.773.493 5.823.209 7.354l6.252-2.775c-.298-2.867-4.6-4.154-6.461-4.579z" fill="#f8bbd0"></path><path d="M25.5 5V1.5s-8 .5-8 7l8-3.5z" fill="#fce4ec"></path><path d="M17 9.265V8.5c0-6.89 8.384-7.494 8.469-7.499L26 .968v4.359l-9 3.938zm8-7.209c-1.636.221-6.445 1.244-6.956 5.66L25 4.673V2.056z" fill="#f8bbd0"></path><path fill="#7a4f34" d="M23 35h-2V20h-2v4h-2l2 2 .031 14H21v-3z"></path><path fill="#5e9c76" d="M23 35h-2V20h-2v4h-2l2 2 .031 14H21v-3z"></path><path d="M27.495 15.419h.005c0 3.649-3.361 6.081-7.51 6.081-4.019 0-7.51-2.432-7.49-5.721-.021-3.522 1.533-5.468 5.159-7.901 3.051-2.048 8.162-3.642 9.716-4.128-1.554 6.811.125 6.561.12 11.669z" fill="#fce4ec"></path><path d="M19.975 22c-2.473 0-4.842-.901-6.34-2.411-1.079-1.087-1.644-2.405-1.636-3.812-.023-3.938 1.87-5.961 5.371-8.313 3.088-2.077 8.14-3.661 9.801-4.182L28 3.021l-.168.84c-.949 4.171-.671 5.569-.317 7.341.193.969.409 2.054.444 3.717h.01v.5C27.97 19.232 24.608 22 19.975 22zm6.7-17.514c-2.111.679-6.175 2.075-8.749 3.807-3.749 2.521-4.947 4.339-4.928 7.483-.007 1.141.458 2.214 1.345 3.108C15.657 20.209 17.763 21 19.975 21c3.976 0 6.883-2.258 6.994-5.396l-.002-.186c.002-1.853-.218-2.955-.431-4.021-.337-1.69-.632-3.167.139-6.911z" fill="#f8bbd0"></path><path d="M29.014 29.048c-2.139 2.139-6.381 1.366-6.381 1.366s-.773-4.242 1.366-6.381 6.381-1.366 6.381-1.366.773 4.242-1.366 6.381z" fill="#99c99e"></path><path d="M24.408 31c-1.03 0-1.79-.132-1.865-.146l-.34-.062-.062-.339c-.033-.183-.794-4.514 1.505-6.805 2.297-2.292 6.638-1.535 6.824-1.501l.34.062.062.339c.033.183.794 4.514-1.505 6.806C28.003 30.716 25.916 31 24.408 31zm-1.333-1.078c1.02.119 3.998.309 5.585-1.273 1.592-1.587 1.398-4.554 1.277-5.57-1.02-.119-3.997-.311-5.585 1.274-1.587 1.582-1.397 4.551-1.277 5.569z" fill="#5e9c76"></path><path d="M16.038 27.996c2.131 2.131 1.36 6.355 1.36 6.355s-4.225.77-6.355-1.36-1.36-6.355-1.36-6.355 4.225-.771 6.355 1.36z" fill="#99c99e"></path><path d="M15.619 34.99c-1.509 0-3.599-.285-4.966-1.646-2.301-2.29-1.54-6.615-1.506-6.799l.062-.34.342-.062c.183-.034 4.531-.79 6.832 1.499 2.301 2.29 1.54 6.615 1.506 6.799l-.063.34-.342.062c-.073.014-.834.147-1.865.147zm-5.533-7.912c-.12 1.017-.31 3.979 1.278 5.56 1.592 1.583 4.565 1.394 5.587 1.271.12-1.017.31-3.979-1.278-5.56-1.591-1.583-4.566-1.392-5.587-1.271z" fill="#5e9c76"></path></svg>