<svg viewBox="0 0 40 40" xmlns="http://www.w3.org/2000/svg"><path d="M3.001 33.5A1.503 1.503 0 011.5 32V10c0-.827.673-1.5 1.5-1.5h7.777l2.5-4h13.445l2.499 4h7.777c.827 0 1.501.673 1.501 1.5v22c0 .827-.673 1.5-1.5 1.5H3.001z" fill="#dcd5f2"></path><path d="M26.446 5l2.206 3.53.293.47h8.054c.265 0 .516.105.706.295.19.19.295.44.295.705v22c0 .551-.449 1-1 1H3.001a.994.994 0 01-.706-.295A.992.992 0 012 32V10c0-.551.449-1 1-1h8.054l.294-.47L13.554 5h12.892M27 4H13l-2.5 4H3c-1.1 0-2 .9-2 2v22c0 1.1.901 2 2.001 2H37c1.1 0 2-.9 2-2V10c0-1.1-.901-2-2.001-2h-7.5L27 4z" fill="#8b75a1"></path><path fill="#8b75a1" d="M4 7h5v2H4zM24 19l4 5 4-5z"></path><path d="M20 27a7 7 0 117-7h2c0-4.971-4.029-9-9-9s-9 4.029-9 9a9 9 0 009 9v-2z" fill="#8b75a1"></path></svg>