<svg viewBox="0 0 40 40" xmlns="http://www.w3.org/2000/svg"><path d="M3.5 38.5c-1.103 0-2-.897-2-2v-19c0-1.103.897-2 2-2h33c1.103 0 2 .897 2 2v19c0 1.103-.897 2-2 2h-33z" fill="#f2faff"></path><path d="M36.5 16c.827 0 1.5.673 1.5 1.5v19c0 .827-.673 1.5-1.5 1.5h-33c-.827 0-1.5-.673-1.5-1.5v-19c0-.827.673-1.5 1.5-1.5h33m0-1h-33A2.5 2.5 0 001 17.5v19A2.5 2.5 0 003.5 39h33a2.5 2.5 0 002.5-2.5v-19a2.5 2.5 0 00-2.5-2.5z" fill="#788b9c"></path><path fill="#f2faff" d="M16 15v7H8v-7z"></path><g><path d="M10.5 20.5V11c0-3.033 2.467-5.5 5.5-5.5h7.5V2.087L29.232 7 23.5 11.913V8.5H16a2.503 2.503 0 00-2.5 2.5v9.5h-3z" fill="#8bb7f0"></path><path d="M24 3.174L28.463 7 24 10.826V8h-8c-1.654 0-3 1.346-3 3v9h-2v-9c0-2.757 2.243-5 5-5h8V3.174M23 1v4h-7a6 6 0 00-6 6v10h4V11a2 2 0 012-2h7v4l7-6-7-6z" fill="#4e7ab5"></path></g></svg>