<svg viewBox="0 0 40 40" xmlns="http://www.w3.org/2000/svg"><path d="M17.5 38.5c-1.103 0-2-.897-2-2v-33c0-1.103.897-2 2-2h19c1.103 0 2 .897 2 2v33c0 1.103-.897 2-2 2h-19z" fill="#f2faff"></path><path d="M36.5 2c.827 0 1.5.673 1.5 1.5v33c0 .827-.673 1.5-1.5 1.5h-19c-.827 0-1.5-.673-1.5-1.5v-33c0-.827.673-1.5 1.5-1.5h19m0-1h-19A2.5 2.5 0 0015 3.5v33a2.5 2.5 0 002.5 2.5h19a2.5 2.5 0 002.5-2.5v-33A2.5 2.5 0 0036.5 1z" fill="#788b9c"></path><path fill="#f2faff" d="M15 8h7v8h-7z"></path><g><path d="M2.087 23.5H5.5V16c0-3.033 2.467-5.5 5.5-5.5h9.5v3H11A2.503 2.503 0 008.5 16v7.5h3.413L7 29.232 2.087 23.5z" fill="#8bb7f0"></path><path d="M20 11v2h-9c-1.654 0-3 1.346-3 3v8h2.826L7 28.463 3.174 24H6v-8c0-2.757 2.243-5 5-5h9m1-1H11a6 6 0 00-6 6v7H1l6 7 6-7H9v-7a2 2 0 012-2h10v-4z" fill="#4e7ab5"></path></g></svg>