<svg viewBox="0 0 40 40" xmlns="http://www.w3.org/2000/svg"><path d="M33.692 7.559A18.452 18.452 0 0020 1.5C9.783 1.5 1.5 9.783 1.5 20" fill="none" stroke="#4e7ab5" stroke-miterlimit="10"></path><g fill="none" stroke="#4e7ab5" stroke-miterlimit="10"><path d="M1.5 20c0 1.018.082 2.016.24 2.99"></path><path d="M2.109 24.724C3.875 31.43 9.31 36.646 16.137 38.096" stroke-dasharray="5.3197,1.7732"></path><path d="M17.01 38.26c.973.158 1.972.24 2.99.24"></path></g><g fill="none" stroke="#4e7ab5" stroke-miterlimit="10"><path d="M20 38.5c.505 0 1.005-.02 1.499-.06"></path><path d="M23.413 38.186c7.796-1.454 13.871-7.796 14.925-15.725" stroke-dasharray="2.8947,1.9298"></path><path d="M38.44 21.499c.04-.495.06-.995.06-1.499"></path></g><path fill="#8bb7f0" d="M27.714 8.902l6.838-6.838 1.217 8.748z"></path><path d="M34.195 3.128l.978 7.029-6.472-1.535 5.494-5.494M34.909 1l-8.182 8.182 9.638 2.285L34.909 1z" fill="#4e7ab5"></path></svg>