<svg viewBox="0 0 40 40" xmlns="http://www.w3.org/2000/svg"><path d="M20 39.5a3.507 3.507 0 01-2.498-1.03L1.53 22.498a3.537 3.537 0 010-4.996L17.502 1.53A3.507 3.507 0 0120 .5c.946 0 1.833.366 2.497 1.03L38.47 17.502c.664.664 1.029 1.551 1.029 2.498s-.365 1.834-1.029 2.498L22.497 38.47A3.505 3.505 0 0120 39.5z" fill="#ffeea3"></path><path d="M20 1c.813 0 1.575.314 2.144.883l15.972 15.972a3.037 3.037 0 010 4.289L22.144 38.117A3.011 3.011 0 0120 39a3.011 3.011 0 01-2.144-.883L1.883 22.144C1.314 21.575 1 20.813 1 20s.314-1.575.883-2.144L17.856 1.883A3.011 3.011 0 0120 1m0-1a4.019 4.019 0 00-2.851 1.176L1.176 17.149a4.045 4.045 0 000 5.703l15.972 15.972A4.023 4.023 0 0020 40a4.023 4.023 0 002.852-1.176l15.972-15.972a4.045 4.045 0 000-5.703L22.851 1.176A4.019 4.019 0 0020 0z" fill="#ba9b48"></path><path d="M23 25v-5h-5.933C16 20.041 16 20.852 16 21.21V27h-4v-5.79c0-3.913 3.189-5.21 5.333-5.21H23v-5l8 7-8 7z" fill="#36404d"></path></svg>