<svg viewBox="0 0 40 40" xmlns="http://www.w3.org/2000/svg"><path d="M20 38.475c-1.728-.576-18.5-6.7-18.5-26.618 0-4.195 1.342-8.159 2.383-10.137C5.099 2.512 8.498 4.5 12 4.5c3.652 0 6.991-2.161 8.002-2.88C21.023 2.336 24.403 4.5 28 4.5c3.46 0 6.906-2.004 8.123-2.788C37.312 3.877 38.5 7.788 38.5 11.857c0 19.915-16.772 26.041-18.5 26.618z" fill="#8bb7f0"></path><path d="M20.004 2.226C21.32 3.105 24.557 5 28 5c3.208 0 6.388-1.648 7.924-2.576C36.89 4.418 38 7.977 38 11.857c0 19.323-15.581 25.285-17.995 26.092C17.706 37.152 2 30.997 2 11.857c0-3.751 1.135-7.393 2.087-9.419C5.618 3.37 8.759 5 12 5c3.494 0 6.699-1.892 8.004-2.774M36.286 1S32.098 4 28 4s-8-3-8-3-3.834 3-8 3-8.286-3-8.286-3C2.632 2.799 1 7.211 1 11.857 1 33.389 20 39 20 39s19-5.613 19-27.143C39 7.27 37.516 2.975 36.286 1z" fill="#4e7ab5"></path><path d="M1.513 12.5a16.98 16.98 0 01-.013-.643c0-4.195 1.342-8.159 2.383-10.137C5.099 2.512 8.498 4.5 12 4.5c3.652 0 6.991-2.161 8.002-2.88C21.023 2.336 24.403 4.5 28 4.5c3.46 0 6.906-2.004 8.123-2.788C37.312 3.877 38.5 7.788 38.5 11.857c0 .218-.005.431-.013.643H1.513z" fill="#f78f8f"></path><path d="M20.004 2.226C21.32 3.105 24.556 5 28 5c3.208 0 6.388-1.648 7.924-2.576C36.89 4.418 38 7.977 38 11.857l-.001.143H2.001L2 11.857c0-3.751 1.135-7.393 2.087-9.419C5.618 3.37 8.759 5 12 5c3.494 0 6.699-1.892 8.004-2.774M36.286 1S32.098 4 28 4s-8-3-8-3-3.834 3-8 3-8.286-3-8.286-3C2.632 2.799 1 7.211 1 11.857c0 .39.017.766.032 1.143h37.937c.014-.377.031-.753.031-1.143C39 7.27 37.516 2.975 36.286 1z" fill="#c74343"></path><path d="M19 25.74c0 .631-.111 1.207-.332 1.727s-.528.969-.921 1.346a4.149 4.149 0 01-1.397.877 4.863 4.863 0 01-1.752.31 4.605 4.605 0 01-1.855-.368 3.937 3.937 0 01-1.458-1.096c-.408-.485-.724-1.088-.949-1.81S10 25.167 10 24.214c0-1.163.148-2.194.444-3.094.296-.9.702-1.654 1.22-2.262s1.125-1.069 1.822-1.385A5.435 5.435 0 0115.748 17c.505 0 .964.032 1.379.096.414.064.746.152.995.263v1.832a6.657 6.657 0 00-1.019-.386 4.462 4.462 0 00-1.243-.158c-.523 0-1.006.099-1.449.298-.442.199-.824.489-1.145.872s-.573.856-.757 1.42c-.184.564-.279 1.214-.285 1.95h.056a2.97 2.97 0 011.164-.982c.489-.24 1.064-.359 1.724-.359.586 0 1.114.089 1.584.267.47.178.872.435 1.206.771.333.336.59.745.771 1.227.181.485.271 1.027.271 1.629zm-2.187.166c0-.362-.045-.693-.136-.991a2.074 2.074 0 00-.411-.767 1.842 1.842 0 00-.692-.495c-.277-.117-.603-.175-.977-.175s-.702.063-.986.188a2.205 2.205 0 00-.715.495c-.193.205-.338.438-.435.701s-.145.532-.145.806c0 .298.045.603.136.916s.229.598.416.855c.187.257.425.469.715.636.29.167.634.25 1.033.25.355 0 .67-.061.944-.184.274-.123.503-.292.687-.508s.324-.472.421-.767.145-.615.145-.96zM25.353 30c-1.369 0-2.436-.535-3.204-1.605-.766-1.07-1.15-2.617-1.15-4.64 0-2.222.4-3.904 1.201-5.044C23 17.571 24.155 17 25.664 17 28.555 17 30 19.149 30 23.447c0 2.129-.408 3.753-1.223 4.873C27.96 29.44 26.82 30 25.353 30zm.211-11.377c-1.595 0-2.392 1.681-2.392 5.044 0 3.146.782 4.719 2.346 4.719 1.54 0 2.31-1.599 2.31-4.798 0-3.31-.755-4.965-2.264-4.965z" fill="#fff"></path></svg>