<svg viewBox="0 0 40 40" xmlns="http://www.w3.org/2000/svg"><path d="M6.975 38.474a.498.498 0 01-.354-.146l-4.949-4.949c-.094-.094-.146-.22-.146-.354a.498.498 0 01.5-.5c.134 0 .26.052.354.146l.427.429 4.503-2.702L9 28.707 11.293 31l-1.69 1.69L6.9 37.193l.428.428a.498.498 0 010 .707.497.497 0 01-.353.146z" fill="#b6c9d6"></path><path d="M9 29.414L10.586 31l-1.293 1.293-.087.087-.063.106-2.47 4.116-.402.67-4.094-4.094.552.552.67-.402 4.116-2.47.106-.063.087-.087L9 29.414m-2.177 8.409l.152.152-.152-.152M9 28l-2 2-4.116 2.47-.152-.152a.999.999 0 00-1.414 1.414l4.95 4.95a.999.999 0 001.414-1.414l-.152-.152L10 33l2-2-3-3z" fill="#66798f"></path><circle cx="15" cy="21" r="1" fill="#36404d"></circle><circle cx="21" cy="15" r="1" fill="#36404d"></circle><path fill="#f5ce85" d="M7.66 30.024l1.728-1.704 2.028-3.043 3.583-3.571L18.293 25l-3.647 3.646-2.923 1.938-1.727 1.715z"></path><path d="M15 22.414L17.586 25l-3.223 3.223-2.918 1.945-.082.055-.07.07-1.302 1.302-1.616-1.573 1.328-1.31.073-.072.057-.085 1.945-2.918L15 22.414M15 21l-4 4-2 3-2.054 2.027L10 33l2-2 3-2 4-4-4-4z" fill="#ba9b48"></path><path d="M18.056 23.056a.5.5 0 01.707 0l4.091 4.091a.5.5 0 01-.707.707l-4.091-4.091a.499.499 0 010-.707zM20.096 19.096a.5.5 0 01.707 0l5.05 5.05a.5.5 0 01-.707.707l-5.05-5.05a.5.5 0 010-.707z" fill="#36404d"></path><path d="M24.642 18.066c.068 0 .198.017.312.131l2.016 2.017c.112.112.13.24.13.306a.376.376 0 01-.105.271l-1.966 1.966a.367.367 0 01-.265.105.439.439 0 01-.312-.131l-2.016-2.017a.434.434 0 01-.13-.306.376.376 0 01.105-.271l1.966-1.966a.367.367 0 01.265-.105m0-1c-.355 0-.707.132-.972.398l-1.966 1.966c-.541.541-.529 1.437.025 1.991l2.016 2.017a1.44 1.44 0 001.019.423c.355 0 .707-.132.972-.398l1.966-1.966c.541-.541.529-1.437-.025-1.991l-2.016-2.017a1.44 1.44 0 00-1.019-.423zM23.944 16.944a.502.502 0 01-.707 0l-4.091-4.091a.502.502 0 010-.707.502.502 0 01.707 0l4.091 4.091a.502.502 0 010 .707z" fill="#36404d"></path><path fill="#b6c9d6" d="M13.707 23l9.549-9.549 3.591-.897.599.599-.897 3.591L17 26.293z"></path><path d="M26.693 13.107l.199.199-.795 3.182L17 25.586 14.414 23l9.097-9.097 3.182-.796M27 12l-4 1-10 10 4 4 10-10 1-4-1-1z" fill="#66798f"></path><path d="M27.424 12.576A3.41 3.41 0 0027.5 12c0-1.96-.001-4.792 1.854-6.646C30.207 4.5 32.31 4.5 33 4.5c.951 0 2.367-1.167 3.028-1.765l1.236 1.237C36.654 4.65 35.5 6.057 35.5 7c0 1.045 0 2.793-.854 3.646C32.793 12.5 30.022 12.5 28 12.5a3.41 3.41 0 00-.576.076z" fill="#bae0bd"></path><path d="M36.008 3.423l.244.244.326.326C35.904 4.788 35 6.034 35 7c0 .904 0 2.586-.707 3.293C32.586 12 29.935 12 28 12v-.087c0-1.791-.001-4.498 1.707-6.206C30.176 5.238 31.284 5 33 5c.969 0 2.211-.9 3.008-1.577M36 2l.04.04.027-.027L36 2zm.04.04C35.423 2.65 33.83 4 33 4c-.896 0-3.021.021-4 1-2.031 2.031-2 5.063-2 7 0 .318-.246 1.246-.246 1.246S27.682 13 28 13c2.021 0 5 0 7-2 .99-.99 1-2.833 1-4 0-.843 1.391-2.472 1.987-3.068l-.068-.013-.96-.96-.919-.919z" fill="#5e9c76"></path><g><path fill="#bae0bd" d="M25.207 11.5H28.5v3.293z"></path><path d="M28 12v1.586L26.414 12H28m1-1h-5l5 5v-5z" fill="#5e9c76"></path></g><path fill="#bae0bd" d="M28 11h1v1h-1z"></path><path fill="#5e9c76" d="M29.707 5l5.146 5.146-.707.708L29 5.707z"></path></svg>