<svg viewBox="0 0 40 40" xmlns="http://www.w3.org/2000/svg"><path d="M7 37.5c-.827 0-1.5-.673-1.5-1.5v-9c0-.426.189-.836.519-1.123l.431-.377-.432-.377A1.495 1.495 0 015.5 24v-8c0-.426.189-.836.519-1.123l.431-.377-.432-.377A1.495 1.495 0 015.5 13V4c0-.827.673-1.5 1.5-1.5h26c.827 0 1.5.673 1.5 1.5v9c0 .426-.189.836-.519 1.123l-.431.377.432.377c.329.287.518.697.518 1.123v8c0 .426-.189.836-.519 1.123l-.431.377.432.377c.329.287.518.697.518 1.123v9c0 .827-.673 1.5-1.5 1.5H7z" fill="#dcd5f2"></path><path d="M33 3c.551 0 1 .449 1 1v9a.99.99 0 01-.348.747l-.861.753.861.753A.99.99 0 0134 16v8a.99.99 0 01-.348.747l-.861.753.861.753A.99.99 0 0134 27v9c0 .551-.449 1-1 1H7c-.551 0-1-.449-1-1v-9a.99.99 0 01.348-.747l.861-.753-.861-.753A.99.99 0 016 24v-8a.99.99 0 01.348-.747l.861-.753-.861-.753A.99.99 0 016 13V4c0-.551.449-1 1-1h26m0-1H7a2 2 0 00-2 2v9c0 .601.27 1.133.69 1.5-.42.367-.69.899-.69 1.5v8c0 .601.27 1.133.69 1.5-.42.367-.69.899-.69 1.5v9a2 2 0 002 2h26a2 2 0 002-2v-9c0-.601-.27-1.133-.69-1.5.42-.367.69-.899.69-1.5v-8c0-.601-.27-1.133-.69-1.5.42-.367.69-.899.69-1.5V4a2 2 0 00-2-2z" fill="#8b75a1"></path><path d="M11.905 15.597a10.176 10.176 0 011.859-.169c.936 0 1.781.144 2.34.65.533.481.702 1.066.702 1.82 0 .936-.468 1.781-1.352 2.184v.026c.598.247.897.793 1.066 1.742.169.975.403 2.054.559 2.379h-1.781c-.117-.247-.312-1.131-.442-2.106-.156-1.079-.429-1.391-.988-1.391h-.26v3.497h-1.703v-8.632zm1.703 3.822h.312c.741 0 1.157-.598 1.157-1.364 0-.755-.299-1.274-1.053-1.301-.156 0-.325.014-.416.053v2.612zM18.405 15.597a10.176 10.176 0 011.859-.169c.936 0 1.781.144 2.34.65.533.481.702 1.066.702 1.82 0 .936-.468 1.781-1.352 2.184v.026c.598.247.897.793 1.066 1.742.169.975.403 2.054.559 2.379h-1.781c-.117-.247-.312-1.131-.442-2.106-.156-1.079-.429-1.391-.988-1.391h-.26v3.497h-1.703v-8.632zm1.703 3.822h.312c.741 0 1.157-.598 1.157-1.364 0-.755-.299-1.274-1.053-1.301-.156 0-.325.014-.416.053v2.612zM24.645 15.597a8.91 8.91 0 011.781-.169c1.014 0 1.82.144 2.379.677.52.455.754 1.183.754 1.924 0 .949-.286 1.625-.741 2.106-.546.585-1.417.845-2.132.845-.117 0-.221 0-.338-.013v3.263h-1.703v-8.633zm1.703 3.991c.091.014.182.014.286.014.858 0 1.235-.611 1.235-1.431 0-.767-.312-1.364-1.105-1.364-.156 0-.312.025-.416.064v2.717z" fill="#7c6394"></path></svg>