<svg viewBox="0 0 40 40" xmlns="http://www.w3.org/2000/svg"><path d="M6 31.5a2.13 2.13 0 01-2.07-1.68L1.58 18.65a3.43 3.43 0 013.35-4.15h30.14a3.43 3.43 0 013.35 4.15l-2.35 11.18A2.13 2.13 0 0134 31.5z" fill="#8bb7f0"></path><path d="M35.07 15a2.93 2.93 0 012.87 3.55l-2.36 11.17A1.63 1.63 0 0134 31H6a1.63 1.63 0 01-1.58-1.28L2.07 18.55A2.93 2.93 0 014.93 15h30.14m0-1H4.93a3.93 3.93 0 00-3.84 4.75l2.35 11.18A2.62 2.62 0 006 32h28a2.62 2.62 0 002.56-2.07l2.35-11.17A3.93 3.93 0 0035.07 14z" fill="#4e7ab5"></path><circle cx="10" cy="26" r="2" fill="#36404d"></circle><circle cx="17" cy="26" r="2" fill="#36404d"></circle><circle cx="24" cy="26" r="2" fill="#36404d"></circle><circle cx="31" cy="26" r="2" fill="#36404d"></circle><circle cx="6" cy="19" r="2" fill="#36404d"></circle><circle cx="13" cy="19" r="2" fill="#36404d"></circle><circle cx="20" cy="19" r="2" fill="#36404d"></circle><circle cx="27" cy="19" r="2" fill="#36404d"></circle><circle cx="34" cy="19" r="2" fill="#36404d"></circle></svg>