<svg viewBox="0 0 40 40" xmlns="http://www.w3.org/2000/svg"><path fill="#f75252" d="M2.5 35.527v-16.32L19.207 2.5h16.32l1.943 34.97z"></path><path d="M35.054 3l1.886 33.94L3 35.054v-15.64L19.414 3h15.64M36 2H19L2 19v17l36 2-2-36z" fill="#c74343"></path><path fill="#f76d6d" d="M3.145 35.563L35.562 3.145 37.47 37.47z"></path><path d="M35.126 4.289L36.94 36.94 4.289 35.126 35.126 4.289M36 2L2 36l36 2-2-36z" fill="#c74343"></path><g><path fill="#f78f8f" d="M11.268 26.569l-8.539-7.59 16.25-16.25 7.59 8.539 10.52 25.821z"></path><path d="M18.957 3.457l7.181 8.079 10.039 24.642-24.641-10.039-8.079-7.181 15.5-15.501M19 2L2 19l9 8 27 11-11-27-8-9z" fill="#c74343"></path></g><g><path fill="#f7a3a3" d="M11.5 11.5h15.543L11.5 27.043z"></path><path d="M25.836 12L12 25.836V12h13.836m2.414-1H11v17.25L28.25 11z" fill="#c74343"></path></g></svg>