<svg viewBox="0 0 40 40" xmlns="http://www.w3.org/2000/svg"><path fill="#d84e4e" d="M37.432 11.297L36.139 36.14l-24.232 1.293z"></path><path d="M36.864 12.595l-1.2 23.07-22.503 1.2 23.703-24.27M38 10L10.654 38l25.962-1.385L38 10z" fill="#c74343"></path><path fill="#e26666" d="M35.792 36.115l-11.333-11.89L37.434 11.56l-1.293 24.555z"></path><path d="M36.867 12.811l-1.182 22.467-10.523-11.04 11.705-11.427M38 10.308L23.756 24.212l11.821 12.403h1.038L38 10.308z" fill="#c74343"></path><path d="M9.549 37.5c-2.211 0-3.958-.625-5.191-1.858-4.353-4.353-.877-14.911 7.748-23.536C18.031 6.181 25.061 2.5 30.451 2.5c2.211 0 3.958.625 5.191 1.858 4.353 4.353.877 14.911-7.748 23.536C21.969 33.819 14.939 37.5 9.549 37.5z" fill="#ed7e7e"></path><path d="M30.452 3c2.073 0 3.7.576 4.836 1.712 4.087 4.087.539 14.541-7.748 22.828C21.705 33.375 14.812 37 9.549 37c-2.074 0-3.701-.576-4.837-1.712-4.087-4.087-.539-14.541 7.748-22.828C18.294 6.625 25.188 3 30.452 3m-.001-1c-5.313 0-12.503 3.557-18.699 9.753C2.919 20.586-.55 31.44 4.005 35.995 5.365 37.355 7.287 38 9.549 38c5.313 0 12.503-3.557 18.699-9.753C37.081 19.414 40.55 8.56 35.995 4.005 34.635 2.645 32.713 2 30.451 2z" fill="#c74343"></path><g><path fill="#f7a3a3" d="M6.151 23.872L2.5 29.349v-9.21l4.051-6.752 6.826-6.826L21.123 2.5h8.731l-3.751 3.68 9.528 3.811-12.246 4.71 3.835 12.463-12.519-4.814-4.685 13.118z"></path><path d="M28.63 3L26.3 5.286l-1.094 1.073 1.423.569 7.633 3.053-10.621 4.085-.871.335.275.892 3.395 11.034-11.08-4.262-.956-.368-.345.965-4.026 11.272-3.084-9.252-.647-1.94-1.134 1.701L3 27.697v-7.42l3.948-6.58 6.728-6.728L21.246 3h7.384m2.447-1H21l-7.923 4.154-6.923 6.923L2 20v11l4-6 4 12 5-14 13 5-4-13 13-5-10-4 4.077-4z" fill="#c74343"></path></g><g><path fill="#ed7e7e" d="M2.603 19.953l3.798-6.647 6.895-6.895 7.668-3.834 5.441 3.627-2.837 8.511-8.803 7.825-8.569 1.904z"></path><path d="M20.928 3.154l4.882 3.254-2.674 8.022-8.606 7.65-8.138 1.809-3.186-3.983 3.596-6.294 6.791-6.791 7.335-3.667M21 2l-8 4-7 7-4 7 4 5 9-2 9-8 3-9-6-4z" fill="#c74343"></path></g></svg>