<svg viewBox="0 0 40 40" xmlns="http://www.w3.org/2000/svg"><path fill="#8bb7f0" d="M2.207 30.19L30.189 2.208l7.603 7.603L9.81 37.793z"></path><path d="M30.189 2.914l6.896 6.896L9.811 37.086 2.915 30.19 30.189 2.914m0-1.414L1.5 30.189 9.811 38.5 38.5 9.811 30.189 1.5z" fill="#4e7ab5"></path><path fill="none" stroke="#4e7ab5" stroke-miterlimit="10" d="M25.261 7.399l2.552 2.552M22.71 9.951l1.434 1.435M27.813 4.848l1.435 1.434M20.158 12.503l2.552 2.552M17.606 15.055l1.435 1.434M12.503 20.158l1.434 1.434M9.951 22.71l2.552 2.551M15.055 17.606l2.551 2.552M7.399 25.261l1.435 1.435M4.848 27.813l2.551 2.552"></path></svg>