<svg viewBox="0 0 40 40" xmlns="http://www.w3.org/2000/svg"><path fill="#fff" d="M5.5 2.5h29v28.077h-29z"></path><path d="M34 3v27.077H6V3h28m1-1H5v29.077h30V2z" fill="#788b9c"></path><path d="M7.538 37.5c-2.108 0-4.893-.738-5.032-7h34.988c-.14 6.262-2.924 7-5.032 7H7.538z" fill="#e1ebf2"></path><path d="M36.977 31c-.25 5.292-2.522 6-4.516 6H7.538c-1.994 0-4.266-.708-4.516-6h33.955M38 30H2c0 6.635 2.775 8 5.538 8h24.923C35.24 38 38 36.67 38 30zM15 11h14v1H15z" fill="#788b9c"></path><circle cx="11.5" cy="11.5" r="1" fill="#788b9c"></circle><path fill="#788b9c" d="M15 17h14v1H15z"></path><circle cx="11.5" cy="17.5" r="1" fill="#788b9c"></circle><path fill="#788b9c" d="M15 23h14v1H15z"></path><circle cx="11.5" cy="23.5" r="1" fill="#788b9c"></circle></svg>