<svg viewBox="0 0 40 40" xmlns="http://www.w3.org/2000/svg"><path fill="#c2e8ff" d="M12.267 13H0v4h11.467zM10.567 22l.533-3H0v3zM10 26l.267-2H0v2z"></path><path fill="#fff" d="M7.605 32.5l4.808-25H39.39l-5 25z"></path><path d="M38.78 8l-4.8 24H8.211l4.615-24H38.78M40 7H12L7 33h27.8L40 7z" fill="#788b9c"></path><path fill="#8bb7f0" d="M13.562 24.5l1.846-9H33.39l-1.8 9z"></path><path d="M32.78 16l-1.6 8H14.175l1.641-8H32.78M34 15H15l-2.051 10H32l2-10z" fill="#4e7ab5"></path><path fill="#788b9c" d="M39 7H13l-1 5h26z"></path><path fill="#fff" d="M15.836 21H30.7l.6-3H16.436z"></path><path fill="#37474f" d="M19.717 21l.6-3h-1.02l-.6 3z"></path></svg>