<svg viewBox="0 0 40 40" xmlns="http://www.w3.org/2000/svg"><circle cx="7.5" cy="19.5" r="3" fill="#fff"></circle><path d="M7.5 17c1.379 0 2.5 1.121 2.5 2.5S8.879 22 7.5 22 5 20.879 5 19.5 6.122 17 7.5 17m0-1a3.5 3.5 0 100 7 3.5 3.5 0 000-7z" fill="#788b9c"></path><path d="M28.374 37.481a1.14 1.14 0 01-.496-.125c-.625-.305-1.186-.873-1.836-1.531C24.579 34.344 22.757 32.5 19 32.5c-1.739 0-3.5-.858-3.5-2.5 0-.874.456-1.285.984-1.761.476-.428 1.016-.915 1.016-1.739 0-.741-.835-.922-2.1-1.195-2.349-.509-5.9-1.277-5.9-5.305 0-6.273 5.118-8.5 9.5-8.5 1.531 0 2.435.319 3.232.602.579.205 1.125.398 1.768.398.747 0 1.254-.354 1.431-.973 2.021.259 3.893 2.28 5.708 4.239.228.247.456.492.683.733h-.614l.34.715c.481 1.01.952 3.38.952 4.786 0 4.598-1.996 7.622-5.62 8.515l-.889.219.665.63a15.35 15.35 0 012.199 2.581c.806 1.209.719 2.332.401 2.928-.208.387-.529.608-.882.608z" fill="#b6c9d6"></path><path d="M19 12c1.445 0 2.306.305 3.066.573.62.22 1.206.427 1.934.427.794 0 1.405-.336 1.732-.907 1.681.417 3.334 2.173 4.941 3.907h-.257l.68 1.43c.407.854.904 3.131.904 4.57 0 2.517-.681 6.906-5.239 8.029l-1.777.438 1.329 1.259a14.893 14.893 0 012.127 2.495c.683 1.025.63 1.941.376 2.414-.069.129-.219.346-.442.346a.641.641 0 01-.276-.075c-.548-.267-1.082-.808-1.7-1.434C24.949 34.008 22.966 32 19 32c-1.206 0-3-.533-3-2 0-.622.281-.904.818-1.389C17.317 28.162 18 27.547 18 26.5c0-1.145-1.156-1.395-2.494-1.684C12.604 24.188 10 23.348 10 20c0-5.898 4.649-8 9-8m6-1c0 .657-.343 1-1 1-1.351 0-2.25-1-5-1-5.218 0-10 2.813-10 9 0 6.311 8 5.365 8 6.5 0 1.336-2 1.506-2 3.5 0 1.971 2.028 3 4 3 5.208 0 6.459 3.733 8.659 4.806.247.12.487.176.714.176 1.423 0 2.319-2.184.898-4.315A15.904 15.904 0 0027 31c4.147-1.021 6-4.538 6-9 0-1.527-.499-3.947-1-5h1c-2.503-2.503-5-6-8-6zm7.424 6h-.052.052z" fill="#788b9c"></path><path d="M21.5 29.5c4.25 0 6.433 3.225 6.994 3.921M22.5 21.5c3.743 0 5.994 1.755 5.994 4s-2.9 4-6.994 4" fill="none" stroke="#788b9c" stroke-linecap="round" stroke-miterlimit="10"></path><path d="M32.692 10.715C30.361 8.352 23.544 4.5 19.714 4.5 18.493 4.5 17.5 3.827 17.5 3s.993-1.5 2.214-1.5c3.455 0 9.913 3.215 12.957 5.876.262.327.16 2.092.021 3.339z" fill="#b6c9d6"></path><path d="M19.714 2c3.225 0 9.538 3.1 12.538 5.675.109.343.093 1.19.031 2.039C29.299 7.177 23.147 4 19.714 4 18.704 4 18 3.473 18 3s.704-1 1.714-1m0-1C18.215 1 17 1.876 17 3s1.215 2 2.714 2C24.479 5 33 10.841 33 12l.001.008c.033 0 .724-4.374-.001-5.008-3.087-2.699-9.667-6-13.286-6z" fill="#788b9c"></path><path d="M30.898 11.291C28.4 9.269 21.259 6.5 17.714 6.5 16.493 6.5 15.5 5.827 15.5 5s.993-1.5 2.214-1.5c3.343 0 9.867 2.175 12.957 4.876.262.273.285 1.777.227 2.915z" fill="#b6c9d6"></path><path d="M17.714 4c3.234 0 9.525 2.09 12.562 4.696.114.273.153.935.149 1.637-.825-.537-2.016-1.177-3.736-1.933-1.641-.722-5.8-2.4-8.975-2.4C16.704 6 16 5.473 16 5s.704-1 1.714-1m0-1C16.215 3 15 3.876 15 5s1.215 2 2.714 2c4.765 0 13.571 4.341 13.571 5.5l.001.008c.022 0 .436-3.876-.287-4.508-3.086-2.699-9.666-5-13.285-5z" fill="#788b9c"></path><path d="M30.687 16.5c-2.86 0-5.187-2.243-5.187-5s2.327-5 5.187-5h.438c4.569 0 7.375 4.145 7.375 7.115 0 1.427-.535 2.885-4.5 2.885h-3.313z" fill="#b6c9d6"></path><path d="M31.125 7C35.703 7 38 11.241 38 13.615 38 14.769 37.691 16 34 16H30.687C28.103 16 26 13.981 26 11.5S28.103 7 30.687 7h.438m0-1h-.438C27.546 6 25 8.462 25 11.5s2.546 5.5 5.687 5.5H34c3.112 0 5-.852 5-3.385C39 10.578 36.132 6 31.125 6z" fill="#788b9c"></path><circle cx="33.5" cy="11.5" r="1.5" fill="#36404d"></circle><path d="M13.5 8h-8a.501.501 0 01-.5-.5c0-.275.225-.5.5-.5h8c.275 0 .5.225.5.5s-.225.5-.5.5zM9.5 11h-6a.501.501 0 01-.5-.5c0-.275.225-.5.5-.5h6c.275 0 .5.225.5.5s-.225.5-.5.5zM6.5 14h-5a.501.501 0 01-.5-.5c0-.275.225-.5.5-.5h5c.275 0 .5.225.5.5s-.225.5-.5.5z" fill="#36404d"></path></svg>