<svg viewBox="0 0 40 40" xmlns="http://www.w3.org/2000/svg"><circle cx="28.5" cy="4.5" r="3" fill="#ffeea3"></circle><path d="M28.5 2C29.879 2 31 3.122 31 4.5S29.879 7 28.5 7 26 5.878 26 4.5 27.121 2 28.5 2m0-1a3.5 3.5 0 100 7 3.5 3.5 0 000-7z" fill="#ba9b48"></path><path d="M21.998 38.5a1.502 1.502 0 01-1.34-2.171l3.604-7.208-5.763-5.34V19.5h2.25l6.429 8.572c.357.46.42 1.085.163 1.6l-4 7.999a1.49 1.49 0 01-1.343.829z" fill="#ffeea3"></path><path d="M20.5 20l6.29 8.387c.235.301.276.718.105 1.061l-4 8a.998.998 0 01-1.342.447 1.001 1.001 0 01-.447-1.342l3.437-6.872.335-.671-.55-.51L19 23.563V20h1.5m.5-1h-3v5l5.647 5.233-3.437 6.872a2 2 0 003.579 1.79l4-8a2 2 0 00-.21-2.122L21 19z" fill="#ba9b48"></path><path d="M4 28.5c-.827 0-1.5-.673-1.5-1.5s.673-1.5 1.5-1.5h7.35l5.973-9.081c.382.104 1.393.797 2.565 2.011 1.186 1.228 1.62 2.025 1.677 2.293l-8.372 7.2c-.339.387-.755.577-1.193.577H4z" fill="#ffeea3"></path><path d="M17.508 17.047c.998.575 2.965 2.569 3.461 3.521l-8.103 6.976-.058.05-.049.058A1 1 0 0112 28H4c-.551 0-1-.449-1-1s.449-1 1-1h7.619l.296-.45 5.593-8.503m-.271-1.141c-.101 0-.182.03-.237.094l-5.92 9H4a2 2 0 000 4h8c.584 0 1.139-.255 1.519-.698L22 21c.664-.774-3.546-5.095-4.763-5.094z" fill="#ba9b48"></path><path d="M15.762 18.792l1.656-2.518L21.751 9.5h-5.226l-4.589 3.671A1.484 1.484 0 0111 13.5c-.459 0-.886-.205-1.172-.563a1.488 1.488 0 01-.32-1.103c.045-.398.241-.755.555-1.005l5-4c.265-.213.597-.329.937-.329h6c.34 0 .672.116.937.328l5 4.001c.192.153.345.353.441.579l2.61 6.092H36c.827 0 1.5.673 1.5 1.5s-.673 1.5-1.5 1.5h-6a1.494 1.494 0 01-1.378-.908l-2.561-5.975-4.056 7.04-.705 1.366-5.538-3.231z" fill="#ffeea3"></path><path d="M22 7c.226 0 .448.078.624.219l5.002 4.002a.976.976 0 01.292.385l2.48 5.788.261.606H36c.551 0 1 .449 1 1s-.449 1-1 1h-6a.997.997 0 01-.919-.606l-2.167-5.055-.788-1.838-.998 1.732-3.578 6.214-.454.878-4.627-2.699 1.372-2.088 3.838-6L22.665 9H16.35l-.274.219-4.452 3.562a.996.996 0 01-1.405-.157.995.995 0 01.157-1.405l5.001-4.001c.175-.14.397-.218.623-.218h6m0-1h-6c-.454 0-.895.154-1.249.438l-5 4a2 2 0 102.498 3.124L16.701 10h4.137L17 16l-1.917 2.917c-.009.016.181.165.197.174l6.193 3.612a.032.032 0 00.016.004.032.032 0 00.029-.018l.921-1.782 3.556-6.174 2.167 5.055A2 2 0 0030 21h6a2 2 0 000-4h-4.682l-2.48-5.788a1.98 1.98 0 00-.589-.773l-5-4A1.991 1.991 0 0022 6z" fill="#ba9b48"></path><g><path fill="#99c99e" d="M15.762 18.792l1.656-2.518L21.751 9.5h-.019l1.535-2.407 4.485 3.589-5.746 9.975-.706 1.366z"></path><path d="M23.389 7.831l3.716 2.973-5.554 9.644-.454.878-4.627-2.699 1.372-2.088 3.838-6L22.648 9h-.004l.745-1.169m-.251-1.467L20.822 10h.017L17 16l-1.917 2.917c-.009.016.181.165.197.174l6.193 3.612a.032.032 0 00.016.004.032.032 0 00.029-.018l.921-1.782 5.948-10.327c-.047-.046-.086-.1-.139-.142l-5-4c-.034-.028-.074-.049-.11-.074z" fill="#5e9c76"></path></g><path fill="#66798f" d="M11.08 25l5.049-7.671L22 21l-8.481 7.302z"></path><g><path d="M18.34 23.633c-1.453-.937-2.257-1.958-2.463-3.095-.219-1.204.283-2.287.621-2.85l5.596 3.591 4.685 6.258-3.017 1.12-5.422-5.024z" fill="#839cb2"></path><path d="M16.684 18.402l5.063 3.249 4.23 5.65-2.101.781-5.196-4.815-.038-.035-.036-.028-.035-.027-.037-.024c-1.256-.801-1.984-1.71-2.164-2.704-.144-.785.071-1.519.314-2.047m-.323-1.389a.023.023 0 00-.02.01c-.233.31-2.977 4.021 1.654 6.973L18 24l5.647 5.233 3.932-1.461-5.14-6.865-6.057-3.888a.042.042 0 00-.021-.006z" fill="#66798f"></path></g></svg>