<svg viewBox="0 0 40 40" xmlns="http://www.w3.org/2000/svg"><path d="M19.989 38.5c-10.102 0-18.22-7.915-18.482-18.019A18.38 18.38 0 016.583 7.262 18.379 18.379 0 0120.011 1.5c10.102 0 18.22 7.915 18.482 18.019a18.38 18.38 0 01-5.076 13.219A18.379 18.379 0 0119.989 38.5z" fill="#ffeea3"></path><path d="M20.011 1v1c9.828 0 17.727 7.701 17.983 17.532.258 9.922-7.604 18.204-17.526 18.462-.159.004-.319.006-.477.006-9.829 0-17.729-7.701-17.984-17.532-.125-4.806 1.629-9.374 4.939-12.861A17.88 17.88 0 0120.01 2l.001-1m-.002 0c-.167 0-.336.002-.503.007C9.016 1.279.734 10.004 1.007 20.494 1.275 30.816 9.726 39 19.991 39c.167 0 .336-.002.503-.007 10.49-.273 18.772-8.998 18.499-19.487C38.725 9.184 30.274.999 20.009 1z" fill="#c29653"></path><path d="M30.179 30.571S26.786 26.5 20 26.5 9.821 30.571 9.821 30.571" fill="none" stroke="#c29653" stroke-miterlimit="10"></path><path d="M27 20.5c-1.93 0-3.5-1.57-3.5-3.5s1.57-3.5 3.5-3.5 3.5 1.57 3.5 3.5-1.57 3.5-3.5 3.5z" fill="#fff"></path><path d="M27 14c1.654 0 3 1.346 3 3s-1.346 3-3 3-3-1.346-3-3 1.346-3 3-3m0-1a4 4 0 100 8 4 4 0 000-8z" fill="#c29653"></path><circle cx="27" cy="17" r="1.25" fill="#36404d"></circle><g><path d="M13 20.5c-1.93 0-3.5-1.57-3.5-3.5s1.57-3.5 3.5-3.5 3.5 1.57 3.5 3.5-1.57 3.5-3.5 3.5z" fill="#fff"></path><path d="M13 14c1.654 0 3 1.346 3 3s-1.346 3-3 3-3-1.346-3-3 1.346-3 3-3m0-1a4 4 0 100 8 4 4 0 000-8z" fill="#c29653"></path></g><circle cx="13" cy="17" r="1.25" fill="#36404d"></circle></svg>