<svg viewBox="0 0 40 40" xmlns="http://www.w3.org/2000/svg"><path d="M3.5 35.5c-1.103 0-2-.897-2-2v-27c0-1.103.897-2 2-2h33c1.103 0 2 .897 2 2v27c0 1.103-.897 2-2 2h-33z" fill="#dcd5f2"></path><path d="M36.5 5c.827 0 1.5.673 1.5 1.5v27c0 .827-.673 1.5-1.5 1.5h-33c-.827 0-1.5-.673-1.5-1.5v-27C2 5.673 2.673 5 3.5 5h33m0-1h-33A2.5 2.5 0 001 6.5v27A2.5 2.5 0 003.5 36h33a2.5 2.5 0 002.5-2.5v-27A2.5 2.5 0 0036.5 4z" fill="#8b75a1"></path><path fill="#8b75a1" d="M31 35h5v2h-5zM4 35h5v2H4z"></path><path fill="#66798f" d="M5.5 8.5h20v23h-20z"></path><path d="M25 9v22H6V9h19m1-1H5v24h21V8z" fill="#36404d"></path><path fill="#dcd5f2" d="M23.5 37.5v-35h3.361L36.5 8.283v23.434L26.861 37.5z"></path><path d="M26.723 3L36 8.566v22.868L26.723 37H24V3h2.723M27 2h-4v36h4l10-6V8L27 2zM37 11h2v4h-2zM37 25h2v4h-2z" fill="#8b75a1"></path><path d="M31.5 29.5c-1.419 0-3-3.696-3-9s1.581-9 3-9 3 3.696 3 9-1.581 9-3 9z" fill="#b0c1d4"></path><path d="M31.5 12c.881 0 2.5 3.227 2.5 8.5S32.381 29 31.5 29 29 25.773 29 20.5s1.619-8.5 2.5-8.5m0-1c-1.933 0-3.5 4.253-3.5 9.5s1.567 9.5 3.5 9.5 3.5-4.253 3.5-9.5-1.567-9.5-3.5-9.5z" fill="#66798f"></path><path d="M33.5 25.493c-.361-.202-1-2.03-1-4.993 0-3.022.665-4.863 1.021-5.003.314.14.979 1.981.979 5.003 0 2.963-.639 4.791-1 4.993z" fill="#e1ebf2"></path><path d="M33.5 16.541c.249.752.5 2.104.5 3.959s-.251 3.207-.5 3.959c-.249-.752-.5-2.104-.5-3.959s.251-3.207.5-3.959m0-1.541c-.828 0-1.5 2.462-1.5 5.5s.672 5.5 1.5 5.5 1.5-2.462 1.5-5.5-.672-5.5-1.5-5.5zM32.188 14.758l-1.241-2.482-.895.447 1.576 3.153a4.33 4.33 0 01.56-1.118zM31.073 18.831l-2.415-.805-.316.948 2.67.89c.009-.292.029-.646.061-1.033zM31.074 22.183l-2.852 1.901.555.832 2.426-1.617a18.35 18.35 0 01-.129-1.116zM31.629 25.123l-1.576 3.153.895.447 1.241-2.482a4.236 4.236 0 01-.56-1.118z" fill="#66798f"></path><g><path fill="#f78f8f" d="M8.707 20l4.793-4.793V18.5h8v3h-8v3.293z"></path><path d="M13 16.414V19h8v2h-8V23.586L9.414 20 13 16.414M14 14l-6 6 6 6v-4h8v-4h-8v-4z" fill="#36404d"></path></g><path fill="#fff" d="M27 3.166L26.723 3H24v34h2.723l.277-.166z"></path></svg>