<svg viewBox="0 0 40 40" xmlns="http://www.w3.org/2000/svg"><circle cx="31.5" cy="15.5" r="4" fill="#e8d47b"></circle><path d="M31.5 12c1.93 0 3.5 1.57 3.5 3.5S33.43 19 31.5 19 28 17.43 28 15.5s1.57-3.5 3.5-3.5m0-1a4.5 4.5 0 100 9 4.5 4.5 0 000-9z" fill="#ba9b48"></path><path d="M24.516 28.5c.241-3.903 3.281-7 6.984-7s6.743 3.097 6.984 7H24.516z" fill="#99c99e"></path><path d="M31.5 22c3.269 0 5.982 2.612 6.434 6H25.066c.452-3.388 3.165-6 6.434-6m0-1c-4.142 0-7.5 3.582-7.5 8h15c0-4.418-3.358-8-7.5-8z" fill="#5e9c76"></path><circle cx="8.5" cy="15.5" r="4" fill="#e8d47b"></circle><path d="M8.5 12c1.93 0 3.5 1.57 3.5 3.5S10.43 19 8.5 19 5 17.43 5 15.5 6.57 12 8.5 12m0-1a4.5 4.5 0 100 9 4.5 4.5 0 000-9z" fill="#ba9b48"></path><path d="M1.516 28.5c.241-3.903 3.281-7 6.984-7s6.743 3.097 6.984 7H1.516z" fill="#99c99e"></path><path d="M8.5 22c3.269 0 5.982 2.612 6.434 6H2.066c.452-3.388 3.165-6 6.434-6m0-1C4.358 21 1 24.582 1 29h15c0-4.418-3.358-8-7.5-8z" fill="#5e9c76"></path><circle cx="20" cy="19" r="4.5" fill="#e8d47b"></circle><path d="M20 15c2.206 0 4 1.794 4 4s-1.794 4-4 4-4-1.794-4-4 1.794-4 4-4m0-1a5 5 0 10.001 10.001A5 5 0 0020 14z" fill="#ba9b48"></path><path d="M12.5 33.5v-.786c0-3.978 3.364-7.214 7.5-7.214s7.5 3.236 7.5 7.214v.786h-15z" fill="#d8f0da"></path><path d="M20 26c3.86 0 7 3.012 7 6.714V33H13v-.286C13 29.012 16.14 26 20 26m0-1c-4.418 0-8 3.454-8 7.714V34h16v-1.286C28 28.454 24.418 25 20 25z" fill="#5e9c76"></path><path fill="#4e7ab5" d="M1 2.791l1.791-1.79 4.172 4.17-1.791 1.791z"></path><path fill="#4e7ab5" d="M9 2v7H2z"></path><g><path fill="#4e7ab5" d="M1 37.208l4.17-4.171 1.792 1.791L2.791 39z"></path></g><g><path fill="#4e7ab5" d="M2 31h7v7z"></path></g><g><path fill="#4e7ab5" d="M33.037 5.172L37.21 1l1.79 1.79-4.17 4.172z"></path></g><g><path fill="#4e7ab5" d="M31 2v7h7z"></path></g><g><path fill="#4e7ab5" d="M33.037 34.829l1.79-1.791L39 37.208 37.208 39z"></path></g><g><path fill="#4e7ab5" d="M38 31h-7v7z"></path></g></svg>