<svg viewBox="0 0 40 40" xmlns="http://www.w3.org/2000/svg"><circle cx="14.5" cy="16.5" r="3" fill="#ffeea3"></circle><path d="M14.5 14c1.379 0 2.5 1.121 2.5 2.5S15.879 19 14.5 19 12 17.879 12 16.5s1.121-2.5 2.5-2.5m0-1a3.5 3.5 0 100 7 3.5 3.5 0 000-7z" fill="#ba9b48"></path><path d="M11 31.5c-.827 0-1.5-.673-1.5-1.5v-1.334c0-.328.267-.595.594-.595h2.478V31.5H11z" fill="#ffeea3"></path><path d="M12.071 28.571V31H11c-.551 0-1-.449-1-1v-1.334c0-.052.042-.094.094-.094h1.977m1-1.001h-2.977c-.604 0-1.094.49-1.094 1.095V30a2 2 0 002 2h2.071v-4.429z" fill="#ba9b48"></path><path d="M16.429 31.5v-4.786H19c.275 0 .5.225.5.5V30c0 .827-.673 1.5-1.5 1.5h-1.571z" fill="#ffeea3"></path><path d="M19 27.214V30c0 .551-.449 1-1 1h-1.071v-3.786H19m0-1h-3.071V32H18a2 2 0 002-2v-2.786a1 1 0 00-1-1z" fill="#ba9b48"></path><path d="M13 38.5c-.827 0-1.5-.673-1.5-1.5v-7.5h-2V25c0-1.93 1.57-3.5 3.5-3.5h3c1.93 0 3.5 1.57 3.5 3.5v4.5h-2V37c0 .827-.673 1.5-1.5 1.5h-3z" fill="#ffeea3"></path><path d="M16 22c1.654 0 3 1.346 3 3v4h-2v8c0 .551-.449 1-1 1h-3c-.551 0-1-.449-1-1v-8h-2v-4c0-1.654 1.346-3 3-3h3m0-1h-3a4 4 0 00-4 4v5h2v7a2 2 0 002 2h3a2 2 0 002-2v-7h2v-5a4 4 0 00-4-4z" fill="#ba9b48"></path><circle cx="4.5" cy="29.5" r="1" fill="#8bb7f0"></circle><path d="M4.5 29a.5.5 0 110 1 .5.5 0 010-1m0-1a1.5 1.5 0 10.001 3.001A1.5 1.5 0 004.5 28z" fill="#4e7ab5"></path><circle cx="3.5" cy="34.5" r="1" fill="#8bb7f0"></circle><path d="M3.5 34a.5.5 0 110 1 .5.5 0 010-1m0-1a1.5 1.5 0 10.001 3.001A1.5 1.5 0 003.5 33z" fill="#4e7ab5"></path><circle cx="24.5" cy="29.5" r="1" fill="#8bb7f0"></circle><path d="M24.5 29a.5.5 0 110 1 .5.5 0 010-1m0-1a1.5 1.5 0 10.001 3.001A1.5 1.5 0 0024.5 28z" fill="#4e7ab5"></path><circle cx="25.5" cy="34.5" r="1" fill="#8bb7f0"></circle><path d="M25.5 34a.5.5 0 110 1 .5.5 0 010-1m0-1a1.5 1.5 0 10.001 3.001A1.5 1.5 0 0025.5 33z" fill="#4e7ab5"></path><circle cx="5.5" cy="24.5" r="1" fill="#8bb7f0"></circle><path d="M5.5 24a.5.5 0 110 1 .5.5 0 010-1m0-1a1.5 1.5 0 10.001 3.001A1.5 1.5 0 005.5 23z" fill="#4e7ab5"></path><circle cx="23.5" cy="24.5" r="1" fill="#8bb7f0"></circle><path d="M23.5 24a.5.5 0 110 1 .5.5 0 010-1m0-1a1.5 1.5 0 10.001 3.001A1.5 1.5 0 0023.5 23z" fill="#4e7ab5"></path><circle cx="6.5" cy="19.5" r="1" fill="#8bb7f0"></circle><path d="M6.5 19a.5.5 0 110 1 .5.5 0 010-1m0-1a1.5 1.5 0 10.001 3.001A1.5 1.5 0 006.5 18z" fill="#4e7ab5"></path><g><circle cx="22.5" cy="19.5" r="1" fill="#8bb7f0"></circle><path d="M22.5 19a.5.5 0 110 1 .5.5 0 010-1m0-1a1.5 1.5 0 10.001 3.001A1.5 1.5 0 0022.5 18z" fill="#4e7ab5"></path></g><g><circle cx="7.5" cy="14.5" r="1" fill="#8bb7f0"></circle><path d="M7.5 14a.5.5 0 110 1 .5.5 0 010-1m0-1a1.5 1.5 0 10.001 3.001A1.5 1.5 0 007.5 13z" fill="#4e7ab5"></path></g><g><circle cx="21.5" cy="14.5" r="1" fill="#8bb7f0"></circle><path d="M21.5 14a.5.5 0 110 1 .5.5 0 010-1m0-1a1.5 1.5 0 10.001 3.001A1.5 1.5 0 0021.5 13z" fill="#4e7ab5"></path></g><g><circle cx="8.5" cy="9.5" r="1" fill="#8bb7f0"></circle><path d="M8.5 9a.5.5 0 110 1 .5.5 0 010-1m0-1a1.5 1.5 0 10.001 3.001A1.5 1.5 0 008.5 8z" fill="#4e7ab5"></path></g><g><circle cx="20.5" cy="9.5" r="1" fill="#8bb7f0"></circle><path d="M20.5 9a.5.5 0 110 1 .5.5 0 010-1m0-1a1.5 1.5 0 10.001 3.001A1.5 1.5 0 0020.5 8z" fill="#4e7ab5"></path></g><g><circle cx="14.5" cy="9.5" r="1" fill="#8bb7f0"></circle><path d="M14.5 9a.5.5 0 110 1 .5.5 0 010-1m0-1a1.5 1.5 0 10.001 3.001A1.5 1.5 0 0014.5 8z" fill="#4e7ab5"></path></g><g><path fill="#f78f8f" d="M30.5 15.5v-4h-4v-3h4v-4h3v4h4v3h-4v4z"></path><path d="M33 5v4h4v2h-4v4h-2v-4h-4V9h4V5h2m1-1h-4v4h-4v4h4v4h4v-4h4V8h-4V4z" fill="#c74343"></path></g><g><path fill="#c2e8ff" d="M7.5 5.5V4.207L10.207 1.5h8.586L21.5 4.207V5.5z"></path><path d="M18.586 2L21 4.414V5H8v-.586L10.414 2h8.172M19 1h-9L7 4v2h15V4l-3-3z" fill="#7496c4"></path></g><g><path fill="#ffeea3" d="M18 29h1v1h-1z"></path></g><g><path fill="#ffeea3" d="M10 29h1v1h-1z"></path></g><g><path fill="#ba9b48" d="M14 31h1v8h-1z"></path></g><path fill="#ba9b48" d="M11 26h1v3h-1zM17 26h1v3h-1z"></path></svg>