<svg viewBox="0 0 40 40" xmlns="http://www.w3.org/2000/svg"><path d="M11 2S1.786 30.941 1.591 31.999a5.5 5.5 0 009.298 4.89C12.481 35.297 32 16 32 16" fill="none" stroke="#7496c4" stroke-miterlimit="10"></path><path d="M31.3 18.685C29.5 16.8 29.5 14.982 29.5 11v-.266a2.987 2.987 0 002 .766c1.654 0 3-1.346 3-3s-1.346-3-3-3-3 1.346-3 3c0 .768.29 1.469.766 2H29c-3.982 0-5.8 0-7.683-1.796a8.09 8.09 0 01-.131-.131l4.968-4.968c1.37-1.357 3.189-2.105 5.122-2.105s3.751.748 5.123 2.107c2.81 2.822 2.81 7.418-.003 10.243l-4.966 4.966c-.043-.043-.087-.086-.13-.131z" fill="#b6c9d6"></path><path d="M31.276 2c1.8 0 3.494.697 4.767 1.957 2.618 2.63 2.618 6.91.002 9.538l-.352.352-4.251 4.251c-1.352-1.562-1.436-3.212-1.441-6.436.454.217.963.338 1.499.338 1.93 0 3.5-1.57 3.5-3.5S33.43 5 31.5 5a3.504 3.504 0 00-3.162 5c-3.224-.005-4.873-.089-6.433-1.438l4.599-4.599A6.74 6.74 0 0131.276 2m0-1a7.77 7.77 0 00-5.475 2.252l-5.306 5.306c.154.169.305.342.478.507C23 11 25 11 29 11c0 4 0 6 1.938 8.031.165.173.338.324.507.479l4.955-4.954.352-.352c2.998-3.012 2.998-7.939 0-10.951A7.77 7.77 0 0031.276 1zm.224 10a2.5 2.5 0 110-5 2.5 2.5 0 010 5z" fill="#788b9c"></path><g><path d="M7 28c2.757 0 5 2.243 5 5s-2.243 5-5 5-5-2.243-5-5 2.243-5 5-5m0-1a6 6 0 100 12 6 6 0 000-12z" fill="#788b9c"></path></g></svg>