<svg viewBox="0 0 40 40" xmlns="http://www.w3.org/2000/svg"><path d="M3.5 35.5c-1.103 0-2-.897-2-2v-27c0-1.103.897-2 2-2h33c1.103 0 2 .897 2 2v27c0 1.103-.897 2-2 2h-33z" fill="#dcd5f2"></path><path d="M36.5 5c.827 0 1.5.673 1.5 1.5v27c0 .827-.673 1.5-1.5 1.5h-33c-.827 0-1.5-.673-1.5-1.5v-27C2 5.673 2.673 5 3.5 5h33m0-1h-33A2.5 2.5 0 001 6.5v27A2.5 2.5 0 003.5 36h33a2.5 2.5 0 002.5-2.5v-27A2.5 2.5 0 0036.5 4z" fill="#8b75a1"></path><path d="M24 29.5c-5.238 0-9.5-4.262-9.5-9.5s4.262-9.5 9.5-9.5 9.5 4.262 9.5 9.5-4.262 9.5-9.5 9.5z" fill="#b0c1d4"></path><path d="M24 11c4.963 0 9 4.037 9 9s-4.037 9-9 9-9-4.037-9-9 4.037-9 9-9m0-1c-5.523 0-10 4.477-10 10s4.477 10 10 10 10-4.477 10-10-4.477-10-10-10z" fill="#66798f"></path><circle cx="24" cy="20" r="5.5" fill="#e1ebf2"></circle><path d="M24 15c2.757 0 5 2.243 5 5s-2.243 5-5 5-5-2.243-5-5 2.243-5 5-5m0-1a6 6 0 100 12 6 6 0 000-12z" fill="#66798f"></path><path d="M7 12a2 2 0 00-2 2v12a2 2 0 104 0V14a2 2 0 00-2-2z" fill="#788b9c"></path><path d="M7 27a1 1 0 01-1-1v-6h2v6a1 1 0 01-1 1z" fill="#e1ebf2"></path><path d="M7 13a1 1 0 011 1v6H6v-6a1 1 0 011-1z" fill="#fff"></path><path fill="none" stroke="#66798f" stroke-miterlimit="10" d="M21.267 13.401l-.82-1.98M30.599 17.267l1.98-.82M15.421 23.553l1.98-.82M26.733 13.401l.82-1.98M20.447 28.579l.82-1.98M15.421 16.447l1.98.82"></path><path fill="#8b75a1" d="M4 35h5v2H4zM37 11h2v4h-2zM37 25h2v4h-2z"></path><g><circle cx="31" cy="31" r="8.5" fill="#bae0bd"></circle><path d="M31 23c4.411 0 8 3.589 8 8s-3.589 8-8 8-8-3.589-8-8 3.589-8 8-8m0-1c-4.971 0-9 4.029-9 9s4.029 9 9 9 9-4.029 9-9-4.029-9-9-9z" fill="#5e9c76"></path></g><path fill="none" stroke="#fff" stroke-width="2" stroke-miterlimit="10" d="M26.821 31.025l2.77 2.769 6.23-6.231"></path></svg>