<svg viewBox="0 0 40 40" xmlns="http://www.w3.org/2000/svg"><path d="M17.74 8.585c3.178.41 15.102 2.502 17.63 11l-13.036 1.862L17.74 8.585z" fill="#c2e8ff"></path><path d="M18.489 9.195c3.848.595 13.636 2.796 16.221 9.979l-12.042 1.72-4.179-11.699M17 8l5 14 14-2C33.384 9.258 17 8 17 8z" fill="#7496c4"></path><path fill="#a16a4a" d="M12 2h1v25h-1z"></path><path d="M12.5 2.5h.857c2.163 0 4.123.913 5.698 1.646.23.107.45.21.659.304a6.495 6.495 0 01-.783.047c-.507 0-.982-.051-1.486-.104a14.398 14.398 0 00-1.564-.109c-1.174 0-2.244.268-3.381.855V2.5z" fill="#f78f8f"></path><path d="M13.357 3c1.362 0 2.658.391 3.824.862a12.739 12.739 0 00-1.299-.078A7.394 7.394 0 0013 4.355V3h.357m0-1H12v4c1.57-.979 2.78-1.217 3.882-1.217 1.043 0 1.989.213 3.05.213.768 0 1.597-.112 2.568-.497C20.121 4.479 17.005 2 13.357 2z" fill="#c74343"></path><path d="M12.858 23.142c3.498-6.856 1.192-13.756.08-16.331 3.513 1.168 14.623 5.626 16.476 15.711l-16.556.62z" fill="#c2e8ff"></path><path d="M13.837 7.657c4.116 1.536 13.046 5.799 14.97 14.387l-15.137.567c2.75-6.054 1.316-11.911.167-14.954M12 6s5.031 8.956 0 17.674L30 23C28.109 10.142 12 6 12 6z" fill="#7496c4"></path><g><path d="M6.249 34.5c-.678-.923-3.552-5.11-3.739-10h6.283l2 2h15.414l2-2h8.28c-.294 5.979-5.784 9.497-6.622 10H6.249z" fill="#ffc49c"></path><path d="M35.948 25c-.543 5.193-5.181 8.352-6.224 9H6.504c-.81-1.143-3.134-4.753-3.464-9h5.546l1.707 1.707.293.293h15.828l.293-.293L28.414 25h7.534M37 24h-9l-2 2H11l-2-2H2c0 5.987 4 11 4 11h24s7-3.856 7-11z" fill="#a16a4a"></path></g><path d="M1 39h38v-7.123c-1.308-.263-2.852-.877-4-.877-1.458 0-3.563 1-5 1-1.438 0-3.542-1-5-1s-3.563 1-5 1c-1.438 0-3.542-1-5-1s-3.563 1-5 1c-1.438 0-3.542-1-5-1-1.148 0-2.692.614-4 .877V39z" fill="#8bb7f0"></path><g><path d="M35 31c-1.458 0-3.563 1-5 1-1.438 0-3.542-1-5-1s-3.563 1-5 1c-1.438 0-3.542-1-5-1s-3.563 1-5 1c-1.438 0-3.542-1-5-1-1.148 0-2.692.614-4 .877V32.9c.574-.103 1.17-.271 1.754-.435C3.566 32.237 4.406 32 5 32s1.434.237 2.246.465c.934.263 1.9.535 2.754.535s1.82-.272 2.754-.535C13.566 32.237 14.406 32 15 32s1.434.237 2.246.465c.934.263 1.9.535 2.754.535s1.82-.272 2.754-.535C23.566 32.237 24.406 32 25 32s1.434.237 2.246.465c.934.263 1.9.535 2.754.535s1.82-.272 2.754-.535C33.566 32.237 34.406 32 35 32s1.434.237 2.246.465c.584.165 1.18.332 1.754.435v-1.023c-1.308-.263-2.852-.877-4-.877z" fill="#4e7ab5"></path></g></svg>