<svg viewBox="0 0 40 40" xmlns="http://www.w3.org/2000/svg"><path fill="#a16a4a" d="M13 2h1v25h-1z"></path><path d="M5.97 33.747c-.522-.797-2.336-3.873-2.463-8.262l31.993-.97v.021c-2.764.308-3.324 2.213-3.916 4.224-.491 1.668-.998 3.392-2.753 4.741l-22.861.246z" fill="#ffc49c"></path><path d="M32.891 25.095c-1.019.917-1.418 2.271-1.787 3.525-.455 1.547-.926 3.145-2.45 4.384l-22.411.24c-.596-.972-1.996-3.614-2.214-7.275l28.862-.874M36 24L3 25c0 5.625 2.708 9.25 2.708 9.25L29 34c4.412-3.237 1.849-8.782 7-9v-1z" fill="#a16a4a"></path><path d="M13.5 2.5h.857c2.163 0 4.123.913 5.698 1.646.23.107.45.21.659.304a6.495 6.495 0 01-.783.047c-.507 0-.982-.051-1.486-.104a14.398 14.398 0 00-1.564-.109c-1.174 0-2.244.268-3.381.855V2.5z" fill="#f78f8f"></path><path d="M14.357 3c1.362 0 2.658.391 3.824.862a12.739 12.739 0 00-1.299-.078A7.394 7.394 0 0014 4.355V3h.357m0-1H13v4c1.57-.979 2.78-1.217 3.882-1.217 1.043 0 1.989.213 3.05.213.768 0 1.597-.112 2.568-.497C21.121 4.479 18.005 2 14.357 2z" fill="#c74343"></path><path d="M13.858 23.142c3.498-6.856 1.192-13.756.08-16.331 3.513 1.168 14.623 5.626 16.476 15.711l-16.556.62z" fill="#c2e8ff"></path><path d="M14.837 7.657c4.116 1.536 13.046 5.799 14.97 14.387l-15.137.567c2.75-6.054 1.316-11.911.167-14.954M13 6s5.031 8.956 0 17.674L31 23C29.109 10.142 13 6 13 6z" fill="#7496c4"></path><path d="M1 39h38v-7.123c-1.308-.263-2.852-.877-4-.877-1.458 0-3.563 1-5 1-1.438 0-3.542-1-5-1s-3.563 1-5 1c-1.438 0-3.542-1-5-1s-3.563 1-5 1c-1.438 0-3.542-1-5-1-1.148 0-2.692.614-4 .877V39z" fill="#8bb7f0"></path><g><path d="M35 31c-1.458 0-3.563 1-5 1-1.438 0-3.542-1-5-1s-3.563 1-5 1c-1.438 0-3.542-1-5-1s-3.563 1-5 1c-1.438 0-3.542-1-5-1-1.148 0-2.692.614-4 .877V32.9c.574-.103 1.17-.271 1.754-.435C3.566 32.237 4.406 32 5 32s1.434.237 2.246.465c.934.263 1.9.535 2.754.535s1.82-.272 2.754-.535C13.566 32.237 14.406 32 15 32s1.434.237 2.246.465c.934.263 1.9.535 2.754.535s1.82-.272 2.754-.535C23.566 32.237 24.406 32 25 32s1.434.237 2.246.465c.934.263 1.9.535 2.754.535s1.82-.272 2.754-.535C33.566 32.237 34.406 32 35 32s1.434.237 2.246.465c.584.165 1.18.332 1.754.435v-1.023c-1.308-.263-2.852-.877-4-.877z" fill="#4e7ab5"></path></g></svg>