<svg viewBox="0 0 40 40" xmlns="http://www.w3.org/2000/svg"><path fill="#a16a4a" d="M6 2h1v19H6z"></path><path d="M1.703 16.5c.307-.968.797-2.854.797-5s-.491-4.032-.797-5h13.963c.313.791 1.12 3.054 1.12 5.357 0 2.259-.771 4.02-1.084 4.643H1.703z" fill="#c2e8ff"></path><path d="M15.323 7c.349.942.963 2.881.963 4.857A10.29 10.29 0 0115.385 16H2.37c.296-1.082.63-2.704.63-4.5 0-1.796-.334-3.418-.63-4.5h12.953M16 6H1s1 2.508 1 5.5S1 17 1 17h15s1.286-2.151 1.286-5.143S16 6 16 6z" fill="#7496c4"></path><path fill="#a16a4a" d="M30 5h1v20.357h-1zM17 1h1v24.429h-1z"></path><path d="M4.521 33.5c.052-1.767.062-7.523-1.757-12h6.147l1.031 1.798c.397.747 1.198 1.202 2.135 1.202h14.13l1.977-1.977 7.971.886c-3.021 4.958-3.547 8.758-3.637 10.091H4.521z" fill="#ffc49c"></path><path d="M8.621 22l.871 1.518c.493.928 1.459 1.482 2.585 1.482h14.337l.293-.293 1.66-1.66 6.962.774c-2.441 4.231-3.094 7.579-3.268 9.18H5.031c.029-2.104-.088-6.934-1.542-11h5.132M9.2 21H2c2.448 5.235 2 13 2 13h29s-.095-4.625 4-11l-9-1-2 2H12.077c-.713 0-1.367-.322-1.702-.951L9.2 21z" fill="#a16a4a"></path><path d="M3 23.5c-.771 0-1.5-.729-1.5-1.5v-2.5h6.217l2.4 4H3z" fill="#ffc49c"></path><path d="M7.434 20l1.8 3H3c-.486 0-1-.514-1-1v-2h5.434M8 19H1v3c0 1.04.96 2 2 2h8l-3-5z" fill="#a16a4a"></path><path d="M27 23.5l2.25-3h8.979l-.898 2.008c-.207.612-.734.992-1.331.992h-9z" fill="#ffc49c"></path><path d="M37.457 21l-.583 1.304-.02.045-.016.047A.882.882 0 0136 23h-8l1.5-2h7.957M39 20H29l-3 4h10c.811 0 1.531-.519 1.787-1.288L39 20z" fill="#a16a4a"></path><path d="M11.651 20.5c.292-1.19.849-3.931.849-7.5 0-3.57-.557-6.31-.849-7.5h14.967c.247.961.882 3.795.882 7.5 0 3.704-.635 6.538-.882 7.5H11.651z" fill="#c2e8ff"></path><path d="M26.226 6c.278 1.182.774 3.75.774 7s-.496 5.817-.774 7H12.279c.306-1.417.721-3.905.721-7s-.415-5.583-.721-7h13.947M27 5H11s1 3.286 1 8-1 8-1 8h16s1-3.286 1-8-1-8-1-8z" fill="#7496c4"></path><path d="M23.716 18.5c.308-.92.784-2.643.784-4.5s-.476-3.58-.784-4.5h13.041c.436.581 1.744 2.49 1.744 4.5 0 2.017-1.307 3.921-1.743 4.5H23.716z" fill="#c2e8ff"></path><path d="M36.502 10c.495.7 1.498 2.326 1.498 4 0 1.675-1.004 3.301-1.498 4H24.394c.29-1.008.606-2.459.606-4s-.316-2.992-.606-4h12.108M37 9H23s1 2.382 1 5-1 5-1 5h14s2-2.382 2-5-2-5-2-5z" fill="#7496c4"></path><g><path d="M6.5 2.5h.857c.939 0 1.709.802 2.455 1.576.288.299.568.592.857.833a3.413 3.413 0 01-.68.073c-.457 0-.799-.113-1.13-.223-.309-.102-.628-.207-.998-.207-.44 0-.873.146-1.361.472V2.5z" fill="#f78f8f"></path><path d="M7.357 3c.723 0 1.416.718 2.086 1.415a5.916 5.916 0 01-.428-.13c-.33-.109-.704-.233-1.154-.233A2.5 2.5 0 007 4.205V3h.357m0-1H6v4.071c.848-.791 1.391-1.019 1.861-1.019.645 0 1.153.431 2.127.431.513 0 1.154-.119 2.012-.483-1.379-.021-2.561-3-4.643-3z" fill="#c74343"></path></g><g><path d="M30.5 5.5h.857c.939 0 1.709.802 2.455 1.576.288.299.568.592.857.833a3.413 3.413 0 01-.68.073c-.457 0-.799-.113-1.13-.223-.309-.103-.627-.208-.998-.208-.44 0-.873.146-1.361.472V5.5z" fill="#f78f8f"></path><path d="M31.357 6c.723 0 1.416.718 2.086 1.415a5.453 5.453 0 01-.428-.13c-.33-.109-.704-.233-1.154-.233a2.5 2.5 0 00-.861.153V6h.357m0-1H30v4.071c.848-.791 1.391-1.019 1.861-1.019.645 0 1.153.431 2.127.431.513 0 1.154-.119 2.012-.483-1.379-.021-2.561-3-4.643-3z" fill="#c74343"></path></g><g><path d="M17.5 1.5h.857c2.163 0 4.123.913 5.698 1.646.23.107.45.21.659.304a6.495 6.495 0 01-.783.047c-.507 0-.982-.051-1.486-.104a14.398 14.398 0 00-1.564-.109c-1.174 0-2.244.268-3.381.855V1.5z" fill="#f78f8f"></path><path d="M18.357 2c1.362 0 2.658.391 3.824.862a12.739 12.739 0 00-1.299-.078A7.394 7.394 0 0018 3.355V2h.357m0-1H17v4c1.57-.979 2.78-1.217 3.882-1.217 1.043 0 1.989.213 3.05.213.768 0 1.597-.112 2.568-.497C25.121 3.479 22.005 1 18.357 1z" fill="#c74343"></path></g><path d="M1 39h38v-7.123c-1.308-.263-2.852-.877-4-.877-1.458 0-3.563 1-5 1-1.438 0-3.542-1-5-1s-3.563 1-5 1c-1.438 0-3.542-1-5-1s-3.563 1-5 1c-1.438 0-3.542-1-5-1-1.148 0-2.692.614-4 .877V39z" fill="#8bb7f0"></path><g><path d="M35 31c-1.458 0-3.563 1-5 1-1.438 0-3.542-1-5-1s-3.563 1-5 1c-1.438 0-3.542-1-5-1s-3.563 1-5 1c-1.438 0-3.542-1-5-1-1.148 0-2.692.614-4 .877V32.9c.574-.103 1.17-.271 1.754-.435C3.566 32.237 4.406 32 5 32s1.434.237 2.246.465c.934.263 1.9.535 2.754.535s1.82-.272 2.754-.535C13.566 32.237 14.406 32 15 32s1.434.237 2.246.465c.934.263 1.9.535 2.754.535s1.82-.272 2.754-.535C23.566 32.237 24.406 32 25 32s1.434.237 2.246.465c.934.263 1.9.535 2.754.535s1.82-.272 2.754-.535C33.566 32.237 34.406 32 35 32s1.434.237 2.246.465c.584.165 1.18.332 1.754.435v-1.023c-1.308-.263-2.852-.877-4-.877z" fill="#4e7ab5"></path></g></svg>