<svg viewBox="0 0 40 40" xmlns="http://www.w3.org/2000/svg"><path d="M32.5 37.5c-3.536 0-6-1.317-6-2.5v-2.5h12V35c0 1.183-2.464 2.5-6 2.5z" fill="#e8d47b"></path><path d="M38 33v2c0 .796-2.194 2-5.5 2S27 35.796 27 35v-2h11m1-1H26v3c0 1.657 2.91 3 6.5 3s6.5-1.343 6.5-3v-3z" fill="#ba9b48"></path><g fill="#ffeea3"><path d="M35 36.741a9.265 9.265 0 001-.271v-3.307h-1v3.578zM30 36.741c.313.067.647.12 1 .162v-3.741h-1v3.579z"></path></g><path d="M32.5 34.5c-3.536 0-6-1.317-6-2.5v-2.5h12V32c0 1.183-2.464 2.5-6 2.5z" fill="#e8d47b"></path><path d="M38 30v2c0 .796-2.194 2-5.5 2S27 32.796 27 32v-2h11m1-1H26v3c0 1.657 2.91 3 6.5 3s6.5-1.343 6.5-3v-3z" fill="#ba9b48"></path><g fill="#ffeea3"><path d="M35 33.741a9.265 9.265 0 001-.271v-3.307h-1v3.578zM30 33.741c.313.067.647.12 1 .162v-3.741h-1v3.579z"></path></g><path d="M32.5 31.5c-3.536 0-6-1.317-6-2.5v-2.5h12V29c0 1.183-2.464 2.5-6 2.5z" fill="#e8d47b"></path><path d="M38 27v2c0 .796-2.194 2-5.5 2S27 29.796 27 29v-2h11m1-1H26v3c0 1.657 2.91 3 6.5 3s6.5-1.343 6.5-3v-3z" fill="#ba9b48"></path><g fill="#ffeea3"><path d="M35 30.741a9.265 9.265 0 001-.271v-3.307h-1v3.578zM30 30.741c.313.067.647.12 1 .162v-3.741h-1v3.579z"></path></g><path d="M32.5 28.5c-3.536 0-6-1.317-6-2.5v-2.5h12V26c0 1.183-2.464 2.5-6 2.5z" fill="#e8d47b"></path><path d="M38 24v2c0 .796-2.194 2-5.5 2S27 26.796 27 26v-2h11m1-1H26v3c0 1.657 2.91 3 6.5 3s6.5-1.343 6.5-3v-3z" fill="#ba9b48"></path><g fill="#ffeea3"><path d="M35 27.741a9.265 9.265 0 001-.271v-3.307h-1v3.578zM30 27.741c.313.067.647.12 1 .162v-3.741h-1v3.579z"></path></g><path d="M32.5 25.5c-3.536 0-6-1.317-6-2.5v-2.5h12V23c0 1.183-2.464 2.5-6 2.5z" fill="#e8d47b"></path><path d="M38 21v2c0 .796-2.194 2-5.5 2S27 23.796 27 23v-2h11m1-1H26v3c0 1.657 2.91 3 6.5 3s6.5-1.343 6.5-3v-3z" fill="#ba9b48"></path><g fill="#ffeea3"><path d="M35 24.741a9.265 9.265 0 001-.271v-3.307h-1v3.578zM30 24.741c.313.067.647.12 1 .162v-3.741h-1v3.579z"></path></g><path d="M32.5 22.5c-3.536 0-6-1.317-6-2.5v-2.5h12V20c0 1.183-2.464 2.5-6 2.5z" fill="#e8d47b"></path><path d="M38 18v2c0 .796-2.194 2-5.5 2S27 20.796 27 20v-2h11m1-1H26v3c0 1.657 2.91 3 6.5 3s6.5-1.343 6.5-3v-3z" fill="#ba9b48"></path><g fill="#ffeea3"><path d="M35 21.741a9.265 9.265 0 001-.271v-3.307h-1v3.578zM30 21.741c.313.067.647.12 1 .162v-3.741h-1v3.579z"></path></g><path d="M32.5 19.5c-3.536 0-6-1.317-6-2.5v-2.5h12V17c0 1.183-2.464 2.5-6 2.5z" fill="#e8d47b"></path><path d="M38 15v2c0 .796-2.194 2-5.5 2S27 17.796 27 17v-2h11m1-1H26v3c0 1.657 2.91 3 6.5 3s6.5-1.343 6.5-3v-3z" fill="#ba9b48"></path><g fill="#ffeea3"><path d="M35 18.741a9.265 9.265 0 001-.271v-3.307h-1v3.578zM30 18.741c.313.067.647.12 1 .162v-3.741h-1v3.579z"></path></g><path d="M32.5 16.5c-3.536 0-6-1.317-6-2.5v-2.5h12V14c0 1.183-2.464 2.5-6 2.5z" fill="#e8d47b"></path><path d="M38 12v2c0 .796-2.194 2-5.5 2S27 14.796 27 14v-2h11m1-1H26v3c0 1.657 2.91 3 6.5 3s6.5-1.343 6.5-3v-3z" fill="#ba9b48"></path><g fill="#ffeea3"><path d="M35 15.741a9.265 9.265 0 001-.271v-3.307h-1v3.578zM30 15.741c.313.067.647.12 1 .162v-3.741h-1v3.579z"></path></g><path d="M32.5 13.5c-3.536 0-6-1.317-6-2.5V8.5h12V11c0 1.183-2.464 2.5-6 2.5z" fill="#e8d47b"></path><path d="M38 9v2c0 .796-2.194 2-5.5 2S27 11.796 27 11V9h11m1-1H26v3c0 1.657 2.91 3 6.5 3s6.5-1.343 6.5-3V8z" fill="#ba9b48"></path><g fill="#ffeea3"><path d="M35 12.741a9.265 9.265 0 001-.271V9.163h-1v3.578zM30 12.741c.313.067.647.12 1 .162v-3.74h-1v3.578z"></path></g><path d="M32.5 10.5c-3.536 0-6-1.317-6-2.5V5.5h12V8c0 1.183-2.464 2.5-6 2.5z" fill="#e8d47b"></path><path d="M38 6v2c0 .796-2.194 2-5.5 2S27 8.796 27 8V6h11m1-1H26v3c0 1.657 2.91 3 6.5 3S39 9.657 39 8V5z" fill="#ba9b48"></path><g fill="#ffeea3"><path d="M35 9.741a9.265 9.265 0 001-.271V6.163h-1v3.578zM30 9.741c.313.067.647.12 1 .162v-3.74h-1v3.578z"></path></g><path d="M32.5 7.5c-3.536 0-6-1.317-6-2.5s2.464-2.5 6-2.5 6 1.317 6 2.5-2.464 2.5-6 2.5z" fill="#ffeea3"></path><path d="M32.5 3C35.806 3 38 4.204 38 5s-2.194 2-5.5 2S27 5.796 27 5s2.194-2 5.5-2m0-1C28.91 2 26 3.343 26 5s2.91 3 6.5 3S39 6.657 39 5s-2.91-3-6.5-3z" fill="#ba9b48"></path><path d="M8.5 37.5c-3.536 0-6-1.317-6-2.5v-2.5h12V35c0 1.183-2.464 2.5-6 2.5z" fill="#e8d47b"></path><path d="M14 33v2c0 .796-2.194 2-5.5 2S3 35.796 3 35v-2h11m1-1H2v3c0 1.657 2.91 3 6.5 3s6.5-1.343 6.5-3v-3z" fill="#ba9b48"></path><g fill="#ffeea3"><path d="M11 36.741a9.265 9.265 0 001-.271v-3.307h-1v3.578zM6 36.741c.313.067.647.12 1 .162v-3.741H6v3.579z"></path></g><path d="M8.5 34.5c-3.536 0-6-1.317-6-2.5v-2.5h12V32c0 1.183-2.464 2.5-6 2.5z" fill="#e8d47b"></path><path d="M14 30v2c0 .796-2.194 2-5.5 2S3 32.796 3 32v-2h11m1-1H2v3c0 1.657 2.91 3 6.5 3s6.5-1.343 6.5-3v-3z" fill="#ba9b48"></path><g fill="#ffeea3"><path d="M11 33.741a9.265 9.265 0 001-.271v-3.307h-1v3.578zM6 33.741c.313.067.647.12 1 .162v-3.741H6v3.579z"></path></g><path d="M8.5 31.5c-3.536 0-6-1.317-6-2.5v-2.5h12V29c0 1.183-2.464 2.5-6 2.5z" fill="#e8d47b"></path><path d="M14 27v2c0 .796-2.194 2-5.5 2S3 29.796 3 29v-2h11m1-1H2v3c0 1.657 2.91 3 6.5 3s6.5-1.343 6.5-3v-3z" fill="#ba9b48"></path><g fill="#ffeea3"><path d="M11 30.741a9.265 9.265 0 001-.271v-3.307h-1v3.578zM6 30.741c.313.067.647.12 1 .162v-3.741H6v3.579z"></path></g><path d="M8.5 28.5c-3.536 0-6-1.317-6-2.5v-2.5h12V26c0 1.183-2.464 2.5-6 2.5z" fill="#e8d47b"></path><path d="M14 24v2c0 .796-2.194 2-5.5 2S3 26.796 3 26v-2h11m1-1H2v3c0 1.657 2.91 3 6.5 3s6.5-1.343 6.5-3v-3z" fill="#ba9b48"></path><g fill="#ffeea3"><path d="M11 27.741a9.265 9.265 0 001-.271v-3.307h-1v3.578zM6 27.741c.313.067.647.12 1 .162v-3.741H6v3.579z"></path></g><path d="M8.5 25.5c-3.536 0-6-1.317-6-2.5v-2.5h12V23c0 1.183-2.464 2.5-6 2.5z" fill="#e8d47b"></path><path d="M14 21v2c0 .796-2.194 2-5.5 2S3 23.796 3 23v-2h11m1-1H2v3c0 1.657 2.91 3 6.5 3s6.5-1.343 6.5-3v-3z" fill="#ba9b48"></path><g fill="#ffeea3"><path d="M11 24.741a9.265 9.265 0 001-.271v-3.307h-1v3.578zM6 24.741c.313.067.647.12 1 .162v-3.741H6v3.579z"></path></g><path d="M8.5 22.5c-3.536 0-6-1.317-6-2.5v-2.5h12V20c0 1.183-2.464 2.5-6 2.5z" fill="#e8d47b"></path><path d="M14 18v2c0 .796-2.194 2-5.5 2S3 20.796 3 20v-2h11m1-1H2v3c0 1.657 2.91 3 6.5 3s6.5-1.343 6.5-3v-3z" fill="#ba9b48"></path><g fill="#ffeea3"><path d="M11 21.741a9.265 9.265 0 001-.271v-3.307h-1v3.578zM6 21.741c.313.067.647.12 1 .162v-3.741H6v3.579z"></path></g><path d="M8.5 19.5c-3.536 0-6-1.317-6-2.5v-2.5h12V17c0 1.183-2.464 2.5-6 2.5z" fill="#e8d47b"></path><path d="M14 15v2c0 .796-2.194 2-5.5 2S3 17.796 3 17v-2h11m1-1H2v3c0 1.657 2.91 3 6.5 3s6.5-1.343 6.5-3v-3z" fill="#ba9b48"></path><g fill="#ffeea3"><path d="M11 18.741a9.265 9.265 0 001-.271v-3.307h-1v3.578zM6 18.741c.313.067.647.12 1 .162v-3.741H6v3.579z"></path></g><path d="M8.5 16.5c-3.536 0-6-1.317-6-2.5v-2.5h12V14c0 1.183-2.464 2.5-6 2.5z" fill="#e8d47b"></path><path d="M14 12v2c0 .796-2.194 2-5.5 2S3 14.796 3 14v-2h11m1-1H2v3c0 1.657 2.91 3 6.5 3s6.5-1.343 6.5-3v-3z" fill="#ba9b48"></path><g fill="#ffeea3"><path d="M11 15.741a9.265 9.265 0 001-.271v-3.307h-1v3.578zM6 15.741c.313.067.647.12 1 .162v-3.741H6v3.579z"></path></g><g><path d="M8.5 13.5c-3.536 0-6-1.317-6-2.5V8.5h12V11c0 1.183-2.464 2.5-6 2.5z" fill="#e8d47b"></path><path d="M14 9v2c0 .796-2.194 2-5.5 2S3 11.796 3 11V9h11m1-1H2v3c0 1.657 2.91 3 6.5 3s6.5-1.343 6.5-3V8z" fill="#ba9b48"></path></g><g fill="#ffeea3"><path d="M11 12.741a9.265 9.265 0 001-.271V9.163h-1v3.578zM6 12.741c.313.067.647.12 1 .162v-3.74H6v3.578z"></path></g><g><path d="M8.5 10.5c-3.536 0-6-1.317-6-2.5s2.464-2.5 6-2.5 6 1.317 6 2.5-2.464 2.5-6 2.5z" fill="#ffeea3"></path><path d="M8.5 6C11.806 6 14 7.204 14 8s-2.194 2-5.5 2S3 8.796 3 8s2.194-2 5.5-2m0-1C4.91 5 2 6.343 2 8s2.91 3 6.5 3S15 9.657 15 8s-2.91-3-6.5-3z" fill="#ba9b48"></path></g><g><path d="M20.5 37.5c-3.536 0-6-1.317-6-2.5v-2.5h12V35c0 1.183-2.464 2.5-6 2.5z" fill="#e8d47b"></path><path d="M26 33v2c0 .796-2.194 2-5.5 2S15 35.796 15 35v-2h11m1-1H14v3c0 1.657 2.91 3 6.5 3s6.5-1.343 6.5-3v-3z" fill="#ba9b48"></path></g><g fill="#ffeea3"><path d="M23 36.741a9.265 9.265 0 001-.271v-3.307h-1v3.578zM18 36.741c.313.067.647.12 1 .162v-3.741h-1v3.579z"></path></g><g><path d="M20.5 34.5c-3.536 0-6-1.317-6-2.5v-2.5h12V32c0 1.183-2.464 2.5-6 2.5z" fill="#e8d47b"></path><path d="M26 30v2c0 .796-2.194 2-5.5 2S15 32.796 15 32v-2h11m1-1H14v3c0 1.657 2.91 3 6.5 3s6.5-1.343 6.5-3v-3z" fill="#ba9b48"></path></g><g fill="#ffeea3"><path d="M23 33.741a9.265 9.265 0 001-.271v-3.307h-1v3.578zM18 33.741c.313.067.647.12 1 .162v-3.741h-1v3.579z"></path></g><g><path d="M20.5 31.5c-3.536 0-6-1.317-6-2.5v-2.5h12V29c0 1.183-2.464 2.5-6 2.5z" fill="#e8d47b"></path><path d="M26 27v2c0 .796-2.194 2-5.5 2S15 29.796 15 29v-2h11m1-1H14v3c0 1.657 2.91 3 6.5 3s6.5-1.343 6.5-3v-3z" fill="#ba9b48"></path></g><g fill="#ffeea3"><path d="M23 30.741a9.265 9.265 0 001-.271v-3.307h-1v3.578zM18 30.741c.313.067.647.12 1 .162v-3.741h-1v3.579z"></path></g><g><path d="M20.5 28.5c-3.536 0-6-1.317-6-2.5v-2.5h12V26c0 1.183-2.464 2.5-6 2.5z" fill="#e8d47b"></path><path d="M26 24v2c0 .796-2.194 2-5.5 2S15 26.796 15 26v-2h11m1-1H14v3c0 1.657 2.91 3 6.5 3s6.5-1.343 6.5-3v-3z" fill="#ba9b48"></path></g><g fill="#ffeea3"><path d="M23 27.741a9.265 9.265 0 001-.271v-3.307h-1v3.578zM18 27.741c.313.067.647.12 1 .162v-3.741h-1v3.579z"></path></g><g><path d="M20.5 25.5c-3.536 0-6-1.317-6-2.5v-2.5h12V23c0 1.183-2.464 2.5-6 2.5z" fill="#e8d47b"></path><path d="M26 21v2c0 .796-2.194 2-5.5 2S15 23.796 15 23v-2h11m1-1H14v3c0 1.657 2.91 3 6.5 3s6.5-1.343 6.5-3v-3z" fill="#ba9b48"></path></g><g fill="#ffeea3"><path d="M23 24.741a9.265 9.265 0 001-.271v-3.307h-1v3.578zM18 24.741c.313.067.647.12 1 .162v-3.741h-1v3.579z"></path></g><g><path d="M20.5 22.5c-3.536 0-6-1.317-6-2.5v-2.5h12V20c0 1.183-2.464 2.5-6 2.5z" fill="#e8d47b"></path><path d="M26 18v2c0 .796-2.194 2-5.5 2S15 20.796 15 20v-2h11m1-1H14v3c0 1.657 2.91 3 6.5 3s6.5-1.343 6.5-3v-3z" fill="#ba9b48"></path></g><g fill="#ffeea3"><path d="M23 21.741a9.265 9.265 0 001-.271v-3.307h-1v3.578zM18 21.741c.313.067.647.12 1 .162v-3.741h-1v3.579z"></path></g><g><path d="M20.5 19.5c-3.536 0-6-1.317-6-2.5v-2.5h12V17c0 1.183-2.464 2.5-6 2.5z" fill="#e8d47b"></path><path d="M26 15v2c0 .796-2.194 2-5.5 2S15 17.796 15 17v-2h11m1-1H14v3c0 1.657 2.91 3 6.5 3s6.5-1.343 6.5-3v-3z" fill="#ba9b48"></path></g><g fill="#ffeea3"><path d="M23 18.741a9.265 9.265 0 001-.271v-3.307h-1v3.578zM18 18.741c.313.067.647.12 1 .162v-3.741h-1v3.579z"></path></g><g><path d="M20.5 16.5c-3.536 0-6-1.317-6-2.5s2.464-2.5 6-2.5 6 1.317 6 2.5-2.464 2.5-6 2.5z" fill="#ffeea3"></path><path d="M20.5 12c3.306 0 5.5 1.204 5.5 2s-2.194 2-5.5 2-5.5-1.204-5.5-2 2.194-2 5.5-2m0-1c-3.59 0-6.5 1.343-6.5 3s2.91 3 6.5 3 6.5-1.343 6.5-3-2.91-3-6.5-3z" fill="#ba9b48"></path></g></svg>