<svg viewBox="0 0 40 40" xmlns="http://www.w3.org/2000/svg"><path d="M20 38.372a.699.699 0 01-.444-.158l-3.417-2.798-4.335.887a.622.622 0 01-.145.017.698.698 0 01-.638-.43l-1.728-4.066-4.246-1.225a.704.704 0 01-.501-.729l.36-4.405-3.191-3.06a.7.7 0 01-.107-.877l2.368-3.733-1.406-4.192a.7.7 0 01.315-.825l3.83-2.209.704-4.362a.7.7 0 01.661-.588l4.417-.175 2.651-3.537a.706.706 0 01.56-.279c.104 0 .204.023.298.068l3.993 1.899 3.992-1.899a.704.704 0 01.86.212l2.65 3.536 4.417.175c.33.013.609.26.664.588l.703 4.36 3.831 2.209a.703.703 0 01.314.827l-1.404 4.19 2.366 3.733a.7.7 0 01-.108.878l-3.19 3.06.36 4.406a.703.703 0 01-.503.728l-4.246 1.225-1.727 4.068a.706.706 0 01-.639.428.677.677 0 01-.141-.016l-4.337-.888-3.42 2.799a.687.687 0 01-.441.158z" fill="#f78f8f"></path><path d="M24.289 2.128c.063 0 .123.03.16.079l2.509 3.347.285.381.475.019 4.178.165a.203.203 0 01.19.166l.667 4.128.076.469.412.238 3.625 2.09a.2.2 0 01.09.234l-1.329 3.966-.151.451.255.402 2.238 3.531a.2.2 0 01-.031.251l-3.019 2.894-.343.329.039.474.34 4.169a.197.197 0 01-.142.207l-4.018 1.158-.457.132-.186.438-1.633 3.848c-.034.08-.106.119-.203.119l-.02-.001-4.1-.84-.466-.095-.368.301-3.235 2.648c-.037.03-.079.045-.126.045s-.09-.015-.126-.045l-3.235-2.648-.368-.301-.466.095-4.146.846a.2.2 0 01-.177-.123l-1.634-3.849-.186-.438-.457-.132-4.015-1.158a.2.2 0 01-.144-.208l.34-4.169.039-.474-.346-.328-3.02-2.896a.197.197 0 01-.03-.247l2.24-3.533.255-.402-.151-.451-1.33-3.965a.199.199 0 01.09-.235l3.624-2.09.412-.237.076-.469.667-4.128a.196.196 0 01.187-.168l4.179-.165.475-.019.285-.381 2.506-3.344a.205.205 0 01.163-.081c.029 0 .056.006.084.019l3.777 1.797.43.204.43-.204 3.781-1.799a.197.197 0 01.079-.017m0-1a1.18 1.18 0 00-.513.117l-3.777 1.797-3.777-1.797a1.206 1.206 0 00-1.474.363L12.24 4.954l-4.18.165a1.197 1.197 0 00-1.134 1.007l-.667 4.128-3.624 2.09c-.493.284-.72.877-.539 1.418l1.33 3.966-2.24 3.533a1.197 1.197 0 00.184 1.506l3.019 2.894-.34 4.169a1.2 1.2 0 00.861 1.249l4.018 1.158 1.634 3.849a1.203 1.203 0 001.344.707l4.101-.84 3.235 2.648a1.199 1.199 0 001.518 0l3.236-2.648 4.1.84a1.2 1.2 0 001.344-.706l1.634-3.849 4.018-1.158c.548-.159.908-.68.861-1.249l-.34-4.169 3.019-2.894a1.2 1.2 0 00.184-1.507l-2.239-3.533 1.329-3.966a1.201 1.201 0 00-.539-1.418l-3.624-2.09-.667-4.128a1.202 1.202 0 00-1.137-1.006l-4.179-.165-2.51-3.348a1.204 1.204 0 00-.961-.479z" fill="#c74343"></path><path d="M21.097 24.407h-1.603l-.794-2.244h-3.467l-.761 2.243h-1.599l3.3-8.813h1.647l3.277 8.814zm-2.784-3.436l-1.223-3.515a4.171 4.171 0 01-.116-.554h-.025a3.789 3.789 0 01-.122.554l-1.212 3.515h2.698zM27.188 24.407h-4.88v-8.813h1.463v7.578h3.417v1.235zM33.408 24.407H28.46v-8.813h4.75v1.241h-3.287v2.495h3.03v1.237h-3.03v2.606h3.484v1.234zM6.598 24.056V22.55c.135.124 1.077.793 2.28.793.615 0 1.825-.106 1.825-1.198 0-1.637-4.112-1.61-4.112-4.278 0-.674.444-2.422 3.252-2.422.922 0 1.594.105 2.015.314v1.444c-.499-.361-1.142-.542-1.93-.542-1.696 0-1.8.952-1.8 1.161 0 1.66 4.112 1.607 4.112 4.303 0 1.244-.865 2.427-3.312 2.427-1.24.002-2.206-.418-2.33-.496z" fill="#fff"></path></svg>