<svg viewBox="0 0 40 40" xmlns="http://www.w3.org/2000/svg"><path fill="#8bb7f0" d="M2.5 26.5h35v10h-35z"></path><path d="M37 27v9H3v-9h34m1-1H2v11h36V26z" fill="#4e7ab5"></path><path fill="#c2e8ff" d="M1.5 22.5v-.404L5.339 12.5h29.322l3.839 9.596v.404z"></path><path d="M34.323 13l3.6 9H2.077l3.6-9h28.646M35 12H5L1 22v1h38v-1l-4-10z" fill="#7496c4"></path><path d="M6.268 19.5l1.737-4.757C8.768 12.657 11.219 10.5 14 10.5c1.896 0 4.812.965 4.842.974l.231.078.204-.136C19.306 11.397 22.191 9.5 25 9.5c4.352 0 6.185 3.407 6.771 4.872.432 1.08 1.473 3.844 1.955 5.128H6.268z" fill="#ffeea3"></path><path d="M25 10c4.046 0 5.758 3.187 6.306 4.558.365.912 1.168 3.036 1.698 4.442H6.983l1.492-4.085C9.178 12.99 11.437 11 14 11c1.812 0 4.656.939 4.684.949l.464.154.407-.271C19.582 11.814 22.334 10 25 10m0-1c-3 0-6 2-6 2s-3-1-5-1c-2.889 0-5.579 2.15-6.465 4.571L5.553 20h28.895s-1.636-4.371-2.213-5.814C31.26 11.752 29 9 25 9z" fill="#ba9b48"></path><path fill="#8bb7f0" d="M1.5 22.5h37v4h-37z"></path><path d="M38 23v3H2v-3h36m1-1H1v5h38v-5z" fill="#4e7ab5"></path><path fill="none" stroke="#c74343" stroke-linecap="round" stroke-miterlimit="10" d="M26.037 12.947l3.52-6.606"></path><path fill="none" stroke="#c74343" stroke-linecap="round" stroke-linejoin="round" stroke-miterlimit="10" d="M28.357 2.5L27.5 4.214l2.143 2.143 3 .429.857-1.715z"></path><g><circle cx="12.5" cy="14.5" r=".5" fill="#ba9b48"></circle></g><g><circle cx="14.5" cy="15.5" r=".5" fill="#ba9b48"></circle></g><g><circle cx="14.5" cy="13.5" r=".5" fill="#ba9b48"></circle></g></svg>