<svg viewBox="0 0 40 40" xmlns="http://www.w3.org/2000/svg"><path d="M4 37.5c-.827 0-1.5-.673-1.5-1.5V4c0-.827.673-1.5 1.5-1.5h32c.827 0 1.5.673 1.5 1.5v32c0 .827-.673 1.5-1.5 1.5H4z" fill="#ffeea3"></path><path d="M36 3c.551 0 1 .449 1 1v32c0 .551-.449 1-1 1H4c-.551 0-1-.449-1-1V4c0-.551.449-1 1-1h32m0-1H4a2 2 0 00-2 2v32a2 2 0 002 2h32a2 2 0 002-2V4a2 2 0 00-2-2z" fill="#c29653"></path><path fill="#b0c1d4" d="M17.5 26.5h5v5h-5z"></path><path d="M22 27v4h-4v-4h4m1-1h-6v6h6v-6z" fill="#66798f"></path><path fill="#c2e8ff" d="M9.5 10.5h21v17h-21z"></path><path d="M30 11v16H10V11h20m1-1H9v18h22V10z" fill="#66798f"></path><path fill="#66798f" d="M9 25h22v3H9z"></path><path fill="#ffeea3" d="M28 26h1v1h-1z"></path><path fill="#66798f" d="M13 31h14v1H13z"></path></svg>