<svg viewBox="0 0 40 40" xmlns="http://www.w3.org/2000/svg"><path d="M20 14c10.608 0 18 3.162 18 6s-7.392 6-18 6-18-3.162-18-6 7.392-6 18-6m0-1C9.507 13 1 16.134 1 20s8.507 7 19 7 19-3.134 19-7-8.507-7-19-7z" fill="#7496c4"></path><path d="M28 4c.569 0 1.045.138 1.455.42 2.689 1.857 1.964 10.334-3.374 19.529C21.487 31.861 16.024 36 13.001 36c-.57 0-1.046-.138-1.456-.42-2.689-1.857-1.964-10.334 3.374-19.529C19.513 8.14 24.976 4 28 4m-.001-1c-3.837 0-9.55 4.98-13.944 12.549-5.259 9.059-6.637 18.395-3.078 20.854.586.404 1.268.597 2.024.597 3.837 0 9.55-4.98 13.944-12.549 5.259-9.059 6.637-18.395 3.078-20.854C29.437 3.193 28.755 3 27.999 3z" fill="#7496c4"></path><path d="M12.827 4c2.873 0 8.076 4.134 12.464 12.034 5.114 9.209 5.808 17.698 3.233 19.558-.381.274-.823.408-1.351.408-2.873 0-8.076-4.134-12.464-12.034-5.114-9.209-5.808-17.698-3.232-19.558.38-.274.822-.408 1.35-.408m0-1c-.723 0-1.376.193-1.936.598-3.405 2.458-2.087 11.795 2.944 20.854C18.038 32.02 23.503 37 27.173 37c.723 0 1.376-.193 1.936-.598 3.405-2.458 2.087-11.795-2.944-20.854C21.962 7.98 16.497 3 12.827 3z" fill="#7496c4"></path><path d="M20 23.5c-1.93 0-3.5-1.57-3.5-3.5s1.57-3.5 3.5-3.5 3.5 1.57 3.5 3.5-1.57 3.5-3.5 3.5z" fill="#99c99e"></path><path d="M20 17c1.654 0 3 1.346 3 3s-1.346 3-3 3-3-1.346-3-3 1.346-3 3-3m0-1a4 4 0 100 8 4 4 0 000-8z" fill="#5e9c76"></path><circle cx="12" cy="4" r="1.5" fill="#788b9c"></circle><path d="M12 3c.551 0 1 .449 1 1s-.449 1-1 1-1-.449-1-1 .449-1 1-1m0-1a2 2 0 10-.001 3.999A2 2 0 0012 2z" fill="#36404d"></path><g><circle cx="35" cy="24" r="1.5" fill="#788b9c"></circle><path d="M35 23c.551 0 1 .449 1 1s-.449 1-1 1-1-.449-1-1 .449-1 1-1m0-1a2 2 0 10-.001 3.999A2 2 0 0035 22z" fill="#36404d"></path></g><g><circle cx="12" cy="36" r="1.5" fill="#788b9c"></circle><path d="M12 35c.551 0 1 .449 1 1s-.449 1-1 1-1-.449-1-1 .449-1 1-1m0-1a2 2 0 10-.001 3.999A2 2 0 0012 34z" fill="#36404d"></path></g></svg>