<svg viewBox="0 0 40 40" xmlns="http://www.w3.org/2000/svg"><path fill="#b0c1d4" stroke="#66798f" stroke-miterlimit="10" d="M16 8l16 16"></path><path fill="#dcd5f2" d="M23.293 7L15 15.293 9.708 10 18 1.707z"></path><path d="M18 2.414L22.586 7 15 14.586 10.414 10 18 2.414M18 1l-9 9 6 6 9-9-6-6z" fill="#8b75a1"></path><path fill="#dcd5f2" d="M38.294 22L30 30.293 24.708 25l8.293-8.293z"></path><path d="M33 17.414L37.586 22 30 29.586 25.414 25 33 17.414M33 16l-9 9 6 6 9-9-6-6z" fill="#8b75a1"></path><path fill="#b0c1d4" stroke="#66798f" stroke-miterlimit="10" d="M16.478 23.522l7.236-7.236"></path><path d="M24.224 21.5a.85.85 0 01-.606-.251l-4.867-4.866a.86.86 0 010-1.213l6.419-6.419c.163-.162.377-.251.606-.251s.444.089.606.251l4.867 4.866a.86.86 0 010 1.213l-6.419 6.419a.853.853 0 01-.606.251z" fill="#a3b7cc"></path><path d="M25.776 9c.055 0 .162.014.253.105l4.866 4.866a.356.356 0 010 .506l-6.419 6.419a.358.358 0 01-.505-.001l-4.866-4.866a.356.356 0 010-.506l6.419-6.419A.358.358 0 0125.776 9m0-1c-.347 0-.695.132-.96.397l-6.419 6.419c-.53.53-.53 1.389 0 1.919l4.866 4.866c.266.267.613.399.961.399.347 0 .695-.132.96-.397l6.419-6.419c.53-.53.53-1.389 0-1.919l-4.866-4.866A1.35 1.35 0 0025.776 8z" fill="#66798f"></path><path d="M13.825 18.117c.708-.349 2.017-.876 3.474-.876 1.482 0 2.776.543 3.847 1.613 2.63 2.63 1.382 6.01.737 7.32l-8.058-8.057z" fill="#e1ebf2"></path><path d="M17.298 17.742c1.345 0 2.52.493 3.493 1.467 2.075 2.075 1.519 4.648.936 6.105l-7.034-7.034c.686-.271 1.613-.538 2.605-.538m0-1C14.946 16.742 13 18 13 18l9 9s3.141-4.857-.501-8.499c-1.336-1.336-2.837-1.759-4.201-1.759z" fill="#66798f"></path><path fill="#dcd5f2" stroke="#8b75a1" stroke-width="2" stroke-miterlimit="10" d="M14 11l2-2M17 8l2-2M29 26l2-2M32 23l2-2"></path><path d="M17 37C9.28 37 3 30.72 3 23H1c0 8.837 7.163 16 16 16v-2z" fill="#8bb7f0"></path><path d="M17 32c-4.963 0-9-4.037-9-9H6c0 6.075 4.925 11 11 11v-2z" fill="#8bb7f0"></path><path d="M17 27c-2.206 0-4-1.794-4-4h-2a6 6 0 006 6v-2z" fill="#8bb7f0"></path></svg>