<svg viewBox="0 0 40 40" xmlns="http://www.w3.org/2000/svg"><path d="M20 39c0-10.493-8.507-19-19-19v19h19z" fill="#c2e8ff"></path><path d="M20 39c0-5.597-2.373-10.575-6.161-14.037-.459-.151-.93-.165-1.396.042-.648.217-1.079 1.081-1.511 1.512L9.637 28.46c-.217.216-.432.648-.217.864 0 .216.217.216.432.216.432.217.649.217 1.081.432.216 0 .432.217.216.432 0 0 0 .217-.216.217-1.081 1.08-2.159 1.943-3.239 3.022-.216.216-.432.648-.432.864 0 .216.216.216.216.432 0 .217-.216.217-.432.432-.432.217-.864.432-1.08.649-.216.432 0 1.08-.216 1.511-.105.523-.314.997-.549 1.469H20z" fill="#bae0bd"></path><path d="M6.707 37.837c.151-.38.151-.755.151-1.063v-.176c.181-.107.444-.239.636-.335l.138-.067.113-.113c.02-.016.041-.027.059-.038.166-.103.672-.415.672-1.107 0-.215-.051-.392-.118-.534a.355.355 0 01.041-.054c.521-.521 1.036-.984 1.581-1.474.481-.433.977-.88 1.475-1.367a1.2 1.2 0 00.614-.675c.191-.328.223-.715.077-1.07a1.304 1.304 0 00-.921-.759c-.206-.093-.375-.149-.515-.196l-.086-.029.491-.737.599-.898c.154-.166.295-.351.431-.53.163-.214.465-.612.615-.663l.045-.015.043-.019a.779.779 0 01.321-.069c.054 0 .112.005.172.016 3.409 3.197 5.385 7.467 5.632 12.134l.013 1H20c0-5.597-2.373-10.575-6.161-14.037a2.155 2.155 0 00-.669-.113c-.242 0-.485.048-.727.155-.648.217-1.08 1.081-1.511 1.512l-1.295 1.943c-.217.216-.432.648-.217.864 0 .216.217.216.432.216.432.217.649.217 1.081.432.216 0 .432.217.216.432 0 0 0 .217-.216.217-1.081 1.08-2.159 1.943-3.239 3.022-.216.216-.432.648-.432.864 0 .216.216.216.216.432 0 .217-.216.217-.432.432-.432.217-.864.432-1.08.649-.216.432 0 1.08-.216 1.511-.105.524-.314.998-.549 1.47h1.07l.396-1 .04-.163z" fill="#5e9c76"></path><path d="M7.786 21.357c-.017-.034-.039-.094-.06-.147A19.214 19.214 0 001 20v9.107h.216c.216 0 .432-.216.864-.432.648-.432 1.296-1.079 1.943-1.511.649-.432 1.296-1.079 1.728-1.511.648-.432 1.079-1.295 1.295-1.944.216-.432.957-1.704.74-2.352z" fill="#bae0bd"></path><path d="M7.786 21.357c-.017-.034-.039-.094-.06-.147A19.214 19.214 0 001 20v1.02l1 .007a18.14 18.14 0 014.766.905c-.072.225-.222.577-.509 1.126l-.105.203-.032.064-.022.068c-.215.646-.569 1.206-.901 1.428l-.082.055-.07.07c-.402.402-1.009 1.009-1.576 1.387-.367.245-.716.536-1.054.817-.143.117-.281.232-.415.34l-1 .63v.987h.216c.216 0 .432-.216.864-.432.648-.432 1.296-1.079 1.943-1.511.649-.432 1.296-1.079 1.728-1.511.648-.432 1.079-1.295 1.295-1.944.216-.432.957-1.704.74-2.352z" fill="#5e9c76"></path><path fill="#b0c1d4" stroke="#66798f" stroke-miterlimit="10" d="M16 8l16 16"></path><path fill="#dcd5f2" d="M23.293 7L15 15.293 9.708 10 18 1.707z"></path><path d="M18 2.414L22.586 7 15 14.586 10.414 10 18 2.414M18 1l-9 9 6 6 9-9-6-6z" fill="#8b75a1"></path><path fill="#dcd5f2" d="M38.294 22L30 30.293 24.708 25l8.293-8.293z"></path><path d="M33 17.414L37.586 22 30 29.586 25.414 25 33 17.414M33 16l-9 9 6 6 9-9-6-6z" fill="#8b75a1"></path><path fill="#b0c1d4" stroke="#66798f" stroke-miterlimit="10" d="M16.478 23.522l7.236-7.236"></path><path d="M24.224 21.5a.85.85 0 01-.606-.251l-4.867-4.866a.86.86 0 010-1.213l6.419-6.419c.163-.162.377-.251.606-.251s.444.089.606.251l4.867 4.866a.86.86 0 010 1.213l-6.419 6.419a.853.853 0 01-.606.251z" fill="#a3b7cc"></path><path d="M25.776 9c.055 0 .162.014.253.105l4.866 4.866a.356.356 0 010 .506l-6.419 6.419a.358.358 0 01-.505-.001l-4.866-4.866a.356.356 0 010-.506l6.419-6.419A.358.358 0 0125.776 9m0-1c-.347 0-.695.132-.96.397l-6.419 6.419c-.53.53-.53 1.389 0 1.919l4.866 4.866c.266.267.613.399.961.399s.695-.132.96-.397l6.419-6.419c.53-.53.53-1.389 0-1.919l-4.866-4.866A1.35 1.35 0 0025.776 8z" fill="#66798f"></path><path d="M13.825 18.117c.708-.349 2.017-.876 3.474-.876 1.482 0 2.776.543 3.847 1.613 2.63 2.63 1.382 6.01.737 7.32l-8.058-8.057z" fill="#e1ebf2"></path><path d="M17.298 17.742c1.345 0 2.52.493 3.493 1.467 2.075 2.075 1.519 4.648.936 6.105l-7.034-7.034c.686-.271 1.613-.538 2.605-.538m0-1C14.946 16.742 13 18 13 18l9 9s3.141-4.857-.501-8.499c-1.336-1.336-2.837-1.759-4.201-1.759z" fill="#66798f"></path><path d="M19 39h1c0-10.493-8.507-19-19-19v1c9.925 0 18 8.075 18 18z" fill="#7496c4"></path><path fill="#dcd5f2" stroke="#8b75a1" stroke-width="2" stroke-miterlimit="10" d="M14 11l2-2M17 8l2-2M29 26l2-2M32 23l2-2"></path></svg>