<svg viewBox="0 0 40 40" xmlns="http://www.w3.org/2000/svg"><circle cx="18.5" cy="5.5" r="4" fill="#f78f8f"></circle><path d="M18.5 2C20.43 2 22 3.57 22 5.5S20.43 9 18.5 9 15 7.43 15 5.5 16.57 2 18.5 2m0-1a4.5 4.5 0 100 9 4.5 4.5 0 000-9z" fill="#c74343"></path><circle cx="7" cy="11" r="3.5" fill="#f79494"></circle><path d="M7 8c1.654 0 3 1.346 3 3s-1.346 3-3 3-3-1.346-3-3 1.346-3 3-3m0-1a4 4 0 100 8 4 4 0 000-8z" fill="#c74343"></path><circle cx="4.5" cy="21.5" r="3" fill="#f7b7b7"></circle><path d="M4.5 19C5.879 19 7 20.122 7 21.5S5.879 24 4.5 24 2 22.878 2 21.5 3.121 19 4.5 19m0-1a3.5 3.5 0 100 7 3.5 3.5 0 000-7z" fill="#d46565"></path><circle cx="7.5" cy="31.5" r="2" fill="#f7b7b7"></circle><path d="M7.5 30c.827 0 1.5.673 1.5 1.5S8.327 33 7.5 33 6 32.327 6 31.5 6.673 30 7.5 30m0-1a2.5 2.5 0 100 5 2.5 2.5 0 000-5z" fill="#de7c7c"></path><g><circle cx="15.5" cy="37.5" r="1" fill="#f7b7b7"></circle><path d="M15.5 37a.5.5 0 110 1 .5.5 0 010-1m0-1a1.5 1.5 0 10.001 3.001A1.5 1.5 0 0015.5 36z" fill="#f08d8d"></path></g><g><circle cx="32.5" cy="11.5" r="5" fill="#f76d6d"></circle><path d="M32.5 7c2.481 0 4.5 2.019 4.5 4.5S34.981 16 32.5 16 28 13.981 28 11.5 30.019 7 32.5 7m0-1a5.5 5.5 0 100 11 5.5 5.5 0 100-11z" fill="#ba3a3a"></path></g><g><circle cx="33" cy="28" r="5.5" fill="#f75252"></circle><path d="M33 23c2.757 0 5 2.243 5 5s-2.243 5-5 5-5-2.243-5-5 2.243-5 5-5m0-1a6 6 0 100 12 6 6 0 000-12z" fill="#ab3434"></path></g></svg>