<svg viewBox="0 0 40 40" xmlns="http://www.w3.org/2000/svg"><path fill="#dcd5f2" d="M12.5 28.5h11v3h-11z"></path><path d="M23 29v2H13v-2h10m1-1H12v4h12v-4z" fill="#8b75a1"></path><path d="M27 18.5a3.5 3.5 0 01-3.038-1.798l-.166-.295-.437.058c-.118.017-.236.035-.359.035a3.442 3.442 0 01-1.663-.441l-.482-.263-.217.505a3.514 3.514 0 01-3.231 2.131 3.523 3.523 0 01-3.193-2.063l-.215-.469-.462.228A3.457 3.457 0 0112 16.5c-.403 0-.818-.08-1.232-.236l-.428-.162-.199.412A3.472 3.472 0 017 18.5c-1.93 0-3.5-1.57-3.5-3.5s1.57-3.5 3.5-3.5c.403 0 .818.08 1.232.236l.428.162.199-.412A3.472 3.472 0 0112 9.5a3.45 3.45 0 012.252.844l.45.382.303-.507A3.466 3.466 0 0118 8.5c1.048 0 2.036.479 2.711 1.315l.262.324.366-.2A3.457 3.457 0 0123 9.5a3.5 3.5 0 013.038 1.798l.166.295.437-.058c.118-.017.236-.035.359-.035 1.93 0 3.5 1.57 3.5 3.5s-1.57 3.5-3.5 3.5z" fill="#f78f8f"></path><path d="M18 9a2.98 2.98 0 012.322 1.129l.524.649.732-.399c.462-.252.94-.379 1.422-.379 1.07 0 2.067.591 2.602 1.543l.332.591.671-.089.104-.014c.097-.014.192-.031.291-.031 1.654 0 3 1.346 3 3s-1.346 3-3 3a2.999 2.999 0 01-2.602-1.543l-.332-.591-.671.089-.105.015c-.096.013-.191.03-.29.03-.483 0-.962-.128-1.424-.38l-.964-.526-.433 1.009a3.015 3.015 0 01-2.772 1.829 3.023 3.023 0 01-2.739-1.771l-.428-.937-.924.456c-.431.212-.874.32-1.316.32-.343 0-.698-.069-1.056-.204l-.856-.323-.398.824A2.975 2.975 0 017 18c-1.654 0-3-1.346-3-3s1.346-3 3-3c.343 0 .698.069 1.055.204l.856.323.398-.824A2.976 2.976 0 0112 10c.887 0 1.538.394 1.928.725l.901.764.605-1.015A2.972 2.972 0 0118 9m0-1a3.982 3.982 0 00-3.425 1.963A3.964 3.964 0 0012 9c-1.586 0-2.944.93-3.591 2.268A3.975 3.975 0 007 11a4 4 0 000 8c1.586 0 2.944-.93 3.591-2.268.44.166.911.268 1.409.268a3.95 3.95 0 001.758-.424 4.01 4.01 0 003.648 2.356 4.017 4.017 0 003.691-2.434c.569.31 1.21.502 1.903.502.18 0 .352-.03.526-.053C24.211 18.166 25.502 19 27 19a4 4 0 000-8c-.18 0-.352.03-.526.053C25.789 9.834 24.498 9 23 9c-.692 0-1.333.192-1.9.501A3.975 3.975 0 0018 8z" fill="#c74343"></path><path d="M14.576 28.5c-7.345 0-9.232-4.416-10.057-8.262-.727-3.395-3.182-5.118-4.02-5.617v-.986C2.52 14.105 9.174 15.5 17 15.5c6.308 0 11.419-1.337 14.801-2.221.385-.101.751-.197 1.097-.285-.973.862-1.398 2.02-1.398 4.378v2.105c0 6.619-6.475 9.022-10.827 9.022h-6.097z" fill="#dcd5f2"></path><path d="M31.617 13.843c-.428.838-.617 1.933-.617 3.529v2.105C31 25.73 24.824 28 20.674 28h-6.097c-6.946 0-8.734-3.977-9.568-7.867-.705-3.287-2.951-5.098-4.009-5.787v-.081C3.553 14.832 9.702 16 17 16c6.181 0 11.211-1.267 14.617-2.157m3.883-1.836C33.084 12.007 26.407 15 17 15S0 13 0 13v1.915s3.209 1.59 4.031 5.427C4.934 24.557 7.062 29 14.576 29h6.097C25.535 29 32 26.292 32 19.478v-2.105c0-3.459.866-4.052 3.5-5.366z" fill="#8b75a1"></path><g><path d="M9.5 34.5V34c0-1.378 1.122-2.5 2.5-2.5h12c1.378 0 2.5 1.122 2.5 2.5v.5h-17z" fill="#dcd5f2"></path><path d="M24 32c1.103 0 2 .897 2 2H10c0-1.103.897-2 2-2h12m0-1H12a3 3 0 00-3 3v1h18v-1a3 3 0 00-3-3z" fill="#8b75a1"></path></g><path d="M35.5 20.5a4 4 0 10-4-4" fill="none" stroke="#8b75a1" stroke-linecap="round" stroke-miterlimit="10"></path></svg>