<svg viewBox="0 0 40 40" xmlns="http://www.w3.org/2000/svg"><path d="M31 38.5a4.488 4.488 0 01-4.154-2.775C26.27 34.649 23.504 29.045 23.5 20c.004-9.045 2.77-14.649 3.324-15.68C27.547 2.589 29.178 1.5 31 1.5c2.481 0 4.5 2.019 4.5 4.5 0 .336-.048.685-.151 1.096l-.039.164a105.105 105.105 0 01-.979 3.016C33.268 13.436 32.5 15.72 32.5 20s.768 6.564 1.831 9.724c.306.908.636 1.89.979 3.016l.038.163c.104.413.152.762.152 1.097 0 2.481-2.019 4.5-4.5 4.5z" fill="#f78f8f"></path><path d="M31 2c2.206 0 4 1.794 4 4 0 .294-.043.604-.136.972l-.033.143a105.615 105.615 0 01-.975 3.003C32.779 13.323 32 15.638 32 20s.779 6.677 1.857 9.882c.312.927.634 1.886.983 3.041l.024.103c.093.371.136.68.136.974 0 2.206-1.794 4-4 4a3.99 3.99 0 01-3.693-2.467l-.019-.046-.024-.044C26.72 34.431 24.004 28.927 24 20c.004-8.927 2.72-14.431 3.265-15.444l.024-.044.019-.046A3.988 3.988 0 0131 2m0-1a4.997 4.997 0 00-4.616 3.083C25.736 5.288 23.004 10.907 23 20c.004 9.093 2.736 14.712 3.384 15.917A4.997 4.997 0 0031 39a5 5 0 005-5 4.95 4.95 0 00-.167-1.218c-.016-.063-.026-.123-.045-.189C34.267 27.604 33 25.429 33 20s1.267-7.604 2.788-12.594c.02-.065.029-.125.045-.188A4.95 4.95 0 0036 6a5 5 0 00-5-5z" fill="#c74343"></path><path fill="none" stroke="#c74343" stroke-linecap="round" stroke-miterlimit="10" d="M27.5 9.5l4 1M26.5 16.5l4 1M26.5 23.5l4 1M28.5 31.5l4 1"></path><path d="M12 38.5a4.488 4.488 0 01-4.154-2.775C7.27 34.649 4.504 29.045 4.5 20c.004-9.045 2.77-14.649 3.324-15.68C8.547 2.589 10.178 1.5 12 1.5c2.481 0 4.5 2.019 4.5 4.5 0 .336-.048.685-.151 1.096l-.039.164a105.105 105.105 0 01-.979 3.016C14.268 13.436 13.5 15.72 13.5 20s.768 6.564 1.831 9.724c.306.908.636 1.89.979 3.016l.038.163c.104.413.152.762.152 1.097 0 2.481-2.019 4.5-4.5 4.5z" fill="#f78f8f"></path><path d="M12 2c2.206 0 4 1.794 4 4 0 .294-.043.604-.136.972l-.033.143a105.615 105.615 0 01-.975 3.003C13.779 13.323 13 15.638 13 20s.779 6.677 1.857 9.882c.312.927.634 1.886.983 3.041l.024.103c.093.371.136.68.136.974 0 2.206-1.794 4-4 4a3.99 3.99 0 01-3.693-2.467l-.019-.046-.024-.044C7.72 34.431 5.004 28.927 5 20c.004-8.926 2.72-14.431 3.265-15.444l.024-.044.019-.046A3.988 3.988 0 0112 2m0-1a4.997 4.997 0 00-4.616 3.083C6.736 5.288 4.004 10.907 4 20c.004 9.093 2.736 14.712 3.384 15.917A4.997 4.997 0 0012 39a5 5 0 005-5 4.95 4.95 0 00-.167-1.218c-.016-.063-.026-.123-.045-.189C15.267 27.604 14 25.429 14 20s1.267-7.604 2.788-12.594c.02-.065.029-.125.045-.188A4.95 4.95 0 0017 6a5 5 0 00-5-5z" fill="#c74343"></path><path fill="none" stroke="#c74343" stroke-linecap="round" stroke-miterlimit="10" d="M8.5 9.5l4 1M7.5 16.5l4 1M7.5 23.5l4 1M9.5 31.5l4 1"></path></svg>