<svg viewBox="0 0 40 40" xmlns="http://www.w3.org/2000/svg"><path fill="#dcd5f2" d="M2.5 37.5v-35h26.986l8.014 8.015V37.5z"></path><path d="M29.279 3L37 10.722V37H3V3h26.279m.414-1H2v36h36V10.308L29.693 2z" fill="#8b75a1"></path><path fill="#fff" d="M6.5 19.5h27v18h-27z"></path><path d="M33 20v17H7V20h26m1-1H6v19h28V19z" fill="#788b9c"></path><path d="M27 2H9v10a2 2 0 002 2h16V2z" fill="#8b75a1"></path><path d="M14 13.5c-.827 0-1.5-.673-1.5-1.5V4c0-.827.673-1.5 1.5-1.5h14c.827 0 1.5.673 1.5 1.5v8c0 .827-.673 1.5-1.5 1.5H14z" fill="#c8d1db"></path><path d="M28 3c.551 0 1 .449 1 1v8c0 .551-.449 1-1 1H14c-.551 0-1-.449-1-1V4c0-.551.449-1 1-1h14m0-1H14a2 2 0 00-2 2v8a2 2 0 002 2h14a2 2 0 002-2V4a2 2 0 00-2-2z" fill="#66798f"></path><path fill="#c2e8ff" d="M10 24h20v1H10zM10 28h20v1H10zM10 32h20v1H10z"></path><path fill="#66798f" d="M23 5h3v6h-3z"></path></svg>