<svg viewBox="0 0 40 40" xmlns="http://www.w3.org/2000/svg"><path d="M4.637 37.5a8.822 8.822 0 01-2.733-.43l17.667-17.667a8.836 8.836 0 01.402 3.383l-6.498 6.499-.017.18A8.816 8.816 0 014.637 37.5z" fill="#c8d1db"></path><path d="M19.313 20.368a8.403 8.403 0 01.174 2.197l-6.238 6.238-.255.255-.033.359A8.32 8.32 0 014.637 37a8.39 8.39 0 01-1.768-.187l11.106-11.106 5.338-5.339m.454-1.868l-6.5 6.5L1 37.267A9.33 9.33 0 004.637 38c4.876 0 8.878-3.728 9.319-8.489l6.5-6.5a9.328 9.328 0 00-.689-4.511z" fill="#66798f"></path><path d="M10.124 26.5l21.48-23.832c.748-.747 1.765-1.168 2.846-1.168s2.099.421 2.864 1.187c.765.764 1.186 1.781 1.186 2.863s-.421 2.099-1.186 2.864L17.804 26.5h-7.68z" fill="#8bb7f0"></path><path d="M34.45 2c.948 0 1.84.369 2.51 1.04.671.67 1.04 1.562 1.04 2.51s-.369 1.84-1.013 2.484L17.608 26h-6.36l20.71-22.977A3.522 3.522 0 0134.45 2m0-1a4.533 4.533 0 00-3.217 1.333L9 27h9L37.667 8.767A4.55 4.55 0 0034.45 1z" fill="#4e7ab5"></path><path fill="#4e7ab5" d="M13 23h8v1h-8zM14.55 21H23v1h-8.45zM16.55 19h8.783v1H16.55zM18.281 17h9.188v1h-9.188z"></path></svg>