<svg viewBox="0 0 40 40" xmlns="http://www.w3.org/2000/svg"><path d="M32 30.5c-2.623 0-5-1.614-5.997-4h11.994c-.997 2.386-3.374 4-5.997 4z" fill="#c2e8ff"></path><path d="M37.192 27c-1.057 1.816-3.034 3-5.192 3s-4.135-1.184-5.192-3h10.384m1.514-1H25.294A7 7 0 0032 31a7 7 0 006.706-5z" fill="#788b9c"></path><path d="M32 9.145l5.653 16.859C36.812 28.372 34.531 30 32 30s-4.813-1.628-5.653-3.995L32 9.145M32 6l-6.706 20A7 7 0 0032 31a7 7 0 006.706-5L32 6z" fill="#788b9c"></path><path d="M8 30.5c-2.623 0-5-1.614-5.997-4h11.994c-.997 2.386-3.374 4-5.997 4z" fill="#c2e8ff"></path><path d="M13.192 27c-1.057 1.816-3.034 3-5.192 3s-4.135-1.184-5.192-3h10.384m1.514-1H1.294A7 7 0 008 31a7 7 0 006.706-5z" fill="#788b9c"></path><path d="M8 9.145l5.653 16.859C12.812 28.372 10.531 30 8 30s-4.813-1.628-5.653-3.995L8 9.145M8 6L1.294 26A7 7 0 008 31a7 7 0 006.706-5L8 6z" fill="#788b9c"></path><path d="M31.963 8.333C28.372 4.743 22.867 4.763 20 7.63" fill="none" stroke="#788b9c" stroke-miterlimit="10"></path><circle cx="32" cy="8" r="2" fill="#788b9c"></circle><path d="M8.037 8.333c3.591-3.59 9.096-3.57 11.963-.703" fill="none" stroke="#788b9c" stroke-miterlimit="10"></path><path d="M22 4a2 2 0 11-4 0c0-1.105 1.438-2.469 2-3 .5.484 2 1.895 2 3z" fill="#788b9c"></path><path fill="#b6c9d6" d="M18.5 7.5h3v27h-3z"></path><path d="M21 8v26h-2V8h2m1-1h-4v28h4V7z" fill="#788b9c"></path><g><path d="M12.5 38.5V38c0-.827.673-1.5 1.5-1.5h2.5V36c0-1.93 1.57-3.5 3.5-3.5s3.5 1.57 3.5 3.5v.5H26c.827 0 1.5.673 1.5 1.5v.5h-15z" fill="#b6c9d6"></path><path d="M20 33c1.654 0 3 1.346 3 3v1h3c.551 0 1 .449 1 1H13c0-.551.449-1 1-1h3v-1c0-1.654 1.346-3 3-3m0-1c-2.2 0-4 1.8-4 4h-2c-1.1 0-2 .9-2 2v1h16v-1c0-1.1-.9-2-2-2h-2c0-2.2-1.8-4-4-4z" fill="#788b9c"></path></g><g><circle cx="20" cy="8" r="2.5" fill="#b6c9d6"></circle><path d="M20 6c1.103 0 2 .897 2 2s-.897 2-2 2-2-.897-2-2 .897-2 2-2m0-1a3 3 0 100 6 3 3 0 000-6z" fill="#788b9c"></path></g><g><circle cx="8" cy="8" r="2" fill="#788b9c"></circle></g></svg>