<svg viewBox="0 0 40 40" xmlns="http://www.w3.org/2000/svg"><path d="M3 37.5c-.827 0-1.5-.673-1.5-1.5V3c0-.827.673-1.5 1.5-1.5h33c.827 0 1.5.673 1.5 1.5v33c0 .827-.673 1.5-1.5 1.5H3z" fill="#8bb7f0"></path><path d="M36 2c.551 0 1 .449 1 1v33c0 .551-.449 1-1 1H3c-.551 0-1-.449-1-1V3c0-.551.449-1 1-1h33m0-1H3a2 2 0 00-2 2v33a2 2 0 002 2h33a2 2 0 002-2V3a2 2 0 00-2-2z" fill="#4e7ab5"></path><path d="M11.234 16.5l-4.327-5.2c3.488-3.099 7.941-4.8 12.593-4.8s9.104 1.701 12.593 4.8l-4.327 5.2H11.234z" fill="#fff"></path><path d="M19.5 7c4.367 0 8.555 1.541 11.895 4.357L27.531 16H11.469l-3.864-4.643A18.408 18.408 0 0119.5 7m0-1c-5.139 0-9.8 2.003-13.284 5.252L11 17h17l4.784-5.748C29.3 8.003 24.639 6 19.5 6z" fill="#4e7ab5"></path><path fill="#36404d" d="M23 10l-5 6h3z"></path><path d="M19.5 7c-.168 0-.333.017-.5.022V10h1V7.022c-.167-.005-.332-.022-.5-.022z" fill="#66798f"></path><g><path d="M13.106 11.371l.924-.383-1.139-2.751c-.311.12-.619.248-.923.385l1.138 2.749z" fill="#66798f"></path></g><g><path d="M26.109 8.238l-1.139 2.751.924.383 1.139-2.749a18.559 18.559 0 00-.924-.385z" fill="#66798f"></path></g></svg>