<svg viewBox="0 0 40 40" xmlns="http://www.w3.org/2000/svg"><path d="M3 37.5A1.5 1.5 0 011.5 36v-4.5h37V36a1.5 1.5 0 01-1.5 1.5z" fill="#e1ebf2"></path><path d="M38 32v4a1 1 0 01-1 1H3a1 1 0 01-1-1v-4h36m1-1H1v5a2 2 0 002 2h34a2 2 0 002-2v-5z" fill="#a3b7cc"></path><path d="M2.5 32.5v-13H38a.5.5 0 01.5.5v12a.5.5 0 01-.5.5z" fill="#66798f"></path><path d="M38 20v12H3V20h35m0-1H2v14h36a1 1 0 001-1V20a1 1 0 00-1-1z" fill="#36404d"></path><path fill="#36404d" d="M2 20h18v12H2z"></path><path fill="#bae0bd" d="M29 20h1v12h-1z"></path><path d="M2.36 32.5a.86.86 0 01-.86-.85V20.1a.84.84 0 01.36-.69L29.11 3.68a.9.9 0 01.53-.18.86.86 0 01.86.85V16a.84.84 0 01-.36.69L2.89 32.32a.9.9 0 01-.53.18z" fill="#e1ebf2"></path><path d="M29.64 4a.35.35 0 01.36.35V16a.34.34 0 01-.12.26L2.64 31.88a.35.35 0 01-.2.07.35.35 0 01-.44-.3V20.1a.34.34 0 01.12-.26L29.36 4.11a.35.35 0 01.2-.07m0-1a1.35 1.35 0 00-.78.25L1.57 19A1.34 1.34 0 001 20.1v11.55a1.36 1.36 0 002.14 1.1L30.43 17.1A1.34 1.34 0 0031 16V4.35A1.35 1.35 0 0029.64 3z" fill="#a3b7cc"></path><path d="M13.24 20.5c-.79 0-1.36-.22-1.56-.6a1 1 0 010-.8 6 6 0 013-2.85 7.44 7.44 0 013.19-.86c.79 0 1.36.22 1.56.6a1 1 0 010 .8 6 6 0 01-3 2.85 7.44 7.44 0 01-3.19.86z" fill="#b0c1d4"></path><path d="M17.86 15.89c.65 0 1 .17 1.11.33a.62.62 0 010 .41 5.47 5.47 0 01-2.75 2.56 6.93 6.93 0 01-3 .81c-.65 0-1-.17-1.11-.33a.62.62 0 010-.41 5.47 5.47 0 012.79-2.56 6.93 6.93 0 013-.81m0-1a7.86 7.86 0 00-3.41.92c-2.38 1.21-3.82 3.14-3.21 4.32a2.11 2.11 0 002 .87 7.86 7.86 0 003.41-.92c2.38-1.21 3.82-3.14 3.21-4.32a2.11 2.11 0 00-2-.87z" fill="#66798f"></path></svg>