<svg viewBox="0 0 40 40" xmlns="http://www.w3.org/2000/svg"><path fill="#f5ce85" d="M4.5 1.5h31v13h-31z"></path><path d="M35 2v12H5V2h30m1-1H4v14h32V1z" fill="#967a44"></path><path d="M24 5h-8a1 1 0 000 2h8a1 1 0 000-2z" fill="#967a44"></path><path d="M2 38.5a.5.5 0 01-.5-.5V14a.5.5 0 01.5-.5h36a.5.5 0 01.5.5v24a.5.5 0 01-.5.5H2z" fill="#f78f8f"></path><path d="M38 14v24H2V14h36m0-1H2a1 1 0 00-1 1v24a1 1 0 001 1h36a1 1 0 001-1V14a1 1 0 00-1-1z" fill="#c74343"></path><g><path fill="#ffc49c" d="M4.5 14.5h31v15h-31z"></path><path d="M35 15v14H5V15h30m1-1H4v16h32V14z" fill="#a16a4a"></path></g><g><path d="M37 15v22H3V15h34m1-1H2v24h36V14z" fill="#ffc2c2"></path></g></svg>