<svg viewBox="0 0 40 40" xmlns="http://www.w3.org/2000/svg"><path d="M31.809 13.477c-1.92-.233-4.36-1.096-6.937-2.008-.618-.218-1.246-.44-1.881-.66l4.766-4.087-1.068-.169c-.072-.012-1.797-.28-4.43-.28-3.339 0-6.5.419-9.396 1.247a1.902 1.902 0 01-.52.068c-1.388 0-3.187-1.268-3.901-1.867-.101-.408-.167-.98-.068-1.326 3.161-1.156 10.08-2.807 16.857-2.807 4.125 0 7.614.601 10.375 1.787 1.474 4.154-2.888 9.126-3.797 10.102z" fill="#f88f8f"></path><path d="M25.232 2.087c3.953 0 7.305.558 9.971 1.659 1.098 3.629-2.468 7.959-3.587 9.2-1.828-.268-4.141-1.087-6.577-1.949l-1.063-.375 3.285-2.817 1.642-1.409-2.137-.338c-.074-.012-1.837-.286-4.509-.286-3.386 0-6.593.426-9.533 1.266a1.415 1.415 0 01-.382.049c-1.163 0-2.716-1.054-3.451-1.645a3.425 3.425 0 01-.067-.678c3.24-1.135 9.886-2.677 16.408-2.677m0-1C18.145 1.087 11.022 2.858 8 4c-.394.682 0 2 0 2s2.365 2.087 4.343 2.087c.225 0 .446-.027.657-.087 3.421-.978 6.749-1.227 9.258-1.227 2.624 0 4.352.273 4.352.273L22 11c3.762 1.26 7.334 2.746 10 3 0 0 6-6 4-11-3.15-1.4-6.953-1.913-10.768-1.913z" fill="#c74343"></path><path d="M19.54 38.117c-2.941-1.776-6.068-2.642-9.532-2.642-.153 0-.305.002-.458.005.634-5.549 4.784-13.209 8.702-16l6.324 2.303c-1.093 1.869-4.558 8.358-5.036 16.334z" fill="#f88f8f"></path><path d="M18.333 20.043l5.516 2.009c-1.291 2.318-4.145 8.139-4.75 15.233-2.783-1.534-5.735-2.291-8.975-2.309.811-5.204 4.641-12.225 8.209-14.933m-.152-1.12C13.835 21.833 9.41 30.364 9 36c.335-.016.671-.024 1.009-.024 3.215 0 6.57.757 9.991 3.024.306-9.667 5.32-17.476 5.32-17.476l-7.139-2.601z" fill="#c74343"></path><path d="M10.789 30.192c-.904-.636-2.902-1.712-6.061-1.712h-.023c2.363-6.455 8.585-10.138 9.811-10.813.619.293 2.386 1.12 3.993 1.792-4.538 3.944-6.965 8.974-7.72 10.733z" fill="#f88f8f"></path><path d="M14.535 18.23c.635.298 1.829.853 3.055 1.382-3.848 3.562-6.091 7.812-7.022 9.847-1.018-.605-2.725-1.339-5.137-1.461 2.338-5.577 7.589-8.901 9.104-9.768m-.033-1.122S6.476 21.125 4 29c.25-.013.493-.02.729-.02C8.961 28.98 11 31 11 31s2.577-6.921 8.466-11.691c-2.127-.842-4.964-2.201-4.964-2.201z" fill="#c74343"></path><g><path d="M28.794 23.437c-2.45-.597-18.341-4.695-23.294-11.596.039-2.546 1.97-5.996 2.67-7.164 2.313 1.317 13.656 7.43 27.022 8.751a104.813 104.813 0 01-6.398 10.009z" fill="#f88f8f"></path><path d="M8.35 5.358c3.024 1.695 13.441 7.078 26.032 8.488a105.21 105.21 0 01-5.796 9.025c-3.225-.807-17.805-4.753-22.582-11.186.102-2.153 1.562-4.963 2.346-6.327M8 4s-3.049 4.709-3 8c5.403 7.775 24 12 24 12s3.635-4.848 7-11C20.676 11.707 8 4 8 4z" fill="#c74343"></path></g><path fill="none" stroke="#c74343" d="M25.684 8.5l3.816-3"></path></svg>