<svg viewBox="0 0 40 40" xmlns="http://www.w3.org/2000/svg"><path d="M20 38.5C9.799 38.5 1.5 30.201 1.5 20S9.799 1.5 20 1.5 38.5 9.799 38.5 20 30.201 38.5 20 38.5z" fill="#ffeea3"></path><path d="M20 2c9.925 0 18 8.075 18 18s-8.075 18-18 18S2 29.925 2 20 10.075 2 20 2m0-1C9.507 1 1 9.507 1 20s8.507 19 19 19 19-8.507 19-19S30.493 1 20 1z" fill="#ba9b48"></path><circle cx="27" cy="12" r="2" fill="#36404d"></circle><circle cx="16" cy="13" r="2" fill="#36404d"></circle><g fill="#36404d"><path d="M29.96 29l-4.663-7.497 2.026-5.531-2.763-.722-1.493 5.031a2.714 2.714 0 00.43 2.4L28 29h1.96zM11.991 28.566l1.688-3.414-1.226-1.902-2.487 5.316zM22.632 23.049l-2.575 5.517h2.025l1.888-3.732z"></path></g><path d="M10 20.333l1.244-2.124c.122-.277.332-.505.598-.648l1.682-.908c.361-.195.79-.216 1.169-.058l1.526.639c.322.135.579.388.719.708l.979 1.933 2.042-.333 1.238-2.238c.134-.34.399-.611.736-.753l2.207-.929c.308-.13.653-.141.969-.032l1.428.492c.341.118.621.366.779.691l.85 1.753c.164.337.46.592.818.704L31 20" fill="none" stroke="#36404d" stroke-width="1.357" stroke-miterlimit="10"></path><g><path d="M18.659 29l-3.254-7.491 1.114-4.096L14 16l-1.307 4.474a2.105 2.105 0 00.245 1.741L17 29h1.659z" fill="#36404d"></path></g></svg>