<svg viewBox="0 0 40 40" xmlns="http://www.w3.org/2000/svg"><path d="M25.368 34.5L8.45 21.781a2.359 2.359 0 01-.927-1.568 2.363 2.363 0 01.454-1.763 2.36 2.36 0 011.904-.95c.518 0 1.012.165 1.427.478L33.287 34.5h-7.919z" fill="#ffc49c"></path><path d="M9.882 18c.409 0 .799.13 1.127.377L31.79 34h-6.255L8.75 21.382A1.881 1.881 0 019.882 18m0-1a2.88 2.88 0 00-1.733 5.181L25.201 35h9.583L11.61 17.578A2.867 2.867 0 009.882 17z" fill="#a16a4a"></path><path d="M30.118 22.5a2.353 2.353 0 01-1.427-.478L6.713 5.5h7.919L31.55 18.219c.509.382.838.938.927 1.568a2.363 2.363 0 01-.454 1.763 2.363 2.363 0 01-1.905.95z" fill="#ffc49c"></path><path d="M14.465 6L31.25 18.618A1.881 1.881 0 0130.118 22a1.86 1.86 0 01-1.127-.377L8.21 6h6.255m.334-1H5.216L28.39 22.422a2.878 2.878 0 004.032-.571 2.88 2.88 0 00-.571-4.032L14.799 5z" fill="#a16a4a"></path><path d="M9.882 22.5c-.757 0-1.45-.346-1.904-.949a2.367 2.367 0 01-.454-1.764 2.36 2.36 0 01.926-1.568L25.368 5.5h7.919L11.309 22.022c-.415.313-.91.478-1.427.478z" fill="#f5ce85"></path><path d="M31.79 6L11.009 21.623A1.862 1.862 0 019.882 22a1.88 1.88 0 01-1.131-3.381L25.535 6h6.255m2.994-1h-9.583L8.149 17.819a2.88 2.88 0 103.461 4.603L34.784 5z" fill="#967a44"></path><g><path d="M4.77 5.5A2.273 2.273 0 012.5 3.23V2.5h35v.73a2.273 2.273 0 01-2.27 2.27H4.77z" fill="#8bb7f0"></path><path d="M37 3v.231C37 4.206 36.206 5 35.231 5H4.769A1.772 1.772 0 013 3.231V3h34m1-1H2v1.231A2.77 2.77 0 004.769 6h30.462A2.77 2.77 0 0038 3.231V2z" fill="#4e7ab5"></path></g><g><path d="M2.5 37.5v-.73a2.273 2.273 0 012.27-2.27h30.46a2.273 2.273 0 012.27 2.27v.73h-35z" fill="#8bb7f0"></path><path d="M35.231 35c.975 0 1.769.794 1.769 1.769V37H3v-.231C3 35.794 3.794 35 4.769 35h30.462m0-1H4.769A2.77 2.77 0 002 36.769V38h36v-1.231A2.77 2.77 0 0035.231 34z" fill="#4e7ab5"></path></g><g><path d="M6.713 34.5l21.979-16.522a2.36 2.36 0 011.427-.478c.757 0 1.45.346 1.904.949.382.509.543 1.135.454 1.764a2.36 2.36 0 01-.926 1.568L14.632 34.5H6.713z" fill="#f5ce85"></path><path d="M30.118 18a1.88 1.88 0 011.131 3.381L14.465 34H8.21l20.781-15.623A1.862 1.862 0 0130.118 18m0-1c-.602 0-1.21.188-1.728.578L5.216 35h9.583l17.052-12.819A2.88 2.88 0 0030.118 17z" fill="#967a44"></path></g></svg>