<svg viewBox="0 0 40 40" xmlns="http://www.w3.org/2000/svg"><path fill="#8b75a1" d="M16.61 22.194l4.538-4.538 3.911 3.912-4.538 4.538z"></path><path d="M31.672 34.5a5.462 5.462 0 01-3.889-1.611L12.195 17.302l-.047.046-2.159-2.159-.28.076A6.503 6.503 0 018 15.5c-3.584 0-6.5-2.916-6.5-6.5S4.416 2.5 8 2.5s6.5 2.916 6.5 6.5c0 .533-.072 1.069-.221 1.638l-.072.277L37.793 34.5h-6.121zM8 5.5C6.07 5.5 4.5 7.07 4.5 9s1.57 3.5 3.5 3.5 3.5-1.57 3.5-3.5S9.93 5.5 8 5.5z" fill="#8bb7f0"></path><path d="M8 3c3.308 0 6 2.692 6 6 0 .49-.067.984-.204 1.51l-.145.555.405.405L36.586 34h-4.914a4.967 4.967 0 01-3.536-1.465l-15.24-15.24-.694-.694-.048.046-1.607-1.607-.41-.41-.56.152A5.975 5.975 0 018 15c-3.308 0-6-2.692-6-6s2.692-6 6-6m0 10c2.206 0 4-1.794 4-4s-1.794-4-4-4-4 1.794-4 4 1.794 4 4 4M8 2a7 7 0 100 14c.638 0 1.253-.093 1.841-.253l2.302 2.302.048-.046 15.24 15.24A5.995 5.995 0 0031.672 35H39L14.763 10.763A6.924 6.924 0 0015 9a7 7 0 00-7-7zm0 10a3 3 0 110-6 3 3 0 010 6z" fill="#4e7ab5"></path><path d="M8 37.5c-3.584 0-6.5-2.916-6.5-6.5s2.916-6.5 6.5-6.5c.561 0 1.136.079 1.709.235l.28.076 17.7-17.7A5.464 5.464 0 0131.578 5.5H37.7L14.188 29.011l.076.28c.157.573.236 1.148.236 1.709 0 3.584-2.916 6.5-6.5 6.5zm0-10c-1.93 0-3.5 1.57-3.5 3.5s1.57 3.5 3.5 3.5 3.5-1.57 3.5-3.5-1.57-3.5-3.5-3.5z" fill="#c2e8ff"></path><path d="M36.492 6L14.04 28.452l-.41.41.152.56c.145.53.218 1.061.218 1.578 0 3.308-2.692 6-6 6s-6-2.692-6-6 2.692-6 6-6c.517 0 1.047.073 1.578.218l.56.152.41-.41 2.302-2.302L28.043 7.464A4.97 4.97 0 0131.579 6h4.913M8 35c2.206 0 4-1.794 4-4s-1.794-4-4-4-4 1.794-4 4 1.794 4 4 4M38.907 5h-7.328a6.003 6.003 0 00-4.243 1.757L12.142 21.951 9.84 24.253A6.98 6.98 0 008 24a7 7 0 107 7c0-.638-.093-1.253-.253-1.841L38.907 5zM8 34a3 3 0 110-6 3 3 0 010 6z" fill="#7496c4"></path><g><circle cx="19" cy="20" r="1" fill="#7496c4"></circle></g></svg>