<svg viewBox="0 0 40 40" xmlns="http://www.w3.org/2000/svg"><path fill="#fff9de" d="M3.5 3.5h32v26h-32z"></path><path d="M35 4v25H4V4h31m1-1H3v27h33V3z" fill="#ba9b48"></path><path fill="#fff9de" d="M6 3h3v27H6z"></path><path fill="#fff9de" d="M36 6v3H3V6zM36 12v3H3v-3zM36 18v3H3v-3zM36 24v3H3v-3z"></path><path fill="#fff9de" d="M12 3h3v27h-3zM18 3h3v27h-3zM24 3h3v27h-3zM30 3h3v27h-3z"></path><path d="M16 38.5c-.827 0-1.5-.673-1.5-1.5V23c0-.827.673-1.5 1.5-1.5h4.25l2.25-3h8l2.25 3H37c.827 0 1.5.673 1.5 1.5v14c0 .827-.673 1.5-1.5 1.5H16z" fill="#b0c1d4"></path><path d="M30.25 19l1.95 2.6.3.4H37c.551 0 1 .449 1 1v14c0 .551-.449 1-1 1H16c-.551 0-1-.449-1-1V23c0-.551.449-1 1-1h4.5l.3-.4 1.95-2.6h7.5m.5-1h-8.5L20 21h-4a2 2 0 00-2 2v14a2 2 0 002 2h21a2 2 0 002-2V23a2 2 0 00-2-2h-4l-2.25-3z" fill="#66798f"></path><g><circle cx="26.5" cy="29.5" r="6" fill="#c2e8ff"></circle><path d="M26.5 24c3.033 0 5.5 2.467 5.5 5.5S29.533 35 26.5 35 21 32.533 21 29.5s2.467-5.5 5.5-5.5m0-1a6.5 6.5 0 100 13 6.5 6.5 0 000-13z" fill="#7496c4"></path></g><path fill="#ffeea3" d="M34 24h2v1h-2z"></path></svg>