<svg viewBox="0 0 40 40" xmlns="http://www.w3.org/2000/svg"><path d="M9 38.5A2.503 2.503 0 016.5 36V4c0-1.378 1.122-2.5 2.5-2.5h22c1.378 0 2.5 1.122 2.5 2.5v32c0 1.378-1.122 2.5-2.5 2.5H9z" fill="#f2faff"></path><path d="M31 2c1.103 0 2 .897 2 2v32c0 1.103-.897 2-2 2H9c-1.103 0-2-.897-2-2V4c0-1.103.897-2 2-2h22m0-1H9a3 3 0 00-3 3v32a3 3 0 003 3h22a3 3 0 003-3V4a3 3 0 00-3-3z" fill="#788b9c"></path><path fill="none" stroke="#4e7ab5" stroke-miterlimit="10" d="M27.125 9.088l-14.25 21.824"></path><path fill="#4e7ab5" d="M28.256 11.518l.452-4.807-4.415 2.123zM11.744 28.482l-.452 4.807 4.415-2.123z"></path></svg>