<svg viewBox="0 0 40 40" xmlns="http://www.w3.org/2000/svg"><path d="M20 38.5c-6.818 0-14.5-13.96-14.5-21.4C5.5 9.665 13.089 1.5 20 1.5c7.193 0 14.5 9.076 14.5 15.6 0 6.551-7.431 21.4-14.5 21.4z" fill="#839cb2"></path><path d="M20 2c6.945 0 14 8.785 14 15.1C34 24.186 26.442 38 20 38 13.417 38 6 24.366 6 17.1 6 10.044 13.458 2 20 2m0-1C12.6 1 5 9.7 5 17.1S12.6 39 20 39s15-14.9 15-21.9S27.4 1 20 1z" fill="#66798f"></path><path d="M32 16.667c0-2.108-1.407-3.868-3.326-4.448C27.747 7.657 23.684 4 20 4c-3.685 0-7.943 3.467-8.68 8.221-1.916.581-3.32 2.34-3.32 4.446 0 2.319 1.697 4.229 3.914 4.591.029.026.057.048.086.076.684.786 1.938 3.481 2.524 4.954C16.382 30.807 16.871 36 20 36c4.208 0 3.914-10.652 8-14.667.028-.028.057-.05.086-.076 2.217-.361 3.914-2.271 3.914-4.59z" fill="#f2faff"></path><path d="M18.495 19.484c.05-.727 1.019-2.665 1.509-2.965.484.299 1.444 2.23 1.501 2.963-.309-.052-.524-.208-.735-.36-.224-.162-.456-.33-.766-.33-.363 0-.618.191-.843.36-.202.152-.382.287-.666.332z" fill="#839cb2"></path><path d="M20.002 17.257c.218.308.464.764.658 1.201a1.423 1.423 0 00-.656-.166c-.255 0-.472.064-.656.151.193-.433.437-.882.654-1.186M20.004 16c-.856 0-2.709 4-1.721 4s1.243-.708 1.721-.708c.383 0 .753.708 1.721.708s-.865-4-1.721-4z" fill="#66798f"></path><path d="M13 18.5c-.827 0-1.5-.673-1.5-1.5s.673-1.5 1.5-1.5c1.341 0 3.365-1.4 3.815-3.034.234-.849.547-.966.851-.966.46 0 .834.374.834.833 0 2.304-.715 6.167-5.5 6.167z" fill="#839cb2"></path><path d="M17.667 12c.183 0 .333.15.333.333C18 14.918 17.133 18 13 18c-.551 0-1-.449-1-1s.449-1 1-1c1.522 0 3.778-1.517 4.297-3.401.166-.599.303-.599.37-.599m0-1c-.736 0-1.111.528-1.333 1.333C15.934 13.779 14.105 15 13 15a2 2 0 100 4c4.278 0 6-2.917 6-6.667 0-.736-.597-1.333-1.333-1.333z" fill="#66798f"></path><g><path d="M27 18.5c-4.785 0-5.5-3.863-5.5-6.167 0-.459.374-.833.834-.833.304 0 .616.117.851.967C23.634 14.1 25.659 15.5 27 15.5c.827 0 1.5.673 1.5 1.5s-.673 1.5-1.5 1.5z" fill="#839cb2"></path><path d="M22.333 12c.066 0 .204 0 .369.599C23.222 14.483 25.478 16 27 16c.551 0 1 .449 1 1s-.449 1-1 1c-4.133 0-5-3.082-5-5.667 0-.183.15-.333.333-.333m0-1c-.736 0-1.333.597-1.333 1.333C21 16.083 22.722 19 27 19a2 2 0 100-4c-1.105 0-2.934-1.221-3.333-2.667-.223-.805-.597-1.333-1.334-1.333z" fill="#66798f"></path></g><g><path d="M20 33.5c-.552 0-1-.374-1-.833 0-2.678-.662-5.621-1.101-7.568-.214-.953-.399-1.774-.399-2.099 0-.813 1.145-1.5 2.5-1.5s2.5.687 2.5 1.5c0 .328-.188 1.168-.404 2.14C21.659 27.097 21 30.053 21 32.667c0 .459-.448.833-1 .833z" fill="#839cb2"></path><path d="M20 22c1.221 0 2 .592 2 1 0 .273-.199 1.167-.392 2.032-.441 1.978-1.108 4.967-1.108 7.635 0 .157-.214.333-.5.333s-.5-.176-.5-.333c0-2.733-.67-5.709-1.113-7.678-.19-.846-.387-1.72-.387-1.989 0-.408.779-1 2-1m0-1c-1.657 0-3 .895-3 2s1.5 5.667 1.5 9.667c0 .736.672 1.333 1.5 1.333s1.5-.597 1.5-1.333C21.5 28.75 23 24.105 23 23s-1.343-2-3-2z" fill="#66798f"></path></g></svg>