<svg viewBox="0 0 40 40" xmlns="http://www.w3.org/2000/svg"><path fill="none" stroke="#967a44" stroke-linecap="round" stroke-miterlimit="10" d="M12.5 19.5l4.583 4.583"></path><path d="M4.886 35.738L33.45 7.173c.336-.336.784-.521 1.26-.521s.924.185 1.26.521a1.785 1.785 0 010 2.52L7.405 38.257l-2.519-2.519z" fill-rule="evenodd" clip-rule="evenodd" fill="#f5ce85"></path><path d="M34.71 7.152c.342 0 .664.133.906.375s.375.564.375.906c0 .342-.133.664-.375.906L7.405 37.55l-1.812-1.812L33.804 7.527c.242-.242.564-.375.906-.375m0-1c-.584 0-1.168.223-1.613.668L4.179 35.738l3.226 3.226 28.918-28.918a2.28 2.28 0 00-1.613-3.894z" fill="#967a44"></path><path fill-rule="evenodd" clip-rule="evenodd" fill="#dcd5f2" d="M29.643 10.983l2.526-2.525 2.519 2.52-2.526 2.525z"></path><path d="M32.168 9.163l1.812 1.812-1.818 1.818-1.812-1.812 1.818-1.818m0-1.414l-3.232 3.232 3.226 3.226 3.232-3.232-3.226-3.226z" fill="#8b75a1"></path><g><path fill-rule="evenodd" clip-rule="evenodd" fill="#dcd5f2" d="M15.794 24.83l1.92-1.92 2.52 2.52-1.92 1.92z"></path><path d="M17.715 23.616l1.812 1.812-1.214 1.214-1.812-1.812 1.214-1.214m0-1.414l-2.628 2.628 3.226 3.226 2.628-2.628-3.226-3.226z" fill="#8b75a1"></path></g><g><path d="M26.19 9.457c-1.07-1.176-6.37-6.322-17.146-6.322-.733 0-1.48.025-2.238.074A25.34 25.34 0 0116 1.5c8.243 0 13.674 4.6 16.044 6.887l-5.854 1.07z" fill-rule="evenodd" clip-rule="evenodd" fill="#dcd5f2"></path><path d="M16 2c7.306 0 12.364 3.71 14.977 6.073l-4.61.843c-1.414-1.464-6.48-5.91-16.109-6.259A25.304 25.304 0 0116 2m0-1C8.683 1 4 4 4 4c1.8-.253 3.481-.365 5.044-.365C20.849 3.635 26 10 26 10l7.079-1.295C30.759 6.385 25.06 1 16 1z" fill="#8b75a1"></path></g></svg>