<svg viewBox="0 0 40 40" xmlns="http://www.w3.org/2000/svg"><path d="M9 38.5A2.503 2.503 0 016.5 36V8.207L13.207 1.5H32c1.378 0 2.5 1.122 2.5 2.5v32c0 1.378-1.122 2.5-2.5 2.5H9z" fill="#c6bae6"></path><path d="M32 2c1.103 0 2 .897 2 2v32c0 1.103-.897 2-2 2H9c-1.103 0-2-.897-2-2V8.414L13.414 2H32m0-1H13L6 8v28a3 3 0 003 3h23a3 3 0 003-3V4a3 3 0 00-3-3z" fill="#8b75a1"></path><path d="M18.011 29.014l-.327.986h-3.473c-.427 0-1.541.048-1.541.476 0 .782 3.998.677 3.998 2.67 0 1.354-1.212 1.713-2.589 1.818-.59.036-1.212 0-1.802 0-1.9 0-3.277-.105-3.277-.105l.623-1.782s1.081.141 1.769.141c.656 0 2.556.217 2.556-.214 0-.71-3.146-.675-3.146-2.492 0-.926 1.769-1.425 3.276-1.425 1.542-.001 3.933-.073 3.933-.073zm7.682.963l-3.244.927a.788.788 0 010 .392c-.361 1.211-3.571 1.354-3.571 1.354L18.125 35s8.06-.036 8.847-3.278c.163-.606-.394-1.246-1.279-1.745zm-2.818-.856c-1.442-.178-2.817-.107-2.817-.107l-.296.998s.853 0 1.573.214l1.54-1.105zm1.41.284l-2.327 1.034c.098.036.196.106.262.142l2.654-.96c-.196-.106-.394-.145-.589-.216z" fill="#fff"></path><path fill="#ffeea3" d="M29 4h3v7h-3zM24 4h3v7h-3zM19 4h3v7h-3zM14 4h3v7h-3z"></path><g><path fill="#ffeea3" d="M12 6.243l-3 3V11h3z"></path></g></svg>