<svg viewBox="0 0 40 40" xmlns="http://www.w3.org/2000/svg"><path fill="#b0c1d4" d="M16.5 25.5h7v7h-7z"></path><path d="M23 26v6h-6v-6h6m1-1h-8v8h8v-8z" fill="#66798f"></path><path fill="#dbf2ff" d="M1.5 5.5h37v23h-37z"></path><path d="M38 6v22H2V6h36m1-1H1v24h38V5z" fill="#66798f"></path><g><path d="M10.5 34.5V34c0-1.378 1.121-2.5 2.5-2.5h14c1.379 0 2.5 1.122 2.5 2.5v.5h-19z" fill="#b0c1d4"></path><path d="M27 32c1.103 0 2 .897 2 2H11c0-1.103.897-2 2-2h14m0-1H13a3 3 0 00-3 3v1h20v-1a3 3 0 00-3-3z" fill="#66798f"></path></g><g fill="#4e7ab5"><path d="M26.94 12.172h-5.1l-1.099 9.601h4.882c3.046 0 5.378-1.947 5.378-5.76-.001-3.811-4.061-3.841-4.061-3.841zm-1.756 7.763h-1.645l.796-6.006h1.481s2.441.221 2.441 2.577c-.001 2.963-3.073 3.429-3.073 3.429zM10.263 19.935c0-.494.111-.932.111-.932h2.743s-.194 1.592 1.451 1.592c1.157 0 2.088-.384 2.088-1.427 0-1.565-5.076-.576-5.076-3.731 0-2.934 2.417-3.839 5.458-3.839 1.165 0 1.937.236 2.449.559a6.331 6.331 0 00-4.123-1.518 6.36 6.36 0 00-4.923 10.395c-.205-.465-.178-.904-.178-1.099z"></path><path d="M20.205 12.87c.213.353.263.697.263.894 0 .549-.136 1.014-.136 1.014h-2.799c0-.656-.327-1.372-1.236-1.372-.658 0-1.671.302-1.671 1.343 0 1.672 5.128.741 5.128 3.621 0 1.756-1.51 4.17-5.598 4.17-1.215 0-2.051-.188-2.627-.464a6.36 6.36 0 0010.198-5.075 6.324 6.324 0 00-1.522-4.131z"></path></g></svg>