<svg viewBox="0 0 40 40" xmlns="http://www.w3.org/2000/svg"><path fill="#fff" d="M2.5 36.5v-33h35v21.176L24.857 36.5z"></path><path d="M37 4v20.459L24.66 36H3V4h34m1-1H2v34h23.055L38 24.893V3z" fill="#788b9c"></path><path fill="#788b9c" d="M2 3h36v6H2z"></path><path fill="none" stroke="#8bb7f0" stroke-miterlimit="10" d="M13 16.5h18M9 16.5h1M13 20.5h18M9 20.5h1M13 24.5h18M9 24.5h1M13 28.5h18M9 28.5h1"></path><path d="M23.765 39.5a1.26 1.26 0 01-.895-.371 1.269 1.269 0 010-1.789l6.901-6.58 1.519 1.419-6.639 6.957a1.246 1.246 0 01-.886.364z" fill="#b6c9d6"></path><path d="M29.775 31.449l.804.752-6.274 6.575a.764.764 0 01-1.081 0 .762.762 0 01-.017-1.065l6.568-6.262m-.006-1.375l-7.252 6.914a1.765 1.765 0 002.496 2.495L32 32.161l-2.231-2.087z" fill="#788b9c"></path><g fill="#c8d1db"><path d="M23.553 36h-2.797a3.748 3.748 0 00-.531 1h2.283l.009-.012L23.553 36zM38 21.522a8.882 8.882 0 00-1-.572v2.32c.36.252.694.537 1 .851v-2.599z"></path></g><g fill="#c2e8ff"><path d="M24.95 25H29v-1h-3.478c-.214.318-.4.655-.572 1zM29 28h-4.941A8.935 8.935 0 0024 29h5v-1z"></path></g><g><circle cx="33" cy="29" r="6.5" fill="#d1edff"></circle><path d="M33 22.5a6.5 6.5 0 100 13 6.5 6.5 0 000-13h0z" fill="none" stroke="#788b9c" stroke-miterlimit="10"></path></g></svg>