<svg viewBox="0 0 40 40" xmlns="http://www.w3.org/2000/svg"><path d="M19.446 37.5c-6.375 0-8.372-3.684-8.877-7h4.952c.318 1.059 1.653 2 3.925 2 1.794 0 3-1.005 3-2.5 0-1.604-1.266-1.979-2.607-2.377l-.579-.175c-.562-.174-3.683-1.06-3.683-1.06-3.878-1.321-5.997-5.659-4.697-9.662a7.596 7.596 0 011.204-2.277l.231-.302-.23-.304a7.805 7.805 0 01-1.206-7.117C11.895 3.601 14.958 1.5 18.5 1.5c6.375 0 8.372 3.684 8.877 7h-4.952c-.318-1.059-1.653-2-3.925-2-1.794 0-3 1.005-3 2.5 0 1.604 1.267 1.98 2.607 2.378l.56.169c.557.188 3.629 1.029 3.76 1.065 3.874 1.32 5.992 5.658 4.692 9.661a7.655 7.655 0 01-1.23 2.308l-.233.301.229.305a7.81 7.81 0 011.18 7.087c-1.014 3.125-4.077 5.226-7.619 5.226zM17.94 16.663c-.853 0-1.943.53-2.321 1.693-.412 1.269.291 2.697 1.534 3.12l2.157.735c.245.083.498.125.75.125.853 0 1.942-.53 2.32-1.693.412-1.269-.291-2.697-1.534-3.12l-2.157-.735a2.322 2.322 0 00-.749-.125z" fill="#8bb7f0"></path><path d="M18.5 2c5.648 0 7.657 3.047 8.278 6h-4.016c-.537-1.098-1.979-2-4.263-2C16.439 6 15 7.234 15 9c0 1.978 1.645 2.466 2.967 2.857.177.052.361.107.529.159.557.188 3.322.947 3.769 1.069 3.628 1.253 5.592 5.298 4.38 9.033a7.105 7.105 0 01-1.15 2.156l-.466.602.457.609a7.306 7.306 0 011.105 6.632C25.642 35.038 22.771 37 19.446 37c-5.648 0-7.657-3.047-8.278-6h4.016c.537 1.098 1.979 2 4.263 2 2.061 0 3.5-1.234 3.5-3 0-1.978-1.645-2.465-2.966-2.857a35.354 35.354 0 01-.575-.174c-.54-.167-3.344-.962-3.665-1.053-3.631-1.251-5.597-5.298-4.384-9.034a7.142 7.142 0 011.126-2.129l.462-.605-.46-.607a7.3 7.3 0 01-1.129-6.66C12.304 3.962 15.175 2 18.5 2m1.561 20.837c1.028 0 2.341-.638 2.796-2.039.494-1.522-.352-3.239-1.848-3.748l-2.157-.735a2.822 2.822 0 00-.911-.152c-1.028 0-2.342.639-2.796 2.039-.494 1.522.352 3.239 1.848 3.748l2.157.735c.295.101.602.152.911.152M18.5 1c-3.672 0-6.99 2.167-8.095 5.572a8.311 8.311 0 001.283 7.573 8.118 8.118 0 00-1.283 2.427c-1.38 4.25.886 8.885 5.036 10.298 0 0 3.112.882 3.669 1.054 1.62.509 2.836.668 2.836 2.075 0 1.365-1.203 2-2.5 2-2.453 0-3.5-1.125-3.5-2H10c.327 3.073 1.977 8 9.446 8 3.672 0 6.99-2.167 8.095-5.572a8.314 8.314 0 00-1.256-7.541 8.103 8.103 0 001.31-2.459c1.38-4.25-.886-8.885-5.036-10.298 0 0-3.183-.871-3.742-1.06C17.207 10.566 16 10.401 16 9c0-1.365 1.203-2 2.5-2C20.953 7 22 8.125 22 9h5.946c-.327-3.073-1.977-8-9.446-8zm1.561 20.837c-.198 0-.397-.033-.589-.099l-2.157-.735c-.99-.337-1.548-1.479-1.219-2.493.301-.926 1.167-1.347 1.846-1.348.198 0 .396.033.589.099l2.157.735c.99.337 1.548 1.479 1.219 2.493-.302.926-1.169 1.348-1.846 1.348z" fill="#4e7ab5"></path></svg>