<svg viewBox="0 0 40 40" xmlns="http://www.w3.org/2000/svg"><path d="M19.999 38.458c-1.708-.743-15.363-7.474-15.498-32.091L20 1.524l15.499 4.843c-.135 24.552-13.792 31.341-15.5 32.091z" fill="#99c4b8"></path><path d="M20 2.048l14.996 4.686c-.258 23.19-12.752 30.119-15 31.177C17.735 36.869 5.26 30.057 5.004 6.734L20 2.048M20 1L4 6c0 27.141 16 33 16 33s16-5.932 16-33L20 1z" fill="#5f9994"></path><path d="M12.632 20.715L12.187 23h-1.882l2.166-10H14.8l1.943 10h-1.884l-.431-2.285h-1.796zm1.618-1.513l-.327-2.092c-.104-.609-.238-1.617-.327-2.27h-.045c-.104.668-.252 1.692-.356 2.27l-.371 2.092h1.426zM25.204 20.923c.394.219 1.078.379 1.617.379.888 0 1.34-.467 1.34-1.107 0-.715-.438-1.063-1.267-1.604-1.342-.817-1.852-1.851-1.852-2.74 0-1.575 1.05-2.886 3.09-2.886.655 0 1.267.175 1.546.35l-.306 1.646a2.325 2.325 0 00-1.24-.334c-.817 0-1.21.496-1.21 1.021 0 .582.292.888 1.342 1.53 1.311.788 1.779 1.778 1.779 2.813 0 1.792-1.327 2.974-3.236 2.974-.788 0-1.546-.204-1.881-.394l.278-1.648zM22.775 18.609h-2.27v2.7h2.342V23h-4.286V13h4.286v1.691h-2.341v2.299h2.341v1.618h-.072z" fill="#fff"></path></svg>