<svg viewBox="0 0 40 40" xmlns="http://www.w3.org/2000/svg"><path fill="#c2e8ff" d="M2.503 38.5V10.266L20 3.536l17.503 6.73V38.5z"></path><path d="M20 4.071l17.003 6.538V38h-34V10.61L20 4.071M20 3L2.003 9.923V39h36V9.923L20 3z" fill="#8bb7f0"></path><path fill="#8bb7f0" d="M20 5.458L1.503 13.247V9.332L20 1.542l18.503 7.79v3.915z"></path><path d="M20 2.085l18.003 7.579v2.83L20.388 5.078 20 4.915l-.388.163-17.609 7.416v-2.83L20 2.085M20 1L1.003 9v5L20 6l19.003 8V9L20 1z" fill="#4e7ab5"></path><circle cx="20" cy="32" r="1.5" fill="#e8d47b"></circle><path d="M20 31c.551 0 1 .449 1 1s-.449 1-1 1-1-.449-1-1 .449-1 1-1m0-1a2 2 0 10-.001 3.999A2 2 0 0020 30z" fill="#ba9b48"></path><g><path d="M12.5 30.5v-2.037c1.549-.225 3-1.485 3-3.463v-3.643c0-2.241 1.179-4.857 4.5-4.857s4.5 2.616 4.5 4.857V25c0 2.051 1.467 3.25 3 3.465V30.5h-15z" fill="#ffeea3"></path><path d="M20 17c3.807 0 4 3.63 4 4.357V25c0 2.077 1.4 3.461 3 3.872V30H13v-1.128c1.6-.411 3-1.795 3-3.872v-3.643c0-.727.193-4.357 4-4.357m0-1c-3.593 0-5 2.829-5 5.357V25c0 1.853-1.501 3-3 3v3h16v-3c-1.499 0-3-1.093-3-3v-3.643C25 18.829 23.593 16 20 16z" fill="#ba9b48"></path></g><g><path d="M20 16.5a.5.5 0 01-.5-.5v-1a.5.5 0 011 0v1a.5.5 0 01-.5.5z" fill="#ffeea3"></path><path d="M20 14c-.55 0-1 .45-1 1v1c0 .55.45 1 1 1s1-.45 1-1v-1c0-.55-.45-1-1-1z" fill="#ba9b48"></path></g></svg>