<svg viewBox="0 0 40 40" xmlns="http://www.w3.org/2000/svg"><circle cx="4.5" cy="15.5" r="2" fill="#f5ce85"></circle><path d="M4.5 14c.827 0 1.5.673 1.5 1.5S5.327 17 4.5 17 3 16.327 3 15.5 3.673 14 4.5 14m0-1a2.5 2.5 0 100 5 2.5 2.5 0 000-5z" fill="#967a44"></path><path fill="#dcd5f2" d="M31.588 20.867l6.948-1.85.852 3.2-4.814 1.282z"></path><path d="M38.181 19.628l.595 2.234-4.072 1.085-2.084-1.837 5.561-1.482m.709-1.223l-8.334 2.219 3.888 3.427L40 22.572l-1.11-4.167z" fill="#8b75a1"></path><path fill="#dcd5f2" d="M.612 29.116l6.948-1.85-1.282 3.769-4.814 1.282z"></path><path d="M6.785 27.99l-.894 2.63-4.072 1.085-.595-2.234 5.561-1.481m1.549-1.448L0 28.762l1.11 4.167 5.556-1.48 1.668-4.907z" fill="#8b75a1"></path><path fill="none" stroke="#8b75a1" stroke-miterlimit="10" d="M5.369 27.83l29.968-7.981"></path><path d="M16.5 33.5v-6.169l1.763-5.546c.298-.937 1.093-1.271 1.737-1.271s1.439.334 1.737 1.271l1.763 5.546V33.5h-7z" fill="#dcd5f2"></path><path d="M20 21.014c.468 0 1.045.242 1.261.922L23 27.408V33h-6v-5.592l1.739-5.472c.216-.68.793-.922 1.261-.922m0-1c-.935 0-1.871.54-2.214 1.62L16 27.253V34h8v-6.747l-1.786-5.62c-.343-1.08-1.279-1.619-2.214-1.619z" fill="#8b75a1"></path><g><path d="M7.647 32.033c-.444 0-.854-.202-1.124-.554l-2.286-2.986-2.312-.75a2.059 2.059 0 01-1.406-2.246l.727-5.21A2.085 2.085 0 013.302 18.5c.618 0 1.199.272 1.594.747s.558 1.096.445 1.704l-.831 4.5 2.581 1.803 1.729 2.579a1.4 1.4 0 01.21 1.07 1.403 1.403 0 01-.613.901c-.23.15-.496.229-.77.229z" fill="#8bb7f0"></path><path d="M3.302 19a1.571 1.571 0 011.548 1.86l-.772 4.184-.117.633.528.368 2.24 1.564 1.676 2.502c.137.204.185.45.136.691a.91.91 0 01-.893.73.912.912 0 01-.727-.358l-2.192-2.862-.189-.246-.296-.096-2.164-.702a1.559 1.559 0 01-1.065-1.701l.727-5.21A1.58 1.58 0 013.302 19m0-1a2.576 2.576 0 00-2.55 2.219l-.727 5.21a2.56 2.56 0 001.747 2.79l2.164.702 2.192 2.862a1.91 1.91 0 002.565.439 1.914 1.914 0 00.545-2.668l-1.781-2.658-2.394-1.672.772-4.184A2.576 2.576 0 003.302 18z" fill="#4e7ab5"></path></g><g><circle cx="37.5" cy="7.5" r="2" fill="#f5ce85"></circle><path d="M37.5 6c.827 0 1.5.673 1.5 1.5S38.327 9 37.5 9 36 8.327 36 7.5 36.673 6 37.5 6m0-1a2.5 2.5 0 100 5 2.5 2.5 0 000-5z" fill="#967a44"></path></g><g><path d="M30.148 24.033a1.409 1.409 0 01-1.384-1.13 1.403 1.403 0 01.211-1.069l1.729-2.579 2.485-1.736.964-5.224a2.192 2.192 0 014.325.7l-.63 4.514a2.71 2.71 0 01-1.836 2.19l-2.454.795-2.287 2.986a1.401 1.401 0 01-1.123.553z" fill="#8bb7f0"></path><path d="M36.308 11a1.69 1.69 0 011.675 1.925l-.63 4.514a2.204 2.204 0 01-1.496 1.783l-2.306.748-.296.096-.189.247-2.192 2.862a.907.907 0 01-.727.358.904.904 0 01-.497-.148.905.905 0 01-.396-.582.907.907 0 01.136-.691l1.676-2.502 2.24-1.564.336-.235.074-.403.927-5.022A1.694 1.694 0 0136.308 11m0-1a2.693 2.693 0 00-2.647 2.203l-.927 5.022-2.394 1.672-1.781 2.658a1.912 1.912 0 001.589 2.979c.577 0 1.146-.261 1.521-.75l2.192-2.862 2.306-.748a3.193 3.193 0 002.178-2.596l.63-4.514A2.693 2.693 0 0036.308 10z" fill="#4e7ab5"></path></g><g><circle cx="20" cy="24" r="1" fill="#8b75a1"></circle></g></svg>