<svg viewBox="0 0 40 40" xmlns="http://www.w3.org/2000/svg"><path fill="#66798f" d="M19 3.203h2v20.646h-2z"></path><path d="M10.5 38.5c-1.103 0-2-.897-2-2V24.972c0-1.103.897-2 2-2s2 .897 2 2V36.5c0 1.103-.897 2-2 2z" fill="#c8d1db"></path><path d="M10.5 23.472c.827 0 1.5.673 1.5 1.5V36.5c0 .827-.673 1.5-1.5 1.5S9 37.327 9 36.5V24.972c0-.827.673-1.5 1.5-1.5m0-1a2.5 2.5 0 00-2.5 2.5V36.5a2.5 2.5 0 105 0V24.972a2.5 2.5 0 00-2.5-2.5z" fill="#66798f"></path><path d="M29.5 38.5c-1.103 0-2-.897-2-2V24.972c0-1.103.897-2 2-2s2 .897 2 2V36.5c0 1.103-.897 2-2 2z" fill="#c8d1db"></path><path d="M29.5 23.472c.827 0 1.5.673 1.5 1.5V36.5c0 .827-.673 1.5-1.5 1.5s-1.5-.673-1.5-1.5V24.972c0-.827.673-1.5 1.5-1.5m0-1a2.5 2.5 0 00-2.5 2.5V36.5a2.5 2.5 0 105 0V24.972a2.5 2.5 0 00-2.5-2.5z" fill="#66798f"></path><g><path d="M12.369 33.5l-3.692-12h1.29a3.608 3.608 0 013.545 2.844l.851 4.156H17.5v-10h5v10h3.137l.853-4.164a3.607 3.607 0 013.544-2.836h1.29l-3.692 12H12.369z" fill="#f78f8f"></path><path d="M22 19v10h4.045l.164-.799.768-3.748A3.112 3.112 0 0130.034 22h.612l-3.385 11H12.738L9.354 22h.612a3.11 3.11 0 013.054 2.436l.771 3.764.164.8H18V19h4m1-1h-6v10h-2.229L14 24.236A4.132 4.132 0 009.966 21H8l4 13h16l4-13h-1.966A4.132 4.132 0 0026 24.236L25.229 28H23V18z" fill="#c74343"></path></g><path fill="none" stroke="#66798f" stroke-width="1.5" stroke-miterlimit="10" d="M10 4.25l4.5-1.5 5.5 1.5 5.5-1.5 4.5 1.5"></path></svg>