<svg viewBox="0 0 40 40" xmlns="http://www.w3.org/2000/svg"><path fill="#bae0bd" d="M3.5 38.5V13.286L19.998 3.58 36.5 13.286V38.5z"></path><path d="M19.998 4.16L36 13.572V38H4V13.572L19.998 4.16m0-1.16L3 13v26h34V13L19.998 3z" fill="#5e9c76"></path><path fill="#bae0bd" d="M19.998 5.645L1.5 16.955v-4.059l18.498-11.31L38.5 12.896v4.059z"></path><path d="M19.998 2.172L38 13.176v2.887L20.519 5.378l-.522-.319-.522.319L2 16.063v-2.887L19.998 2.172m0-1.172L1 12.615v5.231L19.998 6.231 39 17.846v-5.231L19.998 1z" fill="#5e9c76"></path><path d="M17.461 19.922c0-.95.852-1.769 2.603-1.769 1.983 0 3.411.562 4.52 1.235v-3.205c-.825-.459-2.071-.728-3.741-.807v-2.161H19.11v2.208c-1.448.142-2.612.651-3.49 1.526-.879.875-1.319 1.933-1.319 3.175 0 4.91 8.241 5.062 8.241 7.753 0 .958-1.2 1.698-2.538 1.698-2.74 0-4.923-1.16-5.382-1.532v3.289a9.694 9.694 0 004.488 1.092v2.505h1.733v-2.576c1.559-.174 2.758-.662 3.598-1.466.837-.803 1.257-1.862 1.257-3.176.001-5.243-8.237-4.842-8.237-7.789z" fill="#45805b"></path></svg>