<svg viewBox="0 0 40 40" xmlns="http://www.w3.org/2000/svg"><path d="M24.421 38.509a4.216 4.216 0 01-1.735-.37L7.921 31.557 1.5 34.126v-9.972l5.758-2.138a8.082 8.082 0 012.824-.508 8.13 8.13 0 013.776.933l9.95 5.233a2.508 2.508 0 011.064 3.347l-.198.389 1.164.811 9.432-3.683c.28-.109.571-.165.864-.165a2.372 2.372 0 012.367 2.372c0 .907-.529 1.746-1.347 2.138l-10.885 5.205a4.304 4.304 0 01-1.848.421z" fill="#f5ce85"></path><path d="M10.082 22.009a7.65 7.65 0 013.544.875l9.95 5.233a2.007 2.007 0 01.851 2.678l-.396.776.715.498.587.409.438.305.497-.194 9.183-3.586c.222-.087.452-.131.683-.131a1.871 1.871 0 01.803 3.558l-10.886 5.206a3.782 3.782 0 01-1.63.371c-.531 0-1.047-.11-1.532-.326L8.318 31.186l-.386-.172-.392.157L2 33.387v-8.885l5.432-2.017a7.585 7.585 0 012.65-.476m0-1a8.613 8.613 0 00-2.998.539L1 23.807v11.057L7.911 32.1l14.571 6.496a4.77 4.77 0 004.002-.057l10.885-5.205a2.871 2.871 0 00-1.235-5.461c-.345 0-.698.063-1.046.199l-9.183 3.586-.587-.409a2.999 2.999 0 00-1.276-4.017l-9.95-5.233a8.61 8.61 0 00-4.01-.99z" fill="#967a44"></path><path d="M15.776 29.017l6.232 3.15c.96.485 2.131.137 2.67-.794v0" fill="none" stroke="#967a44" stroke-miterlimit="10"></path><path fill="#ffc49c" d="M15.5 1.5h21v18h-21z"></path><path d="M36 2v17H16V2h20m1-1H15v19h22V1z" fill="#a16a4a"></path><path fill="none" stroke="#a16a4a" stroke-width="2" stroke-linecap="round" stroke-linejoin="round" stroke-miterlimit="10" d="M23.5 5h5"></path></svg>