<svg viewBox="0 0 40 40" xmlns="http://www.w3.org/2000/svg"><path fill="#fff" d="M5.5 1.5h29v37h-29z"></path><path d="M34 2v36H6V2h28m1-1H5v38h30V1z" fill="#788b9c"></path><path fill="#d6e3ed" d="M34 21.64v14.689l1-.891V22.554z"></path><path d="M22.393 11.286v3.429h-4.786v-3.429h4.786m0-1h-4.786a1 1 0 00-1 1v4.429h6.786v-4.429a1 1 0 00-1-1z" fill="#967a44"></path><path fill="#f5ce85" d="M10.5 16.5h19v11h-19z"></path><path d="M29 17v10H11V17h18m1-1H10v12h20V16z" fill="#967a44"></path><path fill="#f5ce85" d="M29 22.929V27h-7v1h8v-5.071zM13 22.167a2.503 2.503 0 01-2.5-2.5V12.5h19v7.167c0 1.379-1.122 2.5-2.5 2.5H13z"></path><path d="M29 13v6.667c0 1.103-.897 2-2 2H13c-1.103 0-2-.897-2-2V13h18m1-1H10v7.667a3 3 0 003 3h14a3 3 0 003-3V12z" fill="#967a44"></path><circle cx="20" cy="19" r="1" fill="#967a44"></circle><g><path fill="#bae0bd" d="M31.5 31.5h-7v-5h7v-4.387L39.248 29 31.5 35.887z"></path><path d="M32 23.227L38.495 29 32 34.773V31h-7v-4h7v-3.773M31 21v5h-7v6h7v5l9-8-9-8z" fill="#5e9c76"></path></g></svg>