<svg viewBox="0 0 40 40" xmlns="http://www.w3.org/2000/svg"><path fill="#ffeea3" d="M1.5 5.5h31v21h-31z"></path><path d="M32 6v20H2V6h30m1-1H1v22h32V5z" fill="#ba9b48"></path><path d="M1.444 8.803l13.37 7.149a4.64 4.64 0 004.37 0l13.37-7.149" fill="#ffeea3" stroke="#ba9b48" stroke-miterlimit="10"></path><path fill="#ffeea3" d="M5.5 9.5h31v21h-31z"></path><path d="M36 10v20H6V10h30m1-1H5v22h32V9z" fill="#ba9b48"></path><path d="M5.444 12.803l13.37 7.149a4.64 4.64 0 004.37 0l13.37-7.149" fill="#ffeea3" stroke="#ba9b48" stroke-miterlimit="10"></path><path fill="#ffeea3" d="M36 24.449V30H22v1h15v-5.666z"></path><g><path fill="#bae0bd" d="M31.5 32.5h-7v-5h7v-4.387L39.248 30 31.5 36.887z"></path><path d="M32 24.227L38.495 30 32 35.773V32h-7v-4h7v-3.773M31 22v5h-7v6h7v5l9-8-9-8z" fill="#5e9c76"></path></g></svg>