<svg viewBox="0 0 40 40" xmlns="http://www.w3.org/2000/svg"><path fill="#839cb2" d="M16.5 23.5h7v9h-7z"></path><path d="M23 24v8h-6v-8h6m1-1h-8v10h8V23z" fill="#66798f"></path><path fill="#f2faff" d="M1.5 4.5h37v24h-37z"></path><path d="M38 5v23H2V5h36m1-1H1v25h38V4z" fill="#788b9c"></path><path fill="#b0c1d4" d="M9.5 32.5h21v3h-21z"></path><path d="M30 33v2H10v-2h20m1-1H9v4h22v-4z" fill="#66798f"></path><path fill="#8bb7f0" d="M10.5.5h19v20h-19z"></path><path d="M29 1v19H11V1h18m1-1H10v21h20V0z" fill="#4e7ab5"></path><path d="M10 1v19H7V1h3m1-1H6v21h5V0zM33 1v19h-3V1h3m1-1h-5v21h5V0z" fill="#4e7ab5"></path><path fill="#4e7ab5" d="M29 4h5v1h-5zM29 8h5v1h-5zM29 12h5v1h-5zM29 16h5v1h-5zM6 4h5v1H6zM6 8h5v1H6zM6 12h5v1H6zM6 16h5v1H6z"></path><g><path fill="#fff" d="M18.5 4h3v10.75h-3z"></path></g><g><path fill="#fff" d="M14 11h12l-6 6z"></path></g></svg>