<svg viewBox="0 0 40 40" xmlns="http://www.w3.org/2000/svg"><path fill="#ffeea3" d="M1.5 7.5h35v23h-35z"></path><path d="M36 8v22H2V8h34m1-1H1v24h36V7z" fill="#ba9b48"></path><path d="M1.5 12.302l15.042 7.799a5.36 5.36 0 004.917 0L36.5 12.302" fill="#ffeea3" stroke="#ba9b48" stroke-miterlimit="10"></path><path fill="#ffeea3" d="M36 24.449V30H22v1h15v-5.666z"></path><g><path fill="#bae0bd" d="M31.5 32.5h-7v-5h7v-4.387L39.247 30 31.5 36.887z"></path><path d="M32 24.227L38.495 30 32 35.773V32h-7v-4h7v-3.773M31 22v5h-7v6h7v5l9-8-9-8z" fill="#5e9c76"></path></g></svg>