<svg viewBox="0 0 40 40" xmlns="http://www.w3.org/2000/svg"><path fill="#fff" d="M6.5 37.5v-35h18.293l8.707 8.707V37.5z"></path><path d="M24.586 3L33 11.414V37H7V3h17.586M25 2H6v36h28V11l-9-9z" fill="#788b9c"></path><path fill="#fff" d="M24.5 11.5v-9h.293l8.707 8.707v.293z"></path><path d="M25 3.414L32.586 11H25V3.414M25 2h-1v10h10v-1l-9-9z" fill="#788b9c"></path><g><path fill="#8bb7f0" d="M23.5 24.5h-13v-3h13v-3.413L29.231 23 23.5 27.913z"></path><path d="M24 19.174L28.463 23 24 26.826V24H11v-2h13v-2.826M23 17v4H10v4h13v4l7-6-7-6z" fill="#4e7ab5"></path></g></svg>