<svg viewBox="0 0 40 40" xmlns="http://www.w3.org/2000/svg"><path fill="#99c99e" d="M2.5 2.5h35v35h-35z"></path><path d="M37 3v34H3V3h34m1-1H2v36h36V2z" fill="#5e9c76"></path><circle cx="20" cy="20" r="3" fill="#fff"></circle><path d="M20 13c3.86 0 7 3.14 7 7s-3.14 7-7 7-7-3.14-7-7 3.14-7 7-7m0-2c-4.963 0-9 4.037-9 9s4.037 9 9 9 9-4.037 9-9-4.037-9-9-9z" fill="#e1efe2"></path><g><path d="M20 8c6.617 0 12 5.383 12 12s-5.383 12-12 12S8 26.617 8 20 13.383 8 20 8m0-2C12.281 6 6 12.281 6 20s6.281 14 14 14 14-6.281 14-14S27.719 6 20 6z" fill="#bae0bd"></path></g></svg>