<svg viewBox="0 0 40 40" xmlns="http://www.w3.org/2000/svg"><path fill="#ffeea3" d="M20 6.583l-18.5 9.25v-4.31L20 2.273l18.5 9.25v4.31z"></path><path d="M20 2.832l18 9v3.192L20.447 6.248 20 6.025l-.447.224L2 15.025v-3.192l18-9.001m0-1.118l-19 9.5v5.429l19-9.5 19 9.5v-5.429l-19-9.5z" fill="#ba9b48"></path><path fill="#ffeea3" d="M20 10.655l-18.5 9.25v-4.31L20 6.345l18.5 9.25v4.31z"></path><path d="M20 6.904l18 9v3.193L20.447 10.32 20 10.096l-.447.224L2 19.096v-3.193l18-8.999m0-1.118l-19 9.5v5.429l19-9.5 19 9.5v-5.429l-19-9.5z" fill="#ba9b48"></path><path fill="#ffeea3" d="M20 14.727l-18.5 9.25v-4.311l18.5-9.25 18.5 9.25v4.311z"></path><path d="M20 10.975l18 9v3.193l-17.553-8.776-.447-.224-.447.224L2 23.168v-3.193l18-9m0-1.118l-19 9.5v5.429l19-9.5 19 9.5v-5.429l-19-9.5z" fill="#ba9b48"></path><g><path d="M20 32.429c-10.655 0-17.191-3.169-18.5-3.866V24.16C3.921 25.072 12.291 28 20 28s16.079-2.928 18.5-3.841v4.403c-1.309.698-7.845 3.867-18.5 3.867z" fill="#ffeea3"></path><path d="M38 24.882v3.378c-1.727.878-8.005 3.668-18 3.668-9.958 0-16.267-2.794-18-3.67v-3.377C5.07 26.003 12.723 28.5 20 28.5s14.93-2.497 18-3.618m1-1.453S29.093 27.5 20 27.5 1 23.429 1 23.429v5.429s6.786 4.071 19 4.071 19-4.071 19-4.071v-5.429z" fill="#ba9b48"></path></g><g><path d="M20 36.5c-10.655 0-17.191-3.168-18.5-3.866V28.23c2.421.913 10.791 3.841 18.5 3.841s16.079-2.928 18.5-3.841v4.404c-1.309.698-7.845 3.866-18.5 3.866z" fill="#ffeea3"></path><path d="M38 28.953v3.378C36.273 33.21 29.995 36 20 36c-9.958 0-16.267-2.794-18-3.67v-3.377c3.07 1.121 10.723 3.618 18 3.618s14.93-2.496 18-3.618m1-1.453s-9.907 4.071-19 4.071S1 27.5 1 27.5v5.429S7.786 37 20 37s19-4.071 19-4.071V27.5z" fill="#ba9b48"></path></g></svg>