<svg viewBox="0 0 40 40" xmlns="http://www.w3.org/2000/svg"><path fill="#ffeea3" d="M20 12.798l-18.5 9.25v-4.31L20 8.488l18.5 9.25v4.31z"></path><path d="M20 9.047l18 9v3.193l-17.553-8.776-.447-.225-.447.224L2 21.239v-3.193l18-8.999m0-1.118l-19 9.5v5.429l19-9.5 19 9.5v-5.429l-19-9.5z" fill="#ba9b48"></path><path fill="#ffeea3" d="M20 16.87L1.5 26.12v-4.311l18.5-9.25 18.5 9.25v4.311z"></path><path d="M20 13.118l18 9v3.192l-17.553-8.776L20 16.31l-.447.224L2 25.31v-3.192l18-9M20 12L1 21.5v5.429l19-9.5 19 9.5V21.5L20 12z" fill="#ba9b48"></path><g><path fill="#ffeea3" d="M20 20.941l-18.5 9.25V25.88L20 16.63l18.5 9.25v4.311z"></path><path d="M20 17.189l18 9v3.193l-17.553-8.776-.447-.224-.447.224L2 29.382v-3.193l18-9m0-1.118l-19 9.5V31l19-9.5L39 31v-5.429l-19-9.5z" fill="#ba9b48"></path></g></svg>