<svg viewBox="0 0 40 40" xmlns="http://www.w3.org/2000/svg"><path fill="#66798f" d="M6 7h28v26H6v1h29V6H6z"></path><path fill="#8bb7f0" d="M30.5 15.5h8v8h-8z"></path><path d="M38 16v7h-7v-7h7m1-1h-9v9h9v-9z" fill="#4e7ab5"></path><path fill="#8bb7f0" d="M1.5 2.5h8v8h-8z"></path><path d="M9 3v7H2V3h7m1-1H1v9h9V2z" fill="#4e7ab5"></path><path fill="#8bb7f0" d="M17.5 2.5h8v8h-8z"></path><path d="M25 3v7h-7V3h7m1-1h-9v9h9V2z" fill="#4e7ab5"></path><g><path fill="#8bb7f0" d="M1.5 29.5h8v8h-8z"></path><path d="M9 30v7H2v-7h7m1-1H1v9h9v-9z" fill="#4e7ab5"></path></g><g><path fill="#8bb7f0" d="M17.5 29.5h8v8h-8z"></path><path d="M25 30v7h-7v-7h7m1-1h-9v9h9v-9z" fill="#4e7ab5"></path></g></svg>