<svg viewBox="0 0 40 40" xmlns="http://www.w3.org/2000/svg"><path d="M20 38.5C9.799 38.5 1.5 30.201 1.5 20S9.799 1.5 20 1.5 38.5 9.799 38.5 20 30.201 38.5 20 38.5z" fill="#8bb7f0"></path><path d="M20 2c9.925 0 18 8.075 18 18s-8.075 18-18 18S2 29.925 2 20 10.075 2 20 2m0-1C9.507 1 1 9.507 1 20s8.507 19 19 19 19-8.507 19-19S30.493 1 20 1z" fill="#4e7ab5"></path><path fill="none" stroke="#fff" stroke-width="3" stroke-miterlimit="10" d="M30.5 28V13.5h-.157L26 22.5l-4.343-9H21.5V28M15.5 17v-1a2.5 2.5 0 00-2.5-2.5h-2A2.5 2.5 0 008.5 16v1.4c0 2.605 7 2.605 7 5.2V24a2.5 2.5 0 01-2.5 2.5h-2A2.5 2.5 0 018.5 24v0"></path></svg>