<svg viewBox="0 0 40 40" xmlns="http://www.w3.org/2000/svg"><path fill="#f5ce85" d="M17.896 12.714l1.157-5.785h1.894l1.157 5.785z"></path><path d="M20.537 7.429l.957 4.786h-2.989l.957-4.786h1.075m.82-1h-2.714l-1.357 6.786h5.429l-1.358-6.786z" fill="#967a44"></path><path d="M1.5 35.5v-4.028A4.508 4.508 0 005.472 27.5h29.056a4.508 4.508 0 003.972 3.972V35.5h-37z" fill="#f5ce85"></path><path d="M34.1 28a5.017 5.017 0 003.9 3.9V35H2v-3.1A5.017 5.017 0 005.9 28h28.2m.9-1H5a4 4 0 01-4 4v5h38v-5a4 4 0 01-4-4z" fill="#967a44"></path><path d="M3.5 27.5v-1.565c0-8.511 6.924-15.435 15.435-15.435h2.13c8.511 0 15.435 6.924 15.435 15.435V27.5h-33z" fill="#ffeea3"></path><path d="M21.065 11C29.3 11 36 17.7 36 25.935V27H4v-1.065C4 17.7 10.7 11 18.935 11h2.13m0-1h-2.13C10.134 10 3 17.134 3 25.935V28h34v-2.065C37 17.134 29.866 10 21.065 10z" fill="#ba9b48"></path><path fill="none" stroke="#967a44" stroke-miterlimit="10" d="M38.321 31.5H1.679"></path><g><path d="M16.5 7.5v-.833A2.17 2.17 0 0118.667 4.5h2.667a2.17 2.17 0 012.167 2.167V7.5H16.5z" fill="#ffeea3"></path><path d="M21.333 5A1.67 1.67 0 0123 6.667V7h-6v-.333A1.67 1.67 0 0118.667 5h2.666m0-1h-2.667A2.667 2.667 0 0016 6.667V8h8V6.667A2.667 2.667 0 0021.333 4z" fill="#ba9b48"></path></g></svg>