<svg viewBox="0 0 40 40" xmlns="http://www.w3.org/2000/svg"><path fill="#e1ebf2" d="M8.5 1.5h23v37h-23z"></path><path d="M31 2v36H9V2h22m1-1H8v38h24V1z" fill="#66798f"></path><path fill="#b0c1d4" d="M12.5 5.5h15v18h-15z"></path><path d="M27 6v17H13V6h14m1-1H12v19h16V5z" fill="#66798f"></path><path fill="#66798f" d="M28 11v1H12v-1zM28 17v1H12v-1z"></path><path fill="#fff" d="M25 14v1h-3v-1zM25 20v1h-3v-1zM25 8v1h-3V8z"></path><g><circle cx="20" cy="30" r="2.5" fill="#8bb7f0"></circle><path d="M20 28c1.103 0 2 .897 2 2s-.897 2-2 2-2-.897-2-2 .897-2 2-2m0-1a3 3 0 100 6 3 3 0 000-6z" fill="#4e7ab5"></path></g></svg>