<svg viewBox="0 0 40 40" xmlns="http://www.w3.org/2000/svg"><path d="M4.164 26.906C15.028 9.35 19.083 6.113 20.616 4.889c2.867-2.285 6.422-2.311 9.859-2.336 2.516-.019 4.892-.036 6.664-.993a.575.575 0 01.245-.06c.074 0 .112.021.12.027-.006.011-.041.144-.243.347-.884.924-1.246 1.304-.84 1.708l.146.145.217.003c.252 0 .412-.116 1.229-.884l.1-.094c.166-.154.299-.209.362-.209.021.018.051.144-.043.332-.954 1.766-.981 4.156-1.011 6.687-.039 3.426-.079 6.968-2.257 9.757-1.23 1.537-4.408 5.51-22.071 16.517l-8.929-8.93z" fill="#9bcc9f"></path><path d="M36.012 2.552c-.324.484-.398.929.055 1.381l.303.296h.414c.238 0 .423-.059.658-.222-.475 1.636-.497 3.549-.519 5.546-.038 3.343-.078 6.8-2.145 9.446l-.032.041c-1.178 1.473-4.283 5.356-21.579 16.159l-8.368-8.368C15.458 9.649 19.423 6.482 20.928 5.28l.07-.056c2.662-2.121 6.128-2.146 9.481-2.171 1.99-.014 3.896-.028 5.533-.501M37.384 1c-.15 0-.316.038-.481.12-3.954 2.135-11.467-.712-16.528 3.321-1.582 1.266-5.615 4.35-16.844 22.539l9.49 9.49C31.21 25.161 34.294 21.207 35.559 19.626c3.954-5.061 1.186-12.574 3.321-16.528.274-.547.044-1.055-.404-1.055-.199 0-.442.101-.703.344-.211.196-.884.844-.989.844-.004 0-.008-.001-.01-.003-.058-.058.841-.999.841-.999.687-.689.336-1.229-.231-1.229z" fill="#5e9c76"></path><path d="M14.571 38.5c-1.478 0-2.613-.44-3.712-.867-.586-.227-1.192-.462-1.83-.621a5.496 5.496 0 00-1.317-.159 6.122 6.122 0 00-3.935 1.459l-2.079-2.02c1.207-1.407 1.644-3.155 1.298-5.205-.155-.915-.456-1.724-.747-2.506-.385-1.034-.749-2.011-.749-3.152 0-1.162.724-2.067 1.247-2.571.489 1.253 1.934 4.003 6.084 8.153 4.231 4.231 7.083 5.73 8.341 6.237-.479.52-1.371 1.252-2.601 1.252z" fill="#bae0bd"></path><path d="M2.601 23.779c.728 1.509 2.338 4.048 5.876 7.586 3.612 3.612 6.268 5.275 7.802 6.025-.429.324-1.006.61-1.708.61-1.384 0-2.427-.405-3.532-.833-.6-.233-1.221-.473-1.89-.64a5.935 5.935 0 00-1.438-.174 6.613 6.613 0 00-3.9 1.295L2.37 36.249c1.07-1.452 1.456-3.245 1.118-5.244-.163-.962-.472-1.793-.771-2.597C2.348 27.416 2 26.48 2 25.429c0-.649.279-1.214.601-1.65M3 22s-2 1.329-2 3.429c0 2.128 1.154 3.681 1.503 5.742.348 2.062-.158 3.796-1.503 5.14L3.768 39a5.656 5.656 0 013.944-1.647c.404 0 .806.047 1.197.145 1.782.444 3.279 1.502 5.662 1.502C16.787 39 18 37 18 37s-3.122-.649-8.816-6.342C3.49 24.964 3 22 3 22z" fill="#5e9c76"></path><g><path d="M16.104 30.143c.079.712-1.028 1.503-2.531 1.582-1.819.079-2.689-.791-3.242-1.107.633-.474 1.503-1.423 3.005-1.582 1.424-.158 2.689.395 2.768 1.107zm7.276-7.513c-.079-.712-1.344-1.265-2.768-1.107-1.503.158-2.372 1.107-3.005 1.582.554.237 1.423 1.186 3.242 1.107 1.503-.079 2.61-.87 2.531-1.582zm-.475 1.898c-.633.633-2.214.633-2.214.633s.791.395 1.028 1.423c1.107.079 2.372-.395 2.293-1.107.08-.632-.79-.949-1.107-.949zm-3.796 3.796c-.633.633-2.214.633-2.214.633s.791.395 1.028 1.423c1.107.079 2.293-.395 2.293-1.107.08-.633-.79-.949-1.107-.949zm-2.056-3.163c-1.503.158-2.372 1.107-3.005 1.582.554.316 1.423 1.186 3.242 1.107 1.503-.079 2.61-.87 2.531-1.582-.079-.712-1.344-1.265-2.768-1.107zm11.388-8.304c1.503-.079 2.61-.87 2.531-1.582-.079-.712-1.344-1.265-2.768-1.107-1.503.158-2.372 1.107-3.005 1.582.553.238 1.344 1.186 3.242 1.107zm6.247-5.535c-.158-.712-1.423-1.107-2.847-.87-1.423.237-2.293 1.344-2.847 1.819.553.237 1.423 1.107 3.321.791 1.424-.159 2.531-1.029 2.373-1.74zm.791-3.638c-.158-.554-1.186-.633-2.135-.237-.949.395-1.423 1.265-1.74 1.74.396.079 1.186.553 2.452.079 1.028-.317 1.66-1.107 1.423-1.582zm-1.581 6.089c-.633.633-2.214.633-2.214.633s.791.395 1.028 1.423c1.107.079 2.293-.395 2.293-1.107.079-.632-.791-.949-1.107-.949zm-6.564 4.982c-.079-.712-1.344-1.265-2.768-1.107-1.503.158-2.372 1.107-3.005 1.582.554.316 1.423 1.265 3.242 1.107 1.503-.079 2.61-.87 2.531-1.582zm-.87 2.136c-.633.633-2.214.633-2.214.633s.791.395 1.028 1.423c1.107.079 2.372-.395 2.293-1.107.079-.633-.791-.949-1.107-.949zm3.875-3.638c-.633.633-2.214.633-2.214.633s.791.395 1.028 1.423c1.107.158 2.372-.395 2.293-1.107.079-.633-.791-.949-1.107-.949zm-4.508-5.299c.158-1.423-.395-2.689-1.107-2.768-.712-.079-1.503 1.107-1.503 2.531-.158 1.819.791 2.689 1.028 3.242.396-.632 1.424-1.581 1.582-3.005zm-.237-3.558s0-1.582.633-2.214c0-.237-.316-1.107-.949-1.107S24.092 6.34 24.25 7.368c1.028.316 1.344 1.028 1.344 1.028zm6.959-1.582c.395-.949.316-1.898-.158-2.135-.553-.158-1.265.395-1.661 1.423-.395 1.265 0 2.056.079 2.452.475-.316 1.345-.791 1.74-1.74zm-10.518 5.061s0-1.582.633-2.214c0-.237-.316-1.107-.949-1.107s-1.186 1.265-1.028 2.293c1.028.317 1.344 1.028 1.344 1.028zm7.513-3.558c.237-1.423-.158-2.689-.87-2.847-.712-.158-1.503.949-1.74 2.372-.316 1.819.554 2.768.791 3.321.475-.553 1.582-1.423 1.819-2.846zm-11.15 7.433s0-1.582.633-2.214c0-.237-.316-1.107-.949-1.107s-1.107 1.186-1.028 2.293c1.027.317 1.344 1.028 1.344 1.028zm3.875-.237c.158-1.423-.395-2.689-1.107-2.768-.712-.079-1.503 1.107-1.503 2.531-.158 1.819.791 2.689 1.028 3.242.395-.632 1.423-1.582 1.582-3.005zm-11.388 7.513s0-1.582.633-2.214c0-.237-.316-1.107-.949-1.107s-1.186 1.186-1.028 2.293c1.028.316 1.344 1.028 1.344 1.028zm-1.186.87c-.712-.079-1.503 1.028-1.582 2.452-.079 1.898.791 2.689 1.107 3.321.395-.633 1.423-1.582 1.582-3.005.158-1.424-.395-2.689-1.107-2.768zm5.061-.949c.158-1.423-.395-2.689-1.107-2.768-.791 0-1.503 1.107-1.503 2.531-.158 1.819.791 2.689 1.028 3.242.396-.633 1.424-1.582 1.582-3.005zm3.638-3.48c.158-1.423-.395-2.689-1.107-2.768s-1.503 1.028-1.503 2.531c-.158 1.819.791 2.689 1.028 3.242.395-.633 1.424-1.581 1.582-3.005zm-3.638-.237s0-1.582.633-2.214c0-.237-.316-1.107-.949-1.107-.633.079-1.186 1.265-1.028 2.293 1.028.316 1.344 1.028 1.344 1.028z" fill="#e1f5e3"></path></g><g><path d="M3.069 35.061s-.423 1.105-1.414 1.886l1.458 1.416c.948-1.119 2.058-1.482 2.058-1.482l-2.102-1.82z" fill="#bae0bd"></path></g></svg>