<svg viewBox="0 0 40 40" xmlns="http://www.w3.org/2000/svg"><path fill="#fff" d="M9.5 1.5h29v37h-29z"></path><path d="M38 2v36H10V2h28m1-1H9v38h30V1z" fill="#788b9c"></path><path fill="none" stroke="#c5d4de" stroke-miterlimit="10" d="M27 11.5h6M27 15.5h6M27 19.5h6M15 23.5h18M15 27.5h18M15 31.5h18"></path><circle cx="20" cy="11" r="2.5" fill="#ffeea3"></circle><path d="M20 9c1.103 0 2 .897 2 2s-.897 2-2 2-2-.897-2-2 .897-2 2-2m0-1a3 3 0 100 6 3 3 0 000-6z" fill="#ba9b48"></path><path d="M15.528 19.5c.25-2.247 2.16-4 4.472-4a4.506 4.506 0 014.472 4h-8.944z" fill="#c2e8ff"></path><path d="M20 16a4.007 4.007 0 013.873 3h-7.747A4.01 4.01 0 0120 16m0-1a5 5 0 00-5 5h10a5 5 0 00-5-5z" fill="#7496c4"></path><path fill="#d6e3ed" d="M10 14.143l-1-1v17.714l1-1z"></path><g><path fill="#f78f8f" d="M7.5 24.5h-7v-5h7v-4.387L15.247 22 7.5 28.887z"></path><path d="M8 16.227L14.495 22 8 27.773V24H1v-4h7v-3.773M7 14v5H0v6h7v5l9-8-9-8z" fill="#c74343"></path></g></svg>