<svg viewBox="0 0 40 40" xmlns="http://www.w3.org/2000/svg"><path d="M7.5 4.857S9.705 3.5 11.571 3.5s6.083 1 8.821 1" fill="none" stroke="#66798f" stroke-miterlimit="10"></path><path fill="#b0c1d4" d="M16.5 1.5h7v5h-7z"></path><path d="M23 2v4h-6V2h6m1-1h-8v6h8V1z" fill="#66798f"></path><path d="M9 38.5A2.503 2.503 0 016.5 36V17c0-4.136 3.364-7.5 7.5-7.5h12c4.136 0 7.5 3.364 7.5 7.5v19c0 1.378-1.122 2.5-2.5 2.5H9z" fill="#dbf2ff"></path><path d="M26 10c3.86 0 7 3.14 7 7v19c0 1.103-.897 2-2 2H9c-1.103 0-2-.897-2-2V17c0-3.86 3.14-7 7-7h12m0-1H14a8 8 0 00-8 8v19a3 3 0 003 3h22a3 3 0 003-3V17a8 8 0 00-8-8z" fill="#7496c4"></path><path fill="#dbf2ff" d="M14.5 6.5h11v3h-11z"></path><path d="M25 7v2H15V7h10m1-1H14v4h12V6z" fill="#7496c4"></path><path d="M31 38H9a2 2 0 01-2-2V26h26v10a2 2 0 01-2 2z" fill="#b5ddf5"></path><g><circle cx="15.5" cy="18.5" r="3" fill="#fff"></circle><path d="M15.5 16c1.378 0 2.5 1.122 2.5 2.5S16.878 21 15.5 21 13 19.878 13 18.5s1.122-2.5 2.5-2.5m0-1a3.5 3.5 0 100 7 3.5 3.5 0 000-7z" fill="#7496c4"></path></g><g><circle cx="25" cy="26" r="2.5" fill="#dbf2ff"></circle><path d="M25 24c1.103 0 2 .897 2 2s-.897 2-2 2-2-.897-2-2 .897-2 2-2m0-1a3 3 0 100 6 3 3 0 000-6z" fill="#7496c4"></path></g><g><circle cx="16.5" cy="31.5" r="2" fill="#dbf2ff"></circle><path d="M16.5 30c.827 0 1.5.673 1.5 1.5s-.673 1.5-1.5 1.5-1.5-.673-1.5-1.5.673-1.5 1.5-1.5m0-1a2.5 2.5 0 100 5 2.5 2.5 0 000-5z" fill="#7496c4"></path></g></svg>