<svg viewBox="0 0 40 40" xmlns="http://www.w3.org/2000/svg"><path d="M6.702 33.5l.807-2.335c1-2.854.996-7.837.991-13.112v-.461c2.219.387 4.362.89 4.385.895a.507.507 0 00.546-.233.5.5 0 00-.06-.59c-.11-.122-2.633-2.891-4.895-3.995-.384-4.805-1.483-8.658-1.849-9.941a12.468 12.468 0 01-.113-.406c0-.004-.013-.097-.014-.146a.709.709 0 01.23-.511.799.799 0 01.462-.165c.081 0 .142.02.187.033l.036.01c7.532 3.022 13.994 7.558 18.196 12.771 3.498 4.354 4.694 10.363 5.896 17.767l-.003.42H6.702z" fill="#b6c9d6"></path><path d="M7.192 3l.036.01.028.008c7.443 2.991 13.821 7.467 17.965 12.608 3.397 4.227 4.586 10.117 5.766 17.374H7.404l.577-1.667c1.02-2.912 1.025-7.875 1.02-13.143 1.979.364 3.749.779 3.77.784a1 1 0 00.97-1.645c-.109-.121-2.511-2.756-4.79-3.978-.407-4.727-1.482-8.493-1.844-9.763-.046-.162-.081-.28-.099-.351L7 3.174a.23.23 0 01.045-.118A.289.289 0 017.192 3m0-1c-.285 0-.557.109-.787.285A1.205 1.205 0 006 3.186c.001.071.025.239.025.239C6.143 3.951 7.584 8.313 8 14c2.254.968 5 4 5 4s-2.545-.599-5-1c0 5.542.075 11.038-.963 14.002L6 34h26v-1c-1.154-7.111-2.336-13.44-6-18-4.004-4.967-10.406-9.719-18.428-12.932-.027 0-.167-.068-.38-.068z" fill="#788b9c"></path><path d="M1 39h38v-7.123c-1.308-.263-2.852-.877-4-.877-1.458 0-3.563 1-5 1-1.438 0-3.542-1-5-1s-3.563 1-5 1c-1.438 0-3.542-1-5-1s-3.563 1-5 1c-1.438 0-3.542-1-5-1-1.148 0-2.692.614-4 .877V39z" fill="#8bb7f0"></path><g><path d="M35 31c-1.458 0-3.563 1-5 1-1.438 0-3.542-1-5-1s-3.563 1-5 1c-1.438 0-3.542-1-5-1s-3.563 1-5 1c-1.438 0-3.542-1-5-1-1.148 0-2.692.614-4 .877V32.9c.574-.103 1.17-.271 1.754-.435C3.566 32.237 4.406 32 5 32s1.434.237 2.246.465c.934.263 1.9.535 2.754.535s1.82-.272 2.754-.535C13.566 32.237 14.406 32 15 32s1.434.237 2.246.465c.934.263 1.9.535 2.754.535s1.82-.272 2.754-.535C23.566 32.237 24.406 32 25 32s1.434.237 2.246.465c.934.263 1.9.535 2.754.535s1.82-.272 2.754-.535C33.566 32.237 34.406 32 35 32s1.434.237 2.246.465c.584.165 1.18.332 1.754.435v-1.023c-1.308-.263-2.852-.877-4-.877z" fill="#4e7ab5"></path></g></svg>