<svg viewBox="0 0 40 40" xmlns="http://www.w3.org/2000/svg"><path d="M21 37.5c-9.649 0-17.5-7.851-17.5-17.5S11.351 2.5 21 2.5 38.5 10.351 38.5 20 30.649 37.5 21 37.5zm0-30C14.107 7.5 8.5 13.107 8.5 20S14.107 32.5 21 32.5 33.5 26.893 33.5 20 27.893 7.5 21 7.5z" fill="#bae0bd"></path><path d="M21 3c9.374 0 17 7.626 17 17 0 9.374-7.626 17-17 17S4 29.374 4 20c0-9.374 7.626-17 17-17m0 30c7.168 0 13-5.832 13-13S28.168 7 21 7 8 12.832 8 20s5.832 13 13 13m0-31C11.059 2 3 10.059 3 20s8.059 18 18 18 18-8.059 18-18S30.941 2 21 2zm0 30c-6.627 0-12-5.373-12-12S14.373 8 21 8s12 5.373 12 12-5.373 12-12 12z" fill="#5e9c76"></path><circle cx="29" cy="8" r="5.5" fill="#bae0bd"></circle><path d="M29 3c2.757 0 5 2.243 5 5s-2.243 5-5 5-5-2.243-5-5 2.243-5 5-5m0-1a6 6 0 100 12 6 6 0 000-12z" fill="#5e9c76"></path><g><circle cx="30" cy="32" r="5.5" fill="#bae0bd"></circle><path d="M30 27c2.757 0 5 2.243 5 5s-2.243 5-5 5-5-2.243-5-5 2.243-5 5-5m0-1a6 6 0 100 12 6 6 0 000-12z" fill="#5e9c76"></path></g><g><circle cx="7" cy="20" r="5.5" fill="#bae0bd"></circle><path d="M7 15c2.757 0 5 2.243 5 5s-2.243 5-5 5-5-2.243-5-5 2.243-5 5-5m0-1a6 6 0 100 12 6 6 0 000-12z" fill="#5e9c76"></path></g></svg>