<svg viewBox="0 0 40 40" xmlns="http://www.w3.org/2000/svg"><path d="M34 13.5c-2.481 0-4.5-2.019-4.5-4.5s2.019-4.5 4.5-4.5c3.196 0 4.5.82 4.5 2.833 0 2.436-2.016 6.167-4.5 6.167z" fill="#e8d47b"></path><path d="M34 5c3.331 0 4 .893 4 2.333C38 9.755 36.022 13 34 13c-2.206 0-4-1.794-4-4s1.794-4 4-4m0-1a5 5 0 000 10c2.761 0 5-3.905 5-6.667C39 4.572 36.761 4 34 4z" fill="#ba9b48"></path><path d="M6 13.5c-2.484 0-4.5-3.731-4.5-6.167C1.5 5.32 2.804 4.5 6 4.5c2.481 0 4.5 2.019 4.5 4.5S8.481 13.5 6 13.5z" fill="#e8d47b"></path><path d="M6 5c2.206 0 4 1.794 4 4s-1.794 4-4 4c-2.022 0-4-3.245-4-5.667C2 5.893 2.669 5 6 5m0-1c-2.761 0-5 .572-5 3.333C1 10.095 3.239 14 6 14A5 5 0 006 4z" fill="#ba9b48"></path><path d="M20 29.5c-2.652 0-5.055-1.364-6.427-3.65l-.073-.121-.126-.065C8.517 23.16 5.5 18.223 5.5 12.776V1.516h29v11.261c0 5.446-3.017 10.384-7.874 12.887l-.126.065-.073.121C25.055 28.136 22.652 29.5 20 29.5z" fill="#ffeea3"></path><path d="M34 2.015v10.761c0 5.258-2.913 10.026-7.603 12.443l-.253.13-.146.244C24.717 27.726 22.475 29 20 29s-4.717-1.274-5.998-3.407l-.146-.244-.253-.13C8.913 22.802 6 18.035 6 12.776V2.015h28m1-1H5v11.761c0 5.812 3.311 10.841 8.145 13.331C14.543 28.437 17.086 30 20 30s5.457-1.563 6.855-3.892C31.689 23.617 35 18.588 35 12.776V1.015z" fill="#ba9b48"></path><circle cx="26" cy="7" r="2" fill="#36404d"></circle><circle cx="14" cy="7" r="2" fill="#36404d"></circle><path fill="#ffeea3" d="M6 1h28v2H6zM10 10h20v2H10z"></path><path d="M24.5 19h-9a.501.501 0 01-.5-.5c0-.275.225-.5.5-.5h9c.275 0 .5.225.5.5s-.225.5-.5.5z" fill="#ba9b48"></path></svg>