<svg viewBox="0 0 40 40" xmlns="http://www.w3.org/2000/svg"><path d="M12.5 12.5V10c0-5.322 3.925-8.5 10.5-8.5h3.5v2H24c-.605.005-1.5.409-1.5 1.5v.41l.402.08c.189.038 4.598.959 4.598 4.51v2.5h-15z" fill="#fff"></path><path d="M26 2v1h-2.009C23.026 3.008 22 3.712 22 5l.003.818.802.162C22.976 6.015 27 6.866 27 10v2H13v-2c0-7.22 6.993-8 10-8h3m1-1h-4c-6.42 0-11 3.006-11 9v3h16v-3c0-4.015-5-5-5-5 0-.991 1-1 1-1h3V1z" fill="#788b9c"></path><path d="M13 38.5a.501.501 0 01-.5-.5V10.5h15V38c0 .275-.225.5-.5.5H13z" fill="#c2e8ff"></path><path d="M27 11v27H13V11h14m1-1H12v28a1 1 0 001 1h14a1 1 0 001-1V10z" fill="#7496c4"></path><g><path fill="#c2e8ff" d="M12 34h9v1h-9z"></path><path fill="#7496c4" d="M21 34h-9v1h9v-1z"></path></g><g><path fill="#c2e8ff" d="M24 34h4v1h-4z"></path><path fill="#7496c4" d="M28 34h-4v1h4v-1z"></path></g></svg>