<svg viewBox="0 0 40 40" xmlns="http://www.w3.org/2000/svg"><path d="M10.5 37.5v-35h27v30.357a4.648 4.648 0 01-4.643 4.643H10.5z" fill="#fff"></path><path d="M37 3v29.857A4.147 4.147 0 0132.857 37H11V3h26m1-1H10v36h22.857A5.144 5.144 0 0038 32.857V2z" fill="#788b9c"></path><g><path d="M7 37.5A4.505 4.505 0 012.5 33c0-.024.003-2.033 1.304-3.342C4.567 28.89 5.643 28.5 7 28.5h25.5v.025c-2.011.201-4 1.62-4 4.475 0 2.817 1.819 4.238 3.812 4.5H7z" fill="#e1ebf2"></path><path d="M29.861 29C28.77 29.81 28 31.127 28 33c0 1.867.721 3.182 1.773 4H7c-2.206 0-4-1.794-4-4.01 0-.018.013-1.822 1.154-2.975C4.82 29.342 5.778 29 7 29h22.861M33 28H7c-5.052 0-5 5-5 5a5 5 0 005 5h26v-.955c-1.938 0-4-1.136-4-4.045 0-2.773 2.062-4 4-4v-1z" fill="#788b9c"></path></g></svg>