<svg viewBox="0 0 40 40" xmlns="http://www.w3.org/2000/svg"><path d="M24.5 34s2.5-5.5 6.5-5.5" fill="none" stroke="#c74343" stroke-linecap="round" stroke-miterlimit="10"></path><path d="M33 31.5c-.827 0-1.5-.673-1.5-1.5v-1.5H37c.827 0 1.5.673 1.5 1.5s-.673 1.5-1.5 1.5h-4z" fill="#f78f8f"></path><path d="M37 29c.551 0 1 .449 1 1s-.449 1-1 1h-4c-.551 0-1-.449-1-1v-1h5m0-1h-6v2c0 1.1.9 2 2 2h4c1.1 0 2-.9 2-2s-.9-2-2-2z" fill="#c74343"></path><path d="M5.764 26.5a4.566 4.566 0 01.872-1.49l.478-.545-.679-.254A4.522 4.522 0 013.5 20c0-1.195.47-2.323 1.323-3.177S6.805 15.5 8 15.5h24c2.481 0 4.5 2.019 4.5 4.5a4.47 4.47 0 01-1.323 3.177 4.486 4.486 0 01-1.609 1.033l-.684.252.48.548c.383.437.679.944.872 1.49H5.764z" fill="#fff1e8"></path><path d="M32 16c2.206 0 4 1.794 4 4a3.97 3.97 0 01-1.177 2.823 3.984 3.984 0 01-1.428.919l-1.367.503.96 1.095c.179.204.337.426.471.661H6.541c.134-.235.292-.456.471-.661l.954-1.089-1.356-.508A4.02 4.02 0 014 20a3.97 3.97 0 011.177-2.823A3.97 3.97 0 018 16h24m0-1H8c-1.38 0-2.62.56-3.53 1.47C3.56 17.38 3 18.62 3 20c0 2.14 1.36 3.97 3.26 4.68A5.072 5.072 0 005.107 27h29.785a5.062 5.062 0 00-1.153-2.32c.68-.25 1.29-.65 1.79-1.15A4.962 4.962 0 0037 20c0-2.75-2.25-5-5-5z" fill="#a16a4a"></path><path d="M6.61 23.743l1.356.507-.954 1.089A4.065 4.065 0 006.145 27h27.711a4.065 4.065 0 00-.867-1.661l-.96-1.095 1.367-.503a3.97 3.97 0 001.428-.919A3.97 3.97 0 0036 20c0-2.206-1.794-4-4-4H8a3.97 3.97 0 00-2.823 1.177A3.97 3.97 0 004 20a4.02 4.02 0 002.61 3.743z" fill="#fff1e8"></path><path d="M15.5 34S13 28.5 9 28.5" fill="none" stroke="#c74343" stroke-linecap="round" stroke-miterlimit="10"></path><circle cx="20" cy="34" r="4.5" fill="#ffeea3"></circle><path d="M20 30c2.206 0 4 1.794 4 4s-1.794 4-4 4-4-1.794-4-4 1.794-4 4-4m0-1a5 5 0 10.001 10.001A5 5 0 0020 29z" fill="#805f51"></path><path d="M17.542 34.457a2.502 2.502 0 012.915-2.915 3.509 3.509 0 00-2.915 2.915z" fill="#ffeea3"></path><path d="M20 31a3 3 0 00-3 3c0 1.086.582 2.028 1.446 2.554A2.965 2.965 0 0118 35a3 3 0 013-3c.571 0 1.1.168 1.554.446A2.986 2.986 0 0020 31z" fill="#805f51"></path><path d="M9 15.5c-.656 0-1.301-.268-1.767-.733S6.5 13.656 6.5 13a2.49 2.49 0 011.848-2.406l.551-.146-.216-.527A2.436 2.436 0 018.5 9c0-1.379 1.121-2.5 2.5-2.5h1.5V5c0-1.379 1.121-2.5 2.5-2.5.693 0 1.357.291 1.821.798l.557.607.282-.773C18.017 2.155 18.957 1.5 20 1.5s1.983.655 2.34 1.632l.282.773.557-.607A2.473 2.473 0 0125 2.5c1.379 0 2.5 1.121 2.5 2.5v1.5H29c1.379 0 2.5 1.121 2.5 2.5 0 .312-.063.63-.183.921l-.217.532.558.142c.407.104.802.331 1.109.639.465.465.733 1.11.733 1.766 0 1.379-1.121 2.5-2.5 2.5H9z" fill="#fff1e8"></path><path d="M20 2c.834 0 1.586.524 1.871 1.303l.565 1.547 1.112-1.215C23.923 3.226 24.438 3 25 3c1.103 0 2 .897 2 2v2h2c1.103 0 2 .897 2 2 0 .247-.05.499-.145.729l-.438 1.065 1.116.285c.322.082.634.262.88.508.373.373.587.888.587 1.413 0 1.103-.897 2-2 2H9c-.525 0-1.04-.214-1.413-.587a1.99 1.99 0 01.89-3.337l1.102-.293-.434-1.054A1.927 1.927 0 019 9c0-1.103.897-2 2-2h2V5c0-1.103.897-2 2-2 .562 0 1.077.226 1.452.635l1.112 1.215.565-1.547A1.997 1.997 0 0120 2m0-1c-1.29 0-2.39.81-2.81 1.96C16.65 2.37 15.87 2 15 2c-1.66 0-3 1.34-3 3v1h-1C9.34 6 8 7.34 8 9c0 .39.08.77.22 1.11A2.994 2.994 0 006 13c0 .82.34 1.58.88 2.12S8.18 16 9 16h22c1.65 0 3-1.35 3-3 0-.82-.34-1.58-.88-2.12-.36-.36-.83-.64-1.34-.77.14-.34.22-.72.22-1.11 0-1.66-1.34-3-3-3h-1V5c0-1.66-1.34-3-3-3-.87 0-1.65.37-2.19.96A2.985 2.985 0 0020 1z" fill="#a16a4a"></path><g><path d="M32 14.5c-.827 0-1.5-.673-1.5-1.5s.673-1.5 1.5-1.5c1.409 0 5.815.847 6.461 1.5-.646.653-5.052 1.5-6.461 1.5z" fill="#ffc49c"></path><path d="M32 12c.963 0 3.847.501 5.32 1-1.473.499-4.357 1-5.32 1-.551 0-1-.449-1-1s.449-1 1-1m0-1a2 2 0 100 4c1.105 0 7-.895 7-2s-5.895-2-7-2z" fill="#a16a4a"></path></g><g><path d="M20 25.5c-4.346 0-7.5-4.837-7.5-11.5 0-.254 0-.497.01-.751.009-.252.026-.503.044-.754l.006-.105c.234-1.056 1.265-1.89 2.44-1.89a2.49 2.49 0 011.674.65l.762.692.073-1.027C17.602 9.495 18.673 8.5 20 8.5s2.398.995 2.491 2.315l.073 1.027.762-.692A2.49 2.49 0 0125 10.5c1.163 0 2.186.817 2.443 1.949l.003.046c.018.251.035.502.044.753.01.255.01.498.01.752 0 6.663-3.154 11.5-7.5 11.5z" fill="#ffc49c"></path><path d="M20 9c1.062 0 1.918.795 1.992 1.85l.145 2.051 1.524-1.38A1.971 1.971 0 0125 11a1.99 1.99 0 011.947 1.523c.018.247.035.495.044.745.009.247.009.485.009.732 0 6.271-3.009 11-7 11s-7-4.729-7-11c0-.247 0-.485.009-.734a20.5 20.5 0 01.044-.742A1.99 1.99 0 0115 11c.631 0 1.076.283 1.339.521l1.524 1.38.145-2.051A1.975 1.975 0 0120 9m0-1c-1.59 0-2.88 1.22-2.99 2.78A2.98 2.98 0 0015 10c-1.45 0-2.65 1.02-2.94 2.38v.01c-.02.28-.04.56-.05.84-.01.26-.01.51-.01.77 0 7.18 3.58 12 8 12s8-4.82 8-12c0-.26 0-.51-.01-.77-.01-.28-.03-.56-.05-.84v-.01A3.004 3.004 0 0025 10c-.78 0-1.48.3-2.01.78A2.987 2.987 0 0020 8z" fill="#a16a4a"></path></g><circle cx="23.5" cy="16.5" r="1.5" fill="#36404d"></circle><circle cx="16.5" cy="16.5" r="1.5" fill="#36404d"></circle><g><path d="M8 14.5c-1.409 0-5.815-.847-6.461-1.5.646-.653 5.052-1.5 6.461-1.5.827 0 1.5.673 1.5 1.5s-.673 1.5-1.5 1.5z" fill="#ffc49c"></path><path d="M8 12c.551 0 1 .449 1 1s-.449 1-1 1c-.963 0-3.847-.501-5.32-1 1.473-.499 4.357-1 5.32-1m0-1c-1.105 0-7 .895-7 2s5.895 2 7 2a2 2 0 100-4z" fill="#a16a4a"></path></g><g><path d="M3 31.5c-.827 0-1.5-.673-1.5-1.5s.673-1.5 1.5-1.5h5.5V30c0 .827-.673 1.5-1.5 1.5H3z" fill="#f78f8f"></path><path d="M8 29v1c0 .551-.449 1-1 1H3c-.551 0-1-.449-1-1s.449-1 1-1h5m1-1H3c-1.1 0-2 .9-2 2s.9 2 2 2h4c1.1 0 2-.9 2-2v-2z" fill="#c74343"></path></g></svg>