<svg viewBox="0 0 40 40" xmlns="http://www.w3.org/2000/svg"><path d="M9 17.5c-.656 0-1.301-.268-1.767-.733S6.5 15.656 6.5 15a2.49 2.49 0 011.848-2.406l.551-.146-.216-.526A2.445 2.445 0 018.5 11c0-1.379 1.121-2.5 2.5-2.5h1.5V7c0-1.379 1.121-2.5 2.5-2.5.693 0 1.357.291 1.821.798l.557.607.282-.773C18.017 4.155 18.957 3.5 20 3.5s1.983.655 2.34 1.632l.282.773.557-.607A2.473 2.473 0 0125 4.5c1.379 0 2.5 1.121 2.5 2.5v1.5H29c1.379 0 2.5 1.121 2.5 2.5 0 .312-.063.63-.183.921l-.217.532.558.142c.407.104.802.331 1.109.639.465.465.733 1.11.733 1.766 0 1.379-1.121 2.5-2.5 2.5H9z" fill="#fff1e8"></path><path d="M20 4c.834 0 1.586.524 1.871 1.303l.565 1.547 1.112-1.215C23.923 5.226 24.438 5 25 5c1.103 0 2 .897 2 2v2h2c1.103 0 2 .897 2 2 0 .247-.05.499-.145.729l-.438 1.065 1.116.285c.322.082.634.262.88.508.373.373.587.888.587 1.413 0 1.103-.897 2-2 2H9c-.525 0-1.04-.214-1.413-.587a1.99 1.99 0 01.89-3.337l1.102-.293-.434-1.054A1.927 1.927 0 019 11c0-1.103.897-2 2-2h2V7c0-1.103.897-2 2-2 .562 0 1.077.226 1.452.635l1.112 1.215.565-1.547A1.997 1.997 0 0120 4m0-1c-1.29 0-2.39.81-2.81 1.96C16.65 4.37 15.87 4 15 4c-1.66 0-3 1.34-3 3v1h-1c-1.66 0-3 1.34-3 3 0 .39.08.77.22 1.11A2.994 2.994 0 006 15c0 .82.34 1.58.88 2.12S8.18 18 9 18h22c1.65 0 3-1.35 3-3 0-.82-.34-1.58-.88-2.12-.36-.36-.83-.64-1.34-.77.14-.34.22-.72.22-1.11 0-1.66-1.34-3-3-3h-1V7c0-1.66-1.34-3-3-3-.87 0-1.65.37-2.19.96A2.985 2.985 0 0020 3z" fill="#a16a4a"></path><path d="M24 37.5a4.531 4.531 0 01-3.601-1.801L20 35.168l-.399.531A4.531 4.531 0 0116 37.5a4.478 4.478 0 01-4.303-3.167l-.173-.56-.525.258A4.48 4.48 0 019 34.5 4.505 4.505 0 014.5 30c0-1.092.403-2.154 1.136-2.991l.477-.544-.678-.254A4.522 4.522 0 012.5 22c0-1.195.47-2.323 1.323-3.177S5.805 17.5 7 17.5h26c2.481 0 4.5 2.019 4.5 4.5a4.47 4.47 0 01-1.323 3.177 4.486 4.486 0 01-1.609 1.033l-.683.252.479.547A4.544 4.544 0 0135.5 30c0 2.481-2.019 4.5-4.5 4.5a4.48 4.48 0 01-1.999-.469l-.525-.258-.173.56A4.478 4.478 0 0124 37.5z" fill="#fff1e8"></path><path d="M33 18c2.206 0 4 1.794 4 4a3.97 3.97 0 01-1.177 2.823 3.984 3.984 0 01-1.428.919l-1.367.503.96 1.095A4.036 4.036 0 0135 30a4.004 4.004 0 01-5.778 3.583l-1.051-.518-.346 1.12A3.98 3.98 0 0124 37a4.029 4.029 0 01-3.201-1.601L20 34.336l-.799 1.063A4.029 4.029 0 0116 37a3.98 3.98 0 01-3.825-2.815l-.346-1.12-1.051.518A4.004 4.004 0 015 30c0-.971.359-1.916 1.012-2.661l.954-1.089-1.356-.507A4.02 4.02 0 013 22a3.97 3.97 0 011.177-2.823A3.97 3.97 0 017 18h26m0-1H7c-1.38 0-2.62.56-3.53 1.47C2.56 19.38 2 20.62 2 22c0 2.14 1.36 3.97 3.26 4.68C4.48 27.57 4 28.73 4 30a5.002 5.002 0 007.22 4.48A5 5 0 0016 38c1.63 0 3.09-.79 4-2 .91 1.21 2.37 2 4 2a5 5 0 004.78-3.52A5.002 5.002 0 0036 30c0-1.27-.48-2.43-1.26-3.32.68-.25 1.29-.65 1.79-1.15.91-.91 1.47-2.15 1.47-3.53 0-2.75-2.25-5-5-5z" fill="#a16a4a"></path><path d="M32 16.5c-.827 0-1.5-.673-1.5-1.5s.673-1.5 1.5-1.5c1.409 0 5.815.847 6.461 1.5-.646.653-5.052 1.5-6.461 1.5z" fill="#ffc49c"></path><path d="M32 14c.963 0 3.847.501 5.32 1-1.473.499-4.357 1-5.32 1-.551 0-1-.449-1-1s.449-1 1-1m0-1a2 2 0 100 4c1.105 0 7-.895 7-2s-5.895-2-7-2z" fill="#a16a4a"></path><path d="M20 29.5c-4.136 0-7.5-5.607-7.5-12.5 0-.254 0-.497.01-.751.009-.252.026-.503.044-.754l.006-.105c.234-1.056 1.265-1.89 2.44-1.89a2.49 2.49 0 011.674.65l.762.692.073-1.027c.093-1.32 1.164-2.315 2.491-2.315s2.398.995 2.491 2.315l.073 1.027.762-.692A2.49 2.49 0 0125 13.5c1.163 0 2.186.817 2.443 1.949l.003.046c.018.251.035.502.044.753.01.255.01.498.01.752 0 6.893-3.364 12.5-7.5 12.5z" fill="#ffc49c"></path><path d="M20 12c1.062 0 1.918.795 1.992 1.85l.145 2.051 1.524-1.38A1.971 1.971 0 0125 14a1.99 1.99 0 011.947 1.523c.018.247.035.495.044.745.009.247.009.485.009.732 0 6.505-3.206 12-7 12s-7-5.495-7-12c0-.247 0-.485.009-.734a20.5 20.5 0 01.044-.742A1.99 1.99 0 0115 14c.631 0 1.076.283 1.339.521l1.524 1.38.145-2.051A1.975 1.975 0 0120 12m0-1c-1.59 0-2.88 1.22-2.99 2.78A2.98 2.98 0 0015 13c-1.45 0-2.65 1.02-2.94 2.38v.01c-.02.28-.04.56-.05.84-.01.26-.01.51-.01.77 0 7.18 3.58 13 8 13s8-5.82 8-13c0-.26 0-.51-.01-.77-.01-.28-.03-.56-.05-.84v-.01A3.004 3.004 0 0025 13c-.78 0-1.48.3-2.01.78A2.987 2.987 0 0020 11z" fill="#a16a4a"></path><circle cx="23.5" cy="19.5" r="1.5" fill="#36404d"></circle><circle cx="16.5" cy="19.5" r="1.5" fill="#36404d"></circle><g><path d="M8 16.5c-1.409 0-5.815-.847-6.461-1.5.646-.653 5.052-1.5 6.461-1.5.827 0 1.5.673 1.5 1.5s-.673 1.5-1.5 1.5z" fill="#ffc49c"></path><path d="M8 14c.551 0 1 .449 1 1s-.449 1-1 1c-.963 0-3.847-.501-5.32-1 1.473-.499 4.357-1 5.32-1m0-1c-1.105 0-7 .895-7 2s5.895 2 7 2a2 2 0 100-4z" fill="#a16a4a"></path></g></svg>