<svg viewBox="0 0 40 40" xmlns="http://www.w3.org/2000/svg"><path d="M12.5 36.5a1 1 0 01-1-1c0-.384-.165-1.972-.436-4.53-.245-2.318-.52-4.923-.56-5.793.369-.215 1.558-.589 2.995-.664V35.5a.999.999 0 01-.999 1z" fill="#ffc49c"></path><path d="M13 25.054V35.5a.5.5 0 01-1 0c0-.41-.158-1.931-.438-4.584-.208-1.969-.458-4.339-.537-5.426.397-.15 1.112-.343 1.975-.436M14 24c-2.094 0-4 .674-4 1 0 1.188 1 9.672 1 10.5a1.5 1.5 0 003 0V24z" fill="#a16a4a"></path><path d="M7.5 36.5a1 1 0 01-1-1c0-.372-.164-2.283-.435-5.387-.246-2.823-.522-5.995-.561-6.937.368-.215 1.558-.589 2.995-.664V35.5a.999.999 0 01-.999 1z" fill="#ffc49c"></path><path d="M8 23.054V35.5a.5.5 0 01-1 0c0-.4-.166-2.325-.437-5.431-.212-2.427-.467-5.355-.542-6.577.397-.151 1.113-.345 1.979-.438M9 22c-2.094 0-4 .674-4 1 0 1.188 1 11.672 1 12.5a1.5 1.5 0 003 0V22z" fill="#a16a4a"></path><path d="M21.5 36.5a1 1 0 01-1-1c0-.372-.164-2.283-.435-5.387-.246-2.823-.522-5.995-.561-6.937.368-.215 1.558-.589 2.995-.664V35.5a.999.999 0 01-.999 1z" fill="#ffc49c"></path><path d="M22 23.054V35.5a.5.5 0 01-1 0c0-.4-.166-2.325-.437-5.431-.212-2.427-.467-5.355-.542-6.577.397-.151 1.113-.345 1.979-.438M23 22c-2.094 0-4 .674-4 1 0 1.188 1 11.672 1 12.5a1.5 1.5 0 003 0V22z" fill="#a16a4a"></path><path d="M26.5 36.5a1 1 0 01-1-1c0-.372-.164-2.283-.435-5.387-.246-2.823-.522-5.995-.561-6.937.368-.215 1.558-.589 2.995-.664V35.5a.999.999 0 01-.999 1z" fill="#ffc49c"></path><path d="M27 23.054V35.5a.5.5 0 01-1 0c0-.4-.166-2.325-.437-5.431-.212-2.427-.467-5.355-.542-6.577.397-.151 1.113-.345 1.979-.438M28 22c-2.094 0-4 .674-4 1 0 1.188 1 11.672 1 12.5a1.5 1.5 0 003 0V22z" fill="#a16a4a"></path><g><path d="M19 27.5a3.482 3.482 0 01-3.288-2.324l-.317-.913-.562.787A3.483 3.483 0 0112 26.5a3.52 3.52 0 01-3.422-2.757l-.113-.522-.514.148a3.319 3.319 0 01-.757.126l-.163.004c-.886 0-1.782-.384-2.461-1.054C3.89 21.774 3.5 20.883 3.5 20c0-.427.076-.841.227-1.23l.166-.432-.417-.199A3.493 3.493 0 011.5 15c0-1.93 1.57-3.5 3.5-3.5h.5V11c0-1.93 1.57-3.5 3.5-3.5.635 0 1.231.164 1.773.488l.672.402.082-.779A3.478 3.478 0 0115 4.5c1.002 0 1.959.434 2.625 1.19l.375.427.376-.427a3.495 3.495 0 013.2-1.144c1.644.261 2.93 1.777 2.928 3.453L24.5 9.454l.758-.455A3.297 3.297 0 0127 8.5a3.504 3.504 0 013.453 2.912 3.514 3.514 0 01-.827 2.9c-.521.587-1.126 1.89-1.126 2.688v4.832c0 1.765-1.178 3.278-2.8 3.6a3.592 3.592 0 01-.699.068 3.491 3.491 0 01-1.953-.595l-.539-.361-.212.613A3.488 3.488 0 0119 27.5z" fill="#fff1e8"></path><path d="M15 5c.859 0 1.679.372 2.249 1.02l.751.854.751-.854a2.998 2.998 0 012.747-.98c1.407.223 2.508 1.523 2.506 2.959l-.002.242L24 8.57v1.766l1.515-.909A2.824 2.824 0 0127 9c.346 0 .693.062 1.033.184a2.994 2.994 0 011.926 2.308c.148.922-.103 1.806-.707 2.489C28.66 14.65 28 16.055 28 17v4.832c0 1.527-1.008 2.834-2.396 3.108a2.984 2.984 0 01-2.276-.45l-1.078-.724-.425 1.227A2.99 2.99 0 0119 27a2.979 2.979 0 01-2.816-1.989l-.636-1.826-1.122 1.575A2.941 2.941 0 0112 26a3.016 3.016 0 01-2.933-2.362l-.226-1.043-1.026.293a2.906 2.906 0 01-.784.111c-.755 0-1.524-.332-2.109-.91C4.336 21.512 4 20.75 4 20c0-.365.065-.718.193-1.049l.334-.864-.836-.399A2.993 2.993 0 012 15c0-1.654 1.346-3 3-3h1v-1c0-1.654 1.346-3 3-3 .544 0 1.054.14 1.516.418l1.345.807.164-1.56A2.977 2.977 0 0115 5m0-1a3.99 3.99 0 00-3.97 3.56C10.43 7.2 9.74 7 9 7c-2.21 0-4 1.79-4 4-2.21 0-4 1.79-4 4 0 1.58.92 2.95 2.26 3.59-.17.44-.26.91-.26 1.41 0 2.138 1.907 4 4.031 4a3.935 3.935 0 001.06-.149A4 4 0 0012 27c1.34 0 2.52-.65 3.24-1.66A3.977 3.977 0 0019 28c1.75 0 3.23-1.12 3.77-2.68a3.992 3.992 0 003.027.601c1.9-.375 3.203-2.152 3.203-4.089V20v-2-1c0-.667.551-1.848 1.001-2.356a3.993 3.993 0 00-1.63-6.402A4.073 4.073 0 0027 8c-.74 0-1.4.21-2 .57 0-.199.003-.402.004-.57.002-1.91-1.425-3.643-3.349-3.948A4.207 4.207 0 0021 4c-1.2 0-2.27.53-3 1.36C17.27 4.53 16.2 4 15 4z" fill="#a16a4a"></path></g><g><path d="M25 17.5c-1.175 0-3.5-.91-3.5-1.497 0-.562 2.191-1.503 3.5-1.503 1.659 0 2.5.505 2.5 1.5 0 .449 0 1.5-2.5 1.5z" fill="#ffc49c"></path><path d="M25 15c2 0 2 .753 2 1 0 .349 0 1-2 1-.831 0-2.454-.576-2.924-1.005C22.518 15.579 24.053 15 25 15m0-1c-1.234 0-4 .898-4 2.003C21 17.107 23.895 18 25 18c1.958 0 3-.604 3-2 0-1.312-1.063-2-3-2z" fill="#a16a4a"></path></g><g><path d="M30.5 22.5c-2.206 0-4-1.794-4-4s1.794-4 4-4c1.252 0 2.539.73 4.212 1.909l.474.328c.976.673 2.314 1.594 2.314 2.263 0 .431-.291.61-.944.852a4.971 4.971 0 00-.273.106l-.567.244.356.504c.242.342.494.822.317 1.164-.217.419-1.007.63-1.389.63h-4.5z" fill="#ffc49c"></path><path d="M30.5 15c1.119 0 2.331.695 3.924 1.818.152.107.313.218.476.33.618.425 2.065 1.421 2.1 1.852 0 .096-.042.17-.617.382-.11.04-.211.079-.299.116l-1.135.488.714 1.008c.292.413.296.617.282.645-.082.159-.612.361-.945.361h-4.5c-1.93 0-3.5-1.57-3.5-3.5s1.57-3.5 3.5-3.5m0-1a4.5 4.5 0 000 9H35c.729 0 2.896-.583 1.479-2.583C36.971 20.205 38 20 38 19c0-1.061-1.76-2.126-3-3-1.666-1.173-3.075-2-4.5-2z" fill="#a16a4a"></path></g><circle cx="32" cy="18" r="1" fill="#36404d"></circle></svg>