<svg viewBox="0 0 40 40" xmlns="http://www.w3.org/2000/svg"><path d="M20 38.5C9.799 38.5 1.5 30.201 1.5 20S9.799 1.5 20 1.5 38.5 9.799 38.5 20 30.201 38.5 20 38.5z" fill="#bae0bd"></path><path d="M20 2c9.925 0 18 8.075 18 18s-8.075 18-18 18S2 29.925 2 20 10.075 2 20 2m0-1C9.507 1 1 9.507 1 20s8.507 19 19 19 19-8.507 19-19S30.493 1 20 1z" fill="#5e9c76"></path><path d="M12.5 29V12.5h5a5 5 0 015 5V23" fill="none" stroke="#45805b" stroke-width="3" stroke-miterlimit="10"></path><path d="M27.5 11v16.5h-5a5 5 0 01-5-5V17" fill="none" stroke="#45805b" stroke-width="3" stroke-miterlimit="10"></path></svg>