<svg viewBox="0 0 40 40" xmlns="http://www.w3.org/2000/svg"><path d="M20 38.5c-.505 0-1.605-.315-2.111-.523l-.059-.024-8.119-1.143c-.635-.095-1.877-1.227-3.012-7.726-.039-.225-.077-.45-.113-.677h26.828c-.037.227-.075.453-.114.678-1.132 6.498-2.375 7.63-3.016 7.726l-8.114 1.142-.058.023c-.521.214-1.604.524-2.112.524z" fill="#f5ce85"></path><path d="M32.823 28.908l-.016.091c-1.205 6.915-2.458 7.297-2.589 7.317l-8.057 1.134-.124.017-.116.047c-.522.214-1.532.486-1.921.486-.392 0-1.401-.271-1.922-.485l-.116-.048-.125-.018-8.047-1.132c-.139-.021-1.391-.403-2.598-7.32a2.77 2.77 0 00-.016-.089h25.647m1.177-1H6c.066.422.134.845.207 1.263.729 4.175 1.789 7.888 3.434 8.135l8.057 1.134c.53.217 1.697.56 2.302.56.607 0 1.772-.344 2.302-.561l8.057-1.134c1.647-.247 2.707-3.96 3.434-8.135.072-.417.141-.84.207-1.262z" fill="#967a44"></path><path d="M20 38.5c-2.244 0-6.776-3.647-11.158-7.173-1.511-1.216-3.073-2.473-4.571-3.607C2.156 26.118 1.5 23.107 1.5 22.192 1.5 9.866 10.906 2.5 20 2.5s18.5 7.366 18.5 19.692c0 .915-.656 3.925-2.771 5.527-1.498 1.135-3.061 2.392-4.571 3.607C26.776 34.853 22.244 38.5 20 38.5z" fill="#ffc49c"></path><path d="M20 3c7.474 0 18 5.954 18 19.192 0 .849-.61 3.641-2.573 5.128-1.503 1.139-3.067 2.397-4.58 3.614C26.733 34.247 22.069 38 20 38s-6.733-3.753-10.848-7.065c-1.512-1.217-3.076-2.476-4.58-3.614C2.61 25.833 2 23.041 2 22.192 2 8.954 12.526 3 20 3m0-1C11.27 2 1 9.134 1 22.192c0 1.035.689 4.198 2.969 5.925C9.971 32.665 16.778 39 20 39s10.029-6.335 16.031-10.882C38.311 26.39 39 23.228 39 22.192 39 9.134 28.73 2 20 2z" fill="#a16a4a"></path><path d="M24.255 3.296s.513 16.605-3.329 35.036M32.016 7.399s-2.117 17.907-8.886 29.964M37.114 15.078s-6.278 16.219-10.997 20.219M15.745 3.296s-.513 16.605 3.329 35.036" fill="none" stroke="#a16a4a" stroke-linecap="round" stroke-linejoin="round" stroke-miterlimit="10"></path><g><path d="M7.984 7.399s2.117 17.907 8.886 29.964" fill="none" stroke="#a16a4a" stroke-linecap="round" stroke-linejoin="round" stroke-miterlimit="10"></path></g><g><path d="M2.886 15.078s6.278 16.219 10.997 20.219" fill="none" stroke="#a16a4a" stroke-linecap="round" stroke-linejoin="round" stroke-miterlimit="10"></path></g></svg>