<svg viewBox="0 0 40 40" xmlns="http://www.w3.org/2000/svg"><path fill="#f5ce85" d="M14.388 29.72L5.42 28.417 8.776 20 5.42 11.583l8.968-1.303L20 3.165l5.612 7.115 8.968 1.303L31.224 20l3.356 8.417-8.968 1.303L20 36.835z"></path><path d="M20 3.972l5.096 6.461.247.313.395.057 8.143 1.182-3.048 7.644-.148.371.148.37 3.048 7.644-8.143 1.182-.395.057-.247.313L20 36.028l-5.096-6.461-.247-.313-.395-.057-8.143-1.182 3.048-7.644.148-.371-.148-.37-3.048-7.644 8.143-1.182.395-.057.247-.313L20 3.972m0-1.615l-5.881 7.457-9.398 1.365L8.238 20l-3.517 8.821 9.398 1.365L20 37.643l5.881-7.457 9.398-1.365L31.762 20l3.517-8.821-9.398-1.365L20 2.357z" fill="#967a44"></path><circle cx="20" cy="20" r="6.5" fill="#ffeea3"></circle><path d="M20 14c3.308 0 6 2.692 6 6s-2.692 6-6 6-6-2.692-6-6 2.692-6 6-6m0-1a7 7 0 100 14 7 7 0 000-14z" fill="#ba9b48"></path><circle cx="20" cy="3" r="1.5" fill="#ffeea3"></circle><path d="M20 2c.551 0 1 .449 1 1s-.449 1-1 1-1-.449-1-1 .449-1 1-1m0-1a2 2 0 10-.001 3.999A2 2 0 0020 1z" fill="#ba9b48"></path><circle cx="20" cy="37" r="1.5" fill="#ffeea3"></circle><path d="M20 36c.551 0 1 .449 1 1s-.449 1-1 1-1-.449-1-1 .449-1 1-1m0-1a2 2 0 10-.001 3.999A2 2 0 0020 35z" fill="#ba9b48"></path><g><circle cx="5.277" cy="28.5" r="1.5" fill="#ffeea3"></circle><path d="M5.278 27.5c.551 0 1 .449 1 1s-.449 1-1 1-1-.449-1-1 .448-1 1-1m0-1a2 2 0 10-.001 3.999 2 2 0 00.001-3.999z" fill="#ba9b48"></path></g><g><circle cx="34.723" cy="11.5" r="1.5" fill="#ffeea3"></circle><path d="M34.722 10.5c.551 0 1 .449 1 1s-.449 1-1 1-1-.449-1-1 .449-1 1-1m0-1a2 2 0 10-.001 3.999 2 2 0 00.001-3.999z" fill="#ba9b48"></path></g><g><circle cx="34.723" cy="28.5" r="1.5" fill="#ffeea3"></circle><path d="M34.722 27.5c.551 0 1 .449 1 1s-.449 1-1 1-1-.449-1-1 .449-1 1-1m0-1a2 2 0 10-.001 3.999 2 2 0 00.001-3.999z" fill="#ba9b48"></path></g><g><circle cx="5.277" cy="11.5" r="1.5" fill="#ffeea3"></circle><path d="M5.278 10.5c.551 0 1 .449 1 1s-.449 1-1 1-1-.449-1-1 .448-1 1-1m0-1a2 2 0 10-.001 3.999A2 2 0 005.278 9.5z" fill="#ba9b48"></path></g></svg>