<svg viewBox="0 0 40 40" xmlns="http://www.w3.org/2000/svg"><path d="M4 33.5a2.56 2.56 0 01-2.5-2.62V11.12A2.56 2.56 0 014 8.5h32a2.56 2.56 0 012.5 2.62v19.76A2.56 2.56 0 0136 33.5z" fill="#b0c1d4"></path><path d="M36 9a2.06 2.06 0 012 2.12v19.76A2.06 2.06 0 0136 33H4a2.06 2.06 0 01-2-2.12V11.12A2.06 2.06 0 014 9h32m0-1H4a3.06 3.06 0 00-3 3.12v19.76A3.06 3.06 0 004 34h32a3.06 3.06 0 003-3.12V11.12A3.06 3.06 0 0036 8z" fill="#66798f"></path><path d="M35 31H5a3 3 0 01-3-3V12a3 3 0 013-3h30a3 3 0 013 3v16a3 3 0 01-3 3z" fill="#d8e2ed"></path><path fill="#36404d" d="M18 19v10h4V19h5l-7-7-7 7h5z"></path></svg>