<svg viewBox="0 0 40 40" xmlns="http://www.w3.org/2000/svg"><path fill="#8bb7f0" d="M23.5 31.5v-19h11.659l4.341 8.11V31.5z"></path><path d="M34.859 13L39 20.736V31H24V13h10.859m.599-1H23v20h17V20.485L35.458 12z" fill="#4e7ab5"></path><path fill="#bae0bd" d="M.5 6.5h23v25H.5z"></path><path d="M23 7v24H1V7h22m1-1H0v26h24V6z" fill="#5e9c76"></path><circle cx="10.414" cy="31.759" r="3.534" fill="#b0c1d4"></circle><path d="M10.414 28.724c1.673 0 3.034 1.361 3.034 3.034s-1.361 3.034-3.034 3.034-3.034-1.361-3.034-3.034 1.361-3.034 3.034-3.034m0-1a4.034 4.034 0 100 8.068 4.034 4.034 0 000-8.068z" fill="#66798f"></path><circle cx="31" cy="32" r="3.5" fill="#b0c1d4"></circle><path d="M31 29c1.654 0 3 1.346 3 3s-1.346 3-3 3-3-1.346-3-3 1.346-3 3-3m0-1a4 4 0 100 8 4 4 0 000-8z" fill="#66798f"></path><path d="M39 28h-1.5a1.5 1.5 0 010-3H39v3z" fill="#fff"></path><g><path d="M34.207 22.5l-2-2H31c-.827 0-1.5-.673-1.5-1.5v-2c0-.827.673-1.5 1.5-1.5h5.765l2.735 5.11v1.89h-5.293z" fill="#c2e8ff"></path><path d="M36.465 16L39 20.736V22h-4.586l-1.707-1.707-.293-.293H31c-.551 0-1-.449-1-1v-2c0-.551.449-1 1-1h5.465m.599-1H31a2 2 0 00-2 2v2a2 2 0 002 2h1l2 2h6v-2.515L37.064 15z" fill="#4e7ab5"></path></g><path fill="none" stroke="#fff" stroke-width="3" stroke-miterlimit="10" d="M5.333 16.892L10.442 22l8.225-8.225"></path></svg>