<svg viewBox="0 0 40 40" xmlns="http://www.w3.org/2000/svg"><path d="M9.5 37.5V14a.5.5 0 00-.854-.354C7.214 15.079 7.379 28.587 7.488 33.5H2.48c-.246-6.648-.02-22.793 3.777-25.071 2.042-1.225 7.981-4.447 8.869-4.929h9.746c.917.5 7.198 3.925 8.87 4.929 3.798 2.279 4.023 18.423 3.777 25.071h-5.008c.109-4.913.274-18.421-1.158-19.854A.5.5 0 0030.5 14v23.5h-21z" fill="#c2e8ff"></path><path d="M24.745 4c1.226.668 7.133 3.893 8.74 4.857 3.152 1.891 3.843 15.411 3.552 24.143h-4.015c.151-7.172.138-18.253-1.316-19.707a.996.996 0 00-1.088-.217c-.374.155-.618.52-.618.924v23H10V14a1.002 1.002 0 00-1.707-.707C6.839 14.747 6.826 25.828 6.977 33H2.962c-.291-8.731.399-22.251 3.553-24.143C8.476 7.681 14.068 4.643 15.253 4h9.492M25 3H15S8.233 6.66 6 8c-5 3-4 26-4 26h6s-.45-18.55 1-20v24h22V14c1.45 1.45 1 20 1 20h6s1-23-4-26c-1.827-1.096-9-5-9-5z" fill="#7496c4"></path><path fill="#c2e8ff" d="M2.5 33.5h5v3h-5z"></path><path d="M7 34v2H3v-2h4m1-1H2v4h6v-4z" fill="#7496c4"></path><path fill="#c2e8ff" d="M32.5 33.5h5v3h-5z"></path><path d="M37 34v2h-4v-2h4m1-1h-6v4h6v-4z" fill="#7496c4"></path><path d="M12.67 5.037l2.367-2.367 4.214 3.372-3.21 3.21-3.371-4.215zm8.079 1.005l4.214-3.372 1.429 1.429-2.529 5.057-3.114-3.114z" fill="#c2e8ff"></path><path d="M24.926 3.34l.857.857-2.057 4.114-2.229-2.229 3.429-2.742m-9.852 0l3.429 2.743-2.42 2.42-2.743-3.429 1.734-1.734M25 2l-5 4 4 4 3-6-2-2zM15 2l-3 3 4 5 4-4-5-4z" fill="#7496c4"></path><circle cx="20" cy="10" r="1" fill="#7496c4"></circle><circle cx="20" cy="16" r="1" fill="#7496c4"></circle><g><circle cx="20" cy="22" r="1" fill="#7496c4"></circle></g><g><circle cx="20" cy="28" r="1" fill="#7496c4"></circle></g><g><circle cx="20" cy="34" r="1" fill="#7496c4"></circle></g><path fill="#7496c4" d="M25 2l-5 4-5-4z"></path></svg>