<svg viewBox="0 0 40 40" xmlns="http://www.w3.org/2000/svg"><path fill="#8bb7f0" d="M19.5 26.5h5v10h-5z"></path><path d="M24 27v9h-4v-9h4m1-1h-6v11h6V26z" fill="#4e7ab5"></path><path d="M22 33.5c-8.547 0-15.5-6.953-15.5-15.5S13.453 2.5 22 2.5 37.5 9.453 37.5 18 30.547 33.5 22 33.5z" fill="#c2e8ff"></path><path d="M22 3c8.271 0 15 6.729 15 15s-6.729 15-15 15S7 26.271 7 18 13.729 3 22 3m0-1C13.163 2 6 9.163 6 18s7.163 16 16 16 16-7.163 16-16S30.837 2 22 2z" fill="#7496c4"></path><path d="M16 22a7.347 7.347 0 01-1.016-2.498M29 21a7.415 7.415 0 01-2.111 2.805M22 18l5.303-14.036M22 18L7.187 20.392M22 18l9.481 11.616M21.985 6.556c1.355 0 2.655.236 3.861.668M15.94 27.691a11.438 11.438 0 01-5.227-7.789M33.416 17.987c0 3.56-1.627 6.739-4.178 8.836" fill="none" stroke="#8ecbed" stroke-miterlimit="10"></path><circle cx="22" cy="18" r="3" fill="#7496c4"></circle><path d="M11.568 38.5c.542-1.915 4.276-3 10.432-3h.301c6.074 0 9.628 1.06 10.136 3H11.568z" fill="#8bb7f0"></path><path d="M22.302 36c4.988 0 8.255.716 9.319 2H12.427c1.158-1.255 4.609-2 9.573-2H22.302m-.001-1H22c-2.063 0-11 .027-11 4h22c0-3.916-8.19-4-10.699-4z" fill="#4e7ab5"></path><g><path d="M13.774 14.471a4.541 4.541 0 01-3.089-1.192c-1.636-1.506-3.627-2.302-5.759-2.302-.855 0-1.59.126-2.129.26C3.309 9.896 4.621 7.5 7.482 7.5h.578l-.082-.572c-.299-2.04.601-2.909 1.553-3.83.658-.637 1.335-1.291 1.449-2.282 3.587 1.88 4.371 4.488 4.53 5.282l.061.305.301.08c.597.159 1.487.899 2.036 2.007.368.742.698 1.891.182 3.148-.708 1.721-2.403 2.833-4.316 2.833z" fill="#ffc49c"></path><path d="M11.305 1.575c2.313 1.394 3.437 3.234 3.715 4.621l.122.61.601.16c.408.109 1.21.722 1.717 1.746.322.65.612 1.652.167 2.735-.631 1.533-2.143 2.524-3.853 2.524a4.046 4.046 0 01-2.75-1.059c-1.729-1.593-3.837-2.435-6.097-2.435-.457 0-.884.035-1.268.087C4.294 9.382 5.467 8 7.483 8H8.64l-.168-1.145c-.261-1.786.511-2.532 1.406-3.397.524-.506 1.126-1.089 1.427-1.883M10.442 0c.566 2.798-3.575 2.793-2.959 7-4.349 0-5.447 5.006-5.447 5.006s1.196-.528 2.892-.528c1.563 0 3.55.448 5.419 2.17a5.028 5.028 0 003.427 1.324c1.983 0 3.945-1.12 4.778-3.144C19.667 9.117 17.448 6.386 16 6c-.308-1.539-1.659-4.256-5.558-6z" fill="#a16a4a"></path></g><path d="M12.879 8.491c-1.569 0-4.166.149-5.396-1.491" fill="none" stroke="#a16a4a" stroke-miterlimit="10"></path></svg>