<svg viewBox="0 0 40 40" xmlns="http://www.w3.org/2000/svg"><path d="M12.911 25.5L9.845 7.83l28.522 3.852L34.9 24.395a1.504 1.504 0 01-1.447 1.105H12.911z" fill="#bae0bd"></path><path d="M10.454 8.417l27.281 3.684-3.317 12.162a1.002 1.002 0 01-.965.737H13.331L10.454 8.417M9.235 7.243L12.49 26h20.963c.902 0 1.692-.604 1.93-1.474L39 11.263 9.235 7.243z" fill="#5e9c76"></path><path d="M3 1.5h2.119A4.305 4.305 0 019.36 5.067l4.498 25.866a4.305 4.305 0 004.241 3.567H35" fill="none" stroke="#66798f" stroke-miterlimit="10"></path><circle cx="3" cy="3" r="1.5" fill="#bae0bd"></circle><path d="M3 2c.551 0 1 .449 1 1s-.449 1-1 1-1-.449-1-1 .449-1 1-1m0-1a2 2 0 10-.001 3.999A2 2 0 003 1z" fill="#5e9c76"></path><circle cx="31.5" cy="36.5" r="2" fill="#b0c1d4"></circle><path d="M31.5 35c.827 0 1.5.673 1.5 1.5s-.673 1.5-1.5 1.5-1.5-.673-1.5-1.5.673-1.5 1.5-1.5m0-1a2.5 2.5 0 100 5 2.5 2.5 0 000-5z" fill="#66798f"></path><circle cx="18.5" cy="36.5" r="2" fill="#b0c1d4"></circle><path d="M18.5 35c.827 0 1.5.673 1.5 1.5s-.673 1.5-1.5 1.5-1.5-.673-1.5-1.5.673-1.5 1.5-1.5m0-1a2.5 2.5 0 100 5 2.5 2.5 0 000-5z" fill="#66798f"></path><path fill="#bae0bd" stroke="#5e9c76" stroke-miterlimit="10" d="M18.5 22v-8M22.5 22v-8M26.5 22v-8M30.5 22v-8"></path></svg>