<svg viewBox="0 0 40 40" xmlns="http://www.w3.org/2000/svg"><path d="M22.441 35.5l-1.945-15.503a.5.5 0 00-.992 0L17.559 35.5H4.5v-31h31v31H22.441z" fill="#bae0bd"></path><path d="M35 5v30H22.882l-1.89-15.066a1 1 0 00-1.984 0L17.118 35H5V5h30m1-1H4v32h14l2-15.941L22 36h14V4z" fill="#5e9c76"></path><path d="M4.5 18.5s9 .122 9-9M35.5 18.5s-9 .122-9-9" fill="#bae0bd" stroke="#5e9c76" stroke-miterlimit="10"></path><path fill="#5e9c76" d="M4 5h32v5H4z"></path><path d="M17 11.5a.5.5 0 01-.5-.5V5a.5.5 0 01.5-.5h6a.5.5 0 01.5.5v6a.5.5 0 01-.5.5h-6z" fill="#ffeea3"></path><path d="M23 5v6h-6V5h6m0-1h-6a1 1 0 00-1 1v6a1 1 0 001 1h6a1 1 0 001-1V5a1 1 0 00-1-1z" fill="#ba9b48"></path><g><path fill="#bae0bd" d="M8.5 4.5h2v5h-2z"></path><path d="M10 5v4H9V5h1m1-1H8v6h3V4z" fill="#5e9c76"></path></g><g><path fill="#bae0bd" d="M30.5 4.5h2v5h-2z"></path><path d="M32 5v4h-1V5h1m1-1h-3v6h3V4z" fill="#5e9c76"></path></g></svg>