<svg viewBox="0 0 40 40" xmlns="http://www.w3.org/2000/svg"><path fill="#8bb7f0" d="M1.5 9.5h36v21h-36z"></path><path d="M37 10v20H2V10h35m1-1H1v22h37V9z" fill="#4e7ab5"></path><path d="M37 6v3H2V6h35m1-1H1v5h37V5z" fill="#4e7ab5"></path><path fill="#4e7ab5" d="M5 5h1v5H5zM9 5h1v5H9zM13 5h1v5h-1zM17 5h1v5h-1zM21 5h1v5h-1zM25 5h1v5h-1zM29 5h1v5h-1zM33 5h1v5h-1zM37 31v3H2v-3h35m1-1H1v5h37v-5z"></path><path fill="#4e7ab5" d="M5 30h1v5H5zM9 30h1v5H9zM13 30h1v5h-1zM17 30h1v5h-1zM21 30h1v5h-1zM25 30h1v5h-1zM29 30h1v5h-1zM33 30h1v5h-1z"></path><path d="M6 23.66v-1.48c.57.329.938.493 1.581.493.484 0 .715-.109.988-.326.273-.218.41-.513.41-.886 0-.779-.435-1.168-1.601-1.168-.38 0-.839.033-1.378.099V16h4.616v1.415H7.57v1.574a7.73 7.73 0 01.692-.033c.857 0 1.527.212 2.012.636s.726.994.726 1.71c0 .793-.289 1.441-.866 1.944-.578.503-1.361.754-2.349.754-.802 0-1.238-.113-1.785-.34zM23 24h-2v-3.34c0-.85-.368-1.275-.993-1.275-.297 0-.54.128-.726.383-.188.255-.281.573-.281.955V24h-2v-3.375c0-.827-.368-1.241-.982-1.241a.883.883 0 00-.741.366c-.185.244-.277.576-.277.995V24h-2v-6h2v1.058h.023c.187-.313.449-.567.786-.764A2.395 2.395 0 0116.977 18c.827 0 1.586.364 1.891 1.092.447-.728 1.158-1.092 2.023-1.092 1.274 0 2.109.786 2.109 2.357V24zM25 17c-.293 0-.533-.097-.72-.292s-.28-.434-.28-.717c0-.291.093-.529.28-.714S24.707 15 25 15c.297 0 .538.092.723.277a.965.965 0 01.277.714.994.994 0 01-.277.726c-.185.189-.426.283-.723.283zM24 18h2v6h-2zM33 24h-1.952v-3.255c0-.908-.324-1.361-.972-1.361-.313 0-.57.12-.772.36S29 20.29 29 20.66V24h-2v-6h2v1.07h.023c.431-.713 1.058-1.07 1.882-1.07 1.296 0 2.095.805 2.095 2.414V24z" fill="#36404d"></path></svg>