<svg viewBox="0 0 40 40" xmlns="http://www.w3.org/2000/svg"><path fill="none" stroke="#4e7ab5" stroke-linecap="round" stroke-miterlimit="10" d="M38.5 38.5H32L1 1.5"></path><circle cx="1.5" cy="20" r=".5" fill="#36404d"></circle><circle cx="3.5" cy="20" r=".5" fill="#36404d"></circle><circle cx="5.5" cy="20" r=".5" fill="#36404d"></circle><circle cx="7.5" cy="20" r=".5" fill="#36404d"></circle><circle cx="9.5" cy="20" r=".5" fill="#36404d"></circle><circle cx="29.5" cy="20" r=".5" fill="#36404d"></circle><circle cx="31.5" cy="20" r=".5" fill="#36404d"></circle><circle cx="33.5" cy="20" r=".5" fill="#36404d"></circle><circle cx="35.5" cy="20" r=".5" fill="#36404d"></circle><circle cx="37.5" cy="20" r=".5" fill="#36404d"></circle><circle cx="39.5" cy="20" r=".5" fill="#36404d"></circle><circle cx="11.5" cy="20" r=".5" fill="#36404d"></circle><circle cx="13.5" cy="20" r=".5" fill="#36404d"></circle><circle cx="15.5" cy="20" r=".5" fill="#36404d"></circle><circle cx="17.5" cy="20" r=".5" fill="#36404d"></circle><circle cx="19.5" cy="20" r=".5" fill="#36404d"></circle><circle cx="21.5" cy="20" r=".5" fill="#36404d"></circle><circle cx="23.5" cy="20" r=".5" fill="#36404d"></circle><circle cx="25.5" cy="20" r=".5" fill="#36404d"></circle><circle cx="27.5" cy="20" r=".5" fill="#36404d"></circle></svg>