<svg viewBox="0 0 40 40" xmlns="http://www.w3.org/2000/svg"><path d="M13.158 38.5C12.029 37.692 9.5 35.557 9.5 34c0-.341.146-.883.313-1.512.496-1.851 1.245-4.646-.011-7.925-.145-.379-.297-.702-.444-1.018-.42-.895-.783-1.667-.858-3.565l-.02-.48h-.89l-.166.401a5.474 5.474 0 00-.044.6c-.034.846-.102 2.523-.65 3.882L1.501 22.64c.031-4.029.585-5.635.886-6.509l.089-.264c.187-.565.154-1.199.101-2.248A47.24 47.24 0 012.5 11c0-4.374 3.107-6.5 9.5-6.5h.231l.15-.177C13.374 3.15 15.13 1.5 15.929 1.5h8.143c.799 0 2.555 1.65 3.547 2.823l.15.177H28c6.393 0 9.5 2.126 9.5 6.5a48.42 48.42 0 01-.076 2.619c-.054 1.049-.086 1.683.102 2.251l.088.261c.301.874.854 2.479.886 6.509l-5.229 1.743c-.549-1.358-.616-3.036-.65-3.882a5.474 5.474 0 00-.044-.6l-.083-.401h-.89l-.104.48c-.075 1.897-.438 2.67-.858 3.565-.147.315-.3.639-.444 1.018-1.256 3.278-.507 6.074-.011 7.925.167.629.313 1.171.313 1.512 0 1.56-2.529 3.693-3.658 4.5H13.158z" fill="#ffeea3"></path><path d="M24.071 2c.492.01 2.001 1.271 3.166 2.646l.3.354H28c6.056 0 9 1.963 9 6 0 1.094-.042 1.925-.076 2.593-.054 1.069-.09 1.776.124 2.428.026.082.057.172.092.271.283.82.795 2.305.854 5.989l-4.419 1.473c-.373-1.19-.428-2.549-.457-3.274-.013-.334-.021-.518-.053-.677L32.904 19H31.039l-.038.961c-.071 1.796-.398 2.492-.811 3.372-.15.32-.306.651-.459 1.052-1.313 3.43-.539 6.321-.027 8.234.152.569.296 1.107.296 1.381 0 1.112-1.864 2.937-3.319 4H13.319C11.863 36.94 10 35.117 10 34c0-.274.144-.812.297-1.382.512-1.913 1.287-4.804-.027-8.234-.153-.401-.309-.732-.459-1.052-.414-.881-.74-1.576-.811-3.372L8.961 19H7.096l-.161.803c-.032.159-.039.343-.053.677-.029.725-.084 2.084-.457 3.274l-4.419-1.473c.059-3.684.571-5.169.854-5.989l.09-.266c.216-.657.18-1.364.126-2.433A47.556 47.556 0 013 11c0-4.037 2.944-6 9-6h.464l.3-.354C13.928 3.271 15.437 2.01 15.929 2h8.142m0-1h-8.142C14.538 1 12 4 12 4 8.868 4 2 4.386 2 11c0 2.771.265 3.908 0 4.714-.261.809-1 2.45-1 7.286l6 2c.963-1.909.837-4.611.915-5H8c.105 2.664.775 3.277 1.336 4.742C10.984 29.047 9 32.516 9 34c0 2.238 4 5 4 5h14s4-2.762 4-5c0-1.484-1.984-4.953-.336-9.258.561-1.465 1.231-2.078 1.336-4.742h.085c.078.389-.048 3.091.915 5l6-2c0-4.836-.739-6.477-1-7.286-.265-.806 0-1.943 0-4.714 0-6.614-6.868-7-10-7 0 0-2.538-3-3.929-3z" fill="#ba9b48"></path><path d="M2.612 14.478a34.78 34.78 0 00-.036-.856C2.543 12.955 2.5 12.11 2.5 11c0-4.236 2.916-6.364 8.907-6.494-.027.198-.05.406-.05.565 0 1.811-1.572 9.015-8.745 9.407z" fill="#f78f8f"></path><path d="M10.858 5.025v.046c0 1.67-1.413 8.189-7.765 8.865l-.017-.346A47.396 47.396 0 013 11c0-3.775 2.574-5.736 7.858-5.975M12 4C8.868 4 2 4.386 2 11c0 2.051.144 3.204.112 3.993 7.93-.076 9.745-7.819 9.745-9.922C11.857 4.717 12 4 12 4z" fill="#c74343"></path><g><path d="M37.388 14.478c-7.173-.393-8.745-7.596-8.745-9.406 0-.159-.022-.367-.05-.565C34.584 4.636 37.5 6.764 37.5 11c0 1.11-.043 1.955-.076 2.621-.017.322-.03.605-.036.857z" fill="#f78f8f"></path><path d="M29.142 5.025C34.426 5.264 37 7.225 37 11c0 1.093-.042 1.924-.075 2.591l-.017.346c-6.352-.676-7.765-7.195-7.765-8.865l-.001-.047M28 4s.143.717.143 1.071c0 2.103 1.815 9.846 9.745 9.922-.032-.789.112-1.942.112-3.993 0-6.614-6.868-7-10-7z" fill="#c74343"></path></g></svg>