<svg viewBox="0 0 40 40" xmlns="http://www.w3.org/2000/svg"><path d="M5.5 21.179V12.5c0-6.075 4.925-11 11-11h5" fill="none" stroke="#8b75a1" stroke-miterlimit="10"></path><path d="M8.823 38.5c-.461 0-.881-.234-1.124-.626a1.311 1.311 0 01-.058-1.285L8.9 34.071h2.953l-1.849 3.699c-.225.45-.677.73-1.181.73z" fill="#dcd5f2"></path><path d="M11.045 34.571l-1.487 2.975a.819.819 0 01-.735.454.808.808 0 01-.698-.389.81.81 0 01-.036-.799l1.12-2.241h1.836m1.618-1H8.591l-1.397 2.793a1.822 1.822 0 003.258 1.629l2.211-4.422z" fill="#8b75a1"></path><path d="M31.177 38.5c-.503 0-.956-.28-1.181-.73l-1.849-3.699H31.1l1.259 2.517c.206.413.185.893-.058 1.285a1.313 1.313 0 01-1.124.627z" fill="#dcd5f2"></path><path d="M30.791 34.571l1.12 2.241a.81.81 0 01-.036.799.808.808 0 01-.698.389.816.816 0 01-.734-.454l-1.487-2.975h1.835m.618-1h-4.071l2.211 4.422a1.82 1.82 0 103.257-1.628l-1.397-2.794z" fill="#8b75a1"></path><path d="M8.73 36.5a3.482 3.482 0 01-3.486-3.188l-.547-6.129a12.272 12.272 0 00-1.192-4.29l.012-.321h32.967l.012.321a12.23 12.23 0 00-1.192 4.29l-.547 6.129a3.481 3.481 0 01-3.486 3.188H8.73z" fill="#dbf2ff"></path><path d="M35.86 23.071a12.729 12.729 0 00-1.055 4.067l-.547 6.129A2.985 2.985 0 0131.27 36H8.73a2.985 2.985 0 01-2.988-2.733l-.547-6.129a12.755 12.755 0 00-1.055-4.067h31.72m1.104-1H3.036L3 23a11.806 11.806 0 011.199 4.227l.547 6.129A4 4 0 008.73 37h22.54a4 4 0 003.984-3.644l.547-6.129A11.806 11.806 0 0137 23l-.036-.929z" fill="#7496c4"></path><circle cx="25.5" cy="8.5" r=".5" fill="#8bb7f0"></circle><circle cx="23.5" cy="8.5" r=".5" fill="#8bb7f0"></circle><circle cx="21.5" cy="8.5" r=".5" fill="#8bb7f0"></circle><circle cx="19.5" cy="8.5" r=".5" fill="#8bb7f0"></circle><circle cx="17.5" cy="8.5" r=".5" fill="#8bb7f0"></circle><circle cx="25.5" cy="10.5" r=".5" fill="#8bb7f0"></circle><circle cx="23.5" cy="10.5" r=".5" fill="#8bb7f0"></circle><circle cx="21.5" cy="10.5" r=".5" fill="#8bb7f0"></circle><circle cx="19.5" cy="10.5" r=".5" fill="#8bb7f0"></circle><circle cx="17.5" cy="10.5" r=".5" fill="#8bb7f0"></circle><circle cx="25.5" cy="12.5" r=".5" fill="#8bb7f0"></circle><circle cx="23.5" cy="12.5" r=".5" fill="#8bb7f0"></circle><circle cx="21.5" cy="12.5" r=".5" fill="#8bb7f0"></circle><circle cx="19.5" cy="12.5" r=".5" fill="#8bb7f0"></circle><circle cx="17.5" cy="12.5" r=".5" fill="#8bb7f0"></circle><circle cx="25.5" cy="14.5" r=".5" fill="#8bb7f0"></circle><circle cx="23.5" cy="14.5" r=".5" fill="#8bb7f0"></circle><circle cx="21.5" cy="14.5" r=".5" fill="#8bb7f0"></circle><circle cx="19.5" cy="14.5" r=".5" fill="#8bb7f0"></circle><circle cx="17.5" cy="14.5" r=".5" fill="#8bb7f0"></circle><circle cx="25.5" cy="16.5" r=".5" fill="#8bb7f0"></circle><circle cx="23.5" cy="16.5" r=".5" fill="#8bb7f0"></circle><circle cx="21.5" cy="16.5" r=".5" fill="#8bb7f0"></circle><circle cx="19.5" cy="16.5" r=".5" fill="#8bb7f0"></circle><circle cx="17.5" cy="16.5" r=".5" fill="#8bb7f0"></circle><circle cx="25.5" cy="18.5" r=".5" fill="#8bb7f0"></circle><circle cx="23.5" cy="18.5" r=".5" fill="#8bb7f0"></circle><circle cx="21.5" cy="18.5" r=".5" fill="#8bb7f0"></circle><circle cx="19.5" cy="18.5" r=".5" fill="#8bb7f0"></circle><circle cx="17.5" cy="18.5" r=".5" fill="#8bb7f0"></circle><g><path d="M3 23.5c-.827 0-1.5-.673-1.5-1.5s.673-1.5 1.5-1.5h34c.827 0 1.5.673 1.5 1.5s-.673 1.5-1.5 1.5H3z" fill="#dbf2ff"></path><path d="M37 21c.551 0 1 .449 1 1s-.449 1-1 1H3c-.551 0-1-.449-1-1s.449-1 1-1h34m0-1H3a2 2 0 100 4h34a2 2 0 100-4z" fill="#7496c4"></path></g><g><path d="M17.5 6.5v-1c0-2.206 1.794-4 4-4s4 1.794 4 4v1h-8z" fill="#dcd5f2"></path><path d="M21.5 2C23.43 2 25 3.57 25 5.5V6h-7v-.5C18 3.57 19.57 2 21.5 2m0-1A4.5 4.5 0 0017 5.5V7h9V5.5A4.5 4.5 0 0021.5 1z" fill="#8b75a1"></path></g></svg>