<svg viewBox="0 0 40 40" xmlns="http://www.w3.org/2000/svg"><path d="M2.5 36.5v-33h35V36a.5.5 0 01-.5.5H2.5z" fill="#fff"></path><path d="M37 4v32H3V4h34m1-1H2v34h35a1 1 0 001-1V3z" fill="#788b9c"></path><path fill="#788b9c" d="M2 3h36v6H2z"></path><path fill="none" stroke="#8bb7f0" stroke-miterlimit="10" d="M13 16.5h18M9 16.5h1M13 20.5h18M9 20.5h1M13 24.5h18M9 24.5h1M13 28.5h18M9 28.5h1"></path><path d="M31 39.5c-4.053 0-7.531-4.344-8.385-5.5.854-1.155 4.339-5.5 8.385-5.5 4.053 0 7.531 4.344 8.385 5.5-.854 1.155-4.339 5.5-8.385 5.5z" fill="#fff"></path><path d="M31 29c3.531 0 6.664 3.59 7.758 5-1.094 1.41-4.227 5-7.758 5s-6.664-3.59-7.758-5c1.094-1.41 4.227-5 7.758-5m0-1c-4.971 0-9 6-9 6s4.029 6 9 6 9-6 9-6-4.029-6-9-6z" fill="#ba9b48"></path><circle cx="31" cy="34" r="3.5" fill="#8bb7f0"></circle><path d="M31 31c1.654 0 3 1.346 3 3s-1.346 3-3 3-3-1.346-3-3 1.346-3 3-3m0-1a4 4 0 100 8 4 4 0 000-8z" fill="#4e7ab5"></path><circle cx="31" cy="34" r="1.5" fill="#36404d"></circle><g><circle cx="33.5" cy="31.5" r="1.5" fill="#fff"></circle></g><g fill="#c8d1db"><path d="M23.634 36h-2.636c.228.288.51.626.844 1h2.793c-.368-.34-.7-.678-1.001-1zM38 31.617v-2.7a16.62 16.62 0 00-1-.773v2.536c.359.314.696.629 1 .937z"></path></g><path d="M31 28h-5.786c-.429.293-.833.601-1.214.917V29h3.388c1.106-.595 2.326-1 3.612-1z" fill="#c2e8ff"></path></svg>