<svg viewBox="0 0 40 40" xmlns="http://www.w3.org/2000/svg"><path d="M2 19.5a.5.5 0 01-.5-.5V3a.5.5 0 01.5-.5h36a.5.5 0 01.5.5v16a.5.5 0 01-.5.5H2z" fill="#e1ebf2"></path><path d="M38 3v16H2V3h36m0-1H2c-.55 0-1 .45-1 1v16c0 .55.45 1 1 1h36c.55 0 1-.45 1-1V3c0-.55-.45-1-1-1z" fill="#788b9c"></path><circle cx="20" cy="11" r="3" fill="#66798f"></circle><circle cx="10" cy="11" r="3" fill="#66798f"></circle><circle cx="30" cy="11" r="3" fill="#66798f"></circle><g><path d="M20 37.5c-8.672 0-16.003-8.765-17.369-10.5C3.997 25.266 11.335 16.5 20 16.5c8.672 0 16.003 8.765 17.369 10.5C36.003 28.734 28.665 37.5 20 37.5z" fill="#fff"></path><path d="M20 17c8.013 0 14.913 7.769 16.729 10C34.913 29.231 28.013 37 20 37S5.087 29.231 3.271 27C5.087 24.769 11.987 17 20 17m0-1C10.059 16 2 27 2 27s8.059 11 18 11 18-11 18-11-8.059-11-18-11z" fill="#ba9b48"></path><path d="M20 35.5c-4.687 0-8.5-3.813-8.5-8.5s3.813-8.5 8.5-8.5 8.5 3.813 8.5 8.5-3.813 8.5-8.5 8.5z" fill="#8bb7f0"></path><path d="M20 19c4.411 0 8 3.589 8 8s-3.589 8-8 8-8-3.589-8-8 3.589-8 8-8m0-1c-4.971 0-9 4.029-9 9s4.029 9 9 9 9-4.029 9-9-4.029-9-9-9z" fill="#4e7ab5"></path><g><circle cx="20" cy="27" r="4" fill="#36404d"></circle></g><g><circle cx="23.5" cy="24.5" r="1.5" fill="#fff"></circle></g></g></svg>