<svg viewBox="0 0 40 40" xmlns="http://www.w3.org/2000/svg"><circle cx="18" cy="20" r="1" fill="#8bb7f0"></circle><circle cx="18" cy="24" r="1" fill="#8bb7f0"></circle><circle cx="18" cy="28" r="1" fill="#8bb7f0"></circle><circle cx="18" cy="32" r="1" fill="#8bb7f0"></circle><circle cx="22" cy="20" r="1" fill="#8bb7f0"></circle><circle cx="22" cy="24" r="1" fill="#8bb7f0"></circle><circle cx="22" cy="28" r="1" fill="#8bb7f0"></circle><circle cx="22" cy="32" r="1" fill="#8bb7f0"></circle><circle cx="26" cy="20" r="1" fill="#8bb7f0"></circle><circle cx="26" cy="24" r="1" fill="#8bb7f0"></circle><circle cx="26" cy="28" r="1" fill="#8bb7f0"></circle><circle cx="26" cy="32" r="1" fill="#8bb7f0"></circle><circle cx="30" cy="20" r="1" fill="#8bb7f0"></circle><circle cx="30" cy="24" r="1" fill="#8bb7f0"></circle><circle cx="30" cy="28" r="1" fill="#8bb7f0"></circle><circle cx="30" cy="32" r="1" fill="#8bb7f0"></circle><circle cx="14" cy="20" r="1" fill="#8bb7f0"></circle><circle cx="14" cy="24" r="1" fill="#8bb7f0"></circle><circle cx="14" cy="28" r="1" fill="#8bb7f0"></circle><circle cx="14" cy="32" r="1" fill="#8bb7f0"></circle><circle cx="10" cy="20" r="1" fill="#8bb7f0"></circle><circle cx="10" cy="24" r="1" fill="#8bb7f0"></circle><circle cx="10" cy="28" r="1" fill="#8bb7f0"></circle><circle cx="10" cy="32" r="1" fill="#8bb7f0"></circle><circle cx="18" cy="36" r="1" fill="#8bb7f0"></circle><circle cx="22" cy="36" r="1" fill="#8bb7f0"></circle><circle cx="26" cy="36" r="1" fill="#8bb7f0"></circle><circle cx="30" cy="36" r="1" fill="#8bb7f0"></circle><circle cx="14" cy="36" r="1" fill="#8bb7f0"></circle><circle cx="10" cy="36" r="1" fill="#8bb7f0"></circle><path fill="#dcd5f2" d="M17.5 1.5h5v6h-5z"></path><path d="M22 2v5h-4V2h4m1-1h-6v7h6V1z" fill="#8b75a1"></path><path fill="#dcd5f2" d="M18 1h4v4h-4zM5.502 14.5a4.488 4.488 0 013.104-4.149L17.352 7.5h5.296l8.746 2.851a4.489 4.489 0 013.104 4.149H5.502z"></path><path d="M22.569 8l8.671 2.826A3.989 3.989 0 0133.951 14H6.049a3.99 3.99 0 012.711-3.174L17.431 8h5.138m.159-1h-5.455L8.451 9.875A5.001 5.001 0 005 14.629V15h30v-.371a5.001 5.001 0 00-3.451-4.754L22.728 7z" fill="#8b75a1"></path><g><path d="M6 16.5c-.827 0-1.5-.673-1.5-1.5s.673-1.5 1.5-1.5h28c.827 0 1.5.673 1.5 1.5s-.673 1.5-1.5 1.5H6z" fill="#dcd5f2"></path><path d="M34 14c.551 0 1 .449 1 1s-.449 1-1 1H6c-.551 0-1-.449-1-1s.449-1 1-1h28m0-1H6a2 2 0 100 4h28a2 2 0 100-4z" fill="#8b75a1"></path></g></svg>