<svg viewBox="0 0 40 40" xmlns="http://www.w3.org/2000/svg"><path fill="#839cb2" d="M16.5 23.5h7v9h-7z"></path><path d="M23 24v8h-6v-8h6m1-1h-8v10h8V23z" fill="#66798f"></path><path fill="#8bb7f0" d="M5.5 4.5h29v24h-29z"></path><path d="M34 5v23H6V5h28m1-1H5v25h30V4z" fill="#4e7ab5"></path><path d="M38 5v23h-3V5h3m1-1h-5v25h5V4zM5 5v23H2V5h3m1-1H1v25h5V4z" fill="#4e7ab5"></path><path fill="#4e7ab5" d="M34 8h5v1h-5zM34 12h5v1h-5zM34 16h5v1h-5zM34 20h5v1h-5zM34 24h5v1h-5zM1 8h5v1H1zM1 12h5v1H1zM1 16h5v1H1zM1 20h5v1H1zM1 24h5v1H1z"></path><g><path fill="#b0c1d4" d="M9.5 32.5h21v3h-21z"></path><path d="M30 33v2H10v-2h20m1-1H9v4h22v-4z" fill="#66798f"></path></g></svg>