<svg viewBox="0 0 40 40" xmlns="http://www.w3.org/2000/svg"><path fill="#8bb7f0" d="M31.5 31.5h-7.02l-17.362-19H1.5v-4h7.382l17.362 19H31.5v-3.45l6.707 5.45-6.707 5.45z"></path><path d="M8.662 9l17.065 18.675.297.325H32v-2.899l5.414 4.399L32 33.899V31h-7.299L7.636 12.325 7.338 12H2V9h6.662m.441-1H1v5h5.897L24.26 32H31v4l8-6.5-8-6.5v4h-4.535L9.103 8z" fill="#4e7ab5"></path><g><path fill="#8bb7f0" d="M1.5 31.5v-4h5.618l17.362-19h7.02V5.05l6.707 5.45-6.707 5.45V12.5h-5.256l-17.362 19z"></path><path d="M32 6.101l5.414 4.399L32 14.899V12h-5.976l-.297.325L8.662 31H2v-3h5.338l.297-.325L24.701 9H32V6.101M31 4v4h-6.74L6.897 27H1v5h8.103l17.362-19H31v4l8-6.5L31 4z" fill="#4e7ab5"></path></g></svg>