<svg viewBox="0 0 40 40" xmlns="http://www.w3.org/2000/svg"><path d="M15.5 35.5v-13l13.739-.005 1.304.006.052-.011c2.111.01 3.905 1.804 3.905 4.01s-1.794 4-4 4c-1.309 0-2.479-.275-3.612-.542-1.003-.235-1.95-.458-2.888-.458-1.288 0-2.401 2.095-3.724 4.833-.21.435-.404.837-.576 1.167h-4.2zm15-11c-1.103 0-2 .897-2 2s.897 2 2 2 2-.897 2-2-.897-2-2-2z" fill="#e1ebf2"></path><path d="M27.546 22.996l-.006.005h3.016A3.504 3.504 0 0134 26.5c0 1.93-1.57 3.5-3.5 3.5-1.25 0-2.393-.269-3.498-.528C25.97 29.229 24.996 29 24 29c-1.582 0-2.728 2.12-4.174 5.116-.151.313-.298.617-.432.884H16V23l11.546-.004M30.5 29c1.379 0 2.5-1.122 2.5-2.5S31.879 24 30.5 24 28 25.122 28 26.5s1.121 2.5 2.5 2.5m0-7.005L15 22v14h5c.918-1.657 2.61-6 4-6 1.898 0 3.954 1 6.5 1a4.5 4.5 0 000-9l-.007.001.007-.006zm0 6.005a1.5 1.5 0 11.001-3.001A1.5 1.5 0 0130.5 28z" fill="#a3b7cc"></path><path d="M7.024 38.481C6.237 38.468 5.5 37.754 5.5 37V22.152c.149-.223.294-.434.434-.637C7.534 19.184 8.5 17.775 8.5 11V1.483c1.223.021 4.056.446 6.12 3.675.784 1.226.864 3.938.88 6.845v.999c.02 4.626 1.265 10.766 4 14.177V36a1.4 1.4 0 01-1.398 1.398L7.024 38.481z" fill="#ffb5d2"></path><path d="M9 2.014c1.294.134 3.512.776 5.199 3.413.772 1.208.79 4.44.801 6.578v.998c.018 4.319 1.082 10.595 4 14.348V36a.9.9 0 01-.898.898h-.049l-.049.005-10.996 1.078C6.511 37.956 6 37.465 6 37V22.305l.345-.506C8.001 19.387 9 17.931 9 11V2.014M8.402.983C8.146.983 8 1 8 1v10c0 7.318-1.102 8.152-3 11v15c0 1.05.999 1.982 2.047 1.982l11.055-1.083A1.899 1.899 0 0020 36v-9c-2.701-3.241-3.98-9.255-4-14-.002-.46.002-.556 0-1-.016-3.027-.099-5.768-.959-7.112C12.755 1.315 9.524.983 8.402.983z" fill="#ea4c89"></path><g><path d="M9.978 38.5A3.462 3.462 0 016.5 35c0-1.963 1.537-3.5 3.5-3.5l8.79.835c.243.006.71.079.71.665v4c0 .615-.508.663-.663.663l-8.859.837z" fill="#66798f"></path><path d="M9.956 32l8.787.832.047.004h.047c.001 0 .121.022.148.043A.359.359 0 0119 33v4c0 .072-.011.111-.008.111a.406.406 0 01-.155.052h-.047l-.047.004L9.956 38C8.268 37.978 7 36.696 7 35s1.268-2.978 2.956-3M10 31c-2.248 0-4 1.75-4 4s1.752 4 4 4l8.837-.837S20 38.163 20 37v-4c0-1.163-1.163-1.163-1.163-1.163L10 31z" fill="#36404d"></path></g><path fill="#e1ebf2" d="M8.857 37l-1.155-2 1.155-2h2.309l1.155 2-1.155 2z"></path></svg>