<svg viewBox="0 0 40 40" xmlns="http://www.w3.org/2000/svg"><path d="M2.667 30.5A2.17 2.17 0 01.5 28.333V9.667A2.17 2.17 0 012.667 7.5h29.776a4.832 4.832 0 014.432 2.905l2.223 5.109c.266.613.401 1.262.401 1.929v10.89a2.17 2.17 0 01-2.167 2.167H2.667z" fill="#bae0bd"></path><path d="M32.444 8a4.333 4.333 0 013.974 2.605l2.223 5.11c.239.549.36 1.13.36 1.729v10.89A1.67 1.67 0 0137.333 30H2.667c-.445 0-.864-.173-1.178-.488A1.652 1.652 0 011 28.333V9.667A1.67 1.67 0 012.667 8h29.777m0-1H2.667A2.668 2.668 0 000 9.667v18.667A2.667 2.667 0 002.667 31h34.667A2.667 2.667 0 0040 28.333v-10.89c0-.732-.151-1.456-.443-2.128l-2.223-5.11A5.334 5.334 0 0032.444 7z" fill="#5e9c76"></path><path d="M30.333 20.5a.834.834 0 01-.833-.833v-8.334c0-.459.374-.833.833-.833h6.438l2.327 5.348c.266.613.401 1.262.401 1.929V20.5h-9.166z" fill="#c2e8ff"></path><path d="M36.444 11l2.196 5.048c.239.549.36 1.13.36 1.729V20h-8.667a.332.332 0 01-.333-.333v-8.333c0-.184.15-.334.334-.334h6.11m.656-1h-6.766c-.737 0-1.334.597-1.334 1.333v8.333c0 .737.597 1.334 1.333 1.334H40v-3.224c0-.732-.151-1.456-.443-2.128L37.1 10z" fill="#5e9c76"></path><circle cx="31.5" cy="30.5" r="4" fill="#c8d1db"></circle><path d="M31.5 27c1.93 0 3.5 1.57 3.5 3.5S33.43 34 31.5 34 28 32.43 28 30.5s1.57-3.5 3.5-3.5m0-1a4.5 4.5 0 100 9 4.5 4.5 0 000-9z" fill="#66798f"></path><circle cx="31.5" cy="30.5" r="1.5" fill="#66798f"></circle><circle cx="8.5" cy="30.5" r="4" fill="#c8d1db"></circle><path d="M8.5 27c1.93 0 3.5 1.57 3.5 3.5S10.43 34 8.5 34 5 32.43 5 30.5 6.57 27 8.5 27m0-1a4.5 4.5 0 100 9 4.5 4.5 0 000-9z" fill="#66798f"></path><circle cx="8.5" cy="30.5" r="1.5" fill="#66798f"></circle><g><path d="M17.354 20.5a.855.855 0 01-.854-.854v-8.291c0-.471.383-.854.854-.854h9.292c.471 0 .854.384.854.854v8.291a.855.855 0 01-.854.854h-9.292z" fill="#c2e8ff"></path><path d="M26.646 11c.195 0 .354.159.354.354v8.292a.355.355 0 01-.354.354h-9.292a.355.355 0 01-.354-.354v-8.292c0-.195.159-.354.354-.354h9.292m0-1h-9.292c-.748 0-1.354.606-1.354 1.354v8.292c0 .748.606 1.354 1.354 1.354h9.292c.748 0 1.354-.606 1.354-1.354v-8.292c0-.748-.606-1.354-1.354-1.354z" fill="#5e9c76"></path></g><g><path d="M4.354 20.5a.855.855 0 01-.854-.854v-8.291c0-.471.383-.854.854-.854h9.292c.471 0 .854.384.854.854v8.291a.855.855 0 01-.854.854H4.354z" fill="#c2e8ff"></path><path d="M13.646 11c.195 0 .354.159.354.354v8.292a.355.355 0 01-.354.354H4.354A.355.355 0 014 19.646v-8.292c0-.195.159-.354.354-.354h9.292m0-1H4.354C3.606 10 3 10.606 3 11.354v8.292C3 20.394 3.606 21 4.354 21h9.292c.748 0 1.354-.606 1.354-1.354v-8.292c0-.748-.606-1.354-1.354-1.354z" fill="#5e9c76"></path></g><path d="M1.5 25H0v-3h1.5a1.5 1.5 0 010 3z" fill="#c74343"></path><path d="M38.5 22h.5v3h-.5a1.5 1.5 0 010-3z" fill="#fff"></path></svg>