<svg viewBox="0 0 40 40" xmlns="http://www.w3.org/2000/svg"><path d="M24.748 8.162l7.089 7.089-2.783 7.423L24.6 35.621l-3.45 2.115-3.443-3.443-.293-.293H12v-6H6v-5.414l-.293-.293-3.442-3.443L4.38 15.4l12.972-4.464 7.396-2.774M25 7l-8 3-13.286 4.571L1 19l4 4v6h6v6h6l4 4 4.429-2.714L30 23l3-8-8-8z" fill="#a3b7cc"></path><path fill="#e1ebf2" d="M17.207 34.5H11.5v-6h-6v-5.707l-3.868-3.868 2.414-3.94 12.821-4.411 12.559 12.559-4.411 12.821-3.94 2.414z"></path><path d="M16.735 11.149l12.117 12.117L24.6 35.621l-3.45 2.115-3.443-3.443-.293-.293H12v-6H6v-5.414l-.293-.293-3.442-3.443L4.38 15.4l12.355-4.251M17 10L3.714 14.571 1 19l4 4v6h6v6h6l4 4 4.429-2.714L30 23 17 10z" fill="#a3b7cc"></path><path fill="none" stroke="#a3b7cc" stroke-miterlimit="10" d="M5.538 23.35L27.914 8.341M16.734 34.547L31.96 11.475M11.245 28.719l18.523-18.523"></path><path d="M23.421 7.786l3.719-3.719c.246-.273.922-.997 1.306-1.29A6.16 6.16 0 0132.214 1.5 6.293 6.293 0 0138.5 7.786a6.17 6.17 0 01-1.276 3.768c-.294.385-1.018 1.061-1.271 1.288l-3.738 3.737-8.794-8.793z" fill="#e1ebf2"></path><path d="M32.214 2A5.792 5.792 0 0138 7.786a5.67 5.67 0 01-1.174 3.465c-.239.313-.868.914-1.208 1.22l-.02.018-.019.019-3.364 3.364-8.086-8.086 3.364-3.364.019-.019.018-.02c.305-.34.906-.968 1.219-1.207A5.659 5.659 0 0132.214 2m0-1a6.684 6.684 0 00-4.072 1.38c-.506.386-1.356 1.335-1.356 1.335l-4.071 4.071 9.5 9.5 4.071-4.071s.949-.851 1.335-1.358A6.683 6.683 0 0039 7.786 6.786 6.786 0 0032.214 1z" fill="#a3b7cc"></path><g><path fill="#8bb7f0" d="M35.58 13.214l-3.365 3.365-8.793-8.793 3.365-3.365z"></path><path d="M26.786 5.129l8.086 8.086-2.657 2.657-8.086-8.086 2.657-2.657m0-1.415l-4.071 4.071 9.5 9.5 4.071-4.071-9.5-9.5z" fill="#4e7ab5"></path></g></svg>