<svg viewBox="0 0 40 40" xmlns="http://www.w3.org/2000/svg"><path d="M25 31.5c-8.075 0-12.189-2.975-12.23-3.005l-.346-.256L10.5 30.16l-.649-.649 4.828-4.823c1.06.785 4.373 2.812 10.321 2.812 7.242 0 10.5-5.555 10.5-9.5 0-8.051-5.66-13.213-9.3-15.7 1.346.438 2.964 1.093 4.571 2.056C35.899 7.427 38.5 12.018 38.5 18c0 7.822-5.678 13.5-13.5 13.5z" fill-rule="evenodd" clip-rule="evenodd" fill="#dcd5f2"></path><path d="M29.511 4.223c.324.169.65.351.976.546C35.472 7.743 38 12.195 38 18c0 7.533-5.467 13-13 13-7.881 0-11.894-2.878-11.93-2.905l-.627-.467 2.294-2.291C16.14 26.272 19.478 28 25 28c7.587 0 11-5.848 11-10 0-6.317-3.276-10.85-6.489-13.777M23 1s12 5.381 12 17c0 3.769-3.154 9-10 9-7.108 0-10.358-2.982-10.358-2.982L9.143 29.51l1.357 1.356 1.972-1.97S16.634 31.999 25 31.999c8.169 0 14-6.073 14-14C39 3.093 23 1 23 1z" fill="#8b75a1"></path><g><path d="M3.344 38.5a1.846 1.846 0 01-1.304-3.148l7.645-7.645 2.608 2.608-7.645 7.645c-.348.348-.811.54-1.304.54z" fill-rule="evenodd" clip-rule="evenodd" fill="#f5ce85"></path><path d="M9.685 28.414l1.901 1.901-7.291 7.291a1.337 1.337 0 01-.951.394c-.359 0-.697-.14-.951-.394a1.338 1.338 0 01-.393-.95c0-.359.14-.697.394-.95l7.291-7.292m0-1.414l-7.998 7.998a2.345 2.345 0 003.315 3.315L13 30.315 9.685 27z" fill="#967a44"></path></g></svg>