<svg viewBox="0 0 40 40" xmlns="http://www.w3.org/2000/svg"><path d="M34 13.5c-2.481 0-4.5-2.019-4.5-4.5s2.019-4.5 4.5-4.5c3.196 0 4.5.82 4.5 2.833 0 2.436-2.016 6.167-4.5 6.167z" fill="#e8d47b"></path><path d="M34 5c3.331 0 4 .893 4 2.333C38 9.755 36.022 13 34 13c-2.206 0-4-1.794-4-4s1.794-4 4-4m0-1a5 5 0 000 10c2.761 0 5-3.905 5-6.667C39 4.572 36.761 4 34 4z" fill="#ba9b48"></path><path d="M6 13.5c-2.484 0-4.5-3.731-4.5-6.167C1.5 5.32 2.804 4.5 6 4.5c2.481 0 4.5 2.019 4.5 4.5S8.481 13.5 6 13.5z" fill="#e8d47b"></path><path d="M6 5c2.206 0 4 1.794 4 4s-1.794 4-4 4c-2.022 0-4-3.245-4-5.667C2 5.893 2.669 5 6 5m0-1c-2.761 0-5 .572-5 3.333C1 10.095 3.239 14 6 14A5 5 0 006 4z" fill="#ba9b48"></path><path d="M20 29.5c-2.652 0-5.055-1.364-6.427-3.65l-.073-.121-.126-.065C8.517 23.16 5.5 18.223 5.5 12.776V1.516h29v11.261c0 5.446-3.017 10.384-7.874 12.887l-.126.065-.073.121C25.055 28.136 22.652 29.5 20 29.5z" fill="#ffeea3"></path><path d="M34 2.015v10.761c0 5.258-2.913 10.026-7.603 12.443l-.253.13-.146.244C24.717 27.726 22.475 29 20 29s-4.717-1.274-5.998-3.407l-.146-.244-.253-.13C8.913 22.802 6 18.035 6 12.776V2.015h28m1-1H5v11.761c0 5.812 3.311 10.841 8.145 13.331C14.543 28.437 17.086 30 20 30s5.457-1.563 6.855-3.892C31.689 23.617 35 18.588 35 12.776V1.015z" fill="#ba9b48"></path><circle cx="26" cy="7" r="2" fill="#36404d"></circle><circle cx="14" cy="7" r="2" fill="#36404d"></circle><path fill="#ffeea3" d="M6 1h28v2H6z"></path><path d="M24.5 18h-9a.501.501 0 01-.5-.5c0-.275.225-.5.5-.5h9c.275 0 .5.225.5.5s-.225.5-.5.5z" fill="#ba9b48"></path><path d="M13.063 27.513c-.1 0-.201-.011-.302-.033C5.74 25.928 2.99 17.58 5.33 5.066c1.235 1.469 1.976 3.145 2.203 4.995.402 3.277 3.215 10.772 6.967 11.397V26c0 .406-.153.788-.433 1.076a1.394 1.394 0 01-1.004.437z" fill="#b27354"></path><path d="M5.622 6.289a8.824 8.824 0 011.415 3.833c.371 3.023 3.01 10.603 6.963 11.736V26c0 .549-.429 1.013-.937 1.013a.862.862 0 01-.194-.022c-6.516-1.44-9.166-9.118-7.247-20.702M5.029 4c-3.039 14.873.993 22.502 7.625 23.968.138.031.275.045.41.045 1.055 0 1.937-.9 1.937-2.013v-5c-3.495 0-6.527-7.388-6.971-11-.286-2.323-1.346-4.345-3.001-6z" fill="#704e34"></path><g><path d="M26.966 27.513c-.795 0-1.466-.692-1.466-1.513v-4.541c3.771-.622 6.594-8.12 6.996-11.398.228-1.85.967-3.525 2.203-4.995 2.34 12.513-.409 20.862-7.431 22.414a1.41 1.41 0 01-.302.033z" fill="#b27354"></path><path d="M34.407 6.289c1.919 11.584-.731 19.262-7.247 20.702a.925.925 0 01-.195.022c-.523 0-.965-.464-.965-1.013v-4.141c3.973-1.129 6.621-8.713 6.993-11.737a8.835 8.835 0 011.414-3.833M35 4c-1.655 1.655-2.715 3.677-3 6-.444 3.612-3.505 11-7 11v5c0 1.113.906 2.013 1.965 2.013.135 0 .272-.015.411-.045C34.008 26.502 38.039 18.873 35 4z" fill="#704e34"></path></g><path d="M13.063 25a.862.862 0 01-.194-.022c-4.887-1.08-7.599-5.668-7.841-12.78-.231 8.255 2.508 13.614 7.841 14.793.065.014.13.022.194.022.508 0 .937-.464.937-1.013v-2.013c0 .549-.429 1.013-.937 1.013zM26.952 25a.862.862 0 00.194-.022c4.887-1.08 7.599-5.668 7.841-12.78.231 8.255-2.508 13.614-7.841 14.793a.923.923 0 01-.194.022c-.508 0-.937-.464-.937-1.013v-2.013c0 .549.429 1.013.937 1.013z" fill="#935c41"></path></svg>