<svg viewBox="0 0 40 40" xmlns="http://www.w3.org/2000/svg"><path d="M6.047 37.5c2.17-2.729 4.038-5.506 5.85-8.198 1.99-2.958 4.047-6.017 6.49-8.984l.258-.313-.255-.317C14.279 14.575 7.834 5.249 5.948 2.5H32.5v7.872c-.067-.117-.145-.333-.235-.734C31.547 6.96 30.38 4.5 26.704 4.5H15.9c-.69 0-.9.398-.9.74v.164l.097.132c1.516 2.063 2.745 4.044 3.933 5.96 1.292 2.083 2.627 4.234 4.332 6.491-3.966 4.847-10.717 15.637-10.786 15.748l-.478.765H27c2.664 0 5.1-2.43 6.041-4.716.119-.289.285-.806.376-1.139.197-.715.595-1.003.979-1.102L32.583 37.5H6.047z" fill="#8bb7f0"></path><path d="M32 3v4.359C31.134 5.492 29.655 4 26.704 4H15.885l-.081-.001h-.002c-.1 0-.396.001-.691.167A1.207 1.207 0 0014.5 5.24v.328l.194.264c1.505 2.047 2.729 4.02 3.913 5.929 1.238 1.996 2.515 4.055 4.121 6.214-3.997 4.98-10.298 15.051-10.576 15.495L11.196 35H27c2.79 0 5.334-2.428 6.403-4.794L32.166 37H7.074c1.915-2.48 3.599-4.984 5.237-7.419 1.983-2.948 4.034-5.996 6.461-8.946l.517-.628-.51-.634C15.009 14.684 9.262 6.43 6.898 3H32m1-1H5s8.098 11.903 13 18c-4.903 5.958-8.105 12.041-13 18h28l2-10.983S34.907 27 34.759 27c-.46 0-1.451.164-1.824 1.513-.095.343-.253.829-.357 1.081C31.781 31.531 29.535 34 27 34H13s7.054-11.292 11-16c-3.4-4.43-5.242-8.328-8.5-12.76 0-.219.167-.242.304-.242l.1.002h10.799c2.995 0 4.258 1.708 5.073 4.748.2.884.403 1.252.81 1.252.24 0 .353-.078.413-.138V2H33z" fill="#4e7ab5"></path></svg>