<svg viewBox="0 0 40 40" xmlns="http://www.w3.org/2000/svg"><path d="M10 38.5s-7.5-.135-7.5-4.111c0-2.628 4-3.972 4-5.889 0-2.913-5-3.937-5-8-.077-8.892 19-19 19-19" fill="none" stroke="#4e7ab5" stroke-linecap="round" stroke-miterlimit="10"></path><path d="M13 36.247L11.753 35l-2.494 2.494a.882.882 0 001.247 1.247L13 36.247z" fill="#36404d"></path><path d="M31.657 11.098l-.633-.633a1.776 1.776 0 00-2.687.202c-1.721 2.337-3.38 5.033-4.233 5.885-1.601 1.601-4.025-.269-4.025-.269" fill="none" stroke="#8b75a1" stroke-miterlimit="10"></path><path d="M10.573 36.285c.134-.97.883-4.968 4.46-8.544l6.411-6.411 2.824 7.628-4.009 4.009c-3.848 3.847-7.635 4.395-8.533 4.472l-1.153-1.154z" fill="#dcd5f2"></path><path d="M21.246 22.234l2.442 6.597-3.782 3.782c-3.467 3.467-6.87 4.165-7.993 4.303l-.807-.807c.205-1.218 1.057-4.793 4.28-8.016l5.86-5.859m.396-1.81l-6.963 6.963c-4.277 4.277-4.63 9.081-4.63 9.081l1.483 1.483s4.48-.03 9.081-4.63l4.236-4.236-3.207-8.661z" fill="#8b75a1"></path><path d="M30.246 12.534l1.757-1.756C32.851 9.93 33.725 9.5 34.6 9.5c.616 0 1.573.222 2.63 1.278.976.976 2.273 2.953 0 5.227l-1.756 1.756-5.228-5.227z" fill="#dcd5f2"></path><path d="M34.6 10c.522 0 1.34.196 2.276 1.132 1.499 1.499 1.499 3.02 0 4.52l-1.402 1.402-4.52-4.52 1.402-1.402C33.107 10.381 33.862 10 34.6 10m-.001-1c-.875 0-1.884.358-2.95 1.425l-2.109 2.109 5.934 5.934 2.109-2.109c2.949-2.949.452-5.482 0-5.934-.29-.29-1.425-1.425-2.984-1.425z" fill="#8b75a1"></path><g><path fill="#f78f8f" d="M15.387 27.388L31.65 11.134l5.225 5.227L20.61 32.616z"></path><path d="M31.649 11.839l4.52 4.52-15.556 15.548-4.52-4.52 15.556-15.548m0-1.414l-16.97 16.962 5.934 5.934 16.97-16.962-5.934-5.934z" fill="#c74343"></path></g><circle cx="20.483" cy="15.979" r="1" fill="#8b75a1"></circle></svg>