<svg viewBox="0 0 40 40" xmlns="http://www.w3.org/2000/svg"><path d="M2.5 21.115c.324-.675 2-4.251 2-6.115V7.5a1.001 1.001 0 012 0v5.994a.5.5 0 00.985.119l.902-3.682a1.01 1.01 0 01.213-.412l3.141-3.668a.997.997 0 011.409-.11c.203.174.326.416.347.683s-.064.524-.237.728l-2.909 3.396a.504.504 0 00-.107.211l-.731 3.127a.5.5 0 00.886.415l2.88-3.818c.084-.126.165-.212.258-.281l3.366-2.503A.983.983 0 0117.5 7.5a1 1 0 01.597 1.801l-3.151 2.344a.488.488 0 00-.12.128l-1.932 2.953a.498.498 0 00.419.774H16c.354 0 .684.189.863.494l1.531 2.047a.984.984 0 01.073.711.985.985 0 01-.462.61.994.994 0 01-1.367-.356l-1.115-1.329a.502.502 0 00-.382-.177h-1.84a.5.5 0 00-.328.123l-2.301 2a.5.5 0 00-.146.535l1 3a.498.498 0 00.309.313l2.863 1a.496.496 0 00.513-.114l1.42-1.378c.245-.325.549-.48.87-.48a1.002 1.002 0 01.809 1.585l-1.834 1.95c-.228.309-.532.464-.852.464H8c-1.191.001-2.212.191-3.32 1.116L2.5 29.433v-8.318z" fill="#ffeea3"></path><path d="M12.5 6a.496.496 0 01.498.463.5.5 0 01-.119.364l-2.908 3.396a1 1 0 00-.214.423l-.731 3.127a1 1 0 001.773.829l2.88-3.818c.013-.018.026-.035.038-.054a.504.504 0 01.12-.128l3.365-2.503a.496.496 0 01.699.102.5.5 0 01-.102.7l-3.151 2.344a.988.988 0 00-.24.255l-1.932 2.953A1.001 1.001 0 0013.312 16H16c.177 0 .342.095.431.247.019.033.04.064.063.094l1.457 1.943a.502.502 0 01-.449.716.506.506 0 01-.433-.246.923.923 0 00-.1-.141l-1.065-1.259A.998.998 0 0015.14 17H13.3a1 1 0 00-.656.245l-2.301 2c-.305.265-.42.688-.293 1.071l1 3a1 1 0 00.619.628l2.863 1a1 1 0 001.027-.226l1.42-1.378c.042-.041.08-.085.114-.132a.5.5 0 01.838.545l-1.819 1.94a1.08 1.08 0 00-.081.098.509.509 0 01-.421.209H7.999c-1.538.001-2.593.358-3.639 1.232L3 28.365v-7.136C3.452 20.283 5 16.9 5 15V7.5a.5.5 0 011 0v5.994a1 1 0 001.971.238l.902-3.681a.517.517 0 01.106-.207l3.142-3.669A.493.493 0 0112.5 6m0-1c-.423 0-.843.178-1.139.525L8.22 9.193a1.506 1.506 0 00-.318.619L7 13.494V7.5a1.5 1.5 0 10-3 0V15c0 1.926-2 6-2 6v9.5L5 28c.935-.781 1.793-.999 3-1h7.625a1.5 1.5 0 001.217-.622l1.875-2a1.502 1.502 0 00-2.434-1.756L14.863 24 12 23l-1-3 2.301-2h1.84l1.065 1.259a1.5 1.5 0 002.589-1.518l-1.5-2A1.503 1.503 0 0016 15h-2.687l1.932-2.953 3.151-2.344a1.5 1.5 0 10-1.792-2.406L13.24 9.8a1.488 1.488 0 00-.36.382L10 14l.731-3.127 2.908-3.396A1.5 1.5 0 0012.5 5z" fill="#ba9b48"></path><g><path d="M27.5 33.5a1.001 1.001 0 01-.76-1.652l2.909-3.396a.504.504 0 00.107-.211l.731-3.127a.5.5 0 00-.886-.415l-2.88 3.818a1.077 1.077 0 01-.258.281l-3.366 2.503a.989.989 0 01-.597.198 1 1 0 01-.597-1.801l3.151-2.344a.488.488 0 00.12-.128l1.932-2.953a.498.498 0 00-.419-.774H24c-.354 0-.684-.189-.863-.494l-1.531-2.047a.984.984 0 01-.073-.711.985.985 0 01.462-.61.994.994 0 011.367.356l1.115 1.329a.502.502 0 00.382.177h1.84a.5.5 0 00.328-.123l2.301-2a.5.5 0 00.146-.535l-1-3a.498.498 0 00-.309-.313l-2.863-1a.496.496 0 00-.513.114l-1.42 1.378c-.245.325-.549.48-.87.48a1.002 1.002 0 01-.809-1.585l1.834-1.95c.228-.309.532-.464.852-.464H32c1.191-.001 2.212-.191 3.32-1.116l2.18-1.816v8.317c-.324.675-2 4.251-2 6.115v7.5a1.001 1.001 0 01-2 0v-5.994a.5.5 0 00-.985-.12l-.902 3.682a1 1 0 01-.212.413L28.26 33.15c-.191.222-.468.35-.76.35z" fill="#ffeea3"></path><path d="M37 10.635v7.136c-.452.946-2 4.329-2 6.229v7.5a.5.5 0 01-1 0v-5.994a1 1 0 00-1.971-.238l-.902 3.681a.517.517 0 01-.106.207l-3.142 3.669A.493.493 0 0127.5 33a.496.496 0 01-.498-.463.5.5 0 01.119-.364l2.908-3.396a1 1 0 00.214-.423l.731-3.127a1 1 0 00-1.773-.829l-2.88 3.818c-.013.018-.026.035-.038.054a.504.504 0 01-.12.128l-3.365 2.503a.496.496 0 01-.699-.102.5.5 0 01.102-.7l3.151-2.344a.988.988 0 00.24-.255l1.932-2.953A1.001 1.001 0 0026.687 23H24a.501.501 0 01-.431-.247.856.856 0 00-.063-.094l-1.457-1.943a.502.502 0 01.449-.716c.139 0 .326.065.433.246.029.05.062.097.1.141l1.065 1.259c.19.225.469.354.763.354h1.84a1 1 0 00.656-.245l2.301-2c.305-.265.42-.688.293-1.071l-1-3a.998.998 0 00-.619-.628l-2.863-1a.997.997 0 00-1.026.226l-1.42 1.378c-.042.041-.08.085-.114.132a.5.5 0 01-.838-.545l1.819-1.94a1.08 1.08 0 00.081-.098.509.509 0 01.421-.209H32.001c1.538-.001 2.593-.358 3.639-1.232L37 10.635M38 8.5L35 11c-.935.781-1.793.999-3 1h-7.625a1.5 1.5 0 00-1.217.622l-1.875 2a1.502 1.502 0 002.434 1.756L25.137 15 28 16l1 3-2.301 2h-1.84l-1.065-1.259a1.5 1.5 0 00-2.589 1.518l1.5 2c.27.459.763.741 1.295.741h2.687l-1.932 2.953-3.151 2.344a1.5 1.5 0 101.792 2.406L26.76 29.2c.141-.104.263-.234.36-.382L30 25l-.731 3.127-2.908 3.396A1.5 1.5 0 0027.5 34c.423 0 .843-.178 1.139-.525l3.141-3.668c.153-.179.262-.391.318-.619L33 25.506V31.5a1.5 1.5 0 103 0V24c0-1.926 2-6 2-6V8.5z" fill="#ba9b48"></path></g></svg>