<svg viewBox="0 0 40 40" xmlns="http://www.w3.org/2000/svg"><path d="M30.5 26.5c-1.654 0-3-1.346-3-3s1.346-3 3-3c2.49 0 3 .733 3 1.833 0 1.819-1.455 4.167-3 4.167z" fill="#e8d47b"></path><path d="M30.5 21c2.5 0 2.5.739 2.5 1.333C33 23.848 31.707 26 30.5 26c-1.379 0-2.5-1.121-2.5-2.5s1.121-2.5 2.5-2.5m0-1a3.5 3.5 0 100 7c1.933 0 3.5-2.734 3.5-4.667C34 20.4 32.433 20 30.5 20z" fill="#ba9b48"></path><path d="M9.5 26.5c-1.545 0-3-2.348-3-4.167 0-1.1.51-1.833 3-1.833 1.654 0 3 1.346 3 3s-1.346 3-3 3z" fill="#e8d47b"></path><path d="M9.5 21c1.379 0 2.5 1.121 2.5 2.5S10.879 26 9.5 26C8.293 26 7 23.848 7 22.333 7 21.739 7 21 9.5 21m0-1c-1.933 0-3.5.4-3.5 2.333C6 24.266 7.567 27 9.5 27a3.5 3.5 0 100-7z" fill="#ba9b48"></path><path d="M20 38.5a4.438 4.438 0 01-3.315-1.483l-.084-.093-.118-.042A10.515 10.515 0 019.5 27V12.381a4.748 4.748 0 014.742-4.743h11.516a4.747 4.747 0 014.742 4.743V27c0 4.424-2.806 8.395-6.982 9.882l-.118.042-.084.093c-.87.956-2.047 1.483-3.316 1.483z" fill="#ffeea3"></path><path d="M25.758 8.139A4.247 4.247 0 0130 12.381V27c0 4.213-2.672 7.995-6.65 9.412l-.236.084-.168.185a3.947 3.947 0 01-5.892-.001l-.168-.185-.236-.084A10.014 10.014 0 0110 27V12.381a4.247 4.247 0 014.242-4.242h11.516m0-1H14.242A5.242 5.242 0 009 12.381V27c0 4.78 3.055 8.837 7.314 10.354C17.229 38.358 18.534 39 20 39s2.771-.642 3.686-1.647C27.945 35.837 31 31.78 31 27V12.381a5.242 5.242 0 00-5.242-5.242z" fill="#ba9b48"></path><path d="M30.5 24.5v-6.69c0-5.667-4.288-7.265-4.332-7.28l-.322-.116-.225.261c-.033.038-3.374 3.826-9.692 3.826-4.146 0-6.429 2.102-6.429 5.918V24.5h-.164C8.772 23.099 6.5 17.173 6.5 12.874 6.5 5.754 12.855 1.5 19 1.5c4.07 0 6.221 2.04 7.141 3.256l.149.198h.249c1.806 0 6.961 1.52 6.961 8.271 0 3.381-2.291 9.773-2.847 11.274H30.5z" fill="#b0c1d4"></path><path d="M19 2c3.854 0 5.878 1.916 6.741 3.058l.3.397h.498c1.676 0 6.461 1.428 6.461 7.772 0 2.34-1.141 6.202-2 8.777V17.81c0-6.015-4.473-7.683-4.663-7.751l-.646-.227-.448.515c-.13.149-3.246 3.653-9.315 3.653C11.461 14 9 16.279 9 20.418v1.756c-.856-2.452-2-6.291-2-9.301C7 7.602 11.206 2 19 2m0-1C10.673 1 6 7.13 6 12.874 6 17.917 9 25 9 25h1v-4.582C10 16.154 12.892 15 15.928 15 22.575 15 26 11 26 11s4 1.43 4 6.81V25h1s3-7.808 3-11.774c0-6.983-5.357-8.772-7.461-8.772C26.007 3.752 23.794 1 19 1z" fill="#66798f"></path><circle cx="25.5" cy="23.5" r="1.5" fill="#36404d"></circle><circle cx="14.5" cy="23.5" r="1.5" fill="#36404d"></circle><g><path fill="#f78f8f" d="M13.858 32.466l12.6-4.359 1.025 2.966-12.6 4.358z"></path><path d="M26.177 28.681l.731 2.113-11.748 4.063-.731-2.113 11.748-4.063m.557-1.147l-.852.295-11.747 4.063-.852.295.295.852.731 2.113.295.852.852-.295 11.747-4.063.852-.295-.295-.852-.731-2.113-.295-.852z" fill="#c74343"></path></g><g><path fill="#f78f8f" d="M12.52 31.076l1.024-2.966 12.601 4.353-1.024 2.966z"></path><path d="M13.823 28.681l11.747 4.063-.731 2.113-11.747-4.063.731-2.113m-.557-1.147l-.295.852-.731 2.113-.295.852.852.295 11.747 4.063.852.295.295-.852.731-2.113.295-.852-.852-.295-11.747-4.063-.852-.295z" fill="#c74343"></path></g></svg>