<svg viewBox="0 0 40 40" xmlns="http://www.w3.org/2000/svg"><path d="M9 38.5A2.503 2.503 0 016.5 36V4c0-1.378 1.121-2.5 2.5-2.5h13.758c.658 0 1.303.267 1.768.732l8.242 8.242c.473.473.732 1.101.732 1.768V36c0 1.378-1.121 2.5-2.5 2.5H9z" fill="#8bb7f0"></path><path d="M22.757 2c.534 0 1.036.208 1.414.586l8.243 8.243c.378.377.586.879.586 1.414V36c0 1.103-.897 2-2 2H9c-1.103 0-2-.897-2-2V4c0-1.103.897-2 2-2h13.757m0-1H9a3 3 0 00-3 3v32a3 3 0 003 3h22a3 3 0 003-3V12.243c0-.796-.316-1.559-.879-2.121l-8.243-8.243A2.996 2.996 0 0022.757 1z" fill="#4e7ab5"></path><path d="M14.697 33.5a2.199 2.199 0 01-2.197-2.197v-9.606a2.2 2.2 0 012.197-2.197h10.605c1.212 0 2.197.985 2.197 2.197v9.606a2.2 2.2 0 01-2.197 2.197H14.697z" fill="#f5ce85"></path><path d="M25.303 20c.936 0 1.697.761 1.697 1.697v9.606c0 .936-.761 1.697-1.697 1.697H14.697A1.699 1.699 0 0113 31.303v-9.606c0-.936.761-1.697 1.697-1.697h10.606m0-1H14.697A2.696 2.696 0 0012 21.697v9.606A2.696 2.696 0 0014.697 34h10.606A2.696 2.696 0 0028 31.303v-9.606A2.696 2.696 0 0025.303 19z" fill="#967a44"></path><path fill="none" stroke="#967a44" stroke-miterlimit="10" d="M22.5 34V19M17.5 34v-9M22 24.5h6M12 24.5h6M22 28.5h6M12 28.5h6"></path></svg>