<svg viewBox="0 0 40 40" xmlns="http://www.w3.org/2000/svg"><path d="M4 37.5A2.503 2.503 0 011.5 35V4c0-1.379 1.122-2.5 2.5-2.5h31c1.378 0 2.5 1.121 2.5 2.5v31c0 1.379-1.122 2.5-2.5 2.5H4z" fill="#e1ebf2"></path><path d="M35 2c1.103 0 2 .897 2 2v31c0 1.103-.897 2-2 2H4c-1.103 0-2-.897-2-2V4c0-1.103.897-2 2-2h31m0-1H4a3 3 0 00-3 3v31a3 3 0 003 3h31a3 3 0 003-3V4a3 3 0 00-3-3z" fill="#788b9c"></path><path fill="#b6c9d6" d="M19 2h1v35h-1z"></path><path fill="#b6c9d6" d="M2 19h35v1H2z"></path><path d="M37 15.201C35.128 9.131 32.823 4 28.621 4c-5.375 0-7.029 6.013-9.122 13.625l-.48 1.74-.482 1.744C16.556 28.312 14.992 34 10.379 34 6.156 34 3.975 27.266 2 20.246V23.8C3.872 29.869 6.177 35 10.379 35c5.375 0 7.029-6.013 9.122-13.625l.48-1.74.482-1.744C22.444 10.688 24.008 5 28.621 5c4.223 0 6.404 6.734 8.379 13.754v-3.553z" fill="#c74343"></path></svg>