<svg viewBox="0 0 40 40" xmlns="http://www.w3.org/2000/svg"><path d="M4.5 27.5V8c0-1.378 1.122-2.5 2.5-2.5h26c1.378 0 2.5 1.122 2.5 2.5v19.5h-31z" fill="#f5ce85"></path><path d="M33 6c1.103 0 2 .897 2 2v19H5V8c0-1.103.897-2 2-2h26m0-1H7a3 3 0 00-3 3v20h32V8a3 3 0 00-3-3z" fill="#967a44"></path><path d="M10.5 11.286c.787-.429 3.736-1.786 9.5-1.786s8.713 1.357 9.5 1.786v11.495l-19 .01V11.286z" fill="#dcd5f2"></path><path d="M20 10c5.148 0 7.986 1.098 9 1.59v10.691l-18 .01v-10.7C12.02 11.095 14.857 10 20 10m0-1c-7.089 0-10 2-10 2v12.291l20-.011V11s-2.911-2-10-2z" fill="#8b75a1"></path><g><path fill="#f5ce85" d="M32.5 34.5v-3h-25v3h-4v-7h33v7z"></path><path d="M36 28v6h-3v-3H7v3H4v-6h32m1-1H3v8h5v-3h24v3h5v-8z" fill="#967a44"></path></g><g><path d="M3.5 27.5V24c0-4.687 3.813-8.5 8.5-8.5h16c4.687 0 8.5 3.813 8.5 8.5v3.5h-33z" fill="#dcd5f2"></path><path d="M28 16c4.411 0 8 3.589 8 8v3H4v-3c0-4.411 3.589-8 8-8h16m0-1H12a9 9 0 00-9 9v4h34v-4a9 9 0 00-9-9z" fill="#8b75a1"></path></g></svg>