<svg viewBox="0 0 40 40" xmlns="http://www.w3.org/2000/svg"><path fill="#ffc49c" d="M2.5 2.5h35v23h-35z"></path><path d="M37 3v22H3V3h34m1-1H2v24h36V2z" fill="#a16a4a"></path><path d="M1.5 28.5V27c0-.827.673-1.5 1.5-1.5h34c.827 0 1.5.673 1.5 1.5v1.5h-37z" fill="#ffc49c"></path><path d="M37 26c.551 0 1 .449 1 1v1H2v-1c0-.551.449-1 1-1h34m0-1H3a2 2 0 00-2 2v2h38v-2a2 2 0 00-2-2z" fill="#a16a4a"></path><path fill="#5e9c76" d="M5 5h30v20H5z"></path><circle cx="7" cy="15" r="5.5" fill="#ffeea3"></circle><path d="M7 10c2.757 0 5 2.243 5 5s-2.243 5-5 5-5-2.243-5-5 2.243-5 5-5m0-1a6 6 0 100 12A6 6 0 007 9z" fill="#ba9b48"></path><circle cx="31" cy="17" r="2" fill="#fff"></circle><circle cx="25" cy="18" r="2" fill="#fff"></circle><path fill="#fff" d="M26 11.5h1V18l-1-.682zM32 10.5h1V17l-1-.682z"></path><path fill="#fff" d="M33 11l-7 1V9l7-1z"></path><path d="M7 19.5c-.813 0-1.5-.458-1.5-1s.687-1 1.5-1 1.5.458 1.5 1-.687 1-1.5 1z" fill="#f78f8f"></path><path d="M7 18c.62 0 1 .324 1 .5s-.38.5-1 .5-1-.324-1-.5.38-.5 1-.5m0-1c-1.105 0-2 .672-2 1.5S5.895 20 7 20s2-.672 2-1.5S8.105 17 7 17z" fill="#c74343"></path><g><path d="M15.5 26.5c-1.103 0-2-.897-2-2s.897-2 2-2h6c1.103 0 2 .897 2 2s-.897 2-2 2h-6z" fill="#ffeea3"></path><path d="M21.5 23c.827 0 1.5.673 1.5 1.5s-.673 1.5-1.5 1.5h-6c-.827 0-1.5-.673-1.5-1.5s.673-1.5 1.5-1.5h6m0-1h-6c-1.375 0-2.5 1.125-2.5 2.5s1.125 2.5 2.5 2.5h6c1.375 0 2.5-1.125 2.5-2.5S22.875 22 21.5 22z" fill="#ba9b48"></path></g><g><path d="M1.5 38.5V27c0-2.481 2.019-4.5 4.5-4.5h14.5v4h-8v12h-11z" fill="#735f63"></path><path d="M20 23v3h-8v12H2V27c0-2.206 1.794-4 4-4h14m1-1H6a5 5 0 00-5 5v12h12V27h8v-5z" fill="#4d3e40"></path></g><path d="M7 27l2-5H6c-.331 0-.654.036-.968.098L7 27z" fill="#fff"></path></svg>