<svg viewBox="0 0 40 40" xmlns="http://www.w3.org/2000/svg"><path d="M4.087 34.5L8.949 4.441A3.488 3.488 0 0112.405 1.5h15.189a3.487 3.487 0 013.456 2.941L35.913 34.5H4.087z" fill="#f78f8f"></path><path d="M27.595 2c1.48 0 2.725 1.06 2.961 2.521L35.325 34H4.675L9.443 4.521A2.989 2.989 0 0112.405 2h15.19m0-1h-15.19a4 4 0 00-3.949 3.361L3.5 35h33L31.544 4.361A4 4 0 0027.595 1z" fill="#c74343"></path><path d="M2.5 38.5a.999.999 0 01-.982-1.187l.381-2c.09-.471.503-.813.982-.813h34.236a1 1 0 01.982.813l.381 2a1 1 0 01-.982 1.187H2.5z" fill="#b6c9d6"></path><path d="M37.118 35a.5.5 0 01.491.406l.381 2a.493.493 0 01-.106.412.489.489 0 01-.384.182h-35a.494.494 0 01-.385-.181.494.494 0 01-.106-.412l.381-2A.501.501 0 012.882 35h34.236m0-1H2.882a1.5 1.5 0 00-1.473 1.219l-.381 2A1.499 1.499 0 002.5 39h35a1.5 1.5 0 001.474-1.781l-.381-2A1.503 1.503 0 0037.118 34z" fill="#788b9c"></path><path d="M9.5 28.5l3-21" fill="none" stroke="#f7fcff" stroke-linecap="round" stroke-miterlimit="10"></path><path d="M30.557 4.521A2.989 2.989 0 0027.595 2H20v12a6 6 0 110 12v8h15.325L30.557 4.521z" fill="#f7a8a8"></path><g><circle cx="20" cy="20" r="3.5" fill="#f78f8f"></circle><path d="M20 17c1.654 0 3 1.346 3 3s-1.346 3-3 3-3-1.346-3-3 1.346-3 3-3m0-1a4 4 0 100 8 4 4 0 000-8z" fill="#c74343"></path></g></svg>