<svg viewBox="0 0 40 40" xmlns="http://www.w3.org/2000/svg"><path d="M7 37.5c-.225 0-5.494-.051-5.494-4.5.012-1.332 1.092-2.279 2.46-3.479.411-.36.836-.734 1.252-1.137.34-.33.658-.639.975-.956L25.54 9.4c1.143-1.144 2.074-2.365 2.975-3.545.336-.44.648-.882.951-1.311C30.618 2.91 31.614 1.5 33.006 1.5c2.986 0 4.5 2.187 4.5 6.5v.172c.006 1.366.014 3.238-3.449 6.708L12.299 35.072C10.8 36.575 8.776 37.5 7.006 37.5H7z" fill="#839cb2"></path><path d="M33.006 2c2.692 0 4 1.963 4 6l.001.174c.005 1.278.013 3.029-3.275 6.325l-21.8 20.233C10.536 36.131 8.648 37 7 37c-.511 0-4.994-.112-4.994-3.991.009-1.058.876-1.872 2.289-3.111.415-.364.844-.74 1.272-1.155.323-.313.651-.633.954-.936L25.906 9.741c1.155-1.156 2.097-2.391 3.01-3.588.335-.44.651-.886.957-1.319C31.113 3.077 31.928 2 33.006 2m0-1c-2.054 0-3.216 2.357-4.885 4.546-.891 1.168-1.814 2.378-2.922 3.488L5.839 27.075c-.324.324-.65.64-.969.95C3.048 29.791 1.023 30.988 1.006 33c0 4.955 5.783 5 5.994 5h.006c2.1 0 4.215-1.14 5.634-2.561l21.772-20.207c3.756-3.763 3.595-5.799 3.595-7.232-.001-1.433-.001-7-5.001-7z" fill="#66798f"></path><path d="M39.006 8.165V8c0-2.916-1.347-4.841-2.908-5.923 1.897 1.69 1.908 4.886 1.908 5.923 0 1.433.161 3.469-3.595 7.232L12.64 35.439C11.221 36.86 9.106 38 7.006 38H7c-.211 0-5.994-.045-5.994-5 0 4.755 3.575 6 5.994 6 2.193 0 4.563-1.067 6.348-2.855l21.744-20.18c3.931-3.938 3.921-6.262 3.914-7.8z" fill="#f5c276"></path><circle cx="28.506" cy="10.5" r=".5" fill="#e1ebf2"></circle><circle cx="31.506" cy="13.5" r=".5" fill="#e1ebf2"></circle><circle cx="25.506" cy="13.5" r=".5" fill="#e1ebf2"></circle><circle cx="28.506" cy="16.5" r=".5" fill="#e1ebf2"></circle><circle cx="11.506" cy="25.5" r=".5" fill="#e1ebf2"></circle><circle cx="14.506" cy="28.5" r=".5" fill="#e1ebf2"></circle><circle cx="8.506" cy="28.5" r=".5" fill="#e1ebf2"></circle><circle cx="11.506" cy="31.5" r=".5" fill="#e1ebf2"></circle></svg>