<svg viewBox="0 0 40 40" xmlns="http://www.w3.org/2000/svg"><path d="M1 23h3c1.563 0 2.945-1.945 4-3L20 8c1.055-1.055 3-2.656 3-4V1" fill="none" stroke="#66798f" stroke-width="2" stroke-miterlimit="10"></path><path d="M3.996 38.5c7.048-2.666 24.687-10.938 30.366-28H38.5v28H3.996z" fill="#ffc49c"></path><path d="M38 11v27H6.65a66.381 66.381 0 008.879-4.607C22.23 29.237 30.929 22.005 34.721 11H38m1-1h-5C27.107 31.469 1.232 38.979 1 39h38V10z" fill="#b08159"></path><path d="M33.614 12.5c.29-.711.534-1.363.748-2H38.5v2h-4.886z" fill="#839cb2"></path><path d="M38 11v1h-3.649c.132-.342.255-.675.368-1H38m1-1h-5a34.105 34.105 0 01-1.137 3H39v-3z" fill="#66798f"></path><g><circle cx="22" cy="10" r="1.5" fill="#ab3434"></circle><path d="M22 9c.551 0 1 .449 1 1s-.449 1-1 1-1-.449-1-1 .449-1 1-1m0-1a2 2 0 10-.001 3.999A2 2 0 0022 8z" fill="#c74343"></path></g><g><circle cx="10" cy="22" r="1.5" fill="#ab3434"></circle><path d="M10 21c.551 0 1 .449 1 1s-.449 1-1 1-1-.449-1-1 .449-1 1-1m0-1a2 2 0 10-.001 3.999A2 2 0 0010 20z" fill="#c74343"></path></g></svg>