<svg viewBox="0 0 40 40" xmlns="http://www.w3.org/2000/svg"><path d="M23 32.5c-.827 0-1.5-.673-1.5-1.5v-6.445l-5.639-6.578a1.502 1.502 0 011.138-2.477c.438 0 .854.191 1.14.524l6 7A1.5 1.5 0 0124.5 24v7c0 .827-.673 1.5-1.5 1.5z" fill="#ffeea3"></path><path d="M16.999 16c.293 0 .57.127.76.35l6 6.999c.155.181.241.413.241.651v7c0 .551-.449 1-1 1s-1-.449-1-1v-6.63l-.241-.281-5.518-6.438A1.001 1.001 0 0116.999 16m0-1a2 2 0 00-1.518 3.302L21 24.74V31a2 2 0 004 0v-7c0-.478-.171-.939-.481-1.302l-6-7a1.993 1.993 0 00-1.52-.698z" fill="#ba9b48"></path><path d="M6 24.5c-.827 0-1.5-.673-1.5-1.5s.673-1.5 1.5-1.5h6.259l4.521-6.373a1.499 1.499 0 012.091-.347c.674.481.83 1.419.35 2.093l-4.971 7.001a1.505 1.505 0 01-1.221.627H6z" fill="#ffeea3"></path><path d="M18.002 14.999a1.002 1.002 0 01.812 1.584l-4.969 6.997c-.189.263-.493.42-.816.42H6c-.551 0-1-.449-1-1s.449-1 1-1h6.517l.299-.421 4.37-6.16c.187-.263.492-.42.816-.42m-.001-1c-.624 0-1.239.292-1.629.838L12 21H6a2 2 0 000 4h7.029c.646 0 1.252-.312 1.628-.837l4.971-7a2 2 0 00-.466-2.79 1.981 1.981 0 00-1.161-.374z" fill="#ba9b48"></path><path d="M28 18.5c-.827 0-1.5-.673-1.5-1.5v-7c0-.827.673-1.5 1.5-1.5s1.5.673 1.5 1.5v5.5H34c.827 0 1.5.673 1.5 1.5s-.673 1.5-1.5 1.5h-6z" fill="#ffeea3"></path><path d="M28 9c.551 0 1 .449 1 1v6h5c.551 0 1 .449 1 1s-.449 1-1 1h-6c-.551 0-1-.449-1-1v-7c0-.551.449-1 1-1m0-1a2 2 0 00-2 2v7a2 2 0 002 2h6a2 2 0 000-4h-4v-5a2 2 0 00-2-2z" fill="#ba9b48"></path><path d="M12 21l3.045-5.665a2.036 2.036 0 012.861-.318c.877.702 2.823 2.747 2.12 3.625l-5.459 5.665L12 21z" fill="#5e9c76"></path><circle cx="27" cy="37" r="1.5" fill="#ab3434"></circle><path d="M27 36c.551 0 1 .449 1 1s-.449 1-1 1-1-.449-1-1 .449-1 1-1m0-1a2 2 0 10-.001 3.999A2 2 0 0027 35z" fill="#c74343"></path><circle cx="14" cy="37" r="1.5" fill="#ab3434"></circle><path d="M14 36c.551 0 1 .449 1 1s-.449 1-1 1-1-.449-1-1 .449-1 1-1m0-1a2 2 0 10-.001 3.999A2 2 0 0014 35z" fill="#c74343"></path><path d="M8.491 32.451S11.22 34 14 34h13s3.122.305 5.903-1.549" fill="none" stroke="#66798f" stroke-width="2" stroke-miterlimit="10"></path><g><circle cx="31.5" cy="4.5" r="3" fill="#ffeea3"></circle><path d="M31.5 2C32.879 2 34 3.122 34 4.5S32.879 7 31.5 7C30.122 7 29 5.878 29 4.5S30.122 2 31.5 2m0-1a3.5 3.5 0 100 7 3.5 3.5 0 000-7z" fill="#ba9b48"></path></g><g><path d="M18.408 19.5a2.728 2.728 0 01-1.94-.804c-.494-.494-.778-1.224-.778-2.002.001-.815.304-1.584.831-2.111l7.357-7.177c.566-.565 1.44-.901 2.343-.901.878 0 1.673.316 2.239.889.487.488 1.941 2.205.251 3.913l-8.048 7.323c-.572.571-1.584.87-2.255.87z" fill="#f78f8f"></path><path d="M26.221 7.006c.743 0 1.412.263 1.888.745.514.514 1.566 1.851.264 3.188l-8.079 7.354c-.391.39-1.237.707-1.886.707a2.23 2.23 0 01-1.587-.658c-.401-.4-.631-1.001-.631-1.648 0-.683.249-1.324.675-1.75l7.371-7.189c.463-.462 1.223-.749 1.985-.749m0-1c-1.023 0-2.031.381-2.692 1.043l-7.362 7.181c-1.267 1.265-1.319 3.556-.052 4.821.634.633 1.463.95 2.294.95s1.958-.367 2.592-1l8.067-7.341c1.507-1.524 1.017-3.349-.251-4.616-.71-.719-1.659-1.038-2.596-1.038z" fill="#c74343"></path></g><g><path d="M20.969 24.015c-1.067-1.05-4.372-4.303-5.055-4.985-.519-.518-.804-1.207-.804-1.94s.286-1.422.805-1.94l1.063-1.004 6.332 7.798-2.341 2.071z" fill="#99c99e"></path><path d="M16.93 14.878l5.69 7.008-1.633 1.445a2068.62 2068.62 0 01-4.719-4.655 2.227 2.227 0 01-.657-1.587c0-.6.234-1.163.638-1.567l.681-.644m.096-1.467l-1.465 1.385a3.243 3.243 0 00-.001 4.588c.817.817 5.389 5.315 5.389 5.315L24 22l-6.974-8.589z" fill="#5e9c76"></path></g><g><path d="M12 13.5a1.499 1.499 0 01-.832-2.748l6-4c.247-.165.534-.252.832-.252h7c.827 0 1.5.673 1.5 1.5s-.673 1.5-1.5 1.5h-6.546l-5.622 3.748a1.49 1.49 0 01-.83.252H12z" fill="#ffeea3"></path><path d="M25 7c.551 0 1 .449 1 1s-.449 1-1 1H18.302l-.252.168-5.497 3.664a.999.999 0 11-1.108-1.664l6.001-4.001A.999.999 0 0118 7h7m0-1h-7c-.395 0-.781.117-1.109.336l-6 4A2 2 0 0012 14h.001c.381 0 .767-.108 1.107-.336L18.605 10H25a2 2 0 000-4z" fill="#ba9b48"></path></g></svg>