<svg viewBox="0 0 40 40" xmlns="http://www.w3.org/2000/svg"><path d="M33.109 20.5c-.219 0-.386-.056-.497-.167-.48-.479-2.11-2.151-2.864-2.926l3.522-2.741c.626.629 2.017 2.026 2.501 2.509.111.11.167.277.167.496 0 .565-.367 1.283-.957 1.873-.589.59-1.306.956-1.872.956z" fill="#f78f8f"></path><path d="M33.228 15.333l2.187 2.194c.083.129.004.874-.787 1.664-.559.559-1.166.809-1.519.809a.369.369 0 01-.144-.021 413.777 413.777 0 01-2.469-2.521l2.732-2.125M33.312 14L29 17.355s2.626 2.7 3.258 3.331c.213.213.51.314.851.314.673 0 1.518-.394 2.227-1.102 1.068-1.067 1.421-2.445.789-3.076-.633-.631-2.813-2.822-2.813-2.822z" fill="#c74343"></path><path d="M35.37 17.581s.198 1.037-.558 1.794c-.712.712-1.761.558-1.761.558s-.117-.967.617-1.701c.812-.813 1.702-.651 1.702-.651z" fill="#ab3434"></path><path d="M15.671 36.5c-.219 0-.386-.056-.497-.167-.479-.479-2.109-2.15-2.864-2.925l3.522-2.741c.626.629 2.017 2.026 2.501 2.509.173.172.214.5.112.896-.125.488-.454 1.025-.901 1.472-.59.59-1.308.956-1.873.956z" fill="#f78f8f"></path><path d="M15.79 31.333l2.187 2.194c.083.129.004.874-.787 1.664-.559.559-1.166.809-1.519.809a.369.369 0 01-.144-.021 413.777 413.777 0 01-2.469-2.521l2.732-2.125M15.874 30l-4.312 3.355s2.626 2.7 3.258 3.331c.213.213.51.314.851.314.673 0 1.518-.394 2.227-1.102 1.068-1.067 1.421-2.445.789-3.076-.633-.631-2.813-2.822-2.813-2.822z" fill="#c74343"></path><path d="M17.932 33.581s.198 1.037-.558 1.794c-.712.712-1.761.558-1.761.558s-.117-.967.617-1.701c.812-.813 1.702-.651 1.702-.651z" fill="#ab3434"></path><path d="M6.994 37.5C6.77 37.5 1.5 37.449 1.5 33c.012-1.332 1.092-2.279 2.46-3.479.411-.36.836-.734 1.252-1.137.34-.33.658-.639.975-.956L25.534 9.4c1.143-1.144 2.074-2.365 2.975-3.545.336-.44.648-.882.951-1.311C30.612 2.91 31.608 1.5 33 1.5c2.986 0 4.5 2.187 4.5 6.5v.172c.006 1.366.014 3.238-3.449 6.708L12.293 35.072C10.794 36.575 8.771 37.5 7 37.5h-.006z" fill="#839cb2"></path><path d="M33 2c2.692 0 4 1.963 4 6v.174c.005 1.278.013 3.029-3.275 6.325L11.926 34.732C10.53 36.131 8.642 37 6.994 37 6.483 37 2 36.888 2 33.009c.009-1.058.876-1.872 2.289-3.111.415-.364.844-.74 1.272-1.155.323-.313.651-.633.954-.936L25.9 9.741c1.155-1.156 2.097-2.391 3.01-3.588.335-.44.651-.886.957-1.319C31.107 3.076 31.922 2 33 2m0-1c-2.054 0-3.216 2.357-4.885 4.546-.891 1.168-1.814 2.378-2.922 3.488L5.833 27.075c-.324.324-.65.64-.969.95C3.042 29.791 1.017 30.988 1 33c0 4.955 5.783 5 5.994 5H7c2.1 0 4.215-1.14 5.634-2.561l21.772-20.207C38.161 11.469 38 9.433 38 8c0-1.433 0-7-5-7z" fill="#66798f"></path><path d="M39 8.165V8c0-2.916-1.347-4.841-2.908-5.923C37.99 3.767 38 6.963 38 8c0 1.433.161 3.469-3.595 7.232L12.634 35.439C11.215 36.86 9.1 38 7 38h-.006C6.783 38 1 37.955 1 33c0 4.755 3.575 6 5.994 6 2.193 0 4.563-1.067 6.348-2.855l21.744-20.18c3.931-3.938 3.921-6.262 3.914-7.8z" fill="#f5c276"></path><circle cx="28.5" cy="10.5" r=".5" fill="#e1ebf2"></circle><circle cx="31.5" cy="13.5" r=".5" fill="#e1ebf2"></circle><circle cx="25.5" cy="13.5" r=".5" fill="#e1ebf2"></circle><circle cx="28.5" cy="16.5" r=".5" fill="#e1ebf2"></circle><circle cx="11.5" cy="25.5" r=".5" fill="#e1ebf2"></circle><circle cx="14.5" cy="28.5" r=".5" fill="#e1ebf2"></circle><circle cx="8.5" cy="28.5" r=".5" fill="#e1ebf2"></circle><circle cx="11.5" cy="31.5" r=".5" fill="#e1ebf2"></circle></svg>