<svg viewBox="0 0 40 40" xmlns="http://www.w3.org/2000/svg"><path d="M9.518 38.499a7.994 7.994 0 01-5.687-2.356 7.99 7.99 0 01-2.356-5.688c0-2.147.837-4.167 2.356-5.687L24.746 3.854c1.519-1.519 3.538-2.356 5.687-2.356s4.167.837 5.687 2.356c3.136 3.136 3.136 8.237 0 11.373L15.205 36.143a7.99 7.99 0 01-5.687 2.356z" fill="#839cb2"></path><path d="M30.432 1.999c2.015 0 3.909.785 5.334 2.21 2.941 2.941 2.941 7.725 0 10.666L14.851 35.789a7.489 7.489 0 01-5.333 2.209 7.493 7.493 0 01-5.333-2.21 7.49 7.49 0 01-2.209-5.334c0-2.013.785-3.907 2.21-5.333L25.099 4.208a7.489 7.489 0 015.333-2.209m0-1a8.477 8.477 0 00-6.04 2.503L3.478 24.415a8.489 8.489 0 00-2.503 6.04c0 2.282.888 4.428 2.503 6.041a8.485 8.485 0 006.04 2.503 8.48 8.48 0 006.04-2.503l20.915-20.915c3.331-3.331 3.331-8.749 0-12.08A8.487 8.487 0 0030.432.999z" fill="#66798f"></path><path d="M6.848 37.859L37.94 6.767a6.215 6.215 0 00-.343-1.071l-31.82 31.82c.345.147.703.26 1.071.343zM33.248 2.045L2.123 33.17c.086.366.201.721.35 1.064L34.312 2.395a6.368 6.368 0 00-1.064-.35zM35.902 3.391l-32.43 32.43c.104.121.208.241.322.355.124.124.254.238.386.35L36.608 4.099a6.695 6.695 0 00-.35-.386c-.115-.114-.236-.218-.356-.322zM29.988 1.403l-28.72 28.72c.086.366.201.721.35 1.064L31.052 1.753a6.309 6.309 0 00-1.064-.35zM38.569 9.984l-28.72 28.72a6.251 6.251 0 01-1.064-.35L38.219 8.92c.149.345.265.701.35 1.064z" fill="#66798f"></path><path fill="#839cb2" stroke="#66798f" stroke-miterlimit="10" d="M14 14l12 12M16 12l12 12M18 10l12 12M20 8l12 12M22.256 6.256L34 18M12 16l12 12M10 18l12 12M8 20l12 12M24 4l12 12M6 22l12 12M4 24l12 12M2.431 26.431l11.057 11.057M1.419 29.419l9.054 9.054M26.409 2.452l11.165 11.164M29.419 1.419l8.974 8.974"></path></svg>