<svg viewBox="0 0 40 40" xmlns="http://www.w3.org/2000/svg"><path d="M16.032 38.5C8.033 38.5 1.526 30.201 1.526 20S8.033 1.5 16.032 1.5h7.838c-2.681 2.178-8.728 8.23-8.728 18.5s6.047 16.322 8.728 18.5h-7.838z" fill="#f78f8f"></path><path d="M22.488 2c-3.024 2.746-7.846 8.599-7.846 18s4.822 15.254 7.846 18h-6.456C8.309 38 2.026 29.925 2.026 20S8.309 2 16.032 2h6.456m2.897-1h-9.354C7.757 1 1.026 9.523 1.026 20s6.731 19 15.005 19h9.354s-9.744-6-9.744-19 9.744-19 9.744-19z" fill="#c74343"></path><path d="M25.431 1C17.948 1 12 9.523 12 20s5.948 19 13.431 19S39 30.477 39 20 32.913 1 25.431 1zm.069 27c-3.267 0-5.5-3.666-5.5-8s2.233-8 5.5-8 5.5 3.666 5.5 8-2.233 8-5.5 8z" fill="#f7a3a3"></path><path d="M25.5 27.5c-1.382 0-2.637-.767-3.56-2.167C22.948 23.82 23.5 21.94 23.5 20s-.552-3.82-1.56-5.333c.923-1.4 2.178-2.167 3.56-2.167 2.851 0 5 3.224 5 7.5s-2.149 7.5-5 7.5z" fill="#c74343"></path><path d="M25.5 13c2.523 0 4.5 3.075 4.5 7s-1.977 7-4.5 7c-1.405 0-2.38-.902-2.958-1.681C23.486 23.779 24 21.916 24 20s-.514-3.779-1.458-5.319C23.12 13.902 24.095 13 25.5 13m0-1c-1.743 0-3.187 1.05-4.159 2.682C22.368 16.096 23 17.954 23 20s-.632 3.904-1.659 5.318C22.313 26.95 23.757 28 25.5 28c3.267 0 5.5-3.666 5.5-8s-2.233-8-5.5-8z" fill="#ab3434"></path><path d="M25.431 2C32.361 2 38 10.075 38 20s-5.639 18-12.569 18C18.576 38 13 29.925 13 20S18.576 2 25.431 2m0-1C17.948 1 12 9.523 12 20s5.948 19 13.431 19S39 30.477 39 20 32.913 1 25.431 1z" fill="#c74343"></path></svg>