<svg viewBox="0 0 40 40" xmlns="http://www.w3.org/2000/svg"><path d="M5.5 38.5V16C5.5 8.005 12.005 1.5 20 1.5S34.5 8.005 34.5 16v22.5h-29z" fill="#f78f8f"></path><path d="M20 2c7.72 0 14 6.28 14 14v22H6V16C6 8.28 12.28 2 20 2m0-1C11.716 1 5 7.716 5 16v23h30V16c0-8.284-6.716-15-15-15z" fill="#c74343"></path><path d="M20 10c4.963 0 9 4.037 9 9s-4.037 9-9 9-9-4.037-9-9 4.037-9 9-9m0-1c-5.523 0-10 4.477-10 10s4.477 10 10 10 10-4.477 10-10S25.523 9 20 9z" fill="#c74343"></path><circle cx="20" cy="5" r="2.5" fill="#36404d"></circle><path d="M20 3c1.103 0 2 .897 2 2s-.897 2-2 2-2-.897-2-2 .897-2 2-2m0-1a3 3 0 100 6 3 3 0 000-6z" fill="#f7a8a8"></path><circle cx="20" cy="13" r="2.5" fill="#36404d"></circle><path d="M20 11c1.103 0 2 .897 2 2s-.897 2-2 2-2-.897-2-2 .897-2 2-2m0-1a3 3 0 100 6 3 3 0 000-6z" fill="#f7a8a8"></path><circle cx="20" cy="25" r="2.5" fill="#36404d"></circle><path d="M20 23c1.103 0 2 .897 2 2s-.897 2-2 2-2-.897-2-2 .897-2 2-2m0-1a3 3 0 100 6 3 3 0 000-6z" fill="#f7a8a8"></path><g><circle cx="20" cy="35" r="2.5" fill="#36404d"></circle><path d="M20 33c1.103 0 2 .897 2 2s-.897 2-2 2-2-.897-2-2 .897-2 2-2m0-1a3 3 0 100 6 3 3 0 000-6z" fill="#f7a8a8"></path></g><g><circle cx="31" cy="35" r="2.5" fill="#36404d"></circle><path d="M31 33c1.103 0 2 .897 2 2s-.897 2-2 2-2-.897-2-2 .897-2 2-2m0-1a3 3 0 100 6 3 3 0 000-6z" fill="#f7a8a8"></path></g><g><circle cx="9" cy="35" r="2.5" fill="#36404d"></circle><path d="M9 33c1.103 0 2 .897 2 2s-.897 2-2 2-2-.897-2-2 .897-2 2-2m0-1a3 3 0 100 6 3 3 0 000-6z" fill="#f7a8a8"></path></g><g><circle cx="20" cy="19" r="2.5" fill="#36404d"></circle><path d="M20 17c1.103 0 2 .897 2 2s-.897 2-2 2-2-.897-2-2 .897-2 2-2m0-1a3 3 0 100 6 3 3 0 000-6z" fill="#f7a8a8"></path></g></svg>