<svg viewBox="0 0 40 40" xmlns="http://www.w3.org/2000/svg"><path d="M20.5 34.929a.5.5 0 01-.5-.5V1.5a.5.5 0 011 0v32.929a.5.5 0 01-.5.5z" fill="#788b9c"></path><path d="M31 4.5a.5.5 0 01-.5.5h-20a.5.5 0 010-1h20a.5.5 0 01.5.5zM31 16.5a.5.5 0 01-.5.5h-20a.5.5 0 010-1h20a.5.5 0 01.5.5zM33 12.5a.5.5 0 01-.5.5h-24a.5.5 0 010-1h24a.5.5 0 01.5.5zM34 8.5a.5.5 0 01-.5.5h-26a.5.5 0 010-1h26a.5.5 0 01.5.5zM28 20.5a.5.5 0 01-.5.5h-14a.5.5 0 010-1h14a.5.5 0 01.5.5z" fill="#788b9c"></path><path d="M20.5 38.5c-3.416 0-12-2.894-12-9.728 0-2.355 2.084-4.272 4.647-4.272 2.007 0 3.231.856 4.311 1.611.731.512 1.422.995 2.236 1.111l1.542.005c.885-.121 1.576-.604 2.307-1.116 1.08-.755 2.304-1.611 4.311-1.611 2.563 0 4.647 1.917 4.647 4.272C32.5 35.606 23.916 38.5 20.5 38.5zm7-11c-1.103 0-2 .897-2 2s.897 2 2 2 2-.897 2-2-.897-2-2-2zm-14 0c-1.103 0-2 .897-2 2s.897 2 2 2 2-.897 2-2-.897-2-2-2z" fill="#e1ebf2"></path><path d="M27.853 25C30.14 25 32 26.692 32 28.773 32 35.163 23.667 38 20.5 38S9 35.163 9 28.773C9 26.692 10.86 25 13.147 25c1.849 0 2.955.773 4.023 1.521.782.547 1.521 1.064 2.453 1.197l.07.01h1.613l.07-.01c.932-.133 1.671-.65 2.453-1.197C24.898 25.773 26.004 25 27.853 25m-.353 7c1.379 0 2.5-1.121 2.5-2.5S28.879 27 27.5 27 25 28.121 25 29.5s1.121 2.5 2.5 2.5m-14 0c1.378 0 2.5-1.121 2.5-2.5S14.878 27 13.5 27 11 28.121 11 29.5s1.122 2.5 2.5 2.5m14.353-8c-3.539 0-4.825 2.472-6.618 2.727h-1.471C17.972 26.472 16.686 24 13.147 24 10.304 24 8 26.137 8 28.773 8 35.889 16.869 39 20.5 39S33 35.889 33 28.773C33 26.137 30.696 24 27.853 24zm-.353 7a1.5 1.5 0 11.001-3.001A1.5 1.5 0 0127.5 31zm-14 0a1.5 1.5 0 11.001-3.001A1.5 1.5 0 0113.5 31z" fill="#788b9c"></path></svg>