<svg viewBox="0 0 40 40" xmlns="http://www.w3.org/2000/svg"><path d="M20.026 38.5c-6.747 0-10.781-1.196-12.216-1.715l.352-.444c1.039-1.312 1.255-3.063 1.327-4.265.066-1.102-.194-2.147-.491-3.21a16.871 16.871 0 00-.257-.785C8.07 26.113 6.5 21.504 6.5 16c0-7.995 6.068-14.5 13.526-14.5C27.456 1.5 33.5 8.005 33.5 16c0 5.945-1.773 10.859-2.356 12.474l-.13.363c-.398 1.152-.563 2.211-.501 3.239.108 1.813.572 3.247 1.379 4.265.14.176.25.318.337.432-1.39.512-5.402 1.727-12.203 1.727z" fill="#839cb2"></path><path d="M20.026 2C27.18 2 33 8.28 33 16c0 5.86-1.752 10.712-2.328 12.307l-.131.366c-.421 1.216-.593 2.338-.528 3.433.111 1.845.578 3.331 1.391 4.422-1.756.56-5.511 1.472-11.378 1.472-5.829 0-9.6-.9-11.385-1.462 1.052-1.408 1.273-3.196 1.348-4.432.071-1.178-.201-2.269-.509-3.374a18.683 18.683 0 00-.266-.816C8.551 25.971 7 21.417 7 16 7 8.28 12.844 2 20.026 2m0-1C12.065 1 6 7.932 6 16c0 6.556 2.208 11.895 2.516 13 .286 1.026.536 2.02.474 3.046-.082 1.367-.34 2.872-1.221 3.985C7.017 36.981 7 37 7 37s4.205 2 13.026 2C28.848 39 33 37 33 37s.036-.019-.717-.97c-.88-1.113-1.19-2.618-1.272-3.985-.061-1.025.127-2.038.475-3.045C31.889 27.836 34 22.556 34 16c0-8.068-6.012-15-13.974-15z" fill="#66798f"></path><path d="M20 36c-6.753 0-10-5-10-5-.082 1.367-.083 1.9-2.23 5.03C7.084 37.031 7 37 7 37s4.205 2 13.026 2S33 37 33 37s.043-.025-.717-.97C30.279 33.539 30.082 32.367 30 31c0 0-3.27 5-10 5z" fill="#66798f"></path><path d="M12.667 20.5c-1.195 0-2.167-.897-2.167-2s.972-2 2.167-2c3.173 0 4.833 1.006 4.833 2s-1.66 2-4.833 2z" fill="#4e5e6d"></path><path d="M12.667 17c2.956 0 4.333.895 4.333 1.5 0 .523-1.271 1.5-4.333 1.5-.919 0-1.667-.673-1.667-1.5s.748-1.5 1.667-1.5m0-1C11.194 16 10 17.119 10 18.5s1.194 2.5 2.667 2.5C16.074 21 18 19.854 18 18.5S16.148 16 12.667 16z" fill="#36404d"></path><g><path d="M27.333 20.5c-3.297 0-4.833-1.193-4.833-2 0-.831 1.499-2 4.833-2 1.195 0 2.167.897 2.167 2s-.972 2-2.167 2z" fill="#4e5e6d"></path><path d="M27.333 17c.919 0 1.667.673 1.667 1.5s-.748 1.5-1.667 1.5C24.289 20 23 18.927 23 18.5c0-.507 1.309-1.5 4.333-1.5m0-1C23.852 16 22 17.25 22 18.5s1.926 2.5 5.333 2.5C28.806 21 30 19.881 30 18.5S28.806 16 27.333 16z" fill="#36404d"></path></g><g><path d="M20 28.5c-2.984 0-4.5-.232-4.5-1.5s1.516-1.5 4.5-1.5c2.919 0 4.5.239 4.5 1.5s-1.581 1.5-4.5 1.5z" fill="#4e5e6d"></path><path d="M20 26c2.916 0 4 .271 4 1s-1.084 1-4 1c-2.953 0-4-.262-4-1s1.047-1 4-1m0-1c-2.761 0-5 .142-5 2s2.239 2 5 2 5-.156 5-2-2.239-2-5-2z" fill="#36404d"></path></g></svg>