<svg viewBox="0 0 40 40" xmlns="http://www.w3.org/2000/svg"><path d="M30.965 32.5a1.537 1.537 0 01-1.344-.791l-3.075-5.852-3.652-5.23-3.989 3.352 4.156 3.91c.279.279.439.665.439 1.075s-.159.796-.45 1.086c-.29.291-.676.45-1.086.45-.409 0-.795-.16-1.085-.45l-4.932-4.839a1.537 1.537 0 01-.215-1.895l4.177-4.148-.308-1.668h6.063l.687 1.688 5.954 11.025a1.535 1.535 0 01-1.34 2.287z" fill="#e1ebf2"></path><path d="M25.327 18l.559 1.376.021.051.026.048L31.87 30.46c.134.242.167.521.091.787a1.029 1.029 0 01-.494.621 1.03 1.03 0 01-1.398-.381l-3.08-5.862-.029-.056-.036-.052-3.306-4.728-.626-.895-.837.702-3.141 2.638-.862.723.819.771 3.726 3.504a1.032 1.032 0 01-.001 1.464 1.036 1.036 0 01-1.471-.006l-4.922-4.829a1.039 1.039 0 01-.173-1.235l3.944-3.917.375-.372-.096-.519-.151-.818h5.125M26 17h-7l.37 2-4.028 4a2.037 2.037 0 00.254 2.569l4.929 4.835a2.03 2.03 0 002.878 0 2.036 2.036 0 000-2.879L19.656 24l3.141-2.638 3.306 4.728 3.08 5.862a2.038 2.038 0 002.769.791 2.035 2.035 0 00.791-2.768L26.812 19 26 17z" fill="#93a8bc"></path><path fill="#445963" d="M1 38h38v1H1z"></path><path d="M38.669 37.643s-8.193-6.107-18.643-6.107-18.642 6.107-18.642 6.107" fill="none" stroke="#455a64"></path><circle cx="19.5" cy="4.5" r="3" fill="#ffeea3"></circle><path d="M19.5 2C20.879 2 22 3.122 22 4.5S20.879 7 19.5 7 17 5.878 17 4.5 18.121 2 19.5 2m0-1a3.5 3.5 0 100 7 3.5 3.5 0 000-7z" fill="#ba9b48"></path><path d="M19.749 18.5l-1.427-5.109-3.104 4.511a1.542 1.542 0 01-1.903.436l-5.969-2.931a1.54 1.54 0 01-.685-2.06 1.534 1.534 0 012.062-.686l4.836 2.361 2.673-3.894a4.125 4.125 0 013.279-1.629h3.411c1.167 0 2.125.283 3.294.976l3.741 3.702 3.181-2.438a1.533 1.533 0 012.102.445c.228.341.31.75.229 1.152a1.53 1.53 0 01-.654.978l-4.139 2.894a1.531 1.531 0 01-1.584.06l-4.253-4.198 1.335 5.429h-6.425z" fill="#8bb7f0"></path><path d="M22.923 10c1.067 0 1.913.247 2.986.875l3.388 3.352.62.613.692-.531 2.804-2.15a1.037 1.037 0 011.567 1.08 1.043 1.043 0 01-.46.671l-4.111 2.875a1.031 1.031 0 01-1.019.074l-2.938-2.901-2.518-2.486.844 3.436.759 3.092h-5.408l-1.038-3.714-.575-2.059-1.212 1.761-2.473 3.597a1.031 1.031 0 01-1.299.303l-5.959-2.926a1.038 1.038 0 01-.464-1.389 1.032 1.032 0 011.399-.46l4.445 2.17.775.378.488-.711 2.404-3.504A3.63 3.63 0 0119.512 10h3.411m0-1h-3.412c-1.452 0-2.82.684-3.692 1.846l-2.428 3.538-4.445-2.17a2.036 2.036 0 00-1.821 3.643l5.965 2.929a2.037 2.037 0 002.54-.6l2.497-3.63L19.37 19h7.443l-1.064-4.33 3.038 3a2.03 2.03 0 002.176-.052l4.13-2.887A2.035 2.035 0 0033.962 11c-.388 0-.78.111-1.127.343L30 13.516l-3.475-3.438C25.35 9.373 24.294 9 22.923 9z" fill="#4e7ab5"></path><path fill="#a3b7cc" d="M39 39h-1v-2.656l-5.988-25.741.972-.23L39 36.286zM2 39H1l.027-2.876 8.822-25.786.945.324L2 36.369z"></path><path d="M10.8 10.582a.498.498 0 00-.963-.182l-2.365 6.885.945.324 2.371-6.904-.012-.004c.01-.039.024-.076.024-.119zM32.984 10.373A.501.501 0 0032 10.5c0 .036.012.103.012.103l1.627 6.98.969-.23-1.624-6.98z" fill="#455a64"></path></svg>