<svg viewBox="0 0 40 40" xmlns="http://www.w3.org/2000/svg"><path d="M20.079 30.5a2.582 2.582 0 01-2.579-2.579c0-7.32 4.654-18.449 8.135-24.109-3.469 12.104-3.283 18.54-3.169 22.501.017.618.034 1.176.034 1.687 0 1.448-1.019 2.5-2.421 2.5z" fill="#b6c9d6"></path><path d="M24.108 7.581c-2.404 9.702-2.245 15.205-2.142 18.746.018.613.034 1.166.034 1.673 0 1.178-.79 2-1.921 2A2.08 2.08 0 0118 27.921c0-5.934 3.097-14.403 6.108-20.34M27 1c-3.653 4.297-10 18.262-10 26.921 0 1.7 1.378 3.079 3.079 3.079 1.7 0 2.921-1.3 2.921-3 0-4.041-1-11 4-27z" fill="#788b9c"></path><g><path d="M1.5 38.5v-17h13.107c.261 0 .508.109.678.3a.825.825 0 01.209.65l-.93 5.064a5.302 5.302 0 001.312 4.147c1.043 1.168 2.551 1.838 4.137 1.838s3.094-.67 4.137-1.838a5.291 5.291 0 001.316-4.114l-.966-5.133a.817.817 0 01.215-.614.91.91 0 01.678-.3H38.5v17h-37z" fill="#ffeea3"></path><path d="M38 22v16H2V22h12.607c.163 0 .261.083.305.133a.33.33 0 01.088.238l-.927 5.054-.006.033-.004.034a5.787 5.787 0 001.44 4.503A6.044 6.044 0 0020.013 34a6.042 6.042 0 004.509-2.005 5.788 5.788 0 001.44-4.503l-.004-.036-.007-.036L25 22.369a.33.33 0 01.088-.237.403.403 0 01.305-.132H38m1-1H25.393c-.83 0-1.476.703-1.384 1.507l.96 5.098C25.297 30.483 22.985 33 20.013 33h-.001c-2.972 0-5.284-2.517-4.956-5.395l.935-5.098c.092-.804-.554-1.507-1.384-1.507H1v18h38V21z" fill="#ba9b48"></path></g></svg>