<svg viewBox="0 0 40 40" xmlns="http://www.w3.org/2000/svg"><path d="M20 37.5c-9.027 0-15.741-2.142-17.413-2.729L9.397 5.5h21.206l6.81 29.233C35.746 35.328 29.031 37.5 20 37.5z" fill="#ffeea3"></path><path d="M30.206 6l6.618 28.409C34.662 35.138 28.326 37 20 37c-8.321 0-14.656-1.835-16.823-2.556L9.794 6h20.412M31 5H9L2 35.088S9.36 38 20 38s18-2.951 18-2.951L31 5z" fill="#ba9b48"></path><path fill="#f88f8f" d="M8.5 2.5h23v5h-23z"></path><path d="M31 3v4H9V3h22m1-1H8v6h24V2z" fill="#c74343"></path><path fill="#ffeea3" stroke="#ba9b48" stroke-miterlimit="2" d="M26.5 37.5l-1-23M13.5 37.5l1-21"></path></svg>