<svg viewBox="0 0 40 40" xmlns="http://www.w3.org/2000/svg"><path d="M20 38.5c-4.087 0-5.908-.569-6.5-.813V31.5H10A4.505 4.505 0 015.5 27v-1.329l-.1-.133C3.503 22.999 2.5 20.046 2.5 17 2.5 8.453 10.351 1.5 20 1.5S37.5 8.453 37.5 17c0 3.046-1.003 5.999-2.9 8.538l-.1.133V27c0 2.481-2.019 4.5-4.5 4.5h-3.5v6.188c-.585.241-2.405.812-6.5.812z" fill="#f5ce85"></path><path d="M20 2c9.374 0 17 6.729 17 15 0 2.937-.969 5.786-2.801 8.239l-.199.266V27c0 2.206-1.794 4-4 4h-4v6.338c-.764.251-2.545.662-6 .662-3.468 0-5.249-.414-6-.659V31h-4c-2.206 0-4-1.794-4-4v-1.495l-.199-.266C3.969 22.786 3 19.937 3 17 3 8.729 10.626 2 20 2m0-1C10.059 1 2 8.163 2 17c0 3.268 1.108 6.305 3 8.837V27a5 5 0 005 5h3v6s1.517 1 7 1 7-1 7-1v-6h3a5 5 0 005-5v-1.163c1.892-2.533 3-5.569 3-8.837 0-8.837-8.059-16-18-16z" fill="#967a44"></path><path d="M34.5 26.5c0-2.534-2-5-2-5M5.5 26.5c0-2.534 2-5 2-5" fill="none" stroke="#967a44" stroke-miterlimit="10"></path><path d="M20 27s-2 2-2 3a1 1 0 002 0c0-.118 0-.118 0 0a1 1 0 002 0c0-1-2-3-2-3z" fill="#967a44"></path><circle cx="25.5" cy="23.5" r="4.5" fill="#967a44"></circle><circle cx="14.5" cy="23.5" r="4.5" fill="#967a44"></circle><path fill="#967a44" d="M21 35h1v3.365h-1zM18 35h1v3.365h-1zM24 35h1v3.365h-1zM15 35h1v3.365h-1z"></path></svg>