<svg viewBox="0 0 40 40" xmlns="http://www.w3.org/2000/svg"><path d="M20 10.5c-1.93 0-3.5-1.57-3.5-3.5s1.57-3.5 3.5-3.5 3.5 1.57 3.5 3.5-1.57 3.5-3.5 3.5z" fill="#ffeea3"></path><path d="M20 4c1.654 0 3 1.346 3 3s-1.346 3-3 3-3-1.346-3-3 1.346-3 3-3m0-1a4 4 0 10.002 8.002A4 4 0 0020 3z" fill="#ba9b48"></path><path d="M15.1 29.167l-.605-4.238-2.065-7.246-6.861-4.482a2.19 2.19 0 01-.759-.753l-4-6.667a2.152 2.152 0 01-.244-1.64c.14-.56.49-1.034.987-1.331a2.15 2.15 0 011.111-.31 2.18 2.18 0 011.861 1.053L8.24 9.744l5.609 3.756h12.304l5.609-3.756 3.715-6.191A2.183 2.183 0 0137.338 2.5c.39 0 .774.107 1.11.309.497.298.848.771.988 1.333.14.562.054 1.144-.244 1.64l-4 6.667a2.165 2.165 0 01-.743.743l-6.878 4.492-2.051 7.179-.62 4.304h-9.8z" fill="#99c99e"></path><path d="M37.336 3c.299 0 .594.082.854.238.382.229.652.593.76 1.025.108.432.041.88-.188 1.261l-4 6.667c-.14.234-.338.431-.604.592l-6.705 4.38-.312.204-.102.359-2 7-.019.066-.01.068-.544 3.808h-8.932l-.544-3.808-.01-.068-.019-.066-2-7-.102-.359-.312-.204-6.737-4.4a1.663 1.663 0 01-.571-.572l-4-6.667a1.65 1.65 0 01-.189-1.261c.108-.432.378-.796.761-1.026.258-.155.553-.237.853-.237.593 0 1.128.303 1.432.81l3.657 6.095.115.192.186.125 5.39 3.609.252.169h12.608l.253-.169 5.39-3.609.186-.125.115-.192 3.657-6.095c.303-.507.839-.81 1.431-.81m0-1c-.906 0-1.79.462-2.29 1.296L31.39 9.391 26 13H14L8.61 9.391 4.953 3.296A2.665 2.665 0 10.38 6.039l4 6.667c.225.376.539.689.915.915L12 18l2 7 .667 4.667h10.667L26 25l2-7 6.705-4.38c.376-.225.689-.539.915-.915l4-6.667A2.666 2.666 0 0037.336 2z" fill="#5e9c76"></path><g><path d="M25.995 37.5a2.5 2.5 0 01-2.245-1.387L20 30.608l-3.716 5.448c-.462.913-1.322 1.444-2.279 1.444a2.48 2.48 0 01-1.119-.265 2.512 2.512 0 01-1.121-3.364l2.604-8.371h11.263l2.573 8.295c.648 1.312.145 2.821-1.091 3.439a2.473 2.473 0 01-1.119.266z" fill="#f78f8f"></path><path d="M25.263 26l2.464 7.944.024.078.036.073A2.01 2.01 0 0125.994 37a2.002 2.002 0 01-1.798-1.111l-.03-.06-.038-.056-3.303-4.842L20 29.72l-.826 1.211-3.303 4.843-.038.056-.03.06A2 2 0 0114.004 37a2.012 2.012 0 01-1.792-2.906l.036-.073.024-.078L14.737 26h10.526M26 25H14l-2.683 8.648a3.009 3.009 0 005.38 2.69L20 31.495l3.303 4.842a3.007 3.007 0 105.379-2.69L26 25z" fill="#c74343"></path></g></svg>