<svg viewBox="0 0 40 40" xmlns="http://www.w3.org/2000/svg"><path fill="#8bb7f0" d="M1.5 38.5V29L5.504 1.5h28.992l4.009 27.572L38.5 38.5z"></path><path d="M34.063 2L38 29.072V38H2v-8.928L5.937 2h28.126m.866-1H5.071L1 29v10h38V29L34.929 1z" fill="#4e7ab5"></path><path fill="#c2e8ff" d="M37.993 29H2.008L5.935 2h28.126z"></path><circle cx="33.5" cy="33.5" r="1.5" fill="#fff"></circle><circle cx="10.5" cy="33.5" r="1.5" fill="#fff"></circle><circle cx="14.5" cy="33.5" r="1.5" fill="#fff"></circle><circle cx="6.5" cy="33.5" r="1.5" fill="#fff"></circle><path d="M24.625 8c.634 0 1.231.247 1.679.696a2.378 2.378 0 010 3.359l-.391.391-.859.859a2.36 2.36 0 01-1.679.695 2.357 2.357 0 01-1.679-.696c-.449-.448-.696-1.045-.696-1.679s.247-1.231.696-1.679l.869-.869.381-.381A2.357 2.357 0 0124.625 8m0-2c-1.12 0-2.239.427-3.094 1.281l-1.25 1.25A4.374 4.374 0 0023.375 16c1.12 0 2.239-.427 3.094-1.281l1.25-1.25A4.374 4.374 0 0024.625 6zM16.625 16c.634 0 1.231.247 1.679.696a2.378 2.378 0 010 3.359l-1.25 1.25c-.448.448-1.045.695-1.679.695s-1.231-.247-1.679-.696A2.357 2.357 0 0113 19.625c0-.634.247-1.231.696-1.679l1.25-1.25A2.357 2.357 0 0116.625 16m0-2c-1.12 0-2.239.427-3.094 1.281l-1.25 1.25A4.374 4.374 0 0015.375 24c1.12 0 2.239-.427 3.094-1.281l1.25-1.25A4.374 4.374 0 0016.625 14z" fill="#4e7ab5"></path><path fill="none" stroke="#4e7ab5" stroke-width="2" stroke-linecap="round" stroke-linejoin="round" stroke-miterlimit="10" d="M17.5 17.5l5-5"></path></svg>