<svg viewBox="0 0 40 40" xmlns="http://www.w3.org/2000/svg"><path fill="#f5ce85" d="M33.5 38.5v-2h-28v2h-4v-5h36v5z"></path><path d="M37 34v4h-3v-2H5v2H2v-4h35m1-1H1v6h5v-2h27v2h5v-6z" fill="#967a44"></path><path fill="#b08159" d="M28.5 1.5h9v35h-9z"></path><path d="M37 2v34h-8V2h8m1-1H28v36h10V1z" fill="#704e34"></path><path fill="#f5ce85" d="M1.5 1.5h27v35h-27z"></path><path d="M28 2v34H2V2h26m1-1H1v36h28V1z" fill="#967a44"></path><path fill="none" stroke="#704e34" stroke-miterlimit="10" d="M29 8.5h9M29 15.5h9M29 22.5h9M29 29.5h9"></path><path fill="#f5ce85" stroke="#967a44" stroke-miterlimit="10" d="M19.5 1v35"></path><path fill="none" stroke="#704e34" stroke-miterlimit="10" d="M17.5 17v6M26.5 17v6"></path></svg>