<svg viewBox="0 0 40 40" xmlns="http://www.w3.org/2000/svg"><path d="M20 14.5c-3.584 0-6.5-2.916-6.5-6.5s2.916-6.5 6.5-6.5 6.5 2.916 6.5 6.5-2.916 6.5-6.5 6.5zm0-10c-1.93 0-3.5 1.57-3.5 3.5s1.57 3.5 3.5 3.5 3.5-1.57 3.5-3.5-1.57-3.5-3.5-3.5z" fill="#8bb7f0"></path><path d="M20 2c3.308 0 6 2.692 6 6s-2.692 6-6 6-6-2.692-6-6 2.692-6 6-6m0 10c2.206 0 4-1.794 4-4s-1.794-4-4-4-4 1.794-4 4 1.794 4 4 4m0-11a7 7 0 100 14 7 7 0 000-14zm0 10a3 3 0 110-6 3 3 0 010 6z" fill="#4e7ab5"></path><path d="M20 30.5c-3.584 0-6.5-2.916-6.5-6.5s2.916-6.5 6.5-6.5 6.5 2.916 6.5 6.5-2.916 6.5-6.5 6.5zm0-10c-1.93 0-3.5 1.57-3.5 3.5s1.57 3.5 3.5 3.5 3.5-1.57 3.5-3.5-1.57-3.5-3.5-3.5z" fill="#8bb7f0"></path><path d="M20 18c3.308 0 6 2.692 6 6s-2.692 6-6 6-6-2.692-6-6 2.692-6 6-6m0 10c2.206 0 4-1.794 4-4s-1.794-4-4-4-4 1.794-4 4 1.794 4 4 4m0-11a7 7 0 100 14 7 7 0 000-14zm0 10a3 3 0 110-6 3 3 0 010 6z" fill="#4e7ab5"></path><g><path d="M20 22.5c-.827 0-1.5-.673-1.5-1.5V11c0-.827.673-1.5 1.5-1.5s1.5.673 1.5 1.5v10c0 .827-.673 1.5-1.5 1.5z" fill="#c2e8ff"></path><path d="M20 10c.551 0 1 .449 1 1v10c0 .551-.449 1-1 1s-1-.449-1-1V11c0-.551.449-1 1-1m0-1a2 2 0 00-2 2v10a2 2 0 104 0V11a2 2 0 00-2-2z" fill="#4e7ab5"></path></g><g><path d="M15.207 33.5H18.5V28c0-.827.673-1.5 1.5-1.5s1.5.673 1.5 1.5v5.5h3.293L20 38.293 15.207 33.5z" fill="#c2e8ff"></path><path d="M20 27c.551 0 1 .449 1 1v6H23.586L20 37.586 16.414 34H19v-6c0-.551.449-1 1-1m0-1a2 2 0 00-2 2v5h-4l6 6 6-6h-4v-5a2 2 0 00-2-2z" fill="#4e7ab5"></path></g></svg>