<svg viewBox="0 0 40 40" xmlns="http://www.w3.org/2000/svg"><path fill="none" stroke="#788b9c" stroke-miterlimit="10" d="M1 38.5h38"></path><circle cx="21" cy="5" r="3.5" fill="#f5ce85"></circle><path d="M21 2c1.654 0 3 1.346 3 3s-1.346 3-3 3-3-1.346-3-3 1.346-3 3-3m0-1a4 4 0 100 8 4 4 0 000-8z" fill="#967a44"></path><g><path d="M26.533 37.5a2.068 2.068 0 01-1.567-.716l-3.693-4.277-5.655-3.669a6.74 6.74 0 01-2.974-6.839l1.598-9.021-4.896-.873-3.014 3.428a1.622 1.622 0 01-2.231.19 1.601 1.601 0 01-.596-1.127 1.61 1.61 0 01.407-1.209l3.709-4.139a2.246 2.246 0 011.985-.726l5.825.818 7.142 1.753h4.448l4.705-2.35a1.696 1.696 0 012.382 1.988c-.128.44-.421.802-.824 1.019l-4.087 2.194a2.24 2.24 0 01-1.062.267h-6.497L20.459 21.1l5.37-1.567a2.838 2.838 0 013.135 1.114l3.539 5.132c.296.428.404.946.306 1.457a1.924 1.924 0 01-3.436.786l-3.104-4.174-6.393 2.161 4.854 4.173 3.367 3.895c.373.431.549.981.496 1.549a2.056 2.056 0 01-.776 1.429c-.37.291-.813.445-1.284.445z" fill="#8bb7f0"></path><path d="M9.294 9c.081 0 .162.006.243.017l5.776.811 7.084 1.736.117.029h4.626l.211-.105 4.6-2.297a1.196 1.196 0 011.678 1.401c-.09.31-.297.565-.581.717l-4.086 2.194a1.751 1.751 0 01-.826.208h-6.92l-.142.831-.972 5.685-.27 1.577 1.536-.448 4.603-1.344a2.34 2.34 0 012.583.918l3.539 5.132c.219.317.299.7.227 1.078a1.42 1.42 0 01-.609.918c-.235.157-.508.24-.789.24-.457 0-.874-.21-1.146-.575l-2.887-3.882-.434-.583-.689.233-5.217 1.764-1.662.562 1.331 1.144 4.133 3.553 3.371 3.891c.283.327.417.744.376 1.175-.04.431-.25.816-.589 1.084a1.579 1.579 0 01-2.164-.208l-3.648-4.223-.093-.108-.119-.077-5.596-3.631a6.236 6.236 0 01-2.752-6.332l1.51-8.529.174-.984-.983-.175-4.128-.736-.555-.099-.372.423-2.828 3.216a1.118 1.118 0 01-1.951-.648 1.105 1.105 0 01.281-.834L7.994 9.58a1.75 1.75 0 011.3-.58m0-1a2.75 2.75 0 00-2.045.913l-3.709 4.14a2.116 2.116 0 103.165 2.809l2.828-3.216 4.128.736-1.51 8.529a7.25 7.25 0 003.193 7.346l5.596 3.631 3.648 4.223a2.565 2.565 0 003.539.335 2.57 2.57 0 00.348-3.698l-3.419-3.947-4.188-3.601 5.217-1.764 2.887 3.882a2.426 2.426 0 003.945-2.825l-3.539-5.132a3.341 3.341 0 00-3.686-1.31l-4.603 1.344.972-5.685h6.076c.453 0 .899-.112 1.299-.327l4.086-2.194a2.193 2.193 0 00-2.018-3.895l-4.6 2.297h-4.269l-7.133-1.748-5.826-.816A2.737 2.737 0 009.294 8z" fill="#4e7ab5"></path></g></svg>