<svg viewBox="0 0 40 40" xmlns="http://www.w3.org/2000/svg"><path d="M36 14v13c0 1.103-.897 2-2 2h-9v-2h-1v2c0 .55.45 1 1 1h9c1.65 0 3-1.35 3-3V15c0-.55-.45-1-1-1z" fill="#788b9c"></path><path d="M27 33.5a.5.5 0 01-.5-.5v-7a.5.5 0 01.5-.5h6a.5.5 0 01.5.5v7a.5.5 0 01-.5.5h-6z" fill="#b6c9d6"></path><path d="M33 26v7h-6v-7h6m0-1h-6c-.55 0-1 .45-1 1v7c0 .55.45 1 1 1h6c.55 0 1-.45 1-1v-7c0-.55-.45-1-1-1z" fill="#788b9c"></path><path d="M1.5 39.5v-24c0-8.271 6.729-15 15-15s15 6.729 15 15v24h-30z" fill="#f78f8f"></path><path d="M16.5 1C24.495 1 31 7.505 31 15.5V39H2V15.5C2 7.505 8.505 1 16.5 1m0-1C7.975 0 1 6.975 1 15.5V40h31V15.5C32 6.975 25.025 0 16.5 0z" fill="#c74343"></path><path d="M26 34H7V15.5C7 10.275 11.275 6 16.5 6s9.5 4.275 9.5 9.5V34z" fill="#ffcaca"></path><path fill="#b6c9d6" d="M10.5 25.5h12v5h-12z"></path><path d="M22 26v4H11v-4h11m1-1H10v6h13v-6z" fill="#788b9c"></path><path fill="#36404d" d="M11 26h11v2H11z"></path><circle cx="36.5" cy="14.5" r="2" fill="#f78f8f"></circle><path d="M36.5 13c.827 0 1.5.673 1.5 1.5s-.673 1.5-1.5 1.5-1.5-.673-1.5-1.5.673-1.5 1.5-1.5m0-1a2.5 2.5 0 100 5 2.5 2.5 0 000-5z" fill="#c74343"></path><path d="M11 22.5a.5.5 0 01-.5-.5v-8a.5.5 0 01.5-.5h11a.5.5 0 01.5.5v8a.5.5 0 01-.5.5H11z" fill="#fff"></path><path d="M22 14v8H11v-8h11m0-1H11c-.55 0-1 .45-1 1v8c0 .55.45 1 1 1h11c.55 0 1-.45 1-1v-8c0-.55-.45-1-1-1z" fill="#788b9c"></path><path fill="#788b9c" d="M14 13h1v10h-1zM18 13h1v10h-1z"></path><circle cx="4.5" cy="36.5" r=".5" fill="#ffeea3"></circle><circle cx="28.5" cy="36.5" r=".5" fill="#ffeea3"></circle><circle cx="24.5" cy="36.5" r=".5" fill="#ffeea3"></circle><circle cx="20.5" cy="36.5" r=".5" fill="#ffeea3"></circle><circle cx="12.5" cy="36.5" r=".5" fill="#ffeea3"></circle><circle cx="16.5" cy="36.5" r=".5" fill="#ffeea3"></circle><circle cx="8.5" cy="36.5" r=".5" fill="#ffeea3"></circle><circle cx="4.5" cy="32.5" r=".5" fill="#ffeea3"></circle><circle cx="4.5" cy="28.5" r=".5" fill="#ffeea3"></circle><circle cx="4.5" cy="24.5" r=".5" fill="#ffeea3"></circle><circle cx="4.5" cy="20.5" r=".5" fill="#ffeea3"></circle><circle cx="28.5" cy="32.5" r=".5" fill="#ffeea3"></circle><circle cx="28.5" cy="28.5" r=".5" fill="#ffeea3"></circle><circle cx="28.5" cy="24.5" r=".5" fill="#ffeea3"></circle><g fill="#ffeea3"><circle cx="18.99" cy="3.694" r=".5"></circle><circle cx="23.089" cy="5.148" r=".5"></circle><circle cx="26.068" cy="7.882" r=".5"></circle><circle cx="27.885" cy="11.723" r=".5"></circle><circle cx="28.5" cy="16.5" r=".5"></circle></g><g fill="#ffeea3"><circle cx="14.01" cy="3.694" r=".5"></circle><circle cx="9.911" cy="5.148" r=".5"></circle><circle cx="6.932" cy="7.882" r=".5"></circle><circle cx="5.115" cy="11.723" r=".5"></circle><circle cx="4.5" cy="16.5" r=".5"></circle></g><circle cx="28.5" cy="20.5" r=".5" fill="#ffeea3"></circle></svg>