<svg viewBox="0 0 40 40" xmlns="http://www.w3.org/2000/svg"><path d="M3 34.5c-.827 0-1.5-.673-1.5-1.5V11c0-.827.674-1.5 1.501-1.5h7.777l2.499-4h13.445l2.5 4H37c.827 0 1.5.673 1.5 1.5v22c0 .827-.674 1.5-1.501 1.5H3z" fill="#dcd5f2"></path><path d="M26.446 6l2.206 3.53.294.47H37c.551 0 1 .449 1 1v22a.992.992 0 01-.295.705.994.994 0 01-.706.295H3c-.551 0-1-.449-1-1V11c0-.265.105-.515.295-.705A.994.994 0 013.001 10h8.054l.294-.47L13.554 6h12.892M27 5H13l-2.499 4h-7.5C1.901 9 1 9.9 1 11v22c0 1.1.9 2 2 2h33.999c1.1 0 2.001-.9 2.001-2V11c0-1.1-.9-2-2-2h-7.5L27 5z" fill="#8b75a1"></path><path fill="#8b75a1" d="M31 8h5v2h-5z"></path><circle cx="33" cy="15" r="1.5" fill="#dcd5f2"></circle><path d="M33 14c.551 0 1 .449 1 1s-.449 1-1 1-1-.449-1-1 .449-1 1-1m0-1a2 2 0 10-.001 3.999A2 2 0 0033 13z" fill="#8b75a1"></path><circle cx="33" cy="21" r="1.5" fill="#dcd5f2"></circle><path d="M33 20c.551 0 1 .449 1 1s-.449 1-1 1-1-.449-1-1 .449-1 1-1m0-1a2 2 0 10-.001 3.999A2 2 0 0033 19z" fill="#8b75a1"></path><circle cx="33" cy="27" r="1.5" fill="#dcd5f2"></circle><path d="M33 26c.551 0 1 .449 1 1s-.449 1-1 1-1-.449-1-1 .449-1 1-1m0-1a2 2 0 10-.001 3.999A2 2 0 0033 25z" fill="#8b75a1"></path><path fill="#fff" d="M5.5 13.5h22v15h-22z"></path><path d="M27 14v14H6V14h21m1-1H5v16h23V13z" fill="#788b9c"></path><path fill="#b5deff" d="M8 16h17v10H8z"></path><circle cx="14" cy="21" r="2" fill="#d9f6ff"></circle><circle cx="11" cy="21" r="2" fill="#d9f6ff"></circle><circle cx="21.5" cy="20.5" r="1.5" fill="#d9f6ff"></circle><circle cx="16.607" cy="22.036" r="2.036" fill="#d9f6ff"></circle><circle cx="19" cy="21" r="2" fill="#d9f6ff"></circle><path fill="#99c9f0" d="M8 24h17v2H8z"></path><path fill="#d9f6ff" d="M7.786 21.357h1.357v1.357H7.786zM25 20.277A1.987 1.987 0 0024 20a2 2 0 100 4c.366 0 .705-.106 1-.277v-3.446z"></path><path d="M8.5 20c-.176 0-.343.036-.5.092v2.816c.157.056.324.092.5.092a1.5 1.5 0 000-3z" fill="#d9f6ff"></path><path fill="#6e9ee0" d="M10 24h15v-1.357L20 20z"></path><path fill="#77a9ed" d="M20 24H8v-1.357L13.214 20z"></path></svg>