<svg viewBox="0 0 40 40" xmlns="http://www.w3.org/2000/svg"><path fill="#839cb2" d="M8.5 1.5h12v27h-12z"></path><path d="M20 2v26H9V2h11m1-1H8v28h13V1z" fill="#66798f"></path><path fill="#b0c1d4" d="M6.5 4.5h16v4h-16z"></path><path d="M22 5v3H7V5h15m1-1H6v5h17V4z" fill="#66798f"></path><path fill="#b0c1d4" d="M8.207 15.5L6.5 13.793V10.5h16v3.293L20.793 15.5z"></path><path d="M22 11v2.586L20.586 15H8.414L7 13.586V11h15m1-1H6v4l2 2h13l2-2v-4z" fill="#66798f"></path><path d="M3 34.5c-.827 0-1.5-.673-1.5-1.5v-8c0-.827.673-1.5 1.5-1.5h3.25l3-4h10.5l3 4h2.253c1.184 0 2.497-.655 2.497-2.5v-4c.009-.129.132-1.5 1.5-1.5h8c.827 0 1.5.673 1.5 1.5v16c0 .827-.673 1.5-1.5 1.5H3z" fill="#b0c1d4"></path><path d="M37 16c.551 0 1 .449 1 1v16c0 .551-.449 1-1 1H3c-.551 0-1-.449-1-1v-8c0-.551.449-1 1-1h3.5l.3-.4L9.5 20h10l2.7 3.6.3.4H24.978l.081.001C26.523 24.001 28 23.073 28 21v-3.962c.029-.331.186-1.038 1-1.038h8m0-1h-8c-1.898 0-2 2-2 2v4c0 1.904-1.61 2.001-1.941 2.001L25 23h-2l-3-4H9l-3 4H3a2 2 0 00-2 2v8a2 2 0 002 2h34a2 2 0 002-2V17a2 2 0 00-2-2z" fill="#66798f"></path><path d="M20.5 38.272c-.964-.313-2.918-.772-6.088-.772-3.106 0-4.976.443-5.912.758V28c0-.827.673-1.5 1.5-1.5h9c.827 0 1.5.673 1.5 1.5v10.272z" fill="#839cb2"></path><path d="M19 27c.551 0 1 .449 1 1v9.61c-1.135-.295-2.963-.61-5.588-.61-2.569 0-4.316.295-5.412.585V28c0-.551.449-1 1-1h9m0-1h-9a2 2 0 00-2 2v11s1.775-1 6.412-1C19.049 38 21 39 21 39V28a2 2 0 00-2-2z" fill="#66798f"></path><g><path fill="#e1ebf2" d="M11.5 30.5h6v4h-6z"></path><path d="M17 31v3h-5v-3h5m1-1h-7v5h7v-5z" fill="#66798f"></path></g><g><circle cx="30" cy="29" r="2.5" fill="#e1ebf2"></circle><path d="M30 27c1.103 0 2 .897 2 2s-.897 2-2 2-2-.897-2-2 .897-2 2-2m0-1a3 3 0 100 6 3 3 0 000-6z" fill="#66798f"></path></g><g><path fill="#e1ebf2" d="M32.5 28.5h2v1h-2z"></path><path fill="#66798f" d="M35 28h-3v2h3v-2z"></path></g><ellipse cx="33" cy="19.5" rx="2" ry="1.5" fill="#36404d"/></svg>