<svg viewBox="0 0 40 40" xmlns="http://www.w3.org/2000/svg"><path d="M19 12c0 .485 1 3.673 1 2 0-3.859 2.641-8 4-8a2 2 0 100-4c-.364 0-.716.081-1 .268C20.984 3.594 19 9.25 19 12zM15 3a2 2 0 114 0c0 .864-.562 1.564-1.315 1.88-1.482.62-.857 6.959-.435 10.037.098.716-.528 1.236-.604 1.104C16.477 15.728 15 12.984 15 3z" fill="#7a4f34"></path><path d="M8.89 37.5c-6.429-.071-7.39-6.096-7.39-9.68 0-4.783 2.958-7.981 3.865-8.849.294-.281.812-.478 1.259-.478.169 0 .474.03.625.232.155.208.159.599.012 1.103-.77 2.583-.284 3.992.258 4.72.459.614 1.141.968 1.871.968a2.2 2.2 0 001.269-.397c1.104-.778 1.726-2.029 2.326-3.239l.242-.483c.374-.726.514-1.24.514-1.896 0-.458-.069-.981-.196-1.788a5.604 5.604 0 01-.045-.673c0-3.032 2.468-5.5 5.5-5.5s5.5 2.468 5.5 5.5a5.52 5.52 0 01-3.668 5.18l-.332.118v3.702c0 6.451-4.916 11.374-11.436 11.45l-.11.001-.017.009H8.89z" fill="#d6aa70"></path><path d="M19 12.04c2.757 0 5 2.243 5 5a5.015 5.015 0 01-3.336 4.708l-.664.237v4.055c0 6.169-4.704 10.877-10.942 10.95l-.23.003-.012.006C3.186 36.886 2 31.952 2 27.82c0-4.583 2.84-7.655 3.712-8.488.174-.166.562-.338.912-.338.141 0 .215.029.222.029.022.039.057.246-.065.661-.828 2.783-.274 4.344.336 5.163.555.743 1.383 1.169 2.273 1.169.564 0 1.102-.169 1.556-.489 1.207-.851 1.857-2.158 2.485-3.423l.238-.476c.343-.665.571-1.281.571-2.128 0-.492-.071-1.035-.197-1.829A5.3 5.3 0 0114 17.04c0-2.757 2.243-5 5-5m0-1c-3.31 0-6 2.68-6 6 0 .25.02.5.05.75.12.76.19 1.28.19 1.71 0 .59-.13 1.03-.46 1.67-.67 1.32-1.27 2.736-2.41 3.54-.283.2-.627.306-.98.306-1.301 0-2.72-1.452-1.65-5.046.426-1.451-.276-1.976-1.116-1.976-.578 0-1.221.249-1.604.616C3.43 20.13 1 23.375 1 27.82 1 34 3.55 37.94 8.89 38H9c.02 0 .05 0 .07-.01C15.88 37.91 21 32.7 21 26.04v-3.35c2.33-.83 4-3.04 4-5.65 0-3.32-2.69-6-6-6z" fill="#7a4f34"></path><path d="M34 35.5c-2.796 0-3.502-3.558-3.509-3.593l-.089-.47-.474.067a7.392 7.392 0 01-.959.056c-2.039 0-4.47-.618-4.47-3.561 0-.21.023-.485.067-.813.452.207.936.314 1.434.314a3.504 3.504 0 003.379-4.414A2.492 2.492 0 0030.5 21c0-.49-.148-.967-.418-1.372a21.628 21.628 0 014.741-2.06c.784.98 3.677 4.964 3.677 10.432 0 3.612-1.408 7.5-4.5 7.5z" fill="#bae0bd"></path><path d="M34.639 18.147C35.593 19.413 38 23.094 38 28c0 3.371-1.252 7-4 7-2.365 0-2.993-3.059-3.017-3.186l-.18-.937-.944.133c-.004 0-.365.05-.889.05-2.634 0-3.97-1.03-3.97-3.06l.003-.128c.323.085.657.128.997.128a4.004 4.004 0 003.937-4.708 2.992 2.992 0 00.816-3.474 21.392 21.392 0 013.886-1.671M35 17s-2.898.725-5.678 2.51c.413.366.678.895.678 1.49a2 2 0 01-1.232 1.846A3 3 0 0126 27a2.977 2.977 0 01-1.808-.62c-.09.491-.192 1.141-.192 1.62 0 3.588 3.255 4.06 4.97 4.06.613 0 1.03-.06 1.03-.06s.757 4 4 4c3.352 0 5-3.934 5-8 0-6.576-4-11-4-11z" fill="#5e9c76"></path><path d="M26.5 37.5c1.272-1.612 5-5.75 6-12" fill="none" stroke="#5e9c76" stroke-linecap="round" stroke-miterlimit="10"></path><path d="M6.5 27.5c2.653 0 4.41-2.405 5.154-3.363" fill="none" stroke="#7a4f34" stroke-linecap="round" stroke-miterlimit="10"></path></svg>