<svg viewBox="0 0 40 40" xmlns="http://www.w3.org/2000/svg"><path d="M32 12c0 .485 1 3.673 1 2 0-3.859 2.641-8 4-8a2 2 0 100-4c-.364 0-.716.081-1 .268C33.984 3.594 32 9.25 32 12zM28 3a2 2 0 114 0c0 .864-.562 1.564-1.315 1.88-1.482.62-.857 6.959-.435 10.037.098.716-.528 1.236-.604 1.104C29.477 15.728 28 12.984 28 3z" fill="#7a4f34"></path><path d="M22 37.5c-10.258 0-17.089-1.243-19.508-1.979-.536-.163-.991-.542-.992-.694 0-.002.057-.266 1-.571 2.111-.684 7.752-2.278 9.627-2.772 7.052-1.856 11.532-5.071 14.101-10.118.646-1.266.594-1.892.321-3.645A6.513 6.513 0 0126.5 17c0-3.032 2.468-5.5 5.5-5.5s5.5 2.468 5.5 5.5a5.507 5.507 0 01-3.667 5.18l-.333.118V26c0 6.556-4.944 11.5-11.5 11.5z" fill="#d6aa70"></path><path d="M32 12c2.757 0 5 2.243 5 5 0 2.11-1.34 4.003-3.334 4.709l-.666.235V26c0 6.271-4.729 11-11 11-10.202 0-16.971-1.23-19.363-1.957a1.82 1.82 0 01-.375-.165c.101-.045.229-.094.392-.147 2.069-.67 7.781-2.286 9.601-2.765 7.199-1.894 11.78-5.191 14.419-10.375.705-1.384.655-2.1.377-3.895l-.001-.028-.005-.044A4.797 4.797 0 0127 17c0-2.757 2.243-5 5-5m0-1a6 6 0 00-6 6c0 .255.021.504.052.75 0 .002-.005.003-.004.005.278 1.782.307 2.26-.265 3.384C23.123 26.364 18.474 29.296 12 31c-1.755.462-7.495 2.081-9.654 2.78-2.508.812-.911 1.943.001 2.22 2.553.776 9.401 2 19.654 2 6.901 0 12-5.28 12-12v-3.349A5.997 5.997 0 0032 11z" fill="#7a4f34"></path></svg>