<svg viewBox="0 0 40 40" xmlns="http://www.w3.org/2000/svg"><path fill="#c2e8ff" d="M28.5 1.5h10v10h-10z"></path><path d="M38 2v9h-9V2h9m1-1H28v11h11V1z" fill="#7496c4"></path><circle cx="36" cy="4" r="1" fill="#fff"></circle><path fill="#ffc49c" d="M2.5 1.5h10v10h-10z"></path><path d="M12 2v9H3V2h9m1-1H2v11h11V1z" fill="#a16a4a"></path><path fill="#bae0bd" d="M2.5 27.5h10v10h-10z"></path><path d="M12 28v9H3v-9h9m1-1H2v11h11V27z" fill="#5e9c76"></path><path fill="#8bb7f0" d="M2.5 14.5h10v10h-10z"></path><path d="M12 15v9H3v-9h9m1-1H2v11h11V14z" fill="#4e7ab5"></path><path fill="#ffeea3" d="M4 19.5L7.5 16l3.5 3.5L7.5 23z"></path><path fill="#ffeea3" d="M5.025 17.025h4.95v4.95h-4.95z"></path><path fill="#a16a4a" d="M9.363 6.432L7.5 8.161 10.062 11H12V8.886z"></path><circle cx="10" cy="4" r="1" fill="#fff"></circle><path fill="#e09367" d="M10.617 11H3V8.75l3-3z"></path><path fill="#ffc49c" d="M15.5 14.5h10v10h-10z"></path><path d="M25 15v9h-9v-9h9m1-1H15v11h11V14z" fill="#a16a4a"></path><path fill="#a16a4a" d="M22.363 19.432L20.5 21.161 23.062 24H25v-2.114z"></path><circle cx="23" cy="17" r="1" fill="#fff"></circle><path fill="#e09367" d="M23.617 24H16v-2.25l3-3z"></path><path d="M7.5 32.5l-1.02-1.699a1.19 1.19 0 112.04 0L7.5 32.5zM7.5 32.5l1.02 1.699a1.19 1.19 0 11-2.04 0L7.5 32.5z" fill="#fff"></path><path d="M7.5 32.5l-1.981.033a1.189 1.189 0 111.019-1.766L7.5 32.5zM7.5 32.5l1.981-.033a1.189 1.189 0 11-1.019 1.766L7.5 32.5z" fill="#fff"></path><path d="M7.5 32.5l-.962 1.733a1.189 1.189 0 11-1.019-1.766L7.5 32.5zM7.5 32.5l.962-1.733a1.189 1.189 0 111.019 1.766L7.5 32.5z" fill="#fff"></path><circle cx="7.5" cy="32.5" r="1.5" fill="#ffeea3"></circle><path fill="#bae0bd" d="M28.5 27.5h10v10h-10z"></path><path d="M38 28v9h-9v-9h9m1-1H28v11h11V27z" fill="#5e9c76"></path><path d="M33.5 32.5l-1.02-1.699a1.19 1.19 0 112.04 0L33.5 32.5zM33.5 32.5l1.02 1.699a1.19 1.19 0 11-2.04 0L33.5 32.5z" fill="#fff"></path><path d="M33.5 32.5l-1.981.033a1.189 1.189 0 111.019-1.766L33.5 32.5zM33.5 32.5l1.981-.033a1.189 1.189 0 11-1.019 1.766L33.5 32.5z" fill="#fff"></path><path d="M33.5 32.5l-.962 1.733a1.189 1.189 0 11-1.019-1.766l1.981.033zM33.5 32.5l.962-1.733a1.189 1.189 0 111.019 1.766L33.5 32.5z" fill="#fff"></path><circle cx="33.5" cy="32.5" r="1.5" fill="#ffeea3"></circle><circle cx="7.5" cy="19.5" r="1.5" fill="#fff"></circle><path fill="#8bb7f0" d="M28.5 14.5h10v10h-10z"></path><path d="M38 15v9h-9v-9h9m1-1H28v11h11V14z" fill="#4e7ab5"></path><path fill="#ffeea3" d="M30 19.5l3.5-3.5 3.5 3.5-3.5 3.5z"></path><path fill="#ffeea3" d="M31.025 17.025h4.95v4.95h-4.95z"></path><circle cx="33.5" cy="19.5" r="1.5" fill="#fff"></circle><path fill="#8bb7f0" d="M15.5 1.5h10v10h-10z"></path><path d="M25 2v9h-9V2h9m1-1H15v11h11V1z" fill="#4e7ab5"></path><path fill="#ffeea3" d="M17 6.5L20.5 3 24 6.5 20.5 10z"></path><path fill="#ffeea3" d="M18.025 4.025h4.95v4.95h-4.95z"></path><circle cx="20.5" cy="6.5" r="1.5" fill="#fff"></circle><circle cx="36" cy="9" r="1" fill="#fff"></circle><circle cx="31.5" cy="8.5" r="1.5" fill="#fff"></circle><circle cx="32.5" cy="7.5" r="1.5" fill="#fff"></circle><circle cx="34.5" cy="8.5" r="1.5" fill="#fff"></circle><path fill="#fff" d="M31.5 8h3v2h-3zM36 10h-1.5V9H36z"></path><g><path fill="#c2e8ff" d="M15.5 27.5h10v10h-10z"></path><path d="M25 28v9h-9v-9h9m1-1H15v11h11V27z" fill="#7496c4"></path></g><circle cx="23" cy="30" r="1" fill="#fff"></circle><circle cx="23" cy="35" r="1" fill="#fff"></circle><circle cx="18.5" cy="34.5" r="1.5" fill="#fff"></circle><circle cx="19.5" cy="33.5" r="1.5" fill="#fff"></circle><circle cx="21.5" cy="34.5" r="1.5" fill="#fff"></circle><path fill="#fff" d="M18.5 34h3v2h-3zM23 36h-1.5v-1H23z"></path></svg>