<svg viewBox="0 0 40 40" xmlns="http://www.w3.org/2000/svg"><ellipse cx="20" cy="23.5" rx="12" ry="3.5" fill="#66798f"/><path d="M20 39.5c-6.049 0-8.111-2.169-8.5-2.661l-.026-17.33C12.685 20.771 15.216 22.5 20 22.5c4.766 0 7.273-1.716 8.474-2.979l.026 17.32c-.384.485-2.444 2.659-8.5 2.659z" fill="#839cb2"></path><path d="M11.975 20.625C13.464 21.798 15.973 23 20 23c4.008 0 6.497-1.191 7.975-2.36l.024 16.017C27.467 37.237 25.404 39 20 39c-5.429 0-7.486-1.779-8.001-2.341l-.024-16.034M28.971 18S27.146 22 20 22s-9.029-4-9.029-4L11 37s1.774 3 9 3 9-3 9-3l-.029-19z" fill="#66798f"></path><path d="M20 28.5c-6.952 0-9.108-2.179-9.5-2.662l-.024-7.647c1.259.957 4.014 2.31 9.525 2.31 5.496 0 8.227-1.346 9.475-2.305l.024 7.644c-.387.476-2.54 2.66-9.5 2.66z" fill="#839cb2"></path><path d="M10.978 19.134C12.548 20.046 15.31 21 20 21c4.674 0 7.419-.949 8.978-1.861l.021 6.517C28.469 26.207 26.256 28 20 28c-6.282 0-8.478-1.799-9.001-2.346l-.021-6.52M29.971 17S28.167 20 20 20 9.971 17 9.971 17L10 26s1.742 3 10 3 10-3 10-3l-.029-9z" fill="#66798f"></path><path d="M20 32.5c-7.821 0-10.865-2.177-11.5-2.718v-5.767c1.437.93 4.838 2.485 11.5 2.485s10.062-1.555 11.5-2.484v5.768c-.629.535-3.671 2.716-11.5 2.716z" fill="#b0c1d4"></path><path d="M9 24.875C10.814 25.827 14.223 27 20 27s9.186-1.173 11-2.125v4.668C30.143 30.187 27.1 32 20 32c-7.116 0-10.157-1.821-11-2.456v-4.669M32 23s-2.812 3-12 3-12-3-12-3v7s2.709 3 12 3 12-3 12-3v-7z" fill="#66798f"></path><path d="M20 23.5c-7.821 0-10.865-2.177-11.5-2.718V14.5h22.973l.026 6.283C30.868 21.321 27.825 23.5 20 23.5z" fill="#b0c1d4"></path><path d="M30.975 15l.023 5.544C30.138 21.19 27.095 23 20 23c-7.116 0-10.157-1.821-11-2.456V15h21.975m.996-1H8v7s2.709 3 12 3 12-3 12-3l-.029-7z" fill="#66798f"></path><g><path d="M20 17.5c-6.76 0-11.471-1.845-11.471-3.5S13.24 10.5 20 10.5s11.471 1.845 11.471 3.5S26.76 17.5 20 17.5z" fill="#839cb2"></path><path d="M20 11c7.099 0 10.971 1.982 10.971 3S27.099 17 20 17 9.029 15.018 9.029 14 12.901 11 20 11m0-1c-6.611 0-11.971 1.791-11.971 4s5.36 4 11.971 4 11.971-1.791 11.971-4-5.36-4-11.971-4z" fill="#66798f"></path></g><g><path d="M20 17.5c-6.777 0-11.5-1.845-11.5-3.5s4.723-3.5 11.5-3.5 11.5 1.845 11.5 3.5-4.723 3.5-11.5 3.5z" fill="#839cb2"></path><path d="M20 11c7.117 0 11 1.982 11 3s-3.883 3-11 3-11-1.982-11-3 3.883-3 11-3m0-1c-6.627 0-12 1.791-12 4s5.373 4 12 4 12-1.791 12-4-5.373-4-12-4z" fill="#66798f"></path></g><path d="M20 17c4.023 0 7.011-.633 8.85-1.368C28.235 14.569 25.155 13 19.971 13c-5.15 0-8.225 1.549-8.869 2.612C12.937 16.355 15.94 17 20 17z" fill="#c2e8ff"></path><path d="M19.971 13c-5.15 0-8.225 1.549-8.869 2.612.298.121.632.238.992.351.615-.615 3.09-1.963 7.877-1.963 4.818 0 7.298 1.367 7.892 1.976.356-.111.691-.225.987-.344C28.235 14.569 25.155 13 19.971 13z" fill="#7496c4"></path></svg>