<svg viewBox="0 0 40 40" xmlns="http://www.w3.org/2000/svg"><path fill="none" stroke="#66798f" stroke-linecap="round" stroke-miterlimit="10" d="M23.462 3.5v33"></path><path d="M23.19 35.5a.69.69 0 01-.69-.69V5.19c0-.381.31-.69.69-.69h.619c.381 0 .69.31.69.69v29.62a.69.69 0 01-.69.69h-.619z" fill="#b0c1d4"></path><path d="M23.81 5a.19.19 0 01.19.19v29.62a.19.19 0 01-.19.19h-.62a.19.19 0 01-.19-.19V5.19a.19.19 0 01.19-.19h.62m0-1h-.62A1.19 1.19 0 0022 5.19v29.62c0 .657.533 1.19 1.19 1.19h.62A1.19 1.19 0 0025 34.81V5.19A1.19 1.19 0 0023.81 4z" fill="#66798f"></path><path fill="none" stroke="#66798f" stroke-linecap="round" stroke-miterlimit="10" d="M30.462 3.5v33"></path><path d="M30.19 35.5a.69.69 0 01-.69-.69V5.19c0-.381.31-.69.69-.69h.619c.381 0 .69.31.69.69v29.62a.69.69 0 01-.69.69h-.619z" fill="#b0c1d4"></path><path d="M30.81 5a.19.19 0 01.19.19v29.62a.19.19 0 01-.19.19h-.62a.19.19 0 01-.19-.19V5.19a.19.19 0 01.19-.19h.62m0-1h-.62A1.19 1.19 0 0029 5.19v29.62c0 .657.533 1.19 1.19 1.19h.62A1.19 1.19 0 0032 34.81V5.19A1.19 1.19 0 0030.81 4z" fill="#66798f"></path><path fill="none" stroke="#66798f" stroke-linecap="round" stroke-miterlimit="10" d="M9.462 3.5v33"></path><path d="M9.19 35.5a.69.69 0 01-.69-.69V5.19c0-.38.31-.69.69-.69h.62c.381 0 .69.31.69.69v29.62a.69.69 0 01-.69.69h-.62z" fill="#b0c1d4"></path><path d="M9.81 5a.19.19 0 01.19.19v29.62a.19.19 0 01-.19.19h-.62a.19.19 0 01-.19-.19V5.19A.19.19 0 019.19 5h.62m0-1h-.62A1.19 1.19 0 008 5.19v29.62c0 .657.533 1.19 1.19 1.19h.62A1.19 1.19 0 0011 34.81V5.19A1.19 1.19 0 009.81 4z" fill="#66798f"></path><path fill="none" stroke="#66798f" stroke-linecap="round" stroke-miterlimit="10" d="M16.462 3.5v33"></path><path d="M16.19 35.5a.69.69 0 01-.69-.69V5.19c0-.381.31-.69.69-.69h.619c.381 0 .69.31.69.69v29.62a.69.69 0 01-.69.69h-.619z" fill="#b0c1d4"></path><path d="M16.81 5a.19.19 0 01.19.19v29.62a.19.19 0 01-.19.19h-.62a.19.19 0 01-.19-.19V5.19a.19.19 0 01.19-.19h.62m0-1h-.62A1.19 1.19 0 0015 5.19v29.62c0 .657.533 1.19 1.19 1.19h.62A1.19 1.19 0 0018 34.81V5.19A1.19 1.19 0 0016.81 4z" fill="#66798f"></path><path d="M5 33.5A2.503 2.503 0 012.5 31V9c0-1.379 1.122-2.5 2.5-2.5h30c1.378 0 2.5 1.121 2.5 2.5v22c0 1.379-1.122 2.5-2.5 2.5H5z" fill="#bae0bd"></path><path d="M35 7c1.103 0 2 .897 2 2v22c0 1.103-.897 2-2 2H5c-1.103 0-2-.897-2-2V9c0-1.103.897-2 2-2h30m0-1H5a3 3 0 00-3 3v22a3 3 0 003 3h30a3 3 0 003-3V9a3 3 0 00-3-3z" fill="#5e9c76"></path><circle cx="6" cy="10" r="1" fill="#fff"></circle><circle cx="10" cy="10" r="1" fill="#fff"></circle><circle cx="14" cy="10" r="1" fill="#fff"></circle><circle cx="18" cy="10" r="1" fill="#fff"></circle><circle cx="22" cy="10" r="1" fill="#fff"></circle><circle cx="26" cy="10" r="1" fill="#fff"></circle><circle cx="30" cy="10" r="1" fill="#fff"></circle><circle cx="34" cy="10" r="1" fill="#fff"></circle><circle cx="34" cy="14" r="1" fill="#fff"></circle><circle cx="34" cy="18" r="1" fill="#fff"></circle><circle cx="34" cy="22" r="1" fill="#fff"></circle><circle cx="34" cy="26" r="1" fill="#fff"></circle><circle cx="6" cy="14" r="1" fill="#fff"></circle><circle cx="6" cy="18" r="1" fill="#fff"></circle><circle cx="6" cy="22" r="1" fill="#fff"></circle><circle cx="6" cy="26" r="1" fill="#fff"></circle><circle cx="6" cy="30" r="1" fill="#fff"></circle><circle cx="10" cy="30" r="1" fill="#fff"></circle><circle cx="14" cy="30" r="1" fill="#fff"></circle><circle cx="18" cy="30" r="1" fill="#fff"></circle><circle cx="22" cy="30" r="1" fill="#fff"></circle><circle cx="26" cy="30" r="1" fill="#fff"></circle><circle cx="30" cy="30" r="1" fill="#fff"></circle><circle cx="34" cy="30" r="1" fill="#fff"></circle></svg>