<svg viewBox="0 0 40 40" xmlns="http://www.w3.org/2000/svg"><path d="M5 37.5A2.503 2.503 0 012.5 35V5c0-1.379 1.122-2.5 2.5-2.5h30c1.378 0 2.5 1.121 2.5 2.5v30c0 1.379-1.122 2.5-2.5 2.5H5z" fill="#bae0bd"></path><path d="M35 3c1.103 0 2 .897 2 2v30c0 1.103-.897 2-2 2H5c-1.103 0-2-.897-2-2V5c0-1.103.897-2 2-2h30m0-1H5a3 3 0 00-3 3v30a3 3 0 003 3h30a3 3 0 003-3V5a3 3 0 00-3-3z" fill="#5e9c76"></path><path d="M14 27.5c-.827 0-1.5-.673-1.5-1.5V14c0-.827.673-1.5 1.5-1.5h12c.827 0 1.5.673 1.5 1.5v12c0 .827-.673 1.5-1.5 1.5H14z" fill="#b0c1d4"></path><path d="M26 13c.551 0 1 .449 1 1v12c0 .551-.449 1-1 1H14c-.551 0-1-.449-1-1V14c0-.551.449-1 1-1h12m0-1H14a2 2 0 00-2 2v12a2 2 0 002 2h12a2 2 0 002-2V14a2 2 0 00-2-2z" fill="#66798f"></path><circle cx="14" cy="6" r="1" fill="#fff"></circle><circle cx="18" cy="6" r="1" fill="#fff"></circle><circle cx="22" cy="6" r="1" fill="#fff"></circle><circle cx="26" cy="6" r="1" fill="#fff"></circle><circle cx="14" cy="34" r="1" fill="#fff"></circle><circle cx="18" cy="34" r="1" fill="#fff"></circle><circle cx="22" cy="34" r="1" fill="#fff"></circle><circle cx="26" cy="34" r="1" fill="#fff"></circle><circle cx="34" cy="14" r="1" fill="#fff"></circle><circle cx="34" cy="18" r="1" fill="#fff"></circle><circle cx="34" cy="22" r="1" fill="#fff"></circle><circle cx="34" cy="26" r="1" fill="#fff"></circle><circle cx="6" cy="14" r="1" fill="#fff"></circle><circle cx="6" cy="18" r="1" fill="#fff"></circle><circle cx="6" cy="22" r="1" fill="#fff"></circle><circle cx="6" cy="26" r="1" fill="#fff"></circle></svg>