<svg viewBox="0 0 40 40" xmlns="http://www.w3.org/2000/svg"><path d="M3.162 34.5C1.541 33.283.5 30.962.5 28.534c0-2.144 1.309-4.669 3.111-6.005l.282-.209-.101-.336A6.941 6.941 0 013.5 20c0-3.22 1.776-5.718 4.635-6.519l.349-.098.016-.361C8.69 8.733 12.263 5.5 16.811 5.5c3.56 0 6.521 1.798 7.728 4.692l.128.308H25c3.318 0 5.933 2.244 6.507 5.585l.043.252.229.112C34.005 17.54 35.5 20.172 35.5 23c0 .212-.013.422-.032.629l-.032.351.32.148c1.564.727 2.745 2.91 2.745 5.079 0 1.107-.26 3.814-2.639 5.293h-32.7z" fill="#e1ebf2"></path><path d="M16.81 6c3.354 0 6.138 1.68 7.267 4.385l.257.615H25c3.066 0 5.483 2.078 6.014 5.169l.087.504.459.225C33.618 17.907 35 20.359 35 23c0 .197-.012.392-.03.584l-.064.701.638.296c1.4.65 2.455 2.638 2.455 4.625 0 1.004-.228 3.43-2.286 4.793H3.335C1.928 32.859 1 30.708 1 28.534c0-1.998 1.224-4.354 2.909-5.603l.565-.418-.202-.673A6.376 6.376 0 014 20c0-2.986 1.636-5.299 4.27-6.037l.697-.195.032-.723C9.177 9.028 12.536 6 16.81 6m0-1C12.115 5 8.206 8.355 8 13c-3.113.872-5 3.608-5 7 0 .74.112 1.454.314 2.128C1.495 23.475 0 26.097 0 28.534 0 31.039 1.096 33.662 3 35h33c2.125-1.25 3-3.583 3-5.793 0-2.209-1.167-4.665-3.034-5.532.02-.223.034-.447.034-.675 0-2.918-1.545-5.797-4-7-.599-3.484-3.345-6-7-6-1.318-3.158-4.554-5-8.19-5z" fill="#788b9c"></path><path d="M31.7 26.071c.185-.491.3-1.017.3-1.571 0-2.401-1.91-4.361-4.282-4.478.172-.477.282-.985.282-1.522a4.5 4.5 0 00-4.5-4.5c-.399 0-.922.057-1.507.154.001-.048.007-.109.007-.154a5 5 0 00-10 0c0 .494.074 1.202.208 2.021-.07-.003-.137-.021-.208-.021a5 5 0 00-5 5c0 1.174.421 2.239 1.098 3.092C5.776 24.52 4 26.559 4 29c0 2.75 2.25 5 5 5h22c2.2 0 4-1.8 4-4 0-1.961-1.432-3.594-3.3-3.929z" fill="#b6c9d6"></path><path fill="#f78f8f" d="M15 34l-6-4h6l-3-8 4 3v-9l4 9 4-5-2 7 6-2-5 6h6l-6 3z"></path><path fill="#ffeea3" d="M18 34l-3-2h2.5l-.5-4 2 3 2-2-1 3h3l-3 2z"></path></svg>