<svg viewBox="0 0 40 40" xmlns="http://www.w3.org/2000/svg"><path fill="#fff" d="M11.5 21.5h24v7h-24z"></path><path d="M35 22v6H12v-6h23m1-1H11v8h25v-8z" fill="#66798f"></path><path d="M35.5 28.5v-7h1.833a2.17 2.17 0 012.167 2.167v2.667a2.17 2.17 0 01-2.167 2.167H35.5z" fill="#f78f8f"></path><path d="M37.333 22A1.67 1.67 0 0139 23.667v2.667c0 .918-.748 1.666-1.667 1.666H36v-6h1.333m0-1H35v8h2.333A2.667 2.667 0 0040 26.333v-2.667A2.667 2.667 0 0037.333 21z" fill="#c74343"></path><path fill="#f5ce85" d="M.5 21.5h11v7H.5z"></path><path d="M11 22v6H1v-6h10m1-1H0v8h12v-8z" fill="#967a44"></path><path fill="#c74343" d="M36 22h1v1h-1zM36 24h1v1h-1zM36 26h1v1h-1zM37 27h1v1h-1zM37 25h1v1h-1zM37 23h1v1h-1zM38 22h1v1h-1zM38 24h1v1h-1zM38 26h1v1h-1z"></path><path d="M28.5 7.5c1.392 0 4.967-.488 6 5 2.126.437 4 2.078 4 7M24.5 3.5s-1 2.68-1 5.28c0 7.395 12 5.974 12 10.72" fill="none" stroke="#788b9c" stroke-linecap="round" stroke-linejoin="round" stroke-miterlimit="10"></path><circle cx="3.5" cy="23.5" r=".5" fill="#f5dfb5"></circle><circle cx="5.5" cy="24.5" r=".5" fill="#f5dfb5"></circle><circle cx="7.5" cy="23.5" r=".5" fill="#f5dfb5"></circle><g><circle cx="8.5" cy="25.5" r=".5" fill="#f5dfb5"></circle></g><g><circle cx="6.5" cy="26.5" r=".5" fill="#f5dfb5"></circle></g><g><circle cx="3.5" cy="26.5" r=".5" fill="#f5dfb5"></circle></g></svg>