<svg viewBox="0 0 40 40" xmlns="http://www.w3.org/2000/svg"><path d="M32 13c0 .485 1 3.673 1 2 0-3.859 2.641-8 4-8a2 2 0 100-4c-.364 0-.716.081-1 .268-2.016 1.326-4 6.982-4 9.732zM28 4a2 2 0 114 0c0 .864-.562 1.564-1.315 1.88-1.482.62-.857 6.959-.435 10.037.098.716-.528 1.236-.604 1.104C29.477 16.728 28 13.984 28 4z" fill="#7a4f34"></path><path d="M22 38.5c-10.258 0-17.089-1.243-19.508-1.979-.536-.163-.991-.542-.992-.694 0-.002.057-.266 1-.571 2.228-.722 7.975-2.337 9.627-2.772 7.05-1.855 11.531-5.071 14.101-10.118.643-1.263.593-1.889.321-3.635A6.715 6.715 0 0126.5 18c0-3.032 2.467-5.5 5.5-5.5s5.5 2.468 5.5 5.5a5.507 5.507 0 01-3.667 5.18l-.333.118V27c0 6.556-4.944 11.5-11.5 11.5z" fill="#d6aa70"></path><path d="M32 13c2.757 0 5 2.243 5 5 0 2.11-1.34 4.003-3.334 4.709l-.666.235V27c0 6.271-4.729 11-11 11-10.202 0-16.971-1.23-19.363-1.957a1.82 1.82 0 01-.375-.165c.101-.045.229-.094.392-.147 2.069-.67 7.781-2.286 9.601-2.765 7.199-1.894 11.78-5.191 14.419-10.375.705-1.384.655-2.1.377-3.895l-.001-.028-.005-.044A4.797 4.797 0 0127 18c0-2.757 2.243-5 5-5m0-1a6 6 0 00-6 6c0 .255.021.504.052.75 0 .002-.005.003-.004.005.278 1.782.307 2.26-.265 3.384C23.123 27.364 18.474 30.296 12 32c-1.755.462-7.495 2.081-9.654 2.78-2.508.812-.911 1.943.001 2.22 2.553.776 9.401 2 19.653 2 6.901 0 12-5.28 12-12v-3.349A5.997 5.997 0 0032 12z" fill="#7a4f34"></path><path d="M10.438 32.948C9.459 32.902 1.5 28.973 1.5 25c0-6.448 5.051-11.5 11.5-11.5 6.771 0 11.5 4.317 11.5 10.5 0 0 .015.921.016 1.102-2.895 3.919-8.142 6.847-14.078 7.846z" fill="#ffc49c"></path><path d="M13 14c6.477 0 11 4.112 11 10 0 .069.003.225.006.408l.009.528c-2.826 3.735-7.87 6.526-13.581 7.505C9.018 32.187 2 28.449 2 25c0-6.168 4.832-11 11-11m0-1C6.254 13 1 18.254 1 25c0 4.398 8.342 8.449 9.449 8.449a.264.264 0 00.051-.004c5.547-.929 11.313-3.742 14.513-8.177C25.022 25.08 25 24.19 25 24c0-6.746-5.254-11-12-11z" fill="#a16a4a"></path><path d="M1.5 25.035c0 6.75 4.697 9.472 9.45 9.472 6.582 0 9.055-5.299 8.466-9.419-.524-3.669-3.851-6.029-7.52-5.505-2.935.419-4.599 2.667-4.318 5.932C7.753 27.545 9.453 28.5 11 28.5c1.641 0 2.344-1.094 2.5-2" fill="#ffc49c" stroke="#a16a4a" stroke-linecap="round" stroke-miterlimit="10"></path></svg>