<svg viewBox="0 0 40 40" xmlns="http://www.w3.org/2000/svg"><path d="M7 16.5c-.827 0-1.5-.673-1.5-1.5v-1c0-.827.673-1.5 1.5-1.5h26c.827 0 1.5.673 1.5 1.5v1c0 .827-.673 1.5-1.5 1.5H7z" fill="#f5ce85"></path><path d="M33 13c.551 0 1 .449 1 1v1c0 .551-.449 1-1 1H7c-.551 0-1-.449-1-1v-1c0-.551.449-1 1-1h26m0-1H7a2 2 0 00-2 2v1a2 2 0 002 2h26a2 2 0 002-2v-1a2 2 0 00-2-2z" fill="#967a44"></path><path d="M8.332 22.214L9.441 9.777A3.592 3.592 0 0113 6.5h14a3.592 3.592 0 013.559 3.274l1.109 12.439H8.332z" fill="#c2e8ff"></path><path d="M27 7a3.09 3.09 0 013.061 2.822l1.06 11.892H8.879l1.06-11.898A3.09 3.09 0 0113 7h14m0-1H13a4.07 4.07 0 00-4.057 3.733L7.786 22.714h24.429L31.057 9.733A4.07 4.07 0 0027 6z" fill="#967a44"></path><path d="M5.5 27.5V21c0-1.93 1.57-3.5 3.5-3.5h22c1.93 0 3.5 1.57 3.5 3.5v6.5h-29z" fill="#f5ce85"></path><path d="M31 18c1.654 0 3 1.346 3 3v6H6v-6c0-1.654 1.346-3 3-3h22m0-1H9a4 4 0 00-4 4v7h30v-7a4 4 0 00-4-4z" fill="#967a44"></path><path fill="#fff" d="M32 23v3h-4v-3zM12 23v3H8v-3z"></path><path d="M13.5 28.5V24c0-.827.673-1.5 1.5-1.5h10c.827 0 1.5.673 1.5 1.5v4.5h-13z" fill="#c8d1db"></path><path d="M25 23c.551 0 1 .449 1 1v4H14v-4c0-.551.449-1 1-1h10m0-1H15a2 2 0 00-2 2v5h14v-5a2 2 0 00-2-2z" fill="#66798f"></path><g><path d="M1.705 37.5c.522-1.584 1.719-5.765 1.792-11h33.007c.073 5.234 1.27 9.415 1.792 11H1.705z" fill="#dcd5f2"></path><path d="M36.014 27a39.122 39.122 0 001.6 10H2.386a39.114 39.114 0 001.6-10h32.028M37 26H3c0 6.799-2 12-2 12h38s-2-5.203-2-12z" fill="#8b75a1"></path></g><g><path d="M17.634 6.5l.825-3.437c.08-.331.358-.563.678-.563h1.727c.319 0 .598.232.678.564l.824 3.436h-4.732z" fill="#f78f8f"></path><path d="M20.863 3c.087 0 .166.074.192.18L21.732 6h-3.463l.677-2.82c.025-.106.103-.18.191-.18h1.726m0-1h-1.726c-.551 0-1.031.39-1.164.947L17 7h6l-.973-4.053A1.209 1.209 0 0020.863 2z" fill="#c74343"></path></g><path d="M2.374 37H37.61c-.29-.988-.829-3.051-1.129-5H3.52c-.246 1.668-.846 4.168-1.146 5z" fill="#f0edf7"></path></svg>