<svg viewBox="0 0 40 40" xmlns="http://www.w3.org/2000/svg"><path d="M11 38.5c-5.238 0-9.5-4.262-9.5-9.5v-3.5h37V29c0 5.238-4.262 9.5-9.5 9.5H11z" fill="#99c49d"></path><path d="M38 26v3c0 4.963-4.037 9-9 9H11c-4.963 0-9-4.037-9-9v-3h36m1-1H1v4c0 5.523 4.477 10 10 10h18c5.523 0 10-4.477 10-10v-4z" fill="#5e9c76"></path><path d="M11 34.5c-5.238 0-9.5-4.262-9.5-9.5s4.262-9.5 9.5-9.5h18c5.238 0 9.5 4.262 9.5 9.5s-4.262 9.5-9.5 9.5H11z" fill="#bae0bd"></path><path d="M29 16c4.963 0 9 4.037 9 9s-4.037 9-9 9H11c-4.963 0-9-4.037-9-9s4.037-9 9-9h18m0-1H11C5.477 15 1 19.477 1 25s4.477 10 10 10h18c5.523 0 10-4.477 10-10s-4.477-10-10-10z" fill="#5e9c76"></path><path d="M12.5 29.5c-2.757 0-5-2.243-5-5s2.243-5 5-5h15c2.757 0 5 2.243 5 5s-2.243 5-5 5h-15z" fill="#99c49d"></path><path d="M27.5 20c2.481 0 4.5 2.019 4.5 4.5S29.981 29 27.5 29h-15C10.019 29 8 26.981 8 24.5s2.019-4.5 4.5-4.5h15m0-1h-15a5.5 5.5 0 100 11h15a5.5 5.5 0 100-11z" fill="#5e9c76"></path><g><circle cx="34" cy="6" r="4.5" fill="#dbf2ff"></circle><path d="M34 2c2.206 0 4 1.794 4 4s-1.794 4-4 4-4-1.794-4-4 1.794-4 4-4m0-1a5 5 0 10.001 10.001A5 5 0 0034 1z" fill="#7496c4"></path></g><g><circle cx="32" cy="25" r="2.5" fill="#dbf2ff"></circle><path d="M32 23c1.103 0 2 .897 2 2s-.897 2-2 2-2-.897-2-2 .897-2 2-2m0-1a3 3 0 100 6 3 3 0 000-6z" fill="#7496c4"></path></g><g><circle cx="27" cy="17" r="3.5" fill="#dbf2ff"></circle><path d="M27 14c1.654 0 3 1.346 3 3s-1.346 3-3 3-3-1.346-3-3 1.346-3 3-3m0-1a4 4 0 100 8 4 4 0 000-8z" fill="#7496c4"></path></g></svg>