<svg viewBox="0 0 40 40" xmlns="http://www.w3.org/2000/svg"><path d="M9 26.5c-.827 0-1.5-.673-1.5-1.5V3c0-.827.673-1.5 1.5-1.5h13c.827 0 1.5.673 1.5 1.5v22c0 .827-.673 1.5-1.5 1.5H9z" fill="#ffc49c"></path><path d="M22 2c.551 0 1 .449 1 1v22c0 .551-.449 1-1 1H9c-.551 0-1-.449-1-1V3c0-.551.449-1 1-1h13m0-1H9a2 2 0 00-2 2v22a2 2 0 002 2h13a2 2 0 002-2V3a2 2 0 00-2-2z" fill="#b08159"></path><path d="M19 38.5c-4.136 0-7.5-3.364-7.5-7.5V17c0-1.378 1.122-2.5 2.5-2.5s2.5 1.122 2.5 2.5v9.5H22c.827 0 1.5-.673 1.5-1.5V13.902l4.406 2.752a5.407 5.407 0 012.277 2.729l2.962 6.26a5.81 5.81 0 01.345 2.394 5.823 5.823 0 01-.621 2.274l-4.176 8.19H19z" fill="#ffeea3"></path><path d="M24 14.804l3.656 2.284a4.902 4.902 0 012.059 2.471l.015.039.018.038 2.927 6.182a5.32 5.32 0 01.316 2.187 5.347 5.347 0 01-.566 2.078L28.387 38H19c-3.86 0-7-3.14-7-7V17c0-1.103.897-2 2-2s2 .897 2 2v10h6c1.103 0 2-.897 2-2V14.804M23 13v12a1 1 0 01-1 1h-5v-9c0-1.65-1.35-3-3-3s-3 1.35-3 3v14a8 8 0 008 8h10l4.315-8.464a6.361 6.361 0 00.282-5.107l-2.946-6.221a5.88 5.88 0 00-2.48-2.977L23 13z" fill="#ba9b48"></path><path d="M24 19v6a2 2 0 01-2 2h-6c0 1.493 1.507 3 3 3h5c1.493 0 3-1.326 3-3 0-3.848-3-8-3-8z" fill="#e8d47b"></path><path d="M23 25c0 .551-.449 1-1 1h-5v1h5a2 2 0 002-2V12h-1v13z" fill="#b08159"></path></svg>