<svg viewBox="0 0 40 40" xmlns="http://www.w3.org/2000/svg"><path fill="#c5d4de" d="M8.707 33.293L8 34l-6-6 .707-.707zM4.707 33.293L4 34 .5 30.5l.707-.707zM12.707 33.293L12 34 1.5 23.5l.707-.707z"></path><path fill="#c5d4de" d="M7.292 33.293l25.5-25.5.707.707L7.999 34zM3.293 33.292l26-26L30 8 4 34zM1.292 31.293l23.5-23.5.707.707L1.999 32zM1.292 27.293l20-20 .707.707-20 20zM1.292 23.293l15.5-15.5.707.707L1.999 24zM1.793 18.793L14.586 6l.707.707L2.5 19.5zM1.292 15.293l8.5-8.5.708.707L2 16zM11.293 33.292l26-26L38 8 12 34zM15.292 33.293l23-23L39 11 16 34zM19.292 33.293l19-19 .707.707-19 19zM23.292 33.292l15-15L39 19 24 34zM27.292 33.292l10.5-10.5.707.708L28 34zM31.292 33.293l6.5-6.5.707.707-6.5 6.5zM35.292 33.293l2.647-2.647.707.707L35.999 34z"></path><path fill="#c5d4de" d="M16.708 33.293L16 34 1.854 19.854l.707-.707zM20.707 33.292L20 34 1.854 15.853l.707-.707zM24.707 33.293L24 34 2 12l.707-.707zM28.707 33.293L28 34 2 8l.707-.707zM32.707 33.293L32 34 6 8l.707-.707zM36.707 33.293L36 34 10.5 8.5l.708-.706zM38.707 31.293L38 32 14.5 8.5l.708-.706zM38.707 27.293L38 28 18 8l.708-.706zM38.707 23.293L38 24 22 8l.707-.707zM38.707 19.293L38 20 26 8l.707-.707zM38.707 15.293L38 16l-8-8 .707-.707z"></path><path fill="#8bb7f0" d="M37.5 33.5v-25h-35v25h-2v-27h39v27z"></path><path d="M39 7v26h-1V8H2v25H1V7h38m1-1H0v28h3V9h34v25h3V6z" fill="#4e7ab5"></path></svg>