<svg viewBox="0 0 40 40" xmlns="http://www.w3.org/2000/svg"><path fill="#99c99e" d="M1 23h23l14.999 16H1z"></path><path fill="#5e9c76" d="M37.591 39h1.408L24 23H1v1h22.567z"></path><path fill="#fff" d="M34.623 39h1.364L23 25H1v1h21.564z"></path><path fill="#66798f" d="M23 2h-1v24h1V2z"></path><path d="M34 12.5c-1.346 0-2.377-.241-3.469-.496-1.064-.248-2.163-.504-3.531-.504-1.875 0-3.585.473-4.5.782V2.351c.745-.255 2.691-.851 4.642-.851 1.242 0 2.247.236 3.311.486 1.074.253 2.185.514 3.547.514 1.609 0 2.788-.363 3.499-.671l.001 9.902c-.415.242-1.544.769-3.5.769z" fill="#f78f8f"></path><path d="M27.142 2c1.184 0 2.161.23 3.197.473C31.441 2.732 32.581 3 34 3c1.241 0 2.248-.21 2.999-.453L37 11.429c-.491.233-1.469.571-3 .571-1.288 0-2.293-.234-3.356-.482C29.553 11.263 28.426 11 27 11c-1.553 0-2.997.313-4 .603V2.712C23.866 2.437 25.501 2 27.142 2m10.857-1S36.606 2 34 2s-4.258-1-6.858-1C24.541 1 22 2 22 2v11s2.349-1 5-1 4.225 1 7 1 4-1 4-1l-.001-11z" fill="#c74343"></path><path d="M28.893 32h-2.021C17.216 32 13.708 26.964 13 25.744V25h-1v1c.152.296 3.563 7 14.872 7h3.021a85.51 85.51 0 01-1-1z" fill="#fff"></path></svg>