<svg viewBox="0 0 40 40" xmlns="http://www.w3.org/2000/svg"><path d="M30.796 38.5c-.777-.039-14.138-2.654-22.938-4.404-3.683-.743-6.358-4.04-6.358-7.839V1.501l16-.001v17.895l15.943 3.806c.189.072 5.908 2.226 4.947 8.903-.8 5.562-5.099 6.395-7.594 6.396z" fill-rule="evenodd" clip-rule="evenodd" fill="#f88f8f"></path><path d="M17 2v17.789l.768.183 15.498 3.7c.58.225 5.498 2.322 4.629 8.36-.709 4.932-4.254 5.968-7.065 5.969-.926-.071-14.186-2.668-22.871-4.395C4.506 32.909 2 29.819 2 26.257V2.001L17 2m1-1L1 1.001v25.256c0 4.048 2.825 7.535 6.761 8.329 0 0 22.19 4.414 23.031 4.414 1.915 0 7.173-.424 8.093-6.825.958-6.659-4.356-9.109-5.326-9.46L18 19V1z" fill="#c74343"></path><path fill-rule="evenodd" clip-rule="evenodd" fill="#c74343" d="M3 2h1v3.071H3zM9 2h1v3.071H9zM6 2h1v3.071H6zM11.999 2h1v3.071h-1zM14.998 2h1v3.071h-1z"></path><path fill-rule="evenodd" clip-rule="evenodd" fill="#c74343" d="M1 5h17v1H1zM11.932 34.439a8.697 8.697 0 00.566-3.094c0-4.757-3.814-8.619-8.511-8.619-.825 0-1.622.119-2.376.341v-1.399a9.75 9.75 0 012.376-.293c5.434 0 9.845 4.467 9.845 9.97 0 1.285-.241 2.514-.679 3.643l-1.221-.549z"></path><path d="M15.508 11.314L12.61 8l-2.898 3.314L6.814 8l-2.898 3.314L2 9.123v4.686L3.916 16l2.898-3.314L9.712 16l2.898-3.314L15.508 16 17 14.294V9.607l-1.492 1.707z" fill-rule="evenodd" clip-rule="evenodd" fill="#ea8182"></path><g><path fill-rule="evenodd" clip-rule="evenodd" fill="#ea8182" d="M31.59 26.272l-2.169-3.527-4.414-1.062 2.069 3.365-3.856 2.083 2.311 3.757-3.856 2.083 2.043 3.723 4.406.818-1.935-3.316 3.856-2.083-2.311-3.757z"></path></g></svg>