<svg viewBox="0 0 40 40" xmlns="http://www.w3.org/2000/svg"><path d="M23.234 31v-1.357h-6.468V31H5.442L1.661 15.875c-.363-1.453-.096-3.001.733-4.249s2.153-2.093 3.633-2.321l2.155-.332.122-.188a4.988 4.988 0 015.653-2.068l.363.11.204-.319C15.728 4.625 17.775 3.5 20 3.5s4.272 1.125 5.476 3.008l.204.319.363-.11a4.998 4.998 0 015.653 2.07l.122.188 2.155.332c1.48.228 2.804 1.074 3.633 2.321s1.096 2.796.733 4.249L34.558 31H23.234z" fill="#d6aa70"></path><path d="M20 4a5.979 5.979 0 015.055 2.777l.408.639.725-.221a4.486 4.486 0 015.088 1.864l.244.376.443.068 1.934.297a4.783 4.783 0 013.293 2.103 4.783 4.783 0 01.664 3.85L34.167 30.5H23.734v-1.357h-7.468V30.5H5.833L2.146 15.754a4.783 4.783 0 01.664-3.85 4.781 4.781 0 013.293-2.103l1.934-.297.443-.069.244-.376a4.486 4.486 0 015.088-1.863l.725.221.408-.639A5.977 5.977 0 0120 4m0-1a6.987 6.987 0 00-5.897 3.239 5.492 5.492 0 00-6.218 2.276l-1.934.297a5.837 5.837 0 00-4.775 7.185L5.052 31.5h12.214v-1.357h5.468V31.5h12.214l3.876-15.503a5.838 5.838 0 00-4.775-7.185l-1.934-.297a5.492 5.492 0 00-6.218-2.276A6.987 6.987 0 0020 3z" fill="#8c6a3f"></path><g fill="#edc898"><path d="M17 4.812a6.012 6.012 0 00-2 1.89v20.466h2V4.812zM7 27.169h2V8.686c-.096.12-.191.242-.276.373l-.244.376-.443.068L7 9.663v17.506zM35 10.117v17.052l2-8v-7.496a4.754 4.754 0 00-2-1.556zM31 27.169h2V9.663l-1.037-.159-.443-.069-.244-.376A4.668 4.668 0 0031 8.686v18.483zM25 27.169V6.703a6.002 6.002 0 00-2-1.89V27.17h2zM27 7.037v20.132h2V7.264A4.495 4.495 0 0027.5 7c-.168 0-.334.018-.5.037zM3 19.169l2 8V10.117a4.748 4.748 0 00-2 1.557v7.495zM11 7.264v19.905h2V7.037A4.391 4.391 0 0012.5 7c-.52 0-1.025.096-1.5.264zM19 27.169h2V4.094C20.672 4.038 20.34 4 20 4s-.672.038-1 .094v23.075z"></path></g><path fill="#f5ce85" d="M1.5 28h4v6.5h-4z"></path><path d="M5 28.5V34H2v-5.5h3m1-1H1V35h5v-7.5z" fill="#967a44"></path><path fill="#f5ce85" d="M34.5 28h4v6.5h-4z"></path><path d="M38 28.5V34h-3v-5.5h3m1-1h-5V35h5v-7.5z" fill="#967a44"></path><path d="M1.5 32.357V22.5c0-1.654 1.346-3 3-3s3 1.346 3 3v1.076l.57-.081c.07-.01 7.091-.995 11.93-.995 4.84 0 11.86.985 11.93.995l.57.081V22.5c0-1.654 1.346-3 3-3s3 1.346 3 3v9.857h-37z" fill="#d6aa70"></path><path d="M35.5 20c1.379 0 2.5 1.121 2.5 2.5v9.357H2V22.5C2 21.121 3.122 20 4.5 20S7 21.121 7 22.5v1.651l1.14-.161C8.21 23.98 15.194 23 20 23c4.803 0 11.79.98 11.86.99l1.14.161V22.5c0-1.379 1.121-2.5 2.5-2.5m0-1a3.5 3.5 0 00-3.5 3.5v.5s-7.069-1-12-1-12 1-12 1v-.5a3.5 3.5 0 10-7 0v10.357h38V22.5a3.5 3.5 0 00-3.5-3.5z" fill="#8c6a3f"></path><circle cx="26" cy="15" r="1" fill="#704e34"></circle><circle cx="14" cy="15" r="1" fill="#704e34"></circle><g fill="#edc898"><path d="M21 23.013A42.856 42.856 0 0020 23c-.324 0-.659.005-1 .013v8.844h2v-8.844zM17 23.099c-.667.039-1.339.087-2 .141v8.618h2v-8.759zM9 31.857v-7.981c-.524.068-.845.112-.86.114L7 24.151v7.706h2zM13 23.42c-.719.071-1.392.144-2 .213v8.224h2V23.42zM29 23.634a137.84 137.84 0 00-2-.213v8.437h2v-8.224zM25 23.239a87.499 87.499 0 00-2-.141v8.759h2v-8.618zM3 20.513v11.344h2V20.051a2.471 2.471 0 00-2 .462zM35 20.051v11.807h2V20.513a2.471 2.471 0 00-2-.462zM33 24.151l-1.14-.161a77.964 77.964 0 00-.86-.114v7.981h2v-7.706z"></path></g></svg>