<svg viewBox="0 0 40 40" xmlns="http://www.w3.org/2000/svg"><path d="M4 38.5A2.503 2.503 0 011.5 36v-8L5.493 3.411A2.23 2.23 0 017.688 1.5h24.625c1.095 0 2.037.817 2.192 1.901l4.002 24.679L38.5 36c0 1.378-1.121 2.5-2.5 2.5H4z" fill="#b0c1d4"></path><path d="M32.313 2c.848 0 1.577.633 1.7 1.49L38 28.081V36c0 1.103-.897 2-2 2H4c-1.103 0-2-.897-2-2v-7.919L5.99 3.472A1.723 1.723 0 017.687 2h24.626m0-1H7.687A2.714 2.714 0 005 3.33L1 28v8a3 3 0 003 3h32a3 3 0 003-3v-8L35 3.33A2.714 2.714 0 0032.313 1z" fill="#66798f"></path><path d="M7.687 2c-.848 0-1.577.633-1.697 1.472L2.013 28h35.974L34.013 3.49a1.728 1.728 0 00-1.7-1.49H7.687z" fill="#e1ebf2"></path><path d="M33 31a2 2 0 10-.001 3.999A2 2 0 0033 31z" fill="#fff"></path><path fill="#8bb7f0" d="M12.123 16.5H16.5v-15h7v15h4.377L20 25.252z"></path><path d="M23 2v15h3.755L20 24.505 13.245 17H17V2h6m1-1h-8v15h-5l9 10 9-10h-5V1z" fill="#4e7ab5"></path><path fill="#8bb7f0" d="M17 1h6v2h-6z"></path></svg>