<svg viewBox="0 0 40 40" xmlns="http://www.w3.org/2000/svg"><path fill="#4e7ab5" d="M1.577 37.5l2.857-20h31.132l2.857 20z"></path><path d="M35.133 18l2.714 19H2.153l2.714-19h30.266M36 17H4L1 38h38l-3-21z" fill="#8bb7f0"></path><path fill="#8bb7f0" d="M4 22h32v1H4zM3 27h34v1H3zM2 32h36v1H2z"></path><path fill="none" stroke="#8bb7f0" stroke-miterlimit="10" d="M8.69 37.38l2.206-19.478M17 17l-1 21M31.31 37.436l-2.206-19.478M23 17l1 21"></path><path fill="#ffeea3" d="M18.207 13.5H15.5v-2.707L13.707 9 15.5 7.207V4.5h2.707L20 2.707 21.793 4.5H24.5v2.707L26.293 9 24.5 10.793V13.5h-2.707L20 15.293z"></path><path d="M20 3.414l1.293 1.293.293.293H24v2.414l.293.293L25.586 9l-1.293 1.293-.293.293V13h-2.414l-.293.293L20 14.586l-1.293-1.293-.293-.293H16v-2.414l-.293-.293L14.414 9l1.293-1.293.293-.293V5h2.414l.293-.293L20 3.414M20 2l-2 2h-3v3l-2 2 2 2v3h3l2 2 2-2h3v-3l2-2-2-2V4h-3l-2-2z" fill="#ba9b48"></path><circle cx="20" cy="9" r="3" fill="#f5ce85"></circle></svg>