<svg viewBox="0 0 40 40" xmlns="http://www.w3.org/2000/svg"><path fill="none" stroke="#36404d" stroke-width="2" stroke-miterlimit="10" d="M27 10l8.214-8.214"></path><path fill="#b0c1d4" d="M15.701 19.114l14.4-14.4 2.198 2.279-14.4 14.401z"></path><path d="M30.094 5.427l1.504 1.56L17.906 20.68l-1.504-1.56L30.094 5.427M30.107 4L15 19.107l2.893 3L33 7l-2.893-3z" fill="#788b9c"></path><path d="M6 31c-1.499 1.262-3 3.698-3 4.94 0 2.04 2.019 2.064 2.036 2.06 1.882 0 3.863-.979 5.463-2.403C12 34.262 13.417 33 15 33c1.55 0 2.373.683 3.168 1.344C19.036 35.065 19.988 36 22 36c3.113 0 9.001-8.38 11.23-11.36" fill="none" stroke="#66798f" stroke-width="2" stroke-miterlimit="10"></path><path d="M7.885 32.5a3.371 3.371 0 01-2.394-.992 3.389 3.389 0 010-4.786c.969-.694 9.996-7.316 9.996-10.203 0-.082.003-.148.008-.202.333.24.956.896 1.433 1.396.349.366.722.759 1.109 1.139.362.355.736.702 1.09 1.031.578.536 1.338 1.24 1.595 1.62-.061.006-.14.011-.24.011-2.919 0-9.513 9.027-10.255 10.057-.588.577-1.438.929-2.342.929z" fill="#f78f8f"></path><path d="M15.838 17.306c.242.241.502.515.725.75.353.371.731.768 1.123 1.152.366.359.743.708 1.1 1.039.299.277.653.605.949.899-3.129 1.033-8.205 7.767-9.863 10.061A2.868 2.868 0 017.885 32c-.77 0-1.495-.3-2.04-.845a2.888 2.888 0 01-.051-4.027c2.28-1.656 8.96-6.71 10.044-9.822m-.506-1.58c-.22 0-.345.231-.345.793 0 2.715-9.849 9.849-9.849 9.849a3.885 3.885 0 000 5.494C5.896 32.621 6.89 33 7.885 33s1.988-.379 2.747-1.138c0 0 7.103-9.849 9.849-9.849 2.063 0-.166-1.63-2.095-3.519-1.335-1.308-2.5-2.768-3.054-2.768z" fill="#c74343"></path><path fill="none" stroke="#c74343" stroke-width="2" stroke-miterlimit="10" d="M15 15l7 7"></path></svg>