<svg viewBox="0 0 40 40" xmlns="http://www.w3.org/2000/svg"><path d="M38.5 33h-37a.501.501 0 01-.5-.5c0-.275.225-.5.5-.5h37c.275 0 .5.225.5.5s-.225.5-.5.5zM1.5 20h37c.275 0 .5.225.5.5s-.225.5-.5.5h-37a.501.501 0 01-.5-.5c0-.275.225-.5.5-.5zM38.5 8h-37a.501.501 0 01-.5-.5c0-.275.225-.5.5-.5h37c.275 0 .5.225.5.5s-.225.5-.5.5z" fill="#66798f"></path><circle cx="17.5" cy="7.5" r="3" fill="#bae0bd"></circle><path d="M17.5 5C18.878 5 20 6.122 20 7.5S18.878 10 17.5 10 15 8.879 15 7.5 16.122 5 17.5 5m0-1a3.5 3.5 0 100 7 3.5 3.5 0 000-7z" fill="#5e9c76"></path><circle cx="31.5" cy="20.5" r="3" fill="#bae0bd"></circle><path d="M31.5 18c1.378 0 2.5 1.122 2.5 2.5S32.879 23 31.5 23c-1.378 0-2.5-1.122-2.5-2.5s1.122-2.5 2.5-2.5m0-1a3.5 3.5 0 100 7 3.5 3.5 0 000-7z" fill="#5e9c76"></path><g><circle cx="11.5" cy="32.5" r="3" fill="#bae0bd"></circle><path d="M11.5 30c1.378 0 2.5 1.122 2.5 2.5S12.878 35 11.5 35 9 33.878 9 32.5s1.122-2.5 2.5-2.5m0-1a3.5 3.5 0 100 7 3.5 3.5 0 000-7z" fill="#5e9c76"></path></g></svg>