<svg viewBox="0 0 40 40" xmlns="http://www.w3.org/2000/svg"><path fill="#f5ce85" d="M13.265 16.67l1.666-1.666 3.285 2.861-1.87 1.87-4.566 1.484z"></path><path d="M14.954 15.687l2.529 2.203-1.406 1.406-3.516 1.143 1.142-3.501 1.251-1.251m-.047-1.367l-2.081 2.081L11 21.998l5.614-1.825 2.333-2.334-4.04-3.519z" fill="#967a44"></path><path fill="#36404d" d="M12.061 18.754L11.002 22l3.256-1.058z"></path><path d="M23.906 6.016l.885-.884c.41-.411.955-.636 1.536-.636a2.174 2.174 0 011.536 3.709l-.884.884-3.073-3.073z" fill="#f78f8f"></path><path d="M26.327 4.996a1.675 1.675 0 011.183 2.856l-.53.53-2.366-2.366.53-.53c.316-.316.736-.49 1.183-.49m0-1c-.684 0-1.368.261-1.89.783L23.2 6.016l3.78 3.78 1.237-1.237a2.673 2.673 0 00-1.89-4.563z" fill="#c74343"></path><g><path d="M16.893 19.187a1.322 1.322 0 00-.118-.161c-.221-.258-.522-.424-.9-.495-.176-.793-.803-1.211-1.384-1.36a1.536 1.536 0 00-.713-1.015l8.516-8.525 3.073 3.073-8.474 8.483z" fill="#ffeea3"></path><path d="M22.293 8.338l2.366 2.366-7.75 7.759a1.993 1.993 0 00-.631-.342c-.255-.704-.813-1.132-1.383-1.346a2.001 2.001 0 00-.385-.645l7.783-7.792m0-1.415l-9.466 9.478h.015c.137 0 1.194.038 1.194 1.205 0 0 1.388.043 1.388 1.386 1.38 0 1.191 1.182 1.191 1.182l9.459-9.47-3.781-3.781z" fill="#ba9b48"></path></g><g><path fill="#d9e7f5" d="M21.831 8.093l2.301-2.301 3.072 3.072-2.3 2.3z"></path><path d="M24.131 6.499l2.366 2.366-1.594 1.594-2.366-2.366 1.594-1.594m0-1.415l-3.008 3.008 3.78 3.78 3.008-3.008-3.78-3.78z" fill="#788b9c"></path></g><g><path fill="#66798f" d="M21 32v-6h-2v6h-6l7 7 7-7z"></path></g><path fill="#66798f" d="M1 1h1v26H1zM38 1h1v26h-1z"></path><path fill="#66798f" d="M1 27v-1h38v1z"></path></svg>