<svg viewBox="0 0 40 40" xmlns="http://www.w3.org/2000/svg"><path d="M31.929 2C33.593 2 35 3.374 35 5v12H5V5c0-1.359 1.402-3 3.143-3h23.786m0-1H8.143C5.904 1 4 3.019 4 5v12c0 .55.45 1 1 1h30c.55 0 1-.45 1-1V5c0-2.2-1.871-4-4.071-4z" fill="#8b75a1"></path><path d="M6.584 26.5c.151-.948.522-3.189 1.308-7.555C9.087 12.307 13.5 8.5 20 8.5c6.687 0 10.873 3.612 12.108 10.446.789 4.366 1.159 6.607 1.309 7.554H6.584z" fill="#b3add8"></path><path d="M20 9c6.505 0 10.413 3.376 11.616 10.035A437.26 437.26 0 0132.83 26H7.171c.191-1.164.557-3.324 1.213-6.966C9.532 12.657 13.766 9 20 9m0-1C13.041 8 8.603 12.176 7.4 18.857 6.27 25.133 6 27 6 27h28s-.266-1.867-1.4-8.143C31.318 11.764 26.959 8 20 8z" fill="#8b75a1"></path><path d="M20 37.5c-7.444 0-13.5-4.71-13.5-10.5S12.556 16.5 20 16.5 33.5 21.21 33.5 27 27.444 37.5 20 37.5z" fill="#ffeea3"></path><path d="M20 17c7.168 0 13 4.486 13 10s-5.832 10-13 10S7 32.514 7 27s5.832-10 13-10m0-1c-7.732 0-14 4.925-14 11s6.268 11 14 11 14-4.925 14-11-6.268-11-14-11z" fill="#8b75a1"></path><path d="M6.334 30.5a.834.834 0 01-.833-.833v-5.333c0-.459.374-.833.833-.833H8.5v7H6.334z" fill="#dcd5f2"></path><path d="M8 24v6H6.333A.334.334 0 016 29.667v-5.333c0-.184.15-.334.333-.334H8m1-1H6.333C5.597 23 5 23.597 5 24.333v5.333C5 30.403 5.597 31 6.333 31H9v-8z" fill="#8b75a1"></path><path d="M31.5 30.5v-7h2.167c.459 0 .833.374.833.833v5.333a.834.834 0 01-.833.833H31.5z" fill="#dcd5f2"></path><path d="M33.667 24c.183 0 .333.15.333.333v5.333c0 .184-.15.334-.333.334H32v-6h1.667m0-1H31v8h2.667c.736 0 1.333-.597 1.333-1.333v-5.333c0-.737-.597-1.334-1.333-1.334z" fill="#8b75a1"></path><g><path d="M17.333 38.5a.834.834 0 01-.833-.833V35.5h7v2.167a.834.834 0 01-.833.833h-5.334z" fill="#dcd5f2"></path><path d="M23 36v1.667c0 .183-.15.333-.333.333h-5.333a.334.334 0 01-.334-.333V36h6m1-1h-8v2.667c0 .736.597 1.333 1.333 1.333h5.333c.737 0 1.334-.597 1.334-1.333V35z" fill="#8b75a1"></path></g><g><path d="M16.5 18.5V7.333c0-.459.374-.833.833-.833h5.333c.459 0 .833.374.833.833V18.5H16.5z" fill="#dcd5f2"></path><path d="M22.667 7c.183 0 .333.15.333.333V18h-6V7.333c0-.183.15-.333.333-.333h5.334m0-1h-5.333C16.597 6 16 6.597 16 7.333V19h8V7.333C24 6.597 23.403 6 22.667 6z" fill="#8b75a1"></path></g><path d="M28 23h.138a8.711 8.711 0 00-1.227-1H25v-1.021a11.738 11.738 0 00-1-.367V22h-2v-1.852a13.525 13.525 0 00-1-.111V22h-2v-1.963c-.338.025-.672.062-1 .111V22h-2v-1.388c-.344.109-.676.233-1 .367V22h-1.912a8.769 8.769 0 00-1.227 1H12v2h-1.562a5.121 5.121 0 00-.318 1H12v2h-1.881c.073.341.175.676.318 1H12v2h-.138c.365.359.775.694 1.227 1H15v1.021c.324.135.656.259 1 .367V32h2v1.852c.328.049.662.086 1 .111V32h2v1.963c.338-.025.672-.062 1-.111V32h2v1.388c.344-.109.676-.233 1-.367V32h1.912a8.769 8.769 0 001.227-1H28v-2h1.562c.143-.324.245-.659.318-1H28v-2h1.881a5.121 5.121 0 00-.318-1H28v-2zm-13 8h-2v-2h2v2zm0-3h-2v-2h2v2zm0-3h-2v-2h2v2zm3 6h-2v-2h2v2zm0-3h-2v-2h2v2zm0-3h-2v-2h2v2zm3 6h-2v-2h2v2zm0-3h-2v-2h2v2zm0-3h-2v-2h2v2zm3 6h-2v-2h2v2zm0-3h-2v-2h2v2zm0-3h-2v-2h2v2zm3 6h-2v-2h2v2zm0-3h-2v-2h2v2zm0-3h-2v-2h2v2z" fill="#fff"></path></svg>