<svg viewBox="0 0 40 40" xmlns="http://www.w3.org/2000/svg"><path fill="#f2faff" d="M4.407 35.593L.559 21.464 21.333.707l17.96 17.96-20.736 20.774z"></path><path d="M21.333 1.414l17.253 17.253-20.178 20.216-13.593-3.698-3.698-13.572L21.333 1.414m0-1.414L0 21.315 4 36l14.705 4L40 18.667 21.333 0z" fill="#788b9c"></path><path fill="#f78f8f" d="M4.407 35.593L.559 21.465l4.518-4.504 3.849 14.113 14.115 3.85-4.485 4.517z"></path><path d="M4.821 17.922L8.369 30.93l.15.551.551.15 13.011 3.549-3.675 3.702-13.591-3.697-3.697-13.572 3.703-3.691M5.333 16L0 21.315 4 36l14.705 4L24 34.667l-14.667-4-4-14.667z" fill="#c74343"></path><g fill="#36404d"><path d="M19.335 23.164a2.693 2.693 0 00-.818-.577 2.36 2.36 0 00-.887-.192c-.287.004-.61.033-.934.115a8.263 8.263 0 00-.99.335c-.241.102-.461.185-.661.254a3.31 3.31 0 01-.519.135 1.034 1.034 0 01-.36.001.412.412 0 01-.218-.121.373.373 0 01-.108-.191.588.588 0 01.009-.275c.026-.11.081-.233.161-.363.087-.14.197-.274.335-.414a3.727 3.727 0 01.769-.579c.147-.083.301-.155.46-.216.154-.06.305-.102.462-.13l.471-.085-1.7-1.699-.157.07a4.898 4.898 0 00-.876.516 7.82 7.82 0 00-.908.791 5.694 5.694 0 00-.83 1.042c-.229.375-.383.76-.458 1.144a2.51 2.51 0 00.045 1.175c.11.388.337.754.675 1.091.434.435.94.685 1.504.742.55.057 1.177-.062 1.869-.348.252-.107.493-.202.718-.287.218-.08.417-.139.593-.173.161-.032.308-.037.439-.017a.474.474 0 01.27.141.42.42 0 01.113.192c.02.071.02.158-.001.255a1.289 1.289 0 01-.158.366 2.443 2.443 0 01-.359.441 3.364 3.364 0 01-2.086.958l-.535.046 1.813 1.813.145-.046a4.144 4.144 0 001.078-.548c.36-.246.713-.541 1.049-.878.327-.326.612-.674.848-1.036a3.38 3.38 0 00.486-1.136 2.414 2.414 0 00-.04-1.179c-.109-.391-.348-.772-.709-1.133zM28.948 17.123l-4.577-7.99-1.736 1.712 2.976 4.598-4.699-2.899-1.719 1.695 2.753 4.902-4.625-3.055-1.847 1.822 7.919 4.695 1.828-1.806-2.693-4.713 4.65 2.782z"></path></g></svg>