<svg viewBox="0 0 40 40" xmlns="http://www.w3.org/2000/svg"><path fill="#f2faff" d="M13.748 37.519L2.651 10.257 26.288.654l11.139 27.261-9.075 11.555z"></path><path d="M26.014 1.305l10.84 26.53-8.719 11.102-14.034-1.875-10.798-26.53 22.711-9.227m.549-1.302L2 9.982l11.395 27.993 15.175 2.028L38 27.995 26.563.003z" fill="#788b9c"></path><path fill="#f78f8f" d="M13.749 37.519l-2.391-5.922 14.571 1.937 9.07-11.541 2.428 5.922-9.075 11.555z"></path><path d="M34.861 22.977l1.992 4.859-8.718 11.101-14.032-1.875-1.961-4.855 13.437 1.786.566.075.353-.449 8.363-10.642m.274-1.968l-9.424 11.992-15.139-2.013 2.822 6.987 15.175 2.028L38 27.995l-2.865-6.986z" fill="#c74343"></path><g fill="#36404d"><path d="M24.355 20.929l-6.08 2.484 1.566 3.832 1.489-.609-.859-2.104.822-.335.75 1.837 1.489-.608-.75-1.837.787-.321.807 1.973 1.492-.609zM18.658 21.496c.25 0 .518-.058.799-.172.26-.106.467-.236.633-.396.167-.16.3-.349.394-.56.091-.206.154-.432.188-.67.034-.23.054-.487.057-.765 0-.188.007-.356.016-.507.01-.14.027-.263.056-.372a.681.681 0 01.09-.218.227.227 0 01.11-.084.192.192 0 01.117-.015.358.358 0 01.153.071c.06.044.121.109.181.192.065.093.122.2.174.326.039.096.072.2.101.306.028.114.05.23.064.351.014.118.02.236.015.355a1.763 1.763 0 01-.041.332l-.102.465 1.771-.722-.004-.173a3.61 3.61 0 00-.099-.742 5.667 5.667 0 00-.276-.836 4.214 4.214 0 00-.469-.858 2.575 2.575 0 00-.649-.644 1.885 1.885 0 00-.825-.31 1.901 1.901 0 00-.951.148 1.827 1.827 0 00-.949.824c-.195.358-.297.819-.301 1.374 0 .197-.004.384-.011.558a2.682 2.682 0 01-.048.43.86.86 0 01-.105.276.269.269 0 01-.262.128.304.304 0 01-.137-.059.864.864 0 01-.183-.191 1.78 1.78 0 01-.186-.349 2.34 2.34 0 01-.051-1.61l.165-.511-1.893.774-.014.152c-.023.271-.002.571.063.891a5.296 5.296 0 00.754 1.824c.186.272.4.495.638.658a1.79 1.79 0 001.017.329zM17.154 15.585c.257-.105.47-.238.635-.396.168-.162.3-.351.392-.56.092-.208.155-.434.189-.67.035-.233.054-.49.056-.764a8.48 8.48 0 01.017-.508c.01-.14.026-.263.054-.37a.689.689 0 01.089-.217.236.236 0 01.111-.087.203.203 0 01.121-.014.368.368 0 01.15.07.874.874 0 01.182.193c.064.091.121.197.174.326.039.096.072.2.101.306a2.489 2.489 0 01.079.706 1.795 1.795 0 01-.041.333l-.102.464 1.772-.724-.005-.173a3.741 3.741 0 00-.099-.742 5.962 5.962 0 00-.277-.834 4.102 4.102 0 00-.469-.859 2.57 2.57 0 00-.649-.643 1.87 1.87 0 00-.824-.311 1.905 1.905 0 00-.952.148 1.832 1.832 0 00-.949.825c-.194.357-.296.818-.301 1.375.001.196-.004.383-.011.556a2.597 2.597 0 01-.048.43.852.852 0 01-.104.274.273.273 0 01-.136.114.226.226 0 01-.125.017.319.319 0 01-.14-.061.858.858 0 01-.183-.19 1.743 1.743 0 01-.185-.35 2.345 2.345 0 01-.052-1.61l.163-.51-1.891.771-.014.152c-.023.271-.002.57.063.89.063.312.162.633.294.956.125.31.28.602.46.868.185.271.399.493.637.66a1.81 1.81 0 001.017.327c.253.004.521-.054.801-.168z"></path></g></svg>