<svg viewBox="0 0 40 40" xmlns="http://www.w3.org/2000/svg"><path fill="#f2faff" d="M2.573 27.92L13.712.659l23.636 9.603-11.096 27.262-14.605 1.951z"></path><path d="M13.986 1.31l22.711 9.227-10.799 26.529-14.034 1.875L3.146 27.84l10.84-26.53M13.437.008L2 28l9.431 12.008 15.175-2.028L38 9.987 13.437.008z" fill="#788b9c"></path><path fill="#f78f8f" d="M2.573 27.92l2.428-5.922 9.07 11.541 14.571-1.937-2.391 5.922-14.604 1.951z"></path><path d="M5.139 22.982l8.363 10.642.352.449.566-.075 13.437-1.786-1.961 4.855-14.032 1.875L3.146 27.84l1.993-4.858m-.274-1.968L2 28l9.431 12.008 15.175-2.028 2.822-6.987-15.139 2.013-9.424-11.992z" fill="#c74343"></path><g fill="#36404d"><path d="M26.583 11.67l-5.474-4.026-.7 1.774 3.098 2.028-3.698-.507-.68 1.722 3.062 2.294-3.718-.629-.743 1.881 6.745.804.719-1.827-2.985-2.201 3.675.453zM22.549 19.216c-.192-.234-.472-.423-.828-.561a2.005 2.005 0 00-.719-.146h-.016a1.767 1.767 0 00-.669.138 2.66 2.66 0 00-.598.359 5.582 5.582 0 00-.563.518 8.064 8.064 0 01-.36.359 1.988 1.988 0 01-.293.231.645.645 0 01-.215.097.225.225 0 01-.139-.012.217.217 0 01-.098-.073.383.383 0 01-.062-.152.92.92 0 010-.268 1.65 1.65 0 01.098-.354c.037-.097.084-.196.136-.294.058-.102.121-.2.194-.299.07-.095.147-.185.232-.269.081-.081.168-.152.257-.214l.394-.269-1.785-.688-.115.13a3.597 3.597 0 00-.438.608 5.816 5.816 0 00-.37.798 4.172 4.172 0 00-.248.947c-.043.321-.031.629.033.913.065.292.196.558.389.792.194.231.461.414.794.543.432.165.855.182 1.257.05.388-.127.777-.395 1.161-.796.135-.144.266-.276.39-.398.114-.113.225-.206.329-.279a.895.895 0 01.264-.13.286.286 0 01.179.012.235.235 0 01.103.076.308.308 0 01.059.135.823.823 0 01.001.268 1.64 1.64 0 01-.104.379 2.364 2.364 0 01-1.065 1.208l-.468.26 1.905.734.114-.102a3.11 3.11 0 00.563-.692c.167-.27.315-.572.441-.898.12-.312.207-.629.26-.947a2.522 2.522 0 00-.013-.916 1.831 1.831 0 00-.387-.798zM20.372 24.727c-.195-.234-.474-.423-.829-.561a2.004 2.004 0 00-.718-.146h-.016a1.772 1.772 0 00-.67.138 2.61 2.61 0 00-.597.359 5.438 5.438 0 00-.565.519 7.086 7.086 0 01-.359.358 2.003 2.003 0 01-.291.231.684.684 0 01-.216.098.215.215 0 01-.139-.013.221.221 0 01-.097-.071.382.382 0 01-.063-.156.822.822 0 01.001-.267 1.61 1.61 0 01.096-.354 2.568 2.568 0 01.562-.862c.081-.081.168-.152.257-.213l.397-.269-1.79-.688-.115.128a3.794 3.794 0 00-.437.608 5.745 5.745 0 00-.371.799 4.174 4.174 0 00-.247.946c-.043.321-.031.629.033.913.066.294.196.56.388.791.195.233.463.417.795.544.429.165.852.183 1.257.05.388-.128.777-.395 1.161-.795.135-.145.266-.277.389-.398a2.8 2.8 0 01.329-.279.885.885 0 01.265-.13.25.25 0 01.176.011.235.235 0 01.104.074.313.313 0 01.06.139c.015.071.016.16.002.264-.015.113-.05.241-.104.381a2.337 2.337 0 01-1.066 1.209l-.469.26 1.906.733.113-.102c.202-.179.392-.412.563-.69.167-.269.312-.563.442-.899.122-.317.209-.636.26-.947a2.509 2.509 0 00-.013-.917 1.796 1.796 0 00-.384-.796z"></path></g></svg>