<svg viewBox="0 0 40 40" xmlns="http://www.w3.org/2000/svg"><path d="M15.229 34.732A15.451 15.451 0 014.5 20c0-8.547 6.953-15.5 15.5-15.5S35.5 11.453 35.5 20c0 6.77-4.36 12.682-10.729 14.732l2.915-6.193A11.504 11.504 0 0031.5 20c0-6.341-5.159-11.5-11.5-11.5S8.5 13.659 8.5 20c0 3.249 1.389 6.355 3.814 8.539l2.915 6.193z" fill="#c2e8ff"></path><path d="M20 5c8.271 0 15 6.729 15 15a14.953 14.953 0 01-9.259 13.845l2.354-5.003A12 12 0 0032 20c0-6.617-5.383-12-12-12S8 13.383 8 20c0 3.357 1.42 6.567 3.904 8.842l2.354 5.003A14.954 14.954 0 015 20c0-8.271 6.729-15 15-15m0-1C11.163 4 4 11.163 4 20c0 7.506 5.176 13.788 12.149 15.514l-3.426-7.28A10.964 10.964 0 019 20c0-6.075 4.925-11 11-11s11 4.925 11 11c0 3.281-1.445 6.218-3.723 8.234l-3.426 7.28C30.824 33.788 36 27.506 36 20c0-8.837-7.164-16-16-16z" fill="#7496c4"></path><path fill="#8bb7f0" d="M1.5 19.5h7v1h-7z"></path><path fill="#4e7ab5" d="M9 19H1v2h8v-2z"></path><path fill="#8bb7f0" d="M19.5 1.5h1v7h-1z"></path><path d="M20 2v6-6m1-1h-2v8h2V1z" fill="#4e7ab5"></path><g><path fill="#8bb7f0" d="M31.5 19.5h7v1h-7z"></path><path fill="#4e7ab5" d="M39 19h-8v2h8v-2z"></path></g><g><path fill="#f78f8f" d="M12.977 22.9L20 25.534l7.023-2.634L20 37.826z"></path><path d="M26.048 23.8L20 36.651 13.952 23.8l5.697 2.136.351.132.351-.132 5.697-2.136M28 22l-8 3-8-3 8 17 8-17z" fill="#c74343"></path></g></svg>