<svg viewBox="0 0 40 40" xmlns="http://www.w3.org/2000/svg"><path fill="#f2faff" d="M.707 18.667L18.667.707l20.774 20.757-3.848 14.129-14.15 3.848z"></path><path d="M18.667 1.414l20.216 20.199-3.697 13.573-13.593 3.697L1.414 18.667 18.667 1.414m0-1.414L0 18.667 21.295 40 36 36l4-14.685L18.667 0z" fill="#788b9c"></path><path fill="#f78f8f" d="M16.959 34.924l14.115-3.85 3.849-14.113 4.518 4.504-3.848 14.128-14.149 3.848z"></path><path d="M35.179 17.922l3.703 3.691-3.697 13.572-13.591 3.697-3.675-3.702 13.011-3.549.551-.15.15-.551 3.548-13.008M34.667 16l-4 14.667-14.667 4L21.295 40 36 36l4-14.685L34.667 16z" fill="#c74343"></path><g fill="#36404d"><path d="M26.284 22.454l1.444-1.443-3.78-3.781-6.295 6.295 3.916 3.917 1.44-1.438-2.225-2.226 1.005-1.005 1.943 1.943 1.44-1.439-1.943-1.943.967-.968zM18.707 19.37c.121-.282.186-.58.192-.887a3.567 3.567 0 00-.115-.934 7.674 7.674 0 00-.335-.991 10.144 10.144 0 01-.254-.662 3.311 3.311 0 01-.135-.516 1.07 1.07 0 01-.001-.362.422.422 0 01.119-.217.384.384 0 01.194-.109.59.59 0 01.275.01c.109.026.232.081.362.161.141.088.276.198.414.336.104.104.204.22.304.349a3.506 3.506 0 01.491.88 2.5 2.5 0 01.13.461l.085.471 1.699-1.699-.071-.157a4.885 4.885 0 00-.514-.876 7.841 7.841 0 00-.792-.907 5.686 5.686 0 00-1.042-.83 3.466 3.466 0 00-1.145-.459 2.503 2.503 0 00-1.173.046c-.387.11-.754.337-1.092.675-.435.434-.685.939-.742 1.505-.054.548.063 1.176.348 1.868.107.253.202.493.287.72.081.216.14.415.173.593.032.165.038.308.017.438a.476.476 0 01-.142.271.401.401 0 01-.191.111.535.535 0 01-.255-.001 1.208 1.208 0 01-.365-.158 2.42 2.42 0 01-.442-.359 3.289 3.289 0 01-.651-.936 3.358 3.358 0 01-.307-1.151l-.046-.535-1.813 1.813.046.145c.11.351.295.713.548 1.079.247.361.542.714.877 1.049.327.327.676.612 1.035.848.371.241.754.404 1.138.485a2.395 2.395 0 001.178-.039c.39-.109.771-.349 1.133-.71.262-.261.456-.537.578-.819z"></path></g></svg>