<svg viewBox="0 0 40 40" xmlns="http://www.w3.org/2000/svg"><path fill="#f2faff" d="M7.5 31.721V.5h25v31.221L20 39.413z"></path><path d="M32 1v30.441l-12 7.385-12-7.385V1h24m1-1H7v32l13 8 13-8V0z" fill="#788b9c"></path><path fill="#f78f8f" d="M7.5 31.721v-6.826L20 32.587l12.5-7.692v6.826L20 39.413z"></path><path d="M32 25.79v5.652l-12 7.385-12-7.386V25.79l11.476 7.062.524.322.524-.323L32 25.79M33 24l-13 8-13-8v8l13 8 13-8v-8z" fill="#c74343"></path><path d="M23.173 15.486c-.415-.424-.945-.743-1.479-.999-.627-.3-1.285-.533-1.91-.838-.599-.292-1.369-.753-1.369-1.509 0-.474.854-1.14 1.585-1.14 1.446 0 2.135.098 3 .448v-2.17c-.235-.06-.46-.131-.715-.169-.859-.131-2.282-.187-3.465.086a4.556 4.556 0 00-1.459.599 3.036 3.036 0 00-.991 1.035c-.246.424-.37.941-.37 1.535 0 .757.228 1.41.676 1.94.45.53 1.147.987 2.072 1.358.383.151.742.299 1.076.447.336.148.637.307.892.471.502.325.989.63.843 1.277-.092.407-.429.723-.809.895-1.038.47-2.395.308-3.439-.049a5.917 5.917 0 01-1.312-.621v2.339c.395.18.916.32 1.448.416 1.16.211 2.55.223 3.709-.015a4.442 4.442 0 001.472-.565c.415-.258.751-.605.997-1.03.249-.426.375-.968.375-1.608 0-.463-.073-.873-.215-1.221a2.846 2.846 0 00-.612-.912z" fill="#36404d"></path></svg>