<svg viewBox="0 0 40 40" xmlns="http://www.w3.org/2000/svg"><path d="M20 38.5C9.799 38.5 1.5 30.201 1.5 20S9.799 1.5 20 1.5 38.5 9.799 38.5 20 30.201 38.5 20 38.5z" fill="#8bb7f0"></path><path d="M20 2c9.925 0 18 8.075 18 18s-8.075 18-18 18S2 29.925 2 20 10.075 2 20 2m0-1C9.507 1 1 9.507 1 20s8.507 19 19 19 19-8.507 19-19S30.493 1 20 1z" fill="#4e7ab5"></path><circle cx="34.5" cy="17.5" r=".5" fill="#fff"></circle><circle cx="32.5" cy="15.5" r=".5" fill="#fff"></circle><circle cx="30.5" cy="13.5" r=".5" fill="#fff"></circle><circle cx="28.5" cy="11.5" r=".5" fill="#fff"></circle><circle cx="26.5" cy="9.5" r=".5" fill="#fff"></circle><circle cx="24.5" cy="7.5" r=".5" fill="#fff"></circle><circle cx="22.5" cy="5.5" r=".5" fill="#fff"></circle><circle cx="25.5" cy="5.5" r=".5" fill="#fff"></circle><circle cx="28.5" cy="5.5" r=".5" fill="#fff"></circle><circle cx="30.5" cy="7.5" r=".5" fill="#fff"></circle><circle cx="32.5" cy="9.5" r=".5" fill="#fff"></circle><circle cx="34.5" cy="11.5" r=".5" fill="#fff"></circle><circle cx="27.5" cy="7.5" r=".5" fill="#fff"></circle><circle cx="29.5" cy="9.5" r=".5" fill="#fff"></circle><circle cx="31.5" cy="11.5" r=".5" fill="#fff"></circle><circle cx="33.5" cy="13.5" r=".5" fill="#fff"></circle><circle cx="35.5" cy="15.5" r=".5" fill="#fff"></circle><path fill="#c2e8ff" d="M10.5 30.5V10.409L14 7.638l3.5 2.771V30.5z"></path><path d="M14 8.275l3 2.375V30h-6V10.651l3-2.376M14 7l-4 3.167V31h8V10.167L14 7z" fill="#4e7ab5"></path><path fill="#7496c4" d="M12 12h4v1h-4zM12 14h4v1h-4zM12 16h4v1h-4zM12 18h4v1h-4zM12 20h4v1h-4zM12 22h4v1h-4zM12 24h4v1h-4zM12 26h4v1h-4z"></path><path d="M24 35.5c-.995 0-1.952-.44-2.624-1.209L21 33.86l-.376.431A3.494 3.494 0 0118 35.5a3.497 3.497 0 01-3.038-1.798l-.165-.294-.445.059c-.116.015-.232.033-.352.033a3.448 3.448 0 01-1.749-.487L12 32.867l-.251.146A3.448 3.448 0 0110 33.5c-1.93 0-3.5-1.57-3.5-3.5s1.57-3.5 3.5-3.5c.605 0 1.193.164 1.749.487l.251.146.251-.146a3.448 3.448 0 013.708.113l.538.364.214-.613A3.496 3.496 0 0120 24.5c.702 0 1.38.207 1.959.6l.538.364.214-.613A3.496 3.496 0 0126 22.5c1.93 0 3.5 1.57 3.5 3.5 0 .269-.041.551-.13.888l-.172.653.7-.027.098-.012A3.502 3.502 0 0133.5 31c0 1.93-1.57 3.5-3.5 3.5a3.45 3.45 0 01-2.252-.844l-.45-.383-.303.508A3.467 3.467 0 0124 35.5z" fill="#bae0bd"></path><path d="M26 23c1.654 0 3 1.346 3 3 0 .225-.036.467-.113.76l-.343 1.304 1.347-.05c.049-.002.097-.007.151-.014A3.004 3.004 0 0133 31c0 1.654-1.346 3-3 3a2.964 2.964 0 01-1.928-.725l-.901-.764-.605 1.015A2.972 2.972 0 0124 35a2.955 2.955 0 01-2.247-1.038L21 33.101l-.753.861A2.955 2.955 0 0118 35a2.999 2.999 0 01-2.602-1.543l-.332-.591-.671.089-.105.015c-.096.014-.191.03-.29.03a2.95 2.95 0 01-1.497-.419L12 32.288l-.503.293A2.95 2.95 0 0110 33c-1.654 0-3-1.346-3-3s1.346-3 3-3a2.95 2.95 0 011.497.419l.503.293.503-.293a2.95 2.95 0 013.176.094l1.075.728.429-1.226A2.997 2.997 0 0120 25c.602 0 1.182.178 1.679.513l1.075.728.429-1.226A2.997 2.997 0 0126 23m0-1c-1.746 0-3.215 1.126-3.761 2.685A3.983 3.983 0 0020 24c-1.746 0-3.215 1.126-3.761 2.685A3.983 3.983 0 0014 26c-.732 0-1.41.211-2 .555A3.955 3.955 0 0010 26a4 4 0 000 8c.732 0 1.41-.211 2-.555.59.344 1.268.555 2 .555.18 0 .352-.03.526-.053C15.211 35.166 16.502 36 18 36a3.972 3.972 0 003-1.38A3.972 3.972 0 0024 36a3.982 3.982 0 003.425-1.963A3.964 3.964 0 0030 35a4 4 0 000-8c-.05 0-.096.013-.146.015.086-.326.146-.662.146-1.015a4 4 0 00-4-4z" fill="#5e9c76"></path><g><path fill="#b0c1d4" d="M5.5 35.5h29v3h-29z"></path><path d="M34 36v2H6v-2h28m1-1H5v4h30v-4z" fill="#66798f"></path></g><g><path fill="#b0c1d4" d="M6.5 32.5h27v3h-27z"></path><path d="M33 33v2H7v-2h26m1-1H6v4h28v-4z" fill="#66798f"></path></g></svg>