<svg viewBox="0 0 40 40" xmlns="http://www.w3.org/2000/svg"><path d="M1.504 38.5c.162-9.926 5.131-14.37 8.113-16.146 1.316-.784 1.833-2.029 2.379-3.348.99-2.389 2.223-5.362 8.743-7.86 2.557-.979 3.572-2.604 4.553-4.174 1.652-2.646 3.361-5.381 13.151-5.47.017 1.187.058 4.24.058 6.214 0 8.342-3.006 10.622-4.996 12.131-.323.245-.617.469-.867.69-1.1.978-1.606 2.286-2.143 3.672-1.103 2.848-2.354 6.075-9.479 7.409-1.56.291-2.635 1.485-3.774 2.749-1.745 1.938-3.723 4.133-8.094 4.133H1.504z" fill="#cee0a1"></path><path d="M37.949 2.009c.019 1.402.051 3.982.051 5.707 0 8.093-2.887 10.283-4.798 11.732-.322.244-.627.475-.897.716-1.19 1.058-1.743 2.485-2.277 3.865-1.107 2.859-2.253 5.816-9.105 7.098-1.726.323-2.856 1.578-4.053 2.906C15.113 35.983 13.296 38 9.148 38H2.017c.315-9.326 5.015-13.525 7.856-15.217 1.459-.869 2.006-2.189 2.585-3.586.954-2.301 2.14-5.164 8.46-7.585 2.713-1.039 3.821-2.812 4.798-4.376 1.552-2.487 3.157-5.055 12.233-5.227M38.934 1c-16.366 0-11.673 7.111-18.375 9.679-10.341 3.962-7.846 9.247-11.199 11.245C5.307 24.339 1 29.47 1 39h8.148c7.495 0 8.361-6.218 11.959-6.891C31.9 30.09 29.76 23.764 32.97 20.911 34.775 19.306 39 17.63 39 7.716 39 5.22 38.934 1 38.934 1z" fill="#5e9c76"></path><path d="M29.595 15.696c-.273 0-.542-.028-.802-.083-.947-.201-1.713-.76-2.157-1.575-.517-.949-.556-2.17-.105-3.348.773-2.024 2.795-3.494 4.808-3.494.273 0 .543.027.802.083.947.2 1.713.76 2.157 1.575.517.949.555 2.169.105 3.347-.772 2.026-2.795 3.495-4.808 3.495z" fill="#bae0bd"></path><path d="M31.339 7.696c.238 0 .473.024.698.072.814.173 1.444.631 1.822 1.326.447.821.475 1.889.077 2.93-.702 1.838-2.527 3.172-4.341 3.172-.238 0-.473-.024-.698-.072-.814-.173-1.444-.631-1.822-1.326-.447-.821-.475-1.889-.077-2.93.702-1.838 2.528-3.172 4.341-3.172m0-1c-2.178 0-4.414 1.559-5.275 3.816-.982 2.572.194 5.075 2.626 5.59.298.063.601.094.906.094 2.178 0 4.414-1.559 5.275-3.816.982-2.572-.194-5.075-2.626-5.59a4.375 4.375 0 00-.906-.094z" fill="#5e9c76"></path><g><path d="M20.023 26.286c-1.291 0-2.353-.526-2.989-1.48-1.311-1.965-.412-5.106 2.004-7.003 1.128-.886 2.43-1.374 3.666-1.374 1.291 0 2.352.526 2.989 1.48 1.311 1.965.412 5.106-2.004 7.003-1.128.886-2.43 1.374-3.666 1.374z" fill="#bae0bd"></path><path d="M22.704 16.929c1.118 0 2.032.447 2.573 1.258 1.149 1.723.28 4.623-1.898 6.332-1.041.817-2.233 1.267-3.357 1.267-1.118 0-2.032-.447-2.573-1.258-1.149-1.723-.28-4.623 1.898-6.332 1.041-.818 2.233-1.267 3.357-1.267m0-1c-1.295 0-2.714.491-3.974 1.48-2.621 2.058-3.567 5.493-2.112 7.674.755 1.132 2.008 1.703 3.405 1.703 1.295 0 2.713-.491 3.974-1.48 2.621-2.058 3.567-5.493 2.112-7.674-.754-1.132-2.007-1.703-3.405-1.703z" fill="#5e9c76"></path></g><g><path d="M10.013 34.429c-1.108 0-2.019-.45-2.564-1.268-1.129-1.692-.348-4.404 1.741-6.044.977-.767 2.102-1.188 3.169-1.188 1.108 0 2.018.45 2.563 1.268 1.129 1.692.348 4.404-1.741 6.044-.976.766-2.101 1.188-3.168 1.188z" fill="#bae0bd"></path><path d="M12.358 26.429c.935 0 1.698.371 2.148 1.045.971 1.455.223 3.916-1.634 5.373-.889.698-1.904 1.082-2.86 1.082-.935 0-1.698-.371-2.148-1.045-.971-1.455-.223-3.916 1.634-5.373.889-.698 1.905-1.082 2.86-1.082m0-1c-1.133 0-2.374.429-3.477 1.295-2.293 1.8-3.121 4.807-1.848 6.715.661.99 1.757 1.49 2.98 1.49 1.133 0 2.374-.429 3.477-1.295 2.293-1.8 3.121-4.807 1.848-6.715-.661-.991-1.757-1.49-2.98-1.49z" fill="#5e9c76"></path></g></svg>