<svg viewBox="0 0 40 40" xmlns="http://www.w3.org/2000/svg"><path d="M7.823 35.5c-.461 0-.881-.234-1.124-.626a1.311 1.311 0 01-.058-1.285L7.9 31.071h2.953L9.004 34.77c-.225.45-.677.73-1.181.73z" fill="#dcd5f2"></path><path d="M10.045 31.571l-1.487 2.975a.819.819 0 01-.735.454.808.808 0 01-.698-.389.81.81 0 01-.036-.799l1.12-2.241h1.836m1.618-1H7.591l-1.397 2.793a1.822 1.822 0 003.258 1.629l2.211-4.422z" fill="#8b75a1"></path><path d="M32.177 35.5c-.503 0-.956-.28-1.181-.73l-1.849-3.699H32.1l1.259 2.517c.206.413.185.893-.058 1.285a1.313 1.313 0 01-1.124.627z" fill="#dcd5f2"></path><path d="M31.791 31.571l1.12 2.241a.81.81 0 01-.036.799.808.808 0 01-.698.389.816.816 0 01-.734-.454l-1.487-2.975h1.835m.618-1h-4.071l2.211 4.422a1.82 1.82 0 103.257-1.628l-1.397-2.794z" fill="#8b75a1"></path><path d="M9.297 33.5a5.51 5.51 0 01-5.458-4.818l-1.091-8.725a12.333 12.333 0 00-1.211-4.001l-.037-.074V15.5h37v.382l-.037.074a12.333 12.333 0 00-1.211 4.001l-1.091 8.725a5.51 5.51 0 01-5.458 4.818H9.297z" fill="#dbf2ff"></path><path d="M37.886 16a12.84 12.84 0 00-1.13 3.895l-1.091 8.725A5.01 5.01 0 0130.703 33H9.297a5.008 5.008 0 01-4.961-4.38l-1.091-8.725A12.87 12.87 0 002.114 16h35.772M39 15H1v1l.09.18a11.914 11.914 0 011.163 3.84l1.091 8.725A5.998 5.998 0 009.297 34h21.406a6 6 0 005.954-5.256l1.091-8.725a11.86 11.86 0 011.163-3.839L39 16v-1z" fill="#7496c4"></path><path fill="none" stroke="#f78f8f" stroke-miterlimit="10" d="M22.5 12V5M26.5 12V7"></path><g><path fill="none" stroke="#f78f8f" stroke-miterlimit="10" d="M14.5 12V5"></path></g><g><path fill="none" stroke="#f78f8f" stroke-miterlimit="10" d="M18.5 12V7"></path></g><g><path d="M20 17.5c-7.676 0-14.671-.518-18.158-.827A1.468 1.468 0 01.5 15.2c0-.875.66-1.54 1.471-1.54l.113.004c4.163.313 12.027.836 17.916.836s13.753-.523 17.917-.835l.112-.004c.812 0 1.471.668 1.471 1.49s-.577 1.455-1.342 1.523c-3.487.308-10.482.826-18.158.826z" fill="#dbf2ff"></path><path d="M38.029 14.16c.535 0 .971.444.971.989v.051a.97.97 0 01-.886.974C34.635 16.483 27.655 17 20 17c-7.655 0-14.635-.517-18.114-.825A.97.97 0 011 15.2v-.06a.976.976 0 011.047-.977C6.215 14.476 14.092 15 20 15c5.908 0 13.785-.524 17.954-.837a.94.94 0 01.075-.003m-36.058-1C.889 13.16 0 14.04 0 15.14v.06c0 1.026.776 1.88 1.798 1.971C5.022 17.456 12.185 18 20 18c7.815 0 14.978-.544 18.202-.829A1.973 1.973 0 0040 15.2v-.05a1.978 1.978 0 00-2.121-1.983C34.087 13.45 25.981 14 20 14s-14.087-.55-17.879-.834a1.918 1.918 0 00-.15-.006z" fill="#7496c4"></path></g></svg>