<svg viewBox="0 0 40 40" xmlns="http://www.w3.org/2000/svg"><path fill="#36404d" d="M19 15h2v6h-2z"></path><path d="M2 36.5c-.827 0-1.5-.673-1.5-1.5v-7.543c0-1.548.994-2.893 2.474-3.347l12.1-3.61h9.854l12.104 3.612a3.48 3.48 0 012.47 3.345V35c0 .827-.673 1.5-1.5 1.5H2z" fill="#edd5f2"></path><path d="M24.854 21l12.026 3.589A2.984 2.984 0 0139 27.457V35c0 .551-.449 1-1 1H2c-.551 0-1-.449-1-1v-7.543c0-1.326.852-2.479 2.113-2.866L15.146 21h9.708M25 20H15L2.827 23.633A4 4 0 000 27.457V35a2 2 0 002 2h36a2 2 0 002-2v-7.543a4 4 0 00-2.827-3.824L25 20z" fill="#95709c"></path><path d="M20 16.5c-2.523 0-4.5-1.977-4.5-4.5 0-1.981 2.956-6.203 4.5-8.193 1.544 1.99 4.5 6.212 4.5 8.193 0 2.523-1.977 4.5-4.5 4.5z" fill="#ffeea3"></path><path d="M20 4.627c1.791 2.376 4 5.817 4 7.373 0 2.243-1.757 4-4 4s-4-1.757-4-4c0-1.556 2.209-4.997 4-7.373M20 3s-5 6.183-5 9c0 2.812 2.239 5 5 5s5-2.188 5-5c0-2.817-5-9-5-9z" fill="#ba9b48"></path><path d="M22 14a2 2 0 11-4 0 13.23 13.23 0 012-4 13.23 13.23 0 012 4z" fill="#fff"></path><path d="M1 27.457V35c0 .551.449 1 1 1h36c.551 0 1-.449 1-1v-7.543c0-.155-.014-.307-.037-.457H1.037a2.998 2.998 0 00-.037.457z" fill="#dbbce2"></path></svg>