<svg viewBox="0 0 40 40" xmlns="http://www.w3.org/2000/svg"><path fill="#dcd5f2" d="M1.5 15.5h4.786v3H1.5z"></path><path d="M5.786 16v2H2v-2h3.786m1-1H1v4h5.786v-4z" fill="#8b75a1"></path><path fill="#dcd5f2" d="M1.5 21.5h4.786v3H1.5z"></path><path d="M5.786 22v2H2v-2h3.786m1-1H1v4h5.786v-4z" fill="#8b75a1"></path><path d="M4.5 35.5v-10h-1v-11h1v-10h3.023c1.653 0 3.187.806 4.103 2.156l5.159 7.844h12.786c4.797 0 8.074 4.382 8.833 5.501-.755 1.118-4.019 5.499-8.833 5.499H16.785l-5.163 7.851A4.942 4.942 0 017.523 35.5H4.5z" fill="#8bb7f0"></path><path d="M7.523 5c1.487 0 2.867.724 3.681 1.924l5.014 7.625.297.451h13.056c4.216 0 7.237 3.635 8.224 5.004-.977 1.37-3.967 4.996-8.224 4.996H16.515l-.296.451-5.006 7.613A4.447 4.447 0 017.523 35H5V25H4V15h1V5h2.523m0-1H4v10H3v12h1v10h3.523c1.815 0 3.51-.891 4.517-2.375L17.054 26h12.517C35.422 26 39 20 39 20s-3.612-6-9.429-6H17.054L12.04 6.375A5.455 5.455 0 007.523 4z" fill="#4e7ab5"></path><g><path d="M30.071 17.223l1.578.421c1.006.268 1.708 1.236 1.708 2.356s-.702 2.089-1.708 2.356l-1.578.421v-5.554z" fill="#c2e8ff"></path><path d="M30.571 17.873l.949.253c.787.21 1.337.98 1.337 1.874s-.55 1.664-1.337 1.874l-.949.253v-4.254m-1-1.302v6.857l2.207-.589C33 22.514 33.857 21.343 33.857 20s-.857-2.514-2.079-2.84l-2.207-.589z" fill="#4e7ab5"></path></g><path fill="#4e7ab5" d="M11 15H4v-1h6zM10 26H4v-1h7z"></path></svg>