<svg viewBox="0 0 40 40" xmlns="http://www.w3.org/2000/svg"><path fill="none" stroke="#7496c4" stroke-width="2" stroke-miterlimit="10" d="M37 21.357v-9.5M3 21.357v-9.5"></path><path d="M16.5 22.5V13c0-5.338 2.513-9.645 3.501-11.133C20.991 3.349 23.5 7.634 23.5 13v9.5h-7z" fill="#8bb7f0"></path><path d="M20.004 2.797C21.114 4.619 23 8.393 23 13v9h-6v-9c0-4.568 1.894-8.368 3.004-10.203M20 1s-4 5.125-4 12v10h8V13c0-6.916-4-12-4-12z" fill="#4e7ab5"></path><path fill="#dcd5f2" d="M24.5 32.714h4V38.5h-4z"></path><path d="M28 33.214V38h-3v-4.786h3m1-1h-5V39h5v-6.786z" fill="#8b75a1"></path><path fill="#dcd5f2" d="M11.5 32.714h4V38.5h-4z"></path><path d="M15 33.214V38h-3v-4.786h3m1-1h-5V39h5v-6.786z" fill="#8b75a1"></path><path fill="#8bb7f0" d="M4.5 31.653V24.5h31v7.153L20 37.466z"></path><path d="M35 25v6.307l-15 5.625-15-5.625V25h30m1-1H4v8l16 6 16-6v-8z" fill="#4e7ab5"></path><path d="M37 34.5c-.827 0-1.5-.673-1.5-1.5V20.5h3V33c0 .827-.673 1.5-1.5 1.5z" fill="#c2e8ff"></path><path d="M38 21v12c0 .551-.449 1-1 1s-1-.449-1-1V21h2m1-1h-4v13a2 2 0 104 0V20z" fill="#7496c4"></path><g><circle cx="37" cy="11" r="1.5" fill="#f78f8f"></circle><path d="M37 10c.551 0 1 .449 1 1s-.449 1-1 1-1-.449-1-1 .449-1 1-1m0-1a2 2 0 10-.001 3.999A2 2 0 0037 9z" fill="#c74343"></path></g><g><path d="M3 34.5c-.827 0-1.5-.673-1.5-1.5V20.5h3V33c0 .827-.673 1.5-1.5 1.5z" fill="#c2e8ff"></path><path d="M4 21v12c0 .551-.449 1-1 1s-1-.449-1-1V21h2m1-1H1v13a2 2 0 104 0V20z" fill="#7496c4"></path></g><g><circle cx="3" cy="11" r="1.5" fill="#f78f8f"></circle><path d="M3 10c.551 0 1 .449 1 1s-.449 1-1 1-1-.449-1-1 .449-1 1-1m0-1a2 2 0 10-.001 3.999A2 2 0 003 9z" fill="#c74343"></path></g><g><path d="M20 34.5a6.508 6.508 0 01-6.5-6.5v-3c0-1.379 1.121-2.5 2.5-2.5h8c1.379 0 2.5 1.121 2.5 2.5v3c0 3.584-2.916 6.5-6.5 6.5z" fill="#c2e8ff"></path><path d="M24 23c1.103 0 2 .897 2 2v3c0 3.308-2.692 6-6 6s-6-2.692-6-6v-3c0-1.103.897-2 2-2h8m0-1h-8a3 3 0 00-3 3v3a7 7 0 1014 0v-3a3 3 0 00-3-3z" fill="#4e7ab5"></path></g><g><path d="M16.5 22.5V22c0-1.93 1.57-3.5 3.5-3.5s3.5 1.57 3.5 3.5v.5h-7z" fill="#c2e8ff"></path><path d="M20 19c1.654 0 3 1.346 3 3h-6c0-1.654 1.346-3 3-3m0-1a4 4 0 00-4 4v1h8v-1a4 4 0 00-4-4z" fill="#4e7ab5"></path></g></svg>