<svg viewBox="0 0 40 40" xmlns="http://www.w3.org/2000/svg"><path d="M12.5 38.5v-1.028c2.969-.342 5-3.729 5-8.472v-.918l-.771.498c-1.206.777-2.383.92-4.266.92-4.858 0-8.963-3.723-8.963-8.13 0-8.157 14.228-18.213 16.478-19.752C22.186 3.365 36.5 14.939 36.5 21.37c0 4.407-4.104 8.13-8.963 8.13-1.883 0-3.06-.143-4.266-.92l-.771-.498V29c0 4.743 2.031 8.13 5 8.472V38.5h-15z" fill="#b6c9d6"></path><path d="M19.96 2.238C24.923 6.161 36 16.036 36 21.37c0 4.136-3.876 7.63-8.463 7.63-1.785 0-2.894-.13-3.995-.84L22 27.165V29c0 4.783 2.01 8.264 5 8.897V38H13v-.103c2.99-.632 5-4.114 5-8.897v-1.835l-1.542.995c-1.101.71-2.21.84-3.995.84C7.876 29 4 25.506 4 21.37 4 13.758 17.008 4.288 19.96 2.238M20 1S3 12.182 3 21.37C3 26.29 7.544 30 12.463 30c1.772 0 3.152-.106 4.537-1 0 4.541-1.973 8-5 8v2h16v-2c-3.027 0-5-3.459-5-8 1.385.894 2.765 1 4.537 1C32.456 30 37 26.29 37 21.37 37 14.109 20 1 20 1z" fill="#788b9c"></path></svg>