<svg viewBox="0 0 40 40" xmlns="http://www.w3.org/2000/svg"><path d="M33.917 2c.055 0 .162.014.253.105l3.726 3.726a.358.358 0 01-.001.505L36.891 7.34l-1.967.26L32.4 5.076l.26-1.968 1.004-1.004A.359.359 0 0133.917 2m0-1c-.347 0-.695.132-.96.397L31.714 2.64l-.37 2.793 3.222 3.222 2.793-.37 1.243-1.243c.53-.53.53-1.389 0-1.919l-3.726-3.726A1.351 1.351 0 0033.917 1z" fill="#967a44"></path><path fill-rule="evenodd" clip-rule="evenodd" fill="#f5ce85" d="M13.764 23.721L32.387 5.1l2.515 2.515L16.28 26.236z"></path><path d="M32.386 5.806l1.808 1.808L16.28 25.528l-1.808-1.808L32.386 5.806m0-1.415L13.058 23.72l3.222 3.222L35.609 7.614l-3.223-3.223z" fill="#967a44"></path><path d="M8.793 38.5c-2.915 0-5.71-.479-6.636-.656-.34-1.802-1.826-10.667 1.247-13.74L9.8 17.707l12.493 12.492-6.396 6.396c-1.246 1.247-3.703 1.905-7.104 1.905z" fill-rule="evenodd" clip-rule="evenodd" fill="#dcd5f2"></path><path d="M9.8 18.414L21.586 30.2l-6.043 6.043C14.393 37.392 12.059 38 8.794 38c-2.581 0-5.076-.384-6.213-.587-.605-3.289-1.314-10.465 1.177-12.956L9.8 18.414M9.8 17l-6.75 6.75c-3.645 3.645-1.32 14.519-1.32 14.519S5.148 39 8.794 39c2.857 0 5.854-.449 7.456-2.05L23 30.2 9.8 17z" fill="#8b75a1"></path><g><path d="M11.186 30.592c-.475 0-.921-.185-1.257-.521s-.521-.782-.521-1.258c0-.475.185-.921.521-1.257l7.311-7.312 2.515 2.516-7.311 7.311a1.768 1.768 0 01-1.258.521z" fill-rule="evenodd" clip-rule="evenodd" fill="#dcd5f2"></path><path d="M17.239 20.953l1.808 1.808-6.957 6.957c-.241.241-.562.374-.904.374s-.663-.133-.904-.374a1.27 1.27 0 01-.374-.904c0-.341.133-.663.374-.904l6.957-6.957m0-1.415l-7.664 7.664a2.278 2.278 0 103.222 3.222l7.664-7.664-3.222-3.222z" fill="#8b75a1"></path></g></svg>