<svg viewBox="0 0 40 40" xmlns="http://www.w3.org/2000/svg"><path d="M20.68 36.5C11.367 36.5 3.5 33.981 3.5 31c0-1.85 2.278-6.5 7.66-6.5 1.131 0 2.216.39 3.473.841 1.513.543 3.228 1.159 5.367 1.159 1.483 0 2.581-.436 3.742-.897 1.364-.542 2.774-1.103 5.098-1.103 6.06 0 7.66 4.252 7.66 6.5 0 3.084-6.949 5.5-15.82 5.5z" fill="#ffeea3"></path><path d="M28.84 25c5.664 0 7.16 3.925 7.16 6 0 2.405-5.857 5-15.32 5C11.133 36 4 33.36 4 31c0-.689.453-2.221 1.7-3.616C6.672 26.297 8.409 25 11.16 25c1.044 0 2.091.376 3.304.811C16.016 26.369 17.774 27 20 27c1.579 0 2.773-.474 3.926-.933C25.247 25.543 26.613 25 28.84 25m0-1c-4.429 0-5.782 2-8.84 2-3.776 0-6.173-2-8.84-2C5.491 24 3 28.914 3 31c0 3.59 8.667 6 17.68 6S37 34.59 37 31c0-2.372-1.726-7-8.16-7z" fill="#ba9b48"></path><path d="M32.616 34.163c-.995 0-2.338-.178-3.893-.384-2.378-.315-5.337-.708-8.724-.708s-6.346.393-8.724.708c-1.555.206-2.897.384-3.893.384-1.737 0-1.882-.55-1.882-1.163 0-3.29 2.21-5.5 5.5-5.5 1.131 0 2.25.39 3.547.842 1.557.543 3.32 1.158 5.453 1.158 1.484 0 2.648-.482 3.88-.993 1.449-.601 2.949-1.222 5.263-1.222 3.567 0 5.357 3.664 5.357 5.714 0 .614-.145 1.164-1.884 1.164z" fill="#ffeea3"></path><path d="M29.143 27.786C32.332 27.786 34 31.18 34 33c0 .37 0 .663-1.384.663-.961 0-2.289-.176-3.827-.38-2.392-.317-5.37-.712-8.789-.712-3.42 0-6.397.395-8.79.712-1.537.204-2.865.38-3.826.38C6 33.663 6 33.37 6 33c0-3.037 1.963-5 5-5 1.046 0 2.129.377 3.383.815C15.977 29.37 17.783 30 20 30c1.584 0 2.848-.524 4.071-1.03 1.405-.582 2.857-1.184 5.072-1.184m0-1C24.724 26.786 23.052 29 20 29c-3.768 0-6.339-2-9-2-3.605 0-6 2.47-6 6 0 1.267.848 1.663 2.384 1.663 2.551 0 7.001-1.092 12.616-1.092 5.614 0 10.064 1.092 12.616 1.092C34.152 34.663 35 34.268 35 33c0-2.228-1.963-6.214-5.857-6.214z" fill="#ba9b48"></path><path d="M27 10.5a2.499 2.499 0 01-2.464-2.172l-.061-.456s-19.62.935-19.673.935a2.307 2.307 0 01.001-4.614c.053 0 19.673.935 19.673.935l.061-.456A2.497 2.497 0 0127 2.5h11a.5.5 0 01.5.5v7a.5.5 0 01-.5.5H27z" fill="#dcd5f2"></path><path d="M38 3v7H27a1.998 1.998 0 01-1.969-1.738l-.121-.911-.918.044-19.065.908c-.042.002-.083.004-.124.004a1.807 1.807 0 11.142-3.609l19.046.907.918.044.121-.911A2 2 0 0127 3h11m0-1H27a2.99 2.99 0 00-2.96 2.607L4.993 3.7a2.806 2.806 0 100 5.601l19.047-.908A2.99 2.99 0 0027 11h11a1 1 0 001-1V3a1 1 0 00-1-1z" fill="#8b75a1"></path><path fill="none" stroke="#8b75a1" stroke-linecap="round" stroke-miterlimit="10" d="M38.5 4.5h-8M38.5 6.5h-8M38.5 8.5h-8"></path><path fill="none" stroke="#ba9b48" stroke-linecap="round" stroke-linejoin="round" stroke-miterlimit="10" d="M36.5 2v29M32.5 2v9M34.5 2c0 22.875-3.284 25.662-3.284 25.662"></path><g><path d="M10 38.5a1.485 1.485 0 01-1.291-.751l-.145-.249H8a6.508 6.508 0 01-6.481-6h36.963c-.257 3.352-3.065 6-6.481 6h-.564l-.145.249c-.275.47-.758.751-1.292.751H10z" fill="#8bb7f0"></path><path d="M37.917 32A6.01 6.01 0 0132 37h-.852l-.289.497A.99.99 0 0130 38H10a.988.988 0 01-.858-.503L8.852 37H8a6.01 6.01 0 01-5.917-5h35.834M39 31H1a7 7 0 007 7h.277c.346.595.984 1 1.723 1h20c.738 0 1.376-.405 1.723-1H32a7 7 0 007-7z" fill="#4e7ab5"></path></g></svg>