<svg viewBox="0 0 40 40" xmlns="http://www.w3.org/2000/svg"><circle cx="11" cy="5" r="3.5" fill="#f5ce85"></circle><path d="M11 2c1.654 0 3 1.346 3 3s-1.346 3-3 3-3-1.346-3-3 1.346-3 3-3m0-1a4 4 0 100 8 4 4 0 000-8z" fill="#967a44"></path><circle cx="33" cy="5" r="3.5" fill="#f5ce85"></circle><path d="M33 2c1.654 0 3 1.346 3 3s-1.346 3-3 3-3-1.346-3-3 1.346-3 3-3m0-1a4 4 0 100 8 4 4 0 000-8z" fill="#967a44"></path><path d="M13.918 38.5a1.59 1.59 0 01-1.576-1.453l-.646-7.912-1.679-2.828h-.87l-.971 5.199-1.827 5.913A1.52 1.52 0 014.887 38.5h-.276a1.52 1.52 0 01-1.227-.614 1.52 1.52 0 01-.243-1.35l1.964-6.681V20.21l-.638.184s-.249.067-.605.067c-.641 0-1.533-.215-2.147-1.239-.664-1.107.399-2.615.91-3.339.348-.494 1.357-1.864 2.179-2.976a4.923 4.923 0 012.833-1.864l14.941-3.501c.115-.028.236-.042.355-.042.721 0 1.359.511 1.518 1.216a1.551 1.551 0 01-1.129 1.851l-9.728 2.517-1.265 7.353 3 6.863c.114.261.172.538.172.823v8.796a1.584 1.584 0 01-1.583 1.581z" fill="#8bb7f0"></path><path d="M22.933 8c.489 0 .922.347 1.03.826a1.054 1.054 0 01-.767 1.257l-9.415 2.436-.625.162-.11.637-1.185 6.886-.051.295.12.275 2.94 6.726c.086.197.13.407.13.622v8.797c0 .596-.485 1.081-1.081 1.081a1.088 1.088 0 01-1.078-.994l-.636-7.796-.019-.23-.118-.199-1.475-2.484-.291-.49H8.733l-.152.817-.884 4.734-1.824 5.913c-.134.436-.53.729-.986.729h-.276c-.328 0-.63-.151-.826-.414a1.024 1.024 0 01-.164-.909l1.944-6.612.041-.138v-9.053l-.012-1.293-1.254.329a2.055 2.055 0 01-.478.051c-.744 0-1.322-.335-1.718-.996-.438-.729.204-1.822.89-2.794.274-.389 1.026-1.415 2.172-2.967A4.419 4.419 0 017.75 11.53l14.94-3.502c.08-.018.162-.028.243-.028m0-1a2.06 2.06 0 00-.471.055L7.521 10.556a5.412 5.412 0 00-3.12 2.054 257.13 257.13 0 00-2.185 2.985c-.625.886-1.743 2.53-.93 3.885.748 1.246 1.85 1.481 2.576 1.481.441 0 .744-.087.744-.087v8.909l-1.944 6.612A2.032 2.032 0 004.611 39h.276c.892 0 1.679-.581 1.942-1.433l1.841-5.968.894-4.791h.17l1.475 2.484.636 7.796A2.081 2.081 0 0016 36.919v-8.797c0-.352-.073-.7-.214-1.023l-2.94-6.726 1.185-6.886 9.415-2.436A2.057 2.057 0 0022.933 7z" fill="#4e7ab5"></path><path d="M5.294 20.185l4.933-2.07a1.472 1.472 0 00.837-1.861h0a1.472 1.472 0 00-1.943-.868L5.9 16.681" fill="none" stroke="#4e7ab5" stroke-miterlimit="10"></path><g><path d="M34.58 38.5a1.742 1.742 0 01-1.669-1.26l-3.183-11.181h-.61l-.249.178-2.603 3.091-1.581 7.782a1.734 1.734 0 01-3.414-.626l1.316-8.042 2.975-5.766.999-5.907-.626-.298-.318.165-2.37 1.93-5.327.798a1.615 1.615 0 01-1.846-1.416 1.611 1.611 0 011.372-1.784l4.454-.654 4.924-4.673a4.844 4.844 0 014.246-1.254l2.218.417a4.87 4.87 0 013.713 3.231c.382 1.135.777 2.314.997 2.979.726 2.202.667 3.343-.207 4.072-.431.359-.913.542-1.432.542-.79 0-1.414-.418-1.42-.422l-.632-.438-.499 2.604 2.664 13.87a1.73 1.73 0 01-.367 1.433c-.331.401-.818.63-1.338.63h-.187z" fill="#bae0bd"></path><path d="M30.173 10c.269 0 .54.025.805.075l2.218.416a4.368 4.368 0 013.332 2.899c.381 1.134.776 2.312.995 2.975.749 2.271.521 3.054-.052 3.531-.344.286-.707.426-1.112.426-.625 0-1.135-.333-1.135-.333l-1.263-.877-.289 1.51-.336 1.756-.036.189.036.188 2.646 13.775a1.23 1.23 0 01-.261 1.02 1.23 1.23 0 01-.953.45h-.188a1.242 1.242 0 01-1.189-.897l-3.079-10.817-.207-.726h-1.319l-.3.356-2.521 2.993-.164.195-.051.25-1.555 7.657a1.237 1.237 0 01-2.152.553 1.219 1.219 0 01-.278-1l1.304-7.963 2.903-5.627.071-.138.026-.153.922-5.458.126-.745-.682-.325-.073-.035-.571-.272-.49.399-2.264 1.844-5.191.778a1.116 1.116 0 01-1.275-.978 1.112 1.112 0 01.947-1.232l4.299-.632.313-.046.23-.218 4.809-4.564A4.345 4.345 0 0130.173 10m0-1a5.363 5.363 0 00-3.693 1.474l-4.809 4.564-4.299.632a2.118 2.118 0 10.621 4.188l5.462-.818 2.477-2.017.073.035-.922 5.458-2.975 5.768-1.329 8.12a2.235 2.235 0 004.397.805l1.555-7.657 2.521-2.993h.099l3.079 10.817A2.235 2.235 0 0034.58 39h.188a2.236 2.236 0 002.196-2.658l-2.646-13.775.336-1.756s.737.511 1.705.511c.541 0 1.154-.16 1.752-.657 1.169-.974 1.071-2.459.361-4.613-.219-.664-.615-1.845-.997-2.981a5.363 5.363 0 00-4.095-3.563l-2.218-.416A5.339 5.339 0 0030.173 9z" fill="#5e9c76"></path></g><path d="M34.069 19.798l-3.272-2.517a1.472 1.472 0 01-.352-2.01h0a1.472 1.472 0 012.097-.361l2.802 2.049" fill="none" stroke="#5e9c76" stroke-miterlimit="10"></path></svg>