<svg viewBox="0 0 40 40" xmlns="http://www.w3.org/2000/svg"><path d="M12.093 31.709L7.18 36.622a3 3 0 01-4.243 0L1.5 35.183" fill="none" stroke="#4e7ab5" stroke-miterlimit="10"></path><path fill="#8bb7f0" d="M29.707 8.148l4.44-4.44 2.146 2.145-4.44 4.44z"></path><path d="M34.147 4.414l1.438 1.438-3.733 3.733-1.438-1.438 3.733-3.733m0-1.414L29 8.148 31.853 11 37 5.852 34.147 3z" fill="#4e7ab5"></path><path d="M36.033 7.501a.461.461 0 01-.326-.136l-3.071-3.071a.461.461 0 010-.653l2.006-2.005a.461.461 0 01.651 0l3.071 3.071a.453.453 0 01.136.327.45.45 0 01-.136.324L36.36 7.365a.462.462 0 01-.327.136z" fill="#8bb7f0"></path><path d="M34.967 2.016l3.017 3.017-1.951 1.951-3.017-3.017 1.951-1.951m0-1.016a.959.959 0 00-.68.282l-2.005 2.005a.96.96 0 000 1.36l3.072 3.072a.958.958 0 001.359-.001l2.005-2.005a.963.963 0 000-1.36l-3.072-3.072A.958.958 0 0034.967 1z" fill="#4e7ab5"></path><path d="M30.915 12.78a.5.5 0 01-.354-.146L27.367 9.44a.5.5 0 010-.707l2.085-2.085a.5.5 0 01.708 0l3.194 3.194a.5.5 0 010 .707l-2.085 2.085a.503.503 0 01-.354.146z" fill="#8bb7f0"></path><path d="M29.806 7L33 10.194l-2.086 2.086-3.194-3.194L29.806 7c-.001 0-.001 0 0 0m0-1a.997.997 0 00-.707.293l-2.086 2.086a.999.999 0 000 1.414l3.194 3.194a.997.997 0 001.414 0l2.086-2.086a.999.999 0 000-1.414l-3.194-3.194A1 1 0 0029.806 6z" fill="#4e7ab5"></path><path d="M10.83 21.129l14.482-12.05a2.51 2.51 0 011.6-.579c.668 0 1.296.26 1.768.732l2.089 2.089c.92.919.986 2.366.153 3.367L18.871 29.17l-8.041-8.041z" fill="#ffc49c"></path><path d="M26.911 9c.535 0 1.037.208 1.415.586l2.088 2.088a1.99 1.99 0 01.123 2.693l-11.7 14.062-7.266-7.266 14.062-11.7A1.997 1.997 0 0126.911 9m0-1c-.679 0-1.36.229-1.918.694L10.089 21.096l8.816 8.816 12.402-14.904a3 3 0 00-.185-4.04L29.034 8.88A2.995 2.995 0 0026.911 8z" fill="#a16a4a"></path><path fill="#4e7ab5" d="M5 30h5v5H5z"></path><path d="M8.882 35.5a2.471 2.471 0 01-1.759-.728l-1.896-1.896a2.49 2.49 0 010-3.517l3.654-3.653 5.411 5.411-3.653 3.654a2.462 2.462 0 01-1.757.729z" fill="#8bb7f0"></path><path d="M8.882 26.414l4.704 4.704-3.3 3.3A1.974 1.974 0 018.882 35a1.972 1.972 0 01-1.404-.582l-1.896-1.896a1.99 1.99 0 010-2.809l3.3-3.299m0-1.414l-4.007 4.007a2.986 2.986 0 000 4.223l1.896 1.896A2.976 2.976 0 008.882 36c.764 0 1.528-.292 2.111-.875L15 31.118 8.882 25z" fill="#4e7ab5"></path><g><path d="M14.564 34.515c-.4 0-.777-.156-1.061-.439l-7.579-7.579a1.501 1.501 0 010-2.121l6.45-6.45c.283-.283.66-.439 1.061-.439s.777.156 1.061.439l7.579 7.579a1.501 1.501 0 010 2.121l-6.45 6.45c-.283.282-.66.439-1.061.439z" fill="#8bb7f0"></path><path d="M13.436 17.985c.267 0 .518.104.707.293l7.579 7.579c.189.189.293.44.293.707a.993.993 0 01-.293.707l-6.45 6.45c-.189.189-.44.293-.707.293s-.518-.104-.707-.293l-7.579-7.579a.993.993 0 01-.293-.707c0-.267.104-.518.293-.707l6.45-6.45a.99.99 0 01.707-.293m0-1a1.99 1.99 0 00-1.414.586l-6.45 6.45a2 2 0 000 2.828l7.579 7.579c.391.391.902.586 1.414.586a1.99 1.99 0 001.414-.586l6.45-6.45a2 2 0 000-2.828l-7.579-7.579a1.998 1.998 0 00-1.414-.586z" fill="#4e7ab5"></path></g><g><path d="M19.075 32.5a2.405 2.405 0 01-1.711-.709l-9.158-9.158c-.457-.457-.709-1.064-.709-1.711s.252-1.254.709-1.711c.463-.463 1.07-.715 1.717-.715s1.254.252 1.711.709l9.158 9.158c.457.457.709 1.064.709 1.711s-.252 1.254-.709 1.711a2.412 2.412 0 01-1.717.715z" fill="#c2e8ff"></path><path d="M9.922 18.997c.513 0 .995.2 1.358.562l9.158 9.158c.362.362.562.845.562 1.357 0 .513-.2.995-.568 1.363-.363.363-.845.563-1.358.563s-.995-.2-1.358-.562L8.559 22.28a1.907 1.907 0 01-.562-1.358c0-.513.2-.995.568-1.363a1.903 1.903 0 011.357-.562m0-1c-.747 0-1.495.285-2.065.855l-.006.006a2.92 2.92 0 000 4.129l9.158 9.158c.571.57 1.318.855 2.065.855.747 0 1.495-.285 2.065-.855l.006-.006a2.92 2.92 0 000-4.129l-9.158-9.158a2.91 2.91 0 00-2.065-.855z" fill="#4e7ab5"></path></g><path fill="none" stroke="#a16a4a" stroke-miterlimit="10" d="M18 15l7 7M21.5 12.5l6 6"></path></svg>