<svg viewBox="0 0 40 40" xmlns="http://www.w3.org/2000/svg"><path d="M20 38.5c-6.924 0-12.5-12.348-12.5-22.571C7.5 6.759 12.056 1.5 20 1.5s12.5 5.259 12.5 14.429C32.5 26.152 26.924 38.5 20 38.5z" fill="#839cb2"></path><path d="M20 2c7.626 0 12 5.077 12 13.929C32 25.864 26.463 38 20 38S8 25.864 8 15.929C8 7.077 12.374 2 20 2m0-1C12.807 1 7 5.433 7 15.929S12.807 39 20 39s13-12.576 13-23.071S27.193 1 20 1z" fill="#66798f"></path><path d="M12 4.7c.902-.729 2.005-1.391 3.356-1.958a12.424 12.424 0 011.806-.501C15.463 3.599 12 7.226 12 10.571 12 14.869 15.203 16 16.143 16c.939 0 1.331-1.527-.143-3 0 0 2.812.748 3 5v9s-1.596-3-3-3c-1.188 0-2 .72-2 4 0 4.071 3.918 8.93 4.654 9.805-.261-.075-.523-.148-.779-.259C15.562 37.25 8 29.125 8 16c0-4.837 1.401-9 4-11.3z" fill="#f2faff"></path><path d="M17.162 2.241C15.463 3.599 12 7.226 12 10.571 12 14.869 15.203 16 16.143 16s1.331-1.527-.143-3c0 0 2.812.748 3 5v9s-1.596-3-3-3c-1.188 0-2 .72-2 4 0 4.071 3.918 8.93 4.654 9.805-.261-.075-.523-.148-.779-.259C15.562 37.25 8 29.125 8 16c0-4.837 1.401-9 4-11.3.902-.729 2.005-1.391 3.356-1.958a12.46 12.46 0 011.806-.501m-.195-.981c-.673.134-1.329.317-1.951.542-1.421.595-2.632 1.302-3.644 2.12C8.581 6.39 7 10.782 7 16c0 13.63 7.696 21.878 10.591 22.511.264.105.522.179.752.245L20 38l-.58-.838C18.967 36.624 15 31.797 15 28c0-3 .675-3 1-3 .365.007 1.392 1.111 2.118 2.47L20 30.994V18c-.219-4.974-3.599-5.928-3.743-5.966l-3.232-.859a7.262 7.262 0 01-.025-.604c0-2.714 2.936-6.071 4.786-7.549C17.786 3.022 19.042 2 20 2s-3.033-.74-3.033-.74z" fill="#66798f"></path><path d="M13.019 22.5c-3.354 0-3.513-6.225-3.519-6.49l-.028-1.447.915 1.122c2.479 3.037 5.758 4.316 5.791 4.328l.769.294-.615.547c-1.247 1.107-2.331 1.646-3.313 1.646z" fill="#bae0bd"></path><path d="M10 16c2.6 3.185 6 4.479 6 4.479C14.773 21.57 13.796 22 13.019 22 10.116 22 10 16 10 16m-1.056-2.875L9 16.019c.014.715.245 6.981 4.019 6.981 1.11 0 2.302-.58 3.645-1.773l1.233-1.095-1.542-.587c-.03-.012-3.194-1.252-5.581-4.177l-1.83-2.243z" fill="#5e9c76"></path><g><path d="M28 4.7c-.902-.729-2.005-1.391-3.356-1.958a12.424 12.424 0 00-1.806-.501C24.537 3.599 28 7.226 28 10.571 28 14.869 24.797 16 23.857 16c-.939 0-1.331-1.527.143-3 0 0-2.812.748-3 5v9s1.596-3 3-3c1.188 0 2 .72 2 4 0 4.071-3.918 8.93-4.654 9.805.261-.075.523-.148.779-.259C24.438 37.25 32 29.125 32 16c0-4.837-1.401-9-4-11.3z" fill="#f2faff"></path><path d="M22.838 2.241a12.46 12.46 0 011.806.501C25.995 3.309 27.098 3.971 28 4.7c2.599 2.3 4 6.463 4 11.3 0 13.125-7.563 21.25-9.875 21.547-.257.11-.518.183-.779.259C22.082 36.93 26 32.071 26 28c0-3.28-.813-4-2-4-1.404 0-3 3-3 3v-7-2c.188-4.252 3-5 3-5-1.473 1.473-1.082 3-.143 3 .94 0 4.143-1.131 4.143-5.429 0-3.345-3.463-6.972-5.162-8.33M20 2c.958 0 2.214 1.022 2.214 1.022C24.064 4.501 27 7.858 27 10.571c0 .211-.009.411-.025.603l-3.232.859c-.144.039-3.524.993-3.743 5.967v12.994l1.882-3.524c.726-1.359 1.753-2.463 2.118-2.47.325 0 1 0 1 3 0 3.797-3.967 8.624-4.42 9.162L20 38l1.657.756c.23-.066.488-.14.752-.245C25.304 37.878 33 29.63 33 16c0-5.218-1.581-9.61-4.372-12.077-1.012-.818-2.223-1.525-3.644-2.12a13.506 13.506 0 00-1.951-.542C23.033 1.26 19.042 2 20 2z" fill="#66798f"></path></g><g><path d="M26.981 22.5c-.982 0-2.066-.539-3.313-1.646l-.615-.547.769-.294c.033-.012 3.312-1.292 5.791-4.328l.915-1.122-.028 1.447c-.005.265-.165 6.49-3.519 6.49z" fill="#bae0bd"></path><path d="M30 16s-.117 6-3.019 6c-.777 0-1.754-.43-2.981-1.521 0 0 3.4-1.294 6-4.479m1.056-2.875l-1.831 2.243c-2.403 2.944-5.55 4.165-5.581 4.177l-1.542.587 1.233 1.095C24.679 22.42 25.871 23 26.981 23c3.774 0 4.005-6.266 4.019-6.981l.056-2.894z" fill="#5e9c76"></path></g></svg>