<svg viewBox="0 0 40 40" xmlns="http://www.w3.org/2000/svg"><path d="M4.033 34.5A18.834 18.834 0 01.5 23.5c0-10.477 8.523-19 19-19s19 8.523 19 19c0 3.96-1.221 7.758-3.533 11H4.033z" fill="#fff"></path><path d="M19.5 5C29.701 5 38 13.299 38 23.5c0 3.77-1.137 7.39-3.292 10.5H4.292A18.332 18.332 0 011 23.5C1 13.299 9.299 5 19.5 5m0-1C8.73 4 0 12.73 0 23.5c0 4.306 1.413 8.273 3.777 11.5h31.446C37.587 31.773 39 27.806 39 23.5 39 12.73 30.27 4 19.5 4z" fill="#4e7ab5"></path><path fill="#b6c9d6" d="M15 29h9v2h-9z"></path><circle cx="19.5" cy="23.5" r="1" fill="#f78f8f"></circle><path d="M19.5 23a.5.5 0 110 1 .5.5 0 010-1m0-1a1.5 1.5 0 10.001 3.001A1.5 1.5 0 0019.5 22z" fill="#c74343"></path><path fill="#f78f8f" stroke="#c74343" stroke-miterlimit="10" d="M19 24l11-11"></path><path d="M19.5 5c-.169 0-.332.021-.5.025V8h1V5.025c-.168-.004-.331-.025-.5-.025z" fill="#788b9c"></path><path d="M35 24h2.981c.005-.167.019-.332.019-.5 0-.169-.021-.332-.025-.5H35v1z" fill="#e1ebf2"></path><path d="M37.975 23H35v1h2.981c.005-.167.019-.332.019-.5 0-.169-.021-.332-.025-.5z" fill="#788b9c"></path><path d="M1.019 24H4v-1H1.025c-.004.168-.025.331-.025.5 0 .168.014.333.019.5z" fill="#e1ebf2"></path><path d="M4 23H1.025c-.004.168-.025.331-.025.5 0 .168.014.333.019.5H4v-1z" fill="#788b9c"></path><path d="M11.317 10.327l.866-.5-1.495-2.59c-.294.16-.571.345-.855.52l1.484 2.57z" fill="#e1ebf2"></path><path d="M10.688 7.237c-.294.16-.571.345-.855.52l1.484 2.57.866-.5-1.495-2.59z" fill="#788b9c"></path><g><path d="M35.243 13.833l-2.57 1.484.5.866 2.59-1.495c-.16-.294-.345-.571-.52-.855z" fill="#e1ebf2"></path><path d="M35.243 13.833l-2.57 1.484.5.866 2.59-1.495c-.16-.294-.345-.571-.52-.855z" fill="#788b9c"></path></g><g><path d="M3.759 33.165l2.568-1.482-.5-.866-2.57 1.483c.16.292.326.581.502.865z" fill="#e1ebf2"></path><path d="M5.827 30.817L3.257 32.3c.16.292.326.581.501.865l2.568-1.482-.499-.866z" fill="#788b9c"></path></g><g><path d="M29.167 7.757c-.284-.175-.561-.36-.855-.52l-1.495 2.59.866.5 1.484-2.57z" fill="#e1ebf2"></path><path d="M28.312 7.237l-1.495 2.59.866.5 1.484-2.57c-.284-.175-.561-.36-.855-.52z" fill="#788b9c"></path></g><g><path d="M35.743 32.3l-2.569-1.483-.5.866 2.568 1.483c.175-.285.341-.574.501-.866z" fill="#e1ebf2"></path><path d="M33.173 30.817l-.5.866 2.568 1.483c.176-.285.342-.573.501-.865l-2.569-1.484z" fill="#788b9c"></path></g><g><path d="M5.827 16.183l.5-.866-2.57-1.484c-.175.284-.36.561-.52.855l2.59 1.495z" fill="#e1ebf2"></path><path d="M3.757 13.833c-.175.284-.36.561-.52.855l2.59 1.495.5-.866-2.57-1.484z" fill="#788b9c"></path></g></svg>