<svg viewBox="0 0 40 40" xmlns="http://www.w3.org/2000/svg"><path d="M20 38.5C9.799 38.5 1.5 30.201 1.5 20S9.799 1.5 20 1.5 38.5 9.799 38.5 20 30.201 38.5 20 38.5z" fill="#f2faff"></path><path d="M20 2c9.925 0 18 8.075 18 18s-8.075 18-18 18S2 29.925 2 20 10.075 2 20 2m0-1C9.507 1 1 9.507 1 20s8.507 19 19 19 19-8.507 19-19S30.493 1 20 1z" fill="#788b9c"></path><path d="M20 35.5c-8.547 0-15.5-6.953-15.5-15.5S11.453 4.5 20 4.5 35.5 11.453 35.5 20 28.547 35.5 20 35.5z" fill="#8bb7f0"></path><path d="M20 5c8.271 0 15 6.729 15 15s-6.729 15-15 15S5 28.271 5 20 11.729 5 20 5m0-1C11.163 4 4 11.163 4 20s7.163 16 16 16 16-7.163 16-16S28.837 4 20 4z" fill="#4e7ab5"></path><path fill="none" stroke="#fff" stroke-miterlimit="10" d="M20 20l7.377-4.949"></path><circle cx="20" cy="20" r="2.5" fill="#8bb7f0"></circle><path d="M20 18c1.103 0 2 .897 2 2s-.897 2-2 2-2-.897-2-2 .897-2 2-2m0-1a3 3 0 100 6 3 3 0 000-6z" fill="#fff"></path><path fill="none" stroke="#fff" stroke-miterlimit="10" d="M17.92 9.542l-.494-2.483"></path><path fill="none" stroke="#c74343" stroke-miterlimit="10" d="M30.458 17.92l2.483-.494"></path><path fill="none" stroke="#fff" stroke-miterlimit="10" d="M9.542 22.08l-2.483.494M25.924 11.134l1.406-2.105"></path><path fill="none" stroke="#c74343" stroke-miterlimit="10" d="M28.866 25.924l2.105 1.406"></path><path fill="none" stroke="#fff" stroke-miterlimit="10" d="M11.134 14.076L9.029 12.67M14.076 11.134L12.67 9.029M28.866 14.076l2.105-1.406M11.134 25.924L9.029 27.33M22.08 9.542l.494-2.483"></path><path fill="none" stroke="#c74343" stroke-miterlimit="10" d="M30.458 22.08l2.483.494"></path><path fill="none" stroke="#fff" stroke-miterlimit="10" d="M9.542 17.92l-2.483-.494"></path><g><path fill="#fff" d="M14.5 27.5h11v3h-11z"></path><path d="M25 28v2H15v-2h10m1-1H14v4h12v-4z" fill="#4e7ab5"></path></g></svg>