<svg viewBox="0 0 40 40" xmlns="http://www.w3.org/2000/svg"><path fill="#8bb7f0" d="M3.5 38.5V13.286L19.998 3.58 36.5 13.286V38.5z"></path><path d="M19.998 4.16L36 13.572V38H4V13.572L19.998 4.16m0-1.16L3 13v26h34V13L19.998 3z" fill="#4e7ab5"></path><path fill="#8bb7f0" d="M19.998 4.645L1.5 15.954v-3.058l18.498-11.31L38.5 12.896v3.058z"></path><path d="M19.998 2.172L38 13.176v1.887L20.519 4.378l-.522-.319-.522.319L2 15.063v-1.887L19.998 2.172m0-1.172L1 12.615v4.231L19.998 5.231 39 16.846v-4.231L19.998 1z" fill="#4e7ab5"></path><g fill="#fff"><path d="M18.5 22.5c0-2.549.323-3.413.708-4.23.289-.395.792-1.325.792-2.52 0-1.704-1.5-3.75-3-3.75-1.656 0-3 2.046-3 3.75 0 1.484.696 2.756 1.697 3.363.615.585 1.303.567 1.303 3.387 0 1.567-1.5 3.151-1.5 4.5 0 1.618 3 3 3 3S17 28.519 17 27c0-1.694 1.5-2.42 1.5-4.5zM25.5 28.5c0-2.549.323-3.413.708-4.23.289-.395.792-1.325.792-2.52 0-1.704-1.5-3.75-3-3.75-1.656 0-3 2.046-3 3.75 0 1.484.696 2.756 1.697 3.363.615.585 1.303.567 1.303 3.387 0 1.567-1.5 3.151-1.5 4.5 0 1.618 3 3 3 3S24 34.519 24 33c0-1.694 1.5-2.42 1.5-4.5z"></path></g></svg>