<svg viewBox="0 0 40 40" xmlns="http://www.w3.org/2000/svg"><path d="M9.479 35.499c-1.463-2.748-2.652-5.809-3.473-8.954-.225-.786-.307-1.638-.385-2.461l-.013-.131c-.139-1.092.064-1.297.924-1.643 1.762-.67 9.382-2.807 9.459-2.828l3.504-.981H17c.732 0 1.66-.502 1.946-1.341l.103-.302-.23-.22c-.638-.612-1.319-1.738-1.319-3.067 0-2.548 1.234-4.071 2.429-4.071.045.003.08.004.106.004a.418.418 0 00.104-.01c1.127.006 2.361 1.529 2.361 4.077 0 1.329-.681 2.455-1.318 3.065l-.23.22.103.302c.285.84 1.213 1.342 1.945 1.342.931 0 3.184-2.577 3.497-5.446.194-1.98-.093-4.75-.601-7.288.997 2.564 1.597 4.403 1.597 7.233 0 2.079-.771 3.989-1.023 4.617a4.496 4.496 0 00-.089.232l-.206.652h2.988c1.549 0 2.734-1.038 3.022-2.643.345-2.522.002-5.222-.543-7.575 1.012 2.621 1.885 5.888 1.885 9.361-.059.714-.201.792-.904.86L20.504 18.5l3.504.981c.077.021 7.697 2.158 9.468 2.832.851.342 1.054.547.917 1.624l-.015.146c-.078.824-.16 1.676-.382 2.45-.822 3.151-2.011 6.212-3.476 8.963.903-3.147 1.973-7.206 1.973-10.117l.007-.293c.024-.734.057-1.739-.473-2.183-.884-.832-2.814-1.363-2.896-1.385l-1.42-.385.892 1.171c.431.566.897 1.376.897 1.696 0 2.607-1.746 6.605-3.288 9.627C27.387 28.24 27.5 25.906 27.5 24c0-3.273-2.375-3.527-3.103-3.527-.293 0-.483.035-.483.035l-.41.075L23.5 21v2.393c0 6.546-1.845 11.107-3.5 11.107s-3.5-4.562-3.5-11.107v-2.81l-.414-.075s-.19-.035-.483-.035c-.728 0-3.103.254-3.103 3.527 0 1.906.113 4.24 1.288 9.627C12.246 30.605 10.5 26.607 10.5 24c0-.355.535-1.222.897-1.697l.894-1.171-1.422.386c-.082.022-2.013.553-2.918 1.404-.508.425-.476 1.43-.451 2.164l.007.293c0 2.912 1.069 6.972 1.972 10.12zM13.825 18.5l-.206-.651a4.156 4.156 0 00-.089-.232c-.253-.628-1.023-2.538-1.023-4.617 0-2.835.602-4.676 1.596-7.231-.507 2.537-.794 5.304-.601 7.28.314 2.874 2.567 5.451 3.498 5.451h-3.175zm-6.496 0c-.655-.065-.798-.144-.858-.897.001-3.465.876-6.727 1.89-9.343-.548 2.355-.893 5.057-.549 7.576.291 1.626 1.477 2.664 3.025 2.664H7.329z" fill="#839cb2"></path><path d="M20.133 10.002c.802.061 1.867 1.297 1.867 3.569 0 1.171-.602 2.165-1.164 2.704l-.46.441.205.603c.087.254.216.481.374.68h-1.909a2.28 2.28 0 00.374-.68l.205-.603-.46-.441C18.602 15.736 18 14.743 18 13.571c0-2.261 1.054-3.496 1.855-3.568l.017.003.089.003.039.003.039-.002c.031-.001.062-.004.094-.008m6.859 3.122c-.03 1.936-.748 3.715-.987 4.308-.052.13-.087.22-.101.265l-.096.303h-1.124c1.072-1.126 2.1-3.039 2.308-4.876m-13.984.001c.205 1.833 1.234 3.748 2.309 4.875h-1.124l-.097-.303a4.51 4.51 0 00-.101-.265c-.24-.594-.957-2.372-.987-4.307m-5.811 1.429c.021.467.062.932.125 1.391.149.834.51 1.535 1.026 2.055h-.969a1.77 1.77 0 01-.347-.061 1.508 1.508 0 01-.06-.338 21.89 21.89 0 01.225-3.047m25.609.014a22 22 0 01.222 3.033 1.448 1.448 0 01-.06.338 1.77 1.77 0 01-.347.061h-.975c.52-.526.885-1.24 1.038-2.096.061-.441.1-.887.122-1.336M20 18.878l3.873 1.085.111.031c-.082.009-.136.018-.155.021l-.829.143v3.235C23 29.769 21.194 34 20 34s-3-4.231-3-10.607v-3.234l-.829-.144a2.646 2.646 0 00-.155-.021l.111-.031L20 18.878m-7.404 2.675C12.227 22.16 12 22.963 12 24c0 1.374.058 2.967.518 5.728-.861-2.071-1.518-4.159-1.518-5.71.027-.226.406-.9.796-1.413l.8-1.052m14.808 0l.801 1.053c.389.513.769 1.186.795 1.394 0 1.558-.656 3.649-1.517 5.722.459-2.758.517-4.349.517-5.722 0-1.037-.227-1.84-.596-2.447m4.825.862c.442.142.805.265 1.05.358.679.273.72.29.613 1.131l-.011.12c-.077.805-.156 1.638-.373 2.394a42.146 42.146 0 01-1.043 3.401c.316-1.583.528-3.123.528-4.441 0-.077.003-.171.007-.277.027-.826.064-1.954-.626-2.56a4.688 4.688 0 00-.145-.126m-24.46.002c-.05.041-.097.082-.143.125-.69.606-.653 1.734-.626 2.56.003.106.007.2.007.277 0 1.317.212 2.855.527 4.436a42.225 42.225 0 01-1.049-3.419c-.21-.733-.29-1.566-.366-2.371l-.015-.151c-.104-.811-.063-.827.599-1.094a22.94 22.94 0 011.066-.363M24 1c1.187 2.714 2.329 8.639 2 12-.297 2.714-2.423 5-3 5-.566 0-1.271-.411-1.473-1.002.755-.723 1.473-1.984 1.473-3.427C23 10.778 21.57 9 20.071 9c-.023 0-.047.01-.071.011-.024-.001-.048-.011-.071-.011C18.43 9 17 10.778 17 13.571c0 1.443.718 2.703 1.473 3.426C18.271 17.589 17.566 18 17 18c-.577 0-2.703-2.286-3-5-.329-3.361.812-9.286 2-12-.247.258-1.828 3.115-2.158 4.062-1.153 2.93-1.836 4.836-1.836 7.938 0 2.499 1.054 4.741 1.136 5h-2.306c-1.318 0-2.283-.853-2.53-2.231C7.457 9.542 11 2 11 2S5.972 9.161 5.972 17.643c.083 1.034.451 1.271 1.357 1.357h8.528s-7.698 2.156-9.51 2.846c-1.071.431-1.4.862-1.236 2.154.082.862.165 1.81.412 2.671.988 3.791 2.511 7.503 4.488 10.778L11 39c-.659-2.585-2.993-9.399-2.993-13.621 0-.517-.124-1.748.287-2.093C9.118 22.51 11 22 11 22s-1 1.311-1 2c0 3.69 3.27 9.898 5 12.914 0 0 .048 0 .071.038C13.215 29.312 13 26.413 13 24c0-2.717 1.787-3.027 2.603-3.027.241 0 .397.027.397.027v2.393C16 29.764 17.751 35 20 35s4-5.236 4-11.607V21s.156-.027.397-.027c.816 0 2.603.31 2.603 3.027 0 2.413-.215 5.312-2.071 12.952.023-.038.071-.038.071-.038 1.73-3.016 5-9.224 5-12.914 0-.689-1-2-1-2s1.882.51 2.706 1.286c.412.345.287 1.576.287 2.093 0 4.222-2.334 11.036-2.993 13.621l.988-1.551c1.977-3.274 3.5-6.986 4.488-10.778.247-.862.329-1.81.412-2.671.165-1.293-.165-1.723-1.236-2.154-1.811-.69-9.509-2.846-9.509-2.846h8.528c.906-.086 1.275-.323 1.357-1.357C34.028 9.161 29 2 29 2s3.543 7.542 2.694 13.769C31.447 17.147 30.481 18 29.163 18h-2.306c.082-.259 1.136-2.501 1.136-5 0-3.102-.683-5.008-1.836-7.938C25.828 4.115 24.247 1.258 24 1zm.929 35.952a.092.092 0 00-.012.048l.012-.048zm-9.858 0l.012.048a.106.106 0 00-.012-.048z" fill="#66798f"></path></svg>