<svg viewBox="0 0 40 40" xmlns="http://www.w3.org/2000/svg"><path fill="none" stroke="#7a4f34" stroke-linecap="round" stroke-miterlimit="10" d="M32.5 2.5l-4 7L22 14M37.5 11.5l-6 4H21M37.5 24.5l-8-2-4.704-3.218M33.5 37.5l-2-8L24 23M6.5 2.5l4 7L17 14M1.5 11.5l6 4H18M1.5 24.5l8-2 4.704-3.218M5.5 37.5l2-8L15 23"></path><path d="M18 5c-1.744.62-3 2.268-3 4.224V12c0 .822 2.209 1.168 3 1.449V5zM21 5c1.744.62 3 2.268 3 4.224V12c0 .822-2.209 1.168-3 1.449V5z" fill="#7a4f34"></path><path d="M19.5 34.5c-5.22 0-8-6.143-8-10.577 0-4.741 4.31-6.423 8-6.423s8 1.682 8 6.423c0 4.434-2.78 10.577-8 10.577z" fill="#d6aa70"></path><path d="M19.5 18c3.626 0 7.5 1.556 7.5 5.923C27 28.148 24.394 34 19.5 34S12 28.148 12 23.923C12 19.556 15.874 18 19.5 18m0-1c-4.694 0-8.5 2.335-8.5 6.923S13.892 35 19.5 35 28 28.511 28 23.923 24.194 17 19.5 17z" fill="#7a4f34"></path><g><path d="M19.5 17.5c-2.767 0-4-1.715-4-5.562 0-2.535 2.066-3.438 4-3.438s4 .903 4 3.438c0 3.742-1.308 5.562-4 5.562z" fill="#a6714e"></path><path d="M19.5 9c.821 0 3.5.212 3.5 2.938C23 16.475 21.003 17 19.5 17c-2.453 0-3.5-1.514-3.5-5.062C16 9.212 18.679 9 19.5 9m0-1C17.015 8 15 9.328 15 11.938c0 2.609.516 6.062 4.5 6.062 3.891 0 4.5-3.453 4.5-6.062C24 9.328 21.985 8 19.5 8z" fill="#7a4f34"></path></g></svg>