<svg viewBox="0 0 40 40" xmlns="http://www.w3.org/2000/svg"><path d="M24.38 33.464c.327-3.065.256-6.5.182-10.04-.028-1.393-.058-2.791-.062-4.171.207-.165.37-.352.401-.615.044-.367-.177-.614-.483-.957l-.075-.084c-.26-.252-.519-.603-.792-.975-.503-.682-1.022-1.388-1.628-1.647l-.697-.299v.758c0 .402.235.829.433 1.115.065.095.151.199.237.303.062.074.16.192.2.255l.008.032c.057.216.087.792-.34 2.227-.406 2.028-.907 3.896-1.408 5.28L20 24.304l-.35.337c-.491-1.406-.91-3.164-1.29-4.757l-.149-.613c-.133-.508-.443-1.697-.319-2.113l.021-.07v-.073h.002c.025 0 .187-.218.274-.337l.152-.21c.194-.283.434-.629.434-1.116v-.729l-.68.262c-.696.268-1.264 1.067-1.765 1.772-.238.336-.464.654-.646.829l-.097.106c-.291.325-.521.582-.492.948.021.28.189.493.404.688-.003 1.408-.034 2.832-.064 4.249-.076 3.52-.15 6.934.18 9.983-1.082-4.422-1.114-9.583-1.115-15.379a.736.736 0 00.412-.208c.566-.442 1.137-1.13 1.688-1.794.354-.427.689-.83.985-1.115l2.243-2.162-1.808.871-.979-.171h1.324l-.544-.785c-.098-.14-.175-.326-.259-.515-.226-.512-.506-1.148-1.142-1.323-.088-.052-.281-.092-.507-.092a3.88 3.88 0 00-.462.038c-.144.017-.296.037-.458.037-.333 0-.671-.007-.998-.014a42.531 42.531 0 00-.918-.013c-.777 0-1.362.043-1.763.222a5.263 5.263 0 00-.368-.231c-.161-.095-.355-.209-.442-.31.04-.227.162-.745.303-1.154l.133-.393c.121-.364.246-.74.356-.954.219-.753.485-1.57.782-2.406a28.105 28.105 0 00-.346 4.422v.5h4.644c.264.214.509.487.747.752.293.326.569.633.878.832l1.034.664-.097-.42a.676.676 0 00.537-.314c.186.066.368.066.521.066.165 0 .339-.038.503-.104.139.223.323.335.556.352l-.097.42 1.034-.664c.337-.217.665-.569 1.013-.942.208-.224.422-.454.629-.642h4.627v-.5c0-1.716-.15-3.264-.39-4.693.333.927.595 1.781.784 2.565l.015.059.027.053c.11.214.235.59.356.954l.133.394c.134.388.25.874.296 1.12a3.233 3.233 0 01-.332.219c-.161.097-.346.208-.518.351-.422-.175-1.019-.218-1.779-.218-.29 0-.597.007-.908.013a42.63 42.63 0 01-.945.014c-.162 0-.314-.02-.458-.037a3.88 3.88 0 00-.462-.038c-.226 0-.419.041-.592.124-.551.143-.831.779-1.057 1.291-.084.189-.161.375-.259.515l-.539.783h1.342l-1.126.108-1.678-.808.914.881-.079.007.157.068 1.251 1.206c.296.286.631.688.985 1.115.533.642 1.084 1.305 1.665 1.779a.593.593 0 00.436.229c-.001 5.765-.036 10.902-1.12 15.379zm-17.812-3.88c-.681-2.58-1.02-5.43-1.063-8.818.074.012.148.018.224.018.604 0 1.073-.388 1.488-.73.484-.305.989-.622 1.504-.956-.201.17-.403.347-.607.534-.012.002-1.58 1.091-1.867 2.056-.148.267-.102.754-.056 1.224.018.176.035.35.035.499 0 2.332.109 4.359.342 6.173zm26.936-.959c.183-1.545.271-3.215.271-5.049 0-.149.018-.322.035-.498.046-.47.093-.957-.092-1.313-.154-.551-.877-1.184-1.731-1.886l-.119-.099a89.36 89.36 0 00-1.803-1.451c.864.619 1.781 1.22 2.771 1.843l.15.106c.358.255.765.544 1.275.544.078 0 .156-.007.232-.02-.049 2.878-.362 5.414-.989 7.823zm-6.907-12.926c-.127-.092-.235-.192-.343-.29-.203-.186-.414-.377-.688-.509a2.301 2.301 0 00-.38-.13c.113-.001.239-.022.364-.046.044-.009.087-.019.129-.024l.073.07h.119c.157.101.506.437.68.604.57.574 1.155 1.105 1.764 1.61-.545-.41-1.111-.833-1.718-1.285zm-14.293.791c.387-.327.769-.668 1.141-1.028.097-.063.264-.214.42-.358a5.1 5.1 0 01.285-.25h.099l.068-.065c.021.004.203.04.276.049a1.414 1.414 0 00-.159.064c-.418.201-.725.497-1.079.839-.347.255-.7.504-1.051.749zm-4.373-2.008c-.181-.17-.382-.337-.59-.511a13.233 13.233 0 01-.586-.506c.325-.577.522-1.373.673-2.043a26.85 26.85 0 00-.006 1.949l.022.662.631-.203c.472-.152 1.643-.332 4.53-.349-2.079.132-3.577.455-4.674 1.001zm24.166-.07c-.878-.447-1.984-.743-3.442-.911 1.98.054 2.872.202 3.271.33l.631.203.022-.662c.023-.713.02-1.396-.01-2.052.154.691.358 1.521.701 2.105-.224.248-.51.469-.789.684-.132.101-.261.202-.384.303z" fill="#839cb2"></path><path d="M28.762 9.66c.061.193.119.409.163.594a7.876 7.876 0 00-.16.098v-.323c0-.124-.001-.247-.003-.369m-17.524 0c-.002.122-.002.245-.002.369v.383l-.032-.019-.142-.085c.046-.195.109-.436.176-.648M20 13.803l.725.311v1.321c0 .533.284 1.056.523 1.4.072.105.167.222.264.338.04.048.082.096.117.141.018.149.029.654-.344 1.912l-.013.044-.009.045c-.326 1.636-.72 3.177-1.125 4.428L20 23.609l-.124.119c-.379-1.23-.717-2.647-1.028-3.953l-.123-.517-.031-.119c-.098-.374-.395-1.513-.323-1.84l.007-.025c.052-.082.153-.218.212-.298.06-.081.116-.158.162-.224.208-.301.523-.756.523-1.4v-1.238l.725-.311M26.039.05c.949 3.077 1.725 6.071 1.725 9.979H23.45c-.604.499-1.208 1.331-1.725 1.663.173-.748-.431-1.247-.863-1.58.173.333.604 1.247.259 1.746-.345 0-.173-.499-.518-.499a.951.951 0 01-.604.249c-.259 0-.431 0-.604-.249-.345 0-.173.499-.518.499-.345-.499.086-1.414.259-1.746-.518.333-1.035.832-.863 1.58-.518-.333-1.035-1.164-1.725-1.663h-4.314c0-3.909.776-6.902 1.725-9.979l-.345.499c-.949 1.996-2.071 4.823-2.761 7.235-.173.333-.345.915-.518 1.414-.173.499-.345 1.247-.345 1.414.173.499.949.665 1.294 1.081.207-.299.911-.359 1.795-.359.589 0 1.259.027 1.915.027.345 0 .652-.074.92-.074.134 0 .259.018.374.074.604.166.776 1.141 1.122 1.64h-2.326c-.189 0-.987-.019-2-.019-1.763 0-4.178.058-5.164.375C7.749 8.117 9.102 4.576 11 1 9.102 3.495 8.353 5.954 7.404 9.364c-.173.333-.173.748-.345 1.414-.173.748-.431 2.162-.949 2.744.518.582 1.294 1.081 1.725 1.58 1.553-.915 4.059-1.187 7.165-1.187.298 0 .558-.02.859-.02.309 0 .66.021 1.141.105-.776.333-1.227.354-2.176.354-.23 0-.422-.074-.575-.074a.268.268 0 00-.201.074c-.173 0-.604.499-.949.748-1.898 1.83-3.957 3.152-6.2 4.565-.394.326-.752.616-1.169.616-.223.001-.461-.081-.73-.283 0 6.154.929 10.595 3 14.753.259.332.776 1.247.776 1.247-1.553-3.576-2.051-7.601-2.051-12.59 0-.499-.173-1.247 0-1.58.173-.582 1.122-1.414 1.725-1.83 1.725-1.58 3.353-2.486 5.251-3.9.345-.333.604-.582.949-.748.345-.166 1.898-.416 2.588-.748-.776.748-1.725 2.162-2.675 2.911a.232.232 0 01-.166.074c-.11 0-.227-.074-.399-.074 0 7.484-.003 13.805 2.068 19.044.518 1.247 1.122 2.495 1.898 3.41C15.119 34.977 16 26.734 16 19c-.604-.499-.486-.572.031-1.154.604-.582 1.38-2.162 2.243-2.495 0 .333-.173.582-.345.832-.173.249-.518.665-.518.832-.173.582.173 1.83.345 2.495.518 2.162 1.122 4.827 1.898 6.491.346-.001.173-.837.346-1.003.173.166 0 1.002.345 1.002.776-1.663 1.467-4.328 1.898-6.491.173-.582.518-1.83.345-2.495 0-.166-.345-.499-.518-.748-.173-.249-.345-.582-.345-.832.776.333 1.553 1.83 2.243 2.495.518.583.636.655.032 1.071 0 7.734.864 16.06-1.983 21.05.776-.915 1.467-2.162 1.898-3.41C25.986 31.318 26 24.998 26 17.514c-.23 0-.366.074-.457.074-.045 0-.079-.018-.108-.074-.949-.748-1.898-2.162-2.675-2.911.69.333 2.243.582 2.588.748.345.166.604.499.949.748 1.898 1.414 3.439 2.57 5.251 4.066.604.499 1.553 1.247 1.725 1.83.173.333 0 1.081 0 1.58 0 4.99-.635 8.848-2.275 12.424 0 0 .518-.915.776-1.414C33.847 30.428 35 26.154 35 20c-.273.234-.515.324-.739.324-.413 0-.768-.304-1.159-.574-2.243-1.414-4.302-2.819-6.2-4.732-.345-.333-.776-.748-.949-.748a.305.305 0 00-.22-.074c-.173 0-.383.074-.556.074-.259 0-.48.005-.681.005-.538 0-.93-.033-1.495-.275.863-.083 1.396-.168 2.086-.168 3.106 0 5.525.272 7.078 1.187.518-.499 1.294-.915 1.725-1.58-.518-.582-.776-1.996-.949-2.744-.173-.582-.173-1.081-.345-1.414C31.647 5.954 30.898 3.495 29 1c1.898 3.576 3.251 7.117 3.078 12.356-.986-.317-3.366-.375-5.104-.375-.998 0-1.785.019-1.974.019h-2.412c.345-.499.518-1.474 1.122-1.64a.851.851 0 01.374-.074c.268 0 .575.074.92.074.621 0 1.27-.027 1.852-.027.874 0 1.598.06 1.857.359.345-.499 1.122-.665 1.294-1.081 0-.166-.173-.915-.345-1.414-.173-.499-.345-1.081-.518-1.414-.604-2.495-1.812-5.239-2.761-7.235L26.039.05z" fill="#66798f"></path></svg>