<svg viewBox="0 0 40 40" xmlns="http://www.w3.org/2000/svg"><circle cx="35" cy="21" r="3.5" fill="#8bb7f0"></circle><path d="M35 18c1.654 0 3 1.346 3 3s-1.346 3-3 3-3-1.346-3-3 1.346-3 3-3m0-1a4 4 0 100 8 4 4 0 000-8z" fill="#4e7ab5"></path><circle cx="3.5" cy="21" r="2" fill="#8bb7f0"></circle><path d="M3.5 19.5c.827 0 1.5.673 1.5 1.5s-.673 1.5-1.5 1.5S2 21.827 2 21s.673-1.5 1.5-1.5m0-1a2.5 2.5 0 100 5 2.5 2.5 0 000-5z" fill="#4e7ab5"></path><circle cx="19.5" cy="36.5" r="1" fill="#8bb7f0"></circle><path d="M19.5 36a.5.5 0 110 1 .5.5 0 010-1m0-1a1.5 1.5 0 10.001 3.001A1.5 1.5 0 0019.5 35z" fill="#4e7ab5"></path><circle cx="19.5" cy="5.5" r="3" fill="#8bb7f0"></circle><path d="M19.5 3C20.879 3 22 4.122 22 5.5S20.879 8 19.5 8 17 6.878 17 5.5 18.121 3 19.5 3m0-1a3.5 3.5 0 100 7 3.5 3.5 0 000-7z" fill="#4e7ab5"></path><g><circle cx="30" cy="33" r=".5" fill="#8bb7f0"></circle><path d="M30 32a1 1 0 100 2 1 1 0 000-2z" fill="#4e7ab5"></path></g><g><circle cx="8" cy="10" r="2.5" fill="#8bb7f0"></circle><path d="M8 8c1.103 0 2 .897 2 2s-.897 2-2 2-2-.897-2-2 .897-2 2-2m0-1a3 3 0 100 6 3 3 0 000-6z" fill="#4e7ab5"></path></g><g><circle cx="8" cy="32" r="1.5" fill="#8bb7f0"></circle><path d="M8 31c.551 0 1 .449 1 1s-.449 1-1 1-1-.449-1-1 .449-1 1-1m0-1a2 2 0 10-.001 3.999A2 2 0 008 30z" fill="#4e7ab5"></path></g><g><circle cx="30" cy="10" r="3.5" fill="#8bb7f0"></circle><path d="M30 7c1.654 0 3 1.346 3 3s-1.346 3-3 3-3-1.346-3-3 1.346-3 3-3m0-1a4 4 0 100 8 4 4 0 000-8z" fill="#4e7ab5"></path></g></svg>