<svg viewBox="0 0 40 40" xmlns="http://www.w3.org/2000/svg"><circle cx="5" cy="19" r="3.5" fill="#8bb7f0"></circle><path d="M5 16c1.654 0 3 1.346 3 3s-1.346 3-3 3-3-1.346-3-3 1.346-3 3-3m0-1a4 4 0 100 8 4 4 0 000-8z" fill="#4e7ab5"></path><circle cx="36.5" cy="19" r="2" fill="#8bb7f0"></circle><path d="M36.5 17.5c.827 0 1.5.673 1.5 1.5s-.673 1.5-1.5 1.5S35 19.827 35 19s.673-1.5 1.5-1.5m0-1a2.5 2.5 0 100 5 2.5 2.5 0 000-5z" fill="#4e7ab5"></path><circle cx="20.5" cy="3.5" r="1" fill="#8bb7f0"></circle><path d="M20.5 3a.5.5 0 110 1 .5.5 0 010-1m0-1a1.5 1.5 0 10.001 3.001A1.5 1.5 0 0020.5 2z" fill="#4e7ab5"></path><circle cx="20.5" cy="34.5" r="3" fill="#8bb7f0"></circle><path d="M20.5 32c1.378 0 2.5 1.121 2.5 2.5S21.878 37 20.5 37 18 35.879 18 34.5s1.122-2.5 2.5-2.5m0-1a3.5 3.5 0 100 7 3.5 3.5 0 000-7z" fill="#4e7ab5"></path><g><circle cx="10" cy="7" r=".5" fill="#8bb7f0"></circle><path d="M10 6a1 1 0 100 2 1 1 0 000-2z" fill="#4e7ab5"></path></g><g><circle cx="32" cy="30" r="2.5" fill="#8bb7f0"></circle><path d="M32 28c1.103 0 2 .897 2 2s-.897 2-2 2-2-.897-2-2 .897-2 2-2m0-1a3 3 0 100 6 3 3 0 000-6z" fill="#4e7ab5"></path></g><g><circle cx="32" cy="8" r="1.5" fill="#8bb7f0"></circle><path d="M32 7c.551 0 1 .449 1 1s-.449 1-1 1-1-.449-1-1 .449-1 1-1m0-1a2 2 0 10-.001 3.999A2 2 0 0032 6z" fill="#4e7ab5"></path></g><g><circle cx="10" cy="30" r="3.5" fill="#8bb7f0"></circle><path d="M10 27c1.654 0 3 1.346 3 3s-1.346 3-3 3-3-1.346-3-3 1.346-3 3-3m0-1a4 4 0 100 8 4 4 0 000-8z" fill="#4e7ab5"></path></g></svg>