<svg viewBox="0 0 40 40" xmlns="http://www.w3.org/2000/svg"><path d="M8.687 33.399a3.477 3.477 0 01-2.475-1.025 3.504 3.504 0 010-4.95 3.477 3.477 0 012.475-1.025c.935 0 1.813.364 2.475 1.025a3.504 3.504 0 010 4.95 3.476 3.476 0 01-2.475 1.025z" fill="#8bb7f0"></path><path d="M8.686 26.899c.801 0 1.555.312 2.121.879.567.567.879 1.32.879 2.121s-.312 1.555-.879 2.121c-.567.567-1.32.879-2.121.879s-1.555-.312-2.121-.879c-.567-.567-.879-1.32-.879-2.121s.312-1.555.879-2.121a2.984 2.984 0 012.121-.879m0-1a4 4 0 10.002 8.001 4 4 0 00-.002-8.001z" fill="#4e7ab5"></path><path d="M30.96 9.625a1.988 1.988 0 01-1.414-.585 2.003 2.003 0 011.414-3.415 2.003 2.003 0 011.415 3.415 1.992 1.992 0 01-1.415.585z" fill="#8bb7f0"></path><path d="M30.96 6.126a1.501 1.501 0 11-1.061 2.56 1.501 1.501 0 011.061-2.56m0-1a2.501 2.501 0 10.002 5 2.501 2.501 0 00-.002-5z" fill="#4e7ab5"></path><path d="M8.687 8.979a1.002 1.002 0 010-2 1.002 1.002 0 010 2z" fill="#8bb7f0"></path><path d="M8.686 7.479a.501.501 0 110 1.002.501.501 0 010-1.002m0-1a1.5 1.5 0 101.061 2.56 1.5 1.5 0 00-1.061-2.56z" fill="#4e7ab5"></path><path d="M30.607 32.899a2.983 2.983 0 01-2.122-.878 3.005 3.005 0 010-4.243 2.98 2.98 0 012.122-.879 2.98 2.98 0 012.121.879 3.005 3.005 0 010 4.243 2.981 2.981 0 01-2.121.878z" fill="#8bb7f0"></path><path d="M30.607 27.399c.668 0 1.296.26 1.768.732a2.503 2.503 0 010 3.536c-.472.472-1.1.732-1.768.732-.668 0-1.296-.26-1.768-.732a2.484 2.484 0 01-.732-1.768c0-.668.26-1.296.732-1.768a2.488 2.488 0 011.768-.732m0-1a3.5 3.5 0 100 7 3.5 3.5 0 000-7z" fill="#4e7ab5"></path><g><path d="M3.736 18.378a.501.501 0 01-.354-.853.498.498 0 01.354-.146.5.5 0 010 .999z" fill="#8bb7f0"></path><path d="M3.737 17.879c-.001 0-.001 0 0 0m0-1a.999.999 0 10.707 1.707.999.999 0 00-.707-1.707z" fill="#4e7ab5"></path></g><g><path d="M35.556 21.086c-.667 0-1.295-.26-1.768-.732a2.503 2.503 0 010-3.536 2.484 2.484 0 011.768-.732c.668 0 1.296.26 1.768.732a2.503 2.503 0 010 3.536c-.472.472-1.1.732-1.768.732z" fill="#8bb7f0"></path><path d="M35.556 16.586a2.001 2.001 0 010 4 2.001 2.001 0 010-4m0-1a3 3 0 100 6.001 3 3 0 000-6.001z" fill="#4e7ab5"></path></g><g><path d="M20 4.529a1.502 1.502 0 010-3 1.502 1.502 0 010 3z" fill="#8bb7f0"></path><path d="M20 2.029a1 1 0 11-.002 2 1 1 0 01.002-2m0-1a2 2 0 100 4 2 2 0 000-4z" fill="#4e7ab5"></path></g><g><path d="M20 37.642a3.477 3.477 0 01-2.475-1.025 3.505 3.505 0 010-4.95c.661-.661 1.54-1.025 2.475-1.025s1.814.364 2.475 1.025a3.505 3.505 0 010 4.95A3.477 3.477 0 0120 37.642z" fill="#8bb7f0"></path><path d="M20 31.142c.801 0 1.555.312 2.121.879.567.566.879 1.32.879 2.121s-.312 1.555-.879 2.121c-.567.567-1.32.879-2.121.879s-1.555-.312-2.121-.879c-.567-.566-.879-1.32-.879-2.121s.312-1.555.879-2.121A2.978 2.978 0 0120 31.142m0-1a4 4 0 10.002 8.001A4 4 0 0020 30.142z" fill="#4e7ab5"></path></g></svg>