<svg viewBox="0 0 40 40" xmlns="http://www.w3.org/2000/svg"><path d="M10.101 12.186a3.477 3.477 0 01-2.475-1.025 3.504 3.504 0 010-4.95 3.477 3.477 0 012.475-1.025c.935 0 1.813.364 2.475 1.025s1.025 1.54 1.025 2.475-.364 1.813-1.025 2.475-1.541 1.025-2.475 1.025z" fill="#8bb7f0"></path><path d="M10.101 5.686c.801 0 1.555.312 2.121.879.567.567.879 1.32.879 2.121s-.312 1.555-.879 2.121c-.567.567-1.32.879-2.121.879s-1.555-.312-2.121-.879c-.567-.567-.879-1.32-.879-2.121s.312-1.555.879-2.121a2.976 2.976 0 012.121-.879m-.001-1a4 4 0 10.002 8.001 4 4 0 00-.002-8.001z" fill="#4e7ab5"></path><path d="M32.375 32.96a1.992 1.992 0 01-1.415-.585 2.003 2.003 0 010-2.829c.378-.377.88-.585 1.415-.585s1.037.208 1.414.585c.378.378.586.88.586 1.414s-.208 1.037-.586 1.415a1.99 1.99 0 01-1.414.585z" fill="#8bb7f0"></path><path d="M32.374 29.46c.401 0 .777.156 1.061.439.283.283.439.66.439 1.061s-.156.777-.439 1.061c-.283.283-.66.439-1.061.439s-.777-.156-1.061-.439a1.501 1.501 0 011.061-2.561m0-1a2.501 2.501 0 10.002 5 2.501 2.501 0 00-.002-5z" fill="#4e7ab5"></path><path d="M32.021 9.686a1.002 1.002 0 010-1.999 1.002 1.002 0 010 1.999z" fill="#8bb7f0"></path><path d="M32.021 8.186a.501.501 0 01.354.853.498.498 0 01-.708 0 .5.5 0 01.354-.853m0-1a1.5 1.5 0 101.061 2.56 1.5 1.5 0 00-1.061-2.56z" fill="#4e7ab5"></path><path d="M10.101 33.606a2.985 2.985 0 01-2.122-.878 3.005 3.005 0 010-4.243c.567-.566 1.32-.878 2.122-.878s1.555.312 2.121.878a2.98 2.98 0 01.879 2.122 2.98 2.98 0 01-.879 2.121 2.983 2.983 0 01-2.121.878z" fill="#8bb7f0"></path><path d="M10.101 28.107c.668 0 1.296.26 1.768.732s.732 1.1.732 1.768-.26 1.296-.732 1.768-1.1.732-1.768.732c-.668 0-1.296-.26-1.768-.732s-.732-1.1-.732-1.768.26-1.296.732-1.768a2.484 2.484 0 011.768-.732m0-1a3.5 3.5 0 100 7 3.5 3.5 0 000-7z" fill="#4e7ab5"></path><g><path d="M22.121 4.236a.501.501 0 01-.354-.853.497.497 0 01.707 0 .502.502 0 010 .708.493.493 0 01-.353.145z" fill="#8bb7f0"></path><path d="M22.121 2.737a.999.999 0 10.707 1.707.999.999 0 00-.707-1.707z" fill="#4e7ab5"></path></g><g><path d="M21.414 38.056c-.667 0-1.295-.26-1.768-.732s-.732-1.1-.732-1.768c0-.667.26-1.295.732-1.768s1.1-.732 1.768-.732c.668 0 1.296.26 1.768.732a2.503 2.503 0 010 3.536c-.472.472-1.1.732-1.768.732z" fill="#8bb7f0"></path><path d="M21.414 33.556a2.001 2.001 0 010 4 2.001 2.001 0 010-4m0-1a3 3 0 100 6.001 3 3 0 000-6.001z" fill="#4e7ab5"></path></g><g><path d="M36.971 21.5a1.501 1.501 0 11.003-2.999 1.501 1.501 0 01-.003 2.999z" fill="#8bb7f0"></path><path d="M36.971 19c.267 0 .518.104.707.293.189.189.293.44.293.707s-.104.518-.293.707c-.189.189-.44.293-.707.293s-.518-.104-.707-.293c-.189-.189-.293-.44-.293-.707s.104-.518.293-.707a.99.99 0 01.707-.293m0-1a2 2 0 100 4 2 2 0 000-4z" fill="#4e7ab5"></path></g><g><path d="M5.858 23.5a3.477 3.477 0 01-2.475-1.025 3.505 3.505 0 010-4.95A3.477 3.477 0 015.858 16.5c.935 0 1.814.364 2.475 1.025a3.505 3.505 0 010 4.95A3.479 3.479 0 015.858 23.5z" fill="#8bb7f0"></path><path d="M5.858 17c.801 0 1.555.312 2.121.879a3.003 3.003 0 010 4.243c-.566.566-1.32.878-2.121.878s-1.555-.312-2.121-.879a3.003 3.003 0 010-4.243A2.981 2.981 0 015.858 17m0-1a4 4 0 10.002 8.001A4 4 0 005.858 16z" fill="#4e7ab5"></path></g></svg>