<svg viewBox="0 0 40 40" xmlns="http://www.w3.org/2000/svg"><path d="M31.314 13.601c-.936 0-1.814-.364-2.476-1.025s-1.025-1.54-1.025-2.475.364-1.813 1.025-2.475 1.54-1.025 2.476-1.025c.935 0 1.813.364 2.475 1.025s1.024 1.54 1.024 2.475-.363 1.813-1.024 2.475-1.54 1.025-2.475 1.025z" fill="#8bb7f0"></path><path d="M31.314 7.1c.801 0 1.555.312 2.121.879a3.003 3.003 0 010 4.243c-.567.567-1.32.879-2.121.879s-1.555-.312-2.121-.879c-.567-.567-.879-1.32-.879-2.121s.312-1.555.879-2.121a2.977 2.977 0 012.121-.88m0-.999a4 4 0 10.002 8.001 4 4 0 00-.002-8.001z" fill="#4e7ab5"></path><path d="M9.04 34.374a1.988 1.988 0 01-1.414-.585 2.003 2.003 0 011.414-3.415 2.003 2.003 0 011.414 3.415 1.99 1.99 0 01-1.414.585z" fill="#8bb7f0"></path><path d="M9.04 30.874c.401 0 .777.156 1.061.439.283.283.439.66.439 1.061 0 .401-.156.777-.439 1.061a1.49 1.49 0 01-1.061.439c-.401 0-.777-.156-1.061-.439a1.49 1.49 0 01-.439-1.061c0-.401.156-.777.439-1.061a1.49 1.49 0 011.061-.439m0-1a2.501 2.501 0 10.002 5 2.501 2.501 0 00-.002-5z" fill="#4e7ab5"></path><path d="M31.313 33.021c-.267 0-.518-.104-.707-.293s-.293-.439-.293-.707a.997.997 0 011.707-.707.997.997 0 010 1.414.99.99 0 01-.707.293z" fill="#8bb7f0"></path><path d="M31.314 31.521a.501.501 0 01.354.853.498.498 0 01-.708 0 .5.5 0 01.354-.853m0-1a1.5 1.5 0 101.061 2.56 1.5 1.5 0 00-1.061-2.56z" fill="#4e7ab5"></path><path d="M9.394 13.101c-.802 0-1.555-.312-2.121-.879s-.879-1.319-.879-2.121.312-1.555.879-2.121 1.319-.879 2.121-.879c.801 0 1.555.312 2.121.879s.879 1.319.879 2.121-.312 1.555-.879 2.121-1.321.879-2.121.879z" fill="#8bb7f0"></path><path d="M9.393 7.6c.668 0 1.296.26 1.768.732a2.503 2.503 0 010 3.536c-.472.472-1.1.732-1.768.732-.668 0-1.296-.26-1.768-.732a2.503 2.503 0 010-3.536A2.492 2.492 0 019.393 7.6m0-.999a3.5 3.5 0 100 7 3.5 3.5 0 000-7z" fill="#4e7ab5"></path><g><path d="M36.264 22.621a.5.5 0 110-1 .5.5 0 110 1z" fill="#8bb7f0"></path><path d="M36.263 21.121a.999.999 0 10.707 1.707.999.999 0 00-.707-1.707z" fill="#4e7ab5"></path></g><g><path d="M4.444 23.914c-.668 0-1.296-.26-1.769-.732a2.48 2.48 0 01-.732-1.768c0-.667.26-1.295.732-1.768s1.101-.732 1.769-.732c.667 0 1.295.26 1.768.732a2.503 2.503 0 01-1.768 4.268z" fill="#8bb7f0"></path><path d="M4.444 19.414a2.001 2.001 0 010 4 2.001 2.001 0 010-4m0-1a3 3 0 100 6.001 3 3 0 000-6.001z" fill="#4e7ab5"></path></g><g><path d="M20 38.471c-.4 0-.777-.156-1.061-.439s-.439-.66-.439-1.061c0-.401.156-.777.439-1.061s.661-.439 1.061-.439.777.156 1.061.439.439.659.439 1.061c0 .4-.156.777-.439 1.061s-.661.439-1.061.439z" fill="#8bb7f0"></path><path d="M20 35.971a1 1 0 11-.002 2 1 1 0 01.002-2m0-1a2 2 0 100 4 2 2 0 000-4z" fill="#4e7ab5"></path></g><g><path d="M20 9.357a3.478 3.478 0 01-2.475-1.024 3.505 3.505 0 010-4.95c.661-.661 1.54-1.024 2.475-1.024s1.813.363 2.475 1.024a3.505 3.505 0 010 4.95A3.478 3.478 0 0120 9.357z" fill="#8bb7f0"></path><path d="M20 2.858c.801 0 1.555.312 2.121.879.567.566.879 1.32.879 2.121s-.312 1.555-.879 2.121c-.566.567-1.32.879-2.121.879s-1.555-.312-2.121-.879C17.312 7.413 17 6.659 17 5.858s.312-1.555.879-2.121A2.978 2.978 0 0120 2.858m0-1a4 4 0 10.002 8.001A4 4 0 0020 1.858z" fill="#4e7ab5"></path></g></svg>