<svg viewBox="0 0 40 40" xmlns="http://www.w3.org/2000/svg"><path d="M29.899 34.813a3.478 3.478 0 01-2.475-1.024 3.505 3.505 0 010-4.95c.661-.661 1.54-1.025 2.475-1.025s1.813.364 2.475 1.025a3.505 3.505 0 010 4.95 3.476 3.476 0 01-2.475 1.024z" fill="#8bb7f0"></path><path d="M29.899 28.314c.801 0 1.555.312 2.121.879s.879 1.32.879 2.121-.312 1.555-.879 2.121c-.567.567-1.32.879-2.121.879s-1.555-.312-2.121-.879a3.003 3.003 0 010-4.243 2.983 2.983 0 012.121-.878m0-1a4 4 0 10.002 8.001 4 4 0 00-.002-8.001z" fill="#4e7ab5"></path><path d="M7.626 11.04a1.987 1.987 0 01-1.415-.586 2.003 2.003 0 010-2.828c.378-.378.88-.586 1.415-.586.534 0 1.036.208 1.414.586s.586.88.586 1.414-.208 1.036-.586 1.414-.88.586-1.414.586z" fill="#8bb7f0"></path><path d="M7.626 7.54a1.501 1.501 0 11-1.061 2.56 1.501 1.501 0 011.061-2.56m0-1a2.501 2.501 0 10.002 5 2.501 2.501 0 00-.002-5z" fill="#4e7ab5"></path><path d="M7.979 32.313a.99.99 0 01-.707-.293.99.99 0 01-.293-.707c0-.267.104-.518.293-.707s.439-.293.707-.293a.997.997 0 01.707 1.707.997.997 0 01-.707.293z" fill="#8bb7f0"></path><path d="M7.979 30.814a.501.501 0 01.354.853.5.5 0 11-.354-.853m0-1a1.5 1.5 0 101.061 2.56 1.5 1.5 0 00-1.061-2.56z" fill="#4e7ab5"></path><path d="M29.899 12.394c-.802 0-1.555-.312-2.121-.879s-.879-1.32-.879-2.121c0-.802.312-1.555.879-2.121s1.319-.879 2.121-.879 1.555.312 2.121.879.879 1.319.879 2.121c0 .801-.312 1.555-.879 2.121s-1.319.879-2.121.879z" fill="#8bb7f0"></path><path d="M29.899 6.893c.668 0 1.296.26 1.768.732a2.503 2.503 0 010 3.536c-.472.472-1.1.732-1.768.732s-1.296-.26-1.768-.732a2.484 2.484 0 01-.732-1.768c0-.668.26-1.296.732-1.768a2.487 2.487 0 011.768-.732m0-1a3.5 3.5 0 100 7 3.5 3.5 0 000-7z" fill="#4e7ab5"></path><g><path d="M17.879 36.764a.5.5 0 110-1 .5.5 0 110 1z" fill="#8bb7f0"></path><path d="M17.879 36.263c-.001 0-.001 0 0 0m0-1a.999.999 0 10.707 1.707.999.999 0 00-.707-1.707z" fill="#4e7ab5"></path></g><g><path d="M18.586 6.943c-.668 0-1.296-.26-1.768-.731a2.483 2.483 0 01-.732-1.768c0-.668.26-1.296.732-1.769a2.48 2.48 0 011.768-.732c.667 0 1.295.26 1.768.732s.732 1.101.732 1.769c0 .667-.26 1.295-.732 1.768a2.486 2.486 0 01-1.768.731z" fill="#8bb7f0"></path><path d="M18.586 2.444a2.001 2.001 0 010 4 2.001 2.001 0 010-4m0-1a3 3 0 100 6.001 3 3 0 000-6.001z" fill="#4e7ab5"></path></g><g><path d="M3.029 21.5a1.501 1.501 0 111.061-2.56 1.501 1.501 0 01-1.061 2.56z" fill="#8bb7f0"></path><path d="M3.029 19c.267 0 .518.104.707.293.189.189.293.44.293.707s-.104.518-.293.707a.99.99 0 01-.707.293.993.993 0 01-.707-.293c-.189-.189-.293-.44-.293-.707s.104-.518.293-.707A.993.993 0 013.029 19m0-1a2 2 0 100 4 2 2 0 000-4z" fill="#4e7ab5"></path></g><g><path d="M34.143 23.5a3.48 3.48 0 01-2.476-1.025 3.504 3.504 0 010-4.949 3.478 3.478 0 012.476-1.025c.935 0 1.813.364 2.475 1.025a3.504 3.504 0 010 4.949 3.48 3.48 0 01-2.475 1.025z" fill="#8bb7f0"></path><path d="M34.142 17c.801 0 1.555.312 2.121.879.567.567.879 1.32.879 2.121s-.312 1.555-.879 2.121c-.566.567-1.32.879-2.121.879s-1.555-.312-2.121-.879c-.567-.567-.879-1.32-.879-2.121s.312-1.555.879-2.121A2.978 2.978 0 0134.142 17m0-1a4 4 0 10.002 8.001A4 4 0 0034.142 16z" fill="#4e7ab5"></path></g></svg>