<svg viewBox="0 0 40 40" xmlns="http://www.w3.org/2000/svg"><circle cx="19" cy="35" r="3.5" fill="#8bb7f0"></circle><path d="M19 32c1.654 0 3 1.346 3 3s-1.346 3-3 3-3-1.346-3-3 1.346-3 3-3m0-1a4 4 0 100 8 4 4 0 000-8z" fill="#4e7ab5"></path><circle cx="19" cy="3.5" r="2" fill="#8bb7f0"></circle><path d="M19 2c.827 0 1.5.673 1.5 1.5S19.827 5 19 5s-1.5-.673-1.5-1.5S18.173 2 19 2m0-1a2.5 2.5 0 100 5 2.5 2.5 0 000-5z" fill="#4e7ab5"></path><circle cx="3.5" cy="19.5" r="1" fill="#8bb7f0"></circle><path d="M3.5 19a.5.5 0 110 1 .5.5 0 010-1m0-1a1.5 1.5 0 10.001 3.001A1.5 1.5 0 003.5 18z" fill="#4e7ab5"></path><circle cx="34.5" cy="19.5" r="3" fill="#8bb7f0"></circle><path d="M34.5 17c1.379 0 2.5 1.122 2.5 2.5S35.879 22 34.5 22 32 20.878 32 19.5s1.121-2.5 2.5-2.5m0-1a3.5 3.5 0 100 7 3.5 3.5 0 000-7z" fill="#4e7ab5"></path><g><circle cx="7" cy="30" r=".5" fill="#8bb7f0"></circle><path d="M7 29a1 1 0 100 2 1 1 0 000-2z" fill="#4e7ab5"></path></g><g><circle cx="30" cy="8" r="2.5" fill="#8bb7f0"></circle><path d="M30 6c1.103 0 2 .897 2 2s-.897 2-2 2-2-.897-2-2 .897-2 2-2m0-1a3 3 0 100 6 3 3 0 000-6z" fill="#4e7ab5"></path></g><g><circle cx="8" cy="8" r="1.5" fill="#8bb7f0"></circle><path d="M8 7c.551 0 1 .449 1 1s-.449 1-1 1-1-.449-1-1 .449-1 1-1m0-1a2 2 0 10-.001 3.999A2 2 0 008 6z" fill="#4e7ab5"></path></g><g><circle cx="30" cy="30" r="3.5" fill="#8bb7f0"></circle><path d="M30 27c1.654 0 3 1.346 3 3s-1.346 3-3 3-3-1.346-3-3 1.346-3 3-3m0-1a4 4 0 100 8 4 4 0 000-8z" fill="#4e7ab5"></path></g></svg>