<svg viewBox="0 0 40 40" xmlns="http://www.w3.org/2000/svg"><path d="M27.971 22.909c-.197 0-.396-.026-.589-.079l-16.133-4.386a2.238 2.238 0 01-1.627-2.472 2.245 2.245 0 012.21-1.922c.198 0 .396.027.59.08l16.133 4.386a2.238 2.238 0 011.627 2.472 2.245 2.245 0 01-2.211 1.921z" fill="#ffeea3"></path><path d="M11.831 14.55c.153 0 .308.021.459.062l16.133 4.386a1.739 1.739 0 011.264 1.919 1.744 1.744 0 01-1.716 1.493c-.153 0-.308-.021-.459-.062l-16.133-4.386a1.739 1.739 0 01-1.264-1.919 1.744 1.744 0 011.716-1.493m0-1a2.737 2.737 0 00-.715 5.377l16.133 4.386a2.737 2.737 0 003.427-2.255 2.737 2.737 0 00-1.991-3.025l-16.133-4.386a2.725 2.725 0 00-.721-.097z" fill="#ba9b48"></path><path d="M27.972 15.914c-.241 0-.481-.039-.713-.117l-15.85-5.32a2.238 2.238 0 01-1.48-2.562 2.242 2.242 0 012.19-1.794c.241 0 .481.04.713.118l15.85 5.32a2.237 2.237 0 011.48 2.562 2.24 2.24 0 01-2.19 1.793z" fill="#ffeea3"></path><path d="M12.119 6.62c.187 0 .373.031.554.091l15.85 5.32a1.739 1.739 0 011.15 1.99 1.741 1.741 0 01-2.255 1.302l-15.85-5.32a1.739 1.739 0 01-1.15-1.99 1.743 1.743 0 011.701-1.393m0-1a2.736 2.736 0 00-.869 5.331l15.85 5.32a2.738 2.738 0 003.553-2.052 2.736 2.736 0 00-1.812-3.136l-15.85-5.32a2.746 2.746 0 00-.872-.143z" fill="#ba9b48"></path><circle cx="20" cy="36" r="3" fill="#2d3540"></circle><path d="M16 36.5c-.827 0-1.5-.673-1.5-1.5v-4.5h11V35c0 .827-.673 1.5-1.5 1.5h-8z" fill="#dcd5f2"></path><path d="M25 31v4c0 .551-.449 1-1 1h-8c-.551 0-1-.449-1-1v-4h10m1-1H14v5a2 2 0 002 2h8a2 2 0 002-2v-5z" fill="#8b75a1"></path><path fill="#ffeea3" d="M22.5 22.5h3v5h-3z"></path><path d="M25 23v4h-2v-4h2m1-1h-4v6h4v-6z" fill="#ba9b48"></path><path d="M14.5 27.5v-2.405l-2.428.371a2.248 2.248 0 01-2.573-2.149 2.238 2.238 0 011.897-2.271l16.527-2.527a2.248 2.248 0 012.573 2.149 2.239 2.239 0 01-1.897 2.271L17.5 24.636V27.5h-3z" fill="#ffeea3"></path><path d="M28.266 18.992c.929 0 1.705.758 1.731 1.689a1.738 1.738 0 01-1.473 1.763l-10.675 1.633-.849.129V27h-2v-2.488l-1.151.176-1.852.283c-.09.014-.179.021-.268.021a1.746 1.746 0 01-1.731-1.689 1.738 1.738 0 011.473-1.763l16.527-2.527c.09-.014.18-.021.268-.021m0-1c-.138 0-.278.01-.419.032L11.32 20.551a2.736 2.736 0 10.828 5.408L14 25.677V28h4v-2.935l10.675-1.633a2.736 2.736 0 00-.409-5.44z" fill="#ba9b48"></path><path d="M11.729 10.492a2.248 2.248 0 01-2.23-2.175 2.238 2.238 0 011.897-2.271l8.026-1.227c2.956-.922 4.05-2.393 4.438-3.182 1.515.591 4.261 2.027 4.604 3.863l.007.409.015.104c.027 1.087-.788 2.064-1.901 2.234l-14.513 2.219a2.35 2.35 0 01-.343.026z" fill="#ffeea3"></path><path d="M24.086 2.271c1.391.601 3.493 1.786 3.859 3.188l.028.475c.002.036.006.071.011.106a1.738 1.738 0 01-1.474 1.712L11.997 9.971a1.746 1.746 0 01-1.999-1.669 1.739 1.739 0 011.474-1.762l8.026-1.227.075-.012.073-.023c2.639-.827 3.872-2.098 4.44-3.007M23.571 1s-.428 2.134-4.225 3.324L11.32 5.551a2.736 2.736 0 10.828 5.408L26.661 8.74a2.736 2.736 0 002.322-2.779c-.001-.03-.01-.057-.012-.086l.029.004C29 2.803 23.571 1 23.571 1z" fill="#ba9b48"></path><g><path d="M13 30.5a2.503 2.503 0 01-2.5-2.5v-.5h19v.5c0 1.378-1.122 2.5-2.5 2.5H13z" fill="#dcd5f2"></path><path d="M29 28c0 1.103-.897 2-2 2H13c-1.103 0-2-.897-2-2h18m1-1H10v1a3 3 0 003 3h14a3 3 0 003-3v-1z" fill="#8b75a1"></path></g><path fill="#8b75a1" d="M19 34h7v1h-7zM14 34h3v1h-3zM19 32h7v1h-7zM14 32h3v1h-3z"></path><g><path d="M11.729 18.492a2.248 2.248 0 01-2.23-2.175 2.239 2.239 0 011.897-2.271l16.527-2.527a2.248 2.248 0 012.573 2.149 2.238 2.238 0 01-1.897 2.271l-16.527 2.527a2.35 2.35 0 01-.343.026z" fill="#ffeea3"></path><path d="M28.266 11.992c.929 0 1.705.758 1.731 1.689a1.738 1.738 0 01-1.473 1.763l-16.527 2.527c-.09.014-.18.021-.268.021a1.746 1.746 0 01-1.731-1.689 1.738 1.738 0 011.473-1.763l16.527-2.527c.09-.014.18-.021.268-.021m0-1c-.138 0-.278.01-.419.032L11.32 13.551a2.736 2.736 0 10.828 5.408l16.527-2.527a2.736 2.736 0 00-.409-5.44z" fill="#ba9b48"></path></g></svg>