<svg viewBox="0 0 40 40" xmlns="http://www.w3.org/2000/svg"><path d="M17.5 38.5V21.657c0-1.736.677-3.368 1.904-4.597L32.086 4.379 29.207 1.5H38.5v9.293l-2.879-2.879-12.682 12.682a1.494 1.494 0 00-.439 1.062V38.5h-5z" fill="#c2e8ff"></path><path d="M38 2v7.586l-1.672-1.672-.707-.707-.707.707-12.33 12.33c-.377.378-.584.88-.584 1.413V38h-4V21.657a5.96 5.96 0 011.758-4.243L32.086 5.086l.707-.707-.707-.707L30.414 2H38m1-1H28l3.379 3.379-12.328 12.328A6.955 6.955 0 0017 21.657V39h6V21.657c0-.268.104-.519.293-.708L35.621 8.621 39 12V1z" fill="#4e7ab5"></path><g><path d="M17.5 38.5V21.657c0-.399-.155-.776-.438-1.061L4.379 7.914 1.5 10.793V1.5h9.293L7.914 4.379l12.682 12.682a6.46 6.46 0 011.904 4.597V38.5h-5z" fill="#8bb7f0"></path><path d="M9.586 2L7.914 3.672l-.707.707.707.707 12.328 12.328A5.961 5.961 0 0122 21.657V38h-4V21.657a1.99 1.99 0 00-.586-1.415L5.086 7.914l-.707-.707-.707.707L2 9.586V2h7.586M12 1H1v11l3.379-3.379 12.328 12.328c.188.19.293.441.293.708V39h6V21.657c0-1.87-.729-3.628-2.051-4.95L8.621 4.379 12 1z" fill="#4e7ab5"></path></g></svg>