<svg viewBox="0 0 40 40" xmlns="http://www.w3.org/2000/svg"><path fill="#4e7ab5" d="M16 2h2v36h-2zM22 2h2v36h-2z"></path><path fill="#8bb7f0" d="M1.748 20l8.752-7.877V17.5h6v5h-6v5.377z"></path><path d="M10 13.245V18h6v4h-6v4.755L2.495 20 10 13.245M11 11L1 20l10 9v-6h6v-6h-6v-6z" fill="#4e7ab5"></path><g><path fill="#8bb7f0" d="M29.5 22.5h-6v-5h6v-5.377L38.252 20 29.5 27.877z"></path><path d="M30 13.245L37.505 20 30 26.755V22h-6v-4h6v-4.755M29 11v6h-6v6h6v6l10-9-10-9z" fill="#4e7ab5"></path></g></svg>