<svg viewBox="0 0 40 40" xmlns="http://www.w3.org/2000/svg"><path d="M5.16 38.5a3.64 3.64 0 01-2.588-1.072 3.628 3.628 0 01-1.071-2.687 3.628 3.628 0 011.212-2.625l16.969-15.251-.176-.343a9.118 9.118 0 011.672-10.636c2.5-2.5 7.166-4.386 10.853-4.386 2.062 0 3.727.573 4.811 1.658 3.508 3.508.819 12.116-2.729 15.664a9.078 9.078 0 01-6.461 2.676 9.19 9.19 0 01-4.174-1.004l-.343-.176L7.884 37.286A3.665 3.665 0 015.16 38.5z" fill="#dcd5f2"></path><path d="M32.031 2c1.344 0 3.208.262 4.458 1.511 1.444 1.444 1.878 4.092 1.191 7.266-.633 2.923-2.171 5.942-3.919 7.69a8.581 8.581 0 01-6.108 2.53 8.69 8.69 0 01-3.946-.949l-.685-.351-.515.573L7.512 36.952A3.166 3.166 0 015.16 38a3.138 3.138 0 01-2.234-.926 3.132 3.132 0 01-.925-2.319 3.13 3.13 0 011.047-2.267L19.73 17.494l.573-.515-.351-.685a8.62 8.62 0 011.58-10.054C23.95 3.823 28.463 2 32.031 2m0-1c-3.996 0-8.711 2.038-11.206 4.533-3.036 3.036-3.621 7.591-1.763 11.217L2.38 31.744a4.161 4.161 0 105.876 5.876L23.25 20.938a9.654 9.654 0 004.402 1.059c2.467 0 4.933-.94 6.815-2.823 3.767-3.767 6.495-12.603 2.728-16.37C35.923 1.531 34.07 1 32.031 1z" fill="#8b75a1"></path><path fill="#dcd5f2" stroke="#8b75a1" stroke-miterlimit="10" d="M7.5 31.5l3 3M5.5 29.5l1 1M9.5 29.5l3 3M7.5 27.5l1 1"></path></svg>