<svg viewBox="0 0 40 40" xmlns="http://www.w3.org/2000/svg"><path d="M23 10.5c-2.481 0-4.5-2.019-4.5-4.5s2.019-4.5 4.5-4.5 4.5 2.019 4.5 4.5-2.019 4.5-4.5 4.5z" fill="#ffeea3"></path><path d="M23 2c2.206 0 4 1.794 4 4s-1.794 4-4 4-4-1.794-4-4 1.794-4 4-4m0-1a5 5 0 10.001 10.001A5 5 0 0023 1z" fill="#ba9b48"></path><path d="M16.418 20.752l7.098 3.658c.622.225.998.753.998 1.34 0 .615-.399 1.15-.994 1.331l-10.376 2.405 3.274-8.734z" fill="#99c99e"></path><path d="M16.689 21.454l6.598 3.4.06.031.064.023a.899.899 0 01.603.842.89.89 0 01-.614.844l-9.461 2.194 2.75-7.334m-.542-1.404l-3.8 10.133 11.318-2.624a1.893 1.893 0 001.349-1.809c0-.827-.532-1.523-1.269-1.784l-7.598-3.916z" fill="#5e9c76"></path><path d="M5.899 19.5a1.4 1.4 0 01-1.119-2.241L9.245 11.5H17.3c.772 0 1.4.628 1.4 1.4 0 .41.126.916.247 1.404.095.383.248.997.22 1.251l-8.479-1.294-3.66 4.67a1.398 1.398 0 01-1.129.569z" fill="#ffeea3"></path><path d="M17.3 12c.496 0 .9.404.9.9 0 .471.133 1.007.262 1.525.038.152.087.349.127.537l-7.539-1.15-.578-.088-.36.46L6.62 18.64a.904.904 0 01-1.26.181.899.899 0 01-.19-1.248L9.49 12h7.81m0-1H9l-4.62 5.959a1.901 1.901 0 003.04 2.281l3.48-4.44 8.3 1.267c1.049 0 0-2.118 0-3.167s-.851-1.9-1.9-1.9z" fill="#ba9b48"></path><g><path d="M19.426 15.816c.127-.186.382-.46.565-.657.398-.428.81-.87.993-1.33.109-.273.514-1.164 1.137-1.164a.86.86 0 01.312.065l6.063 2.517 4.748-3.436c.252-.188.543-.284.848-.284.445 0 .854.203 1.121.559a1.405 1.405 0 01-.28 1.961L28.9 18.453l-9.474-2.637z" fill="#ffeea3"></path><path d="M34.091 12.027a.9.9 0 01.551 1.612l-5.84 4.268-8.486-2.362.042-.045c.429-.461.873-.938 1.092-1.485.234-.586.534-.85.672-.85.033 0 .077.01.114.025l5.811 2.411.516.214.453-.328 4.534-3.281a.899.899 0 01.541-.179m-.001-1c-.397 0-.797.124-1.14.379l-4.522 3.272-5.811-2.411a1.336 1.336 0 00-.497-.101c-.727 0-1.28.678-1.6 1.478-.39.973-2.377 2.216-1.403 2.606L29 19l6.232-4.554a1.898 1.898 0 00-1.142-3.419z" fill="#ba9b48"></path></g><g><path d="M7.541 38.5a2.035 2.035 0 01-1.816-2.943l10.188-22.954a2.013 2.013 0 011.809-1.104c.43.034 4.299 1.047 4.68 1.217.48.24.843.657 1.014 1.173a2.02 2.02 0 01-.11 1.553L9.388 37.331c-.372.738-1.071 1.169-1.847 1.169z" fill="#bae0bd"></path><path d="M17.717 12c.554.084 4.04.997 4.454 1.162.367.183.64.498.769.887a1.52 1.52 0 01-.064 1.13L8.966 37.063l-.028.043-.023.046a1.527 1.527 0 01-2.057.686 1.518 1.518 0 01-.769-.887c-.129-.389-.1-.804.103-1.212L16.35 12.847c.26-.521.784-.846 1.367-.847m.005-1c-.93 0-1.824.514-2.267 1.401L5.277 35.334A2.533 2.533 0 007.541 39c.93 0 1.825-.512 2.269-1.4l13.941-21.934a2.533 2.533 0 00-1.133-3.399c-.349-.174-4.482-1.26-4.847-1.267h-.049z" fill="#5e9c76"></path></g></svg>