<svg viewBox="0 0 40 40" xmlns="http://www.w3.org/2000/svg"><path d="M10.938 37.5c-2.758 0-5.018-.726-6.363-2.043-1.323-1.295-2.06-3.509-2.075-6.232-.033-5.99 3.271-13.189 8.416-18.341C17.091 4.702 24.382 2.5 29.146 2.5c2.761 0 5.004.724 6.317 2.04 4.099 4.103 1.979 16.25-6.337 24.577-6.175 6.181-13.443 8.383-18.188 8.383z" fill="#f78f8f"></path><path d="M29.147 3c2.626 0 4.743.672 5.962 1.893 3.94 3.945 1.79 15.734-6.337 23.87C22.706 34.836 15.582 37 10.938 37c-2.626 0-4.762-.675-6.013-1.9C3.698 33.898 3.014 31.811 3 29.222c-.032-5.863 3.214-12.923 8.27-17.985C16.268 6.234 23.285 3 29.147 3m-.001-1c-5.53 0-12.84 2.78-18.584 8.53C1.861 19.242-.126 31.553 4.225 35.814 5.705 37.263 8.09 38 10.938 38c5.529 0 12.798-2.78 18.542-8.53 8.702-8.712 10.594-21.022 6.337-25.284C34.37 2.737 31.994 2 29.146 2z" fill="#c74343"></path><path d="M29.48 29.47c-8.702 8.712-20.903 10.606-25.254 6.345 6.621 0 15.323-9.28 18.822-12.784S35.817 10.246 35.817 4.186c4.256 4.261 2.364 16.572-6.337 25.284z" fill="#c74343"></path><circle cx="26.5" cy="18.5" r="2" fill="#704e34"></circle><path d="M26.5 17a1.5 1.5 0 11-.001 3.001A1.5 1.5 0 0126.5 17m0-1c-1.378 0-2.5 1.121-2.5 2.5s1.122 2.5 2.5 2.5 2.5-1.121 2.5-2.5-1.122-2.5-2.5-2.5z" fill="#f78f8f"></path><circle cx="21.502" cy="13.5" r="1" fill="#a16a4a"></circle><path d="M21.502 13a.5.5 0 010 1 .5.5 0 010-1m0-1a1.5 1.5 0 000 3 1.5 1.5 0 000-3z" fill="#704e34"></path><path fill="none" stroke="#ab3434" stroke-miterlimit="10" d="M13.077 26.923l13.846-13.846"></path><path fill="none" stroke="#fff" stroke-miterlimit="10" d="M21.3 13.3l5.4 5.4"></path><circle cx="22.5" cy="22.5" r="2" fill="#704e34"></circle><path d="M22.5 21a1.5 1.5 0 11-.001 3.001A1.5 1.5 0 0122.5 21m0-1c-1.378 0-2.5 1.121-2.5 2.5s1.122 2.5 2.5 2.5 2.5-1.121 2.5-2.5-1.122-2.5-2.5-2.5z" fill="#f78f8f"></path><circle cx="17.502" cy="17.5" r="1" fill="#a16a4a"></circle><path d="M17.502 17a.5.5 0 11-.002.998.5.5 0 01.002-.998m0-1a1.5 1.5 0 000 3 1.5 1.5 0 000-3z" fill="#704e34"></path><path fill="none" stroke="#fff" stroke-miterlimit="10" d="M17.316 17.315l5.416 5.4"></path><g><circle cx="18.5" cy="26.5" r="2" fill="#704e34"></circle><path d="M18.5 25a1.5 1.5 0 11-.001 3.001A1.5 1.5 0 0118.5 25m0-1c-1.378 0-2.5 1.121-2.5 2.5s1.122 2.5 2.5 2.5 2.5-1.121 2.5-2.5-1.122-2.5-2.5-2.5z" fill="#f78f8f"></path></g><g><circle cx="13.501" cy="21.5" r="1" fill="#a16a4a"></circle><path d="M13.502 21a.5.5 0 010 1 .5.5 0 010-1m0-1a1.5 1.5 0 000 3 1.5 1.5 0 000-3z" fill="#704e34"></path></g><path fill="none" stroke="#fff" stroke-miterlimit="10" d="M13.3 21.3l5.4 5.4"></path></svg>