<svg viewBox="0 0 40 40" xmlns="http://www.w3.org/2000/svg"><path fill="#e1ebf2" d="M2 28h11v1H2z"></path><path fill="#a3b7cc" d="M13 28H2v1h11v-1z"></path><path fill="#e1ebf2" d="M2 24h15v1H2z"></path><path fill="#a3b7cc" d="M17 24H2v1h15v-1z"></path><path fill="#e1ebf2" d="M2 32h13v1H2z"></path><path fill="#a3b7cc" d="M15 32H2v1h13v-1z"></path><path d="M21.5 26.5v-6.419l2.956-8.87c.162-.257 1.146-1.725 2.569-1.725.578 0 1.182.243 1.794.721 2.731 2.135 1.307 5.44 1.292 5.474L26.636 26.5H21.5z" fill="#f78f8f"></path><path d="M27.025 9.987c.464 0 .964.207 1.486.614 2.402 1.877 1.194 4.759 1.143 4.877l-.022.049-.016.051L26.271 26H22v-5.838l2.912-8.735c.194-.297 1.015-1.44 2.113-1.44m0-1C25.154 8.987 24 11 24 11l-3 9v7h6l3.568-11.116s1.629-3.67-1.441-6.07c-.77-.602-1.476-.827-2.102-.827z" fill="#c74343"></path><path d="M31 8.5c-1.93 0-3.5-1.57-3.5-3.5s1.57-3.5 3.5-3.5 3.5 1.57 3.5 3.5-1.57 3.5-3.5 3.5z" fill="#ffeea3"></path><path d="M31 2c1.654 0 3 1.346 3 3s-1.346 3-3 3-3-1.346-3-3 1.346-3 3-3m0-1a4 4 0 100 8 4 4 0 000-8z" fill="#ba9b48"></path><path d="M34 36h4v-1h-4c-1.962 0-2-2-2-2v-8H19v1h12v7s.004 3 3 3z" fill="#36404d"></path><g><path d="M34 34.5c-.827 0-1.5-.673-1.5-1.5v-8.5h3V33c0 .827-.673 1.5-1.5 1.5z" fill="#ffeea3"></path><path d="M35 25v8c0 .551-.449 1-1 1s-1-.449-1-1v-8h2m1-1h-4v9a2 2 0 104 0v-9z" fill="#ba9b48"></path></g><g><path d="M21.5 24.5v-3H33c1.215 0 2.5 1.285 2.5 2.5l-.036.5H21.5z" fill="#99c99e"></path><path d="M33 22c.943 0 1.978 1.024 2 1.969l-.003.031H22v-2h11m0-1H21v4H35.928L36 24c0-1.499-1.501-3-3-3z" fill="#5e9c76"></path></g><g><path d="M20.5 38.5c-4.963 0-9-4.038-9-9s4.037-9 9-9 9 4.038 9 9-4.037 9-9 9z" fill="#839cb2"></path><path d="M20.5 21c4.687 0 8.5 3.813 8.5 8.5S25.187 38 20.5 38 12 34.187 12 29.5s3.813-8.5 8.5-8.5m0-1c-5.247 0-9.5 4.253-9.5 9.5s4.253 9.5 9.5 9.5 9.5-4.253 9.5-9.5-4.253-9.5-9.5-9.5z" fill="#66798f"></path></g><g><circle cx="20.5" cy="29.5" r="1" fill="#4e5e6d"></circle><path d="M20.5 29a.5.5 0 110 1 .5.5 0 010-1m0-1a1.5 1.5 0 10.001 3.001A1.5 1.5 0 0020.5 28z" fill="#36404d"></path></g><g><path d="M16.999 19.5a1.496 1.496 0 01-1.392-.944 1.482 1.482 0 01.015-1.147l3-7A1.495 1.495 0 0120 9.5h7c.827 0 1.5.673 1.5 1.5s-.673 1.5-1.5 1.5h-6.012l-2.61 6.091a1.496 1.496 0 01-1.379.909z" fill="#ffeea3"></path><path d="M27 10c.551 0 1 .449 1 1 0 .551-.449 1-1 1h-6.341l-.26.606-2.481 5.789a.997.997 0 01-1.312.524.993.993 0 01-.534-.548.99.99 0 01.01-.765l3-7.001A.997.997 0 0120 10h7m0-1h-7a2 2 0 00-1.838 1.212l-3 7a2 2 0 103.676 1.575L21.318 13H27a2 2 0 000-4z" fill="#ba9b48"></path></g></svg>