<svg viewBox="0 0 40 40" xmlns="http://www.w3.org/2000/svg"><path d="M27.6 37.491c-6.529 0-10.199-1.756-10.94-3.496l-9.519-23.4 2.31-2.399 28.533 25.082c.339.314.516.624.516.913 0 1.561-4.477 3.3-10.9 3.3z" fill="#ffeea3"></path><path d="M9.48 8.888l28.156 24.75c.228.211.364.417.364.553 0 .987-3.948 2.8-10.4 2.8-6.266 0-9.825-1.655-10.474-3.177L7.727 10.708l1.753-1.82m-.058-1.382l-2.867 2.977L16.2 34.191c.91 2.138 5.104 3.8 11.4 3.8S39 36.29 39 34.191c0-.453-.25-.885-.686-1.288L9.422 7.506z" fill="#f5c276"></path><path d="M27.733 31c-6.737 0-10.267 2.229-10.267 3 0 1.014 3.53 3 10.267 3S38 35.014 38 34c0-.771-3.53-3-10.267-3z" fill="#fff9de"></path><path fill="#66798f" d="M3.5 8.207L7.207 4.5H11.5 7.793L3.5 8.793V12.5z"></path><path fill="#36404d" d="M12 4H7L3 8v5h1V9l4-4h4V4z"></path><g><path d="M2.092 6.831a2.036 2.036 0 010-2.875l.863-.863c.382-.383.893-.593 1.439-.593s1.056.21 1.438.592l4.284 4.285-3.739 3.739-4.285-4.285z" fill="#b0c1d4"></path><path d="M4.394 3c.411 0 .796.158 1.084.446l3.931 3.931-3.032 3.032-3.931-3.931a1.534 1.534 0 010-2.168l.863-.863A1.519 1.519 0 014.394 3m0-1c-.65 0-1.299.246-1.792.739l-.863.863a2.542 2.542 0 000 3.583l4.638 4.638 4.446-4.446-4.638-4.638A2.525 2.525 0 004.394 2z" fill="#66798f"></path></g><g><path fill="#66798f" d="M10.307 7.568L6.57 11.306 3.748 8.485l3.738-3.739z"></path><path d="M7.486 5.454L9.6 7.568 6.568 10.6 4.454 8.486l3.032-3.032m0-1.414L3.04 8.486l3.528 3.528 4.446-4.446L7.486 4.04z" fill="#36404d"></path></g></svg>