<svg viewBox="0 0 40 40" xmlns="http://www.w3.org/2000/svg"><path fill="#c74343" d="M39 1h-6.786l2.24 2.239-4.129 4.129 2.307 2.307 4.129-4.129L39 7.786z"></path><circle cx="27" cy="13" r="6.5" fill="#8bb7f0"></circle><path d="M27 7c3.308 0 6 2.692 6 6s-2.692 6-6 6-6-2.692-6-6 2.692-6 6-6m0-1a7 7 0 100 14 7 7 0 000-14z" fill="#4e7ab5"></path><path fill="#c74343" d="M9.675 32.632l-2.307-2.307-4.129 4.129L1 32.214V39h6.786l-2.24-2.239z"></path><g><circle cx="13" cy="27" r="6.5" fill="#8bb7f0"></circle><path d="M13 21c3.308 0 6 2.692 6 6s-2.692 6-6 6-6-2.692-6-6 2.692-6 6-6m0-1a7 7 0 100 14 7 7 0 000-14z" fill="#4e7ab5"></path></g></svg>