<svg viewBox="0 0 40 40" xmlns="http://www.w3.org/2000/svg"><path d="M20 19.035C18.642 16.768 14.5 9.634 14.5 7c0-3.032 2.468-5.5 5.5-5.5s5.5 2.468 5.5 5.5c0 2.634-4.142 9.768-5.5 12.035z" fill="#f78f8f"></path><path d="M20 2c2.757 0 5 2.243 5 5 0 1.966-2.74 7.247-5 11.068C17.74 14.247 15 8.966 15 7c0-2.757 2.243-5 5-5m0-1c-3.314 0-6 2.686-6 6s6 13 6 13 6-9.686 6-13-2.686-6-6-6z" fill="#c74343"></path><path d="M21 11c0 .552-1 4-1 4s-1-3.448-1-4a1 1 0 012 0z" fill="#c74343"></path><path d="M20 38.5a5.507 5.507 0 01-5.5-5.5c0-2.634 4.142-9.768 5.5-12.035 1.358 2.268 5.5 9.401 5.5 12.035 0 3.032-2.468 5.5-5.5 5.5z" fill="#f78f8f"></path><path d="M20 21.932c2.26 3.821 5 9.102 5 11.068 0 2.757-2.243 5-5 5s-5-2.243-5-5c0-1.966 2.74-7.247 5-11.068M20 20s-6 9.686-6 13a6 6 0 1012 0c0-3.314-6-13-6-13z" fill="#c74343"></path><path d="M19 29c0-.552 1-4 1-4s1 3.448 1 4a1 1 0 01-2 0z" fill="#c74343"></path><path d="M17.483 19.531c-5.906 0-10.095-.462-11.491-1.268a5.508 5.508 0 01-2.014-7.514 5.52 5.52 0 014.769-2.751c.96 0 1.909.255 2.745.737 2.078 1.201 5.93 7.629 7.675 10.781-.429.009-1.006.015-1.684.015.001 0 .001 0 0 0z" fill="#f78f8f"></path><path d="M8.747 8.499c.872 0 1.734.232 2.494.671 1.701.982 4.903 5.991 7.082 9.858-.258.002-.541.003-.842.003-5.735 0-9.936-.449-11.239-1.201-1.157-.668-1.984-1.746-2.33-3.036s-.168-2.637.5-3.794a5.017 5.017 0 014.335-2.501m0-1a6 6 0 00-3.006 11.197c2.012 1.162 8.213 1.335 11.739 1.335C18.984 20.031 20 20 20 20S14.611 9.961 11.742 8.304a5.97 5.97 0 00-2.995-.805z" fill="#c74343"></path><path d="M12.706 14.634c.478.276 2.964 2.866 2.964 2.866s-3.486-.858-3.964-1.134a1 1 0 011-1.732z" fill="#c74343"></path><path d="M31.253 32.001c-.96 0-1.909-.255-2.745-.737-2.078-1.201-5.93-7.629-7.675-10.781a93.38 93.38 0 011.69-.014c5.903 0 10.089.462 11.484 1.268a5.508 5.508 0 012.014 7.514 5.52 5.52 0 01-4.768 2.75z" fill="#f78f8f"></path><path d="M22.519 20.968c5.734 0 9.936.449 11.239 1.201 1.157.668 1.984 1.746 2.33 3.036s.168 2.637-.5 3.794a5.02 5.02 0 01-4.336 2.501 4.993 4.993 0 01-2.494-.671c-1.701-.982-4.903-5.991-7.082-9.858.259-.001.542-.003.843-.003m0-1C21.017 19.968 20 20 20 20s5.389 10.039 8.258 11.696a5.998 5.998 0 008.196-2.196 6 6 0 00-2.196-8.196c-2.012-1.162-8.213-1.336-11.739-1.336z" fill="#c74343"></path><path d="M27.294 25.366c-.478-.276-2.964-2.866-2.964-2.866s3.486.858 3.964 1.134a1 1 0 01-1 1.732z" fill="#c74343"></path><path d="M8.747 32.001a5.52 5.52 0 01-4.769-2.751 5.508 5.508 0 012.013-7.514c1.396-.806 5.582-1.268 11.485-1.268.679 0 1.258.006 1.688.013-1.285 2.31-5.393 9.465-7.674 10.782a5.487 5.487 0 01-2.743.738z" fill="#f78f8f"></path><path d="M17.481 20.968c.301 0 .583.001.842.003-2.14 3.787-5.396 8.886-7.08 9.858a4.996 4.996 0 01-2.494.671 5.02 5.02 0 01-4.336-2.501 5.006 5.006 0 011.83-6.83c1.302-.751 5.503-1.201 11.238-1.201m0-1c-3.526 0-9.727.173-11.739 1.335A6 6 0 008.748 32.5a5.966 5.966 0 002.994-.805C14.611 30.039 20 20 20 20s-1.017-.032-2.519-.032z" fill="#c74343"></path><path d="M11.706 23.634c.478-.276 3.964-1.134 3.964-1.134s-2.486 2.59-2.964 2.866a1 1 0 01-1-1.732z" fill="#c74343"></path><g><path d="M22.523 19.531c-.679 0-1.258-.006-1.688-.013 1.285-2.31 5.393-9.465 7.674-10.782a5.503 5.503 0 012.744-.737 5.52 5.52 0 014.769 2.751 5.508 5.508 0 01-2.013 7.514c-1.396.805-5.582 1.267-11.486 1.267z" fill="#f78f8f"></path><path d="M31.253 8.499A5.02 5.02 0 0135.589 11a5.006 5.006 0 01-1.83 6.83c-1.303.752-5.504 1.201-11.239 1.201-.301 0-.583-.001-.842-.003 2.14-3.787 5.396-8.886 7.08-9.858a4.997 4.997 0 012.495-.671m0-1a5.966 5.966 0 00-2.994.805C25.389 9.961 20 20 20 20s1.017.032 2.519.032c3.526 0 9.727-.173 11.739-1.335a6 6 0 002.196-8.196 5.995 5.995 0 00-5.201-3.002z" fill="#c74343"></path></g><path d="M28.294 16.366c-.478.276-3.964 1.134-3.964 1.134s2.486-2.59 2.964-2.866a1 1 0 011 1.732z" fill="#c74343"></path><g><circle cx="20" cy="20" r="6" fill="#ffeea3"></circle></g></svg>