<svg viewBox="0 0 40 40" xmlns="http://www.w3.org/2000/svg"><path d="M12 3H9.998l-2.01 1.119C8.079 4.254 17.374 17.073 15 35h4c1.999-14.98-4.77-28.225-7-32zM26.012 3H24.01L22 4.119c.091.135 9.386 12.954 7.012 30.881h4c1.999-14.98-4.77-28.225-7-32z" fill="#8b75a1"></path><path d="M29.544 34.954c1.137-2.781 6.819-17.465 6.954-31.454h3c-.129 15.131-6.04 30.051-7.199 32.818l-2.755-1.364z" fill="#dcd5f2"></path><path d="M38.991 4c-.241 14.115-5.475 28-6.951 31.633l-1.862-.922c1.459-3.665 6.563-17.447 6.812-30.71h2.001M40 3h-4c0 15.568-7.023 32.047-7.098 32.194L32.549 37C32.872 36.365 40 19.549 40 3zM12 3H9.998l-2.01 1.119C8.079 4.254 17.374 17.073 15 35h4c1.999-14.98-4.77-28.225-7-32z" fill="#8b75a1"></path><path d="M1.641 34.954C2.767 32.186 8.367 17.622 8.498 3.5h3c-.128 15.046-5.961 30.039-7.104 32.817l-2.753-1.363z" fill="#dcd5f2"></path><path d="M10.991 4c-.24 13.965-5.408 27.972-6.86 31.629l-1.856-.919C3.72 31.061 8.747 17.383 8.991 4h2M12 3H8c0 15.568-6.925 32.047-7 32.194L4.647 37C4.969 36.365 12 19.549 12 3z" fill="#8b75a1"></path><g><path d="M15.544 34.954c1.137-2.781 6.819-17.465 6.954-31.454h3c-.129 15.131-6.04 30.051-7.199 32.818l-2.755-1.364z" fill="#dcd5f2"></path><path d="M24.991 4c-.241 14.115-5.475 28-6.951 31.633l-1.862-.922c1.459-3.665 6.563-17.447 6.812-30.71h2.001M26 3h-4c0 15.568-7.023 32.047-7.098 32.194L18.549 37C18.872 36.365 26 19.549 26 3z" fill="#8b75a1"></path></g></svg>