<svg viewBox="0 0 40 40" xmlns="http://www.w3.org/2000/svg"><path d="M10.233 23.571c-5.683 0-8.202-7.604-8.667-9.2C2.458 13.628 5.937 11 10.562 11c3.017 0 6.224 1.528 6.224 4.359 0 2.526-2.645 3.332-2.758 3.364l-.377.111.017.394c.001.021.087 2.197-1.109 3.45-.565.593-1.348.893-2.326.893z" fill="#bae0bd"></path><path d="M10.562 11.5c2.775 0 5.724 1.353 5.724 3.859 0 2.143-2.302 2.856-2.395 2.884l-.756.221.034.786c.001.02.073 1.993-.974 3.086-.473.494-1.115.734-1.961.734-5.021 0-7.457-6.504-8.091-8.523 1.141-.892 4.317-3.047 8.419-3.047m0-1C4.925 10.5 1 14.201 1 14.201s2.453 9.87 9.234 9.87c4.175 0 3.934-4.867 3.934-4.867s3.118-.897 3.118-3.845c0-3.047-3.239-4.859-6.724-4.859z" fill="#5e9c76"></path><path d="M19.321 30.857c0-5.38-1.699-12.317-10.374-14.325" fill="none" stroke="#5e9c76" stroke-miterlimit="10"></path><path d="M31.537 23.571c-2.948 0-3.1-3.59-3.104-3.743l-.013-.382-.374-.09c-.086-.021-2.117-.526-2.117-2.545 0-2.306 2.629-3.55 5.103-3.55 3.77 0 6.621 2.112 7.408 2.762-.378 1.409-2.294 7.548-6.903 7.548z" fill="#bae0bd"></path><path d="M31.032 13.762c3.282 0 5.846 1.684 6.837 2.446-.513 1.749-2.354 6.864-6.332 6.864-2.416 0-2.593-2.927-2.605-3.257l-.03-.761-.737-.182c-.178-.044-1.735-.474-1.735-2.06-.001-1.981 2.37-3.05 4.602-3.05m0-1c-2.905 0-5.603 1.51-5.603 4.049 0 2.457 2.504 3.033 2.504 3.033s.125 4.227 3.604 4.227c5.651 0 7.464-8.225 7.464-8.225s-3.272-3.084-7.969-3.084z" fill="#5e9c76"></path><path d="M19.321 33.571c0-9.56 9.741-14.776 14.889-16.433" fill="none" stroke="#5e9c76" stroke-miterlimit="10"></path><path d="M25.525 11.494c-.543 0-.995-.194-1.381-.594-.753-.779-.972-2.036-.957-2.489l.018-.518h-.518c-.71 0-2.155-1.232-2.155-2.663 0-.956.683-1.793 1.976-2.418 1.72-.833 4.407-1.273 7.991-1.31.009 2.357-.085 8.576-4.104 9.845a2.89 2.89 0 01-.87.147z" fill="#bae0bd"></path><path d="M29.999 2.01c-.019 2.538-.328 7.779-3.753 8.86-.26.082-.503.124-.72.124-.406 0-.73-.14-1.021-.441-.6-.62-.831-1.708-.817-2.126l.035-1.034h-1.035c-.464 0-1.655-1.028-1.655-2.163 0-.762.57-1.424 1.693-1.968 1.574-.761 4.017-1.182 7.273-1.252M30.997 1c-15.684 0-10.632 7.393-8.309 7.393-.031.919.63 3.601 2.837 3.601.309 0 .649-.053 1.021-.17C31.255 10.338 30.997 2.891 30.997 1z" fill="#5e9c76"></path><path d="M19.5 28c0-15.859 2.449-20.504 8.045-23.83" fill="none" stroke="#5e9c76" stroke-miterlimit="10"></path><g><path d="M4 38.5c-1.378 0-2.5-1.121-2.5-2.5s1.122-2.5 2.5-2.5c.15 0 .296.02.439.045l.349.062.174-.309A3.498 3.498 0 018 31.5c.066 0 .13.01.195.019l.158.02.364.034.144-.336A4.492 4.492 0 0113 28.5c.861 0 1.704.252 2.439.729l.343.223.286-.293C17.113 28.089 18.51 27.5 20 27.5s2.887.589 3.932 1.658l.286.293.343-.223A4.48 4.48 0 0127 28.5a4.495 4.495 0 014.14 2.736l.144.336.364-.034.158-.02c.064-.008.128-.018.194-.018 1.25 0 2.415.688 3.038 1.798l.174.309.349-.062c.143-.025.289-.045.439-.045 1.378 0 2.5 1.121 2.5 2.5s-1.122 2.5-2.5 2.5H4z" fill="#a6714e"></path><path d="M20 28c1.354 0 2.624.535 3.574 1.507l.572.585.687-.445a3.982 3.982 0 015.847 1.786l.289.676.732-.074.166-.02c.044-.006.087-.015.133-.015 1.07 0 2.067.591 2.602 1.543l.348.619.699-.124c.146-.026.255-.038.351-.038 1.103 0 2 .897 2 2s-.897 2-2 2H4c-1.103 0-2-.897-2-2s.897-2 2-2c.096 0 .205.012.351.038l.699.124.348-.619A2.999 2.999 0 018 32c.046 0 .089.009.133.015.055.008.111.015.166.02l.732.074.289-.676a3.982 3.982 0 015.847-1.786l.687.445.572-.585A4.962 4.962 0 0120 28m0-1a5.981 5.981 0 00-4.289 1.808A4.965 4.965 0 0013 28a5 5 0 00-4.6 3.04c-.133-.013-.263-.04-.4-.04-1.498 0-2.789.834-3.474 2.053A3.035 3.035 0 004 33a3 3 0 100 6h32a3 3 0 100-6c-.18 0-.355.023-.526.053C34.789 31.834 33.498 31 32 31c-.137 0-.267.027-.4.04A5 5 0 0027 28a4.965 4.965 0 00-2.711.808A5.981 5.981 0 0020 27z" fill="#7a4f34"></path></g></svg>