<svg viewBox="0 0 40 40" xmlns="http://www.w3.org/2000/svg"><path d="M4.749 35.632l3.125-6.126-6.211-4.635C2.597 23.499 6.9 18.5 20 18.5c13.161 0 17.418 4.995 18.34 6.369l-6.214 4.637 3.125 6.126L20 38.491 4.749 35.632z" fill="#b0c1d4"></path><path d="M20 19c7.733 0 12.254 1.766 14.685 3.247 1.558.95 2.475 1.905 2.959 2.517l-5.479 4.089-.676.505.383.751 2.63 5.154L20 37.983 5.498 35.264l2.63-5.154.383-.751-.676-.505-5.479-4.089c.485-.614 1.401-1.569 2.958-2.517C7.746 20.766 12.267 19 20 19m0-1C4.325 18 1 25 1 25l6.237 4.655L4 36l16 3 16-3-3.237-6.345L39 25s-3.325-7-19-7z" fill="#66798f"></path><path d="M20 38s-8-3.119-8-8v-9.326h16V30c0 4.931-8 8-8 8z" fill="#36404d"></path><path d="M28.4 23.9a3.104 3.104 0 01-3.101-3.101c0-1.709 1.391-3.1 3.101-3.1 2.572 0 3.1.76 3.1 1.899 0 1.88-1.503 4.302-3.1 4.302zm-16.8 0c-1.597 0-3.1-2.423-3.1-4.301 0-1.14.527-1.899 3.1-1.899a3.104 3.104 0 013.101 3.1 3.104 3.104 0 01-3.101 3.1z" fill="#deb974"></path><path d="M28.4 18.2c2.6 0 2.6.776 2.6 1.4 0 1.589-1.31 3.8-2.6 3.8-1.434 0-2.6-1.166-2.6-2.6s1.166-2.6 2.6-2.6m-16.8 0c1.434 0 2.6 1.166 2.6 2.6s-1.166 2.6-2.6 2.6c-1.29 0-2.6-2.211-2.6-3.8 0-.624 0-1.4 2.6-1.4m16.8-1a3.6 3.6 0 000 7.2c1.988 0 3.6-2.812 3.6-4.8s-1.612-2.4-3.6-2.4zm-16.8 0c-1.988 0-3.6.412-3.6 2.4s1.612 4.8 3.6 4.8a3.6 3.6 0 000-7.2z" fill="#967a44"></path><path d="M20 34.5a3.478 3.478 0 01-2.705-1.309l-.094-.115-.141-.046A9.474 9.474 0 0110.5 24v-6.017a4.27 4.27 0 014.266-4.267h10.469a4.27 4.27 0 014.266 4.267V24a9.473 9.473 0 01-6.561 9.03l-.141.046-.094.115A3.478 3.478 0 0120 34.5z" fill="#f5ce85"></path><path d="M25.234 14.217A3.77 3.77 0 0129 17.983V24a8.975 8.975 0 01-6.215 8.555l-.281.091-.186.23C21.738 33.59 20.894 34 20 34s-1.738-.41-2.318-1.124l-.186-.23-.281-.091A8.975 8.975 0 0111 24v-6.017a3.77 3.77 0 013.766-3.766h10.468m0-1H14.766A4.766 4.766 0 0010 17.983V24c0 4.442 2.899 8.203 6.906 9.506C17.639 34.41 18.745 35 20 35s2.361-.59 3.094-1.494C27.101 32.203 30 28.442 30 24v-6.017a4.766 4.766 0 00-4.766-4.766z" fill="#967a44"></path><path d="M17.286 21.583s1.1-.905 2.714-.905 2.714.905 2.714.905" fill="none" stroke="#36404d" stroke-miterlimit="10"></path><path d="M28.25 19h-6a1 1 0 00-1 1v2a3 3 0 003 3h1a3 3 0 003-3v-3zM17.75 19h-6v3a3 3 0 003 3h1a3 3 0 003-3v-2a1 1 0 00-1-1z" fill="#36404d"></path><g><path d="M29.5 21.5V14c0-.061-.001-.121-.004-.183.482.163.798.314 1.003.441-.029 3.499-.644 6.283-.884 7.241H29.5zm-19.127 0c-.241-.877-.837-3.411-.871-7.157a19.279 19.279 0 012.013-.619c-.669.875-1.015 1.981-1.015 3.276v4.5h-.127zm17.793-9.067c-1.836-.39-4.183-.628-6.676-.679 2.189-.844 3.242-2.199 3.693-2.984.776.627 2.307 2.015 2.983 3.663z" fill="#a6714e"></path><path d="M25.292 9.515c.599.527 1.39 1.317 1.963 2.237a37.28 37.28 0 00-3.86-.422 7.29 7.29 0 001.897-1.815m-14.829 5.026a5.835 5.835 0 00-.404 1.518 37.44 37.44 0 01-.053-1.367c.149-.051.302-.102.457-.151M25 8s-1.353 4-8 4c-1.313 0-2.611.247-3.663.825 2.29-.405 4.777-.581 7.151-.581 3.299 0 6.382.34 8.417.877C28.296 10.285 25 8 25 8zm-11.663 4.825c-1.572.278-3.051.664-4.337 1.175 0 5.044 1 8 1 8h1v-5c0-2.088.955-3.417 2.337-4.175zm15.567.296c.062.288.096.581.096.879v8h1s1-3.404 1-8c-.406-.327-1.134-.625-2.096-.879z" fill="#7a4f34"></path></g><g><path d="M20 20.505C8.931 20.505 1.495 17.658 1.495 15S8.931 9.495 20 9.495 38.505 12.342 38.505 15 31.069 20.505 20 20.505z" fill="#b0c1d4"></path><path d="M20 9.991c11.158 0 18.009 2.917 18.009 5.009S31.158 20.009 20 20.009 1.991 17.092 1.991 15 8.842 9.991 20 9.991M20 9C9.507 9 1 11.686 1 15s8.507 6 19 6 19-2.686 19-6-8.507-6-19-6z" fill="#66798f"></path></g><g><path d="M20 16.501c-2.583 0-10.413 0-10.5-3.064 1.003-4.492 2.68-11.938 5.825-11.938.875 0 1.502.229 2.167.47.717.261 1.458.53 2.508.53 1.066 0 1.844-.276 2.595-.543.663-.235 1.289-.457 2.08-.457 2.783 0 4.159 5.408 5.491 10.638l.334 1.308c-.09 3.056-7.113 3.056-10.5 3.056z" fill="#b0c1d4"></path><path d="M24.675 1.998c2.395 0 3.783 5.452 5.007 10.262.105.413.21.825.316 1.235-.201 2.508-7.301 2.508-9.998 2.508-8.052 0-9.907-1.35-9.999-2.524.913-4.083 2.593-11.481 5.324-11.481.787 0 1.347.204 1.997.44.722.263 1.54.56 2.678.56 1.152 0 2.007-.304 2.762-.571.648-.231 1.208-.429 1.913-.429m0-.998C22.888 1 21.925 2 20 2s-2.75-1-4.675-1C11.888 1 10.237 7.846 9 13.385 9 16.769 15.899 17 20 17s11-.077 11-3.615C29.487 7.538 28.112 1 24.675 1z" fill="#66798f"></path></g></svg>