<svg viewBox="0 0 40 40" xmlns="http://www.w3.org/2000/svg"><path d="M26.667 34.167c-1.23 0-2.159-.619-3.144-1.274-1.027-.685-2.09-1.393-3.523-1.393-1.435 0-2.5.708-3.53 1.394-.984.654-1.914 1.272-3.137 1.272-4.619 0-4.831-7.436-4.833-7.51v-4.823h23v4.833c-.002.063-.241 7.501-4.833 7.501z" fill="#839cb2"></path><path d="M31 22.333v4.308c-.002.07-.231 7.025-4.334 7.025-1.079 0-1.907-.552-2.866-1.191C22.762 31.784 21.584 31 20 31c-1.585 0-2.766.785-3.808 1.478-.959.638-1.787 1.189-2.859 1.189-4.128 0-4.332-6.951-4.333-7v-4.333h22m1-1.001H8v5.333s.162 8 5.333 8C16.05 34.667 17.404 32 20 32s3.938 2.667 6.667 2.667c5.142 0 5.333-8 5.333-8v-5.334z" fill="#66798f"></path><g fill="#36404d"><path d="M10.667 26.667c.001 0 .292 5.333 2.667 5.333.542 0 1.062-.329 1.936-.91C16.384 30.349 17.911 28 20 28c2.089 0 3.612 2.348 4.725 3.089.873.582 1.394.911 1.942.911 2.289 0 2.646-5.043 2.667-5.387V24H10.667v2.667zM24.839 34.25c-.55-.25-1.055-.583-1.555-.917.5.334 1.005.667 1.555.917z"></path></g><path d="M20 28.5C8.336 28.5.5 25.139.5 22s7.836-6.5 19.5-6.5 19.5 3.361 19.5 6.5-7.836 6.5-19.5 6.5z" fill="#dcd5f2"></path><path d="M20 16c11.197 0 19 3.162 19 6s-7.803 6-19 6-19-3.162-19-6 7.803-6 19-6m0-1C8.898 15 0 18.114 0 22s8.898 7 20 7 20-3.114 20-7-8.898-7-20-7z" fill="#8b75a1"></path><path d="M20 23.5c-7.355 0-11.434-1.248-11.499-3.515.208-.867.414-1.797.626-2.754C10.285 12.004 11.726 5.5 14.667 5.5c1.022 0 1.747.231 2.514.476.806.258 1.64.524 2.819.524 1.202 0 2.087-.274 2.942-.54.764-.237 1.484-.46 2.391-.46 2.741 0 3.991 5.363 5.2 10.549.308 1.319.625 2.683.966 3.943C31.397 23.5 22.827 23.5 20 23.5z" fill="#dcd5f2"></path><path d="M25.333 6c2.344 0 3.602 5.398 4.712 10.16.303 1.298.615 2.639.951 3.886C30.855 22.006 27.157 23 20 23c-6.765 0-10.852-1.108-10.996-2.969.204-.851.405-1.76.612-2.695C10.676 12.552 12.127 6 14.667 6c.945 0 1.602.21 2.362.453C17.833 6.709 18.743 7 20 7c1.277 0 2.24-.299 3.09-.562.758-.235 1.413-.438 2.243-.438m0-1C23.323 5 22.202 6 20 6s-3.132-1-5.333-1C10.742 5 9.436 13.985 8 19.929 8 23.534 15.405 24 20 24s12-.271 12-4.071C30.277 13.595 29.258 5 25.333 5z" fill="#8b75a1"></path><g><path d="M21.872 22.972a52.3 52.3 0 00.952-.034c.139-.006.276-.014.411-.021.294-.016.579-.034.853-.055.118-.009.236-.017.351-.027.283-.024.552-.05.813-.079l.273-.029c.28-.033.543-.069.796-.108l.181-.026c.271-.043.523-.09.765-.138.036-.007.076-.013.112-.021.199-.041.378-.087.558-.132 1.956-.493 2.985-1.244 3.06-2.255v-.003a80.64 80.64 0 01-.571-2.279C28.371 19.726 22.643 20 20 20c-2.667 0-8.508-.277-10.475-2.256-.175.79-.348 1.562-.521 2.287v.001c.135 1.742 3.724 2.823 9.727 2.955a64.77 64.77 0 002.731-.003c.14-.003.273-.008.41-.012z" fill="#a59dd1"></path></g><path fill="none" stroke="#36404d" stroke-miterlimit="10" d="M3 3l34 34"></path></svg>