<svg viewBox="0 0 40 40" xmlns="http://www.w3.org/2000/svg"><path d="M7 37.5c-.827 0-1.5-.673-1.5-1.5v-9c0-.426.189-.836.519-1.124l.43-.376-.431-.376A1.499 1.499 0 015.5 24v-8c0-.426.189-.836.519-1.124l.43-.376-.431-.376A1.499 1.499 0 015.5 13V4c0-.827.673-1.5 1.5-1.5h26c.827 0 1.5.673 1.5 1.5v9c0 .426-.189.836-.519 1.124l-.43.376.431.376c.329.288.518.698.518 1.124v8c0 .426-.189.836-.519 1.124l-.43.376.431.376c.329.288.518.698.518 1.124v9c0 .827-.673 1.5-1.5 1.5H7z" fill="#dcd5f2"></path><path d="M33 3c.551 0 1 .449 1 1v9a.99.99 0 01-.348.747l-.861.753.861.753A.99.99 0 0134 16v8a.99.99 0 01-.348.747l-.861.753.861.753A.99.99 0 0134 27v9c0 .551-.449 1-1 1H7c-.551 0-1-.449-1-1v-9a.99.99 0 01.348-.747l.861-.753-.861-.753A.99.99 0 016 24v-8a.99.99 0 01.348-.747l.861-.753-.861-.753A.99.99 0 016 13V4c0-.551.449-1 1-1h26m0-1H7a2 2 0 00-2 2v9c0 .601.27 1.133.69 1.5-.42.367-.69.899-.69 1.5v8c0 .601.27 1.133.69 1.5-.42.367-.69.899-.69 1.5v9a2 2 0 002 2h26a2 2 0 002-2v-9c0-.601-.27-1.133-.69-1.5.42-.367.69-.899.69-1.5v-8c0-.601-.27-1.133-.69-1.5.42-.367.69-.899.69-1.5V4a2 2 0 00-2-2z" fill="#8b75a1"></path><path d="M12.815 22.51c.324.181.888.312 1.332.312.731 0 1.103-.384 1.103-.912 0-.588-.359-.875-1.043-1.319-1.104-.671-1.523-1.522-1.523-2.255 0-1.295.863-2.374 2.543-2.374.54 0 1.043.144 1.271.288l-.252 1.354a1.918 1.918 0 00-1.02-.275c-.672 0-.995.407-.995.839 0 .48.239.732 1.103 1.26 1.08.647 1.464 1.463 1.464 2.314 0 1.476-1.092 2.447-2.663 2.447-.647 0-1.271-.168-1.547-.324l.227-1.355zM22.438 25.437a18.423 18.423 0 01-2.075-1.056c-.18-.096-.312-.168-.372-.168-1.583 0-2.542-1.522-2.542-4.161 0-2.171.875-4.114 2.687-4.114 1.955 0 2.482 2.147 2.482 3.994 0 2.003-.443 3.238-1.211 3.658v.06c.516.228 1.079.408 1.583.6l-.552 1.187zm-1.452-5.433c0-1.512-.229-2.699-.924-2.699-.659 0-.995 1.212-.983 2.734-.024 1.644.275 2.807.995 2.807.636 0 .912-1.163.912-2.842zM23.735 16.033h1.571v6.753h2.062v1.331h-3.634v-8.084z" fill="#7c6394"></path></svg>