<svg viewBox="0 0 40 40" xmlns="http://www.w3.org/2000/svg"><path fill="#8bb7f0" d="M4.5 24.5v-6.44L8.4 1.5h23.13l3.97 16.56v6.44h-31z"></path><path d="M31.14 2L35 18.12V24H5v-5.88L8.79 2h22.35m.79-1H8L4 18v7h32v-7L31.93 1z" fill="#4e7ab5"></path><path fill="#c2e8ff" d="M35 18H5L8.81 2h22.32L35 18z"></path><path fill="#8bb7f0" d="M4.5 24.5h31v7h-31z"></path><path d="M35 25v6H5v-6h30m1-1H4v8h32v-8z" fill="#4e7ab5"></path><path fill="#8bb7f0" d="M4.5 31.5h31v7h-31z"></path><path d="M35 32v6H5v-6h30m1-1H4v8h32v-8z" fill="#4e7ab5"></path><circle cx="30" cy="35" r="2" fill="#fff"></circle><circle cx="30" cy="28" r="2" fill="#fff"></circle><circle cx="30" cy="21" r="2" fill="#fff"></circle></svg>