<svg viewBox="0 0 40 40" xmlns="http://www.w3.org/2000/svg"><path fill="#c5d4de" d="M10.5 10.5h27v27h-27z"></path><path d="M37 11v26H11V11h26m1-1H10v28h28V10z" fill="#788b9c"></path><path fill="#e1ebf2" d="M6.5 6.5h27v27h-27z"></path><path d="M33 7v26H7V7h26m1-1H6v28h28V6z" fill="#788b9c"></path><path fill="#fff" d="M2.5 2.5h27v27h-27z"></path><path d="M29 3v26H3V3h26m1-1H2v28h28V2z" fill="#788b9c"></path><path fill="#ffc49c" d="M5.5 5.5h21v18h-21z"></path><path d="M26 6v17H6V6h20m1-1H5v19h22V5z" fill="#a16a4a"></path><path fill="#a16a4a" d="M19 14l-3 3 6 6h4v-2z"></path><circle cx="21" cy="10" r="2" fill="#fff"></circle><path fill="#e09367" d="M22 23H6v-4l6-6z"></path></svg>