<svg viewBox="0 0 40 40" xmlns="http://www.w3.org/2000/svg"><path d="M13 12.5c-1.93 0-3.5-1.57-3.5-3.5V5c0-1.93 1.57-3.5 3.5-3.5h14c1.93 0 3.5 1.57 3.5 3.5v4c0 1.93-1.57 3.5-3.5 3.5H13z" fill="#8bb7f0"></path><path d="M27 2c1.654 0 3 1.346 3 3v4c0 1.654-1.346 3-3 3H13c-1.654 0-3-1.346-3-3V5c0-1.654 1.346-3 3-3h14m0-1H13c-2.2 0-4 1.8-4 4v4c0 2.2 1.8 4 4 4h14c2.2 0 4-1.8 4-4V5c0-2.2-1.8-4-4-4z" fill="#4e7ab5"></path><path d="M9 15.5c-1.93 0-3.5-1.57-3.5-3.5V8c0-1.93 1.57-3.5 3.5-3.5h22c1.93 0 3.5 1.57 3.5 3.5v4c0 1.93-1.57 3.5-3.5 3.5H9z" fill="#8bb7f0"></path><path d="M31 5c1.654 0 3 1.346 3 3v4c0 1.654-1.346 3-3 3H9c-1.654 0-3-1.346-3-3V8c0-1.654 1.346-3 3-3h22m0-1H9C6.8 4 5 5.8 5 8v4c0 2.2 1.8 4 4 4h22c2.2 0 4-1.8 4-4V8c0-2.2-1.8-4-4-4z" fill="#4e7ab5"></path><path d="M15.36 32.5H5c-1.93 0-3.5-1.57-3.5-3.5V11c0-1.93 1.57-3.5 3.5-3.5h30c1.93 0 3.5 1.57 3.5 3.5v18c0 1.93-1.57 3.5-3.5 3.5H24.64L20 39.128 15.36 32.5z" fill="#8bb7f0"></path><path d="M35 8c1.654 0 3 1.346 3 3v18c0 1.654-1.346 3-3 3H24.379l-.299.427L20 38.256l-4.081-5.83-.298-.426H5c-1.654 0-3-1.346-3-3V11c0-1.654 1.346-3 3-3h30m0-1H5c-2.2 0-4 1.8-4 4v18c0 2.2 1.8 4 4 4h10.1l4.9 7 4.9-7H35c2.2 0 4-1.8 4-4V11c0-2.2-1.8-4-4-4z" fill="#4e7ab5"></path><path d="M25 28h-3.333A6.667 6.667 0 0115 21.333V13a2 2 0 014 0v8.333A2.667 2.667 0 0021.667 24H25a2 2 0 010 4z" fill="#fff"></path><path d="M25 20h-8a2 2 0 010-4h8a2 2 0 010 4z" fill="#fff"></path></svg>