<svg viewBox="0 0 40 40" xmlns="http://www.w3.org/2000/svg"><path fill="#ffeea3" d="M20 8.655l-18.5 9.25v-4.31L20 4.345l18.5 9.25v4.31z"></path><path d="M20 4.904l18 9v3.193L20.447 8.32 20 8.096l-.447.224L2 17.096v-3.193l18-8.999m0-1.118l-19 9.5v5.429l19-9.5 19 9.5v-5.429l-19-9.5z" fill="#ba9b48"></path><path fill="#ffeea3" d="M20 12.727l-18.5 9.25v-4.311L20 8.416l18.5 9.25v4.311z"></path><path d="M20 8.975l18 9v3.193l-17.553-8.776-.447-.224-.447.224L2 21.168v-3.193l18-9m0-1.118l-19 9.5v5.429l19-9.5 19 9.5v-5.429l-19-9.5z" fill="#ba9b48"></path><g><path fill="#ffeea3" d="M20 16.798l-18.5 9.25v-4.31l18.5-9.25 18.5 9.25v4.31z"></path><path d="M20 13.047l18 9v3.193l-17.553-8.776-.447-.225-.447.224L2 25.239v-3.193l18-8.999m0-1.118l-19 9.5v5.429l19-9.5 19 9.5v-5.429l-19-9.5z" fill="#ba9b48"></path></g><g><path d="M20 34.5c-10.656 0-17.191-3.168-18.5-3.866V26.23c2.421.913 10.791 3.841 18.5 3.841s16.079-2.928 18.5-3.841v4.404c-1.309.698-7.844 3.866-18.5 3.866z" fill="#ffeea3"></path><path d="M38 26.953v3.378C36.273 31.21 29.995 34 20 34c-9.958 0-16.267-2.794-18-3.67v-3.377c3.07 1.121 10.723 3.618 18 3.618s14.93-2.496 18-3.618m1-1.453s-9.907 4.071-19 4.071S1 25.5 1 25.5v5.429S7.786 35 20 35s19-4.071 19-4.071V25.5z" fill="#ba9b48"></path></g></svg>