<svg viewBox="0 0 40 40" xmlns="http://www.w3.org/2000/svg"><path fill="#d6e3ed" d="M1.5 38.5v-7.043L28.012 4.926l.938 7.498L1.799 38.5z"></path><path d="M27.643 6.003l.78 6.235L2 37.614v-5.95L27.643 6.003m.738-2.154L1 31.25V39h1l27.478-26.389-1.097-8.762z" fill="#a3b7cc"></path><path d="M6 32.5c-.827 0-1.5-.673-1.5-1.5v-5.586c0-.131.053-.26.146-.354L26.354 3.354c1.296-1.101 3.151-1.749 5.059-1.749 2.007 0 3.805.687 5.063 1.933 2.503 2.481 2.569 7.312.139 10.136l-.14.163.002.016c-2.585 2.495-4.958 3.289-7.255 4.058-1.99.667-3.871 1.296-5.575 2.984-3.162 3.132-10.207 10.002-11.711 11.469a.484.484 0 01-.344.137H6z" fill="#ffeea3"></path><path d="M31.413 2.105c1.847 0 3.565.652 4.712 1.787 2.33 2.31 2.384 6.816.112 9.455l-.211.245c-2.465 2.338-4.75 3.104-6.962 3.844-2.047.686-3.981 1.333-5.768 3.103C20.12 23.685 12.986 30.642 11.593 32H6c-.551 0-1-.449-1-1v-5.586L26.689 3.726c1.236-1.031 2.954-1.621 4.724-1.621m0-1c-1.967 0-3.947.648-5.413 1.894l.001.001L4.293 24.707a1 1 0 00-.293.707V31a2 2 0 002 2h5.593a.984.984 0 00.693-.279C13.791 31.254 20.837 24.382 24 21.25c3.552-3.517 7.969-2.226 13-7.209L36.995 14c2.524-2.932 2.631-8.045-.166-10.818-1.416-1.402-3.409-2.077-5.416-2.077z" fill="#ba9b48"></path><path fill="none" stroke="#ba9b48" stroke-width="3" stroke-miterlimit="10" d="M22.915 14.085l8.03-8.03"></path><path fill="none" stroke="#a3b7cc" stroke-width="3" stroke-miterlimit="10" d="M9 28l13.915-13.915"></path><g><path d="M20.439 19.5a.918.918 0 01-.654-.271l-2.014-2.014a.927.927 0 010-1.308l5.137-5.137a.918.918 0 01.654-.271c.247 0 .479.096.654.271l2.014 2.014a.918.918 0 01.271.654.918.918 0 01-.271.654l-5.137 5.137a.918.918 0 01-.654.271z" fill="#839cb2"></path><path d="M23.561 11c.066 0 .192.016.3.124l2.014 2.014a.426.426 0 010 .6l-5.137 5.137a.422.422 0 01-.599.001l-2.014-2.014a.426.426 0 010-.6l5.137-5.137a.419.419 0 01.299-.125m0-1c-.365 0-.729.139-1.007.417l-5.137 5.137a1.424 1.424 0 000 2.014l2.014 2.014c.278.279.643.418 1.008.418s.729-.139 1.007-.417l5.137-5.137a1.424 1.424 0 000-2.014l-2.014-2.014A1.418 1.418 0 0023.561 10z" fill="#66798f"></path></g><g><path d="M26.75 3.044a8.04 8.04 0 014.69-1.528c1.917 0 3.706.719 5.039 2.024 2.5 2.479 2.67 6.822.464 9.736L26.75 3.044z" fill="#839cb2"></path><path d="M31.44 2.016c1.785 0 3.45.668 4.685 1.877 2.198 2.178 2.457 5.906.749 8.606l-9.342-9.378a7.565 7.565 0 013.908-1.105m0-1c-1.976 0-3.942.71-5.44 1.983l10.98 11.022c2.77-3.146 2.652-8.06-.151-10.839-1.521-1.489-3.46-2.166-5.389-2.166z" fill="#66798f"></path></g></svg>