<svg viewBox="0 0 40 40" xmlns="http://www.w3.org/2000/svg"><path fill="#d6e3ed" d="M12.5 15.5h24v7h-24z"></path><path d="M36 16v6H13v-6h23m1-1H12v8h25v-8z" fill="#a3b7cc"></path><path d="M.5 29.5v-8.382l12-1.23V25c0 .827.673 1.5 1.5 1.5h24.667c.459 0 .833.374.833.833V29.5H.5z" fill="#f78f8f"></path><path d="M12 20.441V25c0 .534.208 1.036.586 1.414S13.466 27 14 27h24.667c.183 0 .333.15.333.333V29H1v-7.431l11-1.128m1-1.108L0 20.667V30h40v-2.667c0-.736-.597-1.333-1.333-1.333H14a1 1 0 01-1-1v-5.667z" fill="#c74343"></path><path fill="#839cb2" d="M0 29h40v1H0z"></path><path fill="#66798f" d="M40 29H0v1h40v-1z"></path><g><path d="M6.5 26.5c-2.406 0-4.104-.479-5.049-1.425C.497 24.12.499 22.888.5 22.073v-2.739c0-2.76 3.718-4.532 6.357-4.909l27.198-3.881a4.734 4.734 0 01.919-.044 4.854 4.854 0 014.531 4.028l-.006 3.041-27.001 4V22c.001.888.003 2.121-.951 3.075-.943.946-2.641 1.425-5.047 1.425z" fill="#f78f8f"></path><path d="M34.745 10.994A4.353 4.353 0 0139 14.533v2.605l-26.147 3.874-.853.125V22.073c.001.777.002 1.841-.805 2.649C10.348 25.57 8.768 26 6.5 26c-2.268 0-3.848-.43-4.695-1.278C.998 23.914.999 22.85 1 22.073v-2.739c0-2.204 3.077-4.007 5.929-4.414l27.198-3.882c.205-.029.413-.044.618-.044m0-1c-.251 0-.505.018-.76.054L6.787 13.93C3.713 14.369 0 16.363 0 19.334V22c0 1.473-.111 5 6.5 5s6.5-3.527 6.5-5l27-4v-3.555a5.332 5.332 0 00-5.255-4.451z" fill="#c74343"></path></g><g><circle cx="6.5" cy="21.5" r="1" fill="#444e56"></circle><path d="M6.5 21a.5.5 0 110 1 .5.5 0 010-1m0-1a1.5 1.5 0 10.001 3.001A1.5 1.5 0 006.5 20z" fill="#36404d"></path></g><path fill="none" stroke="#a3b7cc" stroke-miterlimit="10" d="M34 20.5h-3"></path></svg>