<svg viewBox="0 0 40 40" xmlns="http://www.w3.org/2000/svg"><path d="M20 32.004L8.299 38.112l2.194-13.016-9.425-9.24 13.056-1.936L20 2.102l5.876 11.819 13.056 1.936-9.424 9.241 2.193 13.015L20 32.004zm7.74.657l-1.451-8.609 6.233-6.111-8.637-1.28L20 8.842l-3.886 7.818-8.636 1.279 6.234 6.11-1.452 8.609L20 28.62l7.74 4.041z" fill="#ffeea3"></path><path d="M20 3.225l5.311 10.685.232.468.516.077 11.804 1.749-8.52 8.354-.373.365.087.515 1.983 11.766-10.578-5.522L20 31.44l-.463.242-10.578 5.522 1.984-11.767.087-.515-.373-.366-8.521-8.353 11.803-1.749.516-.077.232-.468L20 3.225m-4.217 12.978l-1.549.23-5.834.864-1.99.295L7.847 19l4.211 4.128 1.119 1.096-.26 1.545-.981 5.815-.336 1.985 1.783-.931 5.228-2.729L20 29.184l1.388.725 5.229 2.73 1.783.931-.334-1.984-.98-5.815-.26-1.544 1.118-1.096 4.211-4.129 1.436-1.408-1.99-.295-5.834-.865-1.549-.23-.697-1.403-2.626-5.281L20 7.719l-.895 1.801-2.625 5.281-.697 1.402M20 .979l-6.207 12.487L0 15.509l9.957 9.761-2.318 13.751L20 32.568l12.361 6.453-2.317-13.749L40 15.509l-13.793-2.044L20 .979zm-7.079 30.772l.981-5.815.347-2.059-1.491-1.462-4.211-4.128 5.833-.864 2.066-.306.93-1.87L20 9.965l2.625 5.281.93 1.87 2.066.306 5.834.865-4.211 4.129-1.491 1.462.347 2.059.98 5.815-5.229-2.73L20 28.056l-1.851.966-5.228 2.729z" fill="#ba9b48"></path></svg>