<svg viewBox="0 0 40 40" xmlns="http://www.w3.org/2000/svg"><path d="M7.783 37.517c-.299 0-.541-.069-.739-.213-1.167-.847.25-3.821 1.501-6.445 1.312-2.753 2.551-5.354 1.923-7.033-.251-.672-1.258-1.234-3.167-2.251C4.853 20.27 1.5 18.482 1.5 16.5c0-.481 1.095-1 3.5-1 8.207 0 9.04-.833 9.354-1.146 1.098-1.098 1.475-3.39 1.874-5.816C16.715 5.569 17.22 2.5 19 2.5c2.207 0 2.847 3.175 3.467 6.245.491 2.436.955 4.736 2.241 5.661 1.359.977 4.311 1.111 7.298 1.111.545 0 1.086-.005 1.607-.01.483-.003.949-.007 1.387-.007 2.224 0 3.5.364 3.5 1 0 1.367-3.112 3.221-5.384 4.575-2.133 1.271-3.352 2.026-3.592 2.771-.54 1.678.687 4.225 1.986 6.921 1.27 2.635 2.708 5.621 1.529 6.478-.199.145-.438.215-.729.215-1.497 0-3.84-1.775-6.105-3.492C23.852 32.185 21.628 30.5 20 30.5c-1.256 0-3.2 1.465-5.452 3.162-2.398 1.807-5.115 3.855-6.765 3.855z" fill="#f78f8f"></path><path d="M19 3c1.669 0 2.286 2.422 2.976 5.844.511 2.535.994 4.928 2.44 5.968 1.391 1 4.04 1.205 7.589 1.205.547 0 1.089-.005 1.612-.009.481-.004.946-.008 1.383-.008 2.635 0 3.001.5 3 .5 0 1.083-3.343 3.075-5.14 4.145-2.302 1.371-3.516 2.13-3.812 3.048-.601 1.868.668 4.502 2.012 7.291 1.006 2.089 2.527 5.245 1.686 5.856-.071.051-.193.12-.435.12-1.328 0-3.706-1.801-5.803-3.391C23.98 31.654 21.797 30 20 30c-1.355 0-3.069 1.24-5.753 3.263-2.219 1.673-4.982 3.754-6.464 3.754-.253 0-.375-.067-.445-.118-.83-.602.668-3.746 1.659-5.826 1.359-2.852 2.642-5.545 1.94-7.423-.315-.843-1.326-1.412-3.4-2.517-2.187-1.165-5.484-2.922-5.536-4.593C2.16 16.378 2.959 16 5 16c8.414 0 9.287-.873 9.707-1.293 1.211-1.211 1.601-3.581 2.013-6.089C17.153 5.985 17.644 3 19 3m0-1c-3.792 0-2.649 9.649-5 12-.854.854-5.648 1-9 1-2.167 0-4 .417-4 1.5 0 3.583 8.458 6.05 9 7.5 1.201 3.215-6.036 11.686-3.25 13.708.294.213.642.309 1.033.309C11.132 38.017 17.62 31 20 31c2.986 0 9.053 6.96 12.311 6.96.383 0 .727-.096 1.022-.311C36.119 35.627 28.948 27.267 30 24c.485-1.507 9-4.75 9-7.5 0-1.208-1.907-1.5-4-1.5-.912 0-1.943.017-2.995.017-2.806 0-5.76-.122-7.005-1.017-2.699-1.941-1.508-12-6-12z" fill="#c74343"></path><circle cx="16.5" cy="19.5" r="1.5" fill="#c74343"></circle><circle cx="14.5" cy="28.5" r="1.5" fill="#c74343"></circle><circle cx="24.5" cy="18.5" r="1.5" fill="#c74343"></circle><circle cx="25.5" cy="26.5" r="1.5" fill="#c74343"></circle><circle cx="20" cy="25" r="2" fill="#c74343"></circle></svg>