<svg viewBox="0 0 40 40" xmlns="http://www.w3.org/2000/svg"><path fill="#ffeea3" d="M20 32.004L8.299 38.112l2.194-13.015-9.425-9.241 13.056-1.935L20 2.102l5.876 11.819 13.056 1.935-9.424 9.242 2.193 13.014z"></path><path d="M20 3.225l5.311 10.685.232.468.516.077 11.804 1.749-8.52 8.354-.373.365.087.515 1.983 11.766-10.578-5.522L20 31.44l-.463.242-10.578 5.522 1.984-11.767.087-.515-.373-.366-8.521-8.353 11.803-1.749.516-.077.232-.468L20 3.225m0-2.246l-6.207 12.487L0 15.509l9.957 9.761-2.318 13.751L20 32.568l12.361 6.453-2.317-13.749L40 15.509l-13.793-2.044L20 .979z" fill="#ba9b48"></path><path fill="#fff" d="M28.971 24.923l.373-.365 8.52-8.354-11.804-1.749-.516-.077-.233-.468L20 3.225V31.44l.463.241 10.578 5.523-1.983-11.766z"></path></svg>