<svg viewBox="0 0 40 40" xmlns="http://www.w3.org/2000/svg"><path d="M8.53 38.5c.451-7.626 1.361-14.14 2.707-19.371 1.747-6.379 4.69-12.204 8.75-17.316 3.403 4.581 6.224 10.095 8.176 15.991 2.009 5.888 2.741 11.957 3.288 17.695h-.155l-.006-.01c-2.391-4.34-4.28-7.768-6.517-10.98-.541-.675-.906-.938-1.283-.938-.494 0-.914.222-1.609.588l-.366.192c-5.536 3.608-9.95 8.488-12.823 14.148H8.53z" fill="#ffeea3"></path><path d="M19.974 2.642c3.198 4.431 5.854 9.701 7.717 15.329 1.751 5.131 2.524 10.416 3.055 15.499-1.955-3.534-3.627-6.465-5.563-9.246l-.02-.028-.021-.027c-.458-.57-.975-1.097-1.652-1.097-.617 0-1.13.27-1.84.645l-.365.191-.045.022-.042.027c-5.017 3.273-9.145 7.612-12.044 12.638.482-6.765 1.343-12.587 2.562-17.326 1.672-6.106 4.448-11.694 8.258-16.627M20 1c-3.839 4.705-7.241 10.676-9.248 18.005C9.356 24.433 8.436 31.219 8 39h1c2.884-5.81 7.336-10.676 12.745-14.205.872-.452 1.309-.724 1.745-.724.174 0 .436.181.872.724C26.631 28.052 28.557 31.567 31 36h1c-.611-6.514-1.356-12.471-3.363-18.352C26.631 11.586 23.664 5.795 20 1z" fill="#66798f"></path><g><path d="M21.745 18L22 21l-2-2-2 2 .43-3-3.228-1.548L19 16l1-10 1 10 3.798.452L21.745 18z" fill="#4b6477"></path></g></svg>