<svg viewBox="0 0 40 40" xmlns="http://www.w3.org/2000/svg"><path d="M27 24.5c-6.341 0-11.5-5.159-11.5-11.5S20.659 1.5 27 1.5 38.5 6.659 38.5 13 33.341 24.5 27 24.5z" fill="#dcd5f2"></path><path d="M27 2c6.065 0 11 4.935 11 11s-4.935 11-11 11-11-4.935-11-11S20.935 2 27 2m0-1c-6.627 0-12 5.373-12 12s5.373 12 12 12 12-5.373 12-12S33.627 1 27 1z" fill="#8b75a1"></path><path d="M22 31.5c-7.444 0-13.5-6.056-13.5-13.5S14.556 4.5 22 4.5 35.5 10.556 35.5 18 29.444 31.5 22 31.5z" fill="#dcd5f2"></path><path d="M22 5c7.168 0 13 5.832 13 13s-5.832 13-13 13S9 25.168 9 18 14.832 5 22 5m0-1C14.268 4 8 10.268 8 18s6.268 14 14 14 14-6.268 14-14S29.732 4 22 4z" fill="#8b75a1"></path><g><path d="M16 38.5C8.005 38.5 1.5 31.995 1.5 24S8.005 9.5 16 9.5 30.5 16.005 30.5 24 23.995 38.5 16 38.5z" fill="#dcd5f2"></path><path d="M16 10c7.72 0 14 6.28 14 14s-6.28 14-14 14S2 31.72 2 24s6.28-14 14-14m0-1C7.716 9 1 15.716 1 24s6.716 15 15 15 15-6.716 15-15S24.284 9 16 9z" fill="#8b75a1"></path></g><circle cx="16" cy="24" r="8.571" fill="#8b75a1"></circle></svg>