<svg viewBox="0 0 40 40" xmlns="http://www.w3.org/2000/svg"><path fill="#f5ce85" d="M5.5 16.786V10.13L10 2.029l4.5 8.101v6.656z"></path><path d="M10 3.059l4 7.2v6.027H6v-6.027l4-7.2M10 1l-5 9v7.286h10V10l-5-9z" fill="#967a44"></path><path d="M5.5 30.5V11.029c.218.101.47.171.75.171.604 0 1.078-.325 1.361-.587.494.227 1.431.587 2.389.587.96 0 1.9-.362 2.393-.589.286.261.765.589 1.357.589.277 0 .53-.072.75-.176V30.5h-9z" fill="#ffeea3"></path><path d="M12.316 11.191c.354.26.846.509 1.434.509.085 0 .169-.005.25-.015V30H6V11.686c.081.009.164.014.25.014.602 0 1.092-.244 1.444-.505.567.234 1.418.505 2.306.505.892 0 1.748-.274 2.316-.509M15 10s-.541.7-1.25.7-1.25-.7-1.25-.7-1.25.7-2.5.7-2.5-.7-2.5-.7-.507.7-1.25.7S5 10 5 10v21h10V10z" fill="#ba9b48"></path><path d="M8 38.5A2.502 2.502 0 015.5 36v-1.929h9V36c0 1.379-1.121 2.5-2.5 2.5H8z" fill="#f78f8f"></path><path d="M14 34.571V36c0 1.103-.897 2-2 2H8c-1.103 0-2-.897-2-2v-1.429h8m1-1H5V36a3 3 0 003 3h4a3 3 0 003-3v-2.429z" fill="#c74343"></path><path fill="#d9e7f5" d="M5.5 30.5h9v4h-9z"></path><path d="M14 31v3H6v-3h8m1-1H5v5h10v-5z" fill="#788b9c"></path><path fill="#36404d" d="M7.54 5.429h4.92L10 1z"></path><path fill="#8bb7f0" d="M24.5 1.5h10v37h-10z"></path><path d="M34 2v36h-9V2h9m1-1H24v38h11V1z" fill="#4e7ab5"></path><path fill="none" stroke="#4e7ab5" stroke-miterlimit="10" d="M35 33.5h-5M35 29.5h-3M35 25.5h-5M35 21.5h-3M35 17.5h-5M35 13.5h-3M35 9.5h-5M35 5.5h-3"></path></svg>