<svg viewBox="0 0 40 40" xmlns="http://www.w3.org/2000/svg"><path d="M17.072 30.5l-.763-10.694L14.5 18.54V13c0-1.93 1.57-3.5 3.5-3.5h.5v-3h3v3h.5c1.93 0 3.5 1.57 3.5 3.5v5.54l-1.809 1.267-.763 10.693h-5.856z" fill="#dcd5f2"></path><path d="M21 7v3h1c1.654 0 3 1.346 3 3v5.279l-1.4.98-.39.273-.034.475L22.462 30h-4.924l-.714-9.992-.034-.475-.39-.273-1.4-.98V13c0-1.654 1.346-3 3-3h1V7h2m1-1h-4v3a4 4 0 00-4 4v5.8l1.827 1.279.78 10.921h6.786l.78-10.921L26 18.8V13a4 4 0 00-4-4V6z" fill="#8b75a1"></path><path d="M20 8.5c-1.24 0-2.5-2.424-2.5-4.167C17.5 2.771 18.622 1.5 20 1.5s2.5 1.271 2.5 2.833C22.5 6.076 21.24 8.5 20 8.5z" fill="#dcd5f2"></path><path d="M20 2c1.103 0 2 1.047 2 2.333C22 5.875 20.841 8 20 8s-2-2.125-2-3.667C18 3.047 18.897 2 20 2m0-1c-1.657 0-3 1.492-3 3.333C17 6.174 18.343 9 20 9s3-2.826 3-4.667C23 2.492 21.657 1 20 1z" fill="#8b75a1"></path><g><path fill="#b6c9d6" d="M11.5 30.5h17v5h-17z"></path><path d="M28 31v4H12v-4h16m1-1H11v6h18v-6z" fill="#788b9c"></path></g><g><path fill="#b6c9d6" d="M9.5 35.5h21v3h-21z"></path><path d="M30 36v2H10v-2h20m1-1H9v4h22v-4z" fill="#788b9c"></path></g></svg>