<svg viewBox="0 0 40 40" xmlns="http://www.w3.org/2000/svg"><path d="M9.143 38.5C4.5 38.5 1.5 36.033 1.5 32.214c0-2.831 1.606-5.757 3.022-8.338C5.583 21.942 6.5 20.272 6.5 19V9c0-5.047 2.196-7.5 6.714-7.5 5.832 0 9.94 3.397 11.437 4.858l.145.142H25c4.037 0 13.5 3.232 13.5 9.5 0 10.642-12.057 22.5-29.357 22.5z" fill="#ffc49c"></path><path d="M13.214 2c5.647 0 9.635 3.298 11.087 4.716l.292.284H25c3.888 0 13 3.062 13 9 0 10.406-11.851 22-28.857 22C4.737 38 2 35.783 2 32.214c0-2.702 1.573-5.569 2.961-8.098C6.055 22.122 7 20.4 7 19V9c0-4.776 1.975-7 6.214-7m0-1C8.106 1 6 4 6 9v10c0 2.714-5 8.1-5 13.214C1 36.286 4.14 39 9.143 39 26.764 39 39 26.889 39 16c0-6.786-9.929-10-14-10-2.545-2.485-6.724-5-11.786-5z" fill="#a16a4a"></path><path d="M28.758 29.28C23.562 33.613 16.596 36 9.143 36 7.597 36 4 35.631 4 32.214c0-2.19 1.442-4.817 2.714-7.136C7.941 22.843 9 20.913 9 19V9c0-4.182 1.545-5 4.214-5 4.912 0 8.413 2.9 9.69 4.147l.874.853H25c3.265 0 11 2.717 11 7 0 4.533-2.707 9.497-7.242 13.28z" fill="#f78f8f"></path><circle cx="15" cy="10" r="2" fill="#fff"></circle><path d="M31 18.391s-1.399 4.197-6.994 8.393c-6.331 4.748-13.989 4.197-13.989 4.197-.379-2.157 5.71-1.487 7.804-3.771 2.453-2.676-.222-7.42.589-7.42.363 0 2.607 3.426 4.963 3.581 4.823.316 6.216-6.391 7.627-4.98z" fill="#ffc7c7"></path></svg>