<svg viewBox="0 0 40 40" xmlns="http://www.w3.org/2000/svg"><path fill="#99c99e" d="M2.5 23.5v-2.329L9.244 12.5h21.495l6.761 9.658V23.5z"></path><path d="M30.479 13L37 22.315V23H3v-1.657L9.489 13h20.99M31 12H9l-7 9v3h36v-2l-7-10z" fill="#5e9c76"></path><path fill="#4b6477" d="M6.5 31.5h27v7h-27z"></path><path d="M33 32v6H7v-6h26m1-1H6v8h28v-8z" fill="#36404d"></path><path d="M3.385 31.5c-.488 0-.885-.374-.885-.833v-8.333c0-.459.396-.833.885-.833h33.23c.488 0 .885.374.885.833v8.333c0 .459-.396.833-.885.833H3.385z" fill="#99c99e"></path><path d="M36.615 22c.212 0 .385.15.385.333v8.333c0 .184-.173.334-.385.334H3.385C3.173 31 3 30.85 3 30.667v-8.333c0-.184.173-.334.385-.334h33.23m0-1H3.385C2.62 21 2 21.597 2 22.333v8.333C2 31.403 2.62 32 3.385 32h33.231C37.38 32 38 31.403 38 30.667v-8.333c0-.737-.62-1.334-1.385-1.334z" fill="#5e9c76"></path><path d="M30 11.667v3.444c0 1.513-4.477 2.741-10 2.741s-10-1.227-10-2.741v-3.444h20z" fill="#ffeea3"></path><g><path d="M20 13.833c-6.237 0-9.5-1.411-9.5-2.167 0-.756 3.263-2.167 9.5-2.167s9.5 1.411 9.5 2.167c0 .757-3.263 2.167-9.5 2.167z" fill="#ffeea3"></path><path d="M20 10c5.132 0 8.37 1.024 8.951 1.667-.582.642-3.82 1.667-8.951 1.667s-8.37-1.024-8.951-1.667C11.63 11.024 14.868 10 20 10m0-1c-5.523 0-10 1.194-10 2.667s4.477 2.667 10 2.667 10-1.194 10-2.667S25.523 9 20 9z" fill="#f5c276"></path></g><g><path d="M20 11.5c-.938 0-1.353-.263-1.5-.395V1.5h3v9.61c-.138.12-.55.39-1.5.39z" fill="#ffeea3"></path><path d="M21 2v8.834c-.169.077-.477.166-1 .166s-.831-.089-1-.166V2h2m1-1h-4v10.286s.375.714 2 .714 2-.714 2-.714V1z" fill="#f5c276"></path></g><path d="M30 12v3.111c0 1.514-4.477 2.741-10 2.741s-10-1.227-10-2.741V12H9v3.111c0 2.953 6.914 3.741 11 3.741s11-.788 11-3.741V12h-1z" fill="#5e9c76"></path></svg>