<svg viewBox="0 0 40 40" xmlns="http://www.w3.org/2000/svg"><path d="M9 37.5c-.841 0-1.5-.674-1.5-1.536l.032-6.806-1.958-7.303c-.079-.295-.019-.623.167-.922a1.556 1.556 0 011.349-.728c.862 0 2.014.551 2.151 1.235l1.196 7.418.032.147a.963.963 0 01.032.172v6.786C10.5 36.826 9.841 37.5 9 37.5z" fill="#ffeea3"></path><path d="M7.089 20.706c.755 0 1.589.477 1.654.797l1.206 7.475.033.146a.213.213 0 00.018.056l.001-.001v6.786C10 36.545 9.561 37 9 37s-1-.455-1-1.031l.031-6.741.001-.134-.035-.13-1.94-7.237c-.042-.159-.003-.352.107-.529a1.06 1.06 0 01.925-.492m0-1a2.14 2.14 0 00-.432.041c-1.103.22-1.818 1.293-1.566 2.239l1.941 7.238L7 35.964C7 37.089 7.875 38 9 38s2-.911 2-2.036v-6.786c0-.134-.045-.268-.071-.399L9.73 21.344c-.193-.968-1.563-1.638-2.641-1.638z" fill="#ba9b48"></path><g fill="#4e7ab5"><path d="M7.378 28.5L5.54 22.005c-.071-.364.01-.773.238-1.115.228-.341.574-.573.976-.653.106-.021.218-.031.335-.031.862 0 2.014.551 2.151 1.235l1.17 7.059H7.378z"></path><path d="M7.089 20.706c.755 0 1.589.477 1.654.801L9.82 28H7.756l-1.722-6.087a1.024 1.024 0 01.16-.745c.153-.23.387-.387.661-.441.068-.014.147-.021.234-.021m0-1a2.035 2.035 0 00-2.029 2.436L7 29h4l-1.27-7.656c-.193-.968-1.563-1.638-2.641-1.638z"></path><g><path d="M8.473 37.144l.033.002-.049.997z"></path><path d="M8.473 37.643h-.017l.009.001.008-.001z"></path></g></g><circle cx="10.5" cy="4.5" r="3" fill="#ffeea3"></circle><path d="M10.5 2C11.878 2 13 3.122 13 4.5S11.878 7 10.5 7 8 5.879 8 4.5 9.122 2 10.5 2m0-1a3.5 3.5 0 100 7 3.5 3.5 0 000-7z" fill="#ba9b48"></path><path fill="#a3b7cc" d="M25.545 37.367L19 35h-4v-1h4.473l6.488 2.396zM9 38h17v1H9z"></path><path d="M18 35h-5v-1h5s2 .021 2-2h1c0 3.104-3 3-3 3zM10 39H5v-1h5s2 .021 2-2h1c0 3.104-3 3-3 3z" fill="#455a64"></path><path d="M22.804 38.495c-.218-.003-1.304-.084-1.304-1.378 0-4.302 2.957-7.017 5.723-8.123.461-.211.946-.35 1.463-.422.261-.043.5-.073.713-.073 2.812 0 5.1 2.243 5.1 4.999 0 2.402-1.75 4.465-4.162 4.906l-.057.01-.053.023a.576.576 0 01-.178.057l-5.055.006c-.925 0-1.736-.001-2.19-.005z" fill="#839cb2"></path><path d="M29.401 29C31.937 29 34 31.018 34 33.499c0 2.16-1.578 4.017-3.752 4.414l-.113.021-.106.046-.036.016h-.618l-.858.001-3.496.003c-.935 0-1.756-.001-2.207-.005-.54-.017-.814-.313-.814-.878 0-4.052 2.794-6.613 5.409-7.658l.024-.009.023-.011c.393-.181.83-.305 1.326-.375A3.93 3.93 0 0129.4 29h.001m0-1H29.4c-.238 0-.505.031-.782.077a5.576 5.576 0 00-1.58.453C24.268 29.637 21 32.491 21 37.117c0 1.878 1.8 1.878 1.8 1.878.459.004 1.283.005 2.221.005 1.5 0 3.292-.003 4.355-.004.009 0 .017.003.025.003.009 0 .017-.003.026-.003l.623-.001a.942.942 0 00.378-.099c2.6-.475 4.572-2.706 4.572-5.397C35 30.462 32.493 28 29.401 28z" fill="#66798f"></path><path d="M31.527 33.525s.026-1.253 0-4.011c-.028-2.977-.931-6.731-3.516-9.964-3.006-3.758-3.505-5.117-3.505-7.55 0-.415-.007-3.567-.011-4.03" fill="none" stroke="#a3b7cc"></path><path d="M25 12h-1V6.5a.5.5 0 111 0V12z" fill="#455a64"></path><path d="M18 15.5c-.197 0-.388-.037-.569-.11l-8.28-2.935a1.533 1.533 0 01-.836-1.989 1.527 1.527 0 011.995-.855l7.698 2.693 4.38-1.691a1.53 1.53 0 012.001.853 1.537 1.537 0 01-.855 1.996l-4.96 1.926A1.52 1.52 0 0118 15.5z" fill="#ffeea3"></path><path d="M9.741 10c.131 0 .26.025.426.091l7.503 2.625.347.121.343-.133 4.219-1.63a1.03 1.03 0 011.346.578c.103.257.099.538-.01.793-.109.254-.31.451-.558.55l-4.975 1.932c-.12.048-.249.073-.382.073s-.262-.025-.422-.088l-8.222-2.914A1.037 1.037 0 019.741 10m0-1a2.037 2.037 0 00-.756 3.927l8.26 2.928a2.027 2.027 0 001.511-.001l4.964-1.928a2.036 2.036 0 00-1.512-3.78L18 11.772l-7.503-2.625A2.017 2.017 0 009.741 9z" fill="#ba9b48"></path><g><path d="M16.962 33.5c-.728 0-1.36-.52-1.503-1.235l-1.614-6.644-5.952-1.478c-.72-.478-1.248-1.675-.837-2.36a1.537 1.537 0 012.107-.527l.05.03 6.874 2.176c.346.225.588.582.669.986l1.718 7.232c.077.384-.004.794-.232 1.135a1.524 1.524 0 01-.977.653 1.446 1.446 0 01-.303.032z" fill="#ffeea3"></path><path d="M8.374 21.537c.186 0 .37.051.531.148l.101.06.112.035 6.746 2.136c.206.152.351.381.408.666l1.707 7.178c.054.271 0 .547-.154.777-.153.23-.387.387-.661.441a.926.926 0 01-.202.022c-.491 0-.917-.351-1.022-.874l-1.538-6.33-.143-.588-.588-.146-5.567-1.382c-.509-.387-.851-1.254-.62-1.639a1.03 1.03 0 01.89-.504m0-1c-.692 0-1.366.353-1.747.988-.579.964.104 2.505 1.067 3.083l5.736 1.424 1.538 6.33a2.036 2.036 0 103.992-.797l-1.714-7.213a2.035 2.035 0 00-.948-1.347L9.42 20.828a2.025 2.025 0 00-1.046-.291z" fill="#ba9b48"></path></g><g><path d="M8.719 23.53c-.355 0-.618-.022-.661-.027-1.354-.151-2.736-.874-2.561-2.448l1-9.134c.157-1.407 1.396-2.396 3.024-2.419l.027.005h.207c.196 0 .382.035.554.104l5.195 1.817v3.266l-3.575-1.337-1.067 9.497c-.05.408-.892.676-2.143.676z" fill="#f78f8f"></path><path d="M9.487 10.002l.021.002.085.009.085-.005.076-.002c.133 0 .257.023.413.085l4.838 1.692v2.19l-2.299-.86-1.201-.449-.143 1.274-.989 8.802c-.122.093-.597.29-1.654.29-.359 0-.605-.024-.608-.024-.54-.06-2.287-.375-2.117-1.897l1-9.132c.147-1.32 1.376-1.941 2.493-1.975m.095-1.001c-1.801 0-3.384 1.084-3.582 2.866L5 21c-.198 1.78 1.22 2.801 3 3 .036.004.325.03.719.03.952 0 2.519-.151 2.641-1.12l.995-8.86 3.649 1.365v-4.341l-5.508-1.927a1.983 1.983 0 00-.881-.137c-.01-.001-.022-.009-.033-.009z" fill="#c74343"></path></g><g><path d="M7.902 24.145l-.035-.024-.191-.091a2.723 2.723 0 01-2.179-2.975l.156-1.333 10.004 3.585c-.423.499-1.416 1.407-2.35 2.18l-5.405-1.342z" fill="#8bb7f0"></path><path d="M6.076 20.404l8.69 3.114c-.431.421-1.016.943-1.585 1.422l-5.053-1.255-.148-.103-.203-.042a2.225 2.225 0 01-1.784-2.424l.083-.712m-.847-1.365L5 21c-.187 1.679.951 3.186 2.576 3.52.04.028.077.064.119.089l5.736 1.424s3.359-2.733 2.867-3.028L5.229 19.039z" fill="#4e7ab5"></path></g><circle cx="29.5" cy="33.5" r="2.5" fill="#e1ebf2"></circle></svg>