<svg viewBox="0 0 40 40" xmlns="http://www.w3.org/2000/svg"><path d="M7.5 12a.5.5 0 01-.5-.5v-5a.5.5 0 011 0v5a.5.5 0 01-.5.5z" fill="#e1ebf2"></path><path d="M7.5 6a.5.5 0 00-.5.5v5a.5.5 0 001 0v-5a.5.5 0 00-.5-.5z" fill="#788b9c"></path><path d="M7.5 3C8.327 3 9 3.673 9 4.5S8.327 6 7.5 6 6 5.327 6 4.5 6.673 3 7.5 3m0-1a2.5 2.5 0 100 5 2.5 2.5 0 000-5z" fill="#788b9c"></path><path fill="none" stroke="#788b9c" stroke-linejoin="round" stroke-miterlimit="10" d="M25 7H14l1.562-5.5h7.875z"></path><path d="M19.5 27.5c-8.271 0-15-4.935-15-11s6.729-11 15-11 15 4.935 15 11-6.729 11-15 11z" fill="#e1ebf2"></path><path d="M19.5 6C27.495 6 34 10.71 34 16.5S27.495 27 19.5 27 5 22.29 5 16.5 11.505 6 19.5 6m0-1C10.94 5 4 10.149 4 16.5S10.94 28 19.5 28 35 22.851 35 16.5 28.06 5 19.5 5z" fill="#788b9c"></path><path d="M6 38.5c-.827 0-1.5-.673-1.5-1.5V14.5h30V37c0 .827-.673 1.5-1.5 1.5H6z" fill="#e1ebf2"></path><path d="M34 15v22c0 .551-.449 1-1 1H6c-.551 0-1-.449-1-1V15h29m1-1H4v23a2 2 0 002 2h27a2 2 0 002-2V14z" fill="#788b9c"></path><path d="M3.5 20.5a1 1 0 01-1-1v-7a1 1 0 012 0v7a1 1 0 01-1 1z" fill="#b0c1d4"></path><path d="M3.5 12a.5.5 0 01.5.5v7a.5.5 0 01-1 0v-7a.5.5 0 01.5-.5m0-1A1.5 1.5 0 002 12.5v7a1.5 1.5 0 003 0v-7A1.5 1.5 0 003.5 11z" fill="#66798f"></path><path d="M35.5 20.5a1 1 0 01-1-1v-7a1 1 0 012 0v7a1 1 0 01-1 1z" fill="#b0c1d4"></path><path d="M35.5 12a.5.5 0 01.5.5v7a.5.5 0 01-1 0v-7a.5.5 0 01.5-.5m0-1a1.5 1.5 0 00-1.5 1.5v7a1.5 1.5 0 003 0v-7a1.5 1.5 0 00-1.5-1.5z" fill="#66798f"></path><g><path d="M19.5 20.5a1 1 0 01-1-1v-7a1 1 0 012 0v7a1 1 0 01-1 1z" fill="#b0c1d4"></path><path d="M19.5 12a.5.5 0 01.5.5v7a.5.5 0 01-1 0v-7a.5.5 0 01.5-.5m0-1a1.5 1.5 0 00-1.5 1.5v7a1.5 1.5 0 003 0v-7a1.5 1.5 0 00-1.5-1.5z" fill="#66798f"></path></g><g><path d="M27.5 20.5a1 1 0 01-1-1v-7a1 1 0 012 0v7a1 1 0 01-1 1z" fill="#b0c1d4"></path><path d="M27.5 12a.5.5 0 01.5.5v7a.5.5 0 01-1 0v-7a.5.5 0 01.5-.5m0-1a1.5 1.5 0 00-1.5 1.5v7a1.5 1.5 0 003 0v-7a1.5 1.5 0 00-1.5-1.5z" fill="#66798f"></path></g><g><path d="M11.5 20.5a1 1 0 01-1-1v-7a1 1 0 012 0v7a1 1 0 01-1 1z" fill="#b0c1d4"></path><path d="M11.5 12a.5.5 0 01.5.5v7a.5.5 0 01-1 0v-7a.5.5 0 01.5-.5m0-1a1.5 1.5 0 00-1.5 1.5v7a1.5 1.5 0 003 0v-7a1.5 1.5 0 00-1.5-1.5z" fill="#66798f"></path></g><g><path fill="#b0c1d4" d="M1.5 14.5h36v3h-36z"></path><path d="M37 15v2H2v-2h35m1-1H1v4h37v-4z" fill="#66798f"></path></g></svg>