<svg viewBox="0 0 40 40" xmlns="http://www.w3.org/2000/svg"><path d="M11.5 24.5c5.607 0 10-7.796 10-17.747 0-2.595-1.184-3.253-5.511-3.253" fill="none" stroke="#7496c4" stroke-miterlimit="10"></path><circle cx="16.5" cy="3.5" r="2" fill="#b6c9d6"></circle><path d="M16.5 2c.827 0 1.5.673 1.5 1.5S17.327 5 16.5 5 15 4.327 15 3.5 15.673 2 16.5 2m0-1a2.5 2.5 0 100 5 2.5 2.5 0 000-5z" fill="#788b9c"></path><path d="M35.5 21.5v4.76c0 6.75-5.383 12.24-12 12.24s-12-5.49-12-12.24V24M11.5 24.5c3.49 0 6.509-3.02 8.292-7.699" fill="none" stroke="#4e7ab5" stroke-miterlimit="10"></path><path d="M11.5 24.5c-5.607 0-10-7.796-10-17.747C1.5 4.158 2.684 3.5 7.011 3.5" fill="none" stroke="#7496c4" stroke-miterlimit="10"></path><path d="M11.5 24.5c-3.49 0-6.509-3.02-8.292-7.699" fill="none" stroke="#4e7ab5" stroke-miterlimit="10"></path><circle cx="6.5" cy="3.5" r="2" fill="#b6c9d6"></circle><path d="M6.5 2C7.327 2 8 2.673 8 3.5S7.327 5 6.5 5 5 4.327 5 3.5 5.673 2 6.5 2m0-1a2.5 2.5 0 100 5 2.5 2.5 0 000-5z" fill="#788b9c"></path><g><circle cx="35.5" cy="20.5" r="3" fill="#b6c9d6"></circle><path d="M35.5 18c1.378 0 2.5 1.121 2.5 2.5S36.878 23 35.5 23 33 21.879 33 20.5s1.122-2.5 2.5-2.5m0-1a3.5 3.5 0 100 7 3.5 3.5 0 000-7z" fill="#788b9c"></path></g></svg>