<svg viewBox="0 0 40 40" xmlns="http://www.w3.org/2000/svg"><path d="M30.5 24.5v-8H32c.331 0 1.433.486 1.433.876 0 .745-.261 1.507-.417 1.895-.136.339-.18.979-.231 1.917a17.4 17.4 0 01-.072 1.011 8.16 8.16 0 00-.145.74c-.064.388-.12.723-.258.999-.186.373-.627.562-1.31.562h-.5z" fill="#f5ce85"></path><path d="M31.983 17c.25.029.791.283.949.462-.019.633-.243 1.284-.38 1.624-.164.411-.21 1.058-.266 2.074-.02.356-.038.695-.063.924-.067.28-.11.542-.149.774-.058.347-.107.648-.212.856-.117.237-.534.286-.862.286v-7h.983M32 16h-2v9h1c.905 0 1.486-.295 1.757-.838.271-.543.271-1.176.452-1.9.09-.724.09-2.352.271-2.805.181-.452.452-1.267.452-2.081S32.452 16 32 16z" fill="#ba9b48"></path><path d="M8.662 24.657c-.59-.007-.733-.241-.972-.719-.138-.276-.194-.611-.258-.999-.042-.253-.086-.52-.156-.799a23.636 23.636 0 01-.062-.952c-.051-.938-.095-1.578-.231-1.917-.156-.389-.417-1.151-.417-1.896 0-.39 1.103-.876 1.433-.876h1.5v8.057l-.837.101z" fill="#f5ce85"></path><path d="M9 17v7.113l-.368.044c-.263-.002-.288-.029-.494-.442-.104-.209-.154-.509-.212-.856-.039-.233-.082-.494-.149-.774-.025-.23-.044-.568-.063-.924-.056-1.016-.101-1.663-.266-2.074-.136-.34-.36-.991-.38-1.624.159-.182.709-.439.932-.463h1m1-1H8c-.452 0-1.933.562-1.933 1.376s.271 1.629.452 2.081c.181.453.181 2.081.271 2.805.181.724.181 1.357.452 1.9.271.543.543.995 1.448.995L10 25v-9z" fill="#ba9b48"></path><path d="M20.267 38.5c-5.641 0-8.493-5.635-9.711-8.041-.136-.269-.25-.493-.342-.659-.597-1.194-.58-2.326-.572-2.87l.001-.145c-.111-2.519-.441-3.619-.733-4.59-.184-.614-.343-1.145-.412-1.966.002-.85.139-1.406.249-1.852.171-.696.308-1.251-.244-2.219.029-.68.264-2.332.714-5.034C10.039 6.771 15.033 1.5 20 1.5c4.604 0 10.191 4.84 11.071 9.591.204 1.226.449 3.068.46 4.901-.078.156-.139.34-.199.521-.035.107-.064.207-.094.265-.573.946-.313 1.482-.084 1.955.174.361.355.733.292 1.498-.069.821-.219 1.352-.392 1.966-.274.969-.584 2.068-.695 4.567 0 .389-.139 1.653-.771 3.077-.06.135-.131.308-.216.512-.923 2.228-3.369 8.147-9.105 8.147z" fill="#f5ce85"></path><path d="M20 2c4.398 0 9.737 4.634 10.576 9.164.199 1.192.434 2.956.454 4.72-.068.156-.122.32-.172.471-.024.072-.045.14-.065.192-.635 1.073-.393 1.775-.089 2.403.159.327.295.61.243 1.238-.064.774-.201 1.258-.375 1.872-.267.946-.6 2.124-.714 4.725 0 .012-.02 1.257-.728 2.851a25.23 25.23 0 00-.221.523C28.022 32.304 25.669 38 20.267 38c-5.334 0-8.089-5.443-9.266-7.767a17.4 17.4 0 00-.331-.637c-.552-1.104-.537-2.154-.529-2.658l.001-.196c-.114-2.558-.468-3.74-.753-4.689-.18-.601-.323-1.078-.389-1.823a6.593 6.593 0 01.232-1.732c.175-.713.342-1.39-.222-2.453.05-.725.285-2.346.696-4.816C10.49 7.074 15.394 2 20 2m0-1C15.024 1 9.629 6.248 8.724 11.043 8.181 14.3 8 15.748 8 16.29c.892 1.462 0 1.629 0 3.981.181 2.171.962 2.443 1.143 6.514 0 .452-.09 1.81.633 3.257C10.681 31.671 13.662 39 20.267 39c6.605 0 9.052-7.329 9.776-8.957.724-1.629.814-2.986.814-3.257.181-4.071.905-4.343 1.086-6.514.162-1.939-1.088-1.897-.273-3.242.098-.161.217-.702.362-.905 0-.452 0-2.313-.469-5.125C30.658 6.114 24.976 1 20 1z" fill="#967a44"></path><path d="M16.293 17.495c-.079-.019-.232-.085-.349-.135-.435-.188-1.092-.472-2.098-.472-.73 0-.955-.111-1.401-.332l-.1-.049c.059-.003.195-.006.759-.006h1.113c.954.05 1.713.199 2.248.444-.041.239-.108.461-.172.55z" fill="#a6714e"></path><path d="M14.217 16h-1.113c-1.045 0-.686.013-.961.013-.137 0-.433-.003-1.143-.013 0 0 .62.664 1.084.935.557.271.835.452 1.762.452 1.41 0 2.032.612 2.48.612a.414.414 0 00.152-.028c.464-.18.522-1.307.522-1.307-.725-.451-1.78-.612-2.783-.664z" fill="#7a4f34"></path><path d="M23.696 17.498c-.052-.067-.121-.3-.163-.553.535-.246 1.298-.395 2.275-.445h1.087c.572 0 .704.003.762.006l-.102.049c-.447.221-.672.333-1.402.333-1.005 0-1.663.284-2.098.472a2.572 2.572 0 01-.359.138z" fill="#a6714e"></path><path d="M29 16c-.71.01-1.006.013-1.144.013-.275 0 .084-.013-.961-.013h-1.113c-1.003.052-2.057.213-2.783.664 0 0 .058 1.128.522 1.309.05.018.1.027.153.027.447 0 1.07-.612 2.48-.612.928 0 1.206-.181 1.762-.452C28.38 16.664 29 16 29 16z" fill="#7a4f34"></path><path d="M31.5 15.942l-.013-.056c-.357-1.521-1.018-4.339-.966-4.785l.015-.06-.005-.041c0-2.511-1.246-4.551-3.332-5.458a1.405 1.405 0 00-.52-.097c-.586 0-1.224.315-2.031.715C23.441 6.757 21.939 7.5 20 7.5c-1.904 0-3.39-.747-4.584-1.347-.812-.407-1.452-.729-2.046-.729-.209 0-.404.041-.579.122C10.734 6.44 9.5 8.48 9.5 11c0 .339-.507 2.85-.987 4.885l-.005.024c.025-1.103.124-2.875.485-5.046C9.867 6.231 15.423 1.5 20 1.5c4.633 0 10.252 4.762 11.134 9.437a28.65 28.65 0 01.373 5.779l-.003.126-.008.012.004-.912z" fill="#a6714e"></path><path d="M20 2c2.262 0 4.771 1.19 6.795 2.948a2.217 2.217 0 00-.116-.003c-.704 0-1.388.338-2.254.767C23.266 6.285 21.822 7 20 7c-1.785 0-3.213-.717-4.36-1.293-.836-.42-1.558-.783-2.27-.783l-.078.001C15.292 3.18 17.768 2 20 2m0-1C15.024 1 9.405 5.986 8.5 10.781 7.957 14.038 8 16.457 8 17c.62.786.882.999.984.999.121 0 .016-.301.016-.301V16c.435-1.847 1-4.563 1-5 0-2.081.919-4.095 3-5a.87.87 0 01.369-.076C14.615 5.924 16.73 8 20 8c3.313 0 5.441-2.056 6.68-2.056.114 0 .221.017.32.056 2.081.905 3.031 2.919 3.031 5-.106.423.499 2.998.969 5v1.357s-.102.591.12.591c.137 0 .397-.224.88-.948 0-.452.168-2.99-.375-6.156C30.72 6.049 24.976 1 20 1z" fill="#7a4f34"></path><path d="M23.076 34.929c-1.629 0 .181-2.363-.181-2.634-.271-.271-2.171.271-2.895.271-.724 0-2.624-.543-2.895-.271-.271.271 1.629 2.634-.181 2.634-2.081 0-1.9-1.267-1.9-1.629 0-.452.478-2.162 1.292-2.252.724-.181 3.051-.191 3.684-.191.543 0 2.74.01 3.373.191.543.181 1.422 1.8 1.422 2.252 0 .452.362 1.629-1.719 1.629zm-15.047-14.9c.181 2.171.933 2.686 1.114 6.757 0 .452-.09 1.81.633 3.257C10.681 31.671 13.662 39 20.267 39s9.052-7.329 9.776-8.957c.724-1.629.814-2.986.814-3.257.181-4.071.905-4.343 1.086-6.514l-.543-.996c0 1.176-2.262 7.057-2.443 7.329-.271.724-1.357 1.267-1.629 1.538-.271.543-.724 4.071-1.629 4.071-.452 0-.814-2.714-.995-2.986-.181-.543-1.086-1.086-2.805-1.086-.995 0-.543 1.176-1.9 1.357-1.357 0-.905-1.357-1.9-1.357-1.9 0-2.624.543-2.895.995-.181.271-.633 3.076-1.086 3.076-.905 0-1.357-3.619-1.629-4.071-.271-.271-1.357-.905-1.629-1.629-.181-.271-2.11-6.395-2.2-7.571l-.631 1.087z" fill="#967a44"></path><path d="M20.543 20h-.995l-.452 7.095A.905.905 0 0020 28c.452 0 .905-.452.905-.905L20.543 20z" fill="#ffeea3"></path><circle cx="25.5" cy="19.5" fill="#70574f" r="1.5"></circle><ellipse cx="25.5" cy="19.385" rx=".7" ry=".692" fill="#1f1f1f"/><ellipse cx="25.2" cy="18.808" rx=".3" ry=".346" fill="#fff"/><circle cx="14.5" cy="19.5" fill="#70574f" r="1.5"></circle><ellipse cx="14.5" cy="19.385" rx=".7" ry=".692" fill="#1f1f1f"/><ellipse cx="14.2" cy="18.808" rx=".3" ry=".346" fill="#fff"/><path fill="none" stroke="#4b6177" stroke-miterlimit="10" d="M32.214 15.929l-3.448 5.428h-.623"></path><path fill="none" stroke="#4b6177" stroke-miterlimit="10" d="M32.214 15.929l-3.448 5.428h-.623"></path><circle cx="32.214" cy="15.929" r=".5" fill="#4b6177"></circle><path fill="none" stroke="#4b6177" stroke-miterlimit="10" d="M7.786 15.929l3.448 5.428h.623"></path><circle cx="7.786" cy="15.929" r=".5" fill="#4b6177"></circle><path d="M20 20c-.813 0-1.476.261-2 .569v1.329c.31-.311 1.023-.898 2-.898.978 0 1.691.588 2 .898v-1.329c-.524-.308-1.187-.569-2-.569z" fill="#4b6177"></path><g><path d="M25 18c1.654 0 3 1.346 3 3s-1.346 3-3 3-3-1.346-3-3 1.346-3 3-3m0-1c-2.2 0-4 1.8-4 4s1.8 4 4 4 4-1.8 4-4-1.8-4-4-4z" fill="#788b9c"></path></g><g><path d="M15 18c1.654 0 3 1.346 3 3s-1.346 3-3 3-3-1.346-3-3 1.346-3 3-3m0-1c-2.2 0-4 1.8-4 4s1.8 4 4 4 4-1.8 4-4-1.8-4-4-4z" fill="#788b9c"></path></g></svg>