<svg viewBox="0 0 40 40" xmlns="http://www.w3.org/2000/svg"><path d="M20 34.5C9.248 34.5.5 30.806.5 26.264V14.608h39v11.656c0 4.542-8.748 8.236-19.5 8.236z" fill="#f5ce85"></path><path d="M39 15.108v11.156C39 30.457 30.299 34 20 34S1 30.457 1 26.264V15.108h38m1-1H0v12.156C0 31.158 8.954 35 20 35s20-3.842 20-8.736V14.108z" fill="#ba9b48"></path><path d="M20 22.5C9.43 22.5.5 18.607.5 14S9.43 5.5 20 5.5 39.5 9.393 39.5 14s-8.93 8.5-19.5 8.5z" fill="#ffeea3"></path><path d="M20 6c11.365 0 19 4.137 19 8s-7.635 8-19 8-19-4.137-19-8 7.635-8 19-8m0-1C8.954 5 0 9.029 0 14s8.954 9 20 9 20-4.029 20-9-8.954-9-20-9z" fill="#ba9b48"></path><g><path d="M20 17.5c-7.366 0-12.5-1.845-12.5-3.5s5.134-3.5 12.5-3.5 12.5 1.845 12.5 3.5-5.134 3.5-12.5 3.5z" fill="#d6e3ed"></path><path d="M20 11c7.444 0 12 1.942 12 3s-4.556 3-12 3-12-1.942-12-3 4.556-3 12-3m0-1c-7.18 0-13 1.791-13 4s5.82 4 13 4 13-1.791 13-4-5.82-4-13-4z" fill="#788b9c"></path></g><g><path d="M19.795 34.5C9.137 34.453.5 30.776.5 26.264V14.608h.066c.69 3.844 7.905 7.809 19.08 7.891L23.02 24.5l-3.375 2 3.389 2.008-3.217 1.979 3.229 2.111-3.272 1.888.021.014z" fill="#f5ce85"></path><path d="M1 16.832c2.555 3.545 9.788 6.072 18.503 6.165l.612.363 1.923 1.14-1.923 1.14-1.452.86 1.452.86 1.951 1.156-1.84 1.132-1.342.826 1.319.863 1.888 1.235-1.841 1.062-.632.365C9.487 33.912 1 30.405 1 26.264v-9.432m.013-2.724H0v12.156C0 31.158 8.954 35 20 35h.001c.505 0 .993-.029 1.489-.045l-.74-.455L24 32.625 20.75 30.5l3.25-2-3.375-2 3.375-2-3.375-2 .902-.535C21.023 21.982 20.52 22 20 22 8.74 22 1.153 17.94 1.013 14.108z" fill="#ba9b48"></path></g></svg>