<svg viewBox="0 0 40 40" xmlns="http://www.w3.org/2000/svg"><path fill="none" stroke="#788b9c" stroke-linecap="round" stroke-linejoin="round" stroke-miterlimit="10" d="M4.68 1.679L37.017 5.75"></path><circle cx="18" cy="9" r="3.5" fill="#f5ce85"></circle><path d="M18 6c1.654 0 3 1.346 3 3s-1.346 3-3 3-3-1.346-3-3 1.346-3 3-3m0-1a4 4 0 100 8 4 4 0 000-8z" fill="#967a44"></path><g><path d="M5.443 38.5a1.945 1.945 0 01-1.932-2.151l.706-6.541a4.895 4.895 0 011.242-2.774l3.019-3.343 1.24-6.919L6.433 9.18a2.746 2.746 0 01-.019-2.128l1.853-4.5A1.694 1.694 0 019.838 1.5c.568 0 1.079.269 1.4.737s.39 1.041.187 1.571L9.766 8.133l2.459 4.583 6.207 2.847 5.048 3.58h5.708c.847 0 1.536.689 1.536 1.536s-.689 1.536-1.536 1.536h-6.683l-5.136-3.261-2.057 6.185 11.944 10.886c.448.408.455.95.311 1.32s-.513.767-1.119.767h-.275a4.368 4.368 0 01-2.798-1.015L11.322 27.029l-3.204 3.429-.742 6.326A1.941 1.941 0 015.447 38.5h-.004z" fill="#8bb7f0"></path><path d="M9.838 2c.401 0 .761.19.988.52.227.33.275.735.132 1.109L9.381 7.74l-.164.428.216.403 2.272 4.234.159.296.305.14 5.969 2.738 4.922 3.48.259.183h5.867c.571 0 1.036.465 1.036 1.036s-.465 1.036-1.036 1.036h-6.538l-4.473-2.84-1.081-.686-.404 1.215-1.753 5.269-.205.617.48.438 11.704 10.667c.32.292.233.636.181.77a.675.675 0 01-.653.447h-.275a3.866 3.866 0 01-2.477-.899l-11.688-9.764-.726-.606-.646.691-2.768 2.963-.224.24-.038.326-.722 6.163A1.444 1.444 0 015.443 38c-.415 0-.796-.17-1.074-.479a1.429 1.429 0 01-.361-1.119l.706-6.541a4.403 4.403 0 011.116-2.492l2.923-3.238.192-.212.05-.281 1.188-6.63.053-.297-.12-.277-3.225-7.453a2.246 2.246 0 01-.015-1.739l1.853-4.5C8.914 2.292 9.35 2 9.838 2m0-1a2.2 2.2 0 00-2.034 1.362l-1.853 4.5a3.238 3.238 0 00.022 2.517l3.225 7.452-1.188 6.63-2.923 3.238a5.433 5.433 0 00-1.368 3.055l-.706 6.541A2.445 2.445 0 005.443 39h.004a2.443 2.443 0 002.426-2.158l.723-6.163 2.768-2.963 11.688 9.764a4.865 4.865 0 003.119 1.131h.275c1.553 0 2.293-1.91 1.145-2.956L15.888 24.988l1.753-5.269 4.718 2.996h6.828a2.036 2.036 0 100-4.072h-5.549l-4.998-3.534-6.054-2.777-2.272-4.234 1.577-4.111A2.199 2.199 0 009.838 1z" fill="#4e7ab5"></path></g></svg>