<svg viewBox="0 0 40 40" xmlns="http://www.w3.org/2000/svg"><path fill="none" stroke="#788b9c" stroke-miterlimit="10" d="M39 39.5H1"></path><circle cx="28.5" cy="37.5" r=".5" fill="#36404d"></circle><circle cx="28.5" cy="35.5" r=".5" fill="#36404d"></circle><circle cx="28.5" cy="33.5" r=".5" fill="#36404d"></circle><circle cx="28.5" cy="31.5" r=".5" fill="#36404d"></circle><circle cx="28.5" cy="29.5" r=".5" fill="#36404d"></circle><circle cx="28.5" cy="27.5" r=".5" fill="#36404d"></circle><circle cx="28.5" cy="25.5" r=".5" fill="#36404d"></circle><circle cx="28.5" cy="23.5" r=".5" fill="#36404d"></circle><circle cx="28.5" cy="21.5" r=".5" fill="#36404d"></circle><circle cx="28.5" cy="19.5" r=".5" fill="#36404d"></circle><circle cx="28.5" cy="17.5" r=".5" fill="#36404d"></circle><circle cx="28.5" cy="15.5" r=".5" fill="#36404d"></circle><circle cx="28.5" cy="13.5" r=".5" fill="#36404d"></circle><circle cx="28.5" cy="11.5" r=".5" fill="#36404d"></circle><circle cx="11.5" cy="37.5" r=".5" fill="#36404d"></circle><circle cx="11.5" cy="35.5" r=".5" fill="#36404d"></circle><circle cx="11.5" cy="33.5" r=".5" fill="#36404d"></circle><circle cx="11.5" cy="31.5" r=".5" fill="#36404d"></circle><circle cx="11.5" cy="29.5" r=".5" fill="#36404d"></circle><circle cx="11.5" cy="27.5" r=".5" fill="#36404d"></circle><circle cx="11.5" cy="25.5" r=".5" fill="#36404d"></circle><circle cx="11.5" cy="23.5" r=".5" fill="#36404d"></circle><circle cx="11.5" cy="21.5" r=".5" fill="#36404d"></circle><circle cx="11.5" cy="19.5" r=".5" fill="#36404d"></circle><circle cx="11.5" cy="17.5" r=".5" fill="#36404d"></circle><circle cx="11.5" cy="15.5" r=".5" fill="#36404d"></circle><circle cx="11.5" cy="13.5" r=".5" fill="#36404d"></circle><circle cx="11.5" cy="11.5" r=".5" fill="#36404d"></circle><circle cx="28.5" cy="9.5" r=".5" fill="#36404d"></circle><circle cx="28.5" cy="7.5" r=".5" fill="#36404d"></circle><circle cx="28.5" cy="5.5" r=".5" fill="#36404d"></circle><circle cx="28.5" cy="3.5" r=".5" fill="#36404d"></circle><circle cx="28.5" cy="1.5" r=".5" fill="#36404d"></circle><circle cx="11.5" cy="9.5" r=".5" fill="#36404d"></circle><circle cx="11.5" cy="7.5" r=".5" fill="#36404d"></circle><circle cx="11.5" cy="5.5" r=".5" fill="#36404d"></circle><circle cx="11.5" cy="3.5" r=".5" fill="#36404d"></circle><circle cx="11.5" cy="1.5" r=".5" fill="#36404d"></circle><path fill="none" stroke="#4e7ab5" stroke-linecap="round" stroke-linejoin="round" stroke-miterlimit="10" d="M1.5 17.5l4-3 2 3 6-6 4 3 4-4 3 3 2-2h6l2-4 4-4"></path></svg>