<svg viewBox="0 0 40 40" xmlns="http://www.w3.org/2000/svg"><path d="M22.712 15.415c-2.149-.134-7.212-1.403-7.212-10.344V2.5h5v2.571c0 2.305.525 5.021 2.929 5.387l-.717 4.957z" fill="#f78f8f"></path><path d="M20 3v2.071c0 3.906 1.382 5.352 2.867 5.778l-.582 4.029C19.894 14.595 16 12.927 16 5.071V3h4m1-1h-6v3.071c0 10.074 6.232 10.857 8.143 10.857L24 10c-.671 0-3 0-3-4.929V2z" fill="#c74343"></path><path d="M22 37.5c-4.323 0-6.87-1.759-8.917-3.172C11.663 33.347 10.436 32.5 9 32.5c-1.47 0-2.384 1.484-2.49 4H1.504c.178-9.51 5.429-10 6.496-10 2.114 0 3.409.848 4.662 1.668 1.046.686 2.033 1.332 3.338 1.332 1.356 0 2.493-.471 3.377-1.398 2.479-2.602 2.222-7.976 2.137-9.741-.008-.169-.014-.292-.014-.361 0-7.065 2.607-10.5 7.97-10.5 2.438 0 4.789 1.179 6.45 3.234 1.768 2.187 3.548 6.317 1.991 13.577C36.138 32.569 30.19 37.5 22 37.5z" fill="#ffadad"></path><path d="M29.47 8c2.286 0 4.495 1.111 6.061 3.048 1.699 2.102 3.406 6.092 1.891 13.158C35.702 32.217 29.937 37 22 37c-4.167 0-6.539-1.638-8.633-3.084C11.878 32.888 10.592 32 9 32c-1.669 0-2.74 1.475-2.959 4H2.019c.338-8.552 5.015-9 5.981-9 1.965 0 3.196.807 4.388 1.587C13.449 29.281 14.546 30 16 30c1.499 0 2.756-.523 3.739-1.553 2.628-2.757 2.362-8.292 2.275-10.111-.008-.157-.014-.271-.014-.336 0-8.963 4.263-10 7.47-10m0-1C24.755 7 21 9.527 21 18c0 .929 1 11-5 11-2.601 0-3.929-3-8-3-2.04 0-7 1.372-7 11h6c0-.406 0-4 2-4 3.223 0 5.571 5 13 5 7 0 14.298-3.796 16.399-13.584C40.977 12.395 34.748 7 29.47 7z" fill="#c74343"></path><path fill="#f78f8f" d="M16 2h4v1h-4z"></path><path d="M2.258 33.625A20.692 20.692 0 002 37h4c0-1.402.236-2.534.653-3.375H2.258z" fill="#ffadad"></path></svg>