<svg viewBox="0 0 40 40" xmlns="http://www.w3.org/2000/svg"><path d="M2.5 36.5v-33h35V36a.5.5 0 01-.5.5H2.5z" fill="#fff"></path><path d="M37 4v32H3V4h34m1-1H2v34h35a1 1 0 001-1V3z" fill="#788b9c"></path><path fill="#c8d1db" d="M38 22h-1v14H22v1h16z"></path><path fill="#788b9c" d="M2 3h36v6H2z"></path><path fill="none" stroke="#8bb7f0" stroke-miterlimit="10" d="M13 16.5h18M9 16.5h1M13 20.5h18M9 20.5h1M13 24.5h18M9 24.5h1M13 28.5h18M9 28.5h1"></path><g fill="#c2e8ff"><path d="M22 28h7v1h-7zM22 24h7v1h-7z"></path></g><g><path fill="#f78f8f" d="M24.5 24.5h15v15h-15z"></path><path d="M39 25v14H25V25h14m1-1H24v16h16V24z" fill="#c74343"></path></g></svg>