<svg viewBox="0 0 40 40" xmlns="http://www.w3.org/2000/svg"><path fill="#f78f8f" d="M9.301 36.5L.566 20 9.301 3.5h21.398L39.434 20l-8.735 16.5z"></path><path d="M30.398 4l8.471 16-8.471 16H9.602l-8.47-16 8.47-16h20.796M31 3H9L0 20l9 17h22l9-17-9-17z" fill="#c74343"></path><g fill="#fff"><path d="M6.064 23.876v-1.875c.34.285 1.18.855 2.314.855.238 0 1.424-.033 1.424-.85 0-1.429-3.773-1.132-3.773-3.855 0-2.416 2.683-2.496 3.299-2.496 1.276 0 1.812.213 2.098.322v1.752c-.141-.098-.85-.586-1.992-.586-1.357 0-1.412.721-1.412.85 0 1.385 3.773 1.103 3.773 3.844 0 .469-.047 2.508-3.334 2.508-1.358 0-2.092-.313-2.397-.469zM19.078 17.337h-2.396v6.861h-1.898v-6.861h-2.385v-1.541h6.68v1.541zM23.314 24.345c-1.57 0-4.078-.957-4.078-4.236 0-3.469 2.579-4.453 4.213-4.453 1.43 0 4.02.758 4.02 4.283 0 1.402-.656 4.406-4.155 4.406zm.082-7.061c-.664 0-2.168.386-2.168 2.725 0 2.306 1.488 2.701 2.121 2.701 1.826 0 2.127-1.83 2.127-2.666.001-.871-.272-2.76-2.08-2.76zM30.756 21.304v2.895h-1.893v-8.402h2.965c2.117 0 3.176.893 3.176 2.678 0 2.326-2.181 2.83-3.346 2.83h-.902zm0-4.055v2.619h.744c1.008 0 1.512-.441 1.512-1.324 0-.863-.504-1.295-1.512-1.295h-.744z"></path></g></svg>