<svg viewBox="0 0 40 40" xmlns="http://www.w3.org/2000/svg"><path d="M7 27.5A6.508 6.508 0 01.5 21a6.529 6.529 0 013.73-5.873l.271-.128.014-.301A6.485 6.485 0 0111 8.5c.299 0 .61.026.98.082l.514.078.059-.516A7.487 7.487 0 0120 1.5c2.698 0 5.2 1.464 6.53 3.82l.166.293.334-.043c.319-.041.64-.07.97-.07 4.136 0 7.5 3.364 7.5 7.5v.289l.246.221A7.524 7.524 0 0139.5 20c0 4.136-3.364 7.5-7.5 7.5H7z" fill="#b0c1d4"></path><path d="M20 2a7.014 7.014 0 016.095 3.566l.331.586.668-.086C27.443 6.021 27.73 6 28 6c3.86 0 7 3.14 7.001 6.967l-.004.069v.032l-.006.583.505.292A7.023 7.023 0 0139 20c0 3.86-3.14 7-7 7H7c-3.308 0-6-2.692-6-6a6.028 6.028 0 013.444-5.421l.544-.257.028-.601A5.984 5.984 0 0111 9c.273 0 .561.024.906.077l1.026.156.117-1.031A6.99 6.99 0 0120 2m0-1c-4.109 0-7.491 3.1-7.944 7.088A7.074 7.074 0 0011 8c-3.756 0-6.813 2.961-6.984 6.675A6.995 6.995 0 007 28h25a8 8 0 008-8 7.99 7.99 0 00-4.004-6.923c0-.026.004-.051.004-.077a8 8 0 00-8-8c-.351 0-.695.03-1.034.074A7.994 7.994 0 0020 1z" fill="#788b9c"></path><path d="M31.998 26l-.998.002H7c-2.757 0-5-2.243-5-5V21H1v.002c0 3.308 2.692 6 6 6h24L32 27c3.86 0 7-3.14 7-7h-1c0 3.308-2.692 6-6.002 6z" fill="#e1ebf2"></path><g><path fill="#ffeea3" d="M19.77 29.5h-5.02l4.583-11h6.813l-4.5 8h4.276L15.771 38.497z"></path><path d="M25.29 19l-3.662 6.51L20.79 27h4.054l-7.196 8.504 2.266-5.098.625-1.406H15.5l4.167-10h5.623M27 18h-8l-5 12h5l-4 9h1l11-13h-4.5l4.5-8z" fill="#c29653"></path></g></svg>