<svg viewBox="0 0 40 40" xmlns="http://www.w3.org/2000/svg"><path d="M20 38.5C9.799 38.5 1.5 30.201 1.5 20S9.799 1.5 20 1.5 38.5 9.799 38.5 20 30.201 38.5 20 38.5zm0-24c-3.032 0-5.5 2.467-5.5 5.5s2.468 5.5 5.5 5.5 5.5-2.467 5.5-5.5-2.468-5.5-5.5-5.5z" fill="#8bb7f0"></path><path d="M20 2c9.925 0 18 8.075 18 18s-8.075 18-18 18S2 29.925 2 20 10.075 2 20 2m0 24c3.308 0 6-2.692 6-6s-2.692-6-6-6-6 2.692-6 6 2.692 6 6 6m0-25C9.507 1 1 9.507 1 20s8.507 19 19 19 19-8.507 19-19S30.493 1 20 1zm0 24a5 5 0 11.001-10.001A5 5 0 0120 25z" fill="#4e7ab5"></path><g><path d="M24.227 23.52A5.46 5.46 0 0025.5 20c0-2.864-2.2-5.224-5-5.478V1.507c9.971.266 18 8.46 18 18.493 0 .63-.032 1.267-.095 1.892a18.52 18.52 0 01-4.976 10.831l-9.202-9.203z" fill="#f78f8f"></path><path d="M21 2.027C30.462 2.548 38 10.41 38 20a18.008 18.008 0 01-4.585 12.001l-8.524-8.524A5.95 5.95 0 0026 20a6.01 6.01 0 00-5-5.917V2.027M20 1v14a5 5 0 013.536 8.536l9.899 9.899A18.939 18.939 0 0039 20C39 9.507 30.493 1 20 1z" fill="#c74343"></path></g></svg>