<svg viewBox="0 0 40 40" xmlns="http://www.w3.org/2000/svg"><path d="M30.953 18.691c-2.407-.001-4.768-1.151-6.83-3.327-3.374-3.56-2.585-5.375-1.494-7.889.676-1.555 1.433-3.297 1.3-5.695 1.261.624 3.714 2.312 3.714 6.006v.5h.5c.593 0 1.447-.533 2.286-1.426 1.229-1.31 2.021-2.957 2.237-4.59 2.787 3.608 1.877 7.9-.321 10.551l-.268.322.271.32c.828.978 2.685 1.501 5.664 1.593-1.874 2.292-4.454 3.635-7.059 3.635z" fill="#bae0bd"></path><path d="M24.437 2.659c1.186.794 2.706 2.354 2.706 5.127v1h1c1.05 0 2.203-1.108 2.651-1.584.551-.587 1.599-1.877 2.122-3.656 1.799 3.168.92 6.696-.955 8.956l-.535.645.541.64c.813.961 2.448 1.527 4.974 1.715-1.693 1.709-3.834 2.69-5.986 2.69-2.266 0-4.502-1.096-6.467-3.171-3.146-3.32-2.451-4.921-1.398-7.344.581-1.343 1.276-2.942 1.347-5.018M32.214 1c.237 3.758-3.017 6.786-4.071 6.786C28.143 2.472 23.352 1 23.352 1c.924 6.78-5.589 8.381.408 14.708 2.338 2.468 4.84 3.483 7.193 3.483 3.236 0 6.189-1.919 8.047-4.619-3.294 0-5.464-.476-6.271-1.431C35.246 10.107 36.171 4.99 32.214 1z" fill="#5e9c76"></path><path d="M10.707 38.5c-3.388 0-6.006-.745-7.371-2.099C2.135 35.212 1.5 32.954 1.5 29.873c0-7.189 3.354-16.362 7.478-20.446 1.987-1.97 3.938-2.927 5.963-2.927 3.808 0 7.544 3.39 11.355 7.167 2.787 2.76 5.601 5.701 6.706 8.642 1.125 2.995.353 5.697-2.43 8.505-5.238 5.28-13.969 7.686-19.865 7.686z" fill="#f78f8f"></path><path d="M14.941 7c3.618 0 7.269 3.321 11.003 7.022 2.748 2.722 5.52 5.617 6.589 8.462 1.048 2.79.312 5.325-2.317 7.977C25.08 35.641 16.502 38 10.706 38c-3.255 0-5.748-.694-7.019-1.953C2.599 34.968 2 32.775 2 29.872c.001-7.074 3.289-16.087 7.329-20.09C11.218 7.91 13.053 7 14.941 7m0-1c-2.041 0-4.125.9-6.315 3.071-6.385 6.325-10.167 23.202-5.642 27.686C4.515 38.274 7.342 39 10.706 39c6.573 0 15.199-2.771 20.22-7.835 6.327-6.382 1.88-11.754-4.279-17.853C22.602 9.302 18.849 6 14.941 6z" fill="#c74343"></path><path d="M23.823 16.205c.306.33.335.811-.284 1.362-.622.558-1.747.963-1.965.746-.218-.218.187-1.476.811-2.032.619-.555 1.133-.411 1.438-.076zM14.374 25.494c.306.33.335.811-.284 1.362-.622.558-1.747.963-1.965.746-.218-.218.187-1.476.811-2.032.619-.555 1.134-.411 1.438-.076zM8.672 21.163c.358.272.47.741-.045 1.391-.517.657-1.555 1.25-1.807 1.073-.252-.177-.07-1.487.448-2.142.514-.652 1.046-.599 1.404-.322zM18.725 31.364c.222.391.14.866-.588 1.261-.734.401-1.921.538-2.083.276-.162-.262.52-1.394 1.254-1.793.729-.398 1.197-.14 1.417.256zM28.53 21.46c.306.33.335.811-.284 1.362-.622.558-1.747.963-1.965.746-.218-.218.187-1.476.811-2.032.619-.555 1.134-.411 1.438-.076zM22.091 23.854c.306.33.335.811-.284 1.362-.622.558-1.747.963-1.965.746-.218-.218.187-1.476.811-2.032.619-.556 1.133-.411 1.438-.076zM16.022 18.431c.306.33.335.811-.284 1.362-.622.558-1.747.963-1.965.746-.218-.218.187-1.476.811-2.032.618-.555 1.133-.411 1.438-.076zM7.299 29.005c.313.227.4.658-.08 1.309-.482.658-1.429 1.296-1.65 1.15-.221-.146-.02-1.389.463-2.045.479-.654.954-.646 1.267-.414zM11.84 33.447c.137.362-.027.77-.785 1.05-.764.285-1.906.3-2.011.056-.104-.243.745-1.173 1.509-1.456.76-.283 1.153-.016 1.287.35zM10.322 14.392c.236.26.209.685-.402 1.244-.615.565-1.661 1.049-1.831.88-.17-.17.329-1.335.945-1.898.611-.562 1.053-.491 1.288-.226zM25.287 29.916c.198.29.114.707-.567 1.178-.686.477-1.788.815-1.933.624-.145-.191.507-1.278 1.193-1.753.682-.474 1.111-.343 1.307-.049zM18.595 11.315c.306.33.335.811-.284 1.362-.622.558-1.747.963-1.965.746-.218-.218.187-1.476.811-2.032.619-.556 1.133-.411 1.438-.076z" fill="#ffeea3"></path><g><path d="M12.615 8.75c.206.229.169.614-.4 1.136-.573.529-1.532.997-1.681.848-.149-.149.336-1.216.909-1.744.57-.524.968-.472 1.172-.24z" fill="#ffeea3"></path></g><g><path d="M31.565 26.132c.239.263.214.691-.397 1.249-.616.565-1.665 1.046-1.837.874-.172-.172.323-1.341.939-1.904.613-.562 1.058-.487 1.295-.219z" fill="#ffeea3"></path></g></svg>