<svg viewBox="0 0 40 40" xmlns="http://www.w3.org/2000/svg"><path fill="#36404d" d="M0 11h40v1H0zM0 29h40v1H0z"></path><path fill="#fff" d="M3.5 11.5h33v18h-33z"></path><path d="M36 12v17H4V12h32m1-1H3v19h34V11z" fill="#788b9c"></path><circle cx="10.5" cy="20.5" r="3" fill="#f5ce85"></circle><path d="M10.5 18c1.379 0 2.5 1.121 2.5 2.5S11.878 23 10.5 23 8 21.879 8 20.5 9.121 18 10.5 18m0-1a3.5 3.5 0 100 7 3.5 3.5 0 000-7z" fill="#967a44"></path><path d="M22 25.5c-.827 0-1.5-.673-1.5-1.5v-1.5h5V24c0 .827-.673 1.5-1.5 1.5h-2z" fill="#f5ce85"></path><path d="M25 23v1c0 .551-.449 1-1 1h-2c-.551 0-1-.449-1-1v-1h4m1-1h-6v2a2 2 0 002 2h2a2 2 0 002-2v-2z" fill="#967a44"></path><path d="M19.5 18.5v-2.406c0-.327.267-.594.594-.594H24c.827 0 1.5.673 1.5 1.5v1.5h-6z" fill="#f5ce85"></path><path d="M24 16c.551 0 1 .449 1 1v1h-5v-1.906c0-.052.042-.094.094-.094H24m0-1h-3.906C19.49 15 19 15.49 19 16.094V19h7v-2a2 2 0 00-2-2z" fill="#967a44"></path><g><path d="M20 25.5a4.505 4.505 0 01-4.5-4.5v-1c0-.123.014-.254.04-.388.231-2.364 2.146-4.112 4.46-4.112h3.5v2h7.654c.742 0 1.346.673 1.346 1.5v3c0 .827-.604 1.5-1.346 1.5H23.5v2H20z" fill="#c2e8ff"></path><path d="M23 16v2h8.154c.466 0 .846.449.846 1v3c0 .551-.38 1-.846 1H23v2h-3c-2.206 0-4-1.794-4-4v-1c0-.089.01-.187.031-.292l.009-.046.005-.046A3.97 3.97 0 0120 16h3m1-1h-4c-2.597 0-4.706 1.987-4.952 4.519A2.554 2.554 0 0015 20v1a5 5 0 005 5h4v-2h7.154C32.173 24 33 23.105 33 22v-3c0-1.105-.827-2-1.846-2H24v-2z" fill="#7496c4"></path></g><path fill="#7496c4" d="M20 23h5v1h-5zM20 17h5v1h-5zM26 20h7v1h-7z"></path></svg>