<svg viewBox="0 0 40 40" xmlns="http://www.w3.org/2000/svg"><path d="M20 38.5c-10.313 0-17.5-2.635-17.5-5s7.187-5 17.5-5 17.5 2.635 17.5 5-7.187 5-17.5 5z" fill="#e1ebf2"></path><path d="M20 29c10.378 0 17 2.665 17 4.5S30.378 38 20 38 3 35.335 3 33.5 9.622 29 20 29m0-1c-9.941 0-18 2.462-18 5.5S10.059 39 20 39s18-2.462 18-5.5S29.941 28 20 28z" fill="#a3b7cc"></path><path d="M20 8.5c-1.93 0-3.5-1.57-3.5-3.5s1.57-3.5 3.5-3.5 3.5 1.57 3.5 3.5-1.57 3.5-3.5 3.5z" fill="#ffeea3"></path><path d="M20 2c1.654 0 3 1.346 3 3s-1.346 3-3 3-3-1.346-3-3 1.346-3 3-3m0-1a4 4 0 100 8 4 4 0 000-8z" fill="#ba9b48"></path><g><path d="M16.5 33.5v-9.768l-3-2V16c0-3.084 2.551-5.5 5.808-5.5h1.385c3.257 0 5.808 2.416 5.808 5.5v5.732l-3 2V33.5H16.5z" fill="#8bb7f0"></path><path d="M20.692 11C23.669 11 26 13.196 26 16v5.465l-2.555 1.703-.445.297V33h-6v-9.535l-.445-.297L14 21.465V16c0-2.804 2.331-5 5.308-5h1.384m0-1h-1.384C15.867 10 13 12.559 13 16v6l3 2v10h8V24l3-2v-6c0-3.441-2.867-6-6.308-6z" fill="#4e7ab5"></path></g></svg>