<svg viewBox="0 0 40 40" xmlns="http://www.w3.org/2000/svg"><path fill="#b0c1d4" d="M11.5 37.5v-2.077l4-.666V5.5H4.973l-1.333 4H2.5v-7h33v7h-1.14l-1.333-4H22.5v29.257l4 .666V37.5z"></path><path d="M35 3v6h-.279l-1.105-3.316L33.387 5H22v30.18l.836.139 3.164.528V37H12v-1.153l3.164-.527.836-.14V5H4.613l-.228.684L3.279 9H3V3h32m1-1H2v8h2l1.333-4H15v28.333L11 35v3h16v-3l-4-.667V6h9.667L34 10h2V2z" fill="#66798f"></path><path fill="#66798f" d="M6 21h26v1H6z"></path><path fill="#b0c1d4" d="M15 20h8v1h-8z"></path></svg>