<svg viewBox="0 0 40 40" xmlns="http://www.w3.org/2000/svg"><path fill="#e1ebf2" d="M19.468 10.648l2.4-7.116 15.256 5.147-2.402 7.116z"></path><path d="M22.182 4.164L36.49 8.992l-2.082 6.169L20.1 10.333l2.082-6.169m-.628-1.267l-2.721 8.064 16.203 5.467 2.721-8.064-16.203-5.467z" fill="#788b9c"></path><path fill="none" stroke="#788b9c" stroke-miterlimit="10" d="M27.033 13.026l-2.43 7.201"></path><path fill="#fff" d="M5.665 4.989l15.738-3.394 1.583 7.342-15.738 3.394z"></path><path d="M21.02 2.188l1.373 6.365-14.76 3.184L6.26 5.372l14.76-3.184M21.787 1L5.071 4.605l1.794 8.32L23.581 9.32 21.787 1z" fill="#788b9c"></path><path fill="none" stroke="#788b9c" stroke-miterlimit="10" d="M14.965 10.497l1.603 7.43"></path><circle cx="33.5" cy="22.5" r="4" fill="#ffeea3"></circle><path d="M33.5 19c1.93 0 3.5 1.57 3.5 3.5S35.43 26 33.5 26 30 24.43 30 22.5s1.57-3.5 3.5-3.5m0-1a4.5 4.5 0 100 9 4.5 4.5 0 000-9z" fill="#ba9b48"></path><g><path d="M27.5 38.5v-6.875l-3.959-3.496a1.932 1.932 0 01-.578-.907l-1.555-5.286a1.95 1.95 0 01.207-1.563c.29-.474.753-.792 1.305-.896.094-.018.189-.026.284-.026.854 0 1.719.668 1.971 1.522l1.358 4.615 3.299 2.913H35c1.93 0 3.5 1.57 3.5 3.5v6.5h-11z" fill="#bae0bd"></path><path d="M23.204 19.95c.622 0 1.305.533 1.491 1.164l1.317 4.477.081.277.216.191 3.049 2.692.284.249H35c1.654 0 3 1.346 3 3v6H28v-6.601l-.338-.299-3.79-3.346a1.44 1.44 0 01-.429-.674l-1.556-5.286a1.425 1.425 0 01.154-1.161c.215-.352.56-.588.971-.666.062-.011.126-.017.192-.017m0-1c-.126 0-.252.011-.377.035a2.443 2.443 0 00-1.899 3.092l1.556 5.286c.13.441.382.837.726 1.141L27 31.85V39h12v-7a4 4 0 00-4-4h-4.98l-3.049-2.692-1.317-4.477c-.309-1.048-1.371-1.881-2.45-1.881z" fill="#5e9c76"></path></g><g><circle cx="6.5" cy="19.5" r="4" fill="#ffeea3"></circle><path d="M6.5 16c1.93 0 3.5 1.57 3.5 3.5S8.43 23 6.5 23 3 21.43 3 19.5 4.57 16 6.5 16m0-1a4.5 4.5 0 100 9 4.5 4.5 0 000-9z" fill="#ba9b48"></path></g><g><path d="M1.5 38.5V29c0-1.93 1.57-3.5 3.5-3.5h5.168l3.299-2.913 1.358-4.615c.251-.854 1.117-1.522 1.971-1.522.095 0 .19.008.284.026a1.93 1.93 0 011.305.896 1.95 1.95 0 01.207 1.563l-1.555 5.286a1.94 1.94 0 01-.578.907L12.5 28.625V38.5h-11z" fill="#8bb7f0"></path><path d="M16.796 16.95c.065 0 .13.006.192.018.411.078.756.314.971.666.216.353.27.765.154 1.161l-1.556 5.286a1.44 1.44 0 01-.429.674l-3.79 3.346-.338.298V38H2v-9c0-1.654 1.346-3 3-3H10.358l.284-.25 3.049-2.692.216-.191.081-.277 1.317-4.477c.186-.63.869-1.163 1.491-1.163m0-1c-1.08 0-2.142.833-2.45 1.881l-1.317 4.477L9.98 25H5a4 4 0 00-4 4v10h12V28.85l3.79-3.346c.345-.304.597-.7.726-1.141l1.556-5.286a2.444 2.444 0 00-1.899-3.092 1.996 1.996 0 00-.377-.035z" fill="#4e7ab5"></path></g></svg>