<svg viewBox="0 0 40 40" xmlns="http://www.w3.org/2000/svg"><path fill="#8bb7f0" d="M2.5 2.5h35v35h-35z"></path><path d="M37 3v34H3V3h34m1-1H2v36h36V2z" fill="#4e7ab5"></path><g><path d="M19.777 29.5c-2.558 0-5.078-.783-6.44-1.558l-.302-.171.839-5.23.631.371c1.419.834 3.654 1.513 4.982 1.513.575 0 1.26-.114 1.26-.659 0-.41-.376-.799-2.252-1.467-3.115-1.13-5.188-2.563-5.188-5.884 0-1.826.671-3.346 1.941-4.396 1.212-.994 2.893-1.518 4.863-1.518 2.591 0 4.539.668 5.717 1.229l.339.162-.836 5.157-.606-.297c-.894-.438-2.647-1.174-4.346-1.174-.614 0-.926.162-.926.48 0 .461 1.053.915 2.19 1.335 3.163 1.131 5.272 2.577 5.272 5.949 0 2.027-.701 3.606-2.084 4.692-1.197.958-2.946 1.466-5.054 1.466z" fill="#fff"></path><path d="M20.111 11c2.651 0 4.567.735 5.502 1.181l-.668 4.121c-1.181-.579-2.896-1.225-4.567-1.225-.913 0-1.426.356-1.426.98 0 .735.891 1.203 2.517 1.804 3.052 1.092 4.946 2.384 4.946 5.48 0 1.871-.646 3.319-1.894 4.299-1.113.892-2.761 1.36-4.744 1.36-2.495 0-4.901-.757-6.193-1.493l.668-4.166c1.515.891 3.832 1.582 5.235 1.582 1.136 0 1.76-.423 1.76-1.158 0-.757-.646-1.248-2.584-1.938-3.007-1.092-4.856-2.384-4.856-5.413 0-1.671.601-3.052 1.76-4.01C16.681 11.49 18.24 11 20.111 11m0-1c-2.087 0-3.878.564-5.179 1.63-1.392 1.151-2.126 2.804-2.126 4.783 0 3.824 2.651 5.314 5.515 6.353 1.833.653 1.925.946 1.925.998-.027.047-.249.158-.76.158-1.233 0-3.398-.661-4.728-1.444l-1.262-.743-.232 1.446-.668 4.166-.11.685.603.343c1.317.75 3.858 1.625 6.688 1.625 2.222 0 4.079-.546 5.37-1.578 1.482-1.164 2.269-2.923 2.269-5.08 0-3.881-2.696-5.38-5.609-6.422-1.107-.41-1.57-.665-1.759-.815.079-.016.188-.028.331-.028 1.598 0 3.271.704 4.126 1.123l1.212.594.216-1.332.668-4.121.12-.74-.677-.322C24.82 10.695 22.797 10 20.111 10z" fill="#4e7ab5"></path></g></svg>