<svg viewBox="0 0 40 40" xmlns="http://www.w3.org/2000/svg"><path d="M7.171 24.5a1 1 0 01-.971-.757l-1.7-6.805V16.5h31v.438l-1.701 6.804a1 1 0 01-.971.757H7.171z" fill="#b0c1d4"></path><path d="M34.969 17l-1.655 6.621a.5.5 0 01-.485.379H7.171a.5.5 0 01-.485-.379L5.031 17h29.938M36 16H4v1l1.716 6.864A1.5 1.5 0 007.171 25h25.658a1.5 1.5 0 001.455-1.136L36 17v-1zM10.464 33c1.378 0 2.5 1.122 2.5 2.5s-1.122 2.5-2.5 2.5-2.5-1.122-2.5-2.5 1.122-2.5 2.5-2.5m0-1a3.5 3.5 0 100 7 3.5 3.5 0 000-7z" fill="#66798f"></path><path d="M13.5 16.5v-3H36a.5.5 0 01.5.5v2a.5.5 0 01-.5.5H13.5z" fill="#f78f8f"></path><path d="M36 14v2H14v-2h22m0-1H13v4h23a1 1 0 001-1v-2a1 1 0 00-1-1z" fill="#c74343"></path><path fill="none" stroke="#66798f" stroke-linecap="square" stroke-miterlimit="10" d="M20.5 17.5v10"></path><path clip-rule="evenodd" fill="none" stroke="#66798f" stroke-linecap="round" stroke-linejoin="round" stroke-miterlimit="10" d="M29.357 34.25L20.5 27.5l-8 3h-2v5"></path><path fill="#f78f8f" d="M32.465 13h-2.132L25 17h2.132z"></path><path fill="none" stroke="#66798f" stroke-linecap="round" stroke-linejoin="round" stroke-miterlimit="10" d="M20.5 20.5l17-13"></path><path d="M4 16.5a.5.5 0 01-.5-.5v-2.894l4.007-9.004L19.68 1.5h.726l-1.95 11.267a4.492 4.492 0 01-4.434 3.733H4z" fill="#f78f8f"></path><path d="M19.812 2l-1.849 10.682A3.991 3.991 0 0114.022 16H4v-2.788l3.861-8.674L19.733 2h.079M21 1h-1.373L7.154 3.667 3 13v3a1 1 0 001 1h10.022a5.001 5.001 0 004.927-4.147L21 1z" fill="#c74343"></path><path d="M17.963 12.682L7.861 4.538 19.733 2h.079l-1.849 10.682z" fill="#fc9f9f"></path><g><path d="M29.5 31c1.93 0 3.5 1.57 3.5 3.5S31.43 38 29.5 38 26 36.43 26 34.5s1.57-3.5 3.5-3.5m0-1a4.5 4.5 0 100 9 4.5 4.5 0 000-9z" fill="#66798f"></path></g><g><path d="M29.5 32c1.379 0 2.5 1.122 2.5 2.5S30.879 37 29.5 37 27 35.878 27 34.5s1.121-2.5 2.5-2.5m0-1a3.5 3.5 0 100 7 3.5 3.5 0 000-7z" fill="#b0c1d4"></path></g><g><path d="M10.5 34c.827 0 1.5.673 1.5 1.5s-.673 1.5-1.5 1.5S9 36.327 9 35.5s.673-1.5 1.5-1.5m0-1a2.5 2.5 0 100 5 2.5 2.5 0 000-5z" fill="#b0c1d4"></path></g></svg>