<svg viewBox="0 0 40 40" xmlns="http://www.w3.org/2000/svg"><path fill="#dbf2ff" d="M17 37h2v2h-2z"></path><path fill="#dbf2ff" d="M3.5 38.5V13.286L19.998 3.58 36.5 13.286V38.5z"></path><path d="M19.998 4.16L36 13.572V38H4V13.572L19.998 4.16m0-1.16L3 13v26h34V13L19.998 3z" fill="#7496c4"></path><path fill="#dbf2ff" d="M17 37h2v2h-2zM21 37h2v2h-2zM25 37h2v2h-2zM29 37h2v2h-2zM33 37h2v2h-2zM3 31h2v2H3z"></path><path fill="#dbf2ff" d="M3 31h2v2H3zM3 35h2v2H3zM3 23h2v2H3z"></path><path fill="#dbf2ff" d="M3 23h2v2H3zM3 27h2v2H3zM3 19h2v2H3zM35 31h2v2h-2z"></path><path fill="#dbf2ff" d="M35 31h2v2h-2zM35 35h2v2h-2zM35 23h2v2h-2z"></path><path fill="#dbf2ff" d="M35 23h2v2h-2zM35 27h2v2h-2zM35 19h2v2h-2zM3 15h2v2H3zM35 15h2v2h-2zM5 37h2v2H5zM9 37h2v2H9zM13 37h2v2h-2z"></path><g><path fill="#f78f8f" d="M19.998 5.645L1.5 16.955v-4.059l18.498-11.31L38.5 12.896v4.059z"></path><path d="M19.998 2.172L38 13.176v2.887L20.519 5.378l-.522-.319-.522.319L2 16.063v-2.887L19.998 2.172m0-1.172L1 12.615v5.231L19.998 6.231 39 17.846v-5.231L19.998 1z" fill="#c74343"></path></g></svg>