<svg viewBox="0 0 40 40" xmlns="http://www.w3.org/2000/svg"><path fill="#b0c1d4" d="M.935 13.667L20 1.592l19.065 12.075L20 25.741z"></path><path d="M20 2.184l18.131 11.483L20 25.15 1.869 13.667 20 2.184M20 1L0 13.667l20 12.667 20-12.667L20 1z" fill="#66798f"></path><path d="M20 38.5c-1.268 0-2.445-.527-3.316-1.483l-.084-.093-.118-.042A10.515 10.515 0 019.5 27V16.5h21V27c0 4.424-2.806 8.396-6.982 9.882l-.118.042-.084.093c-.871.956-2.048 1.483-3.316 1.483z" fill="#f5ce85"></path><path d="M30 17v10c0 4.213-2.672 7.995-6.65 9.412l-.236.084-.168.185C22.171 37.531 21.125 38 20 38s-2.171-.469-2.946-1.319l-.168-.185-.236-.084A10.016 10.016 0 0110 27V17h20m1-1H9v11c0 4.78 3.055 8.837 7.315 10.354C17.229 38.358 18.534 39 20 39s2.771-.642 3.685-1.646C27.945 35.837 31 31.78 31 27V16z" fill="#967a44"></path><path d="M32 37.5c-2.786 0-5.358-1-6.593-1.566 1.599-1.12 5.093-4.142 5.093-9.148v-4.905c0-3.774-4.073-6.21-4.247-6.312l-.351-.206-.274.302c-.026.029-2.708 2.909-9.447 3.84-3.218.444-6.682 2.73-6.682 6.699l1 .083-1-.023v.522c0 5.073 3.832 8.21 5.622 9.399-1.338.494-3.9 1.315-6.121 1.315-3.726 0-6.264-1.708-7.22-2.48C3.266 33.732 7.5 29.171 7.5 19c0-4.785 9.711-5.5 15.5-5.5 5.393 0 9.5 3.666 9.5 5.5 0 10.231 4.284 14.786 5.747 16.042-.844.768-3.063 2.458-6.247 2.458z" fill="#a6714e"></path><path d="M23 14c5.199 0 9 3.508 9 5 0 9.551 3.703 14.294 5.497 16.031C36.516 35.818 34.609 37 32 37c-2.202 0-4.273-.65-5.606-1.186C28.211 34.353 31 31.364 31 26.786v-4.904c0-4.057-4.31-6.636-4.493-6.744l-.7-.404-.547.594c-.025.028-2.625 2.781-9.146 3.682C12.687 19.483 9 21.936 9 26.204V26.786c0 4.629 3.035 7.71 5.048 9.245C12.671 36.484 10.722 37 9 37a11.199 11.199 0 01-6.444-2.02C4.369 33.202 8 28.459 8 19c0-4.512 10.49-5 15-5m0-1c-7.434 0-16 1.099-16 6 0 11.947-6 16-6 16s2.925 3 8 3c3.303 0 7.246-1.719 7.246-1.719S10 33.035 10 26.786v-.522V26.204c0-3.678 3.242-5.788 6.25-6.204 7.038-.972 9.75-4 9.75-4s4 2.35 4 5.882v4.904c0 6.13-5.607 9.202-5.607 9.202S27.945 38 32 38c4.392 0 7-3 7-3s-6-4.053-6-16c0-2.168-4.312-6-10-6z" fill="#7a4f34"></path><circle cx="25.5" cy="25.5" r="1.5" fill="#36404d"></circle><circle cx="14.5" cy="25.5" r="1.5" fill="#36404d"></circle><g><path d="M32.5 21.185c-1.688-.795-6.12-2.542-12.5-2.542S9.187 20.389 7.5 21.185v-6.037C8.524 14.593 12.866 12.5 20 12.5c7.155 0 11.479 2.092 12.5 2.647v6.038z" fill="#b0c1d4"></path><path d="M20 13c6.528 0 10.668 1.778 12 2.451v4.965c-2.096-.886-6.287-2.273-12-2.273s-9.904 1.386-12 2.273v-4.965C9.335 14.777 13.474 13 20 13m0-1c-8.446 0-13 2.857-13 2.857V22s4.955-2.857 13-2.857S33 22 33 22v-7.143S28.446 12 20 12z" fill="#66798f"></path></g><path fill="#a16a4a" d="M4 22.7H3V11.867l1-.607z"></path><g><path d="M3.5 27.29c-.906-1.701-2-4.011-2-4.79 0-1.103.897-2 2-2s2 .897 2 2c0 .779-1.094 3.089-2 4.79z" fill="#ffc49c"></path><path d="M3.5 21c.827 0 1.5.673 1.5 1.5 0 .514-.681 2.096-1.5 3.709C2.681 24.596 2 23.014 2 22.5c0-.827.673-1.5 1.5-1.5m0-1C2.119 20 1 21.119 1 22.5s2.5 5.833 2.5 5.833S6 23.881 6 22.5 4.881 20 3.5 20z" fill="#a16a4a"></path></g></svg>