<svg viewBox="0 0 40 40" xmlns="http://www.w3.org/2000/svg"><path fill="#b0c1d4" d="M.935 13.667L20 1.592l19.065 12.075L20 25.741z"></path><path d="M20 2.184l18.131 11.483L20 25.15 1.869 13.667 20 2.184M20 1L0 13.667l20 12.667 20-12.667L20 1z" fill="#66798f"></path><path d="M29.1 27.5c-1.875 0-3.4-1.57-3.4-3.5s1.525-3.5 3.4-3.5c2.447 0 3.4.607 3.4 2.167 0 1.672-.71 4.833-3.4 4.833zm-18.2 0c-2.689 0-3.4-3.161-3.4-4.833 0-1.56.953-2.167 3.4-2.167 1.875 0 3.4 1.57 3.4 3.5s-1.526 3.5-3.4 3.5z" fill="#deb974"></path><path d="M29.1 21c2.678 0 2.9.788 2.9 1.667C32 24.165 31.394 27 29.1 27c-1.599 0-2.9-1.346-2.9-3s1.301-3 2.9-3m-18.2 0c1.599 0 2.9 1.346 2.9 3s-1.301 3-2.9 3C8.606 27 8 24.165 8 22.667 8 21.788 8.222 21 10.9 21m18.2-1c-2.154 0-3.9 1.791-3.9 4s1.746 4 3.9 4c2.903 0 3.9-3.124 3.9-5.333S31.254 20 29.1 20zm-18.2 0c-2.154 0-3.9.458-3.9 2.667C7 24.876 8.005 28 10.9 28c2.154 0 3.9-1.791 3.9-4s-1.746-4-3.9-4z" fill="#967a44"></path><path d="M20 38.5c-1.268 0-2.445-.526-3.316-1.483l-.084-.092-.118-.042A10.517 10.517 0 019.5 27V16.5h21V27c0 4.424-2.806 8.396-6.982 9.883l-.118.042-.084.092c-.871.957-2.048 1.483-3.316 1.483z" fill="#f5ce85"></path><path d="M30 17v10c0 4.213-2.672 7.995-6.65 9.412l-.236.084-.168.185C22.171 37.531 21.125 38 20 38s-2.171-.469-2.946-1.319l-.168-.185-.236-.084A10.016 10.016 0 0110 27V17h20m1-1H9v11c0 4.78 3.055 8.837 7.315 10.354C17.229 38.358 18.534 39 20 39s2.771-.642 3.685-1.646C27.945 35.837 31 31.78 31 27V16z" fill="#967a44"></path><path d="M30.5 25.5v-2.709c0-2.194-6.629-5.031-7.344-5.266l-.446-.146-.174.436c-.629 1.574-3.524 1.969-6.323 2.351-3.3.45-6.712.916-6.712 3.551V25.5H9.44c-.197-1.55-.85-6.845-.932-9.506l22.977.089c-.104 2.171-.744 7.797-.931 9.417H30.5z" fill="#a6714e"></path><path d="M9.029 16.496l21.926.085c-.083 1.238-.271 3.142-.459 4.905-1.698-2.319-7.12-4.415-7.185-4.436l-.892-.293-.348.872c-.521 1.304-3.393 1.695-5.927 2.041-2.597.354-5.463.745-6.618 2.335-.207-1.847-.42-3.983-.497-5.509M8 15.492C8 18.381 9 26 9 26h1v-2.284c0-4.234 11.467-1.878 13-5.716 1.439.473 7 3.192 7 4.791V26h1s1-8.494 1-10.415l-24-.093z" fill="#7a4f34"></path><circle cx="25.5" cy="25.5" r="1.5" fill="#36404d"></circle><circle cx="14.5" cy="25.5" r="1.5" fill="#36404d"></circle><g><path d="M31.5 20.516c-1.603-.756-5.673-2.349-11.5-2.349s-9.897 1.593-11.5 2.349v-5.559c.973-.529 4.964-2.457 11.5-2.457s10.527 1.928 11.5 2.457v5.559z" fill="#b0c1d4"></path><path d="M20 13c5.949 0 9.74 1.621 11 2.259v4.489c-1.977-.832-5.812-2.081-11-2.081s-9.023 1.25-11 2.081v-4.492C10.253 14.617 14.015 13 20 13m0-1c-7.797 0-12 2.667-12 2.667v6.667s4.574-2.667 12-2.667 12 2.667 12 2.667v-6.667S27.797 12 20 12z" fill="#66798f"></path></g><path fill="#a16a4a" d="M4 33.7H3V11.867l1-.607z"></path><g><path d="M3.5 37.29c-.906-1.701-2-4.011-2-4.79 0-1.103.897-2 2-2s2 .897 2 2c0 .779-1.094 3.089-2 4.79z" fill="#ffc49c"></path><path d="M3.5 31c.827 0 1.5.673 1.5 1.5 0 .514-.681 2.096-1.5 3.709C2.681 34.596 2 33.014 2 32.5c0-.827.673-1.5 1.5-1.5m0-1C2.119 30 1 31.119 1 32.5s2.5 5.833 2.5 5.833S6 33.881 6 32.5 4.881 30 3.5 30z" fill="#a16a4a"></path></g></svg>