<svg viewBox="0 0 40 40" xmlns="http://www.w3.org/2000/svg"><path fill="#8bb7f0" d="M3.775 38.5l3.915-7.427 1.719-7.575 2.703 2.921-1.598 5.752L7.032 38.5z"></path><path d="M9.687 24.534l1.869 2.02-1.508 5.427L6.737 38H4.604l3.498-6.636.061-.117.029-.128 1.495-6.585m-.555-2.072l-1.915 8.436L2.946 39h4.382l3.653-6.639 1.688-6.077-3.537-3.822z" fill="#4e7ab5"></path><path d="M7.222 22.5a2.673 2.673 0 01-2.649-3.054l1.093-7.647A2.687 2.687 0 018.314 9.5h1.627l4.327 1.029L11.762 22.5h-4.54z" fill="#bae0bd"></path><path d="M9.883 10l3.797.903L11.356 22H7.222a2.175 2.175 0 01-2.154-2.484l1.092-7.648A2.186 2.186 0 018.314 10h1.569M10 9H8.314a3.175 3.175 0 00-3.144 2.727l-1.092 7.648A3.175 3.175 0 007.222 23h4.946l2.69-12.845L10 9z" fill="#5e9c76"></path><path d="M18.217 38.5L9.861 24.975a6.204 6.204 0 01-.877-3.833l1.445-11.54 3.987.847 5.014 6.913 4.633 2.438-1.06 2.268-5.528-2.594-2.897-3.655-.746 7.01 7.58 15.671h-3.195z" fill="#8bb7f0"></path><path d="M10.857 10.204l3.267.694 4.832 6.663.137.189.207.109 4.108 2.162-.646 1.382-4.968-2.331-2.065-2.605-1.519-1.916-.259 2.432-.602 5.651-.03.284.124.257L20.614 38h-2.119l-8.207-13.285a5.69 5.69 0 01-.81-3.498l1.379-11.013M10 9L8.486 21.093a6.674 6.674 0 00.95 4.145L17.938 39h4.271l-7.865-16.26.602-5.651 2.211 2.789 6.088 2.857 1.473-3.154-4.952-2.606L14.708 10 10 9z" fill="#4e7ab5"></path><path fill="#8bb7f0" d="M20.995 38.5l3.24-6.145 1.426-6.284 2.6 2.591-1.121 4.691-2.762 5.147z"></path><path d="M25.949 27.063l1.761 1.755-1.041 4.355L24.079 38h-2.255l2.822-5.354.061-.117.029-.128 1.213-5.338m-.575-1.984l-1.612 7.102L20.167 39h4.511l2.933-5.468 1.201-5.026-3.438-3.427z" fill="#4e7ab5"></path><g><path d="M23.667 25.5a2.167 2.167 0 01-2.153-2.406l.741-6.667a2.163 2.163 0 012.153-1.927h1.504l2.849 1.311-1.995 9.689h-3.099z" fill="#bae0bd"></path><path d="M25.802 15l2.389 1.099L26.359 25h-2.692c-.48 0-.921-.197-1.242-.555a1.649 1.649 0 01-.415-1.296l.741-6.667A1.665 1.665 0 0124.408 15h1.394m.219-1h-1.613a2.666 2.666 0 00-2.65 2.372l-.741 6.667A2.667 2.667 0 0023.667 26h3.507l2.157-10.477L26.021 14z" fill="#5e9c76"></path></g><g><path d="M33.27 38.5l-7.347-11.148a5.146 5.146 0 01-.72-3.165l1.23-9.632 3.301.393 4.09 5.271 3.37 1.914a1.362 1.362 0 01-.674 2.548c-.215 0-.421-.05-.615-.147l-3.729-1.888-2.123-2.78-.487 4.66L36.089 38.5H33.27z" fill="#8bb7f0"></path><path d="M26.866 15.11l2.601.31 3.901 5.028.123.158.174.099 3.283 1.863a.864.864 0 01-.815 1.521l-3.628-1.837-1.289-1.689-1.528-2.001-.262 2.504-.342 3.27-.029.276.117.251L35.304 38h-1.766l-7.181-10.895a4.625 4.625 0 01-.66-2.84l1.169-9.155M26 14l-1.295 10.138a5.618 5.618 0 00.8 3.489L33 39h3.875l-6.797-14.561.342-3.27 1.428 1.87 3.832 1.94a1.86 1.86 0 002.475-.768 1.863 1.863 0 00-.714-2.515l-3.283-1.863-4.157-5.358L26 14z" fill="#4e7ab5"></path></g><g><circle cx="30" cy="9" r="3.5" fill="#ffeea3"></circle><path d="M30 6c1.654 0 3 1.346 3 3s-1.346 3-3 3-3-1.346-3-3 1.346-3 3-3m0-1a4 4 0 100 8 4 4 0 000-8z" fill="#ba9b48"></path></g><g><circle cx="14" cy="5" r="3.5" fill="#ffeea3"></circle><path d="M14 2c1.654 0 3 1.346 3 3s-1.346 3-3 3-3-1.346-3-3 1.346-3 3-3m0-1a4 4 0 100 8 4 4 0 000-8z" fill="#ba9b48"></path></g></svg>