<svg viewBox="0 0 40 40" xmlns="http://www.w3.org/2000/svg"><path d="M5.407 6.087h-.006A.995.995 0 005 6c-.55 0-1 .45-1 1v3h4V7l-2.593-.913z" fill="#66798f"></path><path d="M24.742 33.288c-3.384-3.582-5.242-8.524-5.242-13.979v-1.5h5v1.5c0 4.063 1.354 7.733 3.824 10.398l-3.582 3.581z" fill="#e1ebf2"></path><path d="M24 18.308v1c0 4.011 1.284 7.656 3.636 10.38l-2.878 2.877C21.682 29.111 20 24.445 20 19.308v-1h4m1-1h-6v2c0 5.659 1.93 10.884 5.737 14.692l4.287-4.286C26.358 27.048 25 23.358 25 19.308v-2z" fill="#788b9c"></path><path d="M24.646 28.958C22.917 26.188 22 23.417 22 20v-3.625" fill="none" stroke="#66798f" stroke-width="2" stroke-linecap="round" stroke-miterlimit="10"></path><path d="M15.331 19l-1.974 3.69-.026.049-.021.051A.332.332 0 0113 23H7.721L7 20.838V19h8.331M17 18H6v3l1 3h6c.545 0 1.035-.332 1.238-.838L17 18z" fill="#66798f"></path><path d="M10.038 18.32a.5.5 0 01.663.245l1.253 2.726a.5.5 0 01-.908.418l-1.253-2.726a.499.499 0 01.245-.663z" fill="#66798f"></path><path d="M6.025 33.486a.502.502 0 01-.167-.029c-.763-.284-2.03-.759-2.157-.815L.863 31.564a.503.503 0 01-.291-.646l3.794-10.457c.326-1.423-.071-2.285-.457-2.77-.526-.657-1.369-1.058-2.409-1.155v-6.522C1.5 9.179 2.173 8.5 3 8.5h34.5v5.014h-16v5H9.642L5.033 32.099l1.162.418c.26.094.395.38.302.64a.502.502 0 01-.472.329z" fill="#e1ebf2"></path><path d="M37 9v4.013H21v5H9.283l-.23.679-4.335 12.781-.308.907a27.126 27.126 0 01-.462-.178l-.017-.01-.091-.034-2.796-1.074 3.791-10.452.021-.059.014-.061c.352-1.557-.117-2.563-.572-3.132-.53-.665-1.327-1.105-2.298-1.28v-6.086C2 9.464 2.458 9 3 9h34m1-1H3c-1.1 0-2 .913-2 2.013v7c1.917 0 3.396 1.063 2.895 3.277L.104 30.742a1.004 1.004 0 00.581 1.289l2.801 1.062c.058.036 2.203.835 2.203.835a1.004 1.004 0 001.279-.602 1.002 1.002 0 00-.603-1.279l-.7-.252L10 19.013h12v-5h16V8z" fill="#788b9c"></path><path d="M6.762 17.818c-.283-.283-.979-1.47-.696-1.753.283-.283 1.438.445 1.721.728s.283.742 0 1.025-.742.283-1.025 0z" fill="#66798f"></path><g><path d="M32 23.5c-.827 0-1.5-.673-1.5-1.5v-2c0-.393.048-.786.145-1.17l.812-3.473a1.486 1.486 0 00-.273-1.279A1.497 1.497 0 0030 13.5h-3a2.503 2.503 0 00-2.5 2.5v2.5h-5v-5h-18v-1h-1v-1h1v-1h36v-4 3h2v3h-2V15c0-.827-.673-1.5-1.5-1.5s-1.5.673-1.5 1.5v.055l.94 4.23c.033.216.06.464.06.715v2c0 .827-.673 1.5-1.5 1.5h-2z" fill="#b6c9d6"></path><path d="M39 10v2h-2v1.268A2.002 2.002 0 0034 15v.11l.024.107.921 4.145c.037.247.055.451.055.638v2c0 .551-.449 1-1 1h-2c-.551 0-1-.449-1-1v-2c0-.353.043-.705.133-1.063l.807-3.451a1.987 1.987 0 00-.363-1.717A1.992 1.992 0 0030 13h-3c-1.654 0-3 1.346-3 3v2h-4v-5H2v-2h36v-1h1m-1.5-4a.5.5 0 00-.5.5V10H1v1H0v2h1v1h18v5h6v-3a2 2 0 012-2h3a1 1 0 01.97 1.243l-.811 3.466A5.357 5.357 0 0030 20v2a2 2 0 002 2h2a2 2 0 002-2v-2c0-.276-.029-.551-.072-.823L35 15a1 1 0 012 0v1h1v-3h2V9h-2V6.5a.5.5 0 00-.5-.5z" fill="#788b9c"></path></g><path fill="#36404d" d="M16 9h4v2h-4z"></path></svg>