<svg viewBox="0 0 40 40" xmlns="http://www.w3.org/2000/svg"><path fill="#fff" d="M2.5 1.5h29v37h-29z"></path><path d="M31 2v36H3V2h28m1-1H2v38h30V1z" fill="#788b9c"></path><path fill="none" stroke="#c5d4de" stroke-miterlimit="10" d="M20 11.5h6M20 15.5h6M20 19.5h6M8 23.5h18M8 27.5h18M8 31.5h18"></path><circle cx="13" cy="11" r="2.5" fill="#ffeea3"></circle><path d="M13 9c1.103 0 2 .897 2 2s-.897 2-2 2-2-.897-2-2 .897-2 2-2m0-1a3 3 0 100 6 3 3 0 000-6z" fill="#ba9b48"></path><path d="M8.528 19.5c.25-2.247 2.16-4 4.472-4a4.506 4.506 0 014.472 4H8.528z" fill="#c2e8ff"></path><path d="M13 16a4.007 4.007 0 013.873 3H9.127A4.007 4.007 0 0113 16m0-1a5 5 0 00-5 5h10a5 5 0 00-5-5z" fill="#7496c4"></path><path fill="#d6e3ed" d="M32 14.143l-1-1v17.714l1-1z"></path><g><path fill="#c2e8ff" d="M30.5 24.5h-7v-5h7v-4.387L38.247 22 30.5 28.887z"></path><path d="M31 16.227L37.495 22 31 27.773V24h-7v-4h7v-3.773M30 14v5h-7v6h7v5l9-8-9-8z" fill="#7496c4"></path></g></svg>