<svg viewBox="0 0 40 40" xmlns="http://www.w3.org/2000/svg"><path d="M30.306 36.125h6.672V39H26.509v-1.185c0-5.73 6.957-6.468 6.957-10.008 0-1.854-1.533-2.041-2.316-2.041-1.353 0-2.648.538-3.885 1.613v-3.051C28.634 23.443 30.178 23 31.897 23 36.782 23 37 26.786 37 27.466c0 5.13-6.694 6.492-6.694 8.659z" fill="#66798f"></path><path fill="#b0c1d4" d="M9.5 34.5v-1.57l3-.75V7.5H4.528l-.9 3H2.5v-5h25v5h-1.128l-.9-3H17.5v24.68l3 .75v1.57z"></path><path d="M27 6v4h-.256l-.686-2.287L25.844 7H17V32.571l.757.189 2.243.56V34H10v-.68l2.243-.561.757-.189V7H4.156l-.214.713L3.256 10H3V6h24m1-1H2v6h2l.9-3H12v23.79l-3 .75V35h12v-2.46l-3-.75V8h7.1l.9 3h2V5z" fill="#66798f"></path></svg>