<svg viewBox="0 0 40 40" xmlns="http://www.w3.org/2000/svg"><path fill="#66798f" d="M6.771 40H9l5-7h-2.229zM28.229 33H26l5 7h2.229z"></path><path d="M10 35.5A4.505 4.505 0 015.5 31V9a4.511 4.511 0 013.6-4.409l.4-.082V4c0-1.378 1.122-2.5 2.5-2.5h16c1.378 0 2.5 1.122 2.5 2.5v.509l.4.082A4.511 4.511 0 0134.5 9v22c0 2.481-2.019 4.5-4.5 4.5H10z" fill="#8bb7f0"></path><path d="M28 2c1.103 0 2 .897 2 2V4.918l.801.163A4.009 4.009 0 0134 9v22c0 2.206-1.794 4-4 4H10c-2.206 0-4-1.794-4-4V9a4.009 4.009 0 013.199-3.919L10 4.918V4c0-1.103.897-2 2-2h16m0-1H12a3 3 0 00-3 3v.101A5 5 0 005 9v22a5 5 0 005 5h20a5 5 0 005-5V9a5 5 0 00-4-4.899V4a3 3 0 00-3-3z" fill="#4e7ab5"></path><path fill="#c2e8ff" d="M5.5 9.5h29v14h-29z"></path><path d="M34 10v13H6V10h28m1-1H5v15h30V9z" fill="#4e7ab5"></path><path fill="#fff" d="M13 4.034h14V6H13zM9 28h6v3H9zM25 28h6v3h-6z"></path></svg>