<svg viewBox="0 0 40 40" xmlns="http://www.w3.org/2000/svg"><path fill="#c2e8ff" d="M10.5 17.599V7.401l9-3.857 9 3.857v10.198l-9 3.857z"></path><path d="M19.5 4.088L28 7.731v9.538l-8.5 3.643-8.5-3.643V7.731l8.5-3.643M19.5 3L10 7.071v10.857L19.5 22l9.5-4.071V7.071L19.5 3z" fill="#7496c4"></path><path d="M28 17.269l-8.5 3.643.073-13.078L28 7.731v9.538z" fill="#a4d6f5"></path><path d="M19.5 11.281L11 7.731l8.5-3.643L28 7.731l-8.5 3.55z" fill="#d6f0ff"></path><path fill="#c2e8ff" d="M19.5 31.599V21.401l9-3.857 9 3.857v10.198l-9 3.857z"></path><path d="M28.5 18.088l8.5 3.643v9.538l-8.5 3.643-8.5-3.643v-9.538l8.5-3.643m0-1.088L19 21.071v10.857L28.5 36l9.5-4.071V21.071L28.5 17z" fill="#7496c4"></path><path fill="#c2e8ff" d="M1.5 31.599V21.401l9-3.857 9 3.857v10.198l-9 3.857z"></path><path d="M10.5 18.088l8.5 3.643v9.538l-8.5 3.643L2 31.269v-9.538l8.5-3.643m0-1.088L1 21.071v10.857L10.5 36l9.5-4.071V21.071L10.5 17z" fill="#7496c4"></path><path d="M37 31.269l-8.5 3.643.073-13.078L37 21.731v9.538z" fill="#a4d6f5"></path><g><path d="M28.5 25.281l-8.5-3.55 8.5-3.643 8.5 3.643-8.5 3.55z" fill="#d6f0ff"></path></g><g><path d="M19 31.269l-8.5 3.643.073-13.078L19 21.731v9.538z" fill="#a4d6f5"></path></g><g><path d="M10.5 25.281L2 21.731l8.5-3.643 8.5 3.643-8.5 3.55z" fill="#d6f0ff"></path></g></svg>