<svg viewBox="0 0 40 40" xmlns="http://www.w3.org/2000/svg"><path d="M20 38.5c-5.238 0-9.5-4.441-9.5-9.9 0-6.071 5.569-13.084 7.75-15.597v2.916l.29.135c.11.05 10.96 5.158 10.96 12.546 0 5.459-4.262 9.9-9.5 9.9zm-2.146-17.773c-1.835 2.806-3.354 5.342-3.354 7.966 0 3.202 2.467 5.808 5.5 5.808s5.5-2.605 5.5-5.808c0-2.339-2.273-4.991-6.95-8.108l-.42-.279-.276.421z" fill="#f5ce85"></path><path d="M17.75 14.373V15.6l.001.639.579.269C18.437 16.557 29 21.536 29 28.6c0 5.183-4.037 9.4-9 9.4s-9-4.217-9-9.4c0-5.213 4.273-11.197 6.75-14.227M20 35c3.308 0 6-2.829 6-6.307 0-2.519-2.346-5.308-7.173-8.525l-.839-.559-.552.844C15.556 23.326 14 25.929 14 28.693 14 32.171 16.692 35 20 35m-1.25-23.3S10 20.8 10 28.6C10 34.344 14.477 39 20 39s10-4.656 10-10.4c0-7.8-11.25-13-11.25-13v-3.9zM20 34c-2.757 0-5-2.381-5-5.307 0-2.477 1.444-4.897 3.273-7.693C21.354 23.054 25 25.976 25 28.693 25 31.619 22.757 34 20 34z" fill="#967a44"></path><path fill="#f5ce85" d="M17.5.5h4v15h-4z"></path><path d="M21 1v14h-3V1h3m1-1h-5v16h5V0z" fill="#967a44"></path><path fill="#f5ce85" d="M18 0h3v2h-3z"></path><path d="M21.494 8.399c-.291 0-.573-.063-.838-.187l-4.079-1.901c-.482-.225-.848-.626-1.031-1.13s-.161-1.046.064-1.528A2.013 2.013 0 0117.429 2.5c.292 0 .573.063.838.187l4.079 1.901c.482.225.848.626 1.031 1.13s.161 1.046-.064 1.528a2.01 2.01 0 01-1.819 1.153z" fill="#d6aa70"></path><path d="M17.43 3c.218 0 .428.047.627.139l4.078 1.902c.75.35 1.075 1.244.726 1.993a1.51 1.51 0 01-1.994.726l-4.078-1.902a1.502 1.502 0 01-.726-1.993A1.51 1.51 0 0117.43 3m0-1c-.943 0-1.85.535-2.273 1.442a2.507 2.507 0 001.209 3.322l4.078 1.902a2.508 2.508 0 003.322-1.209 2.507 2.507 0 00-1.209-3.322L18.48 2.233A2.484 2.484 0 0017.43 2z" fill="#967a44"></path><g><path d="M21.494 12.832c-.291 0-.573-.063-.838-.187l-4.079-1.901c-.482-.225-.848-.626-1.031-1.13s-.161-1.046.064-1.528a2.013 2.013 0 011.819-1.153c.292 0 .573.063.838.187l4.079 1.901c.482.225.848.626 1.031 1.13s.161 1.046-.064 1.528a2.01 2.01 0 01-1.819 1.153z" fill="#f5ce85"></path><path d="M17.43 7.433c.218 0 .428.047.627.139l4.078 1.902c.75.35 1.075 1.244.726 1.993a1.51 1.51 0 01-1.994.726l-4.078-1.902a1.502 1.502 0 01-.726-1.993 1.51 1.51 0 011.367-.865m0-1c-.943 0-1.85.535-2.273 1.442a2.507 2.507 0 001.209 3.322l4.078 1.902a2.508 2.508 0 003.322-1.209 2.507 2.507 0 00-1.209-3.322L18.48 6.666a2.469 2.469 0 00-1.05-.233z" fill="#967a44"></path></g><g><path d="M21.494 17.267c-.291 0-.573-.063-.838-.187l-4.079-1.902c-.482-.225-.848-.626-1.031-1.13s-.161-1.046.064-1.528a2.013 2.013 0 011.82-1.153c.291 0 .573.063.838.187l4.079 1.902a2.003 2.003 0 01.967 2.658 2.015 2.015 0 01-1.82 1.153z" fill="#d6aa70"></path><path d="M17.43 11.867c.218 0 .428.047.627.139l4.078 1.902c.75.35 1.075 1.244.726 1.993a1.51 1.51 0 01-1.994.726l-4.078-1.902a1.502 1.502 0 01-.726-1.993 1.51 1.51 0 011.367-.865m0-1c-.943 0-1.85.535-2.273 1.442a2.507 2.507 0 001.209 3.322l4.078 1.902a2.508 2.508 0 003.322-1.209 2.507 2.507 0 00-1.209-3.322L18.48 11.1a2.469 2.469 0 00-1.05-.233z" fill="#967a44"></path></g></svg>