<svg viewBox="0 0 40 40" xmlns="http://www.w3.org/2000/svg"><path fill="#ffeea3" d="M16.986 35.149l-4.32 2.559-1.297-5.062-5.017 1.002 1.045-5.227-5.229-1.034 2.846-4.251L.833 20l4.018-3.014-2.559-4.32 5.062-1.297-1.002-5.017 5.227 1.045 1.034-5.229 4.251 2.846L20 .833l3.014 4.018 4.32-2.559 1.297 5.062 5.017-1.002-1.045 5.227 5.229 1.034-2.846 4.251L39.167 20l-4.018 3.014 2.559 4.32-5.062 1.297 1.002 5.017-5.227-1.045-1.034 5.229-4.251-2.846L20 39.167z"></path><path d="M20 1.667l2.344 3.126.538.717.772-.457 3.362-1.991L28.03 7.02l.235.918.93-.186 3.816-.763-.8 4.001-.197.983.983.194 4.003.792-2.166 3.234-.527.788.758.569L38.333 20l-3.126 2.344-.717.538.457.772 1.991 3.362-3.958 1.014-.918.235.186.93.763 3.816-4.001-.8-.983-.197-.194.983L27.041 37l-3.234-2.166-.788-.527-.569.758L20 38.333l-2.344-3.126-.538-.717-.772.457-3.362 1.991-1.014-3.958-.235-.918-.93.186-3.816.763.8-4.001.197-.983-.983-.194L3 27.041l2.166-3.234.527-.788-.758-.569L1.667 20l3.126-2.344.717-.538-.457-.772-1.991-3.362L7.02 11.97l.918-.235-.186-.93-.763-3.816 4.001.8.983.197.194-.983L12.959 3l3.234 2.166.788.527.569-.758L20 1.667M20 0l-3.251 4.335-4.48-3-1.083 5.474-5.472-1.095 1.057 5.287-5.249 1.345 2.67 4.509L0 20l4.335 3.251-3 4.48 5.474 1.083-1.094 5.471 5.287-1.057 1.345 5.249 4.509-2.67L20 40l3.251-4.335 4.48 3 1.083-5.474 5.471 1.094-1.057-5.287 5.249-1.345-2.67-4.509L40 20l-4.335-3.251 3-4.48-5.474-1.083 1.094-5.471-5.287 1.057-1.345-5.249-4.509 2.67L20 0z" fill="#ba9b48"></path><circle cx="20" cy="20" r="11" fill="#f5ce85"></circle></svg>