<svg viewBox="0 0 40 40" xmlns="http://www.w3.org/2000/svg"><path d="M17.845 33.57l-.248-.043c-.764-.135-1.53-.34-2.276-.612l-.236-.085-4.025 2.657.288-4.804-.191-.162a13.89 13.89 0 01-1.676-1.676l-.162-.192-4.804.288 2.657-4.024-.087-.237a13.616 13.616 0 01-.611-2.276l-.044-.248L2.118 20l4.312-2.156.044-.248c.135-.763.341-1.529.611-2.277l.086-.236-2.657-4.024 4.805.288.162-.192a13.731 13.731 0 011.675-1.675l.191-.162-.288-4.804 4.025 2.657.235-.085a13.709 13.709 0 012.277-.612l.248-.043L20 2.118l2.155 4.312.248.043c.762.134 1.528.34 2.277.612l.235.085 4.025-2.657-.288 4.804.191.162a13.874 13.874 0 011.675 1.675l.162.192 4.805-.288-2.657 4.024.086.236c.271.748.477 1.514.611 2.277l.044.248L37.882 20l-4.312 2.156-.044.248a13.785 13.785 0 01-.611 2.276l-.086.236 2.657 4.024-4.804-.288-.162.192a13.89 13.89 0 01-1.676 1.676l-.191.162.288 4.804-4.025-2.657-.236.085c-.746.271-1.513.477-2.276.612l-.248.043L20 37.882l-2.155-4.312z" fill="#ffeea3"></path><path d="M20 3.236l1.596 3.192.225.45.495.088c.736.13 1.474.328 2.193.589l.473.171.419-.277 2.98-1.968-.213 3.555-.03.502.384.324c.582.49 1.125 1.033 1.615 1.615l.324.384.501-.03 3.555-.213-1.968 2.98-.277.419.171.473c.261.719.459 1.457.589 2.193l.087.495.45.225L36.764 20l-3.192 1.596-.45.225-.087.495c-.13.736-.328 1.474-.589 2.193l-.171.472.277.419 1.968 2.98-3.555-.213-.502-.03-.324.384a13.317 13.317 0 01-1.615 1.615l-.384.324.03.501.213 3.555-2.98-1.968-.419-.277-.473.171c-.719.261-1.457.459-2.193.589l-.495.087-.225.45L20 36.764l-1.596-3.192-.225-.45-.495-.087a13.152 13.152 0 01-2.193-.589l-.473-.171-.419.277-2.98 1.968.213-3.555.03-.501-.384-.324a13.317 13.317 0 01-1.615-1.615l-.324-.384-.502.03-3.555.213 1.968-2.98.277-.419-.172-.475a13.152 13.152 0 01-.589-2.193l-.087-.495-.45-.225L3.236 20l3.192-1.596.45-.225.087-.495c.13-.736.328-1.474.589-2.193l.171-.473-.275-.42-1.968-2.98 3.555.213.501.03.324-.384a13.389 13.389 0 011.615-1.615l.384-.324-.03-.502-.213-3.555 2.98 1.968.419.277.473-.171a13.152 13.152 0 012.193-.589l.495-.088.225-.45L20 3.236M20 1l-2.491 4.981c-.814.144-1.601.358-2.36.634L10.5 3.545l.333 5.552a14.376 14.376 0 00-1.736 1.736L3.546 10.5l3.07 4.649a14.12 14.12 0 00-.634 2.36L1 20l4.981 2.491c.144.814.358 1.601.634 2.36L3.546 29.5l5.552-.333a14.376 14.376 0 001.736 1.736l-.334 5.551 4.649-3.07c.76.276 1.547.49 2.36.634L20 39l2.491-4.981a14.069 14.069 0 002.36-.634l4.649 3.07-.333-5.552a14.376 14.376 0 001.736-1.736l5.552.333-3.07-4.649c.276-.76.49-1.547.634-2.36L39 20l-4.981-2.491a14.069 14.069 0 00-.634-2.36l3.07-4.649-5.552.333a14.376 14.376 0 00-1.736-1.736l.333-5.552-4.649 3.07c-.76-.275-1.547-.49-2.36-.634L20 1z" fill="#ba9b48"></path><circle cx="20" cy="20" r="10" fill="#f5ce85"></circle></svg>