<svg viewBox="0 0 40 40" xmlns="http://www.w3.org/2000/svg"><path d="M37.5 17.5l-9-10s-2.659-3.221-4 2M2.5 17.5l8-10s2.27-3.277 4 2" fill="none" stroke="#bc9d36"></path><path d="M17.293 24c-1.415 3.713-5.205 6-9.196 6s-7.038-2.968-7.074-7.5c-.028-3.75-.671-7.434 7.251-7.499 10.118-.082 10.659 4.696 9.019 8.999z" fill="#fff09e"></path><path d="M8.533 16c4.035 0 6.748.842 7.845 2.435.84 1.219.834 2.972-.019 5.209C15.137 26.848 11.817 29 8.097 29c-3.546 0-6.044-2.676-6.074-6.507-.002-.257-.007-.514-.011-.769-.034-1.8-.063-3.354.884-4.326.88-.904 2.693-1.374 5.387-1.396L8.531 16h.002m-.002-1l-.257.001c-7.923.066-7.28 3.75-7.251 7.499.036 4.532 3.083 7.5 7.074 7.5 3.991 0 7.781-2.287 9.196-6 1.627-4.267 1.109-9-8.762-9z" fill="#bc9d36"></path><path d="M15.459 23.6c-1.082 2.723-3.98 4.4-7.032 4.4s-5.382-2.177-5.409-5.5c-.022-2.75-.513-5.451 5.545-5.5 7.736-.06 8.151 3.444 6.896 6.6z" fill="#c2afe3"></path><path d="M13 18s-5.45-.254-7.143 1.815C3.818 22.307 4.841 26 4.841 26s-1.161-.743-1.232-2.179c-.071-1.436-.391-3.355.422-4.613.813-1.258 1.94-1.547 2.725-1.618 3.863-.352 6.257.413 6.244.41z" fill-rule="evenodd" clip-rule="evenodd" fill="#d2c3ea"></path><path d="M22.707 24c1.415 3.713 5.205 6 9.196 6s7.038-2.968 7.074-7.5c.028-3.75.671-7.434-7.252-7.499-10.117-.082-10.658 4.696-9.018 8.999z" fill="#fff09e"></path><path d="M31.469 16l.248.001c2.695.022 4.507.492 5.387 1.396.946.972.918 2.527.884 4.326-.005.255-.01.512-.011.769-.03 3.832-2.528 6.508-6.074 6.508-3.72 0-7.04-2.152-8.261-5.356-.853-2.237-.859-3.99-.019-5.209C24.72 16.842 27.433 16 31.469 16m0-1c-9.87 0-10.388 4.733-8.761 9 1.415 3.713 5.205 6 9.196 6 3.991 0 7.038-2.968 7.074-7.5.028-3.75.671-7.434-7.251-7.499L31.469 15z" fill="#bc9d36"></path><path d="M8.76 17.748c3.145 0 5.24.638 6.058 1.844.598.881.579 2.136-.055 3.731-.934 2.349-3.48 3.928-6.337 3.928-2.722 0-4.638-1.956-4.661-4.757a35.296 35.296 0 00-.009-.565c-.025-1.296-.047-2.414.641-3.121.668-.686 2.071-1.043 4.171-1.06h.192M8.759 17l-.196.001c-6.058.048-5.567 2.75-5.545 5.5C3.045 25.823 5.375 28 8.427 28c3.052 0 5.95-1.677 7.032-4.4 1.244-3.129.848-6.6-6.7-6.6z" fill="#8c73a2"></path><path d="M24.541 23.6c1.082 2.723 3.98 4.4 7.032 4.4s5.382-2.177 5.409-5.5c.022-2.75.513-5.451-5.545-5.5-7.736-.06-8.151 3.444-6.896 6.6z" fill="#c2afe3"></path><path d="M34 18s-5.451-.262-7.095 2.001C25.007 22.614 27 26 27 26s-1.724-.993-2.112-2.413c-.382-1.397-.637-2.832 0-4.034.995-1.52 3.697-2.034 4.267-2.086 3.191-.295 4.639.349 4.845.533z" fill-rule="evenodd" clip-rule="evenodd" fill="#d2c3ea"></path><path d="M31.241 17.748l.19.001c2.1.017 3.503.373 4.171 1.06.688.707.666 1.826.641 3.121-.004.187-.007.376-.009.564-.023 2.801-1.939 4.757-4.661 4.757-2.856 0-5.403-1.578-6.337-3.928-.634-1.595-.653-2.85-.055-3.731.819-1.206 2.914-1.844 6.06-1.844m0-.748c-7.548 0-7.944 3.471-6.7 6.6 1.082 2.723 3.98 4.4 7.032 4.4s5.382-2.177 5.409-5.5c.022-2.75.513-5.451-5.545-5.5h-.196z" fill="#8c73a2"></path><path fill="none" stroke="#bc9d36" stroke-linecap="square" d="M8.5 15.5H31M17.2 18.5h5.3"></path><path d="M11 25.5s1.981-.466 2.5-2.5M33 26s1.994-1.006 2-3" fill="none" stroke="#fff" stroke-linejoin="round"></path></svg>