<svg viewBox="0 0 40 40" xmlns="http://www.w3.org/2000/svg"><path fill="#fff" d="M2.5 2.5h35v35h-35z"></path><path d="M37 3v34H3V3h34m1-1H2v36h36V2z" fill="#788b9c"></path><path fill="#f78f8f" d="M2.5 2.5h35v5h-35z"></path><path d="M37 3v4H3V3h34m1-1H2v6h36V2z" fill="#c74343"></path><path fill="#e1ebf2" d="M3 34h34v3H3z"></path><path d="M12.116 26.514V24.6c.172.156.376.297.613.422s.488.23.754.316.531.152.797.199.511.07.734.07c.781 0 1.363-.13 1.746-.391s.574-.638.574-1.133c0-.266-.063-.496-.191-.691s-.306-.374-.535-.535-.499-.316-.809-.465-.642-.304-.996-.465c-.38-.203-.734-.409-1.062-.617s-.613-.438-.855-.691-.433-.538-.57-.855-.207-.69-.207-1.117c0-.526.118-.983.355-1.371s.55-.708.938-.961.829-.44 1.324-.562 1-.184 1.516-.184c1.172 0 2.026.133 2.562.398v1.836c-.636-.458-1.453-.688-2.453-.688-.276 0-.551.026-.824.078s-.519.138-.734.258-.392.273-.527.461-.203.414-.203.68c0 .25.052.466.156.648s.257.349.457.5.445.298.734.441.624.298 1.004.465c.391.203.759.417 1.105.641s.651.472.914.742.472.571.625.902.23.707.23 1.129c0 .567-.114 1.047-.344 1.438s-.538.708-.926.953-.835.422-1.34.531-1.039.164-1.602.164c-.188 0-.418-.015-.691-.043s-.554-.07-.84-.125-.558-.121-.812-.199-.461-.167-.617-.265zM28.116 26.959h-1.812v-1.266h-.031c-.526.969-1.344 1.453-2.453 1.453-1.891 0-2.836-1.136-2.836-3.406v-4.781h1.812v4.594c0 1.438.555 2.156 1.664 2.156.536 0 .978-.198 1.324-.594s.52-.914.52-1.555v-4.602h1.812v8.001z" fill="#36404d"></path></svg>