<svg viewBox="0 0 40 40" xmlns="http://www.w3.org/2000/svg"><path d="M1 39h38l-4.981-2.491a14.069 14.069 0 00-.634-2.36l3.07-4.649-5.552.333a14.376 14.376 0 00-1.736-1.736l.333-5.552-4.649 3.07a14.12 14.12 0 00-2.36-.634L20 20l-2.491 4.981c-.814.144-1.601.358-2.36.634l-4.649-3.07.333 5.552a14.376 14.376 0 00-1.736 1.736L3.546 29.5l3.07 4.649a14.12 14.12 0 00-.634 2.36L1 39z" fill="#ffeea3"></path><path fill="#8bb7f0" d="M17.5 16.5v-8h-3.398L20 1.759 25.898 8.5H22.5v8z"></path><path d="M20 2.519L24.796 8H22v8h-4V8H15.204L20 2.519M20 1l-7 8h4v8h6V9h4l-7-8z" fill="#4e7ab5"></path><path d="M20 29c-5.523 0-10 4.477-10 10h20c0-5.523-4.477-10-10-10z" fill="#f5ce85"></path><path d="M1 39h2.236l3.192-1.596.45-.225.088-.495c.13-.736.328-1.474.589-2.193l.171-.472-.276-.421-1.968-2.98 3.555.213.501.03.323-.384a13.389 13.389 0 011.615-1.615l.384-.323-.03-.502-.213-3.555 2.98 1.968.419.277.472-.171a13.152 13.152 0 012.193-.589l.495-.088.225-.45L20 22.236l1.596 3.192.225.45.495.088c.736.13 1.474.328 2.193.589l.472.171.419-.277 2.98-1.968-.213 3.555-.03.502.384.323c.582.49 1.125 1.033 1.615 1.615l.323.384.501-.03 3.555-.213-1.968 2.98-.277.419.171.472c.261.719.459 1.457.589 2.193l.088.495.45.225L36.764 39H39l-4.981-2.491a14.069 14.069 0 00-.634-2.36l3.07-4.649-5.552.333a14.376 14.376 0 00-1.736-1.736l.333-5.552-4.649 3.07a14.12 14.12 0 00-2.36-.634L20 20l-2.491 4.981c-.814.144-1.601.358-2.36.634l-4.649-3.07.333 5.552a14.376 14.376 0 00-1.736 1.736L3.546 29.5l3.07 4.649a14.12 14.12 0 00-.634 2.36L1 39z" fill="#ba9b48"></path></svg>