<svg viewBox="0 0 40 40" xmlns="http://www.w3.org/2000/svg"><path d="M8 35.5a1.539 1.539 0 01-1.443-2.061l2.783-6.097 1.619-6.659c.287-.779 2.445-2.816 3.38-2.816l.001-.001c.404 1.067-1.047 7.596-1.547 8.972l-3.338 7.621A1.555 1.555 0 018 35.5z" fill="#ffeea3"></path><path d="M13.907 18.513c0 1.841-1.163 6.964-1.574 8.126l-3.336 7.619-.013.029-.011.03a1.037 1.037 0 01-1.327.62 1.037 1.037 0 01-.63-1.296l2.779-6.091.04-.087.022-.093 1.572-6.503c.26-.605 1.639-1.915 2.478-2.354m.432-1.146c-1.179 0-3.509 2.216-3.866 3.198l-1.588 6.569-2.798 6.133a2.036 2.036 0 003.826 1.392l3.35-7.65c.384-1.057 2.382-9.217 1.325-9.601a.711.711 0 00-.249-.041z" fill="#ba9b48"></path><path d="M9.736 25.574l.758-4.932c.279-.739 2.868-2.774 3.838-2.774.881.3 1.293 1.183 1.004 1.979l-2.388 6.564-3.212-.837z" fill="#9f99ce"></path><path d="M14.299 18.368c.502.214.755.788.567 1.307l-2.232 6.137-2.336-.608.671-4.359c.37-.706 2.568-2.426 3.33-2.477m.033-1.001c-1.237 0-3.975 2.216-4.332 3.198l-.827 5.378 4.09 1.065 2.543-6.992a2.036 2.036 0 00-1.217-2.609.766.766 0 00-.257-.04z" fill="#8b75a1"></path><path d="M19 35.5c-.835 0-1.464-.66-1.464-1.536l-.037-6.22-5.285-5.381c-.185-.235-.229-.791-.081-1.412.149-.625.463-1.203.801-1.472.014-.012.067-.032.171-.032 1.003 0 3.232 1.523 3.791 2.222l3.251 4.584c.234.294.354.635.354.982l.036 6.731A1.539 1.539 0 0119 35.5z" fill="#ffeea3"></path><path d="M13.16 19.95c.811.06 2.792 1.365 3.329 2.012l3.249 4.581.017.024.018.023c.146.182.227.412.227.651l.036 6.723c0 .571-.465 1.036-1.036 1.036-.55 0-.964-.445-.964-1.042L18 27.944l-.002-.405-.284-.289-5.091-5.183c-.072-.124-.128-.476-.003-.999.121-.513.35-.915.54-1.118m-.056-1.002c-.196 0-.361.043-.483.141-.878.702-1.466 2.747-.764 3.625L17 27.95l.036 6.014c0 1.125.839 2.036 1.964 2.036s2.036-.911 2.036-2.036L21 27.236c0-.463-.157-.911-.446-1.272l-3.268-4.607c-.605-.755-2.974-2.409-4.182-2.409z" fill="#ba9b48"></path><path d="M27.962 20.5c-.303 0-.597-.089-.85-.258l-11.328-6.798c-.685-.457-.875-1.412-.406-2.117a1.531 1.531 0 012.13-.427l11.328 6.798c.685.457.875 1.413.406 2.117a1.533 1.533 0 01-1.28.685z" fill="#ffeea3"></path><path d="M16.657 11.143c.204 0 .403.06.614.2l11.268 6.76c.23.153.387.387.441.658A1.036 1.036 0 0127.962 20c-.204 0-.402-.06-.613-.199l-11.268-6.76a1.038 1.038 0 01.576-1.898m0-1a2.035 2.035 0 00-1.129 3.73l11.308 6.785a2.034 2.034 0 002.822-.565 2.035 2.035 0 00-.565-2.823l-11.308-6.785a2.033 2.033 0 00-1.128-.342z" fill="#ba9b48"></path><circle cx="18.5" cy="4.5" r="3" fill="#ffeea3"></circle><path d="M18.5 2C19.878 2 21 3.122 21 4.5S19.878 7 18.5 7 16 5.879 16 4.5 17.122 2 18.5 2m0-1C16.575 1 15 2.575 15 4.5S16.575 8 18.5 8 22 6.425 22 4.5 20.425 1 18.5 1z" fill="#ba9b48"></path><g><path d="M10 38.5c-3.101 0-7.209-.687-8.5-.917V36.5H20c11.688 0 16.724-1.763 18.5-2.635v.923c-.731.691-4.121 3.712-7.5 3.712H10z" fill="#f78f8f"></path><path d="M37.889 34.671C36.84 35.612 33.891 38 31 38H10c-2.785 0-6.407-.564-8-.837V37h18c10.267 0 15.497-1.376 17.889-2.329M39 33s-3.8 3-19 3H1v2s5.2 1 9 1h21c4.057 0 8-4 8-4v-2z" fill="#c74343"></path></g><g><path d="M11.161 22.113c-.626-.628-.83-1.574-.52-2.505l2.756-8.362c.405-1.052 1.378-1.746 2.47-1.746h4.438l-3.864 11.592 2.093 2.769-2.552 2.461-4.821-4.209z" fill="#dcd5f2"></path><path d="M19.613 10l-3.561 10.684-.166.499.317.42 1.667 2.206-1.903 1.835-4.448-3.882c-.498-.514-.648-1.257-.401-1.998l2.739-8.314c.337-.881 1.127-1.45 2.011-1.45h3.745M21 9h-5.132c-1.33 0-2.47.855-2.945 2.09l-2.755 8.36c-.38 1.14-.095 2.28.665 3.04L16 27l3.202-3.087L17 21l4-12z" fill="#8b75a1"></path></g><g><path d="M23.57 38.5c.371-2.403 1.281-3.619 2.091-4.701.634-.848 1.238-1.653 1.487-2.849h.018l.067-.438 2.994-23.954.992.124-2.962 23.706c-.091 1.445.211 2.289.532 3.183.385 1.074.818 2.283.732 4.929H23.57z" fill="#839cb2"></path><path d="M27.757 30.359l-.002.028c-.095 1.517.24 2.45.563 3.352.345.963.731 2.04.713 4.26h-4.863c.393-1.897 1.154-2.913 1.894-3.901.574-.767 1.164-1.555 1.478-2.649h.081l.109-.876.027-.214M29.793 6l-3.055 24.45h-.013C26.345 33.49 23.57 33.87 23 39h7c.285-5.415-1.437-5.51-1.247-8.55l3.024-24.202L29.793 6z" fill="#66798f"></path></g><g><path d="M17.036 12.536A1.538 1.538 0 0115.5 11c0-.821.674-1.464 1.536-1.464l5.914-.037 5.131-3.719a1.52 1.52 0 01.881-.28c.499 0 .968.243 1.256.648a1.538 1.538 0 01-.366 2.141l-5.233 3.978c-.163.115-.36.2-.572.242l-7.011.027z" fill="#ffeea3"></path><path d="M28.962 6c.336 0 .653.164.847.438.33.466.219 1.114-.273 1.464l-5.192 3.947c-.098.069-.204.12-.317.152l-6.99.035A1.038 1.038 0 0116 11c0-.55.445-.964 1.042-.964l5.75-.036.321-.002.26-.188 4.993-3.619c.176-.125.382-.191.596-.191m0-1c-.407 0-.818.122-1.175.375L22.786 9l-5.75.036C15.916 9.036 15 9.88 15 11s.916 2.036 2.036 2.036L24.143 13c.28-.056.545-.17.778-.335l5.22-3.968A2.036 2.036 0 0028.962 5z" fill="#ba9b48"></path></g></svg>