<svg viewBox="0 0 40 40" xmlns="http://www.w3.org/2000/svg"><path d="M1.517 38.5c.258-3.903 3.516-7 7.483-7h6c3.968 0 7.226 3.097 7.483 7H1.517z" fill="#8bb7f0"></path><path d="M15 32c3.52 0 6.442 2.612 6.929 6H2.071C2.558 34.612 5.48 32 9 32h6m0-1H9a8 8 0 00-8 8h22a8 8 0 00-8-8z" fill="#4e7ab5"></path><path d="M12 33.745c-2.381 0-3.302-1.428-3.5-1.797V28.5h7v3.448c-.195.364-1.115 1.797-3.5 1.797z" fill="#e8d47b"></path><path d="M15 29v2.812c-.251.401-1.085 1.433-3 1.433-1.923 0-2.756-1.041-3-1.431V29h6m1-1H8v4.064s.934 2.181 4 2.181 4-2.181 4-2.181V28z" fill="#ba9b48"></path><path d="M17 25.5c-.827 0-1.5-.673-1.5-1.5s.673-1.5 1.5-1.5c1.386 0 1.5.394 1.5.833 0 .907-.756 2.167-1.5 2.167zm-10 0c-.744 0-1.5-1.26-1.5-2.167 0-.439.114-.833 1.5-.833.827 0 1.5.673 1.5 1.5s-.673 1.5-1.5 1.5z" fill="#e8d47b"></path><path d="M17 23c.825 0 .974.155.975.156a.44.44 0 01.025.177c0 .72-.629 1.667-1 1.667-.551 0-1-.449-1-1s.449-1 1-1M7 23c.551 0 1 .449 1 1s-.449 1-1 1c-.371 0-1-.947-1-1.667a.46.46 0 01.024-.176C6.026 23.155 6.175 23 7 23m10-1a2 2 0 100 4c1.105 0 2-1.562 2-2.667S18.105 22 17 22zM7 22c-1.105 0-2 .229-2 1.333S5.895 26 7 26a2 2 0 100-4z" fill="#ba9b48"></path><path d="M12 30.5c-.4 0-.78-.182-1.043-.498l-.105-.126-.16-.04A5.483 5.483 0 016.5 24.5v-5.257a2.362 2.362 0 012.359-2.359h6.281a2.362 2.362 0 012.359 2.359V24.5a5.483 5.483 0 01-4.191 5.336l-.16.04-.105.126A1.358 1.358 0 0112 30.5z" fill="#e8d47b"></path><path d="M15.141 17.384c1.025 0 1.859.834 1.859 1.86V24.5a4.983 4.983 0 01-3.81 4.85l-.32.078-.211.253c-.098.12-.316.319-.659.319s-.561-.199-.66-.318l-.211-.253-.32-.078A4.985 4.985 0 017 24.5v-5.257c0-1.025.834-1.86 1.859-1.86h6.282m0-.999H8.859A2.859 2.859 0 006 19.243V24.5a5.997 5.997 0 004.572 5.822c.342.411.851.678 1.428.678s1.086-.267 1.428-.678A5.997 5.997 0 0018 24.5v-5.257a2.859 2.859 0 00-2.859-2.859z" fill="#ba9b48"></path><g><path d="M17.5 24.5V23c0-2.703-2.189-4.146-2.283-4.206l-.331-.213-.285.272c-.013.012-1.511 1.378-4.663 1.378-1.711 0-3.437 1.025-3.437 3.315v.954h-.119c-.249-.938-.882-3.52-.882-5.5 0-2.733 2.12-5.5 6.173-5.5 2.17 0 2.834 1.612 2.861 1.681l.125.316.341.003c1.468 0 3.5 1.24 3.5 3.568 0 1.809-.638 4.467-.885 5.432H17.5z" fill="#ffc49c"></path><path d="M11.673 14c1.779 0 2.339 1.229 2.393 1.356l.245.644H15c1.046 0 3 .9 3 3.068 0 .703-.101 1.544-.237 2.36-.61-1.959-2.192-3.001-2.274-3.054l-.663-.428-.57.545c-.013.012-1.378 1.24-4.318 1.24-1.711 0-3.041.854-3.62 2.205C6.142 20.982 6 19.922 6 19c0-2.485 1.949-5 5.673-5m0-1C7.455 13 5 15.872 5 19c0 2.555 1 6 1 6h1v-1.453c0-1.931 1.399-2.816 2.937-2.816 3.423 0 5.009-1.517 5.009-1.517S17 20.539 17 23v2h1s1-3.603 1-5.932C19 16.414 16.685 15 15 15c0 0-.762-2-3.327-2z" fill="#a16a4a"></path></g><g><path d="M28.338 19.12l-.153-1.327-4.465-1.757-3.299.75c-.758-.171-4.453-1.06-9.516-3.144-4.461-1.945-7.698-2.835-9.063-3.164l.828-3.311c1.152-3.709 3.027-4.143 4.337-4.143 1.234 0 2.771.444 4.697 1.358 1.36.565 2.699.844 4.011.844 2.698 0 5.238-1.135 7.556-3.376 1.262.729 1.609 1.444 2.293 2.849.231.475.493 1.012.83 1.63.85 2.269 2.294 3.366 4.507 3.366.884 0 1.82-.17 2.727-.335.913-.166 1.857-.338 2.75-.338.646 0 1.211.091 1.719.276 1.037 4.352-2.608 9.234-2.646 9.284l-.043.057-1.058 2.24-6.012-1.759z" fill="#8bb7f0"></path><path d="M23.352 2.72c.736.527 1.018 1.106 1.59 2.281.223.459.475.976.8 1.577.995 2.562 2.683 3.807 5.158 3.807.947 0 1.914-.176 2.85-.346.883-.161 1.797-.327 2.627-.327.413 0 .785.041 1.124.125.668 3.922-2.569 8.283-2.602 8.328l-.087.115-.061.13-.774 1.64-5.005-1.465-.054-.461-.096-.822-.77-.303-3.88-1.527-.397-.156-.416.094-2.938.668c-.993-.232-4.513-1.123-9.227-3.063-3.891-1.696-6.873-2.603-8.515-3.036l.652-2.606c1.016-3.242 2.498-3.658 3.677-3.658 1.129 0 2.569.422 4.401 1.292l.031.015.032.013c1.413.586 2.841.883 4.244.883 2.727-.001 5.292-1.075 7.636-3.198M23.146 1c-1.05 1.08-3.665 3.536-7.431 3.536-1.137 0-2.379-.224-3.715-.777-1.884-.894-3.555-1.425-4.993-1.425C4.729 2.334 3.034 3.667 2 7l-1 4s3.763.719 9.642 3.282c5.802 2.388 9.781 3.213 9.781 3.213l3.243-.737 3.88 1.527.159 1.369 7.017 2.054L36 19s4.086-5.397 2.675-10.209c-.739-.34-1.513-.459-2.298-.459-1.863 0-3.791.673-5.477.673-1.608 0-2.997-.612-3.9-3.005-1.46-2.682-1.482-3.805-3.854-5z" fill="#4e7ab5"></path></g><path d="M20 10c3.909-.548 6.482-2.759 6.482-2.759" fill="none" stroke="#4e7ab5" stroke-width="1.381" stroke-miterlimit="10"></path><g><path d="M27.69 20.461v-1.959L24 17.272l-3.027 1.009c-.962-.245-5.445-1.433-10.5-3.513-4.53-1.976-7.565-3.536-8.672-4.122l.651-2.608c7.438 4.03 16.72 7.132 21.934 8.062 4.551 1.878 9.076 3.021 10.772 3.418l-.661 2.644-6.807-1.701z" fill="#b0c1d4"></path><path d="M2.908 9.063c7.069 3.707 15.567 6.574 20.734 7.6l-.079.026-2.616.872a83.614 83.614 0 01-10.186-3.421c-3.978-1.734-6.795-3.145-8.159-3.854l.306-1.223m25.473 9.255a76.654 76.654 0 005.937 1.712l-.324 1.295-5.614-1.403v-1.604M2 7l-1 4s3.331 1.844 9.21 4.407C16.012 17.794 21 19 21 19l3-1 3 1v2l8 2 1-4s-5.662-1.18-11.42-3.566C19.418 14.526 9.698 11.318 2 7z" fill="#66798f"></path></g></svg>