<svg viewBox="0 0 40 40" xmlns="http://www.w3.org/2000/svg"><path d="M7.794 38.493a6.253 6.253 0 01-4.473-1.866 6.3 6.3 0 01.044-8.9l15.07-14.909 8.857 8.945-15.07 14.909a6.257 6.257 0 01-4.428 1.821zm.205-9.993A3.507 3.507 0 004.5 31.983 3.505 3.505 0 007.982 35.5c1.938 0 3.509-1.562 3.518-3.483A3.505 3.505 0 008.018 28.5h-.019z" fill="#dcd5f2"></path><path d="M18.432 13.524l8.153 8.234L11.87 36.316a5.76 5.76 0 01-4.076 1.677 5.752 5.752 0 01-4.117-1.717 5.8 5.8 0 01.04-8.193l14.715-14.559M7.998 36H8a4.009 4.009 0 004-3.98A4.009 4.009 0 008 28a4.009 4.009 0 00-4 3.98A4.005 4.005 0 007.981 36h.017M18.44 12.111L3.014 27.371a6.794 6.794 0 009.561 9.656L28 21.766l-9.56-9.655zM8 35h-.015A3 3 0 018 29h.015A3 3 0 018 35z" fill="#8b75a1"></path><g><path d="M29.284 23.537c-3.154 0-6.398-1.448-8.898-3.973-4.504-4.549-5.191-11.197-1.532-14.82 1.955-1.936 5.36-3.236 8.475-3.236 1.282 0 2.452.209 3.487.622l-7.388 7.32 1.82 5.291 5.274 1.874 7.386-7.32c1.541 3.975-.103 9.359-2.718 11.948-1.516 1.501-3.558 2.294-5.906 2.294z" fill="#dcd5f2"></path><path d="M27.328 2.007c.92 0 1.777.112 2.562.335l-6.591 6.532-.446.442.204.594 1.639 4.766.157.456.454.161 4.751 1.688.592.21.446-.442 6.592-6.532c1.024 3.694-.508 8.352-2.851 10.671-1.421 1.407-3.341 2.15-5.554 2.15-3.023 0-6.137-1.394-8.544-3.825-2.115-2.136-3.426-4.802-3.692-7.506-.259-2.627.507-4.974 2.157-6.607 1.869-1.85 5.133-3.093 8.124-3.093m.001-1c-3.334 0-6.819 1.393-8.827 3.381-3.861 3.823-3.177 10.775 1.529 15.527 2.685 2.712 6.1 4.121 9.254 4.121 2.374 0 4.599-.798 6.257-2.439 2.933-2.905 4.614-8.991 2.531-13.17l-7.679 7.61-4.751-1.688-1.639-4.766 7.679-7.61c-1.313-.669-2.818-.965-4.354-.966z" fill="#8b75a1"></path></g></svg>