<svg viewBox="0 0 40 40" xmlns="http://www.w3.org/2000/svg"><path d="M8.038 32.536a1.537 1.537 0 01-.793-2.852l6.254-3.385v-8.262c0-.847.689-1.536 1.536-1.536.908 0 2.299.892 2.299 1.663l-.761 8.947c-.002.717-.161 1.101-.533 1.324l-7.194 3.872a1.573 1.573 0 01-.808.229z" fill="#ffeea3"></path><path d="M15.036 17c.726 0 1.755.721 1.798 1.137l-.758 8.931-.004.042v.042c0 .68-.18.788-.248.829l-7.255 3.906a1.03 1.03 0 01-1.421-.355c-.294-.49-.135-1.127.316-1.399l6.012-3.255.524-.282v-8.56c0-.571.465-1.036 1.036-1.036m0-1A2.035 2.035 0 0013 18.036V26l-6.012 3.255a2.036 2.036 0 002.095 3.491l7.214-3.883c.613-.368.774-.995.774-1.71l.763-8.989C17.835 17.038 16.16 16 15.036 16z" fill="#ba9b48"></path><path d="M24 35.5c-1.396 0-1.495-1.256-1.5-1.508v-8.255l-7-4.784c-.262-.175-.632-.797-.836-1.759-.203-.96-.114-1.668.054-1.921.113-.169.21-.331.299-.478.127-.211.302-.5.385-.538.002.002.092.006.32.159l9.065 6.98c.545.365.816.965.719 1.55L25.5 34c-.005.244-.104 1.5-1.5 1.5z" fill="#ffeea3"></path><path d="M15.536 16.905l8.947 6.888.027.021.028.019c.348.232.539.647.475 1.032l-.013.081v9.032c-.016.466-.204 1.022-1 1.022s-.984-.556-1-1v-8.528l-.436-.298-6.791-4.641c-.494-.35-.947-2.471-.639-2.984.117-.176.218-.343.311-.496l.091-.148m-.141-1.146c-.44 0-.637.551-1.093 1.236-.624.936-.02 3.746.916 4.37L22 26v8s.022 2 2 2 2-2 2-2v-8.972c.132-.79-.24-1.584-.907-2.028L16 16c-.251-.167-.444-.241-.605-.241z" fill="#ba9b48"></path><path d="M35.964 20.5c-.376 0-.739-.138-1.02-.388L22.414 9.5l-6.668-.001a1.544 1.544 0 01-1.317-.745L10.69 3.783c-.406-.682-.17-1.627.556-2.063a1.536 1.536 0 012.107.526L16.76 6.5h6.245c.448 0 .781.104 1.02.316l12.968 11.008a1.535 1.535 0 01-1.029 2.676z" fill="#ffeea3"></path><path d="M12.035 2c.367 0 .7.188.888.503l.035.058.043.053 3.219 4.011.3.375H23.005c.474 0 .635.143.705.205L36.652 18.19a1.031 1.031 0 01.086 1.462 1.02 1.02 0 01-.774.348c-.254 0-.498-.093-.706-.277L22.877 9.237 22.598 9h-.366l-6.486-.001a1.04 1.04 0 01-.888-.503l-.028-.044-.031-.042-3.673-4.878A1.037 1.037 0 0112.035 2m0-1a2.037 2.037 0 00-1.745 3.084L14 9.011c.368.613 1.03.988 1.745.988l6.486.001 12.381 10.486a2.033 2.033 0 002.874-.169 2.036 2.036 0 00-.169-2.874l-12.959-11C23.985 6.112 23.503 6 23.005 6H17l-3.219-4.011A2.03 2.03 0 0012.035 1z" fill="#ba9b48"></path><path d="M7.125 32.622L10.5 34.31v.55c-1.919 3.055-6.396 3.57-8.414 3.641l5.039-5.879z" fill="#c74343"></path><path d="M7.251 33.244L10 34.618v.094c-1.518 2.274-4.642 2.991-6.757 3.209l4.008-4.677M7 32l-6 7s.192.011.523.011c1.728 0 7.268-.299 9.477-4.011v-1l-4-2z" fill="#ab3434"></path><g><circle cx="29.5" cy="4.5" r="3" fill="#ffeea3"></circle><path d="M29.5 2C30.878 2 32 3.121 32 4.5S30.878 7 29.5 7 27 5.879 27 4.5 28.121 2 29.5 2m0-1C27.575 1 26 2.575 26 4.5S27.575 8 29.5 8 33 6.425 33 4.5 31.425 1 29.5 1z" fill="#ba9b48"></path></g><g><path d="M14.565 20.016c-.155 0-.312-.004-.47-.013a2.766 2.766 0 01-.619-1.905 2.846 2.846 0 01.998-2.007L21.947 9.5H17.5v-3l5.607.001c.377 0 .739.138 1.02.388l7.554 6.426-1.996 2.34L26.5 12.92l-6.821 5.697c-.008-.001-2.276 1.399-5.114 1.399z" fill="#dcd5f2"></path><path d="M18 7l5.107.001c.254 0 .498.093.705.276l7.164 6.094-1.345 1.577-2.483-2.132-.642-.552-.65.543-6.44 5.378c-.331.197-2.344 1.331-4.85 1.331l-.211-.003a2.264 2.264 0 01-.379-1.388 2.357 2.357 0 01.833-1.662l6.478-5.713L23.27 9H18V7m-1-1v4h3.624l-6.478 5.713c-1.462 1.267-1.559 3.411-.292 4.775.24.019.478.028.711.028C17.619 20.516 20 19 20 19l6.497-5.425 3.244 2.786 2.646-3.103-7.927-6.743a2.035 2.035 0 00-1.352-.514L17 6z" fill="#8b75a1"></path></g><g><path d="M15.204 20.814a3.478 3.478 0 01-.996-.68 2.757 2.757 0 01-.732-2.036 2.844 2.844 0 01.998-2.007l.336-.314 4.235 3.137-3.841 1.9z" fill="#839cb2"></path><path d="M14.847 16.427l3.243 2.402-2.884 1.427a2.735 2.735 0 01-.618-.448 2.277 2.277 0 01-.612-1.682c.035-.636.328-1.224.854-1.681l.017-.018m-.074-1.299l-.626.585c-1.462 1.267-1.559 3.411-.292 4.775.39.39.877.682 1.364.877L20 19l-5.227-3.872z" fill="#66798f"></path></g><path d="M2 31s12.136 6 36 6" fill="none" stroke="#c74343" stroke-width="2" stroke-linecap="round" stroke-linejoin="round" stroke-miterlimit="10"></path></svg>