<svg viewBox="0 0 40 40" xmlns="http://www.w3.org/2000/svg"><path d="M8 33.5c-3.584 0-6.5-2.916-6.5-6.5s2.916-6.5 6.5-6.5a6.531 6.531 0 015.866 3.715l.136.285h6.464l.033-1.424.303-1.046 6.288-6.288a7.644 7.644 0 015.401-2.242c1.854 0 3.693.634 4.636 1.019L21.5 29.974v.526h-8.021l-.149.214A6.512 6.512 0 018 33.5zm0-10c-1.93 0-3.5 1.57-3.5 3.5s1.57 3.5 3.5 3.5 3.5-1.57 3.5-3.5-1.57-3.5-3.5-3.5z" fill="#8bb7f0"></path><path d="M32.49 14c1.379 0 2.76.372 3.73.711L21.297 29.472l-.297.293V30h-7.781l-.298.428A6.013 6.013 0 018 33c-3.308 0-6-2.692-6-6s2.692-6 6-6a6.027 6.027 0 015.414 3.43l.272.57h7.269l.022-.977.02-.87.249-.861 6.2-6.2A7.147 7.147 0 0132.49 14M8 31c2.206 0 4-1.794 4-4s-1.794-4-4-4-4 1.794-4 4 1.794 4 4 4m24.49-18a8.1 8.1 0 00-5.754 2.389l-6.379 6.379L20 23l-.023 1h-5.66A6.994 6.994 0 008 20a7 7 0 100 14 6.987 6.987 0 005.74-3H22v-.817l16-15.826S35.286 13 32.49 13zM8 30a3 3 0 110-6 3 3 0 010 6z" fill="#4e7ab5"></path><path d="M20.302 30.5c-.752-1.423-4.351-8.127-7.357-11.961l-.112-.144-.178-.037C9.668 17.73 7.5 15.056 7.5 12c0-3.584 2.916-6.5 6.5-6.5s6.5 2.916 6.5 6.5a6.46 6.46 0 01-1.857 4.54l-.281.287L22.73 23.5h15.584a11.75 11.75 0 01-2.667 4.146c-1.814 1.813-4.183 2.854-6.498 2.854h-8.847zM14 8.5c-1.93 0-3.5 1.57-3.5 3.5s1.57 3.5 3.5 3.5 3.5-1.57 3.5-3.5-1.57-3.5-3.5-3.5z" fill="#c2e8ff"></path><path d="M14 6c3.308 0 6 2.692 6 6 0 1.572-.609 3.06-1.714 4.19l-.562.574.44.673 4 6.111.295.452h15.108a11.31 11.31 0 01-2.274 3.293c-1.72 1.72-3.96 2.707-6.182 2.707h-8.507c-.992-1.867-4.352-8.054-7.265-11.769l-.225-.286-.356-.075A6.024 6.024 0 018 12c0-3.308 2.692-6 6-6m0 10c2.206 0 4-1.794 4-4s-1.794-4-4-4-4 1.794-4 4 1.794 4 4 4m0-11a7 7 0 00-1.448 13.848C15.921 23.144 20 31 20 31H29.148c2.57 0 5.035-1.183 6.852-3 2.365-2.365 3-5 3-5H23l-4-6.111A6.966 6.966 0 0021 12a7 7 0 00-7-7zm0 10a3 3 0 110-6 3 3 0 010 6z" fill="#7496c4"></path><g><circle cx="23" cy="27" r="1" fill="#7496c4"></circle></g></svg>