<svg viewBox="0 0 40 40" xmlns="http://www.w3.org/2000/svg"><path d="M20 38.5C9.799 38.5 1.5 30.201 1.5 20S9.799 1.5 20 1.5 38.5 9.799 38.5 20 30.201 38.5 20 38.5z" fill="#ffeea3"></path><path d="M20 2c9.925 0 18 8.075 18 18s-8.075 18-18 18S2 29.925 2 20 10.075 2 20 2m0-1C9.507 1 1 9.507 1 20s8.507 19 19 19 19-8.507 19-19S30.493 1 20 1z" fill="#c29653"></path><path d="M27 19.5c-1.93 0-3.5-2.019-3.5-4.5s1.57-4.5 3.5-4.5 3.5 2.019 3.5 4.5-1.57 4.5-3.5 4.5z" fill="#fff"></path><path d="M27 11c1.654 0 3 1.794 3 4s-1.346 4-3 4-3-1.794-3-4 1.346-4 3-4m0-1c-2.209 0-4 2.239-4 5s1.791 5 4 5 4-2.239 4-5-1.791-5-4-5z" fill="#c29653"></path><ellipse cx="27" cy="15" rx="1.25" ry="2" fill="#36404d"/><path d="M13 19.5c-1.93 0-3.5-2.019-3.5-4.5s1.57-4.5 3.5-4.5 3.5 2.019 3.5 4.5-1.57 4.5-3.5 4.5z" fill="#fff"></path><path d="M13 11c1.654 0 3 1.794 3 4s-1.346 4-3 4-3-1.794-3-4 1.346-4 3-4m0-1c-2.209 0-4 2.239-4 5s1.791 5 4 5 4-2.239 4-5-1.791-5-4-5z" fill="#c29653"></path><ellipse cx="13" cy="15" rx="1.25" ry="2" fill="#36404d"/><g><path d="M20 31.488l-1.523.008c-1.345 0-2.313-.067-2.979-.404-.465-.235-.998-.687-.998-2.102 0-3.029 2.468-5.494 5.5-5.494s5.5 2.465 5.5 5.494c0 2.157-1.173 2.506-3.977 2.506L20 31.488z" fill="#f78f8f"></path><path d="M20 23.996c2.757 0 5 2.241 5 4.995 0 1.649-.617 2.005-3.476 2.005-.236 0-.478-.002-.724-.004a104.316 104.316 0 00-1.6 0c-.247.002-.488.004-.724.004-2.859 0-3.476-.356-3.476-2.005a5.003 5.003 0 015-4.995m0-1c-3.313 0-6 2.685-6 5.995 0 2.784 1.901 3.005 4.476 3.005.486 0 .997-.008 1.524-.008s1.037.008 1.524.008c2.575 0 4.476-.221 4.476-3.005a5.999 5.999 0 00-6-5.995z" fill="#c74343"></path></g></svg>