<svg viewBox="0 0 40 40" xmlns="http://www.w3.org/2000/svg"><path d="M20 38.5a4.44 4.44 0 01-3.316-1.483l-.084-.092-.118-.042C12.306 35.395 9.5 31.423 9.5 27V12.381a4.747 4.747 0 014.742-4.742h11.516a4.747 4.747 0 014.742 4.742V27c0 4.423-2.806 8.395-6.982 9.883l-.118.042-.084.092A4.44 4.44 0 0120 38.5z" fill="#f5ce85"></path><path d="M25.758 8.139A4.247 4.247 0 0130 12.381V27c0 4.213-2.672 7.995-6.65 9.412l-.236.084-.168.185a3.948 3.948 0 01-5.892-.001l-.168-.185-.236-.084A10.014 10.014 0 0110 27V12.381a4.247 4.247 0 014.242-4.242h11.516m0-1H14.242A5.242 5.242 0 009 12.381V27c0 4.78 3.055 8.837 7.314 10.354C17.229 38.358 18.534 39 20 39s2.771-.642 3.686-1.647C27.945 35.836 31 31.78 31 27V12.381a5.242 5.242 0 00-5.242-5.242z" fill="#967a44"></path><circle cx="24.5" cy="23.5" r="1.5" fill="#36404d"></circle><circle cx="15.5" cy="23.5" r="1.5" fill="#36404d"></circle><path d="M20 35.5c-2.342 0-4.073-1.845-4.5-2.346v-2.335c.346-.483 1.836-2.319 4.5-2.319 2.646 0 4.156 1.847 4.5 2.321v2.333c-.429.5-2.168 2.346-4.5 2.346z" fill="#f78f8f"></path><path d="M20 29c2.236 0 3.57 1.435 4 1.987v1.982c-.527.583-2.033 2.031-4 2.031-1.95 0-3.47-1.453-4-2.035v-1.978c.434-.556 1.767-1.987 4-1.987m0-1c-3.333 0-5 2.667-5 2.667v2.667s2.024 2.667 5 2.667 5-2.667 5-2.667v-2.667C25 30.666 23.333 28 20 28z" fill="#c74343"></path><path d="M23.996 31S22.639 29.012 20 29.012 16.004 31 16.004 31h7.992zM17.195 34s1.229 1 2.805 1 2.841-1 2.841-1h-5.646z" fill="#fff"></path><path d="M22.036 23.666s2.444-1.676 5.429-1.988M17.964 23.666s-2.492-1.743-5.429-1.988" fill="none" stroke="#36404d" stroke-linecap="round" stroke-miterlimit="10"></path><g><path d="M32 37.5c-2.786 0-5.358-1-6.593-1.566 1.599-1.12 5.093-4.142 5.093-9.148v-7.905c0-3.774-4.073-6.21-4.247-6.312l-.446-.262-.247.455c-.026.048-2.695 4.82-9.379 5.743-3.218.444-6.682 2.73-6.682 6.699v1.582c0 5.073 3.832 8.21 5.622 9.399-1.338.494-3.9 1.315-6.121 1.315-3.864 0-5.765-1.787-6.366-2.493.807-1.034 3.258-4.381 3.258-6.864 0-1.34-.31-2.886-.638-4.521C4.884 21.772 4.5 19.86 4.5 18c0-10.328 7.354-16.5 14.464-16.5 5.314 0 7.514 3.601 7.605 3.754l.146.245L27 5.5c4.605 0 9.5 3.68 9.5 10.5 0 2.219-.486 4.549-.957 6.802-.408 1.955-.793 3.801-.793 5.341 0 3.088 3.11 5.841 4.412 6.857-1.124.787-3.946 2.5-7.162 2.5z" fill="#a6714e"></path><path d="M18.964 2c5.008 0 7.09 3.367 7.173 3.506l.29.494H27c4.363 0 9 3.505 9 10 0 2.167-.481 4.472-.946 6.7-.413 1.981-.804 3.852-.804 5.443 0 2.921 2.545 5.52 4.071 6.816C37.021 35.78 34.643 37 32 37c-2.202 0-4.273-.65-5.606-1.186C28.211 34.353 31 31.364 31 26.786v-7.904c0-4.057-4.31-6.636-4.493-6.744l-.894-.525-.492.913c-.025.046-2.546 4.592-9.007 5.484C12.687 18.483 9 20.936 9 25.204v1.582c0 4.629 3.035 7.71 5.048 9.245C12.671 36.484 10.722 37 9 37c-3.192 0-4.955-1.279-5.71-2.023 1.022-1.354 3.103-4.407 3.103-6.834 0-1.39-.315-2.959-.648-4.619C5.379 21.698 5 19.811 5 18 5 7.985 12.1 2 18.964 2m0-1C11.53 1 4 7.471 4 18c0 3.586 1.393 7.382 1.393 10.143S2 35 2 35s1.925 3 7 3c3.303 0 7.246-1.719 7.246-1.719S10 33.035 10 26.786v-1.582c0-3.678 3.242-5.788 6.25-6.204 7.038-.972 9.75-6 9.75-6s4 2.35 4 5.882v7.904c0 6.13-5.607 9.202-5.607 9.202S27.945 38 32 38c4.392 0 8-3 8-3s-4.75-3.254-4.75-6.857c0-3.201 1.75-7.9 1.75-12.143 0-7.196-5.274-11-10-11 0 0-2.348-4-8.036-4z" fill="#7a4f34"></path></g></svg>