<svg viewBox="0 0 40 40" xmlns="http://www.w3.org/2000/svg"><path d="M14.474 38.5c-5.707 0-10.442-2.227-12.603-4.432-.546-.557-.505-.854.216-1.591.266-.271.738-.465 1.335-.709 1.663-.682 4.446-1.821 7.516-6.698 1.188-1.889 1.906-4.034 2.665-6.306 1.262-3.773 2.566-7.677 6.202-11.389C23.583 3.519 30.037 1.5 34.458 1.5c1.848 0 3.268.368 3.898 1.011.13.134.144.19.144.191-.002.048-.095.212-.163.333-.272.482-.685 1.212-.661 2.639l.005.24c.123 5.097-.263 17.711-6.491 24.742-5.741 6.483-12.259 7.844-16.716 7.844z" fill="#ffc49c"></path><path d="M34.459 2c1.599 0 2.871.289 3.45.777l-.007.012c-.281.498-.751 1.331-.725 2.893l.005.245c.122 5.038-.255 17.5-6.365 24.398C25.198 36.668 18.828 38 14.474 38c-5.562 0-10.158-2.15-12.245-4.281-.205-.209-.228-.313-.229-.313.004-.034.049-.175.444-.578.193-.197.645-.382 1.168-.596 1.718-.704 4.594-1.882 7.749-6.895 1.221-1.939 1.947-4.112 2.716-6.412 1.244-3.721 2.53-7.568 6.085-11.197C23.844 3.967 30.141 2 34.459 2m-.001-1c-4.5 0-11.119 2.054-15.011 6.027-5.965 6.089-5.865 12.902-8.933 17.777-4.144 6.584-7.578 6.093-8.785 7.325-.677.691-1.13 1.357-.216 2.29C3.901 36.855 8.822 39 14.474 39c5.565 0 11.839-2.081 17.092-8.012 7.309-8.251 6.637-23.766 6.611-25.323-.042-2.547 1.426-2.596.537-3.504C37.952 1.383 36.403 1 34.458 1z" fill="#a16a4a"></path><path d="M29.001 18.722c.894.314.771 1.427 1.344 1.968M26.431 9.128c.687.997 3.319.586 4.092 2.277M21.563 26.402c.99.411 1.365 1.225 1.874 1.932M18.69 18.429s.605.847 1.813.853M13.906 29.748c.271.236.473.551.575.896" fill="none" stroke="#a16a4a" stroke-linecap="round" stroke-linejoin="round" stroke-miterlimit="10"></path></svg>