<svg viewBox="0 0 40 40" xmlns="http://www.w3.org/2000/svg"><circle cx="5" cy="28" r="2.5" fill="#fff"></circle><path d="M5 26c1.103 0 2 .897 2 2s-.897 2-2 2-2-.897-2-2 .897-2 2-2m0-1a3 3 0 100 6 3 3 0 000-6z" fill="#66798f"></path><circle cx="10" cy="36" r="2.5" fill="#fff"></circle><path d="M10 34c1.103 0 2 .897 2 2s-.897 2-2 2-2-.897-2-2 .897-2 2-2m0-1a3 3 0 100 6 3 3 0 000-6z" fill="#66798f"></path><path d="M19.539 33.5a2.255 2.255 0 01-1.607-.666L6.166 21.068c-.43-.429-.666-1-.666-1.607s.236-1.178.666-1.607L22.503 1.517c.835.101 4.349.808 9.261 5.72 4.908 4.908 5.618 8.42 5.72 9.261L21.146 32.834c-.429.43-1 .666-1.607.666z" fill="#c2e8ff"></path><path d="M22.678 2.048c1.065.189 4.3 1.11 8.732 5.542 4.44 4.44 5.356 7.679 5.543 8.731l-16.16 16.16a1.76 1.76 0 01-1.254.519 1.76 1.76 0 01-1.254-.519L6.519 20.715a1.776 1.776 0 010-2.508L22.678 2.048M22.312 1l-16.5 16.5a2.773 2.773 0 000 3.922l11.766 11.766a2.767 2.767 0 001.961.812c.71 0 1.419-.271 1.961-.812l16.5-16.5s0-3.922-5.883-9.805C26.234 1 22.312 1 22.312 1z" fill="#7496c4"></path><g><path d="M24.865 29.116a5.007 5.007 0 01-1.142-3.198 5.01 5.01 0 011.478-3.569l2.367-2.367a5.014 5.014 0 013.568-1.478c1.18 0 2.298.402 3.197 1.142l-9.468 9.47z" fill="#8bb7f0"></path><path d="M31.137 19.005c.874 0 1.71.245 2.43.702l-8.641 8.641a4.553 4.553 0 01.629-5.644l2.367-2.367c.859-.859 2-1.332 3.215-1.332m0-1a5.53 5.53 0 00-3.922 1.625l-2.367 2.367a5.547 5.547 0 000 7.844L35.059 19.63a5.526 5.526 0 00-3.922-1.625z" fill="#4e7ab5"></path></g><g><path d="M13.082 15.277a5.003 5.003 0 01-3.197-1.142l9.469-9.47c.74.9 1.143 2.018 1.143 3.198a5.01 5.01 0 01-1.479 3.568l-2.367 2.367a5.014 5.014 0 01-3.569 1.479z" fill="#8bb7f0"></path><path d="M19.292 5.434a4.553 4.553 0 01-.629 5.644l-2.367 2.367c-.859.859-2 1.332-3.215 1.332-.874 0-1.71-.245-2.43-.702l8.04-8.04.601-.601m.079-1.493l-1.387 1.387-8.824 8.824a5.529 5.529 0 003.922 1.625 5.53 5.53 0 003.922-1.625l2.367-2.367a5.547 5.547 0 000-7.844z" fill="#4e7ab5"></path></g><path fill="#4e7ab5" d="M19 24l-4-4v4z"></path></svg>