<svg viewBox="0 0 40 40" xmlns="http://www.w3.org/2000/svg"><circle cx="19.5" cy="19.5" r="18.5" fill="#fff"></circle><path fill="#4e7ab5" d="M19 2h1v35h-1z"></path><path d="M19.5 2C29.15 2 37 9.85 37 19.5S29.15 37 19.5 37 2 29.15 2 19.5 9.85 2 19.5 2m0-1C9.283 1 1 9.283 1 19.5S9.283 38 19.5 38 38 29.717 38 19.5 29.717 1 19.5 1z" fill="#4e7ab5"></path><path d="M19.5 2c5.029 0 9.278 8.014 9.278 17.5S24.529 37 19.5 37s-9.278-8.014-9.278-17.5S14.471 2 19.5 2m0-1C13.824 1 9.222 9.283 9.222 19.5S13.824 38 19.5 38s10.278-8.283 10.278-18.5S25.176 1 19.5 1z" fill="#4e7ab5"></path><path fill="#4e7ab5" d="M6 7h27v1H6zM6 31h27v1H6z"></path><path fill="#fff" d="M5 14h29v11H5z"></path><g fill="#4e7ab5"><path d="M32.134 16.16c-.79 0-2.629-.003-3.548 0-.646 0-.704.109-.769.783l-.024.212.188-.109c.362-.219.985-.209 1.361-.058-.267.988-.513 1.901-.755 2.81-.26.957-.513 1.911-.793 2.936l-.034.133h1.484l.014-.092c.017-.106.027-.212.038-.311.014-.14.027-.27.058-.393.297-1.145.636-2.451.961-3.685l.356-1.371c.4-.263 1.425-.123 1.583-.003l.13.099.246-.95h-.496zM25.807 16.173c-.52.007-1.029.014-1.538.014-.188 0-.338.202-.376.345-.533 2.061-1.056 4.116-1.596 6.228l-.031.133H22.731c.219 0 .458-.003.691-.027.161-.017.325-.198.362-.345.085-.335.191-.796.294-1.251.096-.427.191-.848.27-1.162a.723.723 0 01.41-.485c.503-.239 1.306-.103 1.48-.027l.12.055.103-.448c.034-.15.068-.297.099-.42l.031-.137-.144.007c-.212.01-.41.024-.608.034-.267.021-.526.038-.79.044-.065.003-.232.007-.27-.041-.01-.014-.034-.065.01-.222.065-.229.106-.397.144-.55.065-.256.113-.458.246-.82.068-.181.332-.397.533-.434.615-.116 1.094.068 1.463.567l.14.188.051-.229c.038-.161.075-.301.109-.441l.113-.458.031-.13h-.137c-.578-.001-1.132.006-1.675.012zM20.628 16.266c-.314 1.186-.622 2.355-.93 3.514-.26.998-.523 1.99-.786 2.981l-.034.133h.14c.103 0 .212.003.325.007.116.003.236.007.356.007s.239-.003.359-.014c.154-.017.352-.191.39-.345.133-.513.253-1.026.376-1.542.109-.468.219-.937.335-1.402.25-.981.53-2.054.861-3.289l.034-.13h-1.402l-.024.08zM19.11 16.939c.085-.185.178-.376.273-.571l.058-.12-.126-.031a1.417 1.417 0 00-.321-.058h-.014c-.345 0-.475.273-.605.626-.062.161-1.067 2.314-1.593 3.415-.058.12-.106.205-.144.267-.106-1.19-.215-2.417-.335-3.627l-.007-.072c-.017-.209-.044-.554-.325-.554-.263 0-.42.301-.489.431-.342.66-.673 1.323-1.005 1.99-.253.503-.503 1.005-.762 1.508a1.883 1.883 0 01-.239.359l-.321-4.287H11.73l.014.12.072.526c.038.284.075.55.099.82l.113 1.183c.106 1.128.212 2.253.328 3.377.027.243.106.653.356.653.308 0 .455-.284.561-.482.349-.66.684-1.337 1.012-1.993.209-.424.42-.848.632-1.268l.021-.041c.103-.202.164-.304.205-.356.003.024.01.051.014.092.027.335.058.67.089 1.005.072.807.147 1.644.205 2.465.017.267.096.444.232.53.062.038.13.058.209.058a.72.72 0 00.222-.044c.178-.065.28-.277.376-.479l.677-1.402c.612-1.265 1.224-2.53 1.829-3.794l.114-.246zM10.588 16.221c-.475-.164-.889-.236-1.268-.219a2.542 2.542 0 00-1.227.359c-.615.362-.93.937-.937 1.706-.007.766.41 1.196.92 1.644.109.096.226.188.342.28.25.198.485.39.673.632.277.356.359.793.219 1.173a1.044 1.044 0 01-.769.65c-.366.079-.779.041-1.056-.096-.215-.109-.393-.332-.567-.55-.072-.085-.14-.174-.209-.25l-.13-.14-.055.181c-.133.424-.212.718-.089.926.116.191.369.277.831.373a4.904 4.904 0 001.531.083c.896-.099 1.6-.749 1.788-1.648.178-.855-.116-1.555-.899-2.147-.099-.075-.202-.15-.304-.222a6.434 6.434 0 01-.718-.567 1.134 1.134 0 01-.373-.838c0-.301.126-.578.345-.783a1.04 1.04 0 01.855-.253c.434.062.841.345 1.09.762l.092.157.12-.205c.099-.164.263-.444.171-.691-.051-.146-.181-.252-.376-.317z"></path></g><path fill="#4e7ab5" d="M2.667 25h33.667v1H2.667zM2.667 13h33.667v1H2.667z"></path></svg>