<svg viewBox="0 0 40 40" xmlns="http://www.w3.org/2000/svg"><path d="M23.001 38.5a1.503 1.503 0 01-1.501-1.501V32l-1.058-5.357h-.82l-.145.402-.968 4.849-.01 5.105c0 .828-.673 1.501-1.499 1.501a1.503 1.503 0 01-1.501-1.501V24.833l-.756.45a1.443 1.443 0 01-.745.217 1.502 1.502 0 01-1.501-1.501l.001-9.015.013-.107C12.566 12.218 14.328 10.5 17 10.5h6c2.705 0 4.47 1.744 4.495 4.444l.009.1-.002 8.955c0 .828-.673 1.501-1.501 1.501-.252 0-.502-.073-.743-.217l-.756-.45v12.166c0 .828-.673 1.501-1.501 1.501z" fill="#ffeea3"></path><path d="M23 11c2.441 0 3.972 1.513 3.995 3.971l.006.084.001 8.945c0 .552-.449 1.001-1.001 1.001a.945.945 0 01-.486-.146l-1.512-.903V36.999a1.002 1.002 0 01-2.003 0v-5.098l-.019-.097-.968-4.857-.16-.805H19.149l-.161.804-.968 4.848-.02.098v5.107a1.001 1.001 0 01-2 0V23.953l-1.512.901a.95.95 0 01-.489.146 1.002 1.002 0 01-1.001-1.001v-8.955a1.83 1.83 0 00.013-.155C13.061 12.49 14.589 11 17 11h6m0-1h-6c-2.952 0-4.928 1.946-4.989 4.867-.003.045-.014.088-.014.134v8.998c0 1.101.901 2.001 2.001 2.001.368 0 .706-.111 1.001-.287v11.286A2.01 2.01 0 0017.001 39 2.005 2.005 0 0019 36.999v-5.008l.968-4.848h.064L21 32v4.999c0 1.1.901 2.001 2.001 2.001a2.007 2.007 0 002.001-2.001V25.713c.295.176.632.287.999.287a2.007 2.007 0 002.001-2.001l-.001-8.998c0-.021-.006-.041-.006-.062C27.967 11.976 25.977 10 23 10z" fill="#ba9b48"></path><path d="M20 8.5c-1.93 0-3.5-1.57-3.5-3.5s1.57-3.5 3.5-3.5 3.5 1.57 3.5 3.5-1.57 3.5-3.5 3.5z" fill="#ffeea3"></path><path d="M20 2c1.654 0 3 1.346 3 3s-1.346 3-3 3-3-1.346-3-3 1.346-3 3-3m0-1c-2.206 0-4 1.794-4 4s1.794 4 4 4 4-1.794 4-4-1.794-4-4-4z" fill="#ba9b48"></path><circle cx="20" cy="12.5" r=".5" fill="#ffeea3"></circle><path d="M20 12a.5.5 0 100 1 .5.5 0 000-1z" fill="#ba9b48"></path><circle cx="20" cy="14.5" r=".5" fill="#ffeea3"></circle><path d="M20 14a.5.5 0 100 1 .5.5 0 000-1z" fill="#ba9b48"></path><circle cx="20" cy="16.5" r=".5" fill="#ffeea3"></circle><path d="M20 16a.5.5 0 100 1 .5.5 0 000-1z" fill="#ba9b48"></path><g><circle cx="20" cy="18.5" r=".5" fill="#ffeea3"></circle><path d="M20 18a.5.5 0 100 1 .5.5 0 000-1z" fill="#ba9b48"></path></g><g><circle cx="20" cy="20.5" r=".5" fill="#ffeea3"></circle><path d="M20 20a.5.5 0 100 1 .5.5 0 000-1z" fill="#ba9b48"></path></g><path fill="#ba9b48" d="M15 15h1v12h-1zM24 15h1v12h-1z"></path><g><path fill="#8bb7f0" d="M15.5 25.59V22.5h9v3.09l-4.5.9z"></path><path d="M24 23v2.18l-4 .8-4-.8V23h8m1-1H15v4l5 1 5-1v-4z" fill="#4e7ab5"></path></g></svg>