<svg viewBox="0 0 40 40" xmlns="http://www.w3.org/2000/svg"><path d="M5.5 29.5v-4.221l13.188-8.116-3.832-6.21-7.178 2.409a1.54 1.54 0 01-2.054-.793 1.538 1.538 0 01.808-2.016l8.276-2.916a1.536 1.536 0 011.885.507L30.5 27.163V29.5h-25z" fill="#ffeea3"></path><path d="M15.344 8c.333 0 .648.162.848.443L30 27.327V29H6v-3.441l12.524-7.707.853-.525-.526-.852-3.36-5.447-.417-.675-.752.253-6.802 2.282-.038.013-.037.016a1.039 1.039 0 01-1.36-.544 1.033 1.033 0 01.519-1.349l8.271-2.915.031-.011.03-.013c.13-.057.268-.085.408-.085m0-1a2.05 2.05 0 00-.803.165l-8.307 2.928a2.036 2.036 0 101.604 3.743l6.801-2.283L18 17 5 25v5h26v-3L17 7.853A2.032 2.032 0 0015.344 7z" fill="#ba9b48"></path><path d="M30 18.5c-1.93 0-3.5-1.57-3.5-3.5s1.57-3.5 3.5-3.5 3.5 1.57 3.5 3.5-1.57 3.5-3.5 3.5z" fill="#ffeea3"></path><path d="M30 12c1.654 0 3 1.346 3 3s-1.346 3-3 3-3-1.346-3-3 1.346-3 3-3m0-1c-2.21 0-4 1.79-4 4s1.79 4 4 4a4 4 0 100-8z" fill="#ba9b48"></path><path d="M1 33h38v-9.123c-1.308-.263-2.852-.877-4-.877-1.458 0-3.563 1-5 1-1.438 0-3.542-1-5-1s-3.563 1-5 1c-1.438 0-3.542-1-5-1s-3.563 1-5 1c-1.438 0-3.542-1-5-1-1.148 0-2.692.614-4 .877V33z" fill="#8bb7f0"></path><g><path d="M35 23c-1.458 0-3.563 1-5 1-1.438 0-3.542-1-5-1s-3.563 1-5 1c-1.438 0-3.542-1-5-1s-3.563 1-5 1c-1.438 0-3.542-1-5-1-1.148 0-2.692.614-4 .877V24.9c.574-.103 1.17-.271 1.754-.435C3.566 24.237 4.406 24 5 24s1.434.237 2.246.465c.934.263 1.9.535 2.754.535s1.82-.272 2.754-.535C13.566 24.237 14.406 24 15 24s1.434.237 2.246.465c.934.263 1.9.535 2.754.535s1.82-.272 2.754-.535C23.566 24.237 24.406 24 25 24s1.434.237 2.246.465c.934.263 1.9.535 2.754.535s1.82-.272 2.754-.535C33.566 24.237 34.406 24 35 24s1.434.237 2.246.465c.584.165 1.18.332 1.754.435v-1.023c-1.308-.263-2.852-.877-4-.877z" fill="#4e7ab5"></path></g></svg>