<svg viewBox="0 0 40 40" xmlns="http://www.w3.org/2000/svg"><path fill="#ffeea3" d="M17.5 7.5h5v28.333h-5z"></path><path d="M22 8v27.333h-4V8h4m1-1h-6v29.333h6V7z" fill="#ba9b48"></path><path d="M11.5 38.5V38c0-1.378 1.121-2.5 2.5-2.5h12c1.379 0 2.5 1.122 2.5 2.5v.5h-17z" fill="#bae0bd"></path><path d="M26 36c1.103 0 2 .897 2 2H12c0-1.103.897-2 2-2h12m0-1H14a3 3 0 00-3 3v1h18v-1a3 3 0 00-3-3z" fill="#5e9c76"></path><g fill="none" stroke="#788b9c" stroke-linecap="round" stroke-miterlimit="10"><path d="M37.5 22.5l-.025-.043"></path><path stroke-dasharray=".1029,1.2866" d="M36.827 21.345l-5.978-10.246"></path><path d="M30.525 10.543L30.5 10.5"></path></g><path fill-rule="evenodd" clip-rule="evenodd" fill="#b6c9d6" d="M37.5 22.5l-7-12"></path><g fill="none" stroke="#788b9c" stroke-linecap="round" stroke-miterlimit="10"><path d="M28.5 24.5l-.017-.047"></path><path stroke-dasharray=".1001,1.2514" d="M28.062 23.274l-4.335-12.138"></path><path d="M23.517 10.547L23.5 10.5"></path></g><path fill-rule="evenodd" clip-rule="evenodd" fill="#b6c9d6" d="M28.5 24.5l-5-14"></path><circle cx="37.5" cy="22.5" r="2" fill="#8bb7f0"></circle><path d="M37.5 21c.827 0 1.5.673 1.5 1.5s-.673 1.5-1.5 1.5-1.5-.673-1.5-1.5.673-1.5 1.5-1.5m0-1a2.5 2.5 0 100 5 2.5 2.5 0 000-5z" fill="#4e7ab5"></path><circle cx="28.5" cy="24.5" r="2" fill="#8bb7f0"></circle><path d="M28.5 23c.827 0 1.5.673 1.5 1.5s-.673 1.5-1.5 1.5-1.5-.673-1.5-1.5.673-1.5 1.5-1.5m0-1a2.5 2.5 0 100 5 2.5 2.5 0 000-5z" fill="#4e7ab5"></path><g fill="none" stroke="#788b9c" stroke-linecap="round" stroke-miterlimit="10"><path d="M2.5 22.5l.025-.043"></path><path stroke-dasharray=".1029,1.2866" d="M3.173 21.345l5.978-10.246"></path><path d="M9.475 10.543L9.5 10.5"></path></g><path fill-rule="evenodd" clip-rule="evenodd" fill="#b6c9d6" d="M2.5 22.5l7-12"></path><g fill="none" stroke="#788b9c" stroke-linecap="round" stroke-miterlimit="10"><path d="M11.5 24.5l.017-.047"></path><path stroke-dasharray=".1001,1.2514" d="M11.938 23.274l4.335-12.138"></path><path d="M16.483 10.547l.017-.047"></path></g><path fill-rule="evenodd" clip-rule="evenodd" fill="#b6c9d6" d="M11.5 24.5l5-14"></path><circle cx="2.5" cy="22.5" r="2" fill="#8bb7f0"></circle><path d="M2.5 21c.827 0 1.5.673 1.5 1.5S3.327 24 2.5 24 1 23.327 1 22.5 1.673 21 2.5 21m0-1a2.5 2.5 0 100 5 2.5 2.5 0 000-5z" fill="#4e7ab5"></path><g><circle cx="11.5" cy="24.5" r="2" fill="#8bb7f0"></circle><path d="M11.5 23c.827 0 1.5.673 1.5 1.5s-.673 1.5-1.5 1.5-1.5-.673-1.5-1.5.673-1.5 1.5-1.5m0-1a2.5 2.5 0 100 5 2.5 2.5 0 000-5z" fill="#4e7ab5"></path></g><g><path fill="#bae0bd" d="M6.785 11.5l-1.192-7h28.814l-1.192 7z"></path><path d="M33.815 5l-1.023 6H7.208L6.185 5h27.63M35 4H5l1.364 8h27.273L35 4z" fill="#5e9c76"></path></g><g><path fill="#bae0bd" d="M11.081 4.5L20 1.527 28.919 4.5z"></path><path d="M20 2.054L25.838 4H14.162L20 2.054M20 1L8 5h24L20 1z" fill="#5e9c76"></path></g><g><circle cx="17" cy="8" r="1" fill="#fff"></circle></g><g><circle cx="12" cy="8" r="1" fill="#fff"></circle></g><g><circle cx="23" cy="8" r="1" fill="#fff"></circle></g><g><circle cx="28" cy="8" r="1" fill="#fff"></circle></g><g><ellipse cx="32" cy="8" rx=".5" ry="1" fill="#fff"/></g><g><ellipse cx="8" cy="8" rx=".5" ry="1" fill="#fff"/></g></svg>