<svg viewBox="0 0 40 40" xmlns="http://www.w3.org/2000/svg"><path fill="none" stroke="#c74343" stroke-linejoin="round" stroke-miterlimit="10" d="M32 37.5h7M1 37.5h7"></path><path d="M34.5 37.5V6a.5.5 0 00-.5-.5H6a.5.5 0 00-.5.5v31.5h-3V6c0-1.93 1.57-3.5 3.5-3.5h28c1.93 0 3.5 1.57 3.5 3.5v31.5h-3z" fill="#f78f8f"></path><path d="M34 3c1.654 0 3 1.346 3 3v31h-2V6a1 1 0 00-1-1H6a1 1 0 00-1 1v31H3V6c0-1.654 1.346-3 3-3h28m0-1H6a4 4 0 00-4 4v32h4V6h28v32h4V6a4 4 0 00-4-4z" fill="#c74343"></path><path fill="#b6c9d6" d="M25.5 2.5h2v3h-2z"></path><path d="M27 3v2h-1V3h1m1-1h-3v4h3V2z" fill="#788b9c"></path><path fill="#b6c9d6" d="M12.5 2.5h2v3h-2z"></path><path d="M14 3v2h-1V3h1m1-1h-3v4h3V2z" fill="#788b9c"></path><circle cx="26.5" cy="6.5" r=".5" fill="#788b9c"></circle><circle cx="26.5" cy="7.5" r=".5" fill="#788b9c"></circle><circle cx="26.5" cy="8.5" r=".5" fill="#788b9c"></circle><circle cx="26.5" cy="9.5" r=".5" fill="#788b9c"></circle><circle cx="26.5" cy="10.5" r=".5" fill="#788b9c"></circle><circle cx="26.5" cy="11.5" r=".5" fill="#788b9c"></circle><circle cx="26.5" cy="12.5" r=".5" fill="#788b9c"></circle><circle cx="26.5" cy="13.5" r=".5" fill="#788b9c"></circle><circle cx="26.5" cy="14.5" r=".5" fill="#788b9c"></circle><circle cx="26.5" cy="15.5" r=".5" fill="#788b9c"></circle><circle cx="26.5" cy="16.5" r=".5" fill="#788b9c"></circle><circle cx="26.5" cy="17.5" r=".5" fill="#788b9c"></circle><circle cx="26.5" cy="18.5" r=".5" fill="#788b9c"></circle><circle cx="26.5" cy="19.5" r=".5" fill="#788b9c"></circle><circle cx="26.5" cy="20.5" r=".5" fill="#788b9c"></circle><circle cx="26.5" cy="21.5" r=".5" fill="#788b9c"></circle><circle cx="26.5" cy="22.5" r=".5" fill="#788b9c"></circle><circle cx="26.5" cy="23.5" r=".5" fill="#788b9c"></circle><circle cx="26.5" cy="24.5" r=".5" fill="#788b9c"></circle><circle cx="26.5" cy="25.5" r=".5" fill="#788b9c"></circle><circle cx="26.5" cy="26.5" r=".5" fill="#788b9c"></circle><circle cx="26.5" cy="27.5" r=".5" fill="#788b9c"></circle><circle cx="26.5" cy="28.5" r=".5" fill="#788b9c"></circle><circle cx="26.5" cy="29.5" r=".5" fill="#788b9c"></circle><circle cx="13.5" cy="6.5" r=".5" fill="#788b9c"></circle><circle cx="13.5" cy="7.5" r=".5" fill="#788b9c"></circle><circle cx="13.5" cy="8.5" r=".5" fill="#788b9c"></circle><circle cx="13.5" cy="9.5" r=".5" fill="#788b9c"></circle><circle cx="13.5" cy="10.5" r=".5" fill="#788b9c"></circle><circle cx="13.5" cy="11.5" r=".5" fill="#788b9c"></circle><circle cx="13.5" cy="12.5" r=".5" fill="#788b9c"></circle><circle cx="13.5" cy="13.5" r=".5" fill="#788b9c"></circle><circle cx="13.5" cy="14.5" r=".5" fill="#788b9c"></circle><circle cx="13.5" cy="15.5" r=".5" fill="#788b9c"></circle><circle cx="13.5" cy="16.5" r=".5" fill="#788b9c"></circle><circle cx="13.5" cy="17.5" r=".5" fill="#788b9c"></circle><circle cx="13.5" cy="18.5" r=".5" fill="#788b9c"></circle><circle cx="13.5" cy="19.5" r=".5" fill="#788b9c"></circle><circle cx="13.5" cy="20.5" r=".5" fill="#788b9c"></circle><circle cx="13.5" cy="21.5" r=".5" fill="#788b9c"></circle><circle cx="13.5" cy="22.5" r=".5" fill="#788b9c"></circle><circle cx="13.5" cy="23.5" r=".5" fill="#788b9c"></circle><circle cx="13.5" cy="24.5" r=".5" fill="#788b9c"></circle><circle cx="13.5" cy="25.5" r=".5" fill="#788b9c"></circle><circle cx="13.5" cy="26.5" r=".5" fill="#788b9c"></circle><circle cx="13.5" cy="27.5" r=".5" fill="#788b9c"></circle><circle cx="13.5" cy="28.5" r=".5" fill="#788b9c"></circle><circle cx="13.5" cy="29.5" r=".5" fill="#788b9c"></circle><g><path d="M20 34.5c-2.628 0-5.234-.753-6.232-1.077-.163-.053-.268-.181-.268-.327v-2.493c0-.061.073-.104.138-.104 1.329.402 3.841 1.063 6.362 1.063s5.033-.661 6.307-1.055l.03-.001c.103 0 .163.041.163.096v2.493c0 .146-.104.274-.267.327-.999.325-3.605 1.078-6.233 1.078z" fill="#8bb7f0"></path><path d="M26 31.122v1.851C24.971 33.302 22.491 34 20 34s-4.971-.698-6-1.027v-1.851c1.39.402 3.687.941 6 .941s4.61-.539 6-.941M26.362 30a.686.686 0 00-.203.031c-1.247.386-3.703 1.032-6.159 1.032s-4.912-.646-6.159-1.032a.686.686 0 00-.203-.031c-.341 0-.638.259-.638.603v2.493c0 .364.246.684.613.803C14.758 34.27 17.346 35 20 35s5.242-.73 6.387-1.101c.367-.119.613-.439.613-.803v-2.493c0-.344-.297-.603-.638-.603z" fill="#4e7ab5"></path></g></svg>