<svg viewBox="0 0 40 40" xmlns="http://www.w3.org/2000/svg"><path fill="none" stroke="#788b9c" stroke-miterlimit="10" d="M36.512 6.5H17M12.5 30.425V8"></path><path d="M19.573 32.5c-3.427 0-5.875-1.457-6.816-2.123l3.277-3.266 3.051 1.013a.5.5 0 00.51-.121L34.079 13.57a.5.5 0 00.122-.513l-1.017-3.037 3.273-3.262c1.323 1.901 5.604 9.657-4.198 19.426-4.204 4.191-8.473 6.316-12.686 6.316.001 0 .001 0 0 0z" fill="#f78f8f"></path><path d="M36.373 7.55c1.469 2.439 4.34 9.506-4.467 18.281C27.798 29.924 23.649 32 19.573 32a11.562 11.562 0 01-6.029-1.702l2.625-2.616 2.758.916a.998.998 0 001.02-.24l.131-.13 2.321-2.313 12.033-11.991a1 1 0 00.242-1.026l-.917-2.743 2.616-2.605M36.512 6l-3.9 3.886 1.114 3.331-12.033 11.991-2.321 2.313-.13.129-3.342-1.11-3.9 3.885S14.891 33 19.573 33c3.499 0 7.998-1.437 13.039-6.461C44.172 15.021 36.512 6 36.512 6z" fill="#c74343"></path><circle transform="rotate(-44.899 34.273 17.471)" cx="34.275" cy="17.473" fill="#fff" r=".674"></circle><circle transform="rotate(-44.899 31.573 20.171)" cx="31.575" cy="20.173" fill="#fff" r=".674"></circle><circle transform="rotate(-44.899 28.873 22.871)" cx="28.875" cy="22.873" fill="#fff" r=".674"></circle><circle transform="rotate(-44.899 26.173 25.571)" cx="26.175" cy="25.573" fill="#fff" r=".674"></circle><circle transform="rotate(-44.899 23.391 27.817)" cx="23.393" cy="27.819" fill="#fff" r=".677"></circle><path fill="#bae0bd" d="M1.66 37.5l8.719-31h2.961l-8.719 31z"></path><path d="M12.68 7L4.242 37H2.32l8.438-30h1.922M14 6h-4L1 38h4l9-32z" fill="#5e9c76"></path><g><path fill="#bae0bd" d="M23.379 37.5l-8.719-31h2.961l8.719 31z"></path><path d="M17.242 7l8.438 30h-1.922L15.32 7h1.922M18 6h-4l9 32h4L18 6z" fill="#5e9c76"></path></g><g><circle cx="14" cy="6" r="3.5" fill="#ffeea3"></circle><path d="M14 3c1.654 0 3 1.346 3 3s-1.346 3-3 3-3-1.346-3-3 1.346-3 3-3m0-1a4 4 0 100 8 4 4 0 000-8z" fill="#ba9b48"></path></g></svg>