<svg viewBox="0 0 40 40" xmlns="http://www.w3.org/2000/svg"><path d="M3 30.5A2.503 2.503 0 01.5 28V12c0-1.378 1.122-2.5 2.5-2.5h34c1.378 0 2.5 1.122 2.5 2.5v16c0 1.378-1.122 2.5-2.5 2.5H3z" fill="#8bb7f0"></path><path d="M37 10c1.103 0 2 .897 2 2v16c0 1.103-.897 2-2 2H3c-1.103 0-2-.897-2-2V12c0-1.103.897-2 2-2h34m0-1H3a3 3 0 00-3 3v16a3 3 0 003 3h34a3 3 0 003-3V12a3 3 0 00-3-3z" fill="#4e7ab5"></path><path d="M21.5 28h15a.5.5 0 00.5-.5v-15a.5.5 0 00-.5-.5h-15a.5.5 0 00-.5.5v15a.5.5 0 00.5.5z" fill="#fff"></path></svg>