<svg viewBox="0 0 40 40" xmlns="http://www.w3.org/2000/svg"><path fill="#deb974" d="M1.5 34.5h18v2h-18z"></path><path d="M19 35v1H2v-1h17m1-1H1v3h19v-3z" fill="#967a44"></path><path fill="#deb974" d="M1.5 29.5h18v2h-18z"></path><path d="M19 30v1H2v-1h17m1-1H1v3h19v-3z" fill="#967a44"></path><path fill="#deb974" d="M1.5 24.5h22v2h-22z"></path><path d="M23 25v1H2v-1h21m1-1H1v3h23v-3z" fill="#967a44"></path><path fill="#deb974" d="M1.5 19.5h26v2h-26z"></path><path d="M27 20v1H2v-1h25m1-1H1v3h27v-3z" fill="#967a44"></path><path fill="#deb974" d="M1.5 14.5h31v2h-31z"></path><path d="M32 15v1H2v-1h30m1-1H1v3h32v-3z" fill="#967a44"></path><path fill="#deb974" d="M1.5 9.5h35v2h-35z"></path><path d="M36 10v1H2v-1h34m1-1H1v3h36V9z" fill="#967a44"></path><g><path fill="#deb974" d="M1.5 4.5h37v2h-37z"></path><path d="M38 5v1H2V5h36m1-1H1v3h38V4z" fill="#967a44"></path></g><g><path fill="#dcd5f2" d="M2.5 1.5h3v37h-3z"></path><path d="M5 2v36H3V2h2m1-1H2v38h4V1z" fill="#8b75a1"></path></g><g><path fill="#dcd5f2" d="M12.5 1.5h3v37h-3z"></path><path d="M15 2v36h-2V2h2m1-1h-4v38h4V1z" fill="#8b75a1"></path></g><g><path d="M2.506 38.5c.22-10.128 7.096-17.285 13.174-23.611 4.564-4.751 8.529-8.878 8.805-13.389h3.005c-.259 5.771-4.95 10.695-9.909 15.899C11.753 23.516 5.73 29.837 5.507 38.5H2.506z" fill="#dcd5f2"></path><path d="M26.953 2c-.505 5.367-4.996 10.081-9.735 15.055C11.702 22.844 5.478 29.377 5.026 38H3.023c.434-9.667 7.107-16.613 13.018-22.764C20.519 10.574 24.429 6.504 24.943 2h2.01M28 1h-4C24 11.5 2 20.438 2 39h4C6 22.5 28 14.125 28 1z" fill="#8b75a1"></path></g><g><path d="M12.506 38.5c.22-10.128 7.096-17.285 13.174-23.611 4.564-4.751 8.529-8.878 8.805-13.389h3.005c-.259 5.771-4.95 10.695-9.909 15.899C21.753 23.516 15.73 29.837 15.507 38.5h-3.001z" fill="#dcd5f2"></path><path d="M36.953 2c-.505 5.367-4.996 10.081-9.735 15.055C21.702 22.844 15.478 29.377 15.026 38h-2.004c.434-9.667 7.107-16.613 13.018-22.764C30.519 10.574 34.429 6.504 34.943 2h2.01M38 1h-4c0 10.5-22 19.438-22 38h4c0-16.5 22-24.875 22-38z" fill="#8b75a1"></path></g></svg>