<svg viewBox="0 0 40 40" xmlns="http://www.w3.org/2000/svg"><path fill="#e1ebf2" d="M2.5 6.5h34.637v27H2.5z"></path><path d="M36.636 7v26H3V7h33.636m1-1H2v28h35.636V6z" fill="#a3b7cc"></path><path fill="#4b6477" d="M20.5 6.5h17v27h-17z"></path><path d="M37 7v26H21V7h16m1-1H20v28h18V6z" fill="#36404d"></path><circle cx="25.5" cy="13.5" r="2" fill="#36404d"></circle><path d="M25.5 12c.827 0 1.5.673 1.5 1.5s-.673 1.5-1.5 1.5-1.5-.673-1.5-1.5.673-1.5 1.5-1.5m0-1a2.5 2.5 0 100 5 2.5 2.5 0 000-5z" fill="#b0c1d4"></path><circle cx="32.5" cy="13.5" r="2" fill="#36404d"></circle><path d="M32.5 12c.827 0 1.5.673 1.5 1.5s-.673 1.5-1.5 1.5-1.5-.673-1.5-1.5.673-1.5 1.5-1.5m0-1a2.5 2.5 0 100 5 2.5 2.5 0 000-5z" fill="#b0c1d4"></path><circle cx="25.5" cy="21.5" r="2" fill="#36404d"></circle><path d="M25.5 20c.827 0 1.5.673 1.5 1.5s-.673 1.5-1.5 1.5-1.5-.673-1.5-1.5.673-1.5 1.5-1.5m0-1a2.5 2.5 0 100 5 2.5 2.5 0 000-5z" fill="#b0c1d4"></path><g><circle cx="32.5" cy="21.5" r="2" fill="#36404d"></circle><path d="M32.5 20c.827 0 1.5.673 1.5 1.5s-.673 1.5-1.5 1.5-1.5-.673-1.5-1.5.673-1.5 1.5-1.5m0-1a2.5 2.5 0 100 5 2.5 2.5 0 000-5z" fill="#b0c1d4"></path></g><g><circle cx="25.5" cy="28.5" r="1.5" fill="#ffeea3"></circle></g><g><circle cx="32.5" cy="28.5" r="1.5" fill="#ffeea3"></circle></g><g><path fill="#8bb7f0" d="M8.5 12.5h6v16h-6z"></path><path d="M14 13v15H9V13h5m1-1H8v17h7V12z" fill="#4e7ab5"></path></g><path fill="#4e7ab5" d="M8 20h7v3H8z"></path></svg>