<svg viewBox="0 0 40 40" xmlns="http://www.w3.org/2000/svg"><path d="M10.208 38.5c-2.391 0-4.595-.887-6.207-2.499-3.58-3.582-3.272-9.715.685-13.674 2.024-2.024 4.744-3.185 7.463-3.185 2.392 0 4.596.888 6.209 2.5 1.729 1.728 2.612 4.097 2.49 6.67-.124 2.592-1.251 5.078-3.175 7.001-2.025 2.026-4.745 3.187-7.465 3.187zm2.278-18c-2.058 0-4.042.851-5.588 2.397-3.08 3.079-3.296 7.874-.482 10.688 1.286 1.286 3.021 1.994 4.885 1.994 2.114 0 4.229-.902 5.803-2.476 3.051-3.051 3.199-7.684.339-10.545a6.97 6.97 0 00-4.957-2.058z" fill="#f78f8f"></path><path d="M12.149 19.643c2.257 0 4.337.836 5.856 2.354 1.627 1.627 2.46 3.862 2.344 6.293-.118 2.467-1.193 4.837-3.029 6.671C15.387 36.893 12.795 38 10.208 38c-2.257 0-4.336-.835-5.853-2.352-3.385-3.387-3.078-9.204.685-12.967 1.93-1.931 4.521-3.038 7.109-3.038m-.848 16.436c2.246 0 4.49-.956 6.156-2.622 3.248-3.249 3.397-8.192.339-11.252A7.46 7.46 0 0012.486 20c-2.191 0-4.301.903-5.941 2.543-3.274 3.274-3.491 8.386-.483 11.395 1.381 1.381 3.241 2.141 5.239 2.141m.848-17.436c-2.755 0-5.607 1.122-7.816 3.331-4.16 4.16-4.466 10.598-.685 14.381C5.42 38.126 7.776 39 10.208 39c2.756 0 5.608-1.122 7.819-3.331 4.16-4.159 4.467-10.598.685-14.379-1.774-1.773-4.131-2.647-6.563-2.647zm-.848 16.436c-1.657 0-3.277-.593-4.532-1.847-2.724-2.725-2.326-7.172.483-9.981 1.48-1.479 3.374-2.25 5.234-2.25 1.671 0 3.313.622 4.603 1.911 2.723 2.725 2.469 7.029-.339 9.838-1.516 1.515-3.508 2.329-5.449 2.329z" fill="#c74343"></path><path d="M27.852 20.857c-2.391 0-4.596-.888-6.208-2.5-1.728-1.728-2.611-4.097-2.489-6.67.123-2.592 1.251-5.078 3.174-7.001C24.354 2.661 27.074 1.5 29.793 1.5c2.391 0 4.595.888 6.207 2.5 3.579 3.582 3.272 9.716-.686 13.673-2.024 2.023-4.744 3.184-7.462 3.184zM28.559 4.5c-2.035 0-3.998.842-5.527 2.372-3.126 3.126-3.404 7.935-.622 10.719 1.231 1.231 2.921 1.909 4.756 1.909 2.181 0 4.354-.922 5.964-2.531 3.017-3.02 3.164-7.603.335-10.433A6.9 6.9 0 0028.559 4.5z" fill="#839cb2"></path><path d="M29.793 2c2.257 0 4.336.836 5.853 2.353 3.385 3.386 3.078 9.203-.685 12.966-1.931 1.931-4.522 3.038-7.109 3.038-2.257 0-4.337-.836-5.855-2.354-1.627-1.627-2.459-3.862-2.343-6.293.117-2.467 1.193-4.836 3.028-6.671C24.614 3.108 27.205 2 29.793 2m-2.628 18c2.312 0 4.615-.976 6.318-2.678 3.215-3.218 3.362-8.111.334-11.14A7.392 7.392 0 0028.559 4c-2.169 0-4.257.894-5.881 2.518-3.32 3.321-3.6 8.447-.622 11.427C23.382 19.27 25.196 20 27.165 20m2.628-19c-2.756 0-5.608 1.122-7.818 3.332-4.159 4.158-4.466 10.598-.685 14.378 1.773 1.772 4.13 2.647 6.562 2.647 2.755 0 5.607-1.122 7.817-3.331 4.159-4.16 4.466-10.598.685-14.38C34.581 1.874 32.224 1 29.793 1zm-2.628 18c-1.622 0-3.197-.558-4.403-1.763-2.692-2.694-2.154-7.235.623-10.012C24.848 5.762 26.721 5 28.559 5c1.652 0 3.276.615 4.551 1.89 2.693 2.694 2.442 6.947-.335 9.726C31.241 18.149 29.167 19 27.165 19z" fill="#66798f"></path><g><path d="M24.469 24.5c-.308 0-.595-.138-.879-.422l-7.67-7.67c-.899-.898-.095-1.757 0-1.852l1.88-1.878a3.995 3.995 0 012.843-1.178c1.074 0 2.084.418 2.843 1.178l3.836 3.836c.76.76 1.179 1.769 1.179 2.842s-.419 2.083-1.179 2.842l-1.88 1.879c-.002.003-.438.423-.973.423z" fill="#839cb2"></path><path d="M20.643 12c.94 0 1.824.366 2.488 1.032l3.836 3.836A3.494 3.494 0 0128 19.357c0 .94-.366 1.823-1.032 2.488l-1.88 1.879c-.003.004-.311.276-.619.276-.062 0-.249 0-.525-.275l-7.671-7.671c-.369-.368-.365-.756 0-1.144l1.88-1.879A3.501 3.501 0 0120.643 12m0-1a4.504 4.504 0 00-3.196 1.325l-1.88 1.878s-1.28 1.281 0 2.559l7.67 7.67c.427.426.853.568 1.232.568.758 0 1.326-.568 1.326-.568l1.88-1.879a4.518 4.518 0 000-6.392l-3.836-3.836A4.504 4.504 0 0020.643 11z" fill="#66798f"></path></g><g><path d="M18.914 29.5a4.294 4.294 0 01-3.056-1.267l-4.092-4.091a4.294 4.294 0 01-1.267-3.055 4.29 4.29 0 011.267-3.055l1.071-1.071c.003-.002.479-.46 1.063-.46.396.022.81.083 1.101.375.681.682 7.498 7.5 8.181 8.181.271.272.293.615.314.946.041.646-.452 1.158-.457 1.163l-1.07 1.069a4.3 4.3 0 01-3.055 1.265z" fill="#f78f8f"></path><path d="M13.9 17l.038.001c.24.015.537.054.709.226l8.181 8.181c.126.126.149.288.172.655.02.32-.224.653-.312.745l-1.073 1.072A3.795 3.795 0 0118.914 29c-1.02 0-1.98-.398-2.702-1.12l-4.092-4.092A3.792 3.792 0 0111 21.087c0-1.02.398-1.98 1.12-2.702l1.071-1.071c.003-.003.35-.314.709-.314m0-1c-.809 0-1.416.607-1.416.607l-1.071 1.071a4.818 4.818 0 000 6.817l4.092 4.092c.942.942 2.175 1.413 3.409 1.413s2.467-.471 3.408-1.413l1.072-1.071s.657-.657.603-1.516c-.024-.378-.045-.881-.462-1.298l-8.181-8.181c-.417-.418-.976-.494-1.354-.518a1.695 1.695 0 00-.1-.003z" fill="#c74343"></path></g></svg>