<svg viewBox="0 0 40 40" xmlns="http://www.w3.org/2000/svg"><path fill="#ffc49c" d="M3.397 32.31l8.708-8.709 4.292 4.293-8.708 8.708z"></path><path d="M12.106 24.308l3.586 3.586-8.001 8.001-3.586-3.586 8.001-8.001m0-1.414l-9.415 9.415 5 5 9.415-9.415-5-5z" fill="#a16a4a"></path><path fill="#dbf2ff" d="M13.787 26.213l-1.212-3.114L31.229 1.5H38.5v7.271L16.901 27.425z"></path><path d="M38 2v6.542L16.802 26.85l-2.628-1.024-1.024-2.628L31.458 2H38m1-1h-8L12 23l1.402 3.598L17 28 39 9V1z" fill="#7496c4"></path><path fill="#8bb7f0" d="M16.804 26.851L38 8.54V2L14.174 25.826z"></path><g><path d="M8.97 38.468c-.402 0-.778-.155-1.061-.438L1.97 32.091c-.282-.282-.438-.658-.438-1.061s.155-.778.438-1.061c.282-.282.658-.438 1.061-.438s.778.155 1.061.438l5.939 5.939c.282.282.438.658.438 1.061s-.155.778-.438 1.061a1.488 1.488 0 01-1.061.438z" fill="#ffeea3"></path><path d="M3.03 30.033c.269 0 .52.103.707.29l5.94 5.94c.187.187.29.438.29.707a.992.992 0 01-.997.997.992.992 0 01-.707-.29l-5.94-5.94a.992.992 0 01-.29-.707.992.992 0 01.997-.997m0-1c-.513 0-1.025.194-1.414.583a2.005 2.005 0 000 2.828l5.94 5.94c.389.389.901.583 1.414.583.513 0 1.025-.195 1.414-.583a2.005 2.005 0 000-2.828l-5.94-5.94a1.992 1.992 0 00-1.414-.583z" fill="#ba9b48"></path></g><g><path d="M18.95 32.447c-.402 0-.779-.155-1.062-.437l-9.899-9.899a1.504 1.504 0 010-2.122 1.494 1.494 0 011.061-.437c.402 0 .779.155 1.062.437l9.899 9.899a1.504 1.504 0 010 2.122 1.49 1.49 0 01-1.061.437z" fill="#ffeea3"></path><path d="M9.05 20.053c.269 0 .52.103.707.29l9.899 9.899c.187.187.29.438.29.707a.992.992 0 01-.997.997.992.992 0 01-.707-.29l-9.899-9.899c-.187-.187-.29-.438-.29-.707a.992.992 0 01.997-.997m0-1c-.513 0-1.025.194-1.414.583a2.005 2.005 0 000 2.828l9.899 9.899c.389.389.902.583 1.414.583.513 0 1.025-.194 1.414-.583a2.005 2.005 0 000-2.828l-9.899-9.899a1.99 1.99 0 00-1.414-.583z" fill="#ba9b48"></path></g></svg>