<svg viewBox="0 0 40 40" xmlns="http://www.w3.org/2000/svg"><path fill="#f5ce85" d="M5.5 38.5V16.135L20 5.618l14.5 10.517V38.5z"></path><path d="M20 6.235L34 16.39V38H6V16.39L20 6.235M20 5L5 15.88V39h30V15.88L20 5z" fill="#967a44"></path><path fill="#c74343" d="M20 5L5 15.88v1.353l15-10.88 15 10.88V15.88z"></path><path d="M15 39h10v-7a5 5 0 00-10 0v7zM20 10.929l1.175 2.035h2.351L22.351 15l1.175 2.036h-2.351L20 19.071l-1.175-2.035h-2.351L17.649 15l-1.175-2.036h2.351z" fill="#967a44"></path><path d="M36 8.5c-1.742 0-3.5-.729-3.5-2.357 0-1.087 2.028-3.215 3.5-4.488 1.472 1.273 3.5 3.401 3.5 4.488C39.5 7.771 37.742 8.5 36 8.5z" fill="#f78f8f"></path><path d="M36 2.32c1.545 1.389 3 3.102 3 3.822C39 7.426 37.493 8 36 8s-3-.574-3-1.857c0-.719 1.455-2.432 3-3.823M36 1s-4 3.302-4 5.143C32 7.984 33.791 9 36 9s4-1.016 4-2.857C40 4.302 36 1 36 1z" fill="#c74343"></path><path fill="#f5ce85" d="M33.5 8.5h5v30h-5z"></path><path d="M38 9v29h-4V9h4m1-1h-6v31h6V8z" fill="#967a44"></path><path fill="none" stroke="#c74343" stroke-linecap="round" stroke-linejoin="round" stroke-miterlimit="10" d="M33 8.5h6"></path><g><path d="M4 8.5C2.258 8.5.5 7.771.5 6.143.5 5.056 2.528 2.928 4 1.655c1.472 1.273 3.5 3.401 3.5 4.488C7.5 7.771 5.742 8.5 4 8.5z" fill="#f78f8f"></path><path d="M4 2.32c1.545 1.389 3 3.102 3 3.822C7 7.426 5.493 8 4 8s-3-.574-3-1.857c0-.719 1.455-2.432 3-3.823M4 1S0 4.302 0 6.143C0 7.984 1.791 9 4 9s4-1.016 4-2.857C8 4.302 4 1 4 1z" fill="#c74343"></path></g><g><path fill="#f5ce85" d="M1.5 8.5h5v30h-5z"></path><path d="M6 9v29H2V9h4m1-1H1v31h6V8z" fill="#967a44"></path></g><path fill="none" stroke="#c74343" stroke-linecap="round" stroke-linejoin="round" stroke-miterlimit="10" d="M1 8.5h6"></path></svg>