<svg viewBox="0 0 40 40" xmlns="http://www.w3.org/2000/svg"><path d="M20 38.5C9.799 38.5 1.5 30.201 1.5 20S9.799 1.5 20 1.5 38.5 9.799 38.5 20 30.201 38.5 20 38.5z" fill="#f5ce85"></path><path d="M20 2c9.925 0 18 8.075 18 18s-8.075 18-18 18S2 29.925 2 20 10.075 2 20 2m0-1C9.507 1 1 9.507 1 20s8.507 19 19 19 19-8.507 19-19S30.493 1 20 1z" fill="#967a44"></path><path fill="#fff" d="M34.5 20h-10l5-5zM5.5 20h10l-5 5z"></path><path d="M20 11.75c2.275 0 4.331.931 5.824 2.426l1.945-1.945A10.948 10.948 0 0020 9C13.925 9 9 13.925 9 20c0 .467.039.924.095 1.375h2.779A8.31 8.31 0 0111.75 20c0-4.549 3.701-8.25 8.25-8.25zM30.905 18.625h-2.779c.076.448.124.906.124 1.375 0 4.549-3.701 8.25-8.25 8.25a8.207 8.207 0 01-5.824-2.426l-1.945 1.945A10.948 10.948 0 0020 31c6.075 0 11-4.925 11-11 0-.467-.039-.924-.095-1.375z" fill="#fff"></path></svg>