<svg viewBox="0 0 40 40" xmlns="http://www.w3.org/2000/svg"><path fill="#8bb7f0" d="M27.574 9.135L32.5 4.208l3.293 3.293-4.926 4.927z"></path><path d="M32.5 4.914L35.086 7.5l-4.219 4.219-2.586-2.586L32.5 4.914m0-1.414l-5.633 5.633 4 4L36.5 7.5l-4-4z" fill="#4e7ab5"></path><path fill="#c2e8ff" d="M12.274 20.434L26.5 6.208l7.293 7.293-14.226 14.226z"></path><path d="M26.5 6.914l6.586 6.586-13.519 13.519-6.586-6.586L26.5 6.914m0-1.414L11.567 20.433l8 8L34.5 13.5l-8-8z" fill="#7496c4"></path><path fill="#7496c4" d="M18.5 13.5l1-1L23 16l-1 1zM21.5 10.5l1-1L26 13l-1 1zM15.5 16.5l1-1L20 19l-1 1z"></path><path fill="#66798f" d="M2 39v-2l9-9 1 1z"></path><g><path fill="#f78f8f" d="M11.207 29.5l-.707-.707v-6.586l2.5-2.5L20.293 27l-2.5 2.5z"></path><path d="M13 20.414L19.586 27l-2 2h-6.172L11 28.586v-6.172l2-2M13 19l-3 3v7l1 1h7l3-3-8-8z" fill="#c74343"></path></g><g><path fill="#8bb7f0" d="M29.707 2L30 1.707 38.293 10l-.293.293z"></path><path fill="#4e7ab5" d="M30 1l-1 1 9 9 1-1-9-9z"></path></g></svg>