<svg viewBox="0 0 40 40" xmlns="http://www.w3.org/2000/svg"><path fill="#b0c1d4" d="M16.5 27.5h7v6h-7z"></path><path d="M23 28v5h-6v-5h6m1-1h-8v7h8v-7z" fill="#66798f"></path><path fill="#f9b4b4" d="M1.5 3.5h37v26h-37z"></path><path d="M38 4v25H2V4h36m1-1H1v27h38V3z" fill="#66798f"></path><path fill="#66798f" d="M1 25h38v5H1zM31 36H9a3 3 0 013-3h16a3 3 0 013 3z"></path><path fill="#ffeea3" d="M34 27h3v1h-3z"></path><g><path fill="#f78f8f" d="M19.5 7.5h1v10h-1z"></path><path d="M20 8v9-9m1-1h-2v11h2V7z" fill="#c74343"></path></g><g><path fill="#f78f8f" d="M19.5 20.5h1v1h-1z"></path><path fill="#c74343" d="M21 20h-2v2h2v-2z"></path></g></svg>