<svg viewBox="0 0 40 40" xmlns="http://www.w3.org/2000/svg"><path d="M15 4s2-1 5-1 5 1 5 1l-1 2-4 2-3-1-2-3" fill="#8b75a1"></path><path d="M9.5 37.5V15a.5.5 0 00-.916-.277l-1.755 2.632c-1.77-.888-3.46-1.787-5.171-3.412 1.545-2.129 5.103-6.764 6.566-7.496 1.917-.958 6.825-1.947 6.875-1.957.305.01.396.285.402.516C15.5 5.297 16.45 7.5 20 7.5c3.375 0 4.5-1.971 4.5-2.5.006-.225.097-.5.5-.5-.049 0 4.859.989 6.776 1.947 1.463.731 5.021 5.366 6.566 7.496-1.711 1.625-3.401 2.524-5.171 3.412l-1.755-2.632A.499.499 0 0030.5 15v22.5h-21z" fill="#c0b3df"></path><path d="M15 5.021C15.027 5.685 16.29 8 20 8c3.803 0 5-2.338 4.999-2.972L25 5.021c.93.194 4.91 1.052 6.553 1.873 1.185.592 4.184 4.337 6.124 6.983-1.427 1.28-2.854 2.079-4.335 2.832l-1.509-2.264a1.004 1.004 0 00-1.123-.402A1 1 0 0030 15v22H10V15a1 1 0 00-1.832-.555l-1.509 2.264c-1.481-.753-2.908-1.552-4.335-2.832 1.94-2.646 4.939-6.39 6.124-6.983 1.642-.821 5.623-1.68 6.552-1.873M25 4c-1 0-1 1-1 1 0 .152-.81 2-4 2s-4-1.924-4-2c0 0 0-1-1-1 0 0-5 1-7 2s-7 8-7 8c2 2 4 3 6 4l2-3v23h22V15l2 3c2-1 4-2 6-4 0 0-5-7-7-8s-7-2-7-2z" fill="#8b75a1"></path><path fill="none" d="M15.623 13.225h8.754v13.584h-8.754z"></path><g><path d="M23.64 17.053c0 .567-.151 1.07-.453 1.508a3.028 3.028 0 01-1.242 1.023c.604.255 1.08.62 1.43 1.094.349.474.523 1.015.523 1.625 0 1.053-.357 1.861-1.07 2.426-.714.566-1.646.848-2.797.848-1.156 0-2.093-.281-2.809-.848-.716-.564-1.074-1.373-1.074-2.426 0-.613.173-1.156.52-1.628.346-.472.821-.835 1.426-1.09-.531-.245-.945-.586-1.242-1.023s-.445-.94-.445-1.508c0-1.011.331-1.793.992-2.348.661-.555 1.534-.832 2.617-.832s1.958.277 2.625.832c.665.554.999 1.336.999 2.347zm-2.016 5.093c0-.51-.15-.918-.449-1.226-.3-.308-.687-.461-1.161-.461s-.857.153-1.148.461c-.292.308-.438.716-.438 1.226 0 .521.146.932.438 1.23.292.301.68.449 1.164.449.474 0 .858-.15 1.153-.453.294-.3.441-.71.441-1.226zm-.266-4.991c0-.458-.121-.827-.364-1.105-.242-.278-.569-.418-.98-.418-.417 0-.741.137-.973.41-.232.273-.348.645-.348 1.113 0 .474.117.851.352 1.129s.562.418.984.418c.411 0 .735-.14.973-.418.237-.279.356-.656.356-1.129z" fill="#ffeea3"></path></g></svg>