<svg viewBox="0 0 40 40" xmlns="http://www.w3.org/2000/svg"><path fill="none" stroke="#967a44" stroke-miterlimit="10" d="M5.333 26.5h29.334"></path><path fill="#d6aa70" d="M5.5 13.5h29v4h-29z"></path><path d="M34 14v3H6v-3h28m1-1H5v5h30v-5z" fill="#8c6a3f"></path><path fill="#f5ce85" d="M3.5 13.5h3v20h-3z"></path><path d="M6 14v19H4V14h2m1-1H3v21h4V13z" fill="#967a44"></path><g><path fill="#f5ce85" d="M33.5 13.5h3v20h-3z"></path><path d="M36 14v19h-2V14h2m1-1h-4v21h4V13z" fill="#967a44"></path></g><g><path fill="#f5ce85" d="M.5 10.5h39v3H.5z"></path><path d="M39 11v2H1v-2h38m1-1H0v4h40v-4z" fill="#967a44"></path></g></svg>