<svg viewBox="0 0 40 40" xmlns="http://www.w3.org/2000/svg"><path fill="#66798f" d="M39 29v6h-5v-2H6v2H1v-6z"></path><path fill="none" stroke="#66798f" stroke-miterlimit="10" d="M7.5 2.5L31 5"></path><circle cx="31" cy="6" r="2" fill="#66798f"></circle><path d="M1.5 32.5V9c0-1.378 1.121-2.5 2.5-2.5h32c1.379 0 2.5 1.122 2.5 2.5v23.5h-37z" fill="#b0c1d4"></path><path d="M36 7c1.103 0 2 .897 2 2v23H2V9c0-1.103.897-2 2-2h32m0-1H4a3 3 0 00-3 3v24h38V9a3 3 0 00-3-3z" fill="#66798f"></path><path fill="none" stroke="#66798f" stroke-miterlimit="10" d="M6 11.5h28M6 14.5h28M6 17.5h28"></path><path fill="#fff" d="M8.5 20.5h23v5h-23z"></path><path d="M31 21v4H9v-4h22m1-1H8v6h24v-6z" fill="#66798f"></path><path fill="#dbf2ff" d="M8.5 29.5h23v3h-23z"></path><path d="M31 30v2H9v-2h22m1-1H8v4h24v-4z" fill="#7496c4"></path><circle cx="32" cy="23" r="2.5" fill="#dbf2ff"></circle><path d="M32 21c1.103 0 2 .897 2 2s-.897 2-2 2-2-.897-2-2 .897-2 2-2m0-1a3 3 0 100 6 3 3 0 000-6z" fill="#66798f"></path><circle cx="8" cy="23" r="2.5" fill="#dbf2ff"></circle><path d="M8 21c1.103 0 2 .897 2 2s-.897 2-2 2-2-.897-2-2 .897-2 2-2m0-1a3 3 0 100 6 3 3 0 000-6z" fill="#66798f"></path><path fill="none" stroke="#c74343" stroke-miterlimit="10" d="M23.5 25v-4"></path><path fill="#dbf2ff" stroke="#7496c4" stroke-miterlimit="10" d="M17.5 33v-4M22.5 33v-4M27.5 33v-4M12.5 33v-4"></path></svg>