<svg viewBox="0 0 40 40" xmlns="http://www.w3.org/2000/svg"><path d="M35 31.5c-1.93 0-3.5-1.57-3.5-3.5 0-.244.031-.5.097-.784l.054-.235-.15-.188a4.44 4.44 0 01-1-2.792c0-.481.09-.969.275-1.492l.1-.281-.2-.221A4.482 4.482 0 0129.5 19c0-.307.031-.613.092-.909l.126-.609-.655.009-.084.01c-2.154 0-4.012-1.558-4.396-3.703l-.059-.324-.32-.075a3.379 3.379 0 01-.612-.201l-.301-.133-.241.224c-.843.781-1.925 1.211-3.05 1.211s-2.207-.43-3.049-1.21l-.241-.224-.301.133a3.431 3.431 0 01-.612.201l-.32.075-.059.324A4.487 4.487 0 0111 17.5a.418.418 0 00-.096-.01l-.622-.008.126.609a4.477 4.477 0 01-1.083 3.914l-.2.221.1.281c.185.524.275 1.012.275 1.493a4.438 4.438 0 01-1 2.792l-.15.188.054.235c.065.285.096.541.096.785 0 1.93-1.57 3.5-3.5 3.5S1.5 29.93 1.5 28c0-.244.031-.5.097-.784l.054-.235-.151-.189A4.44 4.44 0 01.5 24c0-1.101.417-2.168 1.175-3.005l.2-.221-.1-.281A4.438 4.438 0 011.5 19c0-1.41.657-2.715 1.803-3.58l.199-.15v-.249a3.474 3.474 0 012.965-3.465l.276-.042.108-.258A4.494 4.494 0 0111 8.5c.102 0 .199.015.297.028l.504.058.161-.288A3.499 3.499 0 0115 6.5c.481 0 .956.102 1.41.301l.3.132.241-.223C17.793 5.93 18.875 5.5 20 5.5s2.207.43 3.049 1.21l.241.223.3-.132A3.497 3.497 0 0125 6.5c1.251 0 2.415.689 3.038 1.798l.161.288.504-.058c.098-.013.195-.028.297-.028a4.492 4.492 0 014.148 2.755l.108.258.276.042A3.474 3.474 0 0136.5 15v.249l.197.171c1.146.865 1.803 2.17 1.803 3.58 0 .481-.09.969-.275 1.492l-.1.281.2.221A4.481 4.481 0 0139.5 24a4.438 4.438 0 01-1 2.792l-.15.188.054.235c.065.285.096.541.096.785 0 1.93-1.57 3.5-3.5 3.5z" fill="#bae0bd"></path><path d="M20 6c.998 0 1.96.382 2.709 1.077l.482.447.602-.266A2.977 2.977 0 0125 7c1.07 0 2.067.591 2.602 1.543l.323.574.655-.07c.065-.007.129-.015.194-.024.074-.01.148-.023.226-.023 1.614 0 3.061.961 3.688 2.449l.217.515.552.085a2.976 2.976 0 012.542 2.885l-.001.005-.001.072-.004.503.402.303C37.415 16.589 38 17.748 38 19c0 .423-.081.857-.247 1.326l-.199.562.4.442A3.98 3.98 0 0139 24c0 .894-.308 1.752-.89 2.48l-.301.377.108.471c.056.245.083.465.083.672 0 1.654-1.346 3-3 3s-3-1.346-3-3c0-.207.027-.427.084-.672l.108-.471-.302-.377A3.945 3.945 0 0131 24c0-.423.081-.857.247-1.326l.199-.562-.4-.442A3.98 3.98 0 0130 19c0-.272.028-.544.082-.809l.252-1.227-1.252.026-.119.008-.015.002a3.99 3.99 0 01-3.875-3.29l-.116-.647-.64-.15a3.01 3.01 0 01-.524-.171l-.602-.266-.482.447C21.96 13.618 20.998 14 20 14s-1.96-.382-2.709-1.077l-.482-.447-.602.266a3.01 3.01 0 01-.524.171l-.64.15-.116.647A3.989 3.989 0 0111.048 17l-.066-.008-.063-.001-1.252-.026.252 1.227a3.98 3.98 0 01-.965 3.478l-.4.442.199.562c.166.469.247.903.247 1.326 0 .894-.308 1.752-.89 2.48l-.301.377.108.471c.056.245.083.465.083.672 0 1.654-1.346 3-3 3s-3-1.346-3-3c0-.207.027-.427.084-.672l.108-.471-.302-.377A3.945 3.945 0 011 24a3.98 3.98 0 011.046-2.67l.4-.442-.199-.562A3.94 3.94 0 012 19c0-1.252.585-2.411 1.605-3.181l.402-.303-.004-.503-.002-.073a2.975 2.975 0 012.542-2.89l.552-.085.217-.515A3.993 3.993 0 0111 9c.078 0 .152.013.227.023.064.009.129.017.194.024l.655.07.323-.574A2.996 2.996 0 0115 7c.413 0 .819.087 1.207.258l.602.266.482-.447A3.978 3.978 0 0120 6m0-1a4.969 4.969 0 00-3.389 1.344A3.977 3.977 0 0015 6c-1.498 0-2.789.834-3.474 2.053C11.351 8.034 11.18 8 11 8a5 5 0 00-4.609 3.061C4.473 11.357 3 13 3 15l.002.021C1.793 15.934 1 17.369 1 19c0 .585.119 1.138.304 1.659A4.964 4.964 0 000 24c0 1.18.426 2.25 1.109 3.105A3.994 3.994 0 001 28a4 4 0 008 0c0-.309-.043-.607-.109-.895A4.955 4.955 0 0010 24c0-.585-.119-1.138-.304-1.659a4.964 4.964 0 001.202-4.351c.035 0 .067.01.102.01a4.994 4.994 0 004.911-4.114c.242-.057.477-.131.7-.23C17.503 14.483 18.688 15 20 15s2.497-.517 3.389-1.344c.223.099.458.173.7.23A4.994 4.994 0 0029 18c.035 0 .067-.01.102-.01a4.964 4.964 0 001.202 4.351A4.936 4.936 0 0030 24c0 1.18.426 2.25 1.109 3.105A3.994 3.994 0 0031 28a4 4 0 008 0c0-.309-.043-.607-.109-.895A4.955 4.955 0 0040 24c0-1.29-.502-2.454-1.304-3.341A4.936 4.936 0 0039 19c0-1.631-.793-3.066-2.002-3.979L37 15c0-2-1.473-3.643-3.391-3.939A5 5 0 0029 8c-.18 0-.351.034-.526.053C27.789 6.834 26.498 6 25 6c-.574 0-1.117.126-1.611.344A4.969 4.969 0 0020 5z" fill="#5e9c76"></path><circle cx="22" cy="11" r="3" fill="#c74343"></circle><circle cx="11.5" cy="13.5" r="2.5" fill="#ffeea3"></circle><circle cx="18" cy="11" r="2" fill="#a16a4a"></circle><circle cx="31" cy="15" r="2" fill="#a16a4a"></circle><circle cx="33" cy="17" r="2" fill="#ffeea3"></circle><circle cx="5" cy="23" r="2" fill="#ffeea3"></circle><circle cx="6" cy="19" r="2" fill="#ffeea3"></circle><circle cx="25.5" cy="12.5" r="2.5" fill="#ffeea3"></circle><circle cx="8.333" cy="16.333" r="2.667" fill="#c74343"></circle><circle cx="34.5" cy="19.5" r="1.5" fill="#c74343"></circle><path d="M5 32.5c-.827 0-1.5-.673-1.5-1.5v-4c0-9.098 7.402-16.5 16.5-16.5S36.5 17.902 36.5 27v4c0 .827-.673 1.5-1.5 1.5H5z" fill="#f5ce85"></path><path d="M20 11c8.822 0 16 7.178 16 16v4c0 .551-.449 1-1 1H5c-.551 0-1-.449-1-1v-4c0-8.822 7.178-16 16-16m0-1c-9.389 0-17 7.611-17 17v4a2 2 0 002 2h30a2 2 0 002-2v-4c0-9.389-7.611-17-17-17z" fill="#967a44"></path><circle cx="13" cy="24" r="1" fill="#967a44"></circle><g><circle cx="11" cy="27" r="1" fill="#967a44"></circle></g><g><circle cx="15" cy="27" r="1" fill="#967a44"></circle></g></svg>