<svg viewBox="0 0 40 40" xmlns="http://www.w3.org/2000/svg"><path d="M14.93 32.5c-.478 0-.927-.186-1.265-.524L2.024 20.336a1.792 1.792 0 010-2.53L17.739 2.133a2.15 2.15 0 011.53-.633H30c1.379 0 2.5 1.122 2.5 2.5v10.77c0 .599-.243 1.184-.667 1.607L16.194 31.976a1.776 1.776 0 01-1.264.524zM28 4.5c-.827 0-1.5.673-1.5 1.5s.673 1.5 1.5 1.5 1.5-.673 1.5-1.5-.673-1.5-1.5-1.5z" fill="#f5ce85"></path><path d="M30 2c1.103 0 2 .897 2 2v10.77c0 .474-.185.918-.52 1.253l-15.639 15.6a1.283 1.283 0 01-.912.377 1.28 1.28 0 01-.911-.377l-11.64-11.64a1.291 1.291 0 01-.001-1.822L18.092 2.487A1.653 1.653 0 0119.269 2H30m-2 6c1.103 0 2-.897 2-2s-.897-2-2-2-2 .897-2 2 .897 2 2 2m2-7H19.269c-.706 0-1.383.28-1.883.779L1.671 17.453a2.289 2.289 0 000 3.237l11.64 11.64c.447.447 1.033.67 1.618.67.586 0 1.172-.223 1.618-.67l15.639-15.599A2.77 2.77 0 0033 14.77V4a3 3 0 00-3-3zm-2 6a1 1 0 110-2 1 1 0 010 2z" fill="#967a44"></path><g><path d="M20.93 38.5c-.478 0-.927-.186-1.265-.524L8.024 26.336a1.792 1.792 0 010-2.53L23.739 8.133a2.15 2.15 0 011.53-.633H36c1.379 0 2.5 1.122 2.5 2.5v10.77c0 .599-.243 1.184-.667 1.607L22.194 37.976a1.776 1.776 0 01-1.264.524zM34 10.5c-.827 0-1.5.673-1.5 1.5s.673 1.5 1.5 1.5 1.5-.673 1.5-1.5-.673-1.5-1.5-1.5z" fill="#f5ce85"></path><path d="M36 8c1.103 0 2 .897 2 2v10.77c0 .474-.185.918-.52 1.253l-15.639 15.6a1.283 1.283 0 01-.912.377 1.28 1.28 0 01-.911-.377l-11.64-11.64a1.291 1.291 0 01-.001-1.822L24.092 8.487A1.653 1.653 0 0125.269 8H36m-2 6c1.103 0 2-.897 2-2s-.897-2-2-2-2 .897-2 2 .897 2 2 2m2-7H25.269c-.706 0-1.383.28-1.883.779L7.671 23.453a2.289 2.289 0 000 3.237l11.64 11.64c.447.447 1.033.67 1.618.67.586 0 1.172-.223 1.618-.67l15.639-15.599A2.77 2.77 0 0039 20.77V10a3 3 0 00-3-3zm-2 6a1 1 0 110-2 1 1 0 010 2z" fill="#967a44"></path></g></svg>