<svg viewBox="0 0 40 40" xmlns="http://www.w3.org/2000/svg"><path d="M1.512 38.5c.268-5.559 4.982-10 10.738-10h7.5c5.756 0 10.47 4.441 10.738 10H1.512z" fill="#8bb7f0"></path><path d="M19.75 29c5.306 0 9.683 3.954 10.199 9H2.051c.516-5.046 4.893-9 10.199-9h7.5m0-1h-7.5C6.037 28 1 32.925 1 39h30c0-6.075-5.037-11-11.25-11z" fill="#4e7ab5"></path><path d="M16 31.5c-3.076 0-4.296-2.625-4.5-3.122v-5.469h9v5.469c-.204.497-1.424 3.122-4.5 3.122z" fill="#deb974"></path><path d="M20 23.41v4.865c-.263.59-1.393 2.725-4 2.725-2.611 0-3.741-2.141-4-2.725V23.41h8m1-1H11v6.062s1.267 3.529 5 3.529 5-3.529 5-3.529V22.41z" fill="#967a44"></path><path d="M22.429 20.643c-1.143 0-2.072-.929-2.072-2.071s.929-2.071 2.072-2.071c1.725 0 2.071.465 2.071 1.214 0 1.251-1.024 2.928-2.071 2.928zm-12.858 0c-1.047 0-2.071-1.677-2.071-2.929 0-.749.347-1.214 2.071-1.214 1.143 0 2.072.929 2.072 2.071s-.929 2.072-2.072 2.072z" fill="#deb974"></path><path d="M22.429 17C24 17 24 17.363 24 17.714c0 1.044-.896 2.429-1.571 2.429a1.572 1.572 0 010-3.143M9.571 17c.867 0 1.571.705 1.571 1.571s-.705 1.571-1.571 1.571C8.896 20.143 8 18.758 8 17.714 8 17.363 8 17 9.571 17m12.858-1a2.57 2.57 0 100 5.142c1.42 0 2.571-2.008 2.571-3.428S23.849 16 22.429 16zM9.571 16C8.151 16 7 16.294 7 17.714s1.151 3.429 2.571 3.429a2.57 2.57 0 100-5.143z" fill="#967a44"></path><g><path d="M16 27.5a2.25 2.25 0 01-1.56-.631l-.09-.086-.12-.034A6.518 6.518 0 019.5 20.5v-8.136a2.84 2.84 0 012.836-2.837h7.328a2.84 2.84 0 012.836 2.837V20.5a6.518 6.518 0 01-4.73 6.249l-.12.034-.09.086A2.25 2.25 0 0116 27.5z" fill="#f5ce85"></path><path d="M19.664 10.028A2.339 2.339 0 0122 12.364V20.5a6.017 6.017 0 01-4.367 5.768l-.239.068-.18.172c-.332.317-.763.492-1.214.492s-.882-.175-1.214-.492l-.18-.172-.239-.068A6.017 6.017 0 0110 20.5v-8.136a2.339 2.339 0 012.336-2.336h7.328m0-1h-7.328A3.336 3.336 0 009 12.364V20.5c0 3.205 2.156 5.9 5.095 6.731.496.474 1.165.769 1.905.769s1.409-.295 1.905-.769A6.998 6.998 0 0023 20.5v-8.136a3.336 3.336 0 00-3.336-3.336z" fill="#967a44"></path></g><g><path d="M22.5 18.5V15c0-3.484-2.217-4.425-2.312-4.463l-.342-.14-.234.287c-.023.029-2.329 2.816-5.612 2.816-.264 0-.53-.009-.791-.017a23.163 23.163 0 00-.778-.017c-.877 0-2.931 0-2.931 2.533v2.5h-.214c-.441-.772-1.786-3.348-1.786-5.923C7.5 7.821 10.995 4.5 16 4.5c3.078 0 4.499 2.621 4.557 2.732l.119.226.253.037C22.462 7.715 24.5 8.524 24.5 13c0 2.334-1.337 4.763-1.778 5.5H22.5z" fill="#a6714e"></path><path d="M16 5c2.762 0 4.062 2.367 4.113 2.463l.237.454.507.073C22.321 8.199 24 8.958 24 13c0 1.395-.515 2.842-1 3.894V15c0-3.816-2.516-4.883-2.623-4.926l-.687-.279-.467.577C19.201 10.397 17.06 13 14 13c-.259 0-.519-.008-.775-.017a24.05 24.05 0 00-.794-.017c-.849 0-3.431 0-3.431 3.034v.801c-.486-1.124-1-2.679-1-4.225C8 8.115 11.29 5 16 5m0-1c-5.36 0-9 3.667-9 8.576C7 15.828 9 19 9 19h1v-3c0-1.791 1.085-2.034 2.431-2.034.501 0 1.038.034 1.569.034 3.573 0 6-3 6-3s2 .813 2 4v4h1s2-3.037 2-6c0-4.161-1.703-5.671-4-6 0 0-1.566-3-5-3z" fill="#7a4f34"></path></g><g><path d="M20.87 19.445c.478-.942 1.05-2.248 1.611-3.687l.131-.336-.278-.23C20.507 13.675 19.5 11.653 19.5 9.5c0-4.411 4.262-8 9.5-8s9.5 3.589 9.5 8-4.262 8-9.5 8c-.662 0-1.328-.06-1.979-.177l-.177-.032-.157.089c-1.508.851-3.816 1.826-5.817 2.065z" fill="#f78f8f"></path><path d="M29 2c4.963 0 9 3.365 9 7.5S33.963 17 29 17c-.63 0-1.267-.057-1.892-.169l-.354-.063-.313.177c-1.541.87-3.236 1.525-4.698 1.843a54.755 54.755 0 001.204-2.847l.262-.672-.555-.461C20.943 13.386 20 11.501 20 9.5 20 5.365 24.037 2 29 2m0-1c-5.523 0-10 3.806-10 8.5 0 2.383 1.157 4.534 3.015 6.077C21.399 17.156 20.602 18.99 20 20c2.098 0 4.888-1.031 6.932-2.184.668.119 1.359.184 2.068.184 5.523 0 10-3.806 10-8.5S34.523 1 29 1z" fill="#c74343"></path></g></svg>