<svg viewBox="0 0 40 40" xmlns="http://www.w3.org/2000/svg"><path d="M1.512 38.5c.268-5.559 4.982-10 10.738-10h7.5c5.756 0 10.47 4.441 10.738 10H1.512z" fill="#8bb7f0"></path><path d="M19.75 29c5.306 0 9.683 3.954 10.199 9H2.051c.516-5.046 4.893-9 10.199-9h7.5m0-1h-7.5C6.037 28 1 32.925 1 39h30c0-6.075-5.037-11-11.25-11z" fill="#4e7ab5"></path><path d="M16 31.5c-3.076 0-4.296-2.625-4.5-3.122v-5.469h9v5.469c-.204.497-1.424 3.122-4.5 3.122z" fill="#deb974"></path><path d="M20 23.41v4.865c-.263.59-1.393 2.725-4 2.725-2.611 0-3.741-2.141-4-2.725V23.41h8m1-1H11v6.062s1.267 3.529 5 3.529 5-3.529 5-3.529V22.41z" fill="#967a44"></path><path d="M16 27.5a2.46 2.46 0 01-1.641-.63l-.09-.08-.117-.03A7.485 7.485 0 018.5 19.5v-9.298a3.316 3.316 0 013.312-3.313h8.375a3.316 3.316 0 013.313 3.313V19.5a7.485 7.485 0 01-5.652 7.26l-.117.03-.09.08A2.46 2.46 0 0116 27.5z" fill="#f5ce85"></path><path d="M20.187 7.389A2.816 2.816 0 0123 10.202V19.5a6.988 6.988 0 01-5.275 6.776l-.233.059-.181.159A1.972 1.972 0 0116 27a1.972 1.972 0 01-1.311-.506l-.181-.159-.233-.059A6.988 6.988 0 019 19.5v-9.298a2.816 2.816 0 012.813-2.813h8.374m0-1h-8.375A3.813 3.813 0 008 10.202V19.5c0 3.737 2.566 6.866 6.029 7.745.528.464 1.213.755 1.971.755s1.443-.291 1.971-.755C21.434 26.366 24 23.237 24 19.5v-9.298a3.813 3.813 0 00-3.813-3.813z" fill="#967a44"></path><g><path d="M24 27.5c-1.767 0-3.411-.911-4.27-1.484 1.045-.659 2.77-2.223 2.77-5.374v-4.724c0-2.41-2.086-4.223-2.175-4.298l-.43-.368-.312.473c-.021.031-2.135 3.156-6.651 3.78-2.358.325-3.432 2.109-3.432 3.628v1.509c0 3.193 1.708 4.735 2.757 5.38C11.398 26.596 9.764 27.5 8 27.5c-1.786 0-3.378-.935-4.159-1.484.881-.695 2.445-2.24 2.445-4.444 0-.928-.176-1.909-.362-2.948C5.715 17.462 5.5 16.262 5.5 15c0-8.488 5.387-11.5 10-11.5 3.802 0 5.031 2.675 5.043 2.703l.131.297H21c3.495 0 5.5 2.733 5.5 7.5 0 1.342-.268 2.836-.528 4.281-.243 1.353-.472 2.632-.472 3.719 0 1.844 1.459 2.852 2.642 3.281-.708.811-2.214 2.219-4.142 2.219z" fill="#a6714e"></path><path d="M15.5 4c3.427 0 4.543 2.315 4.586 2.405l.263.595H21c3.224 0 5 2.486 5 7 0 1.298-.264 2.769-.52 4.193C25.233 19.569 25 20.868 25 22c0 1.765 1.143 2.857 2.292 3.452C26.551 26.167 25.388 27 24 27c-1.274 0-2.497-.524-3.357-1.01C21.732 25.107 23 23.472 23 20.643v-4.724c0-2.638-2.254-4.596-2.35-4.678l-.858-.728-.626.936c-.081.121-2.03 2.971-6.303 3.561C10.209 15.376 9 17.404 9 19.133v1.509c0 2.863 1.254 4.489 2.342 5.361-.851.483-2.06.997-3.342.997-1.313 0-2.525-.556-3.331-1.041.942-.88 2.117-2.379 2.117-4.388 0-.972-.18-1.975-.37-3.036C6.211 17.396 6 16.218 6 15c0-8.119 5.118-11 9.5-11m0-1C10.212 3 5 6.694 5 15c0 2.454.786 4.682.786 6.571C5.786 24.327 3 26 3 26s2.254 2 5 2c2.794 0 5.211-2.056 5.211-2.056S10 24.918 10 20.643v-1.509c0-1.354.942-2.849 3-3.134 4.816-.665 7-4 7-4s2 1.711 2 3.919v4.724c0 4.194-3.214 5.302-3.214 5.302S21.225 28 24 28c3.005 0 5-3 5-3s-3-.535-3-3c0-2.19 1-5.352 1-8 0-5.761-2.766-8-6-8 0 0-1.328-3-5.5-3z" fill="#7a4f34"></path></g><g><path d="M20.87 19.445c.478-.942 1.05-2.248 1.611-3.687l.131-.336-.278-.23C20.507 13.675 19.5 11.653 19.5 9.5c0-4.411 4.262-8 9.5-8s9.5 3.589 9.5 8-4.262 8-9.5 8c-.662 0-1.328-.06-1.979-.177l-.177-.032-.157.089c-1.508.851-3.816 1.826-5.817 2.065z" fill="#f78f8f"></path><path d="M29 2c4.963 0 9 3.365 9 7.5S33.963 17 29 17c-.63 0-1.267-.057-1.892-.169l-.354-.063-.313.177c-1.541.87-3.236 1.525-4.698 1.843a54.755 54.755 0 001.204-2.847l.262-.672-.555-.461C20.943 13.386 20 11.501 20 9.5 20 5.365 24.037 2 29 2m0-1c-5.523 0-10 3.806-10 8.5 0 2.383 1.157 4.534 3.015 6.077C21.399 17.156 20.602 18.99 20 20c2.098 0 4.888-1.031 6.932-2.184.668.119 1.359.184 2.068.184 5.523 0 10-3.806 10-8.5S34.523 1 29 1z" fill="#c74343"></path></g></svg>