<svg viewBox="0 0 40 40" xmlns="http://www.w3.org/2000/svg"><path d="M4.5 22.5v-.022c0-.996.807-1.848 1.876-1.982l17.681-1.999L31 18.5c.577 0 1.14.218 1.544.597L35.5 22.2v.3h-31z" fill="#f5ce85"></path><path d="M31 19c.442 0 .872.162 1.184.445L34.619 22H5.088c.198-.525.711-.928 1.339-1.006L24.056 19H31m0-1h-7L6.314 20C4.989 20.166 4 21.225 4 22.478V23h32v-1l-3.114-3.268A2.76 2.76 0 0031 18z" fill="#967a44"></path><path fill="#f5ce85" d="M26.5 13.5h13v3h-13z"></path><path d="M39 14v2H27v-2h12m1-1H26v4h14v-4zM13 7h7v4h-7z" fill="#967a44"></path><path d="M8.906 33.5a4.813 4.813 0 01-3.312-1.314l-3.908-3.562-.105-.104A3.468 3.468 0 01.5 26c0-1.93 1.57-3.5 3.5-3.5h32c1.93 0 3.5 1.57 3.5 3.5 0 .989-.412 1.907-1.162 2.585l-.271.245.004.008-3.74 3.331A4.824 4.824 0 0131 33.5H8.906z" fill="#deb974"></path><path d="M36 23c1.654 0 3 1.346 3 3a2.96 2.96 0 01-.997 2.214l-.333.311-3.693 3.29A4.316 4.316 0 0131 33H8.907a4.327 4.327 0 01-2.982-1.189l-3.816-3.478-.181-.174A2.968 2.968 0 011 26c0-1.654 1.346-3 3-3h32m0-1H4a4 4 0 00-4 4 3.98 3.98 0 001.234 2.88l-.003.007L5.25 32.55A5.339 5.339 0 008.907 34H31a5.333 5.333 0 003.664-1.458l4.014-3.576-.004-.011A3.971 3.971 0 0040 26a4 4 0 00-4-4z" fill="#967a44"></path><circle cx="36" cy="26" r="1" fill="#967a44"></circle><circle cx="4" cy="26" r="1" fill="#967a44"></circle><circle cx="11.5" cy="28.5" r="2" fill="#f5ce85"></circle><path d="M11.5 27c.827 0 1.5.673 1.5 1.5s-.673 1.5-1.5 1.5-1.5-.673-1.5-1.5.673-1.5 1.5-1.5m0-1a2.5 2.5 0 100 5 2.5 2.5 0 000-5z" fill="#967a44"></path><g><circle cx="19.5" cy="28.5" r="2" fill="#f5ce85"></circle><path d="M19.5 27c.827 0 1.5.673 1.5 1.5s-.673 1.5-1.5 1.5-1.5-.673-1.5-1.5.673-1.5 1.5-1.5m0-1a2.5 2.5 0 100 5 2.5 2.5 0 000-5z" fill="#967a44"></path></g><g><circle cx="27.5" cy="28.5" r="2" fill="#f5ce85"></circle><path d="M27.5 27c.827 0 1.5.673 1.5 1.5s-.673 1.5-1.5 1.5-1.5-.673-1.5-1.5.673-1.5 1.5-1.5m0-1a2.5 2.5 0 100 5 2.5 2.5 0 000-5z" fill="#967a44"></path></g><g><path d="M15.113 18.5L9.51 15.835C8.903 15.469 8.5 14.757 8.5 14v-1c0-.726.36-1.4.965-1.803l1.107-.646A6.187 6.187 0 0114.019 9.5H22c1.325 0 2.64.438 3.7 1.233l2.8 2.491v3.568L26.793 18.5h-11.68z" fill="#f5ce85"></path><path d="M22 10c1.205 0 2.399.394 3.368 1.109L28 13.449v3.137L26.586 18h-11.36l-5.453-2.593A1.676 1.676 0 019 14v-1c0-.55.269-1.061.72-1.372l1.104-.645.026-.015.025-.017A5.654 5.654 0 0114.019 10H22m0-1h-7.982c-1.316 0-2.603.39-3.698 1.12l-1.133.662A2.666 2.666 0 008 13v1c0 .937.491 1.805 1.295 2.287L15 19h12l2-2v-4l-3-2.667A6.668 6.668 0 0022 9z" fill="#967a44"></path></g><g><circle cx="20.5" cy="14.5" r="1.5" fill="#fff"></circle></g></svg>