<svg viewBox="0 0 40 40" xmlns="http://www.w3.org/2000/svg"><path fill="#b0c1d4" d="M.5 7.5h39v25H.5z"></path><path d="M39 8v24H1V8h38m1-1H0v26h40V7z" fill="#66798f"></path><path fill="#fff" d="M16 14h8v11h-8z"></path><path fill="#e1ebf2" d="M3.5 14.5h11v10h-11z"></path><path d="M14 15v9H4v-9h10m1-1H3v11h12V14z" fill="#66798f"></path><path fill="#f78f8f" d="M16 22h8v3h-8z"></path><path d="M5 19.5c0 1.748.694 3.332 1.816 4.5H14v-9H6.816A6.476 6.476 0 005 19.5zm6.5-1.5a1.5 1.5 0 11-.001 3.001A1.5 1.5 0 0111.5 18z" fill="#36404d"></path><g><path fill="#e1ebf2" d="M25.5 14.5h11v10h-11z"></path><path d="M36 15v9H26v-9h10m1-1H25v11h12V14z" fill="#66798f"></path></g><path d="M35 19.5a6.476 6.476 0 00-1.816-4.5H26v9h7.184A6.476 6.476 0 0035 19.5zM28.5 21a1.5 1.5 0 11.001-3.001A1.5 1.5 0 0128.5 21z" fill="#36404d"></path></svg>