<svg viewBox="0 0 40 40" xmlns="http://www.w3.org/2000/svg"><path fill="#ffc49c" d="M6.5 37.5v-35h18.293l8.707 8.707V37.5z"></path><path d="M24.586 3L33 11.414V37H7V3h17.586M25 2H6v36h28V11l-9-9z" fill="#a16a4a"></path><path fill="#fff" d="M24.5 11.5v-9h.293l8.707 8.707v.293z"></path><path d="M25 3.414L32.586 11H25V3.414M25 2h-1v10h10v-1l-9-9zM13.143 19.352h-1.547v-1.573h4.811v1.573h-1.561v7.189h-1.703v-7.189zM18.382 24.539l-.391 2.002h-1.65l1.897-8.763h2.041l1.703 8.763h-1.65l-.377-2.002h-1.573zm1.417-1.326l-.286-1.833c-.091-.533-.208-1.417-.286-1.989h-.039c-.091.585-.221 1.482-.312 1.989l-.325 1.833h1.248zM23.074 17.908a10.176 10.176 0 011.859-.169c.937 0 1.781.144 2.34.65.533.481.702 1.066.702 1.82 0 .936-.468 1.781-1.352 2.184v.026c.598.247.896.793 1.065 1.742.169.975.403 2.054.56 2.379h-1.781c-.117-.247-.312-1.131-.442-2.106-.155-1.079-.429-1.391-.987-1.391h-.261v3.497h-1.703v-8.632zm1.703 3.822h.312c.741 0 1.157-.598 1.157-1.364 0-.755-.3-1.274-1.054-1.301-.155 0-.324.014-.416.053v2.612z" fill="#a16a4a"></path></svg>