<svg viewBox="0 0 40 40" xmlns="http://www.w3.org/2000/svg"><path fill="#8bb7f0" d="M9.5 38.5V7.372L19.073 4.5h1.854L30.5 7.372V38.5z"></path><path d="M20.853 5L30 7.744V38H10V7.744L19.147 5h1.706M21 4h-2L9 7v32h22V7L21 4z" fill="#4e7ab5"></path><path fill="#36404d" d="M8.5 8.5h23v3h-23z"></path><path d="M31 9v2H9V9h22m1-1H8v4h24V8z" fill="#4e7ab5"></path><path fill="#8bb7f0" d="M8.5 36.5h23v2h-23z"></path><path d="M31 37v1H9v-1h22m1-1H8v3h24v-3z" fill="#4e7ab5"></path><path fill="#fff" d="M14 13h2v3h-2zM14 17h2v3h-2zM17 13h2v3h-2zM17 17h2v3h-2zM11 13h2v3h-2zM11 17h2v3h-2zM24 13h2v3h-2zM24 17h2v3h-2zM27 13h2v3h-2zM27 17h2v3h-2zM21 13h2v3h-2zM21 17h2v3h-2z"></path><path fill="#8bb7f0" d="M12.5 22.5h5v4h-5z"></path><path d="M17 23v3h-4v-3h4m1-1h-6v5h6v-5z" fill="#4e7ab5"></path><g><path fill="#8bb7f0" d="M22.5 22.5h5v4h-5z"></path><path d="M27 23v3h-4v-3h4m1-1h-6v5h6v-5z" fill="#4e7ab5"></path></g><g><path fill="#8bb7f0" d="M12.5 29.5h5v4h-5z"></path><path d="M17 30v3h-4v-3h4m1-1h-6v5h6v-5z" fill="#4e7ab5"></path></g><g><path fill="#8bb7f0" d="M22.5 29.5h5v4h-5z"></path><path d="M27 30v3h-4v-3h4m1-1h-6v5h6v-5z" fill="#4e7ab5"></path></g><g><path fill="#ffeea3" d="M19.5 1.5h1v2h-1z"></path><path fill="#f5c276" d="M21 1h-2v3h2V1z"></path></g></svg>