<svg viewBox="0 0 40 40" xmlns="http://www.w3.org/2000/svg"><path d="M6.5 26c.105-2.095.985-3.142 1.954-4.111L21.818 8.525l3.534 3.534L6.505 30.773C6.503 29.792 6.5 28.205 6.5 26z" fill="#f5ce85"></path><path d="M21.818 9.232l2.826 2.826L7.003 29.575l-.004-3.525c.097-1.945.877-2.875 1.809-3.808l13.01-13.01m0-1.414L8.101 21.535C7.054 22.582 6.114 23.73 6 26c0 4 .01 5.97.01 5.97l20.051-19.91-4.243-4.242z" fill="#967a44"></path><path d="M20.916 9.428l1.726-1.726-.049-.26A4.961 4.961 0 0122.5 6.5c0-2.757 2.243-5 5-5s5 2.243 5 5-2.243 5-5 5a5.03 5.03 0 01-1.133-.134l-.27-.063-1.653 1.653-3.528-3.528zM27.5 4.167c-1.287 0-2.333 1.047-2.333 2.333s1.047 2.333 2.333 2.333 2.333-1.047 2.333-2.333-1.046-2.333-2.333-2.333z" fill="#ffc49c"></path><path d="M27.5 2C29.981 2 32 4.019 32 6.5S29.981 11 27.5 11c-.33 0-.673-.041-1.02-.121l-.541-.125-.392.392-1.103 1.103-2.821-2.821 1.185-1.185.374-.374-.099-.52A4.561 4.561 0 0123 6.5C23 4.019 25.019 2 27.5 2m0 7.333A2.836 2.836 0 0030.333 6.5c0-1.562-1.271-2.833-2.833-2.833S24.667 4.938 24.667 6.5A2.836 2.836 0 0027.5 9.333M27.5 1A5.5 5.5 0 0022 6.5c0 .354.037.7.101 1.035l-1.892 1.892 4.235 4.235 1.81-1.81c.401.094.817.148 1.246.148a5.5 5.5 0 100-11zm0 7.333a1.833 1.833 0 110-3.666 1.833 1.833 0 010 3.666z" fill="#a16a4a"></path><path fill="#bae0bd" d="M1.5 19.5h36v19h-36z"></path><path d="M37 20v18H2V20h35m1-1H1v20h37V19z" fill="#5e9c76"></path><ellipse cx="19.5" cy="29" rx="7" ry="7.5" fill="#fff"/><path d="M19.5 22c3.584 0 6.5 3.14 6.5 7s-2.916 7-6.5 7-6.5-3.14-6.5-7 2.916-7 6.5-7m0-1c-4.142 0-7.5 3.582-7.5 8s3.358 8 7.5 8c4.142 0 7.5-3.582 7.5-8s-3.358-8-7.5-8z" fill="#5e9c76"></path><circle cx="7" cy="29" r="2.5" fill="#fff"></circle><path d="M7 27c1.103 0 2 .897 2 2s-.897 2-2 2-2-.897-2-2 .897-2 2-2m0-1a3 3 0 100 6 3 3 0 000-6z" fill="#5e9c76"></path><g><circle cx="32" cy="29" r="2.5" fill="#fff"></circle><path d="M32 27c1.103 0 2 .897 2 2s-.897 2-2 2-2-.897-2-2 .897-2 2-2m0-1a3 3 0 100 6 3 3 0 000-6z" fill="#5e9c76"></path></g><g><g fill="none" stroke="#66798f" stroke-miterlimit="10"><path d="M19.5 19v1.5"></path><path stroke-dasharray="3,2" d="M19.5 22.5v14"></path><path d="M19.5 37.5V39"></path></g></g><g><path d="M12.648 12.059l3.534-3.534 13.364 13.364c.969.97 1.849 2.016 1.955 4.136 0 2.189-.003 3.77-.006 4.748L12.648 12.059z" fill="#fff7d1"></path><path d="M16.182 9.232l13.01 13.01c.932.933 1.712 1.863 1.808 3.758 0 1.462-.001 2.653-.003 3.575L13.356 12.058l2.826-2.826m0-1.414l-4.243 4.243 20.051 19.91C31.991 31.97 32 30 32 26c-.114-2.27-1.054-3.418-2.101-4.465L16.182 7.818z" fill="#ba9b48"></path></g><g><path d="M11.903 11.303l-.27.063a5.03 5.03 0 01-1.133.134c-2.757 0-5-2.243-5-5s2.243-5 5-5 5 2.243 5 5c0 .305-.031.623-.092.942l-.049.26 1.726 1.726-3.528 3.528-1.654-1.653zM10.5 4.167c-1.287 0-2.333 1.047-2.333 2.333S9.213 8.833 10.5 8.833s2.333-1.047 2.333-2.333-1.046-2.333-2.333-2.333z" fill="#ffc49c"></path><path d="M10.5 2C12.981 2 15 4.019 15 6.5c0 .274-.028.56-.083.848l-.099.52.374.374 1.185 1.185-2.821 2.821-1.103-1.103-.392-.392-.541.125A4.5 4.5 0 0110.5 11C8.019 11 6 8.981 6 6.5S8.019 2 10.5 2m0 7.333A2.836 2.836 0 0013.333 6.5c0-1.562-1.271-2.833-2.833-2.833S7.667 4.938 7.667 6.5A2.836 2.836 0 0010.5 9.333M10.5 1a5.5 5.5 0 100 11c.429 0 .845-.054 1.246-.147l1.81 1.81 4.235-4.235-1.892-1.892A5.5 5.5 0 0010.5 1zm0 7.333a1.833 1.833 0 110-3.666 1.833 1.833 0 010 3.666z" fill="#a16a4a"></path></g><g><circle cx="19" cy="15" r="1" fill="#ba9b48"></circle></g></svg>