<svg viewBox="0 0 40 40" xmlns="http://www.w3.org/2000/svg"><path d="M4 20.5c-.827 0-1.5-.673-1.5-1.5v-1c0-.827.673-1.5 1.5-1.5h32c.827 0 1.5.673 1.5 1.5v1c0 .827-.673 1.5-1.5 1.5H4z" fill="#f5ce85"></path><path d="M36 17c.551 0 1 .449 1 1v1c0 .551-.449 1-1 1H4c-.551 0-1-.449-1-1v-1c0-.551.449-1 1-1h32m0-1H4a2 2 0 00-2 2v1a2 2 0 002 2h32a2 2 0 002-2v-1a2 2 0 00-2-2z" fill="#967a44"></path><path d="M36 27v6.5a1.5 1.5 0 01-1.5 1.5h-3a1.5 1.5 0 01-1.5-1.5V27h6zM10 27v6.5A1.5 1.5 0 018.5 35h-3A1.5 1.5 0 014 33.5V27h6z" fill="#66798f"></path><path d="M7 31.536a2.503 2.503 0 01-2.5-2.5v-9.119l1.036-2.626 2.357-8.928A2.505 2.505 0 0110.312 6.5h19.377c1.134 0 2.129.766 2.418 1.863l2.339 8.872 1.055 2.682v9.12c0 1.378-1.121 2.5-2.5 2.5H7z" fill="#f5ce85"></path><path d="M29.688 7c.907 0 1.703.613 1.934 1.49l2.339 8.872.015.057.022.055L35 20.012v9.024c0 1.103-.897 2-2 2H7c-1.103 0-2-.897-2-2v-9.024l1.002-2.537.022-.055.015-.057L8.378 8.49A2.001 2.001 0 0110.312 7h19.376m0-1H10.312a3 3 0 00-2.901 2.235l-2.339 8.872L4 19.821v9.214a3 3 0 003 3h26a3 3 0 003-3v-9.214l-1.071-2.714-2.339-8.872A3.001 3.001 0 0029.688 6z" fill="#967a44"></path><circle cx="31" cy="23" r="2" fill="#fff"></circle><circle cx="9" cy="23" r="2" fill="#fff"></circle><path d="M12.6 31.5l1.049-5.769a1.5 1.5 0 011.476-1.231h9.752a1.5 1.5 0 011.476 1.231L27.4 31.5H12.6z" fill="#c8d1db"></path><path d="M24.876 25a1 1 0 01.984.821L26.802 31H13.198l.942-5.179a.999.999 0 01.984-.821h9.752m0-1h-9.753a2 2 0 00-1.968 1.642L12 32h16l-1.156-6.358A2 2 0 0024.876 24z" fill="#967a44"></path><path fill="#f5ce85" d="M4 17h32v2H4z"></path><g><path d="M5.749 16.5l2.146-8.137A2.5 2.5 0 0110.312 6.5h19.377a2.5 2.5 0 012.417 1.863l2.146 8.137H5.749z" fill="#c2e8ff"></path><path d="M29.688 7c.907 0 1.703.613 1.934 1.49l1.98 7.51H6.398l1.98-7.51A2.001 2.001 0 0110.312 7h19.376m0-1H10.312a3 3 0 00-2.901 2.235L5.1 17h29.8l-2.311-8.765A3 3 0 0029.688 6z" fill="#967a44"></path></g><g><path fill="#ffc49c" d="M14.809 6.5l1.5-3h7.382l1.5 3z"></path><path d="M23.382 4l1 2h-8.764l1-2h6.764M24 3h-8l-2 4h12l-2-4z" fill="#a16a4a"></path></g></svg>