<svg viewBox="0 0 40 40" xmlns="http://www.w3.org/2000/svg"><path d="M33 15c2.206 0 4 1.794 4 4v5c0 2.206-1.794 4-4 4h-1V15h1m0-1h-2v15h2a5 5 0 005-5v-5a5 5 0 00-5-5z" fill="#5e9c76"></path><path d="M12 38.5A5.506 5.506 0 016.5 33V9.5h25V33c0 3.033-2.468 5.5-5.5 5.5H12z" fill="#bae0bd"></path><path d="M31 10v23c0 2.757-2.243 5-5 5H12c-2.757 0-5-2.243-5-5V10h24m1-1H6v24a6 6 0 006 6h14a6 6 0 006-6V9z" fill="#5e9c76"></path><path fill="none" stroke="#f78f8f" stroke-miterlimit="10" d="M12.5 8V1M16.5 8V3"></path><path fill="none" stroke="#fff" stroke-miterlimit="10" d="M16.5 21V10"></path><path fill="none" stroke="#f78f8f" stroke-miterlimit="10" d="M20.5 8V1M24.5 8V3"></path><g><path fill="#ffeea3" d="M13.5 21.5h6v7h-6z"></path><path d="M19 22v6h-5v-6h5m1-1h-7v8h7v-8z" fill="#ba9b48"></path></g></svg>