<svg viewBox="0 0 40 40" xmlns="http://www.w3.org/2000/svg"><path fill="#99c99e" d="M7.5 19.5v-7.081L18.09 8.5h9.822L38.5 12.35v7.15z"></path><path d="M27.824 9L38 12.7V19H8v-6.232L18.179 9h9.645M28 8H18L7 12.071V20h32v-8L28 8z" fill="#5e9c76"></path><path fill="#99c99e" d="M12.5 38.5V10.57l5.59-2.07h9.82l5.59 2.07V38.5z"></path><path d="M27.821 9L33 10.918V38H13V10.918L18.179 9h9.642M28 8H18l-6 2.222V39h22V10.222L28 8z" fill="#5e9c76"></path><path d="M33 36l-19.901-.003a.096.096 0 01-.099-.096V34h20v2zM1.5 12.5V5.419L12.09 1.5h9.822L32.5 5.35v7.15z" fill="#bae0bd"></path><path d="M21.824 2L32 5.7V12H2V5.768L12.179 2h9.645M22 1H12L1 5.071V13h32V5L22 1z" fill="#5e9c76"></path><path fill="#bae0bd" d="M6.5 31.5V3.57l5.59-2.07h9.82l5.59 2.07V31.5z"></path><path d="M21.821 2L27 3.918V31H7V3.918L12.179 2h9.642M22 1H12L6 3.222V32h22V3.222L22 1z" fill="#5e9c76"></path><path d="M22 1c0 1.63-1.948 3-5 3s-5-1.37-5-3h10z" fill="#5e9c76"></path><path d="M27 29l-19.901-.003A.096.096 0 017 28.901V27h20v2z" fill="#dff2e0"></path><path d="M13 22.325v-1.912a4.722 4.722 0 002.916.974c.881 0 1.582-.19 2.109-.57.525-.38.788-.895.788-1.544 0-1.427-1.147-2.14-3.442-2.14h-1.024V15.5h.978c2.035 0 3.054-.672 3.054-2.018 0-1.24-.794-1.86-2.381-1.86-.886 0-1.72.301-2.501.904v-1.807c.9-.479 1.96-.719 3.185-.719 1.174 0 2.116.281 2.824.842.708.561 1.061 1.281 1.061 2.158 0 1.655-.886 2.719-2.657 3.193v.035c.954.088 1.707.405 2.261.952.554.547.83 1.229.83 2.048 0 1.128-.447 2.039-1.338 2.732-.892.694-2.068 1.04-3.526 1.04-1.31 0-2.357-.225-3.137-.675z" fill="#36404d"></path></svg>