<svg viewBox="0 0 40 40" xmlns="http://www.w3.org/2000/svg"><path d="M8 31.5c-5.437 0-6.5-4.023-6.5-10.971 0-5.594 2.989-6.029 3.905-6.029 1.223 0 5.223 1.24 7.072 1.853l-.141 2.247-.142-.06c-.495-.209-4.87-2.04-6.111-2.04C3.5 16.5 3.5 19.945 3.5 21.078 3.5 26.902 4.888 29.5 8 29.5h3.453l.541-5.407-.464 7.407H8z" fill="#f78f8f"></path><path d="M5.405 15c.991 0 4.277.964 6.549 1.706l-.073 1.161C10.364 17.241 7.213 16 6.083 16 4.037 16 3 17.708 3 21.078 3 27.248 4.542 30 8 30h3.123l-.062 1H8c-4.43 0-6-2.74-6-10.471C2 15.539 4.381 15 5.405 15m0-1C3.649 14 1 15.181 1 20.529 1 27.213 2 32 8 32h4l1-16s-5.916-2-7.595-2zM8 29c-2 0-4-1-4-7.922C4 18 4.854 17 6.083 17 7.259 17 12 19 12 19l-1 10H8z" fill="#c74343"></path><path d="M29 29.5c-2.791 0-4.045-3.312-4.045-5.663 0-1.126.327-2.337 1.045-2.337 4.697 0 6.433-2.957 7.827-5.332.731-1.246 1.366-2.326 2.259-2.668H38.5v.169c-1.617.831-2.105 3.398-2.665 6.342C34.99 24.459 34.032 29.5 29 29.5z" fill="#f78f8f"></path><path d="M37.305 14c-1.076 1.266-1.495 3.468-1.96 5.919C34.334 25.236 33.287 29 29 29c-1.043 0-1.91-.545-2.577-1.62-.606-.977-.969-2.301-.969-3.543 0-1.206.356-1.837.546-1.837 4.983 0 6.876-3.224 8.258-5.579.659-1.123 1.234-2.102 1.928-2.421h1.119M39 13h-3c-3 1-3 8-10 8-2.727 0-1.917 9 3 9 9 0 5.909-14.636 10-16v-1z" fill="#c74343"></path><path d="M13 36.5a1.486 1.486 0 01-1.484-1.369l-.027-.308-.288-.114c-2.56-1.01-3.701-3.255-3.701-7.28C7.5 19.164 12.652 6.5 19 6.5s11.5 12.664 11.5 20.929c0 4.025-1.142 6.271-3.701 7.28l-.288.114-.027.308A1.486 1.486 0 0125 36.5H13z" fill="#ffc49c"></path><path d="M19 7c5.562 0 11 11.698 11 20.429 0 4.857-1.809 6.194-3.385 6.815l-.575.227-.054.616A.989.989 0 0125 36H13a.989.989 0 01-.986-.913l-.054-.616-.575-.227C9.809 33.622 8 32.286 8 27.429 8 18.698 13.438 7 19 7m0-1C12.373 6 7 18.75 7 27.429c0 4.659 1.558 6.775 4.018 7.746A1.992 1.992 0 0013 37h12a1.992 1.992 0 001.982-1.826c2.46-.971 4.018-3.086 4.018-7.745C31 18.75 25.627 6 19 6z" fill="#a16a4a"></path><circle cx="19" cy="5" r="1.5" fill="#f78f8f"></circle><path d="M19 4c.551 0 1 .449 1 1s-.449 1-1 1-1-.449-1-1 .449-1 1-1m0-1a2 2 0 10-.001 3.999A2 2 0 0019 3zM19 19c.828 0 1.5.672 1.5 1.5s-1.5 3-1.5 3-1.5-2.172-1.5-3S18.172 19 19 19zM19 31c-.828 0-1.5-.672-1.5-1.5s1.5-3 1.5-3 1.5 2.172 1.5 3S19.828 31 19 31zM13.804 28a1.5 1.5 0 01.549-2.049c.717-.414 3.348-.201 3.348-.201s-1.131 2.385-1.848 2.799-1.635.168-2.049-.549zM24.196 22a1.5 1.5 0 01-.549 2.049c-.717.414-3.348.201-3.348.201s1.131-2.385 1.848-2.799a1.5 1.5 0 012.049.549z" fill="#c74343"></path><g><path d="M24.196 28a1.5 1.5 0 01-2.049.549c-.717-.414-1.848-2.799-1.848-2.799s2.631-.213 3.348.201A1.5 1.5 0 0124.196 28z" fill="#c74343"></path></g><g><path d="M13.804 22c.414-.717 1.332-.963 2.049-.549s1.848 2.799 1.848 2.799-2.631.213-3.348-.201A1.5 1.5 0 0113.804 22z" fill="#c74343"></path></g><g><path d="M12.214 11.5c2.089-3.232 4.479-5 6.786-5s4.697 1.768 6.786 5H12.214z" fill="#f78f8f"></path><path d="M19 7c1.948 0 3.986 1.406 5.842 4H13.158C15.014 8.406 17.052 7 19 7m0-1c-2.923 0-5.602 2.482-7.683 6h15.366C24.602 8.482 21.923 6 19 6z" fill="#c74343"></path></g><g><circle cx="19" cy="25" r="2.5" fill="#f78f8f"></circle><path d="M19 23c1.103 0 2 .897 2 2s-.897 2-2 2-2-.897-2-2 .897-2 2-2m0-1a3 3 0 100 6 3 3 0 000-6z" fill="#c74343"></path></g></svg>