<svg viewBox="0 0 40 40" xmlns="http://www.w3.org/2000/svg"><path fill="#fff" d="M2.5 2.5h35v35h-35z"></path><path d="M37 3v34H3V3h34m1-1H2v36h36V2z" fill="#788b9c"></path><path fill="#e1ebf2" d="M3 34h34v3H3z"></path><path d="M15.729 26.118c0-.363.045-.715.136-1.055s.228-.653.409-.94.41-.545.686-.773.598-.413.967-.554a3.742 3.742 0 01-1.301-1.173 2.782 2.782 0 01-.484-1.587c0-.463.096-.891.286-1.283s.454-.732.791-1.02.733-.511 1.19-.673c.457-.16.955-.241 1.494-.241.545 0 1.048.082 1.508.246s.858.39 1.195.677.6.627.787 1.02.281.817.281 1.274c0 .58-.162 1.108-.484 1.587a3.79 3.79 0 01-1.283 1.173c.363.141.685.323.963.55a3.301 3.301 0 011.121 1.709c.094.339.141.694.141 1.063 0 .551-.104 1.055-.309 1.512s-.492.849-.861 1.173c-.369.326-.811.579-1.326.761s-1.084.272-1.705.272c-.615 0-1.18-.091-1.692-.272s-.955-.435-1.327-.761c-.372-.324-.662-.716-.87-1.173s-.313-.961-.313-1.512zm1.986-.176c0 .357.053.68.158.967s.254.53.447.729.427.352.699.457.576.158.91.158c.322 0 .617-.055.887-.162.27-.109.503-.264.699-.467.196-.201.35-.445.461-.729a2.61 2.61 0 00.168-.954c0-.322-.053-.626-.158-.909-.105-.285-.256-.532-.449-.743s-.426-.378-.698-.501-.575-.185-.909-.185a2.29 2.29 0 00-.884.171 2.037 2.037 0 00-.703.484c-.196.207-.351.455-.462.742s-.166.603-.166.942zm.43-5.695a1.927 1.927 0 00.52 1.323 1.716 1.716 0 002.499-.009 1.874 1.874 0 00.524-1.314c0-.264-.046-.51-.137-.738s-.215-.425-.373-.589a1.73 1.73 0 00-1.265-.528 1.692 1.692 0 00-1.28.545c-.156.17-.275.367-.36.594a2.01 2.01 0 00-.128.716z" fill="#36404d"></path><path fill="#e1ebf2" d="M37 7.077H3v6.59L5 13l3 1 3-1 3 1 3-1 3.001 1L23 13l3 1 3-1 3 1 3-1 2 .667z"></path><path fill="#fff" d="M29 10.473l-3 1-3-1-2.999 1-3.001-1-3 1-3-1-3 1-3-1-2.5.834v-5.73h35v5.73l-2.5-.834-3 1z"></path><path d="M37 6.077v4.536l-1.684-.561L35 9.946l-.316.105-2.684.895-2.684-.895L29 9.946l-.316.105-2.684.895-2.684-.895L23 9.946l-.316.105-2.683.895-2.684-.895L17 9.946l-.316.105-2.684.895-2.684-.895L11 9.946l-.316.105L8 10.946l-2.684-.895L5 9.946l-.316.105L3 10.613V6.077h34m1-1H2V12l3-1 3 1 3-1 3 1 3-1 3.001 1L23 11l3 1 3-1 3 1 3-1 3 1V5.077z" fill="#788b9c"></path><g><path fill="#f78f8f" d="M2.5 2.5h35v5h-35z"></path><path d="M37 3v4H3V3h34m1-1H2v6h36V2z" fill="#c74343"></path></g></svg>