<svg viewBox="0 0 40 40" xmlns="http://www.w3.org/2000/svg"><path d="M20 37.5c-8.145 0-10.5-2.224-10.5-9.917 0-.909.069-1.834.205-2.751l.145-.973-4.454 2.335a2.654 2.654 0 01-3.591-1.12 2.64 2.64 0 01-.184-2.027 2.641 2.641 0 011.304-1.563l12.632-6.644a9.157 9.157 0 011.716-.842l.721-.261-.026-.027.173.026.092-.021c.634-.145 1.211-.215 1.767-.215s1.133.07 1.767.215l.092.021.173-.026-.026.027.721.261a8.89 8.89 0 011.684.824l12.663 6.661c.63.331 1.093.886 1.305 1.564a2.64 2.64 0 01-.184 2.027 2.655 2.655 0 01-2.358 1.426c-.433 0-.847-.103-1.233-.305L30.15 23.86l.145.973c.136.917.205 1.842.205 2.751 0 7.692-2.355 9.916-10.5 9.916z" fill="#a6714e"></path><path d="M20 14c.517 0 1.059.066 1.655.203l.184.042.069-.01.648.234a8.395 8.395 0 011.589.777l.031.02.033.017 12.632 6.644c.511.268.887.719 1.059 1.27s.119 1.135-.149 1.646a2.154 2.154 0 01-2.914.909l-3.582-1.878-1.742-.913.288 1.945c.132.894.199 1.795.199 2.677C30 34.976 27.85 37 20 37s-10-2.024-10-9.417c0-.883.067-1.784.199-2.677l.288-1.945-1.742.913-3.582 1.878a2.158 2.158 0 01-3.065-2.556 2.148 2.148 0 011.06-1.27l12.631-6.643.033-.017.031-.02a8.425 8.425 0 011.589-.777l.648-.234.069.01.184-.042A7.375 7.375 0 0120 14m3.4-1l-1.522.228C21.267 13.088 20.642 13 20 13s-1.267.088-1.878.228L16.6 13l.503.528a9.326 9.326 0 00-1.779.87L2.693 21.041a3.16 3.16 0 102.935 5.597L9.21 24.76c-.135.914-.21 1.857-.21 2.823C9 35.637 11.75 38 20 38s11-2.363 11-10.417c0-.967-.075-1.91-.21-2.824l3.582 1.878a3.16 3.16 0 002.935-5.596l-12.631-6.643a9.356 9.356 0 00-1.779-.87L23.4 13z" fill="#7a4f34"></path><path d="M24.17 3.757c1.472-1.42 2.728-2.257 3.401-2.257 3.591 0 4.929 2.594 4.929 4.229 0 1.534-1.121 2.854-3.519 4.136L24.17 3.757z" fill="#a6714e"></path><path d="M27.571 2C31.186 2 32 4.762 32 5.729c0 1.256-.922 2.377-2.888 3.494l-4.266-5.417C26.366 2.397 27.262 2 27.571 2m0-1c-1.274 0-3.338 1.981-4.071 2.714l5.345 6.786C30.784 9.518 33 8.029 33 5.729 33 4.033 31.643 1 27.571 1z" fill="#7a4f34"></path><path d="M11.019 9.865C8.621 8.583 7.5 7.263 7.5 5.729 7.5 4.094 8.838 1.5 12.429 1.5c.673 0 1.93.837 3.401 2.257l-4.811 6.108z" fill="#a6714e"></path><path d="M12.429 2c.309 0 1.205.397 2.726 1.806l-4.266 5.417C8.922 8.106 8 6.985 8 5.729 8 4.762 8.814 2 12.429 2m0-1C8.357 1 7 4.033 7 5.729c0 2.3 2.216 3.789 4.155 4.771L16.5 3.714C15.767 2.981 13.703 1 12.429 1z" fill="#7a4f34"></path><path d="M27 30.4c0 4.639-1.75 5.6-7 5.6s-7-.961-7-5.6 3.134-8.4 7-8.4 7 3.761 7 8.4z" fill="#e6a67c"></path><path d="M28.947 38.5a4.219 4.219 0 01-2.114-.556c-2.337-1.331-3.036-4.633-1.558-7.361 1.03-1.902 2.861-3.083 4.777-3.083.755 0 1.466.187 2.114.556 2.337 1.331 3.036 4.633 1.558 7.361-1.03 1.902-2.861 3.083-4.777 3.083z" fill="#e6a67c"></path><path d="M30.053 28c.667 0 1.295.165 1.866.49 2.102 1.197 2.715 4.198 1.365 6.689-.928 1.714-2.63 2.821-4.337 2.821a3.733 3.733 0 01-1.867-.49c-2.102-1.197-2.715-4.198-1.365-6.689.929-1.714 2.631-2.821 4.338-2.821m0-1c-2.017 0-4.07 1.228-5.216 3.344-1.609 2.971-.826 6.568 1.75 8.034a4.73 4.73 0 002.36.622c2.017 0 4.07-1.228 5.216-3.344 1.609-2.971.826-6.568-1.75-8.034a4.73 4.73 0 00-2.36-.622z" fill="#7a4f34"></path><path d="M11.053 38.5c-1.916 0-3.747-1.181-4.777-3.083-1.478-2.728-.779-6.031 1.558-7.361a4.212 4.212 0 012.113-.556c1.916 0 3.747 1.181 4.777 3.083 1.478 2.728.779 6.031-1.558 7.361a4.212 4.212 0 01-2.113.556z" fill="#e6a67c"></path><path d="M9.947 28c1.706 0 3.409 1.107 4.337 2.821 1.35 2.491.737 5.492-1.365 6.689a3.726 3.726 0 01-1.866.49c-1.706 0-3.409-1.107-4.337-2.821-1.35-2.491-.737-5.492 1.365-6.689A3.726 3.726 0 019.947 28m0-1c-.814 0-1.621.2-2.361.621-2.576 1.467-3.359 5.064-1.75 8.034C6.983 37.772 9.036 39 11.053 39c.814 0 1.621-.2 2.361-.621 2.576-1.467 3.359-5.064 1.75-8.034C14.017 28.228 11.964 27 9.947 27z" fill="#7a4f34"></path><g><path d="M20 20.5c-5.238 0-9.5-4.262-9.5-9.5s4.262-9.5 9.5-9.5 9.5 4.262 9.5 9.5-4.262 9.5-9.5 9.5z" fill="#a6714e"></path><path d="M20 2c4.963 0 9 4.037 9 9s-4.037 9-9 9-9-4.037-9-9 4.037-9 9-9m0-1c-5.523 0-10 4.477-10 10s4.477 10 10 10 10-4.477 10-10S25.523 1 20 1z" fill="#7a4f34"></path></g><circle cx="22.714" cy="9.143" r="1.357" fill="#36404d"></circle><circle cx="17.286" cy="9.143" r="1.357" fill="#36404d"></circle><g><circle cx="20" cy="14" r="5" fill="#e6a67c"></circle></g><g><circle cx="20" cy="11" r="1" fill="#7a4f34"></circle></g></svg>