<svg viewBox="0 0 40 40" xmlns="http://www.w3.org/2000/svg"><path fill="#b6c9d6" d="M1.602 13.283l6.977-1.674 1.356 5.652-6.977 1.674z"></path><path d="M8.211 12.211l1.123 4.68-6.005 1.441-1.123-4.68 6.005-1.441m.739-1.205L1 12.913l1.59 6.625 7.95-1.908-1.59-6.624z" fill="#788b9c"></path><path fill="none" stroke="#788b9c" stroke-linecap="round" stroke-miterlimit="10" d="M3.072 19.409l-1.59-6.625"></path><path fill="#8bb7f0" d="M5.26 11.004l6.977-1.674 1.991 8.303-6.976 1.674z"></path><path d="M11.868 9.932l1.759 7.33-6.005 1.441-1.759-7.33 6.005-1.441m.739-1.205l-7.95 1.908 2.226 9.275 7.95-1.908-2.226-9.275z" fill="#4e7ab5"></path><path fill="none" stroke="#788b9c" stroke-miterlimit="10" d="M20.5 39V24.071M17.5 28.5h6"></path><path fill="#788b9c" d="M20 30l7 8h1l-7-8z"></path><path fill="#788b9c" d="M21 30l-7 8h-1l7-8z"></path><path d="M20.5 24.5c-1.654 0-3-1.346-3-3v-5.8h6v5.8c0 1.654-1.346 3-3 3z" fill="#b6c9d6"></path><path d="M23 16.2v5.3c0 1.379-1.122 2.5-2.5 2.5S18 22.879 18 21.5v-5.3h5m1-1h-7v6.3a3.5 3.5 0 107 0v-6.3z" fill="#788b9c"></path><g><path fill="#8bb7f0" d="M11.567 8.09L35.77 2.283l2.628 10.952-24.202 5.807z"></path><path d="M35.399 2.884l2.395 9.98-23.23 5.574-2.395-9.98 23.23-5.574m.739-1.205L10.964 7.72l2.862 11.925L39 13.603 36.138 1.679z" fill="#4e7ab5"></path></g><path fill="none" stroke="#788b9c" stroke-linecap="round" stroke-miterlimit="10" d="M38.503 13.707L35.641 1.783"></path><circle cx="20.5" cy="21.5" r="1" fill="#788b9c"></circle></svg>