<svg viewBox="0 0 40 40" xmlns="http://www.w3.org/2000/svg"><path d="M20 22.214a4.505 4.505 0 01-4.5-4.5V6c0-2.481 2.019-4.5 4.5-4.5s4.5 2.019 4.5 4.5v11.714c0 2.482-2.019 4.5-4.5 4.5z" fill="#e1ebf2"></path><path d="M20 2c2.206 0 4 1.794 4 4v11.714c0 2.206-1.794 4-4 4s-4-1.794-4-4V6c0-2.206 1.794-4 4-4m0-1c-2.75 0-5 2.25-5 5v11.714c0 2.75 2.25 5 5 5s5-2.25 5-5V6c0-2.75-2.25-5-5-5z" fill="#788b9c"></path><path d="M20 38.5c-4.136 0-7.5-3.364-7.5-7.5a7.469 7.469 0 012.813-5.85L15.5 25v-9.5h9V25l.187.15A7.469 7.469 0 0127.5 31c0 4.136-3.364 7.5-7.5 7.5z" fill="#f78f8f"></path><path d="M24 16v9.24l.374.3A6.97 6.97 0 0127 31c0 3.86-3.14 7-7 7s-7-3.14-7-7a6.97 6.97 0 012.626-5.46l.374-.3V16h8m1-1H15v9.76A7.98 7.98 0 0012 31a8 8 0 0016 0 7.984 7.984 0 00-3-6.24V15z" fill="#c74343"></path><path fill="#c74343" d="M19 19h6v1h-6zM19 23h6v1h-6z"></path><path fill="#788b9c" d="M19 11h6v1h-6zM19 7h6v1h-6z"></path></svg>