<svg viewBox="0 0 40 40" xmlns="http://www.w3.org/2000/svg"><path d="M2.5 35.5V29c0-8.267 5.189-14.5 12.071-14.5 2.459 0 4.852.955 6.132 1.902C23.405 18.399 26.352 19.5 29 19.5c3.238 0 5.5-2.262 5.5-5.5 0-3.827-1.851-6.5-4.5-6.5a3.462 3.462 0 00-3.5 3.5c0 1.655 1.026 3.5 2.5 3.5.726 0 1.315-.49 1.464-1.165a5.187 5.187 0 011.013.01A2.504 2.504 0 0129 15.5c-3.56 0-4.5-2.943-4.5-4.5 0-3.131 1.721-6.5 5.5-6.5 4.224 0 8.5 3.263 8.5 9.5 0 1.177-.295 11.5-10.5 11.5-3.685 0-5.136-1.053-6.816-2.272a40.898 40.898 0 00-.901-.641c-.997-.681-2.435-1.087-3.845-1.087-2.814 0-4.937 2.794-4.937 6.5v7.5H2.5z" fill="#dcd5f2"></path><path d="M30 5c3.975 0 8 3.091 8 9 0 1.126-.281 11-10 11-3.523 0-4.847-.961-6.523-2.177a39.69 39.69 0 00-.913-.649C19.487 21.439 17.944 21 16.437 21 13.338 21 11 24.009 11 28v7H3v-6c0-7.981 4.975-14 11.571-14 2.344 0 4.619.906 5.834 1.804C23.193 18.865 26.245 20 29 20c3.533 0 6-2.467 6-6 0-4.121-2.056-7-5-7-2.243 0-4 1.757-4 4 0 1.892 1.232 4 3 4-3.158 0-4-2.514-4-4 0-2.89 1.565-6 5-6m0-1c-3.979 0-6 3.479-6 7 0 2.156 1.363 5 5 5 1.656 0 3-1.359 3-3 0-.113-.574-.186-1.108-.186-.461 0-.892.055-.892.186 0 .578-.438 1-1 1-1.164 0-2-1.653-2-3 0-1.678 1.275-3 3-3 2.333 0 4 2.381 4 6 0 3.054-2.112 5-5 5-2.71 0-5.531-1.175-8-3-1.448-1.07-3.954-2-6.429-2C7.826 14 2 20.006 2 29v7h10v-8c0-3.373 1.908-6 4.437-6 1.463 0 2.772.46 3.563 1 2.142 1.462 3.504 3 8 3 9.161 0 11-8.203 11-12 0-6.365-4.359-10-9-10z" fill="#8b75a1"></path><circle cx="31" cy="13" r="1" fill="#8b75a1"></circle><path fill="#dcd5f2" d="M3 34.643h8V36H3z"></path><ellipse cx="3" cy="28.5" rx="1.5" ry="2" fill="#c2e8ff"/><path d="M3 27c.533 0 1 .701 1 1.5S3.533 30 3 30s-1-.701-1-1.5.467-1.5 1-1.5m0-1c-1.105 0-2 1.119-2 2.5S1.895 31 3 31s2-1.119 2-2.5S4.105 26 3 26z" fill="#8b75a1"></path><path d="M7.766 18.028c-.258 0-.627-.061-.916-.35-.269-.269-.389-.662-.339-1.109.054-.488.3-.974.692-1.365.447-.447 1.016-.703 1.56-.703.258 0 .626.061.915.35.269.268.389.662.339 1.108-.054.488-.3.974-.692 1.366-.447.447-1.015.703-1.559.703z" fill="#c2e8ff"></path><path d="M8.762 15c.164 0 .394.035.562.203.377.377.211 1.203-.354 1.768-.349.349-.799.557-1.205.557-.164 0-.394-.035-.562-.203-.377-.377-.211-1.203.354-1.768.348-.349.799-.557 1.205-.557m0-1c-.648 0-1.354.291-1.913.85-.976.976-1.135 2.401-.354 3.182.334.334.786.496 1.269.496.648 0 1.354-.291 1.913-.85.976-.976 1.135-2.401.354-3.182-.333-.334-.785-.496-1.269-.496z" fill="#8b75a1"></path><path d="M3.814 23.5c-.097 0-.193-.013-.287-.037-.366-.097-.669-.376-.852-.787-.199-.45-.23-.992-.09-1.529.242-.92.946-1.589 1.674-1.589.097 0 .193.013.287.037.799.211 1.221 1.25.94 2.316-.241.92-.945 1.589-1.672 1.589z" fill="#c2e8ff"></path><path d="M4.259 20.058c.054 0 .108.007.16.021.293.077.452.35.522.506.151.341.174.778.063 1.199-.201.761-.762 1.216-1.19 1.216a.616.616 0 01-.16-.021c-.293-.077-.452-.35-.522-.506-.151-.341-.174-.778-.063-1.199.209-.79.769-1.216 1.19-1.216m0-1c-.937 0-1.85.798-2.156 1.962-.352 1.335.229 2.646 1.297 2.927.137.036.276.053.414.053.937 0 1.85-.798 2.156-1.962.352-1.335-.229-2.646-1.297-2.927a1.627 1.627 0 00-.414-.053z" fill="#8b75a1"></path><path d="M9.814 26.5c-.097 0-.193-.013-.287-.037-.366-.097-.669-.376-.852-.787-.199-.45-.23-.992-.09-1.529.242-.92.946-1.589 1.674-1.589.097 0 .193.013.287.037.799.211 1.221 1.25.94 2.316-.241.92-.945 1.589-1.672 1.589z" fill="#c2e8ff"></path><path d="M10.259 23.058c.054 0 .108.007.16.021.293.077.452.35.522.506.151.341.174.778.063 1.199-.201.761-.762 1.216-1.19 1.216a.616.616 0 01-.16-.021c-.293-.077-.452-.35-.522-.506-.151-.341-.174-.778-.063-1.199.209-.79.769-1.216 1.19-1.216m0-1c-.937 0-1.85.798-2.156 1.962-.352 1.335.229 2.646 1.297 2.927.137.036.276.053.414.053.937 0 1.85-.798 2.156-1.962.352-1.335-.229-2.646-1.297-2.927a1.627 1.627 0 00-.414-.053z" fill="#8b75a1"></path><ellipse cx="10" cy="31.5" rx="1.5" ry="2" fill="#c2e8ff"/><path d="M10 30c.533 0 1 .701 1 1.5s-.467 1.5-1 1.5-1-.701-1-1.5.467-1.5 1-1.5m0-1c-1.105 0-2 1.119-2 2.5s.895 2.5 2 2.5 2-1.119 2-2.5-.895-2.5-2-2.5z" fill="#8b75a1"></path><ellipse cx="14.5" cy="14" rx="2" ry="1.5" fill="#c2e8ff"/><path d="M14.5 13c.799 0 1.5.467 1.5 1s-.701 1-1.5 1-1.5-.467-1.5-1 .701-1 1.5-1m0-1c-1.381 0-2.5.895-2.5 2s1.119 2 2.5 2 2.5-.895 2.5-2-1.119-2-2.5-2z" fill="#8b75a1"></path><ellipse cx="14.5" cy="20" rx="2" ry="1.5" fill="#c2e8ff"/><path d="M14.5 19c.799 0 1.5.467 1.5 1s-.701 1-1.5 1-1.5-.467-1.5-1 .701-1 1.5-1m0-1c-1.381 0-2.5.895-2.5 2s1.119 2 2.5 2 2.5-.895 2.5-2-1.119-2-2.5-2z" fill="#8b75a1"></path><path d="M27 25.167c-.884 0-1.5-.439-1.5-.833 0-.395.616-.834 1.5-.834s1.5.439 1.5.834c0 .393-.617.833-1.5.833z" fill="#c2e8ff"></path><path d="M27 24c.554 0 .904.219.988.333-.085.115-.434.333-.988.333s-.904-.219-.988-.333c.084-.114.434-.333.988-.333m0-1c-1.105 0-2 .597-2 1.333s.895 1.333 2 1.333 2-.597 2-1.333S28.105 23 27 23z" fill="#8b75a1"></path><path d="M26.489 20.5c-.248 0-.515-.046-.771-.133-.87-.296-1.328-.938-1.195-1.329.093-.273.489-.457.986-.457.249 0 .516.046.771.133.87.296 1.328.938 1.195 1.328-.091.274-.488.458-.986.458z" fill="#c2e8ff"></path><path d="M25.509 19.081c.195 0 .406.037.611.106.606.206.879.597.891.679-.021.027-.179.134-.52.134-.195 0-.406-.037-.611-.106-.606-.206-.879-.597-.891-.679.021-.027.179-.134.52-.134m0-1c-.705 0-1.288.291-1.459.797-.244.718.431 1.597 1.508 1.963.318.108.636.16.933.16.705 0 1.288-.291 1.459-.797.244-.718-.431-1.597-1.508-1.963a2.897 2.897 0 00-.933-.16z" fill="#8b75a1"></path><path d="M21.726 17.984c-.403 0-.869-.161-1.277-.442-.827-.57-1.114-1.39-.854-1.767.164-.239.496-.274.68-.274.403 0 .868.161 1.275.442.829.57 1.116 1.389.855 1.768-.164.238-.496.273-.679.273z" fill="#c2e8ff"></path><path d="M20.275 16c.304 0 .666.129.993.354.619.426.782.964.727 1.072-.01.011-.09.058-.268.058-.304 0-.666-.129-.993-.354-.619-.426-.782-.964-.727-1.072.01-.012.09-.058.268-.058m-.001-1c-.467 0-.866.163-1.092.49-.461.669-.021 1.772.983 2.463.513.353 1.073.53 1.56.53.467 0 .866-.163 1.092-.49.461-.669.021-1.772-.983-2.463-.512-.353-1.072-.53-1.56-.53z" fill="#8b75a1"></path><g><path d="M21.726 22.984c-.403 0-.869-.161-1.277-.442-.827-.57-1.114-1.39-.854-1.767.164-.239.496-.274.68-.274.403 0 .868.161 1.275.442.829.57 1.116 1.389.855 1.768-.164.238-.496.273-.679.273z" fill="#c2e8ff"></path><path d="M20.275 21c.304 0 .666.129.993.354.619.426.782.964.727 1.072-.01.011-.09.058-.268.058-.304 0-.666-.129-.993-.354-.619-.426-.782-.964-.727-1.072.01-.012.09-.058.268-.058m-.001-1c-.467 0-.866.163-1.092.49-.461.669-.021 1.772.983 2.463.513.353 1.073.53 1.56.53.467 0 .866-.163 1.092-.49.461-.669.021-1.772-.983-2.463-.512-.353-1.072-.53-1.56-.53z" fill="#8b75a1"></path></g><g><path d="M31.938 24.5c-.102 0-.285-.018-.377-.137-.179-.233.022-.802.56-1.214.297-.229.648-.364.94-.364.102 0 .285.018.377.137.179.233-.022.802-.56 1.214-.296.228-.648.364-.94.364z" fill="#c2e8ff"></path><path d="M32.952 23.296a1.252 1.252 0 01-.378.444c-.195.15-.384.224-.526.25.057-.121.172-.286.378-.444.194-.15.384-.224.526-.25m.109-1.011c-.389 0-.841.158-1.244.467-.737.566-1.029 1.423-.652 1.915.171.224.451.333.774.333.389 0 .841-.158 1.244-.467.737-.566 1.029-1.423.652-1.915-.171-.224-.451-.333-.774-.333z" fill="#8b75a1"></path></g><g><path d="M30.084 20.5c-.284 0-.512-.093-.567-.23s.05-.315.097-.386c.144-.209.393-.396.685-.515a1.66 1.66 0 01.618-.128c.284 0 .513.093.568.231.056.137-.05.314-.097.385-.144.209-.393.396-.685.515-.206.084-.42.128-.619.128z" fill="#c2e8ff"></path><path d="M30.801 19.749a1.198 1.198 0 01-.286.16c-.123.05-.23.073-.317.084.073-.056.168-.113.286-.16a1.22 1.22 0 01.317-.084m.115-1.007c-.254 0-.532.053-.806.164-.8.323-1.273 1.018-1.058 1.551.142.349.545.543 1.032.543.254 0 .532-.053.806-.164.8-.323 1.273-1.018 1.058-1.551-.142-.35-.545-.543-1.032-.543z" fill="#8b75a1"></path></g><g><path d="M33.637 18.5a.121.121 0 01-.072-.018c-.036-.024-.052-.091-.057-.118-.027-.147.011-.421.208-.707.205-.298.481-.454.647-.454.113.046.139.134.137.242a1.15 1.15 0 01-.216.602c-.205.298-.48.453-.647.453z" fill="#c2e8ff"></path><path d="M34.363 16.704c-.353 0-.769.248-1.059.669-.397.576-.407 1.258-.023 1.522a.62.62 0 00.356.105c.353 0 .769-.248 1.059-.669.397-.576.407-1.258.023-1.522a.613.613 0 00-.356-.105z" fill="#8b75a1"></path></g><g><path d="M35.761 21.327c-.068-.018-.119-.084-.149-.138-.098-.166-.164-.488-.058-.891.138-.521.463-.799.646-.799a.267.267 0 01.189.143c.098.166.164.488.058.891-.138.521-.463.799-.646.799a.13.13 0 01-.04-.005z" fill="#c2e8ff"></path><path d="M36.2 19c-.467 0-.949.484-1.13 1.171-.203.77.049 1.504.562 1.64a.633.633 0 00.167.022c.467 0 .949-.484 1.13-1.171.203-.77-.049-1.504-.562-1.64A.633.633 0 0036.2 19z" fill="#8b75a1"></path></g><g><ellipse transform="rotate(-2.922 35.51 13.747)" cx="35.5" cy="13.748" rx=".499" ry=".749" fill="#c2e8ff"/><path d="M35.479 13h-.017c-.275.014-.481.36-.46.773.021.404.251.723.519.723h.017c.275-.014.481-.36.46-.773-.02-.405-.251-.723-.519-.723z" fill="#8b75a1"></path></g><g><ellipse transform="rotate(-2.922 37.508 15.25)" cx="37.5" cy="15.252" rx=".499" ry=".749" fill="#c2e8ff"/><path d="M37.479 14.504h-.017c-.275.014-.481.36-.46.773.02.405.251.723.519.723h.017c.275-.014.481-.36.46-.773-.02-.405-.251-.723-.519-.723z" fill="#8b75a1"></path></g><g><ellipse transform="rotate(-27.202 37.495 11.373)" cx="37.5" cy="11.372" rx=".445" ry=".668" fill="#c2e8ff"/><path d="M37.34 10.744c-.051 0-.1.011-.145.034-.219.112-.259.469-.091.797.134.261.36.425.556.425.051 0 .1-.011.145-.034.219-.112.259-.469.091-.797-.134-.261-.36-.425-.556-.425z" fill="#8b75a1"></path></g><g><ellipse transform="rotate(-27.202 34.496 9.629)" cx="34.5" cy="9.628" rx=".445" ry=".668" fill="#c2e8ff"/><path d="M34.34 9c-.051 0-.1.011-.145.034-.219.112-.259.469-.091.797.134.261.36.425.556.425.051 0 .1-.011.145-.034.219-.112.259-.469.091-.797-.134-.261-.36-.425-.556-.425z" fill="#8b75a1"></path></g><g><ellipse transform="rotate(-37.514 35.458 7.492)" cx="35.458" cy="7.494" rx=".379" ry=".568" fill="#c2e8ff"/><path d="M35.287 6.987a.284.284 0 00-.175.056c-.166.127-.146.433.046.681.134.175.317.276.472.276a.284.284 0 00.175-.056c.166-.127.146-.433-.046-.681-.135-.175-.318-.276-.472-.276z" fill="#8b75a1"></path></g></svg>