<svg viewBox="0 0 40 40" xmlns="http://www.w3.org/2000/svg"><path d="M35 5v30H5V5h30m1-1H4v32h32V4z" fill="#66798f"></path><path fill="#8bb7f0" d="M32.5 1.5h6v6h-6z"></path><path d="M38 2v5h-5V2h5m1-1h-7v7h7V1z" fill="#4e7ab5"></path><path fill="#8bb7f0" d="M1.5 1.5h6v6h-6z"></path><path d="M7 2v5H2V2h5m1-1H1v7h7V1z" fill="#4e7ab5"></path><path fill="#8bb7f0" d="M32.5 32.5h6v6h-6z"></path><path d="M38 33v5h-5v-5h5m1-1h-7v7h7v-7z" fill="#4e7ab5"></path><g><path fill="#8bb7f0" d="M1.5 32.5h6v6h-6z"></path><path d="M7 33v5H2v-5h5m1-1H1v7h7v-7z" fill="#4e7ab5"></path></g><g><path fill="#b0c1d4" d="M15.5 29.5v-1.6l3-1V12.5h-4.972l-.9 3H11.5v-5h17v5h-1.128l-.9-3H21.5v14.4l3 1v1.6z"></path><path d="M28 11v4h-.256l-.686-2.287-.214-.713H21v15.261l.684.228L24 28.26V29h-8v-.74l2.316-.772.684-.228V12H13.156l-.214.713L12.256 15H12v-4h16m1-1H11v6h2l.9-3H18v13.54l-3 1V30h10v-2.46l-3-1V13h4.1l.9 3h2v-6z" fill="#66798f"></path></g></svg>