<svg viewBox="0 0 40 40" xmlns="http://www.w3.org/2000/svg"><path fill="#b0c1d4" d="M6.5 34.5v-2.09l4-.8V7.5H3.861l-1.2 3H1.5v-5h23v5h-1.161l-1.2-3H15.5v24.11l4 .8v2.09z"></path><path d="M24 6v4h-.323l-.949-2.371L22.477 7H15v25.02l.804.161L19 32.82V34H7v-1.18l3.196-.639.804-.161V7H3.523l-.251.629L2.323 10H2V6h22m1-1H1v6h2l1.2-3H10v23.2L6 32v3h14v-3l-4-.8V8h5.8l1.2 3h2V5z" fill="#66798f"></path><path fill="#4e7ab5" d="M32 7.25h3v25.5h-3z"></path><path fill="#4e7ab5" d="M27.5 29h12l-6 6z"></path><g><path fill="#4e7ab5" d="M39.5 11h-12l6-6z"></path></g></svg>