<svg viewBox="0 0 40 40" xmlns="http://www.w3.org/2000/svg"><path d="M19.747 10.897l3.887-4.535-.395-.324A1.993 1.993 0 0122.5 4.5c0-1.103.897-2 2-2 .686 0 1.317.351 1.688.938l.219.346.382-.146c.238-.092.478-.138.711-.138 1.103 0 2 .897 2 2s-.897 2-2 2c-.125 0-.245-.016-.363-.038l-.259-.048-4.942 4.942-2.189-1.459z" fill="#fff"></path><path d="M24.5 3c.513 0 .986.263 1.265.704l.437.693.765-.293c.182-.069.361-.104.533-.104.827 0 1.5.673 1.5 1.5S28.327 7 27.5 7c-.078 0-.165-.009-.273-.029l-.517-.095-.372.372-4.466 4.466-1.379-.919 3.188-3.719.665-.776-.789-.648A1.493 1.493 0 0123 4.5c0-.827.673-1.5 1.5-1.5m0-1A2.5 2.5 0 0022 4.5c0 .779.364 1.466.922 1.924L19 11l3 2 5.046-5.046c.147.027.298.046.454.046a2.5 2.5 0 100-5c-.315 0-.613.065-.89.171A2.49 2.49 0 0024.5 2z" fill="#66798f"></path><path d="M12.339 27.58c9.753-3.102 6.343-10.061 11.161-16.08-.212-1.203-1.675-2.585-3-3-3.514 3.824-5.551 4.907-9.725 7.491" fill="#ffc49c" stroke="#a16a4a" stroke-linejoin="round" stroke-miterlimit="10"></path><path d="M26.678 15.116l7.195-5.396-.175-.369A1.98 1.98 0 0133.5 8.5c0-1.103.897-2 2-2s2 .897 2 2c0 .163-.027.334-.085.54l-.098.348.3.202a1.999 1.999 0 11-2.264 3.292l-.28-.198-6.933 4.622-1.462-2.19z" fill="#fff"></path><path d="M35.5 7c.827 0 1.5.673 1.5 1.5 0 .115-.021.243-.067.404l-.196.696.6.404a1.502 1.502 0 01-.837 2.746 1.49 1.49 0 01-.86-.276l-.56-.395-.571.38-6.231 4.154-.921-1.381 6.49-4.867.653-.49-.35-.738A1.492 1.492 0 0134 8.5c0-.827.673-1.5 1.5-1.5m0-1A2.5 2.5 0 0033 8.5c0 .383.093.741.246 1.065L26 15l2 3 7.063-4.709c.407.287.901.459 1.437.459a2.5 2.5 0 001.396-4.574c.061-.216.104-.44.104-.676A2.5 2.5 0 0035.5 6z" fill="#66798f"></path><g><path d="M18.68 36.5C7.204 36.5 2.284 25.044 1.566 23.198 2.776 21.679 10.544 12.5 21.4 12.5c12.469 0 13.1 9.996 13.1 12 0 7.178-6.357 12-15.82 12z" fill="#ffc49c"></path><path d="M21.4 13C33.393 13 34 22.58 34 24.5 34 31.486 27.987 36 18.68 36 7.995 36 3.129 25.691 2.139 23.284 3.773 21.299 11.212 13 21.4 13m0-1C9.223 12 1 23.111 1 23.111S5.76 37 18.68 37C28.2 37 35 32.24 35 24.5 35 19.635 32.28 12 21.4 12z" fill="#a16a4a"></path></g><path d="M22 23.5c7.5 0 7.389-7.013 11.389-9.013-.184-1.439-1.103-2.94-2.389-3.43-2.664 1.303-4.087 1.443-10 1.443" fill="#ffc49c" stroke="#a16a4a" stroke-linejoin="round" stroke-miterlimit="10"></path></svg>