<svg viewBox="0 0 40 40" xmlns="http://www.w3.org/2000/svg"><path d="M32.793 17.096l3.76-2.337-.061-.335a74.018 74.018 0 01-.776-5.969 55.528 55.528 0 002.691 6.48l-3.513 4.314-2.101-2.153z" fill="#ffeea3"></path><path d="M36.67 12.339a54.4 54.4 0 001.148 2.529l-2.957 3.631-1.276-1.307 2.943-1.829.578-.359-.122-.669c-.004-.02-.142-.788-.314-1.996M35 4c0 5.031 1 10.514 1 10.514L32 17l2.929 3L39 15s-2.896-5.61-4-11z" fill="#f5c276"></path><path d="M1.593 14.936a55.386 55.386 0 002.691-6.481c-.29 3.275-.77 5.932-.776 5.97l-.061.335 3.76 2.337-2.102 2.153-3.512-4.314z" fill="#ffeea3"></path><path d="M3.33 12.339a58.473 58.473 0 01-.314 1.996l-.122.67.578.359 2.943 1.829L5.139 18.5l-2.957-3.631c.264-.543.679-1.425 1.148-2.53M5 4C3.896 9.39 1 15 1 15l4.071 5L8 17l-4-2.486S5 9.031 5 4z" fill="#f5c276"></path><circle cx="33.5" cy="18.5" r="2" fill="#ffeea3"></circle><path d="M33.5 17c.827 0 1.5.673 1.5 1.5s-.673 1.5-1.5 1.5-1.5-.673-1.5-1.5.673-1.5 1.5-1.5m0-1a2.5 2.5 0 100 5 2.5 2.5 0 000-5z" fill="#f5c276"></path><circle cx="6.5" cy="18.5" r="2" fill="#ffeea3"></circle><path d="M6.5 17c.827 0 1.5.673 1.5 1.5S7.327 20 6.5 20 5 19.327 5 18.5 5.673 17 6.5 17m0-1a2.5 2.5 0 100 5 2.5 2.5 0 000-5z" fill="#f5c276"></path><path d="M20 37.918c-7.04 0-13.071-12.746-13.071-23.181C6.929 7.759 12.792 2.082 20 2.082S33.071 7.76 33.071 14.738c0 10.434-6.031 23.18-13.071 23.18z" fill="#f78f8f"></path><path d="M20 2.582c6.932 0 12.571 5.453 12.571 12.156 0 10.21-5.801 22.681-12.571 22.681S7.429 24.947 7.429 14.738C7.429 8.035 13.068 2.582 20 2.582m0-1c-7.495 0-13.571 5.89-13.571 13.156 0 10.568 6.076 23.681 13.571 23.681s13.571-13.113 13.571-23.681c0-7.266-6.076-13.156-13.571-13.156z" fill="#c74343"></path><g><path d="M20 38C12.999 38 7 25.118 7 14.571 7 7.64 12.832 2 20 2s13 5.64 13 12.571C33 25.118 27.001 38 20 38z" fill="#ffeea3"></path><path d="M20 3c6.617 0 12 5.191 12 11.571C32 25.471 25.832 37 20 37S8 25.471 8 14.571C8 8.191 13.383 3 20 3m0-2C12.268 1 6 7.076 6 14.571 6 25.473 12.268 39 20 39s14-13.527 14-24.429C34 7.076 27.732 1 20 1z" fill="#c74343"></path></g><g><path d="M20 19.424l-6.988 3.993-6.097-3.81a32.307 32.307 0 01-.415-5.036C6.5 7.364 12.556 1.5 20 1.5s13.5 5.864 13.5 13.071c0 1.608-.14 3.301-.415 5.037l-6.097 3.81L20 19.424z" fill="#f78f8f"></path><path d="M20 2c7.168 0 13 5.64 13 12.571 0 1.513-.126 3.103-.374 4.733l-5.649 3.53-6.481-3.703-.496-.283-.496.284-6.481 3.703-5.649-3.53A31.612 31.612 0 017 14.571C7 7.64 12.832 2 20 2m0-1C12.268 1 6 7.076 6 14.571c0 1.735.16 3.537.458 5.34L13 24l7-4 7 4 6.542-4.089c.298-1.803.458-3.604.458-5.34C34 7.076 27.732 1 20 1z" fill="#c74343"></path></g><path d="M16.65 32.061l-.66-.751C16.005 31.296 17.486 30 20 30c2.466 0 3.939 1.248 4.001 1.301l-.653.758C23.336 32.048 22.082 31 20 31c-2.085 0-3.337 1.05-3.35 1.061z" fill="#ba9b48"></path><g><path d="M20 19.424l-6.988 3.993-4.578-2.861-1.528-1.018-.032-.219c-.151-1-.254-2.074-.313-3.28l-.034-.672.653.162c.815.202 8.109 1.971 12.82 1.971s12.005-1.769 12.821-1.971l.653-.162-.034.673a32.835 32.835 0 01-.313 3.28l-.032.219-1.516 1.01-4.591 2.869L20 19.424z" fill="#e8d47b"></path><path d="M32.942 16.014a32.583 32.583 0 01-.309 3.231l-1.331.887-4.325 2.703-6.481-3.703-.496-.284-.496.284-6.481 3.703-4.325-2.703-1.331-.887a32.554 32.554 0 01-.309-3.231C7.657 16.163 15.169 18 20 18c4.831 0 12.343-1.837 12.942-1.986m1.066-1.294l-1.307.324C32.379 15.124 24.754 17 20 17c-4.749 0-12.379-1.876-12.701-1.956l-1.307-.324.067 1.344c.061 1.222.165 2.311.319 3.33l.066.438.368.245 1.331.887 4.349 2.719L13 24l.519-.297L20 20l6.481 3.703L27 24l.507-.317 4.325-2.703 1.355-.903.368-.245.066-.438c.154-1.019.258-2.108.319-3.33l.068-1.344z" fill="#c74343"></path></g><g><path d="M13.7 19.5c-1.322 0-2.463-1.065-3.315-2.232 1.463.297 3.272.63 5.086.875-.18.69-1.005 1.357-1.771 1.357z" fill="#a16a4a"></path><path d="M11.703 18.035c.928.174 1.935.348 2.958.498-.263.27-.633.467-.961.467-.724 0-1.401-.398-1.997-.965m-2.4-1.505C10.067 17.817 11.612 20 13.7 20c1.083 0 2.186-.979 2.3-2 .003-.109-.012-.193-.014-.294-2.45-.309-4.948-.801-6.683-1.176z" fill="#704e34"></path><g><path d="M26.107 19.5c-.736 0-1.399-.691-1.573-1.358a79.075 79.075 0 004.99-.855c-.795.99-2.054 2.213-3.417 2.213z" fill="#a16a4a"></path><path d="M28.091 18.074c-.64.552-1.327.926-1.984.926-.279 0-.59-.193-.812-.46a77.186 77.186 0 002.796-.466m2.589-1.54c-1.736.375-4.229.865-6.672 1.173-.003.097-.008.189-.008.293.11.989 1.057 2 2.107 2 2.017 0 3.76-2.191 4.573-3.466z" fill="#704e34"></path></g></g></svg>