<svg viewBox="0 0 40 40" xmlns="http://www.w3.org/2000/svg"><path fill="#f78f8f" d="M.5 5.5h39v29H.5z"></path><path d="M39 6v28H1V6h38m1-1H0v30h40V5z" fill="#c74343"></path><path fill="#8bb7f0" d="M.5 5.5h39v14H.5z"></path><path d="M39 6v13H1V6h38m1-1H0v15h40V5z" fill="#4e7ab5"></path><g><path fill="#f2faff" d="M13.5 14.5h13v10.994h-13z"></path><path d="M26 15v9.994H14V15h12m1-1H13v11.994h14V14z" fill="#a3b7cc"></path><path d="M22.415 22.234l-2.449.074-2.438.029s-1.253.483-1.765.591c-.511.109-.444.283-.839.376-.316.074-.353.097-.539.11-.112.007-.251.097-.386.197v1.382h11.999v-1.315a2.3 2.3 0 00-.381-.17c-.177-.062-.295-.131-.612-.205-.396-.092-.328-.267-.839-.376-.51-.106-1.751-.693-1.751-.693z" fill="#5e9c76"></path><path fill="#c29653" d="M19.495 19.151l-.002-.01-.201.005.302 1.305-.467-1.372-.002-.009-.227.015.549 1.542.253.283.027.116h.023l.07-.45zM18.799 19.327l-.161.035.326.731.404.447.018-.013-.583-1.191z"></path><path d="M17.575 18.535l-.007-.009-.008.007c-.452.374-.374 1.066-.373 1.073v.005l1.647 1.349.014.011.179-.774.001-.006-1.453-1.656z" fill="#4e7ab5"></path><path d="M19.856 21.105l-1.076-1.137c-.454.016-.094.725-.071.814l1.147 1.023v-.7z" fill="#c74343"></path><path fill="#c29653" d="M19.775 20.908v-.004l-2.226-2.488-.007-.007-.106.077 2.362 2.739.025.03z"></path><path d="M17.519 18.135l-.01.005a1.103 1.103 0 00-.121.079l-.014-.017.005-.12-.496-.329.224.524.159.03.009.011c-.04.039-.074.078-.104.116l-.008.01.208.156.28-.247.008-.007-.14-.211z" fill="#c29653"></path><path d="M17.965 18.417l-.007-.007c-.072-.081-.15-.12-.233-.116a.337.337 0 00-.208.101l-.002-.002-.138.12v.002l-.457.342.084.155.01-.006a.203.203 0 00.027-.018l.169.123v-.019c.017-.112.224-.398.26-.424a.517.517 0 01.042.014c.145.051.296.102.453-.265z" fill="#c74343"></path><path d="M16.569 19.115l-.008-.006-.007.007c-.313.332-.066 1.323-.055 1.365l.001.005 1.785 1.009.016.009.095-.875-1.827-1.514z" fill="#4e7ab5"></path><path d="M19.894 21.857l-1.498-1.253c-.512.075-.109.861-.079.947l1.582.896-.005-.59z" fill="#c74343"></path><path fill="#c29653" d="M19.845 21.6l-.001-.003-3.243-2.541-.008-.006-.09.095 3.413 2.781.029.024z"></path><path d="M16.525 18.785l-.008.006a1.147 1.147 0 00-.106.098l-.017-.014-.016-.119-.547-.238.31.478.161.001.012.01a1.09 1.09 0 00-.082.133l-.006.011.231.117.234-.292.007-.009-.173-.182z" fill="#c29653"></path><path d="M16.933 19.016l-.01.012c-.059-.068-.124-.103-.194-.1-.094.005-.172.072-.223.128l-.004-.002-.119.141v.002l-.336.369.021.145-.007.009.009.004.001.005.005-.002.257.115-.002-.022c-.014-.121.141-.473.176-.512a.265.265 0 00.037.012c.1.032.192.062.269.014.069-.042.113-.142.142-.311l-.022-.007z" fill="#c74343"></path><path d="M18.256 21.547c-.037-.016-1.551-.911-2.345-1.381l-.01-.006-.006.01c-.174.308-.017.734.056.81a.977.977 0 01-.007.134c-.013.135-.026.274.097.584.052.283.177.527.344.67.101.401.349.659.662.691l.063.002c.27 0 .519-.18.658-.48l.495-1.016.007-.014-.014-.004z" fill="#4e7ab5"></path><path d="M19.791 22.465l-1.59-.973c-.512.075.011 1.066.041 1.153l1.536.569.013-.749z" fill="#c74343"></path><path fill="#c29653" d="M19.531 22.103l-3.597-1.999-.008-.005-.075.109 3.835 2.228z"></path><path d="M15.816 19.851l-.007.007c-.037.041-.057.078-.083.117l-.025-.015-.034-.115-.577-.15.381.423.159-.024.015.009c-.024.05-.047.099-.063.144l-.005.012.246.079.191-.336-.198-.151z" fill="#c29653"></path><path d="M16.286 19.997c-.066-.064-.135-.089-.203-.075-.104.021-.179.123-.221.191l-.005-.002-.095.151-.004.005-.325.432.085.175.012-.009a.097.097 0 00.007-.009l.264.081-.004-.019c-.023-.125.053-.509.082-.559.096.03.197.052.275-.001.076-.052.12-.166.141-.358l-.009-.003z" fill="#c74343"></path><path fill="#c29653" d="M21.086 19.086l-.228-.015-.472 1.388.299-1.299.004-.015-.201-.005-.326 1.432v.003l.07.45.023.001.026-.115.253-.279zM21.183 19.326l-.587 1.2.02.014.4-.444.322-.722.006-.013z"></path><path fill="#a3b7cc" d="M19.121 18.21v-.001.001l-.012.001.122 1.096.001.011.154-.009-.254-1.101zM18.646 18.228l.225 1.062.003.01h.208l-.414-1.08zM18.224 18.535l.357 1.017h.21l-.545-1.027zM20.597 19.308l.154.01.123-1.108-.023-.003zM21.313 18.221L20.9 19.3h.208l.226-1.071zM21.736 18.525l-.545 1.027h.21l.357-1.017z"></path><path d="M22.422 18.535l-.008-.007-1.457 1.661-.005.005.182.779 1.657-1.356.004-.002.001-.005c0-.01.08-.701-.374-1.075z" fill="#4e7ab5"></path><path d="M20.126 21.105l1.076-1.137c.454.016.094.725.071.814l-1.147 1.023v-.7z" fill="#c74343"></path><path fill="#c29653" d="M22.44 18.409l-2.23 2.493-.002.002-.049.351 2.379-2.759.008-.01z"></path><path d="M22.877 18.278l.224-.524-.492.326-.006.004.005.12-.013.016a1.103 1.103 0 00-.121-.078l-.01-.005-.138.21.281.248.007.006.208-.156-.008-.01a1.34 1.34 0 00-.104-.116l.009-.01.158-.031z" fill="#c29653"></path><path d="M22.605 18.515v-.002l-.139-.12-.001.001a.34.34 0 00-.207-.101h-.012c-.079 0-.154.04-.222.117l-.002.002-.006.004c.156.367.308.314.454.264l.042-.014c.037.025.243.311.26.424l.002.019.167-.122c.013.01.024.018.029.02l.01.004.084-.155-.459-.341z" fill="#c74343"></path><path d="M23.427 19.116l-.007-.007-1.83 1.517-.005.004.096.875 1.795-1.016.005-.002.001-.005c.011-.042.258-1.034-.055-1.366z" fill="#4e7ab5"></path><path d="M20.088 21.857l1.498-1.253c.512.075.109.861.079.947l-1.582.896.005-.59z" fill="#c74343"></path><path fill="#c29653" d="M23.389 19.05l-3.248 2.544-.004.003-.1.353 3.431-2.796.011-.009z"></path><path d="M23.84 18.998l.31-.478-.54.236-.006.002-.016.119-.016.013a1.147 1.147 0 00-.106-.098l-.008-.006-.173.182.24.301.232-.117-.006-.011a1.354 1.354 0 00-.083-.133l.01-.008.162-.002z" fill="#c29653"></path><path d="M23.913 19.712l.019-.146-.333-.366v-.002l-.119-.141-.004.002c-.051-.056-.13-.125-.225-.13h-.011c-.066 0-.127.035-.183.099l-.008-.01-.022.007c.029.168.073.267.142.311.077.049.171.019.269-.014a.229.229 0 01.037-.012c.036.04.19.391.176.512l-.002.021.258-.115.004.003.001-.005.009-.004-.008-.01z" fill="#c74343"></path><path d="M24.03 20.978c.073-.077.231-.503.057-.81l-.006-.01-.01.006c-.793.47-2.3 1.36-2.345 1.381l-.013.004.503 1.029c.139.302.387.482.658.482.02 0 .041-.001.061-.004.314-.031.561-.291.662-.691.167-.143.292-.387.343-.668.125-.313.112-.452.099-.586a.731.731 0 01-.009-.133z" fill="#4e7ab5"></path><path d="M20.191 22.465l1.59-.973c.512.075-.011 1.066-.041 1.153l-1.536.569-.013-.749z" fill="#c74343"></path><path fill="#c29653" d="M24.056 20.099l-3.603 2.002-.003.002-.153.333 3.823-2.222.011-.006z"></path><path d="M24.321 19.844l-.006.001-.034.115-.025.015c-.026-.038-.046-.075-.083-.116l-.007-.007-.198.152.186.327.005.009.245-.079-.004-.013a1.344 1.344 0 00-.063-.144l.014-.008.153.022.006.001.381-.423-.57.148z" fill="#c29653"></path><path d="M18.965 23.184l.551.16.016.005-.024-.318v-.009l-.382-.124.001-.208a.235.235 0 00-.062-.167.185.185 0 00-.113-.049l.002-.171h-.136l.002.22c-.061.026-.059.076-.056.14l.001.024v.095l-.155-.05-.245-.436.199.021-.016.096.18.027.04-.277a.146.146 0 00.127.075.147.147 0 000-.295.13.13 0 00-.1.046l.023-.175-.168-.011-.01.06-.27-.029.005-.044h-.148l-.004.028-.548-.058c-.028-.02-.057-.036-.087-.053l-.429-.659-.007-.01-.088.069.337.524a.855.855 0 00-.228-.034.86.86 0 00-.347.074l-.415-.044-.118-.08-.004.067-.329-.035.008-.055.001-.01-.151-.06-.076.615-.001.014h.143l.007-.047.371.039-.003.045.096.012.006-.047.035.004a.872.872 0 00-.09.381c0 .273.127.514.323.675l.017.016.002-.002a.85.85 0 00.526.184.866.866 0 00.822-.612l.053.011.112.208.111.032.202.313.007.01.099-.077-.126-.193.315.092.001.188c-.012.017-.037.027-.065.037-.024.009-.048.017-.065.034a.062.062 0 00-.02.06c.006.029.038.07.156.1l.126.004c.121-.029.189-.066.194-.107.001-.016-.007-.041-.056-.06l-.014-.005a.374.374 0 01-.12-.061l.004-.134.055.001zm-.188-1.14z" fill="#f5c276"></path><path d="M24.219 20.261l-.094-.151-.006.002c-.042-.069-.117-.169-.219-.19-.067-.013-.134.013-.198.072l-.016.006c.02.192.065.306.141.358.078.054.179.031.275.001.029.052.106.435.082.559l-.004.02.263-.083a.115.115 0 00.008.01l.011.009.085-.175-.328-.438z" fill="#c74343"></path><path d="M20.493 16.752l-.044-.497-.975.039.006.453.351.051L19.772 18h.392l-.054-1.192.383-.056zm-.354 1.224h-.344l.058-1.199-.352-.051-.005-.408.93-.037.041.452-.382.056.054 1.187z" fill="#016a16"></path><path d="M22.61 16.511c-.204-.378-.819-.403-1.166-.384a3.64 3.64 0 00-.693.108c.122-.079.278-.156.413-.157l.029.001c.01.001.016-.001.02-.006.007-.009.005-.02.002-.032-.002-.016-.005-.029.004-.039l.16.077-.002-.021a.572.572 0 00-.047-.171.872.872 0 01.073.051c.084.061.111.079.126.072l.013-.005-.007-.012c-.002-.002-.034-.06-.07-.101.058.017.185.074.301.131l.038.02-.023-.036a4.715 4.715 0 00-.089-.135l.031.012c.06.025.142.059.23.041l.025-.005-.022-.016c-.215-.164-.988-.626-1.955.381l-.022.001c-.968-1.008-1.742-.547-1.956-.382l-.022.016.025.005a.397.397 0 00.23-.041.321.321 0 01.031-.012 4.715 4.715 0 00-.089.135l-.023.036.037-.019c.115-.057.243-.114.301-.131a.693.693 0 00-.07.101l-.007.012.013.005c.016.006.042-.011.126-.072l.073-.051a.572.572 0 00-.047.171l-.002.021.16-.077c.008.009.007.021.004.039-.002.012-.005.024.002.032.005.005.012.006.02.006.142-.012.313.071.444.156a3.67 3.67 0 00-.696-.109c-.347-.019-.962.006-1.166.384l-.007.014.014.004c.119.031.23-.062.277-.109l-.012.149.234-.187-.071.162.01.007.008.006.179-.151-.007.175.237-.268-.028.141.219-.097-.009.046c-.119.07-.223.118-.316.161-.266.125-.427.198-.474.589l-.002.021.018-.007c.04-.016.132-.128.166-.17l.106.22.029-.273.072.205.109-.342.023.221.19-.26.087.074.075-.18.065.112.01-.006c.001-.001.117-.072.18-.032l.008.005.127-.152.032.116.118-.145.041.097.106-.1-.005.06.071.001c-.425.109-1.064.404-1.266.726l.016.017c.073-.042.126-.069.148-.079l.055.178.056-.145.007.074.023.004c.016-.044.034-.066.051-.069.018-.002.044.019.076.065l.016.022.022-.125.034.125.064-.155c.012.049.035.121.055.133.006.004.011.004.014.002l.006-.001.002-.006a1.38 1.38 0 01.133-.286l.011.16.023.004.054-.153.046.109.022-.004.011-.145.057.132c-.138.208-.221.421-.207.55l.004.029.043-.056c.06-.077.103-.134.12-.134h.001c.013.002.025.051.042.114.01.034.02.076.035.125l.024-.004c.011-.082.032-.211.053-.262l.051.166.023-.002.02-.238.061.002-.014-.143.061.049a.382.382 0 00-.058.161l-.002.021.222-.102c-.064.075-.188.227-.21.333l-.008.036.102-.094a.593.593 0 00-.069.332l.002.029.102-.12c-.023.267-.007.303.117.519l.023-.007c-.012-.121-.023-.316-.005-.371l.274.297.008-.005.011-.007-.13-.356c.061.082.168.205.246.185l.016-.004-.192-.306.033.029-.001.02h.025l.105.09.017-.016-.047-.074h.219l-.047.074.009.008.008.008.162-.138-.192.306.016.004a.088.088 0 00.017.002c.076 0 .172-.11.23-.187l-.13.356.01.006v.001l.001-.001.009.006.274-.297c.018.055.007.25-.005.371l.022.007c.124-.217.138-.253.114-.52l.102.12.002-.027a.585.585 0 00-.069-.332l.102.094-.008-.036c-.023-.106-.145-.26-.21-.333l.222.102-.002-.021a.377.377 0 00-.057-.157l.064-.051-.014.143.061-.002.02.238.023.002.051-.166c.019.051.041.18.052.262l.023.002a5.13 5.13 0 01.037-.125c.017-.062.029-.111.042-.114h.001c.018 0 .061.056.12.134l.043.056.004-.029c.015-.129-.068-.342-.206-.55l.057-.134.01.146.022.004.046-.109.054.153.023-.004.011-.16c.032.037.089.165.133.286l.002.006.006.001a.019.019 0 00.014-.002c.02-.012.042-.085.055-.133l.064.155.034-.125.022.125.016-.022c.031-.045.056-.067.076-.065.017.001.034.025.05.069l.023-.004.007-.074.054.145.06-.18c.022.011.075.036.147.079l.013-.017c-.199-.318-.822-.609-1.247-.722l.045-.001-.005-.06.106.1.043-.101.118.145.032-.116.121.145.006.007.008-.005c.064-.04.179.031.18.032l.01.006.065-.112.075.18.085-.074.19.26.023-.221.109.342.072-.205.031.273.105-.216c.034.041.126.152.166.17l.018.007-.002-.021c-.046-.391-.207-.465-.474-.589-.09-.043-.194-.091-.313-.16l-.01-.052.219.097-.028-.141.237.269-.008-.176.179.151.008-.006.001.001-.001-.002.009-.007-.071-.162.234.187-.012-.149c.047.046.159.14.277.109l.014-.004-.005-.011zm-1.949.862a.528.528 0 00-.155-.146l.141.015c.035.04.03.068.017.121l-.003.01zm-.049-.166a.299.299 0 01.031.031l-.205-.16.078-.024-.063-.126.083.03c.02.027.014.096.011.12l-.006.036.099-.1c.04.1.029.14.018.155-.012.019-.036.016-.036.016l-.041-.005.031.027zm-.482.319l.093-.107a.562.562 0 01-.088.224l-.005-.117zm-.018-.403l.062.013-.058.07-.004-.083zm-.791.239c-.013-.053-.019-.08.015-.12l.137-.014a.516.516 0 00-.151.14l-.001-.006zm.042-.177s-.023.002-.036-.016c-.011-.015-.022-.055.018-.155l.099.1-.006-.036c-.004-.024-.01-.091.011-.12l.078-.028-.063.125.078.024-.189.148.021-.021.031-.026-.042.005zm.173.025zm.224.209l.049.057-.004.083a.4.4 0 01-.045-.14zm-.349.262zm.394-.545l.02-.004-.001.027-.019-.023zm-.809.039c.008-.037.037-.134.071-.162l.036.034c-.04.048-.078.098-.112.148l.005-.02zm.701.522l.099.031-.006.115-.093-.146zm.443.046l.146-.046-.138.216-.008-.17zm.742-.697l.037-.035c.034.029.063.125.071.162l.006.024a1.992 1.992 0 00-.114-.151z" fill="#5e9c76"></path><path d="M20.187 18.963h.034l-.048-.282h.028l-.069-.287h.022l-.048-.267h.019l-.026-.152h-.28l-.031.152h.019l-.055.267h.043l-.071.287h.032l-.063.282h.026c-.009.141-.028.465-.041.787h-.009v.024h.008l-.008.26h-.001v.024a5.645 5.645 0 00-.001.258c.006.262.039.689.072 1.071v.024h.002c.038.424.075.788.076.795l.001.011h.313l.002-.01c.001-.014.15-1.324.15-1.884 0-.374-.073-1.127-.096-1.36z" fill="#c29653"></path><path d="M20.206 15.243c-.125-.064-.314-.087-.365-.047-.011.009-.017.021-.014.034.005.037.028.049.044.056.028.012.053.025-.028.215l-.09.16a.065.065 0 00-.011.056c.02.087.185.186.242.213a.4.4 0 00.176.036c.017 0 .032 0 .051-.005h.006l.1-.201v-.002c-.004-.222.013-.272.024-.302a.1.1 0 00.007-.044c-.004-.065-.053-.124-.142-.169z" fill="#4e7ab5"></path><path fill="#c29653" d="M19.947 15.632l-.035.956v.006l.148.13.033-1.037v-.01z"></path><path d="M20.304 15.661c-.087-.115-.155-.125-.249-.138a.9.9 0 01-.185-.042l-.007-.002-.016.017c-.048.052-.127.14-.107.21l.001.005.005.002c.182.09.21.077.233.05.008-.009.013-.015.038-.01.032.006.06.041.113.11.019.026.043.057.072.092l.006.007.01-.007c.081-.049.138-.2.086-.294z" fill="#c74343"></path><path d="M18.573 21.325c0-.079-.08-.142-.192-.165l.008-.127h-.201l.012.127c-.11.024-.187.087-.187.164 0 .013.005.026.01.039-.005.013-.01.026-.01.039 0 .032.016.06.038.085v.083c0 .178.108.323.242.323.135 0 .243-.145.243-.323v-.084c.022-.025.038-.053.037-.084 0-.013-.005-.026-.009-.039.004-.012.009-.025.009-.038z" fill="#5e9c76"></path><path d="M17.139 20.872c-.023-.041-.067-.08-.149-.035a.095.095 0 00-.05.06.144.144 0 00.016.105l.145.255.196-.11-.158-.275z" fill="#f2faff"></path><path fill="#f5c276" d="M19.53 21.618l-.002-.011-.124.013.13.846.002.016.142-.077z"></path><path d="M18.091 23.029l-.075-.066-.004-.002a.051.051 0 00-.049.004c-.046.031-.047.149-.047.162v.012l.136.001a.14.14 0 01.067.089c.002.012.004.031-.008.045-.008.01-.081-.002-.123-.01-.085-.015-.16-.029-.172.01l-.001.002v.002a.362.362 0 00.244.277.374.374 0 00.119.021.22.22 0 00.144-.047.282.282 0 00.072-.267c-.017-.067-.081-.187-.303-.233z" fill="#f2faff"></path><path d="M14.703 21.905l-.003-.004-.005.001c-.023.004-.22.036-.237.13-.007.044.017.097.038.146.012.029.025.057.025.072-.017.012-.112.03-.19.044-.184.034-.264.051-.272.082-.001.005-.001.015.01.024.017.014.1.025.201.025a.986.986 0 00.242-.026c.091-.02.149-.054.171-.097.014-.027-.011-.071-.034-.109a.206.206 0 01-.019-.035c.052-.015.251-.015.327-.014l.034.001-.288-.24z" fill="#c74343"></path><path d="M24.164 21.454l-.151.06.01.066-.329.035-.004-.067-.118.08-.414.044a.85.85 0 00-.349-.075.884.884 0 00-.231.035l.339-.527-.088-.069-.438.673c-.03.017-.059.033-.086.053l-.415.044a.193.193 0 00.097-.05.113.113 0 00.031-.091.398.398 0 00-.135-.276c-.015-.013-.031-.02-.046-.028-.001-.009.002-.016-.001-.025-.016-.051-.056-.091-.094-.092l-.139.004a.231.231 0 00-.154.085c-.018.024-.024.047-.019.07.012.055.046.084.094.084.007 0 .016 0 .026-.002.004-.001.01-.008.015-.01a.508.508 0 00.007.264.533.533 0 00-.052.109l-.179.019-.008-.049-.001-.011-.168.011.023.175a.127.127 0 00-.1-.046.147.147 0 000 .295c.053 0 .102-.03.127-.075l.04.276.18-.026-.016-.097.197-.021-.243.435-.154.05v-.092l.001-.024c.002-.064.004-.114-.056-.14l.002-.208v-.012h-.136l.002.171a.172.172 0 00-.113.049.231.231 0 00-.063.167l.001.207-.376.122-.007.002-.023.324.567-.165.06-.002.004.134a.374.374 0 01-.12.061l-.014.005c-.049.019-.058.042-.057.06.004.041.071.08.195.107l.127-.002c.115-.03.147-.071.154-.1a.061.061 0 00-.02-.06c-.017-.016-.041-.025-.065-.034-.026-.01-.053-.019-.065-.037l.001-.19.312-.091-.118.182-.006.01.099.079.208-.324.106-.031.005-.001.112-.208.054-.011a.866.866 0 00.823.612c.199 0 .38-.071.527-.184l.001.001.017-.016a.87.87 0 00.322-.674.864.864 0 00-.09-.38l.035-.004.006.046.097-.011-.003-.045.37-.039.005.036.001.01h.143l-.079-.63z" fill="#f5c276"></path><path d="M16.208 22.889l.009-.022-.668-.303-.104-.094-.037-.148-.013.01-.064.048-.631-.544c-.001-.001-.018-.019-.038-.019a.038.038 0 00-.03.015.047.047 0 00-.012.031c.001.024.019.041.022.044l.624.538a.843.843 0 00-.057.085l-.01.017.16.007.09.086.097.427.022-.005-.089-.392.085.081.131.292.021-.01-.108-.24.204.195.004.004.172-.027-.017-.017a8.09 8.09 0 00-.117-.106l.17.095.011-.021-.258-.145-.169-.153.6.271z" fill="#c29653"></path><circle cx="17.786" cy="23.596" r=".106" fill="#f5c276"></circle><circle cx="17.545" cy="23.419" r=".106" fill="#f5c276"></circle><circle cx="17.222" cy="23.536" r=".106" fill="#f5c276"></circle><circle cx="16.723" cy="23.648" r=".106" fill="#f5c276"></circle><path d="M16.513 23.567c-.015 0-.024.01-.037.015a.107.107 0 00.028-.067c.015.041.047.074.092.074a.106.106 0 000-.212c-.008 0-.014.007-.021.009a.108.108 0 00.027-.066.106.106 0 00-.106-.106c-.049 0-.083.036-.095.08-.011-.047-.047-.085-.097-.085a.105.105 0 00-.106.106c0 .06.048.107.106.107.049 0 .083-.036.095-.081.011.047.047.085.097.085.008 0 .013-.007.021-.009a.108.108 0 00-.025.06c-.015-.042-.047-.075-.093-.075-.054 0-.093.042-.1.094a.105.105 0 00-.21.004c0 .029.012.055.031.074-.01-.003-.017-.011-.027-.011a.106.106 0 10.106.106.104.104 0 00-.031-.074c.01.003.017.011.027.011.052 0 .092-.041.1-.092a.101.101 0 00.025.061c-.006-.001-.011-.007-.017-.007a.105.105 0 00-.106.106.105.105 0 10.211.003.106.106 0 00.105.104.107.107 0 000-.214zm-.076.033a.108.108 0 00-.029.07.108.108 0 00-.026-.062c.006.001.011.007.017.007.015 0 .025-.01.038-.015zM19.761 23.706c0-.016-.01-.03-.025-.037a.088.088 0 00-.087.016l-.011-.006c-.046-.029-.089-.057-.13-.02a.172.172 0 00-.129-.045.109.109 0 00-.078.045c-.016-.014-.03-.021-.047-.02-.011.001-.024.006-.037.024a.147.147 0 00-.102-.049c-.016.001-.032.016-.049.023l-.008.004c-.018.009-.037.009-.055.026a.18.18 0 00-.121-.055c-.041-.002-.079.007-.103.03-.048-.042-.095-.061-.139-.055-.043.005-.082.034-.115.082-.007-.004-.013-.009-.02-.012-.036-.022-.077-.049-.144.007a.191.191 0 00-.15-.051c-.02.005-.032.017-.032.036 0 .035.034.044.06.051.023.006.037.011.037.021 0 .007-.012.012-.031.017-.023.006-.052.014-.052.044 0 .012.007.025.02.031.029.015.09.007.13-.016.013.03.037.05.069.056.046.009.097-.012.137-.057.055.046.121.074.228-.002a.141.141 0 00.095.05.124.124 0 00.107-.054l.024-.001c.008.016.027.018.04.028l.015.011c.015.009.024.027.042.03a.144.144 0 00.123-.04.054.054 0 00.03.015c.02.004.044-.004.067-.02.02.025.048.039.078.04h.005c.026 0 .053-.01.073-.027a.095.095 0 00.07.042.089.089 0 00.078-.022.07.07 0 00.055.025l.016-.002c.028-.004.047-.02.047-.04 0-.031-.024-.039-.04-.045-.016-.005-.019-.007-.019-.014 0-.01.012-.014.031-.02.02-.007.047-.015.047-.044z" fill="#f5c276"></path><path d="M22.992 20.835c-.081-.044-.126-.005-.149.035l-.157.274.196.111.146-.255a.143.143 0 00.014-.105.105.105 0 00-.05-.06z" fill="#f2faff"></path><path fill="#f5c276" d="M20.453 21.607l-.148.789-.001.009.142.077.129-.849.002-.013z"></path><path d="M19.677 21.504l-.147.003-.008-.07c-.012-.035-.037-.051-.069-.045-.041.007-.081.05-.081.086l.002.015c-.057-.007-.127-.021-.227-.152l-.007-.01-.01.009c-.163.156-.117.23-.058.322.03.047.065.102.077.177l.001.006.006.002a.058.058 0 00.018.004c.029 0 .053-.03.082-.064a.37.37 0 01.139-.109l.003.026.151-.02-.005-.04.202-.019.018-.002-.083-.119h-.004zM20.85 21.34l-.01-.009-.007.01c-.098.129-.167.144-.224.152l.002-.017c0-.035-.04-.077-.081-.085-.031-.005-.057.01-.07.047l-.008.069-.148-.003h-.006l-.083.119.02.001.201.019-.005.04.151.021.003-.027c.06.027.106.068.14.109.028.035.052.065.081.065a.038.038 0 00.017-.004l.006-.002.001-.006c.012-.076.047-.13.077-.177.06-.093.106-.166-.057-.322zM22.166 23.272c-.012-.039-.085-.026-.172-.01-.042.007-.113.02-.123.01-.012-.014-.011-.032-.008-.045a.144.144 0 01.067-.089l.136-.001v-.012c0-.012-.001-.13-.047-.162-.01-.007-.026-.012-.049-.004l-.078.069c-.222.046-.286.166-.304.233-.007.025.002.048.002.072v.01c.005.076.029.146.07.185a.207.207 0 00.143.049.351.351 0 00.12-.022.36.36 0 00.244-.277v-.002l-.001-.004z" fill="#f2faff"></path><path d="M25.649 22.297c-.077-.014-.173-.031-.19-.044.001-.016.014-.045.026-.072.022-.049.047-.104.038-.146-.018-.094-.214-.126-.237-.13l-.005-.001-.291.245.034-.001c.076-.001.275-.001.327.014l-.019.035c-.022.039-.048.081-.034.109.023.044.081.076.172.097.075.017.162.024.24.024.1 0 .184-.011.2-.022.011-.009.011-.019.01-.024-.007-.033-.088-.051-.271-.084z" fill="#c74343"></path><path d="M25.351 21.832a.038.038 0 00-.03-.015.051.051 0 00-.038.019l-.631.546a2.766 2.766 0 00-.065-.049l-.013-.01-.037.148-.058.052h-.002v.002a1.53 1.53 0 00-.048.044l-.662.294.009.022.597-.265-.169.153-.255.141.011.021.168-.093-.114.104-.017.017.173.027.207-.199-.109.239.021.01.133-.293.056-.054v.378h.023v-.4l.124-.119.16-.007-.01-.017a.794.794 0 00-.056-.084l.625-.539c.012-.011.031-.045.007-.073z" fill="#c29653"></path><circle cx="22.196" cy="23.596" r=".106" fill="#f5c276"></circle><circle cx="22.437" cy="23.419" r=".106" fill="#f5c276"></circle><circle cx="22.76" cy="23.536" r=".106" fill="#f5c276"></circle><g><circle cx="23.259" cy="23.648" r=".106" fill="#f5c276"></circle><path d="M23.889 23.562c-.011 0-.017.008-.027.011a.104.104 0 00.031-.074.105.105 0 00-.21-.004c-.008-.052-.048-.094-.1-.094-.046 0-.078.034-.093.075a.105.105 0 00-.025-.06c.008.002.013.009.022.009.05 0 .086-.039.097-.086.013.046.047.082.095.082a.107.107 0 00.106-.107.106.106 0 00-.106-.106c-.051 0-.087.038-.097.085-.013-.045-.047-.08-.095-.08a.105.105 0 00-.106.106.1.1 0 00.028.066c-.008-.002-.013-.009-.022-.009a.106.106 0 000 .212c.046 0 .078-.033.093-.074a.107.107 0 00.028.067c-.012-.005-.022-.015-.036-.015a.105.105 0 00-.106.106c0 .06.048.107.106.107.056 0 .1-.045.104-.103a.106.106 0 00.104.103.107.107 0 00.106-.107.106.106 0 00-.106-.106c-.007 0-.011.006-.018.007a.109.109 0 00.026-.061c.008.051.048.092.1.092.01 0 .017-.008.027-.011a.107.107 0 00-.03.073.106.106 0 00.212 0 .106.106 0 00-.108-.104zm-.29.046a.101.101 0 00-.025.06.104.104 0 00-.028-.068c.012.005.022.015.036.015.007 0 .011-.005.017-.007z" fill="#f5c276"></path></g><g><path d="M20.561 22.4v-.005c0 .002-.003.003-.003.005h-.009v.015c-.031.1-.269.178-.567.178-.299 0-.536-.078-.567-.178V22.4h-.009c0-.002-.003-.003-.003-.005v.005h-.013v.928c0 .119.26.211.591.211.332 0 .591-.092.591-.211V22.4h-.011z" fill="#f5c276"></path></g><g><path d="M21.744 23.739c-.018-.005-.031-.009-.031-.017 0-.01.014-.015.037-.021.026-.007.06-.016.06-.051 0-.019-.012-.031-.032-.036a.184.184 0 00-.15.051c-.066-.057-.108-.031-.144-.007-.006.004-.013.009-.02.012-.034-.049-.073-.077-.115-.082-.046-.007-.091.012-.139.055a.147.147 0 00-.103-.03.179.179 0 00-.121.055.16.16 0 00-.111-.052h-.001c-.02.001-.039.017-.058.028l-.005.002c-.013.008-.027.007-.04.019a.057.057 0 00-.037-.024c-.017-.002-.032.005-.047.02a.112.112 0 00-.078-.045.177.177 0 00-.129.045c-.042-.039-.084-.01-.13.02l-.011.007a.086.086 0 00-.087-.016.039.039 0 00-.025.037c0 .027.026.036.048.042.019.006.031.011.031.02 0 .006-.004.009-.019.014s-.04.014-.04.045c0 .02.019.036.047.04l.011.001c.02 0 .042-.007.058-.025.018.019.047.027.078.022a.105.105 0 00.07-.042.107.107 0 00.078.027.104.104 0 00.078-.04c.022.016.047.024.067.02a.054.054 0 00.03-.015.144.144 0 00.123.04c.019-.003.029-.021.045-.032l.006-.004c.015-.011.037-.015.046-.033l.024.001a.125.125 0 00.107.054.13.13 0 00.095-.05c.106.076.173.049.228.002.04.045.091.066.138.057a.097.097 0 00.069-.056c.04.024.1.032.13.016a.033.033 0 00.02-.031c0-.028-.028-.037-.051-.043z" fill="#f5c276"></path></g><g><path d="M19.98 22.079c-.332 0-.591.129-.591.293 0 .03.008.057.025.086.073.09.302.15.569.15.246 0 .463-.051.554-.136a.169.169 0 00.035-.1c-.001-.164-.261-.293-.592-.293z" fill="#4e7ab5"></path></g><g><path d="M19.401 22.395v.143l.281.906.225-.696.246.724.18-.683.226.459v-.255l-.21-.445c-.024.006-.048.012-.076.017l-.13.504-.184-.477-.09-.002-.184.48-.21-.578c-.046-.028-.074-.062-.074-.097z" fill="#c74343"></path></g><path d="M20.361 22.541l-.004-.009-.01.002a.734.734 0 01-.075.017l-.007.001-.123.477-.171-.443-.001-.006h-.007c-.029 0-.06 0-.09-.002l-.008-.001-.177.459-.2-.549-.001-.004-.004-.002c-.032-.019-.07-.049-.07-.086h-.023v.144l.293.945.225-.697.248.726.182-.691.213.432.022-.005v-.255l-.212-.453zm.188.655l-.218-.442-.179.676-.245-.72-.224.692-.27-.87v-.081a.232.232 0 00.054.046l.22.603.192-.5.075.002.194.503.137-.532a.79.79 0 00.06-.014l.204.434v.203z" fill="#d20014"></path><g><path d="M20.549 22.394c0 .09-.228.186-.567.186-.339 0-.567-.096-.567-.186h-.025v.935c0 .119.26.211.591.211.332 0 .591-.092.591-.211v-.935h-.023zm-1.136.061c.072.089.296.151.567.151.272 0 .496-.064.567-.151v.701c-.003.089-.23.184-.566.184-.339 0-.567-.096-.567-.186h-.001v-.699z" fill="#4e7ab5"></path></g><g><path d="M20.219 23.322a1.789 1.789 0 01-.149.015l-.011.001.001.2.012-.001a2.33 2.33 0 00.151-.016l.01-.001-.001-.2-.013.002zM19.762 23.526h.001l-.001-.001zM19.752 23.325a1.15 1.15 0 01-.147-.031l-.014-.005-.001.2.008.002a.934.934 0 00.151.032l.012.002v-.199l-.009-.001zM19.413 23.157v-.015h-.024v.187c0 .035.024.069.07.1l.018.012.004-.202-.006-.004c-.04-.024-.06-.05-.062-.078zM20.561 23.161l-.012.002-.002.006c-.008.031-.043.062-.099.089l-.007.004.001.201.017-.007c.075-.036.114-.08.114-.126v-.168h-.012z" fill="#f5c276"></path></g><g><path d="M19.982 22.203c-.224 0-.46.046-.46.132s.237.132.46.132c.222 0 .46-.047.46-.132 0-.086-.236-.132-.46-.132z" fill="#f2faff"></path></g><g><path d="M19.843 22.602l.012.001c.047.004.085.005.121.005h.012l.036-.201h-.204l.023.195zM20.225 22.404l.008.185.017-.001c.037-.007.076-.016.111-.026l.011-.004-.001-.195-.146.041zM19.572 22.151l-.01.005.02.155.1-.034.001-.167-.019.006a.673.673 0 00-.092.035zM19.946 22.066l-.03.001.03.187.101-.002.036-.182-.017-.001a.716.716 0 00-.12-.003zM20.323 22.123l-.017-.006-.019.167.117.042.012-.163-.008-.005a.835.835 0 00-.085-.035zM19.388 22.467l.113.054.027-.195-.144-.081zM20.432 22.325l.135.175.008-.22z" fill="#f5c276"></path></g><g><path d="M15.658 23.392a.108.108 0 00-.087.045c-.017-.067-.048-.15-.101-.15h-.007a.092.092 0 00-.07.045c-.022.037-.024.092-.007.15-.171.051-.333.11-.49.166-.148.052-.287.104-.428.145.008-.047.084-.15.139-.212.029.021.054.086.061.111l.012-.001.001.003.001-.003.009-.001c.011-.2.201-.337.203-.338l.025-.017-.03-.004c-.117-.014-.48.127-.527.192l-.016.022.026-.002c.052-.006.109-.009.137-.006-.055.062-.263.306-.274.389v.004l.001.004c.041.094.405.161.501.177a.903.903 0 01-.124.105l-.022.016.025.006c.025.006.05.009.078.009a.817.817 0 00.482-.192l.018-.019-.025-.002a.77.77 0 01-.383-.161l-.018.014c.008.021.026.08.018.114a1.283 1.283 0 01-.264-.106l.264-.075c.197-.055.466-.13.638-.181.012.04.043.1.087.126a.08.08 0 00.07.009c.009-.003.009-.017.014-.024a.048.048 0 00.01-.017.23.23 0 00.004-.129.11.11 0 00.155-.1.106.106 0 00-.106-.112zm.036.115c0 .019-.016.034-.034.034s-.034-.015-.034-.034.016-.034.034-.034c.019 0 .035.015.034.034z" fill="#f5c276"></path></g><g><path d="M25.758 23.788a.618.618 0 00-.07-.105.595.595 0 01-.136-.273c.03.005.109.03.177.055l.022.007-.006-.022c-.022-.076-.409-.467-.529-.493l-.024-.005.012.022c.002.004.168.332.109.525l.02.011a.298.298 0 01.094-.084c.016.086.031.216.023.262l-.816-.36.008-.015c.02-.029.016-.064-.01-.085-.029-.024-.076-.024-.114.024l-.016.025c-.092-.036-.182-.066-.225-.043a.045.045 0 00-.023.029c-.015.055.038.112.15.168l-.017.026c-.037.072-.001.105.011.114a.082.082 0 00.042.011.106.106 0 00.085-.045l.021-.04.867.379c-.017.031-.055.115-.011.171l.004.005.155-.002-.001-.014c-.02-.178.179-.226.188-.228l.014-.004-.004-.016z" fill="#f5c276"></path></g><g><path d="M24.456 24.312l.329-.187-.006-.022c-1.1.032-1.358-.094-1.609-.216a1.64 1.64 0 00-.638-.187.226.226 0 00-.208.081h-.016l-.006.18c-.407.101-1.14.226-2.312.226-1.203 0-1.946-.132-2.345-.234l-.005-.171-.026.002c-.001-.005.004-.01.001-.015-.019-.04-.081-.077-.17-.07-.111.009-.216.064-.35.134-.315.165-.791.415-1.878.311l-.007.022.352.206-.392.146.038.01c.183.045.368.064.547.064.649 0 1.237-.245 1.494-.371v.049l.007.002c.01.004 1.003.381 2.733.381 1.738 0 2.723-.376 2.733-.381l.007-.002v-.119h.139c.403.276.909.386 1.363.386.216 0 .42-.025.594-.066l.04-.01-.409-.149z" fill="#f2faff"></path></g><g><path d="M17.411 24.26l.087-.306.04.011-.076.27.149.042-.01.036-.19-.053zm.283-.133l.005-.06.013-.051.043.011-.013.051-.024.055-.024-.006zm.421-.021l.041.009-.036.18a.207.207 0 01-.025.072c-.011.017-.026.03-.047.037s-.046.009-.076.002c-.029-.006-.052-.016-.069-.03s-.026-.031-.03-.051a.226.226 0 01.004-.08l.036-.18.041.009-.036.18c-.006.027-.007.047-.005.061s.008.025.019.035c.011.01.025.016.042.02.03.006.053.004.069-.007.016-.011.028-.036.035-.075l.037-.182zm.047.332l.05-.313.042.007.124.273.04-.246.04.006-.05.313-.042-.007-.124-.273-.04.246-.04-.006zm.322.051l.043-.314.041.006-.043.314-.041-.006zm.118-.139a.178.178 0 01.055-.119.144.144 0 01.113-.032.165.165 0 01.076.03.14.14 0 01.047.065c.01.026.012.055.008.087a.191.191 0 01-.029.084c-.016.024-.036.041-.061.051s-.052.014-.078.011a.155.155 0 01-.077-.031.137.137 0 01-.046-.065.2.2 0 01-.008-.081zm.043.005a.128.128 0 00.02.094.096.096 0 00.072.041.102.102 0 00.081-.024c.023-.02.036-.05.041-.091.002-.026.001-.049-.005-.069s-.017-.036-.032-.049-.034-.02-.054-.022a.107.107 0 00-.079.021c-.025.019-.039.052-.044.099zm.292.187l.025-.317.043.004.145.262.02-.248.04.004-.025.317-.043-.004-.145-.262-.02.248-.04-.004zm.443.033l.013-.317.213.009-.001.037-.171-.007-.005.099.148.006-.001.037-.148-.006-.006.145-.042-.003zm.233.01l.127-.316.044.001.123.321-.048-.001-.035-.097-.132-.002-.036.096-.043-.002zm.094-.129l.107.002-.031-.089a1.006 1.006 0 01-.022-.066.683.683 0 01-.018.06l-.036.093zm.241.134l.001-.318h.042l-.001.318h-.042zm.196 0l-.004-.281-.103.001v-.037l.25-.004v.037l-.105.001.004.281-.042.002zm.31-.008l-.014-.317.042-.002.013.279.155-.007.001.037-.197.01zm.212-.01l.099-.326.044-.004.151.308-.047.004-.043-.094-.131.01-.028.099-.045.003zm.082-.137l.107-.007-.038-.085a.723.723 0 01-.026-.064.315.315 0 01-.013.061l-.03.095zm.37.101l-.035-.316.212-.024.004.037-.17.019.011.097.147-.016.004.037-.147.016.016.143-.042.007zm.232-.182a.18.18 0 01.024-.129.143.143 0 01.101-.06.148.148 0 01.081.01.13.13 0 01.061.05c.016.022.025.05.03.082a.189.189 0 01-.007.089.134.134 0 01-.046.065.162.162 0 01-.155.02.132.132 0 01-.061-.051.174.174 0 01-.028-.076zm.042-.005a.125.125 0 00.043.085c.023.019.05.026.081.021a.102.102 0 00.072-.044c.017-.025.023-.057.017-.099a.157.157 0 00-.023-.065.103.103 0 00-.044-.039.088.088 0 00-.058-.007.102.102 0 00-.071.041c-.018.025-.023.06-.017.107zm.332.106l-.057-.313.138-.025a.162.162 0 01.065-.002.063.063 0 01.04.024.095.095 0 01.022.045.083.083 0 01-.011.06.115.115 0 01-.061.041l.028.011a.26.26 0 01.042.035l.07.075-.052.01-.053-.057-.037-.037a.121.121 0 00-.024-.017c-.007-.002-.013-.005-.02-.005l-.023.002-.048.009.025.138-.044.006zm.01-.182l.088-.016c.019-.004.034-.007.043-.014.01-.006.017-.014.02-.024s.005-.02.004-.03a.046.046 0 00-.023-.034c-.012-.007-.03-.009-.053-.005l-.099.017.02.106zm.497-.034l.043.001a.14.14 0 01-.029.087.16.16 0 01-.161.043.123.123 0 01-.06-.049.222.222 0 01-.035-.169.125.125 0 01.04-.066.155.155 0 01.071-.036c.031-.007.059-.005.083.006s.044.03.059.056l-.038.02c-.012-.021-.026-.035-.042-.042s-.034-.009-.054-.004a.091.091 0 00-.055.031.086.086 0 00-.023.054.178.178 0 00.004.061.19.19 0 00.026.066c.012.017.028.03.046.036a.094.094 0 00.055.002.093.093 0 00.054-.032.112.112 0 00.016-.065zm.117.086l-.085-.306.22-.062.01.036-.179.05.026.094.168-.047.01.036-.168.047.029.104.186-.052.01.036-.227.064z" fill="#4e7ab5"></path></g></g></svg>