<svg viewBox="0 0 40 40" xmlns="http://www.w3.org/2000/svg"><path d="M20 37.5c-9.649 0-17.5-7.851-17.5-17.5S10.351 2.5 20 2.5 37.5 10.351 37.5 20 29.649 37.5 20 37.5z" fill="#ffeea3"></path><path d="M20 3c9.374 0 17 7.626 17 17s-7.626 17-17 17S3 29.374 3 20 10.626 3 20 3m0-1C10.053 2 2 10.053 2 20s8.053 18 18 18 18-8.053 18-18S29.947 2 20 2z" fill="#f5c276"></path><g fill="#f5c276"><path d="M28.146 3.961l-6.813 10.706L28 13.333l-8 9.333 6.667-1.333-14.013 15.091c.325.145.657.275.992.402L27.4 22.014l2.106-2.268-3.035.607-3.826.765 6.115-7.134 1.885-2.2-2.841.568-4.369.874 5.591-8.786a18.639 18.639 0 00-.88-.479z"></path><path d="M11.854 36.039l6.813-10.706L12 26.667l8-9.333-6.667 1.333L27.346 3.576a18.689 18.689 0 00-.992-.402L12.601 17.986l-2.106 2.268 3.035-.607 3.826-.765-6.115 7.134-1.885 2.2 2.841-.568 4.369-.874-5.591 8.786c.288.167.58.327.879.479z"></path></g><path d="M20 34.5c-7.995 0-14.5-6.505-14.5-14.5S12.005 5.5 20 5.5 34.5 12.005 34.5 20 27.995 34.5 20 34.5z" fill="#f78f8f"></path><path d="M20 6c7.72 0 14 6.28 14 14s-6.28 14-14 14S6 27.72 6 20 12.28 6 20 6m0-1C11.716 5 5 11.716 5 20s6.716 15 15 15 15-6.716 15-15S28.284 5 20 5z" fill="#c74343"></path><path fill="#ffeea3" d="M30.667 0L13 19l7-1-8 9 6-1-8.667 14L27 21l-7 2 8-10-6 1z"></path></svg>