<svg viewBox="0 0 40 40" xmlns="http://www.w3.org/2000/svg"><path d="M18.072 28.5c-3.722 0-9.989-1.851-11.586-5.198L.56 10.882c.502-.888 2.785-4.489 8.068-7.135C12.334 1.89 15.469 1.5 17.447 1.5c.762 0 1.315.06 1.608.102l5.922 12.413c2.013 4.219-2.183 12.859-4.729 14.135-.45.225-1.224.35-2.176.35z" fill="#ffc49c"></path><path d="M17.448 2c.545 0 .977.032 1.274.064l5.805 12.166c1.973 4.135-2.411 12.425-4.501 13.472-.179.089-.728.298-1.954.298-3.671 0-9.682-1.869-11.135-4.913l-5.812-12.18c.674-1.109 2.93-4.31 7.726-6.713C12.47 2.381 15.524 2 17.448 2m0-1c-1.948 0-5.201.374-9.044 2.3C2.12 6.449 0 10.869 0 10.869l6.035 12.648C7.717 27.044 14.168 29 18.072 29c1.016 0 1.859-.133 2.401-.404 2.626-1.316 7.118-10.264 4.956-14.797L19.394 1.151S18.684 1 17.448 1z" fill="#a16a4a"></path><path d="M1.126 10.907l5.812 12.18C8.39 26.131 14.401 28 18.072 28c1.135 0 1.685-.177 1.903-.275L8.832 4.204C4.05 6.606 1.799 9.799 1.126 10.907z" fill="#d19c78"></path><path d="M6.272 15.004c.154-.604.522-1.382 1.397-1.821.35-.175.719-.264 1.097-.264.438 0 .836.12 1.151.258l-3.645 1.827z" fill="#a16a4a"></path><path d="M8.765 12.419c-.413 0-.86.087-1.321.317-1.857.931-1.783 3.132-1.783 3.132l2.645-1.325 2.645-1.325s-.933-.799-2.186-.799z" fill="#704e34"></path><path d="M12.494 22.503c-.036-1.549.361-4.018 2.946-5.368.808-.422 1.646-.636 2.49-.636 1.494 0 2.774.668 3.619 1.264-1.358.008-3.326.223-5.147 1.173-1.855.969-3.156 2.488-3.908 3.567z" fill="#a16a4a"></path><path d="M17.93 17c.686 0 1.326.156 1.892.381-1.138.15-2.424.472-3.651 1.112-1.246.65-2.253 1.538-3.022 2.388.268-1.191.949-2.481 2.523-3.303.735-.383 1.495-.578 2.258-.578m-.001-1c-.848 0-1.766.194-2.721.693C10.929 18.927 12.166 24 12.166 24s1.508-3.075 4.467-4.62c1.784-.931 3.732-1.116 4.997-1.116.833 0 1.37.08 1.37.08S20.881 16 17.929 16z" fill="#704e34"></path><path d="M15.088 10.586c.154-.604.521-1.382 1.397-1.82.35-.176.719-.265 1.096-.265.439 0 .837.119 1.152.258l-3.645 1.827z" fill="#a16a4a"></path><path d="M17.581 8.001c-.413 0-.86.087-1.321.317-1.857.931-1.783 3.132-1.783 3.132l2.645-1.325L19.767 8.8s-.933-.799-2.186-.799z" fill="#704e34"></path><path d="M22.574 38.5c-.489 0-.903-.053-1.198-.153-1.31-.444-3.757-3.038-5.428-6.453-1.356-2.772-1.779-5.231-1.192-6.923l4.525-13.035c.513-.136 1.868-.437 3.821-.437 2.339 0 4.752.416 7.171 1.237 5.76 1.955 8.537 5.212 9.167 6.036l-4.524 13.032c-1.364 3.935-8.823 6.696-12.342 6.696z" fill="#ffeea3"></path><path d="M23.104 12c2.284 0 4.642.407 7.01 1.211 5.211 1.768 7.927 4.639 8.765 5.659l-4.433 12.771C33.248 35.09 26.302 38 22.574 38c-.55 0-.867-.069-1.037-.126-1.22-.414-3.577-3.005-5.14-6.201-1.277-2.613-1.703-4.996-1.168-6.538l4.436-12.778c.61-.142 1.806-.357 3.439-.357m-.001-1c-2.641 0-4.209.528-4.209.528l-4.61 13.279c-1.62 4.665 4.073 13.044 6.931 14.014.357.121.819.179 1.359.179 3.786 0 11.371-2.867 12.817-7.032L40 18.69s-2.727-4.106-9.565-6.426C27.545 11.283 25.037 11 23.103 11z" fill="#f5c276"></path><g><path d="M30.435 12.264c-6.838-2.32-11.541-.735-11.541-.735l-4.61 13.279c-1.62 4.665 4.073 13.044 6.931 14.014l9.22-26.558z" fill="#f5c276"></path></g><path d="M14.285 24.807l4.61-13.279S20.462 11 23.103 11c.318 0 .656.011 1.004.028l-.48-1.005c-.174-.004-.35-.023-.524-.023-2.773 0-4.458.557-4.528.581l-.465.157-.16.462-4.61 13.279c-.37 1.066-.426 2.345-.189 3.76.358.103.717.197 1.073.279-.285-1.343-.315-2.629.061-3.711z" fill="#a16a4a"></path><g><path d="M21.052 18.92c.376-.217.885-.42 1.47-.42.285 0 .572.048.854.144.958.325 1.434 1.052 1.667 1.63l-3.991-1.354z" fill="#b08159"></path><path d="M22.522 18C21.029 18 20 19.091 20 19.091a5252.6 5252.6 0 005.756 1.954s-.199-2.188-2.22-2.874A3.126 3.126 0 0022.522 18z" fill="#a16a4a"></path></g><g><path d="M25.979 31.5a5.93 5.93 0 01-1.955-.351c-2.803-.979-3.419-3.316-3.514-4.79.819.878 2.213 2.074 4.186 2.763 1.348.47 2.808.709 4.339.709.286 0 .55-.009.786-.022-.757.748-2.063 1.691-3.842 1.691z" fill="#b08159"></path><path d="M21.281 27.76a10.79 10.79 0 003.251 1.835 13.44 13.44 0 003.853.723 4.632 4.632 0 01-2.407.682 5.44 5.44 0 01-1.79-.322c-1.733-.606-2.542-1.796-2.907-2.918M20.055 25s-.809 5.011 3.804 6.622a6.399 6.399 0 002.119.378C29.241 32 31 29.177 31 29.177s-.778.155-1.966.155c-1.126 0-2.621-.139-4.173-.681C21.671 27.537 20.055 25 20.055 25z" fill="#a16a4a"></path></g><g><path d="M29.901 22.253c.376-.217.885-.42 1.47-.42.285 0 .572.048.854.144.958.325 1.434 1.052 1.667 1.629l-3.991-1.353z" fill="#b08159"></path><path d="M31.372 21.333c-1.493 0-2.522 1.091-2.522 1.091a5252.6 5252.6 0 005.756 1.954s-.199-2.188-2.22-2.874a3.13 3.13 0 00-1.014-.171z" fill="#a16a4a"></path></g></svg>