<svg viewBox="0 0 40 40" xmlns="http://www.w3.org/2000/svg"><path d="M34.5 31.5v-4h-18v4h-3v-7.287L1.699 16.138l1.103-1.574a2.506 2.506 0 013.481-.616l11.944 8.131a2.42 2.42 0 001.366.421H35c1.379 0 2.5 1.121 2.5 2.5v6.5h-3z" fill="#bae0bd"></path><path d="M4.857 14c.411 0 .805.124 1.151.366l11.938 8.126a2.92 2.92 0 001.648.508H35c1.103 0 2 .897 2 2v6h-2v-4H16v4h-2v-7.051l-.435-.298L2.399 16.01l.812-1.16c.373-.532.988-.85 1.646-.85m0-1a3 3 0 00-2.464 1.276L1 16.265l12 8.212V32h4v-4h17v4h4v-7a3 3 0 00-3-3H19.594c-.387 0-.765-.116-1.085-.334L6.57 13.54A2.972 2.972 0 004.857 13z" fill="#5e9c76"></path><path d="M8.997 14.498c-.437 0-.869-.116-1.249-.337a2.479 2.479 0 01-1.163-1.519 2.478 2.478 0 01.252-1.895A2.511 2.511 0 019.003 9.5c.437 0 .869.116 1.249.337.578.334.991.873 1.163 1.519a2.478 2.478 0 01-.252 1.895 2.509 2.509 0 01-2.166 1.247z" fill="#ffeea3"></path><path d="M9.003 10c.349 0 .694.093.999.27.462.267.792.699.93 1.215A1.983 1.983 0 0110.731 13a2.007 2.007 0 01-1.733.998c-.349 0-.694-.093-.999-.27a1.986 1.986 0 01-.93-1.215 1.985 1.985 0 01.201-1.516A2.007 2.007 0 019.003 10m0-1a2.999 2.999 0 10-.007 5.998A2.999 2.999 0 009.003 9z" fill="#ba9b48"></path><g><path d="M19.543 22.504c-.321 0-.702-.025-1.157-.327l-5.845-3.968c-.642-.418-1.052-1.301-1.041-2.246.015-1.281 1.07-2.385 2.354-2.459L14 13.5c.483 0 .955.142 1.364.41l.471.309L20.85 17.5h6.074l6.557 2.019a1.534 1.534 0 01-.517 2.981c-.17 0-.339-.028-.502-.085l-5.456-1.944-5.582 1.86a3.265 3.265 0 01-1.037.169l-.844.004z" fill="#c2e8ff"></path><path d="M14 14c.386 0 .764.114 1.092.328l.843.55 4.517 2.958.25.164h6.148l6.453 1.986a1.036 1.036 0 01-.669 1.96l-5.299-1.888-.325-.116-.327.109-5.418 1.806a2.756 2.756 0 01-.878.143h-.515l-.17.002-.159.002c-.27 0-.541-.019-.871-.237l-5.778-3.926-.077-.05c-.505-.329-.825-1.044-.816-1.823.012-1.007.874-1.907 1.882-1.965L14 14m0-1a3.44 3.44 0 00-.175.005c-1.535.089-2.807 1.415-2.825 2.952-.012 1.068.437 2.13 1.27 2.672l.082.053 5.756 3.911c.556.368 1.037.41 1.433.41.117 0 .227-.004.329-.004h.515c.406 0 .81-.065 1.195-.194L27 21l5.299 1.888a2.036 2.036 0 002.588-1.259 2.035 2.035 0 00-1.259-2.588L27 17h-6l-5.314-3.48-.023-.015-.023-.015-.001.002A2.978 2.978 0 0014 13z" fill="#7496c4"></path></g><path d="M15.669 17.069l4.395 2.96c.45.305.584.636.611.999.031.431-.251 1.408-1.175 1.471" fill="none" stroke="#7496c4" stroke-linecap="round" stroke-miterlimit="10"></path></svg>