<svg viewBox="0 0 40 40" xmlns="http://www.w3.org/2000/svg"><path fill="none" stroke="#7496c4" stroke-miterlimit="10" d="M11.571 5.5H17M11.571 10.5H17M11.571 15.5H17M11.571 20.5H17"></path><path d="M9 38.5c-4.136 0-7.5-3.364-7.5-7.5a7.47 7.47 0 012.812-5.85L4.5 25V1.5h9V25l.187.15A7.469 7.469 0 0116.5 31c0 4.136-3.364 7.5-7.5 7.5z" fill="#dbf2ff"></path><path d="M13 2V25.24l.374.3A6.97 6.97 0 0116 31c0 3.86-3.14 7-7 7s-7-3.14-7-7a6.97 6.97 0 012.626-5.46l.374-.3V2h8m1-1H4v23.76A7.984 7.984 0 001 31a8 8 0 0016 0 7.984 7.984 0 00-3-6.24V1z" fill="#7496c4"></path><path fill="#b5ddf5" d="M7 4h4v26H7z"></path><path d="M29.094 28.5l-.607-2.177-.27-.077a6.508 6.508 0 01-2.735-1.58l-.201-.195-2.188.563-.906-1.569 1.584-1.616-.067-.271c-.136-.534-.204-1.065-.204-1.578s.068-1.044.202-1.578l.067-.271-1.584-1.616.906-1.569 2.188.563.201-.195a6.525 6.525 0 012.735-1.58l.27-.077.607-2.177h1.812l.607 2.177.27.077a6.508 6.508 0 012.735 1.58l.201.195 2.188-.563.906 1.569-1.584 1.616.067.271c.138.534.206 1.065.206 1.578s-.068 1.044-.202 1.578l-.067.271 1.584 1.616-.906 1.569-2.188-.563-.201.195a6.525 6.525 0 01-2.735 1.58l-.27.077-.609 2.177h-1.812zm.906-11c-1.379 0-2.5 1.122-2.5 2.5s1.121 2.5 2.5 2.5 2.5-1.122 2.5-2.5-1.121-2.5-2.5-2.5z" fill="#dcd5f2"></path><path d="M30.526 12l.43 1.542.151.54.539.154a6.003 6.003 0 012.525 1.458l.402.389.542-.139 1.55-.398.526.912-1.122 1.145-.391.4.135.543c.124.493.187.983.187 1.454s-.063.961-.187 1.457l-.136.543.391.4 1.122 1.145-.526.912-1.55-.398-.542-.139-.402.389a6.024 6.024 0 01-2.525 1.458l-.539.154-.151.54L30.526 28h-1.053l-.43-1.542-.151-.54-.539-.154a6.003 6.003 0 01-2.525-1.458l-.402-.389-.542.139-1.55.398-.526-.912 1.122-1.145.391-.4-.136-.543A6.076 6.076 0 0124 20c0-.471.063-.961.187-1.457l.135-.543-.391-.4-1.122-1.145.526-.912 1.55.398.542.139.402-.389a6.024 6.024 0 012.525-1.458l.539-.154.151-.54.43-1.539h1.052M30 23c1.654 0 3-1.346 3-3s-1.346-3-3-3-3 1.346-3 3 1.346 3 3 3m1.286-12h-2.571l-.634 2.273a6.987 6.987 0 00-2.946 1.701l-2.286-.587-1.286 2.227 1.653 1.688A6.984 6.984 0 0023 20c0 .587.08 1.154.216 1.699l-1.653 1.688 1.286 2.227 2.286-.587a6.987 6.987 0 002.946 1.701L28.714 29h2.571l.634-2.273a6.987 6.987 0 002.946-1.701l2.286.587 1.286-2.227-1.653-1.688A6.984 6.984 0 0037 20c0-.587-.08-1.154-.216-1.699l1.653-1.688-1.286-2.227-2.286.587a6.987 6.987 0 00-2.946-1.701L31.286 11zM30 22a2 2 0 11-.001-3.999A2 2 0 0130 22z" fill="#8b75a1"></path><circle cx="9" cy="31" r="5" fill="#c74343"></circle><path fill="#c74343" d="M7 12h4v17H7z"></path></svg>