<svg viewBox="0 0 40 40" xmlns="http://www.w3.org/2000/svg"><path d="M1.512 38.5c.268-5.559 4.982-10 10.738-10h7.5c5.756 0 10.47 4.441 10.738 10H1.512z" fill="#8bb7f0"></path><path d="M19.75 29c5.306 0 9.683 3.954 10.199 9H2.051c.516-5.046 4.893-9 10.199-9h7.5m0-1h-7.5C6.037 28 1 32.925 1 39h30c0-6.075-5.037-11-11.25-11z" fill="#4e7ab5"></path><path d="M16 31.5c-3.076 0-4.296-2.625-4.5-3.122v-5.469h9v5.469c-.204.497-1.424 3.122-4.5 3.122z" fill="#deb974"></path><path d="M20 23.41v4.865c-.263.59-1.393 2.725-4 2.725-2.611 0-3.741-2.141-4-2.725V23.41h8m1-1H11v6.062s1.267 3.529 5 3.529 5-3.529 5-3.529V22.41z" fill="#967a44"></path><path d="M16 27.5a2.464 2.464 0 01-1.642-.63l-.091-.08-.116-.03A7.486 7.486 0 018.5 19.5v-9.298a3.316 3.316 0 013.312-3.313h8.375a3.317 3.317 0 013.313 3.313V19.5a7.486 7.486 0 01-5.651 7.26l-.116.03-.091.08c-.47.412-1.038.63-1.642.63z" fill="#f5ce85"></path><path d="M20.187 7.389A2.816 2.816 0 0123 10.202V19.5a6.988 6.988 0 01-5.275 6.776l-.233.059-.181.159c-.263.231-.703.506-1.311.506s-1.048-.275-1.311-.506l-.181-.159-.233-.059A6.988 6.988 0 019 19.5v-9.298a2.816 2.816 0 012.813-2.813h8.374m0-1h-8.375A3.813 3.813 0 008 10.202V19.5c0 3.737 2.566 6.866 6.029 7.745.528.464 1.213.755 1.971.755s1.443-.291 1.971-.755C21.434 26.366 24 23.237 24 19.5v-9.298a3.813 3.813 0 00-3.813-3.813z" fill="#967a44"></path><path d="M24 27.5c-1.767 0-3.411-.911-4.27-1.484 1.045-.659 2.77-2.223 2.77-5.374v-4.724c0-2.41-2.086-4.223-2.175-4.298l-.43-.368-.312.473c-.021.031-2.135 3.156-6.651 3.78-2.358.325-3.432 2.109-3.432 3.628v1.509c0 3.193 1.708 4.735 2.757 5.38C11.398 26.596 9.764 27.5 8 27.5c-1.786 0-3.378-.935-4.159-1.484.881-.695 2.445-2.24 2.445-4.444 0-.928-.176-1.909-.362-2.948C5.715 17.462 5.5 16.262 5.5 15c0-8.488 5.387-11.5 10-11.5 3.802 0 5.031 2.675 5.043 2.703l.131.297H21c3.495 0 5.5 2.733 5.5 7.5 0 1.342-.268 2.836-.528 4.281-.243 1.353-.472 2.632-.472 3.719 0 1.844 1.459 2.852 2.642 3.281-.708.811-2.214 2.219-4.142 2.219z" fill="#a6714e"></path><path d="M15.5 4c3.427 0 4.543 2.315 4.586 2.405l.263.595H21c3.224 0 5 2.486 5 7 0 1.298-.264 2.769-.52 4.193C25.233 19.569 25 20.868 25 22c0 1.765 1.143 2.857 2.292 3.452C26.551 26.167 25.388 27 24 27c-1.274 0-2.497-.524-3.357-1.01C21.732 25.107 23 23.472 23 20.643v-4.724c0-2.638-2.254-4.596-2.35-4.678l-.858-.728-.626.936c-.081.121-2.03 2.971-6.303 3.561C10.209 15.376 9 17.404 9 19.133v1.509c0 2.863 1.254 4.489 2.342 5.361-.851.483-2.06.997-3.342.997-1.313 0-2.525-.556-3.331-1.041.942-.88 2.117-2.379 2.117-4.388 0-.972-.18-1.975-.37-3.036C6.211 17.396 6 16.218 6 15c0-8.119 5.118-11 9.5-11m0-1C10.212 3 5 6.694 5 15c0 2.454.786 4.682.786 6.571C5.786 24.327 3 26 3 26s2.254 2 5 2c2.794 0 5.211-2.056 5.211-2.056S10 24.918 10 20.643v-1.509c0-1.354.942-2.849 3-3.134 4.816-.665 7-4 7-4s2 1.711 2 3.919v4.724c0 4.194-3.214 5.302-3.214 5.302S21.225 28 24 28c3.005 0 5-3 5-3s-3-.535-3-3c0-2.19 1-5.352 1-8 0-5.761-2.766-8-6-8 0 0-1.328-3-5.5-3z" fill="#7a4f34"></path><g><path d="M31.125 15.516a4.885 4.885 0 01-2.793-.874l-.288-.199-.279.211a4.198 4.198 0 01-2.546.861c-1.708 0-3.211-.982-3.827-2.501l-.08-.198-.201-.074c-1.596-.588-2.626-2.008-2.626-3.618 0-1.51.904-2.854 2.36-3.507l.271-.122.014-.297c.1-2.083 1.896-3.715 4.089-3.715.843 0 1.658.246 2.356.711l.269.178.269-.178a4.238 4.238 0 012.356-.711c1.579 0 3.036.884 3.713 2.25l.127.257.285.013c2.199.095 3.922 1.796 3.922 3.871 0 1.52-.95 2.91-2.422 3.54l-.239.102-.047.256c-.397 2.17-2.367 3.744-4.683 3.744z" fill="#c2e8ff"></path><path d="M30.469 1.968c1.396 0 2.683.778 3.278 1.981l.254.513.572.025c1.94.084 3.459 1.572 3.459 3.388 0 1.326-.836 2.541-2.129 3.095l-.478.205-.094.511c-.355 1.939-2.124 3.346-4.206 3.346a4.42 4.42 0 01-2.519-.787l-.575-.397-.558.421a3.72 3.72 0 01-2.254.763c-1.51 0-2.836-.863-3.378-2.199l-.161-.397-.402-.148c-1.403-.516-2.309-1.758-2.309-3.163 0-1.317.795-2.491 2.074-3.065l.542-.243.028-.594c.087-1.825 1.671-3.254 3.606-3.254.748 0 1.47.218 2.088.629l.537.357.537-.357a3.751 3.751 0 012.088-.63m0-.968c-.978 0-1.88.296-2.625.792A4.722 4.722 0 0025.219 1c-2.466 0-4.461 1.854-4.573 4.176C19.087 5.876 18 7.375 18 9.125c0 1.86 1.224 3.439 2.943 4.072.665 1.637 2.322 2.803 4.276 2.803a4.696 4.696 0 002.838-.959 5.38 5.38 0 003.068.959c2.59 0 4.729-1.79 5.159-4.14C37.882 11.175 39 9.653 39 7.875c0-2.348-1.947-4.249-4.385-4.355C33.88 2.035 32.307 1 30.469 1z" fill="#7496c4"></path></g><circle cx="32.5" cy="8.5" r="1.25" fill="#7496c4"></circle><circle cx="28.5" cy="8.5" r="1.25" fill="#7496c4"></circle><circle cx="24.5" cy="8.5" r="1.25" fill="#7496c4"></circle></svg>