<svg viewBox="0 0 40 40" xmlns="http://www.w3.org/2000/svg"><path fill="#dcd5f2" d="M1.5 34.5h37v4h-37z"></path><path d="M38 35v3H2v-3h36m1-1H1v5h38v-5z" fill="#8b75a1"></path><path fill="#dcd5f2" d="M26.5 31.5v-22h-3.478L29 1.814 34.978 9.5H31.5v22z"></path><path d="M29 2.629L33.955 9H31v22h-4V9h-2.955L29 2.629M29 1l-7 9h4v22h6V10h4l-7-9z" fill="#8b75a1"></path><g><path fill="#dcd5f2" d="M8.5 31.5v-22H5.022L11 1.814 16.978 9.5H13.5v22z"></path><path d="M11 2.629L15.955 9H13v22H9V9H6.045L11 2.629M11 1l-7 9h4v22h6V10h4l-7-9z" fill="#8b75a1"></path></g></svg>