<svg viewBox="0 0 40 40" xmlns="http://www.w3.org/2000/svg"><path fill="#b3add8" d="M19.5 5.5h1v5h-1z"></path><path d="M20 6v4-4m1-1h-2v6h2V5z" fill="#8b75a1"></path><path d="M32.929 11C34.593 11 36 12.377 36 14.007V26H4V14c0-1.359 1.402-3 3.143-3h25.786m0-1H7.143C4.904 10 3 12.019 3 14v12c0 .55.45 1 1 1h32c.55 0 1-.443 1-.993v-12c0-2.2-1.871-4.007-4.071-4.007z" fill="#8b75a1"></path><path fill="#dcd5f2" d="M.5 22.5h39v12H.5z"></path><path d="M39 23v11H1V23h38m1-1H0v13h40V22z" fill="#8b75a1"></path><path fill="#ffeea3" d="M3.5 25.5h9v6h-9z"></path><path d="M12 26v5H4v-5h8m1-1H3v7h10v-7z" fill="#8b75a1"></path><path fill="#ffeea3" d="M15.5 25.5h9v6h-9z"></path><path d="M24 26v5h-8v-5h8m1-1H15v7h10v-7z" fill="#8b75a1"></path><g><path fill="#ffeea3" d="M27.5 25.5h9v6h-9z"></path><path d="M36 26v5h-8v-5h8m1-1H27v7h10v-7z" fill="#8b75a1"></path></g><path fill="#fff" d="M4 27h8v1H4zM16 27h8v1h-8zM36 28h-8v-1l8 .007z"></path></svg>