<svg viewBox="0 0 40 40" xmlns="http://www.w3.org/2000/svg"><path fill="#c2e8ff" d="M15.5 2.5h9v9h-9z"></path><path d="M24 3v8h-8V3h8m1-1H15v10h10V2z" fill="#7496c4"></path><path fill="#c2e8ff" d="M28.5 2.5h9v9h-9z"></path><path d="M37 3v8h-8V3h8m1-1H28v10h10V2z" fill="#7496c4"></path><path fill="#c2e8ff" d="M2.5 2.5h9v9h-9z"></path><path d="M11 3v8H3V3h8m1-1H2v10h10V2z" fill="#7496c4"></path><path fill="#c2e8ff" d="M15.5 28.5h9v9h-9z"></path><path d="M24 29v8h-8v-8h8m1-1H15v10h10V28z" fill="#7496c4"></path><path fill="#c2e8ff" d="M28.5 28.5h9v9h-9z"></path><path d="M37 29v8h-8v-8h8m1-1H28v10h10V28z" fill="#7496c4"></path><g><path fill="#c2e8ff" d="M2.5 28.5h9v9h-9z"></path><path d="M11 29v8H3v-8h8m1-1H2v10h10V28z" fill="#7496c4"></path></g><g><path fill="#c2e8ff" d="M15.5 15.5h9v9h-9z"></path><path d="M24 16v8h-8v-8h8m1-1H15v10h10V15z" fill="#7496c4"></path></g><g><path fill="#c2e8ff" d="M28.5 15.5h9v9h-9z"></path><path d="M37 16v8h-8v-8h8m1-1H28v10h10V15z" fill="#7496c4"></path></g><g><path fill="#c2e8ff" d="M2.5 15.5h9v9h-9z"></path><path d="M11 16v8H3v-8h8m1-1H2v10h10V15z" fill="#7496c4"></path></g></svg>