<svg viewBox="0 0 40 40" xmlns="http://www.w3.org/2000/svg"><path d="M6.25 28.5a2 2 0 01-1.74-1l-3-4.66V16A2.5 2.5 0 014 13.5h32a2.5 2.5 0 012.5 2.5v6.85l-3 4.65a2 2 0 01-1.75 1z" fill="#b0c1d4"></path><path d="M36 14a2 2 0 012 2v6.71l-2.92 4.55a1.54 1.54 0 01-1.31.74H6.25a1.56 1.56 0 01-1.33-.77L2 22.71V16a2 2 0 012-2h32m0-1H4a3 3 0 00-3 3v7l3.08 4.77A2.53 2.53 0 006.25 29h27.52a2.53 2.53 0 002.17-1.23L39 23v-7a3 3 0 00-3-3z" fill="#66798f"></path><path fill="#66798f" d="M5.5 18.5h29v4h-29z"></path><path d="M34 19v3H6v-3h28m1-1H5v5h30v-5z" fill="#36404d"></path><path fill="#ffeea3" d="M6 22h3v1H6zM11 22h3v1h-3zM16 22h3v1h-3zM21 22h3v1h-3zM26 22h3v1h-3zM31 22h3v1h-3zM6 18h3v1H6zM11 18h3v1h-3zM16 18h3v1h-3zM21 18h3v1h-3zM26 18h3v1h-3zM31 18h3v1h-3z"></path></svg>