<svg viewBox="0 0 40 40" xmlns="http://www.w3.org/2000/svg"><path d="M10.325 33.787a2.957 2.957 0 00-.329-3.783 2.932 2.932 0 00-2.087-.865c-.616 0-1.203.188-1.697.536L1.72 25.182 25.182 1.719l4.493 4.494a2.956 2.956 0 00.329 3.783 2.935 2.935 0 002.087.864c.616 0 1.203-.188 1.697-.536l4.492 4.494-23.462 23.463-4.493-4.494z" fill="#f5ce85"></path><path d="M25.182 2.439l3.851 3.851a3.468 3.468 0 00.611 4.066 3.44 3.44 0 002.447 1.013c.574 0 1.127-.139 1.62-.401l3.85 3.85-22.743 22.743-3.851-3.851a3.468 3.468 0 00-.611-4.066 3.435 3.435 0 00-2.447-1.013c-.574 0-1.127.139-1.62.401l-3.85-3.85L25.182 2.439m0-1.439L1 25.182l5.182 5.182a2.434 2.434 0 011.727-.715 2.443 2.443 0 011.727 4.17L14.818 39 39 14.818l-5.182-5.182a2.434 2.434 0 01-1.727.715 2.443 2.443 0 01-1.727-4.17L25.182 1z" fill="#967a44"></path></svg>