<svg viewBox="0 0 40 40" xmlns="http://www.w3.org/2000/svg"><path d="M19.5 38.5V21.339l.017-.335c.005-.392.107-.956.566-1.415l7.275-7.275a2.503 2.503 0 011.662-.708l.48-.02V4c0-1.379 1.122-2.5 2.5-2.5s2.5 1.121 2.5 2.5v14.091a4.9 4.9 0 01-1.443 3.485L27.5 25.75V38.5h-8z" fill="#ffeea3"></path><path d="M32 2c1.103 0 2 .897 2 2v14.091a4.397 4.397 0 01-1.25 3.084l-5.351 4.026-.399.3V38h-7V21.894l.006-.001.011-.883c.004-.299.079-.727.42-1.068l7.275-7.275a2.008 2.008 0 011.329-.563l.959-.039V4c0-1.103.897-2 2-2m0-1a3 3 0 00-3 3v7.105a3.019 3.019 0 00-1.996.855l-7.275 7.275c-.477.477-.705 1.109-.712 1.763L19 21v18h9V26l5.41-4.071A5.429 5.429 0 0035 18.091V4a3 3 0 00-3-3z" fill="#ba9b48"></path><path d="M25.433 21.146l5.411-5.411c.932-.932.914-2.46-.04-3.414h0c-.954-.954-2.482-.971-3.414-.04" fill="none" stroke="#ba9b48" stroke-miterlimit="10"></path><path d="M11.5 38.5V25.75l-5.609-4.22A4.884 4.884 0 014.5 18.091V4c0-1.379 1.122-2.5 2.5-2.5S9.5 2.621 9.5 4v7.586l.48.02a2.503 2.503 0 011.662.708l7.275 7.275c.459.459.562 1.023.566 1.415l.005.439.011.001V38.5H11.5z" fill="#ffeea3"></path><path d="M7 2c1.103 0 2 .897 2 2V12.065l.959.039c.508.021.992.226 1.329.563l7.275 7.275c.34.34.416.768.42 1.068l.017.542V38h-7V25.501l-.399-.3-5.351-4.026A4.399 4.399 0 015 18.091V4c0-1.103.897-2 2-2m0-1a3 3 0 00-3 3v14.09c0 1.44.572 2.82 1.59 3.839L11 26v13h9V21l-.017-.002c-.008-.654-.236-1.286-.712-1.763l-7.275-7.275A3.014 3.014 0 0010 11.105V4a3 3 0 00-3-3z" fill="#ba9b48"></path><path d="M13.567 21.146l-5.411-5.411c-.932-.932-.914-2.46.04-3.414h0c.954-.954 2.482-.971 3.414-.04" fill="none" stroke="#ba9b48" stroke-miterlimit="10"></path><path fill="#ffeea3" d="M11 30h17v9H11z"></path><path fill="#ffc49c" stroke="#a16a4a" stroke-width="1.026" stroke-linecap="round" stroke-linejoin="round" stroke-miterlimit="10" d="M28.5 38.5h-18M28.5 35.5h-18M28.5 32.5h-18"></path></svg>