<svg viewBox="0 0 40 40" xmlns="http://www.w3.org/2000/svg"><path fill="#869ce8" d="M6.5 37.5v-35h18.293l8.707 8.707V37.5z"></path><path d="M24.586 3L33 11.414V37H7V3h17.586M25 2H6v36h28V11l-9-9z" fill="#4e64b5"></path><path fill="#fff" d="M24.5 11.5v-9h.293l8.707 8.707v.293z"></path><path d="M25 3.414L32.586 11H25V3.414M25 2h-1v10h10v-1l-9-9z" fill="#4e64b5"></path><path d="M14.273 19.466h-1.547v-1.573h4.811v1.573h-1.561v7.189h-1.703v-7.189zM20.786 17.893v8.763h-1.703v-8.763h1.703zM22.957 17.893h3.81v1.482H24.66v2.249h1.977v1.417H24.66v3.614h-1.703v-8.762z" fill="#fff"></path></svg>