<svg viewBox="0 0 40 40" xmlns="http://www.w3.org/2000/svg"><path d="M20 38.5C9.799 38.5 1.5 30.201 1.5 20S9.799 1.5 20 1.5 38.5 9.799 38.5 20 30.201 38.5 20 38.5z" fill="#8bb7f0"></path><path d="M20 2c9.925 0 18 8.075 18 18s-8.075 18-18 18S2 29.925 2 20 10.075 2 20 2m0-1C9.507 1 1 9.507 1 20s8.507 19 19 19 19-8.507 19-19S30.493 1 20 1z" fill="#4e7ab5"></path><path d="M20 35.5c-8.547 0-15.5-6.953-15.5-15.5S11.453 4.5 20 4.5 35.5 11.453 35.5 20 28.547 35.5 20 35.5z" fill="#fff"></path><path d="M20 5c8.271 0 15 6.729 15 15s-6.729 15-15 15S5 28.271 5 20 11.729 5 20 5m0-1C11.163 4 4 11.163 4 20s7.163 16 16 16 16-7.163 16-16S28.837 4 20 4z" fill="#4e7ab5"></path><path d="M6.565 6.565L20 20V10a6 6 0 006-6c0-.763-.148-1.489-.408-2.161A18.982 18.982 0 0020 1 18.94 18.94 0 006.565 6.565z" fill="#fff"></path><g><circle cx="20" cy="4" r="2.5" fill="#f78f8f"></circle><path d="M20 2c1.103 0 2 .897 2 2s-.897 2-2 2-2-.897-2-2 .897-2 2-2m0-1a3 3 0 100 6 3 3 0 000-6z" fill="#c74343"></path></g><g><path d="M21.439 18.561a2.036 2.036 0 01-2.879 2.879c-.795-.795-8.042-10.921-8.042-10.921s10.126 7.247 10.921 8.042z" fill="#66798f"></path></g></svg>