<svg viewBox="0 0 40 40" xmlns="http://www.w3.org/2000/svg"><path fill="#ffeea3" d="M13.008 29.045L2.5 32.32V4.797l10.492-3.271 10 3.429L33.5 1.68v27.523l-10.492 3.271z"></path><path d="M12.985 2.052l9.69 3.322.31.106.312-.097L33 2.359v26.477l-9.985 3.112-9.69-3.322-.31-.106-.312.097L3 31.641V5.164l9.985-3.112M34 1L23 4.429 13 1 2 4.429V33l11-3.429L23 33l11-3.429V1z" fill="#ba9b48"></path><path d="M23 31.937l-10-3.438V2.055L23 5.48v26.457z" fill="#fff"></path><path d="M25 38.5c-7.995 0-14.5-6.505-14.5-14.5S17.005 9.5 25 9.5 39.5 16.005 39.5 24 32.995 38.5 25 38.5z" fill="#8bb7f0"></path><path d="M25 10c7.72 0 14 6.28 14 14s-6.28 14-14 14-14-6.28-14-14 6.28-14 14-14m0-1c-8.284 0-15 6.716-15 15s6.716 15 15 15 15-6.716 15-15S33.284 9 25 9z" fill="#4e7ab5"></path><path d="M25 35.5c-6.341 0-11.5-5.159-11.5-11.5S18.659 12.5 25 12.5 36.5 17.659 36.5 24 31.341 35.5 25 35.5z" fill="#fff"></path><path d="M25 13c6.065 0 11 4.935 11 11s-4.935 11-11 11-11-4.935-11-11 4.935-11 11-11m0-1c-6.627 0-12 5.373-12 12s5.373 12 12 12 12-5.373 12-12-5.373-12-12-12z" fill="#4e7ab5"></path><path d="M21.678 25.132h-5.5v-.919h5.5v.919zM24.98 19.804v7.874h-1.246v-6.349a4 4 0 01-.729.411 6.037 6.037 0 01-.889.298v-1.063c.208-.068.408-.14.602-.215s.385-.159.572-.252a8.531 8.531 0 001.163-.704h.527zM29.073 27.807c-.802 0-1.428-.328-1.878-.982-.449-.656-.674-1.603-.674-2.842 0-1.36.234-2.391.704-3.088.47-.699 1.146-1.048 2.03-1.048 1.693 0 2.541 1.315 2.541 3.948 0 1.303-.24 2.298-.717 2.983-.477.686-1.146 1.029-2.006 1.029zm.124-6.967c-.936 0-1.402 1.03-1.402 3.089 0 1.927.459 2.89 1.375 2.89.902 0 1.354-.979 1.354-2.938-.001-2.027-.443-3.041-1.327-3.041z" fill="#36404d"></path></svg>