<svg viewBox="0 0 40 40" xmlns="http://www.w3.org/2000/svg"><path fill="#ffeea3" d="M12.008 29.045L1.5 32.32V4.797l10.492-3.271 10 3.429L32.5 1.68v27.523l-10.492 3.271z"></path><path d="M11.985 2.052l9.69 3.322.31.106.312-.097L32 2.359v26.477l-9.985 3.112-9.69-3.322-.31-.106-.312.097L2 31.641V5.164l9.985-3.112M33 1L22 4.429 12 1 1 4.429V33l11-3.429L22 33l11-3.429V1z" fill="#ba9b48"></path><path d="M22 31.937l-10-3.438V2.055L22 5.48v26.457z" fill="#fff"></path><path d="M24 38.5c-7.995 0-14.5-6.505-14.5-14.5S16.005 9.5 24 9.5 38.5 16.005 38.5 24 31.995 38.5 24 38.5z" fill="#8bb7f0"></path><path d="M24 10c7.72 0 14 6.28 14 14s-6.28 14-14 14-14-6.28-14-14 6.28-14 14-14m0-1C15.716 9 9 15.716 9 24c0 8.284 6.716 15 15 15s15-6.716 15-15c0-8.284-6.716-15-15-15z" fill="#4e7ab5"></path><path d="M24 35.5c-6.341 0-11.5-5.159-11.5-11.5S17.659 12.5 24 12.5 35.5 17.659 35.5 24 30.341 35.5 24 35.5z" fill="#fff"></path><path d="M24 13c6.065 0 11 4.935 11 11s-4.935 11-11 11-11-4.935-11-11 4.935-11 11-11m0-1c-6.627 0-12 5.373-12 12s5.373 12 12 12 12-5.373 12-12-5.373-12-12-12z" fill="#4e7ab5"></path><path d="M20.5 24.938h-2.121v2.122h-.887v-2.122h-2.121v-.886h2.121v-2.127h.887v2.127H20.5v.886zM25.049 19.804v7.874h-1.246v-6.349a3.96 3.96 0 01-.728.411 6.078 6.078 0 01-.889.298v-1.063c.208-.068.408-.14.602-.215s.384-.159.572-.252a8.272 8.272 0 001.163-.704h.526zM31.532 27.678h-4.834v-.596c0-.244.034-.473.103-.686.067-.213.158-.413.273-.602.115-.188.249-.365.402-.531.154-.167.319-.328.494-.483.176-.156.355-.307.537-.451.184-.146.362-.291.537-.438a7.83 7.83 0 00.451-.41 2.76 2.76 0 00.35-.416c.097-.144.172-.295.226-.454s.081-.332.081-.519a1.37 1.37 0 00-.095-.534 1.04 1.04 0 00-.663-.612 1.596 1.596 0 00-.505-.078c-.315 0-.636.073-.962.221a3.261 3.261 0 00-.939.66v-1.197a3.78 3.78 0 01.479-.31 3.165 3.165 0 011.041-.352c.19-.028.393-.043.607-.043.348 0 .662.046.945.137.283.092.524.226.725.403.201.177.355.398.465.663s.164.569.164.913c0 .312-.039.592-.115.841-.077.249-.187.48-.328.695-.141.215-.312.419-.513.612s-.425.393-.671.596a31.72 31.72 0 01-.621.492c-.205.159-.391.314-.556.467s-.298.305-.4.457a.818.818 0 00-.153.459v.027h3.476v1.069z" fill="#36404d"></path></svg>