<svg viewBox="0 0 40 40" xmlns="http://www.w3.org/2000/svg"><path fill="#ffeea3" d="M12.008 29.045L1.5 32.32V4.797l10.492-3.271 10 3.429L32.5 1.68v27.523l-10.492 3.271z"></path><path d="M11.985 2.052l9.69 3.322.31.106.312-.097L32 2.359v26.477l-9.985 3.112-9.69-3.322-.31-.106-.312.097L2 31.641V5.164l9.985-3.112M33 1L22 4.429 12 1 1 4.429V33l11-3.429L22 33l11-3.429V1z" fill="#ba9b48"></path><path d="M22 31.937l-10-3.438V2.055L22 5.48v26.457z" fill="#fff"></path><path d="M24 38.5c-7.995 0-14.5-6.505-14.5-14.5S16.005 9.5 24 9.5 38.5 16.005 38.5 24 31.995 38.5 24 38.5z" fill="#8bb7f0"></path><path d="M24 10c7.72 0 14 6.28 14 14s-6.28 14-14 14-14-6.28-14-14 6.28-14 14-14m0-1C15.716 9 9 15.716 9 24c0 8.284 6.716 15 15 15s15-6.716 15-15c0-8.284-6.716-15-15-15z" fill="#4e7ab5"></path><path d="M24 35.5c-6.341 0-11.5-5.159-11.5-11.5S17.659 12.5 24 12.5 35.5 17.659 35.5 24 30.341 35.5 24 35.5z" fill="#fff"></path><path d="M24 13c6.065 0 11 4.935 11 11s-4.935 11-11 11-11-4.935-11-11 4.935-11 11-11m0-1c-6.627 0-12 5.373-12 12s5.373 12 12 12 12-5.373 12-12-5.373-12-12-12z" fill="#4e7ab5"></path><path d="M22.598 24.938h-2.121v2.122h-.887v-2.122h-2.121v-.886h2.121v-2.127h.887v2.127h2.121v.886zM28.817 19.976v4.974h1.144v1.037h-1.144v1.691h-1.208v-1.691h-3.486v-1.048a29.465 29.465 0 001.926-2.42 21.2 21.2 0 00.852-1.297c.261-.434.48-.849.66-1.246h1.256zm-1.208 4.973v-3.233a17.859 17.859 0 01-1.158 1.837c-.381.522-.738.988-1.071 1.396h2.229z" fill="#36404d"></path></svg>