<svg viewBox="0 0 40 40" xmlns="http://www.w3.org/2000/svg"><path fill="#ffeea3" d="M12.007 29.045L1.5 32.32V4.797l10.493-3.271 10 3.429L32.5 1.68v27.523l-10.493 3.271z"></path><path d="M11.985 2.052l9.69 3.322.31.106.312-.097L32 2.359v26.477l-9.985 3.112-9.69-3.322-.31-.106-.312.097L2 31.641V5.164l9.985-3.112M33 1L22 4.429 12 1 1 4.429V33l11-3.429L22 33l11-3.429V1z" fill="#ba9b48"></path><path d="M22 31.937l-10-3.438V2.055L22 5.48v26.457z" fill="#fff"></path><path d="M24 38.5c-7.995 0-14.5-6.505-14.5-14.5S16.005 9.5 24 9.5 38.5 16.005 38.5 24 31.995 38.5 24 38.5z" fill="#8bb7f0"></path><path d="M24 10c7.72 0 14 6.28 14 14s-6.28 14-14 14-14-6.28-14-14 6.28-14 14-14m0-1C15.716 9 9 15.716 9 24s6.716 15 15 15 15-6.716 15-15S32.284 9 24 9z" fill="#4e7ab5"></path><path d="M24 35.5c-6.341 0-11.5-5.159-11.5-11.5S17.659 12.5 24 12.5 35.5 17.659 35.5 24 30.341 35.5 24 35.5z" fill="#fff"></path><path d="M24 13c6.065 0 11 4.935 11 11s-4.935 11-11 11-11-4.935-11-11 4.935-11 11-11m0-1c-6.627 0-12 5.373-12 12s5.373 12 12 12 12-5.373 12-12-5.373-12-12-12z" fill="#4e7ab5"></path><path d="M22.697 24.938h-2.122v2.122h-.886v-2.122h-2.122v-.886h2.122v-2.127h.886v2.127h2.122v.886zM29.663 25.201c0 .387-.063.74-.191 1.059a2.466 2.466 0 01-.529.824c-.226.231-.493.41-.803.537-.31.127-.645.191-1.007.191-.387 0-.742-.076-1.066-.227a2.286 2.286 0 01-.838-.671c-.234-.297-.416-.667-.545-1.109s-.193-.955-.193-1.538c0-.713.085-1.345.255-1.896.17-.552.404-1.014.701-1.386s.646-.655 1.047-.849.834-.29 1.3-.29c.29 0 .554.02.792.06.238.039.429.093.572.16v1.123c-.183-.093-.378-.172-.585-.236s-.446-.097-.714-.097a1.842 1.842 0 00-1.491.717 2.647 2.647 0 00-.435.87 4.178 4.178 0 00-.164 1.195h.032c.165-.254.388-.455.669-.602a2.12 2.12 0 01.991-.221c.336 0 .64.055.911.164.27.109.501.267.692.473.192.206.339.457.443.752.104.297.156.629.156.997zm-1.257.103c0-.222-.026-.425-.078-.606a1.313 1.313 0 00-.236-.471 1.066 1.066 0 00-.397-.303c-.16-.072-.347-.107-.562-.107s-.404.038-.566.115c-.163.077-.3.178-.411.303-.111.126-.194.27-.25.43a1.525 1.525 0 00-.083.494c0 .184.026.37.078.562.052.191.131.366.239.524.107.157.245.287.411.389.167.103.365.153.594.153.204 0 .385-.038.542-.112.158-.076.289-.18.395-.312.105-.132.186-.289.241-.47.055-.182.083-.378.083-.589z" fill="#36404d"></path></svg>