<svg viewBox="0 0 40 40" xmlns="http://www.w3.org/2000/svg"><path fill="#ffeea3" d="M12.007 29.045L1.5 32.32V4.796l10.493-3.27 10 3.429L32.5 1.68v27.524l-10.493 3.27z"></path><path d="M11.985 2.052l9.69 3.322.31.106.312-.097L32 2.359v26.477l-9.985 3.112-9.69-3.322-.31-.106-.312.097L2 31.641V5.164l9.985-3.112M33 1L22 4.429 12 1 1 4.429V33l11-3.429L22 33l11-3.429V1z" fill="#ba9b48"></path><path d="M22 31.937l-10-3.438V2.055L22 5.48v26.457z" fill="#fff"></path><path d="M24 38.5c-7.995 0-14.5-6.505-14.5-14.5S16.005 9.5 24 9.5 38.5 16.005 38.5 24 31.995 38.5 24 38.5z" fill="#8bb7f0"></path><path d="M24 10c7.72 0 14 6.28 14 14s-6.28 14-14 14-14-6.28-14-14 6.28-14 14-14m0-1C15.716 9 9 15.716 9 24s6.716 15 15 15 15-6.716 15-15S32.284 9 24 9z" fill="#4e7ab5"></path><path d="M24 35.5c-6.341 0-11.5-5.159-11.5-11.5S17.659 12.5 24 12.5 35.5 17.659 35.5 24 30.341 35.5 24 35.5z" fill="#fff"></path><path d="M24 13c6.065 0 11 4.935 11 11s-4.935 11-11 11-11-4.935-11-11 4.935-11 11-11m0-1c-6.627 0-12 5.373-12 12s5.373 12 12 12 12-5.373 12-12-5.373-12-12-12z" fill="#4e7ab5"></path><path d="M22.89 25.132h-5.5v-.919h5.5v.919zM23.551 27.393v-1.17a2.668 2.668 0 001.697.596c.512 0 .921-.116 1.227-.35.307-.232.459-.547.459-.945 0-.873-.668-1.311-2.003-1.311h-.596v-.998h.569c1.185 0 1.778-.412 1.778-1.236 0-.759-.462-1.139-1.386-1.139-.516 0-1.001.185-1.456.554v-1.106c.523-.294 1.141-.44 1.853-.44.684 0 1.232.172 1.644.516s.618.784.618 1.321c0 1.014-.516 1.665-1.547 1.955v.021c.555.054.994.248 1.316.583s.483.753.483 1.254c0 .691-.26 1.249-.779 1.673-.519.425-1.203.637-2.052.637-.762-.001-1.371-.139-1.825-.415z" fill="#36404d"></path></svg>