<svg viewBox="0 0 40 40" xmlns="http://www.w3.org/2000/svg"><path fill="#ffeea3" d="M12.007 29.045L1.5 32.32V4.797l10.493-3.271 10 3.429L32.5 1.68v27.523l-10.493 3.271z"></path><path d="M11.985 2.052l9.69 3.322.31.106.312-.097L32 2.359v26.477l-9.985 3.112-9.69-3.322-.31-.106-.312.097L2 31.641V5.164l9.985-3.112M33 1L22 4.429 12 1 1 4.429V33l11-3.429L22 33l11-3.429V1z" fill="#ba9b48"></path><path d="M22 31.937l-10-3.438V2.055L22 5.48v26.457z" fill="#fff"></path><path d="M24 38.5c-7.995 0-14.5-6.505-14.5-14.5S16.005 9.5 24 9.5 38.5 16.005 38.5 24 31.995 38.5 24 38.5z" fill="#8bb7f0"></path><path d="M24 10c7.72 0 14 6.28 14 14s-6.28 14-14 14-14-6.28-14-14 6.28-14 14-14m0-1C15.716 9 9 15.716 9 24s6.716 15 15 15 15-6.716 15-15S32.284 9 24 9z" fill="#4e7ab5"></path><path d="M24 35.5c-6.341 0-11.5-5.159-11.5-11.5S17.659 12.5 24 12.5 35.5 17.659 35.5 24 30.341 35.5 24 35.5z" fill="#fff"></path><path d="M24 13c6.065 0 11 4.935 11 11s-4.935 11-11 11-11-4.935-11-11 4.935-11 11-11m0-1c-6.627 0-12 5.373-12 12s5.373 12 12 12 12-5.373 12-12-5.373-12-12-12z" fill="#4e7ab5"></path><path d="M22.713 24.938h-2.122v2.122h-.886v-2.122h-2.122v-.886h2.122v-2.127h.886v2.127h2.122v.886zM24.448 25.529c0-.222.028-.437.083-.645.055-.208.139-.399.25-.574a2.034 2.034 0 011.01-.812c-.333-.187-.598-.425-.795-.717s-.295-.615-.295-.97c0-.283.058-.544.175-.784.116-.24.277-.447.483-.623.206-.176.448-.312.728-.411s.583-.146.913-.146c.333 0 .64.05.921.15.281.101.525.238.73.413.206.176.366.384.481.623.115.24.172.5.172.779 0 .354-.099.678-.295.97s-.458.53-.784.717c.222.086.418.198.588.336a2.024 2.024 0 01.685 1.044c.057.208.086.425.086.65 0 .337-.062.645-.188.924s-.301.519-.526.717c-.226.199-.496.354-.811.465s-.663.166-1.042.166c-.376 0-.721-.055-1.034-.166a2.482 2.482 0 01-.812-.465 2.088 2.088 0 01-.531-.717 2.19 2.19 0 01-.192-.924zm1.214-.107c0 .219.032.415.097.591s.156.324.274.446c.118.121.261.215.427.279.167.064.352.096.556.096.197 0 .378-.032.542-.099s.307-.161.427-.285c.12-.123.214-.271.282-.445s.102-.368.102-.583c0-.197-.032-.382-.097-.556s-.156-.325-.274-.454-.261-.23-.427-.307a1.357 1.357 0 00-.556-.112c-.193 0-.374.035-.54.104-.167.07-.31.169-.43.296-.12.127-.214.278-.282.454a1.597 1.597 0 00-.101.575zm.263-3.481a1.157 1.157 0 00.317.808c.097.102.21.182.341.238.13.058.271.086.421.086s.291-.029.421-.088a1.115 1.115 0 00.578-.601 1.217 1.217 0 00.003-.894 1.06 1.06 0 00-1.002-.681c-.161 0-.308.029-.44.088a1.048 1.048 0 00-.561.607 1.226 1.226 0 00-.078.437z" fill="#36404d"></path></svg>