<svg viewBox="0 0 40 40" xmlns="http://www.w3.org/2000/svg"><path fill="#ffeea3" d="M12.007 29.045L1.5 32.32V4.797l10.493-3.271 10 3.429L32.5 1.68v27.523l-10.493 3.271z"></path><path d="M11.985 2.052l9.691 3.322.31.106.312-.097L32 2.359v26.477l-9.985 3.112-9.691-3.322-.31-.106-.312.097L2 31.641V5.164l9.985-3.112M33 1L22 4.429 12 1 1 4.429V33l11-3.429L22 33l11-3.429V1z" fill="#ba9b48"></path><path d="M22 31.937l-10-3.438V2.055L22 5.48v26.457z" fill="#fff"></path><path d="M24 38.5c-7.995 0-14.5-6.505-14.5-14.5S16.005 9.5 24 9.5 38.5 16.005 38.5 24 31.995 38.5 24 38.5z" fill="#8bb7f0"></path><path d="M24 10c7.72 0 14 6.28 14 14s-6.28 14-14 14-14-6.28-14-14 6.28-14 14-14m0-1C15.716 9 9 15.716 9 24c0 8.284 6.716 15 15 15s15-6.716 15-15c0-8.284-6.716-15-15-15z" fill="#4e7ab5"></path><path d="M24 35.5c-6.341 0-11.5-5.159-11.5-11.5S17.659 12.5 24 12.5 35.5 17.659 35.5 24 30.341 35.5 24 35.5z" fill="#fff"></path><path d="M24 13c6.065 0 11 4.935 11 11s-4.935 11-11 11-11-4.935-11-11 4.935-11 11-11m0-1c-6.627 0-12 5.373-12 12s5.373 12 12 12 12-5.373 12-12-5.373-12-12-12z" fill="#4e7ab5"></path><path d="M20.5 24.938h-2.122v2.122h-.886v-2.122H15.37v-.886h2.122v-2.127h.886v2.127H20.5v.886zM25.049 19.804v7.874h-1.246v-6.349a3.992 3.992 0 01-.728.411 6.078 6.078 0 01-.889.298v-1.063c.208-.068.408-.14.602-.215s.384-.159.572-.252a8.513 8.513 0 001.162-.704h.527zM29.142 27.807c-.802 0-1.428-.328-1.877-.982-.449-.656-.674-1.603-.674-2.842 0-1.36.234-2.391.704-3.088.469-.699 1.146-1.048 2.03-1.048 1.694 0 2.541 1.315 2.541 3.948 0 1.303-.239 2.298-.717 2.983-.479.686-1.148 1.029-2.007 1.029zm.124-6.967c-.935 0-1.402 1.03-1.402 3.089 0 1.927.458 2.89 1.375 2.89.902 0 1.354-.979 1.354-2.938-.001-2.027-.443-3.041-1.327-3.041z" fill="#36404d"></path></svg>