<svg viewBox="0 0 40 40" xmlns="http://www.w3.org/2000/svg"><path fill="#ffeea3" d="M12.008 29.045L1.5 32.32V4.797l10.492-3.271 10 3.429L32.5 1.68v27.523l-10.492 3.271z"></path><path d="M11.985 2.052l9.69 3.322.31.106.312-.097L32 2.359v26.477l-9.985 3.112-9.69-3.322-.31-.106-.312.097L2 31.641V5.164l9.985-3.112M33 1L22 4.429 12 1 1 4.429V33l11-3.429L22 33l11-3.429V1z" fill="#ba9b48"></path><path d="M22 31.937l-10-3.438V2.055L22 5.48v26.457z" fill="#fff"></path><path d="M24 38.5c-7.995 0-14.5-6.505-14.5-14.5S16.005 9.5 24 9.5 38.5 16.005 38.5 24 31.995 38.5 24 38.5z" fill="#8bb7f0"></path><path d="M24 10c7.72 0 14 6.28 14 14s-6.28 14-14 14-14-6.28-14-14 6.28-14 14-14m0-1C15.716 9 9 15.716 9 24s6.716 15 15 15 15-6.716 15-15S32.284 9 24 9z" fill="#4e7ab5"></path><path d="M24 35.5c-6.341 0-11.5-5.159-11.5-11.5S17.659 12.5 24 12.5 35.5 17.659 35.5 24 30.341 35.5 24 35.5z" fill="#fff"></path><path d="M24 13c6.065 0 11 4.935 11 11s-4.935 11-11 11-11-4.935-11-11 4.935-11 11-11m0-1c-6.627 0-12 5.373-12 12s5.373 12 12 12 12-5.373 12-12-5.373-12-12-12z" fill="#4e7ab5"></path><path d="M22.891 25.132h-5.5v-.919h5.5v.919zM28.25 27.678h-4.834v-.596c0-.244.035-.473.103-.686s.159-.413.274-.602c.114-.188.248-.365.402-.531.154-.167.318-.328.494-.483.176-.156.354-.307.537-.451.183-.146.361-.291.537-.438.164-.139.314-.276.451-.41a2.82 2.82 0 00.35-.416c.096-.144.172-.295.225-.454.055-.159.081-.332.081-.519a1.37 1.37 0 00-.095-.534 1.05 1.05 0 00-.262-.382 1.118 1.118 0 00-.4-.23 1.57 1.57 0 00-.506-.078c-.314 0-.635.073-.961.221a3.248 3.248 0 00-.939.66v-1.197c.157-.119.316-.222.478-.31s.327-.161.499-.22c.172-.06.354-.104.543-.132s.393-.043.607-.043c.347 0 .662.046.945.137.282.092.523.226.725.403.201.177.355.398.465.663s.164.569.164.913c0 .312-.039.592-.115.841-.078.249-.188.48-.328.695a3.553 3.553 0 01-.514.612c-.2.193-.424.393-.671.596-.208.169-.415.333-.62.492a8.093 8.093 0 00-.557.467 2.68 2.68 0 00-.4.457.816.816 0 00-.152.459v.027h3.475v1.069z" fill="#36404d"></path></svg>