<svg viewBox="0 0 40 40" xmlns="http://www.w3.org/2000/svg"><path fill="#66798f" d="M1 1h1v38H1z"></path><path fill="#66798f" d="M1 9h39v1H1zM1 20h39v1H1zM1 31h39v1H1z"></path><circle cx="18.5" cy="9.5" r="3" fill="#bae0bd"></circle><path d="M18.5 7C19.879 7 21 8.122 21 9.5S19.879 12 18.5 12 16 10.878 16 9.5 17.121 7 18.5 7m0-1a3.5 3.5 0 100 7 3.5 3.5 0 000-7z" fill="#5e9c76"></path><circle cx="32.5" cy="20.5" r="3" fill="#bae0bd"></circle><path d="M32.5 18c1.379 0 2.5 1.122 2.5 2.5S33.879 23 32.5 23 30 21.878 30 20.5s1.121-2.5 2.5-2.5m0-1a3.5 3.5 0 100 7 3.5 3.5 0 000-7z" fill="#5e9c76"></path><g><circle cx="11.5" cy="31.5" r="3" fill="#bae0bd"></circle><path d="M11.5 29c1.379 0 2.5 1.122 2.5 2.5S12.879 34 11.5 34 9 32.878 9 31.5s1.121-2.5 2.5-2.5m0-1a3.5 3.5 0 100 7 3.5 3.5 0 000-7z" fill="#5e9c76"></path></g></svg>