<svg viewBox="0 0 40 40" xmlns="http://www.w3.org/2000/svg"><path fill="#ffeea3" d="M11.008 29.045L.5 32.32V4.796l10.492-3.27 10 3.429L31.5 1.68v27.524l-10.492 3.27z"></path><path d="M10.985 2.052l9.69 3.322.31.106.312-.097L31 2.359v26.477l-9.985 3.112-9.69-3.322-.31-.106-.312.097L1 31.641V5.164l9.985-3.112M32 1L21 4.429 11 1 0 4.429V33l11-3.429L21 33l11-3.429V1z" fill="#ba9b48"></path><path d="M21 31.937l-10-3.438V2.055L21 5.48v26.457z" fill="#fff"></path><path d="M23 38.5c-7.995 0-14.5-6.505-14.5-14.5S15.005 9.5 23 9.5 37.5 16.005 37.5 24 30.995 38.5 23 38.5z" fill="#8bb7f0"></path><path d="M23 10c7.72 0 14 6.28 14 14s-6.28 14-14 14S9 31.72 9 24s6.28-14 14-14m0-1C14.716 9 8 15.716 8 24s6.716 15 15 15 15-6.716 15-15S31.284 9 23 9z" fill="#4e7ab5"></path><g><path d="M23 35.5c-6.341 0-11.5-5.159-11.5-11.5S16.659 12.5 23 12.5 34.5 17.659 34.5 24 29.341 35.5 23 35.5z" fill="#fff"></path><path d="M23 13c6.065 0 11 4.935 11 11s-4.935 11-11 11-11-4.935-11-11 4.935-11 11-11m0-1c-6.627 0-12 5.373-12 12s5.373 12 12 12 12-5.373 12-12-5.373-12-12-12z" fill="#4e7ab5"></path></g><path d="M22.963 27.807c-.802 0-1.428-.328-1.877-.982-.449-.656-.674-1.603-.674-2.842 0-1.36.234-2.391.703-3.088.47-.699 1.146-1.048 2.03-1.048 1.694 0 2.541 1.315 2.541 3.948 0 1.303-.239 2.298-.717 2.983-.478.686-1.147 1.029-2.006 1.029zm.124-6.967c-.935 0-1.402 1.03-1.402 3.089 0 1.927.459 2.89 1.375 2.89.902 0 1.354-.979 1.354-2.938-.001-2.027-.443-3.041-1.327-3.041z" fill="#36404d"></path></svg>