<svg viewBox="0 0 40 40" xmlns="http://www.w3.org/2000/svg"><path d="M20 38.5c-7.318 0-13.5-2.977-13.5-6.5V17.5h27V32c0 3.523-6.182 6.5-13.5 6.5z" fill="#c2e8ff"></path><path d="M33 18v14c0 2.898-5.224 6-13 6S7 34.898 7 32V18h26m1-1H6v15c0 3.866 6.268 7 14 7s14-3.134 14-7V17z" fill="#7496c4"></path><path d="M20 28.222c-10.929 0-13-4.333-13-4.333v4.333C7 30.955 12.339 34 20 34s13-3.045 13-5.778v-4.333s-2.071 4.333-13 4.333z" fill="#fff"></path><path d="M20 23.5c-7.318 0-13.5-2.977-13.5-6.5s6.182-6.5 13.5-6.5 13.5 2.977 13.5 6.5-6.182 6.5-13.5 6.5z" fill="#dcd5f2"></path><path d="M20 11c7.776 0 13 3.102 13 6s-5.224 6-13 6-13-3.102-13-6 5.224-6 13-6m0-1c-7.732 0-14 3.134-14 7s6.268 7 14 7 14-3.134 14-7-6.268-7-14-7z" fill="#8b75a1"></path><path d="M15.003 17v5.528C10.358 21.618 7 19.485 7 17c0-2.237 2.722-4.189 6.653-5.22 1.892-.497 6.268-.667 6.347.22 0 0-4.997.42-4.997 5z" fill="#c0b3e0"></path><path d="M12 11.5c-.794 0-4.5-1.064-4.5-4.083C7.5 4.559 12.523 1.5 20 1.5s12.5 3.059 12.5 5.917c0 3.02-3.706 4.083-4.5 4.083H12z" fill="#dcd5f2"></path><path d="M20 2c7.072 0 12 2.855 12 5.417C32 10.173 28.389 11 28 11H12c-.679 0-4-.976-4-3.583C8 4.855 12.928 2 20 2m0-1C12.636 1 7 4.023 7 7.417 7 10.811 11 12 12 12h16c.97 0 5-1.21 5-4.583S27.364 1 20 1z" fill="#8b75a1"></path><g><path d="M22.165 11H20V4c7.98 0 9 3.042 9 3.656C29 10.214 23.56 11 22.165 11z" fill="#c0b3e0"></path></g><g><path d="M11 7.656C11 7.042 12.02 4 20 4v7h-2.165C16.44 11 11 10.214 11 7.656z" fill="#c0b3e0"></path></g></svg>