<svg viewBox="0 0 40 40" xmlns="http://www.w3.org/2000/svg"><path d="M27.5 38.5v-3h-4v3h-7v-3h-4v3h-1.812a2.503 2.503 0 01-2.5-2.5v-.492l-.168-.149C6.49 34.005 1.5 28.993 1.5 21.357c0-8.885 5.823-15.894 5.882-15.963l.118-.14V1.5h3v4.31c-.997 1.136-7 8.284-7 15.547 0 6.533 5.918 11.798 6.17 12.019l.142.124h20.376l.142-.124c.252-.221 6.17-5.486 6.17-12.019 0-7.263-6.003-14.411-7-15.547V1.5h3v3.754l.118.14c.059.07 5.882 7.091 5.882 15.963 0 8.748-6.742 14.197-6.811 14.251l-.189.15V36c0 1.378-1.122 2.5-2.5 2.5h-1.5z" fill="#c8d1db"></path><path d="M32 2v3.071l.001.365.234.279C32.293 5.784 38 12.678 38 21.357c0 8.492-6.555 13.807-6.62 13.859l-.38.3V36c0 1.103-.897 2-2 2h-1v-3h-5v3h-6v-3h-5v3h-1.312c-1.103 0-2-.897-2-2v-.716l-.338-.299C7.29 34.046 2 28.976 2 21.357 2 12.678 7.707 5.784 7.765 5.715L8 5.436V2h2v3.623c-1.315 1.53-7 8.557-7 15.734 0 6.757 6.082 12.168 6.341 12.395l.283.248h20.752l.283-.248C30.918 33.525 37 28.114 37 21.357c0-7.177-5.685-14.204-7-15.734V2h2m1-1h-4v5s7 7.71 7 15.357C36 27.739 30 33 30 33H10s-6-5.261-6-11.643C4 13.71 11 6 11 6V1H7v4.071s-6 7.115-6 16.286c0 7.949 5.331 13.176 6.688 14.377V36a3 3 0 003 3H13v-3h3v3h8v-3h3v3h2a3 3 0 003-3s7-5.536 7-14.643c0-9.171-6-16.286-6-16.286V1z" fill="#66798f"></path><g><path d="M20 27c-1.103 0-2-.897-2-2s.897-2 2-2 2 .897 2 2-.897 2-2 2zm-1.351-7.5l-.845-13h4.393l-.845 13h-2.703z" fill="#f78f8f"></path><path d="M21.663 7l-.78 12h-1.766l-.78-12h3.326M20 23.5c.827 0 1.5.673 1.5 1.5s-.673 1.5-1.5 1.5-1.5-.673-1.5-1.5.673-1.5 1.5-1.5M22.73 6h-5.46l.91 14h3.64l.91-14zM20 22.5a2.5 2.5 0 100 5 2.5 2.5 0 000-5z" fill="#c74343"></path></g></svg>