<svg viewBox="0 0 40 40" xmlns="http://www.w3.org/2000/svg"><path fill="#dcd5f2" d="M20 22.823L8.149 34.674l-2.823-2.823L17.177 20 5.326 8.149l2.823-2.823L20 17.177 31.851 5.326l2.823 2.823L22.823 20l11.851 11.851-2.823 2.823z"></path><path d="M8.149 6.033l11.143 11.144.708.707.707-.707L31.851 6.033l2.116 2.116-11.144 11.144-.707.707.707.707 11.143 11.144-2.116 2.116-11.143-11.144-.707-.707-.707.707L8.149 33.967l-2.116-2.116 11.143-11.143.708-.708-.707-.707L6.033 8.149l2.116-2.116m0-1.414l-3.53 3.53L16.47 20 4.619 31.851l3.53 3.53L20 23.531l11.851 11.851 3.53-3.53L23.53 20 35.381 8.15l-3.53-3.53L20 16.47 8.149 4.619z" fill="#8b75a1"></path><path fill="#dcd5f2" d="M31.292 36.014l-.858-2.492 3.088-3.088 2.492.858 2.279 2.279-4.722 4.722z"></path><path d="M33.655 31.008l2.087.719 1.844 1.844-4.014 4.014-1.844-1.844-.719-2.087 2.646-2.646m-.266-1.149l-3.53 3.53.998 2.896L33.571 39 39 33.571l-2.714-2.714-2.897-.998z" fill="#8b75a1"></path><path fill="#dcd5f2" d="M3.986 8.708L1.707 6.429l4.722-4.722 2.279 2.279.858 2.492-3.088 3.088z"></path><path d="M6.429 2.414l1.844 1.844.719 2.087-2.647 2.647-2.087-.719-1.844-1.844 4.015-4.015m0-1.414L1 6.429l2.714 2.714 2.896.998 3.53-3.53-.997-2.897L6.429 1z" fill="#8b75a1"></path><g><path fill="#dcd5f2" d="M1.707 33.571l2.279-2.279 2.492-.858 3.088 3.088-.858 2.492-2.279 2.279z"></path><path d="M6.345 31.008l2.647 2.646-.719 2.087-1.844 1.844-4.014-4.014 1.844-1.844 2.086-.719m.265-1.149l-2.896.998L1 33.571 6.429 39l2.714-2.714.998-2.896-3.531-3.531z" fill="#8b75a1"></path></g><g><path fill="#dcd5f2" d="M30.434 6.478l.858-2.492 2.279-2.279 4.722 4.722-2.279 2.279-2.492.858z"></path><path d="M33.571 2.414l4.014 4.014-1.844 1.844-2.087.719-2.647-2.646.719-2.087 1.845-1.844m0-1.414l-2.714 2.714-.998 2.896 3.53 3.53 2.896-.998L39 6.429 33.571 1z" fill="#8b75a1"></path></g></svg>