<svg viewBox="0 0 40 40" xmlns="http://www.w3.org/2000/svg"><path d="M25.259 33.071c-1.615 0-3.174-.652-4.553-1.897C24.534 30.234 27.5 25.493 27.5 20S24.534 9.766 20.706 8.826c1.379-1.245 2.938-1.897 4.553-1.897 4.869 0 8.831 5.864 8.831 13.071s-3.962 13.071-8.831 13.071z" fill="#95a5ba"></path><path d="M25.259 7.429c4.593 0 8.33 5.64 8.33 12.571s-3.737 12.571-8.33 12.571c-1.227 0-2.423-.413-3.526-1.208C25.329 29.901 28 25.282 28 20s-2.671-9.901-6.267-11.363c1.103-.795 2.299-1.208 3.526-1.208m0-1c-2.106 0-4.042 1.027-5.604 2.739C23.622 9.423 27 14.168 27 20c0 5.832-3.378 10.577-7.345 10.833 1.561 1.712 3.498 2.739 5.604 2.739 5.153 0 9.33-6.076 9.33-13.571 0-7.496-4.177-13.572-9.33-13.572z" fill="#66798f"></path><path d="M16 38.5C8.005 38.5 1.5 30.201 1.5 20S8.005 1.5 16 1.5h6.989l-.065.075C20.734 4.094 14.071 11.76 14.071 20c0 8.351 6.399 15.983 8.746 18.5H16z" fill="#d2dbe6"></path><path d="M21.896 2c-2.659 3.113-8.325 10.282-8.325 18 0 7.733 5.348 14.836 8.121 18H16C8.28 38 2 29.925 2 20S8.28 2 16 2h5.896M24 1h-8C7.755 1 1 9.507 1 20s6.755 19 15 19h8s-9.429-9.09-9.429-19S24.458 1 24 1z" fill="#66798f"></path><path d="M24.071 38.5C16.037 38.5 9.5 30.201 9.5 20S16.037 1.5 24.071 1.5C32.027 1.5 38.5 9.799 38.5 20s-6.473 18.5-14.429 18.5zm.429-30c-4.411 0-8 5.159-8 11.5s3.589 11.5 8 11.5 8-5.159 8-11.5-3.589-11.5-8-11.5z" fill="#c8d1db"></path><path d="M24.071 2C31.752 2 38 10.075 38 20s-6.248 18-13.929 18C16.312 38 10 29.925 10 20S16.312 2 24.071 2m.429 30c4.687 0 8.5-5.383 8.5-12S29.187 8 24.5 8 16 13.383 16 20s3.813 12 8.5 12m-.429-31C15.827 1 9 9.507 9 20s6.827 19 15.071 19S39 30.493 39 20 32.316 1 24.071 1zm.429 30c-4.122 0-7.5-5.004-7.5-11s3.378-11 7.5-11S32 14.004 32 20s-3.378 11-7.5 11z" fill="#66798f"></path><path d="M33.418 32.151c5.162-6.711 5.162-17.591 0-24.302s-13.532-6.711-18.694 0-5.162 17.591 0 24.302 13.532 6.711 18.694 0z" fill="none" stroke="#66798f" stroke-width="2" stroke-miterlimit="10" stroke-dasharray="2,6"></path><g fill="#66798f"><path d="M13.55 7h-2.817a18.315 18.315 0 00-1.344 2h2.938l1.223-2zM10.192 25l-.466-2H6.711c.089.676.2 1.344.345 2h3.136zM9.648 17L10 15H7.061c-.147.654-.26 1.323-.349 2h2.936zM9.326 31c.395.703.819 1.375 1.282 2h3.136l-1.378-2h-3.04zM7.783 7H5.591L4.174 9h2.191a17.62 17.62 0 011.418-2zM4.044 15H2l-.447 2h2.151c.085-.684.199-1.35.34-2zM6.335 31H4.368l1.068 2h2.308a17.38 17.38 0 01-1.409-2zM3.701 23H1.515L2 25h2.036a22.845 22.845 0 01-.335-2z"></path></g></svg>