<svg viewBox="0 0 40 40" xmlns="http://www.w3.org/2000/svg"><path fill="#788b9c" d="M10 9h29v1H10z"></path><path fill="#dbf2ff" d="M1.5 6.5h6v6h-6z"></path><path d="M7 7v5H2V7h5m1-1H1v7h7V6z" fill="#7496c4"></path><path fill="#4e7ab5" d="M3 8h3v3H3z"></path><path fill="#788b9c" d="M10 20h29v1H10z"></path><path fill="#dbf2ff" d="M1.5 17.5h6v6h-6z"></path><path d="M7 18v5H2v-5h5m1-1H1v7h7v-7z" fill="#7496c4"></path><path fill="#4e7ab5" d="M3 19h3v3H3z"></path><path fill="#788b9c" d="M10 31h29v1H10z"></path><g><path fill="#dbf2ff" d="M1.5 28.5h6v6h-6z"></path><path d="M7 29v5H2v-5h5m1-1H1v7h7v-7z" fill="#7496c4"></path></g></svg>