<svg viewBox="0 0 40 40" xmlns="http://www.w3.org/2000/svg"><path fill="#66798f" d="M3 32h4v3H3zM33 32h4v3h-4z"></path><path d="M3 33.5A2.503 2.503 0 01.5 31V11C.5 9.621 1.622 8.5 3 8.5h34c1.378 0 2.5 1.121 2.5 2.5v20c0 1.379-1.122 2.5-2.5 2.5H3z" fill="#b0c1d4"></path><path d="M37 9c1.103 0 2 .897 2 2v20c0 1.103-.897 2-2 2H3c-1.103 0-2-.897-2-2V11c0-1.103.897-2 2-2h34m0-1H3a3 3 0 00-3 3v20a3 3 0 003 3h34a3 3 0 003-3V11a3 3 0 00-3-3z" fill="#66798f"></path><path fill="#dbf2ff" d="M3.5 11.5h26v19h-26z"></path><path d="M29 12v18H4V12h25m1-1H3v20h27V11z" fill="#7496c4"></path><circle cx="34.5" cy="13.5" r="2" fill="#dbf2ff"></circle><path d="M34.5 12c.827 0 1.5.673 1.5 1.5s-.673 1.5-1.5 1.5-1.5-.673-1.5-1.5.673-1.5 1.5-1.5m0-1a2.5 2.5 0 100 5 2.5 2.5 0 000-5z" fill="#7496c4"></path><circle cx="34.5" cy="20.5" r="2" fill="#dbf2ff"></circle><path d="M34.5 19c.827 0 1.5.673 1.5 1.5s-.673 1.5-1.5 1.5-1.5-.673-1.5-1.5.673-1.5 1.5-1.5m0-1a2.5 2.5 0 100 5 2.5 2.5 0 000-5z" fill="#7496c4"></path><circle cx="34.5" cy="29.5" r="1.5" fill="#ffec96"></circle><path d="M4 16.5h2.5l.316.949A3 3 0 009.662 19.5h13.675a3 3 0 002.846-2.051l.317-.949H29M19.5 20v-3M16.5 20v-3M13.5 20v-3M10.5 20v-3M22.5 20v-3M4 23.5h2.5l.316.949A3 3 0 009.662 26.5h13.675a3 3 0 002.846-2.051l.317-.949H29M19.5 27v-3" fill="none" stroke="#66798f" stroke-miterlimit="10"></path><g><path fill="none" stroke="#66798f" stroke-miterlimit="10" d="M16.5 27v-3"></path></g><g><path fill="none" stroke="#66798f" stroke-miterlimit="10" d="M13.5 27v-3"></path></g><g><path fill="none" stroke="#66798f" stroke-miterlimit="10" d="M10.5 27v-3"></path></g><g><path fill="none" stroke="#66798f" stroke-miterlimit="10" d="M22.5 27v-3"></path></g></svg>