<svg viewBox="0 0 40 40" xmlns="http://www.w3.org/2000/svg"><path fill="#f2faff" d="M16.5 17.5h14v12h-14z"></path><path d="M30 18v11H17V18h13m1-1H16v13h15V17z" fill="#788b9c"></path><path d="M20 36.441l-2 1-2-1-2 1-2-1-2 1-2-1-2 1-2-1-1.5.75V15.272C2.5 3.454 9.671 2.53 9.976 2.497l20.203.003C28.842 5.112 24.5 13.844 24.5 17v19.793l-.401-.401L22 37.441l-2-1z" fill="#fff"></path><path d="M29.362 3C27.687 6.315 24 13.96 24 17v18.882l-.447.224-1.553.776-1.552-.776-.448-.224-.447.224-1.553.776-1.553-.776-.447-.224-.447.224-1.553.776-1.553-.776-.447-.224-.447.224-1.553.776-1.553-.776L8 35.882l-.447.224L6 36.882l-1.553-.776L4 35.882l-.447.224-.553.276V15.273C3 4.273 9.361 3.089 9.986 3h19.376M31 2H9.923S2 2.818 2 15.273V38l2-1 2 1 2-1 2 1 2-1 2 1 2-1 2 1 2-1 2 1 2-1 1 1V17c0-3.57 6-15 6-15z" fill="#788b9c"></path><circle cx="4.5" cy="18.5" r=".5" fill="#788b9c"></circle><circle cx="6.5" cy="18.5" r=".5" fill="#788b9c"></circle><circle cx="8.5" cy="18.5" r=".5" fill="#788b9c"></circle><circle cx="10.5" cy="18.5" r=".5" fill="#788b9c"></circle><circle cx="12.5" cy="18.5" r=".5" fill="#788b9c"></circle><circle cx="14.5" cy="18.5" r=".5" fill="#788b9c"></circle><circle cx="16.5" cy="18.5" r=".5" fill="#788b9c"></circle><circle cx="18.5" cy="18.5" r=".5" fill="#788b9c"></circle><circle cx="20.5" cy="18.5" r=".5" fill="#788b9c"></circle><circle cx="22.5" cy="18.5" r=".5" fill="#788b9c"></circle><g><path d="M31 29.5c-3.523 0-6.5-6.183-6.5-13.5S27.477 2.5 31 2.5s6.5 6.183 6.5 13.5-2.977 13.5-6.5 13.5z" fill="#f2faff"></path><path d="M31 3c2.898 0 6 5.224 6 13s-3.102 13-6 13-6-5.224-6-13 3.102-13 6-13m0-1c-3.866 0-7 6.268-7 14s3.134 14 7 14 7-6.268 7-14-3.134-14-7-14z" fill="#788b9c"></path></g><g><ellipse cx="31.5" cy="16" rx="2.5" ry="5" fill="#788b9c"/></g></svg>