<svg viewBox="0 0 40 40" xmlns="http://www.w3.org/2000/svg"><path d="M24.5 27.5a1 1 0 01-1-1v-10h2v10a1 1 0 01-1 1z" fill="#f5ce85"></path><path d="M25 17v9.5a.5.5 0 01-1 0V17h1m1-1h-3v10.5a1.5 1.5 0 003 0V16z" fill="#967a44"></path><path d="M34.5 27.5a1 1 0 01-1-1v-10h2v10a1 1 0 01-1 1z" fill="#f5ce85"></path><path d="M35 17v9.5a.5.5 0 01-1 0V17h1m1-1h-3v10.5a1.5 1.5 0 003 0V16z" fill="#967a44"></path><path d="M28 38.5c-.827 0-1.5-.673-1.5-1.5V26.5h3V37c0 .827-.673 1.5-1.5 1.5z" fill="#f5ce85"></path><path d="M29 27v10c0 .551-.449 1-1 1s-1-.449-1-1V27h2m1-1h-4v11a2 2 0 104 0V26z" fill="#967a44"></path><path d="M31 38.5c-.827 0-1.5-.673-1.5-1.5V26.5h3V37c0 .827-.673 1.5-1.5 1.5z" fill="#f5ce85"></path><path d="M32 27v10c0 .551-.449 1-1 1s-1-.449-1-1V27h2m1-1h-4v11a2 2 0 104 0V26z" fill="#967a44"></path><path d="M25.5 23.5v-7h-2v-.564a3.44 3.44 0 013.307-3.434L32 12.5c1.959 0 3.5 1.541 3.5 3.436v.564h-2v7h-8z" fill="#ffc49c"></path><path d="M32.065 13A2.939 2.939 0 0135 15.935V16h-2v7h-7v-7h-2v-.065a2.939 2.939 0 012.692-2.925l.327-.006.084-.004h4.962m0-1h-5.027c-.013 0-.025.004-.038.004V12h-.065A3.935 3.935 0 0023 15.935V17h2v7h9v-7h2v-1.065A3.935 3.935 0 0032.065 12z" fill="#a16a4a"></path><path d="M29.5 29.5c-3.297 0-5.901-.805-6.882-1.155l2.748-8.702h8.268l2.748 8.702c-.981.35-3.585 1.155-6.882 1.155z" fill="#ffc49c"></path><path d="M33.267 20.143l2.491 7.887c-1.165.378-3.444.97-6.258.97-2.8 0-5.088-.594-6.257-.971l2.49-7.886h7.534m.733-1h-9l-3 9.5S25.138 30 29.5 30s7.5-1.357 7.5-1.357l-3-9.5z" fill="#a16a4a"></path><path d="M29.5 14.5c-.648 0-.912-.291-1-.428v-2.737l-.284-.136A2.974 2.974 0 0126.5 8.5V4.1h6v4.4a2.974 2.974 0 01-1.716 2.699l-.284.136v2.739c-.083.13-.346.426-1 .426z" fill="#f5ce85"></path><path d="M32 4.6v3.9c0 .965-.548 1.826-1.431 2.248L30 11.02v2.859c-.081.058-.232.121-.5.121s-.419-.063-.5-.121V11.02l-.569-.272A2.478 2.478 0 0127 8.5V4.6h5m1-1h-7v4.9a3.49 3.49 0 002 3.15v2.542s.299.808 1.5.808 1.5-.808 1.5-.808V11.65a3.49 3.49 0 002-3.15V3.6z" fill="#967a44"></path><path d="M32.529 7.229l-1.407-2.462-.462.426c-.02.019-1.944 1.779-3.66 1.779h-.622l.93 4.212-3.804-1.521C23.592 5.545 25.302 1.5 29 1.5c1.076 0 1.556.732 1.575.764l.147.231L31 2.5c3.399 0 4.289 5.673 4.465 7.176l-3.78 1.512.844-3.959z" fill="#a6714e"></path><path d="M29 2c.772 0 1.12.483 1.146.52l.292.48H31c2.726 0 3.655 4.558 3.915 6.357l-2.546 1.019.609-2.856.08-.373-.189-.331-1-1.75-.624-1.089-.923.85c-.498.457-2.063 1.645-3.322 1.645h-1.245l.268 1.216.592 2.681-2.598-1.039C24.166 6.331 25.337 2 29 2m0-1c-4.216 0-6 4.592-6 9l5 2-1-4.528c1.939 0 4-1.912 4-1.912l1 1.75L31 12l5-2s-.586-8-5-8c0 0-.608-1-2-1z" fill="#7a4f34"></path><path fill="#ffc49c" d="M27.429 13.214H31.5v4.071h-4.071z"></path><path d="M27 13l1-1s.44 1.214 1.464 1.214L28 16l-1-3zM32 13l-1-1s-.44 1.214-1.464 1.214L31 16l1-3z" fill="#fff"></path><path d="M6 28.5c-.827 0-1.5-.673-1.5-1.5v-6.5h3V27c0 .827-.673 1.5-1.5 1.5z" fill="#f5ce85"></path><path d="M7 21v6c0 .551-.449 1-1 1s-1-.449-1-1v-6h2m1-1H4v7a2 2 0 104 0v-7z" fill="#967a44"></path><g><path d="M18 28.5c-.827 0-1.5-.673-1.5-1.5v-6.5h3V27c0 .827-.673 1.5-1.5 1.5z" fill="#f5ce85"></path><path d="M19 21v6c0 .551-.449 1-1 1s-1-.449-1-1v-6h2m1-1h-4v7a2 2 0 104 0v-7z" fill="#967a44"></path></g><g><path d="M15 38.5c-.827 0-1.5-.673-1.5-1.5v-8.5h-3V37c0 .827-.673 1.5-1.5 1.5s-1.5-.673-1.5-1.5V26.5h-3V18a5.506 5.506 0 015.302-5.496l.236.002.066-.009 4.084.006.122.014A5.497 5.497 0 0119.5 18v8.5h-3V37c0 .827-.673 1.5-1.5 1.5z" fill="#735f63"></path><path d="M14.136 13c.049.007.097.012.151.016A4.997 4.997 0 0119 18v8h-3v11c0 .551-.449 1-1 1s-1-.449-1-1v-9h-4v9c0 .551-.449 1-1 1s-1-.449-1-1V26H5v-8a5.007 5.007 0 014.641-4.987l.378-.007c.031-.001.062-.003.092-.006h4.025m.035-1h-4.114c-.02 0-.038.005-.057.006V12a6 6 0 00-6 6v9h3v10a2 2 0 104 0v-8h2v8a2 2 0 104 0V27h3v-9a5.996 5.996 0 00-5.657-5.983c-.058-.003-.113-.017-.172-.017z" fill="#4d3e40"></path></g><g><path d="M14.8 8.493a.7.7 0 010-1.4c.7 0 .7.152.7.3 0 .473-.399 1.1-.7 1.1zm-5.6 0c-.301 0-.7-.627-.7-1.101 0-.147 0-.3.7-.3a.7.7 0 010 1.401z" fill="#deb974"></path><path d="M14.8 7.593c.063 0 .116.002.161.004a1.085 1.085 0 01-.223.386.2.2 0 01-.138-.19c0-.11.09-.2.2-.2m-5.6 0a.2.2 0 01.062.39 1.081 1.081 0 01-.222-.386c.045-.003.098-.004.16-.004m5.6-1a1.2 1.2 0 100 2.4c.663 0 1.2-.937 1.2-1.6s-.537-.8-1.2-.8zm-5.6 0c-.663 0-1.2.137-1.2.8s.537 1.6 1.2 1.6a1.2 1.2 0 100-2.4z" fill="#967a44"></path></g><g><path d="M10.5 12.919v-1.92l-.165-.148A2.475 2.475 0 019.5 9V4.3h5V9c0 .707-.297 1.364-.835 1.851l-.165.148v1.92l-1.5 4.5-1.5-4.5z" fill="#f5ce85"></path><path d="M14 4.8V9c0 .565-.238 1.09-.669 1.478l-.331.298v2.061l-1 3-1-3v-2.061l-.331-.298A1.971 1.971 0 0110 9V4.8h4m1-1H9V9c0 .885.39 1.672 1 2.221V13l2 6 2-6v-1.779c.61-.549 1-1.336 1-2.221V3.8z" fill="#967a44"></path></g><g><path d="M14.5 8.078V5.72l-1.808-.666-.151.04c-.001 0-1.591.414-2.655.665L9.5 5.85v2.229h-.198C9.047 7.558 8.5 6.27 8.5 4.778c0-1.711 1.417-3.211 3.033-3.211 1.74 0 2.247.938 2.268.978l.14.27.308.008c.831 0 1.252.847 1.252 2.516 0 1.09-.538 2.249-.795 2.74H14.5z" fill="#a6714e"></path><path d="M11.533 2.067c1.401 0 1.812.687 1.814.687l.272.567h.629c.654.001.752 1.264.752 2.017v.034l-.654-.242-1.333-.492-.295-.108-.304.079s-1.583.413-2.643.662l-.733.173A6.009 6.009 0 019 4.778c0-1.444 1.184-2.711 2.533-2.711m0-1C9.606 1.067 8 2.804 8 4.778c0 2.107 1 3.8 1 3.8h1V6.245c1.07-.252 2.667-.668 2.667-.668L14 6.069v2.51h1s1-1.66 1-3.24c0-2.496-.932-3.016-1.752-3.016 0-.001-.602-1.256-2.715-1.256z" fill="#7a4f34"></path></g><path fill="#fff" d="M12 19l-2-6h4z"></path><path fill="none" stroke="#4d3e40" stroke-miterlimit="10" d="M16.5 26.143V18M7.5 26.143V18"></path></svg>