<svg viewBox="0 0 40 40" xmlns="http://www.w3.org/2000/svg"><path d="M4 32.5A2.503 2.503 0 011.5 30V10c0-1.378 1.122-2.5 2.5-2.5h32c1.378 0 2.5 1.122 2.5 2.5v20c0 1.378-1.122 2.5-2.5 2.5H4z" fill="#8bb7f0"></path><path d="M36 8c1.103 0 2 .897 2 2v20c0 1.103-.897 2-2 2H4c-1.103 0-2-.897-2-2V10c0-1.103.897-2 2-2h32m0-1H4a3 3 0 00-3 3v20a3 3 0 003 3h32a3 3 0 003-3V10a3 3 0 00-3-3z" fill="#4e7ab5"></path><path fill="#36404d" d="M1 11h38v4H1z"></path><path fill="#fff" d="M5 18h30v12H5z"></path><circle cx="8" cy="21" r="1" fill="#36404d"></circle><circle cx="11" cy="21" r="1" fill="#36404d"></circle><circle cx="14" cy="21" r="1" fill="#36404d"></circle><circle cx="17" cy="21" r="1" fill="#36404d"></circle><circle cx="8" cy="24" r="1" fill="#36404d"></circle><circle cx="11" cy="24" r="1" fill="#36404d"></circle><circle cx="14" cy="24" r="1" fill="#36404d"></circle><circle cx="17" cy="24" r="1" fill="#36404d"></circle><circle cx="8" cy="27" r="1" fill="#36404d"></circle><circle cx="11" cy="27" r="1" fill="#36404d"></circle><circle cx="14" cy="27" r="1" fill="#36404d"></circle><circle cx="17" cy="27" r="1" fill="#36404d"></circle><circle cx="32" cy="21" r="1" fill="#36404d"></circle><circle cx="29" cy="21" r="1" fill="#36404d"></circle><circle cx="26" cy="21" r="1" fill="#36404d"></circle><circle cx="23" cy="21" r="1" fill="#36404d"></circle><circle cx="32" cy="24" r="1" fill="#36404d"></circle><circle cx="29" cy="24" r="1" fill="#36404d"></circle><circle cx="26" cy="24" r="1" fill="#36404d"></circle><circle cx="23" cy="24" r="1" fill="#36404d"></circle><circle cx="32" cy="27" r="1" fill="#36404d"></circle><circle cx="29" cy="27" r="1" fill="#36404d"></circle><circle cx="26" cy="27" r="1" fill="#36404d"></circle><circle cx="23" cy="27" r="1" fill="#36404d"></circle></svg>