<svg viewBox="0 0 40 40" xmlns="http://www.w3.org/2000/svg"><path fill="#fff" d="M14.658 26.236l22.047-13.549 1.608 2.617-22.047 13.549z"></path><path d="M36.54 13.376l1.085 1.765-21.196 13.024-1.085-1.765L36.54 13.376M36.868 12L13.969 26.072l2.132 3.469L39 15.469 36.868 12z" fill="#788b9c"></path><path fill="#f78f8f" d="M2.5 35.5V7.997l9.502-6.394L21.5 7.997V35.5z"></path><path d="M12.002 2.205L21 8.263V35H3V8.263l9.002-6.058m0-1.205L2 7.731V36h20V7.731L12.002 1z" fill="#c74343"></path><path fill="#788b9c" d="M32 15.604v3.563l2-1.203v-3.68zM28 17.979v3.563l2-1.204v-3.679zM24 20.578v3.562l2-1.203v-3.679z"></path><g><path fill="#b6c9d6" d="M1.5 35.5h21v3h-21z"></path><path d="M22 36v2H2v-2h20m1-1H1v4h22v-4z" fill="#788b9c"></path></g><g><path fill="#dbf2ff" d="M6.5 11.5h11v13h-11z"></path><path d="M17 12v12H7V12h10m1-1H6v14h12V11z" fill="#7496c4"></path></g></svg>