<svg viewBox="0 0 40 40" xmlns="http://www.w3.org/2000/svg"><path d="M20 38.5c-10.201 0-18.5-7.707-18.5-17.18C1.5 14.104 4.71 5.5 20 5.5c8.439 0 18.5 2.745 18.5 15.82 0 9.473-8.299 17.18-18.5 17.18z" fill="#f78f8f"></path><path d="M20 6c11.944 0 18 5.154 18 15.32C38 30.517 29.925 38 20 38S2 30.517 2 21.32C2 11.154 8.056 6 20 6m0-1C9.507 5 1 9.061 1 21.32 1 31.084 9.507 39 20 39s19-7.916 19-17.68C39 9.061 30.493 5 20 5z" fill="#c74343"></path><g><path d="M21.519 16.554c-2.205-.895-3.208-2.813-2.982-5.707l.077-.981-.838.517a9.033 9.033 0 01-4.745 1.364 8.305 8.305 0 01-1.388-.115c.378-1.07 1.46-3.54 3.512-4.011l1.512-.348-1.431-.601c-1.544-.648-2.604-1.624-2.724-4.169 2.842.033 4.438.4 6.11 2.715l.565.782.313-.913c.754-2.194 1.716-3.263 2.047-3.584a3.112 3.112 0 011.718.644c-.904 1.475-1.261 2.801-1.276 2.86l-.381 1.442 1.173-.921.189-.155c.63-.524 2.052-1.707 4.509-1.857-.177 2.046-1.38 3.122-2.12 3.596l-1.081.691 1.265.222c1.773.312 2.935 1.552 3.36 2.697-.338.132-.8.199-1.378.199-1.417 0-3.133-.399-4.268-.663l-1.061-.247.432.948c.78 1.492.331 3.706-1.109 5.595z" fill="#bae0bd"></path><path d="M21.741 2.019c.217.031.52.107.851.286-.763 1.364-1.072 2.518-1.087 2.576l-.758 2.882 2.343-1.841c.056-.044.123-.099.2-.164.536-.446 1.68-1.399 3.599-1.679a4.081 4.081 0 01-1.8 2.611l-2.162 1.384 2.528.444a3.943 3.943 0 012.735 1.864 5.106 5.106 0 01-.667.039c-1.359 0-3.04-.391-4.152-.65l-.073-.017-2.122-.494 1.009 1.931c.649 1.242.31 3.082-.832 4.74-1.733-.867-2.512-2.561-2.319-5.045l.153-1.962-1.675 1.033a8.529 8.529 0 01-4.484 1.289c-.253 0-.485-.012-.691-.03.471-1.11 1.41-2.76 2.928-3.109l3.025-.695-2.861-1.202c-1.29-.542-2.158-1.302-2.376-3.194 2.562.089 3.788.59 5.163 2.494l1.13 1.564.626-1.825c.627-1.824 1.395-2.82 1.769-3.23M21.468.997c-.072 0-.111.004-.111.004s-1.338 1.034-2.33 3.924C17.159 2.339 15.362 2 12 2c0 2.935 1.045 4.294 3.042 5.132C12.086 7.812 11 12 11 12s.796.246 2.029.246c1.317 0 3.132-.28 5.009-1.438-.24 3.076.879 5.393 3.646 6.342 1.747-2.107 2.306-4.664 1.387-6.422 1.123.261 2.946.693 4.452.693.798 0 1.507-.121 1.977-.453-.317-1.318-1.595-3.036-3.872-3.435C26.627 6.893 28 5.495 28 3c-3.251 0-4.969 1.696-5.528 2.135 0 0 .399-1.518 1.448-3.085-1.009-.969-2.106-1.053-2.452-1.053z" fill="#5e9c76"></path></g></svg>