<svg viewBox="0 0 40 40" xmlns="http://www.w3.org/2000/svg"><path d="M20 38.5C9.799 38.5 1.5 30.201 1.5 20S9.799 1.5 20 1.5 38.5 9.799 38.5 20 30.201 38.5 20 38.5z" fill="#ffeea3"></path><path d="M20 2c9.925 0 18 8.075 18 18s-8.075 18-18 18S2 29.925 2 20 10.075 2 20 2m0-1C9.507 1 1 9.507 1 20s8.507 19 19 19 19-8.507 19-19S30.493 1 20 1z" fill="#c29653"></path><path d="M27 20.5c-1.93 0-3.5-1.57-3.5-3.5s1.57-3.5 3.5-3.5 3.5 1.57 3.5 3.5-1.57 3.5-3.5 3.5z" fill="#fff"></path><path d="M27 14c1.654 0 3 1.346 3 3s-1.346 3-3 3-3-1.346-3-3 1.346-3 3-3m0-1a4 4 0 100 8 4 4 0 000-8z" fill="#c29653"></path><circle cx="27" cy="17" r="1.5" fill="#36404d"></circle><path d="M13 20.5c-1.93 0-3.5-1.57-3.5-3.5s1.57-3.5 3.5-3.5 3.5 1.57 3.5 3.5-1.57 3.5-3.5 3.5z" fill="#fff"></path><path d="M13 14c1.654 0 3 1.346 3 3s-1.346 3-3 3-3-1.346-3-3 1.346-3 3-3m0-1a4 4 0 100 8 4 4 0 000-8z" fill="#c29653"></path><circle cx="13" cy="17" r="1.5" fill="#36404d"></circle><g><path d="M25.429 34.429a3.582 3.582 0 01-3.572-3.542c-.021-.578-.204-3.387-1.857-3.387-.141 0-.242-.018-.311-.04.09.002.18.004.272.004 2-.003 4.935-.141 8.097-1.249.609 1.499.942 3.13.942 4.642a3.575 3.575 0 01-3.571 3.572z" fill="#f78f8f"></path><path d="M27.762 26.843c.473 1.312.738 2.733.738 4.015a3.074 3.074 0 01-3.071 3.071c-1.68 0-3.058-1.367-3.072-3.074-.021-.576-.137-1.983-.75-2.928 1.731-.085 3.872-.344 6.155-1.084m.569-1.26c-3.118 1.178-6.029 1.377-8.332 1.381h-.038c-.204 0-.399-.009-.599-.014-.509.33-.377 1.05.638 1.05 1.248 0 1.353 2.78 1.357 2.89a4.072 4.072 0 008.142-.033c.001-1.615-.376-3.513-1.168-5.274z" fill="#c74343"></path></g><path d="M25.562 31s0-3.118-1.138-4" fill="#f78f8f" stroke="#c74343" stroke-miterlimit="10"></path><path d="M9.143 25S13.546 27.475 20 27.464c3.209-.005 6.924-.361 10.858-2.464" fill="none" stroke="#c29653" stroke-miterlimit="10"></path></svg>