<svg viewBox="0 0 40 40" xmlns="http://www.w3.org/2000/svg"><path d="M1.5 36.5v-5H36c1.379 0 2.5 1.121 2.5 2.5s-1.121 2.5-2.5 2.5H1.5z" fill="#8bb7f0"></path><path d="M36 32c1.103 0 2 .897 2 2s-.897 2-2 2H2v-4h34m0-1H1v6h35a3 3 0 100-6z" fill="#4e7ab5"></path><path fill="#a3d9fa" d="M9.5 31.5v-13h2v-3h3v3h2v-3h3v3h2v-3h3v3h2v-3h3v3h2v-5h3v5h2v13z"></path><path d="M34 14v5h2v12H10V19h2v-3h2v3h3v-3h2v3h3v-3h2v3h3v-3h2v3h3v-5h2m1-1h-4v5h-1v-3h-4v3h-1v-3h-4v3h-1v-3h-4v3h-1v-3h-4v3H9v14h28V18h-2v-5z" fill="#4e7ab5"></path><path fill="#c2e8ff" d="M14 19h3v12h-3zM19 19h3v12h-3zM24 19h3v12h-3zM29 19h3v12h-3zM10 19h2v12h-2zM34 19h2v12h-2z"></path><g><path d="M4.5 17.857C4.5 12.146 9.106 7.5 14.77 7.5h14.689c2.042 0 4.048-.56 5.8-1.619L38.5 3.894V6.5c0 4.963-4.003 9-8.923 9H13a8.487 8.487 0 00-6.066 2.532L4.5 20.708v-2.851z" fill="#fff"></path><path d="M38 4.786V6.5c0 4.687-3.779 8.5-8.423 8.5H13c-2.426 0-4.707.952-6.451 2.712L5 19.415v-1.558C5 12.422 9.382 8 14.769 8h14.69c2.134 0 4.229-.585 6.063-1.695L38 4.786M39 3l-4 2.453A10.709 10.709 0 0129.459 7h-14.69C8.822 7 4 11.861 4 17.857V22l3.289-3.615A8.043 8.043 0 0113 16h16.577C34.781 16 39 11.747 39 6.5V3z" fill="#788b9c"></path></g><g><path fill="#8bb7f0" d="M1 32h3v4H1z"></path></g></svg>