<svg viewBox="0 0 40 40" xmlns="http://www.w3.org/2000/svg"><path d="M25.76 37.5c-1.966 0-2.26-2.192-2.26-3.5l.004-.818c.021-3.23.053-8.113-1.77-9.947-.484-.488-1.068-.735-1.734-.735s-1.25.247-1.734.734c-1.822 1.834-1.79 6.717-1.77 9.947L16.5 34c0 1.308-.294 3.5-2.261 3.5-2.255 0-2.99-3.53-3.841-7.618-.275-1.323-.561-2.691-.916-4.012-.552-2.004-1.488-3.874-2.394-5.683-1.33-2.659-2.588-5.171-2.588-7.901C4.5 5.701 7.843 2.5 14.72 2.5c1.33 0 3.656.37 4.866.902l.09.039.102.003c.231 0 .398-.043.431-.052.04-.012 3.036-.893 4.698-.893 3.438 0 6.238.996 8.101 2.879 1.663 1.682 2.524 4.068 2.492 6.901 0 2.734-1.257 5.247-2.588 7.907-.905 1.809-1.842 3.679-2.394 5.68-.36 1.322-.648 2.701-.927 4.036-.817 3.908-1.587 7.598-3.831 7.598z" fill="#fff"></path><path d="M24.906 3c3.301 0 5.979.944 7.746 2.731 1.589 1.607 2.378 3.808 2.347 6.555 0 2.611-1.232 5.072-2.536 7.678-.916 1.83-1.863 3.723-2.428 5.773-.364 1.335-.654 2.722-.934 4.063-.773 3.702-1.503 7.2-3.342 7.2C24.305 37 24 35.369 24 34c0-.249.002-.523.004-.815.027-4.211-.098-8.475-1.915-10.303A2.893 2.893 0 0020 22c-.793 0-1.516.305-2.089.882-1.817 1.828-1.942 6.092-1.915 10.303.002.292.004.566.004.815 0 1.369-.305 3-1.76 3-1.849 0-2.579-3.508-3.352-7.222-.277-1.329-.563-2.704-.923-4.044-.565-2.048-1.512-3.94-2.428-5.77C6.232 17.358 5 14.897 5 12.286 5 6.037 8.179 3 14.72 3c1.279 0 3.545.368 4.665.859l.215.085h.21c.255 0 .471-.054.55-.075.817-.242 3.227-.869 4.546-.869m0-1c-1.756 0-4.83.91-4.83.91s-.125.034-.266.034h-.022C18.531 2.392 16.139 2 14.72 2 7.373 2 4 5.65 4 12.286 4 17.057 7.664 21.155 9 26c1.484 5.516 1.752 12 5.24 12 1.855 0 2.76-1.614 2.76-4 0-3.355-.318-11 3-11s3 7.645 3 11c0 2.386.906 4 2.759 4 3.488 0 3.757-6.559 5.241-12 1.336-4.845 4.999-8.944 4.999-13.714C36.074 5.65 31.544 2 24.906 2z" fill="#788b9c"></path><path d="M23.5 6.5s-3-4-8.5-4" fill="none" stroke="#788b9c" stroke-linecap="round" stroke-miterlimit="10"></path></svg>