<svg viewBox="0 0 40 40" xmlns="http://www.w3.org/2000/svg"><path fill="#c2e8ff" d="M4.758 21.051L25.169 5.5h8.079l2.88-3.784 2.118 2.118L34.5 6.756v8.075L18.949 35.242z"></path><path d="M36.179 2.474l1.314 1.314-3.108 2.424-.385.3v8.15L18.898 34.484 5.516 21.102 25.338 6h8.158l.3-.394 2.383-3.132M36.077.957L33 5h-8L4 21l15 15 16-21V7l4-3.12L36.077.957z" fill="#7496c4"></path><path fill="#8bb7f0" d="M1.707 24l2.647-2.646L24.955 5.662l9.383 9.383-15.735 20.652L16 38.293z"></path><path d="M24.911 6.325l8.764 8.764-15.43 20.251L16 37.586 2.414 24l2.245-2.245 20.252-15.43M25 5L4 21l-3 3 15 15 3-3 16-21L25 5z" fill="#4e7ab5"></path><path fill="#f78f8f" d="M30.785 5.078l5.152-3.434 2.419 2.419-3.434 5.152z"></path><path d="M35.873 2.287l1.841 1.841-2.869 4.302-3.275-3.275 4.303-2.868M36 1l-6 4 5 5 4-6-3-3z" fill="#c74343"></path><path fill="#4e7ab5" d="M10.293 27l-2.62 2.62.707.707 2.62-2.62-.707-.707zM8.293 25l-2.62 2.62.707.707L9 25.707 8.293 25zM6.293 23l-2.62 2.62.707.707L7 23.707 6.293 23zM16.293 33l-2.62 2.62.707.707 2.62-2.62-.707-.707z"></path><g><path fill="#4e7ab5" d="M14.293 31l-2.62 2.62.707.707 2.62-2.62-.707-.707z"></path></g><g><path fill="#4e7ab5" d="M12.293 29l-2.62 2.62.707.707 2.62-2.62-.707-.707z"></path></g><path d="M23 17c0-1.519-.99-2.991-2.509-2.991C18.973 14.009 18 15.481 18 17c0 2.087-3.942 3.847-2.769 5.019 1.076 1.076 3.458-2.423 4.316-1.566l.011-.003-.003.003c.857.857-2.641 3.24-1.566 4.316C19.162 25.942 20.913 22 23 22c1.519 0 3-.973 3-2.491C26 17.99 24.519 17 23 17z" fill="#fff"></path></svg>