<svg viewBox="0 0 40 40" xmlns="http://www.w3.org/2000/svg"><path d="M13.158 38.5C12.03 37.692 9.5 35.557 9.5 34c0-.34.146-.883.313-1.511.496-1.851 1.245-4.647-.011-7.926a16.787 16.787 0 00-.396-.934c-.406-.908-.758-1.692-.835-3.649l-.019-.48H7.505l-.081.401a5.067 5.067 0 00-.043.6c-.034.845-.102 2.522-.651 3.882L1.501 22.64c.031-4.033.584-5.638.886-6.511l.088-.261c.186-.567.154-1.2.101-2.249A48.42 48.42 0 012.5 11c0-4.374 3.107-6.5 9.5-6.5h.232l.15-.177C13.374 3.151 15.13 1.5 15.929 1.5h8.143c.798 0 2.555 1.651 3.547 2.823l.15.177H28c6.393 0 9.5 2.126 9.5 6.5a47.24 47.24 0 01-.077 2.619c-.053 1.049-.085 1.682.102 2.251l.087.259c.302.874.855 2.478.886 6.511l-5.229 1.743c-.549-1.359-.617-3.037-.651-3.882a5.303 5.303 0 00-.043-.6l-.08-.401h-.89l-.105.48c-.075 1.896-.438 2.669-.858 3.564-.148.316-.3.64-.445 1.019-1.255 3.278-.506 6.075-.011 7.926.168.628.314 1.171.314 1.511 0 1.557-2.53 3.692-3.658 4.5H13.158z" fill="#ffeea3"></path><path d="M24.071 2c.492.01 2.001 1.271 3.166 2.646l.3.354H28c6.056 0 9 1.963 9 6 0 1.094-.042 1.925-.076 2.593-.054 1.069-.09 1.776.124 2.428.026.082.057.171.092.271.283.82.795 2.305.854 5.989l-4.419 1.473c-.373-1.19-.428-2.549-.457-3.274-.013-.334-.021-.518-.053-.677L32.904 19H31.039l-.038.961c-.071 1.796-.398 2.491-.811 3.372-.15.32-.306.651-.459 1.052-1.313 3.43-.539 6.321-.027 8.234.152.569.296 1.107.296 1.381 0 1.112-1.864 2.937-3.319 4H13.319C11.863 36.939 10 35.117 10 34c0-.274.144-.812.297-1.382.512-1.913 1.287-4.804-.027-8.234a18.553 18.553 0 00-.406-.959c-.402-.896-.719-1.604-.793-3.465L9.033 19H7.096l-.161.803c-.032.159-.039.343-.053.677-.029.725-.084 2.084-.457 3.274l-4.419-1.473c.059-3.684.571-5.169.854-5.989l.09-.266c.216-.657.18-1.364.126-2.433A47.556 47.556 0 013 11c0-4.037 2.944-6 9-6h.464l.3-.354C13.928 3.271 15.437 2.01 15.929 2h8.142m0-1h-8.142C14.538 1 12 4 12 4 8.868 4 2 4.386 2 11c0 2.771.265 3.908 0 4.714-.261.809-1 2.45-1 7.286l6 2c.963-1.909.837-4.611.915-5h.156c.105 2.664.703 3.277 1.264 4.742C10.984 29.047 9 32.516 9 34c0 2.238 4 5 4 5h14s4-2.762 4-5c0-1.484-1.984-4.953-.336-9.258.561-1.465 1.231-2.078 1.336-4.742h.085c.078.389-.048 3.091.915 5l6-2c0-4.836-.739-6.477-1-7.286-.265-.806 0-1.943 0-4.714 0-6.614-6.868-7-10-7 0 0-2.538-3-3.929-3z" fill="#ba9b48"></path><circle cx="12.5" cy="16.5" r=".5" fill="#ba9b48"></circle><circle cx="27.5" cy="16.5" r=".5" fill="#ba9b48"></circle><path fill="none" stroke="#ba9b48" stroke-miterlimit="10" d="M20 25.188v9.819"></path><path fill="#ba9b48" d="M8 16h1v4H8zM31 16h1v4h-1z"></path><path d="M19.001 16.028c0 .006-.031.61-.99 1.602-.88.909-2.265 1.37-4.117 1.37-1.856 0-3.023-.388-3.904-1.298-.97-1.003-.99-1.664-.99-1.664L9.001 16H8c-.003.07-.042 1.04 1.271 2.398C10.346 19.508 11.76 20 13.894 20s3.761-.563 4.835-1.674C20.042 16.968 20.003 16.07 20 16h-1l.001.028z" fill="#ba9b48"></path><path d="M21 16.028c0 .006.031.61.99 1.602.88.909 2.265 1.37 4.117 1.37 1.856 0 3.023-.388 3.904-1.298.97-1.003.99-1.664.99-1.664L31 16h1.001c.003.07.042 1.04-1.271 2.398C29.655 19.508 28.241 20 26.107 20s-3.761-.563-4.835-1.674c-1.313-1.358-1.274-2.256-1.271-2.326h1l-.001.028zM26 28c-1.796-.018-3.149-.472-4.01-1.362-.96-.992-.99-1.596-.99-1.602L20 25c-.003.07-.042.976 1.271 2.334C22.327 28.424 23.922 28.98 26 29v-1z" fill="#ba9b48"></path><path d="M14 28c1.796-.018 3.149-.472 4.01-1.362.96-.992.99-1.596.99-1.602L20 25c.003.07.042.975-1.271 2.333C17.673 28.424 16.078 28.98 14 29v-1z" fill="#ba9b48"></path><path d="M14 33c1.796-.018 3.149-.472 4.01-1.362.96-.992 1.302-2.319 1.302-2.325 0 0 .25-1.313.25-3.563L20 30.007c.003.07.042.968-1.271 2.326C17.673 33.424 16.078 33.98 14 34v-1z" fill="#ba9b48"></path><path d="M26 33c-1.796-.018-3.149-.472-4.01-1.362-.96-.992-1.302-2.319-1.302-2.325 0 0-.25-1.313-.25-3.563L20 30.007c-.003.07-.042.968 1.271 2.326C22.327 33.424 23.922 33.98 26 34v-1zM14 38c1.796-.018 3.149-.472 4.01-1.362.96-.992 1.302-2.319 1.302-2.325 0 0 .25-1.313.25-3.563L20 35.007c.003.07.042.968-1.271 2.326C17.673 38.424 16.078 38.98 14 39v-1z" fill="#ba9b48"></path><path d="M26 38c-1.796-.018-3.149-.472-4.01-1.362-.96-.992-1.302-2.319-1.302-2.325 0 0-.25-1.313-.25-3.563L20 35.007c-.003.07-.042.968 1.271 2.326C22.327 38.424 23.922 38.98 26 39v-1z" fill="#ba9b48"></path></svg>