<svg viewBox="0 0 40 40" xmlns="http://www.w3.org/2000/svg"><path d="M4.5 35.5v-12H4a3.5 3.5 0 010-7h.5v-6.32L8.24 5.5h23.52l3.74 4.68v6.32h.5a3.5 3.5 0 110 7h-.5v12z" fill="#e1ebf2"></path><path d="M31.52 6L35 10.35V17h1a3 3 0 110 6h-1v12H5V23H4a3 3 0 010-6h1v-6.65L8.48 6h23M32 5H8l-4 5v6a4 4 0 000 8v12h32V24a4 4 0 100-8v-6l-4-5z" fill="#66798f"></path><path fill="#a3b7cc" d="M8.5 31.5V12.21l2.71-2.71h17.58l2.71 2.71V31.5h-23z"></path><path d="M28.59 10L31 12.41V31H9V12.41L11.41 10h17.18M29 9H11l-3 3v20h24V12l-3-3z" fill="#66798f"></path><path d="M20 27.5a6.5 6.5 0 116.5-6.5 6.51 6.51 0 01-6.5 6.5zm0-9a2.5 2.5 0 102.5 2.5 2.5 2.5 0 00-2.5-2.5z" fill="#ffeea3"></path><path d="M20 15a6 6 0 11-6 6 6 6 0 016-6m0 9a3 3 0 10-3-3 3 3 0 003 3m0-10a7 7 0 107 7 7 7 0 00-7-7zm0 9a2 2 0 112-2 2 2 0 01-2 2z" fill="#ba9b48"></path></svg>