<svg viewBox="0 0 40 40" xmlns="http://www.w3.org/2000/svg"><path d="M5.512 35.5c.269-5.559 4.982-10 10.738-10h7.5c5.756 0 10.47 4.441 10.738 10H5.512z" fill="#c2e8ff"></path><path d="M23.75 26c5.306 0 9.683 3.954 10.199 9H6.051c.516-5.046 4.893-9 10.199-9h7.5m0-1h-7.5C10.037 25 5 29.925 5 36h30c0-6.075-5.037-11-11.25-11z" fill="#7496c4"></path><path d="M20 28.5c-3.055 0-4.3-2.645-4.5-3.124v-5.467h9v5.469c-.203.497-1.425 3.122-4.5 3.122z" fill="#deb974"></path><path d="M24 20.41v4.865c-.263.59-1.393 2.725-4 2.725-2.611 0-3.741-2.141-4-2.725V20.41h8m1-1H15v6.062s1.267 3.529 5 3.529 5-3.529 5-3.529V19.41z" fill="#967a44"></path><path d="M26.429 17.643c-1.143 0-2.071-.929-2.071-2.071s.929-2.071 2.071-2.071c1.725 0 2.071.465 2.071 1.214 0 1.251-1.024 2.928-2.071 2.928zm-12.858 0c-1.047 0-2.071-1.677-2.071-2.929 0-.749.347-1.214 2.071-1.214a2.073 2.073 0 010 4.143z" fill="#deb974"></path><path d="M26.429 14C28 14 28 14.363 28 14.714c0 1.044-.896 2.429-1.571 2.429a1.572 1.572 0 010-3.143m-12.858 0c.867 0 1.571.705 1.571 1.571s-.705 1.571-1.571 1.571c-.676 0-1.571-1.384-1.571-2.429 0-.35 0-.713 1.571-.713m12.858-1a2.57 2.57 0 100 5.142c1.42 0 2.571-2.008 2.571-3.428S27.849 13 26.429 13zm-12.858 0c-1.42 0-2.571.294-2.571 1.714s1.151 3.429 2.571 3.429a2.57 2.57 0 100-5.143z" fill="#967a44"></path><path d="M20 24.5a2.25 2.25 0 01-1.56-.631l-.09-.086-.12-.034A6.518 6.518 0 0113.5 17.5V9.364a2.84 2.84 0 012.836-2.837h7.328A2.84 2.84 0 0126.5 9.364V17.5a6.518 6.518 0 01-4.73 6.249l-.12.034-.09.086A2.25 2.25 0 0120 24.5z" fill="#f5ce85"></path><path d="M23.664 7.028A2.339 2.339 0 0126 9.364V17.5a6.017 6.017 0 01-4.367 5.768l-.239.068-.18.172c-.332.317-.763.492-1.214.492s-.882-.175-1.215-.492l-.18-.172-.239-.068A6.017 6.017 0 0114 17.5V9.364a2.339 2.339 0 012.336-2.336h7.328m0-1h-7.328A3.336 3.336 0 0013 9.364V17.5c0 3.205 2.156 5.9 5.095 6.731.496.474 1.165.769 1.905.769s1.409-.295 1.905-.769A6.998 6.998 0 0027 17.5V9.364a3.336 3.336 0 00-3.336-3.336z" fill="#967a44"></path><path d="M26.5 15.5V12c0-3.484-2.218-4.425-2.312-4.463l-.343-.14-.234.287C23.589 7.713 21.283 10.5 18 10.5c-.264 0-.529-.009-.791-.017a23.106 23.106 0 00-.778-.017c-.877 0-2.931 0-2.931 2.533v2.5h-.215c-.44-.773-1.785-3.349-1.785-5.924C11.5 4.821 14.995 1.5 20 1.5c3.095 0 4.543 2.704 4.557 2.731l.119.228.253.036C26.462 4.715 28.5 5.524 28.5 10c0 2.334-1.338 4.763-1.778 5.5H26.5z" fill="#a6714e"></path><path d="M20 2c2.762 0 4.062 2.367 4.113 2.463l.237.454.507.073C26.321 5.199 28 5.958 28 10c0 1.395-.515 2.842-1 3.894V12c0-3.816-2.516-4.883-2.623-4.926l-.687-.279-.467.577C23.201 7.397 21.06 10 18 10c-.259 0-.519-.008-.775-.017a24.11 24.11 0 00-.794-.017c-.849 0-3.431 0-3.431 3.034v.801c-.486-1.124-1-2.679-1-4.225C12 5.115 15.29 2 20 2m0-1c-5.36 0-9 3.667-9 8.576C11 12.828 13 16 13 16h1v-3c0-1.791 1.085-2.034 2.431-2.034.501 0 1.038.034 1.569.034 3.573 0 6-3 6-3s2 .813 2 4v4h1s2-3.037 2-6c0-4.161-1.703-5.671-4-6 0 0-1.566-3-5-3z" fill="#7a4f34"></path><path fill="#c2e8ff" d="M13 33.571h14V36H13z"></path><path d="M25 39H15a1 1 0 01-1-1v-6a1 1 0 011-1h10a1 1 0 011 1v6a1 1 0 01-1 1z" fill="#36404d"></path><path fill="#36404d" d="M23.5 34h-7l.875-4h5.25z"></path><g><circle cx="20" cy="35" r="2.5" fill="#dcd5f2"></circle></g></svg>