<svg viewBox="0 0 40 40" xmlns="http://www.w3.org/2000/svg"><path d="M4 33.5A2.503 2.503 0 011.5 31V7c0-1.93 1.57-3.5 3.5-3.5h26.721a3.509 3.509 0 013.432 2.813l3.357 16.785L38.5 31c0 1.378-1.122 2.5-2.5 2.5H4z" fill="#f78f8f"></path><path d="M31.721 4a3.009 3.009 0 012.942 2.412L38 23.099V31c0 1.103-.897 2-2 2H4c-1.103 0-2-.897-2-2V7c0-1.654 1.346-3 3-3h26.721m0-1H5a4 4 0 00-4 4v24a3 3 0 003 3h32a3 3 0 003-3v-8L35.643 6.216A4 4 0 0031.721 3z" fill="#c74343"></path><circle cx="29.5" cy="33.5" r="4" fill="#c8d1db"></circle><path d="M29.5 30c1.93 0 3.5 1.57 3.5 3.5S31.43 37 29.5 37 26 35.43 26 33.5s1.57-3.5 3.5-3.5m0-1a4.5 4.5 0 100 9 4.5 4.5 0 000-9z" fill="#66798f"></path><circle cx="29.5" cy="33.5" r="1.5" fill="#66798f"></circle><circle cx="9.5" cy="33.5" r="4" fill="#c8d1db"></circle><path d="M9.5 30c1.93 0 3.5 1.57 3.5 3.5S11.43 37 9.5 37 6 35.43 6 33.5 7.57 30 9.5 30m0-1a4.5 4.5 0 100 9 4.5 4.5 0 000-9z" fill="#66798f"></path><circle cx="9.5" cy="33.5" r="1.5" fill="#66798f"></circle><path d="M2.5 27H1v-3h1.5a1.5 1.5 0 010 3z" fill="#c74343"></path><path d="M37.5 24h.5v3h-.5a1.5 1.5 0 010-3z" fill="#fff"></path><path fill="#c2e8ff" d="M1.5 21.5v-8h35l1.693 8z"></path><path d="M36.094 14l1.482 7H2v-7h34.094m.811-1H1v9h37.81l-1.905-9z" fill="#c74343"></path><path d="M1.5 11.5V7c0-1.93 1.57-3.5 3.5-3.5h26.69a3.503 3.503 0 013.438 2.845l.982 5.155H1.5z" fill="#c2e8ff"></path><path d="M31.69 4a3.004 3.004 0 012.947 2.439L35.506 11H2V7c0-1.654 1.346-3 3-3h26.69m0-1H5a4 4 0 00-4 4v5h35.714l-1.095-5.748A4 4 0 0031.69 3z" fill="#c74343"></path><path fill="none" stroke="#c74343" stroke-miterlimit="10" d="M9.5 11.179V3.036M18.5 11.179V3.036M27.5 11.179V3.036M9.5 21.286v-7.572M18.5 21.286v-7.572M27.5 21.286v-7.572"></path></svg>