<svg viewBox="0 0 40 40" xmlns="http://www.w3.org/2000/svg"><path d="M5.512 35.5c.269-5.559 4.982-10 10.738-10h7.5c5.756 0 10.47 4.441 10.738 10H5.512z" fill="#c2e8ff"></path><path d="M23.75 26c5.306 0 9.683 3.954 10.199 9H6.051c.516-5.046 4.893-9 10.199-9h7.5m0-1h-7.5C10.037 25 5 29.925 5 36h30c0-6.075-5.037-11-11.25-11z" fill="#7496c4"></path><path d="M20 28.5c-3.055 0-4.3-2.645-4.5-3.124v-5.467h9v5.469c-.203.497-1.425 3.122-4.5 3.122z" fill="#deb974"></path><path d="M24 20.41v4.865c-.263.59-1.393 2.725-4 2.725-2.611 0-3.741-2.141-4-2.725V20.41h8m1-1H15v6.062s1.267 3.529 5 3.529 5-3.529 5-3.529V19.41z" fill="#967a44"></path><path fill="#c2e8ff" d="M13 33.571h14V36H13z"></path><path d="M25 39H15a1 1 0 01-1-1v-6a1 1 0 011-1h10a1 1 0 011 1v6a1 1 0 01-1 1z" fill="#36404d"></path><path fill="#36404d" d="M23.5 34h-7l.875-4h5.25z"></path><circle cx="20" cy="35" r="2.5" fill="#dcd5f2"></circle><g><path d="M20 25.5a2.464 2.464 0 01-1.642-.63l-.091-.08-.116-.03A7.486 7.486 0 0112.5 17.5V8.202a3.316 3.316 0 013.312-3.313h8.375A3.317 3.317 0 0127.5 8.202V17.5a7.486 7.486 0 01-5.651 7.26l-.116.03-.091.08c-.47.412-1.038.63-1.642.63z" fill="#f5ce85"></path><path d="M24.187 5.389A2.816 2.816 0 0127 8.202V17.5a6.988 6.988 0 01-5.275 6.776l-.233.059-.181.159c-.263.231-.703.506-1.311.506s-1.048-.275-1.311-.506l-.181-.159-.233-.059A6.988 6.988 0 0113 17.5V8.202a2.816 2.816 0 012.813-2.813h8.374m0-1h-8.375A3.813 3.813 0 0012 8.202V17.5c0 3.737 2.566 6.866 6.029 7.745.528.464 1.213.755 1.971.755s1.443-.291 1.971-.755C25.434 24.366 28 21.237 28 17.5V8.202a3.813 3.813 0 00-3.813-3.813z" fill="#967a44"></path></g><g><path d="M28 25.5c-1.767 0-3.411-.911-4.27-1.484 1.045-.659 2.77-2.223 2.77-5.374v-4.724c0-2.41-2.086-4.223-2.175-4.298l-.43-.368-.312.473c-.021.031-2.135 3.156-6.651 3.78-2.358.325-3.432 2.109-3.432 3.628v1.509c0 3.193 1.708 4.735 2.757 5.38-.859.574-2.493 1.478-4.257 1.478-1.786 0-3.378-.935-4.159-1.484.881-.695 2.445-2.24 2.445-4.444 0-.928-.176-1.909-.362-2.948C9.715 15.462 9.5 14.262 9.5 13c0-8.488 5.387-11.5 10-11.5 3.802 0 5.031 2.675 5.043 2.703l.131.297H25c3.495 0 5.5 2.733 5.5 7.5 0 1.342-.268 2.836-.528 4.281-.243 1.353-.472 2.632-.472 3.719 0 1.844 1.459 2.852 2.642 3.281-.708.811-2.214 2.219-4.142 2.219z" fill="#a6714e"></path><path d="M19.5 2c3.427 0 4.543 2.315 4.586 2.405l.263.595H25c3.224 0 5 2.486 5 7 0 1.298-.264 2.769-.52 4.193C29.233 17.569 29 18.868 29 20c0 1.765 1.143 2.857 2.292 3.452C30.551 24.167 29.388 25 28 25c-1.274 0-2.497-.524-3.357-1.01C25.732 23.107 27 21.472 27 18.643v-4.724c0-2.638-2.254-4.596-2.35-4.678l-.858-.728-.626.936c-.081.121-2.03 2.971-6.303 3.561-2.654.366-3.863 2.394-3.863 4.123v1.509c0 2.863 1.254 4.489 2.342 5.361-.851.483-2.06.997-3.342.997-1.313 0-2.525-.556-3.331-1.041.942-.88 2.117-2.379 2.117-4.388 0-.972-.18-1.975-.37-3.036C10.211 15.396 10 14.218 10 13c0-8.119 5.118-11 9.5-11m0-1C14.212 1 9 4.694 9 13c0 2.454.786 4.682.786 6.571C9.786 22.327 7 24 7 24s2.254 2 5 2c2.794 0 5.211-2.056 5.211-2.056S14 22.918 14 18.643v-1.509c0-1.354.942-2.849 3-3.134 4.816-.665 7-4 7-4s2 1.711 2 3.919v4.724c0 4.194-3.214 5.302-3.214 5.302S25.225 26 28 26c3.005 0 5-3 5-3s-3-.535-3-3c0-2.19 1-5.352 1-8 0-5.761-2.766-8-6-8 0 0-1.328-3-5.5-3z" fill="#7a4f34"></path></g></svg>