<svg viewBox="0 0 40 40" xmlns="http://www.w3.org/2000/svg"><path fill="#c8d1db" d="M9.5 22.5h11v3h-11z"></path><path d="M20 23v2H10v-2h10m1-1H9v4h12v-4z" fill="#66798f"></path><path d="M3 32.5A2.503 2.503 0 01.5 30v-5.5h22V12c0-1.378 1.122-2.5 2.5-2.5h9.7c.592 0 1.13.35 1.371.891l2.955 6.648c.314.708.474 1.46.474 2.234V30c0 1.378-1.122 2.5-2.5 2.5H3z" fill="#f78f8f"></path><path d="M34.7 10c.395 0 .753.233.914.594l2.955 6.648c.286.644.431 1.327.431 2.031V30c0 1.103-.897 2-2 2H3c-1.103 0-2-.897-2-2v-5h22V12c0-1.103.897-2 2-2h9.7m0-1H25a3 3 0 00-3 3v12H0v6a3 3 0 003 3h34a3 3 0 003-3V19.273c0-.84-.176-1.67-.517-2.437l-2.955-6.648A1.999 1.999 0 0034.7 9z" fill="#c74343"></path><path d="M29.5 21.5c-.551 0-1-.449-1-1v-8c0-.551.449-1 1-1h7.064l2.462 5.539c.314.708.474 1.46.474 2.234V21.5h-10z" fill="#c2e8ff"></path><path d="M36.239 12l2.33 5.242c.286.644.431 1.327.431 2.031V21h-9.5a.5.5 0 01-.5-.5v-8a.5.5 0 01.5-.5h6.739m.65-1H29.5a1.5 1.5 0 00-1.5 1.5v8a1.5 1.5 0 001.5 1.5H40v-2.727c0-.84-.176-1.67-.517-2.437L36.889 11z" fill="#c74343"></path><path fill="#c8d1db" d="M11.286 22.5L1.5 5.864V3.5h2.26l15.199 19z"></path><path d="M3.519 4l14.4 18h-6.347L2 5.728V4h1.519M4 3H1v3l10 17h9L4 3z" fill="#66798f"></path><path fill="none" stroke="#66798f" stroke-miterlimit="10" d="M1.5 4v11.5"></path><path d="M38.5 24h.5v3h-.5a1.5 1.5 0 010-3z" fill="#fff"></path><path d="M1.5 29H0v-3h1.5a1.5 1.5 0 010 3z" fill="#c74343"></path><circle cx="31.5" cy="32.5" r="4" fill="#c8d1db"></circle><path d="M31.5 29c1.93 0 3.5 1.57 3.5 3.5S33.43 36 31.5 36 28 34.43 28 32.5s1.57-3.5 3.5-3.5m0-1a4.5 4.5 0 100 9 4.5 4.5 0 000-9z" fill="#66798f"></path><g><circle cx="31.5" cy="32.5" r="1.5" fill="#66798f"></circle></g><g><circle cx="10.5" cy="32.5" r="4" fill="#c8d1db"></circle><path d="M10.5 29c1.93 0 3.5 1.57 3.5 3.5S12.43 36 10.5 36 7 34.43 7 32.5 8.57 29 10.5 29m0-1a4.5 4.5 0 100 9 4.5 4.5 0 000-9z" fill="#66798f"></path></g><g><circle cx="10.5" cy="32.5" r="1.5" fill="#66798f"></circle></g><path d="M1 15.5h1.5a2 2 0 012 2v1a2 2 0 01-2 2h0a2 2 0 01-2-2V18" fill="none" stroke="#66798f" stroke-miterlimit="10"></path></svg>