<svg viewBox="0 0 40 40" xmlns="http://www.w3.org/2000/svg"><path d="M4.534 19.5l.97-14.633A2.501 2.501 0 018 2.5h8.594c1.181 0 2.184.805 2.44 1.958L22.377 19.5H4.534z" fill="#c2e8ff"></path><path d="M16.593 3c.945 0 1.747.644 1.952 1.566L21.753 19H5.068l.935-14.111A2.001 2.001 0 018 3h8.593m0-1H8a3 3 0 00-2.995 2.834L4 20h19L19.522 4.349A3 3 0 0016.593 2z" fill="#5e9c76"></path><path d="M4 30.5A2.503 2.503 0 011.5 28v-6.433a11.992 11.992 0 018.488-4.046l.142-.005.022-.015h28.296l-.956 9.736A3.516 3.516 0 0134 30.5H4z" fill="#bae0bd"></path><path d="M37.897 18l-.905 9.214A3.01 3.01 0 0134 30H4c-1.103 0-2-.897-2-2v-6.242a11.495 11.495 0 018.008-3.738l.196-.02h27.693M39 17H10l-.032.021A12.433 12.433 0 001 21.38V28a3 3 0 003 3h30a4 4 0 003.99-3.715L39 17z" fill="#5e9c76"></path><circle cx="31.5" cy="32.5" r="6" fill="#c8d1db"></circle><path d="M31.5 27c3.033 0 5.5 2.467 5.5 5.5S34.533 38 31.5 38 26 35.533 26 32.5s2.467-5.5 5.5-5.5m0-1a6.5 6.5 0 100 13 6.5 6.5 0 000-13z" fill="#66798f"></path><path d="M31.5 26h-.006-.029-.007-.01-.005H31.42 31.389h-.017-.024H31.326h-.006-.042-.016H31.202 31.179 31.16 31.147 31.046h-.035H30.964 30.946l-.006.001H30.879 30.86 30.832l-.005.001H30.804 30.795h-.002l-.006.001H30.756l-.007.001h-.01H30.721l-.007.001h-.005-.019-.006-.002l-.005.001h-.016l-.004.001h-.007a.036.036 0 00-.011.002h-.008l-.004.001H30.606l-.005.001h-.011-.01-.007l-.008.001h-.003-.006l-.004.001h-.002l-.003.001h-.002l-.003.001h-.001l-.012.002H30.51l-.004.001h-.002l-.003.001h-.002l-.007.001h-.001l-.004.001h-.002l-.003.001h-.006l-.004.001h-.002l-.003.001h-.001l-.013.002h-.002l-.003.001h-.002l-.003.001h-.002l-.003.001h-.002l-.004.001h-.002l-.013.002h-.001l-.004.001h-.001l-.004.001h-.001l-.004.001H30.4l-.003.001h-.001a.059.059 0 01-.013.002h-.001l-.004.001h-.002l-.004.001h-.002l-.004.001h-.002l-.003.001h-.002l-.003.001h-.001l-.013.002h-.002l-.003.001h-.001l-.004.001h-.002l-.003.001h-.002l-.004.001h-.002l-.012.002h-.002l-.003.001h-.001l-.004.001h-.002l-.003.001h-.002l-.003.001h-.002l-.004.001-.009.002h-.001l-.003.001h-.002l-.003.001h-.001l-.004.001h-.002l-.003.001h-.002l-.003.001h-.001l-.009.002h-.001l-.004.001h-.002l-.003.001h-.002l-.003.001h-.002l-.004.001h-.002l-.003.001h-.002l-.006.001h-.002l-.003.001h-.002l-.004.001h-.002l-.003.001h-.002l-.004.001h-.002l-.004.001h-.001l-.012.003h-.002l-.003.001h-.002l-.003.001h-.002l-.003.001h-.002l-.003.001h-.002l-.012.003h-.001l-.004.001h-.002l-.003.001h-.002l-.003.001h-.002l-.004.001h-.001l-.004.001h-.001l-.013.003h-.001l-.003.001h-.001l-.004.001h-.001l-.004.001h-.002l-.004.001h-.001l-.013.003h-.002l-.003.001h-.002l-.003.001h-.002l-.003.001h-.002l-.003.001h-.001l-.013.003h-.001l-.004.001h-.001l-.004.001h-.001l-.004.001h-.001l-.004.001H30l-.013.003h-.001l-.004.001h-.002l-.003.001h-.001l-.004.001-.002.001-.003.001-.002.001-.003.001h-.001l-.008.002-.003.001h-.001l-.004.001-.002.001-.003.001-.002.001-.003.001-.002.001-.003.001h-.002a.104.104 0 00-.012.003h-.001l-.003.001-.002.001-.003.001-.002.001-.003.001-.002.001-.003.001h-.002l-.004.001h-.001l-.007.002h-.002l-.003.001-.002.001-.003.001-.002.001-.003.001-.002.001-.003.001-.002.001-.003.001h-.001l-.007.002h-.001l-.003.001-.002.001-.003.001-.002.001-.003.001-.002.001-.003.001h-.002l-.004.001h-.001l-.012.003-.002.001-.003.001h-.001l-.004.001-.002.001-.003.001-.002.001-.003.001h-.002l-.012.003h-.001l-.004.001h-.002l-.004.001-.002.001-.003.001-.002.001-.003.001-.002.001-.003.001h-.001l-.007.002h-.002l-.003.001-.002.001-.003.001-.002.001-.003.001-.002.001-.003.001h-.001a.01.01 0 00-.003.001l-.003.001-.007.002h-.001l-.003.001-.002.001-.002.001a.004.004 0 00-.003.001l-.003.001-.002.001-.003.001-.002.001-.003.001-.002.001-.003.001-.002.001-.006.002-.002.001-.003.001h-.002l-.003.001-.003.001-.003.001-.002.001-.003.001-.002.001-.003.001h-.001l-.006.002h-.001l-.003.001-.003.001-.003.001-.002.001-.003.001-.003.001-.003.001-.003.001-.002.001-.003.001-.002.001-.005.001-.002.001-.003.001-.002.001-.003.001-.002.001-.003.001-.002.001-.004.001-.002.001-.004.001-.006.002h-.001l-.004.001h-.001l-.004.001-.002.001-.003.001-.002.001-.003.001h-.001l-.005.002h-.001l-.005.002-.005.002h-.001l-.004.001-.002.001-.004.001-.002.001-.003.001-.002.001-.004.001h-.001l-.011.003h-.001l-.004.001-.002.001-.004.001-.002.001-.004.001-.002.001-.004.001h-.001l-.005.002-.006.002h-.001l-.004.001-.002.001-.004.001h-.001l-.004.001-.001.001-.004.001h-.001l-.005.002a.049.049 0 00-.011.004l-.005.002h-.001l-.004.001h-.001l-.005.002-.005.002a.049.049 0 00-.011.004l-.005.002h-.001l-.004.002h-.001l-.004.001h-.001l-.005.002a.18.18 0 00-.021.008h-.001l-.005.002h-.001l-.005.002-.016.006-.005.002-.005.002h-.001l-.005.002-.021.008-.005.002-.005.002a6.5 6.5 0 00-.652.281l.892 1.79A5.032 5.032 0 0131.5 28v-2zm-5.06 2.42a6.486 6.486 0 00-1.289 2.68l1.953.429a4.51 4.51 0 01.891-1.852L26.44 28.42zm.661 5.036l-1.955.422c.044.206.099.409.162.607l.001.005.008.023.001.005.008.023.001.004v.001a.008.008 0 01.001.004v.001a.008.008 0 01.001.004l.005.013v.001l.001.004.001.002.001.003.001.002.001.003v.001a.084.084 0 01.004.012v.001l.001.003v.001a.008.008 0 01.001.004v.001a.008.008 0 01.001.004l.001.002.001.003.001.002.002.005.001.002.001.003.001.002a.008.008 0 01.001.004l.001.002.001.003.001.003.001.002.001.003.001.003.002.005.001.002.001.003.001.002.001.003.001.002.001.003v.001a.008.008 0 01.001.004v.001l.002.006.002.005.001.002.001.004.001.002.001.003.001.002.001.004v.001l.002.005.002.005.002.005v.001l.002.004v.001l.002.005v.001l.006.016v.001l.002.005v.001l.002.004v.001l.002.005v.001l.004.011.002.005v.001l.002.005v.001l.002.005a.195.195 0 01.008.022l.002.005c.221.579.523 1.118.892 1.604l.003.005.017.023.003.004a.121.121 0 01.01.014l.003.004v.001l.003.004a.018.018 0 00.004.005l.011.014.003.004v.001l.003.004.011.013.003.004.001.001.003.004.001.001.003.004.007.009.003.004.001.001.003.004.001.001.003.004a.008.008 0 00.004.004l1.561-1.251a4.577 4.577 0 01-.878-1.854zm2.382 3.068l-.898 1.787c.389.195.799.353 1.228.468l.005.001.029.008.005.001.005.001.019.005.004.001h.001l.004.001h.001l.004.001h.001l.004.001a.074.074 0 01.014.004l.004.001h.001l.004.001h.001l.004.001h.001l.004.001h.001l.018.005h.001l.004.001h.002l.004.001h.001l.004.001h.001l.017.004h.002l.003.001h.002l.003.001h.002l.003.001h.002l.004.001h.001l.012.003h.002l.003.001.002.001.003.001.003.001.003.001.003.001.003.001.003.001.003.001.003.001.004.001.003.001.003.001h.002l.004.001.003.001h.002l.004.001.002.001.003.001h.002l.005.001h.002l.004.001h.002l.003.001.002.001.003.001.002.001.003.001h.002l.004.001h.001l.005.001.005.001h.001l.004.001h.002l.004.001h.002l.004.001h.001l.004.001h.002l.005.001.006.001.005.001h.001l.004.001h.001l.004.001h.001l.005.001h.001l.017.003h.001l.005.001h.001l.005.001h.001l.005.001h.001l.006.001a.05.05 0 00.012.002l.005.001h.001l.005.001h.001l.005.001h.001l.005.001.017.003.005.001h.001l.005.001h.001l.006.001.023.004.005.001c.376.069.764.106 1.16.107l.007-2a4.381 4.381 0 01-2.002-.471zm5.511-1.188a4.534 4.534 0 01-1.63 1.261l.83 1.82c.092-.042.184-.087.274-.133l.026-.013.004-.002.022-.011.004-.002.021-.011h.001l.004-.002.021-.011h.001l.004-.002.004-.002h.001l.012-.006h.001l.003-.002.002-.001.003-.002.001-.001a.008.008 0 01.004-.002l.001-.001.011-.006.004-.002.001-.001.003-.002.002-.001.003-.002.002-.001.011-.006.001-.001.003-.002.002-.001.003-.002.002-.001.003-.002h.001l.011-.006.001-.001.003-.002.002-.001.003-.002.002-.001.003-.002.002-.001.011-.006h.001l.003-.002.002-.001.003-.002.002-.001.002-.001.002-.001.004-.002.001-.001.005-.003.002-.001.002-.001.003-.002.002-.001.002-.001.003-.002.002-.001.002-.001.002-.001.005-.003.002-.001.002-.001.002-.001.002-.001.002-.001.003-.002.002-.001.002-.001.003-.002.004-.002.002-.001.003-.001.001-.001.003-.002.001-.001.003-.002.002-.001.001-.001.005-.003.001-.001.004-.002.002-.001.003-.002.002-.001.003-.002.002-.001.003-.002.002-.001.003-.002.003-.002.003-.002.002-.001.003-.002.001-.001.003-.002.002-.001.003-.002.002-.001.003-.002.002-.001a.008.008 0 01.004-.002l.002-.001.003-.002.002-.001.003-.002.001-.001.004-.002.001-.001.009-.006.001-.001.003-.002.002-.001.003-.002.001-.001.003-.002.001-.001.005-.003.005-.003.001-.001.004-.002.001-.001.003-.002.001-.001.003-.002.001-.001.009-.006h.001l.004-.003.001-.001.004-.002.001-.001.004-.002.001-.001a.088.088 0 01.01-.006l.004-.003.001-.001a.008.008 0 01.004-.002l.001-.001.004-.003.014-.009.001-.001.004-.003h.001l.004-.003.015-.009.005-.003.005-.003.015-.009.004-.003.005-.003a.127.127 0 00.019-.013l.019-.013a6.536 6.536 0 001.467-1.329l-1.545-1.262zm2.864-4.192l-1.956.415a4.547 4.547 0 01-.042 2.062l1.938.496c.032-.123.06-.248.084-.374l.005-.025.001-.006.003-.018v-.001l.001-.005v-.001l.001-.006.002-.012v-.001l.001-.005v-.001l.001-.005.002-.012v-.001l.001-.004v-.002l.001-.004v-.001l.001-.006.001-.006v-.002l.001-.004v-.002l.001-.004v-.002l.001-.005v-.001l.001-.005v-.002l.001-.004v-.002l.001-.004v-.002l.001-.004v-.002l.001-.005v-.001l.001-.004v-.003l.001-.003v-.002l.001-.003.001-.004.001-.004v-.003-.003-.003-.003-.003-.003l.001-.005v-.003-.003-.002l.001-.003v-.002l.001-.004v-.002l.001-.005v-.003-.003-.003-.003-.002l.001-.004v-.002l.002-.012v-.002l.001-.004v-.001l.001-.004v-.002l.002-.013v-.001l.001-.004v-.002l.001-.004v-.001l.002-.014v-.001l.001-.004v-.002l.001-.004v-.001l.002-.014.001-.004v-.001l.001-.004v-.001l.002-.014.001-.004v-.001l.001-.004v-.001l.003-.02v-.001l.001-.004v-.001a.123.123 0 00.002-.019v-.001l.001-.005.002-.02.001-.005v-.001a.123.123 0 00.002-.019v-.001l.001-.004v-.001l.001-.004.002-.015.001-.005v-.001l.001-.005.002-.014v-.001-.005-.005l.001-.014v-.001-.004-.001-.005l.001-.014v-.001-.005-.004-.001l.001-.014v-.004-.001-.004-.001l.001-.015v-.006-.005l.001-.015v-.006-.004-.001-.005l.001-.014v-.001-.004-.002-.004l.001-.015v-.001-.005-.004l.001-.01v-.004-.002-.004-.001-.005-.001l.001-.014v-.002-.004-.002-.006l.001-.013v-.001-.004-.002-.005l.001-.013v-.002-.004-.002-.004-.001l.001-.013v-.002-.004-.002-.004-.001-.004-.001-.008-.002-.004-.002-.003-.003-.003-.002-.007-.003-.003-.003-.003-.003-.003-.003-.005-.003-.003-.003-.003-.003-.003-.004-.004-.004-.003-.003-.003-.006-.004-.004-.004-.003-.003-.003-.003-.002-.006V32.735v-.003-.002-.004-.003-.004-.002V32.708v-.003-.002-.004-.002-.005-.001-.006-.002-.004-.002-.004-.001-.007-.006-.002-.004-.002-.004-.002-.005-.001-.006-.002-.004-.002-.004-.002-.005-.001-.006-.001-.005-.002-.005-.002-.006-.006-.002-.005-.002-.004-.002-.004-.002-.007-.005-.002-.004-.002-.004-.002-.007-.005-.002-.004-.002-.004-.002-.006-.005-.005-.002-.003-.002-.003-.002-.003-.002-.003-.002-.004-.002-.003-.003-.003-.003-.002-.004-.003-.002-.004-.003-.002-.004-.003-.003-.003-.003-.002-.004-.002-.003-.002-.003-.002-.004-.002-.003-.002-.003-.002-.003-.002-.003-.002-.003-.002-.004-.002-.004-.02-.001-.003-.002-.006-.004-.002-.004-.002-.003-.001-.006-.004-.002-.003-.002-.003-.002-.004-.002-.003-.002-.003-.001-.006-.003-.002-.004-.002-.006-.006-.004-.001-.005-.001-.005-.005-.001l-.003-.062v-.001-.005-.005-.005-.006-.005-.005-.005-.006-.005-.005l-.001-.01a6.387 6.387 0 00-.098-.799l-.001-.004v-.001l-.001-.004v-.001l-.001-.004v-.002l-.001-.003v-.002l-.001-.003v-.002l-.001-.003v-.002l-.001-.003v-.002l-.001-.004v-.002l-.001-.003v-.002-.003-.003-.002l-.001-.003v-.002l-.001-.004v-.001l-.001-.004v-.001l-.001-.004v-.002l-.001-.003v-.002l-.001-.003v-.001l-.001-.005v-.001l-.001-.005-.001-.005c.014-.01.01-.031.005-.051zm-3.423-4.445l-.904 1.784a4.543 4.543 0 011.577 1.328l1.602-1.197a6.496 6.496 0 00-1.256-1.272l-.004-.003a.685.685 0 00-.043-.032l-.004-.003a.143.143 0 00-.015-.011l-.004-.003-.004-.003h-.001a.143.143 0 00-.015-.011l-.004-.003h-.001l-.003-.002-.001-.001-.015-.011-.001-.001-.003-.002-.001-.001-.003-.002-.001-.001-.003-.002h-.001l-.011-.008-.003-.002h-.001l-.003-.002-.001-.001-.003-.003h-.001l-.01-.007-.002-.001-.002-.001-.002-.002-.003-.002-.001-.001-.003-.002-.001-.001-.01-.007-.002-.001a.002.002 0 01-.002-.002l-.002-.001-.002-.001-.003-.002-.002-.002-.002-.001-.003-.002-.006-.005-.002-.001-.003-.002-.001-.001-.002-.001-.002-.001-.003-.002-.002-.001-.002-.002-.004-.003a.002.002 0 01-.002-.002l-.002-.002a.002.002 0 01-.002-.002l-.002-.002-.002-.002-.002-.002-.002-.001-.003-.002-.002-.001-.004-.003-.002-.002-.003-.002-.002-.001-.003-.002-.002-.001-.003-.002-.002-.001-.003-.002-.002-.001-.004-.003-.001-.001-.003-.002-.002-.001-.003-.002-.001-.001-.003-.002-.002-.001-.003-.002-.001-.001-.005-.003-.001-.001-.003-.002-.001-.001-.003-.002-.002-.001-.003-.002-.001-.001-.004-.003h-.001l-.005-.003-.004-.003-.002-.001-.003-.002-.001-.001-.003-.002-.001-.001-.004-.003h-.001l-.005-.003h-.001l-.004-.003.001-.005-.003-.002-.001-.001-.003-.002-.001-.001-.003-.002-.001-.001-.005-.003h-.001l-.004-.003-.001-.001-.003-.002-.001-.001-.004-.002-.001-.001-.004-.003-.005-.003-.005-.003h-.001a.008.008 0 00-.004-.002l-.001-.001-.004-.002-.001-.001-.004-.003a.088.088 0 00-.01-.006l-.001-.001-.004-.003-.004-.003-.015-.01-.004-.003H35l-.004-.003h-.001l-.015-.009-.005-.003h-.001l-.004-.003h-.001l-.015-.009-.005-.003h-.001l-.004-.003-.015-.009-.005-.003-.005-.003-.02-.012-.005-.003-.045-.027-.005-.003a5 5 0 00-.409-.229zM31.5 26v2l.171.003.074-1.999H31.722a10.334 10.334 0 00-.176-.004h-.015-.007-.008-.016z" fill="#66798f"></path><circle cx="31.5" cy="32.5" r="2" fill="#f5ce85"></circle><path d="M31.5 31c.827 0 1.5.673 1.5 1.5s-.673 1.5-1.5 1.5-1.5-.673-1.5-1.5.673-1.5 1.5-1.5m0-1a2.5 2.5 0 100 5 2.5 2.5 0 000-5z" fill="#967a44"></path><path d="M10.5 38.5c-4.963 0-9-4.038-9-9s4.037-9 9-9 9 4.038 9 9-4.037 9-9 9z" fill="#c8d1db"></path><path d="M10.5 21c4.687 0 8.5 3.813 8.5 8.5S15.187 38 10.5 38 2 34.187 2 29.5 5.813 21 10.5 21m0-1C5.253 20 1 24.253 1 29.5S5.253 39 10.5 39s9.5-4.253 9.5-9.5-4.253-9.5-9.5-9.5z" fill="#66798f"></path><path d="M22.5 29.5c0-6.627-5.373-12-12-12M22.49 30c.007-.166.01-.332.01-.5 0-6.627-5.373-12-12-12a11.985 11.985 0 00-9.808 5.085" fill="none" stroke="#5e9c76" stroke-miterlimit="10"></path><g><path d="M10.5 20h-.032-.007H10.446 10.4h-.038-.008H10.34h-.016-.067H10.218h-.03H10.173h-.001l-.015.001h-.007-.022-.008-.001l-.015.001h-.008-.008l-.014.001h-.037-.001l-.015.001H10.006h-.001l-.014.001h-.007-.001l-.022.001h-.008l-.015.001h-.007-.008l-.015.001h-.016l-.015.001h-.008l-.022.001h-.001l-.022.002-.007.001-.022.002-.03.002-.052.004-.03.003a9.596 9.596 0 00-1.209.182l-.029.006-.028.006h-.001l-.021.005-.007.001h-.001l-.014.003-.006.001h-.001l-.006.001h-.001l-.013.003h-.001l-.005.001h-.002l-.006.001h-.001l-.007.002-.006.001h-.002l-.005.001h-.002l-.006.001h-.001l-.007.002h-.001l-.005.001h-.001l-.006.001H8.28l-.007.002-.007.002h-.002l-.005.001-.002.001-.005.001h-.001l-.006.002-.003.001-.004.001-.003.001-.003.001-.003.001-.003.001-.004.001-.005.001-.004.001-.003.001-.004.001h-.002l-.005.001-.002.001-.008.002h-.001l-.004.001h-.001l-.005.001h-.001l-.016.004H8.16l-.005.001h-.001l-.005.001h-.001c-.011.021-.018.023-.025.025l-.022.006a8.51 8.51 0 00-.551.162l.621 1.901A7.471 7.471 0 0110.5 22v-2zm-5.114 1.492a9.548 9.548 0 00-2.233 1.985l1.546 1.269a7.54 7.54 0 011.765-1.569l-1.078-1.685zm-3.507 4.012c-.038.081-.074.163-.11.245v.001l-.008.019v.001a.014.014 0 00-.002.006v.001l-.003.006-.003.007-.003.006v.001a.017.017 0 00-.002.005l-.001.002a.017.017 0 00-.002.005l-.003.007a.014.014 0 00-.002.006l-.001.001-.002.005-.001.002a.014.014 0 00-.002.006v.001l-.003.007-.003.006-.001.002-.002.004-.001.001a.017.017 0 00-.002.005v.001l-.003.006-.001.001-.002.004-.001.002a.008.008 0 01-.002.004l-.001.002-.002.004-.001.001-.003.006-.001.003-.001.004-.001.003-.001.003-.001.003-.001.003-.001.003a.014.014 0 00-.002.006l-.001.002-.002.004-.001.003-.001.003-.001.003-.001.003-.001.003a.014.014 0 00-.002.006l-.001.003-.001.003-.001.003-.001.002-.002.004-.001.001-.006.014v.001l-.002.005-.001.001-.002.006-.001.002-.006.014v.001l-.002.004-.001.002-.002.004-.006.015v.001l-.002.005v.001l-.002.005-.006.015v.001l-.002.005v.001l-.008.02v.001l-.002.005v.001l-.002.005-.006.015v.001l-.002.005-.008.021-.002.005-.01.027a9.495 9.495 0 00-.533 2.203l1.986.234a7.441 7.441 0 01.641-2.266l-1.814-.84zm1.188 5.003l-1.982.265a9.466 9.466 0 00.859 2.861l1.8-.871a7.441 7.441 0 01-.677-2.255zm1.709 3.839L3.25 35.639c.086.101.174.201.264.298l.02.021.004.004.016.017.004.004.001.001.003.004.001.001.015.016.001.001.003.004.001.001.004.004.011.012.001.001.003.003.001.001.003.003.001.001.003.003.001.001.007.007.001.001.003.003.001.001.003.003.002.002.003.003.002.002.003.003.001.001a.027.027 0 01.005.006l.001.001.003.003.002.002.002.002.002.002.002.002.002.002.005.005.001.001.003.003.002.002.002.002.002.002.002.002.003.003.002.002.003.003.003.003.003.003.002.002.003.003.002.002.002.003.002.002.002.002.002.002.004.004.002.002.003.003.002.002.003.003.002.002.003.003.002.002.004.004.005.005.002.002.003.003.002.002.003.003.002.002.003.004.001.001.005.005a.018.018 0 01.004.005l.001.001.004.004.002.002.003.003.001.001.004.004.005.005.001.001.004.004.002.002.003.003.002.002.004.004.001.001.005.005.004.004.001.001.004.003.001.001.004.004.001.001.004.004.005.005.001.001.004.004.001.001.003.003.001.001.004.004.001.001.005.005.005.005.001.001.004.004.001.001.004.004.001.001.004.004.001.001.005.005.005.005.001.001.004.004.001.001.004.004.001.001.01.01.004.004.001.002.004.003.001.001.004.004.001.001.01.009.001.001.004.004.001.001.004.003.001.001.004.004.005.005.004.004.002.001.004.003.001.001.004.004h.001l.01.01.001.001.004.004.001.001.004.004.001.001.004.004.001.001.005.005a.018.018 0 00.005.004l.001.001.004.004.001.001.004.004.001.001.015.014.001.001.004.004.001.001.004.004.001.001.01.009.001.001.004.004.001.001.004.004.001.001.004.004.005.005.005.004.001.001.004.003.002.001.004.003.001.001a.018.018 0 00.005.004l.005.005.001.001.004.004.001.001.004.003.001.001.004.003.001.001a.018.018 0 00.005.004l.001.001.004.004.002.002.003.003.002.001.003.003.002.001.005.004.005.005.001.001.004.004.001.001.003.003.002.002.004.003.001.001.005.004.005.004.001.001.004.003.001.001.004.003.001.001.004.003.001.001a.018.018 0 00.005.004l.001.001.004.004.002.002.003.003.002.002.003.003.002.002.004.003.001.001.005.004.002.002.003.003.001.001a.014.014 0 01.004.003l.002.002.003.002.001.001.005.005.001.001.004.004.002.002.003.003.002.002.003.003.002.002.003.003.002.001.005.004.002.002.003.003.002.002.003.003.002.002.003.003.002.002.004.004.002.001.004.003.003.002.002.002.003.003.003.002.002.002.003.003.002.002.005.004.002.001.003.003.002.002.003.003a.003.003 0 00.002.001.014.014 0 01.004.003l.001.001a.014.014 0 01.004.003l.004.003.003.003.002.002.003.002.002.002.003.002a.003.003 0 00.002.001l.003.003.003.002.001.001.007.006.002.002.003.003.002.002.003.003.002.002.003.003.001.001a.052.052 0 01.011.01l.002.001.003.003.002.001.003.003.001.001.004.003.009.007.003.003.001.001.003.003.001.001.003.003.001.001.012.01.004.003.001.001.004.003.001.001.004.003h.001l.013.011.004.003.001.001.004.003.013.011.004.003.001.001a.014.014 0 01.004.003h.001l.022.018.001.001.004.003.001.001.018.014.004.004.023.018a.522.522 0 01.027.022 9.569 9.569 0 00.747.538l.005.003.019.012h.001l.004.003h.001l.019.012.004.003h.001l.005.003.001.001.014.009.004.003.001.001a.014.014 0 01.004.003l.002.001.004.002.002.001.012.008.002.001.003.002.001.001a.014.014 0 01.004.003l.002.001.003.002.002.001.007.004.001.001.003.002.003.002.003.002.003.002.003.002.003.002.002.001a.022.022 0 01.005.003l.001.001.005.003.002.001.004.002.002.001.004.002.002.001h.001l1.051-1.701a7.45 7.45 0 01-1.791-1.539zm3.507 2.322l-.59 1.911a9.478 9.478 0 002.196.402l.015.001.023.001h.007l.015.001.022.001h.007l.015.001H10.002l.014.001h.008l.015.001H10.131l.014.001H10.525l.075-.001h.047l-.031-2L10.5 37a7.527 7.527 0 01-2.217-.332zm6.353-.91a7.448 7.448 0 01-2.144.975l.53 1.929a9.416 9.416 0 001.417-.514l.053-.024a.652.652 0 00.026-.012l.005-.002.021-.01.005-.002.026-.012h.001l.021-.01.005-.002h.001l.005-.002.001-.001a.186.186 0 00.02-.01h.001l.005-.002h.001a.186.186 0 00.02-.01l.001-.001.004-.002.001-.001.004-.002h.001l.015-.007h.001l.004-.002.001-.001.004-.002.001-.001.02-.01.001-.001.004-.002.001-.001.019-.01.001-.001.004-.002.001-.001.005-.003h.001l.014-.007.001-.001.004-.002.002-.001.004-.002.001-.001.004-.002.009-.005.002-.001.004-.002.001-.001.004-.002.002-.001.004-.002.002-.001.008-.004.002-.001.004-.002.002-.001.004-.002.002-.001.004-.002.002-.001.013-.007.002-.001.004-.002.002-.001.003-.002.003-.001.012-.006.002-.001.004-.002.001-.001.004-.002.002-.001.004-.002.001-.001.008-.004.001-.001.004-.002.002-.001.004-.002.002-.001.004-.002.001-.001.013-.007.002-.001.003-.002.002-.001.003-.002.003-.001.012-.006.002-.001.004-.002.003-.001.003-.002.002-.001.004-.002h.001a.03.03 0 01.008-.004l.002-.001.003-.002.002-.001.003-.002.002-.001.004-.002.001-.001.008-.004.001-.001.004-.002.002-.001.004-.002.002-.001.004-.002.001-.001.013-.007.002-.001.003-.002.002-.001.004-.002.002-.001.004-.002.008-.004.003-.001c.002 0 .002-.001.003-.002l.002-.001.003-.002.003-.001.003-.002.003-.002.005-.003.003-.002.003-.002.003-.002.003-.002.003-.002.003-.002.003-.002.004-.002.004-.002.003-.002.003-.001.003-.002.002-.001.004-.002.001-.001.004-.002.002-.001.006-.003.003-.002.003-.002.003-.001.003-.002.003-.001.003-.002.003-.002.005-.003.002-.001.003-.002.002-.001.003-.002.002-.001.003-.002.003-.002.005-.003.003-.002.003-.002.002-.001.003-.002.003-.001.003-.002.002-.001a.178.178 0 01.013-.007l.001-.001.004-.002.002-.001.004-.002.001-.001.004-.002.008-.005.001-.001.004-.002.002-.001.003-.002.003-.001.003-.002.003-.002.007-.004.001-.001.004-.002.002-.001.003-.002.002-.001.003-.002.002-.001.012-.007.002-.001.003-.002.002-.001.004-.002.002-.001.013-.007.001-.001.004-.002.002-.001.004-.002.002-.001.004-.002.002-.001.007-.004.001-.001.004-.002.002-.001.004-.002.002-.001.004-.002.001-.001.013-.008.002-.001.004-.002.001-.001.004-.003.001-.001.013-.008h.001l.004-.003.001-.001a.008.008 0 01.004-.002l.001-.001.014-.008.004-.003.001-.001a.008.008 0 01.004-.002l.001-.001.018-.011.001-.001.004-.003.001-.001.004-.003.014-.009h.001l.004-.003.001-.001.004-.003h.001l.019-.012.005-.003.019-.012h.001l.004-.003h.001l.024-.015a9.32 9.32 0 00.165-.107l-1.105-1.664zm2.72-3.213a7.46 7.46 0 01-1.287 1.977l1.485 1.34a9.512 9.512 0 001.629-2.504l-1.827-.813zm2.538-4.467l-1.978.297a7.527 7.527 0 01-.018 2.364l1.973.327a9.31 9.31 0 00.116-1.077v-.007l.001-.03v-.008l.001-.023v-.008l.001-.022v-.008-.007l.001-.015v-.007-.001-.007l.001-.022v-.001-.006-.001-.007-.015-.001-.008-.006-.001-.015-.001-.006-.001-.006-.002-.006-.001-.007-.001-.006-.002-.005-.001-.008-.014-.002-.005-.002-.005-.001-.008-.007-.001-.006-.002-.005-.002-.008-.007-.001-.006-.003-.004-.003-.005-.002-.014-.002-.005-.003-.005-.002-.007-.007-.001-.006-.003-.005-.002-.005-.002-.007-.002-.005-.002-.005-.003-.005-.002-.007-.007-.002-.005-.002-.007-.001-.006-.002-.005-.002-.008-.005-.002-.005-.002V29.43v-.005-.002-.006-.001V29.407v-.005-.002-.014-.001-.006-.001-.008-.007-.001-.007-.008-.006-.001-.007-.008-.006-.001-.015-.006-.001-.015-.006-.001-.015-.001-.006-.016-.015-.007-.001-.015-.001-.007-.015l-.003-.069a8.647 8.647 0 00-.095-1.028zm-2.243-4.832l-1.505 1.317c.523.598.946 1.27 1.256 1.997l1.84-.785a9.046 9.046 0 00-.21-.458.315.315 0 00-.013-.026v-.001l-.003-.006-.003-.006-.006-.013-.003-.006v-.001l-.003-.006-.009-.019-.001-.001-.003-.005-.001-.001-.003-.006-.006-.012-.001-.001-.002-.005-.001-.002-.002-.005-.001-.001-.003-.006-.003-.006-.001-.001-.002-.004-.001-.002-.002-.004-.001-.002-.002-.004-.001-.001a.016.016 0 00-.003-.006l-.001-.001-.002-.004-.001-.002-.002-.004-.001-.002-.002-.004-.001-.002a.008.008 0 01-.002-.004l-.001-.002-.003-.006-.001-.003-.002-.003-.001-.003-.002-.003-.001-.003-.002-.003-.001-.003-.002-.004-.002-.004-.002-.003-.001-.003-.001-.003-.002-.003-.001-.003-.002-.003-.001-.002-.004-.008v-.001l-.002-.004-.001-.002-.002-.003-.001-.002-.002-.003-.001-.002-.007-.013-.001-.001-.002-.004-.001-.002-.002-.004-.001-.001-.002-.004-.008-.014-.001-.001-.002-.004-.001-.001a.008.008 0 01-.002-.004v-.001l-.011-.02-.003-.005v-.001l-.011-.02-.003-.005v-.001l-.003-.005-.011-.02v-.001l-.003-.005-.014-.025v-.001l-.017-.03-.029-.051a9.5 9.5 0 00-.811-1.201l-.058-.073a12.32 12.32 0 00-.244-.289zm-4.489-2.868l-.559 1.92c.758.221 1.475.56 2.129 1.008l1.13-1.65a9 9 0 00-.332-.217l-.006-.004h-.001l-.006-.004a.075.075 0 00-.012-.007l-.005-.003-.001-.001-.005-.003-.001-.001a.075.075 0 00-.012-.007l-.005-.003-.002-.001-.004-.003-.001-.001-.005-.003-.001-.001-.006-.004h-.001l-.005-.003-.002-.001a.008.008 0 00-.004-.002l-.002-.001-.003-.002-.002-.001-.005-.003-.001-.001-.004-.003-.003-.002-.003-.002-.002-.001-.004-.002-.003-.002-.003-.002a.008.008 0 00-.004-.002l-.003-.002-.003-.002-.003-.002-.003-.002-.003-.002-.003-.002-.003-.002-.003-.002-.003-.002-.005-.003-.003-.002-.003-.002-.002-.001-.003-.002-.002-.001-.003-.002-.002-.001-.007-.004-.002-.001-.004-.002-.002-.001-.004-.002-.002-.001-.004-.002-.001-.001-.013-.008-.002-.001-.004-.002-.002-.001-.004-.002h-.001l-.014-.008-.001-.001a.008.008 0 00-.004-.002l-.001-.001a.008.008 0 00-.004-.002l-.001-.001-.019-.011-.005-.003-.02-.011-.005-.003h-.001a9.19 9.19 0 00-.998-.498l-.005-.002h-.001l-.021-.009-.005-.002-.021-.009-.005-.002h-.001l-.005-.002h-.001l-.015-.006h-.001l-.004-.002-.001-.001-.004-.002-.002-.001-.004-.002h-.001a.196.196 0 01-.014-.006l-.002-.001-.004-.002-.002-.001-.004-.002-.001-.001-.014-.006-.002-.001-.004-.002-.002-.001-.004-.001-.003-.001-.003-.001-.004-.002-.004-.002-.004-.001-.003-.001-.004-.001-.002-.001-.004-.002-.002-.001-.005-.002h-.001l-.006-.003-.003-.001-.004-.001-.003-.001-.004-.001-.003-.001-.004-.002h-.001l-.007-.003h-.001l-.005-.002-.002-.001a.008.008 0 01-.004-.002l-.002-.001-.004-.002-.002-.001-.005-.002-.003-.001-.004-.002-.002-.001-.004-.002-.002-.001-.005-.002-.002-.001-.013-.005h-.001l-.005-.002h-.001l-.005-.002-.002-.001a.014.014 0 00-.006-.002h-.001l-.013-.005h-.001a.014.014 0 00-.006-.002h-.001l-.027-.01-.007-.003a8.425 8.425 0 00-.709-.239zM10.5 20v2c.079 0 .158.001.236.004l.061-1.999-.089-.002H10.62 10.547h-.039C10.506 20 10.503 20 10.5 20z" fill="#66798f"></path></g><g><circle cx="10.5" cy="29.5" r="5" fill="#f5ce85"></circle><path d="M10.5 25c2.481 0 4.5 2.019 4.5 4.5S12.981 34 10.5 34 6 31.981 6 29.5 8.019 25 10.5 25m0-1a5.5 5.5 0 100 11 5.5 5.5 0 100-11z" fill="#967a44"></path></g><path d="M4 22H1v-3h3a1 1 0 011 1v1a1 1 0 01-1 1z" fill="#c74343"></path><path d="M30 17V8a3 3 0 013-3h0" fill="none" stroke="#66798f" stroke-width="2" stroke-miterlimit="10"></path><path d="M34.5 24h2.808l.295-3H34.5a1.5 1.5 0 000 3z" fill="#fff"></path></svg>