<svg viewBox="0 0 40 40" xmlns="http://www.w3.org/2000/svg"><path fill="#deb974" d="M12.5 2.5h15v2h-15z"></path><path d="M27 3v1H13V3h14m1-1H12v3h16V2z" fill="#967a44"></path><path fill="#deb974" d="M12.5 6.5h15v2h-15z"></path><path d="M27 7v1H13V7h14m1-1H12v3h16V6z" fill="#967a44"></path><path fill="#deb974" d="M12.5 31.5h15v2h-15z"></path><path d="M27 32v1H13v-1h14m1-1H12v3h16v-3z" fill="#967a44"></path><path fill="#deb974" d="M12.5 35.5h15v2h-15z"></path><path d="M27 36v1H13v-1h14m1-1H12v3h16v-3z" fill="#967a44"></path><path fill="#deb974" d="M35.5 12.5h2v15h-2z"></path><path d="M37 13v14h-1V13h1m1-1h-3v16h3V12z" fill="#967a44"></path><path fill="#deb974" d="M31.5 12.5h2v15h-2z"></path><path d="M33 13v14h-1V13h1m1-1h-3v16h3V12z" fill="#967a44"></path><g><path fill="#deb974" d="M6.5 12.5h2v15h-2z"></path><path d="M8 13v14H7V13h1m1-1H6v16h3V12z" fill="#967a44"></path></g><g><path fill="#deb974" d="M2.5 12.5h2v15h-2z"></path><path d="M4 13v14H3V13h1m1-1H2v16h3V12z" fill="#967a44"></path></g><g><path fill="#dcd5f2" d="M13.5 1.5h3v37h-3z"></path><path d="M16 2v36h-2V2h2m1-1h-4v38h4V1z" fill="#8b75a1"></path></g><g><path fill="#dcd5f2" d="M23.5 1.5h3v37h-3z"></path><path d="M26 2v36h-2V2h2m1-1h-4v38h4V1z" fill="#8b75a1"></path></g><g><path fill="#dcd5f2" d="M1.5 13.5h37v3h-37z"></path><path d="M38 14v2H2v-2h36m1-1H1v4h38v-4z" fill="#8b75a1"></path></g><g><path fill="#dcd5f2" d="M1.5 23.5h37v3h-37z"></path><path d="M38 24v2H2v-2h36m1-1H1v4h38v-4z" fill="#8b75a1"></path></g></svg>