<svg viewBox="0 0 40 40" xmlns="http://www.w3.org/2000/svg"><path fill="#c2e8ff" d="M5.929 31.357V13.714H.5V8.643h15.929v5.071H11v17.643z"></path><path d="M15.929 9.143v4.071H10.5v17.643H6.429V13.214H1V9.143h14.929m1-1H0v6.071h5.429v17.643H11.5V14.214h5.429V8.143z" fill="#4e7ab5"></path><g><path fill="#c2e8ff" d="M34.429 31.357V19.138l-4.582 12.219h-3.408l-4.582-12.219v12.219h-5.071V8.643h6.281l5.076 14.378 5.075-14.378H39.5v22.714z"></path><path d="M39 9.143v21.714h-4.071V16.381L29.5 30.857h-2.714l-5.429-14.476v14.476h-4.071V9.143h5.428l5.429 15.381 5.429-15.381H39m1-1h-7.136l-.236.667-4.486 12.709L23.657 8.81l-.235-.667h-7.136v23.714h6.071v-9.962l3.492 9.313.243.649h4.101l.243-.649 3.492-9.313v9.962H40V8.143z" fill="#4e7ab5"></path></g></svg>