<svg viewBox="0 0 40 40" xmlns="http://www.w3.org/2000/svg"><path d="M16.053 12.5c-.856 0-1.553-.673-1.553-1.5s.696-1.5 1.553-1.5h21.895c.856 0 1.553.673 1.553 1.5s-.696 1.5-1.553 1.5H16.053z" fill="#8bb7f0"></path><path d="M37.947 10c.581 0 1.053.449 1.053 1s-.472 1-1.053 1H16.053C15.472 12 15 11.551 15 11s.472-1 1.053-1h21.894m0-1H16.053C14.919 9 14 9.895 14 11s.919 2 2.053 2h21.895C39.081 13 40 12.105 40 11s-.919-2-2.053-2z" fill="#4e7ab5"></path><path d="M38 18v3a1 1 0 01-1 1h-2a1 1 0 01-1-1v-3h4z" fill="#66798f"></path><path d="M16.5 19.5v-6.178l.956-2.117 2.024-7.068C19.758 3.306 20.985 2.5 22 2.5h10c1.015 0 2.242.806 2.525 1.658l1.994 6.979.98 2.184V19.5H16.5z" fill="#8bb7f0"></path><path d="M32 3c.799 0 1.834.664 2.038 1.275l2 7 .02.07.03.067L37 13.43V19H17v-5.57l.911-2.018.03-.067.02-.07 1.987-6.959C20.166 3.664 21.201 3 22 3h10m0-1H22c-1.168 0-2.631.892-3 2l-2 7-1 2.214V20h22v-6.786L37 11l-2-7c-.369-1.108-1.832-2-3-2z" fill="#4e7ab5"></path><circle cx="34.5" cy="14.5" r="1.5" fill="#fff"></circle><path d="M17.949 9.5l1.531-5.363c.313-.94 1.197-1.637 2.095-1.637h10.85c.897 0 1.781.697 2.101 1.658L36.051 9.5H17.949z" fill="#c2e8ff"></path><path d="M32.425 3c.677 0 1.376.566 1.613 1.275L35.389 9H18.611l1.337-4.684c.251-.75.95-1.316 1.627-1.316h10.85m0-1h-10.85c-1.168 0-2.206.892-2.575 2l-1.714 6h19.429L35 4c-.369-1.108-1.407-2-2.575-2z" fill="#4e7ab5"></path><path fill="#8bb7f0" d="M15.978 10H38v2H15.978z"></path><path d="M21.696 19.5l1.49-4.412A.857.857 0 0124 14.5h6c.369 0 .696.235.812.586l1.491 4.414H21.696z" fill="#c8d1db"></path><path d="M30 15c.154 0 .29.098.34.248L31.607 19h-9.214l1.268-3.756A.357.357 0 0124 15h6m0-1h-6c-.584 0-1.103.374-1.287.928L21 20h12l-1.713-5.072A1.356 1.356 0 0030 14zM24 27v3a1 1 0 01-1 1h-2a1 1 0 01-1-1v-3h4z" fill="#66798f"></path><g><path d="M2.053 21.5C1.196 21.5.5 20.827.5 20s.696-1.5 1.553-1.5h21.895c.856 0 1.553.673 1.553 1.5s-.696 1.5-1.553 1.5H2.053z" fill="#bae0bd"></path><path d="M23.947 19c.581 0 1.053.449 1.053 1s-.472 1-1.053 1H2.053C1.472 21 1 20.551 1 20s.472-1 1.053-1h21.894m0-1H2.053C.919 18 0 18.895 0 20s.919 2 2.053 2h21.895C25.081 22 26 21.105 26 20s-.919-2-2.053-2z" fill="#5e9c76"></path><path d="M6 27v3a1 1 0 01-1 1H3a1 1 0 01-1-1v-3h4z" fill="#66798f"></path><path d="M2.5 28.5v-6.178l.956-2.117 2.024-7.068C5.758 12.306 6.985 11.5 8 11.5h10c1.015 0 2.242.806 2.525 1.658l1.994 6.979.98 2.184V28.5H2.5z" fill="#bae0bd"></path><path d="M18 12c.799 0 1.834.664 2.038 1.275l2 7 .02.07.03.067L23 22.43V28H3v-5.57l.911-2.018.03-.067.02-.07 1.987-6.959C6.166 12.664 7.201 12 8 12h10m0-1H8c-1.168 0-2.631.892-3 2l-2 7-1 2.214V29h22v-6.786L23 20l-2-7c-.369-1.108-1.832-2-3-2z" fill="#5e9c76"></path><circle cx="20.5" cy="23.5" r="1.5" fill="#fff"></circle><circle cx="5.5" cy="23.5" r="1.5" fill="#fff"></circle><path d="M3.949 18.5l1.531-5.363c.313-.94 1.197-1.637 2.095-1.637h10.85c.897 0 1.781.697 2.101 1.658l1.525 5.342H3.949z" fill="#c2e8ff"></path><path d="M18.425 12c.677 0 1.376.566 1.613 1.275L21.389 18H4.611l1.337-4.684c.251-.75.95-1.316 1.627-1.316h10.85m0-1H7.575c-1.168 0-2.206.892-2.575 2l-1.714 6h19.429L21 13c-.369-1.108-1.407-2-2.575-2z" fill="#5e9c76"></path><path fill="#bae0bd" d="M1.978 19H24v2H1.978z"></path><g><path d="M7.696 28.5l1.49-4.412A.857.857 0 0110 23.5h6c.369 0 .696.235.812.586l1.491 4.414H7.696z" fill="#c8d1db"></path><path d="M16 24c.154 0 .29.098.34.248L17.607 28H8.393l1.268-3.756A.357.357 0 0110 24h6m0-1h-6c-.584 0-1.103.374-1.287.928L7 29h12l-1.713-5.072A1.356 1.356 0 0016 23z" fill="#66798f"></path></g></g><g><path d="M16.053 28.5c-.856 0-1.553-.673-1.553-1.5s.696-1.5 1.553-1.5h21.895c.856 0 1.553.673 1.553 1.5s-.696 1.5-1.553 1.5H16.053z" fill="#f5ce85"></path><path d="M37.947 26c.581 0 1.053.449 1.053 1s-.472 1-1.053 1H16.053C15.472 28 15 27.551 15 27s.472-1 1.053-1h21.894m0-1H16.053C14.919 25 14 25.895 14 27s.919 2 2.053 2h21.895C39.081 29 40 28.105 40 27s-.919-2-2.053-2z" fill="#967a44"></path></g><g><path d="M38 34v3a1 1 0 01-1 1h-2a1 1 0 01-1-1v-3h4z" fill="#66798f"></path></g><g><path d="M20 34v3a1 1 0 01-1 1h-2a1 1 0 01-1-1v-3h4z" fill="#66798f"></path></g><g><path d="M16.5 35.5v-6.178l.956-2.117 2.024-7.068c.278-.831 1.505-1.637 2.52-1.637h10c1.015 0 2.242.806 2.525 1.658l1.994 6.979.98 2.184V35.5H16.5z" fill="#f5ce85"></path><path d="M32 19c.799 0 1.834.664 2.038 1.275l2 7 .02.07.03.067L37 29.43V35H17v-5.57l.911-2.018.03-.067.02-.07 1.987-6.959C20.166 19.664 21.201 19 22 19h10m0-1H22c-1.168 0-2.631.892-3 2l-2 7-1 2.214V36h22v-6.786L37 27l-2-7c-.369-1.108-1.832-2-3-2z" fill="#967a44"></path></g><circle cx="34.5" cy="30.5" r="1.5" fill="#fff"></circle><circle cx="19.5" cy="30.5" r="1.5" fill="#fff"></circle><g><path d="M17.949 25.5l1.531-5.363c.313-.94 1.197-1.637 2.095-1.637h10.85c.897 0 1.781.697 2.101 1.658l1.525 5.342H17.949z" fill="#c2e8ff"></path><path d="M32.425 19c.677 0 1.376.566 1.613 1.275L35.389 25H18.611l1.337-4.684c.25-.75.949-1.316 1.626-1.316h10.851m0-1h-10.85c-1.168 0-2.206.892-2.575 2l-1.714 6h19.429L35 20c-.369-1.108-1.407-2-2.575-2z" fill="#967a44"></path></g><path fill="#f5ce85" d="M15.978 26H38v2H15.978z"></path><g><path d="M21.696 35.5l1.49-4.412A.857.857 0 0124 30.5h6c.369 0 .696.235.812.586l1.491 4.414H21.696z" fill="#c8d1db"></path><path d="M30 31c.154 0 .29.098.34.248L31.607 35h-9.214l1.268-3.756A.357.357 0 0124 31h6m0-1h-6c-.584 0-1.103.374-1.288.928L21 36h12l-1.712-5.072A1.358 1.358 0 0030 30z" fill="#66798f"></path></g></svg>