<svg viewBox="0 0 40 40" xmlns="http://www.w3.org/2000/svg"><path d="M26.714 35.643V28.5h5.771c-.288 4.45-4.354 6.784-5.033 7.143h-.738z" fill="#c8d1db"></path><path d="M31.931 29c-.514 3.697-3.769 5.689-4.603 6.143h-.114V29h4.717M33 28h-6.786v8.143h1.357S33 33.545 33 28z" fill="#66798f"></path><path d="M26.714 24.643V17.5h5.771c-.288 4.45-4.354 6.784-5.033 7.143h-.738z" fill="#c8d1db"></path><path d="M31.931 18c-.514 3.697-3.769 5.689-4.603 6.143h-.114V18h4.717M33 17h-6.786v8.143h1.357S33 22.545 33 17z" fill="#66798f"></path><path d="M26.714 13.643V6.5h5.771c-.288 4.45-4.354 6.784-5.033 7.143h-.738z" fill="#c8d1db"></path><path d="M31.931 7c-.514 3.697-3.769 5.689-4.603 6.143h-.114V7h4.717M33 6h-6.786v8.143h1.357S33 11.545 33 6z" fill="#66798f"></path><path d="M12.55 35.643c-.68-.361-4.745-2.706-5.033-7.143h5.77v7.143h-.737z" fill="#c8d1db"></path><path d="M12.786 29v6.143h-.111c-.82-.452-4.086-2.47-4.605-6.143h4.716m1-1H7c0 5.545 5.429 8.143 5.429 8.143h1.357V28z" fill="#66798f"></path><path d="M12.55 24.643c-.68-.361-4.745-2.706-5.033-7.143h5.77v7.143h-.737z" fill="#c8d1db"></path><path d="M12.786 18v6.143h-.111c-.82-.452-4.086-2.47-4.605-6.143h4.716m1-1H7c0 5.545 5.429 8.143 5.429 8.143h1.357V17z" fill="#66798f"></path><g><path d="M12.55 13.643c-.68-.361-4.745-2.706-5.033-7.143h5.77v7.143h-.737z" fill="#c8d1db"></path><path d="M12.786 7v6.143h-.111c-.82-.452-4.086-2.47-4.605-6.143h4.716m1-1H7c0 5.545 5.429 8.143 5.429 8.143h1.357V6z" fill="#66798f"></path></g><g><path d="M11.5 38.5V6.714c0-1.378 1.121-2.5 2.5-2.5h.394l.15-.196C15.751 2.441 17.791 1.5 20 1.5s4.249.941 5.456 2.519l.15.196H26c1.379 0 2.5 1.122 2.5 2.5V38.5h-17z" fill="#c8d1db"></path><path d="M20 2c2.055 0 3.946.868 5.059 2.322l.3.392H26c1.103 0 2 .897 2 2V38H12V6.714c0-1.103.897-2 2-2h.641l.3-.392C16.054 2.868 17.945 2 20 2m0-1c-2.45 0-4.603 1.081-5.853 2.714H14a3 3 0 00-3 3V39h18V6.714a3 3 0 00-3-3h-.147C24.603 2.081 22.45 1 20 1z" fill="#66798f"></path></g><g><circle cx="20" cy="10" r="3.5" fill="#f78f8f"></circle><path d="M20 7c1.654 0 3 1.346 3 3s-1.346 3-3 3-3-1.346-3-3 1.346-3 3-3m0-1a4 4 0 100 8 4 4 0 000-8z" fill="#c74343"></path></g><g><circle cx="20" cy="21" r="3.5" fill="#f5ce85"></circle><path d="M20 18c1.654 0 3 1.346 3 3s-1.346 3-3 3-3-1.346-3-3 1.346-3 3-3m0-1a4 4 0 100 8 4 4 0 000-8z" fill="#967a44"></path></g><g><circle cx="20" cy="32" r="3.5" fill="#bae0bd"></circle><path d="M20 29c1.654 0 3 1.346 3 3s-1.346 3-3 3-3-1.346-3-3 1.346-3 3-3m0-1a4 4 0 100 8 4 4 0 000-8z" fill="#5e9c76"></path></g></svg>