<svg viewBox="0 0 40 40" xmlns="http://www.w3.org/2000/svg"><path fill="#66798f" d="M6.771 40H9l5-7h-2.229zM28.229 33H26l5 7h2.229z"></path><path d="M10 36.5A4.505 4.505 0 015.5 32V9c0-2.481 2.019-4.5 4.5-4.5h5.749l.131-.299A4.5 4.5 0 0120 1.5a4.5 4.5 0 014.12 2.701l.131.299H30c2.481 0 4.5 2.019 4.5 4.5v23c0 2.481-2.019 4.5-4.5 4.5H10z" fill="#bae0bd"></path><path d="M20 2a4 4 0 013.662 2.401l.262.599H30c2.206 0 4 1.794 4 4v23c0 2.206-1.794 4-4 4H10c-2.206 0-4-1.794-4-4V9c0-2.206 1.794-4 4-4h6.076l.262-.599A4 4 0 0120 2m0-1a4.998 4.998 0 00-4.578 3H10a5 5 0 00-5 5v23a5 5 0 005 5h20a5 5 0 005-5V9a5 5 0 00-5-5h-5.422A4.998 4.998 0 0020 1z" fill="#5e9c76"></path><path d="M11 23.5A2.503 2.503 0 018.5 21v-8c0-1.378 1.122-2.5 2.5-2.5h7.5v13H11z" fill="#c2e8ff"></path><path d="M18 11v12h-7c-1.103 0-2-.897-2-2v-8c0-1.103.897-2 2-2h7m1-1h-8a3 3 0 00-3 3v8a3 3 0 003 3h8V10z" fill="#5e9c76"></path><path d="M21.5 23.5v-13H29c1.378 0 2.5 1.122 2.5 2.5v8c0 1.378-1.122 2.5-2.5 2.5h-7.5z" fill="#c2e8ff"></path><path d="M29 11c1.103 0 2 .897 2 2v8c0 1.103-.897 2-2 2h-7V11h7m0-1h-8v14h8a3 3 0 003-3v-8a3 3 0 00-3-3z" fill="#5e9c76"></path><circle cx="20" cy="6" r="2" fill="#fff"></circle><circle cx="28.5" cy="29.5" r="2.5" fill="#fff"></circle><circle cx="11.5" cy="29.5" r="2.5" fill="#fff"></circle></svg>