<svg viewBox="0 0 40 40" xmlns="http://www.w3.org/2000/svg"><circle cx="20" cy="5" r="3.5" fill="#f5ce85"></circle><path d="M20 2c1.654 0 3 1.346 3 3s-1.346 3-3 3-3-1.346-3-3 1.346-3 3-3m0-1a4 4 0 100 8 4 4 0 000-8z" fill="#967a44"></path><path d="M9 38.5s5.042-2 11-2 11 2 11 2M14.5 33.5s2.148-1 5.5-1 5.5 1 5.5 1" fill="none" stroke="#f78f8f" stroke-linecap="round" stroke-miterlimit="10"></path><g><path d="M31.614 33.5a1.61 1.61 0 01-1.148-.475L21.905 24.5h-3.81l-8.561 8.525a1.613 1.613 0 01-1.148.475c-.437 0-.846-.17-1.153-.479l-.258-.259a1.63 1.63 0 01.005-2.302l8.521-8.486v-8.849L6.59 9.76a1.684 1.684 0 011.19-3.151L18.081 10.5h3.839l10.3-3.891c.192-.072.392-.109.595-.109.696 0 1.33.438 1.576 1.09a1.686 1.686 0 01-.98 2.17l-8.91 3.365v8.849l8.521 8.486c.636.633.639 1.666.005 2.302l-.257.259c-.31.309-.719.479-1.156.479z" fill="#8bb7f0"></path><path d="M32.815 7a1.186 1.186 0 01.419 2.292l-8.587 3.243-.647.245v9.401l.294.293 8.374 8.339c.441.439.442 1.154.003 1.595l-.258.259a1.122 1.122 0 01-1.595.004l-8.414-8.38-.293-.291h-4.223l-.293.291-8.414 8.38a1.118 1.118 0 01-.795.329 1.12 1.12 0 01-.799-.332l-.258-.259a1.13 1.13 0 01.003-1.595l8.374-8.339.294-.293V12.78l-.647-.244-8.587-3.244a1.185 1.185 0 01.837-2.215l10.216 3.859.171.064h4.022l.171-.065 10.216-3.859c.133-.05.274-.076.416-.076m0-1c-.256 0-.517.046-.771.142L21.828 10h-3.656L7.956 6.141a2.187 2.187 0 00-2.815 1.272 2.185 2.185 0 001.271 2.815L15 13.471v8.295l-8.374 8.339a2.128 2.128 0 00-.006 3.009l.258.259a2.126 2.126 0 003.01.007L18.302 25h3.397l8.414 8.38c.415.414.958.62 1.502.62.546 0 1.092-.209 1.508-.626l.258-.259a2.128 2.128 0 00-.006-3.009L25 21.766v-8.295l8.587-3.243A2.184 2.184 0 0032.815 6z" fill="#4e7ab5"></path></g></svg>