<svg viewBox="0 0 40 40" xmlns="http://www.w3.org/2000/svg"><path fill="#36404d" d="M11 30h25v5H11z"></path><circle cx="30.5" cy="34.5" r="3" fill="#c8d1db"></circle><path d="M30.5 32c1.378 0 2.5 1.122 2.5 2.5S31.878 37 30.5 37 28 35.878 28 34.5s1.122-2.5 2.5-2.5m0-1a3.5 3.5 0 100 7 3.5 3.5 0 000-7z" fill="#66798f"></path><circle cx="23.5" cy="34.5" r="3" fill="#c8d1db"></circle><path d="M23.5 32c1.378 0 2.5 1.122 2.5 2.5S24.878 37 23.5 37 21 35.878 21 34.5s1.122-2.5 2.5-2.5m0-1a3.5 3.5 0 100 7 3.5 3.5 0 000-7z" fill="#66798f"></path><path d="M35.207 34.5l-1-1H19.793l-1 1H.5v-26h28.96c1.521 0 2.927.699 3.856 1.918C35.626 13.447 39.5 19.238 39.5 24v8c0 1.378-1.122 2.5-2.5 2.5h-1.793z" fill="#f78f8f"></path><path d="M29.461 9c1.364 0 2.624.628 3.459 1.722C35.19 13.7 39 19.385 39 24.001V32c0 1.103-.897 2-2 2h-1.586l-.707-.707-.293-.293H19.586l-.293.293-.707.707H1V9h28.461m0-1H0v27h19l1-1h14l1 1h2a3 3 0 003-3v-7.999c0-4.91-3.935-10.803-6.285-13.885A5.348 5.348 0 0029.461 8z" fill="#c74343"></path><path d="M9.5 1.414L13.586 5.5 9.5 9.586 5.414 5.5 9.5 1.414M9.5 0L4 5.5 9.5 11 15 5.5 9.5 0z" fill="#66798f"></path><path d="M.5 24.5v-16h28.96c1.521 0 2.927.699 3.856 1.918C35.626 13.447 39.5 19.238 39.5 24v.5H.5z" fill="#ffc49c"></path><path d="M29.461 9c1.364 0 2.624.628 3.459 1.722C35.19 13.699 39 19.384 39 24H1V9h28.461m0-1H0v17h40v-.999c0-4.91-3.935-10.803-6.285-13.885A5.348 5.348 0 0029.461 8z" fill="#a16a4a"></path><path fill="#ffc49c" d="M0 9h2v15H0z"></path><path fill="#f78f8f" d="M0 25h2v9H0zM2.5 20.5h12v14h-12z"></path><path d="M14 21v13H3V21h11m1-1H2v15h13V20z" fill="#c74343"></path><path d="M2.5 24.5V15c0-1.378 1.122-2.5 2.5-2.5h7c1.378 0 2.5 1.122 2.5 2.5v9.5h-12z" fill="#c2e8ff"></path><path d="M12 13c1.103 0 2 .897 2 2v9H3v-9c0-1.103.897-2 2-2h7m0-1H5a3 3 0 00-3 3v10h13V15a3 3 0 00-3-3z" fill="#a16a4a"></path><g><path d="M20 24.5a2.503 2.503 0 01-2.5-2.5v-7c0-1.378 1.122-2.5 2.5-2.5h5c1.378 0 2.5 1.122 2.5 2.5v7c0 1.378-1.122 2.5-2.5 2.5h-5z" fill="#c2e8ff"></path><path d="M25 13c1.103 0 2 .897 2 2v7c0 1.103-.897 2-2 2h-5c-1.103 0-2-.897-2-2v-7c0-1.103.897-2 2-2h5m0-1h-5a3 3 0 00-3 3v7a3 3 0 003 3h5a3 3 0 003-3v-7a3 3 0 00-3-3z" fill="#a16a4a"></path></g><g><path d="M32 24.5a2.503 2.503 0 01-2.5-2.5v-7c0-1.378 1.122-2.5 2.5-2.5h2.82c2.17 3.175 4.68 7.674 4.68 11.5v.5H32z" fill="#c2e8ff"></path><path d="M34.555 13C36.65 16.1 39 20.385 39 24h-7c-1.103 0-2-.897-2-2v-7c0-1.103.897-2 2-2h2.555m.528-1H32a3 3 0 00-3 3v7a3 3 0 003 3h8v-.999c0-4.041-2.664-8.743-4.917-12.001z" fill="#a16a4a"></path></g><path fill="none" stroke="#a16a4a" stroke-miterlimit="10" d="M8.5 12v13"></path><path fill="none" stroke="#c74343" stroke-miterlimit="10" d="M8.5 25v10"></path><path d="M38 31h1v-4h-1a2 2 0 100 4z" fill="#fff"></path></svg>