<svg viewBox="0 0 40 40" xmlns="http://www.w3.org/2000/svg"><path fill="#66798f" d="M6.771 40H9l5-7h-2.229zM28.229 33H26l5 7h2.229z"></path><path fill="none" stroke="#66798f" stroke-miterlimit="10" d="M23.5 6.379V1M16.5 6.379V1"></path><path d="M10 36.5c-1.93 0-3.5-1.57-3.5-3.5V14c0-4.136 3.364-7.5 7.5-7.5h12c4.136 0 7.5 3.364 7.5 7.5v19c0 1.93-1.57 3.5-3.5 3.5H10z" fill="#f78f8f"></path><path d="M26 7c3.86 0 7 3.14 7 7v19c0 1.654-1.346 3-3 3H10c-1.654 0-3-1.346-3-3V14c0-3.86 3.14-7 7-7h12m0-1H14a8 8 0 00-8 8v19a4 4 0 004 4h20a4 4 0 004-4V14a8 8 0 00-8-8z" fill="#c74343"></path><path d="M6.5 25.5V14c0-4.136 3.364-7.5 7.5-7.5h12c4.136 0 7.5 3.364 7.5 7.5v11.5h-27z" fill="#ffc49c"></path><path d="M26 7c3.86 0 7 3.14 7 7v11H7V14c0-3.86 3.14-7 7-7h12m0-1H14a8 8 0 00-8 8v12h28V14a8 8 0 00-8-8z" fill="#a16a4a"></path><path fill="#c2e8ff" d="M6.5 14.5h27v11h-27z"></path><path d="M33 15v10H7V15h26m1-1H6v12h28V14z" fill="#a16a4a"></path><circle cx="28" cy="31" r="2" fill="#fff"></circle><circle cx="12" cy="31" r="2" fill="#fff"></circle><path fill="none" stroke="#a16a4a" stroke-miterlimit="10" d="M27.5 26V14.087M12.5 26V14.087"></path><path d="M8.5 4.5l2.485-1.656A8 8 0 0115.422 1.5h9.156c1.579 0 3.123.468 4.438 1.344L31.5 4.5" fill="none" stroke="#66798f" stroke-miterlimit="10"></path></svg>