<svg viewBox="0 0 40 40" xmlns="http://www.w3.org/2000/svg"><path d="M16.5 38.5v-3h-3v-3h3v-5.109l-.4-.082C11.696 26.415 8.5 22.5 8.5 18c0-5.238 4.262-9.5 9.5-9.5 2.097 0 4.091.679 5.768 1.963l.348.267 6.229-6.23H25.5v-3h10v10h-3V6.655l-6.391 6.39.185.33A9.5 9.5 0 0127.5 18c0 4.5-3.196 8.415-7.6 9.309l-.4.082V32.5h3v3h-3v3h-3zm1.5-26c-3.032 0-5.5 2.468-5.5 5.5s2.468 5.5 5.5 5.5 5.5-2.468 5.5-5.5-2.468-5.5-5.5-5.5z" fill="#dcd5f2"></path><path d="M35 2v9h-2V5.448l-1.707 1.707-5.269 5.269-.535.535.369.66A9.003 9.003 0 0127 18c0 4.263-3.028 7.972-7.199 8.819l-.801.163V33h3v2h-3v3h-2v-3h-3v-2h3v-6.018l-.801-.163C12.028 25.972 9 22.263 9 18c0-4.963 4.037-9 9-9 1.986 0 3.875.643 5.463 1.861l.696.533.62-.62 5.067-5.067L31.552 4H26V2h9M18 24c3.308 0 6-2.692 6-6s-2.692-6-6-6-6 2.692-6 6 2.692 6 6 6M36 1H25v4h4.138l-5.067 5.067A9.944 9.944 0 0018 8C12.477 8 8 12.477 8 18c0 4.838 3.436 8.872 8 9.799V32h-3v4h3v3h4v-3h3v-4h-3v-4.201c4.564-.927 8-4.961 8-9.799a9.945 9.945 0 00-1.269-4.869L32 7.862V12h4V1zM18 23a5 5 0 11.001-10.001A5 5 0 0118 23z" fill="#8b75a1"></path></svg>