<svg viewBox="0 0 40 40" xmlns="http://www.w3.org/2000/svg"><path d="M9.5 9.5V4.25l3.667-2.75h14.666L31.5 4.25V9.5h-22zm11-7c-1.654 0-3 1.346-3 3s1.346 3 3 3 3-1.346 3-3-1.346-3-3-3z" fill="#ffeea3"></path><path d="M27.667 2L31 4.5V9H10V4.5L13.333 2H20.5C18.57 2 17 3.57 17 5.5S18.57 9 20.5 9 24 7.43 24 5.5 22.43 2 20.5 2h7.167M28 1H13L9 4v6h23V4l-4-3zm-7.5 7a2.5 2.5 0 110-5 2.5 2.5 0 010 5z" fill="#f5c276"></path><path fill="#ffeea3" d="M25.5 20.5h2v18h-2z"></path><path d="M27 21v17h-1V21h1m1-1h-3v19h3V20z" fill="#f5c276"></path><path fill="#ffeea3" d="M19.5 20.5h2v18h-2z"></path><path d="M21 21v17h-1V21h1m1-1h-3v19h3V20z" fill="#f5c276"></path><path fill="#ffeea3" d="M13.5 20.5h2v18h-2z"></path><path d="M15 21v17h-1V21h1m1-1h-3v19h3V20z" fill="#f5c276"></path><g><path fill="#4b6477" d="M9.5 9.5h22v17h-22z"></path><path d="M31 10v16H10V10h21m1-1H9v18h23V9z" fill="#36404d"></path></g><path d="M9.667 15c-.229 0-.452.025-.667.071v6.859c.215.045.438.07.667.07C11.508 22 13 20.433 13 18.5S11.508 15 9.667 15zM31.333 15c.228 0 .451.025.667.071v6.859c-.215.045-.438.07-.667.07C29.492 22 28 20.433 28 18.5s1.492-3.5 3.333-3.5z" fill="#36404d"></path></svg>