<svg viewBox="0 0 40 40" xmlns="http://www.w3.org/2000/svg"><path fill="#f2faff" d="M1.5 1.5h25v25h-25z"></path><path d="M26 2v24H2V2h24m1-1H1v26h26V1z" fill="#788b9c"></path><path fill="#8bb7f0" d="M13.5 38.5V26.207L26.207 13.5H38.5v25z"></path><path d="M38 14v24H14V26.414L26.414 14H38m1-1H26L13 26v13h26V13z" fill="#4e7ab5"></path><path fill="#fff" d="M22.679 28h7.5v3h-7.5z"></path><path fill="#fff" d="M28.383 20h-3.79l-5.164 14h3.325l3.61-11.329h.128L30.104 34h3.325z"></path><path fill="none" stroke="#788b9c" stroke-width="2" stroke-miterlimit="10" d="M7 10h14M14 6v4M19 10S16.624 20 7 20M9 13s3.451 5 9 5"></path></svg>