<svg viewBox="0 0 40 40" xmlns="http://www.w3.org/2000/svg"><path d="M3 19.5c-.827 0-1.5-.673-1.5-1.5v-2c0-.827.673-1.5 1.5-1.5h34c.827 0 1.5.673 1.5 1.5v2c0 .827-.673 1.5-1.5 1.5H3z" fill="#8bb7f0"></path><path d="M37 15c.551 0 1 .449 1 1v2c0 .551-.449 1-1 1H3c-.551 0-1-.449-1-1v-2c0-.551.449-1 1-1h34m0-1H3a2 2 0 00-2 2v2a2 2 0 002 2h34a2 2 0 002-2v-2a2 2 0 00-2-2z" fill="#4e7ab5"></path><path d="M30 34h5a1 1 0 011 1v3a1 1 0 01-1 1h-5a1 1 0 01-1-1v-3a1 1 0 011-1zM5 34h5a1 1 0 011 1v3a1 1 0 01-1 1H5a1 1 0 01-1-1v-3a1 1 0 011-1z" fill="#66798f"></path><path d="M4.5 35.5V21L6.297 5.77a4.943 4.943 0 014.885-4.27h17.637a4.943 4.943 0 014.885 4.277l1.801 15.282L35.5 35.5h-31z" fill="#8bb7f0"></path><path d="M28.819 2c2.21 0 4.098 1.652 4.388 3.828L35 21.059V35H5V21.058L6.792 5.843A4.442 4.442 0 0111.181 2h17.638m0-1H11.181A5.43 5.43 0 005.8 5.711L4 20.999V36h32V21L34.2 5.711A5.43 5.43 0 0028.819 1z" fill="#4e7ab5"></path><path fill="#c2e8ff" d="M4.562 20.5l1.507-13h27.836l1.532 13z"></path><path d="M33.46 8l1.415 12H5.123L6.515 8H33.46m.889-1H5.624L4 21h32L34.349 7z" fill="#4e7ab5"></path><circle cx="31" cy="26" r="2" fill="#fff"></circle><circle cx="9" cy="26" r="2" fill="#fff"></circle><g><path d="M12.581 35.5l1.224-8.078A2.224 2.224 0 0116 25.5h8c1.102 0 2.045.823 2.194 1.915l1.225 8.085H12.581z" fill="#c8d1db"></path><path d="M24 26c.853 0 1.583.637 1.701 1.497L26.837 35H13.163l1.139-7.517A1.72 1.72 0 0116 26h8m0-1h-8a2.714 2.714 0 00-2.689 2.348L12 36h16l-1.311-8.652A2.714 2.714 0 0024 25z" fill="#4e7ab5"></path></g></svg>