<svg viewBox="0 0 40 40" xmlns="http://www.w3.org/2000/svg"><path fill="#a16a4a" d="M1.5 20.857v-.754l3.073-7.172-2.931-3.909.944-1.093h34.828l.944 1.093-2.931 3.909 3.073 7.172v.754z"></path><path d="M37.185 8.429l.532.616L35.2 12.4l-.347.463.228.531L38 20.205v.152H2v-.152l2.919-6.811.228-.531L4.8 12.4 2.283 9.044l.532-.616h34.37m.458-.999H2.357L1 9l3 4-3 7v1.357h38V20l-3-7 3-4-1.357-1.571z" fill="#704e34"></path><path d="M32 17.5a2.5 2.5 0 00-2.5-2.5c-.566 0-1.082.195-1.501.512L28 15.5a2.5 2.5 0 00-2.5-2.5 2.48 2.48 0 00-1.866.852A1.996 1.996 0 0022 13c-.472 0-.9.17-1.242.443A2.494 2.494 0 0018.5 12a2.49 2.49 0 00-2.11 1.171A2.481 2.481 0 0015.5 13a2.492 2.492 0 00-2.469 2.193A2.991 2.991 0 0012 15a3 3 0 100 6c.885 0 1.672-.39 2.221-1H30v-.05a2.502 2.502 0 002-2.45z" fill="#f5c276"></path><path d="M34.945 20c.033-.162.055-.328.055-.5a2.5 2.5 0 00-2.5-2.5 2.48 2.48 0 00-1.866.852A2 2 0 0027 19c0 .101.015.197.03.293A1.988 1.988 0 0026 19c-.375 0-.721.11-1.021.289A2.493 2.493 0 0022.5 17a2.48 2.48 0 00-1.66.644A2.495 2.495 0 0018.5 16a2.49 2.49 0 00-2.11 1.171A2.481 2.481 0 0015.5 17a2.48 2.48 0 00-1.866.852C13.272 17.338 12.676 17 12 17s-1.272.338-1.634.852A2.48 2.48 0 008.5 17 2.5 2.5 0 006 19.5c0 .173.027.338.06.5h28.885z" fill="#ffeea3"></path><path fill="#e0ac89" d="M1.5 20.5h37v17h-37z"></path><path d="M38 21v16H2V21h36m1-1H1v18h38V20z" fill="#a16a4a"></path><path fill="#a16a4a" d="M2 26h36v1H2zM2 32h36v1H2z"></path><path d="M20 27.5c-1.93 0-3.5-1.57-3.5-3.5v-3.5h7V24c0 1.93-1.57 3.5-3.5 3.5z" fill="#ffeea3"></path><path d="M23 21v3c0 1.654-1.346 3-3 3s-3-1.346-3-3v-3h6m1-1h-8v4c0 2.2 1.8 4 4 4s4-1.8 4-4v-4z" fill="#a16a4a"></path><path d="M8 38c0-4.033-2.855-7-7-7v7h7z" fill="#ffeea3"></path><path fill="#f5c276" d="M2 31v6h6l1 1H1v-8zM17 20h6v1h-6z"></path><path d="M1.526 8.5c.131-1.535.904-6 5.474-6h26c4.532 0 5.33 4.461 5.471 6H1.526z" fill="#e0ac89"></path><path d="M33 3c3.666 0 4.644 3.284 4.905 5H2.088C2.339 6.286 3.302 3 7 3h26m0-1H7C1.024 2 1 9 1 9h38s-.069-7-6-7z" fill="#a16a4a"></path><path d="M16.5 8.5V8c0-1.93 1.57-3.5 3.5-3.5s3.5 1.57 3.5 3.5v.5h-7z" fill="#ffeea3"></path><path d="M20 5c1.654 0 3 1.346 3 3h-6c0-1.654 1.346-3 3-3m0-1c-2.2 0-4 1.761-4 4v1h8V8c0-2.239-1.8-4-4-4z" fill="#a16a4a"></path><path fill="#f5c276" d="M17 8h6v1h-6z"></path><path fill="#f75252" d="M13.928 15.929l2-2 2 2-2 2zM23 17l2-2 2 2-2 2z"></path><path d="M1 30v1c4.145 0 7 2.967 7 7h1c0-4.635-3.365-8-8-8z" fill="#a16a4a"></path><path d="M32 38c0-4.033 2.855-7 7-7v7h-7z" fill="#ffeea3"></path><path fill="#f5c276" d="M38 31v6h-6l-1 1h8v-8z"></path><path d="M39 30v1c-4.145 0-7 2.967-7 7h-1c0-4.635 3.365-8 8-8z" fill="#a16a4a"></path></svg>