<svg viewBox="0 0 40 40" xmlns="http://www.w3.org/2000/svg"><path d="M30.857 30.357a4.912 4.912 0 01-3.35-1.321l-.384-.356-.339.399a3.561 3.561 0 01-2.714 1.278 3.576 3.576 0 01-3.571-3.571.646.646 0 00.012-.108l.012-.512h-.512c-.472 0-.949-.039-1.515-.122l-.25-.037-.178.179a4.901 4.901 0 01-3.498 1.457 5.15 5.15 0 01-.638-.046l-.332-.042-.165.292a4.94 4.94 0 01-4.292 2.511 4.934 4.934 0 01-4.929-4.929c0-.86.23-1.713.665-2.465l.146-.25-.146-.251A4.912 4.912 0 014.214 20c0-.216.019-.428.047-.636l.044-.335-.294-.166A4.921 4.921 0 015.212 9.8l.396-.1-.021-.431-.012-.1a3.577 3.577 0 013.568-3.598c.116.015.164.021.213.023l.377.022.124-.356a3.565 3.565 0 013.356-2.402c.767 0 1.506.252 2.139.729l.401.302.3-.402A4.887 4.887 0 0120 1.5c1.74 0 3.317.895 4.22 2.393l.303.502.448-.378a4.935 4.935 0 013.172-1.159 4.9 4.9 0 014.8 3.824l.07.306.306.07a4.9 4.9 0 013.824 4.8c0 .489-.072.974-.215 1.439l-.088.288.213.212a4.895 4.895 0 011.447 3.489c0 .948-.273 1.871-.79 2.669l-.193.298.219.281c.5.642.765 1.396.765 2.18a3.553 3.553 0 01-2.49 3.385l-.275.089-.062.282a4.952 4.952 0 01-4.817 3.887z" fill="#bae0bd"></path><path d="M20 2c1.563 0 2.98.804 3.792 2.151l.605 1.004.896-.755a4.43 4.43 0 012.85-1.042 4.402 4.402 0 014.312 3.436l.14.611.611.14a4.403 4.403 0 013.436 4.312c0 .439-.065.874-.193 1.295l-.176.575.426.425c.839.837 1.3 1.95 1.3 3.134 0 .851-.245 1.68-.71 2.398l-.386.597.436.561c.433.553.661 1.2.661 1.872 0 1.33-.861 2.498-2.143 2.908l-.551.176-.122.566a4.448 4.448 0 01-4.327 3.493 4.41 4.41 0 01-3.009-1.188l-.767-.713-.677.8a3.058 3.058 0 01-2.332 1.101 3.075 3.075 0 01-3.071-3.025c.006-.045.01-.09.011-.136l.031-1.03h-1.077a9.662 9.662 0 01-1.396-.118l-.5-.074-.356.359a4.398 4.398 0 01-3.142 1.309c-.169 0-.351-.013-.573-.042l-.668-.086L13 27.6a4.438 4.438 0 01-3.856 2.256 4.434 4.434 0 01-4.429-4.429c0-.773.207-1.538.597-2.213l.29-.501-.29-.501A4.415 4.415 0 014.714 20c0-.169.013-.351.042-.573l.086-.668-.586-.331a4.422 4.422 0 011.079-8.143l.787-.2-.034-.811a1.819 1.819 0 00-.016-.168 3.071 3.071 0 013.066-3.032h.006c.06.008.12.016.182.019l.755.045.249-.715a3.067 3.067 0 012.885-2.068c.657 0 1.292.217 1.837.628l.802.604.601-.805A4.396 4.396 0 0120 2m0-1a5.416 5.416 0 00-4.347 2.187 4.032 4.032 0 00-2.439-.829 4.059 4.059 0 00-3.83 2.739c-.081-.006-.158-.026-.241-.026a4.07 4.07 0 00-4.071 4.071c0 .059.015.115.017.173A5.429 5.429 0 001 14.571a5.423 5.423 0 002.765 4.727c-.03.23-.05.463-.05.702 0 .99.269 1.915.732 2.714a5.394 5.394 0 00-.732 2.714 5.429 5.429 0 005.429 5.429 5.423 5.423 0 004.727-2.765c.23.03.463.05.702.05a5.41 5.41 0 003.852-1.605c.516.076 1.039.128 1.576.128l.012-.001c-.002.043-.013.081-.013.122a4.07 4.07 0 004.071 4.071 4.044 4.044 0 003.096-1.455 5.404 5.404 0 003.69 1.455 5.429 5.429 0 005.305-4.282C37.804 26.05 39 24.53 39 22.714c0-.942-.333-1.798-.87-2.488.548-.847.87-1.856.87-2.94a5.41 5.41 0 00-1.594-3.842 5.427 5.427 0 00-3.976-6.873 5.427 5.427 0 00-5.287-4.213 5.4 5.4 0 00-3.495 1.278A5.418 5.418 0 0020 1z" fill="#5e9c76"></path><path d="M14.538 38.5a3.232 3.232 0 011.403-2.193l1.559-1.039V12.5h5v22.768l1.559 1.039a3.23 3.23 0 011.403 2.193H14.538z" fill="#b08159"></path><path d="M22 13v22.535l.445.297 1.336.891c.474.316.829.764 1.03 1.277h-9.623a2.733 2.733 0 011.03-1.277l1.336-.891.446-.297V13h4m1-1h-6v23l-1.336.891A3.735 3.735 0 0014 39h12a3.736 3.736 0 00-1.664-3.109L23 35V12z" fill="#704e34"></path><path fill="#f5ce85" d="M13.5 23.5v-8.533l6.5-3.016 6.5 3.016V23.5z"></path><path d="M20 12.502l6 2.783V23H14v-7.714l6-2.784m0-1.102l-7 3.247V24h14v-9.353L20 11.4z" fill="#967a44"></path><g><path fill="#b08159" d="M20 12.441l-7.5 3.75v-2.882l7.5-3.75 7.5 3.75v2.882z"></path><path d="M20 10.118l7 3.5v1.764l-6.553-3.276-.447-.224-.447.224L13 15.382v-1.764l7-3.5M20 9l-8 4v4l8-4 8 4v-4l-8-4z" fill="#704e34"></path></g><path fill="#b08159" d="M18 17h4v4h-4z"></path></svg>