<svg viewBox="0 0 40 40" xmlns="http://www.w3.org/2000/svg"><path d="M10.045 38.5a1.544 1.544 0 01-1.285-2.403l4.74-6.479v-7.726c0-1.495.487-2.603 1.004-3.774.078-.179.157-.358.234-.54.841.453 3.02 3.31 3.02 4.049l-1.162 8.378c-.005.374-.095.67-.265.926l-4.987 6.864c-.3.448-.781.705-1.299.705z" fill="#ffeea3"></path><path d="M14.933 18.385c.856.818 2.185 2.615 2.319 3.214L16.1 29.937l-.009.068v.069c0 .207-.061.407-.153.547l-5.023 6.914a1.043 1.043 0 01-1.449.289 1.037 1.037 0 01-.445-.665c-.055-.274 0-.552.131-.749l4.656-6.365.192-.264v-7.89c0-1.362.449-2.408.933-3.506m-.339-1.363c-.105 0-.185.05-.23.16-.608 1.46-1.364 2.783-1.364 4.71v7.563L8.344 35.82A2.044 2.044 0 0010.045 39c.661 0 1.309-.32 1.703-.911l5-6.881c.224-.336.344-.731.344-1.135l1.167-8.447c-.001-1.01-2.771-4.604-3.665-4.604z" fill="#ba9b48"></path><path fill="#4e5e6d" d="M13.5 27.5v-7.385l.984-2.036 3.247 3.706-.791 5.715z"></path><path d="M14.606 18.976l2.598 2.966L16.505 27H14v-6.771l.606-1.253m-.242-1.794L13 20v8h4.376l.882-6.373-3.894-4.445z" fill="#36404d"></path><path d="M20.062 38.5a1.534 1.534 0 01-1.353-.795 1.539 1.539 0 01-.135-1.175l2.49-7.295-6.188-6.188c-.292-.292-.452-.68-.452-1.093s.16-.801.452-1.093c.093-.093.375-.191.889-.191 1.21 0 2.821.535 3.243.957l4.835 6.013c.433.436.584 1.018.431 1.558l-2.722 8.161a1.556 1.556 0 01-1.49 1.141z" fill="#ffeea3"></path><path d="M15.767 21.17c1.144 0 2.532.508 2.861.785l4.828 5.998.034.042.038.038c.268.268.37.661.279.984l-2.74 8.223a1.05 1.05 0 01-1.294.719 1.042 1.042 0 01-.724-1.272l2.388-6.997.201-.59-.44-.44-5.968-5.968a1.04 1.04 0 01-.306-.739c0-.267.099-.519.281-.713.047-.018.207-.07.562-.07m-.001-1c-.545 0-1.003.099-1.242.338a2.044 2.044 0 000 2.892l5.967 5.967-2.397 7.025a2.045 2.045 0 103.934 1.124l2.727-8.182a2.044 2.044 0 00-.521-2.008l-4.872-6.053c-.559-.56-2.318-1.103-3.596-1.103z" fill="#ba9b48"></path><path fill="#704e34" d="M31 11h1v28h-1z"></path><path d="M25.085 15.5c-.194 0-.393-.038-.572-.11l-6.384-2.9a1.555 1.555 0 01-.883-2.018 1.541 1.541 0 012.009-.86L25 12.268l5.261-2.604a1.55 1.55 0 012.076.691 1.55 1.55 0 01-.691 2.074l-5.867 2.908c-.22.108-.453.163-.694.163z" fill="#ffeea3"></path><path d="M18.682 10c.125 0 .248.023.366.067l5.524 2.555.434.201.429-.212 5.047-2.498a1.047 1.047 0 011.406.465 1.047 1.047 0 01-.464 1.402l-5.87 2.91a1.063 1.063 0 01-.814.053l-6.446-2.927a1.04 1.04 0 01-.573-.559 1.04 1.04 0 01-.01-.799c.16-.4.541-.658.971-.658m0-1a2.046 2.046 0 00-.76 3.945l6.404 2.909a2.056 2.056 0 001.674-.07l5.869-2.909a2.046 2.046 0 10-1.83-3.659l-5.047 2.498-5.552-2.567A2.023 2.023 0 0018.682 9z" fill="#ba9b48"></path><g><circle cx="21.5" cy="4.5" r="3" fill="#ffeea3"></circle><path d="M21.5 2C22.879 2 24 3.122 24 4.5S22.879 7 21.5 7 19 5.878 19 4.5 20.122 2 21.5 2m0-1a3.5 3.5 0 100 7 3.5 3.5 0 000-7z" fill="#ba9b48"></path></g><g><path d="M13.305 19.5c-.154 0-.306-.021-.451-.063l-3.758-.923a2.081 2.081 0 01-1.288-1.036c-.336-.616-.361-1.318-.242-1.71l.263-.87c.894-2.952 5.389-5.395 7.305-5.395.146 0 .271.015.37.043l1.566.466c.295.085.356.197.377.234.13.239-.002.757-.131 1.181l-2.65 7.174c-.167.541-.723.899-1.361.899z" fill="#99c99e"></path><path d="M15.133 10.004c.136 0 .207.016.223.021l1.581.471a.974.974 0 01.064.021c.001.094-.023.3-.155.739l-2.65 7.173-.01.028-.009.028c-.103.338-.517.515-.872.515-.107 0-.212-.015-.35-.053l-3.703-.908a1.606 1.606 0 01-1.004-.798c-.285-.523-.278-1.081-.203-1.328l.262-.869c.819-2.707 5.081-5.04 6.826-5.04m0-1c-2.142 0-6.817 2.557-7.784 5.75l-.263.869c-.29.962.104 2.866 1.89 3.377l3.74.918c.193.055.392.082.589.082.811 0 1.594-.454 1.829-1.225l2.661-7.201c.291-.96.404-1.757-.582-2.04l-1.571-.468a1.867 1.867 0 00-.509-.062z" fill="#5e9c76"></path></g><g><path d="M16.35 23.059a2.845 2.845 0 01-2.695-3.739l2.403-7.889a2.825 2.825 0 012.231-1.878l.101-.019.188-.024c.033 0 .199.002.239.005.343.012.598.053.83.13.284.101 3.013 1.456 4.846 2.376l.006 3.361-3.281-1.491-2.177 7.236a2.834 2.834 0 01-2.691 1.932z" fill="#ffb5d2"></path><path d="M18.657 10.008c.039 0 .077.003.116.006l.027.002.028.001c.266.009.476.042.642.097.296.114 2.454 1.18 4.523 2.217l.004 2.274-2.051-.932-1.041-.473-.33 1.095-2.004 6.66a2.339 2.339 0 01-2.96 1.483 2.35 2.35 0 01-1.473-2.985l2.391-7.851a2.332 2.332 0 011.844-1.556l.066-.011.035-.008.076-.01.068-.008.039-.001m0-1a1.3 1.3 0 00-.108.004c-.066.004-.13.015-.196.023-.049.008-.097.014-.145.026a3.327 3.327 0 00-2.628 2.226l-2.399 7.876a3.341 3.341 0 006.339 2.111l2.013-6.688 2.794 1.269c.108.044.414.148.632.148l.042-.001-.008-4.286S20.2 9.305 19.806 9.174a3.327 3.327 0 00-.943-.154 1.805 1.805 0 00-.206-.012z" fill="#ea4c89"></path></g><g><path d="M14.402 22.592c-.658-.659-1.128-1.946-.758-3.353l5.583 2.44 2.844 3.718-2.877 1.968-4.792-4.773z" fill="#4e5e6d"></path><path d="M14.025 19.951l4.883 2.134 2.445 3.196-2.1 1.436-4.497-4.479c-.465-.466-.816-1.311-.731-2.287m-.681-1.389c-.734 1.829-.143 3.534.706 4.384l5.085 5.065 3.654-2.499-3.243-4.239-6.202-2.711z" fill="#36404d"></path></g></svg>