<svg viewBox="0 0 40 40" xmlns="http://www.w3.org/2000/svg"><path d="M9.5 38.5V34c0-6.393 2.29-9.5 7-9.5h7c5.514 0 10 4.262 10 9.5v4.5h-24z" fill="#8bb7f0"></path><path d="M23.5 25c5.238 0 9.5 4.037 9.5 9v4H10v-4c0-8.067 3.71-9 6.5-9h7m0-1h-7C10.701 24 9 28.477 9 34v5h25v-5c0-5.523-4.701-10-10.5-10z" fill="#4e7ab5"></path><path d="M10.892 38.5l7.715-4.115 6.817-9.697c.577.106 1.135.257 1.669.451L22.64 38.5H10.892z" fill="#e1ebf2"></path><path d="M25.646 25.242c.277.06.549.13.815.212L22.279 38h-9.388l5.846-3.118.21-.112.137-.195 6.562-9.333M25 24.114v.309L18.267 34 9 38.942c.167.035.339.058.517.058H23l4.718-14.154A10.805 10.805 0 0025 24.114z" fill="#788b9c"></path><path d="M15.5 38.5v-6h7c1.654 0 3 1.346 3 3s-1.346 3-3 3h-7z" fill="#f5ce85"></path><path d="M22.5 33c1.378 0 2.5 1.122 2.5 2.5S23.878 38 22.5 38H16v-5h6.5m0-1H15v7h7.5a3.5 3.5 0 100-7z" fill="#967a44"></path><path d="M7.5 38.5a1.993 1.993 0 01-1.521-.706 2.018 2.018 0 01-.451-1.637l.831-4.089a9.485 9.485 0 018.236-7.571h.085L21.215 38.5H7.5z" fill="#fff"></path><path d="M14.377 25.029L20.43 38H7.501c-.439 0-.855-.193-1.14-.53a1.506 1.506 0 01-.346-1.196l.834-4.107a8.986 8.986 0 017.528-7.138M15 24h-.462a10.015 10.015 0 00-8.67 7.968l-.834 4.107C4.781 37.606 5.956 39 7.501 39H22l-7-15z" fill="#788b9c"></path><g><path d="M20 26.5c-3.003 0-4.24-1.774-4.5-2.213v-5.43h9v5.431c-.257.434-1.494 2.212-4.5 2.212z" fill="#deb974"></path><path d="M24 19.358v4.788c-.324.486-1.461 1.854-4 1.854-2.53 0-3.673-1.369-4-1.857v-4.786h8m1-.999H15v6.058S16.267 27 20 27s5-2.584 5-2.584v-6.058z" fill="#967a44"></path></g><g><path d="M26.071 16.357c-1.063 0-1.928-.865-1.928-1.929s.865-1.929 1.928-1.929c1.78 0 1.929.553 1.929 1.119 0 1.171-.954 2.739-1.929 2.739zm-12.142 0c-.975 0-1.929-1.568-1.929-2.738 0-.566.149-1.119 1.929-1.119a1.93 1.93 0 010 3.857z" fill="#deb974"></path><path d="M26.071 13c1.429 0 1.429.315 1.429.619 0 .962-.814 2.238-1.429 2.238a1.43 1.43 0 01-1.429-1.429A1.432 1.432 0 0126.071 13m-12.142 0a1.43 1.43 0 011.429 1.429 1.43 1.43 0 01-1.429 1.429c-.614 0-1.429-1.276-1.429-2.238 0-.305 0-.62 1.429-.62m12.142-1a2.429 2.429 0 100 4.858c1.341 0 2.429-1.897 2.429-3.238S27.413 12 26.071 12zm-12.142 0c-1.341 0-2.429.278-2.429 1.619s1.087 3.238 2.429 3.238a2.429 2.429 0 100-4.857z" fill="#967a44"></path></g><g><path d="M20 23.5a1.99 1.99 0 01-1.416-.588l-.096-.096-.131-.034A6.497 6.497 0 0113.5 16.5V8.364a2.84 2.84 0 012.836-2.837h7.328A2.84 2.84 0 0126.5 8.364V16.5a6.497 6.497 0 01-4.857 6.282l-.131.034-.096.096A1.99 1.99 0 0120 23.5z" fill="#f5ce85"></path><path d="M23.664 6.028A2.339 2.339 0 0126 8.364V16.5a5.996 5.996 0 01-4.483 5.798l-.263.069-.192.193c-.284.283-.661.44-1.062.44s-.778-.157-1.062-.441l-.192-.193-.263-.069A5.994 5.994 0 0114 16.5V8.364a2.339 2.339 0 012.336-2.336h7.328m0-1h-7.328A3.336 3.336 0 0013 8.364V16.5c0 3.253 2.223 5.981 5.23 6.766.453.453 1.079.734 1.77.734s1.317-.281 1.77-.734C24.777 22.481 27 19.753 27 16.5V8.364a3.336 3.336 0 00-3.336-3.336z" fill="#967a44"></path></g><g><path d="M26.5 14.5v-3.129c0-3.323-2.461-4.208-2.566-4.244l-.33-.113-.221.271c-.021.026-2.188 2.645-5.269 2.645-.245 0-.497-.008-.75-.016-.266-.008-.532-.017-.793-.017-.919 0-3.072 0-3.072 2.418V14.5h-.188C12.958 13.739 12 11.462 12 9.086 12 4.619 15.29 1.5 20 1.5c3.167 0 4.509 2.297 4.564 2.395l.099.174.192.06C26.206 4.535 28 5.533 28 9.485c0 1.147-.881 3.763-1.346 5.015H26.5z" fill="#a6714e"></path><path d="M20 2c2.856 0 4.08 2.056 4.127 2.137l.197.353.387.117c1.298.392 2.789 1.301 2.789 4.879 0 .518-.215 1.434-.5 2.401v-.516c0-3.676-2.785-4.676-2.903-4.717l-.66-.224-.441.538c-.02.025-2.049 2.46-4.882 2.46-.239 0-.486-.008-.734-.015-.27-.008-.542-.016-.808-.016-.877 0-3.534 0-3.572 2.854-.272-.921-.5-2.033-.5-3.164C12.5 4.914 15.584 2 20 2m0-1c-5.053 0-8.5 3.457-8.5 8.086C11.5 12.152 13 15 13 15h1v-2.686c0-1.689 1.205-1.918 2.573-1.918.509 0 1.041.032 1.541.032 3.369 0 5.657-2.828 5.657-2.828S26 8.366 26 11.371V15h1s1.5-3.889 1.5-5.514c0-3.923-1.709-5.296-3.5-5.837C25 3.649 23.519 1 20 1z" fill="#7a4f34"></path></g></svg>