<svg viewBox="0 0 40 40" xmlns="http://www.w3.org/2000/svg"><path d="M4 23.5c-.827 0-1.5-.673-1.5-1.5V4c0-.827.673-1.5 1.5-1.5h12.5v8h-4.602l8.099 9.256L28.24 10.5H23.5v-8H36c.827 0 1.5.673 1.5 1.5v18c0 .827-.673 1.5-1.5 1.5H4z" fill="#f5ce85"></path><path d="M36 3c.551 0 1 .449 1 1v18c0 .551-.449 1-1 1H4c-.551 0-1-.449-1-1V4c0-.551.449-1 1-1h12v7H10.796l1.451 1.659 7 8 .746.853.753-.846 7.125-8L29.355 10H24V3h12m0-1H23v9h4.125L20 19l-7-8h4V2H4a2 2 0 00-2 2v18a2 2 0 002 2h32a2 2 0 002-2V4a2 2 0 00-2-2z" fill="#c29653"></path><path fill="none" stroke="#c19554" stroke-miterlimit="10" d="M31.5 28v9.5H36"></path><path fill="none" stroke="#c29653" stroke-miterlimit="10" d="M5 28.5h7M8.5 38v-9.5M21.5 28v10M28.5 38v-2.5l-1.633-7h-.734l-1.633 7V38M24.5 36h4M13.5 38v-9.5H16c1.375 0 2.5 1.125 2.5 2.5v0c0 1.375-1.125 2.5-2.5 2.5h-2.5"></path><path fill="none" stroke="#c29653" stroke-miterlimit="10" d="M16 33.5l2.5 4.292V38"></path></svg>