<svg viewBox="0 0 40 40" xmlns="http://www.w3.org/2000/svg"><path d="M29.5 18c4.135 0 7.5 3.364 7.5 7.5S33.635 33 29.5 33 22 29.636 22 25.5s3.365-7.5 7.5-7.5m0-2c-5.247 0-9.5 4.253-9.5 9.5s4.253 9.5 9.5 9.5 9.5-4.253 9.5-9.5-4.253-9.5-9.5-9.5z" fill="#c8d1db"></path><path d="M29.5 17c4.687 0 8.5 3.813 8.5 8.5S34.187 34 29.5 34 21 30.187 21 25.5s3.813-8.5 8.5-8.5m0-1c-5.247 0-9.5 4.253-9.5 9.5s4.253 9.5 9.5 9.5 9.5-4.253 9.5-9.5-4.253-9.5-9.5-9.5z" fill="#66798f"></path><path d="M6.5 26c1.93 0 3.5 1.57 3.5 3.5S8.43 33 6.5 33 3 31.43 3 29.5 4.57 26 6.5 26m0-2a5.5 5.5 0 100 11 5.5 5.5 0 100-11z" fill="#c8d1db"></path><path d="M6.5 25c2.481 0 4.5 2.019 4.5 4.5S8.981 34 6.5 34 2 31.981 2 29.5 4.019 25 6.5 25m0-1a5.5 5.5 0 100 11 5.5 5.5 0 100-11z" fill="#66798f"></path><path fill="none" stroke="#c74343" stroke-miterlimit="10" d="M11 13l3 5"></path><circle cx="6.5" cy="29.5" r="1.5" fill="#66798f"></circle><circle cx="29.5" cy="25.5" r="2.5" fill="#66798f"></circle><path d="M26.5 14.5l-5.128.833c-5.705.917-10.498 4.087-12.84 9.22L6.5 29.5M26.5 13.5c0 5.511 3 12 3 12" fill="none" stroke="#c74343" stroke-linecap="round" stroke-miterlimit="10"></path><path d="M26.5 13.554v-2.288c0-1.405 1.281-1.877 2-3.766.339-.891-.316-2-1.27-2H21" fill="none" stroke="#66798f" stroke-miterlimit="10"></path><g><path d="M8.887 14.279A1.39 1.39 0 018.89 11.5h6.604a2.496 2.496 0 01-2.217 2.299l-4.235.471a1.369 1.369 0 01-.155.009z" fill="#ffc49c"></path><path d="M14.88 12a2 2 0 01-1.659 1.303l-4.233.47A.889.889 0 118.889 12h5.991M16 11H8.889a1.89 1.89 0 10.209 3.766l4.233-.47A3 3 0 0016 11.315V11z" fill="#a16a4a"></path></g></svg>