<svg viewBox="0 0 40 40" xmlns="http://www.w3.org/2000/svg"><path d="M3.224 9.98l28.284.022h.065L31.61 10c.168 0 1.034.029 1.635.597.442.419.657 1.019.657 1.836 0 10.968 2.173 16.982 2.755 17.993.906 1.571 1.824 3.727 1.054 5.081-.523.921-1.945 1.493-3.69 1.493l-8.614-.181C17.045 36.819 2 18.34 2 12c0-1.232.894-1.903 1.204-2.018l.02-.002m-.061-1L3 9c-.648.162-2 1.187-2 3 0 6.832 15.407 25.819 24.407 25.819L34 38c2.205 0 3.895-.792 4.581-1.999.806-1.417.449-3.461-1.058-6.075-.52-.902-2.622-6.85-2.622-17.493 0-1.091-.326-1.952-.969-2.562C33.08 9.065 31.95 9 31.61 9c-.062 0-.098.002-.101.002L3.163 8.98z" fill="#36404d"></path><path d="M5 37.5a.5.5 0 01-.5-.5V8a.5.5 0 01.5-.5h24a.5.5 0 01.5.5v29a.5.5 0 01-.5.5H5z" fill="#788b9c"></path><path d="M29 8v29H5V8h24m0-1H5a1 1 0 00-1 1v29a1 1 0 001 1h24a1 1 0 001-1V8a1 1 0 00-1-1z" fill="#66798f"></path><path fill="#e1ebf2" d="M6.5 1.5h21v22h-21z"></path><path d="M27 2v21H7V2h20m1-1H6v23h22V1z" fill="#a3b7cc"></path><path fill="#8bb7f0" d="M9.5 1.5h15v11h-15z"></path><path d="M24 2v10H10V2h14m1-1H9v12h16V1z" fill="#4e7ab5"></path><circle cx="22" cy="10" r="1" fill="#4e7ab5"></circle><path fill="#8bb7f0" d="M9.5 15.5h8v4h-8z"></path><path d="M17 16v3h-7v-3h7m1-1H9v5h9v-5z" fill="#4e7ab5"></path><path d="M22.5 19.5c-1.141 0-2-.86-2-2s.859-2 2-2 2 .86 2 2-.86 2-2 2z" fill="#8bb7f0"></path><path d="M22.5 16c.869 0 1.5.631 1.5 1.5s-.631 1.5-1.5 1.5-1.5-.631-1.5-1.5.631-1.5 1.5-1.5m0-1c-1.417 0-2.5 1.083-2.5 2.5s1.083 2.5 2.5 2.5 2.5-1.083 2.5-2.5-1.083-2.5-2.5-2.5z" fill="#4e7ab5"></path><path fill="#839cb2" d="M21.5 3.5h1v1h-1z"></path><path fill="#36404d" d="M23 3h-2v2h2V3z"></path><path fill="#839cb2" d="M21.5 6.5h1v1h-1z"></path><path fill="#36404d" d="M23 6h-2v2h2V6z"></path><path fill="#e1ebf2" d="M8 28h1v9H8zM25 28h1v9h-1z"></path><path fill="#c2e8ff" d="M11 16h1v3h-1zM13 16h1v3h-1zM15 16h1v3h-1z"></path><path fill="#a3b7cc" d="M8 37h1v1H8zM25 37h1v1h-1z"></path><g><path fill="#839cb2" d="M12.5 3.5h7v6h-7z"></path><path d="M19 4v5h-6V4h6m1-1h-8v7h8V3z" fill="#66798f"></path></g><g><path fill="#a3b7cc" d="M29 28H5l1-6h22z"></path></g></svg>