<svg viewBox="0 0 40 40" xmlns="http://www.w3.org/2000/svg"><path fill="#ffeea3" d="M10.874 18.5L20 2.986 29.126 18.5z"></path><path d="M20 3.972L28.252 18H11.748L20 3.972M20 2L10 19h20L20 2z" fill="#ba9b48"></path><path fill="#ffeea3" d="M.874 35.5L10 19.986 19.126 35.5z"></path><path d="M10 20.972L18.252 35H1.748L10 20.972M10 19L0 36h20L10 19z" fill="#ba9b48"></path><g><path fill="#ffeea3" d="M20.874 35.5L30 19.986 39.126 35.5z"></path><path d="M30 20.972L38.252 35H21.748L30 20.972M30 19L20 36h20L30 19z" fill="#ba9b48"></path></g></svg>