<svg viewBox="0 0 40 40" xmlns="http://www.w3.org/2000/svg"><path fill="#c2e8ff" stroke="#788b9c" stroke-miterlimit="10" d="M4.5 35.5h31v-31h0l-31 31z"></path><path d="M35 28v7h-7v-7h7m1-1h-9v9h9v-9z" fill="#788b9c"></path><circle cx="35.5" cy="35.5" r="2" fill="#8bb7f0"></circle><path d="M35.5 34c.827 0 1.5.673 1.5 1.5s-.673 1.5-1.5 1.5-1.5-.673-1.5-1.5.673-1.5 1.5-1.5m0-1a2.5 2.5 0 100 5 2.5 2.5 0 000-5z" fill="#788b9c"></path><circle cx="35.5" cy="4.5" r="2" fill="#8bb7f0"></circle><path d="M35.5 3c.827 0 1.5.673 1.5 1.5S36.327 6 35.5 6 34 5.327 34 4.5 34.673 3 35.5 3m0-1a2.5 2.5 0 100 5 2.5 2.5 0 000-5zM13.008 26.285l-.012 1.426a11.727 11.727 0 012.991 7.288l.992 1c.009-.141.021-.281.021-.425 0-3.66-1.543-6.943-3.992-9.289z" fill="#788b9c"></path><g><circle cx="4.5" cy="35.5" r="2" fill="#8bb7f0"></circle><path d="M4.5 34c.827 0 1.5.673 1.5 1.5S5.327 37 4.5 37 3 36.327 3 35.5 3.673 34 4.5 34m0-1a2.5 2.5 0 100 5 2.5 2.5 0 000-5z" fill="#788b9c"></path></g></svg>