<svg viewBox="0 0 40 40" xmlns="http://www.w3.org/2000/svg"><path fill="#e1ebf2" d="M33.5 1.5h5v37h-5z"></path><path d="M38 2v36h-4V2h4m1-1h-6v38h6V1z" fill="#788b9c"></path><path fill="#e1ebf2" d="M17.14 36.925l10.734-35.41 4.785 1.451-10.734 35.41z"></path><path d="M28.209 2.141l3.828 1.161-10.446 34.451-3.828-1.161L28.209 2.141M27.542.894L16.516 37.259 22.258 39 33.284 2.635 27.542.894z" fill="#788b9c"></path><g><path fill="#e1ebf2" d="M2.485 35.817L21.102 3.574l4.33 2.5L6.817 38.318z"></path><path d="M21.286 4.256l3.464 2L6.634 37.634l-3.464-2L21.286 4.256M20.92 2.89L1.804 36 7 39 26.116 5.89l-5.196-3z" fill="#788b9c"></path></g><g><path fill="#f78f8f" d="M5.207 11.5l2.118-2.118L2.103 4.16l2.071-2.071 5.222 5.223L11.5 5.207V11.5z"></path><path d="M4.174 2.796l4.515 4.515.707.707.707-.707.897-.897V11H6.414l.911-.911.707-.707-.707-.707L2.81 4.16l1.364-1.364m0-1.414L1.396 4.16l5.222 5.222L4 12h8V4L9.396 6.604 4.174 1.382z" fill="#c74343"></path></g></svg>