<svg viewBox="0 0 40 40" xmlns="http://www.w3.org/2000/svg"><path fill="#bae0bd" d="M16.207 31.5l3.489-3.489L5.004 12.34l11.971-1.995L9.113 1.5h9.655l10.266 12.133-14.017 2.003 7.959 9.095 3.524-3.524V31.5z"></path><path d="M18.536 2l9.533 11.266-12.21 1.744-1.825.261 1.214 1.388 7 8 .704.804.756-.756L26 22.414V31h-8.586l2.293-2.293.685-.685-.662-.706L6.007 12.679l10.157-1.693 1.786-.298-1.203-1.353L10.227 2h8.309M19 1H8l8 9-12 2 15 16-4 4h12V20l-4 4-7-8 14-2L19 1z" fill="#5e9c76"></path><path d="M31 23.5a5.507 5.507 0 014-5.288v-1.025c-2.865.678-5 3.241-5 6.313 0 2.011.914 3.808 2.348 5a6.486 6.486 0 00-2.348 5c0 .605.089 1.188.244 1.744A6.478 6.478 0 0028.5 35a6.476 6.476 0 00-4.5 1.816A6.476 6.476 0 0019.5 35a6.5 6.5 0 00-6 4h1.107a5.502 5.502 0 014.893-3c1.423 0 2.775.546 3.807 1.537l.693.666.693-.666A5.474 5.474 0 0128.5 36c.486 0 .982.07 1.475.207l1.706.475-.475-1.706A5.566 5.566 0 0131 33.5c0-1.639.724-3.181 1.987-4.231l.925-.769-.925-.769A5.488 5.488 0 0131 23.5z" fill="#c74343"></path></svg>