<svg viewBox="0 0 40 40" xmlns="http://www.w3.org/2000/svg"><path fill="#66798f" d="M25.042 5L29 0h-1.275l-3.959 5zM15 5h1.281l-4-5H11zM5 34h6a1 1 0 011 1v3a1 1 0 01-1 1H5a1 1 0 01-1-1v-3a1 1 0 011-1zM29 34h6a1 1 0 011 1v3a1 1 0 01-1 1h-6a1 1 0 01-1-1v-3a1 1 0 011-1z"></path><path d="M4.5 36.5V8c0-1.93 1.57-3.5 3.5-3.5h4.536l.118-.333A2.5 2.5 0 0115 2.5h10a2.5 2.5 0 012.346 1.667l.118.333H32c1.93 0 3.5 1.57 3.5 3.5v28.5h-31z" fill="#8bb7f0"></path><path d="M25 3c.837 0 1.59.536 1.874 1.335L27.11 5H32c1.654 0 3 1.346 3 3v28H5V8c0-1.654 1.346-3 3-3H12.89l.236-.665A1.998 1.998 0 0115 3h10m0-1H15a2.99 2.99 0 00-2.816 2H8a4 4 0 00-4 4v29h32V8a4 4 0 00-4-4h-4.184A2.99 2.99 0 0025 2z" fill="#4e7ab5"></path><path fill="#c2e8ff" d="M4.5 8.5h31v16h-31z"></path><path d="M35 9v15H5V9h30m1-1H4v17h32V8z" fill="#4e7ab5"></path><path fill="#fff" d="M28 30h5v3h-5zM7 30h5v3H7z"></path><g><path d="M2 20.5a.5.5 0 01-.5-.5v-5a.5.5 0 01.5-.5h2.5v6H2z" fill="#8bb7f0"></path><path d="M4 15v5H2v-5h2m1-1H2a1 1 0 00-1 1v5a1 1 0 001 1h3v-7z" fill="#4e7ab5"></path></g><g><path d="M35.5 20.5v-6H38a.5.5 0 01.5.5v5a.5.5 0 01-.5.5h-2.5z" fill="#8bb7f0"></path><path d="M38 15v5h-2v-5h2m0-1h-3v7h3a1 1 0 001-1v-5a1 1 0 00-1-1z" fill="#4e7ab5"></path></g></svg>