<svg viewBox="0 0 40 40" xmlns="http://www.w3.org/2000/svg"><path d="M22.462 38.5l-1.964-24.54a.499.499 0 00-.996 0L17.538 38.5H10.5v-36h19v36h-7.038z" fill="#c0b3df"></path><path d="M29 3v35h-6.077l-1.926-24.08a1.001 1.001 0 00-1.994 0L17.077 38H11V3h18m1-1H10v37h8l2-25 2 25h8V2z" fill="#8b75a1"></path><path d="M10.5 9.5s6-.266 6-6M29.5 9.5s-6-.266-6-6" fill="#c0b3df" stroke="#8b75a1" stroke-linejoin="round" stroke-miterlimit="10"></path><path fill="#8b75a1" d="M10 1h20v3H10z"></path><path fill="#ffeea3" d="M18.5 1.5h3v3h-3z"></path><path d="M21 2v2h-2V2h2m.5-1h-3a.5.5 0 00-.5.5v3a.5.5 0 00.5.5h3a.5.5 0 00.5-.5v-3a.5.5 0 00-.5-.5z" fill="#ba9b48"></path><path fill="#c0b3df" stroke="#8b75a1" stroke-linejoin="round" stroke-miterlimit="10" d="M12.5 1.5h2v3h-2zM25.5 1.5h2v3h-2z"></path></svg>