<svg viewBox="0 0 40 40" xmlns="http://www.w3.org/2000/svg"><path fill="#edd5f2" d="M6.5 37.5v-35h18.293l8.707 8.707V37.5z"></path><path d="M24.586 3L33 11.414V37H7V3h17.586M25 2H6v36h28V11l-9-9z" fill="#95709c"></path><path fill="#fff" d="M24.5 11.5v-9h.293l8.707 8.707v.293z"></path><path d="M25 3.414L32.586 11H25V3.414M25 2h-1v10h10v-1l-9-9zM13.331 18.96h-1.547v-1.573h4.811v1.573h-1.561v7.189h-1.703V18.96zM19.351 18.96h-1.547v-1.573h4.81v1.573h-1.56v7.189h-1.703V18.96zM23.899 17.387h3.81v1.482h-2.106v2.249h1.977v1.417h-1.977v3.614H23.9v-8.762z" fill="#95709c"></path></svg>