<svg viewBox="0 0 40 40" xmlns="http://www.w3.org/2000/svg"><path fill="#fff" d="M2.5 2.5h35v35h-35z"></path><path d="M37 3v34H3V3h34m1-1H2v36h36V2z" fill="#788b9c"></path><path fill="#f78f8f" d="M2.5 2.5h35v5h-35z"></path><path d="M37 3v4H3V3h34m1-1H2v6h36V2z" fill="#c74343"></path><path fill="#e1ebf2" d="M3 34h34v3H3z"></path><path d="M20.39 17.334h-3.219v9.625h-1.859v-9.625h-3.211v-1.578h8.289v1.578zM27.546 26.959h-1.812v-1.266h-.031c-.526.969-1.344 1.453-2.453 1.453-1.891 0-2.836-1.136-2.836-3.406v-4.781h1.812v4.594c0 1.438.555 2.156 1.664 2.156.536 0 .978-.198 1.324-.594s.52-.914.52-1.555v-4.602h1.812v8.001z" fill="#36404d"></path></svg>