<svg viewBox="0 0 40 40" xmlns="http://www.w3.org/2000/svg"><path d="M29.015 33.55c-5.431 0-9.936-.815-13.389-2.424C10.234 28.615 7.5 24.198 7.5 18 7.5 2.29 23.389 1.494 26.574 1.494c.256 0 .398.006.405.006 2.538.017 8.898.62 9.479 3.125-2.116.617-3.866 2.117-4.55 2.764l.68.733c.497-.45 1.822-1.452 3.885-1.603-.484 4.491-7.174 5.977-7.244 5.992-.084 0-10.859.762-10.729 8.497.132 7.743 12.931 8.464 13.476 8.491H34.5v4H32c-.21 0-.498.007-.853.017-.557.015-1.283.034-2.132.034z" fill="#c2e8ff"></path><path d="M26.574 1.994c.238 0 .373.005.419.006 3.195.022 7.739.776 8.786 2.322-1.974.721-3.56 2.084-4.198 2.688a4.22 4.22 0 00-.334.331l1.478 1.347c.009-.009.084-.087.198-.196.403-.365 1.397-1.123 2.933-1.394-.927 3.433-6.036 4.758-6.668 4.909-3.968.266-11.299 2.475-11.188 9.01.139 8.205 13.387 8.954 14 8.983h2v3h-2c-.213 0-.505.007-.865.017-.554.014-1.275.033-2.12.033C19.428 33.05 8 30.439 8 18 8 2.765 23.473 1.994 26.574 1.994m0-1C23.679.994 7 1.701 7 18c0 14.812 15.103 16.05 22.015 16.05 1.388 0 2.446-.05 2.985-.05h3v-5h-3s-12.875-.636-13-8 10.333-8 10.333-8S37 11.367 37 6c-2.534 0-4.156 1.216-4.748 1.751C32.089 7.906 32 8 32 8s.085-.097.252-.249C32.913 7.126 34.796 5.5 37 5c0-3.938-10-4-10-4s-.151-.006-.426-.006z" fill="#7496c4"></path><path d="M26.998 5.5a.5.5 0 010-1h1.159c-.324.5-.763 1-1.159 1z" fill="#4b6477"></path><path d="M29 4h-2.002a1 1 0 000 2C28.121 6 29 4 29 4z" fill="#36404d"></path><path d="M32 7a1 1 0 101 1h-1V7z" fill="#c2e8ff"></path><path d="M32 7a1 1 0 101 1h-1V7z" fill="#7496c4"></path><path d="M34 31.006c-.846.002-1.933.003-2-.003-15.931 0-18.719-7.12-18.715-7.366.475.231.778.363 1.715.363 2.1 0 2-3.427 2-6.997h-1C16 20.518 15.961 23 15 23c-1.203 0-4-2.447-4-3.61 0-1.474 3.241-3.844 3.39-3.992 1.515-2.644 3.525-4.94 7.435-6.325.476 1.548 1.215 2.961 2.348 4.067.357-.139.715-.264 1.073-.375-2.766-2.307-3.224-6.639-3.254-10.346-3.249.581-7.374 1.942-10.303 5.112a16.285 16.285 0 00-2.875 4.976C8.301 14.091 8 15.904 8 18c0 11.476 9.727 14.585 18.762 14.997.081 0 .157.006.238.006h4.759L32 33h2v-1.994z" fill="#8bb7f0"></path><path d="M19.694 22.5c-.341 0-.678-.008-.994-.017a6.34 6.34 0 01-.2-1.491c-.028-1.689.479-3.183 1.507-4.438a8.47 8.47 0 01.807-.761c.686 1.298 2.146 4.614 1.546 6.1-.091.227-.56.607-2.666.607z" fill="#7496c4"></path><path d="M20.663 16.6c.706 1.477 1.677 4.01 1.255 5.069-.032.034-.366.331-2.226.331-.199 0-.397-.003-.59-.007a5.89 5.89 0 01-.102-1.01c-.027-1.58.423-2.918 1.376-4.09.091-.099.187-.197.287-.293m.296-1.555c-.48.354-.932.75-1.339 1.193C18.607 17.473 17.967 19.032 18 21a6.82 6.82 0 00.321 1.972c.418.012.891.028 1.371.028 1.381 0 2.815-.136 3.131-.921.839-2.078-1.567-6.597-1.864-7.034z" fill="#4e7ab5"></path><g><path d="M8.141 23.167c-1.348-.563-4.059-2.109-7.544-6.233 2.397-4.525 6.755-6.888 9.334-7.945C8.316 11.461 7.5 14.484 7.5 18l.011.367a3.492 3.492 0 00-.011.229c0 1.635.215 3.168.641 4.571z" fill="#7496c4"></path><path d="M8.726 10.08C7.579 12.354 7 15.005 7 18c0 .083.003.164.006.245l.004.098-.003.063a2.907 2.907 0 00-.007.19c0 1.282.129 2.505.384 3.655-1.398-.765-3.542-2.307-6.184-5.38 1.951-3.477 5.105-5.595 7.526-6.791m2.605-2.132C9.29 8.588 3.012 10.984 0 17c4.468 5.373 7.835 6.729 8.942 6.958C8.327 22.385 8 20.606 8 18.596c0-.083.009-.158.01-.241C8.008 18.236 8 18.121 8 18c0-4.495 1.352-7.723 3.331-10.052z" fill="#4e7ab5"></path></g><g fill="none" stroke="#4e7ab5" stroke-miterlimit="10"><path d="M8 13c-2.633 1.468-4.241 3.397-6 6M7.393 16.939C5.817 18.192 5.115 19 4 21"></path></g><g><path d="M39.403 38.488c-5.347-.227-6.615-3.487-6.86-4.366l2.098-2.62-2.105-2.633c.472-1.931 3.501-4.145 6.942-4.353-.268 3.164-2.852 6.675-2.879 6.712l-.216.291.209.296c.021.031 2.091 2.993 2.811 6.673z" fill="#7496c4"></path><path d="M38.902 25.075c-.494 2.846-2.68 5.821-2.704 5.854l-.432.583.419.592c.02.028 1.794 2.562 2.589 5.839-4.08-.399-5.33-2.76-5.672-3.717l1.68-2.098.5-.624-.5-.625-1.693-2.118c.559-1.577 3.031-3.308 5.813-3.686M40 24c-3.833 0-7.625 2.504-8 5l2 2.502L32 34s.875 5 8 5c-.625-4.119-3-7.474-3-7.474s3-4.031 3-7.526z" fill="#4e7ab5"></path></g></svg>