<svg viewBox="0 0 40 40" xmlns="http://www.w3.org/2000/svg"><path d="M2.5 37.5V20c0-9.65 7.851-17.5 17.5-17.5S37.5 10.35 37.5 20v17.5h-35z" fill="#8bb7f0"></path><path d="M20 3c9.374 0 17 7.626 17 17v17H3V20c0-9.374 7.626-17 17-17m0-1C10.059 2 2 10.059 2 20v18h36V20c0-9.941-8.059-18-18-18z" fill="#4e7ab5"></path><path fill="#c8d1db" d="M2.5 37.5v-.244L20.162 24.5H29.5v.303l8 12.345v.352z"></path><path d="M29.032 25l.129.199L36.808 37h-33.1l16.615-12h8.709M30 24H20L2 37v1h36v-1l-8-12.345V24z" fill="#66798f"></path><path d="M19.5 24.5v-5c0-2.757 2.243-5 5-5s5 2.243 5 5v5h-10z" fill="#c2e8ff"></path><path d="M24.5 15c2.481 0 4.5 2.019 4.5 4.5V24h-9v-4.5c0-2.481 2.019-4.5 4.5-4.5m0-1a5.5 5.5 0 00-5.5 5.5V25h11v-5.5a5.5 5.5 0 00-5.5-5.5z" fill="#4e7ab5"></path><path fill="#fff" d="M25.171 25h-1l-6.172 12h3z"></path><path fill="#c8d1db" d="M19 32h8.308v1H19zM20.692 27H29v1h-8.308z"></path></svg>