<svg viewBox="0 0 40 40" xmlns="http://www.w3.org/2000/svg"><path d="M2.5 37.5v-1.696c0-.953.529-1.81 1.382-2.236l6.336-3.168h10.563l6.336 3.168a2.485 2.485 0 011.382 2.236V37.5H2.5z" fill="#bcb2de"></path><path d="M20.664 30.9l6.23 3.115A1.99 1.99 0 0128 35.804V37H3v-1.196a1.99 1.99 0 011.106-1.789l6.231-3.115h10.327m.236-1H10.1l-6.442 3.221A3 3 0 002 35.804V38h27v-2.196a3 3 0 00-1.658-2.683L20.9 29.9z" fill="#8b75a1"></path><path d="M16 33.5C8.005 33.5 1.5 26.995 1.5 19S8.005 4.5 16 4.5 30.5 11.005 30.5 19 23.995 33.5 16 33.5z" fill="#dcd5f2"></path><path d="M16 5c7.72 0 14 6.28 14 14s-6.28 14-14 14S2 26.72 2 19 8.28 5 16 5m0-1C7.716 4 1 10.716 1 19s6.716 15 15 15 15-6.716 15-15S24.284 4 16 4z" fill="#8b75a1"></path><path fill="#dcd5f2" d="M16.5 4.5h20v7h-20z"></path><path d="M36 5v6H17V5h19m1-1H16v8h21V4z" fill="#8b75a1"></path><path d="M18 11h-3V5.803c0-.444.359-.803.803-.803H18v6zM37 12.5c-.827 0-1.5-.673-1.5-1.5V5c0-.827.673-1.5 1.5-1.5s1.5.673 1.5 1.5v6c0 .827-.673 1.5-1.5 1.5z" fill="#dcd5f2"></path><path d="M37 4c.551 0 1 .449 1 1v6c0 .551-.449 1-1 1s-1-.449-1-1V5c0-.551.449-1 1-1m0-1a2 2 0 00-2 2v6a2 2 0 104 0V5a2 2 0 00-2-2z" fill="#8b75a1"></path><circle cx="16" cy="20" r="8.5" fill="#bcb2de"></circle><path d="M16 12c4.411 0 8 3.589 8 8s-3.589 8-8 8-8-3.589-8-8 3.589-8 8-8m0-1c-4.971 0-9 4.029-9 9s4.029 9 9 9 9-4.029 9-9-4.029-9-9-9z" fill="#8b75a1"></path><path fill="none" stroke="#8b75a1" stroke-miterlimit="10" d="M18.135 27.969l-4.27-15.938M23.969 22.135l-15.938-4.27M21.834 14.166L10.166 25.834M23.969 17.865l-15.938 4.27M18.135 12.031l-4.27 15.938M10.166 14.166l11.668 11.668"></path><g><circle cx="16" cy="20" r="2.5" fill="#dcd5f2"></circle><path d="M16 18c1.103 0 2 .897 2 2s-.897 2-2 2-2-.897-2-2 .897-2 2-2m0-1a3 3 0 100 6 3 3 0 000-6z" fill="#8b75a1"></path></g></svg>