<svg viewBox="0 0 40 40" xmlns="http://www.w3.org/2000/svg"><path d="M24.25 32.5c-.733-1.018-1.407-2.581-1.777-3.662l-.169-.495-.487.192c-1.212.477-2.731.965-4.817.965-1.901 0-4.297-.398-5.825-.969l-.48-.179-.167.485c-.401 1.167-1.092 2.707-1.777 3.662H4.952c.987-1.627 1.345-3.449 1.543-4.917l.052-.382-.357-.147c-.466-.192-1.742-.553-3.237-.553H1.791c.649-.918 2.163-1.811 4.255-2.002l.524-.048-.075-.521c-.088-.604.272-1.485.419-1.774l.049-.096.005-.108c.22-5.085 3.464-7.664 9.64-7.664 1.873 0 2.81.273 3.801.563 1.098.319 2.233.65 4.591.65h.353l.118-.332c1.1-3.088 4.985-7.668 8.101-7.668 3.316 0 4.929 2.057 4.929 6.286 0 2.048-1.57 3.714-3.5 3.714-1.166 0-2.059-.29-2.653-.86l-.303-.29-.338.246C28.3 19.077 26.5 22.329 26.5 26c0 2.63.52 4.812 1.547 6.5H24.25z" fill="#bae0bd"></path><path d="M33.571 8C35.473 8 38 8.6 38 13.786 38 15.528 36.626 17 35 17c-1.032 0-1.809-.243-2.307-.721l-.604-.58-.677.493C27.871 18.771 26 22.163 26 26c0 2.348.404 4.357 1.205 6h-2.693c-.611-.922-1.208-2.278-1.566-3.323l-.339-.991-.974.384c-1.225.483-2.634.93-4.633.93-1.849 0-4.173-.385-5.65-.937l-.961-.359-.334.97c-.362 1.051-.961 2.409-1.567 3.326H5.794c.725-1.489 1.022-3.054 1.197-4.35l.104-.765-.714-.294c-.489-.201-1.807-.578-3.349-.591.734-.493 1.795-.889 3.059-1.004l1.05-.096-.151-1.043c-.057-.394.183-1.102.37-1.476l.098-.193.009-.216c.207-4.768 3.282-7.186 9.14-7.186 1.802 0 2.663.251 3.661.543C21.347 15.643 22.57 16 25 16h.705l.237-.664C26.97 12.45 30.709 8 33.571 8m0-1c-3.456 0-7.469 4.904-8.571 8-4.453 0-4.396-1.214-8.393-1.214-7.548 0-9.954 3.865-10.139 8.143 0 0-.597 1.179-.468 2.071-2.604.238-4.613 1.544-5 3h1.953c1.518 0 2.736.388 3.047.516-.268 1.981-.76 3.908-2 5.484h5c.808-1.028 1.582-2.784 2-4 1.562.583 4.004 1 6 1 2.003 0 3.521-.417 5-1 .418 1.223 1.187 2.966 2 4h5c-1.526-1.941-2-4.482-2-7 0-3.728 1.928-6.761 5-9 .781.75 1.895 1 3 1 2.249 0 4-1.966 4-4.214C39 11.114 38.364 7 33.571 7z" fill="#5e9c76"></path><circle cx="34.5" cy="12.5" r="1.5" fill="#36404d"></circle><g><path d="M6 25.5c-.827 0-1.5-.673-1.5-1.5 0-.572.324-1.086.845-1.341l.278-.132.389-.201-.149-.412c-.6-1.656-.325-3.803.733-5.742 1.179-2.156 3.158-3.826 5.574-4.702 1.608-.582 3.208-.878 4.755-.878 3.274 0 5.806 1.371 6.605 3.578l.119.33H25c.675 0 1.233.414 1.423 1.055.053.173.077.312.077.445 0 .295-.142.641-.273.866-.979 1.683-5.643 4.251-9.402 5.666-5.232 1.969-8.8 2.968-10.605 2.968H6z" fill="#d6aa70"></path><path d="M16.925 10.092v1c3.058 0 5.409 1.245 6.135 3.248l.239.66H25c.448 0 .818.274.947.708.036.118.053.21.053.292 0 .182-.106.445-.207.616-.809 1.392-4.997 3.886-9.146 5.448C11.471 24.012 7.962 25 6.219 25H6c-.551 0-1-.449-1-1 0-.38.216-.722.555-.887l.09-.041c.074-.034.148-.068.209-.1l.778-.404-.299-.824c-.552-1.523-.289-3.517.703-5.332 1.119-2.049 3.004-3.637 5.306-4.471 1.531-.555 3.116-.848 4.584-.848v-1.001m-.001 0c-1.545 0-3.223.291-4.925.908-5.464 1.979-7.914 7.478-6.608 11.084-.077.04-.178.083-.267.125A1.995 1.995 0 006 26h.219c2.078 0 5.992-1.198 10.781-3 3.875-1.458 8.595-4.052 9.658-5.881.134-.229.342-.676.342-1.119 0-.206-.04-.4-.098-.587A1.958 1.958 0 0025 14h-1c-.9-2.483-3.66-3.908-7.075-3.908z" fill="#7a4f34"></path></g></svg>