<svg viewBox="0 0 40 40" xmlns="http://www.w3.org/2000/svg"><path d="M20 13a8 8 0 11-8 8 8 8 0 018-8m0-1a9 9 0 109 9 9 9 0 00-9-9z" fill="#a3b7cc"></path><path fill="none" stroke="#c5d4de" stroke-miterlimit="10" d="M22 27L34 3M18 27L6 3"></path><path d="M16.5 31.5V27a1.5 1.5 0 011.5-1.5h4a1.5 1.5 0 011.5 1.5v4.5z" fill="#dcd5f2"></path><path d="M22 26a1 1 0 011 1v4h-6v-4a1 1 0 011-1h4m0-1h-4a2 2 0 00-2 2v5h8v-5a2 2 0 00-2-2z" fill="#8b75a1"></path><path d="M10.5 38.5V35a6.51 6.51 0 016.5-6.5h6a6.51 6.51 0 016.5 6.5v3.5z" fill="#dcd5f2"></path><path d="M23 29a6 6 0 016 6v3H11v-3a6 6 0 016-6h6m0-1h-6a7 7 0 00-7 7v4h20v-4a7 7 0 00-7-7z" fill="#8b75a1"></path><circle cx="6" cy="3" r="1.5" fill="#e1ebf2"></circle><path d="M6 2a1 1 0 11-1 1 1 1 0 011-1m0-1a2 2 0 102 2 2 2 0 00-2-2z" fill="#a3b7cc"></path><circle cx="34" cy="3" r="1.5" fill="#e1ebf2"></circle><path d="M34 2a1 1 0 11-1 1 1 1 0 011-1m0-1a2 2 0 102 2 2 2 0 00-2-2z" fill="#a3b7cc"></path></svg>