<svg viewBox="0 0 40 40" xmlns="http://www.w3.org/2000/svg"><path fill="#b0c1d4" d="M16.5 26.5h7v7h-7z"></path><path d="M23 27v6h-6v-6h6m1-1h-8v8h8v-8z" fill="#66798f"></path><path fill="#dbf2ff" d="M1.5 6.5h37v23h-37z"></path><path d="M38 7v22H2V7h36m1-1H1v24h38V6z" fill="#66798f"></path><path d="M10.5 35.5V35c0-1.379 1.122-2.5 2.5-2.5h14c1.378 0 2.5 1.121 2.5 2.5v.5h-19z" fill="#b0c1d4"></path><path d="M27 33c1.103 0 2 .897 2 2H11c0-1.103.897-2 2-2h14m0-1H13a3 3 0 00-3 3v1h20v-1a3 3 0 00-3-3z" fill="#66798f"></path><path fill="none" stroke="#4e7ab5" stroke-width="2" stroke-miterlimit="10" d="M20 18.25V12M17 14.028A4.957 4.957 0 0015 18a5 5 0 0010 0c0-1.63-.791-3.062-2-3.972"></path></svg>