<svg viewBox="0 0 40 40" xmlns="http://www.w3.org/2000/svg"><path d="M3.714 32.5a.85.85 0 01-.606-.251l-1.357-1.357a.853.853 0 01-.251-.606.85.85 0 01.251-.606l6.524-8.257c3.909-4.949 8.887-9.267 15.667-13.585l9.183-5.849.039-.039c.29-.291.675-.45 1.085-.45s.796.159 1.085.45l2.715 2.714a1.537 1.537 0 010 2.172c-.183.183-.423.303-.754.376l-.063.014-7.975 4.075c-8.077 4.127-14.124 8.647-19.031 14.228l-5.929 6.744a.838.838 0 01-.583.227z" fill="#8bb7f0"></path><path d="M34.25 2c.277 0 .537.108.732.303l1.054 1.054 1.661 1.661a1.037 1.037 0 010 1.465c-.112.112-.274.189-.51.242l-.124.028-.113.057-7.919 4.046c-8.136 4.157-14.23 8.714-19.179 14.343l-5.901 6.712a.358.358 0 01-.49-.016l-1.357-1.357a.358.358 0 01.001-.504l.041-.041.036-.046 6.485-8.213c3.872-4.904 8.811-9.185 15.544-13.473l9.136-5.82.092-.059.077-.077A1.03 1.03 0 0134.25 2m0-1a2.03 2.03 0 00-1.439.596l-9.136 5.82c-6.026 3.838-11.364 8.09-15.791 13.697l-6.485 8.213c-.53.53-.53 1.389 0 1.919l1.357 1.357a1.354 1.354 0 001.918.001l5.929-6.744c5.312-6.042 11.719-10.453 18.883-14.113L37.404 7.7c.364-.081.716-.227.999-.511a2.036 2.036 0 000-2.879l-2.714-2.714A2.03 2.03 0 0034.25 1z" fill="#4e7ab5"></path><path d="M7.786 38.5a.85.85 0 01-.606-.251l-1.357-1.357a.858.858 0 010-1.212l8.635-6.308a42.724 42.724 0 0013.278-16l5.024-10.51.012-.07c.059-.361.188-.637.393-.841.289-.292.675-.451 1.085-.451s.796.159 1.085.45l2.715 2.714a1.537 1.537 0 010 2.172l-.054.054-4.881 9.324a41.583 41.583 0 01-15.201 16.218l-9.48 5.775-.042.042a.853.853 0 01-.606.251z" fill="#c2e8ff"></path><path d="M34.25 2c.277 0 .537.108.732.303l.953.953 1.762 1.762a1.037 1.037 0 010 1.465l-.108.107-.071.135-4.846 9.255a41.081 41.081 0 01-15.018 16.024l-9.429 5.744-.102.062-.085.085a.356.356 0 01-.505 0l-1.357-1.357a.356.356 0 01-.035-.466l8.611-6.298a43.217 43.217 0 0013.434-16.189L33.18 3.143l.062-.129.023-.141c.041-.254.124-.44.253-.569.195-.196.455-.304.732-.304m0-1a2.03 2.03 0 00-1.439.596c-.313.313-.467.709-.533 1.115l-4.993 10.444a42.08 42.08 0 01-13.122 15.813L5.47 35.326c-.53.53-.53 1.389 0 1.919l1.357 1.357c.264.266.611.398.959.398s.695-.132.96-.397l9.429-5.744a42.067 42.067 0 0015.383-16.414l4.846-9.255a2.036 2.036 0 000-2.879L35.69 1.597A2.03 2.03 0 0034.25 1z" fill="#7496c4"></path><path fill="#c2e8ff" d="M26 16h7v1h-7z"></path><path fill="#7496c4" d="M33 16h-7v1h7v-1z"></path><g><path fill="#c2e8ff" d="M24 19h7v1h-7z"></path><path fill="#7496c4" d="M31 19h-7v1h7v-1z"></path></g><g><path fill="#c2e8ff" d="M21.78 22H29v1h-7.22z"></path><path fill="#7496c4" d="M29 22h-7.22v1H29v-1z"></path></g><g><path fill="#c2e8ff" d="M19 25h7.5v1H19z"></path><path fill="#7496c4" d="M26.5 25H19v1h7.5v-1z"></path></g></svg>