<svg viewBox="0 0 40 40" xmlns="http://www.w3.org/2000/svg"><path d="M12.951 35c-3.459 0-6.842-.822-9.895-2.394a16.04 16.04 0 009.795-3.443l1.106-.867-1.405-.026a7.297 7.297 0 01-6.524-4.306 8.301 8.301 0 002.885-.262l2.038-.557-2.071-.416c-3.154-.633-5.503-3.28-5.816-6.435.94.398 1.956.624 2.979.657l1.748.056-1.454-.972A7.282 7.282 0 013.09 9.964c0-1.048.225-2.081.654-3.025a22.715 22.715 0 0015.944 7.751l.661.033-.148-.645a7.431 7.431 0 01-.188-1.665c0-4.023 3.273-7.296 7.296-7.296 2.01 0 3.951.84 5.326 2.304l.189.202.272-.054a16.047 16.047 0 003.853-1.279 6.948 6.948 0 01-2.594 2.742l-.397.237.364.731.364-.016c.988-.121 1.94-.328 2.875-.628a15.246 15.246 0 01-2.744 2.547l-.218.157.011.27c.014.327.021.657.021.987 0 5.265-2.037 10.595-5.588 14.624C26.206 31.162 21.11 35 12.951 35z" fill="#c2e8ff"></path><path d="M27.309 5.617c1.873 0 3.681.782 4.961 2.146l.379.404.543-.107a16.754 16.754 0 002.364-.649c-.422.464-.91.864-1.459 1.192l-.789.508.427.833.318.621.693-.085a16.11 16.11 0 001.256-.203 14.82 14.82 0 01-1.478 1.22l-.436.315.023.538c.014.32.021.643.021.966 0 5.145-1.991 10.354-5.463 14.294-2.77 3.143-7.745 6.889-15.718 6.889-2.727 0-5.406-.524-7.906-1.533a16.51 16.51 0 008.115-3.411l2.213-1.735-2.811-.052a6.8 6.8 0 01-5.693-3.277 8.772 8.772 0 002.176-.308l4.073-1.114-4.14-.831c-2.663-.534-4.71-2.61-5.287-5.182.755.235 1.543.37 2.335.395l3.495.113-2.908-1.944A6.788 6.788 0 013.59 9.964c0-.713.112-1.418.328-2.089a23.202 23.202 0 0015.746 7.314l1.322.066-.297-1.29a6.942 6.942 0 01-.176-1.552c-.001-3.747 3.048-6.796 6.796-6.796m0-1a7.797 7.797 0 00-7.796 7.796c0 .611.07 1.206.201 1.776-6.48-.324-12.224-3.429-16.07-8.145a7.767 7.767 0 00-1.054 3.92 7.793 7.793 0 003.467 6.488 7.772 7.772 0 01-3.531-.975v.098a7.798 7.798 0 006.254 7.644 7.774 7.774 0 01-3.521.135 7.806 7.806 0 007.283 5.415 15.635 15.635 0 01-9.682 3.338c-.629 0-1.249-.036-1.86-.109A22.066 22.066 0 0012.951 35.5c14.34 0 22.181-11.88 22.181-22.182 0-.337-.008-.674-.022-1.009A15.864 15.864 0 0039 8.273a15.167 15.167 0 01-4.375 1.215l-.014-.027c1.61-.964 2.756-2.453 3.339-4.274a15.626 15.626 0 01-4.951 1.892 7.786 7.786 0 00-5.69-2.462z" fill="#7496c4"></path></svg>