<svg viewBox="0 0 40 40" xmlns="http://www.w3.org/2000/svg"><path d="M20.69 32.5a2.192 2.192 0 01-2.19-2.19V3.69c0-1.208.982-2.19 2.19-2.19h13.62c1.208 0 2.19.982 2.19 2.19v26.62c0 1.208-.982 2.19-2.19 2.19H20.69z" fill="#dcd5f2"></path><path d="M34.31 2c.932 0 1.69.758 1.69 1.69v26.62c0 .932-.758 1.69-1.69 1.69H20.69c-.932 0-1.69-.758-1.69-1.69V3.69c0-.932.758-1.69 1.69-1.69h13.62m0-1H20.69A2.69 2.69 0 0018 3.69v26.62A2.69 2.69 0 0020.69 33h13.62A2.69 2.69 0 0037 30.31V3.69A2.69 2.69 0 0034.31 1z" fill="#8b75a1"></path><path fill="#f2faff" d="M18.5 4.5h18v25h-18z"></path><path d="M36 5v24H19V5h17m1-1H18v26h19V4z" fill="#8b75a1"></path><g><path d="M5.69 38.5a2.192 2.192 0 01-2.19-2.19V9.69c0-1.208.982-2.19 2.19-2.19h13.62c1.208 0 2.19.982 2.19 2.19v26.62c0 1.208-.982 2.19-2.19 2.19H5.69z" fill="#ffc49c"></path><path d="M19.31 8c.932 0 1.69.758 1.69 1.69v26.62c0 .932-.758 1.69-1.69 1.69H5.69C4.758 38 4 37.242 4 36.31V9.69C4 8.758 4.758 8 5.69 8h13.62m0-1H5.69A2.69 2.69 0 003 9.69v26.62A2.69 2.69 0 005.69 39h13.62A2.69 2.69 0 0022 36.31V9.69A2.69 2.69 0 0019.31 7z" fill="#a16a4a"></path></g><g><path fill="#f2faff" d="M3.5 10.5h18v25h-18z"></path><path d="M21 11v24H4V11h17m1-1H3v26h19V10z" fill="#a16a4a"></path></g></svg>