<svg viewBox="0 0 40 40" xmlns="http://www.w3.org/2000/svg"><path d="M17.086 31.379a2.503 2.503 0 00-3.465-3.465L10.707 25 30 5.707l2.914 2.914a2.503 2.503 0 003.465 3.465L39.293 15 20 34.293l-2.914-2.914z" fill="#f5ce85"></path><path d="M30 6.414l2.292 2.292a3.004 3.004 0 004.002 4.002L38.586 15 20 33.586l-2.292-2.292a3.004 3.004 0 00-4.002-4.002L11.414 25 30 6.414M30 5L10 25l3.586 3.586a2 2 0 112.828 2.828L20 35l20-20-3.586-3.586a2 2 0 11-2.828-2.828L30 5z" fill="#967a44"></path><g><path d="M7.086 31.379a2.503 2.503 0 00-3.465-3.465L.707 25 20 5.707l2.914 2.914a2.503 2.503 0 003.465 3.465L29.293 15 10 34.293l-2.914-2.914z" fill="#f5ce85"></path><path d="M20 6.414l2.292 2.292a3.004 3.004 0 004.002 4.002L28.586 15 10 33.586l-2.292-2.292a3.004 3.004 0 00-4.002-4.002L1.414 25 20 6.414M20 5L0 25l3.586 3.586a2 2 0 112.828 2.828L10 35l20-20-3.586-3.586a2 2 0 11-2.828-2.828L20 5z" fill="#967a44"></path></g></svg>