<svg viewBox="0 0 40 40" xmlns="http://www.w3.org/2000/svg"><path fill="#fff" d="M6.5 37.5v-35h18.293l8.707 8.707V37.5z"></path><path d="M24.586 3L33 11.414V37H7V3h17.586M25 2H6v36h28V11l-9-9z" fill="#788b9c"></path><path fill="#fff" d="M24.5 11.5v-9h.293l8.707 8.707v.293z"></path><path d="M25 3.414L32.586 11H25V3.414M25 2h-1v10h10v-1l-9-9z" fill="#788b9c"></path><path d="M19.875 24l.45-.477C21.592 22.201 23 20.854 23 19c0-1.414-.948-3-3.347-3-.997 0-2.164.529-2.671.833l.405 1.66c.389-.228 1.169-.618 1.862-.618.912 0 1.75.445 1.75 1.25 0 1.414-2.581 3.624-4 5.25V26h6v-2h-3.124z" fill="#4e7ab5"></path></svg>