<svg viewBox="0 0 40 40" xmlns="http://www.w3.org/2000/svg"><path fill="#dcd5f2" d="M6.5 37.5v-35h18.293l8.707 8.707V37.5z"></path><path d="M24.586 3L33 11.414V37H7V3h17.586M25 2H6v36h28V11l-9-9z" fill="#8b75a1"></path><path fill="#fff" d="M24.5 11.5v-9h.293l8.707 8.707v.293z"></path><path d="M25 3.414L32.586 11H25V3.414M25 2h-1v10h10v-1l-9-9z" fill="#8b75a1"></path><path d="M13.465 19.364h-1.547v-1.573h4.811v1.573h-1.56v7.189h-1.703v-7.189zM20.849 26.554l-.546-1.612a22.19 22.19 0 01-.468-1.56h-.039c-.143.559-.273 1.092-.403 1.586l-.468 1.586h-1.69l1.638-4.485-1.573-4.278h1.768l.52 1.625c.13.455.26.91.39 1.404h.026c.143-.533.26-.949.377-1.43l.442-1.6h1.703l-1.638 4.355 1.729 4.407h-1.768zM24.619 19.364h-1.547v-1.573h4.81v1.573h-1.56v7.189h-1.703v-7.189z" fill="#7c6394"></path></svg>