<svg viewBox="0 0 40 40" xmlns="http://www.w3.org/2000/svg"><path fill="#fff" d="M8.5 1.5h23v18h-23z"></path><path d="M31 2v17H9V2h22m1-1H8v19h24V1z" fill="#788b9c"></path><path fill="#66798f" d="M1 19h38v1H1z"></path><path fill="#839cb2" d="M1.5 17.5h1v4h-1z"></path><path d="M2 18v3-3m1-1H1v5h2v-5z" fill="#66798f"></path><path fill="#839cb2" d="M37.5 17.5h1v4h-1z"></path><path d="M38 18v3-3m1-1h-2v5h2v-5z" fill="#66798f"></path><path d="M8 38.5c-1.93 0-3.5-1.57-3.5-3.5V15.5h10.039c.358 2.202 3.095 2.999 5.461 2.999 2.541 0 5.104-.932 5.458-2.999H35.5V35c0 1.93-1.57 3.5-3.5 3.5H8z" fill="#f5ce85"></path><path d="M35 16v19c0 1.654-1.346 3-3 3H8c-1.654 0-3-1.346-3-3V16h9.146c.637 2.063 3.255 2.999 5.854 2.999s5.218-.936 5.854-2.999H35m1-1H25c0 2.219-2.829 2.999-5 2.999S15 17.25 15 15H4v20a4 4 0 004 4h24a4 4 0 004-4V15z" fill="#c29653"></path><path d="M8 35.5a.5.5 0 01-.5-.5v-9.5h25V35a.5.5 0 01-.5.5H8z" fill="#839cb2"></path><path d="M32 26v9H8v-9h24m1-1H7v10a1 1 0 001 1h24a1 1 0 001-1V25z" fill="#66798f"></path><path d="M20 21.499c-4.631 0-8.441-1.401-9.5-1.83v-.333c1.252-.524 4-1.847 4-3.336v-.5h.039c.482 2.964 5.248 3 5.461 3s4.979-.036 5.461-3h.039v.5c0 1.489 2.748 2.812 4 3.336v.333c-1.059.429-4.869 1.83-9.5 1.83z" fill="#839cb2"></path><path d="M25.317 17.034c.635 1.041 2.103 1.896 3.274 2.447-1.555.558-4.782 1.518-8.592 1.518-3.795 0-7.031-.961-8.59-1.519 1.171-.551 2.638-1.405 3.273-2.446C15.873 18.542 18.356 19 20 19s4.127-.458 5.317-1.966M26 15h-1c0 3-5 3-5 3s-5 0-5-3h-1v1c0 1.42-4 3-4 3v1s4.376 1.999 10 1.999S30 20 30 20v-1s-4-1.58-4-3v-1z" fill="#66798f"></path><path fill="#f2faff" d="M15 33h10v1H15zM12 33h1v1h-1zM9 33h1v1H9zM9 30h1v1H9zM9 27h1v1H9zM12 30h1v1h-1zM12 27h1v1h-1zM15 30h1v1h-1zM15 27h1v1h-1zM18 30h1v1h-1zM18 27h1v1h-1zM21 30h1v1h-1zM21 27h1v1h-1zM24 30h1v1h-1zM24 27h1v1h-1zM27 30h1v1h-1zM27 27h1v1h-1zM30 30h1v1h-1zM27 33h1v1h-1zM30 33h1v1h-1zM30 27h1v1h-1z"></path></svg>