<svg viewBox="0 0 40 40" xmlns="http://www.w3.org/2000/svg"><path d="M12.134 36.5A2.637 2.637 0 019.5 33.866V4.134A2.637 2.637 0 0112.134 1.5h15.732A2.637 2.637 0 0130.5 4.134v29.732a2.637 2.637 0 01-2.634 2.634H12.134z" fill="#b0c1d4"></path><path d="M27.866 2C29.043 2 30 2.957 30 4.134v29.732A2.136 2.136 0 0127.866 36H12.134A2.136 2.136 0 0110 33.866V4.134C10 2.957 10.957 2 12.134 2h15.732m0-1H12.134A3.134 3.134 0 009 4.134v29.732A3.134 3.134 0 0012.134 37h15.732A3.134 3.134 0 0031 33.866V4.134A3.134 3.134 0 0027.866 1z" fill="#66798f"></path><path fill="#f2faff" d="M9.5 5.5h21v27h-21z"></path><path d="M30 6v26H10V6h20m1-1H9v28h22V5z" fill="#66798f"></path><circle cx="20" cy="3.5" r=".5" fill="#66798f"></circle><path fill="#66798f" d="M1 19h38v1H1z"></path><path fill="#839cb2" d="M1.5 17.5h1v4h-1z"></path><path d="M2 18v3-3m1-1H1v5h2v-5z" fill="#66798f"></path><path fill="#839cb2" d="M37.5 17.5h1v4h-1z"></path><path d="M38 18v3-3m1-1h-2v5h2v-5z" fill="#66798f"></path><path d="M8 38.5c-1.93 0-3.5-1.57-3.5-3.5V15.5h10.04c.358 2.203 3.094 3 5.46 3 2.541 0 5.104-.933 5.458-3H35.5V35c0 1.93-1.57 3.5-3.5 3.5H8z" fill="#f5ce85"></path><path d="M35 16v19c0 1.654-1.346 3-3 3H8c-1.654 0-3-1.346-3-3V16h9.146c.636 2.064 3.256 3 5.854 3s5.218-.936 5.854-3H35m1-1H25c0 2.219-2.829 3-5 3s-5-.75-5-3H4v20a4 4 0 004 4h24a4 4 0 004-4V15z" fill="#c29653"></path><path d="M8 35.5a.5.5 0 01-.5-.5v-9.5h25V35a.5.5 0 01-.5.5H8z" fill="#839cb2"></path><path d="M32 26v9H8v-9h24m1-1H7v10a1 1 0 001 1h24a1 1 0 001-1V25z" fill="#66798f"></path><path fill="#f2faff" d="M15 33h10v1H15zM12 33h1v1h-1zM9 33h1v1H9zM9 30h1v1H9zM9 27h1v1H9zM12 30h1v1h-1zM12 27h1v1h-1zM15 30h1v1h-1zM15 27h1v1h-1zM18 30h1v1h-1zM18 27h1v1h-1zM21 30h1v1h-1zM21 27h1v1h-1zM24 30h1v1h-1zM24 27h1v1h-1zM27 30h1v1h-1zM27 27h1v1h-1zM30 30h1v1h-1zM27 33h1v1h-1zM30 33h1v1h-1zM30 27h1v1h-1z"></path><g><path d="M20 21.499c-4.63 0-8.441-1.401-9.5-1.83v-.333c1.251-.524 4-1.847 4-3.336v-.5h.039c.482 2.964 5.248 3 5.461 3s4.979-.036 5.461-3h.039v.5c0 1.489 2.749 2.812 4 3.336v.333c-1.059.429-4.87 1.83-9.5 1.83z" fill="#839cb2"></path><path d="M25.317 17.034c.635 1.041 2.101 1.895 3.273 2.446-1.56.558-4.795 1.519-8.59 1.519s-7.031-.961-8.59-1.519c1.171-.551 2.638-1.405 3.273-2.446C15.873 18.542 18.356 19 20 19s4.127-.458 5.317-1.966M26 15h-1c0 3-5 3-5 3s-5 0-5-3h-1v1c0 1.42-4 3-4 3v1s4.376 1.999 10 1.999S30 20 30 20v-1s-4-1.58-4-3v-1z" fill="#66798f"></path></g></svg>