<svg viewBox="0 0 40 40" xmlns="http://www.w3.org/2000/svg"><path fill="#66798f" d="M1 19h38v1H1z"></path><path fill="#839cb2" d="M1.5 17.5h1v4h-1z"></path><path d="M2 18v3-3m1-1H1v5h2v-5z" fill="#66798f"></path><path fill="#839cb2" d="M37.5 17.5h1v4h-1z"></path><path d="M38 18v3-3m1-1h-2v5h2v-5z" fill="#66798f"></path><path d="M8 38.5c-1.93 0-3.5-1.57-3.5-3.5V15.5l10.04.001c.358 2.203 3.094 3 5.46 3 2.542 0 5.104-.933 5.458-3.001H35.5V35c0 1.93-1.57 3.5-3.5 3.5H8z" fill="#f5ce85"></path><path d="M35 16v19c0 1.654-1.346 3-3 3H8c-1.654 0-3-1.346-3-3V16l9.146.001c.636 2.064 3.256 3 5.854 3 2.599 0 5.218-.937 5.854-3.001H35m1-1H25c0 2.219-2.829 3.001-5 3.001s-5-.75-5-3L4 15v20a4 4 0 004 4h24a4 4 0 004-4V15z" fill="#c29653"></path><path d="M8 35.5a.5.5 0 01-.5-.5v-9.5h25V35a.5.5 0 01-.5.5H8z" fill="#839cb2"></path><path d="M32 26v9H8v-9h24m1-1H7v10a1 1 0 001 1h24a1 1 0 001-1V25z" fill="#66798f"></path><path fill="#f2faff" d="M15 33h10v1H15zM12 33h1v1h-1zM9 33h1v1H9zM9 30h1v1H9zM9 27h1v1H9zM12 30h1v1h-1zM12 27h1v1h-1zM15 30h1v1h-1zM15 27h1v1h-1zM18 30h1v1h-1zM18 27h1v1h-1zM21 30h1v1h-1zM21 27h1v1h-1zM24 30h1v1h-1zM24 27h1v1h-1zM27 30h1v1h-1zM27 27h1v1h-1zM30 30h1v1h-1zM27 33h1v1h-1zM30 33h1v1h-1zM30 27h1v1h-1z"></path><g><path d="M20 21.5c-4.63 0-8.441-1.401-9.5-1.83v-.333c1.251-.524 4-1.847 4-3.336v-.5h.039c.482 2.964 5.248 3 5.461 3s4.979-.036 5.461-3h.039v.5c0 1.489 2.749 2.812 4 3.336v.333c-1.059.429-4.87 1.83-9.5 1.83z" fill="#839cb2"></path><path d="M25.317 17.035c.635 1.041 2.101 1.895 3.273 2.446C27.03 20.039 23.795 21 20 21s-7.031-.961-8.59-1.519c1.171-.551 2.638-1.405 3.273-2.446 1.19 1.508 3.673 1.966 5.317 1.966s4.127-.458 5.317-1.966M26 15.001h-1c0 3-5 3-5 3s-5 0-5-3h-1v1c0 1.42-4 3-4 3v1S14.376 22 20 22s10-1.999 10-1.999v-1s-4-1.58-4-3v-1z" fill="#66798f"></path></g></svg>