<svg viewBox="0 0 40 40" xmlns="http://www.w3.org/2000/svg"><g fill="#4e7ab5"><path d="M19.513 10.5c-.005-.836-.013-2.621-.013-4.5 0-1.275.259-2.246.5-2.875.241.628.5 1.6.5 2.875v4.5h-.987z"></path><path d="M20 2s-1 1.409-1 4 .016 5 .016 5H21V6c0-2.591-1-4-1-4z"></path></g><g fill="#4e7ab5"><path d="M10.174 33.725c.169-.652.524-1.594 1.269-2.634l2.62-3.659.803.575c-.483.683-1.516 2.138-2.61 3.666-.75 1.047-1.523 1.684-2.082 2.052z"></path><path d="M13.947 26.735L11.036 30.8c-1.508 2.107-1.516 3.834-1.516 3.834s1.633-.563 3.142-2.67c1.508-2.107 2.898-4.074 2.898-4.074l-1.613-1.155z"></path></g><g fill="#4e7ab5"><path d="M10.752 17.77c-.803-.233-2.516-.731-4.318-1.265-1.224-.362-2.083-.887-2.617-1.297.16-.013.338-.021.535-.021.764 0 1.561.121 2.366.359l4.314 1.278-.28.946z"></path><path d="M4.352 14.686c-1.017 0-1.611.203-1.611.203s1.067 1.359 3.551 2.095c2.484.736 4.799 1.405 4.799 1.405l.563-1.903-4.794-1.42a8.834 8.834 0 00-2.508-.38z"></path></g><g fill="#4e7ab5"><path d="M29.825 33.72c-.562-.371-1.338-1.009-2.081-2.046a833.774 833.774 0 01-2.609-3.666l.803-.575 2.62 3.659c.742 1.036 1.097 1.976 1.267 2.628z"></path><path d="M26.053 26.735L24.44 27.89s1.39 1.968 2.898 4.074c1.508 2.107 3.142 2.67 3.142 2.67s-.007-1.728-1.516-3.834l-2.911-4.065z"></path></g><g fill="#4e7ab5"><path d="M28.967 16.823l4.314-1.278a8.369 8.369 0 012.366-.359c.196 0 .375.008.535.021-.534.41-1.393.935-2.617 1.297a818.338 818.338 0 01-4.318 1.265l-.28-.946z"></path><path d="M35.648 14.686c-.669 0-1.522.088-2.508.38l-4.794 1.42.563 1.903s2.314-.669 4.799-1.405c2.484-.736 3.551-2.095 3.551-2.095s-.595-.203-1.611-.203z"></path></g><path d="M20.001 38.5c-3.447 0-5.584-.818-5.908-.951-.684-.499-1.037-.944-1.108-1.398-.073-.462.139-1.023.648-1.715a3.205 3.205 0 00.591-2.419 3.224 3.224 0 00-1.318-2.131 3.317 3.317 0 00-4.592.717c-.793 1.077-1.312 1.201-1.634 1.201-.399 0-.871-.207-1.524-.671-.229-.265-1.677-2.023-2.719-5.208-1.068-3.218-.946-5.481-.918-5.833.452-1.341 1.002-1.618 1.688-1.618.327 0 .725.074 1.181.22.329.105.669.159 1.012.159 1.43 0 2.688-.905 3.129-2.251.27-.822.202-1.7-.192-2.472a3.258 3.258 0 00-1.925-1.629c-.873-.279-1.396-.609-1.601-1.01-.194-.38-.16-.929.112-1.775.186-.3 1.437-2.22 4.206-4.194 2.764-1.999 5.004-2.582 5.345-2.663 1.648.008 2.235.362 2.235 2.255 0 1.795 1.476 3.255 3.29 3.255s3.29-1.46 3.29-3.255c0-1.689.545-2.244 2.235-2.255.342.081 2.581.664 5.342 2.661 2.787 1.987 4.025 3.897 4.208 4.196.271.846.306 1.395.112 1.775-.205.4-.729.73-1.601 1.01a3.26 3.26 0 00-1.925 1.629 3.205 3.205 0 00-.19 2.47 3.277 3.277 0 003.129 2.251c.343 0 .683-.053 1.012-.159.456-.146.854-.22 1.181-.22.686 0 1.237.277 1.688 1.618.027.351.15 2.611-.904 5.788-1.054 3.227-2.504 4.988-2.733 5.253-.653.464-1.125.671-1.524.671-.322 0-.841-.125-1.634-1.201a3.314 3.314 0 00-4.592-.717 3.224 3.224 0 00-1.318 2.131 3.209 3.209 0 00.591 2.419c.509.692.722 1.253.648 1.715-.072.454-.424.899-1.108 1.398-.324.133-2.456.951-5.838.951h-.067z" fill="#c2e8ff"></path><path d="M14.533 3.358c1.355.009 1.677.204 1.677 1.755 0 2.07 1.7 3.755 3.79 3.755s3.79-1.684 3.79-3.755c0-1.39.318-1.737 1.68-1.754.443.109 2.512.69 5.109 2.568 2.574 1.836 3.793 3.614 4.039 3.999.206.658.246 1.096.124 1.336-.137.268-.589.531-1.308.761-.97.31-1.757.977-2.218 1.878a3.705 3.705 0 00-.223 2.856 3.778 3.778 0 003.604 2.595c.395 0 .787-.061 1.165-.182.407-.13.753-.196 1.028-.196.326 0 .77 0 1.195 1.219.028.452.089 2.49-.819 5.328l-.081.248-.001.004-.039.118c-.963 2.883-2.254 4.525-2.542 4.868-.524.366-.912.544-1.185.544-.33 0-.744-.336-1.232-.998a3.817 3.817 0 00-5.286-.827 3.724 3.724 0 00-1.52 2.46 3.707 3.707 0 00.683 2.794c.42.57.608 1.021.557 1.34-.047.298-.336.646-.86 1.036-.429.17-2.45.892-5.589.892H19.93c-3.143 0-5.166-.724-5.59-.891-.524-.391-.814-.739-.861-1.037-.05-.319.137-.77.557-1.34.597-.81.839-1.803.683-2.794a3.724 3.724 0 00-1.52-2.46 3.815 3.815 0 00-5.286.827c-.488.662-.902.998-1.232.998-.273 0-.661-.178-1.184-.543-.29-.346-1.563-1.968-2.523-4.812l-.064-.193-.059-.18c-.928-2.871-.865-4.934-.836-5.382.423-1.216.866-1.219 1.192-1.219h.003c.275 0 .621.066 1.028.196.378.121.77.182 1.165.182a3.777 3.777 0 003.604-2.595 3.7 3.7 0 00-.223-2.856 3.753 3.753 0 00-2.218-1.878c-.719-.23-1.171-.493-1.308-.761-.122-.24-.082-.677.124-1.335.25-.391 1.47-2.167 4.044-4.004 2.571-1.86 4.668-2.455 5.107-2.565M25.58 2.357c-1.906 0-2.79.689-2.79 2.755 0 1.521-1.249 2.755-2.79 2.755s-2.79-1.233-2.79-2.755c0-2.238-.891-2.755-2.79-2.755 0 0-2.454.495-5.58 2.755-3.141 2.24-4.374 4.393-4.374 4.393-.585 1.784-.362 2.78 1.795 3.47 1.466.469 2.269 2.022 1.795 3.47a2.79 2.79 0 01-2.654 1.907c-.285 0-.575-.043-.86-.135-.509-.163-.95-.244-1.333-.244-1.114 0-1.744.683-2.181 2.016 0 0-.275 2.44.922 6.048h-.001l.007.02.007.022h.001c1.181 3.613 2.857 5.427 2.857 5.427.7.503 1.295.797 1.861.797.676 0 1.311-.419 2.037-1.405a2.799 2.799 0 012.259-1.135c.569 0 1.143.171 1.639.527a2.732 2.732 0 01.615 3.848c-1.232 1.672-.928 2.742.614 3.849 0 0 2.252 1.013 6.084 1.013h.142c3.832 0 6.084-1.013 6.084-1.013 1.542-1.107 1.846-2.177.615-3.848a2.732 2.732 0 01.615-3.848 2.8 2.8 0 011.639-.527c.862 0 1.713.393 2.259 1.135.726.985 1.361 1.405 2.037 1.405.566 0 1.161-.294 1.861-.797 0 0 1.676-1.813 2.857-5.427h.001l.007-.022.007-.02h-.001c1.197-3.608.922-6.048.922-6.048-.437-1.332-1.067-2.016-2.181-2.016-.383 0-.823.081-1.333.244a2.831 2.831 0 01-.86.135 2.788 2.788 0 01-2.654-1.907c-.475-1.447.329-3.001 1.795-3.47 2.157-.69 2.38-1.686 1.795-3.47 0 0-1.233-2.153-4.374-4.393-3.128-2.261-5.583-2.756-5.583-2.756z" fill="#7496c4"></path><path d="M26.727 36.766c-3.702-.972-6.351-3.526-6.378-3.552L20 32.873l-.35.34c-.027.026-2.686 2.583-6.378 3.552-.415-.559-.464-1.211.36-2.331a3.205 3.205 0 00.591-2.419 3.224 3.224 0 00-1.318-2.131 3.317 3.317 0 00-4.592.717c-.792 1.076-1.312 1.2-1.633 1.2-.236 0-.504-.076-.814-.232-.257-3.981 1.551-7.292 1.57-7.326l.236-.425-.417-.248c-.03-.018-2.969-1.785-4.965-4.782.253-.213.553-.311.936-.311.324 0 .715.073 1.164.216.329.105.669.159 1.012.159 1.43 0 2.688-.905 3.129-2.251.27-.822.202-1.7-.192-2.472A3.258 3.258 0 006.414 12.5c-1.604-.513-1.868-1.115-1.658-2.132 2.924-.804 7.206-.868 7.25-.868l.41-.005.076-.403c.006-.034.641-3.312 2.779-6.169.916.155 1.439.625 1.439 2.189 0 1.795 1.476 3.255 3.29 3.255s3.29-1.46 3.29-3.255c0-1.564.523-2.034 1.439-2.189 2.145 2.865 2.773 6.135 2.779 6.168l.075.403.41.005c.044 0 4.327.064 7.251.866.209 1.017-.054 1.62-1.658 2.132a3.26 3.26 0 00-1.925 1.629 3.212 3.212 0 00-.191 2.474 3.277 3.277 0 003.129 2.251c.343 0 .683-.053 1.012-.159.449-.144.84-.216 1.164-.216.383 0 .682.098.936.311-1.996 2.998-4.935 4.764-4.965 4.782l-.417.248.235.425c.019.034 1.827 3.345 1.57 7.326-.311.156-.579.232-.814.232-.322 0-.841-.125-1.634-1.2a3.313 3.313 0 00-4.591-.717 3.224 3.224 0 00-1.318 2.131 3.209 3.209 0 00.591 2.419c.823 1.121.774 1.774.359 2.333z" fill="#8bb7f0"></path><path d="M24.517 3.481c1.913 2.692 2.494 5.672 2.5 5.703l.15.807.82.01c.042.001 3.976.058 6.823.769.054.542-.195.876-1.376 1.253-.97.31-1.757.977-2.218 1.878a3.705 3.705 0 00-.223 2.856 3.777 3.777 0 003.604 2.595c.395 0 .787-.061 1.165-.182.399-.128.739-.192 1.011-.192.067 0 .129.004.186.011-1.905 2.605-4.443 4.135-4.47 4.151l-.834.496.469.85c.017.032 1.665 3.061 1.524 6.75a1.027 1.027 0 01-.331.067c-.33 0-.744-.335-1.231-.997a3.817 3.817 0 00-5.286-.827 3.724 3.724 0 00-1.52 2.46 3.703 3.703 0 00.683 2.794c.538.731.62 1.152.528 1.449-3.366-.999-5.769-3.301-5.793-3.325L20 32.174l-.698.682c-.025.025-2.41 2.323-5.793 3.325-.093-.297-.011-.718.528-1.449.597-.81.839-1.803.683-2.794a3.724 3.724 0 00-1.52-2.46 3.815 3.815 0 00-5.286.827c-.487.661-.901.997-1.231.997a.996.996 0 01-.331-.067c-.141-3.688 1.507-6.718 1.523-6.748l.474-.851-.838-.496c-.028-.016-2.559-1.534-4.471-4.152.058-.007.12-.011.187-.011.272 0 .612.065 1.011.192.378.121.77.182 1.165.182a3.778 3.778 0 003.604-2.595 3.696 3.696 0 00-.223-2.856 3.761 3.761 0 00-2.219-1.878c-1.18-.377-1.43-.711-1.376-1.253 2.844-.71 6.782-.769 6.824-.769l.818-.012.152-.803c.006-.032.587-3.012 2.5-5.704.461.149.727.519.727 1.631 0 2.07 1.7 3.755 3.79 3.755s3.79-1.684 3.79-3.755c0-1.112.266-1.482.727-1.631m.433-1.092c-1.47.152-2.16.901-2.16 2.723 0 1.521-1.249 2.755-2.79 2.755s-2.79-1.233-2.79-2.755c0-1.822-.69-2.571-2.16-2.723C12.664 5.434 12 9 12 9s-4.638.058-7.665.966c-.39 1.495-.035 2.382 1.925 3.009 1.466.469 2.269 2.022 1.795 3.47a2.79 2.79 0 01-2.654 1.907c-.285 0-.575-.043-.86-.135-.503-.161-.937-.24-1.316-.24-.681 0-1.18.256-1.568.754C3.743 22.072 7 24 7 24s-1.988 3.566-1.611 7.878c.465.272.886.424 1.293.424.676 0 1.311-.419 2.036-1.404a2.799 2.799 0 012.259-1.135c.569 0 1.143.171 1.639.527a2.732 2.732 0 01.615 3.848c-.986 1.339-.972 2.292-.139 3.187 4.035-.95 6.908-3.754 6.908-3.754s2.873 2.804 6.909 3.755c.832-.896.847-1.848-.139-3.187a2.732 2.732 0 01.615-3.848 2.8 2.8 0 011.639-.527c.862 0 1.713.393 2.259 1.135.725.985 1.361 1.404 2.036 1.404.407 0 .828-.152 1.293-.424C34.988 27.566 33 24 33 24s3.257-1.928 5.342-5.269c-.387-.498-.887-.754-1.568-.754-.379 0-.813.079-1.316.24a2.831 2.831 0 01-.86.135 2.789 2.789 0 01-2.654-1.907c-.475-1.447.329-3.001 1.795-3.47 1.96-.627 2.315-1.514 1.925-3.009C32.638 9.058 28 9 28 9s-.664-3.566-3.05-6.611z" fill="#4e7ab5"></path><path fill="none" stroke="#4e7ab5" stroke-miterlimit="10" d="M32.413 23.633L21 21M21 19l6.714-9.497M7.011 23.624L19 21M20 33V20M20.187 19.347L12.215 9.5"></path><circle cx="20" cy="20" r="1.857" fill="#c2e8ff"></circle><path d="M20 18.643c.746 0 1.357.611 1.357 1.357s-.611 1.357-1.357 1.357-1.357-.611-1.357-1.357.611-1.357 1.357-1.357m0-1c-1.3 0-2.357 1.057-2.357 2.357S18.7 22.357 20 22.357 22.357 21.3 22.357 20 21.3 17.643 20 17.643z" fill="#7496c4"></path><g><path d="M21.89 28.5c-.512 0-.893-.157-1.131-.466-.373-.484-.254-1.175-.109-1.723.005-.022.029-.12-.081-.26-.129-.164-.369-.283-.571-.283s-.441.119-.571.283c-.073.093-.099.184-.079.271.152.574.287 1.238-.082 1.716-.236.306-.626.462-1.16.462h-.054L18 28.489a7.964 7.964 0 01-2.928-1.423c-1.335-1.134-2.112-2.247-2.145-2.293l-.045-.065-.022-.076c-.151-.507-.118-.927.098-1.248.331-.49.971-.588 1.545-.642.099-.011.19-.077.263-.193a.861.861 0 00.07-.7c-.115-.357-.413-.56-.637-.56a.285.285 0 00-.152.04c-.393.243-.86.509-1.318.509-.387 0-.901-.179-1.155-1.03-.024-.109-.334-1.69.39-3.599.626-1.938 1.582-2.939 1.623-2.98.375-.29.672-.405.964-.405.871 0 1.215.976 1.38 1.445.068.188.273.217.389.217a.739.739 0 00.432-.141.718.718 0 00.337-.515c.012-.09.016-.258-.097-.374-.367-.378-.869-.896-.819-1.524.029-.375.248-.717.651-1.019.198-.12.872-.412 3.175-.412s2.978.292 3.129.381c.462.316.69.645.728 1.024.061.61-.402 1.088-.85 1.55a.302.302 0 00-.102.253.901.901 0 00.343.635.746.746 0 00.432.141c.116 0 .321-.029.391-.222.164-.464.508-1.44 1.378-1.44.292 0 .588.115.905.353.11.109.978 1.098 1.683 3.039.641 1.982.412 3.467.402 3.529-.272.758-.667 1.094-1.199 1.094-.432 0-.843-.233-1.298-.514a.437.437 0 00-.148-.024c-.264 0-.551.232-.616.498a1.08 1.08 0 00.138.797c.043.063.112.139.197.15.557.052 1.196.15 1.527.64.216.32.25.74.098 1.248l-.021.068-.039.06a10.626 10.626 0 01-2.153 2.307 7.956 7.956 0 01-2.928 1.423l-.053.009h-.053z" fill="#c2e8ff"></path><path d="M19.998 12c2.346 0 2.876.312 2.876.312.908.624.378 1.171-.227 1.795-.454.39-.227 1.249.303 1.639.214.157.476.239.729.239.374 0 .725-.178.86-.551.217-.616.473-1.112.908-1.112.171 0 .37.077.605.253 0 0 .832.937 1.513 2.81.605 1.873.378 3.278.378 3.278-.184.494-.422.674-.706.674-.298 0-.647-.199-1.035-.439a.899.899 0 00-.412-.099c-.496 0-.983.392-1.101.88-.151.624.151 1.483.757 1.561.832.078 1.513.234 1.211 1.249 0 0-.757 1.171-2.043 2.185C23.327 27.688 21.889 28 21.889 28c-.984 0-.984-.702-.757-1.561.151-.624-.53-1.171-1.135-1.171s-1.286.546-1.135 1.171c.228.859.303 1.561-.756 1.561 0 0-1.438-.312-2.724-1.327-1.286-1.093-2.043-2.185-2.043-2.185-.303-1.015.378-1.171 1.211-1.249.681-.078.984-.937.757-1.561-.173-.535-.654-.889-1.107-.889a.793.793 0 00-.406.109c-.388.24-.757.439-1.064.439-.292 0-.529-.179-.676-.674 0 0-.303-1.483.378-3.278.605-1.873 1.513-2.81 1.513-2.81.235-.176.434-.253.605-.253.435 0 .691.496.908 1.112.136.373.487.551.86.551.252 0 .515-.081.729-.239.53-.312.757-1.171.303-1.639-.605-.624-1.059-1.171-.227-1.795-.001 0 .529-.312 2.875-.312m0-1c-2.278 0-3.098.282-3.383.451l-.048.028-.044.033c-.522.392-.808.856-.849 1.38-.065.827.511 1.45.919 1.871a.236.236 0 01-.059.126l-.044.026-.035.026a.25.25 0 01-.096.04c-.196-.54-.67-1.659-1.808-1.659-.399 0-.804.152-1.205.453l-.063.047-.055.057c-.109.113-1.082 1.154-1.739 3.175-.763 2.032-.429 3.737-.414 3.809l.009.043.013.042c.374 1.252 1.268 1.388 1.635 1.388.55 0 1.057-.265 1.497-.532a.371.371 0 01.129.18.418.418 0 01.002.267c-.494.048-1.349.162-1.813.851-.304.451-.359 1.013-.163 1.67l.046.153.091.131c.034.049.847 1.214 2.218 2.378 1.479 1.168 3.091 1.527 3.159 1.542l.1.024h.107c.697 0 1.221-.221 1.557-.657.502-.653.336-1.496.202-2.022a.291.291 0 01.133-.052c.034 0 .091.024.133.052-.153.621-.244 1.401.232 2.018.233.301.686.661 1.527.661h.107l.105-.023a8.506 8.506 0 003.131-1.519 11.164 11.164 0 002.264-2.428l.078-.12.041-.137c.196-.657.141-1.219-.163-1.67-.442-.655-1.238-.79-1.754-.845a.622.622 0 01-.037-.345c.009-.035.065-.088.109-.108.47.286.94.531 1.467.531.429 0 1.213-.172 1.642-1.324l.034-.092.016-.097c.011-.067.258-1.667-.414-3.745-.75-2.064-1.678-3.122-1.718-3.167l-.067-.075-.081-.06c-.401-.301-.806-.453-1.205-.453-1.132 0-1.607 1.105-1.808 1.657a.22.22 0 01-.097-.038.416.416 0 01-.127-.191c.468-.484 1.018-1.083.938-1.895-.052-.527-.36-.987-.913-1.368l-.029-.02-.03-.018c-.283-.168-1.102-.45-3.38-.45z" fill="#4e7ab5"></path></g><g><path d="M20 22c-1.1 0-2-.9-2-2s.9-2 2-2 2 .9 2 2-.9 2-2 2z" fill="#7496c4"></path></g></svg>