<svg viewBox="0 0 40 40" xmlns="http://www.w3.org/2000/svg"><path d="M9.191 28.5l-2.54-8.465c-.323-1.077-.124-2.213.548-3.115S8.9 15.5 10.025 15.5a3.502 3.502 0 013.375 2.511L16.547 28.5H9.191z" fill="#dbf2ff"></path><path d="M10.026 16c1.345 0 2.509.866 2.895 2.154L15.875 28H9.563L7.13 19.891a2.997 2.997 0 01.47-2.673A2.997 2.997 0 0110.026 16m0-1c-2.695 0-4.628 2.598-3.853 5.179L8.819 29h8.4l-3.34-11.133A4.023 4.023 0 0010.026 15z" fill="#66798f"></path><path d="M34.5 38.5v-3h-29v3h-4v-24c0-1.103.897-2 2-2s2 .897 2 2v17h33v7h-4z" fill="#f5ce85"></path><path d="M3.5 13c.827 0 1.5.673 1.5 1.5V32h33v6h-3v-3H5v3H2V14.5c0-.827.673-1.5 1.5-1.5m0-1A2.5 2.5 0 001 14.5V39h5v-3h28v3h5v-8H6V14.5A2.5 2.5 0 003.5 12z" fill="#967a44"></path><path fill="#dbf2ff" d="M5.5 28.5h33v3h-33z"></path><path d="M38 29v2H6v-2h32m1-1H5v4h34v-4z" fill="#66798f"></path><g><path d="M14.5 31.5v-11H32c3.584 0 6.5 2.916 6.5 6.5v4.5h-24z" fill="#8bb7f0"></path><path d="M32 21c3.308 0 6 2.692 6 6v4H15V21h17m0-1H14v12h25v-5a7 7 0 00-7-7z" fill="#4e7ab5"></path></g><g><circle cx="9" cy="11" r="3.5" fill="#ffeea3"></circle><path d="M9 8c1.654 0 3 1.346 3 3s-1.346 3-3 3-3-1.346-3-3 1.346-3 3-3m0-1a4 4 0 100 8 4 4 0 000-8z" fill="#ba9b48"></path></g></svg>