<svg viewBox="0 0 40 40" xmlns="http://www.w3.org/2000/svg"><path d="M4.035 36.5a2.504 2.504 0 01-2.184-1.264 2.55 2.55 0 01-.007-2.572L17.81 4.777A2.5 2.5 0 0120 3.5a2.5 2.5 0 012.19 1.277l15.965 27.887a2.55 2.55 0 01-.007 2.572 2.501 2.501 0 01-2.184 1.264H4.035z" fill="#f78f8f"></path><path d="M20 4c.733 0 1.389.383 1.757 1.025l15.965 27.887c.372.65.37 1.425-.006 2.073A2.007 2.007 0 0135.965 36H4.035a2.007 2.007 0 01-1.751-1.015 2.055 2.055 0 01-.006-2.073L18.243 5.025A2.006 2.006 0 0120 4m0-1a2.998 2.998 0 00-2.625 1.528L1.411 32.415C.244 34.453 1.702 37 4.035 37h31.93c2.333 0 3.791-2.547 2.625-4.585L22.625 4.528A2.998 2.998 0 0020 3z" fill="#c74343"></path><path fill="#fff" d="M5.147 33.5L20 6.977 34.853 33.5z"></path><path d="M20 8l14 25H6L20 8m0-2.047l-.873 1.558-14 25L4.294 34h31.412l-.834-1.489-14-25L20 5.953z" fill="#c74343"></path><path fill="none" stroke="#36404d" stroke-width=".5" stroke-miterlimit="10" d="M15 22l11 7"></path><path d="M20.45 23.673l.638 2.641a.87.87 0 001.704-.357l-.879-3.969c-.053-.26-.2-.49-.415-.647l-1.897-1.38a1.041 1.041 0 00-.375-.172l-2.16-.743a1.068 1.068 0 00-1.127.429l-1.799 2.17a.851.851 0 001.394.976l1.197-1.359.922.307L16 24l-2 8h2l1.474-5 1.158 1.285.585 3.715H21l-.55-4.369-1.26-2.246 1.26-1.712z" fill="#36404d"></path><g><circle cx="22" cy="19" r="2" fill="#36404d"></circle></g><g><path d="M22 32h8c-.789-1.985-2.431-5-3.29-5-.826 0-1.62 3.284-2.269 3.284-.305 0-.714-.316-1.125-.316C22.885 29.968 22 31.324 22 32z" fill="#36404d"></path></g></svg>