<svg viewBox="0 0 40 40" xmlns="http://www.w3.org/2000/svg"><path fill="#dbf2ff" d="M1.5 6.5h37v23h-37z"></path><path d="M38 7v22H2V7h36m1-1H1v24h38V6z" fill="#66798f"></path><path d="M9.52 35.5a7.66 7.66 0 017.73-7h5.5a7.66 7.66 0 017.73 7z" fill="#8bb7f0"></path><path d="M22.75 29a7.18 7.18 0 017.18 6H10.07a7.18 7.18 0 017.18-6h5.5m0-1h-5.5A8.13 8.13 0 009 36h22a8.13 8.13 0 00-8.25-8z" fill="#4e7ab5"></path><path d="M19 27.5a3.5 3.5 0 01-3.5-3.5v-7.09a1.41 1.41 0 011.41-1.41h6.19a1.41 1.41 0 011.41 1.41V24A3.5 3.5 0 0121 27.5z" fill="#ffeea3"></path><path d="M23.09 16a.91.91 0 01.91.91V24a3 3 0 01-3 3h-2a3 3 0 01-3-3v-7.09a.91.91 0 01.91-.91h6.19m0-1h-6.19A1.91 1.91 0 0015 16.91V24a4 4 0 004 4h2a4 4 0 004-4v-7.09A1.91 1.91 0 0023.09 15z" fill="#ba9b48"></path><path d="M20 30.5c-2.3 0-3.23-.69-3.5-.94V18.5h7v11.06c-.26.25-1.19.94-3.5.94z" fill="#e8d47b"></path><path d="M23 19v10.32a5.17 5.17 0 01-3 .68 5.23 5.23 0 01-3-.67V19h6m1-1h-8v11.74S16.82 31 20 31s4-1.26 4-1.26V18z" fill="#ba9b48"></path><path d="M25.15 23.5a1.35 1.35 0 010-2.7c1.35 0 1.35.42 1.35.73 0 .82-.68 1.97-1.35 1.97z" fill="#e8d47b"></path><path d="M25.15 21.3a2.07 2.07 0 01.84.1.4.4 0 010 .13c0 .66-.57 1.47-.85 1.47a.85.85 0 110-1.7m0-1a1.85 1.85 0 000 3.7c1 0 1.85-1.45 1.85-2.47s-.83-1.23-1.85-1.23z" fill="#ba9b48"></path><path d="M14.85 23.5c-.67 0-1.35-1.15-1.35-2 0-.31 0-.73 1.35-.73a1.35 1.35 0 110 2.7z" fill="#e8d47b"></path><path d="M14.85 21.3a.85.85 0 110 1.7c-.28 0-.85-.81-.85-1.47v-.11a1.75 1.75 0 01.84-.12m0-1c-1 0-1.85.21-1.85 1.23S13.83 24 14.85 24a1.85 1.85 0 000-3.7z" fill="#ba9b48"></path><path d="M20 27.5c-2.58 0-3-.79-3.61-2.11l-.14-.28c0-.07-2.75-5-2.75-7.28 0-2.58 2.28-5.33 6.5-5.33a3.59 3.59 0 012.56 1.15l.15.18h.24A3.84 3.84 0 0126.5 18c0 1.75-2 5.71-2.74 7.09l-.15.3C23 26.71 22.59 27.5 20 27.5z" fill="#ffc49c"></path><path d="M20 13a3 3 0 012.18 1l.3.37h.47C24.22 14.33 26 15.47 26 18c0 1.45-1.64 5-2.7 6.88l-.14.28C22.56 26.43 22.28 27 20 27s-2.55-.57-3.16-1.82l-.16-.33c-.74-1.34-2.67-5.2-2.67-7C14 15.49 16.1 13 20 13m0-1c-4.29 0-7 2.8-7 5.83 0 2.48 2.8 7.5 2.8 7.5.75 1.51 1.11 2.67 4.2 2.67s3.45-1.16 4.2-2.67c0 0 2.8-5.07 2.8-7.33a4.35 4.35 0 00-4.05-4.67A4.05 4.05 0 0020 12z" fill="#a16a4a"></path></svg>