<svg viewBox="0 0 40 40" xmlns="http://www.w3.org/2000/svg"><path d="M20.5 34.5v-4H27c4.136 0 7.5-3.364 7.5-7.5s-3.364-7.5-7.5-7.5H10.5v6.335L1.726 13.5 10.5 5.165V11.5H27c6.341 0 11.5 5.159 11.5 11.5S33.341 34.5 27 34.5h-6.5z" fill="#8bb7f0"></path><path d="M10 6.329V12h17c6.065 0 11 4.935 11 11s-4.935 11-11 11h-6v-3h6c4.411 0 8-3.589 8-8s-3.589-8-8-8H10v5.671L2.452 13.5 10 6.329M11 4L1 13.5 11 23v-7h16a7 7 0 110 14h-7v5h7c6.627 0 12-5.373 12-12s-5.373-12-12-12H11V4z" fill="#4e7ab5"></path></svg>