<svg viewBox="0 0 40 40" xmlns="http://www.w3.org/2000/svg"><path d="M24 5v19H5V5h19m1-1H4v21h21V4z" fill="#66798f"></path><path fill="#8bb7f0" d="M21.5 1.5h6v6h-6z"></path><path d="M27 2v5h-5V2h5m1-1h-7v7h7V1z" fill="#4e7ab5"></path><path fill="#8bb7f0" d="M21.5 21.5h6v6h-6z"></path><path d="M27 22v5h-5v-5h5m1-1h-7v7h7v-7z" fill="#4e7ab5"></path><path fill="#8bb7f0" d="M1.5 1.5h6v6h-6z"></path><path d="M7 2v5H2V2h5m1-1H1v7h7V1z" fill="#4e7ab5"></path><path fill="#8bb7f0" d="M1.5 21.5h6v6h-6z"></path><path d="M7 22v5H2v-5h5m1-1H1v7h7v-7z" fill="#4e7ab5"></path><path fill="#66798f" d="M24 15v1h11v19H16V24h-1v12h21V15z"></path><g><path fill="#8bb7f0" d="M32.5 32.5h6v6h-6z"></path><path d="M38 33v5h-5v-5h5m1-1h-7v7h7v-7z" fill="#4e7ab5"></path></g><g><path fill="#8bb7f0" d="M12.5 32.5h6v6h-6z"></path><path d="M18 33v5h-5v-5h5m1-1h-7v7h7v-7z" fill="#4e7ab5"></path></g><g><path fill="#8bb7f0" d="M32.5 12.5h6v6h-6z"></path><path d="M38 13v5h-5v-5h5m1-1h-7v7h7v-7z" fill="#4e7ab5"></path></g></svg>