<svg viewBox="0 0 40 40" xmlns="http://www.w3.org/2000/svg"><circle cx="21" cy="8" r="2.5" fill="#d6aa70"></circle><path d="M21 6c1.103 0 2 .897 2 2s-.897 2-2 2-2-.897-2-2 .897-2 2-2m0-1a3 3 0 100 6 3 3 0 000-6z" fill="#a16a4a"></path><path fill="#ffc49c" d="M23.565 9.276L35.39 3.364l-6.679 9.184-4.318.864z"></path><path d="M33.779 4.728l-5.358 7.368-3.636.727-.654-3.27 9.648-4.825M37 2L23 9l1 5 5-1 8-11z" fill="#a16a4a"></path><path d="M17.397 34.5c-1.181-.473-15.06-7.784-15.861-13.037 1.823-.188 4.93-1.016 5.074-1.054l.11-.03 5.497-4.729 4.199-6.299 2.821-1.411.059-.216C20.147 4.6 22.841 2.5 26 2.5c.755 0 1.255.134 1.408.376.298.47-.288 1.71-.855 2.909-.441.936-.943 1.996-1.221 3.051l-.101.379.346.188c.58.314 3.249 2.235 4.094 2.974.73.64.829 1.686.829 2.624 0 .363 0 1.471 5.66 6.908l.118.114c.861.842 1.222 1.227 1.222 1.977 0 2.46-.665 4.848-.933 5.709-.599.463-1.651.791-2.567.791-2.386 0-5.335-1.148-6.548-3.714l-.136-.286H26c-2.644 0-5.581-1.666-6.548-3.714l-.269-.568-.493.39c-.245.193-.515.48-.753.734-.104.11-.202.216-.291.305-1.69 1.69-1.319 3.681-.107 6.548.444 1.051.946 2.24.961 4.306h-1.103z" fill="#fff1e8"></path><path d="M26 3c.737 0 .959.132.978.132h.001c.109.351-.509 1.658-.878 2.44-.452.955-.963 2.038-1.253 3.137l-.2.76.692.374c.547.296 3.193 2.202 4.003 2.91.46.403.657 1.075.657 2.247 0 .546 0 1.682 5.812 7.267l.116.112.045.044C36.736 23.171 37 23.457 37 24c0 2.255-.576 4.453-.861 5.401-.53.35-1.396.599-2.139.599-2.228 0-4.976-1.06-6.096-3.427L27.633 26H26c-2.427 0-5.219-1.569-6.096-3.427l-.537-1.138-.987.78c-.274.216-.557.518-.807.784-.1.106-.195.208-.28.293-2.084 2.084-1.249 4.649-.214 7.096.388.918.822 1.945.907 3.611h-.491c-1.977-.826-13.885-7.462-15.347-12.111 1.88-.275 4.46-.962 4.593-.997l.221-.059.173-.149 5.358-4.611.104-.089.076-.114 4.087-6.131 2.503-1.252.4-.2.117-.432C20.569 4.951 23.069 3 26 3m0-1c-3.477 0-6.315 2.392-7.185 5.593l-2.741 1.37-4.235 6.352-5.358 4.611S2.627 20.957.999 21c0 5.857 15.984 14 16.32 14H19v-.411c0-2.217-.543-3.508-1-4.589-1.216-2.876-1.445-4.555 0-6 .289-.289.684-.751 1-1 1.043 2.209 4.167 4 7 4h1c1.271 2.688 4.354 4 7 4 1.055 0 2.312-.396 3-1 .37-1.151 1-3.547 1-6 0-1.01-.563-1.542-1.372-2.335C36.295 21.338 31 16.343 31 15c0-1.122-.152-2.259-1-3-.871-.761-3.559-2.698-4.185-3.037C26.718 5.537 30.104 2 26 2z" fill="#a16a4a"></path><path d="M28.35 13.131C27.761 11.059 25.668 9.5 24 9.5c-.206 0-.635-.365-.904-1.052-.236-.604-.315-1.408.17-1.859.12-.077.768-.209 2.009-.209.866 0 1.457.063 1.568.095 1.548.53 2.516 1.761 2.649 3.375.107 1.275-.347 2.526-1.142 3.281z" fill="#d6aa70"></path><path d="M25.273 6.88c.763 0 1.328.053 1.403.066 1.926.659 2.263 2.279 2.318 2.945.068.817-.119 1.619-.489 2.245-.892-1.834-2.808-3.105-4.444-3.136-.174-.104-.522-.575-.626-1.182-.035-.207-.063-.568.111-.797.188-.053.714-.141 1.727-.141m0-1c-.986 0-2.069.084-2.347.342C21.691 7.367 22.925 10 24 10c1.553 0 3.829 1.73 4 4 2.656-1.438 3.016-6.625-1-8-.186-.064-.924-.12-1.727-.12z" fill="#a16a4a"></path><circle cx="27.5" cy="17.5" r="1.5" fill="#36404d"></circle><path d="M16.5 9.309l2.738-1.369.059-.216C20.147 4.6 22.841 2.5 26 2.5c.755 0 1.255.134 1.408.376.298.47-.289 1.71-.855 2.909-.442.936-1.688 4.385-1.882 4.698" fill="#fff1e8" stroke="#a16a4a" stroke-linecap="round" stroke-miterlimit="10"></path><path d="M21 17h-9.586l-4.281 3.684-.173.149-.22.059c-.132.035-2.713.723-4.593.997 0 0-.657.099-1.005.105C3.542 30.479 13 35 17 35h1l-.015-1c-.084-1.665-.519-2.693-.907-3.611-1.035-2.448-1.87-5.012.214-7.096.085-.085.18-.187.28-.293.25-.266.533-.568.807-.784l.987-.78.537 1.138c.237.503.623.98 1.096 1.415V17z" fill="#fff1e8"></path><g><path d="M4.5 19.5a2.002 2.002 0 012.405-1.958.49.49 0 00.419-.102.504.504 0 00.183-.392 1.994 1.994 0 01.908-1.708c.315-.202.683-.31 1.063-.31.122 0 .244.011.365.032a.503.503 0 00.414-.113.506.506 0 00.173-.394 1.977 1.977 0 01.575-1.473 1.97 1.97 0 011.121-.553.501.501 0 00.42-.591 1.987 1.987 0 01.115-1.144 1.994 1.994 0 012.32-1.162.5.5 0 00.476-.136c.124-.127.171-.311.124-.481a1.93 1.93 0 01-.022-.999c.223-.894 1.029-1.494 2.008-1.494.146 0 .293.014.44.042l.423.065c2.426.626 2.996 2.056 3.063 4.76l-3.299-.655a.5.5 0 00-.509.775 4.498 4.498 0 01.634 3.826l-2.484-1.042a.504.504 0 00-.544.105.5.5 0 00-.114.542 4.512 4.512 0 01-.654 4.488l-1.559-1.559a.5.5 0 00-.851.41c.176 1.559-.434 3.052-1.605 4.007l-1.163-1.807a.501.501 0 00-.915.196 4.533 4.533 0 01-3.93 3.798V19.5z" fill="#d6aa70"></path><path d="M17.568 7.022c.115 0 .231.011.385.04l.351.054c1.97.52 2.538 1.561 2.665 3.66l-2.677-.532a1.002 1.002 0 00-1.018 1.549c.589.853.824 1.867.685 2.849l-1.931-.809a.998.998 0 00-1.315 1.293 4.018 4.018 0 01-.261 3.525l-1.134-1.134a1 1 0 00-1.701.819 4.009 4.009 0 01-1.014 3.175l-.838-1.302a1 1 0 00-1.83.39A4.037 4.037 0 015 23.869V19.5a1.502 1.502 0 011.803-1.469 1.01 1.01 0 00.839-.206 1 1 0 00.365-.782 1.494 1.494 0 01.679-1.282c.234-.151.508-.23.793-.23.092 0 .185.008.277.024a1.001 1.001 0 001.174-1.014c-.012-.423.14-.815.43-1.105.28-.28.612-.379.84-.412a1 1 0 00.838-1.178 1.484 1.484 0 01.087-.857 1.493 1.493 0 011.739-.868 1.003 1.003 0 001.202-1.236 1.474 1.474 0 01-.02-.747c.164-.668.777-1.116 1.522-1.116m0-1c-1.152 0-2.206.717-2.494 1.874a2.47 2.47 0 00.025 1.253 2.496 2.496 0 00-2.897 1.453 2.477 2.477 0 00-.146 1.433 2.477 2.477 0 00-1.403.694 2.484 2.484 0 00-.722 1.841c-.149-.026-.3-.04-.451-.04-.459 0-.922.124-1.335.39a2.498 2.498 0 00-1.138 2.132A2.507 2.507 0 004 19.5V25c2.494 0 4.557-1.855 4.924-4.251L10.373 23c1.648-1.061 2.444-2.945 2.238-4.777l1.931 1.931c1.453-1.453 1.819-3.597 1.1-5.399L18.613 16c.682-1.627.421-3.417-.517-4.775L22 12c0-2.844-.313-5.047-3.494-5.865l-.402-.061a2.797 2.797 0 00-.536-.052z" fill="#a16a4a"></path></g></svg>