<svg viewBox="0 0 40 40" xmlns="http://www.w3.org/2000/svg"><path d="M20 5.008c6.595 0 12 5.402 12 11.995C32 23.597 26.595 29 20 29S8 23.597 8 17.003C8 10.41 13.405 5.008 20 5.008m0-1.002c-7.206 0-13 5.793-13 12.995C7 24.206 12.794 30 20 30s13-5.794 13-12.998A12.965 12.965 0 0020 4.006z" fill="#4e7ab5"></path><path d="M15.812 9.146c1.73.292 3.188 1.021 3.188 2.989 0 1.297-.977 2.161-.977 2.161v1.009c-.144.431-.433.287-.576.721-.287.431-.287 1.008-1.441 1.008-1.009 0-.796-.29-1.371-.29-.576 0-.727.697-.727.697l.005 2.984s.12 1.267 2.084 1.267c.672 0 .773-.606 1.503-.606.431 0 1.267 0 1.267.721 0 .719-.722 1.152-3.313 1.152h-3.215c-.289 0-.289 0-.289.431v2.311s1.174.978 1.75 1.267h1.267c.576 0 .775-.259 1.495-.69.721-.289 1.44-.576 2.305-.576.864 0 2.533-.403 2.533-1.267 0-.865-.288-1.153-.288-1.874 0-.72.144-1.296-.143-1.583-.289-.29-1.842-1.543-1.842-2.119 0-.576.576-.864.576-1.152s0-.573.288-.573c.144 0 .432-.144.432-.144l.144-.577s.289-.142.432-.288c.144-.144.288-.144.288-.144s-.142-.431.143-.719c.29-.29.577-.145.723-.145.287 0 1.007-.143 1.007-.143s.29-.431.432-.575c.433-.289 1.585-.432 1.874-.721.289-.288.575-.641 1.441-.641 3.169 0 5.33 2.657 5.33 4.241 0 2.736-1.727 5.893-4.176 5.893-1.594 0-1.594.69-1.594 1.267 0 1.441 1.625 2.025 1.625 2.025s-4.884 2.808-8.343 2.808c-3.314 0-6.076-1.602-8.525-4.195-1.585-1.871-3.041-3.696-3.041-7.005 0-1.298-.217-1.785-.217-1.785s2.087-.422 2.665-.709c.576-.289 1.847-.397 1.847-.972C11.8 14.168 11 13.547 11 12.25c0-2.187 1.895-3.596 4.812-3.104zM26.156 32.002s.455-.154 1.215-.845c.685-.614.836-1.459 1.445-2.304.684-.922 2.203-2.303 2.203-2.303s-.455 1.92-.912 2.842c-.608 1.305-1.367 1.766-1.367 1.766s.379.23.836 0c.455-.23.988-.461 1.672-.384.684.077 1.596.077 2.509-.46.912-.539 1.672-1.075 1.672-1.075s-.533 1.766-2.812 2.688c-1.445.616-3.116.616-3.648.307-.533-.307-1.14-.461-1.597-.307-.38.229-1.216.075-1.216.075m7.22-9.292s-.912 1.92-1.216 2.842c-.303.922-.379 2.38-.532 3.072-.152.691-.456.998-.456.998s2.888-.23 4.256-1.229c2.203-1.537 2.584-4.147 2.584-4.147s-.76 1.152-1.748 1.766c-.608.384-1.748.998-2.433 1.46-.608.46-.76 1.075-1.063.922-.304-.154.075-.922.379-1.537.228-.538.38-1.305.228-1.843l.001-2.304m1.14-3.763s-.304 1.92-.228 2.688c.076.768.304 1.997.228 2.995-.076 1.075-.228 1.536-.228 1.536s3.04-1.92 3.8-3.686c.455-1.076.912-2.919.912-2.919s-.152.307-.608.922c-.456.691-1.14.922-1.673 1.766-.684 1.075-1.367 1.691-1.367 1.691s.152-1.767.076-2.304c-.076-.615-.912-2.689-.912-2.689m-.076-4.302s.076 2.459.379 3.072c.38.768.761 1.459 1.216 2.534.456 1.075.304.922.304.922s.303-.306.455-.538 1.14-1.075 1.597-2.765c.455-1.69.076-3.84.076-3.84s-.228.691-.304 1.23c-.152.613-.836 1.458-1.064 2.225-.228.845-.228 1.382-.38 1.382-.151 0-.379-.539-.455-1.075 0-.461-.684-1.306-1.216-2.15-.305-.689-.608-.997-.608-.997m-.988-3.532s.532.998.836 1.843c.38.845 1.292 1.843 1.748 2.38.456.539.608.998.608.998s.228-.768.533-1.381c.608-1.075.532-1.382.608-2.765 0-1.382-1.291-3.302-1.291-3.302s.151.691.227 1.152c.076.461-.076 2.304-.151 2.688-.076.384.151 1.382-.076 1.46-.228.077-.912-1.152-1.445-1.766-.457-.617-1.597-1.307-1.597-1.307m-1.748-3.38s.303 1.152 1.139 1.691c.456.306 1.673 1.228 2.204 1.613.533.385.76.768.76.768s0-2.918-.227-3.84c-.304-.922-1.749-2.074-1.749-2.074s.228.692.456.998c.228.384.228 1.152.532 1.92.304.768.533 1.152.304 1.229-.152.077-.684-.307-.988-.691-.379-.384-1.064-.615-1.596-.998-.531-.309-.835-.616-.835-.616M30.133 4s1.419 2.352 1.875 2.811c.533.461 1.749 1.075 1.749 1.075s-.609-1.69-1.368-2.303C31.628 4.968 30.133 4 30.133 4M8.068 32.923s.227.615 1.444 1.075c1.14.538 3.116.691 4.104.538.988-.075 1.444-.306 2.584-.997 1.14-.692 1.672-.769 2.356-.846s.684.077.684.077-1.14.615-2.28 1.306l-2.027 1.464.456.46s.279-.158 1.342-1.233c1.14-1.075 2.888-1.843 3.421-1.843.532 0 1.976.768 3.04 1.538 1.064.766 1.496 1.538 1.496 1.538l.379-.461s-1.42-1.232-2.103-1.693c-.608-.538-1.9-.998-1.9-.998s.684-.077 1.14 0c.455 0 1.444.539 2.355 1.152.911.613 1.748.768 3.876.538 3.496-.306 3.648-1.459 3.648-1.459s-1.14.614-2.584.538c-.988 0-2.812-.614-3.8-.922-.988-.306-1.9-.538-2.584-.46-1.368.077-3.116.383-3.116.383s-1.368-.153-2.128-.306c-.76-.154-2.052-.077-3.8.383-1.672.461-2.66.769-3.648.846-.987.074-2.355-.618-2.355-.618M4.572 29.16s.152.384 1.14 1.536c1.52 1.691 3.268 1.767 4.18 1.767.988 0 2.051-.384 2.66-.461.608-.077 1.52 0 1.52 0s-.684-.307-1.367-.922c-.685-.538-.533-1.229-1.521-2.458-.988-1.306-1.976-1.997-1.976-1.997s.38 2.075 1.14 3.301c.456.845 1.14 1.152 1.064 1.229-.076.077-.684.077-.912-.077-.228-.077-.836-.307-1.52-.384-.685-.075-1.673.23-2.812-.46-.532-.229-1.596-1.074-1.596-1.074m-2.736-4.838s.684 1.613 1.445 2.842c.76 1.229 2.736 1.997 3.42 2.227s2.128.307 2.128.307-.38-.461-.609-1.306c-.227-.768-.151-2.611-.608-3.61C7.08 23.631 6.7 22.94 6.7 22.94s.076.613-.076.997c-.152.768 0 2.611.152 3.379.152.691.608 1.152.304 1.306-.304.153-.456-.307-.988-.845-.456-.539-1.9-.997-2.812-1.767-.761-.843-1.444-1.688-1.444-1.688M1 19.56s.076.768.228 1.382 1.064 2.611 2.052 3.533c.988.922 2.355 1.843 2.355 1.843s-.076-.768-.228-1.382c-.151-.614.228-1.843.304-2.917.076-1.075-.152-2.917-.152-2.917s-.912 1.765-1.064 3.224c-.076.845.228 1.766 0 1.766-.303.077-1.139-1.69-1.52-2.149-.456-.539-.76-.769-1.216-1.229C1.304 20.328 1 19.56 1 19.56m.38-5.375s-.152 2.688.151 3.917c.533 1.997 2.053 3.225 2.053 3.225s.152-.691.456-1.381c.303-.692.836-1.382 1.064-1.92.379-1.075.532-3.072.532-3.072s-.379.538-.684.998c-.304.46-.684.998-1.064 1.69-.304.768-.38 1.382-.684 1.46-.456.075-.076-.693-.456-1.615-.379-.922-.988-1.92-1.064-2.38-.076-.462-.304-.922-.304-.922m2.051-5.223s-1.063 1.46-1.215 2.765c-.152 1.306-.076 2.381.455 3.302.38.614.456 1.459.456 1.459s.152-.46.608-.922c.456-.46 1.216-1.152 1.748-2.074.533-.922.988-2.149.988-2.149s-.835.46-1.367.922c-1.216 1.076-1.824 2.149-1.824 2.149s-.304-.306-.228-.768c.228-.383.304-1.075.228-1.613-.076-.461-.228-.768-.076-1.382.076-.613.227-1.689.227-1.689m2.888-2.995s-1.444.845-1.824 1.92c-.303.845-.152 1.69-.303 2.535-.152.845.076 1.459.076 1.459s.075-.23.608-.768c.532-.539 1.292-.845 1.824-1.229 1.216-.845 1.748-2.15 1.748-2.15s-.684.614-1.064.845a16.13 16.13 0 00-1.444.845c-.38.229-.609.998-.609.998s-.455-.384-.303-.846c.152-.46.379-.845.455-1.305.076-.461.228-1.152.456-1.46.153-.306.38-.844.38-.844m1.065-.077c-.988.998-1.215 2.227-1.215 2.227s1.063-.537 1.975-1.459C8.905 5.889 9.867 4 9.867 4S7.916 5.353 7.384 5.89" fill="#4e7ab5"></path></svg>