<svg viewBox="0 0 40 40" xmlns="http://www.w3.org/2000/svg"><path fill="none" stroke="#5e9c76" stroke-miterlimit="10" d="M1.5 29.5v9h37v-9"></path><path d="M17.716 32.5l-1.225-4.555-.25-.087a11.435 11.435 0 01-3.765-2.174l-.2-.173-4.559 1.217-2.282-3.955 3.327-3.334-.05-.26C8.571 18.444 8.5 17.711 8.5 17s.071-1.444.213-2.179l.05-.26-3.327-3.334 2.282-3.955 4.559 1.217.2-.173a11.425 11.425 0 013.765-2.174l.25-.087L17.716 1.5h4.568l1.225 4.555.25.087a11.435 11.435 0 013.765 2.174l.2.173 4.559-1.217 2.282 3.955-3.327 3.334.05.26c.141.735.212 1.468.212 2.179s-.071 1.444-.213 2.178l-.05.26 3.327 3.334-2.282 3.955-4.559-1.217-.2.173a11.425 11.425 0 01-3.765 2.174l-.25.087-1.224 4.556h-4.568z" fill="#bae0bd"></path><path d="M21.9 2l1.057 3.929.138.512.501.173a10.93 10.93 0 013.6 2.079l.401.347.512-.137 3.932-1.05 1.9 3.291-2.87 2.875-.374.375.1.52c.134.706.203 1.407.203 2.086 0 .679-.069 1.38-.204 2.084l-.1.52.374.375 2.87 2.875-1.9 3.291-3.932-1.049-.512-.137-.401.347a10.93 10.93 0 01-3.6 2.079l-.501.173-.138.512L21.9 32h-3.8l-1.057-3.929-.138-.512-.501-.173a10.948 10.948 0 01-3.6-2.079l-.401-.347-.512.137-3.931 1.049-1.9-3.291 2.87-2.875.374-.375-.1-.52A11.12 11.12 0 019 17c0-.679.069-1.38.204-2.084l.1-.52-.374-.375-2.87-2.875 1.9-3.291 3.932 1.05.512.137.401-.347a10.913 10.913 0 013.6-2.079l.501-.173.138-.512L18.1 2h3.8m.767-1h-5.333l-1.256 4.669a11.975 11.975 0 00-3.928 2.269L7.477 6.691 4.81 11.309l3.411 3.418C8.08 15.464 8 16.222 8 17s.08 1.536.222 2.273L4.81 22.691l2.667 4.619 4.673-1.247c1.141.99 2.47 1.764 3.928 2.269L17.333 33h5.333l1.256-4.669a11.975 11.975 0 003.928-2.269l4.673 1.247 2.667-4.619-3.411-3.418C31.92 18.536 32 17.778 32 17s-.08-1.536-.222-2.273l3.411-3.418-2.667-4.619-4.673 1.247a11.964 11.964 0 00-3.928-2.269L22.667 1z" fill="#5e9c76"></path><g><path fill="#36404d" d="M25.5 17L20 10l-5.5 7H18v7h4v-7z"></path></g></svg>