<svg viewBox="0 0 40 40" xmlns="http://www.w3.org/2000/svg"><path fill="#e1ebf2" d="M.5 35.5h39v3H.5z"></path><path d="M39 36v2H1v-2h38m1-1H0v4h40v-4z" fill="#66798f"></path><path fill="#b0c1d4" d="M33.5 12.5h3v20h-3z"></path><path d="M36 13v19h-2V13h2m1-1h-4v21h4V12z" fill="#66798f"></path><path fill="#b0c1d4" d="M2.5 32.5h35v3h-35z"></path><path d="M37 33v2H3v-2h34m1-1H2v4h36v-4z" fill="#66798f"></path><path fill="#e1ebf2" d="M32.5 30.5h5v2h-5z"></path><path d="M37 31v1h-4v-1h4m1-1h-6v3h6v-3z" fill="#66798f"></path><path fill="#e1ebf2" d="M32.5 12.5h5v2h-5z"></path><path d="M37 13v1h-4v-1h4m1-1h-6v3h6v-3z" fill="#66798f"></path><path fill="#b0c1d4" d="M3.5 12.5h3v20h-3z"></path><path d="M6 13v19H4V13h2m1-1H3v21h4V12z" fill="#66798f"></path><path fill="#e1ebf2" d="M2.5 30.5h5v2h-5z"></path><path d="M7 31v1H3v-1h4m1-1H2v3h6v-3z" fill="#66798f"></path><path fill="#e1ebf2" d="M2.5 12.5h5v2h-5z"></path><path d="M7 13v1H3v-1h4m1-1H2v3h6v-3z" fill="#66798f"></path><g><path fill="#b0c1d4" d="M13.5 12.5h3v20h-3z"></path><path d="M16 13v19h-2V13h2m1-1h-4v21h4V12z" fill="#66798f"></path></g><g><path fill="#e1ebf2" d="M12.5 30.5h5v2h-5z"></path><path d="M17 31v1h-4v-1h4m1-1h-6v3h6v-3z" fill="#66798f"></path></g><g><path fill="#e1ebf2" d="M12.5 12.5h5v2h-5z"></path><path d="M17 13v1h-4v-1h4m1-1h-6v3h6v-3z" fill="#66798f"></path></g><g><path fill="#b0c1d4" d="M23.5 12.5h3v20h-3z"></path><path d="M26 13v19h-2V13h2m1-1h-4v21h4V12z" fill="#66798f"></path></g><g><path fill="#e1ebf2" d="M22.5 30.5h5v2h-5z"></path><path d="M27 31v1h-4v-1h4m1-1h-6v3h6v-3z" fill="#66798f"></path></g><g><path fill="#e1ebf2" d="M22.5 12.5h5v2h-5z"></path><path d="M27 13v1h-4v-1h4m1-1h-6v3h6v-3z" fill="#66798f"></path></g><g><path fill="#e1ebf2" d="M1.5 12.5V9.332L20 1.542l18.5 7.79V12.5z"></path><path d="M20 2.085l18 7.579V12H2V9.664l18-7.579M20 1L1 9v4h38V9L20 1z" fill="#66798f"></path></g></svg>