<svg viewBox="0 0 40 40" xmlns="http://www.w3.org/2000/svg"><path d="M20 23.5c-1.93 0-3.5-1.571-3.5-3.502 0-1.929 1.57-3.498 3.5-3.498s3.5 1.569 3.5 3.498A3.505 3.505 0 0120 23.5z" fill="#a59dd1"></path><path d="M20 17c1.654 0 3 1.345 3 2.998C23 21.653 21.654 23 20 23s-3-1.347-3-3.002A3.003 3.003 0 0120 17m0-1c-2.2 0-4 1.799-4 3.998S17.8 24 20 24s4-1.803 4-4.002S22.2 16 20 16z" fill="#8b75a1"></path><circle cx="36" cy="20" r="1.5" fill="#dcd5f2"></circle><path d="M36 19c.551 0 1 .449 1 1s-.449 1-1 1-1-.449-1-1 .449-1 1-1m0-1a2 2 0 10.001 4.001A2 2 0 0036 18z" fill="#a59dd1"></path><circle cx="4" cy="20" r="1.5" fill="#dcd5f2"></circle><path d="M4 19c.551 0 1 .449 1 1s-.449 1-1 1-1-.449-1-1 .449-1 1-1m0-1a2 2 0 10.001 4.001A2 2 0 004 18z" fill="#a59dd1"></path><circle cx="20" cy="11" r="1.5" fill="#a59dd1"></circle><path d="M20 10c.551 0 1 .449 1 1s-.449 1-1 1-1-.449-1-1 .449-1 1-1m0-1a2 2 0 10-.001 3.999A2 2 0 0020 9z" fill="#8b75a1"></path><g><circle cx="29" cy="20" r="1.5" fill="#a59dd1"></circle><path d="M29 19c.551 0 1 .449 1 1s-.449 1-1 1-1-.449-1-1 .449-1 1-1m0-1a2 2 0 10.001 4.001A2 2 0 0029 18z" fill="#8b75a1"></path></g><g><circle cx="11" cy="20" r="1.5" fill="#a59dd1"></circle><path d="M11 19c.551 0 1 .449 1 1s-.449 1-1 1-1-.449-1-1 .449-1 1-1m0-1a2 2 0 10.001 4.001A2 2 0 0011 18z" fill="#8b75a1"></path></g><g><circle cx="20" cy="29" r="1.5" fill="#a59dd1"></circle><path d="M20 28c.551 0 1 .449 1 1s-.449 1-1 1-1-.449-1-1 .449-1 1-1m0-1a2 2 0 10-.001 3.999A2 2 0 0020 27z" fill="#8b75a1"></path></g></svg>