<svg viewBox="0 0 40 40" xmlns="http://www.w3.org/2000/svg"><path d="M29.847 10.25C29.02 5.562 24.926 2 20 2c-5.523 0-10 4.477-10 10v5.714" fill="none" stroke="#66798f" stroke-width="2" stroke-miterlimit="10"></path><path d="M2.5 37.5V19c0-1.93 1.57-3.5 3.5-3.5h28c1.93 0 3.5 1.57 3.5 3.5v18.5h-35z" fill="#f5ce85"></path><path d="M34 16c1.654 0 3 1.346 3 3v18H3V19c0-1.654 1.346-3 3-3h28m0-1H6a4 4 0 00-4 4v19h36V19a4 4 0 00-4-4z" fill="#967a44"></path><path fill="#ffeea3" d="M3 31h34v3H3zM3 25h34v3H3zM3 19h34v3H3z"></path></svg>