<svg viewBox="0 0 40 40" xmlns="http://www.w3.org/2000/svg"><path d="M27 9a7 7 0 10-14 0v8.4" fill="none" stroke="#66798f" stroke-width="2" stroke-miterlimit="10"></path><path d="M20 38.5c-6.893 0-12.5-5.607-12.5-12.5S13.107 13.5 20 13.5 32.5 19.107 32.5 26 26.893 38.5 20 38.5z" fill="#8bb7f0"></path><path d="M20 14c6.617 0 12 5.383 12 12s-5.383 12-12 12S8 32.617 8 26s5.383-12 12-12m0-1c-7.18 0-13 5.82-13 13s5.82 13 13 13 13-5.82 13-13-5.82-13-13-13z" fill="#4e7ab5"></path><circle cx="20" cy="26" r="8" fill="#dbf2ff"></circle><path fill="#36404d" d="M19 26h2v5h-2z"></path></svg>