<svg viewBox="0 0 40 40" xmlns="http://www.w3.org/2000/svg"><path fill="#a3b7cc" d="M1.979 38.729L1 39l.271-.979 17.375-17.375.708.708z"></path><path d="M16.721 16.014c4.881-2.255 7.232-4.214 9.62-9.466l7.096 7.095c-5.494 2.294-7.652 4.407-9.629 9.457l-7.087-7.086z" fill="#e87070"></path><path d="M26.492 7.406l6.069 6.069c-4.843 2.127-7.062 4.29-8.933 8.739l-6.05-6.05c4.373-2.097 6.672-4.075 8.914-8.758m-.313-1.727c-2.508 5.792-4.798 7.705-10.321 10.179L24 24c2.038-5.523 4.06-7.671 10.321-10.179l-8.142-8.142z" fill="#c74343"></path><path d="M35.012 14.5c-.58 0-1.125-.226-1.535-.636l-7.342-7.342a2.173 2.173 0 010-3.069l1.671-1.739 10.479 10.479-1.732 1.664a2.158 2.158 0 01-1.541.643z" fill="#f78f8f"></path><path d="M27.814 2.428l9.757 9.757-1.379 1.325c-.315.316-.734.49-1.18.49a1.66 1.66 0 01-1.181-.489L26.49 6.169a1.671 1.671 0 01.014-2.376l1.31-1.365M27.8 1l-2.018 2.1a2.67 2.67 0 000 3.776l7.341 7.342a2.667 2.667 0 001.889.782c.683 0 1.367-.261 1.888-.782L39 12.2 27.8 1z" fill="#c74343"></path><g><path d="M8.707 17.239l1.237-1.238c.968-.968 2.255-1.501 3.624-1.501s2.656.533 3.624 1.501L24 22.809a5.132 5.132 0 010 7.247l-1.238 1.237L8.707 17.239z" fill="#f78f8f"></path><path d="M13.568 15c1.235 0 2.397.481 3.271 1.355l6.807 6.807a4.632 4.632 0 010 6.54l-.885.884L9.414 17.239l.884-.884A4.594 4.594 0 0113.568 15m0-1a5.608 5.608 0 00-3.978 1.648L8 17.239 22.761 32l1.592-1.591a5.625 5.625 0 000-7.954l-6.807-6.807A5.607 5.607 0 0013.568 14z" fill="#c74343"></path></g><path fill="none" stroke="#36404d" stroke-miterlimit="10" d="M3 3l34 34"></path></svg>