<svg viewBox="0 0 40 40" xmlns="http://www.w3.org/2000/svg"><path d="M19.99 38.5c-10.102 0-18.221-7.915-18.483-18.019-.266-10.198 7.815-18.71 18.012-18.974.164-.005.328-.007.491-.007 10.102 0 18.221 7.915 18.483 18.019.265 10.198-7.815 18.71-18.013 18.975-.163.004-.327.006-.49.006z" fill="#f2faff"></path><path d="M20.011 1v1c9.828 0 17.727 7.701 17.983 17.532a17.884 17.884 0 01-4.939 12.861A17.88 17.88 0 0119.991 38c-9.829 0-17.729-7.701-17.984-17.532C1.748 10.546 9.61 2.264 19.532 2.006c.159-.004.319-.006.478-.006l.001-1m-.002 0c-.167 0-.336.002-.503.007C9.016 1.279.734 10.004 1.007 20.494 1.275 30.816 9.726 39 19.991 39c.167 0 .336-.002.503-.007 10.49-.273 18.772-8.998 18.499-19.487C38.725 9.184 30.274.999 20.009 1z" fill="#a3b7cc"></path><path fill="#a3b7cc" d="M10.979 29.729L10 30l.271-.979 10.375-10.375.708.708z"></path><path d="M18.121 18.128c2.974-1.518 5.533-4.126 7.029-7.163l3.842 3.841c-3.12 1.452-5.68 4.056-7.037 7.156l-3.834-3.834z" fill="#e87070"></path><path d="M25.279 11.8l2.867 2.867c-2.723 1.434-4.98 3.726-6.341 6.438l-2.856-2.856c2.611-1.485 4.867-3.783 6.33-6.449m-.281-1.695c-1.499 3.463-4.428 6.398-7.73 7.877l4.868 4.868c1.218-3.302 3.987-6.378 7.73-7.877l-4.868-4.868z" fill="#c74343"></path><path d="M29.721 15.5c-.274 0-.532-.106-.726-.301L24.8 11.004a1.016 1.016 0 01-.301-.725c0-.274.107-.532.301-.726l.807-.84 5.678 5.68-.832.799a1.02 1.02 0 01-.732.308z" fill="#f78f8f"></path><path d="M25.614 9.429l4.957 4.957-.479.46a.523.523 0 01-.743 0l-4.195-4.195a.526.526 0 01.014-.758l.446-.464M25.6 8l-1.153 1.2a1.526 1.526 0 000 2.158l4.195 4.195a1.522 1.522 0 002.158 0L32 14.4 25.6 8z" fill="#c74343"></path><g><path d="M13.707 17.979l.619-.619c.555-.555 1.292-.86 2.077-.86s1.522.306 2.077.86l4.16 4.16a2.942 2.942 0 010 4.153l-.62.619-8.313-8.313z" fill="#f78f8f"></path><path d="M16.403 17c.651 0 1.263.254 1.724.714l4.16 4.16c.95.95.95 2.497 0 3.447l-.266.266-7.607-7.607.265-.265A2.422 2.422 0 0116.403 17m0-1a3.43 3.43 0 00-2.431 1.007l-.972.972L22.021 27l.973-.972a3.438 3.438 0 000-4.861l-4.16-4.16A3.43 3.43 0 0016.403 16z" fill="#c74343"></path></g><path fill="none" stroke="#36404d" stroke-miterlimit="10" d="M3 3l34 34"></path></svg>