<svg viewBox="0 0 40 40" xmlns="http://www.w3.org/2000/svg"><path fill="#b0c1d4" d="M6.5 32.5v-1.6l3-1V9.5H4.528l-.9 3H2.5v-5h17v5h-1.128l-.9-3H12.5v20.4l3 1v1.6z"></path><path d="M19 8v4h-.256l-.686-2.287L17.844 9H12v21.261l.684.228L15 31.26V32H7v-.74l2.316-.772.684-.228V9H4.156l-.214.713L3.256 12H3V8h16m1-1H2v6h2l.9-3H9v19.54l-3 1V33h10v-2.46l-3-1V10h4.1l.9 3h2V7z" fill="#66798f"></path><g><path fill="#b0c1d4" d="M25.5 32.5v-1.6l3-1V9.5h-4.972l-.9 3H21.5v-5h17v5h-1.128l-.9-3H31.5v20.4l3 1v1.6z"></path><path d="M38 8v4h-.256l-.686-2.287L36.844 9H31v21.261l.684.228L34 31.26V32h-8v-.74l2.316-.772.684-.228V9H23.156l-.214.713L22.256 12H22V8h16m1-1H21v6h2l.9-3H28v19.54l-3 1V33h10v-2.46l-3-1V10h4.1l.9 3h2V7z" fill="#66798f"></path></g></svg>