<svg viewBox="0 0 40 40" xmlns="http://www.w3.org/2000/svg"><path fill="#ffeea3" d="M1.5 6.5h37v27h-37z"></path><path d="M38 7v26H2V7h36m1-1H1v28h38V6z" fill="#ba9b48"></path><path d="M1.679 12.372l15.748 8.48a5.429 5.429 0 005.147 0l15.748-8.48" fill="#ffeea3" stroke="#ba9b48" stroke-miterlimit="10"></path><path d="M31 39.5c-4.687 0-8.5-3.813-8.5-8.5s3.813-8.5 8.5-8.5 8.5 3.813 8.5 8.5-3.813 8.5-8.5 8.5z" fill="#f78f8f"></path><path d="M31 23c4.411 0 8 3.589 8 8s-3.589 8-8 8-8-3.589-8-8 3.589-8 8-8m0-1c-4.971 0-9 4.029-9 9s4.029 9 9 9 9-4.029 9-9-4.029-9-9-9z" fill="#c74343"></path><path d="M31.092 36.143c-.377 0-.687-.114-.932-.342s-.367-.505-.367-.829c0-.339.124-.617.371-.833s.557-.325.928-.325c.377 0 .685.109.925.328.24.219.36.495.36.829 0 .339-.119.619-.357.84-.238.221-.547.332-.928.332zm1.157-10.286l-.275 6.975h-1.807l-.261-6.975h2.343z" fill="#fff"></path></svg>