<svg viewBox="0 0 40 40" xmlns="http://www.w3.org/2000/svg"><path d="M2.5 36.5v-33h35V36a.5.5 0 01-.5.5H2.5z" fill="#fff"></path><path d="M37 4v32H3V4h34m1-1H2v34h35a1 1 0 001-1V3z" fill="#788b9c"></path><path fill="#788b9c" d="M2 3h36v6H2z"></path><path fill="none" stroke="#8bb7f0" stroke-miterlimit="10" d="M13 16.5h18M9 16.5h1M13 20.5h18M9 20.5h1M13 24.5h18M9 24.5h1M13 28.5h18M9 28.5h1"></path><path fill="#c8d1db" d="M20.66 37H38v-5.787l-1-1.732V36H21.238z"></path><g fill="#c2e8ff"><path d="M31 29v-1h-5.144l-.577 1zM31 24h-2.835l-.577 1H31z"></path></g><path d="M23.047 39.5a.535.535 0 01-.472-.272.536.536 0 010-.545l7.954-13.776a.536.536 0 01.472-.273c.095 0 .33.026.472.272l7.954 13.776a.536.536 0 010 .545.535.535 0 01-.472.272l-15.908.001z" fill="#ffeea3"></path><path d="M31.001 25.134l.039.022 7.954 13.776-.039.068H23.047l-.039-.067 7.954-13.776c.007-.012.013-.023.039-.023m0-1c-.352 0-.704.174-.905.522l-7.953 13.777c-.403.696.1 1.567.904 1.567h15.907c.804 0 1.307-.871.905-1.567l-7.953-13.776a1.034 1.034 0 00-.905-.523z" fill="#ba9b48"></path><path d="M31.036 37.429a.987.987 0 01-.699-.257.819.819 0 01-.276-.622c0-.254.093-.462.278-.625.185-.163.417-.244.696-.244.282 0 .514.082.694.246.18.164.27.372.27.622a.824.824 0 01-.267.63c-.178.167-.41.25-.696.25zm.868-7.715l-.206 5.231h-1.356l-.196-5.231h1.758z" fill="#36404d"></path></svg>