<svg viewBox="0 0 40 40" xmlns="http://www.w3.org/2000/svg"><path fill="#e8d47b" d="M7.47 37.5l-1.938-31h28.936l-1.938 31z"></path><path d="M33.936 7l-1.875 30H7.939L6.064 7h27.872M35 6H5l2 32h26l2-32z" fill="#ba9b48"></path><path d="M3.5 8.5V4c0-.827.673-1.5 1.5-1.5h30c.827 0 1.5.673 1.5 1.5v4.5h-33z" fill="#f78f8f"></path><path d="M35 3c.551 0 1 .449 1 1v4H4V4c0-.551.449-1 1-1h30m0-1H5a2 2 0 00-2 2v5h34V4a2 2 0 00-2-2z" fill="#c74343"></path><path d="M10.5 26.5v-19c0-1.103.897-2 2-2s2 .897 2 2v7h15v12h-19z" fill="#fff"></path><path d="M12.5 6c.827 0 1.5.673 1.5 1.5V15h15v11H11V7.5c0-.827.673-1.5 1.5-1.5m0-1A2.507 2.507 0 0010 7.5V27h20V14H15V7.5C15 6.125 13.875 5 12.5 5z" fill="#ba9b48"></path><path fill="#788b9c" d="M14 18h12v1H14zM14 22h12v1H14z"></path></svg>