<svg viewBox="0 0 40 40" xmlns="http://www.w3.org/2000/svg"><path d="M34.036 10H14.334c-9.917 0-10.953 7-10.953 7h-1.91L0 22h2.506s-.834 7 9.113 7h18.202l.798-2.714h4.071c4.379 0 4.991-3.325 4.991-4.79-.001-1.664-.875-2.355-.875-2.355S40 18.51 40 16.277c0-3.881-4.071-3.562-4.071-3.562h-2.595L34.036 10zm-10.735 3.393c4.954 0 4.572 3.832 4.572 3.832h-3.34c0-1.067-.675-1.237-1.471-1.237-.798 0-1.352.342-1.352.958 0 1.498 5.606.464 5.606 4.63-.001 1.798-1.394 4.071-5.288 4.071-2.659 0-4.951-1.298-4.851-4.231h3.419c0 .589.097 1.676 1.63 1.676.63 0 1.67-.266 1.67-1.158 0-1.661-5.566-.809-5.566-4.67.001-2.103 1.899-3.871 4.971-3.871zm-15.626.199h3.578l-1.272 6.347s-.906 2.754 1.153 2.754c1.924 0 2.147-2.555 2.147-2.555l1.392-6.546h3.539l-1.471 6.985s-.111 5.029-5.884 5.029c-4.91 0-4.877-3.624-4.811-3.992.065-.365 1.629-8.022 1.629-8.022zm22.027.08h6.203c1.052 0 2.95.32 2.95 2.565 0 2.532-1.797 2.824-1.797 2.824s1.521.391 1.521 2.395c0 3.808-3.829 3.872-4.225 3.872h-7.117l2.465-11.656zm2.744 2.754l-.318 1.756h2.187c.174 0 1.074-.163 1.074-.998 0-.837-.875-.758-.875-.758h-2.068zm-.796 3.912l-.437 2.195h2.386c.223 0 1.431-.176 1.431-1.237 0-1.06-1.312-.958-1.312-.958H31.65z" fill="#4e7ab5"></path></svg>