<svg viewBox="0 0 40 40" xmlns="http://www.w3.org/2000/svg"><path d="M6 25.5a2.23 2.23 0 01-1.76-.87L1.5 20.84V13A2.5 2.5 0 014 10.5h32a2.5 2.5 0 012.5 2.5v7.84l-2.75 3.8a2.22 2.22 0 01-1.75.86z" fill="#b0c1d4"></path><path d="M36 11a2 2 0 012 2v7.68l-2.64 3.65A1.72 1.72 0 0134 25H6a1.71 1.71 0 01-1.35-.65L2 20.68V13a2 2 0 012-2h32m0-1H4a3 3 0 00-3 3v8l2.84 3.93A2.71 2.71 0 006 26h28a2.71 2.71 0 002.16-1.07L39 21v-8a3 3 0 00-3-3z" fill="#66798f"></path><path fill="#66798f" d="M8.5 13.5h23v4h-23z"></path><path d="M31 14v3H9v-3h22m1-1H8v5h24v-5z" fill="#36404d"></path><path fill="#66798f" d="M19 18h2v4h-2zM23 18h2v4h-2zM27 18h2v4h-2zM15 18h2v4h-2zM11 18h2v4h-2z"></path><path fill="#ffeea3" d="M11 16h2v2h-2zM15 16h2v2h-2zM19 16h2v2h-2zM23 16h2v2h-2zM27 16h2v2h-2z"></path></svg>