<svg viewBox="0 0 40 40" xmlns="http://www.w3.org/2000/svg"><path fill="#b6c9d6" d="M11.5 1.5h15v18h-15z"></path><path d="M26 2v17H12V2h14m1-1H11v19h16V1z" fill="#788b9c"></path><path fill="#36404d" d="M14 6h4v3h-4zM20 6h4v3h-4z"></path><path d="M15.5 38.5v-6H15A6.51 6.51 0 018.5 26V16a2.5 2.5 0 012.5-2.5h16a2.5 2.5 0 012.5 2.5v10a6.51 6.51 0 01-6.5 6.5h-.5v6z" fill="#dcd5f2"></path><path d="M27 14a2 2 0 012 2v10a6.08 6.08 0 01-6 6h-1v6h-6v-6h-1a6.08 6.08 0 01-6-6V16a2 2 0 012-2h16m0-1H11a3 3 0 00-3 3v10a7 7 0 007 7v6h8v-6a7 7 0 007-7V16a3 3 0 00-3-3z" fill="#8b75a1"></path><path d="M30.5 39.5a9 9 0 119-9 9 9 0 01-9 9z" fill="#bae0bd"></path><path d="M30.5 22a8.5 8.5 0 11-8.5 8.5 8.51 8.51 0 018.5-8.5m0-1a9.5 9.5 0 109.5 9.5 9.5 9.5 0 00-9.5-9.5z" fill="#5e9c76"></path><path fill="none" stroke="#fff" stroke-miterlimit="10" stroke-width="2" d="M26.09 30.53l2.92 2.92 6.58-6.58"></path></svg>