<svg viewBox="0 0 40 40" xmlns="http://www.w3.org/2000/svg"><path d="M10.17 26.5a2.21 2.21 0 01-1.77-.9l-3.12-5.1H4A2.5 2.5 0 011.5 18v-6A2.5 2.5 0 014 9.5h32a2.5 2.5 0 012.5 2.5v6a2.5 2.5 0 01-2.5 2.5h-1.28l-3.15 5.13a2.2 2.2 0 01-1.75.87z" fill="#b0c1d4"></path><path d="M36 10a2 2 0 012 2v6a2 2 0 01-2 2h-1.56l-.29.48-3 4.85a1.7 1.7 0 01-1.34.67H10.17a1.7 1.7 0 01-1.34-.67l-3-4.85-.27-.48H4a2 2 0 01-2-2v-6a2 2 0 012-2h32m0-1H4a3 3 0 00-3 3v6a3 3 0 003 3h1l3 4.89A2.7 2.7 0 0010.17 27h19.66A2.7 2.7 0 0032 25.89L35 21h1a3 3 0 003-3v-6a3 3 0 00-3-3z" fill="#66798f"></path><path fill="#66798f" d="M19 13h2v3h-2zM23 13h2v3h-2zM27 13h2v3h-2zM15 13h2v3h-2zM11 13h2v3h-2zM11.25 23.5L8.5 19.83V16.5h23v3.33l-2.75 3.67h-17.5z"></path><path d="M31 17v2.67L28.5 23h-17L9 19.67V17h22m1-1H8v4l3 4h18l3-4v-4z" fill="#36404d"></path><path fill="#ffeea3" d="M11 16h2v2h-2zM15 16h2v2h-2zM19 16h2v2h-2zM23 16h2v2h-2zM27 16h2v2h-2z"></path></svg>