<svg viewBox="0 0 40 40" xmlns="http://www.w3.org/2000/svg"><path fill="#b6c9d6" d="M12.5 1.5h15v18h-15z"></path><path d="M27 2v17H13V2h14m1-1H12v19h16V1z" fill="#788b9c"></path><path fill="#36404d" d="M15 6h4v3h-4zM21 6h4v3h-4z"></path><path d="M16.5 38.5v-6H16A6.51 6.51 0 019.5 26V16a2.5 2.5 0 012.5-2.5h16a2.5 2.5 0 012.5 2.5v10a6.51 6.51 0 01-6.5 6.5h-.5v6z" fill="#dcd5f2"></path><path d="M28 14a2 2 0 012 2v10a6.08 6.08 0 01-6 6h-1v6h-6v-6h-1a6.08 6.08 0 01-6-6V16a2 2 0 012-2h16m0-1H12a3 3 0 00-3 3v10a7 7 0 007 7v6h8v-6a7 7 0 007-7V16a3 3 0 00-3-3z" fill="#8b75a1"></path><circle cx="20" cy="20" r="2.5" fill="#f76d6d"></circle><path d="M20 18a2 2 0 11-2 2 2 2 0 012-2m0-1a3 3 0 103 3 3 3 0 00-3-3z" fill="#c74343"></path></svg>