<svg viewBox="0 0 40 40" xmlns="http://www.w3.org/2000/svg"><path d="M8 28.5A2.5 2.5 0 015.5 26v-2.25l-4-3V14A2.5 2.5 0 014 11.5h32a2.5 2.5 0 012.5 2.5v6.75l-4 3V26a2.5 2.5 0 01-2.5 2.5z" fill="#b0c1d4"></path><path d="M36 12a2 2 0 012 2v6.5l-3.6 2.7-.4.3V26a2 2 0 01-2 2H8a2 2 0 01-2-2v-2.5l-.4-.3L2 20.5V14a2 2 0 012-2h32m0-1H4a3 3 0 00-3 3v7l4 3v2a3 3 0 003 3h24a3 3 0 003-3v-2l4-3v-7a3 3 0 00-3-3z" fill="#66798f"></path><path fill="#66798f" d="M19 15h2v3h-2zM23 15h2v3h-2zM27 15h2v3h-2zM15 15h2v3h-2zM11 15h2v3h-2zM8.5 18.5h23v7h-23z"></path><path d="M31 19v6H9v-6h22m1-1H8v8h24v-8z" fill="#36404d"></path><path fill="#ffeea3" d="M11 18h2v2h-2zM15 18h2v2h-2zM19 18h2v2h-2zM23 18h2v2h-2zM27 18h2v2h-2z"></path></svg>