<svg viewBox="0 0 40 40" xmlns="http://www.w3.org/2000/svg"><path fill="#b6c9d6" d="M11.5 2.5h17v18h-17z"></path><path d="M28 3v17H12V3h16m1-1H11v19h18V2z" fill="#788b9c"></path><path fill="#36404d" d="M14 8h4v3h-4zM22 8h4v3h-4z"></path><g><path d="M17.5 38.5v-4H17c-4.687 0-8.5-3.813-8.5-8.5v-8c0-1.378 1.121-2.5 2.5-2.5h18c1.379 0 2.5 1.122 2.5 2.5v8c0 4.687-3.813 8.5-8.5 8.5h-.5v4h-5z" fill="#c6bae6"></path><path d="M29 16c1.103 0 2 .897 2 2v8c0 4.411-3.589 8-8 8h-1v4h-4v-4h-1c-4.411 0-8-3.589-8-8v-8c0-1.103.897-2 2-2h18m0-1H11a3 3 0 00-3 3v8a9 9 0 009 9v4h6v-4a9 9 0 009-9v-8a3 3 0 00-3-3z" fill="#8b75a1"></path></g></svg>