<svg viewBox="0 0 40 40" xmlns="http://www.w3.org/2000/svg"><path d="M1.514 35.5c.274-5.007 4.649-9 9.986-9h7c5.337 0 9.712 3.993 9.986 9H1.514z" fill="#8bb7f0"></path><path d="M18.5 27c4.882 0 8.915 3.506 9.442 8H2.058c.527-4.494 4.56-8 9.442-8h7m0-1h-7C5.701 26 1 30.477 1 36h28c0-5.523-4.701-10-10.5-10z" fill="#4e7ab5"></path><path d="M15 28.5c-2.816 0-3.975-1.775-4.214-2.206v-5.437h8.428v5.438c-.237.427-1.395 2.205-4.214 2.205z" fill="#deb974"></path><path d="M18.714 21.358v4.802C18.416 26.637 17.36 28 15 28c-2.351 0-3.414-1.364-3.714-1.842v-4.8h7.428m1-1h-9.429v6.058S11.48 29 14.999 29s4.714-2.584 4.714-2.584v-6.058h.001z" fill="#967a44"></path><path d="M21.071 18.357c-1.063 0-1.929-.865-1.929-1.929s.865-1.929 1.929-1.929c1.78 0 1.929.553 1.929 1.119 0 1.171-.953 2.739-1.929 2.739zm-12.142 0C7.953 18.357 7 16.789 7 15.619c0-.566.148-1.119 1.929-1.119 1.063 0 1.929.865 1.929 1.929s-.866 1.928-1.929 1.928z" fill="#deb974"></path><path d="M21.071 15c1.429 0 1.429.315 1.429.619 0 .962-.814 2.238-1.429 2.238a1.43 1.43 0 01-1.429-1.429A1.432 1.432 0 0121.071 15M8.929 15a1.43 1.43 0 011.429 1.429 1.43 1.43 0 01-1.429 1.429c-.614 0-1.429-1.276-1.429-2.238 0-.305 0-.62 1.429-.62m12.142-1a2.429 2.429 0 100 4.858c1.341 0 2.429-1.897 2.429-3.238S22.413 14 21.071 14zM8.929 14c-1.342 0-2.429.278-2.429 1.619s1.087 3.238 2.429 3.238a2.429 2.429 0 100-4.857z" fill="#967a44"></path><g><path d="M15 25.5a1.989 1.989 0 01-1.416-.588l-.096-.096-.132-.034A6.497 6.497 0 018.5 18.5v-8.136a2.84 2.84 0 012.836-2.837h7.328a2.84 2.84 0 012.836 2.837V18.5a6.497 6.497 0 01-4.856 6.282l-.132.034-.096.096A1.989 1.989 0 0115 25.5z" fill="#f5ce85"></path><path d="M18.664 8.028A2.339 2.339 0 0121 10.364V18.5a5.996 5.996 0 01-4.483 5.798l-.263.069-.192.193c-.284.283-.661.44-1.062.44s-.778-.157-1.062-.441l-.192-.193-.263-.069A5.994 5.994 0 019 18.5v-8.136a2.339 2.339 0 012.336-2.336h7.328m0-1h-7.328A3.336 3.336 0 008 10.364V18.5c0 3.253 2.223 5.981 5.23 6.766.453.453 1.079.734 1.77.734s1.317-.281 1.77-.734C19.777 24.481 22 21.753 22 18.5v-8.136a3.336 3.336 0 00-3.336-3.336z" fill="#967a44"></path></g><g><path d="M23 25.5c-1.76 0-3.407-.912-4.269-1.485 1.046-.658 2.769-2.223 2.769-5.372v-3.724c0-2.41-2.086-4.223-2.175-4.299l-.43-.368-.313.473c-.021.032-2.135 3.156-6.65 3.78-2.358.325-3.432 2.109-3.432 3.629v.509c0 3.193 1.707 4.734 2.757 5.381C10.398 24.597 8.764 25.5 7 25.5c-1.793 0-3.382-.935-4.16-1.483.881-.695 2.445-2.24 2.445-4.445 0-.94-.179-1.708-.367-2.521C4.713 16.165 4.5 15.25 4.5 14c0-8.488 5.387-11.5 10-11.5 3.803 0 5.031 2.676 5.043 2.702l.132.298H20c3.495 0 5.5 2.733 5.5 7.5 0 1.332-.267 2.55-.523 3.727-.246 1.119-.477 2.175-.477 3.273 0 1.845 1.459 2.852 2.643 3.281-.708.811-2.215 2.219-4.143 2.219z" fill="#a6714e"></path><path d="M14.5 3c3.427 0 4.543 2.315 4.586 2.405l.263.595H20c3.224 0 5 2.486 5 7 0 1.278-.26 2.469-.512 3.62C24.237 17.766 24 18.849 24 20c0 1.766 1.143 2.857 2.292 3.452C25.551 24.167 24.388 25 23 25c-1.274 0-2.497-.524-3.357-1.01C20.732 23.107 22 21.472 22 18.643v-3.724c0-2.638-2.254-4.596-2.35-4.678l-.864-.739-.623.951c-.019.03-1.985 2.961-6.3 3.557C9.209 14.376 8 16.404 8 18.133v.51c0 2.863 1.254 4.489 2.342 5.361C9.491 24.486 8.282 25 7 25c-1.313 0-2.525-.556-3.331-1.041.942-.88 2.117-2.379 2.117-4.388 0-.998-.193-1.83-.38-2.635C5.206 16.079 5 15.192 5 14c0-8.119 5.118-11 9.5-11m0-1C9.212 2 4 5.694 4 14c0 2.454.786 3.682.786 5.571C4.786 22.327 2 24 2 24s2.254 2 5 2c2.794 0 5.211-2.056 5.211-2.056S9 22.918 9 18.643v-.205-.304c0-1.354.942-2.85 3-3.134 4.816-.665 7-4 7-4s2 1.711 2 3.919v3.724c0 4.194-3.214 5.302-3.214 5.302S20.225 26 23 26c3.005 0 5-3 5-3s-3-.535-3-3c0-2.19 1-4.352 1-7 0-5.761-2.766-8-6-8 0 0-1.328-3-5.5-3z" fill="#7a4f34"></path></g><g fill="#788b9c"><path d="M26.656 26.926c.028.023.052.05.08.074H39v-1H27.929a9.543 9.543 0 01-1.273.926zM27.678 16a41.74 41.74 0 01-.204 1H39v-1H27.678zM28.37 21.034l2.676.966H39v-1H28.237l.133.034z"></path></g></svg>