<svg viewBox="0 0 40 40" xmlns="http://www.w3.org/2000/svg"><path d="M19 38.5a4.44 4.44 0 01-3.316-1.483l-.084-.092-.118-.042A10.517 10.517 0 018.5 27V12.381a4.747 4.747 0 014.742-4.742h11.516a4.747 4.747 0 014.742 4.742V27c0 4.424-2.806 8.396-6.982 9.883l-.118.042-.084.092A4.44 4.44 0 0119 38.5z" fill="#ffeea3"></path><path d="M24.758 8.139A4.247 4.247 0 0129 12.381V27c0 4.213-2.672 7.995-6.65 9.412l-.236.084-.168.185a3.947 3.947 0 01-5.892-.001l-.168-.185-.236-.084A10.014 10.014 0 019 27V12.381a4.247 4.247 0 014.242-4.242h11.516m0-1H13.242A5.242 5.242 0 008 12.381V27c0 4.78 3.055 8.837 7.314 10.354C16.229 38.358 17.534 39 19 39s2.771-.642 3.686-1.647C26.945 35.837 30 31.78 30 27V12.381a5.242 5.242 0 00-5.242-5.242z" fill="#ba9b48"></path><circle cx="24.75" cy="25.429" r="1.357" fill="#36404d"></circle><circle cx="13.893" cy="25.429" r="1.357" fill="#36404d"></circle><g><path d="M31 37.5c-2.786 0-5.358-.999-6.593-1.566 1.599-1.12 5.093-4.142 5.093-9.147v-6.904c0-3.774-4.073-6.211-4.247-6.312l-.446-.263-.247.455c-.026.048-2.695 4.82-9.379 5.743-3.218.444-6.681 2.73-6.681 6.698l1 .083-1-.023v.522c0 5.072 3.832 8.21 5.622 9.399C12.783 36.679 10.221 37.5 8 37.5c-3.864 0-5.765-1.786-6.366-2.493.807-1.034 3.258-4.381 3.258-6.863 0-1.341-.31-2.886-.638-4.521C3.884 21.772 3.5 19.86 3.5 18c0-10.328 7.354-16.5 14.464-16.5 5.34 0 7.583 3.716 7.604 3.753l.146.247H26c4.605 0 9.5 3.68 9.5 10.5 0 2.219-.486 4.549-.957 6.803-.408 1.955-.793 3.801-.793 5.341 0 3.088 3.11 5.84 4.412 6.857-1.124.785-3.946 2.499-7.162 2.499z" fill="#ffc49c"></path><path d="M17.964 2c5.008 0 7.09 3.367 7.173 3.506l.29.494H26c4.363 0 9 3.505 9 10 0 2.167-.481 4.472-.946 6.7-.413 1.981-.804 3.852-.804 5.443 0 2.921 2.545 5.52 4.071 6.816C36.021 35.78 33.643 37 31 37c-2.202 0-4.273-.65-5.606-1.186C27.211 34.353 30 31.364 30 26.786v-6.904c0-4.057-4.31-6.636-4.493-6.744l-.894-.525-.492.913c-.025.046-2.546 4.592-9.007 5.484C11.687 19.483 8 21.936 8 26.204V26.786c0 4.629 3.035 7.71 5.048 9.245C11.671 36.484 9.722 37 8 37c-3.192 0-4.955-1.279-5.71-2.023 1.022-1.354 3.103-4.407 3.103-6.834 0-1.39-.315-2.959-.648-4.619C4.379 21.698 4 19.811 4 18 4 7.985 11.1 2 17.964 2m0-1C10.53 1 3 7.471 3 18c0 3.586 1.393 7.382 1.393 10.143S1 35 1 35s1.925 3 7 3c3.303 0 7.246-1.719 7.246-1.719S9 33.035 9 26.786v-.522V26.204c0-3.678 3.242-5.788 6.25-6.204 7.038-.972 9.75-6 9.75-6s4 2.35 4 5.882v6.904c0 6.13-5.607 9.202-5.607 9.202S26.945 38 31 38c4.392 0 8-3 8-3s-4.75-3.254-4.75-6.857c0-3.201 1.75-7.9 1.75-12.143 0-7.196-5.274-11-10-11 0 0-2.348-4-8.036-4z" fill="#a16a4a"></path></g></svg>