<svg viewBox="0 0 40 40" xmlns="http://www.w3.org/2000/svg"><path d="M1.516 30.5c.283-4.455 4.316-8 9.234-8h6.5c4.918 0 8.952 3.545 9.234 8H1.516z" fill="#8bb7f0"></path><path d="M17.25 23c4.454 0 8.142 3.059 8.682 7H2.068c.54-3.941 4.228-7 8.682-7h6.5m0-1h-6.5C5.365 22 1 26.029 1 31h26c0-4.971-4.365-9-9.75-9z" fill="#4e7ab5"></path><path d="M14 24.5c-2.362 0-3.322-1.994-3.5-2.418v-4.255h7v4.255c-.178.424-1.138 2.418-3.5 2.418z" fill="#deb974"></path><path d="M17 18.328v3.649c-.225.486-1.087 2.023-3 2.023-1.917 0-2.779-1.543-3-2.023v-3.649h6m1-1h-8v4.849S11.014 25 14 25s4-2.823 4-2.823v-4.849z" fill="#967a44"></path><path d="M19.357 15.786a1.645 1.645 0 01-1.643-1.644c0-.905.737-1.643 1.643-1.643 1.518 0 1.643.439 1.643.929 0 .987-.828 2.358-1.643 2.358zm-10.714 0C7.828 15.786 7 14.415 7 13.429c0-.49.125-.929 1.643-.929.906 0 1.643.737 1.643 1.643s-.737 1.643-1.643 1.643z" fill="#deb974"></path><path d="M19.357 13c1.143 0 1.143.218 1.143.429 0 .82-.709 1.857-1.143 1.857-.63 0-1.143-.513-1.143-1.143S18.727 13 19.357 13M8.643 13c.63 0 1.143.513 1.143 1.143s-.513 1.143-1.143 1.143c-.434 0-1.143-1.038-1.143-1.857 0-.211 0-.429 1.143-.429m10.714-1a2.143 2.143 0 000 4.286c1.184 0 2.143-1.674 2.143-2.857 0-1.184-.959-1.429-2.143-1.429zM8.643 12c-1.184 0-2.143.245-2.143 1.429 0 1.183.959 2.857 2.143 2.857a2.142 2.142 0 100-4.286z" fill="#967a44"></path><path d="M14 21.5c-.517 0-1-.212-1.36-.597l-.092-.099-.129-.038A5.532 5.532 0 018.5 15.5V8.526a2.362 2.362 0 012.359-2.359h6.281a2.362 2.362 0 012.359 2.359V15.5a5.535 5.535 0 01-3.918 5.267l-.129.038-.092.099A1.85 1.85 0 0114 21.5z" fill="#f5ce85"></path><path d="M17.141 6.667c1.025 0 1.859.834 1.859 1.86V15.5a5.031 5.031 0 01-3.562 4.788l-.258.078-.184.197a1.35 1.35 0 01-1.991-.001l-.184-.197-.258-.078A5.029 5.029 0 019 15.5V8.526c0-1.025.834-1.86 1.859-1.86h6.282m0-.999H10.86A2.86 2.86 0 008 8.526V15.5a6 6 0 004.275 5.745c.432.462 1.043.755 1.725.755s1.293-.293 1.725-.755A6 6 0 0020 15.5V8.526a2.859 2.859 0 00-2.859-2.859z" fill="#967a44"></path><path d="M19.5 13.5v-2.723c0-3.105-1.65-3.967-1.721-4.002l-.358-.179-.253.311c-.02.025-2.055 2.481-4.945 2.481-.239 0-.472-.008-.697-.016-.221-.007-.434-.015-.637-.015-1.181 0-2.388.274-2.388 2.309V13.5h-.206C7.94 12.826 7 10.832 7 8.623 7 4.296 9.748 1.5 14 1.5c2.718 0 3.989 2.374 4.001 2.398l.119.228.254.036C20.116 4.411 21 6.039 21 9c0 2.001-.932 3.862-1.287 4.5H19.5z" fill="#a6714e"></path><path d="M14 2c2.386 0 3.514 2.047 3.558 2.129l.237.454.507.073C19.761 4.865 20.5 6.327 20.5 9c0 .955-.23 1.885-.5 2.646v-.868c0-3.354-1.793-4.348-1.997-4.45l-.716-.355-.507.618c-.019.023-1.915 2.298-4.558 2.298-.233 0-.461-.008-.681-.015a18.8 18.8 0 00-.654-.015c-.702 0-2.812 0-2.886 2.663-.27-.824-.501-1.837-.501-2.899C7.5 4.6 10.051 2 14 2m0-1C9.236 1 6.5 4.259 6.5 8.623 6.5 11.514 8 14 8 14h1v-2.333c0-1.592.787-1.808 1.888-1.808.41 0 .862.03 1.334.03 3.176 0 5.333-2.666 5.333-2.666S19 7.945 19 10.778V14h1s1.5-2.366 1.5-5c0-3.148-1.013-5.041-3.056-5.333C18.444 3.667 17.052 1 14 1z" fill="#7a4f34"></path><g><path d="M9.512 38.5c.268-5.559 4.982-10 10.738-10h7.5c5.756 0 10.47 4.441 10.738 10H9.512z" fill="#c2e8ff"></path><path d="M27.75 29c5.306 0 9.683 3.954 10.199 9H10.051c.516-5.046 4.893-9 10.199-9h7.5m0-1h-7.5C14.037 28 9 32.925 9 39h30c0-6.075-5.037-11-11.25-11z" fill="#7496c4"></path></g><g><path d="M24 31.5c-3.076 0-4.296-2.625-4.5-3.122v-5.469h9v5.469c-.204.497-1.424 3.122-4.5 3.122z" fill="#ffdea3"></path><path d="M28 23.41v4.865c-.263.59-1.393 2.725-4 2.725-2.611 0-3.741-2.141-4-2.725V23.41h8m1-1H19v6.062s1.267 3.529 5 3.529 5-3.529 5-3.529V22.41z" fill="#967a44"></path></g><g><path d="M30.429 20.643c-1.143 0-2.072-.929-2.072-2.071s.929-2.071 2.072-2.071c1.725 0 2.071.465 2.071 1.214 0 1.251-1.024 2.928-2.071 2.928zm-12.858 0c-1.047 0-2.071-1.677-2.071-2.929 0-.749.347-1.214 2.071-1.214 1.143 0 2.072.929 2.072 2.071s-.929 2.072-2.072 2.072z" fill="#ffdea3"></path><path d="M30.429 17C32 17 32 17.363 32 17.714c0 1.044-.896 2.429-1.571 2.429a1.572 1.572 0 010-3.143m-12.858 0c.867 0 1.571.705 1.571 1.571s-.705 1.571-1.571 1.571c-.676 0-1.571-1.385-1.571-2.429 0-.35 0-.713 1.571-.713m12.858-1a2.57 2.57 0 100 5.142c1.42 0 2.571-2.008 2.571-3.428S31.849 16 30.429 16zm-12.858 0c-1.42 0-2.571.294-2.571 1.714s1.151 3.429 2.571 3.429a2.57 2.57 0 100-5.143z" fill="#967a44"></path></g><g><path d="M24 27.5a2.25 2.25 0 01-1.56-.631l-.09-.086-.12-.034A6.518 6.518 0 0117.5 20.5v-8.136a2.84 2.84 0 012.836-2.837h7.328a2.84 2.84 0 012.836 2.837V20.5a6.518 6.518 0 01-4.73 6.249l-.12.034-.09.086A2.25 2.25 0 0124 27.5z" fill="#ffdea3"></path><path d="M27.664 10.028A2.339 2.339 0 0130 12.364V20.5a6.017 6.017 0 01-4.367 5.768l-.239.068-.18.172c-.332.317-.763.492-1.214.492s-.882-.175-1.214-.492l-.18-.172-.239-.068A6.017 6.017 0 0118 20.5v-8.136a2.339 2.339 0 012.336-2.336h7.328m0-1h-7.328A3.337 3.337 0 0017 12.364V20.5c0 3.205 2.156 5.9 5.095 6.731.496.474 1.165.769 1.905.769s1.409-.295 1.905-.769A6.998 6.998 0 0031 20.5v-8.136a3.336 3.336 0 00-3.336-3.336z" fill="#967a44"></path></g><g><path d="M30.5 18.5V15c0-3.484-2.217-4.425-2.312-4.463l-.342-.14-.234.287c-.023.029-2.329 2.816-5.612 2.816-.264 0-.53-.009-.791-.017a23.163 23.163 0 00-.778-.017c-.877 0-2.931 0-2.931 2.533v2.5h-.214c-.44-.773-1.786-3.349-1.786-5.924C15.5 7.821 18.995 4.5 24 4.5c3.078 0 4.499 2.621 4.557 2.732l.119.226.253.037C30.462 7.715 32.5 8.524 32.5 13c0 2.334-1.337 4.763-1.778 5.5H30.5z" fill="#f5ce85"></path><path d="M24 5c2.762 0 4.062 2.367 4.114 2.463l.237.454.507.073C30.321 8.199 32 8.958 32 13c0 1.395-.515 2.842-1 3.894V15c0-3.816-2.516-4.883-2.623-4.926l-.687-.279-.467.577C27.201 10.397 25.06 13 22 13c-.259 0-.519-.008-.775-.017a24.05 24.05 0 00-.794-.017c-.849 0-3.431 0-3.431 3.034v.807c-.486-1.122-1-2.677-1-4.23C16 8.115 19.29 5 24 5m0-1c-5.36 0-9 3.667-9 8.576C15 15.828 17 19 17 19h1v-3c0-1.791 1.085-2.034 2.431-2.034.501 0 1.038.034 1.569.034 3.573 0 6-3 6-3s2 .813 2 4v4h1s2-3.037 2-6c0-4.161-1.703-5.671-4-6 0 0-1.566-3-5-3z" fill="#967a44"></path></g></svg>