<svg viewBox="0 0 40 40" xmlns="http://www.w3.org/2000/svg"><path d="M20 21.746c-2.379 0-3.306-1.438-3.5-1.798V16.5h7v3.448c-.195.365-1.116 1.798-3.5 1.798z" fill="#e8d47b"></path><path d="M23 17v2.818c-.241.392-1.062 1.427-3 1.427-1.923 0-2.756-1.041-3-1.431V17h6m1-1h-8v4.064s.934 2.181 4 2.181 4-2.181 4-2.181V16z" fill="#ba9b48"></path><path d="M25 13.5c-.827 0-1.5-.673-1.5-1.5s.673-1.5 1.5-1.5c1.385 0 1.5.394 1.5.833 0 .907-.756 2.167-1.5 2.167zm-10 0c-.744 0-1.5-1.26-1.5-2.167 0-.439.115-.833 1.5-.833.827 0 1.5.673 1.5 1.5s-.673 1.5-1.5 1.5z" fill="#e8d47b"></path><path d="M25 11c.825 0 .974.155.975.156a.44.44 0 01.025.177c0 .72-.629 1.667-1 1.667-.551 0-1-.449-1-1s.449-1 1-1m-10 0c.551 0 1 .449 1 1s-.449 1-1 1c-.371 0-1-.947-1-1.667a.46.46 0 01.024-.176c.002-.002.151-.157.976-.157m10-1a2 2 0 100 4c1.105 0 2-1.562 2-2.667S26.105 10 25 10zm-10 0c-1.105 0-2 .229-2 1.333S13.895 14 15 14a2 2 0 100-4z" fill="#ba9b48"></path><path d="M20 18.5c-.4 0-.78-.182-1.044-.498l-.105-.126-.16-.04a5.482 5.482 0 01-4.19-5.336V7.243a2.362 2.362 0 012.359-2.359h6.281A2.362 2.362 0 0125.5 7.243V12.5a5.482 5.482 0 01-4.19 5.336l-.16.04-.105.126A1.365 1.365 0 0120 18.5z" fill="#ffeea3"></path><path d="M23.141 5.384c1.025 0 1.859.834 1.859 1.86V12.5a4.983 4.983 0 01-3.81 4.85l-.32.078-.211.253c-.098.12-.316.319-.659.319s-.561-.199-.66-.318l-.211-.253-.32-.078A4.985 4.985 0 0115 12.5V7.243c0-1.025.834-1.86 1.859-1.86h6.282m0-.999H16.86A2.86 2.86 0 0014 7.243V12.5a5.997 5.997 0 004.572 5.822c.342.411.851.678 1.428.678s1.086-.267 1.428-.678A5.997 5.997 0 0026 12.5V7.243a2.859 2.859 0 00-2.859-2.859z" fill="#ba9b48"></path><path d="M25.5 12.5V11c0-2.703-2.189-4.146-2.283-4.206l-.332-.213-.285.272c-.013.012-1.511 1.378-4.663 1.378-1.711 0-3.438 1.025-3.438 3.315v.954h-.119c-.247-.938-.88-3.52-.88-5.5 0-2.733 2.12-5.5 6.173-5.5 2.17 0 2.834 1.612 2.861 1.681l.125.316L23 3.5c1.467 0 3.5 1.24 3.5 3.568 0 1.809-.637 4.467-.885 5.432H25.5z" fill="#ffc49c"></path><path d="M19.673 2c1.779 0 2.339 1.229 2.393 1.356l.245.644H23c1.046 0 3 .9 3 3.068 0 .703-.101 1.544-.237 2.36-.61-1.959-2.192-3.001-2.274-3.054l-.656-.409-.569.519c-.056.051-1.402 1.248-4.326 1.248-1.71 0-3.04.854-3.62 2.204C14.142 8.981 14 7.921 14 7c0-2.485 1.949-5 5.673-5m0-1C15.455 1 13 3.872 13 7c0 2.555 1 6 1 6h1v-1.453c0-1.931 1.399-2.816 2.938-2.816 3.423 0 5.009-1.517 5.009-1.517S25 8.539 25 11v2h1s1-3.603 1-5.932C27 4.414 24.685 3 23 3c0 0-.762-2-3.327-2z" fill="#a16a4a"></path><path fill="#66798f" d="M1 26h38v1H1z"></path><path fill="#839cb2" d="M1.5 24.5h1v4h-1z"></path><path d="M2 25v3-3m1-1H1v5h2v-5z" fill="#66798f"></path><g><path fill="#839cb2" d="M37.5 24.5h1v4h-1z"></path><path d="M38 25v3-3m1-1h-2v5h2v-5z" fill="#66798f"></path></g><g><path d="M8 38.5c-1.93 0-3.5-1.57-3.5-3.5v-7.5h31V35c0 1.93-1.57 3.5-3.5 3.5H8z" fill="#f5ce85"></path><path d="M35 28v7c0 1.654-1.346 3-3 3H8c-1.654 0-3-1.346-3-3v-7h30m1-1H4v8a4 4 0 004 4h24a4 4 0 004-4v-8z" fill="#c29653"></path></g><g><path fill="#839cb2" d="M4.5 22.5h31v6h-31z"></path><path d="M35 23v5H5v-5h30m1-1H4v7h32v-7z" fill="#66798f"></path></g><g><path fill="#fff" d="M8.5 17.5h23v8h-23z"></path><path d="M31 18v7H9v-7h22m1-1H8v9h24v-9z" fill="#788b9c"></path></g></svg>