<svg viewBox="0 0 40 40" xmlns="http://www.w3.org/2000/svg"><path d="M.516 29.5c.283-4.455 4.316-8 9.234-8h6.5c4.918 0 8.952 3.545 9.234 8H.516z" fill="#8bb7f0"></path><path d="M16.25 22c4.454 0 8.142 3.059 8.682 7H1.068c.54-3.941 4.228-7 8.682-7h6.5m0-1h-6.5C4.365 21 0 25.029 0 30h26c0-4.971-4.365-9-9.75-9z" fill="#4e7ab5"></path><path d="M13 23.5c-2.362 0-3.322-1.994-3.5-2.418v-4.255h7v4.255c-.178.424-1.138 2.418-3.5 2.418z" fill="#deb974"></path><path d="M16 17.328v3.649c-.225.486-1.087 2.023-3 2.023-1.917 0-2.779-1.543-3-2.023v-3.649h6m1-1H9v4.849S10.014 24 13 24s4-2.823 4-2.823v-4.849z" fill="#967a44"></path><path d="M13 20.5c-.517 0-1-.212-1.36-.597l-.092-.099-.129-.038A5.532 5.532 0 017.5 14.5V7.526a2.362 2.362 0 012.359-2.359h6.281a2.362 2.362 0 012.359 2.359V14.5a5.535 5.535 0 01-3.918 5.267l-.129.038-.092.099A1.85 1.85 0 0113 20.5z" fill="#f5ce85"></path><path d="M16.141 5.667c1.025 0 1.859.834 1.859 1.86V14.5a5.031 5.031 0 01-3.562 4.788l-.258.078-.184.197a1.35 1.35 0 01-1.991-.001l-.184-.197-.258-.078A5.029 5.029 0 018 14.5V7.526c0-1.025.834-1.86 1.859-1.86h6.282m0-.999H9.859A2.859 2.859 0 007 7.526V14.5a6 6 0 004.275 5.745c.432.462 1.043.755 1.725.755s1.293-.293 1.725-.755A6 6 0 0019 14.5V7.526a2.859 2.859 0 00-2.859-2.859z" fill="#967a44"></path><path d="M19 20.5c-1.337 0-2.588-.888-3.216-1.419.921-.766 2.716-2.704 2.716-6.171v-2.397c0-2.742-2.294-4.104-2.392-4.16l-.477-.276-.23.503c-.049.107-1.245 2.645-4.613 3.11-1.411.195-3.288.741-3.288 3.22 0 3.662 1.774 5.496 2.713 6.209-.588.527-1.765 1.381-3.22 1.381-1.743 0-2.767-.368-3.267-.625.632-.865 1.917-2.839 1.917-4.59 0-.732-.162-1.483-.333-2.277-.188-.867-.381-1.765-.381-2.716 0-5.503 3.741-8.792 7.357-8.792 2.68 0 3.846 1.882 3.857 1.9l.146.242h.282c2.167 0 4.5 1.634 4.5 5.221 0 1.155-.197 2.384-.389 3.572-.167 1.042-.326 2.026-.326 2.85 0 1.587 1.266 3.065 1.929 3.729-.564.528-1.796 1.486-3.285 1.486z" fill="#a6714e"></path><path d="M12.286 2c2.357 0 3.391 1.599 3.429 1.659l.292.484h.565c1.927 0 4 1.477 4 4.721 0 1.115-.194 2.324-.382 3.492-.171 1.063-.332 2.067-.332 2.93 0 1.507.968 2.873 1.704 3.695C20.973 19.446 20.052 20 19 20c-.923 0-1.822-.5-2.444-.949C17.584 18.034 19 16.062 19 12.91v-2.397c0-3.027-2.533-4.531-2.641-4.593l-.96-.557-.454 1.012c-.011.024-1.105 2.387-4.225 2.818C9.8 9.321 7 9.707 7 12.91c0 3.309 1.391 5.227 2.433 6.2-.583.428-1.443.89-2.44.89-1.161 0-1.972-.17-2.5-.345.703-1.05 1.649-2.762 1.649-4.37 0-.786-.167-1.562-.345-2.383-.182-.842-.37-1.712-.37-2.61C5.429 5.102 8.915 2 12.286 2m0-1c-4.068 0-7.857 3.671-7.857 9.292 0 1.887.714 3.54.714 4.994C5.143 17.405 3 20 3 20s1.046 1 3.993 1C9.355 21 11 19.039 11 19.039s-3-1.508-3-6.129c0-1.936 1.274-2.508 2.857-2.726 3.704-.512 5-3.399 5-3.399S18 8.028 18 10.513v2.397c0 4.333-3 6.129-3 6.129S16.866 21 19 21c2.312 0 4-2 4-2s-2.143-1.819-2.143-3.715c0-1.685.714-4.189.714-6.422 0-3.787-2.513-5.721-5-5.721 0 .001-1.292-2.142-4.285-2.142z" fill="#7a4f34"></path><g><path d="M8.512 38.5c.268-5.559 4.982-10 10.738-10h7.5c5.756 0 10.47 4.441 10.738 10H8.512z" fill="#c2e8ff"></path><path d="M26.75 29c5.306 0 9.683 3.954 10.199 9H9.051c.516-5.046 4.893-9 10.199-9h7.5m0-1h-7.5C13.037 28 8 32.925 8 39h30c0-6.075-5.037-11-11.25-11z" fill="#7496c4"></path></g><g><path d="M23 31.5c-3.076 0-4.296-2.625-4.5-3.122v-5.469h9v5.469c-.204.497-1.424 3.122-4.5 3.122z" fill="#ffdea3"></path><path d="M27 23.41v4.865c-.263.59-1.393 2.725-4 2.725-2.611 0-3.741-2.141-4-2.725V23.41h8m1-1H18v6.062s1.267 3.529 5 3.529 5-3.529 5-3.529V22.41z" fill="#967a44"></path></g><g><path d="M23 27.5a2.25 2.25 0 01-1.56-.631l-.09-.086-.12-.034A6.518 6.518 0 0116.5 20.5v-8.136a2.84 2.84 0 012.836-2.837h7.328a2.84 2.84 0 012.836 2.837V20.5a6.518 6.518 0 01-4.73 6.249l-.12.034-.09.086A2.25 2.25 0 0123 27.5z" fill="#ffdea3"></path><path d="M26.664 10.028A2.339 2.339 0 0129 12.364V20.5a6.017 6.017 0 01-4.367 5.768l-.239.068-.18.172c-.332.317-.763.492-1.214.492s-.882-.175-1.214-.492l-.18-.172-.239-.068A6.017 6.017 0 0117 20.5v-8.136a2.339 2.339 0 012.336-2.336h7.328m0-1h-7.328A3.337 3.337 0 0016 12.364V20.5c0 3.205 2.156 5.9 5.095 6.731.496.474 1.165.769 1.905.769s1.409-.295 1.905-.769A6.998 6.998 0 0030 20.5v-8.136a3.336 3.336 0 00-3.336-3.336z" fill="#967a44"></path></g><g><path d="M31 27.5c-1.767 0-3.411-.911-4.27-1.484 1.045-.658 2.77-2.223 2.77-5.373v-4.724c0-2.41-2.086-4.223-2.175-4.299l-.43-.368-.312.473c-.021.032-2.135 3.156-6.651 3.78-2.358.325-3.432 2.109-3.432 3.629v1.509c0 3.193 1.708 4.734 2.757 5.381-.859.573-2.493 1.476-4.257 1.476-1.786 0-3.378-.935-4.16-1.484.882-.695 2.445-2.24 2.445-4.444 0-.928-.176-1.909-.362-2.948-.208-1.161-.423-2.361-.423-3.624 0-8.488 5.387-11.5 10-11.5 3.802 0 5.031 2.676 5.043 2.702l.131.298H28c3.495 0 5.5 2.733 5.5 7.5 0 1.342-.268 2.836-.528 4.281-.243 1.353-.472 2.631-.472 3.719 0 1.845 1.459 2.852 2.642 3.281-.708.811-2.214 2.219-4.142 2.219z" fill="#f5ce85"></path><path d="M22.5 4c3.427 0 4.543 2.315 4.586 2.405l.263.595H28c3.224 0 5 2.486 5 7 0 1.297-.264 2.769-.52 4.193C32.233 19.569 32 20.868 32 22c0 1.766 1.143 2.857 2.292 3.452C33.551 26.167 32.388 27 31 27c-1.274 0-2.497-.524-3.357-1.01C28.732 25.107 30 23.472 30 20.643v-4.724c0-2.638-2.254-4.596-2.35-4.678l-.864-.739-.623.951c-.019.03-1.985 2.961-6.3 3.557-2.654.366-3.863 2.394-3.863 4.123v1.509c0 2.863 1.254 4.489 2.342 5.361-.851.483-2.06.997-3.342.997-1.313 0-2.525-.556-3.331-1.041.942-.88 2.117-2.379 2.117-4.388 0-.972-.18-1.975-.37-3.036C13.211 17.396 13 16.218 13 15c0-8.119 5.118-11 9.5-11m0-1C17.212 3 12 6.694 12 15c0 2.454.786 4.682.786 6.571C12.786 24.327 10 26 10 26s2.254 2 5 2c2.794 0 5.211-2.056 5.211-2.056S17 24.918 17 20.643v-1.509c0-1.354.942-2.849 3-3.134 4.816-.665 7-4 7-4s2 1.711 2 3.919v4.724c0 4.194-3.214 5.302-3.214 5.302S28.225 28 31 28c3.005 0 5-3 5-3s-3-.535-3-3c0-2.19 1-5.352 1-8 0-5.761-2.766-8-6-8 0 0-1.328-3-5.5-3z" fill="#967a44"></path></g></svg>