<svg viewBox="0 0 40 40" xmlns="http://www.w3.org/2000/svg"><g fill="#788b9c"><path d="M23.812 21.89c-.014.038-.034.072-.048.11H39v-1H24.866a4.531 4.531 0 01-1.054.89zM26.218 27H39v-1H24.602a14.8 14.8 0 011.616 1zM25.994 16.989l.002-1 13.006.023-.002 1z"></path></g><path d="M1.514 35.5c.274-5.007 4.649-9 9.986-9h7c5.337 0 9.712 3.993 9.986 9H1.514z" fill="#8bb7f0"></path><path d="M18.5 27c4.882 0 8.915 3.506 9.442 8H2.058c.527-4.494 4.56-8 9.442-8h7m0-1h-7C5.701 26 1 30.477 1 36h28c0-5.523-4.701-10-10.5-10z" fill="#4e7ab5"></path><path d="M15 28.5c-2.816 0-3.975-1.775-4.214-2.206v-5.437h8.428v5.438c-.237.427-1.395 2.205-4.214 2.205z" fill="#deb974"></path><path d="M18.714 21.358v4.802C18.416 26.637 17.36 28 15 28c-2.351 0-3.414-1.364-3.714-1.842v-4.8h7.428m1-1h-9.429v6.058S11.48 29 14.999 29s4.714-2.584 4.714-2.584v-6.058h.001z" fill="#967a44"></path><path d="M21.071 18.357c-1.063 0-1.929-.865-1.929-1.929s.865-1.929 1.929-1.929c1.78 0 1.929.553 1.929 1.119 0 1.171-.953 2.739-1.929 2.739zm-12.142 0C7.953 18.357 7 16.789 7 15.619c0-.566.148-1.119 1.929-1.119 1.063 0 1.929.865 1.929 1.929s-.866 1.928-1.929 1.928z" fill="#deb974"></path><path d="M21.071 15c1.429 0 1.429.315 1.429.619 0 .962-.814 2.238-1.429 2.238a1.43 1.43 0 01-1.429-1.429A1.432 1.432 0 0121.071 15M8.929 15a1.43 1.43 0 011.429 1.429 1.43 1.43 0 01-1.429 1.429c-.614 0-1.429-1.276-1.429-2.238 0-.305 0-.62 1.429-.62m12.142-1a2.429 2.429 0 100 4.858c1.341 0 2.429-1.897 2.429-3.238S22.413 14 21.071 14zM8.929 14c-1.342 0-2.429.278-2.429 1.619s1.087 3.238 2.429 3.238a2.429 2.429 0 100-4.857z" fill="#967a44"></path><g><path d="M15 25.5a1.989 1.989 0 01-1.416-.588l-.096-.096-.132-.034A6.497 6.497 0 018.5 18.5v-8.136a2.84 2.84 0 012.836-2.837h7.328a2.84 2.84 0 012.836 2.837V18.5a6.497 6.497 0 01-4.856 6.282l-.132.034-.096.096A1.989 1.989 0 0115 25.5z" fill="#f5ce85"></path><path d="M18.664 8.028A2.339 2.339 0 0121 10.364V18.5a5.996 5.996 0 01-4.483 5.798l-.263.069-.192.193c-.284.283-.661.44-1.062.44s-.778-.157-1.062-.441l-.192-.193-.263-.069A5.994 5.994 0 019 18.5v-8.136a2.339 2.339 0 012.336-2.336h7.328m0-1h-7.328A3.336 3.336 0 008 10.364V18.5c0 3.253 2.223 5.981 5.23 6.766.453.453 1.079.734 1.77.734s1.317-.281 1.77-.734C19.777 24.481 22 21.753 22 18.5v-8.136a3.336 3.336 0 00-3.336-3.336z" fill="#967a44"></path></g><g><path d="M21.5 16.5v-3.129c0-3.323-2.461-4.208-2.565-4.244l-.33-.113-.222.271c-.021.026-2.188 2.645-5.269 2.645-.244 0-.496-.008-.749-.016-.266-.008-.532-.017-.794-.017-.919 0-3.071 0-3.071 2.418V16.5h-.188C7.958 15.739 7 13.462 7 11.086 7 6.619 10.29 3.5 15 3.5c3.167 0 4.509 2.297 4.564 2.395l.099.174.192.06C21.205 6.535 23 7.533 23 11.485c0 1.147-.882 3.763-1.346 5.015H21.5z" fill="#a6714e"></path><path d="M15 4c2.856 0 4.08 2.056 4.127 2.137l.197.353.387.117c1.299.392 2.789 1.301 2.789 4.879 0 .518-.215 1.434-.5 2.401v-.516c0-3.676-2.785-4.676-2.903-4.717l-.66-.224-.441.538c-.02.025-2.049 2.46-4.882 2.46-.239 0-.486-.008-.734-.015-.27-.008-.542-.016-.808-.016-.877 0-3.534 0-3.572 2.854-.272-.921-.5-2.033-.5-3.164C7.5 6.914 10.584 4 15 4m0-1c-5.053 0-8.5 3.457-8.5 8.086C6.5 14.152 8 17 8 17h1v-2.686c0-1.689 1.205-1.918 2.573-1.918.509 0 1.041.032 1.541.032 3.369 0 5.657-2.828 5.657-2.828S21 10.366 21 13.371V17h1s1.5-3.889 1.5-5.514c0-3.923-1.709-5.296-3.5-5.837C20 5.649 18.519 3 15 3z" fill="#7a4f34"></path></g></svg>