<svg viewBox="0 0 40 40" xmlns="http://www.w3.org/2000/svg"><path d="M20 38.5a2.5 2.5 0 01-2.346-1.667l-.118-.333H3c-.827 0-1.5-.673-1.5-1.5V10c0-.827.673-1.5 1.5-1.5h34c.827 0 1.5.673 1.5 1.5v25c0 .827-.673 1.5-1.5 1.5H22.464l-.118.333A2.5 2.5 0 0120 38.5z" fill="#8bb7f0"></path><path d="M37 9c.551 0 1 .449 1 1v25c0 .551-.449 1-1 1H22.11l-.236.665C21.59 37.464 20.837 38 20 38s-1.59-.536-1.874-1.335L17.89 36H3c-.551 0-1-.449-1-1V10c0-.551.449-1 1-1h34m0-1H3a2 2 0 00-2 2v25a2 2 0 002 2h14.184c.413 1.163 1.512 2 2.816 2s2.403-.837 2.816-2H37a2 2 0 002-2V10a2 2 0 00-2-2z" fill="#4e7ab5"></path><path d="M20 34.451c-.93-.41-4.68-1.951-8.5-1.951-3.323 0-6.594 1.167-8 1.74V6.293c.823-.434 3.738-1.793 8-1.793 5.047 0 8.206 1.906 8.237 1.926l.262.161.264-.161c.031-.02 3.19-1.926 8.237-1.926 4.262 0 7.177 1.359 8 1.793V34.24c-1.406-.573-4.677-1.74-8-1.74-3.82 0-7.57 1.542-8.5 1.951z" fill="#fff"></path><path d="M28.5 5c3.777 0 6.462 1.095 7.5 1.601v26.908C34.336 32.888 31.44 32 28.5 32c-3.677 0-7.284 1.389-8.5 1.907C18.784 33.389 15.177 32 11.5 32c-2.94 0-5.836.888-7.5 1.509V6.601C5.04 6.094 7.724 5 11.5 5c4.887 0 7.946 1.833 7.974 1.85l.525.322.525-.32C20.554 6.833 23.613 5 28.5 5m0-1C23.232 4 20 6 20 6s-3.232-2-8.5-2S3 6 3 6v29s4.25-2 8.5-2 8.5 2 8.5 2 4.25-2 8.5-2 8.5 2 8.5 2V6s-3.232-2-8.5-2z" fill="#788b9c"></path><path d="M36 33.509C34.336 32.888 31.44 32 28.5 32c-3.677 0-7.284 1.389-8.5 1.907l-.001-26.735.525-.32C20.554 6.833 23.613 5 28.5 5c3.777 0 6.463 1.095 7.5 1.601v26.908z" fill="#e1ebf2"></path><circle cx="28.5" cy="12.5" r="1.5" fill="#36404d"></circle><g><path fill="#36404d" d="M30 25v-9h-4v1h1v8h-1v1h5v-1z"></path></g></svg>