<svg viewBox="0 0 40 40" xmlns="http://www.w3.org/2000/svg"><path fill="#c2e8ff" d="M16.207 34.5H4.5v-32h31v32H23.793L20 38.293z"></path><path d="M35 3v31H23.586l-.293.293L20 37.586l-3.293-3.293-.293-.293H5V3h30m1-1H4v33h12l4 4 4-4h12V2z" fill="#7496c4"></path><path d="M20 18.5c-2.481 0-4.5-2.019-4.5-4.5s2.019-4.5 4.5-4.5 4.5 2.019 4.5 4.5-2.019 4.5-4.5 4.5z" fill="#ffeea3"></path><path d="M20 10c2.206 0 4 1.794 4 4s-1.794 4-4 4-4-1.794-4-4 1.794-4 4-4m0-1a5 5 0 10.001 10.001A5 5 0 0020 9z" fill="#ba9b48"></path><g><path d="M12.517 27.5c.258-3.903 3.516-7 7.483-7s7.225 3.097 7.483 7H12.517z" fill="#8bb7f0"></path><path d="M20 21c3.52 0 6.442 2.612 6.929 6H13.071c.487-3.388 3.409-6 6.929-6m0-1a8 8 0 00-8 8h16a8 8 0 00-8-8z" fill="#4e7ab5"></path></g></svg>