<svg viewBox="0 0 40 40" xmlns="http://www.w3.org/2000/svg"><path d="M5.574 25.5a1.08 1.08 0 01-.931-.537 1.072 1.072 0 01.247-1.366l4.777-3.933 2.076 3.598-5.794 2.17c-.12.045-.247.068-.375.068z" fill="#b3add8"></path><path d="M9.53 20.426L11.016 23l-5.241 1.964a.576.576 0 01-.698-.252.571.571 0 01.132-.729l4.321-3.557m.276-1.523l-5.233 4.308a1.573 1.573 0 00-.362 2.001l.001.001a1.571 1.571 0 001.914.687l6.347-2.378-2.667-4.619z" fill="#8b75a1"></path><path d="M23.732 21.509a4.971 4.971 0 01-2.212-.526 5.898 5.898 0 00-3.811-.521l-1.911.383-2.309-3.997 1.288-1.465a5.934 5.934 0 001.455-3.56 4.863 4.863 0 012.42-3.952l12.297-7.1c.318-.184.681-.28 1.048-.28.77 0 1.489.418 1.879 1.093l5.334 9.237c.29.502.369 1.086.225 1.643a2.101 2.101 0 01-.985 1.299l-12.297 7.1a4.864 4.864 0 01-2.421.646z" fill="#dcd5f2"></path><path d="M31.997.99a1.68 1.68 0 011.446.843l5.333 9.238c.224.388.286.837.174 1.266-.11.423-.377.775-.751.992l-12.297 7.099a4.347 4.347 0 01-2.17.58 4.447 4.447 0 01-1.988-.474 6.464 6.464 0 00-2.886-.687c-.418 0-.838.042-1.248.123l-1.56.312-1.949-3.376 1.05-1.195a6.433 6.433 0 001.579-3.862 4.368 4.368 0 012.171-3.547l12.297-7.099c.244-.138.52-.213.799-.213m0-1a2.59 2.59 0 00-1.298.348l-12.297 7.1a5.375 5.375 0 00-2.669 4.356 5.405 5.405 0 01-1.332 3.259l-1.524 1.734 2.667 4.619 2.264-.453a5.42 5.42 0 013.488.476c.77.387 1.605.58 2.437.58.926 0 1.847-.239 2.67-.714L38.7 14.196c1.257-.726 1.68-2.348.943-3.624L34.31 1.334A2.675 2.675 0 0031.997-.01z" fill="#8b75a1"></path><path fill="#fff" d="M23.463 9.093l6.443-3.721 3.966 6.866-6.444 3.722z"></path><path d="M29.723 6.057l3.464 6-5.577 3.22-3.464-6 5.577-3.22m.366-1.366l-7.309 4.22 4.464 7.732 7.309-4.22-4.464-7.732z" fill="#8b75a1"></path><g><path fill="#b3add8" d="M8.054 17.432l4.763-2.75 4.53 7.845-4.764 2.75z"></path><path d="M12.634 15.366l4.029 6.979-3.897 2.25-4.029-6.979 3.897-2.25M13 14l-5.629 3.25 5.029 8.711 5.629-3.25L13 14z" fill="#8b75a1"></path></g><g><path d="M4 39.5c-1.93 0-3.5-1.626-3.5-3.625 0-1.541 2.259-4.597 3.5-6.101 1.241 1.504 3.5 4.561 3.5 6.101C7.5 37.874 5.93 39.5 4 39.5z" fill="#c2e8ff"></path><path d="M4 30.566c1.428 1.798 3 4.198 3 5.309C7 37.598 5.654 39 4 39s-3-1.402-3-3.125c0-1.109 1.572-3.51 3-5.309M4 29s-4 4.597-4 6.875S1.791 40 4 40s4-1.847 4-4.125S4 29 4 29z" fill="#7496c4"></path></g></svg>