<svg viewBox="0 0 40 40" xmlns="http://www.w3.org/2000/svg"><path d="M27.5 38.5v-9.768l-3-2V18.5c0-3.86 3.14-7 7-7s7 3.14 7 7v8.232l-3 2V38.5h-8z" fill="#8bb7f0"></path><path d="M31.5 12c3.584 0 6.5 2.916 6.5 6.5v7.965l-2.555 1.703-.445.297V38h-7v-9.535l-.445-.297L25 26.465V18.5c0-3.584 2.916-6.5 6.5-6.5m0-1a7.5 7.5 0 00-7.5 7.5V27l3 2v10h9V29l3-2v-8.5a7.5 7.5 0 00-7.5-7.5z" fill="#4e7ab5"></path><path d="M28.125 12.402c1.019-.591 2.176-.902 3.375-.902s2.357.311 3.375.902L31.5 18.028l-3.375-5.626z" fill="#c2e8ff"></path><path d="M31.5 12c.937 0 1.847.205 2.675.598L31.5 17.056l-2.675-4.458A6.225 6.225 0 0131.5 12m0-1a7.195 7.195 0 00-4.056 1.24L31.5 19l4.056-6.76A7.195 7.195 0 0031.5 11z" fill="#4e7ab5"></path><path d="M1.5 26.5v-4h17.464c.847 0 1.536.617 1.536 1.375v1.25c0 .758-.689 1.375-1.536 1.375H1.5z" fill="#f78f8f"></path><path d="M18.964 23c.571 0 1.036.393 1.036.875v1.25c0 .482-.465.875-1.036.875H2v-3h16.964m0-1H1v5h17.964C20.089 27 21 26.161 21 25.125v-1.25C21 22.839 20.089 22 18.964 22z" fill="#c74343"></path><path d="M31.499 9.5A3.004 3.004 0 0128.5 6.499v-1A3.003 3.003 0 0131.499 2.5 3.003 3.003 0 0134.5 5.499v1A3.005 3.005 0 0131.499 9.5z" fill="#ffeea3"></path><path d="M31.498 3A2.503 2.503 0 0134 5.498v1A2.504 2.504 0 0131.498 9 2.503 2.503 0 0129 6.498v-1A2.501 2.501 0 0131.498 3m0-1A3.5 3.5 0 0028 5.498v1a3.5 3.5 0 107 0v-1A3.5 3.5 0 0031.498 2z" fill="#ba9b48"></path><path d="M28 5s1.566 2 3.498 2C33.434 7 35 5 35 5h-7z" fill="#66798f"></path><path fill="#8bb7f0" d="M28.5 1.5h6v3h-6z"></path><path d="M34 2v2h-5V2h5m1-1h-7v4h7V1z" fill="#4e7ab5"></path><path fill="none" stroke="#4e7ab5" stroke-miterlimit="10" d="M35.5 21v8M31.5 28v11M27.5 21v8"></path><path d="M18 31.857V38a1 1 0 01-1 1h-3a1 1 0 01-1-1v-6.143a1 1 0 011-1h3a1 1 0 011 1z" fill="#66798f"></path><path d="M1.5 36.5v-25h9.521a3.566 3.566 0 013.465 2.705l1.956 8.514.802 2.237c.175.36.256.702.256 1.044v8.286a2.216 2.216 0 01-2.214 2.214H1.5z" fill="#f78f8f"></path><path d="M11.021 12c1.412 0 2.637.957 2.975 2.308l1.958 8.523.013.059.02.056.785 2.179.02.056.026.053c.119.236.182.501.182.766v8.286c0 .945-.769 1.714-1.714 1.714H2V12h9.021m0-1H1v26h14.286A2.714 2.714 0 0018 34.286V26a2.71 2.71 0 00-.287-1.214l-.785-2.179-1.958-8.523A4.07 4.07 0 0011.021 11z" fill="#c74343"></path><circle cx="13" cy="29" r="2" fill="#fff"></circle><g><path d="M1.5 36.5v-7h4.82c1.048 0 1.944.748 2.132 1.779l.949 5.221H1.5z" fill="#c8d1db"></path><path d="M6.32 30c.806 0 1.496.576 1.64 1.369L8.802 36H2v-6h4.32m0-1H1v8h9l-1.056-5.81A2.668 2.668 0 006.32 29z" fill="#66798f"></path></g><g><path d="M1.5 22.5v-11h9.521a3.566 3.566 0 013.465 2.705l1.953 8.295H1.5z" fill="#c2e8ff"></path><path d="M11.021 12c1.412 0 2.637.957 2.977 2.313L15.807 22H2V12h9.021m0-1H1v12h16.07l-2.1-8.916A4.07 4.07 0 0011.021 11z" fill="#c74343"></path></g><path fill="#f78f8f" d="M1 23h17v2H1z"></path><path fill="#f78f8f" d="M1 23h2v6H1z"></path><path fill="#c8d1db" d="M1 30h2v6H1z"></path><path fill="#c2e8ff" d="M1 12h2v10H1z"></path></svg>