<svg viewBox="0 0 40 40" xmlns="http://www.w3.org/2000/svg"><path d="M34 13.5c-2.481 0-4.5-2.019-4.5-4.5s2.019-4.5 4.5-4.5c3.196 0 4.5.82 4.5 2.833 0 2.436-2.016 6.167-4.5 6.167z" fill="#e8d47b"></path><path d="M34 5c3.331 0 4 .893 4 2.333C38 9.755 36.022 13 34 13c-2.206 0-4-1.794-4-4s1.794-4 4-4m0-1a5 5 0 000 10c2.761 0 5-3.905 5-6.667C39 4.572 36.761 4 34 4z" fill="#ba9b48"></path><path d="M6 13.5c-2.484 0-4.5-3.731-4.5-6.167C1.5 5.32 2.804 4.5 6 4.5c2.481 0 4.5 2.019 4.5 4.5S8.481 13.5 6 13.5z" fill="#e8d47b"></path><path d="M6 5c2.206 0 4 1.794 4 4s-1.794 4-4 4c-2.022 0-4-3.245-4-5.667C2 5.893 2.669 5 6 5m0-1c-2.761 0-5 .572-5 3.333C1 10.095 3.239 14 6 14A5 5 0 006 4z" fill="#ba9b48"></path><path d="M20 29.5c-2.652 0-5.055-1.364-6.427-3.65l-.073-.121-.126-.065C8.517 23.16 5.5 18.223 5.5 12.776V1.516h29v11.261c0 5.446-3.017 10.384-7.874 12.887l-.126.065-.073.121C25.055 28.136 22.652 29.5 20 29.5z" fill="#ffeea3"></path><path d="M34 2.015v10.761c0 5.258-2.913 10.026-7.603 12.443l-.253.13-.146.244C24.717 27.726 22.475 29 20 29s-4.717-1.274-5.998-3.407l-.146-.244-.253-.13C8.913 22.802 6 18.035 6 12.776V2.015h28m1-1H5v11.761c0 5.812 3.311 10.841 8.145 13.331C14.543 28.437 17.086 30 20 30s5.457-1.563 6.855-3.892C31.689 23.617 35 18.588 35 12.776V1.015z" fill="#ba9b48"></path><circle cx="26" cy="7" r="2" fill="#36404d"></circle><circle cx="14" cy="7" r="2" fill="#36404d"></circle><path d="M24.5 18h-9a.501.501 0 01-.5-.5c0-.275.225-.5.5-.5h9c.275 0 .5.225.5.5s-.225.5-.5.5z" fill="#ba9b48"></path><path fill="#ffeea3" d="M6 1h28v2H6z"></path><g fill="#5d4037"><path d="M23.8 21.221s-.02-.016-.058-.042c.013.049.024.098.039.144l.019-.102zM16.257 21.182c-.037.024-.057.039-.057.039s.009.043.019.103c.014-.045.026-.093.038-.142z"></path></g><g><path d="M20 32.484c-5.878 0-8.5-3.547-8.5-11.5V19.07c0-1.211.569-2.329 1.521-2.99 1.789-1.243 4.173-2.58 5.179-2.58 1.124 0 1.295.545 1.312.606a.51.51 0 00.487.385h.021a.494.494 0 00.473-.412c.011-.045.168-.579 1.304-.579.416.021 2.719 1.183 5.06 2.651 1.013.636 1.643 1.813 1.643 3.071v1.762c0 7.954-2.622 11.5-8.5 11.5zm3.501-11.214c.015 1.05.17 3.215 1.832 3.215.988 0 2.167-.778 2.167-4.484l.002-.357c0-1.682-.576-2.4-2.203-2.749-1.357-.291-3.627-.395-5.299-.395-2.047 0-3.952.132-5.095.354-1.709.332-2.407 1.14-2.407 2.789l.002.359c0 1.454 0 4.482 2.167 4.482 1.663 0 1.817-2.166 1.832-3.215.461-.249 1.664-.785 3.458-.785h.093-.005c1.791 0 2.994.537 3.456.786z" fill="#b27354"></path><path d="M18.2 14c.557 0 .784.16.832.251.113.439.51.749.968.749h.013a1 1 0 00.96-.767c.041-.071.244-.225.784-.233.517.11 2.709 1.241 4.834 2.575.869.545 1.409 1.56 1.409 2.647v.26c-.042-1.798-.803-2.695-2.596-3.078C24.008 16.106 21.697 16 20 16c-2.078 0-4.018.136-5.19.363-1.282.248-2.75.831-2.81 3.133v-.425c0-1.047.489-2.012 1.307-2.58C15.317 15.094 17.466 14 18.2 14M12 20c0 1.492 0 4.985 2.667 4.985 1.427 0 2.205-1.143 2.319-3.399.526-.242 1.533-.595 2.937-.601a1.001 1.001 0 00.15 0c1.408.005 2.418.36 2.941.6.113 2.257.892 3.399 2.319 3.399 1.217 0 2.667-.865 2.667-4.98v-.002.981c0 9.693-4.044 11-8 11s-8-1.307-8-11V20m9.797-7C20.161 13 20 14 20 14s-.188-1-1.8-1c-1.195 0-3.742 1.474-5.464 2.669-1.085.754-1.736 2.03-1.736 3.402v1.914c0 8.608 3.09 12 9 12s9-3.392 9-12v-1.762c0-1.434-.709-2.762-1.877-3.495C25.209 14.527 22.434 13 21.797 13zm-7.13 10.985C13.042 23.985 13 21.5 13 20l-.002-.357c0-1.493.611-2.029 2.002-2.298 1.199-.233 3.147-.345 5-.345 1.905 0 4.018.131 5.195.383 1.36.291 1.807.795 1.807 2.26L27 20c0 .875-.042 3.985-1.667 3.985-1.042 0-1.333-1.333-1.333-3 0 0-1.422-1-3.956-1-.015 0-.029.003-.044.003-.015 0-.029-.003-.044-.003-2.534 0-3.956 1-3.956 1 0 1.666-.292 3-1.333 3z" fill="#704e34"></path></g><path d="M27.899 21.335c-.62 7.542-4.292 8.65-7.899 8.65-3.608 0-7.279-1.108-7.899-8.651a2.067 2.067 0 00-.101-.241c.03 9.595 4.059 10.893 8 10.893s7.97-1.298 8-10.893a2.017 2.017 0 00-.101.242z" fill="#935c41"></path></svg>