<svg viewBox="0 0 40 40" xmlns="http://www.w3.org/2000/svg"><circle cx="30" cy="10" r="7.5" fill="#ffeea3"></circle><path d="M30 3c3.86 0 7 3.14 7 7s-3.14 7-7 7-7-3.14-7-7 3.14-7 7-7m0-1a8 8 0 100 16 8 8 0 000-16z" fill="#ba9b48"></path><circle cx="10" cy="10" r="7.5" fill="#f78f8f"></circle><path d="M10 3c3.86 0 7 3.14 7 7s-3.14 7-7 7-7-3.14-7-7 3.14-7 7-7m0-1a8 8 0 100 16 8 8 0 000-16z" fill="#c74343"></path><g><circle cx="30" cy="30" r="7.5" fill="#bae0bd"></circle><path d="M30 23c3.86 0 7 3.14 7 7s-3.14 7-7 7-7-3.14-7-7 3.14-7 7-7m0-1a8 8 0 100 16 8 8 0 000-16z" fill="#5e9c76"></path></g><g><circle cx="10" cy="30" r="7.5" fill="#8bb7f0"></circle><path d="M10 23c3.86 0 7 3.14 7 7s-3.14 7-7 7-7-3.14-7-7 3.14-7 7-7m0-1a8 8 0 100 16 8 8 0 000-16z" fill="#4e7ab5"></path></g></svg>