<svg viewBox="0 0 40 40" xmlns="http://www.w3.org/2000/svg"><path d="M2.5 36.5v-33h35V36c0 .275-.225.5-.5.5H2.5z" fill="#fff"></path><path d="M37 4v32H3V4h34m1-1H2v34h35a1 1 0 001-1V3z" fill="#788b9c"></path><path fill="#788b9c" d="M2 3h36v6H2z"></path><path d="M14.592 24.571c.484 1.164 1.285 1.929 2.194 1.929C18.901 26.5 20 24.485 20 22s-1.191-4.5-3.214-4.5c-.909 0-1.71.765-2.194 1.929M25.408 24.571c-.484 1.164-1.285 1.929-2.194 1.929C21.099 26.5 20 24.485 20 22s1.191-4.5 3.214-4.5c.909 0 1.71.765 2.194 1.929M28.473 28.231C29.125 26.358 29.5 24.245 29.5 22s-.375-4.358-1.027-6.231M11.527 15.769C10.875 17.642 10.5 19.755 10.5 22s.375 4.358 1.027 6.231" fill="none" stroke="#69a6e8" stroke-miterlimit="10"></path></svg>