<svg viewBox="0 0 40 40" xmlns="http://www.w3.org/2000/svg"><path d="M4 33.5c-.827 0-1.5-.673-1.5-1.5V8c0-.827.673-1.5 1.5-1.5h32c.827 0 1.5.673 1.5 1.5v24c0 .827-.673 1.5-1.5 1.5H4z" fill="#bae0bd"></path><path d="M36 7c.551 0 1 .449 1 1v24c0 .551-.449 1-1 1H4c-.551 0-1-.449-1-1V8c0-.551.449-1 1-1h32m0-1H4a2 2 0 00-2 2v24a2 2 0 002 2h32a2 2 0 002-2V8a2 2 0 00-2-2z" fill="#5e9c76"></path><path d="M13.143 24.5l-1.95-8.763h1.885l.624 3.783c.143.949.325 2.016.442 3.042h.026c.117-1.04.26-2.093.416-3.081l.598-3.744h1.872L15.054 24.5h-1.911zM17.927 15.868c.52-.117 1.209-.17 1.937-.17.819 0 1.612.104 2.223.624.468.391.663.976.663 1.587 0 .779-.403 1.533-1.261 1.91v.053c1.014.286 1.547 1.118 1.547 2.093 0 .715-.234 1.287-.65 1.716-.52.572-1.404.885-2.874.885-.65 0-1.196-.039-1.586-.104v-8.594zm1.703 3.471h.364c.611 0 1.079-.521 1.079-1.235 0-.637-.299-1.131-.988-1.131-.195 0-.351.013-.455.052v2.314zm0 3.887c.104.026.234.026.377.026.702 0 1.261-.429 1.261-1.313 0-.884-.598-1.339-1.274-1.339h-.364v2.626zM24.141 22.758c.351.195.962.338 1.443.338.793 0 1.196-.416 1.196-.987 0-.638-.39-.949-1.131-1.431-1.196-.728-1.651-1.651-1.651-2.444 0-1.403.936-2.574 2.756-2.574.585 0 1.131.156 1.378.312l-.273 1.469a2.083 2.083 0 00-1.105-.299c-.729 0-1.079.442-1.079.91 0 .52.26.793 1.196 1.365 1.17.702 1.586 1.586 1.586 2.509 0 1.6-1.183 2.652-2.886 2.652-.702 0-1.378-.183-1.677-.352l.247-1.468z" fill="#44825d"></path></svg>