<svg viewBox="0 0 40 40" xmlns="http://www.w3.org/2000/svg"><path d="M4.5 28.022V26c0-8.56 6.94-15.5 15.5-15.5h0c8.56 0 15.5 6.94 15.5 15.5v2.022M3 10.5h34" fill="none" stroke="#66798f" stroke-miterlimit="10"></path><path fill="#8bb7f0" d="M16.5 7.5h7v7h-7z"></path><path d="M23 8v6h-6V8h6m1-1h-8v8h8V7z" fill="#4e7ab5"></path><path fill="#8bb7f0" d="M32.5 25.5h6v6h-6z"></path><path d="M38 26v5h-5v-5h5m1-1h-7v7h7v-7z" fill="#4e7ab5"></path><path fill="#8bb7f0" d="M1.5 25.5h6v6h-6z"></path><path d="M7 26v5H2v-5h5m1-1H1v7h7v-7z" fill="#4e7ab5"></path><g><circle cx="36.5" cy="10.5" r="2" fill="#f78f8f"></circle><path d="M36.5 9c.827 0 1.5.673 1.5 1.5s-.673 1.5-1.5 1.5-1.5-.673-1.5-1.5.673-1.5 1.5-1.5m0-1a2.5 2.5 0 100 5 2.5 2.5 0 000-5z" fill="#c74343"></path></g><g><circle cx="3.5" cy="10.5" r="2" fill="#f78f8f"></circle><path d="M3.5 9c.827 0 1.5.673 1.5 1.5S4.327 12 3.5 12 2 11.327 2 10.5 2.673 9 3.5 9m0-1a2.5 2.5 0 100 5 2.5 2.5 0 000-5z" fill="#c74343"></path></g></svg>