<svg viewBox="0 0 40 40" xmlns="http://www.w3.org/2000/svg"><path fill="#bae0bd" d="M2.5 35.5h4v2h-4z"></path><path d="M6 36v1H3v-1h3m1-1H2v3h5v-3z" fill="#5e9c76"></path><path fill="#bae0bd" d="M33.5 35.5h4v2h-4z"></path><path d="M37 36v1h-3v-1h3m1-1h-5v3h5v-3z" fill="#5e9c76"></path><path d="M20 38.5c-5.345 0-8.135-.761-9-1.049V35.5h18v1.951c-.865.288-3.655 1.049-9 1.049z" fill="#bae0bd"></path><path d="M28.5 36v1.083c-1.106.321-3.791.917-8.5.917-4.713 0-7.398-.596-8.5-.917V36h17m1-1h-19v2.8S13.214 39 20 39s9.5-1.2 9.5-1.2V35z" fill="#5e9c76"></path><path d="M20 36.518c-5.698 0-9.688-.351-10.5-.708V19.904l-2 5V35c-.094.17-1.081.551-2.918.551-1.911 0-2.972-.394-3.092-.595L1.5 25c0-1.245 3.093-10.068 3.947-11.776 1.059-2.119 1.453-2.489 2.239-3.227.195-.185.414-.389.668-.643 1.003-1.003 4.153-2.053 5.283-2.373L14 6.878V3c.236-.454 3.048-.935 6.011-1 2.941.065 5.753.546 5.994 1.029L26 6.869l.353.108c1.203.372 4.537 1.548 5.508 2.519 1.16 1.16 1.315 1.47 2.522 3.887l.17.34c1.259 2.518 3.694 10.514 3.947 11.35V35c-.107.144-1.141.518-3 .518s-2.893-.374-3.011-.564l.011-9.535-2-6V35.81c-.812.357-4.802.708-10.5.708z" fill="#f5ce85"></path><path d="M20 2.5c2.373.055 4.809.401 5.5.767v3.971l.705.218c1.627.502 4.504 1.597 5.302 2.394 1.102 1.102 1.253 1.405 2.428 3.757l.17.34c1.212 2.423 3.551 10.069 3.894 11.201v9.538c-.346.139-1.186.331-2.5.331s-2.154-.192-2.5-.331v-9.348l-.051-.154-1-3L30 16.338v19.1c-1.131.27-4.549.58-10 .58s-8.869-.31-10-.58V17.307l-1.928 4.821-1 2.5-.072.179v9.911c-.324.138-1.134.333-2.418.333-1.303 0-2.214-.202-2.582-.357v-9.693c.018-1.113 2.989-9.743 3.894-11.554 1.02-2.039 1.369-2.368 2.134-3.087.199-.187.42-.395.679-.653.822-.822 3.543-1.813 5.066-2.245l.727-.206V3.267c.691-.366 3.127-.712 5.5-.767m0 0s-6.5.143-6.5 1.5v2.5S9.315 7.685 8 9s-1.643 1.286-3 4c-.858 1.717-4 10.643-4 12v10c0 .689 1.805 1.051 3.582 1.051C6.304 36.051 8 35.711 8 35V25l1-2.5V36c0 .679 5.5 1.018 11 1.018S31 36.679 31 36V22.5l1 3V35c0 .679 1.75 1.018 3.5 1.018S39 35.679 39 35V25s-2.643-8.786-4-11.5-1.513-3.085-2.786-4.357C30.942 7.871 26.5 6.5 26.5 6.5V4c0-1.357-6.5-1.5-6.5-1.5z" fill="#967a44"></path><g><path d="M19 11V7.985l-.48-.019c-2.558-.1-4.805-.63-5.03-1.019L13.5 3.5c.193-.519 3.292-1 6.5-1s6.307.481 6.501 1.008L26.5 7c-.216.334-2.463.863-5.02.965l-.48.019V11h-2z" fill="#bae0bd"></path><path d="M20 3c2.617.001 5.296.337 6 .736v2.969c-.607.313-2.514.679-4.54.76l-.96.038V10.5h-1V7.504l-.961-.038c-2.026-.078-3.933-.445-4.539-.759V3.736c.704-.399 3.383-.735 6-.736m0-1s-7 0-7 1.5V7c0 .916 3.455 1.386 5.5 1.466V11.5h3V8.464C23.568 8.382 27 7.909 27 7V3.5C27 2 20 2 20 2z" fill="#5e9c76"></path></g><g><path d="M14.546 29.472c.134-2.185.595-6.803 3.029-8.938.728-.639 1.634-1.005 2.485-1.005.999 0 2.112.543 2.244 2.069l.028.321.303.107c1.257.446 2.03 1.098 2.235 1.884.213.817-.172 1.84-1.084 2.88-1.452 1.625-3.934 1.89-6.125 2.125-1.193.129-2.269.244-3.115.557z" fill="#bae0bd"></path><path d="M20.061 20.03c.483 0 1.62.157 1.746 1.612l.055.641.606.215c.763.271 1.714.758 1.918 1.54.17.652-.177 1.513-.97 2.417-1.327 1.485-3.707 1.739-5.808 1.964-.915.098-1.765.189-2.512.368.188-2.292.756-6.076 2.809-7.876.639-.56 1.424-.881 2.156-.881m0-1c-.933 0-1.956.376-2.815 1.129-2.928 2.568-3.153 8.373-3.24 10.034l-.03.049a4.308 4.308 0 00-.005.098c1.928-1.494 7.515-.225 10.19-3.218 1.899-2.165 1.832-4.433-1.359-5.566-.145-1.682-1.343-2.526-2.741-2.526z" fill="#5e9c76"></path></g><path d="M18.731 25.819c2.035-3.776 6.515-5.599 6.515-5.599" fill="none" stroke="#5e9c76" stroke-miterlimit="10"></path><path d="M26 3s-2.75-.75-6.25-.75S14 3 14 3c.327.327 1.087.654 2.695.841C18.294 4.027 19.5 5.5 19.5 7.5h1V7a3.29 3.29 0 012.755-3.249C25.084 3.456 26 3 26 3z" fill="#5e9c76"></path></svg>