<svg viewBox="0 0 40 40" xmlns="http://www.w3.org/2000/svg"><path d="M20 37.379c-2.383-1.768-18.5-14.074-18.5-23.2C1.5 8.842 5.842 4.5 11.179 4.5a9.707 9.707 0 018.388 4.865l.433.753.434-.753A9.707 9.707 0 0128.822 4.5c5.337 0 9.679 4.342 9.679 9.679C38.5 23.308 22.384 35.61 20 37.379z" fill="#bae0bd"></path><path d="M28.821 5C33.883 5 38 9.117 38 14.179c0 3.884-3.176 9.07-9.184 14.998-3.683 3.634-7.411 6.524-8.816 7.58-1.402-1.052-5.116-3.933-8.798-7.562C5.182 23.259 2 18.067 2 14.179 2 9.117 6.117 5 11.179 5a9.21 9.21 0 017.955 4.614L20 11.12l.867-1.507A9.207 9.207 0 0128.821 5m0-1C25.045 4 21.757 6.061 20 9.115 18.243 6.061 14.955 4 11.179 4 5.557 4 1 8.557 1 14.179 1 24.357 20 38 20 38s19-13.643 19-23.821C39 8.557 34.443 4 28.821 4z" fill="#5e9c76"></path><path fill="#fff" d="M26.875 13H31L20 32v-6.786zM13.125 13H9l11 19v-6.786z"></path></svg>