<svg viewBox="0 0 40 40" xmlns="http://www.w3.org/2000/svg"><path d="M25.477 36.963c-2.189-.007-5.195-.009-8.321-.009-4.125 0-14.157.009-14.157.009v-4.597c2.319-.531 14.665-3.249 24.41-3.249 5.529 0 9.242.853 11.041 2.536l.01 2.191c-.43.765-1.214 1.171-1.223 1.175-.061.035-3.426 1.945-11.599 1.945l-.161-.001z" fill="#ffc49c"></path><path d="M27.411 28.616v1c5.163 0 8.79.781 10.539 2.262l.009 1.828c-.361.557-.944.864-.944.865l-.032.016-.025.015c-.032.019-3.327 1.862-11.318 1.862h-.162a2860.19 2860.19 0 00-8.323-.009c-4.125 0-8.461.004-11.413.007l-2.243.002v-3.697c3.06-.687 14.67-3.148 23.91-3.149l.002-1.002m-.003 0c-10.932.001-24.91 3.352-24.91 3.352v5.494c1.665 0 8.404-.009 14.656-.009 3.126 0 6.131.002 8.319.009h.165c8.453 0 11.822-1.998 11.822-1.998s.999-.499 1.498-1.498l-.012-2.525c-2.063-2.106-6.472-2.825-11.538-2.825z" fill="#a16a4a"></path><path d="M2.828 33.966c-.351-.857-1.328-3.462-1.328-5.993 0-2.296.8-4.089 1.197-4.838 1.293.62 5.242 2.357 8.844 2.357 4.548 0 7.551-3.782 8.529-5.222 1.432 1.341 6.061 5.206 11.897 5.206 2.372 0 4.131.639 5.229 1.9 1.316 1.511 1.333 3.54 1.291 4.258-1.111.482-5.845 2.333-13.013 2.333H2.828z" fill="#bae0bd"></path><path d="M20.151 21.017c1.835 1.616 6.298 4.958 11.817 4.958 2.217 0 3.848.579 4.846 1.722 1.05 1.201 1.191 2.786 1.185 3.599-1.466.596-5.955 2.169-12.524 2.169H3.166C2.764 32.431 2 30.174 2 27.973c0-1.825.538-3.326.93-4.178 1.642.747 5.264 2.197 8.611 2.197 4.342 0 7.33-3.251 8.61-4.975m-.171-1.535s-3.168 5.51-8.439 5.51c-4.216 0-9.043-2.513-9.043-2.513S1 24.748 1 27.973c0 3.225 1.498 6.493 1.498 6.493h22.976c8.433 0 13.486-2.497 13.486-2.497s.999-6.993-6.993-6.993c-6.776 0-11.987-5.494-11.987-5.494z" fill="#5e9c76"></path><circle cx="26.223" cy="27.223" r=".999" fill="#ffeea3" stroke="#ba9b48" stroke-miterlimit="2"></circle><circle cx="22.228" cy="25.725" r=".999" fill="#ffeea3" stroke="#ba9b48" stroke-miterlimit="2"></circle><path fill="none" stroke="#a16a4a" stroke-linecap="round" d="M24.725 22.728l-2.497 2.997M28.721 24.227l-2.498 2.996"></path><g><path d="M21.438 16.684c-3.308 0-6.23-2.358-8.809-4.438-1.58-1.275-2.988-2.411-4.341-2.922C10.567 7.282 16.17 2.5 21.348 2.5c.177 0 .354.005.529.017 2.255.148 4.177 1.332 4.895 3.015.533 1.25.283 2.584-.703 3.757l-.207.246.138.291c.925 1.945 1.054 3.588.37 4.752-.706 1.205-2.321 1.948-4.546 2.094a6.123 6.123 0 01-.386.012z" fill="#bae0bd"></path><path d="M21.348 3c.166 0 .332.005.496.016 2.037.134 3.832 1.223 4.467 2.712.462 1.083.246 2.203-.625 3.24l-.414.492.276.581c.593 1.247 1.143 3.003.391 4.285-.62 1.057-2.093 1.714-4.138 1.848-.122.007-.243.01-.363.01-3.131 0-5.981-2.299-8.495-4.327-1.337-1.078-2.554-2.06-3.744-2.672C11.711 6.991 16.741 3 21.348 3m0-1C15.504 2 9.265 7.771 7.416 9.436l-.086.021-.113.102c3.652.463 8.238 7.624 14.221 7.624.139 0 .279-.004.419-.012 4.437-.291 6.84-2.84 4.594-7.561 2.798-3.328-.144-7.305-4.542-7.593A9.526 9.526 0 0021.348 2z" fill="#5e9c76"></path></g><path d="M17.351 9.819c6.345-1.902 13.227 1 13.227 1" fill="none" stroke="#5e9c76" stroke-miterlimit="10"></path></svg>