<svg viewBox="0 0 40 40" xmlns="http://www.w3.org/2000/svg"><path d="M22.5 38.5c-1.103 0-2-.897-2-2V17.402c0-.801.127-1.592.378-2.352L24.361 4.5h7.277l3.483 10.55c.251.759.378 1.55.378 2.352V36.5c0 1.103-.897 2-2 2H22.5z" fill="#c2e8ff"></path><path d="M31.277 5l3.37 10.207c.234.71.353 1.448.353 2.195V36.5c0 .827-.673 1.5-1.5 1.5h-11c-.827 0-1.5-.673-1.5-1.5V17.402c0-.747.119-1.485.353-2.195L24.723 5h6.554M32 4h-8l-3.597 10.894A8.004 8.004 0 0020 17.402V36.5a2.5 2.5 0 002.5 2.5h11a2.5 2.5 0 002.5-2.5V17.402c0-.852-.136-1.699-.403-2.508L32 4z" fill="#7496c4"></path><path d="M24 4.5a.5.5 0 01-.5-.5V2a.5.5 0 01.5-.5h8a.5.5 0 01.5.5v2a.5.5 0 01-.5.5h-8z" fill="#c2e8ff"></path><path d="M32 2v2h-8V2h8m0-1h-8a1 1 0 00-1 1v2a1 1 0 001 1h8a1 1 0 001-1V2a1 1 0 00-1-1z" fill="#7496c4"></path><path d="M21.353 15.207A6.999 6.999 0 0021 17.402V36.5c0 .827.673 1.5 1.5 1.5h11c.827 0 1.5-.673 1.5-1.5V17.402c0-.747-.119-1.485-.353-2.195L33.258 11H22.742l-1.389 4.207z" fill="#fff"></path><g><path d="M13.5 38.5c-4.963 0-9-3.975-9-8.86 0-5.401 3.028-8.14 9-8.14s9 2.739 9 8.14c0 4.885-4.037 8.86-9 8.86z" fill="#f78f8f"></path><path d="M13.5 22c5.64 0 8.5 2.57 8.5 7.64 0 4.61-3.813 8.36-8.5 8.36S5 34.25 5 29.64C5 24.57 7.86 22 13.5 22m0-1C8.253 21 4 23.15 4 29.64 4 34.809 8.253 39 13.5 39s9.5-4.191 9.5-9.36c0-6.49-4.253-8.64-9.5-8.64z" fill="#c74343"></path></g><g><path d="M16.058 22.46c.233-.403 1.263-1.229 1.263-2.228-1.498 0-2.578.741-2.86.992 0 0 .438-1.956 1.017-2.629-.608-.586-1.095-.595-1.095-.595s-1.124 1.392-1.62 2.837c-1.276-1.276-2.28-1.283-3.585-1.283a2.867 2.867 0 001.652 2.609c-1.784.156-2.515 1.897-2.515 1.897s2.113 1.12 3.93-.002c.027 1.495.799 2.392 1.846 2.891.792-.858.902-1.969.745-2.955 1.737 1.252 3.163.31 3.163.31s-.501-1.468-1.941-1.844z" fill="#5e9c76"></path></g></svg>