<svg viewBox="0 0 40 40" xmlns="http://www.w3.org/2000/svg"><path d="M20 38.5c-6.615 0-12.5-13.001-12.5-23.25C7.5 6.512 12.056 1.5 20 1.5s12.5 5.012 12.5 13.75c0 10.249-5.885 23.25-12.5 23.25z" fill="#839cb2"></path><path d="M20 2c7.626 0 12 4.829 12 13.25C32 25.184 26.181 38 20 38S8 25.184 8 15.25C8 6.829 12.374 2 20 2m0-1C12.807 1 7 5.232 7 15.25S12.807 39 20 39s13-13.732 13-23.75S27.193 1 20 1z" fill="#66798f"></path><path d="M20 38.5a5.82 5.82 0 01-.635-.04c-3.019-.368-6.107-3.463-8.467-8.493 0 0-.199-.451-.268-.616-.084-.197-.18-.403-.281-.618a36.153 36.153 0 01-.693-1.786c-.074-.361-.003-.771.208-1.034.223-.273.605-.413 1.136-.413 1.591 0 3.554.912 5.285 1.716C17.769 27.905 19.05 28.5 20 28.5s2.231-.595 3.715-1.284C25.446 26.412 27.409 25.5 29 25.5c.531 0 .913.14 1.135.415.211.263.283.672.19 1.096-.202.55-.436 1.152-.684 1.742-.092.195-.188.402-.27.593-.071.171-.275.633-.275.633-2.354 5.018-5.443 8.114-8.468 8.482A5.833 5.833 0 0120 38.5z" fill="#f78f8f"></path><path d="M29 26c.21 0 .585.03.746.228.108.134.146.368.102.621a35.639 35.639 0 01-.651 1.673c-.103.22-.202.432-.289.637-.071.17-.145.338-.219.505l-.04.09c-2.285 4.87-5.23 7.862-8.068 8.208-.237.027-.416.038-.581.038s-.344-.011-.568-.036c-2.851-.347-5.796-3.339-8.071-8.188l-.049-.112c-.074-.168-.148-.335-.223-.514a18.314 18.314 0 00-.269-.592 35.707 35.707 0 01-.667-1.709c-.044-.253-.006-.487.102-.621.16-.198.535-.228.745-.228 1.481 0 3.39.887 5.075 1.669C17.612 28.383 18.939 29 20 29s2.388-.617 3.925-1.331C25.61 26.887 27.519 26 29 26m0-1c-3.047 0-7.097 3-9 3s-5.953-3-9-3c-1.651 0-2.017 1.181-1.814 2.117.222.621.46 1.232.712 1.829.098.209.192.41.271.596.089.215.184.426.277.637 2.228 4.75 5.36 8.351 8.865 8.778.227.025.456.043.689.043s.462-.018.689-.043c3.506-.427 6.637-4.028 8.865-8.778.093-.212.188-.422.277-.637.079-.186.173-.387.271-.596.251-.598.489-1.208.712-1.829C31.017 26.181 30.651 25 29 25z" fill="#c74343"></path><path d="M20 38.5a5.82 5.82 0 01-.635-.04c-3.019-.368-6.107-3.463-8.467-8.493 0 0-.199-.451-.268-.616-.084-.197-.18-.403-.281-.618a36.153 36.153 0 01-.693-1.786c-.074-.361-.003-.771.208-1.034.223-.273.605-.413 1.136-.413 1.591 0 3.554.912 5.285 1.716C17.769 27.905 19.05 28.5 20 28.5s2.231-.595 3.715-1.284C25.446 26.412 27.409 25.5 29 25.5c.531 0 .913.14 1.135.415.211.263.283.672.19 1.096-.202.55-.436 1.152-.684 1.742-.092.195-.188.402-.27.593-.071.171-.275.633-.275.633-2.354 5.018-5.443 8.114-8.468 8.482A5.833 5.833 0 0120 38.5z" fill="#f78f8f"></path><path d="M29 26c.21 0 .585.03.746.228.108.134.146.368.102.621a35.639 35.639 0 01-.651 1.673c-.103.22-.202.432-.289.637-.071.17-.145.338-.219.505l-.04.09c-2.285 4.87-5.23 7.862-8.068 8.208-.237.027-.416.038-.581.038s-.344-.011-.568-.036c-2.851-.347-5.796-3.339-8.071-8.188l-.049-.112c-.074-.168-.148-.335-.223-.514a18.314 18.314 0 00-.269-.592 35.707 35.707 0 01-.667-1.709c-.044-.253-.006-.487.102-.621.16-.198.535-.228.745-.228 1.481 0 3.39.887 5.075 1.669C17.612 28.383 18.939 29 20 29s2.388-.617 3.925-1.331C25.61 26.887 27.519 26 29 26m0-1c-3.047 0-7.097 3-9 3s-5.953-3-9-3c-1.651 0-2.017 1.181-1.814 2.117.222.621.46 1.232.712 1.829.098.209.192.41.271.596.089.215.184.426.277.637 2.228 4.75 5.36 8.351 8.865 8.778.227.025.456.043.689.043s.462-.018.689-.043c3.506-.427 6.637-4.028 8.865-8.778.093-.212.188-.422.277-.637.079-.186.173-.387.271-.596.251-.598.489-1.208.712-1.829C31.017 26.181 30.651 25 29 25z" fill="#c74343"></path><path d="M14.538 24.239c-.472-.503-.584-.623-1.221-.748L11.5 23.5v-.911l.246-.146c.132-.08.284-.23.298-.296-.273-.376-.946-.609-1.162-.662l-.382-.092V21c0-.68-.189-1.514-.408-2.479-.278-1.224-.592-2.611-.592-4.066 0-1.438.054-2.818.705-3.88.628-1.047 2.377-1.927 2.575-2.023l.72-.354V9.22l-.163.197c-.69.631-1.619 1.823-1.418 2.376.083.312.188.312.282.312.185 0 .418-.097.569-.192.397-.284 1.078-.395 1.154-.407l.622-.096-.047.627c-.001.021-.158 2.169.218 3.713.37 1.568 1.154 1.75 1.712 1.75.693 0 1.755-1.203 2.161-1.786l.91-1.307v5.825l-.177.15c-.011.009-1.122.954-1.647 1.75-.389.661-1.383 1.849-2.476 2.326l-.323.141-.339-.36z" fill="#f2faff"></path><path d="M13 9v.048s-1.96 1.788-1.551 2.916c.125.487.43.641.752.641.31 0 .637-.143.838-.27C13.373 12.096 14 12 14 12s-.17 2.227.231 3.869C14.64 17.605 15.594 18 16.429 18 17.607 18 19 16 19 16v4s-1.169.989-1.742 1.857c-.409.694-1.347 1.745-2.258 2.143-.563-.597-.741-.834-1.587-1H12v-.126s.84-.497.431-1.018C12.022 21.249 11 21 11 21c0-1.648-1-4.017-1-6.545 0-1.383.049-2.669.631-3.619C11.204 9.881 13 9 13 9m1-1.557l-1.441.659c-.344.169-2.096 1.07-2.786 2.219C9.06 11.487 9 12.942 9 14.455c0 1.511.321 2.927.604 4.177.204.897.396 1.744.396 2.368v.785l.763.186c.152.039.334.109.491.19l-.242.152-.012.561V24H13.313c.391.081.444.137.86.581l.099.105.483.512.645-.282c1.188-.519 2.26-1.785 2.705-2.527.41-.611 1.249-1.379 1.541-1.626l.354-.3v-7.649l-1.821 2.614c-.555.793-1.422 1.572-1.75 1.572-.293 0-.903 0-1.224-1.36-.361-1.478-.209-3.543-.207-3.564l.096-1.255-1.245.191c-.198.03-.872.154-1.36.488a.798.798 0 01-.096.05c.057-.35.657-1.193 1.282-1.762L14 9.489V7.443z" fill="#66798f"></path><g><path d="M24.8 24.458c-1.092-.477-2.087-1.666-2.489-2.348-.512-.775-1.623-1.719-1.634-1.729l-.177-.15V14.41l.91 1.303c.518.742 1.531 1.786 2.161 1.786.558 0 1.342-.181 1.711-1.746.378-1.551.221-3.695.219-3.716l-.048-.628.622.096c.076.012.757.123 1.176.421.128.081.362.178.547.178.094 0 .2 0 .268-.266.215-.599-.713-1.791-1.404-2.422l-.162-.147V8.246l.72.305c.197.097 1.947.977 2.577 2.027.649 1.058.703 2.438.703 3.876 0 1.455-.314 2.842-.592 4.066-.219.966-.408 1.8-.408 2.48v.391l-.38.094c-.218.054-.893.29-1.136.65-.012.083.154.239.271.308l.246.146v.911h-1.913c-.541.116-.653.235-1.125.739l-.339.36-.324-.141z" fill="#f2faff"></path><path d="M27 9s1.796.881 2.369 1.836c.582.949.631 2.236.631 3.619 0 2.528-1 4.898-1 6.545 0 0-1.022.249-1.431.857-.409.52.431 1.017.431 1.017V23h-1.413c-.846.166-1.025.403-1.587 1-.911-.398-1.849-1.449-2.258-2.143C22.169 20.989 21 20 21 20v-4s1.393 2 2.571 2c.834 0 1.788-.395 2.197-2.131C26.17 14.227 26 12 26 12s.627.096.961.335c.201.128.527.27.838.27.322 0 .627-.154.752-.641C28.96 10.836 27 9.048 27 9.048V9m-1-1.605v2.094l.326.297c.627.575 1.211 1.392 1.276 1.76a1.312 1.312 0 01-.091-.047c-.488-.334-1.162-.457-1.36-.488l-1.243-.191.094 1.255c.002.021.152 2.093-.205 3.556C24.475 17 23.865 17 23.571 17c-.328 0-1.196-.779-1.752-1.573L20 12.831V20.463l.354.3c.293.248 1.134 1.019 1.541 1.626.445.742 1.517 2.008 2.705 2.527l.645.282.483-.512.099-.105c.416-.444.468-.499.86-.581H29V22.304l-.247-.146a2.57 2.57 0 01.488-.188l.754-.192L30 21c0-.624.192-1.471.396-2.369.283-1.249.604-2.666.604-4.176 0-1.513-.06-2.968-.779-4.141-.685-1.141-2.437-2.042-2.781-2.211L26 7.395z" fill="#66798f"></path></g><g fill="#fff"><path d="M16.663 36.281L14.542 31l-1.333 2.104c1.896 2.979 4.246 4.618 6.253 4.862.167.018.351.034.538.034l-1.458-6-1.879 4.281zM23.337 36.281L21.5 32 20 38c.187 0 .371-.016.554-.036 2.061-.251 4.383-1.964 6.3-4.943L25.479 31l-2.142 5.281z"></path></g><g fill="#fff"><path d="M26.989 26.389c-1.011.331-2.075.821-3.063 1.28a.077.077 0 01-.016.007L25.495 31l1.494-4.611zM29.746 26.228C29.585 26.03 29.21 26 29 26c-.605 0-1.282.152-1.985.38L28.542 29l1.277-2.591c-.02-.065-.037-.135-.073-.181zM22.958 28.113C21.827 28.62 20.831 29 20 29l1.509 3.006 1.449-3.893z"></path></g><g fill="#fff"><path d="M13.011 26.389c1.011.331 2.075.821 3.063 1.28l.016.007L14.505 31l-1.494-4.611zM10.254 26.228c.161-.198.536-.228.746-.228.605 0 1.282.152 1.985.38L11.458 29l-1.277-2.591c.02-.065.037-.135.073-.181zM17.042 28.113C18.173 28.62 19.169 29 20 29l-1.509 3.006-1.449-3.893z"></path></g></svg>