<svg viewBox="0 0 40 40" xmlns="http://www.w3.org/2000/svg"><path d="M4 29.5a1.61 1.61 0 01-1.15-.56C.26 26.24.49 15.93.5 15.83a2.23 2.23 0 012.16-2.33h34.67a2.08 2.08 0 011.51.66 2.4 2.4 0 01.66 1.67c0 .12.24 10.48-2.35 13.13a1.56 1.56 0 01-1.15.54z" fill="#b0c1d4"></path><path d="M37.33 14a1.59 1.59 0 011.15.5 1.92 1.92 0 01.52 1.36c.07 2.84-.18 10.68-2.21 12.75A1.05 1.05 0 0136 29H4a1.09 1.09 0 01-.81-.41C1.18 26.48.92 18.67 1 15.82A1.73 1.73 0 012.66 14h34.67m0-1H2.66A2.73 2.73 0 000 15.82S-.37 29.93 4 30h32c4.36 0 4-14.17 4-14.17A2.75 2.75 0 0037.33 13z" fill="#66798f"></path><circle cx="33.5" cy="25.5" r="1.5" fill="#ffeea3"></circle><circle cx="28.5" cy="25.5" r="1.5" fill="#ffeea3"></circle><circle cx="23.5" cy="25.5" r="1.5" fill="#ffeea3"></circle><circle cx="18.5" cy="25.5" r="1.5" fill="#ffeea3"></circle><circle cx="13.5" cy="25.5" r="1.5" fill="#ffeea3"></circle><circle cx="8.5" cy="25.5" r="1.5" fill="#ffeea3"></circle><circle cx="5.5" cy="21.5" r="1.5" fill="#ffeea3"></circle><circle cx="10.5" cy="21.5" r="1.5" fill="#ffeea3"></circle><circle cx="15.5" cy="21.5" r="1.5" fill="#ffeea3"></circle><circle cx="20.5" cy="21.5" r="1.5" fill="#ffeea3"></circle><circle cx="25.5" cy="21.5" r="1.5" fill="#ffeea3"></circle><circle cx="30.5" cy="21.5" r="1.5" fill="#ffeea3"></circle><circle cx="33.5" cy="17.5" r="1.5" fill="#ffeea3"></circle><circle cx="28.5" cy="17.5" r="1.5" fill="#ffeea3"></circle><circle cx="23.5" cy="17.5" r="1.5" fill="#ffeea3"></circle><circle cx="18.5" cy="17.5" r="1.5" fill="#ffeea3"></circle><circle cx="13.5" cy="17.5" r="1.5" fill="#ffeea3"></circle><circle cx="8.5" cy="17.5" r="1.5" fill="#ffeea3"></circle></svg>