<svg viewBox="0 0 40 40" xmlns="http://www.w3.org/2000/svg"><path fill="#8bb7f0" d="M.5 10.5h39v21H.5z"></path><path d="M39 11v20H1V11h38m1-1H0v22h40V10z" fill="#4e7ab5"></path><path d="M10.66 29H7.44L3 13h3.42l3.46 13.49S12.47 14 12.47 13.61s-.36-.6-.35-.61 1.48 0 1.48 0l-3.13 15.17zm13.72 0h-2.7v-5.75l-1.53.69H18.1v5h-2.7V24h-.69l.67-1.15v-9.8h2.7v9.25h3.57V13h2.7v16zm5-11.63c.35.41 5.87 4.09 6.39 4.77a3.9 3.9 0 01.81 2.47 4.23 4.23 0 01-1.35 3.29 5.39 5.39 0 01-3.66 1.1h-5l-.41-1.05s6.52.34 7.24-.7a2.68 2.68 0 00.48-1.9 2.54 2.54 0 00-.76-1.84A15.17 15.17 0 0031 21.92l-2-1.22a7.29 7.29 0 01-1.46-1.17 3.75 3.75 0 01-1-2.55 4.18 4.18 0 011.21-3.06A4.45 4.45 0 0131 13h6l-.44 1.09s-5.56-.09-6.68.57a1.61 1.61 0 00-1 1.29 2 2 0 00.54 1.4z" fill="#fff"></path></svg>