<svg viewBox="0 0 40 40" xmlns="http://www.w3.org/2000/svg"><path d="M11.242 36.632c-.356-1.633-.909-3.477-1.742-4.781V14.5h21v17.351c-.833 1.304-1.386 3.148-1.742 4.781a13.068 13.068 0 01-1.266-3.718c-.298-1.782-5.646-4.448-7.278-5.223L20 27.589l-.214.102c-1.632.775-6.98 3.441-7.279 5.227a13.083 13.083 0 01-1.265 3.714z" fill="#839cb2"></path><path d="M30 15v16.708c-.591.968-1.041 2.185-1.378 3.395a12.395 12.395 0 01-.635-2.267c-.317-1.898-4.871-4.321-7.557-5.596l-.43-.204-.429.204c-2.686 1.275-7.24 3.698-7.556 5.589-.131.75-.352 1.53-.637 2.274-.338-1.21-.787-2.426-1.378-3.394V15h20m1-1H9v18c1.104 1.642 1.703 4.296 2 6 .994-1.428 1.71-3.338 2-5 .279-1.667 7-4.857 7-4.857s6.721 3.19 7 4.857c.29 1.662 1.006 3.572 2 5 .297-1.704.896-4.358 2-6V14z" fill="#66798f"></path><path d="M35.017 37.523c-.982-1.045-2.013-2.561-2.564-3.736L31.5 31.76v5.219c-1.149-2.357-2.959-6.715-3-10.841l2.783-4.637H34.5V32c0 .361-.004.688-.008.991-.02 1.547-.034 2.534.525 4.532zm-30.034 0c.559-1.998.545-2.985.525-4.532-.004-.303-.008-.63-.008-.991V21.5h3.217l2.783 4.637c-.04 4.126-1.85 8.484-3 10.841V31.76l-.953 2.028c-.551 1.174-1.582 2.69-2.564 3.735z" fill="#788b9c"></path><path d="M34 22v10c0 .359-.004.683-.008.984-.012.931-.022 1.682.099 2.587a14.202 14.202 0 01-1.186-1.997L31 29.519v5.134c-.958-2.326-1.94-5.409-1.997-8.38L31.566 22H34M8.434 22l2.564 4.273C10.94 29.237 9.958 32.32 9 34.648v-5.129l-1.905 4.055c-.283.603-.708 1.313-1.186 1.997.121-.905.111-1.656.099-2.587A72.046 72.046 0 016 32V22h2.434M35 21h-4l-3 5c0 6.277 4 13 4 13v-5c.785 1.67 2.615 4.219 4 5-1.217-3.621-1-4.413-1-7V21zM9 21H5v11c0 2.587.217 3.379-1 7 1.385-.781 3.215-3.33 4-5v5s4-6.723 4-13l-3-5z" fill="#66798f"></path><path d="M34.902 29.899c-.518-2.41-.451-4.914-.415-6.268.008-.259.013-.473.013-.631h-1c0 .49-.487 2.213-.917 3.733-.238.842-.48 1.7-.684 2.482-.268-1.068-.399-2.321-.399-3.787v-1.607c.545-.995.858-1.698.958-2.147.026-.085.042-.196.042-.317 0-1.106-3.312-6.392-4.326-7.985-.183-.334-1.803-3.194-3.571-3.771C25.034 7.944 26.477 4.5 31 4.5c5.933 0 7.5 5.56 7.5 8.5 0 4.369-1.404 8.943-2.533 12.62l-.124.404-.058.222a84.922 84.922 0 00-.883 3.653zm-29.804 0a81.706 81.706 0 00-.883-3.653l-.048-.184-.134-.442C2.904 21.943 1.5 17.369 1.5 13c0-2.94 1.567-8.5 7.5-8.5 4.523 0 5.966 3.444 6.397 5.101-1.768.578-3.39 3.44-3.587 3.798-.999 1.566-4.31 6.851-4.31 7.958 0 .121.016.232.05.349.092.419.405 1.122.95 2.116v1.607c0 1.465-.131 2.718-.399 3.787-.203-.783-.446-1.64-.684-2.482C6.987 25.213 6.5 23.49 6.5 23h-1c0 .158.005.372.013.631.035 1.354.102 3.859-.415 6.268z" fill="#e1ebf2"></path><path d="M31 5c6.92 0 7 7.673 7 8 0 4.293-1.392 8.827-2.51 12.471l-.125.406-.011.039-.007.028-.045.173c-.094.356-.184.705-.27 1.047-.101-1.413-.067-2.688-.045-3.519.007-.265.013-.483.013-.645h-2c0 .421-.519 2.256-.898 3.596l-.057.203c-.03-.436-.045-.893-.045-1.37V23.95c.682-1.259.867-1.822.94-2.138.04-.149.06-.298.06-.454 0-1.103-2.382-5.077-4.388-8.227-.341-.614-1.722-2.957-3.406-3.813C25.727 7.685 27.168 5 31 5M9 5c3.832 0 5.273 2.685 5.794 4.316-1.684.857-3.066 3.199-3.406 3.813C9.382 16.28 7 20.254 7 21.357c0 .156.02.305.06.454.073.316.258.879.94 2.138v1.479c0 .477-.015.934-.045 1.37l-.057-.203C7.519 25.256 7 23.421 7 23H5c0 .162.006.38.013.645.022.832.056 2.107-.045 3.519a91.672 91.672 0 00-.27-1.047l-.04-.148-.01-.046-.014-.045-.124-.407C3.392 21.827 2 17.293 2 13c0-.327.08-8 7-8m22-1c-4.415 0-6.461 3.19-7 6 1.748 0 3.752 3.641 3.752 3.641S32 20.31 32 21.357a.71.71 0 01-.03.209c-.104.469-.499 1.275-.97 2.127v1.735c0 1.787.193 3.869 1 5.571.424-2.29 2-6.954 2-8 0 1.192-.329 5.579 1 9 .481-2.771 1.298-5.718 1.321-5.83C37.497 22.334 39 17.604 39 13c0-3.141-1.667-9-8-9zM9 4c-6.333 0-8 5.859-8 9 0 4.604 1.503 9.334 2.679 13.17.023.112.84 3.059 1.321 5.83 1.329-3.421 1-7.808 1-9 0 1.046 1.576 5.71 2 8 .807-1.702 1-3.784 1-5.571v-1.735c-.472-.853-.866-1.659-.97-2.127a.722.722 0 01-.03-.21c0-1.047 4.248-7.716 4.248-7.716S14.252 10 16 10c-.539-2.81-2.585-6-7-6z" fill="#a3b7cc"></path><path d="M34 5.622c.145.067.282.14.418.214a5.7 5.7 0 01.582.36V7h-1V5.622zM32.261 19H33v-3h-1v2.52c.097.171.176.322.261.48zM28 6h-.47a5.235 5.235 0 00-.53.424V9h1V6zm9.265 13c.107-.49.205-.983.293-1.479.004-.024.007-.048.012-.071.085-.482.16-.965.222-1.45H37v3h.265zM33 23h1v-3h-1v3zm-3-9h-.812c.285.433.557.85.812 1.246V14zm-2-4v2.197c.103.147.195.281.276.404l.102.156.105.165.05.079H29v-3h-1zm1-3h1V5.09a4.97 4.97 0 00-1 .28V7zm3 2h1V6h-1v3zm3 2h1V8h-1v3zm-2 2h1v-3h-1v3zm3 2h1v-3h-1v3zm-5 0h1v-3h-1v3zm3 2h1v-3h-1v3zm1 4h1v-3h-1v3zm-5-10h1V8h-1v3zM6 5.622c-.145.067-.282.14-.418.214a5.7 5.7 0 00-.582.36V7h1V5.622zM8 18.52V16H7v3h.739c.085-.158.164-.309.261-.48zM12 9h1V6.424A5.235 5.235 0 0012.47 6H12v3zM3 19v-3h-.791c.062.485.137.968.222 1.45.004.024.007.048.012.071.087.496.186.989.292 1.479H3zm4 1H6v3h1v-3zm3-4.754c.255-.397.527-.813.812-1.246H10v1.246zM11 10v3h.467l.05-.079.105-.165.102-.156c.081-.123.173-.256.276-.404V10h-1zm0-4.63a4.97 4.97 0 00-1-.28V7h1V5.37zM8 6H7v3h1V6zM5 8H4v3h1V8zm2 2H6v3h1v-3zm-3 2H3v3h1v-3zm5 0H8v3h1v-3zm-3 2H5v3h1v-3zm-1 4H4v3h1v-3zm5-10H9v3h1V8z" fill="#fff"></path><path d="M12.503 28.5c.094-7.465 2.261-12.763 2.816-14h9.362c.555 1.237 2.722 6.535 2.816 14H12.503z" fill="#839cb2"></path><path d="M24.355 15c.669 1.565 2.464 6.356 2.632 13H13.013c.169-6.623 1.966-11.431 2.633-13h8.709M25 14H15s-3 5.966-3 15h16c0-9.034-3-15-3-15z" fill="#66798f"></path><path d="M32 21.357c0-1.047-4.248-7.716-4.248-7.716S25.748 10 24 10h-8c-1.748 0-3.752 3.641-3.752 3.641S8 20.31 8 21.357C8 22.404 11 27 11 27s-2.794 3.117 1 5c0 4.496 1 7 1 7h6v-6h2v6h6s1-2.504 1-7c3.794-1.883 1-5 1-5s3-4.596 3-5.643zm-19.469 7.601l-.004-.002C13.375 27.086 12 25 12 25l-1-4 3.894-5H15l1 8c-.521.504-2.492 2.53-3.469 4.958zm14.942-.002l-.004.002C26.492 26.53 24.521 24.504 24 24l1-8h.106L29 21l-1 4s-1.375 2.086-.527 3.956z" fill="#ffeea3"></path><path d="M21.5 38.5v-6h-3v6h-5.144c-.252-.793-.856-3.056-.856-6.5 0-3.423 2.383-6.23 3.804-7.599l.18-.174.012-.29-.873-6.981L20 19.583l4.376-2.626-.904 7.229.298.286c3.206 3.01 3.798 5.745 3.73 7.509 0 3.474-.604 5.729-.856 6.519H21.5z" fill="#ffeea3"></path><path d="M23.753 17.914l-.745 5.962-.062.495.359.347.124.117C26.497 27.717 27.065 30.301 27 32c0 2.965-.456 5.03-.729 6H22v-6h-4v6h-4.271c-.273-.972-.729-3.036-.729-6 0-3.239 2.288-5.926 3.651-7.239l.044-.043.359-.347-.062-.495-.745-5.962 3.238 1.943.515.309.515-.309 3.238-1.943M25 16l-5 3-5-3 1 8c-.521.504-4 3.75-4 8 0 4.496 1 7 1 7h6v-6h2v6h6s1-2.504 1-7c.167-4.333-3.479-7.496-4-8l1-8z" fill="#f5c276"></path><path fill="#f78f8f" d="M16.429 19.143h7.143v.357h-7.143z"></path><path fill="#c74343" d="M24.071 18.643h-8.142V20h8.142v-1.357z"></path><path d="M20 2c2.357 0 4 .78 4 1.481C24 4.199 22.357 5 20 5s-4-.801-4-1.519C16 2.78 17.643 2 20 2m0-1c-2.5 0-5 .827-5 2.481S17.515 6 20 6s5-.865 5-2.519C25 1.827 22.5 1 20 1z" fill="#f5ce85"></path><path d="M15.632 10.5l-.024.042c.012-.002.024-.006.036-.007a1.075 1.075 0 00-.012-.035z" fill="#f5c276"></path><circle cx="20" cy="27" fill="#f5c276" r="1"></circle><g><path d="M19.331 35.5c-.502-1.101-2.413-4.567-6.681-4.961.067-.35.157-.698.268-1.039H27.16c.104.338.184.683.241 1.031-4.363.366-6.244 3.854-6.736 4.969h-1.334z" fill="#f78f8f"></path><path d="M26.78 30l.024.099c-3.548.53-5.628 3.095-6.476 4.901h-.675c-.662-1.347-2.529-4.294-6.393-4.891l.029-.109H26.78m.741-1H12.563a9.009 9.009 0 00-.493 2.005C17.283 31.143 19 36 19 36h2s1.642-4.883 6.965-4.997A8.317 8.317 0 0027.521 29z" fill="#c74343"></path></g><g><path fill="#f78f8f" d="M16.5 18.5h7v1h-7z"></path><path fill="#c74343" d="M24 18h-8v2h8v-2z"></path></g><g><path d="M24 20.5c-2.212 0-3.124-1.638-3.41-2.332l4.322-3.458c.619.853 1.588 2.377 1.588 3.29 0 1.212-.876 2.5-2.5 2.5z" fill="#f78f8f"></path><path d="M24.81 15.433C25.414 16.328 26 17.409 26 18c0 .97-.701 2-2 2-1.628 0-2.435-1.008-2.794-1.685l3.604-2.882M25 14l-5 4s.819 3 4 3c1.874 0 3-1.501 3-3s-2-4-2-4z" fill="#c74343"></path></g><g><path d="M16 20.5c-1.624 0-2.5-1.288-2.5-2.5 0-.913.969-2.438 1.588-3.289l4.322 3.458c-.286.693-1.198 2.331-3.41 2.331z" fill="#f78f8f"></path><path d="M15.19 15.433l3.603 2.882C18.434 18.994 17.627 20 16 20c-1.299 0-2-1.03-2-2 0-.591.586-1.672 1.19-2.567M15 14s-2 2.501-2 4 1.126 3 3 3c3.181 0 4-3 4-3l-5-4z" fill="#c74343"></path></g><path fill="#f5c276" d="M20 10h-4v1h8v-1z"></path></svg>