<svg viewBox="0 0 40 40" xmlns="http://www.w3.org/2000/svg"><path d="M4.893 36.471c.79-1.355 1.714-3.006 2.561-4.578l.198-.369-.328-.26C3.568 28.296 1.5 24.295 1.5 20 1.5 11.453 9.799 4.5 20 4.5S38.5 11.453 38.5 20 30.201 35.5 20 35.5c-2.174 0-4.339-.332-6.437-.985l-.162-.051-.16.06c-2.945 1.094-5.986 1.798-8.348 1.947z" fill="#dcd5f2"></path><path d="M20 5c9.925 0 18 6.729 18 15s-8.075 15-18 15c-2.123 0-4.239-.324-6.287-.962l-.326-.102-.32.119c-2.521.936-5.108 1.583-7.26 1.831a169.857 169.857 0 002.086-3.756l.398-.739-.658-.52C4 28.001 2 24.14 2 20c0-8.271 8.075-15 18-15m0-1C9.507 4 1 11.163 1 20c0 4.601 2.32 8.737 6.013 11.656A149.574 149.574 0 014 37c2.597 0 6.172-.803 9.415-2.007A22.113 22.113 0 0020 36c10.493 0 19-7.163 19-16S30.493 4 20 4z" fill="#8b75a1"></path><path fill="#a59dd1" d="M22.5 20.71v-1.42l6-3.428v8.276z"></path><path d="M28 16.723v6.554l-5-2.857v-.84l5-2.857M29 15l-7 4v2l7 4V15z" fill="#8b75a1"></path><g><path d="M13.04 24.5c-.85 0-1.54-.69-1.54-1.54v-5.92c0-.849.69-1.54 1.54-1.54h8.92c.85 0 1.54.69 1.54 1.54v5.921c0 .849-.69 1.54-1.54 1.54h-8.92z" fill="#a59dd1"></path><path d="M21.96 16c.573 0 1.04.466 1.04 1.04v5.921c0 .573-.466 1.04-1.04 1.04h-8.92A1.042 1.042 0 0112 22.96v-5.92c0-.573.466-1.04 1.04-1.04h8.92m0-1h-8.92c-1.122 0-2.04.918-2.04 2.04v5.921c0 1.122.918 2.04 2.04 2.04h8.921c1.122 0 2.04-.918 2.04-2.04V17.04A2.048 2.048 0 0021.96 15z" fill="#8b75a1"></path></g></svg>