<svg viewBox="0 0 40 40" xmlns="http://www.w3.org/2000/svg"><path fill="#839cb2" d="M16.5 23.5h7v9h-7z"></path><path d="M23 24v8h-6v-8h6m1-1h-8v10h8V23z" fill="#66798f"></path><path fill="#f2faff" d="M1.5 4.5h37v24h-37z"></path><path d="M38 5v23H2V5h36m1-1H1v25h38V4z" fill="#788b9c"></path><path fill="#b0c1d4" d="M9.5 32.5h21v3h-21z"></path><path d="M30 33v2H10v-2h20m1-1H9v4h22v-4z" fill="#66798f"></path><path d="M11.515 28.5c.26-4.455 3.967-8 8.485-8s8.226 3.545 8.485 8h-16.97z" fill="#8bb7f0"></path><path d="M20 21c4.073 0 7.444 3.059 7.938 7H12.062c.494-3.941 3.865-7 7.938-7m0-1a9 9 0 00-9 9h18a9 9 0 00-9-9z" fill="#4e7ab5"></path><path d="M20 18.5c-2.481 0-4.5-2.019-4.5-4.5s2.019-4.5 4.5-4.5 4.5 2.019 4.5 4.5-2.019 4.5-4.5 4.5z" fill="#ffeea3"></path><path d="M20 10c2.206 0 4 1.794 4 4s-1.794 4-4 4-4-1.794-4-4 1.794-4 4-4m0-1a5 5 0 10.001 10.001A5 5 0 0020 9z" fill="#ba9b48"></path><path fill="#788b9c" d="M9.867 27.6h20.267v1.267H9.867z"></path><g><path fill="#c2e8ff" d="M15.5 24.5h9v4h-9z"></path><path d="M24 25v3h-8v-3h8m1-1H15v5h10v-5z" fill="#788b9c"></path></g><g><path fill="#c2e8ff" d="M24.5 24.5h8.934v4H24.5z"></path><path d="M32.933 25v3H25v-3h7.933m1-1H24v5h9.933v-5z" fill="#788b9c"></path></g><g><path fill="#c2e8ff" d="M6.5 24.5h9v4h-9z"></path><path d="M15 25v3H7v-3h8m1-1H6v5h10v-5z" fill="#788b9c"></path></g></svg>