<svg viewBox="0 0 40 40" xmlns="http://www.w3.org/2000/svg"><path fill="#bae0bd" d="M30.5 23.567v-7.134l8-4.572v16.278z"></path><path d="M38 12.723v14.554l-7-4v-6.554l7-4M39 11l-9 5.143v7.714L39 29V11z" fill="#5e9c76"></path><g><path d="M7 31.5A5.507 5.507 0 011.5 26V14c0-3.032 2.468-5.5 5.5-5.5h18c3.032 0 5.5 2.468 5.5 5.5v12c0 3.032-2.468 5.5-5.5 5.5H7z" fill="#bae0bd"></path><path d="M25 9c2.757 0 5 2.243 5 5v12c0 2.757-2.243 5-5 5H7c-2.757 0-5-2.243-5-5V14c0-2.757 2.243-5 5-5h18m0-1H7a6 6 0 00-6 6v12a6 6 0 006 6h18a6 6 0 006-6V14a6 6 0 00-6-6z" fill="#5e9c76"></path></g></svg>