<svg viewBox="0 0 40 40" xmlns="http://www.w3.org/2000/svg"><path fill="#8bb7f0" d="M1.5 8.5h36v18h-36z"></path><path d="M37 9v17H2V9h35m1-1H1v19h37V8z" fill="#4e7ab5"></path><path d="M37 5v3H2V5h35m1-1H1v5h37V4z" fill="#4e7ab5"></path><path fill="#4e7ab5" d="M5 4h1v5H5zM9 4h1v5H9zM13 4h1v5h-1zM17 4h1v5h-1zM21 4h1v5h-1zM25 4h1v5h-1zM29 4h1v5h-1zM33 4h1v5h-1zM37 27v3H2v-3h35m1-1H1v5h37v-5z"></path><path fill="#4e7ab5" d="M5 26h1v5H5zM9 26h1v5H9zM13 26h1v5h-1zM17 26h1v5h-1zM21 26h1v5h-1zM25 26h1v5h-1zM29 26h1v5h-1zM33 26h1v5h-1z"></path><path d="M21 30l-3.865 3.661-2.225-2.224L19 27l2 3z" fill="#bdb2de"></path><path fill="#8b75a1" d="M21.044 29.044l-3.909 3.91-1.518-1.517 3.91-3.91-.707-.707-4.617 4.617 2.932 2.931 4.617-4.617z"></path><path d="M11 34.5a3.5 3.5 0 107 0 3.5 3.5 0 00-7 0zm5.25 0a1.75 1.75 0 11-3.501-.001 1.75 1.75 0 013.501.001z" fill="#c74343"></path><path d="M22.602 33.398l-9.662-9.662c-.28-.28-.44-.667-.44-1.061v-3.827l12.326 12.326-2.224 2.224z" fill="#dcd5f2"></path><path d="M13 20.054l11.765 11.765-1.809 1.225-9.663-9.663a.99.99 0 01-.293-.706v-2.621M12 18v4.675a2 2 0 00.586 1.414l9.662 9.662 2.932-2.931L12.36 18H12z" fill="#8b75a1"></path><g><path d="M22 34.5a3.5 3.5 0 107 0 3.5 3.5 0 00-7 0zm5.25 0a1.75 1.75 0 11-3.5 0 1.75 1.75 0 013.5 0z" fill="#c74343"></path></g></svg>