<svg viewBox="0 0 40 40" xmlns="http://www.w3.org/2000/svg"><path d="M35.5 30.5v-1h-31v1h-4V14c0-1.93 1.57-3.5 3.5-3.5h32c1.93 0 3.5 1.57 3.5 3.5v16.5h-4z" fill="#e1ebf2"></path><path d="M36 11c1.654 0 3 1.346 3 3v16h-3v-1H4v1H1V14c0-1.654 1.346-3 3-3h32m0-1H4a4 4 0 00-4 4v17h5v-1h30v1h5V14a4 4 0 00-4-4z" fill="#66798f"></path><path fill="#66798f" d="M10 21h1v1h-1zM12 21h1v1h-1zM14 21h1v1h-1zM16 21h1v1h-1zM18 21h1v1h-1zM20 21h1v1h-1zM10 19h1v1h-1zM12 19h1v1h-1zM14 19h1v1h-1zM16 19h1v1h-1zM18 19h1v1h-1zM20 19h1v1h-1zM10 17h1v1h-1zM12 17h1v1h-1zM14 17h1v1h-1zM16 17h1v1h-1zM18 17h1v1h-1zM20 17h1v1h-1zM10 23h1v1h-1zM12 23h1v1h-1zM14 23h1v1h-1zM16 23h1v1h-1zM4 21h1v1H4zM6 21h1v1H6zM8 21h1v1H8zM4 19h1v1H4zM6 19h1v1H6zM8 19h1v1H8zM4 17h1v1H4zM6 17h1v1H6zM8 17h1v1H8zM10 15h1v1h-1zM12 15h1v1h-1zM14 15h1v1h-1zM16 15h1v1h-1zM18 15h1v1h-1zM20 15h1v1h-1zM4 15h1v1H4zM6 15h1v1H6zM8 15h1v1H8zM4 23h1v1H4zM6 23h1v1H6zM8 23h1v1H8zM18 23h1v1h-1zM20 23h1v1h-1z"></path><g><circle cx="30" cy="20" r="5.5" fill="#8bb7f0"></circle><path d="M30 15c2.757 0 5 2.243 5 5s-2.243 5-5 5-5-2.243-5-5 2.243-5 5-5m0-1a6 6 0 100 12 6 6 0 000-12z" fill="#4e7ab5"></path></g></svg>