<svg viewBox="0 0 40 40" xmlns="http://www.w3.org/2000/svg"><path fill="#fff" d="M6.5 37.5v-35h18.293l8.707 8.707V37.5z"></path><path d="M24.586 3L33 11.414V37H7V3h17.586M25 2H6v36h28V11l-9-9z" fill="#788b9c"></path><path fill="#fff" d="M24.5 11.5v-9h.293l8.707 8.707v.293z"></path><path d="M25 3.414L32.586 11H25V3.414M25 2h-1v10h10v-1l-9-9z" fill="#788b9c"></path><path fill="#c5d4de" d="M34 37l-1-1V18l1 2z"></path><g><path d="M37.881 37.5a1.61 1.61 0 01-1.146-.475l-10.04-10.738 1.584-1.586 10.759 10.046c.293.294.462.701.462 1.134s-.169.839-.475 1.145-.712.474-1.144.474z" fill="#b6c9d6"></path><path d="M28.291 25.396l10.381 9.693A1.121 1.121 0 0137.881 37c-.299 0-.58-.116-.768-.304l-9.722-10.398.9-.902m-.024-1.39L26 26.275l10.382 11.104c.414.414.956.621 1.499.621a2.118 2.118 0 001.499-3.618L28.267 24.006z" fill="#788b9c"></path></g><g><circle cx="26.5" cy="24.5" r="7" fill="#d1edff"></circle><path d="M26.5 18c3.584 0 6.5 2.916 6.5 6.5S30.084 31 26.5 31 20 28.084 20 24.5s2.916-6.5 6.5-6.5m0-1a7.5 7.5 0 100 15 7.5 7.5 0 000-15z" fill="#788b9c"></path></g></svg>