<svg viewBox="0 0 40 40" xmlns="http://www.w3.org/2000/svg"><path d="M21.007 21.044c-1.49 1.687 5.276 8.638 0 14-4.946 5.027-16.089-1.098-17.5-2.509-.733-.733-.626-1.146-.5-1.491.126-.346.723-3.346 4-6 4.052-3.283 9.202-5.202 11-7s3.304-6.588 7-11c2.708-3.233 5.654-3.874 6-4 .346-.126 1.334-.031 2 1 1.082 1.676 7.081 11.879 2 17-5.086 5.126-12.451-1.753-14 0z" fill-rule="evenodd" clip-rule="evenodd" fill="#c2afe3"></path><path d="M31.3 4l-.026.009-.07.022-.152.046-.089.027-.099.031-.11.035-.119.041-.129.046-.141.053-.071.028-.075.03-.077.032-.079.033-.083.035-.084.037-.086.039-.088.041-.089.042-.091.044-.093.047-.095.049-.096.051-.099.052-.1.055-.101.057-.102.06-.104.062-.105.064-.106.067-.108.069-.108.072-.11.074-.111.077-.112.08-.112.082-.113.085-.114.088-.114.09-.115.094-.116.097-.116.099-.117.103-.117.106-.118.107-.118.112-.118.115-.118.118-.118.122-.12.125-.119.129-.118.132-.118.136-.119.14-.164.199-.162.2-.159.2-.156.201-.154.201-.151.201-.148.201-.146.202-.143.202-.141.202-.138.202-.136.202-.135.2-.131.201-.129.201-.127.2-.125.2-.123.199-.12.199-.119.198-.117.198-.115.197-.113.196-.111.195-.11.194-.108.193-.107.192-.105.19-.206.377-.2.37-.196.364-.191.357-.187.35-.184.342-.181.334-.179.324-.09.16-.089.157-.088.154-.088.152-.088.149-.088.147-.089.144-.089.141-.089.139-.09.136-.09.133-.091.131-.092.128-.093.125-.094.122-.096.119-.097.116-.097.11-.052.057-.051.054-.051.054-.052.052-.053.052-.054.052-.054.051-.057.052-.111.098-.117.098-.12.097-.123.096-.127.096-.13.095-.133.095-.134.093-.14.094-.143.094-.146.094-.148.094-.151.094-.154.094-.157.094-.159.095-.162.095-.165.096-.335.192-.345.194-.354.197-.361.2-.743.41-.38.21-.385.214-.389.218-.392.223-.196.113-.197.114-.198.116-.198.117-.198.118-.198.119-.198.121-.198.122-.198.123-.197.125-.197.126-.198.128-.196.129-.196.131-.195.132-.194.133-.191.135-.192.137-.19.138-.189.14-.187.141-.186.143-.184.145-.182.146-.141.116-.137.116-.133.116-.13.116-.126.116-.122.116-.119.117-.116.116-.112.116-.109.116-.106.116-.103.115-.1.115-.097.115-.093.114-.09.113-.088.113-.085.112-.081.113-.08.111-.077.11-.073.109-.071.108-.069.107-.066.106-.064.105-.061.104-.059.102-.057.101-.054.099-.052.098-.05.096-.048.095-.046.094-.043.091-.042.09-.04.088-.038.086-.036.084-.034.082-.033.08-.031.077-.029.076-.028.074-.052.142-.045.131-.039.12-.035.111-.03.1-.026.09-.045.155-.022.073-.021.064-.023.065-.005.014-.004.013.001.001.007.014.01.018.013.023.017.026.021.029.025.034.03.038.034.041.039.044.045.048.049.05.018.017.022.02.027.024.032.028.037.031.041.033.045.035.049.037.053.04.057.042.061.043.062.044.14.095.151.1.162.107.174.109.186.112.196.116.206.118.216.121.225.123.235.125.119.062.122.063.124.063.126.063.128.063.13.064.132.063.134.064.135.063.137.063.139.063.14.063.141.063.143.062.144.062.146.062.147.061.148.061.149.06.15.059.152.059.153.058.153.06.155.057.156.056.156.055.157.054.158.053.159.052.159.051.16.05.16.049.161.048.161.047.162.045.162.044.162.043.162.041.163.04.163.038.163.037.163.035.163.034.163.032.163.03.162.029.162.027.162.025.162.023.161.021.161.02.16.018.16.016.159.014.158.012.158.01.157.007.156.005.155.003.154.001.153-.001.152-.004.151-.006.15-.008.148-.011.147-.013.146-.015.145-.018.146-.021.069-.011.071-.012.07-.012.07-.013.07-.014.069-.014.069-.015.068-.015.068-.016.067-.017.067-.017.067-.018.066-.018.066-.019.066-.02.065-.021.064-.021.064-.022.064-.023.063-.023.063-.024.063-.025.062-.025.061-.026.062-.027.061-.027.06-.028.06-.028.06-.029.059-.03.058-.031.058-.032.058-.032.057-.033.057-.033.056-.034.056-.035.056-.036.055-.036.055-.037.054-.038.054-.039.053-.039.053-.04.053-.041.052-.042.052-.043.051-.043.051-.045.051-.045.05-.046.049-.047.049-.048.049-.049.053-.055.053-.056.052-.056.051-.056.05-.056.049-.056.047-.055.047-.056.046-.056.045-.055.044-.056.043-.056.042-.056.041-.056.04-.052.039-.055.038-.056.038-.056.037-.056.036-.056.035-.056.034-.056.033-.056.032-.056.031-.056.031-.056.03-.056.029-.056.028-.055.028-.056.027-.056.026-.056.025-.056.024-.056.024-.057.023-.056.022-.056.022-.056.021-.056.02-.056.019-.056.019-.056.018-.057.017-.056.017-.056.016-.054.031-.116.028-.114.026-.114.023-.114.021-.114.018-.115.016-.115.014-.115.012-.115.01-.116.007-.116.005-.116.003-.116.001-.117-.001-.117-.003-.117-.005-.117-.007-.118-.008-.118-.01-.118-.012-.119-.013-.118-.015-.119-.017-.119-.018-.118-.02-.119-.021-.119-.023-.118-.024-.119-.026-.119-.027-.118-.028-.118-.029-.118-.031-.118-.032-.118-.033-.118-.034-.118-.035-.117-.035-.117-.037-.117-.037-.117-.038-.116-.038-.115-.08-.232-.081-.229-.083-.227-.084-.225-.085-.223-.086-.22-.086-.218-.17-.429-.165-.416-.08-.205-.077-.202-.074-.199-.071-.197-.066-.192-.032-.098-.031-.096-.029-.095-.028-.095-.027-.095-.025-.094-.024-.094-.022-.094-.021-.094-.019-.094-.017-.094-.015-.095-.012-.096-.01-.095-.007-.097-.004-.098-.001-.098.003-.1.007-.102.011-.102.016-.103.021-.104.026-.1.018-.058.017-.052.02-.054.021-.053.023-.052.024-.051.027-.053.029-.052.029-.049.032-.051.034-.049.035-.047.038-.048.039-.046.04-.044.042-.044.045-.043.045-.04.047-.039.048-.037.048-.035.051-.034.051-.032.051-.03.053-.028.053-.026.052-.024.053-.022.054-.021.053-.019.053-.017.06-.017.1-.025.106-.021.104-.015.103-.01.102-.006.101-.002.1.001.1.004.098.007.098.01.098.013.097.014.097.017.097.019.097.021.097.022.097.024.097.025.098.027.098.028.099.029.1.031.102.032.2.066.204.071.207.074.21.077.213.08.216.082.439.167.452.171.228.085.231.085.233.084.235.082.238.081.118.039.119.039.12.038.12.038.12.036.121.036.121.035.121.034.121.033.121.032.121.031.121.03.121.028.121.027.121.026.121.024.121.023.121.022.121.02.121.019.121.017.12.015.12.014.12.012.12.01.119.008.122.007.118.005.118.003.118.001.117-.001.117-.003.116-.005.116-.007.115-.009.115-.012.114-.014.114-.016.113-.018.113-.021.112-.023.112-.025.114-.028.052-.014.055-.015.055-.016.055-.017.055-.017.055-.018.055-.019.055-.02.055-.02.054-.021.055-.021.054-.022.054-.023.054-.024.054-.024.054-.025.054-.026.054-.026.054-.027.053-.028.053-.029.054-.03.053-.03.053-.031.053-.032.053-.033.053-.034.053-.035.053-.035.053-.036.053-.037.052-.038.053-.039.053-.04.052-.04.053-.042.053-.043.052-.043.052-.045.053-.046.053-.047.052-.048.052-.049.052-.049.052-.051.052-.052.051-.052.049-.052.049-.052.048-.052.047-.053.046-.053.045-.053.044-.054.043-.054.042-.054.042-.055.041-.056.04-.055.039-.056.039-.056.038-.056.037-.056.036-.057.035-.057.034-.058.034-.058.033-.059.032-.059.031-.059.031-.06.03-.06.03-.06.028-.06.028-.061.028-.062.027-.061.026-.062.025-.062.025-.062.024-.063.023-.063.022-.063.022-.064.021-.065.021-.064.02-.065.019-.065.019-.066.018-.066.017-.066.017-.066.016-.067.016-.068.015-.067.014-.067.014-.068.013-.066.025-.139.022-.139.02-.139.017-.141.015-.142.012-.143.01-.144.008-.144.006-.146.004-.146.001-.147-.001-.148-.003-.149-.005-.149-.007-.15-.009-.151-.011-.152-.013-.152-.015-.152-.017-.153-.019-.153-.021-.153-.022-.153-.024-.154-.026-.154-.027-.154-.029-.154-.031-.155-.032-.154-.034-.154-.035-.154-.037-.154-.038-.154-.039-.153-.041-.154-.042-.153-.043-.153-.044-.152-.045-.152-.046-.151-.046-.152-.048-.15-.049-.149-.05-.149-.051-.148-.052-.147-.053-.147-.054-.146-.054-.145-.055-.144-.055-.143-.056-.142-.056-.141-.057-.14-.057-.138-.058-.138-.058-.137-.058-.134-.118-.267-.118-.26-.118-.255-.116-.25-.117-.242-.116-.235-.115-.228-.113-.22-.111-.212-.109-.203-.106-.195-.103-.187-.099-.178-.095-.168-.091-.158-.087-.148-.081-.136-.076-.126-.07-.115-.064-.103-.057-.091-.049-.076-.022-.034-.021-.03-.02-.028-.02-.027-.021-.027-.021-.025-.021-.024-.02-.023-.02-.022-.021-.022-.02-.02-.02-.019-.021-.019-.019-.017-.02-.017-.02-.017-.019-.015-.02-.015-.02-.014-.019-.013-.02-.013-.019-.012-.019-.011-.019-.011-.018-.01-.019-.01-.019-.009-.018-.008-.018-.007-.013-.006-.039-.015-.034-.012-.032-.01-.031-.008-.029-.006-.027-.005-.025-.004-.022-.002-.019-.001h-.016L31.3 4zm.072-.998l.058.004.06.006.062.009.064.012.066.015.067.018.068.021.07.024.07.027.035.015.036.016.036.017.036.018.036.019.036.02.036.021.036.022.036.023.036.024.036.025.036.026.036.027.036.028.036.029.036.03.035.031.035.033.035.034.035.035.035.036.035.037.034.039.034.04.033.041.033.042.033.044.032.045.032.046.032.048.054.085.061.097.068.109.074.12.079.132.085.143.09.153.094.164.099.173.103.183.106.193.109.202.112.21.114.219.117.227.118.235.12.242.121.249.121.256.122.263.121.269.121.275.06.14.06.141.06.142.059.144.059.145.061.14.058.147.057.148.057.15.056.151.056.152.054.152.054.154.053.154.052.155.051.156.051.157.049.158.049.158.048.159.046.16.045.16.044.161.043.161.041.162.04.162.039.163.037.163.036.163.034.164.033.164.031.164.029.164.027.164.026.165.024.164.022.165.02.164.018.164.016.164.014.164.012.164.01.164.008.163.006.163.003.163.001.162-.001.162-.004.162-.006.161-.009.16-.011.16-.014.159-.017.159-.019.158-.022.157-.025.157-.028.156-.015.078-.016.077-.016.077-.017.077-.018.077-.019.076-.019.076-.02.076-.021.076-.022.075-.022.075-.023.075-.024.075-.025.074-.026.074-.026.074-.027.073-.028.073-.029.073-.03.073-.03.072-.031.072-.032.072-.033.071-.034.071-.035.071-.035.07-.036.07-.037.07-.038.069-.039.069-.04.069-.041.068-.042.068-.043.067-.044.067-.044.067-.046.066-.046.066-.047.066-.048.065-.049.065-.05.064-.051.064-.053.063-.053.063-.054.062-.055.063-.056.062-.057.061-.058.061-.059.06-.06.06-.06.058-.06.057-.06.056-.061.055-.061.054-.061.053-.061.052-.061.051-.061.05-.062.049-.062.048-.062.047-.062.046-.062.045-.062.044-.063.043-.063.042-.063.041-.063.04-.063.039-.063.038-.063.037-.064.036-.064.035-.064.035-.064.034-.064.033-.064.032-.064.031-.065.03-.065.029-.065.028-.065.027-.065.027-.065.026-.065.025-.068.023-.066.023-.066.022-.066.022-.066.021-.066.02-.066.019-.066.019-.066.018-.132.033-.133.03-.133.027-.133.024-.132.022-.134.019-.134.016-.134.014-.134.011-.134.009-.134.006-.134.004-.134.001-.134-.001-.134-.003-.134-.005-.134-.007-.134-.01-.134-.011-.134-.013-.134-.015-.133-.017-.133-.019-.133-.021-.133-.022-.132-.024-.132-.025-.132-.027-.132-.028-.131-.029-.131-.031-.13-.032-.13-.033-.129-.034-.129-.035-.128-.036-.128-.037-.127-.038-.127-.039-.126-.039-.125-.04-.125-.041-.124-.041-.246-.084-.243-.085-.24-.086-.237-.087-.233-.087-.455-.172-.439-.167-.213-.08-.208-.078-.204-.075-.198-.071-.193-.067-.188-.062-.092-.029-.09-.028-.089-.027-.088-.025-.086-.024-.085-.022-.083-.02-.082-.019-.08-.017-.081-.015-.077-.013-.075-.011-.073-.009-.072-.007-.07-.005-.068-.003-.066-.001-.065.001-.063.004-.061.006-.06.008-.057.011-.056.014-.027.008-.027.009-.026.009-.026.01-.025.011-.025.011-.024.012-.024.013-.023.013-.023.014-.022.015-.022.015-.021.016-.021.017-.02.018-.019.019-.019.019-.018.02-.017.02-.016.02-.016.021-.015.021-.014.022-.013.022-.013.023-.012.023-.011.024-.011.024-.01.025-.009.025-.009.026-.008.026-.011.054-.011.055-.009.057-.006.059-.004.06-.002.062.001.064.003.065.005.067.007.069.009.07.011.072.013.073.015.075.017.076.018.078.02.08.022.081.023.082.025.084.026.085.028.087.029.088.062.18.066.185.071.19.074.195.078.2.163.413.171.43.087.221.087.225.087.228.087.232.086.235.085.238.083.241.041.122.04.122.039.123.038.124.038.124.037.125.036.126.035.126.034.127.033.127.032.128.03.128.029.129.028.129.026.13.025.13.024.13.022.131.02.131.019.132.017.132.015.132.013.132.011.133.009.133.007.133.005.133.003.133.001.134-.001.134-.004.134-.006.134-.008.134-.011.134-.014.134-.016.135-.019.134-.022.134-.024.134-.027.134-.03.134-.033.134-.036.134-.019.067-.02.067-.021.067-.021.067-.022.067-.023.067-.024.067-.025.067-.026.067-.027.067-.027.067-.028.066-.029.066-.03.066-.031.066-.032.066-.033.066-.033.066-.034.066-.035.066-.036.066-.037.066-.038.066-.039.065-.04.065-.041.065-.042.065-.043.065-.044.065-.045.065-.046.065-.047.065-.048.065-.049.064-.05.064-.051.064-.052.064-.053.064-.048.063-.055.064-.056.064-.057.063-.058.063-.059.063-.06.063-.061.063-.058.058-.059.057-.059.056-.06.055-.06.054-.061.053-.062.052-.062.051-.063.05-.064.054-.064.049-.064.048-.065.047-.065.046-.066.045-.066.044-.067.043-.067.042-.068.041-.068.04-.068.039-.069.038-.069.037-.07.036-.07.036-.071.035-.071.034-.071.033-.072.032-.072.031-.073.03-.073.03-.073.029-.074.028-.074.027-.075.026-.075.025-.075.025-.076.024-.076.023-.076.022-.077.021-.077.021-.077.02-.078.019-.078.018-.078.018-.078.017-.079.016-.079.015-.079.015-.08.014-.08.013-.08.012-.161.023-.162.02-.163.017-.164.014-.165.012-.166.009-.166.007-.167.004-.168.001-.165-.004-.169-.003-.17-.006-.17-.008-.17-.01-.171-.013-.171-.015-.171-.017-.173-.018-.172-.021-.172-.023-.172-.025-.172-.027-.172-.029-.172-.031-.172-.032-.172-.034-.172-.036-.172-.037-.172-.039-.171-.041-.171-.042-.171-.043-.17-.045-.17-.046-.169-.048-.171-.048-.168-.05-.167-.051-.167-.052-.166-.053-.165-.054-.164-.055-.165-.058-.163-.057-.162-.058-.161-.059-.16-.06-.158-.061-.157-.061-.156-.062-.155-.062-.154-.063-.152-.063-.15-.064-.15-.064-.148-.065-.147-.065-.145-.065-.143-.065-.142-.066-.14-.066-.138-.066-.137-.065-.135-.066-.133-.066-.131-.066-.128-.065-.127-.066-.125-.065-.243-.13-.234-.128-.225-.126-.216-.124-.206-.122-.196-.119-.185-.115-.174-.112-.163-.108-.151-.103-.071-.05-.068-.049-.065-.047-.062-.046-.059-.045-.055-.043-.052-.042-.049-.04-.045-.039-.042-.037-.038-.036-.035-.034-.066-.068-.061-.065-.057-.064-.053-.062-.048-.061-.044-.059-.04-.058-.036-.056-.032-.054-.029-.053-.025-.052-.022-.05-.019-.049-.016-.048-.013-.046-.01-.045-.009-.044-.006-.043-.003-.042-.001-.041.001-.04.002-.039.004-.038.005-.037.007-.037.008-.036.009-.035.01-.035.01-.034.011-.034.023-.066.013-.04.016-.055.044-.153.028-.097.033-.11.038-.122.044-.134.05-.145.056-.155.031-.081.032-.084.034-.086.036-.089.038-.091.04-.093.042-.095.044-.097.046-.099.048-.101.05-.103.053-.105.055-.106.057-.108.06-.109.062-.111.065-.112.067-.114.07-.115.073-.116.078-.117.078-.118.081-.119.084-.12.087-.123.09-.122.093-.123.096-.123.099-.124.102-.125.105-.125.109-.125.112-.126.115-.126.119-.126.12-.126.125-.126.129-.126.133-.126.136-.126.14-.126.144-.125.148-.125.152-.125.191-.153.192-.151.194-.149.195-.147.196-.145.197-.143.198-.142.199-.14.2-.138.201-.136.201-.135.202-.133.202-.131.202-.129.203-.128.203-.126.203-.125.202-.123.202-.122.202-.12.201-.119.201-.118.2-.116.2-.115.397-.226.393-.221.387-.216.382-.211.743-.41.36-.199.35-.195.34-.192.33-.189.161-.093.158-.092.155-.092.151-.091.148-.09.145-.09.141-.089.138-.089.134-.088.13-.088.126-.087.122-.087.118-.086.114-.086.11-.086.105-.085.101-.085.096-.085.046-.042.045-.042.044-.042.043-.042.042-.043.042-.044.042-.045.042-.046.083-.095.083-.099.083-.103.083-.107.083-.111.083-.115.083-.119.083-.122.083-.126.083-.13.083-.133.084-.136.084-.14.085-.143.085-.146.085-.149.086-.152.087-.155.176-.319.179-.329.183-.34.187-.349.192-.358.197-.366.202-.374.208-.381.107-.193.108-.194.11-.196.112-.197.114-.199.115-.2.118-.201.119-.202.122-.203.124-.204.126-.205.128-.205.13-.206.133-.207.135-.207.138-.208.14-.208.143-.208.145-.209.148-.209.147-.208.154-.209.156-.209.159-.209.162-.208.165-.208.169-.208.172-.207.127-.15.127-.146.128-.142.128-.138.128-.135.128-.131.128-.128.128-.124.128-.121.127-.118.127-.114.127-.111.126-.108.126-.105.125-.101.125-.098.124-.095.123-.092.122-.089.121-.087.12-.084.119-.081.118-.078.117-.075.116-.073.115-.07.113-.068.112-.065.11-.063.109-.06.107-.058.106-.056.104-.053.102-.051.1-.049.098-.047.096-.045.094-.043.092-.041.09-.039.088-.037.085-.035.083-.033.081-.031.154-.058.143-.051.132-.045.12-.039.108-.034.096-.029.151-.045.055-.017.04-.013.034-.011.038-.01.041-.008.044-.007.048-.005.051-.003.057.001.055.002z" fill-rule="evenodd" clip-rule="evenodd" fill="#8d71a3"></path><path d="M20.117 33.552c-3.031 2.584-9.685.221-11.499-1.593-.848-.848-2.924-3.8.439-6.638 2.998-2.529 7.343-3.956 9.791-1.523 1.377 1.369 5.051 6.53 1.269 9.754zM33.576 20.073c2.584-3.031.221-9.685-1.593-11.499-.848-.848-3.8-2.924-6.638.439-2.53 2.998-3.956 7.343-1.523 9.791 1.368 1.377 6.529 5.051 9.754 1.269z" fill-rule="evenodd" clip-rule="evenodd" fill="#c0e8ff"></path><path d="M13 23c-2.173 2.499-3.092 7.623-.023 11-4.616-1.293-5.742-3.951-5.657-5.657.09-1.795 2.961-4.459 5.68-5.343zM28 21c-2.173-2.499-4.199-5.616-2-12-2.402 2.218-3.765 4.951-3.68 6.657.09 1.795 2.961 4.459 5.68 5.343z" fill-rule="evenodd" clip-rule="evenodd" fill="#daf2ff"></path><path d="M15.976 22.977l-.068.002-.068.003-.069.003-.07.004-.07.005-.07.006-.071.007-.071.008-.072.009-.072.01-.073.01-.073.011-.074.012-.074.013-.074.014-.074.015-.075.016-.076.017-.075.017-.076.018-.076.019-.076.02-.079.02-.077.021-.077.022-.077.023-.078.024-.078.024-.076.025-.158.054-.156.056-.157.059-.157.062-.157.065-.157.067-.157.07-.157.072-.156.075-.156.077-.156.08-.155.082-.154.085-.153.087-.151.087-.152.091-.151.093-.149.095-.148.096-.146.098-.145.1-.143.101-.142.103-.14.105-.138.106-.136.107-.134.108-.132.109-.068.058-.067.058-.065.059-.064.058-.062.058-.06.058-.058.058-.056.058-.054.059-.053.058-.052.058-.05.058-.049.057-.047.058-.045.057-.044.058-.044.057-.041.057-.04.057-.039.057-.037.057-.036.056-.034.056-.034.057-.032.056-.031.057-.03.056-.028.056-.027.056-.026.056-.025.056-.024.056-.022.055-.021.055-.02.055-.019.055-.018.055-.017.055-.015.056-.015.055-.014.055-.013.054-.012.054-.011.054-.01.055-.009.054-.008.054-.008.054-.007.054-.006.053-.005.054-.004.054-.003.054-.002.053-.001.054v.108l.001.053.002.053.003.054.004.054.004.053.005.053.006.054.007.053.007.052.008.053.009.053.01.052.011.053.011.052.012.052.013.052.014.052.014.052.015.051.016.052.016.052.017.052.018.051.018.051.019.051.02.051.02.05.021.051.022.05.022.049.023.049.024.05.024.049.024.048.025.048.026.048.027.048.027.048.026.045.058.096.058.092.06.09.062.089.064.087.065.085.067.084.068.082.07.08.071.078.072.076.072.072.074.071.074.069.075.066.076.064.079.064.084.065.089.066.093.067.098.068.102.068.106.068.11.068.114.068.116.068.122.068.125.067.128.066.132.066.135.065.138.064.141.063.144.061.146.06.149.058.151.057.153.055.156.053.158.051.16.049.162.047.163.045.167.043.081.02.084.02.084.019.084.019.085.018.085.017.085.017.085.016.086.015.086.014.086.014.087.013.087.012.087.011.087.011.087.01.088.009.087.008.088.007.088.007.088.006.088.005.088.004.088.003.088.002.088.001h.177l.088-.001.089-.002.089-.003.088-.004.089-.005.088-.006.088-.007.088-.008.088-.009.088-.01.088-.011.088-.012.088-.013.088-.014.088-.015.087-.016.087-.018.087-.019.087-.02.087-.021.087-.022.087-.023.086-.024.086-.025.086-.027.086-.028.085-.029.085-.03.085-.031.085-.032.085-.034.084-.035.084-.036.084-.037.083-.039.083-.04.083-.042.083-.043.082-.044.082-.046.082-.047.081-.048.081-.05.079-.05.085-.056.08-.055.077-.056.074-.056.071-.057.069-.058.066-.059.063-.059.061-.06.058-.06.056-.062.054-.062.051-.063.049-.063.047-.064.045-.064.043-.066.042-.066.039-.067.038-.068.036-.069.034-.069.032-.07.031-.071.029-.072.028-.073.026-.074.024-.075.023-.075.021-.076.019-.077.018-.078.016-.079.015-.08.013-.081.012-.082.01-.082.009-.083.007-.085.006-.085.004-.086.003-.087.001-.087v-.088l-.002-.089-.003-.089-.005-.09-.006-.09-.007-.091-.009-.092-.01-.091-.011-.092-.013-.093-.014-.093-.015-.094-.016-.093-.018-.094-.019-.094-.02-.094-.021-.095-.022-.094-.024-.094-.025-.094-.026-.095-.027-.094-.028-.094-.029-.095-.03-.094-.031-.094-.032-.094-.032-.093-.033-.093-.034-.093-.035-.093-.036-.092-.036-.091-.037-.091-.033-.094-.038-.09-.039-.09-.039-.089-.04-.089-.041-.088-.041-.087-.042-.086-.041-.084-.086-.171-.086-.166-.087-.162-.088-.158-.089-.154-.089-.149-.088-.144-.088-.139-.087-.134-.087-.129-.085-.123-.083-.116-.082-.11-.079-.103-.076-.096-.073-.088-.069-.08-.065-.072-.062-.065-.025-.026-.026-.026-.024-.022-.021-.019-.043-.038-.043-.037-.043-.035-.047-.034-.045-.033-.045-.032-.046-.031-.046-.03-.047-.029-.047-.028-.048-.027-.048-.027-.049-.026-.05-.025-.05-.024-.051-.023-.051-.022-.052-.021-.053-.02-.053-.019-.054-.018-.055-.018-.055-.017-.055-.016-.057-.015-.057-.014-.058-.013-.059-.012-.059-.012-.059-.011-.06-.01-.061-.009-.062-.008-.062-.007-.063-.006-.063-.005-.064-.004-.065-.004-.066-.003-.066-.002-.066-.001h-.067l-.068-.001zm.143-1l.08.001.08.002.079.003.079.004.079.006.078.007.078.008.077.009.077.01.076.011.076.012.076.014.075.015.075.016.074.017.074.018.073.019.073.021.072.022.072.023.071.024.07.026.07.027.069.028.069.029.068.031.067.032.067.033.066.035.066.036.065.037.064.039.064.04.063.041.062.043.062.044.061.045.06.047.059.048.059.05L19 23l.035.032.036.034.037.036.038.038.078.082.081.089.083.096.086.103.088.11.09.117.091.123.093.129.094.135.095.141.095.146.096.151.096.156.096.161.095.166.095.17.094.174.093.178.091.182.045.092.045.093.044.094.044.095.043.096.043.096.042.097.042.098.041.098.04.099.04.099.039.1.038.101.037.101.036.102.036.102.035.103.034.103.033.103.032.104.031.104.03.104.029.105.027.105.026.105.025.105.024.105.023.106.021.106.02.106.019.106.017.106.016.106.015.106.013.106.012.106.01.106.009.106.007.105.005.105.004.105.002.105v.104l-.001.104-.003.104-.005.103-.007.103-.009.103-.011.102-.013.102-.014.101-.017.101-.019.1-.02.1-.023.099-.025.098-.027.098-.029.097-.031.097-.033.096-.036.095-.038.094-.04.093-.043.093-.045.092-.048.091-.05.09-.052.089-.055.088-.058.087-.06.086-.063.085-.065.084-.068.083-.071.082-.074.081-.076.079-.079.078-.087.074-.085.076-.088.074-.09.073-.094.072-.097.07-.1.069L20 34l-.093.059-.094.057-.094.056-.094.054-.095.052-.095.051-.095.049-.096.048-.096.046-.096.045-.097.043-.097.042-.097.04-.097.039-.097.037-.098.036-.098.035-.098.033-.098.032-.099.03-.099.029-.099.028-.099.026-.099.025-.099.024-.099.022-.099.021-.099.02-.1.019-.099.018-.1.016-.1.015-.1.014-.1.013-.1.012-.1.01-.1.009-.1.008-.099.007-.099.006-.099.005-.099.004-.099.003-.099.002h-.198l-.099-.002-.098-.003-.098-.003-.098-.005-.098-.005-.098-.006-.097-.007-.097-.008-.097-.009-.097-.01-.096-.011-.096-.012-.096-.013-.096-.013-.095-.014-.095-.015-.095-.016-.094-.017-.094-.017-.094-.018-.093-.019-.093-.02-.092-.02-.092-.021-.091-.022-.091-.022-.181-.047-.179-.049-.177-.052-.174-.054-.172-.056-.17-.058-.168-.06-.165-.062-.163-.064-.16-.065-.157-.067-.154-.069-.151-.07-.148-.071-.145-.072-.142-.073-.138-.074-.135-.075-.131-.076-.128-.076-.124-.077-.12-.077-.116-.077-.109-.081-.108-.078-.104-.078-.099-.077L9 33l-.092-.078-.091-.081-.09-.084-.089-.086-.088-.089-.087-.091-.085-.094-.084-.096-.082-.098-.08-.1L8.054 32l-.076-.105-.075-.107-.073-.108-.07-.11-.068-.113-.033-.057-.032-.057-.032-.058-.031-.058-.031-.059-.03-.059-.029-.06-.029-.06-.028-.06-.027-.061-.026-.061-.026-.062-.025-.062-.024-.062-.023-.063-.023-.063-.022-.063-.021-.064-.02-.064-.02-.064-.019-.065-.018-.065-.017-.065-.016-.065-.015-.066-.014-.066-.013-.066-.012-.066-.012-.067-.011-.067-.01-.067-.009-.067-.007-.068-.007-.068-.006-.068-.004-.069-.004-.069-.003-.069-.002-.069v-.069l.001-.069.002-.069.003-.069.004-.07.005-.07.006-.07.007-.07.009-.07.01-.07.011-.07.012-.07.013-.07.014-.071.016-.07.017-.071.018-.071.019-.071.021-.071.022-.071.023-.071.025-.071.026-.071.027-.071.028-.068.03-.071.031-.071.033-.071.034-.071.036-.07.037-.071.038-.07.04-.07.041-.07.043-.07.044-.07.046-.07.047-.07.049-.07.05-.07.052-.069.053-.069.055-.069.057-.069.058-.069.06-.069.061-.069.063-.068.065-.068.066-.068.068-.068.07-.068.071-.068.073-.068.075-.067.076-.067L9 25l.142-.118.144-.116.146-.115.148-.114.15-.112.152-.11.154-.109.155-.107.157-.105.158-.103.16-.102.161-.1.163-.097.164-.095.165-.093.166-.091.167-.088.168-.086.168-.083.169-.081.17-.078.17-.076.17-.073.171-.07.171-.067.171-.064.171-.061.171-.058.086-.028.086-.027.086-.026.086-.025.086-.024.085-.024.085-.023.085-.022.085-.021.085-.02.085-.019.085-.018.085-.017.084-.017.084-.016.084-.015.084-.014.084-.013.084-.012.083-.011.083-.01.083-.009.083-.008.082-.007.082-.006.082-.005.082-.004.081-.003.081-.002.081-.001.08-.004zM28.871 7.918l-.053.002-.054.002-.054.003-.053.004-.054.005-.054.006-.054.007-.054.007-.054.008-.055.008-.054.01-.055.011-.055.012-.054.013-.054.015-.055.015-.055.016-.055.017-.055.018-.055.019-.056.02-.055.021-.054.023-.055.023-.056.025-.056.026-.056.027-.056.028-.056.029-.056.032-.056.032-.057.034-.057.034-.056.036-.057.037-.057.038-.057.04-.058.042-.057.042-.057.044-.058.046-.058.047-.058.048-.058.05-.058.052-.058.054-.058.055-.058.056-.058.058-.058.06-.058.061-.058.064-.058.065-.058.067-.058.069-.11.13-.108.134-.107.136-.106.138-.105.14-.103.142-.102.144-.1.145-.098.147-.097.148-.095.149-.093.15-.091.152-.089.152-.087.153-.084.154-.082.155-.08.156-.077.156-.075.156-.073.157-.07.157-.067.157-.065.157-.062.157-.059.157-.056.156-.053.158-.025.076-.024.077-.024.078-.023.077-.022.077-.022.077-.02.076-.02.076-.016.076-.018.076-.017.075-.016.075-.016.075-.015.074-.014.075-.013.074-.012.074-.011.073-.01.072-.01.073-.009.072-.008.071-.007.071-.006.071-.005.07-.004.069-.003.069-.002.069-.002.068L23 16v.067l.001.066.002.065.003.066.004.065.004.064.005.063.006.063.007.062.008.062.009.061.01.06.011.06.012.06.012.058.013.058.014.057.015.056.016.055.017.055.018.055.018.054.019.053.02.053.021.052.022.051.023.05.024.05.025.05.026.049.027.048.027.048.028.047.029.047.031.046.031.046.032.045.033.044.034.044.035.044.036.043.038.043.019.021.023.024.026.026.025.025.065.062.072.065.08.069.088.073.096.076.103.079.11.082.116.084.123.085.128.087.134.088.139.088.145.089.149.089.154.088.158.088.162.087.165.086.17.086.084.041.087.042.087.041.088.041.088.04.089.039.09.039.09.038.091.038.091.037.092.036.092.036.092.035.093.034.093.033.094.032.094.032.094.031.094.03.094.029.094.028.095.027.095.026.095.025.094.024.094.022.094.021.094.02.094.019.094.018.093.017.093.015.093.014.092.013.092.011.092.01.091.009.091.007.091.006.09.004.089.003.093.005h.088l.087-.001.086-.003.086-.004.085-.006.084-.007.083-.009.083-.01.082-.012.081-.013.08-.015.079-.016.078-.018.077-.019.076-.021.076-.023.074-.024.074-.026.073-.028.072-.029.071-.031.07-.032.069-.034.069-.036.068-.038.067-.039.066-.041.066-.043.065-.045.064-.047.063-.049.063-.052.062-.054.062-.056.061-.058.059-.061.06-.063.059-.066.058-.068.057-.071.057-.074.056-.077.055-.08.056-.084.05-.08.05-.081.048-.081.047-.082.046-.082.044-.083.043-.083.041-.083.04-.083.039-.084.038-.084.036-.084.035-.084.034-.085.032-.085.031-.085.03-.088.029-.085.028-.086.027-.086.025-.086.024-.086.023-.087.022-.087.021-.087.02-.087.019-.087.018-.088.016-.087.015-.088.014-.088.013-.088.012-.088.011-.089.01-.088.009-.088.008-.089.007-.088.006-.088.005-.089.004-.088.003-.089.002-.089.001-.088v-.178l-.001-.088-.002-.088-.003-.088-.004-.088-.005-.088-.006-.088-.007-.088-.007-.088-.008-.088-.009-.088-.01-.088-.01-.087-.012-.087-.012-.087-.013-.087-.014-.086-.014-.086-.015-.085-.016-.086-.017-.086-.017-.085-.018-.085-.019-.084-.019-.084-.02-.084-.02-.081-.043-.167-.045-.163-.047-.162-.05-.16-.051-.158-.053-.156-.055-.154-.057-.151-.058-.149-.06-.146-.061-.143-.063-.141-.064-.138-.065-.135-.066-.132-.066-.128-.067-.125-.068-.121-.068-.118-.068-.114-.068-.11-.068-.106-.068-.102-.068-.098-.067-.093-.066-.089-.065-.084-.064-.079-.062-.069-.067-.075-.069-.074-.071-.074-.073-.073-.076-.072-.078-.071-.08-.069-.082-.068-.084-.067-.085-.065-.087-.064-.088-.062-.09-.06-.092-.058-.096-.058-.044-.026-.048-.027-.049-.026-.048-.026-.048-.025-.049-.025-.049-.024-.049-.023-.049-.023-.05-.022-.05-.022-.05-.021-.05-.02-.051-.02-.05-.019-.051-.018-.051-.018-.052-.017-.052-.016-.052-.016-.052-.015-.052-.014-.052-.013-.052-.013-.052-.013-.053-.011-.052-.011-.052-.01-.053-.009-.053-.008-.053-.008-.053-.007-.053-.006-.053-.005-.053-.005-.053-.004-.053-.003-.054-.002-.053-.001h-.054l-.054.001zm.122-1l.069.002.069.003.068.004.068.005.068.006.068.007.068.008.067.009.067.01.067.01.067.012.066.012.066.013.066.014.066.015.065.016.065.017.065.018.065.019.064.02.064.02.064.021.063.022.063.023.063.023.062.024.062.025.062.024.061.026.061.027.06.028.06.029.06.029.059.03.059.031.058.031.058.032.057.032.057.033.113.068.111.07.109.072.107.075.105.077.103.078.1.08.098.082.096.083.094.085.091.086.089.088.086.089.083.09.081.091.078.092.077.095.077.1.077.104.078.108.078.112.077.116.077.12.077.124.076.128.076.131.075.135.074.138.073.142.072.145.071.148.07.151.069.154.067.157.066.16.064.162.062.165.06.167.058.17.056.172.054.175.052.177.049.179.047.181.022.091.022.091.021.092.02.092.02.093.019.093.018.094.017.094.017.094.016.095.015.095.014.095.013.096.013.096.012.096.011.096.01.097.009.097.008.097.007.097.006.098.005.098.005.098.004.098.002.098.001.099v.198l-.001.099-.003.099-.004.099-.005.099-.006.099-.007.099-.008.099-.009.1-.01.1-.011.1-.013.1-.014.1-.015.1-.016.1-.017.1-.019.099-.02.099-.021.099-.023.099-.024.099-.025.099-.026.099-.028.099-.029.099-.03.099-.032.098-.033.098-.035.098-.036.098-.037.097-.039.097-.04.097-.042.097-.043.097-.045.096-.045.096-.048.096-.049.095-.051.095-.052.095-.054.094-.056.094-.057.094-.059.093-.067.102-.069.1-.07.097-.071.093-.073.091-.074.088-.076.085-.077.082-.078.079-.079.076-.08.073-.082.071-.083.068-.084.065-.085.063-.086.06-.087.058-.088.055-.089.052-.09.05-.091.048-.092.045-.092.043-.093.04-.094.038-.095.036-.096.033-.097.031-.097.029-.098.027-.099.025-.099.023-.1.021-.1.019-.101.016-.101.014-.102.013-.102.011-.103.009-.103.007-.103.005-.104.003h-.207l-.105-.002-.105-.004-.105-.005-.105-.007-.105-.009-.106-.01-.106-.012-.106-.013-.106-.015-.106-.016-.106-.017-.106-.019-.106-.02-.106-.021-.105-.023-.105-.024-.105-.025-.105-.026-.105-.027-.105-.029-.104-.03-.104-.031-.104-.032-.103-.033-.103-.034-.102-.035-.102-.036-.102-.036-.101-.037-.101-.038-.1-.039-.099-.04-.099-.04-.098-.041-.098-.042-.097-.042-.096-.043-.095-.043-.095-.044-.094-.04-.093-.045-.092-.045-.182-.091-.178-.093-.174-.094-.17-.095-.166-.095-.161-.096-.156-.096-.151-.096-.146-.095-.141-.095-.135-.094-.129-.093-.123-.091-.117-.09-.11-.088-.103-.086-.097-.083-.089-.081-.082-.078-.038-.038-.036-.037-.034-.036-.032-.035-.051-.058-.05-.059-.048-.059-.047-.06-.045-.061-.044-.062-.043-.062-.041-.063-.04-.064-.039-.064-.037-.065-.036-.066-.035-.066-.033-.067-.032-.068-.031-.068-.029-.069-.028-.069-.027-.07-.026-.07-.024-.071-.023-.072-.022-.072-.021-.073-.019-.073-.018-.074-.017-.074-.016-.075-.015-.075-.014-.076-.012-.076-.011-.076-.01-.077-.009-.077-.008-.078-.007-.078-.005-.078-.004-.079-.003-.079-.002-.08-.003-.076v-.08l.001-.081.002-.081.003-.081.004-.082.005-.082.006-.082.007-.082.008-.083.009-.083.01-.083.011-.083.012-.084.013-.084.014-.084.015-.084.016-.084.017-.084.018-.085.018-.085.019-.085.02-.085.021-.085.022-.085.023-.085.024-.085.025-.085.025-.086.026-.086.027-.086.028-.086.058-.171.061-.171.064-.171.067-.171.07-.171.073-.171.076-.17.078-.169.081-.169.084-.168.086-.168.088-.167.091-.166.093-.165.095-.164.098-.162.099-.161.101-.16.103-.159.105-.157.107-.155.109-.154.111-.152.112-.15.114-.148.115-.146.116-.144.118-.142.067-.078.067-.076.067-.075.067-.073.067-.071.068-.07.068-.068.068-.066.068-.065.069-.063.069-.061.069-.06.069-.058.069-.057.069-.055.069-.053.07-.052.07-.05.07-.049.07-.047.07-.046.07-.044.07-.043.07-.041.07-.04.07-.038.07-.037.071-.035.071-.034.071-.033.071-.031.071-.03.071-.029.071-.029.071-.026.071-.025.071-.023.071-.022.071-.021.071-.019.071-.018.071-.017.071-.016.071-.014.07-.013.07-.012.07-.011.07-.01.07-.009.07-.007.07-.006.07-.005.07-.004.069-.003.069-.002.069-.001.067.002z" fill-rule="evenodd" clip-rule="evenodd" fill="#7395c6"></path><path fill-rule="evenodd" clip-rule="evenodd" fill="#fff" d="M20 30.007v.025l-.003.064-.004.047-.005.052-.006.059-.01.065-.012.069-.015.075-.018.08-.022.083-.026.084-.016.047-.017.045-.017.045-.019.046-.021.047-.023.047-.023.047-.026.048-.027.048-.029.047-.031.047-.033.048-.036.047-.037.046-.039.046-.042.045-.043.044-.046.044-.049.042-.05.04-.054.04-.055.038-.058.036-.059.034-.062.032-.065.03-.066.028-.068.025-.071.023-.072.02-.074.018-.076.015-.077.013-.08.009-.081.007-.083.005-.084.001-.078-.001.016-1 .061.001.051-.001.048-.002.046-.004.043-.006.041-.006.038-.008.036-.009.034-.009.033-.011.03-.011.029-.012.027-.013.026-.013.025-.014.023-.015.022-.015.021-.016.021-.016.02-.017.019-.018.018-.019.017-.019.017-.019.017-.021.015-.021.015-.021.015-.022.014-.023.013-.023.013-.024.012-.024.012-.024.01-.025.011-.025.01-.025.009-.025.007-.023.017-.052.013-.05.011-.047.009-.045.007-.043.006-.039.004-.035.003-.03.001-.022.002-.035v-.009zM33.024 17.071l-.002.083-.004.083-.007.081-.01.08-.012.077-.016.076-.017.074-.021.072-.023.07-.025.069-.028.067-.03.064-.032.061-.034.06-.036.058-.037.055-.04.054-.041.05-.042.049-.043.045-.045.045-.045.041-.045.039-.047.038-.047.035-.047.033-.048.031-.047.029-.048.027-.047.026-.047.024-.047.022-.047.02-.046.02-.046.017-.045.017-.047.016-.084.026-.083.022-.079.019-.075.015-.07.011-.065.01-.058.007-.052.004-.048.004-.063.003h-.026l-.013-1h.01l.034-.002.023-.001.03-.003.035-.004.039-.006.042-.007.046-.009.047-.011.049-.013.053-.016.022-.008.025-.009.026-.01.025-.01.024-.011.024-.012.025-.012.023-.013.023-.013.023-.014.022-.015.022-.015.021-.015.02-.017.02-.017.019-.017.018-.018.018-.019.017-.02.017-.021.016-.02.015-.023.014-.023.014-.025.014-.026.013-.027.012-.029.011-.03.01-.032.01-.035.009-.036.007-.038.007-.041.005-.043.004-.046.003-.048v-.051l-.001-.061 1-.015z"></path></svg>