<svg viewBox="0 0 40 40" xmlns="http://www.w3.org/2000/svg"><path fill="#b0c1d4" d="M16.5 28.5h7v6h-7z"></path><path d="M23 29v5h-6v-5h6m1-1h-8v7h8v-7z" fill="#66798f"></path><path fill="#c2e8ff" d="M1.5 4.5h37v26h-37z"></path><path d="M38 5v25H2V5h36m1-1H1v27h38V4z" fill="#66798f"></path><path fill="#66798f" d="M1 26h38v5H1zM31 37H9a3 3 0 013-3h16a3 3 0 013 3z"></path><path fill="#ffeea3" d="M34 28h3v1h-3z"></path><g><path fill="#fff" d="M11.5 10.5h17v13h-17z"></path><path d="M28 11v12H12V11h16m1-1H11v14h18V10z" fill="#788b9c"></path></g><g><path fill="#788b9c" d="M11 10h18v3H11z"></path></g></svg>