<svg viewBox="0 0 40 40" xmlns="http://www.w3.org/2000/svg"><path d="M19.999 38.251C17.896 35.874 7.5 23.628 7.5 14 7.5 7.107 13.107 1.5 20 1.5S32.5 7.107 32.5 14c0 9.58-10.398 21.866-12.501 24.251z" fill="#f78f8f"></path><path d="M20 2c6.617 0 12 5.383 12 12 0 8.932-9.29 20.349-12.001 23.491C17.286 34.358 8 22.977 8 14 8 7.383 13.383 2 20 2m0-1C12.82 1 7 6.82 7 14c0 10.981 13 25 13 25s13-14.074 13-25c0-7.18-5.82-13-13-13z" fill="#c74343"></path><path d="M20 22.5c-4.687 0-8.5-3.813-8.5-8.5s3.813-8.5 8.5-8.5 8.5 3.813 8.5 8.5-3.813 8.5-8.5 8.5z" fill="#f2faff"></path><path d="M20 6a8 8 0 110 16 8 8 0 010-16m0-1c-4.963 0-9 4.037-9 9s4.037 9 9 9 9-4.037 9-9-4.037-9-9-9z" fill="#c74343"></path><g><path d="M20 18.5c-2.481 0-4.5-2.019-4.5-4.5s2.019-4.5 4.5-4.5 4.5 2.019 4.5 4.5-2.019 4.5-4.5 4.5z" fill="#8bb7f0"></path><path d="M20 10c2.206 0 4 1.794 4 4s-1.794 4-4 4-4-1.794-4-4 1.794-4 4-4m0-1a5 5 0 10.001 10.001A5 5 0 0020 9z" fill="#4e7ab5"></path></g><g><circle cx="20" cy="14" r="1.5" fill="#36404d"></circle><path d="M20 13c.551 0 1 .449 1 1s-.449 1-1 1-1-.449-1-1 .449-1 1-1m0-1a2 2 0 10-.001 3.999A2 2 0 0020 12z" fill="#36404d"></path></g></svg>