<svg viewBox="0 0 40 40" xmlns="http://www.w3.org/2000/svg"><path d="M20 32.5C10.238 32.5 2.002 21.886.616 20 2.002 18.115 10.245 7.5 20 7.5c9.762 0 17.998 10.614 19.384 12.5C37.998 21.885 29.755 32.5 20 32.5z" fill="#fff"></path><path d="M20 8c9.097 0 16.906 9.548 18.76 12-1.854 2.452-9.663 12-18.76 12S3.094 22.452 1.24 20C3.094 17.548 10.903 8 20 8m0-1C8.954 7 0 20 0 20s8.954 13 20 13 20-13 20-13S31.046 7 20 7z" fill="#ba9b48"></path><path d="M20 28.5c-4.687 0-8.5-3.813-8.5-8.5s3.813-8.5 8.5-8.5 8.5 3.813 8.5 8.5-3.813 8.5-8.5 8.5z" fill="#8bb7f0"></path><path d="M20 12c4.411 0 8 3.589 8 8s-3.589 8-8 8-8-3.589-8-8 3.589-8 8-8m0-1c-4.971 0-9 4.029-9 9s4.029 9 9 9 9-4.029 9-9-4.029-9-9-9z" fill="#4e7ab5"></path><circle cx="20" cy="20" r="4" fill="#36404d"></circle><circle cx="23" cy="16" r="2" fill="#fff"></circle></svg>