<svg viewBox="0 0 40 40" xmlns="http://www.w3.org/2000/svg"><path d="M20 32.5C10.238 32.5 2.002 21.886.616 20 2.002 18.115 10.245 7.5 20 7.5c9.762 0 17.998 10.614 19.384 12.5C37.998 21.885 29.755 32.5 20 32.5z" fill="#fff"></path><path d="M20 8c9.097 0 16.906 9.549 18.76 12-1.852 2.453-9.65 12-18.76 12-9.097 0-16.906-9.549-18.76-12C3.092 17.547 10.89 8 20 8m0-1C8.954 7 0 20 0 20s8.954 13 20 13 20-13 20-13S31.046 7 20 7z" fill="#ba9b48"></path><path d="M13.997 13.997A8.497 8.497 0 0120 11.5c4.687 0 8.5 3.813 8.5 8.5 0 2.25-.904 4.412-2.497 6.003L13.997 13.997z" fill="#8bb7f0"></path><path d="M20 12c4.411 0 8 3.589 8 8 0 1.949-.722 3.83-2.008 5.285L14.715 14.008A7.992 7.992 0 0120 12m0-1a8.969 8.969 0 00-6.701 3.006L25.993 26.7A8.962 8.962 0 0029 20a9 9 0 00-9-9z" fill="#4e7ab5"></path><path fill="none" stroke="#36404d" stroke-miterlimit="10" d="M3 3l34 34"></path><path d="M8.166 12.873L25.98 30.687c.329-.139.654-.284.974-.44l-17.99-17.99c-.271.203-.536.409-.798.616zM6.019 14.726l16.932 16.932c.378-.082.751-.182 1.123-.291L6.757 14.05c-.256.226-.496.451-.738.676zM4.707 16c-.242.247-.468.486-.69.724l15.228 15.228c.252.014.501.048.755.048.224 0 .443-.031.665-.042L4.707 16zM2.145 18.852l11.803 11.803c.713.305 1.442.564 2.187.773L2.791 18.084c-.234.273-.45.53-.646.768z" fill="#788b9c"></path><path d="M22.441 23.148A3.979 3.979 0 0024 20a4 4 0 00-4-4 3.979 3.979 0 00-3.148 1.559l5.589 5.589z" fill="#36404d"></path><circle cx="23" cy="16" r="2" fill="#fff"></circle></svg>