<svg viewBox="0 0 40 40" xmlns="http://www.w3.org/2000/svg"><path d="M29.954 24.826c.349-1.214.546-2.491.546-3.817 0-.907-.093-1.791-.26-2.649M33 28.235a18.113 18.113 0 001.5-7.226c0-2.171-.4-4.243-1.098-6.173M35.902 31.5a22.424 22.424 0 00.473-20" fill="none" stroke="#4e7ab5" stroke-miterlimit="10"></path><path d="M1.511 38.5c.263-6.11 5.315-11 11.489-11h8c6.174 0 11.227 4.89 11.489 11H1.511z" fill="#c2e8ff"></path><path d="M21 28c5.729 0 10.448 4.401 10.955 10H2.045C2.552 32.401 7.271 28 13 28h8m0-1h-8C6.373 27 1 32.373 1 39h32c0-6.627-5.373-12-12-12z" fill="#7496c4"></path><path d="M17 30.5c-2.836 0-4.215-2.078-4.5-2.567V22.5h9v5.433c-.285.489-1.664 2.567-4.5 2.567z" fill="#e8d47b"></path><path d="M21 23v4.792c-.357.56-1.612 2.208-4 2.208-2.39 0-3.642-1.645-4-2.208V23h8m1-1H12v6.062S13.491 31 17 31s5-2.938 5-2.938V22z" fill="#ba9b48"></path><path d="M24.143 19.214c-1.3 0-2.356-1.058-2.356-2.357s1.057-2.357 2.356-2.357c1.963 0 2.357.538 2.357 1.405 0 1.414-1.165 3.309-2.357 3.309zm-14.286 0c-1.192 0-2.357-1.895-2.357-3.31 0-.867.395-1.405 2.357-1.405a2.358 2.358 0 010 4.715z" fill="#e8d47b"></path><path d="M24.143 15C26 15 26 15.481 26 15.905c0 1.234-1.041 2.81-1.857 2.81a1.859 1.859 0 01-1.857-1.857A1.86 1.86 0 0124.143 15M9.857 15c1.024 0 1.857.833 1.857 1.857a1.859 1.859 0 01-1.857 1.857C9.041 18.714 8 17.139 8 15.905 8 15.481 8 15 9.857 15m14.286-1a2.857 2.857 0 100 5.714c1.578 0 2.857-2.232 2.857-3.81C27 14.327 25.721 14 24.143 14zM9.857 14C8.279 14 7 14.327 7 15.905s1.279 3.81 2.857 3.81a2.857 2.857 0 100-5.715z" fill="#ba9b48"></path><g><path d="M17 26.5a2.464 2.464 0 01-1.642-.63l-.091-.08-.116-.03A7.486 7.486 0 019.5 18.5V9.202a3.316 3.316 0 013.312-3.313h8.375A3.317 3.317 0 0124.5 9.202V18.5a7.486 7.486 0 01-5.651 7.26l-.116.03-.091.08c-.47.412-1.038.63-1.642.63z" fill="#ffeea3"></path><path d="M21.187 6.389A2.816 2.816 0 0124 9.202V18.5a6.988 6.988 0 01-5.275 6.776l-.233.059-.181.159c-.263.231-.703.506-1.311.506s-1.048-.275-1.311-.506l-.181-.159-.233-.059A6.988 6.988 0 0110 18.5V9.202a2.816 2.816 0 012.813-2.813h8.374m0-1h-8.375A3.813 3.813 0 009 9.202V18.5c0 3.737 2.566 6.866 6.029 7.745.528.464 1.213.755 1.971.755s1.443-.291 1.971-.755C22.434 25.366 25 22.237 25 18.5V9.202a3.813 3.813 0 00-3.813-3.813z" fill="#ba9b48"></path></g><g><path d="M24.5 17.5V14c0-3.636-3.033-5.582-3.163-5.663l-.398-.25-.275.383c-.085.118-2.119 2.887-6.514 2.887-1.15 0-4.65 0-4.65 3.643v2.5h-.179c-.435-.982-1.821-4.332-1.821-7.188 0-5.271 3.617-8.812 9-8.812 3.839 0 4.992 2.585 5.039 2.695l.131.303.33.002c1.671 0 4.5 1.162 4.5 5.515 0 2.623-1.407 6.393-1.838 7.485H24.5z" fill="#ffc49c"></path><path d="M16.5 2c3.483 0 4.538 2.297 4.577 2.385l.257.615H22c1.845 0 4 1.313 4 5.015 0 1.536-.507 3.498-1 5.043V14c0-3.909-3.258-5.999-3.397-6.087l-.795-.492-.549.756c-.079.109-1.993 2.679-6.109 2.679C10.733 10.857 9 12.251 9 15v.314c-.491-1.422-1-3.305-1-5.003C8 5.34 11.416 2 16.5 2m0-1C10.681 1 7 4.981 7 10.311 7 13.842 9 18 9 18h1v-3c0-2.668 2.024-3.143 4.15-3.143 4.73 0 6.922-3.097 6.922-3.097S24 10.599 24 14v4h1s2-4.768 2-7.985C27 5.498 24.123 4 22 4c0 0-1.253-3-5.5-3z" fill="#a16a4a"></path></g></svg>