<svg viewBox="0 0 40 40" xmlns="http://www.w3.org/2000/svg"><path d="M1.505 38.5V8.698c3.671-1.573 9.297-2.819 11.655-2.819 3.117 0 8.345 1.262 8.345 9.715v.111l2.924 6.214c.09.189.095.401.016.596a.733.733 0 01-.427.413l-2.512.932V29c0 2.481-2.019 4.5-4.5 4.5h-1.5v5H1.505z" fill="#ffeea3"></path><path d="M13.16 6.379c3.579 0 7.845 1.599 7.845 9.214v.224l.095.203 2.877 6.112c.037.079.023.149.005.193s-.057.104-.139.134l-2.185.81-.652.242V29c0 2.206-1.794 4-4 4h-2v5h-13V9.031c3.613-1.49 8.905-2.652 11.154-2.652m0-1c-2.42 0-8.328 1.283-12.155 2.992V39h15v-5h1a5 5 0 005-5v-4.793l2.185-.81a1.24 1.24 0 00.691-1.691l-2.877-6.112c.001-7.706-4.271-10.215-8.844-10.215z" fill="#ba9b48"></path><path d="M7.737 1c-2.405 0-4.697.597-6.732 1.639v28.25c.01.038.027.073.036.111l3.964-3v-4.508c0-.769.157-1.365.393-1.834A3.995 3.995 0 013.005 18a4 4 0 014-4c1.306 0 2.455.635 3.185 1.603 2.971-.645 3.815-3.694 3.815-5.603 4.342 0 7-5 7-5S15.961 1 7.737 1z" fill="#ffc49c"></path><circle cx="17.505" cy="18.5" r="1.5" fill="#36404d"></circle><path d="M7.737 1c-2.405 0-4.697.597-6.732 1.639v1.155A13.673 13.673 0 017.737 2c6.012 0 10.282 2.257 11.914 3.285C18.78 6.559 16.752 9 14.005 9h-1v1c0 .38-.074 3.53-2.483 4.464A4.932 4.932 0 007.005 13c-2.757 0-5 2.243-5 5a5 5 0 002.164 4.113c-.109.428-.164.89-.164 1.379v4.01l-3 2.327v1.059c.01.038.027.073.036.111l3.964-3v-4.508c0-.769.157-1.365.393-1.834A3.992 3.992 0 013.005 18a4 4 0 014-4c1.306 0 2.455.635 3.185 1.603 2.971-.645 3.815-3.694 3.815-5.603 4.342 0 7-5 7-5S15.961 1 7.737 1z" fill="#a16a4a"></path><path d="M38.738 32l-3.252-12.619a.5.5 0 00-.471-.381.523.523 0 00-.493.353L31.006 30.78l-2.527-8.424a.498.498 0 00-.471-.356c-.259.005-.414.135-.482.342L25.64 28H24v1h2a.5.5 0 00.474-.342l1.501-4.502 2.546 8.487a.5.5 0 00.477.356L31 33c.22 0 .414-.144.479-.353l3.468-11.271L37.699 32h1.039z" fill="#4e7ab5"></path></svg>