<svg viewBox="0 0 40 40" xmlns="http://www.w3.org/2000/svg"><path d="M9.5 29.5c-4.963 0-9-4.037-9-9s4.037-9 9-9 9 4.037 9 9a8.933 8.933 0 01-1.671 5.21l-.563.79h7.469l-.563-.79a8.933 8.933 0 01-1.671-5.21c0-4.963 4.037-9 9-9s9 4.037 9 9-4.037 9-9 9H9.5zm21-15c-3.309 0-6 2.691-6 6s2.691 6 6 6 6-2.691 6-6-2.691-6-6-6zm-21 0c-3.309 0-6 2.691-6 6s2.691 6 6 6 6-2.691 6-6-2.691-6-6-6z" fill="#bae0bd"></path><path d="M30.5 12c4.687 0 8.5 3.813 8.5 8.5S35.187 29 30.5 29h-21C4.813 29 1 25.187 1 20.5S4.813 12 9.5 12s8.5 3.813 8.5 8.5c0 1.769-.546 3.47-1.578 4.92L15.297 27h9.407l-1.125-1.58A8.435 8.435 0 0122 20.5c0-4.687 3.813-8.5 8.5-8.5m0 15c3.584 0 6.5-2.916 6.5-6.5S34.084 14 30.5 14 24 16.916 24 20.5s2.916 6.5 6.5 6.5m-21 0c3.584 0 6.5-2.916 6.5-6.5S13.084 14 9.5 14 3 16.916 3 20.5 5.916 27 9.5 27m21-16a9.5 9.5 0 00-9.5 9.5c0 2.052.657 3.947 1.763 5.5h-5.527A9.44 9.44 0 0019 20.5c0-5.247-4.253-9.5-9.5-9.5S0 15.253 0 20.5A9.5 9.5 0 009.5 30h21a9.5 9.5 0 009.5-9.5 9.5 9.5 0 00-9.5-9.5zm0 15a5.5 5.5 0 110-11 5.5 5.5 0 110 11zm-21 0a5.5 5.5 0 110-11 5.5 5.5 0 110 11z" fill="#5e9c76"></path></svg>