<svg viewBox="0 0 40 40" xmlns="http://www.w3.org/2000/svg"><path fill="#b0c1d4" d="M1.5 38.5v-3h16v-9.571h5V35.5h16v3z"></path><path d="M22 26.429V36h16v2H2v-2h16v-9.571h4m1-1h-6V35H1v4h38v-4H23v-9.571z" fill="#66798f"></path><path fill="#bae0bd" d="M12.5 38.5v-3h5v-2h5v2h5v3z"></path><path d="M22 34v2h5v2H13v-2h5v-2h4m1-1h-6v2h-5v4h16v-4h-5v-2z" fill="#5e9c76"></path><path fill="#8bb7f0" d="M1.5 28.5v-7.449L5.48 1.5h29.04l3.98 19.551V28.5z"></path><path d="M34.112 2L38 21.101V28H2v-6.899L5.888 2h28.224m.817-1H5.071L1 21v8h38v-8L34.929 1z" fill="#4e7ab5"></path><path fill="#c2e8ff" d="M37.979 21H2.025L5.892 2h28.223z"></path><circle cx="34.5" cy="24.5" r="1.5" fill="#fff"></circle><circle cx="9.5" cy="24.5" r="1.5" fill="#fff"></circle><circle cx="13.5" cy="24.5" r="1.5" fill="#fff"></circle><circle cx="5.5" cy="24.5" r="1.5" fill="#fff"></circle><path d="M30.738 11.369l-1.263-1.263c-4.517-4.314-15.131-3.819-18.95 0l-1.264 1.263a.893.893 0 000 1.263l2.527 2.527a.893.893 0 001.263 0l2.361-2.362V9.464c.891-.891 8.297-.891 9.188 0v3.348l2.347 2.347a.893.893 0 001.263 0l2.527-2.527a.892.892 0 00.001-1.263z" fill="#4e7ab5"></path></svg>