<svg viewBox="0 0 40 40" xmlns="http://www.w3.org/2000/svg"><path d="M20 38.5C9.799 38.5 1.5 30.201 1.5 20S9.799 1.5 20 1.5 38.5 9.799 38.5 20 30.201 38.5 20 38.5z" fill="#fff"></path><path d="M20 2c9.925 0 18 8.075 18 18s-8.075 18-18 18S2 29.925 2 20 10.075 2 20 2m0-1C9.507 1 1 9.507 1 20s8.507 19 19 19 19-8.507 19-19S30.493 1 20 1z" fill="#93a8bc"></path><path d="M22.584 38.313C29.764 33.895 32.5 25.012 32.5 20v-2.242c1.47.629 4.846 2.075 5.983 2.564l-.078 1.575c-.861 8.549-7.479 15.254-15.821 16.416z" fill="#8bb7f0"></path><path d="M33 18.516l4.967 2.128-.06 1.202c-.765 7.5-6.061 13.53-13.029 15.479C31.425 32.039 33 23.398 33 20v-1.484M32 17v3c0 4.531-2.621 15.011-11.795 18.991 9.752-.104 17.741-7.546 18.699-17.069L39 20c-.706-.305-7-3-7-3z" fill="#4e7ab5"></path><path d="M35.706 10.251c-3.8-1.829-7.73-2.755-11.709-2.755-3.666 0-7.362.809-10.457 2.285-.534-2.315-.659-5.574-.67-6.845a18.592 18.592 0 013.176-1.002l.113-.029c.473-.101.993-.184 1.636-.261l.267-.041A18.618 18.618 0 0120 1.5a18.393 18.393 0 0115.706 8.751z" fill="#8bb7f0"></path><path d="M20 2a17.886 17.886 0 0114.29 7.073c-3.357-1.379-6.807-2.076-10.293-2.076-3.507 0-7.043.727-10.096 2.07-.384-2.012-.502-4.507-.526-5.796a18.22 18.22 0 012.778-.848c.037-.008.074-.018.111-.029.456-.097.961-.178 1.59-.254.061-.007.121-.017.18-.028.026-.005.052-.01.079-.013C18.743 2.034 19.377 2 20 2m0-1c-.673 0-1.337.036-1.991.105-.093.01-.181.031-.274.042-.567.068-1.13.151-1.68.269-.04.008-.077.021-.117.03a19.01 19.01 0 00-3.568 1.16c-.011.971.088 5.271.839 7.894l.172-.085c.703-.351 4.752-2.419 10.616-2.419 3.719 0 8.168.832 12.957 3.46C33.824 5.259 27.417 1 20 1z" fill="#4e7ab5"></path><path d="M11.25 35.321c-1.125 0-2.084-.309-2.849-.918C4.017 30.866 1.5 25.616 1.5 20c0-2.681.585-5.325 1.702-7.745.521 7.95 4.315 14.588 10.815 18.834.117.076.206.134.263.175l2.247 2.254c-1.317.921-3.376 1.803-5.277 1.803z" fill="#ffeea3"></path><path d="M2.914 14.344c1.005 7.199 4.763 13.201 10.831 17.164l.183.12 1.803 1.803c-1.158.692-2.854 1.389-4.482 1.389-1.009 0-1.863-.272-2.533-.806C4.448 30.573 2 25.465 2 20c0-1.929.311-3.839.914-5.656m.727-3.998A18.9 18.9 0 001 20c0 5.982 2.77 11.311 7.09 14.793.929.74 2.032 1.027 3.16 1.027 2.347 0 4.803-1.243 6.036-2.249l-2.714-2.714c-.992-.709-10.931-6.267-10.931-20.511z" fill="#f5c276"></path><g><path d="M14.614 37.69A18.362 18.362 0 019 34.87c9.623-4.106 11.476-14.679 11.493-14.789l.006-3.643c1.191.023 4.171.079 5.656.079.125 0 .241 0 .345-.002V19c-.007 3.342-2.163 13.175-11.886 18.69z" fill="#ffeea3"></path><path d="M21 16.948c1.337.025 3.666.066 5 .069v1.98c-.007 3.241-2.089 12.735-11.445 18.15a17.863 17.863 0 01-4.551-2.183c9.164-4.409 10.909-14.357 10.983-14.802l.013-.08v-3.134m-1-1.019V20S18.193 30.948 8.004 34.729a18.938 18.938 0 006.671 3.501C24.362 32.842 26.991 23.126 27 19v-3c-.085.012-.396.018-.843.018-1.879 0-6.157-.089-6.157-.089z" fill="#f5c276"></path></g><g><path d="M38.467 21.072c-3.512-1.713-7.324-2.581-11.344-2.581-4.272 0-7.167.994-7.288 1.036a57.77 57.77 0 00-3.659 1.206l-2.291-4.58 2.268-1.134c.529-.264 4.888-1.497 10.247-1.497 4.696 0 8.638.931 11.72 2.766.252 1.24.38 2.488.38 3.712 0 .353-.011.708-.033 1.072z" fill="#ffeea3"></path><path d="M26.4 14.022c4.508 0 8.297.869 11.272 2.583a18.014 18.014 0 01.325 3.694c-3.388-1.532-7.039-2.308-10.874-2.308-4.178 0-7.083.939-7.423 1.054a57.499 57.499 0 00-3.276 1.066l-1.868-3.735 1.819-.909c.517-.256 4.78-1.445 10.025-1.445m0-1c-5.316 0-9.794 1.211-10.471 1.549l-2.714 1.357 2.714 5.429s2.028-.771 4.071-1.358c0 0 2.886-1.008 7.123-1.008 3.339 0 7.516.626 11.783 2.863.06-.609.094-1.227.094-1.854 0-1.385-.156-2.727-.437-4.028-3.685-2.263-8.162-2.95-12.163-2.95z" fill="#f5c276"></path></g><g><path d="M17.1 26.091c-.917-.717-8.678-7.157-8.768-20.442a18.337 18.337 0 015.775-3.18c.339 11.255 4.419 16.6 5.353 17.679-.596 2.869-1.33 4.147-2.106 5.5-.085.146-.169.293-.254.443z" fill="#8bb7f0"></path><path d="M13.633 3.169c.461 10.377 4.103 15.658 5.288 17.113-.559 2.576-1.239 3.79-1.958 5.042-1.895-1.654-7.967-7.85-8.129-19.435a17.758 17.758 0 014.799-2.72m.958-1.377A18.959 18.959 0 007.83 5.414c0 13.699 8.141 20.486 9.109 21.178 0 0 .136.078.346.193.979-1.81 1.967-3.02 2.714-6.786.001.001-5.196-5.334-5.408-18.207z" fill="#4e7ab5"></path></g></svg>