<svg viewBox="0 0 40 40" xmlns="http://www.w3.org/2000/svg"><path fill="#8bb7f0" d="M28.5 4.867V2.5h9.54l-5.997 8.567z"></path><path d="M37.079 3l-4.994 7.134L29 4.734V3h8.079M39 2H28v3l4 7 7-10z" fill="#4e7ab5"></path><path d="M4.015 27.5a2.477 2.477 0 01-1.814-.78 2.477 2.477 0 01-.683-1.852l1.053-20A2.5 2.5 0 015.067 2.5H9.5v3H5.522l-1 22h-.507z" fill="#8bb7f0"></path><path d="M9 3v2H5.044l-.043.955L4.044 27h-.03a1.983 1.983 0 01-1.451-.623 1.984 1.984 0 01-.546-1.482l1.053-20A2 2 0 015.067 3H9m1-1H5.067a3 3 0 00-2.996 2.842l-1.053 20A3 3 0 004.014 28H5L6 6h4V2z" fill="#4e7ab5"></path><path fill="#dbf2ff" d="M10.46 37.5l-2.917-35h25.914l-2.917 35z"></path><path d="M32.913 3L30.08 37H10.92L8.087 3h24.826M34 2H7l3 36h21l3-36z" fill="#7496c4"></path><path fill="#7496c4" d="M15 8h-1v24h1V8z"></path><path fill="#dbf2ff" d="M14 8h8v1h-8z"></path><path fill="#7496c4" d="M22 8h-8v1h8V8z"></path><g><path fill="#dbf2ff" d="M14 14h5v1h-5z"></path><path fill="#7496c4" d="M19 14h-5v1h5v-1z"></path></g><g><path fill="#dbf2ff" d="M14 20h8v1h-8z"></path><path fill="#7496c4" d="M22 20h-8v1h8v-1z"></path></g><g><path fill="#dbf2ff" d="M14 26h5v1h-5z"></path><path fill="#7496c4" d="M19 26h-5v1h5v-1z"></path></g><g><path fill="#dbf2ff" d="M14 32h8v1h-8z"></path><path fill="#7496c4" d="M22 32h-8v1h8v-1z"></path></g></svg>