<svg viewBox="0 0 40 40" xmlns="http://www.w3.org/2000/svg"><path d="M29.5 27.5c-2.003 0-3.571-1.506-3.571-3.429A3.576 3.576 0 0129.5 20.5c1.689 0 3.803-1.468 4.969-2.396-.237 4.222-1.803 9.396-4.969 9.396z" fill="#deb974"></path><path d="M33.876 19.179C33.468 22.884 32.049 27 29.5 27c-1.751 0-3.071-1.259-3.071-2.929A3.074 3.074 0 0129.5 21c1.456 0 3.132-.944 4.376-1.821M35 17s-3.251 3-5.5 3-4.071 1.823-4.071 4.071S27.251 28 29.5 28c3.902 0 5.5-6.42 5.5-11z" fill="#967a44"></path><path d="M10.5 27.5c-3.166 0-4.732-5.174-4.969-9.396 1.166.928 3.28 2.396 4.969 2.396a3.575 3.575 0 013.571 3.571c0 1.923-1.568 3.429-3.571 3.429z" fill="#deb974"></path><path d="M6.124 19.179C7.368 20.056 9.044 21 10.5 21a3.074 3.074 0 013.071 3.071c0 1.67-1.32 2.929-3.071 2.929-2.549 0-3.968-4.116-4.376-7.821M5 17c0 4.58 1.598 11 5.5 11 2.249 0 4.071-1.68 4.071-3.929S12.749 20 10.5 20 5 17 5 17z" fill="#967a44"></path><path d="M20 38.361a4.438 4.438 0 01-3.315-1.483l-.084-.093-.118-.042A10.515 10.515 0 019.5 26.861V12.242A4.747 4.747 0 0114.242 7.5h11.516a4.747 4.747 0 014.742 4.742v14.619c0 4.424-2.806 8.395-6.982 9.882l-.118.042-.084.093c-.87.956-2.047 1.483-3.316 1.483z" fill="#ffeea3"></path><path d="M25.758 8A4.247 4.247 0 0130 12.242v14.619c0 4.213-2.672 7.995-6.65 9.412l-.236.084-.168.185c-.775.851-1.821 1.32-2.946 1.32s-2.172-.469-2.946-1.32l-.168-.185-.236-.084A10.016 10.016 0 0110 26.861V12.242A4.247 4.247 0 0114.242 8h11.516m0-1H14.242A5.242 5.242 0 009 12.242v14.619c0 4.78 3.055 8.837 7.314 10.354.915 1.005 2.22 1.647 3.686 1.647s2.771-.642 3.686-1.647C27.945 35.698 31 31.641 31 26.861V12.242A5.242 5.242 0 0025.758 7z" fill="#ba9b48"></path><circle cx="25.5" cy="24.5" r="1.5" fill="#36404d"></circle><circle cx="14.5" cy="24.5" r="1.5" fill="#36404d"></circle><g><path d="M17.5 21.472c-2.648-.231-4.243-1.724-5.12-2.955 1.053.448 2.673.868 5.12.968v1.987z" fill="#a6714e"></path><path d="M14.014 19.547c.822.191 1.807.34 2.986.412v.945a6.226 6.226 0 01-2.986-1.357M11 17s1.656 4.873 7 5v-3c-5.711-.127-7-2-7-2z" fill="#7a4f34"></path></g><g><path d="M22.5 19.484c2.447-.1 4.067-.52 5.12-.968-.877 1.231-2.472 2.724-5.12 2.955v-1.987z" fill="#a6714e"></path><path d="M25.986 19.547A6.236 6.236 0 0123 20.904v-.945a18.074 18.074 0 002.986-.412M29 17s-1.289 1.873-7 2v3c5.344-.127 7-5 7-5z" fill="#7a4f34"></path></g><g><path d="M30.5 23.5V15c0-1.449-1.052-2.5-2.5-2.5-.488 0-1.148.254-2.063.607C24.41 13.695 22.319 14.5 20 14.5s-4.41-.805-5.937-1.393c-.915-.353-1.575-.607-2.063-.607-1.448 0-2.5 1.051-2.5 2.5v8.5h-.05C8.855 22.298 6.5 17.267 6.5 13 6.5 7.461 10.725 1.5 20 1.5S33.5 7.461 33.5 13c0 4.271-2.355 9.299-2.95 10.5h-.05z" fill="#b08159"></path><path d="M20 2c8.932 0 13 5.702 13 11 0 2.894-1.122 6.169-2 8.288V15c0-1.71-1.29-3-3-3-.581 0-1.278.269-2.243.64C24.267 13.214 22.226 14 20 14s-4.267-.786-5.757-1.36C13.278 12.269 12.581 12 12 12c-1.71 0-3 1.29-3 3v6.288C8.122 19.169 7 15.894 7 13 7 7.702 11.068 2 20 2m0-1C10.415 1 6 7.257 6 13c0 5.043 3.143 11 3.143 11H10v-9c0-1.206.883-2 2-2s4.268 2 8 2 6.883-2 8-2 2 .794 2 2v9h.857S34 18.043 34 13c0-5.743-4.415-12-14-12z" fill="#a16a4a"></path></g></svg>