<svg viewBox="0 0 40 40" xmlns="http://www.w3.org/2000/svg"><rect x="1.5" y="1.5" width="37" height="25" rx="2.5" ry="2.5" fill="#e1ebf2"/><path d="M36 2a2 2 0 012 2v20a2 2 0 01-2 2H4a2 2 0 01-2-2V4a2 2 0 012-2h32m0-1H4a3 3 0 00-3 3v20a3 3 0 003 3h32a3 3 0 003-3V4a3 3 0 00-3-3z" fill="#a3b7cc"></path><path fill="#788b9c" d="M9.5 5.5l24.93.11v16.82L9.5 22.5v-17z"></path><path d="M10 6l23.93.1v15.83L10 22V6M9 5v18l25.93-.07V5.11L9 5z" fill="#66798f"></path><path fill="#a3b7cc" d="M1 5h8v18H1z"></path><path fill="#fff" d="M3 7h3v3H3zM3 18h3v3H3z"></path><circle cx="5" cy="14" r="2" fill="#fff"></circle><path d="M36.5 35H35v-3h1.5a1.5 1.5 0 011.5 1.5 1.5 1.5 0 01-1.5 1.5zM11.75 34.5h-2.5a1 1 0 110-2h2.5a1 1 0 110 2z" fill="#36404d"></path><path fill="#8bb7f0" d="M11.5 34.64v-2.28l5.55-1.85 17.45 1.94v2.1l-17.45 1.94-5.55-1.85z"></path><path d="M17.11 31L34 32.9v1.2L17.11 36 12 34.28v-1.56L17.11 31M17 30l-6 2v3l6 2 18-2v-3l-18-2z" fill="#4e7ab5"></path><rect x="15" y="32.5" width="5" height="2" rx="1" ry="1" fill="#36404d"/><path fill="#fff" d="M11 7v3h1V8h2V7h-3zM12 20v-2h-1v3h3v-1h-2zM30 7v1h2v2h1V7h-3zM32 18v2h-2v1h3v-3h-1z"></path></svg>