<svg viewBox="0 0 40 40" xmlns="http://www.w3.org/2000/svg"><circle cx="8.5" cy="6.5" r="5" fill="#f5ce85"></circle><path d="M8.5 2C10.981 2 13 4.019 13 6.5S10.981 11 8.5 11 4 8.981 4 6.5 6.019 2 8.5 2m0-1a5.5 5.5 0 10.001 11.001A5.5 5.5 0 008.5 1z" fill="#967a44"></path><path d="M25.568 19.487l1.756-1.987h8.716c-.303 1.191-1.757 1.537-3.852 1.898-1.009.174-1.962.339-2.637.707l-.096.053-1.211 1.632-2.676-2.303z" fill="#f5ce85"></path><path d="M35.121 18c-.524.406-1.498.643-3.018.905-1.051.182-2.045.353-2.792.761l-.193.105-.131.176-.826 1.112-1.884-1.622L27.549 18h7.572m1.477-1h-9.5l-2.24 2.535 3.467 2.984 1.466-1.975c1.877-1.026 6.807-.389 6.807-3.544z" fill="#967a44"></path><path d="M1.5 38.5V14.36l2.581-.86H12c2.437.257 4.704.858 5.067 1.222l5.793 7.822 2.822-3.193 3.648 2.548-4.685 6.434a2.733 2.733 0 01-2.232 1.134 2.742 2.742 0 01-1.916-.776L16.5 24.82V38.5h-15z" fill="#b6c9d6"></path><path d="M11.947 14c2.34.249 4.33.787 4.738 1.055l5.406 7.291.735.992.817-.925 2.118-2.396 2.865 2-4.385 6.021c-.43.59-1.096.929-1.828.929a2.242 2.242 0 01-1.568-.636l-3.151-3.05L16 23.64V38H2V14.72L4.162 14h7.785M12 13H4l-3 .999V39h16V26l3.151 3.05a3.239 3.239 0 002.263.917c1 0 1.992-.456 2.636-1.34l4.985-6.846-4.433-3.095-2.708 3.064-5.474-7.382c-.582-.582-3.381-1.155-5.42-1.368z" fill="#788b9c"></path><path fill="#b6c9d6" d="M1 37h15v2H1zM12 13H4l-1 .333V15h10v-1.873A26.88 26.88 0 0012 13z"></path><path fill="#b6c9d6" d="M1 39h2V14.386l-2 .662z"></path><circle cx="12" cy="28" r="1" fill="#788b9c"></circle><circle cx="4" cy="28" r="1" fill="#788b9c"></circle><circle cx="12" cy="32" r="1" fill="#788b9c"></circle><circle cx="4" cy="32" r="1" fill="#788b9c"></circle><circle cx="12" cy="36" r="1" fill="#788b9c"></circle><circle cx="4" cy="36" r="1" fill="#788b9c"></circle><path fill="#fff" d="M8 26L4 15h8z"></path><path fill="#36404d" d="M12 17v-4l-8 4v-4z"></path><g><circle cx="30.5" cy="7.5" r="1" fill="#dcd5f2"></circle><path d="M30.5 7a.5.5 0 110 1 .5.5 0 010-1m0-1a1.5 1.5 0 100 3 1.5 1.5 0 000-3z" fill="#8b75a1"></path></g><g><path d="M22.5 17.5v-1c0-4.411 3.589-8 8-8s8 3.589 8 8v1h-16z" fill="#dcd5f2"></path><path d="M30.5 9c4.135 0 7.5 3.364 7.5 7.5v.5H23v-.5c0-4.136 3.364-7.5 7.5-7.5m0-1a8.5 8.5 0 00-8.5 8.5V18h17v-1.5A8.5 8.5 0 0030.5 8z" fill="#8b75a1"></path></g><path fill="#dcd5f2" stroke="#8b75a1" stroke-linecap="round" stroke-miterlimit="10" d="M39 15.5H22"></path></svg>