<svg viewBox="0 0 40 40" xmlns="http://www.w3.org/2000/svg"><path d="M9.999 38.5a1.503 1.503 0 01-1.151-2.461l4.854-5.825 1.787-8.107c.224-.607.53-1.217.714-1.565l3.996.552-3.789 10.419a1.517 1.517 0 01-.257.448l-5 6a1.501 1.501 0 01-1.154.539z" fill="#b0c1d4"></path><path d="M16.486 21.086l3.03.418-3.578 9.838a.97.97 0 01-.171.297l-5 6a.99.99 0 01-.768.361 1.001 1.001 0 01-.767-1.64l4.776-5.731.156-.187.052-.238 1.746-7.922c.164-.442.362-.869.524-1.196M15.928 20s-.551.962-.928 2l-1.76 7.988-4.777 5.732a2 2 0 003.074 2.56l5-6c.148-.178.264-.379.343-.597l4-11L15.928 20z" fill="#93a8bc"></path><path d="M11.001 23.5a1.489 1.489 0 01-1.312-.772 1.487 1.487 0 01-.131-1.14l2-7c.108-.379.355-.695.697-.89l7-4a1.498 1.498 0 012.048.558c.199.348.25.752.145 1.139a1.488 1.488 0 01-.703.908L14.274 16l-1.833 6.413a1.503 1.503 0 01-1.44 1.087z" fill="#ffeea3"></path><path d="M19.999 10a1.004 1.004 0 01.967 1.263.993.993 0 01-.469.605l-6.293 3.596-.354.202-.112.391-1.776 6.217a1.005 1.005 0 01-1.237.687.987.987 0 01-.599-.476.988.988 0 01-.087-.76l2-7.001a.993.993 0 01.465-.593l7-4a.99.99 0 01.495-.131m-.001-1c-.336 0-.677.085-.991.264l-7 4a1.996 1.996 0 00-.931 1.187l-2 7a2 2 0 103.847 1.098l1.776-6.217 6.293-3.596A2 2 0 0019.998 9z" fill="#ba9b48"></path><path d="M29.998 22.5a1.5 1.5 0 01-.77-.214l-5-3a1.497 1.497 0 01-.607-.695l-3-7a1.489 1.489 0 01-.014-1.148 1.49 1.49 0 01.802-.822 1.5 1.5 0 011.97.788l2.809 6.554 4.584 2.75c.344.206.586.534.684.922s.037.792-.169 1.135a1.49 1.49 0 01-1.289.73z" fill="#ffeea3"></path><path d="M21.999 9.999a1 1 0 01.92.607l2.745 6.405.127.297.277.166 4.445 2.667a.994.994 0 01.456.615.99.99 0 01-.113.757.988.988 0 01-.858.487.992.992 0 01-.512-.143l-5-3a1.002 1.002 0 01-.405-.463l-3-7a.995.995 0 01-.009-.765.995.995 0 01.535-.548.984.984 0 01.392-.082m0-1a2 2 0 00-1.838 2.788l3 7c.166.387.449.711.81.927l5 3a2 2 0 002.744-.686 2 2 0 00-.686-2.744l-4.445-2.667-2.745-6.405a2.002 2.002 0 00-1.84-1.213z" fill="#ba9b48"></path><path d="M20.621 11.591a1.489 1.489 0 01-.014-1.148 1.49 1.49 0 01.802-.822 1.5 1.5 0 011.97.788l2.577 6.014-2.566 1.627-2.769-6.459z" fill="#4e7ab5"></path><path d="M21.999 9.999a1 1 0 01.92.607l2.41 5.623-1.711 1.085-2.537-5.92a.99.99 0 01-.009-.765.995.995 0 01.535-.548.984.984 0 01.392-.082m0-1a2 2 0 00-1.838 2.788l3 7 3.422-2.17-2.745-6.405a2 2 0 00-1.839-1.213z" fill="#4e7ab5"></path><g><circle cx="23.5" cy="4.5" r="3" fill="#ffeea3"></circle><path d="M23.5 2C24.878 2 26 3.122 26 4.5S24.878 7 23.5 7 21 5.878 21 4.5 22.122 2 23.5 2m0-1a3.5 3.5 0 100 7 3.5 3.5 0 000-7z" fill="#ba9b48"></path></g><g><path d="M18.329 24.42a2.84 2.84 0 01-2.327-1.217 2.813 2.813 0 01-.457-2.113l2.278-7.119-1.865 1.066-1.668-2.501 4.965-2.837c.219-.125.468-.188.74-.189h.309l.005-.01h1.631c1.396 0 1.557.697 1.56 3.436l-2.388 9.125c-.252 1.382-1.419 2.359-2.783 2.359z" fill="#8bb7f0"></path><path d="M21.94 10c.844 0 1.053.107 1.06 2.872l-2.371 9.063-.01.037-.007.038a2.322 2.322 0 01-2.703 1.873 2.314 2.314 0 01-1.496-.964 2.305 2.305 0 01-.385-1.68l1.882-5.891.782-2.447-2.23 1.275-.345.197-1.112-1.668 4.5-2.571a.978.978 0 01.493-.123l.568-.011h1.374m0-1H20l-.004.009c-.336 0-.675.076-.988.255l-5.43 3.103 2.224 3.336 1.156-.66L15.054 21a3.323 3.323 0 003.275 3.919 3.325 3.325 0 003.267-2.732L24 13c0-2.435-.011-4-2.06-4z" fill="#4e7ab5"></path></g><g><path d="M26.001 38.5a1.5 1.5 0 01-1.38-.91l-2.963-6.914-5.219-6.926-.061-.114-.047-.047a2.828 2.828 0 01-.785-2.5l.135-.416c2.389 1.022 4.857 2.128 5.337 2.425l3.236 6.076c.059.096.094.165.125.235l3 6.999c.158.369.163.776.014 1.148a1.49 1.49 0 01-.802.822 1.488 1.488 0 01-.59.122z" fill="#e1ebf2"></path><path d="M16.013 21.36c2.03.875 4.029 1.771 4.633 2.101l3.168 5.949.017.032.019.031c.027.043.05.088.07.134l3 7a.99.99 0 01.009.765 1 1 0 01-1.848.021l-2.939-6.858-.048-.111-.073-.097-5.149-6.832-.021-.037-.068-.122-.099-.099a2.326 2.326 0 01-.671-1.877m-.639-1.361L15.054 21a3.317 3.317 0 00.922 2.943c.01.017.014.04.024.057l5.222 6.929 2.939 6.858a2.002 2.002 0 002.627 1.051 2 2 0 001.051-2.626l-3-7a1.956 1.956 0 00-.143-.272l-3.273-6.146c.075-.193-6.049-2.795-6.049-2.795z" fill="#93a8bc"></path></g></svg>