<svg viewBox="0 0 40 40" xmlns="http://www.w3.org/2000/svg"><path fill="#dbf2ff" d="M2.5 2.5h35v35h-35z"></path><path d="M37 3v34H3V3h34m1-1H2v36h36V2z" fill="#7496c4"></path><path d="M20 31.5c-6.341 0-11.5-5.159-11.5-11.5S13.659 8.5 20 8.5 31.5 13.659 31.5 20 26.341 31.5 20 31.5z" fill="#b5ddf5"></path><path d="M20 9c6.065 0 11 4.935 11 11s-4.935 11-11 11S9 26.065 9 20 13.935 9 20 9m0-1C13.373 8 8 13.373 8 20s5.373 12 12 12 12-5.373 12-12S26.627 8 20 8z" fill="#7496c4"></path><circle cx="25" cy="20" r="1.5" fill="#7496c4"></circle><circle cx="15" cy="20" r="1.5" fill="#7496c4"></circle></svg>