<svg viewBox="0 0 40 40" xmlns="http://www.w3.org/2000/svg"><path fill="#dbf2ff" d="M2.5 2.5h35v35h-35z"></path><path d="M37 3v34H3V3h34m1-1H2v36h36V2z" fill="#7496c4"></path><path d="M20 31.5c-6.341 0-11.5-5.159-11.5-11.5S13.659 8.5 20 8.5 31.5 13.659 31.5 20 26.341 31.5 20 31.5z" fill="#6d9ddb"></path><path d="M20 9c6.065 0 11 4.935 11 11s-4.935 11-11 11S9 26.065 9 20 13.935 9 20 9m0-1C13.373 8 8 13.373 8 20s5.373 12 12 12 12-5.373 12-12S26.627 8 20 8z" fill="#4e7ab5"></path><g><path d="M17.5 37.5V27.076l-.313-.127A7.469 7.469 0 0112.5 20c0-4.136 3.364-7.5 7.5-7.5s7.5 3.364 7.5 7.5a7.468 7.468 0 01-4.688 6.949l-.312.127V37.5h-5z" fill="#8bb7f0"></path><path d="M20 13c3.86 0 7 3.14 7 7a6.972 6.972 0 01-4.375 6.486l-.625.253V37h-4V26.739l-.625-.253A6.972 6.972 0 0113 20c0-3.86 3.14-7 7-7m0-1a8 8 0 00-8 8 7.997 7.997 0 005 7.413V38h6V27.413A7.998 7.998 0 0020 12z" fill="#4e7ab5"></path></g><g><path fill="#8bb7f0" d="M18 30h4v8h-4z"></path></g></svg>