<svg viewBox="0 0 40 40" xmlns="http://www.w3.org/2000/svg"><path fill="#ffc49c" d="M2.5 38.5V10.263l16.997-6.725L36.5 10.263V38.5z"></path><path d="M19.497 4.075L36 10.603V38H3V10.603l16.497-6.528m0-1.075L2 9.923V39h35V9.923L19.497 3z" fill="#a16a4a"></path><path fill="none" stroke="#a16a4a" stroke-linecap="round" stroke-linejoin="round" stroke-miterlimit="10" d="M19.5 38.5v-33M36 22.5H3M13 26.5H9M30 26.5h-4M13 10.5H9M30 10.5h-4"></path><g><path d="M19.695 5.541a.505.505 0 00-.396 0L1.5 13.239v-3.91l17.997-7.784L37.5 9.329v3.911L19.695 5.541z" fill="#f78f8f"></path><path d="M19.497 2.089L37 9.657v2.821L19.894 5.082a.998.998 0 00-.794 0L2 12.478V9.657l17.497-7.568m0-1.089L1 9v5l18.497-8L38 14V9L19.497 1z" fill="#c74343"></path></g></svg>