<svg viewBox="0 0 40 40" xmlns="http://www.w3.org/2000/svg"><path d="M20 38.459c-1.705-.742-15.364-7.472-15.499-32.092L20 1.523l15.499 4.844C35.364 30.963 21.707 37.713 20 38.459z" fill="#ffeea3"></path><path d="M20 2.048l14.996 4.686c-.258 23.19-12.752 30.119-15 31.177C17.735 36.869 5.26 30.057 5.004 6.734L20 2.048M20 1L4 6c0 27.141 16 33 16 33s16-5.932 16-33L20 1z" fill="#ba9b48"></path><path fill="#f5ce85" d="M19.5 9.5h1v15h-1z"></path><path d="M20 10v14-14m1-1h-2v16h2V9z" fill="#967a44"></path><g><path fill="#f5ce85" d="M19.5 27.5h1v1h-1z"></path><path fill="#967a44" d="M21 27h-2v2h2v-2z"></path></g></svg>