<svg viewBox="0 0 40 40" xmlns="http://www.w3.org/2000/svg"><path fill="#c2e8ff" d="M12.5 25.5H9.207L17 17.707 20.293 21 12.5 28.793z"></path><path d="M17 18.414L19.586 21 13 27.586V25H10.414L17 18.414M17 17l-9 9h4v4l9-9-4-4z" fill="#7496c4"></path><path fill="#c2e8ff" d="M19.707 21L23 17.707l7.793 7.793H27.5v3.293z"></path><path d="M23 18.414L29.586 25H27V27.586L20.414 21 23 18.414M23 17l-4 4 9 9v-4h4l-9-9z" fill="#7496c4"></path><path d="M38 8v24H2V8h36m1-1H1v26h38V7z" fill="#788b9c"></path><g><path d="M19.986 25.5c-.794 0-1.531-.39-1.975-1.042a1.162 1.162 0 00-.964-.514l-.186.01a2.379 2.379 0 01-2.168-.658 2.344 2.344 0 01-.641-2.126c.093-.459-.1-.926-.492-1.188a2.354 2.354 0 01-.002-3.937c.396-.258.59-.727.492-1.192-.123-.612 0-1.24.35-1.764a2.378 2.378 0 012.459-1.015l.05.01h.177c.399-.029.733-.227.93-.533A2.38 2.38 0 0120 10.5a2.38 2.38 0 011.983 1.059c.215.324.577.518.967.518l.185-.01a2.379 2.379 0 012.168.658 2.345 2.345 0 01.641 2.126c-.094.46.1.927.492 1.188a2.355 2.355 0 01.002 3.935c-.396.259-.59.728-.492 1.193.123.612 0 1.24-.35 1.765a2.376 2.376 0 01-2.459 1.014l-.227-.01c-.389 0-.747.188-.963.503a2.394 2.394 0 01-1.952 1.062h-.009z" fill="#ffc49c"></path><path d="M20.003 11a1.892 1.892 0 011.568.835c.308.463.825.74 1.383.74h.185l.098-.02a1.886 1.886 0 011.715.52 1.846 1.846 0 01.505 1.676c-.133.66.144 1.328.707 1.703a1.854 1.854 0 01.005 3.098 1.633 1.633 0 00-.712 1.708c.098.485 0 .98-.275 1.393a1.879 1.879 0 01-1.945.802l-.098-.02h-.232c-.548 0-1.06.269-1.377.73a1.89 1.89 0 01-1.543.835 1.88 1.88 0 01-1.557-.816 1.657 1.657 0 00-1.383-.74h-.185l-.098.02a1.886 1.886 0 01-1.715-.52 1.846 1.846 0 01-.505-1.676 1.648 1.648 0 00-.707-1.703 1.854 1.854 0 01-.005-3.098 1.633 1.633 0 00.712-1.708c-.098-.485 0-.98.275-1.393a1.879 1.879 0 011.945-.802l.098.02h.264l.037-.003a1.663 1.663 0 001.266-.745c.35-.523.938-.836 1.574-.836m0-1c-.934 0-1.851.45-2.405 1.281a.663.663 0 01-.508.303h-.127a2.94 2.94 0 00-.585-.059c-.184.001-.367.02-.548.056a2.87 2.87 0 00-2.266 3.376.644.644 0 01-.28.673 2.854 2.854 0 000 4.769.654.654 0 01.28.673 2.837 2.837 0 00-.056.544c-.011 1.584 1.274 2.877 2.87 2.888.196 0 .392-.02.585-.059h.085c.222 0 .429.111.551.294A2.884 2.884 0 0019.987 26h.017a2.888 2.888 0 002.356-1.278.663.663 0 01.546-.286h.132c.192.039.388.059.585.059.184-.001.367-.02.548-.056a2.87 2.87 0 002.266-3.376.644.644 0 01.28-.673 2.854 2.854 0 000-4.769.654.654 0 01-.28-.673c.036-.179.055-.361.056-.544.011-1.584-1.274-2.877-2.87-2.888-.196 0-.392.02-.585.059h-.085a.663.663 0 01-.551-.294A2.884 2.884 0 0020.003 10z" fill="#a16a4a"></path></g><g><circle cx="20" cy="18" r="4.5" fill="#ffc49c"></circle><path d="M20 14c2.206 0 4 1.794 4 4s-1.794 4-4 4-4-1.794-4-4 1.794-4 4-4m0-1a5 5 0 10.001 10.001A5 5 0 0020 13z" fill="#a16a4a"></path></g></svg>