<svg viewBox="0 0 40 40" xmlns="http://www.w3.org/2000/svg"><path d="M5.5 37.5V4c0-1.379 1.122-2.5 2.5-2.5h24c1.378 0 2.5 1.121 2.5 2.5v33.5h-29z" fill="#dbf2ff"></path><path d="M32 2c1.103 0 2 .897 2 2v33H6V4c0-1.103.897-2 2-2h24m0-1H8a3 3 0 00-3 3v34h30V4a3 3 0 00-3-3z" fill="#7496c4"></path><path d="M20 32.5c-5.238 0-9.5-4.262-9.5-9.5s4.262-9.5 9.5-9.5 9.5 4.262 9.5 9.5-4.262 9.5-9.5 9.5z" fill="#fff"></path><path d="M20 14c4.963 0 9 4.037 9 9s-4.037 9-9 9-9-4.037-9-9 4.037-9 9-9m0-1c-5.523 0-10 4.477-10 10s4.477 10 10 10 10-4.477 10-10-4.477-10-10-10z" fill="#788b9c"></path><path d="M20 32.5c-5.238 0-9.5-4.262-9.5-9.5 0-.172.006-.348.019-.532a7.326 7.326 0 003.767 1.032c1.374 0 3.169-.698 5.07-1.438 1.795-.698 3.65-1.42 4.93-1.42 2.128 0 4.413.94 5.142 1.267.049.401.072.753.072 1.091 0 5.238-4.262 9.5-9.5 9.5z" fill="#8bb7f0"></path><path d="M24.286 21.143c1.825 0 3.79.734 4.676 1.109.026.267.038.512.038.748 0 4.963-4.037 9-9 9-4.867 0-8.844-3.884-8.996-8.715a7.864 7.864 0 003.282.715c1.468 0 3.305-.715 5.251-1.471 1.752-.682 3.563-1.386 4.749-1.386m0-1c-2.715 0-7.41 2.857-10 2.857s-4.172-1.429-4.172-1.429A9.91 9.91 0 0010 23c0 5.523 4.477 10 10 10s10-4.477 10-10a9.91 9.91 0 00-.114-1.429s-2.886-1.428-5.6-1.428z" fill="#4e7ab5"></path><path fill="#dbf2ff" stroke="#7496c4" stroke-miterlimit="10" d="M5.75 8.5h28.5"></path><circle cx="9" cy="5" r="1" fill="#4e7ab5"></circle><circle cx="13" cy="5" r="1" fill="#4e7ab5"></circle><g><circle cx="31" cy="5" r="1" fill="#c74343"></circle></g><path fill="#7496c4" d="M30 37h5v2h-5zM5 37h5v2H5z"></path></svg>