<svg viewBox="0 0 40 40" xmlns="http://www.w3.org/2000/svg"><path d="M35.5 23.5v-7H38a.5.5 0 01.5.5v6a.5.5 0 01-.5.5h-2.5z" fill="#ffeea3"></path><path d="M38 17v6h-2v-6h2m0-1h-3v8h3a1 1 0 001-1v-6a1 1 0 00-1-1z" fill="#ba9b48"></path><path fill="#8bb7f0" d="M10.5 1.5h19v37h-19z"></path><path d="M29 2v36H11V2h18m1-1H10v38h20V1z" fill="#4e7ab5"></path><path fill="#8bb7f0" d="M11 1h18v38H11z"></path><path d="M20 35.5c-8.547 0-15.5-6.953-15.5-15.5S11.453 4.5 20 4.5 35.5 11.453 35.5 20 28.547 35.5 20 35.5z" fill="#ffeea3"></path><path d="M20 5c8.271 0 15 6.729 15 15s-6.729 15-15 15S5 28.271 5 20 11.729 5 20 5m0-1C11.163 4 4 11.163 4 20s7.163 16 16 16 16-7.163 16-16S28.837 4 20 4z" fill="#ba9b48"></path><g><path d="M20 33.5c-7.444 0-13.5-6.056-13.5-13.5S12.556 6.5 20 6.5 33.5 12.556 33.5 20 27.444 33.5 20 33.5z" fill="#fff"></path><path d="M20 7c7.168 0 13 5.832 13 13s-5.832 13-13 13S7 27.168 7 20 12.832 7 20 7m0-1C12.268 6 6 12.268 6 20s6.268 14 14 14 14-6.268 14-14S27.732 6 20 6z" fill="#ba9b48"></path></g><path fill="none" stroke="#66798f" stroke-linecap="round" stroke-miterlimit="10" d="M25.412 12.004L20 20l4.523 4.523"></path><g><circle cx="20" cy="20" r="1.5" fill="#66798f"></circle></g></svg>