<svg viewBox="0 0 40 40" xmlns="http://www.w3.org/2000/svg"><path fill="#cbc4e3" d="M33.5 15.5h2v18h-2z"></path><path d="M35 16v17h-1V16h1m1-1h-3v19h3V15z" fill="#8b75a1"></path><path fill="#cbc4e3" d="M4.5 15.5h2v18h-2z"></path><path d="M6 16v17H5V16h1m1-1H4v19h3V15z" fill="#8b75a1"></path><path d="M39 39H1v-7.123C2.308 31.614 3.852 31 5 31c1.458 0 3.563 1 5 1 1.438 0 3.542-1 5-1s3.563 1 5 1c1.438 0 3.542-1 5-1s3.563 1 5 1c1.438 0 3.542-1 5-1 1.148 0 2.692.614 4 .877V39z" fill="#8bb7f0"></path><path d="M35 31c-1.458 0-3.563 1-5 1-1.438 0-3.542-1-5-1s-3.563 1-5 1c-1.438 0-3.542-1-5-1s-3.563 1-5 1c-1.438 0-3.542-1-5-1-1.148 0-2.692.614-4 .877V32.9c.574-.103 1.17-.271 1.754-.435C3.566 32.237 4.406 32 5 32s1.434.237 2.246.465c.934.263 1.9.535 2.754.535s1.82-.272 2.754-.535C13.566 32.237 14.406 32 15 32s1.434.237 2.246.465c.934.263 1.9.535 2.754.535s1.82-.272 2.754-.535C23.566 32.237 24.406 32 25 32s1.434.237 2.246.465c.934.263 1.9.535 2.754.535s1.82-.272 2.754-.535C33.566 32.237 34.406 32 35 32s1.434.237 2.246.465c.584.165 1.18.332 1.754.435v-1.023c-1.308-.263-2.852-.877-4-.877z" fill="#4e7ab5"></path><path d="M22 20.5c-12.004 0-20.151-3.658-20.489-9.143l2.125-.708C4.688 13.239 11.842 16.5 24 16.5c10.838 0 12.317-5.719 12.514-7.471.237-2.134-.504-4.263-1.862-5.88C36.75 4.67 38.5 7.124 38.5 10c0 1.753-.796 10.5-16.5 10.5z" fill="#f78f8f"></path><path d="M36.714 5.933C37.492 7.083 38 8.452 38 10c0 1.67-.771 10-16 10-11.433 0-19.28-3.303-19.953-8.295l1.322-.441C5.079 14.216 12.646 17 24 17c11.253 0 12.803-6.059 13.01-7.916a7.922 7.922 0 00-.296-3.151M30.295 1C37.727 2.679 40.167 16 24 16c-12.947 0-20-3.709-20-6l-3 1c0 5.784 7.862 10 21 10 14.664 0 17-7.66 17-11 0-5.333-5.375-9-8.705-9z" fill="#c74343"></path><path d="M29.23 19.762c.409-1.244.645-2.549.645-3.915 0 0-4.193.703-7 .696-2.507-.006-6.22 4.239-1.601 4.239 3.233 0 5.845-.385 7.956-1.02z" fill="#c74343"></path><path d="M10 33.5c-3.92 0-8.276-3.318-8.491-8.127C13.667 21.806 21.5 16.183 21.5 11c0-2.93-4.906-5.5-10.5-5.5-4.862 0-7.227 2.077-7.478 4.132l-1.977.659C1.999 6.847 5.759 4.5 11 4.5c6.5 0 17.5 2.422 17.5 11.5 0 7.619-8.953 13.175-13.764 16.16-.082.062-1.586 1.34-4.736 1.34z" fill="#f78f8f"></path><path d="M11 5c6.314 0 17 2.317 17 11 0 7.341-8.8 12.801-13.527 15.735a1.19 1.19 0 00-.129.095C14.287 31.878 12.932 33 10 33c-3.571 0-7.541-3.059-7.963-7.262C14.192 22.099 22 16.353 22 11c0-3.252-5.037-6-11-6m-.006 0c-3.562.002-7.372 1.34-7.925 4.256l-.843.281C3.105 6.806 6.465 5.002 10.994 5M11 4C4.663 4 1 7.179 1 11l3-1c0-1.854 2.062-4 7-4 5.34 0 10 2.379 10 5 0 4.802-7.531 10.41-20 14 0 5.104 4.579 9 9 9 3.411 0 5-1.416 5-1.416C20.011 29.475 29 23.847 29 16 29 7.032 18.826 4 11 4z" fill="#c74343"></path><g><path d="M3.09 9.351s-.216 1.28.262 2.033c.266.419-1.223.708-1.288.261-.19-1.304.112-2.079.112-2.079.657-2.349 3.117-3.995 6.658-4.467-3.368.539-5.317 2.326-5.744 4.252z" fill="#f78f8f"></path></g><path d="M12.5 28.5s-1.132 4.584-4.272 4.261c-3.006-.796-5.838-3.51-6.191-7.024C14.192 22.099 22 16.353 22 11c0-3.252-5.037-6-11-6 3.882 0 9.415.876 13.103 3.567.991 1.776 1.303 2.087 1.303 5.433 0 7.341-12.906 14.5-12.906 14.5z" fill="#fcc"></path><path d="M12.5 28.5c5.875-2.062 13-8.812 13-14.5 0-4.528-1.886-6.873-6.149-8.287" fill="none" stroke="#c74343" stroke-linecap="round" stroke-linejoin="round" stroke-miterlimit="10"></path></svg>