<svg viewBox="0 0 40 40" xmlns="http://www.w3.org/2000/svg"><path d="M36.173 8.644c-1.546 0-2.062-1.057-2.519-1.988l-.106-.217c-.715-1.424-1.74-2.737-2.446-3.56 2.168.082 4.707.429 6.318 1.472a2.324 2.324 0 011.08 1.965 2.33 2.33 0 01-2.327 2.328z" fill="#8bb7f0"></path><path d="M32.211 3.448c2.163.182 3.879.638 4.951 1.331a1.83 1.83 0 01-.99 3.365c-1.15 0-1.549-.645-2.068-1.708l-.109-.221c-.513-1.023-1.181-1.989-1.784-2.767m-2.259-1.09s2.007 2.028 3.149 4.305c.478.952 1.071 2.481 3.071 2.481a2.828 2.828 0 001.532-5.206c-.442-.284-2.396-1.58-7.752-1.58z" fill="#4e7ab5"></path><path d="M1.5 38.5v-3h32c1.103 0 2-.897 2-2s-.897-2-2-2h-27c-2.757 0-5-2.243-5-5s2.243-5 5-5h27c1.103 0 2-.897 2-2s-.897-2-2-2H6.404A4.91 4.91 0 011.5 12.596a4.916 4.916 0 013.606-4.729L16.898 4.63l.794 2.894L5.899 10.76A1.908 1.908 0 004.5 12.596c0 1.05.854 1.904 1.904 1.904H33.5c2.757 0 5 2.243 5 5s-2.243 5-5 5h-27c-1.103 0-2 .897-2 2s.897 2 2 2h27c2.757 0 5 2.243 5 5s-2.243 5-5 5h-32z" fill="#c2e8ff"></path><path d="M16.548 5.245l.529 1.929-11.31 3.104A2.41 2.41 0 004 12.596 2.407 2.407 0 006.404 15H33.5c2.481 0 4.5 2.019 4.5 4.5S35.981 24 33.5 24h-27C5.121 24 4 25.121 4 26.5S5.121 29 6.5 29h27c2.481 0 4.5 2.019 4.5 4.5S35.981 38 33.5 38H2v-2h31.5c1.379 0 2.5-1.121 2.5-2.5S34.879 31 33.5 31h-27A4.505 4.505 0 012 26.5C2 24.019 4.019 22 6.5 22h27c1.379 0 2.5-1.121 2.5-2.5S34.879 17 33.5 17H6.404A4.41 4.41 0 012 12.596a4.414 4.414 0 013.239-4.247l11.309-3.104m.7-1.229L4.975 7.385A5.415 5.415 0 001 12.596 5.411 5.411 0 006.404 18H33.5c.827 0 1.5.673 1.5 1.5s-.673 1.5-1.5 1.5h-27C3.468 21 1 23.468 1 26.5S3.468 32 6.5 32h27c.827 0 1.5.673 1.5 1.5s-.673 1.5-1.5 1.5H1v4h32.5c3.032 0 5.5-2.468 5.5-5.5S36.532 28 33.5 28h-27c-.827 0-1.5-.673-1.5-1.5S5.673 25 6.5 25h27c3.032 0 5.5-2.468 5.5-5.5S36.532 14 33.5 14H6.404C5.63 14 5 13.37 5 12.596c0-.63.424-1.187 1.032-1.354l12.274-3.369-1.058-3.857z" fill="#7496c4"></path><path fill="#dcd5f2" d="M15.828 3.749l9.846-.76.535 2.476-9.197 3.765z"></path><path d="M25.277 3.521l.354 1.64-8.256 3.38-.937-4.338 8.839-.682m.793-1.064l-10.851.838 1.431 6.624 10.136-4.15-.716-3.312z" fill="#8b75a1"></path><g><path d="M18.311 10.534a1.663 1.663 0 01-1.615-1.306L15.46 3.503a1.644 1.644 0 01.228-1.246 1.647 1.647 0 011.391-.757c.771 0 1.45.549 1.614 1.306L19.93 8.53a1.658 1.658 0 01-1.619 2.004z" fill="#dcd5f2"></path><path d="M17.078 2a1.16 1.16 0 011.126.911l1.236 5.725c.065.301.009.61-.158.869a1.147 1.147 0 01-.972.529 1.16 1.16 0 01-1.126-.911l-1.236-5.725a1.147 1.147 0 01.158-.869A1.147 1.147 0 0117.078 2m0-1a2.154 2.154 0 00-2.108 2.609l1.236 5.725a2.155 2.155 0 104.211-.909L19.182 2.7A2.156 2.156 0 0017.078 1z" fill="#8b75a1"></path></g><g><path fill="#c2e8ff" d="M1 36h2v2H1z"></path></g></svg>