<svg viewBox="0 0 40 40" xmlns="http://www.w3.org/2000/svg"><path d="M20 38.5c-7.313 0-13.491-6.166-13.491-13.463 0-7.528 11.277-20.758 13.489-23.28 2.208 2.547 13.511 15.95 13.511 23.28C33.509 32.334 27.323 38.5 20 38.5z" fill="#c2e8ff"></path><path d="M19.996 2.52c2.861 3.346 13.013 15.702 13.013 22.516C33.009 32.063 27.052 38 20 38c-7.042 0-12.991-5.937-12.991-12.964 0-6.999 10.123-19.204 12.987-22.516M20 1S6.009 16.441 6.009 25.036C6.009 32.532 12.268 39 20 39s14.009-6.468 14.009-13.964C34.009 16.667 20 1 20 1z" fill="#7496c4"></path><path d="M19.951 33.536a8.5 8.5 0 01-8.5-8.5" fill="none" stroke="#fff" stroke-miterlimit="10"></path></svg>