<svg viewBox="0 0 40 40" xmlns="http://www.w3.org/2000/svg"><path d="M25.5 2C32.393 2 38 7.607 38 14.5S32.393 27 25.5 27 13 21.393 13 14.5 18.607 2 25.5 2m0-1C18.044 1 12 7.044 12 14.5S18.044 28 25.5 28 39 21.956 39 14.5 32.956 1 25.5 1z" fill="#4e7ab5"></path><path d="M14 38.5c-.827 0-1.5-.673-1.5-1.5v-2.433L1.65 16.298l1.99-1.612 8.86 9.744V14c0-1.379 1.121-2.5 2.5-2.5h17c.827 0 1.5.673 1.5 1.5v24c0 .827-.673 1.5-1.5 1.5H14z" fill="#8bb7f0"></path><path d="M32 12c.551 0 1 .449 1 1v24c0 .551-.449 1-1 1H14c-.551 0-1-.449-1-1v-2.57l-.14-.236L2.301 16.415l1.287-1.043 7.671 8.438L13 25.724V14c0-1.103.897-2 2-2h17m0-1H15a3 3 0 00-3 3v9.137L3.693 14 1 16.182l11 18.523V37a2 2 0 002 2h18a2 2 0 002-2V13a2 2 0 00-2-2z" fill="#4e7ab5"></path><path fill="none" stroke="#4e7ab5" stroke-miterlimit="10" d="M12 15.5h22"></path><path d="M19.728 25.232c0-1.807 1.465-4.782 3.272-4.782s3.272 2.975 3.272 4.782a3.272 3.272 0 01-6.544 0z" fill="#fff"></path><path d="M19.834 29.909c-1.719-.558-4.096-2.871-3.537-4.59.558-1.719 3.841-2.193 5.559-1.634a3.273 3.273 0 01-2.022 6.224z" fill="#fff"></path><path d="M24.316 31.253c-1.062 1.462-3.996 3.008-5.458 1.946-1.462-1.062-.898-4.33.164-5.792a3.272 3.272 0 115.294 3.846z" fill="#fff"></path><path d="M26.979 27.406c1.062 1.462 1.626 4.73.164 5.792-1.462 1.062-4.396-.484-5.458-1.946a3.272 3.272 0 115.294-3.846z" fill="#fff"></path><path d="M24.143 23.685c1.719-.558 5.001-.085 5.559 1.634s-1.818 4.031-3.537 4.59a3.271 3.271 0 11-2.022-6.224z" fill="#fff"></path><circle cx="23" cy="27.235" r="3.084" fill-rule="evenodd" clip-rule="evenodd" fill="#f2d75c"></circle></svg>