<svg viewBox="0 0 40 40" xmlns="http://www.w3.org/2000/svg"><path fill="#ffeea3" d="M14.006 33.475L1.5 37.323V6.369l12.494-3.844 12 4L38.5 2.677v30.954l-12.494 3.844z"></path><path d="M13.988 3.05l11.696 3.899.304.101.306-.094L38 3.354v29.907L26.012 36.95l-11.696-3.899-.304-.101-.306.094L2 36.646V6.739L13.988 3.05M39 2L26 6 14 2 1 6v32l13-4 12 4 13-4V2z" fill="#ba9b48"></path><path d="M26 37l-12-4V3l12 4v30z" fill="#fff"></path><circle cx="8.5" cy="28.5" r="2" fill="#8bb7f0"></circle><path d="M8.5 27c.827 0 1.5.673 1.5 1.5S9.327 30 8.5 30 7 29.327 7 28.5 7.673 27 8.5 27m0-1a2.5 2.5 0 100 5 2.5 2.5 0 000-5z" fill="#4e7ab5"></path><circle cx="32.5" cy="27.5" r="2" fill="#8bb7f0"></circle><path d="M32.5 26c.827 0 1.5.673 1.5 1.5s-.673 1.5-1.5 1.5-1.5-.673-1.5-1.5.673-1.5 1.5-1.5m0-1a2.5 2.5 0 100 5 2.5 2.5 0 000-5z" fill="#4e7ab5"></path><circle cx="33" cy="23" r="1" fill="#704e34"></circle><circle cx="17" cy="15" r="1" fill="#704e34"></circle><circle cx="20" cy="12" r="1" fill="#704e34"></circle><circle cx="24" cy="11" r="1" fill="#704e34"></circle><circle cx="28" cy="13" r="1" fill="#704e34"></circle><circle cx="31" cy="16" r="1" fill="#704e34"></circle><circle cx="33" cy="19" r="1" fill="#704e34"></circle><circle cx="28" cy="29" r="1" fill="#704e34"></circle><circle cx="24" cy="28" r="1" fill="#704e34"></circle><circle cx="21" cy="26" r="1" fill="#704e34"></circle><circle cx="17" cy="26" r="1" fill="#704e34"></circle><circle cx="13" cy="27" r="1" fill="#704e34"></circle><circle cx="8" cy="14" r="1" fill="#704e34"></circle><g><circle cx="12.5" cy="16.5" r="2" fill="#8bb7f0"></circle><path d="M12.5 15c.827 0 1.5.673 1.5 1.5s-.673 1.5-1.5 1.5-1.5-.673-1.5-1.5.673-1.5 1.5-1.5m0-1a2.5 2.5 0 100 5 2.5 2.5 0 000-5z" fill="#4e7ab5"></path></g></svg>