<svg viewBox="0 0 40 40" xmlns="http://www.w3.org/2000/svg"><path fill="#fff" d="M2.5 3.5h35v33h-35z"></path><path d="M37 4v32H3V4h34m1-1H2v34h36V3z" fill="#788b9c"></path><path fill="#c2e8ff" d="M2.5 3.5h35v9h-35z"></path><path d="M37 4v8H3V4h34m1-1H2v10h36V3z" fill="#7496c4"></path><path fill="#788b9c" d="M22 16h12v1H22z"></path><path fill="#7496c4" d="M6 7h2v2H6zM10 7h2v2h-2zM14 7h2v2h-2z"></path><path fill="#788b9c" d="M22 20h12v1H22zM22 24h12v1H22zM22 28h12v1H22zM22 32h12v1H22z"></path><g><path fill="#dcd5f2" d="M6.5 16.5h12v16h-12z"></path><path d="M18 17v15H7V17h11m1-1H6v17h13V16z" fill="#8b75a1"></path></g></svg>