<svg viewBox="0 0 40 40" xmlns="http://www.w3.org/2000/svg"><path d="M20 38.459c-1.705-.742-15.364-7.472-15.499-32.092L20 1.523l15.499 4.844C35.364 30.963 21.707 37.713 20 38.459z" fill="#c2e8ff"></path><path d="M20 2.048l14.996 4.686c-.258 23.19-12.752 30.119-15 31.177C17.735 36.869 5.26 30.057 5.004 6.734L20 2.048M20 1L4 6c0 27.141 16 33 16 33s16-5.932 16-33L20 1z" fill="#7496c4"></path><path d="M29 19c0 5.01-4.082 9-9 9-4.917 0-9-3.99-9-9s3.99-9 9-9 9 3.99 9 9z" fill="#e6f7ff"></path><path d="M25.387 25.558a6.53 6.53 0 01-.192-.705l-.013-.064-.03-.061c-.18-.361-.273-.731-.371-1.124a2.13 2.13 0 01-.068-.287c-.06-.298-.139-.699-.421-1.017-.167-.266-.418-.354-.572-.407-.04-.014-.081-.027-.123-.048-.388-.168-.764-.182-1.094-.193-.496-.019-.714-.047-.868-.264-.042-.063-.041-.153-.023-.393l.011-.19c.077-.129.142-.257.206-.386.068-.136.135-.271.225-.406l.029-.044.02-.048c.07-.179.156-.343.239-.504.151-.295.308-.599.389-.96.072-.186.072-.372.072-.512l.001-.068c.081-.047.192-.103.27-.142l.071-.036.072-.063c.104-.063.354-.216.354-.56 0-.1-.022-.184-.053-.251l.01-.012c.247-.247.497-.471.746-.695.231-.209.464-.417.695-.644a.595.595 0 00.3-.331.592.592 0 00.038-.528.647.647 0 00-.453-.375c-.091-.041-.166-.066-.242-.092a.126.126 0 00-.01-.003l.496-.745c.067-.072.136-.16.205-.252.074-.098.212-.278.278-.304a.455.455 0 01.187-.048c.021 0 .044.002.067.006C27.554 14.42 28.5 16.616 28.5 19a8.405 8.405 0 01-3.113 6.558z" fill="#bae0bd"></path><path d="M25.734 13.405C27.199 14.901 28 16.87 28 19a7.9 7.9 0 01-2.338 5.642l-.004-.018-.06-.12c-.157-.314-.243-.658-.333-1.021l-.011-.041-.012-.035c-.018-.054-.028-.12-.041-.188-.065-.328-.161-.81-.512-1.221-.259-.386-.635-.517-.806-.577-.022-.008-.045-.014-.064-.023l-.025-.013-.026-.011c-.449-.193-.893-.209-1.249-.222-.136-.005-.33-.012-.42-.022l.008-.1.005-.078c.061-.109.113-.213.161-.31.058-.117.115-.235.193-.352l.058-.087.039-.097c.065-.162.143-.312.219-.459.154-.3.328-.638.425-1.048.053-.149.076-.293.086-.417l.018-.009.143-.072.071-.071a1.112 1.112 0 00.537-1.044c.181-.172.361-.334.541-.497.224-.201.448-.403.672-.62.198-.121.354-.302.444-.518a1.096 1.096 0 00-.372-1.431l.142-.214c.067-.076.136-.164.206-.255a.295.295 0 00.039-.046m.031-1.108a.833.833 0 00-.344.074c-.307.103-.511.512-.716.716l-.614.92c-.103.102-.205.307-.103.409 0 .102.103.102.205.102.205.103.307.103.512.205.102 0 .205.103.102.204 0 0 0 .103-.102.103-.512.511-1.023.92-1.534 1.431-.102.102-.205.307-.205.409 0 .102.102.102.102.204 0 .103-.102.103-.204.205-.205.103-.409.205-.511.307-.102.205 0 .511-.102.716-.102.511-.41.92-.614 1.432-.205.306-.306.614-.511.92 0 .409-.103.716.102 1.023.512.716 1.432.307 2.148.614.205.102.409.102.512.306.306.307.306.819.409 1.125.102.409.205.818.409 1.227.102.512.307 1.023.409 1.432.067-.052.145-.101.219-.151C27.545 24.6 29 21.985 29 19a8.955 8.955 0 00-2.919-6.649 1.018 1.018 0 00-.316-.054z" fill="#5e9c76"></path><path d="M20.304 13.646c-.008-.139-.008-.283-.008-.354 0-.146.043-.281.093-.438.082-.257.185-.576.102-.99.01-.011-.097-.885-.097-.885l-.042-.342-.334-.081a2.905 2.905 0 00-.274-.051 8.588 8.588 0 012.953.427 3.696 3.696 0 01-.229.5l-.053.104c-.126.364-.29.624-.443.727l-.041.027-.041.041c-.188.188-.473.473-.735.646a6.132 6.132 0 00-.504.391c-.116.097-.232.195-.347.278z" fill="#bae0bd"></path><path d="M20.906 11.05c.37.041.735.108 1.094.199l-.031.06-.032.064-.023.068c-.078.235-.186.378-.219.405l-.083.055-.07.07c-.145.145-.351.35-.545.502a2.05 2.05 0 00-.004-.63c-.007-.11-.029-.327-.087-.793M20 10c-.185 0-.368.009-.55.02-.128.199-.23.394-.268.51-.102.511.307.409.716.511 0 0 .102.818.102.92.102.512-.205.818-.205 1.329 0 .307 0 .818.205 1.023h.102c.102 0 .205-.102.409-.205.307-.205.614-.511.92-.716.307-.205.614-.511.819-.716.307-.205.511-.614.614-.921.102-.205.453-.807.35-1.114a.958.958 0 01-.029-.07A9.125 9.125 0 0020 10z" fill="#5e9c76"></path><g><path d="M17.295 27.05a8.644 8.644 0 01-1.219-.517l-.03-.223c-.021-.146-.043-.291-.046-.352l-.004-.065-.021-.079a9.677 9.677 0 01-.147-.492 12.736 12.736 0 00-.159-.531 5.608 5.608 0 00-.259-.544c-.169-.324-.329-.63-.329-.934 0-.096.004-.191.008-.287.012-.302.025-.629-.068-.952h1.527l.186.055c.13.038.378.109.503.172.01.033.02.07.029.111.029.115.064.258.141.409l.036.072.058.058c.469.47 1.001.599 1.47.711.153.037.309.074.464.126-.035.003-.025.043-.01.092.044.132-.004.398-.074.54l-.08.229c-.061.19-.151.477-.236.563-.146.146-.294.22-.48.313-.308.2-.483.432-.654.656-.092.122-.187.249-.297.359l-.146.146v.115c-.04.066-.103.164-.163.249zm-4.852-6.853c-.348-.318-.629-.668-.791-.993a5.124 5.124 0 00-.152-.239c.009-2.309.908-4.45 2.537-6.046.813-.264 1.68-.426 2.285-.426.247 0 .39.027.466.05.197.066.441.219.608.386.053.053.164.164.25.271a1.87 1.87 0 01-.333-.028l-.419-.419-.111-.037a.925.925 0 00-.292-.047c-.954 0-1.871 1.467-1.988 1.934-.101.303-.115.848.116 1.247a.993.993 0 00.68.49h.025c.452 0 .796-.26 1.274-.653.116-.097.223-.185.305-.239.07-.031.163-.093.257-.154.035-.023.07-.048.109-.071.528.034.89.504 1.022.969l.005.134c-.129.27-.731.624-1.504.885a.645.645 0 00-.255-.049.747.747 0 00-.34.082c-.67.265-1.402 1.052-1.402 1.879l-.001.004a.305.305 0 00-.04-.021.638.638 0 00-.482-.176 1.034 1.034 0 01-.17-.055 1.435 1.435 0 00-.521-.118.9.9 0 00-.507.154c-.243.229-.632.676-.632 1.234a.803.803 0 01.001.052z" fill="#bae0bd"></path><path d="M14.718 13.241c-.349.436-.59.899-.678 1.166-.151.455-.165 1.155.146 1.691.224.385.584.645 1.015.731l.097.019h.099c.572 0 1.052-.394 1.516-.775.086-.071.165-.138.23-.186.093-.05.171-.1.247-.15.134.062.279.237.369.447-.162.131-.5.322-.981.497a1.25 1.25 0 00-.761.09c-.654.272-1.333.896-1.603 1.661a1.722 1.722 0 00-.074-.005l-.064-.024c-.159-.06-.4-.15-.696-.15-.28 0-.551.082-.785.238l-.082.055-.07.07a2.724 2.724 0 00-.432.561 2.055 2.055 0 01-.115-.198l-.017-.034-.02-.033a3.69 3.69 0 00-.06-.097 7.93 7.93 0 012.301-5.457c.14-.041.279-.081.418-.117m1.756 9.334l.119.035c.06.017.145.042.224.067.031.108.073.233.14.368l.072.145.115.115c.569.57 1.199.722 1.706.844l.063.015a.254.254 0 01-.012.031l-.032.064-.023.068-.055.171c-.037.116-.096.304-.138.383-.079.072-.167.118-.328.198l-.056.028-.052.035c-.321.214-.533.493-.719.739a2.971 2.971 0 01-.251.306l-.229.229a7.722 7.722 0 01-.482-.212 11.01 11.01 0 01-.036-.264v-.13l-.051-.154c-.047-.141-.094-.306-.141-.471a13.652 13.652 0 00-.166-.551l-.009-.028-.011-.028a6.406 6.406 0 00-.27-.564c-.14-.267-.272-.52-.272-.7 0-.09.004-.179.007-.268.006-.143.012-.302.006-.471h.881m-.152-10.582c-.717 0-1.706.202-2.551.487A8.968 8.968 0 0011 19c0 .043.004.085.005.128.073.103.143.205.2.299.307.614.92 1.228 1.534 1.636.409.307 1.227.307 1.636.818.307.41.205.92.205 1.432 0 .614.409 1.125.614 1.636.102.307.205.716.307 1.023 0 .102.102.716.102.818.033.016.06.054.084.1.546.299 1.127.54 1.732.722h.001c.007 0 .015-.004.021-.004h.003c.102 0 .511-.614.511-.716.307-.307.511-.716.818-.92.205-.102.409-.205.614-.41.205-.205.307-.614.409-.92.102-.204.205-.613.102-.92-.065-.194-.102-.307-.307-.409-.614-.205-1.227-.205-1.739-.716-.102-.205-.102-.409-.205-.614-.205-.205-.716-.307-1.023-.409H14.58c-.307-.102-.511-.511-.716-.818 0-.102 0-.307-.205-.307a.288.288 0 00-.129-.029c-.118 0-.236.059-.354.059a.28.28 0 01-.13-.03c-.102-.102-.102-.205-.102-.306 0-.307.205-.614.409-.819a.403.403 0 01.23-.07c.23 0 .46.173.69.173.102 0 .102 0 .205.102.307.102.409.511.409.819v.205c0 .102.102.102.204.102.102-.511.102-1.023.205-1.534 0-.614.614-1.228 1.125-1.432a.264.264 0 01.117-.029c.098 0 .177.059.276.059a.254.254 0 00.118-.03c.614-.205 2.148-.818 1.841-1.636-.191-.67-.741-1.339-1.481-1.339-.051 0-.103.003-.155.01-.205.103-.307.205-.511.307-.307.205-.92.818-1.227.818-.511-.102-.511-.818-.409-1.125.095-.38.897-1.555 1.502-1.555.046 0 .091.007.134.021l.409.409c.205.102.511.102.818.102.102 0 .205 0 .307-.102.102-.102.102-.102.102-.205 0-.307-.307-.614-.511-.819a2.218 2.218 0 00-.818-.511 2.234 2.234 0 00-.611-.071z" fill="#5e9c76"></path></g><g><path d="M20 11c4.486 0 8 3.514 8 8 0 4.411-3.589 8-8 8s-8-3.589-8-8c0-4.486 3.514-8 8-8m0-1c-5.01 0-9 3.99-9 9s4.083 9 9 9c4.918 0 9-3.99 9-9s-3.99-9-9-9z" fill="#7496c4"></path></g></svg>