<svg viewBox="0 0 40 40" xmlns="http://www.w3.org/2000/svg"><path d="M5.514 38.5c.386-6.894 8.652-10.603 9.586-11h9.8c.931.394 9.201 4.084 9.586 11H5.514z" fill="#839cb2"></path><path d="M24.798 28c1.192.518 8.414 3.897 9.143 10H6.06c.731-6.075 7.947-9.476 9.144-10h9.594M25 27H15S5 30.974 5 39h30c0-8.061-10-12-10-12z" fill="#66798f"></path><path d="M20 32.5c-8.547 0-15.5-6.953-15.5-15.5S11.453 1.5 20 1.5 35.5 8.454 35.5 17 28.547 32.5 20 32.5z" fill="#b0c1d4"></path><path d="M20 2c8.271 0 15 6.729 15 15s-6.729 15-15 15S5 25.271 5 17 11.729 2 20 2m0-1C11.163 1 4 8.163 4 17s7.163 16 16 16 16-7.163 16-16S28.837 1 20 1z" fill="#66798f"></path><g><path d="M20 25.5c-4.687 0-8.5-3.813-8.5-8.5s3.813-8.5 8.5-8.5 8.5 3.813 8.5 8.5-3.813 8.5-8.5 8.5z" fill="#c2e8ff"></path><path d="M20 9c4.411 0 8 3.589 8 8s-3.589 8-8 8-8-3.589-8-8 3.589-8 8-8m0-1a9 9 0 00-9 9c0 4.971 4.029 9 9 9s9-4.029 9-9a9 9 0 00-9-9z" fill="#7496c4"></path></g><path d="M15.5 17a4.5 4.5 0 014.5-4.5" fill="none" stroke="#fff" stroke-miterlimit="10"></path></svg>