<svg viewBox="0 0 40 40" xmlns="http://www.w3.org/2000/svg"><path fill="#c2e8ff" d="M2.5 2.5h35v35h-35z"></path><path d="M37 3v34H3V3h34m1-1H2v36h36V2z" fill="#4e7ab5"></path><path fill="#e8d47b" d="M15 36v-4.903L25 31v5h-5z"></path><path fill="#ba9b48" d="M24 31h1v5h-1zM15.001 31.077h.995V36h-.995z"></path><path d="M27.143 25.214c-1.3 0-2.357-1.057-2.357-2.356s1.058-2.357 2.357-2.357c1.963 0 2.357.537 2.357 1.404 0 1.413-1.165 3.309-2.357 3.309z" fill="#e8d47b"></path><path d="M27.143 21C29 21 29 21.481 29 21.905c0 1.234-1.041 2.81-1.857 2.81-1.024 0-1.857-.833-1.857-1.857S26.119 21 27.143 21m0-1a2.857 2.857 0 100 5.714c1.578 0 2.857-2.231 2.857-3.809C30 20.327 28.721 20 27.143 20z" fill="#ba9b48"></path><path d="M12.857 25.214c-1.192 0-2.357-1.896-2.357-3.31 0-.867.394-1.404 2.357-1.404 1.3 0 2.357 1.058 2.357 2.357s-1.057 2.357-2.357 2.357z" fill="#e8d47b"></path><path d="M12.857 21c1.024 0 1.857.833 1.857 1.857s-.833 1.857-1.857 1.857c-.816 0-1.857-1.575-1.857-2.81 0-.423 0-.904 1.857-.904m0-1C11.279 20 10 20.327 10 21.905s1.279 3.81 2.857 3.81a2.857 2.857 0 100-5.715z" fill="#ba9b48"></path><g><path d="M20 33.5a2.457 2.457 0 01-1.641-.631l-.09-.079-.117-.029A7.487 7.487 0 0112.5 25.5v-9.299a3.317 3.317 0 013.312-3.313h8.375a3.316 3.316 0 013.313 3.313V25.5a7.487 7.487 0 01-5.652 7.261l-.117.029-.09.079A2.457 2.457 0 0120 33.5z" fill="#ffeea3"></path><path d="M24.187 13.389A2.816 2.816 0 0127 16.202V25.5a6.988 6.988 0 01-5.275 6.776l-.233.059-.181.159c-.263.231-.703.506-1.311.506s-1.048-.275-1.311-.506l-.181-.159-.233-.059A6.988 6.988 0 0113 25.5v-9.298a2.816 2.816 0 012.813-2.813h8.374m0-1h-8.375a3.813 3.813 0 00-3.813 3.813V25.5c0 3.737 2.566 6.866 6.029 7.745.529.464 1.214.755 1.972.755s1.443-.291 1.971-.755C25.434 32.366 28 29.237 28 25.5v-9.298a3.813 3.813 0 00-3.813-3.813z" fill="#ba9b48"></path></g><g><path d="M27.5 23.5V20c0-3.734-3.258-4.711-3.291-4.72l-.276-.079-.208.198c-.019.019-2.132 1.957-6.576 1.957-1.15 0-4.65 0-4.65 3.644v2.5h-.179c-.436-.981-1.821-4.332-1.821-7.188 0-5.271 3.617-8.812 9-8.812 3.839 0 4.992 2.585 5.04 2.695l.13.303.331.002c1.671 0 4.5 1.161 4.5 5.515 0 2.621-1.407 6.394-1.838 7.485H27.5z" fill="#b0c1d4"></path><path d="M19.5 8c3.483 0 4.538 2.297 4.577 2.385l.257.615H25c1.845 0 4 1.313 4 5.015 0 1.536-.507 3.498-1 5.043V20c0-3.286-2.39-4.839-3.653-5.201l-.547-.149-.413.382c-.081.074-2.022 1.825-6.236 1.825C13.733 16.857 12 18.251 12 21v.314c-.491-1.422-1-3.305-1-5.003C11 11.34 14.416 8 19.5 8m0-1c-5.819 0-9.5 3.981-9.5 9.311C10 19.842 12 24 12 24h1v-3c0-2.668 2.024-3.143 4.15-3.143 4.73 0 6.922-2.097 6.922-2.097S27 16.599 27 20v4h1s2-4.768 2-7.985C30 11.498 27.123 10 25 10c0 0-1.253-3-5.5-3z" fill="#66798f"></path></g></svg>