<svg viewBox="0 0 40 40" xmlns="http://www.w3.org/2000/svg"><path fill="none" stroke="#66798f" stroke-linecap="round" stroke-miterlimit="10" d="M14.5 22l-6 16.5M25.071 23.286L30.5 35.5"></path><path fill="none" stroke="#66798f" stroke-miterlimit="10" d="M28.254 30.5H11.567"></path><circle cx="30.5" cy="35.5" r="3" fill="#b0c1d4"></circle><path d="M30.5 33c1.379 0 2.5 1.121 2.5 2.5S31.879 38 30.5 38 28 36.879 28 35.5s1.121-2.5 2.5-2.5m0-1a3.5 3.5 0 100 7 3.5 3.5 0 000-7z" fill="#66798f"></path><path d="M20 24.5c-7.828 0-14.227-6.235-14.491-14h28.982c-.264 7.765-6.663 14-14.491 14z" fill="#f78f8f"></path><path d="M33.965 11C33.45 18.254 27.383 24 20 24S6.55 18.254 6.035 11h27.93M35 10H5c0 8.284 6.716 15 15 15s15-6.716 15-15z" fill="#c74343"></path><path fill="none" stroke="#f78f8f" stroke-miterlimit="10" d="M22.5 8V1M26.5 8V3"></path><g><path fill="none" stroke="#f78f8f" stroke-miterlimit="10" d="M14.5 8V1"></path></g><g><path fill="none" stroke="#f78f8f" stroke-miterlimit="10" d="M18.5 8V3"></path></g></svg>