<svg viewBox="0 0 40 40" xmlns="http://www.w3.org/2000/svg"><path fill="#fff" d="M2.5 2.5h35v35h-35z"></path><path d="M37 3v34H3V3h34m1-1H2v36h36V2z" fill="#788b9c"></path><path fill="#c2e8ff" d="M30.5 2.5h7v7h-7z"></path><path d="M37 3v6h-6V3h6m1-1h-8v8h8V2z" fill="#7496c4"></path><path fill="#c2e8ff" d="M23.5 2.5h7v7h-7z"></path><path d="M30 3v6h-6V3h6m1-1h-8v8h8V2z" fill="#7496c4"></path><path fill="#c2e8ff" d="M16.5 2.5h7v7h-7z"></path><path d="M23 3v6h-6V3h6m1-1h-8v8h8V2z" fill="#7496c4"></path><path fill="#c2e8ff" d="M9.5 2.5h7v7h-7z"></path><path d="M16 3v6h-6V3h6m1-1H9v8h8V2z" fill="#7496c4"></path><g><path fill="#c2e8ff" d="M2.5 2.5h7v7h-7z"></path><path d="M9 3v6H3V3h6m1-1H2v8h8V2z" fill="#7496c4"></path></g><path fill="#c5d4de" d="M31 10v27h-1V10zM24 10v27h-1V10zM17 10v27h-1V10zM10 10v27H9V10z"></path></svg>