<svg viewBox="0 0 40 40" xmlns="http://www.w3.org/2000/svg"><path fill="#c2e8ff" d="M1.5 28.5h37v3h-37z"></path><path d="M38 29v2H2v-2h36m1-1H1v4h38v-4z" fill="#7496c4"></path><path fill="#7496c4" d="M4 31h2v4H4zM9 35H1l4 4zM19 31h2v4h-2zM24 35h-8l4 4zM34 31h2v4h-2zM39 35h-8l4 4z"></path><path fill="#ffeea3" d="M2.5 1.5h35v20h-35z"></path><path d="M37 2v19H3V2h34m1-1H2v21h36V1z" fill="#ba9b48"></path><path fill="#ffeea3" d="M3 1h34v20H3z"></path><path d="M7 8.5c-.827 0-1.5-.673-1.5-1.5V4c0-.827.673-1.5 1.5-1.5h26c.827 0 1.5.673 1.5 1.5v3c0 .827-.673 1.5-1.5 1.5H7z" fill="#f78f8f"></path><path d="M33 3c.551 0 1 .449 1 1v3c0 .551-.449 1-1 1H7c-.551 0-1-.449-1-1V4c0-.551.449-1 1-1h26m0-1H7a2 2 0 00-2 2v3a2 2 0 002 2h26a2 2 0 002-2V4a2 2 0 00-2-2z" fill="#c74343"></path><path d="M5 21.214h7V27a1 1 0 01-1 1H6a1 1 0 01-1-1v-5.786z" fill="#66798f"></path><path fill="#c2e8ff" d="M8.537 12.5l.781-11h21.364l.781 11z"></path><path d="M30.216 2l.711 10H9.074l.71-10h20.432m.931-1H8.853L8 13h24l-.853-12z" fill="#c74343"></path><path fill="#c2e8ff" d="M9.855 1l-.781 11h21.852l-.781-11z"></path><path d="M28 21.214h7V27a1 1 0 01-1 1h-5a1 1 0 01-1-1v-5.786z" fill="#66798f"></path><path d="M6 21.5a.5.5 0 01-.5-.5v-8c0-1.93 1.57-3.5 3.5-3.5h22c1.93 0 3.5 1.57 3.5 3.5v8a.5.5 0 01-.5.5H6z" fill="#f78f8f"></path><path d="M31 10c1.654 0 3 1.346 3 3v8H6v-8c0-1.654 1.346-3 3-3h22m0-1H9a4 4 0 00-4 4v8a1 1 0 001 1h28a1 1 0 001-1v-8a4 4 0 00-4-4z" fill="#c74343"></path><g><path d="M5 24.5a.5.5 0 01-.5-.5v-3a.5.5 0 01.5-.5h30a.5.5 0 01.5.5v3a.5.5 0 01-.5.5H5z" fill="#dcd5f2"></path><path d="M35 21v3H5v-3h30m0-1H5a1 1 0 00-1 1v3a1 1 0 001 1h30a1 1 0 001-1v-3a1 1 0 00-1-1z" fill="#8b75a1"></path></g><path fill="#fff" d="M32 14v5h-3v-5zM11 14v5H8v-5z"></path><g><path d="M13.5 20.5V14c0-.827.673-1.5 1.5-1.5h10c.827 0 1.5.673 1.5 1.5v6.5h-13z" fill="#dcd5f2"></path><path d="M25 13c.551 0 1 .449 1 1v6H14v-6c0-.551.449-1 1-1h10m0-1H15a2 2 0 00-2 2v7h14v-7a2 2 0 00-2-2z" fill="#8b75a1"></path></g></svg>