<svg viewBox="0 0 40 40" xmlns="http://www.w3.org/2000/svg"><path d="M4.433 22.306l-.176-.205C2.453 20.001 1.5 17.546 1.5 15 1.5 8.107 8.453 2.5 17 2.5S32.5 8.107 32.5 15 25.547 27.5 17 27.5c-2.527 0-5.044-.508-7.275-1.468l-.175-.075-6.809 2.269 1.692-5.92z" fill="#c2e8ff"></path><path d="M17 3c8.271 0 15 5.383 15 12s-6.729 12-15 12c-2.46 0-4.907-.494-7.078-1.428l-.35-.151-.361.12-5.728 1.909L4.84 22.7l.148-.518-.351-.409C2.912 19.767 2 17.424 2 15 2 8.383 8.729 3 17 3m0-1C8.163 2 1 7.82 1 15c0 2.763 1.069 5.32 2.878 7.427L2 29l7.527-2.509C11.758 27.451 14.299 28 17 28c8.837 0 16-5.82 16-13S25.837 2 17 2z" fill="#7496c4"></path><path d="M32.484 35.343l-.208.089A13.304 13.304 0 0127 36.5c-6.341 0-11.5-4.262-11.5-9.5s5.159-9.5 11.5-9.5 11.5 4.262 11.5 9.5c0 1.673-.546 3.327-1.58 4.784l-.131.186 1.479 6.128-5.784-2.755z" fill="#f2faff"></path><path d="M27 18c6.065 0 11 4.037 11 9 0 1.568-.514 3.122-1.488 4.495l-.263.371.107.442 1.18 4.887-4.632-2.206-.408-.194-.416.178A12.84 12.84 0 0127 36c-6.065 0-11-4.037-11-9s4.935-9 11-9m0-1c-6.627 0-12 4.477-12 10s5.373 10 12 10c1.974 0 3.831-.404 5.473-1.108L39 39l-1.672-6.927C38.384 30.585 39 28.854 39 27c0-5.523-5.373-10-12-10z" fill="#788b9c"></path><circle cx="22.5" cy="25.5" r="1.5" fill="#424e5c"></circle><circle cx="31.5" cy="25.5" r="1.5" fill="#424e5c"></circle><circle cx="12" cy="11" r="2" fill="#424e5c"></circle><circle cx="22" cy="11" r="2" fill="#424e5c"></circle></svg>