<svg viewBox="0 0 40 40" xmlns="http://www.w3.org/2000/svg"><path d="M20 35.5c-6.77 0-12.682-4.36-14.732-10.729l6.194 2.916A11.503 11.503 0 0020 31.5c6.341 0 11.5-5.159 11.5-11.5S26.341 8.5 20 8.5a11.504 11.504 0 00-8.539 3.814l-6.193 2.915A15.453 15.453 0 0120 4.5c8.547 0 15.5 6.953 15.5 15.5S28.547 35.5 20 35.5z" fill="#c2e8ff"></path><path d="M20 5c8.271 0 15 6.729 15 15s-6.729 15-15 15a14.953 14.953 0 01-13.845-9.259l5.003 2.354A12 12 0 0020 32c6.617 0 12-5.383 12-12S26.617 8 20 8c-3.357 0-6.567 1.42-8.842 3.904l-5.003 2.354A14.954 14.954 0 0120 5m0-1C12.494 4 6.212 9.176 4.486 16.149l7.28-3.426A10.964 10.964 0 0120 9c6.075 0 11 4.925 11 11s-4.925 11-11 11c-3.281 0-6.218-1.445-8.234-3.723l-7.28-3.426C6.212 30.824 12.494 36 20 36c8.837 0 16-7.164 16-16 0-8.837-7.163-16-16-16z" fill="#7496c4"></path><path fill="#8bb7f0" d="M19.5 1.5h1v7h-1z"></path><path d="M20 2v6-6m1-1h-2v8h2V1z" fill="#4e7ab5"></path><path fill="#8bb7f0" d="M31.5 19.5h7v1h-7z"></path><path fill="#4e7ab5" d="M39 19h-8v2h8v-2z"></path><g><path fill="#8bb7f0" d="M19.5 31.5h1v7h-1z"></path><path d="M20 32v6-6m1-1h-2v8h2v-8z" fill="#4e7ab5"></path></g><g><path fill="#f78f8f" d="M2.174 20L17.1 12.977 14.466 20l2.634 7.023z"></path><path d="M16.2 13.952l-2.136 5.697-.132.351.132.351 2.136 5.697L3.349 20 16.2 13.952M18 12L1 20l17 8-3-8 3-8z" fill="#c74343"></path></g></svg>