<svg viewBox="0 0 40 40" xmlns="http://www.w3.org/2000/svg"><path d="M7.5 19.5c-2.757 0-5-2.218-5-4.945 0-2.246 3.282-8.512 4.997-11.545C9.213 6.075 12.5 12.397 12.5 14.555c0 2.727-2.243 4.945-5 4.945z" fill="#c2e8ff"></path><path d="M7.495 4.034C9.509 7.706 12 12.819 12 14.555 12 17.006 9.981 19 7.5 19S3 17.006 3 14.555c0-1.808 2.484-6.888 4.495-10.521M7.5 2S2 11.426 2 14.555C2 17.562 4.462 20 7.5 20s5.5-2.438 5.5-5.445C13 11.547 7.5 2 7.5 2z" fill="#8bb7f0"></path><path d="M19.5 37.5c-2.757 0-5-2.218-5-4.945 0-2.246 3.282-8.512 4.997-11.545 1.716 3.066 5.003 9.388 5.003 11.545 0 2.727-2.243 4.945-5 4.945z" fill="#c2e8ff"></path><path d="M19.495 22.034C21.509 25.706 24 30.819 24 32.555 24 35.006 21.981 37 19.5 37S15 35.006 15 32.555c0-1.808 2.484-6.888 4.495-10.521M19.5 20S14 29.426 14 32.555C14 35.562 16.462 38 19.5 38s5.5-2.438 5.5-5.445C25 29.547 19.5 20 19.5 20z" fill="#8bb7f0"></path><g><path d="M32.5 22.5c-2.757 0-5-2.218-5-4.945 0-2.246 3.282-8.512 4.997-11.545 1.716 3.066 5.003 9.388 5.003 11.545 0 2.727-2.243 4.945-5 4.945z" fill="#c2e8ff"></path><path d="M32.495 7.034C34.509 10.706 37 15.819 37 17.555 37 20.006 34.981 22 32.5 22S28 20.006 28 17.555c0-1.808 2.484-6.888 4.495-10.521M32.5 5S27 14.426 27 17.555C27 20.562 29.462 23 32.5 23s5.5-2.438 5.5-5.445C38 14.547 32.5 5 32.5 5z" fill="#8bb7f0"></path></g></svg>