<svg viewBox="0 0 40 40" xmlns="http://www.w3.org/2000/svg"><path fill="#f78f8f" d="M25.5 21.746v-1.835l10 6.363v2.744z"></path><path d="M26 20.822l9 5.727v1.487l-9-6.545v-.669M25 19v3l11 8v-4l-11-7z" fill="#c74343"></path><path fill="#f78f8f" d="M4.5 26.274l10-6.363v1.835l-10 7.272z"></path><path d="M14 20.822v.669l-9 6.545v-1.487l9-5.727M15 19L4 26v4l11-8v-3z" fill="#c74343"></path><path fill="#c2e8ff" d="M11.5 16.5v-9h4v-4h9v4h4v9z"></path><path d="M24 4v4h4v8H12V8h4V4h8m1-1H15v4h-4v10h18V7h-4V3z" fill="#7496c4"></path><path d="M14.158 27.526a8.367 8.367 0 01-5.333-6.652l-.327-3.916L7.64 13.5h24.72l-.845 3.379-.343 4.024a8.363 8.363 0 01-5.348 6.628L20 29.473l-5.842-1.947z" fill="#c8d1db"></path><path d="M31.719 14l-.689 2.757-.02.078-.007.081-.328 3.915a7.863 7.863 0 01-4.992 6.22L20 28.946l-5.649-1.882a7.874 7.874 0 01-5.027-6.232l-.328-3.915-.006-.081-.02-.078L8.281 14h23.438M33 13H7l1 4 .33 3.945A8.876 8.876 0 0014 28l6 2 6-2a8.876 8.876 0 005.67-7.055L32 17l1-4z" fill="#66798f"></path><circle cx="25" cy="18" r="1" fill="#66798f"></circle><circle cx="15" cy="18" r="1" fill="#66798f"></circle><g><path d="M7 36.5A5.506 5.506 0 011.5 31V13.5h3V31c0 1.378 1.121 2.5 2.5 2.5h26c1.379 0 2.5-1.122 2.5-2.5V13.5h3V31c0 3.033-2.468 5.5-5.5 5.5H7z" fill="#f5ce85"></path><path d="M38 14v17c0 2.757-2.243 5-5 5H7c-2.757 0-5-2.243-5-5V14h2v17c0 1.654 1.346 3 3 3h26c1.654 0 3-1.346 3-3V14h2m1-1h-4v18c0 1.103-.897 2-2 2H7c-1.103 0-2-.897-2-2V13H1v18c0 3.309 2.691 6 6 6h26c3.309 0 6-2.691 6-6V13z" fill="#967a44"></path></g></svg>