<svg viewBox="0 0 40 40" xmlns="http://www.w3.org/2000/svg"><path fill="none" stroke="#7a4f34" stroke-linecap="round" stroke-miterlimit="10" d="M1.5 38.501L34.208 5.793"></path><path d="M34.228 8.683c-.777 0-1.508-.303-2.057-.853s-.852-1.279-.852-2.057.303-1.507.852-2.057c1.831-1.831 5.083-2.15 6.302-2.205-.094 1.284-.497 4.628-2.188 6.318a2.888 2.888 0 01-2.057.854z" fill="#f5ce85"></path><path d="M37.927 2.047c-.176 1.619-.705 4.138-1.996 5.43-.455.455-1.06.706-1.703.706s-1.248-.251-1.703-.706c-.455-.455-.706-1.06-.706-1.703s.251-1.248.706-1.703c1.479-1.481 3.998-1.904 5.402-2.024M38.909 1c-.666 0-4.822.093-7.092 2.363a3.41 3.41 0 004.822 4.821C38.919 5.903 39 1.001 39 1.001L38.909 1z" fill="#967a44"></path><path d="M31.5 15.501c-1.604 0-2.909-1.305-2.909-2.909s1.305-2.909 2.909-2.909c2.583 0 5.091 2.052 6.015 2.897-.974.842-3.624 2.921-6.015 2.921z" fill="#f5ce85"></path><path d="M31.5 10.183c2.09 0 4.162 1.472 5.248 2.387-1.143.922-3.309 2.431-5.248 2.431-1.328 0-2.409-1.081-2.409-2.409s1.081-2.409 2.409-2.409m0-1a3.409 3.409 0 100 6.818c3.226 0 6.75-3.409 6.75-3.409s-3.253-3.409-6.75-3.409z" fill="#967a44"></path><path d="M26.045 20.955c-1.604 0-2.909-1.305-2.909-2.909s1.305-2.909 2.909-2.909c2.583 0 5.091 2.052 6.015 2.897-.974.842-3.623 2.921-6.015 2.921z" fill="#f5ce85"></path><path d="M26.045 15.637c2.09 0 4.162 1.472 5.248 2.387-1.143.922-3.309 2.431-5.248 2.431-1.328 0-2.409-1.081-2.409-2.409s1.081-2.409 2.409-2.409m0-1a3.409 3.409 0 100 6.818c3.226 0 6.75-3.409 6.75-3.409s-3.253-3.409-6.75-3.409z" fill="#967a44"></path><path d="M20.591 26.41c-1.604 0-2.909-1.305-2.909-2.909s1.305-2.909 2.909-2.909c2.583 0 5.091 2.052 6.016 2.897-.976.842-3.625 2.921-6.016 2.921z" fill="#f5ce85"></path><path d="M20.591 21.092c2.09 0 4.162 1.472 5.248 2.387-1.143.922-3.309 2.431-5.248 2.431-1.328 0-2.409-1.081-2.409-2.409s1.081-2.409 2.409-2.409m0-1a3.409 3.409 0 100 6.818c3.226 0 6.75-3.409 6.75-3.409s-3.254-3.409-6.75-3.409z" fill="#967a44"></path><path d="M15.136 31.864c-1.604 0-2.909-1.305-2.909-2.909s1.305-2.909 2.909-2.909c2.583 0 5.092 2.052 6.016 2.897-.975.842-3.625 2.921-6.016 2.921z" fill="#f5ce85"></path><path d="M15.136 26.546c2.09 0 4.162 1.472 5.248 2.387-1.143.922-3.309 2.431-5.248 2.431-1.328 0-2.409-1.081-2.409-2.409s1.081-2.409 2.409-2.409m0-1a3.409 3.409 0 100 6.818c3.226 0 6.75-3.409 6.75-3.409s-3.253-3.409-6.75-3.409z" fill="#967a44"></path><path d="M27.409 11.41A2.912 2.912 0 0124.5 8.501c0-2.396 2.079-5.043 2.921-6.017.846.924 2.897 3.433 2.897 6.017a2.912 2.912 0 01-2.909 2.909z" fill="#f5ce85"></path><path d="M27.434 3.249c1.009 1.202 2.384 3.279 2.384 5.252 0 1.328-1.081 2.409-2.409 2.409S25 9.829 25 8.501c0-1.941 1.512-4.11 2.434-5.252m-.025-1.498S24 5.275 24 8.501a3.409 3.409 0 106.818 0c0-3.497-3.409-6.75-3.409-6.75z" fill="#967a44"></path><g><path d="M21.955 16.864a2.912 2.912 0 01-2.909-2.909c0-2.396 2.079-5.042 2.921-6.016.845.924 2.897 3.433 2.897 6.016a2.912 2.912 0 01-2.909 2.909z" fill="#f5ce85"></path><path d="M21.98 8.703c1.009 1.202 2.384 3.279 2.384 5.252 0 1.328-1.081 2.409-2.409 2.409s-2.409-1.081-2.409-2.409c-.001-1.94 1.512-4.11 2.434-5.252m-.025-1.497s-3.409 3.524-3.409 6.75a3.409 3.409 0 106.818 0c0-3.497-3.409-6.75-3.409-6.75z" fill="#967a44"></path></g><g><path d="M16.5 22.319a2.912 2.912 0 01-2.909-2.909c0-2.392 2.079-5.041 2.921-6.016.845.924 2.897 3.433 2.897 6.016a2.912 2.912 0 01-2.909 2.909z" fill="#f5ce85"></path><path d="M16.525 14.158c1.009 1.202 2.384 3.279 2.384 5.252 0 1.328-1.081 2.409-2.409 2.409s-2.409-1.081-2.409-2.409c0-1.941 1.512-4.11 2.434-5.252M16.5 12.66s-3.409 3.524-3.409 6.75a3.409 3.409 0 106.818 0c0-3.497-3.409-6.75-3.409-6.75z" fill="#967a44"></path></g><g><path d="M11.045 27.773a2.912 2.912 0 01-2.909-2.909c0-2.396 2.079-5.042 2.921-6.016.845.924 2.897 3.433 2.897 6.016a2.911 2.911 0 01-2.909 2.909z" fill="#f5ce85"></path><path d="M11.071 19.612c1.009 1.202 2.384 3.279 2.384 5.252 0 1.328-1.081 2.409-2.409 2.409s-2.409-1.081-2.409-2.409c-.001-1.94 1.512-4.11 2.434-5.252m-.026-1.497s-3.409 3.524-3.409 6.75a3.409 3.409 0 106.818 0c.001-3.497-3.409-6.75-3.409-6.75z" fill="#967a44"></path></g><g><path d="M9.682 37.319c-1.604 0-2.909-1.305-2.909-2.909s1.305-2.909 2.909-2.909c2.583 0 5.092 2.052 6.016 2.897-.975.842-3.625 2.921-6.016 2.921z" fill="#f5ce85"></path><path d="M9.682 32.001c2.09 0 4.162 1.472 5.248 2.387-1.143.922-3.309 2.431-5.248 2.431-1.328 0-2.409-1.081-2.409-2.409s1.08-2.409 2.409-2.409m0-1a3.409 3.409 0 100 6.818c3.226 0 6.75-3.409 6.75-3.409s-3.254-3.409-6.75-3.409z" fill="#967a44"></path></g><g><path d="M5.591 33.228a2.912 2.912 0 01-2.909-2.908c0-2.392 2.079-5.041 2.921-6.016.845.924 2.897 3.432 2.897 6.015a2.912 2.912 0 01-2.909 2.909z" fill="#f5ce85"></path><path d="M5.616 25.067C6.625 26.269 8 28.346 8 30.319c0 1.328-1.081 2.409-2.409 2.409s-2.409-1.081-2.409-2.409c0-1.941 1.512-4.11 2.434-5.252m-.025-1.498s-3.409 3.524-3.409 6.75a3.409 3.409 0 106.818 0c0-3.497-3.409-6.75-3.409-6.75z" fill="#967a44"></path></g></svg>