<svg viewBox="0 0 40 40" xmlns="http://www.w3.org/2000/svg"><circle cx="34.5" cy="31.5" r="4" fill="#b6c9d6"></circle><path d="M34.5 28c1.93 0 3.5 1.57 3.5 3.5S36.43 35 34.5 35 31 33.43 31 31.5s1.57-3.5 3.5-3.5m0-1a4.5 4.5 0 100 9 4.5 4.5 0 000-9z" fill="#788b9c"></path><circle cx="34.5" cy="31.5" r="1" fill="#b6c9d6"></circle><path d="M34.5 31a.5.5 0 110 1 .5.5 0 010-1m0-1a1.5 1.5 0 10.001 3.001A1.5 1.5 0 0034.5 30z" fill="#788b9c"></path><path d="M34 15.5a3.49 3.49 0 01-2.928-1.592l-.148-.227H19.85l-.145.136A2.48 2.48 0 0118 14.5c-1.378 0-2.5-1.121-2.5-2.5s1.122-2.5 2.5-2.5c.175 0 .362.023.57.072l.478.112.121-.476A3.582 3.582 0 0122.636 6.5c.614 0 1.211.165 1.777.49l.437.251.248-.438C25.9 5.382 27.396 4.5 29 4.5a4.51 4.51 0 014.41 3.608l.083.413.45-.013.074-.008c1.913 0 3.483 1.57 3.483 3.5s-1.57 3.5-3.5 3.5z" fill="#a6714e"></path><path d="M29 5a4.009 4.009 0 013.92 3.207l.166.824.84-.021.115-.008.01-.002A3.004 3.004 0 0137 12c0 1.654-1.346 3-3 3a2.99 2.99 0 01-2.509-1.365l-.296-.453H19.652l-.289.271A1.984 1.984 0 0118 14c-1.103 0-2-.897-2-2s.897-2 2-2c.137 0 .286.019.456.059l.956.224.242-.951A3.08 3.08 0 0122.636 7c.524 0 1.038.143 1.528.424l.874.502.496-.877A3.998 3.998 0 0129 5m0-1c-1.869 0-3.479 1.038-4.337 2.557A4.046 4.046 0 0022.636 6a4.082 4.082 0 00-3.952 3.086A2.959 2.959 0 0018 9a3 3 0 100 6c.794 0 1.511-.314 2.048-.818h10.605A3.992 3.992 0 0034 16a4 4 0 000-8c-.034 0-.066.009-.1.01A5 5 0 0029 4z" fill="#7a4f34"></path><path d="M34.5 31.5l-5-6s-2.1 1.759-4.467 3.697c-2.378 1.948-4.163 1.852-5.438-1.447-.956-2.473-1.731-4.705-1.731-4.705L7.34 13.837a1.365 1.365 0 00-.898-.337h-.851" fill="none" stroke="#8b75a1" stroke-linecap="round" stroke-miterlimit="10"></path><path fill="none" stroke="#36404d" stroke-linecap="round" stroke-miterlimit="10" d="M3.715 13.5H1.5"></path><path fill="none" stroke="#36404d" stroke-miterlimit="10" d="M6.442 13.5H2.864"></path><g><path d="M30.818 25.197c-.121 0-.242-.01-.364-.031l-11.935-2.049a2.134 2.134 0 01-1.69-1.492L14.674 14.5h22.538l-4.455 9.466a2.152 2.152 0 01-1.939 1.231z" fill="#f78f8f"></path><path d="M36.424 15l-4.119 8.753a1.65 1.65 0 01-1.766.921l-11.935-2.049a1.637 1.637 0 01-1.296-1.145L15.347 15h21.077M38 14H14l2.35 7.769a2.646 2.646 0 002.084 1.841l11.935 2.049a2.647 2.647 0 002.841-1.481L38 14z" fill="#c74343"></path></g><g><path d="M14.5 14.5a1.001 1.001 0 010-2h23a1.001 1.001 0 010 2h-23z" fill="#f78f8f"></path><path d="M37.5 13a.5.5 0 010 1h-23a.5.5 0 010-1h23m0-1h-23a1.5 1.5 0 000 3h23a1.5 1.5 0 000-3z" fill="#c74343"></path></g></svg>