<svg viewBox="0 0 40 40" xmlns="http://www.w3.org/2000/svg"><path d="M20 34.307c-.386 0-.785-.019-1.21-.056l-.884-8.189-.28-.111a6.427 6.427 0 01-1.591-.92l-.236-.187-7.526 3.326a14.393 14.393 0 01-1.221-2.092l6.655-4.862-.043-.298a6.237 6.237 0 01-.074-.917c0-.276.024-.576.074-.916l.045-.299-6.656-4.863c.339-.715.747-1.417 1.221-2.092l7.526 3.326.236-.187a6.36 6.36 0 011.591-.92l.28-.111.884-8.189a13.137 13.137 0 012.419-.001l.884 8.189.28.111a6.427 6.427 0 011.591.92l.236.187 7.526-3.326c.474.677.883 1.378 1.221 2.092l-6.655 4.862.043.298c.051.348.074.64.074.917 0 .276-.024.576-.074.916l-.045.299 6.656 4.863a14.325 14.325 0 01-1.221 2.092L24.2 24.843l-.236.187a6.36 6.36 0 01-1.591.92l-.28.111-.884 8.189c-.424.039-.823.057-1.209.057z" fill="#f5ce85"></path><path d="M20 6.193c.245 0 .496.008.758.024l.806 7.476.065.599.56.223c.526.21 1.019.495 1.466.848l.473.374.551-.244 6.87-3.036c.283.429.539.867.766 1.31l-6.073 4.437-.485.354.085.595c.046.328.068.597.068.847 0 .252-.022.521-.069.844l-.087.596.487.356 6.073 4.437c-.227.444-.483.882-.765 1.31l-6.87-3.036-.551-.244-.473.374c-.447.353-.94.638-1.466.848l-.56.223-.065.599-.806 7.476a12.373 12.373 0 01-1.515 0l-.806-7.476-.065-.599-.56-.223a5.884 5.884 0 01-1.466-.848l-.473-.374-.551.244-6.87 3.036a13.738 13.738 0 01-.766-1.31l6.073-4.437.485-.354-.085-.595A5.919 5.919 0 0114.09 20c0-.252.022-.521.069-.844l.087-.596-.487-.356-6.073-4.437c.227-.444.483-.881.765-1.31l6.87 3.036.551.244.473-.374c.447-.353.94-.638 1.466-.848l.559-.223.065-.599.806-7.476c.263-.016.514-.024.759-.024m0-1c-.563 0-1.116.038-1.663.1l-.894 8.293a6.877 6.877 0 00-1.716.992L8.105 11.21a14.74 14.74 0 00-1.675 2.877l6.74 4.925c-.047.324-.08.653-.08.989s.033.665.079.989l-6.74 4.925a14.8 14.8 0 001.675 2.877l7.622-3.368a6.859 6.859 0 001.716.992l.894 8.293c.548.061 1.102.1 1.664.1s1.116-.038 1.663-.1l.894-8.293a6.877 6.877 0 001.716-.992l7.622 3.368a14.74 14.74 0 001.675-2.877l-6.74-4.925c.047-.324.08-.652.08-.989s-.033-.665-.079-.989l6.74-4.925a14.8 14.8 0 00-1.675-2.877l-7.622 3.368a6.859 6.859 0 00-1.716-.992l-.894-8.293c-.548-.062-1.101-.1-1.664-.1z" fill="#967a44"></path><circle cx="20" cy="20" r="3" fill="#967a44"></circle><path d="M20 38.5C9.799 38.5 1.5 30.201 1.5 20S9.799 1.5 20 1.5 38.5 9.799 38.5 20 30.201 38.5 20 38.5zm0-31C13.107 7.5 7.5 13.107 7.5 20S13.107 32.5 20 32.5 32.5 26.893 32.5 20 26.893 7.5 20 7.5z" fill="#c8d1db"></path><path d="M20 2c9.925 0 18 8.075 18 18s-8.075 18-18 18S2 29.925 2 20 10.075 2 20 2m0 31c7.168 0 13-5.832 13-13S27.168 7 20 7 7 12.832 7 20s5.832 13 13 13m0-32C9.507 1 1 9.507 1 20s8.507 19 19 19 19-8.507 19-19S30.493 1 20 1zm0 31c-6.627 0-12-5.373-12-12S13.373 8 20 8s12 5.373 12 12-5.373 12-12 12z" fill="#66798f"></path><circle transform="rotate(-45.001 20 20)" cx="20" cy="20" fill="none" stroke="#66798f" stroke-width="1.6" stroke-miterlimit="10" stroke-dasharray="4,5" r="17.5"></circle></svg>