<svg viewBox="0 0 40 40" xmlns="http://www.w3.org/2000/svg"><path d="M29.379 25.172v-2c1.495 0 1.613-1.499 1.622-1.67L31 15h2v6.552c-.063 1.285-.899 3.62-3.621 3.62z" fill="#c74343"></path><path fill="#ab3434" d="M15 19h10v5H15z"></path><path d="M4.391 38.5L3.5 34.941c.012-.596.217-5.748 3.658-9.203C9.299 23.59 12.273 22.5 16 22.5l8.045-.034c3.722 0 6.691 1.091 8.823 3.242 3.443 3.475 3.622 8.64 3.631 9.232l-.89 3.56H4.391z" fill="#f78f8f"></path><path d="M24.045 22.966c3.578 0 6.423 1.038 8.457 3.083 3.214 3.232 3.475 8.058 3.496 8.835L35.219 38H4.781l-.779-3.114c.024-.785.304-5.581 3.517-8.8C9.561 24.038 12.415 23 16.004 23l8.041-.034m-.002-1L16 22C2.927 22 3 35 3 35l1 4h32l1-4s.116-13.034-12.957-13.034z" fill="#c74343"></path><path d="M20 32.5c-1.93 0-3.5-1.57-3.5-3.5s1.57-3.5 3.5-3.5 3.5 1.57 3.5 3.5-1.57 3.5-3.5 3.5z" fill="#ffeea3"></path><path d="M20 26c1.654 0 3 1.346 3 3s-1.346 3-3 3-3-1.346-3-3 1.346-3 3-3m0-1a4 4 0 100 8 4 4 0 000-8zM4.391 38.5l-.75-3h32.718l-.75 3z" fill="#c74343"></path><path d="M35.719 36l-.5 2H4.781l-.5-2h31.438M37 35H3l1 4h32l1-4z" fill="#ab3434"></path><path fill="#c74343" d="M30 14h4v1h-4zM33 1h1v5h-1z"></path><g><path d="M16.871 20.5a2.373 2.373 0 01-2.371-2.37v-.259a2.373 2.373 0 012.371-2.371h6.258a2.374 2.374 0 012.371 2.371v.259a2.373 2.373 0 01-2.371 2.37h-6.258z" fill="#f78f8f"></path><path d="M23.129 16c1.032 0 1.871.839 1.871 1.871v.258A1.873 1.873 0 0123.129 20h-6.258A1.873 1.873 0 0115 18.129v-.258c0-1.032.839-1.871 1.871-1.871h6.258m0-1h-6.258A2.88 2.88 0 0014 17.871v.258A2.88 2.88 0 0016.871 21h6.258A2.88 2.88 0 0026 18.129v-.258A2.88 2.88 0 0023.129 15z" fill="#c74343"></path></g><path d="M22.517 2c-2.168 0-3.779 1.757-4.164 4.31L17 15h6l-1.793-8.69c0-.723.588-1.31 1.31-1.31H33V2H22.517zM24 30h-8a1 1 0 010-2h8a1 1 0 010 2z" fill="#c74343"></path></svg>