<svg viewBox="0 0 40 40" xmlns="http://www.w3.org/2000/svg"><path d="M24.282 28.696c-2.549-.001-6.458-4.643-8.317-7.196H25.5v-5h14v7.013c-2.178.08-10.741.634-13.799 4.458-.39.488-.855.725-1.419.725z" fill="#8bb7f0"></path><path d="M39 17v6.035c-2.802.145-10.698.883-13.69 4.624-.297.372-.615.537-1.029.537-1.951 0-5.146-3.347-7.325-6.196H26v-5h13m1-1H25v5H15s5.553 8.196 9.282 8.196c.679 0 1.296-.271 1.809-.913C29.424 24.117 40 24 40 24v-8z" fill="#4e7ab5"></path><g fill="#4e7ab5"><path d="M3.492 25.13C.84 24.246.5 22.915.5 21.854c0-1.328 1.062-2.368 2.417-2.368h4.946c.027.503.063 1.37.063 2.368 0 1.542-.917 3.979-2.021 4.08l-2.413-.804zM3 20.5c-.827 0-1.5.673-1.5 1.5s.673 1.5 1.5 1.5 1.5-.673 1.5-1.5-.673-1.5-1.5-1.5z"></path><path d="M7.386 19.987c.021.493.04 1.145.04 1.867 0 1.426-.826 3.362-1.483 3.566l-2.293-.765c-1.769-.59-2.378-1.349-2.57-2.095A2.004 2.004 0 003 24c1.103 0 2-.897 2-2s-.897-2-2-2a2.002 2.002 0 00-1.999 1.94L1 21.854c0-1.047.842-1.867 1.917-1.867h4.469m.947-1H2.917C1.306 18.987 0 20.242 0 21.854s.833 2.917 3.333 3.75l2.5.833c1.611 0 2.592-2.972 2.592-4.583s-.092-2.867-.092-2.867zM3 23a1 1 0 110-2 1 1 0 010 2z"></path></g><path d="M16 35.5c-5.79 0-10.5-4.71-10.5-10.5S10.21 14.5 16 14.5 26.5 19.21 26.5 25 21.79 35.5 16 35.5z" fill="#8bb7f0"></path><path d="M16 15c5.514 0 10 4.486 10 10s-4.486 10-10 10S6 30.514 6 25s4.486-10 10-10m0-1C9.925 14 5 18.925 5 25s4.925 11 11 11 11-4.925 11-11-4.925-11-11-11z" fill="#4e7ab5"></path><path d="M22.5 25a6.5 6.5 0 11-6.5-6.5" fill="none" stroke="#4e7ab5" stroke-miterlimit="10"></path><path d="M29 4l-5 9M24 4l-2 7" fill="none" stroke="#b0c1d4" stroke-miterlimit="10"></path></svg>