<svg viewBox="0 0 40 40" xmlns="http://www.w3.org/2000/svg"><path d="M1.511 38.5c.263-6.11 5.316-11 11.489-11h8c6.173 0 11.227 4.89 11.489 11H1.511z" fill="#8bb7f0"></path><path d="M21 28c5.729 0 10.448 4.401 10.955 10H2.045C2.552 32.401 7.271 28 13 28h8m0-1h-8C6.373 27 1 32.373 1 39h32c0-6.627-5.373-12-12-12z" fill="#4e7ab5"></path><path d="M17 30.5c-3.219 0-4.309-2.102-4.5-2.537V22.5h9v5.464c-.188.43-1.278 2.536-4.5 2.536z" fill="#deb974"></path><path d="M21 23v4.854c-.241.489-1.262 2.146-4 2.146-2.73 0-3.756-1.657-4-2.147V23h8m1-1H12v6.062S13.066 31 17 31s5-2.938 5-2.938V22z" fill="#967a44"></path><path d="M17 25.5a2.457 2.457 0 01-1.641-.631l-.09-.079-.117-.029A7.487 7.487 0 019.5 17.5V8.201a3.316 3.316 0 013.312-3.312h8.375a3.315 3.315 0 013.312 3.312V17.5a7.487 7.487 0 01-5.652 7.261l-.117.029-.09.079A2.453 2.453 0 0117 25.5z" fill="#f5ce85"></path><path d="M21.187 5.389A2.816 2.816 0 0124 8.202V17.5a6.988 6.988 0 01-5.275 6.776l-.233.059-.181.159c-.263.231-.703.506-1.311.506s-1.048-.275-1.311-.506l-.181-.159-.233-.059A6.988 6.988 0 0110 17.5V8.202a2.816 2.816 0 012.813-2.813h8.374m0-1h-8.375A3.813 3.813 0 009 8.202V17.5c0 3.737 2.566 6.866 6.029 7.745.528.464 1.213.755 1.971.755s1.443-.291 1.971-.755C22.434 24.366 25 21.237 25 17.5V8.202a3.813 3.813 0 00-3.813-3.813z" fill="#967a44"></path><g><path d="M25 25.5c-1.767 0-3.411-.911-4.27-1.484 1.045-.658 2.77-2.223 2.77-5.373v-4.724c0-2.41-2.086-4.223-2.175-4.299l-.43-.368-.312.473c-.021.032-2.135 3.156-6.651 3.78-2.358.325-3.432 2.109-3.432 3.629v1.509c0 3.193 1.708 4.734 2.757 5.381-.859.573-2.493 1.476-4.257 1.476-1.786 0-3.378-.935-4.16-1.484.882-.695 2.445-2.24 2.445-4.444 0-.928-.176-1.909-.362-2.948C6.715 15.463 6.5 14.263 6.5 13c0-8.488 5.387-11.5 10-11.5 3.802 0 5.031 2.676 5.043 2.702l.131.298H22c3.495 0 5.5 2.733 5.5 7.5 0 1.342-.268 2.836-.528 4.281-.243 1.353-.472 2.631-.472 3.719 0 1.845 1.459 2.852 2.642 3.281-.708.811-2.214 2.219-4.142 2.219z" fill="#a6714e"></path><path d="M16.5 2c3.427 0 4.543 2.315 4.586 2.405l.263.595H22c3.224 0 5 2.486 5 7 0 1.298-.264 2.769-.52 4.193C26.233 17.569 26 18.868 26 20c0 1.764 1.141 2.855 2.289 3.45C27.545 24.165 26.38 25 25 25c-1.274 0-2.497-.524-3.357-1.01C22.732 23.107 24 21.472 24 18.643v-4.724c0-2.638-2.254-4.596-2.35-4.678l-.864-.739-.623.951c-.019.03-1.985 2.961-6.3 3.557-2.654.366-3.863 2.394-3.863 4.123v1.509c0 2.86 1.252 4.486 2.339 5.359-.854.483-2.066.999-3.339.999-1.313 0-2.525-.556-3.331-1.041.942-.88 2.117-2.379 2.117-4.388 0-.972-.18-1.975-.37-3.036C7.211 15.396 7 14.218 7 13c0-8.119 5.118-11 9.5-11m0-1C11.212 1 6 4.694 6 13c0 2.454.786 4.682.786 6.571C6.786 22.327 4 24 4 24s2.254 2 5 2c2.794 0 5.211-2.056 5.211-2.056S11 22.918 11 18.643v-1.509c0-1.354.942-2.849 3-3.134 4.816-.665 7-4 7-4s2 1.711 2 3.919v4.724c0 4.194-3.214 5.302-3.214 5.302S22.225 26 25 26c3.005 0 5-3 5-3s-3-.535-3-3c0-2.19 1-5.352 1-8 0-5.761-2.766-8-6-8 0 0-1.328-3-5.5-3z" fill="#7a4f34"></path></g><circle cx="35" cy="21" r="2" fill="#36404d"></circle><path d="M35 17v-2c0-2.143 4-3.499 4-7 0-2.214-1.791-4-4-4h0a4 4 0 00-4 4v1" fill="none" stroke="#36404d" stroke-width="2" stroke-miterlimit="10"></path></svg>