<svg viewBox="0 0 40 40" xmlns="http://www.w3.org/2000/svg"><path d="M20 39.5c-4.1 0-8.031-1.762-10.786-4.834l-.149-.166H5A4.505 4.505 0 01.5 30V20c0-2.481 2.019-4.5 4.5-4.5h4.065l.149-.166C11.969 12.262 15.9 10.5 20 10.5s8.031 1.762 10.786 4.834l.149.166H35c2.481 0 4.5 2.019 4.5 4.5v10c0 2.481-2.019 4.5-4.5 4.5h-4.065l-.149.166A14.516 14.516 0 0120 39.5z" fill="#8bb7f0"></path><path d="M20 11c3.958 0 7.753 1.701 10.413 4.668l.299.332H35c2.206 0 4 1.794 4 4v10c0 2.206-1.794 4-4 4h-4.288l-.298.332C27.753 37.299 23.958 39 20 39s-7.753-1.701-10.413-4.668L9.288 34H5c-2.206 0-4-1.794-4-4V20c0-2.206 1.794-4 4-4h4.288l.298-.332A14.015 14.015 0 0120 11m0-1c-4.437 0-8.412 1.938-11.158 5H5a5 5 0 00-5 5v10a5 5 0 005 5h3.842c2.746 3.062 6.721 5 11.158 5s8.412-1.938 11.158-5H35a5 5 0 005-5V20a5 5 0 00-5-5h-3.842c-2.746-3.062-6.721-5-11.158-5z" fill="#4e7ab5"></path><path d="M11.948 29.689H9.689l-.991-5.838-.968 5.838H5.495l-2.12-9.475H5.91l.737 5.542.968-5.542H9.85l.945 5.542.76-5.566h2.489l-2.096 9.499zm4.32-10.045c.732 0 1.325.548 1.325 1.225s-.594 1.225-1.325 1.225c-.732 0-1.325-.548-1.325-1.225 0-.675.592-1.225 1.325-1.225zm-1.163 3.143h2.28v6.852h-2.28v-6.852zM39 20v10c0 2.21-1.79 4-4 4H17.29A7.975 7.975 0 0020 28v-8c0-2.21 1.79-4 4-4h11c2.21 0 4 1.79 4 4z" fill="#fff"></path><path fill="#8bb7f0" d="M32.986 22.812h2.282v6.852h-2.282z"></path><ellipse cx="34.149" cy="20.894" rx="1.325" ry="1.225" fill="#8bb7f0"/><path fill="#8bb7f0" d="M24 20.238h7.58v2.226h-5.138v2.103h4.632v2.202h-4.632v2.871H24z"></path><g fill="#4e7ab5"><path d="M3.264 7.688V.104h2.005c.438 0 .836.072 1.195.216s.667.353.922.625.453.608.594 1.006c.14.397.211.851.211 1.361V4.49c0 .51-.07.964-.208 1.359-.139.396-.337.73-.594 1.003s-.566.48-.927.622a3.282 3.282 0 01-1.209.214H3.264zM4.795 1.38v5.036h.458c.271 0 .497-.035.677-.107.18-.072.325-.185.432-.341s.185-.355.23-.598c.045-.244.068-.537.068-.88V3.302c0-.348-.023-.642-.068-.885s-.122-.442-.229-.594-.251-.264-.43-.336a1.787 1.787 0 00-.664-.107h-.474zM11.422 7.688H9.891V.104h1.531v7.584zM15.538 4.917h-.76v2.771h-1.531V.104h2.443c.378 0 .716.049 1.013.148s.549.245.755.438c.206.193.365.431.474.716s.164.615.164.99c0 .275-.025.522-.076.742-.05.22-.123.417-.219.589s-.211.322-.346.451-.288.24-.458.333l1.328 3.104v.073h-1.646l-1.141-2.771zm-.76-1.276h.87c.305 0 .535-.102.688-.305.153-.203.229-.475.229-.815 0-.173-.016-.331-.049-.471s-.085-.26-.156-.359a.706.706 0 00-.273-.229.911.911 0 00-.396-.081h-.911v2.26zM23.598 4.406h-2.385v2.01h2.823v1.271h-4.354V.104h4.344V1.38h-2.812v1.792h2.385v1.234zM30.59 5.161c-.038.865-.281 1.52-.729 1.964-.448.444-1.08.667-1.896.667-.42 0-.795-.069-1.125-.208a2.132 2.132 0 01-.833-.62c-.226-.275-.398-.613-.518-1.018s-.18-.871-.18-1.398V3.255c0-.527.062-.995.185-1.401s.301-.746.534-1.021.514-.482.844-.622.7-.211 1.114-.211c.826 0 1.454.23 1.883.693.429.462.673 1.125.732 1.99h-1.536a3.789 3.789 0 00-.07-.68 1.093 1.093 0 00-.185-.435.67.67 0 00-.326-.229 1.54 1.54 0 00-.497-.068c-.205 0-.38.035-.523.104a.817.817 0 00-.352.336c-.09.155-.157.358-.201.609s-.065.56-.065.924v1.302c0 .354.018.656.052.906.035.25.096.454.182.612a.814.814 0 00.344.346c.143.073.323.109.542.109.188 0 .348-.02.482-.06.133-.04.244-.111.331-.211s.153-.24.198-.417a3.28 3.28 0 00.083-.672h1.53zM36.826 1.38h-1.875v6.307h-1.536V1.38h-1.844V.104h5.255V1.38z"></path></g></svg>