<svg viewBox="0 0 40 40" xmlns="http://www.w3.org/2000/svg"><path d="M20 35.5c-4.1 0-8.031-1.762-10.786-4.834l-.149-.166H5A4.505 4.505 0 01.5 26V16c0-2.481 2.019-4.5 4.5-4.5h4.065l.149-.166C11.969 8.262 15.9 6.5 20 6.5s8.031 1.762 10.786 4.834l.149.166H35c2.481 0 4.5 2.019 4.5 4.5v10c0 2.481-2.019 4.5-4.5 4.5h-4.065l-.149.166A14.516 14.516 0 0120 35.5z" fill="#8bb7f0"></path><path d="M20 7c3.958 0 7.753 1.701 10.414 4.668l.298.332H35c2.206 0 4 1.794 4 4v10c0 2.206-1.794 4-4 4h-4.288l-.298.332C27.753 33.299 23.958 35 20 35s-7.753-1.701-10.413-4.668L9.288 30H5c-2.206 0-4-1.794-4-4V16c0-2.206 1.794-4 4-4h4.288l.298-.332A14.015 14.015 0 0120 7m0-1c-4.437 0-8.412 1.938-11.158 5H5a5 5 0 00-5 5v10a5 5 0 005 5h3.842c2.746 3.062 6.721 5 11.158 5s8.412-1.938 11.158-5H35a5 5 0 005-5V16a5 5 0 00-5-5h-3.842C28.412 7.938 24.437 6 20 6z" fill="#4e7ab5"></path><path d="M11.948 25.689H9.689l-.991-5.838-.968 5.838H5.495l-2.12-9.475H5.91l.737 5.542.968-5.542H9.85l.945 5.542.76-5.566h2.489l-2.096 9.499zm4.32-10.045c.732 0 1.325.548 1.325 1.225s-.594 1.225-1.325 1.225c-.732 0-1.325-.548-1.325-1.225 0-.675.592-1.225 1.325-1.225zm-1.163 3.143h2.28v6.852h-2.28v-6.852zM39 16v10c0 2.21-1.79 4-4 4H17.29A7.975 7.975 0 0020 24v-8c0-2.21 1.79-4 4-4h11c2.21 0 4 1.79 4 4z" fill="#fff"></path><path fill="#8bb7f0" d="M32.986 18.812h2.282v6.852h-2.282z"></path><ellipse cx="34.149" cy="16.894" rx="1.325" ry="1.225" fill="#8bb7f0"/><path fill="#8bb7f0" d="M24 16.238h7.58v2.226h-5.138v2.103h4.632v2.202h-4.632v2.871H24z"></path></svg>