<svg viewBox="0 0 40 40" xmlns="http://www.w3.org/2000/svg"><path d="M20 39.5c-.66 0-1.278-.255-1.741-.718L1.218 21.741C.755 21.278.5 20.66.5 20s.255-1.278.718-1.741L18.259 1.218C18.722.755 19.34.5 20 .5s1.278.255 1.741.718l17.041 17.041c.463.463.718 1.081.718 1.741s-.255 1.278-.718 1.741L21.741 38.782A2.444 2.444 0 0120 39.5z" fill="#ffeea3"></path><path d="M20 1a1.95 1.95 0 011.388.571l17.041 17.041c.765.765.765 2.01 0 2.775L21.388 38.429A1.95 1.95 0 0120 39a1.952 1.952 0 01-1.388-.571L1.571 21.388a1.965 1.965 0 010-2.775L18.612 1.571A1.95 1.95 0 0120 1m0-1c-.759 0-1.519.288-2.095.864L.864 17.905a2.972 2.972 0 000 4.19l17.041 17.041c.576.576 1.336.864 2.095.864s1.519-.288 2.095-.864l17.041-17.041a2.972 2.972 0 000-4.19L22.095.864A2.955 2.955 0 0020 0z" fill="#ba9b48"></path><path d="M11 25l7 7c3.565-1.782 4-7 4-7s1.831 1.347 5.218.634c.891-.178 1.782.891 2.852 0 .696-.6.872-.242.931-.634.066-.441.713-1.644 0-2-2.139-1.248-5.218-5.465-7-6-2.317-.891-3.637.481-3.993.303-.356-.178-1.604-1.248-2.495-1.782-.891-.535-3.03-.713-3.387 0-.356.535.535 2.317 1.782 2.852C17.155 18.907 18 19 18 19s-2.901 5.644-7 6z" fill="#36404d"></path><path d="M23 17l-1-3s1.356-4.644 1-5-1.484 4.602-1.84 4.423c-.347-.298-.76-.582-1.116-.938-.357-.356.178-6.307-.179-6.485-.356-.178-.865 6-.865 6s-1.208-1.188-1.795-1.819C16.519 9.443 17.192 5 16.835 5c-.356 0-1.21 5.156-.522 5.894C16.83 11.447 20 15 20 15l1 3 2-1z" fill="#36404d"></path></svg>