<svg viewBox="0 0 40 40" xmlns="http://www.w3.org/2000/svg"><path fill="#ffeea3" d="M4.143 25.5l.871-1.302-4.181-3.135 4.018-3.014-2.559-4.32 5.042-1.292-.736-4.83 4.984.837 1.031-5.214 4.251 2.846L20 1.896l3.014 4.017 4.321-2.559 1.293 5.048 4.772-.796-.775 5.04 5.208 1.03-2.847 4.251 4.181 3.136-4.018 3.013.843 1.424z"></path><path d="M20 2.729l2.344 3.126.538.717.772-.457 3.362-1.991 1.014 3.958.228.889.905-.151 3.638-.607-.598 3.882-.146.947.94.186 4.003.793-2.166 3.234-.527.788.758.569 3.268 2.451-3.126 2.344-.717.538.457.772.168.283H5.079l.087-.13.527-.788-.758-.569-3.268-2.451 3.126-2.344.717-.538-.457-.772-1.991-3.362 3.958-1.014.877-.225-.137-.894-.563-3.698 3.823.642.958.161.189-.953.792-4.002 3.234 2.166.788.527.569-.758L20 2.729m0-1.666l-3.251 4.335-4.48-3-1.083 5.474L6 7l.772 5.064-5.249 1.345 2.67 4.509L0 21.063l4.335 3.251L3.206 26h33.663l-1.062-1.793L40 21.063l-4.335-3.251 3-4.48-5.474-1.083L34 7l-5.001.834-1.345-5.249-4.509 2.67L20 1.063z" fill="#ba9b48"></path><path d="M12.563 31.5l1.934-16.441C14.959 12.838 18.144 12.5 20 12.5c1.473 0 4.958.255 5.513 2.614L27.438 31.5H12.563z" fill="#f78f8f"></path><path d="M20 13c1.048 0 4.484.158 5.014 2.179L26.875 31h-13.75l1.863-15.835C15.416 13.283 18.307 13 20 13m0-1c-2.946 0-5.542.792-6 3l-2 17h16l-2-17c-.5-2.125-3.054-3-6-3z" fill="#c74343"></path><path d="M4 38.5c-.827 0-1.5-.673-1.5-1.5V25c0-.827.673-1.5 1.5-1.5h32c.827 0 1.5.673 1.5 1.5v12c0 .827-.673 1.5-1.5 1.5H4z" fill="#f0edf7"></path><path d="M36 24c.551 0 1 .449 1 1v12c0 .551-.449 1-1 1H4c-.551 0-1-.449-1-1V25c0-.551.449-1 1-1h32m0-1H4a2 2 0 00-2 2v12a2 2 0 002 2h32a2 2 0 002-2V25a2 2 0 00-2-2z" fill="#8b75a1"></path><path d="M19.789 27l-2.192 8h-1.501s-1.625-6.093-1.64-6.377h-.022c-.019.265-1.663 6.377-1.663 6.377h-1.534L9 27h1.456s1.547 6.36 1.562 6.628h.028c.015-.19 1.796-6.628 1.796-6.628h1.367s1.609 6.341 1.635 6.616h.022C16.877 33.43 18.417 27 18.417 27h1.372zM22.333 35H21v-8h1.333v8zM30.833 35h-1.45s-3.82-5.84-3.883-6v6h-1.333v-8h1.545s3.743 6.143 3.788 6.232V27h1.333v8z" fill="#c74343"></path></svg>