<svg viewBox="0 0 40 40" xmlns="http://www.w3.org/2000/svg"><path fill="#b08159" d="M20 24.211l-10.542 6.32 6.325-10.532L9.476 9.448 20 15.785l10.542-6.319-6.325 10.532 6.325 10.533z"></path><path d="M10.931 10.908l8.553 5.151.515.31.515-.309 8.569-5.137-5.141 8.561-.309.515.309.515 5.141 8.561-8.569-5.137-.514-.31-.514.308-8.569 5.137 5.141-8.561.308-.514-.307-.514-5.128-8.576M8.02 7.988l7.18 12.01L8 31.988l12-7.194 12 7.194-7.2-11.99L32 8.008l-12 7.194L8.02 7.988z" fill="#704e34"></path><g fill="#f5ce85"><path d="M16.058 19.485l.308.514L20 20l-9.034-9.034zM19.486 23.936l.514-.308V20l-9.059 9.059zM20.514 16.06l-.514.308V20l9.068-9.068zM29.083 29.074l-5.14-8.561-.308-.513H20l9.059 9.059z"></path></g><path fill="#b08159" d="M16.412 23.588L2.062 20l14.35-3.588 3.618-14.35 3.557 14.35L37.938 20l-14.35 3.588L20 37.938z"></path><path d="M20.026 4.123L23.03 16.24l.145.584.583.146L35.877 20l-12.119 3.03-.582.146-.146.582L20 35.877l-3.03-12.119-.146-.582-.582-.146L4.123 20l12.119-3.03.581-.145.146-.58 3.057-12.122M20.034 0L16 16 0 20l16 4 4 16 4-16 16-4-16-4-3.966-16z" fill="#704e34"></path><g fill="#f5ce85"><path d="M16.243 23.03l.582.145L20 20H4.123zM23.03 23.757l.145-.582L20 20v15.877zM23.175 16.825L20 20h15.877l-12.12-3.03zM16.97 16.244l-.146.58L20 20V4.226z"></path></g></svg>