<svg viewBox="0 0 40 40" xmlns="http://www.w3.org/2000/svg"><path fill="#b0c1d4" d="M19.5 22.5h1v13h-1z"></path><path d="M20 23v12-12m1-1h-2v14h2V22z" fill="#66798f"></path><path d="M2.66 30.076l13.837-11.021L18.448 1.5h3.104l1.952 17.565 13.825 11.011-1.654 2.627-15.68-7.599-15.68 7.599-1.655-2.627zm17.832-8.972l.033-.341-.301-.209-.337.52.605.03z" fill="#c2e8ff"></path><path d="M21.105 2l1.879 16.914.046.413.325.259 13.312 10.603-1.178 1.87-15.059-7.298-.436-.211-.436.211-15.059 7.298-1.178-1.87 13.324-10.612.325-.259.046-.413L18.895 2h2.21M22 1h-4l-1.977 17.794-14.024 11.17 2.131 3.385 15.865-7.688 15.864 7.688 2.131-3.385-14.012-11.16L22 1zm-2.006 20.056L19.989 21l-.052-.032L20 21l-.006.056z" fill="#4e7ab5"></path><path d="M12.5 38.5V37c0-.827.673-1.5 1.5-1.5h12c.827 0 1.5.673 1.5 1.5v1.5h-15z" fill="#b0c1d4"></path><path d="M26 36c.551 0 1 .449 1 1v1H13v-1c0-.551.449-1 1-1h12m0-1H14a2 2 0 00-2 2v2h16v-2a2 2 0 00-2-2z" fill="#66798f"></path><path fill="#8bb7f0" d="M23.006 19.11L21.105 2H20v19l3.039-1.671zM19.997 24.551l15.493 7.508.588-.935L20 21zM16.969 19.322L3.322 30.184l.589.94L19.989 21z"></path><g><circle cx="20" cy="21" r="2" fill="#36404d"></circle></g></svg>