<svg viewBox="0 0 40 40" xmlns="http://www.w3.org/2000/svg"><path d="M8 27.492c-4.136 0-7.5-3.364-7.5-7.5a7.487 7.487 0 015.661-7.263l.406-.103-.03-.418a9.629 9.629 0 01-.037-.716c0-5.514 4.486-10 10-10a9.943 9.943 0 019.736 7.752l.111.481.483-.105c.39-.085.783-.128 1.17-.128a5.465 5.465 0 015.426 4.645l.058.37.371.049a6.511 6.511 0 015.645 6.437c0 3.584-2.916 6.5-6.5 6.5H8z" fill="#e1ebf2"></path><path d="M16.5 1.992a9.447 9.447 0 019.249 7.363l.221.962.965-.209A5.128 5.128 0 0128 9.992a4.969 4.969 0 014.932 4.222l.116.739.742.098A6.01 6.01 0 0139 20.992c0 3.308-2.692 6-6 6H8c-3.86 0-7-3.14-7-7a6.986 6.986 0 015.283-6.778l.812-.205-.059-.835-.006-.082c-.015-.199-.03-.397-.03-.6 0-5.238 4.262-9.5 9.5-9.5m0-1C10.701.992 6 5.693 6 11.492c0 .254.02.503.038.752C2.57 13.121 0 16.252 0 19.992a8 8 0 008 8h25a7 7 0 007-7c0-3.553-2.65-6.481-6.08-6.933a5.996 5.996 0 00-7.196-4.928C25.651 4.471 21.486.992 16.5.992z" fill="#b0c1d4"></path><path d="M20.5 24a3.5 3.5 0 113.5 3.5H9M7 30.5h23a2.5 2.5 0 11-2.5 2.5" fill="none" stroke="#4e7ab5" stroke-miterlimit="10"></path><path d="M17.5 35.5a2 2 0 102-2H5" fill="none" stroke="#4e7ab5" stroke-miterlimit="10"></path></svg>