<svg viewBox="0 0 40 40" xmlns="http://www.w3.org/2000/svg"><path fill="#c8d1db" stroke="#66798f" stroke-miterlimit="10" d="M4 15.5h9.333M4 15.5l9 9.5M4 15.5L13 6"></path><path fill="#f78f8f" d="M12.5 5.577l27 3.857v12.132l-27 3.857z"></path><path d="M13 6.153l26 3.714v11.265l-26 3.714V6.153M12 5v21l28-4V9L12 5z" fill="#c74343"></path><path fill="#c8d1db" d="M1.5 5.833h3V39.5h-3z"></path><path d="M4 6.333V39H2V6.333h2m1-1H1V40h4V5.333z" fill="#66798f"></path><path fill="#c8d1db" d="M.5 12.5h5v6h-5z"></path><path d="M5 13v5H1v-5h4m1-1H0v7h6v-7z" fill="#66798f"></path><path fill="#c8d1db" d="M2 38h2v2H2z"></path><g><circle cx="2.999" cy="3.999" r="2.5" fill="#f78f8f"></circle><path d="M2.999 2C4.102 2 5 2.897 5 3.999A2.004 2.004 0 012.999 6 2.003 2.003 0 011 3.999C1 2.897 1.897 2 2.999 2m0-1a3 3 0 10.002 6A3 3 0 003 1z" fill="#c74343"></path></g><g fill="#fff"><path d="M24 23.276V7.724l-5-.714v16.98zM35 21.704V9.296l-5-.714v13.836z"></path></g></svg>