<svg viewBox="0 0 40 40" xmlns="http://www.w3.org/2000/svg"><path fill="#b0c1d4" d="M16.5 28.5h7v6h-7z"></path><path d="M23 29v5h-6v-5h6m1-1h-8v7h8v-7z" fill="#66798f"></path><path fill="#c2e8ff" d="M1.5 4.5h37v26h-37z"></path><path d="M38 5v25H2V5h36m1-1H1v27h38V4z" fill="#66798f"></path><path fill="#66798f" d="M1 26h38v5H1zM31 37H9a3 3 0 013-3h16a3 3 0 013 3z"></path><path fill="#ffeea3" d="M34 28h3v1h-3z"></path><path fill="#36404d" d="M20 15h7V8l-7 1zM20 16v6l7 1v-7zM12 10.143V15h7V9.143zM19 21.857V16h-7v4.857z"></path></svg>