<svg viewBox="0 0 40 40" xmlns="http://www.w3.org/2000/svg"><path d="M12.5 38.5v-.278c0-.944.679-1.77 1.651-2.007C16.874 35.549 18.5 33.974 18.5 32c0-3.579-1.589-14.286-1.989-16.929h6.979C23.088 17.708 21.5 28.372 21.5 32c0 1.977 1.625 3.554 4.347 4.217.974.237 1.653 1.063 1.653 2.009v.274h-15z" fill="#c2e8ff"></path><path d="M22.908 15.571C22.403 18.928 21 28.562 21 32c0 2.223 1.767 3.981 4.728 4.703.68.166 1.161.673 1.255 1.297H13.016c.093-.625.573-1.133 1.254-1.3C17.232 35.977 19 34.22 19 32c0-3.391-1.404-13.064-1.908-16.429h5.816m1.163-1h-8.143S17.999 27.984 17.999 32c0 2.022-1.915 3.227-3.967 3.729-1.173.287-2.032 1.285-2.032 2.493V39h16v-.774c0-1.209-.86-2.208-2.035-2.494C23.911 35.23 22 34.022 22 32c0-4.073 2.071-17.429 2.071-17.429z" fill="#7496c4"></path><path d="M20 26.5c-9.904 0-13.5-6.213-13.5-10.389C6.5 12.333 8.67 4.384 9.495 1.5h21.009c.825 2.888 2.996 10.846 2.996 14.611C33.5 20.287 29.904 26.5 20 26.5z" fill="#c2e8ff"></path><path d="M30.127 2C31.553 7.036 33 13.18 33 16.111 33 20.086 29.538 26 20 26S7 20.086 7 16.111C7 13.168 8.447 7.028 9.872 2h20.255m.754-1H9.119C8.439 3.35 6 12.065 6 16.111 6 20.812 10.118 27 20 27s14-6.208 14-10.889C34 12.082 31.56 3.353 30.881 1z" fill="#7496c4"></path><g><path d="M20 26.5c-9.904 0-13.5-6.213-13.5-10.389 0-1.611.398-4.17 1.184-7.611h24.631c.786 3.446 1.186 6.005 1.186 7.611C33.5 20.287 29.904 26.5 20 26.5z" fill="#f78f8f"></path><path d="M31.914 9C32.626 12.176 33 14.624 33 16.111 33 20.086 29.538 26 20 26S7 20.086 7 16.111C7 14.619 7.374 12.17 8.084 9h23.83m.798-1H7.286C6.599 10.955 6 14.106 6 16.111 6 20.812 10.118 27 20 27s14-6.208 14-10.889c0-1.998-.6-5.152-1.288-8.111z" fill="#c74343"></path></g><path d="M11.5 16.5l2-11" fill="none" stroke="#f7fcff" stroke-linecap="round" stroke-miterlimit="10"></path></svg>