<svg viewBox="0 0 40 40" xmlns="http://www.w3.org/2000/svg"><path d="M14 38.5c-.827 0-1.5-.673-1.5-1.5V18.736a6.495 6.495 0 013.398-5.712l1.602-.87V3.5h5v8.654l1.602.87a6.495 6.495 0 013.398 5.712V37c0 .827-.673 1.5-1.5 1.5H14z" fill="#bae0bd"></path><path d="M22 4v8.452l.523.284 1.34.727A5.996 5.996 0 0127 18.736V37c0 .551-.449 1-1 1H14c-.551 0-1-.449-1-1V18.736a5.994 5.994 0 013.137-5.273l1.34-.727.523-.284V4h4m1-1h-6v8.857l-1.34.727A7.002 7.002 0 0012 18.736V37a2 2 0 002 2h12a2 2 0 002-2V18.736a7.001 7.001 0 00-3.66-6.152L23 11.857V3z" fill="#5e9c76"></path><path d="M17.5 10.5V2a.5.5 0 01.5-.5h4a.5.5 0 01.5.5v8.5h-5z" fill="#f78f8f"></path><path d="M22 2v8h-4V2h4m0-1h-4a1 1 0 00-1 1v9h6V2a1 1 0 00-1-1z" fill="#c74343"></path><path fill="none" stroke="#c74343" stroke-linejoin="round" stroke-miterlimit="10" d="M17 4.5h6"></path><g><path fill="#fff" d="M15 20h10v2H15z"></path></g><g><path fill="#fff" d="M15 24h10v8H15z"></path></g></svg>