<svg viewBox="0 0 40 40" xmlns="http://www.w3.org/2000/svg"><path fill="#ffeea3" d="M6.5 37.5v-35h18.293l8.707 8.707V37.5z"></path><path d="M24.586 3L33 11.414V37H7V3h17.586M25 2H6v36h28V11l-9-9z" fill="#ba9b48"></path><path fill="#fff" d="M24.5 11.5v-9h.293l8.707 8.707v.293z"></path><path d="M25 3.414L32.586 11H25V3.414M25 2h-1v10h10v-1l-9-9z" fill="#ba9b48"></path><path d="M9.938 26.554l-1.495-8.763h1.768l.43 3.497c.116 1.001.194 2.003.299 3.068h.039c.117-1.079.312-2.028.494-3.081l.624-3.484h1.378l.585 3.459c.156.987.312 1.963.416 3.106h.025c.117-1.144.222-2.08.339-3.094l.429-3.472h1.664l-1.547 8.763H13.63l-.52-2.873a46.05 46.05 0 01-.39-2.873h-.026c-.156 1.053-.299 2.028-.481 2.886l-.585 2.86h-1.69zM23.342 23.485a41.053 41.053 0 01-.092-2.898h-.025a38.006 38.006 0 01-.56 2.69l-.767 3.134h-1.196l-.728-3.081a35.335 35.335 0 01-.546-2.743h-.026c-.026.948-.091 2.054-.13 2.925l-.156 3.042H17.66l.624-8.763h1.807l.702 3.173c.234 1.104.455 2.08.611 3.067h.039c.13-.975.325-1.963.546-3.067l.702-3.173h1.794l.533 8.763h-1.521l-.155-3.069zM27.787 24.552l-.391 2.002h-1.65l1.897-8.763h2.041l1.703 8.763h-1.65l-.377-2.002h-1.573zm1.417-1.326l-.286-1.833c-.091-.533-.208-1.417-.286-1.989h-.039c-.091.585-.221 1.482-.312 1.989l-.325 1.833h1.248z" fill="#9e8236"></path></svg>