<svg viewBox="0 0 40 40" xmlns="http://www.w3.org/2000/svg"><path fill="#edd5f2" d="M6.5 37.5v-35h18.293l8.707 8.707V37.5z"></path><path d="M24.586 3L33 11.414V37H7V3h17.586M25 2H6v36h28V11l-9-9z" fill="#95709c"></path><path fill="#fff" d="M24.5 11.5v-9h.293l8.707 8.707v.293z"></path><path d="M25 3.414L32.586 11H25V3.414M25 2h-1v10h10v-1l-9-9zM9.626 26.554L8.247 18.47h1.631l.396 3.227c.108.924.181 1.847.276 2.83h.036c.107-.995.287-1.87.455-2.842l.576-3.215h1.271l.539 3.19c.145.912.288 1.812.384 2.866h.024c.107-1.055.204-1.919.312-2.854l.396-3.203h1.535l-1.428 8.084h-1.619l-.479-2.65a42.435 42.435 0 01-.36-2.65h-.023c-.145.971-.276 1.871-.444 2.662l-.539 2.639h-1.56zM21.828 22.368c0 3.046-1.079 4.281-2.614 4.281-1.835 0-2.555-1.942-2.555-4.161 0-2.207.875-4.114 2.674-4.114 1.943 0 2.495 2.147 2.495 3.994zm-3.538.144c0 1.835.348 2.771.983 2.771.672 0 .924-1.199.924-2.842 0-1.416-.216-2.699-.936-2.699-.623-.001-.971 1.03-.971 2.77zM22.946 18.47h3.514v1.368h-1.942v2.074h1.823v1.308h-1.823v3.334h-1.571V18.47zM27.771 18.47h3.514v1.368h-1.942v2.074h1.823v1.308h-1.823v3.334h-1.571V18.47z" fill="#95709c"></path></svg>