<svg viewBox="0 0 40 40" xmlns="http://www.w3.org/2000/svg"><path d="M31.003 15.498C30.393 15.354 27.5 12.804 27.5 9c0-3.726 4.604-7.19 5.473-7.485.58.383 2.527 3.678 2.527 7.485 0 3.68-3.767 6.366-4.497 6.498z" fill="#fff1e8"></path><path d="M32.878 2.118C33.582 2.951 35 5.829 35 9c0 3.221-3.124 5.555-3.978 5.957C30.222 14.503 28 12.179 28 9c0-3.064 3.645-6.169 4.878-6.882M33 1c-.75 0-6 3.878-6 8s3.25 7 4 7 5-2.878 5-7-2.25-8-3-8z" fill="#a16a4a"></path><path d="M8.997 15.498C8.267 15.366 4.5 12.68 4.5 9c0-3.807 1.947-7.102 2.527-7.485C7.896 1.81 12.5 5.274 12.5 9c0 3.804-2.893 6.354-3.503 6.498z" fill="#fff1e8"></path><path d="M7.122 2.118C8.355 2.831 12 5.936 12 9c0 3.179-2.222 5.503-3.022 5.957C8.124 14.555 5 12.221 5 9c0-3.171 1.418-6.049 2.122-6.882M7 1c-.75 0-3 3.878-3 8s4.25 7 5 7 4-2.878 4-7-5.25-8-6-8z" fill="#a16a4a"></path><path d="M20 24.028c-2.295 0-4.992-1.187-7.593-3.341l-.231-.187H4.5v-2H2.588c.624-3.048 3.397-7.42 7.675-10.075l.351-.218-.147-.385c-.177-.464-1.322-2.299-2.8-4.648-.334-.529-.635-1.009-.863-1.375.104-.109.221-.212.331-.291 1.179.133 3.589 1.923 6.512 4.846l.218.218.292-.097C15.188 6.135 18.105 5.5 20 5.5s4.812.635 5.843.975l.292.097.218-.218c2.923-2.923 5.333-4.713 6.512-4.846.11.079.226.182.331.291-.228.366-.529.846-.863 1.375-1.479 2.35-2.624 4.185-2.8 4.648l-.147.385.351.218c4.278 2.655 7.052 7.027 7.675 10.075H35.5v2h-7.676l-.231.188c-2.601 2.154-5.298 3.34-7.593 3.34z" fill="#ffc49c"></path><path d="M7.625 2.168c1.08.467 3.05 1.921 5.668 4.539l.436.436.585-.193C15.29 6.627 18.182 6 20 6s4.71.627 5.687.95l.585.193.436-.436c2.618-2.618 4.588-4.072 5.668-4.539l-.461.733c-1.826 2.901-2.671 4.274-2.849 4.743l-.294.771.701.435c3.886 2.412 6.491 6.262 7.304 9.15H35v2h-7.351l-.274.219-.102.084c-2.512 2.08-5.095 3.225-7.273 3.225s-4.761-1.145-7.273-3.225l-.102-.084-.274-.219H5v-2H3.224c.813-2.889 3.418-6.739 7.304-9.15l.701-.435-.294-.771c-.178-.468-1.023-1.842-2.849-4.743-.163-.259-.319-.505-.461-.733M33 1c-1.951 0-6.047 4.047-7 5-1.073-.354-4.063-1-6-1-1.938 0-4.927.646-6 1-.953-.953-5.049-5-7-5a2.846 2.846 0 00-.809.757C7.018 3.11 9.759 7.369 10 8c-4.866 3.02-7.635 8-8 11h2v2h8c.38.304 4.051 3.528 8 3.528s7.62-3.224 8-3.528h8v-2h2c-.365-3-3.134-7.98-8-11 .241-.631 2.982-4.89 3.809-6.243A2.846 2.846 0 0033 1z" fill="#a16a4a"></path><path d="M20 38.5c-2.844 0-4.507-1.846-4.894-3.675-.115-.546-1.211-4.754-1.633-5.987-.459-1.341-3.423-5.941-7.896-6.313C6.25 18.793 9.051 16.5 13 16.5c2.943 0 5.374 2.553 6.561 4.738a.5.5 0 00.878 0C21.626 19.053 24.057 16.5 27 16.5c3.949 0 6.75 2.293 7.423 6.024-4.473.372-7.437 4.973-7.896 6.313-.422 1.233-1.518 5.441-1.633 5.987-.387 1.83-2.05 3.676-4.894 3.676z" fill="#fff1e8"></path><path d="M27 17c3.557 0 6.043 1.883 6.822 5.094-4.408.711-7.305 5.227-7.769 6.582-.425 1.242-1.532 5.493-1.649 6.046C24.06 36.354 22.565 38 20 38s-4.06-1.646-4.405-3.278c-.117-.553-1.224-4.804-1.649-6.046-.464-1.355-3.36-5.871-7.769-6.582C6.957 18.883 9.443 17 13 17c2.549 0 4.911 2.249 6.121 4.477a1 1 0 001.758 0C22.089 19.249 24.451 17 27 17m0-1c-2.897 0-5.557 2.342-7 5-1.443-2.658-4.103-5-7-5-4.105 0-7.439 2.392-8 7 4.417 0 7.541 4.657 8 6 .406 1.188 1.5 5.375 1.617 5.929C15.072 37.084 17.002 39 20 39s4.928-1.916 5.383-4.071C25.5 34.375 26.594 30.188 27 29c.459-1.343 3.583-6 8-6-.561-4.608-3.895-7-8-7z" fill="#a16a4a"></path><g><path d="M26.448 21h-1.483A1.97 1.97 0 0023 22.965V25l4-4h-.552z" fill="#36404d"></path></g><g><path d="M13.552 21h1.483A1.97 1.97 0 0117 22.965V25l-4-4h.552z" fill="#36404d"></path></g><path d="M20 32c-1.388 0-2.447.494-3 1 .226 1.917 1.477 3 3 3s2.774-1.083 3-3c-.553-.506-1.612-1-3-1z" fill="#36404d"></path></svg>