<svg viewBox="0 0 40 40" xmlns="http://www.w3.org/2000/svg"><path d="M18 38.5c-.827 0-1.5-.689-1.5-1.536V20.5h3v16.464c0 .847-.673 1.536-1.5 1.536z" fill="#ffeea3"></path><path d="M19 21v15.964c0 .571-.449 1.036-1 1.036s-1-.465-1-1.036V21h2m1-1h-4v16.964c0 1.125.895 2.036 2 2.036s2-.911 2-2.036V20z" fill="#ba9b48"></path><path d="M22.955 36.5a1.536 1.536 0 01-1.441-1.009l-1.597-4.201a6.331 6.331 0 01-.202-3.912l1.008-3.788h3.118v1.219l-1.181 4.117c-.114.399-.093.83.061 1.213l1.665 4.184c.312.786-.033 1.679-.786 2.032a1.51 1.51 0 01-.645.145z" fill="#ffeea3"></path><path d="M23.341 24.09v.648l-1.162 4.049a2.39 2.39 0 00.076 1.535l1.666 4.186c.215.54-.02 1.153-.535 1.395a1.012 1.012 0 01-.431.097c-.434 0-.816-.269-.975-.686l-1.597-4.201a5.856 5.856 0 01-.186-3.607l.909-3.416h2.235m1-1h-4.003l-1.106 4.159a6.894 6.894 0 00.217 4.219l1.597 4.201A2.046 2.046 0 0022.955 37c.286 0 .578-.062.856-.192.991-.465 1.449-1.64 1.039-2.67l-1.666-4.186a1.376 1.376 0 01-.044-.889l1.201-4.184V23.09z" fill="#ba9b48"></path><path d="M20 8.5c-1.93 0-3.5-1.57-3.5-3.5s1.57-3.5 3.5-3.5c1.501 0 5.203 2.242 7.105 3.5C25.202 6.258 21.5 8.5 20 8.5z" fill="#ffc49c"></path><path d="M20 2c1.092 0 3.943 1.561 6.192 3C23.944 6.439 21.093 8 20 8c-1.654 0-3-1.346-3-3s1.346-3 3-3m0-1a4 4 0 000 8c2.209 0 8-4 8-4s-5.791-4-8-4z" fill="#a16a4a"></path><path d="M12.693 27.5l2.847-8.538-2.009-4.018c.604-2.181 2.468-4.444 5.969-4.444 2.9 0 5.224 1.738 5.969 4.444l-2.009 4.018 2.847 8.538H12.693z" fill="#f78f8f"></path><path d="M19.5 11c2.602 0 4.698 1.517 5.434 3.896l-.828 1.657-1 2-.185.37.131.393L25.613 27H13.387l2.561-7.684.131-.393-.185-.37-1.828-3.656C14.671 12.953 16.377 11 19.5 11m0-1c-3.514 0-5.82 2.237-6.5 5l2 4-3 9h15l-3-9 1-2 1-2c-.68-2.763-3.029-5-6.5-5z" fill="#c74343"></path><g><path d="M20.823 22.649c-.461 0-.882-.234-1.124-.627a1.312 1.312 0 01-.058-1.284l2.615-5.231h2.954l-3.206 6.413c-.225.45-.677.729-1.181.729z" fill="#ffeea3"></path><path d="M24.402 16.007l-2.845 5.689a.816.816 0 01-.734.454.808.808 0 01-.698-.389.81.81 0 01-.036-.799l2.478-4.955h1.835m1.618-1h-4.071l-2.754 5.508a1.82 1.82 0 103.258 1.628l3.567-7.136z" fill="#ba9b48"></path></g><path d="M20.094 20.973l2.468-4.966.515-1.001h1.825l-3.266 6.529c-.079.158-.635.256-.812.256a.449.449 0 01-.394-.22c-.052-.08-.436-.397-.336-.598z" fill="#ffeea3"></path><g><path d="M18.177 22.649c-.504 0-.956-.279-1.182-.729l-3.206-6.413h2.954l2.615 5.231a1.31 1.31 0 01-.058 1.284 1.309 1.309 0 01-1.123.627z" fill="#ffeea3"></path><path d="M16.433 16.007l2.478 4.955a.81.81 0 01-.036.799.808.808 0 01-.698.389.816.816 0 01-.734-.454l-2.845-5.689h1.835m.619-1H12.98l3.568 7.136a1.82 1.82 0 103.258-1.628l-2.754-5.508z" fill="#ba9b48"></path></g><path d="M18.571 21.573a.45.45 0 01-.394.22c-.177 0-.733-.098-.812-.256l-3.266-6.529h1.825l.515 1.001 2.468 4.966c.099.199-.285.516-.336.598z" fill="#ffeea3"></path></svg>