<svg viewBox="0 0 40 40" xmlns="http://www.w3.org/2000/svg"><path d="M20 38.5C9.799 38.5 1.5 30.201 1.5 20S9.799 1.5 20 1.5 38.5 9.799 38.5 20 30.201 38.5 20 38.5z" fill="#8bb7f0"></path><path d="M20 2c9.925 0 18 8.075 18 18s-8.075 18-18 18S2 29.925 2 20 10.075 2 20 2m0-1C9.507 1 1 9.507 1 20s8.507 19 19 19 19-8.507 19-19S30.493 1 20 1z" fill="#4e7ab5"></path><path fill="#fff" d="M32.214 15.928v1.357H7.785v-1.357zM32.215 20v1.357H7.785V20z"></path><g><path d="M31.534 12.805L26.847 29.91h-3.209l-3.256-11.964a8.141 8.141 0 01-.25-1.67h-.048a8.123 8.123 0 01-.286 1.646L16.529 29.91h-3.28L8.466 12.805h3.113l3.101 12.524c.127.525.207 1.074.239 1.646h.06c.032-.406.143-.954.334-1.646l3.507-12.524h2.922l3.244 12.62c.111.429.195.938.25 1.527h.048c.024-.398.115-.922.274-1.574L28.6 12.805h2.934z" fill="#fff"></path></g></svg>