<svg viewBox="0 0 40 40" xmlns="http://www.w3.org/2000/svg"><path d="M5.026 18.5c-.431 0-.768-.177-1.001-.527L2.973 16.5h7.001c.449 0 .776.164 1.001.501l1.06 1.499H5.026z" fill="#ffeea3"></path><path d="M9.974 17c.351 0 .493.141.6.301l.494.699H5.026c-.264 0-.444-.094-.603-.332L3.945 17h6.029m0-1H2l1.609 2.25c.334.5.834.75 1.417.75H13l-1.609-2.276c-.334-.5-.834-.724-1.417-.724z" fill="#f5c276"></path><path d="M27.966 18.5l1.052-1.487c.232-.349.56-.513 1.009-.513h7.001l-1.043 1.459c-.243.364-.58.541-1.011.541h-7.008z" fill="#ffeea3"></path><path d="M36.056 17l-.497.695c-.141.211-.321.305-.585.305h-6.042l.51-.721c.091-.138.233-.279.584-.279h6.03M38 16h-7.974c-.583 0-1.083.224-1.417.724L27 19h7.974c.583 0 1.083-.25 1.417-.75L38 16z" fill="#f5c276"></path><g><path d="M20.026 23.988l-.087.154-.404.609L16.519 30l-3.555-6.126c-.463-.917-1.253-1.374-2.401-1.374H8c-.431 0-.768-.178-1.001-.528L5.963 20.5h5.104c1.453 0 2.518.602 3.254 1.839l2.161 3.645L20 19.988l3.519 5.996 2.161-3.646c.736-1.237 1.801-1.838 3.254-1.838h5.104l-1.029 1.462c-.241.36-.578.538-1.009.538h-2.563c-1.148 0-1.938.458-2.415 1.399L23.481 30l-3.455-6.012z" fill="#ffeea3"></path><path d="M20 20.976l2.658 4.53.858 1.462.865-1.458 1.728-2.915C26.748 21.522 27.672 21 28.934 21h4.14l-.489.695c-.141.211-.321.305-.585.305h-2.563c-1.325 0-2.283.554-2.847 1.646L23.483 29l-2.585-4.499-.878-1.527-.02.037-.021-.037-.878 1.527L16.517 29l-3.107-5.354C12.845 22.554 11.888 22 10.562 22H8c-.264 0-.444-.094-.599-.326L6.926 21h4.14c1.262 0 2.185.522 2.823 1.593l1.729 2.917.865 1.458.858-1.462L20 20.976M20 19l-3.521 6-1.729-2.917C13.925 20.697 12.68 20 11.066 20H5l1.583 2.25c.334.5.834.75 1.417.75h2.562c.913 0 1.556.31 1.969 1.125L16.521 31l3.448-6 .031.056.031-.056 3.448 6 3.99-6.875C27.881 23.31 28.525 23 29.437 23H32c.583 0 1.083-.25 1.417-.75L35 20h-6.066c-1.614 0-2.858.697-3.684 2.083L23.521 25 20 19z" fill="#f5c276"></path></g><g><path d="M20 16.003l-3.492 6.022-3.672-5.96c-.62-1.023-1.515-1.566-2.586-1.566H3c-.431 0-.768-.178-1.001-.528L.963 12.5h9.634c1.959 0 3.194 1.571 3.756 2.507l1.97 3.175L20 11.98l3.678 6.202 1.966-3.169c.565-.943 1.801-2.514 3.76-2.514h9.634l-1.029 1.462A1.146 1.146 0 0137 14.5h-7.25c-1.071 0-1.966.542-2.588 1.569l-3.67 5.957L20 16.003z" fill="#ffeea3"></path><path d="M20 12.961l2.827 4.768.841 1.418.869-1.401 1.539-2.481c.508-.846 1.615-2.265 3.327-2.265h8.671l-.489.695c-.141.211-.321.305-.585.305h-7.25c-1.237 0-2.308.643-3.012 1.803l-3.233 5.248-2.64-4.553L20 15.007l-.865 1.492-2.64 4.553-3.229-5.242C12.558 14.643 11.487 14 10.25 14H3c-.264 0-.444-.094-.599-.325L1.926 13h8.67c1.713 0 2.82 1.419 3.335 2.277l1.531 2.469.869 1.401.841-1.418L20 12.961M20 11l-3.688 6.219-1.531-2.469c-.937-1.562-2.392-2.75-4.184-2.75H0l1.583 2.25c.334.5.834.75 1.417.75h7.25c.913 0 1.646.479 2.161 1.328L16.521 23 20 17l3.479 6 4.11-6.672C28.104 15.479 28.837 15 29.75 15H37c.583 0 1.083-.25 1.417-.75L40 12H29.403c-1.792 0-3.247 1.188-4.185 2.75l-1.531 2.469L20 11z" fill="#f5c276"></path></g></svg>