<svg viewBox="0 0 40 40" xmlns="http://www.w3.org/2000/svg"><path d="M7.788 37.5C6.934 36.328 2.5 29.771 2.5 20c0-9.788 4.433-16.331 5.287-17.5H32.21c.854 1.191 5.29 7.846 5.29 17.562 0 9.714-4.434 16.266-5.288 17.438H7.788z" fill="#f5ce85"></path><path d="M31.95 3C33.041 4.583 37 10.957 37 20.063c0 9.103-3.956 15.382-5.045 16.937H8.046C6.956 35.442 3 29.155 3 20 3 10.843 6.957 4.556 8.045 3H31.95m.512-1H7.538S2 8.923 2 20s5.538 18 5.538 18h24.923s5.538-6.923 5.538-17.937S32.462 2 32.462 2z" fill="#967a44"></path><g fill="#b3955d"><path d="M32 20.062c0 9.169-3.215 15.46-3.79 16.938h1.133C30.186 34.658 33 28.629 33 20.062 33 11.471 30.177 5.359 29.339 3h-1.13C28.784 4.498 32 10.866 32 20.062zM8 20.062C8 10.888 11.217 4.502 11.792 3h-1.13C9.823 5.359 7 11.471 7 20.062 7 28.629 9.814 34.658 10.656 37h1.132C11.213 35.525 8 29.253 8 20.062zM24.1 37c.261-2.156 1.9-8.311 1.9-16.938C26 11.416 24.358 5.174 24.098 3h-1.015C23.311 4.834 25 11.126 25 20.062c0 8.912-1.687 15.122-1.915 16.938H24.1zM15 20.062C15 11.136 16.69 4.836 16.917 3h-1.015C15.629 5.281 14 11.358 14 20.062 14 28.69 15.639 34.844 15.9 37h1.015C16.687 35.186 15 28.985 15 20.062z"></path></g><path d="M3.934 10.5c.316-1.02.685-2.025 1.1-3h29.91c.416.979.785 1.984 1.102 3H3.934z" fill="#dcd5f2"></path><path d="M34.61 8c.271.657.521 1.326.747 2H4.62c.226-.676.475-1.345.746-2H34.61m.662-1H4.705a31.83 31.83 0 00-1.442 4h33.455a32.524 32.524 0 00-1.446-4z" fill="#8b75a1"></path><path d="M5.033 32.5a31.679 31.679 0 01-1.1-3h32.138a31.284 31.284 0 01-1.101 3H5.033z" fill="#dcd5f2"></path><path d="M35.385 30a31.069 31.069 0 01-.747 2H5.366a31.06 31.06 0 01-.746-2h30.765m1.358-1H3.263a31.83 31.83 0 001.442 4h30.594a31.876 31.876 0 001.444-4z" fill="#8b75a1"></path><circle cx="20" cy="31" r=".5" fill="#8b75a1"></circle><circle cx="28" cy="31" r=".5" fill="#8b75a1"></circle><circle cx="33" cy="31" r=".5" fill="#8b75a1"></circle><circle cx="12.004" cy="31" r=".5" fill="#8b75a1"></circle><circle cx="7.004" cy="31" r=".5" fill="#8b75a1"></circle><circle cx="20" cy="9" r=".5" fill="#8b75a1"></circle><circle cx="28" cy="9" r=".5" fill="#8b75a1"></circle><circle cx="33" cy="9" r=".5" fill="#8b75a1"></circle><circle cx="12.004" cy="9" r=".5" fill="#8b75a1"></circle><circle cx="7.004" cy="9" r=".5" fill="#8b75a1"></circle></svg>