<svg viewBox="0 0 40 40" xmlns="http://www.w3.org/2000/svg"><path fill="#f5ce85" d="M9.5 21.5h3v1h-3z"></path><path fill="#967a44" d="M13 21H9v2h4v-2z"></path><path fill="#f5ce85" d="M9.5 27.5h3v1h-3z"></path><path fill="#967a44" d="M13 27H9v2h4v-2z"></path><path fill="#f5ce85" d="M35.5 21.5h3v1h-3z"></path><path fill="#967a44" d="M39 21h-4v2h4v-2z"></path><path fill="#f5ce85" d="M35.5 27.5h3v1h-3z"></path><path fill="#967a44" d="M39 27h-4v2h4v-2z"></path><path fill="#f5ce85" d="M11.5 26.5h25v3h-25z"></path><path d="M36 27v2H12v-2h24m1-1H11v4h26v-4z" fill="#967a44"></path><g><path fill="#f5ce85" d="M10.5 17.5h3v15h-3z"></path><path d="M13 18v14h-2V18h2m1-1h-4v16h4V17z" fill="#967a44"></path></g><g><path fill="#f5ce85" d="M34.5 17.5h3v15h-3z"></path><path d="M37 18v14h-2V18h2m1-1h-4v16h4V17z" fill="#967a44"></path></g><g><path d="M8.5 17.5V16c0-1.93 1.57-3.5 3.5-3.5h24c1.93 0 3.5 1.57 3.5 3.5v1.5h-31z" fill="#dbf2ff"></path><path d="M36 13c1.654 0 3 1.346 3 3v1H9v-1c0-1.654 1.346-3 3-3h24m0-1H12a4 4 0 00-4 4v2h32v-2a4 4 0 00-4-4z" fill="#66798f"></path></g><g><path d="M.5 17.5V16c0-1.93 1.57-3.5 3.5-3.5h1c1.93 0 3.5 1.57 3.5 3.5v1.5h-8z" fill="#dbf2ff"></path><path d="M5 13c1.654 0 3 1.346 3 3v1H1v-1c0-1.654 1.346-3 3-3h1m0-1H4a4 4 0 00-4 4v2h9v-2a4 4 0 00-4-4z" fill="#66798f"></path></g></svg>