<svg viewBox="0 0 40 40" xmlns="http://www.w3.org/2000/svg"><path d="M34.75 22.643c-1.556 0-2.821-1.266-2.821-2.821S33.194 17 34.75 17c2.342 0 2.821.686 2.821 1.714 0 1.679-1.394 3.929-2.821 3.929zm-15.5 0c-1.427 0-2.821-2.25-2.821-3.929 0-1.028.479-1.714 2.821-1.714 1.556 0 2.821 1.266 2.821 2.821s-1.265 2.822-2.821 2.822z" fill="#deb974"></path><path d="M34.75 17.5c2.321 0 2.321.673 2.321 1.214 0 1.416-1.201 3.429-2.321 3.429-1.28 0-2.321-1.041-2.321-2.321S33.47 17.5 34.75 17.5m-15.5 0c1.28 0 2.321 1.041 2.321 2.321s-1.041 2.321-2.321 2.321c-1.121 0-2.321-2.012-2.321-3.429 0-.54 0-1.213 2.321-1.213m15.5-1a3.321 3.321 0 000 6.642c1.834 0 3.321-2.594 3.321-4.429 0-1.833-1.487-2.213-3.321-2.213zm-15.5 0c-1.834 0-3.321.38-3.321 2.214s1.487 4.429 3.321 4.429a3.321 3.321 0 000-6.643z" fill="#967a44"></path><path d="M27 31.5a3.468 3.468 0 01-2.772-1.389l-.087-.113-.134-.051C20.713 28.706 18.5 25.512 18.5 22v-9.786h17V22c0 3.512-2.213 6.706-5.507 7.947l-.134.051-.087.113A3.468 3.468 0 0127 31.5z" fill="#f5ce85"></path><path d="M35 12.714V22c0 3.305-2.083 6.31-5.183 7.479l-.268.101-.174.228C28.797 30.566 27.931 31 27 31s-1.797-.434-2.375-1.192l-.174-.228-.268-.101C21.083 28.31 19 25.305 19 22v-9.286h16m1-1H18V22c0 3.853 2.426 7.131 5.83 8.415C24.561 31.372 25.702 32 27 32s2.439-.628 3.17-1.585C33.574 29.131 36 25.853 36 22V11.714z" fill="#967a44"></path><path d="M35.5 19.5v-6h-17v6h-.13c-.485-1.603-1.414-4.875-1.614-6.462l20.484.296c-.206 1.488-1.124 4.617-1.607 6.166H35.5z" fill="#a6714e"></path><path d="M17.341 13.547l.659.009v2.813c-.275-1.04-.519-2.055-.659-2.822M36 13.816l.651.009c-.141.72-.381 1.673-.651 2.655v-2.664M16.217 12.53C16.217 14.243 18 20 18 20h1v-6h16v6h1s1.783-5.596 1.783-7.158l-21.566-.312z" fill="#7a4f34"></path><path d="M16.5 14.7V13c0-5.79 4.71-10.5 10.5-10.5S37.5 7.21 37.5 13v1.7h-21z" fill="#8bb7f0"></path><path d="M27 3c5.514 0 10 4.486 10 10v1.2H17V13c0-5.514 4.486-10 10-10m0-1c-6.075 0-11 4.925-11 11v2.2h22V13c0-6.075-4.925-11-11-11z" fill="#4e7ab5"></path><path fill="#8bb7f0" d="M25.5 1.5h3v9h-3z"></path><path d="M28 2v8h-2V2h2m1-1h-4v10h4V1z" fill="#4e7ab5"></path><path d="M15.5 15.5V15c0-1.379 1.121-2.5 2.5-2.5h18c1.379 0 2.5 1.121 2.5 2.5v.5h-23z" fill="#8bb7f0"></path><path d="M36 13c1.103 0 2 .897 2 2H16c0-1.103.897-2 2-2h18m0-1H18a3 3 0 00-3 3v1h24v-1a3 3 0 00-3-3z" fill="#4e7ab5"></path><path fill="#8bb7f0" d="M26 6h2v7h-2z"></path><path fill="#8bb7f0" d="M19 11h16v3.818H19z"></path><circle cx="31.5" cy="19.5" r="1.5" fill="#36404d"></circle><circle cx="22.5" cy="19.5" r="1.5" fill="#36404d"></circle><path d="M20.75 29.643c-1.556 0-2.821-1.266-2.821-2.821S19.194 24 20.75 24c2.342 0 2.821.686 2.821 1.714 0 1.679-1.394 3.929-2.821 3.929zm-15.5 0c-1.427 0-2.821-2.25-2.821-3.929 0-1.028.479-1.714 2.821-1.714 1.556 0 2.821 1.266 2.821 2.821s-1.265 2.822-2.821 2.822z" fill="#deb974"></path><path d="M20.75 24.5c2.321 0 2.321.673 2.321 1.214 0 1.416-1.201 3.429-2.321 3.429-1.28 0-2.321-1.041-2.321-2.321S19.47 24.5 20.75 24.5m-15.5 0c1.28 0 2.321 1.041 2.321 2.321S6.53 29.143 5.25 29.143c-1.121 0-2.321-2.012-2.321-3.429 0-.541 0-1.214 2.321-1.214m15.5-1a3.321 3.321 0 000 6.642c1.834 0 3.321-2.594 3.321-4.429 0-1.833-1.487-2.213-3.321-2.213zm-15.5 0c-1.834 0-3.321.38-3.321 2.214s1.487 4.429 3.321 4.429a3.321 3.321 0 000-6.643z" fill="#967a44"></path><path d="M13 38.5a3.468 3.468 0 01-2.772-1.389l-.087-.113-.134-.051C6.713 35.706 4.5 32.512 4.5 29v-9.786h17V29c0 3.512-2.213 6.706-5.507 7.947l-.134.051-.087.113A3.468 3.468 0 0113 38.5z" fill="#f5ce85"></path><path d="M21 19.714V29c0 3.305-2.083 6.31-5.183 7.479l-.268.101-.174.228C14.797 37.566 13.931 38 13 38s-1.797-.434-2.375-1.192l-.174-.228-.268-.101C7.083 35.31 5 32.305 5 29v-9.286h16m1-1H4V29c0 3.853 2.426 7.131 5.83 8.415C10.561 38.372 11.702 39 13 39s2.439-.628 3.17-1.585C19.574 36.131 22 32.853 22 29V18.714z" fill="#967a44"></path><g><path d="M21.5 26.5v-6h-17v6h-.13c-.485-1.603-1.414-4.875-1.614-6.462l20.484.296c-.206 1.488-1.124 4.617-1.607 6.166H21.5z" fill="#a6714e"></path><path d="M3.341 20.547l.659.009v2.813c-.275-1.04-.519-2.055-.659-2.822M22 20.816l.651.009c-.141.72-.381 1.673-.651 2.655v-2.664M2.217 19.53C2.217 21.243 4 27 4 27h1v-6h16v6h1s1.783-5.596 1.783-7.158L2.217 19.53z" fill="#7a4f34"></path></g><g><path d="M2.5 21.7V20C2.5 14.21 7.21 9.5 13 9.5S23.5 14.21 23.5 20v1.7h-21z" fill="#8bb7f0"></path><path d="M13 10c5.514 0 10 4.486 10 10v1.2H3V20c0-5.514 4.486-10 10-10m0-1C6.925 9 2 13.925 2 20v2.2h22V20c0-6.075-4.925-11-11-11z" fill="#4e7ab5"></path></g><g><path fill="#8bb7f0" d="M11.5 8.5h3v9h-3z"></path><path d="M14 9v8h-2V9h2m1-1h-4v10h4V8z" fill="#4e7ab5"></path></g><g><path d="M1.5 22.5V22c0-1.379 1.121-2.5 2.5-2.5h18c1.379 0 2.5 1.121 2.5 2.5v.5h-23z" fill="#8bb7f0"></path><path d="M22 20c1.103 0 2 .897 2 2H2c0-1.103.897-2 2-2h18m0-1H4a3 3 0 00-3 3v1h24v-1a3 3 0 00-3-3z" fill="#4e7ab5"></path></g><path fill="#8bb7f0" d="M12 13h2v7h-2z"></path><path fill="#8bb7f0" d="M5 18h16v3.818H5z"></path><circle cx="17.5" cy="26.5" r="1.5" fill="#36404d"></circle><circle cx="8.5" cy="26.5" r="1.5" fill="#36404d"></circle></svg>