<svg viewBox="0 0 40 40" xmlns="http://www.w3.org/2000/svg"><path d="M5.325 38.5a3.8 3.8 0 01-2.718-1.134 3.83 3.83 0 01.026-5.41l18.865-18.768-.14-.314c-1.437-3.241-1.021-6.666 1.059-8.726 1.6-1.584 4.389-2.648 6.94-2.648.997 0 1.91.154 2.724.459l-6.178 6.123 5.983 6.042 6.178-6.122c1.179 3.238-.161 7.56-2.273 9.652-1.232 1.22-2.894 1.865-4.805 1.865-1.226 0-2.521-.28-3.744-.809l-.311-.134L8.017 37.394A3.81 3.81 0 015.325 38.5z" fill="#dcd5f2"></path><path d="M29.358 2c.631 0 1.225.065 1.777.195l-5.227 5.18-.71.704.703.71 5.279 5.331.704.711.711-.704 5.223-5.176c.64 2.896-.55 6.539-2.378 8.349-1.136 1.125-2.676 1.72-4.452 1.72-1.158 0-2.384-.265-3.546-.767l-.622-.269-.48.478L7.665 37.038A3.308 3.308 0 015.326 38a3.3 3.3 0 01-2.363-.986 3.329 3.329 0 01.025-4.704l18.621-18.524.488-.485-.279-.629c-1.353-3.049-.979-6.255.953-8.168C24.282 3.006 26.93 2 29.358 2m0-1c-2.754 0-5.633 1.151-7.292 2.793-2.317 2.294-2.643 5.95-1.164 9.284L2.282 31.601a4.326 4.326 0 006.087 6.147l18.677-18.579c1.301.562 2.648.85 3.942.85 1.956 0 3.789-.656 5.156-2.009 2.423-2.399 3.812-7.427 2.091-10.88l-6.344 6.287-5.279-5.331 6.344-6.287C31.871 1.245 30.628 1 29.358 1z" fill="#8b75a1"></path><g><path d="M11.716 35.5c-.698 0-1.166-.232-1.854-.918l-6.454-6.455a6.502 6.502 0 01-1.908-4.63c0-1.755.678-3.4 1.908-4.63l5.325-5.326a6.548 6.548 0 014.658-1.938c1.847 0 3.63.784 4.893 2.152l1.264 1.386-1.503 1.496 7.621 7.621c.519.519.846 1.365.833 2.155-.009.602-.212 1.12-.571 1.458-.414.39-.943.587-1.575.587a3.274 3.274 0 01-1.073-.183l-.633-.247-.05.679c-.001.014-.108 1.393-1.043 2.04-.44.304-.967.458-1.565.458-.528 0-.918-.125-.922-.126l-.603-.196-.053.632c-.002.014-.12 1.349-1.069 2.063-.366.276-.816.416-1.338.416a3.645 3.645 0 01-1.343-.276l-.436-.202-.22.429c-.004.007-.354.684-.948 1.136-.355.27-.831.419-1.341.419z" fill="#ffeea3"></path><path d="M13.391 12.102c1.708 0 3.357.726 4.521 1.987l.944 1.034-.808.805-.711.707.709.709 7.266 7.266c.428.428.697 1.132.687 1.793-.004.27-.063.772-.415 1.103-.323.304-.726.451-1.233.451-.493 0-.886-.147-.886-.147l-1.281-.51-.088 1.376c-.001.011-.105 1.158-.829 1.658-.355.245-.786.37-1.281.37-.437 0-.761-.1-.761-.1l-1.202-.395-.112 1.262c-.001.011-.109 1.132-.871 1.706-.282.212-.621.316-1.037.316-.61 0-1.132-.23-1.132-.23l-.87-.397-.441.848c-.003.006-.309.588-.807.967-.268.206-.636.319-1.037.319-.557 0-.908-.18-1.499-.772l-6.455-6.455a6.055 6.055 0 010-8.553l5.326-5.326a6.048 6.048 0 014.303-1.792m0-1a7.053 7.053 0 00-5.011 2.085l-5.326 5.326c-2.739 2.739-2.739 7.228 0 9.967l6.455 6.455c.706.706 1.294 1.065 2.207 1.065.609 0 1.19-.176 1.645-.523.698-.532 1.09-1.306 1.09-1.306s.696.323 1.553.323c.527 0 1.115-.122 1.639-.517 1.151-.866 1.266-2.424 1.266-2.424s.453.152 1.079.152c.546 0 1.224-.115 1.849-.547 1.155-.798 1.258-2.418 1.258-2.418s.546.218 1.257.218c.599 0 1.314-.154 1.918-.723 1.148-1.08.848-3.232-.251-4.332l-7.266-7.266 1.487-1.48-1.589-1.741a7.141 7.141 0 00-5.26-2.314z" fill="#ba9b48"></path></g></svg>