<svg viewBox="0 0 40 40" xmlns="http://www.w3.org/2000/svg"><circle cx="8.999" cy="4.999" r="3.5" fill="#ffeea3"></circle><path d="M8.998 2A3.004 3.004 0 0112 4.998 3.006 3.006 0 018.998 8 3.004 3.004 0 016 4.998 3.002 3.002 0 018.998 2m0-1a4 4 0 10.003 7.999A4 4 0 008.998 1z" fill="#ba9b48"></path><path fill="#f5ce85" d="M20.5 23.821h4V38.5h-4z"></path><path d="M24 24.321V38h-3V24.321h3m1-1h-5V39h5V23.321z" fill="#967a44"></path><path fill="#f5ce85" d="M24.5 29.5h14v3h-14z"></path><path d="M38 30v2H25v-2h13m1-1H24v4h15v-4z" fill="#967a44"></path><path fill="#f5ce85" d="M34 30h5v2h-5z"></path><path fill="#f78f8f" d="M17.5 15.5h21v9h-21z"></path><path d="M38 16v8H18v-8h20m1-1H17v10h22V15z" fill="#c74343"></path><path fill="#f78f8f" d="M36 16h3v8h-3z"></path><path fill="#fff" d="M26.308 16h-2.77L18 24h2.769zM33.231 16h-2.769l-5.539 8h2.769zM19.385 16H18v2zM39 16h-1.615l-5.539 8h2.769L39 17.667z"></path><g><path d="M4.5 38.5V27.32l-1.462-.662A2.621 2.621 0 011.5 24.275V14c0-1.93 1.57-3.5 3.5-3.5h5.541l.083.004 13.05 1.207c.758.07 1.318.745 1.248 1.503a1.372 1.372 0 01-1.373 1.253s-.086-.002-.13-.006l-10.919.032V38.5h-8z" fill="#bae0bd"></path><path d="M10.486 11l.036.005.058.002.078.002 12.971 1.2a.882.882 0 01-.162 1.754l-.048-.004h-.048l-10.374.032-.997.004V38H5V26.998l-.588-.266-1.168-.528A2.122 2.122 0 012 24.275V14c0-1.654 1.346-3 3-3h5.486m.124-1v.007c-.024-.001-.045-.007-.069-.007H5a4 4 0 00-4 4v10.275c0 1.224.717 2.335 1.832 2.839L4 27.643V39h9V14.991l10.374-.032a1.88 1.88 0 002.046-1.7 1.88 1.88 0 00-1.7-2.046L10.61 10z" fill="#5e9c76"></path></g><path fill="none" stroke="#5e9c76" stroke-miterlimit="10" d="M8.5 39V27M4.5 27.464V15.929"></path></svg>