<svg viewBox="0 0 40 40" xmlns="http://www.w3.org/2000/svg"><path d="M29.1 27.5c-1.874 0-3.399-1.57-3.399-3.5s1.525-3.5 3.399-3.5c2.447 0 3.4.607 3.4 2.167 0 1.672-.711 4.833-3.4 4.833zm-18.2 0c-2.689 0-3.4-3.161-3.4-4.833 0-1.56.953-2.167 3.4-2.167 1.874 0 3.399 1.57 3.399 3.5s-1.525 3.5-3.399 3.5z" fill="#deb974"></path><path d="M29.1 21c2.678 0 2.9.788 2.9 1.667C32 24.165 31.394 27 29.1 27c-1.599 0-2.9-1.346-2.9-3s1.301-3 2.9-3m-18.2 0c1.599 0 2.9 1.346 2.9 3s-1.301 3-2.9 3C8.606 27 8 24.165 8 22.667 8 21.788 8.222 21 10.9 21m18.2-1c-2.154 0-3.9 1.791-3.9 4s1.746 4 3.9 4c2.903 0 3.9-3.124 3.9-5.333S31.254 20 29.1 20zm-18.2 0c-2.154 0-3.9.458-3.9 2.667C7 24.876 8.005 28 10.9 28c2.154 0 3.9-1.791 3.9-4s-1.746-4-3.9-4z" fill="#967a44"></path><path d="M20 38.5a4.434 4.434 0 01-3.315-1.483l-.085-.092-.117-.042A10.517 10.517 0 019.5 27V12.381a4.747 4.747 0 014.742-4.742h11.516a4.747 4.747 0 014.742 4.742V27c0 4.424-2.806 8.396-6.982 9.883l-.118.042-.085.092A4.434 4.434 0 0120 38.5z" fill="#f5ce85"></path><path d="M25.758 8.139A4.247 4.247 0 0130 12.381V27c0 4.213-2.672 7.995-6.65 9.412l-.236.084-.168.185C22.171 37.531 21.125 38 20 38s-2.171-.469-2.946-1.319l-.168-.185-.236-.084A10.016 10.016 0 0110 27V12.381a4.247 4.247 0 014.242-4.242h11.516m0-1H14.242A5.242 5.242 0 009 12.381V27c0 4.78 3.055 8.837 7.315 10.354C17.229 38.358 18.534 39 20 39s2.771-.642 3.685-1.646C27.945 35.837 31 31.78 31 27V12.381a5.242 5.242 0 00-5.242-5.242z" fill="#967a44"></path><path d="M30.5 23.5V16c0-.982-.323-1.995-.964-3.025C31.099 13.592 32.5 14.55 32.5 16c0 3.709-1.362 6.652-1.799 7.5H30.5zm-21.219 0C8.848 22.74 7.5 20.057 7.5 16c0-2.398 5.939-4.349 13.239-4.349.763 0 1.514.022 2.245.067-1.631.93-3.953 1.782-6.984 1.782-3.143 0-6.5 1.445-6.5 5.5v4.5h-.219zm17.347-12.355a25.808 25.808 0 00-.917-.151c.136-.122.251-.231.346-.325.153.12.349.28.571.476z" fill="#a6714e"></path><path d="M20.74 12.151h.138C19.544 12.647 17.92 13 16 13c-4.318 0-7 2.299-7 6v2.7c-.484-1.28-1-3.225-1-5.7 0-1.82 5.232-3.849 12.74-3.849m9.901 1.929C31.416 14.568 32 15.2 32 16c0 2.239-.513 4.192-1 5.542V16a5.51 5.51 0 00-.359-1.92M26 10s-.506.604-1.515 1.342c1.33.142 2.589.363 3.71.668C27.135 10.787 26 10 26 10zm-5.26 1.151C14.002 11.151 7 12.905 7 16c0 5.044 2 8 2 8h1v-5c0-3.678 2.963-5 6-5 4.065 0 6.897-1.496 8.485-2.658a35.718 35.718 0 00-3.745-.191zm7.455.859C29.126 13.083 30 14.492 30 16v8h1s2-3.404 2-8c0-1.908-1.961-3.217-4.805-3.99z" fill="#7a4f34"></path><circle cx="25.5" cy="23.5" r="1.5" fill="#36404d"></circle><circle cx="14.5" cy="23.5" r="1.5" fill="#36404d"></circle><path d="M7.5 17.1V15C7.5 8.107 13.107 2.5 20 2.5S32.5 8.107 32.5 15v2.1h-25z" fill="#8bb7f0"></path><path d="M20 3c6.617 0 12 5.383 12 12v1.6H8V15C8 8.383 13.383 3 20 3m0-1C12.82 2 7 7.82 7 15v2.6h26V15c0-7.18-5.82-13-13-13z" fill="#4e7ab5"></path><g><path fill="#8bb7f0" d="M17.5 1.5h5v9.857h-5z"></path><path d="M22 2v8.857h-4V2h4m1-1h-6v10.857h6V1z" fill="#4e7ab5"></path></g><g><path d="M5.5 19.5V18c0-1.379 1.121-2.5 2.5-2.5h24c1.379 0 2.5 1.121 2.5 2.5v1.5h-29z" fill="#8bb7f0"></path><path d="M32 16c1.103 0 2 .897 2 2v1H6v-1c0-1.103.897-2 2-2h24m0-1H8a3 3 0 00-3 3v2h30v-2a3 3 0 00-3-3z" fill="#4e7ab5"></path></g><path fill="#8bb7f0" d="M22 9h-4l-.216 5.429h4.421z"></path><path fill="#8bb7f0" d="M10.5 13.214h19v4.071h-19z"></path></svg>