<svg viewBox="0 0 40 40" xmlns="http://www.w3.org/2000/svg"><path fill="#b0c1d4" d="M17.5 29.5h7v6h-7z"></path><path d="M24 30v5h-6v-5h6m1-1h-8v7h8v-7z" fill="#66798f"></path><path fill="#c2e8ff" d="M6.5 7.5h32v22h-32z"></path><path d="M38 8v21H7V8h31m1-1H6v23h33V7z" fill="#66798f"></path><path fill="#66798f" d="M6 26h33v4H6zM31.82 36H13a3.3 3.3 0 013-3h13a3 3 0 012.82 3z"></path><path fill="#ffeea3" d="M34 28h3v1h-3z"></path><path fill="#e1ebf2" d="M1.5 1.5h18v37h-18z"></path><path d="M19 2v36H2V2h17m1-1H1v38h19V1z" fill="#66798f"></path><circle cx="10.5" cy="27.5" r="2" fill="#8bb7f0"></circle><path d="M10.5 26A1.5 1.5 0 119 27.5a1.5 1.5 0 011.5-1.5m0-1a2.5 2.5 0 102.5 2.5 2.5 2.5 0 00-2.5-2.5z" fill="#4e7ab5"></path><path fill="#b0c1d4" d="M4.5 12.5h12v2h-12z"></path><path d="M16 13v1H5v-1h11m1-1H4v3h13v-3z" fill="#66798f"></path><path fill="#b0c1d4" d="M4.5 6.5h12v3h-12z"></path><path d="M16 7v2H5V7h11m1-1H4v4h13V6z" fill="#66798f"></path></svg>