<svg viewBox="0 0 40 40" xmlns="http://www.w3.org/2000/svg"><path d="M20 32.214h4.071C24.071 26.491 26 20 26 20h-6v12.214z" fill="#c29653"></path><path d="M20 16.5c-4.136 0-7.5-3.364-7.5-7.5s3.364-7.5 7.5-7.5 7.5 3.364 7.5 7.5-3.364 7.5-7.5 7.5z" fill="#ffeea3"></path><path d="M20 2c3.86 0 7 3.14 7 7s-3.14 7-7 7-7-3.14-7-7 3.14-7 7-7m0-1a8 8 0 100 16 8 8 0 000-16z" fill="#f5c276"></path><path fill="#398e5f" d="M24.893 34.682l-.575-1.727h-8.636l-.575 1.727z"></path><path d="M16.5 33.5V32c0-8.062-.155-8.682-1.015-12.121-.668-2.673-2.631-7.073-3.551-9.065 1.234 1.838 2.207 2.7 3.039 2.7.866 0 1.241-.818 1.404-1.524 1.834 1.776 6.722 7.76 5.128 19.946l-.004 1.564H16.5z" fill="#f5c276"></path><path d="M16.585 12.911c2.025 2.223 5.856 8.009 4.424 18.959l-.009.065V33h-4v-1c0-7.822-.117-8.59-1.03-12.243-.43-1.719-1.382-4.13-2.258-6.177.434.294.848.433 1.26.433.777 0 1.295-.461 1.613-1.102M12 10h-1s3.136 6.545 4 10 1 4.093 1 12v2h6v-2c2.006-15.342-6-21-6-21s-.041 2.013-1.028 2.013c-.589 0-1.516-.718-2.972-3.013z" fill="#c29653"></path><path d="M16.441 34.429l.056-2.301C16.922 31.301 19.5 26.117 19.5 22c0-3.365-3.355-10.028-4.606-12.396l.29.294C16.972 11.731 19.674 14.5 23 14.5c3.727 0 5.076-4.569 5.406-6h.08c-.348 6.162-7.155 22.601-8.902 25.223l-.084.126v.58h-3.059z" fill="#f5c276"></path><path d="M16.698 12.074C18.381 13.577 20.505 15 23 15c2 0 3.37-1.166 4.288-2.536-1.837 7.357-6.689 18.836-8.12 20.981l-.168.252v.231h-2.047l.041-1.675C17.556 31.145 20 26.083 20 22c0-2.547-1.828-6.861-3.302-9.926M29 8h-1s-1.047 6-5 6c-3.455 0-6.273-3.273-8-5h-1s5 9.034 5 13c0 4.318-3 10-3 10l-.071 2.929H20V34c1.727-2.591 9.029-20.04 9-26z" fill="#c29653"></path><ellipse cx="23.5" cy="12" rx="2" ry="2.5" fill="#f5ce85"/><path d="M23.5 10c.828 0 1.5.895 1.5 2s-.672 2-1.5 2-1.5-.895-1.5-2 .672-2 1.5-2m0-1c-1.402 0-2.5 1.318-2.5 3s1.098 3 2.5 3 2.5-1.318 2.5-3-1.098-3-2.5-3z" fill="#c29653"></path><g><path fill="#99c99e" d="M13.5 38.5v-1.361l2.783-4.639h7.434l2.783 4.639V38.5z"></path><path d="M23.434 33L26 37.277V38H14v-.723L16.566 33h6.868M24 32h-8l-3 5v2h14v-2l-3-5z" fill="#5e9c76"></path></g><path d="M20 3a6 6 0 00-6 6h1c0-2.757 2.243-5 5-5V3z" fill="#fff"></path><path fill="#5e9c76" d="M18 36h-4l1-1h3zM26 36h-6v-1h5z"></path></svg>