<svg viewBox="0 0 40 40" xmlns="http://www.w3.org/2000/svg"><path fill="#ffeea3" d="M14.006 33.475L1.5 37.323V6.37l12.524-3.835 11.97 3.99L38.5 2.677v30.954l-12.494 3.844z"></path><path d="M14.017 3.06l11.667 3.889.304.101.306-.094L38 3.354v29.907L26.012 36.95l-11.696-3.899-.304-.101-.306.094L2 36.646V6.74l12.017-3.68M39 2L26 6 14.062 2.021V2l-.032.01L14 2v.019L1 6v32l13-4 12 4 13-4V2z" fill="#ba9b48"></path><path d="M26 37l-12-4V3l12 4v30z" fill="#fff"></path><g fill="#ba9b48"><path d="M14.598 20.06c-.633-.134-1.319-.046-1.916-.34-.28-.14-.519-.331-.807-.463-.192-.087-.485-.165-.754-.262-.291-.602-.433-1.227-.71-1.824-.17-.368-.742-1.332.128-1.357.262-.006 1.131.267 1.254.447.323.486-.307 1.607.355 1.746 1.107.232 2.343-1.641 2.326-2.511-.002-.159-.129-.217-.145-.365-.06-.585.291-.966.024-1.55-.177-.39-.356-.702-.334-1.133.05-1.009.292-1.998.279-3.023-.003-.3-.091-.475-.235-.561-.702-.419-2.742 1.333-2.818 1.257-1.285-1.298-3.577-1.98-5.115-.599-.422.381-1.261.83-1.111 1.463.149.636.403.624.93.332.497-.276 1.076-.462 1.632-.104.599.381.136.987-.193 1.397-.471.591-.775 1.084-.998 1.768-.189.578-.287 1.231.114 1.759.409.539 1.272.553 1.584 1.036.328.51.376 1.214 1.007 1.504.426.198.858-.019 1.35.187.16.066.304.144.442.227.222.356.365.778.357 1.187-.011.591-.354.668-.796.944-.624.389-1.885 1.121-1.726 2.039.125.719.94.279 1.161.834.175.441-.313 1.033-.332 1.448 1.171.269 1.839 1.246 1.834 2.446-.009 1.725.262 3.007 1.601 4.011.329-.056.486-.212.531-.587.173-1.465-.115-2.755.983-3.953.473-.516.379-.72.342-1.369-.019-.33.046-1.119.309-1.297.33.16.997.249 1.291-.015.194-.178.419-1.177.459-1.447.129-.844-.164-1.518-.647-2.16-.399-.529-1.015-.978-1.656-1.112zM17.363 7.069c-1.564-.391-2.699.936-2.233 2.478.762 2.529 2.348-1.447 2.233-2.478zM34.965 12.666c.105-.517-.006-1.121-.605-1.116-.042-.639-.461-2.133-1.129-2.467-.626-.319-.655.136-1.164.636-.562.555-1.261.913-1.735 1.453-.44.501-1.342 1.714-1.958 1.235-.33-.259-.255-1.182-.501-1.561-.327-.507-.538-.598-1.147-.691.066-.113.08-.394.16-.523-.187.066-.517.002-.702.067-.029-.79 1.157-.82 1.429-1.361-.518-.043-.996-.06-1.447.24-.364.242-.449.804-.791.971-.87.435-2.955-1.036-3.911-1.249-1.383-.309-2.119.284-2.669 1.585-.364-.071-.797-.193-1.083.107.216.291.539.43.903.482.029.134.032.294 0 .428-.303.067-1.076.577-1.263.755-.402.385-.461.539-.541 1.114-.04.297-.07.66-.05 1.021.035.674.244 1.328.871 1.475.406.094.864-.084 1.111-.528.348-.628-.607-2.294.469-2.214.773.058.805 1.278 1.044 1.805.065.032.13.032.196 0 .177-.512.078-1.1.124-1.621.909-.252 1.408 1.117 1.618 1.796.174.565.53.754-.385.974-.493.119-.851.005-1.183-.4-.552.381-.851.803-1.452 1.119-1.692.89-2.142 3.501-1.245 5.271.615 1.215 2.036.109 2.775-.261-.033.682.56 1.366.766 2.005.597 1.843.167 3.6.155 5.492-.002.381.09 1.833.567 1.921.547.1 1.021-1.618 1.141-2.018.498-1.652.505-3.356 1.405-4.887.347-.593.978-1.09.689-1.839-.291-.752-1.762-.898-1.602-1.877-.044.278 1.463 1.697 1.803 1.734 1.59.17.09-1.987.568-2.532.77-.873 1.332 1.289 1.374 1.7.121 1.118-.109 2.229-.126 3.346-.006.467-.132 2.391.728 2.114.669-.216.341-1.707.431-2.229.083-.484.584-2.32.992-2.541.893-.479 1.372 1.571 2.469 1.528.261-.948.028-1.404.741-2.093.525-.508 1.327-.836 1.638-1.595.242-.586.322-1.778.154-2.387-.318-1.158-1.399-.695-2.412-.962-.045-.594.562-.881.585-1.499.013-.308-.466-.31-.416-.7.032-.243.39-.634.543-.837.534-.72 1.29-1.16 2.068-.386zM34.052 25.092c-.213.187-.792 1.113-1 1.175-.873.265-.38-.802-.152-1.15-.833.292-1.557.996-2.039 1.843l.03-.12c-.036.074-.078.18-.12.29-.363.7-.567 1.479-.513 2.21l.026-.101c-.054.664.028 1.223.425 1.304 1.127.225 1.592-1.643 2.708-1.369.099.544.507.685.816.239.193-.277-.023-1.16-.068-1.459-.159-1.091-.368-1.753-.113-2.862z"></path></g><path d="M15.13 9.547c.763 2.529 2.348-1.447 2.233-2.478-1.564-.391-2.699.936-2.233 2.478zM16.252 21.171c-.397-.529-1.013-.978-1.654-1.111-.026-.005-.052-.005-.078-.01v7.379c.438-.491.355-.704.319-1.339-.019-.33.046-1.119.31-1.297.33.16.997.249 1.292-.015.194-.178.419-1.177.459-1.447.128-.843-.165-1.517-.648-2.16zM26.194 19.206c.114-.129.222-.185.326-.196V9.668c-.124 0-.247.001-.336.032-.01-.28.136-.462.336-.608v-.67c-.12.039-.239.08-.355.156-.364.242-.449.804-.791.971-.87.435-2.955-1.036-3.911-1.249-1.383-.309-2.119.284-2.669 1.585-.364-.071-.797-.193-1.083.107.216.291.539.43.903.482.029.134.032.294 0 .428-.303.067-1.076.577-1.263.755-.402.385-.461.539-.541 1.114-.04.297-.07.66-.05 1.021.035.674.244 1.328.871 1.475.406.094.864-.084 1.111-.528.348-.628-.607-2.294.469-2.214.773.058.805 1.278 1.044 1.805.065.032.13.032.196 0 .177-.512.078-1.1.124-1.621.909-.252 1.408 1.117 1.618 1.796.174.565.53.754-.385.974-.493.119-.851.005-1.183-.4-.552.381-.851.803-1.452 1.119-1.692.89-2.142 3.501-1.245 5.271.615 1.215 2.036.109 2.776-.261-.033.682.56 1.366.766 2.005.597 1.843.167 3.6.155 5.492-.002.381.09 1.833.567 1.921.547.1 1.021-1.618 1.141-2.018.498-1.652.505-3.356 1.405-4.887.347-.593.978-1.09.689-1.839-.291-.752-1.762-.898-1.602-1.877-.044.278 1.463 1.698 1.803 1.734 1.588.169.088-1.988.566-2.533z" fill="#dbc567"></path></svg>