<svg viewBox="0 0 40 40" xmlns="http://www.w3.org/2000/svg"><path fill="#f78f8f" d="M.5 2.5h39v17H.5z"></path><path d="M39 3v16H1V3h38m1-1H0v18h40V2z" fill="#c74343"></path><path d="M18 11c0 1.133-.867 2-2 2s-2-.867-2-2 .867-2 2-2 2 .867 2 2zM8 9c-1.133 0-2 .867-2 2s.867 2 2 2 2-.867 2-2-.867-2-2-2zM32 9c-1.133 0-2 .867-2 2s.867 2 2 2 2-.867 2-2-.867-2-2-2zM24 9c-1.133 0-2 .867-2 2s.867 2 2 2 2-.867 2-2-.867-2-2-2z" fill="#fff"></path><g><path fill="#f78f8f" d="M20 32.092l-5.2 5.201-2.093-2.093 5.2-5.2-5.2-5.201 2.093-2.092 5.2 5.2 5.2-5.2 2.093 2.092-5.2 5.201 5.2 5.2-2.093 2.093z"></path><path d="M25.2 23.414l1.386 1.386-4.493 4.493-.707.707.707.707 4.493 4.493-1.386 1.386-4.493-4.493-.707-.707-.707.707-4.493 4.493-1.386-1.386 4.493-4.493.707-.707-.707-.707-4.493-4.493 1.386-1.386 4.493 4.493.707.707.707-.707 4.493-4.493m0-1.414L20 27.2 14.8 22 12 24.8l5.2 5.2-5.2 5.2 2.8 2.8 5.2-5.2 5.2 5.2 2.8-2.8-5.2-5.2 5.2-5.2-2.8-2.8z" fill="#c74343"></path></g></svg>