<svg viewBox="0 0 40 40" xmlns="http://www.w3.org/2000/svg"><path d="M4 33.5c-.827 0-1.5-.673-1.5-1.5V8c0-.827.673-1.5 1.5-1.5h32c.827 0 1.5.673 1.5 1.5v24c0 .827-.673 1.5-1.5 1.5H4z" fill="#bae0bd"></path><path d="M36 7c.551 0 1 .449 1 1v24c0 .551-.449 1-1 1H4c-.551 0-1-.449-1-1V8c0-.551.449-1 1-1h32m0-1H4a2 2 0 00-2 2v24a2 2 0 002 2h32a2 2 0 002-2V8a2 2 0 00-2-2z" fill="#5e9c76"></path><path d="M10.83 24.59l-1.495-8.762h1.768l.429 3.497c.117 1.001.195 2.002.299 3.068h.039c.117-1.079.312-2.028.494-3.081l.624-3.484h1.378l.585 3.458c.156.988.312 1.963.416 3.107h.026c.117-1.144.221-2.08.338-3.094l.429-3.471h1.664l-1.547 8.762h-1.755l-.52-2.873a45.947 45.947 0 01-.39-2.873h-.026c-.156 1.053-.299 2.028-.481 2.886l-.585 2.86h-1.69zM18.876 22.848c.351.195.962.338 1.443.338.793 0 1.196-.416 1.196-.988 0-.637-.39-.949-1.131-1.43-1.196-.728-1.651-1.651-1.651-2.444 0-1.404.936-2.574 2.756-2.574.585 0 1.131.156 1.378.312l-.273 1.469a2.074 2.074 0 00-1.105-.299c-.728 0-1.079.442-1.079.91 0 .52.26.793 1.196 1.365 1.17.702 1.586 1.586 1.586 2.509 0 1.599-1.183 2.652-2.886 2.652-.702 0-1.378-.182-1.677-.351l.247-1.469zM26.221 15.828v3.51h1.781v-3.51h1.703v8.762h-1.703v-3.666h-1.781v3.666h-1.703v-8.762h1.703z" fill="#44825d"></path></svg>