<svg viewBox="0 0 40 40" xmlns="http://www.w3.org/2000/svg"><path fill="#8bb7f0" d="M2.5 2.5h35v35h-35z"></path><path d="M37 3v34H3V3h34m1-1H2v36h36V2z" fill="#4e7ab5"></path><path d="M23.66 22.29a4.92 4.92 0 01-.33 1.84 4.3 4.3 0 01-.92 1.43 4.1 4.1 0 01-1.39.93 4.56 4.56 0 01-1.75.33 4.34 4.34 0 01-1.85-.39A4 4 0 0116 25.27a5.61 5.61 0 01-1-1.93 9.58 9.58 0 01-.34-2.67 11.18 11.18 0 01.44-3.29A7.22 7.22 0 0116.34 15a5.21 5.21 0 011.82-1.47 5.13 5.13 0 012.26-.5 8.44 8.44 0 011.37.1 3.82 3.82 0 011 .28v1.95a6.41 6.41 0 00-1-.41 4.18 4.18 0 00-1.24-.17 3.31 3.31 0 00-1.44.32 3.2 3.2 0 00-1.14.93 4.57 4.57 0 00-.76 1.51 7.31 7.31 0 00-.28 2.07H17a3 3 0 011.16-1 3.66 3.66 0 011.72-.38 4.18 4.18 0 011.58.28 3.31 3.31 0 011.2.82 3.69 3.69 0 01.77 1.31 5.19 5.19 0 01.23 1.65zm-2.18.18a3.85 3.85 0 00-.14-1.05 2.27 2.27 0 00-.41-.82 1.84 1.84 0 00-.69-.53 2.35 2.35 0 00-1-.19 2.28 2.28 0 00-1 .2 2.16 2.16 0 00-1.15 1.27 2.61 2.61 0 00-.14.86 3.72 3.72 0 00.14 1 3 3 0 00.41.91 2.31 2.31 0 00.71.68 1.93 1.93 0 001 .27 2.16 2.16 0 00.94-.2 1.92 1.92 0 00.69-.54 2.45 2.45 0 00.42-.82 3.45 3.45 0 00.21-1.04zM33 13.22v8.63h2v1.8h-2v2.94h-2.1v-2.94h-6v-1.81q.82-.92 1.68-2t1.66-2.2q.8-1.12 1.48-2.25a20.6 20.6 0 001.15-2.16zm-2.1 8.63v-5.61a31 31 0 01-2 3.19q-1 1.36-1.86 2.42zM13.28 17.09l-3.21 4.83 3.15 4.72h-1.78l-1.87-3.1q-.18-.29-.42-.73l-.44.73-1.95 3.1H5L8.25 22l-3.11-4.91h1.78l1.85 3.26q.21.36.4.75l2.39-4z" fill="#fff"></path></svg>