<svg viewBox="0 0 40 40" xmlns="http://www.w3.org/2000/svg"><path d="M4 33.5c-.827 0-1.5-.673-1.5-1.5V8c0-.827.673-1.5 1.5-1.5h32c.827 0 1.5.673 1.5 1.5v24c0 .827-.673 1.5-1.5 1.5H4z" fill="#bae0bd"></path><path d="M36 7c.551 0 1 .449 1 1v24c0 .551-.449 1-1 1H4c-.551 0-1-.449-1-1V8c0-.551.449-1 1-1h32m0-1H4a2 2 0 00-2 2v24a2 2 0 002 2h32a2 2 0 002-2V8a2 2 0 00-2-2z" fill="#5e9c76"></path><path d="M11.785 24.59l-.546-1.612a22.19 22.19 0 01-.468-1.56h-.039c-.143.559-.273 1.092-.403 1.586L9.86 24.59H8.17l1.638-4.485-1.573-4.277h1.768l.52 1.625c.13.455.26.91.39 1.404h.026c.143-.533.26-.949.377-1.43l.442-1.599h1.703l-1.638 4.355 1.729 4.407h-1.767zM16.087 22.588l-.39 2.002h-1.651l1.898-8.762h2.041l1.703 8.762h-1.651l-.377-2.002h-1.573zm1.417-1.326l-.286-1.833c-.091-.533-.208-1.417-.286-1.989h-.039c-.091.585-.221 1.482-.312 1.989l-.325 1.833h1.248zM26.332 21.522a41.082 41.082 0 01-.091-2.899h-.026a38.21 38.21 0 01-.559 2.691l-.767 3.133h-1.196l-.728-3.081a35.24 35.24 0 01-.546-2.743h-.026c-.026.949-.091 2.054-.13 2.925l-.156 3.042H20.65l.624-8.762h1.807L23.783 19c.234 1.105.455 2.08.611 3.068h.039c.13-.975.325-1.963.546-3.068l.702-3.172h1.794l.533 8.762h-1.521l-.155-3.068zM29.581 15.828h1.703v7.319h2.236v1.443h-3.939v-8.762z" fill="#44825d"></path></svg>