<svg viewBox="0 0 40 40" xmlns="http://www.w3.org/2000/svg"><path d="M20 38.5C9.799 38.5 1.5 30.201 1.5 20S9.799 1.5 20 1.5 38.5 9.799 38.5 20 30.201 38.5 20 38.5z" fill="#ffeea3"></path><path d="M20 2c9.925 0 18 8.075 18 18s-8.075 18-18 18S2 29.925 2 20 10.075 2 20 2m0-1C9.507 1 1 9.507 1 20s8.507 19 19 19 19-8.507 19-19S30.493 1 20 1z" fill="#967a44"></path><g><path d="M28.131 10l-6.555 12.734V30h-3.319v-7.197L11.869 10h3.78l3.933 8.577c.047.102.186.488.418 1.158h.042c.084-.297.237-.683.46-1.158L24.616 10h3.515z" fill="#967a44"></path></g></svg>