<svg viewBox="0 0 40 40" xmlns="http://www.w3.org/2000/svg"><path d="M15 38.5c-.827 0-1.5-.673-1.5-1.5V26.5H3c-.827 0-1.5-.673-1.5-1.5V15c0-.827.673-1.5 1.5-1.5h10.5V3c0-.827.673-1.5 1.5-1.5h10c.827 0 1.5.673 1.5 1.5v10.5H37c.827 0 1.5.673 1.5 1.5v10c0 .827-.673 1.5-1.5 1.5H26.5V37c0 .827-.673 1.5-1.5 1.5H15z" fill="#e1ebf2"></path><path d="M25 2c.551 0 1 .449 1 1v11h11c.551 0 1 .449 1 1v10c0 .551-.449 1-1 1H26v11c0 .551-.449 1-1 1H15c-.551 0-1-.449-1-1V26H3c-.551 0-1-.449-1-1V15c0-.551.449-1 1-1h11V3c0-.551.449-1 1-1h10m0-1H15a2 2 0 00-2 2v10H3a2 2 0 00-2 2v10a2 2 0 002 2h10v10a2 2 0 002 2h10a2 2 0 002-2V27h10a2 2 0 002-2V15a2 2 0 00-2-2H27V3a2 2 0 00-2-2z" fill="#788b9c"></path></svg>