<svg viewBox="0 0 40 40" xmlns="http://www.w3.org/2000/svg"><path d="M4.32 31.5a2.81 2.81 0 01-2.063-.909 2.872 2.872 0 01-.744-2.209l1.34-9.646c.063-.677.656-1.847 1.179-2.34C9.475 11.23 18.282 8.5 29.502 8.5c2.019 0 8.998 5.768 8.998 7.436 0 .811-1.417 4.758-3.764 11.299l-.857 2.389a2.83 2.83 0 01-2.65 1.877H4.32z" fill="#e1ebf2"></path><path d="M29.502 9c1.753 0 8.424 5.446 8.498 6.935-.007.742-1.568 5.093-3.73 11.115l-.862 2.403A2.327 2.327 0 0131.229 31H4.321a2.307 2.307 0 01-1.697-.75 2.348 2.348 0 01-.619-1.777l1.348-9.715c.05-.539.584-1.586 1.023-2.001C11.133 10.346 21.769 9 29.502 9m0-1c-16.457 0-23.39 5.731-25.814 8.032-.587.555-1.255 1.818-1.331 2.635l-1.343 9.669a3.371 3.371 0 00.875 2.593A3.31 3.31 0 004.321 32h26.908a3.33 3.33 0 003.121-2.208C37.43 21.196 39 16.93 39 15.935 39 13.811 31.591 8 29.502 8z" fill="#788b9c"></path><path d="M38 15.935c-.027-.555-.973-1.661-2.238-2.829-.539 1.942-2.015 5.995-4.412 12.685A3.33 3.33 0 0128.229 28H2.071l-.066.473a2.348 2.348 0 00.619 1.777c.438.478 1.055.75 1.697.75h26.908a2.33 2.33 0 002.18-1.546l.862-2.403c2.161-6.023 3.722-10.374 3.729-11.116z" fill="#b6c9d6"></path><path d="M18 24h-5v-9h1.25v7.714H18V24zM20 24v-9h2.777c.857 0 2.45.469 2.45 2.059 0 1.557-.733 1.975-1.235 2.134v.025c.61.071 1.097.3 1.461.687s.547.89.547 1.509c0 .77-.299 1.393-.896 1.87S23.753 24 22.842 24H20zm1.266-7.714v2.571h.938c1.386 0 1.593-.858 1.593-1.306 0-.77-.558-1.266-1.571-1.266h-.96zm0 3.857v2.571h1.453c.89 0 1.718-.297 1.718-1.357 0-.832-.714-1.215-1.909-1.215h-1.262z" fill="#607d8b"></path></svg>