<svg viewBox="0 0 40 40" xmlns="http://www.w3.org/2000/svg"><path d="M20 38.5C9.799 38.5 1.5 30.201 1.5 20S9.799 1.5 20 1.5 38.5 9.799 38.5 20 30.201 38.5 20 38.5z" fill="#e1ebf2"></path><path d="M20 2c9.925 0 18 8.075 18 18s-8.075 18-18 18S2 29.925 2 20 10.075 2 20 2m0-1C9.507 1 1 9.507 1 20s8.507 19 19 19 19-8.507 19-19S30.493 1 20 1z" fill="#788b9c"></path><circle cx="20" cy="20" r="16" fill="#b6c9d6"></circle><g><path d="M28.143 30h-3.799l-3.13-5.356a11.256 11.256 0 00-.827-1.262 5.06 5.06 0 00-.82-.858 2.738 2.738 0 00-.909-.488 3.722 3.722 0 00-1.107-.153H16V30h-3V10h6.451c.92 0 1.767.112 2.542.335.775.223 1.449.561 2.023 1.011s1.022 1.014 1.346 1.688.485 1.462.485 2.364c0 .707-.103 1.356-.308 1.946a5.072 5.072 0 01-.875 1.576c-.379.46-.834.854-1.367 1.179a6.78 6.78 0 01-1.797.753v.056c.355.205.666.43.929.676s.515.499.752.76.472.555.704.886.489.714.772 1.151L28.143 30zM16 12.692v6.499h2.945c.502 0 .964-.079 1.387-.237.424-.158.79-.386 1.1-.683.31-.297.551-.66.724-1.088s.26-.907.26-1.437c0-.958-.297-1.706-.888-2.245s-1.445-.809-2.556-.809H16z" fill="#fff"></path></g></svg>