<svg viewBox="0 0 40 40" xmlns="http://www.w3.org/2000/svg"><path d="M20 38.5C9.799 38.5 1.5 30.201 1.5 20S9.799 1.5 20 1.5 38.5 9.799 38.5 20 30.201 38.5 20 38.5z" fill="#b6c9d6"></path><path d="M20 2c9.925 0 18 8.075 18 18s-8.075 18-18 18S2 29.925 2 20 10.075 2 20 2m0-1C9.507 1 1 9.507 1 20s8.507 19 19 19 19-8.507 19-19S30.493 1 20 1z" fill="#788b9c"></path><path d="M22 13v9H11v-9h11m1-2H10a1 1 0 00-1 1v11a1 1 0 001 1h13a1 1 0 001-1V12a1 1 0 00-1-1z" fill="#fff"></path><g><path fill="#b6c9d6" d="M17 17h13v11H17z"></path><path d="M29 18v9H18v-9h11m1-2H17a1 1 0 00-1 1v11a1 1 0 001 1h13a1 1 0 001-1V17a1 1 0 00-1-1z" fill="#fff"></path></g></svg>