<svg viewBox="0 0 40 40" xmlns="http://www.w3.org/2000/svg"><path d="M20 38.5C9.799 38.5 1.5 30.201 1.5 20S9.799 1.5 20 1.5 38.5 9.799 38.5 20 30.201 38.5 20 38.5z" fill="#f78f8f"></path><path d="M20 2c9.925 0 18 8.075 18 18s-8.075 18-18 18S2 29.925 2 20 10.075 2 20 2m0-1C9.507 1 1 9.507 1 20s8.507 19 19 19 19-8.507 19-19S30.493 1 20 1z" fill="#c74343"></path><g><path d="M14.229 30V10h6.346c1.934 0 3.466.423 4.596 1.269 1.13.847 1.695 1.948 1.695 3.305 0 1.134-.321 2.12-.962 2.957-.642.837-1.529 1.432-2.664 1.785v.056c1.376.158 2.476.667 3.298 1.527.823.861 1.234 1.978 1.234 3.354 0 1.711-.674 3.096-2.022 4.156-1.348 1.06-3.05 1.59-5.105 1.59h-6.416zm3.305-17.336v5.69h2.148c1.153 0 2.057-.272 2.713-.816.656-.544.983-1.314.983-2.308 0-1.711-1.144-2.566-3.431-2.566h-2.413zm0 8.354v6.332h2.831c1.236 0 2.192-.286 2.866-.858s1.011-1.36 1.011-2.364c0-2.074-1.437-3.11-4.31-3.11h-2.398z" fill="#c74343"></path></g></svg>