<svg viewBox="0 0 40 40" xmlns="http://www.w3.org/2000/svg"><path d="M15 33.5C4.054 33.5 3.5 21.421 3.5 19c0-5.796 1.493-10.421 2.135-12.141l.048-.133A.334.334 0 016 6.5h26.153a.336.336 0 01.322.417c-.011.045-.975 5.54-.975 12.083 0 7.373 3.797 12.602 4.96 14.028a.302.302 0 01-.01.312.332.332 0 01-.284.16H15z" fill="#e1ebf2"></path><path d="M31.953 7C31.782 8.029 31 13.089 31 19c0 7.033 3.381 12.16 4.8 14H15C4.53 33 4 21.338 4 19 4 13.288 5.47 8.73 6.103 7.035L6.116 7h25.837m.2-1H6a.836.836 0 00-.792.569C5.113 6.859 3 12.042 3 19c0 4.583 1.692 15 12 15h21.166a.836.836 0 00.747-1.206C36.864 32.696 32 27.292 32 19c0-6.492.946-11.903.958-11.956A.83.83 0 0032.153 6z" fill="#788b9c"></path><path d="M15 30c-6.177 0-9.258-3.74-10.737-7.724C4.923 26.543 7.209 33 15 33h20.8a22.914 22.914 0 01-1.934-3H15z" fill="#b6c9d6"></path><path d="M26 16.286h-2.8V24h-1.391v-7.732H19V15h7v1.286z" fill="#607d8b"></path><g><path d="M18.3 24h-1.524l-1.273-2.41c-.12-.222-.729-1.447-1.749-1.447h-.56V24H12v-9h2.751c2.615 0 2.728 2.023 2.728 2.429 0 .318.028 1.806-1.853 2.454v.025c.708.454 1.226 1.366 1.346 1.563L18.3 24zm-5.106-7.714v2.571h1.433c1.531 0 1.628-1.033 1.628-1.271 0-.431-.237-1.3-1.628-1.3h-1.433z" fill="#607d8b"></path></g></svg>