<svg viewBox="0 0 40 40" xmlns="http://www.w3.org/2000/svg"><path fill="#ffc49c" d="M7.5 37.5v-35h18.293l8.707 8.707V37.5z"></path><path d="M25.586 3L34 11.414V37H8V3h17.586M26 2H7v36h28V11l-9-9z" fill="#a16a4a"></path><path fill="#fff" d="M25.5 11.5v-9h.293l8.707 8.707v.293z"></path><path d="M26 3.414L33.586 11H26V3.414M26 2h-1v10h10v-1l-9-9zM14.017 19.352H12.47v-1.573h4.81v1.573h-1.56v7.189h-1.703v-7.189zM19.451 24.54l-.39 2.002H17.41l1.898-8.762h2.041l1.703 8.762h-1.651l-.377-2.002h-1.573zm1.417-1.327l-.286-1.833c-.091-.533-.208-1.417-.286-1.989h-.039c-.091.585-.221 1.482-.312 1.989l-.325 1.833h1.248zM24.339 17.909a10.176 10.176 0 011.859-.169c.936 0 1.781.143 2.34.65.533.481.702 1.066.702 1.82 0 .936-.468 1.781-1.352 2.184v.026c.598.247.897.793 1.066 1.742.169.975.403 2.054.559 2.379h-1.781c-.117-.247-.312-1.131-.442-2.106-.156-1.079-.429-1.391-.988-1.391h-.26v3.497h-1.703v-8.632zm1.703 3.822h.312c.741 0 1.157-.598 1.157-1.365 0-.754-.299-1.274-1.053-1.3-.156 0-.325.013-.416.052v2.613z" fill="#a16a4a"></path></svg>