<svg viewBox="0 0 40 40" xmlns="http://www.w3.org/2000/svg"><path fill="#c2e8ff" d="M5.694 21.5l1.666-5H4.641l.75-3H8.36l.492-1.473L7.624 6.5h4.082l2.222 4H26.75l8.25 11z"></path><path d="M11.412 7l1.936 3.486.286.514H26.5L34 21H6.387l1.228-3.684L8.054 16H5.281l.5-2h2.94l.228-.684.333-1 .088-.263-.06-.27L8.247 7h3.165M12 6H7l1.333 6L8 13H5l-1 4h2.667L5 22h31l-9-12H14.222L12 6z" fill="#7496c4"></path><path fill="none" stroke="#7496c4" stroke-miterlimit="10" d="M13 14.5h13"></path><path d="M2.5 30.5V25c0-2.566 2.005-4.726 4.564-4.915l31.351-2.536c-1.119 7.169-4.871 12.013-5.647 12.951H2.5z" fill="#ffc49c"></path><path d="M37.816 18.099C36.67 24.43 33.487 28.801 32.531 30H3v-5c0-2.306 1.802-4.246 4.108-4.417l30.708-2.484M39 17L7.028 19.586A5.429 5.429 0 002 25v6h31s4.864-5.413 6-14z" fill="#a16a4a"></path><path d="M1 39h38V28.877c-1.308-.263-2.852-.877-4-.877-1.458 0-3.563 1-5 1-1.438 0-3.542-1-5-1s-3.563 1-5 1c-1.438 0-3.542-1-5-1s-3.563 1-5 1c-1.438 0-3.542-1-5-1-1.148 0-2.692.614-4 .877V39z" fill="#8bb7f0"></path><path d="M35 28c-1.458 0-3.563 1-5 1-1.438 0-3.542-1-5-1s-3.563 1-5 1c-1.438 0-3.542-1-5-1s-3.563 1-5 1c-1.438 0-3.542-1-5-1-1.148 0-2.692.614-4 .877V29.9c.574-.103 1.17-.271 1.754-.435C3.566 29.237 4.406 29 5 29s1.434.237 2.246.465c.934.263 1.9.535 2.754.535s1.82-.272 2.754-.535C13.566 29.237 14.406 29 15 29s1.434.237 2.246.465c.934.263 1.9.535 2.754.535s1.82-.272 2.754-.535C23.566 29.237 24.406 29 25 29s1.434.237 2.246.465c.934.263 1.9.535 2.754.535s1.82-.272 2.754-.535C33.566 29.237 34.406 29 35 29s1.434.237 2.246.465c.584.165 1.18.332 1.754.435v-1.023c-1.308-.263-2.852-.877-4-.877z" fill="#4e7ab5"></path><circle cx="29" cy="24" r="1" fill="#36404d"></circle><circle cx="25" cy="24" r="1" fill="#36404d"></circle><circle cx="21" cy="24" r="1" fill="#36404d"></circle><circle cx="17" cy="24" r="1" fill="#36404d"></circle><circle cx="13" cy="24" r="1" fill="#36404d"></circle></svg>