<svg viewBox="0 0 40 40" xmlns="http://www.w3.org/2000/svg"><path d="M7.498 37.911c-.053-1.236-1.195-2.741-2.658-3.244.412-.747.66-1.719.66-2.667 0-1.824-1.095-3.502-2.687-4.235.524-.889.759-2.215.594-3.555-.162-1.315-.689-2.423-1.482-3.151.461-.414.842-1.099 1.124-2.03.62-2.05.643-4.954-.163-6.607C5.138 11.939 6.5 9.385 6.5 7c.009-.492.015-.78.005-.962.129-.198.624-.767 1.445-.767.272 0 .56.064.854.189l.151.064.159-.038c1.272-.299 2.589-1.296 3.385-2.505.732.957 1.714 1.474 2.831 1.474 1.16 0 2.324-.563 3.148-1.483C19.233 4.3 20.631 5.5 22.389 5.5c.785 0 1.484-.174 2.118-.528.132 1.953.907 3.761 2.086 4.886-.597.39-1.712 1.075-2.656 1.655-3.064 1.885-3.418 2.103-3.441 2.394l-.154.278c-.826 1.488-3.342 6.019-3.838 10.764-.179 1.705 0 4.602 1.831 8.773L7.498 37.911z" fill="#ededed"></path><path d="M18.39 3.758C19.272 4.989 20.674 6 22.389 6c.608 0 1.171-.094 1.695-.284.228 1.558.844 2.991 1.734 4.044-.622.393-1.461.908-2.149 1.332-3.135 1.928-3.624 2.228-3.673 2.688l-.091.163c-.839 1.511-3.391 6.107-3.899 10.953-.178 1.699-.018 4.53 1.664 8.546l-9.782 3.782c-.303-1.092-1.195-2.222-2.366-2.813A6.45 6.45 0 006 32a5.238 5.238 0 00-2.524-4.45c.411-.947.578-2.173.427-3.4-.152-1.236-.606-2.309-1.291-3.1.337-.424.657-1.026.914-1.877.529-1.746.709-4.513.036-6.43C5.718 11.939 7 9.393 7 7.01l.001-.051a23.9 23.9 0 00.007-.756c.152-.169.481-.432.942-.432.205 0 .426.05.658.149l.302.129.319-.075c1.219-.287 2.439-1.119 3.306-2.191.768.765 1.725 1.173 2.795 1.173 1.096-.001 2.192-.446 3.06-1.198M18.575 2c-.679 1.14-1.96 1.955-3.245 1.955-1.064 0-2.131-.559-2.862-1.955C11.885 3.341 10.449 4.659 9 5a2.666 2.666 0 00-1.05-.229C6.634 4.771 5.912 5.912 6 6c.021.021 0 .97 0 1 0 2.406-1.495 5.002-3.887 5.002L2 12c1.75 1.75 1.083 8.583-1 9 2.458 1.375 2.375 5.708 1 7 1.724.461 3 2.127 3 4 0 1.059-.349 2.281-1 3 1.587.108 3 1.75 3 3-.324.537-.527.525-.932 1L19 34c.002-.098-2.439-4.804-2-9 .582-5.554 4.077-10.965 4-11-.177-.079 6.54-4.022 6.362-4.099.03.009.057.002.088.015-1.384-.964-2.464-3.08-2.464-5.536 0-.122 0-.258.014-.38-.719.651-1.553 1-2.611 1-1.751 0-3.244-1.439-3.814-3z" fill="#8b75a1"></path><path fill="#36404d" d="M29 18.286h1.357l1.357 1.357L29 21z"></path><path d="M27.929 12.786H32V12c0-2.249-1.501-6-3-6 .447 2.559.158 4.649-1 5-.609.234-.99.613-1 1-.021.844.929.786.929.786zM32.929 16.786H37V16c0-2.249-1.501-6-3-6 .447 2.559.158 4.649-1 5-.609.234-.99.613-1 1-.021.844.929.786.929.786z" fill="#8b75a1"></path><path fill="#36404d" d="M32 20.286h1.357l1.357 1.357L32 23zM28.081 25l-.96-.96v-1.919L30 23zM26.081 23l-.96-.96v-1.919L28 21z"></path><path fill="#36404d" d="M28.081 26.879l-.96-.96V24L30 25z"></path><path fill="#36404d" d="M29.081 29l-.96-.96v-1.919L31 27z"></path><path fill="#36404d" d="M28.888 27.879l-.959-.96V25l4.071.679zM31 18.286h1.357l1.357 1.357L31 21zM28 17.286h1.357l1.357 1.357L28 20zM33 20.286h1.357l1.357 1.357L33 23zM36 21.286h1.357l.764 1.654L36 24z"></path><path fill="#36404d" d="M35.357 20.929h1.357l1.357 1.357L34 25z"></path><path d="M7.052 38.5C8.35 36.825 9.5 34.755 9.5 32c0-3.094-1.047-5.212-2.06-7.261C6.442 22.72 5.5 20.813 5.5 18c0-2.912 1.182-5.264 3.833-7.627l.473-.421-.52-.362c-.732-.51-4.134-3.094-4.705-7.363 3.646 3.208 7.339 4.228 10.515 4.789a84.06 84.06 0 001.949.308c.531.079 1.039.154 1.514.236 1.14.19 2.33.469 3.539.828a46.39 46.39 0 015.924 2.189c5.885 2.64 12.382 6.969 9.9 12.597a2.335 2.335 0 01-.089.181c-1.612-.826-2.859-1.54-4.069-2.232-1.487-.852-2.891-1.655-4.677-2.478a1.859 1.859 0 00-.713-.145c-.223 0-.438.04-.641.119a1.665 1.665 0 00-.688.425 1.837 1.837 0 00-.406 2.012l.25.556 3.472 7.214-2.512 1.674h-3.155l.863-2.591L22.25 23.5h-4.224l.567.791C19.868 26.069 22.5 31.759 22.5 38l.001.5H7.052z" fill="#dcd5f2"></path><path d="M5.368 3.513c3.424 2.603 6.883 3.507 9.644 3.996.681.118 1.342.217 1.971.311.524.078 1.024.152 1.497.233 1.111.185 2.28.459 3.483.816a45.862 45.862 0 015.854 2.164c5.569 2.499 11.719 6.527 9.775 11.634a98.86 98.86 0 01-3.577-1.977c-1.497-.857-2.911-1.666-4.757-2.515a2.33 2.33 0 00-.884-.175c-.27 0-.533.046-.781.137a2.223 2.223 0 00-.902.553 2.343 2.343 0 00-.503 2.583l.255.566 3.278 6.811L27.697 30h-2.31l.561-1.684.166-.497-.314-.419-3-4-.3-.4h-5.447l1.135 1.583C19.382 26.249 22 31.94 22 38H8.037C9.129 36.404 10 34.47 10 32c0-3.21-1.073-5.382-2.111-7.483C6.917 22.552 6 20.696 6 18c0-2.757 1.13-4.994 3.665-7.254l.945-.843-1.038-.723c-.618-.431-3.23-2.409-4.204-5.667M4 1c0 5.109 3.969 8.281 5 9-2.375 2.117-4 4.58-4 8 0 5.875 4 8.063 4 14 0 2.849-1.288 4.988-3 7h17c.005-.227 0-.771 0-1 0-6.5-2.813-12.344-4-14h3l3 4-1 3h4l3-2-3.655-7.594-.244-.543a1.347 1.347 0 01.299-1.466c.149-.149.326-.258.516-.312.146-.058.303-.085.458-.085.174 0 .346.034.504.099C32.149 20.605 34.051 22.005 38 24c.136-.163.272-.38.38-.624C40.75 18 35.757 13.499 28.225 10.12a47.143 47.143 0 00-5.985-2.212 30.366 30.366 0 00-3.596-.841c-1.031-.176-2.212-.326-3.461-.543C11.654 5.899 7.746 4.705 4 1z" fill="#8b75a1"></path><path d="M20.001 23.5c-3.084 0-6.108-2.009-6.501-5" fill="none" stroke="#8b75a1" stroke-linecap="round" stroke-miterlimit="10"></path><path d="M27.859 13.694c-1.891-.841-3.794-1.456-5.685-2.031-.574.21-.981.588-1.121 1.065-.298 1.018.682 2.197 2.234 2.834L25 14v1.98c1.372.066 2.698-.408 2.946-1.291.084-.28.089-.654-.087-.995z" fill="#36404d"></path><path d="M5 3c4.594 5.875 9.969 6.406 14 7.5 3.94 1.069 7.062 1.906 9.5 3" fill="none" stroke="#8b75a1" stroke-linecap="round" stroke-miterlimit="10"></path><path d="M8.024 38.029c-.11.219-.712.971-.712.971H22v-1c-.029-1.383-.809-3.103-1.012-4.429H10.501c-.224 1.424-2.054 3.858-2.477 4.458z" fill="#dcd5f2"></path></svg>