<svg viewBox="0 0 40 40" xmlns="http://www.w3.org/2000/svg"><path d="M33 16.5c-3.351 0-4.364-3.093-4.5-3.566V12.5h9.706c-.69 1.302-2.453 4-5.206 4z" fill="#dcd5f2"></path><path d="M37.345 13c-.807 1.282-2.275 3-4.345 3-2.672 0-3.687-2.242-3.953-3h8.298M39 12H28v1s1 4 5 4 6-5 6-5z" fill="#8b75a1"></path><path d="M7 16.5c-2.761 0-4.52-2.698-5.207-4H11.5v.434c-.136.473-1.149 3.566-4.5 3.566z" fill="#dcd5f2"></path><path d="M10.956 13c-.259.758-1.254 3-3.956 3-2.057 0-3.528-1.718-4.34-3h8.296M12 12H1s2 5 6 5 5-4 5-4v-1z" fill="#8b75a1"></path><path d="M20 38.5c-3.402 0-6.5-2.145-6.5-4.5 0-3.79-.297-5.818-1.06-7.236-1.183-2.218-3.411-4.491-5.869-6.004.853-3.518 2.05-6.463 3.858-9.504l.007-.013c.032-.028.074-.059.114-.091.232-.183.45-.355.45-.652 0-2.369 4.032-6 9-6s9 3.631 9 6c0 .297.218.469.449.652.041.032.082.063.114.091l.007.013c1.808 3.041 3.005 5.986 3.858 9.504-2.458 1.513-4.687 3.787-5.87 6.005C26.797 28.182 26.5 30.21 26.5 34c0 2.355-3.098 4.5-6.5 4.5z" fill="#dcd5f2"></path><path d="M20 5c4.911 0 8.5 3.617 8.5 5.5 0 .538.384.842.638 1.044l.041.032c1.701 2.874 2.849 5.665 3.678 8.953-2.407 1.555-4.567 3.802-5.738 5.997C26.19 28.254 26 30.763 26 34c0 1.888-2.566 4-6 4s-6-2.112-6-4c0-3.237-.19-5.746-1.118-7.471-1.172-2.198-3.332-4.446-5.739-6 .829-3.288 1.977-6.079 3.678-8.953l.041-.032c.254-.201.638-.506.638-1.044C11.5 8.617 15.089 5 20 5m0-1c-5.247 0-9.5 3.877-9.5 6.5 0 .107-.507.406-.5.5-1.755 2.952-3.075 6.041-4 10 2.511 1.466 4.806 3.761 6 6 .774 1.439 1 3.65 1 7 0 2.623 3.252 5 7 5s7-2.377 7-5c0-3.35.226-5.561 1-7 1.194-2.239 3.489-4.534 6-6-.925-3.959-2.245-7.048-4-10 .007-.094-.5-.393-.5-.5C29.5 7.877 25.247 4 20 4z" fill="#8b75a1"></path><g fill="#36404d"><path d="M22.412 22.131A3.343 3.343 0 0027.559 18l-5.147 4.131zM17.588 22.131A3.343 3.343 0 0112.441 18l5.147 4.131z"></path></g><path d="M13.333 12.5C7.451 12.5 3.5 8.967 3.5 5.667c0-1.164.36-2.146 1.093-2.966a5.36 5.36 0 00-.093.966C4.5 6.603 7.967 8.5 13.333 8.5c1.255 0 2.167.841 2.167 2s-.911 2-2.167 2z" fill="#ededed"></path><path d="M4.118 4.644C4.788 7.321 8.256 9 13.333 9 14.162 9 15 9.515 15 10.5s-.838 1.5-1.667 1.5C7.75 12 4 8.725 4 5.667c0-.36.039-.701.118-1.023M6 1C3.906 2.146 3 3.758 3 5.667 3 9.157 7.07 13 13.333 13 14.806 13 16 11.973 16 10.5S14.806 8 13.333 8C8.179 8 5 6.244 5 3.667 5 2.839 5.243 1.674 6 1z" fill="#8b75a1"></path><g><path d="M26.667 12.5c-1.255 0-2.167-.841-2.167-2s.911-2 2.167-2c5.366 0 8.833-1.897 8.833-4.833a5.36 5.36 0 00-.093-.966c.733.82 1.093 1.802 1.093 2.966 0 3.3-3.951 6.833-9.833 6.833z" fill="#ededed"></path><path d="M35.882 4.644c.079.322.118.663.118 1.023C36 8.725 32.25 12 26.667 12 25.838 12 25 11.485 25 10.5S25.838 9 26.667 9c5.077 0 8.545-1.679 9.215-4.356M34 1c.757.674 1 1.839 1 2.667C35 6.244 31.821 8 26.667 8 25.194 8 24 9.027 24 10.5s1.194 2.5 2.667 2.5C32.93 13 37 9.157 37 5.667c0-1.909-.906-3.521-3-4.667z" fill="#8b75a1"></path></g><g><path d="M22.5 34a.5.5 0 011 0c-.078.107-.561.311-1 .422V34z" fill="#ededed"></path><path d="M23 33c-.552 0-1 .448-1 1v1c.552 0 2-.448 2-1s-.448-1-1-1z" fill="#8b75a1"></path></g><g><path d="M17.5 34.42c-.439-.115-.926-.332-1.013-.483.013-.213.237-.437.513-.437s.5.225.5.5v.42z" fill="#ededed"></path><path d="M17 33a1 1 0 00-1 1c0 .552 1.448 1 2 1v-1a1 1 0 00-1-1z" fill="#8b75a1"></path></g></svg>