<svg viewBox="0 0 40 40" xmlns="http://www.w3.org/2000/svg"><path d="M19 20.5c-.425 0-.54-.143-.578-.189-.347-.431-.063-1.742.166-2.797.178-.817.361-1.662.361-2.382 0-3.174 3.571-6.57 8.905-6.631 3.818 2.434 8.116 2.938 10.636 2.993-.178 4.562-2.823 9.006-8.49 9.006H19z" fill="#ededed"></path><path d="M27.714 9.003c3.633 2.27 7.655 2.86 10.247 2.974C37.624 16.114 35.124 20 30 20H19c-.105 0-.166-.012-.186-.012l-.007.001c-.174-.327.114-1.653.269-2.369.183-.843.372-1.715.372-2.488.001-2.906 3.309-6.013 8.266-6.129M28 8c-5.675 0-9.551 3.585-9.551 7.132 0 2.175-1.871 5.868.551 5.868h11c5.675 0 9-4.488 9-10-2.729 0-7.155-.498-11-3z" fill="#8b75a1"></path><path d="M23.5 38.496c-11.772-.17-21.313-6.356-21.958-14.262.233-.239.541-.561.846-.88.37-.388.738-.773.966-1.001l.084-.083L8.475 7.158C9.494 4.442 12.603 1.5 17 1.5h1.643c3.945 0 7.284 2.446 8.93 6.543.615 1.518.927 3.186.927 4.957 0 3.809-.94 6.233-3.354 8.646C23.785 23.007 23.5 25.853 23.5 28v10.496z" fill="#dcd5f2"></path><path d="M18.643 2c3.734 0 6.898 2.329 8.467 6.232.59 1.457.89 3.062.89 4.768 0 3.66-.899 5.985-3.207 8.293C23.311 22.775 23 25.758 23 28v9.985c-11.17-.328-20.165-6.137-20.939-13.567.207-.214.449-.467.689-.719.367-.385.731-.766.957-.992l.167-.167.075-.224L8.936 7.352C9.904 4.774 12.841 2 17 2h1.643m0-1H17c-4.506 0-7.874 3.001-9 6L3 22c-.461.461-1.498 1.569-1.973 2.044C1.529 32.364 11.582 39 24 39V28c0-1.846.233-4.733 1.5-6 2.573-2.573 3.5-5.2 3.5-9 0-1.914-.353-3.637-.964-5.144C26.231 3.364 22.619 1 18.643 1z" fill="#8b75a1"></path><circle cx="23" cy="11" r="2" fill="#36404d"></circle><path d="M35.035 10.653c-.01.116-.035.228-.035.347a3.991 3.991 0 003.373 3.937c.411-1.209.627-2.54.627-3.937-1.096 0-2.47-.089-3.965-.347z" fill="#36404d"></path><path d="M4.387 21l-.513 1.54s-2.152 2.156-2.708 2.697C2.575 33.695 11.656 39.125 23 38.967V28c0-2.242.311-5.225 1.793-6.707.097-.097.178-.195.27-.293H4.387z" fill="#dcd5f2"></path><g><path d="M14.775 28.5c-3.55 0-5.275-2.934-5.275-8.968 0-5.69 2.288-13.032 4.718-13.032 3.352 0 7.282 10.402 7.282 15.738 0 3.628-2.829 6.262-6.725 6.262z" fill="#ededed"></path><path d="M14.217 7C17.012 7 21 16.856 21 22.238 21 25.577 18.382 28 14.775 28 12.725 28 10 27.122 10 19.532 10 13.481 12.475 7 14.217 7m0-1C11.297 6 9 13.895 9 19.532 9 26.042 11.004 29 14.775 29 18.991 29 22 26.059 22 22.238 22 16.873 18.05 6 14.217 6z" fill="#8b75a1"></path></g></svg>