<svg viewBox="0 0 40 40" xmlns="http://www.w3.org/2000/svg"><path d="M11 16.5c-4.136 0-7.5-3.364-7.5-7.5S6.864 1.5 11 1.5c2.103 0 4.054.854 5.493 2.406l.441.476.348-.547A4.983 4.983 0 0121.5 1.5c2.757 0 5 2.243 5 5v2h3c2.206 0 4 1.794 4 4s-1.794 4-4 4H11z" fill="#dcd5f2"></path><path d="M21.5 2C23.981 2 26 4.019 26 6.5V9h3.5c1.93 0 3.5 1.57 3.5 3.5S31.43 16 29.5 16H11c-3.86 0-7-3.14-7-7s3.14-7 7-7c1.962 0 3.783.798 5.127 2.247l.881.95.695-1.094A4.488 4.488 0 0121.5 2m0-1a5.505 5.505 0 00-4.64 2.566A7.972 7.972 0 0011 1a8 8 0 000 16h18.5c2.475 0 4.5-2.025 4.5-4.5S31.975 8 29.5 8H27V6.5C27 3.475 24.525 1 21.5 1z" fill="#8b75a1"></path><path d="M22.422 25.132c.884-.991 3.43-3.792 4.706-4.633l.819-.003c3.213 0 6.74.462 8.331 5.741-1.553-.473-2.986-.711-4.271-.711-3.741 0-5.412 2.018-6.046 3.122l-3.539-3.516z" fill="#dcd5f2"></path><path d="M27.948 20.996c2.967 0 5.961.381 7.551 4.505-1.25-.316-2.419-.475-3.493-.475-3.471 0-5.272 1.603-6.14 2.824l-2.755-2.739c1.172-1.299 3.115-3.36 4.173-4.112l.163-.001.501-.002m0-1c-.338 0-.661.004-.965.004-1.576.947-5.248 5.154-5.248 5.154l4.372 4.346s1.084-3.474 5.899-3.474c1.351 0 2.996.273 4.994.974-1.588-6.677-5.933-7.004-9.052-7.004z" fill="#8b75a1"></path><path d="M26 38.5c-1.93 0-3.5-1.57-3.5-3.5V24.943c2.238.872 7 6.702 7 10.057 0 1.93-1.571 3.5-3.5 3.5z" fill="#dcd5f2"></path><path d="M23 25.79c2.12 1.491 6 6.286 6 9.21 0 1.654-1.346 3-3 3s-3-1.346-3-3v-9.21m-1-1.457V35a4 4 0 008 0c0-3.877-5.791-10.667-8-10.667z" fill="#8b75a1"></path><g><path d="M22.5 38.498c-9.561-.066-14.886-2.049-14.998-3.453l3.048-14.024c.53-4.88 4.589-8.521 9.45-8.521 5.238 0 9.5 4.262 9.5 9.5a9.46 9.46 0 01-6.65 9.064l-.35.109v7.325z" fill="#ededed"></path><path d="M20 13c4.963 0 9 4.037 9 9a8.963 8.963 0 01-6.3 8.587l-.7.22v7.186c-9.429-.13-13.769-2.087-13.991-2.927l3.029-13.939.011-.052.006-.053A8.98 8.98 0 0120 13m0-1c-5.156 0-9.397 3.903-9.939 8.914L7 35c0 2.249 7.006 4 16 4v-7.459c4.057-1.274 7-5.063 7-9.541 0-5.523-4.477-10-10-10z" fill="#8b75a1"></path></g><circle cx="23" cy="21" r="2" fill="#36404d"></circle><path d="M8.675 32l-.698 3.212a13.28 13.28 0 00-.16 1.07c1.891 1.822 7.037 2.572 14.182 2.706V32H8.675z" fill="#ededed"></path></svg>