<svg viewBox="0 0 40 40" xmlns="http://www.w3.org/2000/svg"><path d="M29.642 16.504c-1.521-1.681-2.356-3.801-2.356-5.992 0-3.613 2.449-4.438 5.284-5.392 1.972-.664 4.001-1.347 5.329-3.023.408 1.324.601 2.99.601 5.146 0 4.948-4.034 9.14-8.858 9.261z" fill="#dcd5f2"></path><path d="M37.644 3.105c.241 1.123.356 2.479.356 4.138 0 4.602-3.684 8.512-8.14 8.752-1.341-1.56-2.074-3.491-2.074-5.483 0-3.102 1.786-3.855 4.944-4.918 1.677-.565 3.521-1.185 4.914-2.489M38.026 1c-2.699 4.97-11.24 2.514-11.24 9.512 0 2.494 1.003 4.764 2.64 6.495 5.345 0 9.574-4.631 9.574-9.763 0-2.373-.23-4.548-.974-6.244z" fill="#8b75a1"></path><path d="M10.358 16.504C5.534 16.383 1.5 12.191 1.5 7.243c0-2.156.193-3.822.601-5.146C3.429 3.773 5.458 4.456 7.43 5.12c2.835.954 5.284 1.778 5.284 5.392 0 2.191-.835 4.311-2.356 5.992z" fill="#dcd5f2"></path><path d="M2.356 3.105c1.393 1.304 3.237 1.924 4.915 2.489 3.157 1.063 4.944 1.815 4.944 4.918 0 1.992-.734 3.923-2.074 5.483C5.684 15.755 2 11.845 2 7.243c0-1.659.115-3.015.356-4.138M1.974 1C1.23 2.696 1 4.871 1 7.243c0 5.132 4.146 9.763 9.574 9.763 1.638-1.731 2.64-4 2.64-6.495 0-6.997-8.54-4.541-11.24-9.511z" fill="#8b75a1"></path><path d="M20 38.5c-8.871 0-15.5-5.016-15.5-9.5 0-3.543 1.248-5.512 3.513-9.086l.487-.77V18c0-6.448 5.051-11.5 11.5-11.5S31.5 11.552 31.5 18v1.145l.401.635C34.222 23.445 35.5 25.465 35.5 29c0 4.484-6.629 9.5-15.5 9.5z" fill="#dcd5f2"></path><path d="M20 7c6.168 0 11 4.832 11 11v1.289l.155.245.323.511C33.823 23.75 35 25.609 35 29c0 4.162-6.552 9-15 9S5 33.162 5 29c0-3.398 1.148-5.209 3.435-8.818l.41-.648.155-.245V18c0-6.168 4.832-11 11-11m0-1C13.254 6 8 11.254 8 18v1c-2.559 4.05-4 6.098-4 10 0 4.872 7.006 10 16 10s16-5.128 16-10c0-3.845-1.441-5.95-4-10v-1c0-6.746-5.254-12-12-12z" fill="#8b75a1"></path><circle cx="14" cy="19" r="2" fill="#36404d"></circle><circle cx="26" cy="19" r="2" fill="#36404d"></circle><ellipse cx="20" cy="31.5" rx="5" ry="3.5" fill="#8b75a1"/><g><path d="M20 32.5c-4.65 0-7.5-.157-7.5-3.25 0-3.278 3.224-5.75 7.5-5.75s7.5 2.472 7.5 5.75c0 3.093-2.85 3.25-7.5 3.25z" fill="#ededed"></path><path d="M20 24c3.991 0 7 2.257 7 5.25 0 2.353-1.748 2.75-7 2.75s-7-.397-7-2.75c0-2.993 3.009-5.25 7-5.25m0-1c-4.418 0-8 2.569-8 6.25S15.582 33 20 33s8-.069 8-3.75S24.418 23 20 23z" fill="#8b75a1"></path></g><g><circle cx="23.5" cy="28.5" r="1.5" fill="#8b75a1"></circle></g><g><circle cx="16.5" cy="28.5" r="1.5" fill="#8b75a1"></circle></g></svg>