<svg viewBox="0 0 40 40" xmlns="http://www.w3.org/2000/svg"><path d="M23.392 8.402C21.519 8.402 20 6.874 20 5s1.626-3.5 3.5-3.5M16.607 10.161C18.481 10.161 20 8.874 20 7s-1.626-3.5-3.5-3.5" fill="none" stroke="#8b75a1" stroke-linecap="round" stroke-miterlimit="10"></path><path d="M20 37.5c-6.565 0-11.519-5.768-13.767-10.707L6.1 26.5H5c-1.93 0-3.5-1.57-3.5-3.5a3.495 3.495 0 012.644-3.379l.366-.094.011-.377C4.729 11.496 11.529 5.5 20 5.5s15.271 5.996 15.479 13.65l.011.377.366.094A3.495 3.495 0 0138.5 23c0 1.93-1.57 3.5-3.5 3.5h-1.1l-.133.293C31.519 31.732 26.565 37.5 20 37.5z" fill="#dcd5f2"></path><path d="M20 6c8.061 0 14.781 5.905 14.98 13.164l.021.754.731.187A2.998 2.998 0 0138 23c0 1.654-1.346 3-3 3H33.578l-.267.586C30.953 31.77 25.922 37 20 37S9.047 31.77 6.688 26.586L6.421 26H5c-1.654 0-3-1.346-3-3 0-1.363.933-2.553 2.268-2.895l.731-.187.021-.754C5.219 11.905 11.939 6 20 6m0-1C11.299 5 4.235 11.298 4.02 19.137 2.293 19.578 1 21.14 1 23c0 2.2 1.8 4 4 4h.778C8.436 32.842 13.805 38 20 38s11.564-5.158 14.222-11H35c2.2 0 4-1.8 4-4 0-1.86-1.293-3.422-3.02-3.863C35.765 11.298 28.701 5 20 5z" fill="#8b75a1"></path><path d="M20 34.5a7.45 7.45 0 01-7.49-7.314l-.007-.281-.243-.14A5.525 5.525 0 019.5 22c0-3.032 2.467-5.5 5.5-5.5 1.846 0 3.56.921 4.583 2.462l.417.627.417-.627A5.492 5.492 0 0125 16.5c3.033 0 5.5 2.468 5.5 5.5a5.525 5.525 0 01-2.76 4.765l-.243.14-.007.281A7.45 7.45 0 0120 34.5z" fill="#ededed"></path><path d="M25 17c2.757 0 5 2.243 5 5a5.017 5.017 0 01-2.51 4.331l-.486.281-.014.561C26.897 31.001 23.826 34 20 34s-6.897-2.999-6.99-6.828l-.014-.561-.486-.281A5.015 5.015 0 0110 22c0-2.757 2.243-5 5-5 1.678 0 3.236.837 4.167 2.239L20 20.494l.833-1.254A4.992 4.992 0 0125 17m0-1a5.993 5.993 0 00-5 2.686A6 6 0 009 22a5.994 5.994 0 003.01 5.197C12.115 31.523 15.648 35 20 35s7.885-3.477 7.99-7.803A5.994 5.994 0 0031 22a6 6 0 00-6-6z" fill="#8b75a1"></path><circle cx="25" cy="22" r="2" fill="#36404d"></circle><circle cx="15" cy="22" r="2" fill="#36404d"></circle></svg>