<svg viewBox="0 0 40 40" xmlns="http://www.w3.org/2000/svg"><path d="M20.698 24.897c-.376-.466-1.025-.953-2.143-1.309-2.787-.887-2.55-1.895-2.155-3.565.172-.73.367-1.559.267-2.424.061-.849-.319-2.43-.485-3.065-1.359-5.228-1.353-10.707.016-12.477.289-.374.62-.557 1.012-.557.157 0 .329.029.51.087C20.624 2.51 22.5 6.989 22.5 13v7c0 1.083-.724 2.948-1.224 3.823-.239.418-.428.774-.578 1.074z" fill="#dcd5f2"></path><path d="M17.21 2c.106 0 .226.021.358.063C20.219 2.906 22 7.301 22 13v7c0 .887-.611 2.619-1.158 3.575-.096.168-.187.332-.273.49-.435-.355-1.035-.69-1.861-.953-2.346-.746-2.203-1.353-1.821-2.974.176-.747.375-1.591.285-2.51.035-.973-.299-2.425-.506-3.22C15.363 9.4 15.33 3.996 16.593 2.363c.249-.322.461-.363.617-.363m0-1c-2.94 0-3.186 7.222-1.512 13.66.277 1.067.515 2.3.471 2.998.304 2.589-2.38 4.94 2.235 6.407 1.853.589 2.261 1.525 2.301 2.074.129-.383.416-1.039 1.005-2.068C22.259 23.112 23 21.174 23 20v-7c0-5.594-1.715-10.804-5.129-11.89A2.187 2.187 0 0017.21 1zm3.495 25.14c-.106.313-.106.442-.079.442.031 0 .099-.176.079-.442z" fill="#8b75a1"></path><path d="M21.521 38.492C15.4 38.306 6.283 34.64 5.548 31.411c.682-.149 1.315-.403 1.914-.656C10.427 29.521 12.5 26.743 12.5 24c0-1.328.567-2.448 1.841-3.634l.201-.188-.051-.271c-.098-.528-1.972-3.998-2.052-4.146C9.38 10.102 7.896 4.757 8.912 3.054c.225-.378.57-.554 1.088-.554 5.238 0 9.5 5.607 9.5 12.5v1.5H22c6.779 0 12.5 6.449 12.5 10.5 0 1.204-.782 2.5-2.5 2.5h-.393l-.093.382c-.388 1.59-2.16 2.618-4.514 2.618-2.783 0-4.671 2.528-5.308 5.033a5.097 5.097 0 00-.171.959z" fill="#dcd5f2"></path><path d="M10 3c4.963 0 9 5.383 9 12v2h3c6.391 0 12 6.233 12 10 0 .923-.524 2-2 2h-.785l-.186.763C30.697 31.122 29.116 32 27 32c-3.051 0-5.108 2.717-5.786 5.386a5.58 5.58 0 00-.131.588c-5.804-.328-13.525-3.608-14.877-6.217.51-.152.989-.346 1.444-.539C10.8 29.906 13 26.939 13 24c0-1.178.519-2.185 1.681-3.268l.402-.374-.1-.54c-.102-.552-1.505-3.186-2.104-4.293-3.22-5.959-4.327-10.89-3.537-12.216C9.431 3.16 9.563 3 10 3m0-1c-3.732 0-1.386 7.736 2 14 .625 1.156 1.938 3.664 2 4-1.208 1.125-2 2.362-2 4 0 2.66-2.06 5.181-4.734 6.294-.705.299-1.452.597-2.266.706 0 3.859 10.596 8 17 8 0-.461.054-.909.176-1.344C22.774 35.309 24.476 33 27 33c2.75 0 4.583-1.292 5-3 1.914 0 3-1.403 3-3 0-4.492-6.16-11-13-11h-2v-1c0-7.121-4.379-13-10-13z" fill="#8b75a1"></path><circle cx="25" cy="23" r="2" fill="#36404d"></circle><g><path d="M34 26c0-.427-.19-1-.5-1H31l3 3c.39-.057 0-1.593 0-2z" fill="#8b75a1"></path></g><path d="M12.542 26.329c-.796 2.076-2.584 3.928-4.891 4.888-.456.193-.934.387-1.444.539-.477.126-.83.187-1.001.196 2.086 4.423 8.982 6.548 15.758 7.014.045-.303.196-1.39.25-1.581.385-1.514 1.214-3.042 2.416-4.082l-11.088-6.974z" fill="#dcd5f2"></path></svg>