<svg viewBox="0 0 40 40" xmlns="http://www.w3.org/2000/svg"><path d="M19.498 38.475C9.037 37.89 1.5 33.109 1.5 27l-.005-.5H2c2.199 0 3.45-2.059 3.502-2.146l.063-.106.006-.124c.002-.028.158-2.891 1.031-6.421C7.942 12.399 11.466 3.5 20 3.5c4.299 0 7.709 4.562 7.743 4.607l10.328 12.762c.567.711.628 2.095-.144 2.878l-2.936 2.593c-.965-.779-3.82-2.84-6.991-2.84-2.775 0-4.311-.396-6.638-2.845l-.604-.637-.239.846c-1.183 4.186-1.097 11.168-1.039 15.788.007.66.015 1.272.018 1.823z" fill="#dcd5f2"></path><path d="M20 4c4.03 0 7.308 4.36 7.368 4.439l10.311 12.739c.416.522.466 1.608-.086 2.196l-2.621 2.316C33.734 24.755 31.01 23 28 23c-2.745 0-4.106-.406-6.275-2.689l-1.21-1.273-.478 1.69c-1.202 4.256-1.116 11.282-1.058 15.932l.015 1.282C9.085 37.246 2 32.733 2 27c2.481 0 3.873-2.294 3.931-2.392l.126-.213.013-.247c.001-.028.154-2.836 1.016-6.321C8.681 11.519 12.216 4 20 4m0-1C11.381 3 7.651 11.515 6.117 17.582c-.896 3.624-1.045 6.515-1.045 6.515S3.941 26 2 26H1c-.014.231 0 .769 0 1 0 6.841 8.386 11.552 19 12 0-4.238-.384-13.1 1-18 2.334 2.457 3.973 3 7 3 3.678 0 7 3 7 3l3.284-2.903c.923-.937.923-2.606.176-3.542L28.145 7.81S24.601 3 20 3z" fill="#8b75a1"></path><path d="M19.499 38.475C9.038 37.89 1.5 33.109 1.5 27l-.005-.5H2c2.199 0 3.45-2.059 3.502-2.146l.063-.106.006-.124c.002-.028.158-2.891 1.031-6.421C7.942 12.399 11.466 3.5 20 3.5c4.299 0 7.709 4.562 7.743 4.607l10.328 12.762c.843.95.562 2.162-.144 2.878l-2.936 2.593c-.965-.779-3.82-2.84-6.991-2.84-2.775 0-4.311-.396-6.638-2.845l-.604-.637-.239.846c-.592 2.095-.929 5.079-1.031 9.123-.001 2.125.011 8.488.011 8.488z" fill="#dcd5f2"></path><path d="M20 4c4.03 0 7.308 4.36 7.368 4.439l10.344 12.779c.615.693.407 1.603-.119 2.155l-2.621 2.317C33.734 24.755 31.01 23 28 23c-2.745 0-4.106-.406-6.275-2.689l-1.21-1.273-.477 1.69c-.603 2.133-.946 5.158-1.051 9.271 0 2.114.004 3.956.008 5.576L19 37.942C9.087 37.248 2 32.734 2 27c2.481 0 3.873-2.294 3.931-2.392l.126-.213.013-.246c.001-.028.157-2.849 1.016-6.322C8.681 11.519 12.216 4 20 4m0-1C11.381 3 7.651 11.515 6.117 17.582c-.896 3.624-1.045 6.515-1.045 6.515S3.941 26 2 26H1c-.014.231 0 .769 0 1 0 6.841 8.386 11.552 19 12 0-2.323-.013-5.229-.013-9 .084-3.278.338-6.61 1.013-9 2.334 2.457 3.973 3 7 3 3.678 0 7 3 7 3l3.284-2.903c.923-.937 1.154-2.441.176-3.542L28.145 7.81S24.601 3 20 3z" fill="#8b75a1"></path><circle cx="27" cy="15" r="2" fill="#36404d"></circle><path d="M3.806 26.479c-.699 0-1.284-.13-1.713-.311 2.581-1.208 3.226-4.831 3.961-8.957 1.304-7.322 2.779-15.616 14.74-15.71l1.121 1.121.331-.187c1.021-.578 1.94-.858 2.811-.858 1.48 0 2.571.824 3.626 1.622.878.664 1.71 1.293 2.688 1.354C30.692 6.906 28.173 8.5 25 8.5a14 14 0 00-.69-.013c-.273 0-1.312.013-1.312.013-1.618.004-5.514 1.554-6.283 2.09-1.859 1.294-2.42 3.374-3.012 5.576-.735 2.73-1.568 5.826-5.006 8.436-2.042 1.55-3.787 1.877-4.891 1.877.001 0 .001 0 0 0z" fill="#ededed"></path><path d="M20.589 2.003l.704.704.538.538.662-.374c.944-.534 1.783-.793 2.565-.793 1.313 0 2.335.773 3.324 1.521.724.547 1.467 1.109 2.317 1.345-.824 1.843-2.998 3.056-5.651 3.057-.216-.01-.47-.014-.732-.014-.272 0-.554.004-.811.008-.188.002-.362.005-.508.005-1.735.005-5.743 1.605-6.568 2.179-2.009 1.398-2.592 3.564-3.208 5.856-.714 2.654-1.524 5.662-4.825 8.168-1.932 1.467-3.562 1.775-4.589 1.775-.17 0-.329-.008-.478-.023 1.981-1.706 2.586-5.105 3.218-8.656 1.26-7.087 2.688-15.108 14.042-15.296M21 1C.653 1 9.084 24.383 1 26c.385.496 1.404.978 2.806.978 1.423 0 3.242-.496 5.194-1.978 6.388-4.849 4.121-11.3 8-14 .671-.467 4.491-1.996 6-2 .344-.001.845-.013 1.316-.013.245 0 .482.003.684.013 3.761 0 6.589-2.121 7-5a1.95 1.95 0 01-.473.058c-1.963 0-3.486-2.981-6.471-2.981-.876 0-1.879.257-3.056.923l-1-1z" fill="#8b75a1"></path><path d="M23.404 8.97L21.5 1.5s-4.556 2.235-4.001 9.491" fill="#dcd5f2" stroke="#8b75a1" stroke-miterlimit="10"></path><g><path d="M22.92 9.093s-5.29-3.565-4.928 1.73L21 12l2.404-3.03-.484.123z" fill="#dcd5f2"></path></g><path d="M19 27H1c0 7.5 7.344 11.932 18 11.932V27z" fill="#dcd5f2"></path></svg>