<svg viewBox="0 0 40 40" xmlns="http://www.w3.org/2000/svg"><path d="M36.173 19.242c.312-1.263.327-2.721.327-6.242 0-4.191-1.953-6.5-5.5-6.5-2.053 0-4.5 1.301-4.5 7.5v1.5h-6V11c0-4.588 3.415-9.5 8.5-9.5 5.946 0 9.5 4.83 9.5 9.5 0 4.511-.993 6.74-2.327 8.242z" fill="#ededed"></path><path d="M29 2c5.634 0 9 4.576 9 9 0 2.865-.41 4.77-1.053 6.146.049-.996.053-2.29.053-4.146 0-4.449-2.187-7-6-7-2.281 0-5 1.388-5 8v1h-5v-4c0-4.346 3.215-9 8-9m0-1c-5.155 0-9 4.845-9 10v5h7v-2c0-3.942 1.012-7 4-7 3.262 0 5 2.058 5 6 0 5.268-.034 5.815-1 8 2.053-1.632 4-3.723 4-10 0-5.155-3.948-10-10-10z" fill="#8b75a1"></path><path d="M32.5 18.5c-3.687 0-5-1.808-5-3.5 0-1.353 3.435-2.495 7.5-2.495 4.309 0 4.5.485 4.5 1.495 0 1.501-3.026 4.5-7 4.5z" fill="#dcd5f2"></path><path d="M35 13.004c4 0 4 .418 4 .996 0 1.16-2.813 4-6.5 4-4.175 0-4.5-2.296-4.5-3 0-.677 2.471-1.996 7-1.996m0-1c-4.142 0-8 1.156-8 2.996s1.358 4 5.5 4 7.5-3.16 7.5-5c0-1.572-.858-1.996-5-1.996z" fill="#8b75a1"></path><path d="M3.827 19.242C2.493 17.74 1.5 15.511 1.5 11c0-4.67 3.554-9.5 9.5-9.5 5.085 0 8.5 4.912 8.5 9.5v4.5h-6V14c0-6.199-2.447-7.5-4.5-7.5-3.547 0-5.5 2.309-5.5 6.5 0 3.521.015 4.979.327 6.242z" fill="#ededed"></path><path d="M11 2c4.785 0 8 4.654 8 9v4h-5v-1c0-6.612-2.719-8-5-8-3.813 0-6 2.551-6 7 0 1.856.004 3.15.053 4.146C2.41 15.77 2 13.865 2 11c0-4.424 3.366-9 9-9m0-1C4.948 1 1 5.845 1 11c0 6.277 1.947 8.368 4 10-.966-2.185-1-2.732-1-8 0-3.942 1.738-6 5-6 2.988 0 4 3.058 4 7v2h7v-5c0-5.155-3.845-10-9-10z" fill="#8b75a1"></path><path d="M7.5 18.5c-3.974 0-7-2.999-7-4.5 0-1.01.191-1.495 4.5-1.495 4.065 0 7.5 1.143 7.5 2.495 0 1.692-1.313 3.5-5 3.5z" fill="#dcd5f2"></path><path d="M5 13.004c4.529 0 7 1.318 7 1.996 0 .704-.325 3-4.5 3C3.813 18 1 15.16 1 14c0-.578 0-.996 4-.996m0-1c-4.142 0-5 .423-5 1.996 0 1.84 3.358 5 7.5 5s5.5-2.16 5.5-4-3.858-2.996-8-2.996z" fill="#8b75a1"></path><path d="M20 38.5c-3.584 0-6.5-1.57-6.5-3.5 0-4.544-.051-6.217-1.053-8.224a35.628 35.628 0 00-.978-1.793C10.413 23.132 9.5 21.533 9.5 19c0-1.071.496-2.027.928-2.741l3.02-6.035C13.885 9.368 14.846 8.5 16 8.5c.696 0 1.399.263 2.078.517.666.248 1.295.483 1.922.483s1.256-.235 1.922-.483C22.601 8.763 23.304 8.5 24 8.5c1.154 0 2.115.868 2.555 1.728l2.998 5.996c.451.749.947 1.705.947 2.776 0 2.533-.913 4.132-1.97 5.983-.328.576-.663 1.163-.978 1.793C26.551 28.783 26.5 30.456 26.5 35c0 1.93-2.916 3.5-6.5 3.5z" fill="#dcd5f2"></path><path d="M24 9c.938 0 1.751.754 2.106 1.447l3 6 .018.036.021.035c.398.658.855 1.534.855 2.482 0 2.4-.882 3.946-1.903 5.735a36.4 36.4 0 00-.991 1.818C26.054 28.66 26 30.369 26 35c0 1.449-2.411 3-6 3s-6-1.551-6-3c0-4.631-.054-6.34-1.105-8.447-.323-.647-.663-1.242-.991-1.818C10.882 22.946 10 21.4 10 19c0-.948.457-1.824.855-2.482l.021-.035.018-.036 2.996-5.992C14.249 9.754 15.062 9 16 9c.606 0 1.265.246 1.903.484.678.254 1.38.516 2.097.516s1.419-.262 2.097-.516C22.735 9.246 23.394 9 24 9m0-1c-1.479 0-2.854 1-4 1s-2.521-1-4-1c-1.295 0-2.448.921-3 2l-3 6c-.493.814-1 1.833-1 3 0 3.486 1.682 5.359 3 8 .956 1.915 1 3.566 1 8 0 2.209 3.073 4 7 4s7-1.791 7-4c0-4.434.044-6.085 1-8 1.318-2.641 3-4.514 3-8 0-1.167-.507-2.186-1-3l-3-6c-.552-1.079-1.705-2-3-2z" fill="#8b75a1"></path><circle cx="15" cy="19" r="2" fill="#36404d"></circle><path d="M20 32.491c-1.657 0-3-1.105-3 0 0 .591.385 1.122.996 1.488C18.527 34.297 20 35.167 20 36v-3.509z" fill="#8b75a1"></path><circle cx="25" cy="19" r="2" fill="#36404d"></circle><path d="M20 32.491c1.657 0 3-1.105 3 0 0 .591-.385 1.122-.996 1.488C21.473 34.297 20 35.167 20 36v-3.509z" fill="#8b75a1"></path></svg>