<svg viewBox="0 0 40 40" xmlns="http://www.w3.org/2000/svg"><path d="M18 17.5c-.5 0-1.318-.406-1.593-.791l-4.62-6.827a1.508 1.508 0 01-.209-1.356l2-6a1.498 1.498 0 011.897-.949 1.503 1.503 0 01.949 1.897L14.67 8.735l3.057 4.765h4.547l3.057-4.765-1.754-5.261A1.503 1.503 0 0124.999 1.5a1.5 1.5 0 011.424 1.026l2 6c.151.454.075.957-.203 1.346l-4.635 6.848c-.267.374-1.085.78-1.585.78h-4z" fill="#ffeea3"></path><path d="M24.999 2a1 1 0 01.95.684l2 6c.101.303.05.638-.149.918l-4.613 6.816c-.183.256-.848.582-1.187.582h-4c-.339 0-1.004-.326-1.172-.56l-4.642-6.858a1.005 1.005 0 01-.135-.898l2-6a1.002 1.002 0 011.265-.633c.523.175.807.742.633 1.265L14.271 8.35l-.151.454.258.403 2.781 4.334.295.459H22.546l.295-.46 2.781-4.334.258-.403-.151-.453-1.678-5.034A1.002 1.002 0 0124.999 2m0-1a2 2 0 00-1.897 2.633l1.678 5.034L22 13h-4l-2.781-4.333 1.678-5.034a2 2 0 00-3.794-1.266l-2 6a1.997 1.997 0 00.27 1.796L16 17c.375.525 1.354 1 2 1h4c.646 0 1.625-.475 2-1l4.627-6.837a1.995 1.995 0 00.27-1.795l-2-6A2 2 0 0024.999 1z" fill="#ba9b48"></path><path d="M18.963 38.5a1.532 1.532 0 01-1.455-1.048C17.503 37.429 16.5 32.839 16.5 27v-6.5h7v.7l3.552 3.731c.434.434.564 1.068.341 1.626l-2 5a1.493 1.493 0 01-1.949.835 1.487 1.487 0 01-.822-.802 1.489 1.489 0 01-.014-1.148l1.647-4.118-3.892-3.148-.244.647c-.026.067-.619 1.656-.619 3.177 0 5.261.913 9.453.922 9.48a1.538 1.538 0 01-1.459 2.02z" fill="#dcd5f2"></path><path d="M17 21h6v.4l.276.29 3.431 3.604c.283.283.37.706.221 1.078l-2 5a.995.995 0 01-1.299.556.995.995 0 01-.557-1.299l1.51-3.776.274-.685-.574-.464-3.068-2.481-1.076-.87-.489 1.295C19.624 23.717 19 25.389 19 27c0 5.427.938 9.609.947 9.636A1.039 1.039 0 0118.963 38c-.445 0-.839-.284-.966-.662C17.866 36.83 17 32.259 17 27v-6m-1-1v7c0 5.708.975 10.432 1.034 10.61a2.034 2.034 0 002.572 1.285 2.038 2.038 0 001.29-2.573C20.884 36.284 20 32.131 20 27c0-1.447.586-3 .586-3l3.068 2.481-1.51 3.776a2 2 0 003.713 1.485l2-5a2 2 0 00-.443-2.157L24 21v-1h-8z" fill="#8b75a1"></path><g><path d="M16.5 17.424c1-.337 1-1.715 1-2.424v-2.5h5V15c0 .709 0 2.087 1 2.424v3.311c-1.634 1.063-4.146 1.693-7 1.759v-5.07z" fill="#ffb5d2"></path><path d="M22 13v2c0 .589 0 2.133 1 2.745v2.713c-1.457.867-3.58 1.403-6 1.519v-4.232c1-.612 1-2.156 1-2.745v-2h4m1-1h-6v3c0 .951-.049 2-1 2v6c3.147 0 6.117-.667 8-2v-4c-.952 0-1-1.048-1-2v-3z" fill="#ea4c89"></path></g><g><circle cx="20" cy="8" r="2.5" fill="#ffeea3"></circle><path d="M20 6c1.103 0 2 .897 2 2s-.897 2-2 2-2-.897-2-2 .897-2 2-2m0-1a3 3 0 100 6 3 3 0 000-6z" fill="#ba9b48"></path></g></svg>