<svg viewBox="0 0 40 40" xmlns="http://www.w3.org/2000/svg"><path d="M37.625 28.838c-.378 1.96-1.985 3.453-3.97 3.733-3.119.467-7.817.928-13.677.928a96.01 96.01 0 01-13.772-1c-1.985-.28-3.592-1.773-3.97-3.733-.378-2.147-.732-4.82-.732-8.74s.397-6.718.775-8.865c.378-1.96 1.985-3.453 3.97-3.733 3.119-.467 7.912-1.053 13.772-1.053s10.464.658 13.678 1.125c1.985.28 3.592 1.773 3.97 3.733.378 2.147.832 4.945.832 8.865-.096 3.92-.498 6.594-.876 8.74z" fill="#f78f8f"></path><path d="M20.003 7c5.815 0 10.841.553 14.037 1.017 1.575.222 2.832 1.401 3.124 2.917.359 2.036.836 5.192.836 9.042-.106 4.38-.569 7.576-.833 9.075-.295 1.532-1.552 2.71-3.136 2.934C31.991 32.29 26.538 33 20.003 33c-6.121 0-11.42-.637-14.037-1.017-1.575-.222-2.832-1.401-3.124-2.917C2.503 27.147 2.1 24.016 2.1 20s.403-7.147.738-9.051c.295-1.532 1.552-2.71 3.136-2.934C8.015 7.71 13.467 7 20.003 7m0-1c-5.86 0-11.058.56-14.177 1.027-1.985.28-3.592 1.773-3.97 3.733C1.478 12.907 1.1 16.08 1.1 20s.378 7.093.756 9.24c.378 1.96 1.985 3.453 3.97 3.733A101.88 101.88 0 0020.003 34c5.86 0 11.058-.56 14.177-1.027 1.985-.28 3.592-1.773 3.97-3.733.377-2.147.755-5.32.85-9.24 0-3.92-.473-7.093-.851-9.24-.378-1.96-1.985-3.453-3.97-3.733A100.676 100.676 0 0020.003 6z" fill="#c74343"></path><path fill="#fff" d="M16 26V14l11 6z"></path></svg>