<svg viewBox="0 0 40 40" xmlns="http://www.w3.org/2000/svg"><circle cx="20" cy="20" r="16" fill="#c2e8ff"></circle><path fill="#778b9d" d="M33 19h2v2h-2zM32 18h1v2h-1zM31 19h1v2h-1zM30 18h1v2h-1zM29 19h1v2h-1zM28 18h1v2h-1zM27 19h1v2h-1zM26 18h1v2h-1z"></path><path fill="#8bb8f0" d="M9 9l9 10v2L8 31l-3-8v-7z"></path><path fill="#ffeea3" d="M17.5 17.5h8v5h-8z"></path><path d="M25 18v4h-7v-4h7m1-1h-9v6h9v-6z" fill="#ba9b48"></path><path d="M19.5 30.5v-8.676c0-.868.26-2.324 2-2.324s2 1.456 2 2.324V30.5h-4z" fill="#ffeea3"></path><path d="M21.5 20c.371 0 1.5 0 1.5 1.824V30h-3v-8.176C20 20 21.129 20 21.5 20m0-1C19 19 19 21.464 19 21.824V31h5v-9.176c0-.36 0-2.824-2.5-2.824z" fill="#ba9b48"></path><path fill="#b6c9d6" d="M0 40h2l7.753-7.998L8 30l-8 8z"></path><path d="M20 5c8.411 0 15 6.589 15 15s-6.589 15-15 15S5 28.411 5 20 11.589 5 20 5m0-1C11.006 4 4 11.006 4 20s7.006 16 16 16 16-7.006 16-16S28.994 4 20 4z" fill="#788b9c"></path><path fill="#788b9c" d="M3 40l7.354-7.646-.708-.708L1.484 40zM0 38.553l8.354-8.199-.708-.708L0 37z"></path><path d="M20 6c7.85 0 14 6.15 14 14s-6.15 14-14 14S6 27.85 6 20 12.15 6 20 6m0-1C11.568 5 5 11.568 5 20s6.568 15 15 15 15-6.568 15-15S28.432 5 20 5z" fill="#fff"></path><path fill="#778b9d" d="M16.463 15.56l.663.75-1.496 1.326-.664-.749zM15.125 14.153l.65.759-1.517 1.302-.651-.76zM13.875 12.736l.65.759-1.517 1.302-.651-.76zM12.583 11.381l.65.76-1.517 1.302-.651-.76zM11.291 9.943l.651.76-1.518 1.301-.65-.759zM14.863 22.62l.72-.695 1.389 1.44-.72.694zM13.51 24.018l.731-.683 1.366 1.461-.73.683zM12.149 25.327l.73-.683 1.366 1.461-.73.683zM10.85 26.675l.731-.683 1.366 1.461-.73.683zM9.469 28.027l.73-.682 1.366 1.46-.73.684z"></path></svg>