<svg viewBox="0 0 40 40" xmlns="http://www.w3.org/2000/svg"><path d="M3.499 38.5a1.986 1.986 0 01-1.413-.585c-.378-.378-.586-.88-.586-1.414s.208-1.035.585-1.413l18.233-17.382 1.983 1.984L4.904 37.923a1.979 1.979 0 01-1.405.577z" fill="#b6c9d6"></path><path d="M20.31 18.405l1.293 1.294L4.559 37.561a1.49 1.49 0 01-1.06.439c-.4 0-.777-.156-1.06-.439-.584-.584-.584-1.535-.017-2.103L20.31 18.405m.017-1.398L1.732 34.734a2.499 2.499 0 000 3.534A2.49 2.49 0 003.499 39a2.49 2.49 0 001.767-.732L23 19.683l-2.673-2.676z" fill="#788b9c"></path><path d="M26 26.5c-6.893 0-12.5-5.607-12.5-12.5S19.107 1.5 26 1.5 38.5 7.107 38.5 14 32.893 26.5 26 26.5z" fill="#d1edff"></path><path d="M26 2c6.617 0 12 5.383 12 12s-5.383 12-12 12-12-5.383-12-12S19.383 2 26 2m0-1c-7.18 0-13 5.82-13 13s5.82 13 13 13 13-5.82 13-13S33.18 1 26 1z" fill="#788b9c"></path><path fill="#36404d" d="M32 13v2H20v-2z"></path></svg>